<!-- Generated by IcoMoon.io -->
<svg version="1.1" xmlns="http://www.w3.org/2000/svg" width="32" height="32" viewBox="0 0 32 32">
<title>a_sea_of_troubles</title>
<path d="M17.607 27.126c-0.199-0.199-0.882-0.358-1.965-0.456-1.247-0.114-1.873-0.276-2.519-0.655-0.747-0.437-1.004-0.488-1.97-0.389-0.942 0.097-1.196 0.052-1.674-0.302-0.31-0.229-0.753-0.417-0.985-0.417-0.568 0-1.681-0.709-1.825-1.162-0.064-0.202-0.44-0.471-0.835-0.598-0.987-0.318-1.204-0.528-1.204-1.166 0-0.374-0.22-0.762-0.688-1.218-0.562-0.545-0.665-0.762-0.561-1.176 0.070-0.279 0.205-0.555 0.3-0.614s0.173-0.366 0.173-0.682c0-0.425 0.119-0.621 0.456-0.749 0.397-0.151 0.471-0.343 0.579-1.5 0.104-1.116 0.201-1.383 0.612-1.682 0.269-0.196 0.488-0.505 0.488-0.688 0-0.287 2.461-2.728 2.924-2.901 0.092-0.034 0.352-0.362 0.578-0.728s0.526-0.666 0.667-0.666c0.14 0 0.516-0.297 0.835-0.661 0.734-0.836 1.318-1.149 1.877-1.009 0.291 0.073 0.552-0.014 0.771-0.255 0.182-0.201 0.629-0.422 0.992-0.49s0.733-0.252 0.82-0.408c0.199-0.356 1.939-0.877 3.346-1.003 0.587-0.052 1.178-0.185 1.312-0.295 0.288-0.236 2.506-0.559 3.688-0.537 0.933 0.017 2.357 0.851 2.918 1.709 0.446 0.682 0.389 3.831-0.085 4.753-1.118 2.171-3.804 5.211-4.96 5.614-0.299 0.104-0.543 0.29-0.542 0.413 0.003 0.28 1.914 1.162 3.181 1.469 1.197 0.29 2.057 0.729 2.057 1.050 0 0.136 0.384 0.49 0.854 0.787 0.623 0.393 0.888 0.706 0.98 1.155 0.354 1.73 0.351 1.766-0.216 2.394-0.302 0.334-0.707 0.835-0.898 1.113-0.203 0.294-0.533 0.505-0.791 0.505-0.243 0-0.647 0.218-0.898 0.485-0.268 0.285-0.672 0.485-0.981 0.485-0.289 0-0.623 0.119-0.743 0.263-0.291 0.35-3.251 0.561-3.725 0.265-0.255-0.159-0.478-0.155-0.854 0.016-0.687 0.313-1.124 0.292-1.489-0.073zM23.203 26.232c0.49-0.46 0.591-1.045 0.207-1.189-0.165-0.062-0.134-0.136 0.097-0.231 0.534-0.221 0.922 0.035 0.922 0.608v0.525l0.449-0.422c0.247-0.232 0.633-0.422 0.857-0.422 0.249 0 0.659-0.321 1.054-0.825 0.355-0.454 0.712-0.854 0.793-0.89 0.204-0.090 0.185-0.763-0.026-0.893-0.095-0.059-0.307 0.097-0.47 0.347s-0.566 0.565-0.895 0.701c-0.329 0.136-0.597 0.373-0.597 0.526s0.087 0.225 0.194 0.159c0.107-0.066 0.194 0.060 0.194 0.28 0 0.498-0.203 0.504-0.813 0.024-0.409-0.321-0.587-0.346-1.239-0.173-0.419 0.112-1.133 0.246-1.587 0.298-0.532 0.061-0.825 0.192-0.825 0.367 0 0.149 0.087 0.272 0.194 0.272s0.194 0.087 0.194 0.194c0 0.107-0.221 0.194-0.49 0.194-0.343 0-0.545-0.144-0.672-0.48-0.101-0.265-0.381-0.518-0.626-0.565-0.244-0.047-0.844-0.165-1.334-0.262-0.806-0.161-0.908-0.139-1.068 0.225-0.184 0.419-1.050 0.682-1.050 0.319 0-0.114 0.087-0.208 0.194-0.208 0.404 0 0.168-0.499-0.53-1.12-0.629-0.559-0.753-0.605-0.943-0.345-0.272 0.373-0.662 0.391-0.662 0.031 0-0.182-0.362-0.314-1.116-0.408-0.614-0.077-1.351-0.261-1.639-0.41-0.311-0.161-0.569-0.196-0.636-0.087-0.062 0.101-0.606-0.161-1.208-0.583s-1.197-0.767-1.322-0.767c-0.125 0-0.541-0.349-0.924-0.776-0.566-0.631-0.827-0.776-1.391-0.776-0.57 0-0.694-0.071-0.694-0.398 0-0.253 0.201-0.483 0.552-0.631 0.523-0.221 3.718-3.866 3.718-4.242 0-0.097-0.174-0.241-0.388-0.32-0.381-0.141-0.382-0.155-0.029-0.819 0.197-0.371 0.656-0.867 1.018-1.101s0.894-0.607 1.18-0.828c0.681-0.527 0.93-0.163 0.389 0.568-0.277 0.374-0.336 0.6-0.195 0.741 0.38 0.38-0.023 0.642-0.503 0.327-0.811-0.532-1.597 0.263-1.043 1.054 0.25 0.356 0.315 0.335 1.566-0.5 0.833-0.556 1.348-1.044 1.424-1.346 0.087-0.347 0.213-0.445 0.468-0.364 0.221 0.070 0.529-0.069 0.842-0.382 0.271-0.271 0.701-0.493 0.955-0.493 0.302 0 0.779-0.335 1.381-0.97 0.6-0.634 1.079-0.97 1.379-0.97 0.253 0 0.509-0.079 0.569-0.175s0.414-0.166 0.788-0.156c0.996 0.028 1.258-0.337 0.517-0.72-0.327-0.169-0.725-0.308-0.883-0.308s-0.522-0.089-0.807-0.197c-0.427-0.162-0.477-0.248-0.283-0.481 0.171-0.206 0.333-0.232 0.591-0.094 0.195 0.104 0.574 0.19 0.842 0.19s0.541 0.087 0.607 0.194c0.19 0.307 0.679 0.226 0.679-0.113 0-0.169 0.109-0.269 0.243-0.222 0.257 0.091 0.276 0.415 0.055 0.95-0.113 0.275 0.037 0.254 0.997-0.141 1.416-0.582 2.64-0.613 3.314-0.083 0.273 0.215 0.53 0.358 0.57 0.318 0.158-0.158-0.338-1.113-0.519-1.001-0.107 0.066-0.295-0.104-0.42-0.377s-0.321-0.497-0.438-0.499c-0.116-0.001-0.401-0.053-0.632-0.115-0.331-0.089-0.435-0.019-0.485 0.327-0.074 0.507-0.55 0.756-0.55 0.288 0-0.65-2.078-0.942-2.803-0.393-0.213 0.161-0.792 0.285-1.331 0.285-0.725 0-1.087 0.112-1.51 0.468-0.502 0.422-2.005 0.891-2.858 0.891-0.182 0-0.579 0.311-0.882 0.692-0.51 0.639-0.529 0.718-0.243 1.034 0.17 0.188 0.307 0.51 0.303 0.715-0.006 0.365-0.012 0.365-0.284 0.006-0.243-0.321-0.439-0.351-1.544-0.237-1.777 0.182-1.951 0.269-1.414 0.705l0.434 0.352-0.582 0.13c-0.995 0.221-1.052 0.26-1.189 0.804-0.073 0.291-0.338 0.831-0.588 1.2s-0.455 0.746-0.455 0.838c0 0.092-0.262 0.167-0.582 0.167s-0.582 0.030-0.582 0.067c0 0.335 0.713 1.362 0.997 1.436 0.199 0.052 0.361 0.166 0.361 0.255 0 0.383-0.461 0.377-1.277-0.019-0.483-0.234-0.927-0.376-0.988-0.316s-0.107 0.572-0.104 1.138c0.007 1.285-0.385 1.978-1.045 1.852-0.341-0.065-0.468-0.003-0.468 0.229 0 0.175-0.132 0.506-0.293 0.737-0.363 0.519-0.142 0.691 0.887 0.691 0.689 0 0.75 0.047 0.904 0.701 0.198 0.84 0.867 1.070 1.216 0.417 0.271-0.506 0.586-0.337 0.586 0.314 0 0.329-0.129 0.526-0.388 0.593-0.472 0.123-0.501 0.581-0.067 1.060 0.445 0.491 1.814 0.499 1.814 0.010 0-0.47-0.541-1.208-0.884-1.208-0.371 0-0.361-0.564 0.013-0.707 0.174-0.067 0.539 0.128 0.901 0.482 0.479 0.468 0.628 0.803 0.702 1.574 0.083 0.861 0.147 0.98 0.534 0.98 0.242 0 0.486-0.121 0.543-0.268 0.134-0.349 2.151-0.983 2.591-0.814 0.259 0.1 0.075 0.257-0.776 0.663-1.024 0.488-1.249 0.808-0.569 0.808 0.149 0 0.55 0.212 0.89 0.47s0.839 0.525 1.109 0.593c0.473 0.118 0.489 0.093 0.416-0.664-0.066-0.696-0.028-0.787 0.337-0.787 0.342 0 0.392 0.082 0.291 0.482-0.098 0.392-0.030 0.517 0.364 0.667 0.267 0.101 0.519 0.285 0.559 0.407 0.056 0.167 0.374 0.169 1.268 0.007 1.355-0.246 3.518 0.003 4.204 0.483 0.555 0.389 0.895 0.356 1.421-0.139zM15.888 9.574c0-0.245-0.129-0.388-0.351-0.388-0.472 0-1.097-0.475-0.946-0.72 0.203-0.328 1.445 0.173 1.674 0.676 0.28 0.614 0.258 0.82-0.086 0.82-0.162 0-0.291-0.173-0.291-0.388zM16.613 8.365c-0.119-0.781-0.001-1.017 0.36-0.718 0.349 0.29 0.352 0.844 0.005 1.131-0.217 0.18-0.287 0.102-0.365-0.413zM23.109 23.756c0.245-0.099 0.686-0.232 0.98-0.295 0.826-0.177 0.712-0.894-0.278-1.741-0.446-0.382-0.997-0.695-1.225-0.695s-0.583-0.128-0.79-0.285c-0.501-0.379-0.986-0.371-1.136 0.018-0.166 0.432 0.223 0.849 0.792 0.849 0.925 0 2.005 0.83 2.005 1.54 0 0.345-0.543 0.232-0.826-0.172-0.146-0.208-0.64-0.463-1.097-0.566s-1.044-0.387-1.305-0.631c-0.371-0.349-0.754-0.461-1.777-0.523-0.841-0.051-1.431-0.192-1.661-0.397-0.215-0.192-0.986-0.395-1.941-0.512-1.529-0.187-1.593-0.216-1.861-0.825-0.256-0.581-0.349-0.631-1.175-0.631-0.768 0-0.991 0.096-1.543 0.667-0.795 0.82-0.694 1.181 0.414 1.476 0.459 0.122 1.099 0.384 1.421 0.581 0.326 0.199 1.299 0.448 2.19 0.56 1.032 0.129 1.895 0.366 2.422 0.665 0.716 0.406 1.547 0.679 2.954 0.972 0.761 0.158 2.998 0.123 3.436-0.055zM26.733 21.094c-0.123-0.148-0.448-0.245-0.724-0.217-0.42 0.043-0.518-0.042-0.606-0.531-0.058-0.32-0.17-0.561-0.249-0.534s-0.231 0.049-0.338 0.049c-0.429 0-0.122 0.524 0.713 1.22 0.701 0.584 0.938 0.688 1.155 0.508 0.208-0.173 0.22-0.29 0.050-0.495zM19.026 20.446c0.432-0.002 0.572-0.144 0.842-0.852 0.296-0.776 0.298-0.898 0.020-1.407-0.653-1.195-1.248-1.625-2.25-1.625-1.219 0-2.279 0.931-2.366 2.079-0.058 0.759 0.153 1.026 0.811 1.026 0.323 0 0.791 0.206 1.105 0.485 0.337 0.3 0.693 0.449 0.933 0.391 0.213-0.052 0.621-0.095 0.906-0.097zM24.040 19.497c0-0.245-1.116-0.432-1.701-0.285-0.408 0.102-0.476 0.067-0.376-0.192 0.077-0.201-0.013-0.389-0.246-0.514-0.703-0.376-0.852-0.194-0.306 0.375 0.392 0.409 0.776 0.593 1.346 0.645 0.439 0.040 0.907 0.088 1.041 0.107s0.243-0.043 0.243-0.136zM14.529 19.214c0-0.403-0.23-0.536-0.516-0.298-0.376 0.312-0.32 0.557 0.128 0.557 0.213 0 0.388-0.116 0.388-0.259zM20.769 16.272c0.798-0.456 0.764-0.587-0.126-0.49-0.639 0.069-1.061 0.376-0.942 0.685 0.139 0.363 0.072 0.375 1.068-0.195zM24.406 13.159c0.219-0.371 0.349-0.674 0.289-0.674-0.296 0-1.276 0.872-1.529 1.36-0.157 0.304-0.484 0.614-0.725 0.688-0.671 0.206-0.894 0.453-0.784 0.87 0.088 0.337 0.229 0.269 1.226-0.595 0.619-0.537 1.305-1.279 1.524-1.65zM25.526 11.563c0.352-0.447 0.872-1.638 0.763-1.746-0.047-0.047-0.307 0.265-0.577 0.693s-0.584 0.835-0.697 0.905c-0.113 0.070-0.155 0.208-0.093 0.307 0.162 0.262 0.303 0.224 0.604-0.159z"></path>
</svg>
