<!-- Generated by IcoMoon.io -->
<svg version="1.1" xmlns="http://www.w3.org/2000/svg" width="29" height="32" viewBox="0 0 29 32">
<title>abyssal_tribute</title>
<path d="M16.625 9.407c-0.153 0.128-0.309 0.254-0.473 0.367-0.074 0.050-0.152 0.091-0.233 0.13-0.091 0.044-0.173 0.107-0.264 0.148-0.064 0.029-0.121 0.034-0.189 0.046-0.078 0.013-0.119 0.040-0.182 0.083-0.097 0.067-0.195 0.131-0.289 0.202-0.052 0.039-0.092 0.076-0.156 0.094-0.048 0.015-0.098 0.020-0.146 0.036-0.058 0.021-0.347 0.175-0.356-0.157-0.001 0.063-0.084 0.002-0.102-0.012-0.044-0.038-0.082-0.092-0.123-0.133-0.095-0.092-0.199-0.178-0.3-0.263-0.167-0.142-0.308-0.27-0.431-0.452-0.104-0.153-0.201-0.305-0.323-0.445-0.22-0.254-0.375-0.543-0.479-0.863-0.048-0.147-0.128-0.288-0.214-0.416-0.048-0.073-0.091-0.151-0.142-0.222-0.072-0.096-0.155-0.181-0.218-0.284-0.162-0.262-0.317-0.53-0.308-0.848 0.002-0.085 0.012-0.166 0.026-0.25 0.017-0.106 0.030-0.239 0.082-0.337 0.024-0.046 0.064-0.088 0.093-0.129 0.075-0.103 0.139-0.211 0.207-0.318 0.15-0.236 0.342-0.442 0.531-0.647 0.102-0.111 0.162-0.25 0.266-0.358 0.13-0.135 0.261-0.276 0.422-0.375s0.344-0.132 0.524-0.179c0.138-0.037 0.256-0.055 0.4-0.051 0.161 0.003 0.313 0.049 0.474 0.053 0.086 0.002 0.163-0.008 0.247 0.015 0.117 0.031 0.234 0.066 0.35 0.102 0.192 0.059 0.374 0.159 0.562 0.233 0.24 0.093 0.424 0.262 0.649 0.382 0.172 0.091 0.348 0.165 0.503 0.282 0.083 0.063 0.177 0.106 0.262 0.166 0.099 0.068 0.188 0.149 0.279 0.228 0.113 0.098 0.175 0.225 0.267 0.341 0.102 0.126 0.14 0.292 0.188 0.444 0.065 0.207 0.102 0.402 0.101 0.618-0.001 0.197 0.018 0.375-0.074 0.556-0.073 0.144-0.167 0.275-0.228 0.426-0.046 0.111-0.093 0.217-0.13 0.331-0.052 0.16-0.162 0.292-0.251 0.432-0.103 0.162-0.22 0.319-0.346 0.464-0.163 0.19-0.282 0.4-0.477 0.561zM24.176 13.132c-0.036-0.181-0.108-0.354-0.179-0.524-0.078-0.185-0.128-0.374-0.223-0.553-0.055-0.103-0.113-0.202-0.147-0.316-0.013-0.048-0.022-0.085-0.046-0.126-0.039-0.066-0.073-0.128-0.1-0.201-0.019-0.053-0.019-0.115-0.077-0.129-0.073-0.017-0.161 0.013-0.227 0.036-0.087 0.028-0.169 0.047-0.246 0.099-0.060 0.040-0.1 0.069-0.172 0.070-0.158 0.002-0.32 0.046-0.472 0.096-0.093 0.030-0.172 0.091-0.261 0.13-0.091 0.040-0.18 0.043-0.271 0.076-0.101 0.037-0.181 0.097-0.289 0.12-0.103 0.020-0.191 0.050-0.29 0.085-0.092 0.034-0.185 0.045-0.279 0.068-0.090 0.021-0.175 0.055-0.263 0.077-0.123 0.030-0.248 0.046-0.372 0.075-0.096 0.024-0.178 0.026-0.276 0.025-0.163-0.001-0.327-0.001-0.489-0.001-0.071 0.001-0.147 0.009-0.215-0.002-0.168-0.028-0.335-0.094-0.501-0.13-0.148-0.032-0.298-0.059-0.448-0.081-0.284-0.039-0.593-0.064-0.881-0.032-0.119 0.012-0.233 0.059-0.349 0.071-0.134 0.013-0.163-0.062-0.239-0.148-0.030-0.034-0.077-0.056-0.090-0.099 0.031-0.002 0.069-0.022 0.098-0.032 0.067-0.022 0.114-0.055 0.172-0.097 0.1-0.072 0.195-0.144 0.288-0.225 0.065-0.056 0.137-0.073 0.206-0.116 0.171-0.104 0.337-0.23 0.487-0.364 0.134-0.119 0.286-0.257 0.393-0.403 0.073-0.1 0.17-0.18 0.256-0.269 0.1-0.101 0.18-0.214 0.26-0.329 0.122-0.177 0.249-0.35 0.355-0.538 0.066-0.116 0.094-0.249 0.148-0.372 0.049-0.111 0.102-0.227 0.161-0.333 0.090-0.161 0.208-0.298 0.249-0.481 0.032-0.142-0.009-0.288 0.038-0.426 0.025-0.074 0.055-0.13 0.102-0.19 0.060-0.077 0.054-0.168 0.074-0.261 0.027-0.129 0.069-0.243 0.075-0.376 0.007-0.128 0.001-0.255 0.001-0.383 0-0.168 0.002-0.328-0.030-0.492-0.044-0.231-0.195-0.406-0.339-0.584-0.273-0.336-0.526-0.673-0.887-0.919-0.132-0.091-0.285-0.182-0.394-0.3-0.077-0.082-0.116-0.192-0.171-0.289-0.119-0.211-0.357-0.345-0.542-0.494-0.154-0.126-0.313-0.237-0.482-0.344-0.179-0.113-0.351-0.252-0.544-0.342-0.399-0.187-0.812-0.348-1.22-0.516-0.143-0.059-0.29-0.113-0.432-0.176-0.146-0.063-0.276-0.073-0.434-0.076 0.096 0.077 0.076 0.081 0.034 0.060-0.017-0.008-0.031-0.025-0.050-0.031-0.031-0.010-0.064 0.001-0.095 0-0.052-0.002-0.107-0.026-0.154-0.043-0.116-0.044-0.238-0.098-0.365-0.072-0.086 0.018-0.162 0.069-0.248 0.092-0.074 0.019-0.141 0.055-0.217 0.071-0.109 0.021-0.215 0.021-0.326 0.022-0.157 0.001-0.308 0.045-0.464 0.047-0.101 0.002-0.194 0.002-0.289 0.036-0.082 0.029-0.156 0.068-0.233 0.106-0.146 0.071-0.277 0.141-0.405 0.239-0.114 0.087-0.241 0.152-0.351 0.243-0.383 0.309-0.658 0.73-0.941 1.128-0.176 0.247-0.365 0.501-0.492 0.779-0.098 0.216-0.177 0.455-0.225 0.688-0.048 0.232 0.003 0.451 0.021 0.681 0.016 0.192-0.001 0.382-0.032 0.572-0.036 0.214-0.056 0.433-0.115 0.642-0.052 0.179-0.113 0.35-0.124 0.538-0.015 0.211 0.021 0.42 0.059 0.628 0.032 0.178 0.081 0.346 0.175 0.501 0.144 0.238 0.295 0.47 0.492 0.668 0.163 0.165 0.314 0.344 0.487 0.5 0.252 0.232 0.544 0.419 0.819 0.621 0.302 0.224 0.613 0.445 0.909 0.678 0.039 0.031 0.201 0.132 0.172 0.2-0.019 0.046-0.153 0.113-0.198 0.129-0.086 0.031-0.188 0.022-0.279 0.022-0.116-0.001-0.229-0.019-0.346-0.025-0.141-0.007-0.282 0.007-0.423-0.017-0.222-0.037-0.434-0.037-0.659-0.036-0.209 0.001-0.411-0.045-0.62-0.054-0.329-0.012-0.655-0.021-0.984-0.021-0.179 0-0.358 0.006-0.537 0.001-0.135-0.003-0.269-0.025-0.403-0.028-0.303-0.007-0.609 0.015-0.912 0-0.281-0.012-0.574-0.123-0.821-0.252-0.182-0.095-0.349-0.218-0.539-0.297-0.2-0.083-0.417-0.134-0.623-0.203-0.061-0.020-0.175-0.076-0.244-0.055-0.032 0.009-0.055 0.043-0.075 0.066-0.063 0.077-0.095 0.175-0.124 0.267-0.053 0.162-0.117 0.32-0.17 0.482-0.038 0.119-0.053 0.243-0.085 0.363-0.039 0.144-0.062 0.279-0.085 0.425-0.022 0.132-0.082 0.238-0.134 0.358-0.055 0.125-0.010 0.264 0.021 0.392 0.050 0.208 0.12 0.387 0.256 0.555 0.138 0.168 0.28 0.331 0.415 0.501 0.046 0.057 0.091 0.115 0.133 0.176 0.010 0.013 0.062 0.103 0.083 0.112 0.085 0.035 0.252-0.162 0.302-0.21 0.013-0.013 0.073-0.084 0.1-0.095 0.012-0.004 0.034 0.003 0.047 0 0.126-0.036 0.235-0.139 0.344-0.216 0.068-0.049 0.129-0.115 0.207-0.152 0.12-0.056 0.263-0.103 0.394-0.123 0.185-0.030 0.388-0.015 0.574 0.005 0.22 0.024 0.433 0.086 0.657 0.091 0.144 0.003 0.291-0.015 0.436 0.001 0.134 0.013 0.269 0.048 0.403 0.072 0.13 0.022 0.244 0.047 0.364 0.1 0.097 0.043 0.194 0.069 0.299 0.086 0.083 0.015 0.168 0.032 0.253 0.039 0.103 0.008 0.206-0.015 0.31-0.024 0.132-0.011 0.196 0.038 0.314 0.086 0.1 0.040 0.193 0.041 0.299 0.027 0.189-0.025 0.383-0.021 0.573-0.039 0.132-0.012 0.226-0.073 0.346-0.123 0.077-0.032 0.152-0.029 0.234-0.027 0.21 0.006 0.408-0.076 0.619-0.047 0.144 0.020 0.263 0.064 0.409 0.027 0.102-0.027 0.16-0.078 0.232-0.149 0.064-0.064 0.135-0.12 0.197-0.185 0.021-0.024 0.063-0.096 0.092-0.1 0.022 0.122 0.055 0.247 0.056 0.372 0.001 0.107 0.009 0.166 0.044 0.27 0.021 0.064 0.035 0.11 0.035 0.175 0 0.108-0.024 0.218-0.035 0.326-0.015 0.129-0.019 0.256-0.044 0.384-0.041 0.215-0.073 0.436-0.077 0.656-0.007 0.331 0.002 0.664-0.001 0.996-0.003 0.463 0.083 0.931 0.121 1.392 0.009 0.109 0.049 0.228 0.044 0.336-0.006 0.092-0.037 0.181-0.036 0.275 0.002 0.186-0.031 0.363-0.048 0.548-0.038 0.44-0.159 0.868-0.204 1.309-0.027 0.267-0.066 0.532-0.094 0.799-0.044 0.434-0.036 0.871-0.070 1.306-0.016 0.198 0 0.396-0.026 0.592-0.025 0.196-0.043 0.392-0.055 0.587-0.012 0.189-0.030 0.383-0.032 0.572-0.002 0.196 0.008 0.389-0.010 0.585-0.021 0.234-0.034 0.467-0.041 0.702-0.006 0.184-0.045 0.361-0.049 0.545-0.011 0.454 0.001 0.91 0.001 1.364 0 0.381 0.016 0.751-0.063 1.126-0.048 0.227-0.071 0.468-0.153 0.686-0.019 0.052-0.111 0.162-0.087 0.228 0.016 0.041 0.060 0.024 0.103 0.022 0.205-0.002 0.411 0.001 0.615 0 0.123-0.001 0.243 0.006 0.365 0.030 0.1 0.019 0.191 0.067 0.285 0.105 0.095 0.039 0.193 0.087 0.297 0.094 0.14 0.009 0.277-0.013 0.417 0.002 0.267 0.030 0.535 0.019 0.803 0.020 0.301 0.002 0.595-0.082 0.895-0.076 0.149 0.003 0.28-0.013 0.424-0.052 0.102-0.027 0.201-0.025 0.305-0.023 0.15 0.001 0.312 0.016 0.461 0 0.022-0.092 0.003-0.208 0.004-0.3 0.001-0.103 0.006-0.204-0.025-0.303-0.031-0.103-0.047-0.192-0.052-0.299-0.003-0.1-0.031-0.15-0.060-0.239-0.040-0.124-0.036-0.274-0.047-0.403-0.012-0.14-0.016-0.277-0.018-0.417-0.001-0.114-0.018-0.224-0.032-0.336-0.017-0.133-0.013-0.264-0.019-0.397-0.007-0.165-0.056-0.32-0.069-0.483-0.012-0.141-0.010-0.283-0.022-0.425-0.029-0.333-0.056-0.673-0.097-1.005-0.026-0.206-0.055-0.406-0.060-0.614-0.004-0.15-0.022-0.286-0.049-0.434-0.087-0.482-0.112-0.972-0.154-1.459-0.037-0.416-0.128-0.831-0.223-1.239-0.121-0.508-0.217-1.028-0.298-1.545-0.101-0.643-0.135-1.289-0.211-1.934-0.031-0.263-0.046-0.524-0.064-0.787-0.010-0.13-0.002-0.258-0.004-0.387-0.003-0.158-0.037-0.316-0.047-0.472-0.008-0.114-0.003-0.227-0.001-0.34 0.002-0.107-0.011-0.218-0.002-0.325 0.006-0.065 0.034-0.115 0.058-0.175 0.078-0.182 0.067-0.409 0.066-0.601 0-0.093-0.012-0.2 0.018-0.281 0.076-0.202 0.235-0.35 0.335-0.539 0.053-0.1 0.096-0.199 0.125-0.307 0.012-0.045 0.015-0.106 0.038-0.143 0.037-0.059 0.092-0.067 0.154-0.081 0.103-0.021 0.205-0.045 0.308-0.064 0.29-0.053 0.599-0.013 0.887 0.026 0.309 0.043 0.645 0.103 0.957 0.075 0.11-0.010 0.209-0.025 0.32-0.010 0.163 0.021 0.317 0.077 0.474 0.118 0.11 0.028 0.214 0.031 0.32 0.074 0.124 0.050 0.225 0.124 0.357 0.153 0.086 0.020 0.189 0.046 0.277 0.050 0.060 0.002 0.092-0.003 0.149 0.022 0.055 0.024 0.106 0.047 0.163 0.063 0.105 0.029 0.211 0.043 0.312 0.090 0.121 0.056 0.235 0.131 0.35 0.197 0.12 0.068 0.249 0.106 0.367 0.181 0.129 0.082 0.239 0.077 0.386 0.105 0.31 0.059 0.608 0.176 0.925 0.193 0.096 0.006 0.194 0 0.29 0 0.094 0.001 0.167 0.030 0.254 0.054 0.104 0.029 0.209 0.003 0.279 0.1 0.037-0.006 0.016-0.201 0.016-0.225-0.002-0.113 0.004-0.214 0.025-0.327 0.025-0.144 0.054-0.277 0.052-0.425-0.001-0.115 0-0.23 0-0.346 0-0.185 0.004-0.36-0.032-0.548z"></path>
</svg>
