<!-- Generated by IcoMoon.io -->
<svg version="1.1" xmlns="http://www.w3.org/2000/svg" width="32" height="32" viewBox="0 0 32 32">
<title>across_dreadful_waters</title>
<path d="M12.433 30.704c-2.753-0.67-6.335-2.996-8.123-5.273-2.496-3.18-3.683-7.321-3.201-11.165 0.28-2.23 0.885-4.082 1.86-5.687 2.914-4.797 7.719-7.579 13.094-7.579 1.771 0 3.971 0.303 4.731 0.652 0.239 0.11 0.813 0.35 1.274 0.534 1.468 0.586 3.778 2.271 5.119 3.733 2.418 2.638 3.946 6.556 3.941 10.1-0.008 5.63-3.262 10.885-8.271 13.358-1.135 0.56-2.749 1.162-3.587 1.336-1.85 0.386-5.233 0.381-6.838-0.010zM17.554 30.219c0.322-0.212 0.583-1.075 0.365-1.208-0.095-0.058-0.931-0.175-1.859-0.262l-1.687-0.157v0.543c0 0.59 0.3 0.925 0.98 1.092 0.693 0.17 1.937 0.165 2.202-0.009zM19.73 29.867c2.017-0.537 2.131-0.792 0.326-0.732-1.445 0.048-1.627 0.104-1.789 0.544-0.215 0.584-0.085 0.6 1.462 0.188zM13.938 28.958c0-0.187-0.098-0.279-0.218-0.205s-0.218 0.227-0.218 0.339c0 0.113 0.098 0.205 0.218 0.205s0.218-0.153 0.218-0.339zM21.905 28.7c0.132-0.091 0.45-0.731 0.707-1.423 0.545-1.468 0.594-1.424-1.687-1.51l-1.611-0.061-0.299 1.298c-0.165 0.714-0.259 1.4-0.211 1.524 0.104 0.266 2.751 0.413 3.101 0.173zM18.6 27.203c0.199-0.793 0.314-1.49 0.256-1.549-0.247-0.247-3.629-0.563-3.833-0.358-0.117 0.117-0.237 0.844-0.268 1.617l-0.056 1.405 0.98 0.131c0.539 0.072 1.335 0.145 1.769 0.163l0.79 0.033zM24.023 27.897c0.619-0.411 1.418-1.053 1.775-1.426l0.65-0.679-3.040 0.131-0.484 1.36c-0.281 0.788-0.388 1.36-0.255 1.36 0.126 0 0.735-0.336 1.354-0.747zM14.273 26.958c0.273-1.948 0.303-1.871-0.842-2.159-0.578-0.145-1.459-0.294-1.959-0.331-0.87-0.064-0.911-0.039-0.962 0.586-0.066 0.815 0.515 1.532 1.4 1.726 0.367 0.081 0.892 0.386 1.167 0.679 0.743 0.791 1.032 0.67 1.196-0.501zM26.507 25.29c0.082-0.082 0.28-0.61 0.44-1.173 0.601-2.118 0.681-1.921-0.843-2.080-0.752-0.079-1.453-0.058-1.557 0.046-0.272 0.272-1.009 3.246-0.845 3.41 0.174 0.174 2.603-0.002 2.804-0.204zM10.237 24.848c0-0.658-0.072-0.702-1.913-1.17l-1.495-0.38 0.132 0.643c0.14 0.682 0.665 1.059 0.665 0.476 0-0.2 0.183-0.345 0.435-0.345 0.239 0 0.435 0.135 0.435 0.3 0 0.366 0.838 0.979 1.36 0.995 0.262 0.008 0.381-0.155 0.381-0.52zM23.645 23.75c0.211-0.896 0.325-1.689 0.254-1.76-0.174-0.174-3.455-0.576-3.591-0.44-0.148 0.148-0.694 2.742-0.703 3.341-0.007 0.47 0.067 0.49 1.824 0.49h1.832zM19.322 23.965c0.148-0.599 0.295-1.427 0.326-1.841l0.057-0.753-1.94-0.282c-1.067-0.155-1.988-0.235-2.045-0.177-0.099 0.099-0.659 2.984-0.683 3.523-0.012 0.268 2.24 0.703 3.362 0.649 0.595-0.029 0.677-0.128 0.922-1.12zM14.69 24.019c0.424-1.923 0.506-2.9 0.266-3.139-0.377-0.374-3.705-0.95-3.88-0.671-0.192 0.307-0.473 3.431-0.322 3.582 0.166 0.166 2.5 0.667 3.234 0.695 0.449 0.017 0.621-0.098 0.702-0.467zM10.342 22.386c0.075-0.688 0.179-1.461 0.231-1.716 0.129-0.629-0.236-0.873-1.572-1.053-1.068-0.144-1.121-0.128-1.009 0.302 0.14 0.534-0.095 0.577-0.729 0.133-0.449-0.314-0.46-0.293-0.56 1.034-0.056 0.745-0.061 1.468-0.010 1.607 0.093 0.255 2.161 0.883 3.038 0.923 0.42 0.019 0.49-0.122 0.61-1.23zM8.931 21.525c-0.629-0.184-1.306-0.574-1.306-0.753 0-0.21 1.108-0.243 1.615-0.049 0.649 0.249 0.36 0.998-0.309 0.802zM28.195 22.332c0.074-0.12 0.031-0.218-0.096-0.218s-0.23 0.098-0.23 0.218c0 0.12 0.043 0.218 0.096 0.218s0.157-0.098 0.23-0.218zM28.522 21.332c0-0.177 0.343-0.664 0.762-1.083 0.528-0.528 0.762-0.96 0.762-1.408 0-0.572-0.075-0.646-0.649-0.646-0.53 0-0.673 0.109-0.783 0.599-0.074 0.329-0.222 0.941-0.329 1.36-0.26 1.014-0.25 1.8 0.020 1.633 0.12-0.074 0.218-0.279 0.218-0.455zM28.007 20.373c0.491-2.113 0.435-2.335-0.628-2.496-0.509-0.077-1.186-0.189-1.506-0.25-0.629-0.12-0.534-0.361-1.195 3.045-0.162 0.836 0.182 1.023 1.76 0.954l1.29-0.056zM24.253 21.080c0.313-1.047 0.598-3.376 0.431-3.529-0.224-0.206-3.357-0.68-3.58-0.542-0.208 0.128-0.741 3.766-0.576 3.931 0.137 0.137 2.043 0.448 3.028 0.494 0.383 0.018 0.623-0.104 0.698-0.354zM20.194 19.393c0.148-0.718 0.246-1.6 0.218-1.959-0.052-0.646-0.072-0.656-1.963-0.955-1.051-0.166-1.949-0.264-1.997-0.216-0.133 0.133-0.776 3.962-0.681 4.056 0.177 0.177 2.24 0.446 3.174 0.414l0.98-0.034zM15.642 18.228c0.181-1.112 0.218-1.897 0.095-2.020-0.349-0.349-3.845-0.823-4.022-0.545-0.162 0.255-0.399 1.889-0.462 3.183l-0.037 0.759 1.306 0.256c0.718 0.141 1.647 0.24 2.065 0.22l0.759-0.036zM10.595 19.233c0.33-0.535 0.671-3.645 0.422-3.852-0.13-0.108-0.936-0.265-1.793-0.349l-1.557-0.153-0.37 1.661c-0.203 0.914-0.317 1.799-0.252 1.967s0.687 0.418 1.383 0.556c0.696 0.137 1.363 0.285 1.483 0.328 0.397 0.142 0.517 0.115 0.685-0.157zM30.436 16.18c0.061-1.622 0.043-1.695-0.491-1.938-0.305-0.139-0.61-0.197-0.678-0.129s-0.196 0.878-0.284 1.799c-0.149 1.565-0.13 1.688 0.288 1.86 0.953 0.391 1.097 0.194 1.164-1.592zM28.614 16.618c0.329-2.561 0.314-2.633-0.607-2.938-0.463-0.153-1.148-0.302-1.524-0.33l-0.683-0.052-0.194 1.802c-0.107 0.991-0.132 1.863-0.057 1.939 0.164 0.164 1.544 0.445 2.36 0.48 0.53 0.023 0.596-0.062 0.704-0.9zM25.244 15.054c0.143-1.040 0.159-1.806 0.039-1.926-0.279-0.279-3.351-0.84-3.529-0.644-0.189 0.207-0.697 3.761-0.558 3.9 0.184 0.184 3.51 0.662 3.663 0.526 0.081-0.071 0.254-0.907 0.384-1.857zM20.766 15.729c0.171-0.68 0.44-3.627 0.332-3.628-0.047-0-0.914-0.146-1.927-0.324s-1.91-0.252-1.993-0.163c-0.155 0.165-0.628 2.957-0.628 3.71 0 0.344 0.24 0.456 1.36 0.635 2.341 0.375 2.711 0.345 2.856-0.23zM16.276 14.169c0.149-0.718 0.246-1.649 0.218-2.068l-0.052-0.762-1.833-0.278c-1.008-0.153-1.916-0.196-2.017-0.095-0.225 0.225-0.868 3.782-0.712 3.938s3.158 0.648 3.691 0.606c0.349-0.028 0.489-0.293 0.705-1.341zM11.753 12.671c0.304-1.956 0.234-2.084-1.131-2.090-0.728-0.003-0.857 0.086-1.252 0.859-0.242 0.474-0.44 1.043-0.44 1.264s-0.144 0.593-0.32 0.825c-0.176 0.232-0.323 0.536-0.326 0.676-0.010 0.352 2.635 0.723 2.958 0.415 0.134-0.128 0.364-1.005 0.51-1.948zM30.139 13.244c-0.073-0.329-0.295-1.088-0.494-1.687l-0.362-1.088-0.065 1.504c-0.065 1.502 0.083 1.858 0.777 1.866 0.189 0.002 0.234-0.187 0.144-0.595zM28.912 11.741l-0.064-1.666-1.306-0.488c-0.718-0.268-1.38-0.444-1.469-0.389s-0.163 0.873-0.163 1.819v1.72l0.925 0.238c0.509 0.131 1.023 0.274 1.143 0.318s0.393 0.088 0.608 0.097c0.348 0.015 0.383-0.164 0.326-1.649zM25.556 11.856c0.075-0.374 0.136-1.16 0.136-1.747 0-1.188 0.008-1.181-2.124-1.72-0.712-0.18-1.217-0.212-1.336-0.085-0.105 0.113-0.259 0.954-0.341 1.869l-0.149 1.665 1.377 0.323c2.121 0.498 2.281 0.478 2.438-0.306zM21.426 10.959c0.299-1.976 0.323-2.765 0.090-2.909-0.136-0.084-0.819-0.272-1.518-0.418-1.036-0.216-1.271-0.213-1.271 0.018 0 0.156-0.288 0.511-0.639 0.789-0.528 0.418-0.651 0.694-0.707 1.587l-0.068 1.082 1.524 0.25c2.465 0.404 2.469 0.403 2.59-0.399zM16.73 10.632c0.108-0.21 0.259-0.795 0.336-1.301 0.125-0.816 0.067-1-0.508-1.633l-0.648-0.713-0.006 0.791c-0.007 0.879-0.663 1.494-1.595 1.494-0.774 0-0.863-0.235-0.318-0.841l0.492-0.547-0.762 0.466c-0.727 0.444-1.338 1.616-1.012 1.941 0.078 0.078 0.9 0.258 1.828 0.401s1.757 0.274 1.843 0.291c0.086 0.017 0.244-0.141 0.351-0.351zM12.206 9.906c0.344-0.642 0.186-0.687-0.743-0.214-0.632 0.322-0.725 0.437-0.421 0.516 0.749 0.194 0.922 0.149 1.163-0.302zM28.008 8.135c-0.42-0.632-1.072-1.443-1.451-1.802l-0.687-0.653 0.097 1.474c0.053 0.811 0.136 1.508 0.183 1.549 0.302 0.263 2.493 0.925 2.551 0.771 0.039-0.104-0.273-0.707-0.693-1.339zM25.692 7.095c0-1.369-0.061-1.457-1.306-1.9-1.1-0.391-1.306-0.345-1.306 0.287 0 0.381-0.141 0.601-0.435 0.678-0.322 0.084-0.435 0.297-0.435 0.819 0 0.692 0.031 0.714 1.578 1.131 0.868 0.234 1.652 0.389 1.741 0.345s0.163-0.657 0.163-1.361zM21.765 6.714c-0.014-1.185-1.289-2.594-2.526-2.79-1.002-0.159-0.937-0.261-1.279 2.015l-0.137 0.912 0.833 0.146c0.458 0.081 1.176 0.224 1.595 0.318 1.44 0.324 1.525 0.29 1.514-0.601zM17.511 6.302c0.075-0.197 0.092-0.403 0.037-0.458-0.169-0.169-1.292 0.283-1.384 0.557-0.139 0.417 1.186 0.319 1.347-0.099zM24.713 4.598c-0.73-0.598-1.115-0.684-1.255-0.279-0.053 0.152 0.204 0.385 0.58 0.528 1.118 0.423 1.378 0.327 0.674-0.249zM17.856 4.041c0-0.257-0.213-0.339-1.383-0.535-0.641-0.107-0.817-0.072-0.745 0.146 0.052 0.157 0.43 0.347 0.839 0.421 1.163 0.21 1.289 0.207 1.289-0.033zM13.62 3.815c0.234-0.379-0.033-0.459-0.331-0.1-0.172 0.207-0.188 0.332-0.044 0.332 0.127 0 0.296-0.104 0.375-0.232zM20.252 3.184c-0.262-0.914-0.362-1.030-0.984-1.149-0.635-0.121-0.689-0.067-0.792 0.805-0.063 0.53 0.018 0.669 0.468 0.795 0.299 0.084 0.758 0.162 1.019 0.174 0.425 0.019 0.455-0.046 0.289-0.624zM18.095 2.685c0.124-0.467 0.069-0.649-0.243-0.816-0.552-0.295-0.867-0.27-0.867 0.069 0 0.157-0.138 0.473-0.306 0.704-0.279 0.382-0.378 0.393-1.11 0.129-0.54-0.195-0.876-0.219-1.023-0.071s0.164 0.291 0.947 0.436c1.862 0.346 2.417 0.251 2.603-0.451z"></path>
</svg>
