<!-- Generated by IcoMoon.io -->
<svg version="1.1" xmlns="http://www.w3.org/2000/svg" width="32" height="32" viewBox="0 0 32 32">
<title>africa_is_watching</title>
<path d="M7.552 23.123v-5.877h16.726v11.753h-5.877l-0.001-2.543c-0.001-2.897-0.304-3.709-1.584-4.239-0.62-0.257-0.878-0.254-1.665 0.018-1.392 0.481-1.722 1.311-1.722 4.334l-0 2.43h-5.877zM11.168 21.923c0-1.138-0.414-1.822-1.032-1.704-0.362 0.069-0.449 0.307-0.505 1.381l-0.068 1.297h0.802c0.795 0 0.802-0.009 0.802-0.974zM22.47 21.923c0-1.138-0.414-1.822-1.032-1.704-0.362 0.069-0.449 0.307-0.505 1.381l-0.068 1.297h0.802c0.795 0 0.802-0.009 0.802-0.974zM5.159 15.947c0.078-0.342 0.615-1.588 1.192-2.769 0.891-1.822 1.36-2.456 3.103-4.189 1.642-1.633 2.45-2.241 4.031-3.037 1.088-0.547 1.975-1.052 1.973-1.123s-0.204-0.382-0.447-0.693-0.444-0.692-0.447-0.848c-0.009-0.512 0.461-0.295 0.853 0.394 0.212 0.372 0.439 0.677 0.506 0.678s0.301-0.304 0.521-0.677c0.387-0.655 0.827-0.903 0.827-0.465 0 0.117-0.199 0.55-0.442 0.963l-0.442 0.75 1.917 0.982c3.394 1.738 6.618 5.288 7.993 8.798 0.257 0.657 0.468 1.344 0.468 1.526 0 0.286-1.481 0.331-10.874 0.331h-10.874z"></path>
</svg>
