<!-- Generated by IcoMoon.io -->
<svg version="1.1" xmlns="http://www.w3.org/2000/svg" width="32" height="32" viewBox="0 0 32 32">
<title>alexandria</title>
<path d="M2.715 24.932l-0.031-0.067-0.001-3.846c-0.001-2.115-0.005-4.153-0.009-4.528-0.008-0.659-0.009-0.684-0.033-0.764-0.014-0.046-0.034-0.103-0.045-0.128s-0.037-0.083-0.057-0.13c-0.020-0.046-0.053-0.121-0.074-0.166s-0.038-0.084-0.038-0.087c0-0.003-0.025-0.057-0.054-0.119s-0.081-0.169-0.113-0.237c-0.16-0.336-0.178-0.399-0.123-0.441 0.015-0.012 0.052-0.027 0.082-0.033 0.070-0.015 0.437-0.015 0.491 0 0.077 0.021 0.081 0.036 0.083 0.338 0.002 0.252 0.004 0.269 0.027 0.306l0.024 0.039 0.025-0.032c0.033-0.041 0.039-0.096 0.039-0.368 0-0.218 0.001-0.225 0.025-0.248 0.044-0.041 0.082-0.047 0.278-0.047 0.315 0 0.306-0.011 0.307 0.38 0 0.157 0.004 0.292 0.009 0.299s0.028 0.014 0.053 0.014c0.037 0 0.046-0.005 0.055-0.029 0.006-0.016 0.011-0.152 0.011-0.305 0-0.306 0.002-0.313 0.074-0.344 0.052-0.021 0.403-0.022 0.455-0.001 0.069 0.029 0.069 0.027 0.075 0.356 0.006 0.326 0.005 0.321 0.069 0.322 0.068 0 0.065 0.014 0.065-0.313 0-0.295 0-0.3 0.025-0.329 0.035-0.041 0.088-0.050 0.293-0.050 0.152 0 0.186 0.003 0.226 0.021 0.031 0.014 0.049 0.030 0.053 0.047 0.003 0.014 0.007 0.139 0.009 0.277 0.003 0.224 0.006 0.256 0.026 0.296 0.024 0.049 0.049 0.061 0.075 0.035 0.014-0.014 0.017-0.064 0.017-0.308 0-0.32-0.001-0.315 0.072-0.353 0.044-0.023 0.407-0.022 0.462 0.001 0.067 0.028 0.072 0.055 0.072 0.379 0 0.31-0.003 0.298 0.066 0.298 0.056 0 0.057-0.006 0.057-0.307s0.002-0.315 0.059-0.357c0.030-0.022 0.045-0.023 0.285-0.023 0.277 0 0.307 0.006 0.335 0.064 0.018 0.038 0.006 0.088-0.054 0.216-0.024 0.051-0.056 0.123-0.072 0.161s-0.049 0.111-0.073 0.163c-0.024 0.052-0.044 0.096-0.044 0.099s-0.048 0.103-0.106 0.223c-0.103 0.212-0.178 0.417-0.209 0.571-0.011 0.052-0.015 1.091-0.020 4.566l-0.006 4.499-0.054 0.058-3.13-0-0.031-0.067zM3.724 18.402v-0.687h-0.126c-0.092 0-0.132 0.004-0.148 0.016-0.021 0.015-0.022 0.037-0.025 0.687l-0.003 0.671h0.302zM6.097 24.919l-0.032-0.081v-4.486c0-3.748 0.003-4.497 0.015-4.553 0.016-0.070 0.075-0.215 0.161-0.397 0.028-0.058 0.082-0.174 0.12-0.257s0.094-0.203 0.124-0.266c0.030-0.063 0.055-0.118 0.055-0.121 0-0.025 0.133-0.286 0.16-0.315 0.053-0.056 0.070-0.062 0.197-0.069l0.117-0.006 0.006-0.9c0.005-0.736 0.008-0.904 0.021-0.919 0.008-0.010 0.034-0.023 0.056-0.030 0.045-0.012 6.184-0.017 6.246-0.004l0.035 0.007v12.478h-7.248zM9.355 16.089v-1.101h-1.318v1.093c0 0.601 0.003 1.096 0.007 1.101s0.301 0.007 0.659 0.007h0.652zM8.488 16.735c-0.013-0.003-0.033-0.015-0.045-0.028-0.020-0.021-0.021-0.056-0.024-0.583-0.002-0.387 0.001-0.569 0.009-0.59 0.019-0.046 0.054-0.055 0.226-0.055 0.199 0 0.232 0.012 0.245 0.089 0.014 0.083 0.004 1.085-0.011 1.113-0.026 0.047-0.078 0.060-0.233 0.059-0.079-0.001-0.154-0.004-0.168-0.006zM12.079 16.103l0.003-1.081-0.528-0.003c-0.779-0.004-0.719-0.006-0.755 0.029l-0.030 0.030 0.004 1.047c0.002 0.576 0.006 1.051 0.009 1.056s0.295 0.007 0.65 0.006l0.644-0.003zM11.246 16.755c-0.045-0.012-0.081-0.042-0.081-0.069 0-0.011-0.005-0.023-0.011-0.027-0.007-0.004-0.011-0.198-0.011-0.543 0-0.585 0-0.587 0.064-0.611 0.017-0.007 0.082-0.013 0.143-0.015 0.193-0.004 0.216-0.002 0.246 0.029l0.027 0.027v1.14l-0.031 0.033c-0.030 0.033-0.033 0.034-0.17 0.039-0.077 0.003-0.156 0.001-0.177-0.004zM13.517 24.986c-0.003-0.008-0.007-3.151-0.008-6.986l-0.003-6.972-0.108-0.335-0.006-1.006c-0.006-1.061-0.004-1.139 0.041-1.184l0.023-0.023 2.688-0.003c1.843-0.002 2.702 0.001 2.731 0.009 0.083 0.022 0.078-0.052 0.074 1.165l-0.003 1.087-0.106 0.296-0.014 13.967h-2.652c-2.111 0-2.653-0.003-2.657-0.014zM17.333 24.084c0.022-0.022 0.022-0.037 0.022-2.042 0-2.136 0-2.127-0.050-2.271-0.085-0.245-0.26-0.423-0.545-0.558-0.173-0.082-0.273-0.109-0.453-0.123-0.474-0.038-0.951 0.177-1.142 0.515-0.030 0.053-0.065 0.129-0.077 0.168-0.057 0.177-0.056 0.145-0.056 2.307 0 1.6 0.003 2.014 0.014 2.019 0.008 0.003 0.52 0.006 1.14 0.007 1.111 0.001 1.126 0.001 1.148-0.021zM15.174 22.064c-0.002-1.056 0-1.959 0.005-2.009 0.012-0.117 0.043-0.218 0.095-0.307 0.079-0.136 0.287-0.318 0.438-0.382 0.028-0.012 0.066-0.029 0.085-0.037 0.129-0.057 0.335-0.083 0.503-0.063 0.143 0.017 0.236 0.044 0.368 0.108 0.245 0.119 0.441 0.346 0.508 0.586 0.023 0.083 0.023 0.098 0.023 2.053v1.969h-0.547v-1.687h-0.95l-0.006 1.682-0.518 0.006zM16.344 21.237c-0.004-0.023-0.011-0.065-0.017-0.092s-0.020-0.133-0.033-0.235c-0.041-0.33-0.039-0.323-0.080-0.359-0.020-0.018-0.039-0.032-0.043-0.032s-0.021 0.014-0.037 0.032c-0.026 0.027-0.034 0.054-0.059 0.193-0.016 0.089-0.040 0.245-0.054 0.348l-0.025 0.187h0.355zM15.919 11.637c0-1.317-0.001-1.418-0.020-1.485-0.068-0.247-0.301-0.429-0.55-0.43-0.247-0.001-0.465 0.182-0.538 0.451-0.018 0.067-0.020 0.18-0.023 1.478l-0.004 1.405 1.135-0.006zM17.54 13.031c0.003-0.014 0.005-0.641 0.003-1.394-0.004-1.51 0-1.43-0.076-1.586-0.1-0.204-0.285-0.324-0.497-0.324-0.211 0-0.399 0.114-0.492 0.3-0.015 0.031-0.028 0.059-0.028 0.063s-0.007 0.024-0.015 0.043c-0.039 0.090-0.041 0.137-0.041 1.539v1.385h1.139zM18.975 18.754v-6.246h3.139c2.145 0 3.149 0.004 3.169 0.012 0.062 0.024 0.059-0.021 0.060 0.945l0 0.895 0.025 0.007c0.014 0.004 0.058 0.007 0.099 0.007s0.091 0.007 0.112 0.016c0.061 0.026 0.117 0.094 0.166 0.202 0.025 0.055 0.058 0.127 0.073 0.159s0.027 0.061 0.027 0.064c0 0.003 0.023 0.055 0.052 0.115s0.068 0.147 0.088 0.193c0.020 0.046 0.070 0.157 0.112 0.246 0.105 0.228 0.157 0.354 0.177 0.435 0.016 0.063 0.018 0.483 0.017 4.558l-0 4.488-0.074 0.145-7.244 0.006v-6.246zM21.732 16.087l0.003-1.098h-1.319v1.093c0 0.601 0.003 1.096 0.008 1.101s0.3 0.006 0.656 0.005l0.649-0.003zM20.855 16.731c-0.023-0.007-0.041-0.021-0.047-0.039-0.006-0.017-0.011-0.258-0.011-0.59 0-0.537 0.001-0.563 0.021-0.589s0.029-0.027 0.17-0.030c0.176-0.004 0.238 0.003 0.268 0.032 0.021 0.021 0.022 0.043 0.022 0.586v0.564l-0.065 0.073-0.16 0.002c-0.088 0.001-0.177-0.003-0.197-0.009zM24.45 16.106v-1.084l-0.522-0.003c-0.772-0.004-0.726-0.006-0.755 0.023l-0.025 0.025-0.004 0.947c-0.002 0.521-0 0.998 0.004 1.061l0.007 0.115h1.294zM23.622 16.758c-0.016-0.002-0.044-0.020-0.061-0.038l-0.032-0.034-0.006-1.125 0.027-0.032c0.026-0.030 0.032-0.032 0.154-0.038 0.161-0.008 0.253 0.001 0.274 0.029 0.012 0.017 0.015 0.129 0.015 0.598 0 0.675 0.009 0.623-0.119 0.637-0.080 0.009-0.2 0.010-0.252 0.002zM26.47 24.975c-0.008-0.014-0.023-0.045-0.034-0.069-0.020-0.043-0.020-0.209-0.019-4.472 0.001-3.223-0.002-4.442-0.011-4.481-0.007-0.029-0.025-0.11-0.040-0.179-0.031-0.142-0.077-0.264-0.185-0.489-0.112-0.233-0.268-0.581-0.317-0.707-0.025-0.064-0.024-0.139 0.001-0.161 0.041-0.035 0.095-0.042 0.315-0.042 0.351 0.001 0.335-0.017 0.336 0.392 0.001 0.311-0.002 0.3 0.062 0.3 0.056 0 0.061-0.026 0.061-0.33 0-0.311 0.001-0.317 0.074-0.348 0.054-0.023 0.414-0.022 0.469 0.001 0.067 0.028 0.072 0.055 0.072 0.386v0.291l0.117-0.007 0.006-0.309c0.005-0.283 0.007-0.311 0.027-0.332 0.034-0.037 0.089-0.046 0.289-0.046 0.305-0 0.299-0.008 0.299 0.364 0 0.219 0.003 0.257 0.019 0.285 0.022 0.037 0.032 0.037 0.062-0.004 0.020-0.027 0.022-0.051 0.023-0.295 0.002-0.294 0.005-0.308 0.069-0.335 0.053-0.022 0.415-0.022 0.468-0 0.073 0.030 0.074 0.035 0.074 0.366 0 0.326-0.003 0.312 0.066 0.312 0.056 0 0.057-0.007 0.058-0.301 0.001-0.312 0.006-0.342 0.066-0.372 0.033-0.016 0.071-0.020 0.244-0.020 0.215 0 0.267 0.010 0.288 0.054 0.005 0.010 0.012 0.15 0.015 0.31 0.004 0.224 0.009 0.296 0.021 0.31 0.018 0.021 0.080 0.025 0.1 0.005 0.010-0.010 0.014-0.095 0.014-0.31 0-0.33 0-0.329 0.077-0.356 0.047-0.016 0.437-0.018 0.493-0.002 0.133 0.038 0.129 0.106-0.022 0.43-0.070 0.15-0.164 0.352-0.235 0.508-0.032 0.071-0.076 0.165-0.096 0.21-0.035 0.075-0.065 0.147-0.098 0.232-0.009 0.025-0.014 1.216-0.018 4.547l-0.006 4.514-0.070 0.168-3.119 0.006-0.014-0.025zM27.444 18.402v-0.654h-0.257v1.307h0.257zM2.255 14.252l-0.391-0.006-0.128-0.061v-4.325l0.151-0.072 2.456-0.003c2.215-0.003 2.46-0.001 2.493 0.015 0.020 0.010 0.040 0.029 0.044 0.042s0.007 0.997 0.007 2.187c0 2.431 0.009 2.201-0.090 2.222-0.059 0.013-3.751 0.014-4.541 0.001zM25.526 14.244c-0.039-0.014-0.049-0.024-0.059-0.058-0.008-0.029-0.011-0.699-0.009-2.194l0.003-2.153 0.051-0.051h4.977l0.151 0.074-0.006 4.324-0.067 0.028c-0.038 0.016-0.108 0.032-0.162 0.038-0.056 0.006-1.055 0.010-2.464 0.010-2.075-0.001-2.375-0.003-2.416-0.017zM7.468 12.368c-0.019-0.016-0.040-0.047-0.046-0.070-0.009-0.029-0.011-0.221-0.007-0.628 0.005-0.656 0.006-0.664 0.085-0.81 0.129-0.239 0.249-0.397 0.302-0.397 0.063 0 0.118 0.058 0.23 0.24 0.030 0.049 0.058 0.092 0.062 0.095 0.017 0.013 0.067 0.126 0.087 0.197 0.019 0.070 0.021 0.13 0.023 0.672 0.001 0.394-0.002 0.611-0.010 0.64-0.008 0.031-0.023 0.051-0.048 0.066-0.033 0.020-0.058 0.022-0.339 0.022l-0.304 0-0.034-0.029zM9.068 12.385c-0.013-0.005-0.034-0.024-0.045-0.041-0.019-0.029-0.020-0.073-0.023-0.634-0.003-0.681-0.003-0.676 0.079-0.849 0.061-0.129 0.222-0.367 0.259-0.384s0.078-0.016 0.116 0.004c0.052 0.027 0.31 0.442 0.326 0.524 0.011 0.056 0.011 1.275 0 1.314-0.004 0.015-0.025 0.039-0.045 0.053-0.037 0.025-0.044 0.025-0.34 0.025-0.167-0-0.314-0.005-0.327-0.011zM10.673 12.384c-0.066-0.024-0.065-0.013-0.067-0.709-0.002-0.476 0.001-0.649 0.012-0.687 0.020-0.073 0.069-0.168 0.142-0.272 0.035-0.050 0.086-0.124 0.113-0.164s0.056-0.076 0.062-0.081c0.021-0.014 0.090-0.009 0.116 0.009 0.036 0.025 0.247 0.357 0.309 0.486l0.029 0.059v0.639c0 0.706 0.001 0.695-0.069 0.719-0.043 0.015-0.606 0.015-0.646-0zM12.254 12.386c-0.012-0.005-0.032-0.020-0.045-0.034-0.022-0.024-0.022-0.041-0.022-0.686v-0.661l0.048-0.1c0.026-0.055 0.070-0.13 0.096-0.168s0.079-0.114 0.117-0.171c0.068-0.101 0.070-0.103 0.114-0.103 0.090 0 0.103 0.016 0.328 0.388l0.076 0.125-0.005 0.663c-0.003 0.392-0.009 0.67-0.016 0.682s-0.028 0.032-0.049 0.047l-0.038 0.028-0.291-0.001c-0.16-0-0.301-0.005-0.313-0.010zM19.48 12.374c-0.020-0.012-0.041-0.034-0.046-0.048-0.016-0.042-0.026-0.862-0.014-1.092 0.013-0.238 0.022-0.272 0.122-0.445 0.139-0.241 0.196-0.311 0.262-0.321 0.034-0.006 0.045-0.001 0.086 0.035 0.025 0.023 0.072 0.085 0.104 0.138s0.066 0.106 0.077 0.119c0.030 0.034 0.093 0.16 0.115 0.233 0.024 0.077 0.024 0.087 0.021 0.794l-0.003 0.535-0.076 0.076-0.306-0c-0.286-0-0.308-0.002-0.342-0.022zM21.057 12.375c-0.029-0.018-0.037-0.031-0.041-0.070-0.003-0.027-0.008-0.302-0.011-0.612-0.005-0.536-0.004-0.569 0.017-0.654 0.012-0.049 0.037-0.125 0.056-0.168 0.038-0.089 0.21-0.353 0.253-0.386 0.037-0.029 0.103-0.029 0.139-0 0.015 0.012 0.070 0.089 0.122 0.171 0.157 0.25 0.174 0.279 0.188 0.331 0.007 0.026 0.011 0.279 0.011 0.675 0 0.702 0 0.698-0.067 0.722-0.024 0.008-0.14 0.013-0.334 0.013-0.274-0-0.3-0.002-0.333-0.022zM22.665 12.374c-0.020-0.012-0.041-0.035-0.047-0.051-0.007-0.017-0.011-0.278-0.011-0.663 0-0.698-0.002-0.671 0.071-0.806 0.034-0.063 0.175-0.273 0.234-0.349 0.028-0.036 0.039-0.042 0.076-0.042 0.075 0 0.105 0.037 0.319 0.402l0.082 0.139v0.657c0 0.45-0.004 0.665-0.012 0.68-0.026 0.048-0.070 0.054-0.381 0.054-0.274-0-0.296-0.002-0.33-0.022zM24.247 12.38c-0.020-0.011-0.036-0.034-0.048-0.071-0.016-0.049-0.018-0.122-0.013-0.657 0.003-0.376 0.010-0.62 0.018-0.651 0.016-0.066 0.056-0.148 0.115-0.236 0.027-0.040 0.077-0.115 0.111-0.168s0.071-0.104 0.080-0.115c0.023-0.026 0.092-0.025 0.136 0.002 0.035 0.021 0.215 0.296 0.292 0.447l0.038 0.075-0.011 0.648c-0.007 0.463-0.014 0.656-0.024 0.673-0.007 0.014-0.029 0.035-0.049 0.047-0.033 0.020-0.058 0.022-0.326 0.021-0.232-0-0.297-0.004-0.32-0.017zM1.799 9.625l-0.064-0.033v-0.995l0.079-0.117c0.043-0.064 0.1-0.14 0.127-0.167 0.043-0.044 0.054-0.050 0.097-0.050 0.046 0 0.054 0.005 0.124 0.078 0.083 0.087 0.142 0.193 0.176 0.319 0.019 0.072 0.021 0.113 0.017 0.492-0.003 0.245-0.009 0.428-0.016 0.449-0.017 0.052-0.053 0.060-0.278 0.059-0.196-0.001-0.197-0.001-0.261-0.034zM2.93 9.643c-0.016-0.009-0.034-0.028-0.041-0.043-0.008-0.018-0.013-0.18-0.015-0.49-0.003-0.453-0.002-0.464 0.022-0.526 0.047-0.121 0.18-0.298 0.242-0.322 0.064-0.024 0.15 0.040 0.239 0.179 0.106 0.164 0.106 0.165 0.109 0.67 0.002 0.285-0.001 0.454-0.009 0.478-0.020 0.063-0.048 0.070-0.297 0.069-0.167-0-0.228-0.004-0.25-0.016zM4.073 9.648c-0.014-0.005-0.035-0.027-0.048-0.047-0.021-0.035-0.023-0.056-0.024-0.417-0.001-0.209-0.001-0.408-0.001-0.443 0-0.106 0.063-0.248 0.169-0.381 0.074-0.094 0.111-0.114 0.173-0.097 0.087 0.024 0.233 0.237 0.269 0.391 0.020 0.087 0.024 0.874 0.005 0.935-0.020 0.063-0.048 0.070-0.297 0.069-0.122-0-0.232-0.005-0.246-0.011zM5.197 9.642c-0.016-0.009-0.035-0.030-0.041-0.047-0.016-0.041-0.024-0.551-0.013-0.774 0.009-0.186 0.017-0.218 0.073-0.313 0.044-0.075 0.177-0.237 0.206-0.25 0.035-0.016 0.078 0.003 0.142 0.063 0.104 0.098 0.145 0.172 0.187 0.341 0.025 0.102 0.026 0.862 0.001 0.921-0.030 0.072-0.040 0.075-0.296 0.074-0.176-0-0.236-0.004-0.259-0.016zM6.315 9.627l-0.033-0.033-0-0.177c-0-0.097-0.003-0.227-0.007-0.289-0.010-0.172 0.011-0.479 0.038-0.549 0.025-0.066 0.098-0.172 0.182-0.264 0.044-0.049 0.066-0.064 0.089-0.064 0.064 0 0.205 0.144 0.257 0.262 0.055 0.124 0.059 0.174 0.056 0.632-0.003 0.454-0.005 0.476-0.056 0.503-0.013 0.007-0.117 0.011-0.258 0.011h-0.236zM25.509 9.642c-0.057-0.031-0.058-0.040-0.063-0.436-0.006-0.542 0.007-0.601 0.178-0.825 0.073-0.096 0.086-0.107 0.117-0.107 0.081 0 0.16 0.064 0.257 0.209 0.074 0.111 0.074 0.105 0.072 0.615-0.001 0.254-0.006 0.474-0.012 0.489s-0.027 0.037-0.047 0.050c-0.033 0.020-0.056 0.022-0.254 0.022-0.171-0-0.225-0.004-0.248-0.017zM27.806 9.643c-0.020-0.008-0.040-0.025-0.047-0.036-0.007-0.013-0.012-0.211-0.014-0.501l-0.003-0.48 0.029-0.063c0.051-0.112 0.186-0.279 0.242-0.301 0.064-0.025 0.157 0.049 0.244 0.197 0.084 0.142 0.085 0.151 0.082 0.67-0.002 0.254-0.008 0.467-0.013 0.477-0.024 0.045-0.066 0.053-0.28 0.053-0.148-0-0.214-0.005-0.24-0.016zM28.939 9.642c-0.017-0.009-0.035-0.025-0.041-0.036s-0.012-0.232-0.013-0.505l-0.003-0.486 0.028-0.061c0.033-0.072 0.11-0.176 0.178-0.242 0.087-0.084 0.149-0.065 0.262 0.080 0.058 0.074 0.126 0.227 0.137 0.307 0.011 0.079 0.008 0.866-0.004 0.903-0.015 0.048-0.067 0.058-0.298 0.057-0.169-0-0.223-0.004-0.247-0.017zM30.081 9.64c-0.021-0.011-0.045-0.031-0.052-0.045-0.018-0.037-0.031-0.635-0.017-0.8 0.013-0.151 0.030-0.206 0.097-0.309 0.087-0.134 0.153-0.206 0.192-0.21 0.078-0.008 0.127 0.037 0.275 0.252l0.063 0.092v0.974l-0.070 0.033c-0.069 0.033-0.073 0.033-0.26 0.033-0.159 0-0.196-0.003-0.229-0.020zM26.662 9.632c-0.016-0.009-0.034-0.028-0.041-0.043-0.019-0.041-0.022-0.89-0.003-0.957 0.031-0.112 0.139-0.281 0.215-0.336 0.053-0.038 0.095-0.042 0.135-0.010 0.038 0.030 0.131 0.148 0.172 0.218 0.067 0.114 0.068 0.127 0.069 0.598 0 0.481-0.003 0.508-0.062 0.532-0.052 0.022-0.444 0.021-0.485-0.001zM13.456 8.338c-0.054-0.028-0.056-0.041-0.056-0.489-0-0.49-0.006-0.464 0.134-0.626 0.179-0.208 0.196-0.223 0.245-0.223 0.043 0 0.051 0.007 0.178 0.137 0.073 0.075 0.152 0.159 0.176 0.186l0.044 0.049v0.923l-0.025 0.025c-0.025 0.025-0.029 0.025-0.346 0.028-0.243 0.002-0.328-0.001-0.349-0.011zM15.046 8.341c-0.013-0.006-0.034-0.024-0.045-0.041-0.019-0.029-0.020-0.061-0.016-0.45 0.003-0.327 0.007-0.428 0.020-0.457 0.015-0.035 0.085-0.121 0.207-0.253 0.028-0.031 0.068-0.075 0.088-0.098 0.031-0.036 0.043-0.042 0.083-0.042 0.045 0 0.051 0.004 0.136 0.098 0.049 0.054 0.102 0.113 0.12 0.131 0.060 0.064 0.118 0.162 0.125 0.21 0.004 0.026 0.005 0.227 0.003 0.446l-0.003 0.399-0.062 0.062-0.315 0.002c-0.173 0.001-0.326-0.002-0.34-0.008zM16.641 8.337c-0.055-0.031-0.056-0.040-0.057-0.476-0-0.24 0.004-0.425 0.011-0.448 0.016-0.057 0.054-0.11 0.195-0.271 0.123-0.14 0.123-0.14 0.173-0.14l0.050-0 0.166 0.176c0.091 0.097 0.17 0.184 0.176 0.194 0.016 0.030 0.027 0.832 0.012 0.887-0.025 0.090-0.018 0.088-0.38 0.091-0.252 0.002-0.326-0.001-0.347-0.012zM18.23 8.336c-0.020-0.008-0.041-0.027-0.049-0.040-0.010-0.018-0.013-0.135-0.012-0.439 0.002-0.401 0.003-0.416 0.027-0.468 0.014-0.031 0.088-0.123 0.175-0.22 0.147-0.163 0.152-0.167 0.197-0.167 0.043-0 0.052 0.006 0.129 0.086 0.046 0.048 0.107 0.116 0.136 0.151 0.119 0.146 0.12 0.15 0.12 0.635 0 0.232-0.005 0.399-0.011 0.417-0.021 0.056-0.060 0.062-0.383 0.061-0.224-0-0.302-0.004-0.329-0.016z"></path>
</svg>
