<!-- Generated by IcoMoon.io -->
<svg version="1.1" xmlns="http://www.w3.org/2000/svg" width="32" height="32" viewBox="0 0 32 32">
<title>alice_in_arkham</title>
<path d="M4.402 27.737c-1.763-5.551-0.447-11.632 3.335-15.414l0.973-0.973-0.513-0.234c-0.296-0.135-0.775-0.755-1.133-1.466-0.56-1.114-0.627-1.476-0.699-3.786l-0.080-2.554 1.648-0.192c2.319-0.271 3.698 0.277 5.715 2.268 1.97 1.944 2.384 1.952 4.292 0.081 0.84-0.824 1.873-1.583 2.633-1.936 1.146-0.531 1.392-0.569 2.952-0.444 0.936 0.075 1.771 0.206 1.857 0.291s0.075 1.309-0.023 2.719c-0.153 2.205-0.26 2.71-0.763 3.611-0.322 0.576-0.769 1.177-0.995 1.335-0.389 0.273-0.338 0.365 0.961 1.742 1.526 1.618 2.693 3.756 3.241 5.943 0.268 1.069 0.322 2.089 0.247 4.683-0.113 3.893-0.479 5.339-1.351 5.339-0.282 0-0.512-0.033-0.512-0.073s0.211-0.639 0.469-1.331c0.408-1.094 0.47-1.686 0.474-4.557 0.005-3.188-0.017-3.358-0.659-5.034-2.121-5.537-6.862-8.679-11.997-7.951-4.387 0.622-8.283 4.509-9.496 9.472-0.657 2.688-0.363 6.763 0.656 9.1 0.13 0.299 0.057 0.373-0.375 0.373-0.455 0-0.588-0.156-0.859-1.011zM14.907 7.991c0-0.763-3.372-2.352-3.891-1.834-0.105 0.105 0.166 0.249 0.629 0.332 0.977 0.176 2.624 0.931 2.624 1.203 0 0.107-0.473 0.194-1.052 0.194s-1.112 0.097-1.186 0.216c-0.088 0.143 0.261 0.17 1.023 0.081 0.771-0.091 1.207-0.055 1.307 0.106 0.185 0.3 0.546 0.102 0.546-0.299zM17.368 8.291c0.095-0.153 0.56-0.187 1.343-0.097 0.85 0.097 1.106 0.074 0.879-0.082-0.176-0.12-0.726-0.22-1.224-0.222s-0.905-0.097-0.905-0.212c0-0.313 1.472-0.997 2.522-1.172 0.509-0.085 0.844-0.235 0.745-0.334-0.267-0.267-1.967 0.173-3.001 0.778-0.675 0.395-0.905 0.662-0.905 1.052 0 0.542 0.293 0.697 0.545 0.289z"></path>
</svg>
