<!-- Generated by IcoMoon.io -->
<svg version="1.1" xmlns="http://www.w3.org/2000/svg" width="33" height="32" viewBox="0 0 33 32">
<title>alien_interference</title>
<path d="M25.403 14.854c-0.082 0.281-0.345 0.223-0.578 0.223-0.522 0-0.999-0.21-1.033-0.8-0.016-0.285-0.032-0.445 0.229-0.575 0.194-0.097 0.46-0.107 0.69-0.112l-0.229-0.229c0.255 0 0.546-0.074 0.717 0.11 0.193 0.207 0.2 0.422 0.198 0.692-0.001 0.204 0.062 0.498 0.006 0.692zM23.658 16.313c-0.2 0.347-0.77 0.427-1.12 0.372-0.457-0.073-0.754-0.557-0.492-0.952 0.269-0.408 0.997-0.472 1.29-0.085 0.002 0 0.004 0 0.005 0 0.198 0.029 0.127 0.002 0.229 0.114 0.11 0.12 0.179 0.396 0.089 0.551zM22.762 24.81c-0.169 0.409-0.234 0.824-0.423 1.236-0.163 0.356-0.392 0.612-0.624 0.921-0.299 0.397-0.58 0.791-1.015 1.050-0.375 0.224-0.643 0.566-1.012 0.802-0.416 0.263-0.901 0.358-1.345 0.559-0.66 0.299-1.168 0.359-1.889 0.348-0.537-0.008-1.048 0.046-1.58 0.099-0.714 0.071-1.067-0.178-1.664-0.48-0.41-0.208-0.87-0.23-1.289-0.411-0.384-0.166-0.76-0.412-1.115-0.634-0.581-0.363-0.988-1.075-1.319-1.663-0.196-0.348-0.283-0.641-0.366-1.030-0.092-0.431-0.267-0.813-0.306-1.257-0.052-0.586-0.066-1.254 0.074-1.826 0.076-0.313 0.116-0.632 0.255-0.924 0.154-0.322 0.401-0.579 0.619-0.856 0.36-0.457 0.79-0.833 1.334-1.061 0.43-0.18 0.869-0.464 1.324-0.584 0.872-0.23 1.725-0.471 2.63-0.471 0.425 0 0.863 0.016 1.241 0.243 0.098 0.058 0.199 0.161 0.289 0.238 0.119 0.103 0.325 0.412 1.494-0.252 0.209-0.241 0.609-0.226 0.896-0.231 0.684-0.008 1.342 0.176 1.965 0.431 1.302 0.532 1.837 2.147 2.036 3.436 0.118 0.758 0.080 1.621-0.21 2.321zM19.559 16.733c0.46-0.349 1.294-0.169 1.834-0.169l-0.492 0.282c0.186 0.243 0.202 0.683 0.132 0.958-0.26 0.017-0.303 0.181-0.498 0.3-0.139 0.083-0.351 0.087-0.517 0.065-0.191-0.024-0.304-0.119-0.459-0.231-0.152-0.111-0.203-0.178-0.23-0.401-0.036-0.312-0.031-0.605 0.23-0.804zM14.325 9.28c-0.214-0.235-0.363-0.528-0.491-0.816-0.096-0.216-0.122-0.45-0.17-0.681-0.025-0.124-0.037-0.226-0.040-0.351-0.005-0.148-0.042-0.283-0.030-0.432 0.012-0.142 0.053-0.269 0.082-0.408 0.025-0.12 0.050-0.234 0.106-0.344 0.055-0.107 0.098-0.216 0.15-0.325 0.082-0.173 0.203-0.306 0.332-0.447 0.142-0.158 0.29-0.278 0.477-0.383 0.135-0.076 0.274-0.157 0.401-0.247 0.127-0.091 0.224-0.184 0.372-0.238 0.204-0.074 0.353-0.178 0.582-0.184l-0.082 0.040c0.064-0.008 0.127-0.011 0.194-0.016 0.167-0.017 0.334-0.056 0.502-0.059 0.35-0.008 0.705 0.216 1.005 0.372 0.382 0.196 0.765 0.476 1.038 0.81 0.204 0.248 0.364 0.528 0.483 0.826 0.088 0.222 0.098 0.496 0.096 0.731-0.001 0.317 0.002 0.624-0.060 0.936-0.031 0.159-0.058 0.328-0.126 0.478-0.065 0.143-0.129 0.349-0.247 0.46-0.080 0.075-0.164 0.114-0.238 0.2-0.082 0.096-0.163 0.17-0.282 0.223-0.072 0.032-0.141 0.057-0.208 0.098-0.068 0.043-0.116 0.089-0.195 0.118-0.151 0.054-0.298 0.094-0.444 0.166-0.149 0.075-0.297 0.078-0.459 0.102-0.176 0.024-0.348 0.062-0.524 0.082-0.447 0.049-0.865-0.022-1.294-0.151-0.337-0.102-0.692-0.298-0.931-0.559zM26.845 16.168c0.002-0.477-0.028-0.95-0.077-1.424-0.072-0.693-0.147-1.38-0.266-2.068-0.149-0.863-0.386-1.704-0.605-2.55-0.069-0.268-0.147-0.533-0.226-0.796-0.025 0.033-0.051 0.068-0.076 0.099-0.099 0.127-0.172 0.24-0.305 0.333-0.165 0.114-0.329 0.215-0.465 0.365-0.080 0.089-0.136 0.192-0.214 0.282-0.111 0.13-0.254 0.252-0.382 0.366-0.276 0.248-0.603 0.417-0.896 0.642-0.319 0.245-0.669 0.382-1.038 0.535-0.335 0.139-0.685 0.223-1.041 0.291-0.343 0.066-0.695 0.064-1.041 0.11-0.183 0.025-0.359 0.080-0.543 0.097-0.142 0.012-0.285 0.005-0.427 0.005-0.213 0-0.379-0.005-0.586-0.054-0.162-0.038-0.305-0.032-0.469-0.043-0.336-0.022-0.658-0.152-0.971-0.269-0.301-0.112-0.557-0.266-0.827-0.438-0.15-0.095-0.281-0.101-0.447-0.132-0.122-0.023-0.195-0.098-0.284-0.178-0.085-0.077-0.178-0.132-0.266-0.202-0.079-0.065-0.119-0.173-0.168-0.26-0.014-0.024-0.030-0.073-0.052-0.116-0.042-0.018-0.074-0.041-0.080-0.075 0.034 0 0.059 0.035 0.080 0.075 0.089 0.040 0.229 0.053 0.282 0.065 0.189 0.040 0.37 0.109 0.557 0.154 0.211 0.052 0.433 0.106 0.653 0.101 0.229-0.008 0.452-0.032 0.683-0.032 0.121 0 0.243 0.008 0.363 0.002 0.111-0.003 0.203-0.035 0.311-0.056 0.259-0.047 0.515-0.135 0.752-0.248 0.147-0.070 0.295-0.089 0.433-0.184 0.122-0.083 0.234-0.181 0.359-0.261 0.158-0.102 0.333-0.178 0.478-0.299 0.118-0.099 0.226-0.225 0.335-0.334 0.12-0.121 0.243-0.24 0.364-0.362 0.141-0.141 0.233-0.306 0.336-0.475 0.274-0.447 0.586-0.886 0.795-1.368 0.081-0.187 0.18-0.378 0.236-0.574 0.053-0.189 0.081-0.4 0.12-0.591 0.083-0.405 0.088-0.819 0.051-1.23-0.064-0.708-0.204-1.446-0.512-2.1l-0.526-0.697c-0.137-0.114-0.275-0.229-0.416-0.336-0.295-0.226-0.59-0.47-0.901-0.673-0.072-0.047-0.147-0.089-0.219-0.135-0.028-0.019-0.112-0.097-0.157-0.116-0.036-0.016-0.077-0.017-0.113-0.002 0.036 0.016 0.065 0.042 0.051 0.085l1.332 1.132c-0.072-0.032-0.146-0.062-0.22-0.095-0.21-0.091-0.393-0.224-0.583-0.351-0.224-0.15-0.455-0.25-0.715-0.32-0.244-0.067-0.481-0.164-0.728-0.217-0.563-0.12-1.183-0.040-1.72 0.161-0.564 0.211-1.139 0.433-1.64 0.773-0.255 0.172-0.52 0.322-0.788 0.474-0.222 0.126-0.427 0.275-0.635 0.423-0.226 0.161-0.457 0.314-0.664 0.501-0.218 0.199-0.429 0.401-0.638 0.61-0.968 0.966-1.719 2.115-2.436 3.272-0.075 0.24-0.136 0.484-0.185 0.732-0.062 0.319-0.069 0.641-0.088 0.964-0.027 0.486 0.008 0.933 0.173 1.391 0.088 0.243 0.176 0.474 0.296 0.702 0.116 0.22 0.266 0.416 0.417 0.612 0.21 0.274 0.418 0.527 0.681 0.751 0.217 0.186 0.402 0.412 0.633 0.581 0.263 0.193 0.477 0.424 0.765 0.583 0.341 0.189 0.678 0.386 1.021 0.571 0.21 0.113 0.422 0.223 0.646 0.304 0.204 0.074 0.429 0.122 0.638 0.185 0.4 0.12 0.804 0.258 1.222 0.3 0.327 0.033 0.65 0.037 0.98 0.037 0.114 0 0.229 0 0.343-0.001 0.099-0.001 0.21-0.009 0.292 0.055-0.014 0.032-0.073 0.050-0.106 0.067-0.060 0.031-0.106 0.050-0.171 0.068-0.165 0.050-0.336 0.141-0.497 0.207-0.179 0.074-0.345 0.109-0.534 0.146-0.122 0.023-0.234 0.073-0.358 0.094-0.102 0.016-0.204 0.028-0.308 0.036-0.204 0.017-0.399 0.073-0.605 0.064-0.15-0.008-0.292-0.039-0.444-0.035-0.146 0.005-0.29 0.027-0.435 0.041-0.38 0.038-0.779 0.042-1.161 0.017-0.233-0.015-0.466-0.070-0.699-0.095-0.222-0.022-0.453-0.047-0.665-0.116-0.362-0.118-0.74-0.262-1.075-0.441-0.172-0.091-0.35-0.171-0.516-0.273-0.167-0.103-0.319-0.226-0.478-0.342-0.56-0.403-1.097-0.821-1.524-1.37-0.269-0.345-0.539-0.706-0.598-1.152-0.107 0.256-0.214 0.512-0.328 0.763-0.129 0.288-0.244 0.58-0.36 0.872-0.139 0.35-0.252 0.694-0.369 1.051-0.105 0.323-0.188 0.647-0.266 0.977-0.075 0.32-0.168 0.635-0.222 0.96-0.112 0.657-0.2 1.318-0.298 1.976-0.061 0.411-0.088 0.818-0.114 1.231-0.016 0.26-0.040 0.519-0.040 0.779 0 0.552 0.057 1.097 0.125 1.643 0.051 0.405 0.094 0.796 0.18 1.196 0.059 0.268 0.098 0.539 0.148 0.81 0.053 0.288 0.092 0.575 0.168 0.859 0.058 0.221 0.146 0.431 0.2 0.653 0.023 0.097 0.043 0.195 0.079 0.29 0.038 0.098 0.11 0.196 0.164 0.289 0.114 0.193 0.216 0.408 0.349 0.59 0.122 0.17 0.28 0.307 0.423 0.459 0.158 0.167 0.31 0.338 0.472 0.501 0.209 0.211 0.444 0.398 0.676 0.583 0.176 0.137 0.335 0.3 0.521 0.423 0.258 0.169 0.561 0.278 0.833 0.426 0.211 0.115 0.415 0.241 0.634 0.344 0.386 0.181 0.782 0.356 1.174 0.526 0.351 0.153 0.733 0.261 1.102 0.367 0.177 0.050 0.359 0.083 0.538 0.125 0.202 0.046 0.407 0.109 0.613 0.136 0.394 0.053 0.799 0.015 1.193-0.006 0.439-0.024 0.877-0.037 1.316-0.038 0.352 0 0.678-0.076 1.027-0.118 0.301-0.037 0.609-0.024 0.907-0.080 0.378-0.072 0.752-0.295 1.086-0.476 0.225-0.124 0.423-0.288 0.646-0.414 0.186-0.106 0.385-0.186 0.573-0.288 0.295-0.157 0.564-0.347 0.827-0.551 0.595-0.462 1.186-0.952 1.699-1.505 0.314-0.34 0.66-0.66 0.915-1.048 0.211-0.323 0.42-0.648 0.597-0.993 0.208-0.409 0.388-0.847 0.578-1.266 0.17-0.377 0.296-0.77 0.42-1.166 0.282-0.889 0.483-1.796 0.646-2.713 0.147-0.832 0.263-1.682 0.302-2.526 0.024-0.537 0.003-1.079 0.006-1.618z"></path>
<path d="M22.703 4.434l2.777 4.445c-0.089-0.308-0.183-0.617-0.295-0.918-0.17-0.457-0.411-0.873-0.666-1.288-0.236-0.386-0.446-0.788-0.687-1.168-0.247-0.388-0.546-0.731-0.861-1.066-0.162-0.173-0.328-0.345-0.495-0.515 0.001 0.003 0.005 0.008 0.007 0.012 0.087 0.161 0.158 0.328 0.221 0.499z"></path>
<path d="M18.996 20.313c-0.276-0.17-0.513-0.214-0.833-0.203-0.193 0.008-0.795 0.035-0.785 0.291 0.014 0.017 0.021 0.035 0.010 0.055-0.006-0.020-0.009-0.038-0.010-0.055-0.062-0.076-0.344-0.111-0.575-0.062-0.14 0.030-0.192 0.082-0.321 0.121-0.090-0.017-0.18-0.012-0.269 0.016-0.094 0.040-0.17 0.102-0.229 0.184-0.121 0.082-0.248 0.141-0.383 0.196-0.27 0.109-0.608 0.386-0.792 0.63-0.174 0.23-0.167 0.465-0.166 0.744 0.003 0.641 0.050 1.42 0.513 1.926 0.111 0.121 0.209 0.165 0.312 0.3 0.151 0.2 0.338 0.427 0.554 0.561 0.373 0.23 0.713 0.247 1.14 0.245 0.407-0.001 0.898 0.073 1.266-0.14 0.359-0.207 0.866-0.427 1.113-0.773 0.187-0.262 0.481-0.624 0.571-0.938 0.116-0.395 0.016-0.951-0.091-1.334-0.162-0.579-0.485-1.431-1.023-1.764z"></path>
<path d="M10.979 25.777c-0.004 0.337-0.091 0.814 0.009 1.133 0.133 0.42 0.4 0.526 0.792 0.526 0.182 0 0.357 0.033 0.515-0.062 0.195-0.119 0.237-0.282 0.496-0.3 0.070-0.455 0.232-0.73-0.009-1.189-0.065-0.12-0.134-0.203-0.209-0.262l-0.792-0.132c0.332 0 0.586-0.029 0.792 0.132l0.581 0.097c-0.46-0.164-2.165-0.96-2.175 0.058z"></path>
<path d="M11.781 25.49l0.792 0.132c-0.207-0.161-0.462-0.132-0.792-0.132z"></path>
<path d="M22.177 9.565c-0.029 0.006-0.196 0.098-0.226 0.117-0.179 0.106-0.392 0.217-0.463 0.43-0.094 0.281 0.054 0.385 0.18 0.603 0.146 0.253 0.097 0.301 0.425 0.316 0.403 0.019 0.98-0.039 0.978-0.574 0-0.204-0.14-0.439-0.276-0.576-0.045-0.045-0.146-0.127-0.246-0.18l-0.284 0.071c0.021-0.163 0.152-0.14 0.284-0.071l0.174-0.044c-0.214 0.005-0.349-0.129-0.546-0.091z"></path>
</svg>
