<!-- Generated by IcoMoon.io -->
<svg version="1.1" xmlns="http://www.w3.org/2000/svg" width="27" height="32" viewBox="0 0 27 32">
<title>ally</title>
<path d="M7.832 0c-0.125 0-0.324 0.009-0.528 0.033-0.416 0.003-0.547 0.126-0.757 0.231-0.213 0.106-0.443 0.266-0.686 0.509l-0.127 0.127-0.058 0.171c0.018-0.053-0.004-0.008-0.080 0.144s-0.084 0.197-0.122 0.274l-0.018 0.036-0.013 0.037c-0.111 0.296-0.182 0.587-0.247 0.911l-0.003 0.012-0.002 0.012c-0.019 0.115-0.073 0.312-0.134 0.525-0.079 0.278-0.114 0.492-0.143 0.579l0.007-0.019c-0.114 0.315-0.251 0.657-0.33 1.076-0.104 0.4-0.14 0.772-0.17 1.095l-0.003 0.034v0.036c0 0.122-0.009 0.117 0.009 0.064-0.095 0.284-0.070 0.454-0.070 0.576 0-0.239 0.026-0.189 0.013-0.144-0.012 0.040-0.035 0.136-0.040 0.265l-0.019 0.006-0.127 0.127c0.208-0.208 0.061-0.054-0.098-0.002l-0.097 0.033-0.086 0.057c0.006-0.004-0.026 0.011-0.195 0.079l-0.030 0.012-0.028 0.015c-0.244 0.122-0.548 0.274-0.792 0.396-0.305 0.152-0.587 0.343-0.856 0.522-0.327 0.204-0.552 0.5-0.731 0.81-0.035 0.047-0.127 0.11-0.144 0.138-0.046 0.077-0.059 0.101-0.057 0.098l-0.057 0.085-0.033 0.097c-0.079 0.236-0.071 0.632 0.119 0.897 0.183 0.257 0.396 0.334 0.558 0.388 0.364 0.154 0.737 0.23 1.106 0.263l0.034 0.003h0.034c0.254 0 0.531 0.027 0.799 0.057 0.33 0.037 0.633 0.034 0.908 0.034 0.244 0 0.474 0.058 0.277-0.007l0.077 0.025 0.076 0.009c0.006 0.037 0.027 0.082 0.027 0.127v0.305l0.007-0.109c-0.045 0.318 0.006 0.601 0.060 0.89 0.001 0.015 0.046 0.123 0.057 0.182-0 0.007 0.003 0.033 0.003 0.042-0.137 0.053-0.273 0.115-0.406 0.155-0.318 0.095-0.567 0.177-0.814 0.226l-0.009 0.002-0.007 0.002c-0.6 0.133-1.223 0.341-1.845 0.686-0.002 0.001-0.003 0.001-0.004 0.002-0.116 0.058-0.242 0.118-0.388 0.216-0.124 0.083-0.222 0.15-0.253 0.165l-0.043 0.021-0.039 0.027c-0.189 0.126-0.397 0.354-0.534 0.628l0.028-0.051c-0.091 0.152-0.188 0.278-0.159 0.25l-0.088 0.086-0.055 0.112c0.007-0.015 0.013-0.024-0.013 0.021s-0.128 0.173-0.128 0.442l0.339-0.634c-0.225 0.15-0.434 0.582-0.379 0.879s0.189 0.43 0.295 0.536l0.086 0.088 0.112 0.055c0.167 0.084 0.34 0.142 0.491 0.18l-0.057-0.016c0.14 0.047 0.204 0.065 0.235 0.080l0.021 0.010 0.019 0.009c0.189 0.081 0.405 0.191 0.701 0.275 0.149 0.043 0.325 0.117 0.478 0.193l0.021 0.010 0.021 0.009c0.098 0.042 0.265 0.152 0.427 0.263 0.074 0.168 0.148 0.335 0.275 0.509-0.034 0.027-0.056 0.049-0.098 0.080-0.187 0.14-0.3 0.259-0.457 0.39l-0.027 0.022-0.024 0.025c-0.188 0.188-0.295 0.29-0.281 0.281-0.255 0.153-0.42 0.328-0.542 0.449-0.055 0.055-0.129 0.164-0.196 0.248-0.319 0.355-0.241 0.598-0.241 0.627 0 0.015-0.025 0.077 0.043 0.281 0.034 0.102 0.113 0.256 0.265 0.375s0.351 0.167 0.485 0.167l-0.423-0.128c0.189 0.126 0.247 0.175 0.128 0.057 0.24 0.24 0.331 0.27 0.213 0.152l0.088 0.088 0.11 0.055c0.031 0.016 0.128 0.081 0.25 0.173 0.031 0.023 0.068 0.075 0.101 0.112-0.304 0.327-0.52 0.722-0.582 1.152l-0.007 0.054v0.101c-0.109 0.472-0.181 0.912-0.211 1.33-0.031 0.402-0.063 0.878-0.063 1.396 0 0.244-0.022 0.438 0.052 0.734l-0.016-0.091c0.023 0.182 0.024 0.394 0.024 0.668v3.321c0 0.285 0.2 0.562 0.308 0.655s0.155 0.111 0.185 0.131l0.039 0.027 0.043 0.021c-0.015-0.008-0.024-0.012 0.021 0.015s0.173 0.127 0.442 0.127l-0.269-0.049c1.199 0.454 2.435 0.715 3.673 0.78l0.021 0.002h13.49c0.435 0 0.895-0.034 1.335-0.101 0.434-0.067 0.831-0.158 1.189-0.213l0.054-0.007 0.052-0.016c0.72-0.219 1.453-0.473 2.167-0.798 0.717-0.326 1.393-0.748 2.009-1.231 0.134-0.090 0.265-0.222 0.377-0.408 0.007-0.006 0.018-0.024 0.027-0.034-0.001 0.002-0.002 0.009-0.003 0.010 0.008-0.015 0.020-0.015 0.028-0.031l0.021-0.043c0.017-0.027 0.017-0.008 0.037-0.049 0.011-0.022 0.002-0.022 0.010-0.043l0.012-0.025v-0.031c0.034-0.123 0.061-0.26 0.061-0.271 0-0.122 0.011-0.342-0.11-0.585l0.015 0.031c-0.103-0.231-0.182-0.466-0.232-0.667-0.068-0.273-0.154-0.562-0.205-0.818l-0.003-0.018-0.004-0.018c-0.038-0.151-0.039-0.198-0.039-0.121v-0.106l-0.028-0.103c-0.13-0.454-0.287-0.89-0.438-1.313-0.164-0.493-0.357-0.908-0.536-1.296l-0.003-0.004c-0.287-0.702-0.611-1.357-1.012-1.958l0.019 0.030c-0.030-0.050-0.083-0.183-0.144-0.366l-0.009-0.027c-0-0.091 0.008-0.236-0.094-0.439l0.065 0.192c-0.055-0.276-0.085-0.527-0.161-0.829l-0.006-0.024c-0.036-0.125-0.068-0.363-0.144-0.641l-0.002-0.003c-0.298-1.223-1.049-2.184-2.122-2.729-0.17-0.208-0.352-0.42-0.51-0.515-0.255-0.153-0.487-0.222-0.67-0.283l-0.057-0.019-0.060-0.009c-0.102-0.017-0.284-0.078-0.548-0.122-0.169-0.028-0.259-0.049-0.33-0.077l-0.021-0.009-0.021-0.007c-0.255-0.085-0.444-0.114-0.612-0.162-0.266-0.076-0.48-0.106-0.713-0.156-0.192-0.063-0.388-0.119-0.534-0.168-0.056-0.018-0.162-0.058-0.24-0.088 0.020-0.039 0.046-0.079 0.074-0.193 0.030-0.12 0.003-0.324-0.054-0.507-0.004-0.031-0.010-0.050-0.021-0.091 0.003 0.008 0.011 0.015 0.013 0.022-0.006-0.015 0.003-0.027-0.004-0.042l-0.025-0.049c-0.008-0.020 0.002-0.020-0.009-0.042-0.009-0.018-0.008-0.007-0.016-0.022 0.003 0.006 0.023-0.011 0.092-0.219 0.030-0.091 0.037-0.1 0.033-0.094l0.128-0.192v-0.231c0 0.193-0.008 0.090 0.022-0.002 0.047-0.14 0.064-0.221 0.106-0.324l0.019-0.048 0.013-0.051c0.037-0.148 0.067-0.453-0.094-0.722s-0.374-0.357-0.515-0.414c-0.282-0.113-0.558-0.162-0.909-0.226h-0.006l-0.004-0.002c-0.115-0.019-0.306-0.071-0.464-0.123-0.124-0.041-0.165-0.045-0.257-0.067 0.003-0.121 0.016-0.244 0.016-0.369 0-0.152 0.008-0.213 0.012-0.318 0.049-0.015 0.211-0.057 0.409-0.153 0.261-0.101 0.543-0.224 0.833-0.385 0.333-0.185 0.672-0.43 0.94-0.787 0.219-0.293 0.363-0.571 0.448-0.826l0.040-0.118v-0.476l-0.006-0.048c-0.054-0.43-0.242-0.769-0.442-1.049-0.248-0.347-0.637-0.614-1.071-0.744l-0.054-0.016-0.057-0.007c-0.087-0.012-0.141-0.023-0.185-0.033-0.042-0.009-0.011-0.032-0.25-0.034-0.009-0 0-0.002-0.009-0.002-0.332-0.109-0.668-0.214-0.975-0.214h-0.301c-0.014-0.067-0.034-0.154-0.042-0.216v-0.006l-0.002-0.007c-0.029-0.203-0.054-0.413-0.054-0.594l-0.039 0.241c0.063-0.188 0.070-0.393 0.070-0.454v-0.18l-0.037-0.073-0.007-0.042c-0.141-0.742-0.467-1.436-1.076-1.885-0.071-0.066-0.157-0.149-0.277-0.208 0.030 0.015 0.107 0.082 0.046 0.021l-0.098-0.097-0.125-0.058c-0.319-0.145-0.623-0.299-0.932-0.415-0.192-0.072-0.436-0.194-0.732-0.305l-0.012-0.004-0.013-0.004c-0.279-0.093-0.493-0.12-0.641-0.162-0.296-0.085-0.542-0.112-0.775-0.164-0.222-0.049-0.474-0.132-0.748-0.223-0.258-0.086-0.597-0.209-0.975-0.335l0.1 0.040c-0.243-0.121-0.304-0.121-0.183-0.061-0.152-0.076-0.182-0.076-0.152-0.061l0.051 0.028c-0.216-0.13-0.493-0.26-0.848-0.26zM7.832 1.524c-0.051 0-0.024-0.010 0.064 0.043l0.025 0.016 0.027 0.012c0.152 0.076 0.182 0.076 0.152 0.061 0.243 0.121 0.304 0.121 0.183 0.061l0.049 0.025 0.051 0.016c0.354 0.118 0.686 0.238 0.976 0.335 0.274 0.091 0.571 0.192 0.897 0.265 0.315 0.070 0.557 0.104 0.688 0.141 0.271 0.078 0.475 0.111 0.565 0.14 0.19 0.072 0.427 0.189 0.717 0.298 0.169 0.063 0.463 0.206 0.79 0.356 0.061 0.049 0.098 0.093 0.173 0.131-0.030-0.015-0.106-0.082-0.045-0.021l0.045 0.045 0.051 0.037c0.226 0.161 0.386 0.427 0.487 0.954l-0.013-0.141c0 0.018 0.026 0.098 0.033 0.146 0.015 0.113 0.025 0.24 0.079 0.347l-0.080-0.341-0.031 0.089v0.123c0 0.302 0.035 0.575 0.067 0.796 0 0.001-0 0.002 0 0.003 0.039 0.312 0.107 0.553 0.127 0.668l0.019 0.113 0.051 0.103c0.129 0.258 0.312 0.353 0.405 0.403s0.142 0.070 0.18 0.089c0.213 0.106 0.331 0.171 0.646 0.171h0.427c0.203 0 0.429 0.041 0.659 0.146l0.15 0.068h0.165c-0.239 0-0.124-0.012-0.061 0.002 0.041 0.009 0.119 0.022 0.189 0.034 0.156 0.049 0.203 0.088 0.257 0.164 0.101 0.141 0.153 0.278 0.164 0.339v0.051c-0.034 0.088-0.062 0.163-0.183 0.324-0.098 0.13-0.246 0.251-0.461 0.371-0.237 0.131-0.479 0.239-0.69 0.318l-0.037 0.013-0.036 0.018c-0.031 0.016-0.095 0.034-0.235 0.080-0.188 0.063-0.274 0.104-0.28 0.106l-0.128 0.033-0.11 0.073c-0.078 0.052-0.18 0.123-0.289 0.262-0.106 0.136-0.194 0.361-0.198 0.571-0.030 0.245-0.036 0.477-0.036 0.714 0 0.274-0.002 0.451-0.022 0.594l-0.007 0.054v0.055c0 0.176 0.023 0.41 0.185 0.643s0.441 0.368 0.641 0.408c0.216 0.063 0.414 0.104 0.487 0.128 0.207 0.069 0.444 0.14 0.695 0.182 0.075 0.014 0.078 0.020 0.144 0.034-0.049 0.105-0.113 0.227-0.132 0.284 0.018-0.053-0.072 0.093-0.138 0.36l0.201-0.353c-0.184 0.184-0.359 0.543-0.311 0.878 0.025 0.177 0.123 0.249 0.196 0.363l-0.068 0.068c-0.165 0.165-0.339 0.53-0.246 0.873s0.33 0.504 0.504 0.591c0.061 0.030 0.209 0.141 0.524 0.141l-0.341-0.080c-0.015-0.007-0.008-0 0.076 0.042s0.259 0.1 0.417 0.1l-0.24-0.039c0.135 0.045 0.348 0.136 0.579 0.213 0.207 0.069 0.42 0.13 0.579 0.183l0.037 0.012 0.039 0.009c0.303 0.067 0.507 0.099 0.656 0.141 0.259 0.074 0.437 0.106 0.548 0.143l-0.042-0.016c0.234 0.093 0.448 0.134 0.644 0.167 0.083 0.014 0.257 0.060 0.448 0.1 0.172 0.058 0.305 0.108 0.353 0.137 0.088 0.053 0.11 0.067 0.158 0.152l0.125 0.219 0.231 0.101c0.765 0.335 1.192 0.873 1.424 1.829l0.003 0.015 0.004 0.015c0.036 0.126 0.068 0.364 0.146 0.646 0.046 0.186 0.078 0.422 0.144 0.756l0.021 0.101 0.016 0.034c0.001 0.094-0.007 0.225 0.089 0.42 0.001 0.001-0.001 0.002 0 0.003 0.055 0.167 0.111 0.352 0.241 0.568l0.010 0.016 0.009 0.015c0.33 0.494 0.613 1.058 0.873 1.695l0.007 0.015 0.006 0.015c0.183 0.396 0.352 0.762 0.488 1.171l0.003 0.007 0.002 0.009c0.152 0.427 0.299 0.838 0.412 1.232l-0.030-0.21c0 0.261 0.062 0.397 0.085 0.49 0.070 0.337 0.161 0.648 0.213 0.854 0.049 0.196 0.135 0.413 0.216 0.627-0.505 0.387-1.050 0.735-1.621 0.994-0.62 0.282-1.281 0.512-1.954 0.717-0.4 0.065-0.773 0.146-1.107 0.198-0.353 0.054-0.747 0.083-1.104 0.083h-13.438c-1.003-0.053-2.005-0.287-2.99-0.637v-2.868c0-0.274 0.003-0.551-0.036-0.857l-0.006-0.046-0.010-0.043c0.013 0.052-0.007-0.121-0.007-0.365 0-0.456 0.028-0.892 0.058-1.283v-0.004c0.028-0.391 0.082-0.766 0.193-1.21l0.022-0.091v-0.094c0.040-0.246 0.114-0.343 0.179-0.382l0.015-0.010 0.016-0.010c0.118-0.079 0.227-0.213 0.332-0.357 0.096-0.124 0.213-0.317 0.213-0.509 0-0.214-0.061-0.321-0.1-0.397-0.082-0.189-0.178-0.35-0.234-0.433-0.165-0.248-0.356-0.442-0.543-0.582-0.048-0.036-0.131-0.083-0.189-0.125 0.175-0.134 0.317-0.265 0.402-0.357l0.004-0.004c0.204-0.17 0.337-0.294 0.393-0.336 0.122-0.091 0.28-0.21 0.446-0.377l-0.198 0.143c0.054-0.027 0.332-0.252 0.475-0.525 0.039-0.076 0.097-0.145 0.11-0.208 0.027-0.134 0.019-0.191 0.019-0.222v-0.123l-0.039-0.118c-0.085-0.255-0.212-0.514-0.403-0.753-0.021-0.027-0.11-0.194-0.234-0.473l-0.080-0.182-0.158-0.119c-0.271-0.203-0.547-0.379-0.842-0.507-0.209-0.103-0.448-0.209-0.717-0.286-0.124-0.036-0.275-0.106-0.494-0.201l0.016 0.007c-0.008-0.004-0.008-0.002-0.016-0.006-0 0 0-0.002 0-0.002-0.002 0.003 0.010-0.020 0.007-0.018l-0.021 0.012-0.002 0.002c-0.001-0.001-0.002-0.001-0.003-0.002 0.001-0 0.001-0.001 0.002-0.002s0.001-0 0.002 0c0.166-0.092 0.307-0.19 0.357-0.223 0.026-0.018 0.131-0.074 0.253-0.135l0.015-0.007 0.015-0.009c0.473-0.263 0.944-0.421 1.44-0.531l-0.015 0.003c0.362-0.072 0.661-0.173 0.952-0.26 0.349-0.105 0.681-0.239 0.975-0.369l0.129-0.058 0.1-0.1c0.257-0.257 0.411-0.736 0.323-1.089l0.022 0.185c0-0.030 0.007-0.088-0.019-0.222-0.005-0.024-0.032-0.052-0.042-0.079v-0.173l-0.077-0.116c-0.051-0.263-0.061-0.43-0.052-0.491l0.007-0.054v-0.359c0-0.267-0.054-0.578-0.183-0.879l-0.028-0.064-0.039-0.058c-0.243-0.364-0.693-0.561-1.086-0.616-0.267-0.065-0.437-0.060-0.644-0.060-0.274 0-0.521-0.001-0.74-0.025-0.271-0.030-0.593-0.062-0.936-0.064l0.037 0.002c-0.012-0.001-0.017-0.005-0.028-0.006 0.255-0.17 0.502-0.33 0.667-0.412 0.244-0.122 0.548-0.275 0.792-0.397 0.082-0.031 0.18-0.082 0.278-0.132 0.116-0.033 0.265-0.138 0.399-0.211 0.426-0.179 0.696-0.592 0.781-0.89l0.030-0.103v-0.080l0.030-0.060v-0.14c0.013-0.019 0.031-0.003 0.031-0.192 0-0.122 0.025-0.196-0.009-0.095 0.079-0.236 0.070-0.423 0.070-0.545l-0.003 0.068c0.030-0.335 0.059-0.621 0.128-0.873l0.009-0.033 0.006-0.033c0.043-0.239 0.144-0.502 0.271-0.851l0.004-0.009 0.003-0.010c0.093-0.279 0.12-0.491 0.162-0.64 0.061-0.213 0.129-0.444 0.171-0.695l-0.004 0.025c0.057-0.286 0.108-0.482 0.18-0.674 0.048-0.104 0.1-0.224 0.089-0.202-0.004 0.008 0.035-0.079 0.046-0.095 0.095-0.080 0.199-0.161 0.223-0.173 0.153-0.076 0.333-0.073 0.086-0.073h0.063l0.063-0.009c0.102-0.017 0.24-0.021 0.393-0.021zM4.408 6.272c-0.091 0.182-0.057 0.213-0.061 0.304l-0.013 0.004 0.074-0.308zM4.339 6.61c0 0.059-0.043 0.193-0.043 0.217l0.030-0.21c-0.003 0.010 0.014-0.013 0.013-0.007zM15.966 11.393c0-0 0.003 0.006 0.003 0.006l-0.007 0.107c0.006-0.040 0-0.075 0.004-0.113zM16.497 14.243l-0.027 0.027c0-0.004-0.002-0.008-0.002-0.012 0.018-0.025-0.037 0.050 0.028-0.015zM16.496 14.478c0.038 0.045 0.055 0.133 0.092 0.171 0.012 0.012-0.038-0.049-0.088-0.127-0.006-0.016 0-0.028-0.004-0.045zM16.502 14.534c0.039 0.081 0.074 0.163 0.147 0.237l-0.143-0.198c-0.007-0.013 0.001-0.025-0.004-0.039zM17.909 14.54l-0.052 0.161c-0.005-0.002-0.010-0.004-0.015-0.006 0.005-0.044 0.060-0.113 0.067-0.155zM25.829 28.052c0.003 0.008 0.004 0.015 0.007 0.022-0.019 0.065-0.055 0.074-0.055 0.177l0.048-0.199zM25.848 28.107c0.013 0.030 0.016 0.057 0.030 0.088l0.007 0.016c-0.035-0.093-0.043-0.185-0.043-0.082 0 0.001 0.006-0.022 0.006-0.022z"></path>
</svg>
