<!-- Generated by IcoMoon.io -->
<svg version="1.1" xmlns="http://www.w3.org/2000/svg" width="33" height="32" viewBox="0 0 33 32">
<title>anachronism</title>
<path d="M17.146 30.179c-0.249-0.086-3.043-0.12-3.516-0.043-0.352 0.057-0.383 0.051-0.666-0.13-0.343-0.22-0.875-0.415-1.307-0.479-0.166-0.025-0.599-0.191-0.962-0.369s-0.839-0.378-1.057-0.443c-0.301-0.090-0.471-0.19-0.705-0.417-0.17-0.164-0.347-0.322-0.394-0.351s-0.191-0.194-0.32-0.367c-0.652-0.874-2.323-2.705-2.608-2.857-0.124-0.066-0.138-0.109-0.102-0.309 0.023-0.128 0.068-0.284 0.101-0.346 0.071-0.137 0.417-0.357 0.515-0.327 0.039 0.012 0.152 0.039 0.251 0.061 0.123 0.027 0.555 0.413 1.35 1.207 0.989 0.988 1.972 1.848 2.111 1.848 0.020 0 0.167 0.082 0.325 0.183 0.364 0.231 1.296 0.572 2.234 0.818 1.141 0.299 2.12 0.398 4.217 0.423 1.62 0.020 1.969 0.006 2.738-0.106 0.485-0.071 1.014-0.168 1.177-0.216 0.756-0.223 2.816-1.202 3.377-1.605 0.195-0.14 0.493-0.345 0.662-0.454 0.29-0.188 1.036-0.856 1.561-1.397l0.237-0.245 0.066 0.182c0.037 0.1 0.098 0.261 0.136 0.357s0.059 0.185 0.046 0.198c-0.013 0.013-0.208 0.13-0.433 0.262-0.263 0.153-0.612 0.453-0.976 0.838-0.312 0.33-0.649 0.671-0.75 0.759-0.432 0.377-1.512 1.502-1.848 1.927-0.21 0.265-0.382 0.379-1.199 0.797-1.361 0.696-1.276 0.675-2.781 0.67-0.715-0.003-1.375-0.034-1.479-0.070zM15.267 27.065c-0.006-0.006-0.444-0.056-0.974-0.112-1.374-0.143-3.009-0.601-3.594-1.006-0.128-0.089-0.254-0.161-0.28-0.161-0.156 0-2.233-1.929-2.522-2.342-0.054-0.076-0.269-0.272-0.48-0.435s-0.385-0.32-0.389-0.349c-0.004-0.029-0.085-0.223-0.18-0.43s-0.218-0.477-0.273-0.598c-0.055-0.121-0.199-0.39-0.32-0.598-0.324-0.555-0.597-1.157-0.672-1.479-0.052-0.223-0.094-0.285-0.2-0.29-0.376-0.018-0.862-0.092-0.995-0.153-0.083-0.038-0.231-0.196-0.33-0.352-0.215-0.34-0.23-0.509-0.246-2.74-0.010-1.479-0.005-1.561 0.119-1.727 0.201-0.27 0.423-0.409 0.677-0.422 0.127-0.007 0.233-0.026 0.235-0.044s0.014-0.145 0.026-0.283 0.167-0.57 0.343-0.959c0.176-0.389 0.32-0.741 0.32-0.782s0.040-0.119 0.088-0.174c0.114-0.13 0.542-0.955 0.542-1.046 0-0.039 0.096-0.196 0.213-0.349s0.308-0.451 0.425-0.662c0.661-1.201 1.609-2.278 2.509-2.851 0.294-0.187 0.648-0.432 0.787-0.543s0.549-0.344 0.913-0.516c0.795-0.377 0.905-0.418 1.511-0.574 0.26-0.066 0.67-0.184 0.913-0.261 0.965-0.307 0.995-0.312 1.605-0.282 1.075 0.054 2.486 0.23 3.21 0.401 1.030 0.243 2.907 0.97 3.965 1.535 0.672 0.359 0.787 0.45 1.598 1.263 1.079 1.082 1.548 1.625 1.721 1.992 0.19 0.406 0.647 1.598 0.647 1.689 0 0.043 0.041 0.14 0.090 0.217 0.143 0.22 0.541 1.247 0.578 1.491 0.047 0.309 0.188 0.505 0.362 0.505 0.243 0 0.56 0.258 0.62 0.504 0.096 0.395 0.18 0.549 0.339 0.621 0.367 0.167 0.73-0.015 0.839-0.42 0.080-0.3 0.078-3.871-0.003-4.182-0.036-0.137-0.135-0.291-0.239-0.367-0.128-0.095-0.198-0.223-0.251-0.46-0.109-0.488-0.356-0.748-0.904-0.954-0.485-0.183-0.628-0.309-0.922-0.815-0.317-0.546-0.395-0.874-0.392-1.656 0.001-0.392 0.022-0.773 0.046-0.848 0.080-0.251 0.546-0.805 0.807-0.957 0.393-0.23 0.944-0.35 1.611-0.352l0.598-0.001 0.276 0.302c0.152 0.166 0.427 0.5 0.612 0.743s0.409 0.531 0.499 0.64c0.13 0.158 0.169 0.286 0.19 0.611 0.030 0.475-0.034 0.687-0.288 0.951-0.1 0.104-0.252 0.348-0.338 0.543s-0.222 0.407-0.302 0.472c-0.159 0.129-0.147-0.024-0.186 2.447-0.007 0.479 0.039 1.146 0.127 1.825 0.152 1.174 0.187 2.743 0.072 3.173-0.062 0.232-0.089 0.258-0.271 0.261-0.559 0.012-0.707 0.070-1.424 0.561-0.314 0.215-0.32 0.226-0.32 0.537 0 0.519-0.244 1.72-0.398 1.955-0.155 0.237-0.488 0.447-0.768 0.484-0.204 0.027-0.189-0.025-0.308 1.076-0.043 0.395-0.314 1.28-0.555 1.809-0.154 0.339-0.176 0.439-0.119 0.547 0.039 0.072 0.070 0.17 0.070 0.217 0 0.171-1.599 1.709-2.16 2.078-0.214 0.141-0.471 0.324-0.57 0.406-0.201 0.166-1.538 0.826-2.368 1.168-0.571 0.236-1.268 0.401-1.944 0.463-0.368 0.033-3.588 0.073-3.617 0.045zM17.44 25.576c0.231-0.095 0.571-0.198 0.755-0.229s0.533-0.101 0.775-0.157c0.242-0.055 0.568-0.116 0.724-0.136s0.312-0.057 0.346-0.084c0.035-0.027 0.215-0.085 0.401-0.128 0.509-0.119 1.493-0.656 1.838-1.002 0.089-0.089 0.408-0.4 0.708-0.691s0.546-0.565 0.546-0.611c0-0.046 0.1-0.162 0.223-0.259 0.619-0.487 1.074-1.681 1.105-2.895 0.004-0.166 0.035-0.429 0.067-0.585 0.081-0.385 0.075-3.583-0.008-3.8-0.035-0.093-0.062-0.19-0.058-0.215 0.022-0.146-0.034-0.204-0.25-0.263-0.33-0.089-0.73-0.391-0.923-0.697-0.097-0.154-0.253-0.294-0.394-0.355-0.383-0.166-1.485-0.725-1.587-0.806-0.613-0.485-1.724-0.904-3.008-1.133-0.287-0.051-0.669-0.134-0.85-0.184s-0.568-0.122-0.863-0.16c-0.294-0.039-0.724-0.097-0.956-0.13-0.352-0.050-0.487-0.041-0.818 0.058-0.218 0.065-0.709 0.166-1.090 0.224-1.107 0.169-1.673 0.279-2.075 0.404-0.378 0.117-0.852 0.449-0.852 0.596 0 0.113-0.303 0.382-0.598 0.53-0.139 0.070-0.337 0.201-0.441 0.292s-0.332 0.246-0.507 0.346c-0.175 0.1-0.585 0.427-0.91 0.726s-0.727 0.633-0.893 0.741c-0.166 0.107-0.305 0.198-0.309 0.2s-0.032 0.614-0.062 1.358c-0.030 0.744-0.072 1.699-0.094 2.122l-0.039 0.769 0.195 0.318c0.107 0.175 0.195 0.331 0.195 0.347s0.087 0.17 0.192 0.342c0.106 0.172 0.206 0.392 0.224 0.489 0.065 0.368 0.545 1.025 1.32 1.807 0.431 0.435 0.872 0.836 0.98 0.892s0.403 0.262 0.657 0.457c0.996 0.77 1.142 0.868 1.665 1.122 0.97 0.471 1.61 0.582 3.239 0.562 0.939-0.012 1.035-0.024 1.428-0.185zM15.66 23.167l-0.151-0.162-0.001-2.087c-0.001-1.148-0.036-2.498-0.078-3-0.145-1.705-0.167-3.416-0.053-4.168 0.11-0.727 0.194-1.015 0.285-0.982 0.032 0.011 0.297 0.218 0.589 0.459l0.532 0.438-0.020 4c-0.013 2.556-0.044 4.079-0.086 4.218-0.036 0.12-0.085 0.442-0.108 0.715-0.040 0.481-0.047 0.499-0.236 0.575-0.411 0.166-0.513 0.165-0.673-0.006zM19.293 21.665c-0.134-0.048-0.267-0.11-0.295-0.139s-0.085-0.512-0.128-1.075c-0.060-0.795-0.061-1.301-0.004-2.266 0.040-0.683 0.073-1.674 0.073-2.202l-0.001-0.96h0.18c0.099 0 0.285-0.071 0.413-0.158s0.26-0.142 0.292-0.122c0.033 0.020 0.059 0.589 0.059 1.303 0 1.254 0.048 1.756 0.224 2.322 0.12 0.387 0.114 0.658-0.032 1.499-0.192 1.102-0.322 1.631-0.435 1.763-0.095 0.112-0.124 0.114-0.348 0.035zM11.28 21.318c-0.101-0.103-0.335-0.301-0.52-0.439-0.291-0.217-0.372-0.329-0.604-0.835-0.522-1.136-0.762-2.36-0.572-2.923 0.056-0.168 0.192-0.617 0.3-0.997 0.278-0.974 0.394-1.196 0.772-1.473 0.451-0.331 0.969-0.656 1.427-0.895l0.392-0.204 0.117 0.144c0.174 0.215 0.145 0.302-0.151 0.453-0.657 0.334-0.949 0.705-1.385 1.755-0.406 0.979-0.487 1.308-0.487 1.98 0 0.975 0.258 1.661 0.907 2.415 0.283 0.329 0.289 0.344 0.289 0.771 0 0.417-0.006 0.435-0.15 0.435-0.083 0-0.231-0.083-0.334-0.188zM22.435 19.88c-0.068-0.013-0.181-0.062-0.252-0.108-0.122-0.080-0.127-0.124-0.088-0.921 0.023-0.46 0.062-1.297 0.088-1.859 0.052-1.115 0.076-1.185 0.435-1.224 0.129-0.014 0.191 0.009 0.2 0.074 0.064 0.435 0.105 0.558 0.242 0.718 0.087 0.101 0.157 0.228 0.157 0.283-0.001 0.273-0.152 0.998-0.355 1.705-0.124 0.433-0.243 0.915-0.265 1.071-0.034 0.239-0.060 0.281-0.163 0.26zM29.466 7.088c0.332-0.088 0.446-0.294 0.466-0.837 0.016-0.426 0.005-0.466-0.216-0.789-0.292-0.428-0.758-0.673-1.159-0.609-0.722 0.116-0.895 0.348-0.899 1.212-0.003 0.663 0.099 0.878 0.476 1.006 0.268 0.091 1.018 0.1 1.332 0.017z"></path>
</svg>
