<!-- Generated by IcoMoon.io -->
<svg version="1.1" xmlns="http://www.w3.org/2000/svg" width="33" height="32" viewBox="0 0 33 32">
<title>ancient_evils</title>
<path d="M10.901 9.986c0.023 0.011 0.043 0.018 0.066 0.032 0.443 0.219 0.854 0.497 1.12 0.93 0.038 0.065 0.073 0.139 0.155 0.142 0.016-0.104-0.026-0.227-0.043-0.329-0.145-0.867-0.369-1.704-0.536-2.564-0.061-0.311-0.103-0.628-0.153-0.943-0.039-0.235-0.080-0.469-0.116-0.704-0.019-0.1-0.090-0.27 0-0.349-0.092 0.27-0.23 0.536-0.38 0.782-0.070 0.116-0.155 0.193-0.238 0.3-0.084 0.109-0.161 0.194-0.215 0.32-0.099 0.236-0.195 0.327-0.428 0.419-0.169 0.062-0.294 0.149-0.412 0.28-0.119 0.134-0.235 0.254-0.399 0.336-0.204 0.107-0.435 0.122-0.659 0.158-0.061 0.011-0.218-0.007-0.212 0.086 0.003 0.032 0.109 0.119 0.132 0.137 0.108 0.089 0.251 0.117 0.365 0.201 0.123 0.092 0.24 0.157 0.388 0.215 0.128 0.049 0.259 0.054 0.384 0.12 0.109 0.058 0.219 0.116 0.336 0.166 0.28 0.122 0.567 0.146 0.844 0.266z"></path>
<path d="M21.105 8.278c-0.078-0.032-0.124-0.080-0.195-0.142-0.127-0.108-0.289-0.124-0.415-0.224-0.069-0.055-0.114-0.146-0.172-0.215-0.073-0.089-0.162-0.166-0.235-0.257-0.119-0.146-0.207-0.315-0.324-0.463-0.137-0.174-0.245-0.377-0.281-0.593 0.037 0.113-0.009 0.278-0.039 0.386-0.103 0.368-0.228 0.754-0.403 1.094-0.037 0.073-0.078 0.138-0.128 0.201-0.084 0.104-0.169 0.189-0.215 0.318-0.073 0.204-0.093 0.427-0.158 0.635-0.066 0.209-0.149 0.415-0.254 0.608-0.108 0.197-0.176 0.417-0.261 0.627-0.028 0.073-0.19 0.254-0.162 0.328 0.159-0.025 0.269 0.124 0.443 0.099 0.116-0.014 0.205-0.082 0.315-0.112 0.108-0.029 0.224-0.018 0.33-0.057 0.151-0.055 0.322-0.084 0.443-0.185 0.082-0.065 0.154-0.137 0.216-0.219 0.080-0.102 0.14-0.226 0.23-0.313 0.063-0.061 0.126-0.073 0.201-0.108 0.070-0.036 0.122-0.095 0.188-0.134 0.147-0.089 0.316-0.189 0.474-0.251 0.207-0.078 0.35-0.188 0.527-0.321 0.159-0.12 0.339-0.334 0.522-0.403 0.096-0.036 0.232-0.043 0.336-0.054-0.122-0.032-0.193-0.113-0.328-0.108-0.063 0.001-0.128 0.040-0.196 0.029-0.078-0.014-0.134-0.079-0.203-0.111-0.070-0.032-0.138-0.018-0.205-0.038-0.020-0.004-0.035-0.014-0.051-0.018z"></path>
<path d="M20.728 17.020c-0.196-0.066-0.354-0.147-0.522-0.274-0.097-0.074-0.212-0.242-0.334-0.255 0.24-0.018 0.476-0.062 0.723-0.063 0.444-0.004 0.846 0.055 1.279 0.137 0.358 0.070 0.721 0.193 1.081 0.226 0.218 0.022 0.432 0.022 0.65 0.014 0.267-0.007 0.544-0.085 0.809-0.127 0.205-0.032 0.401-0.1 0.599-0.15 0.15-0.038 0.254-0.324 0.413-0.276-0.063 0.154-0.211 0.265-0.3 0.403-0.143 0.224-0.205 0.471-0.363 0.688-0.055 0.078-0.132 0.162-0.17 0.251-0.026 0.065-0.032 0.12-0.069 0.184-0.045 0.076-0.118 0.117-0.161 0.182-0.046 0.070-0.055 0.17-0.063 0.251-0.015 0.153-0.070 0.299-0.084 0.447-0.008 0.104 0.024 0.208 0.040 0.311 0.027 0.165 0.182 0.597-0.132 0.469-0.096-0.040-0.209-0.177-0.289-0.25-0.115-0.107-0.234-0.185-0.353-0.278-0.131-0.102-0.185-0.209-0.338-0.285-0.157-0.077-0.29-0.177-0.442-0.265-0.188-0.11-0.385-0.228-0.511-0.397-0.151-0.205-0.324-0.476-0.57-0.565-0.303-0.11-0.588-0.272-0.894-0.376z"></path>
<path d="M17.345 19.373c0.005 0.001 0.009 0.004 0.013 0.004 0.028 0.014 0.087 0.243 0.105 0.278 0.172 0.297 0.301 0.644 0.426 0.967 0.026 0.068 0.047 0.137 0.059 0.208 0.018 0.107 0.010 0.216 0.042 0.32 0.096 0.343 0.407 0.659 0.605 0.95 0.331 0.493 0.743 0.894 1.117 1.35 0.147 0.177 0.034 0.366-0.203 0.315-0.139-0.032-0.258-0.116-0.401-0.135-0.137-0.022-0.273 0.007-0.409-0.014-0.17-0.025-0.28-0.101-0.455-0.076-0.396 0.059-0.811 0.085-1.148 0.308-0.255 0.166-0.45 0.387-0.69 0.569-0.135 0.103-0.288 0.176-0.307 0.359-0.063-0.25 0.013-0.54 0.082-0.779 0.054-0.181 0.117-0.357 0.073-0.54-0.030-0.129-0.059-0.242-0.046-0.374 0.026-0.272 0.158-0.52 0.217-0.785 0.119-0.496 0.211-0.993 0.39-1.469 0.054-0.14 0.085-0.285 0.154-0.42 0.101-0.203 0.124-0.404 0.149-0.628 0.008-0.080 0.109-0.442 0.226-0.411z"></path>
<path d="M10.764 18.454c-0.304 0.349-0.597 0.674-0.994 0.909-0.181 0.107-0.3 0.255-0.424 0.422-0.069 0.093-0.162 0.171-0.223 0.272-0.038 0.063-0.057 0.203-0.136 0.227-0.046-0.096-0.024-0.281-0.027-0.388-0.006-0.235-0.054-0.658-0.32-0.743-0.104-0.032-0.195 0.003-0.289-0.068-0.049-0.038-0.067-0.103-0.117-0.138-0.058-0.042-0.132-0.040-0.192-0.080-0.074-0.050-0.12-0.133-0.176-0.201-0.135-0.165-0.24-0.29-0.413-0.424-0.080-0.059-0.29-0.187-0.296-0.297 0.122-0.065 0.263-0.022 0.394-0.022 0.126 0.001 0.239-0.025 0.361-0.045 0.322-0.054 0.617-0.167 0.94-0.224 0.28-0.050 0.543-0.16 0.823-0.211 0.224-0.041 0.432-0.086 0.639-0.185 0.176-0.085 0.363-0.22 0.569-0.196 0.816 0.092 0.096 1.143-0.117 1.39z"></path>
<path d="M21.433 13.919c-0.059-0.157-0.137-0.293-0.249-0.397-0.165-0.153-0.254-0.262-0.334-0.48-0.1-0.262-0.176-0.555-0.307-0.807-0.138-0.257-0.323-0.446-0.603-0.531-0.169-0.051-0.513 0.043-0.605 0.198-0.14 0.237-0.24 0.474-0.169 0.744 0.074 0.273 0.177 0.559 0.267 0.827 0.116 0.349 0.243 0.676 0.265 1.046 0.019 0.315 0.012 0.686-0.054 0.996-0.023 0.107-0.070 0.185-0.066 0.297 0.010 0.369-0.003 0.728-0.149 1.078-0.257 0.624-0.755 1.074-1.266 1.483-0.263 0.215-0.576 0.461-0.901 0.565-0.326 0.103-0.681 0.061-1.013 0.108-0.474 0.066-0.908 0.147-1.391 0.134-0.423-0.014-0.84-0.069-1.232-0.247-0.619-0.281-1.062-1.013-1.32-1.616-0.112-0.266-0.235-0.528-0.326-0.804-0.089-0.268-0.119-0.542-0.166-0.819-0.027-0.145-0.061-0.289-0.062-0.435-0.004-0.135 0.028-0.27 0.026-0.404-0.003-0.22-0.028-0.427-0.013-0.653 0.034-0.481 0.028-0.965 0.076-1.444 0.028-0.307 0.067-0.499 0.209-0.781 0.089-0.18 0.204-0.34 0.3-0.516 0.108-0.198 0.24-0.316 0.4-0.471-0.018-0.007-0.037-0.011-0.054-0.014 0.042-0.254 0.521-0.34 0.728-0.419 0.091-0.036 0.184-0.065 0.278-0.088 0.151-0.036 0.307-0.043 0.462-0.063 0.23-0.029 0.455-0.092 0.686-0.119 0.122-0.014 0.238-0.014 0.351 0.038 0.104 0.045 0.184 0.127 0.3 0.144 0.254 0.042 0.493-0.207 0.7-0.329 0.077-0.045 0.163-0.076 0.239-0.123 0.099-0.065 0.17-0.148 0.272-0.208 0.182-0.104 0.309-0.291 0.311-0.516 0-0.219-0.108-0.282-0.31-0.326-0.355-0.082-0.651 0.080-1.002 0.068-0.147-0.004-0.359-0.032-0.481-0.123-0.065-0.049-0.091-0.112-0.169-0.147-0.085-0.039-0.2-0.042-0.289-0.025-0.096 0.014-0.191 0.032-0.289 0.046-0.162 0.029-0.323 0.054-0.124 0.142-0.057-0.004-0.119 0.014-0.177 0.025-0.297 0.050-0.577 0.128-0.843 0.273-0.378 0.205-0.653 0.535-0.997 0.786-0.376 0.276-0.778 0.582-1.056 0.965-0.213 0.289-0.473 0.517-0.665 0.828-0.262 0.417-0.444 0.802-0.578 1.282-0.090 0.329-0.19 0.661-0.212 1.005-0.032 0.476 0.135 0.95 0.174 1.423 0.037 0.428 0.097 0.843 0.165 1.267 0.062 0.373 0.069 0.757 0.284 1.077 0.455 0.678 0.85 1.394 1.459 1.947 0.471 0.428 1.025 0.909 1.613 1.151 0.326 0.135 0.65 0.239 1.005 0.243 0.432 0.003 0.852-0.107 1.281-0.133 0.462-0.029 0.778-0.11 1.186-0.334 0.376-0.208 0.762-0.357 1.117-0.604 0.344-0.239 0.686-0.477 1.055-0.673 0.357-0.187 0.72-0.343 1.040-0.593 0.276-0.212 0.531-0.44 0.701-0.751 0.123-0.221 0.224-0.471 0.33-0.7 0.209-0.454 0.38-0.952 0.417-1.452 0.023-0.286 0.012-0.57-0.028-0.854-0.045-0.34-0.061-0.813-0.199-1.188z"></path>
<path d="M17.042 13.996c-0.103-0.107-0.32-0.331-0.462-0.382-0.185-0.068-0.374 0.092-0.565-0.014-0.072-0.042-0.149-0.092-0.209-0.143-0.111-0.089-0.151-0.143-0.301-0.11-0.082 0.018-0.122 0.059-0.196 0.085-0.088 0.029-0.142 0.055-0.205 0.138-0.013 0.018-0.020 0.036-0.027 0.050-0.008 0.032-0.009 0.025 0 0 0.006-0.022 0.018-0.069 0.032-0.154-0.159 0.032-0.219 0.305-0.265 0.428-0.142 0.386-0.347 0.854-0.273 1.277 0.053 0.3 0.162 0.434 0.432 0.551 0.109 0.049 0.216 0.090 0.299 0.182 0.073 0.080 0.112 0.155 0.22 0.195 0.255 0.097 0.576-0.001 0.842 0.003 0.267 0.007 0.454-0.047 0.655-0.237 0.12-0.113 0.213-0.315 0.282-0.463 0.123-0.262 0.090-0.562 0.004-0.832-0.061-0.188-0.127-0.431-0.263-0.574z"></path>
<path d="M19.789 25.4c0.016 0.124 0.016 0.22 0.005 0.349-0.010 0.138 0.016 0.312-0.028 0.448-0.038 0.124-0.119 0.238-0.166 0.365-0.070 0.192-0.142 0.3-0.282 0.444-0.122 0.126-0.224 0.261-0.396 0.323-0.119 0.044-0.257 0.047-0.381 0.066-0.251 0.043-0.576 0.151-0.827 0.107-0.172-0.029-0.353-0.134-0.517-0.197-0.192-0.074-0.382-0.399-0.476-0.571-0.069-0.133-0.085-0.274-0.111-0.419-0.020-0.097-0.045-0.196-0.072-0.293-0.038-0.143-0.091-0.291-0.081-0.442 0.016-0.303 0.243-0.566 0.461-0.754 0.116-0.094 0.253-0.158 0.362-0.255 0.142-0.122 0.236-0.273 0.401-0.371 0.222-0.134 0.416-0.142 0.655-0.059 0.109 0.038 0.213 0.080 0.327 0.099 0.153 0.025 0.32-0.022 0.466 0.018 0.2 0.059 0.316 0.285 0.44 0.434 0.165 0.2 0.185 0.462 0.219 0.711zM19.812 23.709c-0.299-0.315-0.888-0.646-1.364-0.759-0.299-0.072-0.646-0.112-0.962-0.072-0.099 0.014-0.219 0.022-0.327 0.043l0.108-0.058c-0.004 0-0.004 0.001-0.006 0.003-0.040 0.018-0.077 0.038-0.116 0.058-0.039 0.007-0.077 0.014-0.112 0.025-0.185 0.059-0.232 0.16-0.38 0.247l0.266-0.146c-0.317 0.203-0.581 0.463-0.799 0.747-0.64 0.831-0.721 1.993-0.619 2.907 0.045 0.392 0.116 0.693 0.494 0.942 0.442 0.289 1.004 0.447 1.486 0.686 0.431 0.212 0.87 0.16 1.379 0.166 0.489 0.007 0.715-0.050 1.024-0.409 1.165-1.348 1.066-3.175-0.073-4.381z"></path>
<path d="M7.844 20.266c-0.073 0.082-0.149 0.185-0.239 0.248-0.070 0.046-0.146 0.070-0.212 0.126-0.123 0.104-0.227 0.254-0.373 0.329-0.080 0.042-0.169 0.063-0.248 0.107-0.15 0.080-0.278 0.182-0.44 0.235-0.147 0.046-0.293 0.014-0.444 0.058-0.147 0.040-0.272 0.102-0.428 0.1-0.147-0.001-0.307-0.042-0.445-0.099-0.258-0.103-0.234-0.232-0.207-0.476 0.031-0.273 0.076-0.557 0.147-0.824 0.072-0.262 0.211-0.482 0.326-0.727 0.146-0.313 0.29-0.64 0.661-0.706 0.045-0.188 0.32-0.2 0.501-0.178 0.151 0.018 0.305 0.084 0.457 0.115 0.050 0.014 0.122 0.004 0.17 0.025 0.103 0.036 0.196 0.161 0.273 0.231 0.278 0.261 0.732 0.516 0.732 0.943 0.001 0.2-0.099 0.345-0.23 0.493zM8.456 17.852c-0.143 0.004-0.263 0.038-0.4-0.018-0.177-0.072-0.291-0.223-0.481-0.278-0.159-0.049-0.308-0.041-0.471-0.036-0.72 0.022-1.429 0.122-2.098 0.416-1.37 0.598-1.305 2.255-1.205 3.511 0.055 0.702 0.97 1.237 1.613 1.241 0.524 0.007 1.136 0 1.643-0.135 0.496-0.13 0.804-0.476 1.128-0.851 0.274-0.319 0.497-0.669 0.797-0.963 0.305-0.3 0.371-0.689 0.443-1.1 0.142-0.832-0.161-1.537-0.969-1.787z"></path>
<path d="M10.339 6.7c-0.001 0.221-0.085 0.338-0.201 0.517-0.159 0.248-0.347 0.334-0.63 0.382-0.2 0.036-0.411 0.092-0.612 0.051-0.081-0.014-0.154-0.049-0.232-0.072-0.103-0.032-0.254-0.022-0.347-0.080-0.072-0.045-0.11-0.139-0.172-0.193-0.066-0.058-0.145-0.072-0.203-0.138-0.085-0.1-0.089-0.327-0.109-0.453-0.031-0.208-0.009-0.392 0.061-0.59 0.119-0.333 0.351-0.55 0.55-0.827-0.15 0 0.14-0.131 0.239-0.144 0.091-0.014 0.178-0.036 0.269-0.036 0.177 0.004 0.285 0.093 0.427 0.183 0.338 0.211 0.489 0.55 0.765 0.827 0.178 0.178 0.2 0.32 0.196 0.571zM11.267 5.418c-0.085-0.063-0.192-0.090-0.285-0.138-0.155-0.081-0.3-0.184-0.434-0.293-0.243-0.2-0.449-0.33-0.746-0.427-0.258-0.084-0.404-0.177-0.676-0.169-0.416 0.014-0.815 0.036-1.225 0.119-0.947 0.19-1.371 0.881-1.231 1.832 0.065 0.439 0.085 1.017 0.267 1.421 0.195 0.432 0.7 0.831 1.144 0.957 0.205 0.058 0.419 0.068 0.624 0.134 0.172 0.055 0.308 0.17 0.473 0.237 0.311 0.12 0.679-0.039 0.946-0.207 0.254-0.161 0.422-0.397 0.645-0.593 0.251-0.22 0.416-0.289 0.476-0.6 0.013-0.088 0.039-0.171 0.070-0.258 0.039-0.113 0.081-0.224 0.109-0.339 0.049-0.185 0.013-0.359 0.030-0.543 0.016-0.13 0.057-0.226 0.037-0.361-0.043-0.299 0.049-0.567-0.224-0.771z"></path>
<path d="M23.389 6.081c0.031 0.268-0.124 0.528-0.249 0.755-0.28 0.511-0.786 0.793-1.362 0.835-0.378 0.029-1.084-0.029-1.166-0.497-0.034-0.204-0.078-0.411-0.103-0.619-0.013-0.118 0.001-0.23 0.023-0.346 0.020-0.115 0.013-0.281 0.065-0.388 0.046-0.094 0.14-0.186 0.199-0.277 0.066-0.103 0.146-0.174 0.238-0.254 0.035-0.036 0.092-0.101 0.153-0.139-0.155 0.045-0.158 0.032-0.158 0.022 0.051-0.025 0.124-0.007 0.166-0.038 0.065-0.049 0.024-0.135 0.062-0.2 0.049-0.079 0.157-0.089 0.232-0.123 0.212-0.092 0.422-0.126 0.657-0.097 0.432 0.050 0.673 0.403 0.959 0.688 0.2 0.201 0.253 0.401 0.284 0.678zM24.249 5.476c-0.145-0.154-0.242-0.344-0.365-0.511-0.193-0.268-0.426-0.497-0.697-0.689-0.096-0.070-0.196-0.142-0.301-0.207-0.126-0.081-0.259-0.154-0.395-0.203-0.181-0.069-0.408 0.014-0.599 0.048-0.107 0.018-0.215 0.036-0.323 0.054-0.116 0.018-0.12 0.038-0.201 0.1-0.105 0.077-0.216 0.085-0.289 0.204-0.059 0.096-0.066 0.184-0.182 0.219-0.095 0.029-0.18 0.011-0.273 0.059-0.122 0.063-0.234 0.162-0.343 0.247-0.322 0.246-0.515 0.616-0.669 0.988-0.265 0.652-0.347 1.412-0.124 2.095 0.114 0.347 0.363 0.563 0.594 0.831 0.3 0.349 0.445 0.471 0.931 0.451 0.789-0.032 1.574-0.036 2.341-0.246 0.151-0.042 0.231-0.147 0.305-0.282 0.143-0.253 0.228-0.543 0.303-0.825 0.095-0.351 0.326-0.638 0.449-0.982 0.093-0.262 0.081-0.43 0.037-0.697-0.043-0.235-0.028-0.476-0.199-0.654z"></path>
<path d="M27.672 18.742c-0.132 0.278-0.312 0.646-0.589 0.815-0.199 0.124-0.455 0.176-0.681 0.213-0.218 0.039-0.343 0.004-0.542-0.082-0.258-0.11-0.536-0.119-0.792-0.238-0.061-0.029-0.162-0.061-0.208-0.115-0.078-0.093-0.073-0.339-0.090-0.45-0.034-0.192-0.051-0.328 0.027-0.519 0.101-0.251 0.19-0.562 0.358-0.774 0.082-0.103 0.154-0.119 0.263-0.19-0.035-0.102 0.070-0.192 0.266-0.176 0.108 0.011 0.201-0.022 0.304-0.022 0.076 0.004 0.142 0.025 0.217 0.014 0.077-0.007 0.149-0.039 0.226-0.039 0.15 0.007 0.35 0.055 0.498 0.099 0.177 0.049 0.312 0.143 0.44 0.272 0.135 0.134 0.247 0.304 0.338 0.473 0.131 0.243 0.077 0.477-0.037 0.716zM28.131 16.852c-0.389-0.569-1.124-0.893-1.794-0.861-0.323 0.014-0.659-0.007-0.975 0.081-0.276 0.079-0.462 0.259-0.694 0.422-0.219 0.155-0.397 0.224-0.538 0.467-0.107 0.185-0.234 0.357-0.358 0.529-0.23 0.316-0.39 0.709-0.189 1.093-0.013 0.616 0.215 1.274 0.6 1.718 0.694 0.805 1.787 0.894 2.762 0.711 0.823-0.155 1.682-0.686 1.802-1.563 0.12-0.881-0.112-1.858-0.615-2.598z"></path>
<path d="M10.175 5.68c0.014 0.077 0.030 0.149 0.047 0.209 0.049 0.169 0.185 0.14 0.331 0.134 0.274-0.014 0.555-0.018 0.82-0.099 0.304-0.091 0.589-0.243 0.881-0.368 0.395-0.165 0.793-0.225 1.21-0.299 0.034-0.007 0.069-0.014 0.1-0.018 0.313-0.063 0.616-0.161 0.93-0.223 0.274-0.054 0.605-0.103 0.884-0.092 0.261 0.014 0.524 0.077 0.781 0.109 0.247 0.032 0.488 0.018 0.732 0.045 0.25 0.029 0.5 0.096 0.743 0.158 0.254 0.068 0.497 0.167 0.736 0.277 0.222 0.102 0.461 0.254 0.702 0.297 0.165 0.029 0.307-0.014 0.411 0.144 0.046 0.069 0.065 0.156 0.132 0.208 0.062 0.045 0.154 0.092 0.222 0.134 0.155 0.093 0.153 0.001 0.2-0.126 0.046-0.119 0.159-0.308 0.239-0.401 0.111-0.126 0.271-0.316 0.408-0.411 0.020-0.014 0.13-0.046 0.138-0.066 0.022-0.051-0.045-0.155-0.074-0.192-0.037-0.041-0.077-0.050-0.123-0.088-0.119-0.099-0.108-0.285-0.227-0.373-0.069-0.051-0.142-0.025-0.207-0.076-0.066-0.053-0.057-0.126-0.095-0.19-0.034-0.058-0.065-0.065-0.135-0.103-0.178-0.097-0.359-0.187-0.543-0.27-0.608-0.276-1.319-0.324-1.978-0.382-0.712-0.065-1.433-0.066-2.148-0.11-0.342-0.022-0.682-0.004-1.025-0.001-0.353 0.003-0.709-0.022-1.061 0.025-0.324 0.043-0.647 0.124-0.959 0.215-0.345 0.1-0.72 0.197-1.040 0.363-0.257 0.134-0.65 0.339-0.854 0.581-0.065 0.077-0.153 0.188-0.165 0.293-0.008 0.065 0.022 0.127 0.015 0.193-0.005 0.069-0.045 0.135-0.050 0.205-0.004 0.084 0.005 0.19 0.022 0.293z"></path>
<path d="M5.807 18.344c0.135-0.014 0.269-0.018 0.403-0.042 0.168-0.029 0.326-0.029 0.497 0.004 0.11 0.022 0.258 0.119 0.365 0.050-0.037-0.062-0.126-0.097-0.182-0.166-0.072-0.085-0.104-0.19-0.163-0.282-0.154-0.23-0.324-0.455-0.438-0.709-0.135-0.297-0.269-0.63-0.462-0.89-0.154-0.208-0.242-0.459-0.238-0.72 0.010-0.49-0.234-0.942-0.18-1.435 0.035-0.334 0.165-0.646 0.268-0.96 0.126-0.393 0.245-0.789 0.346-1.19 0.063-0.251 0.1-0.485 0.199-0.727 0.136-0.339 0.239-0.708 0.411-1.032 0.097-0.186 0.215-0.362 0.313-0.548 0.099-0.19 0.142-0.4 0.261-0.58 0.138-0.201 0.203-0.443 0.334-0.648 0.030-0.051 0.090-0.17 0.136-0.166-0.045-0.124 0.072-0.2 0.109-0.308 0.035-0.099 0.024-0.23 0.050-0.332 0.037-0.147 0.030-0.354-0.045-0.504-0.078-0.166-0.28-0.182-0.446-0.148-0.133 0.025-0.213 0.089-0.301 0.192-0.086 0.106-0.169 0.239-0.22 0.368-0.022 0.059-0.022 0.119-0.038 0.182-0.047 0.162-0.165 0.328-0.242 0.481-0.077 0.149-0.154 0.296-0.236 0.44-0.139 0.245-0.303 0.489-0.376 0.765-0.023 0.095-0.039 0.194-0.077 0.285-0.063 0.138-0.172 0.245-0.247 0.376-0.078 0.144-0.128 0.301-0.203 0.449-0.227 0.442-0.447 0.919-0.721 1.335-0.394 0.6-0.507 1.379-0.435 2.085 0.068 0.678 0.026 1.356 0.045 2.039 0.001 0.065 0.005 0.13 0.006 0.193 0.013 0.538 0.162 1.055 0.18 1.593 0.009 0.234 0.058 0.458 0.084 0.686 0.012 0.117-0.004 0.432 0.124 0.496 0.092 0.046 0.17-0.057 0.223-0.1 0.090-0.077 0.162-0.139 0.267-0.207 0.173-0.11 0.249-0.246 0.44-0.29 0.063-0.014 0.126-0.025 0.189-0.032z"></path>
<path d="M22.786 8.508c-0.005-0.025-0.006-0.049-0.013-0.077 0.006 0.153 0.072 0.22 0.188 0.304 0.138 0.097 0.29 0.149 0.423 0.255 0.196 0.154 0.34 0.366 0.478 0.574 0.212 0.316 0.366 0.666 0.544 1.003 0.207 0.39 0.386 0.808 0.529 1.228 0.213 0.623 0.295 1.282 0.401 1.928 0.072 0.428 0.134 0.836 0.15 1.267 0.015 0.328-0.022 0.663-0.054 0.989-0.020 0.208 0.032 0.403 0.286 0.373 0.266-0.036 0.531-0.063 0.799-0.081 0.228-0.014 0.423 0.082 0.607 0.203 0.112 0.074 0.396 0.201 0.538 0.162 0-0.111-0.034-0.221-0.051-0.329-0.058-0.339-0.112-0.681-0.18-1.020-0.14-0.688-0.27-1.373-0.385-2.066-0.076-0.458-0.119-0.946-0.236-1.396-0.138-0.531-0.536-0.962-0.806-1.424-0.219-0.377-0.45-0.731-0.682-1.096-0.224-0.346-0.346-0.736-0.603-1.065-0.222-0.29-0.481-0.559-0.716-0.84-0.062-0.072-0.108-0.153-0.197-0.192-0.070-0.032-0.153-0.022-0.226-0.047 0.051-0.014 0.104-0.004 0.149 0.032-0.054-0.050-0.111 0.146-0.187 0.135-0.1-0.018-0.238 0.051-0.308 0.109-0.235 0.194-0.482 0.539-0.493 0.859-0.014 0.004 0.059 0.207 0.046 0.212z"></path>
<path d="M24.862 20.076c-0.103 0.14-0.174 0.272-0.248 0.423-0.143 0.301-0.334 0.588-0.493 0.882-0.161 0.297-0.326 0.589-0.477 0.892-0.169 0.331-0.373 0.635-0.59 0.932-0.066 0.093-0.11 0.198-0.203 0.269-0.082 0.066-0.187 0.099-0.273 0.173-0.097 0.084-0.207 0.151-0.303 0.234-0.184 0.153-0.416 0.374-0.651 0.446-0.151 0.047-0.346 0.050-0.501 0.077-0.143 0.025-0.303 0.074-0.446 0.080-0.168 0.004-0.382-0.058-0.543-0.092-0.103-0.022-0.196-0.055-0.285-0.11-0.037-0.022-0.089-0.029-0.12-0.065-0.053-0.062-0.034-0.122-0.099-0.178-0.043 0.115 0.045 0.157 0.095 0.238 0.092 0.145 0.153 0.367 0.212 0.531 0.177 0.49 0.289 1.001 0.373 1.513 0.018 0.104 0.016 0.251 0.066 0.344 0.184 0.036 0.39-0.193 0.521-0.268 0.331-0.187 0.705-0.296 1.058-0.438 0.381-0.151 0.915-0.209 1.208-0.515 0.185-0.192 0.328-0.419 0.52-0.608 0.111-0.115 0.231-0.216 0.33-0.345 0.33-0.43 0.666-0.848 1.008-1.267 0.163-0.204 0.33-0.397 0.442-0.638 0.073-0.158 0.111-0.365 0.209-0.511 0.045-0.068 0.122-0.107 0.17-0.17 0.061-0.081 0.078-0.205 0.119-0.299 0.054-0.117 0.111-0.208 0.189-0.303 0.127-0.154 0.19-0.388 0.19-0.577 0-0.070 0.038-0.18 0.018-0.245-0.035-0.11-0.097-0.053-0.195-0.042-0.328 0.038-0.636-0.122-0.916-0.272-0.219-0.116-0.361-0.326-0.624-0.328-0.005-0.014-0.012-0.029 0.239 0.234z"></path>
<path d="M7.653 22.71c0.043 0.032 0.085 0.070 0.128 0.107 0.276 0.25 0.517 0.546 0.799 0.789 0.107 0.093 0.231 0.165 0.338 0.262 0.082 0.076 0.142 0.231 0.236 0.282 0.085 0.044 0.187-0.014 0.278-0.003 0.113 0.014 0.184 0.074 0.28 0.137 0.322 0.211 0.648 0.409 0.981 0.596 0.355 0.2 0.736 0.335 1.094 0.531 0.25 0.135 0.455 0.301 0.739 0.363 0.419 0.093 0.863 0.215 1.293 0.17 0.277-0.029 0.557-0.126 0.836-0.061 0.374 0.086 0.569 0.365 0.796 0.64 0.266 0.32 0.624 0.137 0.651-0.247 0.022-0.312-0.028-0.663 0.065-0.967 0.051-0.162 0.154-0.312 0.19-0.482 0.035-0.155 0.032-0.326 0.059-0.481 0.031-0.213-0.012-0.512 0.103-0.7-0.137 0.134-0.189 0.209-0.277 0.371-0.203 0.37-0.82 0.361-1.184 0.381-0.658 0.036-1.335-0.029-1.985-0.097-0.205-0.022-0.401-0.073-0.601-0.113-0.163-0.032-0.332-0.014-0.493-0.047-0.136-0.025-0.232-0.122-0.35-0.187-0.103-0.057-0.207-0.092-0.32-0.124-0.29-0.082-0.451-0.218-0.697-0.388-0.342-0.235-0.671-0.434-0.971-0.727-0.212-0.208-0.432-0.388-0.681-0.553-0.251-0.163-0.526-0.342-0.715-0.578-0.105-0.135-0.153-0.257-0.2-0.413-0.040-0.13-0.099-0.165-0.249-0.169-0.212-0.003-0.276 0.23-0.416 0.377-0.145 0.154-0.295 0.282-0.42 0.458-0.053 0.073-0.070 0.154-0.165 0.174 0.047 0.116 0.21 0.208 0.299 0.288 0.177 0.154 0.374 0.269 0.558 0.411z"></path>
</svg>
