<!-- Generated by IcoMoon.io -->
<svg version="1.1" xmlns="http://www.w3.org/2000/svg" width="32" height="32" viewBox="0 0 32 32">
<title>anettes_coven</title>
<path d="M24.904 25.475c0.006 0.267-0.125 0.456-0.281 0.665-0.086 0.115-0.153 0.227-0.269 0.317-0.11 0.086-0.243 0.146-0.364 0.213-0.301 0.162-0.627 0.18-0.962 0.205-0.66 0.053-1.311 0.008-1.95-0.163-0.503-0.133-1.005-0.269-1.503-0.421-0.193-0.059-0.394-0.121-0.571-0.222-0.157-0.091-0.269-0.227-0.42-0.323-0.403-0.257-0.77-0.566-1.18-0.816-0.21-0.127-0.459-0.162-0.669-0.293-0.023-0.014-0.047-0.033-0.069-0.051 0.048-0.323 0.089-0.644 0.13-0.724 0.107-0.21 0.237-0.36 0.388-0.538 0.133-0.157 0.23-0.32 0.384-0.464 0.193-0.177 0.406-0.311 0.631-0.424 0.091-0.092 0.192-0.166 0.319-0.216 0.216-0.086 0.473-0.199 0.701-0.249 0.29-0.062 0.586-0.051 0.881-0.051 0.231 0 0.474-0.030 0.698 0.039 0.236 0.074 0.47 0.16 0.713 0.209 0.115 0.024 0.23 0.036 0.343 0.073 0.184 0.057 0.353 0.156 0.527 0.237 0.387 0.18 0.76 0.405 1.118 0.637 0.305 0.198 0.58 0.427 0.81 0.713 0.209 0.258 0.414 0.503 0.545 0.813 0.107 0.249 0.045 0.571 0.051 0.835zM13.654 25.945c-0.559 0.332-1.144 0.628-1.74 0.887-0.287 0.125-0.557 0.276-0.84 0.405-0.206 0.092-0.412 0.133-0.637 0.13-0.468-0.007-1.011-0.042-1.462-0.186-0.511-0.162-1-0.491-1.397-0.844-0.201-0.18-0.267-0.414-0.352-0.663-0.062-0.178-0.095-0.331-0.071-0.521 0.032-0.245 0.15-0.455 0.248-0.677 0.092-0.205 0.162-0.421 0.278-0.616 0.343-0.578 0.813-1.085 1.506-1.201 0.293-0.048 0.639 0.014 0.932 0.048 0.21 0.024 0.415 0.068 0.628 0.088 0.326 0.030 0.651 0.069 0.977 0.106 0.417 0.045 0.844 0.125 1.242 0.258 0.245 0.080 0.495 0.139 0.736 0.237 0.213 0.089 0.411 0.465 0.624 0.553 0.287 0.118 0.578 0.686 0.867 1.171-0.020 0.014-0.039 0.029-0.059 0.039-0.49 0.269-0.999 0.5-1.479 0.787zM27.572 24.692c-0.029-0.254-0.122-0.497-0.186-0.745-0.068-0.264-0.133-0.508-0.287-0.739-0.159-0.236-0.346-0.458-0.515-0.687-0.204-0.281-0.479-0.473-0.748-0.686-0.471-0.373-0.996-0.733-1.536-0.997-0.284-0.139-0.55-0.307-0.84-0.432-0.296-0.125-0.612-0.202-0.917-0.304-0.551-0.184-1.144-0.171-1.719-0.171-0.482 0-1.062-0.088-1.515 0.109-0.207 0.089-0.397 0.213-0.606 0.304-0.199 0.088-0.409 0.153-0.607 0.242-0.243 0.109-0.48 0.237-0.737 0.314-0.245 0.074-0.488 0.124-0.73 0.213-0.134 0.051-0.276 0.103-0.419 0.16-0.014-0.236-0.027-0.471-0.044-0.707-0.044-0.665-0.039-1.322-0.125-1.984-0.057-0.447-0.141-0.89-0.201-1.337-0.050-0.366-0.056-0.734-0.091-1.101-0.024-0.266-0.059-0.53-0.095-0.796 0.080-0.062 0.153-0.133 0.216-0.214 0.491-0.007 0.98 0.002 1.474-0.057 0.373-0.045 0.752-0.026 1.129-0.023 0.305 0.001 0.592-0.036 0.894-0.079 0.255-0.035 0.511-0.092 0.769-0.1 0.202-0.005 0.406 0.002 0.609 0.002 0.34-0.002 0.671 0.076 1.008 0.089 0.307 0.012 0.615-0.015 0.922-0.003 0.278 0.011 0.222 0.233 0.273 0.461 0.064 0.281 0.097 0.538 0.341 0.733 0.209 0.166 0.515 0.136 0.713-0.026 0.128-0.104 0.080-0.254 0.080-0.411-0.001-0.193-0.020-0.393 0.005-0.583 0.033-0.248 0.137-0.48 0.16-0.73 0.023-0.263-0.005-0.526 0.007-0.787 0.012-0.255 0.125-0.494 0.124-0.749 0-0.163-0.048-0.351-0.133-0.494-0.101-0.168-0.317-0.266-0.509-0.266-0.183 0-0.334 0.199-0.385 0.367-0.041 0.134-0.030 0.278-0.095 0.411-0.086 0.177-0.219 0.382-0.393 0.477-0.157 0.086-0.323 0.086-0.498 0.089-0.21 0.003-0.426 0.005-0.634-0.001-0.287-0.010-0.571-0.050-0.86-0.047-0.266 0.002-0.524-0.011-0.789-0.032-0.202-0.017-0.405 0-0.606-0.014-0.234-0.014-0.462-0.077-0.698-0.085-0.183-0.005-0.366 0.010-0.55-0.001-0.684-0.041-1.349-0.192-2.041-0.168-0.216 0.005-0.607-0.128-0.952-0.216 0.035-0.050 0.063-0.103 0.082-0.163 0.032-0.098 0.044-0.204 0.047-0.307 0.021-0.672-0.085-1.338-0.097-2.009-0.005-0.341 0.012-0.681-0.005-1.021-0.008-0.141-0.018-0.281-0.029-0.421 0.059-0.054 0.113-0.115 0.159-0.183 0.060 0 0.122 0 0.184 0 0.284 0 0.547 0.011 0.828 0.054 0.142 0.021 0.283 0.042 0.423 0.074 0.122 0.029 0.237 0.088 0.364 0.091 0.136 0.002 0.24 0.053 0.375 0.076 0.234 0.038 0.558 0.045 0.774-0.056 0.141-0.066 0.293-0.134 0.446-0.169 0.116-0.029 0.242-0.041 0.361-0.059 0.083-0.014 0.323-0.053 0.397-0.002 0.098 0.063 0.050 0.287 0.021 0.379-0.035 0.113-0.097 0.227-0.057 0.351 0.032 0.1 0.143 0.248 0.23 0.302 0.184 0.118 0.548 0.27 0.746 0.107 0.118-0.1 0.1-0.305 0.103-0.441 0.004-0.227 0.012-0.464 0.003-0.69-0.011-0.231-0.115-0.443-0.137-0.672-0.023-0.239-0.079-0.467-0.128-0.701-0.095-0.44-0.16-0.906-0.172-1.355-0.003-0.134 0.007-0.325-0.051-0.449-0.039-0.088-0.068-0.077-0.159-0.079-0.228-0.005-0.506 0.007-0.631 0.222-0.051 0.088-0.127 0.162-0.177 0.249-0.071 0.128-0.060 0.317-0.064 0.456 0 0.066-0.004 0.136 0 0.204 0.003 0.057 0.038 0.128 0.039 0.181 0.001 0.085-0.035 0.131-0.103 0.181-0.207 0.15-0.582 0.142-0.823 0.172-0.207 0.027-0.396 0.011-0.603-0.014-0.218-0.026-0.437-0.001-0.654-0.005-0.211-0.004-0.408-0.069-0.616-0.088-0.136-0.012-0.273-0.002-0.409-0.002-0.23 0.001-0.455 0.007-0.678 0.023-0.011-0.010-0.021-0.018-0.032-0.026 0-0.112 0.001-0.224-0.003-0.335-0.011-0.357-0.045-0.707-0.045-1.064 0-0.159 0.001-0.281 0.033-0.431 0.018-0.079 0-0.154 0.020-0.233 0.014-0.054 0.032-0.083 0.035-0.141 0.011-0.225 0-0.455-0.001-0.681 0-0.128-0.005-0.16 0.092-0.249 0.34-0.31 0.808-0.497 1.020-0.92 0.057-0.116 0.163-0.23 0.213-0.344 0.017-0.039 0.029-0.086 0.021-0.13-0.026-0.141-0.193-0.225-0.314-0.264-0.201-0.065-0.364-0.041-0.565-0.007-0.128 0.021-0.254 0.001-0.384 0.006-0.125 0.004-0.16 0.036-0.264 0.079-0.209 0.086-0.428 0.134-0.631 0.23-0.142 0.068-0.275 0.041-0.428 0.011-0.204-0.041-0.428-0.11-0.618-0.195-0.287-0.127-0.561-0.367-0.876-0.418-0.248-0.041-0.424-0.011-0.603 0.159-0.094 0.089-0.202 0.127-0.249 0.257-0.071 0.19-0.094 0.588 0.014 0.772 0.163 0.278 0.431 0.254 0.687 0.367 0.526 0.234 0.964 0.905 1.063 1.461 0.027 0.154 0.036 0.307 0.079 0.459 0.062 0.221 0.153 0.433 0.196 0.66 0.050 0.264 0.068 0.536 0.076 0.808-0.201 0.098-0.364 0.255-0.47 0.452-0.251 0.021-0.5 0.047-0.751 0.088-0.248 0.038-0.497 0.053-0.746 0.085-0.231 0.032-0.471 0.015-0.701 0.053-0.133 0.021-0.32 0.089-0.426-0.018-0.086-0.088-0.143-0.141-0.249-0.205-0.137-0.086-0.174-0.221-0.227-0.37-0.036-0.103-0.074-0.201-0.097-0.307-0.033-0.154-0.041-0.329-0.154-0.452-0.085-0.094-0.222-0.168-0.323-0.246-0.092-0.073-0.165-0.13-0.281-0.141-0.039-0.004-0.115-0.010-0.15-0.001-0.095 0.021-0.079 0.077-0.097 0.163-0.044 0.207-0.101 0.426-0.074 0.639 0.017 0.13 0.083 0.243 0.088 0.376 0.007 0.172-0.011 0.346-0.005 0.518 0.004 0.199 0.094 0.36 0.125 0.551 0.030 0.184 0.039 0.385 0.048 0.572 0.012 0.234 0.131 0.418 0.171 0.645 0.020 0.113-0.010 0.228 0.001 0.34 0.012 0.113 0.086 0.205 0.151 0.301 0.048 0.069 0.163 0.267 0.252 0.298 0.225 0.076 0.467-0.363 0.5-0.523 0.033-0.159 0.044-0.326 0.048-0.488 0.005-0.146 0.014-0.199 0.131-0.281 0.313-0.219 0.645-0.215 1.012-0.216 0.299-0.001 0.589 0.001 0.884 0.064 0.246 0.051 0.489 0.127 0.739 0.174 0.142 0.026 0.284 0.023 0.428 0.023 0.063 0.047 0.131 0.089 0.206 0.122 0.004 0.048 0.005 0.097 0.012 0.145 0.091 0.74 0.088 1.479 0.088 2.222 0 0.514 0.018 1.032 0.001 1.547-0.119 0.053-0.227 0.125-0.322 0.211-0.066 0.007-0.134 0.015-0.201 0.027-0.068 0.014-0.136 0.027-0.202 0.045-0.221 0.057-0.437 0.035-0.66 0.039-0.24 0.002-0.473 0.047-0.716 0.045-0.577-0.002-1.162 0.026-1.739 0.001-0.266-0.011-0.527-0.048-0.796-0.047-0.263 0.002-0.485-0.005-0.742-0.057-0.189-0.038-0.376-0.074-0.563-0.113-0.159-0.033-0.334-0.056-0.411-0.218-0.183-0.382 0.003-1.086-0.437-1.317-0.204-0.109-0.493 0.047-0.642 0.174-0.243 0.202-0.201 0.423-0.255 0.71-0.053 0.276-0.092 0.532-0.089 0.816 0.003 0.328 0 0.657 0 0.985 0.001 0.598-0.042 1.193-0.042 1.793 0 0.174-0.021 0.36 0 0.532 0.018 0.143 0.094 0.245 0.19 0.346 0.13 0.137 0.281 0.311 0.479 0.322 0.134 0.007 0.272-0.054 0.387-0.121 0.134-0.077 0.363-0.198 0.409-0.367 0.042-0.154 0.003-0.367 0.003-0.521 0-0.248-0.065-0.58 0.086-0.795 0.035-0.050 0.086-0.094 0.118-0.143 0.041-0.064 0.048-0.143 0.118-0.187 0.079-0.050 0.225-0.021 0.316-0.021 0.089 0 0.178-0.001 0.267 0 0.119 0.001 0.228-0.012 0.346-0.033 0.156-0.030 0.323-0.011 0.482-0.011 0.489 0 0.979 0.001 1.468 0 0.547 0 1.089 0.044 1.636 0.044 0.369-0.001 0.733-0.005 1.098-0.021 0.103 0.113 0.228 0.209 0.367 0.278-0.007 0.634-0.091 1.26-0.118 1.894-0.014 0.326-0.017 0.645-0.053 0.97-0.032 0.301-0.045 0.592-0.044 0.896 0.003 0.5-0.003 1.002-0.001 1.503-0.097-0.042-0.196-0.080-0.301-0.11-0.699-0.201-1.391-0.455-2.107-0.594-0.554-0.107-1.115-0.155-1.68-0.153-0.222 0.001-0.446 0.001-0.669 0-0.278-0.002-0.532 0.041-0.807 0.076-0.293 0.036-0.57 0.098-0.86 0.155-0.343 0.068-0.686 0.125-1.011 0.263-0.565 0.239-0.986 0.65-1.305 1.169-0.133 0.219-0.214 0.456-0.288 0.701-0.071 0.24-0.077 0.48-0.122 0.725-0.085 0.447-0.239 0.872-0.286 1.326-0.027 0.266-0.018 0.532-0.020 0.797-0.003 0.314 0.003 0.577 0.109 0.879 0.218 0.621 0.391 1.273 0.721 1.848 0.23 0.4 0.532 0.725 0.876 1.026 0.219 0.19 0.458 0.338 0.703 0.494 0.139 0.089 0.272 0.184 0.428 0.251 0.165 0.069 0.338 0.118 0.506 0.181 0.248 0.095 0.471 0.172 0.737 0.196 0.255 0.023 0.512 0.029 0.767 0.010 0.283-0.021 0.559-0.069 0.831-0.142 0.344-0.091 0.675-0.125 1.026-0.18 0.592-0.091 1.18-0.252 1.727-0.498 0.258-0.118 0.506-0.243 0.774-0.34 0.249-0.089 0.48-0.186 0.708-0.322 0.346-0.204 0.576-0.447 0.801-0.779 0.094-0.139 0.187-0.284 0.308-0.4 0.074-0.073 0.255-0.236 0.375-0.186 0.11 0.045 0.151 0.249 0.225 0.344 0.089 0.116 0.292 0.213 0.414 0.299 0.234 0.162 0.512 0.284 0.774 0.399 0.314 0.139 0.65 0.225 0.973 0.346 0.278 0.104 0.547 0.199 0.838 0.26 0.601 0.127 1.21 0.227 1.819 0.322 0.56 0.089 1.109 0.195 1.678 0.23 0.68 0.041 1.367 0.051 2.048 0.051 0.285 0 0.595 0.036 0.879-0.011 0.29-0.048 0.536-0.207 0.76-0.391 0.218-0.18 0.403-0.391 0.591-0.603 0.195-0.222 0.405-0.438 0.583-0.674 0.175-0.233 0.275-0.483 0.348-0.764 0.056-0.224 0.141-0.455 0.162-0.686 0.047-0.524-0.029-1.048-0.088-1.568z"></path>
</svg>
