<!-- Generated by IcoMoon.io -->
<svg version="1.1" xmlns="http://www.w3.org/2000/svg" width="32" height="32" viewBox="0 0 32 32">
<title>arcane</title>
<path d="M16.645 0c-0.008 0-0.026-0.004-0.108 0.005s-0.295 0.044-0.486 0.234c-0.048 0.048-0.028 0.074-0.058 0.122-0.040 0.033-0.096 0.025-0.128 0.064l-0.394-0.394h-0.331c-0.352 0-0.689-0.003-1.027 0.039-0.256 0.032-0.546 0.066-0.863 0.145-0.482 0.069-0.909 0.163-1.298 0.253-0.463 0.107-0.874 0.244-1.258 0.372l-0.002 0.002h-0.003c-1.477 0.503-2.793 1.178-3.97 1.986-1.189 0.815-2.259 1.822-3.252 2.947l-0.041 0.047-0.034 0.053c-0.212 0.333-0.428 0.643-0.652 0.963s-0.46 0.653-0.672 1.006l-0.016 0.027-0.014 0.028c-0.325 0.65-0.619 1.272-0.855 1.845l0.173-0.261c-0.409 0.409-0.267 0.662-0.267 0.694s0.037-0.198 0.053-0.23l-0.084 0.169v0.189c0 0.058 0.011 0.273 0.106 0.5 0.022 0.065 0.081 0.152 0.145 0.244-0.177 0.047-0.383 0.111-0.466 0.194l-0.234 0.234v0.2c-0.003 0.008-0.016 0.019-0.019 0.027-0.072 0.214-0.045 0.281-0.045 0.297l0.025-0.194c-0.009 0.037-0.073 0.196-0.128 0.416-0.047 0.189-0.072 0.337-0.111 0.453l-0.020 0.059-0.011 0.063c-0.064 0.384-0.127 0.768-0.191 1.152l-0.006 0.033-0.003 0.033c-0.031 0.373-0.062 0.773-0.064 1.214-0.031 0.398-0.078 0.787 0.014 1.248 0.050 0.25 0.082 0.612 0.114 1.025l0.003 0.034 0.006 0.036c0.1 0.6 0.23 1.217 0.358 1.825 0.138 0.655 0.336 1.313 0.528 1.953l0.012 0.044 0.019 0.041c0.199 0.465 0.43 0.959 0.692 1.483 0.254 0.509 0.516 0.96 0.8 1.408 0.189 0.377 0.394 0.683 0.573 0.983 0.224 0.374 0.481 0.703 0.759 1.016l0.016 0.017 0.017 0.017c0.192 0.192 0.371 0.373 0.597 0.561 0.158 0.132 0.299 0.27 0.491 0.462 0.175 0.175 0.356 0.318 0.502 0.427l0.033 0.025 0.036 0.022c0.187 0.112 0.368 0.202 0.563 0.28l0.022 0.009 0.022 0.008c0.163 0.054 0.391 0.057 0.588 0.003-0.003 0.030-0.030 0.038-0.030 0.069 0 0.299 0.155 0.536 0.281 0.663l0.191 0.191 0.075 0.047c1.745 1.108 3.674 1.886 5.795 2.256l0.012 0.003 0.011 0.002c0.129 0.018 0.337 0.071 0.539 0.125l0.203 0.203h3.659c0.283 0 0.472-0.117 0.609-0.255 0.001-0.001 0.002-0.005 0.003-0.006 0.233-0.005 0.414-0.045 0.544-0.072 0.665-0.101 1.219-0.238 1.712-0.413 0.715-0.197 1.387-0.428 2.009-0.738 0.631-0.281 1.279-0.657 1.895-1.102l0.052-0.038 0.045-0.045c0.096-0.096 0.142-0.106 0.016-0.042l0.116-0.058 0.092-0.092c0.101-0.101 0.214-0.347 0.236-0.566h0.159c0.096 0.048 0.192 0.122 0.456 0.069 0.342-0.068 0.547-0.351 0.611-0.478l-0.081 0.113c0.142-0.11 0.308-0.248 0.369-0.369l-0.17 0.227c0.48-0.448 0.975-0.907 1.448-1.414 0.479-0.513 0.919-1.092 1.297-1.708 1.811-2.591 2.755-5.602 2.822-8.903v-0.016c0-0.453-0.032-0.947-0.15-1.428-0.044-0.496-0.132-0.954-0.22-1.364l-0.006-0.025c-0.053-0.21-0.079-0.438-0.177-0.731-0.038-0.115-0.082-0.275-0.144-0.453-0.052-0.208-0.332-0.458-0.611-0.588l0.114-0.342c0.008-0.023 0.017-0.046 0.034-0.092s0.070-0.070 0.070-0.353v-0.377l-0.056-0.144c-0.145-0.363-0.305-0.682-0.416-0.959-0.138-0.346-0.31-0.726-0.52-1.111l-0.017-0.031-0.020-0.030c-0.273-0.41-0.561-0.793-0.8-1.152-0.29-0.435-0.634-0.844-0.97-1.214-1.48-1.647-3.293-2.988-5.417-4.050l-0.008-0.003-0.008-0.005c-0.64-0.303-1.254-0.542-1.894-0.744-0.625-0.197-1.299-0.362-2.036-0.466-0.31-0.074-0.624-0.11-0.925-0.113-0.315-0.034-0.63-0.034-0.959-0.034zM16.581 0.064c-0.169 0-0.382 0.144-0.564 0.284 0.018-0.022 0.005-0.033 0.027-0.055 0.187-0.187 0.394-0.217 0.467-0.225s0.078-0.005 0.070-0.005zM17.169 0.666l0.072 0.305-0.008-0.014v-0.002c-0.011-0.097 0.007-0.147-0.064-0.289zM17.486 1.628l0.038 0.003h0.050c0.189 0 0.426 0.028 0.606 0.073l0.042 0.009 0.044 0.006c0.65 0.089 1.243 0.237 1.819 0.419 0.573 0.181 1.109 0.39 1.683 0.661 1.967 0.985 3.606 2.201 4.939 3.686l0.002 0.003 0.002 0.002c0.304 0.334 0.6 0.692 0.822 1.025 0.265 0.397 0.541 0.767 0.775 1.116 0.168 0.311 0.313 0.627 0.428 0.914 0.047 0.117 0.086 0.202 0.134 0.311h-7.68c-0.256 0-0.484-0.004-0.623-0.023l-0.056-0.009h-0.056c-0.064 0-0.088-0.058 0.134 0.053-0.152-0.076-0.163-0.038-0.253-0.050-0.036-0.019-0.059-0.031-0.084-0.056l-0.089-0.091c-0.048-0.19-0.102-0.401-0.163-0.492l0.086 0.169c-0.349-0.951-0.664-1.866-0.947-2.778-0.288-0.928-0.574-1.85-0.827-2.734-0.138-0.482-0.313-0.973-0.556-1.494-0.118-0.252-0.184-0.484-0.269-0.722zM14.313 1.658c0.002-0 0.007 0 0.009 0-0.452 1.196-0.838 2.351-1.22 3.497-0.385 1.156-0.768 2.336-1.18 3.508l-0.003 0.012c-0.047 0.141-0.144 0.365-0.225 0.608-0.072 0.216-0.135 0.438-0.191 0.605l0.016-0.041c-0.060 0.149 0.010 0.060 0.041 0.041h-2.658c-0.704 0-1.364-0-2.011-0.031h-3.995c0.173-0.388 0.345-0.775 0.564-1.214 0.169-0.28 0.374-0.576 0.592-0.888 0.206-0.294 0.42-0.604 0.636-0.939 0.922-1.043 1.893-1.951 2.938-2.667 1.062-0.728 2.244-1.334 3.583-1.791 0.382-0.127 0.737-0.245 1.105-0.33 0.416-0.096 0.801-0.186 1.238-0.244l0.045-0.005 0.044-0.011c0.195-0.049 0.417-0.079 0.673-0.111zM15.884 1.897c0.119 0.369 0.237 0.736 0.42 1.13 0.205 0.439 0.349 0.844 0.467 1.258 0.259 0.908 0.549 1.841 0.837 2.769 0.293 0.944 0.616 1.885 0.972 2.855l0.033 0.089 0.053 0.078c0.041 0.062-0.038-0.106-0.038-0.188 0 0.224 0.091 0.421 0.188 0.6 0.143 0.294 0.437 0.523 0.502 0.556 0.11 0.083 0.219 0.177 0.328 0.231l0.169 0.084h0.189c0.064 0 0.089 0.060-0.133-0.052 0.341 0.17 0.498 0.115 0.566 0.113 0.268 0.030 0.525 0.036 0.752 0.036h8.086c-0.692 0.535-1.38 1.065-2.023 1.525-0.674 0.482-1.348 0.996-2.020 1.539-0.559 0.342-1.137 0.692-1.675 1.095-0.486 0.365-1.070 0.754-1.675 1.225l-0.142 0.111-0.081 0.163c0.063-0.126 0.005-0.041 0.012-0.045-0.33 0.224-0.481 0.644-0.481 0.916v0.189l0.084 0.169c-0.031-0.063 0.028 0.138 0.117 0.406 0.287 0.893 0.576 1.793 0.898 2.728 0.317 0.918 0.603 1.809 0.891 2.705 0.167 0.564 0.356 1.102 0.506 1.613 0.136 0.461 0.29 0.909 0.444 1.363-0.379-0.251-0.783-0.538-1.167-0.841-0.47-0.369-0.947-0.687-1.373-0.991l-0.031-0.023c-0.769-0.608-1.541-1.188-2.378-1.767-0.813-0.563-1.607-1.166-2.447-1.78l-0.055-0.041-0.020-0.011c-0.046-0.044-0.078-0.087-0.198-0.147 0.031 0.016-0.002-0.016-0.161-0.095l-0.169-0.084h-0.539l-0.189 0.114c-0.133 0.080-0.234 0.131-0.298 0.163l-0.073 0.036-0.064 0.052c-1.198 0.946-2.47 1.867-3.75 2.795-1.198 0.868-2.398 1.746-3.58 2.648 0.45-1.435 0.899-2.824 1.352-4.211l0.002-0.005c0.482-1.445 0.961-2.947 1.47-4.475l0.016-0.048 0.011-0.048c0.028-0.14 0.080-0.267 0.080-0.541l-0.234 0.566c0.11-0.11 0.298-0.473 0.238-0.775-0.043-0.215-0.122-0.269-0.192-0.345-0.133-0.208-0.314-0.383-0.509-0.481l0.136 0.086c-0.922-0.724-1.86-1.37-2.748-2.005l-0.006-0.005-0.005-0.003c-0.919-0.634-1.808-1.269-2.731-1.938-0.002-0.002-0.004-0.003-0.006-0.005-0.308-0.247-0.644-0.523-0.986-0.803-0.292-0.239-0.613-0.468-0.933-0.692l4.228-0.002c0.697 0.033 1.382 0.033 2.086 0.033h2.795l0.044-0.005c0.598-0.066 1.073-0.569 1.262-1.042l0.009-0.022 0.008-0.022c0.072-0.217 0.137-0.441 0.192-0.608 0.046-0.139 0.139-0.358 0.219-0.595l0.005-0.012c0.418-1.192 0.803-2.377 1.184-3.52 0.384-1.152 0.764-2.293 1.205-3.458l0.052-0.138v-0.145c0 0.002 0.008-0.024 0.008-0.023zM15.973 4.544l0.078 0.033c-0.142-0.042-0.265-0.115-0.475-0.031-0.223 0.089-0.273 0.244-0.345 0.381-0 0 0 0.001 0 0.002-0.030 0.058-0.133 0.118-0.145 0.159-0.029 0.097-0.026 0.144-0.028 0.2l-0.117 0.117-0.056 0.2c-0.186 0.649-0.403 1.296-0.647 1.906-0.26 0.65-0.489 1.307-0.688 1.995-0.003 0.008-0.004 0.011-0.006 0.019-0.002 0.005-0.003 0.010-0.005 0.016-0.033 0.103-0.060 0.2-0.077 0.261-0.019 0.069-0.052 0.128 0.003 0.017l-0.084 0.169v0.064c-0.036 0.129-0.064 0.273-0.064 0.284 0 0.197 0.048 0.421 0.2 0.623 0.151 0.201 0.426 0.363 0.722 0.366 0.212 0.026 0.48 0.040 0.773 0.025v0.137h2.305c0.092 0 0.123-0.016 0.184-0.031h0.164l0.102-0.052c0.041-0.005 0.061-0.003 0.095-0.012 0.081-0.023 0.163-0.061 0.238-0.111 0.149-0.099 0.253-0.237 0.317-0.364 0.080-0.159 0.116-0.454 0.116-0.486v-0.164l-0.064-0.15c-0.081-0.19-0.132-0.341-0.191-0.545-0.083-0.292-0.187-0.532-0.234-0.673l-0.009-0.028-0.012-0.028c-0.238-0.564-0.422-1.152-0.617-1.736-0.181-0.542-0.342-1.15-0.545-1.759l-0.017-0.053v-0.002c-0.001-0.002-0.001-0.004-0.002-0.006-0.019-0.077-0.048-0.156-0.087-0.236l-0.222-0.442h-0.216c-0.010-0.006-0.010-0.010-0.020-0.016-0.026-0.014-0.109 0.006-0.147-0.009-0.016-0.003-0.057-0.032-0.069-0.033-0.082-0.009-0.098-0.006-0.106-0.006zM16.845 5.327c0.001 0.004 0.002 0.004 0.003 0.008 0.011 0.045 0.020 0.17 0.020 0.17s-0.011-0.102-0.023-0.178zM15.048 5.353c0 0.003-0.002 0.010-0.002 0.013-0.016 0.081-0.098 0.136-0.098 0.234 0-0.146 0.049-0.185 0.1-0.247zM15.286 5.641c0.002 0.017 0.004 0.022 0.006 0.039-0.001-0.003-0.002-0.003-0.003-0.006-0.002-0.009-0.001-0.020-0.003-0.033zM15.887 7.619c0.189 0.566 0.386 1.194 0.659 1.844 0.057 0.165 0.106 0.301 0.148 0.425h-0.083v-0.005l-0.669-0.113c-0.254-0.042-0.518-0.025-0.792-0.003 0.169-0.564 0.352-1.114 0.572-1.662 0.063-0.158 0.105-0.325 0.164-0.486zM17.637 9.823c-0.036 0-0.176 0.042-0.294 0.067 0.003-0.001 0.006-0.003 0.009-0.005l0.123-0.030c-0.047 0-0.054 0.010-0.095 0.016 0.015-0.005 0.027-0.015 0.042-0.019 0.074-0.021 0.214-0.030 0.214-0.030zM20.211 9.833c0.003 0.004 0.003 0.004 0.006 0.008 0.005 0.021 0.012 0.022 0.012 0.047 0-0.021-0.017-0.033-0.019-0.055zM14.842 10.636c-0.006 0.014 0.001 0.012-0.006 0.027-0.091 0.183-0.138 0.191-0.122 0.175 0.009-0.009 0.075-0.125 0.128-0.202zM30.053 11.136c-0.203 0-0.24 0.041-0.303 0.075-0.012 0.006-0.044 0.004-0.055 0.009l0.358-0.084zM0.834 11.363c-0.030 0.028-0.036 0.055-0.059 0.084 0.017-0.024 0.024-0.060 0.041-0.077l0.019-0.008zM1.827 11.4c0.079 0.020 0.116 0.012 0.186 0.020 0.002 0 0.006 0.003 0.008 0.003l-0.194-0.023zM20.645 11.52c-0.064 0-0.233-0.059-0.583 0.116l-0.116 0.058-0.092 0.092c-0.205 0.205-0.216 0.324-0.25 0.447s-0.048 0.244-0.048 0.375v0.298l0.522 1.459c0.17 0.51 0.365 0.998 0.553 1.5l0.006 0.016c0.076 0.191 0.279 0.489 0.603 0.605s0.573 0.042 0.745-0.016l0.18-0.059 0.255-0.255c0.593-0.468 1.145-0.897 1.716-1.287l0.009-0.006 0.008-0.006c0.537-0.388 1.155-0.759 1.817-1.137l0.092-0.053 0.236-0.236c0.253-0.253 0.269-0.415 0.309-0.495l0.117-0.233v-0.189c0-0.040-0.055-0.063-0.064-0.105v-0.291l-0.234-0.234c-0.048-0.048-0.078-0.028-0.127-0.059-0.015-0.010-0.018-0.047-0.033-0.055-0.085-0.043-0.096-0.026-0.161-0.037-0.073-0.023-0.173-0.099-0.219-0.105-0.113-0.014-0.171-0.011-0.219-0.011h-1.759v-0.064h-3.056c-0.056-0.014-0.097-0.031-0.208-0.031zM15.717 11.552c-0.192 0-0.523-0.003-0.909 0.083l0.173-0.019c-0.267 0-0.56 0.004-0.863 0.036-0.145-0.002-0.314-0.012-0.569 0.064-0.478 0.132-0.773 0.555-0.881 0.986l-0.047 0.166c-0.13 0.359-0.248 0.701-0.405 1.016l-0.012 0.023-0.011 0.027c-0.172 0.413-0.34 0.885-0.478 1.367l0.053-0.137c-0.144 0.287-0.213 0.554-0.277 0.778-0.045 0.156-0.133 0.364-0.214 0.606l-0.023 0.069-0.009 0.072c-0.050 0.351-0.15 0.685 0.291 1.127l0.136 0.136 0.088 0.052c0.54 0.318 0.993 0.591 1.436 0.916 0.48 0.352 0.956 0.701 1.492 1.111l-0.080-0.070c0.158 0.158 0.336 0.246 0.4 0.278s0.013 0.008-0.017-0.022l0.134 0.133 0.18 0.059c0.078 0.026 0.212 0.067 0.411 0.086 0.36 0.050 0.843-0.039 1.186-0.325l-0.155 0.1c0.159-0.080 0.246-0.145 0.342-0.209-0.143 0.095 0.014 0.014 0.256-0.067l0.166-0.055c-0.059 0.042-0.127 0.079-0.184 0.12l-0.097 0.072-0.073 0.095c-0.070 0.094-0.085 0.107-0.117 0.139l-0.056 0.056-0.044 0.066c-0.078 0.116-0.183 0.294-0.183 0.567s0.157 0.539 0.283 0.666l-0.177-0.269 0.152 0.383 0.197 0.136c0.65 0.455 1.311 0.897 1.958 1.389l0.009 0.008 0.009 0.006c0.668 0.477 1.382 0.997 2.141 1.492l0.038 0.025 0.042 0.020c0.064 0.032 0.218 0.148 0.548 0.148 0.016 0 0.193-0.003 0.35-0.066s0.265-0.154 0.344-0.233l0.234-0.234v-0.331c0-0.064 0.002-0.14-0.006-0.242-0.004-0.051-0.009-0.108-0.030-0.195s-0.033-0.219-0.23-0.416l0.203 0.345c-0.456-1.596-0.977-3.096-1.564-4.531l-0.031-0.073-0.044-0.067c0.004 0.006 0.002-0.011-0.078-0.17l0.069 0.202c-0.023-0.115-0.059-0.25-0.173-0.406s-0.357-0.332-0.619-0.358c-0.368-0.037-0.554 0.097-0.691 0.238-0.079 0.050-0.168 0.098-0.219 0.148l0.095-0.081c-0.308 0.224-0.684 0.446-1.094 0.719-0.31 0.183-0.605 0.385-0.894 0.587l0.116-0.131c0.227-0.26 0.391-0.435 0.503-0.516 0.224-0.16 0.46-0.329 0.686-0.517l0.028-0.023 0.027-0.025c0.034-0.034 0.154-0.123 0.294-0.183l0.020-0.009 0.022-0.011c0.256-0.128 0.485-0.282 0.686-0.442l0.034-0.028 0.031-0.031c-0.078 0.078-0.028 0.028 0.022-0.012s0.122-0.1 0.202-0.18c0.221-0.221 0.298-0.484 0.298-0.758v-0.044l-0.005-0.044c-0.040-0.359-0.123-0.651-0.195-0.869-0.047-0.141-0.080-0.301-0.161-0.544l-0.003-0.011-0.003-0.009c-0.128-0.352-0.261-0.719-0.43-1.123-0.16-0.384-0.319-0.765-0.444-1.077l0.058 0.297c0-0.274-0.069-0.455-0.148-0.614l0.084 0.358c0-0.331-0.069-0.422-0.148-0.581l-0.025-0.048c-0.009-0.024 0.001-0.024-0.011-0.048-0.099-0.199-0.162-0.223-0.178-0.239l0.089 0.155-0.003-0.003c-0.202-0.456-0.584-0.87-1.055-0.975l-0.042-0.009-0.042-0.005c-0.353-0.039-0.697-0.037-1.081-0.037h-1.088zM6.181 11.584c-0.032 0-0.092-0.009-0.233 0.019-0.026 0.005-0.055 0.035-0.084 0.045h-0.739v0.864c0 0.395 0.11 0.633 0.362 0.886l0.052 0.052 0.061 0.041c0.512 0.352 1.026 0.707 1.513 1.031 0.453 0.302 0.952 0.674 1.522 1.117 0.205 0.163 0.383 0.273 0.458 0.33l-0.019-0.016c0.17 0.136 0.336 0.261 0.536 0.381l0.027 0.016 0.027 0.014c-0.031-0.016-0.111-0.086-0.111-0.086l-0.003-0.006c0.046 0.047 0.076 0.067 0.114 0.092 0.040 0.026 0.097 0.084 0.12 0.095 0.111 0.056 0.088 0.041 0.072 0.033s0.010 0.024 0.186 0.083c0.176 0.059 0.516 0.036 0.691-0.052l0.116-0.058 0.092-0.092c0.032-0.032 0.298-0.363 0.298-0.694l-0.047 0.267c0.189-0.535 0.377-1.034 0.558-1.456 0.21-0.49 0.376-0.99 0.536-1.47l0.041-0.122v-0.13c0-0.188-0.009-0.382-0.139-0.623-0.12-0.223-0.46-0.425-0.758-0.459-0.146-0.018-0.331-0.070-0.447-0.070h-1.472v-0.031h-3.328zM25.892 11.68c-0.008 0-0.003-0.003 0.070 0.005 0.008 0.001 0.038 0.022 0.048 0.023-0.030-0.002-0.119-0.028-0.119-0.028zM26.322 11.858c0.044 0.028 0.066 0.010 0.109 0.053 0.187 0.187 0.217 0.394 0.225 0.467 0.003 0.026 0.001 0.014 0.002 0.025-0.051-0.219-0.183-0.43-0.336-0.545zM1.911 12.945c0.201 0.148 0.408 0.289 0.595 0.442 0.352 0.288 0.706 0.577 1.031 0.838l0.014 0.011 0.016 0.012c0.931 0.674 1.832 1.318 2.767 1.963 0.865 0.617 1.739 1.227 2.575 1.878-0.501 1.506-0.972 2.977-1.439 4.378l-0.002 0.002v0.003c-0.41 1.257-0.822 2.532-1.233 3.833-0.020-0.018-0.050-0.039-0.066-0.055-0.192-0.192-0.371-0.373-0.597-0.561-0.151-0.126-0.289-0.262-0.467-0.441-0.229-0.259-0.418-0.502-0.575-0.764-0.204-0.34-0.383-0.611-0.514-0.873l-0.020-0.039-0.023-0.036c-0.273-0.425-0.512-0.846-0.756-1.334-0.243-0.486-0.453-0.936-0.634-1.356-0.187-0.623-0.368-1.231-0.483-1.778-0.128-0.608-0.253-1.207-0.345-1.759-0.030-0.393-0.059-0.777-0.133-1.145-0.034-0.169-0.020-0.412 0.012-0.838l0.003-0.030v-0.031c0-0.367 0.028-0.718 0.059-1.092 0.062-0.371 0.124-0.742 0.186-1.113 0.014-0.049 0.018-0.071 0.028-0.114zM29.783 13.077c0.020 0.094 0.032 0.143 0.064 0.275 0.096 0.448 0.181 0.854 0.208 1.261l0.005 0.072 0.017 0.070c0.070 0.28 0.103 0.672 0.103 1.044-0.062 3.024-0.907 5.698-2.542 8.030l-0.014 0.022-0.012 0.020c-0.323 0.528-0.708 1.032-1.119 1.472-0.298 0.319-0.634 0.63-0.964 0.942-0.106-0.316-0.22-0.645-0.308-0.942-0.168-0.572-0.361-1.115-0.512-1.631l-0.002-0.011-0.003-0.009c-0.288-0.896-0.578-1.798-0.902-2.736-0.317-0.918-0.603-1.807-0.891-2.703l-0.002-0.005-0.002-0.003c-0.009-0.026-0.038-0.105-0.045-0.139-0 0 0.002-0.002 0.002-0.002 0.547-0.425 1.116-0.805 1.653-1.208 0.469-0.352 1.026-0.693 1.602-1.045l0.044-0.027 0.042-0.034c0.66-0.534 1.318-1.036 1.977-1.506 0.525-0.375 1.065-0.793 1.602-1.206zM15.717 13.152h1.088c0.345 0 0.598 0.007 0.813 0.025-0.015-0.026-0.047-0.088-0.016 0.027l0.056 0.205 0.036 0.036c0 0.001-0 0.001 0 0.002 0.004 0.009 0.003 0.003 0.008 0.011v0.077l0.064 0.128v0.094l0.056 0.142c0.131 0.329 0.293 0.714 0.453 1.098 0.151 0.363 0.272 0.701 0.4 1.052 0 0.001 0.001 0.002 0.002 0.003 0.044 0.138 0.075 0.29 0.153 0.523 0.026 0.079 0.039 0.174 0.059 0.256-0.107 0.079-0.224 0.161-0.33 0.214l0.042-0.019c-0.309 0.132-0.571 0.3-0.794 0.522l0.053-0.050c-0.158 0.132-0.368 0.284-0.592 0.444-0.267 0.191-0.44 0.403-0.62 0.609-0.117 0.025-0.213 0.020-0.447 0.177-0.096 0.064-0.202 0.125-0.17 0.109l-0.083 0.042-0.047 0.038-0.022-0.003c-0-0-0.001 0-0.002 0-0.051-0.030-0.13-0.095-0.155-0.108-0.064-0.032-0.015-0.008 0.016 0.022l-0.037-0.038-0.042-0.033c-0.551-0.422-1.037-0.778-1.517-1.13-0.416-0.305-0.836-0.552-1.266-0.808 0.050-0.133 0.099-0.249 0.153-0.439 0.064-0.224 0.122-0.405 0.17-0.502l0.034-0.067 0.020-0.072c0.118-0.414 0.269-0.836 0.417-1.191l-0.023 0.050c0.224-0.448 0.362-0.867 0.484-1.205l0.009-0.027 0.034-0.119h0.022l0.050-0.006c0.183-0.023 0.445-0.027 0.733-0.027h0.088l0.086-0.019c0.19-0.042 0.37-0.045 0.563-0.045zM21.344 13.152h0.966v0.064h1.456c-0.174 0.114-0.366 0.212-0.533 0.333-0.003 0.002-0.006 0.004-0.009 0.006-0.002 0.002-0.004 0.003-0.006 0.005-0.468 0.321-0.909 0.669-1.356 1.017-0.090-0.238-0.191-0.494-0.266-0.717l-0.002-0.008-0.25-0.7zM8.034 13.216h2.478c-0.077 0.216-0.151 0.451-0.234 0.645-0.101 0.236-0.198 0.516-0.297 0.775-0.138-0.099-0.265-0.18-0.356-0.253l-0.009-0.006c-0.57-0.443-1.084-0.828-1.581-1.161zM25.619 13.216h0.044c0.012 0.003 0.030 0.019 0.041 0.020-0.033-0.006-0.043-0.007-0.084-0.020zM21.68 17.034l-0.128 0.128 0.12-0.098c-0.004 0.007 0.090-0.112 0.008-0.030zM11.744 18.253c-0.191-0.066-0.485-0.042-0.656 0.044-0.342 0.171-0.344 0.299-0.387 0.364-0.132 0.198-0.194 0.372-0.178 0.341l-0.034 0.067-0.020 0.072c-0.058 0.205-0.106 0.342-0.17 0.47-0.112 0.224-0.218 0.47-0.298 0.712-0.19 0.539-0.382 1.081-0.544 1.567-0.167 0.5-0.33 1.056-0.492 1.639l-0.008 0.028-0.006 0.030c-0.028 0.14-0.080 0.177-0.080 0.508 0 0.048-0.052 0.105 0.066 0.398 0.014 0.034 0.068 0.064 0.092 0.102 0.031 0.063 0.072 0.143 0.183 0.247 0.014 0.013 0.053 0.015 0.070 0.028 0.025 0.017 0.032 0.050 0.058 0.063 0.104 0.052 0.159 0.044 0.231 0.053 0.080 0.027 0.132 0.086 0.216 0.086 0.212 0 0.21-0.078 0.305-0.134-0.039 0.008-0.015 0.022-0.1 0.022 0.142 0 0.184-0.058 0.277-0.1 0.029-0.030 0.141-0.050 0.161-0.070-0.019 0.019-0.021 0.013-0.034 0.025 0.037-0.024 0.127-0.036 0.148-0.053 0.043-0.034 0.053-0.047 0.075-0.069 0.281-0.194 0.586-0.378 0.92-0.613 0.341-0.238 0.656-0.485 0.969-0.762 0.241-0.214 0.513-0.406 0.864-0.611 0.417-0.244 0.755-0.48 1.031-0.664l-0.086 0.050c0.319-0.159 0.503-0.423 0.583-0.583l0.084-0.169v-0.648l-0.223-0.223c-0.009-0.016-0.022-0.029-0.033-0.045-0.021-0.026-0.016-0.035-0.042-0.061-0.036-0.044-0.037-0.086-0.088-0.125-0.009-0.007-0.019-0.003-0.028-0.009-0.377-0.314-0.787-0.661-1.302-0.955l0.059 0.038c-0.439-0.304-0.848-0.558-1.192-0.816l0.086 0.075c-0.008-0.008-0.089-0.061-0.127-0.094-0.001-0-0.001-0.001-0.002-0.002s-0.004-0.002-0.005-0.003c-0.034-0.029-0.019-0.035-0.108-0.080-0.014-0.007-0.013-0-0.027-0.006-0.059-0.046-0.093-0.093-0.208-0.133zM11.589 18.305c-0.008 0 0.022-0.009 0.137 0.014 0.016 0.003 0.036 0.024 0.055 0.030-0.069-0.009-0.184-0.044-0.192-0.044zM15.809 18.889l0.037 0.023h-0.034c0.203 0 0.093 0.009-0.003-0.023zM11.778 20.191c0.213 0.142 0.434 0.295 0.636 0.434l0.028 0.020 0.030 0.017c0.174 0.1 0.35 0.256 0.52 0.384-0.143 0.093-0.271 0.186-0.43 0.278-0.417 0.244-0.786 0.499-1.12 0.797-0.162 0.144-0.338 0.269-0.508 0.398 0.012-0.037 0.025-0.087 0.037-0.123 0.157-0.47 0.347-1.011 0.539-1.555l0.003-0.006 0.002-0.006c0.047-0.141 0.132-0.345 0.213-0.505 0.023-0.046 0.030-0.089 0.050-0.134zM19.945 20.25c0.283 0.716 0.525 1.483 0.775 2.239-0.199-0.142-0.408-0.281-0.603-0.42-0.49-0.373-0.952-0.684-1.414-1.003 0.206-0.139 0.409-0.285 0.617-0.406l0.041-0.025c0.183-0.122 0.388-0.259 0.584-0.384zM15.848 23.075c0.027 0.017 0.021 0.024 0.055 0.041l-0.059-0.036c0.002-0.001 0.003-0.003 0.005-0.005zM15.839 23.083c0.807 0.59 1.597 1.19 2.431 1.767 0.816 0.565 1.569 1.13 2.327 1.73l0.016 0.012 0.016 0.011c0.463 0.33 0.932 0.644 1.347 0.97 0.265 0.209 0.547 0.395 0.825 0.594-0.351 0.218-0.707 0.458-1.041 0.606l-0.016 0.006-0.017 0.009c-0.512 0.256-1.102 0.464-1.772 0.647l-0.030 0.008-0.030 0.011c-0.393 0.141-0.85 0.257-1.448 0.347l-0.020 0.002-0.019 0.005c-0.18 0.036-0.237 0.048-0.291 0.048-0.373 0-0.619 0.134-0.745 0.184l0.297-0.056c-0.121 0-0.279 0.058-0.408 0.128h-2.716l-0.037-0.038-0.194-0.058c-0.353-0.106-0.672-0.178-0.948-0.217l0.025 0.005c-1.603-0.28-3.046-0.867-4.412-1.625 1.045-0.79 2.104-1.571 3.177-2.348 1.241-0.899 2.486-1.807 3.684-2.748zM7.877 27.2c-0.092 0-0.107 0.053-0.192 0.083-0.047 0.005-0.052 0.017-0.089 0.027 0.002-0.005 0.003-0.010 0.005-0.016l0.277-0.094zM7.548 27.311c-0 0.002-0.001 0.008-0.002 0.011-0.006 0.002-0.011 0.004-0.017 0.006 0-0.005 0.004-0.007 0.005-0.012l0.014-0.005zM23.711 27.572c-0.128 0.064-0.153 0.114-0.217 0.172 0.004-0.004 0.006-0.019 0.009-0.022l0.208-0.15zM18.405 30.848l-0.212 0.512c-0.001 0.001-0.002 0.002-0.003 0.003 0.109-0.131 0.216-0.276 0.216-0.516z"></path>
</svg>
