<!-- Generated by IcoMoon.io -->
<svg version="1.1" xmlns="http://www.w3.org/2000/svg" width="32" height="32" viewBox="0 0 32 32">
<title>archaic_evils</title>
<path d="M11.499 30.803c-0.855-0.256-1.377-0.792-1.515-1.556-0.066-0.362-0.091-2.18-0.057-4.041l0.062-3.383 0.373 0.825c0.205 0.454 0.423 0.775 0.484 0.714s-0.13-0.566-0.426-1.121c-0.515-0.969-0.537-1.158-0.537-4.654 0-2.783 0.081-3.895 0.343-4.705 0.316-0.978 0.316-1.115 0-1.748-0.279-0.56-0.343-1.419-0.343-4.648 0-3.58 0.039-4.009 0.403-4.458 0.397-0.49 0.409-0.491 0.846-0.096 0.244 0.22 0.443 0.576 0.443 0.791s0.095 0.39 0.211 0.39c0.116 0 0.211 0.375 0.211 0.833s0.082 0.884 0.183 0.946c0.218 0.135 0.059 1.176-0.237 1.55-0.139 0.176-0.135 0.264 0.014 0.264 0.123 0 0.278-0.174 0.346-0.386s0.477-0.492 0.913-0.621c0.607-0.181 0.643-0.213 0.156-0.14-0.529 0.079-0.678 0-0.899-0.478-0.145-0.315-0.264-0.871-0.264-1.236s-0.058-0.721-0.129-0.792c-0.071-0.071-0.163-0.563-0.205-1.092l-0.076-0.963 2.689 0.003c2.828 0.003 3.281 0.111 3.211 0.76-0.111 1.044 0.050 1.177 0.356 0.293 0.181-0.523 0.361-0.985 0.399-1.025s0.408 0.038 0.822 0.175c1.198 0.395 1.389 0.854 1.389 3.334 0 2.129-0.012 2.183-0.529 2.379-0.31 0.118-0.529 0.368-0.529 0.606 0 0.223-0.143 0.46-0.317 0.527-0.185 0.071-0.317 0.388-0.317 0.763 0 0.575-0.067 0.641-0.653 0.641-0.422 0-0.79-0.168-1.039-0.476-0.212-0.262-0.443-0.418-0.514-0.348s-0.15 0.712-0.177 1.427c-0.030 0.805-0.141 1.299-0.29 1.299-0.319 0.001-0.536 0.586-0.278 0.746 0.304 0.188 0.23 1.208-0.122 1.673-0.357 0.472-0.408 0.964-0.099 0.964 0.116 0 0.211-0.232 0.211-0.516s0.104-0.58 0.231-0.659c0.127-0.079 0.196-0.512 0.153-0.964-0.052-0.547 0.008-0.821 0.179-0.821 0.393 0 0.558-0.407 0.294-0.726-0.145-0.174-0.182-0.621-0.097-1.153 0.143-0.895 0.37-1.109 0.584-0.552 0.076 0.199 0.4 0.317 0.868 0.317 0.497 0 0.747 0.098 0.747 0.294 0 0.162 0.135 0.346 0.301 0.41s0.343 0.335 0.394 0.604c0.082 0.43 0.097 0.418 0.122-0.099 0.017-0.349-0.1-0.638-0.288-0.71-0.447-0.172-0.447-1.979 0-1.979 0.193 0 0.317-0.197 0.317-0.504 0-0.326 0.149-0.543 0.423-0.614 0.417-0.109 0.423-0.006 0.423 7.765 0 7.439-0.022 7.895-0.397 8.235-0.219 0.198-0.461 0.755-0.538 1.238s-0.255 1.018-0.395 1.189c-0.142 0.173-0.255 0.928-0.255 1.702 0 1.268-0.041 1.397-0.46 1.457-0.363 0.052-0.479-0.060-0.55-0.529l-0.089-0.594-0.032 0.601c-0.023 0.439 0.082 0.631 0.391 0.712 0.249 0.065 0.429 0.296 0.438 0.562 0.008 0.248 0.092 0.641 0.187 0.874 0.194 0.477 0.243-0.079 0.256-2.907 0.004-0.901 0.078-1.638 0.164-1.638 0.251 0 0.647-1.025 0.647-1.675 0-0.329 0.143-0.717 0.317-0.862 0.28-0.232 0.317 0.136 0.317 3.116 0 3.325-0.009 3.388-0.53 3.91-0.291 0.291-0.886 0.589-1.321 0.661-1.155 0.191-6.609 0.13-7.315-0.082zM12.137 27.887c-0.193-0.213-0.362-0.571-0.376-0.794-0.020-0.338-0.040-0.346-0.119-0.049-0.098 0.372 0.54 1.537 0.734 1.342 0.061-0.061-0.047-0.286-0.24-0.499zM12.322 25.076c0.078-0.246 0.323-0.398 0.641-0.398 0.421 0 0.514-0.106 0.514-0.583 0-0.375-0.169-0.689-0.472-0.878-0.46-0.288-0.462-0.299-0.053-0.459 0.715-0.279 1.126-0.21 1.26 0.213 0.071 0.223 0.502 0.601 0.958 0.838 0.723 0.377 0.868 0.393 1.135 0.126 0.168-0.168 0.256-0.498 0.194-0.733-0.076-0.29-0.008-0.427 0.21-0.427s0.286-0.137 0.211-0.423c-0.061-0.234-0.288-0.423-0.509-0.423-0.484 0-0.499-0.237-0.068-1.12l0.33-0.677-0.431 0.529c-0.551 0.675-0.558 1.277-0.017 1.419 0.493 0.129 0.57 0.484 0.106 0.484-0.376 0-0.391 0.102-0.097 0.651 0.554 1.036-1.054 0.535-2.055-0.64-0.369-0.433-0.513-0.488-0.729-0.276-0.148 0.145-0.441 0.264-0.65 0.264-0.512 0-0.484 0.564 0.042 0.846 0.546 0.292 0.565 1.057 0.026 1.057-0.218 0-0.509 0.135-0.647 0.301s-0.542 0.403-0.899 0.527l-0.649 0.226 0.121-0.743c0.072-0.441 0.040-0.693-0.078-0.62-0.249 0.154-0.255 1.374-0.008 1.764 0.101 0.16 0.29 0.226 0.42 0.146s0.235-0.030 0.235 0.111c0 0.331 0.794-0.581 0.959-1.102zM17.844 22.238c0.19-0.496-0.015-0.554-0.307-0.087-0.163 0.262-0.177 0.413-0.038 0.413 0.121 0 0.276-0.147 0.345-0.326zM14.060 18.308c-0.213-0.36-0.213-0.47-0.002-0.546 0.437-0.158 0.299-0.611-0.264-0.868-0.291-0.132-0.529-0.159-0.529-0.059s0.196 0.233 0.435 0.296c0.373 0.098 0.398 0.172 0.178 0.525-0.274 0.439-0.137 1.102 0.228 1.102 0.138 0 0.12-0.168-0.046-0.45zM13.136 15.418c-0.123-0.081-0.331-0.337-0.463-0.57-0.153-0.27-0.242-0.314-0.246-0.122-0.008 0.359 0.645 1.127 0.814 0.958 0.065-0.065 0.018-0.185-0.105-0.266zM12.244 13.636c-0.157-0.157-0.184-0.074-0.092 0.277 0.075 0.286 0.171 0.382 0.223 0.223 0.051-0.153-0.008-0.378-0.131-0.501zM12.347 9.070c-0.192-0.213-0.35-0.514-0.35-0.669s-0.064-0.219-0.141-0.142c-0.181 0.181 0.356 1.198 0.633 1.198 0.115 0 0.051-0.174-0.141-0.387zM15.229 8.843c0.403-0.683 0.475-1.289 0.151-1.289-0.116 0-0.211 0.22-0.211 0.488 0 0.608-0.397 1.137-0.951 1.267-0.342 0.080-0.32 0.104 0.113 0.124 0.382 0.018 0.64-0.152 0.899-0.589zM13.96 7.291c-0.046-0.087-0.293-0.267-0.548-0.401-0.454-0.238-0.456-0.234-0.080 0.189 0.25 0.282 0.305 0.481 0.159 0.572-0.124 0.077-0.225 0.229-0.225 0.338s0.175 0.032 0.389-0.171c0.214-0.204 0.351-0.441 0.305-0.527zM8.212 28.424c-0.575-0.292-0.511-0.188-1.842-2.953-0.546-1.134-1.056-2.061-1.134-2.061s-0.773-0.715-1.545-1.59c-1.154-1.308-1.479-1.846-1.834-3.035-0.518-1.74-0.539-2.657-0.094-4.109 0.505-1.648 0.713-1.987 1.568-2.552 0.43-0.285 1.367-1.059 2.082-1.721 1.458-1.35 1.56-1.72 0.858-3.096-0.481-0.942-0.428-1.982 0.145-2.872 0.325-0.505 1.814-1.532 2.221-1.532 0.327 0 0.073 1.236-0.35 1.703-0.29 0.32-0.279 0.466 0.108 1.449 0.502 1.274 0.541 2.773 0.117 4.546-0.23 0.963-0.507 1.467-1.208 2.198-0.5 0.522-1.066 1.115-1.257 1.318-0.404 0.43-0.708 2.284-0.491 2.992 0.187 0.607 0.999 1.48 2.11 2.269 0.479 0.34 1.042 1.005 1.292 1.525 0.402 0.838 0.436 1.212 0.363 4.089-0.088 3.477-0.219 3.884-1.11 3.433zM21.395 28.338c-0.312-0.312-0.345-0.735-0.258-3.33 0.057-1.716 0.21-3.204 0.361-3.52 0.26-0.545 2.21-1.883 2.745-1.883 0.57 0 2.727-1.358 3.064-1.93 0.192-0.325 0.407-1.209 0.477-1.965 0.207-2.214-0.544-2.904-2.342-2.153-1.304 0.545-1.807 1.894-0.972 2.608 0.976 0.835 0.196 1.214-0.999 0.485-0.974-0.594-1.375-1.664-1.101-2.942 0.174-0.81 0.405-1.165 1.181-1.813 0.863-0.721 1.118-0.817 2.409-0.91 1.293-0.093 1.547-0.043 2.427 0.473 1.246 0.73 1.633 1.592 1.662 3.707 0.018 1.294-0.091 1.869-0.596 3.126-0.518 1.29-0.867 1.778-2.155 3.001-1.261 1.198-1.596 1.659-1.865 2.562-0.641 2.16-2.478 4.841-3.317 4.841-0.201 0-0.527-0.161-0.724-0.358z"></path>
</svg>
