<!-- Generated by IcoMoon.io -->
<svg version="1.1" xmlns="http://www.w3.org/2000/svg" width="32" height="32" viewBox="0 0 32 32">
<title>architects_of_chaos</title>
<path d="M18.668 31.895c-0.559-0.165-0.51-0.22 0.749-0.849l1.347-0.672 0.745 0.53c0.41 0.292 0.745 0.44 0.745 0.33s-0.377-0.404-0.837-0.652c-0.86-0.463-1.015-0.715-0.598-0.973 0.132-0.081 0.248-1.029 0.258-2.106 0.019-1.846 0.038-1.917 0.342-1.241 0.178 0.394 0.397 1.285 0.487 1.978 0.135 1.036 0.223 1.212 0.494 0.987 0.241-0.2 0.33-0.201 0.33-0.006 0 0.148 0.161 0.268 0.359 0.268s0.359 0.18 0.359 0.399 0.183 0.601 0.406 0.848c0.894 0.988 0.661 1.143-1.722 1.143-1.227 0-2.373 0.043-2.549 0.095s-0.587 0.017-0.916-0.081zM1.457 31.163c0-0.66 0.066-0.717 0.837-0.717 0.518 0 1.019-0.182 1.315-0.478 0.263-0.263 0.639-0.478 0.837-0.478 0.315 0 0.359-1.687 0.359-13.745v-13.745h5.976v27.413l0.598 0.272c0.329 0.15 0.598 0.382 0.598 0.516s0.377 0.244 0.837 0.244c0.77 0 0.837 0.057 0.837 0.717v0.717h-12.191zM6.238 16.104c0-8.765-0.083-13.386-0.239-13.386s-0.239 4.622-0.239 13.386c0 8.765 0.083 13.386 0.239 13.386s0.239-4.622 0.239-13.386zM8.15 16.104c0-8.765-0.082-13.386-0.239-13.386s-0.239 4.622-0.239 13.386 0.082 13.386 0.239 13.386c0.157 0 0.239-4.622 0.239-13.386zM9.764 9.351c-0.037-3.714-0.067-0.675-0.067 6.753s0.030 10.467 0.067 6.753c0.037-3.714 0.037-9.792 0-13.506zM25.15 31.663c-0.265-0.168-0.229-0.265 0.179-0.483 0.281-0.15 0.509-0.404 0.507-0.564-0.002-0.203-0.056-0.211-0.179-0.027-0.337 0.505-0.851 0.475-1.407-0.082-0.589-0.589-0.725-1.017-0.322-1.017 0.132 0 0.239-0.114 0.239-0.253s-0.112-0.184-0.25-0.099c-0.46 0.284-0.946-0.41-0.946-1.35 0-0.51 0.108-0.927 0.239-0.927 0.383 0 0.278-0.473-0.254-1.149-0.467-0.593-0.471-0.644-0.074-0.934 0.231-0.169 0.494-0.307 0.584-0.307 0.165 0 0.483 2.409 0.481 3.645-0 0.362 0.053 0.657 0.119 0.657 0.223 0 0.978-0.833 1.192-1.315 0.164-0.37 0.23-0.193 0.29 0.777 0.106 1.714 0.531 1.593 0.531-0.151 0-1.205 0.068-1.424 0.478-1.531 0.441-0.115 0.478-0.008 0.478 1.406 0 1.202 0.077 1.531 0.359 1.531 0.197 0 0.574 0.215 0.837 0.478s0.753 0.478 1.090 0.478c0.336 0 0.553 0.095 0.481 0.212s0.029 0.345 0.225 0.507c0.644 0.534 0.375 0.715-1.064 0.715-1.344 0-1.988-0.264-1.452-0.595 0.134-0.083 0.236-0.332 0.228-0.554-0.011-0.293-0.075-0.256-0.231 0.134-0.119 0.296-0.334 0.538-0.477 0.538s-0.194 0.108-0.113 0.239c0.183 0.297-1.302 0.316-1.765 0.022zM24.166 24.741c0-1.517 0.104-2.094 0.502-2.767 0.276-0.468 0.599-0.85 0.717-0.85s0.209 0.995 0.202 2.211c-0.013 2.156-0.031 2.225-0.717 2.767l-0.704 0.556zM21.33 23.116c-0.404-2.010-0.362-2.761 0.146-2.664 0.351 0.067 0.43 0.397 0.488 2.049 0.038 1.083-0.028 1.969-0.146 1.969s-0.338-0.61-0.488-1.355zM26.078 22.916c0-1.498 0.019-1.546 0.478-1.259 0.349 0.218 0.478 0.557 0.478 1.259s-0.129 1.041-0.478 1.259c-0.46 0.287-0.478 0.239-0.478-1.259zM22.254 22.047c0-2.034 0.042-2.223 0.61-2.749 0.335-0.311 0.658-0.565 0.717-0.565s0.107 1.108 0.107 2.462c0 2.54-0.164 3.036-1.004 3.036-0.383 0-0.43-0.24-0.43-2.184zM24.166 20.234c0-1.359 0.046-1.521 0.359-1.262 0.197 0.164 0.359 0.407 0.359 0.541s0.185 0.378 0.411 0.543c0.376 0.275 0.346 0.361-0.359 1.019l-0.769 0.718zM26.497 20.202c-0.575-1.25-0.548-2.686 0.060-3.207 0.473-0.405 0.478-0.386 0.478 1.859 0 1.248-0.027 2.266-0.060 2.262s-0.248-0.415-0.478-0.915zM21.218 20.008c-0.088-0.088-0.159-0.702-0.159-1.366 0-1.057 0.043-1.163 0.348-0.857 0.191 0.192 0.42 0.807 0.509 1.366 0.128 0.805 0.089 1.016-0.188 1.016-0.192 0-0.421-0.072-0.509-0.159zM22.74 18.224c-0.008-0.41 0.635-1.079 0.84-0.874 0.066 0.066-0.094 0.377-0.356 0.691-0.368 0.442-0.478 0.484-0.484 0.183zM24.045 18.253c-0.16-0.259 0.417-0.954 0.793-0.954 0.263 0 0.537 0.862 0.338 1.062-0.221 0.221-0.971 0.15-1.131-0.107zM22.224 17.598c-0.116-0.688 0.113-4.524 0.281-4.699 0.123-0.129 0.341-0.106 0.538 0.058 0.182 0.151 0.402 0.204 0.488 0.117s0.157 0.378 0.157 1.033c0 1.375-1.3 4.473-1.464 3.491zM24.181 14.982c0.011-1.323 0.076-1.715 0.226-1.344 0.116 0.287 0.438 0.644 0.715 0.793 0.399 0.214 0.49 0.455 0.432 1.151-0.049 0.587-0.193 0.883-0.432 0.887-0.197 0.004-0.493 0.091-0.657 0.193-0.23 0.144-0.295-0.243-0.284-1.68zM21.533 15.14c-0.625-1.169-0.575-4.057 0.070-4.057 0.21 0 0.319 0.664 0.373 2.271 0.042 1.249 0.019 2.271-0.054 2.271s-0.247-0.218-0.39-0.485zM26.082 13.892c0.004-1.82 0.185-2.57 0.622-2.57 0.405 0 0.471 2.877 0.083 3.601-0.454 0.849-0.709 0.477-0.705-1.032zM24.682 13.104c-0.551-1.209-0.229-2.499 0.625-2.499 0.244 0 0.314 0.322 0.27 1.255-0.091 1.976-0.379 2.376-0.895 1.244zM23.15 12.491c-0.41-0.231-0.593-0.937-0.239-0.922 0.099 0.004 0.389 0.166 0.645 0.359 0.572 0.433 0.223 0.917-0.405 0.562zM22.911 10.67c-0.821-0.86-0.941-2.426-0.201-2.619 0.251-0.066 0.538-0.351 0.639-0.635 0.142-0.399 0.203-0.259 0.274 0.62 0.050 0.624 0.059 1.628 0.019 2.229l-0.073 1.094zM26.078 10.845c0-0.132 0.114-0.239 0.253-0.239s0.187 0.107 0.105 0.239c-0.081 0.132-0.195 0.239-0.253 0.239s-0.105-0.107-0.105-0.239zM21.058 8.939c0-1.624 0.017-1.673 0.478-1.385 0.369 0.23 0.478 0.557 0.478 1.428 0 0.885-0.104 1.185-0.478 1.385-0.457 0.245-0.478 0.182-0.478-1.428zM26.582 10.277c-0.276-0.333-0.128-1.106 0.212-1.106 0.166 0 0.469 0.795 0.477 1.255 0.006 0.291-0.395 0.205-0.689-0.149zM24.166 8.713c0-1.089 0.102-1.701 0.299-1.793 0.239-0.112 0.239-0.167 0-0.279-0.412-0.192-0.376-2.225 0.053-2.968 0.19-0.329 0.454-0.84 0.588-1.135 0.186-0.41 0.444-0.538 1.086-0.538h0.843l-0.006 2.689c-0.004 2.301-0.073 2.776-0.473 3.287l-0.467 0.598-0.006-2.928c-0.004-1.789-0.098-2.928-0.244-2.928-0.147 0-0.239 1.203-0.239 3.13 0 2.782-0.055 3.208-0.494 3.825-0.272 0.382-0.595 0.694-0.717 0.694s-0.223-0.744-0.223-1.653zM22.38 7.209c-0.069-0.301-0.158-1.462-0.197-2.579l-0.071-2.032-0.049 2.356c-0.042 2.039-0.1 2.337-0.427 2.211-0.208-0.080-0.423-0.145-0.478-0.145-0.254 0-0.078-4.468 0.187-4.733 0.158-0.158 0.911-0.287 1.673-0.287 1.22 0 1.386 0.057 1.386 0.471 0 0.301-0.118 0.425-0.329 0.344-0.249-0.096-0.369 0.243-0.491 1.388-0.089 0.833-0.096 1.686-0.015 1.896 0.088 0.229-0.002 0.439-0.226 0.525-0.205 0.079-0.372 0.301-0.372 0.495 0 0.599-0.457 0.67-0.59 0.091z"></path>
</svg>
