<!-- Generated by IcoMoon.io -->
<svg version="1.1" xmlns="http://www.w3.org/2000/svg" width="33" height="32" viewBox="0 0 33 32">
<title>arkham</title>
<path d="M4.889 29.981l-0.028-0.019v-0.79c0-0.598 0.004-0.793 0.015-0.805 0.022-0.022 7.729-0.022 7.751 0 0.019 0.019 0.021 1.579 0.003 1.608-0.010 0.016-0.455 0.019-3.863 0.022-3.474 0.003-3.854 0.001-3.878-0.016zM7.056 29.642l0.029-0.024v-0.395c0-0.492 0.011-0.462-0.168-0.462-0.187 0-0.173-0.036-0.173 0.458 0 0.354 0.003 0.411 0.019 0.427 0.015 0.015 0.047 0.019 0.141 0.019 0.101 0 0.127-0.004 0.151-0.024zM10.159 29.639c0.022-0.024 0.024-0.052 0.028-0.35 0.004-0.348-0.002-0.463-0.028-0.499-0.013-0.018-0.038-0.024-0.111-0.027-0.052-0.003-0.114-0.001-0.138 0.004-0.073 0.014-0.076 0.034-0.075 0.476 0.001 0.369 0.003 0.389 0.025 0.406 0.017 0.012 0.061 0.018 0.15 0.018 0.112 0 0.128-0.003 0.149-0.026zM13.017 29.981l-0.028-0.020v-2.408c0-2.118 0.002-2.41 0.018-2.427 0.010-0.010 0.055-0.022 0.101-0.027 0.092-0.010 0.395-0.001 0.428 0.013 0.012 0.005 0.024 0.026 0.028 0.048s0.005 1.111 0.003 2.42c-0.003 1.932-0.007 2.384-0.020 2.397-0.012 0.012-0.080 0.017-0.26 0.020-0.208 0.003-0.248 0.001-0.272-0.016zM21.221 29.982c-0.024-0.017-0.024-0.056-0.024-2.428 0-2.258 0.001-2.412 0.021-2.432 0.019-0.019 0.052-0.021 0.265-0.022 0.241-0.001 0.244-0 0.267 0.028s0.023 0.090 0.023 2.425c0 2.38-0 2.396-0.025 2.421-0.023 0.023-0.041 0.025-0.264 0.025-0.187 0-0.244-0.004-0.263-0.018zM22.17 29.991c-0.050-0.018-0.050-0.018-0.050-0.819 0-0.509 0.004-0.781 0.013-0.797 0.013-0.024 0.069-0.024 3.877-0.024 3.579 0 3.865 0.002 3.881 0.020 0.014 0.017 0.017 0.159 0.017 0.806 0 0.764-0.001 0.786-0.024 0.803-0.021 0.015-0.565 0.017-3.859 0.017-2.109-0.001-3.844-0.004-3.854-0.008zM24.903 29.639c0.022-0.025 0.024-0.050 0.024-0.429v-0.402l-0.029-0.024c-0.024-0.019-0.049-0.024-0.14-0.024-0.101 0-0.113 0.003-0.141 0.030l-0.030 0.030v0.402c0 0.349 0.003 0.405 0.019 0.422 0.015 0.015 0.048 0.019 0.147 0.019 0.114 0 0.13-0.003 0.151-0.026zM27.998 29.646c0.011-0.011 0.020-0.029 0.020-0.040s0.003-0.166 0.006-0.343 0.003-0.351-0.002-0.387c-0.012-0.101-0.022-0.108-0.156-0.113-0.103-0.004-0.119-0.001-0.15 0.023l-0.034 0.027v0.414c0 0.381 0.002 0.415 0.022 0.426 0.012 0.007 0.078 0.013 0.148 0.013 0.099 0 0.13-0.004 0.146-0.019zM13.965 29.962c-0.054-0.013-0.060-0.049-0.057-0.318 0.003-0.221 0.006-0.253 0.025-0.273 0.021-0.021 0.069-0.022 0.699-0.026 0.594-0.003 0.68-0.001 0.706 0.016l0.029 0.019v0.27c0 0.197-0.004 0.275-0.015 0.29-0.014 0.019-0.078 0.021-0.687 0.024-0.369 0.002-0.684 0-0.7-0.003zM15.759 29.959c-0.017-0.006-0.034-0.019-0.039-0.031-0.015-0.037-0.006-4.751 0.008-4.769 0.020-0.024 0.504-0.023 0.537 0.002 0.024 0.017 0.024 0.056 0.024 2.391 0 2.093-0.002 2.375-0.019 2.391-0.015 0.014-0.069 0.019-0.251 0.022-0.128 0.002-0.246-0-0.262-0.006zM16.697 29.965c-0.059-0.008-0.065-0.038-0.065-0.312 0-0.14 0.004-0.261 0.009-0.268 0.027-0.040 0.065-0.042 0.699-0.042 0.556 0 0.64 0.002 0.664 0.019 0.027 0.019 0.028 0.024 0.028 0.296 0 0.21-0.004 0.28-0.016 0.29-0.015 0.012-1.242 0.028-1.319 0.017zM19.361 29.965c-0.055-0.008-0.059-0.026-0.055-0.303 0.002-0.144 0.009-0.271 0.015-0.283s0.030-0.025 0.052-0.029c0.022-0.004 0.357-0.006 0.744-0.004 0.68 0.004 0.705 0.004 0.722 0.028 0.014 0.019 0.018 0.079 0.018 0.287 0 0.283-0.004 0.302-0.066 0.302-0.015-0-0.336 0.001-0.715 0.003s-0.7 0.002-0.715-0.001zM18.393 29.948c-0.011-0.011-0.015-0.558-0.015-2.382 0-2.123 0.002-2.37 0.019-2.395 0.019-0.027 0.025-0.028 0.272-0.028s0.253 0.001 0.272 0.028c0.017 0.025 0.019 0.271 0.019 2.382s-0.002 2.358-0.019 2.382c-0.019 0.027-0.025 0.028-0.276 0.028-0.183 0-0.261-0.004-0.272-0.015zM13.941 28.973l-0.029-0.024-0.004-1.039c-0.004-1.167 0.004-1.399 0.051-1.538 0.066-0.194 0.198-0.344 0.382-0.435 0.327-0.161 0.649-0.122 0.903 0.108 0.135 0.122 0.123-0.028 0.123 1.534l0 1.364-0.057 0.054h-0.67c-0.641 0-0.671-0.001-0.699-0.024zM16.662 28.966l-0.031-0.031 0.003-1.286 0.003-1.286 0.049-0.098c0.036-0.073 0.073-0.123 0.143-0.193 0.304-0.304 0.793-0.31 1.091-0.012 0.056 0.056 0.086 0.097 0.096 0.132 0.011 0.038 0.015 0.386 0.015 1.403 0 1.336-0 1.352-0.025 1.377s-0.041 0.025-0.67 0.025h-0.645zM19.338 28.968l-0.033-0.029 0.002-1.248c0.002-1.050 0.005-1.259 0.020-1.319 0.063-0.249 0.257-0.44 0.514-0.506 0.106-0.027 0.303-0.028 0.408-0.001 0.219 0.056 0.41 0.209 0.506 0.405 0.101 0.205 0.094 0.107 0.098 1.464 0.004 1.203 0.004 1.211-0.021 1.236s-0.038 0.025-0.743 0.025h-0.718l-0.033-0.029zM4.934 27.995c-0.018-0.002-0.043-0.015-0.056-0.029-0.022-0.025-0.023-0.117-0.019-2.964 0.002-1.616 0.007-2.954 0.010-2.972s0.014-0.034 0.023-0.034c0.030 0 1.090 0.645 1.131 0.688 0.025 0.026 0.040 0.056 0.041 0.077 0 0.019 0.002 0.164 0.003 0.323 0.003 0.288 0.003 0.289 0.032 0.313s0.060 0.024 0.815 0.024h0.786l0.063-0.063-0.006-1.21c-0.005-0.99-0.010-1.24-0.026-1.371-0.025-0.206-0.025-0.291 0-0.437 0.016-0.095 0.018-0.134 0.007-0.199-0.024-0.142-0.075-0.183-0.256-0.201-0.065-0.007-0.134-0.018-0.152-0.025s-0.078-0.056-0.133-0.109c-0.055-0.053-0.136-0.12-0.179-0.15-0.106-0.072-0.307-0.166-0.435-0.204l-0.105-0.031 17.55-0.001 0.020 0.031c0.018 0.027 0.019 0.078 0.015 0.437-0.006 0.442-0.010 0.471-0.084 0.635-0.020 0.044-0.042 0.106-0.049 0.136-0.008 0.035-0.012 0.553-0.013 1.389-0 1.226 0.001 1.335 0.020 1.351 0.017 0.014 0.16 0.017 0.817 0.017 0.748 0 0.798-0.001 0.819-0.022s0.022-0.058 0.023-0.477c0.001-0.535 0.011-0.62 0.123-1.056 0.095-0.367 0.131-0.461 0.264-0.685 0.319-0.534 0.634-0.951 0.979-1.294 0.163-0.162 0.429-0.389 0.503-0.429l0.050-0.027 1.178-0.003c1.089-0.003 1.18-0.002 1.196 0.017 0.026 0.031 0.026 8.502 0 8.533-0.016 0.019-0.302 0.020-3.879 0.020-2.987 0-3.865-0.003-3.877-0.015s-0.015-0.437-0.015-1.838c0-1.681 0.002-1.825 0.020-1.841 0.017-0.014 0.191-0.018 0.975-0.023 0.702-0.005 0.955-0.010 0.959-0.020 0.003-0.008-0.011-0.025-0.030-0.038-0.032-0.022-1.027-0.506-2.339-1.138-0.286-0.138-0.562-0.271-0.613-0.296-0.092-0.045-0.15-0.090-0.178-0.137-0.010-0.018-0.016-0.293-0.021-1.004-0.006-0.891-0.009-0.985-0.029-1.053-0.080-0.268-0.271-0.475-0.537-0.579-0.083-0.033-0.117-0.039-0.239-0.044-0.172-0.007-0.255 0.011-0.409 0.086-0.084 0.041-0.127 0.073-0.212 0.159-0.090 0.090-0.116 0.126-0.163 0.224-0.091 0.188-0.095 0.226-0.095 0.846 0 0.462-0.003 0.54-0.019 0.553-0.019 0.016-0.24-0.087-1.325-0.617-0.38-0.186-0.426-0.205-0.483-0.205-0.054 0.001-0.101 0.020-0.336 0.134-0.571 0.279-1.414 0.685-1.439 0.693-0.017 0.005-0.031 0.002-0.037-0.007-0.006-0.009-0.011-0.264-0.012-0.567-0.002-0.519-0.003-0.557-0.028-0.65-0.085-0.319-0.302-0.541-0.614-0.626-0.136-0.037-0.344-0.030-0.468 0.016-0.31 0.116-0.509 0.369-0.561 0.713-0.015 0.097-0.018 0.294-0.018 1.018-0 0.872-0.001 0.899-0.025 0.938-0.019 0.031-0.058 0.056-0.177 0.113-0.201 0.097-1.5 0.725-2.308 1.116-0.354 0.172-0.651 0.318-0.66 0.325s-0.015 0.020-0.015 0.030c0 0.014 0.151 0.017 0.947 0.017h0.947l0.067 0.058v1.806c0 1.791-0 1.806-0.025 1.831s-0.039 0.025-3.84 0.027c-2.098 0.001-3.829 0-3.848-0.002zM7.702 27.734c0.016-0.006 0.037-0.027 0.045-0.047 0.011-0.027 0.014-0.351 0.011-1.361-0.004-1.22-0.006-1.331-0.026-1.399-0.086-0.292-0.298-0.516-0.572-0.601-0.12-0.038-0.329-0.047-0.445-0.020-0.237 0.056-0.438 0.223-0.553 0.459-0.096 0.199-0.091 0.106-0.096 1.561-0.003 0.888-0 1.315 0.009 1.346 0.007 0.025 0.025 0.050 0.041 0.058 0.035 0.017 1.542 0.021 1.586 0.004zM10.793 27.737c0.067-0.018 0.065 0.025 0.064-1.339-0-0.713-0.005-1.3-0.012-1.351-0.067-0.513-0.525-0.845-1.022-0.74-0.233 0.049-0.45 0.22-0.555 0.441-0.108 0.225-0.1 0.111-0.105 1.579-0.003 0.887-0 1.315 0.009 1.346 0.007 0.025 0.025 0.050 0.041 0.058 0.030 0.015 1.527 0.021 1.58 0.007zM25.573 27.717c0.021-0.021 0.022-0.092 0.026-1.276 0.002-0.796-0.001-1.298-0.009-1.373-0.037-0.35-0.251-0.625-0.573-0.738-0.119-0.042-0.322-0.053-0.447-0.023-0.166 0.039-0.356 0.158-0.462 0.29-0.078 0.097-0.149 0.243-0.175 0.358-0.020 0.089-0.022 0.202-0.023 1.414l-0.001 1.317 0.070 0.060 0.785-0.003c0.735-0.003 0.787-0.005 0.807-0.026zM28.677 27.723c0.013-0.013 0.016-0.273 0.016-1.357v-1.341l-0.029-0.099c-0.050-0.172-0.107-0.272-0.225-0.392-0.085-0.086-0.126-0.117-0.211-0.158-0.236-0.115-0.506-0.118-0.737-0.007-0.227 0.109-0.385 0.308-0.455 0.576l-0.028 0.105v2.635l0.070 0.060 0.791-0.003c0.629-0.003 0.795-0.007 0.807-0.019zM10.8 23.407c0.017-0.008 0.037-0.029 0.044-0.047 0.010-0.023 0.013-0.409 0.010-1.346-0.004-1.471 0.002-1.368-0.097-1.573-0.115-0.239-0.324-0.408-0.572-0.46-0.121-0.026-0.321-0.017-0.431 0.018-0.245 0.079-0.452 0.289-0.538 0.548-0.055 0.166-0.058 0.247-0.054 1.57l0.004 1.243 0.070 0.060h0.767c0.544 0 0.776-0.004 0.798-0.014zM28.671 23.393c0.021-0.021 0.022-0.093 0.026-1.301 0.003-0.898-0-1.308-0.010-1.377-0.029-0.201-0.114-0.372-0.253-0.509-0.102-0.1-0.189-0.155-0.318-0.202-0.082-0.030-0.107-0.033-0.264-0.033-0.163 0-0.179 0.002-0.273 0.038-0.275 0.105-0.461 0.31-0.542 0.597-0.026 0.094-0.027 0.11-0.031 1.396-0.003 0.939-0.001 1.314 0.009 1.348 0.008 0.029 0.025 0.051 0.041 0.058 0.015 0.006 0.372 0.010 0.81 0.009 0.733-0.002 0.785-0.004 0.805-0.025zM13.918 25.762c-0.009-0.017-0.012-0.125-0.010-0.322 0.003-0.265 0.006-0.299 0.026-0.319s0.066-0.022 0.705-0.022l0.682 0.001 0.023 0.029c0.021 0.026 0.023 0.053 0.023 0.276 0 0.212-0.003 0.248-0.019 0.254-0.011 0.004-0.079-0.021-0.152-0.056-0.175-0.083-0.303-0.113-0.479-0.113-0.237 0-0.393 0.051-0.636 0.21-0.074 0.048-0.138 0.087-0.142 0.087s-0.014-0.011-0.021-0.025zM20.726 25.718c-0.113-0.080-0.285-0.164-0.402-0.198-0.113-0.033-0.415-0.033-0.539-0-0.11 0.029-0.271 0.103-0.363 0.168-0.086 0.060-0.114 0.064-0.114 0.016 0-0.019-0.001-0.146-0.002-0.282s0.002-0.26 0.007-0.275c0.005-0.015 0.024-0.032 0.042-0.038s0.353-0.011 0.744-0.010l0.711 0.001 0.024 0.029c0.022 0.027 0.024 0.052 0.023 0.316-0 0.273-0.005 0.342-0.023 0.342-0.005 0-0.053-0.031-0.107-0.070zM16.64 25.73c-0.005-0.005-0.008-0.135-0.008-0.29 0-0.259 0.002-0.284 0.024-0.311l0.024-0.029 0.652 0.001c0.63 0.001 0.653 0.001 0.675 0.025 0.029 0.029 0.029 0.031 0.027 0.306-0.001 0.183-0.005 0.222-0.020 0.227-0.010 0.004-0.056-0.012-0.102-0.036-0.202-0.104-0.362-0.14-0.581-0.13-0.211 0.009-0.353 0.057-0.566 0.19-0.088 0.055-0.108 0.062-0.124 0.047zM13.091 24.751c-0.005-0.001-0.024-0.005-0.041-0.009-0.048-0.010-0.061-0.055-0.061-0.207 0-0.156 0.017-0.214 0.071-0.238 0.027-0.012 0.938-0.015 4.357-0.015 4.264 0 4.322 0 4.34 0.024 0.013 0.018 0.018 0.069 0.018 0.212 0 0.166-0.003 0.19-0.023 0.208s-0.347 0.021-4.336 0.024c-2.373 0.002-4.318 0.002-4.323 0.001zM12.191 23.891c0.021-0.014 0.894-0.439 1.939-0.946s2.19-1.062 2.545-1.235c0.577-0.281 0.651-0.313 0.706-0.314s0.12 0.028 0.65 0.285c0.324 0.157 1.416 0.687 2.428 1.178s1.905 0.924 1.986 0.963c0.080 0.039 0.146 0.076 0.146 0.082s-2.132 0.011-5.219 0.011c-5.217-0-5.219-0-5.181-0.025zM17.521 23.401c0.339-0.069 0.587-0.363 0.607-0.719 0.021-0.38-0.239-0.728-0.6-0.804-0.162-0.034-0.306-0.013-0.472 0.068-0.3 0.148-0.472 0.502-0.408 0.841 0.068 0.357 0.373 0.62 0.73 0.632 0.026 0.001 0.090-0.007 0.142-0.018zM17.251 23.042c-0.184-0.067-0.282-0.221-0.27-0.43 0.009-0.164 0.089-0.288 0.227-0.351 0.158-0.072 0.342-0.043 0.458 0.074 0.085 0.085 0.118 0.171 0.118 0.305 0 0.176-0.078 0.31-0.219 0.379-0.088 0.043-0.229 0.053-0.314 0.022zM24.293 23.075c-0.015-0.006-0.032-0.027-0.039-0.046-0.013-0.036-0.005-0.963 0.021-2.595 0.012-0.735 0.015-0.809 0.038-0.898 0.032-0.125 0.115-0.291 0.216-0.432 0.044-0.061 0.080-0.12 0.080-0.13s-0.028-0.044-0.062-0.075c-0.055-0.051-0.062-0.062-0.062-0.109 0-0.069 0.030-0.125 0.132-0.243 0.107-0.124 0.268-0.254 0.386-0.313l0.091-0.045 0.076 0.022c0.144 0.041 0.132 0.044 0.242-0.048 0.055-0.046 0.103-0.096 0.107-0.112 0.005-0.019-0.004-0.048-0.025-0.084-0.037-0.064-0.041-0.121-0.010-0.173 0.033-0.056 0.485-0.383 0.579-0.419 0.077-0.029 0.138-0.012 0.2 0.058 0.034 0.039 0.043 0.043 0.082 0.036 0.024-0.004 0.073-0.031 0.11-0.058s0.085-0.058 0.107-0.067c0.054-0.023 0.060-0.045 0.034-0.122-0.021-0.062-0.021-0.067-0-0.11 0.024-0.051 0.111-0.111 0.367-0.255 0.192-0.107 0.236-0.126 0.3-0.126 0.044 0 0.057 0.007 0.102 0.056 0.034 0.037 0.062 0.056 0.082 0.056 0.023 0 0.243-0.117 0.27-0.144 0.003-0.003-0.004-0.022-0.015-0.041-0.029-0.049-0.027-0.119 0.004-0.149s0.251-0.142 0.443-0.222c0.212-0.089 0.275-0.085 0.332 0.024 0.014 0.026 0.028 0.037 0.051 0.037 0.032 0 0.191-0.081 0.191-0.098 0-0.005-0.020-0.028-0.043-0.051-0.066-0.064-0.060-0.1 0.028-0.186 0.143-0.139 0.385-0.273 0.495-0.273 0.035 0 0.098 0.030 0.135 0.064 0.026 0.023 0.026 0.023 0.084-0.021 0.054-0.041 0.058-0.048 0.058-0.1 0-0.031 0.008-0.075 0.018-0.1 0.026-0.062 0.19-0.215 0.33-0.309s0.194-0.151 0.273-0.292c0.032-0.057 0.090-0.15 0.13-0.206 0.076-0.107 0.106-0.127 0.219-0.145 0.060-0.010 0.068-0.033 0.035-0.101-0.036-0.073-0.034-0.119 0.012-0.26 0.066-0.207 0.077-0.225 0.151-0.259 0.036-0.017 0.078-0.030 0.093-0.030 0.046-0 0.043-0.081-0.005-0.144-0.064-0.083-0.083-0.236-0.052-0.412 0.012-0.071 0.021-0.088 0.080-0.152 0.072-0.079 0.095-0.136 0.080-0.203-0.012-0.051-0.024-0.069-0.155-0.213-0.114-0.126-0.25-0.301-0.281-0.363-0.029-0.056-0.028-0.12 0.003-0.177 0.014-0.025 0.025-0.055 0.025-0.065 0-0.028-0.13-0.125-0.242-0.181-0.211-0.105-0.4-0.109-0.597-0.011-0.182 0.090-0.328 0.266-0.473 0.571-0.115 0.241-0.173 0.456-0.2 0.736-0.026 0.27 0.004 0.543 0.12 1.114 0.12 0.588 0.129 0.642 0.116 0.655-0.007 0.007-0.014 0.010-0.017 0.007-0.015-0.017-0.404-0.609-0.428-0.651-0.016-0.028-0.051-0.064-0.078-0.081-0.15-0.090-0.165-0.103-0.218-0.197-0.029-0.051-0.062-0.124-0.073-0.161-0.019-0.063-0.019-0.073 0.001-0.142 0.046-0.16 0.037-0.196-0.062-0.259-0.031-0.020-0.069-0.056-0.085-0.080-0.063-0.098-0.081-0.372-0.033-0.497 0.037-0.096 0.034-0.128-0.017-0.184-0.054-0.060-0.069-0.099-0.068-0.18 0.001-0.152 0.057-0.313 0.165-0.471 0.063-0.092 0.067-0.108 0.039-0.162-0.023-0.045-0.023-0.104 0.001-0.205 0.029-0.125 0.086-0.218 0.205-0.336 0.103-0.102 0.158-0.14 0.222-0.154 0.017-0.004 0.049-0.018 0.071-0.031 0.038-0.024 0.050-0.049 0.072-0.155 0.009-0.044 0.065-0.098 0.16-0.155 0.135-0.081 0.168-0.087 0.476-0.087l0.277-0 0.094-0.046c0.092-0.045 0.097-0.046 0.225-0.045 0.105 0.001 0.157 0.009 0.266 0.040 0.155 0.044 0.181 0.063 0.214 0.163 0.028 0.084 0.073 0.118 0.173 0.13 0.093 0.012 0.22 0.051 0.284 0.089 0.081 0.048 0.164 0.14 0.21 0.235 0.037 0.076 0.061 0.104 0.183 0.212 0.388 0.343 0.653 0.798 0.762 1.304 0.054 0.249 0.068 0.403 0.068 0.706-0 0.313-0.017 0.488-0.074 0.761-0.185 0.882-0.737 1.74-1.57 2.438-0.401 0.337-0.686 0.526-1.91 1.273-1.175 0.718-1.266 0.776-1.505 0.967-0.283 0.227-0.506 0.45-0.783 0.787-0.073 0.088-0.18 0.215-0.237 0.282-0.245 0.283-0.571 0.804-0.666 1.063-0.043 0.117-0.188 0.666-0.211 0.798-0.010 0.056-0.016 0.235-0.016 0.504-0.001 0.384-0.003 0.42-0.023 0.44s-0.059 0.022-0.477 0.025c-0.25 0.001-0.467-0.002-0.481-0.008zM7.296 23.010c-0.034-0.021-0.096-0.071-0.137-0.11-0.099-0.095-0.198-0.157-0.495-0.313-0.938-0.492-1.769-1.022-2.313-1.476-0.954-0.795-1.488-1.732-1.654-2.907-0.018-0.124-0.022-0.239-0.022-0.582 0-0.466 0.004-0.519 0.099-1.431 0.096-0.916 0.109-1.080 0.11-1.32 0.001-0.304-0.033-0.449-0.154-0.657-0.156-0.268-0.476-0.5-1.059-0.768-0.519-0.239-0.741-0.366-0.929-0.529-0.218-0.189-0.345-0.382-0.423-0.641-0.029-0.095-0.034-0.135-0.034-0.273-0.001-0.183 0.023-0.292 0.096-0.436l0.041-0.082 0.045 0.072c0.050 0.079 0.101 0.269 0.116 0.425l0.008 0.090 0.125 0.128c0.069 0.070 0.153 0.16 0.187 0.2l0.062 0.072 0.118 0.009c0.144 0.011 0.214 0.043 0.328 0.149 0.091 0.085 0.125 0.097 0.203 0.073 0.173-0.053 0.402 0.024 0.515 0.173 0.063 0.083 0.089 0.094 0.158 0.067 0.029-0.011 0.081-0.023 0.117-0.026 0.062-0.005 0.075-0.001 0.273 0.101 0.114 0.059 0.215 0.116 0.223 0.127s0.015 0.034 0.015 0.050c0 0.053 0.038 0.114 0.086 0.139 0.025 0.013 0.097 0.029 0.162 0.036 0.16 0.018 0.241 0.059 0.358 0.182l0.089 0.094-0.008 0.101c-0.008 0.095-0.007 0.103 0.021 0.128 0.016 0.015 0.061 0.039 0.099 0.053 0.054 0.020 0.088 0.045 0.144 0.105 0.128 0.137 0.163 0.245 0.121 0.367-0.042 0.12-0.016 0.209 0.094 0.311l0.074 0.069 0.018 0.117c0.010 0.064 0.022 0.184 0.026 0.265 0.007 0.148 0.007 0.149-0.031 0.229-0.043 0.090-0.045 0.106-0.024 0.176 0.011 0.036 0.028 0.058 0.063 0.080 0.069 0.044 0.084 0.090 0.092 0.288 0.010 0.232 0.003 0.271-0.065 0.35-0.060 0.071-0.078 0.128-0.054 0.173 0.009 0.016 0.040 0.058 0.069 0.092s0.061 0.082 0.071 0.105c0.034 0.083 0.076 0.528 0.057 0.597-0.016 0.055-0.044 0.093-0.085 0.114-0.072 0.037-0.059 0.108 0.024 0.13 0.065 0.017 0.119 0.065 0.154 0.135 0.038 0.075 0.122 0.319 0.149 0.432 0.021 0.088 0.021 0.092-0.005 0.197-0.015 0.059-0.024 0.109-0.021 0.113s0.029-0.003 0.057-0.014c0.115-0.046 0.169-0.015 0.378 0.212 0.23 0.251 0.26 0.292 0.26 0.362 0 0.035-0.008 0.069-0.022 0.088-0.012 0.017-0.036 0.049-0.053 0.073-0.040 0.055-0.039 0.069 0.008 0.089 0.032 0.013 0.046 0.013 0.077-0 0.056-0.024 0.148-0.030 0.2-0.013 0.049 0.016 0.425 0.262 0.496 0.324 0.025 0.022 0.053 0.055 0.063 0.074 0.021 0.040 0.024 0.138 0.005 0.173-0.023 0.042-0.002 0.085 0.050 0.1 0.042 0.013 0.052 0.011 0.105-0.020 0.051-0.030 0.067-0.033 0.135-0.028 0.089 0.007 0.259 0.079 0.472 0.199 0.165 0.093 0.194 0.127 0.205 0.24 0.008 0.076 0.012 0.085 0.057 0.124 0.064 0.054 0.093 0.053 0.141-0.007 0.021-0.026 0.052-0.052 0.070-0.056 0.045-0.011 0.095 0.017 0.12 0.067 0.020 0.040 0.022 0.13 0.022 1.334 0 0.809-0.005 1.303-0.012 1.323-0.016 0.043-0.053 0.041-0.13-0.007zM6.128 19.058c-0.094-0.016-0.141-0.038-0.296-0.142-0.169-0.113-0.237-0.184-0.296-0.309-0.039-0.082-0.071-0.122-0.218-0.273-0.112-0.116-0.172-0.186-0.172-0.203 0-0.032 0.608-0.637 0.679-0.676 0.045-0.025 0.072-0.025 9.669-0.028 6.243-0.002 9.634 0.001 9.655 0.009 0.026 0.010 0.032 0.020 0.031 0.053-0.002 0.059-0.076 0.272-0.1 0.287-0.015 0.009-0.052 0.006-0.132-0.010-0.37-0.075-0.685 0.058-0.873 0.367-0.063 0.104-0.078 0.16-0.121 0.45-0.052 0.356-0.070 0.405-0.165 0.456l-0.051 0.027-8.772 0.002c-5.008 0.001-8.8-0.003-8.837-0.009zM7.69 18.724c0.031-0.024 0.033-0.031 0.033-0.14 0-0.364-0.23-0.693-0.564-0.808-0.086-0.030-0.118-0.034-0.242-0.034-0.127-0-0.154 0.004-0.249 0.038-0.31 0.11-0.518 0.37-0.554 0.693-0.015 0.132-0.002 0.226 0.034 0.255 0.027 0.022 0.068 0.023 0.768 0.023 0.73 0 0.741-0 0.773-0.026zM6.511 18.374c-0.020-0.024 0.026-0.108 0.087-0.164 0.147-0.133 0.399-0.155 0.566-0.050 0.052 0.033 0.133 0.119 0.152 0.162 0.031 0.069 0.033 0.068-0.397 0.068-0.311 0-0.398-0.003-0.409-0.016zM10.789 18.723l0.034-0.027-0.006-0.137c-0.011-0.241-0.089-0.422-0.257-0.59-0.315-0.315-0.79-0.312-1.108 0.006-0.16 0.16-0.24 0.345-0.251 0.578-0.006 0.129-0.005 0.133 0.026 0.164l0.032 0.032h1.497zM9.599 18.373c-0.020-0.051 0.101-0.188 0.209-0.238 0.069-0.032 0.091-0.036 0.201-0.036 0.108 0 0.133 0.004 0.193 0.032 0.086 0.040 0.152 0.098 0.193 0.168 0.055 0.094 0.069 0.091-0.386 0.091-0.336 0-0.405-0.003-0.41-0.017zM15.5 18.718c0.031-0.032 0.032-0.035 0.026-0.164-0.014-0.297-0.175-0.569-0.419-0.712-0.539-0.314-1.202 0.104-1.202 0.759 0 0.077 0.004 0.092 0.030 0.118l0.030 0.030h1.501zM14.306 18.371c-0.018-0.047 0.108-0.19 0.213-0.241 0.054-0.027 0.079-0.030 0.198-0.030 0.126 0 0.142 0.003 0.202 0.035 0.111 0.058 0.224 0.189 0.205 0.237-0.007 0.017-0.056 0.019-0.409 0.019s-0.403-0.002-0.409-0.019zM20.812 18.738c0.091-0.035 0.063-0.346-0.051-0.562-0.053-0.1-0.187-0.248-0.283-0.312-0.038-0.025-0.114-0.063-0.17-0.084-0.094-0.036-0.113-0.038-0.256-0.038s-0.163 0.003-0.256 0.038c-0.134 0.051-0.22 0.11-0.324 0.221-0.135 0.144-0.211 0.32-0.231 0.533-0.010 0.108 0.008 0.188 0.047 0.203 0.038 0.015 1.485 0.016 1.525 0.001zM19.647 18.372c-0.021-0.055 0.085-0.179 0.201-0.236 0.067-0.033 0.085-0.036 0.204-0.036 0.109 0 0.14 0.005 0.191 0.028 0.086 0.039 0.159 0.103 0.193 0.167 0.053 0.099 0.066 0.096-0.384 0.096-0.344 0-0.398-0.003-0.404-0.019zM28.316 19.060c-0.152-0.004-0.23-0.011-0.233-0.020-0.006-0.018-0.015-0.012 0.795-0.499 0.432-0.26 0.692-0.41 0.712-0.409 0.017 0 0.044 0.007 0.058 0.015 0.047 0.026 0.897 0.871 0.897 0.89 0 0.016-0.049 0.020-0.362 0.027-0.397 0.009-1.506 0.007-1.867-0.004zM11.391 17.059c-0.013-0.015 0.005-0.056 0.102-0.232 0.457-0.829 0.543-1.069 0.504-1.396-0.046-0.386-0.271-0.701-0.62-0.868-0.163-0.078-0.274-0.102-0.464-0.103-0.178-0.001-0.318 0.024-0.513 0.089-0.247 0.083-0.391 0.165-0.873 0.496-0.452 0.311-0.752 0.482-1.104 0.631-0.714 0.302-1.463 0.391-2.028 0.243-0.606-0.159-1.043-0.528-1.249-1.054-0.128-0.327-0.191-0.762-0.161-1.119 0.067-0.815 0.463-1.373 1.326-1.868 0.18-0.103 0.499-0.261 0.843-0.418 0.794-0.362 0.976-0.454 1.208-0.607 0.363-0.241 0.549-0.483 0.613-0.799 0.016-0.077 0.027-0.106 0.042-0.109 0.018-0.004 0.020 0.017 0.020 0.198 0 0.223 0.007 0.262 0.062 0.349 0.043 0.068 0.047 0.119 0.017 0.22-0.034 0.113-0.078 0.188-0.156 0.262l-0.075 0.071-0.010 0.096c-0.021 0.204-0.141 0.395-0.299 0.475-0.051 0.026-0.119 0.028-0.174 0.006-0.015-0.006-0.031 0.005-0.059 0.044-0.038 0.053-0.042 0.063-0.056 0.15-0.011 0.068-0.056 0.112-0.179 0.176-0.134 0.069-0.18 0.073-0.241 0.020-0.023-0.020-0.048-0.037-0.055-0.037-0.015 0-0.035 0.051-0.046 0.113-0.014 0.087-0.121 0.195-0.229 0.232-0.058 0.020-0.126 0.018-0.18-0.005-0.062-0.026-0.079-0.014-0.149 0.107-0.064 0.11-0.164 0.225-0.222 0.255-0.025 0.013-0.055 0.017-0.095 0.012-0.052-0.006-0.061-0.004-0.078 0.023-0.011 0.017-0.020 0.056-0.020 0.090 0 0.080-0.042 0.162-0.133 0.26-0.067 0.072-0.076 0.077-0.125 0.077-0.040 0-0.060 0.008-0.083 0.030-0.038 0.038-0.038 0.049 0.002 0.137 0.064 0.141 0.050 0.313-0.036 0.427-0.022 0.030-0.046 0.061-0.053 0.071-0.009 0.013 0.003 0.031 0.052 0.076 0.122 0.111 0.174 0.238 0.16 0.392-0.014 0.152 0.026 0.198 0.222 0.255 0.235 0.068 0.291 0.108 0.291 0.205 0 0.034 0.007 0.059 0.022 0.071 0.054 0.047 0.274 0.090 0.4 0.078 0.179-0.017 0.495-0.119 0.743-0.239 0.19-0.092 0.339-0.184 0.706-0.437 0.47-0.324 0.666-0.453 0.849-0.563 0.194-0.116 0.223-0.142 0.24-0.212 0.011-0.044 0.023-0.060 0.066-0.085 0.059-0.035 0.229-0.1 0.33-0.126 0.063-0.017 0.072-0.016 0.156 0.013 0.123 0.043 0.149 0.040 0.203-0.017 0.025-0.026 0.055-0.062 0.067-0.081 0.038-0.056 0.073-0.070 0.245-0.095 0.289-0.043 0.577-0.028 0.724 0.037 0.030 0.013 0.078 0.054 0.117 0.099 0.101 0.116 0.163 0.138 0.237 0.086 0.020-0.015 0.060-0.029 0.089-0.032 0.045-0.005 0.065 0.002 0.156 0.057 0.182 0.11 0.236 0.157 0.27 0.235 0.017 0.038 0.038 0.088 0.048 0.11 0.025 0.056 0.061 0.075 0.169 0.088 0.060 0.007 0.108 0.021 0.13 0.037 0.019 0.014 0.111 0.102 0.203 0.197 0.19 0.193 0.201 0.214 0.165 0.314-0.018 0.050-0.019 0.069-0.008 0.108 0.008 0.026 0.022 0.058 0.032 0.072 0.017 0.023 0.019 0.024 0.063 0.003 0.111-0.053 0.145-0.023 0.195 0.171 0.074 0.29 0.109 0.466 0.098 0.494-0.006 0.015-0.028 0.043-0.049 0.063-0.032 0.031-0.038 0.045-0.038 0.093 0.001 0.081 0.019 0.163 0.038 0.176 0.009 0.006 0.040 0.008 0.067 0.004 0.047-0.007 0.053-0.004 0.096 0.043 0.025 0.028 0.046 0.063 0.045 0.079-0.001 0.074-0.025 0.375-0.038 0.478-0.022 0.174-0.071 0.219-0.188 0.17-0.055-0.023-0.062-0.015-0.090 0.097-0.025 0.1-0.016 0.132 0.050 0.171 0.025 0.015 0.047 0.039 0.052 0.058 0.016 0.063-0.042 0.457-0.073 0.494s-0.119 0.040-1.189 0.040c-0.947 0-1.088-0.002-1.101-0.018zM14.65 17.066c-0.020-0.006-0.034-0.021-0.040-0.047-0.005-0.021-0.009-1.185-0.007-2.586 0.003-2.426 0.004-2.548 0.025-2.569s0.15-0.022 2.744-0.025c2.179-0.002 2.728 0 2.753 0.013l0.031 0.016v5.178l-0.031 0.016c-0.025 0.012-0.578 0.015-2.738 0.015-1.489-0.001-2.721-0.005-2.738-0.009zM17.7 15.741c0.354-0.095 0.665-0.358 0.827-0.699 0.249-0.524 0.139-1.151-0.27-1.547-0.163-0.158-0.348-0.264-0.56-0.322-0.092-0.025-0.132-0.029-0.322-0.028-0.197 0.001-0.226 0.004-0.324 0.034-0.148 0.045-0.229 0.083-0.355 0.165-0.478 0.311-0.703 0.929-0.541 1.486 0.129 0.446 0.477 0.793 0.912 0.909 0.136 0.036 0.138 0.037 0.345 0.033 0.147-0.003 0.215-0.010 0.288-0.030zM17.211 15.411c-0.373-0.071-0.668-0.364-0.746-0.74-0.090-0.44 0.12-0.895 0.503-1.089 0.242-0.122 0.581-0.124 0.819-0.003 0.258 0.13 0.429 0.344 0.505 0.63 0.037 0.138 0.037 0.357 0 0.496-0.076 0.286-0.248 0.5-0.505 0.63-0.156 0.079-0.396 0.111-0.577 0.076zM21.583 17.067c-0.021-0.008-0.019-0.013 0.019-0.052 0.023-0.023 0.066-0.057 0.095-0.074s0.068-0.050 0.085-0.074c0.028-0.037 0.034-0.059 0.041-0.168 0.008-0.119 0.011-0.131 0.077-0.267 0.083-0.17 0.16-0.269 0.269-0.347 0.105-0.075 0.113-0.099 0.074-0.21l-0.030-0.086 0.034-0.121c0.064-0.226 0.129-0.358 0.232-0.471 0.062-0.068 0.072-0.107 0.038-0.15-0.067-0.083-0.070-0.091-0.074-0.21-0.008-0.212 0.032-0.384 0.119-0.522 0.024-0.037 0.043-0.079 0.043-0.093s-0.028-0.109-0.063-0.211c-0.065-0.193-0.113-0.366-0.113-0.406 0-0.036 0.036-0.099 0.082-0.141 0.070-0.065 0.052-0.168-0.033-0.191-0.048-0.013-0.106-0.062-0.116-0.097-0.029-0.103-0.050-0.252-0.050-0.361-0-0.12 0.003-0.137 0.040-0.219 0.038-0.084 0.039-0.092 0.024-0.137-0.009-0.026-0.033-0.073-0.054-0.103-0.080-0.117-0.14-0.317-0.14-0.467-0-0.084 0.002-0.093 0.041-0.136 0.064-0.072 0.083-0.105 0.083-0.143 0-0.040-0.026-0.096-0.057-0.121-0.048-0.040-0.066-0.11-0.067-0.26-0-0.181 0.021-0.265 0.077-0.294 0.021-0.011 0.053-0.033 0.070-0.047 0.032-0.026 0.032-0.030 0.040-0.235 0.006-0.165 0.013-0.224 0.034-0.281 0.026-0.072 0.105-0.194 0.126-0.194 0.018 0 0.075-0.094 0.085-0.141 0.005-0.024 0.005-0.072-0.002-0.107-0.014-0.074 0.005-0.152 0.070-0.293 0.047-0.102 0.079-0.129 0.152-0.129 0.050 0 0.055-0.004 0.115-0.082 0.068-0.090 0.076-0.12 0.038-0.143-0.041-0.025-0.032-0.083 0.027-0.165 0.11-0.156 0.16-0.191 0.274-0.191 0.053 0 0.072-0.006 0.093-0.028 0.045-0.048 0.066-0.115 0.058-0.181s-0.003-0.076 0.167-0.252c0.091-0.094 0.122-0.103 0.195-0.058l0.042 0.026 0.037-0.026c0.056-0.040 0.074-0.072 0.066-0.118-0.009-0.054 0.002-0.069 0.102-0.156 0.096-0.083 0.159-0.107 0.22-0.086 0.056 0.019 0.090-0.009 0.138-0.116 0.059-0.129 0.145-0.186 0.267-0.178 0.052 0.003 0.054 0.002 0.105-0.071 0.075-0.106 0.132-0.144 0.234-0.152l0.082-0.007 0.119-0.146c0.109-0.134 0.122-0.146 0.153-0.14 0.053 0.011 0.086-0.016 0.125-0.104 0.069-0.153 0.138-0.225 0.223-0.229 0.042-0.002 0.073-0.032 0.073-0.071 0-0.097 0.080-0.221 0.18-0.28 0.071-0.041 0.088-0.071 0.096-0.163 0.009-0.098 0.049-0.168 0.14-0.247 0.038-0.033 0.081-0.079 0.095-0.102s0.028-0.036 0.031-0.028c0.007 0.022-0.099 0.406-0.171 0.616-0.184 0.541-0.437 1.004-0.747 1.373-0.047 0.056-0.223 0.249-0.392 0.43s-0.346 0.374-0.394 0.429c-0.435 0.505-0.74 1.061-0.877 1.597-0.072 0.284-0.087 0.402-0.085 0.713 0.001 0.355 0.012 0.413 0.191 1.066 0.392 1.426 0.451 1.674 0.503 2.112 0.027 0.226 0.031 0.75 0.007 0.954-0.037 0.326-0.107 0.663-0.195 0.935-0.097 0.303-0.296 0.76-0.353 0.812-0.027 0.024-0.047 0.025-1.119 0.027-0.601 0.001-1.103-0.002-1.115-0.007zM15.572 11.474c-0.014-0.008-0.029-0.020-0.034-0.027s-0.009-0.817-0.009-1.799c-0-1.758 0-1.786 0.024-1.807 0.022-0.020 0.059-0.022 0.429-0.022 0.359 0 0.407 0.002 0.425 0.021s0.020 0.165 0.020 1.81c0 1.701-0.001 1.791-0.022 1.812s-0.056 0.022-0.415 0.024c-0.268 0.002-0.401-0.002-0.418-0.011zM16.82 11.477c-0.015-0.006-0.034-0.026-0.040-0.043-0.019-0.049-0.017-3.526 0.002-3.567 0.008-0.017 0.026-0.035 0.040-0.040 0.033-0.011 1.098-0.010 1.131 0 0.014 0.004 0.032 0.022 0.039 0.039 0.011 0.023 0.014 0.487 0.014 1.781-0 0.962-0.004 1.762-0.008 1.778-0.017 0.063-0.036 0.065-0.614 0.064-0.295-0-0.549-0.006-0.565-0.012zM18.397 11.481c-0.058-0.014-0.056 0.057-0.056-1.825 0-1.59 0.002-1.782 0.019-1.807 0.019-0.027 0.020-0.028 0.432-0.028 0.341 0 0.415 0.003 0.427 0.018 0.011 0.013 0.016 0.3 0.022 1.106 0.009 1.325-0.004 2.483-0.028 2.516-0.015 0.020-0.048 0.022-0.404 0.024-0.213 0.001-0.399-0.001-0.413-0.004zM15.034 11.234c-0.283-0.116-0.644-0.19-1.14-0.234-0.119-0.010-0.27-0.025-0.335-0.032-0.954-0.107-1.79-0.493-2.452-1.133-0.467-0.452-0.725-0.94-0.802-1.524-0.026-0.199-0.018-0.582 0.019-0.794 0.137-0.803 0.54-1.457 1.212-1.964 0.311-0.235 0.638-0.389 0.971-0.458 0.098-0.020 0.196-0.029 0.396-0.035 0.28-0.009 0.28-0.009 0.378-0.076 0.065-0.045 0.114-0.054 0.2-0.036 0.107 0.022 0.176 0.056 0.236 0.118 0.030 0.030 0.064 0.056 0.075 0.056s0.038-0.019 0.060-0.043c0.052-0.057 0.098-0.057 0.245 0.002 0.216 0.086 0.225 0.092 0.277 0.199 0.062 0.127 0.088 0.145 0.21 0.142 0.094-0.002 0.097-0.001 0.162 0.049 0.037 0.028 0.106 0.084 0.154 0.125l0.087 0.075-0.009 0.069c-0.011 0.090-0.010 0.121 0.007 0.152 0.012 0.022 0.021 0.024 0.069 0.017 0.041-0.006 0.063-0.003 0.086 0.012 0.040 0.026 0.132 0.169 0.158 0.245 0.023 0.069 0.018 0.101-0.031 0.189-0.019 0.035-0.035 0.075-0.035 0.090 0 0.036 0.027 0.088 0.062 0.119 0.113 0.1 0.093 0.38-0.031 0.454-0.089 0.053-0.123 0.201-0.066 0.293 0.024 0.040 0.026 0.049 0.012 0.101-0.029 0.11-0.146 0.252-0.221 0.268-0.131 0.029-0.226 0.125-0.226 0.228 0 0.061-0.030 0.115-0.094 0.172-0.084 0.074-0.108 0.084-0.228 0.094-0.105 0.009-0.145 0.018-0.404 0.090-0.139 0.039-0.256 0.061-0.513 0.095-0.193 0.026-0.254 0.041-0.28 0.069-0.023 0.026-0.055 0.032-0.055 0.011 0-0.043 0.131-0.236 0.249-0.367 0.050-0.056 0.189-0.19 0.308-0.299 0.23-0.21 0.418-0.411 0.474-0.508 0.113-0.195 0.129-0.401 0.048-0.635-0.142-0.411-0.56-0.728-1.007-0.764-0.137-0.011-0.171-0.001-0.242 0.069-0.081 0.080-0.131 0.093-0.306 0.082-0.153-0.010-0.183 0.001-0.213 0.073-0.018 0.044-0.018 0.044-0.235 0.095-0.146 0.034-0.172 0.051-0.163 0.102 0.025 0.14 0.028 0.125-0.044 0.201-0.070 0.074-0.12 0.106-0.206 0.129-0.074 0.020-0.096 0.057-0.079 0.134 0.023 0.107-0.012 0.19-0.123 0.293-0.055 0.051-0.062 0.063-0.055 0.092 0.037 0.148 0.015 0.264-0.068 0.355-0.064 0.071-0.067 0.086-0.028 0.145 0.050 0.075 0.053 0.184 0.011 0.311-0.018 0.053-0.032 0.104-0.032 0.115s0.024 0.029 0.053 0.041c0.125 0.054 0.23 0.257 0.196 0.38-0.007 0.027-0.008 0.054-0.002 0.066s0.055 0.036 0.109 0.056c0.154 0.056 0.24 0.128 0.258 0.217 0.014 0.068 0.017 0.069 0.161 0.069h0.135l0.104 0.056c0.123 0.066 0.175 0.111 0.175 0.151 0 0.034 0.032 0.085 0.053 0.085 0.008 0 0.047-0.019 0.086-0.043 0.105-0.063 0.149-0.073 0.258-0.059 0.225 0.030 0.339 0.070 0.412 0.146 0.041 0.042 0.054 0.048 0.099 0.047 0.030-0.001 0.072-0.013 0.1-0.030 0.080-0.047 0.143-0.039 0.417 0.054 0.292 0.099 0.318 0.101 0.403 0.031l0.062-0.051 0.087 0.007c0.105 0.009 0.312 0.050 0.368 0.074 0.051 0.021 0.116 0.095 0.151 0.169 0.026 0.055 0.026 0.072 0.030 0.877 0.003 0.819 0.001 0.871-0.038 0.87-0.008-0-0.062-0.020-0.12-0.044zM15.883 7.435c-0.017-0.024-0.019-0.133-0.019-0.929 0-0.885 0-0.902 0.025-0.926s0.041-0.025 1.493-0.025 1.468 0 1.493 0.025 0.025 0.041 0.025 0.929-0 0.905-0.025 0.929-0.041 0.025-1.498 0.025h-1.474zM17.615 7.246c0.302-0.105 0.516-0.411 0.516-0.737 0-0.336-0.233-0.657-0.542-0.748-0.351-0.103-0.726 0.076-0.884 0.42-0.205 0.446 0.058 0.982 0.534 1.089 0.11 0.025 0.263 0.014 0.376-0.025zM17.247 6.911c-0.109-0.042-0.201-0.136-0.244-0.252-0.022-0.057-0.026-0.090-0.022-0.175 0.004-0.091 0.011-0.116 0.047-0.184 0.080-0.15 0.204-0.219 0.378-0.21 0.080 0.004 0.112 0.012 0.166 0.041 0.085 0.046 0.155 0.126 0.188 0.215 0.036 0.094 0.030 0.265-0.011 0.35-0.040 0.083-0.103 0.15-0.178 0.191-0.056 0.031-0.083 0.037-0.172 0.040-0.070 0.002-0.121-0.002-0.153-0.015zM15.907 5.176c-0.011-0.011-0.019-0.021-0.019-0.023 0-0.034 0.047-0.232 0.074-0.311 0.193-0.566 0.694-0.96 1.305-1.025 0.392-0.041 0.813 0.106 1.119 0.391 0.232 0.216 0.38 0.467 0.458 0.775 0.035 0.138 0.037 0.167 0.010 0.194-0.017 0.017-0.168 0.019-1.474 0.019s-1.456-0.002-1.474-0.019zM17.268 3.61c-0.018-0.007-0.029-0.026-0.034-0.058-0.015-0.090-0.009-1.462 0.006-1.496 0.019-0.041 0.082-0.061 0.173-0.054 0.126 0.009 0.116-0.061 0.116 0.801 0 0.891 0.012 0.82-0.14 0.819-0.053-0-0.107-0.006-0.122-0.011z"></path>
</svg>
