<!-- Generated by IcoMoon.io -->
<svg version="1.1" xmlns="http://www.w3.org/2000/svg" width="32" height="32" viewBox="0 0 32 32">
<title>arkham_in_wonderland</title>
<path d="M15.082 30.51c-0.352-0.214-0.692-0.524-0.755-0.69-0.090-0.233-0.206-0.252-0.523-0.082-0.224 0.12-0.714 0.161-1.088 0.091-0.542-0.102-0.732-0.271-0.935-0.832-0.181-0.501-0.379-0.705-0.684-0.705-0.701 0-1.523-1.022-1.523-1.893 0-0.611-0.075-0.752-0.399-0.752-0.682 0-1.259-0.815-1.196-1.691 0.049-0.679-0.025-0.827-0.598-1.19-0.685-0.433-0.814-0.917-0.434-1.627 0.179-0.334 0.137-0.502-0.22-0.882-0.558-0.594-0.747-1.895-0.352-2.422 0.255-0.341 0.245-0.432-0.086-0.763-0.505-0.505-0.505-1.874 0-2.379 0.331-0.331 0.341-0.422 0.086-0.763-0.395-0.527-0.205-1.828 0.352-2.422 0.357-0.38 0.399-0.548 0.22-0.882-0.38-0.71-0.251-1.194 0.434-1.627 0.573-0.363 0.647-0.51 0.598-1.19-0.063-0.875 0.514-1.691 1.196-1.691 0.324 0 0.399-0.141 0.399-0.752 0-0.871 0.822-1.893 1.523-1.893 0.306 0 0.503-0.204 0.684-0.705 0.204-0.563 0.393-0.731 0.939-0.833 0.377-0.071 0.847-0.038 1.045 0.073 0.28 0.157 0.442 0.098 0.728-0.265 0.6-0.763 1.428-0.948 2.184-0.488 0.352 0.214 0.692 0.524 0.755 0.69 0.090 0.233 0.206 0.252 0.523 0.082 0.224-0.12 0.714-0.161 1.088-0.091 0.542 0.102 0.732 0.271 0.935 0.832 0.181 0.501 0.379 0.705 0.684 0.705 0.701 0 1.523 1.022 1.523 1.893 0 0.611 0.075 0.752 0.399 0.752 0.682 0 1.259 0.815 1.196 1.691-0.049 0.679 0.025 0.827 0.598 1.19 0.685 0.434 0.814 0.917 0.433 1.627-0.179 0.334-0.137 0.502 0.22 0.882 0.558 0.594 0.747 1.895 0.352 2.422-0.255 0.341-0.245 0.432 0.086 0.763 0.505 0.505 0.505 1.874 0 2.379-0.331 0.331-0.341 0.422-0.086 0.763 0.395 0.527 0.205 1.828-0.352 2.422-0.357 0.38-0.399 0.548-0.22 0.882 0.38 0.71 0.251 1.194-0.433 1.627-0.573 0.363-0.647 0.51-0.598 1.19 0.063 0.875-0.514 1.691-1.196 1.691-0.324 0-0.399 0.141-0.399 0.752 0 0.871-0.822 1.893-1.523 1.893-0.305 0-0.503 0.204-0.684 0.705-0.204 0.563-0.393 0.731-0.939 0.833-0.377 0.071-0.847 0.038-1.045-0.073-0.28-0.157-0.442-0.098-0.727 0.265-0.6 0.763-1.428 0.948-2.184 0.488zM18.111 28.295c3.403-1.736 5.729-6.775 5.729-12.412 0-3.36-0.653-5.94-2.212-8.741-3.038-5.456-8.459-5.456-11.497 0-1.559 2.801-2.212 5.381-2.212 8.741 0 6.252 2.777 11.543 6.739 12.841 0.804 0.263 2.513 0.051 3.454-0.429zM14.15 24.311c-1.502-0.78-2.53-2.348-2.538-3.873-0.003-0.518 0.212-1.265 0.565-1.965l0.57-1.129-0.352-0.985c-0.922-2.578-1.053-3.296-0.927-5.11 0.113-1.633 0.461-2.899 1.117-4.062 0.39-0.692 1.176-0.602 1.581 0.181 0.709 1.372 1.138 6.129 0.716 7.945-0.096 0.414-0.148 0.78-0.114 0.814s0.56 0.030 1.171-0.007l1.111-0.068-0.173-0.745c-0.421-1.81 0.010-6.569 0.718-7.938 0.402-0.777 1.149-0.863 1.58-0.181 1.191 1.881 1.459 5.404 0.608 7.984-0.731 2.217-0.734 2.256-0.215 2.985 0.677 0.95 0.787 3.044 0.219 4.152-0.51 0.994-1.152 1.601-2.122 2.007-0.967 0.404-2.73 0.402-3.513-0.005z"></path>
</svg>
