<!-- Generated by IcoMoon.io -->
<svg version="1.1" xmlns="http://www.w3.org/2000/svg" width="32" height="32" viewBox="0 0 32 32">
<title>arkhamdb</title>
<path fill="#394852" d="M13.188 3.5l-1.347 0.153c0 0-0.519 1.079-1.066 2.478s-1.134 3.1-1.259 4.531l1.594 0.137c0.095-1.083 0.633-2.746 1.156-4.084 0.26-0.664 0.318-0.751 0.506-1.175l7.603 9.497 1.25-1zM28.159 9.653c0 0-4.807 0.938-7.781 1.159l0.119 1.594c2.082-0.155 3.559-0.476 5.225-0.775-0.985 0.853-1.526 1.316-3.137 2.725-1.337 1.169-2.71 2.375-3.822 3.369s-1.924 1.728-2.288 2.122l1.175 1.087c0.199-0.215 1.075-1.029 2.178-2.016s2.472-2.193 3.806-3.359c2.669-2.333 5.2-4.516 5.2-4.516zM3.097 10.816l-0.731 1.281c0 0 2.283 3.009 5.272 4.875l0.85-1.359c-1.439-0.899-2.65-2.057-3.547-3.012 2.387 0.262 7.487 0.766 11.631 0.391l-0.144-1.594c-4.864 0.44-13.331-0.581-13.331-0.581zM15.269 13.294l-0.912 1.316c0.259 0.18 0.224 0.187 0.228 0.331s-0.075 0.449-0.188 0.838c-0.112 0.389-0.263 0.887-0.128 1.478s0.604 1.141 1.3 1.503l0.738-1.419c-0.429-0.223-0.451-0.333-0.475-0.438s0.001-0.338 0.1-0.681c0.099-0.343 0.267-0.771 0.253-1.322s-0.331-1.201-0.916-1.606zM13.688 13.738c-1.472 0-2.488 1.121-2.488 2.262s1.016 2.262 2.488 2.262v-1.6c-0.778 0-0.887-0.341-0.887-0.662s0.109-0.662 0.887-0.662zM17.063 13.738v1.6c0.778 0 0.887 0.341 0.887 0.662s-0.109 0.663-0.887 0.663v1.6c1.472 0 2.488-1.121 2.488-2.262s-1.016-2.262-2.488-2.262zM8.972 13.766c-1.735 7.221-0.575 14.359-0.575 14.359l1.369 0.428c0 0 4.5-4.682 5.625-5.853l-1.156-1.109c-0.878 0.914-3.145 3.276-4.391 4.572-0.156-1.363-0.045-3.775 0.241-7.328 0.355 0.253 9.109 6.448 19.872 7.038l0.603-1.369c0 0-1.588-1.558-3.294-3.284-0.853-0.863-1.735-1.769-2.456-2.538s-1.307-1.445-1.462-1.672l-1.319 0.906c0.313 0.456 0.875 1.073 1.613 1.859s1.626 1.7 2.484 2.569c0.782 0.791 0.917 0.915 1.509 1.503-9.273-1.308-16.856-6.45-16.856-6.45l-0.644 0.9c0.137-1.439 0.032-2.653 0.394-4.159z"></path>
</svg>
