<!-- Generated by IcoMoon.io -->
<svg version="1.1" xmlns="http://www.w3.org/2000/svg" width="30" height="32" viewBox="0 0 30 32">
<title>armitages_fate</title>
<path d="M14.346 21.12c0.104 0.026 0.204 0.047 0.313 0.057-0.615-1.188-1.995-1.849-2.532-3.068-0.281-0.641-0.292-1.375-0.177-2.068 0.089-0.265 0.172-0.536 0.261-0.812 0.167-0.516 0.333-1.043 0.661-1.48 0.651-0.896 1.38-0.885 2.364-0.563 0.432 0.136 0.688 0.532 1.151 0.672 0.74 0.219 1.281 0.557 1.844 1.073 0.24 0.213 0.365 0.26 0.713 0.375 0.005 0.068 0.016 0.141 0.057 0.209 0.063 0.113 0.229 0.181 0.292 0.28 0.079 0.125-0.005 0.287-0.036 0.412-0.052 0.24 0.145 0.74 0.036 0.901-0.073 0.104-0.187 0.183-0.229 0.301-0.020 0.063-0.020 0.136-0.015 0.199 0.025 0.244 0.093 0.473 0.203 0.687 0.063 0.12-0.041-0.129 0 0 0.131 0.371-0.109 0.797-0.312 1.136-0.276 0.489-0.72 0.713-1.251 0.891-0.74 0.24-1.421 0.052-2.188 0.145-0.369 0.048-1.572-0.557-2.124-0.796-0.016 0.145-0.256 0.708-0.324 0.839-0.077-0.026 1.339 0.667 1.376 0.656 0.568 0.235 1.181 0.287 1.781 0.416 0.115 0.023 0.307 0.079 0.416 0.079 0.109 0.011 0.093-0.038 0.183-0.047 0.385-0.052 0.724-0.084 1.052-0.208 0.323-0.115 0.797-0.209 1.073-0.355 0.197-0.104 0.312-0.317 0.495-0.443 0.167-0.104 0.369-0.208 0.505-0.333 0.224-0.213 0.233-0.48 0.391-0.719 0.176-0.262 0.213-0.552 0.405-0.808 0.161-0.229 0.256-0.437 0.297-0.708 0.068-0.385-0.407-0.745-0.391-1.115 0.011-0.224 0.068-0.396 0.027-0.64-0.021-0.157-0.057-0.297-0.037-0.443 0.041-0.313-0.011-0.537-0.172-0.876-0.328-0.692-0.609-1.156-1.224-1.629-0.552-0.428-0.911-0.885-1.495-1.287-0.192-0.136-0.296-0.297-0.5-0.427-0.088-0.052-0.172-0.063-0.249-0.115-1.713-1.204-3.975 0.312-5.448 1.276-0.443 0.287-0.901 0.599-1.199 1.047-0.615 0.921-0.359 2.151-0.036 3.213 0.197 0.651 0.421 1.303 0.823 1.844 0.365 0.479 0.855 0.839 1.333 1.192 0.579 0.428 1.193 0.871 1.885 1.037z"></path>
<path d="M0.003 0.073c0.037-0.004 0.063-0.030 0.079-0.073 0.005 0.115-0.099 0.312-0.079 0.396 0.032 0.115 0.199 0.124 0.267 0.172 0.208 0.135 0.291 0.224 0.301 0.547 0.011 0.135 0 0.296 0.021 0.432 0.036 0.255 0.036 0.088 0.14 0.229 0.109 0.14 0.089 0.167 0.109 0.396 0.027 0.312 0.005 0.317 0.188 0.495 0.307 0.301 0.312 0.74 0.473 1.197 0.109 0.313 0.224 0.615 0.324 0.917 0.187 0.536 0.385 1.129 0.4 1.729 0.011 0.244 0 0.369 0.095 0.541 0.104 0.172 0.276 0.219 0.385 0.401 0.125 0.214 0.167 0.567 0.323 0.807 0.297 0.443 0.64 0.808 1.016 1.084 0.109 0.072 0.219 0.151 0.312 0.255 0.145 0.194 0.229 0.475 0.297 0.745 0.281 1.072 0.567 2.145 0.844 3.219 0.067 0.249 0.135 0.505 0.255 0.697 0.115 0.183 0.265 0.308 0.396 0.448 0.661 0.688 0.796 1.604 0.88 2.677 0.005 0.115 0.021 0.24 0.073 0.323 0.041 0.084 0.109 0.115 0.172 0.151 0.656 0.365 0.968 0.527 1.328 1.433 0.088 0.213 0.213 0.375 0.301 0.583 0.115 0.271 0.147 0.708 0.199 1.021 0.047 0.296 0.083 0.453 0.172 0.687 0.228 0.609 0.353 0.781 0.771 1.209 0.088 0.088 0.176 0.181 0.229 0.307 0.072 0.172 0.093 0.407 0.213 0.495 0.057 0.041 0.124 0.041 0.161 0.099 0.057 0.057 0.063 0.157 0.068 0.251 0.031 0.249 0.052 0.5 0.077 0.755 0.672 0.136 1.443 0.355 1.828 1.188 0.095 0.219 0.172 0.473 0.339 0.577 0.131 0.079 0.297 0.026 0.423 0.131 0.067 0.063 0.115 0.161 0.161 0.265 0.343 0.787 0.676 1.584 1.005 2.381 0.109 0.244 0.296 0.4 0.4 0.619 0.095 0.219 0.095 0.428 0.204 0.631 0.219 0.421 0.375 0.885 0.577 1.312 0.043 0.089 0.089 0.157 0.156 0.199 0.261-0.443 0.387-1.141 0.688-1.641 0.417-0.687 0.948-1.239 1.552-1.588 0.068-0.041 0.147-0.084 0.188-0.177 0.115-0.218 0.041-0.609 0.093-0.864 0.073-0.313 0.256-0.547 0.317-0.876 0.115-0.64 0.412-1.208 0.772-1.613 0.052-0.053 0.104-0.115 0.171-0.12 0.068-0.011 0.136 0.038 0.199 0.030 0.093-0.004 0.167-0.109 0.229-0.203 0.296-0.432 0.692-0.781 1.031-1.188 0.448-0.531 0.256-0.443 0.24-1.287-0.036-0.957 0.208-2.26 0.604-3.020 0.385-0.729 0.839-1.391 1.339-1.959 0.208-0.235 0.432-0.464 0.547-0.803 0.079-0.249 0.093-0.525 0.151-0.781 0.177-0.776 0.699-1.249 1.161-1.708 0.724-0.719 1.272-1.968 1.433-3.235 0.047-0.375 0.14-0.739 0.161-1.124 0.020-0.433 0.005-0.808 0.068-1.251 0.077-0.625-0.043-0.968 0.353-1.401 0.199-0.208 0.396-0.427 0.589-0.635 0.203-0.224 0.411-0.453 0.572-0.751 0.401-0.744 0.735-1.927 0.86-2.812 0.041-0.297 0.249-0.443 0.26-0.755 0.016-0.272-0.073-0.491 0.036-0.74 0.052-0.131 0.125-0.161 0.141-0.333 0.016-0.147-0.036-0.26 0.021-0.412-0.177-0.077-0.136 0.188-0.183 0.323-0.027 0.079-0.095 0.251-0.151 0.297-0.073 0.079-0.193 0.046-0.277 0.115-0.099 0.079-0.213 0.161-0.317 0.245-0.172 0.14-0.235 0.416-0.396 0.572-0.703 0.521-1.255 1.385-1.963 1.959-0.199 0.151-0.396 0.297-0.568 0.505-0.735 0.891-1.787 2.74-1.839 4.177-0.016 0.281 0.016 0.563-0.041 0.833-0.027 0.125-0.073 0.239-0.125 0.344-0.511 1.14-1.271 1.728-1.932 2.635-0.177 0.229-0.199 0.349-0.199 0.651 0 0.745-0.427 1.371-0.615 2.021-0.301 1.041-0.52 2.161-0.776 3.235-0.025 0.125-0.057 0.249-0.115 0.359-0.052 0.115-0.135 0.204-0.208 0.281l-0.687 0.771c-0.163 0.183-0.333 0.365-0.459 0.595-0.204 0.359-0.323 0.823-0.573 1.124-0.183 0.229-0.448 0.376-0.547 0.699-0.088 0.281-0.021 0.62 0 0.932 0.041 0.713-0.251 0.661-0.563 0.917-0.104 0.088-0.167 0.391-0.265 0.505-0.109 0.119-0.281 0.208-0.333 0.427-0.047 0.187 0 0.276-0.073 0.448-0.073 0.177-0.135 0.271-0.192 0.468-0.032 0.141-0.063 0.251-0.125 0.365-0.016 0.019-1.589-1.932-1.719-2.041-0.24-0.188-0.495-0.333-0.704-0.595-0.203-0.239-0.353-0.577-0.495-0.905-0.552-1.313-1.009-2.715-1.676-3.917-0.543-0.964-0.833-1.823-1.229-2.885-0.313-0.844-0.625-1.693-0.943-2.536-0.251-0.688-0.521-1.391-0.933-1.885-0.249-0.287-0.572-0.595-0.552-1.037-0.192 0.023-0.364-0.104-0.536-0.229-0.729-0.525-1.484-1.099-1.953-2.067-0.5-1.032-0.593-2.355-1.005-3.459-0.755-2.027-2.328-2.765-3.468-4.199-0.073-0.088-0.152-0.167-0.229-0.228-0.084-0.053-0.308-0.229-0.385-0.194 0.145-0.011 0.296-0.015-0.313-0.307z"></path>
</svg>
