<!-- Generated by IcoMoon.io -->
<svg version="1.1" xmlns="http://www.w3.org/2000/svg" width="32" height="32" viewBox="0 0 32 32">
<title>auto_fail</title>
<path d="M12.624 2.501c-1.837 0.030-3.761 0.95-5.306 3.074-1.366 2.124-4.741 7.516 1.274 11.723 2.65 1.286 5.255 0.855 6.733 6.405 0.481-1.988 1.506-2.804 2.57-3.506-0.215-2.021-1.103-4.655-3.833-5.743-1.393-1.296-2.933-2.124-2.736-4.819 1.812-4.26 6.349-1.432 3.942 3.132 1.325-1.461 3.874-0.668 3.229-6.195-0.999-2.485-3.355-4.113-5.873-4.072zM24.371 10.569c-0.658-0.005-1.391 0.157-2.192 0.556-1.021 0.668-2.112 1.218-1.927 3.784 0.715-0.652 1.405-1.342 2.521-1.393 0.787 0.22 2.089-0.346 1.331 2.191-0.284 1.025-1.195 2.005-2.923 2.724-0.963 0.567-5.901 3.579-5.335 7.153l0-0c2.724-2.038 4.979-3.319 6.927-2.905 1.863-1.331 6.694-4.406 5.38-8.767-0.053-1.163-1.434-3.323-3.782-3.342zM7.47 17.782c-3.966 0.043-7.374 3.594-3.46 6.976-1.444-2.866 0.561-6.009 3.71-4.344 0.895 0.47 4.275 2.91 2.543 5.453l2.933 2.985c1.382-0.873 2.554-5.137-0.912-8.971-1.365-1.509-3.139-2.117-4.814-2.098zM22.256 23.325c-1.334-0.012-2.335 0.307-3.114 0.828-1.851 0.974-3.835 2.797-5.148 4.65l-0-0.002c-0.198 0.164-0.255 0.544-0.074 0.826l1.637 1.682c0.289 0.357 0.284 0.13 0.413-0.004 0.522-0.401 0.573-0.787 1.666-1.664 0.131-0.13 0.209-0.232 0.265-0.51-0.113-0.413 0.13-0.481 0.255-0.713 2.317-3.217 4.373-2.441 6.553-2.441 6.359 0.924 6.926-1.596 7.011-2.491-1.161 0.787-1.688 1.302-4.355 0.996-2.109-0.801-3.776-1.144-5.11-1.156z"></path>
</svg>
