<!-- Generated by IcoMoon.io -->
<svg version="1.1" xmlns="http://www.w3.org/2000/svg" width="32" height="32" viewBox="0 0 32 32">
<title>before_the_black_throne</title>
<path d="M19.22 10.28c0.054-0.097 0.109-0.196 0.163-0.294 0.072 0.030 0.146 0.061 0.22 0.091l-0.105 0.283c-0.091-0.029-0.184-0.056-0.278-0.080zM18.622 14.105c0.157 0.171 0.273 0.369 0.426 0.543 0.525 0.597 0.973 1.303 1.043 2.113 0.034 0.398 0.034 0.829-0.038 1.221-0.087 0.472-0.164 0.936-0.296 1.398-0.119 0.416-0.292 0.81-0.503 1.187-0.121 0.219-0.222 0.445-0.34 0.664-0.090-0.402-0.138-0.814-0.136-1.226 0.001-0.542 0.039-1.083 0.099-1.621 0.059-0.531 0.148-1.051 0.135-1.587-0.014-0.601-0.104-1.196-0.395-1.73-0.239-0.438-0.514-0.859-0.899-1.181-0.049-0.040-0.101-0.081-0.154-0.12 0.075-0.154 0.15-0.307 0.226-0.461 0.139 0.114 0.272 0.232 0.399 0.36 0.145 0.145 0.296 0.287 0.433 0.438zM12.359 15.677c-0.298 0.301-0.579 0.627-0.812 0.983 0.018-0.229 0.050-0.457 0.1-0.682 0.095-0.421 0.248-0.829 0.46-1.205 0.212 0.169 0.419 0.342 0.624 0.52-0.123 0.128-0.246 0.256-0.371 0.384zM14.251 22.551c0.053 0.336 0.109 0.673 0.035 1.012-0.033 0.15-0.068 0.303-0.13 0.446-0.019 0.045-0.045 0.090-0.076 0.133-0.033-0.040-0.068-0.080-0.1-0.121-0.164-0.213-0.293-0.452-0.432-0.681-0.254-0.413-0.494-0.84-0.64-1.305-0.152-0.481-0.253-1.004-0.279-1.509-0.003-0.106-0.001-0.212-0.001-0.318 0.083 0.071 0.167 0.143 0.248 0.217 0.609 0.568 1.242 1.273 1.376 2.127zM19.823 9.104c0.085-0.178 0.167-0.356 0.251-0.533 0.032-0.007 0.062-0.014 0.093-0.020l-0.336 0.908c-0.056-0.007-0.11-0.015-0.165-0.025 0.053-0.11 0.106-0.219 0.157-0.33zM22.095 8.717c-0.028 0.031-0.053 0.066-0.083 0.096-0.149 0.152-0.326 0.268-0.505 0.38-0.212 0.131-0.423 0.244-0.675 0.272-0.231 0.025-0.47 0.019-0.704 0.014-0.058 0-0.115-0.006-0.171-0.010 0.155-0.313 0.303-0.63 0.437-0.952 0.195-0.019 0.394-0.017 0.587-0.014 0.374 0.004 0.754 0.091 1.113 0.215zM23.458 8.375c0.112 0.053 0.221 0.155 0.306 0.242 0.126 0.13 0.148 0.255 0.206 0.422 0.013 0.035 0.024 0.069 0.037 0.104-0.087-0.082-0.176-0.164-0.262-0.248-0.196-0.184-0.39-0.374-0.592-0.553 0.106-0.018 0.212-0.013 0.306 0.033zM8.034 12.458c-0.126 0.102-0.277 0.178-0.394 0.292-0.076 0.072-0.136 0.163-0.197 0.248-0.15 0.206-0.346 0.412-0.45 0.647-0.096 0.22-0.182 0.422-0.374 0.573-0.198 0.157-0.346 0.337-0.585 0.438-0.205 0.085-0.423 0.171-0.635 0.232-0.125 0.037-0.248 0.050-0.368 0.045 0.014-0.068 0.026-0.139 0.045-0.205 0.128-0.445 0.333-0.873 0.613-1.243 0.326-0.433 0.769-0.8 1.256-1.043 0.163-0.082 0.326-0.149 0.501-0.202 0.145-0.044 0.296-0.078 0.437-0.136 0.155-0.063 0.316-0.139 0.443-0.25 0.054 0.038 0.109 0.074 0.162 0.112-0.152 0.164-0.282 0.349-0.455 0.491zM29.459 16.464c-0.14-0.121-0.35-0.174-0.522-0.232-0.304-0.102-0.653-0.116-0.973-0.095-0.347 0.023-0.663 0.149-0.997 0.239-0.234 0.062-0.49 0.058-0.73 0.061-0.157 0.001-0.312 0.001-0.469-0.011-0.36-0.029-0.745-0.081-1.084-0.21-0.35-0.133-0.688-0.315-0.984-0.546-0.225-0.177-0.395-0.41-0.571-0.634-0.139-0.176-0.267-0.35-0.379-0.543-0.112-0.196-0.231-0.392-0.304-0.606-0.043-0.129-0.071-0.265-0.1-0.398-0.038-0.177-0.068-0.354-0.072-0.533-0.003-0.148 0.003-0.296-0.020-0.442-0.042-0.278-0.172-0.547-0.349-0.762-0.341-0.417-0.872-0.706-1.344-0.947-0.345-0.176-0.696-0.326-1.060-0.443 0.047-0.090 0.092-0.179 0.139-0.269 0.005 0.001 0.010 0.004 0.015 0.006 0.239 0.095 0.472 0.221 0.734 0.234 0.145 0.006 0.292-0.002 0.432-0.040 0.101-0.037 0.203-0.067 0.308-0.091 0.088-0.014 0.173-0.039 0.254-0.074 0.134-0.066 0.239-0.158 0.336-0.272 0.134-0.153 0.248-0.316 0.361-0.484 0.077-0.114 0.171-0.216 0.239-0.336 0.037-0.063 0.069-0.128 0.104-0.189 0.466 0.195 0.885 0.462 1.266 0.797 0.173 0.153 0.331 0.32 0.482 0.49 0.004 0.195 0.006 0.389-0.013 0.58-0.017 0.157-0.059 0.311-0.067 0.467-0.006 0.133-0.001 0.27 0.001 0.403 0.004 0.249 0.035 0.534 0.129 0.767 0.111 0.277 0.264 0.51 0.426 0.757 0.13 0.197 0.33 0.383 0.565 0.452 0.202 0.059 0.491-0.006 0.649-0.139 0.067-0.056 0.109-0.133 0.153-0.206 0.062-0.105 0.126-0.215 0.145-0.339 0.019-0.121 0.001-0.251 0.004-0.374 0.005 0.058-0.014 0.134-0.029 0.189-0.017 0.057-0.047 0.067-0.087 0.107-0.050 0.050-0.090 0.119-0.157 0.152-0.068 0.034-0.148 0.017-0.219 0.002-0.174-0.033-0.416-0.081-0.561-0.189-0.184-0.139-0.256-0.371-0.346-0.575-0.205-0.469-0.167-0.979-0.091-1.474 0.245 0.282 0.485 0.58 0.789 0.8 0.231 0.165 0.503 0.331 0.793 0.336 0.288 0.006 0.589-0.001 0.861-0.105 0.728-0.277 1.367-0.957 1.412-1.762 0.011-0.21 0.015-0.424-0.011-0.632-0.030-0.234-0.101-0.471-0.177-0.694-0.155-0.448-0.482-0.838-0.84-1.143-0.368-0.315-0.909-0.488-1.389-0.486-0.195 0.001-0.383 0.011-0.563 0.095-0.131 0.059-0.334 0.174-0.431 0.287-0.207 0.242-0.148 0.59-0.003 0.842 0.018 0.030 0.165 0.291 0.246 0.279 0.023-0.057-0.023-0.16-0.025-0.219-0.004-0.135 0.018-0.287 0.078-0.408 0.075-0.153 0.207-0.157 0.364-0.146 0.219 0.014 0.407 0.080 0.597 0.186 0.437 0.245 0.734 0.677 0.735 1.187 0.003 0.461-0.237 0.974-0.682 1.159-0.592 0.249-1.206-0.101-1.676-0.479-0.003-0.028-0.001-0.056-0.004-0.083-0.017-0.187-0.040-0.37-0.068-0.556-0.024-0.158-0.045-0.311-0.114-0.457-0.134-0.288-0.318-0.605-0.563-0.814-0.187-0.16-0.455-0.407-0.71-0.422-0.112-0.007-0.212 0.004-0.309 0.063-0.109 0.069-0.188 0.184-0.264 0.287-0.028 0.037-0.053 0.076-0.078 0.114-0.010-0.007-0.020-0.015-0.029-0.021-0.263-0.173-0.537-0.327-0.83-0.438-0.297-0.112-0.621-0.203-0.946-0.22 0.063-0.192 0.128-0.382 0.2-0.57 0.087-0.226 0.186-0.432 0.309-0.638 0.082-0.136 0.169-0.269 0.24-0.412 0.029-0.059 0.058-0.102 0.096-0.144-0.249 0.117-0.498 0.23-0.763 0.308-0.41 0.12-0.831 0.211-1.244 0.32-0.587 0.158-1.174 0.315-1.765 0.457-0.697 0.168-1.383 0.376-2.079 0.553-0.692 0.176-1.387 0.34-2.077 0.534-0.768 0.217-1.537 0.429-2.295 0.68-0.368 0.128-0.738 0.249-1.109 0.365-0.39 0.115-0.779 0.237-1.165 0.368-0.92 0.322-1.799 0.734-2.701 1.095-0.093 0.038-0.176 0.076-0.27 0.102-0.023 0.006-0.085 0.019-0.097 0.040-0.033 0.059 0.216 0.184 0.24 0.2 0.345 0.217 0.68 0.44 1.013 0.675 0.064 0.045 0.13 0.090 0.195 0.134-0.165 0.154-0.408 0.246-0.599 0.344-0.168 0.083-0.323 0.191-0.472 0.306-0.178 0.138-0.376 0.254-0.531 0.418-0.158 0.169-0.301 0.346-0.426 0.541-0.183 0.284-0.311 0.603-0.475 0.898-0.143 0.259-0.293 0.518-0.404 0.794-0.025 0.064-0.049 0.131-0.072 0.197-0.184-0.077-0.358-0.192-0.514-0.328-0.159-0.14-0.289-0.303-0.383-0.493-0.037-0.072-0.082-0.146-0.107-0.224-0.028-0.082-0.026-0.179-0.032-0.264-0.010-0.177-0.020-0.354 0.071-0.509 0.077-0.133 0.158-0.249 0.291-0.33 0.154-0.093 0.296-0.148 0.477-0.135-0.040-0.013-0.053-0.047-0.081-0.074-0.068-0.071-0.189-0.11-0.285-0.124-0.249-0.037-0.517 0.002-0.745 0.106-0.265 0.12-0.418 0.313-0.518 0.585-0.050 0.135-0.056 0.261-0.062 0.404-0.005 0.109-0.028 0.215-0.022 0.325 0.013 0.213 0.119 0.438 0.222 0.625 0.115 0.208 0.23 0.423 0.388 0.604 0.169 0.192 0.354 0.398 0.571 0.538 0.11 0.071 0.235 0.133 0.366 0.183-0.077 0.251-0.124 0.518-0.172 0.771-0.050 0.264-0.080 0.528-0.081 0.797-0.001 0.249-0.006 0.5 0.024 0.748 0.029 0.232 0.088 0.452 0.169 0.673 0.184 0.504 0.533 0.92 0.898 1.305 0.336 0.355 0.704 0.699 1.104 0.98 0.193 0.136 0.376 0.254 0.603 0.328 0.172 0.057 0.325 0.077 0.505 0.078 0.315 0.001 0.711-0.1 0.904-0.365 0.075-0.104 0.179-0.215 0.206-0.342 0.028-0.139-0.006-0.297-0.069-0.419-0.078-0.153-0.196-0.274-0.303-0.408-0.028-0.035-0.058-0.063-0.088-0.092-0.003 0.192-0.198 0.328-0.389 0.34-0.213 0.013-0.386-0.026-0.57-0.134-0.193-0.112-0.375-0.242-0.557-0.37-0.427-0.301-0.834-0.704-1.093-1.158-0.414-0.729-0.534-1.61-0.464-2.439 0.005-0.050 0.013-0.1 0.019-0.15 0.049 0.001 0.098 0.003 0.149 0.001 0.13 0 0.261 0.010 0.39-0.003 0.106-0.011 0.207-0.057 0.297-0.111 0.13-0.078 0.2-0.213 0.285-0.332 0.085-0.117 0.188-0.217 0.275-0.331 0.077-0.101 0.131-0.219 0.22-0.312 0.090-0.092 0.196-0.141 0.302-0.211 0.125-0.083 0.229-0.196 0.344-0.292 0.251-0.212 0.566-0.33 0.834-0.52 0.15-0.107 0.311-0.195 0.464-0.298 0.129-0.088 0.24-0.198 0.379-0.269 0.124-0.062 0.258-0.091 0.385-0.141 0.141-0.056 0.269-0.135 0.4-0.21 0.1 0.082 0.198 0.162 0.298 0.242-0.047 0.066-0.098 0.128-0.155 0.184-0.178 0.177-0.405 0.352-0.642 0.437-0.231 0.082-0.482 0.133-0.705 0.24-0.224 0.106-0.433 0.226-0.613 0.399-0.149 0.144-0.325 0.304-0.418 0.494-0.093 0.191-0.148 0.417-0.196 0.623-0.037 0.153-0.038 0.323-0.030 0.481 0.011 0.237 0.16 0.457 0.297 0.642 0.129 0.172 0.277 0.328 0.44 0.469 0.231 0.198 0.474 0.416 0.611 0.694 0.053 0.106 0.034 0.264 0.024 0.379-0.017 0.174-0.053 0.33-0.155 0.475-0.047 0.066-0.093 0.126-0.169 0.162-0.053 0.026-0.114 0.030-0.171 0.047-0.025 0.009-0.106 0.030-0.117 0.054 0.026 0.049 0.176 0.028 0.219 0.031 0.183 0.017 0.327 0.013 0.508-0.034 0.202-0.052 0.397-0.109 0.549-0.259 0.143-0.139 0.201-0.303 0.268-0.485 0.072-0.195 0.144-0.341 0.15-0.554 0.008-0.232-0.013-0.453-0.106-0.669-0.078-0.182-0.184-0.356-0.279-0.529-0.067-0.122-0.155-0.234-0.165-0.375-0.015-0.187-0.019-0.395-0.002-0.582 0.023-0.253 0.131-0.47 0.273-0.676 0.146-0.215 0.27-0.452 0.481-0.613 0.163-0.124 0.37-0.24 0.561-0.311 0.11-0.042 0.225-0.069 0.332-0.116 0.292 0.216 0.581 0.437 0.869 0.661-0.26 0.409-0.455 0.838-0.551 1.32-0.105 0.532-0.207 1.076-0.169 1.622 0.014 0.205 0.052 0.405 0.106 0.604-0.093 0.236-0.177 0.476-0.244 0.719-0.11 0.399-0.092 0.793-0.088 1.204 0.001 0.269 0.006 0.534 0.037 0.802 0.126 1.076 0.418 2.154 0.946 3.104 0.090 0.162 0.152 0.337 0.254 0.49 0.076 0.112 0.165 0.21 0.255 0.309 0.107 0.12 0.213 0.242 0.32 0.364-0.394 0.025-0.805 0.043-1.185-0.038-0.307-0.064-0.63-0.195-0.912-0.327-0.212-0.101-0.421-0.211-0.606-0.355-0.116-0.090-0.241-0.181-0.318-0.308-0.063-0.102-0.097-0.217-0.138-0.33-0.063-0.179-0.163-0.44-0.12-0.634 0.018-0.087 0.077-0.168 0.12-0.237-0.037-0.017-0.066-0.006-0.096 0.015-0.068 0.049-0.136 0.173-0.177 0.244-0.153 0.263-0.222 0.596-0.148 0.896 0.042 0.163 0.131 0.294 0.237 0.421 0.146 0.173 0.301 0.34 0.467 0.493 0.196 0.181 0.398 0.384 0.638 0.505 0.157 0.078 0.323 0.13 0.48 0.21 0.234 0.12 0.451 0.272 0.69 0.383 0.217 0.102 0.412 0.135 0.649 0.152 0.248 0.015 0.49 0.076 0.736 0.091 0.222 0.014 0.447-0.017 0.662-0.074 0.053 0.066 0.104 0.133 0.15 0.202 0.178 0.268 0.294 0.604 0.35 0.918 0.063 0.351 0.045 0.733-0.1 1.061-0.189 0.426-0.503 0.853-0.957 1.022-0.505 0.188-1.321 0.042-1.527-0.52-0.1-0.275 0.069-0.656 0.36-0.736 0.225-0.062 0.447 0.014 0.673 0.001 0.096-0.006 0.044-0.066 0.006-0.126-0.126-0.202-0.378-0.339-0.587-0.437-0.232-0.109-0.445-0.107-0.69-0.033-0.119 0.037-0.237 0.074-0.358 0.107s-0.241 0.059-0.344 0.136c-0.125 0.092-0.222 0.242-0.308 0.37-0.054 0.082-0.097 0.157-0.106 0.256-0.024 0.255 0 0.522 0.073 0.768 0.112 0.383 0.364 0.639 0.645 0.908 0.202 0.192 0.395 0.38 0.63 0.533 0.212 0.136 0.438 0.245 0.672 0.336 0.284 0.111 0.561 0.197 0.866 0.226 0.261 0.025 0.541 0.037 0.805 0.018 0.152-0.011 0.293-0.042 0.44-0.077 0.203-0.049 0.416-0.103 0.604-0.196 0.301-0.15 0.59-0.36 0.84-0.582 0.153-0.135 0.293-0.264 0.402-0.436 0.107-0.172 0.217-0.351 0.308-0.532 0.154-0.306 0.275-0.656 0.274-0.999-0.001-0.183-0.030-0.365-0.052-0.546-0.019-0.155-0.037-0.306-0.078-0.456-0.057-0.205-0.167-0.405-0.262-0.594-0.085-0.168-0.174-0.335-0.277-0.494-0.164-0.253-0.354-0.495-0.566-0.709-0.173-0.173-0.352-0.336-0.528-0.503 0.26-0.475 0.328-1.035 0.274-1.569-0.026-0.269-0.149-0.47-0.272-0.706-0.143-0.274-0.289-0.538-0.447-0.802-0.352-0.589-0.772-1.113-1.207-1.638-0.164-0.2-0.344-0.394-0.482-0.613 0-0.124 0.004-0.248 0.010-0.37 0.023-0.309 0.083-0.611 0.201-0.899 0.229-0.557 0.561-1.035 0.952-1.491 0.093-0.11 0.191-0.216 0.289-0.318 0.465 0.418 0.906 0.88 1.149 1.451 0.042 0.105 0.081 0.211 0.116 0.317 0.014 0.056 0.030 0.11 0.050 0.163 0.077 0.072 0.169-0.12 0.191-0.162 0.062-0.141 0.12-0.285 0.174-0.431 0.075-0.187 0.15-0.373 0.225-0.56 0.181-0.44 0.38-0.87 0.577-1.303 0.143-0.313 0.289-0.625 0.433-0.937 0.115 0.107 0.225 0.22 0.323 0.342 0.229 0.286 0.392 0.608 0.509 0.954 0.105 0.308 0.177 0.613 0.198 0.939 0.024 0.364 0.015 0.729 0.013 1.094-0.003 0.672 0.011 1.345 0.080 2.015 0.042 0.408 0.091 0.812 0.125 1.22 0.023 0.269 0.042 0.539 0.082 0.806-0.111 0.231-0.215 0.466-0.307 0.705-0.177 0.46-0.275 0.954-0.385 1.432-0.039 0.169-0.086 0.336-0.11 0.509-0.028 0.202 0.006 0.403 0.024 0.604 0.014 0.148 0.013 0.293 0.019 0.441 0.006 0.134 0.039 0.263 0.072 0.392 0.077 0.303 0.265 0.557 0.458 0.797 0.102 0.128 0.215 0.26 0.336 0.37 0.117 0.106 0.256 0.192 0.383 0.288 0.216 0.163 0.464 0.264 0.721 0.345 0.215 0.067 0.43 0.134 0.648 0.186 0.216 0.052 0.418 0.107 0.64 0.11-0.095 0-0.164-0.015-0.251-0.058-0.205-0.101-0.399-0.227-0.589-0.355-0.211-0.144-0.39-0.339-0.56-0.529-0.165-0.184-0.317-0.417-0.414-0.645-0.149-0.351-0.24-0.731-0.296-1.107-0.030-0.206-0.033-0.386-0.024-0.595 0.011-0.255 0.008-0.517 0.047-0.771 0.017-0.107 0.038-0.215 0.062-0.321 0.039 0.119 0.082 0.235 0.13 0.35 0.308 0.721 0.801 1.373 1.338 1.94 0.488 0.514 1.086 0.922 1.729 1.218 0.638 0.294 1.339 0.412 2.035 0.408 0.323-0.003 0.637-0.047 0.951-0.115 0.269-0.058 0.539-0.121 0.794-0.229 0.735-0.311 1.421-0.882 1.696-1.648 0.158-0.438 0.219-0.894 0.217-1.359-0.003-0.417-0.015-0.834-0.097-1.244-0.082-0.404-0.201-0.803-0.403-1.165-0.134-0.242-0.311-0.464-0.48-0.682-0.129-0.167-0.264-0.322-0.418-0.467-0.659-0.625-1.595-1.174-2.54-0.973-0.297 0.062-0.592 0.227-0.814 0.431-0.095 0.088-0.183 0.182-0.277 0.273-0.099 0.097-0.201 0.187-0.26 0.315-0.12 0.258-0.162 0.529-0.097 0.807 0.026 0.12 0.081 0.341 0.222 0.386 0.124 0.039 0.191-0.162 0.224-0.246 0.050-0.133 0.13-0.245 0.221-0.355 0.164-0.198 0.34-0.405 0.606-0.445 0.126-0.020 0.288-0.005 0.417 0.001 0.2 0.009 0.363 0.056 0.537 0.15 0.384 0.207 0.648 0.556 0.825 0.949 0.101 0.226 0.197 0.462 0.237 0.707 0.033 0.2 0.032 0.409 0.026 0.611-0.017 0.543-0.212 1.046-0.549 1.469-0.164 0.203-0.363 0.352-0.59 0.477-0.232 0.129-0.475 0.242-0.748 0.246-0.538 0.009-1.091-0.141-1.574-0.37-0.299-0.141-0.597-0.318-0.868-0.513-0.304-0.217-0.562-0.499-0.808-0.777-0.476-0.541-0.846-1.155-1.137-1.811 0.030-0.064 0.059-0.13 0.090-0.196 0.125-0.267 0.227-0.543 0.344-0.814 0.26-0.61 0.563-1.196 0.792-1.819 0.097-0.262 0.188-0.523 0.296-0.781 0.097-0.234 0.188-0.462 0.243-0.71 0.099-0.451 0.066-0.904 0.071-1.363 0.003-0.215-0.009-0.412-0.050-0.623-0.057-0.28-0.131-0.575-0.225-0.845-0.092-0.263-0.211-0.537-0.382-0.758-0.169-0.22-0.35-0.445-0.548-0.638-0.328-0.321-0.7-0.581-1.061-0.861-0.256-0.198-0.49-0.434-0.694-0.691 0.179-0.395 0.355-0.793 0.536-1.189 0.162-0.006 0.325 0.009 0.485 0.053 0.211 0.058 0.39 0.205 0.56 0.337 0.169 0.135 0.318 0.278 0.443 0.455 0.258 0.366 0.465 0.773 0.671 1.171 0.114 0.22 0.207 0.445 0.311 0.669 0.101 0.222 0.216 0.438 0.32 0.658 0.232 0.489 0.447 0.952 0.793 1.376 0.299 0.366 0.644 0.677 1.032 0.945 0.361 0.249 0.719 0.533 1.149 0.645 0.26 0.069 0.527 0.165 0.797 0.176 0.229 0.009 0.428-0.023 0.648-0.078 0.283-0.072 0.681-0.122 0.914 0.090 0.149 0.134 0.201 0.306 0.183 0.501-0.017 0.176-0.092 0.386-0.283 0.438-0.135 0.035-0.32-0.006-0.453-0.031-0.106-0.020-0.129-0.045-0.189-0.125-0.158-0.208-0.512 0.078-0.611 0.224-0.116 0.171 0.001 0.312 0.128 0.442 0.244 0.253 0.536 0.418 0.864 0.541 0.245 0.090 0.476 0.099 0.735 0.081 0.192-0.015 0.395-0.021 0.579-0.087 0.315-0.115 0.618-0.303 0.841-0.551 0.229-0.254 0.394-0.529 0.517-0.846 0.11-0.285 0.158-0.587 0.264-0.875 0.1-0.269 0.278-0.731 0.008-0.966z"></path>
</svg>
