<!-- Generated by IcoMoon.io -->
<svg version="1.1" xmlns="http://www.w3.org/2000/svg" width="32" height="32" viewBox="0 0 32 32">
<title>bermuda_2</title>
<path d="M9.909 30.461v-0.539h12.308v1.078h-12.308zM11.876 29.436c0-0.012 0.034-0.49 0.077-1.063 0.084-1.142 0.105-1.423 0.235-3.161 0.049-0.648 0.12-1.618 0.159-2.155 0.094-1.293 0.117-1.572 0.131-1.598 0.006-0.012 0.027-0.030 0.046-0.039 0.031-0.016 0.425-0.018 3.597-0.015 1.959 0.002 3.566 0.007 3.571 0.012s0.043 0.461 0.084 1.013c0.041 0.552 0.174 2.355 0.297 4.006s0.22 3.007 0.217 3.012c-0.003 0.005-1.897 0.009-4.21 0.009-4.066 0-4.204-0.001-4.204-0.022zM16.486 25.175c0.016-0.016 0.018-0.088 0.018-0.61-0-0.658-0.003-0.692-0.076-0.839-0.049-0.1-0.143-0.202-0.224-0.241-0.086-0.042-0.2-0.041-0.291 0.004-0.082 0.040-0.169 0.134-0.22 0.237-0.067 0.136-0.070 0.168-0.074 0.829-0.004 0.587-0.003 0.605 0.019 0.621 0.019 0.014 0.096 0.017 0.426 0.017 0.351 0 0.406-0.002 0.422-0.019zM12.523 20.864c-0.013-0.015 0.011-0.367 0.135-2.046 0.24-3.231 0.22-2.937 0.2-2.988-0.014-0.035-0.056-0.075-0.191-0.182-0.095-0.075-0.235-0.18-0.312-0.233s-0.158-0.117-0.181-0.144c-0.053-0.061-0.107-0.174-0.117-0.243-0.006-0.046-0.002-0.061 0.029-0.112l0.037-0.059-0.006-1.106-0.050-0.009c-0.027-0.005-0.074-0.025-0.103-0.045l-0.053-0.037 0.046-0.039c0.045-0.038 0.050-0.039 0.251-0.059 0.112-0.011 0.326-0.036 0.475-0.055 0.668-0.084 0.657-0.084 2.962-0.089 2.285-0.005 2.784 0.002 3.262 0.048 1.273 0.122 1.177 0.109 1.24 0.168 0.018 0.017 0.032 0.035 0.032 0.040s-0.022 0.021-0.050 0.035c-0.045 0.023-0.061 0.025-0.174 0.018-0.068-0.004-0.144-0.011-0.168-0.015l-0.045-0.007 0.007 1.089 0.032 0.027c0.020 0.017 0.054 0.030 0.088 0.034 0.083 0.010 0.323 0.051 0.328 0.057 0.009 0.009-0.043 0.235-0.067 0.289-0.028 0.064-0.078 0.119-0.153 0.17-0.029 0.020-0.186 0.136-0.349 0.259-0.223 0.167-0.301 0.233-0.316 0.264-0.018 0.039-0.017 0.071 0.023 0.591 0.125 1.63 0.313 4.214 0.313 4.298v0.097h-3.555c-3.217 0-3.557-0.002-3.571-0.018zM16.492 18.512c0-0.711 0.001-0.698-0.080-0.844-0.205-0.37-0.591-0.322-0.734 0.090-0.065 0.187-0.071 0.284-0.062 0.878l0.008 0.515h0.868zM12.517 14.842c0.154-0.028 0.192-0.039 0.209-0.060 0.019-0.024 0.021-0.068 0.021-0.572 0-0.3-0.003-0.546-0.006-0.546s-0.094 0.008-0.203 0.018c-0.171 0.016-0.201 0.021-0.224 0.043l-0.027 0.025v0.563c0 0.529 0.001 0.563 0.021 0.563 0.011 0 0.105-0.016 0.209-0.035zM19.571 14.787c0.004-0.010 0.007-0.251 0.007-0.535v-0.516l-0.034-0.029c-0.035-0.029-0.039-0.030-0.357-0.063l-0.067-0.007 0.005 0.046c0.003 0.025 0.021 0.255 0.040 0.511 0.040 0.527 0.041 0.534 0.067 0.555 0.020 0.017 0.214 0.054 0.288 0.056 0.029 0.001 0.045-0.005 0.050-0.018zM12.964 14.685c0.007-0.071 0.077-1.011 0.077-1.034 0-0.006-0.021-0.011-0.046-0.011-0.050 0-0.079 0.021-0.090 0.063-0.010 0.040-0.001 1.025 0.010 1.041 0.023 0.036 0.042 0.014 0.049-0.059zM13.101 12.907c0-0.047 0.032-0.511 0.088-1.263 0.062-0.85 0.058-0.807 0.089-0.832 0.025-0.021 0.136-0.021 2.816-0.021h2.79l0.017 0.027c0.013 0.020 0.034 0.258 0.089 0.986 0.039 0.528 0.071 1.001 0.071 1.051v0.091h-5.96l0-0.038zM16.478 12.526c0.026-0.018 0.026-0.020 0.026-0.366 0-0.398-0.010-0.477-0.080-0.611-0.084-0.16-0.212-0.255-0.356-0.263-0.127-0.007-0.212 0.042-0.299 0.173-0.060 0.090-0.105 0.194-0.132 0.299-0.020 0.082-0.038 0.6-0.023 0.697 0.014 0.094-0.006 0.090 0.441 0.090 0.34 0 0.401-0.003 0.423-0.018zM12.688 10.334c-0.045-0.016-0.047-0.033-0.047-0.41 0-0.298 0.003-0.371 0.017-0.389 0.016-0.023 0.066-0.023 3.377-0.026 3.181-0.003 3.363-0.002 3.402 0.018 0.037 0.018 0.042 0.027 0.049 0.079 0.004 0.032 0.008 0.211 0.009 0.398l0.001 0.339-3.395-0.001c-1.867-0.001-3.403-0.004-3.413-0.007zM13.271 9.083c-0.062-0.015-0.087-0.034-0.328-0.258-0.378-0.349-0.766-0.739-0.802-0.805-0.017-0.032-0.052-0.119-0.077-0.193l-0.045-0.135h0.028c0.023 0 0.033-0.012 0.055-0.068 0.027-0.067 0.027-0.074 0.031-0.704 0.002-0.35 0.001-0.664-0.003-0.698l-0.008-0.062h-0.068c-0.097 0-0.133-0.029-0.128-0.103 0.006-0.098-0.144-0.069 1.517-0.292 0.347-0.047 0.346-0.046 0.37-0.071 0.017-0.017 0.018-0.145 0.018-1.234 0-0.954-0.003-1.22-0.015-1.236-0.008-0.011-0.040-0.025-0.071-0.030s-0.059-0.013-0.062-0.016c-0.003-0.003 0.062-0.051 0.145-0.106 0.235-0.155 1.035-0.677 1.393-0.909 0.178-0.115 0.342-0.227 0.365-0.25l0.041-0.040 0.007-0.25c0.007-0.265 0.014-0.299 0.076-0.404 0.037-0.064 0.132-0.148 0.209-0.186 0.088-0.044 0.22-0.043 0.307 0 0.128 0.064 0.212 0.157 0.259 0.285 0.021 0.058 0.025 0.094 0.025 0.267 0.001 0.311-0.002 0.306 0.531 0.625 0.374 0.224 1.498 0.915 1.566 0.963 0.031 0.022 0.032 0.025 0.012 0.027-0.013 0.001-0.054 0.006-0.091 0.010l-0.068 0.007 0.006 2.524 0.065 0.009c0.036 0.005 0.399 0.054 0.807 0.109s0.756 0.103 0.773 0.106c0.078 0.016 0.111 0.117 0.055 0.169-0.032 0.029-0.065 0.030-0.254 0.005-0.079-0.011-0.147-0.017-0.15-0.014s-0.006 0.312-0.007 0.686l-0.002 0.681 0.028 0.027c0.022 0.022 0.064 0.035 0.21 0.063 0.1 0.020 0.191 0.039 0.202 0.042 0.017 0.005 0.017 0.017-0.003 0.132-0.051 0.29-0.085 0.353-0.293 0.539-0.085 0.076-0.296 0.273-0.469 0.438s-0.336 0.312-0.362 0.326l-0.047 0.026-2.856 0.002c-1.571 0.001-2.872-0.002-2.891-0.007zM12.517 7.545c0.144-0.032 0.193-0.048 0.209-0.066 0.019-0.023 0.021-0.075 0.021-0.716 0-0.38-0.003-0.694-0.006-0.697s-0.071 0.004-0.15 0.015c-0.079 0.011-0.17 0.024-0.201 0.028-0.11 0.014-0.102-0.046-0.102 0.772 0 0.68 0.001 0.719 0.021 0.713 0.011-0.003 0.105-0.025 0.209-0.048zM19.587 6.815c-0.003-0.594-0.006-0.691-0.021-0.706-0.018-0.017-0.573-0.105-0.592-0.094-0.005 0.003-0.009 0.304-0.009 0.669v0.664l0.027 0.031c0.025 0.029 0.047 0.035 0.291 0.076 0.145 0.025 0.274 0.045 0.285 0.046 0.020 0.001 0.021-0.035 0.018-0.688zM13.39 7.373c0.233-0.039 0.427-0.075 0.432-0.080s0.008-0.313 0.006-0.685l-0.003-0.677-0.082 0.002c-0.070 0.002-0.627 0.072-0.745 0.093-0.026 0.005-0.046 0.019-0.062 0.045-0.023 0.037-0.024 0.057-0.024 0.679 0 0.352 0.003 0.652 0.007 0.667s0.016 0.027 0.027 0.027c0.011 0 0.211-0.032 0.443-0.071zM18.792 7.080c0.005-0.159 0.008-0.459 0.006-0.668-0.003-0.37-0.004-0.38-0.028-0.405-0.028-0.028-0.080-0.040-0.225-0.053l-0.097-0.008 0.003 0.672c0.003 0.623 0.005 0.674 0.024 0.693 0.021 0.021 0.221 0.063 0.28 0.059l0.029-0.002zM14.906 5.206c0.016-0.007 0.035-0.026 0.042-0.042 0.009-0.020 0.013-0.292 0.013-0.922 0-0.773-0.002-0.895-0.017-0.908-0.014-0.012-0.062-0.005-0.244 0.035-0.425 0.092-0.685 0.154-0.701 0.168-0.050 0.042-0.050 0.041-0.050 0.856v0.777l0.031 0.024c0.030 0.024 0.044 0.024 0.465 0.024 0.293 0 0.443-0.004 0.462-0.013zM16.906 5.196l0.028-0.023v-0.925c0-0.509-0.004-0.929-0.010-0.934s-0.375-0.011-0.822-0.013l-0.812-0.003-0.059 0.059v1.804l0.058 0.058h0.794c0.764 0 0.795-0.001 0.822-0.023zM18.227 5.205c0.014-0.007 0.035-0.024 0.046-0.038 0.019-0.023 0.020-0.083 0.021-0.794 0-0.85 0.002-0.825-0.073-0.849-0.054-0.018-0.88-0.201-0.905-0.201-0.011 0-0.024 0.012-0.027 0.026s-0.007 0.424-0.007 0.91c0 0.819 0.002 0.885 0.020 0.908 0.011 0.014 0.031 0.031 0.044 0.038 0.033 0.018 0.846 0.019 0.881 0z"></path>
</svg>
