<!-- Generated by IcoMoon.io -->
<svg version="1.1" xmlns="http://www.w3.org/2000/svg" width="32" height="32" viewBox="0 0 32 32">
<title>berserkers</title>
<path d="M10.745 28.995c-0.42-0.026-0.69-0.13-0.784-0.303-0.028-0.052-0.035-0.078-0.035-0.141 0-0.112 0.020-0.161 0.080-0.195 0.194-0.112 0.955-0.241 1.65-0.281 0.133-0.008 0.246-0.018 0.251-0.023s0.014-0.070 0.020-0.144c0.006-0.075 0.019-0.158 0.029-0.186 0.057-0.159 0.255-0.329 0.612-0.525 0.127-0.070 0.139-0.074 0.192-0.067 0.249 0.033 0.56 0.265 0.662 0.494 0.016 0.036 0.033 0.103 0.038 0.149 0.011 0.098 0.022 0.122 0.072 0.165 0.061 0.051 0.142 0.069 0.338 0.076 0.332 0.011 0.846-0.074 1.461-0.241 0.236-0.064 0.229-0.061 0.244-0.104 0.060-0.172-0.021-1.168-0.103-1.259s-0.485-0.080-1.222 0.033c-0.15 0.023-0.495 0.079-0.767 0.124s-0.616 0.101-0.767 0.124c-1.504 0.231-2.146 0.193-2.218-0.131-0.011-0.051-0.010-0.086 0.009-0.203s0.022-0.208 0.022-0.539c0-0.219-0.003-0.486-0.006-0.594l-0.006-0.196 0.095-0.028c0.288-0.084 0.604-0.123 0.8-0.1 0.236 0.028 0.357 0.103 0.395 0.244 0.018 0.066-0.001 0.164-0.055 0.283-0.036 0.079-0.043 0.11-0.044 0.176-0.001 0.131 0.055 0.229 0.168 0.296 0.042 0.025 0.072 0.032 0.149 0.036 0.092 0.005 0.105 0.002 0.288-0.061 0.448-0.153 0.819-0.218 1.704-0.299 0.716-0.066 0.951-0.103 1.16-0.183 0.217-0.084 0.326-0.215 0.326-0.393 0-0.131-0.094-0.383-0.165-0.443-0.138-0.116-0.547-0.135-2.123-0.098-1.193 0.028-2.776 0.044-2.928 0.030-0.417-0.039-0.597-0.211-0.675-0.642-0.017-0.095-0.021-0.192-0.021-0.606l-0.001-0.493 0.125-0.112c0.368-0.329 0.613-0.392 0.797-0.205 0.115 0.118 0.186 0.293 0.267 0.661 0.070 0.32 0.109 0.425 0.191 0.516 0.089 0.099 0.251 0.118 0.599 0.072 0.812-0.108 0.904-0.116 1.587-0.137 1.057-0.033 1.422-0.054 1.652-0.097 0.373-0.070 0.509-0.192 0.553-0.498 0.018-0.127 0.015-0.601-0.005-0.712-0.029-0.165-0.098-0.267-0.215-0.318-0.027-0.012-0.142-0.046-0.254-0.076-0.262-0.070-0.379-0.111-0.544-0.191-0.239-0.116-0.453-0.273-0.758-0.552-0.356-0.326-0.532-0.432-0.64-0.387-0.051 0.021-0.085 0.064-0.156 0.197-0.13 0.242-0.273 0.337-0.509 0.335-0.221-0.001-0.419-0.104-0.479-0.248-0.105-0.252 0.059-0.66 0.406-1.008 0.192-0.194 0.419-0.336 0.601-0.379 0.112-0.026 0.296-0.024 0.411 0.005 0.193 0.049 0.453 0.2 0.7 0.408 0.065 0.055 0.261 0.235 0.434 0.4 0.434 0.414 0.574 0.519 0.714 0.532 0.074 0.007 0.118-0.011 0.173-0.071 0.080-0.088 0.082-0.1 0.082-0.431 0-0.306-0.012-0.452-0.055-0.664-0.035-0.174-0.051-0.2-0.156-0.242-0.048-0.020-0.196-0.072-0.33-0.116-0.485-0.16-0.833-0.299-1.134-0.451-0.505-0.256-0.842-0.545-0.982-0.842l-0.044-0.093-0.063 0.111c-0.18 0.316-0.411 0.589-0.683 0.805-0.422 0.335-0.877 0.513-1.362 0.532-0.452 0.018-0.766-0.085-0.822-0.269-0.021-0.070 0.001-0.132 0.076-0.211 0.112-0.119 0.315-0.194 0.627-0.234 0.469-0.060 0.809-0.248 0.946-0.526 0.039-0.079 0.045-0.101 0.045-0.175 0-0.153-0.088-0.28-0.252-0.363l-0.072-0.036-0.842 0.012c-0.463 0.006-1.931 0.025-3.261 0.042l-2.419 0.030-0.095 0.030c-0.521 0.164-0.937 0.183-1.167 0.051-0.2-0.114-0.296-0.32-0.309-0.659-0.007-0.192 0.009-0.373 0.072-0.785 0.054-0.353 0.069-0.515 0.055-0.609-0.006-0.041-0.015-0.081-0.020-0.089s-0.008-0.146-0.007-0.307c0.001-0.16-0.002-0.428-0.008-0.596-0.023-0.661 0.029-0.997 0.196-1.248 0.11-0.166 0.281-0.282 0.501-0.339 0.090-0.023 0.157-0.031 0.301-0.037 0.422-0.015 0.636 0.076 0.678 0.287 0.046 0.23-0.204 0.665-0.64 1.114l-0.145 0.149-0.030 0.219c-0.071 0.528-0.095 0.838-0.096 1.253-0.001 0.376 0.011 0.494 0.062 0.651 0.044 0.134 0.090 0.182 0.205 0.211 0.226 0.057 0.668 0.079 0.86 0.042 0.158-0.030 0.231-0.086 0.218-0.164-0.024-0.142-0.032-0.206-0.050-0.407-0.041-0.478-0.042-1.27-0.001-1.89 0.010-0.15 0.043-0.581 0.074-0.957l0.056-0.684 0.091-0.089c0.050-0.049 0.147-0.153 0.216-0.232 0.161-0.184 0.274-0.279 0.409-0.345 0.172-0.084 0.228-0.095 0.481-0.095 0.257-0 0.322 0.013 0.498 0.097 0.193 0.092 0.352 0.278 0.41 0.479 0.054 0.188 0.047 0.411-0.017 0.543-0.049 0.1-0.103 0.141-0.316 0.241-0.255 0.119-0.375 0.183-0.51 0.271-0.162 0.105-0.315 0.228-0.321 0.257-0.003 0.014-0.008 0.116-0.012 0.227-0.022 0.618-0.102 1.304-0.238 2.045-0.031 0.167-0.058 0.352-0.061 0.422-0.006 0.117-0.005 0.127 0.022 0.166 0.050 0.073 0.071 0.076 0.515 0.061 0.443-0.015 0.6-0.026 0.856-0.062 0.298-0.042 0.482-0.097 0.547-0.165l0.033-0.034-0.019-0.182c-0.041-0.394-0.049-0.558-0.048-1.103 0-0.579 0.004-0.675 0.070-1.724 0.046-0.722 0.061-1.010 0.072-1.4l0.008-0.265 0.053-0.031c0.215-0.126 0.651-0.216 1.097-0.226 0.376-0.009 0.577 0.023 0.773 0.121 0.177 0.089 0.262 0.214 0.271 0.398 0.013 0.269-0.172 0.633-0.436 0.858-0.134 0.114-0.259 0.156-0.527 0.175-0.229 0.016-0.29 0.048-0.359 0.186-0.076 0.152-0.101 0.35-0.115 0.911-0.020 0.803-0.056 1.087-0.236 1.841-0.052 0.216-0.067 0.339-0.050 0.401 0.030 0.109 0.116 0.164 0.315 0.198 0.329 0.057 1.208 0.081 1.434 0.039 0.146-0.027 0.262-0.081 0.32-0.147 0.083-0.095 0.096-0.198 0.061-0.504-0.046-0.403-0.044-0.617 0.006-0.862 0.046-0.221 0.152-0.472 0.304-0.714 0.116-0.185 0.132-0.23 0.127-0.34-0.006-0.114-0.038-0.176-0.19-0.366-0.162-0.203-0.183-0.248-0.183-0.392 0-0.106 0.003-0.119 0.044-0.205 0.048-0.101 0.093-0.15 0.176-0.192 0.108-0.055 0.23-0.067 0.372-0.035 0.348 0.078 0.678 0.395 0.803 0.771 0.091 0.276 0.072 0.571-0.058 0.857-0.018 0.040-0.077 0.142-0.131 0.226-0.18 0.28-0.274 0.49-0.32 0.717-0.030 0.145-0.032 0.336-0.005 0.456 0.043 0.193 0.158 0.356 0.298 0.422 0.060 0.028 0.084 0.032 0.182 0.032 0.103-0 0.119-0.003 0.184-0.037 0.16-0.083 0.252-0.199 0.381-0.479 0.183-0.398 0.311-0.635 0.488-0.907 0.328-0.503 0.712-0.904 1.14-1.191 0.287-0.192 0.525-0.303 0.803-0.374 0.081-0.021 0.17-0.051 0.197-0.066 0.066-0.039 0.151-0.135 0.189-0.215 0.098-0.207 0.114-0.521 0.040-0.76-0.019-0.063-0.040-0.096-0.108-0.174-0.102-0.116-0.148-0.14-0.267-0.14-0.208-0.001-0.394 0.097-1.021 0.536-0.367 0.257-0.499 0.339-0.689 0.433-0.284 0.14-0.465 0.176-0.642 0.13-0.142-0.037-0.283-0.155-0.377-0.315-0.064-0.109-0.14-0.31-0.159-0.42-0.036-0.206 0.029-0.371 0.178-0.45 0.039-0.021 0.069-0.026 0.139-0.026 0.078 0 0.098 0.005 0.164 0.040 0.094 0.050 0.176 0.139 0.235 0.254 0.046 0.089 0.046 0.089 0.088 0.082 0.156-0.025 0.301-0.112 0.761-0.459 0.62-0.467 0.857-0.608 1.182-0.702 0.083-0.024 0.257-0.053 0.32-0.054 0.013-0 0.011-0.557-0.003-0.909-0.051-1.295-0.155-2.325-0.428-4.226-0.213-1.482-0.261-1.937-0.245-2.318 0.023-0.532 0.156-0.774 0.457-0.833 0.061-0.012 0.117-0.012 0.291 0.002 0.124 0.010 0.37 0.016 0.578 0.016 0.437-0.001 0.649-0.018 1.438-0.114 0.278-0.034 0.675-0.037 0.812-0.007 0.286 0.064 0.459 0.197 0.665 0.509 0.136 0.206 0.175 0.283 0.229 0.445 0.181 0.54 0.018 1.133-0.364 1.324-0.199 0.1-0.43 0.076-0.55-0.056-0.115-0.128-0.141-0.233-0.205-0.833-0.021-0.198-0.043-0.294-0.085-0.365-0.055-0.094-0.012-0.090-0.855-0.091-0.766-0.001-0.956 0.007-1.138 0.048-0.166 0.038-0.17 0.052-0.169 0.605 0.001 0.51 0.034 1.066 0.089 1.527 0.021 0.171 0.029 0.207 0.064 0.282 0.066 0.14 0.163 0.229 0.302 0.28 0.052 0.019 0.107 0.025 0.245 0.030 0.233 0.008 0.37-0.012 1.093-0.157 1.090-0.219 1.593-0.284 2.408-0.311l0.245-0.008 0.068 0.082c0.218 0.264 0.376 0.565 0.428 0.817 0.025 0.119 0.024 0.334-0.001 0.435-0.093 0.376-0.441 0.655-0.818 0.655-0.166 0-0.286-0.043-0.39-0.14-0.108-0.101-0.159-0.224-0.175-0.427-0.014-0.173-0.056-0.237-0.201-0.312-0.331-0.169-1.256-0.134-2.339 0.088-0.341 0.070-0.668 0.154-0.713 0.183-0.011 0.007-0.012 0.071-0.003 0.282 0.019 0.445 0.046 0.687 0.109 0.972 0.020 0.089 0.032 0.12 0.050 0.131s0.153 0.014 0.506 0.013c0.578-0.001 0.522 0.002 2.853-0.129 0.551-0.031 0.908-0.047 1.317-0.061l0.241-0.008 0.031 0.028c0.017 0.016 0.076 0.083 0.131 0.15 0.267 0.324 0.453 0.683 0.523 1.014 0.033 0.153 0.030 0.446-0.006 0.587-0.087 0.347-0.325 0.62-0.613 0.703-0.052 0.015-0.101 0.019-0.19 0.016-0.103-0.004-0.131-0.009-0.19-0.038-0.079-0.039-0.128-0.098-0.159-0.191-0.016-0.050-0.020-0.121-0.022-0.405-0.002-0.305-0.005-0.355-0.027-0.436-0.034-0.128-0.078-0.207-0.156-0.283-0.099-0.097-0.192-0.139-0.352-0.161-0.396-0.053-1.67-0.044-3.304 0.024-0.229 0.010-0.422 0.017-0.429 0.017-0.038 0-0.1 0.384-0.108 0.666-0.009 0.314 0.030 0.532 0.13 0.731 0.080 0.159 0.139 0.223 0.374 0.4 0.603 0.457 1.047 0.642 1.313 0.547 0.083-0.029 0.143-0.070 0.265-0.181 0.145-0.131 0.224-0.186 0.291-0.202 0.128-0.031 0.247 0.017 0.38 0.152 0.144 0.147 0.203 0.283 0.203 0.469 0 0.125-0.022 0.22-0.077 0.328-0.083 0.164-0.201 0.292-0.382 0.412-0.139 0.092-0.243 0.125-0.427 0.133-0.324 0.014-0.61-0.062-1.266-0.336-0.34-0.142-0.431-0.173-0.509-0.172-0.265 0.001-0.302 0.338-0.063 0.575 0.11 0.109 0.207 0.164 0.377 0.214 0.232 0.069 0.302 0.095 0.435 0.162 0.279 0.141 0.525 0.326 0.823 0.617 0.289 0.282 0.495 0.533 0.531 0.648 0.080 0.253 0.344 0.91 0.463 1.153 0.111 0.225 0.161 0.291 0.222 0.291 0.089 0 0.398-0.038 0.536-0.066 0.188-0.038 0.269-0.069 0.333-0.128s0.086-0.1 0.086-0.162c0-0.113-0.053-0.175-0.617-0.733l-0.471-0.465-0.004-0.224c-0.009-0.528 0.090-0.93 0.312-1.264 0.142-0.212 0.319-0.373 0.522-0.474 0.431-0.213 0.837-0.089 0.727 0.222-0.031 0.088-0.089 0.158-0.338 0.406-0.25 0.249-0.294 0.305-0.353 0.451-0.063 0.157-0.044 0.312 0.058 0.465 0.060 0.090 0.229 0.262 0.494 0.502 0.213 0.193 0.351 0.344 0.447 0.489 0.070 0.106 0.082 0.127 0.185 0.338 0.092 0.187 0.142 0.263 0.231 0.352 0.135 0.134 0.284 0.184 0.55 0.184 0.189 0 0.4-0.026 0.911-0.112 1.515-0.256 2.54-0.365 3.77-0.399 0.909-0.026 1.229-0.027 1.341-0.008 0.114 0.020 0.229 0.068 0.293 0.122 0.090 0.076 0.166 0.237 0.209 0.442 0.058 0.279 0.081 0.648 0.119 1.928 0.021 0.7 0.041 1.116 0.089 1.878 0.068 1.074 0.061 1.321-0.047 1.553-0.070 0.151-0.203 0.246-0.406 0.29-0.231 0.051-0.707 0.050-0.92-0-0.172-0.041-0.308-0.127-0.377-0.24-0.076-0.123-0.078-0.317-0.008-0.718 0.028-0.162 0.024-0.158 0.308-0.326 0.338-0.201 0.334-0.196 0.355-0.346 0.064-0.44 0.125-2.352 0.099-3.089-0.012-0.328-0.013-0.338-0.043-0.401-0.044-0.091-0.132-0.166-0.23-0.197-0.1-0.032-0.337-0.043-0.513-0.023-0.069 0.008-0.24 0.018-0.38 0.024-0.29 0.012-0.359 0.023-0.427 0.072-0.083 0.060-0.119 0.16-0.167 0.463-0.018 0.114-0.024 0.206-0.024 0.393 0 0.46 0.038 0.785 0.202 1.71 0.104 0.588 0.123 0.735 0.124 0.963 0.001 0.154-0.004 0.215-0.021 0.281-0.021 0.082-0.021 0.086 0 0.125 0.017 0.032 0.022 0.066 0.022 0.165 0 0.108-0.005 0.137-0.034 0.218-0.084 0.227-0.279 0.437-0.465 0.501-0.048 0.016-0.082 0.019-0.178 0.012-0.275-0.019-0.597-0.144-0.927-0.359-0.355-0.232-0.581-0.48-0.624-0.687-0.013-0.060-0.012-0.071 0.012-0.117 0.014-0.027 0.059-0.084 0.099-0.125 0.163-0.166 0.397-0.281 0.705-0.346 0.065-0.014 0.129-0.027 0.143-0.031 0.072-0.016 0.149-0.148 0.192-0.327 0.104-0.437 0.1-1.342-0.011-2.511l-0.026-0.27h-0.14c-0.077 0-0.201 0.008-0.274 0.018-0.662 0.087-1.013 0.429-0.993 0.964 0.003 0.071 0.011 0.234 0.018 0.361 0.054 0.937 0.070 1.685 0.040 1.896-0.065 0.46-0.233 0.687-0.561 0.76-0.116 0.026-0.323 0.026-0.446 0-0.467-0.097-0.945-0.51-1.035-0.894-0.043-0.184 0.029-0.353 0.192-0.448 0.061-0.035 0.198-0.085 0.267-0.096s0.378-0.095 0.431-0.117c0.053-0.022 0.123-0.085 0.16-0.143 0.067-0.106 0.092-0.448 0.083-1.151-0.006-0.471-0.020-0.696-0.050-0.772-0.019-0.048-0.458-0.12-0.737-0.12-0.283-0-0.44 0.042-0.551 0.149-0.067 0.065-0.077 0.087-0.115 0.238-0.069 0.279-0.18 0.497-0.558 1.090-0.184 0.289-0.245 0.403-0.245 0.457 0 0.057 0.025 0.121 0.089 0.226 0.121 0.2 0.157 0.319 0.136 0.461-0.013 0.091-0.031 0.145-0.086 0.254-0.033 0.065-0.061 0.099-0.133 0.16-0.137 0.117-0.199 0.149-0.286 0.148-0.084-0.001-0.163-0.036-0.28-0.123-0.102-0.076-0.343-0.325-0.508-0.523l-0.134-0.16 0.007-0.071c0.028-0.273 0.107-0.615 0.191-0.826 0.108-0.272 0.196-0.403 0.443-0.659 0.219-0.227 0.255-0.288 0.255-0.439 0-0.138-0.034-0.192-0.154-0.248-0.053-0.025-0.077-0.027-0.232-0.027-0.143 0-0.19 0.005-0.273 0.027-0.226 0.061-0.417 0.169-0.554 0.314-0.097 0.103-0.159 0.214-0.194 0.353-0.074 0.29-0.211 0.538-0.415 0.752-0.313 0.329-0.646 0.499-1.549 0.788-0.362 0.116-0.526 0.19-0.601 0.271-0.117 0.127-0.202 0.527-0.159 0.748 0.031 0.16 0.11 0.271 0.235 0.333 0.074 0.037 0.087 0.039 0.199 0.039 0.22-0.001 0.415-0.081 0.785-0.322 0.387-0.252 0.543-0.338 0.718-0.397 0.183-0.061 0.41-0.070 0.587-0.022 0.142 0.038 0.31 0.157 0.413 0.294 0.072 0.095 0.169 0.289 0.195 0.391 0.035 0.138 0.016 0.27-0.047 0.334-0.062 0.062-0.127 0.056-0.398-0.037-0.265-0.091-0.348-0.108-0.488-0.1-0.145 0.008-0.22 0.045-0.38 0.187-0.28 0.248-0.509 0.397-0.766 0.499-0.11 0.044-0.237 0.076-0.445 0.115-0.206 0.038-0.295 0.077-0.349 0.153-0.123 0.175-0.156 0.448-0.155 1.284 0.001 0.543 0.012 0.909 0.046 1.492 0.035 0.601 0.059 0.911 0.185 2.383 0.052 0.612 0.047 0.838-0.024 1.045-0.087 0.253-0.274 0.427-0.559 0.522-0.261 0.087-0.484 0.107-1.153 0.101-1.856-0.015-2.143-0.003-2.846 0.12-0.501 0.088-0.834 0.117-1.13 0.099zM15.602 18.844c0.036-0.010 0.079-0.028 0.097-0.038l0.033-0.019v-1.564h-2.274l0.006 0.076c0.013 0.164 0.165 0.408 0.413 0.666 0.598 0.62 1.334 0.995 1.724 0.88zM16.755 18.799c0.428-0.091 0.839-0.494 1.073-1.053 0.1-0.239 0.151-0.463 0.151-0.668v-0.118l-0.045 0.007c-0.025 0.004-0.384 0.039-0.799 0.079s-0.767 0.075-0.782 0.078l-0.027 0.006 0.006 1.658 0.065 0.014c0.091 0.019 0.265 0.019 0.357-0.001zM15.661 15.683v-1.052l-0.033-0.013c-0.060-0.024-0.285-0.027-0.397-0.005-0.544 0.103-1.17 0.576-1.52 1.15-0.197 0.323-0.294 0.681-0.253 0.929l0.007 0.045h2.196zM17.063 16.599c0.383-0.016 0.746-0.033 0.807-0.037l0.112-0.007-0.008-0.103c-0.044-0.554-0.389-1.11-0.958-1.541-0.203-0.154-0.449-0.294-0.618-0.351-0.096-0.033-0.218-0.045-0.244-0.024-0.016 0.013-0.018 0.14-0.018 1.052 0 0.57 0.004 1.041 0.009 1.046s0.057 0.006 0.116 0.002c0.059-0.004 0.42-0.020 0.802-0.036z"></path>
</svg>
