<!-- Generated by IcoMoon.io -->
<svg version="1.1" xmlns="http://www.w3.org/2000/svg" width="33" height="32" viewBox="0 0 33 32">
<title>beyond_the_gates_of_sleep</title>
<path d="M12.065 4.958c0.089 0 0.175-0.006 0.263 0.003 0.243 0.032 0.48 0.094 0.725 0.126 0.161 0.022 0.319 0.035 0.482 0.051 0.222 0.022 0.43 0.062 0.645 0.114 0.218 0.051 0.438 0.084 0.66 0.116 0.591 0.085 1.189 0.14 1.782 0.221 0.386 0.052 0.772 0.091 1.157 0.143 0.27 0.036 0.54 0.051 0.81 0.079 0.157 0.016 0.314 0.029 0.47 0.051 0.010 0.001 0.162 0.013 0.187 0.022 0.035 0.013 0.057 0.048 0.065 0.080 0.012 0.048-0.011 0.093-0.020 0.138-0.012 0.061-0.005 0.127-0.005 0.188v0.391c0 0.062-0.019 0.145-0.001 0.204 0.009 0.034 0.039 0.055 0.012 0.085-0.022 0.026-0.109 0.045-0.143 0.065-0.095 0.055-0.212 0.081-0.316 0.125-0.071 0.032-0.148 0.032-0.222 0.059-0.096 0.034-0.186 0.085-0.268 0.136-0.171 0.107-0.353 0.201-0.533 0.296-0.061 0.032-0.126 0.064-0.185 0.1-0.080 0.050-0.132 0.112-0.197 0.175-0.054 0.050-0.111 0.093-0.166 0.142-0.044 0.038-0.079 0.087-0.131 0.116-0.050 0.029-0.112 0.057-0.167 0.071-0.035 0.010-0.069 0.013-0.104 0.029-0.047 0.022-0.067 0.036-0.122 0.046-0.049 0.010-0.084 0.022-0.127 0.044-0.049 0.022-0.095 0.034-0.139 0.060-0.042 0.026-0.11 0.101-0.168 0.096-0.001 0-0.020-0.022-0.025-0.022-0.061-0.026-0.111-0.029-0.18-0.039-0.337-0.040-0.643-0.186-0.977-0.237-0.155-0.022-0.314-0.032-0.469-0.056-0.173-0.029-0.341-0.080-0.512-0.12-0.097-0.022-0.191-0.049-0.286-0.077-0.167-0.049-0.333-0.076-0.505-0.106-0.398-0.069-0.78-0.198-1.174-0.281-0.202-0.044-0.405-0.079-0.608-0.126-0.131-0.032-0.257-0.060-0.392-0.084-0.386-0.065-0.779-0.089-1.163-0.159-0.105-0.019-0.21-0.039-0.316-0.055-0.039-0.006-0.121-0.006-0.148-0.036-0.009-0.010 0-0.022-0.002-0.032-0.025-0.073-0.019-0.172-0.024-0.248-0.014-0.253-0.001-0.508-0.001-0.761 0-0.117-0.028-0.262 0.019-0.374 0.026-0.064 0.040-0.051 0.121-0.062 0.133-0.019 0.258-0.092 0.381-0.136 0.223-0.081 0.435-0.183 0.663-0.258 0.226-0.076 0.43-0.184 0.674-0.221 0.125-0.019 0.258-0.041 0.681-0.080z"></path>
<path d="M7.311 7.631c0.45 0.036 0.896 0.106 1.346 0.145 0.802 0.069 1.601 0.166 2.377 0.353 0.232 0.056 0.463 0.115 0.697 0.162 0.163 0.034 0.322 0.070 0.483 0.112 0.121 0.032 0.241 0.067 0.366 0.084 0.336 0.042 0.684 0.061 1.014 0.122 0.097 0.019 0.192 0.029 0.287 0.047 0.042 0.006 0.086-0.002 0.13 0.006 0.019 0.003 0.032 0.013 0.052 0.016 0.028 0.003 0.084-0.016 0.097 0.013 0.010 0.016-0.021 0.060-0.025 0.079-0.021 0.112 0.001 0.245 0.001 0.357 0 0.12-0.028 0.261 0.031 0.371 0.032 0.060 0.034 0.122-0.031 0.168-0.032 0.022-0.060 0.040-0.095 0.059-0.161 0.087-0.291 0.221-0.425 0.333-0.051 0.042-0.091 0.091-0.147 0.13-0.109 0.076-0.212 0.15-0.312 0.233-0.218 0.184-0.455 0.358-0.697 0.519-0.075 0.050-0.147 0.102-0.221 0.153-0.061 0.042-0.133 0.115-0.206 0.142-0.075 0.029-0.135-0.016-0.206-0.042-0.173-0.062-0.346-0.116-0.532-0.149-0.218-0.036-0.423-0.064-0.634-0.126-0.237-0.069-0.468-0.104-0.716-0.132-0.309-0.035-0.6-0.126-0.907-0.165-0.167-0.022-0.331-0.010-0.498-0.010-0.241 0.002-0.459-0.022-0.696-0.057-0.217-0.032-0.432-0.077-0.651-0.101-0.086-0.010-0.175-0.013-0.26-0.029-0.044-0.006-0.080-0.001-0.095-0.040-0.016-0.045 0.007-0.121 0.005-0.168-0.005-0.099-0.022-0.195-0.026-0.293-0.001-0.085-0.020-0.162-0.049-0.243-0.028-0.075-0.057-0.15-0.081-0.225-0.010-0.035-0.028-0.067-0.037-0.101-0.007-0.022 0.004-0.060-0.026-0.072 0.070 0.085 0.1 0.2 0.127 0.302 0.032 0.125 0.061 0.263 0.067 0.391 0.004 0.096 0.024 0.185 0.024 0.282 0 0.060 0.029 0.177-0.004 0.223-0.080-0.029-0.152-0.051-0.237-0.069-0.176-0.035-0.331-0.1-0.498-0.151-0.203-0.062-0.417-0.104-0.62-0.163-0.084-0.022-0.172-0.026-0.256-0.044-0.022-0.003-0.039-0.016-0.061-0.019-0.015-0.002-0.057 0.010-0.070-0.002-0.031-0.029 0.029-0.127 0.035-0.153 0.034-0.112 0.061-0.23 0.079-0.346 0.017-0.11-0.005-0.211-0.020-0.319-0.007-0.061-0.021-0.122-0.031-0.184-0.010-0.065-0.005-0.143-0.024-0.207-0.009-0.032-0.041-0.073-0.011-0.104 0.025-0.029 0.104-0.016 0.137-0.022 0.085-0.013 0.17-0.046 0.246-0.076 0.105-0.042 0.208-0.086 0.308-0.136 0.094-0.046 0.17-0.106 0.255-0.161 0.105-0.070 0.215-0.089 0.327-0.143 0.061-0.029 0.115-0.072 0.172-0.106 0.251-0.151 0.529-0.277 0.741-0.443z"></path>
<path d="M10.96 13.201h-0.001c0.004-0.037 0.007-0.073 0.010-0.111 0-0.010 0-0.019 0-0.026 0-0.094-0.017-0.196 0-0.285 0.022 0.006 0.037 0.029 0.057 0.039-0.009-0.108-0.050-0.217-0.066-0.326-0.017-0.117-0.047-0.233-0.057-0.351-0.006-0.065 0.012-0.135 0.002-0.198-0.010-0.059-0.036-0.114-0.047-0.171l0.021-0.003c-0.007 0-0.014 0.001-0.021 0.001-0.001-0.006-0.005-0.013-0.005-0.019-0.11-0.022-0.282-0.006-0.388-0.003-0.131 0.003-0.267 0.019-0.397 0.036-0.016 0.002-0.034 0.003-0.050 0.006-0.206 0.006-0.408 0.032-0.614 0.040-0.382 0.013-0.772-0.029-1.152 0.013-0.373 0.039-0.745 0.029-1.12 0.029h-1.686c-0.295 0-0.61 0.022-0.9-0.026-0.080-0.013-0.162-0.029-0.242-0.038-0.028-0.002-0.046 0.001-0.074-0.003-0.019-0.002-0.028-0.013-0.054-0.016-0.025-0.002-0.046 0-0.070-0.003-0.030-0.003-0.009-0.032-0.055-0.013-0.062 0.022-0.097 0.137-0.125 0.18-0.111 0.171-0.22 0.344-0.326 0.517-0.026 0.044-0.065 0.081-0.092 0.121-0.029 0.044-0.041 0.094-0.070 0.139-0.069 0.106-0.155 0.201-0.211 0.312-0.020 0.039-0.049 0.079-0.080 0.111 0.016 0.013 0.050 0.016 0.085 0.019 0.010-0.022 0.026-0.047 0.055-0.066l0.056-0.010c-0.004 0.003-0.009 0.010-0.014 0.013-0.029 0.019-0.066 0.029-0.085 0.057 0.019 0.003 0.044 0.003 0.067 0.003-0.025 0.001-0.052 0.002-0.080 0.002-0.021 0.052-0.009 0.115 0.004 0.171 0.011 0.055 0.007 0.105 0.026 0.161 0.034 0.099 0.069 0.196 0.111 0.292 0.022 0.051 0.057 0.1 0.077 0.151 0.007 0.019 0.006 0.046 0.015 0.066 0.029 0.055 0.057 0.035 0.117 0.022 0.188-0.038 0.388-0.036 0.58-0.051 0.208-0.016 0.413-0.055 0.621-0.072 0.213-0.016 0.428-0.045 0.641-0.066 0.303-0.032 0.593-0.042 0.898-0.042 0.558 0.001 1.117 0 1.676 0 0.49 0 0.979 0 1.47 0 0.22 0 0.439-0.003 0.658 0 0.19 0.003 0.366 0.032 0.553 0.059 0.109 0.016 0.232 0.041 0.342 0.022 0.011-0.026 0.006-0.062 0.001-0.089-0.011-0.056-0.017-0.080-0.005-0.139 0.021-0.1 0.034-0.204 0.051-0.305 0.007-0.047 0.010-0.090 0.019-0.135-0.012-0.003-0.025-0.010-0.039-0.010-0.032-0.001-0.060 0.002-0.091-0.003z"></path>
<path d="M12.941 14.47c-0.051-0.003-0.104 0.006-0.155 0.013-0.232 0.026-0.462 0.057-0.694 0.090-0.584 0.085-1.177 0.155-1.767 0.211-0.338 0.032-0.675 0.075-1.014 0.1-0.213 0.016-0.425 0.026-0.638 0.049-0.298 0.034-0.598 0.050-0.896 0.082-0.262 0.029-0.518 0.056-0.777 0.090-0.197 0.026-0.389 0.050-0.586 0.067-0.005 0.051-0.024 0.101-0.029 0.152-0.005 0.060-0.007 0.133-0.024 0.191-0.013 0.046-0.025 0.077-0.025 0.127 0.001 0.034 0 0.067 0 0.101 0 0.072 0.013 0.155-0.005 0.226-0.011 0.045-0.039 0.092-0.015 0.14 0.030 0.061 0.128 0.091 0.19 0.125 0.13 0.073 0.245 0.161 0.376 0.232 0.077 0.042 0.16 0.082 0.23 0.132 0.066 0.047 0.12 0.105 0.188 0.151 0.102 0.069 0.198 0.122 0.294 0.198 0.076 0.060 0.168 0.116 0.256 0.162 0.062 0.032 0.114 0.056 0.172 0.097 0.046 0.032 0.127 0.060 0.167 0.1 0.007 0.006 0.016 0.032 0.025 0.036 0.040 0.022 0.123-0.013 0.162-0.016 0.137-0.016 0.272-0.013 0.409-0.022 0.539-0.032 1.074-0.127 1.611-0.184 0.148-0.016 0.298-0.026 0.44-0.064 0.122-0.032 0.231-0.065 0.357-0.082 0.111-0.016 0.222-0.022 0.332-0.039 0.178-0.022 0.354-0.062 0.535-0.081 0.353-0.038 0.705-0.094 1.057-0.145 0.172-0.026 0.353-0.026 0.522-0.066 0.087-0.022 0.163-0.042 0.253-0.055 0.081-0.013 0.187-0.002 0.266-0.026 0.044-0.013 0.091-0.026 0.14-0.039 0.051-0.013 0.057-0.029 0.092-0.055 0.067-0.049 0.157-0.097 0.23-0.142 0.005-0.002 0.016-0.019 0.025-0.022 0.032-0.013 0.084-0.016 0.12-0.026 0.055-0.016 0.104-0.010 0.125-0.054 0.015-0.032-0.002-0.143-0.002-0.168-0.001-0.066-0.001-0.131 0.005-0.196 0.009-0.092 0.047-0.184 0.045-0.276-0.002-0.062 0.031-0.11 0.044-0.171 0.006-0.034 0.005-0.066 0.005-0.101 0.001-0.057-0.007-0.065-0.077-0.077-0.031-0.003-0.054-0.002-0.084-0.003-0.116-0.003-0.222-0.032-0.336-0.052-0.16-0.026-0.318-0.073-0.465-0.133-0.14-0.056-0.272-0.126-0.412-0.181-0.046-0.019-0.096-0.029-0.142-0.048-0.070-0.029-0.13-0.074-0.202-0.101-0.065-0.022-0.136-0.036-0.201-0.060-0.046-0.016-0.081-0.044-0.126-0.062-0.050-0.022-0.132-0.026 0-0.122z"></path>
<path d="M17.072 16.912c0.040-0.001 0.059 0.006 0.095 0.016 0.087 0.019 0.191 0.010 0.282 0.019 0.201 0.026 0.409 0.066 0.613 0.069 0.084 0.001 0.157 0.003 0.24 0.016 0.034 0.003 0.069 0 0.102 0.010 0.047 0.013 0.040 0.026 0.049 0.057 0.012 0.049 0.020 0.104 0.028 0.155 0.021 0.141 0.022 0.278 0.022 0.42 0 0.067 0.009 0.14-0.001 0.207-0.011 0.067-0.040 0.133-0.054 0.203-0.030 0.15-0.085 0.306-0.14 0.45-0.035 0.090-0.085 0.168-0.11 0.262-0.028 0.106-0.035 0.213-0.060 0.321-0.035 0.145-0.060 0.296-0.080 0.443-0.024 0.182-0.12 0.349-0.148 0.528-0.007 0.051-0.015 0.105-0.030 0.153-0.019 0.064-0.019 0.121-0.019 0.188 0 0.074 0 0.149 0 0.223 0 0.057-0.012 0.087-0.052 0.131-0.021 0.022-0.061 0.070-0.095 0.085-0.030 0.013-0.072 0.013-0.109 0.019-0.136 0.029-0.277 0.035-0.417 0.052-0.251 0.029-0.499 0.044-0.752 0.056-0.191 0.010-0.384 0.026-0.576 0.029-0.092 0-0.175-0.013-0.266-0.026-0.075-0.013-0.148-0.026-0.222-0.037-0.147-0.022-0.298-0.016-0.444-0.040-0.396-0.065-0.802-0.041-1.204-0.041h-0.248c-0.049 0-0.126 0.013-0.171-0.003-0.011-0.050-0.002-0.107-0.002-0.159v-0.346c0-0.11-0.001-0.221 0-0.332 0.001-0.059-0.039-0.096 0-0.147s0.116-0.060 0.157-0.114c0.020-0.026 0.020-0.046 0.044-0.074 0.039-0.045 0.081-0.086 0.114-0.136 0.089-0.131 0.185-0.261 0.277-0.391 0.12-0.166 0.236-0.339 0.363-0.503 0.137-0.176 0.251-0.367 0.404-0.533 0.166-0.18 0.337-0.353 0.485-0.541 0.097-0.122 0.24-0.22 0.328-0.346 0.057-0.082 0.117-0.167 0.193-0.24 0.105-0.101 0.207-0.184 0.377-0.184 0.205 0.001 0.405 0 0.61 0.016 0.18 0.016 0.362-0.013 0.539 0.029 0 0.006 0.001 0.013-0.121 0.038z"></path>
<path d="M19.61 18.556c0.006 0.001 0.014 0.001 0.020 0.002 0.015 0.029 0.017 0.089 0.021 0.116 0.015 0.090 0.041 0.178 0.052 0.268 0.010 0.070 0.031 0.195 0 0.266-0.016 0.037-0.045 0.036-0.014 0.082 0.005 0.006 0.017 0.013 0.022 0.022 0.052 0.069 0.084 0.137 0.126 0.211 0.117 0.21 0.349 0.347 0.518 0.523 0.105 0.11 0.238 0.192 0.333 0.311 0.079 0.097 0.141 0.201 0.226 0.295 0.115 0.13 0.231 0.256 0.337 0.391 0.086 0.108 0.197 0.173 0.304 0.266 0.077 0.066 0.127 0.15 0.196 0.222 0.087 0.091 0.178 0.168 0.251 0.271 0.028 0.040 0.039 0.107 0.094 0.126 0.021 0.006 0.060-0.002 0.084-0.002 0.046 0.001 0.081 0.013 0.127 0.022 0.086 0.019 0.165 0.042 0.253 0.041 0.329-0.001 0.659 0 0.988 0h0.993c0.096 0 0.193 0 0.289 0.001 0.049 0 0.105 0.003 0.151-0.010 0.069-0.022 0.11-0.054 0.188-0.067 0.086-0.016 0.281-0.039 0.327-0.12 0.031-0.054-0.009-0.157-0.017-0.21-0.026-0.14 0-0.277-0.037-0.418-0.025-0.095-0.017-0.19-0.017-0.286 0-0.044 0.014-0.101 0.001-0.143-0.022-0.076-0.157-0.124-0.225-0.161-0.105-0.057-0.198-0.122-0.301-0.183-0.066-0.034-0.131-0.070-0.192-0.11-0.060-0.050-0.117-0.101-0.172-0.155-0.131-0.106-0.299-0.184-0.439-0.286-0.070-0.050-0.135-0.105-0.206-0.153-0.067-0.046-0.145-0.080-0.216-0.121-0.077-0.046-0.146-0.1-0.222-0.146-0.072-0.044-0.147-0.081-0.211-0.133-0.111-0.089-0.238-0.155-0.351-0.241-0.151-0.115-0.301-0.243-0.469-0.341-0.061-0.036-0.119-0.075-0.178-0.112-0.041-0.026-0.099-0.077-0.147-0.094-0.050-0.016-0.132-0.003-0.183 0.001-0.22 0.019-0.435 0.055-0.655 0.073-0.089 0.006-0.175 0-0.265 0.002-0.107 0.003-0.221 0.019-0.328 0.029-0.163 0.016-0.326 0.016-0.49 0.016-0.238 0-0.477 0-0.566-0.061z"></path>
<path d="M24.887 19.433c0.003 0.173-0.039 0.353-0.062 0.525-0.007 0.046-0.039 0.111 0.011 0.139 0.021 0.013 0.059 0.019 0.080 0.029 0.042 0.016 0.075 0.032 0.113 0.055 0.131 0.075 0.276 0.117 0.421 0.171 0.146 0.054 0.294 0.097 0.44 0.15 0.227 0.083 0.462 0.138 0.699 0.2 0.429 0.111 0.86 0.196 1.276 0.336 0.211 0.071 0.428 0.117 0.651 0.149 0.183 0.026 0.364 0.061 0.545 0.096 0.17 0.032 0.363 0.069 0.503 0.159 0.014-0.073 0.091-0.151 0.141-0.211 0.111-0.136 0.268-0.235 0.454-0.288 0.13-0.038 0.257-0.061 0.389-0.089 0.117-0.026 0.226-0.066 0.337-0.106 0.141-0.051 0.286-0.092 0.427-0.142 0.057-0.019 0.173-0.041 0.202-0.090 0.017-0.029-0.003-0.077 0.006-0.11 0.015-0.055 0.022-0.108 0.031-0.166 0.016-0.104 0.012-0.207 0.012-0.312 0.001-0.084 0.006-0.167-0.024-0.248-0.024-0.067-0.040-0.137-0.066-0.203-0.011-0.029-0.026-0.082-0.055-0.105-0.037-0.029-0.1-0.019-0.146-0.019-0.121-0.006-0.245-0.019-0.364-0.032-0.313-0.032-0.623-0.086-0.936-0.12-0.507-0.055-1.008-0.137-1.505-0.238-0.197-0.040-0.387-0.072-0.586-0.102-0.095-0.016-0.173-0.041-0.272-0.041-0.121 0-0.236-0.038-0.356-0.042-0.115-0.003-0.222 0.016-0.331 0.042-0.045 0.013-0.094 0.032-0.141 0.037-0.042 0.006-0.087 0.001-0.128 0.006-0.105 0.016-0.206 0.059-0.309 0.080-0.155 0.032-0.287 0.062-0.423 0.133-0.137 0.071-0.258 0.163-0.399 0.229-0.079 0.038-0.17 0.063-0.255 0.086-0.056 0.016-0.137 0.032-0.382 0.042z"></path>
<path d="M24.924 4.033c0.010-0.049 0.020-0.126 0.010-0.176-0.020-0.089-0.14-0.085-0.218-0.099-0.354-0.061-0.726-0.086-1.083-0.15-0.233-0.042-0.468-0.072-0.704-0.097-0.368-0.040-0.729-0.122-1.097-0.162-0.253-0.029-0.497-0.092-0.747-0.126-0.23-0.032-0.445-0.067-0.671-0.115-0.158-0.034-0.322-0.040-0.482-0.071-0.080-0.016-0.155-0.036-0.236-0.038-0.252-0.006-0.51 0.074-0.759 0.11-0.198 0.029-0.409 0.039-0.606 0.079-0.115 0.022-0.22 0.075-0.333 0.101-0.242 0.055-0.494 0.067-0.739 0.114-0.212 0.039-0.424 0.070-0.636 0.107-0.104 0.019-0.23 0.022-0.322 0.061-0.051 0.019-0.156 0.070-0.178 0.127-0.015 0.039 0.019 0.077 0.026 0.114 0.016 0.081 0.009 0.163 0.007 0.246 0 0.124 0.016 0.241-0.031 0.354-0.024 0.060-0.030 0.135-0.062 0.19 0.052 0.013 0.111 0.002 0.167 0.013 0.117 0.019 0.235 0.039 0.351 0.065 0.246 0.055 0.498 0.085 0.745 0.141 0.206 0.046 0.399 0.12 0.605 0.15 0.086 0.026 0.173 0.045 0.262 0.059 0.069 0.002 0.137 0.006 0.205 0.016 0.056 0.010 0.112 0.016 0.168 0.022 0.139 0.029 0.276 0.061 0.411 0.102 0.477 0.146 0.972 0.191 1.466 0.242 0.089 0.026 0.168 0.065 0.255 0.096 0.16 0.059 0.327 0.082 0.492 0.124 0.203 0.050 0.43 0.105 0.64 0.118l-0.76-0.272c0.162 0.013 0.323 0.022 0.49 0.022 0.091 0 0.186-0.010 0.276 0.006 0.092 0.016 0.168 0.057 0.262 0.064 0.077 0.006 0.15 0.013 0.226 0.029 0.080 0.016 0.178 0.067 0.257 0.073 0.095 0.010 0.12-0.052 0.202-0.102 0.072-0.042 0.153-0.062 0.228-0.102 0.105-0.057 0.227-0.087 0.324-0.145 0.116-0.069 0.257-0.099 0.387-0.142 0.266-0.091 0.544-0.193 0.824-0.245 0.076-0.013 0.135-0.016 0.208-0.042 0.009-0.003 0.054 0.010 0.066-0.003 0.021-0.026 0.005-0.106 0.005-0.136-0.001-0.116-0.009-0.236-0.003-0.351 0.006-0.128 0.075-0.245 0.102-0.368z"></path>
<path d="M17.655 21.301c0.061-0.010 0.105-0.036 0.171-0.038 0.075 0 0.137-0.013 0.212-0.026 0.211-0.035 0.439-0.006 0.654-0.006h1.137c0.089 0 0.277-0.036 0.353 0.003 0.055 0.029 0.056 0.12 0.082 0.172 0.050 0.097 0.139 0.171 0.207 0.256 0.112 0.142 0.212 0.268 0.346 0.393 0.070 0.066 0.143 0.126 0.213 0.194 0.096 0.095 0.211 0.264 0.23 0.408 0.014 0.11 0.041 0.193 0.035 0.316-0.005 0.091-0.036 0.176-0.039 0.27-0.001 0.064 0.017 0.153 0.004 0.216-0.016 0.066-0.019 0.052-0.091 0.054-0.11 0.003-0.221-0.003-0.332-0.001-0.217 0.006-0.436 0.035-0.65 0.056-0.21 0.019-0.414 0.016-0.625 0.016-0.197 0-0.389 0.032-0.584 0.057-0.225 0.029-0.452 0.016-0.677 0.016-0.363 0-0.795-0.016-1.109 0.177-0.097 0.060-0.158 0.116-0.277 0.039-0.112-0.071-0.131-0.275-0.151-0.396-0.022-0.146-0.035-0.278-0.035-0.427-0.001-0.207 0.111-0.417 0.196-0.604 0.11-0.242 0.188-0.472 0.377-0.665 0.091-0.095 0.139-0.188 0.212-0.295 0.026-0.037 0.099-0.142 0.142-0.184z"></path>
<path d="M16.3 23.619c0 0.096 0 0.192-0.001 0.287 0 0.096 0.030 0.16 0.037 0.248 0.005 0.055-0.015 0.127-0.003 0.18 0.019 0.077 0.056 0.114 0.039 0.215-0.014 0.082-0.030 0.091-0.107 0.106-0.074 0.013-0.153 0.016-0.228 0.029-0.12 0.022-0.231 0.055-0.347 0.090-0.142 0.042-0.291 0.044-0.432 0.082-0.156 0.042-0.301 0.114-0.458 0.146-0.142 0.029-0.287 0.056-0.429 0.079s-0.294 0.057-0.423 0.115c-0.182 0.082-0.352 0.184-0.54 0.252-0.119 0.044-0.243 0.132-0.356 0.016-0.026-0.026-0.030-0.056-0.056-0.081-0.042-0.040-0.099-0.055-0.147-0.087-0.15-0.101-0.291-0.198-0.457-0.281-0.142-0.071-0.297-0.105-0.437-0.184-0.101-0.059-0.197-0.096-0.306-0.141-0.139-0.057-0.267-0.133-0.413-0.182-0.095-0.032-0.168-0.083-0.253-0.131-0.049-0.029-0.090-0.045-0.141-0.070-0.089-0.045-0.072-0.102-0.071-0.19 0.001-0.118-0.001-0.237 0-0.357 0-0.069-0.012-0.114-0.028-0.178-0.009-0.036-0.049-0.142-0.039-0.171 0.029-0.070 0.192-0.074 0.248-0.087 0.122-0.032 0.236-0.077 0.359-0.106 0.182-0.041 0.351-0.096 0.538-0.125 0.175-0.026 0.356-0.075 0.529-0.117 0.165-0.039 0.329-0.136 0.495-0.142 0.22-0.006 0.437 0.077 0.643 0.145 0.066 0.022 0.13 0.051 0.196 0.072 0.143 0.045 0.292 0.026 0.437 0.066 0.076 0.022 0.146 0.055 0.226 0.067 0.097 0.016 0.196 0.010 0.294 0.032 0.192 0.040 0.373 0.097 0.561 0.155 0.166 0.049 0.337 0.081 0.502 0.132 0.061 0.019 0.17 0.029 0.566 0.115z"></path>
<path d="M12.448 25.794c0 0.067-0.014 0.149-0.001 0.215 0.020 0.115 0.072 0.211 0.074 0.334 0.002 0.095 0.031 0.232-0.044 0.298-0.029 0.026-0.069 0.032-0.1 0.051-0.054 0.035-0.099 0.089-0.14 0.136-0.13 0.148-0.236 0.323-0.379 0.46-0.126 0.12-0.291 0.186-0.414 0.312-0.172 0.175-0.344 0.293-0.568 0.398-0.081 0.039-0.172 0.060-0.251 0.105-0.062 0.035-0.104 0.085-0.157 0.131-0.034 0.029-0.096 0.087-0.143 0.092-0.060 0.003-0.090-0.046-0.143-0.065-0.106-0.036-0.252-0.022-0.362-0.040-0.28-0.041-0.559-0.076-0.829-0.163-0.544-0.176-1.118-0.168-1.668-0.313-0.121-0.032-0.243-0.090-0.368-0.1-0.081-0.006-0.163 0.010-0.246-0.002-0.11-0.016-0.205-0.079-0.311-0.1-0.034-0.006-0.067 0.003-0.102 0-0.050-0.006-0.1-0.026-0.15-0.037-0.165-0.038-0.333-0.016-0.494-0.054-0.145-0.034-0.378-0.001-0.411-0.193-0.029-0.173 0.001-0.382 0.001-0.559 0-0.127-0.051-0.403 0.052-0.493 0.087-0.076 0.212-0.131 0.307-0.202 0.15-0.112 0.306-0.176 0.462-0.273 0.151-0.095 0.314-0.146 0.464-0.251 0.131-0.092 0.287-0.155 0.424-0.24 0.067-0.041 0.126-0.095 0.188-0.142 0.060-0.046 0.136-0.077 0.192-0.125 0.041-0.035 0.064-0.077 0.114-0.11 0.041-0.026 0.089-0.044 0.13-0.070 0.061-0.037 0.1-0.1 0.151-0.14 0.019-0.016 0.049-0.019 0.071-0.036 0.031-0.026 0.046-0.062 0.082-0.076 0.086-0.029 0.236 0.029 0.317 0.046 0.133 0.026 0.266 0.076 0.402 0.093 0.143 0.019 0.281 0.026 0.423 0.055 0.187 0.038 0.378 0.045 0.565 0.076 0.101 0.016 0.198 0.051 0.301 0.055 0.281 0.013 0.555 0.047 0.835 0.070s0.553 0.060 0.83 0.101c0.104 0.016 0.206 0 0.309 0.003 0.076 0.003 0.148 0.035 0.225 0.040 0.087 0.003 0.14 0.003 0.22 0.041 0.1 0.047 0.107 0.089 0.107 0.191 0 0.165-0.057 0.336-0.037 0.497 0.012 0.108 0.095 0.243 0.072-0.019z"></path>
<path d="M11.020 29.147c-0.393 0.003-0.785 0.069-1.179 0.074-0.68 0.006-1.369-0.039-2.047 0.003-0.458 0.029-0.917 0.085-1.375 0.101-0.172 0.006-0.344 0.032-0.514 0.036-0.059 0.001-0.125-0.013-0.181-0.003-0.081 0.013-0.066 0.022-0.094 0.091-0.025 0.062-0.062 0.108-0.094 0.168-0.051 0.095-0.104 0.202-0.136 0.305-0.040 0.129-0.107 0.225-0.151 0.349-0.047 0.132-0.117 0.27-0.186 0.391-0.031 0.056-0.071 0.1-0.099 0.16-0.009 0.019-0.003 0.046-0.015 0.062-0.017 0.022-0.046 0.032-0.062 0.061-0.036 0.065-0.006 0.073 0.006 0.122 0.021 0.079 0.024 0.151 0.035 0.231 0.014 0.102 0.011 0.211 0.026 0.311 0.004 0.029 0.026 0.064 0.032 0.095 0.011 0.051-0.017 0.156 0.036 0.187 0.029 0.016 0.096 0.001 0.13 0 0.080-0.002 0.161-0.001 0.242-0.001 0.253-0.001 0.495 0.049 0.747 0.066 0.296 0.019 0.591-0.013 0.887 0.016 0.326 0.029 0.648 0.026 0.976 0.026 0.591 0 1.183 0 1.776 0 0.349 0 0.699 0 1.048 0.001 0.198 0.001 0.379-0.026 0.568-0.090 0.139-0.047 0.273-0.061 0.412-0.099 0.037-0.010 0.077-0.044 0.109-0.054 0.055-0.016 0.17-0.001 0.206-0.052 0.034-0.046 0.002-0.184 0.002-0.239 0-0.107-0.001-0.216 0-0.324 0.001-0.084-0.001-0.087-0.067-0.137-0.041-0.032-0.076-0.079-0.117-0.111-0.066-0.054-0.147-0.086-0.211-0.142-0.066-0.059-0.106-0.138-0.148-0.213-0.112-0.206-0.203-0.425-0.296-0.643-0.041-0.099-0.080-0.163-0.141-0.25-0.036-0.050-0.162-0.184-0.125-0.5z"></path>
</svg>
