<!-- Generated by IcoMoon.io -->
<svg version="1.1" xmlns="http://www.w3.org/2000/svg" width="33" height="32" viewBox="0 0 33 32">
<title>beyond_the_threshold</title>
<path d="M17.043 13.73c0.003-0.316-0.019-0.631-0.054-0.943-0.039-0.362-0.065-0.728-0.115-1.088-0.038-0.258-0.102-0.513-0.113-0.773-0.009-0.204-0.003-0.4 0.030-0.599 0.049-0.292 0.072-0.588 0.122-0.881 0.066-0.402 0.138-0.798 0.178-1.203 0.068-0.699 0.029-1.413 0.029-2.114 0-0.26-0.050-0.493-0.12-0.742-0.091-0.323-0.145-0.655-0.212-0.983-0.090-0.439-0.197-0.873-0.282-1.315-0.034-0.181-0.065-0.36-0.115-0.538-0.036-0.127-0.077-0.251-0.1-0.384-0.012-0.066-0.025-0.134-0.020-0.203l-0.104-0.464c-0.038 0.176-0.075 0.348-0.109 0.524-0.013 0.065-0.003 0.136-0.019 0.197-0.013 0.059-0.025 0.091-0.025 0.156-0.001 0.134-0.029 0.269-0.054 0.4-0.047 0.253-0.032 0.518-0.056 0.777-0.023 0.264-0.068 0.527-0.111 0.789-0.084 0.516-0.086 1.044-0.199 1.558-0.041 0.195-0.079 0.364-0.091 0.567-0.009 0.138-0.015 0.272-0.030 0.411-0.034 0.278-0.048 0.556-0.065 0.834-0.017 0.3-0.029 0.603-0.068 0.899-0.032 0.231-0.086 0.456-0.095 0.69-0.007 0.134-0.006 0.269-0.006 0.404 0.001 0.321 0.001 0.642 0 0.963-0.001 0.265 0.036 0.525 0.079 0.785 0.038 0.237 0.124 0.468 0.178 0.703 0.070 0.291 0.163 0.572 0.231 0.861 0.127 0.529 0.211 1.063 0.208 1.609-0.001 0.317 0.007 0.637-0.013 0.954-0.015 0.278-0.032 0.554-0.041 0.834-0.003 0.163-0.030 0.325-0.045 0.488-0.010 0.133-0.006 0.265-0.006 0.396 0.001 0.21 0.001 0.418 0.001 0.626 0 0.289-0.001 0.577 0 0.866 0.001 0.163-0.027 0.316-0.052 0.477-0.027 0.172-0.045 0.33-0.097 0.497-0.061 0.195-0.077 0.389-0.082 0.594-0.007 0.233-0.043 0.457-0.084 0.685-0.106 0.581-0.034 1.162-0.083 1.747-0.038 0.425-0.073 0.877-0.027 1.304 0.079 0.687 0.256 1.354 0.37 2.037 0.048 0.294 0.072 0.59 0.124 0.884 0.056 0.305 0.129 0.604 0.176 0.911 0.037 0.262 0.066 0.518 0.122 0.777 0.065 0.305 0.106 0.599 0.118 0.909 0.015 0.36-0.006 0.721 0.032 1.080 0.040 0.38 0.131 0.758 0.208 1.133-0.001-0.009 0.025 0.228 0.093 0.167 0.041-0.036 0.006-0.24 0.006-0.303 0-0.152-0.021-0.3-0.025-0.452-0.019-1.189-0.233-2.369-0.208-3.56 0.013-0.603 0.072-1.201 0.138-1.8 0.030-0.276 0.041-0.554 0.083-0.83 0.048-0.323 0.118-0.642 0.156-0.967 0.039-0.36 0.090-0.721 0.109-1.083 0.019-0.306 0.001-0.615-0.015-0.923-0.030-0.633-0.111-1.248-0.248-1.87-0.032-0.152-0.077-0.301-0.066-0.459 0.007-0.081 0.015-0.169 0.027-0.248 0.032-0.183 0.102-0.359 0.145-0.54 0.113-0.466 0.156-0.96 0.179-1.44 0.019-0.384 0.072-0.764 0.091-1.148 0.013-0.271 0.017-0.547 0.050-0.816 0.039-0.314 0.073-0.635 0.041-0.95-0.029-0.294-0.077-0.574-0.074-0.87z"></path>
<path d="M7.856 4.177c-0.009-0.017-0.017-0.030-0.023-0.047 0.040-0.001 0.068 0.027 0.1 0.045 0.106 0.054 0.224 0.091 0.334 0.136 0.17 0.068 0.328 0.158 0.498 0.226 0.179 0.070 0.366 0.118 0.536 0.206 0.233 0.122 0.491 0.186 0.725 0.306 0.204 0.104 0.428 0.172 0.638 0.264 0.145 0.063 0.285 0.126 0.434 0.181 0.129 0.048 0.262 0.097 0.387 0.154 0.194 0.090 0.375 0.204 0.569 0.299 0.059 0.029 0.12 0.056 0.179 0.084 0.117 0.057 0.21 0.16 0.328 0.212 0.063 0.027 0.24 0.075 0.255 0.147-0.019 0.029-0.047 0.029-0.075 0.041-0.050 0.021-0.093 0.046-0.134 0.084-0.056 0.046-0.151 0.147-0.142 0.228 0.187 0.108 0.375 0.212 0.561 0.321 0.192 0.111 0.394 0.199 0.586 0.31 0.054 0.032 0.276 0.113 0.289 0.199 0.001 0.019-0.021 0.054-0.025 0.075-0.009 0.052-0.009 0.098-0.025 0.154-0.009 0.032-0.048 0.134-0.021 0.176 0.007 0.010 0.037 0.020 0.048 0.030 0.027 0.027 0.023 0.034 0.052 0.057 0.073 0.056 0.21 0.083 0.291 0.12 0.185 0.086 0.366 0.176 0.547 0.269 0.256 0.136 0.509 0.276 0.759 0.423 0.26 0.152 0.508 0.328 0.773 0.47 0.215 0.113 0.436 0.215 0.651 0.332 0.106 0.057 0.21 0.122 0.319 0.17 0.095 0.043 0.199 0.073 0.292 0.12 0.353 0.174 0.672 0.391 0.886 0.73 0.118 0.188 0.256 0.357 0.384 0.538 0.152 0.221 0.3 0.45 0.445 0.676 0.152 0.238 0.299 0.472 0.468 0.699 0.174 0.239 0.373 0.432 0.61 0.608 0.211 0.156 0.457 0.291 0.697 0.398 0.194 0.088 0.395 0.156 0.583 0.256 0.543 0.291 1.14 0.47 1.704 0.719 0.55 0.244 1.094 0.489 1.601 0.818 0.393 0.253 0.784 0.568 1.021 0.981 0.104 0.181 0.188 0.375 0.274 0.565 0.104 0.237 0.221 0.468 0.33 0.701 0.269 0.576 0.524 1.167 0.909 1.677 0.265 0.35 0.563 0.685 0.958 0.891 0.129 0.068 0.285 0.072 0.421 0.124 0.176 0.068 0.355 0.129 0.535 0.187 0.265 0.082 0.534 0.181 0.793 0.287 0.185 0.075 0.391 0.158 0.554 0.272 0.219 0.156 0.452 0.307 0.583 0.549-0.032-0.022-0.065-0.052-0.099-0.077-0.126-0.095-0.283-0.163-0.42-0.242-0.238-0.134-0.473-0.323-0.742-0.396-0.228-0.063-0.464-0.022-0.696-0.093-0.098-0.030-0.194-0.075-0.296-0.090-0.084-0.012-0.172-0.013-0.256-0.022-0.158-0.013-0.31-0.043-0.463-0.084-0.133-0.034-0.269-0.061-0.396-0.113-0.204-0.081-0.389-0.192-0.581-0.298-0.683-0.384-1.388-0.882-1.784-1.578-0.172-0.303-0.382-0.583-0.556-0.884-0.102-0.176-0.217-0.319-0.346-0.477-0.185-0.221-0.364-0.456-0.586-0.64-0.187-0.158-0.403-0.272-0.61-0.4-0.174-0.107-0.343-0.222-0.515-0.332-0.152-0.099-0.316-0.185-0.475-0.269-0.075-0.039-0.154-0.068-0.228-0.108-0.117-0.063-0.219-0.144-0.335-0.205-0.287-0.145-0.563-0.31-0.846-0.459-0.332-0.174-0.66-0.366-0.976-0.568-0.172-0.111-0.35-0.206-0.511-0.336-0.163-0.129-0.285-0.276-0.421-0.43-0.152-0.174-0.316-0.342-0.461-0.522-0.056-0.072-0.104-0.145-0.154-0.221-0.091-0.136-0.199-0.271-0.276-0.418-0.082-0.161-0.158-0.299-0.269-0.443-0.126-0.165-0.242-0.333-0.387-0.481-0.332-0.335-0.701-0.628-1.081-0.9-0.199-0.143-0.418-0.26-0.635-0.371-0.224-0.117-0.445-0.242-0.674-0.348-0.274-0.125-0.525-0.289-0.796-0.421-0.28-0.138-0.565-0.258-0.838-0.411-0.276-0.154-0.558-0.278-0.852-0.396-0.314-0.127-0.615-0.289-0.934-0.402-0.262-0.093-0.527-0.174-0.787-0.267-0.156-0.056-0.35-0.1-0.491-0.19 0.047-0.027 0.194-0.006 0.242-0.010 0.136-0.012 0.269-0.017 0.405-0.019 0.088-0.003 0.203-0.009 0.289-0.034 0.010-0.003 0.056-0.023 0.059-0.034 0.023-0.061-0.097-0.084-0.129-0.1-0.235-0.115-0.459-0.258-0.696-0.375-0.312-0.156-0.628-0.31-0.949-0.448-0.015-0.006-0.45-0.152-0.452-0.197 0.126 0.013 0.255 0.005 0.382 0.005 0.138 0 0.291 0.019 0.429-0.005 0.039-0.006 0.264-0.037 0.262-0.098-0.001-0.043-0.165-0.081-0.197-0.097-0.407-0.195-0.811-0.384-1.232-0.547-0.63-0.244-1.266-0.47-1.901-0.701-0.542-0.197-1.094-0.38-1.619-0.62-0.425-0.194-0.848-0.396-1.278-0.581-0.235-0.098-0.463-0.208-0.685-0.333-0.045-0.025-0.143-0.054-0.176-0.099-0.090-0.124 0.326-0.084 0.38-0.084h0.752c0.079 0 0.16 0 0.238 0 0.017 0 0.149 0.017 0.179-0.006 0.154-0.104-0.208-0.411-0.248-0.508 0.040-0.013 0.072 0.001 0.11 0.015 0.095 0.032 0.179 0.084 0.276 0.115 0.486 0.152 0.988 0.258 1.472 0.42 0.124 0.041 0.244 0.091 0.371 0.115 0.073 0.013 0.142 0.027 0.21 0.061 0.048 0.023 0.102 0.079 0.154 0.093 0.063 0.019 0.145-0.012 0.204-0.021z"></path>
<path d="M4.099 9.529c-0.007-0.001-0.017-0.005-0.024-0.006 0.006-0.084 0.179-0.027 0.204-0.022 0.271 0.073 0.54 0.178 0.805 0.264 0.515 0.167 1.033 0.323 1.54 0.513 0.8 0.299 1.544 0.716 2.34 1.019 0.335 0.127 0.66 0.274 0.988 0.42 0.221 0.098 0.447 0.188 0.66 0.301 0.027 0.015 0.24 0.097 0.23 0.161-0.009 0.054-0.183 0.068-0.213 0.073-0.156 0.036-0.323 0.083-0.472 0.138-0.222 0.086-0.425 0.206-0.638 0.306-0.149 0.068-0.303 0.126-0.452 0.19-0.104 0.045-0.28 0.097-0.325 0.215 0.039 0.075 0.169 0.079 0.242 0.1 0.149 0.043 0.287 0.135 0.427 0.199 0.226 0.106 0.455 0.204 0.683 0.305 0.272 0.122 0.542 0.251 0.814 0.373 0.233 0.102 0.47 0.192 0.698 0.303 0.328 0.16 0.656 0.317 0.986 0.473 0.142 0.066 0.258 0.169 0.4 0.233 0.090 0.041 0.167 0.088 0.253 0.138 0.056 0.032 0.091 0.056 0.127-0.013 0.021-0.039 0.015-0.088 0.015-0.136 0-0.041-0.022-0.14 0.001-0.176 0.015-0.023 0.052-0.038 0.074-0.052 0.106-0.075 0.199-0.16 0.33-0.19 0.237-0.057 0.475 0.12 0.69 0.195 0.24 0.084 0.47 0.185 0.712 0.258 0.068 0.020 0.19 0.043 0.226 0.1 0.003 0.003 0.013 0.047 0.019 0.057 0.013 0.025 0.029 0.040 0.049 0.059 0.063 0.065 0.14 0.117 0.204 0.181 0.063 0.063 0.118 0.118 0.192 0.167 0.267 0.172 0.558 0.317 0.852 0.438 0.131 0.054 0.249 0.1 0.368 0.179 0.047 0.030 0.16 0.091 0.195 0.143 0.041 0.057 0.047 0.145 0.077 0.213 0.174 0.382 0.463 0.699 0.633 1.085 0.083 0.188 0.133 0.387 0.208 0.578 0.066 0.167 0.195 0.332 0.326 0.454 0.090 0.081 0.169 0.177 0.265 0.251 0.097 0.075 0.21 0.124 0.316 0.185 0.221 0.127 0.432 0.208 0.683 0.256 0.292 0.057 0.585 0.122 0.881 0.17 0.328 0.054 0.68 0.085 0.992 0.201 0.301 0.113 0.59 0.256 0.87 0.414 0.197 0.111 0.359 0.247 0.464 0.452 0.081 0.156 0.118 0.335 0.18 0.5 0.081 0.217 0.138 0.448 0.242 0.655 0.115 0.222 0.239 0.445 0.4 0.635 0.070 0.083 0.118 0.178 0.183 0.262 0.086 0.115 0.221 0.212 0.341 0.287 0.152 0.093 0.325 0.115 0.495 0.158 0.151 0.039 0.292 0.106 0.443 0.147 0.185 0.048 0.378 0.077 0.565 0.115 0.178 0.036 0.362 0.056 0.538 0.099 0.201 0.049 0.394 0.12 0.592 0.185 0.154 0.052 0.323 0.079 0.472 0.144 0.145 0.061 0.287 0.142 0.416 0.23 0.235 0.156 0.443 0.36 0.63 0.569 0.056 0.061 0.111 0.124 0.165 0.188 0.117 0.138 0.199 0.296 0.294 0.448 0.179 0.291 0.319 0.608 0.508 0.893 0.065 0.099 0.131 0.188 0.208 0.278 0.025 0.030 0.228 0.303 0.285 0.264-0.043-0.093-0.118-0.183-0.194-0.253-0.136-0.127-0.298-0.248-0.445-0.364-0.344-0.267-0.744-0.436-1.142-0.61-0.296-0.131-0.597-0.228-0.909-0.317-0.167-0.048-0.328-0.104-0.489-0.165-0.199-0.073-0.411-0.102-0.606-0.179-0.197-0.077-0.38-0.195-0.565-0.299-0.172-0.095-0.348-0.176-0.509-0.291-0.357-0.251-0.685-0.54-1.031-0.807-0.134-0.106-0.276-0.21-0.394-0.334-0.111-0.116-0.204-0.247-0.312-0.367-0.091-0.102-0.181-0.199-0.262-0.31-0.091-0.131-0.183-0.262-0.287-0.38-0.219-0.251-0.413-0.536-0.69-0.726-0.24-0.167-0.488-0.314-0.761-0.423-0.278-0.109-0.558-0.195-0.85-0.265-0.188-0.043-0.382-0.073-0.572-0.117-0.115-0.027-0.213-0.082-0.321-0.126-0.106-0.043-0.215-0.068-0.319-0.116-0.17-0.081-0.33-0.19-0.502-0.273-0.185-0.091-0.36-0.199-0.527-0.323-0.183-0.134-0.38-0.246-0.563-0.378-0.176-0.127-0.339-0.267-0.497-0.414-0.163-0.151-0.321-0.309-0.468-0.475-0.192-0.219-0.386-0.457-0.611-0.638-0.149-0.12-0.298-0.228-0.461-0.326-0.222-0.134-0.423-0.299-0.649-0.43-0.244-0.144-0.504-0.269-0.76-0.393-0.104-0.048-0.208-0.1-0.317-0.136-0.039-0.015-0.117-0.059-0.158-0.061-0.046-0.001-0.041-0.006-0.046 0.045-0.007 0.059 0 0.111-0.015 0.17-0.015 0.065-0.172 0.364-0.045 0.402-0.093-0.050-0.181-0.109-0.278-0.154-0.33-0.152-0.672-0.272-1.017-0.389-0.418-0.142-0.83-0.298-1.246-0.445-0.472-0.165-0.951-0.33-1.41-0.533-0.73-0.319-1.415-0.714-2.114-1.096-0.333-0.181-0.683-0.332-1.038-0.47-0.131-0.052-0.258-0.109-0.38-0.181-0.043-0.023-0.156-0.070-0.152-0.129 0.086-0.032 0.183-0.143 0.244-0.206 0.156-0.161 0.321-0.325 0.454-0.506 0.1-0.138 0.226-0.326 0.396-0.382 0.126-0.041 0.264-0.052 0.394-0.063 0.043-0.001 0.129 0.013 0.154-0.029-0.023-0.068-0.12-0.079-0.174-0.104-0.199-0.091-0.364-0.264-0.542-0.391-0.262-0.187-0.534-0.343-0.823-0.484-0.309-0.152-0.601-0.314-0.934-0.411-0.226-0.066-0.434-0.169-0.651-0.262-0.258-0.11-0.524-0.195-0.787-0.292-0.305-0.113-0.613-0.233-0.9-0.386-0.038-0.020-0.237-0.1-0.226-0.163 0.032-0.006 0.091-0.013 0.1-0.045 0.013-0.038-0.057-0.115-0.081-0.142-0.065-0.074-0.14-0.136-0.206-0.208-0.111-0.12-0.195-0.272-0.249-0.427-0.015-0.036-0.059-0.131-0.007-0.161 0.061-0.036 0.237 0.052 0.287 0.065 0.134 0.030 0.296 0.097 0.434 0.093 0.059 0 0.192-0.043 0.224-0.091 0.070-0.108-0.204-0.308-0.271-0.377-0.122-0.122-0.251-0.213-0.387-0.316 0.012-0.027 0.152-0.032 0.181-0.043z"></path>
<path d="M5.026 16.58c-0.013-0.013-0.027-0.022-0.043-0.029 0.054 0 0.113 0.045 0.154 0.068 0.273 0.154 0.551 0.28 0.836 0.411 0.516 0.233 1.037 0.454 1.544 0.705 0.542 0.267 1.083 0.531 1.628 0.789 0.538 0.255 1.099 0.475 1.621 0.76 0.065 0.036 0.124 0.077 0.188 0.111 0.038 0.021 0.167 0.065 0.17 0.115-0.045 0.017-0.107 0-0.154 0.005-0.199 0.013-0.38 0.156-0.508 0.299-0.106 0.122-0.192 0.267-0.317 0.371-0.131 0.109-0.283 0.181-0.418 0.283-0.075 0.055-0.131 0.115-0.187 0.19-0.027 0.034-0.118 0.124-0.095 0.165 0.095 0.012 0.151 0.065 0.23 0.12 0.233 0.167 0.416 0.38 0.626 0.572 0.108 0.1 0.231 0.188 0.328 0.298 0.022 0.024 0.052 0.077 0.083 0.090 0.043 0.020 0.116 0.001 0.152-0.013 0.056-0.020 0.102-0.052 0.16-0.072 0.133-0.043 0.265-0.075 0.396-0.122 0.21-0.075 0.425-0.151 0.617-0.265 0.124-0.073 0.274-0.152 0.382-0.251 0.052-0.047 0.14-0.18 0.219-0.17 0 0.045 0.041 0.111 0.061 0.154 0.104 0.233 0.228 0.391 0.448 0.534 0.073 0.050 0.16 0.084 0.233 0.133 0.063 0.043 0.097 0.109 0.161 0.154 0.057 0.041 0.177 0.127 0.255 0.098 0.010-0.054 0.017-0.102 0.077-0.124 0.073-0.023 0.188-0.006 0.26 0.019 0.037 0.013 0.045 0.022 0.077 0.039 0.022 0.012 0.029 0.012 0.049 0.017 0.075 0.023 0.133 0.045 0.21 0.077 0.272 0.118 0.561 0.176 0.845 0.26 0.054 0.017 0.185 0.032 0.228 0.075 0.025 0.025 0.029 0.075 0.059 0.104 0.12 0.117 0.258 0.226 0.396 0.325 0.23 0.161 0.472 0.298 0.712 0.441 0.111 0.066 0.221 0.138 0.332 0.203 0.093 0.054 0.204 0.097 0.287 0.165 0.095 0.079 0.111 0.142 0.095 0.258-0.019 0.144-0.045 0.282 0.013 0.421 0.066 0.16 0.172 0.301 0.251 0.454 0.081 0.154 0.177 0.294 0.296 0.423 0.086 0.093 0.165 0.167 0.282 0.221 0.098 0.045 0.179 0.045 0.283 0.059 0.16 0.024 0.312 0.079 0.466 0.118 0.251 0.065 0.511 0.090 0.766 0.134 0.176 0.032 0.35 0.066 0.531 0.072 0.126 0.001 0.249-0.005 0.375 0 0.271 0.007 0.551 0.045 0.818 0.090 0.23 0.039 0.464 0.122 0.685 0.194 0.215 0.070 0.427 0.183 0.615 0.307 0.161 0.108 0.359 0.238 0.364 0.445 0.006 0.185 0.113 0.346 0.147 0.527 0.041 0.222 0.161 0.425 0.312 0.592 0.108 0.122 0.267 0.21 0.402 0.298 0.165 0.106 0.357 0.208 0.542 0.273 0.158 0.054 0.33 0.065 0.493 0.090 0.192 0.030 0.384 0.039 0.576 0.041 0.075 0 0.142 0.013 0.215 0.027 0.127 0.022 0.265 0.019 0.391 0.049 0.167 0.039 0.343 0.108 0.497 0.179 0.177 0.083 0.367 0.197 0.481 0.36 0.077 0.113 0.068 0.215 0.117 0.333 0.070 0.176 0.172 0.341 0.249 0.515 0.034 0.075 0.145 0.219 0.106 0.308-0.050-0.034-0.084-0.086-0.12-0.133-0.066-0.084-0.154-0.138-0.239-0.201-0.165-0.118-0.317-0.255-0.497-0.352-0.158-0.084-0.325-0.108-0.497-0.149-0.294-0.072-0.59-0.11-0.888-0.162-0.16-0.029-0.309-0.090-0.448-0.17-0.142-0.083-0.285-0.144-0.436-0.208-0.133-0.056-0.251-0.145-0.373-0.222-0.135-0.086-0.269-0.174-0.4-0.265-0.289-0.208-0.524-0.495-0.755-0.762-0.403-0.466-0.852-0.9-1.422-1.157-0.143-0.065-0.292-0.086-0.443-0.113-0.156-0.030-0.305-0.065-0.464-0.066-0.362-0.007-0.712 0.020-1.072 0.068-0.167 0.023-0.328 0.057-0.497 0.070-0.195 0.015-0.393 0.013-0.588 0.030-0.172 0.017-0.348 0.030-0.52 0.006-0.192-0.027-0.369-0.113-0.55-0.172-0.233-0.077-0.441-0.251-0.61-0.425-0.197-0.201-0.389-0.42-0.563-0.64-0.12-0.152-0.228-0.316-0.359-0.459-0.151-0.165-0.305-0.33-0.459-0.491-0.147-0.152-0.294-0.298-0.484-0.393-0.156-0.079-0.317-0.142-0.473-0.219-0.201-0.097-0.407-0.177-0.617-0.255-0.231-0.084-0.436-0.213-0.649-0.333-0.1-0.056-0.219-0.090-0.31-0.156-0.039-0.029-0.068-0.068-0.111-0.090-0.077-0.036-0.154-0.010-0.221 0.023-0.12 0.061-0.303 0.013-0.412-0.052-0.108-0.063-0.199-0.151-0.317-0.197 0.006-0.059-0.037-0.077-0.091-0.072-0.107 0.010-0.246 0.152-0.333 0.208-0.251 0.165-0.5 0.339-0.76 0.491-0.113 0.065-0.26 0.1-0.364 0.179-0.029 0.022-0.070 0.057-0.073 0.095-0.007-0.070-0.057-0.115-0.109-0.152-0.091-0.054-0.185-0.102-0.282-0.145-0.134-0.070-0.265-0.147-0.393-0.23-0.186-0.113-0.369-0.233-0.561-0.337-0.115-0.061-0.23-0.12-0.346-0.179-0.050-0.027-0.104-0.050-0.158-0.066-0.006-0.010-0.009-0.023-0.007-0.036-0.019-0.010-0.036-0.022-0.054-0.034-0.093-0.065-0.181-0.131-0.285-0.185-0.208-0.108-0.43-0.188-0.637-0.303-0.065-0.036-0.253-0.126-0.274-0.217-0.020-0.075 0.098-0.127 0.145-0.174 0.165-0.165 0.258-0.423 0.368-0.626 0.098-0.181 0.19-0.364 0.323-0.525 0.095-0.117 0.285-0.248 0.314-0.405 0.009-0.041 0.006-0.073-0.019-0.107-0.045-0.063-0.174-0.138-0.228-0.179-0.312-0.244-0.669-0.443-1.017-0.631-0.181-0.095-0.362-0.187-0.543-0.278-0.059-0.022-0.109-0.054-0.151-0.1 0.065-0.007 0.115 0.065 0.115 0.124-0.208 0.059-0.486-0.066-0.687-0.111-0.663-0.152-1.316-0.344-1.974-0.517-0.437-0.113-0.877-0.213-1.316-0.314-0.143-0.029-0.287-0.063-0.429-0.102-0.046-0.001-0.082-0.020-0.106-0.056 0.077-0.102 0.28-0.1 0.393-0.118 0.239-0.036 0.475-0.056 0.717-0.061 0.127-0.003 0.255-0.003 0.38 0 0.045 0.009 0.088 0.009 0.131-0.006-0.029-0.039-0.083-0.045-0.12-0.072-0.047-0.034-0.036-0.032-0.036-0.088 0-0.145-0.022-0.26-0.079-0.398-0.084-0.199-0.248-0.371-0.368-0.549-0.088-0.129-0.23-0.303-0.278-0.457-0.027-0.090-0.038-0.17 0.017-0.255 0.052-0.079 0.145-0.097 0.203-0.169 0.133-0.165 0.050-0.459 0.041-0.653-0.003-0.057-0.032-0.178 0.057-0.183 0.030 0.015 0.061 0.029 0.091 0.045 0.066 0.059 0.126 0.124 0.176 0.197 0.12 0.161 0.249 0.307 0.407 0.432 0.17 0.134 0.357 0.199 0.552 0.281 0.036 0.009 0.066 0.023 0.093 0.045 0.012 0.003 0.017 0.010 0.017 0.022 0.063 0.019 0.142 0.003 0.204 0.003z"></path>
</svg>
