<!-- Generated by IcoMoon.io -->
<svg version="1.1" xmlns="http://www.w3.org/2000/svg" width="32" height="32" viewBox="0 0 32 32">
<title>binoculars</title>
<path d="M7.333 5.4v1.2h6.667v-1.2h-6.667zM18.667 5.4v1.2h6.666v-1.2h-6.666zM7.4 7.4v3.267h1.2v-2.067h4.133v2.067h1.2v-3.267h-6.533zM18.733 7.4v3.267h1.2v-2.067h4.134v2.067h1.2v-3.267h-6.534zM15.333 11.355v1.2h8.734v1.512h-5.334v2.6h1.2v-1.4h4.291l2.297 7.466h-6.587v-3.4h-1.2v7.267h9.2v-1.933h-1.2v0.733h-6.8v-1.467h8.212l-2.878-9.356v-3.222h-9.934zM7.4 11.4v3.177l-2.88 9.356h8.213v1.467h-6.8v-0.733h-1.2v1.933h9.2v-12.533h-5.333v-1.467h5.4v-1.2h-6.6zM8.444 15.267h4.289v7.466h-6.588l2.298-7.466zM15.333 17.4v1.2h4.667v-1.2h-4.667z"></path>
</svg>
