<!-- Generated by IcoMoon.io -->
<svg version="1.1" xmlns="http://www.w3.org/2000/svg" width="38" height="32" viewBox="0 0 38 32">
<title>bishops_thralls</title>
<path d="M2.062 17.533c-0.054 0.136-0.093 0.264-0.123 0.4-0.274 1.216 0.464 2.412 1.167 3.437 0.947 1.386 1.889 2.774 2.836 4.155 0.089 0.141 0.186 0.274 0.327 0.361 0.259 0.156 0.591 0.089 0.889 0.035 0.615-0.118 1.26-0.147 1.826-0.415 0.571-0.269 1.045-0.87 0.922-1.485-0.18-0.899-1.484-1.314-1.479-2.231 0.004-0.63 0.697-1.070 1.322-1.030 0.625 0.044 1.172 0.424 1.66 0.82 0.543 0.435 1.065 0.918 1.406 1.529 0.342 0.6 0.479 1.356 0.225 2.006-0.338 0.855-1.235 1.314-1.997 1.826-0.751 0.517-1.489 1.367-1.24 2.256 0.098 0.326 0.318 0.605 0.556 0.859 1.387 1.436 3.482 2.164 5.465 1.885 0.316-0.049 0.649-0.123 0.874-0.341 0.288-0.274 0.361-0.709 0.356-1.109-0.010-0.566-0.132-1.142-0.469-1.592-0.327-0.454-0.909-0.741-1.46-0.625-0.547 0.112-0.981 0.714-0.82 1.25 0.087-0.321 0.444-0.528 0.781-0.513 0.341 0.011 0.649 0.195 0.894 0.435 0.126 0.126 0.249 0.279 0.282 0.459 0.093 0.517-0.532 0.85-1.050 0.899-0.942 0.073-1.909-0.254-2.597-0.899-0.425-0.39-0.756-0.966-0.63-1.524 0.098-0.405 0.405-0.717 0.679-1.025 0.717-0.796 1.309-1.719 1.601-2.749 0.289-1.030 0.259-2.169-0.214-3.125-0.509-1.040-1.495-1.787-2.574-2.187-1.079-0.405-2.256-0.479-3.409-0.42-0.444 0.025-0.897 0.064-1.299 0.269-0.395 0.195-0.723 0.585-0.737 1.030-0.009 0.556 0.465 1.104 0.264 1.626-0.761-0.205-1.147-1.085-1.151-1.875-0.005-0.791 0.262-1.563 0.303-2.349 0.064-1.245-0.42-2.574 0.116-3.701 0.269-0.552 0.753-0.981 0.991-1.547 0.327-0.806 0.132-1.836 0.737-2.456 0.2-0.205 0.459-0.332 0.694-0.489 0.469-0.322 1.275-1.411 1.48-1.944-0.333 0.028-0.724 0.43-1.045 0.455-0.21 0.4-1.070 1.054-1.524 1-0.215 0.826-0.694 1.377-1.124 2.115-0.249 0.43-0.546 0.776-0.756 1.23-0.498 1.104-0.82 2.407-0.669 3.614 0.049 0.346 0.136 0.694 0.078 1.045-0.059 0.327-0.239 0.625-0.336 0.942-0.132 0.429-0.396 0.912-0.348 1.352 0.186 1.732 1.152 2.831 2.417 3.627 0.082 0.049 0.312 0.381 0.41 0.356 0.074-0.028 0.464 0.151 0.507 0.089 0.562-0.845-0.561-2.12 0.054-2.915 0.181-0.245 0.474-0.371 0.768-0.44 3.012-0.717 3.627 0.44 4.672 0.909 0.474 0.214 1.211 2.26 0.899 1.786-0.094-0.131-1.109-1.181-1.66-1.606-1.29-0.991-1.866-1.084-3.281-0.747-0.348 0.079-0.704 0.235-0.88 0.543-0.102 0.181-0.131 0.395-0.136 0.605-0.015 0.972 0.43 1.934 1.173 2.549-0.576 0.366-1.372 0.855-2.002 0.581-0.625-0.273-1.119-1.279-1.626-1.729-0.38-0.346-0.761-0.692-1.001-1.137-0.229-0.42-0.049-1.035-0.39-1.362-0.537-0.513-1.050-1.596-0.625-2.749 0.123-0.331 0.81-0.894 0.869-1.235 0.059-0.366 0.025-0.732 0.025-1.099-0.005-1.143-0.156-2.715 0.19-3.809 0.21-0.644 0.922-0.835 1.314-1.386 0.244-0.343 0.551-0.645 0.723-1.030 0.195-0.435 0.185-0.937 0.371-1.377 0.18-0.44 0.532-0.781 0.766-1.191 0.23-0.415 0.322-0.976 0-1.324-0.556 0.586-1.112 1.173-1.675 1.759-0.361 0.375-0.741 0.82-0.707 1.342 0.029 0.318 0.21 0.62 0.151 0.933-0.082 0.395-0.502 0.595-0.84 0.82-0.869 0.566-1.406 1.611-1.367 2.651 0.035 0.87 0.435 1.719 0.304 2.574-0.138 0.859-0.786 1.547-1.104 2.354z"></path>
<path d="M35.751 17.533c0.049 0.136 0.093 0.264 0.123 0.4 0.273 1.216-0.465 2.412-1.167 3.437-0.947 1.386-1.895 2.774-2.841 4.155-0.084 0.141-0.186 0.274-0.323 0.361-0.264 0.156-0.586 0.089-0.889 0.035-0.615-0.118-1.26-0.147-1.831-0.415-0.566-0.269-1.040-0.87-0.922-1.485 0.18-0.899 1.489-1.314 1.484-2.231-0.010-0.63-0.697-1.070-1.322-1.030-0.63 0.044-1.177 0.424-1.661 0.82-0.541 0.435-1.064 0.918-1.406 1.529-0.341 0.6-0.483 1.356-0.229 2.006 0.336 0.855 1.24 1.314 1.997 1.826 0.756 0.517 1.494 1.367 1.245 2.256-0.094 0.326-0.323 0.605-0.558 0.859-1.386 1.436-3.486 2.164-5.463 1.885-0.318-0.049-0.649-0.123-0.874-0.341-0.293-0.274-0.361-0.709-0.356-1.109 0.005-0.566 0.126-1.142 0.464-1.592 0.333-0.454 0.912-0.741 1.465-0.625 0.541 0.112 0.981 0.714 0.815 1.25-0.082-0.321-0.439-0.528-0.776-0.513-0.341 0.011-0.649 0.195-0.894 0.435-0.126 0.126-0.249 0.279-0.282 0.459-0.094 0.517 0.531 0.85 1.049 0.899 0.937 0.073 1.91-0.254 2.599-0.899 0.42-0.39 0.756-0.966 0.63-1.524-0.099-0.405-0.406-0.717-0.679-1.025-0.724-0.796-1.314-1.719-1.602-2.749-0.293-1.030-0.264-2.169 0.215-3.125 0.504-1.040 1.49-1.787 2.569-2.187 1.079-0.405 2.26-0.479 3.407-0.42 0.45 0.025 0.899 0.064 1.299 0.269 0.396 0.195 0.729 0.585 0.738 1.030 0.015 0.556-0.464 1.104-0.259 1.626 0.762-0.205 1.143-1.085 1.147-1.875 0.005-0.791-0.259-1.563-0.303-2.349-0.064-1.245 0.42-2.574-0.112-3.701-0.269-0.552-0.756-0.981-0.986-1.547-0.331-0.806-0.141-1.836-0.746-2.456-0.196-0.205-0.455-0.332-0.689-0.489-0.469-0.322-1.28-1.411-1.48-1.944 0.333 0.028 0.717 0.43 1.045 0.455 0.21 0.4 1.070 1.054 1.519 1 0.215 0.826 0.699 1.377 1.127 2.115 0.249 0.43 0.547 0.776 0.752 1.23 0.502 1.104 0.82 2.407 0.669 3.614-0.044 0.346-0.131 0.694-0.074 1.045 0.059 0.327 0.235 0.625 0.337 0.942 0.131 0.429 0.395 0.912 0.346 1.352-0.185 1.732-1.157 2.831-2.421 3.627-0.079 0.049-0.312 0.381-0.405 0.356-0.074-0.028-0.465 0.151-0.514 0.089-0.561-0.845 0.567-2.12-0.049-2.915-0.18-0.245-0.477-0.371-0.766-0.44-3.012-0.717-3.627 0.44-4.672 0.909-0.479 0.214-1.216 2.26-0.899 1.786 0.093-0.131 1.109-1.181 1.66-1.606 1.294-0.991 1.86-1.084 3.281-0.747 0.346 0.079 0.699 0.235 0.879 0.543 0.102 0.181 0.127 0.395 0.132 0.605 0.019 0.972-0.43 1.934-1.172 2.549 0.581 0.366 1.377 0.855 2.002 0.581 0.63-0.273 1.122-1.279 1.626-1.729 0.385-0.346 0.766-0.692 1.005-1.137 0.225-0.42 0.044-1.035 0.386-1.362 0.541-0.513 1.055-1.596 0.63-2.749-0.123-0.331-0.816-0.894-0.87-1.235-0.057-0.366-0.024-0.732-0.024-1.099 0.005-1.143 0.156-2.715-0.19-3.809-0.21-0.644-0.924-0.835-1.314-1.386-0.245-0.343-0.552-0.645-0.727-1.030-0.191-0.435-0.186-0.937-0.371-1.377-0.181-0.44-0.528-0.781-0.761-1.191-0.23-0.415-0.323-0.976-0.005-1.324 0.556 0.586 1.122 1.173 1.679 1.759 0.361 0.375 0.747 0.82 0.709 1.342-0.030 0.318-0.21 0.62-0.151 0.933 0.082 0.395 0.498 0.595 0.835 0.82 0.874 0.566 1.411 1.611 1.371 2.651-0.034 0.87-0.434 1.719-0.303 2.574 0.132 0.859 0.781 1.547 1.104 2.354z"></path>
<path d="M11.821 11.419c0.166 0.131 1.055 1.055 1.167 1.060-0.522-0.028-1.152 0.498-1.489 0.884-0.571 0.644-2.076 1.152-2.031 2.016 1.030 0.756 3.94-0.449 5.195 0.879 0.522 0.547 1.537 1.739 1.537 2.549 0 0.796-0.034 0.922 0.059 1.68 0.074 0.546-0.136 1.314 0.195 1.747 0.489 0.64 1.446 1.182 1.577 2.022 0.108 0.669 0.151 2.031 0.059 2.685-0.059 0.381-0.43 0.756-0.801 0.976-0.815 0.489-2.524-0.536-1.781-1.567 0.259-0.121 0.571-0.121 0.732 0.128-0.469 0.093-0.054 0.918 0.341 0.8 1.109-0.336 0.83-2.739-0.351-3.915-0.274-0.274-0.801-1.050-0.942-1.392-0.181-0.449-0.117-0.918-0.176-1.411-0.108-0.874-0.415-1.771-0.899-2.416-0.62-0.84-1.479-1.304-2.504-1.352-0.924-0.039-1.549 0.469-2.359 0.712-1.509 0.45-2.002-1.796-1.382-2.974 0.245-0.474 0.732-0.897 1.006-1.366 0.249-0.44 0.464-0.924 0.879-1.265 0.581-0.464 1.87-0.558 1.967-0.479z"></path>
<path d="M26.187 10.457c-0.166 0.142-0.44 0.557-0.562 0.571 0.522-0.035 0.942 0.806 1.285 1.211 0.571 0.684 1.474 1.524 1.435 2.432-1.035 0.8-4.086-0.348-5 0.907-0.459 0.63-1.532 1.841-1.532 2.7 0 0.835 0.039 0.967-0.064 1.772-0.069 0.576 0.141 1.396-0.191 1.856-0.487 0.664-1.445 1.24-1.576 2.129-0.108 0.712-0.151 2.147-0.059 2.841 0.054 0.4 0.43 0.801 0.8 1.035 0.821 0.517 2.52-0.571 1.782-1.66-0.264-0.126-0.571-0.126-0.732 0.132 0.469 0.107 0.054 0.971-0.341 0.849-1.114-0.356-0.83-2.895 0.351-4.145 0.274-0.284 0.801-1.109 0.942-1.47 0.181-0.469 0.117-0.971 0.176-1.489 0.102-0.924 0.415-1.875 0.894-2.554 0.625-0.894 1.484-1.383 2.504-1.431 0.934-0.044 1.554 0.494 2.359 0.753 1.509 0.474 2.007-1.905 1.387-3.155-0.25-0.492-0.732-0.942-1.006-1.44-0.249-0.469-2.754-1.924-2.851-1.846z"></path>
<path d="M14.976 3.743c1.425-0.121 2.871 0.366 4.296 0.304 1.392-0.069 2.612-0.079 3.98 0.111 0.591 0.089 1.211 0.151 1.806 0.128 0.727-0.035 1.455-0.376 2.159-0.361-0.318 0.957-1.406 1.562-2.070 2.236-0.86 0.85-0.937 1.87-1.592 2.787-0.288 0.406-0.61 0.65-0.756 1.162-0.142 0.494-0.102 1.001-0.307 1.48-0.279 0.644-0.699 1.161-0.948 1.826-0.245 0.669-0.41 0.971-0.991 1.259-0.991 0.504-0.82 1.216-1.191 2.184-0.176-0.43-0.357-0.762-0.581-1.021-0.401-0.439-0.454-0.761-0.723-1.284-0.586-1.157-1.606-1.89-2.179-3.066-0.41-0.845-1.059-1.739-1.245-2.661-0.156-0.771 0.054-1.045-0.697-1.411-0.601-0.294-0.781-0.24-1.084-0.796-0.264-0.487-0.42-1.015-0.591-1.532-0.166-0.479-0.454-0.884-0.645-1.285 1.075 0.138 2.256 0.035 3.36-0.059zM8.521 2.962c0.19 0.332 0.41 0.205 0.689 0.464 0.259 0.245 0.18 0.543 0.424 0.786 0.191 0.186 0.543 0.933 0.709 1.162 0.151 0.195 0.327 2.197 0.425 2.417 0.429 0.996 1.269 0.869 1.875 1.796 0.639 0.996 0.8 0.811 1.532 1.757 0.714 0.919 0.679 1.578 1.396 2.491 0.299 0.37 0.791 0.795 1.001 1.205 0.22 0.45 0.396 0.747 0.507 1.196 0.099 0.391 0.391 0.762 0.517 1.139 0.074 0.214 0.054 0.454 0.181 0.669 0.19 0.312 0.507 0.361 0.694 0.684 0.136 0.259 0.654 1.83 0.63 2.085 0.751 0.083 0.771-1.836 0.922-2.397 0.151-0.552 0.146-0.929 0.513-1.426 0.425-0.586 1.504-1.094 2.021-1.616 0.601-0.596 0.747-0.859 0.811-1.611 0.044-0.513 0.072-1.094 0.269-1.582 0.16-0.429 0.477-0.835 0.751-1.215 0.445-0.625 0.435-0.825 0.601-1.514 0.439-1.851 2.347-2.837 3.164-4.463 0.259-0.507 0.371-1.030 0.791-1.474 0.282-0.279 0.576-0.479 0.839-0.768-0.116 0.014-0.316 0-0.459-0.044-0.492-0.156-0.712-0.087-1.22-0.073-0.66 0.018-1.314 0-1.992 0.054-0.489 0.039-0.986 0.185-1.46 0.21-0.113-0.591-1.562-0.097-2.041-0.21-0.249-0.059-0.41-0.245-0.669-0.308-0.517-0.123-1.128 0.014-1.675-0.102-0.771-0.166-1.562-0.317-2.367-0.264-0.929 0.062-1.812 0.371-2.774 0.415-2.144 0.093-4.482-0.205-6.704 0.161 0.034 0.107 0.039 0.267 0.098 0.375z"></path>
</svg>
