<!-- Generated by IcoMoon.io -->
<svg version="1.1" xmlns="http://www.w3.org/2000/svg" width="32" height="32" viewBox="0 0 32 32">
<title>blanket</title>
<path d="M13.545 2.355l-0.184 0.377c-0.799 1.627-2.741 3.439-4.484 4.784s-3.267 2.247-3.267 2.247l-0.252 0.148-0.037 0.289c0 0-0.231 1.755-0.311 3.82s-0.072 4.403 0.652 5.873l0.102 0.208 0.216 0.084c1.971 0.778 3.301 2.135 4.834 3.722s3.259 3.386 5.97 4.847l0.236 0.128 0.253-0.091c3.577-1.293 6.416-4.149 8.536-7.159s3.522-6.184 4.183-8.239l0.175-0.545-0.534-0.202c-3.363-1.264-5.708-3.579-7.988-5.733s-4.525-4.178-7.68-4.516l-0.419-0.044zM14.134 3.667c2.552 0.387 4.509 2.064 6.684 4.119 2.139 2.021 4.51 4.313 7.833 5.717-0.671 1.937-1.926 4.743-3.825 7.439-1.978 2.809-4.592 5.379-7.708 6.595-2.382-1.338-3.963-2.931-5.442-4.462-1.458-1.509-2.906-2.927-4.964-3.828-0.442-0.999-0.578-3.229-0.503-5.18 0.072-1.867 0.255-3.248 0.281-3.458 0.224-0.135 1.457-0.861 3.119-2.144 1.676-1.293 3.485-2.982 4.525-4.798zM8.523 10.361l-0.616 1.030c0 0 1.979 1.243 3.42 2.563-1.227 1.573-3.020 4.103-3.020 4.103l0.984 0.688c0 0 2.203-3.156 3.319-4.512l0.345-0.419-0.383-0.386c-1.618-1.626-4.050-3.066-4.050-3.066z"></path>
<path d="M14.531 5.564l-0.247 0.484-0.014 0.025 0.938 0.514-0.391 0.213c0.761 0.078 1.51 0.369 2.166 0.803l0.663-1c-0.799-0.529-1.725-0.897-2.706-0.997l-0.408-0.042zM13.884 6.686c-0.509 0.702-1.146 1.331-1.83 1.93l0.791 0.903c0.718-0.629 1.422-1.319 2.009-2.13l-0.97-0.703zM18.336 7.106l-0.752 0.934c0.685 0.55 1.309 1.21 1.941 1.892l0.88-0.816c-0.636-0.686-1.296-1.391-2.069-2.011zM11.459 9.114c-0.708 0.572-1.451 1.104-2.219 1.602l0.653 1.008c0.798-0.518 1.576-1.074 2.32-1.675l-0.755-0.934zM20.948 9.706l-0.883 0.813c0.636 0.691 1.295 1.386 2.025 2.025l0.791-0.903c-0.675-0.591-1.305-1.253-1.933-1.934zM23.472 12.131l-0.742 0.944c0.736 0.579 1.552 1.067 2.422 1.452-0.292 0.772-0.641 1.528-1.044 2.266l1.053 0.577c0.458-0.838 0.876-1.711 1.206-2.627l-1.016-0.366 0.378-0.887c-0.803-0.343-1.56-0.809-2.258-1.358zM9.419 17.441l-0.438 1.119c0.772 0.301 1.474 0.817 2.097 1.431l0.842-0.855c-0.703-0.694-1.529-1.316-2.502-1.695zM23.723 17.472c-0.463 0.785-0.97 1.542-1.519 2.267l0.956 0.725c0.577-0.763 1.111-1.56 1.597-2.383l-1.034-0.609zM12.497 19.733l-0.883 0.813c0.614 0.668 1.202 1.396 1.858 2.1l0.878-0.819c-0.617-0.662-1.203-1.388-1.853-2.094zM21.723 20.353c-0.572 0.705-1.187 1.371-1.85 1.98l0.811 0.883c0.712-0.654 1.366-1.362 1.97-2.106l-0.931-0.756zM14.889 22.387l-0.847 0.848c0.688 0.686 1.448 1.314 2.289 1.833l0.63-1.020c-0.748-0.462-1.438-1.029-2.072-1.661zM19.294 22.837c-0.69 0.571-1.429 1.074-2.216 1.459l0.528 1.078c0.89-0.436 1.706-0.994 2.453-1.613l-0.766-0.925z"></path>
</svg>
