<!-- Generated by IcoMoon.io -->
<svg version="1.1" xmlns="http://www.w3.org/2000/svg" width="32" height="32" viewBox="0 0 32 32">
<title>bleeding_hearts</title>
<path d="M15.499 26.108c-0.262-0.415-1.024-1.336-1.694-2.046-1.301-1.379-1.86-1.669-1.526-0.792 0.373 0.98-0.235 2.077-1.151 2.077-0.807 0-0.992-0.593-0.629-2.012 0.337-1.315 0.337-1.314 0.14-1.624-0.117-0.184-0.265-0.174-0.715 0.050-0.771 0.385-1.434 0.071-1.927-0.912-0.388-0.774-1.211-1.757-1.471-1.757-0.082 0-0.15 0.36-0.15 0.799 0 1.002-0.438 1.459-1.317 1.375l-0.615-0.059 0.059-1.946c0.051-1.706 0.011-2.026-0.325-2.596-0.95-1.609-0.921-5.349 0.059-7.563 1.656-3.745 5.78-4.931 9.005-2.59 0.463 0.336 1.191 1.074 1.619 1.641 0.734 0.972 0.766 1.065 0.562 1.628-0.119 0.329-0.216 0.737-0.216 0.907s-0.104 0.31-0.23 0.312c-0.126 0.002-0.031 0.105 0.212 0.23 0.803 0.413 0.895 0.795 0.335 1.38-0.275 0.287-0.501 0.612-0.501 0.722 0 0.366 0.538 1.241 0.959 1.558l0.416 0.314-0.384 0.426c-0.58 0.643-0.675 1.076-0.323 1.465 0.17 0.188 0.392 0.341 0.493 0.341s0.040-0.159-0.135-0.352c-0.297-0.328-0.298-0.384-0.017-0.812 0.166-0.253 0.421-0.506 0.566-0.562 0.419-0.161 0.311-0.627-0.273-1.174-0.814-0.762-0.865-1.201-0.215-1.866 0.364-0.372 0.664-0.528 0.882-0.459 0.327 0.104 0.26 0.034-1.003-1.043-0.428-0.365-0.539-0.808-0.246-0.989 0.092-0.057 0.357-0.497 0.589-0.977 0.589-1.222 2.15-2.726 3.425-3.3 1.374-0.619 3.378-0.657 4.68-0.089 1.137 0.496 2.232 1.509 2.89 2.673 0.587 1.039 1.127 3.148 1.124 4.387-0.005 1.703-0.909 3.803-2.127 4.942-0.626 0.585-0.918 1.18-1.072 2.188-0.069 0.45-0.215 0.926-0.324 1.058-0.233 0.281-0.889 0.322-0.889 0.055 0-0.101-0.083-0.184-0.184-0.184s-0.184 0.197-0.184 0.437c0 0.241-0.121 0.538-0.268 0.66-0.178 0.148-0.286 0.665-0.322 1.54l-0.054 1.318-0.598 0.058c-0.5 0.048-0.628-0.021-0.779-0.418-0.099-0.261-0.128-0.978-0.064-1.593 0.090-0.857 0.056-1.156-0.141-1.281-0.416-0.263-0.534-0.198-0.534 0.295 0 0.255-0.213 0.802-0.474 1.215-0.463 0.733-0.493 0.748-1.267 0.632-0.78-0.117-0.805-0.104-1.62 0.855-0.455 0.536-0.995 1.253-1.201 1.594l-0.373 0.62z"></path>
</svg>
