<!-- Generated by IcoMoon.io -->
<svg version="1.1" xmlns="http://www.w3.org/2000/svg" width="30" height="32" viewBox="0 0 30 32">
<title>bless1</title>
<path d="M15.072 5.624q-0.32-0.064-0.544-0.16-0.192-0.064-0.352-0.192t-0.16-0.32q0-0.288 0.16-0.528t0.352-0.432q0.224-0.224 0.544-0.416 0.288 0.192 0.512 0.416 0.192 0.192 0.352 0.432t0.16 0.528q0 0.192-0.16 0.32t-0.352 0.192q-0.224 0.096-0.512 0.16zM24.736 18.776q0.48 0.064 0.608 0.368t0.096 0.816q-0.064 0.48-0.192 0.768t-0.288 0.448q-0.16 0.192-0.384 0.256-0.064-0.704-0.224-1.056t-0.32-0.512-0.352-0.096-0.32 0.224q-0.288 0.48-0.88 1.12t-1.744 0.864q-0.448 0.096-0.896 0.096 0 0.48-0.096 0.896-0.224 1.152-0.864 1.744t-1.12 0.88q-0.16 0.128-0.224 0.32t0.096 0.352 0.512 0.32 1.056 0.224q-0.064 0.224-0.256 0.384-0.16 0.16-0.464 0.304t-0.752 0.176q-0.512 0.032-0.816-0.096t-0.368-0.608q-0.128-0.256-0.128-0.672t0.064-0.864q0.064-0.512 0.16-1.056 0.576-0.576 0.864-1.088 0.256-0.448 0.224-0.896t-0.704-0.704q-0.128 0.032-0.224 0.096t-0.16 0.112-0.128 0.080l-0.448 0.064q-0.192 0.032-0.448 0.048t-0.544 0.016q-0.32 0-0.576-0.016t-0.448-0.048l-0.448-0.064q-0.128-0.064-0.32-0.192l-0.192-0.096q-0.704 0.256-0.72 0.704t0.24 0.896q0.288 0.512 0.864 1.088 0.096 0.544 0.16 1.056 0.064 0.448 0.048 0.864t-0.112 0.672q-0.064 0.48-0.352 0.608t-0.832 0.096q-0.48-0.032-0.768-0.176t-0.448-0.304q-0.192-0.16-0.256-0.384 0.704-0.064 1.056-0.224t0.512-0.32 0.096-0.352-0.224-0.32q-0.48-0.288-1.12-0.88t-0.864-1.744q-0.096-0.416-0.096-0.896-0.48 0-0.896-0.096-1.152-0.224-1.744-0.864t-0.88-1.12q-0.096-0.16-0.304-0.224t-0.368 0.096-0.32 0.512-0.224 1.056q-0.224-0.064-0.384-0.256-0.16-0.16-0.304-0.448t-0.176-0.768q-0.032-0.512 0.096-0.816t0.608-0.368q0.256-0.096 0.672-0.112t0.864 0.048q0.512 0.064 1.056 0.16 0.576 0.576 1.088 0.864 0.448 0.256 0.896 0.24t0.704-0.72l-0.096-0.192q-0.128-0.192-0.192-0.32l-0.064-0.448q-0.032-0.192-0.032-0.448v-1.12t0.032-0.448l0.064-0.448q0.032-0.064 0.080-0.128t0.112-0.16 0.096-0.224q-0.256-0.672-0.704-0.704t-0.896 0.224q-0.512 0.288-1.088 0.864-0.544 0.096-1.056 0.16-0.448 0.064-0.864 0.064t-0.672-0.128q-0.48-0.064-0.608-0.368t-0.096-0.816q0.032-0.448 0.176-0.752t0.304-0.464q0.16-0.192 0.384-0.256 0.064 0.704 0.224 1.056t0.32 0.512 0.368 0.096 0.304-0.224q0.288-0.48 0.88-1.12t1.744-0.864q0.416-0.096 0.896-0.096 0-0.448 0.096-0.896 0.224-1.152 0.864-1.744t1.12-0.88q0.16-0.128 0.224-0.32t-0.096-0.352-0.512-0.32-1.056-0.224q0.064-0.224 0.256-0.384 0.16-0.16 0.448-0.288t0.768-0.192q0.544-0.032 0.832 0.096t0.352 0.608q0.096 0.256 0.112 0.672t-0.048 0.864q-0.064 0.512-0.16 1.056-0.576 0.576-0.864 1.088-0.256 0.448-0.24 0.896t0.72 0.704l0.192-0.096q0.064-0.064 0.16-0.096t0.16-0.096l0.448-0.064q0.192-0.032 0.448-0.048t0.576-0.016q0.288 0 0.544 0.016t0.448 0.048l0.448 0.064q0.096 0.096 0.288 0.192 0.096 0.064 0.224 0.096 0.672-0.256 0.704-0.704t-0.224-0.896q-0.288-0.512-0.864-1.088-0.096-0.544-0.16-1.056-0.064-0.448-0.064-0.864t0.128-0.672q0.064-0.48 0.368-0.608t0.816-0.096q0.448 0.064 0.752 0.192t0.464 0.288q0.192 0.16 0.256 0.384-0.704 0.064-1.056 0.224t-0.512 0.32-0.096 0.352 0.224 0.32q0.48 0.288 1.12 0.88t0.864 1.744q0.096 0.448 0.096 0.896 0.448 0 0.896 0.096 1.152 0.224 1.744 0.864t0.88 1.12q0.128 0.16 0.32 0.224t0.352-0.096 0.32-0.512 0.224-1.056q0.224 0.064 0.384 0.256 0.16 0.16 0.288 0.464t0.192 0.752q0.032 0.512-0.096 0.816t-0.608 0.368q-0.256 0.128-0.672 0.128t-0.864-0.064q-0.512-0.064-1.056-0.16-0.576-0.576-1.088-0.864-0.448-0.256-0.896-0.224t-0.704 0.704q0.032 0.128 0.096 0.224 0.096 0.192 0.192 0.288l0.064 0.448q0.032 0.192 0.048 0.448t0.016 0.544q0 0.32-0.016 0.576t-0.048 0.448l-0.064 0.448q-0.064 0.064-0.096 0.16t-0.096 0.16l-0.096 0.192q0.256 0.704 0.704 0.72t0.896-0.24q0.512-0.288 1.088-0.864 0.544-0.096 1.056-0.16 0.448-0.064 0.864-0.048t0.672 0.112zM17.472 19.704q0.544-0.352 0.864-0.752t0.48-0.784q0.16-0.416 0.192-0.896-0.032-0.448-0.192-0.864-0.16-0.352-0.48-0.768t-0.864-0.768q-0.352-0.544-0.768-0.864t-0.768-0.48q-0.416-0.16-0.864-0.192-0.48 0.032-0.896 0.192-0.384 0.16-0.784 0.48t-0.752 0.864q-0.576 0.352-0.88 0.768t-0.464 0.768q-0.16 0.416-0.192 0.864 0.032 0.48 0.192 0.896 0.16 0.384 0.464 0.784t0.88 0.752q0.352 0.576 0.752 0.88t0.784 0.464q0.416 0.16 0.896 0.192 0.448-0.032 0.864-0.192 0.352-0.16 0.768-0.464t0.768-0.88zM15.072 28.952q0.288 0.064 0.512 0.16 0.192 0.064 0.352 0.208t0.16 0.304q0 0.288-0.16 0.544t-0.352 0.448q-0.224 0.224-0.512 0.384-0.32-0.16-0.544-0.384-0.192-0.192-0.352-0.448t-0.16-0.544q0-0.16 0.16-0.304t0.352-0.208q0.224-0.096 0.544-0.16zM27.392 16.248q0.288 0 0.528 0.16t0.432 0.352q0.224 0.224 0.416 0.512-0.192 0.32-0.416 0.544-0.192 0.192-0.432 0.352t-0.528 0.16q-0.192 0-0.32-0.16t-0.192-0.352q-0.096-0.224-0.16-0.544 0.064-0.288 0.16-0.512 0.064-0.192 0.192-0.352t0.32-0.16zM2.72 16.248q0.16 0 0.304 0.16t0.208 0.352q0.096 0.224 0.16 0.512-0.064 0.32-0.16 0.544-0.064 0.192-0.208 0.352t-0.304 0.16q-0.288 0-0.544-0.16t-0.448-0.352q-0.224-0.224-0.384-0.544 0.16-0.288 0.384-0.512 0.192-0.192 0.448-0.352t0.544-0.16zM14.4 7.768q-0.032-0.32-0.16-0.576-0.128-0.224-0.416-0.416t-0.832-0.192q0.128-0.288 0.288-0.544 0.16-0.192 0.32-0.368t0.352-0.176q0 0.128 0.096 0.256 0.064 0.096 0.24 0.192t0.528 0.128h0.48q0.352-0.032 0.528-0.128t0.24-0.192q0.096-0.128 0.096-0.256 0.16 0 0.336 0.176t0.336 0.368q0.16 0.256 0.288 0.544-0.544 0-0.832 0.192t-0.416 0.416q-0.128 0.256-0.16 0.576 0.064 0.928 0.128 1.632t0.128 1.184q-0.096-0.064-0.224-0.16-0.096-0.064-0.24-0.144t-0.336-0.144q-0.128-0.096-0.224 0-0.352 0.096-0.608 0.288-0.128 0.096-0.192 0.16 0.064-0.48 0.144-1.184t0.112-1.632zM26.272 17.528q0.032 0.352 0.128 0.528t0.192 0.24q0.128 0.096 0.256 0.096 0 0.192-0.176 0.352t-0.368 0.32q-0.224 0.16-0.512 0.288 0-0.544-0.192-0.832t-0.416-0.416q-0.288-0.128-0.608-0.16-0.928 0.064-1.632 0.128t-1.184 0.128q0.064-0.064 0.16-0.192 0.192-0.256 0.288-0.608 0.096-0.096 0-0.224-0.064-0.192-0.144-0.336t-0.144-0.24q-0.096-0.128-0.16-0.224 0.48 0.064 1.184 0.128t1.632 0.128q0.32-0.032 0.608-0.16 0.224-0.128 0.416-0.416t0.192-0.832q0.288 0.128 0.512 0.288 0.192 0.16 0.368 0.336t0.176 0.336q-0.128 0-0.256 0.096-0.096 0.064-0.192 0.24t-0.128 0.528v0.48zM15.712 26.808q0.032 0.352 0.16 0.608 0.128 0.224 0.416 0.4t0.832 0.176q-0.128 0.32-0.288 0.544t-0.336 0.384-0.336 0.16q0-0.128-0.096-0.256-0.064-0.096-0.24-0.176t-0.528-0.144h-0.48q-0.352 0.064-0.528 0.144t-0.24 0.176q-0.096 0.128-0.096 0.256-0.192 0-0.352-0.16t-0.32-0.384-0.288-0.544q0.544 0 0.832-0.176t0.416-0.4q0.128-0.256 0.16-0.608-0.032-0.928-0.112-1.632t-0.144-1.184q0.064 0.096 0.192 0.192 0.192 0.16 0.608 0.256 0.096 0.128 0.224 0 0.352-0.096 0.576-0.256 0.128-0.096 0.224-0.192-0.064 0.48-0.128 1.184t-0.128 1.632zM5.568 17.88q-0.352 0.032-0.608 0.16t-0.432 0.416-0.176 0.832q-0.32-0.16-0.544-0.288t-0.384-0.288-0.16-0.384q0.128 0 0.256-0.096 0.096-0.064 0.176-0.24t0.144-0.528v-0.352q-0.064-0.352-0.144-0.528t-0.176-0.24q-0.128-0.096-0.256-0.096 0-0.192 0.16-0.368t0.384-0.304 0.544-0.288q0 0.544 0.176 0.832t0.432 0.416 0.608 0.16q0.928-0.064 1.616-0.128t1.168-0.128q-0.096 0.096-0.192 0.224-0.16 0.224-0.256 0.576-0.064 0.064 0 0.096 0.096 0.416 0.256 0.608 0.096 0.128 0.192 0.192-0.48-0.064-1.168-0.128t-1.616-0.128z"></path>
</svg>
