<!-- Generated by IcoMoon.io -->
<svg version="1.1" xmlns="http://www.w3.org/2000/svg" width="32" height="32" viewBox="0 0 32 32">
<title>blob_set</title>
<path d="M28.417 22.327c-0.005-0.368-0.324-0.629-0.255-0.991 0.016-0.086 0.011-0.238 0.042-0.313 0.038-0.090 0.171-0.116 0.204-0.235 0.050-0.181-0.145-0.5-0.204-0.658-0.092-0.244-0.217-0.477-0.277-0.731-0.027-0.116-0.032-0.247-0.088-0.355-0.112-0.218-0.396-0.394-0.573-0.557-0.299-0.275-0.584-0.521-0.834-0.844-0.122-0.159-0.238-0.281-0.402-0.391-0.137-0.093-0.292-0.227-0.459-0.254-0.319-0.101-0.535-0.346-0.749-0.618-0.081-0.103-0.141-0.151-0.249-0.218-0.205-0.126-0.452-0.164-0.674-0.271-0.163-0.078-0.281-0.193-0.459-0.246-0.134-0.040-0.27-0.056-0.407-0.085-0.339-0.072-0.769-0.118-1.105 0.012-0.357 0.139-0.603 0.471-0.965 0.607-0.312 0.117-0.718 0.015-1.059 0.088-0.359 0.077-0.665 0.268-1.014 0.373-0.435 0.131-0.772 0.341-1.148 0.586-0.201 0.131-0.386 0.31-0.625 0.341-0.144 0.019-0.274 0.020-0.366 0.153-0.067 0.096-0.053 0.213-0.077 0.322-0.039 0.185-0.106 0.372-0.162 0.553-0.136 0.446-0.348 0.917-0.388 1.381-0.026 0.3 0.037 0.543-0.142 0.807-0.177 0.26-0.456 0.444-0.661 0.689-0.174 0.208-0.194 0.38-0.195 0.643-0.001 0.178 0.022 0.324 0.056 0.497 0.026 0.131-0.007 0.258 0.017 0.385 0.030 0.159 0.172 0.252 0.237 0.395 0.044 0.095 0.043 0.181 0.046 0.282 0.010 0.297 0.224 0.481 0.216 0.783-0.003 0.116-0.020 0.245-0.005 0.36 0.011 0.083 0.054 0.11 0.067 0.177 0.015 0.078-0.017 0.169 0.001 0.244 0.026 0.108 0.113 0.14 0.182 0.223 0.155 0.185 0.334 0.465 0.406 0.69 0.112 0.351 0.318 0.745 0.569 1.021 0.291 0.32 0.603 0.724 1.050 0.766 0.271 0.025 0.513-0.017 0.78 0.062 0.283 0.084 0.569 0.193 0.813 0.361s0.428 0.4 0.644 0.601c0.216 0.202 0.503 0.385 0.769 0.524 0.124 0.064 0.272 0.094 0.391 0.168 0.116 0.071 0.2 0.194 0.316 0.264 0.155 0.093 0.321 0.083 0.494 0.079 0.421-0.009 0.843-0.005 1.264-0.001 0.237 0.002 0.475 0.017 0.702-0.067 0.182-0.068 0.311-0.186 0.471-0.289 0.185-0.119 0.425-0.149 0.589-0.293 0.175-0.154 0.214-0.429 0.364-0.616 0.291-0.363 0.638-0.567 1.022-0.81 0.176-0.112 0.282-0.252 0.422-0.398s0.331-0.231 0.474-0.374c0.321-0.324 0.521-0.686 0.717-1.092 0.103-0.214 0.18-0.4 0.207-0.636s0.091-0.439 0.135-0.67c0.073-0.38-0.051-0.758-0.061-1.136-0.011-0.43-0.059-0.855-0.065-1.288z"></path>
<path d="M6.165 2.538c0.181 0.204 0.388 0.343 0.582 0.538 0.12 0.12 0.272 0.245 0.346 0.397 0.123 0.253 0.351 0.397 0.578 0.577 0.25 0.199 0.408 0.491 0.606 0.737 0.105 0.13 0.242 0.226 0.345 0.355 0.168 0.21 0.318 0.406 0.503 0.606 0.172 0.186 0.351 0.342 0.532 0.517s0.321 0.394 0.495 0.576c0.528 0.55 1.128 0.998 1.673 1.526 0.771 0.747 1.623 1.407 2.381 2.169 0.827 0.831 1.751 1.545 2.607 2.342 0.4 0.373 0.825 0.713 1.24 1.069 0.116 0.1 0.246 0.26 0.362 0.342 0.020 0.014 0.061 0.001 0.081 0.014 0.090 0.056 0.157 0.121 0.248 0.192 0.166 0.129 0.605 0.34 0.829 0.307 0.076-0.011 0.079-0.046 0.141-0.075 0.116-0.054 0.239-0.096 0.36-0.143 0.287-0.113 0.432-0.002 0.702 0.002 0.234 0.003 0.266 0.074 0.462 0.196 0.145 0.090 0.401 0.137 0.568 0.075 0.080-0.030 0.136-0.134 0.213-0.169 0.163-0.074 0.469-0.072 0.924 0.252 0.020-0.004 0.039-0.008 0.059-0.012 0.024-0.080 0.024-0.189 0.014-0.274-0.014-0.113-0.028-0.079-0.068-0.151-0.145-0.265-0.326-0.489-0.604-0.629-0.315-0.159-0.647-0.298-0.966-0.438-0.172-0.076-0.242-0.246-0.4-0.345-0.144-0.091-0.318-0.127-0.457-0.227-0.173-0.125-0.291-0.237-0.486-0.334s-0.351-0.232-0.522-0.363c-0.439-0.335-0.951-0.532-1.402-0.851-0.52-0.367-1.017-0.752-1.5-1.166-0.349-0.299-0.702-0.596-1.060-0.884-0.235-0.189-0.51-0.3-0.748-0.482-0.562-0.431-1.072-0.922-1.62-1.372-0.504-0.414-0.923-0.898-1.497-1.211-0.137-0.075-0.256-0.188-0.377-0.289-0.29-0.242-0.594-0.426-0.9-0.641-0.555-0.391-1.075-0.827-1.597-1.263-0.39-0.326-0.758-0.685-1.179-0.971-0.286-0.194-0.66-0.503-0.996-0.594-0.093-0.025-0.157-0.003-0.249-0.055-0.063-0.036-0.115-0.094-0.177-0.135-0.161-0.105-0.392-0.092-0.538-0.209 0.173 0.152 0.339 0.325 0.492 0.497z"></path>
<path d="M16.207 16.43c0.235-0.004 0.318 0.024 0.496-0.102 0.226-0.16 0.358-0.366 0.543-0.558 0.103-0.107 0.084-0.189 0.085-0.335 0.002-0.198-0.014-0.217-0.213-0.213-0.142 0.003-0.284-0-0.426-0 0.063-0.532-0.122-0.618-0.246-0.641-0.060-0.012-0.119 0.015-0.18-0.008-0.079-0.030-0.149-0.134-0.217-0.189-0.12-0.097-0.236-0.188-0.348-0.297-0.088-0.085-0.212-0.154-0.291-0.246-0.084-0.097-0.109-0.251-0.21-0.334-0.122-0.1-0.426-0.109-0.57-0.052-0.079 0.031-0.216 0.175-0.288 0.228-0.088 0.065-0.095 0.019-0.142 0.116-0.063 0.128 0.031 0.454 0.094 0.561 0.104 0.177 0.279 0.372 0.409 0.528 0.243 0.294 0.487 0.541 0.683 0.868 0.108 0.18 0.234 0.312 0.382 0.462 0.163 0.165 0.21 0.216 0.438 0.212z"></path>
<path d="M4.048 2.425c0.047 0.052 0.093 0.106 0.136 0.161 0.015 0.045 0.017 0.090 0.006 0.136 0.030 0.079 0.007 0.079 0.063 0.153 0.076 0.1 0.216 0.205 0.308 0.292 0.093 0.087 0.279 0.155 0.335 0.266 0.033 0.066-0.008 0.15 0.012 0.222 0.042 0.146 0.206 0.28 0.285 0.405 0.049 0.078 0.083 0.161 0.131 0.239 0.097 0.159 0.209 0.352 0.329 0.491 0.141 0.165 0.317 0.301 0.457 0.471 0.15 0.183 0.322 0.351 0.493 0.514 0.275 0.262 0.55 0.463 0.753 0.776 0.211 0.327 0.554 0.602 0.814 0.895 0.341 0.384 0.716 0.752 1.082 1.115 0.384 0.382 0.742 0.804 1.133 1.176 0.385 0.366 0.843 0.667 1.25 1.010 0.303 0.255 0.594 0.528 0.884 0.795 0.25 0.229 0.458 0.525 0.752 0.702 0.157 0.094 0.308 0.254 0.475 0.318 0.182 0.069 0.407 0.054 0.567-0.065 0.12-0.088 0.152-0.214-0.033-0.258-0.213-0.052-0.19-0.2-0.21-0.321-0.022-0.139-0.159-0.168-0.159-0.305-0.309-0.014-0.564-0.526-0.764-0.722-0.461-0.454-0.916-0.914-1.373-1.371-0.493-0.493-0.992-0.987-1.525-1.438-0.555-0.471-1.109-0.932-1.57-1.499-0.387-0.475-0.909-0.817-1.356-1.23-0.467-0.432-0.962-0.824-1.44-1.241-0.26-0.227-0.539-0.479-0.752-0.753-0.2-0.257-0.428-0.445-0.657-0.675-0.186-0.187-0.362-0.43-0.569-0.592-0.092-0.072-0.136-0.12-0.263-0.073 0.144 0.132 0.281 0.257 0.41 0.406z"></path>
<path d="M15.769 17.992c-0.016-0.087-0.077-0.104-0.137-0.155-0.151-0.128-0.297-0.267-0.433-0.412-0.362-0.385-0.59-0.868-0.961-1.25-0.331-0.341-0.594-0.743-0.934-1.076-0.31-0.303-0.585-0.631-0.853-0.973-0.29-0.37-0.538-0.779-0.875-1.108-0.114-0.112-0.275-0.378-0.44-0.412-0.265-0.054-0.21 0.264-0.183 0.44 0.059 0.387 0.259 0.726 0.483 1.042 0.369 0.524 0.772 1.006 1.173 1.506 0.26 0.324 0.428 0.699 0.657 1.042 0.245 0.368 0.348 0.816 0.586 1.178 0.184 0.28 0.265 0.544 0.57 0.731 0.219 0.134 0.506 0.277 0.765 0.302 0.244 0.023 0.352-0.042 0.426-0.286 0.030-0.098 0.036-0.262 0.015-0.362-0.029-0.137-0.020-0.114 0.141-0.208z"></path>
<path d="M14.599 20.241c0.043-0.062 0.082-0.046 0.141-0.084 0.074-0.047 0.142-0.074 0.165-0.156-0.147-0.111-0.138-0.311-0.271-0.445-0.177-0.18-0.425-0.326-0.647-0.449-0.136-0.076-0.292-0.129-0.418-0.203-0.225-0.132-0.407-0.356-0.589-0.537-0.627-0.621-1.134-1.354-1.762-1.974-0.624-0.617-1.181-1.32-1.703-2.023-0.272-0.366-0.491-0.745-0.723-1.133-0.289-0.482-0.667-0.891-0.971-1.361-0.169-0.262-0.286-0.548-0.505-0.775-0.262-0.272-0.496-0.56-0.712-0.87-0.239-0.343-0.538-0.66-0.806-0.984-0.197-0.238-0.382-0.487-0.58-0.722-0.349-0.414-0.661-0.854-0.926-1.334-0.159-0.287-0.539-0.918-0.887-0.493-0.302 0.369 0.020 0.621 0.246 0.937 0.188 0.262 0.445 0.437 0.609 0.714 0.14 0.236 0.307 0.447 0.427 0.695 0.087 0.181 0.2 0.342 0.298 0.511 0.142 0.244 0.39 0.434 0.49 0.702 0.034 0.090-0 0.129 0.071 0.22 0.112 0.142 0.276 0.245 0.392 0.384 0.135 0.161 0.227 0.359 0.348 0.529 0.072 0.101 0.107 0.201 0.155 0.314 0.078 0.183 0.215 0.378 0.328 0.543 0.136 0.2 0.336 0.358 0.471 0.556 0.082 0.12 0.044 0.1 0.080 0.228 0.054 0.189 0.297 0.359 0.416 0.495 0.218 0.248 0.401 0.525 0.592 0.793 0.742 1.044 1.592 1.985 2.453 2.932 0.382 0.421 0.715 0.869 1.085 1.301 0.109 0.128 0.251 0.235 0.355 0.364 0.086 0.106 0.129 0.228 0.205 0.34 0.054 0.079 0.132 0.138 0.197 0.205 0.138 0.141 0.22 0.306 0.323 0.472 0.129 0.208 0.3 0.379 0.476 0.547 0.194 0.185 0.383 0.14 0.645 0.141 0.177 0 0.414 0.043 0.583-0.011 0.194-0.061 0.17-0.197 0.245-0.348 0.030-0.060 0.077-0.067 0.095-0.135 0.011-0.044 0.003-0.087 0.002-0.132-0.436 0.561-0.464 0.348-0.394 0.245z"></path>
<path d="M3.673 5.278c0.068 0.181 0.172 0.357 0.311 0.492 0.066 0.065 0.183 0.111 0.235 0.187 0.040 0.058 0.024 0.109 0.053 0.169 0.158 0.333 0.473 0.608 0.666 0.923 0.165 0.27 0.399 0.493 0.584 0.749 0.125 0.172 0.222 0.362 0.347 0.531 0.218 0.296 0.542 0.496 0.781 0.773 0.158 0.183 0.295 0.388 0.465 0.561 0.223 0.227 0.473 0.431 0.697 0.659 0.513 0.52 1.068 0.96 1.53 1.531 0.146 0.181 0.494 0.43 0.531 0.671 0.013-0.213-0.071-0.72-0.071-0.852 0.001-0.361-0.291-0.62-0.465-0.925-0.142-0.249-0.322-0.421-0.53-0.635-0.326-0.337-0.604-0.722-0.941-1.052-0.36-0.354-0.712-0.702-1.102-1.030-0.208-0.175-0.447-0.305-0.656-0.482-0.255-0.216-0.471-0.446-0.692-0.691-0.182-0.202-0.399-0.375-0.586-0.575-0.115-0.123-0.25-0.213-0.37-0.331-0.141-0.139-0.245-0.317-0.361-0.477-0.227-0.313-0.481-0.591-0.755-0.862-0.064-0.063-0.189-0.261-0.283-0.25-0.020 0.136 0.271 0.381 0.349 0.474 0.13 0.154 0.194 0.259 0.263 0.444z"></path>
<path d="M28.478 17.516c-0.469-0.912-1.173-1.676-1.876-2.43-0.17-0.119-0.339-0.237-0.501-0.387-0.26-0.241-0.467-0.495-0.708-0.752-0.427-0.457-0.928-0.86-1.385-1.287-0.208-0.194-0.46-0.31-0.674-0.496-0.259-0.224-0.458-0.417-0.749-0.602-0.565-0.357-1.128-0.724-1.692-1.088-0.505-0.326-0.992-0.666-1.487-1.010-0.307-0.214-0.638-0.378-0.933-0.612-0.424-0.336-0.862-0.649-1.281-0.993-0.163-0.134-0.351-0.255-0.506-0.395-0.058-0.053-0.103-0.141-0.16-0.188-0.075-0.062-0.166-0.108-0.25-0.064 0.102 0.315 0.586 0.589 0.82 0.795 0.405 0.356 0.775 0.746 1.174 1.107 0.328 0.297 0.65 0.59 0.96 0.907 0.249 0.256 0.556 0.419 0.812 0.661 0.343 0.324 0.773 0.53 1.128 0.848 0.342 0.306 0.695 0.602 1.066 0.868 0.156 0.112 0.261 0.276 0.415 0.391 0.178 0.132 0.391 0.209 0.581 0.322 0.288 0.17 0.615 0.327 0.843 0.563 0.156 0.161 0.312 0.311 0.453 0.486 0.062 0.070 0.123 0.142 0.182 0.215 0.007 0.044 0.014 0.088 0.021 0.133 0.127 0.241 0.33 0.419 0.521 0.607 0.231 0.227 0.372 0.529 0.615 0.745 0.211 0.188 0.435 0.341 0.611 0.568 0.19 0.246 0.388 0.428 0.627 0.626 0.562 0.466 1.142 1.055 1.454 1.719 0.125 0.266 0.189 0.534 0.352 0.781 0.025 0.039 0.047 0.078 0.070 0.118-0.027-0.733-0.142-1.455-0.503-2.157z"></path>
<path d="M12.302 24.911c0.154 0.223 0.263 0.473 0.469 0.655 0.137 0.121 0.264 0.239 0.385 0.378 0.113 0.13 0.22 0.273 0.33 0.415 0.368 0.33 0.742 0.654 1.126 0.963 0.008 0.005 0.016 0.009 0.025 0.014 0.231 0.131 0.418 0.278 0.657 0.389 0.285 0.132 0.511 0.359 0.736 0.59 0.908 0.489 1.93 0.731 2.893 1.108 0.024-0.065 0.040-0.127 0.038-0.176-0.003-0.173-0.173-0.604-0.345-0.674-0.115-0.047-0.508-0.020-0.634 0.016l-0.012 0.059c-0.445-0.193-0.585-0.041-0.779-0.066-0.222-0.029-0.439-0.264-0.646-0.36-0.194-0.090-0.312-0.268-0.442-0.43-0.264-0.331-0.604-0.622-0.905-0.921-0.47-0.467-0.973-0.957-1.345-1.506-0.22-0.324-0.537-0.587-0.785-0.892-0.26-0.32-0.573-0.608-0.852-0.912-0.368-0.402-0.798-0.728-1.171-1.123-0.425-0.45-0.907-0.869-1.314-1.333-0.669-0.762-1.477-1.389-2.128-2.167-0.193-0.23-0.421-0.421-0.603-0.66-0.175-0.23-0.356-0.44-0.543-0.66-0.297-0.351-0.629-0.667-0.919-1.025-0.387-0.477-0.722-0.997-1.141-1.445-0.174-0.186-0.336-0.381-0.503-0.573-0.076-0.087-0.153-0.271-0.261-0.323-0.052 0.126-0.013 0.238 0.060 0.338 0.182 0.251 0.458 0.438 0.625 0.708 0.192 0.311 0.392 0.616 0.597 0.922 0.138 0.206 0.325 0.359 0.454 0.571 0.122 0.2 0.261 0.377 0.387 0.565 0.088 0.132 0.109 0.272 0.208 0.409 0.085 0.116 0.145 0.24 0.23 0.355 0.12 0.163 0.074 0.077 0.123 0.229 0.024 0.075 0.011 0.054 0.064 0.136 0.095 0.147 0.251 0.297 0.366 0.435 0.189 0.229 0.415 0.446 0.563 0.701 0.19 0.329 0.506 0.676 0.785 0.935 0.159 0.147 0.344 0.252 0.493 0.411 0.198 0.211 0.376 0.439 0.576 0.65 0.248 0.262 0.46 0.558 0.711 0.821 0.173 0.181 0.371 0.331 0.548 0.506 0.163 0.161 0.254 0.366 0.443 0.505 0.168 0.124 0.307 0.249 0.456 0.399 0.35 0.354 0.696 0.653 0.979 1.064z"></path>
<path d="M13.922 22.396c-0.42 0.221-0.346 0.001-0.586-0.268-0.123-0.137-0.249-0.251-0.389-0.37-0.141-0.12-0.24-0.254-0.384-0.367-0.271-0.213-0.512-0.439-0.799-0.628-0.595-0.393-1.107-0.841-1.62-1.33-0.402-0.383-0.803-0.721-1.118-1.186-0.135-0.199-0.28-0.388-0.429-0.576-0.076-0.095-0.138-0.224-0.264-0.242 0.093 0.137 0.171 0.286 0.273 0.417 0.164 0.208 0.442 0.403 0.545 0.644 0.044 0.102 0.043 0.191 0.12 0.285 0.075 0.092 0.18 0.15 0.261 0.239 0.204 0.229 0.399 0.458 0.619 0.676 0.21 0.208 0.388 0.423 0.58 0.646 0.152 0.176 0.376 0.299 0.516 0.479 0.136 0.175 0.183 0.401 0.35 0.574 0.156 0.16 0.296 0.329 0.435 0.504 0.418 0.524 0.951 0.924 1.307 1.502 0.143 0.233 0.29 0.479 0.583 0.405 0.372-0.093 0.467-0.394 0.392-0.759-0.044-0.211-0.13-0.59-0.392-0.645z"></path>
<path d="M3.916 10.389c0.084 0.104 0.176 0.2 0.277 0.287 0.15 0.154 0.209 0.321 0.32 0.497 0.225 0.356 0.59 0.609 0.743 0.998 0.131 0.333 0.394 0.629 0.642 0.888 0.302 0.316 0.613 0.634 0.905 0.957 0.212 0.234 0.356 0.496 0.54 0.747 0.159 0.216 0.304 0.443 0.47 0.656 0.098 0.126 0.18 0.26 0.275 0.387 0.125 0.166 0.301 0.281 0.449 0.424 0.335 0.323 0.64 0.716 0.841 1.139 0.216 0.458 0.385 0.954 0.758 1.317 0.236 0.23 0.485 0.443 0.732 0.661 0.212 0.188 0.435 0.205 0.708 0.208 0.216 0.002 0.394-0.030 0.357-0.286-0.013-0.090-0.013-0.145-0.087-0.213-0.082-0.075-0.201-0.049-0.27-0.14-0.070-0.1-0.171-0.163-0.207-0.248-0.026-0.060-0.024-0.122-0.058-0.181-0.057-0.101-0.145-0.208-0.215-0.3-0.124-0.163-0.284-0.301-0.413-0.462-0.164-0.204-0.319-0.434-0.521-0.6-0.479-0.394-0.91-0.837-1.354-1.273-0.206-0.202-0.364-0.455-0.567-0.663-0.225-0.23-0.481-0.416-0.688-0.667-0.151-0.183-0.3-0.375-0.442-0.564-0.065-0.086-0.081-0.175-0.143-0.26-0.087-0.119-0.264-0.207-0.366-0.317-0.227-0.245-0.401-0.504-0.573-0.785-0.095-0.155-0.201-0.268-0.324-0.398-0.11-0.116-0.159-0.255-0.249-0.382-0.197-0.277-0.473-0.506-0.681-0.778-0.256-0.336-0.484-0.695-0.8-0.984-0.252-0.229-0.509-0.475-0.734-0.73-0.079-0.089-0.233-0.351-0.378-0.27 0.061 0.088 0.116 0.148 0.19 0.206 0.066 0.052 0.106 0.059 0.16 0.139 0.086 0.127 0.16 0.259 0.247 0.376 0.099 0.134 0.191 0.248 0.301 0.362 0.056 0.083 0.107 0.167 0.155 0.255z"></path>
</svg>
