<!-- Generated by IcoMoon.io -->
<svg version="1.1" xmlns="http://www.w3.org/2000/svg" width="33" height="32" viewBox="0 0 33 32">
<title>blob</title>
<path d="M25.303 17.179c-0.099 0.376-0.149 0.76-0.238 1.138-0.029 0.122-0.1 0.236-0.137 0.356-0.034 0.113-0.078 0.206-0.15 0.3-0.106 0.138-0.209 0.275-0.344 0.381-0.098 0.076-0.192 0.148-0.302 0.209-0.001 0.001-0.001 0.001-0.002 0.001-0.034-0.117-0.054-0.241-0.074-0.366-0.045-0.283-0.041-0.575 0.019-0.856 0.049-0.235 0.157-0.489 0.248-0.711 0.081-0.197 0.152-0.412 0.258-0.598 0.050-0.089 0.122-0.158 0.188-0.234 0.085-0.1 0.15-0.213 0.228-0.318 0.093-0.124 0.227-0.28 0.374-0.374 0 0.007-0.001 0.015-0.001 0.022 0 0.351 0.026 0.71-0.064 1.051zM21.093 19.857c-0.053 0.136-0.049 0.335-0.206 0.412-0.115 0.055-0.322 0.017-0.448 0.015-0.209-0.002-0.312 0.093-0.503 0.148-0.16 0.046-0.224 0.009-0.271 0.193-0.066 0.256-0.057 0.552-0.071 0.818-0.007 0.137-0.068 0.258-0.085 0.392-0.008 0.066 0.034 0.149-0.007 0.211-0.054 0.082-0.187 0.069-0.262 0.093-0.057 0.019-0.107 0.056-0.159 0.071-0.144 0.041-0.227 0.076-0.36 0.143-0.128 0.064-0.288 0.088-0.408 0.17-0.082 0.056-0.093 0.125-0.159 0.189s-0.158 0.080-0.219 0.156c-0.216 0.264-0.215 0.976-0.661 0.974-0.473-0.001-0.624-0.219-0.619-0.659 0.002-0.338-0.056-0.677-0.233-0.966-0.078-0.128-0.2-0.235-0.308-0.35-0.135-0.143-0.237-0.114-0.425-0.114-0.181 0-0.348-0.018-0.505 0.093-0.179 0.125-0.258 0.376-0.402 0.544-0.214 0.252-0.601 0.775-0.942 0.474-0.239-0.21-0.233-0.539-0.354-0.806-0.128-0.28-0.118-0.603-0.27-0.884-0.096-0.18-0.182-0.337-0.351-0.427-0.129-0.068-0.226-0.054-0.367-0.093-0.076-0.021-0.108-0.056-0.21-0.061-0.077-0.003-0.155 0.001-0.233 0.001-0.15 0-0.315 0.020-0.463 0.002-0.347-0.042-0.382-0.351-0.502-0.617-0.146-0.326-0.075-0.755-0.078-1.107-0.004-0.579 0.081-1.142 0.458-1.601 0.144-0.176 0.402-0.358 0.585-0.496 0.153-0.116 0.314-0.221 0.457-0.355 0.27-0.254 0.492-0.564 0.756-0.826 0.167-0.166 0.328-0.347 0.489-0.525 0.132-0.145 0.158-0.29 0.227-0.463 0.077-0.191 0.119-0.288 0.118-0.499-0.001-0.181-0.001-0.363 0-0.544 0.001-0.18-0.048-0.268-0.080-0.422-0.030-0.138 0.002-0.323 0.002-0.466 0-0.097 0-0.194 0-0.292-0.006-0.045-0.008-0.091-0.001-0.136 0.001-0.001 0.001-0.002 0.001-0.005 0-0.024 0.001-0.047 0-0.070-0.001-0.078-0.004-0.14 0.018-0.215 0.019-0.066 0.085-0.073 0.060-0.172l0.007 0.055c0.002-0.012 0.004-0.025 0.008-0.037 0.013-0.037 0.103-0.133 0.122-0.172 0.041-0.081 0.040-0.122 0.093-0.194 0.084-0.114 0.196-0.181 0.312-0.25 0.125-0.074 0.229-0.135 0.366-0.193 0.066-0.028 0.094-0.039 0.174-0.058 0.048-0.012 0.134-0.053 0.171-0.061 0.182-0.037 0.862-0.108 0.999 0.026-0.024-0.025-0.054 0.192-0.089 0.189 0.103-0.029 0.288 0.092 0.387 0.116 0.136 0.034 0.271 0.038 0.425 0.039 0.322 0 0.644 0.001 0.966 0 0.176-0.001 0.344 0.012 0.505 0.076 0.085 0.034 0.082 0.062 0.159 0.109 0.059 0.037 0.132 0.042 0.189 0.082 0.282 0.194 0.152 0.844 0.152 1.125 0 0.397-0.059 0.85 0.038 1.234 0.116 0.462 0.399 0.579 0.816 0.755 0.284 0.121 0.57 0.103 0.814 0.323 0.28 0.253 0.342 0.474 0.341 0.851-0.001 0.37-0.012 0.693-0.163 1.033-0.134 0.297-0.403 0.283-0.687 0.283-0.167 0-0.335 0.005-0.502 0.001s-0.296-0.076-0.463-0.079c-0.368-0.008-0.722-0.049-0.969 0.272-0.201 0.259 0.006 0.706 0.206 0.917 0.106 0.112 0.263 0.322 0.413 0.362 0.13 0.034 0.329-0.006 0.466-0.006 0.167 0 0.335 0 0.501 0 0.19-0.001 0.321 0.036 0.502 0.071 0.1 0.019 0.218-0.022 0.314 0.003 0.067 0.018 0.086 0.071 0.146 0.102 0.126 0.063 0.248 0.063 0.334 0.189 0.168 0.248 0.037 0.655-0.062 0.907zM10.823 7.226c-0.211-0.23-0.429-0.448-0.644-0.673-0.179-0.187-0.314-0.408-0.506-0.582-0.022-0.019-0.042-0.041-0.064-0.062 0.138 0.030 0.267 0.051 0.414 0.048 0.253-0.003 0.51-0.019 0.759 0.028 0.17 0.033 0.351-0.023 0.52 0.007 0.079 0.014 0.208 0.081 0.232 0.157 0.029 0.090 0.008 0.285-0.030 0.369-0.059 0.135-0.103 0.279-0.178 0.407-0.091 0.155-0.174 0.307-0.243 0.472-0.009 0.020-0.015 0.040-0.022 0.061-0.082-0.075-0.162-0.152-0.237-0.233zM12.4 7.595c0.107-0.117 0.214-0.226 0.313-0.348 0.122-0.151 0.292-0.236 0.427-0.371 0.164-0.166 0.312-0.331 0.5-0.471 0.027-0.020 0.052-0.041 0.078-0.061 0.005 0.026 0.009 0.053 0.012 0.080 0.021 0.152-0.002 0.304 0.016 0.456 0.022 0.173 0.030 0.337 0.029 0.511-0.001 0.216 0.022 0.441-0.006 0.655-0.024 0.179-0.092 0.423-0.212 0.566-0.042 0.049-0.048 0.034-0.116 0.036-0.081 0.005-0.155 0.023-0.234 0.039-0.122 0.025-0.234 0.040-0.359 0.038-0.061 0-0.12 0.005-0.181 0.006-0.128 0.002-0.223-0.063-0.325-0.135-0.153-0.107-0.29-0.227-0.424-0.354 0.137-0.225 0.309-0.455 0.482-0.646zM12.599 5.117c0.131-0.112 0.251-0.244 0.4-0.33 0.167-0.097 0.383-0.184 0.588-0.226-0.001 0.215-0.001 0.429 0.012 0.643-0.097 0.039-0.194 0.078-0.292 0.114-0.104 0.036-0.165 0.103-0.28 0.116-0.119 0.014-0.241 0.1-0.366 0.078-0.064-0.012-0.234-0.077-0.236-0.153-0.002-0.085 0.118-0.193 0.175-0.241zM8.473 18.888c-0.051 0.090-0.115 0.148-0.184 0.196-0.103-0.179-0.167-0.364-0.255-0.554-0.122-0.265-0.275-0.536-0.347-0.82-0.068-0.268-0.13-0.529-0.166-0.803-0.019-0.143-0.044-0.283-0.071-0.423 0.202 0.215 0.387 0.447 0.529 0.695 0.211 0.366 0.442 0.703 0.498 1.133 0.026 0.203 0.105 0.388-0.004 0.576zM7.519 19.27c-0.097-0.001-0.195-0.002-0.292-0.003-0.011-0.070-0.029-0.14-0.039-0.199-0.017-0.099-0.033-0.175-0.033-0.277 0.001-0.115 0-0.229 0-0.344 0-0.118-0.008-0.204 0.085-0.29 0.108-0.1 0.174-0.015 0.206 0.103 0.048 0.181 0.083 0.374 0.134 0.558 0.044 0.158 0.127 0.239 0.204 0.38 0.015 0.027 0.027 0.050 0.040 0.071-0.101 0.009-0.206 0.001-0.306 0.001zM6.415 15.766c-0.074 0.043-0.215 0.138-0.309 0.104-0.074-0.026-0.103-0.141-0.132-0.207-0.061-0.135-0.186-0.256-0.233-0.393-0.016-0.046-0.034-0.090-0.052-0.135 0.228 0.157 0.48 0.259 0.711 0.41 0.044 0.028 0.083 0.064 0.122 0.1-0.020 0.048-0.051 0.089-0.107 0.121zM6.369 19.354c-0.179 0.017-0.353 0.057-0.521 0.122-0.026-0.166-0.081-0.332-0.15-0.491 0.002-0.104-0.002-0.208-0.002-0.313 0.001-0.239 0-0.478 0-0.717 0-0.093-0.002-0.186-0.004-0.279 0.022-0.237 0.040-0.474 0.052-0.711 0.028-0.080 0.080-0.13 0.177-0.157 0.078-0.022 0.13-0.013 0.186 0.037 0.099 0.089 0.104 0.181 0.121 0.301 0.020 0.148 0.065 0.282 0.068 0.432 0.004 0.285-0.026 0.573 0.028 0.853 0.037 0.197-0.034 0.414 0.006 0.61 0.014 0.067 0.038 0.104 0.040 0.174 0.001 0.046-0.001 0.093-0.002 0.14zM30.529 10.922c0-0.191 0.044-0.378-0.159-0.47-0.081-0.038-0.166-0.037-0.251-0.055-0.053-0.012-0.103-0.035-0.159-0.026-0.092 0.015-0.21 0.11-0.285 0.159-0.097 0.063-0.202 0.112-0.298 0.175-0.044 0.029-0.071 0.071-0.119 0.097-0.047 0.025-0.106 0.029-0.152 0.051-0.1 0.046-0.154 0.145-0.259 0.182s-0.22 0.056-0.322 0.104c-0.086 0.041-0.145 0.112-0.241 0.13-0.074 0.014-0.157 0.025-0.233 0.035-0.198 0.029-0.389 0.071-0.588 0.001-0.076-0.026-0.137-0.093-0.212-0.112-0.086-0.021-0.127 0.012-0.209-0.035-0.091-0.051-0.174-0.134-0.255-0.199-0.083-0.067-0.196-0.152-0.259-0.236-0.088-0.119-0.127-0.341-0.149-0.485-0.032-0.211-0.022-0.455 0.090-0.636 0.123-0.2 0.28-0.379 0.429-0.56 0.094-0.115 0.203-0.211 0.283-0.336 0.092-0.142 0.179-0.285 0.273-0.426 0.159-0.236 0.258-0.502 0.436-0.722 0.103-0.127 0.142-0.298 0.225-0.437 0.031-0.053 0.059-0.105 0.087-0.157-0.065-0.077-0.13-0.153-0.198-0.225-0.107-0.015-0.215-0.034-0.33-0.062-0.002-0.001-0.006-0.001-0.009-0.002-0.051 0.074-0.1 0.15-0.154 0.222-0.27 0.363-0.588 0.699-0.836 1.078-0.093 0.141-0.196 0.266-0.3 0.398-0.056 0.074-0.093 0.145-0.14 0.222-0.055 0.092-0.123 0.128-0.196 0.198-0.101 0.097-0.151 0.224-0.262 0.315-0.093 0.076-0.158 0.166-0.241 0.251-0.075 0.077-0.171 0.132-0.26 0.192-0.135 0.092-0.256 0.197-0.387 0.292-0.15 0.108-0.294 0.226-0.444 0.336-0.181 0.131-0.405 0.182-0.611 0.263-0.108 0.042-0.228 0.047-0.343 0.065-0.053 0.009-0.124 0.021-0.178 0.012-0.115-0.019-0.196-0.113-0.306-0.147-0.141-0.043-0.216-0.073-0.28-0.22-0.085-0.196-0.195-0.411-0.206-0.629-0.006-0.113-0.001-0.221 0.037-0.327 0.041-0.112 0.107-0.174 0.171-0.267s0.106-0.2 0.169-0.294c0.053-0.080 0.112-0.118 0.178-0.184 0.142-0.142 0.28-0.32 0.329-0.517 0.023-0.093 0.024-0.182 0-0.277-0.037-0.143-0.074-0.114-0.199-0.131-0.076-0.012-0.149-0.062-0.226-0.034-0.063 0.022-0.135 0.117-0.181 0.166-0.141 0.15-0.194 0.372-0.335 0.525-0.132 0.145-0.2 0.338-0.335 0.477-0.081 0.083-0.172 0.134-0.242 0.23-0.038 0.053-0.074 0.116-0.134 0.149-0.067 0.036-0.169 0.029-0.245 0.057-0.071 0.026-0.241 0.075-0.314 0.033-0.068-0.038-0.138-0.159-0.186-0.219-0.167-0.21-0.242-0.44-0.244-0.708-0.001-0.273 0.063-0.617-0.070-0.867-0.057-0.108-0.173-0.188-0.269-0.26-0.102-0.077-0.207-0.083-0.327-0.12-0.149-0.047-0.235-0.102-0.232-0.268 0.007-0.281-0.052-0.553-0.039-0.838 0.006-0.121 0.076-0.219 0.080-0.341 0.006-0.151 0.008-0.314-0.010-0.463-0.015-0.122-0.038-0.263-0.112-0.365-0.061-0.084-0.152-0.22-0.263-0.228-0.133-0.009-0.192 0.127-0.246 0.222-0.067 0.119-0.122 0.232-0.15 0.367-0.051 0.241-0.126 0.49-0.12 0.737 0.005 0.177-0.072 0.337-0.075 0.512-0.001 0.074 0.009 0.127-0.035 0.189-0.057 0.082-0.133 0.161-0.226 0.198-0.136 0.054-0.283-0.008-0.374-0.119-0.069-0.084-0.104-0.206-0.15-0.303-0.073-0.152-0.13-0.311-0.188-0.47-0.045-0.125-0.112-0.242-0.151-0.371-0.046-0.148-0.061-0.296-0.113-0.443-0.046-0.129-0.038-0.267-0.072-0.399-0.041-0.162-0.068-0.313-0.131-0.469-0.113-0.279-0.257-0.543-0.474-0.759-0.125-0.125-0.274-0.201-0.36-0.36-0.072-0.132-0.147-0.275-0.195-0.418-0.082-0.249-0.266-0.448-0.352-0.692-0.049-0.137-0.122-0.197-0.203-0.324-0.077-0.122-0.083-0.22-0.081-0.359v-0.006c-0.677-0.294-1.699-0.276-2.071 0.296-0.012 0.131-0.030 0.263-0.051 0.389-0.012 0.070-0.001 0.133-0.006 0.202-0.008 0.102-0.050 0.202-0.069 0.301-0.013 0.072-0.006 0.141-0.007 0.215-0.001 0.071-0.028 0.12-0.040 0.188-0.018 0.103 0.001 0.231 0.001 0.336v0.882c-0.218 0.139-0.44 0.278-0.682 0.361-0.157 0.054-0.327 0.093-0.478 0.158-0.158 0.069-0.315 0.13-0.477 0.189-0.154 0.056-0.309 0.112-0.458 0.18-0.176 0.079-0.336 0.055-0.523 0.082-0.292 0.043-0.6 0.019-0.895 0.019-0.275 0-0.55-0.003-0.825 0-0.122 0.001-0.235-0.035-0.356-0.039-0.054-0.001-0.104 0.007-0.158-0.006-0.038-0.009-0.072-0.025-0.107-0.040-0.080-0.093-0.161-0.187-0.239-0.282-0.11-0.134-0.239-0.198-0.374-0.297-0.061-0.045-0.106-0.1-0.172-0.137s-0.13-0.043-0.202-0.063c-0.073-0.020-0.167-0.081-0.246-0.077-0.274 0.013-0.056 0.452-0.017 0.566 0.068 0.195 0.129 0.346 0.295 0.481 0.092 0.074 0.2 0.108 0.284 0.191 0.070 0.069 0.212 0.193 0.259 0.277 0.036 0.066 0.042 0.152-0.018 0.211-0.072 0.070-0.23 0.097-0.323 0.072-0.184-0.048-0.317-0.309-0.442-0.433-0.167-0.167-0.339-0.314-0.518-0.468-0.142-0.123-0.277-0.322-0.473-0.366-0.070-0.015-0.385-0.096-0.441-0.029-0.048 0.056 0.010 0.222 0.026 0.277 0.090 0.293 0.232 0.574 0.394 0.833 0.156 0.249 0.38 0.46 0.55 0.701 0.159 0.226 0.302 0.461 0.446 0.698 0.162 0.267 0.285 0.539 0.403 0.829 0.129 0.315 0.26 0.614 0.345 0.944 0.051 0.199 0.142 0.386 0.18 0.588 0.026 0.143 0.049 0.287 0.074 0.43 0.019 0.113 0.006 0.23 0.008 0.344 0.003 0.16-0.038 0.264-0.113 0.404-0.084 0.155-0.173 0.241-0.344 0.29-0.273 0.079-0.534-0.067-0.781-0.152-0.128-0.045-0.248-0.101-0.379-0.139-0.179-0.052-0.37-0.088-0.537-0.174-0.288-0.147-0.538-0.362-0.832-0.498-0.141-0.065-0.217-0.15-0.376-0.189-0.209-0.049-0.397-0.095-0.569-0.231-0.159-0.126-0.33-0.262-0.471-0.408-0.106-0.11-0.187-0.222-0.311-0.313-0.162-0.12-0.34-0.219-0.517-0.314-0.090-0.048-0.233-0.122-0.339-0.076-0.146 0.065-0.144 0.332-0.077 0.442 0.076 0.123 0.227 0.21 0.333 0.302 0.154 0.134 0.25 0.286 0.377 0.443 0.166 0.204 0.382 0.362 0.551 0.564 0.192 0.227 0.384 0.441 0.588 0.657 0.133 0.142 0.278 0.313 0.394 0.47 0.094 0.128 0.121 0.235 0.115 0.39-0.005 0.126-0.020 0.212-0.153 0.244-0.19 0.044-0.383-0.056-0.537-0.149-0.21-0.125-0.414-0.211-0.638-0.302-0.189-0.077-0.344-0.198-0.528-0.28-0.151-0.069-0.307-0.084-0.468-0.115-0.204-0.041-0.398-0.127-0.603-0.159-0.103-0.017-0.174-0.034-0.22 0.070-0.096 0.211 0.033 0.356 0.112 0.544 0.074 0.176 0.090 0.363 0.19 0.527 0.048 0.078 0.111 0.144 0.163 0.218 0.071 0.1 0.128 0.206 0.195 0.308 0.152 0.231 0.392 0.39 0.569 0.601 0.209 0.247 0.441 0.439 0.682 0.654 0.003 0.002 0.005 0.006 0.009 0.008 0.086 0.195 0.171 0.393 0.232 0.596 0.064 0.219 0.161 0.414 0.248 0.625 0.093 0.226 0.178 0.496 0.185 0.742 0.011 0.388 0.11 0.762 0.16 1.146 0.030 0.235 0.054 0.471 0.079 0.707-0.032 0.352-0.070 0.705-0.124 1.055-0.052 0.336-0.315 0.972-0.219 1.406-0.107 0.023-0.216 0.044-0.323 0.055-0.101 0.010-0.195 0.003-0.295 0.006-0.145 0.002-0.255 0.041-0.394 0.078-0.229 0.062-0.527 0.010-0.643 0.272-0.037 0.085-0.051 0.169-0.104 0.248-0.021 0.032-0.057 0.058-0.076 0.091-0.018 0.031-0.040 0.152-0.039 0.167 0.002 0.073 0.015 0.051 0.048 0.104 0.032 0.050 0.062 0.142 0.1 0.186 0.046 0.053 0.115 0.056 0.172 0.085 0.079 0.039 0.125 0.12 0.195 0.168 0.085 0.058 0.159 0.051 0.257 0.069 0.203 0.034 0.309 0.22 0.501 0.271 0.187 0.049 0.388 0.020 0.579 0.056 0.174 0.034 0.344 0.017 0.516 0.043 0.098 0.014 0.185 0.055 0.281 0.079 0.125 0.033 0.257 0.021 0.379 0.069 0.144 0.056 0.25 0.167 0.389 0.226 0.095 0.040 0.246 0.071 0.312 0.155 0.085 0.108 0.1 0.226 0.079 0.359-0.024 0.16-0.117 0.418-0.215 0.545-0.073 0.096-0.176 0.144-0.277 0.207-0.092 0.056-0.165 0.128-0.24 0.205-0.122 0.126-0.292 0.25-0.371 0.41-0.048 0.097-0.076 0.175-0.013 0.277 0.085 0.139 0.203 0.269 0.3 0.4 0.2 0.269 0.405 0.356 0.722 0.411 0.301 0.053 0.603 0.099 0.905 0.147 0.248 0.040 0.535 0.060 0.777 0.132 0.184 0.055 0.335 0.198 0.43 0.369 0.139 0.249 0.017 0.515-0.184 0.692-0.174 0.152-0.381 0.32-0.582 0.434-0.134 0.075-0.307 0.108-0.428 0.191-0.181 0.123-0.311 0.43-0.337 0.634-0.028 0.212 0.085 0.405 0.226 0.556 0.098 0.103 0.186 0.115 0.309 0.151 0.159 0.046 0.285 0.107 0.437 0.17 0.359 0.152 0.828 0.181 1.218 0.205 0.123 0.008 0.241-0.014 0.361-0.038 0.164-0.033 0.324-0.033 0.49-0.041 0.361-0.019 0.689-0.202 1.041-0.266 0.387-0.071 0.787-0.019 1.177-0.089 0.419-0.075 0.841-0.191 1.248-0.316 0.147-0.045 0.293-0.105 0.442-0.144 0.261-0.067 0.573-0.056 0.839-0.071 0.322-0.018 0.655-0.007 0.97 0.072 0.209 0.053 0.378 0.181 0.555 0.293 0.227 0.145 0.466 0.283 0.688 0.436 0.366 0.251 0.617 0.617 0.977 0.871 0.115 0.082 0.239 0.152 0.351 0.238 0.215 0.166 0.387 0.389 0.588 0.57 0.121 0.109 0.244 0.218 0.369 0.328 0.191 0.057 0.384 0.101 0.585 0.118 0.411 0.034 1-0.001 1.039-0.431 0.025-0.281-0.429-0.82-0.551-1.061-0.301-0.596-0.539-1.243-0.277-1.898 0.14-0.347 0.442-0.559 0.825-0.469 0.767 0.182 1.334 0.626 1.986 1.044 0.367 0.236 0.735 0.423 1.178 0.466 0.149 0.015 0.374 0.022 0.519-0.014 0.761-0.189 0.302-0.174 0.337-0.552 0.055-0.575 0.002-0.988 0.579-1.344 0.463-0.287 1.025-0.229 1.539-0.302 1.414-0.203 0.345-1.503-0.103-2.184-0.296-0.449-0.64-1.045-0.374-1.588 0.048-0.097 0.106-0.174 0.17-0.243 0.029-0.251 0.051-0.52 0.012-0.762-0.085-0.1-0.175-0.196-0.266-0.289-0.181-0.185-0.249-0.26-0.396-0.346-0.098-0.057-0.169-0.127-0.221-0.203-0.092-0.024-0.185-0.044-0.276-0.072-0.005-0.051-0.006-0.102-0.006-0.152 0.002-0.277 0.001-0.553 0.001-0.83 0-0.137-0.013-0.282 0.003-0.418 0.015-0.128 0.066-0.249 0.099-0.374 0.039-0.141 0.095-0.277 0.13-0.418 0.025-0.1 0.075-0.196 0.097-0.297 0.019-0.085 0.012-0.144 0.042-0.228 0.058-0.163 0.1-0.329 0.15-0.494 0.051-0.173 0.122-0.336 0.173-0.508 0.061-0.209 0.133-0.421 0.202-0.627 0.063-0.191 0.134-0.391 0.226-0.57 0.158-0.308 0.285-0.63 0.448-0.936 0.079-0.146 0.142-0.301 0.223-0.448 0.028-0.051 0.068-0.1 0.106-0.148 0.084-0.050 0.164-0.108 0.254-0.147 0.137-0.059 0.258-0.066 0.387-0.151 0.132-0.086 0.29-0.14 0.416-0.233 0.058-0.043 0.104-0.102 0.155-0.152 0.093-0.093 0.19-0.154 0.296-0.228 0.108-0.077 0.22-0.141 0.333-0.211 0.124-0.078 0.209-0.156 0.315-0.252 0.226-0.201 0.436-0.425 0.651-0.637 0.15-0.149 0.258-0.369 0.316-0.568 0.071-0.246 0.026-0.541 0.026-0.796z"></path>
<path d="M16.885 17.426c-0.078-0.106-0.142-0.172-0.157-0.307-0.017-0.152-0.057-0.244-0.077-0.387-0.010-0.080 0.054-0.329-0.012-0.378-0.144-0.108-0.19 0.202-0.235 0.28-0.056 0.096-0.145 0.307-0.277 0.239-0.045-0.024-0.085-0.257-0.092-0.293-0.022-0.103-0.018-0.422-0.236-0.303-0.106 0.058-0.056 0.134-0.073 0.224-0.018 0.101-0.053 0.133-0.080 0.226-0.017 0.060 0.032 0.099-0.009 0.165-0.066 0.108-0.193 0.071-0.297 0.070-0.185-0.001-0.305-0.031-0.372-0.229-0.049-0.145 0.008-0.302-0.033-0.448-0.034-0.122-0.188-0.263-0.308-0.311-0.285-0.11-0.698-0.152-0.989-0.034-0.194 0.078-0.247 0.111-0.326 0.311-0.029 0.076-0.048 0.073-0.061 0.17-0.011 0.088 0.036 0.171-0.042 0.24 0.011-0.001 0.023-0.003 0.122-0.034 0.001 0.242-0.030 0.488-0.002 0.725 0.035 0.295 0.36 0.387 0.62 0.385 0.154-0.001 0.309-0.002 0.463-0.001 0.149 0.002 0.183-0.052 0.305-0.081 0.37-0.088 0.627 0.114 0.622 0.469-0.004 0.277 0.009 0.528-0.077 0.772-0.045 0.127-0.076 0.241-0.077 0.387-0.001 0.218-0.009 0.255 0.173 0.173 0.226-0.101 0.362-0.282 0.503-0.484 0.058-0.085 0.122-0.147 0.173-0.231 0.084-0.136 0.093-0.224 0.233-0.308 0.088-0.053 0.237-0.12 0.325-0.137 0.153-0.030 0.161 0.001 0.289 0.060 0.133 0.061 0.259 0.114 0.386 0.176 0.119 0.059 0.334 0.198 0.396 0.061 0.092-0.204-0.13-0.561-0.256-0.7-0.171-0.19-0.376-0.263-0.523-0.464z"></path>
<path d="M24.105 6.395c0.008-0.033 0.017-0.066 0.025-0.099 0.028-0.028 0.056-0.062 0.080-0.099 0.222-0.342 0.393-0.71 0.525-1.096 0.122-0.36-0.196-0.669-0.529-0.693-0.873-0.067-1.005 1.086-1.158 1.696-0.171 0.685 0.885 0.976 1.056 0.292z"></path>
<path d="M20.087 3.956c0.205-0.009 0.412-0.135 0.502-0.321 0.047-0.056 0.084-0.122 0.106-0.198 0.066-0.219 0.108-0.46 0.093-0.688-0.021-0.335-0.27-0.674-0.637-0.657-0.386 0.017-0.602 0.325-0.625 0.685-0.013 0.209-0.001 0.422 0.012 0.631 0.019 0.285 0.239 0.562 0.548 0.548z"></path>
<path d="M29.207 4.256c0.019-0.048 0.036-0.096 0.052-0.144 0.001-0.001 0.002-0.001 0.003-0.001 0.018-0.017 0.031-0.035 0.046-0.053 0.012-0.002 0.021-0.006 0.030-0.012-0.034 0.076-0.078 0.146-0.131 0.211zM28.997 3.947c0.023 0.018 0.051 0.024 0.082 0.020-0.033 0.11-0.072 0.219-0.119 0.326 0-0.116 0.012-0.232 0.037-0.346zM28.822 4.668c0.026 0.049 0.093 0.077 0.154 0.048 0.3-0.14 0.519-0.4 0.616-0.716 0.077-0.25 0.102-0.668-0.093-0.876-0.232-0.248-0.473 0.173-0.561 0.345-0.181 0.352-0.23 0.736-0.174 1.125 0.006 0.041 0.029 0.063 0.057 0.073z"></path>
<path d="M4.488 6.691l0.648 0.537c0.055 0.060 0.107 0.122 0.159 0.184-0.031 0.159 0.024 0.336 0.196 0.458 0.055 0.038 0.108 0.077 0.163 0.114 0.048 0.033 0.096 0.051 0.144 0.061 0.034 0.084 0.067 0.167 0.097 0.252 0.097 0.266 0.344 0.345 0.547 0.287 0.008 0.015 0.017 0.030 0.025 0.046 0.064 0.125 0.254 0.015 0.189-0.111l-0.002-0.006c0.022-0.024 0.033-0.056 0.022-0.091 0.065-0.091 0.097-0.212 0.065-0.359-0.032-0.145-0.087-0.275-0.152-0.399-0.164-0.407-0.35-0.805-0.566-1.188-0.244-0.433-0.547-1.070-1.032-1.275-0.196-0.084-0.419-0.081-0.61-0.005-0.273-0.122-0.531-0.071-0.749 0.255-0.381 0.572 0.403 0.974 0.855 1.239z"></path>
<path d="M28.71 23.325c0.001-0.002 0.001-0.005 0.001-0.007 0.014 0.014-0.005 0.033-0.001 0.007zM29.067 22.517c-0.333-0.174-0.744-0.146-1.055-0.359-0.077-0.052-0.152-0.073-0.223-0.074-0.159-0.060-0.36-0.013-0.477 0.1-0.183 0.18-0.148 0.437 0 0.62 0.279 0.344 0.588 0.692 0.992 0.892 0.369 0.181 0.951 0.307 1.204-0.121 0.241-0.41-0.075-0.867-0.442-1.058z"></path>
</svg>
