<!-- Generated by IcoMoon.io -->
<svg version="1.1" xmlns="http://www.w3.org/2000/svg" width="32" height="32" viewBox="0 0 32 32">
<title>blood_from_stones</title>
<path d="M8.087 28.485c-0.169-0.37-0.172-0.68-0.011-1.102 0.338-0.885 0.525-4.284 0.272-4.95-0.186-0.49-0.322-0.563-0.959-0.518-0.491 0.035-0.782 0.177-0.859 0.42-0.193 0.606-0.676 0.424-1.829-0.688-0.602-0.58-1.33-1.108-1.619-1.173-1.629-0.367-1.843-0.503-1.986-1.265-0.106-0.563-0.048-0.848 0.233-1.159 0.354-0.392 0.355-0.462 0.013-1.424-0.198-0.557-0.359-1.451-0.359-1.989 0-0.963 0.014-0.982 0.997-1.416 0.548-0.242 1.419-0.596 1.934-0.787 1.102-0.408 1.727-1.312 1.893-2.737 0.090-0.776 0.233-1.024 0.823-1.42 0.393-0.264 1.101-0.576 1.574-0.692 2.331-0.574 2.46-0.636 2.69-1.294 0.168-0.482 0.489-0.759 1.297-1.117 0.59-0.262 1.262-0.686 1.492-0.942 0.636-0.706 1.436-1.045 2.809-1.188 1.42-0.148 1.648 0.006 2.79 1.893l0.619 1.023 0.985-0.131c3.951-0.526 4.021-0.512 4.887 1.023 0.355 0.63 1.106 1.53 1.668 2 1.287 1.078 2.302 3.007 2.307 4.385 0.004 1.314 0.546 3.513 1.078 4.373 0.341 0.551 0.408 0.898 0.302 1.558-0.292 1.829-1.3 2.78-2.813 2.654-0.617-0.051-0.86 0.042-1.195 0.456-0.355 0.44-0.42 0.836-0.422 2.563-0.002 2.123-0.165 2.582-0.868 2.441-0.327-0.065-0.39-0.279-0.392-1.332-0.004-2.002-0.297-3.217-0.914-3.789-0.99-0.918-2.106-0.496-2.121 0.803-0.007 0.628-0.424 0.771-0.828 0.285-0.133-0.161-0.547-0.412-0.918-0.559s-0.864-0.43-1.095-0.63c-0.786-0.68-1.616-0.696-2.457-0.048-0.417 0.322-0.842 0.868-0.943 1.214-0.246 0.839-1.091 0.883-1.478 0.076-0.188-0.391-0.49-0.596-1.031-0.698-0.877-0.165-1.033-0.013-1.239 1.207-0.113 0.67-0.211 0.793-0.588 0.739-0.333-0.047-0.525-0.312-0.732-1.009-0.154-0.52-0.323-1.080-0.376-1.246-0.074-0.232-0.217-0.181-0.617 0.22-0.743 0.743-0.859 2.18-0.338 4.176 0.492 1.885 0.362 2.309-0.711 2.309-0.573 0-0.783-0.112-0.967-0.515zM8.75 20.583c0.578-0.374 1.050-0.766 1.050-0.87 0-0.283-1.066-2.049-1.238-2.049-0.081 0-0.251 0.103-0.378 0.23s-0.405 0.184-0.619 0.129c-0.337-0.087-0.329-0.104 0.057-0.125 0.853-0.047 0.968-0.527 0.284-1.183-0.499-0.478-0.626-0.777-0.626-1.478 0-0.729 0.238-1.243 1.4-3.023 1.12-1.716 1.34-2.182 1.102-2.333-0.242-0.153-0.23-0.189 0.066-0.192 0.207-0.002 0.405-0.206 0.459-0.476 0.053-0.26 0.151-0.734 0.219-1.053 0.122-0.578 0.119-0.58-0.774-0.443-1.364 0.209-3.078 0.903-3.312 1.34-0.115 0.215-0.209 0.637-0.209 0.938s-0.189 0.917-0.42 1.37c-0.231 0.453-0.42 0.874-0.42 0.936s0.543 0.127 1.207 0.144c1.036 0.027 0.949 0.052-0.613 0.177-1.327 0.107-2.129 0.297-2.96 0.704-0.627 0.307-1.249 0.558-1.381 0.558-0.267 0-0.343 1.718-0.088 1.973 0.085 0.085 0.263 0.522 0.396 0.973 0.193 0.653 0.184 0.894-0.042 1.193-0.342 0.451-0.386 1.45-0.071 1.644 0.124 0.077 0.826 0.214 1.559 0.305 0.96 0.119 1.587 0.343 2.241 0.798 1.109 0.773 1.682 0.738 3.112-0.188zM3.071 17.506l-0.723-0.787 0.68 0.614c0.374 0.338 0.719 0.574 0.766 0.524s0.006-0.587-0.091-1.196c-0.12-0.748-0.386-1.359-0.825-1.889-0.622-0.752-0.63-0.786-0.201-0.853 0.538-0.084 2.422 0.507 3.020 0.947 0.423 0.311 0.422 0.314-0.053 0.174-0.766-0.225-1.092 0.22-1.092 1.493 0 0.759 0.086 1.131 0.262 1.136 0.238 0.007-0.63 0.597-0.904 0.615-0.064 0.004-0.442-0.347-0.84-0.779zM6.074 17.729c0.202-0.053 0.533-0.053 0.735 0s0.037 0.096-0.367 0.096c-0.404 0-0.569-0.043-0.367-0.096zM6.231 15.169c0-0.116 0.094-0.268 0.21-0.34s0.21-0.035 0.21 0.080c0 0.116-0.094 0.268-0.21 0.34s-0.21 0.035-0.21-0.080zM8.597 9.54c0.204-0.053 0.488-0.050 0.63 0.008s-0.025 0.101-0.371 0.097c-0.346-0.004-0.463-0.051-0.258-0.105zM7.439 9.337c0.144-0.058 0.38-0.058 0.525 0s0.026 0.106-0.262 0.106c-0.289 0-0.407-0.048-0.262-0.106zM22.149 20.63c0.041-0.433 0.387-1.112 0.892-1.751 0.454-0.574 0.825-1.129 0.825-1.234s0.094-0.191 0.21-0.191c0.116 0 0.21 0.187 0.21 0.416s0.253 1.032 0.562 1.784l0.562 1.369h0.895c0.492 0 0.963-0.111 1.047-0.246 0.101-0.163 0.209-0.092 0.321 0.21 0.309 0.834 1.936 0.476 2.537-0.559 0.543-0.934 0.668-1.903 0.297-2.313-0.533-0.589-1.177-2.978-1.18-4.376-0.002-0.965-0.132-1.545-0.504-2.244-0.82-1.542-1.375-2.22-1.711-2.091-0.188 0.072-0.307-0.008-0.307-0.207 0-0.179-0.175-0.449-0.39-0.6s-0.589-0.666-0.833-1.145c-0.622-1.222-1.008-1.544-1.849-1.544-0.904 0-2.597 0.412-2.597 0.632 0 0.089 0.235 0.221 0.523 0.294 0.352 0.088 0.69 0.461 1.033 1.138 0.736 1.453 0.997 1.615 1.588 0.986 0.462-0.491 0.468-0.538 0.134-1.047-0.192-0.293-0.302-0.533-0.244-0.533s0.262 0.24 0.455 0.534c0.337 0.515 0.33 0.555-0.204 1.113l-0.554 0.578 0.419 0.821c0.23 0.452 0.419 0.967 0.42 1.144s0.284 0.748 0.629 1.268c0.345 0.52 0.619 1.181 0.607 1.47-0.019 0.48-0.034 0.471-0.173-0.105-0.275-1.136-1.064-2.065-1.064-1.252 0 0.177-0.155 0.559-0.345 0.849-0.332 0.507-0.323 0.552 0.262 1.2l0.608 0.673-1.361-1.229-0.714 0.825c-0.446 0.515-0.629 0.878-0.488 0.966 0.124 0.078-0.094 0.172-0.485 0.21-0.946 0.091-1.412 0.91-1.664 2.921-0.224 1.787-0.068 2.136 0.915 2.040 0.567-0.055 0.656-0.151 0.715-0.771zM27.776 19.973c0.070-0.289 0.351-0.765 0.625-1.059 0.477-0.51 0.484-0.557 0.148-1.050l-0.351-0.516 0.458 0.4c0.571 0.499 0.582 0.883 0.035 1.176-0.233 0.125-0.562 0.529-0.733 0.9-0.227 0.494-0.276 0.534-0.183 0.148zM27.374 16.272c-0.072-0.072-0.075-0.858-0.007-1.746 0.080-1.041 0.039-1.773-0.115-2.062-0.306-0.571-0.487-2.309-0.256-2.452 0.097-0.060 0.381 0.454 0.632 1.141s0.606 1.4 0.79 1.584c0.23 0.23 0.267 0.402 0.118 0.551-0.128 0.128-0.17 0.732-0.102 1.477 0.086 0.947 0.041 1.306-0.179 1.446-0.347 0.22-0.697 0.244-0.88 0.061zM23.323 21.029c0.492-0.187 0.53-0.294 0.486-1.353l-0.048-1.15-0.682 0.66c-0.499 0.482-0.682 0.846-0.682 1.353 0 0.747 0.105 0.803 0.926 0.491zM17.935 19.735c-0.828-0.542-1-0.764-1.012-1.31-0.008-0.362-0.096-0.846-0.195-1.077-0.137-0.32-0.183-0.194-0.192 0.525-0.006 0.52 0.058 1.046 0.143 1.171 0.216 0.316 1.781 1.349 2.040 1.346 0.118-0.001-0.235-0.296-0.783-0.655zM11.147 17.883c0.329-0.838 0.723-1.502 0.925-1.559 0.194-0.055 1.277-0.307 2.407-0.562s2.011-0.506 1.958-0.559c-0.053-0.053-0.998 0.112-2.101 0.367s-2.137 0.413-2.299 0.35c-0.173-0.066-0.352-0.573-0.435-1.232-0.118-0.937-0.249-1.195-0.802-1.585-0.363-0.257-0.712-0.415-0.775-0.352s0.026 0.196 0.198 0.294c0.901 0.517 1.050 0.771 1.176 1.993 0.109 1.063 0.044 1.47-0.419 2.608-0.522 1.282-0.638 1.696-0.477 1.696 0.040 0 0.33-0.657 0.645-1.46zM20.537 13.98l-0.42-0.534 1.506-4.199-0.742-0.777c-0.408-0.428-0.794-0.919-0.856-1.092-0.082-0.228-0.118-0.201-0.13 0.096-0.009 0.226 0.309 0.746 0.707 1.155l0.724 0.744-0.671 1.833c-0.369 1.008-0.751 1.835-0.849 1.837s-0.979-0.524-1.959-1.169-1.821-1.133-1.87-1.084c-0.049 0.049 0.806 0.67 1.9 1.381s2.144 1.529 2.334 1.819c0.19 0.29 0.436 0.527 0.546 0.527s0.012-0.241-0.219-0.534zM15.058 8.081c0.462-0.306 0.798-0.597 0.747-0.649s-0.445 0.147-0.876 0.439c-0.705 0.479-0.838 0.504-1.328 0.252-0.904-0.465-2.12-0.942-2.12-0.832 0 0.086 2.508 1.344 2.681 1.345 0.031 0 0.435-0.25 0.896-0.555z"></path>
</svg>
