<!-- Generated by IcoMoon.io -->
<svg version="1.1" xmlns="http://www.w3.org/2000/svg" width="30" height="32" viewBox="0 0 30 32">
<title>blood_on_the_altar</title>
<path d="M26.194 16.046c-0.045 1.211-0.196 2.699-0.675 3.835-0.576 1.387-1.453 2.972-2.569 3.956-0.858 0.756-1.408 1.846-2.28 2.542-0.798 0.635-1.645 1.363-2.593 1.731-1.156 0.439-2.236 0.681-3.491 0.555-1.14-0.116-2.447-0.253-3.541-0.571-0.47-0.141-1.005-0.206-1.444-0.429-0.535-0.272-0.903-0.741-1.337-1.16-0.489-0.464-1.019-0.913-1.543-1.357-0.434-0.373-0.979-0.611-1.373-0.998-0.827-0.812-0.821-2.276-1.301-3.31-0.42-0.877-0.505-1.514-0.505-2.482 0-0.484 0.005-0.969 0-1.453-0.026-1.22-0.257-2.311 0.278-3.43 0.53-1.090 1.181-2.109 1.63-3.224 0.443-1.095 1.054-1.988 1.74-2.906 0.222-0.243 0.465-0.408 0.656-0.58 1.231-1.095 3.033-1.913 4.817-1.988 1.085-0.051 2.18 0 3.25 0.051 1.736 0.085 3.43 0.797 4.878 1.755 2.104 1.392 4.557 3.017 5.227 5.585 0.354 1.368 0.238 2.472 0.177 3.88zM27.838 14.387c0-0.611 0.031-1.064-0.207-1.609-0.464-1.080-0.67-2.179-1.029-3.29-0.226-0.721-0.292-0.595-0.797-0.863-0.741-0.403-1.458-1.075-2.134-1.599-0.474-0.363-1.014-0.681-1.529-0.989-0.601-0.363-1.049-0.792-1.604-1.22-1.024-0.787-3.017-1.503-4.359-1.483-1.175 0.018-2.321 0.206-3.517 0.206-0.821 0-1.623-0.122-2.361 0.231-0.484 0.238-0.872 0.55-1.321 0.843-0.595 0.388-1.326 0.545-1.821 1.085-0.076 0.085-0.137 0.221 0.030 0.221-1.014 0.222-2.26 2.265-2.8 2.947-0.424 0.53-0.509 0.892-0.731 1.488-0.267 0.706-0.672 1.448-0.994 2.144-0.297 0.635-0.787 1.231-1.049 1.862-0.167 0.393-0.161 1.014-0.182 1.432-0.071 1.71 0.566 3.324 1 4.975 0.382 1.457 0.65 2.854 1.554 4.101 0.384 0.52 1.125 1.186 1.7 1.534 0.606 0.368 1.019 0.767 1.554 1.291 0.54 0.54 1.1 1.014 1.807 1.326 0.604 0.278 1.271 0.333 1.896 0.51 0.323 0.096 0.601 0.186 0.944 0.212 1.196 0.101 2.774 0.792 3.93 0.504 0.863-0.212 1.71-0.625 2.583-0.868 0.585-0.161 1.236-0.221 1.76-0.484 0.217-0.11 0.418-0.267 0.651-0.382 0.384-0.198 0.833-0.267 1.175-0.545 0.217-0.182 0.384-0.465 0.621-0.656 0.514-0.439 1.019-0.842 1.382-1.453 0.293-0.479 0.408-1.009 0.767-1.428 0.479-0.559 1.125-0.973 1.483-1.634 0.792-1.479 1.76-3.224 1.857-4.954 0.065-1.201-0.258-2.271-0.258-3.456z"></path>
<path d="M15.679 23.922c-0.125 0.479-0.059 1.064-0.176 1.554-0.087 0.343-0.207 0.852-0.52 0.963-0.171 0.061-1.014-0.191-1.13-0.328-0.479-0.535-0.358-4.359 0.056-5.034 0.187-0.465 0.732-0.752 1.231-0.752 0.994-0.004 0.798 1.654 0.823 2.271 0.020 0.681-0.13 0.752-0.283 1.326zM16.78 21.783c-0.146-1.286-0.201-1.609-1.337-1.857-0.424-0.090-2.406-0.842-2.342 0.682-0.167 2.007-0.63 3.894-0.217 5.897 0.722 0.201 1.979 1.418 2.861 0.883 0.515-0.309 0.575-1.776 0.741-2.463 0.238-0.983 0.409-2.118 0.293-3.142z"></path>
<path d="M15.67 18.563c-0.041 0.42 0.156 0.889 0.125 1.317-0.024 0.297-0.056 0.747-0.389 0.913-0.191 0.090-1.215 0.076-1.382-0.004-0.665-0.333-1.337-3.506-0.998-4.157 0.161-0.595 0.443-0.493 0.696-0.641 0.156-0.085 0.121-0.363 0.337-0.387 0.273-0.037 0.979 0.307 1.135 0.458 0.314 0.318 0.384 0.908 0.52 1.347 0.172 0.55 0.014 0.651-0.045 1.155zM16.491 16.553c-0.443-1.024-0.575-1.276-1.942-1.217-0.509 0.022-2.956-0.141-2.552 1.1 0.232 1.691 0.090 3.345 0.998 4.904 0.878-0.011 2.583 0.701 3.491 0.066 0.52-0.378 0.283-1.6 0.333-2.205 0.061-0.863 0.026-1.831-0.328-2.649z"></path>
<path d="M15.186 4.216c-0.036 0.424 0.171 0.894 0.151 1.312-0.015 0.302-0.036 0.747-0.363 0.918-0.192 0.090-1.217 0.085-1.388 0.004-0.67-0.328-1.417-3.482-1.094-4.138 0.151-0.59 0.429-0.488 0.686-0.641 0.151-0.090 0.106-0.363 0.328-0.387 0.273-0.041 0.984 0.297 1.14 0.448 0.323 0.313 0.413 0.903 0.554 1.337 0.187 0.545 0.026 0.646-0.014 1.146zM15.957 2.206c-0.474-1.014-0.606-1.266-1.967-1.195-0.51 0.026-2.961-0.116-2.538 1.115 0.278 1.685 0.177 3.335 1.115 4.878 0.883-0.015 2.609 0.682 3.496 0.037 0.515-0.373 0.248-1.59 0.278-2.196 0.050-0.863-0.010-1.831-0.384-2.639z"></path>
<path d="M15.17 9.307c-0.142 0.398-0.090 0.892-0.217 1.301-0.090 0.283-0.232 0.712-0.54 0.798-0.177 0.051-1.014-0.203-1.13-0.319-0.46-0.474-0.243-3.687 0.191-4.248 0.54-0.696 1.458-0.998 1.902-0.064 0.182 0.378 0.096 0.973 0.106 1.422 0.005 0.571-0.151 0.635-0.313 1.111zM16.32 7.54c-0.11-1.089-0.151-1.366-1.286-1.614-0.424-0.090-2.38-0.797-2.356 0.495-0.217 1.685-0.731 3.255-0.373 4.965 0.727 0.196 1.948 1.271 2.835 0.852 0.526-0.242 0.626-1.483 0.807-2.054 0.264-0.827 0.47-1.771 0.373-2.644z"></path>
<path d="M15.538 13.937c-0.141 0.404-0.061 0.904-0.191 1.307-0.092 0.288-0.232 0.712-0.59 0.797-0.208 0.041-1.201-0.212-1.347-0.337-0.566-0.479-0.47-3.708 0.019-4.263 0.293-0.535 0.545-0.368 0.823-0.455 0.172-0.045 0.201-0.323 0.424-0.292 0.273 0.029 0.878 0.524 0.989 0.706 0.226 0.382 0.161 0.978 0.191 1.432 0.031 0.57-0.141 0.63-0.318 1.104zM16.809 12.182c-0.191-1.095-0.252-1.368-1.599-1.635-0.5-0.101-2.84-0.832-2.745 0.465-0.172 1.689-0.691 3.259-0.186 4.984 0.858 0.198 2.351 1.292 3.375 0.883 0.606-0.238 0.656-1.474 0.847-2.054 0.267-0.823 0.46-1.771 0.307-2.644z"></path>
<path d="M16.099 28.922c-0.087 0.418 0.065 0.898-0.010 1.321-0.056 0.298-0.132 0.737-0.474 0.868-0.198 0.076-1.222-0.045-1.378-0.146-0.63-0.394-0.979-3.602-0.575-4.222 0.53-0.812 1.508-1.211 2.21-0.349 0.283 0.343 0.292 0.943 0.389 1.392 0.111 0.561-0.061 0.646-0.161 1.135zM17.108 27.010c-0.338-1.060-0.439-1.323-1.802-1.397-0.509-0.029-2.93-0.434-2.663 0.837 0.071 1.695-0.232 3.324 0.509 4.959 0.878 0.085 2.508 0.958 3.472 0.413 0.559-0.318 0.444-1.554 0.55-2.149 0.151-0.858 0.212-1.816-0.066-2.663z"></path>
</svg>
