<!-- Generated by IcoMoon.io -->
<svg version="1.1" xmlns="http://www.w3.org/2000/svg" width="37" height="32" viewBox="0 0 37 32">
<title>body_inverted1</title>
<path d="M18.46 30.541h-6.846c-0.119 0-0.238 0-0.387 0.030s-0.268 0-0.387-0.060c-0.030 0-0.060-0.030-0.119-0.060v-0.268c0.030-0.179 0.030-0.357 0.060-0.506 0-0.149 0.030-0.298 0.060-0.506 0.060-0.417 0.119-0.804 0.179-1.22s0.119-0.804 0.238-1.22c0.060-0.298 0.119-0.625 0.179-0.923s0.119-0.595 0.179-0.863c0.060-0.179 0.149-0.387 0.208-0.625s0.119-0.447 0.149-0.625c0.060-0.268 0.119-0.536 0.179-0.834s0.060-0.595 0.060-0.953c0.030-0.417 0.030-0.863 0.030-1.34s-0.030-0.923-0.089-1.34c-0.030-0.417-0.060-0.804-0.119-1.131s-0.089-0.655-0.149-0.953c-0.060-0.357-0.089-0.655-0.119-0.893s-0.060-0.476-0.119-0.685c-0.060-0.387-0.149-0.804-0.238-1.25s-0.208-0.863-0.327-1.22c-0.060-0.060-0.089-0.119-0.089-0.208s-0.030-0.208-0.089-0.327l-0.119-0.208h-0.149c0 0.060 0 0.089-0.030 0.119s-0.030 0.060-0.030 0.119c-0.060 0.179-0.089 0.357-0.149 0.476s-0.119 0.268-0.149 0.387c-0.298 0.476-0.595 1.012-0.863 1.637s-0.536 1.25-0.804 1.846c-0.179 0.327-0.387 0.685-0.595 1.042s-0.446 0.804-0.685 1.28c-0.119 0.179-0.238 0.387-0.387 0.566-0.119 0.179-0.268 0.387-0.387 0.625-0.179 0.327-0.387 0.625-0.625 0.863s-0.476 0.476-0.744 0.685l-0.744 0.744c-0.238 0.238-0.476 0.447-0.744 0.655-0.208 0.149-0.417 0.298-0.655 0.417-0.208 0.149-0.447 0.298-0.685 0.476-0.030 0.030-0.089 0.030-0.179 0.030-0.060 0-0.089-0.060-0.149-0.149l-0.030-0.060c-0.119-0.298-0.238-0.566-0.327-0.834s-0.208-0.566-0.268-0.923c-0.089-0.357-0.179-0.714-0.208-1.042-0.060-0.357-0.089-0.744-0.149-1.22v-0.060c0.030-0.060 0.030-0.089 0.060-0.119 0-0.030 0.030-0.089 0.089-0.119 0.179-0.149 0.327-0.268 0.476-0.417 0.149-0.119 0.327-0.268 0.476-0.387 0.060-0.060 0.119-0.119 0.179-0.208s0.119-0.179 0.179-0.238c0.089-0.119 0.179-0.208 0.268-0.298 0.089-0.060 0.149-0.149 0.238-0.238 0.089-0.119 0.179-0.208 0.238-0.298s0.119-0.179 0.208-0.298c0.119-0.179 0.238-0.447 0.387-0.744s0.268-0.566 0.387-0.774c0.179-0.387 0.387-0.804 0.595-1.25s0.387-0.863 0.595-1.22c0.149-0.387 0.298-0.744 0.447-1.072s0.298-0.625 0.447-0.893c0.119-0.208 0.208-0.447 0.298-0.714s0.149-0.506 0.208-0.744c0.089-0.357 0.208-0.744 0.327-1.161s0.298-0.804 0.476-1.131c0.238-0.447 0.476-0.863 0.685-1.22 0.179-0.238 0.328-0.447 0.506-0.595 0.506-0.536 1.072-0.863 1.726-1.012 0.387-0.149 0.804-0.208 1.28-0.179 0.268 0.030 0.506 0.030 0.744 0s0.476-0.060 0.744-0.119c0.566-0.030 1.012-0.119 1.369-0.298 0.208-0.089 0.447-0.238 0.685-0.387 0.238-0.179 0.417-0.387 0.566-0.655 0.060-0.089 0.089-0.179 0.119-0.268s0.059-0.179 0.059-0.298c0.060-0.417 0.119-0.863 0.119-1.31v-0.298c0-0.208 0.119-0.327 0.327-0.327h3.929c0.119 0 0.208 0.089 0.238 0.298v0.327c0.030 0.149 0.030 0.298 0.030 0.417 0 0.149 0 0.298 0.030 0.476 0 0.298 0.060 0.625 0.179 0.923 0.089 0.268 0.268 0.476 0.536 0.685 0.268 0.179 0.506 0.327 0.744 0.417 0.357 0.179 0.804 0.268 1.369 0.298 0.268 0.060 0.506 0.089 0.714 0.089s0.447 0.030 0.714 0.030c0.566-0.030 1.101 0.060 1.578 0.238 0.595 0.238 1.072 0.536 1.429 0.893 0.298 0.298 0.566 0.655 0.834 1.101 0.208 0.357 0.387 0.714 0.566 1.042 0.149 0.327 0.298 0.714 0.417 1.131 0.060 0.179 0.089 0.357 0.149 0.506s0.089 0.327 0.119 0.476c0.060 0.208 0.119 0.417 0.179 0.655 0.060 0.208 0.149 0.417 0.208 0.595 0.060 0.119 0.149 0.238 0.208 0.327 0.060 0.119 0.119 0.208 0.208 0.327 0.179 0.506 0.387 0.953 0.566 1.34s0.387 0.774 0.565 1.131c0.179 0.417 0.357 0.804 0.536 1.101s0.327 0.595 0.506 0.893c0.089 0.327 0.179 0.595 0.298 0.774 0.089 0.179 0.208 0.357 0.327 0.536 0.119 0.149 0.238 0.268 0.357 0.387s0.268 0.268 0.417 0.476c0.417 0.417 0.804 0.804 1.221 1.101 0.089 0.149 0.149 0.238 0.149 0.327-0.060 0.655-0.119 1.25-0.238 1.816s-0.268 1.101-0.447 1.667c-0.060 0.119-0.089 0.238-0.149 0.387s-0.119 0.268-0.208 0.387c-0.030 0.030-0.060 0.030-0.149 0.030l-0.208-0.119c-0.417-0.268-0.774-0.536-1.131-0.774s-0.714-0.566-1.042-0.893c-0.447-0.417-0.863-0.804-1.22-1.191s-0.685-0.863-0.982-1.459c-0.179-0.238-0.357-0.476-0.536-0.744s-0.327-0.595-0.506-1.012c-0.327-0.536-0.655-1.161-0.952-1.846s-0.625-1.369-0.953-2.054c-0.119-0.208-0.238-0.417-0.327-0.655-0.119-0.208-0.208-0.417-0.298-0.595s-0.149-0.357-0.179-0.566c-0.089-0.149-0.179-0.119-0.238 0.060-0.030 0.060-0.030 0.089-0.059 0.089 0 0-0.030 0.060-0.030 0.119-0.060 0.119-0.089 0.208-0.119 0.298s-0.060 0.149-0.060 0.238c-0.060 0.268-0.149 0.536-0.208 0.774-0.060 0.268-0.119 0.595-0.179 1.012l-0.179 0.804c-0.060 0.268-0.089 0.625-0.149 1.012-0.060 0.298-0.089 0.625-0.149 0.923s-0.089 0.685-0.119 1.131v0.298c0 0.089 0 0.179-0.030 0.298-0.060 0.327-0.060 0.714-0.060 1.101v1.101c0.030 0.327 0.060 0.655 0.089 1.012 0.030 0.327 0.089 0.625 0.208 0.893 0.149 0.595 0.268 1.161 0.417 1.727 0.119 0.566 0.238 1.131 0.327 1.697 0.119 0.417 0.208 0.834 0.268 1.28s0.119 0.863 0.149 1.31c0.030 0.119 0.030 0.238 0.060 0.357s0.030 0.238 0.030 0.387c0 0.119-0.060 0.179-0.149 0.179h-3.989z"></path>
</svg>
