<!-- Generated by IcoMoon.io -->
<svg version="1.1" xmlns="http://www.w3.org/2000/svg" width="33" height="32" viewBox="0 0 33 32">
<title>bombay</title>
<path d="M1.422 28.963c-0.060-0.102-0.057 0.227-0.057-6.336-0-6.059 0-6.133 0.024-6.172 0.017-0.028 0.038-0.043 0.071-0.051 0.027-0.007 1.302-0.010 3.064-0.009 2.433 0.001 3.022 0.005 3.045 0.018 0.068 0.038 0.064-0.41 0.064 6.254-0 4.054-0.005 6.173-0.013 6.21-0.007 0.031-0.018 0.071-0.026 0.090l-0.014 0.034h-1.974l-0.013-0.046c-0.009-0.031-0.013-0.8-0.013-2.377-0-2.455-0-2.45-0.054-2.632-0.116-0.391-0.366-0.667-0.671-0.738-0.115-0.027-0.326-0.018-0.438 0.018-0.324 0.105-0.562 0.411-0.653 0.84-0.018 0.086-0.021 0.329-0.023 2.476-0.002 1.309-0.008 2.397-0.014 2.417l-0.011 0.037-2.274 0.006zM8.061 28.96c-0.014-0.081-0.021-0.951-0.011-1.27 0.010-0.301 0.013-0.333 0.039-0.392 0.033-0.075 0.101-0.141 0.169-0.166 0.039-0.014 0.227-0.017 1.012-0.017 1.092 0 1.034-0.005 1.13 0.099s0.094 0.094 0.094 0.971c0 0.425-0.004 0.782-0.009 0.794-0.008 0.020-0.078 0.022-1.213 0.022h-1.204zM10.943 28.966c-0.041-0.044-0.056-0.073-0.072-0.147-0.010-0.044-0.014-1.753-0.014-6.187-0-5.627 0.001-6.13 0.020-6.166 0.011-0.021 0.032-0.045 0.047-0.053 0.020-0.011 1.367-0.014 5.501-0.014 5.041 0 5.477 0.002 5.505 0.020 0.017 0.011 0.041 0.038 0.053 0.060 0.021 0.038 0.022 0.323 0.018 6.141-0.003 4.323-0.008 6.119-0.017 6.163-0.016 0.075-0.052 0.148-0.091 0.187l-0.029 0.029h-2.829l-0.010-0.028c-0.005-0.015-0.013-1.288-0.017-2.828l-0.007-2.8-0.064-0.136c-0.115-0.244-0.124-0.31-0.133-0.952-0.014-0.93-0.042-1.219-0.167-1.708-0.254-0.988-0.836-1.746-1.681-2.19-0.147-0.077-0.375-0.175-0.524-0.224-0.133-0.044-0.203-0.027-0.503 0.123-0.426 0.213-0.724 0.426-1.008 0.719-0.241 0.248-0.423 0.503-0.578 0.811-0.24 0.476-0.365 0.913-0.45 1.574-0.018 0.138-0.021 0.279-0.022 0.833l-0.001 0.668-0.049 0.087c-0.027 0.048-0.066 0.12-0.087 0.16l-0.038 0.074-0.006 2.906c-0.003 1.598-0.008 2.907-0.009 2.909s-0.611 0.003-1.354 0.003h-1.351l-0.032-0.034zM22.347 28.978c-0.005-0.012-0.009-0.369-0.009-0.794 0-0.733 0.001-0.776 0.024-0.846 0.017-0.051 0.041-0.091 0.080-0.132 0.099-0.102 0.057-0.099 1.139-0.095l0.944 0.003 0.072 0.035c0.084 0.041 0.135 0.104 0.166 0.205 0.019 0.062 0.021 0.145 0.021 0.835 0 0.422-0.004 0.776-0.009 0.788-0.008 0.020-0.078 0.022-1.215 0.022s-1.207-0.001-1.215-0.022zM25.156 28.955c-0.010-0.025-0.024-0.093-0.030-0.151-0.016-0.152-0.015-12.259 0.001-12.316 0.007-0.024 0.024-0.055 0.038-0.068 0.025-0.023 0.108-0.023 3.090-0.023 2.987-0 3.065 0 3.090 0.023 0.014 0.013 0.031 0.043 0.038 0.068 0.017 0.063 0.017 12.206-0 12.313-0.007 0.043-0.027 0.106-0.043 0.139l-0.031 0.060h-2.236l-0.057-0.142-0.007-2.368c-0.008-2.602-0.002-2.414-0.082-2.641-0.060-0.168-0.133-0.282-0.263-0.413-0.167-0.168-0.318-0.242-0.519-0.255-0.132-0.008-0.25 0.015-0.373 0.075-0.273 0.134-0.463 0.372-0.551 0.693l-0.034 0.124-0.006 2.429c-0.005 1.879-0.010 2.437-0.021 2.463l-0.015 0.034h-1.968l-0.019-0.045zM8.294 26.755c-0.115-0.029-0.189-0.107-0.222-0.235-0.023-0.090-0.037-1.52-0.022-2.25 0.010-0.491 0.012-0.509 0.039-0.572 0.016-0.036 0.050-0.084 0.076-0.108 0.092-0.083 0.072-0.082 1.132-0.078 0.896 0.003 0.954 0.005 1.003 0.027 0.068 0.030 0.139 0.111 0.17 0.195 0.023 0.064 0.024 0.113 0.028 1.352 0.003 0.905-0 1.309-0.010 1.366-0.028 0.165-0.089 0.251-0.206 0.29-0.053 0.018-0.172 0.020-0.998 0.023-0.624 0.002-0.955-0.001-0.989-0.010zM22.603 26.762c-0.114-0.019-0.204-0.106-0.243-0.232-0.020-0.065-0.022-0.166-0.022-1.393 0-1.261 0.001-1.326 0.023-1.394 0.027-0.084 0.090-0.161 0.16-0.199l0.051-0.027 0.957-0.003c1.066-0.004 1.045-0.005 1.138 0.078 0.060 0.054 0.097 0.139 0.113 0.262 0.008 0.062 0.011 0.538 0.009 1.357-0.004 1.154-0.006 1.266-0.025 1.324-0.033 0.097-0.088 0.164-0.161 0.197l-0.064 0.029-0.946 0.005c-0.52 0.003-0.966 0.001-0.99-0.003zM8.271 23.144c-0.077-0.024-0.158-0.104-0.187-0.185-0.033-0.092-0.041-0.449-0.039-1.668 0.002-0.969 0.004-1.070 0.024-1.137 0.032-0.11 0.076-0.167 0.163-0.21l0.074-0.037h0.964c1.092 0 1.034-0.005 1.13 0.099 0.099 0.108 0.094 0.026 0.094 1.527 0 1.267-0.001 1.332-0.023 1.4-0.029 0.088-0.089 0.159-0.165 0.197l-0.059 0.029-0.958 0.002c-0.821 0.002-0.967-0-1.018-0.016zM22.555 23.14c-0.085-0.029-0.147-0.094-0.187-0.193l-0.030-0.073v-1.335c0-1.277 0.001-1.338 0.023-1.407 0.030-0.092 0.101-0.173 0.178-0.203 0.055-0.021 0.119-0.023 1.023-0.023 1.059 0 1.020-0.003 1.107 0.076 0.059 0.053 0.096 0.139 0.112 0.261 0.008 0.062 0.011 0.539 0.009 1.351-0.004 1.248-0.004 1.255-0.030 1.333-0.036 0.106-0.081 0.16-0.164 0.199l-0.069 0.032-0.952 0.003c-0.909 0.003-0.955 0.002-1.020-0.021zM8.311 19.551c-0.093-0.016-0.16-0.068-0.207-0.161-0.042-0.082-0.042-0.084-0.052-0.315-0.006-0.128-0.009-0.731-0.007-1.339 0.003-1.009 0.005-1.113 0.025-1.181 0.040-0.136 0.114-0.214 0.231-0.24 0.035-0.008 0.396-0.013 0.984-0.013 1.021-0 0.991-0.002 1.085 0.075 0.057 0.047 0.101 0.131 0.118 0.227 0.019 0.101 0.019 2.557 0 2.659-0.025 0.136-0.091 0.228-0.195 0.274-0.039 0.017-0.159 0.020-0.986 0.021-0.518 0.001-0.965-0.002-0.995-0.007zM22.629 19.555c-0.133-0.018-0.21-0.079-0.262-0.207l-0.029-0.071v-1.335c0-1.273 0.001-1.339 0.023-1.406 0.027-0.084 0.090-0.161 0.16-0.199l0.051-0.027 0.946-0.004c0.666-0.003 0.965 0 1.010 0.010 0.081 0.018 0.154 0.070 0.196 0.141 0.066 0.112 0.067 0.142 0.067 1.472 0 0.742-0.005 1.257-0.012 1.308-0.023 0.161-0.075 0.242-0.191 0.295l-0.062 0.029-0.915 0.002c-0.503 0.001-0.945-0.002-0.983-0.007zM8.287 15.945c-0.083-0.025-0.152-0.082-0.189-0.155-0.053-0.105-0.052-0.052-0.052-3.091 0-2.745 0.001-2.895 0.022-2.933 0.029-0.053 0.101-0.088 0.21-0.102 0.126-0.016 1.91-0.016 2.011 0.001 0.044 0.007 0.101 0.025 0.126 0.039 0.092 0.052 0.084-0.217 0.084 2.998 0 2.033-0.004 2.914-0.013 2.965-0.018 0.096-0.062 0.182-0.116 0.222-0.090 0.068-0.079 0.068-1.106 0.067-0.521-0.001-0.961-0.005-0.978-0.010zM22.554 15.938c-0.11-0.034-0.184-0.138-0.209-0.294-0.019-0.118-0.016-5.8 0.003-5.856 0.017-0.048 0.073-0.092 0.15-0.115 0.039-0.012 0.29-0.015 1.064-0.015 0.924 0 1.020 0.002 1.082 0.021 0.073 0.023 0.113 0.056 0.135 0.112 0.018 0.049 0.018 5.672 0 5.819-0.022 0.173-0.078 0.267-0.191 0.318-0.046 0.021-0.115 0.022-1.014 0.025-0.805 0.002-0.974-0.001-1.021-0.015zM4.418 15.845c-2.819-0.006-3.028-0.008-3.094-0.028-0.164-0.049-0.255-0.112-0.513-0.353-0.113-0.105-0.151-0.149-0.151-0.171 0-0.077 0.136-0.271 0.251-0.358 0.171-0.129 0.298-0.163 0.676-0.179 0.164-0.007 1.451-0.010 3.14-0.008 2.76 0.003 2.864 0.004 2.908 0.026 0.025 0.013 0.059 0.043 0.074 0.068 0.027 0.044 0.028 0.053 0.028 0.397 0 0.342-0.001 0.354-0.028 0.41-0.053 0.108-0.193 0.22-0.256 0.205-0.007-0.002-1.373-0.006-3.035-0.009zM11.762 15.834c-0.453-0.005-0.659-0.011-0.681-0.021-0.051-0.023-0.095-0.085-0.106-0.149-0.017-0.099-0.012-0.694 0.007-0.756 0.022-0.074 0.074-0.12 0.154-0.136 0.046-0.009 1.63-0.012 5.405-0.010l5.341 0.003 0.056 0.026c0.132 0.061 0.173 0.159 0.173 0.412-0 0.342-0.029 0.514-0.097 0.574-0.072 0.064 0.211 0.060-4.879 0.063-2.598 0.001-5.015-0.001-5.372-0.005zM25.365 15.832c-0.072-0.017-0.111-0.061-0.128-0.143-0.020-0.097-0.009-0.722 0.014-0.787 0.021-0.061 0.074-0.114 0.133-0.134 0.062-0.021 5.772-0.031 6.016-0.010 0.494 0.042 0.736 0.163 0.874 0.435 0.020 0.039 0.036 0.085 0.036 0.102 0 0.073-0.132 0.27-0.237 0.353-0.117 0.092-0.255 0.146-0.45 0.174-0.127 0.019-6.179 0.028-6.258 0.009zM1.587 14.274c-0.046-0.010-0.071-0.029-0.097-0.078-0.018-0.034-0.020-0.138-0.017-1.126 0.002-0.696 0.008-1.113 0.016-1.157 0.024-0.129 0.086-0.202 0.201-0.237 0.074-0.023 5.788-0.023 5.863 0 0.11 0.034 0.157 0.103 0.177 0.264 0.008 0.065 0.013 0.499 0.013 1.164 0 1.139 0.001 1.126-0.062 1.159-0.020 0.011-0.778 0.015-3.042 0.016-1.658 0.001-3.032-0.001-3.053-0.006zM11.058 14.266c-0.051-0.018-0.071-0.041-0.088-0.104-0.008-0.030-0.011-0.981-0.009-2.739l0.003-2.693 0.044-0.093c0.024-0.051 0.059-0.11 0.077-0.131 0.043-0.050 0.158-0.111 0.263-0.138 0.081-0.021 0.346-0.022 5.16-0.022 4.902 0 5.078 0.001 5.174 0.023 0.201 0.047 0.322 0.134 0.358 0.257 0.063 0.219 0.059 0.079 0.065 2.891 0.006 2.824 0.009 2.685-0.059 2.735-0.031 0.023-0.127 0.024-5.489 0.026-4.25 0.002-5.466-0.001-5.5-0.013zM25.314 14.272c-0.019-0.005-0.046-0.021-0.059-0.035-0.023-0.025-0.024-0.060-0.024-1.19 0-1.095 0.001-1.167 0.022-1.222 0.026-0.067 0.084-0.123 0.153-0.148s5.765-0.025 5.858-0.001c0.139 0.036 0.192 0.107 0.216 0.288 0.009 0.071 0.013 0.427 0.010 1.132l-0.004 1.028-0.037 0.052c-0.020 0.029-0.051 0.063-0.068 0.075-0.030 0.021-0.159 0.023-3.032 0.026-1.651 0.002-3.017-0.001-3.036-0.006zM7.917 9.489c-0.232-0.027-0.41-0.099-0.508-0.206s-0.108-0.205-0.038-0.356c0.085-0.183 0.224-0.258 0.532-0.29 0.181-0.018 2.506-0.018 2.559 0.001 0.024 0.008 0.042 0.025 0.046 0.041 0.004 0.015 0.005 0.192 0.003 0.394-0.004 0.409 0.001 0.388-0.097 0.416-0.054 0.016-2.362 0.014-2.497-0.001zM22.357 9.482l-0.043-0.022-0.007-0.786 0.055-0.025c0.054-0.024 0.081-0.024 1.345-0.021 1.414 0.004 1.341 0 1.501 0.078 0.147 0.071 0.25 0.212 0.261 0.359 0.016 0.195-0.137 0.328-0.459 0.404-0.111 0.026-0.138 0.026-1.362 0.031-1.176 0.004-1.251 0.003-1.292-0.018zM8.217 8.459c-0.073-0.018-0.12-0.045-0.145-0.085-0.024-0.038-0.035-0.63-0.023-1.179l0.009-0.41 0.037-0.053c0.023-0.032 0.061-0.065 0.099-0.085l0.062-0.032 0.982-0.003c0.874-0.003 0.989-0.001 1.051 0.017 0.087 0.025 0.142 0.066 0.178 0.133l0.028 0.052v0.761c0 0.706-0.002 0.763-0.022 0.794-0.031 0.047-0.073 0.072-0.155 0.091-0.099 0.023-2.004 0.023-2.101-0.001zM22.507 8.459c-0.080-0.019-0.125-0.050-0.154-0.106-0.020-0.039-0.022-0.095-0.018-0.784 0.003-0.727 0.004-0.743 0.030-0.799 0.014-0.031 0.045-0.071 0.068-0.088 0.092-0.068 0.049-0.066 1.13-0.066h1.001l0.074 0.037c0.085 0.043 0.122 0.089 0.141 0.18 0.009 0.040 0.013 0.311 0.013 0.769 0 0.649-0.002 0.711-0.022 0.75-0.030 0.059-0.087 0.094-0.18 0.11-0.12 0.021-1.996 0.017-2.083-0.004zM8.363 6.276l-0.314-0.006-0.107-0.118 0.007-0.104c0.006-0.082 0.003-0.116-0.014-0.16-0.037-0.097-0.136-0.159-0.292-0.185-0.030-0.005-0.062-0.025-0.102-0.066l-0.058-0.059 0.127-0.079c0.070-0.044 0.156-0.091 0.192-0.105 0.070-0.028 0.079-0.038 0.040-0.050-0.042-0.013-0.203-0.126-0.22-0.155-0.014-0.024-0.013-0.031 0.012-0.057 0.057-0.061 0.188-0.118 0.305-0.134 0.076-0.010 0.138-0.030 0.138-0.043 0-0.017-0.050-0.060-0.109-0.095-0.049-0.029-0.053-0.035-0.046-0.069 0.012-0.058 0.027-0.068 0.16-0.109 0.069-0.021 0.138-0.047 0.155-0.058l0.030-0.019-0.151-0.142 0.044-0.036c0.027-0.023 0.082-0.047 0.145-0.064 0.055-0.015 0.111-0.038 0.124-0.050 0.023-0.021 0.023-0.023-0.003-0.065-0.028-0.046-0.034-0.089-0.014-0.102 0.007-0.004 0.059-0.012 0.116-0.018 0.11-0.011 0.193-0.039 0.193-0.063 0-0.008-0.014-0.034-0.032-0.056-0.020-0.026-0.029-0.050-0.024-0.065 0.004-0.013 0.077-0.083 0.163-0.156l0.155-0.133-0.010-0.044c-0.005-0.024-0.010-0.083-0.011-0.131-0.001-0.111 0.035-0.187 0.168-0.354 0.093-0.117 0.099-0.122 0.146-0.122s0.051 0.004 0.147 0.133c0.054 0.073 0.11 0.155 0.123 0.182 0.039 0.078 0.054 0.169 0.040 0.242-0.021 0.111-0.018 0.119 0.067 0.203 0.044 0.043 0.111 0.096 0.15 0.119 0.095 0.056 0.105 0.073 0.069 0.123l-0.029 0.039 0.038 0.038c0.034 0.034 0.050 0.039 0.133 0.047 0.061 0.006 0.102 0.016 0.115 0.029 0.018 0.018 0.017 0.025-0.014 0.081l-0.034 0.061 0.034 0.017c0.019 0.010 0.070 0.027 0.114 0.039 0.104 0.028 0.169 0.061 0.186 0.094 0.013 0.024 0.007 0.033-0.058 0.092-0.086 0.078-0.087 0.075 0.083 0.129 0.106 0.033 0.21 0.094 0.21 0.122 0 0.005-0.039 0.042-0.087 0.082-0.086 0.071-0.087 0.073-0.059 0.088 0.016 0.009 0.065 0.025 0.109 0.036 0.075 0.019 0.31 0.138 0.314 0.159 0.001 0.005-0.054 0.050-0.121 0.098s-0.125 0.095-0.127 0.103c-0.002 0.008 0.082 0.059 0.188 0.116l0.193 0.102-0.096 0.067c-0.053 0.037-0.121 0.075-0.152 0.086-0.186 0.064-0.21 0.099-0.21 0.304 0 0.082-0.006 0.158-0.014 0.176-0.032 0.070-0.014 0.068-1.001 0.072-0.499 0.002-1.048 0.001-1.221-0.003zM23.455 6.277l-1.121-0.007-0.102-0.099 0.008-0.118c0.007-0.095 0.004-0.128-0.012-0.167-0.038-0.091-0.106-0.14-0.239-0.171-0.091-0.021-0.109-0.031-0.168-0.092l-0.048-0.049 0.086-0.055c0.102-0.066 0.148-0.090 0.237-0.126 0.067-0.027 0.067-0.027 0.037-0.045-0.202-0.123-0.24-0.155-0.228-0.194 0.018-0.056 0.177-0.129 0.353-0.162 0.034-0.007 0.073-0.018 0.087-0.025 0.035-0.019 0.014-0.052-0.062-0.095-0.034-0.019-0.062-0.043-0.062-0.053 0-0.022 0.046-0.101 0.066-0.114 0.008-0.005 0.068-0.026 0.134-0.047s0.12-0.040 0.12-0.042c0-0.003-0.019-0.024-0.043-0.048-0.035-0.035-0.043-0.053-0.043-0.093 0-0.063 0.020-0.083 0.109-0.108 0.181-0.050 0.189-0.057 0.151-0.119-0.014-0.023-0.025-0.051-0.025-0.063 0-0.027 0.037-0.047 0.089-0.047 0.087-0 0.13-0.022 0.158-0.080 0.023-0.047 0.029-0.072 0.036-0.138 0.001-0.008 0.069-0.071 0.151-0.141 0.136-0.116 0.149-0.129 0.141-0.159-0.005-0.018-0.011-0.072-0.015-0.121-0.006-0.078-0.003-0.098 0.026-0.161 0.018-0.040 0.078-0.132 0.134-0.205 0.099-0.13 0.102-0.133 0.151-0.133s0.052 0.003 0.141 0.12c0.050 0.066 0.11 0.159 0.134 0.207 0.043 0.086 0.043 0.087 0.036 0.22l-0.007 0.134 0.081 0.080c0.044 0.044 0.112 0.098 0.151 0.121 0.079 0.046 0.089 0.070 0.057 0.13l-0.023 0.042 0.031 0.027c0.017 0.015 0.079 0.040 0.138 0.055 0.135 0.036 0.145 0.047 0.107 0.118-0.040 0.075-0.025 0.090 0.091 0.096 0.085 0.004 0.093 0.007 0.155 0.059l0.065 0.055-0.068 0.069c-0.038 0.038-0.068 0.072-0.068 0.076 0 0.010 0.084 0.045 0.148 0.061 0.053 0.013 0.21 0.104 0.21 0.122 0 0.004-0.039 0.037-0.087 0.073s-0.087 0.069-0.087 0.074c0 0.018 0.048 0.038 0.185 0.076 0.216 0.060 0.29 0.107 0.263 0.167-0.016 0.035-0.105 0.103-0.19 0.145-0.057 0.028-0.075 0.048-0.044 0.048 0.047 0 0.355 0.184 0.355 0.212 0 0.025-0.162 0.122-0.231 0.139-0.104 0.024-0.161 0.054-0.188 0.099-0.035 0.058-0.041 0.103-0.027 0.221 0.014 0.127 0.002 0.186-0.045 0.217-0.040 0.026 0.028 0.025-1.391 0.016z"></path>
</svg>
