<!-- Generated by IcoMoon.io -->
<svg version="1.1" xmlns="http://www.w3.org/2000/svg" width="32" height="32" viewBox="0 0 32 32">
<title>book</title>
<path d="M8.926 15.338h-0.036l-1.071-0.337-0.886-0.69-0.039-0.041h-0.039c-0.378-0.086-0.761-0.16-1.142-0.24l-1.026-0.48c-0.345-0.171-0.69-0.337-1.040-0.499 0.317 0.221 0.635 0.436 0.955 0.648l0.988 0.596h0.025c0.359 0.108 0.72 0.221 1.082 0.323l0.877 0.775 0.047 0.017 1.048 0.375c0.29 0.237 0.585 0.469 0.877 0.701l0.025 0.019 0.033 0.017 1.035 0.469 1.010 0.527h0.014c0.353 0.135 0.704 0.276 1.059 0.395l0.952 0.599 1.013 0.552h0.019l1.073 0.395 0.979 0.552c0.367 0.116 0.734 0.229 1.104 0.337-0.342-0.168-0.684-0.328-1.029-0.488l-0.927-0.681h-0.019l-0.991-0.417-0.96-0.607-0.946-0.646h-0.047c-0.348-0.143-0.701-0.276-1.051-0.422l-1.007-0.552-1.032-0.455c-0.298-0.229-0.593-0.461-0.897-0.687z"></path>
<path d="M31.393 13.964c-0.328-0.185-0.657-0.372-0.991-0.552l-1.065-0.615-0.044-0.017-1.104-0.4-1.068-0.56h-0.030l-1.079-0.356c-0.292-0.207-0.593-0.406-0.891-0.61l-0.113-0.097-0.055-0.017c-0.381-0.113-0.764-0.215-1.145-0.32l-0.957-0.552-0.088-0.050h-0.028c-0.386-0.086-0.775-0.171-1.159-0.276-0.334-0.188-0.659-0.381-0.985-0.579s-0.706-0.392-1.057-0.588v0 0c-0.276-0.121-0.538-0.254-0.803-0.383-0.319-0.154-0.581-0.301-0.834-0.462l0.034 0.020-1.52-0.96-0.080-0.030-1.010-0.372c-0.292-0.276-0.588-0.552-0.888-0.828l-0.276-0.257-0.433 0.221c-0.309 0.157-0.615 0.32-0.916 0.488q-0.53 0.105-1.051 0.223l-0.080 0.019-0.086 0.044c-0.328 0.166-0.654 0.337-0.979 0.513s-0.681 0.312-1.024 0.469l-0.055 0.025h-0.019c-0.312 0.193-0.621 0.392-0.93 0.588-0.326 0.13-0.654 0.254-0.974 0.389l-1.043 0.488-0.063 0.028-0.941 0.643 0.066-0.030-1.035 0.488-0.050 0.022c-0.301 0.235-0.599 0.472-0.891 0.726-0.016 0.016-0.026 0.037-0.026 0.061 0 0.047 0.038 0.086 0.086 0.086 0.008 0 0.016-0.001 0.023-0.003l-0.001 0c0.364-0.127 0.72-0.276 1.073-0.414l-0.050 0.022c0.375-0.072 0.748-0.146 1.12-0.223l0.069-0.030 0.985-0.419 1.065-0.312c0.367-0.088 0.726-0.19 1.084-0.276h0.039l0.086-0.047c0.317-0.166 0.635-0.328 0.949-0.499s0.706-0.276 1.057-0.428 0.64-0.317 0.96-0.483q0.51-0.13 1.018-0.276l0.138-0.041 0.069-0.047c0.221-0.149 0.436-0.309 0.654-0.466l0.659 0.417 0.13 0.080h0.055l1.203 0.199 0.756 0.317c0.276 0.116 0.552 0.254 0.811 0.389s0.53 0.276 0.808 0.4 0.552 0.251 0.803 0.386c0.337 0.207 0.679 0.406 1.007 0.624s0.648 0.466 0.963 0.709l0.022 0.017 0.066 0.025c0.348 0.132 0.695 0.276 1.043 0.411l0.933 0.761 0.097 0.044c0.323 0.149 0.643 0.303 0.968 0.45 0.292 0.259 0.579 0.524 0.877 0.775l0.061 0.050 0.124 0.052 1.046 0.43 1.021 0.632 0.075 0.033 1.015 0.441 0.648 0.436-0.726 0.524c-0.853 0.483-1.705 0.955-2.574 1.424l-1.311 0.739c-0.436 0.248-0.888 0.458-1.335 0.69l-0.094 0.050c-0.315 0.259-0.624 0.53-0.935 0.795l0.047-0.028c-0.348 0.218-0.69 0.45-1.032 0.673s-0.654 0.502-0.974 0.764c-0.019 0.015-0.031 0.038-0.031 0.063 0 0.011 0.002 0.022 0.006 0.031l-0-0.001c0.012 0.032 0.042 0.055 0.078 0.055 0.011 0 0.021-0.002 0.030-0.006l-0.001 0c0.384-0.146 0.762-0.298 1.137-0.453s0.767-0.276 1.145-0.414l0.050-0.030c0.326-0.182 0.657-0.359 0.982-0.552l0.728-0.226c0.302-0.087 0.546-0.174 0.783-0.272l-0.049 0.018 1.429-0.577 1.407-0.604c0.475-0.199 0.927-0.436 1.38-0.654h0.030l0.066-0.044 0.977-0.657c0.309-0.179 0.621-0.356 0.927-0.552l1.313-0.789z"></path>
<path d="M30.698 22.404l-0.24-0.946-0.48-0.491c0.163-0.152 0.326-0.303 0.486-0.461-0.196 0.119-0.389 0.243-0.582 0.364l-0.119-0.121-0.519-0.789-0.723-0.635-0.797-0.168-0.988 0.359-0.891 0.588-0.828 0.662-0.913 0.552-0.72 0.828-0.955 0.461 0.701 0.524 0.855 0.552 0.146 0.43-0.372 0.179-1.181 0.497-0.039 0.041-0.075 0.052-0.971 0.698-1.189 0.464-0.044 0.022-1.316 0.673-0.847-0.488-1.184-0.574-1.104-0.698-0.047-0.033-0.063-0.025-1.173-0.505-1.151-0.698-0.047-0.022-1.192-0.521-1.164-0.681-0.047-0.017-1.206-0.469-1.17-0.681-0.055-0.019-1.225-0.417-0.513-0.295c0-0.19-0.036-0.375-0.063-0.552s-0.074-0.361-0.119-0.535c0.063-0.368 0.107-0.802 0.121-1.243l0-0.015c0.085-0.358 0.155-0.792 0.196-1.234l0.003-0.038-0.017 0.050c0.055-0.218 0.105-0.436 0.141-0.662 0.038-0.203 0.063-0.441 0.069-0.684l0-0.006c-0.156 0.161-0.301 0.336-0.432 0.521l-0.009 0.014c-0.117 0.16-0.238 0.345-0.35 0.537l-0.017 0.031-0.017 0.047c-0.138 0.343-0.272 0.767-0.378 1.201l-0.014 0.068v0.086c-0.003 0.088-0.005 0.192-0.005 0.296 0 0.362 0.021 0.72 0.061 1.071l-0.004-0.043 0.014 0.113v0.022c0.116 0.19 0.24 0.375 0.372 0.552l0.212 0.276-0.342-0.199-0.055-0.030h-0.019l-0.919-0.384c-0.312-0.119-0.604-0.276-0.905-0.419-0.552-0.276-1.104-0.524-1.655-0.778l-0.469-1.131c-0.039-0.441-0.083-0.886-0.127-1.327l-0.072-1.432v0.025l0.041-1.435c0.113-0.461 0.224-0.919 0.328-1.38-0.207 0.436-0.4 0.864-0.601 1.305v0 0.028l-0.276 1.41v0.025l-0.127 1.443c-0.019 0.483-0.036 0.966-0.047 1.449v0.047l0.025 0.091 0.425 1.443 0.052 0.174 0.207 0.121c0.579 0.342 1.162 0.662 1.749 1.018 0.292 0.174 0.582 0.353 0.891 0.499l0.861 0.43 1.104 0.723 0.044 0.030 0.088 0.033 1.17 0.461 1.071 0.687 0.044 0.030 0.069 0.028 1.175 0.491 1.104 0.665 0.033 0.022 0.047 0.019 1.17 0.532 1.159 0.706 0.055 0.022 1.184 0.497 1.14 0.69 0.033 0.017 1.203 0.552 1.17 0.615 0.384 0.204 0.348-0.201 1.655-0.952 1.159-0.552 0.094-0.047 0.044-0.036 0.968-0.811 1.076-0.585 0.43-0.276 0.397 0.356 0.309 0.96 0.182 0.974v0.977l0.235 1.153 0.72-1.024 0.615-0.883 0.477-0.963 0.356-1.024 0.497-0.916 0.858-0.177 0.877-0.348 1.035 0.201-0.061-1.068z"></path>
<path d="M19.449 23.637c0.075-0.327 0.118-0.702 0.118-1.087 0-0.056-0.001-0.112-0.003-0.168l0 0.008-0.030 0.099c0.020-0.16 0.031-0.344 0.031-0.532 0-0.061-0.001-0.123-0.004-0.183l0 0.009c-0.006-0.139-0.019-0.268-0.038-0.395l0.003 0.020c-0.022-0.152-0.052-0.285-0.091-0.415l0.005 0.020c-0.13 0.071-0.241 0.144-0.345 0.225l0.006-0.004c-0.102 0.079-0.191 0.157-0.277 0.239l0.001-0.001c-0.172 0.16-0.329 0.33-0.473 0.512l-0.007 0.009-0.030 0.097c-0.201 0.359-0.366 0.775-0.473 1.213l-0.007 0.034-0.019 0.083v0.088c-0.003 0.069-0.005 0.15-0.005 0.231 0 0.387 0.044 0.763 0.128 1.124l-0.007-0.034 0.052 0.276c0.155 0.186 0.318 0.353 0.494 0.506l0.005 0.004c0.087 0.077 0.183 0.153 0.282 0.224l0.011 0.007c0.098 0.072 0.208 0.142 0.324 0.205l0.015 0.007c0.033-0.115 0.059-0.252 0.074-0.392l0.001-0.010c0.016-0.106 0.028-0.234 0.033-0.363l0-0.006c0.001-0.036 0.002-0.079 0.002-0.122 0-0.204-0.014-0.405-0.040-0.602l0.003 0.023 0.052 0.276c0.115-0.362 0.19-0.781 0.209-1.214l0-0.011z"></path>
<path d="M5.466 14.689c-0.153 0.166-0.298 0.346-0.431 0.535l-0.011 0.016c-0.132 0.185-0.251 0.372-0.367 0.552l-0.014 0.050c-0.14 0.343-0.276 0.764-0.381 1.196l-0.013 0.065v0.086c-0.002 0.078-0.004 0.169-0.004 0.261 0 0.375 0.021 0.744 0.063 1.108l-0.004-0.044v0.116l0.014 0.022c0.116 0.188 0.237 0.375 0.372 0.552 0.143 0.194 0.289 0.365 0.445 0.525l-0.001-0.001c-0.009-0.249-0.035-0.485-0.076-0.715l0.005 0.030c-0.033-0.182-0.074-0.359-0.119-0.535 0.063-0.368 0.105-0.801 0.118-1.241l0-0.014c0.089-0.355 0.163-0.787 0.209-1.227l0.003-0.042-0.017 0.050c0.055-0.215 0.105-0.436 0.141-0.659 0.036-0.202 0.060-0.438 0.066-0.679l0-0.006z"></path>
<path d="M11.1 12.231c-0.017-0.235-0.033-0.472-0.055-0.709l0.552-0.596c0.306-0.124 0.61-0.251 0.913-0.383 0.356 0.061 0.715 0.116 1.076 0.163-0.342-0.201-0.687-0.395-1.035-0.577h-0.119c-0.386 0.033-0.773 0.072-1.156 0.119h-0.039l-0.113 0.075c-0.315 0.207-0.632 0.414-0.941 0.626l-0.143 0.086-0.039 0.276c-0.063 0.425-0.113 0.853-0.166 1.277l-0.036 0.29 0.315 0.262q0.499 0.408 1.004 0.828l0.025 0.019 0.119 0.058c0.386 0.185 0.77 0.378 1.159 0.552l0.063 0.025c0.417 0.155 0.828 0.312 1.255 0.458s0.855 0.243 1.288 0.353l0.086 0.022h0.124c0.395 0 0.786 0.025 1.181 0.033 0.389 0.108 0.775 0.221 1.167 0.32l0.163 0.041h0.143c0.419-0.028 0.828-0.052 1.261-0.083 0.417 0.028 0.828 0.061 1.25 0.083s0.894 0 1.341 0l0.853-0.014 0.041-0.756c0.022-0.43 0.052-0.858 0.066-1.286v-0.196l-0.025-0.077c-0.13-0.408-0.257-0.828-0.395-1.22l-0.080-0.237-0.099-0.086c-0.32-0.276-0.646-0.552-0.971-0.828l-0.127-0.116h-0.061c-0.406-0.116-0.808-0.232-1.217-0.339l-0.207-0.052-0.091 0.041c-0.428 0.201-0.853 0.406-1.275 0.624l-0.19 0.097 0.025 0.135c0.077 0.45 0.163 0.899 0.276 1.346 0.072-0.381 0.13-0.761 0.182-1.142 0.353-0.055 0.701-0.119 1.051-0.185 0.276 0.16 0.571 0.315 0.858 0.466 0.201 0.251 0.403 0.502 0.61 0.75q0.075 0.472 0.157 0.944c-0.022 0.119-0.041 0.237-0.061 0.356l-0.532-0.041-1.283-0.152h-0.141l-0.681 0.030c-0.173-0.221-0.424-0.374-0.711-0.416l-0.006-0.001-1.233-0.177 0.154 0.061-1.153-0.389-0.723-0.626-0.375-0.828 0.389-0.828 1.059-0.345-1.272 0.017-0.072 0.077-0.797 0.864-0.077 0.080 0.030 0.221 0.152 1.214v0.033l0.102 0.168 0.174 0.292c-0.361-0.099-0.726-0.193-1.104-0.276l0.066 0.022c-0.397-0.141-0.8-0.276-1.2-0.4z"></path>
</svg>
