<!-- Generated by IcoMoon.io -->
<svg version="1.1" xmlns="http://www.w3.org/2000/svg" width="30" height="32" viewBox="0 0 30 32">
<title>brotherhood_of_the_beast</title>
<path d="M17.861 1.142c0.006-0.032 0.012-0.063 0.017-0.096-0.014 0.011-0.030 0.022-0.044 0.032 0.186 0.025 0.324 0.059 0.498 0.136 0.144 0.066 0.274 0.099 0.43 0.126 0.25 0.042 0.492 0.16 0.729 0.251 0.225 0.086 0.427 0.23 0.647 0.333 0.168 0.079 0.321 0.141 0.473 0.248 0.413 0.287 0.826 0.606 1.176 0.97 0.233 0.244 0.508 0.458 0.728 0.711 0.278 0.318 0.518 0.635 0.764 0.98 0.217 0.302 0.432 0.62 0.468 0.999 0.014 0.15 0.087 0.262 0.132 0.401 0.050 0.163 0.097 0.342 0.14 0.509 0.090 0.34 0.145 0.714 0.198 1.062 0.073 0.481 0.096 0.958 0.132 1.442 0.036 0.49 0.089 0.959 0.067 1.454-0.016 0.364-0.104 0.678-0.251 1.006-0.096 0.216-0.265 0.378-0.406 0.564-0.062 0.082-0.14 0.148-0.205 0.231-0.101 0.128-0.174 0.301-0.29 0.415-0.089 0.086-0.182 0.14-0.251 0.25-0.089 0.14-0.163 0.281-0.275 0.405-0.22 0.242-0.413 0.516-0.607 0.779-0.233 0.318-0.42 0.688-0.764 0.904-0.119 0.074-0.25 0.14-0.374 0.207-0.17 0.092-0.342 0.101-0.514 0.174-0.214 0.091-0.381 0.2-0.618 0.229-0.19 0.024-0.37 0.072-0.559 0.107-0.219 0.042-0.388 0.117-0.59 0.199-0.153 0.061-0.316 0.071-0.472 0.123 0.316 0.032 0.597 0.156 0.915 0.198 0.28 0.037 0.62 0.182 0.862 0.33 0.43 0.263 0.839 0.553 1.214 0.891 0.281 0.254 0.582 0.53 0.778 0.86 0.048 0.080 0.071 0.172 0.117 0.253 0.056 0.097 0.127 0.135 0.195 0.22 0.054 0.066 0.074 0.125 0.113 0.196 0.095 0.178 0.242 0.322 0.342 0.498 0.099 0.174 0.171 0.352 0.281 0.52 0.086 0.13 0.175 0.263 0.228 0.412 0.063 0.184 0.105 0.412 0.14 0.606 0.066 0.374 0.21 0.71 0.32 1.070 0.195 0.638 0.19 1.261 0.184 1.922-0.002 0.247-0.065 0.472-0.052 0.72 0.013 0.243-0.065 0.504-0.103 0.744-0.035 0.228-0.071 0.454-0.107 0.68-0.032 0.206-0.032 0.421-0.15 0.595-0.053 0.077-0.115 0.115-0.152 0.203-0.030 0.072-0.044 0.144-0.080 0.214-0.071 0.14-0.166 0.289-0.261 0.414-0.069 0.091-0.148 0.156-0.212 0.255-0.062 0.096-0.084 0.181-0.174 0.263-0.152 0.14-0.353 0.25-0.526 0.368-0.333 0.225-0.704 0.376-1.025 0.615-0.153 0.114-0.296 0.217-0.431 0.341-0.060 0.056-0.054 0.062-0.135 0.114-0.072 0.018-0.134 0.052-0.188 0.102-0.047 0.072-0.101 0.138-0.162 0.196-0.068 0.055-0.132 0.062-0.202 0.101-0.098 0.053-0.164 0.115-0.255 0.175-0.121 0.081-0.242 0.096-0.371 0.15-0.132 0.054-0.22 0.109-0.366 0.121-0.132 0.010-0.262 0.026-0.394 0.003-0.195-0.032-0.395-0.076-0.592-0.093-0.142-0.012-0.275 0.044-0.418 0.046-0.201 0.002-0.366-0.006-0.566 0.043-0.178 0.043-0.339 0.165-0.517 0.224s-0.334 0.1-0.517 0.099c-0.073-0.001-0.103 0.010-0.169 0.019-0.157 0.024-0.267 0.026-0.426 0.008-0.228-0.024-0.443-0.006-0.675-0.043-0.214-0.033-0.376-0.090-0.581-0.153-0.127-0.040-0.208-0.038-0.329-0.11-0.144-0.084-0.256-0.104-0.42-0.127-0.337-0.048-0.644-0.132-0.972-0.212-0.139-0.034-0.302-0.062-0.419-0.153-0.084-0.065-0.123-0.201-0.247-0.193 0.15 0.037 0.368-0.037 0.522-0.040 0.479-0.007 0.977 0.046 1.426 0.22 0.456 0.176 1.051 0.459 1.552 0.374 0.377-0.063 0.757-0.268 1.114-0.406 0.242-0.093 0.509-0.15 0.762-0.22 0.254-0.072 0.487-0.176 0.746-0.243 0.472-0.12 0.861-0.48 1.16-0.843 0.329-0.398 0.738-0.691 1.055-1.103 0.128-0.166 0.259-0.303 0.404-0.456 0.135-0.143 0.333-0.386 0.41-0.568 0.029-0.068 0.022-0.13 0.038-0.2 0.026-0.108 0.091-0.194 0.114-0.304 0.034-0.165 0.050-0.336 0.077-0.503 0.056-0.363 0.134-0.72 0.11-1.087-0.017-0.268-0.069-0.529-0.060-0.802 0.006-0.146 0-0.304-0.031-0.457-0.077-0.37-0.097-0.762-0.237-1.106-0.042-0.102-0.044-0.195-0.104-0.295-0.050-0.085-0.105-0.157-0.146-0.25-0.076-0.171-0.202-0.274-0.333-0.402-0.165-0.162-0.283-0.4-0.456-0.55-0.103-0.089-0.237-0.17-0.358-0.245-0.462-0.29-0.813-0.709-1.372-0.787-0.248-0.034-0.559-0.005-0.791 0.087-0.175 0.071-0.316 0.205-0.488 0.274-0.169 0.068-0.331 0.030-0.498 0.056-0.105 0.016-0.176 0.057-0.262 0.113-0.101 0.065-0.211 0.081-0.309 0.144-0.113 0.073-0.194 0.157-0.32 0.213-0.129 0.056-0.244 0.125-0.365 0.196-0.335 0.199-0.472 0.556-0.637 0.89-0.080 0.162-0.207 0.286-0.301 0.437-0.102 0.164-0.133 0.271-0.284 0.391-0.16 0.129-0.279 0.328-0.412 0.485-0.146 0.171-0.258 0.356-0.374 0.547-0.267 0.443-0.333 0.967-0.597 1.42-0.147 0.251-0.261 0.528-0.423 0.771-0.116 0.172-0.253 0.332-0.371 0.499-0.171 0.244-0.25 0.56-0.381 0.829-0.158 0.322-0.341 0.623-0.473 0.958-0.146 0.374-0.225 0.782-0.362 1.159-0.078 0.216-0.101 0.441-0.133 0.667-0.013 0.085-0.003 0.272-0.142 0.205-0.019-0.374 0.025-0.744-0.019-1.12-0.049-0.424-0.026-0.824-0.046-1.245-0.035-0.776-0.002-1.52 0.114-2.287 0.035-0.231 0.11-0.426 0.165-0.65 0.043-0.178 0.038-0.364 0.093-0.539 0.101-0.326 0.211-0.626 0.261-0.97 0.047-0.313 0.062-0.65 0.157-0.953 0.168-0.53 0.554-0.999 0.871-1.446 0.141-0.2 0.281-0.396 0.425-0.596 0.080-0.114 0.153-0.269 0.237-0.377 0.077-0.099 0.188-0.165 0.274-0.258 0.123-0.13 0.22-0.263 0.358-0.381 0.054-0.047 0.102-0.105 0.158-0.147 0.074-0.055 0.164-0.060 0.235-0.109 0.034-0.024 0.049-0.073 0.083-0.097 0.074-0.053 0.164-0.047 0.247-0.080 0.125-0.050 0.256-0.122 0.375-0.184 0.208-0.108 1.088-0.899 0.675-1.094-0.194-0.091-0.485-0.089-0.689-0.12-0.299-0.047-0.602-0.078-0.896-0.153-0.28-0.074-0.62-0.207-0.914-0.199-0.247 0.006-0.42 0.332-0.588 0.485-0.147 0.134-0.316 0.289-0.49 0.387-0.223 0.127-0.534 0.213-0.782 0.291-0.142 0.046-0.28 0.029-0.425 0.057-0.123 0.025-0.251 0.072-0.372 0.113-0.268 0.090-0.636 0.25-0.856 0.441-0.366 0.318-0.778 0.669-1.011 1.105-0.121 0.228-0.151 0.499-0.259 0.734-0.096 0.211-0.186 0.427-0.292 0.632-0.16 0.308-0.358 0.566-0.467 0.9-0.063 0.199-0.081 0.421-0.111 0.629-0.043 0.307 0.134 0.584 0.212 0.884 0.093 0.359 0.243 0.702 0.304 1.069 0.054 0.334 0.166 0.629 0.242 0.957 0.075 0.322 0.249 0.605 0.357 0.915 0.098 0.28 0.218 0.554 0.338 0.825 0.103 0.231 0.283 0.468 0.295 0.728-0.142-0.001-0.266-0.196-0.36-0.298-0.215-0.23-0.4-0.484-0.608-0.722-0.318-0.368-0.572-0.807-0.852-1.207-0.105-0.151-0.199-0.304-0.295-0.461-0.072-0.119-0.186-0.226-0.245-0.347-0.053-0.105-0.052-0.209-0.074-0.323-0.042-0.202-0.14-0.393-0.217-0.583-0.195-0.485-0.493-0.941-0.612-1.456-0.056-0.249-0.034-0.559-0.050-0.815-0.019-0.32 0.037-0.614 0.087-0.93 0.038-0.244 0.066-0.492 0.111-0.734 0.065-0.339 0.236-0.594 0.388-0.894 0.211-0.413 0.356-0.864 0.617-1.25 0.151-0.223 0.231-0.467 0.404-0.673 0.216-0.258 0.477-0.471 0.691-0.729 0.286-0.346 0.587-0.706 1.006-0.894 0.348-0.157 0.698-0.292 1.055-0.424 0.067-0.025 0.135-0.067 0.206-0.078 0.068-0.010 0.143 0.023 0.211 0.012 0.146-0.023 0.271-0.134 0.417-0.156 0.093-0.014 0.194 0.011 0.289-0.001 0.084-0.011 0.168-0.032 0.25-0.047 0.206-0.035 0.403-0.074 0.613-0.079 0.184-0.003 0.372 0.013 0.557 0.006 0.146-0.006 0.278-0.043 0.425-0.041 0.141 0.001 0.277-0.042 0.417-0.044 0.135-0.004 0.318 0.059 0.445-0.016 0.079-0.046 0.099-0.116 0.19-0.155 0.216-0.090 0.491-0.066 0.717-0.050 0.307 0.020 0.577 0.12 0.874 0.188 0.244 0.055 0.499 0.091 0.748 0.125 0.231 0.031 0.45-0.050 0.679-0.080 0.287-0.038 0.581 0.003 0.864-0.042 0.455-0.073 0.917-0.207 1.312-0.45 0.34-0.208 0.746-0.34 1.068-0.576 0.221-0.163 0.275-0.437 0.475-0.611 0.085-0.074 0.164-0.1 0.247-0.192 0.114-0.125 0.203-0.273 0.317-0.4 0.16-0.177 0.35-0.326 0.506-0.505 0.133-0.155 0.199-0.322 0.273-0.507 0.078-0.193 0.229-0.347 0.304-0.539 0.109-0.277 0.11-0.647 0.156-0.94 0.057-0.37 0.134-0.736 0.080-1.112-0.032-0.232-0.149-0.453-0.223-0.675-0.101-0.299-0.203-0.583-0.286-0.891-0.093-0.348-0.189-0.667-0.315-1.006-0.114-0.305-0.174-0.624-0.28-0.93-0.064-0.187-0.096-0.358-0.202-0.526-0.11-0.175-0.222-0.303-0.37-0.451-0.159-0.159-0.277-0.326-0.49-0.414-0.162-0.066-0.245-0.109-0.393-0.21-0.074-0.050-0.166-0.073-0.241-0.121-0.102-0.063-0.166-0.166-0.251-0.248-0.157-0.15-0.415-0.243-0.627-0.292-0.16-0.037-0.296-0.102-0.456-0.129-0.267-0.046-0.508-0.098-0.76-0.186-0.117-0.040-0.186-0.085-0.314-0.104-0.198-0.031-0.377-0.018-0.576-0.013-0.177 0.003-0.388-0.017-0.548 0.075-0.21 0.119-0.269 0.369-0.507 0.475-0.226 0.102-0.447 0.216-0.699 0.239-0.166 0.016-0.147 0.034-0.269 0.151-0.097 0.093-0.236 0.17-0.345 0.249-0.183 0.133-0.32 0.268-0.483 0.425-0.229 0.22-0.375 0.376-0.509 0.669-0.085 0.187-0.198 0.401-0.245 0.6-0.063 0.261 0.060 0.412 0.073 0.666 0.008 0.151-0.043 0.296-0.063 0.443-0.017 0.129-0.011 0.249-0.010 0.378 0.001 0.244-0.107 0.485-0.092 0.728 0.014 0.216 0.077 0.526 0.189 0.712 0.162 0.268 0.398 0.49 0.578 0.744 0.059 0.083 0.101 0.18 0.158 0.263 0.127 0.188 0.313 0.344 0.468 0.507 0.187 0.196 0.364 0.366 0.594 0.512 0.238 0.152 0.481 0.285 0.705 0.461 0.157 0.123 0.429 0.239 0.483 0.433-0.217 0.108-0.498 0.091-0.738 0.086-0.095-0.001-0.196-0.029-0.283-0.068-0.217-0.098-0.339-0.315-0.541-0.419-0.224-0.115-0.463-0.208-0.689-0.327-0.251-0.132-0.461-0.297-0.703-0.439-0.201-0.117-0.364-0.235-0.539-0.389-0.169-0.15-0.335-0.301-0.536-0.406-0.201-0.107-0.325-0.303-0.426-0.505-0.046-0.092-0.048-0.193-0.072-0.292-0.041-0.169-0.127-0.295-0.195-0.45-0.104-0.244-0.079-0.478-0.11-0.732-0.024-0.198-0.111-0.372-0.155-0.569-0.113-0.503-0.226-1.094-0.117-1.607 0.073-0.35 0.384-0.581 0.515-0.911 0.105-0.265 0.138-0.539 0.308-0.775 0.114-0.156 0.256-0.293 0.381-0.441 0.307-0.36 0.459-0.905 0.922-1.105 0.205-0.089 0.443-0.151 0.659-0.198 0.229-0.050 0.449-0.017 0.676-0.047 0.291-0.038 0.48-0.261 0.759-0.323 0.162-0.036 0.325 0.008 0.486-0.026 0.388-0.083 0.663-0.371 1.006-0.535 0.15-0.072 0.324-0.126 0.48-0.174 0.195-0.090 0.392-0.085 0.592 0.013 0.51 0.26 1.007 0.544 1.491 0.85z"></path>
</svg>
