<!-- Generated by IcoMoon.io -->
<svg version="1.1" xmlns="http://www.w3.org/2000/svg" width="31" height="32" viewBox="0 0 31 32">
<title>buenos_aires</title>
<path d="M3.181 27.562c0-3.409 0.001-3.44 0.101-3.632l0.101-0.194-0.125-0.525c-0.12-0.505-0.125-0.58-0.126-1.945l-0.001-1.42-0.142-0.239c-0.078-0.131-0.142-0.271-0.142-0.311 0-0.066 0.351-0.298 0.76-0.503 0.091-0.045 0.413-0.144 0.717-0.219l0.552-0.137 2.759-0c2.172-0 2.76-0.013 2.764-0.060 0.003-0.033 0.009-0.296 0.014-0.585 0.009-0.564-0.041-0.759-0.209-0.812-0.159-0.050-0.172-0.24-0.029-0.409 0.173-0.205 0.177-0.556 0.008-0.702-0.094-0.082-0.109-0.127-0.080-0.236 0.033-0.125 0.055-0.136 0.307-0.149 0.306-0.016 0.309-0.020 0.331-0.487l0.012-0.263h0.812l0.024 0.502c0.013 0.276 0.041 0.528 0.063 0.561 0.043 0.067 0.591 0.083 0.69 0.020 0.048-0.030 0.057-0.905 0.048-4.214l-0.012-4.176-0.215-0.076c-0.199-0.070-0.214-0.087-0.203-0.229 0.007-0.084 0.079-0.384 0.161-0.666 0.1-0.344 0.16-0.68 0.183-1.019 0.027-0.404 0.058-0.548 0.15-0.717 0.126-0.228 0.226-0.266 0.305-0.115 0.274 0.525 0.339 0.582 0.773 0.668 0.175 0.035 0.152 0.060 0.624-0.692 0.173-0.276 0.384-0.609 0.468-0.74 0.602-0.937 0.83-1.337 0.853-1.494 0.014-0.098 0.051-0.425 0.081-0.727 0.055-0.544 0.098-0.685 0.182-0.595 0.023 0.025 0.075 0.369 0.115 0.765 0.082 0.819-0.033 0.564 0.962 2.134 0.287 0.453 0.594 0.938 0.681 1.077s0.189 0.264 0.225 0.278c0.036 0.014 0.184-0.009 0.329-0.051 0.251-0.073 0.273-0.092 0.448-0.397 0.102-0.176 0.215-0.32 0.253-0.32s0.123 0.107 0.19 0.238c0.1 0.195 0.121 0.297 0.114 0.567-0.006 0.255 0.033 0.478 0.174 0.981 0.294 1.048 0.297 0.981-0.046 1.082l-0.167 0.049-0.012 4.176c-0.010 3.309 0 4.183 0.048 4.214 0.077 0.049 0.567 0.050 0.643 0.001 0.038-0.024 0.063-0.215 0.072-0.561l0.014-0.524h0.86l0.048 0.717 0.311 0.024c0.31 0.024 0.311 0.024 0.325 0.179 0.012 0.128-0.007 0.165-0.109 0.211-0.221 0.101-0.222 0.456-0.002 0.717 0.066 0.078 0.12 0.167 0.12 0.197s-0.087 0.134-0.193 0.231l-0.193 0.176 0.027 1.227 5.589 0.049 0.572 0.156c0.561 0.153 1.283 0.487 1.378 0.638 0.030 0.048 0 0.141-0.1 0.306l-0.144 0.237-0.027 1.529c-0.023 1.341-0.039 1.57-0.123 1.863-0.123 0.424-0.123 0.596-0.004 0.826 0.094 0.18 0.096 0.261 0.084 3.572l-0.012 3.389-25.009 0.024zM6.42 29.461c0.088-0.088 0.078-3.062-0.012-3.487-0.165-0.776-0.719-1.2-1.241-0.948-0.26 0.126-0.43 0.317-0.596 0.671l-0.124 0.263-0.016 1.71c-0.012 1.287-0.002 1.727 0.042 1.78 0.077 0.092 1.856 0.104 1.947 0.012zM9.764 29.461c0.092-0.092 0.080-3.228-0.014-3.587-0.29-1.113-1.31-1.244-1.786-0.229l-0.125 0.267-0.014 1.741c-0.008 0.957-0.003 1.769 0.010 1.803 0.033 0.086 1.842 0.092 1.928 0.006zM16.654 29.446c0.077-0.092 0.035-3.437-0.046-3.707-0.070-0.232-0.306-0.55-0.494-0.665-0.264-0.161-0.435-0.167-0.721-0.027-0.304 0.149-0.476 0.374-0.607 0.794-0.083 0.267-0.092 0.452-0.092 1.959 0 1.286 0.014 1.669 0.060 1.688 0.033 0.013 0.46 0.026 0.95 0.028 0.741 0.003 0.9-0.008 0.95-0.069zM23.409 29.444c0.065-0.065 0.075-0.266 0.074-1.493-0.002-1.592-0.041-2.024-0.214-2.379-0.153-0.313-0.312-0.47-0.578-0.572-0.177-0.068-0.243-0.072-0.4-0.025-0.369 0.111-0.663 0.464-0.789 0.947-0.056 0.216-0.071 0.614-0.071 1.903 0 0.897 0.014 1.644 0.032 1.662s0.446 0.032 0.952 0.032c0.773 0 0.932-0.012 0.995-0.075zM26.9 27.652v-1.843l-0.144-0.281c-0.192-0.376-0.447-0.559-0.78-0.559-0.395 0-0.672 0.216-0.901 0.704l-0.134 0.287-0.015 1.739c-0.012 1.399-0.003 1.747 0.048 1.779 0.035 0.022 0.482 0.035 0.994 0.029l0.932-0.012v-1.843zM6.466 21.851c0.008-0.711-0.008-1.293-0.038-1.439-0.076-0.364-0.264-0.621-0.561-0.767-0.476-0.233-0.966-0.066-1.276 0.436l-0.144 0.234-0.017 1.306c-0.009 0.718-0.004 1.338 0.011 1.378 0.024 0.062 0.17 0.071 1.020 0.059l0.992-0.013zM9.81 21.855c0.007-0.666-0.009-1.308-0.036-1.457-0.184-1.008-1.41-1.156-1.861-0.224-0.092 0.19-0.098 0.288-0.098 1.551v1.347l1.983-0.026 0.013-1.191zM16.677 21.684v-1.361l-0.132-0.251c-0.165-0.314-0.438-0.499-0.776-0.527-0.195-0.016-0.287 0.006-0.501 0.118-0.383 0.201-0.52 0.445-0.576 1.023-0.050 0.513-0.059 1.936-0.015 2.204l0.030 0.18 1.97-0.026zM23.464 22.952c0.016-0.065 0.021-0.661 0.011-1.326-0.016-1.013-0.032-1.238-0.102-1.396-0.377-0.857-1.289-0.933-1.775-0.148l-0.144 0.233-0.030 2.755h2.011zM26.923 21.744c-0-0.729-0.021-1.401-0.047-1.493-0.106-0.38-0.535-0.713-0.922-0.716-0.239-0.001-0.618 0.196-0.777 0.404-0.239 0.314-0.256 0.429-0.258 1.796-0.001 0.698 0.012 1.284 0.030 1.302s0.469 0.032 1.003 0.032h0.971l-0-1.326zM14.268 18.101c0.043-0.397 0.132-0.615 0.346-0.848 0.293-0.318 0.603-0.459 1.012-0.461 0.73-0.004 1.282 0.497 1.348 1.222 0.014 0.153 0.052 0.3 0.084 0.327 0.038 0.032 0.628 0.044 1.677 0.036l1.619-0.013v-0.43l-2.853-0.048-0.105-0.29c-0.19-0.525-0.433-0.817-0.917-1.102-0.224-0.132-0.256-0.137-0.856-0.137h-0.623l-0.278 0.167c-0.374 0.224-0.667 0.567-0.794 0.927-0.056 0.16-0.119 0.323-0.139 0.362-0.031 0.060-0.253 0.075-1.394 0.096l-1.356 0.024-0.015 0.16c-0.030 0.312-0.121 0.297 1.626 0.283l1.59-0.013zM16.233 14.618c0.562-0.356 0.662-1.124 0.211-1.621-0.37-0.407-1.117-0.407-1.496 0-0.156 0.168-0.299 0.517-0.3 0.733-0.001 0.385 0.303 0.828 0.669 0.974 0.065 0.026 0.248 0.048 0.407 0.050 0.241 0.003 0.326-0.020 0.509-0.137zM16.438 8.284v-1.385l-0.119-0.213c-0.168-0.3-0.398-0.446-0.656-0.418-0.288 0.032-0.413 0.132-0.581 0.47l-0.148 0.296v1.298c0 0.714 0.015 1.313 0.033 1.331s0.357 0.027 0.752 0.020l0.719-0.013z"></path>
</svg>
