<!-- Generated by IcoMoon.io -->
<svg version="1.1" xmlns="http://www.w3.org/2000/svg" width="33" height="32" viewBox="0 0 33 32">
<title>cairo</title>
<path d="M6.826 30.995c-0.056-0.003-0.261-0.013-0.454-0.022-0.307-0.015-0.361-0.021-0.425-0.045-0.144-0.055-0.26-0.194-0.444-0.532-0.295-0.542-0.482-1.189-0.583-2.021-0.028-0.232-0.038-0.759-0.020-1.018 0.040-0.558 0.116-1.014 0.238-1.438 0.082-0.283 0.159-0.481 0.301-0.77 0.106-0.215 0.139-0.27 0.197-0.33 0.13-0.133 0.215-0.155 0.781-0.204 0.739-0.063 0.758-0.064 1.194-0.047 0.518 0.020 0.679 0.033 0.923 0.073 0.231 0.038 0.274 0.050 0.308 0.086 0.044 0.047 0.032 0.117-0.066 0.39-0.254 0.704-0.328 0.96-0.395 1.351-0.079 0.465-0.11 0.998-0.090 1.522 0.041 1.057 0.168 1.627 0.55 2.48 0.069 0.155 0.13 0.298 0.134 0.318 0.007 0.030 0.001 0.044-0.028 0.073-0.032 0.032-0.054 0.039-0.177 0.057-0.203 0.030-0.237 0.033-0.563 0.055-0.281 0.019-1.166 0.033-1.382 0.022zM25.067 30.99c-0.565-0.027-1.13-0.064-1.167-0.076-0.052-0.017-0.093-0.068-0.093-0.115 0-0.051 0.025-0.12 0.157-0.434 0.064-0.151 0.14-0.344 0.17-0.429 0.096-0.273 0.202-0.724 0.286-1.229 0.076-0.451 0.083-0.535 0.083-0.94-0-0.95-0.155-1.809-0.459-2.538-0.151-0.363-0.171-0.486-0.085-0.532 0.032-0.017 0.326-0.074 0.468-0.090 0.149-0.017 1.891-0.017 2.053-0 0.199 0.021 0.474 0.076 0.539 0.109 0.079 0.040 0.145 0.117 0.227 0.265 0.196 0.354 0.368 0.82 0.467 1.262 0.072 0.324 0.098 0.523 0.143 1.105 0.029 0.381 0.031 0.444 0.019 0.672-0.025 0.47-0.077 0.834-0.175 1.224-0.096 0.383-0.228 0.749-0.353 0.979-0.158 0.29-0.325 0.571-0.363 0.609-0.061 0.061-0.154 0.105-0.256 0.12-0.279 0.041-1.163 0.061-1.661 0.037zM4.696 30.812c-0.1-0.010-0.527-0.089-0.838-0.155-0.247-0.052-0.728-0.175-1.131-0.288-0.772-0.217-0.867-0.255-0.998-0.397-0.17-0.185-0.202-0.366-0.23-1.302-0.011-0.374 0.009-1.24 0.038-1.623 0.023-0.31 0.128-0.518 0.363-0.723 0.11-0.096 0.237-0.178 0.59-0.38 0.685-0.392 1.292-0.677 1.865-0.874 0.207-0.071 0.324-0.091 0.398-0.066 0.104 0.034 0.099 0.097-0.038 0.544-0.27 0.882-0.354 1.388-0.355 2.13-0 0.47 0.046 0.941 0.14 1.426 0.075 0.389 0.137 0.591 0.352 1.154 0.093 0.244 0.152 0.417 0.152 0.445 0 0.114-0.055 0.133-0.307 0.108zM27.827 30.806c-0.094-0.043-0.086-0.105 0.066-0.479 0.149-0.366 0.195-0.531 0.371-1.313 0.119-0.531 0.124-0.576 0.132-1.105 0.015-1.006-0.079-1.626-0.38-2.513-0.086-0.253-0.097-0.335-0.052-0.38 0.037-0.037 0.096-0.033 0.307 0.024 0.413 0.112 0.73 0.237 1.26 0.499 0.488 0.241 1.165 0.636 1.379 0.805 0.135 0.106 0.243 0.279 0.284 0.455 0.023 0.099 0.049 0.444 0.077 1.005 0.017 0.345 0.018 0.476 0.006 0.768-0.035 0.872-0.064 1.123-0.151 1.283-0.076 0.142-0.238 0.262-0.438 0.327-0.148 0.048-0.789 0.228-1.163 0.327-0.383 0.102-0.549 0.138-0.872 0.193-0.109 0.018-0.287 0.050-0.396 0.070-0.262 0.049-0.378 0.058-0.432 0.033zM9.585 30.588c-0.085-0.043-0.138-0.111-0.222-0.287-0.306-0.638-0.47-1.217-0.537-1.894-0.019-0.197-0.026-0.87-0.011-1.164 0.036-0.713 0.181-1.313 0.482-1.998 0.088-0.2 0.14-0.272 0.234-0.321 0.066-0.035 0.077-0.037 0.185-0.031 0.088 0.005 0.169 0.021 0.345 0.072 0.77 0.222 1.503 0.51 2.219 0.871 0.273 0.138 0.347 0.192 0.442 0.325 0.178 0.25 0.342 0.791 0.408 1.35 0.033 0.276 0.050 0.819 0.036 1.119-0.014 0.294-0.025 0.344-0.105 0.459-0.067 0.097-0.167 0.159-0.495 0.308-0.459 0.208-2.557 1.136-2.657 1.176-0.050 0.020-0.124 0.038-0.173 0.041-0.075 0.006-0.094 0.002-0.153-0.028zM22.953 30.601c-0.044-0.010-0.168-0.056-0.275-0.103-0.518-0.227-2.709-1.202-2.76-1.228-0.142-0.072-0.246-0.206-0.296-0.38-0.029-0.101-0.030-0.123-0.028-0.456 0.005-0.741 0.058-1.218 0.184-1.644 0.12-0.406 0.22-0.603 0.382-0.753 0.065-0.060 0.135-0.101 0.41-0.239 0.453-0.228 0.613-0.291 1.541-0.613 0.817-0.283 0.873-0.301 0.972-0.301 0.075-0 0.099 0.005 0.149 0.035 0.084 0.049 0.142 0.123 0.215 0.272 0.465 0.955 0.635 2.278 0.454 3.531-0.082 0.565-0.252 1.122-0.481 1.57-0.143 0.28-0.259 0.357-0.468 0.311zM14.026 28.312c-0.124-0.058-0.166-0.147-0.178-0.381-0.037-0.727-0.158-1.309-0.383-1.84-0.040-0.095-0.128-0.279-0.195-0.41-0.125-0.243-0.134-0.277-0.083-0.302 0.026-0.013 6.093-0.023 6.268-0.010 0.125 0.009 0.156 0.023 0.156 0.073 0 0.015-0.049 0.117-0.108 0.226-0.345 0.636-0.511 1.236-0.576 2.092-0.011 0.141-0.023 0.282-0.027 0.313-0.017 0.124-0.093 0.224-0.196 0.255-0.036 0.011-0.658 0.015-2.331 0.014l-2.282-0-0.065-0.030zM3.209 24.622c-0.106-0.011-0.134-0.042-0.126-0.135 0.005-0.058 0.24-0.507 0.678-1.298 0.255-0.461 0.487-0.868 0.515-0.906 0.064-0.086 0.178-0.17 0.282-0.209l0.080-0.030 11.702-0.003c10.345-0.003 11.713-0.001 11.794 0.016 0.168 0.035 0.29 0.119 0.385 0.265 0.085 0.13 1.119 2.002 1.139 2.062 0.024 0.070 0.026 0.152 0.007 0.189-0.022 0.042-0.091 0.062-0.211 0.062-0.139 0-0.162-0.006-0.76-0.2-1.193-0.387-1.511-0.459-2.309-0.522-0.51-0.040-0.753-0.049-1.194-0.042-0.524 0.008-0.79 0.034-1.442 0.145-0.384 0.065-1.117 0.229-1.369 0.307-0.41 0.126-0.445 0.135-0.521 0.13-0.137-0.009-0.118 0.027-0.509-0.924-0.188-0.456-0.206-0.495-0.297-0.636-0.093-0.145-0.149-0.151-0.194-0.021-0.023 0.067-0.023 0.098-0.008 0.794 0.009 0.399 0.012 0.755 0.007 0.791-0.013 0.091-0.062 0.147-0.148 0.165s-8.606 0.019-8.673 0.001c-0.025-0.007-0.060-0.028-0.077-0.046l-0.031-0.033-0.001-0.782c-0-0.496-0.006-0.808-0.014-0.851s-0.026-0.080-0.047-0.102c-0.032-0.032-0.036-0.033-0.069-0.015-0.054 0.029-0.298 0.53-0.489 1.003-0.198 0.489-0.248 0.593-0.306 0.631-0.080 0.053-0.116 0.047-0.615-0.101-0.484-0.143-0.688-0.189-1.26-0.285-0.759-0.127-1.269-0.177-1.791-0.178-0.474-0-0.974 0.042-1.573 0.133-0.669 0.102-1.011 0.194-1.95 0.522-0.204 0.071-0.286 0.094-0.377 0.104-0.064 0.007-0.125 0.011-0.136 0.010s-0.052-0.005-0.092-0.009zM3.62 21.605l-0.042-0.099-0.010-0.315c-0.005-0.173-0.008-0.881-0.006-1.573 0.003-1.142 0.005-1.268 0.026-1.367 0.1-0.485 0.355-0.825 0.812-1.079 0.328-0.183 0.983-0.516 1.595-0.812 0.216-0.104 0.336-0.154 0.452-0.187 0.195-0.056 0.258-0.058 0.295-0.012s0.034 0.078-0.030 0.233c-0.129 0.314-0.21 0.465-1.419 2.633-0.807 1.448-0.848 1.521-1.097 1.956-0.352 0.617-0.328 0.58-0.429 0.656-0.049 0.037-0.093 0.067-0.098 0.067s-0.027-0.045-0.051-0.099zM29.027 21.682c-0.104-0.053-0.232-0.274-1.92-3.329-0.814-1.474-1.018-1.853-1.041-1.938-0.010-0.035-0.021-0.109-0.026-0.164l-0.008-0.1 0.289 0.010 0.272 0.13c0.459 0.22 1.523 0.745 1.672 0.825 0.194 0.104 0.366 0.221 0.476 0.322 0.236 0.217 0.396 0.526 0.437 0.847 0.027 0.208 0.082 1.611 0.064 1.636-0.005 0.007-0.012 0.315-0.015 0.684-0.006 0.812-0.023 0.993-0.096 1.078-0.025 0.028-0.049 0.028-0.105 0zM5.050 21.308c-0.118-0.023-0.151-0.074-0.12-0.182 0.021-0.071 0.298-0.586 0.85-1.578 0.341-0.613 0.391-0.686 0.512-0.752 0.036-0.020 0.104-0.044 0.152-0.054 0.075-0.016 1.426-0.018 9.962-0.018h9.875l0.085 0.030c0.104 0.037 0.186 0.092 0.255 0.172 0.050 0.058 1.029 1.809 1.158 2.070 0.088 0.178 0.083 0.25-0.021 0.297-0.041 0.019-1.031 0.021-11.353 0.022-6.22 0.001-11.33-0.002-11.357-0.008zM6.902 17.988c-0.007-0.002-0.029-0.008-0.048-0.012-0.094-0.021-0.112-0.109-0.046-0.232 0.165-0.309 0.598-0.992 0.758-1.194 0.44-0.557 1.008-0.919 1.674-1.068 0.352-0.079 0.004-0.073 4.993-0.080 5.42-0.007 8.865 0.008 9.082 0.040 0.904 0.132 1.602 0.62 2.225 1.555 0.138 0.208 0.319 0.517 0.404 0.694 0.080 0.166 0.083 0.235 0.009 0.275-0.039 0.022-0.483 0.023-9.539 0.025-5.224 0.001-9.504 0-9.511-0.002zM9.63 14.668c-0.21-0.020-0.272-0.060-0.262-0.166 0.006-0.063 0.183-0.523 0.236-0.613 0.048-0.083 0.128-0.165 0.214-0.22 0.094-0.061 0.245-0.11 0.526-0.17 0.12-0.026 0.511-0.113 0.87-0.194s0.918-0.204 1.242-0.274c0.325-0.069 0.86-0.187 1.19-0.262 1.235-0.28 1.99-0.442 2.426-0.52 0.185-0.033 0.486-0.039 0.636-0.013 0.124 0.022 0.697 0.149 1.043 0.23 0.148 0.035 0.467 0.107 0.71 0.16s0.887 0.195 1.433 0.315c1.518 0.335 2.468 0.543 2.68 0.588 0.368 0.078 0.506 0.177 0.644 0.462 0.106 0.22 0.181 0.431 0.181 0.509 0 0.074-0.032 0.122-0.101 0.154-0.042 0.019-0.589 0.021-6.806 0.022-3.718 0.001-6.806-0.003-6.86-0.008zM12.198 12.339c-0.35-0.159-0.197-0.066-2.468-1.505-0.918-0.582-1.014-0.651-1.077-0.775-0.041-0.079-0.053-0.224-0.030-0.343 0.029-0.147 0.466-1.403 0.656-1.885 0.278-0.704 0.843-1.904 1.232-2.616 0.365-0.668 0.918-1.559 1.355-2.181 0.191-0.272 0.33-0.428 0.381-0.429 0.025-0 0.005 0.126-0.047 0.294-0.164 0.538-0.46 1.656-0.511 1.933-0.082 0.445-0.125 1.138-0.099 1.591 0.016 0.272 0.059 0.687 0.105 1.005 0.148 1.031 0.551 2.012 1.133 2.759 0.163 0.209 0.336 0.398 0.567 0.619 0.334 0.319 0.346 0.347 0.346 0.771v0.286l-0.035 0.069c-0.019 0.038-0.050 0.079-0.067 0.092-0.037 0.027-0.348 0.101-0.921 0.22-0.222 0.046-0.418 0.092-0.436 0.101-0.028 0.015-0.040 0.014-0.083-0.006zM20.245 12.296c-0.491-0.105-1.086-0.251-1.125-0.275-0.025-0.015-0.055-0.051-0.070-0.082-0.024-0.050-0.026-0.078-0.026-0.337 0-0.315 0.012-0.384 0.090-0.509 0.022-0.035 0.162-0.185 0.312-0.333 0.275-0.272 0.384-0.394 0.561-0.63 0.496-0.658 0.876-1.537 1.057-2.441 0.062-0.308 0.089-0.544 0.153-1.311l0.023-0.275-0.048-0.486c-0.099-0.999-0.128-1.134-0.488-2.335-0.12-0.401-0.155-0.533-0.154-0.586 0.001-0.037 0.004-0.071 0.008-0.074 0.054-0.054 0.485 0.543 1.067 1.478 0.806 1.293 1.514 2.705 1.971 3.927 0.229 0.612 0.556 1.605 0.58 1.758 0.022 0.144-0.016 0.273-0.114 0.381-0.026 0.029-0.11 0.094-0.188 0.145-0.16 0.105-1.6 1.018-2.276 1.443-0.246 0.154-0.507 0.321-0.581 0.371-0.302 0.202-0.447 0.235-0.751 0.17zM14.52 11.806c-0.068-0.034-0.075-0.071-0.076-0.406-0.002-0.515-0.059-0.652-0.384-0.927-0.5-0.422-0.866-0.889-1.169-1.494-0.305-0.609-0.494-1.256-0.585-2.006-0.034-0.278-0.048-0.997-0.026-1.318 0.078-1.122 0.35-2.115 0.852-3.107 0.251-0.495 0.497-0.892 0.652-1.049 0.149-0.151 0.313-0.247 0.508-0.3 0.136-0.036 0.803-0.12 1.225-0.154 0.352-0.028 0.874-0.053 0.881-0.043 0.004 0.006 0.178 0.011 0.385 0.011 0.344 0 0.408 0.004 0.729 0.042 0.613 0.072 0.958 0.132 1.1 0.189 0.205 0.083 0.418 0.272 0.578 0.512 0.186 0.281 0.472 0.823 0.642 1.217 0.538 1.248 0.755 2.559 0.64 3.864-0.067 0.765-0.268 1.493-0.588 2.135-0.293 0.588-0.642 1.038-1.128 1.457-0.2 0.173-0.271 0.251-0.324 0.358-0.069 0.14-0.089 0.251-0.103 0.562-0.007 0.155-0.016 0.311-0.020 0.347-0.008 0.072-0.038 0.115-0.091 0.128-0.034 0.008-0.363-0.059-1.207-0.247-0.467-0.104-0.605-0.121-0.788-0.096-0.057 0.008-0.33 0.063-0.608 0.124-0.415 0.091-1.041 0.224-1.052 0.224-0.001 0-0.023-0.010-0.047-0.022zM17.226 8.471c0.133-0.025 0.229-0.071 0.255-0.12 0.042-0.081 0.011-0.156-0.080-0.197-0.058-0.026-0.086-0.028-0.731-0.038-0.798-0.013-1.142-0.007-1.236 0.022-0.072 0.022-0.158 0.102-0.158 0.148 0 0.014 0.021 0.048 0.046 0.076 0.049 0.055 0.14 0.096 0.253 0.114 0.036 0.006 0.401 0.012 0.81 0.012 0.606 0.001 0.762-0.002 0.842-0.017zM14.408 5.712c0.089-0.019 0.297-0.111 0.803-0.357 0.245-0.119 0.437-0.22 0.467-0.246 0.048-0.042 0.051-0.049 0.049-0.109-0.003-0.088-0.054-0.199-0.108-0.232-0.066-0.040-0.161-0.044-0.522-0.022-0.187 0.012-0.46 0.027-0.608 0.034-0.307 0.015-0.689 0.043-0.94 0.071-0.258 0.028-0.331 0.074-0.343 0.215-0.005 0.059-0 0.080 0.031 0.136 0.092 0.169 0.397 0.37 0.689 0.453 0.247 0.071 0.355 0.083 0.482 0.056zM18.831 5.669c0.223-0.072 0.466-0.214 0.604-0.352 0.098-0.098 0.137-0.171 0.137-0.258 0-0.049-0.007-0.068-0.039-0.105-0.055-0.063-0.131-0.082-0.383-0.098-0.221-0.014-1.027-0.076-1.401-0.108-0.245-0.021-0.462-0.024-0.535-0.007-0.096 0.022-0.162 0.129-0.162 0.264 0 0.096 0.030 0.119 0.429 0.313 0.794 0.388 0.818 0.397 1.068 0.391 0.146-0.004 0.19-0.010 0.281-0.040z"></path>
</svg>
