<!-- Generated by IcoMoon.io -->
<svg version="1.1" xmlns="http://www.w3.org/2000/svg" width="32" height="32" viewBox="0 0 32 32">
<title>carcosa</title>
<path d="M21.098 15.154c-0.889 0.258-1.69 0.205-2.587 0.076-0.277-0.035-0.483-0.086-0.583-0.209-0.090-0.115-0.081-0.302 0.072-0.603 0.157-0.31 0.429-0.559 0.706-0.764 0.519-0.391 1.14-0.659 1.747-0.878 0.989-0.353 2.712-0.631 3.681-0.097-0.386 1.247-1.857 2.13-3.036 2.474zM17.803 20.162c-0.615-0.097-1.398 0.043-1.794 0.529-0.458-0.568-1.347-0.744-1.986-0.391l-0.167-0.021c0 0 1.681-0.882 2.062-3.17 0.053-0.296 0.105-0.291 0.149-0.003 0.353 2.3 1.942 3.041 1.942 3.041-0.109-0.038-0.095 0.028-0.205 0.014zM10.767 15.152c-1.179-0.343-2.65-1.227-3.037-2.474 0.964-0.534 2.693-0.257 3.676 0.097 0.611 0.219 1.232 0.486 1.753 0.878 0.276 0.205 0.549 0.453 0.706 0.764 0.153 0.301 0.162 0.488 0.066 0.603-0.095 0.123-0.306 0.176-0.582 0.209-0.897 0.13-1.7 0.182-2.583-0.076zM25.925 7.388c-0.238 0.172-0.425 0.425-0.516 0.711-0.035-0.759-0.338-1.498-0.84-2.047-0.087 0.176-0.172 0.348-0.258 0.519-0.172-0.066-0.373-0.028-0.526 0.087-0.003-0.010-0.010-0.014-0.014-0.021-0.058 0.435-0.090 0.826-0.081 1.060 0.014 0.258 0.233 2.369 0.634 2.397-3.113-0.215-5.958 1.327-7.189 3.333-0.082-1.022 1.365-2.292 2.53-2.913 1.165-0.626 2.254-0.754 3.642-1.084-0.286-0.979-0.271-2.635 0.167-3.91-0.090-0.43-0.291-0.836-0.315-1.217-0.090 0.158-0.372 0.692-0.463 0.845-0.376-0.592-0.353-1.332-0.697-1.991-0.028 0.058-0.058 0.115-0.086 0.172-0.134 0.273-0.268 0.559-0.435 0.807-0.449-0.687-0.429-1.255-0.955-2.077-0.125 0.496-0.248 0.992-0.378 1.485-0.253-0.416-0.554-0.826-0.754-1.275-0.115 0.067-0.215 0.158-0.32 0.238-0.186-0.076-0.286 0.33-0.348 0.588-0.066-0.024-0.133-0.044-0.201-0.058-0.243-0.335-0.629-0.946-0.739-1.099-0.167 0.177-0.23 0.559-0.343 0.846-0.163-0.028-0.325-0.053-0.493-0.072-0.163-0.539-0.534-1.032-1.050-1.38-0.33 0.598-0.678 0.893-1.041 1.375-0.133 0.014-0.266 0.038-0.401 0.053-0.229-0.233-0.592-0.506-0.592-0.506s-0.358 0.473-0.559 0.764c-0.082 0.021-0.167 0.038-0.248 0.062-0.373-0.153-0.636-0.363-0.798-0.702-0.176 0.463-0.606 0.83-0.749 1.341-0.233 0.12-0.468 0.253-0.692 0.387-0.249-0.187-0.521-0.54-0.755-0.721-0.056 0.549-0.253 1.060-0.223 1.403-0.024 0.014-0.048 0.035-0.072 0.053-0.181-0.219-0.444-0.506-0.559-0.672-0.167 0.419-0.639 1.255-0.706 1.751 0.31 1.208 0.286 2.635 0.028 3.509 1.39 0.33 2.479 0.458 3.643 1.084 1.165 0.621 2.635 1.891 2.554 2.913-1.237-2.006-4.082-3.548-7.19-3.333 0.401-0.028 0.616-2.139 0.636-2.397 0.007-0.248-0.035-0.692-0.097-1.175-0.014 0.021-0.028 0.035-0.048 0.053-0.003-0.416-0.095-0.812-0.314-1.16-0.028 0.143-0.053 0.286-0.082 0.43-0.391 0.644-0.779 1.288-1.17 1.934-0.062-0.062-0.123-0.12-0.186-0.177-0.248 1.227-0.345 2.487-0.296 3.744-0.139 0.922-0.177 1.857-0.144 2.783 0.053 1.217 0.798 4.956 1.572 5.457 1.423 0.926 2.177 3.065 2.616 4.598 0.468 1.608 1.423 2.955 2.001 4.521 0.22 0.611 0.468 1.293 1.098 1.643 0.779 0.434 1.858 0.319 2.712 0.262 0.014 0 0.028-0.003 0.043-0.003s0.028 0.003 0.043 0.003c0.859 0.058 1.934 0.172 2.712-0.262 0.631-0.35 0.879-1.032 1.102-1.643 0.573-1.566 1.528-2.913 1.991-4.521 0.445-1.533 1.194-3.672 2.622-4.598 0.774-0.501 1.518-4.24 1.566-5.457 0.021-0.338 0.021-0.683 0.014-1.027 0.143-1.901 0.143-3.814-0.003-5.715z"></path>
</svg>
