<!-- Generated by IcoMoon.io -->
<svg version="1.1" xmlns="http://www.w3.org/2000/svg" width="32" height="32" viewBox="0 0 32 32">
<title>card_guards</title>
<path d="M9.57 29.511c-0.582-0.316-0.525-0.189-2.704-6.038-3.731-10.014-4.573-12.401-4.573-12.957 0-1.029 0.591-1.495 3.054-2.408 1.26-0.467 2.324-0.816 2.364-0.775s0.302 2.605 0.581 5.699c1.182 13.076 1.096 12.518 2.037 13.135 0.259 0.17 0.888 0.314 1.398 0.321 0.817 0.011 6.331-0.448 8.697-0.723 0.736-0.086 0.828-0.059 0.626 0.185-0.13 0.157-0.563 0.392-0.961 0.522s-2.582 0.934-4.853 1.786c-2.271 0.852-4.358 1.546-4.638 1.542s-0.743-0.135-1.029-0.29zM10.56 25.96c-0.755-0.41-0.912-1.014-1.254-4.836-1.088-12.145-1.296-14.355-1.39-14.752-0.139-0.591 0.36-1.742 0.876-2.017 0.395-0.211 6.671-0.921 6.812-0.77 0.037 0.040-0.65 4.275-1.528 9.412-1.582 9.263-1.592 9.345-1.243 9.993 0.194 0.359 0.587 0.76 0.873 0.891s2.026 0.498 3.866 0.816c3.020 0.522 4.042 0.764 3.256 0.773-0.154 0.002-2.189 0.178-4.523 0.392-5.008 0.459-5.081 0.46-5.746 0.099zM19.141 24.783c-2.999-0.518-5.159-0.987-5.462-1.185-1.048-0.687-1.043-0.769 0.658-10.755 0.866-5.081 1.574-9.33 1.574-9.443s0.23-0.478 0.511-0.813c0.682-0.81 1.011-0.798 7.18 0.265 4.675 0.806 5.058 0.903 5.477 1.389 0.259 0.301 0.45 0.783 0.45 1.134 0 0.336-0.714 4.794-1.587 9.907-1.746 10.233-1.707 10.105-3.161 10.277-0.374 0.044-2.913-0.305-5.641-0.776zM21.21 17.178c0.405-0.325 1.576-1.014 2.604-1.53 2.167-1.089 2.756-1.76 2.756-3.145 0-1.192-0.446-2.151-1.222-2.624-1.073-0.654-2.291-0.438-3.201 0.567-0.436 0.482-0.709 0.533-0.709 0.134 0-0.447-1.008-1.525-1.694-1.811-2.164-0.904-4.339 2.287-3.027 4.441 0.225 0.369 1.009 1.257 1.743 1.974s1.459 1.591 1.612 1.944c0.153 0.353 0.306 0.641 0.34 0.641s0.393-0.266 0.798-0.592z"></path>
</svg>
