<!-- Generated by IcoMoon.io -->
<svg version="1.1" xmlns="http://www.w3.org/2000/svg" width="32" height="32" viewBox="0 0 32 32">
<title>card-outline</title>
<path fill="#394852" d="M14.225 3.309c-1.485-0.398-3.033 0.494-3.431 1.978l-4.656 17.387c-0.398 1.485 0.493 3.030 1.978 3.428l9.659 2.587c1.485 0.398 3.033-0.494 3.431-1.978l4.656-17.387c0.398-1.485-0.494-3.030-1.978-3.428zM13.809 4.853l9.659 2.588c0.649 0.174 1.024 0.823 0.85 1.472l-4.659 17.384c-0.174 0.649-0.819 1.024-1.469 0.85l-9.659-2.587c-0.649-0.174-1.024-0.823-0.85-1.472l4.659-17.384c0.174-0.649 0.819-1.024 1.469-0.85z"></path>
<path fill="#394852" d="M18.019 8.466c-2.018-0.541-4.112 0.669-4.653 2.688s0.669 4.112 2.688 4.653c2.018 0.541 4.112-0.669 4.653-2.688s-0.669-4.112-2.688-4.653zM17.603 10.012c1.183 0.317 1.873 1.511 1.556 2.694s-1.511 1.873-2.694 1.556c-1.183-0.317-1.873-1.514-1.556-2.697s1.511-1.87 2.694-1.553z"></path>
<path fill="#394852" d="M15.431 18.125c-0.951-0.255-1.951 0.321-2.206 1.272s0.324 1.951 1.275 2.206c0.951 0.255 1.948-0.324 2.203-1.275s-0.321-1.948-1.272-2.203zM15.016 19.672c0.116 0.031 0.175 0.128 0.144 0.244s-0.131 0.172-0.247 0.141c-0.116-0.031-0.172-0.128-0.141-0.244s0.128-0.172 0.244-0.141z"></path>
</svg>
