<!-- Generated by IcoMoon.io -->
<svg version="1.1" xmlns="http://www.w3.org/2000/svg" width="32" height="32" viewBox="0 0 32 32">
<title>carnevale</title>
<path d="M5.877 23.797c-1.514-2.104-2.397-4.431-2.397-6.304 0-1.526 0.598-3.634 1.032-3.634 0.144 0 0.538-0.608 0.875-1.354 0.757-1.678 2.279-3.136 4.962-4.754 2.042-1.232 2.119-1.247 5.971-1.251h3.901l2.137 1.429c2.145 1.429 4.601 3.948 4.601 4.713 0 0.226 0.297 0.679 0.661 1.006 0.364 0.33 0.864 1.32 1.11 2.204 0.408 1.462 0.374 1.826-0.383 4.012-0.534 1.544-1.354 2.987-2.286 4.034-1.421 1.588-1.495 1.622-3.177 1.462-1.992-0.193-4.928-2.030-5.67-3.551-0.249-0.516-0.65-0.94-0.891-0.94-0.237 0-1.128 0.709-1.978 1.577-0.853 0.868-1.696 1.578-1.877 1.578-0.179 0-0.52 0.263-0.753 0.586-0.294 0.401-1.103 0.638-2.524 0.738l-2.093 0.152zM10.839 23.956c1.392-0.319 1.918-0.635 2.301-1.38 1.258-2.427 3.146-2.65 5.184-0.616 1.811 1.814 4.275 2.59 5.978 1.877 1.469-0.612 2.252-1.54 2.527-2.991 0.126-0.661 0.423-1.44 0.66-1.73 1.166-1.421 0.794-3.291-1.143-5.722-0.434-0.545-0.798-1.176-0.809-1.403s-1.153-1.276-2.537-2.337l-2.524-1.927-8.238-0.234-2.208 1.577c-2.556 1.822-4.386 3.923-5.451 6.26-0.928 2.042-0.939 2.75-0.048 3.882 0.386 0.49 0.701 1.18 0.705 1.536 0.004 0.991 1.24 2.642 2.338 3.128 1.277 0.568 1.166 0.564 3.266 0.078zM8.813 18.958c-0.442-0.245-1.176-0.794-1.633-1.226-0.798-0.75-0.808-0.816-0.252-1.781 0.746-1.306 1.766-1.74 4.059-1.74 2.044 0 2.268 0.167 2.98 2.256 0.452 1.329 0.434 1.411-0.471 2.19-1.065 0.913-3.311 1.057-4.683 0.301zM18.899 18.98c-1.035-0.393-1.217-0.627-1.172-1.481 0.137-2.705 1.491-3.837 4.238-3.536 1.677 0.181 4.044 1.766 3.878 2.593-0.179 0.868-2.809 2.523-4.316 2.713-0.769 0.096-1.952-0.034-2.628-0.29z"></path>
</svg>
