<!-- Generated by IcoMoon.io -->
<svg version="1.1" xmlns="http://www.w3.org/2000/svg" width="32" height="32" viewBox="0 0 32 32">
<title>caterpillar</title>
<path d="M16.070 11.627c0.001 0.274 0.224 0.494 0.496 0.493s0.493-0.224 0.492-0.497l-0.005-1.013c0.332 0.076 0.665 0.105 0.998 0.085 0.311-0.019 0.62-0.082 0.926-0.189l0.493 0.594c0.175 0.211 0.487 0.239 0.696 0.064s0.239-0.487 0.064-0.698l-0.347-0.418c0.258-0.171 0.513-0.376 0.767-0.618 0.352 0.159 0.704 0.296 1.054 0.389v1.015c0 0.274 0.222 0.497 0.496 0.497s0.496-0.223 0.496-0.497v-0.889c0.554-0.017 1.080-0.2 1.558-0.634 0.366 0.309 0.815 0.521 1.307 0.6l0.58 1.006c0.137 0.237 0.44 0.318 0.676 0.181s0.317-0.441 0.18-0.678l-0.325-0.565c0.395-0.105 0.755-0.299 1.057-0.558l0.065 0.085c0.095 0.174 0.138 0.454 0.137 0.841 0 0.22 0.179 0.4 0.399 0.4s0.399-0.179 0.399-0.4c0.001-0.524-0.072-0.931-0.234-1.226-0.067-0.123-0.146-0.226-0.238-0.31 0.247-0.391 0.396-0.851 0.412-1.343 0.12-0.016 0.24-0.054 0.36-0.113 0.304-0.148 0.598-0.438 0.899-0.868 0.126-0.181 0.082-0.431-0.099-0.557s-0.43-0.082-0.555 0.099c-0.222 0.316-0.417 0.52-0.592 0.605l-0.108 0.034c-0.177-0.65-0.587-1.193-1.126-1.546-0.684-0.447-1.543-0.561-2.316-0.298-0.5-0.815-1.11-1.371-1.845-1.637-0.778-0.281-1.667-0.227-2.675 0.2-1.11-0.923-2.187-1.32-3.234-1.254-1.034 0.066-2.009 0.582-2.93 1.482-1.436-0.549-2.715-0.65-3.799-0.201-1.096 0.455-1.954 1.452-2.529 3.092-1.493 0.065-2.604 0.491-3.314 1.294-0.73 0.825-1.008 2.012-0.813 3.574-0.923 0.886-1.738 1.987-1.945 3.282-0.18 1.121 0.127 2.235 1.021 3.259-0.329 1.098-0.332 1.966-0.040 2.69 0.277 0.687 0.801 1.214 1.548 1.656-0.309 0.994-0.253 1.845 0.132 2.566 0.398 0.746 1.138 1.319 2.181 1.737 0.477 1.538 1.426 2.285 2.421 2.47 0.4 0.075 0.805 0.056 1.189-0.040l0.204 0.762c0.071 0.265 0.343 0.422 0.607 0.352s0.421-0.343 0.351-0.609l-0.243-0.908c0.193-0.126 0.371-0.275 0.53-0.443l0.771 0.446c0.236 0.136 0.539 0.054 0.675-0.183s0.054-0.54-0.182-0.676l-0.716-0.414c0.059-0.137 0.106-0.279 0.143-0.427 0.17-0.7 0.069-1.505-0.445-2.322l0.75-0.451c0.234-0.14 0.31-0.445 0.171-0.68s-0.444-0.311-0.679-0.171l-0.866 0.52-0.261-0.251c0.039-0.369 0.044-0.723 0.009-1.058l0.55-0.141c0.265-0.067 0.426-0.338 0.359-0.604s-0.338-0.427-0.603-0.36l-0.547 0.141c-0.219-0.517-0.577-0.956-1.104-1.295l0.026-0.124 1.147-0.342c0.262-0.077 0.412-0.353 0.335-0.616s-0.352-0.413-0.615-0.335l-0.734 0.218c0.002-0.108-0.001-0.217-0.009-0.325-0.043-0.558-0.221-1.098-0.633-1.606l0.173-0.275 0.892 0.519c0.236 0.137 0.539 0.057 0.676-0.18s0.056-0.541-0.18-0.678l-1.015-0.59c0.097-0.428 0.1-0.885-0.027-1.38 0.296-0.118 0.571-0.268 0.82-0.456l0.611 0.546c0.204 0.183 0.518 0.164 0.699-0.041s0.164-0.519-0.041-0.701l-0.574-0.512c0.338-0.466 0.585-1.054 0.722-1.787 0.213 0.011 0.426 0.014 0.639 0.003l0.444 0.983c0.113 0.25 0.407 0.361 0.656 0.249s0.361-0.407 0.248-0.657l-0.343-0.759c0.684-0.214 1.263-0.716 1.684-1.286 0.161 0.103 0.321 0.196 0.483 0.278z"></path>
</svg>
