<!-- Generated by IcoMoon.io -->
<svg version="1.1" xmlns="http://www.w3.org/2000/svg" width="32" height="32" viewBox="0 0 32 32">
<title>chaos-bag-thin</title>
<path fill="#394852" d="M13 4.741c-1.11-0.034-2.252 0.153-3.391 0.787l0.781 1.4c1.723-0.96 3.43-0.59 5.416-0.094s4.225 1.141 6.519 0.125l-0.65-1.463c-1.706 0.756-3.467 0.288-5.481-0.216-1.007-0.252-2.084-0.507-3.194-0.541zM11.509 9.2l-0.222 0.438c-0.68 1.344-2.072 2.302-3.438 3.594s-2.65 3.034-2.65 5.769c0 2.692 1.049 4.777 2.959 6.041s4.557 1.759 7.841 1.759c3.674 0 6.33-0.485 8.159-1.772s2.641-3.379 2.641-6.028c0-2.767-1.447-4.528-2.734-5.816-0.644-0.644-1.25-1.197-1.656-1.713s-0.609-0.944-0.609-1.472h-1.6c0 0.972 0.422 1.793 0.953 2.466s1.175 1.244 1.781 1.85c1.212 1.212 2.266 2.451 2.266 4.684 0 2.351-0.589 3.758-1.959 4.722s-3.715 1.478-7.241 1.478c-3.117 0-5.469-0.505-6.959-1.491s-2.241-2.401-2.241-4.709c0-2.265 0.916-3.439 2.15-4.606 1.115-1.054 2.479-2.078 3.422-3.594h2.828v7.109h1.6v-6.966c0.048 0.018 0.136 0.009 0.178 0.031 0.233 0.12 0.436 0.304 0.653 0.744 0.435 0.88 0.769 2.783 0.769 6.191h1.6c0-3.501-0.266-5.553-0.931-6.9-0.333-0.674-0.805-1.172-1.359-1.456s-1.143-0.353-1.709-0.353z"></path>
</svg>
