<!-- Generated by IcoMoon.io -->
<svg version="1.1" xmlns="http://www.w3.org/2000/svg" width="32" height="32" viewBox="0 0 32 32">
<title>children_of_paradise</title>
<path d="M21.964 15.663c-0.195 0.442-0.471 0.861-0.759 1.15-0.034 0.035-0.065 0.072-0.094 0.11-0.041 0.053-0.078 0.099-0.126 0.132-0.040 0.027-0.081 0.052-0.122 0.077-0.053 0.031-0.106 0.063-0.158 0.099-0.128 0.093-0.263 0.149-0.406 0.208-0.057 0.024-0.113 0.047-0.171 0.073-0.34 0.153-0.699 0.24-1.017 0.236-0.057 0-0.125 0.003-0.191 0.007-0.111 0.008-0.227 0.014-0.318-0.002-0.077-0.015-0.165-0.044-0.25-0.072l-0.098-0.031c-0.152-0.046-0.371-0.184-0.508-0.322-0.054-0.053-0.11-0.129-0.153-0.205-0.021-0.037-0.050-0.117-0.063-0.17-0.004-0.018-0.003-0.041-0.002-0.070 0.002-0.037 0.004-0.080-0.006-0.126-0.008-0.039-0.024-0.066-0.034-0.087-0.011-0.020-0.014-0.028-0.017-0.043-0.003-0.035-0.001-0.072 0-0.107 0.001-0.027 0.002-0.053 0.002-0.078l-0.001-0.037c0-0.045-0.001-0.084 0.012-0.132 0.017-0.060 0.027-0.097 0.033-0.109 0.045-0.079 0.218-0.207 0.349-0.214 0.003 0 0.007 0 0.009 0 0.011 0 0.019 0.001 0.027 0.002-0.072 0.165-0.137 0.339-0.115 0.551 0.031 0.293 0.39 0.42 0.562 0.483 0.040 0.014 0.076 0.034 0.111 0.054 0.055 0.031 0.118 0.066 0.195 0.084 0.145 0.035 0.294 0.058 0.421 0.064 0.368 0.020 0.651-0.025 0.92-0.145 0.039-0.018 0.080-0.033 0.122-0.048 0.078-0.028 0.157-0.058 0.233-0.102 0.079-0.046 0.151-0.107 0.221-0.165l0.050-0.041c0.128-0.106 0.165-0.259 0.2-0.393 0.015-0.060 0.030-0.116 0.050-0.159l0.021-0.050c0.027-0.059 0.046-0.101 0.083-0.142 0.032-0.037 0.078-0.065 0.125-0.096 0.030-0.020 0.060-0.039 0.089-0.060 0.050-0.037 0.096-0.074 0.141-0.111 0.050-0.040 0.099-0.080 0.151-0.119 0.066-0.048 0.293-0.223 0.413-0.423 0.028-0.048 0.047-0.098 0.065-0.145 0.013-0.035 0.025-0.072 0.044-0.104 0.032-0.054 0.054-0.11 0.077-0.165 0.012-0.030 0.024-0.058 0.037-0.087 0.058-0.125 0.076-0.205 0.094-0.338 0.012-0.083 0.035-0.171 0.059-0.256l0.007-0.026c0.002-0.007 0.004-0.014 0.006-0.020 0 0.202 0.001 0.404 0.002 0.604 0.002 0.335-0.161 0.705-0.305 1.031l-0.015 0.035zM12.907 24.861c-0.031-0.011-0.059-0.014-0.083-0.018-0.014-0.001-0.031-0.003-0.037-0.007-0.012-0.004-0.026-0.017-0.043-0.030-0.021-0.018-0.044-0.034-0.068-0.048-0.046-0.026-0.094-0.051-0.142-0.076-0.070-0.035-0.139-0.072-0.207-0.116-0.035-0.022-0.074-0.041-0.112-0.059-0.026-0.012-0.051-0.024-0.074-0.038-0.044-0.027-0.080-0.064-0.123-0.105l-0.039-0.039c-0.073-0.072-0.113-0.15-0.165-0.25l-0.034-0.066c-0.043-0.080-0.099-0.149-0.155-0.216-0.030-0.035-0.059-0.071-0.086-0.109-0.157-0.221-0.295-0.482-0.386-0.734-0.015-0.041-0.031-0.081-0.046-0.122-0.034-0.086-0.066-0.168-0.087-0.257l-0.021-0.090c-0.033-0.138-0.067-0.282-0.113-0.42-0.101-0.309-0.153-0.613-0.155-0.903 0-0.084-0.001-0.168-0.001-0.25-0.002-0.158-0.003-0.314 0-0.471 0.003-0.098 0.027-0.194 0.052-0.283 0.025-0.089 0.032-0.163 0.038-0.236 0.003-0.035 0.007-0.072 0.013-0.112 0.013-0.099 0.032-0.213 0.053-0.311 0.001-0.004 0.006-0.014 0.011-0.024 0.011-0.022 0.026-0.052 0.032-0.091 0.007-0.047 0.004-0.089 0.003-0.126-0.002-0.033-0.003-0.063 0.002-0.090 0.028-0.12 0.045-0.244 0.059-0.362 0.009-0.068 0.018-0.137 0.028-0.204 0.012-0.074 0.024-0.149 0.034-0.222 0.026-0.175 0.050-0.34 0.090-0.511 0.028-0.119 0.037-0.242 0.046-0.36 0.008-0.107 0.015-0.208 0.035-0.305 0.008-0.037 0.022-0.070 0.037-0.104 0.021-0.051 0.045-0.109 0.054-0.175 0.004-0.033 0.007-0.068 0.009-0.103 0.004-0.066 0.008-0.129 0.031-0.181 0.024-0.055 0.064-0.117 0.116-0.175l0.048-0.057c0.066-0.079 0.087-0.102 0.131-0.102 0.008 0 0.017 0.001 0.027 0.002l0.392 0.001c0.035-0.001 0.067-0.002 0.102-0.003 0.053-0.002 0.106-0.006 0.156 0 0.020 0.002 0.043 0.011 0.067 0.021 0.033 0.012 0.071 0.026 0.115 0.033 0.292 0.039 0.489 0.123 0.555 0.235 0.058 0.098 0.077 0.155 0.080 0.242 0.002 0.076 0.011 0.12 0.051 0.201 0.014 0.024 0.031 0.045 0.051 0.064l-0.011 0.040 0.019 0.037c0.054 0.106 0.183 0.229 0.323 0.256 0.033 0.007 0.064 0.006 0.090 0.006 0.017-0.001 0.034-0.001 0.045 0.001 0.012 0.002 0.024 0.007 0.037 0.013 0.012 0.005 0.024 0.009 0.038 0.014 0.002 0.044 0 0.093-0.002 0.14-0.002 0.035-0.003 0.071-0.003 0.104 0 0.038 0.002 0.078 0.004 0.12 0.004 0.072 0.009 0.146-0.001 0.202-0.006 0.035-0.014 0.065-0.022 0.093-0.021 0.078-0.047 0.168-0.015 0.294 0.034 0.143 0.111 0.25 0.181 0.338 0.143 0.175 0.293 0.208 0.451 0.242 0.038 0.008 0.078 0.017 0.119 0.028 0.283 0.074 0.47-0.064 0.635-0.188 0.018-0.014 0.037-0.027 0.055-0.041 0.022 0.033 0.046 0.073 0.063 0.103 0.035 0.060 0.067 0.107 0.107 0.163l0.018 0.027c0.129 0.184 0.213 0.328 0.272 0.469 0.044 0.105 0.094 0.205 0.144 0.306 0.116 0.228 0.224 0.444 0.236 0.682 0.002 0.061 0.015 0.113 0.027 0.159s0.022 0.085 0.022 0.13c0 0.085 0.020 0.13 0.035 0.165 0.006 0.014 0.013 0.028 0.019 0.052 0.001 0.006-0.002 0.024-0.003 0.037-0.004 0.030-0.009 0.066-0.003 0.105 0.008 0.044 0.024 0.077 0.037 0.104 0.009 0.018 0.015 0.032 0.018 0.044 0.001 0.006-0.001 0.024-0.003 0.037-0.004 0.033-0.011 0.074 0 0.118 0.010 0.040 0.026 0.068 0.039 0.090 0.008 0.014 0.013 0.021 0.014 0.029 0.024 0.096 0.001 0.2-0.021 0.309-0.013 0.058-0.025 0.115-0.031 0.169-0.002 0.030-0.011 0.053-0.020 0.081-0.011 0.032-0.021 0.064-0.028 0.104-0.020 0.111-0.045 0.241-0.081 0.365-0.031 0.102-0.044 0.195-0.057 0.285-0.006 0.039-0.012 0.079-0.019 0.12-0.012 0.072-0.040 0.143-0.070 0.217-0.030 0.073-0.060 0.149-0.078 0.231-0.009 0.041-0.022 0.081-0.035 0.123-0.024 0.073-0.048 0.151-0.053 0.235-0.006 0.076-0.003 0.152-0.001 0.229 0.001 0.045 0.002 0.089 0.001 0.132-0.001 0.222 0.073 0.417 0.144 0.582l0.019 0.046c0.054 0.132 0.117 0.281 0.259 0.375 0.083 0.055 0.15 0.060 0.216 0.066l0.048 0.004c0.032 0.004 0.057 0.013 0.082 0.020 0.046 0.015 0.098 0.031 0.176 0.031 0.021 0 0.044 0.001 0.065 0.001 0.064 0.002 0.136 0.004 0.207-0.014 0.038-0.011 0.073-0.026 0.107-0.043 0.027-0.013 0.056-0.026 0.066-0.031 0.053-0.003 0.107-0.012 0.161-0.026l0.043-0.018 0.024-0.039c0.048-0.021 0.105-0.032 0.164-0.044 0.063-0.013 0.126-0.026 0.191-0.051 0.13-0.051 0.24-0.112 0.357-0.178l0.123-0.067c0.196-0.107 0.398-0.218 0.568-0.36 0.39-0.323 0.778-0.652 1.162-0.978 0.11-0.093 0.217-0.211 0.305-0.332-0.061 0.203-0.192 0.424-0.375 0.628-0.043 0.047-0.093 0.089-0.146 0.133-0.048 0.041-0.099 0.083-0.144 0.13-0.033 0.034-0.067 0.058-0.102 0.083-0.027 0.020-0.054 0.039-0.081 0.061-0.026 0.022-0.054 0.043-0.085 0.064-0.048 0.033-0.097 0.067-0.136 0.105-0.030 0.028-0.051 0.054-0.072 0.080-0.022 0.028-0.039 0.050-0.067 0.070-0.047 0.032-0.096 0.057-0.144 0.081-0.041 0.021-0.083 0.043-0.124 0.067-0.097 0.060-0.207 0.113-0.312 0.164l-0.092 0.045c-0.066 0.033-0.12 0.074-0.168 0.111-0.043 0.033-0.083 0.064-0.126 0.086-0.129 0.064-0.254 0.116-0.335 0.139-0.109 0.032-0.222 0.058-0.334 0.085l-0.129 0.030c-0.054 0.013-0.11 0.026-0.159 0.040-0.055 0.015-0.097 0.041-0.13 0.063s-0.052 0.032-0.078 0.037l-0.085 0.014c-0.097 0.017-0.194 0.029-0.288 0.032l-0.070-0.001c-0.043 0-0.085-0.001-0.129 0-0.067 0.002-0.119 0.018-0.165 0.032-0.025 0.008-0.050 0.017-0.080 0.021-0.234 0.037-0.452-0.019-0.685-0.078-0.080-0.021-0.162-0.043-0.244-0.059-0.058-0.012-0.115-0.021-0.172-0.031-0.071-0.011-0.141-0.021-0.211-0.039l-0.077-0.020c-0.039-0.009-0.078-0.020-0.119-0.030-0.050-0.011-0.1-0.018-0.151-0.024-0.041-0.006-0.081-0.011-0.122-0.019-0.138-0.028-0.275-0.076-0.419-0.124-0.124-0.041-0.253-0.085-0.384-0.117-0.051-0.012-0.103-0.022-0.155-0.033-0.090-0.018-0.174-0.034-0.254-0.061-0.025-0.007-0.046-0.019-0.068-0.031-0.030-0.014-0.060-0.030-0.096-0.043zM9.959 23.692l-0.012-0.040c-0.031-0.106-0.063-0.2-0.12-0.313-0.045-0.087-0.066-0.169-0.091-0.263-0.011-0.039-0.022-0.080-0.035-0.123-0.012-0.041-0.025-0.089-0.038-0.137-0.042-0.164-0.092-0.351-0.183-0.479-0.157-0.221-0.215-0.456-0.253-0.739-0.063-0.465-0.158-0.893-0.26-1.326-0.125-0.538-0.142-1.11-0.046-1.61 0.026-0.139 0.044-0.269 0.060-0.408 0.020-0.162 0.066-0.307 0.116-0.46 0.020-0.061 0.040-0.123 0.058-0.187 0.054-0.184 0.076-0.374 0.097-0.558 0.030-0.246 0.057-0.479 0.153-0.692 0.089-0.196 0.201-0.386 0.308-0.569 0.131-0.223 0.267-0.453 0.368-0.704 0.1-0.246 0.212-0.49 0.32-0.726l0.115-0.254c0.067-0.149 0.125-0.303 0.179-0.452 0.066-0.177 0.133-0.361 0.217-0.531l0.066-0.136c0.045-0.093 0.090-0.187 0.137-0.276 0.078-0.146 0.175-0.273 0.277-0.406 0.070-0.090 0.138-0.18 0.202-0.275 0.055-0.085 0.11-0.172 0.164-0.26 0.103-0.164 0.208-0.334 0.325-0.485 0.073-0.094 0.162-0.177 0.255-0.264 0.077-0.071 0.156-0.145 0.228-0.227 0.104-0.122 0.192-0.256 0.277-0.386 0.038-0.058 0.076-0.116 0.115-0.172 0.030-0.043 0.061-0.083 0.092-0.123 0.032-0.040 0.064-0.081 0.093-0.124 0.053-0.076 0.083-0.153 0.112-0.229 0.018-0.047 0.035-0.096 0.060-0.141 0.096-0.174 0.242-0.299 0.398-0.43l0.040-0.034c0.224-0.191 0.424-0.344 0.661-0.466 0.178-0.091 0.386-0.158 0.586-0.222l0.159-0.052c0.295-0.098 0.621-0.158 0.902-0.205 0.431-0.071 0.871-0.106 1.349-0.106h0.665c0.104 0 0.21-0.002 0.318-0.006 0.298-0.011 0.604-0.020 0.881 0.046 0.354 0.085 0.76 0.254 1.060 0.443 0.043 0.027 0.085 0.057 0.128 0.086 0.071 0.050 0.144 0.1 0.234 0.148 0.091 0.037 0.178 0.084 0.246 0.131 0.068 0.065 0.138 0.129 0.217 0.198 0.028 0.021 0.059 0.038 0.091 0.053 0.032 0.017 0.063 0.032 0.081 0.051 0.066 0.065 0.128 0.184 0.177 0.28l0.027 0.051c0.039 0.074 0.070 0.152 0.1 0.236 0.031 0.078 0.060 0.156 0.097 0.23 0.092 0.183 0.13 0.349 0.103 0.457-0.015 0.063-0.038 0.103-0.086 0.152-0.048 0.048-0.114 0.094-0.149 0.101-0.001 0.001-0.002 0.001-0.004 0.001-0.002-0.002-0.006-0.007-0.011-0.011-0.072-0.071-0.14-0.143-0.209-0.216-0.086-0.091-0.172-0.182-0.264-0.268-0.136-0.129-0.275-0.231-0.467-0.344-0.072-0.041-0.143-0.085-0.211-0.128-0.202-0.124-0.41-0.253-0.649-0.337l-0.136-0.050c-0.15-0.055-0.306-0.112-0.465-0.148-1.027-0.231-1.721-0.065-2.065 0.496l-0.039 0.012-0.189 0.913 0.374-0.731c0.099-0.017 0.221-0.008 0.34 0 0.068 0.003 0.133 0.008 0.192 0.008h0.419c0.27 0.001 0.541 0.001 0.811 0 0.032 0 0.064-0.001 0.097-0.003 0.072-0.003 0.146-0.007 0.203 0.008 0.011 0.002 0.032 0.017 0.050 0.026 0.028 0.018 0.060 0.037 0.097 0.048 0.109 0.035 0.21 0.080 0.318 0.128 0.103 0.046 0.209 0.093 0.323 0.131 0.152 0.051 0.287 0.124 0.43 0.201l0.063 0.034c0.051 0.027 0.103 0.051 0.156 0.076 0.078 0.035 0.152 0.068 0.214 0.111 0.090 0.060 0.212 0.169 0.299 0.263l0.047 0.052c0.086 0.093 0.192 0.21 0.249 0.301 0.12 0.196 0.195 0.452 0.264 0.697 0.046 0.159 0.048 0.313 0.048 0.475 0.001 0.076 0.001 0.151 0.006 0.23 0.006 0.089 0.018 0.176 0.030 0.263 0.024 0.174 0.045 0.339 0.013 0.503-0.021 0.111-0.033 0.223-0.044 0.331-0.012 0.122-0.024 0.236-0.048 0.348-0.014 0.064-0.066 0.116-0.125 0.176-0.044 0.044-0.090 0.090-0.126 0.146-0.024 0.038-0.045 0.072-0.064 0.105-0.045 0.077-0.081 0.137-0.158 0.214-0.113 0.113-0.211 0.211-0.344 0.28-0.050 0.026-0.099 0.056-0.149 0.086-0.073 0.045-0.149 0.090-0.216 0.117-0.194 0.074-0.385 0.114-0.588 0.157l-0.15 0.032c-0.102 0.022-0.225 0.018-0.346 0.013l-0.098-0.003c-0.058-0.001-0.077-0.011-0.12-0.034-0.026-0.014-0.054-0.030-0.094-0.045-0.21-0.086-0.393-0.183-0.558-0.295-0.030-0.020-0.061-0.039-0.093-0.059-0.058-0.037-0.118-0.073-0.163-0.113-0.060-0.053-0.111-0.148-0.158-0.239-0.035-0.066-0.035-0.118-0.034-0.228 0.001-0.078-0.015-0.145-0.030-0.205-0.011-0.046-0.021-0.089-0.022-0.132-0.001-0.028 0.008-0.061 0.020-0.098 0.014-0.043 0.028-0.090 0.033-0.145 0.007-0.089 0.015-0.12 0.052-0.205 0.011-0.026 0.020-0.050 0.030-0.072 0.019-0.051 0.031-0.084 0.063-0.123 0.074-0.090 0.146-0.177 0.223-0.269 0.068-0.081 0.21-0.253 0.336-0.297 0.047-0.017 0.157-0.020 0.213-0.008 0.032 0.007 0.076 0.038 0.081 0.044-0.015 0.044-0.146 0.098-0.203 0.12-0.030 0.013-0.056 0.024-0.076 0.034-0.2 0.098-0.241 0.224-0.288 0.371l-0.031 0.089c-0.061 0.177-0.126 0.36-0.071 0.573 0.040 0.157 0.155 0.299 0.331 0.408 0.117 0.072 0.197 0.073 0.312 0.076 0.040 0 0.078 0.011 0.122 0.021 0.045 0.013 0.097 0.027 0.157 0.031l0.050 0.002c0.161 0.009 0.36 0.020 0.517-0.018 0.437-0.105 0.793-0.495 0.907-0.992 0.020-0.089 0.017-0.179 0.014-0.261-0.001-0.026-0.002-0.052-0.002-0.077-0.001-0.057 0.011-0.109 0.021-0.165 0.009-0.044 0.018-0.086 0.022-0.132 0.024-0.22-0.099-0.514-0.227-0.679-0.13-0.17-0.273-0.27-0.407-0.354-0.015-0.009-0.033-0.024-0.051-0.039-0.039-0.031-0.079-0.064-0.124-0.081-0.053-0.021-0.106-0.032-0.153-0.040-0.029-0.006-0.059-0.012-0.087-0.020-0.032-0.011-0.065-0.024-0.098-0.037-0.051-0.020-0.102-0.040-0.153-0.053-0.066-0.017-0.128-0.014-0.182-0.012-0.032 0.002-0.064 0.003-0.097 0-0.030-0.003-0.057-0.013-0.084-0.021-0.041-0.013-0.089-0.027-0.145-0.031-0.103-0.006-0.174 0.021-0.241 0.050l-0.048 0.019c-0.226 0.085-0.535 0.201-0.684 0.478-0.099 0.185-0.174 0.391-0.246 0.588-0.038 0.103-0.074 0.204-0.115 0.301-0.013 0.032-0.013 0.063-0.006 0.085-0.006 0.009-0.017 0.021-0.026 0.033-0.019 0.025-0.038 0.048-0.047 0.067-0.018 0.033-0.038 0.063-0.058 0.092-0.017 0.027-0.034 0.053-0.051 0.080-0.094 0.162-0.185 0.302-0.344 0.38-0.385 0.189-0.692 0.269-1.026 0.269-0.046 0-0.098 0.005-0.151 0.008-0.092 0.007-0.197 0.014-0.268-0.006-0.015-0.013-0.041-0.034-0.084-0.047-0.032-0.009-0.061-0.009-0.102-0.008-0.058-0.017-0.133-0.052-0.201-0.083l-0.079-0.037c-0.125-0.054-0.212-0.1-0.313-0.189-0.034-0.028-0.067-0.073-0.101-0.122-0.070-0.094-0.148-0.202-0.276-0.244-0.332-0.111-0.629-0.011-0.917 0.086l-0.072 0.025c-0.071 0.022-0.141 0.056-0.213 0.090-0.044 0.020-0.089 0.041-0.135 0.060-0.059 0.025-0.124 0.045-0.19 0.066-0.149 0.046-0.303 0.094-0.425 0.191-0.048 0.039-0.087 0.083-0.125 0.125-0.031 0.034-0.060 0.065-0.092 0.092-0.039-0.006-0.080-0.009-0.128-0.008-0.086 0.001-0.174 0.001-0.261 0h-0.411v0.222l0.411 0.001c0.034 0 0.070-0.001 0.104-0.001 0.053 0 0.107 0 0.161 0 0.003-0.001 0.007 0 0.011 0 0.063-0.001 0.113 0.007 0.165 0.021 0.035 0.009 0.070 0.021 0.111 0.035l0.080 0.026c0.063 0.020 0.129 0.037 0.194 0.053 0.102 0.026 0.197 0.050 0.287 0.089 0.044 0.018 0.085 0.046 0.129 0.076 0.041 0.028 0.083 0.056 0.129 0.079 0.161 0.083 0.295 0.171 0.423 0.279l0.032 0.026c0.092 0.079 0.197 0.168 0.313 0.214 0.099 0.040 0.152 0.098 0.224 0.177 0.025 0.028 0.051 0.057 0.080 0.086 0.074 0.076 0.158 0.143 0.239 0.208 0.091 0.072 0.176 0.141 0.247 0.217l0.044 0.047c0.052 0.055 0.105 0.112 0.138 0.166 0.017 0.027 0.028 0.053 0.040 0.079 0.022 0.050 0.047 0.105 0.094 0.159 0.015 0.017 0.026 0.027 0.035 0.037 0.015 0.015 0.015 0.015 0.030 0.052 0.028 0.074 0.061 0.145 0.094 0.215 0.043 0.092 0.083 0.178 0.111 0.269 0.037 0.111 0.001 0.185-0.068 0.318-0.018 0.035-0.037 0.071-0.054 0.11-0.032 0.067-0.053 0.138-0.076 0.209-0.033 0.105-0.064 0.205-0.128 0.29-0.056 0.078-0.137 0.138-0.222 0.202-0.048 0.035-0.096 0.071-0.141 0.11-0.15 0.131-0.286 0.196-0.392 0.182-0.053-0.006-0.109-0.038-0.183-0.106-0.043-0.040-0.045-0.065-0.053-0.132-0.004-0.037-0.010-0.076-0.020-0.119l-0.007-0.028c-0.025-0.096-0.031-0.116 0.001-0.198 0.041-0.105 0.067-0.177 0.068-0.306 0.001-0.086 0.028-0.188 0.063-0.29 0.014-0.024 0.034-0.059 0.038-0.119 0.003-0.071-0.017-0.122-0.034-0.163-0.006-0.014-0.012-0.028-0.017-0.045-0.046-0.171-0.112-0.39-0.217-0.561-0.107-0.174-0.259-0.223-0.391-0.267-0.046-0.014-0.092-0.030-0.139-0.051-0.138-0.063-0.286-0.089-0.399-0.105-0.019-0.002-0.039-0.011-0.063-0.020-0.031-0.012-0.064-0.025-0.105-0.032s-0.077-0.003-0.11-0.001c-0.022 0.001-0.044 0.002-0.058 0-0.081-0.017-0.151-0.050-0.226-0.084-0.111-0.051-0.235-0.11-0.404-0.11h-0.004l-0.117 0.001c-0.234 0-0.472 0.003-0.707 0.039-0.046 0.007-0.091 0.015-0.137 0.025-0.047 0.011-0.096 0.022-0.143 0.037-0.018 0.005-0.035 0.007-0.052 0.013-0.106 0.035-0.192 0.092-0.276 0.146-0.050 0.033-0.1 0.066-0.155 0.093-0.037 0.018-0.083 0.047-0.132 0.079-0.021 0.014-0.051 0.033-0.079 0.051-0.045 0.027-0.091 0.052-0.113 0.054l0.007 0.11 0.007 0.111c0.096-0.006 0.2-0.074 0.3-0.14 0.040-0.026 0.078-0.051 0.109-0.066 0.063-0.031 0.12-0.068 0.178-0.106 0.007-0.005 0.014-0.008 0.021-0.013-0.020 0.031-0.039 0.064-0.060 0.094-0.040 0.057-0.079 0.113-0.115 0.171-0.119 0.196-0.155 0.413-0.189 0.623-0.014 0.094-0.030 0.187-0.052 0.276-0.032 0.124-0.070 0.247-0.107 0.37-0.035 0.117-0.071 0.233-0.101 0.349-0.025 0.093-0.035 0.182-0.047 0.269-0.003 0.033-0.008 0.067-0.013 0.102-0.013 0.078-0.037 0.157-0.063 0.241-0.037 0.116-0.073 0.234-0.078 0.358-0.003 0.074-0.014 0.148-0.025 0.22-0.011 0.071-0.020 0.142-0.025 0.214-0.006 0.104-0.003 0.211-0.001 0.318 0.002 0.055 0.003 0.112 0.003 0.168v0.799c0 0.14-0.012 0.274-0.025 0.416-0.013 0.149-0.027 0.301-0.025 0.46 0.001 0.144 0.032 0.3 0.059 0.437l0.004 0.024c0.009 0.047 0.014 0.096 0.020 0.143 0.009 0.086 0.020 0.176 0.048 0.262 0.149 0.44 0.318 0.834 0.518 1.201 0.158 0.289 0.375 0.565 0.706 0.895 0.119 0.12 0.25 0.244 0.4 0.378 0.136 0.122 0.266 0.175 0.404 0.231 0.034 0.014 0.068 0.027 0.104 0.044 0.076 0.033 0.152 0.063 0.229 0.091 0.087 0.033 0.175 0.066 0.261 0.106 0.207 0.096 0.386 0.162 0.551 0.203 0.138 0.034 0.274 0.073 0.41 0.113 0.14 0.040 0.282 0.081 0.424 0.117 0.057 0.014 0.113 0.027 0.17 0.040 0.104 0.024 0.21 0.048 0.312 0.078 0.041 0.012 0.080 0.028 0.119 0.045 0.039 0.015 0.078 0.032 0.118 0.045 0.197 0.063 0.394 0.058 0.584 0.053l0.119-0.002c0.189-0.003 0.392 0.014 0.584 0.031 0.306 0.026 0.62 0.053 0.936 0.009 0.489-0.067 0.868-0.208 1.269-0.469 0.022-0.014 0.052-0.027 0.081-0.040 0.053-0.022 0.109-0.046 0.15-0.084 0.035-0.032 0.051-0.057 0.068-0.090 0.060-0.061 0.145-0.1 0.235-0.144 0.046-0.021 0.092-0.044 0.136-0.068 0.204-0.116 0.384-0.273 0.556-0.425 0.091-0.079 0.181-0.158 0.273-0.23 0.166-0.129 0.268-0.323 0.367-0.511 0.037-0.070 0.072-0.138 0.111-0.201 0.151-0.247 0.333-0.582 0.397-0.996 0.043-0.28 0.119-0.56 0.194-0.83 0.030-0.104 0.058-0.209 0.085-0.313 0.067-0.261 0.065-0.52 0.064-0.769 0-0.070 0-0.139 0-0.21 0.006-0.379-0.132-0.782-0.41-1.195-0.027-0.040-0.051-0.085-0.076-0.129-0.037-0.067-0.074-0.136-0.126-0.201-0.067-0.085-0.143-0.124-0.217-0.163-0.019-0.010-0.040-0.020-0.061-0.032l-0.078-0.046c-0.116-0.068-0.248-0.146-0.381-0.187-0.046-0.013-0.094-0.021-0.143-0.028-0.035-0.006-0.071-0.011-0.105-0.020-0.031-0.008-0.071-0.014-0.115-0.018 0.238-0.038 0.497-0.032 0.763-0.022 0.125 0.004 0.264 0.058 0.398 0.11 0.043 0.015 0.084 0.032 0.125 0.046 0.15 0.053 0.244 0.111 0.336 0.205 0.197 0.203 0.355 0.506 0.445 0.854 0.035 0.139 0.085 0.274 0.133 0.405 0.018 0.051 0.037 0.102 0.054 0.151 0.050 0.142 0.067 0.308 0.084 0.469 0.007 0.063 0.013 0.123 0.021 0.182 0.031 0.227 0.030 0.556-0.066 0.799-0.047 0.118-0.072 0.234-0.097 0.347-0.021 0.103-0.043 0.2-0.078 0.294-0.041 0.11-0.091 0.221-0.139 0.332-0.104 0.233-0.21 0.473-0.256 0.726-0.045 0.246-0.113 0.499-0.18 0.744l-0.037 0.136c-0.041 0.152-0.084 0.302-0.152 0.444-0.028 0.058-0.052 0.117-0.076 0.176-0.043 0.106-0.083 0.207-0.153 0.293-0.087 0.106-0.191 0.197-0.3 0.292-0.112 0.099-0.229 0.202-0.328 0.323-0.057 0.071-0.105 0.092-0.218 0.142-0.102 0.046-0.184 0.109-0.263 0.169-0.072 0.055-0.141 0.107-0.217 0.142-0.065 0.030-0.136 0.051-0.211 0.073-0.058 0.017-0.116 0.034-0.172 0.056-0.103 0.039-0.201 0.086-0.3 0.135-0.058 0.027-0.115 0.055-0.172 0.080-0.294 0.131-0.594 0.19-0.913 0.253l-0.164 0.033c-0.579 0.119-1.136 0.119-1.725 0.119h-0.784c-0.067 0-0.135 0.002-0.203 0.003-0.151 0.006-0.307 0.012-0.447-0.012-0.138-0.021-0.279-0.058-0.416-0.093-0.113-0.030-0.227-0.059-0.34-0.081l-0.17-0.032c-0.17-0.032-0.329-0.061-0.49-0.111-0.064-0.019-0.126-0.033-0.189-0.047-0.078-0.018-0.15-0.033-0.22-0.059l-0.103-0.038c-0.132-0.047-0.256-0.091-0.378-0.163-0.1-0.058-0.205-0.099-0.307-0.139-0.1-0.039-0.196-0.077-0.283-0.129-0.079-0.048-0.165-0.090-0.25-0.131-0.098-0.047-0.19-0.092-0.273-0.145-0.1-0.066-0.225-0.205-0.292-0.327-0.025-0.046-0.051-0.093-0.078-0.14-0.089-0.157-0.181-0.32-0.234-0.481-0.064-0.192-0.125-0.397-0.153-0.587-0.009-0.066-0.008-0.132-0.007-0.202 0.001-0.043 0.002-0.084 0-0.128-0.004-0.157-0.047-0.303-0.090-0.444zM26.295 16.611c-0.080-0.282-0.163-0.542-0.204-0.837-0.031-0.218-0.061-0.44-0.116-0.655-0.040-0.164-0.104-0.32-0.144-0.484-0.13-0.542-0.279-1.089-0.378-1.638-0.020-0.11-0.020-0.214-0.058-0.32-0.040-0.112-0.104-0.215-0.149-0.326-0.086-0.214-0.185-0.43-0.255-0.648-0.098-0.305-0.272-0.568-0.369-0.871-0.094-0.29-0.274-0.524-0.354-0.821-0.148-0.542-0.256-1.105-0.495-1.62-0.266-0.569-0.561-1.139-0.931-1.652-0.11-0.151-0.224-0.292-0.321-0.453-0.046-0.077-0.090-0.165-0.153-0.23-0.065-0.065-0.143-0.105-0.201-0.179-0.081-0.105-0.129-0.235-0.191-0.349-0.081-0.151-0.172-0.29-0.312-0.394-0.203-0.15-0.359-0.325-0.55-0.488-0.383-0.326-0.792-0.607-1.194-0.909-0.478-0.359-0.948-0.743-1.463-1.050-0.165-0.098-0.333-0.188-0.497-0.286-0.057-0.034-0.125-0.044-0.139-0.105-0.169-0.115-0.281-0.21-0.39-0.257-0.124-0.054-0.257-0.035-0.392-0.035-0.2-0.001-0.399 0-0.599 0-0.228 0-0.385 0.015-0.604 0.065-0.407 0.090-0.787 0.174-1.144 0.403-0.086 0.055-0.165 0.128-0.244 0.191-0.081 0.066-0.118 0.151-0.191 0.222-0.131 0.13-0.292 0.203-0.45 0.286-0.116 0.061-0.217 0.151-0.338 0.207-0.090 0.040-0.184 0.054-0.273 0.098-0.407 0.204-0.718 0.595-1.042 0.906-0.327 0.314-0.584 0.652-0.806 1.042-0.325 0.571-0.623 1.158-0.898 1.754-0.351 0.759-1.086 1.203-1.529 1.901-0.197 0.312-0.342 0.648-0.478 0.987-0.093 0.231-0.268 0.446-0.407 0.652-0.162 0.237-0.39 0.42-0.534 0.672-0.097 0.168-0.159 0.352-0.255 0.52-0.123 0.215-0.262 0.397-0.347 0.633-0.077 0.21-0.136 0.427-0.2 0.642-0.087 0.296-0.151 0.602-0.261 0.891-0.065 0.172-0.155 0.336-0.214 0.51-0.094 0.281-0.175 0.556-0.215 0.852-0.11 0.8-0.058 1.596 0.098 2.388 0.046 0.236 0.111 0.473 0.137 0.713 0.027 0.255-0.003 0.529-0.003 0.786 0 0.421 0.052 0.884-0.011 1.302-0.055 0.368-0.083 0.718-0.044 1.089 0.033 0.318 0.074 0.649 0.149 0.961 0.070 0.293 0.166 0.574 0.2 0.875 0.024 0.212 0.085 0.405 0.159 0.604 0.101 0.269 0.184 0.547 0.287 0.814 0.065 0.169 0.177 0.323 0.275 0.476 0.090 0.137 0.156 0.275 0.237 0.417 0.122 0.211 0.289 0.419 0.437 0.616 0.335 0.45 0.767 0.903 1.192 1.274 0.359 0.313 0.803 0.505 1.235 0.671 0.191 0.073 0.364 0.182 0.524 0.315 0.139 0.116 0.249 0.228 0.416 0.305 0.136 0.061 0.261 0.131 0.393 0.196 0.302 0.149 0.667 0.187 0.986 0.301 0.289 0.105 0.581 0.233 0.881 0.301 0.169 0.039 0.333 0.090 0.499 0.131 0.169 0.040 0.339 0.027 0.511 0.027 0.286-0.001 0.573 0 0.858 0 0.704 0 1.387-0.018 2.084-0.148 0.175-0.032 0.358-0.045 0.529-0.091 0.212-0.058 0.388-0.197 0.591-0.276 0.309-0.12 0.622-0.238 0.924-0.369 0.182-0.079 0.353-0.183 0.537-0.26 0.143-0.060 0.293-0.096 0.438-0.148 0.378-0.135 0.73-0.351 1.106-0.495 0.301-0.116 0.472-0.257 0.68-0.501 0.378-0.439 0.783-0.845 1.103-1.333 0.311-0.477 0.693-0.919 0.974-1.41 0.26-0.455 0.575-0.895 0.769-1.386 0.188-0.473 0.436-0.913 0.612-1.392 0.211-0.575 0.279-1.19 0.379-1.789 0.045-0.272 0.052-0.595-0.001-0.864-0.035-0.178 0.001-0.274 0.027-0.445 0.025-0.17-0.014-0.355-0.004-0.528 0.009-0.2 0.090-0.398 0.1-0.599 0.013-0.243 0.048-0.476 0.048-0.723-0.001-0.207 0.028-0.434-0.027-0.633z"></path>
</svg>
