<!-- Generated by IcoMoon.io -->
<svg version="1.1" xmlns="http://www.w3.org/2000/svg" width="33" height="32" viewBox="0 0 33 32">
<title>city_of_sins</title>
<path d="M25.808 14.708c-0.251 0.148-0.511 0.296-0.794 0.126-0.125-0.075-0.226-0.18-0.343-0.266-0.172-0.128-0.394-0.257-0.617-0.218-0.528 0.093-0.369 0.672-0.081 0.928-0.161 0.222-0.386 0.212-0.674-0.036 0.002-0.032 0.004-0.065 0.002-0.097-0.020-0.054-0.016-0.104-0.039-0.157-0.050-0.113-0.144-0.208-0.259-0.255-0.177-0.072-0.347-0.016-0.47 0.099-0.102-0.771-1.032-1.005-1.722-0.866-0.522 0.105-1.036 0.309-1.47 0.618-0.314 0.224-0.602 0.41-1.002 0.382-0.168-0.011-0.329-0.052-0.482-0.114-0.396-0.273-0.701-0.599-0.384-1.091 0.125-0.193 0.278-0.373 0.273-0.618-0.010-0.438-0.429-0.66-0.809-0.549-0.2-0.516-0.725-0.829-1.27-0.767 0.172-0.642-0.743-0.685-1.361-0.611 1.283-0.707 2.728-1.024 4.18-1.183 0.395-0.043 0.79-0.077 1.186-0.106 0.412-0.031 0.919-0.14 1.322-0.022 0.692 0.203 0.404 0.814 0.113 1.21-0.11 0.151-0.289 0.355-0.235 0.56 0.122 0.466 1.020 0.22 1.334 0.202 0.496-0.029 0.798 0.148 1.186 0.421 0.172 0.121 0.216 0.113 0.399 0.001 0.077-0.046 0.145-0.117 0.226-0.155 0.13-0.060 0.099-0.058 0.203 0.039 0.129 0.121 0.183 0.345 0.269 0.5 0.152 0.271 0.337 0.335 0.568 0.516 0.274 0.216 0.194 0.583 0.38 0.844 0.050 0.068 0.105 0.114 0.173 0.161 0.034 0.023 0.074 0.036 0.109 0.055 0.14 0.016 0.207 0.090 0.203 0.222 0.078 0.125 0.040 0.2-0.116 0.228z"></path>
<path d="M22.67 20.627c-0.002 0.020-0.004 0.040-0.005 0.060-0.002 0.021-0.005 0.043-0.008 0.064-0.109 0.161-0.219 0.321-0.335 0.477-0.137 0.185-0.457 0.251-0.657 0.141-0.065-0.036-0.132-0.066-0.203-0.093 0-0.129-0.020-0.257-0.059-0.383 0.004-0.293 0.012-0.634 0.087-0.923 0.066-0.122 0.149-0.228 0.255-0.309 0.13-0.101 0.253-0.144 0.364-0.148 0.105 0.034 0.222 0.089 0.355 0.164 0.079 0.124 0.133 0.258 0.16 0.4 0.048 0.184 0.059 0.364 0.046 0.548zM22.48 25.036c0.093 0.443 0.004 0.907-0.034 1.351-0.012 0.149-0.173 0.23-0.305 0.215-0.027-0.004-0.12 0-0.157-0.006-0.034 0.006-0.071 0.009-0.114-0.002-0.008-0.001-0.015-0.004-0.021-0.005-0.155-0.036-0.227-0.175-0.208-0.301-0.028-0.047-0.044-0.102-0.034-0.164 0.043-0.252 0.085-0.498 0.161-0.732 0.047-0.278 0.11-0.551 0.296-0.764 0.222-0.257 0.625 0.083 0.402 0.34-0.002 0.004-0.004 0.009-0.006 0.011 0.010 0.019 0.017 0.039 0.021 0.059zM20.703 21.015c-0.005 0.039-0.010 0.074-0.014 0.108-0.275-0.015-0.552 0.004-0.797 0.054-0.039 0.009-0.079 0.006-0.121 0.001-0.019-0.238-0.031-0.478-0.011-0.716 0.005-0.055 0.012-0.11 0.020-0.164 0.011-0.019 0.014-0.039 0.011-0.063 0.021-0.122 0.051-0.245 0.099-0.357 0.122-0.296 0.171-0.346 0.513-0.359 0.101-0.047 0.179-0.063 0.236-0.050 0.027 0.043 0.051 0.091 0.072 0.149 0.028 0.074 0.047 0.155 0.063 0.238 0.036 0.391-0.019 0.772-0.074 1.159zM19.458 21.024c-0.065-0.059-0.114-0.13-0.134-0.205-0.167-0.622-0.156-1.229-0.109-1.844 0.15 0.204 0.29 0.416 0.306 0.678v0.005c-0.13 0.422-0.121 0.962-0.063 1.366zM17.107 19.692c-0.024 0.124-0.191 0.191-0.304 0.141-0.216-0.095-0.418-0.094-0.652-0.075-0.106 0.009-0.232-0.077-0.232-0.193 0.001-0.684-0.066-1.363-0.108-2.046-0.005-0.091 0.047-0.191 0.138-0.22 0.567-0.181 1.065-0.043 1.135 0.606 0.015 0.141-0.074 0.957-0.070 1.267 0.006 0.042 0.016 0.083 0.025 0.124 0.197 0.056 0.197 0.313 0.066 0.398zM14.308 19.051c0.050 0.044 0.081 0.107 0.067 0.184l-0.020 0.113c-0.016 0.095-0.101 0.156-0.189 0.171-0.011 0.006-0.024 0.007-0.036 0.012-0.112-0.622-0.168-1.249-0.168-1.883 0.004-0.064 0.009-0.129 0.011-0.193 0.002 0.004 0.006 0.009 0.010 0.012 0-0.005 0-0.011 0.001-0.016 0.032-0.273 0.453-0.197 0.421 0.074-0.059 0.505-0.172 1.021-0.095 1.527zM10.999 11.135c0.001 0.222-0.273 0.287-0.38 0.161-0.072 0.083-0.162 0.142-0.269 0.149-0.511 0.032-0.408-0.928-0.404-1.229 0.007-0.391 0.054-1.283 0.681-0.897 0.588 0.361 0.368 1.249 0.372 1.816zM8.222 11.281c-0.112 0.030-0.2-0.025-0.248-0.105-0.082-0.020-0.156-0.081-0.176-0.179-0.11-0.528-0.312-1.629 0.49-1.701 0.094-0.009 0.187 0.050 0.22 0.138 0.171 0.455 0.375 1.666-0.286 1.846zM27.082 25.596c-0.075-0.153-0.218-0.246-0.396-0.208-0.010 0.001-0.016 0.005-0.026 0.009-0.004-0.12-0.015-0.239-0.029-0.36-0.001-0.007-0.005-0.011-0.006-0.016 0.012 0.002 0.023 0.004 0.035 0.007 0.124 0.021 0.195-0.173 0.068-0.218-0.011-0.004-0.020-0.004-0.029-0.006 0-0.001 0-0.002 0-0.002-0.026-0.005-0.050-0.010-0.075-0.015-0.001 0-0.002 0-0.004 0-0.008-0.040-0.035-0.078-0.085-0.093-0.122-0.034-0.248-0.023-0.365 0.027-0.042 0.019-0.085 0.069-0.074 0.12 0.021 0.101 0.079 0.168 0.181 0.195 0.013 0.004 0.027 0.005 0.040 0.009-0.002 0.056-0.006 0.113-0.011 0.169 0 0 0 0-0.001 0-0.027-0.014-0.056-0.018-0.083-0.009-0.214-0.012-0.528 0.031-0.422 0.279 0.021 0.050 0.072 0.081 0.13 0.102 0.038-0.012 0.074-0.016 0.109-0.016-0.017 0.046-0.036 0.091-0.055 0.137-0.105-0.020-0.222 0.068-0.177 0.188 0.015 0.039 0.042 0.063 0.074 0.077-0.006 0.015-0.012 0.030-0.019 0.046-0.099 0.023-0.196 0.052-0.29 0.098-0.050 0.025-0.099 0.089-0.067 0.148 0.043 0.082 0.097 0.163 0.185 0.189-0.055 0.14-0.112 0.279-0.167 0.419-0.175 0.039-0.359 0.034-0.539-0.015-0.025-0.006-0.050-0.018-0.072-0.028-0.14 0.068-0.278 0.142-0.418 0.211-0.313 0.153-0.728-0.133-0.74-0.465-0.052-1.338-0.169-2.672-0.349-3.999-0.020-0.156 0.019-0.279 0.090-0.375-0.048-0.286-0.105-0.572-0.179-0.861-0.046-0.183-0.144-0.318-0.267-0.415-0.017-0.059-0.040-0.113-0.065-0.164 0.011-0.575-0.059-1.22-0.461-1.441-0.163-0.165-0.387-0.262-0.689-0.238-0.505 0.042-0.688 0.58-0.744 1.177 0.002-0.345-0.038-0.687-0.183-0.907-0.097-0.218-0.265-0.379-0.529-0.395-0.257-0.015-0.441 0.068-0.576 0.208-0.105-0.188-0.273-0.341-0.489-0.423-0.026-0.011-0.052-0.011-0.077-0.004 0.028-0.32 0.062-0.642 0.083-0.97 0.029-0.488 0.044-0.977 0.052-1.466-0.022-0.731-0.043-1.463-0.063-2.194-0.004-0.132-0.036-0.247-0.089-0.348-0.029-0.239-0.067-0.474-0.117-0.704-0.010-0.044-0.021-0.082-0.034-0.122 0.067 0.001 0.132 0.004 0.199 0.002 0.077 0 0.12-0.089 0.097-0.155-0.025-0.075-0.051-0.151-0.077-0.226-0.021-0.060-0.090-0.087-0.148-0.068-0.086 0.028-0.175 0.040-0.263 0.043-0.001-0.002-0.005-0.005-0.009-0.009 0.097-0.152 0.112-0.394 0.043-0.58 0.010-0.043 0.019-0.085 0.024-0.13 0.016-0.121-0.136-0.168-0.199-0.098-0.008-0.004-0.013-0.010-0.021-0.013-0.067-0.032-0.151 0.011-0.163 0.085-0.023 0.136-0.024 0.312-0.074 0.439-0.063 0.161-0.101 0.212-0.271 0.16-0.11-0.034-0.181-0.075-0.286-0.052-0.014-0.002-0.026-0.006-0.042-0.002-0.167 0.022-0.27 0.113-0.285 0.285-0.005 0.066 0.028 0.117 0.093 0.133 0.113 0.030 0.226 0.054 0.34 0.077l-0.066 0.181c-0.122 0.396-0.575 0.54-0.86 0.363-0.701 0.234-1.682-0.019-2.308-0.165-0.254-0.060-0.408-0.238-0.454-0.492-0.224-1.24-0.255-2.492-0.373-3.745-0.097-1.038-0.242-2.066-0.277-3.106-0.075-0.344-0.146-0.689-0.206-1.037l0.192-1.499c0.249 0.013 0.508-0.012 0.513-0.245 0.001-0.042-0.032-0.075-0.065-0.094-0.116-0.063-0.254-0.085-0.394-0.086 0.016-0.128 0.034-0.255 0.050-0.383 0.058-0.018 0.11-0.039 0.146-0.069 0.046-0.035 0.055-0.081 0.043-0.134-0.054-0.231-0.22-0.223-0.425-0.261-0.011-0.010-0.024-0.019-0.042-0.025-0.207-0.075-0.508-0.004-0.416 0.293 0.027 0.086 0.095 0.144 0.183 0.181-0.027 0.093-0.047 0.188-0.068 0.282-0.196 0.013-0.394 0.028-0.591 0.042-0.060 0.004-0.112 0.065-0.103 0.125 0.040 0.313 0.326 0.344 0.594 0.345-0.060 0.359-0.109 0.719-0.171 1.065-0.009 0.043-0.023 0.101-0.039 0.168-0.082 0.129-0.176 0.253-0.285 0.368-0.506 0.535-1.132 0.709-1.851 0.686-0.897-0.028-1.554 0.262-2.423 0.459-0.004 0.001-0.009 0.001-0.015 0.001-0.012 0.024-0.023 0.046-0.038 0.070-0.819 1.304-1.119 3.092-1.605 4.554-0.493 1.48-0.614 3.039-1.083 4.524 0 0-0.001 0.001-0.001 0.001v0c-0.031 0.098-0.059 0.197-0.093 0.296-0.007 0.016-0.015 0.028-0.022 0.044-0.028 1.067 0.085 2.131 0.384 3.188 0.008 0.052 0.015 0.105 0.022 0.157 0.022 0.169 0.082 0.306 0.162 0.421 0.036 0.102 0.070 0.204 0.109 0.306 0.074 0.188 0.155 0.375 0.231 0.562 0.173 0.652 0.36 1.3 0.566 1.944 0.048 0.149 0.128 0.265 0.224 0.355 0.022 0.059 0.048 0.118 0.085 0.176 0.077 0.125 0.146 0.253 0.22 0.378 0.082 0.188 0.165 0.378 0.251 0.564 0.008 0.024 0.018 0.048 0.027 0.074 0.028 0.077 0.063 0.142 0.102 0.204 0.277 0.595 0.563 1.185 0.866 1.769 0.136 0.262 0.345 0.421 0.574 0.496 0.070 0.089 0.138 0.179 0.207 0.269 0.254 0.396 0.524 0.782 0.825 1.145 0.125 0.153 0.257 0.298 0.391 0.439 0.025 0.032 0.050 0.064 0.075 0.097 0.075 0.098 0.16 0.172 0.248 0.228 0.408 0.385 0.849 0.727 1.314 1.030 0.811 0.459 1.611 0.889 2.436 1.259 0.016-0.011 0.032-0.020 0.047-0.032 0.421 0.153 0.848 0.29 1.28 0.41 0.134 0.066 0.263 0.098 0.385 0.102 0.028 0.006 0.056 0.013 0.086 0.021 0.117 0.116 0.271 0.199 0.465 0.227 0.384 0.056 0.77 0.113 1.154 0.171 0.433 0.101 0.868 0.192 1.307 0.27 0.067 0.012 0.133 0.015 0.196 0.012 0.298 0.043 0.596 0.078 0.896 0.105 0.023 0.031 0.048 0.060 0.075 0.089 1.356 0.090 2.741 0.014 3.95-0.443 0.247-0.122 0.494-0.243 0.767-0.328 0.071-0.022 0.14-0.032 0.207-0.035 0.144-0.116 0.227-0.27 0.258-0.438 0.067 0.039 0.181 0 0.179-0.106-0.002-0.125-0.002-0.248-0.004-0.373 0.236-0.114 0.416-0.323 0.445-0.633 0.068-0.755 0.136-1.51 0.204-2.265-0.011-0.002-0.020-0.009-0.030-0.012 0.034-0.074 0.034-0.168 0.031-0.357-0.002-0.117-0.010-0.232-0.015-0.349 0.093 0.009 0.18-0.027 0.23-0.138 0.035-0.079 0.019-0.168-0.046-0.227-0.016-0.015-0.152-0.067-0.212-0.073-0.004-0.060-0.010-0.121-0.015-0.181 0.015-0.005 0.029-0.010 0.044-0.016 0.078-0.039 0.104-0.134 0.035-0.196-0.019-0.017-0.038-0.034-0.055-0.051 0.010-0.002 0.017-0.007 0.027-0.012 0.027 0.002 0.052 0.004 0.079 0.006 0.089-0.048 0.196-0.056 0.289-0.021 0.029-0.032 0.046-0.081 0.027-0.12z"></path>
</svg>
