<!-- Generated by IcoMoon.io -->
<svg version="1.1" xmlns="http://www.w3.org/2000/svg" width="32" height="32" viewBox="0 0 32 32">
<title>city_of_the_damned</title>
<path d="M26.994 9.527c0 0.253 0 0.505 0 0.758 0 0.129 0.009 0.262 0.003 0.392-0.004 0.11-0.052 0.206-0.061 0.313-0.009 0.119 0.001 0.244 0.003 0.365 0.001 0.186 0.004 0.18-0.209 0.206-0.465 0.056-0.947 0.013-1.415-0.323 0-0.433-0.003-0.865 0-1.297 0.003-0.547-0.127-1.099-0.165-1.641-0.022-0.286-0.146-0.605 0.013-0.864 0.189-0.308 0.544-0.337 0.879-0.337 0.183-0.002 0.415-0.044 0.575 0.039 0.235 0.124 0.302 0.405 0.35 0.643 0.055 0.28 0.089 0.521 0.085 0.809-0.001 0.171-0.045 0.326-0.059 0.494-0.013 0.145 0.003 0.298 0.003 0.444zM26.833 17.731c-0.044 0.107-0.293 0.053-0.383 0.039-0.186-0.035-0.355-0.045-0.545-0.045-0.155 0.002-0.277-0.009-0.421-0.044-0.064-0.017-0.199 0.022-0.249-0.013-0.077-0.056-0.026-0.3-0.035-0.401-0.022-0.241-0.052-0.46-0.051-0.705 0-0.302 0-0.605 0.279-0.907 0.237 0 0.491-0.031 0.727-0.003 0.118 0.013 0.213 0.057 0.334 0.058 0.097 0.002 0.225-0.031 0.299 0.039 0.076 0.076 0.039 0.237 0.039 0.337 0.001 0.191-0.045 0.356-0.058 0.542-0.017 0.213 0.003 0.433 0.001 0.647-0.001 0.103 0.003 0.188 0.026 0.286 0.013 0.046 0.054 0.121 0.035 0.168zM23.696 11.194c-0.035 0.116 0.003 0.070-0.116 0.1-0.017 0.004-1.498 0.049-1.677-0.337 0-0.35 0.031-0.71 0.003-1.059-0.009-0.125-0.056-0.24-0.061-0.366-0.004-0.141 0.017-0.281-0.009-0.421-0.039-0.198-0.044-0.383-0.045-0.585-0.002-0.228 0.079-0.463 0.147-0.681 0.069-0.213 0.16-0.438 0.304-0.612 0.121-0.147 0.243-0.136 0.421-0.134 0.162 0 0.369-0.035 0.527 0.009 0.391 0.113 0.357 0.69 0.389 0.995 0.022 0.206 0.058 0.39 0.059 0.599 0 0.253 0 0.506 0 0.76 0 0.372-0.013 0.746 0.013 1.119 0.009 0.131 0.090 0.46 0.046 0.614zM22.76 17.5c-0.167 0-0.335 0.009-0.5 0.001-0.133-0.004-0.128-0.001-0.131-0.137-0.003-0.121-0.009-0.247-0.001-0.369 0.009-0.133 0.056-0.253 0.059-0.387 0.009-0.28-0.001-0.562-0.001-0.842l0.223-0.168h0.533c0.143 0 0.334-0.035 0.469 0.009 0.058 0.283 0.004 0.626 0.004 0.913 0 0.183-0.022 0.378-0.001 0.559 0.013 0.113 0.039 0.319 0.094 0.415-0.228 0.051-0.514 0.004-0.748 0.004zM17.643 18.701c-0.022 0.105-0.026 0.195-0.044 0.298-0.026 0.234-0.055 0.445-0.058 0.681-0.003 0.147 0.046 0.279 0.059 0.428-0.059-0.079-0.29-0.035-0.383-0.035-0.162 0-0.28-0.013-0.432-0.051-0.076-0.017-0.174 0.009-0.244-0.045-0.085-0.066-0.048-0.054-0.069-0.155-0.017-0.091-0.054-0.14-0.054-0.241 0.002-0.026 0.009-0.069 0.004-0.103l-0.116-0.077c0.097-0.026 0.116 0.017 0.116 0.077l0.052 0.035c0-0.215 0.004-0.411 0.044-0.618 0.026-0.146-0.009-0.298 0.013-0.445 0.026-0.189 0.136-0.162 0.282-0.124 0.076 0.022 0.144 0.009 0.223 0.013 0.087 0.004 0.14 0.045 0.223 0.059 0.111 0.017 0.344-0.066 0.395 0.046 0.022 0.049-0.009 0.214-0.017 0.259zM16.471 15.82c0.045-0.139 0.276-0.113 0.395-0.11l0.056-0.167h0.31c0.064 0 0.199-0.031 0.253-0.004 0.106 0.048 0.052 0.394 0.052 0.509 0 0.241-0.017 0.487 0.026 0.725 0.026 0.131 0.009 0.267 0.039 0.393 0.026 0.1 0.066 0.164 0.035 0.272-0.137-0.026-0.23-0.051-0.381-0.051-0.149 0.001-0.3-0.002-0.448 0-0.25 0.003-0.262-0.198-0.283-0.422-0.026-0.276 0.009-0.538-0.039-0.81-0.017-0.082-0.044-0.255-0.017-0.337zM15.684 18.812c-0.009 0.035-0.045 0.045-0.054 0.083-0.018 0.079 0.001 0.199 0.003 0.283 0.001 0.106-0.026 0.157-0.056 0.248-0.039 0.129-0.044 0.269-0.054 0.404-0.009 0.124-0.074 0.23-0.058 0.356-0.314-0.222-0.316-0.168-0.343-0.116-0.196 0.017-0.395 0.009-0.59-0.009-0.048-0.004-0.286-0.017-0.36-0.039-0.127-0.039-0.089-0.115-0.118-0.226-0.013-0.054-0.039-0.091-0.045-0.149-0.009-0.085 0.004-0.171-0.013-0.258-0.022-0.121-0.054-0.159-0.031-0.282 0.009-0.063 0.039-0.115 0.046-0.18 0.009-0.107 0.026-0.177 0.049-0.279 0.022-0.106-0.009-0.276 0.056-0.371 0.092-0.128 0.654-0.049 0.812-0.049 0.103 0.002 0.272-0.026 0.375-0.001 0.048 0.009 0.083 0.044 0.131 0.053 0.088 0.017 0.164-0.026 0.226 0.058 0.055 0.071 0.026 0.207 0.026 0.295 0.001 0.059 0.009 0.124-0.004 0.18zM14.402 16.171c0-0.097-0.044-0.303 0.026-0.374 0.080-0.082 0.334-0.031 0.445-0.031h0.256l0.335-0.056c0 0.091-0.013 0.192-0.002 0.282 0.013 0.101 0.054 0.174 0.059 0.28 0.004 0.11-0.001 0.223-0.003 0.332-0.002 0.133 0.048 0.232 0.059 0.359 0.009 0.092-0.003 0.194-0.003 0.286 0.001 0.111 0.031 0.171-0.080 0.199-0.142 0.035-0.322-0.058-0.469-0.061-0.095-0.001-0.192 0.001-0.287 0.001-0.063 0-0.282 0.039-0.331-0.009-0.039-0.039-0.001-0.217-0.004-0.272-0.004-0.1-0.052-0.179-0.058-0.279-0.004-0.11 0.018-0.179 0.045-0.279 0.031-0.121 0.013-0.256 0.013-0.381zM9.089 15.92c-0.026 0.003-0.286 0.049-0.343 0.018-0.064-0.035-0.046-0.048-0.049-0.122-0.013-0.22 0.001-0.447 0.001-0.667 0-0.366-0.022-0.742-0.001-1.107 0.013-0.22 0.1-0.503 0.28-0.646 0.058-0.046 0.18-0.127 0.253-0.143 0.091-0.022 0.204 0.039 0.3 0.048 0.106 0.013 0.213-0.009 0.316 0.009 0.326 0.056 0.559 0.365 0.645 0.652 0.196 0.664 0.222 1.339 0.222 2.030-0.693-0.111-1.156-0.113-1.623-0.069zM29.117 20.947c-0.009-0.159-0.039-0.316-0.052-0.475-0.022-0.283 0.004-0.567-0.001-0.85-0.013-0.419-0.063-0.831-0.061-1.25 0.004-1.226 0.001-2.45 0.001-3.674 0-0.545 0.031-1.101 0-1.646-0.013-0.247-0.223-0.36-0.378-0.544-0.104-0.121-0.124-0.259-0.127-0.423-0.013-0.506 0.002-1.016 0.002-1.524v-2.242c0-0.637 0.004-1.277 0-1.914-0.002-0.176 0.017-0.157 0.113-0.27 0.079-0.091 0.124-0.407 0.1-0.535-0.039-0.213-0.045-0.41-0.045-0.632 0-0.064 0.003-0.129 0-0.194-0.003-0.087-0.035-0.143-0.052-0.223-0.026-0.152 0.035-0.252-0.136-0.322-0.124-0.051-0.282-0.073-0.412-0.098-0.188-0.035-0.487-0.123-0.684-0.106-0.017 0.088 0.003 0.183 0 0.274-0.009 0.183-0.098 0.173-0.264 0.198-0.319 0.046-0.545-0.14-0.585-0.469-0.198-0.018-0.415-0.026-0.612-0.013-0.144 0.009-0.128 0.045-0.241 0.064-0.125 0.022-0.31-0.125-0.43-0.066-0.111 0.057-0.055 0.341-0.052 0.46 0.004 0.158 0.022 0.212-0.165 0.247-0.256 0.051-0.454-0.055-0.556-0.286-0.009-0.026-0.044-0.073-0.049-0.094-0.004-0.022-0.004-0.136-0.017-0.147-0.039-0.035-0.505-0.009-0.417-0.009-0.223 0-0.469-0.035-0.688 0.009-0.022 0.091-0.059 0.177-0.067 0.271-0.003 0.048 0.026 0.128 0.009 0.174-0.039 0.073-0.219 0.088-0.283 0.097-0.055 0.009-0.243 0.048-0.296 0.018-0.035-0.022-0.026-0.035-0.052-0.067-0.089-0.103-0.165-0.317-0.213-0.439-0.066-0.173-0.212-0.157-0.392-0.167-0.115-0.004-0.304-0.045-0.387 0.031-0.044 0.039-0.055 0.147-0.060 0.201-0.013 0.164-0.039 0.32-0.058 0.483-0.161 0.076-0.35 0.069-0.523 0.070-0.179 0-0.213-0.003-0.335-0.131-0.097-0.095-0.183-0.2-0.256-0.314-0.026-0.052-0.049-0.107-0.061-0.167-0.051-0.051-0.355-0.097-0.433-0.055-0.107 0.056-0.077 0.189-0.107 0.301-0.039 0.131-0.073 0.223-0.073 0.36 0.001 0.313-0.054 0.626-0.055 0.943-0.001 0.301-0.013 0.582 0.28 0.742 0.094 0.051 0.219 0.063 0.283 0.156 0.115 0.17 0.080 0.517 0.097 0.722 0.044 0.547 0.013 1.104 0.013 1.652v1.486c0 0.428-0.004 0.857 0 1.284 0.001 0.094 0.001 0.149-0.039 0.234-0.058 0.122-0.152 0.125-0.231 0.217-0.082 0.095-0.118 0.28-0.164 0.399-0.057 0.143-0.072 0.289-0.097 0.441-0.022 0.142-0.035 0.311-0.095 0.442-0.079 0.173-0.219 0.216-0.398 0.268-0.256 0.074-0.503 0.013-0.718-0.11-0.286-0.164-0.483-0.302-0.728-0.541-0.438-0.425-0.792-0.822-1.050-1.382-0.286-0.621-0.407-1.264-0.591-1.914-0.097-0.342-0.207-0.684-0.311-1.025-0.026-0.088-0.070-0.165-0.094-0.256-0.045-0.162-0.031-0.36-0.111-0.509-0.070 0.136-0.079 0.317-0.119 0.465-0.161 0.611-0.339 1.215-0.593 1.798-0.25 0.575-0.539 1.172-0.876 1.702-0.377 0.591-0.783 1.221-1.271 1.726-0.013-0.018-0.004-0.035 0.022-0.044-0.039-0.003-0.077-0.003-0.116 0.002 0.044 0.003 0.083 0 0.125-0.013-0.013-0.059-0.206-0.083-0.267-0.113-0.119-0.055-0.229-0.137-0.331-0.219-0.353-0.288-0.624-0.579-0.836-0.98-0.178-0.34-0.398-0.645-0.557-0.998-0.185-0.408-0.356-0.821-0.527-1.235-0.155-0.371-0.347-0.681-0.55-1.025-0.17-0.29-0.212-0.575-0.317-0.883-0.243 0.797-0.596 1.558-0.861 2.347-0.17 0.502-0.377 0.989-0.556 1.487-0.158 0.439-0.271 0.883-0.518 1.284-0.142 0.23-0.286 0.34-0.547 0.387-0.195 0.035-0.399 0.044-0.597 0.061-0.097 0.009-0.231 0.045-0.328 0.031-0.177-0.026-0.247-0.295-0.293-0.432-0.214-0.646-0.159-1.394-0.173-2.064-0.013-0.724-0.1-1.439-0.121-2.161-0.018-0.636-0.14-1.346-0.004-1.965 0.070-0.322 0.067-0.648 0.067-0.98 0-0.29 0.013-0.578-0.026-0.865-0.022-0.159 0.009-0.285-0.112-0.396-0.122-0.112-0.23-0.104-0.386-0.11-0.247-0.009-0.489-0.018-0.734-0.039-0.25-0.026-0.554-0.055-0.804-0.013-0.018 0.229-0.058 0.454-0.064 0.685-0.009 0.316 0.026 0.634-0.009 0.95-0.026 0.252-0.082 0.506-0.035 0.763 0.022 0.116 0.077 0.222 0.116 0.331 0.113 0.323 0.112 0.637 0.088 0.977-0.031 0.45-0.066 0.898-0.087 1.349-0.031 0.655-0.095 1.309-0.125 1.963-0.013 0.274 0.004 0.548 0 0.822-0.004 0.249-0.052 0.49-0.061 0.739-0.004 0.152 0.031 0.325-0.009 0.472-0.067 0.252-0.158 0.548-0.212 0.824-0.094 0.484-0.088 1.005-0.089 1.494-0.002 0.977 0.088 1.948 0.132 2.924 0.022 0.52 0.064 1.043 0.072 1.563-0.003 0.24-0.004 0.48-0.004 0.719-0.022 0.085-0.013 0.158 0.031 0.22-0.098 0.022-0.022 0.739-0.045 0.885-0.053 0.337 0.013 0.59 0.080 0.928 0.069 0.34 0.113 0.643 0.292 0.94 0.14 0.217 0.302 0.415 0.487 0.596 0.41 0.279 0.842 0.52 1.296 0.721 0.491 0.286 0.85 0.636 1.266 1.006 0.621 0.553 1.253 1.099 1.938 1.571 0.673 0.48 1.388 0.882 2.146 1.208 0.454 0.162 0.92 0.264 1.399 0.307 1.081 0.146 2.219 0.234 3.311 0.147 1.372-0.11 2.726-0.536 4.068-0.819 0.551-0.118 1.104-0.228 1.658-0.331 0.489-0.063 0.962-0.179 1.424-0.349 1.001-0.378 1.99-0.971 2.86-1.585 0.252-0.139 0.457-0.326 0.618-0.565 0.161-0.304 0.326-0.605 0.496-0.903 0.342-0.612 0.63-1.251 0.963-1.868 0.164-0.32 0.349-0.627 0.556-0.922 0.206-0.27 0.41-0.539 0.614-0.81 0.214-0.343 0.28-0.767 0.499-0.676-0.069-0.059-0.049-0.11-0.055-0.191z"></path>
</svg>
