<!-- Generated by IcoMoon.io -->
<svg version="1.1" xmlns="http://www.w3.org/2000/svg" width="32" height="32" viewBox="0 0 32 32">
<title>city_of_archives</title>
<path d="M14.526 10.989c0.108-0.113 0.118-0.219 0.265-0.302 0.068-0.038 0.148-0.084 0.226-0.103 0.116-0.028 0.231-0.010 0.348-0.032 0.146-0.027 0.272-0.055 0.425-0.054 0.21 0.001 0.422 0.001 0.633 0 0.281-0.002 0.483 0.118 0.74 0.219 0.241 0.096 0.476 0.214 0.694 0.345 0.139 0.084 0.322 0.172 0.379 0.348 0.064 0.199 0.102 0.413 0.172 0.618 0.012 0.037 0.043 0.073 0.054 0.118 0.015 0.056-0.001 0.118 0.014 0.178 0.025 0.096 0.093 0.215 0.109 0.297 0.044 0.221 0.016 0.473 0.016 0.702 0 0.28 0.050 0.58-0.087 0.83-0.092 0.165-0.225 0.307-0.326 0.463-0.096 0.146-0.243 0.254-0.347 0.394-0.033 0.044-0.017 0.106-0.052 0.152-0.038 0.052-0.123 0.070-0.173 0.109-0.15 0.117-0.274 0.238-0.442 0.339-0.227 0.136-0.445 0.396-0.696 0.493-0.489 0.192-1.174 0.085-1.69 0.085-0.307 0-0.606 0.019-0.898-0.086-0.344-0.123-0.606-0.348-0.877-0.576-0.202-0.17-0.323-0.272-0.402-0.531-0.052-0.174-0.053-0.326-0.053-0.515 0.001-0.146-0.046-0.399 0.011-0.531 0.165-0.027 0.313-0.081 0.481-0.080 0.31 0.002 0.503 0.128 0.777 0.281 0.202 0.113 0.343 0.277 0.559 0.37 0.198 0.086 0.426 0.124 0.63 0.176 0.188 0.049 0.42 0.016 0.617 0.016 0.226 0 0.483 0.033 0.704-0.016 0.269-0.059 0.675-0.267 0.841-0.488 0.264-0.35 0.372-0.814 0.369-1.249-0.001-0.206-0.001-0.414 0-0.621 0.003-0.229-0.086-0.398-0.226-0.579-0.091-0.118-0.269-0.224-0.403-0.281-0.157-0.068-0.315-0.055-0.494-0.068-0.172-0.010-0.311-0.072-0.492-0.071-0.232 0.001-0.412-0.036-0.634-0.074-0.184-0.032-0.408 0.004-0.596 0.004-0.2 0-0.35-0.009-0.524 0.070-0.182 0.082-0.386 0.132-0.569 0.21-0.138 0.059-0.272 0.145-0.403 0.204-0.085-0.176 0.136-0.446 0.247-0.573 0.068-0.076 0.165-0.189 0.247-0.249 0.072-0.053 0.187-0.053 0.262-0.098 0.43-0.254 0.955-0.45 1.44-0.551 0.102-0.021 0.221 0.031 0.322 0.005 0.111-0.027 0.138-0.085 0.278-0.075 0.237 0.016 0.466 0.14 0.683 0.232 0.205 0.086 0.407 0.14 0.597 0.242 0.131 0.070 0.441 0.216 0.476 0.37z"></path>
<path d="M21.073 10.918c-0.218-0.030 0.053-0.321 0.125-0.397 0.173-0.178 0.336-0.241 0.557-0.323 0.088-0.033 0.165-0.111 0.254-0.138 0.101-0.031 0.199-0.004 0.299-0.026 0.202-0.044 0.391-0.14 0.596-0.171 0.371-0.055 0.85 0.225 1.186 0.365 0.265 0.111 0.606 0.296 0.818 0.512 0.119 0.12 0.211 0.317 0.246 0.484 0.021 0.101-0.020 0.211 0.004 0.311 0.025 0.108 0.077 0.13 0.091 0.256 0.010 0.086-0.009 0.178-0.004 0.264 0.007 0.122 0.055 0.19 0.080 0.307 0.039 0.186 0.016 0.423 0.009 0.614-0.014 0.332-0.209 0.662-0.406 0.943-0.214 0.302-0.374 0.463-0.708 0.654-0.347 0.199-0.697 0.344-1.084 0.482-0.165 0.059-0.344 0.066-0.53 0.109-0.213 0.050-0.396 0.055-0.597 0-0.342-0.092-0.75-0.058-1.088-0.238-0.328-0.173-0.633-0.471-0.705-0.855-0.032-0.171-0.007-0.356 0.088-0.483 0.131-0.17 0.276-0.129 0.469-0.13 0.204-0.001 0.398 0.039 0.59 0.096 0.064 0.018 0.101 0.064 0.175 0.082 0.108 0.027 0.232-0.022 0.343 0.004 0.179 0.042 0.363 0.133 0.559 0.085 0.071-0.017 0.135-0.068 0.205-0.092 0.096-0.032 0.209-0.042 0.306-0.087 0.321-0.151 0.763-0.216 0.957-0.594 0.058-0.113 0.052-0.141 0.058-0.283 0.005-0.122 0.056-0.193 0.080-0.306 0.048-0.223 0.003-0.433-0.068-0.621-0.15-0.409-0.44-0.639-0.774-0.871-0.332-0.23-0.704-0.216-1.11-0.216-0.227 0-0.455 0-0.682 0-0.096 0-0.203-0.015-0.297-0.002-0.133 0.015-0.246 0.114-0.043 0.265z"></path>
<path d="M7.396 10.025c0.124-0.030 0.206-0.2 0.322-0.265 0.252-0.143 0.539-0.178 0.815-0.177 0.227 0.001 0.445-0.008 0.662 0.043 0.225 0.054 0.498 0.091 0.713 0.175 0.165 0.064 0.371 0.16 0.526 0.241 0.112 0.058 0.184 0.204 0.28 0.286 0.107 0.093 0.24 0.134 0.316 0.273 0.060 0.111 0.15 0.3 0.186 0.418 0.030 0.1 0.012 0.195 0.055 0.294 0.036 0.084 0.098 0.128 0.124 0.214 0.027 0.085 0.048 0.22 0.071 0.315 0.017 0.074 0.059 0.184 0.069 0.24 0.015 0.082-0.003 0.172 0.014 0.251 0.022 0.104 0.072 0.144 0.086 0.259 0.050 0.418-0.092 0.782-0.263 1.132-0.148 0.302-0.363 0.576-0.659 0.719-0.179 0.086-0.326 0.211-0.496 0.301-0.242 0.128-0.559 0.108-0.815 0.16-0.413 0.082-0.886 0.171-1.286-0.033-0.194-0.098-0.417-0.129-0.622-0.219-0.187-0.081-0.333-0.193-0.495-0.31-0.342-0.246-0.485-0.59-0.483-1.040 0.003-0.31-0.068-0.893 0.278-0.977 0.143-0.034 0.401-0.016 0.509 0.112 0.029 0.034 0.068 0.157 0.092 0.209 0.055 0.112 0.1 0.236 0.159 0.345 0.111 0.209 0.278 0.331 0.478 0.423 0.215 0.098 0.428 0.022 0.644 0.085 0.197 0.056 0.35 0.065 0.559 0.068 0.211 0.004 0.361-0.087 0.56-0.155 0.172-0.058 0.396-0.121 0.515-0.286 0.117-0.162 0.101-0.288 0.12-0.488 0.025-0.246 0.131-0.441 0.076-0.708-0.043-0.21-0.059-0.461-0.173-0.644s-0.275-0.438-0.458-0.531c-0.145-0.071-0.288-0.129-0.43-0.208-0.162-0.090-0.344-0.168-0.492-0.286-0.203-0.162-0.356-0.269-0.6-0.322-0.195-0.043-0.336-0.088-0.558-0.088-0.086 0-0.199-0.023-0.283-0.004-0.095 0.023-0.168 0.125-0.117 0.181z"></path>
<path d="M17.196 19.28c-0.004 0.183 0.12 0.303 0.056 0.494-0.069 0.203-0.232 0.236-0.408 0.276-0.179 0.042-0.355 0.125-0.547 0.059-0.118-0.042-0.317-0.213-0.387-0.321-0.175-0.267-0.162-0.756-0.122-1.073 0.039-0.306 0.317-0.523 0.497-0.77 0.191-0.267 0.45-0.532 0.698-0.756 0.257-0.23 0.476-0.548 0.793-0.703 0.294-0.143 0.543-0.324 0.773-0.562 0.111-0.114 0.264-0.178 0.399-0.247 0.154-0.079 0.331-0.052 0.477-0.109 0.047 0.081 0.122 0.042 0.194 0.064 0.079 0.023 0.179 0.071 0.251 0.117 0.166 0.108 0.275 0.189 0.365 0.37 0.073 0.146 0.129 0.284 0.21 0.419 0.093 0.154 0.181 0.295 0.256 0.461 0.143 0.316 0.288 0.629 0.447 0.946 0.092 0.183 0.149 0.367 0.21 0.562 0.068 0.211 0.064 0.415 0.143 0.633 0.069 0.188 0.039 0.375 0.104 0.562 0.087 0.252 0.135 0.509 0.193 0.768 0.082 0.358 0.034 0.764 0.034 1.133 0.001 0.080 0.022 0.204 0.005 0.28-0.015 0.058-0.065 0.076-0.079 0.134-0.021 0.093 0.014 0.188-0.011 0.285-0.026 0.096-0.031 0.188-0.052 0.284-0.028 0.133-0.111 0.274-0.143 0.414-0.046 0.2-0.135 0.356-0.22 0.53-0.136 0.279-0.305 0.563-0.484 0.809-0.184 0.254-0.402 0.57-0.688 0.697-0.091-0.31-0.038-0.818 0.041-1.118 0.025-0.093 0.012-0.179 0.014-0.276 0.003-0.148 0.052-0.267 0.074-0.41 0.020-0.122 0.055-0.246 0.073-0.37 0.012-0.090-0.022-0.187-0.007-0.275 0.039-0.237 0.079-0.476 0.129-0.709 0.042-0.198 0.087-0.42 0.085-0.626-0.003-0.236 0-0.473 0-0.709 0-0.092 0.001-0.184 0-0.278-0.001-0.135-0.041-0.22-0.063-0.35-0.018-0.102-0.037-0.184-0.061-0.281-0.026-0.097 0.004-0.186-0.012-0.281-0.039-0.227-0.146-0.446-0.209-0.669-0.088-0.32-0.148-0.688-0.356-0.977-0.183-0.251-0.509-0.463-0.809-0.462-0.369 0.003-0.611 0.124-0.876 0.395-0.113 0.116-0.242 0.221-0.353 0.343-0.125 0.135-0.219 0.293-0.351 0.422-0.116 0.113-0.257 0.264-0.284 0.419-0.008 0.048 0.014 0.1 0.005 0.146-0.009 0.048-0.049 0.086-0.056 0.118-0.023 0.104 0.009 0.224-0.028 0.324-0.020 0.004-0.038 0.006 0.082-0.129z"></path>
<path d="M13.332 19.069c-0.018 0.005-0.038 0.009-0.057 0.014-0.012 0.149-0.117 0.235-0.087 0.408 0.022 0.135 0.151 0.294 0.265 0.37 0.194 0.131 0.744 0.077 0.968 0.017 0.345-0.092 0.54-0.388 0.6-0.739 0.057-0.329 0.010-0.726-0.232-0.966-0.187-0.186-0.441-0.354-0.655-0.509-0.262-0.19-0.532-0.361-0.803-0.527-0.481-0.296-0.88-0.724-1.41-0.949-0.24-0.102-0.519-0.344-0.806-0.284-0.315 0.066-0.469 0.441-0.578 0.721-0.131 0.34-0.205 0.69-0.316 1.038-0.058 0.182-0.133 0.376-0.177 0.562-0.042 0.173-0.116 0.353-0.151 0.527-0.016 0.080 0.001 0.152-0.021 0.23-0.025 0.085-0.088 0.179-0.109 0.281-0.016 0.079-0.003 0.151-0.014 0.227-0.016 0.102-0.053 0.146-0.075 0.242-0.018 0.077 0.014 0.171 0.004 0.251-0.010 0.082-0.049 0.117-0.065 0.186-0.023 0.101 0.007 0.205-0.005 0.307-0.011 0.091-0.056 0.124-0.075 0.204-0.034 0.143 0.004 0.348 0.004 0.495v0.563c0 0.163 0 0.328 0 0.492-0.001 0.186 0.027 0.295 0.071 0.455 0.028 0.101 0.028 0.129 0.069 0.219 0.038 0.081 0.092 0.177 0.123 0.256 0.066 0.167 0.133 0.372 0.162 0.546 0.058 0.349 0.145 0.709 0.375 1.023 0.043 0.059 0.111 0.112 0.15 0.171 0.047 0.071 0.055 0.145 0.118 0.213 0.117 0.127 0.382 0.187 0.548 0.215 0.186 0.031 0.363 0.025 0.546 0.081 0.146 0.046 0.259 0.193 0.354 0.313 0.146-0.431-0.445-0.945-0.673-1.244-0.075-0.097-0.144-0.119-0.231-0.205-0.070-0.070-0.146-0.205-0.209-0.285-0.070-0.091-0.146-0.187-0.211-0.279-0.080-0.112-0.063-0.232-0.118-0.359-0.037-0.084-0.119-0.148-0.146-0.238-0.030-0.099-0.046-0.231-0.069-0.333-0.047-0.211-0.087-0.41-0.14-0.617-0.026-0.103 0.006-0.199-0.012-0.301-0.018-0.099-0.064-0.16-0.075-0.259-0.026-0.242 0.004-0.499 0.001-0.742-0.001-0.188 0.059-0.339 0.069-0.525 0.006-0.122 0.044-0.205 0.091-0.32 0.046-0.111 0.036-0.156 0.048-0.278 0.011-0.091 0.059-0.157 0.077-0.246 0.018-0.090-0.030-0.195-0.007-0.285 0.022-0.091 0.065-0.099 0.076-0.205 0.012-0.124 0.037-0.204 0.061-0.323 0.022-0.104-0.007-0.206 0.021-0.311 0.031-0.114 0.088-0.24 0.127-0.355 0.050-0.159 0.124-0.444 0.243-0.56 0.129-0.128 0.296-0.108 0.458-0.134 0.103-0.017 0.175-0.070 0.281-0.076 0.102-0.005 0.214-0.002 0.317 0.001 0.261 0.010 0.349 0.216 0.526 0.382 0.166 0.156 0.318 0.219 0.449 0.426 0.111 0.176 0.157 0.404 0.22 0.597 0.060 0.189 0.034 0.424 0.104 0.421z"></path>
<path d="M22.466 20.685c0.128-0.016 0.215-0.074 0.351-0.070 0.146 0.004 0.248-0.047 0.386-0.072 0.276-0.052 0.526-0.166 0.779-0.279 0.606-0.27 1.293-0.661 1.674-1.23 0.199-0.295 0.348-0.683 0.463-1.020 0.042-0.122 0.106-0.229 0.159-0.347 0.081-0.183 0.108-0.379 0.173-0.563 0.106-0.299 0.214-0.623 0.285-0.932 0.036-0.156 0.039-0.322 0.070-0.478 0.032-0.16-0.010-0.326 0.012-0.485 0.021-0.151 0.071-0.27 0.074-0.425 0.001-0.123 0-0.246 0-0.367v-0.898c0-0.521 0.015-1.045-0.066-1.545-0.022-0.139-0.077-0.204-0.074-0.352s-0.022-0.216-0.055-0.351c-0.059-0.242-0.122-0.467-0.226-0.707-0.082-0.189-0.172-0.372-0.265-0.558-0.048-0.095-0.084-0.178-0.138-0.274-0.106-0.19-0.213-0.38-0.318-0.569-0.127-0.227-0.249-0.422-0.403-0.633-0.118-0.163-0.273-0.283-0.402-0.435-0.155-0.184-0.294-0.418-0.509-0.531-0.251-0.132-0.417-0.189-0.689-0.245-0.020-0.004-0.129-0.047-0.156-0.054-0.032-0.010-0.109-0.027-0.141-0.036-0.102-0.026-0.198-0.031-0.316-0.034-0.127-0.004-0.238-0.006-0.135-0.135 0.069-0.085 0.247-0.077 0.347-0.076 0.318 0.004 0.626-0.020 0.936 0.053 0.293 0.069 0.564 0.181 0.821 0.343 0.592 0.371 1.273 0.756 1.637 1.376 0.108 0.187 0.178 0.411 0.294 0.601 0.13 0.215 0.264 0.418 0.332 0.662 0.077 0.273 0.235 0.476 0.32 0.741 0.084 0.262 0.181 0.531 0.248 0.794 0.097 0.371 0.139 0.751 0.209 1.12 0.039 0.203 0.037 0.418 0.071 0.623 0.032 0.197 0.015 0.404 0.015 0.605 0 0.474 0.034 0.924-0.143 1.373-0.084 0.215-0.116 0.449-0.193 0.67-0.071 0.204-0.104 0.413-0.17 0.613-0.031 0.097-0.096 0.169-0.12 0.269-0.039 0.151-0.057 0.326-0.076 0.481-0.048 0.356-0.071 0.719-0.161 1.068-0.081 0.318-0.157 0.559-0.312 0.847-0.2 0.369-0.471 0.694-0.705 1.043-0.143 0.209-0.286 0.281-0.495 0.42-0.194 0.129-0.366 0.294-0.575 0.406-0.398 0.214-0.826 0.349-1.246 0.51-0.307 0.117-0.608 0.21-0.932 0.209-0.264-0.001-0.564 0.058-0.723-0.208-0.148-0.248-0.018-0.49 0.090-0.917z"></path>
<path d="M9.116 19.42c-0.218 0-0.445 0.038-0.63-0.069-0.236-0.135-0.474-0.29-0.707-0.442-0.417-0.274-0.882-0.485-1.245-0.842-0.156-0.154-0.243-0.369-0.382-0.541-0.198-0.242-0.331-0.51-0.494-0.777-0.275-0.447-0.337-0.978-0.49-1.473-0.081-0.261-0.186-0.495-0.197-0.769-0.006-0.166 0.010-0.332 0.003-0.498-0.009-0.19-0.075-0.351-0.072-0.546 0.006-0.682-0.044-1.376-0.003-2.056 0.020-0.306 0.103-0.612 0.177-0.912 0.031-0.12 0.080-0.231 0.108-0.35 0.037-0.159 0.095-0.251 0.157-0.402 0.096-0.231 0.206-0.421 0.365-0.624 0.187-0.241 0.355-0.489 0.543-0.726 0.372-0.471 0.906-0.775 1.378-1.145 0.176-0.138 0.348-0.226 0.56-0.279 0.092-0.023 0.22-0.084 0.312-0.109 0.124-0.036 0.261 0.012 0.381-0.028-0.027-0.225-0.546-0.128-0.713-0.128-0.327 0-0.58 0.021-0.884 0.132-0.289 0.104-0.579 0.112-0.848 0.237-0.156 0.072-0.337 0.085-0.487 0.176-0.125 0.075-0.267 0.179-0.381 0.27-0.224 0.177-0.433 0.408-0.58 0.656-0.079 0.133-0.176 0.284-0.23 0.421-0.074 0.188-0.125 0.364-0.208 0.549-0.12 0.275-0.215 0.571-0.28 0.86-0.028 0.119-0.088 0.234-0.125 0.352-0.053 0.167-0.058 0.327-0.102 0.49-0.014 0.049-0.057 0.103-0.075 0.154-0.053 0.141-0.043 0.243-0.049 0.392-0.006 0.136-0.059 0.238-0.076 0.369-0.015 0.112 0.004 0.242 0.004 0.355 0 0.403-0.003 0.805 0.001 1.208 0.003 0.225-0.065 0.414-0.074 0.633-0.007 0.208 0.003 0.419 0.003 0.628 0 0.562-0.059 1.137 0.14 1.67 0.080 0.214 0.092 0.433 0.194 0.637 0.090 0.183 0.151 0.381 0.243 0.562 0.068 0.133 0.171 0.251 0.278 0.347 0.088 0.080 0.175 0.133 0.274 0.199 0.104 0.070 0.13 0.135 0.218 0.226 0.080 0.084 0.199 0.116 0.274 0.21 0.034 0.044 0.050 0.103 0.082 0.145 0.107 0.136 0.222 0.275 0.334 0.418 0.225 0.285 0.293 0.655 0.558 0.916 0.101 0.098 0.289 0.169 0.42 0.226 0.222 0.096 0.455 0.192 0.691 0.246 0.159 0.037 0.343 0.054 0.493 0.103 0.103 0.034 0.21 0.145 0.313 0.179 0.14 0.048 0.285 0.088 0.407 0.020 0.145-0.082 0.233-0.205 0.299-0.355 0.061-0.141 0.075-0.276 0.141-0.421 0.072-0.159 0.050-0.32-0.020-0.492z"></path>
<path d="M19.304 7.545c-0.020-0.004-0.039-0.009-0.058-0.012-0.117-0.418 0.301-0.835 0.605-1.061 0.171-0.128 0.32-0.186 0.508-0.28 0.17-0.085 0.308-0.199 0.488-0.262 0.263-0.090 0.519-0.179 0.79-0.264 0.256-0.080 0.511-0.109 0.757-0.21 0.165-0.066 0.367-0.119 0.511-0.209 0.095-0.058 0.161-0.16 0.265-0.218 0.096-0.053 0.149-0.087 0.226-0.155 0.168-0.145 0.188-0.289 0.264-0.492 0.056-0.154 0.13-0.331 0.143-0.492 0.014-0.193-0.038-0.322-0.073-0.49-0.034-0.172-0.061-0.34-0.14-0.493-0.125-0.242-0.245-0.482-0.44-0.686-0.042-0.044-0.086-0.127-0.12-0.16-0.091-0.086-0.081-0.034-0.218-0.065-0.058-0.012-0.148-0.052-0.204-0.071-0.097-0.033-0.181-0.059-0.261-0.127 0.086-0.016 0.138-0.073 0.221-0.090 0.093-0.019 0.222 0.005 0.318 0.004 0.187-0.002 0.367 0.085 0.546 0.157 0.176 0.073 0.289 0.278 0.406 0.019 0.073-0.161 0.091-0.393 0.313-0.39 0.248 0.004 0.227 0.241 0.141 0.396-0.106 0.19-0.188 0.315-0.135 0.549 0.017 0.076 0.059 0.162 0.080 0.252 0.022 0.092 0.070 0.192 0.106 0.279 0.086 0.211 0.221 0.45 0.231 0.669 0.016 0.392 0.031 0.801-0.193 1.126-0.032 0.045-0.093 0.101-0.118 0.147-0.022 0.041-0.025 0.097-0.048 0.135-0.060 0.101-0.16 0.132-0.224 0.242-0.109 0.192-0.242 0.407-0.401 0.565-0.302 0.301-0.801 0.483-1.198 0.616-0.096 0.032-0.182 0.053-0.274 0.101-0.14 0.075-0.305 0.090-0.433 0.159-0.041 0.022-0.136 0.117-0.17 0.149-0.119 0.113-0.173 0.177-0.316 0.272-0.268 0.179-0.444 0.453-0.66 0.673-0.159 0.161-0.344 0.21-0.57 0.208-0.28-0.002-0.473 0.016-0.705-0.167-0.172-0.136-0.249-0.402 0.038-0.324z"></path>
<path d="M12.543 7.545c0.016-0.004 0.032-0.009 0.048-0.012 0.095-0.418-0.247-0.835-0.494-1.061-0.14-0.128-0.262-0.186-0.414-0.28-0.14-0.085-0.252-0.199-0.399-0.262-0.215-0.090-0.423-0.179-0.645-0.264-0.209-0.080-0.418-0.109-0.619-0.21-0.134-0.066-0.3-0.119-0.417-0.209-0.077-0.058-0.131-0.16-0.218-0.218-0.079-0.053-0.122-0.087-0.184-0.155-0.136-0.145-0.154-0.289-0.215-0.492-0.048-0.154-0.107-0.331-0.117-0.492-0.011-0.193 0.031-0.322 0.059-0.49 0.028-0.172 0.050-0.34 0.114-0.493 0.102-0.242 0.199-0.482 0.359-0.686 0.034-0.044 0.071-0.127 0.1-0.16 0.074-0.086 0.065-0.034 0.177-0.065 0.047-0.012 0.12-0.052 0.167-0.071 0.079-0.033 0.148-0.059 0.213-0.127-0.070-0.016-0.113-0.073-0.181-0.090-0.076-0.019-0.182 0.005-0.261 0.004-0.152-0.002-0.3 0.085-0.446 0.157-0.143 0.073-0.235 0.278-0.331 0.019-0.059-0.161-0.075-0.393-0.256-0.39-0.203 0.004-0.186 0.241-0.116 0.396 0.086 0.19 0.154 0.315 0.111 0.549-0.015 0.076-0.048 0.162-0.065 0.252-0.018 0.092-0.058 0.192-0.086 0.279-0.070 0.211-0.182 0.45-0.189 0.669-0.014 0.392-0.026 0.801 0.157 1.126 0.026 0.045 0.076 0.101 0.097 0.147 0.017 0.041 0.020 0.097 0.038 0.135 0.049 0.101 0.13 0.132 0.183 0.242 0.090 0.192 0.198 0.407 0.327 0.565 0.247 0.301 0.655 0.483 0.978 0.616 0.079 0.032 0.15 0.053 0.225 0.101 0.114 0.075 0.249 0.090 0.353 0.159 0.033 0.022 0.112 0.117 0.139 0.149 0.097 0.113 0.141 0.177 0.258 0.272 0.219 0.179 0.363 0.453 0.54 0.673 0.129 0.161 0.28 0.21 0.465 0.208 0.229-0.002 0.387 0.016 0.576-0.167 0.14-0.136 0.204-0.402-0.031-0.324z"></path>
<path d="M17.899 21.037c0.124 0.044 0.23 0.148 0.332 0.229 0.104 0.082 0.233 0.135 0.318 0.242 0.211 0.269 0.327 0.798 0.336 1.132 0.007 0.337 0.009 0.629-0.143 0.927-0.138 0.273-0.328 0.514-0.422 0.811-0.037 0.116-0.096 0.231-0.149 0.345-0.031 0.069-0.074 0.144-0.1 0.214-0.037 0.098-0.017 0.179-0.038 0.275-0.016 0.067-0.056 0.099-0.066 0.179-0.011 0.079 0.001 0.169 0.001 0.248 0 0.164-0.006 0.328 0 0.492 0.005 0.171 0.087 0.296 0.125 0.457 0.018 0.079 0.020 0.14 0.048 0.21 0.033 0.081 0.112 0.159 0.145 0.246 0.128 0.337 0.353 0.634 0.447 0.977 0.050 0.186 0.162 0.334 0.15 0.533-0.011 0.156-0.082 0.407-0.159 0.547-0.167 0.31-0.58 0.578-0.884 0.712-0.104-0.307 0.129-0.566 0.127-0.871-0.003-0.313-0.001-0.594-0.104-0.879-0.113-0.313-0.351-0.557-0.527-0.843-0.097-0.156-0.211-0.301-0.308-0.456-0.104-0.167-0.171-0.358-0.254-0.533-0.129-0.269-0.12-0.825-0.065-1.121 0.037-0.197 0.176-0.377 0.278-0.545 0.101-0.165 0.17-0.345 0.299-0.493 0.218-0.251 0.466-0.512 0.537-0.827 0.081-0.358-0.042-0.68-0.214-0.973-0.144-0.246-0.563-0.263-0.628-0.565-0.036-0.167 0.108-0.342 0.211-0.458 0.156-0.178 0.274-0.208 0.707-0.211z"></path>
<path d="M15.651 21.387c-0.256-0.005-0.139 0.866-0.106 1.016 0.043 0.2 0.123 0.434 0.245 0.603 0.086 0.122 0.224 0.25 0.277 0.39 0.047 0.124 0.069 0.243 0.075 0.38 0.004 0.089 0.069 0.172 0.069 0.248 0 0.085-0.052 0.091-0.071 0.169-0.016 0.069 0.025 0.15 0.007 0.218-0.015 0.063-0.058 0.107-0.075 0.171-0.017 0.058-0.016 0.122-0.033 0.177-0.023 0.079-0.072 0.166-0.106 0.246-0.053 0.128-0.102 0.247-0.159 0.37-0.028 0.063-0.034 0.086-0.053 0.157-0.016 0.065-0.050 0.125-0.064 0.182-0.065 0.281-0.006 0.653-0.006 0.943 0 0.316 0.014 0.586 0.076 0.873 0.022 0.103 0.085 0.249 0.135 0.358 0.049 0.107 0.048 0.151 0.066 0.259 0.025 0.145 0.117 0.256 0.14 0.399 0.023 0.139-0.027 0.27 0.044 0.391 0.058 0.096 0.086 0.049 0.101 0.178 0.025 0.194-0.016 0.351-0.064 0.529-0.077 0.285-0.209 0.681-0.489 0.857-0.039-0.138 0.010-0.292-0.007-0.435-0.011-0.095-0.061-0.167-0.076-0.262-0.017-0.107 0.015-0.21-0.012-0.316-0.079-0.311-0.109-0.624-0.306-0.901-0.22-0.308-0.386-0.638-0.521-0.987-0.163-0.428-0.195-0.936-0.144-1.399 0.022-0.199 0.096-0.365 0.198-0.527 0.046-0.071 0.064-0.154 0.101-0.227 0.070-0.141 0.182-0.243 0.251-0.386 0.038-0.076 0.026-0.145 0.084-0.22 0.026-0.032 0.082-0.053 0.103-0.084 0.030-0.043 0.069-0.104 0.092-0.155 0.048-0.1 0.138-0.229 0.162-0.331 0.034-0.143-0.054-0.331-0.107-0.461-0.071-0.173-0.222-0.306-0.385-0.386-0.14-0.068-0.263-0.084-0.391-0.176-0.149-0.108-0.263-0.189-0.36-0.352-0.211-0.353-0.106-0.874 0.112-1.212 0.145-0.224 0.213-0.421 0.494-0.44 0.23-0.016 0.361 0.107 0.703 0.141z"></path>
<path d="M13.121 21.317c-0.139 0.135-0.281 0.3-0.337 0.492-0.025 0.084-0.003 0.164-0.021 0.246-0.023 0.109-0.063 0.167-0.065 0.281-0.004 0.177-0.014 0.331 0.069 0.489 0.112 0.214 0.22 0.387 0.355 0.58 0.093 0.133 0.165 0.259 0.263 0.385 0.091 0.118 0.175 0.274 0.23 0.406 0.059 0.141 0.028 0.278 0.064 0.428 0.016 0.068 0.061 0.098 0.077 0.17 0.017 0.082-0.003 0.199-0.003 0.284 0 0.080 0.012 0.168 0.001 0.247-0.011 0.086-0.044 0.107-0.065 0.181-0.049 0.172-0.077 0.283-0.167 0.431-0.125 0.208-0.242 0.412-0.436 0.581-0.22 0.192-0.476 0.332-0.686 0.544-0.1 0.101-0.211 0.177-0.283 0.297-0.081 0.135-0.226 0.345-0.265 0.489-0.023 0.084 0.011 0.198 0.005 0.285-0.006 0.106-0.058 0.178-0.075 0.281-0.026 0.144-0.020 0.408 0.018 0.546 0.007 0.025 0.050 0.047 0.059 0.082 0.011 0.047-0.017 0.102-0.007 0.149 0.012 0.059 0.080 0.152 0.109 0.206 0.065 0.124 0.213 0.343 0.162 0.484-0.113-0.015-0.191-0.187-0.247-0.272-0.108-0.161-0.259-0.297-0.372-0.458-0.262-0.375-0.467-0.772-0.494-1.231-0.020-0.342-0.004-0.67 0.21-0.943 0.113-0.146 0.259-0.326 0.423-0.412 0.148-0.077 0.322-0.107 0.467-0.181 0.327-0.167 0.521-0.329 0.519-0.712-0.001-0.159 0.023-0.339-0.016-0.492-0.025-0.095-0.048-0.142-0.054-0.247-0.006-0.096-0.047-0.139-0.065-0.216-0.018-0.079 0.010-0.161-0.003-0.24-0.015-0.093-0.072-0.171-0.117-0.253-0.12-0.225-0.299-0.379-0.435-0.59-0.209-0.326-0.366-0.634-0.525-0.984-0.172-0.379 0.122-0.665 0.336-0.949 0.111-0.146 0.28-0.225 0.457-0.281 0.123-0.038 0.43-0.093 0.538 0.018-0.016 0.005-0.032 0.012 0.375-0.123z"></path>
<path d="M8.628 11.197c-0.277-0.149-0.586-0.143-0.816 0.085-0.136 0.134-0.222 0.216-0.301 0.386-0.081 0.173-0.068 0.253 0.010 0.452 0.048 0.124 0.119 0.321 0.232 0.417 0.054 0.047 0.123 0.042 0.175 0.081 0.048 0.037 0.071 0.109 0.122 0.139 0.1 0.060 0.375 0.098 0.494 0.107 0.162 0.011 0.313 0.020 0.446-0.064 0.329-0.206 0.299-0.558-0.106-0.551-0.167 0.002-0.308 0.020-0.446-0.063-0.146-0.087-0.23-0.249-0.048-0.359 0.16-0.097 0.844-0.134 0.89-0.365 0.023-0.117-0.274-0.415-0.353-0.438-0.21-0.063-0.301 0.117-0.469 0.172z"></path>
<path d="M22.528 11.353c-0.037-0.193-0.331-0.241-0.479-0.27-0.195-0.038-0.393 0.012-0.562 0.116-0.322 0.197-0.617 0.387-0.56 0.865 0.021 0.166 0.13 0.327 0.22 0.464 0.087 0.133 0.198 0.197 0.322 0.263 0.192 0.103 0.27 0.157 0.5 0.155 0.181-0.001 0.404 0.042 0.563-0.041 0.037-0.020 0.122-0.108 0.156-0.136 0.061-0.049 0.133-0.074 0.182-0.152 0.138-0.225 0.012-0.361-0.225-0.292-0.226 0.065-0.853 0.286-0.919-0.128-0.080-0.498 0.698-0.216 0.927-0.353 0.101-0.060 0.134-0.088 0.122-0.227-0.003-0.026-0.087-0.23-0.102-0.246-0.127-0.14-0.377-0.103-0.543-0.106z"></path>
<path d="M16.204 12.197c-0.037-0.193-0.331-0.241-0.479-0.27-0.195-0.038-0.393 0.012-0.562 0.116-0.322 0.197-0.617 0.387-0.56 0.865 0.021 0.166 0.13 0.327 0.22 0.465 0.087 0.133 0.198 0.197 0.322 0.263 0.192 0.103 0.27 0.157 0.5 0.155 0.181-0.001 0.403 0.042 0.563-0.040 0.037-0.020 0.122-0.108 0.156-0.136 0.061-0.049 0.133-0.074 0.182-0.152 0.138-0.225 0.012-0.361-0.225-0.293-0.226 0.065-0.853 0.286-0.919-0.128-0.080-0.498 0.698-0.216 0.927-0.353 0.101-0.060 0.134-0.088 0.122-0.227-0.003-0.026-0.087-0.23-0.102-0.246-0.127-0.14-0.377-0.103-0.543-0.106z"></path>
<path d="M19.234 10.936c0-0.112 0.016-0.237-0.004-0.347-0.015-0.082-0.054-0.159-0.075-0.24-0.041-0.155-0.043-0.32-0.090-0.472-0.042-0.136-0.114-0.248-0.148-0.39-0.033-0.138-0.074-0.26-0.131-0.391-0.095-0.214-0.199-0.415-0.323-0.612-0.071-0.113-0.156-0.198-0.24-0.29-0.063-0.069-0.138-0.066-0.206-0.117-0.058-0.043-0.098-0.123-0.148-0.175-0.161-0.171-0.392-0.299-0.597-0.407-0.144-0.076-0.194-0.115-0.278-0.251-0.082-0.13-0.116-0.267-0.172-0.41-0.109-0.279-0.166-0.564-0.229-0.855-0.080-0.375-0.249-0.744-0.386-1.101-0.046-0.118-0.032-0.244-0.031-0.371 0.003-0.218-0.096-0.41-0.108-0.625-0.010-0.172-0.028-0.338-0.048-0.509-0.009-0.079-0.049-0.146-0.058-0.226-0.006-0.065 0.012-0.13-0.001-0.195-0.018-0.082-0.046-0.125-0.048-0.211-0.004-0.073-0.001-0.122-0.039-0.187-0.059-0.102-0.322-0.222-0.429-0.204-0.055 0.098-0.052 0.152-0.058 0.259-0.006 0.109-0.046 0.205-0.054 0.316-0.020 0.253-0.112 0.471-0.222 0.697-0.096 0.197-0.176 0.391-0.202 0.608-0.017 0.14 0.017 0.281-0.010 0.424-0.021 0.112-0.054 0.221-0.093 0.327-0.079 0.21-0.209 0.401-0.264 0.618-0.038 0.145-0.088 0.301-0.106 0.45-0.016 0.139-0.014 0.307-0.050 0.438-0.075 0.267-0.165 0.549-0.385 0.747-0.095 0.085-0.186 0.183-0.261 0.284-0.059 0.079-0.079 0.149-0.125 0.231-0.044 0.080-0.107 0.125-0.166 0.194-0.050 0.059-0.080 0.134-0.131 0.19-0.059 0.065-0.134 0.097-0.188 0.167-0.127 0.168-0.258 0.351-0.403 0.506-0.184 0.198-0.425 0.364-0.569 0.597-0.109 0.179-0.141 0.375-0.21 0.569-0.041 0.113-0.072 0.217-0.106 0.331-0.020 0.071-0.069 0.161-0.080 0.222-0.036 0.172 0.066 0.89 0.379 0.774 0.065-0.023 0.090-0.098 0.122-0.154 0.066-0.113 0.162-0.206 0.215-0.329 0.052-0.119 0.047-0.257 0.088-0.379 0.039-0.118 0.104-0.231 0.148-0.349 0.023-0.066 0.059-0.125 0.084-0.187 0.027-0.064 0.080-0.134 0.102-0.192 0.056-0.145 0.060-0.225 0.182-0.344 0.082-0.081 0.159-0.178 0.248-0.249 0.134-0.109 0.259-0.149 0.412-0.197 0.241-0.075 0.533-0.222 0.71-0.407 0.101-0.106 0.218-0.253 0.289-0.374 0.098-0.165 0.134-0.337 0.178-0.525 0.026-0.117 0.112-0.194 0.143-0.305 0.027-0.095 0.023-0.135 0.061-0.22 0.052-0.112 0.074-0.415 0.265-0.376 0.125 0.027 0.205 0.211 0.21 0.321 0.010 0.199 0.020 0.385 0.050 0.581 0.054 0.338 0.257 0.583 0.607 0.577 0.043 0 0.092-0.005 0.133-0.001 0.058 0.008 0.075 0.034 0.117 0.042 0.118 0.026 0.238 0 0.359 0.037 0.269 0.082 0.385 0.315 0.565 0.505 0.090 0.093 0.159 0.181 0.263 0.262 0.101 0.079 0.219 0.124 0.32 0.197 0.186 0.132 0.257 0.321 0.313 0.54s0.022 0.458 0.103 0.673c0.082 0.22 0.194 0.404 0.332 0.592 0.113 0.152 0.205 0.302 0.42 0.265 0.205-0.034 0.316-0.317 0.053-0.371z"></path>
</svg>
