<!-- Generated by IcoMoon.io -->
<svg version="1.1" xmlns="http://www.w3.org/2000/svg" width="33" height="32" viewBox="0 0 33 32">
<title>city_of_the_elder_things</title>
<path d="M4.666 16.413c-0.022-0.126-0.065-0.179-0.172-0.229-0.083-0.037-0.342-0.126-0.322 0.076l-0.061-0.061c-0.017 0.004-0.033 0.007-0.050 0.009-0.063 0.183-0.046 0.351-0.087 0.532-0.026 0.12-0.087 0.255-0.050 0.386 0.068 0.233 0.479 0.133 0.595-0.002 0.139-0.161 0.19-0.477 0.148-0.71zM5.819 18.335c-0.272 0.131-0.545 0.242-0.815 0.384-0.17 0.089-0.272 0.159-0.279 0.344-0.007 0.172 0 0.344 0 0.517 0 0.218-0.007 0.338-0.098 0.534-0.102 0.216-0.163 0.447-0.283 0.654-0.039 0.068-0.083 0.124-0.118 0.192-0.017 0.028-0.044 0.122-0.068 0.146-0.12 0.126-0.2-0.033-0.268-0.153-0.17-0.301-0.342-0.549-0.41-0.885-0.035-0.172-0.041-0.349-0.076-0.519-0.026-0.118-0.074-0.235-0.087-0.357-0.022-0.177-0.020-0.399-0.126-0.554-0.046-0.063-0.131-0.096-0.185-0.155-0.057-0.061-0.092-0.135-0.135-0.203-0.074-0.116-0.198-0.211-0.261-0.329-0.1-0.187-0.1-0.397-0.098-0.608 0.002-0.155 0.039-0.174-0.096-0.266s-0.316-0.122-0.425-0.253c-0.116-0.14-0.264-0.405-0.288-0.578-0.011-0.076 0.017-0.142-0.004-0.218-0.017-0.068-0.063-0.172-0.092-0.246-0.041-0.113-0.050-0.181-0.076-0.292-0.017-0.070-0.050-0.109-0.065-0.179-0.022-0.092 0.002-0.218 0.002-0.314 0-0.126-0.068-0.564 0.057-0.636 0.118-0.072 0.512-0.007 0.638-0.007 0.094 0 0.229-0.020 0.32 0.004 0.085 0.022 0.135 0.092-0.033 0.118 0.004 0.017 0.007 0.035 0.011 0.053 0.157 0.037 0.329 0.12 0.49 0.135 0.163 0.017 0.338-0.028 0.501-0.007 0.124 0.017 0.229 0.092 0.349 0.126 0.222 0.065 0.37 0.124 0.604 0.124 0.179-0.002 0.357 0.002 0.536 0 0.224-0.002 0.429 0.070 0.647 0.109 0.229 0.040 0.486-0.039 0.71 0.011 0.137 0.030 0.272 0.105 0.427 0.126 0.076 0.011 0.105-0.004 0.168 0.041 0.061 0.044 0.087 0.118 0.153 0.161 0.074 0.048 0.179 0.144 0.259 0.168 0.068 0.022 0.177-0.009 0.248-0.004 0.094 0.007 0.157 0.050 0.246 0.068 0.083 0.013 0.366-0.059 0.423 0.004 0.053 0.061-0.037 0.146-0.048 0.207-0.015 0.078-0.007 0.166-0.007 0.246 0 0.216 0.076 0.357 0.109 0.569 0.028 0.179 0.155 0.377-0.009 0.51-0.109 0.089-0.259 0.081-0.379 0.148-0.059 0.035-0.092 0.12-0.148 0.146s-0.146 0.039-0.2 0.057c-0.331 0.107-0.516 0.318-0.774 0.523-0.135 0.109-0.264 0.207-0.447 0.235-0.172 0.026-0.349 0.026-0.501 0.1zM8.344 23.033c-0.213-0.039-0.368-0.137-0.558-0.237-0.122-0.065-0.211-0.157-0.325-0.229-0.087-0.054-0.209-0.068-0.307-0.102-0.309-0.113-0.66-0.118-0.992-0.116-0.318 0.002-0.575-0.12-0.885-0.124-0.246 0.187-0.17 0.466 0.024 0.673 0.196 0.213 0.418 0.412 0.63 0.617 0.046 0.046 0.105 0.092 0.146 0.14 0.083 0.098 0.113 0.211 0.181 0.325 0.12 0.196 0.322 0.303 0.438 0.495 0.022 0.033 0.046 0.107 0.068 0.133 0.041 0.022 0.078 0.048 0.111 0.083 0.033 0.081 0.070 0.157 0.111 0.233 0.161 0.251 0.41 0.63 0.743 0.554 0.037-0.218 0.072-0.408 0.070-0.636-0.002-0.209 0.065-0.418 0.122-0.614 0.118-0.408 0.558-0.726 0.423-1.192zM12.415 24.929c-0.037-0.144-0.177-0.203-0.314-0.183-0.19 0.026-0.244 0.118-0.244 0.307l-0.061-0.122c-0.011 0.089-0.057 0.153-0.063 0.246-0.004 0.076 0.024 0.174 0.004 0.248-0.013 0.059-0.053 0.089-0.068 0.148-0.013 0.054-0.004 0.163 0.002 0.22 0.040 0.318 0.445 0.325 0.617 0.094 0.109-0.146 0.124-0.292 0.122-0.464 0-0.148 0.039-0.355 0.004-0.495zM16.015 24.5c-0.122 0.111-0.092 0.349-0.098 0.495-0.007 0.168-0.063 0.266-0.063 0.442 0.002 0.181 0 0.364 0 0.547 0.002 0.261-0.074 0.497-0.111 0.756-0.044 0.309-0.131 0.593-0.135 0.911 0 0.174 0.065 0.307 0.063 0.477-0.002 0.057-0.009 0.131-0.002 0.185 0.009 0.072 0.048 0.102 0.057 0.159 0.024 0.124-0.013 0.257 0.020 0.379 0.009 0.030 0.096 0.081 0.040 0.131-0.078 0.070-0.181-0.087-0.224-0.135-0.092-0.098-0.139-0.078-0.259-0.116-0.211-0.065-0.429-0.168-0.645-0.222-0.068-0.017-0.131-0.004-0.196-0.024-0.205-0.054-0.381-0.209-0.586-0.272-0.070-0.022-0.161-0.054-0.231-0.070-0.057-0.013-0.131 0.004-0.185-0.011-0.116-0.030-0.227-0.107-0.34-0.157-0.142-0.063-0.246-0.070-0.279-0.229-0.026-0.131-0.002-0.292-0.118-0.39-0.070 0.087-0.144-0.057-0.183-0.102-0.085-0.102-0.179-0.187-0.309-0.22-0.105-0.026-0.205-0.002-0.309-0.026-0.122-0.028-0.196-0.048-0.329-0.048-0.473 0.004-0.954-0.015-1.401-0.133-0.242-0.063-0.39-0.207-0.608-0.301-0.078-0.033-0.168-0.040-0.244-0.072-0.070-0.028-0.111-0.092-0.179-0.111-0.085-0.026-0.224 0-0.314 0.002-0.109 0.002-0.174-0.020-0.275-0.046-0.026-0.009-0.068-0.009-0.105-0.015-0.030 0.035-0.065 0.076-0.111 0.122-0.002-0.061 0.007-0.111 0.022-0.159-0.015-0.015-0.024-0.037-0.020-0.070 0.009-0.046 0.048-0.087 0.092-0.113 0.074-0.181 0.131-0.364 0.183-0.549 0.040-0.137 0.076-0.266 0.122-0.408 0.050-0.15 0.076-0.261 0.107-0.41 0.024-0.111 0.096-0.253 0.111-0.386 0.009-0.059-0.017-0.124-0.004-0.183 0.013-0.070 0.057-0.098 0.065-0.179 0.015-0.129-0.035-0.281-0.004-0.405 0.046-0.192 0.198-0.033 0.322 0.002 0.388 0.111 0.754 0.083 1.151 0.092 0.183 0.004 0.351 0.089 0.532 0.118 0.168 0.028 0.329 0.022 0.501 0.054 0.124 0.024 0.246-0.009 0.368 0.004 0.22 0.026 0.401 0.174 0.634 0.192 0.209 0.017 0.379-0.002 0.58 0.070 0.163 0.061 0.338 0.054 0.527 0.054 0.122 0 0.246 0 0.368 0 0.142 0 0.213 0.037 0.336 0.063 0.135 0.030 0.292-0.028 0.427 0.004 0.061 0.013 0.083 0.050 0.157 0.057 0.083 0.009 0.139 0.009 0.218 0.030 0.285 0.074 0.61 0.072 0.867 0.213zM23.32 15.896c-0.118-0.050-0.237-0.007-0.316 0.074-0.153 0.15-0.266 0.647-0.19 0.83 0.135 0.32 0.503 0.050 0.597-0.142 0.087-0.185 0.159-0.658-0.092-0.763zM25.636 19.52c-0.020 0.109 0.007 0.181-0.040 0.281-0.037 0.087-0.109 0.185-0.166 0.259-0.109 0.146-0.261 0.279-0.296 0.466-0.024 0.14 0.078 0.471-0.013 0.586-0.174 0.013-0.384-0.076-0.554-0.116-0.102-0.024-0.211-0.083-0.303-0.109-0.126-0.039-0.259-0.061-0.37-0.122-0.183-0.1-0.32-0.053-0.527-0.092-0.161-0.033-0.331-0.024-0.49-0.061-0.078-0.020-0.266-0.033-0.325-0.076-0.085-0.065-0.053-0.196-0.133-0.27-0.033-0.030-0.092-0.015-0.126-0.053-0.050-0.053-0.035-0.078-0.046-0.14-0.026-0.159 0.007-0.338 0.002-0.499-0.004-0.124-0.050-0.185-0.063-0.301-0.009-0.074 0.015-0.144-0.011-0.22-0.020-0.054-0.063-0.098-0.083-0.153-0.037-0.107-0.028-0.216-0.070-0.318-0.054-0.137-0.126-0.277-0.183-0.416-0.183-0.442-0.421-0.859-0.625-1.29-0.12-0.255-0.255-0.525-0.469-0.715-0.076-0.070-0.161-0.12-0.251-0.159l0.34-0.053c0.205-0.388 0.458-0.78 0.632-1.177 0.039-0.089 0.026-0.255 0.102-0.327 0.087-0.083 0.122-0.011 0.201 0.015 0.244 0.078 0.508 0.046 0.752 0.107 0.174 0.041 0.342 0.024 0.523 0.028 0.146 0.002 0.279 0.057 0.425 0.065 0.089 0.007 0.168-0.011 0.255 0.011 0.29 0.076 0.59 0.177 0.9 0.172 0.131 0 0.32-0.050 0.386 0.096 0.030 0.065 0.007 0.198 0.007 0.272-0.002 0.096 0.026 0.124 0.046 0.198 0.024 0.078-0.002 0.15 0.011 0.231 0.015 0.109 0.083 0.155 0.129 0.244 0.048 0.096 0.044 0.201 0.074 0.296 0.017 0.057 0.070 0.135 0.094 0.201 0.057 0.161 0.19 0.29 0.246 0.44 0.085 0.22 0.122 0.445 0.183 0.667 0.041 0.144 0.159 0.342 0.144 0.49-0.011 0.102-0.096 0.216-0.144 0.307-0.053 0.102-0.070 0.19-0.107 0.296-0.044 0.126-0.153 0.231-0.126 0.379 0.020 0.102 0.102 0.177 0.122 0.277 0.022 0.109-0.033 0.172-0.053 0.277zM25.632 24.684c0.015-0.002 0.033-0.004 0.050-0.004 0.011-0.028 0.015-0.057 0.020-0.083-0.028-0.004-0.054 0.017-0.070 0.087zM17.133 23.084c0.081-0.078 0.124-0.185 0.196-0.27 0.089-0.107 0.259-0.203 0.375-0.288 0.137-0.1 0.207-0.205 0.301-0.338 0.179-0.251 0.397-0.49 0.617-0.702-0.227 0.126-0.325 0.041-0.477-0.015-0.113-0.041-0.227-0.102-0.353-0.14-0.277-0.083-0.63-0.030-0.922-0.030-0.442 0-0.876-0.061-1.323-0.061-0.157 0-0.36 0.033-0.512-0.007-0.12-0.028-0.288-0.107-0.41-0.161-0.364-0.161-0.883-0.081-1.292-0.078-0.065 0-0.187 0.026-0.248-0.009-0.065-0.040-0.081-0.131-0.146-0.179-0.078-0.054-0.155-0.053-0.246-0.059-0.194-0.011-0.384-0.033-0.575-0.053-0.096-0.011-0.244-0.072-0.322-0.044-0.026 0.009-0.070 0.074-0.089 0.096-0.074 0.076-0.142 0.157-0.216 0.233-0.161 0.163-0.421 0.288-0.645 0.323-0.122 0.017-0.124-0.004-0.213 0.102-0.078 0.094-0.15 0.148-0.251 0.22-0.126 0.089-0.285 0.157-0.397 0.266-0.12 0.113-0.24 0.231-0.338 0.364-0.068 0.089-0.259 0.198-0.299 0.292-0.107 0.253 0.824 0.405 0.928 0.429 0.124 0.028 0.231 0.022 0.351 0.041 0.113 0.017 0.213 0.096 0.329 0.118 0.105 0.020 0.209-0.002 0.312 0.015 0.081 0.015 0.161 0.046 0.242 0.063 0.464 0.098 0.944 0.177 1.423 0.179 0.198 0 0.294 0.024 0.471 0.074 0.124 0.035 0.257 0.074 0.384 0.098 0.196 0.035 0.397-0.013 0.591 0.024 0.179 0.035 0.322 0.048 0.506 0.048 0.089 0 0.213-0.024 0.301-0.004 0.083 0.020 0.135 0.089 0.211 0.122 0.155 0.070 0.327 0.089 0.486 0.135 0.12 0.033 0.153 0.1 0.266-0.017 0.201-0.211 0.431-0.394 0.68-0.558 0.105-0.070 0.216-0.142 0.307-0.231zM31.291 12.212c0.026-0.353-0.004-0.73-0.004-1.083 0.002-0.418 0.033-0.859-0.131-1.251-0.087-0.207-0.222-0.449-0.24-0.676-0.013-0.181-0.009-0.351-0.044-0.532-0.022-0.113-0.068-0.224-0.081-0.338-0.015-0.142 0.011-0.292 0.007-0.436-0.009-0.209-0.089-0.336-0.159-0.525-0.048-0.126-0.065-0.259-0.111-0.39-0.094-0.253-0.155-0.554-0.288-0.787 0.028 0.229-0.168 0.438-0.246 0.623-0.050 0.118-0.057 0.275-0.059 0.403-0.009 0.39 0.007 0.776-0.030 1.164-0.035 0.353-0.063 0.704-0.094 1.057-0.015 0.181-0.059 0.342-0.059 0.525-0.002 0.268-0.089 0.503-0.129 0.763-0.024 0.174 0.020 0.355-0.009 0.532-0.046 0.283-0.054 0.604-0.124 0.878-0.024 0.1-0.050 0.166-0.048 0.277 0.002 0.092 0.009 0.179-0.013 0.264-0.004 0.015-0.048 0.098-0.054 0.122-0.046 0.131-0.048 0.312-0.072 0.451-0.030 0.17-0.050 0.325-0.094 0.486-0.026 0.1-0.007 0.203-0.026 0.303-0.028 0.144-0.072 0.301-0.126 0.436-0.046 0.113-0.044 0.218-0.072 0.336-0.035 0.135-0.087 0.346-0.155 0.466-0.048 0.085-0.131 0.148-0.187 0.242-0.074 0.124-0.17 0.19-0.259 0.301-0.1 0.124-0.183 0.264-0.277 0.388-0.462 0.617-0.909 1.251-1.34 1.894-0.307 0.46-0.471 1.020-0.641 1.528-0.092 0.272-0.124 0.564-0.211 0.837-0.054 0.172-0.102 0.318-0.1 0.499 0.002 0.231 0.020 0.425 0.061 0.643 0.017 0.087 0.041 0.155 0.078 0.242 0.059 0.148 0.046 0.272 0.046 0.434 0 0.213 0.017 0.414-0.046 0.614-0.087 0.27-0.063 0.501-0.076 0.787-0.009 0.179-0.057 0.314-0.126 0.471-0.065 0.15-0.028 0.294-0.050 0.438 0.037 0.002 0.076 0.046 0.098 0.085 0.050 0.089 0.054 0.157 0.076 0.248 0.011 0.050 0.057 0.229 0.098 0.246 0.024 0.009 0.187-0.057 0.211-0.074 0.074-0.053 0.131-0.124 0.209-0.179 0.163-0.122 0.353-0.288 0.499-0.429 0.063-0.063 0.083-0.129 0.129-0.205 0.092-0.148 0.229-0.242 0.312-0.399 0.072-0.137 0.181-0.248 0.251-0.384 0.039-0.074 0.048-0.177 0.087-0.257 0.12-0.24 0.281-0.473 0.414-0.702 0.377-0.652 0.756-1.303 1.153-1.946 0.109-0.177 0.246-0.316 0.344-0.499 0.044-0.081 0.087-0.161 0.137-0.24 0.098-0.161 0.209-0.318 0.323-0.469 0.272-0.362 0.56-0.706 0.802-1.085 0.214-0.333 0.388-0.503 0.384-0.909-0.004-0.275-0.002-0.53-0.050-0.798-0.074-0.429 0-0.88-0.061-1.314-0.050-0.366-0.013-0.756-0.013-1.127 0-0.364-0.024-0.732-0.002-1.096 0.015-0.283 0.168-0.564 0.19-0.854zM19.952 25.423c-0.181-0.148-0.327-0.397-0.394-0.617-0.041-0.144-0.109-0.259-0.166-0.399-0.068-0.174-0.107-0.323-0.142-0.51-0.033-0.19-0.017-0.379-0.074-0.571-0.050-0.166-0.109-0.331-0.183-0.486-0.061-0.126-0.194-0.227-0.235-0.37-0.035-0.122 0.041-0.316-0.057-0.408-0.153 0.076-0.242 0.34-0.327 0.473-0.122 0.192-0.246 0.386-0.394 0.558-0.116 0.131-0.24 0.22-0.375 0.316-0.094 0.068-0.288 0.157-0.285 0.279-0.179 0.011-0.281 0.32-0.388 0.445-0.111 0.129-0.266 0.205-0.338 0.305 0.020 0.089-0.050 0.146-0.065 0.229-0.013 0.078 0.004 0.181 0.004 0.261 0 0.205 0 0.412 0 0.619v2.273c0 0.292-0.070 0.689 0.009 0.965 0.323-0.205 0.442-0.669 0.713-0.904 0.153-0.133 0.381-0.279 0.569-0.368 0.105-0.048 0.17-0.122 0.27-0.185 0.163-0.1 0.366-0.135 0.499-0.279 0.102-0.111 0.185-0.248 0.283-0.366 0.065-0.078 0.155-0.155 0.203-0.246 0.037-0.068 0.048-0.129 0.096-0.192 0.14-0.181 0.34-0.325 0.497-0.49 0.1-0.109 0.163-0.235 0.281-0.331zM22.009 23.084c-0.037-0.148-0.235-0.22-0.375-0.17-0.185 0.063-0.196 0.203-0.242 0.36-0.026 0.081-0.061 0.074-0.053 0.163 0 0.020 0.022 0.059 0.048 0.098-0.015 0.257-0.216 0.656 0.185 0.656 0.174 0 0.201-0.020 0.261-0.168 0.035-0.081 0.041-0.102 0.046-0.201 0.004-0.096 0.050-0.155 0.065-0.246 0.015-0.083-0.011-0.161 0.011-0.246 0.022-0.083 0.076-0.15 0.053-0.246zM24.899 25.416c0.044 0.181 0.107 0.399 0.22 0.549-0.14 0.022-0.294 0.144-0.41 0.224-0.216 0.153-0.048 0.34-0.15 0.551-0.107 0.22-0.368 0.292-0.59 0.34-0.373 0.083-0.752 0.144-1.129 0.211-0.268 0.048-0.521 0.054-0.771 0.157-0.198 0.081-0.366 0.105-0.586 0.133-0.057 0.009-0.192 0.061-0.248 0.046-0.092-0.024-0.037-0.050-0.102-0.12-0.135-0.137-0.447-0.033-0.601 0.033-0.261 0.109-0.418 0.299-0.734 0.209-0.044-0.27 0.113-0.46 0.227-0.682 0.172-0.344 0.19-0.758 0.37-1.096 0.107-0.198 0.275-0.451 0.312-0.676s-0.094-0.244-0.251-0.353c-0.033-0.007-0.063-0.013-0.094-0.022-0.022-0.053-0.048-0.1-0.076-0.148-0.046-0.057-0.102-0.078-0.155-0.124-0.083-0.078-0.174-0.314-0.277-0.333-0.048-0.19 0.026-0.253 0.061-0.307 0.044-0.070 0.092-0.166 0.111-0.246 0.039-0.17 0.105-0.316 0.14-0.493 0.022-0.116-0.017-0.235 0.011-0.355 0.022-0.098 0.054-0.194 0.078-0.29 0.054-0.233 0.053-0.477 0.161-0.706 0.092 0 0.209 0.044 0.294 0.072 0.17 0.057 0.266 0.111 0.455 0.113 0.211 0.002 0.394 0 0.593 0.046s0.416 0.061 0.608 0.135c0.185 0.072 0.244 0.277 0.497 0.177 0.002-0.181-0.113-0.161 0.092-0.266 0.144-0.072 0.233-0.155 0.344-0.266 0.081-0.083 0.177-0.15 0.248-0.244 0.037-0.050 0.065-0.135 0.122-0.177-0.011 0.203 0.048 0.405 0.12 0.593 0.070 0.177 0.054 0.36 0.124 0.523 0.124 0.292 0.261 0.614 0.442 0.889 0.113 0.17 0.201 0.272 0.261 0.469 0.065 0.198 0.122 0.39 0.157 0.59 0.030 0.168 0.057 0.338 0.094 0.508 0.024 0.113 0.009 0.229 0.033 0.336zM18.749 17.582c0.011-0.131-0.087-0.357-0.218-0.397-0.421-0.126-0.521 0.379-0.523 0.673l-0.061-0.061c0.022 0.092-0.048 0.107-0.065 0.181-0.017 0.072 0.004 0.174 0.002 0.248 0 0.168-0.002 0.296 0.183 0.357 0.148 0.050 0.29 0.022 0.386-0.094 0.053-0.063 0.092-0.126 0.124-0.203 0.048-0.105 0.022-0.17 0.044-0.277 0.028-0.14 0.116-0.277 0.129-0.429zM20.127 15.895c0.129 0.022 0.253 0.057 0.37 0.109l-0.050 0.007c-0.248 0.133-0.061 0.732-0.041 0.946 0.022 0.222 0.122 0.458 0.218 0.658 0.065 0.135 0.12 0.288 0.198 0.421 0.081 0.131 0.111 0.24 0.15 0.394 0.050 0.179 0.192 0.307 0.237 0.471 0.017 0.070 0.004 0.148 0.028 0.222 0.039 0.111 0.118 0.211 0.144 0.327 0.013 0.065-0.009 0.131 0.004 0.192 0.015 0.065 0.057 0.118 0.126 0.246-0.024 0.083-0.163 0.19-0.231 0.264-0.053 0.059-0.096 0.105-0.137 0.168-0.107 0.157-0.194 0.327-0.29 0.49-0.092 0.15-0.213 0.392-0.412 0.366-0.041-0.007-0.048-0.050-0.094-0.061-0.063-0.015-0.124 0.007-0.19-0.011-0.14-0.035-0.285-0.085-0.431-0.111-0.102-0.020-0.211 0.011-0.316-0.011-0.161-0.030-0.32-0.081-0.482-0.107-0.129-0.024-0.235-0.061-0.368-0.063-0.187-0.004-0.364 0.011-0.549-0.033-0.292-0.068-0.628-0.030-0.928-0.030-0.163 0-0.327 0-0.493 0-0.059 0-0.126 0.009-0.183 0.002-0.061-0.009-0.087-0.035-0.135-0.050-0.087-0.026-0.144-0.044-0.224-0.074-0.192-0.076-0.312 0.017-0.316-0.216-0.007-0.242 0.177-0.431 0.294-0.643 0.063-0.111 0.096-0.266 0.15-0.386 0.048-0.1 0.068-0.205 0.107-0.294 0.096-0.222 0.050-0.455 0.063-0.708 0.013-0.246 0.116-0.495 0.17-0.741 0.024-0.113 0.072-0.22 0.078-0.333 0.002-0.061-0.013-0.109 0.011-0.17 0.015-0.046 0.078-0.078 0.098-0.135 0.035-0.109 0.035-0.19 0.089-0.296 0.053-0.1 0.085-0.168 0.181-0.242 0.166-0.124 0.27-0.268 0.355-0.445 0.133-0.277 0.331-0.248 0.612-0.248 0.194 0 0.386-0.028 0.58-0.022 0.224 0.007 0.436 0.074 0.66 0.083 0.166 0.004 0.329 0.002 0.497 0.015 0.148 0.011 0.299 0.024 0.447 0.050zM23.141 21.121c-0.022-0.020-0.242-0.063-0.275-0.068-0.089-0.015-0.159-0.024-0.246-0.046-0.083-0.020-0.163-0.039-0.246-0.061-0.094-0.024-0.187 0.009-0.279-0.011-0.068-0.015-0.113-0.046-0.181-0.065-0.035-0.011-0.081 0.004-0.118-0.004-0.037-0.007-0.037-0.044-0.074-0.050-0.168-0.030-0.196 0.109-0.316 0.196-0.224 0.166-0.571 0.237-0.754 0.475l0.124 0.122c0.002-0.011 0.007-0.024 0.009-0.037 0.205 0.061 0.346 0.166 0.569 0.161 0.194-0.002 0.312 0.063 0.497 0.061 0.174-0.002 0.349 0.002 0.523 0 0.153-0.002 0.292 0.035 0.442 0.053-0.041-0.063 0.207-0.305 0.229-0.338 0.053-0.089 0.174-0.318 0.096-0.388zM22.908 21.858c-0.030-0.002-0.061-0.007-0.092-0.011 0.009 0.017 0.037 0.022 0.092 0.011zM17.763 10.973l0.061-0.124c0 0.12 0.011 0.242-0.013 0.355-0.009 0.044-0.044 0.076-0.050 0.135-0.004 0.050 0 0.107 0.002 0.157 0.002 0.146 0.015 0.233 0.185 0.218 0.122-0.011 0.211-0.068 0.248-0.187 0.033-0.105 0.037-0.229 0.063-0.338 0.041-0.163 0.065-0.133-0.020-0.275-0.054-0.089-0.118-0.172-0.229-0.192-0.144-0.026-0.279 0.105-0.248 0.251zM16.44 14.723c-0.187-0.004-0.375 0-0.564 0 0.015 0 0.028 0 0.227-0.246-0.068-0.392 0.237-0.756 0.248-1.133 0.004-0.198 0.020-0.338 0.059-0.525 0.046-0.222 0.181-0.412 0.233-0.632 0.054-0.235 0.124-0.37 0.272-0.547 0.246-0.294 0.172-0.732 0.172-1.098 0-0.277 0.020-0.562-0.004-0.837 0.078 0.096 0.325 0.028 0.438 0.037 0.078 0.007 0.135 0.041 0.209 0.057 0.12 0.024 0.246 0.013 0.37 0.037 0.118 0.022 0.229 0.015 0.342 0.028 0.070 0.009 0.098 0.041 0.155 0.059 0.068 0.017 0.144 0.037 0.211 0.053 0.050 0.013 0.201-0.017 0.235 0.024 0.068 0.074 0.004 0.469 0.009 0.549 0.011 0.19 0.081 0.39 0.124 0.575 0.078 0.346 0.159 0.686 0.281 1.026 0.068 0.185 0.153 0.355 0.213 0.547 0.078 0.255 0.185 0.547 0.181 0.828-0.004 0.264 0.185 0.673-0.013 0.891-0.209 0.229-0.486 0.408-0.734 0.582-0.094 0.068-0.207 0.102-0.301 0.157-0.044 0.026-0.076 0.070-0.118 0.094-0.137 0.076-0.246-0.041-0.373-0.109-0.166-0.089-0.301-0.203-0.477-0.281-0.27-0.122-0.573-0.074-0.863-0.074-0.092 0-0.198 0.015-0.288-0.004-0.094-0.020-0.142-0.054-0.246-0.057zM20.304 14.543c-0.085-0.131-0.094-0.068-0.076-0.011 0.026 0.007 0.050 0.011 0.076 0.011zM11.984 15.709c0-0.131 0.009-0.194-0.078-0.292-0.074-0.087-0.118-0.126-0.229-0.142-0.177-0.024-0.227 0.081-0.37 0.124l0.185 0.063c-0.017 0.002-0.035 0.004-0.053 0.009-0.054 0.111-0.013 0.327-0.040 0.451-0.022 0.105-0.074 0.251 0.002 0.342 0.087 0.105 0.279 0.078 0.351 0 0.068-0.072 0.102-0.187 0.153-0.266 0.033-0.053 0.059-0.037 0.081-0.102 0.013-0.044-0.002-0.144-0.002-0.187zM12.966 20.043c-0.004-0.14-0.057-0.237-0.094-0.37-0.037-0.126-0.033-0.224-0.092-0.338-0.231-0.442-0.434-0.957-0.429-1.471 0.002-0.299-0.009-0.353-0.309-0.436-0.116-0.033-0.255-0.030-0.37-0.059-0.139-0.035-0.283-0.107-0.429-0.126-0.050-0.009-0.105 0.013-0.155 0.004-0.039-0.007-0.074-0.044-0.1-0.050-0.122-0.030-0.255 0.015-0.375-0.011-0.116-0.022-0.166-0.065-0.29-0.063-0.113 0-0.227 0-0.338 0-0.216 0-0.431-0.004-0.647-0.002-0.155 0.004-0.166 0.020-0.185-0.12-0.020-0.15 0.028-0.275 0.063-0.416 0.107-0.442 0.174-0.863 0.259-1.294 0.035-0.179 0.166-0.32 0.248-0.49 0.053-0.107 0.074-0.155 0.105-0.259 0.035-0.111 0.061-0.211 0.142-0.294 0.122-0.124 0.412-0.092 0.588-0.078 0.196 0.011 0.379 0.068 0.56 0.124 0.203 0.068 0.416 0.076 0.625 0.111 0.285 0.048 0.599 0.013 0.887 0.013 0.133 0 0.266 0 0.397 0 0.139 0 0.237-0.044 0.554-0.185 0.002 0.142-0.009 0.209 0.039 0.357 0.065 0.153 0.122 0.305 0.17 0.464 0.024 0.122 0.035 0.246 0.035 0.373 0.022 0.135 0.068 0.19 0.126 0.318 0.1 0.224 0.12 0.469 0.216 0.693 0.107 0.248 0.116 0.525 0.198 0.785 0.033 0.1 0.068 0.163 0.078 0.266 0.011 0.105 0.004 0.19 0.028 0.292 0.078 0.329 0.126 0.671 0.198 1.002 0.040 0.181 0.135 0.346 0.146 0.534 0.009 0.107-0.026 0.227-0.007 0.331 0.026 0.137 0.065 0.213 0.063 0.366-0.002 0.076-0.017 0.172-0.004 0.246 0.015 0.092 0.107 0.129 0.057 0.237-0.285 0.070-0.665 0.007-0.939-0.041-0.124-0.020-0.205-0.020-0.329-0.074-0.146-0.063-0.22-0.061-0.384-0.061-0.065 0-0.253 0.037-0.299-0.009-0.046-0.048-0.007-0.209-0.009-0.268zM14.936 15.035c-0.242-0.028-0.423-0.159-0.673-0.124-0.009 0.207 0.087 0.388 0.044 0.599-0.015 0.068-0.057 0.102-0.050 0.198 0.007 0.092 0.053 0.157 0.124 0.122-0.024 0.092 0.078 0.203 0.107 0.29 0.046 0.124 0.081 0.248 0.131 0.364 0.033 0.070 0.059 0.144 0.1 0.209 0.039 0.065 0.113 0.118 0.139 0.194 0.050 0.146 0.102 0.235 0.183 0.368 0.053 0.083 0.070 0.179 0.133 0.257 0.024 0.028 0.068 0.054 0.085 0.083 0.053 0.089 0.057 0.187 0.107 0.29 0.020 0.044 0.050 0.039 0.063 0.094 0.017 0.061-0.015 0.12 0.009 0.183 0.133 0.048 0.314-0.909 0.36-1.042 0.030-0.089 0.009-0.092 0.074-0.168 0.028-0.033 0.061-0.063 0.092-0.094 0.1-0.094 0.201-0.185 0.294-0.29 0.087-0.098 0.126-0.213 0.155-0.338 0.017-0.068-0.026-0.137 0.011-0.205 0.017-0.035 0.081-0.074 0.111-0.105 0.081-0.078 0.148-0.159 0.22-0.244 0.111-0.135 0.246-0.203 0.39-0.294-0.030-0.205-0.588-0.142-0.721-0.179-0.157-0.046-0.29-0.161-0.447-0.209-0.131-0.039-0.257-0.026-0.39-0.026-0.227-0.002-0.425 0.092-0.649 0.065zM2.693 11.838c0.194 0.089 0.259-0.085 0.32-0.211 0.046-0.1 0.118-0.336 0.020-0.436-0.17-0.174-0.277 0.083-0.275 0.211h-0.122c0 0.12-0.053 0.386 0.057 0.436zM1.676 13.73c0.118-0.203 0.040-0.619 0.040-0.85 0-0.316 0.033-0.58 0.139-0.876 0.026-0.072 0.037-0.144 0.059-0.216 0.030-0.094 0.026-0.168 0.044-0.264 0.024-0.135 0.1-0.261 0.124-0.401 0.044-0.246 0.078-0.517 0.139-0.752 0.024-0.094 0.116-0.205 0.122-0.314 0.166 0.083 0.342 0.209 0.514 0.294 0.131 0.063 0.593 0.166 0.641-0.035 0.133 0.246 0.044 0.54 0 0.778-0.035 0.183-0.122 0.346-0.124 0.543-0.002 0.133-0.026 0.309-0.002 0.442 0.013 0.076 0.054 0.137 0.068 0.213 0.009 0.070-0.004 0.148-0.002 0.216 0 0.157-0.054 0.24-0.063 0.381-0.004 0.061-0.017 0.172-0.004 0.235 0.022 0.094 0.139 0.15 0.135 0.248 0 0.046-0.059 0.070-0.072 0.116-0.017 0.072 0.004 0.177 0.004 0.251-0.078-0.181-0.096-0.179-0.113-0.174-0.041 0.144-0.009 0.288 0.046 0.408-0.144 0.041-0.259-0.024-0.388-0.054-0.124-0.030-0.272-0.098-0.405-0.148-0.183-0.070-0.299-0.089-0.493-0.094-0.129 0-0.296 0.107-0.408 0.053zM24.71 3.704c0.161-0.041 0.209-0.035 0.37 0.015 0.146 0.046 0.314 0.037 0.462 0.087 0.255 0.089 0.425 0.323 0.708 0.281 0.126-0.017 0.155-0.085 0.259-0.17 0.12-0.094 0.257-0.122 0.403-0.2-0.102-0.015-0.174-0.089-0.268-0.118-0.089-0.030-0.124-0.013-0.211-0.065-0.124-0.072-0.242-0.111-0.37-0.168-0.259-0.113-0.466-0.285-0.73-0.327-0.163-0.024-0.338 0.033-0.499-0.011-0.157-0.044-0.237-0.053-0.355 0.087-0.028 0.033-0.048 0.092-0.074 0.126-0.030 0.040-0.074 0.085-0.109 0.124-0.098 0.105-0.235 0.224-0.384 0.229l-0.040 0.126c0.275-0.053 0.558 0.057 0.837-0.017zM20.404 14.535c-0.035 0.007-0.068 0.011-0.1 0.009 0.028 0.041 0.061 0.098 0.102 0.181 0-0.063-0.002-0.126-0.002-0.19zM23.849 6.117l0.185-0.124c-0.068 0.275-0.122 0.462-0.122 0.739 0 0.153-0.057 0.408 0.12 0.482 0.281 0.118 0.647-0.179 0.68-0.451 0.022-0.174-0.002-0.373-0.002-0.547 0-0.133 0.053-0.397-0.059-0.497-0.085-0.076-0.357-0.046-0.462-0.004-0.146 0.057-0.318 0.242-0.34 0.403zM20.838 14.328c-0.116 0.072-0.279 0.174-0.434 0.207-0.004-0.129-0.007-0.255-0.002-0.381 0.007-0.15 0.065-0.24 0.131-0.368 0.050-0.098 0.046-0.181 0.074-0.281 0.085-0.314 0.266-0.623 0.418-0.917 0.065-0.129 0.118-0.257 0.181-0.384 0.028-0.054 0.094-0.129 0.113-0.183 0.028-0.076-0.007-0.15 0.020-0.231 0.037-0.12 0.137-0.17 0.163-0.309 0.020-0.092 0.041-0.185 0.059-0.275 0.013-0.065-0.004-0.146 0.013-0.205 0.013-0.059 0.053-0.089 0.065-0.146 0.028-0.116-0.028-0.255-0.007-0.373 0.013-0.068 0.054-0.113 0.068-0.181 0.017-0.085-0.026-0.168 0.009-0.253 0.044-0.105 0.137-0.198 0.19-0.301 0.063-0.124 0.024-0.242 0.059-0.373 0.041-0.159 0.089-0.327 0.113-0.497 0.009-0.065-0.011-0.111 0.007-0.177 0.022-0.078 0.096-0.161 0.131-0.237 0.059-0.133 0.133-0.279 0.211-0.412 0.068-0.118 0.153-0.22 0.207-0.342 0.024-0.054 0.022-0.118 0.054-0.179 0.065-0.122 0.063-0.196 0.061-0.342 0-0.318 0-0.638 0-0.959 0-0.327-0.009-0.638 0.107-0.944 0.135-0.355 0.379-0.654 0.573-0.976 0.085-0.144 0.133-0.316 0.231-0.449 0.057-0.078 0.122-0.122 0.216-0.139 0.002 0 0.004 0 0.004 0l-0.030 0.102c0.007 0.004 0.015 0.011 0.022 0.015 0.074 0.054 0.14 0.163 0.229 0.19 0.037 0.011 0.092-0.015 0.129-0.007 0.057 0.013 0.061 0.054 0.116 0.068 0.22 0.057 0.527-0.109 0.717 0.054 0.057 0.046 0.070 0.129 0.131 0.177 0.131 0.1 0.532 0.076 0.667 0.076 0.148 0.002 0.283-0.061 0.277 0.118-0.002 0.081-0.057 0.174-0.065 0.259-0.013 0.122-0.046 0.229-0.063 0.349-0.046 0.294 0.002 0.628 0.002 0.931 0 0.538 0 1.068-0.048 1.604-0.017 0.185-0.017 0.362-0.015 0.547 0.002 0.161-0.040 0.392 0.028 0.545 0.046 0.1 0.087 0.085 0.1 0.194 0.011 0.116 0.022 0.216 0.044 0.331 0.033 0.181 0.015 0.368 0.013 0.551 0 0.429 0.004 0.856 0 1.286-0.004 0.715 0.129 1.414 0.124 2.129-0.002 0.314-0.065 0.686 0.013 0.992 0.035 0.135 0.111 0.333 0.102 0.475-0.085-0.020-0.070-0.068-0.129-0.107-0.057-0.040-0.094-0.048-0.159-0.074-0.078-0.033-0.166-0.087-0.244-0.126-0.351-0.17-0.848 0.113-1.168-0.153-0.142-0.116-0.283-0.22-0.427-0.338-0.244-0.198-0.689-0.211-0.981-0.139-0.288 0.074-0.549 0.094-0.843 0.094-0.264 0-0.525 0-0.787 0-0.092 0-0.24-0.028-0.323 0.004-0.072 0.028-0.124 0.122-0.172 0.177-0.089 0.105-0.179 0.207-0.294 0.283zM26.617 4.885v0.401c0 0.272 0.033 0.569 0.133 0.813 0.030 0.074 0.092 0.139 0.122 0.227 0.022 0.065 0.039 0.109 0.053 0.179 0.039 0.194 0.085 0.394 0.065 0.595-0.013 0.116-0.061 0.218-0.068 0.336-0.009 0.129 0.002 0.264 0.002 0.392 0 0.159 0 0.316 0 0.473v0.981c0 0.305 0.050 0.669-0.013 0.97-0.070 0.333-0.048 0.678-0.048 1.022 0 0.754 0.030 1.515-0.002 2.269 0.094-0.113 0.129-0.264 0.224-0.384 0.107-0.133 0.207-0.255 0.331-0.37 0.094-0.085 0.172-0.187 0.259-0.277 0.12-0.12 0.301-0.155 0.414-0.277 0.222-0.24 0.144-0.595 0.261-0.885 0.054-0.137 0.227-0.327 0.237-0.464 0.013-0.148-0.14-0.305-0.224-0.408-0.24-0.288-0.399-0.649-0.394-1.022 0.002-0.294 0.007-0.591 0-0.887-0.002-0.172-0.068-0.32-0.109-0.484-0.017-0.068-0.011-0.131-0.026-0.198-0.020-0.094-0.083-0.174-0.107-0.264-0.030-0.124-0.094-0.257-0.122-0.375-0.015-0.059 0-0.122-0.009-0.183-0.017-0.102-0.074-0.179-0.107-0.272-0.054-0.166-0.105-0.333-0.181-0.493-0.092-0.187-0.153-0.386-0.207-0.58-0.020-0.070-0.053-0.1-0.057-0.187-0.002-0.072 0.002-0.144 0.002-0.216 0-0.327 0-0.656 0.368-1.107-0.116 0.009-0.253 0.142-0.368 0.185-0.085 0.028-0.37 0.070-0.423 0.133-0.048 0.063-0.009 0.279-0.009 0.357zM6.37 12.774c0.203 0.309 0.551-0.022 0.641-0.227 0.065-0.148 0.092-0.266 0.12-0.431 0.030-0.163 0.133-0.283-0.033-0.408-0.113-0.085-0.288-0.076-0.403-0.030-0.19 0.078-0.181 0.157-0.185 0.342v-0.063c-0.009 0.096-0.083 0.159-0.109 0.246-0.020 0.065 0 0.122-0.009 0.185-0.026 0.155-0.118 0.24-0.022 0.386zM3.557 13.77c0.028-0.116 0.177-0.233 0.259-0.333 0.081-0.096 0.174-0.179 0.235-0.285 0.065-0.116 0.118-0.246 0.177-0.366 0.19-0.384 0.512-0.658 0.715-1.042 0.057-0.109 0.124-0.209 0.19-0.314 0.037-0.059 0.074-0.118 0.111-0.174 0.035-0.053 0.096-0.111 0.124-0.159 0.048-0.083 0.089-0.146 0.155-0.222 0.026-0.030 0.12-0.17-0.057-0.392 0.1-0.028 0.229 0.094 0.333 0.111 0.174 0.028 0.303 0.017 0.466 0.059 0.096 0.026 0.205 0.017 0.305 0.015 0.142-0.002 0.237 0.041 0.373 0.063 0.094 0.017 0.209-0.002 0.305-0.002 0.137 0.002 0.24 0.048 0.373 0.065 0.098 0.011 0.207-0.024 0.303-0.007 0.107 0.017 0.205 0.085 0.307 0.111 0.394 0.098 0.769-0.057 1.138-0.111 0.213-0.030 0.414-0.096 0.617-0.181 0.078-0.035 0.174-0.096 0.251-0.118 0.046-0.013 0.089 0 0.135-0.017 0.044-0.017 0.068-0.076 0.126-0.089 0.044 0.135 0.037 0.27 0.083 0.41 0.050 0.148 0.183 0.283 0.255 0.418 0.131 0.246 0.329 0.503 0.379 0.778 0.044 0.233 0.155 0.523 0.259 0.726 0.046 0.089 0.107 0.179 0.155 0.275 0.024 0.046 0.078 0.107 0.094 0.153 0.026 0.074 0.011 0.148 0.054 0.222-0.085 0.035-0.233 0.009-0.322 0.009-0.144 0-0.213 0.237-0.329 0.288-0.081 0.037-0.177-0.192-0.253-0.166-0.083 0.028-0.155 0.1-0.242 0.139-0.425 0.198-0.765 0.314-1.231 0.375-0.405 0.053-0.213 0.49-0.543 0.7-0.083 0.053-0.638 0.181-0.719 0.209-0.105 0.037-0.192-0.017-0.309-0.037-0.237-0.041-0.455-0.12-0.676-0.231-0.074-0.037-0.124-0.098-0.211-0.111-0.161-0.026-0.322-0.017-0.488-0.057-0.126-0.030-0.248-0.107-0.373-0.129-0.098-0.017-0.209 0.024-0.307 0.007-0.168-0.028-0.32-0.118-0.493-0.126-0.285-0.017-0.51-0.046-0.763-0.172-0.174-0.085-0.338-0.072-0.527-0.074-0.192 0-0.51 0.074-0.434-0.216zM7.632 8.59c-0.013 0.063-0.015 0.102-0.015 0.17 0.002 0.092-0.033 0.251 0.007 0.333 0.107 0.24 0.346 0.048 0.41-0.1 0.046-0.111 0.074-0.207 0.076-0.325 0.004-0.124 0.020-0.207-0.061-0.279-0.129-0.118-0.497-0.044-0.431 0.185l0.063-0.122c0.026 0.105-0.035 0.068-0.048 0.137zM6.622 10.037c-0.2 0.046-0.436-0.030-0.61 0.113-0.011-0.124 0.179-0.275 0.242-0.364 0.074-0.107 0.148-0.246 0.222-0.362 0.185-0.285 0.408-0.512 0.588-0.809 0.070-0.111 0.126-0.235 0.196-0.349 0.089-0.142 0.177-0.277 0.251-0.429 0.053-0.109 0.081-0.168 0.15-0.259 0.065-0.081 0.19-0.253 0.2-0.355-0.035 0.126 0.166-0.126 0.244-0.2 0.054-0.053 0.137-0.074 0.19-0.122 0.020-0.020 0.054-0.092 0.074-0.1 0.098-0.041 0.116 0.053 0.183 0.1 0.074 0.057 0.131 0.037 0.187 0.135 0.044 0.076 0.085 0.168 0.122 0.244 0.078 0.159 0.153 0.307 0.229 0.469 0.2 0.421 0.412 0.841 0.617 1.257 0.087 0.183 0.198 0.384 0.305 0.556 0.063 0.102 0.211 0.39 0.351 0.366-0.157-0.011-0.412 0.113-0.564 0.153-0.166 0.044-0.338 0.089-0.484 0.163-0.355 0.179-0.662 0.107-1.024-0.011-0.357-0.113-0.758-0.242-1.153-0.244-0.098 0-0.194 0.002-0.29 0.002-0.096-0.002-0.157 0.030-0.227 0.046zM2.515 9.594c0.011 0.129 0.096 0.085 0.213 0.087 0.205 0.002 0.327 0.111 0.497 0.185 0.109 0.048 0.185 0.089 0.216-0.061 0.009-0.048-0.013-0.105-0.009-0.155 0.009-0.059 0.037-0.098 0.050-0.153 0.026-0.098 0.017-0.207 0.015-0.307-0.002-0.122 0.039-0.146 0.065-0.244 0.1-0.405-0.534-0.508-0.793-0.567 0-0.004-0.002-0.007-0.002-0.011-0.015 0.105 0.002 0.209-0.022 0.314-0.022 0.096-0.092 0.174-0.113 0.257-0.022 0.096 0.020 0.211 0.007 0.307-0.013 0.111-0.131 0.246-0.124 0.346zM2.816 8.217l-0.057 0.113c0.002 0.013 0.007 0.026 0.009 0.040 0.002-0.013 0.002-0.026 0.007-0.040 0.009-0.039 0.024-0.076 0.041-0.113zM13.892 11.538c-0.011 0.155-0.105 0.322-0.070 0.482 0.035 0.15 0.159 0.148 0.268 0.076 0.102-0.068 0.094-0.153 0.12-0.261 0.026-0.116 0.098-0.192 0.111-0.307 0.011-0.096 0.022-0.272 0.002-0.368-0.026-0.124-0.15-0.237-0.283-0.183-0.063 0.024-0.174 0.227-0.153 0.305h0.030c-0.059 0.039-0.022 0.183-0.026 0.257zM12.598 13.325c-0.159-0.050-0.266-0.074-0.431-0.076 0.224-0.377 0.305-0.501 0.309-0.584 0.004-0.109 0.022-0.177 0.046-0.277 0.061-0.237 0.076-0.49 0.076-0.739 0-0.2-0.035-0.418 0.054-0.591 0.048-0.098 0.063-0.126 0.168-0.185 0.129-0.070 0.336-0.061 0.442-0.157 0.061-0.054 0.135-0.22 0.181-0.294 0.028-0.048 0.059-0.102 0.072-0.157 0.011-0.044-0.015-0.12 0-0.157 0.054-0.131 0.41 0.022 0.525 0.074 0.185 0.081 0.386 0.053 0.586 0.053 0.094 0 0.222-0.024 0.312-0.002 0.083 0.020 0.135 0.059 0.233 0.074 0.013 0.148 0.072 0.268 0.070 0.421-0.002 0.135 0 0.27 0 0.405 0 0.15 0.002 0.303 0 0.453-0.002 0.168 0.057 0.305 0.063 0.469 0.013 0.384-0.007 0.771 0.122 1.133 0.063 0.179 0.059 0.318 0.061 0.503 0 0.122 0.015 0.401-0.096 0.477-0.1 0.070-0.34-0.024-0.445-0.046-0.222-0.046-0.466-0.007-0.684 0.035-0.15 0.028-0.229-0.007-0.255-0.172-0.024-0.174 0.011-0.22-0.116-0.368-0.105-0.12-0.279-0.168-0.438-0.187-0.057-0.007-0.12 0.017-0.179 0.007-0.111-0.020-0.196-0.061-0.312-0.065-0.142-0.007-0.235-0.004-0.366-0.046zM6.235 18.782c0.076 0.015 0.155-0.004 0.233-0.026-0.074 0.017-0.15 0.028-0.233 0.026zM7.814 21.181c0.035 0.142 0.122 0.272 0.296 0.174 0.068-0.040 0.205-0.203 0.246-0.264 0.12-0.181 0.2-0.54 0.076-0.728-0.102-0.153-0.643-0.19-0.571 0.078v0.061c0.163 0.020-0.028 0.192-0.048 0.261-0.033 0.113-0.026 0.299 0 0.416zM5.467 20.863c0.017-0.261-0.030-0.512 0.059-0.763 0.081-0.229 0.126-0.482 0.429-0.826 0.357 0 0.693 0.131 1.048 0.122 0.1 0 0.187-0.009 0.281 0.030 0.050 0.020 0.094 0.065 0.148 0.081 0.126 0.040 0.299 0.013 0.429 0.013 0.379 0 0.745 0.061 1.127 0.061 0.32 0 0.643 0 0.963 0 0.105 0 0.207 0 0.309 0 0.050 0 0.139-0.015 0.187-0.002 0.044 0.009 0.054 0.048 0.094 0.059 0.098 0.024 0.231 0.076 0.333 0.070 0.111-0.009 0.15-0.063 0.231-0.142 0.15-0.144 0.368-0.323 0.554-0.434 0.148-0.087 0.342-0.179 0.447-0.329-0.013 0.255 0.007 0.46 0.065 0.686 0.054 0.207 0.24 0.408 0.17 0.636-0.12 0.013-0.213 0.048-0.329 0.076-0.161 0.041-0.333 0.078-0.495 0.116-0.227 0.054-0.51 0.148-0.66 0.357-0.096 0.133-0.194 0.201-0.322 0.294-0.068 0.050-0.105 0.163-0.166 0.203-0.035 0.022-0.133 0.028-0.17 0.039-0.401 0.107-0.922 0.329-1.122 0.708-0.059 0.107-0.137 0.203-0.2 0.305-0.118 0.194-0.153 0.201-0.388 0.185-0.353-0.024-0.665-0.255-1.011-0.246-0.22 0.007-0.338-0.057-0.54-0.111-0.168-0.044-0.312-0.059-0.493-0.078-0.148-0.017-0.384-0.037-0.514-0.118-0.113-0.068-0.168-0.187-0.266-0.264-0.089-0.070-0.316 0.017-0.377-0.053-0.053-0.061 0.046-0.192 0.068-0.248 0.050-0.129 0.102-0.294 0.111-0.429zM7.439 18.72c-0.257 0-0.514 0.002-0.774 0-0.053 0-0.105 0.011-0.159 0.026 0.237-0.065 0.453-0.203 0.704-0.272 0.242-0.065 0.466-0.231 0.676-0.364 0.135-0.087 0.506-0.224 0.469-0.436 0.194 0.12 0.357 0.187 0.554 0.185 0.207-0.002 0.397 0.061 0.604 0.063 0.318 0.004 0.621 0.131 0.935 0.198 0.299 0.063 0.604 0.053 0.909 0.046 0.224-0.004 0.224 0.037 0.118 0.233-0.092 0.17-0.299 0.316-0.458 0.46-0.133 0.118-0.211 0.172-0.386 0.168-0.181-0.002-0.364-0.004-0.543 0-0.135 0.004-0.224-0.007-0.353-0.061-0.078-0.033-0.146-0.033-0.213-0.059-0.076-0.030-0.096-0.050-0.179-0.065-0.081-0.015-0.181 0-0.266 0.002-0.231 0-0.429-0.053-0.658-0.078-0.333-0.037-0.641-0.046-0.978-0.046z"></path>
</svg>
