<!-- Generated by IcoMoon.io -->
<svg version="1.1" xmlns="http://www.w3.org/2000/svg" width="32" height="32" viewBox="0 0 32 32">
<title>class_neutral</title>
<path fill="#394852" d="M15.359 1.519l-4.291 5.722h-6.828v0.797l-0.781 0.181 1.609 7.019-4.309 5.747 6.278 2.828 1.681 7.319 7.281-3.281 7.281 3.281 1.681-7.319 6.278-2.828-4.309-5.747 1.609-7.019-0.781-0.181v-0.797h-6.828l-4.291-5.722-0.641 0.481zM15.606 3.862c0.227 1.24 0.501 2.273 0.766 3.378h-3.303zM17.609 5.478l1.322 1.763h-0.922c-0.139-0.569-0.27-1.158-0.4-1.763zM6.097 8.841h3.772l-1.75 2.334c-0.566-0.809-1.276-1.561-2.022-2.334zM11.869 8.841h4.869c0.209 0.791 0.359 1.821 0.578 2.55l-3.356 1.297c-0.353-0.3-0.779-0.531-1.272-0.531-1.105 0-2.016 0.914-2.016 2.019s0.911 2.016 2.016 2.016c1.105 0 2.019-0.911 2.019-2.016 0-0.021-0.021-0.033-0.022-0.053l3.128-1.206c0.671 2.073 1.359 4.051 1.959 5.772 0.521 1.563-0.011 2.211-0.522 2.403-0.476 0.179-1.174-0.032-1.672-1.113 0.2-0.314 0.541-0.538 0.541-0.934 0-1.105-0.914-2.019-2.019-2.019s-2.019 0.914-2.019 2.019c0 1.105 0.914 2.016 2.019 2.016 0.125 0 0.227-0.068 0.347-0.091 0.843 1.349 2.173 2.069 3.369 1.619 1.4-0.528 2.168-2.317 1.472-4.406v-0.006l-0.003-0.003c-0.618-1.773-1.31-3.75-1.981-5.831l2.675-1.034 3.225 4.3-1.625 7.075-7.578 3.416-7.578-3.416-1.625-7.075 1.203-1.606c0.093 0.172 0.243 0.357 0.328 0.525 0.484 0.954 0.832 1.835 1.056 2.534 0.155 0.483 0.175 0.701 0.216 0.95-0.624 0.345-1.119 0.888-1.119 1.644 0 1.105 0.911 2.016 2.016 2.016s2.019-0.911 2.019-2.016c0-0.836-0.592-1.427-1.325-1.731-0.053-0.4-0.099-0.779-0.281-1.35-0.252-0.787-0.63-1.738-1.153-2.769-0.189-0.373-0.504-0.782-0.731-1.172zM18.372 8.841h1.759l0.85 1.134-2.163 0.834c-0.169-0.566-0.284-1.366-0.447-1.969zM22.131 8.841h1.637l-1.247 0.522zM26.634 9.378l-0.962 4.184-2.159-2.881zM5.669 10.7c0.532 0.622 1.003 1.209 1.422 1.844l-0.763 1.019zM12.688 13.756c0.24 0 0.419 0.179 0.419 0.419s-0.179 0.416-0.419 0.416c-0.24 0-0.416-0.176-0.416-0.416s0.176-0.419 0.416-0.419zM5.541 17.281l1.050 4.575-3.35-1.509zM26.459 17.281l2.3 3.066-3.35 1.509zM16.1 18.625c0.24 0 0.419 0.179 0.419 0.419 0 0.161-0.085 0.29-0.209 0.363-0.061 0.035-0.13 0.053-0.209 0.053-0.24 0-0.419-0.176-0.419-0.416s0.179-0.419 0.419-0.419zM10.497 19.234c0.24 0 0.419 0.179 0.419 0.419s-0.179 0.416-0.419 0.416c-0.24 0-0.416-0.176-0.416-0.416s0.176-0.419 0.416-0.419zM8.869 24.637l5.184 2.334-4.213 1.9zM23.131 24.637l-0.972 4.234-4.213-1.9z"></path>
</svg>
