<!-- Generated by IcoMoon.io -->
<svg version="1.1" xmlns="http://www.w3.org/2000/svg" width="32" height="32" viewBox="0 0 32 32">
<title>class_guardian</title>
<path fill="#394852" d="M16 4.869l-0.566 0.566c-0.811 0.811-2.369 1.477-4.016 1.919s-3.365 0.69-4.531 0.856l-0.688 0.097v0.694c0 1.5-0 3.779 0.256 6.088s0.742 4.651 1.878 6.356c1.102 1.654 2.521 2.503 3.809 3.147s2.432 1.116 3.291 1.975l0.566 0.566 0.566-0.566c0.859-0.859 2.002-1.331 3.291-1.975s2.707-1.493 3.809-3.147c1.137-1.705 1.622-4.048 1.878-6.356s0.256-4.588 0.256-6.088v-0.694l-0.688-0.097c-1.167-0.167-2.885-0.414-4.531-0.856s-3.204-1.107-4.016-1.919zM16 6.944c1.157 0.918 2.632 1.541 4.169 1.953 1.502 0.403 2.867 0.593 4.003 0.759-0.003 1.467 0.001 3.308-0.216 5.256-0.244 2.192-0.758 4.349-1.622 5.644-0.898 1.346-1.979 1.997-3.191 2.603-1.027 0.514-2.128 1.106-3.144 1.928-1.015-0.822-2.117-1.415-3.144-1.928-1.212-0.606-2.293-1.257-3.191-2.603-0.863-1.295-1.378-3.452-1.622-5.644-0.216-1.949-0.213-3.789-0.216-5.256 1.136-0.166 2.501-0.356 4.003-0.759 1.537-0.412 3.012-1.035 4.169-1.953z"></path>
<path fill="#394852" d="M16 7.412l-0.759 2.341-1.169 3.594h-6.241l5.050 3.666-1.928 5.938 5.047-3.669 5.047 3.666-1.928-5.934 5.050-3.666h-6.241zM16 12.588l0.766 2.359h2.481l-2.006 1.456 0.766 2.356-2.006-1.456-2.006 1.456 0.766-2.356-2.006-1.456h2.481z"></path>
</svg>
