<!-- Generated by IcoMoon.io -->
<svg version="1.1" xmlns="http://www.w3.org/2000/svg" width="32" height="32" viewBox="0 0 32 32">
<title>class_survivor</title>
<path fill="#394852" d="M16 3.106l-0.356 0.178c0 0-0.25 0.133-0.497 0.359s-0.55 0.576-0.841 1.084c-0.497 0.869-0.887 2.337-1.009 4.331-1.72-0.206-4.044-0.819-4.044-0.819l-0.122-0.041h-7.931v0.8c0 1.061 0.574 2.020 1.384 2.9s1.9 1.7 3.141 2.419c2.203 1.276 4.854 2.12 7.325 2.322-0.147 1.974-0.768 4.116-1.316 5.631-0.218 0.605-0.402 1.106-0.509 1.534l-0.156 0.622 4.931 2.466 4.931-2.466-0.156-0.622c-0.107-0.428-0.291-0.93-0.509-1.534-0.547-1.515-1.169-3.657-1.316-5.631 2.471-0.201 5.122-1.046 7.325-2.322 1.241-0.719 2.33-1.539 3.141-2.419s1.384-1.839 1.384-2.9v-0.8h-7.931l-0.122 0.041c0 0-2.324 0.613-4.044 0.819-0.122-1.995-0.513-3.462-1.009-4.331-0.291-0.509-0.594-0.858-0.841-1.084s-0.497-0.359-0.497-0.359zM16 5.122c0.101 0.12 0.186 0.19 0.306 0.4 0.419 0.733 0.894 2.085 0.894 4.478v0.8h0.8c2.178 0 4.827-0.925 5.047-1h5.731c-0.155 0.338-0.169 0.619-0.538 1.019-0.658 0.714-1.632 1.456-2.766 2.113-2.268 1.313-5.188 2.269-7.475 2.269h-0.8v0.8c0 2.561 0.95 5.128 1.559 6.816 0.123 0.341 0.178 0.525 0.262 0.778l-3.022 1.512-3.022-1.512c0.085-0.253 0.139-0.437 0.262-0.778 0.61-1.687 1.559-4.255 1.559-6.816v-0.8h-0.8c-2.287 0-5.207-0.956-7.475-2.269-1.134-0.656-2.108-1.398-2.766-2.113-0.369-0.4-0.383-0.681-0.538-1.019h5.731c0.22 0.075 2.869 1 5.047 1h0.8v-0.8c0-2.393 0.475-3.746 0.894-4.478 0.12-0.21 0.205-0.28 0.306-0.4z"></path>
</svg>
