<!-- Generated by IcoMoon.io -->
<svg version="1.1" xmlns="http://www.w3.org/2000/svg" width="32" height="32" viewBox="0 0 32 32">
<title>cold_fog</title>
<path d="M5.556 11.721c0.041-0.345 0.169-0.66 0.395-0.935 0.183-0.223 0.366-0.438 0.585-0.631 0.227-0.202 0.428-0.405 0.642-0.619 0.169-0.171 0.301-0.366 0.469-0.536 0.127-0.128 0.187-0.285 0.31-0.414 0.341-0.353 0.731-0.639 1.166-0.885 0.296-0.166 0.605-0.313 0.918-0.451 0.346-0.153 0.687-0.334 1.049-0.453 0.339-0.111 0.651-0.269 0.985-0.393 0.327-0.122 0.664-0.215 0.991-0.342 0.674-0.26 1.35-0.446 2.074-0.534 0.387-0.048 0.778-0.060 1.167-0.107 0.163-0.019 0.323-0.046 0.487-0.050 0.148-0.004 0.426 0.053 0.566 0.008 0.057-0.019 0.068-0.040 0.127-0.053 0.084-0.019 0.377 0.027 0.41 0.027 0.101-0.003 0.199-0.023 0.3-0.016 0.659 0.040 1.321 0.134 1.976 0.208 0.155 0.016 0.31 0.023 0.459 0.072 0.12 0.039 0.255 0.035 0.37 0.081 0.134 0.052 0.247 0.138 0.386 0.186 0.186 0.062 0.334 0.167 0.514 0.241 0.118 0.048 0.235 0.091 0.358 0.129 0.172 0.053 0.273 0.137 0.424 0.231 0.195 0.122 0.42 0.176 0.61 0.309 0.208 0.144 0.414 0.3 0.617 0.448 0.283 0.207 0.382 0.467 0.546 0.764 0.084 0.151 0.179 0.303 0.269 0.45 0.138 0.223 0.349 0.363 0.462 0.606 0.107 0.235 0.195 0.455 0.268 0.696 0.039 0.126 0.031 0.236 0.039 0.371 0.004 0.115 0.045 0.217 0.085 0.327 0.060 0.171 0.146 0.304 0.241 0.46 0.208 0.342 0.369 0.724 0.448 1.11 0.088 0.42 0.26 0.826 0.362 1.244 0.035 0.137 0.044 0.274 0.062 0.412 0.023 0.195 0.088 0.389 0.094 0.585 0.004 0.155 0.035 0.379-0.016 0.53-0.027 0.004-0.057 0.008-0.085 0.012-0.027 0.078 0.016 0.121-0.039 0.196-0.090 0.134-0.407 0.228-0.564 0.224-0.16-0.004-0.296-0.121-0.387-0.243-0.141-0.188-0.163-0.41-0.231-0.625-0.104-0.33-0.197-0.69-0.385-0.989-0.366-0.587-0.552-1.277-0.793-1.917-0.243-0.643-0.501-1.322-0.927-1.879-0.253-0.33-0.5-0.684-0.782-0.991-0.304-0.333-0.579-0.444-1.005-0.585-0.575-0.19-1.122-0.409-1.648-0.696-0.359-0.198-0.687-0.405-1.085-0.528-0.114-0.035-0.2-0.067-0.322-0.078-0.589-0.053-1.195-0.027-1.786-0.027-0.774 0.004-1.557 0.023-2.326 0.114-0.332 0.045-0.66 0.095-0.989 0.153-0.337 0.048-0.668 0.113-0.997 0.196-0.443 0.18-0.652 0.582-1.034 0.838-0.446 0.298-0.998 0.556-1.509 0.739-0.137 0.042-0.269 0.097-0.397 0.162-0.113 0.099-0.229 0.196-0.349 0.29-0.329 0.236-0.711 0.405-1.056 0.619-0.122 0.077-0.333 0.187-0.418 0.314-0.035 0.078-0.071 0.158-0.101 0.239-0.065 0.121-0.144 0.233-0.239 0.337-0.142 0.199-0.251 0.422-0.381 0.626-0.068 0.107-0.11 0.203-0.13 0.33-0.003 0.123-0.039 0.243-0.101 0.354-0.12 0.191-0.28 0.343-0.481 0.457-0.144 0.134 0.016 0.089-0.056 0.194-0.176 0.256-0.471-0.583-0.464-0.557-0.045-0.171-0.074-0.369-0.153-0.353z"></path>
<path d="M2.647 12.984c0.281 0.016 0.556 0.11 0.838 0.137 0.394 0.039 0.792-0.019 1.187 0.019 0.649 0.060 1.313 0.089 1.965 0.086 0.249-0.001 0.501-0.012 0.749-0.004 0.243 0.008 0.481 0.048 0.723 0.053 0.566 0.016 1.135-0.003 1.703-0.003 0.451 0.001 0.906-0.055 1.312 0.18 0.125 0.073 0.276 0.12 0.311 0.264 0.031 0.129 0.016 0.28-0.070 0.386-0.076 0.093-0.195 0.139-0.298 0.192-0.126 0.062-0.314 0.089-0.426 0.164 0.039 0.078 0.068 0.147 0.13 0.211 0.085 0.086 0.137 0.084 0.251 0.091 0.382 0.027 0.776 0.127 1.158 0.182 0.679 0.095 1.342 0.235 2.031 0.253 0.829 0.023 1.659 0.149 2.486 0.198 0.215 0.016 0.415 0.045 0.633 0.042 0.243-0.003 0.467 0.016 0.705 0.044 0.476 0.057 0.971 0.053 1.452 0.053h0.686c0.115 0 0.229 0 0.343-0.001 0.186-0.001 0.569-0.061 0.707 0.088-0.1 0.027-0.223 0.023-0.325 0.035-0.269 0.031-0.532 0.079-0.797 0.129-0.652 0.121-1.327 0.183-1.988 0.243-0.343 0.031-0.688 0.031-1.030 0.064-0.389 0.035-0.776 0.076-1.164 0.106-0.546 0.042-1.083 0.045-1.631 0.056-0.613 0.012-1.223 0.076-1.837 0.046-0.833-0.040-1.667-0.040-2.5-0.094-0.355-0.023-0.842 0.023-1.167-0.144-0.055-0.027-0.118-0.074-0.155-0.12-0.104-0.125-0.115-0.357-0.118-0.511-0.004-0.271 0.066-0.649-0.15-0.854-0.297-0.285-0.767-0.305-1.147-0.342-0.557-0.055-1.118-0.111-1.676-0.141-0.295-0.016-0.579-0.069-0.871-0.117-0.289-0.046-0.586-0.065-0.873-0.126-0.26-0.056-0.53-0.121-0.782-0.204-0.157-0.050-1.066-0.213-0.365-0.662z"></path>
<path d="M14.899 18.789c0.101 0.094 0.284 0.172 0.402 0.231 0.141 0.069 0.267 0.16 0.403 0.232 0.138 0.070 0.292 0.084 0.439 0.127 0.495 0.147 0.975 0.38 1.498 0.412 0.487 0.027 0.973 0.058 1.46 0.057 0.537-0.003 1.077 0.019 1.613-0.012 0.497-0.027 0.98-0.12 1.472-0.187 0.507-0.072 1.005-0.172 1.516-0.214 0.512-0.041 1.024-0.088 1.536-0.131 0.492-0.042 0.983-0.031 1.476-0.035 0.222-0.001 0.443 0.019 0.663 0.053 0.155 0.023 0.294 0.090 0.45 0.115 0.271 0.045 0.525 0.123 0.788 0.207 0.152 0.049 0.292 0.079 0.435 0.154 0.104 0.054 0.208 0.098 0.309 0.154 0.078 0.044 0.276 0.131 0.301 0.217-0.243 0.159-0.701 0.042-0.965 0.016-0.243-0.023-0.499-0.031-0.744-0.049-0.175-0.012-0.353-0.004-0.529-0.004-1.738 0-3.452 0.283-5.172 0.503-0.191 0.023-0.385 0.008-0.576 0.035-0.162 0.023-0.317 0.072-0.481 0.085-0.668 0.055-1.327 0.204-1.999 0.262-1.079 0.095-2.29 0.191-3.261-0.394-0.162-0.097-0.336-0.179-0.5-0.273-0.204-0.115-0.362-0.252-0.521-0.422-0.203-0.217-0.647-0.548-0.464-0.894-0.012-0.003-0.019-0.008 0.452-0.25z"></path>
<path d="M25.854 16.769c0.097 0.195 0.035 0.39 0.004 0.601-0.031 0.212-0.004 0.446-0.004 0.66 0 0.072-0.027 0.211-0.008 0.278 0.044 0.138 0.287 0.094 0.399 0.106 0.207 0.023 0.403 0.039 0.613 0.039 0.091 0.001 0.33 0.019 0.411-0.052 0.058-0.051 0.052-0.229 0.066-0.314 0.019-0.101 0.012-0.203 0.016-0.305 0.003-0.241-0.065-0.473-0.157-0.695-0.074-0.179-0.148-0.338-0.354-0.403-0.179-0.057-0.467-0.008-0.654-0.012-0.157-0.001-0.418-0.016-0.332 0.097z"></path>
<path d="M26.112 21.145c0 0.106-0.090 0.179-0.16 0.253-0.115 0.123-0.232 0.247-0.373 0.346-0.157 0.11-0.342 0.174-0.503 0.28-0.162 0.106-0.322 0.213-0.477 0.33-0.195 0.147-0.399 0.273-0.615 0.391-0.251 0.135-0.476 0.3-0.723 0.439-0.369 0.208-0.684 0.488-1.032 0.724-0.374 0.255-0.812 0.45-1.232 0.626-0.215 0.090-0.419 0.202-0.634 0.29-0.153 0.064-0.29 0.162-0.446 0.219-0.881 0.32-1.863 0.274-2.784 0.37-0.167 0.016-0.336-0.003-0.501 0.019-0.244 0.031-0.48 0.073-0.728 0.083-0.679 0.031-1.363 0.004-2.044 0.004-0.347 0-0.716 0.044-1.049-0.070-0.2-0.069-0.407-0.113-0.603-0.183-0.28-0.101-0.542-0.249-0.825-0.341-0.106-0.035-0.232-0.035-0.333-0.076-0.102-0.042-0.154-0.139-0.253-0.188-0.273-0.134-0.574-0.28-0.824-0.456-0.22-0.157-0.447-0.368-0.618-0.568-0.16-0.191-0.236-0.385-0.308-0.606-0.023-0.074-0.085-0.138-0.12-0.207-0.057-0.121-0.073-0.248-0.154-0.361-0.134-0.188-0.287-0.371-0.438-0.546-0.077-0.089-0.134-0.187-0.218-0.269-0.224-0.219-0.338-0.495-0.541-0.723-0.15-0.167-0.332-0.336-0.383-0.546-0.044-0.008-0.16-0.027-0.202-0.008-0.072 0.031-0.049 0.076-0.048 0.146 0.004 0.183 0.016 0.373 0.003 0.554-0.008 0.138-0.057 0.257-0.056 0.398 0.001 0.107 0.001 0.214 0 0.321-0.003 0.313 0.085 0.614 0.167 0.916 0.102 0.377 0.401 0.667 0.663 0.953 0.288 0.314 0.613 0.595 0.9 0.911 0.321 0.353 0.63 0.737 0.896 1.127 0.256 0.373 0.414 0.739 0.741 1.071 0.219 0.203 0.448 0.395 0.687 0.577 0.088 0.084 0.186 0.154 0.294 0.211 0.248 0.122 0.545 0.186 0.808 0.282 0.339 0.123 0.67 0.175 1.034 0.22 0.573 0.069 1.143 0.070 1.716 0.115 0.339 0.023 0.678 0.090 1.018 0.104 0.505 0.019 1.021-0.031 1.522-0.074 0.524-0.045 0.98-0.181 1.477-0.327 0.625-0.185 1.235-0.393 1.842-0.619 0.5-0.187 0.979-0.414 1.476-0.607 0.556-0.216 1.090-0.322 1.472-0.776 0.282-0.334 0.548-0.683 0.813-1.029 0.261-0.34 0.54-0.667 0.801-1.007 0.146-0.191 0.236-0.346 0.305-0.565 0.091-0.289 0.247-0.554 0.422-0.806 0.089-0.099 0.16-0.208 0.215-0.325 0.012-0.122 0.008-0.244-0.012-0.366-0.019-0.194-0.004-0.308-0.041-0.633z"></path>
<path d="M13.194 20.166c-0.105-0.105-0.198-0.172-0.333-0.24-0.227-0.11-0.436-0.247-0.658-0.36-0.306-0.158-0.644-0.273-0.96-0.412-0.111-0.049-0.227-0.074-0.342-0.114-0.146-0.049-0.273-0.128-0.414-0.187-0.109-0.045-0.227-0.062-0.338-0.102-0.138-0.048-0.265-0.117-0.406-0.162-0.239-0.077-0.508-0.122-0.756-0.167-0.26-0.048-0.537-0.049-0.801-0.072-0.374-0.031-0.754-0.019-1.127 0.023-0.701 0.081-1.371 0.24-2.059 0.399-0.278 0.064-0.55 0.155-0.828 0.227-0.099 0.023-0.24 0.064-0.326 0.111-0.041 0.023-0.073 0.069-0.12 0.094-0.073 0.039-0.151 0.040-0.222 0.079-0.135 0.074-0.231 0.176-0.382 0.227-0.111 0.039-0.228 0.045-0.34 0.082-0.131 0.044-0.272 0.058-0.402 0.099-0.031 0.129 0.041 0.2 0.045 0.321 0.131 0.055 0.427-0.084 0.562-0.104 0.209-0.031 0.423-0.055 0.634-0.076 0.631-0.062 1.253-0.245 1.886-0.294 0.203-0.016 0.395-0.051 0.6-0.048 0.204 0.004 0.398-0.046 0.599-0.050 0.231-0.004 0.463-0.001 0.693-0.001 0.306 0 0.576 0.105 0.874 0.155 0.208 0.035 0.409 0.089 0.614 0.137 0.418 0.097 0.853 0.104 1.272 0.201 0.294 0.069 0.562 0.231 0.85 0.323 0.378 0.121 0.826 0.208 1.224 0.24 0.314 0.023 0.603 0.088 0.904 0.157 0.184 0.042 0.334 0.158 0.514 0.208 0.235 0.063 0.489 0.155 0.732 0.167 0.039-0.048 0.044-0.415 0.004-0.469-0.094-0.13-0.44-0.163-0.581-0.203-0.149-0.042-0.301-0.069-0.451-0.106-0.102-0.023-0.195-0.105-0.289-0.127-0.13-0.031-0.147-0.019 0.125 0.041z"></path>
</svg>
