<!-- Generated by IcoMoon.io -->
<svg version="1.1" xmlns="http://www.w3.org/2000/svg" width="32" height="32" viewBox="0 0 32 32">
<title>combat</title>
<path d="M14.512 29.287c-0.646-1.080-1.175-2.080-1.175-2.223 0-0.356 0.447-1.192 0.788-1.475 0.235-0.195 0.406-0.165 1.064 0.184l0.784 0.416 2.004-1c2.255-1.125 3.43-1.947 5.104-3.571 0.633-0.614 1.349-1.249 1.59-1.412 0.522-0.352 1.216-0.373 1.642-0.050 0.636 0.483 1.053 2.191 0.737 3.015-0.126 0.329-3.772 3.314-5.931 4.857-1.811 1.294-4.939 3.221-5.227 3.221-0.113 0-0.734-0.883-1.38-1.963zM15.499 25.191c-0.117-0.117-0.213-0.35-0.213-0.518 0-0.4-1.175-1.394-2.456-2.077-1.221-0.651-2.605-2.063-3.397-3.467-0.317-0.561-0.704-1.067-0.86-1.124s-0.562-0.329-0.901-0.605-0.785-0.501-0.991-0.501c-0.597 0-0.97-0.585-1.148-1.797-0.091-0.619-0.285-1.517-0.432-1.996-0.315-1.023-0.344-2.046-0.075-2.636 0.318-0.697 1.322-1.126 2.416-1.031 0.209 0.017 3.145 3.782 3.564 4.569 0.29 0.545 0.256 1.388-0.067 1.657-0.15 0.125-0.631 0.221-1.068 0.215-0.848-0.013-1.631-0.548-2.566-1.754-0.489-0.631-0.699-0.61-0.699 0.071 0 0.762 1.738 2.244 2.951 2.515 1.12 0.251 1.625 0.038 2.099-0.877 0.238-0.461 0.317-0.502 0.614-0.316 0.277 0.173 0.402 0.156 0.674-0.090 0.184-0.166 0.529-0.302 0.768-0.302 0.57 0 1.157-0.425 1.498-1.085 0.2-0.386 0.381-0.517 0.663-0.476 0.346 0.049 0.394 0.177 0.441 1.162 0.046 0.968 0.097 1.107 0.404 1.107 0.377 0 0.434-0.102 0.593-1.070 0.157-0.954 1.646-2.753 2.873-3.472l0.764-0.448 0.523 0.372c0.567 0.403 0.86 0.241 0.564-0.312-0.144-0.269-0.051-0.462 0.496-1.031 0.528-0.55 0.644-0.78 0.536-1.072-0.23-0.622-0.43-0.599-1.144 0.131-0.436 0.446-0.845 0.701-1.126 0.701-0.243 0-0.657 0.206-0.92 0.458-0.69 0.661-2.426 0.82-2.974 0.273-0.207-0.207-0.377-0.566-0.377-0.796 0-0.332 0.162-0.481 0.785-0.719 0.58-0.221 1.043-0.615 1.769-1.502 0.619-0.756 1.247-1.321 1.695-1.523 0.458-0.207 0.712-0.437 0.712-0.648 0-0.268 0.139-0.327 0.762-0.327 0.712 0 0.869 0.1 2.388 1.517 1.821 1.699 2.114 2.295 1.907 3.882-0.147 1.129-1.142 4.124-1.953 5.879-0.343 0.743-0.624 1.487-0.624 1.655s0.202 0.603 0.45 0.967l0.45 0.662-1.186 1.090c-2.131 1.958-3.491 2.946-5.412 3.93-1.947 0.997-2.403 1.122-2.769 0.756zM12.418 14.252c-0.509-0.105-0.721-0.367-2.895-3.561-1.426-2.096-1.607-2.722-0.97-3.359 0.232-0.232 0.59-0.354 1.037-0.354 1.33 0 1.621 0.228 3.082 2.417 1.732 2.595 2.021 3.511 1.407 4.451-0.202 0.309-1.086 0.525-1.661 0.405zM15.228 11.54c-0.236-0.317-1.205-1.745-2.152-3.173-1.841-2.777-1.884-2.926-1.062-3.697 0.329-0.309 0.703-0.434 1.461-0.489l1.019-0.074 0.329 0.683c0.181 0.375 0.589 1.285 0.906 2.021l0.576 1.338-0.503 0.289c-1.146 0.657-0.621 1.997 1.097 2.802l0.911 0.427-0.509 0.217c-0.941 0.402-1.597 0.294-2.072-0.342zM16.458 7.147c-0.589-0.7-0.858-1.635-0.786-2.732 0.051-0.774 0.13-0.929 0.659-1.284 0.731-0.491 1.286-0.505 2.277-0.055 1.040 0.472 1.24 0.975 0.822 2.068-0.353 0.925-1.776 2.543-2.236 2.543-0.155 0-0.487-0.243-0.737-0.539z"></path>
</svg>
