<!-- Generated by IcoMoon.io -->
<svg version="1.1" xmlns="http://www.w3.org/2000/svg" width="33" height="32" viewBox="0 0 33 32">
<title>constantinople</title>
<path d="M5.988 27.991l-0.25-0.004-0.036-0.078c-0.050-0.106-0.068-0.209-0.084-0.464-0.020-0.322-0.042-1.069-0.033-1.142 0.017-0.145 0.008-0.691-0.017-0.983-0.023-0.283-0.041-0.63-0.056-1.109-0.004-0.122-0.015-0.449-0.025-0.727s-0.017-0.663-0.016-0.856c0.001-0.259-0.004-0.406-0.020-0.56-0.014-0.14-0.023-0.342-0.026-0.605-0.003-0.286-0.011-0.468-0.030-0.656-0.021-0.214-0.025-0.329-0.023-0.645 0.003-0.349 0-0.401-0.025-0.557-0.015-0.095-0.031-0.237-0.035-0.317-0.011-0.219-0.006-0.223 0.317-0.245 0.231-0.016 0.253-0.026 0.241-0.101-0.004-0.028-0.013-0.902-0.018-1.942-0.011-2.123-0.001-1.92-0.107-2.164-0.030-0.069-0.058-0.15-0.062-0.18-0.015-0.107 0.049-0.193 0.196-0.262 0.047-0.022 0.075-0.054 0.113-0.129 0.030-0.059 0.057-0.676 0.060-1.375l0.002-0.53-0.059-0.222c-0.079-0.296-0.083-0.355-0.035-0.536 0.020-0.078 0.066-0.233 0.1-0.345 0.145-0.47 0.197-0.7 0.431-1.903 0.075-0.386 0.141-0.707 0.148-0.713 0.008-0.008 0.016-0.001 0.024 0.018 0.007 0.016 0.063 0.335 0.125 0.707 0.195 1.178 0.25 1.42 0.435 1.946 0.114 0.322 0.132 0.384 0.132 0.453 0 0.030-0.025 0.137-0.056 0.238s-0.062 0.22-0.068 0.264c-0.007 0.046-0.016 0.491-0.020 1.042l-0.007 0.962 0.036 0.039c0.020 0.022 0.082 0.063 0.139 0.091 0.068 0.034 0.117 0.068 0.142 0.1 0.034 0.043 0.038 0.056 0.038 0.129-0.001 0.069-0.008 0.098-0.047 0.181-0.111 0.233-0.108 0.217-0.12 0.727-0.006 0.251-0.009 1.104-0.008 1.897l0.003 1.441 0.030 0.052c0.021 0.036 0.048 0.061 0.086 0.080l0.056 0.028 8.894 0.003c5.785 0.002 8.93-0.001 8.996-0.009 0.118-0.014 0.168-0.037 0.2-0.090 0.036-0.059 0.041-0.15 0.026-0.433-0.021-0.389-0.037-0.91-0.057-1.929-0.020-0.974-0.031-1.224-0.061-1.392-0.061-0.341-0.080-0.464-0.080-0.519 0-0.115 0.079-0.223 0.212-0.289 0.143-0.072 0.161-0.11 0.102-0.22l-0.031-0.058-0.007-1.939-0.064-0.187c-0.081-0.235-0.082-0.26-0.010-0.337 0.113-0.121 0.164-0.269 0.198-0.579 0.011-0.105 0.045-0.299 0.075-0.431s0.079-0.373 0.11-0.536c0.108-0.565 0.157-0.802 0.222-1.093 0.085-0.375 0.091-0.398 0.106-0.383 0.012 0.012 0.153 0.792 0.343 1.895 0.056 0.325 0.103 0.638 0.11 0.733 0.007 0.091 0.019 0.188 0.026 0.216 0.021 0.076 0.067 0.147 0.13 0.2 0.052 0.044 0.056 0.052 0.048 0.088-0.005 0.022-0.036 0.072-0.069 0.111-0.091 0.109-0.11 0.147-0.11 0.214 0 0.065 0.012 0.097 0.057 0.145l0.029 0.032 0.003 0.955c0.003 1.084-0.010 0.958 0.121 1.103 0.087 0.096 0.221 0.292 0.221 0.324 0 0.012-0.017 0.052-0.037 0.088s-0.051 0.108-0.068 0.159c-0.066 0.197-0.069 0.233-0.080 0.917-0.006 0.352-0.025 0.998-0.042 1.435-0.049 1.253-0.052 1.392-0.026 1.51 0.012 0.055 0.036 0.129 0.054 0.166 0.043 0.088 0.118 0.128 0.229 0.123 0.221-0.011 0.273 0.004 0.323 0.093 0.036 0.063 0.036 0.071-0.003 1.134-0.017 0.467-0.042 1.237-0.055 1.711-0.027 0.936-0.038 1.239-0.111 3.123-0.027 0.688-0.060 1.553-0.074 1.922-0.023 0.622-0.039 0.882-0.056 0.926-0.004 0.010-0.023 0.027-0.042 0.039-0.033 0.020-0.23 0.021-2.942 0.021h-2.907l-0.086-0.095-0.008-0.424c-0.018-1.015-0.020-1.475-0.009-1.908 0.013-0.527 0.006-0.683-0.048-0.949-0.067-0.334-0.244-0.819-0.453-1.238-0.308-0.618-0.794-1.169-1.518-1.721-0.626-0.477-1.262-0.727-2.168-0.853-0.125-0.017-0.299-0.046-0.386-0.062-0.294-0.057-0.373-0.062-0.582-0.031-1.278 0.185-2.342 0.678-3.105 1.436-0.378 0.376-0.656 0.765-0.918 1.281-0.351 0.695-0.485 1.231-0.529 2.131-0.007 0.136-0.012 0.713-0.012 1.284l-0 1.038-0.107 0.111-2.648-0.003c-1.456-0.002-2.76-0.004-2.898-0.006zM12.173 27.975c-0.022-0.013-0.052-0.043-0.066-0.065-0.028-0.044-0.028-0.032 0.001-1.931 0.011-0.709 0.011-0.709 0.106-1.183 0.148-0.741 0.394-1.312 0.797-1.85 0.423-0.565 0.936-0.984 1.588-1.297 0.219-0.105 0.361-0.153 0.743-0.249l0.32-0.081 0.203-0.001c0.112-0.001 0.217 0 0.234 0.003s0.071-0.010 0.12-0.027c0.14-0.049 0.266-0.061 0.605-0.053 0.332 0.007 0.305 0.003 0.759 0.116l0.283 0.070 0.641 0.368c0.352 0.203 0.702 0.408 0.776 0.457 0.607 0.397 1.018 1.003 1.356 1.993 0.246 0.723 0.313 1.207 0.276 2.016-0.014 0.3-0.014 0.475-0.001 0.977 0.017 0.682 0.020 0.647-0.066 0.723l-0.044 0.039h-4.296c-4.265 0-4.296-0-4.336-0.025zM17.476 26.811c0.096-0.029 0.107-0.048 0.095-0.169-0.011-0.106-0.010-0.506 0.002-0.657l0.007-0.087-0.106-0.091c-0.125-0.108-0.214-0.159-0.277-0.159-0.092 0-0.24 0.057-0.298 0.116-0.027 0.027-0.036 0.053-0.053 0.164-0.042 0.273-0.052 0.727-0.017 0.794 0.049 0.095 0.445 0.149 0.648 0.089zM19.681 26.789c0.039-0.010 0.101-0.014 0.162-0.011 0.133 0.008 0.179-0.003 0.236-0.055 0.075-0.067 0.085-0.119 0.088-0.454 0.003-0.268 0.002-0.287-0.024-0.35-0.037-0.090-0.083-0.153-0.14-0.193-0.148-0.102-0.356-0.103-0.475-0.001-0.062 0.053-0.122 0.164-0.139 0.259-0.020 0.109-0.017 0.629 0.004 0.688 0.042 0.117 0.135 0.154 0.287 0.115zM13.211 26.779c0.014 0 0.072 0.004 0.129 0.008 0.095 0.007 0.11 0.005 0.16-0.021 0.099-0.051 0.136-0.142 0.136-0.338 0-0.058 0.006-0.13 0.014-0.161 0.016-0.064 0.006-0.125-0.052-0.307-0.046-0.144-0.091-0.207-0.178-0.247-0.079-0.036-0.211-0.050-0.285-0.030-0.077 0.021-0.153 0.104-0.222 0.244l-0.059 0.118-0.004 0.294c-0.003 0.271-0.002 0.298 0.021 0.349 0.014 0.033 0.041 0.066 0.065 0.081 0.036 0.023 0.052 0.025 0.146 0.018 0.058-0.004 0.116-0.008 0.129-0.008zM16.048 26.762c0.075-0.022 0.14-0.065 0.159-0.105 0.026-0.054 0.045-0.401 0.029-0.531-0.018-0.15-0.031-0.191-0.082-0.261-0.090-0.124-0.23-0.204-0.331-0.188-0.099 0.015-0.277 0.158-0.337 0.271-0.041 0.077-0.040 0.626 0.001 0.723 0.023 0.053 0.065 0.092 0.119 0.108 0.058 0.018 0.364 0.005 0.441-0.018zM14.749 26.751c0.204-0.021 0.192-0.002 0.192-0.339-0-0.383-0.025-0.478-0.159-0.612-0.092-0.092-0.18-0.135-0.253-0.124-0.072 0.011-0.181 0.083-0.267 0.176-0.111 0.12-0.115 0.133-0.116 0.398-0.001 0.337 0.036 0.488 0.124 0.507 0.061 0.013 0.325 0.010 0.478-0.006zM18.588 26.718c0.125-0.021 0.24-0.043 0.255-0.049l0.027-0.010-0.008-0.716-0.039-0.080c-0.042-0.085-0.084-0.124-0.18-0.168-0.050-0.023-0.083-0.028-0.184-0.028-0.115-0-0.128 0.002-0.191 0.038-0.159 0.089-0.202 0.238-0.195 0.672 0.004 0.259 0.010 0.281 0.082 0.36 0.031 0.034 0.036 0.035 0.119 0.028 0.047-0.004 0.189-0.025 0.314-0.046zM17.137 23.996c0.092-0.026 0.089-0.003 0.089-0.782 0-0.622-0.002-0.698-0.022-0.776-0.036-0.141-0.102-0.26-0.2-0.359-0.138-0.14-0.287-0.202-0.487-0.202-0.352 0-0.611 0.198-0.704 0.538-0.025 0.092-0.026 0.126-0.030 0.761-0.003 0.623-0.002 0.668 0.019 0.717 0.043 0.097 0.040 0.097 0.573 0.093 0.257-0.002 0.512 0.002 0.567 0.008 0.141 0.015 0.143 0.015 0.194 0.001zM15.151 23.565c0.017-0.375 0.011-0.44-0.044-0.542-0.071-0.131-0.249-0.189-0.448-0.146-0.132 0.028-0.242 0.145-0.271 0.287-0.013 0.065-0.050 0.578-0.050 0.692 0 0.045 0.007 0.073 0.024 0.093l0.024 0.029 0.735 0.012 0.008-0.043c0.004-0.024 0.015-0.196 0.023-0.382zM18.401 23.983c0.099-0.007 0.19-0.018 0.201-0.024 0.024-0.013 0.030-0.076 0.047-0.541 0.006-0.166 0.015-0.313 0.019-0.327 0.007-0.022-0.014-0.036-0.17-0.116-0.151-0.077-0.189-0.092-0.253-0.096-0.045-0.003-0.091 0.001-0.113 0.010-0.056 0.023-0.159 0.143-0.204 0.238-0.058 0.121-0.072 0.222-0.063 0.478 0.008 0.245 0.018 0.284 0.088 0.337 0.076 0.058 0.146 0.064 0.448 0.042zM1.115 27.928c-0.003-0.006 0.009-0.060 0.029-0.12 0.022-0.068 0.038-0.152 0.042-0.221 0.004-0.061 0.024-0.377 0.045-0.702 0.053-0.842 0.104-1.367 0.252-2.612 0.065-0.547 0.078-0.618 0.143-0.806 0.057-0.166 0.060-0.207 0.018-0.257-0.036-0.042-0.066-0.055-0.191-0.082-0.184-0.039-0.268-0.118-0.256-0.241 0.008-0.078 0.034-0.11 0.164-0.2 0.127-0.088 0.205-0.163 0.244-0.236l0.027-0.050 0.007-3.616c0.006-3.258 0.009-3.648 0.028-3.942 0.012-0.18 0.023-0.468 0.024-0.641 0.003-0.355 0.002-0.359-0.111-0.634-0.073-0.179-0.172-0.469-0.202-0.591-0.013-0.054-0.024-0.135-0.024-0.179-0-0.154 0.062-0.208 0.276-0.24 0.135-0.020 0.189-0.048 0.24-0.123l0.029-0.043 0.002-1.611c0.002-1.839 0.015-1.644-0.121-1.789-0.119-0.127-0.113-0.164 0.044-0.27 0.071-0.048 0.152-0.138 0.189-0.212 0.047-0.092 0.066-0.174 0.131-0.56 0.063-0.375 0.096-0.556 0.318-1.725 0.214-1.132 0.236-1.231 0.371-1.66 0.095-0.301 0.112-0.379 0.102-0.472-0.004-0.034-0.003-0.058 0.001-0.055 0.023 0.021 0.052 0.155 0.6 2.784 0.277 1.33 0.322 1.532 0.359 1.604 0.031 0.061 0.097 0.133 0.172 0.188 0.065 0.048 0.122 0.131 0.121 0.179s-0.042 0.122-0.116 0.208c-0.083 0.096-0.115 0.176-0.134 0.333-0.019 0.16-0.018 2.151 0.002 2.704l0.015 0.419 0.032 0.033c0.041 0.043 0.128 0.080 0.228 0.096 0.152 0.024 0.235 0.068 0.281 0.15 0.023 0.041 0.027 0.064 0.023 0.127-0.004 0.065-0.018 0.104-0.093 0.255-0.098 0.199-0.151 0.356-0.189 0.566-0.041 0.228-0.056 1.781-0.036 3.924 0.008 0.922 0.013 2.382 0.011 3.246l-0.005 1.571 0.026 0.049c0.034 0.064 0.089 0.101 0.181 0.119 0.089 0.018 0.155 0.070 0.201 0.16 0.057 0.112 0.034 0.173-0.106 0.288-0.096 0.078-0.189 0.177-0.215 0.229-0.020 0.038-0.015 0.091 0.142 1.656 0.048 0.474 0.098 1.026 0.111 1.226 0.044 0.65 0.055 0.751 0.142 1.301 0.030 0.191 0.055 0.363 0.055 0.383 0 0.022-0.012 0.050-0.030 0.069l-0.030 0.033h-1.78c-0.979 0-1.783-0.005-1.786-0.010zM28.295 27.924c-0.058-0.016-0.095-0.061-0.105-0.127-0.017-0.114 0.053-0.677 0.173-1.392 0.085-0.504 0.096-0.628 0.142-1.472 0.033-0.622 0.043-0.738 0.099-1.228 0.027-0.232 0.049-0.432 0.049-0.446s-0.014-0.041-0.031-0.061c-0.025-0.029-0.050-0.041-0.123-0.057-0.161-0.036-0.265-0.129-0.265-0.237 0-0.116 0.043-0.161 0.276-0.288 0.067-0.037 0.144-0.086 0.171-0.11l0.049-0.044-0.002-0.258c-0.001-0.142-0.007-0.445-0.014-0.673-0.025-0.923-0.037-2.317-0.042-4.882-0.005-3.079 0.008-2.723-0.124-3.345-0.076-0.357-0.092-0.498-0.068-0.574 0.040-0.123 0.114-0.166 0.3-0.175 0.102-0.005 0.129-0.010 0.152-0.030l0.027-0.025-0.001-0.698c-0.001-0.595 0.003-0.753 0.026-1.073 0.015-0.207 0.030-0.564 0.034-0.795 0.008-0.489-0.001-0.582-0.075-0.723-0.024-0.046-0.063-0.121-0.088-0.167-0.034-0.064-0.044-0.099-0.044-0.149-0.001-0.080 0.011-0.109 0.11-0.277 0.136-0.23 0.187-0.375 0.255-0.724 0.024-0.124 0.074-0.373 0.111-0.554s0.111-0.563 0.166-0.85c0.322-1.684 0.465-2.398 0.501-2.488 0.014-0.035 0.090 0.3 0.342 1.509 0.54 2.586 0.593 2.833 0.625 2.901 0.016 0.034 0.075 0.103 0.153 0.179 0.075 0.073 0.13 0.137 0.135 0.158 0.013 0.053-0.003 0.105-0.067 0.218-0.033 0.058-0.074 0.141-0.092 0.186-0.070 0.177-0.070 0.17-0.073 1.785-0.003 1.433-0.002 1.486 0.020 1.531 0.032 0.065 0.079 0.085 0.223 0.095s0.196 0.029 0.263 0.098c0.059 0.060 0.088 0.139 0.088 0.235 0 0.091-0.023 0.154-0.1 0.274-0.126 0.196-0.184 0.373-0.206 0.631-0.021 0.233-0.012 8.559 0.009 8.619 0.027 0.078 0.089 0.145 0.181 0.197 0.094 0.053 0.213 0.16 0.223 0.203 0.010 0.041-0.012 0.072-0.163 0.229-0.077 0.080-0.154 0.17-0.172 0.201l-0.033 0.056 0.020 0.237c0.011 0.13 0.073 0.708 0.137 1.284 0.099 0.885 0.236 2.129 0.305 2.778l0.018 0.166-0.030 0.052c-0.017 0.029-0.051 0.066-0.076 0.083l-0.046 0.031-1.651-0.001c-1.007-0.001-1.668-0.006-1.694-0.013zM8.038 18.648c-0.067-0.010-0.109-0.034-0.14-0.081-0.020-0.030-0.022-0.080-0.026-0.533-0.003-0.349 0-0.519 0.010-0.565 0.018-0.083 0.078-0.152 0.158-0.183 0.056-0.021 0.385-0.022 8.496-0.022h8.439l0.053 0.029c0.040 0.021 0.060 0.043 0.078 0.084 0.023 0.053 0.024 0.079 0.020 0.569-0.004 0.579 0 0.55-0.102 0.64l-0.056 0.049-0.262 0.008c-0.352 0.011-16.595 0.016-16.669 0.005zM8.301 16.875c-0.153-0.006-0.173-0.010-0.246-0.044-0.146-0.069-0.168-0.113-0.164-0.331 0.002-0.127 0.037-0.242 0.082-0.268 0.019-0.011 0.080-0.014 0.205-0.012 0.237 0.005 1.405-0.040 1.76-0.067 0.085-0.006 0.109-0.013 0.139-0.039 0.066-0.055 0.088-0.117 0.105-0.293 0.027-0.279 0.095-0.459 0.28-0.736 0.12-0.18 0.135-0.218 0.17-0.427 0.061-0.367 0.206-0.648 0.518-1.001 0.21-0.238 0.904-0.975 1.078-1.145 0.595-0.58 1.013-0.837 1.988-1.223 0.553-0.219 0.592-0.23 1.177-0.33 0.203-0.035 0.387-0.071 0.409-0.080s0.051-0.035 0.065-0.057c0.043-0.069 0.167-0.485 0.223-0.745 0.032-0.148 0.091-0.264 0.184-0.363 0.054-0.057 0.076-0.072 0.105-0.072 0.097 0 0.291 0.152 0.359 0.279 0.046 0.086 0.082 0.217 0.158 0.571 0.060 0.281 0.089 0.355 0.151 0.386 0.061 0.031 0.557 0.154 0.901 0.223 0.186 0.037 0.391 0.082 0.456 0.1 0.667 0.179 1.199 0.437 1.665 0.808 0.824 0.655 1.357 1.187 1.714 1.711 0.276 0.405 0.404 0.688 0.674 1.484 0.169 0.498 0.252 0.725 0.284 0.777 0.050 0.081 0.155 0.158 0.246 0.179 0.024 0.006 0.478 0.016 1.010 0.024 0.892 0.012 0.971 0.015 1.018 0.036 0.028 0.012 0.061 0.038 0.073 0.056 0.052 0.080 0.070 0.319 0.032 0.431-0.017 0.049-0.031 0.067-0.069 0.088l-0.048 0.027-2.015 0.005c-1.555 0.004-2.141 0.010-2.569 0.026-0.488 0.018-1.234 0.021-6.252 0.023-3.134 0.002-5.772 0-5.864-0.004z"></path>
</svg>
