<!-- Generated by IcoMoon.io -->
<svg version="1.1" xmlns="http://www.w3.org/2000/svg" width="32" height="32" viewBox="0 0 32 32">
<title>core</title>
<path d="M13.896 12.844c-3.665 0.514-4.521 4.152 0.853 3.937 0.461-0.022 0.254-0.154-0.009-0.198-0.399 0.066-0.15-0.105-0.348-0.189-0.487-0.201-1.080-0.606-1.243-0.883-0.549-0.941 0.325-1.978 0.747-2.667z"></path>
<path d="M17.020 16.641c0.092 0.074 0.057 0.106-0.201 0.11-1.714 0.032-3.951-1.341-2.215-3.446 0.048 0.172 0.079 0.321 0.097 0.457-0.083 0.378 0.048 0.528 0.219 0.721 0.124 0.088 0.132 0.003 0.168-0.106 0.21-0.487 0.523-1.507 0.004-2.197 0.312 0.013 1.326 0.892 1.582 1.226 0.268 0.29 0.536 0.479 0.295 1.789-0.458 0.83-0.207 1.077 0.052 1.446z"></path>
<path d="M17.28 15.942c0.307-0.541 0.597-0.641 0.747-0.853 0.097 0.026 0.307-0.523 0.364-0.699 0.216-0.413-0.461-1.095-1.054-1.24-0.136 0.003-0.216-0.032-0.286-0.074-0.15-0.035-0.26-0.010-0.251-0.053 0.009-0.088 0.268-0.166 0.417-0.175 0.115-0.057 0.198-0.074 0.668-0.044 0.159-0.066 0.207-0.057 0.259-0.053l0.013-0.295c2.646-0.065 2.162 1.846 1.046 2.567-0.594 0.408-1.173 0.847-1.925 0.918z"></path>
<path d="M12.006 9.267c-0.052 0.163-0.109 0.295-0.166 0.343-0.004 0.136 0.009 0.277-0.062 0.387-0.053 0.114-0.136 0.158-0.259 0.065l-0.958-0.132c-0.263 0.013-0.123-0.272-0.141-0.439 0.664-2.418 1.002-3.955 1.692-6.17 0.185 0.040 0.127 0 0.242 0.071-0.004-0.097-0.053-0.528-0.023-0.699 0.023-0.154 0.089-0.37 0.281 0.056 1.029 2.29 2.572 4.096 3.402 4.592-0.272 0.040-0.733-0.061-0.097 0.334 1.881 1.297 4.161 3.459 5.185 4.658 0.255 0.166-0.189 0.387-0.483 0.505-1.675-1.305-3.648-2.518-5.191-3.709 0.044 0.177 0.11 0.352 0.22 0.528-1.284-0.532-1.12-0.655-1.705-1.015-0.141-0.26-0.15 0.016-0.070 0.127-0.048 0.215 0.026 0.36 0.092 0.51-0.382-0.237-0.756-0.488-1.069-0.817-0.597-0.488-0.51-0.101-0.628 0.092-0.092 0.33-0.233 0.413-0.264 0.711z"></path>
<path d="M16.924 17.792c-0.522 0.497 0.295 0.976 0.796 0.334 1.050-1.063 2.663-2.197 4.429-3.436 2.879-1.894 5.18-3.894 7.352-5.915-0.624-0.003-1.96 0.699-4.091 1.072-0.083 0.022-0.175 0.035-0.109 0.145 0.048 0.092-0.009 0.101-0.071 0.106-1.081 0.237-2.149 0.399-3.203 0.501-0.057 0.039-0.041 0.057-0.168 0.057-0.106-0.003-0.15 0.039-0.039 0.171 0.030 0.019 0.071 0.035 0.136 0.044 0.044 0.044 0.044 0.075-0.048 0.083-0.15-0.016-0.303 0.013-0.452 0.062-0.127 0.026-0.272 0.053-0.558 0.035 0.012 0.080 0.048 0.097 0.083 0.119 0.255 0.399 0.563 0.364 0.865 0.382 0.119 0.006 0.234 0.013 0.304-0.057 0.312 0 0.624 0.044 0.936 0 0.175 0.132-0.251 0.487-0.387 0.738-0.162 0.097-0.29 0.242-0.355 0.466-0.659 0.717-1.353 1.244-2.044 1.775-1.239 1.051-2.394 2.141-3.375 3.317z"></path>
<path d="M18.304 11.917c-0.286-0.426-0.712-1.011-1.468-0.922-2.961-0.33-9.558-0.55-14.035-3.165-0.198-0.207-0.444-0.123-0.198 0.312 1.213 3.257 3.582 5.625 6.429 7.33 0.079-0.263 0.141-0.514 0.166-0.83 0.009-0.269-0.105-0.541-0.316-0.809-1.086-0.448-1.793-1.411-2.628-2.197 0.224 0.074 0.444 0.15 0.682 0.162 0.386 0.097 0.597 0.066 0.667-0.006-0.083-0.013-0.158-0.066-0.233-0.145-0.263-0.097-0.25-0.185 0.053-0.133 0.237 0.019 0.449 0.022 0.655 0.032 0.251-0.019 0.449 0.048 0.659 0.092 0.127 0.026 0.251 0.032 0.364 0 0.066-0.071 0.018-0.097-0.065-0.115-1.595-0.562-1.455-0.531-1.556-0.544-0.321-0.11-0.175-0.194 0.057-0.123 3.599 1.169 10.037 1.054 10.766 1.063z"></path>
<path d="M11.114 29.499c0.032-0.435-0.228-1.244-0.374-1.908-0.114-0.36-0.105-0.663 0.207-0.162 0.171 0.321 0.461 0.681 0.553 0.708-0.070-3.467 2.374-6.183 3.753-7.932 0.237-0.171-1.284-0.853-1.577-1.335-0.119-0.158-0.145 0.039-0.321 0.052-0.511 0.726-1.362 1.516-1.639 2.118-0.071 0.154-0.426 0.466-0.449 0.558-0.079 0.132-0.189 0.145-0.259-0.016l-0.066-0.299c-0.114-0.355 0-0.387 0.066-0.268 0.118 0.198 0.162-0.010 0.185-0.080-0.519-2.997-0.558-6.529 0.044-8.726-0.444-0.194-1.2-0.203-1.327-0.185-0.544 3.836-1.331 7.474-0.892 11.403 0.11 0.475-0.030 0.541-0.11 0.092-0.149-0.245-0.272-0.941-0.369-1.028-0.109 2.9 1.613 6.227 2.575 7.010z"></path>
<path d="M29.501 24.278c-2.061-4.069-4.104-7.268-6.478-9.491-0.404 0.171-0.808 0.369-1.213 0.759l1.604 3.582c0.259 0.44 0.738 1.046-0.29 0.523-1.111-0.493-1.934-0.413-2.873-0.571 0.026 0.11 0.1 0.18 0.219 0.224-0.699-0.053-0.998-0.175-1.441-0.355-0.299-0.11-0.304-0.039-0.435-0.048l0.219 0.286c-2.61-0.59-4.948-1.635-7.299-2.563-0.097-0.032-0.263-0.118-0.246 0.11-0.171 0.299 0.039 0.29 0.159 0.488 1.086 0.913 10.99 5.831 18.074 7.057z"></path>
</svg>
