<!-- Generated by IcoMoon.io -->
<svg version="1.1" xmlns="http://www.w3.org/2000/svg" width="32" height="32" viewBox="0 0 32 32">
<title>corsairs</title>
<path d="M30.066 12.478c-0.013-0.118-0.024-0.238-0.035-0.356-0.017-0.192-0.035-0.39-0.064-0.598-0.077-0.551-0.359-1.081-0.639-1.576-0.207-0.364-0.48-0.675-0.72-0.948-0.056-0.064-0.112-0.128-0.167-0.192v0c-0.561-0.656-1.329-1.481-2.294-2.042-0.335-0.194-0.697-0.388-1.108-0.591-0.327-0.163-0.644-0.281-0.951-0.398-0.081-0.031-0.163-0.060-0.244-0.092-0.303-0.117-0.631-0.062-0.878 0.116 1.547 0.204 2.689 1.459 2.912 2.986 1.253 0.91 2.058 2.403 2.132 4.054 0.12 2.685-2.371 4.972-4.971 4.972-0.882 0-1.69-0.231-2.388-0.627 0.035-0.068 0.073-0.135 0.087-0.212 0.045-0.233-0.126-0.381-0.314-0.378-0.211 0.003-0.487 0.056-0.633-0.094-0.167-0.173-0.315-0.389-0.486-0.571-0.070-0.074-0.157-0.138-0.249-0.194-0.012-0.016-0.023-0.031-0.035-0.046-0.106-0.094-0.233-0.158-0.368-0.196-0.78-0.58-1.742-0.927-2.814-0.927-0.755 0-1.5 0.199-2.173 0.546-0.195 0.060-0.391 0.14-0.574 0.209-0.121 0.047-0.239 0.092-0.348 0.168-0.233 0.163-0.426 0.358-0.647 0.534-0.085 0.068-0.149 0.115-0.216 0.201-0.045 0.057-0.099 0.187-0.157 0.22-0.133 0.074-0.576-0.23-0.757-0.32-0.106-0.053-0.184-0.136-0.277-0.022-0.048 0.060-0.072 0.239-0.076 0.335-0.011 0.301 0.248 0.505 0.433 0.687 0.025 0.025 0.062 0.054 0.099 0.086-0.733 0.414-1.562 0.656-2.403 0.656-2.787 0-4.85-2.278-4.971-4.972-0.076-1.709 0.906-3.255 2.301-4.155 0.068-0.396 0.204-0.774 0.412-1.132 0.176-0.23 0.354-0.459 0.53-0.687 0.424-0.421 0.924-0.713 1.499-0.873 0.227-0.031 0.455-0.062 0.683-0.092-0.25-0.295-0.665-0.413-1.041-0.268-0.082 0.031-0.163 0.062-0.245 0.093-0.306 0.115-0.623 0.234-0.949 0.396-0.412 0.203-0.774 0.396-1.108 0.591-0.966 0.562-1.733 1.387-2.295 2.042v0c-0.054 0.064-0.11 0.128-0.167 0.192-0.24 0.273-0.512 0.585-0.719 0.948-0.282 0.495-0.562 1.025-0.639 1.576-0.029 0.208-0.047 0.406-0.064 0.598-0.011 0.118-0.022 0.238-0.035 0.356-0.030 0.254-0.024 0.504 0.014 0.779 0.008 1.637 0.841 3.287 2.546 5.040 1.436 1.476 3.423 2.201 6.076 2.215 0.106 0.001 0.215 0.002 0.327 0.003 0.081 0.001 0.169 0.001 0.254 0.002 0.237 0.92 0.713 1.749 1.366 2.393 0.031 0.237 0.059 0.469 0.074 0.693 0.013 0.035 0.024 0.070 0.037 0.105 0.053 0.146 0.089 0.268 0.182 0.399 0.068 0.095 0.099 0.199 0.161 0.296 0.070 0.112 0.162 0.202 0.242 0.306 0.040 0.053 0.073 0.128 0.105 0.18 0.045 0.071 0.082 0.12 0.14 0.185 0.071 0.080 0.112 0.162 0.185 0.233 0.033 0.033 0.043 0.059 0.082 0.092 0.035 0.028 0.076 0.052 0.112 0.080 0.068 0.053 0.143 0.102 0.214 0.152 0.078 0.056 0.121 0.112 0.198 0.163 0.283 0.185 0.682 0.313 1.028 0.414 0.112 0.033 0.344 0.139 0.425 0.050 0.047-0.052 0.046-0.141 0.064-0.202 0.027-0.089 0.041-0.163 0.046-0.26 0.004-0.098 0.028-0.203 0.006-0.302-0.017-0.081-0.019-0.174-0.062-0.252-0.088-0.166-0.233-0.398-0.429-0.515-0.028-0.016-0.063-0.025-0.090-0.042-0.051-0.031-0.059-0.068-0.098-0.1-0.065-0.057-0.175-0.093-0.252-0.143-0.064-0.041-0.372-0.265-0.331-0.331 0.078 0.028 0.175 0.043 0.26 0.069 0.127 0.036 0.228 0.104 0.337 0.162 0.13 0.068 0.245 0.144 0.36 0.216 0.242 0.154 0.444 0.207 0.759 0.205 0.152 0 0.243 0.019 0.366-0.069 0.112-0.080 0.204-0.175 0.321-0.252s0.256-0.154 0.385-0.214c0.093-0.043 0.359-0.158 0.306-0.009-0.036 0.099-0.192 0.221-0.267 0.297-0.126 0.125-0.273 0.263-0.438 0.354-0.064 0.035-0.136 0.060-0.207 0.090-0.122 0.052-0.257 0.164-0.326 0.246-0.028 0.034-0.070 0.097-0.089 0.134-0.027 0.053-0.002 0.104-0.019 0.156s-0.048 0.086-0.057 0.14c-0.012 0.070-0.022 0.118-0.046 0.182-0.024 0.059-0.035 0.123-0.057 0.185-0.015 0.046 0.002 0.106-0.018 0.15-0.016 0.034-0.037 0.046-0.051 0.083-0.015 0.043-0.004 0.1 0.025 0.138 0.106-0.035 0.257-0.022 0.372-0.038 0.095-0.016 0.184-0.043 0.277-0.067 0.273-0.065 0.506-0.199 0.748-0.325 0.196-0.103 0.347-0.25 0.519-0.382 0.12-0.090 0.232-0.188 0.35-0.283s0.161-0.193 0.252-0.303c0.063-0.079 0.14-0.139 0.196-0.223 0.071-0.107 0.107-0.214 0.151-0.327 0.1-0.26 0.232-0.53 0.354-0.805 0.074-0.167 0.145-0.333 0.234-0.504 0.081-0.157 0.111-0.309 0.169-0.472 0.039-0.109 0.086-0.217 0.133-0.327 0.010-0.076 0.020-0.154 0.033-0.232 0.329-0.473 0.571-1.004 0.701-1.567h0.004c0.174 0 0.343-0.002 0.506-0.003 0.111-0.001 0.221-0.002 0.327-0.003 2.651-0.016 4.64-0.739 6.075-2.215 1.706-1.753 2.539-3.403 2.546-5.041 0.040-0.274 0.045-0.524 0.016-0.778z"></path>
</svg>
