<!-- Generated by IcoMoon.io -->
<svg version="1.1" xmlns="http://www.w3.org/2000/svg" width="32" height="32" viewBox="0 0 32 32">
<title>countermeasures</title>
<path d="M9.353 29.427c-0.222-0.865-1.787-6.716-3.478-13.003s-3.045-11.459-3.010-11.494c0.035-0.035 3.478-0.981 7.651-2.101 4.639-1.246 7.618-1.95 7.664-1.812 0.042 0.124 0.407 0.526 0.81 0.893 0.465 0.423 0.818 1.005 0.965 1.589l0.232 0.922h8.509v25.894l-7.758 0.009c-4.267 0.005-8.191 0.103-8.721 0.218s-1.3 0.265-1.713 0.333l-0.75 0.124-0.404-1.573zM28.27 17.369v-12.519h-3.959c-2.177 0-3.958 0.072-3.956 0.16s0.185 0.738 0.409 1.444c0.264 0.836 0.414 1.097 0.428 0.749 0.012-0.294 0.125-0.679 0.251-0.856 0.168-0.237 0.193-0.071 0.094 0.636-0.074 0.526-0.212 1.008-0.306 1.070-0.28 0.184-0.761 1.166-0.685 1.397 0.038 0.118 0.273 1.033 0.522 2.033 0.319 1.283 0.473 1.646 0.525 1.23 0.116-0.937 0.756-0.616 0.958 0.482 0.097 0.525 0.099 0.524 0.128-0.053 0.027-0.553 0.671-0.9 0.671-0.362 0 0.125-0.096 0.167-0.214 0.094-0.126-0.078-0.214 0.149-0.214 0.549 0 0.581-0.047 0.642-0.321 0.414-0.177-0.147-0.321-0.49-0.321-0.763 0-0.829-0.375-0.786-0.473 0.054-0.105 0.901 0.238 2.635 0.522 2.635 0.105 0 0.135 0.090 0.066 0.201-0.161 0.261 0.542 2.795 0.776 2.795 0.098 0 0.179-0.096 0.179-0.214s0.169-0.206 0.375-0.197c0.223 0.010 0.267 0.060 0.107 0.125-0.166 0.067-0.221 0.323-0.146 0.679 0.116 0.548 0.108 0.554-0.214 0.155-0.426-0.528-0.423-0.228 0.017 1.435 0.409 1.548 1.255 2.522 1.682 1.937 0.209-0.286 0.309-0.292 0.709-0.042 0.761 0.476 0.427 1.707-0.451 1.661-0.362-0.019-0.386-0.048-0.1-0.123 0.615-0.161 0.768-1.564 0.171-1.564-0.098 0-0.328 0.361-0.511 0.802l-0.333 0.802-0.011-0.673c-0.007-0.405-0.144-0.724-0.346-0.801-0.245-0.094-0.305-0.028-0.222 0.245 0.622 2.059 0.991 3.767 0.844 3.899-0.099 0.089-0.854 0.335-1.678 0.546-2.38 0.61-2.36 0.769 0.087 0.7 1.482-0.042 2.254 0.016 2.308 0.172 0.093 0.273-2.254 0.514-5.004 0.514-1.738 0-4.76 0.485-5.416 0.869-0.189 0.111 2.421 0.191 6.367 0.194l6.688 0.007zM25.797 27.087c-0.079-0.128-0.037-0.339 0.093-0.469 0.173-0.173 0.111-0.37-0.23-0.733-0.309-0.329-0.395-0.568-0.254-0.709 0.344-0.344 1.217 0.997 1.059 1.626-0.138 0.548-0.429 0.673-0.668 0.285zM26.558 22.838c0-0.773 0.292-1.29 0.57-1.011 0.18 0.18-0.158 1.855-0.375 1.855-0.107 0-0.195-0.38-0.195-0.843zM24.525 20.044c-0.524-0.547-0.556-0.642-0.218-0.642 0.218 0 0.333 0.063 0.256 0.141-0.194 0.194 0.286 0.739 0.522 0.593 0.104-0.064 0.19 0.033 0.19 0.216 0 0.449-0.039 0.433-0.749-0.308zM25.989 19.897c-0.076-0.213-0.244-0.537-0.373-0.72s-0.002-0.086 0.282 0.214l0.517 0.545-0.133-0.963c-0.088-0.636-0.069-0.818 0.056-0.535 0.262 0.591 0.264 1.552 0.004 1.713-0.119 0.073-0.278-0.041-0.354-0.255zM23.615 16.331c0-0.302 0.205-0.721 0.455-0.932 0.454-0.383 0.454-0.383 0.059 0.085-0.218 0.257-0.344 0.551-0.282 0.652s0.036 0.31-0.059 0.464c-0.116 0.188-0.173 0.099-0.173-0.269zM26.29 16.37c-0.206-0.216-0.29-0.392-0.187-0.392 0.216 0 0.772 0.619 0.645 0.719-0.046 0.036-0.253-0.11-0.459-0.326zM24.757 16.436c-0.137-0.221 0.34-1.31 0.575-1.312 0.091-0.001 0.020 0.28-0.157 0.624-0.248 0.481-0.262 0.65-0.059 0.732 0.194 0.078 0.197 0.111 0.009 0.124-0.14 0.009-0.306-0.066-0.369-0.167zM23.027 15.122c-0.073-0.118-0.030-0.214 0.094-0.214s0.227 0.096 0.227 0.214c0 0.118-0.042 0.214-0.094 0.214s-0.154-0.096-0.227-0.214zM23.684 13.716c-0.459-0.459-0.423-0.577 0.080-0.264 0.343 0.214 0.492 0.191 0.848-0.131 0.426-0.386 0.429-0.384 0.172 0.168-0.298 0.641-0.62 0.707-1.1 0.226zM25.488 13.838c0-0.118 0.090-0.214 0.199-0.214s0.241-0.217 0.292-0.482c0.078-0.404 0.097-0.385 0.122 0.12 0.016 0.331 0.121 0.544 0.234 0.475s0.148-0.292 0.078-0.494c-0.098-0.286-0.052-0.272 0.207 0.060 0.304 0.39 0.302 0.441-0.025 0.573-0.544 0.221-1.108 0.201-1.108-0.038zM23.776 12.44c0-0.633 0.123-0.669 0.417-0.122 0.165 0.308 0.141 0.436-0.099 0.528-0.227 0.087-0.317-0.028-0.317-0.407zM21.18 10.253c-0.263-0.335-0.256-0.345 0.062-0.097 0.239 0.187 0.401 0.204 0.494 0.053 0.076-0.123 0.241-0.224 0.366-0.224 0.143 0 0.129 0.119-0.039 0.321-0.345 0.416-0.524 0.405-0.883-0.053zM22.634 10.485c-0.078-0.079-0.143-0.375-0.143-0.66 0-0.704 0.515-0.507 0.603 0.23 0.064 0.543-0.148 0.741-0.46 0.429zM22.852 9.732c-0.068-0.171-0.119-0.12-0.129 0.129-0.009 0.226 0.041 0.352 0.112 0.281s0.079-0.256 0.017-0.41zM24.274 10.386c0.061-0.192-0.002-0.469-0.14-0.616s0.004-0.106 0.316 0.092c0.442 0.28 0.588 0.298 0.66 0.082 0.061-0.184 0.176-0.121 0.34 0.184 0.264 0.493 0.028 0.575-0.574 0.199-0.183-0.114-0.37-0.072-0.502 0.113-0.167 0.235-0.188 0.224-0.1-0.053zM26.258 10.464c0.13-0.086 0.29-0.302 0.358-0.478 0.082-0.214 0.128-0.161 0.139 0.161 0.011 0.323-0.106 0.48-0.358 0.478-0.231-0.002-0.284-0.063-0.139-0.161zM22.193 7.721c-0.211-0.549-0.15-0.627 0.159-0.204 0.273 0.373 0.297 0.363 0.432-0.173 0.154-0.613 0.563-0.784 0.563-0.235 0 0.183-0.085 0.281-0.19 0.216s-0.24 0.074-0.301 0.308c-0.134 0.511-0.483 0.556-0.663 0.087zM25.844 7.917c-0.228-0.228-0.165-1.997 0.071-1.997 0.118 0 0.214 0.385 0.214 0.856 0 0.713 0.071 0.856 0.428 0.856 0.235 0 0.428 0.096 0.428 0.214 0 0.238-0.917 0.295-1.141 0.071zM23.86 7.507c0.071-0.186 0.13-0.523 0.13-0.749 0-0.61 0.285-0.499 0.733 0.285 0.219 0.383 0.268 0.575 0.11 0.428-0.385-0.358-0.63-0.338-0.63 0.053 0 0.177-0.107 0.321-0.237 0.321s-0.178-0.152-0.107-0.338z"></path>
</svg>
