<!-- Generated by IcoMoon.io -->
<svg version="1.1" xmlns="http://www.w3.org/2000/svg" width="33" height="32" viewBox="0 0 33 32">
<title>crate</title>
<path d="M30.065 28.499c0.109 0.109 0.173 0.257 0.173 0.415 0 0.153-0.064 0.307-0.173 0.415s-0.262 0.173-0.415 0.173c-0.158 0-0.307-0.064-0.42-0.173-0.109-0.109-0.168-0.262-0.168-0.415 0-0.158 0.059-0.307 0.173-0.415 0.213-0.218 0.613-0.223 0.831 0zM2.545 28.628c-0.109 0.114-0.173 0.262-0.173 0.415 0 0.158 0.064 0.307 0.173 0.42 0.114 0.109 0.262 0.168 0.415 0.168s0.307-0.059 0.42-0.168c0.109-0.114 0.168-0.262 0.168-0.42 0-0.153-0.059-0.307-0.168-0.415-0.223-0.218-0.613-0.218-0.836 0zM2.96 3.782c0.153 0 0.307-0.064 0.42-0.173 0.109-0.109 0.168-0.262 0.168-0.415s-0.059-0.307-0.168-0.415c-0.218-0.218-0.613-0.223-0.836 0-0.109 0.109-0.173 0.262-0.173 0.415s0.064 0.307 0.173 0.415c0.114 0.109 0.262 0.173 0.415 0.173zM29.482 3.634c0.153 0 0.307-0.064 0.415-0.173 0.109-0.114 0.173-0.262 0.173-0.415 0-0.158-0.064-0.307-0.173-0.42-0.223-0.218-0.613-0.218-0.831 0-0.109 0.114-0.173 0.262-0.173 0.42 0 0.153 0.064 0.302 0.173 0.415 0.109 0.109 0.262 0.173 0.415 0.173zM32.651 0.588v30.823c0 0.325-0.264 0.588-0.588 0.588h-31.474c-0.325 0-0.588-0.264-0.588-0.588v-30.823c0-0.325 0.264-0.588 0.588-0.588h31.474c0.325 0 0.588 0.264 0.588 0.588zM31.474 1.177h-25.668v3.674h25.668v-3.674zM8.809 26.209l18.036-18.035v-2.384h-3.003l-18.035 18.036v2.384h3.002zM18.877 5.791v3.636l3.636-3.636zM18.159 5.791h-3.682v8.035l3.682-3.682zM13.761 5.791h-3.667v12.419l3.667-3.667zM9.377 5.791h-3.57v16.706l3.57-3.57zM10.137 26.209h3.623v-3.623zM14.478 26.209h3.682v-8.021l-3.682 3.682zM18.877 17.524v8.685h3.681v-12.419l-3.689 3.69c0.001 0.015 0.009 0.029 0.009 0.044zM23.274 26.209h3.57v-16.706l-3.57 3.57zM1.177 1.177v25.032h3.69v-25.032zM1.177 30.823h25.668v-3.674h-25.668v3.674zM31.474 30.823v-25.032h-3.69v25.032z"></path>
</svg>
