<!-- Generated by IcoMoon.io -->
<svg version="1.1" xmlns="http://www.w3.org/2000/svg" width="32" height="32" viewBox="0 0 32 32">
<title>creatures_from_below</title>
<path d="M11.272 14.187c-0.351 0.091-0.688 0.197-1.046 0.21-0.854 0.209-1.84 0.38-2.44-0.113-0.463-0.382-0.741-0.968-0.98-1.56-0.103-0.445-0.251-0.881-0.454-1.302 0.094-0.298 0.198-0.597 0.322-0.89 0.106-0.253 0.226-0.499 0.351-0.743 0.015-0.091 0.029-0.181 0.048-0.271-0.129-0.021-0.203-0.173-0.182-0.304-0.367 0.591-0.681 1.216-0.931 1.865-0.083 0.216-0.158 0.437-0.228 0.659 0.042 0.070 0.080 0.143 0.116 0.214 0.252 1.682 0.499 3.216 0.243 4.936-0.028 0.186-0.058 0.374-0.090 0.561-0.004 0.002-0.008 0.005-0.012 0.006-0.016 0.661-0.312 1.339-0.503 1.945-0.087 0.279-0.18 0.558-0.28 0.833 0.005 0.111 0.016 0.22 0.033 0.329-0.053 0.528-0.197 1.019-0.393 1.493-0.162 1.015-0.429 2.009-1.108 2.568-0.008 0.021-0.015 0.041-0.022 0.062-0.005 0.004-0.008 0.008-0.013 0.012-0.073 0.062-0.135 0.235-0.025 0.205-0.038 0.067-0.075 0.133-0.112 0.199-0.061 0.108-0.034 0.222 0.099 0.22 1.327-0.020 2.64-0.458 3.662-1.311 0.121-0.264 0.227-0.536 0.334-0.809-0.904 0.7-1.972 1.072-3.079 1.421-0.013 0.004-0.029 0.013-0.045 0.024-0.062 0.005-0.127 0.006-0.19 0.011 0.112-0.199 0.224-0.397 0.335-0.597 0.28-0.347 0.496-0.746 0.656-1.178 0.003-0.005 0.005-0.010 0.008-0.013l-0.003 0.001c0.009-0.025 0.020-0.050 0.029-0.075 0.049-0.139-0.044-0.136-0.173-0.077 0.197-0.434 0.341-0.889 0.437-1.353 0.040-0.041 0.069-0.079 0.079-0.107 0.246-0.689 0.441-1.389 0.531-2.115 0.359-1.419 0.704-2.911 0.746-4.363 0.114 0.111 0.239 0.21 0.379 0.287 0.941 0.523 2.528 0.019 3.471-0.313 0.124-0.044 0.482-0.457 0.429-0.566z"></path>
<path d="M5.855 26.662c0.312-0.267 0.597-0.573 0.882-0.875-0.335 0.129-0.655 0.313-0.993 0.436-0.065 0.022-0.129 0.041-0.195 0.063-0.007 0.053-0.034 0.103-0.088 0.145-0.020-0.016-0.055-0.016-0.119 0.010-0.657 0.252-1.286 0.403-1.967 0.548 0.128-0.124 0.253-0.251 0.388-0.368 0.176-0.151 0.371-0.279 0.516-0.461 0.083-0.102 0.174-0.331-0.053-0.264-0.261 0.079-0.486 0.31-0.676 0.498-0.193 0.19-0.388 0.392-0.532 0.623-0.034 0.054-0.079 0.146-0.005 0.185-0.103 0.104-0.174 0.218-0.067 0.24 0.725 0.15 1.566-0.156 2.192-0.54 0.246-0.065 0.484-0.147 0.718-0.239z"></path>
<path d="M14.545 5.116c-0.38-0.919-1.010-1.749-1.685-2.524-0.051-0.037-0.103-0.071-0.15-0.106-0.046 0.006-0.095 0-0.141-0.034-0.108-0.079-0.211-0.16-0.308-0.243-0.038-0.029-0.077-0.058-0.116-0.087 0.316 0.396 0.617 0.808 0.896 1.232-0.735-0.56-1.617-0.959-2.496-0.962-0.013 0-0.041 0.014-0.069 0.036-0.22-0.041-0.438-0.069-0.647-0.080-0.040-0.001-0.103 0.033-0.165 0.080 0.308 0.061 0.614 0.132 0.916 0.215 0.485 0.335 1.043 0.535 1.492 0.949 0.393 0.364 0.783 0.73 1.131 1.133-0.404 0.103-0.8 0.219-1.178 0.351-0.887-0.182-1.753-0.3-2.648-0.26 0.573-0.391 1.12-1.002 1.187-1.695-0.049-0.014-0.096-0.028-0.145-0.041-0.107 0.065-0.235 0.195-0.255 0.252-0.205 0.599-0.434 1.102-0.994 1.45-0.017 0.011-0.034 0.029-0.049 0.050-0.088 0.006-0.177 0.012-0.265 0.022-0.111 0.012-0.432 0.338-0.234 0.341 0.943 0.012 1.887 0.001 2.824 0.096-0.028 0.012-0.057 0.022-0.086 0.033-0.689 0.281-1.329 0.649-1.918 1.087-0.329-0.057-0.718-0.017-0.97 0.022-0.433 0.067-0.842 0.252-1.179 0.531-0.117 0.098-0.218 0.207-0.312 0.323-0.181 0.128-0.308 0.35-0.38 0.551 0.065 0.034 0.108 0.099 0.096 0.199-0.046 0.351-0.111 0.698-0.083 1.053 0 0.002-0.001 0.005-0.001 0.010 0.004 0.001 0.005 0.002 0.008 0.004 0.136 0.057 0.342-0.182 0.371-0.293 0.174-0.659 0.161-1.562 1.024-1.72 0.627-0.326 1.477-0.492 2.239-0.396-0.004-0.008-0.005-0.016-0.011-0.024-0.119-0.077-0.253-0.121-0.393-0.145 0.331-0.223 0.68-0.422 1.048-0.59 0.782-0.354 1.707-0.634 2.667-0.821 0.036 0.004 0.079-0.005 0.124-0.022 0.096-0.018 0.191-0.036 0.289-0.053 0.108 0.245 0.206 0.495 0.293 0.748 0.091 0.006 0.178 0.057 0.215 0.166 0.123 0.36 0.26 0.715 0.387 1.073-0.057-0.635-0.21-1.275-0.33-1.91z"></path>
<path d="M23.874 12.841c-0.033-0.168-0.066-0.334-0.098-0.5-0.003-0.070-0.005-0.141-0.009-0.21 0.003-0.010 0.004-0.019 0.007-0.028 0.050 0.248 0.091 0.495 0.128 0.742-0.009-0.001-0.018-0.002-0.028-0.004zM26.064 25.556c0.166 0.053 0.334 0.098 0.502 0.14-0.004 0.012-0.007 0.023-0.007 0.030 0.005 0.116 0.028 0.232 0.059 0.345 0.492 0.212 0.978 0.437 1.49 0.591 0.041-0.057 0.059-0.112 0.021-0.143-0.169-0.136-0.366-0.194-0.516-0.358-0.083-0.091-0.141-0.197-0.185-0.309 0.042 0.004 0.083 0.010 0.125 0.013 0.026-0.050 0.074-0.091 0.147-0.108 0.102-0.024 0.244-0.044 0.393-0.069 0.008-0.041 0.026-0.081 0.061-0.118 0.168-0.149 0.294-0.323 0.386-0.517 0.009-0.024 0.017-0.048 0.026-0.073-0.352-0.313-0.731-0.602-1.090-0.903-0.055-0.048-0.106-0.098-0.156-0.148-0.337-0.288-0.642-0.585-0.845-0.887-0.025 0.001-0.053 0.011-0.082 0.026-0.177-0.321-0.352-0.643-0.517-0.97-0.059-0.026-0.11-0.073-0.133-0.146-0.152-0.494-0.312-0.982-0.442-1.483-0.016-0.012-0.033-0.024-0.049-0.036-0.069-0.265-0.125-0.533-0.177-0.804 0.067-0.059 0.121-0.129 0.132-0.189-0.409-0.413-0.444-1.494-0.425-2.297-0.079-1.228-0.096-2.461-0.197-3.687-0.11-1.315-0.362-2.648-0.821-3.884-0.026 0.008-0.054 0.010-0.082 0.008 0.003 0.016 0.007 0.032 0.011 0.049 0.111 0.651 0.256 1.671-0.004 2.417 0.022 0.951 0.082 1.9 0.148 2.849-0.053 0.059-0.090 0.122-0.088 0.168 0.016 0.247 0.048 0.494 0.087 0.741 0.032 0.264 0.063 0.528 0.091 0.793 0.003 0.037 0.003 0.074 0.007 0.112 0 0.007 0.004 0.008 0.007 0.012 0.016 0.154 0.030 0.309 0.046 0.463 0.25 1.018 0.659 2.003 0.722 3.056 0.18 0.685 0.429 1.352 0.785 1.987 0.071 0.125 0.018 0.244-0.071 0.31 0.065 0.168 0.128 0.335 0.194 0.503 0.174 0.329 0.362 0.655 0.569 0.977 0.015 0.002 0.029 0.007 0.044 0.012 0.1 0.187 0.26 0.354 0.44 0.515 0.094 0.085 0.19 0.17 0.285 0.256-0.358-0.070-0.714-0.11-1.057-0.087-0.038-0.024-0.077-0.046-0.112-0.073-0.729-0.255-1.443-0.543-2.151-0.853-0.057-0.025-0.143 0.004-0.227 0.059 0.665 0.433 1.344 0.842 2.025 1.247-0.024 0.062-0.016 0.115 0.050 0.145 0.132 0.062 0.277 0.106 0.428 0.14 0.015 0.008 0.029 0.019 0.045 0.026 0.063 0.040 0.096 0.092 0.11 0.148z"></path>
<path d="M23.49 7.174c-0.013-0.034-0.044-0.040-0.082-0.029-0.026-0.129-0.096-0.256-0.223-0.379-0.44-0.424-1.291-0.768-1.884-0.851-0.013-0.002-0.025-0.002-0.038-0.004-0.259-0.215-0.532-0.419-0.83-0.601-0.782-0.482-1.675-0.764-2.617-0.9 0.007-0.063-0.026-0.106-0.117-0.108-0.209-0.004-0.42-0.002-0.631 0.006-0.003-0.020-0.004-0.040-0.007-0.059-0.018-0.124-0.209-0.022-0.256 0.007-0.028 0.017-0.054 0.037-0.079 0.057-0.082-0.001-0.165-0.002-0.247-0.004 0.005 0.016 0.011 0.033 0.016 0.049-0.261 0.037-0.519 0.094-0.768 0.181-0.014 0.005-0.046 0.028-0.085 0.059-0.013-0.089-0.026-0.177-0.034-0.265-0.022 0.001-0.045 0.002-0.067 0.004-0.071-0.215-0.148-0.43-0.228-0.644-0.202-0.546-0.865-2.508-1.636-2.692 0.475 0.841 0.997 1.716 1.18 2.652 0.061 0.308 0.092 0.618 0.123 0.928 0.213 0.438 0.401 0.887 0.499 1.366 0.083 0.405 0.133 0.815 0.166 1.225 0.083 0.421 0.152 0.842 0.193 1.263 0.17-0.572 0.223-1.139 0.199-1.704 0.011 0.098 0.021 0.194 0.028 0.292 0.004 0.058 0.042 0.075 0.098 0.067-0.103-0.39-0.149-0.793-0.16-1.2-0.119-0.296-0.215-0.598-0.288-0.907 0.376 0.036 0.774 0.004 1.156-0.013 0.129 0.004 0.261-0.007 0.378-0.007 0.042 0 0.094-0.020 0.148-0.052 0.213 0.011 0.424 0.029 0.635 0.055 0.004 0 0.007 0 0.011 0 0 0 0 0.001 0 0.001 0.021 0.002 0.044 0.004 0.065 0.006 0.083 0.012 0.131 0.054 0.156 0.107 0.392 0.103 0.762 0.239 1.11 0.405 0.581 0.087 1.159 0.222 1.681 0.409-0.506-0.015-1.019 0.14-1.372 0.465 0.231-0.042 0.465-0.070 0.7-0.073 0.197-0.032 0.393-0.058 0.594-0.075 0.020-0.001 0.037 0.001 0.055 0.002 0.593-0.083 1.189 0.141 1.634 0.557-0.020 0.011-0.040 0.024-0.059 0.037 0.411 0.418 0.611 0.966 0.676 1.538 0.033-0.079 0.065-0.16 0.088-0.239 0.012 0.075 0.022 0.151 0.025 0.228 0.003 0.063-0.015 0.112-0.044 0.149 0.003 0.033 0.007 0.067 0.011 0.1 0.054 0.11 0.104 0.223 0.147 0.343 0.112-0.052 0.267-0.201 0.269-0.284 0.017-0.51-0.112-0.995-0.288-1.471z"></path>
<path d="M20.771 21.795c-0.048 0.042-0.092 0.084-0.141 0.124-0.108 0.092-0.214 0.186-0.314 0.285 0.366-0.625 0.416-1.387 0.465-2.104 0.032 0.008 0.062 0.016 0.086 0.025 0.11 0.038 0.202 0.094 0.294 0.157-0.016 0.067-0.033 0.135-0.050 0.202 0.024 0.11 0.048 0.22 0.074 0.331-0.088 0.342-0.24 0.667-0.413 0.98zM14.946 18.333c-0.086-0.517-0.21-1.034-0.473-1.485-0.108-0.742-0.156-1.558 0.518-1.835 0.98-0.403 1.098 0.974 1.125 1.612 0.005 0.141 0.012 0.388-0.005 0.656v0 0.028c0 0 0 0.001 0 0.002 0 0.057-0.001 0.114-0.005 0.169 0.012 0.026 0.022 0.054 0.033 0.082 0.026 0.082 0.009 0.148-0.030 0.199-0.038 1.303-0.144 2.599-0.313 3.888-0.275-1.106-0.561-2.213-0.849-3.316zM14.877 28.441c0.048-0.077 0.096-0.153 0.144-0.23 0.11-0.173 0.062-0.228-0.034-0.222 0.088-0.259 0.165-0.52 0.234-0.783 0.077 0.436 0.16 0.87 0.252 1.303-0.202-0.023-0.403-0.045-0.595-0.069zM16.446 25.93c0.31 0.78 0.536 1.584 0.676 2.413 0.12 0.013 0.223 0.122 0.228 0.242-0.337 0.030-0.675 0.044-1.011 0.073 0-0.017 0.001-0.033 0.004-0.049-0.021-0.002-0.041-0.004-0.063-0.006 0.003-0.012 0.005-0.025 0.005-0.037-0.021-0.881 0.012-1.768 0.161-2.635zM17.31 15.359c0.161 0.061 0.267 0.174 0.333 0.325 0.004 0.004 0.008 0.008 0.011 0.013 0.158 0.288 0.222 0.589 0.235 0.894 0.032 0.036 0.055 0.083 0.055 0.145-0.003 0.826-0.029 1.667-0.401 2.422-0.004 0.008-0.009 0.011-0.013 0.017-0.003 0.036-0.008 0.070-0.009 0.104-0.004 0.062-0.030 0.108-0.065 0.145-0.008 0.063-0.017 0.125-0.026 0.189-0.034 0.127-0.071 0.253-0.117 0.378-0.090 0.234-0.203 0.454-0.323 0.671 0.021-0.426 0.058-0.853 0.082-1.277-0.013-0.030-0.021-0.065-0.018-0.106 0.008-0.149 0.022-0.297 0.040-0.445 0.003-0.148 0.005-0.294 0-0.441-0.062-0.036-0.106-0.1-0.106-0.195 0.005-0.452 0.057-0.918-0.026-1.364-0.046-0.253-0.116-0.502-0.143-0.759-0.034-0.317 0.021-0.894 0.494-0.717zM18.473 27.243c0.062 0.215 0.108 0.433 0.158 0.651-0.001 0.136-0.004 0.272-0.007 0.407-0.14 0.058-0.288 0.107-0.444 0.148-0.020-0.032-0.036-0.067-0.042-0.111-0.007-0.061-0.016-0.122-0.025-0.181-0.017 0.017-0.036 0.032-0.053 0.048 0.004-0.191-0.007-0.384-0.045-0.572-0.008-0.040-0.048-0.037-0.094-0.016 0.003-0.263 0.005-0.524 0.009-0.787 0.003-0.279-0.022-0.636-0.026-0.998 0.14 0.271 0.264 0.548 0.38 0.829 0.062 0.195 0.132 0.388 0.187 0.582zM18.446 16.339c0.020-0.186 0.181-0.279 0.352-0.202 0.663 0.294 0.841 0.923 0.882 1.583-0.042 0.523-0.209 1.109-0.288 1.514-0.090 0.461-0.282 0.952-0.35 1.432-0.026 0.057-0.050 0.115-0.077 0.17-0.073-0.413-0.137-0.829-0.197-1.245-0.005-0.161-0.017-0.327-0.024-0.498-0.016-0.422 0.058-1.019-0.108-1.447 0-0.041 0.001-0.081-0.001-0.12-0.033-0.414-0.236-0.762-0.19-1.188zM19.094 27.645c-0.004-0.030-0.008-0.061-0.013-0.091 0-0.006 0-0.012 0-0.018 0.117-0.935 0.079-1.865-0.165-2.764-0.008-0.227-0.030-0.454-0.057-0.677 0.103 0.14 0.211 0.277 0.326 0.418 0.116 0.143 0.203 0.288 0.277 0.438 0.14 0.624 0.187 1.266 0.16 1.908 0.136 0.011 0.273 0.127 0.239 0.301-0.020 0.098-0.041 0.194-0.062 0.292 0.029 0.001 0.057 0.011 0.084 0.023-0.24 0.215-0.485 0.407-0.747 0.568 0.001-0.11 0.001-0.219 0.004-0.329-0.020-0.018-0.036-0.041-0.046-0.067zM19.902 18.671c0.011-0.073 0.026-0.151 0.042-0.232 0.004-0.1 0.007-0.201 0-0.302-0.003-0.046 0.007-0.085 0.024-0.116 0.005 0.004 0.012 0.006 0.016 0.010 0.079 0.048 0.16 0.099 0.243 0.139 0.070 0.032 0.141 0.036 0.21 0.020 0.070 0.248 0.094 0.494 0.079 0.737-0.187 0.539-0.33 1.090-0.564 1.613-0.073 0.158-0.185 0.333-0.289 0.512 0.087-0.309 0.107-0.632 0.137-0.953-0.026-0.034-0.044-0.078-0.040-0.136 0.007-0.131 0.022-0.26 0.040-0.389-0.017-0.005-0.036-0.008-0.050-0.016 0.059-0.29 0.106-0.588 0.152-0.885zM13.372 28.16c0.114-1.027 0.209-2.063 0.383-3.084 0.178 1.069 0.267 2.145 0.273 3.238-0.223-0.042-0.442-0.094-0.656-0.154zM12.962 28.024c-0.306-0.116-0.601-0.265-0.889-0.457-0.017-0.029-0.037-0.053-0.059-0.073 0.033-0.034 0.058-0.065 0.065-0.079 0.033-0.075 0.066-0.15 0.1-0.226 0.558-0.813 0.9-1.691 1.013-2.621 0.025-0.028 0.049-0.056 0.073-0.083-0.261 1.167-0.326 2.333-0.302 3.538zM11.89 19.734c-0.001-0.001-0.003-0.002-0.004-0.004-0.29-0.458-0.541-0.928-0.635-1.454-0.078-0.193-0.124-0.389-0.106-0.585 0.049-0.057 0.096-0.115 0.141-0.173 0.078-0.016 0.166-0.033 0.247-0.028 0.053 0.073 0.128 0.133 0.224 0.178 0.033 0.284 0.121 0.57 0.194 0.837 0.008 0.028 0.021 0.044 0.037 0.054-0.001 0.038-0.007 0.078-0.013 0.116 0.139 0.234 0.279 0.467 0.321 0.743 0.003 0.020 0 0.038-0.001 0.057 0.005 0.004 0.012 0.011 0.017 0.013 0.173 0.409 0.37 0.808 0.553 1.213-0.111-0.079-0.219-0.16-0.317-0.244-0.185-0.161-0.374-0.322-0.557-0.486-0.036-0.079-0.067-0.16-0.102-0.239zM11.054 27.006c-0.11-0.715-0.144-1.431-0.127-2.148 0.062-0.318 0.121-0.635 0.191-0.952 0.028-0.124 0.062-0.248 0.096-0.372 0.013-0.001 0.026-0.006 0.040-0.006 0.007 0.125 0.013 0.238 0.021 0.28 0.037 0.173 0.082 0.346 0.121 0.517 0.011 0.045 0.020 0.089 0.029 0.132-0.044 0.808-0.026 1.617 0.096 2.42 0.046 0.306-0.421 0.437-0.469 0.129zM10.609 20.196c-0.104-0.253-0.199-0.511-0.294-0.768 0.071-0.157 0.147-0.314 0.227-0.467 0.073 0.018 0.139 0.065 0.172 0.152 0.059 0.16 0.119 0.321 0.178 0.48-0.003 0.008-0.004 0.019-0.005 0.025-0.049 0.256-0.001 0.482 0.103 0.717 0.032 0.071 0.069 0.141 0.103 0.211-0.028-0.019-0.057-0.036-0.085-0.054-0.129-0.086-0.279-0.181-0.399-0.296zM13.309 15.955c0.133-0.059 0.302-0.020 0.343 0.14 0.088 0.341 0.11 0.688 0.12 1.035-0.103 0.322-0.094 0.68-0.061 1.015 0.009 0.092 0.020 0.176 0.036 0.252-0.005 0.005-0.011 0.012-0.016 0.016-0.022 0.487 0.049 0.973 0.137 1.458-0.025-0.062-0.049-0.124-0.074-0.185-0.252-0.593-0.85-1.236-0.845-1.893 0.011-0.002 0.022-0.004 0.033-0.006-0.257-0.685-0.432-1.496 0.326-1.831zM10.021 25.163c-0.040 0.306-0.525 0.309-0.486 0 0.016-0.123 0.030-0.245 0.046-0.368 0.015-0.069 0.026-0.135 0.038-0.189 0.001-0.011 0.004-0.021 0.005-0.030 0.048-0.166 0.116-0.329 0.193-0.486-0.042 0.424-0.025 0.896 0.211 1.007-0.003 0.023-0.005 0.045-0.008 0.066zM22.351 22.251c0.020-0.037 0.032-0.069 0.032-0.090 0.001-0.664-0.298-1.324-0.514-1.949-0.021-0.059-0.040-0.119-0.061-0.178 0.013-0.017 0.021-0.033 0.032-0.049-0.032-0.054-0.065-0.11-0.087-0.164-0.028-0.069-0.037-0.135-0.040-0.199-0.017-0.008-0.033-0.017-0.050-0.025-0.104-0.316-0.206-0.634-0.308-0.95 0.049 0.094 0.098 0.189 0.14 0.286 0.025 0 0.049 0.005 0.073 0.012-0.1-0.246-0.197-0.496-0.297-0.747-0.054-0.137-0.115-0.271-0.178-0.404-0.011-0.016-0.021-0.030-0.032-0.046-0.045-0.056-0.090-0.111-0.135-0.166-0.103-0.166-0.22-0.32-0.35-0.461-0.017-0.022-0.034-0.044-0.050-0.066 0.005-0.015 0.008-0.029 0.012-0.044-0.411-0.541-0.857-1.036-1.376-1.457-0.119-0.087-0.239-0.174-0.363-0.257-0.087 0.024-0.183 0.017-0.284-0.036-0.302-0.16-0.609-0.313-0.915-0.463-0.164-0.023-0.331-0.040-0.499-0.050-0.054-0.021-0.11-0.038-0.165-0.056-0.422-0.042-0.852-0.048-1.285-0.007-1.807 0.165-3.925 1.31-5.056 2.927-0.177 0.33-0.325 0.676-0.44 1.031-0.462 0.754-0.842 1.604-0.834 2.415-0.115 0.323-0.174 0.669-0.191 1.019-0.075 0.22-0.149 0.44-0.207 0.661-0.106 0.405-0.246 0.877-0.158 1.296-0.008 0.028-0.017 0.054-0.025 0.082 0.007 0.022 0.011 0.045 0.008 0.069-0.009 0.085-0.013 0.169-0.016 0.255 0.256 0.953 1.104 1.872 1.698 2.565 0.738 0.862 1.632 1.487 2.717 1.838 0.037 0.012 0.066 0.032 0.091 0.054 0.054 0.015 0.11 0.029 0.164 0.044 0.224 0.030 0.451 0.051 0.677 0.069 0.004 0.045 0.030 0.063 0.069 0.066 0.004 0 0.008 0 0.012 0.001 0.044-0.002 0.1-0.021 0.16-0.052 0.444 0.028 0.879 0.041 1.286 0.071 0.007 0.019 0.018 0.033 0.032 0.042 0.048-0.002 0.095-0.004 0.141-0.005 0.016-0.006 0.030-0.012 0.048-0.021 0.050 0.004 0.102 0.005 0.152 0.007 0.098-0.005 0.197-0.010 0.294-0.017 0.079-0.013 0.16-0.025 0.239-0.038 0.745 0.104 1.539-0.098 2.254-0.466 0.168-0.073 0.331-0.164 0.491-0.269-0.005-0.002-0.009-0.005-0.013-0.008 0.465-0.304 0.873-0.669 1.182-1.051 0.028-0.032 0.053-0.065 0.079-0.096 0.001-0.002 0.004-0.004 0.005-0.006v0c0.082-0.098 0.165-0.197 0.24-0.296-0.013-0.065 0.001-0.136 0.057-0.198 0.082-0.091 0.165-0.179 0.248-0.269-0.164 0.074-0.408-0.054-0.346-0.279 0.137-0.492 0.152-0.99 0.108-1.486v0c0.098-0.355 0.206-0.898 0.148-1.356 0.059 0.074 0.12 0.148 0.174 0.227 0.174 0.91 0.289 1.836 0.038 2.743-0.003 0.011-0.008 0.020-0.012 0.029 0.323-0.346 0.644-0.694 0.907-1.087 0.432-0.646 0.54-1.302 0.59-2.045-0.088-0.306-0.203-0.611-0.31-0.899z"></path>
<path d="M28.818 27.423c-0.52 0.019-1.051-0.052-1.572-0.173-0.042-0.005-0.086-0.008-0.127-0.013-0.222-0.044-0.44-0.1-0.655-0.16-0.267-0.041-0.532-0.090-0.796-0.157-0.325-0.085-0.735-0.182-1.059-0.376-0.277-0.083-0.549-0.182-0.815-0.305-0.21 0.162-0.411 0.329-0.607 0.503-0.685 0.503-1.417 0.965-2.111 1.444-0.038 0.079-0.061 0.155-0.045 0.199-0.239 0.144-0.47 0.3-0.698 0.458-0.135 0.106-0.276 0.201-0.424 0.29-0.305 0.21-0.615 0.409-0.94 0.582l-0.036 0.015c0.044-0.025 0.086-0.054 0.131-0.079 0.174-0.1 0.352-0.209 0.515-0.334-0.276 0.14-0.568 0.257-0.87 0.354-0.176 0.129-0.354 0.256-0.532 0.383-0.223 0.070-0.457 0.121-0.704 0.149-0.147 0.016-0.294 0.029-0.442 0.041-0.763-0.011-1.516-0.033-2.271-0.092-0.015 0.001-0.030 0.001-0.045 0.001-0.011 0-0.018-0.005-0.029-0.005-0.647-0.053-1.296-0.135-1.958-0.26-0.004 0-0.011 0.002-0.016 0.002-0.003-0.004-0.005-0.005-0.008-0.010-0.359-0.362-0.795-0.657-1.252-0.937-0.057 0.002-0.116-0.016-0.17-0.065-0.085-0.077-0.176-0.143-0.269-0.203-0.017-0.010-0.033-0.020-0.050-0.029-0.279-0.168-0.589-0.285-0.879-0.436 0-0.001-0.001-0.001-0.001-0.001 0.239 0.245 0.457 0.499 0.725 0.717 0.379 0.308 0.778 0.585 1.162 0.882 0.161 0.098 0.326 0.188 0.495 0.271-0.026 0.019-0.051 0.046-0.034 0.059 1.314 1.040 3.578 0.976 5.146 0.651 1.292-0.268 2.671-1.199 3.731-2.086 0.137-0.073 0.277-0.145 0.416-0.217 0.111-0.074 0.223-0.144 0.333-0.22 0.058-0.040 0.114-0.049 0.165-0.038 0.025-0.094 0.096-0.177 0.215-0.19 0.073-0.010 0.147-0.032 0.22-0.061 0.263-0.209 0.558-0.374 0.85-0.54 0.061 0.002 0.135-0.015 0.191-0.038 0.067-0.029 0.131-0.063 0.191-0.099 0.028 0.024 0.059 0.044 0.092 0.061 0.069-0.085 0.185-0.133 0.309-0.073 0.912 0.446 1.9 0.51 2.893 0.619 0.375 0.041 0.747 0.086 1.12 0.114 0.001-0.001 0.004-0.002 0.005-0.004 0.030-0.012 0.069-0.033 0.114-0.069 0.165-0.063 0.61-0.484 0.396-0.525z"></path>
<path d="M29.463 29.588c-0.081-0.010-0.16-0.023-0.24-0.033 0.016-0.038 0.016-0.071 0.007-0.099-0.289-0.117-0.558-0.275-0.742-0.475-0.12-0.062-0.227-0.14-0.309-0.255-0.009-0.001-0.020-0.001-0.030-0.002 0.078 0.091 0.153 0.186 0.222 0.289 0.081 0.12 0.008 0.282-0.115 0.335 0.012 0.015 0.024 0.030 0.036 0.045-0.040-0.008-0.081-0.019-0.12-0.028-0.001 0-0.003 0-0.003 0-0.64-0.026-1.262-0.198-1.864-0.413-0.228-0.082-0.482-0.147-0.733-0.218 0.459 0.349 0.933 0.677 1.432 0.958 0.628 0.224 1.279 0.384 1.959 0.471 0.246 0.032 0.704-0.552 0.5-0.576z"></path>
<path d="M10.003 10.765c0.032-0.205 0.063-0.413 0.115-0.617 0.131 0.024 0.271 0.115 0.396 0.223 0.168 0.201 0.255 0.488 0.211 0.751-0.091 0.139-0.227 0.166-0.411 0.073-0.1-0.037-0.253-0.161-0.375-0.312 0.036-0.048 0.059-0.090 0.063-0.119zM11.751 8.713c-0.907-0.574-2.834-0.656-3.414 0.449-0.929 0.702-1.098 1.919-0.475 3.178 0.768 1.552 3.095 1.325 4.234 0.319 1.269-1.121 1.084-3.043-0.345-3.946z"></path>
<path d="M19.907 10.006c0.001-0.001 0.004-0.002 0.005-0.004 0.098 0.017 0.194 0.045 0.289 0.081 0.264 0.238 0.517 0.581 0.591 0.853-0.016 0.234-0.214 0.358-0.7 0.19-0.034-0.012-0.070-0.025-0.106-0.040-0.004-0.008-0.005-0.016-0.009-0.023-0.221-0.355-0.181-0.696-0.071-1.057zM18.797 12.561c0.465 0.178 1.102 0.432 1.731 0.605 0.189 0.013 0.375 0.011 0.557-0.012 1.476-0.177 2.152-2.081 1.83-3.371-0.244-0.983-1.378-1.566-2.419-1.541-0.004-0.002-0.005-0.006-0.011-0.008-1.232-0.331-2.486 0.958-2.706 2.090-0.186 0.947 0.29 1.731 1.018 2.236z"></path>
<path d="M24.501 14.678c-0.279-0.137-0.457-0.264-0.632-0.445 0.040-0.073 0.066-0.144 0.070-0.211l0.042-0.104c0.087-0.215-0.020-0.228-0.166-0.169 0.36-0.573 0.433-1.316 0.551-2.003 0.044-0.26-0.387 0.090-0.428 0.15-0.374 0.561-0.342 1.859-1.018 2.053-0.112 0.032-0.231 0.049-0.355 0.055-0.944 0.339-2.353-0.123-3.438-0.507 0.081 0.052 0.161 0.107 0.244 0.156-0.066 0.113-0.079 0.22 0.016 0.267 1.443 0.701 2.947 1.164 4.531 1.407 0.216 0.033 0.885-0.502 0.584-0.649z"></path>
<path d="M6.307 28.109c-0.607 0.161-1.171 0.469-1.774 0.651-0.132 0.040-0.735 0.282-0.816 0.156-0.036-0.058 0.246-0.691 0.269-0.779 0.028-0.1-0.156 0.034-0.173 0.057-0.224 0.322-0.478 0.668-0.652 1.022-0.050 0.103-0.11 0.174-0.062 0.29 0.007 0.034 0.026 0.057 0.061 0.067 0.465 0.053 1.046-0.186 1.479-0.331 0.56-0.186 1.104-0.403 1.586-0.746 0.095-0.067 0.409-0.473 0.083-0.387z"></path>
</svg>
