<!-- Generated by IcoMoon.io -->
<svg version="1.1" xmlns="http://www.w3.org/2000/svg" width="26" height="32" viewBox="0 0 26 32">
<title>creeping_cold</title>
<path d="M24.686 7.718c-0.046-0.193-0.222-0.375-0.349-0.542-0.187-0.245-0.424-0.462-0.591-0.72-0.139-0.214-0.125-0.473-0.141-0.711-0.601-0.129-0.728-0.327-0.957-0.365-0.277-0.045-0.565 0.083-0.752 0.229-0.158 0.123-0.303 0.258-0.456 0.385-0.038 0.032-0.080 0.073-0.126 0.091-0.026 0.012-0.046 0.015-0.065 0.015-0.119-0.207-0.252-0.408-0.397-0.604-0.038-0.070-0.075-0.139-0.11-0.21-0.067-0.142-0.164-0.262-0.235-0.402-0.085-0.168-0.241-0.28-0.385-0.394-0.109-0.087-0.239-0.127-0.346-0.21-0.164-0.125-0.271-0.258-0.461-0.34-0.184-0.078-0.337-0.208-0.51-0.308-0.287-0.181-0.589-0.345-0.905-0.495-0.072-0.054-0.145-0.107-0.226-0.151-0.233-0.129-0.474-0.164-0.718-0.258-0.111-0.042-0.226-0.075-0.342-0.104-0.014-0.005-0.025-0.005-0.039-0.007-0.881-0.269-1.835-0.424-2.83-0.45-0.085-0.029-0.169-0.057-0.258-0.077-0.219-0.049-0.425-0.035-0.644-0.057-0.232-0.022-0.464-0.055-0.695-0.012-0.191 0.036-0.391 0.051-0.569 0.133-0.34 0.161-0.713 0.237-1.060 0.382-0.036 0.016-0.071 0.033-0.104 0.052-0.187 0.057-0.369 0.117-0.55 0.181-0.058 0.015-0.115 0.032-0.167 0.052-0.020 0.010-0.040 0.020-0.061 0.032-0.059 0.023-0.119 0.049-0.178 0.074-0.080 0.020-0.159 0.036-0.237 0.067s-0.155 0.068-0.235 0.093c-0.054 0.017-0.122 0.022-0.168 0.057-0.040 0.032-0.058 0.074-0.080 0.116-0.489 0.253-0.944 0.544-1.357 0.869-0.029 0.022-0.057 0.042-0.087 0.062-0.116 0.078-0.242 0.138-0.363 0.207-0.187 0.103-0.363 0.24-0.54 0.359-0.194 0.132-0.346 0.314-0.494 0.494-0.197 0.238-0.404 0.471-0.588 0.718-0.169 0.23-0.239 0.514-0.378 0.759-0.18 0.316-0.321 0.585-0.336 0.959-0.002 0.091-0.007 0.186-0.015 0.28-0.301-0.061-0.416-0.125-0.588-0.139-0.277-0.025-0.565 0.043-0.752 0.122-0.149 0.062-0.291 0.13-0.43 0.195-0.135 0.062-0.165 0.13-0.201 0.211-0.029 0.062-0.031 0.129-0.077 0.188-0.049 0.062-0.141 0.117-0.219 0.172-0.1 0.072-0.1 0.145-0.162 0.223-0.042 0.051-0.11 0.093-0.169 0.139-0.151 0.121-0.19 0.285-0.211 0.42-0.023 0.135 0.043 0.242 0.187 0.359 0.084 0.070 0.158 0.139 0.213 0.214-0.007 0.067-0.001 0.136 0.012 0.204 0.036 0.193 0.044 0.372 0.022 0.559-0.033 0.294-0.178 0.569-0.204 0.863-0.015 0.149-0.036 0.297-0.052 0.446-0.006 0.011-0.012 0.020-0.019 0.030-0.077 0.107-0.162 0.2-0.164 0.314-0.005 0.211-0.019 0.432 0.097 0.637 0.12 0.216 0.17 0.433 0.261 0.65 0.129 0.308 0.287 0.614 0.349 0.927 0.082 0.417 0.132 0.834 0.224 1.25 0.104 0.478 0.093 0.956 0.174 1.434 0.036 0.211 0.117 0.421 0.146 0.634 0.023 0.178 0.064 0.356 0.078 0.534 0.033 0.398 0.001 0.798-0.040 1.196-0.012 0.117-0.001 0.233-0.005 0.352-0.002 0.12 0.049 0.226 0.097 0.345 0.054 0.133 0.067 0.266 0.103 0.401 0.046 0.165 0.107 0.33 0.158 0.495 0.074 0.246 0.185 0.489 0.262 0.737-0.027-0.161-0.020-0.336 0.022-0.495 0.057-0.211 0.023-0.427 0.058-0.64 0.088-0.536 0.078-1.075 0.145-1.61 0.058-0.482 0.119-0.964 0.19-1.447 0.039-0.268 0.059-0.537 0.087-0.805 0.090 0.253 0.194 0.508 0.268 0.76 0.059 0.203 0.029 0.407 0.049 0.608 0.020 0.188 0.040 0.377 0.084 0.568 0.088 0.385 0.156 0.773 0.279 1.162 0.185 0.581 0.117 1.151 0.162 1.722 0.020 0.25 0 0.503 0.109 0.759 0.023 0.058 0.074 0.117 0.085 0.174 0.058-0.478 0.106-0.956 0.158-1.432 0.027-0.249 0.053-0.498 0.081-0.747 0.037-0.332-0.042-0.672-0.001-1.001 0.048-0.379 0.087-0.759 0.13-1.138 0.025-0.223 0.025-0.449 0.094-0.668 0.022 0.081 0.045 0.161 0.064 0.239 0.045 0.184 0.062 0.369 0.097 0.553 0.038 0.197 0.117 0.387 0.161 0.582 0.071 0.317 0.049 0.636 0.049 0.956 0.001 0.132-0.007 0.264-0.002 0.395 0.005 0.135 0.064 0.252 0.091 0.384 0.036 0.185-0.032 0.372 0.051 0.553 0.074 0.162 0.255 0.275 0.352 0.43 0.136 0.217 0.271 0.464 0.317 0.701 0.059 0.301 0.161 0.604 0.272 0.899 0.045 0.119 0.125 0.22 0.167 0.34 0.041 0.12 0.115 0.25 0.133 0.374 0.015 0.104-0.026 0.18-0.054 0.275-0.016 0.056 0.006 0.125-0.007 0.184-0.013 0.056-0.035 0.104-0.038 0.162-0.008 0.149 0.068 0.245 0.11 0.387 0.040 0.133 0.052 0.269 0.096 0.401 0.045 0.135 0.091 0.265 0.112 0.404 0.026 0.175 0.001 0.336-0.058 0.504-0.156 0.45-0.067 0.914-0.068 1.377 0 0.259-0.016 0.523 0.019 0.781 0.032 0.245 0.002 0.487 0.020 0.731 0.013 0.184 0.067 0.362 0.070 0.547 0.005 0.248 0.023 0.474 0.064 0.715 0.005 0.025 0.005 0.048 0.006 0.071 0.027-0.164 0.061-0.327 0.074-0.489 0.029-0.333 0.042-0.668 0.069-1.002 0.031-0.38 0.083-0.756 0.117-1.134 0.048-0.539 0.13-1.075 0.185-1.612 0.065-0.644 0.091-1.29 0.127-1.936 0.022-0.387 0.068-0.776 0.075-1.164 0.005-0.209-0.012-0.411 0.017-0.619 0.031-0.226 0.072-0.446 0.090-0.673 0.020-0.271 0.026-0.543 0.049-0.814 0.040-0.436 0.19-0.846 0.23-1.282 0.022-0.242 0.006-0.489 0.002-0.731-0.001-0.259 0.036-0.501 0.075-0.756 0.008-0.059 0.023-0.117 0.037-0.174 0.016 0.171 0.032 0.343 0.061 0.516 0.036 0.213 0.119 0.421 0.146 0.634 0.023 0.178 0.064 0.356 0.078 0.534 0.033 0.4 0.002 0.798-0.039 1.196-0.014 0.117-0.004 0.235-0.006 0.352-0.002 0.122 0.049 0.227 0.097 0.345 0.054 0.133 0.067 0.268 0.103 0.401 0.046 0.165 0.107 0.33 0.158 0.495 0.074 0.248 0.187 0.491 0.263 0.737-0.029-0.159-0.022-0.336 0.020-0.495 0.056-0.21 0.025-0.427 0.059-0.639 0.087-0.537 0.078-1.075 0.143-1.612 0.059-0.482 0.119-0.965 0.19-1.447 0.070-0.478 0.078-0.959 0.18-1.437 0.068-0.326 0.093-0.652 0.174-0.976 0.039-0.157 0.112-0.314 0.193-0.471 0.046 0.191 0.022 0.384 0.042 0.572s0.040 0.377 0.084 0.566c0.088 0.387 0.157 0.775 0.28 1.163 0.185 0.581 0.117 1.151 0.162 1.722 0.020 0.25 0 0.503 0.107 0.759 0.025 0.059 0.075 0.117 0.087 0.174 0.058-0.476 0.106-0.956 0.158-1.432 0.027-0.249 0.054-0.498 0.081-0.747 0.038-0.332-0.042-0.672-0.001-1.001 0.046-0.379 0.087-0.759 0.129-1.138 0.032-0.287 0.023-0.576 0.172-0.849 0.056-0.103 0.103-0.21 0.142-0.317 0.051 0.12 0.096 0.24 0.116 0.371 0.032 0.2-0.012 0.41-0.048 0.608-0.030 0.164-0.138 0.304-0.174 0.465-0.026 0.12-0.006 0.248-0.007 0.369-0.001 0.274 0.048 0.537 0.048 0.812 0 0.287 0 0.572 0 0.859 0 0.156-0.006 0.313-0.001 0.469 0.002 0.159 0.048 0.316 0.051 0.475 0.005 0.288-0.040 0.591 0.010 0.876 0.032 0.185 0.030 0.369 0.061 0.553 0.029 0.185 0.029 0.35 0 0.537-0.020 0.128-0.046 0.256-0.067 0.382-0.007 0.039-0.013 0.090-0.006 0.13 0.019 0.12 0.183 0.162 0.262 0.268 0.151 0.197 0.3 0.44 0.359 0.665 0.214 0.812 0.139 1.649 0.139 2.475 0 0.511 0.006 1.028 0.058 1.538 0.057 0.542 0.045 1.085 0.119 1.626 0.067 0.482 0.117 0.969 0.203 1.451 0.052 0.297 0.094 0.594 0.133 0.892 0.007 0.054 0 0.112 0.019 0.161 0.216-0.012 0.133-0.753 0.133-0.86 0-0.429 0.032-0.854 0.045-1.283 0.007-0.237 0.054-0.468 0.051-0.705-0.001-0.204 0.008-0.385 0.043-0.584 0.036-0.22 0.006-0.465-0.033-0.683-0.053-0.295-0.030-0.653 0.026-0.947 0.054-0.274-0.019-0.54 0.083-0.811 0.046-0.129 0.037-0.284 0.116-0.402 0.043-0.068 0.132-0.167 0.194-0.223 0.094-0.088 0.217-0.023 0.323 0.043 0.033-0.093 0.007-0.226 0.007-0.323 0-0.045-0.006-0.094 0.005-0.139 0.008-0.042 0.039-0.049 0.044-0.106 0.027-0.314 0-0.637 0-0.951v-1.486c0-0.433-0.025-0.869-0.002-1.302 0.007-0.133 0.068-0.261 0.087-0.394 0.015-0.103 0.023-0.18 0.056-0.281 0.040-0.116 0.075-0.237 0.106-0.358 0.012 0.048 0.020 0.094 0.027 0.142 0.023 0.179 0.064 0.358 0.078 0.536 0.033 0.398 0.001 0.798-0.040 1.196-0.012 0.116-0.001 0.233-0.005 0.35-0.002 0.122 0.049 0.227 0.097 0.346 0.053 0.133 0.067 0.267 0.103 0.4 0.046 0.167 0.107 0.332 0.157 0.497 0.075 0.246 0.187 0.489 0.263 0.737-0.027-0.161-0.020-0.336 0.022-0.495 0.056-0.211 0.023-0.427 0.058-0.64 0.088-0.536 0.078-1.075 0.143-1.61 0.059-0.484 0.12-0.964 0.19-1.447 0.059-0.401 0.078-0.802 0.141-1.202 0.013 0.107 0.023 0.214 0.022 0.326-0.001 0.242-0.023 0.489 0.006 0.731 0.054 0.436 0.25 0.846 0.304 1.282 0.032 0.271 0.039 0.543 0.067 0.814 0.023 0.227 0.077 0.447 0.119 0.673 0.038 0.207 0.016 0.41 0.022 0.619 0.008 0.388 0.071 0.778 0.1 1.164 0.049 0.646 0.083 1.292 0.169 1.936 0.072 0.537 0.183 1.073 0.246 1.612 0.045 0.378 0.114 0.754 0.155 1.134 0.036 0.335 0.054 0.669 0.091 1.002 0.017 0.161 0.062 0.323 0.098 0.487 0.002-0.023 0.002-0.045 0.007-0.068 0.054-0.242 0.078-0.468 0.084-0.715 0.005-0.185 0.076-0.363 0.093-0.547 0.022-0.245-0.015-0.487 0.027-0.731 0.045-0.258 0.025-0.521 0.023-0.781 0-0.343 0.017-0.672 0.061-1.012 0.067-0.524-0.001-1.048 0.117-1.57 0.019-0.082 0.046-0.164 0.056-0.248 0.006-0.055-0.014-0.117 0.001-0.171 0.015-0.064 0.043-0.101 0.119-0.113 0.232-0.038 0.33 0.327 0.365 0.455 0.052 0.193 0.219 0.353 0.268 0.549 0.054 0.213 0.126 0.411 0.22 0.616 0.093 0.206 0.161 0.418 0.229 0.63 0.064-0.011 0.032-0.085 0.035-0.13 0.002-0.059 0.023-0.081 0.042-0.135 0.107-0.317 0.042-0.67 0.051-0.995 0.005-0.179 0.084-0.349 0.098-0.527 0.017-0.206 0.049-0.407 0.048-0.614-0.002-0.394-0.001-0.788-0.001-1.18 0-0.184 0.007-0.368 0.002-0.552-0.005-0.138-0.039-0.272-0.049-0.411-0.011-0.145-0.058-0.274-0.088-0.416-0.025-0.122-0.007-0.254-0.007-0.377 0-0.254 0-0.508 0-0.763 0-0.098-0.011-0.198-0.002-0.297 0.008-0.106 0.049-0.204 0.052-0.31 0.005-0.198 0.015-0.384 0.049-0.581 0.040-0.223 0.143-0.456 0.204-0.678 0.139-0.497 0.216-1.006 0.432-1.487 0.036-0.081 0.077-0.159 0.113-0.237 0.048 0.216 0.1 0.432 0.168 0.649 0.185 0.581 0.117 1.151 0.162 1.722 0.020 0.25 0 0.501 0.109 0.759 0.025 0.058 0.074 0.117 0.085 0.174 0.058-0.478 0.106-0.956 0.158-1.434 0.027-0.249 0.054-0.498 0.082-0.746 0.036-0.332-0.043-0.672-0.002-1.001 0.038-0.304 0.071-0.608 0.104-0.912 0.122 0.53 0.261 1.059 0.319 1.597 0.082 0.778 0.132 1.555 0.224 2.333 0.104 0.889 0.093 1.781 0.174 2.671 0.036 0.397 0.117 0.786 0.146 1.183 0.023 0.333 0.062 0.665 0.078 0.998 0.033 0.743 0.002 1.489-0.040 2.23-0.012 0.219-0.001 0.437-0.005 0.656-0.002 0.226 0.049 0.423 0.097 0.644 0.054 0.248 0.067 0.497 0.103 0.746 0.046 0.31 0.107 0.617 0.158 0.925 0.074 0.46 0.185 0.914 0.262 1.373-0.028-0.298-0.020-0.626 0.022-0.922 0.056-0.394 0.023-0.797 0.058-1.192 0.088-1.001 0.078-2.004 0.145-3.005 0.058-0.899 0.119-1.799 0.19-2.698 0.070-0.894 0.078-1.79 0.178-2.681 0.070-0.607 0.094-1.215 0.175-1.82 0.074-0.552 0.264-1.108 0.417-1.648 0.232-0.812 0.427-1.635 0.427-2.469 0-0.245 0.012-0.479-0.046-0.72-0.087-0.353-0.107-0.717-0.238-1.066-0.065-0.171-0.097-0.281-0.096-0.458 0-0.109-0.011-0.22-0.002-0.327 0.008-0.123 0.049-0.239 0.051-0.362 0.004-0.152 0-0.304 0-0.458v-1.224c0-0.381-0.035-0.747 0.142-1.107 0.080-0.162 0.155-0.324 0.238-0.488 0.065-0.13 0.178-0.233 0.266-0.355 0.143-0.195 0.258-0.379 0.339-0.597 0.074-0.203 0.146-0.439 0.096-0.65z"></path>
</svg>
