<!-- Generated by IcoMoon.io -->
<svg version="1.1" xmlns="http://www.w3.org/2000/svg" width="32" height="32" viewBox="0 0 32 32">
<title>cross_a</title>
<path fill="#8f0000" d="M25.449 5.034c-0.321 0.089-0.583 0.296-0.742 0.569l-0.003 0.006c-4.263 7.437-9.291 14.992-16.563 19.26-0.573 0.336-2.388 1.281-3.817 1.636-0.715 0.177-1.316 0.157-1.481 0.096s-0.155 0.106-0.155-0.487c0-0.68-0.551-1.231-1.231-1.231v0c-0.68 0-1.231 0.551-1.231 1.231v0c0 1.258 0.76 2.425 1.761 2.796s1.981 0.218 2.929-0.018c1.897-0.471 3.735-1.47 4.47-1.901 7.93-4.655 13.134-12.626 17.452-20.159 0.102-0.176 0.163-0.387 0.163-0.612 0-0.454-0.246-0.851-0.612-1.064l-0.006-0.003c-0.176-0.103-0.387-0.163-0.612-0.163-0.115 0-0.225 0.016-0.331 0.045l0.009-0.002z"></path>
<path fill="#8f0000" d="M5.652 3.526c-0.043-0.005-0.093-0.008-0.143-0.008-0.629 0-1.148 0.472-1.222 1.081l-0.001 0.006c-0.418 3.583 1.213 6.614 3.412 9.040s4.998 4.374 7.272 6.051c3.92 2.891 9.642 6.545 15.221 6.545 0.68 0 1.231-0.551 1.231-1.231v0c0-0.68-0.551-1.231-1.231-1.231v0c-4.442 0-9.994-3.286-13.761-6.064-2.311-1.704-4.974-3.59-6.909-5.724s-3.106-4.392-2.79-7.101c0.005-0.042 0.008-0.091 0.008-0.141 0-0.63-0.473-1.149-1.082-1.222l-0.006-0.001z"></path>
</svg>
