<!-- Generated by IcoMoon.io -->
<svg version="1.1" xmlns="http://www.w3.org/2000/svg" width="32" height="32" viewBox="0 0 32 32">
<title>cross_g</title>
<path fill="#8f0000" d="M28.62 1.129c-7.095 5.144-11.294 12.688-16.682 18.714-3.093 3.46-6.429 6.831-10.037 9.637-0.323 0.253-0.529 0.644-0.529 1.082 0 0.319 0.109 0.613 0.292 0.846l-0.002-0.003c0.253 0.324 0.644 0.53 1.083 0.53 0.319 0 0.612-0.109 0.845-0.291l-0.003 0.002c3.802-2.957 7.241-6.446 10.396-9.975 5.66-6.33 9.784-13.635 16.248-18.321 0.345-0.252 0.567-0.655 0.567-1.111 0-0.303-0.098-0.583-0.264-0.809l0.003 0.004c-0.252-0.345-0.655-0.567-1.111-0.567-0.303 0-0.582 0.098-0.809 0.264l0.004-0.003z"></path>
<path fill="#8f0000" d="M9.441 0.486c-0.628 0.134-1.092 0.684-1.092 1.343 0 0.099 0.011 0.196 0.031 0.29l-0.002-0.009c0.844 4.031 2.050 7.793 3.582 11.589 2.746 6.804 8.655 9.86 13.746 13.841 0.23 0.181 0.525 0.291 0.845 0.291 0.437 0 0.827-0.205 1.078-0.524l0.002-0.003c0.181-0.23 0.291-0.525 0.291-0.845 0-0.437-0.205-0.827-0.524-1.078l-0.003-0.002c-5.34-4.175-10.556-6.919-12.891-12.705-1.484-3.677-2.635-7.272-3.441-11.125-0.134-0.628-0.684-1.092-1.343-1.092-0.099 0-0.196 0.011-0.29 0.031l0.009-0.002z"></path>
</svg>
