<!-- Generated by IcoMoon.io -->
<svg version="1.1" xmlns="http://www.w3.org/2000/svg" width="32" height="32" viewBox="0 0 32 32">
<title>cross_d</title>
<path fill="#8f0000" d="M29.869 4.318c-4.941 1.779-8.287 4.806-12.070 7.833-3.854 3.083-7.678 6.178-11.495 9.307-0.47 0.385-0.833 0.827-1.301 1.329s-0.983 1.030-1.41 1.373c-0.208 0.167-0.131 0.134-0.237 0.184-0.153-0.626-0.71-1.084-1.373-1.084-0.079 0-0.157 0.007-0.232 0.019l0.008-0.001c-0.651 0.134-1.134 0.703-1.134 1.384 0 0.098 0.010 0.194 0.029 0.287l-0.002-0.009c0.115 0.577 0.291 1.094 0.654 1.555s0.986 0.808 1.563 0.857c1.154 0.097 1.851-0.476 2.493-0.991s1.216-1.121 1.708-1.649c0.492-0.528 0.955-1.012 1.026-1.070 3.807-3.122 7.621-6.21 11.467-9.287 3.858-3.086 6.906-5.809 11.265-7.379 0.549-0.202 0.933-0.72 0.933-1.328 0-0.172-0.031-0.336-0.087-0.489l0.003 0.010c-0.201-0.55-0.72-0.935-1.329-0.935-0.172 0-0.336 0.031-0.488 0.087l0.010-0.003z"></path>
<path fill="#8f0000" d="M4.43 5.108c-0.085-0.018-0.182-0.028-0.282-0.028-0.29 0-0.56 0.088-0.784 0.237l0.005-0.003c-0.383 0.256-0.632 0.688-0.632 1.177 0 0.291 0.088 0.561 0.239 0.786l-0.003-0.005c3.73 5.631 7.74 9.801 13.018 14.031 1.363 1.092 3.168 2.668 5.175 3.994s4.238 2.467 6.647 2.467c0.78 0 1.412-0.632 1.412-1.412v0c0-0.78-0.632-1.412-1.412-1.412v0c-1.459 0-3.295-0.811-5.090-1.998s-3.527-2.688-4.967-3.842c-5.119-4.103-8.858-7.995-12.43-13.388-0.205-0.307-0.519-0.526-0.886-0.603l-0.009-0.002z"></path>
</svg>
