<!-- Generated by IcoMoon.io -->
<svg version="1.1" xmlns="http://www.w3.org/2000/svg" width="32" height="32" viewBox="0 0 32 32">
<title>cross_b</title>
<path fill="#8f0000" d="M27.991 0.871c-0.254-0.248-0.602-0.401-0.985-0.401-0.396 0-0.754 0.163-1.011 0.426l-0 0c-7.99 8.212-14.014 18.067-22.675 24.803-0.332 0.261-0.544 0.662-0.544 1.113 0 0.328 0.112 0.63 0.3 0.87l-0.002-0.003c0.261 0.333 0.663 0.545 1.114 0.545 0.328 0 0.629-0.112 0.869-0.299l-0.003 0.002c9.202-7.157 15.277-17.159 22.965-25.061 0.247-0.254 0.4-0.601 0.4-0.984 0-0.397-0.164-0.755-0.427-1.012l-0-0z"></path>
<path fill="#8f0000" d="M7.768 0.485c-0.060-0.009-0.13-0.014-0.2-0.014-0.32 0-0.614 0.106-0.851 0.285l0.004-0.003c-0.344 0.26-0.564 0.669-0.564 1.129 0 0.32 0.106 0.614 0.285 0.851l-0.003-0.004c4.448 5.93 7.389 12.894 11.824 19.3 2.192 3.166 5.166 7.265 8.888 9.392 0.201 0.117 0.443 0.186 0.7 0.186 0.522 0 0.978-0.284 1.222-0.705l0.004-0.007c0.117-0.201 0.186-0.443 0.186-0.7 0-0.522-0.284-0.978-0.705-1.222l-0.007-0.004c-2.877-1.644-5.827-5.455-7.967-8.546-4.216-6.089-7.169-13.096-11.888-19.388-0.221-0.292-0.547-0.493-0.921-0.549l-0.008-0.001z"></path>
</svg>
