<!-- Generated by IcoMoon.io -->
<svg version="1.1" xmlns="http://www.w3.org/2000/svg" width="32" height="32" viewBox="0 0 32 32">
<title>cross_e</title>
<path fill="#8f0000" d="M30.692 2.494c-0.138-0.045-0.298-0.071-0.463-0.071-0.262 0-0.509 0.065-0.725 0.18l0.008-0.004c-5.972 3.128-9.902 8.296-14.3 12.452-4.561 4.31-8.802 9.429-13.647 12.659-0.418 0.282-0.689 0.753-0.689 1.288 0 0.32 0.097 0.617 0.264 0.864l-0.004-0.006c0.282 0.418 0.753 0.689 1.288 0.689 0.32 0 0.618-0.097 0.864-0.264l-0.006 0.003c5.39-3.594 9.701-8.871 14.056-12.986 4.639-4.383 8.407-9.232 13.611-11.958 0.497-0.264 0.83-0.779 0.83-1.372 0-0.263-0.066-0.51-0.181-0.727l0.004 0.008c-0.193-0.361-0.513-0.632-0.9-0.755l-0.011-0.003z"></path>
<path fill="#8f0000" d="M5.851 1.042c-0.055-0.007-0.119-0.011-0.184-0.011-0.791 0-1.443 0.593-1.537 1.358l-0.001 0.007c-0.902 7.555 2.678 12.698 7.399 17.861 3.61 3.947 7.712 9.179 13.579 11.135 0.146 0.050 0.314 0.079 0.489 0.079 0.679 0 1.257-0.438 1.465-1.046l0.003-0.011c0.051-0.146 0.080-0.315 0.080-0.49 0-0.68-0.439-1.258-1.049-1.466l-0.011-0.003c-4.654-1.551-8.563-6.23-12.272-10.286-4.579-5.007-7.383-8.925-6.609-15.405 0.007-0.055 0.011-0.119 0.011-0.184 0-0.79-0.592-1.442-1.356-1.537l-0.008-0.001z"></path>
</svg>
