<!-- Generated by IcoMoon.io -->
<svg version="1.1" xmlns="http://www.w3.org/2000/svg" width="32" height="32" viewBox="0 0 32 32">
<title>cross_f</title>
<path fill="#8f0000" d="M29.553 0.48c-0.047-0.006-0.102-0.009-0.158-0.009-0.334 0-0.642 0.116-0.884 0.311l0.003-0.002c-5.73 4.584-9.725 10.245-14.349 15.421-3.941 4.411-8.231 8.692-12.724 12.495-0.306 0.261-0.499 0.646-0.499 1.077 0 0.348 0.126 0.667 0.336 0.914l-0.002-0.002c0.261 0.306 0.646 0.499 1.077 0.499 0.348 0 0.667-0.126 0.914-0.336l-0.002 0.002c4.615-3.905 8.991-8.274 13.006-12.767 4.762-5.329 8.671-10.826 14.009-15.097 0.324-0.261 0.53-0.658 0.53-1.103 0-0.335-0.117-0.643-0.312-0.885l0.002 0.003c-0.229-0.284-0.562-0.477-0.94-0.52l-0.006-0.001z"></path>
<path fill="#8f0000" d="M7.614 1.757c-0.673 0.116-1.179 0.695-1.179 1.392 0 0.082 0.007 0.163 0.020 0.241l-0.001-0.008c1.091 6.545 5.129 13.383 9.232 18.281 3.098 3.698 7.699 7.829 13.289 7.829 0.78 0 1.412-0.632 1.412-1.412v0c0-0.78-0.632-1.412-1.412-1.412v0c-4.128 0-8.27-3.41-11.125-6.818-3.846-4.592-7.657-11.215-8.61-16.934-0.116-0.673-0.695-1.179-1.392-1.179-0.082 0-0.163 0.007-0.241 0.020l0.008-0.001z"></path>
</svg>
