<!-- Generated by IcoMoon.io -->
<svg version="1.1" xmlns="http://www.w3.org/2000/svg" width="32" height="32" viewBox="0 0 32 32">
<title>cult_of_cthulhu</title>
<path d="M17.076 31.835c-0.33-0.085-2.609-0.706-5.063-1.379s-4.572-1.202-4.705-1.176c-0.162 0.032-0.263-0.321-0.301-1.054-0.037-0.695-0.171-1.187-0.363-1.333-0.168-0.128-0.285-0.353-0.261-0.501s-0.030-0.442-0.122-0.654c-0.13-0.302-0.020-0.507 0.511-0.951 0.373-0.311 0.79-0.566 0.926-0.566 0.54 0 1.284-0.493 1.392-0.923 0.117-0.467-1.014-2.882-1.35-2.882-0.093 0-0.304-0.293-0.469-0.651s-0.382-0.786-0.483-0.951c-0.324-0.53-0.927-2.089-0.873-2.257 0.029-0.089-0.036-0.328-0.144-0.529-0.314-0.587 0.339-0.987 2.109-1.292 1.48-0.255 1.617-0.248 2.063 0.1 0.584 0.457 0.942 0.475 1.103 0.057 0.202-0.527 0.147-0.588-0.529-0.586-0.514 0.002-0.664-0.089-0.712-0.428-0.034-0.236-0.236-0.588-0.45-0.782-0.611-0.553-0.493-1.326 0.312-2.038 0.654-0.579 0.701-0.7 0.701-1.823 0-1.159 0.025-1.218 0.703-1.637 0.79-0.489 1.216-1.104 0.899-1.3-0.596-0.369 0.146-2.367 1.19-3.204 0.686-0.55 2.514-1.095 3.684-1.098 0.806-0.003 1.187 0.14 2.253 0.84 0.706 0.464 1.283 0.907 1.283 0.984s0.178 0.351 0.396 0.608c0.218 0.257 0.564 0.685 0.768 0.95 0.213 0.277 0.471 0.421 0.605 0.339 0.363-0.224 0.274-1.012-0.172-1.527-0.58-0.669-0.223-0.935 0.801-0.597 1.141 0.377 2.633 2.014 3.189 3.502 0.41 1.097 0.443 1.514 0.427 5.449l-0.017 4.261-0.793 2.034c-1.197 3.072-1.801 3.781-1.801 2.113 0-0.474-0.135-1.038-0.3-1.251-0.292-0.378-0.313-0.372-0.751 0.205-0.358 0.471-0.471 0.942-0.551 2.278-0.061 1.033-0.023 1.714 0.1 1.76 0.11 0.042 0.741 0.143 1.402 0.225l1.201 0.149 0.113 4.244-2.76 1.46c-1.518 0.803-2.959 1.582-3.203 1.732-0.482 0.295-1.026 0.316-1.959 0.076zM18.177 31.449c0-0.1-0.405-0.419-0.901-0.709s-0.901-0.614-0.901-0.72c0-0.287 0.235-0.233 0.901 0.209 0.33 0.219 0.668 0.398 0.751 0.399s0.15-0.664 0.15-1.477c0-1.368-0.034-1.486-0.451-1.585-0.248-0.059-0.942-0.246-1.542-0.416s-1.122-0.279-1.159-0.243c-0.037 0.037 0.387 0.358 0.942 0.714 0.942 0.605 1.388 1.194 0.704 0.932-0.444-0.17-2.653-1.692-2.799-1.927-0.299-0.483-0.549-0.164-0.45 0.574 0.152 1.137-0.082 1.389-0.782 0.841-0.314-0.245-0.615-0.608-0.67-0.806-0.079-0.284-0.198-0.323-0.563-0.186-0.255 0.096-0.414 0.253-0.354 0.35 0.122 0.198 6.054 3.916 6.524 4.089 0.458 0.169 0.601 0.16 0.601-0.039zM19.582 30.928c0.327-0.169 0.54-0.415 0.485-0.56-0.054-0.142 0.542-1.184 1.326-2.317s1.385-2.099 1.336-2.148c-0.207-0.207-0.749 0.204-1.234 0.937-0.655 0.99-1.219 1.127-0.708 0.172 0.114-0.213 0.161-0.387 0.104-0.387-0.343 0-1.854 0.709-2.063 0.968-0.384 0.475-0.313 3.637 0.081 3.637 0.049 0 0.351-0.136 0.672-0.302zM14.966 30.554c-0.782-0.736-4.223-2.721-4.64-2.677-0.412 0.044-0.455-0.027-0.415-0.702 0.040-0.679-0.003-0.751-0.457-0.751-0.275 0-0.553 0.135-0.616 0.3s-0.241 0.3-0.394 0.3c-0.621 0-0.187 0.379 1.62 1.415 1.045 0.599 1.901 1.187 1.902 1.308s0.656 0.406 1.454 0.633c1.777 0.506 1.915 0.521 1.545 0.172zM21.257 30.033c0.343-0.218 0.94-0.847 1.325-1.397s0.819-1.003 0.963-1.005c0.28-0.005 0.177 0.263-0.325 0.848-0.431 0.502-0.176 0.631 0.529 0.267 0.58-0.3 0.606-0.371 0.669-1.837 0.102-2.361-0.133-2.269-2.315 0.901-2.042 2.968-2.049 2.986-0.846 2.223zM10.969 29.538c0-0.050-0.572-0.41-1.271-0.801s-1.488-0.899-1.752-1.13l-0.481-0.419-0.065 0.645c-0.036 0.355 0.009 0.718 0.1 0.808 0.166 0.164 2.754 0.947 3.218 0.973 0.138 0.008 0.25-0.026 0.25-0.076zM13.627 24.766c0.284-0.417 0.579-1.047 0.656-1.402s0.444-0.982 0.815-1.396c0.675-0.75 0.838-1.227 0.493-1.44-0.1-0.062-0.46 0.338-0.799 0.889s-0.673 1.002-0.742 1.002c-0.12 0-0.008-0.193 1.072-1.836 0.265-0.404 0.453-0.945 0.416-1.201-0.053-0.369-0.314-0.048-1.249 1.536-1.194 2.023-3.6 4.705-4.221 4.705-0.166 0-0.302 0.090-0.302 0.2 0 0.474 1.338-0.084 1.511-0.631 0.065-0.204 0.207-0.37 0.316-0.37s0.058 0.2-0.114 0.445c-0.171 0.245-0.312 0.601-0.312 0.791s-0.158 0.438-0.35 0.55c-0.465 0.271-0.257 0.267 0.536-0.009 0.355-0.124 0.724-0.417 0.818-0.651 0.155-0.384 0.175-0.367 0.208 0.175 0.020 0.33 0.019 0.726-0.003 0.88s0.080 0.353 0.227 0.444c0.203 0.127 0.294-0.080 0.386-0.88 0.073-0.635 0.323-1.342 0.636-1.803zM12.971 23.822c0.118-0.22 0.259-0.4 0.314-0.4s0.003 0.18-0.114 0.4c-0.118 0.22-0.259 0.4-0.314 0.4s-0.003-0.18 0.114-0.4zM20.37 25.228c0.637-0.325 0.836-0.579 1.119-1.429 0.713-2.147-0.019-5.619-1.63-7.731-0.771-1.011-1.882-0.813-1.881 0.335 0.001 0.466 0.662 1.812 0.891 1.812 0.053 0 0.231-0.248 0.395-0.551 0.275-0.507 0.299-0.516 0.307-0.112 0.005 0.241-0.092 0.501-0.215 0.576-0.143 0.088-0.178 0.477-0.096 1.089 0.114 0.857 0.084 0.962-0.303 1.063-0.346 0.090-0.404 0.212-0.3 0.624 0.095 0.379 0.020 0.603-0.291 0.863-0.586 0.491-0.989 1.323-0.989 2.043 0 0.336-0.090 0.611-0.2 0.611-0.264 0-0.254-1.129 0.021-2.412 0.349-1.63-0.006-1.712-1.272-0.297-1.192 1.333-1.504 2.208-0.989 2.777 0.612 0.677 1.007 0.777 2.032 0.515 0.89-0.228 1.007-0.214 1.514 0.185 0.677 0.533 0.907 0.537 1.888 0.037zM20.376 18.88c-0.45-1.169-0.449-1.23 0.008-0.401 0.231 0.421 0.391 0.855 0.354 0.965s-0.199-0.144-0.361-0.565zM9.952 25.106c0.798-0.319 1.418-1.009 1.418-1.578 0-0.169-0.080-0.307-0.177-0.307s-0.23-0.158-0.295-0.35c-0.065-0.193-0.203-0.486-0.307-0.651s-0.343-1.087-0.531-2.049-0.415-1.703-0.505-1.647c-0.090 0.056-0.224 0.504-0.298 0.996s-0.214 0.845-0.312 0.784c-0.496-0.307-0.479 0.23 0.037 1.166 0.749 1.359 0.749 2.076-0.001 2.877-0.435 0.464-0.528 0.683-0.359 0.851 0.293 0.293 0.387 0.287 1.331-0.091zM9.225 24.573c0.184-0.138 0.469-0.43 0.633-0.651s0.301-0.291 0.305-0.158c0.008 0.283-0.777 1.059-1.071 1.059-0.11 0-0.050-0.113 0.134-0.25zM9.692 22.112c-0.193-0.504-0.136-0.633 0.1-0.228 0.117 0.201 0.17 0.408 0.119 0.459s-0.15-0.053-0.219-0.232zM13.075 22.088c0.413-0.767 0.399-0.812-0.983-3.047-0.694-1.122-0.82-1.236-1.036-0.94-0.186 0.254-0.269 0.273-0.341 0.076-0.072-0.198-0.155-0.205-0.342-0.029-0.369 0.347 0.416 3.497 1.092 4.384 0.441 0.578 0.578 0.649 0.885 0.457 0.2-0.125 0.526-0.53 0.726-0.9zM10.985 18.9c0.009-0.233 0.057-0.281 0.121-0.121 0.058 0.145 0.051 0.317-0.016 0.384s-0.114-0.052-0.105-0.263zM16.976 19.693c0-0.377-0.33-0.349-0.479 0.041-0.212 0.552-0.14 0.748 0.179 0.484 0.165-0.137 0.3-0.373 0.3-0.525zM25.322 18.293l0.664-1.718v-4.078c0-3.665-0.043-4.193-0.425-5.213-0.452-1.207-1.373-2.37-2.314-2.919l-0.573-0.334 0.076 0.795c0.088 0.919-0.285 1.452-1.316 1.882-0.36 0.15-0.655 0.362-0.655 0.47s-0.146 0.342-0.324 0.52c-0.449 0.449-0.168 0.651 0.307 0.221 0.369-0.334 0.396-0.329 0.636 0.118 0.155 0.289 0.271 1.493 0.305 3.162 0.033 1.639 0.151 2.875 0.3 3.154 0.586 1.095 0.773 0.291 0.639-2.745-0.182-4.104-0.17-4.289 0.318-4.976 0.247-0.347 0.511-0.626 0.586-0.619s0.429 0.467 0.787 1.024c0.633 0.984 0.65 1.072 0.64 3.142-0.011 2.080-0.268 6.534-0.515 8.938-0.068 0.661-0.051 1.132 0.038 1.048s0.46-0.927 0.826-1.872zM13.263 17.073c-0.298-0.454-0.351-0.468-0.674-0.176-0.193 0.174-0.507 0.317-0.699 0.317-0.307 0-0.293 0.077 0.116 0.648 0.255 0.356 0.637 1.010 0.847 1.452l0.383 0.803 0.175-1.276c0.143-1.046 0.116-1.365-0.149-1.769zM14.488 19.265c-0.203-0.203-0.572 0.3-0.41 0.561 0.11 0.179 0.201 0.153 0.341-0.098 0.105-0.188 0.136-0.396 0.069-0.463zM22.454 19.517c0.070-0.183 0-0.3-0.179-0.3-0.162 0-0.294 0.135-0.294 0.3s0.080 0.3 0.179 0.3 0.231-0.135 0.294-0.3zM8.838 17.593c-0.087-1.070-0.054-1.567 0.112-1.669 0.36-0.222 0.788 0.248 0.857 0.94 0.034 0.341 0.184 0.661 0.333 0.71 0.311 0.102 0.215-0.331-0.382-1.71-0.397-0.918-0.907-1.106-1.471-0.543-0.315 0.315-0.286 0.961 0.096 2.175 0.101 0.319 0.184 0.95 0.186 1.402 0.002 0.604 0.054 0.742 0.197 0.521 0.112-0.173 0.142-0.948 0.071-1.824zM18.162 18.088c-0.363-0.634-0.675-1.382-0.695-1.664-0.057-0.81-0.295-1.205-0.921-1.528-0.527-0.273-0.638-0.268-1.177 0.051-0.627 0.371-0.719 0.648-0.402 1.219 0.54 0.973 1.008 2.176 1.008 2.588 0 0.255 0.090 0.463 0.2 0.463 0.334 0 0.225-1.111-0.208-2.121-0.497-1.159-0.445-1.882 0.071-0.983 0.287 0.5 0.336 0.527 0.291 0.159-0.096-0.791 0.337-0.389 0.796 0.739 0.247 0.607 0.45 1.21 0.451 1.339 0.001 0.264 1.012 1.122 1.154 0.98 0.050-0.050-0.206-0.61-0.568-1.243zM22.097 18.048c-0.428-0.083-0.601 0.068-0.418 0.364 0.099 0.16 0.227 0.15 0.452-0.037 0.283-0.234 0.279-0.267-0.033-0.328zM7.405 17.775c-0.187-0.187-0.24-0.134-0.24 0.24s0.053 0.427 0.24 0.24 0.187-0.294 0-0.481zM15.056 18.295c0.174-0.067 0.266-0.202 0.205-0.3-0.168-0.272-0.431-0.215-0.56 0.121s-0.096 0.352 0.355 0.179zM14.568 17.424c0.175-0.328 0.080-0.519-0.594-1.186-0.442-0.437-0.803-0.865-0.803-0.951s0.108-0.048 0.24 0.084c0.331 0.331 0.772 0.302 0.64-0.042-0.111-0.29-1.046-0.62-1.231-0.435-0.129 0.129 1.198 2.895 1.395 2.909 0.079 0.006 0.237-0.166 0.352-0.381zM22.554 17.297c0.085-0.070-1.344-0.684-1.594-0.684-0.094 0-0.071 0.221 0.052 0.49 0.188 0.413 0.321 0.472 0.847 0.372 0.343-0.065 0.656-0.145 0.695-0.178zM22.355 15.619c-0.468-0.682-1.173-1.615-1.568-2.075s-0.96-1.196-1.256-1.636c-1.107-1.646-1.442-1.937-2.155-1.867-0.523 0.051-0.678 0.166-0.735 0.547-0.056 0.371 0.239 0.809 1.283 1.907 0.745 0.784 1.788 1.941 2.318 2.572s1.115 1.147 1.301 1.148c0.186 0.001 0.609 0.169 0.94 0.373s0.628 0.349 0.662 0.322c0.034-0.028-0.322-0.608-0.789-1.29zM7.070 16.039c-0.091-0.413-0.223-0.569-0.42-0.493-0.378 0.145-0.363 0.453 0.046 0.904 0.426 0.471 0.54 0.346 0.374-0.41zM11.77 16.518c0-0.305-0.939-1.035-1.11-0.863-0.13 0.13 0.69 1.159 0.925 1.159 0.102 0 0.186-0.133 0.186-0.296zM12.154 14.971c-0.23-0.556-0.275-0.579-0.507-0.261-0.214 0.292-0.184 0.444 0.185 0.944 0.345 0.469 0.454 0.524 0.507 0.261 0.037-0.184-0.046-0.609-0.185-0.944zM23.583 15.825c0-0.104-0.090-0.244-0.2-0.312s-0.2 0.017-0.2 0.188 0.090 0.312 0.2 0.312c0.11 0 0.2-0.085 0.2-0.188zM15.275 14.41c0.069-0.111-0.093-0.199-0.368-0.199-0.463 0-0.84 0.428-0.594 0.674 0.133 0.133 0.785-0.189 0.962-0.475zM18.536 14.261c-0.128-0.303-0.554-0.893-0.947-1.313l-0.714-0.762-0.245 0.839c-0.27 0.923-0.203 1.182 0.307 1.192 0.186 0.003 0.564 0.136 0.839 0.293 0.812 0.464 1.031 0.392 0.759-0.25zM12.85 12.813c0.011-0.773-0-1.406-0.026-1.406-0.205 0-0.627 1.554-0.535 1.973 0.331 1.52 0.534 1.315 0.562-0.568zM10.781 13.478c0.135-0.355 0.136-0.6 0.003-0.733-0.227-0.227-0.695 0.776-0.505 1.083 0.181 0.293 0.286 0.219 0.503-0.35zM14.046 12.96c-0.399-4.305-0.399-4.344-0.098-4.645 0.261-0.261 0.252-0.312-0.069-0.436-0.245-0.094-0.457-0.014-0.646 0.243-0.336 0.458-0.171 2.631 0.264 3.464 0.15 0.288 0.273 0.951 0.274 1.474s0.085 0.951 0.187 0.951c0.103 0 0.142-0.469 0.088-1.051zM15.374 13.81c-0.165-0.107-0.435-0.194-0.601-0.194-0.267 0-0.267 0.022 0 0.194 0.165 0.107 0.435 0.194 0.601 0.194 0.267 0 0.267-0.022 0-0.194zM16.23 12.819c0.062-0.239-0.165-0.802-0.586-1.452-0.618-0.954-0.675-1.158-0.56-2.012 0.105-0.782 0.072-0.951-0.184-0.951-0.41 0-0.727 0.617-0.727 1.418 0 0.438 0.222 0.914 0.694 1.49 0.382 0.466 0.801 1.083 0.933 1.372 0.287 0.629 0.301 0.633 0.431 0.135zM10.121 12.259c0.132-0.303 0.416-0.821 0.63-1.151s0.396-0.786 0.404-1.013c0.008-0.227 0.147-0.587 0.309-0.801 0.317-0.419 0.415-1.49 0.137-1.49-0.093 0-0.33 0.178-0.527 0.395-0.287 0.317-0.332 0.59-0.227 1.382 0.128 0.966 0.114 1.001-0.674 1.676-0.758 0.649-0.978 1.112-0.672 1.418 0.237 0.237 0.375 0.144 0.62-0.417zM12.178 11.491c0.245-0.571 0.393-1.37 0.393-2.116 0-0.659 0.084-1.354 0.186-1.546s0.112-0.468 0.022-0.615c-0.32-0.518-0.608 0.523-0.608 2.196 0 1.33-0.074 1.728-0.4 2.143-0.443 0.563-0.509 0.856-0.193 0.856 0.114 0 0.384-0.413 0.601-0.918zM24.585 11.584c0-0.349-0.084-0.549-0.2-0.477-0.11 0.068-0.2 0.394-0.2 0.724 0 0.349 0.084 0.549 0.2 0.477 0.11-0.068 0.2-0.394 0.2-0.724zM20.58 10.106c0-0.489-0.091-0.701-0.3-0.701-0.361 0-0.377 0.213-0.068 0.892 0.308 0.676 0.368 0.644 0.368-0.191zM23.121 9.055c-0.050-0.193-0.092-0.035-0.092 0.35s0.041 0.543 0.092 0.35c0.050-0.193 0.050-0.508 0-0.701zM19.178 9.606c0-0.11-0.040-0.2-0.088-0.2s-0.144 0.090-0.212 0.2c-0.068 0.11-0.028 0.2 0.088 0.2s0.212-0.090 0.212-0.2zM17.142 8.799c0.367-0.088 0.719-0.212 0.783-0.276 0.185-0.185-0.532-0.872-1.043-1-0.338-0.085-0.457-0.249-0.436-0.599 0.016-0.266 0.103-0.437 0.193-0.382s0.114 0.23 0.054 0.388c-0.070 0.183 0.084 0.36 0.425 0.49 0.294 0.112 0.658 0.379 0.808 0.594s0.344 0.391 0.43 0.391c0.332 0 1.815-1.598 1.938-2.088 0.272-1.084-0.35-2.717-1.035-2.717-0.142 0-0.376-0.166-0.52-0.369-0.767-1.083-4.618-0.461-5.766 0.931-0.554 0.672-0.563 0.717-0.239 1.16 0.313 0.427 0.357 0.436 0.608 0.12 0.241-0.303 0.255-0.285 0.123 0.16-0.081 0.275-0.23 0.554-0.331 0.619-0.346 0.223 0.271 1.183 0.76 1.183 0.252 0 0.531 0.126 0.619 0.281s0.385 0.312 0.661 0.35c0.331 0.046 0.51 0.205 0.529 0.47 0.016 0.22 0.038 0.478 0.050 0.572s0.179 0.107 0.372 0.027 0.65-0.216 1.017-0.304zM15.374 7.203c-0.22-0.22-0.497-0.4-0.614-0.4s-0.185-0.245-0.15-0.544c0.090-0.77 1.183-1.466 2.245-1.431 0.529 0.018 0.643 0.058 0.321 0.113-0.275 0.047-0.844 0.451-1.265 0.897l-0.764 0.811 0.449 0.478c0.541 0.576 0.345 0.644-0.222 0.077zM17.176 5.913c0-0.159 0.082-0.339 0.182-0.401s0.134 0.068 0.077 0.288c-0.122 0.468-0.258 0.527-0.258 0.112zM18.598 5.060c0.146-0.243 0.308-0.398 0.361-0.346s-0.067 0.251-0.265 0.441c-0.345 0.33-0.349 0.326-0.096-0.096zM13.861 4.49c0.43-0.322 0.797-0.388 0.627-0.114-0.060 0.097-0.313 0.228-0.562 0.29-0.438 0.11-0.44 0.104-0.065-0.176zM15.152 4.25c0.163-0.311 0.405-0.443 0.78-0.427 0.418 0.018 0.451 0.046 0.143 0.121-0.22 0.054-0.571 0.246-0.78 0.427-0.362 0.315-0.369 0.309-0.143-0.121zM16.769 3.632c0.132-0.257 0.295-0.413 0.362-0.346s-0.041 0.278-0.24 0.468c-0.346 0.33-0.351 0.325-0.122-0.122zM21.181 6.114c0-0.159-0.090-0.344-0.2-0.412s-0.2 0.062-0.2 0.288c0 0.227 0.090 0.412 0.2 0.412s0.2-0.13 0.2-0.288z"></path>
</svg>
