<!-- Generated by IcoMoon.io -->
<svg version="1.1" xmlns="http://www.w3.org/2000/svg" width="31" height="32" viewBox="0 0 31 32">
<title>cult_of_umordoth</title>
<path d="M19.642 12.565c0.009-0.003 0.018-0.008 0.031-0.012 0.101-0.044 0.201-0.062 0.312-0.080 0.009-0.004 0.018-0.004 0.026-0.004zM23.36 12.535c-0.053-0.044-0.118-0.079-0.175-0.123-0.062-0.048-0.11-0.119-0.172-0.172-0.061-0.053-0.148-0.083-0.224-0.118-0.109-0.057-0.219-0.119-0.334-0.154-0.097-0.026-0.197-0.030-0.298-0.048-0.124-0.021-0.246-0.053-0.369-0.053-0.26 0-0.514-0.065-0.77-0.061-0.224 0-0.452 0.026-0.677 0.035-0.268 0.014-0.517-0.023-0.782 0.026-0.219 0.039-0.382 0.084-0.571 0.203-0.083 0.053-0.171 0.097-0.25 0.154-0.106 0.083-0.193 0.198-0.29 0.294-0.088 0.089-0.193 0.154-0.286 0.233-0.11 0.097-0.203 0.216-0.299 0.322-0.070 0.079-0.162 0.153-0.228 0.241-0.009-0.017-0.014 0.023-0.053 0.057-0.030 0.031-0.065 0.031-0.097 0.053-0.039 0.030-0.004 0.097 0.036 0.132 0.048 0.039 0.136 0.097 0.189 0.128 0.052 0.026 0.079 0.035 0.127 0.083 0.026 0.026 0.083 0.101 0.118 0.118 0.041 0.027 0.066 0.009 0.106 0.018 0.048 0.014 0.101 0.066 0.15 0.088 0.136 0.062 0.277 0.123 0.426 0.106 0.092-0.004 0.206 0.004 0.298-0.031 0.057-0.017 0.092-0.065 0.145-0.092 0.145-0.070 0.343 0.057 0.497 0.057 0.206-0.004 0.408 0.004 0.611 0 0.070-0.004 0.109-0.026 0.171-0.039 0.048-0.004 0.097 0.009 0.141 0 0.079-0.014 0.168-0.053 0.242-0.083 0.097-0.031 0.145-0.066 0.242-0.088 0.083-0.023 0.15-0.031 0.242-0.031 0.21 0 0.422 0 0.637 0 0.154 0 0.382 0.040 0.452-0.123 0.036-0.079 0.071-0.154 0.119-0.228 0.035-0.062 0.092-0.141 0.141-0.189 0.065-0.071 0.158-0.075 0.215-0.159 0.053-0.074 0.080-0.158 0.175-0.185 0.071-0.017 0.137 0.014 0.203 0.004 0.039-0.004 0.071-0.021 0.106-0.044 0.044-0.026 0.224-0.123 0.228-0.18 0.004-0.066-0.097-0.115-0.141-0.15z"></path>
<path d="M17.581 19.711c-0.004-0.145-0.021-0.299-0.101-0.417-0.088-0.132-0.241-0.219-0.377-0.286-0.057-0.026-0.106-0.053-0.168-0.023-0.057 0.027-0.062 0.084-0.106 0.128-0.039 0.039-0.097 0.053-0.141 0.083s-0.074 0.074-0.118 0.097c-0.092 0.048-0.212 0.044-0.308 0.088-0.123 0.053-0.197 0.118-0.342 0.123-0.083 0.004-0.168 0-0.251 0-0.203-0.004-0.466-0.030-0.637-0.162-0.246-0.189-0.502-0.563-0.844-0.523-0.092 0.009-0.216 0.071-0.308 0.048-0.039-0.009-0.053-0.018-0.070-0.053-0.062-0.141 0.136-0.382 0.171-0.514 0.053-0.175 0.119-0.33 0.189-0.492 0.106-0.237 0.224-0.444 0.364-0.664 0.163-0.255 0.272-0.519 0.401-0.795 0.123-0.264 0.233-0.519 0.316-0.8 0.115-0.413 0.185-0.831 0.237-1.257 0.062-0.511 0.141-1.020 0.233-1.526 0.039-0.219 0.048-0.443 0.083-0.668 0.004-0.035 0.004-0.136 0.031-0.158 0.021-0.023 0.061-0.009 0.088-0.027 0.021-0.017 0.012-0.030 0.021-0.053 0.053-0.088 0.053-0.25 0.075-0.347 0.056-0.233 0.118-0.466 0.201-0.694 0.119-0.317 0.212-0.647 0.264-0.984 0.048-0.322 0.141-0.642 0.185-0.963 0.004-0.030 0.044-0.33-0.036-0.33-0.065 0.004-0.021 0.053-0.047 0.080-0.048 0.047-0.119 0.079-0.172 0.132-0.185 0.158-0.325 0.325-0.435 0.54-0.074 0.141-0.127 0.286-0.192 0.426-0.071 0.154-0.172 0.308-0.225 0.466-0.030 0.088-0.026 0.163-0.056 0.255-0.075 0.21-0.198 0.413-0.255 0.628-0.035 0.124-0.018 0.233-0.030 0.361-0.018 0.201-0.075 0.395-0.145 0.588-0.066 0.171-0.141 0.339-0.193 0.514-0.048 0.159-0.057 0.316-0.097 0.47-0.044 0.175-0.123 0.339-0.166 0.51-0.040 0.168-0.062 0.339-0.101 0.505-0.163 0.615-0.382 1.205-0.638 1.789-0.18 0.417-0.347 0.848-0.448 1.297-0.031 0.132-0.031 0.277-0.062 0.408-0.017 0.070-0.044 0.132-0.074 0.198-0.172 0.342-0.387 0.655-0.493 1.028-0.070 0.228-0.092 0.434-0.228 0.641-0.074 0.115-0.162 0.203-0.272 0.286-0.132 0.101-0.272 0.207-0.382 0.334-0.145 0.158-0.171 0.378-0.295 0.544-0.127 0.168-0.303 0.272-0.338 0.501-0.014 0.071 0.003 0.062 0.070 0.066 0.136 0.018 0.272 0.014 0.387-0.053 0.127-0.079 0.224-0.154 0.325-0.268 0.083-0.097 0.189-0.119 0.29-0.189 0.088-0.071 0.175-0.132 0.29-0.163 0.109-0.035 0.175-0.083 0.277-0.136 0.114-0.056 0.245-0.035 0.369-0.035 0.201-0.004 0.399 0.092 0.606 0.123 0.162 0.023 0.307 0.137 0.443 0.233 0.128 0.089 0.339 0.246 0.484 0.255 0.088 0.004 0.115-0.066 0.193-0.092 0.062-0.014 0.141-0.009 0.206-0.026 0.133-0.036 0.242-0.11 0.37-0.163 0.114-0.048 0.219-0.127 0.338-0.159 0.154-0.039 0.308-0.052 0.466-0.052 0.145 0 0.322 0.021 0.462-0.009 0.070-0.014 0.123-0.053 0.189-0.066 0.061-0.014 0.127-0.009 0.192-0.017 0.22-0.045 0.343-0.352 0.339-0.559 0-0.008-0.004-0.017-0.004-0.026z"></path>
<path d="M22.358 3.68c-0.044-0.053-0.097-0.123-0.158-0.048-0.048-0.035-0.083-0.083-0.124-0.127-0.061-0.057-0.127-0.075-0.192-0.124-0.11-0.079-0.172-0.153-0.304-0.193-0.127-0.039-0.255-0.092-0.382-0.141-0.189-0.079-0.413-0.088-0.615-0.074-0.061 0.004-0.127 0.027-0.189 0.023-0.039-0.004-0.070-0.018-0.105-0.031-0.177-0.061-0.348-0.141-0.519-0.201-0.269-0.097-0.528-0.172-0.809-0.177-0.189-0.004-0.374-0.048-0.558-0.065-0.145-0.014-0.295-0.004-0.44-0.004-0.25 0-0.528-0.031-0.773-0.004-0.159 0.018-0.352 0.044-0.497 0.11-0.132 0.061-0.286 0.132-0.426 0.171-0.114 0.030-0.21 0.021-0.321-0.023-0.316-0.118-0.584-0.039-0.901 0.041-0.21 0.052-0.422 0.079-0.641 0.105-0.426 0.048-0.857 0.15-1.279 0.246-0.369 0.083-0.729 0.203-1.103 0.272-0.325 0.057-0.597 0.272-0.922 0.321-0.133 0.018-0.242 0.018-0.361 0.075-0.162 0.070-0.294 0.185-0.448 0.263-0.141 0.071-0.286 0.115-0.413 0.207-0.15 0.106-0.295 0.233-0.431 0.351-0.364 0.317-0.712 0.65-1.055 0.993-0.136 0.141-0.272 0.299-0.457 0.374-0.166 0.071-0.246 0.233-0.334 0.382-0.29 0.501-0.575 1.010-0.945 1.455-0.351 0.431-0.659 0.892-0.883 1.406-0.079 0.175-0.15 0.355-0.201 0.54-0.053 0.181-0.145 0.334-0.202 0.506-0.079 0.228-0.044 0.496-0.075 0.729-0.012 0.145-0.074 0.286-0.079 0.435 0 0.039 0.009 0.079 0.004 0.123-0.013 0.141-0.048 0.286-0.062 0.426-0.026 0.307-0.017 0.611-0.021 0.915-0.004 0.417-0.027 0.835-0.035 1.252-0.004 0.321-0.013 0.637-0.053 0.953-0.071 0.633-0.141 1.266-0.132 1.899 0.008 0.36 0.070 0.721 0.109 1.077s0.097 0.699 0.176 1.046c0.163 0.708 0.409 1.406 0.642 2.096 0.206 0.629 0.386 1.275 0.602 1.898 0.145 0.419 0.312 0.809 0.487 1.209 0.066 0.15 0.154 0.281 0.234 0.422 0.070 0.132 0.132 0.29 0.236 0.404 0.097 0.106 0.198 0.193 0.286 0.312 0.080 0.11 0.163 0.212 0.246 0.317 0.171 0.201 0.387 0.395 0.537 0.619 0.074 0.115 0.141 0.203 0.25 0.29 0.11 0.088 0.203 0.18 0.299 0.277 0.132 0.136 0.312 0.198 0.448 0.322 0.22 0.201 0.453 0.408 0.703 0.563 0.084 0.052 0.159 0.114 0.251 0.141 0.101 0.030 0.207 0.030 0.299 0.092-0.053-0.11-0.136-0.203-0.203-0.304-0.115-0.185-0.203-0.392-0.29-0.588-0.114-0.26-0.185-0.532-0.242-0.809-0.065-0.325-0.035-0.677-0.035-1.007 0.004-0.303 0.079-0.602 0.15-0.892 0.088-0.364 0.215-0.729 0.395-1.059 0.137-0.251 0.281-0.493 0.392-0.76 0.088-0.21 0.159-0.426 0.272-0.624 0.172-0.303 0.308-0.619 0.484-0.918 0.159-0.272 0.29-0.553 0.452-0.818 0.080-0.123 0.203-0.233 0.304-0.337 0.088-0.092 0.158-0.193 0.237-0.286 0.009 0 0.014 0.004 0.017 0.009 0.014-0.009 0.027-0.023 0.040-0.036 0.461-0.478 0.852-1.050 1.195-1.621 0.097-0.166 0.18-0.334 0.251-0.519 0.048-0.123 0.132-0.277 0.171-0.408 0.018-0.062 0.014-0.119 0.039-0.18 0.027-0.080 0.035-0.137 0.035-0.22-0.003-0.057 0.023-0.162-0.026-0.206-0.074-0.071-0.092 0.021-0.123 0.079-0.031 0.053-0.066 0.088-0.101 0.132-0.048 0.062-0.062 0.141-0.092 0.212-0.044 0.105-0.097 0.206-0.163 0.298-0.057 0.080-0.097 0.15-0.175 0.203-0.088 0.057-0.127 0.132-0.189 0.219-0.118 0.163-0.251 0.317-0.369 0.479-0.369 0.505-0.73 1.059-1.266 1.393-0.272 0.172-0.571 0.295-0.835 0.475-0.080 0.053-0.145 0.119-0.22 0.172-0.197 0.144-0.457 0.215-0.685 0.268-0.154 0.035-0.259 0.065-0.399 0.136-0.163 0.083-0.322 0.171-0.488 0.251-0.18 0.088-0.352 0.197-0.51 0.316-0.071 0.053-0.097 0.097-0.145 0.158-0.039 0.041-0.101 0.057-0.145 0.097-0.079 0.062-0.166 0.137-0.242 0.207-0.057 0.053-0.088 0.123-0.141 0.18-0.030 0.035-0.065 0.066-0.114 0.066-0.22 0.009-0.33-0.405-0.414-0.55-0.074-0.144-0.18-0.268-0.259-0.408-0.123-0.219-0.224-0.479-0.29-0.725-0.070-0.264-0.070-0.546-0.127-0.809-0.132-0.62-0.321-1.222-0.404-1.851-0.045-0.307-0.048-0.606-0.048-0.918-0.004-0.307-0.036-0.62-0.040-0.931-0.008-0.567 0.044-1.12 0.101-1.688 0.057-0.602 0.053-1.204 0.193-1.802 0.062-0.263 0.119-0.531 0.185-0.795 0.083-0.355 0.198-0.685 0.339-1.024 0.159-0.387 0.207-0.853 0.448-1.199 0.075-0.11 0.172-0.189 0.255-0.29 0.053-0.066 0.101-0.141 0.141-0.219 0.193-0.366 0.396-0.717 0.646-1.046 0.237-0.304 0.47-0.615 0.717-0.915 0.339-0.413 0.768-0.729 1.199-1.036 0.972-0.7 1.987-1.376 3.121-1.793 0.364-0.136 0.703-0.299 1.094-0.357 0.357-0.048 0.699-0.088 1.060-0.088 0.435 0.004 0.87 0.004 1.3 0 0.263-0.004 0.523 0.031 0.777 0.071 0.23 0.035 0.458 0.097 0.691 0.092 0.145-0.004 0.277-0.048 0.417-0.075 0.092-0.017 0.185-0.026 0.281-0.026 0.171 0 0.334 0.035 0.501 0.074 0.251 0.053 0.51 0.080 0.742 0.189 0.115 0.048 0.225 0.119 0.339 0.177 0.088 0.044 0.444 0.192 0.215 0.298 0.004 0 0.014 0 0.023 0.004-0.053 0.018-0.127 0.030-0.166 0.039 0.035-0.009 0.092-0.021 0.141-0.044-0.071 0.004-0.11 0.004-0.181 0.053-0.171 0.115-0.333 0.237-0.514 0.343-0.614 0.378-1.151 0.83-1.656 1.34-0.224 0.228-0.479 0.422-0.708 0.646-0.216 0.212-0.378 0.479-0.541 0.735-0.127 0.201-0.219 0.439-0.369 0.628-0.026 0.036-0.053 0.062-0.092 0.084-0.088 0.052-0.154 0.083-0.215 0.166-0.168 0.21-0.308 0.452-0.461 0.677-0.216 0.321-0.523 0.65-0.647 1.028-0.105 0.321-0.215 0.623-0.289 0.957-0.036 0.15-0.075 0.299-0.115 0.452-0.026 0.11-0.021 0.237-0.062 0.343 0.097 0.048 0.225-0.189 0.273-0.246 0.245-0.312 0.461-0.65 0.711-0.962 0.11-0.136 0.207-0.277 0.33-0.401 0.101-0.096 0.172-0.18 0.212-0.316 0.097 0.009 0.127-0.088 0.189-0.136 0.39-0.307 0.69-0.729 1.059-1.068 1.24-1.138 2.514-2.237 3.688-3.446 0.21-0.215 0.448-0.443 0.694-0.628 0.065-0.053 0.219-0.119 0.263-0.198 0.057-0.092-0.018-0.136-0.065-0.215-0.045-0.088-0.057-0.172-0.119-0.251-0.044-0.057-0.11-0.092-0.159-0.141z"></path>
<path d="M25.082 18.213c0.044-0.088 0.101-0.166 0.132-0.26 0.031-0.092 0.041-0.188 0.062-0.281 0.083-0.328 0.189-0.65 0.26-0.984-0.009 0.281 0 0.559 0 0.836v0.197c0 0.075 0.017 0.128 0.030 0.189 0.035 0.216 0.009 0.458 0.009 0.677 0 0.272-0.009 0.563-0.062 0.83-0.039 0.212-0.065 0.405-0.132 0.606-0.030 0.092-0.035 0.185-0.057 0.277-0.035 0.133-0.114 0.246-0.154 0.378-0.048 0.159-0.065 0.322-0.109 0.479-0.044 0.159-0.115 0.334-0.185 0.479-0.053 0.11-0.124 0.18-0.212 0.259-0.25 0.216-0.387 0.532-0.641 0.752-0.281 0.246-0.396 0.615-0.677 0.857-0.245 0.215-0.514 0.408-0.777 0.606-0.132 0.101-0.263 0.203-0.387 0.308-0.136 0.114-0.254 0.25-0.399 0.351-0.334 0.237-0.747 0.449-0.968 0.818-0.083 0.145-0.201 0.277-0.303 0.413-0.136 0.185-0.264 0.378-0.408 0.563-0.101 0.123-0.212 0.242-0.313 0.364-0.101 0.136-0.166 0.281-0.254 0.426-0.057 0.088-0.133 0.141-0.212 0.21-0.11 0.097-0.203 0.23-0.272 0.361-0.171 0.294-0.348 0.54-0.646 0.708-0.145 0.083-0.29 0.153-0.417 0.259-0.124 0.101-0.269 0.237-0.426 0.286-0.062 0.018-0.128 0.009-0.189 0.009-0.154 0.004-0.299 0.057-0.449 0.083-0.171 0.030-0.337 0.048-0.51 0.092-0.417 0.11-0.795 0.212-1.208 0.066-0.175-0.062-0.339-0.066-0.514-0.036-0.228 0.041-0.449 0.023-0.677 0.018-0.25-0.009-0.558-0.039-0.795-0.118-0.145-0.053-0.281-0.141-0.413-0.22-0.053-0.026-0.175-0.079-0.198-0.141 0.325-0.070 0.668-0.118 1.002-0.158 0.51-0.062 1.019-0.163 1.529-0.172 0.361-0.004 0.668-0.193 0.989-0.33 0.286-0.118 0.514-0.325 0.786-0.466 0.326-0.166 0.611-0.298 0.889-0.54 0.123-0.11 0.236-0.237 0.364-0.348 0.070-0.057 0.141-0.114 0.206-0.175 0.048-0.048 0.057-0.057 0.031-0.026 0.36-0.382 0.708-0.792 1.086-1.157 0.109-0.106 0.245-0.162 0.355-0.263 0.123-0.115 0.189-0.277 0.295-0.408 0.171-0.216 0.351-0.426 0.514-0.651 0.15-0.197 0.298-0.39 0.483-0.553 0.29-0.254 0.519-0.553 0.744-0.865 0.254-0.348 0.526-0.668 0.817-0.989 0.216-0.233 0.475-0.444 0.659-0.694 0.123-0.168 0.255-0.317 0.401-0.466 0.21-0.216 0.413-0.444 0.606-0.682 0.127-0.154 0.281-0.312 0.337-0.505 0.057-0.18 0.066-0.369 0.128-0.553 0.074-0.228 0.145-0.475 0.241-0.695 0.004-0.008 0.004-0.012 0.009-0.021z"></path>
<path d="M18.064 24.181c-0.035-0.023-0.070-0.041-0.11-0.053-0.097-0.035-0.175-0.075-0.263-0.124-0.083-0.039-0.193-0.048-0.281-0.074-0.053-0.014-0.11-0.018-0.166-0.039-0.048-0.018-0.089-0.053-0.137-0.079-0.127-0.057-0.254-0.066-0.364-0.163-0.039-0.035-0.074-0.079-0.127-0.097-0.057-0.026-0.136-0.014-0.198-0.009-0.057 0-0.101 0.009-0.154 0.023-0.070 0.017-0.148 0.009-0.228 0.012-0.123 0.004-0.25 0.018-0.378 0.045-0.185 0.039-0.325 0.192-0.51 0.215-0.097 0.009-0.175-0.062-0.263-0.088-0.141-0.044-0.29-0.048-0.431-0.092-0.193-0.062-0.426-0.101-0.624-0.053-0.185 0.048-0.369 0.009-0.549-0.027-0.175-0.035-0.347-0.047-0.528-0.047-0.136-0.004-0.241 0.047-0.374 0.079-0.097 0.021-0.136 0.070-0.219 0.123-0.066 0.044-0.141 0.057-0.215 0.080-0.177 0.044-0.401 0.144-0.514 0.294-0.071 0.092-0.168 0.233-0.189 0.352-0.057 0.286 0.245 0.219 0.426 0.259 0.245 0.057 0.514 0.132 0.773 0.145 0.203 0.009 0.382-0.004 0.585 0.027 0.079 0.012 0.158 0.003 0.236 0.008 0.089 0.004 0.177 0.036 0.264 0.053 0.132 0.027 0.246 0.023 0.382 0.027 0.109 0.004 0.215 0.039 0.321 0.044 0.224 0.012 0.452 0 0.676 0 0.212 0 0.44 0.021 0.647-0.018 0.241-0.048 0.461-0.11 0.69-0.185 0.224-0.074 0.443-0.127 0.681-0.123 0.168 0.004 0.325 0.044 0.497 0.044 0.408-0.004 0.821-0.044 1.217-0.128-0.053-0.088-0.175-0.144-0.26-0.197-0.114-0.066-0.201-0.163-0.312-0.233z"></path>
</svg>
