<!-- Generated by IcoMoon.io -->
<svg version="1.1" xmlns="http://www.w3.org/2000/svg" width="33" height="32" viewBox="0 0 33 32">
<title>cult_of_pnakotus</title>
<path d="M13.68 29.658c-0.326-0.19-0.952-0.927-1.391-1.638l-0.798-1.292 1.834-1.704c1.009-0.937 1.834-1.859 1.834-2.048s-0.478-0.685-1.063-1.101c-0.585-0.416-1.063-1.050-1.063-1.408s0.558-1.638 1.24-2.845c1.369-2.422 1.434-2.781 0.815-4.493-0.504-1.393-0.845-1.444-2.446-0.367-1.164 0.783-1.208 0.896-1.309 3.399-0.058 1.424-0.262 2.774-0.455 3s-0.571 0.729-0.841 1.119c-0.946 1.366-1.128 0.218-0.703-4.429l0.243-2.658 1.927-1.329c1.060-0.731 2.058-1.329 2.218-1.329s0.378-0.439 0.485-0.975c0.139-0.696-0.072-1.364-0.738-2.336-1.103-1.611-1.215-3.429-0.275-4.468 0.861-0.951 1.46-0.916 2.738 0.16 0.579 0.487 1.3 0.886 1.602 0.886 0.414 0 0.499 0.248 0.346 1.012-0.121 0.606-0.001 1.299 0.299 1.727 0.443 0.633 0.423 0.786-0.172 1.325-0.37 0.335-0.589 0.83-0.485 1.1s1.295 1.311 2.647 2.314c1.352 1.003 2.717 2.321 3.032 2.93s1.106 1.883 1.758 2.831c1.134 1.648 1.538 3.062 0.875 3.062-0.171 0-0.509-0.239-0.752-0.532s-0.643-0.532-0.89-0.532c-0.247 0-1.103-1.236-1.903-2.746-1.506-2.843-2.425-4.222-2.639-3.961-0.297 0.363-1.037 6.381-0.812 6.606 0.137 0.137 0.881 0.204 1.652 0.148 1.398-0.101 1.402-0.097 1.402 1.204 0 0.718-0.266 2.406-0.59 3.751-0.46 1.905-0.506 2.719-0.21 3.683 0.462 1.505 0.050 1.879-1.18 1.073-1.563-1.024-1.793-2.082-0.877-4.039 0.442-0.944 0.746-2.016 0.675-2.384-0.175-0.908-1.361-1.12-1.361-0.243 0 0.364-0.893 1.612-1.985 2.772-1.928 2.049-1.973 2.143-1.572 3.259 0.585 1.631 0.143 2.227-1.111 1.495zM14.493 6.752c-0.309-0.531-0.378-0.546-0.387-0.086-0.012 0.597 0.361 1.134 0.612 0.883 0.083-0.083-0.019-0.442-0.226-0.797zM23.387 29.787c-0.345-0.138-0.401-0.961-0.237-3.427 0.119-1.785 0.294-3.484 0.388-3.776 0.288-0.891 0.873 0.518 1.228 2.962 0.174 1.197 0.414 2.695 0.533 3.328 0.195 1.040 0.135 1.149-0.621 1.124-0.461-0.015-1.041-0.11-1.291-0.21zM7.766 29.354c-0.367-0.233-0.418-0.759-0.212-2.209 0.149-1.047 0.239-2.568 0.202-3.38s0.090-1.574 0.283-1.693c0.499-0.308 1.095 0.964 1.099 2.349 0.003 0.646 0.239 1.951 0.527 2.899s0.436 1.865 0.33 2.038c-0.246 0.398-1.598 0.396-2.229-0.003zM8.558 12.73c-0.208-0.136-0.482-1.021-0.608-1.967-0.173-1.29-0.082-1.971 0.363-2.723 0.479-0.811 0.508-1.105 0.15-1.536-0.296-0.357-0.364-1.055-0.205-2.112 0.198-1.317 0.128-1.643-0.418-1.96-0.553-0.321-0.565-0.382-0.078-0.391 0.842-0.016 1.263 0.67 1.519 2.47 0.241 1.699 0.248 2.052 0.116 5.729-0.090 2.492-0.224 2.891-0.838 2.491zM22.965 12.157c-0.239-0.629-0.222-1.194 0.055-1.801 0.302-0.664 0.3-1.11-0.008-1.787-0.515-1.129-0.531-2.525-0.033-2.833 0.208-0.128 0.327-0.801 0.266-1.493-0.069-0.779 0.057-1.318 0.331-1.412s0.365 0.051 0.238 0.382c-0.113 0.293-0.017 0.885 0.213 1.314 0.326 0.608 0.317 0.969-0.039 1.635-0.343 0.641-0.364 1.138-0.082 1.993 0.485 1.47 0.371 4.596-0.173 4.778-0.23 0.077-0.576-0.273-0.767-0.776zM25.176 3.093c-0.414-0.999-0.273-1.383 0.298-0.811 0.21 0.21 0.311 0.678 0.225 1.039-0.135 0.57-0.206 0.539-0.523-0.228zM6.546 2.954c-0.145-0.369-0.18-0.754-0.078-0.856 0.323-0.323 0.608 0.206 0.472 0.879-0.124 0.617-0.143 0.616-0.394-0.023z"></path>
</svg>
