<!-- Generated by IcoMoon.io -->
<svg version="1.1" xmlns="http://www.w3.org/2000/svg" width="32" height="32" viewBox="0 0 32 32">
<title>cult_of_darkness</title>
<path d="M15.878 31.589c0-0.226 0.171-1.808 0.379-3.515 0.235-1.922 0.294-3.19 0.155-3.329-0.377-0.377-1.515 0.062-1.748 0.674-0.119 0.313-0.274 1.608-0.343 2.878-0.132 2.4-0.266 2.939-0.639 2.566-0.13-0.13-0.070-0.987 0.147-2.125 0.473-2.471 0.481-3.951 0.021-3.951-0.189 0-0.391 0.243-0.448 0.541-0.086 0.444-0.11 0.417-0.137-0.15-0.028-0.59-0.086-0.646-0.399-0.387-0.303 0.252-0.342 0.241-0.225-0.064 0.094-0.245-0.299-0.747-1.18-1.508-0.763-0.658-1.626-1.711-2.043-2.491-0.764-1.43-2.314-3.117-2.6-2.831-0.094 0.094-0.215 1.114-0.269 2.268s-0.192 2.53-0.306 3.059c-0.134 0.618-0.162-0.255-0.080-2.44 0.092-2.455 0.050-3.45-0.152-3.576-0.154-0.095-0.437-0.548-0.629-1.007-0.366-0.877-0.144-1.512 0.528-1.512 0.518 0 1.792 1.212 1.792 1.704 0 0.253 0.096 0.459 0.214 0.459 0.214 0 0.589 1.015 0.615 1.663 0.020 0.495 0.587 0.608 0.761 0.153 0.13-0.339 0.183-0.343 0.421-0.032 0.15 0.195 0.596 0.388 0.992 0.428 0.555 0.056 0.774-0.051 0.959-0.468 0.142-0.321 0.451-0.541 0.761-0.541 0.403 0 0.493-0.109 0.396-0.48-0.168-0.643 0.542-1.683 1.149-1.683 0.268 0 0.761 0.298 1.096 0.661s0.54 0.526 0.455 0.361c-0.236-0.462 0.23-0.356 0.694 0.156 0.249 0.275 0.318 0.516 0.174 0.605-0.132 0.081-0.305 0.043-0.384-0.086s-0.307-0.172-0.505-0.096c-0.307 0.118-0.299 0.183 0.058 0.444 0.23 0.168 0.54 0.258 0.69 0.201s0.401 0.051 0.559 0.242c0.226 0.272 0.208 0.425-0.084 0.717-0.3 0.3-0.318 0.486-0.093 0.98 0.349 0.766 0.774 0.545 0.586-0.304l-0.14-0.635 0.373 0.668c0.205 0.368 0.474 0.606 0.597 0.53 0.132-0.082 0.106-0.328-0.065-0.601-0.247-0.395-0.185-0.563 0.426-1.157 0.521-0.507 0.845-0.649 1.195-0.524 0.37 0.131 0.578 0.012 0.902-0.52 0.529-0.869 0.526-0.92-0.056-0.92-0.324 0-0.523-0.211-0.621-0.661-0.25-1.143-0.337-1.305-0.646-1.203-0.165 0.054-0.335 0.334-0.377 0.621-0.095 0.649-0.394 0.659-1.18 0.041-0.336-0.264-0.786-0.478-1-0.474-0.306 0.006-0.286 0.065 0.093 0.28 0.465 0.263 0.83 0.664 0.838 0.917 0.002 0.067-0.227 0.267-0.51 0.443-0.458 0.286-0.576 0.253-1.092-0.303-0.318-0.343-0.764-0.623-0.992-0.623s-0.721-0.285-1.096-0.633c-0.562-0.521-0.656-0.764-0.534-1.375 0.213-1.065 0.381-1.15 1.914-0.97 1.017 0.12 1.343 0.247 1.251 0.488-0.073 0.189 0.034 0.326 0.254 0.326 0.238 0 0.327-0.134 0.24-0.361-0.19-0.495 1.359-0.495 1.77 0 0.165 0.198 0.494 0.361 0.732 0.361s0.76 0.275 1.159 0.611c0.723 0.608 0.727 0.609 0.993 0.113 0.147-0.274 0.396-0.482 0.555-0.462 0.645 0.081 0.889-0.043 0.889-0.451 0-0.236 0.216-0.854 0.481-1.373s0.481-1.083 0.481-1.253c0-0.17 0.108-0.31 0.24-0.31s0.24-0.33 0.24-0.733c0-1.133 0.645-2.197 1.276-2.107 0.479 0.068 0.533 0.233 0.598 1.82 0.039 0.96-0.031 1.928-0.156 2.151-0.156 0.278-0.189 0.033-0.106-0.784 0.11-1.088 0.091-1.148-0.231-0.708-0.193 0.264-0.494 0.88-0.668 1.367-0.206 0.576-0.509 0.934-0.866 1.024-0.352 0.088-0.502 0.262-0.417 0.484 0.073 0.19-0.093 0.588-0.369 0.884s-0.518 0.708-0.538 0.914c-0.020 0.207-0.062 0.484-0.092 0.616s-0.079 0.349-0.108 0.481c-0.029 0.132-0.032 0.607-0.007 1.055 0.042 0.743-0.004 0.802-0.517 0.673-0.508-0.128-0.522-0.112-0.142 0.173 0.54 0.405 0.569 2.687 0.064 5.070-0.196 0.926-0.36 2.332-0.364 3.125s-0.109 1.602-0.232 1.796c-0.408 0.644-0.584-0.423-0.285-1.72 0.152-0.657 0.276-1.403 0.276-1.658 0-0.451-0.011-0.452-0.449-0.014-0.247 0.247-0.95 0.524-1.563 0.616l-1.114 0.167v2.517c0 2.047-0.069 2.544-0.371 2.66-0.204 0.078-0.427 0.087-0.495 0.019s0.045-1.261 0.252-2.652c0.385-2.595 0.319-3.417-0.259-3.195-0.228 0.087-0.33-0.069-0.33-0.507 0-2.217-0.651 3.202-0.778 6.478-0.043 1.104-0.159 1.622-0.364 1.623-0.165 0-0.301-0.184-0.301-0.411zM12.374 11.024c0.093-0.959 0.208-2.068 0.256-2.464s0.154-1.316 0.236-2.044 0.265-1.62 0.407-1.983c0.26-0.664 0.765-0.868 1.041-0.421 0.082 0.132-0.020 0.24-0.226 0.24s-0.375 0.108-0.375 0.24c0 0.132 0.162 0.24 0.361 0.24 0.239 0 0.361 0.239 0.361 0.705 0 0.539-0.127 0.729-0.541 0.809l-0.541 0.104 0.541 0.033c0.474 0.029 0.541 0.163 0.541 1.096 0 0.985-0.053 1.074-0.721 1.221-1.038 0.228-0.937 0.77 0.12 0.647 0.717-0.084 0.841-0.026 0.841 0.389 0 0.268 0.064 0.654 0.142 0.857 0.139 0.362-0.858 1.593-1.291 1.593-0.115 0-0.323-0.406-0.461-0.902l-0.252-0.902-0.030 1.142c-0.018 0.676-0.142 1.142-0.304 1.142-0.195 0-0.225-0.502-0.105-1.743zM20.497 11.745c-0.387-0.468-0.071-1.623 0.444-1.623 0.657 0 0.77 0.384 0.35 1.195-0.427 0.826-0.453 0.84-0.794 0.428zM16.772 10.373c-0.174-0.666 0.152-1.819 0.505-1.789 0.156 0.013 0.506 0.040 0.778 0.060 0.429 0.031 0.485 0.172 0.421 1.058-0.069 0.949-0.127 1.027-0.824 1.095-0.59 0.057-0.778-0.033-0.88-0.424zM21.167 8.479c0-0.397-0.062-0.883-0.138-1.080-0.088-0.229 0.051-0.418 0.385-0.524 0.792-0.251 1.012 0.151 0.662 1.205-0.388 1.165-0.909 1.394-0.909 0.4zM17.233 7.072c0.196-1.403 0.266-1.517 0.934-1.517 0.592 0 0.618 0.055 0.549 1.142-0.070 1.091-0.108 1.145-0.842 1.216-0.762 0.074-0.767 0.066-0.641-0.841zM21.337 6.366c-0.258-0.258-0.204-1.982 0.078-2.51 0.302-0.564 1.152-0.613 1.357-0.079 0.081 0.212 0.051 0.889-0.068 1.503-0.165 0.853-0.332 1.133-0.707 1.187-0.27 0.039-0.567-0.007-0.661-0.1zM17.569 4.609c-0.377-0.705-0.299-1.583 0.195-2.193 0.862-1.065 1.707 0.051 1.375 1.818-0.128 0.685-0.265 0.84-0.739 0.84-0.329 0-0.69-0.202-0.831-0.465z"></path>
</svg>
