<!-- Generated by IcoMoon.io -->
<svg version="1.1" xmlns="http://www.w3.org/2000/svg" width="31" height="32" viewBox="0 0 31 32">
<title>curse1</title>
<path d="M26.21 15.992q0.672 1.408 0.576 3.488-0.032 0.896-0.224 2.016t-0.64 2.48-1.184 2.976-1.856 3.472q0.576-2.912 0.768-5.28 0.096-0.992 0.112-2t-0.080-1.824-0.336-1.376-0.656-0.72h-1.312q-1.184 0-2.768 0.496t-3.024 1.072q-1.696 0.672-3.488 1.536 1.792-1.76 3.968-3.168 0.928-0.576 2.016-1.152t2.32-1.024 2.576-0.72 2.784-0.272h0.448zM11.81 27.032q0.096-0.64 0.208-1.072t0.256-0.72 0.32-0.48 0.368-0.384q1.184-1.216 2.544-1.936t2.544-1.104q1.376-0.448 2.72-0.608-1.856 0.672-2.944 1.488t-1.68 1.664-0.784 1.696-0.256 1.552q0 0.576 0.224 1.248t0.48 1.216q0.32 0.64 0.704 1.28-0.16 0.032-0.4 0.048t-0.464 0.048q-0.256 0.032-0.544 0.032-1.088 0-1.792-0.096-0.416-0.032-0.8-0.096-1.344-0.352-2.352-1.072t-1.776-1.712-1.344-2.16-1.056-2.416q-0.48-0.96-0.752-2.128t-0.432-2.192q-0.16-1.184-0.256-2.368 0.864 3.104 1.904 5.072t2.032 3.104 1.872 1.584 1.456 0.512zM12.386 19.224q-0.672-2.4-0.848-4.56t0.528-4.272q0.256-1.024 0.8-2.016t1.472-1.952q0.352-0.448 0.624-0.672t0.656-0.512q0.224-0.16 0.448-0.288t0.448-0.288q0.224-0.128 0.592-0.304t0.624-0.24q-0.096 0.032-0.288 0.144t-0.256 0.176q-0.064 0.096-0.192 0.176t-0.224 0.144q-0.448 0.352-0.832 0.736-0.64 0.736-0.88 1.44t-0.528 1.504q-0.288 0.96-0.4 1.76t0.016 1.728q0.096 0.768 0.256 1.552t0.576 1.456q0.224 0.48 0.656 0.624t0.944 0.272q1.056 0.096 1.872 0.096t1.872-0.256q-1.28 0.32-2.592 0.896-1.12 0.48-2.464 1.28t-2.56 1.952l-0.032-0.096t-0.096-0.192l-0.128-0.192z"></path>
</svg>
