<!-- Generated by IcoMoon.io -->
<svg version="1.1" xmlns="http://www.w3.org/2000/svg" width="32" height="32" viewBox="0 0 32 32">
<title>dancing_mad</title>
<path d="M15.086 28.298c-0.028-0.028-0.053-0.053-0.077-0.078-0.46 0.003-0.923-0.045-1.378-0.066-0.578-0.027-1.14-0.001-1.694-0.164-0.432-0.126-0.807-0.343-1.239-0.46-0.467-0.127-0.912-0.344-1.345-0.54-0.215-0.097-0.289-0.186-0.459-0.333-0.162-0.141-0.284 0.124-0.284 0.124l-0.506 0.215c0.117 0.060 0.234 0.12 0.351 0.187 0.357 0.2 0.723 0.382 1.077 0.576 0.215 0.117 0.289 0.215 0.533 0.266 0.262 0.055 0.541 0.028 0.806 0.080 0.32 0.062 0.618 0.171 0.922 0.283 0.604 0.221 1.322 0.238 1.964 0.322 0.449 0.057 0.861-0.088 1.308-0.088 0.144 0 0.278 0.003 0.411 0.008-0.13-0.103-0.262-0.208-0.389-0.333z"></path>
<path d="M27.202 27.645c-0.441 0-0.882 0.011-1.322-0.008-1.506-0.069-3.001 0.343-4.492 0.427-0.585 0.032-1.225-0.067-1.804-0.15-0.312-0.045-0.589-0.187-0.905-0.208-0.084-0.006-0.168-0.006-0.253-0.003 0.056 0.089 0.11 0.172 0.169 0.234 0.028 0.029 0.069 0.060 0.116 0.098 0.116 0.091 0.276 0.217 0.386 0.425l0.018 0.035c0.064 0 0.13 0 0.194 0 0.996 0 1.989 0.029 2.982 0.052 0.792 0.020 1.558-0.276 2.35-0.235 0.896 0.045 1.794-0.052 2.696-0.074z"></path>
<path d="M29.204 26.603c-0.102-0.027-0.218-0.027-0.323-0.045-0.062 0.064-0.129 0.131-0.2 0.201-0.066 0.064-0.134 0.133-0.203 0.203 0.207 0.147 0.345 0.327 0.543 0.537-0.392 0.19-0.645 0.186-1.020 0.166l-0.222 0.565c0.699-0.006 2.986-0.089 2.201-1.145-0.175-0.235-0.477-0.406-0.776-0.483z"></path>
<path d="M29.558 22.677c-0.021 0.063-0.043 0.124-0.071 0.185-0.296 0.634-0.845 1.089-1.544 1.284-0.224 0.063-0.424 0.126-0.607 0.189 0.032 0.010 0.064 0.020 0.098 0.029 0.218 0.062 0.463 0.136 0.716 0.27 0.155-0.239 1.060-0.217 1.277-0.256 0.508-0.088 0.832-0.357 0.727-0.857-0.080-0.379-0.313-0.625-0.596-0.843z"></path>
<path d="M12.527 21.317c0.137 0.124 0.274 0.277 0.354 0.474 0.331-0.067 0.663-0.14 1.006-0.19 0.091-0.013 0.183-0.021 0.274-0.032 0.046-0.117 0.089-0.235 0.129-0.345l-0.484-0.155c-0.429 0.11-0.831 0.207-1.278 0.249z"></path>
<path d="M18.711 20.416c-0.779-0.015-1.613 0.059-2.387 0.147-0.042 0.006-0.082 0.013-0.123 0.017 0.089 0.103 0.168 0.197 0.214 0.262 0.021 0.031 0.055 0.070 0.091 0.11 0.102 0.117 0.232 0.277 0.303 0.488 0.157-0.014 0.313-0.031 0.47-0.055 0.366-0.056 0.698-0.207 1.077-0.214 0.256-0.003 0.503 0.048 0.758 0.060 0.348 0.017 0.685-0.032 1.025-0.060l0.070-0.082c0.178-0.208 0.401-0.343 0.622-0.45-0.708-0.057-1.403-0.208-2.12-0.222z"></path>
<path d="M11.153 25.291l0.62 0.312c0 0 0.4 0.276 0.622 0.385 0.33 0.161 0.545 0.291 0.913 0.243-0.066 0.214-0.399 0.434-0.569 0.594-0.082 0.077-0.396 0.495-0.481 0.494-0.056-0.001-0.271-0.337-0.375-0.392-0.166-0.085-0.352-0.159-0.522-0.243-0.248-0.122-0.513-0.227-0.75-0.359 0.073-0.124 0.102-0.323 0.204-0.431 0.098-0.103 0.365-0.187 0.365-0.187s0.004-0.259-0.025-0.435c0.034-0.028-0.003 0.020-0.003 0.020z"></path>
<path d="M26.91 25.269c0.414 0.611 0.551 1.355 0.712 2.055 0.159-0.406 0.645-0.813 0.947-1.131 0.171-0.18 0.587-0.427 0.673-0.64-0.397-0.18-0.827-0.207-1.227-0.448-0.387-0.232-0.761-0.263-1.161-0.424 0.092 0.338 0.062 0.712 0.056 0.589z"></path>
<path d="M7.872 26.577c0 0-0.318-0.439-0.466-0.604-0.11-0.122-0.259-0.387-0.259-0.387l-0.204 0.389c0 0-0.613 0.91-0.674 1.317 0.53-0.257 1.603-0.715 1.603-0.715z"></path>
<path d="M14.405 26.737c0.785-0.246 1.684-0.362 2.439-0.538 0.063 0.229 0.266 0.375 0.392 0.579 0.169 0.274 0.341 0.524 0.533 0.782 0.168 0.227 0.284 0.503 0.48 0.708 0.141 0.147 0.326 0.228 0.424 0.415-0.337 0.101-0.564 0.513-0.838 0.737-0.217 0.178-0.459 0.387-0.652 0.583-0.089-0.164-0.215-0.274-0.331-0.418-0.2-0.246-0.291-0.579-0.498-0.815-0.271-0.313-0.636-0.524-0.931-0.814-0.183-0.179-0.255-0.308-0.484-0.422-0.129-0.064-0.243-0.112-0.357-0.208-0.178-0.15-0.299-0.386-0.48-0.508 0.148-0.018 0.319-0.116 0.448-0.046 0.048-0.022 0.115-0.049-0.144-0.034z"></path>
<path d="M11.836 24.424c-0.547-0.64-1.341-2.208-1.341-2.208l0.515-0.179 0.309 0.004 0.208-0.143 0.14 0.071 0.329-0.060c0 0 0.306 0.064 0.45 0.077-0.076-0.215-0.343-0.389-0.496-0.545-0.453-0.462-0.792-1.013-1.215-1.492 0.365-0.052 0.74 0.106 1.080 0.222 0.35 0.117 0.688 0.082 1.049 0.141 0.324 0.053 1.049 0.285 1.049 0.285s-0.354-0.362-0.515-0.51c-0.229-0.213-0.45-0.438-0.666-0.663-0.089-0.092-0.193-0.175-0.274-0.273-0.055-0.066-0.12-0.26-0.169-0.298 0.028 0.022 0.066 0.041 0.097 0.067-0.087-0.182-0.259-0.39 0.062-0.313 0.41 0.098 1.278 0.401 1.278 0.401s-0.62-0.986-1.067-1.389c-0.161-0.143-0.65-0.629-0.65-0.629l0.284 0.059 0.243-0.014c0 0 0.316 0.028 0.489 0.076 0.218 0.060 0.481 0.127 0.681 0.21 0.278 0.113 0.806 0.369 0.806 0.369l0.548 0.011c0 0 0.178 0.101 0.284 0.136 0.154 0.053 0.42-0.014 0.789-0.036 0.007 0.003 0.013 0.010 0.014 0.017-0.224-0.64-0.492-1.253-0.787-1.856-0.201-0.131-0.429-0.283-0.663-0.42-0.469-0.275-0.945-0.517-1.453-0.705-0.386-0.143-0.793-0.271-1.113-0.529-0.266-0.213-0.55-0.376-0.852-0.53-0.228-0.116-0.456-0.165-0.694-0.248-0.203-0.071-0.352-0.234-0.593-0.201-0.35 0.043-0.681 0.176-0.996 0.425-0.206 0.162-0.454 0.364-0.643 0.54-0.243 0.227-0.572 0.842-0.875 0.92-0.993 0.253-1.143 0.236-1.948-0.285-0.481-0.31-1.108-0.454-1.624-0.706-0.106-0.052-0.228-0.043-0.324-0.112-0.083-0.059-0.2-0.147-0.232-0.248-0.027-0.080-0.008-0.182-0.070-0.255-0.298-0.348-0.684 0.424-0.799 0.617-0.186 0.315-0.333 0.65-0.508 0.971-0.116 0.211-0.417 0.772-0.092 0.952 0.094 0.053 0.15-0.008 0.235-0.025 0.048-0.010 0.098-0.004 0.15 0.010 0.197 0.056 0.41 0.25 0.568 0.322 0.516 0.234 1.010 0.515 1.501 0.796 0.436 0.249 0.41 0.131 0.821 0.408 0.080 0.053 0.152 0.099 0.218 0.171 0.077 0.084 0.138 0.185 0.207 0.276 0.165 0.221 0.144 0.659 0.165 0.979-0.024 0.015-0.039 0.007-0.063 0.024-0.024 0.175-0.035 0.351-0.091 0.526-0.088 0.278-0.179 0.491-0.194 0.771-0.011 0.228-0.042 0.516-0.004 0.713 0.046 0.249 0.743 0.678 0.894 0.842 0.19 0.204 0.309 0.417 0.548 0.579 0.224 0.151 0.467 0.262 0.681 0.428 0.214 0.169 0.435 0.172 0.699 0.313 0.533 0.284 0.976 0.71 1.48 1.038 0.103 0.066 0.214 0.126 0.329 0.18 0.34-0.020 0.68-0.020 1.021-0.024 0.255-0.001 0.554 0.015 0.794-0.050z"></path>
<path d="M23.216 16.218c0 0-0.014-0.006-0.022-0.003 0.208 0.154-0.566 0.55-0.566 0.55l-0.302 0.087-0.334 0.541c0 0-0.336 0.268-0.515 0.345-0.292 0.124-0.524 0.327-0.817 0.462 0.087 0.225 0.703 0.19 0.903 0.221 0.236 0.035 0.722 0.144 0.722 0.144l0.2 0.324c0 0 0.141 0.369 0.175 0.572 0.063 0.368-0.057 0.656-0.057 0.656s0.113 0.029 0.169 0.048c-0.404 0.179-0.741 0.393-1.122 0.617-0.344 0.203-0.814 0.312-1.074 0.62 0.635 0.077 1.253 0.266 1.899 0.312 0.22 0.015 0.733 0.078 0.733 0.078l-0.389 0.241c0 0-0.127 0.19-0.206 0.264-0.031 0.028-0.151 0.039-0.151 0.039l-0.063 0.243-0.234 0.203c0 0-0.229 0.285-0.267 0.475 0.808 0.228 1.634 0.648 2.468 0.765-0.137 0.207-0.372 0.393-0.562 0.564-0.253 0.229-0.508 0.454-0.75 0.694 0.457-0.13 0.916-0.355 1.382-0.543 0.308-0.124 0.552-0.25 0.88-0.263 0.498-0.018 0.849-0.165 1.294-0.366 0.387-0.175 0.799-0.308 1.204-0.421 0.538-0.151 0.99-0.496 1.238-1.026 0.097-0.203 0.13-0.471 0.19-0.689 0.062-0.225 0.161-0.48 0.176-0.706 0.017-0.243 0.013-0.45 0.084-0.71 0.231-0.835 0.399-1.657 0.28-2.52-0.081-0.586-0.431-0.913-0.708-1.403-0.227-0.403-0.396-0.731-0.808-0.996-0.208-0.134-0.248-0.248-0.407-0.425-0.131-0.145-0.303-0.199-0.474-0.284-0.301-0.151-0.564-0.478-0.885-0.564-0.345-0.092-0.751 0.069-1.081 0.155-0.401 0.106-0.765 0.062-1.166 0.165-0.292 0.076-0.585 0.152-0.877 0.228-0.462 0.119-0.955 0.147-1.399 0.318-0.129 0.049-0.337 0.085-0.58 0.122 0.62 0.256 1.82 0.869 1.82 0.869z"></path>
<path d="M16.37 21.631c-0.048-0.201-0.232-0.35-0.347-0.512-0.143-0.201-0.737-0.828-0.737-0.828s-0.393 0.582-0.445 0.776c-0.073 0.259-0.21 0.621-0.34 0.94-0.655-0.066-1.366 0.365-1.961 0.632-0.036 0.029-0.071 0.155-0.071 0.155s1.029 0.74 1.369 0.815c0.53 0.119 1.003 0.73 1.615 0.596 0.060-0.599 0.653-1.741 0.815-2.043l0.098-0.031c0 0 0.032-0.375 0.003-0.501z"></path>
<path d="M12.509 22.655c0.011-0.004 0.022-0.011 0.034-0.015 0.001-0.001 0.003-0.004 0.004-0.006 0.038-0.021-0.032-0.001-0.038 0.021z"></path>
<path d="M17.721 23.037c0.119 0.287 0.846 0.701 0.846 0.701l0.505 0.808 0.41-1.459c0 0-1.786-0.059-1.761-0.050z"></path>
<path d="M17.873 5.997l-0.617 0.238c-0.11 0.358 0.308 0.762 0.291 1.136 0.368-0.217 0.671-0.666 0.985-0.959-0.178-0.155-0.401-0.382-0.659-0.414z"></path>
<path d="M14.667 12.071c0 0 0.021-0.192 0.035-0.232 0.636 0.211 1.538-0.172 2.168-0.285 0.039 0.653-0.013 1.319 0.006 1.975 0.014 0.457 0.192 1.422 0.192 1.422l-0.99-0.922z"></path>
<path d="M20.018 9.039c0.818 0.446 1.952 0.747 2.973 0.808 0.013 0.358-0.399 0.849-0.562 1.176-0.285 0.568-0.508 1.175-0.807 1.731-0.31 0.579-0.632 1.313-0.986 1.825 0.020-0.052-0.659-1.094-0.659-1.094l-0.396-0.848c0 0 0.073-2.27 0.436-3.6z"></path>
<path d="M10.329 10.029c0 0 0.411-1.103 0.483-1.515 0.501 0.236 1.157 0.327 1.703 0.587 0.483 0.228 0.993 0.401 1.425 0.645 0.035 0 0.036-0.003 0.001-0.006-0.566 0.375-1.445 0.281-2.098 0.34-0.607 0.053-1.515-0.052-1.515-0.052z"></path>
<path d="M6.156 24.862c-0.115-0.267-0.124-0.573 0.11-0.778 0.319-0.277 0.829-0.431 1.316-0.536-0.115-0.045-0.239-0.105-0.365-0.203-0.095-0.074-0.208-0.14-0.327-0.21-0.618 0.319-1.502 0.597-1.508 1.329-0.004 0.365-0.028 0.65 0.144 0.973 0.189 0.351 0.369 0.614 0.688 0.799 0.124-0.217 0.246-0.404 0.316-0.509l0.164-0.312c-0.224-0.126-0.418-0.273-0.538-0.554z"></path>
<path d="M26.185 26.381c0.036-0.050 0.042-0.136 0.042-0.136l-0.729-0.452-0.281-0.617-0.15-0.173c-0.094 0.029-0.19 0.069-0.302 0.116-0.049 0.020-0.099 0.041-0.15 0.062-0.137 0.056-0.273 0.113-0.408 0.172-0.331 0.141-0.673 0.288-1.021 0.387l-0.613 0.175c-0.049 0.141-0.094 0.281-0.122 0.414-0.028 0.138-0.103 0.18-0.017 0.277 0.029 0.032 0.357 0.115 0.411 0.141 0.352 0.182 0.688 0.185 1.041 0.306 0.13 0.045 0.271 0.060 0.4 0.11 0.095 0.038 0.148 0.131 0.245 0.158 0.252 0.069 0.503-0.108 0.734-0.199-0.001-0.007-0.006-0.010-0.011-0.011 0.344-0.231 0.73-0.475 1.022-0.755-0.014 0.006-0.070 0.018-0.092 0.024z"></path>
<path d="M22.775 24.129c0 0-0.082-0.063-0.19-0.134-0.283-0.105-0.552-0.203-0.817-0.277l-0.428-0.12c0 0-1.926 1.573-2.087 1.653-0.178 0.088-0.448 0.12-0.467 0.365 0.411 0.196 0.603 0.561 0.821 0.961 0.144-0.050 0.234-0.19 0.345-0.301 0.213-0.213 0.449-0.39 0.66-0.604 0.296-0.301 0.629-0.155 0.916-0.46 0.313-0.334 1.246-1.082 1.246-1.082z"></path>
</svg>
