<!-- Generated by IcoMoon.io -->
<svg version="1.1" xmlns="http://www.w3.org/2000/svg" width="32" height="32" viewBox="0 0 32 32">
<title>dark_past</title>
<path d="M20.355 29.911c-0.080-0.054-0.426-0.246-0.769-0.427-1.721-0.905-3.010-1.674-4.883-2.91-1.131-0.747-2.337-1.542-2.68-1.768-0.523-0.344-1.709-1.251-1.836-1.405-0.020-0.024-0.251-0.207-0.514-0.406s-0.728-0.594-1.034-0.878c-0.754-0.699-1.408-1.261-1.956-1.678-0.251-0.192-0.482-0.391-0.514-0.443s-0.256-0.239-0.498-0.417c-0.577-0.422-1.505-1.167-2.447-1.963-0.417-0.353-0.858-0.725-0.98-0.827l-0.223-0.186 0.251-4.309 0.392-0.486c0.448-0.557 6.179-6.183 6.833-6.708 0.238-0.191 0.622-0.498 0.853-0.682s0.518-0.474 0.637-0.644c0.119-0.17 0.549-0.639 0.956-1.042l0.74-0.733 0.531 0.181c0.651 0.221 1.053 0.492 2.008 1.353 0.407 0.366 0.914 0.798 1.128 0.96s0.512 0.393 0.662 0.514c0.15 0.121 0.511 0.386 0.801 0.587s0.883 0.623 1.316 0.935c0.433 0.313 1.128 0.808 1.544 1.101s1.16 0.849 1.652 1.235c0.493 0.386 1.391 1.028 1.997 1.427s1.25 0.863 1.432 1.031c0.182 0.168 0.584 0.484 0.895 0.702s0.741 0.522 0.958 0.674c0.217 0.152 0.717 0.602 1.112 0.998l0.718 0.721-0.146 6.176-0.906 1.042c-0.801 0.921-1.779 2.082-3.035 3.599-0.813 0.982-1.382 1.725-1.684 2.196-0.351 0.548-0.357 0.553-2.058 1.842-0.186 0.141-0.473 0.364-0.637 0.496-0.331 0.266-0.407 0.283-0.616 0.14zM21.018 23.925c0.267-0.121 1.21-0.998 1.21-1.125 0-0.029 0.383-0.459 0.852-0.956s0.971-1.052 1.116-1.234c0.145-0.182 0.371-0.446 0.502-0.587s0.42-0.538 0.643-0.881c0.749-1.155 0.743-1.148 1.295-1.438 0.737-0.387 0.888-0.632 0.957-1.549 0.079-1.049-0.053-1.349-0.787-1.782-0.236-0.139-0.561-0.371-0.723-0.515s-0.504-0.41-0.762-0.591c-0.258-0.181-0.69-0.528-0.961-0.77-0.83-0.741-1.184-1.019-1.95-1.524-0.405-0.267-0.963-0.686-1.24-0.93-0.305-0.269-0.782-0.584-1.209-0.799-0.804-0.404-1.058-0.564-1.881-1.187-0.323-0.244-0.731-0.513-0.907-0.597-0.316-0.151-0.407-0.208-1.48-0.921-0.303-0.201-0.704-0.454-0.892-0.562s-0.502-0.345-0.698-0.528c-0.403-0.376-0.74-0.516-1.079-0.448-0.384 0.077-1.201 0.666-1.363 0.983-0.079 0.154-0.257 0.361-0.395 0.46-1.111 0.787-1.776 1.37-2.779 2.435-1.619 1.719-2.772 2.825-3.125 2.999-0.325 0.159-0.61 0.603-0.61 0.95 0 0.348 0.284 0.763 0.754 1.099 0.252 0.18 0.722 0.547 1.045 0.814s1.041 0.797 1.595 1.177c0.554 0.38 1.232 0.847 1.505 1.038s0.943 0.753 1.489 1.25c1.408 1.283 3.534 2.92 3.794 2.92 0.026 0 0.314 0.154 0.641 0.343s0.876 0.485 1.219 0.658c0.343 0.173 0.855 0.464 1.138 0.646 0.959 0.618 1.248 0.774 1.439 0.774 0.105 0 0.27 0.071 0.367 0.157 0.412 0.364 0.811 0.433 1.279 0.221zM15.518 19.181c-0.157-0.056-0.338-0.153-0.401-0.216-0.104-0.104-0.103-0.123 0.011-0.207 0.069-0.051 0.233-0.248 0.364-0.437s0.53-0.702 0.887-1.138c0.356-0.436 0.892-1.157 1.19-1.601s0.665-0.989 0.815-1.212c0.15-0.222 0.59-0.778 0.977-1.236s0.802-0.96 0.923-1.117c0.121-0.157 0.248-0.286 0.281-0.288 0.117-0.006 0.483 0.42 0.533 0.62 0.043 0.17 0.013 0.231-0.185 0.386-0.29 0.227-0.444 0.469-1.183 1.86-0.321 0.605-0.715 1.273-0.876 1.484-0.318 0.419-0.614 0.805-0.979 1.275-0.13 0.167-0.327 0.422-0.438 0.565s-0.43 0.418-0.709 0.61c-0.279 0.192-0.561 0.441-0.628 0.555-0.137 0.233-0.183 0.24-0.583 0.098zM11.992 16.318c-0.364-0.131-0.541-0.309-0.664-0.667l-0.098-0.285 0.335-0.296c0.184-0.163 0.47-0.393 0.635-0.512 0.983-0.707 1.409-1.067 2.103-1.779 0.728-0.746 1.289-1.382 1.661-1.881 0.088-0.118 0.419-0.405 0.734-0.636s0.619-0.476 0.675-0.543c0.124-0.15 0.257-0.155 0.373-0.016 0.070 0.085 0.050 0.162-0.101 0.384-0.104 0.153-0.189 0.323-0.189 0.377 0 0.183-1.656 2.198-2.939 3.575-0.264 0.283-0.598 0.663-0.743 0.845-0.444 0.557-1.323 1.504-1.412 1.521-0.046 0.009-0.213-0.030-0.37-0.087zM9.009 13.793c-0.301-0.194-0.59-0.404-0.641-0.467-0.080-0.098-0.067-0.122 0.086-0.16 0.252-0.063 0.596-0.369 0.702-0.624 0.084-0.203 0.484-0.56 2.17-1.937 0.404-0.33 1.119-0.995 1.589-1.477 0.851-0.873 0.856-0.877 1.073-0.787 0.12 0.050 0.328 0.203 0.461 0.341 0.241 0.249 0.242 0.251 0.101 0.408-0.143 0.159-0.812 0.61-1.432 0.966-0.459 0.263-1.876 1.636-2.512 2.432-0.286 0.359-0.64 0.878-0.785 1.154l-0.264 0.502z"></path>
</svg>
