<!-- Generated by IcoMoon.io -->
<svg version="1.1" xmlns="http://www.w3.org/2000/svg" width="32" height="32" viewBox="0 0 32 32">
<title>dark_side_of_the_moon</title>
<path d="M12.791 7.004c-0.033 0.006-0.046 0.030-0.078 0.044-0.231 0.090-0.463 0.201-0.694 0.303-0.172 0.077-0.343 0.169-0.514 0.254-0.224 0.112-0.453 0.21-0.677 0.32-0.352 0.171-0.707 0.433-0.992 0.701-0.133 0.124-0.254 0.27-0.369 0.409-0.179 0.214-0.371 0.417-0.553 0.628-0.157 0.181-0.342 0.33-0.507 0.504-0.11 0.117-0.218 0.235-0.323 0.355-0.138 0.157-0.272 0.314-0.419 0.462-0.175 0.175-0.38 0.318-0.558 0.49-0.139 0.136-0.29 0.264-0.421 0.406-0.127 0.138-0.239 0.291-0.345 0.445-0.129 0.189-0.264 0.382-0.386 0.576-0.158 0.254-0.288 0.521-0.463 0.765-0.302 0.421-0.547 0.885-0.761 1.354-0.136 0.298-0.229 0.612-0.355 0.915-0.061 0.146-0.097 0.301-0.16 0.446-0.066 0.15-0.135 0.299-0.204 0.448-0.066 0.143-0.121 0.292-0.173 0.443-0.026 0.073-0.038 0.148-0.056 0.224-0.029 0.118-0.080 0.229-0.111 0.345-0.042 0.151-0.075 0.303-0.118 0.453-0.043 0.148-0.106 0.288-0.141 0.438-0.040 0.169-0.091 0.322-0.162 0.482-0.062 0.141-0.085 0.303-0.133 0.45-0.048 0.146-0.071 0.294-0.098 0.445-0.023 0.123 0.004 0.247 0.017 0.369 0.020 0.191 0.050 0.386 0.084 0.574 0.029 0.003 0.135-0.072 0.162-0.086 0.142-0.076 0.3-0.13 0.455-0.175 0.227-0.067 0.442-0.168 0.669-0.233 0.228-0.066 0.455-0.135 0.68-0.207 0.301-0.096 0.61-0.167 0.913-0.256 0.265-0.079 0.534-0.141 0.79-0.243 0.166-0.064 0.344-0.105 0.512-0.163 0.152-0.052 0.306-0.099 0.46-0.143 0.125-0.037 0.247-0.081 0.369-0.123 0.143-0.048 0.291-0.056 0.433-0.108 0.134-0.050 0.276-0.083 0.411-0.13 0.096-0.033 0.201-0.028 0.302-0.040 0.15-0.020 0.293-0.037 0.44-0.069 0.122-0.023 0.252-0.061 0.377-0.067 0.167-0.010 0.333-0.035 0.499-0.052 0.093-0.010 0.177-0.046 0.271-0.049 0.109-0.003 0.222-0.012 0.328-0.032 0.051-0.010 0.117-0.007 0.165-0.020 0.060-0.016 0.063-0.078 0.088-0.126 0.046-0.095 0.104-0.156 0.195-0.204 0.053-0.029 0.11-0.052 0.162-0.083 0.046-0.029 0.091-0.069 0.141-0.086 0.076-0.026 0.15 0.035 0.219 0.066 0.066 0.029 0.125 0.025 0.202 0.025h0.355c0.303 0 0.607-0.010 0.91 0 0.281 0.006 0.564 0.074 0.844 0.11 0.332 0.043 0.664 0.113 0.999 0.141 0.191 0.016 0.388 0.003 0.579 0.003h0.251c0.061 0 0.142 0.016 0.199-0.003-0.002-0.033 0.029-0.043 0.029-0.071 0.003-0.034-0.012-0.047-0.025-0.072 0.123-0.042 0.314 0.002 0.436 0.025 0.051 0.010 0.088 0.036 0.131 0.064 0.068 0.044 0.093 0.095 0.145 0.16 0.078 0.093 0.198 0.18 0.305 0.231 0.062 0.029 0.15 0.025 0.217 0.025 0.148-0.001 0.293-0.006 0.44 0.017 0.127 0.020 0.255 0.037 0.381 0.069 0.165 0.042 0.331 0.087 0.502 0.093 0.244 0.006 0.491-0.016 0.736 0.002 0.244 0.020 0.498 0.075 0.741 0.11 0.174 0.023 0.345 0.048 0.519 0.072 0.158 0.023 0.316 0.069 0.477 0.071 0.124 0.002 0.239 0.001 0.36 0.017 0.141 0.023 0.272 0.032 0.413 0.032 0.048 0 0.137 0.023 0.179 0.002 0.029-0.013 0.048-0.055 0.066-0.084 0.029-0.050 0.027-0.058 0.094-0.081 0.056-0.020 0.109-0.015 0.167-0.015h0.256c0.155-0.001 0.284 0.033 0.436 0.057 0.119 0.020 0.227 0.053 0.344 0.081 0.144 0.034 0.295 0.032 0.44 0.064 0.137 0.029 0.262 0.098 0.399 0.125 0.123 0.023 0.25 0.030 0.371 0.062 0.083 0.023 0.161 0.011 0.246 0.020 0.057 0.006 0.106 0.032 0.163 0.042 0.067 0.013 0.114 0.014 0.184 0.042 0.157 0.062 0.308 0.138 0.465 0.199 0.074 0.029 0.131 0.077 0.202 0.106 0.090 0.037 0.183 0.040 0.278 0.051 0.255 0.026 0.504 0.047 0.761 0.046 0.441-0.002 0.926-0.056 1.354 0.076 0.1 0.029 0.197 0.069 0.297 0.101 0.052 0.016 0.071 0.034 0.116 0.061 0.064 0.038 0.129 0.057 0.189 0.108 0.020 0.017 0.038 0.040 0.051 0.088-0.003-0.044 0.001-0.089-0.007-0.133-0.062-0.368-0.17-0.732-0.278-1.090-0.090-0.301-0.175-0.601-0.261-0.903-0.041-0.146-0.078-0.294-0.13-0.436-0.061-0.161-0.137-0.316-0.179-0.483-0.037-0.142-0.055-0.288-0.093-0.43-0.044-0.161-0.089-0.314-0.155-0.468-0.099-0.232-0.179-0.475-0.261-0.714-0.113-0.323-0.24-0.637-0.403-0.938-0.089-0.165-0.151-0.333-0.248-0.495-0.109-0.187-0.205-0.376-0.325-0.556-0.112-0.165-0.193-0.348-0.302-0.514-0.15-0.229-0.247-0.483-0.389-0.716-0.201-0.333-0.37-0.681-0.583-1.007-0.218-0.336-0.458-0.642-0.744-0.925-0.076-0.075-0.171-0.225-0.271-0.276-0.055-0.026-0.1-0.039-0.152-0.078-0.053-0.041-0.107-0.083-0.158-0.125-0.198-0.161-0.317-0.375-0.472-0.573-0.087-0.113-0.19-0.214-0.28-0.323-0.075-0.090-0.142-0.184-0.233-0.261-0.095-0.080-0.199-0.153-0.297-0.231-0.081-0.063-0.16-0.14-0.261-0.17-0.104-0.033-0.241-0.009-0.337-0.054-0.070-0.033-0.116-0.103-0.167-0.155-0.176-0.18-0.418-0.352-0.659-0.43-0.133-0.042-0.269-0.070-0.406-0.093-0.266-0.047-0.534-0.088-0.8-0.135-0.238-0.043-0.478-0.090-0.718-0.116-0.19-0.023-0.379-0.046-0.563-0.096-0.211-0.057-0.414-0.132-0.625-0.189-0.236-0.063-0.473-0.121-0.706-0.192-0.223-0.067-0.446-0.134-0.67-0.2-0.137-0.040-0.272-0.096-0.414-0.118-0.513-0.080-1.027-0.066-1.546-0.066h-1.92c-0.155 0-0.31 0.001-0.465 0-0.033-0.001-0.067-0.008-0.098 0zM15.686 9.813c0.047-0.010 0.095 0.022 0.133 0.044 0.023 0.013 0.031 0.007 0.047 0.030 0.010 0.013 0.019 0.051 0.022 0.066 0.023 0.105 0.017 0.262-0.126 0.243-0.056-0.007-0.153-0.066-0.173-0.128-0.007-0.023-0.010-0.056-0.014-0.078-0.003-0.061-0.013-0.008 0-0.056 0.010-0.039 0.033-0.086 0.083-0.072l0.029-0.049zM20.475 9.887c0.068 0.003 0.134 0.039 0.197 0.061 0.123 0.040 0.235 0.096 0.352 0.148 0.128 0.057 0.267 0.122 0.382 0.2 0.117 0.080 0.196 0.212 0.249 0.339 0.016 0.038 0.024 0.076 0.044 0.111 0.020 0.033 0.048 0.059 0.066 0.093 0.041 0.081 0.069 0.18 0.103 0.266 0.051 0.128 0.049 0.269 0.049 0.406 0 0.056 0.009 0.116 0.002 0.172-0.010 0.089-0.056 0.191-0.088 0.273-0.053 0.143-0.111 0.257-0.211 0.374-0.101 0.119-0.203 0.238-0.337 0.318-0.14 0.085-0.266 0.182-0.43 0.217-0.086 0.020-0.149 0.038-0.238 0.037h-0.266c-0.304 0.001-0.587-0.155-0.835-0.325-0.132-0.091-0.206-0.201-0.285-0.34-0.055-0.099-0.139-0.2-0.175-0.307-0.023-0.072-0.041-0.139-0.056-0.214-0.029-0.133-0.020-0.265-0.020-0.401 0-0.070 0.007-0.125 0.020-0.194 0.006-0.029 0.038-0.109 0.032-0.133l0.044-0.032c0.010-0.084 0.023-0.167 0.057-0.249s0.086-0.151 0.11-0.236c0.026-0.093 0.075-0.171 0.128-0.251 0.056-0.080 0.108-0.134 0.184-0.192 0.068-0.052 0.163-0.089 0.249-0.108 0.053-0.013 0.095-0.012 0.147-0.025 0.048-0.013 0.103-0.007 0.153-0.007h0.251c0.040 0 0.082-0.003 0.121-0.002zM9.887 12.062c-0.007 0.007-0.014 0.012-0.017 0.018 0.051 0.042 0.12 0.043 0.14 0.113 0.023 0.076-0.024 0.129-0.040 0.2-0.016 0.065-0.023 0.128-0.081 0.173-0.048 0.036-0.113 0.029-0.17 0.037-0.068 0.010-0.057 0.018-0.113-0.012-0.112-0.060-0.135-0.235-0.096-0.352 0.034-0.104 0.183-0.154 0.275-0.153l0.103-0.025zM14.713 14.176c0.030-0.001 0.060 0.007 0.078 0.030l0.078 0.027c0.007 0.034 0.057 0.073 0.078 0.103 0.033 0.050 0.053 0.089 0.051 0.153-0.007 0.15-0.134 0.143-0.244 0.101-0.053-0.020-0.109-0.020-0.145-0.069-0.026-0.036-0.034-0.075-0.046-0.116-0.007-0.023-0.032-0.078-0.029-0.098 0.003-0.029 0.076-0.094 0.099-0.108 0.020-0.013 0.051-0.023 0.081-0.024zM7.352 16.965c0.072 0.008 0.136 0.033 0.179 0.103 0.053 0.087 0.067 0.292-0.034 0.355-0.079 0.048-0.207 0.027-0.293 0.030-0.094 0.001-0.129-0.017-0.192-0.089-0.050-0.057-0.081-0.122-0.046-0.192 0.016-0.029 0.035-0.057 0.052-0.084 0.013-0.023 0.060-0.068 0.059-0.094l0.051-0.027c0.072 0 0.152-0.010 0.224-0.002zM29.376 20.948c-0 0.032 0.003 0.036 0.002 0.076l0.002 0.005c0-0.027-0.003-0.054-0.003-0.081z"></path>
<path d="M17.755 19.598c0.047 0.016 0.090 0.062 0.127 0.095 0.056 0.048 0.112 0.096 0.167 0.144 0.049 0.043 0.105 0.094 0.142 0.15 0.020 0.029 0.023 0.063 0.050 0.091 0.010 0.013 0.029 0.016 0.039 0.029 0.023 0.029 0.033 0.071 0.061 0.103 0.033 0.036 0.085 0.055 0.112 0.095 0.043 0.068-0.062 0.195-0.11 0.256-0.067 0.089-0.166 0.104-0.246 0.165-0.152 0.114-0.338 0.198-0.517 0.269-0.169 0.067-0.356 0.125-0.534 0.167-0.246 0.057-0.497 0.134-0.748 0.167-0.224 0.029-0.458 0.057-0.684 0.056-0.139 0-0.279-0.001-0.418 0-0.080 0-0.166 0.013-0.244-0.003 0.020-0.023 0.051-0.033 0.080-0.039 0.103-0.023 0.205-0.042 0.309-0.071 0.251-0.071 0.498-0.155 0.745-0.237 0.138-0.047 0.272-0.097 0.414-0.133 0.175-0.042 0.337-0.093 0.496-0.176 0.086-0.047 0.152-0.098 0.228-0.156 0.058-0.044 0.146-0.081 0.185-0.142 0.066-0.101 0.123-0.331 0.076-0.447-0.050-0.131-0.123-0.258-0.189-0.379-0.043-0.080-0.072-0.165-0.117-0.244-0.016-0.029-0.109-0.158-0.039-0.174 0.020-0.003 0.036 0.020 0.048 0.029 0.052 0.034 0.104 0.064 0.158 0.094 0.085 0.046 0.172 0.087 0.244 0.152 0.051 0.046 0.113 0.075 0.166 0.118 0.058 0.049 0.096 0.12-0.001 0.023z"></path>
<path d="M14.945 18.755c-0.098 0-0.194-0.003-0.291 0.003-0.112 0.013-0.223 0.037-0.336 0.044-0.139 0.010-0.283 0.001-0.422 0.001h-0.581c-0.13 0-0.262 0.010-0.392-0.013-0.128-0.023-0.261-0.020-0.387-0.044-0.062-0.013-0.171-0.048-0.234-0.020-0.076 0.037-0.091 0.177-0.026 0.228 0.039 0.033 0.075 0.026 0.128 0.026 0.060 0 0.090 0.023 0.144 0.026 0.067 0.003 0.126-0.003 0.189 0.013s0.124 0.013 0.19 0.013h0.892c0.261 0 0.521-0.023 0.778-0.070 0.166-0.033 0.336-0.039 0.502-0.071 0.048-0.010 0.187 0.003 0.203-0.058-0.151-0.038-0.31-0.039-0.357-0.082z"></path>
<path d="M23.605 19.573c-0.074-0.013-0.143-0.048-0.217-0.063-0.095-0.020-0.195-0.023-0.291-0.046-0.047-0.013-0.094-0.026-0.143-0.020-0.051 0.006-0.087 0.034-0.128 0.067-0.056 0.047-0.073 0.079-0.093 0.142s-0.068 0.108-0.075 0.176c-0.002 0.038-0.003 0.090 0.003 0.125 0.053 0.003 0.099-0.082 0.137-0.112 0.033-0.023 0.085-0.047 0.12-0.060 0.16-0.056 0.345-0.033 0.512-0.033 0.279 0 0.56 0.049 0.835 0.095 0.151 0.026 0.312 0.043 0.459 0.082 0.070 0.020 0.114 0.050 0.177 0.080 0.023 0.013 0.039 0.029 0.068 0.026-0.177-0.026-0.349-0.118-0.526-0.157-0.195-0.043-0.388-0.1-0.582-0.154-0.090-0.023-0.18-0.046-0.26-0.075-0.061-0.023-0.125-0.020 0-0.078z"></path>
<path d="M26.441 20.338c0.023 0.026 0.082 0.044 0.114 0.064 0.039 0.023 0.077 0.043 0.115 0.070 0.083 0.058 0.171 0.11 0.256 0.166 0.044 0.029 0.087 0.062 0.125 0.096 0.050 0.047 0.11 0.063 0.156 0.12 0.063 0.079 0.113 0.167 0.048 0.26-0.039 0.053-0.122 0.114-0.179 0.142-0.034 0.016-0.089 0.023-0.127 0.036-0.055 0.016-0.114 0.029-0.171 0.037-0.073 0.010-0.142-0.001-0.217 0.016-0.072 0.016-0.142 0.043-0.217 0.057-0.281 0.053-0.57 0.060-0.857 0.060-0.254 0-0.502-0.026-0.755-0.026 0.309-0.002 0.608-0.061 0.914-0.103 0.236-0.033 0.516-0.053 0.712-0.199 0.085-0.063 0.082-0.1 0.081-0.207-0.001-0.086 0.010-0.164-0.023-0.244-0.029-0.072-0.068-0.129-0.11-0.191-0.026-0.042-0.075-0.086 0.134-0.155z"></path>
<path d="M11.982 22.408h-0.578c-0.437 0-0.885-0.026-1.321 0.003-0.229 0.016-0.459 0.056-0.688 0.080-0.184 0.020-0.371 0.040-0.554 0.068-0.156 0.023-0.312 0.057-0.469 0.079-0.187 0.026-0.369 0.037-0.554 0.075-0.257 0.055-0.534 0.079-0.777 0.184-0.229 0.1-0.46 0.187-0.668 0.33-0.066 0.044-0.132 0.090-0.195 0.138-0.087 0.066-0.194 0.125-0.274 0.199-0.090 0.084-0.141 0.203-0.213 0.299-0.103 0.138-0.143 0.255-0.148 0.431-0.006 0.151 0.001 0.303 0.001 0.454 0 0.127 0.029 0.248 0.026 0.374-0.001 0.143 0.010 0.274 0.057 0.412 0.029 0.094 0.114 0.161 0.166 0.243 0.066 0.103 0.107 0.208 0.184 0.304 0.097 0.122 0.204 0.262 0.321 0.367 0.081 0.073 0.184 0.119 0.277 0.175 0.103 0.061 0.185 0.133 0.297 0.179 0.093 0.037 0.181 0.084 0.276 0.119 0.193 0.072 0.383 0.154 0.582 0.209 0.077 0.023 0.139 0.047 0.208 0.079-0.050-0.083-0.132-0.133-0.207-0.191-0.141-0.107-0.255-0.231-0.371-0.361-0.261-0.291-0.512-0.578-0.559-0.982-0.020-0.175-0.023-0.39 0.034-0.556 0.071-0.209 0.203-0.395 0.342-0.565 0.061-0.072 0.119-0.152 0.191-0.214 0.087-0.072 0.191-0.123 0.285-0.185 0.19-0.125 0.413-0.186 0.624-0.269 0.244-0.095 0.475-0.212 0.721-0.297 0.271-0.094 0.549-0.164 0.825-0.237 0.449-0.12 0.895-0.274 1.355-0.341 0.492-0.072 0.987-0.136 1.48-0.204 0.404-0.057 0.825-0.055 1.235-0.039-0.039-0.023-0.076-0.023-0.12-0.033-0.122-0.023-0.238-0.037-0.361-0.052-0.133-0.016-0.257-0.051-0.385-0.085-0.156-0.041-0.319-0.041-0.479-0.062-0.123-0.016-0.241-0.033-0.359-0.071-0.197-0.062-0.388-0.055-0.592-0.063-0.332-0.013-0.663-0.020-0.994-0.020z"></path>
<path d="M16.989 23.89c-0.001 0.079 0.026 0.15 0.026 0.232 0.001 0.16-0.051 0.307-0.103 0.458-0.122 0.35-0.29 0.71-0.517 1.004-0.124 0.161-0.28 0.304-0.442 0.427-0.085 0.063-0.174 0.117-0.255 0.185-0.075 0.063-0.146 0.118-0.236 0.161-0.152 0.074-0.307 0.15-0.449 0.242-0.1 0.064-0.204 0.103-0.309 0.153-0.117 0.055-0.224 0.077-0.27 0.204-0.048 0.13-0.086 0.262-0.141 0.394-0.029 0.067-0.053 0.128-0.090 0.19-0.048 0.082-0.080 0.169-0.126 0.252-0.089 0.161-0.228 0.289-0.36 0.416-0.212 0.203-0.453 0.37-0.711 0.508-0.14 0.076-0.291 0.123-0.438 0.183-0.082 0.034-0.162 0.079-0.25 0.101 0.115 0.003 0.237-0.044 0.346-0.074 0.214-0.058 0.423-0.133 0.638-0.191 0.212-0.058 0.421-0.086 0.636-0.122 0.287-0.048 0.572-0.136 0.853-0.212 0.193-0.052 0.387-0.097 0.58-0.147 0.363-0.091 0.707-0.269 1.076-0.33 0.138-0.023 0.278-0.055 0.417-0.071 0.094-0.013 0.186-0.013 0.279-0.029 0.256-0.046 0.515-0.048 0.769-0.091 0.133-0.023 0.267-0.023 0.402-0.043 0.099-0.013 0.195-0.051 0.293-0.071 0.222-0.046 0.48-0.104 0.664-0.242 0.060-0.046 0.122-0.095 0.156-0.16 0.044-0.082 0.034-0.176 0.042-0.266 0.006-0.093 0.033-0.185 0.023-0.279-0.016-0.123-0.086-0.24-0.143-0.346-0.068-0.127-0.161-0.237-0.229-0.364-0.058-0.105-0.101-0.217-0.177-0.312-0.154-0.191-0.33-0.33-0.513-0.488-0.080-0.070-0.17-0.127-0.252-0.194s-0.158-0.143-0.241-0.211c-0.138-0.113-0.268-0.241-0.423-0.329-0.081-0.047-0.175-0.061-0.257-0.108-0.072-0.039-0.134-0.097-0.205-0.14-0.113-0.066-0.246-0.124-0.061-0.293z"></path>
<path d="M25.828 23.915c-0.133-0.001-0.256-0.029-0.389-0.043-0.272-0.033-0.537-0.086-0.811-0.085-0.237 0.001-0.474 0.001-0.71 0-0.106 0-0.208 0-0.313 0.020-0.071 0.013-0.181 0.010-0.244 0.044-0.085 0.046-0.104 0.172-0.125 0.257-0.029 0.122-0.016 0.252 0.029 0.369 0.046 0.125 0.134 0.244 0.229 0.336 0.060 0.058 0.12 0.094 0.189 0.138 0.033 0.020 0.064 0.048 0.075 0.083-0.146 0.052-0.378-0.023-0.511-0.086-0.194-0.091-0.364-0.19-0.445-0.393-0.076-0.191-0.089-0.361-0.089-0.564 0-0.091 0.029-0.14 0.098-0.201 0.108-0.095 0.265-0.176 0.401-0.223 0.255-0.087 0.532-0.087 0.8-0.087 0.308 0 0.619-0.016 0.923 0.033 0.161 0.026 0.335 0.034 0.489 0.085 0.124 0.041 0.246 0.099 0.364 0.152 0.113 0.051 0.227 0.095 0.337 0.147 0.058 0.026 0.165 0.052 0.208 0.096-0.15-0.006-0.302 0-0.502-0.077z"></path>
<path d="M27.667 24.477c0.090 0.016 0.201 0.076 0.275 0.125 0.089 0.060 0.164 0.158 0.223 0.244 0.082 0.118 0.162 0.219 0.223 0.351 0.062 0.132 0.128 0.261 0.223 0.371 0.072 0.082 0.138 0.177 0.218 0.25 0.056 0.050 0.122 0.075 0.185 0.112 0.073 0.043 0.133 0.101 0.198 0.155 0.075 0.062 0.143 0.125 0.215 0.187-0.010 0.013-0.013 0.029-0.020 0.042-0.026 0.052-0.071 0.058-0.128 0.079-0.185 0.064-0.383 0.072-0.577 0.076-0.13 0.002-0.246 0.053-0.37 0.085-0.18 0.044-0.361 0.099-0.544 0.13-0.445 0.077-0.88 0.118-1.332 0.117-0.221 0-0.436 0-0.655-0.026-0.11-0.013-0.25-0.013-0.353-0.052 0.237 0.010 0.475-0.056 0.709-0.087 0.309-0.044 0.624-0.12 0.919-0.224 0.132-0.046 0.344-0.112 0.406-0.253 0.055-0.124 0.089-0.269 0.105-0.402 0.020-0.152 0.063-0.303 0.057-0.458-0.003-0.077-0.029-0.129-0.047-0.201-0.023-0.085-0.036-0.161-0.073-0.24-0.046-0.094-0.124-0.201-0.14-0.307-0.003-0.026 0.002-0.048-0.003-0.075-0.010-0.037-0.033-0.057-0.016-0.099 0.051-0.023 0.223 0.036 0.304 0.099z"></path>
</svg>
