<!-- Generated by IcoMoon.io -->
<svg version="1.1" xmlns="http://www.w3.org/2000/svg" width="32" height="32" viewBox="0 0 32 32">
<title>dead_by_dawn</title>
<path d="M2.227 29.978c-0.049-0.027-0.12-0.111-0.158-0.187-0.132-0.261-0.007-0.403 0.607-0.696 0.255-0.122 0.51-0.28 0.566-0.351s0.144-0.13 0.196-0.131c0.17-0.003 0.381-0.165 1.208-0.92 0.259-0.237 0.754-0.599 0.819-0.599 0.019 0 0.144-0.103 0.278-0.228s0.265-0.228 0.29-0.228c0.025 0 0.107-0.091 0.18-0.203s0.167-0.203 0.207-0.203c0.040 0 0.091-0.029 0.113-0.065s0.161-0.165 0.307-0.287c0.216-0.18 0.26-0.242 0.232-0.328-0.093-0.279-0.097-0.515-0.011-0.691 0.048-0.099 0.114-0.327 0.146-0.507 0.099-0.551 0.201-0.805 0.356-0.885 0.208-0.107 0.399-0.36 0.462-0.611 0.036-0.141 0.091-0.233 0.152-0.253 0.053-0.017 0.096-0.070 0.096-0.118 0-0.107-0.113-0.361-0.161-0.361-0.065-0.001-0.108-0.562-0.048-0.623 0.031-0.031 0.057-0.097 0.057-0.146s0.046-0.212 0.102-0.362c0.093-0.248 0.121-0.279 0.317-0.336 0.118-0.035 0.277-0.122 0.354-0.195 0.149-0.14 0.342-0.593 0.342-0.799 0-0.075 0.056-0.171 0.139-0.239 0.314-0.256 0.568-0.551 0.72-0.838 0.238-0.446 1.139-1.332 1.928-1.895 0.661-0.472 1.367-1.010 1.403-1.070 0.023-0.037 0.133-0.134 0.244-0.215 0.184-0.134 0.429-0.344 0.943-0.807 0.1-0.090 0.283-0.214 0.406-0.274s0.333-0.213 0.467-0.339c0.134-0.126 0.339-0.288 0.456-0.359s0.317-0.237 0.444-0.367c0.127-0.13 0.374-0.35 0.549-0.49s0.744-0.679 1.264-1.199c0.52-0.52 0.982-0.965 1.027-0.989s0.209-0.217 0.365-0.43c0.156-0.213 0.373-0.464 0.48-0.558 0.201-0.176 0.738-0.901 0.92-1.245 0.056-0.106 0.25-0.351 0.43-0.543l0.328-0.35 0.168 0.067c0.093 0.037 0.229 0.109 0.303 0.16s0.148 0.093 0.165 0.093c0.017 0 0.183 0.072 0.37 0.16 0.211 0.1 0.347 0.139 0.358 0.105 0.012-0.037 0.134-0.046 0.368-0.027 0.481 0.040 0.816-0.091 1.39-0.546 0.244-0.194 0.463-0.352 0.486-0.352 0.076 0 0.489-0.428 0.576-0.597 0.047-0.091 0.095-0.26 0.106-0.375 0.013-0.129 0.068-0.259 0.144-0.341 0.182-0.196 0.237-0.329 0.236-0.573-0.001-0.231-0.072-0.607-0.146-0.776-0.024-0.056-0.082-0.208-0.129-0.339-0.099-0.278-0.15-0.352-0.789-1.143-0.265-0.328-0.522-0.682-0.57-0.787-0.081-0.177-0.081-0.19-0.002-0.19 0.171 0 0.958 0.326 1.19 0.493 0.131 0.094 0.307 0.265 0.392 0.38 0.159 0.217 0.951 1.123 1.284 1.468 0.105 0.109 0.19 0.228 0.19 0.265s0.087 0.167 0.193 0.29c0.106 0.122 0.226 0.271 0.266 0.329s0.233 0.284 0.428 0.5c0.195 0.217 0.389 0.439 0.431 0.495s0.207 0.249 0.368 0.43c0.16 0.181 0.292 0.358 0.292 0.393s0.072 0.198 0.16 0.362c0.107 0.199 0.191 0.468 0.253 0.806 0.153 0.837 0.137 0.883-0.266 0.761-0.401-0.122-0.697-0.357-0.803-0.639-0.048-0.128-0.166-0.342-0.261-0.476s-0.23-0.323-0.299-0.421c-0.164-0.229-0.424-0.365-0.698-0.365-0.409 0-1.164 0.315-1.587 0.663-0.128 0.105-0.339 0.241-0.471 0.303s-0.411 0.269-0.622 0.461c-0.211 0.192-0.403 0.348-0.427 0.348s-0.101 0.099-0.172 0.22c-0.147 0.25-0.169 0.59-0.053 0.794 0.040 0.070 0.073 0.248 0.074 0.396 0.002 0.296 0.047 0.409 0.259 0.654 0.163 0.188 0.32 0.521 0.37 0.784 0.034 0.179 0.022 0.196-0.487 0.717-0.287 0.294-0.638 0.656-0.782 0.806-0.355 0.371-0.732 0.647-1.266 0.929-0.247 0.13-0.472 0.257-0.498 0.282s-0.095 0.045-0.152 0.045c-0.154 0-0.352 0.141-0.903 0.641-0.597 0.542-0.778 0.694-1.195 1.008-0.176 0.133-0.37 0.315-0.431 0.406-0.188 0.28-0.41 0.554-0.49 0.603-0.042 0.026-0.145 0.118-0.228 0.205s-0.287 0.26-0.452 0.384c-0.165 0.124-0.511 0.432-0.77 0.683-0.54 0.525-1.023 0.955-1.291 1.148-0.102 0.074-0.233 0.211-0.291 0.304s-0.22 0.237-0.36 0.319c-0.24 0.14-0.563 0.505-0.563 0.636 0 0.051-0.222 0.303-0.944 1.074-0.216 0.23-0.4 0.39-0.729 0.634-0.153 0.114-0.382 0.318-0.509 0.454s-0.298 0.306-0.38 0.379c-0.082 0.072-0.287 0.286-0.454 0.476s-0.372 0.404-0.454 0.477c-0.15 0.132-0.238 0.226-0.6 0.639-0.179 0.204-0.204 0.216-0.353 0.173-0.088-0.025-0.258-0.092-0.377-0.148-0.265-0.125-0.28-0.125-0.353-0.007-0.033 0.053-0.145 0.108-0.257 0.126-0.265 0.042-0.515 0.22-0.634 0.451-0.091 0.176-0.115 0.19-0.319 0.19-0.132 0-0.237 0.028-0.261 0.069-0.022 0.038-0.138 0.081-0.258 0.097s-0.279 0.070-0.355 0.12c-0.076 0.050-0.167 0.086-0.202 0.078-0.060-0.013-0.315 0.142-0.452 0.275-0.033 0.032-0.17 0.075-0.303 0.095-0.347 0.052-0.435 0.112-1.041 0.706-0.299 0.293-0.618 0.571-0.71 0.618s-0.238 0.145-0.326 0.218c-0.088 0.073-0.337 0.258-0.552 0.411s-0.567 0.456-0.781 0.672c-0.214 0.216-0.416 0.393-0.449 0.393s-0.060 0.023-0.060 0.051c0 0.028-0.044 0.051-0.098 0.051s-0.163 0.063-0.242 0.139c-0.298 0.287-0.34 0.312-0.433 0.26zM10.947 23.147c0.048-0.024 0.202-0.084 0.341-0.133 1.134-0.399 1.485-0.585 1.953-1.037 0.132-0.127 0.37-0.322 0.53-0.434s0.345-0.257 0.412-0.324c0.122-0.122 0.165-0.309 0.071-0.309-0.091 0-0.054-0.096 0.133-0.342 0.101-0.133 0.289-0.312 0.418-0.398s0.349-0.232 0.489-0.324c0.22-0.145 0.662-0.624 0.997-1.081 0.057-0.078 0.193-0.178 0.301-0.221 0.204-0.082 0.45-0.327 0.45-0.449 0-0.038 0.080-0.108 0.178-0.154 0.181-0.086 0.339-0.266 0.424-0.484 0.074-0.191 0.41-0.552 0.513-0.552 0.141 0 0.392-0.236 0.465-0.435 0.044-0.122 0.142-0.226 0.319-0.339 0.14-0.089 0.401-0.285 0.58-0.435s0.429-0.322 0.558-0.381c0.128-0.060 0.309-0.162 0.401-0.228 0.098-0.070 0.209-0.108 0.267-0.093 0.065 0.017 0.174-0.035 0.314-0.148 0.118-0.096 0.349-0.282 0.513-0.414s0.435-0.371 0.601-0.531c0.287-0.277 0.451-0.353 0.52-0.241 0.057 0.092 0.12 0.053 0.271-0.165 0.082-0.118 0.26-0.332 0.395-0.475s0.306-0.325 0.378-0.406c0.073-0.080 0.237-0.233 0.366-0.339 0.349-0.287 0.432-0.753 0.196-1.111-0.264-0.401-0.762-0.984-0.959-1.122-0.153-0.107-0.274-0.253-0.372-0.445-0.164-0.324-0.439-0.577-0.719-0.661-0.284-0.086-0.701 0.020-0.899 0.228-0.084 0.089-0.287 0.298-0.45 0.466s-0.344 0.395-0.401 0.507c-0.058 0.112-0.219 0.322-0.359 0.467s-0.343 0.385-0.452 0.532c-0.109 0.148-0.236 0.3-0.282 0.338-0.12 0.099-0.105 0.193 0.074 0.471 0.209 0.326 0.513 0.469 0.895 0.423 0.22-0.027 0.272-0.018 0.298 0.051 0.048 0.126-0.050 0.189-0.338 0.217-0.178 0.017-0.349-0.005-0.539-0.070-0.243-0.083-0.308-0.136-0.509-0.417l-0.23-0.322-0.172 0.166c-0.094 0.092-0.172 0.193-0.172 0.226s-0.069 0.088-0.153 0.123c-0.084 0.035-0.225 0.157-0.314 0.272s-0.283 0.35-0.432 0.523l-0.271 0.315 0.101 0.192c0.144 0.275 0.619 0.674 0.803 0.674 0.213 0 0.358 0.121 0.287 0.238-0.068 0.111-0.178 0.137-0.405 0.094-0.221-0.041-0.871-0.597-0.967-0.826-0.094-0.226-0.196-0.255-0.362-0.105-0.139 0.126-0.182 0.158-0.669 0.486-0.437 0.295-0.749 0.573-0.812 0.724-0.031 0.076-0.124 0.202-0.205 0.28s-0.148 0.166-0.148 0.196c0 0.055 0.303 0.282 0.376 0.282 0.022 0 0.127 0.068 0.232 0.152 0.154 0.122 0.223 0.146 0.349 0.121 0.207-0.041 0.424 0.094 0.402 0.25-0.015 0.104-0.038 0.11-0.371 0.093-0.297-0.015-0.388-0.042-0.558-0.167-0.511-0.375-0.694-0.468-0.902-0.456-0.25 0.015-0.37 0.073-0.573 0.279-0.087 0.088-0.255 0.216-0.375 0.286-0.244 0.142-0.644 0.512-0.783 0.724-0.090 0.138-0.090 0.143 0.041 0.329 0.161 0.23 0.57 0.655 0.781 0.81 0.106 0.078 0.226 0.114 0.381 0.114 0.375 0 0.46 0.263 0.104 0.321-0.252 0.041-0.477-0.011-0.625-0.145-0.151-0.136-0.421-0.278-0.528-0.278-0.042 0-0.095-0.063-0.118-0.139-0.059-0.203-0.332-0.618-0.408-0.619-0.125-0.003-0.473 0.207-0.672 0.406-0.11 0.11-0.214 0.201-0.23 0.201-0.061 0-0.62 0.457-0.774 0.632-0.164 0.187-0.186 0.238-0.126 0.297 0.045 0.045 0.22-0.115 0.22-0.201 0-0.105 0.198-0.183 0.38-0.149 0.204 0.038 0.438 0.205 1.055 0.754 0.263 0.233 0.718 0.599 1.011 0.813 0.659 0.48 0.714 0.578 0.52 0.929-0.179 0.324-0.263 0.411-0.859 0.891-0.373 0.301-0.679 0.492-1.173 0.732l-0.669 0.325-0.335-0.034c-0.306-0.031-0.351-0.052-0.512-0.23-0.097-0.108-0.177-0.215-0.177-0.238s-0.059-0.074-0.131-0.112c-0.072-0.039-0.164-0.133-0.204-0.21s-0.142-0.176-0.226-0.22c-0.084-0.044-0.198-0.152-0.252-0.242-0.132-0.217-0.126-0.144 0.012 0.141 0.061 0.126 0.138 0.229 0.171 0.229s0.122 0.095 0.199 0.211c0.178 0.269 0.338 0.418 0.685 0.641 0.153 0.098 0.286 0.198 0.296 0.221 0.021 0.053 0.039 0.053 0.149-0.002zM9.286 21.33c-0.055-0.086-0.057-0.086-0.029 0.002 0.016 0.051 0.031 0.12 0.033 0.152 0.003 0.043 0.011 0.042 0.029-0.002 0.014-0.034-0.001-0.102-0.033-0.152zM9.408 20.445c0.136-0.194 0.684-0.743 0.828-0.83 0.204-0.123 0.379-0.407 0.294-0.478-0.079-0.065-0.437 0.208-0.919 0.7-0.255 0.26-0.33 0.376-0.396 0.612-0.088 0.315-0.099 0.467-0.046 0.664 0.027 0.101 0.047 0.057 0.097-0.215 0.035-0.188 0.098-0.391 0.141-0.452z"></path>
</svg>
