<!-- Generated by IcoMoon.io -->
<svg version="1.1" xmlns="http://www.w3.org/2000/svg" width="32" height="32" viewBox="0 0 32 32">
<title>dead_heat</title>
<path d="M12.065 9.925c-0.055 0.006-0.107 0.017-0.155 0.034-0.293 0.103-0.485 0.309-0.787 0.385-0.429 0.107-0.71 0.502-1.143 0.661 0.277-0.093 0.444 0.068 0.703 0.073 0.284 0.004 0.558-0.079 0.844-0.083 0.184-0.004 0.723 0.056 0.816 0.184 0.145 0.198 0.134 0.709 0.111 0.921-0.063 0.582 0.256 0.813 0.408 1.337 0.094 0.322 0.138 0.659 0.25 0.977 0.104 0.29 0.294 0.539 0.419 0.82 0.146 0.333 0.229 0.695 0.239 1.059 0.010 0.353-0.046 0.709-0.010 1.060 0.025 0.249 0.098 0.494 0.214 0.716 0.338 0.122 0.709-0.014 1.042-0.15 0.24-0.098 0.487-0.201 0.688-0.367 0.203-0.165 0.359-0.405 0.361-0.667-0.11-0.056-0.186-0.16-0.252-0.266-0.54-0.859-0.602-1.948-1.111-2.826-0.117-0.198-0.255-0.385-0.35-0.595-0.11-0.24-0.115-0.524-0.232-0.755-0.097-0.193-0.239-0.326-0.309-0.546-0.148-0.461-0.134-0.979-0.415-1.392-0.221-0.328-0.884-0.626-1.33-0.581z"></path>
<path d="M14.208 10.051c0-0.007-0.001-0.014-0.001-0.023-0.020-0.329 0.048-0.592-0.122-0.906-0.104-0.191-0.26-0.349-0.413-0.502-0.321-0.321-0.641-0.643-0.96-0.963-0.055-0.055-0.11-0.11-0.148-0.176-0.046-0.080-0.066-0.172-0.084-0.262l-0.19-0.899c-0.024-0.115-0.059-0.246-0.163-0.301-0.090-0.048-0.197-0.022-0.297-0.018-0.101 0.003-0.224-0.038-0.24-0.136-0.006-0.037 0.004-0.075 0.013-0.111 0.107-0.517-0.312-0.974-0.64-1.388-0.083-0.104-0.807-1.237-0.863-1.212-0.17 0.076-0.398-0.049-0.426-0.233-0.437-0.107-0.847 0.221-1.273 0.363-0.325 0.11-0.717 0.063-1.028 0.198-0.246 0.107-0.385 0.385-0.647 0.473-0.049 0.273-0.256 0.314-0.304 0.049-0.051-0.29 0.117-0.302 0.274-0.488 0.101-0.121 0.291-0.717 0.48-0.464 0.204-0.48 0.672-0.873 1.142-1.077 0.219-0.096 0.458-0.132 0.681-0.208 0.262-0.090 0.526-0.231 0.813-0.176 0.221 0.041 0.485 0.177 0.678 0.291 0.122 0.073 0.271 0.153 0.374 0.253 0.046 0.044 0.134 0.193 0.167 0.215 0.18 0.122 0.42 0.117 0.63 0.298 0.224 0.193 0.494 0.419 0.647 0.671 0.083 0.138 0.093 0.308 0.194 0.442 0.090 0.122 0.228 0.19 0.319 0.314 0.219 0.298 0.315 0.643 0.562 0.934 0.318 0.373 0.695 0.651 1.057 0.974 0.371 0.33 0.697 0.809 0.589 1.294-0.034 0.148-0.097 0.326 0.011 0.432 0.114 0.111 0.308 0.027 0.461 0.067 0.18 0.049 0.263 0.253 0.309 0.435 0.18 0.704 0.039 1.391 0.146 2.090 0.105 0.682-0.153 1.216-0.391 1.852-0.233 0.623-0.387 1.275-0.458 1.936-0.025 0.238-0.055 0.506-0.246 0.648-0.097 0.073-0.219 0.098-0.339 0.124-0.15 0.031-0.307 0.060-0.456 0.021-0.866-0.233-0.259-1.526-0.090-2.036 0.201-0.607 0.361-1.242 0.357-1.886-0.003-0.312-0.104-0.605-0.125-0.908z"></path>
<path d="M14.384 17.504c0.274-0.383 0.586-0.699 0.903-1.064 0.132-0.153 1.403-1.516 0.775-1.693 0.101-0.437 0.641-0.96 0.932-1.301 0.131-0.155 0.242-0.328 0.375-0.475 0.167-0.184 0.394-0.322 0.561-0.523 0.135-0.163 0.017-0.15 0.273-0.245 0.242-0.090 0.488-0.188 0.645 0.037 0.059 0.084 0.025 0.224 0.115 0.281 0.077 0.049 0.203-0.070 0.277-0.014 0.097 0.072 0.024 0.183 0.069 0.262 0.034 0.059 0.089 0.027 0.124 0.079 0.090 0.132 0.172 0.325 0.357 0.239 0.011 0.031 0.023 0.063 0.035 0.094 0.107-0.055 0.238-0.090 0.34-0.059 0.173 0.051 0.339 0.177 0.52 0.242 0.262 0.094 0.523 0.183 0.799 0.221 0.226 0.031 0.487 0.046 0.623 0.229 0.052 0.069 0.079 0.153 0.111 0.232 0.163 0.381 0.508 0.65 0.84 0.9-0.179-0.158-0.457-0.013-0.692-0.046-0.257-0.035-0.458-0.29-0.719-0.28-0.097 0.004-0.193 0.045-0.288 0.031-0.27-0.039-0.318-0.447-0.568-0.555-0.174-0.075-0.374 0.025-0.562 0.004-0.135-0.014-0.253-0.090-0.373-0.156-0.463-0.256-0.998-0.381-1.527-0.357-0.118 0.006-0.24 0.020-0.346 0.077-0.135 0.073-0.221 0.211-0.297 0.345-0.595 1.052-0.88 2.275-0.811 3.48 0.007 0.143 0.021 0.288-0.001 0.43-0.083 0.539-0.614 0.872-0.932 1.313-0.228 0.315-0.347 0.69-0.505 1.045-0.225 0.503-0.532 0.969-0.904 1.375-0.045 0.048-0.093 0.1-0.1 0.165-0.008 0.063 0.024 0.124 0.032 0.186 0.010 0.062-0.020 0.142-0.083 0.143-0.038 0.001-0.069-0.025-0.101-0.045-0.153-0.098-0.29-0.001-0.447-0.021-0.215-0.027-0.225-0.084-0.361-0.278-0.121-0.172-0.245-0.352-0.277-0.558-0.041-0.263 0.068-0.554-0.065-0.785 0.148-0.025 0.229-0.195 0.217-0.345-0.008-0.115-0.083-0.211-0.097-0.318-0.021-0.156 0.008-0.111 0.025-0.214 0.125-0.748 0.567-1.222 0.949-1.839 0.051-0.083 0.104-0.162 0.159-0.238z"></path>
<path d="M16.154 9.236c0.004-0.038 0.008-0.076 0.011-0.114 0.035-0.463-0.079-0.925 0.018-1.388 0.105-0.505 0.073-0.991 0.132-1.505 0.035-0.315 0.117-0.624 0.246-0.913 0.087-0.195 0.246-0.426 0.263-0.644 0.014-0.19-0.065-0.36-0.046-0.56 0.051-0.508 0.321-0.963 0.485-1.439 0.121-0.352-0.228-0.489-0.398-0.803-0.125-0.232-0.245-0.52-0.534-0.57-0.203-0.035-0.302 0.132-0.496 0.165-0.001-0.015-0.003-0.031-0.004-0.048 0.004 0-0.077 0.001-0.069 0.006 0.155-0.096 0.25-0.231 0.402-0.301 0.186-0.086 0.308-0.058 0.495-0.055 0.21 0.004 0.429-0.093 0.634-0.065 0.125 0.017 0.12 0.035 0.208 0.082 0.059 0.030 0.226 0.135 0.284 0.173 0.336 0.214 0.598 0.866 0.716 1.228 0.155 0.47 0.16 0.952 0.031 1.436-0.046 0.173-0.181 0.253-0.259 0.388-0.148 0.252-0.29 0.578-0.413 0.852-0.075 0.16-0.142 0.29-0.121 0.478 0.034 0.295 0.25 0.264 0.35 0.47 0.138 0.28-0.18 0.52-0.24 0.752-0.066 0.253-0.045 0.539-0.046 0.796-0.003 0.37-0.073 0.723-0.056 1.094 0.017 0.415 0.067 0.832 0.097 1.252 0.052 0.734-0.2 1.415-0.38 2.114-0.073 0.281-0.015 0.496-0.039 0.775-0.025 0.304-0.205 0.557-0.294 0.842-0.146 0.474-0.38 0.887-0.557 1.344-0.229 0.593-0.235 1.46-0.713 1.91-0.12-0.437-0.25-0.809-0.249-1.271 0-0.217-0.004-0.347-0.082-0.509-0.089-0.19-0.145-0.259-0.134-0.509 0.014-0.298 0.003-0.609 0.027-0.907 0.038-0.501 0.269-0.963 0.319-1.46 0.052-0.516-0.034-1.029 0.058-1.545 0.091-0.508 0.292-1.038 0.354-1.551z"></path>
<path d="M9.367 13.061c-0.897-0.096-1.728-0.63-2.625-0.239-0.51 0.224-0.934 0.537-1.413 0.814-0.114 0.066-0.304 0.104-0.397 0.201-0.143 0.15-0.215 0.397-0.357 0.565-0.375 0.44-0.796 0.752-1.097 1.259-0.162 0.273-0.316 0.527-0.492 0.796-0.165 0.25-0.288 0.465-0.319 0.761-0.017 0.145 0.045 0.342-0.001 0.48-0.046 0.136-0.215 0.236-0.256 0.381-0.031 0.108 0.124 0.125 0.014 0.278 0.215 0.096 0.631 0.072 0.913-0.056 0.347-0.157 0.52-0.564 0.859-0.709 0.21-0.090 0.449 0.004 0.671-0.038 0.255-0.048 0.34-0.181 0.562-0.328 0.423-0.28 1.052-0.622 1.576-0.451 0.339 0.11 0.703 0.308 1.031 0.463 0.288 0.135 0.596 0.146 0.883 0.26 0.252 0.098 0.43 0.373 0.676 0.513 0.163 0.093 0.319 0.101 0.485 0.173 0.228 0.096 0.383 0.29 0.633 0.323 0.266 0.035 0.52-0.089 0.751-0.187 0.297-0.127 0.437-0.146 0.744-0.131 0.118 0.007 0.384 0.044 0.463-0.032 0.104-0.101 0.138-0.574 0.214-0.733 0.408-0.852 0.309-1.703-0.278-2.416-0.187-0.226-0.218-0.517-0.397-0.707-0.136-0.145-0.384-0.17-0.534-0.284-0.36-0.276-0.539-0.494-0.987-0.668-0.42-0.163-0.873-0.24-1.32-0.288z"></path>
<path d="M18.304 20.047c0.568-0.523 1.057-1.117 1.64-1.64 0.293-0.263 0.596-0.617 0.942-0.809 0.429-0.239 0.962-0.136 1.417-0.316 0.772-0.304 1.593-0.941 2.427-1.029 0.471-0.051 0.259 0.076 0.413 0.385 0.218 0.435 0.896 0.148 1.27 0.226 0.326 0.067 0.474 0.347 0.803 0.426 0.321 0.076 0.475-0.011 0.714 0.181 0.494 0.399 0.793 0.946 0.972 1.558 0.146 0.498 0.015 0.811-0.041 1.311-0.044 0.384 0.070 0.69 0.193 1.038 0.15 0.425 0.43 0.966 0.446 1.427 0.017 0.501-0.242 0.675-0.593 0.987 0.013 0.004 0.027 0.008 0.041 0.014-0.031 0.039-0.077 0.072-0.111 0.111 0.008-0.203-0.042-0.349-0.107-0.529-0.225 0.198-0.398 0.044-0.605-0.037-0.519-0.201-1.031-0.198-1.257-0.733-0.214-0.502-0.568-0.623-1.034-0.854-0.271-0.135-0.43-0.342-0.728-0.436-0.259-0.080-0.56-0.115-0.828-0.146-0.502-0.058-0.96 0.105-1.458 0.128-0.584 0.025-1.282-0.069-1.801 0.236-0.612 0.359-1.544 0.758-2.111 0.042-0.141-0.179-0.18-0.406-0.325-0.591-0.115-0.146-0.302-0.255-0.398-0.42-0.232-0.394 0.055-0.451 0.12-0.533z"></path>
<path d="M10.82 21.885c-0.003 0-0.006-0.001-0.008-0.001-0.364-0.090-0.71-0.249-1.094-0.166-0.443 0.096-0.688 0.516-1.056 0.738-0.333 0.201-0.776 0.247-1.128 0.412-0.374 0.173-0.758 0.558-1 0.872-0.24 0.312-0.259 0.593-0.432 0.886-0.201 0.336-0.615 0.606-0.741 0.993-0.060 0.187-0.001 0.35 0.010 0.534 0.018 0.293-0.087 0.56-0.073 0.855 0.004 0.113 0.042 0.302 0.065 0.416 0.021 0.108-0.001 0.191 0.037 0.291 0.020 0.053 0.152 0.093 0.188 0.193 0.060 0.169-0.018 0.413 0.028 0.598 0.038 0.149 0.141 0.318 0.184 0.478 0.072 0.26 0.153 0.54 0.172 0.823 0.025 0.015 0.058-0.001 0.086 0.008-0.041 0.243 0.406 0.319 0.574 0.253-0.066-0.163-0.105-0.475-0.060-0.672 0.063-0.269 0.104-0.208 0.333-0.397 0.195-0.16 0.252-0.343 0.361-0.565 0.117-0.239 0.405-0.468 0.487-0.717 0.869-0.015 1.354-0.605 2.132-0.844 0.338-0.103 0.737-0.166 1.084-0.246 0.264-0.062 0.546-0.021 0.765-0.212 0.26-0.226 0.222-0.544 0.499-0.778 0.231-0.194 0.803-0.394 0.855-0.734 0.011-0.070-0.082-0.174-0.091-0.264-0.008-0.082 0.027-0.205 0.001-0.281-0.037-0.115-0.143-0.143-0.188-0.242-0.155-0.336 0.108-0.696 0.062-1.073-0.068-0.554-0.449-1.012-0.996-1.074-0.357-0.041-0.703 0.003-1.055-0.083z"></path>
<path d="M11.755 17.501c0.044-0.015 0.039-0.048 0.089-0.028 0.052 0.142 0.025 0.298 0.087 0.442 0.103 0.238 0.367 0.333 0.506 0.537 0.118 0.172 0.104 0.349 0.177 0.537 0.066 0.17 0.184 0.24 0.256 0.394 0.093 0.201 0.039 0.453 0.113 0.664 0.049 0.141 0.155 0.246 0.197 0.404 0.053 0.193-0.010 0.675 0.256 0.712 0.027 0.581 0.094 1.225 0.29 1.777 0.152 0.427 0.226 0.721 0.253 1.207 0.024 0.433 0.16 0.816 0.162 1.242 0.004 0.976-0.039 1.837-0.186 2.793-0.077 0.51-0.155 1.308-0.069 1.806 0.062 0.36 0.366 0.598 0.259 0.965 0.48 0.242 0.33-0.442 0.371-0.71 0.086-0.582 0.145-1.2 0.118-1.782-0.025-0.529-0.034-1.079-0.008-1.611 0.013-0.276-0.049-0.516-0.032-0.789 0.020-0.342 0.117-0.652 0.089-1.004-0.053-0.674-0.52-1.398-0.491-2.036 0.014-0.336 0.152-0.544 0.093-0.904-0.055-0.336-0.172-0.657-0.27-0.982-0.15-0.505-0.037-0.935-0.312-1.422-0.186-0.328-0.443-0.603-0.61-0.949-0.113-0.231-0.174-0.499-0.311-0.716-0.094-0.152-0.281-0.243-0.371-0.388-0.107-0.172-0.058-0.402-0.304-0.443-0.17-0.028-0.349 0.124-0.346 0.284 0.049-0.023 0.108-0.013-0.004 0.003z"></path>
<path d="M14.236 28.539c-0.165-0.27-0.011-0.603 0.034-0.886 0.037-0.225 0.003-0.447 0.030-0.672 0.052-0.451 0.285-0.841 0.271-1.305-0.020-0.581 0.277-0.734 0.555-1.209 0.17-0.29 0.149-0.631 0.383-0.903 0.152-0.177 0.398-0.276 0.544-0.465 0.125-0.16 0.163-0.328 0.281-0.501 0.162-0.233 0.316-0.465 0.509-0.674 0.294-0.316 0.645-0.599 0.963-0.892 0.271-0.25 0.444-0.495 0.758-0.7 0.536-0.35 1.285-0.512 1.894-0.702-0.032-0.008-0.049 0.020-0.075 0.027 0.035 0 0.103 0.001 0.141 0.013-0.167 0.167-0.464 0.411-0.596 0.599-0.176 0.252 0.013 0.132 0.028 0.409-0.392-0.041-0.863 0.361-1.181 0.547-0.294 0.172-0.657 0.239-0.91 0.447-0.539 0.444-0.807 1.216-1.299 1.755-0.153 0.166-0.398 0.3-0.512 0.499-0.098 0.17-0.158 0.419-0.245 0.603-0.162 0.345-0.198 0.689-0.325 1.045-0.114 0.323-0.281 0.588-0.366 0.922-0.108 0.43-0.125 0.913-0.184 1.368-0.055 0.432-0.008 0.875-0.118 1.285-0.105 0.395-0.221 0.706-0.108 1.062-0.439 0.152-0.377-0.986-0.406-1.17-0.031-0.191-0.134-0.539-0.066-0.503z"></path>
<path d="M14.363 26.28c0.003-0.487 0.121-0.827-0.143-1.274-0.101-0.17-0.281-0.391-0.46-0.478-0.073-0.034-0.236-0.020-0.29-0.059-0.045-0.032-0.082-0.155-0.093-0.162-0.569-0.359-0.866 0.153-1.332 0.442 0.105-0.26 0.215-0.693 0.473-0.855 0.152-0.094 0.408-0.067 0.574-0.076 0.143-0.007 0.415-0.107 0.54-0.084 0.159 0.030 0.328 0.187 0.398 0.319 0.045 0.082 0.037 0.21 0.077 0.29-0.023-0.044 0.163 0.129 0.16 0.125 0.122 0.142 0.142 0.309 0.191 0.491 0.056 0.212 0.19 0.39 0.255 0.589 0.104 0.316 0.101 1.041-0.409 0.727-0.008-0.032 0-0.058 0.059 0.006z"></path>
<path d="M14.808 25.454c0.001-0.318 0.003-0.591 0.103-0.889 0.083-0.249 0.248-0.489 0.21-0.761-0.155-0.084-0.069-0.281-0.089-0.443-0.028-0.236-0.149-0.309-0.218-0.513-0.065-0.188-0.032-0.419-0.069-0.606-0.034-0.174-0.089-0.285-0.096-0.478-0.027-0.685 0.134-1.074 0.381-1.658 0.136 0.302 0.060 0.996 0.096 1.357 0.044 0.423 0.034 0.872 0.097 1.253 0.063 0.387 0.173 0.719 0.149 1.091-0.021 0.343-0.046 0.599-0.143 0.914-0.108 0.353-0.201 0.629-0.229 1.011 0-0.028 0-0.058-0.191-0.278z"></path>
</svg>
