<!-- Generated by IcoMoon.io -->
<svg version="1.1" xmlns="http://www.w3.org/2000/svg" width="32" height="32" viewBox="0 0 32 32">
<title>deadly_weather</title>
<path d="M16.013 1.832c-0.041 0.046-0.036 0.136-0.039 0.194-0.002 0.092-0.002 0.187 0 0.279 0.019-0.061 0.036-0.121 0.041-0.179 0.007-0.095-0.005-0.196-0.002-0.293z"></path>
<path d="M19.584 3.891c0.002-0.255-0.036-0.505-0.036-0.762 0.002-0.114 0.007-0.233-0.007-0.347 0 0.002-0.002 0.007-0.005 0.010 0-0.024-0.002-0.046-0.005-0.068 0.002 0.019 0.007 0.039 0.010 0.058 0.007-0.012 0.012-0.027 0.012-0.041 0-0.027-0.015-0.051-0.029-0.075-0.007-0.039-0.015-0.078-0.022-0.119-0.032-0.204-0.223-0.332-0.383-0.449-0.056-0.044-0.109-0.095-0.155-0.143-0.080-0.085-0.073-0.082-0.192 0.019 0.099 0.099 0.163 0.206 0.201 0.344 0.034 0.119 0.095 0.228 0.112 0.352 0.015 0.107 0.044 0.209 0.061 0.315 0.022 0.126 0.007 0.257 0.017 0.383 0.002 0.053 0.010 0.104 0.015 0.158-0.121 0.274-0.252 0.529-0.434 0.771-0.107 0.143-0.194 0.325-0.323 0.446-0.189 0.182-0.415 0.347-0.638 0.485-0.143 0.090-0.291 0.138-0.441 0.211-0.133 0.061-0.23 0.102-0.378 0.114-0.095 0.007-0.172 0.007-0.262 0.041-0.058 0.022-0.112 0.048-0.17 0.065 0.032-0.247 0.068-0.492 0.082-0.74 0.010-0.184 0.017-0.383-0.017-0.565-0.056-0.281-0.041-0.563-0.099-0.844-0.065-0.32-0.015-0.662-0.063-0.99-0.012-0.085-0.017-0.17-0.027-0.255-0.017-0.138-0.080-0.277-0.112-0.412-0.065-0.279-0.133-0.572-0.136-0.856-0.141 0-0.126 0.284-0.141 0.56-0.007 0.097-0.027 0.192-0.044 0.286 0-0.034 0-0.065 0.002-0.097 0-0.039-0.002-0.080-0.002-0.121-0.029 0.095-0.068 0.187-0.092 0.277-0.075 0.245-0.119 0.471-0.116 0.728 0.002 0.148 0.007 0.293-0.017 0.441-0.022 0.131-0.017 0.257-0.017 0.388 0 0.289-0.010 0.577 0.002 0.864 0.015 0.327 0.075 0.652 0.097 0.978 0.005 0.099 0.005 0.204 0.007 0.303-0.133-0.022-0.262-0.056-0.383-0.112-0.007-0.002-0.015-0.002-0.022-0.005-0.063-0.005-0.090 0.015-0.143-0.024-0.063-0.048-0.058-0.146-0.099-0.196-0.065-0.085-0.204 0.032-0.286 0.012-0.092-0.022-0.172-0.133-0.228-0.211-0.039-0.051-0.065-0.075-0.121-0.114-0.102-0.068-0.226-0.146-0.308-0.238s-0.126-0.209-0.201-0.306c-0.129-0.17-0.337-0.279-0.441-0.471-0.029-0.056-0.053-0.119-0.082-0.177-0.097-0.201-0.104-0.386-0.107-0.616-0.005-0.344 0.002-0.689 0.002-1.033-0.002-0.051-0.126-0.155-0.194-0.036-0.024 0.044-0.010 0.078-0.017 0.124-0.010 0.049-0.027 0.092-0.036 0.141-0.075 0.407-0.405 0.771-0.233 1.203 0.044 0.107 0.112 0.206 0.162 0.311 0.049 0.104 0.046 0.211 0.063 0.323 0.029 0.179 0.065 0.391 0.131 0.558 0.058 0.148 0.090 0.318 0.184 0.441 0.036 0.048 0.058 0.056 0.099 0.095 0.070 0.065 0.085 0.17 0.148 0.24 0.104 0.114 0.25 0.146 0.386 0.204 0.138 0.058 0.267 0.126 0.412 0.162 0.162 0.044 0.323 0.155 0.444 0.274 0.065 0.065 0.119 0.126 0.167 0.204 0.070 0.107 0.138 0.133 0.272 0.138 0.129 0.005 0.23-0.036 0.354-0.012 0.022 0.002 0.044 0.005 0.068 0.010-0.005 0.058-0.005 0.116-0.007 0.172-0.017 0.196-0.036 0.391-0.056 0.585-0.075-0.015-0.148-0.036-0.221-0.046-0.053-0.007-0.124-0.019-0.177-0.007-0.099 0.022-0.189 0.153-0.293 0.162-0.053 0.007-0.138-0.002-0.189-0.015-0.087-0.022-0.158-0.107-0.247-0.121-0.073-0.012-0.209 0.012-0.129 0.065-0.063-0.005-0.049 0.374-0.051 0.405-0.005 0.097-0.034 0.196 0.029 0.26 0.039 0.039 0.080 0.034 0.126 0.039 0.063 0.005 0.112 0.034 0.172 0.046 0.153 0.027 0.277-0.092 0.422-0.085 0.148 0.007 0.291-0.019 0.439-0.010 0.019 0 0.039 0.002 0.058 0.002 0 0.015-0.002 0.027-0.002 0.041-0.015 0.24-0.012 0.483-0.010 0.725-0.049-0.015-0.099-0.027-0.148-0.034-0.053-0.007-0.124-0.017-0.177-0.007-0.099 0.024-0.189 0.155-0.293 0.165-0.053 0.005-0.138-0.005-0.189-0.017-0.087-0.022-0.158-0.104-0.247-0.119-0.073-0.015-0.209 0.010-0.129 0.065-0.063-0.005-0.049 0.374-0.051 0.405-0.005 0.097-0.034 0.194 0.029 0.257 0.039 0.039 0.080 0.034 0.126 0.039 0.063 0.007 0.112 0.036 0.172 0.046 0.153 0.027 0.277-0.090 0.422-0.082 0.148 0.007 0.291-0.019 0.439-0.012 0.015 0.002 0.029 0.002 0.044 0.002-0.002 0.189-0.007 0.381-0.015 0.57-0.044-0.012-0.087-0.024-0.131-0.029-0.053-0.007-0.124-0.019-0.177-0.007-0.099 0.024-0.189 0.153-0.293 0.165-0.053 0.005-0.138-0.005-0.189-0.017-0.087-0.022-0.158-0.104-0.247-0.121-0.073-0.012-0.209 0.012-0.129 0.065-0.063-0.005-0.049 0.374-0.051 0.408-0.005 0.095-0.034 0.194 0.029 0.257 0.039 0.039 0.080 0.034 0.126 0.039 0.063 0.007 0.112 0.034 0.172 0.046 0.153 0.027 0.277-0.090 0.422-0.082 0.148 0.007 0.291-0.019 0.439-0.012h0.012c0 0.063 0 0.126 0.002 0.187 0.012 0.284 0.070 0.563 0.090 0.847 0.034 0.495 0.090 0.99 0.087 1.484-0.002 0.589-0.015 1.159 0.102 1.739 0.065 0.332 0.172 0.679 0.175 1.019 0.039 0.085 0.082 0.165 0.158 0.172 0.124 0.012 0.090-0.146 0.087-0.23-0.002-0.104-0.036-0.189-0.036-0.293s-0.015-0.226 0.002-0.327c0.036-0.187 0.107-0.381 0.153-0.57 0.032-0.131 0.053-0.264 0.092-0.395 0.082-0.298 0.201-0.589 0.238-0.897 0.036-0.332-0.019-0.677-0.034-1.007-0.015-0.347-0.019-0.691-0.051-1.038-0.017-0.216-0.046-0.429-0.063-0.643 0.049-0.005 0.097-0.012 0.148-0.019 0.126-0.019 0.255-0.007 0.381-0.032 0.058-0.012 0.090-0.022 0.148 0.007 0.044 0.024 0.073 0.058 0.126 0.061 0.129 0.007 0.126-0.126 0.192-0.23 0.056 0.036 0.092 0.053 0.15 0.005 0.019-0.017 0.032-0.044 0.051-0.058 0.041-0.034 0.092-0.029 0.138-0.046-0.039-0.102-0.044-0.192-0.039-0.308 0.002-0.049 0-0.104 0.012-0.15 0.017-0.063 0.080-0.116 0.061-0.192-0.15 0.087-0.315 0.078-0.475 0.121-0.104 0.029-0.209 0.015-0.313 0.007-0.112-0.005-0.228-0.015-0.337 0.027-0.090 0.034-0.175 0.049-0.267 0.046 0-0.175 0-0.347 0-0.521 0.056-0.002 0.112-0.010 0.172-0.017 0.126-0.019 0.255-0.010 0.381-0.034 0.058-0.010 0.090-0.022 0.148 0.007 0.044 0.024 0.073 0.061 0.126 0.063 0.129 0.007 0.126-0.129 0.192-0.233 0.056 0.039 0.092 0.053 0.15 0.005 0.019-0.015 0.032-0.044 0.051-0.058 0.041-0.034 0.092-0.027 0.138-0.044-0.039-0.102-0.044-0.192-0.039-0.308 0.002-0.049 0-0.107 0.012-0.153 0.017-0.063 0.080-0.116 0.061-0.189-0.15 0.087-0.315 0.075-0.475 0.119-0.104 0.029-0.209 0.017-0.313 0.010-0.112-0.007-0.228-0.017-0.337 0.024-0.097 0.036-0.189 0.056-0.291 0.049-0.017-0.24-0.039-0.478-0.058-0.716 0.087 0.002 0.167-0.007 0.255-0.019 0.126-0.019 0.255-0.007 0.381-0.032 0.058-0.012 0.090-0.024 0.148 0.007 0.044 0.022 0.073 0.058 0.126 0.061 0.129 0.007 0.126-0.126 0.192-0.233 0.056 0.039 0.092 0.053 0.15 0.007 0.019-0.017 0.032-0.046 0.051-0.061 0.041-0.032 0.092-0.027 0.138-0.044-0.039-0.102-0.044-0.192-0.039-0.308 0.002-0.048 0-0.104 0.012-0.153 0.017-0.063 0.080-0.114 0.061-0.189-0.15 0.087-0.315 0.078-0.475 0.121-0.104 0.027-0.209 0.015-0.313 0.007-0.112-0.007-0.228-0.015-0.337 0.027-0.099 0.036-0.189 0.056-0.294 0.046-0.041-0.005-0.082-0.012-0.124-0.022-0.017-0.192-0.029-0.386-0.041-0.577 0.005-0.032 0.010-0.061 0.015-0.090 0.039 0 0.080 0 0.119 0 0.18 0.005 0.337-0.121 0.514-0.155 0.092-0.019 0.172-0.019 0.262-0.019 0.065 0 0.124-0.022 0.187-0.036 0.114-0.024 0.235-0.032 0.344-0.078 0.23-0.097 0.407-0.264 0.563-0.454 0.087-0.104 0.204-0.179 0.296-0.279 0.078-0.082 0.155-0.165 0.238-0.24 0.184-0.167 0.41-0.318 0.524-0.546 0.124-0.247 0.075-0.572 0.078-0.842z"></path>
<path d="M5.666 5.621c0.005 0.063 0.070 0.121 0.109 0.165 0.063 0.068 0.131 0.131 0.199 0.196-0.029-0.056-0.061-0.109-0.099-0.155-0.061-0.073-0.143-0.136-0.209-0.206z"></path>
<path d="M10.125 5.029c-0.177-0.182-0.383-0.33-0.563-0.514-0.080-0.080-0.16-0.167-0.252-0.238 0.002 0.002 0.002 0.005 0.005 0.007-0.017-0.017-0.034-0.029-0.053-0.041 0.017 0.010 0.034 0.022 0.049 0.034-0.005-0.015-0.010-0.027-0.019-0.039-0.019-0.017-0.046-0.027-0.075-0.034-0.032-0.022-0.065-0.044-0.099-0.068-0.165-0.121-0.393-0.078-0.587-0.046-0.070 0.010-0.143 0.012-0.213 0.010-0.116-0.005-0.107-0.007-0.121 0.15 0.141 0 0.26 0.029 0.386 0.099 0.109 0.061 0.228 0.095 0.33 0.17 0.087 0.065 0.177 0.116 0.267 0.179 0.102 0.073 0.184 0.177 0.281 0.26 0.039 0.034 0.080 0.068 0.121 0.102 0.109 0.277 0.196 0.553 0.24 0.851 0.024 0.177 0.090 0.369 0.087 0.543-0.005 0.264-0.049 0.541-0.109 0.793-0.039 0.165-0.109 0.306-0.165 0.463-0.049 0.138-0.090 0.235-0.184 0.349-0.063 0.073-0.116 0.126-0.155 0.211-0.027 0.058-0.046 0.114-0.075 0.167-0.153-0.196-0.301-0.395-0.466-0.58-0.121-0.138-0.257-0.284-0.41-0.388-0.24-0.16-0.427-0.369-0.667-0.526-0.274-0.182-0.48-0.458-0.745-0.655-0.070-0.051-0.133-0.109-0.199-0.16-0.112-0.087-0.252-0.141-0.371-0.216-0.243-0.15-0.5-0.308-0.701-0.507-0.099 0.099 0.109 0.289 0.296 0.495 0.065 0.073 0.116 0.153 0.172 0.233-0.024-0.024-0.046-0.046-0.068-0.068-0.029-0.029-0.058-0.058-0.087-0.085 0.046 0.087 0.085 0.179 0.129 0.26 0.121 0.226 0.25 0.417 0.434 0.597 0.107 0.104 0.213 0.204 0.301 0.325 0.078 0.107 0.17 0.194 0.262 0.286 0.204 0.204 0.403 0.415 0.614 0.609 0.24 0.221 0.512 0.408 0.759 0.623 0.073 0.065 0.146 0.138 0.218 0.209-0.109 0.078-0.223 0.146-0.349 0.192-0.007 0.005-0.015 0.007-0.019 0.012-0.049 0.041-0.053 0.075-0.119 0.082-0.078 0.012-0.143-0.061-0.209-0.068-0.107-0.012-0.121 0.167-0.194 0.211-0.080 0.049-0.216 0.029-0.311 0.015-0.063-0.010-0.099-0.007-0.167 0.005-0.119 0.022-0.262 0.056-0.383 0.049-0.126-0.007-0.238-0.061-0.359-0.075-0.213-0.027-0.437 0.041-0.645-0.019-0.061-0.019-0.121-0.046-0.182-0.068-0.213-0.073-0.349-0.199-0.512-0.359-0.247-0.24-0.488-0.49-0.73-0.733-0.039-0.034-0.199-0.019-0.162 0.112 0.012 0.046 0.048 0.061 0.073 0.099 0.029 0.041 0.048 0.082 0.078 0.124 0.233 0.342 0.257 0.832 0.684 1.016 0.107 0.046 0.226 0.065 0.335 0.104s0.182 0.116 0.274 0.184c0.146 0.107 0.32 0.23 0.485 0.301 0.146 0.063 0.289 0.16 0.444 0.182 0.058 0.010 0.080-0.002 0.136-0.002 0.097-0.002 0.179 0.061 0.277 0.063 0.153 0.007 0.279-0.073 0.415-0.129 0.138-0.056 0.279-0.097 0.407-0.175 0.146-0.085 0.337-0.119 0.507-0.119 0.092 0 0.172 0.005 0.262 0.022 0.126 0.029 0.194-0.002 0.291-0.092 0.095-0.087 0.136-0.189 0.24-0.26 0.019-0.012 0.036-0.027 0.056-0.041 0.039 0.044 0.080 0.085 0.116 0.129 0.126 0.15 0.25 0.301 0.374 0.454-0.061 0.041-0.131 0.078-0.189 0.121-0.041 0.032-0.099 0.075-0.129 0.119-0.056 0.090-0.027 0.243-0.092 0.325-0.034 0.041-0.102 0.095-0.146 0.121-0.078 0.049-0.184 0.036-0.26 0.090-0.061 0.044-0.141 0.155-0.044 0.138-0.049 0.041 0.228 0.298 0.25 0.323 0.063 0.073 0.114 0.162 0.201 0.162 0.056 0 0.082-0.034 0.119-0.063 0.049-0.039 0.104-0.053 0.153-0.090 0.129-0.087 0.131-0.257 0.24-0.357s0.192-0.218 0.303-0.318c0.015-0.012 0.029-0.027 0.044-0.039 0.010 0.010 0.017 0.022 0.027 0.032 0.16 0.18 0.332 0.349 0.505 0.519-0.044 0.027-0.087 0.051-0.126 0.082-0.044 0.032-0.102 0.073-0.131 0.119-0.053 0.087-0.024 0.243-0.092 0.323-0.034 0.044-0.102 0.097-0.143 0.121-0.080 0.049-0.187 0.039-0.262 0.090-0.061 0.044-0.141 0.158-0.044 0.138-0.049 0.041 0.23 0.301 0.25 0.323 0.065 0.073 0.114 0.162 0.204 0.162 0.053 0 0.080-0.034 0.116-0.061 0.049-0.039 0.104-0.056 0.155-0.090 0.126-0.090 0.131-0.26 0.238-0.357 0.109-0.099 0.194-0.221 0.303-0.32 0.012-0.010 0.022-0.019 0.034-0.029 0.131 0.136 0.262 0.274 0.391 0.412-0.039 0.024-0.078 0.046-0.114 0.073-0.041 0.032-0.099 0.075-0.129 0.121-0.056 0.087-0.027 0.243-0.092 0.323-0.034 0.044-0.102 0.097-0.146 0.121-0.078 0.049-0.184 0.039-0.26 0.090-0.061 0.044-0.141 0.158-0.044 0.138-0.049 0.041 0.228 0.298 0.25 0.323 0.065 0.073 0.114 0.162 0.201 0.162 0.056 0 0.082-0.034 0.119-0.063 0.049-0.039 0.104-0.053 0.153-0.087 0.129-0.090 0.131-0.26 0.24-0.357 0.109-0.099 0.192-0.221 0.303-0.32 0.002-0.002 0.007-0.005 0.010-0.007 0.044 0.044 0.087 0.087 0.133 0.129 0.209 0.194 0.449 0.349 0.662 0.536 0.512 0.449 0.849 0.723 1.111 0.99 0.415 0.417 0.81 0.827 1.3 1.157 0.281 0.187 0.604 0.357 0.844 0.594 0.087 0.034 0.177 0.061 0.233 0.012 0.097-0.078-0.039-0.167-0.099-0.226-0.078-0.070-0.16-0.107-0.233-0.182-0.073-0.073-0.172-0.148-0.23-0.233-0.107-0.158-0.194-0.344-0.296-0.509-0.070-0.116-0.148-0.228-0.213-0.344-0.153-0.272-0.274-0.56-0.468-0.803-0.209-0.262-0.49-0.466-0.735-0.691-0.255-0.233-0.502-0.473-0.769-0.696-0.165-0.141-0.337-0.272-0.502-0.41 0.032-0.036 0.063-0.075 0.092-0.116 0.078-0.104 0.177-0.189 0.247-0.293 0.034-0.049 0.049-0.080 0.109-0.099 0.049-0.015 0.095-0.010 0.133-0.046 0.097-0.085 0-0.18-0.029-0.298 0.068-0.012 0.102-0.027 0.112-0.104 0.002-0.024-0.010-0.053-0.007-0.078 0.007-0.053 0.046-0.085 0.068-0.129-0.099-0.044-0.167-0.104-0.245-0.192-0.032-0.036-0.075-0.073-0.099-0.114-0.034-0.056-0.027-0.138-0.092-0.177-0.044 0.167-0.167 0.277-0.252 0.422-0.051 0.092-0.133 0.158-0.213 0.226-0.082 0.075-0.172 0.15-0.221 0.257-0.039 0.087-0.087 0.158-0.155 0.221-0.124-0.124-0.247-0.245-0.369-0.369 0.039-0.041 0.073-0.085 0.109-0.133 0.075-0.104 0.175-0.187 0.245-0.293 0.034-0.049 0.049-0.080 0.109-0.099 0.049-0.015 0.095-0.010 0.133-0.044 0.097-0.087 0-0.179-0.027-0.301 0.065-0.012 0.102-0.027 0.109-0.104 0.002-0.024-0.010-0.053-0.005-0.075 0.005-0.056 0.046-0.087 0.065-0.131-0.099-0.044-0.165-0.104-0.245-0.189-0.032-0.036-0.075-0.075-0.099-0.116-0.034-0.056-0.027-0.138-0.090-0.177-0.046 0.167-0.17 0.277-0.252 0.422-0.053 0.092-0.136 0.158-0.216 0.226-0.082 0.075-0.172 0.15-0.221 0.257-0.041 0.095-0.092 0.172-0.172 0.238-0.179-0.155-0.364-0.308-0.546-0.463 0.061-0.058 0.114-0.121 0.165-0.194 0.078-0.102 0.175-0.187 0.247-0.291 0.034-0.051 0.049-0.080 0.109-0.099 0.049-0.015 0.095-0.010 0.133-0.046 0.097-0.087 0-0.18-0.029-0.298 0.065-0.012 0.102-0.029 0.112-0.104 0.002-0.024-0.010-0.053-0.007-0.078 0.007-0.053 0.046-0.085 0.068-0.129-0.099-0.044-0.167-0.104-0.245-0.192-0.034-0.036-0.075-0.073-0.099-0.114-0.034-0.056-0.027-0.138-0.092-0.177-0.044 0.167-0.167 0.277-0.252 0.422-0.053 0.092-0.136 0.155-0.213 0.226-0.085 0.073-0.175 0.15-0.221 0.257-0.044 0.095-0.095 0.172-0.175 0.24-0.032 0.027-0.065 0.049-0.102 0.070-0.148-0.124-0.293-0.25-0.439-0.378-0.017-0.024-0.036-0.049-0.053-0.073 0.029-0.029 0.058-0.056 0.085-0.082 0.131-0.124 0.153-0.327 0.252-0.475 0.053-0.078 0.109-0.133 0.175-0.199 0.044-0.046 0.070-0.102 0.104-0.155 0.063-0.102 0.146-0.192 0.189-0.301 0.095-0.23 0.099-0.475 0.078-0.718-0.012-0.136 0.017-0.272 0.012-0.407-0.005-0.114-0.007-0.226-0.002-0.34 0.012-0.247 0.065-0.512-0.015-0.754-0.087-0.262-0.352-0.456-0.541-0.65z"></path>
<path d="M1.171 16.228c0.046 0.041 0.136 0.036 0.194 0.039 0.092 0.002 0.187 0.002 0.279 0-0.061-0.019-0.121-0.036-0.179-0.041-0.095-0.007-0.196 0.005-0.293 0.002z"></path>
<path d="M3.906 12.658c-0.255-0.002-0.505 0.039-0.762 0.036-0.114-0.002-0.233-0.007-0.347 0.007 0.002 0 0.007 0.002 0.010 0.005-0.024 0-0.046 0.002-0.068 0.005 0.019-0.002 0.039-0.007 0.058-0.010-0.012-0.007-0.027-0.012-0.041-0.012-0.027 0-0.051 0.015-0.075 0.029-0.039 0.007-0.078 0.015-0.119 0.022-0.204 0.032-0.332 0.223-0.449 0.383-0.044 0.056-0.095 0.109-0.143 0.155-0.085 0.080-0.082 0.073 0.019 0.192 0.099-0.099 0.206-0.162 0.344-0.201 0.119-0.034 0.228-0.095 0.352-0.112 0.107-0.015 0.209-0.044 0.315-0.061 0.126-0.022 0.257-0.007 0.383-0.017 0.053-0.002 0.104-0.010 0.158-0.015 0.274 0.121 0.529 0.252 0.771 0.434 0.143 0.107 0.325 0.194 0.446 0.323 0.182 0.189 0.347 0.415 0.485 0.638 0.090 0.143 0.138 0.291 0.211 0.441 0.061 0.133 0.102 0.23 0.114 0.378 0.007 0.095 0.007 0.172 0.041 0.262 0.022 0.058 0.048 0.112 0.065 0.17-0.247-0.032-0.492-0.068-0.74-0.082-0.184-0.010-0.383-0.017-0.565 0.017-0.281 0.056-0.563 0.041-0.844 0.099-0.32 0.065-0.662 0.015-0.99 0.063-0.085 0.012-0.17 0.017-0.255 0.027-0.138 0.017-0.277 0.080-0.412 0.112-0.279 0.065-0.572 0.133-0.856 0.136 0 0.141 0.284 0.126 0.56 0.141 0.097 0.007 0.192 0.027 0.286 0.044-0.034 0-0.065 0-0.097 0-0.039 0-0.080 0-0.121 0 0.095 0.029 0.187 0.068 0.277 0.095 0.245 0.073 0.471 0.116 0.728 0.114 0.15-0.002 0.293-0.007 0.441 0.017 0.131 0.022 0.257 0.017 0.391 0.017 0.286 0 0.575 0.010 0.861-0.002 0.327-0.015 0.652-0.075 0.978-0.097 0.099-0.005 0.204-0.005 0.303-0.007-0.022 0.133-0.056 0.262-0.112 0.383-0.002 0.007-0.002 0.015-0.005 0.022-0.005 0.063 0.015 0.090-0.024 0.143-0.048 0.063-0.146 0.058-0.196 0.099-0.085 0.065 0.032 0.204 0.012 0.286-0.022 0.092-0.133 0.172-0.211 0.228-0.051 0.039-0.075 0.065-0.114 0.124-0.068 0.099-0.146 0.223-0.238 0.306s-0.209 0.126-0.306 0.201c-0.17 0.129-0.279 0.337-0.471 0.441-0.056 0.029-0.119 0.053-0.177 0.082-0.201 0.097-0.386 0.104-0.616 0.107-0.344 0.005-0.689-0.002-1.033-0.002-0.051 0.002-0.155 0.126-0.036 0.194 0.044 0.024 0.078 0.010 0.124 0.017 0.049 0.010 0.092 0.027 0.141 0.036 0.407 0.075 0.771 0.405 1.203 0.233 0.107-0.044 0.206-0.112 0.311-0.163 0.104-0.049 0.211-0.046 0.323-0.063 0.179-0.029 0.391-0.065 0.558-0.131 0.148-0.058 0.318-0.090 0.441-0.184 0.048-0.036 0.056-0.058 0.095-0.099 0.065-0.070 0.17-0.085 0.24-0.148 0.114-0.104 0.146-0.25 0.204-0.386 0.058-0.138 0.126-0.267 0.162-0.412 0.044-0.163 0.155-0.323 0.274-0.444 0.065-0.065 0.126-0.119 0.204-0.167 0.107-0.070 0.133-0.138 0.138-0.272 0.005-0.129-0.036-0.23-0.012-0.354 0.002-0.022 0.005-0.044 0.010-0.068 0.058 0.005 0.116 0.005 0.172 0.010 0.196 0.015 0.391 0.034 0.585 0.053-0.015 0.075-0.036 0.148-0.046 0.221-0.007 0.053-0.019 0.124-0.007 0.177 0.022 0.099 0.153 0.189 0.162 0.294 0.007 0.053-0.002 0.138-0.015 0.189-0.022 0.087-0.107 0.158-0.121 0.247-0.012 0.073 0.012 0.209 0.065 0.129-0.005 0.063 0.374 0.049 0.405 0.051 0.097 0.005 0.196 0.034 0.26-0.029 0.039-0.039 0.034-0.080 0.039-0.126 0.005-0.063 0.034-0.112 0.046-0.172 0.027-0.153-0.092-0.277-0.085-0.422 0.007-0.148-0.019-0.291-0.010-0.439 0-0.019 0.002-0.039 0.002-0.058 0.015 0 0.027 0.002 0.041 0.002 0.24 0.015 0.483 0.012 0.725 0.010-0.015 0.051-0.027 0.099-0.034 0.148-0.005 0.053-0.017 0.124-0.007 0.177 0.024 0.099 0.155 0.189 0.165 0.294 0.005 0.053-0.005 0.138-0.017 0.189-0.022 0.087-0.104 0.158-0.119 0.247-0.015 0.073 0.010 0.209 0.065 0.129-0.005 0.063 0.374 0.049 0.405 0.051 0.097 0.005 0.194 0.034 0.257-0.029 0.039-0.039 0.034-0.080 0.039-0.126 0.007-0.063 0.036-0.112 0.046-0.172 0.027-0.153-0.090-0.277-0.082-0.422 0.007-0.148-0.019-0.291-0.012-0.439 0.002-0.015 0.002-0.029 0.002-0.044 0.189 0.002 0.381 0.007 0.57 0.015-0.012 0.044-0.024 0.087-0.029 0.131-0.007 0.053-0.019 0.124-0.007 0.177 0.024 0.099 0.153 0.189 0.165 0.294 0.005 0.053-0.005 0.138-0.017 0.189-0.022 0.087-0.104 0.158-0.121 0.247-0.012 0.073 0.012 0.209 0.065 0.129-0.005 0.063 0.374 0.049 0.408 0.051 0.095 0.005 0.194 0.034 0.257-0.029 0.039-0.039 0.034-0.080 0.039-0.126 0.007-0.063 0.034-0.112 0.046-0.172 0.027-0.153-0.090-0.277-0.082-0.422 0.007-0.148-0.019-0.291-0.012-0.439 0-0.005 0-0.010 0-0.012 0.063 0 0.126 0 0.187-0.002 0.284-0.012 0.563-0.070 0.847-0.090 0.495-0.034 0.99-0.090 1.484-0.087 0.589 0.002 1.159 0.015 1.739-0.102 0.332-0.065 0.679-0.172 1.019-0.175 0.085-0.039 0.165-0.082 0.172-0.158 0.012-0.124-0.146-0.090-0.23-0.087-0.104 0.002-0.189 0.036-0.293 0.036s-0.226 0.015-0.327-0.002c-0.187-0.036-0.381-0.107-0.57-0.153-0.131-0.032-0.264-0.053-0.395-0.092-0.298-0.082-0.589-0.201-0.897-0.238-0.332-0.036-0.677 0.019-1.007 0.034-0.347 0.015-0.691 0.022-1.038 0.051-0.216 0.017-0.429 0.046-0.643 0.065-0.005-0.051-0.012-0.099-0.019-0.15-0.019-0.126-0.007-0.255-0.032-0.381-0.012-0.058-0.022-0.090 0.007-0.148 0.024-0.044 0.058-0.073 0.061-0.126 0.007-0.129-0.126-0.126-0.23-0.192 0.036-0.056 0.053-0.092 0.005-0.15-0.017-0.019-0.044-0.032-0.058-0.051-0.034-0.041-0.029-0.092-0.046-0.138-0.102 0.039-0.192 0.044-0.308 0.039-0.049-0.002-0.104 0-0.15-0.012-0.063-0.015-0.116-0.078-0.192-0.061 0.087 0.15 0.078 0.315 0.121 0.475 0.029 0.104 0.015 0.209 0.007 0.313-0.005 0.112-0.015 0.228 0.027 0.337 0.034 0.090 0.049 0.175 0.046 0.267-0.175 0-0.347 0-0.521 0-0.002-0.056-0.010-0.112-0.017-0.172-0.019-0.126-0.010-0.255-0.034-0.381-0.010-0.058-0.022-0.090 0.007-0.148 0.024-0.044 0.061-0.073 0.063-0.126 0.007-0.129-0.129-0.126-0.233-0.192 0.039-0.056 0.053-0.092 0.005-0.15-0.015-0.019-0.044-0.032-0.058-0.051-0.034-0.041-0.027-0.092-0.044-0.138-0.102 0.039-0.192 0.044-0.308 0.039-0.049-0.002-0.107 0-0.153-0.012-0.063-0.015-0.116-0.078-0.189-0.061 0.087 0.15 0.075 0.315 0.119 0.475 0.029 0.104 0.017 0.209 0.010 0.313-0.007 0.112-0.017 0.228 0.024 0.337 0.036 0.097 0.056 0.189 0.049 0.291-0.24 0.017-0.478 0.039-0.716 0.058 0.002-0.085-0.007-0.167-0.019-0.255-0.019-0.126-0.007-0.255-0.032-0.381-0.012-0.058-0.024-0.090 0.007-0.148 0.022-0.044 0.058-0.073 0.061-0.126 0.007-0.129-0.126-0.126-0.23-0.192 0.036-0.056 0.051-0.092 0.005-0.15-0.017-0.019-0.046-0.032-0.061-0.051-0.032-0.041-0.027-0.092-0.044-0.138-0.102 0.039-0.192 0.044-0.308 0.039-0.048-0.002-0.104 0-0.153-0.012-0.063-0.015-0.114-0.078-0.189-0.061 0.087 0.15 0.078 0.315 0.121 0.475 0.027 0.104 0.015 0.209 0.007 0.313-0.007 0.112-0.015 0.228 0.027 0.337 0.036 0.099 0.056 0.189 0.046 0.293-0.005 0.041-0.012 0.082-0.022 0.124-0.192 0.017-0.386 0.032-0.577 0.041-0.032-0.005-0.061-0.010-0.090-0.015 0-0.039 0-0.080 0-0.119 0.005-0.18-0.121-0.337-0.155-0.514-0.019-0.092-0.019-0.172-0.019-0.262 0-0.065-0.022-0.124-0.036-0.187-0.024-0.114-0.032-0.235-0.078-0.344-0.097-0.23-0.264-0.408-0.454-0.563-0.104-0.087-0.179-0.204-0.279-0.296-0.082-0.078-0.165-0.155-0.24-0.238-0.167-0.184-0.318-0.41-0.546-0.524-0.247-0.124-0.572-0.075-0.842-0.078z"></path>
<path d="M5.973 26.687c0.063-0.005 0.121-0.070 0.165-0.109 0.068-0.063 0.131-0.131 0.196-0.199-0.056 0.029-0.109 0.061-0.155 0.099-0.073 0.061-0.136 0.141-0.206 0.209z"></path>
<path d="M5.381 22.229c-0.182 0.177-0.33 0.383-0.514 0.563-0.080 0.080-0.167 0.16-0.238 0.252 0.002-0.002 0.005-0.002 0.007-0.005-0.017 0.017-0.029 0.034-0.041 0.053 0.010-0.017 0.022-0.034 0.034-0.049-0.015 0.005-0.027 0.010-0.039 0.019-0.017 0.019-0.027 0.046-0.034 0.075-0.022 0.032-0.044 0.065-0.068 0.099-0.121 0.165-0.078 0.393-0.046 0.589 0.010 0.068 0.012 0.141 0.010 0.211-0.005 0.116-0.007 0.107 0.15 0.121 0-0.141 0.029-0.26 0.099-0.386 0.061-0.109 0.095-0.228 0.17-0.33 0.065-0.087 0.116-0.177 0.179-0.267 0.073-0.102 0.177-0.184 0.26-0.281 0.034-0.039 0.068-0.080 0.102-0.121 0.277-0.109 0.553-0.196 0.851-0.24 0.177-0.024 0.369-0.090 0.543-0.087 0.264 0.005 0.541 0.049 0.793 0.109 0.165 0.039 0.306 0.109 0.463 0.165 0.138 0.049 0.235 0.090 0.349 0.184 0.073 0.063 0.126 0.116 0.211 0.155 0.058 0.027 0.114 0.046 0.167 0.075-0.196 0.153-0.395 0.301-0.58 0.466-0.138 0.121-0.284 0.257-0.388 0.41-0.16 0.24-0.369 0.427-0.526 0.667-0.182 0.274-0.458 0.48-0.655 0.745-0.051 0.070-0.109 0.133-0.16 0.199-0.087 0.112-0.141 0.252-0.216 0.371-0.15 0.243-0.308 0.5-0.507 0.701 0.099 0.099 0.289-0.109 0.495-0.296 0.073-0.065 0.153-0.116 0.233-0.172-0.024 0.024-0.046 0.046-0.068 0.068-0.029 0.029-0.058 0.058-0.085 0.087 0.087-0.046 0.179-0.085 0.26-0.129 0.226-0.121 0.417-0.25 0.597-0.434 0.104-0.107 0.204-0.213 0.325-0.301 0.107-0.078 0.194-0.17 0.286-0.262 0.204-0.204 0.415-0.403 0.609-0.614 0.221-0.24 0.408-0.512 0.623-0.759 0.065-0.073 0.138-0.146 0.209-0.218 0.078 0.109 0.146 0.223 0.192 0.349 0.005 0.007 0.007 0.015 0.012 0.019 0.041 0.049 0.075 0.053 0.082 0.119 0.012 0.078-0.061 0.143-0.068 0.209-0.012 0.107 0.167 0.121 0.211 0.194 0.049 0.080 0.029 0.216 0.015 0.311-0.010 0.063-0.007 0.099 0.005 0.167 0.022 0.119 0.056 0.262 0.049 0.383-0.007 0.126-0.061 0.238-0.075 0.359-0.027 0.213 0.041 0.437-0.019 0.645-0.019 0.061-0.046 0.124-0.068 0.182-0.073 0.213-0.199 0.349-0.359 0.512-0.24 0.247-0.49 0.488-0.733 0.73-0.034 0.039-0.019 0.199 0.112 0.163 0.046-0.012 0.061-0.049 0.099-0.073 0.041-0.029 0.082-0.049 0.124-0.078 0.342-0.233 0.832-0.257 1.016-0.684 0.046-0.107 0.065-0.226 0.104-0.335s0.116-0.182 0.184-0.274c0.107-0.146 0.23-0.32 0.301-0.485 0.063-0.146 0.16-0.289 0.182-0.444 0.010-0.058-0.002-0.080-0.002-0.136-0.002-0.097 0.061-0.18 0.063-0.277 0.007-0.153-0.073-0.279-0.129-0.415-0.056-0.138-0.097-0.279-0.175-0.407-0.085-0.146-0.119-0.337-0.119-0.507 0-0.092 0.005-0.172 0.022-0.262 0.029-0.126-0.002-0.194-0.092-0.291-0.087-0.095-0.189-0.136-0.26-0.24-0.012-0.019-0.027-0.036-0.041-0.056 0.044-0.036 0.085-0.080 0.129-0.116 0.15-0.126 0.301-0.25 0.454-0.374 0.041 0.063 0.078 0.131 0.121 0.189 0.032 0.041 0.075 0.099 0.119 0.129 0.090 0.056 0.243 0.027 0.325 0.092 0.041 0.034 0.095 0.102 0.121 0.146 0.049 0.078 0.036 0.184 0.090 0.26 0.044 0.061 0.155 0.141 0.138 0.046 0.041 0.046 0.298-0.23 0.323-0.252 0.073-0.063 0.162-0.114 0.162-0.201 0-0.056-0.034-0.082-0.063-0.119-0.039-0.049-0.053-0.104-0.090-0.153-0.087-0.129-0.257-0.131-0.357-0.24-0.097-0.109-0.218-0.192-0.318-0.303-0.012-0.015-0.027-0.029-0.039-0.044 0.010-0.010 0.022-0.017 0.032-0.027 0.18-0.16 0.349-0.332 0.519-0.505 0.027 0.044 0.051 0.087 0.082 0.126 0.032 0.044 0.073 0.102 0.119 0.131 0.087 0.056 0.243 0.024 0.323 0.092 0.044 0.034 0.097 0.102 0.121 0.143 0.049 0.080 0.039 0.187 0.090 0.262 0.044 0.061 0.158 0.141 0.138 0.044 0.041 0.049 0.301-0.23 0.323-0.25 0.073-0.065 0.162-0.114 0.162-0.204 0-0.053-0.034-0.080-0.061-0.116-0.039-0.049-0.056-0.104-0.090-0.155-0.090-0.126-0.26-0.131-0.357-0.238-0.099-0.109-0.221-0.194-0.32-0.303-0.010-0.012-0.019-0.022-0.029-0.034 0.136-0.131 0.274-0.262 0.412-0.391 0.024 0.039 0.046 0.078 0.073 0.114 0.034 0.041 0.075 0.099 0.121 0.129 0.087 0.056 0.243 0.027 0.323 0.092 0.044 0.034 0.097 0.102 0.121 0.146 0.049 0.078 0.039 0.184 0.090 0.26 0.044 0.061 0.158 0.141 0.138 0.044 0.041 0.049 0.298-0.228 0.323-0.25 0.073-0.065 0.162-0.114 0.162-0.201 0-0.056-0.034-0.082-0.063-0.119-0.039-0.049-0.053-0.104-0.087-0.153-0.090-0.129-0.26-0.131-0.357-0.24-0.099-0.109-0.221-0.192-0.32-0.303-0.002-0.002-0.005-0.007-0.007-0.010 0.044-0.044 0.087-0.087 0.129-0.133 0.194-0.209 0.349-0.449 0.536-0.662 0.325-0.374 0.636-0.764 0.99-1.111 0.417-0.415 0.827-0.81 1.157-1.3 0.187-0.281 0.357-0.604 0.594-0.844 0.034-0.087 0.061-0.177 0.012-0.233-0.078-0.097-0.167 0.039-0.226 0.099-0.070 0.078-0.107 0.16-0.182 0.233-0.073 0.073-0.148 0.172-0.233 0.23-0.158 0.107-0.344 0.194-0.509 0.296-0.116 0.070-0.228 0.148-0.344 0.213-0.272 0.153-0.56 0.274-0.803 0.468-0.262 0.209-0.466 0.49-0.691 0.735-0.233 0.255-0.473 0.502-0.696 0.769-0.141 0.165-0.272 0.337-0.41 0.502-0.036-0.032-0.075-0.063-0.116-0.092-0.104-0.078-0.189-0.177-0.293-0.247-0.049-0.034-0.080-0.049-0.099-0.109-0.015-0.049-0.010-0.095-0.046-0.133-0.085-0.097-0.179 0-0.298 0.029-0.012-0.068-0.027-0.102-0.104-0.112-0.024-0.002-0.053 0.010-0.078 0.007-0.053-0.007-0.085-0.046-0.129-0.068-0.044 0.099-0.104 0.167-0.192 0.245-0.036 0.032-0.073 0.075-0.114 0.099-0.056 0.034-0.138 0.027-0.177 0.092 0.167 0.044 0.277 0.167 0.422 0.252 0.092 0.053 0.158 0.133 0.226 0.213 0.075 0.085 0.15 0.172 0.257 0.221 0.087 0.039 0.158 0.087 0.221 0.155-0.124 0.124-0.245 0.247-0.369 0.369-0.041-0.039-0.085-0.073-0.133-0.109-0.104-0.075-0.187-0.175-0.293-0.245-0.049-0.034-0.080-0.049-0.099-0.109-0.015-0.049-0.010-0.095-0.044-0.133-0.087-0.097-0.179 0-0.301 0.027-0.012-0.065-0.027-0.102-0.104-0.109-0.024-0.002-0.053 0.010-0.075 0.007-0.056-0.007-0.087-0.049-0.131-0.068-0.044 0.099-0.104 0.165-0.189 0.245-0.036 0.032-0.075 0.075-0.116 0.099-0.056 0.034-0.138 0.027-0.177 0.092 0.167 0.044 0.277 0.167 0.422 0.25 0.092 0.053 0.158 0.136 0.226 0.216 0.075 0.082 0.15 0.172 0.257 0.221 0.095 0.041 0.172 0.092 0.238 0.172-0.155 0.18-0.308 0.364-0.463 0.546-0.058-0.061-0.121-0.114-0.194-0.165-0.102-0.078-0.187-0.175-0.291-0.247-0.051-0.034-0.080-0.049-0.099-0.109-0.015-0.049-0.010-0.095-0.046-0.133-0.087-0.097-0.18 0-0.298 0.029-0.012-0.065-0.029-0.102-0.104-0.112-0.024-0.002-0.053 0.010-0.078 0.007-0.053-0.007-0.085-0.046-0.129-0.068-0.044 0.099-0.104 0.167-0.192 0.245-0.036 0.034-0.073 0.075-0.114 0.099-0.056 0.034-0.138 0.027-0.177 0.092 0.167 0.044 0.277 0.167 0.422 0.252 0.092 0.053 0.155 0.136 0.226 0.213 0.073 0.085 0.15 0.175 0.257 0.221 0.095 0.044 0.172 0.095 0.24 0.175 0.027 0.032 0.049 0.065 0.070 0.102-0.124 0.148-0.25 0.294-0.378 0.439-0.024 0.017-0.049 0.036-0.073 0.053-0.029-0.029-0.056-0.058-0.082-0.085-0.124-0.131-0.327-0.153-0.475-0.252-0.078-0.053-0.133-0.109-0.199-0.175-0.046-0.044-0.102-0.070-0.155-0.104-0.102-0.063-0.192-0.146-0.301-0.189-0.23-0.095-0.475-0.099-0.718-0.078-0.136 0.012-0.272-0.017-0.407-0.012-0.114 0.005-0.226 0.007-0.34 0.002-0.247-0.012-0.512-0.065-0.754 0.015-0.262 0.087-0.456 0.352-0.65 0.541z"></path>
<path d="M16.468 30.845c0.041-0.046 0.036-0.136 0.039-0.194 0.002-0.092 0.002-0.184 0-0.279-0.019 0.061-0.034 0.121-0.041 0.18-0.007 0.095 0.005 0.196 0.002 0.294z"></path>
<path d="M12.897 28.109c-0.002 0.255 0.036 0.505 0.036 0.762-0.002 0.114-0.007 0.233 0.007 0.347 0-0.002 0.002-0.007 0.005-0.010 0 0.024 0.002 0.046 0.005 0.068-0.002-0.019-0.007-0.039-0.010-0.058-0.007 0.012-0.012 0.027-0.012 0.041 0 0.027 0.015 0.051 0.029 0.075 0.007 0.039 0.015 0.078 0.022 0.119 0.032 0.204 0.223 0.332 0.383 0.449 0.056 0.044 0.109 0.095 0.155 0.143 0.080 0.085 0.073 0.082 0.192-0.019-0.099-0.099-0.162-0.206-0.201-0.344-0.034-0.119-0.095-0.228-0.112-0.352-0.015-0.107-0.044-0.209-0.061-0.315-0.022-0.126-0.007-0.257-0.017-0.383-0.002-0.053-0.010-0.104-0.015-0.158 0.121-0.274 0.252-0.529 0.434-0.771 0.107-0.143 0.194-0.325 0.323-0.446 0.189-0.182 0.415-0.347 0.638-0.485 0.143-0.090 0.291-0.138 0.441-0.211 0.133-0.061 0.23-0.102 0.378-0.114 0.095-0.007 0.172-0.007 0.262-0.041 0.058-0.022 0.112-0.049 0.17-0.065-0.032 0.247-0.068 0.492-0.082 0.74-0.010 0.184-0.017 0.383 0.017 0.565 0.056 0.281 0.041 0.563 0.099 0.844 0.065 0.32 0.015 0.662 0.063 0.99 0.012 0.085 0.017 0.17 0.027 0.255 0.017 0.138 0.080 0.277 0.112 0.412 0.065 0.279 0.133 0.572 0.136 0.856 0.141 0 0.126-0.284 0.141-0.56 0.007-0.097 0.027-0.192 0.044-0.286 0 0.034 0 0.065 0 0.097 0 0.039 0 0.080 0 0.121 0.029-0.095 0.068-0.187 0.095-0.277 0.073-0.245 0.116-0.471 0.114-0.728-0.002-0.148-0.007-0.294 0.017-0.441 0.022-0.131 0.017-0.257 0.017-0.391 0-0.286 0.010-0.575-0.002-0.861-0.015-0.327-0.075-0.65-0.097-0.978-0.005-0.099-0.005-0.204-0.007-0.303 0.133 0.022 0.262 0.056 0.383 0.112 0.007 0.002 0.015 0.002 0.024 0.005 0.061 0.005 0.087-0.015 0.141 0.024 0.063 0.049 0.058 0.146 0.099 0.196 0.065 0.085 0.204-0.032 0.286-0.012 0.092 0.024 0.172 0.133 0.228 0.211 0.039 0.051 0.065 0.075 0.121 0.114 0.102 0.068 0.226 0.146 0.308 0.238s0.126 0.209 0.201 0.306c0.131 0.17 0.337 0.279 0.441 0.471 0.029 0.056 0.053 0.119 0.082 0.177 0.097 0.201 0.104 0.386 0.107 0.616 0.005 0.344-0.002 0.689-0.002 1.033 0.002 0.051 0.126 0.155 0.194 0.036 0.024-0.044 0.010-0.078 0.017-0.124 0.010-0.046 0.027-0.092 0.036-0.141 0.075-0.407 0.405-0.771 0.233-1.203-0.044-0.107-0.112-0.206-0.163-0.311-0.049-0.104-0.046-0.211-0.063-0.323-0.029-0.18-0.065-0.391-0.131-0.558-0.058-0.148-0.090-0.318-0.184-0.441-0.036-0.049-0.058-0.056-0.099-0.095-0.070-0.065-0.085-0.17-0.148-0.24-0.104-0.114-0.25-0.146-0.386-0.201-0.138-0.061-0.267-0.129-0.412-0.165-0.163-0.044-0.323-0.155-0.444-0.274-0.063-0.065-0.119-0.126-0.167-0.204-0.070-0.107-0.138-0.133-0.272-0.138-0.129-0.005-0.23 0.036-0.354 0.012-0.022-0.002-0.044-0.005-0.068-0.010 0.005-0.056 0.005-0.116 0.007-0.172 0.017-0.196 0.036-0.391 0.056-0.585 0.075 0.015 0.148 0.036 0.221 0.046 0.053 0.007 0.124 0.019 0.177 0.007 0.099-0.022 0.189-0.153 0.294-0.163 0.053-0.007 0.141 0.002 0.189 0.015 0.087 0.022 0.158 0.107 0.247 0.121 0.073 0.012 0.209-0.012 0.129-0.065 0.063 0.005 0.049-0.374 0.051-0.405 0.005-0.097 0.034-0.194-0.029-0.26-0.039-0.039-0.080-0.034-0.126-0.039-0.063-0.005-0.112-0.034-0.172-0.046-0.153-0.027-0.277 0.092-0.422 0.085-0.148-0.007-0.291 0.019-0.439 0.010-0.019 0-0.039-0.002-0.058-0.002 0-0.015 0.002-0.027 0.002-0.041 0.015-0.24 0.012-0.483 0.010-0.725 0.049 0.015 0.099 0.027 0.148 0.034 0.053 0.005 0.124 0.017 0.177 0.007 0.099-0.024 0.189-0.155 0.294-0.165 0.053-0.005 0.141 0.005 0.189 0.017 0.087 0.022 0.158 0.104 0.247 0.119 0.073 0.015 0.209-0.010 0.129-0.065 0.063 0.005 0.049-0.374 0.051-0.405 0.005-0.097 0.034-0.194-0.029-0.257-0.039-0.039-0.080-0.034-0.126-0.039-0.063-0.007-0.112-0.036-0.172-0.046-0.153-0.027-0.277 0.090-0.422 0.082-0.148-0.007-0.291 0.019-0.439 0.012-0.015-0.002-0.029-0.002-0.044-0.002 0.002-0.189 0.007-0.381 0.015-0.57 0.044 0.012 0.087 0.024 0.131 0.029 0.053 0.007 0.124 0.019 0.177 0.007 0.099-0.024 0.189-0.153 0.294-0.165 0.053-0.005 0.141 0.005 0.189 0.017 0.087 0.022 0.158 0.104 0.247 0.121 0.073 0.012 0.209-0.012 0.129-0.065 0.063 0.005 0.049-0.374 0.051-0.407 0.005-0.095 0.034-0.194-0.029-0.257-0.039-0.039-0.080-0.034-0.126-0.039-0.063-0.007-0.112-0.034-0.172-0.046-0.153-0.027-0.277 0.092-0.422 0.085-0.148-0.010-0.291 0.017-0.439 0.010h-0.012c0-0.063 0-0.126-0.002-0.187-0.012-0.284-0.070-0.563-0.090-0.847-0.034-0.495-0.090-0.99-0.087-1.484 0.002-0.589 0.015-1.159-0.102-1.739-0.065-0.332-0.172-0.679-0.175-1.019-0.039-0.085-0.082-0.165-0.158-0.172-0.124-0.012-0.090 0.146-0.087 0.23 0.002 0.104 0.036 0.189 0.036 0.294s0.015 0.226-0.002 0.327c-0.036 0.187-0.107 0.381-0.153 0.57-0.032 0.131-0.053 0.264-0.092 0.395-0.082 0.298-0.201 0.589-0.238 0.897-0.036 0.332 0.019 0.677 0.034 1.007 0.015 0.347 0.022 0.691 0.051 1.038 0.017 0.216 0.046 0.429 0.065 0.643-0.051 0.005-0.099 0.012-0.15 0.019-0.126 0.019-0.255 0.007-0.381 0.032-0.058 0.012-0.090 0.022-0.148-0.007-0.044-0.024-0.073-0.058-0.126-0.061-0.129-0.007-0.126 0.126-0.192 0.23-0.056-0.036-0.092-0.053-0.15-0.005-0.019 0.017-0.032 0.044-0.051 0.061-0.041 0.032-0.092 0.027-0.138 0.044 0.039 0.102 0.044 0.192 0.039 0.308-0.002 0.049 0 0.104-0.012 0.15-0.015 0.063-0.078 0.116-0.061 0.192 0.15-0.087 0.315-0.078 0.475-0.121 0.104-0.029 0.209-0.015 0.313-0.007 0.112 0.005 0.228 0.015 0.337-0.027 0.090-0.034 0.175-0.049 0.267-0.046 0 0.175 0 0.347 0 0.521-0.058 0.002-0.112 0.010-0.172 0.017-0.126 0.019-0.255 0.010-0.381 0.034-0.058 0.010-0.090 0.022-0.148-0.007-0.044-0.024-0.073-0.061-0.126-0.063-0.129-0.007-0.126 0.129-0.192 0.233-0.056-0.039-0.092-0.053-0.15-0.005-0.019 0.015-0.032 0.044-0.051 0.058-0.041 0.034-0.092 0.027-0.138 0.044 0.039 0.102 0.044 0.192 0.039 0.308-0.002 0.049 0 0.107-0.012 0.153-0.015 0.063-0.078 0.116-0.061 0.189 0.15-0.087 0.315-0.075 0.475-0.119 0.104-0.029 0.209-0.017 0.313-0.010 0.112 0.007 0.228 0.017 0.337-0.024 0.097-0.036 0.189-0.056 0.291-0.049 0.017 0.24 0.039 0.478 0.058 0.716-0.087-0.002-0.167 0.007-0.255 0.019-0.126 0.019-0.255 0.007-0.381 0.032-0.058 0.012-0.090 0.024-0.148-0.007-0.044-0.022-0.073-0.058-0.126-0.061-0.129-0.007-0.126 0.126-0.192 0.233-0.056-0.039-0.092-0.053-0.15-0.005-0.019 0.015-0.032 0.044-0.051 0.058-0.041 0.032-0.092 0.027-0.138 0.044 0.039 0.102 0.044 0.192 0.039 0.308-0.002 0.049 0 0.107-0.012 0.153-0.015 0.063-0.078 0.114-0.061 0.189 0.15-0.087 0.315-0.078 0.475-0.121 0.104-0.027 0.209-0.015 0.313-0.007 0.112 0.007 0.228 0.017 0.337-0.027 0.097-0.036 0.189-0.056 0.293-0.046 0.041 0.005 0.082 0.012 0.124 0.022 0.017 0.192 0.032 0.386 0.041 0.577-0.005 0.032-0.010 0.061-0.015 0.090-0.039 0-0.080 0-0.119 0-0.18-0.005-0.337 0.121-0.514 0.155-0.092 0.019-0.172 0.019-0.262 0.019-0.065 0-0.124 0.022-0.187 0.036-0.114 0.024-0.235 0.032-0.344 0.078-0.23 0.097-0.408 0.264-0.563 0.454-0.087 0.104-0.204 0.18-0.296 0.279-0.078 0.082-0.155 0.165-0.238 0.24-0.184 0.167-0.41 0.318-0.524 0.546-0.124 0.247-0.075 0.572-0.078 0.842z"></path>
<path d="M27.040 26.379c-0.005-0.063-0.070-0.121-0.109-0.165-0.063-0.068-0.131-0.131-0.199-0.196 0.032 0.056 0.061 0.109 0.099 0.155 0.061 0.073 0.143 0.136 0.209 0.206z"></path>
<path d="M22.581 26.971c0.177 0.182 0.383 0.33 0.563 0.514 0.080 0.080 0.16 0.167 0.25 0.238 0-0.002 0-0.005-0.002-0.007 0.017 0.017 0.034 0.029 0.053 0.041-0.017-0.010-0.034-0.022-0.051-0.034 0.007 0.015 0.012 0.029 0.022 0.039 0.019 0.017 0.046 0.027 0.075 0.034 0.032 0.022 0.063 0.044 0.099 0.068 0.165 0.121 0.393 0.078 0.587 0.046 0.070-0.010 0.143-0.012 0.213-0.010 0.116 0.005 0.107 0.007 0.121-0.15-0.143 0-0.26-0.029-0.388-0.099-0.107-0.061-0.226-0.095-0.327-0.17-0.087-0.065-0.177-0.116-0.267-0.18-0.102-0.073-0.184-0.177-0.281-0.26-0.039-0.034-0.080-0.068-0.121-0.102-0.109-0.277-0.196-0.553-0.24-0.851-0.024-0.177-0.090-0.369-0.087-0.543 0.005-0.264 0.049-0.541 0.109-0.793 0.039-0.165 0.109-0.306 0.165-0.463 0.049-0.138 0.090-0.235 0.184-0.349 0.063-0.073 0.116-0.126 0.155-0.211 0.027-0.058 0.046-0.114 0.075-0.167 0.153 0.196 0.301 0.395 0.466 0.582 0.121 0.136 0.257 0.281 0.41 0.386 0.24 0.16 0.427 0.369 0.667 0.526 0.274 0.182 0.48 0.458 0.745 0.655 0.070 0.051 0.133 0.109 0.199 0.16 0.112 0.087 0.252 0.141 0.371 0.216 0.243 0.15 0.5 0.308 0.701 0.507 0.099-0.099-0.109-0.289-0.296-0.495-0.065-0.073-0.116-0.153-0.172-0.23l0.068 0.068c0.029 0.027 0.058 0.056 0.087 0.082-0.046-0.087-0.085-0.18-0.129-0.26-0.121-0.226-0.25-0.417-0.434-0.597-0.107-0.104-0.213-0.204-0.301-0.325-0.078-0.107-0.17-0.194-0.262-0.286-0.204-0.204-0.403-0.415-0.614-0.609-0.24-0.221-0.512-0.407-0.759-0.623-0.073-0.065-0.146-0.138-0.218-0.209 0.109-0.078 0.223-0.146 0.349-0.192 0.007-0.005 0.015-0.007 0.019-0.012 0.049-0.041 0.053-0.075 0.119-0.082 0.078-0.012 0.143 0.061 0.209 0.068 0.107 0.012 0.121-0.167 0.194-0.211 0.080-0.049 0.216-0.027 0.311-0.015 0.063 0.010 0.099 0.007 0.167-0.005 0.119-0.022 0.262-0.056 0.383-0.049 0.126 0.007 0.238 0.061 0.359 0.075 0.213 0.027 0.437-0.044 0.645 0.019 0.061 0.019 0.121 0.046 0.182 0.068 0.213 0.073 0.349 0.199 0.512 0.359 0.247 0.24 0.488 0.49 0.73 0.733 0.039 0.034 0.199 0.019 0.163-0.112-0.012-0.046-0.049-0.061-0.073-0.099-0.029-0.041-0.049-0.082-0.078-0.124-0.233-0.342-0.257-0.832-0.684-1.016-0.107-0.046-0.226-0.065-0.335-0.104s-0.182-0.116-0.274-0.184c-0.146-0.107-0.32-0.23-0.485-0.301-0.146-0.063-0.289-0.16-0.444-0.182-0.058-0.010-0.080 0.002-0.136 0.002-0.097 0.002-0.18-0.058-0.277-0.063-0.153-0.007-0.279 0.073-0.415 0.129-0.138 0.056-0.279 0.097-0.407 0.175-0.146 0.085-0.337 0.119-0.507 0.119-0.092 0-0.172-0.005-0.262-0.024-0.126-0.027-0.194 0.005-0.291 0.095-0.095 0.087-0.136 0.189-0.24 0.26-0.019 0.012-0.036 0.027-0.056 0.041-0.039-0.044-0.080-0.085-0.116-0.129-0.126-0.15-0.25-0.301-0.374-0.454 0.061-0.041 0.131-0.078 0.189-0.121 0.041-0.032 0.099-0.075 0.129-0.119 0.056-0.090 0.027-0.243 0.092-0.325 0.034-0.041 0.102-0.095 0.146-0.121 0.078-0.049 0.184-0.036 0.26-0.090 0.061-0.044 0.141-0.155 0.044-0.138 0.049-0.041-0.228-0.298-0.25-0.323-0.065-0.073-0.114-0.163-0.201-0.163-0.056 0-0.082 0.034-0.119 0.063-0.049 0.039-0.104 0.053-0.153 0.090-0.129 0.087-0.131 0.257-0.24 0.357s-0.192 0.218-0.303 0.318c-0.015 0.012-0.029 0.027-0.044 0.039-0.010-0.010-0.017-0.022-0.027-0.032-0.16-0.18-0.332-0.349-0.505-0.519 0.044-0.024 0.087-0.051 0.126-0.080 0.044-0.034 0.102-0.075 0.131-0.121 0.053-0.087 0.024-0.243 0.092-0.323 0.034-0.044 0.099-0.097 0.143-0.121 0.078-0.049 0.187-0.039 0.262-0.090 0.061-0.044 0.141-0.158 0.044-0.138 0.049-0.041-0.23-0.301-0.25-0.323-0.065-0.073-0.114-0.163-0.204-0.163-0.053 0-0.080 0.034-0.116 0.061-0.049 0.039-0.104 0.056-0.155 0.090-0.126 0.090-0.131 0.26-0.238 0.357-0.109 0.099-0.194 0.221-0.303 0.32-0.012 0.010-0.022 0.019-0.034 0.029-0.131-0.136-0.262-0.274-0.391-0.412 0.039-0.024 0.078-0.046 0.112-0.073 0.044-0.032 0.102-0.075 0.131-0.121 0.056-0.087 0.027-0.243 0.092-0.323 0.034-0.044 0.102-0.097 0.146-0.121 0.078-0.049 0.184-0.039 0.26-0.090 0.061-0.044 0.141-0.158 0.044-0.138 0.049-0.041-0.23-0.298-0.25-0.323-0.065-0.073-0.114-0.163-0.201-0.163-0.056 0-0.082 0.034-0.119 0.063-0.049 0.039-0.104 0.053-0.153 0.087-0.129 0.090-0.131 0.26-0.24 0.359-0.109 0.097-0.194 0.218-0.303 0.318-0.002 0.002-0.007 0.005-0.010 0.010-0.044-0.046-0.087-0.090-0.133-0.131-0.209-0.194-0.449-0.349-0.662-0.536-0.374-0.325-0.764-0.636-1.111-0.99-0.415-0.417-0.81-0.827-1.3-1.157-0.281-0.187-0.604-0.357-0.844-0.594-0.087-0.034-0.177-0.058-0.233-0.012-0.097 0.078 0.039 0.167 0.099 0.226 0.075 0.070 0.16 0.107 0.233 0.182 0.073 0.073 0.172 0.148 0.23 0.233 0.107 0.158 0.194 0.344 0.296 0.509 0.070 0.116 0.148 0.228 0.213 0.344 0.153 0.272 0.274 0.56 0.468 0.803 0.209 0.262 0.49 0.466 0.735 0.691 0.255 0.233 0.502 0.473 0.769 0.696 0.165 0.141 0.335 0.272 0.502 0.41-0.032 0.036-0.063 0.075-0.092 0.116-0.078 0.104-0.177 0.189-0.247 0.294-0.034 0.051-0.049 0.080-0.109 0.099-0.049 0.015-0.095 0.010-0.133 0.046-0.097 0.085 0 0.18 0.029 0.298-0.068 0.012-0.104 0.027-0.112 0.104-0.002 0.024 0.010 0.053 0.007 0.078-0.007 0.053-0.046 0.085-0.068 0.129 0.099 0.044 0.167 0.104 0.245 0.192 0.032 0.036 0.075 0.073 0.099 0.114 0.034 0.056 0.027 0.138 0.092 0.177 0.044-0.167 0.167-0.277 0.252-0.422 0.051-0.092 0.133-0.158 0.213-0.226 0.082-0.075 0.172-0.15 0.221-0.257 0.039-0.087 0.087-0.158 0.155-0.221 0.124 0.124 0.247 0.245 0.369 0.369-0.039 0.041-0.073 0.085-0.109 0.133-0.075 0.104-0.175 0.187-0.245 0.294-0.034 0.049-0.049 0.080-0.109 0.099-0.049 0.015-0.095 0.010-0.133 0.044-0.097 0.087 0 0.18 0.027 0.301-0.065 0.012-0.102 0.027-0.109 0.104-0.002 0.024 0.010 0.053 0.005 0.075-0.005 0.056-0.046 0.087-0.065 0.131 0.099 0.044 0.165 0.104 0.245 0.189 0.032 0.036 0.075 0.075 0.099 0.116 0.034 0.056 0.027 0.138 0.090 0.177 0.046-0.167 0.17-0.277 0.252-0.422 0.053-0.092 0.136-0.158 0.216-0.226 0.082-0.075 0.172-0.15 0.221-0.257 0.041-0.095 0.092-0.172 0.172-0.238 0.18 0.155 0.364 0.308 0.546 0.463-0.061 0.058-0.114 0.121-0.165 0.194-0.078 0.102-0.175 0.187-0.247 0.291-0.034 0.051-0.049 0.080-0.109 0.099-0.049 0.015-0.095 0.010-0.133 0.046-0.097 0.087 0 0.18 0.029 0.298-0.065 0.012-0.102 0.029-0.112 0.104-0.002 0.024 0.010 0.053 0.007 0.078-0.007 0.053-0.046 0.085-0.068 0.129 0.099 0.044 0.167 0.104 0.245 0.192 0.034 0.036 0.075 0.073 0.099 0.114 0.034 0.056 0.027 0.138 0.092 0.18 0.044-0.17 0.167-0.279 0.252-0.424 0.053-0.092 0.136-0.155 0.213-0.226 0.085-0.073 0.175-0.15 0.221-0.257 0.044-0.095 0.095-0.172 0.175-0.24 0.032-0.027 0.065-0.049 0.102-0.070 0.148 0.124 0.294 0.25 0.439 0.378 0.017 0.024 0.036 0.049 0.053 0.073-0.029 0.029-0.058 0.056-0.085 0.082-0.131 0.124-0.153 0.327-0.252 0.475-0.053 0.078-0.109 0.133-0.175 0.199-0.044 0.046-0.070 0.102-0.104 0.155-0.063 0.102-0.146 0.192-0.189 0.301-0.095 0.23-0.099 0.475-0.078 0.718 0.012 0.136-0.017 0.272-0.012 0.407 0.005 0.114 0.007 0.226 0.002 0.34-0.012 0.247-0.065 0.512 0.015 0.754 0.087 0.262 0.352 0.456 0.541 0.65z"></path>
<path d="M31.31 15.772c-0.046-0.041-0.136-0.036-0.194-0.039-0.092-0.002-0.187-0.002-0.279 0 0.061 0.019 0.121 0.036 0.18 0.041 0.095 0.007 0.196-0.005 0.294-0.002z"></path>
<path d="M28.575 19.345c0.255 0.002 0.505-0.039 0.762-0.036 0.114 0.002 0.233 0.007 0.347-0.007-0.002 0-0.007-0.002-0.010-0.005 0.024 0 0.046-0.002 0.068-0.005-0.019 0.002-0.039 0.007-0.058 0.010 0.012 0.007 0.027 0.012 0.041 0.012 0.027 0 0.051-0.015 0.075-0.029 0.039-0.007 0.078-0.015 0.119-0.022 0.204-0.032 0.332-0.223 0.449-0.383 0.044-0.056 0.095-0.109 0.143-0.155 0.085-0.080 0.082-0.073-0.019-0.192-0.099 0.099-0.206 0.163-0.344 0.201-0.119 0.034-0.228 0.095-0.352 0.112-0.107 0.015-0.209 0.044-0.315 0.061-0.126 0.022-0.257 0.007-0.383 0.017-0.053 0.002-0.104 0.010-0.158 0.015-0.274-0.121-0.529-0.252-0.771-0.434-0.143-0.107-0.325-0.194-0.446-0.323-0.182-0.189-0.347-0.415-0.485-0.638-0.090-0.143-0.138-0.291-0.211-0.441-0.061-0.133-0.102-0.23-0.114-0.378-0.007-0.095-0.007-0.172-0.041-0.262-0.022-0.058-0.049-0.112-0.065-0.17 0.247 0.032 0.492 0.068 0.74 0.082 0.184 0.010 0.383 0.017 0.565-0.017 0.281-0.056 0.563-0.041 0.844-0.099 0.32-0.065 0.662-0.015 0.99-0.063 0.085-0.015 0.17-0.017 0.255-0.027 0.138-0.017 0.277-0.080 0.412-0.112 0.279-0.065 0.572-0.133 0.856-0.136 0-0.141-0.284-0.126-0.56-0.143-0.097-0.005-0.192-0.024-0.286-0.041 0.034 0 0.065 0 0.097 0 0.039 0 0.080 0 0.121 0-0.095-0.029-0.187-0.068-0.277-0.095-0.245-0.073-0.471-0.116-0.728-0.114-0.15 0.002-0.296 0.007-0.441-0.017-0.131-0.022-0.257-0.017-0.391-0.017-0.286 0-0.575-0.010-0.864 0.002-0.325 0.015-0.65 0.075-0.975 0.097-0.099 0.005-0.204 0.005-0.303 0.007 0.022-0.133 0.056-0.262 0.112-0.383 0.002-0.007 0.002-0.015 0.005-0.024 0.005-0.061-0.015-0.087 0.024-0.141 0.049-0.063 0.146-0.058 0.196-0.099 0.085-0.065-0.032-0.204-0.012-0.286 0.022-0.092 0.133-0.172 0.211-0.228 0.051-0.039 0.075-0.065 0.114-0.124 0.068-0.099 0.146-0.223 0.238-0.306s0.209-0.126 0.306-0.201c0.17-0.131 0.279-0.337 0.471-0.441 0.056-0.029 0.119-0.053 0.177-0.082 0.201-0.097 0.386-0.104 0.616-0.107 0.344-0.005 0.689 0.002 1.033 0.002 0.051-0.002 0.155-0.126 0.036-0.194-0.044-0.024-0.078-0.010-0.124-0.017-0.049-0.010-0.092-0.027-0.141-0.036-0.407-0.075-0.771-0.405-1.203-0.233-0.107 0.044-0.206 0.112-0.311 0.162-0.104 0.049-0.211 0.046-0.323 0.063-0.18 0.029-0.391 0.065-0.558 0.131-0.148 0.058-0.318 0.090-0.441 0.184-0.049 0.036-0.056 0.058-0.095 0.099-0.065 0.070-0.17 0.085-0.24 0.148-0.114 0.104-0.146 0.25-0.204 0.386-0.058 0.138-0.126 0.267-0.163 0.412-0.044 0.162-0.155 0.323-0.274 0.444-0.065 0.063-0.126 0.119-0.204 0.167-0.107 0.070-0.133 0.138-0.138 0.272-0.005 0.129 0.036 0.23 0.012 0.354-0.002 0.022-0.005 0.044-0.010 0.068-0.058-0.005-0.116-0.005-0.172-0.010-0.196-0.015-0.391-0.034-0.585-0.053 0.015-0.075 0.036-0.148 0.046-0.221 0.007-0.053 0.019-0.124 0.007-0.177-0.022-0.099-0.153-0.189-0.165-0.293-0.005-0.053 0.005-0.141 0.017-0.189 0.022-0.087 0.107-0.158 0.121-0.247 0.012-0.073-0.012-0.209-0.065-0.129 0.005-0.063-0.374-0.049-0.405-0.051-0.097-0.005-0.196-0.034-0.26 0.029-0.039 0.039-0.034 0.080-0.039 0.126-0.005 0.063-0.034 0.112-0.046 0.172-0.027 0.153 0.092 0.277 0.085 0.422-0.007 0.148 0.017 0.291 0.010 0.439 0 0.019-0.002 0.039-0.002 0.058-0.015 0-0.027-0.002-0.041-0.002-0.24-0.015-0.483-0.012-0.725-0.010 0.015-0.051 0.027-0.099 0.034-0.148 0.005-0.053 0.017-0.124 0.005-0.177-0.022-0.099-0.153-0.189-0.163-0.293-0.005-0.053 0.005-0.141 0.017-0.189 0.022-0.087 0.104-0.158 0.119-0.247 0.015-0.073-0.010-0.209-0.065-0.129 0.005-0.063-0.374-0.049-0.405-0.051-0.097-0.005-0.194-0.034-0.257 0.029-0.039 0.039-0.034 0.080-0.039 0.126-0.007 0.063-0.036 0.112-0.046 0.172-0.027 0.153 0.090 0.277 0.082 0.422-0.007 0.148 0.019 0.291 0.012 0.439-0.002 0.015-0.002 0.029-0.002 0.044-0.189-0.002-0.381-0.007-0.57-0.015 0.012-0.044 0.024-0.087 0.029-0.131 0.007-0.053 0.019-0.124 0.007-0.177-0.024-0.099-0.153-0.189-0.165-0.293-0.005-0.053 0.005-0.141 0.017-0.189 0.022-0.087 0.104-0.158 0.121-0.247 0.012-0.073-0.012-0.209-0.065-0.129 0.005-0.063-0.374-0.049-0.407-0.051-0.095-0.005-0.194-0.034-0.257 0.029-0.039 0.039-0.034 0.080-0.039 0.126-0.007 0.063-0.036 0.112-0.046 0.172-0.027 0.153 0.090 0.277 0.082 0.422-0.007 0.148 0.019 0.291 0.012 0.439 0 0.005 0 0.010 0 0.012-0.063 0-0.126 0-0.187 0.002-0.284 0.012-0.563 0.070-0.847 0.090-0.495 0.034-0.992 0.090-1.484 0.087-0.589-0.002-1.159-0.015-1.739 0.102-0.332 0.065-0.679 0.172-1.019 0.175-0.085 0.039-0.165 0.082-0.172 0.158-0.012 0.124 0.146 0.090 0.23 0.087 0.104-0.002 0.189-0.036 0.294-0.036s0.226-0.015 0.327 0.002c0.187 0.036 0.381 0.107 0.57 0.153 0.131 0.032 0.264 0.053 0.395 0.092 0.298 0.082 0.589 0.201 0.897 0.238 0.332 0.036 0.677-0.019 1.007-0.034 0.347-0.015 0.691-0.022 1.038-0.051 0.216-0.017 0.429-0.046 0.643-0.065 0.005 0.051 0.010 0.099 0.019 0.15 0.019 0.126 0.007 0.255 0.032 0.381 0.012 0.058 0.022 0.090-0.007 0.148-0.024 0.044-0.058 0.073-0.061 0.126-0.007 0.129 0.126 0.126 0.23 0.192-0.036 0.056-0.053 0.092-0.005 0.15 0.017 0.019 0.044 0.032 0.058 0.051 0.034 0.041 0.029 0.092 0.046 0.138 0.099-0.039 0.192-0.044 0.308-0.039 0.049 0.002 0.104 0 0.15 0.012 0.063 0.015 0.116 0.078 0.192 0.061-0.087-0.15-0.078-0.315-0.121-0.475-0.029-0.104-0.015-0.209-0.007-0.313 0.005-0.112 0.015-0.228-0.027-0.337-0.034-0.090-0.049-0.175-0.046-0.267 0.175 0 0.347 0 0.521 0 0.002 0.056 0.010 0.112 0.017 0.172 0.019 0.126 0.010 0.255 0.034 0.381 0.010 0.058 0.022 0.090-0.007 0.148-0.024 0.044-0.061 0.073-0.063 0.126-0.007 0.129 0.129 0.126 0.233 0.192-0.039 0.056-0.053 0.092-0.005 0.15 0.015 0.019 0.044 0.032 0.058 0.051 0.034 0.041 0.027 0.092 0.044 0.138 0.102-0.039 0.192-0.044 0.308-0.039 0.049 0.002 0.107 0 0.153 0.012 0.063 0.015 0.116 0.078 0.189 0.061-0.087-0.15-0.075-0.315-0.119-0.475-0.029-0.104-0.017-0.209-0.010-0.313 0.007-0.112 0.017-0.228-0.024-0.337-0.036-0.097-0.056-0.189-0.049-0.291 0.24-0.017 0.478-0.039 0.716-0.058-0.002 0.085 0.007 0.165 0.019 0.255 0.019 0.126 0.007 0.255 0.032 0.381 0.012 0.058 0.024 0.090-0.007 0.148-0.022 0.044-0.058 0.073-0.061 0.126-0.007 0.129 0.126 0.126 0.23 0.192-0.036 0.056-0.051 0.092-0.005 0.15 0.017 0.019 0.046 0.032 0.061 0.051 0.032 0.041 0.027 0.092 0.044 0.138 0.102-0.039 0.192-0.044 0.308-0.039 0.049 0.002 0.104 0 0.153 0.012 0.063 0.015 0.114 0.078 0.189 0.061-0.087-0.15-0.078-0.315-0.121-0.475-0.029-0.104-0.015-0.209-0.007-0.313 0.007-0.112 0.015-0.228-0.027-0.337-0.036-0.099-0.056-0.189-0.046-0.294 0.005-0.041 0.012-0.082 0.022-0.124 0.192-0.017 0.386-0.032 0.577-0.041 0.032 0.005 0.061 0.010 0.090 0.015 0 0.039 0 0.080 0 0.119-0.005 0.18 0.121 0.337 0.155 0.514 0.019 0.092 0.019 0.172 0.019 0.262 0 0.065 0.022 0.124 0.034 0.187 0.027 0.114 0.034 0.235 0.080 0.344 0.097 0.23 0.264 0.407 0.454 0.563 0.104 0.087 0.18 0.204 0.279 0.296 0.082 0.078 0.165 0.155 0.24 0.238 0.167 0.184 0.318 0.41 0.546 0.524 0.247 0.124 0.572 0.075 0.842 0.078z"></path>
<path d="M26.733 5.313c-0.063 0.005-0.121 0.070-0.165 0.109-0.068 0.063-0.131 0.131-0.196 0.199 0.056-0.029 0.109-0.061 0.155-0.099 0.073-0.061 0.136-0.143 0.206-0.209z"></path>
<path d="M27.325 9.771c0.182-0.177 0.33-0.383 0.512-0.563 0.082-0.080 0.17-0.16 0.24-0.252-0.002 0.002-0.005 0.002-0.007 0.005 0.017-0.017 0.029-0.036 0.041-0.053-0.010 0.017-0.022 0.034-0.034 0.049 0.015-0.005 0.027-0.010 0.039-0.019 0.017-0.019 0.027-0.046 0.034-0.075 0.022-0.032 0.044-0.065 0.068-0.099 0.121-0.165 0.078-0.393 0.046-0.587-0.010-0.070-0.012-0.143-0.010-0.213 0.005-0.116 0.007-0.107-0.15-0.121 0 0.141-0.029 0.26-0.099 0.386-0.061 0.109-0.095 0.228-0.17 0.33-0.065 0.087-0.116 0.177-0.18 0.267-0.073 0.102-0.177 0.184-0.26 0.281-0.034 0.039-0.068 0.080-0.102 0.121-0.277 0.109-0.553 0.196-0.851 0.24-0.177 0.024-0.369 0.090-0.546 0.087-0.262-0.005-0.538-0.049-0.791-0.109-0.165-0.039-0.306-0.109-0.463-0.165-0.138-0.049-0.235-0.090-0.349-0.184-0.073-0.063-0.126-0.116-0.211-0.155-0.058-0.027-0.114-0.046-0.167-0.075 0.196-0.153 0.395-0.301 0.58-0.466 0.138-0.121 0.284-0.257 0.388-0.41 0.16-0.24 0.369-0.427 0.526-0.667 0.182-0.274 0.458-0.48 0.655-0.745 0.051-0.070 0.109-0.133 0.16-0.199 0.087-0.112 0.141-0.252 0.216-0.371 0.15-0.243 0.308-0.5 0.507-0.701-0.099-0.099-0.289 0.109-0.497 0.296-0.070 0.065-0.15 0.116-0.23 0.172 0.024-0.024 0.046-0.046 0.068-0.068 0.029-0.029 0.058-0.058 0.085-0.087-0.087 0.046-0.18 0.085-0.26 0.129-0.226 0.121-0.417 0.25-0.597 0.434-0.104 0.107-0.204 0.213-0.325 0.301-0.107 0.078-0.194 0.17-0.286 0.262-0.204 0.204-0.415 0.403-0.609 0.614-0.221 0.24-0.407 0.512-0.623 0.759-0.065 0.073-0.138 0.146-0.209 0.218-0.078-0.109-0.146-0.223-0.192-0.349-0.005-0.007-0.007-0.015-0.012-0.019-0.041-0.048-0.075-0.053-0.082-0.119-0.012-0.078 0.061-0.143 0.068-0.209 0.012-0.107-0.167-0.121-0.211-0.194-0.049-0.080-0.029-0.216-0.015-0.311 0.010-0.063 0.007-0.099-0.005-0.167-0.022-0.119-0.056-0.262-0.049-0.386s0.061-0.235 0.075-0.357c0.027-0.213-0.044-0.437 0.019-0.645 0.019-0.061 0.046-0.124 0.068-0.182 0.073-0.213 0.199-0.349 0.359-0.512 0.24-0.247 0.49-0.488 0.733-0.73 0.034-0.039 0.019-0.199-0.112-0.163-0.046 0.012-0.061 0.049-0.099 0.073-0.041 0.029-0.082 0.048-0.124 0.078-0.342 0.233-0.832 0.257-1.016 0.684-0.046 0.107-0.065 0.226-0.104 0.335s-0.116 0.182-0.184 0.274c-0.107 0.146-0.23 0.32-0.301 0.485-0.063 0.146-0.16 0.289-0.182 0.444-0.010 0.058 0.002 0.080 0.002 0.136 0.002 0.097-0.061 0.179-0.063 0.277-0.007 0.153 0.073 0.279 0.129 0.415 0.056 0.138 0.097 0.279 0.175 0.407 0.085 0.146 0.119 0.337 0.119 0.507 0 0.092-0.005 0.172-0.024 0.262-0.027 0.126 0.005 0.194 0.095 0.291 0.087 0.095 0.189 0.136 0.26 0.24 0.012 0.019 0.027 0.036 0.041 0.056-0.044 0.036-0.085 0.080-0.129 0.116-0.15 0.126-0.301 0.25-0.454 0.374-0.041-0.061-0.078-0.131-0.121-0.189-0.032-0.041-0.075-0.099-0.119-0.129-0.090-0.056-0.243-0.027-0.325-0.092-0.041-0.034-0.095-0.102-0.121-0.146-0.049-0.078-0.036-0.184-0.090-0.26-0.044-0.061-0.158-0.141-0.138-0.044-0.041-0.049-0.298 0.228-0.323 0.25-0.073 0.063-0.163 0.114-0.163 0.201 0 0.056 0.034 0.082 0.063 0.119 0.039 0.049 0.053 0.104 0.090 0.153 0.087 0.129 0.257 0.131 0.357 0.24 0.097 0.109 0.218 0.192 0.318 0.303 0.012 0.015 0.027 0.029 0.039 0.044-0.010 0.010-0.022 0.017-0.032 0.027-0.18 0.16-0.349 0.332-0.519 0.505-0.027-0.044-0.051-0.087-0.082-0.126-0.032-0.044-0.073-0.102-0.119-0.131-0.087-0.053-0.243-0.024-0.325-0.092-0.041-0.034-0.095-0.102-0.121-0.143-0.046-0.080-0.036-0.187-0.087-0.262-0.046-0.061-0.158-0.141-0.138-0.044-0.041-0.049-0.301 0.23-0.323 0.25-0.073 0.065-0.163 0.114-0.163 0.204 0 0.053 0.034 0.080 0.061 0.116 0.039 0.049 0.056 0.104 0.090 0.155 0.090 0.126 0.26 0.131 0.357 0.238 0.099 0.109 0.221 0.194 0.32 0.303 0.010 0.012 0.019 0.022 0.029 0.034-0.136 0.131-0.274 0.262-0.412 0.391-0.024-0.039-0.046-0.078-0.073-0.114-0.032-0.041-0.075-0.099-0.121-0.129-0.087-0.056-0.243-0.027-0.323-0.092-0.044-0.034-0.097-0.102-0.121-0.146-0.049-0.078-0.039-0.184-0.090-0.26-0.044-0.061-0.158-0.141-0.138-0.044-0.041-0.049-0.298 0.228-0.323 0.25-0.073 0.065-0.163 0.114-0.163 0.201 0 0.056 0.034 0.082 0.063 0.119 0.039 0.049 0.053 0.104 0.087 0.153 0.090 0.129 0.26 0.131 0.357 0.24 0.099 0.109 0.221 0.192 0.32 0.303 0.002 0.002 0.005 0.007 0.007 0.010-0.044 0.044-0.087 0.087-0.129 0.133-0.194 0.209-0.349 0.449-0.536 0.662-0.449 0.512-0.723 0.849-0.99 1.111-0.417 0.415-0.827 0.81-1.157 1.3-0.187 0.281-0.357 0.604-0.594 0.844-0.034 0.087-0.061 0.177-0.012 0.233 0.078 0.097 0.167-0.039 0.223-0.099 0.073-0.078 0.109-0.16 0.184-0.233 0.073-0.073 0.148-0.172 0.233-0.23 0.158-0.107 0.344-0.194 0.509-0.296 0.116-0.070 0.228-0.148 0.344-0.213 0.272-0.153 0.56-0.274 0.803-0.468 0.262-0.209 0.466-0.49 0.691-0.735 0.233-0.255 0.473-0.502 0.696-0.769 0.141-0.165 0.272-0.337 0.41-0.502 0.036 0.032 0.075 0.063 0.116 0.092 0.104 0.078 0.187 0.177 0.294 0.247 0.049 0.034 0.080 0.049 0.099 0.109 0.015 0.049 0.010 0.095 0.046 0.133 0.085 0.097 0.177 0 0.298-0.029 0.012 0.068 0.027 0.102 0.104 0.112 0.024 0.002 0.053-0.010 0.078-0.007 0.053 0.007 0.085 0.046 0.129 0.068 0.044-0.099 0.104-0.167 0.192-0.245 0.036-0.032 0.073-0.075 0.114-0.099 0.056-0.034 0.138-0.027 0.177-0.092-0.167-0.044-0.277-0.167-0.422-0.252-0.092-0.051-0.158-0.133-0.226-0.213-0.075-0.082-0.15-0.172-0.257-0.221-0.087-0.039-0.158-0.087-0.221-0.155 0.124-0.124 0.245-0.247 0.369-0.369 0.041 0.039 0.085 0.073 0.133 0.109 0.104 0.075 0.187 0.175 0.294 0.245 0.049 0.034 0.080 0.049 0.099 0.109 0.015 0.049 0.010 0.095 0.044 0.133 0.087 0.097 0.18 0 0.301-0.027 0.012 0.065 0.027 0.102 0.104 0.109 0.024 0.002 0.053-0.010 0.075-0.005 0.056 0.005 0.085 0.046 0.131 0.065 0.044-0.099 0.104-0.165 0.189-0.245 0.036-0.032 0.075-0.075 0.116-0.099 0.056-0.034 0.138-0.027 0.177-0.090-0.167-0.046-0.277-0.17-0.422-0.252-0.095-0.053-0.158-0.136-0.226-0.216-0.075-0.082-0.15-0.172-0.257-0.221-0.095-0.041-0.172-0.092-0.238-0.172 0.155-0.179 0.308-0.364 0.463-0.546 0.058 0.061 0.121 0.114 0.194 0.165 0.102 0.078 0.187 0.175 0.291 0.247 0.051 0.034 0.080 0.049 0.099 0.109 0.015 0.049 0.010 0.095 0.046 0.133 0.087 0.097 0.18 0 0.298-0.029 0.012 0.065 0.029 0.102 0.104 0.112 0.024 0.002 0.053-0.010 0.078-0.007 0.053 0.007 0.085 0.046 0.129 0.068 0.044-0.099 0.104-0.167 0.192-0.245 0.036-0.034 0.073-0.075 0.114-0.099 0.056-0.034 0.138-0.027 0.177-0.092-0.167-0.044-0.277-0.167-0.422-0.252-0.092-0.053-0.155-0.136-0.226-0.213-0.073-0.085-0.15-0.175-0.257-0.221-0.095-0.044-0.172-0.095-0.24-0.175-0.027-0.032-0.049-0.065-0.070-0.102 0.124-0.148 0.25-0.293 0.376-0.439 0.027-0.017 0.051-0.036 0.075-0.053 0.029 0.029 0.056 0.058 0.082 0.085 0.124 0.131 0.327 0.153 0.475 0.252 0.078 0.053 0.133 0.109 0.199 0.175 0.046 0.044 0.102 0.070 0.155 0.104 0.102 0.063 0.192 0.146 0.301 0.189 0.23 0.095 0.475 0.099 0.718 0.078 0.136-0.012 0.272 0.017 0.407 0.012 0.114-0.005 0.226-0.007 0.34-0.002 0.247 0.012 0.512 0.065 0.754-0.015 0.262-0.087 0.456-0.352 0.65-0.541z"></path>
<path d="M16.983 17.843c0.23-0.044 0.429-0.221 0.604-0.369 0.15-0.129 0.216-0.332 0.226-0.524 0.007-0.204 0.051-0.41 0.068-0.611 0.010-0.119 0.046-0.23 0.063-0.349 0.017-0.112 0.005-0.228 0.007-0.342 0-0.107 0.007-0.189-0.039-0.291-0.051-0.107-0.129-0.204-0.199-0.298-0.158-0.213-0.291-0.458-0.514-0.616-0.148-0.104-0.325-0.177-0.488-0.252-0.124-0.056-0.26-0.078-0.378-0.143-0.102-0.058-0.175-0.085-0.296-0.068-0.049 0.007-0.104 0.024-0.153 0.039-0.041 0.015-0.061 0.034-0.109 0.046-0.044 0.015-0.092 0.017-0.138 0.019l0.364-0.243c-0.046-0.010-0.075 0.022-0.114 0.036-0.056 0.019-0.119 0.019-0.167 0.051-0.141 0.092-0.286 0.199-0.412 0.315-0.102 0.095-0.223 0.16-0.327 0.252-0.087 0.080-0.235 0.184-0.286 0.289-0.027 0.051-0.041 0.116-0.061 0.17-0.097 0.286-0.223 0.585-0.238 0.885-0.012 0.209-0.063 0.429-0.024 0.638 0.034 0.194 0.124 0.34 0.264 0.468 0.082 0.075 0.155 0.163 0.243 0.228 0.082 0.061 0.18 0.104 0.267 0.15 0.143 0.075 0.284 0.15 0.434 0.206 0.129 0.046 0.264 0.063 0.393 0.107 0.209 0.070 0.417 0.131 0.635 0.17 0.119 0.022 0.252 0.061 0.376 0.036z"></path>
<path d="M15.33 18.35c-0.061-0.034-0.092-0.090-0.15-0.114-0.065-0.029-0.17-0.010-0.245-0.022-0.112-0.019-0.218-0.053-0.33-0.082-0.082-0.019-0.146-0.036-0.218-0.073-0.124-0.058-0.233-0.16-0.342-0.24-0.199-0.148-0.221-0.369-0.354-0.56-0.068-0.099-0.148-0.204-0.226-0.301-0.165-0.206-0.218-0.422-0.216-0.686 0-0.204 0.012-0.4 0.051-0.602 0.029-0.141 0.070-0.281 0.085-0.422 0.019-0.175 0.16-0.483 0.269-0.628 0.112-0.155 0.189-0.344 0.34-0.468 0.172-0.138 0.221-0.23 0.439-0.272l0.024-0.012c0.053 0.010 0.104 0.012 0.146 0.012 0.080-0.002 0.182 0.019 0.26 0.002 0.053-0.012 0.121-0.065 0.165-0.099 0.068-0.049 0.092-0.109 0.182-0.143 0.097-0.036 0.204-0.036 0.306-0.056 0.42-0.075 0.827-0.247 1.249-0.293 0.148-0.017 0.301 0.201 0.437 0.262 0.201 0.092 0.391-0.019 0.536 0.15 0.141 0.165 0.403 0.238 0.589 0.34 0.124 0.068 0.163 0.155 0.201 0.293 0.095 0.315-0.024 0.667 0.075 0.975 0.027 0.082 0.090 0.146 0.124 0.226 0.049 0.109 0.056 0.23 0.109 0.337 0.187 0.386 0.318 0.847 0.063 1.227-0.053 0.082-0.116 0.155-0.177 0.228-0.029 0.027-0.058 0.053-0.090 0.078-0.17 0.136-0.371 0.252-0.555 0.369-0.085 0.053-0.153 0.095-0.228 0.16-0.097 0.082-0.17 0.189-0.26 0.281-0.063 0.065-0.15 0.107-0.223 0.167-0.090 0.080-0.192 0.158-0.298 0.213-0.243 0.126-0.541 0.177-0.805 0.104-0.002 0-0.005 0-0.007 0-0.053-0.027-0.104-0.053-0.158-0.070-0.143-0.046-0.262-0.087-0.41-0.146-0.112-0.046-0.25-0.078-0.357-0.136zM19.303 15.92c-0.022-0.044-0.046-0.092-0.068-0.141 0.044-0.121 0.068-0.279 0.075-0.371 0.015-0.16 0.010-0.347 0-0.505-0.015-0.255-0.182-0.492-0.383-0.648 0.002-0.16-0.002-0.335-0.049-0.483-0.049-0.16-0.194-0.063-0.294-0.194-0.044-0.058-0.087-0.114-0.136-0.172-0.092-0.112-0.167-0.155-0.301-0.24-0.124-0.075-0.136-0.075-0.24-0.114-0.051-0.019-0.082-0.036-0.126-0.073-0.112-0.085-0.23-0.070-0.369-0.097-0.102-0.019-0.17-0.272-0.274-0.252-0.313 0.061-0.662-0.002-0.956 0.133-0.131 0.061-0.25 0.102-0.369 0.177-0.15 0.005-0.301 0.015-0.449 0.029-0.068 0.007-0.109 0.051-0.17 0.073-0.051 0.017-0.107 0.019-0.16 0.041-0.138 0.056-0.298 0.116-0.432 0.158-0.121 0.039-0.243 0.044-0.354 0.114-0.109 0.068-0.223 0.119-0.337 0.179-0.16 0.090-0.095 0.206-0.247 0.308-0.131 0.090-0.267 0.24-0.342 0.378-0.056 0.099-0.073 0.211-0.102 0.318-0.039 0.15-0.337 0.289-0.371 0.439-0.041 0.18 0.005 0.313 0.015 0.485 0.012 0.206-0.063 0.4-0.073 0.606-0.012 0.228 0.005 0.458 0.002 0.686-0.005 0.458 0.175 0.888 0.393 1.281 0.056 0.099 0.112 0.184 0.201 0.26 0.044 0.039 0.102 0.070 0.141 0.116 0.126 0.158 0.26 0.366 0.439 0.468 0.114 0.063 0.25 0.112 0.371 0.17 0.172 0.080 0.371 0.138 0.555 0.18 0.221 0.051 0.48 0.019 0.708 0.010 0.194-0.010 0.383-0.036 0.58-0.034 0.165 0.005 0.235-0.024 0.405-0.068 0.036-0.010 0.070-0.017 0.104-0.024 0.029 0.007 0.061 0.015 0.085 0.022 0.044 0.010 0.141 0.056 0.172 0.065 0.131 0.039 0.349-0.024 0.473-0.063 0.102-0.032 0.196-0.082 0.289-0.138 0.087-0.002 0.175 0.005 0.26-0.019 0.172-0.051 0.279-0.209 0.381-0.347 0.024-0.032 0.046-0.065 0.070-0.099 0.177-0.119 0.277-0.289 0.405-0.456 0.133-0.172 0.264-0.349 0.374-0.538 0.010-0.012 0.024-0.024 0.034-0.039 0.090-0.116 0.121-0.286 0.17-0.422 0.046-0.131 0.044-0.262 0.046-0.398 0.002-0.257-0.036-0.531-0.148-0.762z"></path>
</svg>
