<!-- Generated by IcoMoon.io -->
<svg version="1.1" xmlns="http://www.w3.org/2000/svg" width="28" height="32" viewBox="0 0 28 32">
<title>dealings_in_the_dark</title>
<path d="M15.441 14.735c-0.743-0.496-1.797-0.186-2.292 0.523-0.588 0.742-0.33 1.762 0.212 2.462 0.162 0.201 0.345 0.421 0.563 0.582-0.083-0.093-0.152-0.207-0.201-0.352-0.134-0.405-0.075-0.885 0.286-1.113 0.396-0.25 0.822-0.354 1.256-0.129 0.141 0.155 0.471 0.469 0.537 0.934 0.010 0.072 0.006 0.141-0.007 0.205 0.388-0.606 0.555-1.392 0.412-2.066-0.172-0.384-0.405-0.811-0.765-1.047z"></path>
<path d="M12.336 20.808c-0.259-0.116-0.53-0.675-0.527-0.944 0.003-0.331 0.072-0.614 0.376-0.753 0.302-0.137 0.517-0.007 0.765 0.136-0.004-0.003-0.007-0.006-0.011-0.010-0.322-0.273-0.632-0.567-0.9-0.896-0.133-0.155-0.279-0.304-0.444-0.373-0.566-0.162-1.203 0.155-1.481 0.667-0.417 0.686-0.25 1.661 0.488 2.062 0.631 0.377 1.411 0.359 2.117 0.177-0.122 0.010-0.251-0.007-0.384-0.067z"></path>
<path d="M19.338 16.578c-0.116-0.075-0.198-0.208-0.312-0.284-0.098-0.065-0.238-0.096-0.313-0.218-0.168-0.269-0.262-0.822-0.313-1.135-0.15-0.898-0.261-1.672-0.004-2.566 0.096-0.334 0.193-0.678 0.324-1.002 0.143-0.351 0.183-0.643 0.273-1.005 0.2-0.793 0.34-1.56 0.488-2.367 0.158-0.865 0.372-1.74 0.611-2.584 0.218-0.771 0.355-1.628 0.627-2.385 0.039 0.182 0.025-0.026 0.094-0.13 0.105 0.126 0.055 0.33 0.062 0.499 0.042 0.948 0.184 1.886 0.28 2.83 0.103 1.009-0.021 2.034 0.112 3.040 0.128 0.977 0.14 1.94 0.141 2.934 0.001 0.875 0.035 1.629-0.283 2.448-0.258 0.664-0.664 2.644-1.788 1.926zM19.887 20.645c-0.209 0.689-0.875 1.102-1.501 1.36-0.136 0.067-0.306 0.065-0.438 0.049-0.837-0.103-1.676-0.426-2.271-1.016-0.313-0.198-0.609-0.561-0.469-0.947 0.011-0.030 0.025-0.058 0.042-0.086 0.010-0.036 0.017-0.073 0.032-0.108 0.055-0.126 0.155-0.233 0.272-0.306 0.238-0.128 0.417-0.305 0.577-0.516 0.248-0.311 0.484-0.682 0.867-0.867 0.134-0.062 0.287-0.086 0.428-0.085 0.553 0.030 1.097 0.065 1.603 0.322 0.778 0.399 1.135 1.385 0.86 2.2zM15.978 27.045c-0.073 0.485-0.19 0.944-0.409 1.385-0.137 0.279-0.384 0.886-0.642 1.045-0.252 0.154-0.408-0.033-0.634-0.111-0.13-0.044-0.232-0.065-0.379-0.054-0.1 0.008-0.269 0.105-0.345 0.096-0.219-0.028-0.297-0.208-0.408-0.378-0.119-0.183-0.313-0.405-0.157-0.281-0.154-0.438-0.408-0.836-0.438-1.349-0.039-0.636 0.122-1.176 0.344-1.754 0.305-0.794 1.367-1.818 2.321-1.485 1.105 0.387 0.879 1.999 0.746 2.887zM10.167 21.112c-1.013-0.487-1.281-1.869-0.714-2.802 0.405-0.71 1.299-1.14 2.102-0.883 0.273 0.121 0.442 0.34 0.602 0.537 0.298 0.409 0.653 0.767 1.013 1.119 0.161 0.168 0.423 0.348 0.535 0.557 0.036 0.089 0.049 0.18 0.051 0.272 0.080 0.482-0.238 1.030-0.714 1.194-0.904 0.377-1.98 0.489-2.875 0.007zM8.090 16.077c-0.652-0.309-1.352-0.283-1.678-1.004-0.374-0.829-0.437-1.879-0.525-2.789-0.107-1.099-0.251-2.229-0.060-3.325 0.090-0.52 0.128-1.099 0.317-1.593 0.216-0.564 0.458-1.122 0.646-1.701 0.33-1.020 0.421-2.234 0.977-3.167-0.030-0.011-0.062-0.036-0.026-0.087 0.175-0.024 0.208 0.144 0.286 0.27 0.481 0.782 0.832 1.736 0.968 2.662 0.226 1.554 0.545 3.043 0.998 4.552 0.13 0.431 0.214 0.885 0.448 1.267 0.225 0.366 0.438 0.706 0.628 1.095 0.272 0.56 0.645 1.101 0.728 1.73 0.122 0.922-0.252 2.49-1.334 2.647-0.387 0.057-0.771-0.126-1.141-0.201-0.44-0.089-0.837-0.171-1.233-0.356zM12.761 14.783c0.951-1.399 3.052-1.349 3.695 0.302 0.467 0.855 0.112 2.153-0.523 2.939-0.18 0.416-0.739 0.664-1.113 0.7-0.326 0.030-0.614-0.025-0.84-0.189-0.338-0.165-0.621-0.47-0.865-0.743-0.708-0.807-1.023-2.077-0.354-3.010zM23.523 22.687c-0.578-0.176-1.465-0.162-1.91-0.567-0.434-0.394-0.439-0.914-0.488-1.454-0.050-0.564 0.255-1.038 0.098-1.607-0.116-0.424-0.481-0.683-0.442-1.152 0.044-0.56 0.415-0.95 0.657-1.42 0.119-0.229 0.132-0.509 0.207-0.757 0.123-0.405 0.326-0.807 0.362-1.233 0.164-1.898-0.183-3.878-0.337-5.763-0.083-1.032-0.151-2.053-0.227-3.083-0.030-0.408-0.128-0.79-0.132-1.196-0.004-0.451-0.014-0.923-0.054-1.373-0.021-0.225-0.033-0.872-0.254-0.993-0.251-0.137-0.435 0.208-0.517 0.394-0.158 0.36-0.222 0.753-0.377 1.113-0.261 0.609-0.376 1.144-0.466 1.783-0.090 0.65-0.358 1.337-0.523 1.976-0.154 0.589-0.491 1.156-0.789 1.687-0.775 1.384-1.052 2.932-1.027 4.489-0.183-0.909-0.661-1.386-1.36-1.97-0.273-0.227-0.524-0.453-0.873-0.567-1.234-0.401-2.12 0.537-2.873 1.373-0.085-0.219-0.202-0.398-0.302-0.616-0.086-0.189-0.083-0.409-0.173-0.598-0.326-0.678-0.775-1.271-0.993-2.009-0.123-0.419-0.42-0.776-0.553-1.195-0.096-0.301-0.101-0.606-0.211-0.904-0.114-0.306-0.245-0.592-0.315-0.914-0.090-0.421-0.141-0.851-0.219-1.276-0.191-1.051-0.403-2.001-1.025-2.902-0.13-0.19-0.299-0.817-0.491-0.923-0.003-0.001-0.006-0.003-0.008-0.004-0.39-0.189-0.462 0.609-0.575 0.836-0.198 0.392-0.355 0.765-0.513 1.177-0.396 1.037-0.596 2.135-0.923 3.187-0.772 2.48-1.111 5.321-0.362 7.836 0.141 0.48 0.308 0.993 0.516 1.447 0.268 0.585 0.646 1.172 0.657 1.802 0.015 0.774 0.478 1.418 0.317 2.228-0.187 0.95-0.718 1.949-1.726 2.125-0.659 0.116-1.457-0.093-2.080 0.118-0.143 0.049 0.785 1.070 0.84 1.13 0.166 0.179 0.381 0.322 0.574 0.47 0.625 0.48 1.355 0.808 1.927 1.346 0.916 0.86 2.392 1.208 3.161 2.209 0.421 0.546 0.623 1.21 0.957 1.805 0.398 0.708 1.030 0.95 1.575 1.499 0.1 0.1 0.251 0.369 0.395 0.398 0.216 0.044 0.207-0.164 0.406-0.269 0.324-0.171 0.987-0.247 1.343-0.186 0.333 0.057 0.962 0.489 1.055 0.815 0.247-0.218 0.638-0.288 0.876-0.553 0.189-0.208 0.383-0.505 0.543-0.735 0.159-0.232 0.348-0.409 0.503-0.621 0.341-0.464 0.158-1.187 0.272-1.726 0.053 0.359 1.377-0.762 1.582-0.871 1.045-0.555 2.005-1.263 3.054-1.82 0.435-0.232 0.873-0.485 1.276-0.767 0.211-0.148 0.803-0.424 0.83-0.732 0.030-0.354-0.611-0.412-0.867-0.489z"></path>
<path d="M18.597 18.847c-0.377-0.207-0.853-0.234-1.295-0.283-0.216-0.018-0.403 0.067-0.571 0.218-0.173 0.151-0.322 0.348-0.485 0.527 0.498-0.262 0.868 0.317 0.855 0.853-0.017 0.641-0.498 1.077-1.094 0.86 0.513 0.366 1.149 0.561 1.765 0.61 0.114 0.006 0.205 0.004 0.295-0.044 0.301-0.139 0.605-0.308 0.837-0.539 0.647-0.596 0.462-1.795-0.308-2.2z"></path>
</svg>
