<!-- Generated by IcoMoon.io -->
<svg version="1.1" xmlns="http://www.w3.org/2000/svg" width="31" height="32" viewBox="0 0 31 32">
<title>decay_and_filth</title>
<path d="M12.582 11.82c-0.068-0.555 0.063-1.109 0.063-1.664 0-0.118-0.018-0.24 0.009-0.355 0.021-0.084 0.060-0.173 0.089-0.253 0.106-0.267 0.271-0.508 0.444-0.741 0.076-0.101 0.199-0.165 0.309-0.232 0.123-0.081 0.271-0.259 0.419-0.297 0.080-0.025 0.186-0.031 0.271-0.047 0.114-0.012 0.233-0.003 0.347 0.025 0.275 0.072 0.542 0.249 0.779 0.402 0.131 0.084 0.258 0.194 0.411 0.224 0.144 0.031 0.3 0.015 0.436-0.009 0.217-0.042 0.381-0.148 0.555-0.275 0.084-0.068 0.224-0.229 0.326-0.253 0.102-0.031 0.191 0.067 0.275 0.109 0.054 0.038 0.080 0.073 0.136 0.119 0.072 0.058 0.072 0.109 0.109 0.182 0.031 0.067 0.102 0.109 0.153 0.165 0.131 0.136 0.165 0.291 0.245 0.457 0.060 0.136 0.174 0.236 0.259 0.36 0.101 0.16 0.173 0.318 0.304 0.465 0.191 0.229 0.377 0.559 0.253 0.859-0.031 0.081-0.084 0.144-0.114 0.224-0.021 0.064-0.034 0.128-0.055 0.186-0.034 0.14-0.084 0.301-0.080 0.444 0.003 0.106 0.084 0.208 0.136 0.301 0.038 0.084 0.034 0.080-0.051 0.136-0.169 0.097-0.326 0.136-0.517 0.182-0.232 0.055-0.478 0.109-0.719 0.118-0.211 0.009-0.423 0-0.626 0-0.152 0-0.296 0.003-0.444 0.003-0.178-0.003-0.342-0.038-0.512-0.064-0.216-0.034-0.423-0.012-0.631-0.034-0.194-0.021-0.376-0.076-0.562-0.136-0.178-0.055-0.339-0.042-0.524-0.051-0.166-0.003-0.326-0.031-0.492-0.025-0.271 0-0.542-0.003-0.817 0-0.084 0-0.156-0.031-0.236-0.034-0.055 0-0.073 0-0.093-0.064-0.031-0.102-0.003-0.245-0.003-0.355s-0.031-0.246 0.153-0.080z"></path>
<path d="M10.829 20.847c-0.034 0-0.072 0.012-0.105 0-0.115-0.035-0.224-0.178-0.335-0.233-0.106-0.051-0.195-0.122-0.296-0.204-0.17-0.131-0.344-0.229-0.521-0.338-0.195-0.127-0.389-0.162-0.588-0.242-0.055-0.021-0.109-0.047-0.165-0.072-0.076-0.042-0.136-0.123-0.216-0.169-0.051-0.031-0.111-0.077-0.166-0.077-0.042 0-0.047 0.018-0.067 0.093-0.034 0.162-0.051 0.33-0.077 0.495-0.058 0.386-0.169 0.741-0.228 1.126-0.035 0.255-0.051 0.517-0.073 0.779-0.031 0.335-0.127 0.655-0.203 0.97-0.186 0.778-0.364 1.552-0.546 2.336-0.073 0.287-0.106 0.613-0.199 0.888-0.051 0.148-0.127 0.262-0.182 0.398-0.047 0.111-0.084 0.22-0.127 0.339-0.072 0.24-0.118 0.508-0.195 0.749-0.063 0.211-0.178 0.428-0.22 0.664-0.009 0.081 0.019 0.068 0.021 0.132 0.009 0.050 0.003 0.114 0.003 0.169 0 0.051-0.021 0.186 0.021 0.203 0.068 0.038 0.233-0.287 0.258-0.342 0.136-0.242 0.255-0.504 0.381-0.741 0.122-0.207 0.195-0.431 0.275-0.677 0.089-0.271 0.198-0.52 0.279-0.8 0.072-0.242 0.131-0.47 0.186-0.724 0.131-0.66 0.414-1.159 0.643-1.743 0.089-0.224 0.157-0.466 0.246-0.69 0.009-0.034 0.031-0.072 0.047-0.111 0.025-0.080 0.025-0.182 0.055-0.262 0.058-0.169 0.143-0.355 0.245-0.474 0.038-0.051 0.084-0.077 0.119-0.119 0.038-0.054 0.047-0.131 0.080-0.19 0.058-0.102 0.14-0.086 0.216-0.123 0.14-0.063 0.249-0.080 0.393-0.080 0.217 0 0.432 0.084 0.644 0.157 0.076 0.031 0.148 0.101 0.216 0.156 0.031-0.258 0.080-0.504 0.106-0.757 0.018-0.195-0.021-0.377 0.072-0.486z"></path>
<path d="M20.526 20.576c0-0.009 0.006-0.018 0.006-0.031 0.073-0.003 0.166-0.178 0.213-0.24 0.122-0.14 0.229-0.208 0.368-0.275 0.147-0.064 0.271-0.169 0.41-0.279 0.089-0.076 0.166-0.144 0.233-0.258 0.077-0.123 0.144-0.292 0.229-0.394 0.089-0.105 0.106 0.060 0.136 0.17 0.115 0.444 0.233 0.893 0.331 1.35 0.038 0.191 0.076 0.38 0.106 0.571 0.021 0.122 0.072 0.229 0.096 0.351 0.047 0.174 0.051 0.373 0.073 0.559 0.025 0.242 0.067 0.466 0.131 0.69 0.122 0.431 0.262 0.855 0.398 1.27 0.111 0.334 0.275 0.609 0.415 0.905 0.122 0.255 0.233 0.5 0.326 0.783 0.054 0.165 0.122 0.326 0.173 0.495 0.080 0.279 0.122 0.575 0.178 0.859 0.047 0.237 0.131 0.453 0.169 0.681-0.084-0.038-0.148-0.153-0.224-0.22-0.106-0.093-0.198-0.157-0.3-0.284-0.064-0.098-0.131-0.207-0.208-0.287-0.080-0.081-0.178-0.106-0.253-0.199-0.093-0.118-0.174-0.262-0.253-0.402-0.162-0.271-0.271-0.571-0.394-0.881-0.114-0.279-0.236-0.486-0.313-0.791-0.063-0.267-0.105-0.55-0.16-0.826-0.060-0.313-0.018-0.669-0.093-0.973-0.021-0.084-0.055-0.162-0.080-0.233-0.047-0.131-0.077-0.262-0.106-0.402-0.047-0.22-0.106-0.466-0.195-0.652-0.054-0.105-0.101-0.22-0.143-0.329-0.064-0.153-0.090-0.221-0.204-0.221-0.093 0-0.169-0.003-0.253 0.047-0.14 0.073-0.297 0.102-0.428 0.208-0.084 0.072-0.16 0.148-0.253 0.178-0.031 0.009-0.064 0.015-0.098 0.042-0.021 0.018-0.042 0.072-0.073 0.067-0.012-0.047-0.006-0.096 0-0.139 0.018-0.106 0.039-0.213 0.055-0.322 0.012-0.148 0.035-0.267 0.060-0.406 0.021-0.089 0.031-0.144 0.031-0.242 0-0.106-0.009-0.173-0.101 0.060z"></path>
<path d="M20.602 15.645c-0.003 0.018-0.009 0.038-0.012 0.060 0.14-0.14 0.25-0.335 0.377-0.495 0.093-0.115 0.203-0.233 0.271-0.36 0.015-0.039 0.025-0.077 0.042-0.106 0.060-0.098 0.178-0.127 0.271-0.178 0.242-0.136 0.449-0.309 0.669-0.47 0.14-0.102 0.262-0.191 0.424-0.254 0.118-0.051 0.194-0.076 0.283-0.166 0.060-0.067 0.060-0.084 0.153-0.092 0.047 0 0.097 0 0.148 0.012 0.058 0.009 0.131 0.018 0.191 0.031 0.105 0.021 0.181 0.080 0.279 0.118 0.111 0.047 0.22 0.067 0.326 0.123 0.111 0.060 0.216 0.111 0.339 0.148 0.165 0.060 0.329 0.131 0.5 0.186 0.216 0.067 0.418 0.063 0.634 0.16 0.148 0.064 0.288 0.162 0.45 0.199 0.178 0.051 0.393 0.084 0.584 0.106 0.169 0.021 0.393-0.051 0.537 0.084-0.297-0.009-0.546 0.109-0.821 0.174-0.047 0.012-0.097 0.021-0.144 0.015-0.072-0.006-0.14-0.050-0.207-0.063-0.119-0.025-0.242-0.012-0.355-0.012h-0.437c-0.156 0-0.317-0.003-0.478 0-0.119 0.003-0.246 0.047-0.364 0.034-0.157-0.015-0.309-0.021-0.466-0.038-0.114-0.009-0.224-0.031-0.331-0.072-0.072-0.031-0.16-0.038-0.224-0.068-0.076-0.031-0.063-0.051-0.101-0.105-0.084-0.111-0.178-0.025-0.242 0.054-0.089 0.106-0.148 0.162-0.279 0.217-0.207 0.084-0.393 0.173-0.508 0.372-0.092 0.166-0.16 0.322-0.287 0.457-0.208 0.212-0.479 0.355-0.706 0.533l-0.018 0.012c-0.098 0.077-0.195 0.162-0.288 0.233-0.055-0.102-0.122-0.14-0.165-0.249-0.034-0.068-0.131-0.166-0.042-0.601z"></path>
<path d="M10.661 15.26c-0.060 0-0.089-0.025-0.144-0.072-0.38-0.284-0.732-0.355-1.172-0.398-0.342-0.021-0.686-0.123-0.977-0.313-0.148-0.102-0.318-0.182-0.466-0.288-0.072-0.042-0.169-0.14-0.253-0.131-0.009 0-0.068 0.034-0.080 0.034-0.106 0.051-0.195 0.115-0.292 0.186-0.245 0.182-0.571 0.309-0.855 0.424-0.338 0.131-0.677 0.258-1.019 0.373-0.317 0.109-0.657 0.16-0.97 0.258-0.16 0.055-0.351 0.067-0.516 0.084-0.106 0.012-0.208 0.031-0.306 0.055-0.022 0.009-0.127 0.012-0.135 0.025-0.047 0.055 0.111 0.111 0.148 0.127 0.237 0.093 0.491 0.102 0.744 0.102 0.259 0 0.521-0.047 0.779-0.042 0.162 0.003 0.309 0 0.47-0.034 0.16-0.034 0.309-0.084 0.473-0.084 0.157 0 0.343-0.003 0.495-0.042 0.144-0.035 0.242-0.17 0.373-0.191 0.148-0.012 0.293-0.060 0.432-0.093s0.3-0.025 0.449-0.021c0.147 0 0.325 0.097 0.465 0.157 0.14 0.063 0.25 0.186 0.339 0.309 0.084 0.115 0.178 0.195 0.287 0.292 0.060 0.054 0.086 0.114 0.136 0.178 0.064 0.080 0.111 0.054 0.199 0.080 0.068 0.015 0.093 0.072 0.14 0.109 0.055 0.055 0.118 0.077 0.186 0.102 0.16 0.064 0.326 0.136 0.495 0.136 0.093 0 0.182 0.003 0.271 0.025 0.034 0.006 0.105 0.038 0.136 0.003 0.021-0.021 0.038-0.132 0.042-0.162 0.034-0.118 0.051-0.224 0.051-0.351 0.009-0.169 0.031-0.331 0.025-0.495 0-0.089-0.003-0.173 0.025-0.255 0 0.009 0 0.012 0.025-0.089z"></path>
<path d="M19.616 12.814v0.025c0.021-0.038 0.021-0.084 0.031-0.131 0.031-0.123 0.055-0.271 0.093-0.389 0.021-0.055 0.038-0.102 0.051-0.162 0.031-0.109 0.076-0.186 0.109-0.284 0.047-0.118 0.081-0.24 0.128-0.351 0.105-0.24 0.16-0.529 0.258-0.775 0.051-0.114 0.072-0.194 0.153-0.253 0.165-0.136 0.309-0.355 0.495-0.44 0.182-0.084 0.372-0.102 0.545-0.229 0.081-0.064 0.153-0.127 0.233-0.178 0.097-0.060 0.199-0.106 0.292-0.166 0.271-0.182 0.567-0.291 0.817-0.537 0.042-0.034 0.047-0.038 0.072-0.097 0.031-0.067 0.076-0.127 0.106-0.19 0.015-0.060 0.012-0.106 0.025-0.178 0.012-0.089 0.042-0.199 0.064-0.288 0.047-0.153 0.072-0.313 0.109-0.466 0.021-0.093 0.077-0.203 0.064-0.3 0 0.242-0.003 0.466-0.021 0.698-0.012 0.119-0.012 0.259-0.034 0.373-0.015 0.166-0.072 0.331-0.109 0.491-0.031 0.166-0.060 0.335-0.098 0.499-0.018 0.060-0.021 0.166-0.051 0.212-0.025 0.031-0.127 0.076-0.153 0.089-0.063 0.051-0.127 0.109-0.198 0.152-0.131 0.089-0.271 0.089-0.406 0.153-0.229 0.109-0.462 0.233-0.686 0.373-0.144 0.089-0.313 0.216-0.44 0.364-0.111 0.131-0.166 0.351-0.237 0.533-0.195 0.516-0.55 0.868-0.719 1.413-0.047 0.153-0.098 0.31-0.144 0.466-0.042 0.119-0.080 0.216-0.102 0.344-0.131 0.080-0.182-0.263-0.216-0.386-0.021-0.076-0.118-0.313-0.031-0.385z"></path>
<path d="M11.808 12.721c-0.003-0.064-0.060-0.136-0.081-0.199-0.047-0.144-0.114-0.258-0.185-0.385-0.098-0.182-0.224-0.352-0.344-0.504-0.16-0.208-0.355-0.351-0.499-0.593-0.131-0.242-0.249-0.495-0.373-0.75-0.097-0.198-0.185-0.418-0.3-0.584-0.080-0.118-0.186-0.174-0.291-0.22-0.267-0.109-0.53-0.16-0.801-0.233-0.131-0.038-0.258-0.038-0.385-0.054-0.119-0.018-0.237-0.055-0.355-0.084-0.199-0.051-0.394-0.119-0.588-0.17-0.077-0.015-0.131-0.021-0.195-0.072-0.089-0.055-0.165-0.191-0.245-0.292-0.064-0.080-0.148-0.19-0.191-0.296-0.025-0.055-0.031-0.173-0.077-0.191-0.012 0.084-0.012 0.271 0 0.355 0.012 0.068 0.042 0.131 0.055 0.195 0.038 0.148 0.064 0.335 0.119 0.453 0.047 0.106 0.114 0.195 0.169 0.296 0.015 0.039 0.063 0.195 0.097 0.217 0.034 0.006 0.072-0.009 0.101 0 0.077 0.025 0.14 0.025 0.217 0.031 0.224 0.003 0.46 0.165 0.677 0.271 0.203 0.106 0.423 0.182 0.613 0.351 0.080 0.064 0.157 0.097 0.242 0.144 0.089 0.042 0.165 0.136 0.253 0.191 0.174 0.105 0.318 0.275 0.466 0.449 0.102 0.118 0.169 0.284 0.245 0.431 0.073 0.131 0.111 0.288 0.186 0.415 0.073 0.127 0.131 0.233 0.191 0.373 0.093 0.229 0.195 0.423 0.304 0.635 0.038 0.076 0.055 0.16 0.080 0.245 0.025 0.077 0.043 0.084 0.081 0.131 0.067 0.077 0.084 0.144 0.178 0.144 0.098 0 0.182-0.034 0.275-0.114 0.058-0.055 0.105-0.131 0.16-0.191 0.034-0.038 0.042-0.025 0.068-0.055 0.072-0.063 0.109-0.102 0.131-0.338z"></path>
<path d="M13.098 26.28c-0.060 0.018-0.067 0.073-0.080 0.127-0.025 0.115-0.031 0.255-0.047 0.377-0.034 0.208-0.064 0.419-0.097 0.635-0.021 0.122-0.067 0.229-0.106 0.351-0.015 0.089-0.025 0.178-0.042 0.271-0.038 0.123-0.101 0.229-0.165 0.343-0.047 0.084-0.089 0.194-0.148 0.262 0.068-0.080 0.237-0.148 0.331-0.182 0.051-0.021 0.118-0.025 0.173-0.051 0.098-0.042 0.127-0.144 0.182-0.229 0.047-0.076 0.106-0.114 0.153-0.186 0.076-0.114 0.118-0.245 0.198-0.355 0.073-0.089 0.153-0.203 0.186-0.313 0.064-0.191-0.105-0.474-0.198-0.622-0.051-0.084-0.394-0.453-0.339-0.428z"></path>
<path d="M17.021 26.67c0.162 0.245 0.309 0.478 0.457 0.731 0.102 0.182 0.178 0.314 0.347 0.45 0.111 0.089 0.212 0.152 0.339 0.198 0.063 0.025 0.144 0.084 0.207 0.055-0.003-0.060-0.031-0.102-0.034-0.162-0.009-0.136-0.025-0.304 0.003-0.436 0.018-0.063 0.051-0.080 0.018-0.14-0.018-0.021-0.077-0.038-0.097-0.055-0.055-0.034-0.097-0.084-0.153-0.127-0.211-0.169-0.36-0.398-0.588-0.554-0.093-0.064-0.16-0.148-0.207-0.25-0.021-0.051-0.031-0.169-0.093-0.169-0.034 0.144-0.034 0.258-0.199 0.457z"></path>
<path d="M14.808 6.991c-0.14 0.058-0.127 0.309-0.123 0.436 0.018 0.246 0.106 0.364 0.318 0.487 0.245 0.14 0.444 0.347 0.728 0.428 0.109 0.031 0.203 0.072 0.313 0.025 0.136-0.055 0.245-0.186 0.368-0.267 0.152-0.097 0.258-0.229 0.313-0.411 0.034-0.14 0.021-0.279 0.025-0.423 0-0.306-0.055-0.588-0.334-0.763-0.213-0.131-0.568-0.165-0.813-0.118-0.115 0.025-0.221 0.072-0.335 0.111-0.106 0.034-0.165 0.063-0.246 0.143-0.072 0.077-0.16 0.119-0.22 0.199-0.063 0.093-0.136 0.237 0.003 0.153z"></path>
<path d="M17.279 7.414c0.025-0.047 0.055-0.093 0.089-0.144 0.043-0.076 0.090-0.147 0.14-0.22 0.106-0.144 0.217-0.292 0.317-0.44 0.186-0.246 0.411-0.466 0.581-0.728 0.249-0.398 0.554-0.74 0.88-1.075 0.385-0.411 0.877-0.677 1.232-1.121 0.093-0.123 0.174-0.262 0.258-0.393 0.042-0.055 0.072-0.102 0.118-0.148 0.042-0.055 0.111-0.084 0.148-0.144-0.003 0.064 0.018 0.144-0.009 0.207-0.047 0.111-0.182 0.216-0.245 0.322-0.080 0.14-0.115 0.301-0.212 0.432-0.105 0.147-0.229 0.283-0.338 0.423-0.111 0.148-0.233 0.284-0.335 0.432-0.067 0.102-0.143 0.203-0.211 0.3-0.064 0.080-0.144 0.127-0.207 0.204-0.131 0.152-0.199 0.347-0.348 0.5-0.156 0.165-0.279 0.36-0.418 0.545-0.111 0.144-0.242 0.279-0.357 0.424-0.092 0.122-0.165 0.262-0.267 0.381-0.072 0.080-0.109 0.182-0.186 0.262-0.054 0.063-0.122 0.109-0.178 0.169-0.105 0.111-0.143 0.242-0.304 0.237-0.067 0-0.131 0.009-0.186 0.051-0.042 0.031-0.063 0.093-0.114 0.101-0.055-0.152 0.067-0.304 0.105-0.444 0.009-0.051 0.031-0.089 0.047-0.131z"></path>
<path d="M14.182 7.376c0.009 0.009 0.012 0.025 0.025 0.034-0.035-0.021-0.047-0.063-0.073-0.097-0.063-0.096-0.153-0.198-0.229-0.283-0.3-0.355-0.69-0.665-1.083-0.91-0.262-0.169-0.58-0.279-0.821-0.482-0.156-0.123-0.258-0.297-0.402-0.437-0.169-0.169-0.355-0.313-0.546-0.465-0.182-0.144-0.334-0.313-0.482-0.495-0.165-0.195-0.377-0.542-0.655-0.597-0.175-0.031-0.182 0.058-0.123 0.194 0.051 0.119 0.111 0.221 0.166 0.335 0.067 0.131 0.105 0.25 0.229 0.342 0.136 0.111 0.262 0.233 0.414 0.326 0.068 0.047 0.162 0.073 0.224 0.127 0.042 0.031 0.060 0.068 0.089 0.111 0.077 0.097 0.208 0.084 0.31 0.16 0.084 0.068 0.143 0.166 0.207 0.255 0.076 0.102 0.157 0.16 0.249 0.229 0.102 0.080 0.186 0.152 0.301 0.216 0.080 0.047 0.165 0.098 0.24 0.16 0.111 0.098 0.191 0.212 0.275 0.33 0.123 0.169 0.263 0.33 0.411 0.478 0.102 0.093 0.229 0.182 0.339 0.271 0.14 0.098 0.284 0.191 0.427 0.279 0.068 0.035 0.081 0.068 0.128 0.115s0.101 0.072 0.152 0.109c0.060 0.051 0.115 0.084 0.182 0.119 0.025-0.089 0.047-0.402 0.047-0.424z"></path>
<path d="M16.594 26.429c-0.111-0.368-0.301-0.719-0.428-1.083-0.076-0.224-0.067-0.466-0.165-0.686-0.073-0.156-0.153-0.291-0.204-0.457-0.042-0.16-0.136-0.296-0.233-0.436-0.123-0.169-0.267-0.339-0.347-0.524-0.109-0.25-0.169-0.537-0.242-0.801-0.131-0.469-0.194-0.939-0.296-1.408-0.123-0.606-0.275-1.219-0.216-1.829 0.102-0.948 0.253-1.883 0.347-2.831-0.084 0.457-0.072 0.398-0.080 0.347-0.009-0.047-0.034-0.060-0.034-0.114 0.003-0.136 0.025-0.271 0.034-0.402 0.025-0.288 0.195-0.521 0.271-0.796 0.060-0.216 0.136-0.444 0.242-0.651 0.109 0.021 0.063 0.22 0.058 0.271-0.015 0.16 0 0.347 0.003 0.511 0.003 0.162 0.047 0.322 0.042 0.486 0 0.174-0.055 0.36-0.021 0.538s0.136 0.347 0.118 0.529c-0.012 0.271-0.012 0.537-0.012 0.817-0.003 0.58 0.064 1.164 0.106 1.747 0.012 0.211-0.009 0.428 0.018 0.644 0.021 0.16 0.050 0.322 0.076 0.482 0.067 0.386 0.055 0.762 0.051 1.143 0 0.279 0.015 0.554 0.105 0.829 0.077 0.237 0.162 0.47 0.216 0.712 0.034 0.16 0.089 0.317 0.118 0.478 0.031 0.177 0.042 0.355 0.072 0.533 0.055 0.304 0.17 0.606 0.255 0.906 0.072 0.271 0.063 0.546 0.144 0.821 0.015 0.042 0.101 0.211 0 0.224zM20.2 16.479c-0.111-0.338-0.284-0.655-0.386-0.995-0.034-0.131-0.076-0.245-0.144-0.36-0.109-0.19-0.165-0.398-0.262-0.592-0.054-0.128-0.114-0.25-0.156-0.381-0.042-0.111-0.102-0.211-0.131-0.322-0.060-0.195-0.102-0.411-0.204-0.588-0.047-0.084-0.093-0.229-0.198-0.271-0.035-0.015-0.093-0.012-0.132-0.021-0.058-0.018-0.096-0.009-0.169 0.006-0.283 0.073-0.567 0.132-0.846 0.212-0.224 0.058-0.436 0.165-0.66 0.224-0.178 0.047-0.348 0.067-0.521 0.093-0.44 0.058-0.893 0.080-1.337 0.114-0.424 0.034-0.813 0.148-1.232 0.068-0.153-0.031-0.284-0.084-0.427-0.128-0.060-0.025-0.123-0.042-0.191-0.045-0.055-0.003-0.136 0.006-0.186-0.003-0.018-0.012-0.034-0.031-0.047-0.042-0.051-0.025-0.097-0.018-0.148-0.025-0.084-0.012-0.165-0.042-0.24-0.067-0.086-0.031-0.175-0.097-0.246-0.153-0.055-0.042-0.097-0.097-0.178-0.084h-0.012c-0.182 0.38-0.338 0.762-0.511 1.146-0.153 0.331-0.297 0.652-0.403 1.003-0.097 0.331-0.139 0.673-0.207 1.008-0.067 0.36-0.14 0.724-0.191 1.092-0.042 0.313 0.051 0.664-0.067 0.964-0.042 0.102-0.084 0.186-0.102 0.297-0.038 0.36 0.14 0.728 0.211 1.070 0.042 0.237 0.068 0.482 0.136 0.711 0.077 0.271 0.208 0.534 0.313 0.788 0.084 0.216 0.208 0.411 0.301 0.622 0.084 0.195 0.14 0.393 0.182 0.601 0.038 0.186 0.080 0.368 0.118 0.555 0.055 0.232 0.080 0.46 0.153 0.685 0.131 0.424 0.322 0.834 0.414 1.27 0.111 0.508 0.221 1.021 0.457 1.503 0.166 0.335 0.259 0.706 0.437 1.037 0.16 0.309 0.398 0.58 0.618 0.846 0.157 0.178 0.292 0.393 0.533 0.453 0.186 0.047 0.364 0.106 0.55 0.144 0.118 0.021 0.246 0.034 0.364 0.064 0.093 0.021 0.156 0.038 0.253 0.003 0.199-0.076 0.36-0.22 0.512-0.363 0.106-0.102 0.211-0.191 0.288-0.317 0.072-0.106 0.127-0.178 0.216-0.268 0.093-0.089 0.136-0.224 0.211-0.329 0.038-0.047 0.089-0.093 0.122-0.148 0.051-0.072 0.073-0.14 0.106-0.216 0.072-0.14 0.165-0.262 0.242-0.398 0.076-0.14 0.144-0.279 0.233-0.415 0.122-0.178 0.271-0.331 0.347-0.546 0.060-0.186 0.14-0.368 0.156-0.563 0.009-0.109 0.018-0.216 0.051-0.325 0.038-0.148 0.119-0.246 0.182-0.377 0.106-0.199 0.204-0.385 0.339-0.571 0.097-0.136 0.165-0.297 0.245-0.445 0.073-0.147 0.148-0.274 0.182-0.44 0.018-0.067 0.038-0.131 0.064-0.191 0.025-0.063 0.018-0.122 0.038-0.178 0.018-0.047 0.060-0.067 0.084-0.105 0.034-0.042 0.051-0.097 0.068-0.153 0.042-0.131 0.089-0.258 0.136-0.393 0.093-0.288 0.131-0.601 0.211-0.897 0.089-0.301 0.186-0.601 0.284-0.894 0.114-0.367 0.283-0.723 0.364-1.104 0.101-0.482 0.131-0.961 0.127-1.456 0-0.482-0.162-0.957-0.313-1.41z"></path>
</svg>
