<!-- Generated by IcoMoon.io -->
<svg version="1.1" xmlns="http://www.w3.org/2000/svg" width="32" height="32" viewBox="0 0 32 32">
<title>deck</title>
<path d="M29.227 18.792c-0.008-0.001-0.017-0.002-0.027-0.002-0.095 0-0.174 0.070-0.187 0.162l-0 0.001-0.1 0.708-0.555 0.366c-0.192 0.128-0.391 0.25-0.586 0.375l-0.594 0.216-0.655 0.183c-0.035 0.009-0.066 0.024-0.092 0.045l0.001-0-0.031 0.022-0.513 0.361-0.583 0.278-0.033 0.019-0.48 0.278-0.616 0.097c-0.087 0.013-0.164 0.049-0.225 0.103l0.001-0-0.028 0.022-0.391 0.333-0.555 0.067c-0.128 0.016-0.24 0.076-0.322 0.163l-0 0-0.022 0.022-0.4 0.43-0.511 0.241-0.605 0.255-0.042 0.022h-0.019l-0.538 0.302-0.555 0.208-0.649 0.183c-0.1 0.028-0.186 0.079-0.255 0.147l0-0h-0.017l-0.372 0.358-0.508 0.133c-0.095 0.026-0.177 0.069-0.248 0.126l0.001-0.001-0.383 0.314-0.525 0.081c-0.12 0.020-0.227 0.069-0.315 0.14l0.001-0.001-0.48 0.414-0.538 0.225c-0.055 0.022-0.103 0.050-0.145 0.084l0.001-0.001-0.466 0.355-0.522 0.192-0.636 0.197c-0.055 0.017-0.103 0.040-0.147 0.068l0.002-0.002-0.483 0.278-0.402 0.144-0.4-0.050-0.477-0.203-1.074-0.638-0.508-0.386-0.019-0.017c-0.058-0.044-0.127-0.078-0.202-0.096l-0.004-0.001-0.605-0.122-0.505-0.278h-0.058l-0.45-0.186c-0.15-0.055-0.3-0.136-0.45-0.205s-0.297-0.15-0.458-0.211l-0.463-0.23-0.494-0.278-0.505-0.389-0.031-0.025c-0.029-0.022-0.062-0.040-0.097-0.054l-0.003-0.001-0.622-0.239h-0.033l-0.594-0.167-0.516-0.38c-0.035-0.025-0.077-0.043-0.123-0.052l-0.002-0-0.599-0.117-0.441-0.372-0.031-0.025-0.538-0.352-0.244-0.588c-0.038-0.086-0.123-0.145-0.221-0.145-0.020 0-0.039 0.002-0.058 0.007l0.002-0c-0.104 0.027-0.179 0.12-0.179 0.231 0 0.016 0.002 0.032 0.005 0.048l-0-0.002 0.189 0.724c0.012 0.047 0.037 0.087 0.072 0.116l0 0 0.031 0.025 0.555 0.463-0.047-0.008 0.477 0.502c0.034 0.038 0.079 0.066 0.128 0.080l0.002 0h0.039l0.555 0.167 0.463 0.416c0.028 0.025 0.061 0.046 0.098 0.060l0.002 0.001 0.039 0.017 0.611 0.233 0.502 0.236 0.461 0.422 0.042 0.031 0.031 0.022 0.555 0.364h0.025l0.033 0.017 0.439 0.211c0.147 0.067 0.294 0.153 0.439 0.233s0.278 0.164 0.45 0.233l0.405 0.192 0.588 0.364c0.034 0.021 0.074 0.040 0.115 0.054l0.004 0.001h0.028l0.519 0.153 0.436 0.352c0.013 0.011 0.028 0.021 0.043 0.030l0.001 0.001h0.014l1.13 0.719 0.056 0.031h0.019l0.597 0.278c0.051 0.024 0.11 0.043 0.171 0.052l0.004 0 0.658 0.092c0.028 0.004 0.060 0.006 0.092 0.006 0.078 0 0.154-0.014 0.223-0.038l-0.005 0.001 0.624-0.219c0.046-0.017 0.086-0.036 0.123-0.058l-0.004 0.002 0.458-0.278 0.597-0.18 0.661-0.239c0.068-0.026 0.126-0.058 0.18-0.096l-0.002 0.002 0.475-0.361 0.555-0.236c0.058-0.027 0.108-0.059 0.154-0.095l-0.001 0.001 0.402-0.305 0.513-0.086c0.121-0.022 0.227-0.074 0.315-0.148l-0.001 0.001 0.414-0.35 0.522-0.144h0.017c0.109-0.034 0.202-0.091 0.278-0.167v0l0.386-0.397 0.486-0.155h0.053l0.624-0.278h0.022l0.061-0.031 0.555-0.339 0.586-0.278 0.655-0.369c0.056-0.032 0.104-0.072 0.144-0.119l0.001-0.001 0.336-0.408 0.48-0.086h0.033c0.099-0.019 0.185-0.065 0.253-0.131l-0 0 0.408-0.389 0.525-0.125h0.039c0.053-0.013 0.099-0.034 0.14-0.062l-0.002 0.001 0.555-0.394 0.555-0.302 0.033-0.019c0.015-0.008 0.027-0.017 0.039-0.028l-0 0 0.458-0.419 0.555-0.216h0.028l0.608-0.297 0.033-0.014c0.013-0.007 0.024-0.014 0.034-0.022l-0 0c0.2-0.164 0.4-0.322 0.594-0.488l0.58-0.5 0.028-0.022c0.044-0.039 0.072-0.096 0.072-0.16 0-0 0-0.001 0-0.001v0-0.833c0.001-0.005 0.001-0.011 0.001-0.017 0-0.099-0.076-0.18-0.172-0.188l-0.001-0z"></path>
<path d="M29.238 16.033c-0.010-0.002-0.022-0.003-0.034-0.003-0.092 0-0.168 0.065-0.185 0.152l-0 0.001-0.125 0.649-0.619 0.386-0.655 0.389-0.797 0.305-0.802 0.253c-0.027 0.010-0.050 0.021-0.071 0.034l0.002-0.001-0.033 0.022-0.669 0.444-0.758 0.35-0.033 0.019-0.652 0.375-0.785 0.175c-0.072 0.018-0.135 0.049-0.19 0.090l0.001-0.001-0.028 0.022-0.555 0.43-0.747 0.142c-0.109 0.021-0.203 0.071-0.278 0.142l-0.022 0.019-0.555 0.538-0.677 0.33-0.772 0.339c-0.013 0.004-0.024 0.009-0.034 0.017l0-0h-0.019l-0.702 0.389-0.71 0.3-0.813 0.278c-0.085 0.030-0.158 0.073-0.22 0.128l0.001-0.001-0.555 0.475-0.694 0.214c-0.080 0.025-0.149 0.062-0.21 0.109l0.001-0.001-0.572 0.439-0.708 0.164c-0.060 0.012-0.113 0.032-0.161 0.060l0.003-0.001-0.583 0.319-0.611-0.036-0.669-0.122-0.583-0.369-0.674-0.477h-0.017c-0.042-0.028-0.089-0.053-0.14-0.071l-0.004-0.001-0.808-0.278-0.788-0.23-0.666-0.33-0.719-0.397-1.457-0.799-0.663-0.461-0.033-0.022c-0.029-0.019-0.062-0.035-0.098-0.044l-0.002-0-0.799-0.216-0.683-0.344-0.022-0.017-0.744-0.291-0.513-0.436-0.241-0.683c-0.036-0.092-0.123-0.156-0.226-0.156-0.133 0-0.242 0.108-0.242 0.241 0 0.015 0.001 0.029 0.004 0.043l-0-0.001 0.164 0.81c0.008 0.042 0.028 0.079 0.056 0.108l-0-0 0.025 0.031 0.555 0.597c0.017 0.018 0.037 0.033 0.060 0.044l0.001 0.001 0.033 0.019 0.716 0.377 0.702 0.444 0.044 0.022h0.039l0.705 0.278 0.616 0.486 0.031 0.022c0.466 0.302 0.933 0.611 1.404 0.905l0.719 0.447 0.735 0.416c0.021 0.013 0.045 0.024 0.070 0.033l0.002 0.001h0.031l0.785 0.278 0.683 0.255 0.613 0.463 0.702 0.486c0.065 0.045 0.141 0.078 0.223 0.096l0.004 0.001h0.017l0.833 0.172h0.075l0.833 0.055c0.015 0.001 0.032 0.002 0.049 0.002 0.112 0 0.217-0.027 0.31-0.076l-0.004 0.002 0.666-0.347 0.772-0.172c0.099-0.024 0.187-0.065 0.263-0.121l-0.002 0.002 0.644-0.43 0.705-0.228h0.014c0.090-0.030 0.168-0.076 0.234-0.134l-0.001 0.001 0.555-0.494 0.68-0.241h0.033l0.783-0.339 0.055-0.031 0.71-0.419 0.747-0.361 0.763-0.408h0.022c0.051-0.028 0.095-0.061 0.133-0.1l0-0 0.505-0.519 0.672-0.167h0.033c0.081-0.022 0.152-0.059 0.212-0.109l-0.001 0.001 0.575-0.5 0.716-0.241h0.036c0.044-0.014 0.083-0.033 0.118-0.056l-0.002 0.001 0.686-0.466 0.763-0.447 0.025-0.017 0.641-0.505 0.727-0.311 0.772-0.391 0.022-0.028 0.022-0.014c0.439-0.333 0.877-0.672 1.299-1.027l0.031-0.025c0.042-0.036 0.069-0.088 0.072-0.147l0-0.001 0.033-0.794c-0.002-0.089-0.067-0.163-0.151-0.18l-0.001-0z"></path>
<path d="M3.789 15.767l0.833 0.555 0.944 0.352 0.883 0.469 0.913 0.402 0.794 0.641 0.955 0.311 0.785 0.672 1.010 0.233 0.874 0.483 0.758 0.278 0.813-0.031 0.797-0.197 0.952-0.352 0.799-0.652 0.96-0.333 0.833-0.594 0.996-0.278 0.833-0.588 0.921-0.405 0.833-0.555 0.938-0.389 0.952-0.355 0.833-0.569 0.833-0.597 0.885-0.472 0.913-0.433 0.916-0.43 0.919-0.425 0.783-0.702-0.136-1.035-0.644-0.758-0.888-0.389-0.869-0.422-0.888-0.386-0.852-0.461-0.802-0.555-0.894-0.377-0.916-0.327-0.813-0.555-0.944-0.278-1.019-0.436-1.082 0.278-0.894 0.458-0.883 0.463-0.908 0.427-0.988 0.239-0.888 0.472-0.966 0.278-0.896 0.452-0.905 0.444-0.916 0.402-0.888 0.475-0.927 0.383-0.988 0.236-0.941 0.352-0.905 0.427-0.921 0.394-0.896 0.466-0.927 0.389-0.555 0.791-0.092 0.957 0.702 0.652zM14.002 10.494l1.057-0.599 1.196-0.352 1.246-0.117 1.26 0.044 1.188 0.411 1.149 0.502 0.541 1.093-0.616 0.999-1.082 0.555-1.193 0.35-1.246 0.097-1.249-0.067-1.229-0.278-1.066-0.652-0.641-1.030zM9.617 13.691l1.474-0.167 1.471 0.175 0.98 0.999-1.007 0.924-1.443 0.244-1.446-0.2-1.019-0.969z"></path>
<path d="M2.032 16.98l0.555 0.713c0.015 0.021 0.034 0.039 0.055 0.052l0.001 0 0.033 0.022c0.419 0.278 0.833 0.555 1.268 0.833 0.211 0.133 0.422 0.278 0.641 0.4l0.655 0.383 0.036 0.017 0.033 0.014 0.93 0.364 0.833 0.358 0.777 0.555 0.833 0.572 0.089 0.047h0.025l0.877 0.361 0.81 0.497c0.027 0.019 0.058 0.035 0.092 0.046l0.003 0.001h0.017l0.863 0.328 0.666 0.447c0.102 0.069 0.227 0.11 0.363 0.11 0.040 0 0.078-0.003 0.116-0.010l-0.004 0.001q0.852-0.142 1.707-0.264c0.125-0.019 0.235-0.069 0.326-0.143l-0.001 0.001 0.71-0.575 0.866-0.322 0.944-0.425 0.050-0.028 0.877-0.502 0.874-0.416 0.935-0.472h0.019c0.045-0.025 0.084-0.054 0.12-0.086l-0 0 0.658-0.613 0.833-0.236h0.028c0.073-0.021 0.137-0.054 0.193-0.098l-0.001 0.001 0.727-0.583 0.855-0.278h0.033c0.039-0.013 0.073-0.030 0.104-0.051l0.831-0.554 0.908-0.516h0.022l0.777-0.602 0.874-0.389 0.908-0.469 0.033-0.019 0.838-0.616 0.702-0.611c0.044-0.041 0.072-0.099 0.072-0.164v-0l-0.028-0.874c-0.002-0.093-0.072-0.169-0.163-0.18l-0.001-0c-0.007-0.001-0.015-0.002-0.024-0.002-0.096 0-0.175 0.072-0.187 0.164l-0 0.001-0.086 0.735-0.627 0.43-0.833 0.477-0.924 0.355-0.946 0.328c-0.023 0.007-0.044 0.016-0.062 0.028l0.001-0.001-0.031 0.019-0.805 0.511-0.902 0.422-0.028 0.017-0.797 0.455-0.944 0.247c-0.065 0.018-0.121 0.045-0.171 0.082l0.002-0.001-0.022 0.017-0.741 0.541-0.896 0.216c-0.097 0.023-0.181 0.067-0.25 0.128l0.001-0.001h-0.017l-0.716 0.622-0.833 0.408-0.905 0.416-0.036 0.019-0.833 0.461h-0.017l-0.877 0.414-0.932 0.347c-0.073 0.027-0.137 0.063-0.193 0.109l0.001-0.001-0.655 0.538c-0.427 0.067-0.855 0.133-1.282 0.208l-0.508-0.322h-0.017c-0.035-0.023-0.076-0.043-0.119-0.057l-0.004-0.001-0.905-0.311-0.802-0.461h-0.022l-0.075-0.033-0.908-0.33-0.797-0.494-0.833-0.555-0.031-0.019c-0.026-0.017-0.055-0.031-0.086-0.041l-0.003-0.001-0.952-0.316-0.955-0.305-0.619-0.3c-0.228-0.103-0.447-0.219-0.669-0.333l-1.302-0.666-0.505-0.516-0.036-0.722c-0.014-0.122-0.116-0.216-0.24-0.216s-0.227 0.094-0.24 0.214l-0 0.001-0.081 0.852c-0 0.006-0.001 0.012-0.001 0.019 0 0.059 0.020 0.114 0.054 0.157l-0-0.001z"></path>
</svg>
