<!-- Generated by IcoMoon.io -->
<svg version="1.1" xmlns="http://www.w3.org/2000/svg" width="33" height="32" viewBox="0 0 33 32">
<title>deep_space</title>
<path d="M12.833 30.93c-1.379-0.137-2.967-0.329-4.398-0.531-0.841-0.119-1.516-0.318-3.479-1.029-0.842-0.305-1.043-0.467-1.402-1.134-0.515-0.955-0.593-1.38-0.644-3.48-0.050-2.066 0.002-2.506 0.402-3.397 0.161-0.359 0.448-0.894 0.638-1.188s0.466-0.757 0.615-1.028c0.149-0.271 0.631-1.127 1.071-1.904 1.441-2.543 1.938-3.65 2.24-4.989 0.204-0.905 0.213-1 0.182-1.937-0.028-0.849-0.058-1.057-0.213-1.51-0.099-0.289-0.221-0.599-0.271-0.689-0.192-0.347-0.69-1.897-0.781-2.429-0.052-0.307-0.095-0.95-0.096-1.429l-0.001-0.871 0.238-0.474c0.336-0.669 0.818-1.257 1.135-1.383 0.141-0.057 0.518-0.152 0.837-0.212s0.713-0.157 0.875-0.216c0.345-0.124 1.658-0.133 2.403-0.017 0.492 0.077 1.378 0.42 2.258 0.874 2.028 1.047 3.148 2.258 4.198 4.543 0.33 0.718 0.467 0.898 1.536 2.024 1.007 1.060 1.337 1.471 1.553 1.936 0.964 2.066 1.206 2.423 2.368 3.491 0.887 0.815 0.918 0.835 2.522 1.586 0.325 0.152 0.67 0.332 0.766 0.4 0.257 0.181 0.633 0.901 0.739 1.414 0.083 0.401 0.236 2.805 0.235 3.676-0.001 0.584 0.549 2.103 1.040 2.873 0.169 0.265 0.207 0.392 0.207 0.693 0 0.76-0.44 2.007-0.876 2.485-0.231 0.253-0.832 0.694-1.328 0.974-0.75 0.424-3.654 1.369-4.591 1.495-0.181 0.024-0.618 0.117-0.972 0.206-0.614 0.154-1.248 0.281-2.113 0.423-0.767 0.126-2.265 0.48-2.954 0.698-0.442 0.14-2.768 0.174-3.939 0.057zM13.46 29.276c0.325-0.304 0.325-0.305 0.325-0.726 0-0.516-0.042-0.602-0.547-1.119l-0.401-0.41h-0.393c-0.353 0-0.415 0.021-0.609 0.21-0.119 0.115-0.216 0.259-0.216 0.318s-0.059 0.162-0.131 0.227c-0.102 0.093-0.131 0.202-0.131 0.497 0 0.35 0.021 0.404 0.297 0.742 0.421 0.517 0.512 0.567 1.034 0.567 0.442 0 0.452-0.004 0.773-0.304zM6.275 26.834c0.421-0.306 0.441-0.35 0.406-0.902-0.030-0.468-0.046-0.51-0.285-0.754-0.24-0.246-0.273-0.259-0.658-0.259-0.396 0-0.411 0.007-0.676 0.294-0.26 0.282-0.271 0.312-0.271 0.722 0 0.423 0.004 0.433 0.316 0.756 0.288 0.299 0.343 0.328 0.614 0.328 0.223 0 0.362-0.047 0.554-0.186zM18.401 26.705c0.392-0.409 0.117-1.063-0.447-1.063-0.211 0-0.31 0.041-0.447 0.184-0.392 0.409-0.117 1.063 0.447 1.063 0.211 0 0.31-0.041 0.447-0.184zM25.688 26.705c0.142-0.148 0.176-0.246 0.176-0.505 0-0.436-0.229-0.689-0.624-0.689s-0.624 0.253-0.624 0.689c0 0.436 0.229 0.689 0.624 0.689 0.211 0 0.31-0.041 0.447-0.184zM20.224 26.063c0.165-0.158 0.192-0.233 0.192-0.532 0-0.308-0.027-0.379-0.237-0.611-0.223-0.247-0.26-0.263-0.604-0.263-0.324 0-0.392 0.025-0.583 0.21-0.198 0.191-0.216 0.244-0.216 0.604 0 0.355 0.021 0.416 0.213 0.617 0.207 0.217 0.225 0.222 0.629 0.191 0.341-0.026 0.45-0.065 0.607-0.216zM27.767 25.807c0.277-0.266 0.28-0.653 0.006-0.915-0.159-0.152-0.266-0.19-0.627-0.218-0.411-0.033-0.446-0.024-0.629 0.151-0.28 0.268-0.273 0.657 0.016 0.986 0.206 0.235 0.217 0.238 0.622 0.213 0.346-0.022 0.445-0.057 0.611-0.216zM25.753 24.998c0.392-0.409 0.117-1.063-0.447-1.063-0.211 0-0.31 0.041-0.447 0.184-0.392 0.409-0.117 1.063 0.447 1.063 0.211 0 0.31-0.041 0.447-0.184zM14.735 23.337c0.195-0.171 0.232-0.247 0.232-0.473 0-0.214-0.043-0.314-0.21-0.486-0.18-0.185-0.255-0.216-0.523-0.216-0.257 0-0.355 0.037-0.545 0.204-0.198 0.174-0.232 0.245-0.232 0.486s0.034 0.312 0.232 0.486c0.185 0.162 0.291 0.204 0.523 0.204s0.338-0.041 0.523-0.204zM8.392 23.317c0.388-0.074 0.526-0.134 0.706-0.309 0.287-0.278 0.353-0.529 0.353-1.339 0-0.541-0.023-0.694-0.131-0.871-0.072-0.118-0.131-0.252-0.131-0.297 0-0.164-0.422-0.588-0.705-0.709-0.348-0.149-0.932-0.16-1.488-0.027-0.469 0.112-0.863 0.462-1.127 1.003-0.16 0.327-0.171 0.406-0.148 1.022 0.023 0.624 0.039 0.688 0.235 0.972 0.115 0.167 0.302 0.381 0.414 0.476 0.191 0.161 0.247 0.172 0.872 0.172 0.367-0 0.885-0.041 1.151-0.092zM16.724 21.932l0.296-0.296-0.033-0.628c-0.033-0.623-0.035-0.63-0.288-0.892l-0.255-0.264-0.519 0.029c-0.51 0.028-0.524 0.034-0.771 0.299l-0.252 0.27v1.308l0.274 0.235c0.261 0.224 0.297 0.235 0.764 0.235h0.489zM19.161 21.799c0.173-0.197 0.204-0.285 0.204-0.579 0-0.295-0.027-0.37-0.181-0.506-0.28-0.248-0.452-0.324-0.733-0.324-0.222 0-0.291 0.039-0.493 0.274-0.185 0.216-0.235 0.33-0.235 0.539 0 0.223 0.044 0.309 0.276 0.546 0.255 0.26 0.302 0.281 0.617 0.281 0.308 0 0.36-0.022 0.544-0.232zM25.417 21.461c0.154-0.147 0.184-0.231 0.184-0.505 0-0.447-0.226-0.697-0.629-0.697-0.234 0-0.307 0.035-0.48 0.232-0.43 0.489-0.174 1.147 0.445 1.147 0.232 0 0.336-0.038 0.48-0.176zM14.034 21.159c0.255-0.26 0.276-0.309 0.276-0.631 0-0.319-0.023-0.372-0.255-0.605-0.227-0.227-0.29-0.255-0.579-0.255-0.277 0-0.364 0.034-0.599 0.235-0.267 0.228-0.274 0.246-0.274 0.637 0 0.375 0.016 0.419 0.243 0.651 0.218 0.224 0.277 0.249 0.577 0.249 0.307 0 0.357-0.023 0.61-0.281zM15.644 19.155c0.392-0.409 0.117-1.063-0.447-1.063-0.211 0-0.31 0.041-0.447 0.184-0.392 0.409-0.117 1.063 0.447 1.063 0.211 0 0.31-0.041 0.447-0.184zM25.327 18.58c0.259-0.222 0.274-0.255 0.274-0.589 0-0.302-0.030-0.388-0.204-0.586-0.185-0.211-0.236-0.232-0.55-0.232-0.321 0-0.364 0.019-0.584 0.263-0.211 0.233-0.237 0.302-0.237 0.617 0 0.323 0.020 0.372 0.232 0.558 0.338 0.297 0.698 0.287 1.069-0.031zM19.648 14.823c0.392-0.409 0.117-1.063-0.447-1.063-0.211 0-0.31 0.041-0.447 0.184-0.392 0.409-0.117 1.063 0.447 1.063 0.211 0 0.31-0.041 0.447-0.184zM17.886 12.243c0.206-0.181 0.232-0.239 0.232-0.525v-0.321h0.237c0.188 0 0.29-0.053 0.492-0.255 0.217-0.217 0.255-0.297 0.255-0.538 0-0.23-0.040-0.324-0.21-0.5-0.192-0.198-0.243-0.216-0.611-0.216-0.354 0-0.422 0.022-0.578 0.184-0.14 0.146-0.176 0.247-0.176 0.492 0 0.296-0.007 0.308-0.19 0.308-0.135 0-0.249 0.067-0.394 0.232-0.177 0.201-0.204 0.282-0.204 0.604 0 0.314 0.027 0.4 0.176 0.556 0.256 0.267 0.653 0.259 0.97-0.020zM15.775 10.556c0.392-0.409 0.117-1.063-0.447-1.063-0.211 0-0.31 0.041-0.447 0.184-0.392 0.409-0.117 1.063 0.447 1.063 0.211 0 0.31-0.041 0.447-0.184zM11.199 6.79l0.485-0.471v-0.535c0-0.521-0.006-0.542-0.241-0.817l-0.241-0.282-0.629 0.030c-0.691 0.033-0.898 0.11-1.233 0.457-0.184 0.191-0.214 0.274-0.253 0.71l-0.044 0.493 0.305 0.374c0.168 0.206 0.356 0.404 0.418 0.44s0.301 0.067 0.53 0.068l0.417 0.002 0.485-0.471zM14.396 5.501c0.392-0.409 0.117-1.063-0.447-1.063-0.211 0-0.31 0.041-0.447 0.184-0.392 0.409-0.117 1.063 0.447 1.063 0.211 0 0.31-0.041 0.447-0.184z"></path>
</svg>
