<!-- Generated by IcoMoon.io -->
<svg version="1.1" xmlns="http://www.w3.org/2000/svg" width="31" height="32" viewBox="0 0 31 32">
<title>delusions</title>
<path d="M15.29 17.779c-0.413-0.056-0.906-0.088-1.217-0.386-0.185-0.168-0.401-0.317-0.58-0.493-0.194-0.185-0.21-0.369-0.166-0.629 0.074-0.457 0.417-0.742 0.576-1.16 0.079-0.194 0.070-0.342 0.188-0.523 0.124-0.185 0.225-0.321 0.26-0.54 0.039-0.247 0.048-0.475 0.237-0.659 0.171-0.166 0.334-0.29 0.484-0.484 0.092-0.132 0.166-0.33 0.338-0.374 0.237-0.070 0.58 0 0.831-0.003 0.43 0 0.803 0.088 1.19 0.304 0.198 0.101 0.339 0.277 0.519 0.408 0.097 0.071 0.216 0.136 0.304 0.219 0.18 0.177 0.281 0.401 0.378 0.629 0.070 0.175 0.18 0.374 0.194 0.571 0.006 0.21 0.003 0.413 0.035 0.632 0.013 0.085 0.013 0.158 0.013 0.247 0.286-0.339 0.23-0.083 0.234 0.057 0 0.039 0.016 0.141 0.006 0.175-0.035 0.106-0.162 0.071-0.245 0.127-0.124 0.080-0.295 0.33-0.343 0.467-0.057 0.158-0.083 0.303-0.168 0.457-0.105 0.185-0.175 0.254-0.364 0.346-0.29 0.141-0.571 0.269-0.874 0.366-0.281 0.083-0.563 0.197-0.848 0.272-0.334 0.079-0.646 0.026-0.98-0.026zM16.054 19.712c0.448-0.035 0.83-0.224 1.248-0.346 0.295-0.089 0.597-0.097 0.883-0.185 0.364-0.115 1.081-0.47 1.327-0.8 0.097-0.119 0.079-0.237 0.114-0.378 0.053-0.203 0.154-0.308 0.22-0.497 0.101-0.307-0.053-0.457 0.25-0.676 0.228-0.163 0.273-0.207 0.382-0.466 0.066-0.181 0.247-0.396-0.496-0.378 0.219-0.334 0.25-0.972 0.307-1.341 0.053-0.382 0.048-0.664-0.175-1.006-0.175-0.269-0.408-0.502-0.602-0.76-0.435-0.588-0.879-1.196-1.533-1.547-0.585-0.312-1.288-0.396-1.934-0.382-0.726 0.019-1.095 0.348-1.683 0.69-0.62 0.361-1.551 0.352-2.083 0.836-0.479 0.448-0.466 1.458-0.475 2.056-0.022 0.922 0.172 1.744 0.325 2.645 0.277 1.639 2.4 2.646 3.925 2.536z"></path>
<path d="M19.254 24.033c0.106 0.019 0.211 0.010 0.321 0.010 0.075 0 0.15 0.010 0.225 0.022 0.316 0.066 0.646 0.083 0.971 0.083 0.15 0 0.307 0.022 0.452-0.003 0.172-0.026 0.321-0.101 0.488-0.119 0.312-0.039 0.602-0.035 0.906-0.127 0.149-0.048 0.303-0.035 0.448-0.088 0.074-0.022 0.132-0.062 0.203-0.092 0.083-0.032 0.141-0.032 0.224-0.032 0.158-0.006 0.272-0.114 0.413-0.166 0.119-0.039 0.255-0.062 0.374-0.092 0.106-0.032 0.207 0 0.313 0.003 0.158 0.013 0.298-0.013 0.422-0.119 0.175-0.136 0.325-0.325 0.474-0.496 0.177-0.194 0.348-0.404 0.502-0.62 0.185-0.268 0.286-0.567 0.461-0.839 0.15-0.237 0.347-0.426 0.519-0.637 0.088-0.115 0.145-0.233 0.277-0.29 0.141-0.053 0.194-0.154 0.254-0.286 0.092-0.207 0.124-0.466 0.194-0.677 0.119-0.369 0.247-0.715 0.325-1.093 0.057-0.255 0.106-0.541 0.085-0.804-0.010-0.035-0.013-0.066-0.026-0.101-0.039-0.079-0.122-0.132-0.127-0.233-0.010-0.175 0.010-0.352-0.075-0.519-0.109-0.228-0.303-0.426-0.457-0.624-0.127-0.153-0.215-0.307-0.39-0.413-0.080-0.048-0.128-0.101-0.198-0.162-0.083-0.085-0.168-0.136-0.255-0.22-0.061-0.065-0.132-0.127-0.206-0.18-0.106-0.070-0.228-0.074-0.339-0.127-0.071-0.039-0.115-0.101-0.171-0.15-0.168-0.136-0.449-0.11-0.656-0.18-0.109-0.035-0.219-0.079-0.333-0.088-0.119-0.010-0.237 0.003-0.357 0.003-0.123 0-0.25-0.013-0.369 0.016-0.127 0.040-0.247 0.11-0.364 0.159-0.101 0.044-0.198 0.070-0.277 0.141-0.115 0.106-0.211 0.224-0.325 0.334-0.128 0.123-0.203 0.263-0.299 0.408-0.11 0.163-0.194 0.33-0.321 0.493-0.074 0.092-0.119 0.21-0.171 0.325-0.048 0.118-0.119 0.219-0.189 0.33-0.133 0.206-0.115 0.452-0.181 0.685-0.149 0.54-0.312 1.072-0.127 1.626 0.083 0.233 0.203 0.458 0.313 0.686 0.083 0.18 0.175 0.369 0.281 0.535 0.175 0.281 0.417 0.493 0.768 0.426 0.444-0.088 0.813-0.431 1.226-0.606 0.118-0.053 0.307-0.145 0.392-0.251 0.035-0.052 0.039-0.122 0.052-0.185 0.026-0.123 0.048-0.25 0.075-0.374 0.019-0.127 0.097-0.245 0.101-0.382 0-0.065-0.003-0.127-0.003-0.192 0-0.119 0.035-0.295-0.013-0.405-0.039-0.083-0.145-0.145-0.237-0.158-0.022-0.003-0.092-0.010-0.109-0.003-0.057 0.026-0.036 0.065-0.036 0.118 0 0.057 0.010 0.124 0 0.175-0.003 0.022-0.026 0.062-0.026 0.075-0.039 0.18 0.032 0.36-0.048 0.54-0.044 0.092-0.11 0.189-0.18 0.272-0.080 0.089-0.15 0.234-0.247 0.304-0.145 0.101-0.484 0.175-0.629 0.066-0.083-0.062-0.18-0.11-0.233-0.198-0.097-0.168-0.149-0.343-0.228-0.514-0.074-0.141-0.171-0.29-0.175-0.453 0-0.114 0.062-0.219 0.118-0.316 0.036-0.065 0.075-0.132 0.11-0.198 0.026-0.056 0.053-0.109 0.074-0.171 0.036-0.079 0.075-0.158 0.101-0.242 0.022-0.092 0.019-0.18 0.044-0.268 0.010-0.048 0.036-0.092 0.044-0.136 0.066-0.255 0.168-0.493 0.295-0.721 0.075-0.136 0.233-0.254 0.348-0.355 0.136-0.124 0.263-0.251 0.422-0.325 0.153-0.075 0.399-0.044 0.563-0.035 0.219 0.003 0.426 0.136 0.628 0.219 0.221 0.092 0.378 0.295 0.546 0.461 0.145 0.145 0.312 0.263 0.422 0.448 0.132 0.225 0.118 0.502 0.114 0.756-0.003 0.299-0.127 0.55-0.259 0.813-0.15 0.299-0.228 0.606-0.325 0.922-0.057 0.168-0.097 0.325-0.136 0.502-0.010 0.052-0.032 0.092-0.057 0.144-0.11 0.207-0.211 0.422-0.321 0.633-0.11 0.215-0.242 0.431-0.387 0.624-0.163 0.219-0.479 0.374-0.708 0.514-0.203 0.123-0.404 0.215-0.629 0.29-0.263 0.096-0.526 0.188-0.795 0.263-0.325 0.088-0.663 0.136-0.997 0.194-0.22 0.039-0.435 0.074-0.664 0.070-0.255 0-0.537 0.032-0.791-0.003-0.194-0.026-0.369-0.132-0.55-0.189-0.185-0.065-0.377-0.056-0.566-0.074-0.401-0.053-0.809-0.097-1.205-0.057-0.215 0.022-0.413 0.115-0.615 0.172-0.105 0.032-0.228 0.003-0.333 0.003-0.133 0.010-0.251 0.041-0.37 0.075-0.141 0.039-0.286 0.065-0.426 0.074-0.149 0.003-0.219 0.053-0.337 0.145-0.29 0.207-0.598 0.387-0.901 0.571-0.132 0.083-0.228 0.185-0.343 0.295-0.114 0.114-0.237 0.206-0.374 0.294-0.158 0.11-0.277 0.26-0.422 0.382-0.141 0.124-0.281 0.242-0.399 0.378-0.221 0.272-0.475 0.488-0.576 0.827-0.053 0.175-0.106 0.346-0.132 0.526-0.025 0.194-0.013 0.387-0.013 0.58 0 0.36-0.039 0.756 0.141 1.077 0.071 0.118 0.127 0.233 0.189 0.351 0.101 0.189 0.263 0.326 0.408 0.484 0.066 0.066 0.145 0.228 0.233 0.268 0.115 0.048 0.308-0.079 0.409-0.114 0.109-0.035 0.294-0.032 0.325-0.175 0.025-0.145 0.016-0.401-0.083-0.506-0.048-0.056-0.124-0.088-0.177-0.144-0.057-0.053-0.105-0.115-0.166-0.163-0.048-0.053-0.115-0.071-0.158-0.132-0.106-0.127-0.109-0.325-0.114-0.479-0.003-0.435 0.158-0.786 0.374-1.151 0.136-0.233 0.338-0.396 0.514-0.598 0.162-0.197 0.307-0.325 0.519-0.448 0.175-0.101 0.307-0.26 0.483-0.364 0.269-0.163 0.555-0.277 0.822-0.431 0.154-0.092 0.312-0.062 0.483-0.066 0.115 0 0.234 0 0.348-0.010 0.163-0.013 0.321-0.032 0.479-0.052 0.194-0.019 0.387-0.036 0.584-0.036 0.15 0 0.273 0.013 0.417 0.048 0.026 0.010 0.066 0.013 0.101 0.019z"></path>
<path d="M14.043 23.031c-0.348-0.175-0.739-0.277-1.095-0.431-0.334-0.141-0.686-0.228-1.046-0.289-0.118-0.026-0.233-0.066-0.351-0.088-0.088-0.013-0.18 0.006-0.269-0.010-0.228-0.044-0.457-0.128-0.69-0.168-0.259-0.053-0.51-0.109-0.756-0.194-0.342-0.109-0.668-0.277-0.997-0.399-0.15-0.062-0.295-0.122-0.435-0.203-0.203-0.118-0.422-0.233-0.615-0.369s-0.387-0.277-0.576-0.422c-0.189-0.145-0.355-0.334-0.553-0.475-0.158-0.101-0.312-0.202-0.448-0.342-0.133-0.137-0.247-0.299-0.37-0.44-0.224-0.26-0.404-0.532-0.593-0.818-0.175-0.259-0.307-0.522-0.404-0.817-0.119-0.401-0.124-0.782-0.124-1.191 0-0.237-0.006-0.47 0.003-0.712 0.019-0.303 0.092-0.593 0.115-0.892 0.044-0.536 0.15-1.116 0.51-1.533 0.194-0.219 0.505-0.439 0.782-0.536 0.066-0.022 0.136-0.040 0.202-0.040 0.092-0.003 0.18 0.025 0.277 0.025 0.145 0 0.219-0.083 0.339-0.127 0.070-0.025 0.154 0.016 0.224 0.025 0.083 0.019 0.163 0.022 0.247 0.025 0.145 0.013 0.263 0.085 0.395 0.145 0.133 0.057 0.277 0.075 0.417 0.119 0.133 0.044 0.203 0.132 0.29 0.228 0.075 0.079 0.154 0.15 0.228 0.224 0.097 0.097 0.128 0.207 0.154 0.339 0.022 0.101 0.062 0.215 0.071 0.321 0.025 0.268-0.075 0.567-0.141 0.827-0.066 0.233-0.101 0.478-0.168 0.706-0.083 0.286-0.233 0.546-0.528 0.659-0.303 0.115-0.646 0.101-0.953 0.032-0.18-0.039-0.295-0.225-0.488-0.237-0.171-0.019-0.25 0.123-0.25 0.277 0 0.132 0.061 0.268 0.141 0.374 0.074 0.088 0.144 0.198 0.245 0.259 0.092 0.057 0.194 0.097 0.281 0.163 0.106 0.074 0.221 0.074 0.339 0.092 0.136 0.026 0.26 0.032 0.404 0.032 0.128 0 0.233-0.026 0.357-0.035 0.101-0.010 0.18-0.040 0.281-0.035 0.062 0 0.127 0.003 0.194 0 0.114-0.003 0.242-0.062 0.351-0.097 0.136-0.053 0.268-0.092 0.382-0.172 0.163-0.109 0.36-0.192 0.457-0.351 0.048-0.079 0.101-0.171 0.177-0.224 0.070-0.062 0.088-0.119 0.109-0.203 0.066-0.259 0.119-0.523 0.163-0.791 0.048-0.33 0.074-0.677 0.013-1.007-0.048-0.298-0.166-0.584-0.254-0.87-0.048-0.132-0.083-0.277-0.141-0.404-0.048-0.11-0.123-0.207-0.194-0.304-0.325-0.443-0.673-0.945-1.138-1.248-0.245-0.158-0.483-0.325-0.773-0.396-0.202-0.053-0.408-0.097-0.629-0.092-0.18 0-0.364-0.003-0.544 0-0.106 0-0.198 0.019-0.304 0.048-0.123 0.035-0.242 0.053-0.36 0.079-0.224 0.057-0.448 0.071-0.673 0.115-0.053 0.019-0.109 0.022-0.158 0.053-0.048 0.022-0.092 0.065-0.145 0.101-0.136 0.088-0.247 0.189-0.352 0.321-0.233 0.307-0.439 0.628-0.655 0.953-0.215 0.317-0.351 0.673-0.448 1.051-0.071 0.277-0.168 0.567-0.194 0.857-0.022 0.247 0.010 0.496-0.003 0.747-0.022 0.281-0.070 0.558-0.070 0.839 0 0.122-0.019 0.251 0.003 0.369 0.013 0.15 0.080 0.286 0.119 0.431 0.062 0.189 0.074 0.374 0.101 0.571 0.022 0.206 0.013 0.399 0.022 0.602 0.003 0.097 0.044 0.162 0.071 0.254 0.026 0.115 0.032 0.237 0.061 0.357 0.041 0.175 0.128 0.339 0.203 0.505 0.097 0.194 0.211 0.369 0.348 0.532 0.074 0.088 0.15 0.171 0.224 0.259 0.088 0.101 0.141 0.216 0.233 0.313 0.097 0.088 0.18 0.188 0.281 0.268 0.053 0.044 0.115 0.088 0.171 0.127 0.057 0.039 0.136 0.062 0.181 0.106 0.035 0.035 0.035 0.074 0.056 0.109 0.036 0.053 0.097 0.089 0.145 0.128 0.202 0.15 0.408 0.286 0.597 0.452 0.374 0.343 0.804 0.62 1.235 0.892 0.154 0.097 0.334 0.127 0.501 0.211 0.15 0.079 0.273 0.149 0.44 0.171 0.219 0.026 0.484 0.057 0.677 0.171 0.166 0.092 0.364 0.062 0.544 0.115 0.127 0.039 0.242 0.114 0.369 0.166 0.163 0.053 0.325 0.097 0.488 0.158 0.109 0.044 0.189 0.118 0.294 0.175 0.115 0.071 0.251 0.066 0.382 0.075 0.158 0.013 0.317 0.026 0.466 0.092 0.080 0.035 0.168 0.032 0.255 0.032 0.136 0 0.254 0.032 0.382 0.032 0.123-0.003 0.272-0.016 0.399 0.010 0.189 0.026 0.364 0.141 0.549 0.198 0.177 0.053 0.339 0.097 0.502 0.185 0.198 0.097 0.395 0.185 0.588 0.277 0.237 0.115 0.461 0.255 0.699 0.355 0.198 0.089 0.295 0.286 0.488 0.361 0.15 0.061 0.307 0.048 0.448 0.141 0.106 0.065 0.185 0.162 0.269 0.25 0.074 0.071 0.18 0.141 0.233 0.23 0.109 0.175 0.149 0.39 0.109 0.593-0.013 0.101-0.070 0.185-0.092 0.277-0.016 0.062-0.022 0.127-0.039 0.185-0.057 0.171-0.171 0.316-0.254 0.475-0.141 0.251-0.339 0.426-0.563 0.597-0.084 0.071-0.172 0.11-0.273 0.163-0.074 0.035-0.145 0.097-0.224 0.114-0.158 0.022-0.295-0.106-0.426-0.175-0.114-0.062-0.198-0.122-0.334-0.166-0.153-0.048-0.316-0.026-0.478-0.026-0.040 0-0.128-0.013-0.163 0.003-0.070 0.044-0.019 0.071-0.003 0.115 0.032 0.118 0.071 0.224 0.15 0.325 0.070 0.083 0.145 0.171 0.198 0.263 0.032 0.048 0.025 0.097 0.048 0.145 0.022 0.035 0.057 0.092 0.088 0.127 0.123 0.119 0.286 0.18 0.422 0.281 0.127 0.106 0.263 0.185 0.395 0.281 0.119 0.075 0.251 0.124 0.37 0.203 0.1 0.070 0.192 0.159 0.307 0.206 0.132 0.062 0.29 0.101 0.426 0.133 0.343 0.056 0.752 0.044 1.033-0.194 0.145-0.136 0.228-0.343 0.307-0.523 0.163-0.348 0.251-0.668 0.286-1.051 0.032-0.404 0.053-0.8-0.048-1.195-0.074-0.295-0.127-0.593-0.202-0.888-0.11-0.426-0.295-0.813-0.519-1.191-0.089-0.158-0.181-0.215-0.343-0.277-0.106-0.039-0.18-0.106-0.26-0.175-0.386-0.343-0.844-0.593-1.282-0.862-0.304-0.185-0.611-0.36-0.922-0.519z"></path>
<path d="M19.901 5.22c-0.026-0.013-0.057-0.032-0.089-0.048-0.219-0.171-0.43-0.355-0.646-0.531-0.136-0.11-0.272-0.221-0.439-0.281-0.141-0.048-0.29-0.071-0.435-0.106-0.251-0.053-0.497-0.127-0.742-0.211-0.308-0.109-0.594-0.254-0.892-0.378-0.251-0.105-0.497-0.171-0.752-0.25-0.211-0.057-0.396-0.163-0.606-0.216-0.225-0.065-0.466-0.097-0.699-0.136-0.519-0.083-1.020-0.123-1.547-0.127-0.264 0-0.519 0.022-0.774 0.092-0.268 0.074-0.496 0.215-0.752 0.33-0.334 0.145-0.641 0.334-0.971 0.496-0.382 0.185-0.752 0.396-1.125 0.606-0.339 0.198-0.677 0.47-0.963 0.739-0.105 0.097-0.219 0.166-0.325 0.254-0.114 0.097-0.194 0.228-0.286 0.343-0.1 0.122-0.18 0.251-0.25 0.387-0.048 0.097-0.115 0.184-0.145 0.286-0.075 0.245-0.079 0.514-0.079 0.768 0 0.132-0.010 0.264 0.003 0.401 0.022 0.136 0.066 0.272 0.106 0.404 0.032 0.11 0.053 0.224 0.115 0.316 0.074 0.115 0.15 0.228 0.228 0.343 0.074 0.115 0.185 0.203 0.281 0.307 0.097 0.11 0.203 0.23 0.316 0.334 0.088 0.080 0.207 0.124 0.308 0.189 0.144 0.092 0.245 0.237 0.399 0.321 0.175 0.101 0.387 0.15 0.576 0.22 0.171 0.057 0.342 0.114 0.528 0.127 0.328 0.032 0.755 0.039 1.041-0.145 0.409-0.251 0.853-0.628 0.993-1.095 0.062-0.188 0.057-0.369 0.057-0.563 0-0.201 0-0.369-0.11-0.535-0.061-0.097-0.109-0.185-0.18-0.281-0.057-0.079-0.15-0.145-0.224-0.211-0.168-0.162-0.417-0.277-0.646-0.277h-0.484c-0.032 0-0.097-0.013-0.123 0.003-0.010 0.013-0.022 0.066-0.025 0.075-0.032 0.056-0.074 0.092-0.088 0.158-0.010 0.053-0.013 0.141 0.035 0.18 0.032 0.026 0.080 0.032 0.119 0.053 0.065 0.036 0.127 0.085 0.185 0.124 0.106 0.065 0.185 0.141 0.259 0.237 0.097 0.127 0.128 0.25 0.177 0.399 0.025 0.115 0.047 0.272 0.003 0.387-0.056 0.136-0.105 0.18-0.237 0.198-0.185 0.032-0.369 0.044-0.553 0.061-0.070 0.010-0.136 0.003-0.197 0.003-0.119 0-0.255 0.025-0.37-0.003-0.162-0.044-0.355-0.158-0.461-0.294-0.057-0.071-0.074-0.163-0.114-0.247-0.039-0.088-0.092-0.15-0.11-0.247-0.032-0.18-0.057-0.369-0.025-0.544 0.032-0.202 0.132-0.391 0.192-0.58 0.071-0.202 0.216-0.391 0.33-0.571 0.115-0.171 0.251-0.382 0.418-0.501 0.259-0.185 0.501-0.378 0.777-0.541 0.158-0.096 0.325-0.175 0.488-0.254 0.224-0.106 0.434-0.237 0.658-0.334 0.317-0.132 0.647-0.272 0.981-0.36 0.303-0.092 0.646-0.044 0.948 0.022 0.185 0.048 0.378 0.048 0.553 0.106 0.189 0.057 0.361 0.15 0.541 0.228 0.325 0.145 0.668 0.264 1.006 0.387 0.29 0.11 0.571 0.237 0.862 0.339 0.136 0.053 0.242 0.127 0.369 0.202 0.092 0.053 0.18 0.11 0.281 0.124 0.080 0.010 0.15 0.032 0.224 0.053 0.133 0.048 0.269 0.109 0.382 0.202 0.168 0.119 0.251 0.295 0.352 0.466 0.118 0.194 0.25 0.366 0.417 0.519 0.347 0.33 0.724 0.664 1.024 1.042 0.251 0.312 0.413 0.685 0.664 1.011 0.145 0.192 0.29 0.395 0.343 0.637 0.052 0.254 0.022 0.519 0.039 0.777 0.016 0.269 0.074 0.497 0.162 0.747 0.048 0.133 0.097 0.264 0.136 0.391 0.057 0.198 0.154 0.334 0.313 0.461 0.101 0.080 0.201 0.15 0.312 0.224 0.175 0.119 0.339 0.286 0.532 0.378 0.268 0.136 0.571 0.15 0.865 0.141 0.325-0.016 0.659-0.109 0.963-0.219 0.202-0.070 0.413-0.141 0.593-0.242 0.237-0.141 0.461-0.321 0.677-0.487 0.549-0.444 1.054-1.025 1.261-1.71 0.083-0.277 0.189-0.563 0.215-0.857 0.032-0.298 0.097-0.588 0.11-0.892 0.010-0.254 0.035-0.553-0.071-0.791-0.088-0.206-0.224-0.399-0.33-0.593-0.048-0.088-0.088-0.189-0.145-0.268-0.056-0.084-0.153-0.158-0.233-0.225-0.092-0.088-0.171-0.185-0.272-0.272-0.106-0.097-0.25-0.175-0.374-0.228-0.123-0.062-0.233-0.106-0.378-0.118-0.194-0.026-0.448-0.019-0.623 0.053-0.264 0.105-0.546 0.123-0.787 0.272-0.237 0.145-0.461 0.321-0.593 0.579-0.092 0.18-0.219 0.348-0.277 0.555-0.032 0.114-0.079 0.224-0.106 0.338-0.022 0.101-0.010 0.233-0.010 0.343 0.003 0.189 0.071 0.399 0.145 0.567 0.044 0.097 0.132 0.233 0.22 0.295 0.052 0.039 0.118 0.039 0.171 0.065 0.035-0.092-0.083-0.206-0.010-0.298 0.032-0.040 0.097-0.053 0.132-0.085 0.039-0.039 0.062-0.083 0.066-0.136 0.013-0.123-0.032-0.263 0.026-0.382 0.032-0.070 0.101-0.127 0.154-0.189 0.097-0.114 0.194-0.236 0.325-0.316 0.175-0.106 0.334-0.228 0.541-0.281 0.233-0.053 0.579-0.109 0.795 0.035 0.241 0.163 0.284 0.506 0.289 0.769 0 0.163 0.019 0.299 0.032 0.452 0.026 0.194-0.032 0.37-0.071 0.558-0.053 0.278-0.145 0.567-0.281 0.818-0.154 0.277-0.452 0.47-0.717 0.62-0.245 0.141-0.522 0.263-0.799 0.312-0.11 0.022-0.247 0.013-0.361 0.003-0.18-0.003-0.342-0.114-0.514-0.154-0.127-0.025-0.224-0.079-0.33-0.149-0.158-0.115-0.33-0.203-0.466-0.343-0.114-0.119-0.21-0.237-0.29-0.382-0.097-0.171-0.141-0.355-0.197-0.544-0.044-0.158-0.106-0.299-0.158-0.453-0.062-0.175-0.088-0.364-0.145-0.536-0.057-0.168-0.162-0.308-0.224-0.475-0.079-0.207-0.106-0.435-0.185-0.65-0.066-0.177-0.132-0.348-0.194-0.523-0.079-0.237-0.053-0.479-0.198-0.703-0.136-0.211-0.334-0.36-0.47-0.571-0.048-0.079-0.097-0.162-0.175-0.215-0.057-0.036-0.115-0.048-0.171-0.075z"></path>
</svg>
