<!-- Generated by IcoMoon.io -->
<svg version="1.1" xmlns="http://www.w3.org/2000/svg" width="41" height="32" viewBox="0 0 41 32">
<title>dim_carcosa</title>
<path d="M34.848 14.644c-0.058-0.056-0.078-0.026-0.148-0.053-0.018-0.015-0.038-0.030-0.056-0.046-0.014-0.007-0.028-0.007-0.041-0.003-0.076-0.026-0.108-0.070-0.159-0.139-0.082-0.11-0.195-0.13-0.314-0.18-0.043-0.018-0.075-0.046-0.114-0.070-0.107-0.066-0.233-0.102-0.346-0.156-0.145-0.066-0.302-0.153-0.454-0.192-0.146-0.037-0.302 0.026-0.447-0.004-0.088-0.021-0.145-0.082-0.236-0.053-0.085 0.029-0.114 0.105-0.208 0.11-0.029 0.003-0.063-0.024-0.093-0.026-0.163-0.010-0.345 0.069-0.503 0.095-0.229 0.040-0.462 0.063-0.69 0.101-0.111 0.017-0.177 0.070-0.279 0.116-0.015 0.006-0.032 0.014-0.049 0.020-0.061 0.001-0.123 0-0.185 0.001-0.013-0.006-0.026-0.008-0.040-0.018-0.108-0.082-0.091-0.185-0.223-0.25-0.275-0.137-0.583-0.095-0.873-0.152-0.23-0.047-0.313-0.237-0.514-0.331-0.101-0.047-0.22-0.11-0.331-0.119-0.186-0.017-0.351 0.119-0.528 0.192-0.178 0.075-0.377 0.137-0.543 0.233-0.113 0.067-0.085 0.082-0.197 0.050-0.096-0.026-0.192-0.099-0.291-0.128-0.206-0.061-0.424-0.084-0.628-0.143-0.123-0.035-0.267-0.154-0.395-0.16-0.091-0.006-0.091 0.046-0.168 0.064-0.096 0.021-0.221 0.032-0.322 0.049-0.221 0.038-0.444-0.006-0.656-0.067-0.273-0.076-0.398-0.288-0.633-0.395-0.168-0.076-0.297-0.218-0.447-0.32-0.145-0.101-0.282-0.122-0.43-0.188-0.15-0.069-0.125-0.149-0.265-0.021-0.055 0.052-0.113 0.113-0.186 0.133-0.050 0.014-0.097-0.010-0.143 0.001-0.145 0.035-0.252 0.156-0.404 0.195-0.162 0.043-0.308 0.073-0.461 0.145-0.238 0.113-0.49 0.331-0.741 0.398-0.079 0.021-0.174-0.017-0.246 0.010-0.085 0.034-0.189 0.18-0.239 0.25-0.070 0.099-0.102 0.255-0.204 0.326-0.152 0.108-0.499 0.050-0.679 0.050-0.209 0-0.395-0.049-0.598-0.058-0.082-0.004-0.204-0.017-0.287-0.001-0.082 0.017-0.114 0.076-0.195 0.105-0.273 0.095-0.586-0.044-0.851-0.091-0.090-0.017-0.217 0.018-0.296-0.034-0.064-0.041-0.050-0.105-0.094-0.153-0.059-0.062-0.104-0.075-0.177-0.114-0.168-0.089-0.285-0.258-0.484-0.29-0.215-0.035-0.372 0.043-0.583-0.090-0.171-0.11-0.238-0.148-0.444-0.198-0.137-0.035-0.249-0.134-0.381-0.166-0.063-0.014-0.142 0.018-0.207 0.008-0.052-0.007-0.116-0.055-0.163-0.055-0.061 0.001-0.136 0.058-0.191 0.087-0.169 0.090-0.345 0.211-0.535 0.246-0.125 0.023-0.256 0.010-0.383 0.030-0.11 0.018-0.22 0.047-0.331 0.061-0.287 0.037-0.528 0.028-0.805-0.018-0.098-0.015-0.2 0.003-0.296-0.010 0.024 0.004-0.134-0.049-0.136-0.049-0.151-0.004-0.345 0.211-0.458 0.305-0.133 0.111-0.235 0.227-0.383 0.314-0.091 0.055-0.139 0.087-0.207 0.16-0.043 0.049-0.067 0.076-0.096 0.091-0.030 0.003-0.061 0.004-0.091 0.008-0.013-0.001-0.020 0-0.032-0.003-0.23-0.026-0.468-0.014-0.706-0.029-0.206-0.013-0.371-0.221-0.578-0.163-0.133 0.035-0.174 0.102-0.314 0.105-0.087 0.003-0.169 0-0.253-0.011-0.163-0.029-0.322-0.064-0.468-0.146-0.108-0.061-0.081-0.044-0.23-0.076-0.151-0.032-0.215-0.195-0.332-0.227-0.093-0.024-0.134 0.037-0.206 0.056-0.166 0.049-0.348 0.041-0.503 0.12-0.215 0.108-0.346 0.294-0.545 0.445-0.203 0.157-0.404 0.093-0.635 0.136-0.131 0.026-0.252 0.093-0.386 0.107-0.089 0.007-0.302-0.040-0.352 0.047h0.224c-0.072 0.007-0.149 0.007-0.224 0.004-0.017 0.040 0.013 0.102 0.021 0.139 0.044 0.162 0.084 0.308 0.095 0.476 0.006 0.096-0.006 0.088 0.114 0.099 0.093 0.007 0.206-0.006 0.299-0.008 0.38-0.008 0.758-0.020 1.138-0.029 0.278-0.008 0.555-0.020 0.833-0.026 0.372-0.006 0.735 0.056 1.11 0.055 0.241 0 0.456 0.026 0.693 0.044 0.346 0.023 0.697 0.017 1.042 0.034 0.279 0.015 0.552 0.063 0.834 0.078 0.334 0.017 0.657 0.034 0.99 0.064 0.29 0.026 0.583 0.030 0.871 0.067 0.355 0.044 0.693 0.008 1.051 0.010 0.331 0 0.653 0.026 0.985 0.017 0.36-0.011 0.72-0.028 1.080-0.032 0.406-0.004 0.805 0.024 1.217 0.011 0.563-0.017 1.115 0.011 1.676 0.004 0.674-0.010 1.354-0.153 2.027-0.204 0.543-0.041 1.087-0.046 1.632-0.060 0.923-0.024 1.864-0.091 2.779 0.006 0.737 0.079 1.467 0.047 2.213 0.023 0.272-0.008 0.531 0.021 0.801 0.023 0.386 0.001 0.775-0.032 1.162-0.035 0.281-0.003 0.554 0.038 0.831 0.052 0.311 0.017 0.569-0.007 0.876 0.046 0.365 0.064 0.708 0.081 1.085 0.072 0.113-0.003 0.207 0 0.313-0.029 0.177-0.050 0.293-0.107 0.482-0.113 0.142-0.001 0.297-0.067 0.43-0.053 0.093 0.010 0.186 0.066 0.287 0.038 0.113-0.029 0.201-0.142 0.288-0.212 0.073-0.056 0.166-0.107 0.212-0.188 0.035-0.061 0.023-0.064-0.034-0.084-0.041-0.015-0.075-0.028-0.11-0.063z"></path>
<path d="M14.233 6.69c-0.128 0.314-0.136 0.612-0.136 0.946 0 0.467 0.010 0.929 0.101 1.388 0.076 0.38 0.364 0.572 0.676 0.766 0.387 0.242 0.814 0.36 1.26 0.453 0.275 0.058 0.543 0.073 0.824 0.073 0.229 0.001 0.453 0.006 0.664-0.099 0.403-0.203 0.717-0.534 1.101-0.758 0.387-0.226 0.796-0.484 1.023-0.886 0.111-0.194 0.191-0.407 0.293-0.605 0.108-0.209 0.093-0.368 0.095-0.595 0-0.276-0.010-0.482-0.118-0.734-0.091-0.215-0.18-0.436-0.275-0.647-0.152-0.342-0.447-0.676-0.728-0.921-0.127-0.111-0.25-0.238-0.394-0.326-0.114-0.072-0.247-0.123-0.366-0.191-0.116-0.067-0.191-0.133-0.331-0.14-0.272-0.011-0.546 0.015-0.818 0.006-0.142-0.004-0.278-0.029-0.413-0.055-0.053-0.008-0.082-0.017-0.136-0.006-0.128 0.030-0.27 0.099-0.392 0.149-0.23 0.095-0.45 0.256-0.644 0.412-0.273 0.223-0.512 0.462-0.743 0.731-0.259 0.3-0.396 0.679-0.545 1.040z"></path>
<path d="M20.891 23.742c-0.046-0.013-0.131-0.047-0.18-0.070-0.047-0.021-0.075-0.061-0.117-0.093-0.064-0.050-0.159-0.076-0.242-0.090-0.209-0.035-0.447 0.011-0.654 0.026-0.040 0.001-0.098 0.007-0.157 0.013 0.043-0.063 0.084-0.127 0.12-0.189 0.030-0.021 0.063-0.043 0.094-0.058 0.229-0.099 0.48-0.172 0.712-0.255 0.108-0.037 0.163-0.087 0.223-0.186-0.094-0.029-0.691 0.174-0.699 0.040 0.149-0.052 0.302-0.096 0.454-0.139 0.061-0.018 0.146-0.028 0.2-0.064-0.053-0.049-0.159-0.091-0.226-0.125-0.12-0.063-0.253-0.052-0.383-0.075 0.014-0.040 0.021-0.079 0.032-0.117-0.044 0.010-0.091 0.021-0.134 0.024-0.044 0.001-0.087-0.001-0.131-0.003h-0.232c-0.279 0-0.548 0.004-0.824-0.047-0.282-0.053-0.566-0.004-0.853 0.007-0.014 0.004-0.029 0.007-0.047 0.001 0.017 0 0.032 0 0.047-0.001 0.024-0.007 0.043-0.028 0.065-0.044 0.072-0.056 0.084-0.076 0.172-0.061 0.142 0.023 0.233 0.044 0.38-0.007 0.127-0.044 0.25-0.017 0.375-0.058 0.061-0.021 0.116-0.072 0.178-0.088 0.061-0.015 0.12 0.003 0.183-0.014 0.047-0.013 0.056-0.026 0.108-0.030 0.049-0.003 0.113 0.015 0.159 0.003 0.026-0.006 0.031-0.032 0.055-0.037 0.049-0.009 0.101-0.009 0.151-0.021 0.177-0.040 0.333-0.060 0.514-0.058 0.037 0 0.090-0.006 0.146-0.010 0.088-0.055 0.174-0.116 0.272-0.151-0.001-0.102-0.114-0.105-0.189-0.105-0.131 0-0.229-0.006-0.334-0.046 0-0.069-0.006-0.133-0.018-0.198-0.055-0.004-0.108-0.004-0.163-0.010-0.165-0.018-0.322-0.037-0.474-0.107-0.094-0.043-0.133-0.053-0.090-0.163 0.067-0.171 0.221-0.14 0.364-0.157 0.053-0.006 0.107-0.026 0.159-0.046-0.044-0.093-0.088-0.188-0.136-0.278 0.212-0.030 0.506-0.089 0.456-0.169-0.175-0.028-0.337-0.015-0.506-0.085-0.056-0.023-0.116-0.047-0.174-0.070-0.166-0.186-0.372-0.336-0.586-0.47 0.055-0.015 0.119-0.026 0.151-0.049 0.032-0.024 0.11-0.084 0.099-0.133-0.015-0.069-0.075-0.023-0.12-0.034-0.049-0.010-0.047-0.056-0.081-0.072-0.081-0.041-0.249-0.006-0.337-0.006-0.053 0-0.111 0.001-0.169 0.004-0.020-0.015-0.040-0.029-0.059-0.044h-0.067c-0.082 0-0.185 0.029-0.24-0.034-0.034-0.040-0.014-0.118-0.084-0.148-0.099-0.043-0.237-0.018-0.346-0.055-0.032-0.007-0.064-0.020-0.094-0.038-0.004-0.020-0.009-0.038-0.013-0.058-0.136-0.125-0.363 0.004-0.525-0.055 0.010-0.087 0.244-0.105 0.296-0.113 0.093-0.014 0.184-0.032 0.276-0.052-0.009-0.006-0.018-0.011-0.029-0.017-0.211-0.105-0.435-0.102-0.662-0.101-0.282 0.001-0.549 0.017-0.825 0.075-0.084 0.017-0.168 0.037-0.25 0.058 0.021 0.003 0.043 0.004 0.066 0.010 0.094 0.024 0.134 0.032 0.092 0.095-0.069 0.097-0.223 0.081-0.364 0.090-0.102 0.006-0.198 0.038-0.299 0.052-0.063 0.007-0.131 0.010-0.194 0.020-0.037 0.004-0.073 0.013-0.108 0.020-0.069 0.034-0.136 0.067-0.201 0.107-0.168 0.105-0.326 0.211-0.451 0.342-0.078 0.038-0.134 0.105-0.211 0.149-0.14 0.079-0.529 0.223-0.334 0.484 0.030 0.041 0.078 0.052 0.122 0.073 0.029 0.014 0.053 0.029 0.078 0.046 0.050 0.010 0.079 0.032 0.145 0.076 0.069 0.046 0.188 0.104 0.269 0.123 0.093 0.023 0.181 0.034 0.265 0.082 0.046 0.026 0.067 0.026 0.116 0.041 0.041 0.013 0.061 0.047 0.108 0.052-0.043 0.097-0.076 0.143-0.185 0.157-0.143 0.018-0.262 0.061-0.401 0.104-0.096 0.029-0.174 0.063-0.265 0.108-0.009 0.003-0.018 0.007-0.029 0.011v0.020c-0.024 0.028-0.049 0.052-0.078 0.072-0.063 0.044-0.12 0.095-0.181 0.136-0.078 0.052-0.162 0.060-0.249 0.087-0.078 0.023-0.151 0.111-0.058 0.184 0.035 0.028 0.073 0.013 0.114 0.024 0.082 0.026 0.128 0.107 0.221 0.12 0.078 0.013 0.159 0.034 0.241 0.052 0.007 0.101 0.021 0.198 0.044 0.297 0.040 0.003 0.076 0.003 0.105 0.006 0.223 0.018 0.371 0.056 0.61 0.055 0.165 0 0.169-0.003 0.281 0.026 0.2 0.052 0.366 0.131 0.569 0.18 0.117 0.029 0.285 0.029 0.41 0.061 0.442 0.111-0.821 0.152-1.004 0.172-0.197 0.023-0.395 0.056-0.599 0.060-0.056 0.001-0.111 0-0.168 0 0.013 0.028 0.023 0.053 0.034 0.082-0.063 0-0.125 0.001-0.192 0.001-0.211 0-0.461-0.049-0.622 0.127-0.066 0.075-0.252 0.188-0.16 0.291 0.055 0.063 0.165 0.041 0.233 0.063 0.075 0.021 0.264 0.064 0.304 0.134-0.050 0.013-0.215 0.041-0.235 0.082-0.006 0.014 0.424 0.007 0.461 0.006 0.070-0.001 0.156-0.004 0.226 0.017 0.052 0.015 0.082 0.040 0.114 0.082 0.021 0.029 0.046 0.056 0.070 0.084 0.145-0.006 0.29-0.004 0.433-0.028 0.313-0.047 0.595-0.13 0.914-0.101 0.256 0.024 0.482 0.156 0.744 0.166 0.072 0.003 0.249-0.023 0.307 0.014 0.131 0.078-0.122 0.107-0.171 0.127-0.078 0.030-0.168 0.081-0.238 0.131-0.075 0.053-0.131 0.186-0.212 0.212-0.032 0.009-0.087-0.004-0.119-0.007-0.178-0.017-0.32-0.003-0.491 0.047-0.169 0.050-0.325 0.018-0.493 0.029-0.082 0.006-0.148 0.035-0.22 0.006 0.011 0.010 0.017 0.023 0.026 0.034 0.146 0.162 0.351 0.163 0.541 0.238 0.146 0.058 0.278 0.067 0.433 0.069 0.072 0 0.143 0.007 0.215 0.015 0.096 0.041 0.2 0.085 0.294 0.107 0.053 0.014 0.084 0.004 0.136-0.006 0.043-0.007 0.084-0.014 0.127-0.021 0.084 0.007 0.178 0.004 0.242-0.029 0.015-0.001 0.029-0.003 0.044-0.003 0.272-0.009 0.546 0.017 0.819 0.004 0.111-0.004 0.183-0.049 0.267-0.101-0.049-0.047-0.094-0.096-0.148-0.136-0.079-0.056-0.156-0.069-0.239-0.093-0.073-0.023-0.191-0.082-0.084-0.16 0.114-0.082 0.313-0.127 0.444-0.159 0.084-0.021 0.151-0.046 0.253-0.024 0 0.011 0.001 0.024 0.003 0.035 0.046 0.018 0.096 0.014 0.146 0.015 0.188 0.007 0.375 0.024 0.563 0.026h0.032c0.076-0.047 0.156-0.085 0.24-0.070 0.032 0.004 0.063 0.034 0.097 0.043 0.058 0.014 0.14 0 0.203 0 0.026-0.001 0.052-0.007 0.076-0.009 0.047-0.009 0.091-0.015 0.139-0.023 0.146-0.037 0.288-0.087 0.444-0.089 0.134 0 0.159-0.038 0.291-0.093 0.143-0.060 0.293-0.116 0.439-0.165 0.069-0.023 0.203-0.030 0.267-0.076-0.157-0.011-0.307 0.107-0.467 0.063z"></path>
<path d="M18.637 16.785c0.689 0.055 1.36 0.078 2.050 0.076 0.346 0 0.692-0.007 1.039-0.003 0.345 0.004 0.671 0.060 1.013 0.096 0.305 0.032 0.631-0.021 0.929 0.063 0.214 0.058 0.406 0.171 0.625 0.213 0.171 0.013 0.342 0.020 0.512 0.017 0.162 0.011 0.319 0.046 0.471 0.102 0.288 0.064 0.563 0.049 0.856 0 0.216-0.050 0.436-0.084 0.657-0.101 0.127 0.004 0.252 0 0.377-0.018 0.287-0.032 0.557-0.127 0.848-0.136 0.223-0.009 0.441 0.034 0.665 0.038 0.427 0.007 0.856-0.111 1.281-0.047 0.308 0.047 0.592 0.066 0.908 0.052 0.279-0.013 0.545-0.018 0.821 0.028 0.148 0.037 0.297 0.060 0.45 0.066 0.16-0.018 0.317-0.047 0.474-0.088 0.204-0.030 0.328 0 0.525 0.018 0.221 0.020 0.435-0.064 0.654-0.072 0.073 0.163-0.462 0.27-0.557 0.29-0.421 0.091-0.811 0.273-1.226 0.393-0.461 0.133-0.947 0.128-1.425 0.119-0.357-0.007-0.709-0.017-1.051-0.128-0.88-0.291-1.838-0.175-2.729 0.007-0.905 0.189-1.837 0.227-2.755 0.149-0.389-0.034-0.779-0.13-1.168-0.142-0.369-0.013-0.735-0.044-1.097-0.116-0.157-0.030-0.313-0.076-0.47-0.108-0.229-0.049-0.464-0.050-0.696-0.069-0.465-0.037-0.918-0.119-1.377-0.2-0.557-0.096-1.173-0.067-1.733-0.004-0.3 0.034-0.589 0.037-0.892 0.037-0.181 0-0.346 0.001-0.525-0.037-0.108-0.024-0.212-0.038-0.323-0.041-0.052-0.001-0.294 0.040-0.343-0.035 0.024-0.035 0.056-0.090 0.091-0.116 0.067-0.053 0.186-0.046 0.267-0.058 0.139-0.021 0.275-0.058 0.41-0.093 0.281-0.073 0.577-0.125 0.868-0.117 0.224 0.006 0.433 0.066 0.662 0.037 0.2-0.026 0.392-0.107 0.592-0.113 0.102-0.003 0.204 0.013 0.305 0.004 0.061-0.001 0.117-0.021 0.175-0.038 0.024-0.006 0.194-0.084 0.244-0.078 0.044 0.006 0.070 0.043 0.122 0.046 0.003 0.009 0.003 0.020-0.526 0.107z"></path>
<path d="M12.089 17.469c-0.729 0.046-1.457 0.017-2.184 0.076-0.503 0.041-1.010 0.089-1.504-0.038-0.328-0.084-0.667-0.117-1.004-0.116-0.157 0.001-0.246-0.006-0.395 0.066-0.148 0.070-0.285 0.159-0.427 0.238-0.050 0.028-0.122 0.049-0.131 0.114-0.023 0.151 0.253 0.157 0.314 0.162 0.403 0.020 0.808-0.017 1.213 0 0.444 0.020 0.882 0.063 1.324 0.067 0.342 0.001 0.677 0.069 1.017 0.082 0.23 0.009 0.48-0.037 0.709-0.011 0.16 0.017 0.269 0.075 0.395 0.174 0.168 0.13 0.349 0.114 0.551 0.081 0.149-0.024 0.296-0.055 0.45-0.058 0.169-0.003 0.27-0.003 0.433-0.063 0.119-0.043 0.249-0.116 0.377-0.13 0.059-0.007 0.113 0.001 0.172-0.020 0.091-0.029 0.211-0.052 0.247-0.154 0.090-0.259-0.294-0.236-0.452-0.281-0.211-0.058-0.429-0.037-0.645-0.037-0.065 0-0.152 0.018-0.215-0.007-0.044-0.017-0.091-0.058-0.137-0.078-0.206-0.087-0.351-0.104-0.108-0.067z"></path>
<path d="M32.874 19.487c-0.476 0-0.95-0.001-1.426 0-0.194 0-0.391 0.006-0.584 0.001-0.18-0.006-0.32-0.070-0.484-0.133-0.435-0.166-0.891-0.22-1.353-0.216-0.526 0.003-1.031 0.037-1.545 0.149-0.183 0.040-0.351 0.075-0.516 0.16-0.247 0.13-0.577 0.142-0.85 0.151-0.29 0.009-0.572 0.003-0.862 0.029-0.102 0.010-0.204 0.013-0.307 0.030-0.047 0.007-0.090 0.021-0.139 0.020 0.072-0.006 0.146-0.007 0.218-0.007 0.207-0.001 0.258 0.050 0.366 0.209 0.089 0.133 0.157 0.198 0.317 0.233 0.346 0.081 0.715 0.093 1.069 0.095 0.505 0.001 0.993-0.119 1.496-0.146 0.275-0.015 0.554-0.014 0.828 0.004 0.493 0.028 0.984 0.133 1.478 0.096 0.407-0.029 0.798 0.028 1.203-0.029 0.322-0.044 0.651-0.010 0.97-0.075 0.131-0.024 0.249-0.076 0.384-0.081 0.13-0.003 0.259 0.013 0.389-0.003 0.101-0.009 0.596-0.104 0.607-0.262-0.099-0.102-0.325-0.090-0.454-0.131-0.073-0.024-0.14-0.056-0.215-0.075-0.113-0.030-0.218-0.055-0.328-0.097-0.136-0.053-0.273-0.037-0.265 0.078z"></path>
<path d="M28.344 22.228c-0.114-0.026-0.207-0.038-0.328-0.038-0.573 0.003-1.147 0-1.722 0-0.816 0-1.629-0.040-2.445-0.038-0.302 0-0.661-0.066-0.941 0.058-0.156 0.067-0.279 0.165-0.425 0.239-0.096 0.049-0.215 0.038-0.308 0.093 0.030 0.066 0.227 0.021 0.29 0.032 0.096 0.017 0.163 0.082 0.246 0.128 0.169 0.093 0.368 0.113 0.555 0.139 0.595 0.075 1.196 0.075 1.788 0.168 0.172 0.026 0.34 0.075 0.514 0.090 0.188 0.015 0.378 0.009 0.566-0.003 0.355-0.023 0.7-0.064 1.046-0.145 0.168-0.038 0.334-0.090 0.506-0.11 0.108-0.014 0.22 0 0.328-0.006 0.241-0.010 0.467-0.093 0.705-0.11 0.061-0.006 0.117 0.001 0.178 0.001 0.153 0 0.281-0.037 0.43-0.072 0.172-0.040 0.319-0.043 0.491-0.043 0.113-0.001 0.32-0.041 0.381-0.159 0.14-0.273-0.445-0.252-0.581-0.288-0.299-0.079-0.61-0.052-0.921-0.052-0.168 0-0.342-0.017-0.506 0.021-0.119 0.026-0.253 0.116 0.154 0.093z"></path>
<path d="M26.478 25.806c-1.307 0-2.62 0.030-3.926 0.004-0.241 0.001-0.479-0.023-0.714-0.070-0.149-0.040-0.304-0.069-0.456-0.087-0.343-0.023-0.625 0.148-0.953 0.189-0.093 0.010-0.177-0.009-0.268-0.003-0.093 0.009-0.182 0.034-0.269 0.069-0.133 0.037-0.268 0.066-0.404 0.091-0.403 0.102-0.792 0.269-1.191 0.384-0.177 0.050-0.349 0.086-0.534 0.108 1.257-0.030 2.52-0.010 3.774 0.043 0.427 0.020 0.837 0.069 1.255 0.13 0.253 0.038 0.526 0.061 0.782 0.060 0.435-0.004 0.872-0.081 1.301-0.142 0.317-0.046 0.598-0.113 0.918-0.081 0.236 0.023 0.451 0.023 0.689-0.009 0.169-0.023 0.334-0.034 0.505-0.040 0.302-0.007 0.589-0.096 0.891-0.078 0.242 0.014 0.555 0.111 0.766-0.066-0.18-0.116-0.345-0.241-0.548-0.319-0.145-0.055-0.294-0.096-0.448-0.111-0.102-0.010-0.226-0.007-0.322-0.043-0.118-0.043-0.203-0.13-0.328-0.162-0.151-0.040-0.316-0.023-0.471-0.021-0.18 0-0.362 0-0.049 0.153z"></path>
<path d="M8.665 21.694c0.447 0 0.909 0.034 1.356-0.014 0.404-0.043 0.799-0.139 1.206-0.175 0.372-0.035 0.712-0.041 1.083 0.006 0.009 0.082 0.072 0.104 0.085 0.18 0.047 0.232-0.221 0.198-0.368 0.211-0.16 0.014-0.307 0.023-0.453 0.093-0.043 0.021-0.085 0.050-0.128 0.072-0.25 0.116-0.523 0.093-0.788 0.056-0.215-0.028-0.425-0.056-0.642-0.041-0.188 0.014-0.366 0.040-0.554 0.010-0.371-0.060-0.729-0.056-1.103-0.056-0.178 0-0.363 0.017-0.542 0.003-0.076-0.006-0.145-0.038-0.221-0.043-0.047-0.003-0.101 0.018-0.145-0.001 0.118-0.146 0.346-0.198 0.514-0.255 0.125-0.044 0.262-0.12 0.392-0.145 0.086-0.017 0.145 0.018 0.23 0.024 0.226 0.018 0.461-0.001 0.685-0.001z"></path>
<path d="M22.558 27.975c-0.444-0.007-0.879-0.073-1.322-0.079-0.482-0.006-0.964 0.003-1.446 0.001-0.603-0.001-1.22-0.021-1.821 0.056-0.404 0.052-0.795 0.123-1.205 0.134-0.515 0.014-1.011-0.018-1.487-0.226-0.543-0.236-1.139-0.246-1.71-0.111 0.006 0.146 0.003 0.313 0.075 0.445 0.069 0.131 0.163 0.139 0.302 0.171 0.157 0.035 0.313 0.075 0.471 0.105 0.328 0.064 0.665 0.134 0.998 0.18 0.436 0.061 0.882 0.047 1.322 0.049 0.22 0 0.435-0.021 0.654-0.035 0.088-0.004 0.162-0.003 0.244 0.028 0.307 0.105 0.581 0.163 0.908 0.159 0.378-0.003 0.723-0.023 1.092-0.114 0.256-0.063 0.499-0.186 0.764-0.145 0.232 0.035 0.464 0.023 0.694 0.047 0.252 0.029 0.488 0.018 0.738-0.009 0.221-0.024 0.419-0.004 0.633-0.084 0.131-0.047 0.275-0.087 0.399-0.148 0.069-0.035 0.227-0.133 0.194-0.235-0.020-0.063-0.082-0.058-0.136-0.079-0.079-0.029-0.139-0.091-0.217-0.122-0.122-0.047-0.255-0.035-0.145 0.013z"></path>
</svg>
