<!-- Generated by IcoMoon.io -->
<svg version="1.1" xmlns="http://www.w3.org/2000/svg" width="33" height="32" viewBox="0 0 33 32">
<title>dodo</title>
<path d="M30.449 19.348c-0.183-0.518-0.549-0.945-1.037-1.159-0.945-3.262-3.445-5.762-6.677-6.707-2.957-0.854-6.189-0.274-8.658 1.555-0.335 0.244-0.579 0.549-0.793 0.762-0.183 0.213-0.457 0.305-0.732 0.213-0.061-0.030-0.122-0.061-0.183-0.091 0 0-0.030-0.030-0.030-0.030-0.152-0.122-0.213-0.305-0.183-0.488 0.030-0.213 0.122-0.396 0.305-0.518 2.043-1.311 2.774-3.933 1.738-6.128-1.098-2.317-3.811-3.354-6.158-2.409l-0.061 0.030v0.091c-0.030 0.213-0.183 0.762-0.579 1.159-0.335 0.335-0.671 0.396-1.25 0.488-0.396 0.061-0.854 0.152-1.494 0.335-0.884 0.274-1.433 0.427-1.89 0.945-0.305 0.335-0.976 1.22-0.64 2.165 0.244 0.701 0.884 1.006 1.159 1.128l0.244 0.091-0.061-0.244c-0.030-0.183-0.030-0.396 0.030-0.61 0.030 0.183 0.122 0.335 0.213 0.488 0.213 0.305 0.701 0.701 1.707 0.701 0.854 0 1.433-0.366 1.982-0.701 0.518-0.335 1.037-0.671 1.768-0.64 0.274 0 0.518 0.061 0.793 0.152-1.555 0.915-2.774 2.378-3.384 4.146-0.64 1.86-0.61 3.872 0.091 5.671v0.030c2.043 3.811 5.793 6.311 10 6.768l-0.213 1.037-3.201-0.915 2.134 1.067-3.658 0.091 3.994 0.457-2.591 1.616 3.841-1.494 2.226-0.549-1.799-0.122 0.244-1.128c0.152 0 0.274 0 0.427 0 1.25 0 2.469-0.183 3.597-0.518v2.896l-3.415-0.213 2.256 0.823-3.384 1.189 3.994-0.457-1.037 1.677 2.561-1.982 3.963-0.518-3.811-0.335v-3.445c2.805-1.098 5.152-3.171 6.646-5.914 0.274-0.183 0.61-0.274 0.915-0.274h0.183zM5.176 9.531c-0.518 0.091-1.037 0.091-1.555 0.030 0 0 0.030-0.030 0.030-0.030 0.335-0.488 0.915-0.579 1.311-0.671 0.335-0.061 0.549-0.030 0.762-0.030 0.244 0.030 0.457 0.030 0.854-0.030 0.152-0.030 0.305-0.061 0.427-0.091-0.457 0.366-1.067 0.701-1.829 0.823zM8.377 6.665c-0.244 0-0.427-0.183-0.427-0.427s0.183-0.427 0.427-0.427c0.244 0 0.427 0.183 0.427 0.427-0.030 0.244-0.213 0.427-0.427 0.427z"></path>
</svg>
