<!-- Generated by IcoMoon.io -->
<svg version="1.1" xmlns="http://www.w3.org/2000/svg" width="32" height="32" viewBox="0 0 32 32">
<title>draw</title>
<path fill="#394852" d="M15.669 1.756c-1.388-0.372-2.834 0.466-3.206 1.853l-2.684 9.134 1.534 0.45 2.697-9.172c0.148-0.551 0.693-0.865 1.244-0.719h0.003l8.163 2.344c0.552 0.148 0.867 0.695 0.719 1.247l-4.122 13.863c-0.148 0.552-0.695 0.87-1.247 0.722l-3.075-0.931-0.463 1.531 3.125 0.944c1.388 0.372 2.835-0.462 3.206-1.85l4.122-13.863c0.372-1.388-0.466-2.835-1.853-3.206l-8.153-2.344zM9.066 15.438l-3.634 3.694 1.138 1.122 2.269-2.303v1.744c0 2.966 1.121 5.289 2.819 6.822s3.937 2.284 6.163 2.284c2.226 0 4.461-0.752 6.159-2.284s2.822-3.856 2.822-6.822h-1.6c0 2.572-0.924 4.398-2.294 5.634s-3.223 1.872-5.087 1.872c-1.865 0-3.721-0.635-5.091-1.872s-2.291-3.062-2.291-5.634v-1.387l2.206 2.803 1.256-0.988-3.634-4.616-0.628 0.494z"></path>
</svg>
