<!-- Generated by IcoMoon.io -->
<svg version="1.1" xmlns="http://www.w3.org/2000/svg" width="32" height="32" viewBox="0 0 32 32">
<title>dreamers_curse</title>
<path d="M29.443 16.132c-0.403-0.003-0.834-0.151-1.166-0.372-0.196-0.131-0.391-0.226-0.559-0.4-0.17-0.175-0.266-0.366-0.372-0.582-0.309-0.63-0.763-1.176-1.122-1.771-0.075-0.124-0.172-0.185-0.287-0.273-0.112-0.087-0.185-0.192-0.272-0.302-0.091-0.115-0.205-0.21-0.301-0.322-0.14-0.166-0.266-0.346-0.403-0.515-0.179-0.22-0.423-0.406-0.634-0.597-0.197-0.18-0.419-0.293-0.652-0.421-0.185-0.103-0.391-0.163-0.596-0.227-0.362-0.112-0.741-0.204-1.114-0.272-0.352-0.064-0.684-0.231-1.029-0.325-0.489-0.136-0.966-0.295-1.459-0.418-0.215-0.053-0.432-0.141-0.651-0.172-0.162-0.025-0.328-0.025-0.491-0.047-0.421-0.057-0.84-0.109-1.262-0.159-0.268-0.031-0.544-0.031-0.819-0.028-0.001-0.071-0.003-0.141-0.003-0.214 0-0.192 0.007-0.384 0.011-0.576 0.333 0 0.667 0 1.001 0 0.787 0 1.57 0.097 2.36 0.094 0.59-0.002 1.18-0.001 1.771-0.001 0.211 0 0.428-0.031 0.639 0.019 0.103 0.022 0.205 0.071 0.308 0.101 0.332 0.097 0.646 0.019 0.981-0.006 0.377-0.028 0.751-0.016 1.126-0.019 0.307-0.002 0.587-0.079 0.885-0.098 0.351-0.025 0.7 0.028 1.053-0.006 0.447-0.042 0.9-0.102 1.34-0.26 0.067-0.022 0.117-0.035 0.172-0.095-0.066-0.153-0.223-0.096-0.307-0.095-0.517 0.006-1.034 0.002-1.551 0.002-0.549-0.001-1.098 0-1.646 0.002-0.223 0.025-0.446 0.016-0.667-0.022-0.101-0.031-0.169-0.069-0.272-0.073-1.136-0.050-2.275-0.003-3.41 0.003-0.291 0.001-0.554-0.063-0.837-0.114-0.332-0.060-0.647-0.077-0.983-0.072-0.418 0.006-0.828-0.086-1.245-0.096-0.162-0.003-0.291-0.040-0.446-0.079-0.081-0.022-0.168-0.025-0.254-0.025 0.007-0.211 0.013-0.421 0.017-0.632 0.007-0.313 0.090-0.616 0.124-0.925 0.028-0.255 0.011-0.517 0.047-0.77 0.026-0.171 0.024-0.346 0.052-0.517 0.029-0.171 0.016-0.352 0.050-0.521 0.033-0.165 0.096-0.29 0.097-0.461 0-0.085-0.001-0.17-0.001-0.255 0.221-0.056 0.172-0.152 0.16-0.256-0.010-0.076 0.006-0.155-0.009-0.231-0.009-0.045-0.036-0.084-0.049-0.137-0.011-0.055 0.016-0.098-0.040-0.142-0.030 0.145-0.081 0.284-0.122 0.43-0.107 0.384-0.191 0.772-0.307 1.154-0.163 0.536-0.206 1.082-0.312 1.627-0.106 0.548-0.149 1.106-0.251 1.653h-1.734c-0.111 0-0.25-0.038-0.358-0.003-0.057 0.019-0.098 0.083-0.155 0.101-0.090 0.031-0.187-0.013-0.281 0.016-0.164 0.052-0.321 0.061-0.488 0.086-0.338 0.052-0.668 0.205-1.007 0.261-0.363 0.059-0.712 0.185-1.077 0.182-0.717-0.003-1.433 0-2.148 0-0.155 0-0.311 0.001-0.466 0.002 0.168 0.013 0.335 0.040 0.493 0.098 0.457 0.168 0.963 0.082 1.436 0.082 1.888 0.001 3.776 0 5.664 0-0.027 0.264-0.040 0.53-0.041 0.804-0.010 0-0.019 0.001-0.029 0.001-0.449 0-0.899 0.001-1.348-0.001-0.531-0.003-1.043 0.097-1.57 0.103-0.154 0.002-0.299 0.022-0.445 0.068-0.132 0.040-0.254 0.022-0.39 0.046-0.183 0.031-0.362 0.084-0.546 0.112-0.153 0.022-0.321 0.019-0.466 0.067-0.26 0.084-0.551 0.132-0.797 0.255-0.101 0.052-0.204 0.091-0.305 0.138-0.136 0.063-0.243 0.183-0.368 0.264-0.211 0.135-0.451 0.221-0.664 0.352-0.247 0.151-0.505 0.293-0.74 0.463-0.261 0.19-0.472 0.442-0.702 0.669-0.123 0.121-0.223 0.232-0.307 0.383-0.085 0.156-0.174 0.312-0.281 0.454-0.213 0.283-0.455 0.553-0.651 0.848-0.128 0.191-0.204 0.407-0.339 0.594-0.102 0.143-0.211 0.273-0.298 0.428-0.108 0.192-0.225 0.367-0.342 0.551-0.107 0.165-0.179 0.346-0.285 0.511-0.17 0.262-0.328 0.483-0.606 0.644-0.292 0.167-0.619 0.286-0.956 0.334-0.186 0.028-0.392 0.016-0.581 0.009-0.112-0.003-0.26-0.082-0.367-0.047-0.019 0.086 0.21 0.236 0.268 0.291 0.18 0.171 0.404 0.296 0.611 0.431 0.266 0.174 0.791 0.478 1.122 0.254 0.165-0.112 0.299-0.348 0.418-0.502 0.14-0.177 0.278-0.353 0.431-0.52 0.123-0.134 0.211-0.282 0.324-0.421 0.061-0.073 0.142-0.134 0.197-0.21 0.090-0.126 0.14-0.283 0.217-0.417 0.092-0.158 0.194-0.311 0.283-0.471 0.223-0.401 0.543-0.741 0.851-1.076 0.081-0.087 0.14-0.121 0.223-0.189 0.125-0.103 0.21-0.248 0.319-0.367 0.216-0.231 0.473-0.415 0.715-0.614 0.264-0.219 0.38-0.537 0.679-0.723 0.191-0.119 0.344-0.251 0.564-0.318 0.171-0.052 0.318-0.141 0.485-0.197 0.234-0.080 0.486-0.067 0.727-0.112 0.738-0.136 1.485-0.248 2.23-0.352 0.426-0.061 0.837-0.174 1.267-0.22 0.453-0.050 0.907-0.121 1.36-0.192-0.017 0.096-0.032 0.193-0.043 0.291-0.062 0.593-0.131 1.173-0.129 1.77 0.001 0.47 0 0.94 0 1.409 0 1.189-0.015 2.375 0.047 3.562 0.045 0.86 0.008 1.734 0.004 2.596-0.001 0.243 0.036 0.473 0.076 0.713 0.056 0.339 0.095 0.679 0.148 1.018-0.009 0-0.018 0-0.027 0.001-0.629 0.046-1.251 0.237-1.88 0.248-0.546 0.009-1.093-0.006-1.64-0.006-0.391 0-0.782 0.033-1.168-0.064-0.341-0.086-0.689-0.046-1.027-0.124-0.71-0.164-1.453-0.066-2.17-0.066h-1.583l-1.562 0.423c0.783 0 1.567 0.006 2.35-0.001 0.29-0.003 0.566 0.052 0.854 0.109 0.248 0.050 0.503 0.038 0.747 0.123 0.142 0.050 0.281 0.137 0.424 0.176 0.255 0.069 0.517 0.012 0.775 0.082 0.195 0.053 0.396 0.003 0.594 0.016 0.217 0.012 0.421 0.092 0.641 0.090 0.77-0.009 1.578 0.114 2.338-0.109 0.319-0.093 0.638-0.031 0.956-0.123 0.335-0.097 0.661-0.108 0.999-0.108h0.495c0.073 0.406 0.137 0.815 0.191 1.222 0.069 0.531 0.221 1.052 0.291 1.58 0.033 0.243 0.033 0.487 0.074 0.73 0.029 0.169 0.066 0.335 0.085 0.506 0.041 0.358 0.1 0.719 0.11 1.080 0.010 0.333 0.090 0.655 0.101 0.987 0.015 0.401 0.018 0.8 0.042 1.201 0.028 0.449 0.072 0.902 0.062 1.353 0.079-0.051 0.055-0.261 0.067-0.34 0.030-0.195 0.101-0.383 0.131-0.578 0.084-0.533 0.171-1.049 0.17-1.589-0.001-0.396-0.002-0.791 0.001-1.187 0.001-0.291-0.046-0.571-0.056-0.86-0.012-0.35 0.002-0.703 0.002-1.054 0-0.917-0.001-1.836 0-2.755 0-0.1 0.001-0.198 0.001-0.298h2.929c0.5 0 1 0.001 1.5 0 0.253 0 0.489 0.091 0.738 0.087 0.329-0.006 0.646 0.003 0.973-0.084 0.385-0.103 0.797-0.151 1.174-0.3 0.254-0.101 0.539-0.137 0.803-0.193 0.232-0.047 0.446-0.102 0.68-0.103 0.421 0 0.853 0.042 1.273-0.019 0.304-0.045 0.602-0.067 0.907-0.066h-10.398c-0.198 0-0.397 0-0.596 0-0.009-0.103-0.019-0.205-0.037-0.309-0.019-0.118-0.030-0.234-0.038-0.351 0.118 0.211 0.374 0.188 0.63 0.153 0.327-0.046 0.624-0.127 0.934-0.239 0.253-0.091 0.506-0.080 0.765-0.13 0.266-0.052 0.504-0.182 0.766-0.245 0.225-0.053 0.442-0.135 0.663-0.195 0.203-0.055 0.432-0.091 0.629-0.168 0.125-0.047 0.242-0.122 0.368-0.17 0.169-0.067 0.204-0.104 0.332-0.221 0.046-0.042 0.129-0.125 0.181-0.16 0.070-0.047 0.165-0.061 0.24-0.113 0.094-0.064 0.169-0.153 0.256-0.221 0.113-0.087 0.213-0.197 0.313-0.299 0.097-0.1 0.126-0.211 0.206-0.316 0.090-0.117 0.183-0.232 0.263-0.359 0.078-0.123 0.118-0.282 0.143-0.423 0.013-0.068 0.074-0.176 0.068-0.238-0.066 0.056-0.109 0.137-0.17 0.201-0.129 0.135-0.287 0.237-0.432 0.352-0.285 0.228-0.61 0.389-0.913 0.587-0.309 0.199-0.683 0.323-0.963 0.557-0.147 0.123-0.232 0.206-0.415 0.289-0.143 0.064-0.288 0.123-0.419 0.208-0.268 0.176-0.553 0.261-0.862 0.336-0.318 0.078-0.63 0.172-0.955 0.238-0.329 0.068-0.674 0.087-1.008 0.141-0.225 0.035-0.414 0.082-0.635 0.089-0.001-0.109-0.001-0.22-0.001-0.333 0.001-0.369-0.007-0.735-0.018-1.099 0.186-0.055 0.368-0.122 0.542-0.182 0.296-0.103 0.572-0.192 0.854-0.334 0.096-0.048 0.192-0.096 0.288-0.145 0.177-0.090 0.384-0.146 0.554-0.245 0.094-0.053 0.151-0.143 0.236-0.208 0.085-0.067 0.182-0.12 0.268-0.186 0.222-0.166 0.409-0.356 0.617-0.539 0.125-0.109 0.169-0.223 0.251-0.372 0.056-0.102 0.152-0.172 0.203-0.275 0.035-0.072 0.043-0.158 0.072-0.232 0.319-0.816 0.301-1.733 0.301-2.605-0.001-0.2-0.001-0.379-0.051-0.571-0.046-0.175-0.154-0.283-0.262-0.431-0.096-0.134-0.176-0.21-0.289-0.305 0.023 0.102 0.049 0.203 0.069 0.305 0.038 0.191 0.012 0.406 0.012 0.6 0 0.185 0.035 0.407 0.002 0.587-0.019 0.107-0.086 0.216-0.12 0.322-0.041 0.131-0.074 0.266-0.115 0.396-0.091 0.289-0.241 0.538-0.379 0.804-0.058 0.112-0.112 0.244-0.193 0.339-0.073 0.084-0.157 0.154-0.222 0.245-0.155 0.211-0.362 0.344-0.557 0.51-0.12 0.102-0.261 0.17-0.381 0.27-0.135 0.109-0.206 0.175-0.378 0.236-0.144 0.051-0.271 0.125-0.415 0.182-0.323 0.125-0.662 0.192-0.992 0.297-0.060-0.799-0.104-1.589-0.101-2.393 0.001-0.312-0.049-0.617-0.056-0.928-0.003-0.14-0.003-0.279-0.002-0.42 0.18-0.058 0.355-0.152 0.463-0.228 0.123-0.087 0.287-0.181 0.379-0.299 0.086-0.109 0.204-0.233 0.272-0.352 0.079-0.138 0.131-0.276 0.141-0.44 0.011-0.197 0.095-0.42 0.080-0.617-0.008-0.112-0.037-0.228-0.066-0.33-0.051-0.169-0.078-0.403-0.183-0.549-0.086 0.009-0.16 0.296-0.185 0.364-0.055 0.158-0.063 0.289-0.063 0.455 0 0.161-0.008 0.53 0.265 0.311-0.003 0.022-0.008 0.041-0.013 0.061-0.038 0.112-0.113 0.225-0.157 0.338-0.094 0.248-0.27 0.46-0.407 0.684-0.121 0.194-0.321 0.297-0.525 0.392 0.001-0.093 0.002-0.188 0.003-0.283 0.001-0.475-0.091-0.928-0.103-1.402-0.013-0.533-0.129-1.070-0.199-1.598-0.012-0.087-0.013-0.176-0.013-0.265 0.141-0.025 0.285-0.053 0.425-0.051 0.325 0.003 0.65 0.001 0.975 0.001 0.445 0 0.889-0.016 1.33 0.062 0.242 0.044 0.538 0.106 0.764 0.196 0.624 0.249 1.261 0.475 1.876 0.747 0.213 0.095 0.431 0.179 0.645 0.266 0.272 0.113 0.565 0.169 0.84 0.278 0.247 0.097 0.521 0.202 0.757 0.324 0.155 0.082 0.261 0.221 0.385 0.34 0.152 0.147 0.197 0.309 0.283 0.495 0.038 0.082 0.084 0.153 0.13 0.227 0.124 0.197 0.2 0.393 0.289 0.607 0.112 0.27 0.261 0.514 0.404 0.766 0.126 0.221 0.233 0.44 0.481 0.553 0.089 0.040 0.182 0.051 0.274 0.082 0.146 0.050 0.16 0.084 0.261 0.161 0.095 0.074 0.221 0.104 0.324 0.174 0.041 0.028 0.087 0.061 0.13 0.086 0.058 0.031 0.101 0.031 0.158 0.059 0.086 0.042 0.151 0.177 0.154-0.009-0.021 0.084 0.091 0.217 0.136 0.288 0.080 0.124 0.149 0.2 0.278 0.264 0.279 0.137 0.531 0.356 0.825 0.452 0.25 0.081 0.727 0.087 0.979-0.038 0.083-0.041 0.176-0.127 0.232-0.195 0.138-0.174-0.061-0.142-0.194-0.143z"></path>
<path d="M12.517 16.079c-0.123-0.093-0.232-0.181-0.347-0.284-0.186-0.168-0.35-0.446-0.489-0.653-0.162-0.238-0.362-0.474-0.48-0.737-0.162-0.356-0.293-0.749-0.406-1.122-0.053-0.176-0.123-0.373-0.16-0.55-0.015-0.072 0.011-0.142-0.060-0.194-0.306-0.449-0.513-0.241-0.583-0.159-0.098 0.114-0.163 0.19-0.192 0.34-0.033 0.16-0.104 0.333-0.113 0.497-0.017 0.313 0.101 0.591 0.106 0.896 0.002 0.181 0.061 0.344 0.131 0.509 0.037 0.087 0.057 0.174 0.087 0.262 0.039 0.117 0.131 0.175 0.199 0.27 0.135 0.187 0.253 0.407 0.426 0.565 0.13 0.118 0.313 0.202 0.457 0.307 0.374 0.278 0.721 0.573 1.157 0.743 0.315 0.123 0.558 0.302 0.901 0.301 0.198-0.001 0.418 0.041 0.581-0.091-0.078-0.158-0.266-0.214-0.402-0.304-0.153-0.103-0.359-0.183-0.493-0.306-0.066-0.062-0.092-0.12-0.166-0.172-0.055-0.040-0.102-0.076-0.154-0.117z"></path>
<path d="M8.491 16.951c-0.127-0.154-0.282-0.293-0.403-0.451-0.145-0.185-0.257-0.417-0.369-0.623-0.075-0.138-0.117-0.282-0.165-0.429-0.022-0.067-0.062-0.13-0.051-0.203-0.119 0.123-0.072 0.151-0.056 0.212 0.015 0.057 0.001 0.118 0.009 0.176 0.018 0.134 0.078 0.286 0.126 0.412 0.053 0.141 0.086 0.23 0.181 0.343 0.109 0.132 0.208 0.278 0.311 0.416 0.117 0.156 0.238 0.328 0.367 0.474 0.104 0.119 0.176 0.236 0.271 0.362 0.18 0.241 0.436 0.482 0.663 0.678 0.143 0.122 0.33 0.225 0.497 0.312 0.18 0.093 0.34 0.222 0.52 0.312 0.383 0.192 0.736 0.435 1.122 0.626 0.177 0.086 0.342 0.216 0.531 0.26 0.21 0.047 0.401 0.132 0.602 0.21 0.213 0.084 0.463 0.050 0.689 0.050 0.086 0 0.444 0.056 0.465-0.039-0.086-0.019-0.152-0.058-0.232-0.091-0.118-0.047-0.245-0.062-0.363-0.111-0.248-0.101-0.511-0.182-0.751-0.302-0.316-0.159-0.626-0.321-0.941-0.476-0.396-0.197-0.796-0.397-1.145-0.672-0.148-0.115-0.299-0.186-0.455-0.284-0.171-0.108-0.314-0.257-0.483-0.37-0.347-0.235-0.667-0.465-0.938-0.792z"></path>
<path d="M13.335 11.236c-0.311 0.103-0.372 0.151-0.418 0.205-0.053 0.064-0.069 0.14-0.117 0.204-0.063 0.084-0.086 0.070-0.091 0.189-0.013 0.287-0.008 0.561 0.078 0.836 0.107 0.34 0.351 0.539 0.653 0.701 0.226 0.12 0.491 0.287 0.763 0.198-0.123-0.097-0.267-0.182-0.367-0.301-0.069-0.080-0.118-0.18-0.189-0.262-0.089-0.103-0.166-0.183-0.21-0.316-0.028-0.084-0.032-0.176-0.062-0.26-0.018-0.053-0.067-0.103-0.084-0.156-0.040-0.132-0.009-0.321-0.009-0.457 0-0.111-0.017-0.239-0.001-0.35 0.010-0.079 0.068-0.151 0.053-0.232z"></path>
<path d="M4.533 7.772l-1.25 0.183c0.793 0 1.587 0.001 2.38 0-0.274-0.013-0.551-0.042-0.825-0.092-0.097-0.016-0.209-0.122-0.306-0.091z"></path>
<path d="M7.361 7.953c-0.566 0.003-1.131 0.003-1.697 0.003 0.021 0.001 0.041 0.003 0.062 0.003 0.765 0.022 1.531 0.003 2.298-0.002-0.223-0.016-0.451-0.006-0.663-0.006z"></path>
</svg>
