<!-- Generated by IcoMoon.io -->
<svg version="1.1" xmlns="http://www.w3.org/2000/svg" width="33" height="32" viewBox="0 0 33 32">
<title>dreamlands</title>
<path d="M12.557 14.676c0.213-0.297 0.518-0.533 0.772-0.793 0.355-0.36 0.753-0.634 1.198-0.876 0.097-0.053 0.18-0.139 0.278-0.185 0.086-0.040 0.189-0.049 0.278-0.087 0.299-0.127 0.609-0.202 0.925-0.282 0.222-0.057 0.469-0.113 0.696-0.12 0.205-0.006 0.349 0.066 0.546 0.095 0.257 0.040 0.492 0.072 0.74 0.145 0.281 0.082 0.593 0.132 0.852 0.266 0.109 0.057 0.206 0.137 0.315 0.19 0.081 0.039 0.177 0.047 0.252 0.097 0.104 0.070 0.187 0.186 0.294 0.261 0.138 0.098 0.263 0.203 0.375 0.33 0.186 0.214 0.252 0.474 0.357 0.735 0.109 0.268 0.168 0.531 0.212 0.817 0.014 0.091 0.048 0.151 0.079 0.233 0.037 0.101 0.038 0.211 0.078 0.31 0.073 0.18 0.153 0.354 0.215 0.541 0.025 0.073 0.040 0.145 0.058 0.22 0.019 0.071 0.072 0.133 0.091 0.19 0.022 0.070-0.005 0.137 0.007 0.205 0.014 0.076 0.051 0.126 0.058 0.205 0.038 0.428 0.025 0.922-0.052 1.337-0.092 0.498-0.686 0.796-1.017 1.12-0.278 0.271-0.621 0.434-0.905 0.69-0.149 0.134-0.309 0.212-0.475 0.318-0.278 0.175-0.545 0.405-0.853 0.48-0.462 0.112-0.952 0.127-1.44 0.108-0.364-0.013-0.691-0.262-1.041-0.349-0.102-0.026-0.195-0.019-0.3-0.036-0.094-0.016-0.174-0.061-0.264-0.085-0.096-0.026-0.176-0.016-0.268-0.061-0.11-0.055-0.206-0.125-0.319-0.176-0.269-0.122-0.519-0.306-0.787-0.439-0.129-0.064-0.173-0.135-0.273-0.228-0.107-0.099-0.261-0.143-0.38-0.225-0.184-0.125-0.257-0.338-0.357-0.531-0.136-0.263-0.207-0.59-0.264-0.881-0.102-0.509-0.398-0.953-0.375-1.488 0.010-0.23 0.098-0.475 0.146-0.701 0.037-0.166 0.048-0.335 0.082-0.501 0.017-0.087 0.068-0.169 0.030-0.257-0.087-0.006-0.189 0.186-0.217 0.259-0.060 0.145-0.045 0.309-0.092 0.462-0.031 0.099-0.042 0.187-0.066 0.284-0.099 0.411-0.041 0.902-0.041 1.333 0 0.283-0.029 0.582-0.002 0.864 0.025 0.277 0.119 0.566 0.175 0.839 0.089 0.437 0.159 0.888 0.412 1.266 0.087 0.13 0.252 0.293 0.38 0.382 0.307 0.212 0.653 0.298 0.981 0.459 0.133 0.067 0.258 0.122 0.395 0.177 0.161 0.067 0.287 0.192 0.443 0.259 0.115 0.050 0.202 0.068 0.309 0.147 0.134 0.099 0.268 0.186 0.417 0.264 0.475 0.253 0.974 0.253 1.502 0.24 0.381-0.010 0.719-0.138 1.080-0.237 0.422-0.116 0.809-0.279 1.221-0.426 0.242-0.087 0.51-0.164 0.729-0.299 0.305-0.187 0.685-0.329 0.932-0.583 0.192-0.199 0.452-0.317 0.609-0.559 0.134-0.207 0.272-0.426 0.331-0.668 0.056-0.226 0.076-0.457 0.134-0.683 0.032-0.127 0.052-0.25 0.071-0.379 0.050-0.319 0.143-0.649 0.156-0.971 0.015-0.322 0.036-0.637 0.047-0.956 0.004-0.106 0.037-0.192 0.047-0.294 0.012-0.11-0.015-0.212-0.030-0.323-0.027-0.216-0.052-0.434-0.066-0.652-0.030-0.433-0.201-0.922-0.37-1.322-0.104-0.243-0.281-0.541-0.453-0.741-0.076-0.088-0.16-0.165-0.233-0.254-0.103-0.124-0.177-0.267-0.278-0.391-0.384-0.475-0.876-0.825-1.457-1.017-0.194-0.063-0.39-0.139-0.586-0.185-0.166-0.039-0.328-0.029-0.497-0.029-0.515 0.002-1.032 0-1.547 0h-1.174c-0.273 0-0.567-0.034-0.834 0.029-0.191 0.045-0.475 0.086-0.654 0.179-0.166 0.088-0.3 0.227-0.473 0.312-0.17 0.083-0.35 0.15-0.495 0.275-0.139 0.12-0.264 0.268-0.395 0.398-0.185 0.184-0.4 0.38-0.524 0.614-0.104 0.199-0.156 0.397-0.237 0.605-0.063 0.16-0.098 0.331-0.168 0.49-0.060 0.14-0.115 0.284 0.101 0.292 0.067 0.002 0.144 0.010 0.21 0.001 0.093-0.010 0.156-0.076 0.23-0.098 0.078-0.026 0.148-0.022 0.227-0.057 0.057-0.026 0.118-0.078 0.185 0.099z"></path>
<path d="M17.773 10.205c-0.005 0.013-0.009 0.022-0.014 0.035-0.062-0.053-0.035-0.122-0.036-0.193-0.005-0.179-0.043-0.36-0.057-0.539-0.026-0.344-0.089-0.685-0.146-1.025-0.060-0.362-0.065-0.727-0.133-1.087-0.038-0.2-0.077-0.393-0.092-0.597-0.012-0.174-0.076-0.331-0.098-0.505-0.048-0.351-0.036-0.713-0.088-1.066-0.024-0.162-0.068-0.318-0.081-0.48-0.016-0.194-0.012-0.418-0.066-0.607-0.093-0.333-0.149-0.686-0.252-1.015-0.071-0.224-0.117-0.462-0.215-0.673-0.063 0.107-0.066 0.236-0.081 0.357-0.037 0.3-0.011 0.6-0.030 0.901-0.019 0.285-0.050 0.555-0.050 0.842 0.001 0.236 0.012 0.472-0.025 0.706-0.079 0.508-0.175 1.033-0.189 1.547-0.007 0.23-0.052 0.454-0.055 0.684-0.002 0.238 0.004 0.444-0.051 0.681-0.077 0.336-0.057 0.688-0.107 1.029-0.014 0.094-0.037 0.179-0.052 0.273-0.015 0.099-0.069 0.162-0.097 0.254-0.047 0.161-0.048 0.329-0.117 0.477-0.072 0.155-0.011 0.326-0.084 0.475 0.158-0.103 0.199-0.305 0.292-0.467 0.103-0.176 0.283-0.631 0.536-0.647 0.209-0.016 0.315 0.277 0.452 0.401 0.053 0.047 0.124 0.082 0.173 0.134 0.101 0.108 0.15 0.268 0.225 0.393 0.065 0.108 0.168 0.268 0.536-0.288z"></path>
<path d="M23.042 15.527c0.204-0.026 0.468 0.077 0.655 0.132 0.231 0.067 0.441 0.109 0.678 0.147 0.186 0.029 0.357 0.102 0.542 0.137 0.165 0.032 0.339 0.050 0.506 0.063 0.174 0.013 0.329 0.065 0.5 0.095 0.405 0.072 0.813 0.123 1.216 0.2 0.33 0.062 0.669 0.166 1.003 0.187 0.218 0.013 0.389 0.092 0.593 0.147 0.159 0.042 0.319 0.088 0.477 0.133 0.205 0.057 0.495-0.006 0.681 0.106-0.067 0.088-0.381 0.091-0.489 0.104-0.315 0.042-0.622 0.139-0.935 0.192-0.16 0.029-0.323-0.006-0.482 0.019-0.138 0.022-0.276 0.056-0.412 0.082-0.297 0.057-0.592 0.109-0.892 0.148-0.273 0.035-0.547 0.056-0.82 0.083-0.211 0.022-0.416 0.086-0.629 0.102-0.135 0.013-0.254 0.052-0.392 0.052-0.177 0-0.361 0.040-0.537 0.067-0.175 0.029-0.344 0.091-0.523 0.096-0.056 0.001-0.246 0.026-0.287-0.003-0.179-0.132 0.397-0.685 0.442-0.747 0.072-0.099 0.13-0.185 0.209-0.275 0.081-0.096 0.027-0.145-0.047-0.248-0.192-0.263-0.539-0.427-0.806-0.601-0.127-0.082-0.228-0.2-0.359-0.277-0.074-0.043-0.189-0.058 0.107-0.138z"></path>
<path d="M17.933 23.298c0.015 0.114 0.051 0.202 0.055 0.32 0.006 0.207-0.001 0.418-0.001 0.626 0 0.71 0.015 1.416-0.040 2.124-0.032 0.405-0.088 0.803-0.159 1.203-0.061 0.344-0.201 0.664-0.264 1.008-0.030 0.16-0.091 0.274-0.164 0.416-0.081 0.155-0.104 0.315-0.169 0.475-0.101 0.247-0.261 0.457-0.366 0.699-0.060 0.137-0.129 0.283-0.185 0.424-0.042 0.109-0.109 0.237-0.091 0.358 0-0.14-0.001-0.279 0.001-0.42 0.004-0.302-0.076-0.587-0.107-0.885-0.027-0.249-0.128-0.475-0.176-0.721-0.053-0.267-0.058-0.527-0.14-0.792-0.103-0.331-0.201-0.662-0.297-0.997-0.076-0.263-0.223-0.477-0.322-0.729-0.181-0.47-0.292-0.968-0.437-1.449-0.084-0.282-0.128-0.621-0.12-0.916 0.005-0.21 0.079-0.293 0.194-0.449 0.065-0.091 0.092-0.224 0.206-0.158 0.084 0.049 0.145 0.205 0.199 0.287 0.087 0.135 0.236 0.237 0.298 0.387 0.055 0.129 0.091 0.225 0.18 0.34 0.125-0.047 0.202-0.104 0.305-0.192 0.133-0.116 0.274-0.154 0.423-0.238 0.174-0.099 0.329-0.229 0.505-0.328 0.082-0.046 0.247-0.176 0.672-0.393z"></path>
<path d="M10.108 14.889c0.016 0.145-0.387 0.179-0.483 0.211-0.334 0.114-0.739 0.158-1.087 0.202-0.434 0.057-0.87 0.104-1.306 0.159-0.284 0.036-0.567 0.102-0.853 0.122-0.18 0.013-0.356 0.032-0.53 0.083-0.382 0.11-0.766 0.231-1.159 0.302-0.21 0.039-0.4 0.113-0.603 0.159-0.226 0.051-0.457 0.061-0.683 0.104-0.231 0.045-0.501 0.11-0.737 0.092 0.269 0.099 0.583 0.093 0.868 0.123 0.397 0.042 0.791 0.102 1.187 0.156 0.467 0.063 0.879 0.279 1.341 0.351 0.472 0.072 0.942 0.138 1.415 0.2 0.284 0.037 0.566-0.001 0.849 0.029 0.195 0.022 0.361 0.050 0.559 0.050 0.238 0 0.477 0 0.716 0 0.103 0 0.237 0.019 0.335-0.010-0.169-0.19-0.458-0.282-0.654-0.439-0.088-0.071-0.176-0.144-0.266-0.214-0.067-0.052-0.169-0.061-0.096-0.154 0.040-0.049 0.156-0.079 0.212-0.113 0.14-0.083 0.308-0.145 0.432-0.254 0.139-0.124 0.298-0.217 0.438-0.338 0.048-0.043 0.093-0.117 0.106-0.822z"></path>
<path d="M7.075 14.463c0-0.133 0.011-0.223 0.041-0.35 0.070-0.293-0.001-0.627 0.010-0.926 0.025-0.678 0.259-1.346 0.271-2.024 0.001-0.070 0.043-0.382-0.004-0.449-0.062-0.087-0.146-0.001-0.21 0.037-0.23 0.141-0.433 0.377-0.525 0.639-0.025 0.073-0.026 0.162-0.047 0.238-0.027 0.094-0.057 0.175-0.068 0.275-0.021 0.201-0.088 0.389-0.107 0.586-0.021 0.248-0.086 0.513-0.148 0.75-0.027 0.106 0.010 0.215-0.009 0.32-0.009 0.053-0.047 0.085-0.058 0.141-0.015 0.071 0.009 0.159 0.004 0.232-0.010 0.139-0.041 0.3-0.066 0.439-0.019 0.104-0.051 0.206-0.089 0.293 0.14 0.043 0.334 0.013 0.48 0.013 0.175 0 0.35 0 0.525-0.214z"></path>
<path d="M7.181 17.976c-0.269-0.047-0.16 0.536-0.16 0.681 0 0.458 0.029 0.933 0.16 1.378 0.067 0.227 0.151 0.471 0.266 0.678 0.048 0.084 0.102 0.187 0.16 0.266 0.042 0.058 0.12 0.089 0.11 0.174-0.076-0.148-0.176-0.261-0.272-0.397-0.063-0.091-0.127-0.149-0.202-0.226-0.062-0.063-0.063-0.124-0.109-0.196-0.067-0.102-0.154-0.17-0.209-0.283-0.041-0.086-0.083-0.168-0.13-0.251-0.113-0.2-0.232-0.423-0.282-0.649-0.047-0.224-0.088-0.467-0.124-0.694-0.031-0.187-0.036-0.37-0.057-0.556-0.017-0.149-0.115-0.201 0.076-0.246 0.19-0.043 0.418-0.056 0.773 0.321z"></path>
<path d="M18.891 26.172c0.246-0.002 0.426-0.125 0.659-0.216 0.286-0.109 0.581-0.272 0.829-0.449 0.145-0.104 0.266-0.205 0.423-0.293 0.133-0.074 0.218-0.16 0.324-0.266 0.084-0.086 0.175-0.164 0.241-0.264 0.052-0.079 0.072-0.18 0.134-0.251 0.006 0.088-0.027 0.158-0.042 0.242-0.036 0.19-0.041 0.348-0.12 0.529-0.109 0.25-0.235 0.403-0.427 0.597-0.196 0.197-0.422 0.348-0.639 0.519-0.148 0.116-0.317 0.191-0.472 0.299-0.123 0.084-0.312 0.179-0.459 0.195-0.068 0.006-0.143-0.006-0.212-0.003-0.060 0.002-0.124 0.051-0.165 0.051-0.217 0-0.127-0.585-0.073-0.689z"></path>
<path d="M14.686 26.119c-0.596 0-1.175 0.035-1.756-0.107-0.282-0.068-0.575-0.095-0.84-0.211-0.191-0.083-0.341-0.187-0.508-0.305-0.094 0.092 0.020 0.228 0.066 0.32 0.063 0.131 0.115 0.293 0.221 0.393 0.037 0.036 0.089 0.058 0.129 0.095 0.329 0.302 0.778 0.402 1.201 0.52 0.336 0.095 0.684 0.119 1.022 0.212 0.096 0.026 0.258 0.163 0.309 0.045 0.038-0.087-0.029-0.221 0.006-0.314 0.015-0.003 0.029-0.006 0.15-0.648z"></path>
<path d="M25.491 18.348c0 0.144-0.032 0.261-0.053 0.401-0.041 0.282-0.036 0.574-0.104 0.852-0.026 0.107-0.065 0.2-0.108 0.3-0.073 0.166-0.084 0.312-0.119 0.487-0.026 0.141-0.098 0.259-0.135 0.397-0.027 0.099-0.042 0.185-0.102 0.273 0.114 0.053 0.215-0.092 0.284-0.161 0.186-0.189 0.352-0.395 0.547-0.576 0.189-0.176 0.303-0.339 0.376-0.587 0.078-0.268 0.24-0.467 0.344-0.719 0.021-0.051 0.021-0.083 0.028-0.134 0.007-0.053 0.036-0.112 0.042-0.162 0.011-0.086-0.026-0.154-0.079-0.226-0.058-0.079-0.139-0.128-0.222-0.145-0.142-0.029-0.341-0.068-0.699 0z"></path>
<path d="M25.704 15.261c-0.015-0.002-0.030-0.006-0.045-0.010-0.027-0.089-0.006-0.2-0.012-0.293-0.021-0.283-0.031-0.568-0.053-0.85-0.020-0.243-0.098-0.472-0.106-0.719-0.009-0.299 0.001-0.601 0.004-0.9 0-0.103 0.014-0.214-0.005-0.314-0.010-0.053-0.050-0.112-0.052-0.164-0.005-0.087 0.019-0.117 0.108-0.109 0.132 0.010 0.192 0.177 0.268 0.266 0.096 0.112 0.189 0.208 0.267 0.335 0.171 0.273 0.175 0.632 0.217 0.942 0.045 0.323 0.133 0.641 0.156 0.966 0.015 0.187-0.262 1.153-0.747 0.849z"></path>
<path d="M17.933 7.171c0.247 0 0.499-0.019 0.744 0.013 0.211 0.029 0.39 0.043 0.585 0.131 0.225 0.101 0.427 0.195 0.636 0.328 0.227 0.144 0.418 0.336 0.645 0.477 0.093 0.057 0.361 0.2 0.459 0.164-0.041-0.122-0.127-0.236-0.2-0.339-0.177-0.25-0.38-0.495-0.633-0.67-0.217-0.15-0.434-0.284-0.685-0.367-0.231-0.077-0.477-0.112-0.704-0.193-0.153-0.055-0.299-0.063-0.453-0.112-0.093-0.029-0.158-0.081-0.261-0.071-0.283 0.029-0.276 0.494-0.133 0.642z"></path>
<path d="M15.378 6.372c0.002 0.112-0.040 0.179-0.056 0.285-0.026 0.177 0.047 0.385 0.006 0.559-0.050 0.208-0.58 0.185-0.753 0.227-0.225 0.055-0.392 0.153-0.578 0.285-0.123 0.087-0.238 0.162-0.346 0.267-0.091 0.087-0.218 0.132-0.302 0.221 0.041-0.086 0.122-0.142 0.179-0.216 0.094-0.123 0.176-0.267 0.252-0.402 0.124-0.22 0.316-0.421 0.493-0.601 0.18-0.184 0.34-0.351 0.564-0.48 0.079-0.046 0.139-0.114 0.215-0.159 0.123-0.070 0.271-0.041 0.328 0.013z"></path>
<path d="M20.381 16.006c0.035 0.116-0.096 0.133-0.164 0.189-0.062 0.050-0.106 0.125-0.169 0.175-0.065 0.050-0.134 0.067-0.2 0.113-0.129 0.088-0.213 0.166-0.362 0.23-0.132 0.056-0.22 0.081-0.361 0.091-0.175 0.013-0.329 0.056-0.51 0.055-0.225-0.001-0.453 0.029-0.668-0.051-0.236-0.087-0.457-0.138-0.675-0.267-0.235-0.138-0.484-0.196-0.722-0.319-0.303-0.156-0.564-0.328-0.905-0.37-0.187-0.022-0.393-0.016-0.575 0.035-0.17 0.049-0.326 0.128-0.501 0.16-0.428 0.082-0.734 0.278-1.040 0.586-0.282 0.284-0.577 0.572-0.792 0.914 0.307-0.205 0.686-0.379 1.043-0.487 0.124-0.037 0.232-0.114 0.362-0.139 0.125-0.022 0.259-0.032 0.386-0.050 0.196-0.029 0.398-0.013 0.597-0.013 0.194 0 0.387 0 0.582-0.001 0.24-0.002 0.475 0.058 0.708 0.114 0.204 0.049 0.398 0.147 0.606 0.196 0.17 0.040 0.283 0.11 0.433 0.171 0.304 0.125 0.636 0.214 0.963 0.211 0.226-0.001 0.606 0.079 0.794-0.051 0.185-0.129 0.261-0.374 0.411-0.547 0.093-0.107 0.187-0.221 0.282-0.32 0.057-0.060 0.142-0.237 0.478-0.624z"></path>
<path d="M17.507 4.297c0.151-0.026 0.299-0.082 0.449-0.112 0.273-0.053 0.462-0.052 0.734 0.019 0.16 0.041 0.312 0.082 0.463 0.147 0.11 0.046 0.194 0.122 0.294 0.186 0.196 0.127 0.436 0.216 0.643 0.315 0.070 0.034 0.142 0.036 0.216 0.062 0.191 0.066 0.36 0.047 0.555 0.087 0.324 0.064 0.655 0.038 0.987 0.042 0.243 0.001 0.438-0.081 0.664-0.162 0.102-0.036 0.177-0.092 0.264-0.159 0.057-0.043 0.256-0.137 0.259-0.205-0.055 0.016-0.084 0.039-0.148 0.046-0.13 0.016-0.252-0.002-0.382 0.026-0.261 0.056-0.54 0.029-0.796-0.026-0.279-0.058-0.585-0.179-0.848-0.288-0.101-0.041-0.189-0.082-0.294-0.109-0.228-0.058-0.43-0.181-0.659-0.233-0.201-0.045-0.398-0.107-0.591-0.156-0.169-0.045-0.385-0.013-0.561-0.013-0.213 0-0.39 0.003-0.597 0.067-0.247 0.073-0.499 0.16-0.75 0.21-0.004 0.013-0.006 0.029 0.097 0.256z"></path>
<path d="M15.271 4.19c-0.107-0.053-0.209-0.105-0.319-0.133-0.124-0.032-0.293-0.074-0.426-0.082-0.151-0.006-0.305 0.001-0.457 0.001-0.13 0-0.263-0.006-0.393 0.003-0.195 0.019-0.38 0.084-0.575 0.102-0.32 0.029-0.629 0.154-0.927 0.267-0.501 0.189-1.051 0.323-1.58 0.377-0.243 0.026-0.469 0.107-0.716 0.102-0.12-0.001-0.245 0.010-0.364 0.002-0.201-0.013-0.402-0.079-0.582-0.162-0.086-0.040-0.238-0.078-0.292-0.166 0.101 0.135 0.218 0.206 0.35 0.297 0.144 0.099 0.308 0.164 0.47 0.23 0.142 0.058 0.277 0.134 0.431 0.16 0.726 0.123 1.552 0.119 2.275-0.026 0.197-0.040 0.39-0.112 0.569-0.186 0.331-0.138 0.669-0.267 0.987-0.443 0.158-0.087 0.334-0.119 0.509-0.159 0.094-0.022 0.19-0.013 0.282-0.037 0.103-0.026 0.165-0.056 0.278-0.029 0.089 0.022 0.262 0.022 0.48-0.118z"></path>
<path d="M27.886 18.348c0.124 0.247 0.106 0.516 0.107 0.801 0.001 0.434-0.065 0.803-0.305 1.168-0.153 0.232-0.374 0.432-0.467 0.693-0.070 0.192-0.151 0.371-0.189 0.571-0.041 0.214 0.036 0.405 0.096 0.6 0.065 0.214 0.212 0.387 0.266 0.598 0.066 0.257 0.149 0.525 0.176 0.787 0.017 0.168 0.048 0.314 0.011 0.479-0.043 0.2-0.067 0.397-0.154 0.586 0.067-0.043 0.097-0.104 0.134-0.175 0.134-0.257 0.272-0.495 0.341-0.778 0.045-0.179 0.048-0.367 0.078-0.552s0.017-0.362-0.025-0.542c-0.128-0.538-0.5-1.058-0.23-1.6 0.12-0.242 0.294-0.444 0.386-0.704 0.101-0.281 0.222-0.568 0.256-0.87 0.010-0.084-0.009-0.175-0.004-0.262 0.006-0.11 0.053-0.159 0.015-0.267-0.057-0.166-0.145-0.294-0.493-0.531z"></path>
<path d="M27.514 15.208c0.032-0.239 0.148-0.48 0.212-0.716 0.079-0.289 0.159-0.591 0.161-0.89 0.001-0.195-0.020-0.366-0.108-0.545-0.052-0.105-0.132-0.191-0.186-0.298-0.056-0.11-0.13-0.195-0.189-0.302-0.065-0.119-0.073-0.257-0.13-0.38-0.12-0.264-0.169-0.523-0.227-0.806-0.067-0.324 0.077-0.604 0.2-0.894 0.077-0.18 0.149-0.359 0.227-0.534 0.030-0.067 0.104-0.211 0.189-0.22 0.046 0.16 0.010 0.357 0.037 0.524 0.028 0.177 0.027 0.346 0.067 0.52 0.052 0.23 0.123 0.432 0.246 0.627 0.106 0.17 0.24 0.308 0.287 0.507 0.045 0.181 0.066 0.336 0.066 0.531v0.586c0 0.228 0.032 0.479-0.010 0.703-0.026 0.133-0.087 0.256-0.122 0.387-0.048 0.187-0.163 0.341-0.245 0.514-0.050 0.104-0.097 0.212-0.156 0.314-0.037 0.066-0.076 0.153-0.119 0.215-0.032 0.047-0.081 0.042-0.2 0.156z"></path>
<path d="M2.976 14.835c0.336 0.045 0.477-0.4 0.587-0.64 0.23-0.503 0.226-0.987 0.154-1.516-0.027-0.194-0.106-0.4-0.155-0.587-0.042-0.155-0.128-0.315-0.156-0.477-0.029-0.165-0.041-0.447-0.001-0.614 0.020-0.082 0.077-0.144 0.106-0.222s0.010-0.149 0.086-0.206c-0.154-0.010-0.215 0.22-0.262 0.324-0.083 0.185-0.038 0.438-0.038 0.639 0 0.088 0.001 0.177 0 0.266-0.001 0.104 0.040 0.169 0.056 0.266 0.016 0.094 0.015 0.174 0.038 0.267 0.025 0.093 0.012 0.195 0.012 0.292 0 0.187 0.031 0.405-0.005 0.586-0.035 0.179-0.087 0.387-0.155 0.559-0.073 0.189-0.104 0.39-0.153 0.586-0.037 0.15-0.048 0.277-0.066 0.432-0.014 0.134-0.122 0.354-0.047 0.047z"></path>
<path d="M3.721 17.869c0.081-0.095 0.151-0.041 0.24 0 0.091 0.042 0.195 0.051 0.281 0.103 0.158 0.095 0.213 0.258 0.279 0.417 0.056 0.133 0.125 0.263 0.154 0.406 0.104 0.51-0.007 1.023-0.195 1.513-0.155 0.407-0.225 0.845-0.226 1.287 0 0.135 0.007 0.22 0.040 0.345 0.035 0.132 0.084 0.191 0.143 0.315 0.042 0.089 0.073 0.158 0.127 0.246 0.024 0.039 0.071 0.15 0.065 0.194-0.006-0.179-0.068-0.302-0.12-0.474-0.029-0.092-0.056-0.187-0.079-0.282-0.037-0.15-0.091-0.182-0.174-0.3-0.12-0.17-0.204-0.37-0.331-0.535-0.119-0.154-0.241-0.294-0.256-0.498-0.019-0.246-0.016-0.518-0.002-0.765s0.16-0.504 0.232-0.738c0.092-0.3 0.269-0.889 0.097-1.168 0.016-0.003 0.032-0.010-0.272-0.066z"></path>
<path d="M18.572 29.792c0.186 0 0.389 0.029 0.566-0.026 0.277-0.083 0.578-0.156 0.835-0.294 0.525-0.283 1.054-0.5 1.64-0.629 0.194-0.043 0.442-0.010 0.634-0.010 0.232-0.001 0.421 0.029 0.634 0.117 0.194 0.082 0.374 0.169 0.535 0.298 0.094 0.075 0.268 0.227 0.261 0.365-0.15-0.073-0.377-0.064-0.54-0.086-0.266-0.036-0.534-0.098-0.801-0.109-0.442-0.019-0.844 0.216-1.261 0.348-0.087 0.029-0.183 0.057-0.267 0.091-0.138 0.056-0.225 0.076-0.37 0.104-0.173 0.034-0.308 0.145-0.488 0.154-0.084 0.003-0.173-0.003-0.257-0.003-0.238 0-0.473 0.016-0.696-0.041-0.133-0.035-0.25-0.057-0.426-0.278z"></path>
<path d="M15.591 29.419c-0.104-0.102-0.236-0.133-0.361-0.171-0.149-0.047-0.264-0.095-0.437-0.094-0.067 0-0.14-0.013-0.206-0.006-0.136 0.013-0.252 0.092-0.385 0.116-0.081 0.013-0.133 0.003-0.216 0.034-0.143 0.047-0.283 0.106-0.431 0.138-0.288 0.061-0.585 0.037-0.878 0.037-0.313 0-0.614-0.013-0.918-0.092-0.253-0.065-0.504-0.144-0.735-0.267-0.109-0.060-0.284-0.13-0.361-0.232 0.114 0.145 0.351 0.22 0.501 0.324 0.197 0.139 0.385 0.297 0.566 0.456 0.091 0.079 0.196 0.094 0.308 0.129 0.122 0.039 0.226 0.106 0.354 0.138 0.23 0.056 0.468 0.095 0.699 0.133 0.104 0.016 0.195-0.036 0.294-0.052 0.076-0.013 0.15 0 0.228-0.002 0.067-0.002 0.108-0.029 0.168-0.043 0.195-0.046 0.392-0.058 0.583-0.118 0.134-0.042 0.259-0.064 0.38-0.148 0.076-0.052 0.117-0.088 0.212-0.119 0.109-0.035 0.21-0.029 0.315-0.050 0.098-0.022 0.16-0.058 0.319-0.109z"></path>
</svg>
