<!-- Generated by IcoMoon.io -->
<svg version="1.1" xmlns="http://www.w3.org/2000/svg" width="34" height="32" viewBox="0 0 34 32">
<title>duchess</title>
<path d="M7.718 27.506c0-0.007 0.001-0.014 0.001-0.022 0-0.261-0.211-0.472-0.472-0.472s-0.472 0.211-0.472 0.472c0 0.008 0 0.016 0.001 0.023l-0-0.001c-0 0.007-0.001 0.014-0.001 0.022 0 0.261 0.211 0.472 0.472 0.472s0.472-0.211 0.472-0.472c0-0.008-0-0.016-0.001-0.023l0 0.001z"></path>
<path d="M9.174 25.198c0-0.007 0.001-0.014 0.001-0.022 0-0.261-0.211-0.472-0.472-0.472s-0.472 0.211-0.472 0.472c0 0.008 0 0.016 0.001 0.023l-0-0.001c-0 0.007-0.001 0.014-0.001 0.022 0 0.261 0.211 0.472 0.472 0.472s0.472-0.211 0.472-0.472c0-0.008-0-0.016-0.001-0.023l0 0.001z"></path>
<path d="M5.148 26.256c0-0.261-0.211-0.472-0.472-0.472s-0.472 0.211-0.472 0.472v0c0 0.261 0.211 0.472 0.472 0.472s0.472-0.211 0.472-0.472v0z"></path>
<path d="M6.798 24.446c0-0.002 0-0.003 0-0.005 0-0.261-0.211-0.472-0.472-0.472s-0.472 0.211-0.472 0.472c0 0.002 0 0.004 0 0.006v-0c-0 0.002-0 0.003-0 0.005 0 0.261 0.211 0.472 0.472 0.472s0.472-0.211 0.472-0.472c0-0.002 0-0.004-0-0.006v0z"></path>
<path d="M16.615 24.761l1.518-1.52-7.954-7.954-1.52 1.518c-0.59 0.59-0.955 1.405-0.955 2.306s0.365 1.716 0.955 2.306l3.343 3.343c0.59 0.59 1.405 0.955 2.306 0.955s1.716-0.365 2.306-0.955v0z"></path>
<path d="M18.828 4.354l-8.335 10.581 7.993 7.992 10.58-8.333c0.217-0.172 0.355-0.435 0.355-0.731 0-0.257-0.104-0.489-0.273-0.658v0l-8.933-8.933c-0.168-0.168-0.4-0.272-0.657-0.272-0.295 0-0.558 0.138-0.728 0.352l-0.001 0.002z"></path>
</svg>
