<!-- Generated by IcoMoon.io -->
<svg version="1.1" xmlns="http://www.w3.org/2000/svg" width="32" height="32" viewBox="0 0 32 32">
<title>elder_sign1</title>
<path d="M12.044 1.5c-0.061-0.001-0.091 0.119-0.108 0.22-0.031 0.197 0.026 0.678 0.030 0.785-0.131-0.076-0.066-0.029-0.275-0.076-0.762 2.506-1.137 4.239-1.87 6.967 0.018 0.197-0.137 0.513 0.162 0.5l1.053 0.15c0.137 0.101 0.227 0.053 0.292-0.072 0.074-0.131 0.061-0.287 0.066-0.441 0.066-0.053 0.125-0.203 0.184-0.387 0.035-0.34 0.191-0.428 0.291-0.805 0.131-0.22 0.035-0.654 0.697-0.101 0.346 0.369 0.756 0.649 1.18 0.922-0.072-0.172-0.155-0.333-0.102-0.576-0.084-0.126-0.078-0.441 0.078-0.143 0.649 0.404 0.47 0.541 1.887 1.143-0.119-0.197-0.191-0.393-0.238-0.596 1.703 1.346 3.889 2.715 5.746 4.192 0.322-0.137 0.811-0.381 0.531-0.572-1.131-1.352-3.662-3.799-5.741-5.264-0.701-0.447-0.195-0.328 0.108-0.375-0.918-0.559-2.627-2.602-3.764-5.186-0.094-0.212-0.16-0.285-0.208-0.286zM1.161 7.4c-0.116 0.007-0.167 0.159 0.010 0.478 1.339 3.674 3.959 6.354 7.115 8.276 0.090-0.297 0.155-0.576 0.186-0.934 0.009-0.309-0.121-0.613-0.352-0.916-1.197-0.506-1.983-1.59-2.906-2.477 0.244 0.082 0.488 0.166 0.75 0.178 0.428 0.107 0.662 0.078 0.744-0.013-0.101-0.013-0.179-0.072-0.262-0.162-0.291-0.107-0.273-0.207 0.061-0.148 0.261 0.017 0.494 0.022 0.725 0.030 0.274-0.017 0.494 0.060 0.727 0.115 0.142 0.022 0.279 0.030 0.404 0 0.072-0.084 0.017-0.115-0.078-0.131-1.762-0.637-1.601-0.602-1.715-0.62-0.356-0.119-0.195-0.213 0.061-0.136 3.983 1.322 11.112 1.191 11.921 1.203l0-0.001c-0.316-0.483-0.793-1.143-1.627-1.049-3.281-0.369-10.581-0.619-15.542-3.573-0.067-0.072-0.139-0.113-0.199-0.119-0.008-0.001-0.016-0.001-0.024-0.001zM30.945 8.586c-0.691 0-2.168 0.791-4.526 1.213-0.095 0.026-0.197 0.043-0.119 0.162 0.054 0.107-0.013 0.119-0.084 0.125-1.197 0.268-2.375 0.447-3.543 0.566-0.066 0.043-0.047 0.066-0.191 0.066-0.113-0.004-0.16 0.043-0.035 0.191 0.030 0.026 0.076 0.043 0.142 0.054 0.054 0.047 0.054 0.084-0.053 0.096-0.166-0.026-0.327 0.008-0.494 0.066-0.15 0.030-0.303 0.060-0.619 0.043 0.009 0.084 0.053 0.107 0.089 0.131 0.287 0.453 0.625 0.416 0.959 0.434 0.131 0.004 0.262 0.013 0.34-0.072 0.344 0 0.691 0.053 1.037 0 0.191 0.155-0.28 0.553-0.436 0.84-0.178 0.107-0.316 0.274-0.387 0.524-0.732 0.809-1.5 1.406-2.262 2.006-1.375 1.185-2.656 2.418-3.739 3.746l-0.001-0.002c-0.578 0.559 0.327 1.108 0.881 0.375 1.162-1.197 2.948-2.477 4.907-3.877 3.186-2.143 5.735-4.399 8.134-6.686zM9.478 12.251c-0.107-0.001-0.186 0.003-0.222 0.009-0.601 4.334-1.471 8.444-0.982 12.88 0.119 0.537-0.035 0.613-0.125 0.107-0.162-0.279-0.305-1.066-0.405-1.16-0.125 3.274 1.78 7.032 2.846 7.913l0 0.001c0.030-0.488-0.256-1.406-0.416-2.156-0.125-0.405-0.113-0.744 0.232-0.178 0.191 0.363 0.512 0.768 0.613 0.797-0.076-3.918 2.627-6.985 4.157-8.962 0.262-0.191-1.424-0.965-1.75-1.506-0.125-0.184-0.155 0.043-0.352 0.054-0.566 0.828-1.512 1.715-1.816 2.399-0.078 0.168-0.471 0.524-0.495 0.625-0.089 0.15-0.207 0.168-0.291-0.017l-0.072-0.334c-0.125-0.412 0-0.441 0.078-0.309 0.131 0.226 0.178-0.004 0.203-0.090-0.578-3.381-0.619-7.372 0.047-9.855-0.366-0.165-0.93-0.213-1.249-0.216zM14.989 12.438c0.58 0.774 0.233 1.93-0.004 2.483-0.035 0.123-0.041 0.214-0.184 0.119-0.184-0.221-0.328-0.387-0.238-0.816-0.018-0.155-0.053-0.322-0.108-0.518-1.922 2.381 0.555 3.93 2.448 3.895 0.291-0.006 0.328-0.043 0.226-0.125l-0.002-0c-0.285-0.418-0.566-0.697-0.060-1.633 0.268-1.482-0.022-1.691-0.328-2.025-0.279-0.375-1.406-1.368-1.75-1.381zM18.526 12.751c-0.044 0-0.089 0.001-0.135 0.002l-0.017 0.328c-0.059-0.006-0.114-0.018-0.287 0.060-0.518-0.030-0.613-0.018-0.738 0.053-0.168 0.006-0.454 0.096-0.459 0.197-0.012 0.047 0.107 0.017 0.274 0.060 0.076 0.049 0.166 0.088 0.316 0.084 0.654 0.166 1.405 0.934 1.166 1.399-0.060 0.201-0.291 0.822-0.398 0.791-0.174 0.238-0.496 0.346-0.828 0.959l0.001-0.001c0.828-0.078 1.471-0.572 2.125-1.037 1.214-0.803 1.752-2.904-1.021-2.895zM13.669 13.182c-4.054 0.584-5.002 4.698 0.947 4.448 0.512-0.017 0.279-0.166-0.013-0.22-0.447 0.076-0.166-0.119-0.381-0.209-0.541-0.232-1.203-0.691-1.381-1-0.608-1.067 0.363-2.233 0.828-3.020zM23.781 15.381c-0.453 0.197-0.899 0.416-1.352 0.863l1.781 4.043c0.285 0.495 0.816 1.18-0.322 0.59-1.233-0.559-2.137-0.471-3.18-0.649 0.030 0.125 0.107 0.209 0.238 0.256-0.774-0.060-1.101-0.197-1.596-0.398-0.328-0.125-0.332-0.049-0.482-0.061l0.244 0.322c-2.887-0.66-5.479-1.84-8.075-2.893-0.113-0.030-0.291-0.131-0.275 0.131-0.191 0.34 0.043 0.322 0.174 0.547 1.203 1.030 12.165 6.587 20.008 7.974l0 0c-2.281-4.598-4.544-8.212-7.163-10.724z"></path>
</svg>
