<!-- Generated by IcoMoon.io -->
<svg version="1.1" xmlns="http://www.w3.org/2000/svg" width="32" height="32" viewBox="0 0 32 32">
<title>elder_things</title>
<path d="M6.982 10.939c0.033 0.067 0.050 0.143 0.084 0.21 0.041 0.086 0.060 0.181 0.1 0.263 0.048 0.093 0.098 0.153 0.162 0.198 0.010 0.067 0.014 0.064 0.098 0.069 0.017 0 0.033 0 0.050 0.002 0.010 0.002 0.017 0.005 0.026 0.009 0.131 0.038 0.272 0.041 0.408 0.031 0.129-0.007 0.205-0.093 0.315-0.15 0.074-0.041 0.086-0.038 0.146-0.105 0.026-0.028 0.055-0.057 0.081-0.088 0.093-0.055 0.186-0.11 0.289-0.172 0.256-0.15 0.432-0.287 0.635-0.487 0.045-0.048 0.093-0.119 0.165-0.134 0.124-0.024 0.153 0.136 0.198 0.244 0.055 0.127 0.131 0.244 0.179 0.363 0.031 0.081 0.055 0.184 0.074 0.268 0.014 0.074 0.041 0.153 0.053 0.227 0.007 0.045-0.009 0.091-0.005 0.134 0.009 0.088 0.060 0.15 0.079 0.234 0.024 0.103-0.005 0.205 0.012 0.308 0.014 0.103 0.028 0.201 0.045 0.303 0.053 0.296 0.122 0.63 0.236 0.9 0.050 0.117 0.036 0.194 0.057 0.313 0.024 0.139 0.076 0.232 0.074 0.377-0.002 0.215 0 0.43 0 0.645 0 0.344 0.031 0.702-0.062 1.037-0.053 0.186-0.053 0.377-0.086 0.564 0.012 0.007 0.022 0.012 0.033 0.017 0.033 0.012 0.067 0.026 0.098 0.038 0.074 0.031 0.146 0.062 0.217 0.098 0.031 0.017 0.050 0.045 0.060 0.079 0.162 0.053 0.334 0.069 0.494 0.136 0.098 0.043 0.181 0.098 0.244 0.191 0.045 0.067 0.064 0.15 0.069 0.234 0.234-0.002 0.485-0.017 0.724 0.014 0.208-0.081 0.435-0.072 0.626 0.069 0.213 0.158 0.346 0.396 0.444 0.647 0.002 0.007 0.002 0.014 0.002 0.022 0.007 0 0.014 0 0.019 0.002 0.191 0.072 0.387 0.060 0.595 0.067 0.017 0 0.033 0 0.050 0.002 0.086-0.024 0.174-0.031 0.265-0.014 0.060 0.012 0.115 0.038 0.167 0.072 0.057 0.017 0.115 0.036 0.172 0.064 0.031 0.017 0.050 0.045 0.060 0.079 0.088 0.017 0.174 0.024 0.256 0.009 0.022-0.012 0.048-0.017 0.072-0.017 0.017-0.007 0.031-0.017 0.055-0.031 0.007-0.005 0.009-0.005 0.009-0.005 0.012-0.009 0.022-0.022 0.033-0.033 0.012-0.014 0.002 0 0.017-0.024 0.009-0.014 0.019-0.028 0.026-0.045 0.019-0.033 0.038-0.072 0.055-0.107 0.048-0.11 0.084-0.227 0.117-0.344-0.017-0.067-0.036-0.131-0.064-0.193-0.036-0.076-0.022-0.167 0.053-0.213 0.028-0.019 0.067-0.024 0.103-0.017 0.002-0.026 0.009-0.053 0.014-0.079-0.038-0.028-0.064-0.074-0.064-0.124-0.002-0.32-0.033-0.647 0.084-0.953-0.002-0.019 0-0.038 0.005-0.058 0.028-0.093 0.060-0.189 0.088-0.282-0.031-0.026-0.053-0.064-0.053-0.117 0.002-0.425 0.093-0.843 0.272-1.223 0.028-0.062 0.103-0.086 0.162-0.069-0.002-0.074-0.007-0.146-0.017-0.22 0.012-0.002 0.024-0.005 0.033-0.014 0.048-0.041 0.076-0.16 0.105-0.205 0.038-0.064 0.067-0.105 0.093-0.174 0.019-0.053 0.024-0.076 0.055-0.127 0.031-0.045 0.069-0.081 0.1-0.124 0.031-0.041 0.088-0.15 0.139-0.174 0.067-0.031 0.194-0.002 0.267-0.005 0.064 0 0.146-0.022 0.186 0.041 0.028 0.041-0.002 0.127 0.012 0.177 0.055 0.012 0.107-0.009 0.16 0.012 0.041 0.017 0.105 0.079 0.139 0.112 0.038 0.043 0.081 0.098 0.115 0.146 0.019 0.024 0.033 0.050 0.050 0.079 0.026 0.002 0.050 0.012 0.074 0.024 0.060 0.060 0.060 0.131 0.091 0.203 0.050 0.117 0.107 0.143 0.186 0.215 0.007 0.096 0.022 0.189 0.055 0.268 0.069 0.15 0.174 0.279 0.265 0.418 0.045 0.069 0.064 0.117 0.072 0.198 0.007 0.057-0.002 0.129 0.002 0.198-0.026 0.033-0.053 0.067-0.079 0.1 0.058 0.16 0.103 0.322 0.148 0.487 0.022 0.086 0.048 0.172 0.072 0.258 0.031 0.002 0.062 0.014 0.086 0.041 0.053 0.055 0.058 0.158 0.002 0.215 0.038 0.098 0.081 0.196 0.134 0.289 0.022 0.014 0.043 0.031 0.055 0.055 0.081 0.181 0.103 0.368 0.098 0.566-0.002 0.086-0.007 0.174-0.002 0.26 0.002 0.067 0.009 0.122 0.024 0.181 0.050 0.033 0.074 0.105 0.062 0.17 0 0.002 0 0.002 0 0.005 0.1 0.143 0.201 0.289 0.277 0.449 0.009 0.019 0.014 0.038 0.017 0.060 0.096-0.024 0.191-0.050 0.282-0.086 0.007-0.002 0.014-0.007 0.022-0.009 0.002 0 0.005-0.002 0.009-0.005 0.014-0.007 0.031-0.014 0.045-0.024 0.033-0.017 0.064-0.038 0.096-0.060 0.007-0.007 0.014-0.014 0.022-0.022 0.014-0.012 0.026-0.026 0.041-0.043 0.005-0.005 0.009-0.012 0.017-0.019 0-0.002 0 0 0-0.002 0.012-0.019 0.024-0.036 0.033-0.055 0.041-0.074 0.127-0.093 0.198-0.058 0.007-0.024 0.019-0.043 0.033-0.058 0.007-0.062 0.050-0.119 0.107-0.134 0.208-0.053 0.413-0.043 0.621 0 0.031 0.007 0.053 0.026 0.069 0.048 0.117-0.103 0.248-0.184 0.396-0.222 0.079-0.022 0.153 0.024 0.179 0.1 0.007-0.005 0.019-0.007 0.028-0.009-0.014-0.024-0.026-0.050-0.022-0.074 0.012-0.103 0.036-0.201 0.096-0.287 0.055-0.076 0.124-0.139 0.205-0.184 0.079-0.043 0.162-0.072 0.246-0.098 0.177-0.303 0.332-0.623 0.518-0.919 0.024-0.038 0.058-0.060 0.091-0.067 0.007-0.024 0.014-0.048 0.019-0.072 0.009-0.043 0.033-0.072 0.067-0.091-0.019-0.081-0.036-0.162-0.048-0.244-0.031-0.229-0.002-0.487-0.002-0.719 0-0.165-0.002-0.327 0-0.492 0-0.139-0.036-0.263-0.043-0.399-0.009-0.115 0.005-0.232 0.002-0.346-0.005-0.251-0.067-0.494-0.086-0.743-0.017-0.198-0.026-0.439 0.050-0.626 0.107-0.253 0.289-0.468 0.423-0.707 0.031-0.057 0.081-0.112 0.105-0.174 0.009-0.026 0.005-0.064 0.017-0.088 0.024-0.057 0.084-0.086 0.119-0.134 0.112-0.15 0.193-0.332 0.351-0.442 0.112-0.076 0.353-0.060 0.485-0.043 0.103 0.012 0.165 0.11 0.253 0.17 0.067 0.045 0.129 0.069 0.203 0.107 0.064 0.031 0.16 0.093 0.222 0.112 0.067 0.022 0.105 0.009 0.167 0.041 0.057 0.031 0.093 0.086 0.155 0.103 0.069 0.019 0.179-0.002 0.253-0.002h0.769c0.076 0 0.236 0.031 0.308-0.009 0.107-0.060 0.165-0.184 0.186-0.296 0.050-0.275 0.041-0.566-0.019-0.841-0.041-0.196-0.136-0.396-0.191-0.583-0.022-0.076-0.024-0.155-0.055-0.232-0.031-0.074-0.074-0.139-0.11-0.21-0.143-0.272-0.296-0.502-0.492-0.733-0.084-0.103-0.239-0.239-0.356-0.294-0.081-0.036-0.184-0.019-0.272-0.019-0.148 0-0.275-0.019-0.396 0.055-0.134 0.086-0.196 0.258-0.256 0.408-0.029 0.072-0.062 0.127-0.088 0.198-0.033 0.079-0.012 0.143-0.031 0.222-0.014 0.069-0.043 0.091-0.043 0.174 0 0.091-0.012 0.184-0.060 0.265-0.107 0.174-0.256 0.174-0.432 0.174-0.236 0-0.451 0.045-0.688 0.045-0.227 0-0.466-0.048-0.664 0.079-0.196 0.122-0.38 0.265-0.547 0.442-0.058 0.064-0.115 0.129-0.172 0.194-0.064-0.019-0.131-0.036-0.184-0.060-0.107-0.048-0.248-0.177-0.337-0.256-0.186-0.165-0.344-0.375-0.521-0.552-0.086-0.088-0.213-0.203-0.327-0.258-0.079-0.036-0.107-0.043-0.177-0.105-0.067-0.062-0.174-0.093-0.234-0.155-0.122-0.122-0.201-0.353-0.279-0.509-0.067-0.127-0.112-0.272-0.141-0.411-0.036-0.162-0.098-0.315-0.122-0.482-0.009-0.069-0.002-0.141-0.019-0.208-0.009-0.038-0.050-0.096-0.062-0.141-0.048-0.177-0.096-0.318-0.096-0.506 0.002-0.205 0-0.411 0-0.619 0-0.475-0.002-0.953 0-1.431 0-0.165-0.036-0.248-0.084-0.406-0.022-0.064-0.038-0.129-0.050-0.196-0.009-0.050-0.033-0.088-0.076-0.112-0.014-0.031-0.081-0.224-0.084-0.224 0.005 0.248 0.002 0.497 0.002 0.743-0.002 0.406-0.131 0.781-0.126 1.187 0.005 0.167-0.045 0.322-0.043 0.492 0.002 0.239-0.036 0.463-0.043 0.7-0.007 0.296 0.002 0.597 0.002 0.896 0 0.294-0.084 0.69 0.058 0.97 0.053 0.103 0.141 0.172 0.227 0.244 0.122 0.1 0.222 0.208 0.318 0.337 0.127 0.17 0.277 0.32 0.396 0.494 0.181 0.268 0.42 0.523 0.559 0.822 0.033 0.074 0.053 0.11 0.115 0.167 0.081 0.074 0.115 0.143 0.179 0.234 0.062 0.088 0.155 0.193 0.246 0.251 0.017 0.007 0.033 0.014 0.048 0.024-0.058-0.060-0.098-0.115-0.081-0.141 0.058-0.022 0.143 0.093 0.222 0.201-0.048-0.019-0.096-0.038-0.141-0.060 0.038 0.038 0.084 0.076 0.127 0.115-0.131 0.244-0.244 0.499-0.327 0.767-0.060 0.194-0.081 0.394-0.155 0.583-0.076 0.198-0.162 0.396-0.215 0.604-0.012 0.050-0.022 0.105-0.031 0.16-0.017-0.043-0.036-0.088-0.041-0.131-0.014-0.119 0.002-0.253 0.005-0.373 0-0.131-0.012-0.232-0.033-0.358-0.022-0.119 0.022-0.265-0.007-0.38-0.045-0.177-0.103-0.37-0.162-0.556-0.026-0.079-0.053-0.143-0.088-0.22-0.074-0.16-0.105-0.341-0.205-0.487-0.134-0.198-0.349-0.282-0.535-0.423-0.122-0.091-0.279-0.165-0.38-0.277-0.215-0.241-0.392-0.502-0.58-0.762-0.045-0.064-0.105-0.093-0.16-0.15-0.086-0.096-0.167-0.222-0.277-0.296-0.064-0.045-0.064-0.036-0.091-0.115-0.048-0.131-0.033-0.263-0.033-0.406 0.002-0.42 0-0.843 0-1.263 0.002-0.22-0.031-0.418-0.038-0.635-0.005-0.129-0.043-0.253-0.045-0.382-0.005-0.136 0-0.272 0-0.408v-0.841c0-0.201 0-0.401 0.002-0.604 0.002-0.186-0.043-0.322-0.076-0.499-0.058-0.31-0.222-0.549-0.344-0.826-0.045-0.105-0.136-0.167-0.172-0.299-0.007 0.131 0.096 0.325 0.136 0.449 0.062 0.205 0.167 0.413 0.196 0.628 0.014 0.105 0.009 0.203 0.009 0.31-0.012 0.659 0.050 1.337-0.005 1.997-0.028 0.33-0.045 0.688-0.122 1.010-0.024 0.096-0.036 0.17-0.041 0.268-0.005 0.086-0.041 0.155-0.045 0.241-0.017 0.27-0.019 0.568 0.055 0.826 0.053 0.179 0.031 0.375 0.031 0.564 0 0.139 0.036 0.26 0.043 0.394 0.014 0.325 0.189 0.621 0.301 0.929 0.017 0.050 0.053 0.098 0.074 0.146 0.055 0.107 0.112 0.217 0.174 0.322 0.088 0.155 0.205 0.275 0.318 0.411 0.045 0.057 0.074 0.119 0.134 0.165 0.053 0.043 0.124 0.062 0.179 0.098 0.16 0.103 0.301 0.248 0.416 0.406 0.009 0.084 0.017 0.167 0.024 0.251 0.022 0.22 0 0.487-0.115 0.681-0.058 0.093-0.151 0.172-0.213 0.263-0.058 0.081-0.086 0.148-0.165 0.213-0.050 0.041-0.105 0.105-0.165 0.127-0.055 0.022-0.134 0.028-0.191 0.043 0 0 0 0-0.002 0-0.005-0.074-0.014-0.146-0.058-0.215-0.053-0.088-0.153-0.177-0.241-0.224-0.122-0.067-0.172-0.117-0.263-0.213-0.048-0.048-0.074-0.093-0.115-0.141-0.038-0.045-0.033-0.038-0.093-0.043-0.084-0.009-0.1-0.009-0.179-0.045-0.050-0.022-0.177-0.098-0.232-0.093-0.038 0.005-0.143 0.074-0.177 0.1-0.058 0.045-0.053 0.115-0.093 0.162-0.038 0.045-0.11 0.074-0.158 0.107-0.093 0.062-0.191 0.122-0.287 0.181 0.009-0.072 0.024-0.139 0.055-0.222 0.105-0.279 0.232-0.583 0.265-0.884 0.041-0.365 0.007-0.752 0.007-1.12 0-0.287-0.002-0.571 0-0.857 0.002-0.053 0.002-0.098-0.007-0.148-0.014-0.060-0.017-0.146-0.033-0.203-0.012-0.048-0.031-0.050-0.050-0.091-0.074-0.143-0.033-0.325-0.084-0.473-0.055-0.162-0.148-0.315-0.203-0.48-0.041-0.119-0.079-0.246-0.127-0.363-0.053-0.124-0.162-0.217-0.229-0.33-0.053-0.091-0.076-0.201-0.112-0.299-0.062-0.165-0.181-0.351-0.201-0.537-0.012-0.107 0.019-0.201-0.017-0.308-0.043-0.127-0.067-0.201-0.064-0.334 0.007-0.21-0.038-0.413-0.045-0.623-0.002-0.129 0.002-0.263 0.002-0.392 0-0.272 0.014-0.552-0.005-0.822-0.012-0.158-0.055-0.31-0.069-0.468-0.019-0.227 0.038-0.447 0.055-0.669 0.009-0.124 0.017-0.246 0.024-0.368 0.002-0.028-0.012-0.337-0.012-0.337-0.076 0.043-0.127 0.134-0.177 0.205-0.084 0.119-0.17 0.239-0.246 0.365-0.045 0.074-0.091 0.148-0.127 0.227-0.033 0.081-0.060 0.165-0.067 0.251-0.005 0.086 0.009 0.167 0.028 0.246l-0.127 0.031c-0.005 0.143 0.017 0.294 0.038 0.408 0.031 0.167 0.086 0.325 0.098 0.492 0.005 0.036 0.002 0.064 0 0.093-0.028 0.181-0.055 0.361-0.096 0.537-0.033 0.153-0.050 0.308-0.072 0.463-0.019 0.143-0.088 0.282-0.134 0.423-0.067 0.198-0.117 0.373-0.117 0.583-0.002 0.112-0.026 0.265 0.022 0.363 0.053 0.105 0.124 0.217 0.189 0.315 0.024 0.041 0.057 0.069 0.084 0.107 0.041 0.060 0.041 0.103 0.072 0.17 0.050 0.112 0.15 0.215 0.215 0.322 0.024 0.043 0.019 0.053 0.045 0.093 0.019 0.026 0.048 0.050 0.067 0.076 0.186 0.253 0.241 0.566 0.48 0.771 0.028 0.026 0.067 0.053 0.107 0.081 0.057 0.141 0.11 0.279 0.139 0.423 0.060 0.322-0.060 0.619-0.222 0.874-0.134 0.215-0.275 0.423-0.428 0.621-0.17 0.222-0.368 0.396-0.475 0.659-0.096 0.232-0.162 0.47-0.236 0.705-0.062 0.191-0.153 0.373-0.217 0.564-0.050 0.15-0.067 0.291-0.081 0.439-0.229-0.153-0.48-0.277-0.695-0.449-0.053-0.041-0.103-0.074-0.153-0.103 0-0.036 0.002-0.069 0.002-0.103 0-0.215-0.012-0.413 0.036-0.621 0.064-0.282 0.117-0.559 0.227-0.824 0.062-0.148 0.136-0.287 0.198-0.442 0.048-0.115 0.069-0.21 0.131-0.322 0.067-0.119 0.143-0.236 0.16-0.375 0.019-0.141 0.038-0.291 0.045-0.432 0.012-0.217-0.062-0.408-0.131-0.607-0.060-0.177-0.115-0.37-0.189-0.537 0.033 0.060 0.038 0.201 0.019 0.268-0.014 0.055-0.026 0.079-0.036 0.146-0.009 0.069-0.033 0.127-0.055 0.191-0.062 0.179-0.165 0.33-0.284 0.48-0.196 0.246-0.425 0.411-0.673 0.599-0.177 0.136-0.31 0.315-0.442 0.499-0.074-0.179-0.134-0.33-0.186-0.518-0.057-0.191-0.081-0.389-0.129-0.585-0.022-0.086-0.031-0.155-0.031-0.248 0.002-0.263-0.017-0.502 0.053-0.752 0.053-0.191 0.074-0.396 0.107-0.595 0.026-0.172 0.031-0.373 0.041-0.544 0.005-0.093-0.005-0.196 0.033-0.282 0.050-0.11 0.050-0.167 0.062-0.291 0.022-0.198 0.086-0.387 0.119-0.583 0.026-0.151 0.057-0.301 0.091-0.449 0.050-0.215 0.134-0.406 0.201-0.614 0.141-0.43 0.224-0.917 0.17-1.376-0.022-0.186-0.076-0.442-0.167-0.609-0.028-0.053-0.072-0.162-0.115-0.198-0.028 0.088-0.007 0.213-0.007 0.306-0.002 0.213 0 0.404-0.038 0.607-0.019 0.086 0.012 0.177-0.002 0.263-0.017 0.096-0.045 0.201-0.069 0.294-0.026 0.107-0.060 0.232-0.086 0.325-0.053 0.179-0.146 0.327-0.222 0.492-0.057 0.124-0.122 0.234-0.21 0.334-0.141 0.155-0.232 0.361-0.327 0.552-0.256 0.513-0.387 1.084-0.384 1.662 0.002 0.143 0 0.287 0 0.43 0 0.177-0.002 0.349 0.022 0.525 0.024 0.167 0.088 0.318 0.129 0.478 0.007 0.024 0.009 0.048 0.012 0.072-0.045-0.053-0.093-0.105-0.136-0.155-0.093-0.105-0.15-0.229-0.268-0.299-0.22-0.124-0.451-0.224-0.678-0.327-0.201-0.091-0.096-0.060-0.208-0.064-0.079-0.005-0.184-0.014-0.246 0.055-0.043 0.050-0.084 0.382-0.186 0.265l-0.014-0.043c-0.005-0.014-0.012-0.028-0.022-0.043-0.005-0.031-0.009-0.064-0.019-0.091-0.005-0.005-0.007-0.009-0.012-0.017-0.189 0.155-0.415 0.236-0.669 0.141-0.203-0.079-0.373-0.224-0.518-0.394-0.024-0.057-0.055-0.122-0.112-0.141 0 0-0.002 0-0.002 0-0.022-0.028-0.045-0.057-0.067-0.086h-0.055c-0.122 0-0.282-0.028-0.401-0.002-0.11 0.026-0.177 0.127-0.236 0.222-0.084 0.129-0.115 0.234-0.17 0.375-0.031 0.084-0.064 0.115-0.074 0.198-0.007 0.057 0.010 0.119 0.002 0.177-0.012 0.098-0.043 0.153-0.043 0.263 0 0.127 0 0.251 0 0.375s-0.007 0.251-0.002 0.375c0.002 0.091 0.038 0.112 0.076 0.186z"></path>
<path d="M17.506 19.042c-0.014 0.086-0.014 0.172-0.028 0.258-0.005 0.024-0.012 0.050-0.019 0.074-0.105 0.1-0.227 0.184-0.363 0.248-0.217 0.1-0.478 0.141-0.664-0.045-0.069-0.069-0.112-0.158-0.143-0.251-0.019-0.014-0.033-0.033-0.045-0.062-0.028-0.069-0.053-0.141-0.067-0.215-0.079-0.389-0.069-0.822 0.031-1.204s0.358-0.764 0.779-0.719c0.022 0.002 0.043 0.009 0.064 0.012 0.031 0.036 0.062 0.072 0.093 0.103 0.005 0.005 0.007 0.012 0.012 0.017 0.009 0.017 0.017 0.036 0.026 0.053 0.033 0.060 0.081 0.11 0.131 0.155 0.062 0.103 0.115 0.215 0.141 0.327 0.012 0.041 0.028 0.076 0.033 0.129 0.007 0.081 0.017 0.158 0.041 0.236 0.045 0.134 0.043 0.248 0.043 0.394 0 0.177-0.036 0.318-0.064 0.49zM29.505 13.586c-0.007-0.361-0.081-0.743 0.048-1.089 0.064-0.174 0.174-0.32 0.289-0.461-0.029-0.043 0-0.107 0.064-0.17 0.029-0.024 0.074-0.048 0.122-0.067 0.007-0.009 0.014-0.019 0.021-0.028-0.251 0-0.494-0.017-0.74 0.048-0.198 0.053-0.418 0.167-0.573 0.303-0.084 0.069-0.143 0.162-0.246 0.177-0.339 0.050-0.743-0.026-1.051-0.155-0.162-0.069-0.301-0.112-0.48-0.11-0.127 0.002-0.253-0.005-0.382 0.002-0.198 0.014-0.353 0.093-0.537 0.167-0.244 0.1-0.439 0.172-0.64 0.349-0.096 0.084-0.205 0.141-0.306 0.222-0.217 0.174-0.432 0.356-0.645 0.54-0.282 0.239-0.528 0.533-0.769 0.814-0.134 0.16-0.236 0.315-0.33 0.509-0.103 0.215-0.203 0.418-0.325 0.623-0.136 0.232-0.217 0.468-0.289 0.728-0.019 0.074-0.038 0.148-0.055 0.222 0.009 0.028 0.014 0.062 0.007 0.093 0 0 0 0 0 0 0 0.031-0.009 0.060-0.024 0.086-0.022 0.079-0.045 0.153-0.079 0.227-0.007 0.036-0.017 0.074-0.024 0.11-0.002-0.019-0.002-0.036-0.002-0.055-0.033 0.067-0.067 0.134-0.105 0.196-0.043 0.076-0.086 0.15-0.122 0.229-0.005 0.009-0.009 0.019-0.014 0.028 0 0.005-0.002 0.005-0.002 0.007-0.007 0.019-0.014 0.038-0.019 0.058-0.012 0.041-0.022 0.084-0.026 0.127-0.007 0.050-0.045 0.084-0.091 0.1-0.017 0.043-0.050 0.084-0.096 0.096-0.041 0.012-0.081 0.024-0.119 0.033-0.012 0.019-0.022 0.036-0.031 0.053-0.148 0.234-0.33 0.497-0.564 0.659 0.033 0.067 0.031 0.155-0.045 0.208-0.384 0.263-0.829 0.086-1.237-0.028-0.081 0.22-0.246 0.365-0.461 0.432-0.191 0.058-0.394 0.060-0.592 0.060-0.022 0-0.041-0.005-0.058-0.014-0.009 0.002-0.019 0.005-0.028 0.007-0.064 0.017-0.124-0.009-0.16-0.062-0.041-0.014-0.079-0.036-0.119-0.060-0.002-0.002-0.005-0.005-0.009-0.007-0.002 0-0.005 0-0.009-0.002 0 0-0.002 0-0.002 0s-0.002 0-0.005 0c-0.007 0.002-0.022 0.005-0.026 0.007s-0.017 0.007-0.026 0.009c-0.002 0.002-0.005 0.002-0.007 0.002-0.007 0.005-0.012 0.007-0.019 0.009-0.002 0-0.005 0.002-0.005 0.002-0.005 0.012-0.007 0.024-0.009 0.038-0.024 0.062-0.074 0.107-0.134 0.11-0.009-0.041-0.019-0.081-0.028-0.124-0.055-0.189-0.136-0.37-0.217-0.552 0.007-0.033 0.014-0.069 0.022-0.105 0.002-0.014 0.002-0.028 0.005-0.043 0-0.005 0.005-0.036 0.005-0.041 0.005-0.036 0.007-0.069 0.009-0.103 0.005-0.067 0.007-0.131 0.007-0.198 0-0.002 0.002-0.002 0.002-0.005-0.115-0.191-0.227-0.382-0.341-0.571-0.005-0.028-0.009-0.060-0.017-0.088-0.024-0.127-0.024-0.26-0.041-0.389 0.014-0.074 0.022-0.146 0.019-0.217-0.007 0.005-0.014 0.007-0.022 0.009-0.012 0.005-0.026 0.007-0.041 0.007-0.022-0.062-0.055-0.119-0.084-0.179-0.060-0.124-0.117-0.241-0.127-0.384-0.007-0.112 0.017-0.227-0.005-0.337-0.031-0.15-0.119-0.296-0.151-0.451-0.028-0.131-0.033-0.258-0.079-0.384-0.028-0.072-0.062-0.143-0.088-0.215-0.053-0.141-0.117-0.387-0.275-0.447-0.103-0.041-0.287-0.026-0.361 0.057-0.048 0.055-0.079 0.117-0.124 0.167-0.026 0.028-0.062 0.053-0.088 0.079-0.096 0.098-0.122 0.227-0.177 0.351-0.098 0.232-0.181 0.475-0.196 0.728-0.007 0.129-0.041 0.244-0.043 0.375-0.002 0.091-0.031 0.155-0.045 0.241-0.007 0.048 0.014 0.098 0.005 0.146-0.012 0.062-0.033 0.1-0.043 0.165-0.045 0.263-0.107 0.511-0.181 0.771-0.043 0.143-0.067 0.265-0.098 0.413-0.033 0.16-0.124 0.303-0.141 0.466-0.022 0.184 0 0.387 0 0.573 0 0.031 0 0.064-0.002 0.096-0.234 0.067-0.482 0.055-0.697-0.093-0.022-0.017-0.038-0.036-0.050-0.058-0.096-0.014-0.191-0.036-0.282-0.062-0.136-0.036-0.279-0.086-0.418-0.11-0.141 0.055-0.277 0.115-0.43 0.117-0.084 0.002-0.146-0.072-0.148-0.155 0-0.014 0.002-0.026 0.007-0.038-0.036-0.009-0.074-0.019-0.107-0.031-0.041-0.017-0.072-0.045-0.091-0.081-0.033 0.002-0.069-0.009-0.1-0.048-0.115-0.139-0.234-0.275-0.37-0.392-0.079-0.069-0.194-0.136-0.282-0.165-0.048-0.014-0.096-0.024-0.146-0.031-0.038 0.017-0.079 0.017-0.115 0.002-0.028 0.033-0.069 0.058-0.112 0.058-0.21 0-0.418-0.005-0.626-0.050-0.064-0.012-0.1-0.076-0.105-0.141-0.050-0.024-0.091-0.079-0.086-0.139 0-0.014 0.007-0.062 0-0.081 0.002 0.009 0.005 0.024 0 0.007 0-0.005-0.002-0.009-0.002-0.014-0.002-0.007-0.005-0.017-0.007-0.026 0 0 0 0-0.002 0-0.002-0.007-0.009-0.017-0.012-0.024-0.002 0-0.002 0-0.002-0.002-0.007-0.005-0.014-0.012-0.019-0.019-0.007-0.005-0.012-0.009-0.019-0.012-0.017-0.009-0.031-0.019-0.048-0.028v0c-0.002 0 0 0-0.002 0-0.007-0.002-0.017-0.005-0.024-0.009-0.022-0.007-0.041-0.012-0.060-0.019-0.081-0.024-0.167-0.041-0.251-0.060-0.179-0.043-0.368-0.107-0.497-0.251-0.060-0.024-0.117-0.045-0.174-0.074-0.146-0.067-0.282-0.162-0.384-0.291-0.045-0.055-0.053-0.124-0.019-0.184-0.060-0.084-0.117-0.167-0.17-0.253-0.093-0.15-0.124-0.315-0.205-0.47-0.033-0.069-0.084-0.122-0.15-0.155-0.050-0.014-0.1-0.019-0.153-0.014-0.072-0.060-0.134-0.127-0.186-0.201-0.096-0.103-0.184-0.21-0.265-0.325-0.158-0.22-0.236-0.48-0.353-0.726-0.103-0.213-0.172-0.365-0.344-0.523-0.177-0.148-0.349-0.303-0.516-0.463-0.067-0.076-0.122-0.162-0.167-0.256-0.198-0.284-0.485-0.351-0.8-0.384-0.425-0.043-0.822-0.007-1.247 0.012-0.203 0.009-0.439 0.053-0.638 0.098-0.141 0.033-0.318 0.096-0.449 0.158-0.124 0.060-0.191 0.146-0.337 0.148-0.217 0.002-0.368-0.134-0.554-0.22-0.096-0.043-0.184-0.084-0.277-0.134-0.127-0.069-0.251-0.141-0.363-0.224-0.060-0.045-0.136-0.081-0.146 0 0.010 0.053 0.055 0.069 0.084 0.11 0.038 0.053 0.024 0.081 0.048 0.143 0.028 0.067 0.122 0.124 0.162 0.186 0.050 0.074 0.064 0.16 0.081 0.244 0.017 0.067 0.038 0.124 0.045 0.194 0.007 0.105-0.036 0.191-0.045 0.291-0.007 0.081 0.010 0.165 0.002 0.244-0.007 0.072-0.038 0.129-0.045 0.201-0.017 0.165 0.022 0.339 0.002 0.504-0.007 0.074-0.036 0.086-0.064 0.15-0.031 0.067-0.007 0.134-0.028 0.201-0.017 0.057-0.067 0.105-0.1 0.153-0.043 0.062-0.045 0.112-0.076 0.179-0.050 0.105-0.141 0.184-0.1 0.315 0.105-0.072 0.174-0.208 0.265-0.294 0.058-0.055 0.098-0.11 0.17-0.141 0.088-0.036 0.189-0.033 0.27-0.088 0.072-0.048 0.11-0.136 0.189-0.167 0.048-0.017 0.084-0.022 0.129-0.041 0.181-0.079 0.337-0.217 0.497-0.33 0.11-0.076 0.184-0.172 0.253-0.291 0.088-0.155 0.22-0.239 0.377-0.334 0.103-0.062 0.198-0.067 0.31-0.103 0.072-0.022 0.103-0.048 0.167-0.081 0.131-0.067 0.251-0.055 0.399-0.055 0.181 0 0.353-0.007 0.523 0.033 0.062 0.017 0.115 0.002 0.177 0.009 0.091 0.009 0.179 0.062 0.27 0.086 0.124 0.036 0.294 0.139 0.392 0.234 0.045 0.043 0.062 0.1 0.081 0.16 0.045 0.162 0.115 0.334 0.129 0.506 0.007 0.107-0.010 0.213 0.005 0.325 0.014 0.11 0.060 0.21 0.076 0.318 0.022 0.129-0.010 0.275-0.005 0.406 0.007 0.282 0.141 0.552 0.215 0.817 0.055 0.203 0.064 0.416 0.158 0.607 0.031 0.064 0.062 0.127 0.081 0.196 0.050 0.191 0.084 0.382 0.155 0.566 0.055 0.136 0.086 0.282 0.155 0.408 0.048 0.084 0.112 0.151 0.155 0.241 0.036 0.079 0.067 0.167 0.117 0.244 0.086 0.127 0.196 0.229 0.263 0.37 0.043 0.088 0.057 0.179 0.091 0.27 0.055 0.141 0.155 0.256 0.222 0.389 0.081 0.158 0.136 0.334 0.265 0.456 0.146 0.139 0.356 0.196 0.513 0.32 0.064 0.055 0.117 0.11 0.184 0.158 0.112 0.079 0.229 0.124 0.358 0.172 0.208 0.079 0.401 0.067 0.621 0.064 0.014 0 0.031 0 0.048 0.005 0.091 0.167 0.16 0.351 0.201 0.535 0.064 0.287 0.088 0.587 0.091 0.879 0 0.155-0.028 0.313-0.124 0.435-0.098 0.127-0.236 0.203-0.344 0.315-0.103 0.105-0.208 0.203-0.315 0.296-0.124 0.107-0.263 0.234-0.38 0.353-0.055 0.060-0.088 0.129-0.141 0.189-0.076 0.091-0.167 0.151-0.215 0.263-0.038 0.088-0.045 0.184-0.088 0.27-0.053 0.105-0.139 0.193-0.184 0.301-0.064 0.158-0.124 0.351-0.165 0.518s-0.009 0.382-0.009 0.552c0 0.244 0.005 0.43 0.096 0.652 0.072 0.181 0.194 0.318 0.301 0.48 0.060 0.093 0.086 0.155 0.179 0.215 0.045 0.031 0.091 0.050 0.134 0.081 0.246 0.191 0.215 0.435 0.21 0.714 0.007-0.045 0.026-0.086 0.033-0.136 0.012-0.086 0.009-0.153 0.026-0.241 0.050-0.234 0.069-0.442 0.067-0.678-0.002-0.22-0.041-0.451-0.084-0.666-0.038-0.177-0.086-0.346-0.086-0.53 0.002-0.129-0.014-0.265 0-0.394 0.017-0.172 0.105-0.201 0.22-0.284 0.060-0.041 0.096-0.112 0.158-0.148 0.053-0.033 0.124-0.055 0.177-0.086 0.134-0.076 0.318-0.134 0.415-0.263-0.002 0.060-0.017 0.1-0.033 0.155-0.026 0.079-0.055 0.155-0.088 0.232-0.031 0.055-0.060 0.11-0.088 0.165-0.026 0.117-0.022 0.239-0.048 0.361-0.028 0.127-0.043 0.234-0.041 0.363 0.005 0.313 0.081 0.585 0.198 0.872 0.050 0.122 0.129 0.232 0.177 0.349 0.053 0.127 0.107 0.26 0.165 0.382 0.093 0.198 0.203 0.382 0.213 0.607 0.007 0.136 0.041 0.384-0.048 0.497 0.043-0.093 0.17-0.16 0.241-0.229 0.062-0.064 0.105-0.115 0.141-0.196 0.033-0.074 0.084-0.139 0.107-0.217 0.036-0.127 0.017-0.265 0.017-0.396 0.002-0.177-0.043-0.275-0.115-0.435-0.060-0.131-0.158-0.244-0.208-0.37-0.060-0.155-0.198-0.399-0.179-0.566 0.007-0.069-0.007-0.072 0.062-0.088 0.107-0.024 0.105 0.012 0.217-0.050 0.096-0.055 0.174-0.076 0.251-0.148 0.093-0.084 0.191-0.172 0.284-0.26 0.301-0.277 0.556-0.602 0.79-0.943 0.067-0.1 0.162-0.186 0.236-0.284 0.057-0.005 0.117-0.009 0.177-0.017 0.217-0.024 0.43-0.064 0.585-0.224-0.005 0.024-0.012 0.048-0.017 0.064-0.028 0.072-0.084 0.143-0.124 0.208-0.076 0.119-0.134 0.267-0.213 0.382-0.062 0.091-0.143 0.167-0.205 0.256-0.096 0.134-0.17 0.265-0.253 0.404-0.143 0.227-0.258 0.456-0.282 0.738-0.022 0.222 0.043 0.396 0.124 0.607 0.129 0.332 0.256 0.673 0.294 1.034 0.017 0.167 0.031 0.454-0.038 0.602-0.055 0.119-0.153 0.263-0.229 0.361-0.031 0.041-0.088 0.074-0.107 0.122 0.050-0.019 0.079-0.053 0.119-0.086 0.122-0.098 0.251-0.179 0.382-0.26 0.079-0.048 0.153-0.107 0.227-0.165 0.158-0.124 0.246-0.301 0.279-0.494 0.028-0.155 0.084-0.306 0.11-0.461 0.028-0.158 0.022-0.32 0.057-0.48 0.057-0.241 0.041-0.499 0.117-0.728 0.043-0.129 0.060-0.27 0.103-0.394 0.086-0.244 0.318-0.358 0.478-0.549 0.096-0.115 0.181-0.246 0.258-0.375 0.048-0.086 0.107-0.134 0.148-0.22 0.043-0.098 0.105-0.177 0.131-0.272 0.002 0 0.002 0 0.002 0 0.017 0.009 0.033 0.022 0.050 0.033-0.022 0.17-0.045 0.339-0.086 0.511-0.050 0.222-0.072 0.442-0.155 0.657-0.041 0.105-0.060 0.198-0.079 0.308-0.043 0.232-0.11 0.456-0.134 0.693-0.024 0.251-0.009 0.451 0.079 0.685 0.067 0.174 0.143 0.334 0.229 0.502 0.086 0.165 0.177 0.361 0.222 0.544 0.033 0.141-0.060 0.466 0.036 0.568 0.191-0.32 0.322-0.619 0.227-0.993-0.069-0.272-0.21-0.552-0.215-0.836-0.005-0.301-0.022-0.573 0.112-0.85 0.189-0.392 0.437-0.728 0.59-1.142 0.103-0.282 0.146-0.542 0.165-0.819 0.074 0.165 0.134 0.339 0.222 0.49 0.081 0.136 0.115 0.275 0.22 0.396 0.055 0.062 0.124 0.127 0.181 0.184 0.026 0.026 0.050 0.055 0.076 0.084 0.009 0.072 0.019 0.143 0.033 0.213 0.019 0.088 0.024 0.186 0.041 0.277 0.019 0.091 0.067 0.177 0.086 0.27 0.038 0.162 0.055 0.339 0.091 0.509-0.007 0.107-0.012 0.22-0.058 0.313-0.038 0.084-0.1 0.148-0.131 0.234-0.019 0.055-0.014 0.117-0.045 0.179-0.079 0.162-0.167 0.263-0.272 0.396-0.136 0.172-0.296 0.473-0.256 0.693 0.014 0.069 0.067 0.17 0.105 0.239 0.050 0.086 0.141 0.184 0.148 0.294 0.058-0.012 0.067-0.258 0.079-0.322 0.031-0.179 0.172-0.327 0.256-0.478 0.069-0.129 0.153-0.265 0.248-0.375 0.165-0.189 0.239-0.334 0.308-0.585 0.048-0.177 0.096-0.396 0.105-0.583 0.009-0.189 0.031-0.454-0.019-0.638-0.026-0.088-0.067-0.181-0.098-0.267-0.036-0.096-0.107-0.181-0.129-0.282-0.002-0.014-0.005-0.026-0.007-0.041v-0.356c0-0.041 0-0.081 0.002-0.122 0.067 0.017 0.098 0.1 0.153 0.174 0.072 0.096 0.151 0.191 0.224 0.287 0.064 0.079 0.134 0.141 0.22 0.196 0.076 0.048 0.146 0.055 0.236 0.086 0.11 0.041 0.205 0.115 0.303 0.179 0.067 0.043 0.179 0.119 0.232 0.184 0.028 0.036 0.022 0.103 0.048 0.139 0.028 0.041 0.081 0.055 0.105 0.096 0.053 0.093 0.024 0.248 0.024 0.349 0 0.124 0.019 0.27-0.007 0.392-0.014 0.064-0.055 0.122-0.074 0.184-0.022 0.079-0.022 0.165-0.043 0.246-0.033 0.122-0.084 0.205-0.086 0.33-0.002 0.129 0 0.26 0 0.389 0 0.117-0.012 0.203 0.050 0.306 0.043 0.072 0.16 0.148 0.194 0.217 0.031 0.060-0.005 0.105 0.053 0.155 0.036 0.028 0.105 0.033 0.146 0.055 0.043 0.024 0.088 0.064 0.129 0.096-0.098-0.103-0.148-0.306-0.155-0.444-0.007-0.179-0.012-0.349 0.050-0.516 0.060-0.167 0.146-0.341 0.22-0.506 0.064-0.146 0.148-0.289 0.215-0.432 0.045-0.098 0.115-0.16 0.167-0.248 0.050-0.086 0.069-0.208 0.105-0.301 0.038-0.098 0.081-0.181 0.086-0.291 0.005-0.148-0.005-0.299-0.005-0.447 0-0.191 0.041-0.442 0-0.628-0.050-0.222-0.181-0.351-0.294-0.535-0.091-0.148-0.198-0.301-0.272-0.458-0.031-0.067-0.058-0.129-0.084-0.189 0.033 0.053 0.067 0.103 0.1 0.155 0.205 0.303 0.468 0.561 0.69 0.853 0.086 0.115 0.165 0.258 0.272 0.353 0.064 0.060 0.136 0.079 0.139 0.184 0.103 0.002 0.215 0.181 0.287 0.251s0.117 0.153 0.177 0.229c0.086 0.112 0.074 0.205 0.074 0.344 0 0.215 0.002 0.418-0.043 0.63-0.024 0.117-0.017 0.246-0.043 0.358-0.012 0.053-0.038 0.093-0.060 0.141-0.036 0.084-0.045 0.17-0.076 0.253-0.043 0.127-0.117 0.256-0.177 0.377-0.058 0.119-0.1 0.213-0.009 0.32 0.079 0.096 0.162 0.174 0.277 0.215 0.036-0.146-0.005-0.241 0.076-0.38 0.107-0.177 0.284-0.322 0.401-0.499 0.055-0.084 0.107-0.134 0.174-0.208 0.139-0.15 0.172-0.425 0.234-0.621 0.1-0.322 0.21-0.604 0.208-0.953-0.002-0.127 0-0.253 0-0.38-0.002-0.141-0.053-0.26-0.076-0.396-0.045-0.246-0.162-0.428-0.27-0.64-0.074-0.146-0.115-0.272-0.203-0.411-0.088-0.136-0.208-0.26-0.253-0.413-0.028-0.1-0.069-0.174-0.11-0.267-0.028-0.072-0.024-0.193-0.084-0.239 0.363-0.033 0.719 0.272 0.941 0.542 0.143 0.177 0.294 0.315 0.389 0.523 0.024 0.053 0.060 0.11 0.086 0.162 0.062 0.143 0.041 0.31 0.038 0.466 0 0.193 0.026 0.404 0.007 0.597-0.017 0.136-0.119 0.251-0.16 0.38-0.041 0.131-0.064 0.265-0.119 0.392-0.031 0.076-0.088 0.167-0.105 0.246-0.033 0.143 0.038 0.227 0.098 0.344 0.031 0.067 0.060 0.16 0.103 0.22 0.028-0.036 0.007-0.105 0.007-0.148 0-0.115 0.014-0.215 0.048-0.322 0.043-0.136 0.105-0.251 0.196-0.358 0.158-0.191 0.439-0.306 0.556-0.525 0.055-0.105 0.134-0.208 0.181-0.31 0.076-0.165 0.107-0.37 0.153-0.544 0.050-0.186 0.062-0.375 0.017-0.568-0.048-0.198-0.112-0.432-0.215-0.604-0.232-0.394-0.533-0.731-0.865-1.032-0.21-0.191-0.37-0.408-0.566-0.609-0.124-0.129-0.143-0.201-0.201-0.382-0.002-0.007-0.005-0.014-0.007-0.022 0.184-0.112 0.353-0.248 0.478-0.435 0.153-0.229 0.155-0.542 0.432-0.635 0.129-0.045 0.239-0.105 0.358-0.174 0.1-0.058 0.213-0.1 0.299-0.181 0.069-0.067 0.076-0.107 0.122-0.184 0.033-0.060 0.081-0.088 0.096-0.167 0.029-0.148 0.043-0.181 0.155-0.313 0.036-0.041 0.064-0.058 0.105-0.086 0.069-0.050 0.064-0.053 0.127-0.134 0.057-0.081 0.151-0.165 0.229-0.213 0.036-0.022 0.179-0.058 0.184-0.091-0.048-0.062-0.122-0.064-0.191-0.081-0.021-0.007-0.048-0.009-0.072-0.012 0.1-0.012 0.208-0.064 0.265-0.115 0.093-0.084 0.086-0.172 0.084-0.289 0-0.038-0.009-0.093-0.002-0.131 0.012-0.062 0.057-0.098 0.086-0.153 0.084-0.167 0.129-0.375 0.193-0.554 0.129-0.368 0.289-0.75 0.341-1.144 0.026-0.205-0.005-0.411 0.007-0.614 0.005-0.079 0.033-0.146 0.045-0.22 0.024-0.148 0.026-0.308 0.036-0.458 0.009-0.136-0.007-0.272 0.005-0.408 0.019-0.172 0.079-0.351 0.124-0.518 0.050-0.174 0.107-0.38 0.229-0.511 0.036-0.038 0.069-0.074 0.11-0.105 0.081-0.064 0.117-0.107 0.179-0.201 0.045-0.069 0.096-0.124 0.155-0.179 0.055-0.050 0.103-0.124 0.158-0.167 0.069-0.055 0.189-0.053 0.267-0.096 0.131-0.072 0.236-0.165 0.384-0.203 0.205-0.053 0.401 0.067 0.607 0.069 0.060 0 0.134-0.017 0.191-0.007 0.093 0.019 0.193 0.148 0.272 0.215 0.093 0.076 0.165 0.191 0.239 0.289 0.129 0.162 0.272 0.327 0.384 0.499 0.155 0.236 0.418 0.406 0.621 0.602 0.064 0.062 0.139 0.143 0.217 0.184 0.086 0.043 0.203 0.043 0.299 0.057 0.119 0.019 0.241 0.019 0.363 0.017-0.134-0.131-0.241-0.287-0.315-0.468-0.1-0.258-0.11-0.533-0.079-0.805z"></path>
<path d="M2.433 13.626c0.002-0.112-0.043-0.174-0.043-0.289 0.002-0.208 0.058-0.499-0.062-0.666-0.093-0.131-0.129-0.289-0.313-0.287-0.041 0.048-0.162 0.060-0.253 0.167-0.067 0.076-0.096 0.215-0.122 0.315-0.036 0.139-0.1 0.282-0.124 0.42-0.007 0.053 0 0.103-0.012 0.153-0.024 0.105-0.072 0.191-0.076 0.306-0.010 0.198 0.002 0.401 0.002 0.599 0 0.055-0.014 0.127-0.002 0.179 0.010 0.036 0.033 0.057 0.041 0.088 0.022 0.1-0.005 0.189 0.045 0.287 0.079 0.153 0.284 0.382 0.461 0.272 0.081-0.050 0.174-0.143 0.22-0.229 0.041-0.079 0.041-0.167 0.072-0.244 0.081-0.191 0.158-0.435 0.167-0.65 0.007-0.141-0.002-0.282 0-0.423z"></path>
<path d="M30.975 13.107c-0.029-0.105-0.093-0.201-0.11-0.308-0.009-0.057-0.012-0.093-0.029-0.15-0.033-0.107-0.055-0.196-0.115-0.287-0.069-0.105-0.122-0.232-0.189-0.332-0.014-0.024-0.1-0.107-0.158-0.098-0.002 0.012-0.007 0.022-0.009 0.033-0.031-0.014-0.062-0.026-0.091-0.031-0.041 0.050-0.081 0.1-0.124 0.15 0.005 0.031 0.007 0.060 0.007 0.079-0.007 0.091-0.029 0.21-0.053 0.299-0.048 0.181-0.117 0.353-0.148 0.54-0.012 0.062-0.007 0.122 0.005 0.174-0.012 0.041-0.026 0.081-0.036 0.122-0.048 0.184-0.081 0.377-0.076 0.568 0.012 0.017 0.026 0.033 0.036 0.057 0.033 0.072 0.041 0.148 0.081 0.222 0.050 0.093 0.098 0.196 0.155 0.284 0.038 0.057 0.084 0.155 0.129 0.205 0.036 0.041 0.098 0.043 0.134 0.081 0.017 0.019 0.019 0.050 0.031 0.072 0.012 0.007 0.024 0.014 0.036 0.024 0.029-0.002 0.057-0.045 0.079-0.060 0.086-0.057 0.158-0.079 0.22-0.165 0.308-0.404 0.361-0.984 0.224-1.481z"></path>
</svg>
