<!-- Generated by IcoMoon.io -->
<svg version="1.1" xmlns="http://www.w3.org/2000/svg" width="33" height="32" viewBox="0 0 33 32">
<title>electric_nightmare</title>
<path d="M24.417 30.795c-0.188-0.287-0.643-0.683-1.264-1.097-1.372-0.916-2.304-1.763-4.102-3.727-0.534-0.584-1.195-1.232-1.469-1.44s-0.666-0.577-0.873-0.818l-0.376-0.439 0.333-0.285c0.183-0.157 0.459-0.377 0.613-0.489s0.408-0.355 0.563-0.541c0.773-0.924 1.198-1.446 1.391-1.708 0.117-0.158 0.39-0.471 0.606-0.696s0.518-0.565 0.671-0.756c0.153-0.191 0.506-0.574 0.783-0.85s0.677-0.72 0.887-0.986c0.352-0.445 0.405-0.483 0.684-0.483 0.166 0 0.417-0.054 0.556-0.12l0.254-0.12 0.801 0.823c0.441 0.453 0.829 0.872 0.863 0.931s0.451 0.443 0.928 0.853c1.012 0.87 1.682 1.509 2.644 2.523 0.383 0.403 0.944 0.948 1.247 1.21s0.695 0.648 0.871 0.856l0.32 0.379-0.407 0.367c-1.395 1.257-3.396 3.525-4.289 4.859-0.426 0.637-1.22 1.45-1.793 1.835-0.262 0.176-0.276 0.174-0.444-0.083zM24.705 28.692c0.082-0.044 0.15-0.112 0.15-0.151 0-0.101 0.35-0.465 0.447-0.465 0.045 0 0.127-0.104 0.184-0.232s0.146-0.232 0.2-0.232c0.053 0 0.097-0.040 0.097-0.088s0.078-0.164 0.174-0.257c0.096-0.093 0.591-0.615 1.102-1.16s0.988-1.046 1.063-1.113c0.074-0.067 0.135-0.167 0.135-0.221s0.033-0.099 0.074-0.099c0.091 0 0.467-0.369 0.467-0.458 0-0.036 0.087-0.122 0.193-0.192 0.219-0.143 0.273-0.51 0.075-0.51-0.065 0-0.141-0.060-0.169-0.133-0.069-0.181-0.907-1.027-1.016-1.027-0.048 0-0.088-0.046-0.088-0.101s-0.73-0.841-1.623-1.745c-0.893-0.904-1.623-1.662-1.623-1.684 0-0.178-0.296-0.589-0.519-0.721l-0.273-0.161-0.512 0.197c-0.427 0.164-0.589 0.283-0.978 0.718-0.256 0.287-0.602 0.713-0.769 0.947s-0.421 0.56-0.567 0.725c-0.145 0.165-0.331 0.452-0.414 0.638s-0.183 0.338-0.223 0.338c-0.041 0-0.074 0.029-0.074 0.064s-0.157 0.234-0.348 0.443c-0.191 0.208-0.348 0.406-0.348 0.439s-0.045 0.060-0.1 0.060c-0.116 0-0.709 0.599-0.771 0.78-0.027 0.079 0.057 0.203 0.234 0.348 0.152 0.124 0.33 0.286 0.396 0.361s0.165 0.135 0.219 0.135c0.054 0 0.099 0.040 0.099 0.088 0 0.102 0.361 0.453 0.466 0.453 0.039 0 0.129 0.087 0.198 0.193s0.175 0.193 0.234 0.193c0.059 0 0.107 0.050 0.107 0.111s0.070 0.133 0.155 0.16c0.085 0.027 0.155 0.1 0.155 0.162s0.059 0.136 0.132 0.164c0.202 0.078 0.486 0.347 0.486 0.461 0 0.056 0.043 0.102 0.097 0.103s0.379 0.27 0.724 0.599 0.899 0.842 1.231 1.14c0.332 0.298 0.657 0.602 0.723 0.676 0.138 0.157 0.195 0.165 0.399 0.055zM10.537 30.37c-0.286-0.182-0.865-0.642-1.287-1.023-1.108-0.999-1.773-1.533-2.213-1.778-0.98-0.544-3.053-2.091-3.053-2.278 0-0.034-0.122-0.207-0.271-0.386-0.502-0.601-0.35-0.963 0.605-1.443 0.587-0.295 2.42-1.031 2.568-1.031 0.026 0 0.489-0.221 1.027-0.491 1.078-0.541 1.824-0.823 2.176-0.823 0.126 0 0.344-0.069 0.483-0.154s0.362-0.154 0.496-0.155c0.133-0 0.516-0.050 0.85-0.112s0.747-0.122 0.917-0.135l0.309-0.024 0.023 0.889c0.012 0.489-0.015 1.254-0.062 1.701-0.096 0.922-0.364 2.45-0.462 2.637-0.036 0.068-0.124 0.521-0.195 1.005s-0.159 0.916-0.194 0.96c-0.036 0.043-0.105 0.322-0.154 0.618s-0.117 0.594-0.151 0.66c-0.034 0.066-0.105 0.327-0.157 0.58s-0.16 0.552-0.24 0.664c-0.080 0.113-0.146 0.243-0.146 0.29s-0.032 0.085-0.071 0.085c-0.039 0-0.117 0.017-0.174 0.037s-0.337-0.112-0.622-0.293zM10.531 28.233c0.343-0.209 0.567-0.693 0.681-1.47 0.22-1.495 0.451-2.839 0.564-3.273 0.139-0.534-0.073-0.94-0.644-1.233-0.436-0.224-0.896-0.194-1.547 0.099-0.595 0.268-2.095 0.821-2.933 1.081-0.863 0.268-1.201 0.604-1.201 1.192 0 0.411 0.339 0.736 1.256 1.202 0.778 0.396 1.327 0.869 1.596 1.376 0.051 0.096 0.378 0.4 0.727 0.676 0.54 0.426 0.68 0.5 0.944 0.501 0.172 0 0.42-0.067 0.557-0.151zM16.264 19.654c-0.424-0.231-1.039-1.068-0.893-1.215 0.031-0.031 0.204-0.011 0.383 0.044s0.648 0.118 1.042 0.139c0.622 0.033 0.756 0.016 1.027-0.124 0.171-0.089 0.323-0.162 0.338-0.162s0.049 0.109 0.075 0.243c0.040 0.198 0.002 0.304-0.203 0.573-0.438 0.575-1.225 0.798-1.769 0.502zM14.535 18.491c0.026-0.043 0.063-0.077 0.082-0.077s0.034 0.035 0.034 0.077c0 0.043-0.037 0.077-0.082 0.077s-0.060-0.035-0.034-0.077zM14.056 17.991c-0.32-0.139-0.517-0.522-0.519-1.008-0.002-0.455 0.156-0.758 0.557-1.067 0.209-0.161 0.35-0.21 0.553-0.193 0.223 0.019 0.268 0.051 0.246 0.175-0.015 0.084-0.090 0.197-0.168 0.252-0.224 0.157-0.145 0.866 0.185 1.644 0.033 0.078-0.020 0.148-0.16 0.213-0.261 0.121-0.385 0.118-0.695-0.017zM16.154 18.021c-0.584-0.17-0.814-0.85-0.503-1.492 0.118-0.245 0.289-0.426 0.57-0.608 0.779-0.504 0.987-0.541 1.438-0.256 0.385 0.243 0.607 0.559 0.67 0.952 0.047 0.291 0.027 0.338-0.287 0.681-0.664 0.725-1.19 0.927-1.887 0.724zM15.037 15.484c0-0.080 0.115-0.313 0.256-0.517 0.377-0.547 1.107-0.913 1.814-0.911 0.991 0.004 2.053 0.641 1.904 1.143-0.078 0.263-0.239 0.394-0.359 0.293-0.057-0.047-0.393-0.178-0.747-0.289-0.961-0.304-1.689-0.23-2.506 0.253-0.356 0.211-0.362 0.211-0.362 0.028zM14.225 14.967c-0.17-0.066-0.369-0.138-0.441-0.161-0.129-0.041-0.287-0.401-0.328-0.744-0.011-0.094-0.046-0.396-0.078-0.673-0.076-0.662-0.141-0.923-0.748-3.008-0.188-0.647-0.185-0.673 0.088-0.768 0.176-0.061 0.297-0.054 0.5 0.031 0.421 0.176 1.754 0.288 2.939 0.248 1.197-0.041 1.469-0.112 2.654-0.701 0.931-0.462 1.423-0.896 2.030-1.789 0.664-0.976 0.844-1.502 0.844-2.465 0-1.569-0.514-2.3-1.778-2.526-0.61-0.109-3.123-0.111-3.667-0.003-0.215 0.043-0.909 0.131-1.54 0.196-1.125 0.115-2.323 0.384-2.945 0.661-0.825 0.367-1.444 0.616-1.532 0.616-0.053 0-0.218 0.069-0.367 0.152s-0.483 0.258-0.744 0.386c-1.107 0.546-1.73 1.452-1.791 2.607-0.018 0.348-0.010 0.758 0.018 0.91 0.076 0.406 0.443 0.781 0.918 0.937 0.221 0.073 0.486 0.187 0.587 0.253 0.122 0.079 0.431 0.131 0.908 0.152 0.742 0.032 0.871 0.103 0.599 0.329-0.171 0.142-1.587 0.12-2.002-0.032-0.986-0.36-1.974-0.946-2.2-1.304-0.381-0.603-0.419-0.722-0.423-1.338-0.004-0.575 0.016-0.653 0.282-1.121 0.158-0.276 0.432-0.652 0.609-0.835 0.273-0.282 1.121-0.943 1.556-1.213 0.068-0.042 0.414-0.269 0.769-0.503 0.917-0.606 1.983-1.113 2.595-1.236 0.202-0.041 0.507-0.125 0.677-0.188s0.391-0.116 0.491-0.118c0.1-0.002 0.691-0.106 1.314-0.231 1.95-0.392 2.743-0.485 4.186-0.488 1.446-0.004 1.987 0.087 2.551 0.428 0.149 0.090 0.531 0.295 0.85 0.457l0.579 0.293 0.18 0.678c0.268 1.010 0.313 1.304 0.318 2.080 0.005 0.751-0.137 1.651-0.388 2.465-0.184 0.595-0.373 0.79-1.37 1.407-0.396 0.245-0.986 0.632-1.312 0.86s-0.959 0.571-1.407 0.762c-0.79 0.338-0.831 0.347-1.379 0.297-0.363-0.033-0.654-0.019-0.814 0.039-0.223 0.081-0.281 0.069-0.548-0.112-0.229-0.155-0.394-0.203-0.707-0.203-0.649 0-0.626-0.041-0.596 1.027 0.038 1.354 0.235 1.989 0.757 2.441 0.193 0.166 0.207 0.215 0.164 0.574-0.026 0.216-0.073 0.418-0.106 0.45-0.13 0.127-0.462 0.137-0.756 0.024z"></path>
</svg>
