<!-- Generated by IcoMoon.io -->
<svg version="1.1" xmlns="http://www.w3.org/2000/svg" width="32" height="32" viewBox="0 0 32 32">
<title>endtimes</title>
<path d="M16.618 31.676c-0.485-0.414-1.614-1.553-1.881-1.898-0.191-0.245-0.354-0.653-0.446-1.114-0.023-0.115-0.141-0.449-0.262-0.743-0.198-0.48-0.22-0.598-0.22-1.149-0-0.664 0.118-1.347 0.291-1.691 0.060-0.119 0.263-0.422 0.451-0.675 0.578-0.775 0.898-1.514 1.19-2.745 0.145-0.61 0.115-0.871-0.126-1.128-0.121-0.129-0.135-0.231-0.147-1.084-0.012-0.844-0.027-0.961-0.149-1.124-0.268-0.36-0.688-0.36-0.956-0.001-0.113 0.151-0.137 0.286-0.148 0.807-0.013 0.624-0.013 0.625-0.195 0.683-0.259 0.083-0.457 0.283-0.545 0.552-0.042 0.128-0.207 0.553-0.366 0.944s-0.384 0.958-0.5 1.26c-0.116 0.302-0.287 0.68-0.38 0.84s-0.199 0.407-0.236 0.549c-0.155 0.598-0.543 1.778-0.585 1.778-0.084 0-0.314-0.879-0.393-1.504-0.106-0.839-0.035-1.118 0.494-1.949 0.228-0.358 0.436-0.71 0.461-0.781s0.11-0.217 0.188-0.323c0.327-0.444 0.646-1.363 0.771-2.223 0.023-0.156 0.098-0.356 0.168-0.445 0.243-0.309 0.102-0.77-0.35-1.149-0.681-0.571-0.836-0.676-1.001-0.676-0.223 0-0.435 0.15-0.563 0.398-0.083 0.16-0.297 1.199-0.517 2.511-0.021 0.124-0.097 0.29-0.17 0.368s-0.24 0.318-0.372 0.533c-0.133 0.217-0.368 0.483-0.526 0.597-1.037 0.747-1.879 1.656-2.107 2.274-0.189 0.514-0.147 1.821 0.077 2.387 0.135 0.34 0.141 2.245 0.008 2.245-0.15 0-0.236-0.164-0.303-0.574-0.037-0.23-0.18-0.627-0.347-0.96-0.259-0.519-0.406-0.995-0.664-2.151-0.178-0.796-0.176-0.85 0.049-1.389 0.115-0.277 0.287-0.594 0.382-0.704s0.311-0.412 0.48-0.67c0.169-0.258 0.359-0.505 0.423-0.549s0.167-0.183 0.231-0.307c0.242-0.47 0.632-0.911 0.931-1.054 0.281-0.134 0.311-0.176 0.574-0.788 0.289-0.673 0.362-1.087 0.435-2.474l0.028-0.535-0.332-0.629c-0.182-0.346-0.386-0.689-0.451-0.763-0.075-0.084-0.141-0.303-0.177-0.589-0.031-0.25-0.092-0.52-0.134-0.599-0.049-0.091-0.062-0.258-0.035-0.452 0.031-0.226 0.006-0.428-0.095-0.759-0.123-0.404-0.134-0.573-0.114-1.642 0.024-1.232 0.151-2.142 0.339-2.429 0.053-0.081 0.096-0.185 0.096-0.231 0-0.154 0.771-1.655 1.095-2.133 0.339-0.499 1.061-1.242 1.522-1.567 0.341-0.24 0.709-0.523 0.983-0.754 0.113-0.096 0.39-0.283 0.614-0.416 1.219-0.723 1.881-0.96 2.409-0.862 0.143 0.027 0.688 0.050 1.211 0.052 1.041 0.004 1.658 0.079 2.153 0.261 0.178 0.065 0.454 0.141 0.614 0.167s0.448 0.132 0.639 0.234c0.192 0.102 0.398 0.186 0.46 0.186s0.219 0.073 0.35 0.162c0.131 0.089 0.354 0.221 0.494 0.292 0.145 0.074 0.256 0.178 0.257 0.242 0.002 0.062 0.151 0.228 0.331 0.37s0.405 0.359 0.498 0.483c0.093 0.123 0.282 0.341 0.42 0.484 0.459 0.478 0.631 0.778 1.106 1.941 0.194 0.475 0.36 1.083 0.561 2.057 0.119 0.577-0.022 3.086-0.208 3.696-0.076 0.249-0.158 0.642-0.183 0.873-0.059 0.546-0.54 1.581-0.833 1.793-0.24 0.173-0.352 0.511-0.268 0.804 0.067 0.232 0.36 0.699 0.439 0.699 0.070 0 0.943 1.477 1.357 2.295 0.216 0.426 0.338 0.756 0.359 0.97 0.19 1.917 0.188 1.846 0.078 2.909-0.167 1.621-0.203 1.787-0.55 2.52-0.448 0.95-0.695 1.249-2.152 2.613l-0.304 0.284-0.074-0.162c-0.061-0.135-0.041-0.258 0.123-0.737 0.182-0.532 0.377-1.037 0.645-1.669 0.059-0.139 0.23-0.496 0.379-0.792 0.368-0.728 0.523-1.262 0.563-1.941 0.019-0.313 0.052-0.846 0.074-1.183 0.055-0.849-0.116-1.646-0.545-2.536-0.175-0.365-0.377-0.712-0.449-0.77-0.173-0.143-0.425-0.584-0.594-1.039-0.149-0.402-0.378-0.632-0.629-0.632-0.201 0-0.524 0.188-0.569 0.331-0.019 0.060-0.084 0.128-0.145 0.151s-0.244 0.134-0.407 0.246l-0.297 0.204 0.113 0.39c0.062 0.215 0.132 0.717 0.155 1.116 0.037 0.644 0.024 0.796-0.119 1.357-0.29 1.143-0.315 1.408-0.277 2.988 0.031 1.297 0.052 1.524 0.165 1.779 0.126 0.286 0.127 0.294 0.007 0.358-0.102 0.054-0.152 0.025-0.301-0.177-0.098-0.134-0.301-0.377-0.451-0.541s-0.351-0.455-0.448-0.646l-0.177-0.348 0.039-1.325c0.045-1.539-0.014-2.298-0.231-2.973-0.086-0.267-0.21-0.732-0.276-1.034-0.090-0.41-0.165-0.594-0.296-0.727-0.213-0.216-0.486-0.233-0.725-0.045-0.181 0.142-0.329 0.56-0.261 0.737 0.048 0.126-0.093 0.423-0.201 0.423-0.078 0-0.029 0.691 0.059 0.833 0.024 0.038 0.045 0.558 0.046 1.155 0.003 1.123-0.005 1.172-0.344 2.182-0.123 0.366-0.609 1.286-1.059 2.004-0.397 0.634-0.449 0.866-0.443 1.971 0.006 1.059-0.006 0.998 0.453 2.359 0.221 0.654 0.347 0.875 0.579 1.012s0.415 0.422 0.532 0.83c0.036 0.124 0.086 0.277 0.111 0.339 0.077 0.188-0.045 0.129-0.452-0.219zM12.794 15.49c0.157-0.109 0.291-0.304 0.534-0.773 0.11-0.213 0.264-0.508 0.342-0.654s0.166-0.408 0.195-0.582c0.070-0.417 0.867-2.006 1.22-2.431 0.11-0.132-0.090-0.664-0.358-0.952-0.326-0.351-0.683-1.078-0.638-1.3 0.042-0.209-0.135-0.384-0.386-0.384-0.212 0-0.227-0.151-0.042-0.412 0.15-0.211 0.196-0.234 0.463-0.235 0.343-0 0.702-0.089 0.877-0.217 0.098-0.071 0.119-0.16 0.107-0.45-0.009-0.222 0.023-0.434 0.082-0.549 0.111-0.215 0.422-0.368 0.634-0.313 0.153 0.040 0.439-0.168 0.439-0.32 0-0.045 0.090-0.146 0.201-0.224l0.201-0.143-0.248-0.085c-0.616-0.212-0.611-0.91 0.009-1.222l0.259-0.13-0.19-0.87h-1.41c-1.605 0-1.714 0.024-2.058 0.454-0.292 0.364-0.447 0.516-0.729 0.71-0.36 0.249-0.687 0.756-0.687 1.067 0 0.218 0.030 0.275 0.19 0.366 0.336 0.191 0.456 0.536 0.456 1.307 0 0.621 0.011 0.68 0.13 0.718 0.137 0.043 0.322 0.341 0.322 0.517 0 0.178-0.187 0.474-0.327 0.518-0.080 0.025-0.187 0.166-0.262 0.344-0.070 0.166-0.171 0.334-0.224 0.375s-0.166 0.331-0.252 0.646c-0.543 2.007-0.779 2.805-0.906 3.061-0.168 0.34-0.246 0.96-0.154 1.225 0.035 0.102 0.242 0.339 0.459 0.528 0.315 0.274 0.481 0.365 0.82 0.453 0.439 0.114 0.725 0.101 0.932-0.043zM20.27 15.326c0.089-0.068 0.336-0.207 0.549-0.307 0.449-0.212 1.106-0.872 1.979-1.986 0.808-1.032 0.83-1.063 1.028-1.495 0.243-0.53 0.291-0.883 0.171-1.248-0.053-0.16-0.116-0.387-0.14-0.506-0.035-0.17-0.067-0.204-0.151-0.165-0.254 0.117-0.973-0.013-1.374-0.248-0.156-0.091-0.439-0.212-0.629-0.268-0.414-0.123-0.758-0.326-0.889-0.526-0.053-0.081-0.18-0.163-0.283-0.184s-0.28-0.129-0.395-0.241l-0.208-0.203-0.081 0.236c-0.045 0.13-0.157 0.351-0.249 0.492s-0.248 0.376-0.346 0.524c-0.193 0.292-0.488 0.506-0.699 0.506-0.090 0-0.17 0.077-0.245 0.235-0.109 0.228-0.108 0.239 0.024 0.379 0.075 0.079 0.286 0.226 0.47 0.326s0.4 0.26 0.481 0.356c0.152 0.18 0.555 0.319 0.926 0.319 0.203 0 0.203 0 0.157 0.275-0.045 0.267-0.347 0.9-0.872 1.826-0.562 0.992-0.626 1.463-0.251 1.839 0.287 0.287 0.703 0.313 1.028 0.063zM22.75 7.615c0.543-0.227 0.636-0.733 0.275-1.489-0.12-0.252-0.295-0.529-0.388-0.615s-0.169-0.211-0.169-0.278c0-0.353-0.378-0.697-0.767-0.697-0.184 0-0.189 0.007-0.121 0.186 0.152 0.404-0.248 0.839-0.695 0.756-0.33-0.062-0.55 0.051-0.55 0.283 0 0.179 0.014 0.191 0.185 0.157 0.317-0.064 0.547 0.112 0.743 0.569 0.154 0.358 0.227 0.443 0.596 0.692 0.231 0.156 0.449 0.338 0.484 0.404 0.077 0.144 0.128 0.148 0.407 0.031z"></path>
</svg>
