<!-- Generated by IcoMoon.io -->
<svg version="1.1" xmlns="http://www.w3.org/2000/svg" width="32" height="32" viewBox="0 0 32 32">
<title>eoe</title>
<path d="M13.085 1l-3.748 2.746 4.934 6.91-0.46 2.741-2.19-0.817-3.519-7.733-4.252 1.873 3.189-0.201 0.324 4.471-2.56-0.955 2.106 1.737-4.030 1.955-1.421-2.862 0.505 4.618 8.45-0.819 2.145 1.77-1.804 1.488-8.456-0.82-0.505 4.618 1.42-2.862 4.033 1.955-2.106 1.738 2.557-0.955-0.323 4.467-3.189-0.201 4.252 1.872 3.517-7.728 2.604-0.972 0.387 2.306-4.938 6.913 3.747 2.747-1.767-2.662 3.71-2.516 0.452 2.695 0.452-2.692 3.707 2.514-1.767 2.662 3.747-2.747-4.934-6.909 0.46-2.741 2.19 0.818 3.519 7.732 4.252-1.872-3.189 0.201-0.323-4.471 2.56 0.955-2.105-1.737 4.029-1.954 1.421 2.862-0.505-4.618-8.449 0.819-2.145-1.77 1.804-1.488 8.456 0.82 0.505-4.618-1.42 2.862-4.035-1.955 2.108-1.739-2.557 0.955 0.324-4.467 3.188 0.201-4.253-1.872-3.515 7.727-2.605 0.972-0.387-2.306 4.938-6.913-3.747-2.746 1.768 2.661-3.711 2.516-0.452-2.694-0.452 2.691-3.707-2.514 1.768-2.661zM15.441 15.357h0.742l0.371 0.643-0.371 0.643h-0.742l-0.371-0.643 0.37-0.642z"></path>
</svg>
