<!-- Generated by IcoMoon.io -->
<svg version="1.1" xmlns="http://www.w3.org/2000/svg" width="25" height="32" viewBox="0 0 25 32">
<title>erratic_fear</title>
<path d="M12.495 23.048c-0.031-1.936-0.058-3.871-0.077-5.807-0.003-0.318 0.044-0.637 0.072-1.020 1.953 1.187 3.638 2.591 5.225 4.119-0.055 0.090-0.069 0.135-0.098 0.155-1.337 0.946-2.674 1.896-4.018 2.83-0.15 0.104-0.348 0.155-0.531 0.188-0.487 0.093-0.565 0.031-0.573-0.466zM12.614 8.389c1.426 1.109 2.816 2.19 4.277 3.326-1.37 1.044-2.767 2.152-4.291 3.089-0.043-0.018-0.086-0.038-0.129-0.057 0.048-2.109 0.095-4.217 0.142-6.358zM5.869 20.391c0.767-0.496 1.438-0.93 2.109-1.361 0.102-0.066 0.236-0.102 0.311-0.19 0.652-0.775 1.576-1.176 2.381-1.738 0.216-0.152 0.461-0.262 0.775-0.438 0.049 2.332 0.098 4.568 0.147 6.917-1.926-1.074-3.772-2.103-5.722-3.19zM10.227 13.519c-0.603-0.458-1.219-0.902-1.79-1.396-0.415-0.36-0.397-0.922 0.051-1.223 0.929-0.626 1.894-1.202 2.845-1.798 0.018-0.011 0.052 0.001 0.116 0.006v5.301c-0.446-0.323-0.841-0.599-1.222-0.89zM20.379 28.102c-0.588-0.361-1.184-0.718-1.801-1.026-0.429-0.211-0.859-0.384-1.138-0.809-0.080-0.123-0.257-0.193-0.404-0.256-0.536-0.228-1.079-0.436-1.615-0.666-0.61-0.26-1.213-0.536-1.819-0.804-0.178-0.078-0.357-0.156-0.608-0.265 0.153-0.074 0.221-0.113 0.293-0.139 2.158-0.792 4.141-1.888 5.908-3.363 0.294-0.247 0.37-0.796 0.067-1.023-0.472-0.355-0.972-0.703-1.511-0.933-0.49-0.207-0.974-0.387-1.383-0.741-1.041-0.901-2.090-1.793-3.159-2.709 0.161-0.175 0.254-0.291 0.361-0.391 1.119-1.040 2.366-1.902 3.713-2.614 0.795-0.421 0.877-0.755 0.283-1.422-0.063-0.070-0.13-0.138-0.205-0.194-1.167-0.888-2.335-1.772-3.499-2.661-0.22-0.167-1.231-0.354-1.507-0.587l-0.357-5.499c0.283 0.173-0.55 5.755-0.815 5.935-0.639 0.433-1.283 0.861-1.9 1.323-0.847 0.634-1.669 1.3-2.527 1.971-0.009-0.016 0.032 0.069 0.095 0.133 1.171 1.21 2.409 2.343 3.801 3.303 0.95 0.657 0.914 0.839-0.060 1.488-1.545 1.031-3.072 2.090-4.577 3.178-0.528 0.381-0.969 0.882-1.548 1.419 1.067 0.605 2.060 1.184 3.067 1.732 1.017 0.553 2.049 1.075 3.144 1.649-0.167 0.092-0.253 0.151-0.346 0.19-0.66 0.276-1.323 0.545-1.983 0.822-0.925 0.386-1.908 0.675-2.55 1.539-0.093 0.127-0.277 0.19-0.367 0.317-0.158 0.227-0.276 0.479-0.411 0.721 0.038 0.029 0.077 0.060 0.116 0.089 1.202-0.674 2.426-1.312 3.6-2.030 0.847-0.519 1.77-0.786 2.704-1.095 0.153 2.473 0.302 4.894 0.452 7.315 0.118-0.21 0.193-0.418 0.207-0.631 0.097-1.472 0.181-2.943 0.269-4.416 0.040-0.648 0.074-1.295 0.133-1.942 0.006-0.081 0.188-0.228 0.234-0.21 0.79 0.314 1.648 0.538 2.34 1.005 1.319 0.888 2.62 1.769 4.168 2.223 0.525 0.155 1.017 0.424 1.524 0.642 0.029-0.034 0.058-0.069 0.087-0.102-0.158-0.159-0.292-0.354-0.478-0.467z"></path>
<path d="M8.665 20.745c-0.384 0-0.655-0.227-0.648-0.542 0.008-0.317 0.366-0.599 0.753-0.591 0.394 0.006 0.614 0.201 0.614 0.541-0.001 0.429-0.202 0.593-0.72 0.593z"></path>
<path d="M14.838 19.613c0.443 0 0.781 0.267 0.761 0.599-0.018 0.306-0.508 0.655-0.919 0.654-0.505 0-0.691-0.158-0.686-0.582 0.005-0.481 0.244-0.671 0.844-0.671z"></path>
<path d="M11.79 28.44c-0.016 0.149-0.029 0.296-0.037 0.444 0 0.029-0.029 0.060-0.089 0.081-0.126-0.118-0.207-0.214-0.245-0.28-0.184-0.164-0.348-0.305-0.496-0.423-0.066-0.052-0.095-0.104-0.081-0.162-0.066-0.052-0.097-0.096-0.097-0.133 0-0.12 0.237-0.178 0.378-0.17 0.282-0.023 0.481 0.051 0.606 0.214 0.044 0.066 0.067 0.207 0.060 0.429zM13.833 26.886c-0.112-0.044-0.207-0.037-0.289 0.016-0.273 0.185-0.502 0.274-0.68 0.266-0.104 0-0.201 0-0.297 0.008-0.133-0.008-0.207-0.060-0.222-0.164-0.037-0.237-0.058-0.348-0.058-0.332l-0.629 0.207c0 0.112-0.067 0.332-0.067 0.415-0.162-0.023-0.288-0.052-0.369-0.089-0.044 0.006-0.119 0.037-0.23 0.095-0.11 0.060-0.178 0.089-0.193 0.089-0.325-0.029-0.533-0.022-0.622 0.023-0.050 0.029-0.081 0.067-0.095 0.112l-0.038 0.309c-0.066 0.090-0.095 0.185-0.095 0.282 0 0.17 0.095 0.334 0.288 0.488 0.459 0.384 0.695 0.585 0.711 0.608l0.089 0.236c0.23 0.162 0.423 0.518 0.577 1.073 0.023 0.089 0.016 0.207-0.023 0.355-0.022 0.060-0.102 0.251-0.102 0.282 0.081 0.155 0.149 0.259 0.199 0.317 0.023 0.17 0 0.355 0.17 0.436 0.031 0.016 0.052 0.023 0.075 0.023 0.17 0 0.243-0.237 0.237-0.436-0.031-0.296-0.046-0.459-0.046-0.496 0-0.201 0.052-0.452 0.164-0.755 0.029-0.155 0.052-0.274 0.058-0.355 0.533-0.755 0.963-1.34 1.288-1.746-0.058-0.141-0.133-0.208-0.214-0.208s-0.199 0.089-0.369 0.267c-0.172 0.185-0.289 0.297-0.37 0.334-0.089 0.073-0.156 0.133-0.193 0.184-0.126-0.014-0.185-0.155-0.178-0.429 0 0-0.008-0.074-0.029-0.222-0.016-0.102-0.008-0.17 0.022-0.199 0.216-0.193 0.511-0.289 0.896-0.289 0.112 0 0.185 0.016 0.214 0.052 0.133-0.037 0.237-0.044 0.318-0.029 0.067-0.016 0.118-0.031 0.156-0.044 0.089-0.267 0.133-0.407 0.133-0.415 0-0.118-0.060-0.207-0.185-0.267z"></path>
<path d="M18.589 28.912c-0.107 0.032-0.208 0.040-0.312 0.066-0.053 0.014-0.125 0.066-0.13-0.013-0.003-0.037 0.027-0.083 0.048-0.112 0.027-0.044 0.049-0.060 0.070-0.113 0.028-0.074 0.069-0.127 0.095-0.202 0.052-0.15 0.095-0.311 0.17-0.453 0.037-0.072 0.066-0.133 0.159-0.129 0.072 0.001 0.123 0.060 0.184 0.089 0.037 0.017 0.066 0.029 0.102 0.054 0.075 0.052 0.153 0.101 0.231 0.151 0.064 0.043 0.132 0.113 0.202 0.145 0.024 0.013 0.052 0.004 0.075 0.014 0.063 0.026 0.041 0.124 0.017 0.168-0.024 0.046-0.058 0.043-0.099 0.067-0.048 0.029-0.101 0.053-0.152 0.070-0.216 0.076-0.441 0.13-0.66 0.196zM19.245 26.901c0.035-0.078 0.061-0.164 0.101-0.239 0.014-0.023 0.023-0.058 0.053-0.061 0.024 0.037 0.032 0.093 0.044 0.136 0.016 0.053 0.037 0.093 0.063 0.142 0.035 0.064 0.043 0.138 0.067 0.207 0.029 0.087 0.092 0.161 0.136 0.242 0.057 0.102 0.092 0.207 0.14 0.314 0.031 0.072 0.072 0.14 0.118 0.204 0.031 0.043 0.069 0.090 0.081 0.144 0.013 0.057-0.017 0.060-0.064 0.057-0.072-0.008-0.124-0.011-0.178-0.063-0.089-0.087-0.199-0.164-0.303-0.233-0.101-0.067-0.207-0.118-0.302-0.195-0.080-0.067-0.161-0.133-0.24-0.199 0.1-0.148 0.208-0.291 0.283-0.456zM22.189 29.918c0.016-0.016 0.041-0.038 0.049-0.060 0.006-0.023 0-0.051 0.005-0.074 0.006-0.051 0.005-0.101-0.001-0.152-0.001-0.029-0.022-0.053-0.023-0.081 0-0.018 0.013-0.035 0.009-0.058-0.050-0.016-0.101-0.032-0.149-0.052-0.050-0.020-0.1-0.040-0.15-0.058-0.023-0.008-0.064-0.013-0.086-0.025-0.029-0.018-0.061-0.043-0.087-0.064-0.034-0.029-0.061-0.069-0.093-0.1-0.075-0.072-0.161-0.133-0.242-0.199-0.138-0.112-0.279-0.24-0.352-0.407-0.024-0.057-0.046-0.1-0.087-0.147-0.048-0.052-0.098-0.093-0.133-0.155-0.054-0.089-0.084-0.181-0.149-0.263-0.029-0.038-0.061-0.081-0.087-0.125-0.005-0.008-0.010-0.017-0.013-0.026-0.006-0.016-0.013-0.032-0.018-0.048l-0.003 0.008c-0.038-0.096-0.053-0.198-0.104-0.293-0.078-0.145-0.179-0.286-0.286-0.412-0.081-0.097-0.144-0.17-0.196-0.288-0.052-0.116-0.101-0.236-0.156-0.351-0.032-0.067-0.081-0.127-0.107-0.198-0.023-0.064-0.037-0.132-0.057-0.198-0.009-0.034-0.017-0.101-0.038-0.132-0.025-0.034-0.013-0.024-0.057-0.022-0.051 0.005-0.106 0.044-0.144 0.069-0.148 0.092-0.276 0.224-0.389 0.354-0.064 0.076-0.116 0.162-0.164 0.25-0.038 0.069-0.086 0.136-0.118 0.207-0.044 0.096-0.139 0.142-0.242 0.159-0.072 0.011-0.12-0.017-0.178-0.055-0.19-0.13-0.401-0.227-0.59-0.361-0.153-0.11-0.32-0.184-0.487-0.273 0.031 0.078-0.001 0.188-0.041 0.25-0.037 0.057-0.069 0.112-0.104 0.17-0.025 0.041-0.078 0.090-0.078 0.14 0.191 0.086 0.36 0.231 0.534 0.343 0.123 0.080 0.254 0.136 0.377 0.217 0.032 0.022 0.074 0.044 0.1 0.074 0.018 0.022 0.022 0.064 0.031 0.090 0.018 0.061 0.035 0.124 0.020 0.188-0.003 0.020-0.013 0.035-0.023 0.052-0.074 0.124-0.153 0.24-0.21 0.375-0.029 0.069-0.053 0.124-0.074 0.196-0.016 0.061-0.049 0.104-0.076 0.161-0.026 0.057-0.026 0.113-0.048 0.17-0.011 0.027-0.029 0.051-0.035 0.081-0.016 0.066 0.029 0.066 0.040 0.124 0.005 0.026-0.003 0.052 0.003 0.083 0.013 0.055 0.018 0.106 0.027 0.164 0.014 0.076 0.041 0.224 0.087 0.293 0.135-0.017 0.263-0.084 0.403-0.101 0.239-0.031 0.467-0.101 0.704-0.139 0.196-0.032 0.391-0.080 0.585-0.116 0.185-0.035 0.36-0.112 0.545-0.145 0.041 0.006 0.083 0.016 0.124 0.022 0.092 0.016 0.185 0.016 0.277 0.032 0.237 0.043 0.485 0.14 0.689 0.268 0.169 0.107 0.323 0.228 0.484 0.346 0.066 0.049 0.141 0.086 0.207 0.135 0.046 0.034 0.084 0.074 0.127 0.109 0.040 0.032 0.11 0.104 0.164 0.101 0.035-0.004 0.061-0.029 0.084-0.052z"></path>
<path d="M6.336 27.785c0.046 0.034 0.161 0.144 0.092 0.205-0.011 0.010-0.135 0.013-0.153 0.016-0.061 0.009-0.123-0.010-0.184-0.005-0.044 0.004-0.061 0.018-0.101 0.032-0.044 0.016-0.089 0.010-0.133 0.018-0.194 0.043-0.394 0.092-0.59 0.139-0.133 0.034-0.251 0.070-0.389 0.081-0.017 0.001-0.032 0.003-0.051 0.006 0.027-0.017 0.052-0.041 0.069-0.064 0.016-0.020 0.017-0.040 0.024-0.061 0.005-0.017 0.001-0.023 0.011-0.037 0.006-0.010 0.041-0.029 0.049-0.035 0.066-0.058 0.132-0.116 0.199-0.173 0.060-0.052 0.124-0.098 0.19-0.141 0.113-0.075 0.214-0.191 0.306-0.294 0.018-0.020 0.035-0.044 0.057-0.060 0.086-0.058 0.28-0.038 0.322 0.063 0.028 0.064 0.044 0.107 0.097 0.158 0.058 0.055 0.121 0.106 0.185 0.151zM7.261 25.674c-0.113 0.055-0.22 0.119-0.326 0.187-0.289 0.181-0.573 0.401-0.805 0.649-0.11 0.118-0.351 0.123-0.473 0.027-0.027-0.022-0.055-0.044-0.086-0.061-0.041-0.023-0.092-0.029-0.13-0.055-0.078-0.052-0.080-0.136-0.187-0.144-0.086-0.006-0.096 0.025-0.158 0.076-0.049 0.041-0.038 0.090-0.040 0.153-0.004 0.034 0 0.072-0.005 0.104-0.006 0.032-0.023 0.058-0.028 0.092-0.005 0.052-0.023 0.155 0.005 0.196 0.016 0.028 0.046 0.031 0.070 0.040 0.053 0.022 0.099 0.055 0.152 0.076 0.072 0.032 0.153 0.064 0.234 0.078-0.066 0.078-0.132 0.155-0.205 0.223-0.092 0.086-0.198 0.123-0.308 0.178-0.070 0.037-0.144 0.074-0.211 0.115-0.023 0.013-0.037 0.020-0.048 0.044-0.014 0.027 0 0.034-0.028 0.043-0.049 0.016-0.211-0.018-0.225-0.078-0.008-0.031 0.029-0.063 0.044-0.084 0.089-0.13 0.118-0.314 0.15-0.465 0.010-0.049 0.032-0.093 0.067-0.127 0-0.008-0.001-0.016 0-0.022 0.010-0.060 0.029-0.112 0.031-0.173 0.001-0.057 0-0.115 0.005-0.171 0.006-0.054 0.032-0.101 0.052-0.152 0.031-0.078 0.086-0.147 0.121-0.227 0.046-0.102 0.027-0.216-0.055-0.293-0.043-0.038-0.093-0.064-0.136-0.104-0.041-0.038-0.081-0.044-0.135-0.028-0.070 0.022-0.133 0.064-0.159 0.135-0.029 0.076-0.038 0.159-0.064 0.237-0.043 0.129-0.083 0.259-0.124 0.389-0.069 0.213-0.156 0.43-0.199 0.649-0.014 0.075-0.026 0.155-0.057 0.225-0.035 0.080-0.081 0.149-0.106 0.234-0.017 0.057-0.029 0.116-0.040 0.175-0.009 0.049-0.001 0.133-0.022 0.176-0.016 0.029-0.006 0.018-0.035 0.038-0.038 0.024-0.075 0.048-0.106 0.083-0.035 0.041-0.069 0.092-0.096 0.141-0.031 0.052-0.043 0.112-0.074 0.165-0.046 0.083-0.095 0.173-0.152 0.248-0.040 0.052-0.075 0.101-0.103 0.161-0.031 0.069-0.061 0.136-0.136 0.159-0.023 0.008-0.052 0.008-0.075 0.020-0.025 0.013-0.040 0.037-0.063 0.052-0.035 0.025-0.074 0.043-0.103 0.078-0.067 0.080-0.093 0.192-0.161 0.274-0.054 0.066-0.116 0.176-0.034 0.239 0.064 0.049 0.116 0.049 0.198 0.052 0.060 0.001 0.125-0.013 0.161-0.066 0.011-0.018 0.014-0.040 0.026-0.057 0.048-0.055 0.142-0.049 0.202-0.093 0.057-0.043 0.127-0.063 0.179-0.11 0.038-0.035 0.072-0.080 0.104-0.121 0.026-0.037 0.040-0.086 0.070-0.118 0.034-0.038 0.090-0.073 0.132-0.103 0.055-0.041 0.115-0.075 0.172-0.113 0.034-0.003 0.069-0.009 0.104-0.020 0.052-0.016 0.251-0.047 0.145-0.037 0.11-0.018 0.219-0.058 0.331-0.078 0.273-0.049 0.551-0.080 0.824-0.13 0.116-0.022 0.227-0.060 0.346-0.075 0.167-0.025 0.328-0.048 0.495-0.078 0.181-0.032 0.38-0.043 0.554-0.102 0.034-0.013 0.064-0.032 0.1-0.041 0.048-0.013 0.093 0.001 0.141-0.005 0.049-0.005 0.076-0.040 0.121-0.057 0.032-0.011 0.064-0.023 0.095-0.037 0.063-0.038 0.070-0.149 0.037-0.21-0.037-0.067-0.113-0.1-0.161-0.158-0.061-0.074-0.125-0.144-0.188-0.217-0.076-0.089-0.142-0.184-0.21-0.28-0.055-0.078-0.106-0.178-0.202-0.21-0.070-0.023-0.153-0.034-0.168-0.123-0.009-0.048 0.032-0.075 0.060-0.109 0.031-0.037 0.053-0.080 0.089-0.112 0.024-0.022 0.054-0.038 0.080-0.055 0.103-0.066 0.193-0.148 0.306-0.196 0.063-0.026 0.129-0.046 0.191-0.070 0.081-0.032 0.144-0.061 0.164-0.152 0.005-0.020 0.003-0.046 0.014-0.064 0.031-0.051 0.109-0.032 0.158-0.031 0.067 0.003 0.152-0.005 0.216 0.014 0.016 0.006 0.055 0.040 0.069 0.038 0.035-0.004 0.009-0.074 0.001-0.095-0.010-0.032-0.041-0.050-0.054-0.081-0.010-0.024-0.006-0.041-0.010-0.064-0.014-0.17-0.121-0.314-0.202-0.461-0.046-0.008-0.087 0.028-0.126 0.046z"></path>
</svg>
