<!-- Generated by IcoMoon.io -->
<svg version="1.1" xmlns="http://www.w3.org/2000/svg" width="24" height="32" viewBox="0 0 24 32">
<title>excelsior_management</title>
<path d="M15.224 4.847c-0.057 0.178-0.184 0.317-0.252 0.491-0.068 0.173-0.147 0.323-0.289 0.452-0.117 0.107-0.264 0.162-0.412 0.208-0.107 0.034-0.203 0.112-0.307 0.141-0.074 0.021-0.178 0.011-0.247 0.010-0.168-0.002-0.336-0.001-0.504-0.001-0.218 0-0.47 0.038-0.677-0.039-0.089-0.033-0.2-0.063-0.28-0.107-0.1-0.055-0.138-0.122-0.264-0.124-0.188-0.005-0.317 0.147-0.482 0.218-0.249 0.106-0.534 0.213-0.8 0.257-0.625 0.105-1.426 0.192-1.833-0.415-0.076-0.111-0.073-0.345-0.093-0.478-0.022-0.158-0.062-0.319-0.067-0.479-0.008-0.335-0.162-0.699-0.095-1.034 0.033-0.16 0.136-0.294 0.218-0.43 0.065-0.107 0.106-0.18 0.225-0.234 0.27-0.125 0.552-0.192 0.845-0.192 0.107 0 0.262-0.028 0.367-0.003 0.049 0.013 0.052 0.049 0.101 0.060 0.076 0.017 0.15 0.018 0.229 0.038 0.195 0.050 0.38 0.112 0.568 0.188 0.077 0.030 0.13 0.099 0.222 0.099 0.073 0 0.19-0.079 0.247-0.112 0.102-0.060 0.189-0.1 0.296-0.147 0.133-0.059 0.292-0.095 0.418-0.161 0.13-0.068 0.227-0.145 0.373-0.188 0.089-0.026 0.189-0.051 0.333-0.309h0.752c0.25 0 0.467-0.016 0.698 0.095 0.099 0.046 0.24 0.102 0.312 0.188 0.035 0.042 0.076 0.149 0.104 0.2 0.135 0.249 0.241 0.53 0.308 0.803 0.037 0.147 0.010 0.292 0.040 0.44 0.040 0.197 0.011 0.375-0.051 0.569zM16.873 4.805c-0.015-0.2-0.052-0.469-0.107-0.657-0.058-0.207-0.097-0.409-0.146-0.618-0.035-0.156-0.123-0.29-0.18-0.439-0.052-0.139-0.083-0.285-0.13-0.426-0.073-0.219-0.169-0.464-0.309-0.654-0.253-0.347-0.711-0.493-1.093-0.652-0.563-0.235-1.2-0.144-1.799-0.149-0.302-0.003-0.573 0.023-0.859 0.123-0.122 0.042-0.233 0.062-0.35 0.099-0.061 0.018-0.116 0.021-0.124 0.101-0.56-0.19-0.893-0.413-1.283-0.513-0.251-0.064-0.537 0.037-0.8 0.029-0.32-0.008-0.549 0.102-0.853 0.184-0.305 0.082-0.602 0.094-0.869 0.275-0.2 0.134-0.277 0.401-0.383 0.613-0.127 0.253-0.105 0.532-0.172 0.8-0.069 0.273-0.093 0.509-0.094 0.793-0.001 0.431 0.060 0.841 0.121 1.267 0.076 0.54 0.144 1.085 0.382 1.584 0.217 0.449 0.535 0.976 1.056 1.096 0.183 0.041 0.354 0.069 0.541 0.091 0.136 0.016 0.152 0.032 0.252 0.095 0.186 0.119 0.372 0.245 0.389 0.49 0.017 0.25-0.006 0.512-0.006 0.763 0 0.284 0.008 0.51 0.105 0.781 0.082 0.225 0.136 0.426 0.272 0.626 0.083 0.122 0.234 0.219 0.301 0.344 0.069 0.127 0.021 0.344 0.021 0.487v0.453c0 0.272-0.012 0.544-0.002 0.815 0.006 0.18 0.040 0.391 0.067 0.573 0.040 0.281 0.108 0.558 0.138 0.842 0.041 0.4 0.066 0.783 0.066 1.185 0 0.38 0.002 0.76-0.001 1.14-0.002 0.336 0.048 0.666 0.057 1 0.015 0.447 0.032 0.919-0.015 1.364-0.016 0.153-0.040 0.3-0.043 0.454-0.002 0.129 0.013 0.255-0.011 0.384-0.091 0.493-0.057 1.001-0.135 1.497-0.029 0.18-0.034 0.369-0.066 0.549-0.017 0.096-0.078 0.197-0.057 0.298 0.016 0.078 0.065 0.117 0.123 0.172 0.048 0.044 0.161 0.088 0.194 0.132 0.035 0.047 0.007 0.179 0.008 0.235 0 0.124-0.035 0.22-0.055 0.341-0.062 0.378-0.102 0.761-0.167 1.138-0.028 0.162-0.058 0.329-0.112 0.485-0.049 0.144-0.11 0.252-0.138 0.407-0.020 0.101-0.033 0.18-0.067 0.28-0.078 0.227-0.044 0.464-0.106 0.697-0.044 0.163-0.055 0.308-0.054 0.475 0 0.095-0.002 0.19-0.001 0.285 0.001 0.133 0.045 0.24 0.056 0.367 0.017 0.223-0.127 0.412-0.201 0.599-0.101 0.251-0.077 0.409 0.093 0.635 0.096 0.128 0.221 0.192 0.34 0.284 0.050 0.038 0.069 0.029 0.107 0.090 0.056 0.090 0.055 0.228 0.089 0.326 0.072 0.211 0.089 0.453 0.118 0.677 0.061 0.47 0.079 0.911 0.497 1.171 0.066 0.040 0.136 0.080 0.201 0.121 0.049 0.029 0.107 0.046 0.152 0.078 0.021 0.014 0.048 0.080 0.062 0.086 0.141 0.063 0.358-0.013 0.498-0.044 0.157-0.034 0.309-0.068 0.459-0.122 0.18-0.065 0.216-0.143 0.306-0.306 0.035-0.066 0.093-0.164 0.108-0.229 0.012-0.051-0.002-0.101 0.008-0.151 0.006-0.023 0.043-0.051 0.045-0.063 0.033-0.161-0.016-0.336 0.016-0.497 0.022-0.107 0.049-0.181 0.049-0.295 0.001-0.102-0.034-0.124-0.056-0.212-0.034-0.144 0.011-0.309 0.069-0.431 0.089-0.188 0.178-0.38 0.262-0.563 0.061-0.13 0.108-0.355 0.205-0.46 0.052-0.059 0.205-0.156 0.272-0.188 0.073-0.034 0.136-0.014 0.216-0.023 0.119-0.011 0.082-0.047 0.171-0.097 0.061-0.034 0.183-0.017 0.246-0.010 0.077 0.216 0.174 0.391 0.28 0.592 0.045 0.086 0.117 0.223 0.2 0.281 0.105 0.073 0.391 0.060 0.524 0.040 0.117-0.018 0.244-0.044 0.363-0.067 0.096-0.018 0.292-0.066 0.367-0.135 0.089-0.084 0.069-0.398 0.044-0.525-0.022-0.112-0.050-0.174-0.049-0.295 0-0.088 0-0.175 0-0.264v-1.833c0-0.257-0.009-0.499 0.041-0.75 0.021-0.102 0.021-0.213 0-0.314-0.124-0.594-0.186-1.233-0.255-1.827-0.010-0.085-0.046-0.128-0.057-0.212-0.012-0.107-0.012-0.166-0.052-0.27-0.048-0.125-0.087-0.3-0.2-0.391-0.099-0.079-0.34-0.043-0.469-0.038-0.116 0.003-0.245 0.019-0.356 0.056-0.105 0.033-0.099-0.013-0.102 0.132-0.002 0.118-0.024 0.141-0.054 0.238-0.021 0.065 0.029 0.167-0.063 0.197-0.015 0.005-0.096-0.030-0.119-0.034-0.063-0.010-0.152 0.002-0.216 0.002h-0.367c-0.297 0-0.905 0.114-0.897-0.323 0.007-0.384 0-0.769 0-1.154 0-0.151 0.008-0.306 0.001-0.457-0.006-0.127-0.051-0.241-0.059-0.368-0.027-0.504 0.004-1.018 0.004-1.523 0-0.838-0.055-1.67-0.054-2.507 0-0.507 0-1.014 0-1.521v-2.481c0-0.21-0.030-0.454-0.001-0.666 0.037-0.274 0.268-0.464 0.402-0.725 0.23-0.451 0.138-0.995 0.054-1.474-0.037-0.214-0.051-0.473-0.029-0.692 0.012-0.125 0.101-0.156 0.217-0.206 0.264-0.116 0.529-0.219 0.796-0.324 0.286-0.111 0.588-0.169 0.871-0.291 0.076-0.033 0.143-0.089 0.212-0.123 0.067-0.032 0.153-0.044 0.218-0.091 0.074-0.054 0.134-0.131 0.213-0.189 0.074-0.054 0.112-0.095 0.167-0.167 0.088-0.116 0.186-0.219 0.263-0.342 0.080-0.13 0.114-0.275 0.185-0.409 0.145-0.272 0.106-0.721 0.083-1.027z"></path>
</svg>
