<!-- Generated by IcoMoon.io -->
<svg version="1.1" xmlns="http://www.w3.org/2000/svg" width="33" height="32" viewBox="0 0 33 32">
<title>excelsior</title>
<path d="M31.074 6.219c-0.096-0.266-0.303-0.538-0.509-0.733-0.1-0.095-0.216-0.106-0.332-0.172-0.077-0.043-0.142-0.145 0.147-0.333-0.003 0-0.004 0.002-0.007 0.002-0.094-0.153-0.211-0.309-0.328-0.443-0.145-0.167-0.352-0.28-0.524-0.417-0.21-0.168-0.45-0.252-0.668-0.401-0.208-0.142-0.403-0.286-0.636-0.386-0.426-0.182-0.795-0.381-1.267-0.326-0.145 0.017-0.298 0.059-0.436 0.104-0.202 0.066-0.396 0.107-0.6 0.163-0.25 0.069-0.503 0.137-0.747 0.225-0.446 0.161-0.926 0.236-1.355 0.438-0.34 0.16-0.683 0.302-1.040 0.416-0.158 0.050-0.284 0.141-0.429 0.215-0.202 0.101-0.41 0.178-0.609 0.287-0.316 0.173-0.629 0.361-0.924 0.568-0.265 0.186-0.568 0.351-0.799 0.577-0.222 0.218-0.465 0.408-0.688 0.624-0.124 0.119-0.263 0.223-0.396 0.332-0.169 0.138-0.304 0.305-0.472 0.442-0.156 0.128-0.32 0.231-0.458 0.381-0.088 0.095-0.153 0.208-0.241 0.302-0.174 0.186-0.344 0.377-0.497 0.579-0.077 0.102-0.118 0.206-0.178 0.327-0.066 0.133-0.132 0.239-0.221 0.342-0.105 0.121-0.115 0.291-0.177 0.43-0.047 0.106-0.098 0.21-0.111 0.325-0.014 0.123 0.039 0.28-0.024 0.388s-0.218 0.161-0.306 0.245c-0.050 0.048-0.075 0.124-0.133 0.162-0.062 0.040-0.124 0.025-0.194 0.042-0.134 0.031-0.223 0.072-0.327 0.162-0.166 0.145-0.303 0.354-0.399 0.552-0.045 0.092-0.098 0.198-0.155 0.282-0.036 0.052-0.089 0.088-0.123 0.143-0.072 0.117-0.039 0.287-0.040 0.419-0 0.077-0.020 0.171 0.009 0.244 0.016 0.041 0.074 0.065 0.091 0.106 0.025 0.060 0.007 0.131 0.014 0.193 0.026 0.213 0.131 0.426 0.174 0.638 0.108 0.536 0.17 1.094 0.251 1.635 0.064 0.425 0.037 0.932-0.043 1.352-0.1 0.53-0.317 1.006-0.535 1.495-0.22 0.493-0.467 0.965-0.734 1.435-0.137 0.243-0.287 0.479-0.421 0.723-0.148 0.271-0.35 0.49-0.515 0.75-0.32 0.506-0.658 0.996-1.052 1.449-0.192 0.22-0.382 0.453-0.591 0.658-0.197 0.194-0.349 0.429-0.562 0.605-0.791 0.655-1.678 1.2-2.572 1.704-0.181 0.102-0.365 0.2-0.548 0.301-0.206 0.113-0.409 0.264-0.629 0.347-0.345 0.129-0.681 0.266-1.021 0.41-0.384 0.162-0.773 0.326-1.148 0.509-0.323 0.157-0.643 0.234-0.975 0.357-0.469 0.174-0.934 0.304-1.419 0.437-0.282 0.077-0.554 0.175-0.846 0.209-0.102 0.012-0.271 0.076-0.37 0.066 0.061-0.011 0.092 0.034 0.142 0.055 0.094 0.039 0.194 0.045 0.291 0.067 0.145 0.033 0.27 0.086 0.42 0.096 0.295 0.021 0.541 0.153 0.828 0.21 0.457 0.091 0.924 0.1 1.381 0.18 0.716 0.124 1.409 0.222 2.138 0.214 0.308-0.003 0.605 0.045 0.911 0.059 0.355 0.015 0.715-0.003 1.070-0.003 0.595 0 1.216 0.049 1.809-0.011 0.472-0.048 0.966-0.114 1.416-0.265 0.199-0.067 0.403-0.13 0.604-0.192 0.17-0.053 0.333-0.13 0.501-0.179 0.54-0.157 1.063-0.35 1.568-0.602 0.775-0.385 1.547-0.793 2.242-1.316 0.512-0.385 0.969-0.861 1.37-1.359 0.398-0.494 0.799-1.036 1.084-1.604 0.118-0.236 0.166-0.495 0.28-0.734 0.095-0.198 0.217-0.383 0.299-0.587 0.209-0.517 0.378-1.058 0.535-1.593 0.197-0.677 0.42-1.354 0.594-2.038 0.071-0.278 0.088-0.54 0.118-0.822s0.092-0.56 0.127-0.84c0.023-0.187 0.057-0.417 0.026-0.607-0.023-0.145-0.101-0.256-0.177-0.388-0.236-0.409-0.46-0.819-0.743-1.198-0.12-0.16-0.26-0.302-0.377-0.465-0.054-0.076-0.089-0.164-0.145-0.237-0.087-0.113-0.212-0.097-0.324-0.163-0.052-0.031-0.087-0.085-0.134-0.123 0.069-0.077 0.122-0.239 0.17-0.337 0.057-0.119 0.131-0.245 0.138-0.378 0.004-0.083-0.004-0.121-0.033-0.194-0.042-0.106-0.060-0.186-0.085-0.297-0.031-0.142-0.093-0.324-0.039-0.467 0.081-0.214 0.297-0.334 0.441-0.493 0.167-0.184 0.366-0.337 0.551-0.503 0.212-0.189 0.443-0.371 0.632-0.583 0.101-0.113 0.187-0.198 0.312-0.286 0.224-0.157 0.412-0.356 0.623-0.53 0.259-0.213 0.589-0.362 0.889-0.511 0.343-0.172 0.709-0.298 1.045-0.486 0.458-0.256 0.961-0.429 1.46-0.594 0.225-0.075 0.454-0.125 0.681-0.191 0.383-0.11 0.745-0.304 1.136-0.385 0.232-0.048 0.448-0.118 0.684-0.147 0.384-0.048 0.767-0.11 1.147-0.182 0.222-0.042 0.434-0.082 0.66-0.081 0.311 0.002 0.628 0.017 0.938 0.003 0.229-0.010 0.485-0.030 0.493-0.301 0.005-0.171 0.003-0.335-0.055-0.497z"></path>
</svg>
