<!-- Generated by IcoMoon.io -->
<svg version="1.1" xmlns="http://www.w3.org/2000/svg" width="32" height="32" viewBox="0 0 32 32">
<title>expedition</title>
<path d="M16.465 29.544c0-0.425-0.532-3.819-0.812-5.187-0.074-0.359-0.17-1.089-0.214-1.622s-0.14-1.168-0.214-1.412c-0.121-0.397-0.095-0.479 0.252-0.811 0.213-0.203 0.553-0.582 0.756-0.842l0.37-0.473 0.583 0.665c0.404 0.461 0.638 0.63 0.764 0.553 0.148-0.092 0.166 0.121 0.096 1.181-0.047 0.711-0.177 1.709-0.288 2.218s-0.423 2.080-0.692 3.493c-0.269 1.412-0.514 2.593-0.544 2.624s-0.056-0.144-0.056-0.388zM11.938 28.651c-0.281-0.191-0.761-0.445-1.066-0.565s-0.744-0.36-0.974-0.532c-0.23-0.172-0.481-0.314-0.557-0.314s-0.352-0.228-0.613-0.507c-2.54-2.713-3.197-3.608-4.265-5.816-0.596-1.232-0.604-1.264-0.421-1.817l0.186-0.562 0.157 0.533c0.157 0.534 0.894 1.9 1.732 3.211 0.246 0.385 0.491 0.897 0.543 1.138s0.157 0.475 0.232 0.522c0.075 0.046 0.251 0.275 0.393 0.508 0.384 0.635 1.748 1.968 2.308 2.256 0.907 0.468 3.279 1.378 3.589 1.378 0.333 0 0.307 0.115-0.137 0.608-0.348 0.387-0.48 0.382-1.105-0.042zM18.358 28.732c0-0.072 0.259-0.195 0.574-0.275s1.183-0.357 1.926-0.617c1.223-0.427 1.457-0.567 2.455-1.468 1.315-1.186 2.389-2.351 2.671-2.896 0.328-0.634 1.3-3.594 1.333-4.057 0.034-0.488 0.161-0.54 0.369-0.152 0.254 0.474-0.461 3.411-1.118 4.594-0.504 0.907-3.072 3.49-3.822 3.844-0.294 0.139-0.748 0.386-1.008 0.55-0.724 0.455-3.379 0.83-3.379 0.477zM21.387 25.784c-0.512-0.619-0.765-1.080-0.7-1.275 0.067-0.2 1.32 1.283 1.32 1.562 0 0.34-0.163 0.264-0.62-0.287zM11.15 25.833c-0.040-0.105 0.219-0.637 0.575-1.183 0.651-0.997 1.226-1.635 1.226-1.359 0 0.081-0.065 0.188-0.144 0.237s-0.109 0.18-0.067 0.291-0.092 0.455-0.3 0.764c-0.207 0.309-0.458 0.759-0.558 1.001-0.188 0.456-0.599 0.596-0.733 0.249zM24.437 22.304c-0.399-0.404-0.696-0.762-0.661-0.797 0.121-0.121 1.091 0.169 1.35 0.404 0.261 0.236 0.358 0.928 0.148 1.058-0.062 0.038-0.438-0.261-0.837-0.664zM7.815 21.634c0-0.256 0.13-0.402 0.554-0.618 0.531-0.271 0.933-0.276 0.933-0.012 0 0.122-1.22 0.964-1.397 0.964-0.049 0-0.090-0.151-0.090-0.335zM10.354 18.505c-0.425-0.178-1.763-0.57-2.974-0.869-2.878-0.712-4.526-1.244-4.203-1.357 1.008-0.35 2.505-0.579 4.724-0.722 2.224-0.143 2.656-0.208 3.083-0.459 0.606-0.358 0.57-0.358 0.664 0.015 0.042 0.169 0.3 0.568 0.573 0.887l0.496 0.579-0.428 0.566c-0.236 0.311-0.546 0.824-0.689 1.14s-0.308 0.568-0.367 0.559c-0.058-0.008-0.454-0.161-0.879-0.34zM21.933 18.038c-0.189-0.299-0.429-0.576-0.535-0.617-0.372-0.143-0.371-0.577 0.003-1.022 0.258-0.307 0.344-0.537 0.303-0.814-0.031-0.213-0.006-0.418 0.056-0.457s0.113-0.005 0.113 0.074c0 0.079 0.112 0.143 0.249 0.143s0.594 0.119 1.016 0.264c0.783 0.269 3.464 0.672 4.638 0.696 0.359 0.007 0.796 0.054 0.971 0.103 0.304 0.085 0.298 0.097-0.135 0.249-0.249 0.088-1.572 0.436-2.939 0.773s-2.69 0.735-2.941 0.883l-0.455 0.269-0.343-0.543zM15.638 18.144c-0.292-0.222-0.793-1.055-0.794-1.318-0.001-0.257 0.777-1.016 1.148-1.12s1.451 0.448 1.642 0.839c0.226 0.464-0.068 1.066-0.712 1.456-0.582 0.352-0.955 0.394-1.284 0.143zM27.951 14.934c-0.015-1.106-0.33-2.183-1.019-3.485-0.665-1.256-2.263-3.377-3.1-4.113-0.149-0.131-1.031-0.618-1.96-1.081-1.645-0.821-1.719-0.844-2.823-0.862l-1.133-0.019-0.277-0.485c-0.152-0.267-0.241-0.522-0.196-0.566s0.862 0.045 1.816 0.2c1.594 0.258 2.872 0.66 4.070 1.28 0.7 0.362 1.958 1.546 2.577 2.425 0.691 0.981 1.905 3.44 2.081 4.213 0.215 0.949 0.282 2.375 0.119 2.539-0.111 0.111-0.152 0.099-0.154-0.045zM16.15 14.58c-0.050-0.050-0.090-0.2-0.090-0.333 0-0.311-0.767-1.188-1.174-1.343-0.284-0.108-0.312-0.201-0.31-1.034 0.005-1.789 0.464-4.483 1.133-6.65 0.193-0.626 0.351-1.306 0.351-1.509 0-1.008 0.343-1.040 0.446-0.042 0.087 0.843 0.37 2.185 0.867 4.109 0.182 0.706 0.445 2.044 0.583 2.974l0.252 1.69-0.333 0.25c-0.183 0.137-0.611 0.639-0.95 1.115-0.666 0.933-0.641 0.908-0.774 0.775zM4.078 13.825c0.043-0.242 0.147-0.853 0.233-1.359 0.114-0.672 0.279-1.090 0.616-1.554 0.253-0.349 0.727-1.030 1.053-1.513 0.639-0.948 0.91-1.221 1.812-1.823 0.321-0.215 0.656-0.485 0.744-0.601 0.48-0.637 3.404-2.073 4.484-2.201 0.297-0.035 0.434-0.039 0.304-0.007s-0.237 0.138-0.237 0.238-0.409 0.372-0.909 0.606c-0.5 0.234-1.093 0.565-1.318 0.736s-0.613 0.416-0.861 0.544c-0.249 0.128-0.775 0.548-1.169 0.932s-1.010 0.943-1.368 1.24c-1.462 1.213-1.948 1.95-2.697 4.089-0.234 0.668-0.465 1.115-0.577 1.115-0.136 0-0.165-0.119-0.109-0.439zM7.748 13.732c-0.297-0.051-0.739-0.196-0.981-0.324-0.437-0.231-0.439-0.234-0.21-0.6 0.127-0.202 0.253-0.397 0.28-0.433s0.16 0.080 0.295 0.259c0.134 0.178 0.51 0.422 0.836 0.543s0.591 0.303 0.591 0.406c0 0.238-0.141 0.264-0.811 0.15zM24.034 12.672c0-0.058 0.184-0.215 0.409-0.347s0.505-0.389 0.624-0.57c0.285-0.435 0.483-0.417 0.43 0.040-0.031 0.267-0.192 0.452-0.583 0.674-0.557 0.315-0.879 0.389-0.879 0.204zM12.084 9.957c-0.058-0.094-0.069-0.208-0.025-0.252 0.121-0.121 0.253 0.057 0.188 0.253-0.046 0.137-0.078 0.137-0.163-0.001zM20.7 9.162c0.347-1.076 0.606-1.72 0.682-1.7 0.405 0.105 0.402 0.183-0.032 1.040-0.25 0.493-0.515 0.896-0.59 0.896s-0.102-0.106-0.060-0.237zM11.093 8.747c-0.631-0.554-0.703-0.812-0.324-1.155 0.269-0.244 0.629-0.183 0.748 0.126 0.097 0.254 0.267 1.547 0.202 1.54-0.028-0.004-0.31-0.233-0.626-0.511z"></path>
</svg>
