<!-- Generated by IcoMoon.io -->
<svg version="1.1" xmlns="http://www.w3.org/2000/svg" width="32" height="32" viewBox="0 0 32 32">
<title>extra</title>
<path d="M8 13.5c-1.375 0-2.5 1.125-2.5 2.5s1.125 2.5 2.5 2.5c1.375 0 2.5-1.125 2.5-2.5s-1.125-2.5-2.5-2.5zM8 14.5c0.834 0 1.5 0.666 1.5 1.5s-0.666 1.5-1.5 1.5c-0.834 0-1.5-0.666-1.5-1.5s0.666-1.5 1.5-1.5z"></path>
<path d="M16 13.5c-1.375 0-2.5 1.125-2.5 2.5s1.125 2.5 2.5 2.5c1.375 0 2.5-1.125 2.5-2.5s-1.125-2.5-2.5-2.5zM16 14.5c0.834 0 1.5 0.666 1.5 1.5s-0.666 1.5-1.5 1.5c-0.834 0-1.5-0.666-1.5-1.5s0.666-1.5 1.5-1.5z"></path>
<path d="M24 13.5c-1.375 0-2.5 1.125-2.5 2.5s1.125 2.5 2.5 2.5c1.375 0 2.5-1.125 2.5-2.5s-1.125-2.5-2.5-2.5zM24 14.5c0.834 0 1.5 0.666 1.5 1.5s-0.666 1.5-1.5 1.5c-0.834 0-1.5-0.666-1.5-1.5s0.666-1.5 1.5-1.5z"></path>
</svg>
