<!-- Generated by IcoMoon.io -->
<svg version="1.1" xmlns="http://www.w3.org/2000/svg" width="30" height="32" viewBox="0 0 30 32">
<title>extracurricular_activity</title>
<path d="M12.684 1.201c-0.379-0.379-1.054-0.135-1.493 0.029-0.54 0.212-0.802 0.377-0.172 0.641 0.313 0.135 0.762-0.127 0.989 0.191 0.227 0.298 0.070 0.823 0.080 1.191 0.020 0.45 0.182 0.924 0.212 1.392 0.041 0.611-0.101 1.165-0.212 1.755-0.242 1.323-0.297 2.533-0.353 3.88-0.040 1.019 0.106 3.215-0.368 4.087-1.141 0.111-2.357 1.837-3.099 2.766-0.707 0.889-1.216 2.054-1.832 3.042-0.797 1.288-1.575 2.488-2.271 3.851-0.62 1.221-1.559 1.741-2.023 3.063-0.373 1.085-0.837 2.165-0.676 3.306 0.136 0.999 0.106 0.927 0.802 0.938 2.164 0.040 4.283 0.248 6.438 0.378 0.903 0.045 1.816 0.227 2.71 0.278 1.16 0.061 2.356-0.146 3.542-0.076 0.63 0.047 1.297 0.167 1.912-0.037 0.561-0.186 1.055-0.524 1.656-0.59 1.216-0.132 2.481-0.141 3.688-0.111 1.151 0.029 2.321-0.283 3.476-0.252 0.627 0.015 1.257 0.101 1.878 0.13 0.247 0.015 0.443-0.237 0.459-0.545 0.020-0.429 0.196-0.999 0.026-1.296-0.707-1.236-0.227-1.993-1.151-2.998-0.989-1.075-1.604-1.993-2.392-3.188-0.757-1.151-1.049-2.109-2.457-4.573-0.394-0.691-1.408-0.913-1.852-1.544-0.271-0.398-0.549-1.009-0.913-1.307-0.53-0.429-0.877-0.877-1.205-1.528-0.318-0.641-0.222-1.812-0.354-2.578-0.226-1.297-0.342-2.543-0.332-3.865 0.005-1.111 0.151-2.821 0.101-3.927-0.020-0.499-0.061-1.19 0.363-1.528 0.323-0.262 0.813 0.101 1.11-0.206 0.505-0.521-0.101-0.691-0.53-0.747-1.252-0.147-1.927 0.257-1.998 1.988-0.030 0.827 0.041 2.245 0 3.108-0.070 1.458-0.125 3.098 0.142 4.32 0.278 1.292-0.328 3.063 0.242 4.212 0.293 0.586 0.903 0.798 1.328 1.222 0.705 0.736 1.361 1.639 2.002 2.447 0.677 0.863 1.217 1.701 1.807 2.629 0.348 0.561 0.868 0.924 1.2 1.495 0.253 0.434 0.389 1.054 0.616 1.483 0.51 0.974 1.488 1.64 1.953 2.634 0.252 0.54 0.353 1.175 0.726 1.66 0.207 0.267 0.5 0.404 0.566 0.722-1.172 0.54-2.917 0.368-4.163 0.308-0.989-0.056-2.109-0.272-3.083-0.111-1.044 0.177-2.007 0.479-3.007 0.843-1.398 0.504-3.042 0.247-4.5 0.308-1.655 0.075-3.335-0.313-4.995-0.41-0.479-0.026-3.16 0.632-3.033-0.53-0.555-0.191-1.17-0.162-1.741-0.217-0.090-0.691 0.757-1.629 1.085-2.16 0.767-1.231 1.226-2.8 1.938-4.122 0.772-1.438 1.545-2.401 2.694-3.42 0.232-0.203 0.031-0.399 0.187-0.692 0.080-0.156 0.509-0.373 0.595-0.53 0.348-0.66 0.978-1.054 1.483-1.538 0.495-0.474 1.604-1.181 1.877-1.781 0.177-0.399 0.146-0.939 0.132-1.403-0.041-1.11 0.010-2.215 0.061-3.33 0.030-0.667 0.167-1.12 0.328-1.741 0.207-0.818 0.059-1.316 0.050-2.124-0.015-0.526 0.731-5.899-0.333-5.293 0.196 0.015 0.393 0.022 0.085 0z"></path>
<path d="M4.949 23.25c1.075 0.029 1.62-0.62 2.568-0.807 0.772-0.156 1.135 0.656 1.963 0.606 0.333-0.026 0.757-0.333 1.070-0.283 0.419 0.066 0.545 0.651 0.974 0.757 0.328 0.076 0.736-0.111 1.075-0.135 0.389-0.026 0.877 0.186 1.216 0.135 0.535-0.085 0.627-0.524 1.064-0.813 0.444-0.287 1.227-0.488 1.746-0.519 1.408-0.090 2.623 0.243 3.991-0.111 1.075-0.278 2.412 0.029 3.037 1.009-0.596 0.59-1.856-0.13-2.598-0.191-0.585-0.056-1.177 0.022-1.762-0.011-0.554-0.026-1.12-0.085-1.684-0.051-0.823 0.051-1.055 0.338-1.656 0.616-0.509 0.237-1.139 0.151-1.69 0.373-0.651 0.257-1.024 0.337-1.821 0.337-1.529 0-3.033-0.015-4.502-0.212-0.596-0.080-1.104-0.384-1.715-0.337-0.606 0.040-1.372 0.559-1.912 0.469-0.026-0.288 0.019-0.57 0.636-0.842z"></path>
<path d="M21.499 20.354c-0.958-0.070-1.785-0.726-2.79-0.55-0.389 0.066-1.634 0.429-1.731 0.748 0.979 0.056 1.938 0.221 2.948 0.221 0.469 0 0.908 0.026 1.356 0.076 0.293 0.037 1.288 0.191 1.080 0.141z"></path>
<path d="M21.278 19.028c-1.272 0.111-2.897 0.066-4.113-0.151 0.177-0.687 2.856-1.045 4.113 0.151z"></path>
<path d="M19.123 17.387c-0.707-0.363-1.529-0.181-2.297-0.226-0.181-0.878 2.477-1.217 2.66-0.061z"></path>
<path d="M24.234 24.806c-0.42 0-5.627-0.859-5.142 0.323 0.262 0.646 2.901 0.479 3.486 0.524 1.106 0.090 1.58 0.075 2.498-0.439-0.076-0.283-0.227-0.566-0.842-0.408z"></path>
<path d="M27.039 27.56c-1.155 0-2.386-0.731-3.637-0.771-1.040-0.045-2.099-0.132-3.088 0.080-0.106 0.137-0.186 0.384-0.181 0.535 1.075 0.384 2.422 0.092 3.542 0.379 1.181 0.293 2.089 0.555 3.365-0.222z"></path>
<path d="M23.3 21.979c-0.939 0.029-1.908-0.288-2.83-0.206-0.616 0.056-1.166 0.389-1.772 0.575 0.434 0.51 1.181 0.238 1.792 0.328 0.575 0.081 1.070 0.384 1.66 0.439s1.146-0.101 1.726-0.151z"></path>
</svg>
