<!-- Generated by IcoMoon.io -->
<svg version="1.1" xmlns="http://www.w3.org/2000/svg" width="32" height="32" viewBox="0 0 32 32">
<title>facebook</title>
<path d="M21.5 6.167v11.8h-1.95v7.867h-6.6v-7.867h-1.95v-6.6h1.95v-0.129c0-1.307 0.294-2.729 1.4-3.774 1.078-1.019 2.53-1.297 3.931-1.297zM14.95 13.367h-1.95v2.6h1.95v7.867h2.6v-7.867h1.95v-2.6h-1.95v-1.939c0-0.021 0-0.041 0.001-0.061 0.018-0.407 0.221-0.6 0.649-0.6h1.3v-2.6h-1.219c-0.28 0-0.54 0.014-0.781 0.041-1.809 0.205-2.55 1.183-2.55 3.030z"></path>
</svg>
