<!-- Generated by IcoMoon.io -->
<svg version="1.1" xmlns="http://www.w3.org/2000/svg" width="32" height="32" viewBox="0 0 32 32">
<title>fallen_arkham</title>
<path d="M26.273 29.878c-0.131-0.069-0.46-0.229-0.731-0.355s-0.537-0.278-0.591-0.337c-0.089-0.097-0.101-0.238-0.126-1.434-0.015-0.729-0.053-1.408-0.084-1.507s-0.084-0.485-0.117-0.855c-0.046-0.523-0.045-0.701 0.005-0.795 0.035-0.066 0.084-0.458 0.109-0.871s0.069-0.817 0.1-0.897c0.031-0.081 0.056-0.251 0.056-0.379 0-0.142 0.049-0.324 0.125-0.468 0.123-0.231 0.126-0.275 0.162-2.138 0.022-1.153 0.060-1.975 0.096-2.088 0.034-0.106 0.061-0.585 0.063-1.114 0.004-0.898-0.001-0.938-0.137-1.229-0.225-0.48-0.55-0.918-0.836-1.128-0.146-0.107-0.421-0.356-0.612-0.554-0.221-0.229-0.448-0.405-0.625-0.485-0.324-0.146-0.729-0.453-0.729-0.551 0-0.037-0.047-0.11-0.105-0.163s-0.12-0.145-0.138-0.207c-0.058-0.195-0.661-1.374-0.85-1.661-0.124-0.188-0.32-0.371-0.618-0.579-0.24-0.167-0.604-0.462-0.808-0.656s-0.461-0.406-0.57-0.473c-0.151-0.092-0.245-0.216-0.389-0.515-0.104-0.217-0.242-0.459-0.307-0.539-0.353-0.438-0.413-0.588-0.444-1.108-0.036-0.605 0.079-2.193 0.179-2.478 0.040-0.113 0.072-0.316 0.073-0.451 0.001-0.231 0.012-0.251 0.199-0.338 0.419-0.195 0.84-0.494 1.213-0.861 0.624-0.614 0.831-0.664 2.739-0.664 1.241 0 1.329 0.006 1.456 0.106 0.074 0.058 0.166 0.106 0.203 0.106 0.069 0 0.283 0.407 0.429 0.816 0.178 0.498 0.024 1.203-0.331 1.515-0.102 0.089-0.208 0.162-0.236 0.162-0.029 0-0.052-0.231-0.053-0.544-0.001-0.51-0.012-0.563-0.172-0.862-0.139-0.26-0.218-0.341-0.425-0.444-0.389-0.193-0.638-0.2-1.21-0.032-0.584 0.171-1.243 0.529-1.602 0.87l-0.255 0.242 0.012 0.716c0.010 0.583-0.004 0.748-0.076 0.886-0.141 0.269-0.121 0.979 0.036 1.315 0.148 0.317 0.48 0.631 0.821 0.776 0.257 0.109 0.594 0.321 0.778 0.487 0.058 0.053 0.357 0.304 0.663 0.557s0.688 0.595 0.849 0.759c0.423 0.432 0.645 0.556 1.22 0.678 0.277 0.059 0.623 0.133 0.769 0.165 0.342 0.075 0.649 0.397 0.907 0.953 0.102 0.219 0.22 0.465 0.262 0.548 0.123 0.238 0.33 0.782 0.396 1.043 0.034 0.131 0.127 0.358 0.208 0.504s0.189 0.391 0.239 0.545c0.051 0.154 0.146 0.345 0.212 0.424s0.168 0.252 0.225 0.383c0.058 0.131 0.225 0.37 0.371 0.53s0.304 0.364 0.349 0.453c0.122 0.238 0.287 0.762 0.318 1.011 0.015 0.12 0.149 0.474 0.298 0.787s0.272 0.597 0.273 0.631c0.001 0.034 0.048 0.157 0.104 0.273 0.075 0.155 0.103 0.329 0.104 0.643 0.002 0.506-0.083 0.786-0.335 1.097-0.208 0.257-0.875 1.558-1.038 2.024-0.194 0.555-0.109 1.714 0.162 2.215 0.069 0.128 0.167 0.489 0.284 1.049 0.087 0.417 0.205 0.754 0.34 0.975 0.055 0.091 0.129 0.262 0.165 0.382 0.054 0.183 0.051 0.243-0.021 0.382-0.047 0.091-0.085 0.213-0.085 0.272s-0.060 0.242-0.133 0.407c-0.077 0.174-0.133 0.399-0.133 0.537 0 0.265-0.16 0.545-0.311 0.545-0.051 0-0.208 0.074-0.35 0.164s-0.407 0.21-0.589 0.266c-0.296 0.091-0.907 0.474-1.001 0.627-0.052 0.084-0.133 0.069-0.401-0.071zM5.003 29.872c-0.147-0.177-0.867-0.611-1.067-0.643-0.116-0.019-0.311-0.102-0.433-0.185s-0.308-0.176-0.413-0.205c-0.219-0.061-0.314-0.22-0.314-0.528 0-0.112-0.059-0.332-0.132-0.488s-0.132-0.337-0.133-0.402c-0-0.065-0.051-0.221-0.112-0.347l-0.111-0.229 0.249-0.528c0.137-0.291 0.281-0.695 0.321-0.9 0.093-0.475 0.248-1.028 0.33-1.176 0.236-0.426 0.302-1.683 0.116-2.224-0.155-0.451-0.751-1.611-1.004-1.954-0.294-0.398-0.321-0.488-0.321-1.082 0-0.487 0.013-0.546 0.23-1.071 0.126-0.306 0.257-0.603 0.29-0.662 0.141-0.248 0.276-0.615 0.278-0.753 0.006-0.409 0.241-0.94 0.581-1.315 0.145-0.16 0.333-0.43 0.419-0.599s0.192-0.339 0.237-0.376c0.045-0.037 0.121-0.191 0.169-0.342s0.178-0.453 0.288-0.672c0.11-0.219 0.216-0.487 0.235-0.596 0.045-0.25 0.689-1.659 0.855-1.871 0.316-0.404 0.375-0.452 0.609-0.502 1.508-0.323 1.502-0.32 2.018-0.844 0.162-0.164 0.516-0.477 0.786-0.696 0.93-0.752 1.92-1.652 2.060-1.873 0.077-0.122 0.22-0.346 0.318-0.497 0.24-0.374 0.468-0.893 0.569-1.298 0.046-0.185 0.117-0.419 0.157-0.522 0.096-0.244 0.298-0.983 0.298-1.088 0-0.045 0.069-0.219 0.153-0.386s0.183-0.404 0.22-0.527c0.037-0.123 0.090-0.209 0.119-0.192s0.125 0.19 0.214 0.383c0.157 0.339 0.162 0.375 0.157 1.067-0.003 0.394 0.026 0.978 0.065 1.298 0.081 0.668 0.066 0.725-0.312 1.146-0.4 0.447-0.583 1.423-0.35 1.879 0.058 0.114 0.106 0.242 0.106 0.283 0 0.143-0.213 0.419-0.438 0.567-0.124 0.082-0.373 0.3-0.554 0.484s-0.349 0.336-0.375 0.336c-0.104 0-0.822 0.586-0.973 0.795-0.177 0.244-0.805 1.432-0.87 1.645-0.102 0.334-0.563 0.798-0.976 0.984-0.218 0.098-0.42 0.25-0.646 0.484-0.18 0.188-0.462 0.451-0.626 0.584-0.304 0.248-0.611 0.653-0.815 1.078-0.141 0.293-0.146 0.774-0.047 4.031 0.066 2.147 0.071 2.208 0.196 2.481 0.071 0.154 0.129 0.372 0.129 0.484s0.037 0.309 0.083 0.436c0.091 0.253 0.197 1.489 0.194 2.248-0.003 0.532-0.098 1.541-0.174 1.836-0.027 0.105-0.050 0.644-0.050 1.197 0 0.975-0.004 1.009-0.119 1.117-0.133 0.124-0.95 0.544-1.058 0.544-0.038 0-0.165 0.059-0.281 0.131-0.253 0.156-0.26 0.157-0.346 0.053zM18.967 29.44c-0.051-0.021-0.067-0.488-0.069-2.078-0.003-2.081-0.022-2.48-0.181-3.796-0.097-0.796-0.089-2.482 0.019-3.983 0.044-0.61 0.034-1.031-0.056-2.36-0.060-0.89-0.116-1.625-0.124-1.634s-0.113 0.010-0.232 0.042c-0.175 0.047-0.266 0.042-0.464-0.025-0.208-0.070-0.292-0.074-0.533-0.019-0.228 0.051-0.357 0.050-0.63-0.004-0.224-0.045-0.448-0.054-0.647-0.026-0.383 0.053-1.084 0.040-2.125-0.040-0.648-0.049-0.822-0.048-0.854 0.005-0.023 0.037-0.057 0.333-0.077 0.659s-0.060 0.808-0.090 1.070c-0.029 0.263-0.074 2.351-0.098 4.641-0.039 3.589-0.057 4.215-0.133 4.535-0.048 0.204-0.122 0.586-0.164 0.849s-0.1 0.561-0.13 0.663c-0.030 0.102-0.054 0.467-0.054 0.812v0.626l-0.273-0.016c-0.228-0.013-0.291-0.041-0.385-0.166-0.1-0.134-0.113-0.236-0.13-0.981-0.020-0.889 0.043-1.511 0.211-2.090 0.095-0.329 0.102-0.504 0.088-2.201-0.015-1.811-0.017-1.849-0.139-2.094-0.106-0.213-0.12-0.301-0.094-0.61 0.016-0.198 0.044-1.029 0.061-1.846 0.024-1.152 0.049-1.533 0.113-1.697 0.087-0.226 0.168-1.18 0.213-2.506 0.015-0.445 0.037-0.809 0.050-0.809s0.112 0.057 0.221 0.127c0.157 0.101 0.296 0.133 0.675 0.158 0.263 0.017 0.656 0.054 0.875 0.083 0.585 0.077 1.261 0.068 1.732-0.023 0.353-0.068 1.505-0.133 3.519-0.2 0.248-0.008 0.481-0.026 0.517-0.040 0.050-0.019 0.071 0.159 0.087 0.744 0.029 1.038 0.116 2.027 0.213 2.413 0.059 0.235 0.082 0.639 0.085 1.538 0.003 0.671 0.028 1.339 0.056 1.485 0.114 0.594 0.121 0.957 0.021 1.109-0.086 0.131-0.091 0.246-0.057 1.327 0.020 0.651 0.056 1.252 0.079 1.336 0.025 0.093 0.014 0.257-0.029 0.419-0.094 0.357-0.090 1.374 0.008 1.848 0.089 0.433 0.112 0.88 0.093 1.819-0.013 0.63-0.017 0.648-0.167 0.809-0.146 0.156-0.174 0.165-0.544 0.161-0.214-0.002-0.42-0.016-0.456-0.031zM16.793 22.607c-0.217-0.094-0.385-0.367-0.385-0.625-0-0.284 0.262-0.565 0.566-0.606 0.74-0.099 0.995 0.947 0.301 1.236-0.214 0.090-0.265 0.089-0.482-0.006z"></path>
</svg>
