<!-- Generated by IcoMoon.io -->
<svg version="1.1" xmlns="http://www.w3.org/2000/svg" width="32" height="32" viewBox="0 0 32 32">
<title>fhvp</title>
<path d="M23.655 23.587c-0.068-0.095-0.134-0.191-0.205-0.305-0.146-0.231-0.278-0.472-0.384-0.724-0.085-0.201-0.151-0.407-0.196-0.669-0.008-0.047-0.016-0.095-0.022-0.142-0.002-0.019-0.004-0.037-0.006-0.056-0.001-0.002-0.002-0.017-0.003-0.028 0-0.004-0.001-0.007-0.001-0.011 0.001 0.003 0.001 0.006 0.001 0.009 0-0.002 0-0.003 0-0.005-0.005-0.118-0.007-0.235 0.001-0.353 0.003-0.053 0.008-0.106 0.015-0.159 0.004-0.032 0.009-0.063 0.014-0.095 0-0.003 0.001-0.007 0.002-0.012 0.023-0.109 0.052-0.217 0.090-0.322 0.018-0.049 0.038-0.098 0.058-0.146 0.002-0.004 0.003-0.007 0.004-0.009 0.001-0.001 0.001-0.002 0.002-0.003 0.013-0.023 0.024-0.046 0.037-0.070 0.054-0.099 0.119-0.19 0.188-0.28 0.002-0.002 0.003-0.004 0.004-0.006 0.033-0.033 0.064-0.068 0.098-0.101 0.047-0.046 0.097-0.089 0.149-0.13 0.023-0.019 0.047-0.037 0.071-0.055 0.008-0.007 0.014-0.011 0.018-0.014 0.003-0.002 0.009-0.006 0.019-0.012 0.061-0.039 0.122-0.077 0.185-0.113 0.207-0.117 0.426-0.214 0.646-0.306 0.028 0.012 0.057 0.020 0.087 0.026 0.005 0.042 0.013 0.084 0.030 0.127 0.005 0.013 0.010 0.027 0.016 0.041 0.003 0.008 0.006 0.018 0.007 0.023 0.015 0.048 0.031 0.097 0.045 0.146 0.012 0.043 0.021 0.088 0.032 0.132-0.028 0.044-0.044 0.093-0.056 0.143 0.004 0.012 0.009 0.023 0.014 0.034 0.021 0.105 0.039 0.211 0.052 0.318 0.028 0.057 0.056 0.114 0.083 0.171v0.001c0.004 0.192-0.007 0.384-0.032 0.575-0.006 0.044-0.014 0.089-0.021 0.134-0.001 0.003-0.001 0.006-0.001 0.008-0.001 0.004-0.002 0.008-0.003 0.013-0.005 0.022-0.009 0.044-0.014 0.066-0.023 0.099-0.049 0.197-0.080 0.294-0.027 0.086-0.057 0.171-0.091 0.255-0.017 0.042-0.034 0.083-0.053 0.125-0.006 0.013-0.012 0.026-0.018 0.039-0.004 0.009-0.027 0.054-0.029 0.057-0.091 0.176-0.202 0.339-0.308 0.507-0.116 0.185-0.226 0.386-0.276 0.601-0.003 0.010-0.003 0.021-0.006 0.031 0.022 0.092 0.056 0.177 0.095 0.258 0.026 0.185 0.058 0.369 0.106 0.547-0.156-0.158-0.283-0.341-0.365-0.553zM19.963 24.746c-0.457 0.080-0.913 0.172-1.375 0.218-0.024 0.003-0.048 0.004-0.072 0.007-0.011 0.001-0.035 0.003-0.037 0.003-0.051 0.003-0.101 0.006-0.151 0.008-0.109 0.004-0.218 0.005-0.328 0.002-0.097-0.003-0.194-0.009-0.291-0.019-0.048-0.004-0.096-0.011-0.144-0.017-0.024-0.004-0.048-0.008-0.072-0.011-0.010-0.002-0.017-0.003-0.021-0.003-0.002-0.001-0.004-0.001-0.008-0.002-0.195-0.043-0.382-0.101-0.567-0.177-0.004-0.002-0.021-0.009-0.029-0.013-0.015-0.007-0.030-0.015-0.045-0.023-0.040-0.021-0.079-0.043-0.117-0.066-0.082-0.050-0.157-0.108-0.235-0.165-0.001-0.001-0.002-0.001-0.002-0.002s-0.001-0.001-0.002-0.002c-0.021-0.019-0.042-0.037-0.062-0.057-0.041-0.038-0.080-0.079-0.117-0.121-0.033-0.037-0.066-0.076-0.096-0.116-0.003-0.004-0.013-0.018-0.021-0.028-0.010-0.016-0.028-0.044-0.028-0.043-0.053-0.085-0.097-0.175-0.136-0.267-0.001-0.002-0.002-0.003-0.002-0.006-0.009-0.029-0.018-0.059-0.027-0.088-0.014-0.054-0.025-0.109-0.034-0.164-0.005-0.033-0.017-0.066-0.033-0.096 0.912-0.179 1.722-0.676 2.57-1.065 0.124-0.057 0.25-0.111 0.377-0.161 0.026-0.010 0.051-0.019 0.076-0.029 0.008-0.003 0.014-0.005 0.021-0.007 0.002-0.001 0.008-0.002 0.019-0.007 0.071-0.024 0.142-0.047 0.214-0.067 0.124-0.036 0.25-0.065 0.377-0.088 0.056-0.009 0.111-0.017 0.167-0.024 0.009-0.002 0.017-0.003 0.022-0.004 0.006 0.001 0.012 0.001 0.021 0.001 0.036-0.001 0.071-0.002 0.107-0.001 0.024 0.001 0.048 0.002 0.071 0.004 0.006 0.001 0.081 0.014 0.068 0.009 0.015 0.004 0.029 0.008 0.044 0.012-0.003-0.001 0.026 0.009 0.047 0.016 0.014 0.008 0.052 0.026 0.051 0.025 0.018 0.011 0.035 0.024 0.053 0.035 0.007 0.004 0.011 0.007 0.016 0.009 0.003 0.003 0.006 0.006 0.010 0.010 0.023 0.023 0.046 0.044 0.068 0.068 0.014 0.016 0.029 0.033 0.042 0.049 0.004 0.006 0.033 0.045 0.039 0.051 0.022 0.033 0.042 0.066 0.061 0.1 0.061 0.108 0.113 0.22 0.161 0.334 0.011 0.024 0.020 0.049 0.030 0.073 0.008 0.022 0.017 0.043 0.024 0.065 0.001 0.002 0.002 0.004 0.003 0.007 0.023 0.069 0.045 0.138 0.065 0.207 0.040 0.14 0.072 0.281 0.096 0.424 0.013 0.078 0.024 0.156 0.033 0.235 0.002 0.019 0.004 0.040 0.006 0.059 0 0 0.005 0.068 0.006 0.077 0.008 0.158 0.006 0.316-0.004 0.474-0.007 0.111 0.042 0.221 0.122 0.298-0.338-0.066-0.695-0.001-1.030 0.058zM27.095 26.619c0.006-0.609-0.255-1.174-0.654-1.622-0.024-0.041-0.053-0.079-0.080-0.119-0.043-0.341 0.028-0.682 0.121-1.022 0.143-0.526 0.323-1.058 0.303-1.611-0.033-0.925-0.563-1.792-1.364-2.251-0.046-0.244-0.108-0.484-0.199-0.721-0.026-0.067-0.080-0.118-0.145-0.152 0.035-0.184-0.039-0.368-0.202-0.488-0.041-0.029-0.080-0.058-0.12-0.087 0.087-0.155 0.070-0.341-0.049-0.49-0.077-0.096-0.153-0.192-0.226-0.29-0.037-0.049-0.073-0.098-0.109-0.149-0.009-0.012-0.018-0.025-0.027-0.037 0.013 0.018-0.051-0.073-0.058-0.085-0.138-0.202-0.268-0.41-0.39-0.623-0.021-0.037-0.040-0.076-0.060-0.113-0.087-0.065-0.174-0.13-0.262-0.192-0.137-0.096-0.276-0.191-0.419-0.276-0.013-0.008-0.073-0.037-0.134-0.067-0.966-0.194-1.908-0.377-2.954-0.138-0.016 0.025-0.029 0.051-0.045 0.076-0.285 0.068-0.567 0.147-0.845 0.224-0.028 0.008-0.057 0.016-0.085 0.024-0.037-0.020-0.073-0.044-0.109-0.066-1.101 0.256-2.241 0.521-3.202 1.067-2.178 1.238-1.819 4.17-3.597 5.625-0.004 0.015-0.009 0.030-0.013 0.046-0.14 0.162-0.263 0.339-0.36 0.531-0.246 0.488-0.369 1.027-0.377 1.573-0.008 0.619 0.113 1.231 0.281 1.824 0.153 0.54 0.311 1.101 0.581 1.596 0.177 0.325 0.405 0.6 0.685 0.817 1.069 0.455 2.006 0.305 3.221 0.143 1.275-0.169 2.497-0.156 3.666 0.278 0.604 0.055 1.208 0.111 1.813 0.15 0.271 0.017 0.55 0.010 0.817-0.038 0.243-0.044 0.46-0.135 0.664-0.26 0.037 0.004 0.075 0.003 0.113-0.009 0.741-0.242 1.23-0.938 1.155-1.723-0.033-0.353-0.199-0.703-0.444-0.958-0.134-0.139-0.289-0.234-0.449-0.337 0.235 0.085 0.47 0.169 0.705 0.253 0.132 0.047 0.32 0.010 0.438-0.058 0.035-0.021 0.068-0.047 0.1-0.076 0.106-0.049 0.193-0.155 0.212-0.266l0.269-0.547c0.021-0.043 0.041-0.086 0.062-0.128 0.001 0.038-0.001 0.077-0.004 0.115-0.002 0.024-0.005 0.049-0.008 0.074-0.002 0.012-0.003 0.024-0.005 0.037 0.005-0.022 0.005-0.021-0.001 0.003-0.040 0.204-0.12 0.399-0.2 0.591-0.166 0.398-0.315 0.802-0.268 1.24 0.020 0.189 0.098 0.38 0.248 0.489 0.058 0.088 0.152 0.151 0.276 0.149 0.13-0.002 0.25-0.034 0.355-0.090 0.159-0.061 0.309-0.148 0.442-0.256 0.561-0.297 0.933-0.92 0.939-1.575z"></path>
<path d="M23.157 17.376c-0.017-0.042-0.033-0.085-0.050-0.127-0.001-0.003-0.002-0.005-0.003-0.007-0.001-0.003-0.002-0.006-0.003-0.009-0.008-0.023-0.017-0.046-0.026-0.069-0.046-0.127-0.089-0.254-0.13-0.383-0.074-0.234-0.14-0.47-0.197-0.709-0.058-0.244-0.108-0.491-0.147-0.739-0.018-0.115-0.035-0.23-0.049-0.345-0.008-0.061-0.014-0.122-0.021-0.182-0.001-0.009-0.006-0.061-0.007-0.072-0.002-0.024-0.004-0.048-0.007-0.072-0.039-0.495-0.041-0.993-0.003-1.488 0.041-0.536 0.127-1.068 0.21-1.6 0.084-0.538 0.165-1.080 0.191-1.625 0.026-0.547-0.008-1.098-0.088-1.64-0.121-0.81-0.365-1.607-0.72-2.35l-0.215-0.449c-0.14-0.333-0.409-1.046-0.563-1.373-0.368 2.070-0.915 4.921-0.606 6.936 0.095 0.618 0.344 2.327 0.566 2.912 0.008 0.022 0.022 0.044 0.039 0.065 0.165 0.555 0.329 1.11 0.493 1.665 0.108 0.592 0.265 1.176 0.477 1.742 0.001 0.004 0.003 0.008 0.004 0.012-0.025 0.005-0.051 0.009-0.076 0.013-0.078 0.003-0.156 0-0.234-0.008-0.052-0.006-0.102-0.001-0.151 0.009 0.077-0.606-0.097-1.288-0.231-1.837-0.275-1.131-0.645-2.236-0.919-3.367-0.136-0.563-0.249-1.132-0.312-1.708-0.003-0.025-0.005-0.050-0.008-0.075-0.001-0.013-0.003-0.035-0.004-0.045-0.004-0.057-0.009-0.113-0.013-0.17-0.007-0.101-0.012-0.202-0.016-0.303 0.001-0.068 0.003-0.137 0.006-0.206 0.047-1.16 0.661-5.245 0.628-6.288-0.002-0.004-0.331-0.557-0.334-0.562-0.008-0.032-0.017-0.065-0.026-0.097-0.159-0.245-0.274-0.52-0.403-0.783-0.083-0.042-0.178-0.057-0.281-0.028-0.033 0.009-0.063 0.022-0.093 0.037-0.006 0.751-0.018 1.503-0.076 2.254-0.004 0.054-0.016 0.104-0.027 0.154-0.004 0.364-0.016 0.729-0.041 1.092-0.070 1.023-0.195 2.043-0.244 3.068-0.020 0.417-0.023 0.833-0.007 1.247-0.010 0.353-0.003 0.706 0.028 1.058 0.056 0.623 0.179 1.232 0.334 1.839 0.143 0.56 0.305 1.116 0.433 1.68 0.063 0.274 0.117 0.55 0.159 0.828 0.010 0.066 0.019 0.132 0.027 0.198 0.005 0.040 0.009 0.080 0.014 0.119 0.001 0.006 0.001 0.011 0.002 0.016 0 0.001 0 0.002 0 0.003 0.011 0.146 0.021 0.292 0.023 0.438 0.005 0.288-0.015 0.572-0.057 0.857-0.001 0-0.001 0.001-0.001 0.001-0.001 0.004-0.002 0.008-0.002 0.013-0.007 0.032-0.013 0.065-0.020 0.097-0.014 0.064-0.029 0.128-0.046 0.191-0.034 0.127-0.073 0.252-0.12 0.374-0.010 0.027-0.021 0.053-0.032 0.080 0.034 0.175 0.143 0.36 0.24 0.543 0.13 0.073 0.255 0.171 0.373 0.3 0.372 0.409 0.989 0.556 1.493 0.287 0.375-0.2 0.865-0.858 0.945-1.368-0.024-0.016-0.048-0.031-0.073-0.043z"></path>
<path d="M18.053 18.512c-0.107-0.447-0.254-0.881-0.469-1.301-0.186-0.131-0.368-0.269-0.545-0.412-0.019-0.016-0.039-0.032-0.059-0.048-0.006-0.005-0.033-0.028-0.049-0.041-0.051-0.043-0.101-0.086-0.151-0.13-0.123-0.108-0.245-0.219-0.365-0.332-0.888-0.839-1.658-1.793-2.378-2.778-0.181-0.248-0.36-0.498-0.537-0.75-0.037-0.052-0.073-0.105-0.11-0.157-0.022-0.031-0.044-0.063-0.066-0.095-0.004-0.006-0.007-0.009-0.009-0.013s-0.006-0.008-0.009-0.013c-0.095-0.137-0.189-0.274-0.283-0.411-0.356-0.517-0.71-1.036-1.072-1.547-0.677-0.954-1.388-1.888-2.191-2.739-0.909-0.962-1.944-1.824-3.122-2.436-0.144-0.075-0.324-0.086-0.464-0.012 0.041 0.080 0.077 0.162 0.1 0.247 0.017 0.065 0.026 0.128 0.030 0.191 0.026 0.147 0.038 0.299 0.044 0.45 0.414 0.25 0.814 0.524 1.194 0.823 0.002 0.001 0.004 0.003 0.006 0.004l0.062 0.049c0.034 0.028 0.069 0.055 0.103 0.083 0.028 0.023 0.056 0.046 0.085 0.069 0.001 0.001 0.033 0.028 0.048 0.041 0.014 0.012 0.028 0.024 0.029 0.025 0.028 0.023 0.055 0.047 0.083 0.071 0.055 0.048 0.11 0.096 0.163 0.145 0.209 0.186 0.412 0.379 0.609 0.577 0.799 0.799 1.516 1.677 2.189 2.583 0.17 0.229 0.336 0.459 0.502 0.69 0.082 0.116 0.165 0.232 0.246 0.348 0.040 0.056 0.078 0.111 0.117 0.167 0.022 0.031 0.043 0.061 0.064 0.091-0.001-0.001-0.001-0.002-0.002-0.003 0.007 0.010 0.014 0.020 0.017 0.025 0.341 0.492 0.677 0.986 1.013 1.481 0.734 1.081 1.459 2.169 2.116 3.299 0.16 0.275 0.318 0.552 0.46 0.837 0.068 0.135 0.133 0.271 0.194 0.409 0.030 0.069 0.059 0.138 0.087 0.208 0.011 0.027 0.021 0.054 0.031 0.081 0.009 0.023 0.067 0.167 0.019 0.048 0.085 0.209 0.141 0.438 0.179 0.664-0.077 0.029-0.15 0.072-0.224 0.127-0.072 0.052-0.145 0.105-0.217 0.158-0.009-0.14-0.023-0.278-0.042-0.415-0.151-1.089-0.736-2.059-1.308-2.989-0.591-0.961-1.298-1.849-1.99-2.738-0.73-0.937-1.35-1.918-2.062-2.868-1.357-1.812-2.704-2.932-3.643-3.229-0.017 0.065-0.024 0.135-0.018 0.209 0.088 1.17 0.179 2.348 0.462 3.49 0.147 0.591 0.345 1.175 0.609 1.724s0.601 1.063 0.968 1.55c0.723 0.96 1.592 1.795 2.429 2.652 0.418 0.429 0.83 0.864 1.213 1.325 0.191 0.23 0.372 0.467 0.547 0.71 0.003 0.004 0.008 0.012 0.014 0.020 0.019 0.027 0.037 0.054 0.056 0.082 0.034 0.051 0.068 0.103 0.101 0.155 0.075 0.116 0.146 0.235 0.215 0.354 0.121 0.212 0.534 1.68 0.634 1.902 0.222 0.13 0.13-0.967 0.323-0.786 0.013 0.012 0.327 0.238 0.462 0.343 0.103 0.024 0.177 0.042 0.22 0.054 0.101 0.002 0.202 0.001 0.303-0.006 0.015-0.001 0.026-0.002 0.039-0.002 0.186-0.040 0.372-0.086 0.555-0.14-0.007 0.002 0.707-0.245 0.631-0.204 0.397-0.162 0.787-0.343 1.174-0.534 0.26-0.189 0.675-0.487 0.623-0.778-0.038-0.217-0.028-0.439 0.019-0.651z"></path>
<path d="M17.337 26.523c-2.784 0.558-4.676-2.955-7.054-3.857-2.839-1.077-6.023 0.687-8.768-0.635-0.107-0.052-0.214-0.077-0.317-0.084l0.349 0.645-1.142 0.618c0.063 0.072 0.145 0.138 0.254 0.19 1.432 0.69 2.885 0.788 4.455 0.665 1.739-0.135 3.615-0.496 5.219 0.398 2.496 1.39 4.127 4.282 7.388 3.629 1.019-0.204 0.637-1.774-0.383-1.569z"></path>
<path d="M17.384 18.726c-1.792 2.202-5.488 0.696-7.896 1.514-2.876 0.976-4.209 4.363-7.168 5.090-0.116 0.028-0.214 0.077-0.298 0.136l0.68 0.276-0.488 1.204c0.095 0.016 0.2 0.014 0.317-0.014 1.543-0.379 2.728-1.229 3.86-2.322 1.255-1.211 2.473-2.683 4.279-3.015 2.81-0.516 5.909 0.677 8.008-1.902 0.656-0.806-0.637-1.774-1.294-0.967z"></path>
</svg>
