<!-- Generated by IcoMoon.io -->
<svg version="1.1" xmlns="http://www.w3.org/2000/svg" width="38" height="32" viewBox="0 0 38 32">
<title>fleur_top_right</title>
<path d="M37.987 31.658c0 0-3.177 1.403-6.066-1.474s-5.392-7.337-4.405-15.368c0.925-7.533 0.321-10.583-4.838-11.087-5.575-0.544-11.129 6.709-13.649 3.088-0.73-1.049 2.599-4.702-1.951-4.561 0 0-1.61-0.127-3.105 1.684-1.506 1.826-2.264 0.507-1.733-0.702 0.458-1.043-0.722-1.473-2.238-1.473v-0.913c0 0 1.641 0 2.566 0.548 0.36 0.214 0.485 0.623 0.3 1.299-0.082 0.298-0.503 1.204-0.199 1.071 0.216-0.095 0.413-0.317 0.958-1.138 0.189-0.284 0.76-1.062 1.202-1.324 0.672-0.396 0.986-0.456 2.323-0.456 2.528 0 4.333 1.895 3.611 3.369s-0.955 2.148-0.305 2.358 2.255-0.113 7.671-2.99c5.416-2.877 8.666-1.825 10.688 0.772s0.202 9.472-0.073 14.034c-0.332 5.532 2.945 13.605 9.244 12.491z"></path>
<path d="M29.283 3.841c0.249-0.099 0.499-0.196 0.752-0.282 1.97-0.669 4.171 0.2 5.202 1.888 1.321 2.167 1.002 5.066 0.258 7.375-0.578 1.797-1.628 3.539-2.384 5.287-0.612 1.414-1.316 2.852-1.472 4.388-0.255 2.508 0.32 5.847 2.35 7.615 0.784 0.683 2.298 1.329 3.388 1.162l0.611-0.389c-5.115-0.111-6.002-6.603-4.821-10.279 0.405-1.259 1.032-2.415 1.725-3.804 0.868-1.74 1.923-3.299 2.474-5.196 0.786-2.702 0.911-6.453-0.459-9.014-0.736-1.377-2.512-2.491-3.953-2.582-1.633-0.104-3.354 0.568-4.729 1.362-0.357 0.206-0.703 0.427-1.048 0.648 0.779 0.436 1.482 1.044 2.106 1.82z"></path>
<path d="M15.493 9.099c2.905 0.007 5.233-1.216 7.632-2.25 0.914-0.394 1.799-0.858 2.684-1.325-0.537-0.474-1.28-0.794-2.268-0.982-1.818 1.283-3.683 2.487-5.907 3.21-1.368 0.445-4.362 1.010-3.572-1.394-0.167-0.008-0.48 0.066-0.634 0.131-0.238 1.651 0.052 2.604 2.064 2.608z"></path>
</svg>
