<!-- Generated by IcoMoon.io -->
<svg version="1.1" xmlns="http://www.w3.org/2000/svg" width="39" height="32" viewBox="0 0 39 32">
<title>fleur_bottom_right</title>
<path d="M38.961 0.342c0 0-3.259-1.403-6.222 1.474s-5.53 7.337-4.519 15.367c0.949 7.533 0.329 10.583-4.962 11.087-5.718 0.544-11.415-6.709-13.999-3.088-0.749 1.049 2.666 4.702-2 4.561 0 0-1.653 0.127-3.185-1.684-1.545-1.826-2.323-0.507-1.779 0.702 0.47 1.043-0.741 1.473-2.296 1.473v0.913c0 0 1.684 0 2.632-0.548 0.37-0.214 0.498-0.623 0.308-1.299-0.084-0.298-0.516-1.204-0.203-1.071 0.22 0.095 0.423 0.317 0.983 1.138 0.193 0.284 0.779 1.062 1.233 1.324 0.689 0.396 1.010 0.456 2.381 0.456 2.593 0 4.445-1.895 3.704-3.369s-0.978-2.148-0.312-2.358c0.667-0.21 2.312 0.113 7.867 2.99 5.556 2.877 8.889 1.825 10.962-0.772s0.207-9.472-0.074-14.034c-0.342-5.532 3.020-13.605 9.481-12.49z"></path>
<path d="M30.034 28.159c0.255 0.099 0.511 0.196 0.771 0.282 2.021 0.669 4.279-0.2 5.335-1.888 1.355-2.167 1.027-5.066 0.266-7.375-0.593-1.797-1.671-3.539-2.446-5.287-0.628-1.414-1.35-2.853-1.511-4.388-0.261-2.508 0.329-5.847 2.411-7.615 0.805-0.683 2.358-1.329 3.475-1.162l0.627 0.389c-5.246 0.111-6.156 6.603-4.945 10.278 0.415 1.259 1.059 2.415 1.769 3.804 0.889 1.74 1.973 3.299 2.537 5.196 0.806 2.702 0.935 6.453-0.47 9.014-0.755 1.377-2.577 2.491-4.055 2.582-1.674 0.104-3.44-0.568-4.85-1.362-0.366-0.206-0.721-0.427-1.075-0.648 0.799-0.436 1.519-1.045 2.16-1.82z"></path>
<path d="M15.891 22.901c2.979-0.007 5.367 1.216 7.828 2.25 0.938 0.395 1.846 0.858 2.752 1.325-0.551 0.474-1.312 0.794-2.325 0.982-1.865-1.283-3.778-2.487-6.059-3.21-1.403-0.445-4.473-1.010-3.662 1.394-0.173 0.007-0.493-0.066-0.651-0.132-0.244-1.651 0.053-2.604 2.117-2.608z"></path>
</svg>
