<!-- Generated by IcoMoon.io -->
<svg version="1.1" xmlns="http://www.w3.org/2000/svg" width="33" height="32" viewBox="0 0 33 32">
<title>flooded_caves</title>
<path d="M15.54 27.479c1.136-0.067 2.261-0.22 3.392-0.334 0.268-0.027 0.538-0.038 0.808-0.047 0.008-0.030 0.019-0.059 0.034-0.087-1.731-0.218-3.51-0.222-5.289-0.181-0.028 0.020-0.060 0.035-0.104 0.034-0.223-0.001-0.445-0.007-0.667-0.013-0.926 0.026-1.848 0.058-2.762 0.071-0.034 0.003-0.067 0.007-0.1 0.010-0.338 0.053-0.673 0.114-1.010 0.166-0.022 0.020-0.045 0.040-0.066 0.063 1.924 0.079 3.815 0.433 5.764 0.318z"></path>
<path d="M26.145 28.4c-1.283-0.147-2.613-0.137-3.946-0.058-1.541-0.093-3.135-0.215-4.684-0.109-1.182 0.012-2.415 0.203-3.565 0.376 0.79 0.046 1.578 0.098 2.368 0.146 1.229-0.009 2.46-0.018 3.689-0.019 1.402-0.001 2.805-0.011 4.204-0.080 0.081-0.005 0.163-0.012 0.244-0.019 0.346-0.027 0.689-0.059 1.032-0.084 0.24-0.024 0.48-0.049 0.72-0.073 0.008-0.043-0.009-0.075-0.062-0.080z"></path>
<path d="M15.918 29.691c-0.222-0.021-0.444-0.046-0.665-0.069-0.358 0.002-0.716 0.008-1.071 0.012-1.397 0.019-2.763 0.108-4.147 0.291-0.023 0.003-0.093 0.072-0.050 0.072 1.285 0.010 2.565-0.016 3.85-0.037 1.327-0.021 2.663 0.034 3.989-0.023 0.035-0.002 0.108-0.061 0.152-0.115-0.683 0.040-1.383-0.068-2.057-0.132z"></path>
<path d="M21.481 19.782c-0.102 0.003-0.204 0.007-0.307 0.009-1.562 0.038-3.125 0.091-4.687 0.079-1.583-0.013-3.163-0.093-4.744-0.124-1.288-0.026-2.575 0.025-3.862 0.034 2.089-0.115 4.184-0.167 6.278-0.192 0.775 0.025 1.552 0.047 2.328 0.053 1.6 0.012 3.2-0.043 4.8-0.081 0.112-0.002 0.225-0.005 0.339-0.010 0.906 0.006 1.812 0.025 2.717 0.058-0.953 0.037-1.911 0.090-2.862 0.174zM22.344 22.244c-0.912 0.001-1.824 0.005-2.734 0.035-0.041 0.001-0.073-0.011-0.1-0.028 0.531-0.060 1.062-0.164 1.593-0.178 0.585-0.017 1.167 0.019 1.744 0.094-0.167 0.026-0.335 0.053-0.502 0.078zM8.283 14.881c0.085-0.209 0.17-0.417 0.254-0.626 0.122-0.214 0.255-0.417 0.405-0.616-0.021 0.003-0.043 0.003-0.065 0 0.023-0.039 0.046-0.078 0.069-0.117 0.010-0.017 0.017-0.031 0.021-0.045 0.185-0.328 0.389-0.631 0.61-0.936 0.299-0.412 0.735-0.727 1.138-1.045 0.009 0.015 0.017 0.030 0.021 0.047 0.039-0.035 0.077-0.069 0.117-0.104 0.359-0.244 0.744-0.454 1.145-0.631 0.011 0.019 0.040 0.022 0.102-0.008 0.277-0.136 0.557-0.253 0.846-0.354 0.378-0.105 0.757-0.203 1.14-0.291-0.317 0.12-0.628 0.257-0.937 0.399-0.345 0.122-0.684 0.263-1.014 0.424-0.66 0.32-1.365 0.654-1.78 1.28-0.051 0.042-0.095 0.090-0.125 0.141-0.021 0.021-0.043 0.042-0.065 0.065 0.011-0.003 0.023-0.001 0.034-0.002-0.013 0.046-0.012 0.086-0.016 0.141-0.027 0.052-0.052 0.105-0.077 0.161-0.022 0.050-0.001 0.058 0.034 0.047-0.021 0.074-0.047 0.146-0.065 0.216-0.028 0.111 0.177-0.040 0.195-0.075 0.089-0.166 0.194-0.318 0.326-0.447 0.022-0.019 0.042-0.040 0.065-0.058 0.039-0.035 0.078-0.068 0.123-0.097 0.091-0.060 0.19-0.113 0.287-0.165 0.021 0.003 0.040 0.015 0.059 0.026-0.386 0.361-0.751 0.707-1.017 1.198-0.009 0.016-0.018 0.031-0.027 0.048-0.057 0.087-0.112 0.176-0.162 0.269-0.002 0.007-0.005 0.011-0.006 0.016-0.122 0.204-0.241 0.417-0.306 0.638-0.036-0.041-0.057-0.098-0.046-0.171 0.023-0.149 0.065-0.29 0.113-0.427-0.022-0.012-0.041-0.029-0.058-0.047 0.048-0.078 0.097-0.156 0.146-0.234 0.049-0.079 0.022-0.103-0.022-0.098 0.030-0.057 0.059-0.114 0.089-0.171 0.045-0.079-0.021-0.094-0.081-0.046-0.433 0.348-0.763 0.761-1.032 1.247-0.098 0.176-0.322 0.436-0.421 0.69-0.029-0.026-0.052-0.060-0.065-0.1 0.016-0.047 0.032-0.094 0.048-0.14zM18.878 10.59c0.514 0.050 1.008 0.097 1.495 0.326 0.471 0.222 1.139 0.65 1.258 1.195-0.001 0-0.003 0.001-0.006 0.001-0.114-0.176-0.241-0.337-0.427-0.476-0.286-0.213-0.602-0.393-0.925-0.544-0.45-0.211-0.919-0.356-1.401-0.443-0.001-0.019 0.002-0.039 0.006-0.058zM22.575 14.788c-0.008-0.025-0.015-0.050-0.023-0.075-0.142-0.389-0.248-0.712-0.49-1.003-0.122-0.145-0.187-0.232-0.263-0.317 0.106 0.049 0.209 0.105 0.303 0.192 0.138 0.126 0.241 0.28 0.356 0.421 0.030 0.097 0.067 0.238 0.088 0.271 0.061 0.177 0.008 0.335 0.029 0.511zM29.442 22.754c-0.158-0.010-0.317-0.020-0.475-0.030-0.827-0.169-1.749-0.245-2.637-0.226-0.164-0.013-0.328-0.030-0.492-0.039 0.019-0.025 0.037-0.047 0.052-0.070 0.198 0.011 0.398 0.018 0.601 0.017 0.048-0.001 0.114-0.022 0.191-0.058 0.156-0.018 0.313-0.049 0.489-0.106 0.132-0.042 0.849-0.593 1.053-0.948-0.019-0.095-0.040-0.189-0.065-0.282-0.008-0.002-0.011-0.004-0.018-0.006-0.010-0.058-0.022-0.117-0.034-0.175-0.137-0.455-0.319-0.898-0.46-1.355-0.021-0.031-0.047-0.059-0.069-0.090-0.037-0.137-0.102-0.262-0.165-0.387-0.046-0.019-0.091-0.037-0.138-0.053-0.013-0.005-0.022-0.013-0.035-0.019-0.005 0.132-0.019 0.263-0.038 0.398-0.045 0.324-0.056 0.637-0.184 0.938-0.002 0.056-0.002 0.11-0.006 0.166-0.018 0.006-0.037 0.009-0.057 0.007-0.418-0.028-0.824-0.003-1.242 0.027-0.133 0.009-0.214-0.129-0.191-0.245 0.016-0.039 0.031-0.078 0.047-0.118 0.1-0.194 0.198-0.388 0.234-0.617 0.038-0.231 0.030-0.463 0.006-0.694 0.005-0.029 0.008-0.058 0.012-0.087 0.112 0.407 0.19 0.822 0.213 1.234 0.003 0.060 0.155-0.055 0.158-0.1 0.049-0.649 0.099-1.436-0.329-1.978-0.068-0.229-0.148-0.457-0.248-0.685-0.064-0.145-0.133-0.294-0.206-0.445-0.056-0.202-0.11-0.404-0.17-0.608-0.002-0.104-0.005-0.212-0.026-0.337-0.039-0.233-0.171-0.447-0.25-0.669-0.080-0.226-0.137-0.458-0.192-0.692-0.073-0.119-0.149-0.239-0.224-0.359-0.028-0.139-0.070-0.28-0.125-0.419-0.128-0.326-0.233-0.772-0.456-1.046-0.022-0.027-0.049-0.050-0.075-0.072-0.052-0.084-0.107-0.164-0.164-0.24-0.106-0.144-0.328-0.441-0.559-0.639 0.617 0.397 1.014 0.851 1.345 1.527 0.019 0.017 0.037 0.036 0.050 0.065 0.035 0.070 0.066 0.143 0.098 0.214 0.244 0.432 0.533 0.841 0.731 1.293 0.045 0.064 0.090 0.128 0.135 0.193 0.123 0.264 0.263 0.524 0.36 0.773 0.193 0.493 0.418 0.935 0.746 1.354 0.006 0.008 0.016 0.011 0.025 0.013 0.007 0.016 0.013 0.031 0.020 0.047 0.048 0.024 0.087 0.061 0.103 0.115 0.027 0.086 0.056 0.172 0.085 0.259 0.149 0.28 0.315 0.555 0.492 0.824-0.098-0.466-0.181-0.938-0.235-1.398-0.005-0.039 0.010-0.067 0.032-0.085-0.093-0.226-0.189-0.453-0.29-0.676-0.003-0.009-0.005-0.018-0.009-0.027-0.154-0.232-0.315-0.46-0.489-0.68 0-0.003-0.001-0.007-0.002-0.010-0.009-0.010-0.018-0.021-0.026-0.032-0.084-0.182-0.196-0.36-0.255-0.534-0.106-0.31-0.23-0.618-0.338-0.928 0.089 0.163 0.153 0.344 0.249 0.504 0.123 0.203 0.278 0.34 0.432 0.513 0.184 0.206 0.321 0.457 0.48 0.683 0.020 0.027 0.1-0.047 0.091-0.075-0.039-0.135-0.088-0.263-0.143-0.387-0.049-0.128-0.103-0.255-0.16-0.383 0.020 0.021 0.037 0.046 0.047 0.079 0.046 0.001 0.091 0.017 0.127 0.057-0.287-0.485-0.569-0.946-0.774-1.476-0.161-0.415-0.289-0.818-0.538-1.191-0.134-0.202-0.28-0.395-0.419-0.592-0.027-0.079-0.055-0.157-0.087-0.235-0.009-0.022-0.021-0.043-0.031-0.066-0.116-0.164-0.226-0.327-0.306-0.491-0.031-0.065-0.066-0.126-0.103-0.185-0.076-0.105-0.154-0.21-0.231-0.315-0.298-0.339-0.678-0.582-1.083-0.823 0.008-0.027 0.010-0.053 0-0.071-0.164-0.298-0.502-0.467-0.783-0.64-0.085-0.051-0.168-0.097-0.253-0.145-0.234-0.058-0.472-0.101-0.703-0.127 0.027 0.026 0.053 0.050 0.081 0.075-0.617-0.179-1.34-0.156-1.94-0.263-0.046-0.008-0.167 0.109-0.112 0.129 0.331 0.116 0.657 0.249 0.982 0.385 0.184 0.133 0.356 0.287 0.518 0.451 0.248 0.176 0.451 0.397 0.581 0.669 0.023 0.050 0.022 0.104 0.006 0.153-0.298-0.297-0.655-0.5-1.044-0.636-0.262-0.14-0.563-0.238-0.873-0.301-0.003 0.035-0.016 0.068-0.034 0.097-0.141-0.018-0.282-0.031-0.424-0.039-0.243-0.059-0.488-0.112-0.734-0.152-0.062 0.002-0.127 0.004-0.185 0.009-0.066 0.006-0.114-0.017-0.145-0.053-0.975-0.123-1.967-0.105-2.962 0.023-0.299 0.038-0.592 0.092-0.882 0.152-0.002 0-0.002-0.001-0.005-0.001-1.363 0.257-2.816 0.565-3.992 1.329 0.006-0.037 0.026-0.072 0.064-0.105 0.861-0.721 2.086-1.192 3.237-1.449 0.021-0.035 0.053-0.066 0.102-0.081 1.286-0.427 2.843-0.732 4.212-0.487 0.015 0 0.030-0.002 0.046-0.003-0.019-0.078 0.017-0.168 0.085-0.219-0.057-0.010-0.114-0.020-0.171-0.030-0.068-0.013-0.113-0.065-0.13-0.125-1.127-0.037-2.239-0.172-3.36-0.073-0.144 0.042-0.291 0.102-0.441 0.165-0.207 0.008-0.414 0.017-0.621 0.029-0.039 0.002-0.078 0.008-0.117 0.011-0.046 0.012-0.091 0.023-0.137 0.037-0.051 0.016-0.096 0.008-0.133-0.011-0.956 0.125-1.908 0.508-2.566 1.204-0.925 0.482-1.783 1.072-2.524 1.778-0.995 0.947-1.931 2.443-2.233 3.947 0.022-0.031 0.042-0.064 0.066-0.094 0.042-0.056 0.086-0.108 0.128-0.162 0.341-0.833 1.023-1.484 1.558-2.188 0.027-0.036 0.062-0.047 0.098-0.047-0.003 0.004-0.007 0.009-0.009 0.012-0.187 0.328-0.466 0.602-0.624 0.944-0.020 0.028-0.039 0.057-0.060 0.085 0.026-0.029 0.049-0.058 0.075-0.087 0.308-0.346 0.577-0.774 0.952-1.047 0.018-0.013 0.036-0.021 0.053-0.027 0.054-0.027 0.114-0.022 0.167 0.002-0.209 0.244-0.39 0.505-0.541 0.788-0.286 0.419-0.544 0.862-0.734 1.316-0.011 0.013-0.022 0.026-0.034 0.039-0.279 0.55-0.394 1.192-0.601 1.774-0.037 0.105-0.067 0.211-0.096 0.317-0.126 0.679-0.17 1.325-0.097 1.987 0.015 0.104 0.030 0.206 0.045 0.31 0.041 0.17 0.087 0.338 0.136 0.505 0.019-0.154 0.039-0.305 0.065-0.446 0.086-0.484 0.242-0.936 0.407-1.388 0.001 0.109 0.002 0.22 0.007 0.329-0.112 0.452-0.152 0.911-0.059 1.369-0.005 0.030-0.011 0.058-0.016 0.088-0.049 0.302-0.083 0.623-0.126 0.94 0.107 0.332 0.215 0.665 0.309 1.001 0.026 0.093-0.032 0.229-0.138 0.244-0.175 0.025-0.332 0.045-0.471 0.009-0.002 0.003-0.002 0.007-0.005 0.010-0.056 0.132-0.284 0.127-0.341 0-0.050-0.112-0.084-0.219-0.11-0.326-0.008-0.008-0.015-0.017-0.021-0.026-0.213-0.312-0.294-0.651-0.339-1.003-0.048-0.021-0.086-0.060-0.098-0.122-0.116-0.576-0.127-1.15-0.072-1.72-0.015-0.055-0.028-0.109-0.038-0.169-0.010-0.060-0.015-0.12-0.016-0.182-0.084 0.282-0.167 0.563-0.25 0.847-0.103 0.719-0.146 1.45-0.221 2.181 0.006 0.009 0.012 0.018 0.019 0.027-0.017 0.010-0.032 0.022-0.048 0.035 0.031 0.185 0.088 0.368 0.097 0.568 0.009 0.214-0.074 0.395-0.154 0.582 0.026 0.009 0.052 0.016 0.078 0.021-0.055 0.078-0.157 0.263-0.053 0.292 0 0 0 0-0.001 0.001-0.064 0.094-0.114 0.257 0.051 0.257 0.376 0.001 0.753 0.001 1.129 0.001-0.116 0.027-0.231 0.056-0.345 0.091-0.019 0.005-0.126 0.103-0.074 0.11s0.105 0.013 0.157 0.018c-0.021 0.024-0.035 0.047-0.015 0.048 1.316 0.086 2.638-0.041 3.955-0.096 0.001 0.004 0.006 0.008 0.015 0.009 0.172 0.009 0.359 0.004 0.534-0.021 0.027-0.002 0.052-0.003 0.079-0.007 0.002 0 0.009-0.004 0.016-0.010 0.012-0.002 0.026-0.004 0.038-0.007 0 0 0.001-0.001 0-0.001-0.008-0.003-0.018-0.003-0.027-0.005 0.001-0.003 0.001-0.004-0.002-0.005-0.029-0.007-0.056-0.008-0.084-0.012-0.022-0.003-0.042-0.008-0.065-0.010-0.036-0.003-0.070-0.006-0.106-0.008-0.006 0-0.012-0.001-0.018-0.001-0.018-0.001-0.037 0-0.055-0.001-0.020 0-0.041-0.001-0.062-0.001-0.001-0.005-0.005-0.010-0.006-0.016-0.001 0-0.002 0-0.003 0-0.028 0-0.056-0.001-0.083-0.001-0.108-0.021-0.213-0.040-0.32-0.057 0.163-0.013 0.325-0.024 0.485-0.026 0.228-0.003 0.458 0 0.688-0.005 0.239 0.010 0.479 0.015 0.721 0.008 0.145 0.011 0.302 0.029 0.436 0.057 0.001 0.009 0.003 0.017 0.003 0.025-0.144 0.025-0.289 0.041-0.434 0.059-0.136 0.008-0.273 0.028-0.383 0.035-0.079 0.004-0.155 0.011-0.23 0.019-0.001 0-0.002-0.001-0.002-0.001-0.035 0.004-0.069 0.009-0.104 0.013-0.001 0.001-0.003 0.002-0.005 0.003-0.074 0.011-0.148 0.027-0.221 0.046-0.050-0.001-0.099-0.001-0.149 0-0.138 0.018-0.277 0.036-0.415 0.053-0.005 0.001-0.009 0.001-0.015 0.002-0.002-0.002-0.006-0.003-0.007-0.005-0.4 0.042-0.803 0.070-1.222 0.077-0.544 0.010-1.082 0.025-1.613 0.1-0.288 0.007-0.575 0.019-0.86 0.048-0.042 0.004-0.085 0.011-0.127 0.017-0.003 0.038-0.022 0.074-0.065 0.094-0.374 0.18-0.762 0.18-1.168 0.206-0.306 0.020-0.732 0.025-1.007 0.187-0.207 0.124-0.241 0.245-0.096 0.361 0.125 0.065 0.282 0.098 0.397 0.137 0.083 0.028 0.103 0.098 0.084 0.16 0.305 0.059 0.611 0.119 0.918 0.176 0.112 0.012 0.219 0.026 0.321 0.042 0.022 0.003 0.039 0.013 0.053 0.025 0.312 0.055 0.624 0.104 0.935 0.143 0.119-0.004 0.238-0.012 0.355-0.025 0.211-0.009 0.417-0.022 0.603-0.036 1.826 0.071 3.651 0.155 5.473 0.301-0.501 0.038-0.997 0.097-1.46 0.13-1.462 0.106-2.926 0.154-4.386 0.27-0.060 0.004-0.158 0.079-0.237 0.162-0.056 0.001-0.113 0.002-0.168 0.002-0.026 0.001-0.106 0.083-0.067 0.090 1.626 0.363 3.406 0.452 5.11 0.316 0.415 0.037 0.83 0.071 1.245 0.097 0.421-0.012 0.842-0.030 1.264-0.051 0.45 0.028 0.907-0.011 1.361-0.053 1.165-0.030 2.327 0.005 3.489 0.057 0 0.001 0 0.001 0 0.001 1.725 0.090 3.475 0.209 5.189-0.056 0.068-0.010 0.303-0.219 0.163-0.226-0.877-0.045-1.746-0.162-2.62-0.238-0.383-0.034-0.765-0.056-1.148-0.090-0.021-0.002-0.051-0.007-0.085-0.012 0.046-0.020 0.091-0.041 0.137-0.058 1.572-0.211 3.165-0.22 4.757-0.215 0.29-0.039 0.582-0.059 0.871-0.099 0.069-0.068 0.113-0.147 0.028-0.154-0.228-0.018-0.455-0.029-0.682-0.036-0.010-0.010-0.023-0.018-0.049-0.020-0.065-0.006-0.128-0.011-0.192-0.017 0-0.001-0.001-0.001-0.001-0.002-0.201-0.005-0.402-0.016-0.602-0.037-0.026-0.003-0.043-0.015-0.062-0.023-0.23-0.007-0.461-0.016-0.692-0.021-0.153-0.006-0.306-0.011-0.458-0.015-0.116-0.032-0.234-0.058-0.355-0.079-0.544-0.011-1.089-0.026-1.633-0.061-0.015 0-0.027-0.004-0.039-0.008-0.325 0.011-0.645 0.026-0.949 0.028-0.005 0-0.009 0-0.013 0-0.2 0.019-0.398 0.042-0.598 0.072-0.070 0.011-0.126-0.015-0.167-0.055-0.168 0.003-0.338 0.009-0.506 0.012-0.655 0.022-1.308 0.056-1.963 0.097-0.587 0.036-1.174 0.062-1.759 0.087 0.053-0.038 0.112-0.083 0.17-0.131 0.124-0.009 0.247-0.026 0.366-0.040 0.439-0.053 0.879-0.125 1.319-0.186 0.031-0.004 0.132-0.093 0.145-0.138 0.032-0.030 0.060-0.070 0.027-0.090-0.289-0.174-0.744-0.184-1.081-0.224-0.207-0.025-0.417-0.040-0.626-0.039-0.021-0.007-0.042-0.012-0.072-0.013-0.154-0.003-0.31-0.009-0.464-0.015-0.892-0.036-1.846-0.118-2.798-0.149-0.538-0.043-1.331-0.106-1.593-0.183 0.067-0.032 0.136-0.061 0.209-0.087 0.885-0.158 1.833-0.257 2.723-0.282 0.038-0.001 0.068 0.010 0.094 0.025 0.387-0.019 0.773-0.052 1.159-0.084 0.034-0.002 0.058 0.005 0.081 0.017 0.209-0.028 0.418-0.048 0.628-0.059 0.271-0.037 0.541-0.079 0.805-0.132 0.119-0.009 0.236-0.018 0.35-0.026 0.023-0.001 0.070-0.036 0.099-0.070 0.010-0.002 0.020-0.003 0.029-0.006-0.008 0-0.017 0-0.025-0.001 0.025-0.030 0.032-0.059-0.006-0.061-0.503-0.034-1.031-0.061-1.543-0.026-0.007-0.011-0.015-0.022-0.019-0.034 0.662-0.020 1.315-0.077 1.989-0.020 0.244 0.021 0.489 0.028 0.734 0.028 0.249 0.077 0.526 0.042 0.786 0.009 0.205-0.026 0.412-0.052 0.618-0.081 0.384 0.007 0.767 0.013 1.151 0.025-0.605 0.037-1.209 0.090-1.812 0.151-0.007 0.015-0.018 0.027-0.030 0.038-0.129 0.010-0.258 0.022-0.379 0.035-0.106 0.011-0.216 0.019-0.315 0.066-0.045 0.021-0.081 0.052-0.118 0.082-0.164 0.055-0.313 0.109-0.489 0.117-0.003 0-0.005-0.001-0.008-0.001-0.172 0.039-0.355 0.055-0.528 0.071-0.721 0.069-1.444 0.024-2.159 0.158-0.026 0.004-0.048 0-0.067-0.009-0.115 0.011-0.228 0.023-0.342 0.034-0.034 0.002-0.161 0.115-0.103 0.128 0.157 0.037 0.122 0.035 0.248 0.029-0.007 0.018-0.003 0.030 0.021 0.030 0.031 0 0.064 0.001 0.095 0.001 0.006 0.002 0.010 0.004 0.020 0.004 0.015 0 0.030-0.002 0.045-0.003 0.222 0.003 0.443 0.015 0.664 0.022 3.071 0.347 6.189 0.43 9.286 0.396 0.276-0.018 0.551-0.043 0.824-0.080 0.522-0.017 1.042-0.056 1.544-0.202 0.043-0.013 0.292-0.223 0.173-0.25-0.023-0.005-0.048-0.009-0.073-0.013 0.002-0.025-0.011-0.042-0.052-0.047-0.92-0.086-1.938-0.187-2.91-0.134 0 0-0.001-0.001-0.002-0.001-0.091 0-0.185-0.003-0.279-0.005 0.398-0.070 0.797-0.145 1.2-0.17 0.104-0.003 0.205-0.006 0.308-0.009 0.522-0.001 1.031 0.059 1.551-0.022 0.769 0.056 1.609-0.036 2.226-0.28 0.096-0.038 0.561-0.441 0.268-0.458z"></path>
</svg>
