<!-- Generated by IcoMoon.io -->
<svg version="1.1" xmlns="http://www.w3.org/2000/svg" width="32" height="32" viewBox="0 0 32 32">
<title>forgotten_ruins</title>
<path d="M23.46 27.406c-1.179-0.259-1.589-0.706-1.123-1.221 0.206-0.227 0.506-0.303 1.2-0.303 1.076 0 2.621 0.414 2.617 0.701-0.009 0.697-1.374 1.114-2.694 0.824zM6.748 26.844c-1.124-0.72-0.498-0.994 1.874-0.821 1.233 0.090 1.551 0.168 1.75 0.434 0.398 0.532-0.070 0.733-1.694 0.73-1.135-0.002-1.499-0.067-1.93-0.343zM7.769 24.896c-1.416-0.288-1.934-0.546-2.062-1.026-0.094-0.355-0.060-0.481 0.153-0.556 0.151-0.053 0.396-0.201 0.546-0.329 0.213-0.182 0.403-0.196 0.885-0.062 0.478 0.132 0.79 0.112 1.409-0.090 0.968-0.317 1.638-0.229 3.646 0.479 1.294 0.456 1.679 0.519 3.199 0.52 1.336 0.001 1.821-0.060 2.141-0.269 0.228-0.149 0.664-0.295 0.969-0.324 0.685-0.065 0.854-0.618 0.305-1.002l-0.35-0.245 0.361-0.114c0.524-0.166 1.207 0.392 1.272 1.039 0.034 0.338-0.023 0.519-0.163 0.527-0.291 0.016 1.019 0.614 1.379 0.63 0.18 0.008 0.286-0.108 0.286-0.311 0-0.659 0.57-0.798 2.748-0.665 2.212 0.134 2.608 0.303 2.424 1.034-0.161 0.64-1.563 0.947-3.538 0.775-0.854-0.074-1.869-0.232-2.255-0.35-0.621-0.19-0.829-0.178-1.798 0.107-1.637 0.481-3.672 0.435-5.345-0.121-0.719-0.239-1.547-0.474-1.839-0.523-0.475-0.079-0.531-0.047-0.531 0.3 0 0.289-0.132 0.435-0.515 0.568-0.584 0.204-2.35 0.209-3.326 0.011zM8.014 22.254c-2.221-0.176-2.452-0.328-2.452-1.618 0-0.745 0.035-0.811 0.531-1.018 0.406-0.168 0.956-0.191 2.329-0.094 0.989 0.070 2.107 0.131 2.485 0.137 0.652 0.010 0.696 0.042 0.857 0.623 0.191 0.687 0.222 1.517 0.073 1.907-0.113 0.295-0.75 0.306-3.824 0.063zM22.309 21.721c-0.469-0.469-0.5-0.767-0.137-1.321 0.257-0.392 0.318-0.403 2.247-0.4 1.247 0.001 2.13 0.077 2.379 0.204 0.462 0.236 0.741 0.944 0.598 1.516l-0.101 0.402h-2.293c-2.216 0-2.306-0.013-2.694-0.401zM22.312 19.339c-0.065-0.105-0.127-1.173-0.139-2.373-0.020-2.034-0.043-2.188-0.348-2.27-0.605-0.163-2.071-0.094-3 0.141-1.717 0.434-3.307 0.485-4.92 0.159-0.813-0.164-1.478-0.348-1.478-0.407s0.23-0.204 0.511-0.32c0.41-0.17 0.742-0.173 1.68-0.015 1.386 0.233 3.092 0.048 3.792-0.411 0.37-0.243 0.807-0.304 2.264-0.318l1.805-0.018 0.106-1.29c0.058-0.71 0.161-2.044 0.229-2.965s0.185-1.675 0.262-1.675 0.12-0.083 0.098-0.185c-0.052-0.234 1.441-0.587 2.792-0.659l1.035-0.055 0.32 0.817c0.298 0.76 0.306 0.944 0.122 2.615-0.109 0.989-0.182 2.129-0.162 2.533 0.108 2.155 0.065 1.994 0.511 1.906 1.815-0.36 2.118-0.533 2.122-1.216 0.002-0.45-0.397-0.641-0.742-0.355-0.173 0.144-0.302 0.155-0.42 0.037s-0.055-0.251 0.207-0.434c0.791-0.554 1.645-0.166 1.962 0.892 0.174 0.582 0.16 0.702-0.136 1.097-0.297 0.398-0.439 0.445-1.367 0.457-0.632 0.009-1.060 0.088-1.099 0.204-0.035 0.105-0.251 0.191-0.481 0.191-0.417 0-0.418 0-0.305 1.096 0.062 0.603 0.192 1.193 0.29 1.311 0.132 0.16 0.1 0.301-0.127 0.552-0.588 0.649-1.36 0.87-3.090 0.883-0.899 0.007-1.756 0.070-1.904 0.14-0.16 0.075-0.317 0.049-0.387-0.064zM8.912 18.847c-0.36-0.076-0.985-0.144-1.389-0.15-1.123-0.018-1.523-0.292-1.668-1.145-0.068-0.398-0.234-0.834-0.369-0.969-0.342-0.342-1.94-0.498-2.413-0.236-0.902 0.501-1.761 0.069-1.761-0.886 0-0.584 0.675-1.229 1.203-1.15 0.433 0.064 0.55 0.457 0.137 0.457-0.325 0-0.57 0.493-0.38 0.765 0.057 0.081 0.771 0.144 1.588 0.141l1.486-0.007 0.269-0.654c0.148-0.36 0.313-0.911 0.367-1.226s0.171-0.767 0.261-1.005c0.124-0.329 0.097-0.559-0.111-0.961-0.418-0.808-0.293-3.259 0.193-3.782 0.194-0.209 0.378-0.565 0.409-0.789 0.053-0.394 0.11-0.412 1.608-0.519 0.854-0.061 1.792-0.071 2.085-0.022 0.581 0.095 0.611 0.161 0.762 1.685 0.049 0.494 0.173 1.414 0.276 2.043s0.163 1.88 0.133 2.779c-0.030 0.899-0.057 1.965-0.061 2.37l-0.008 0.735 2.452 0.099c1.348 0.055 2.709 0.169 3.024 0.253s0.793 0.104 1.062 0.043c1.042-0.236 2.355-0.158 2.981 0.177 0.433 0.232 0.516 0.328 0.285 0.329-0.178 0.001-0.638 0.112-1.022 0.245-0.543 0.189-0.863 0.206-1.446 0.075-0.412-0.092-0.996-0.122-1.297-0.065-0.35 0.066-0.813 0.001-1.281-0.177-0.817-0.312-1.362-0.28-3.172 0.185l-1.191 0.307 0.047 0.572 0.047 0.572-1.226 0.025c-0.674 0.014-1.52-0.037-1.88-0.113zM10.9 6.485c-0.035-0.035-1.322-0.084-2.859-0.108s-2.826-0.077-2.864-0.117c-0.038-0.040-0.122-0.47-0.187-0.956-0.111-0.822-0.098-0.873 0.186-0.747 0.168 0.075 1.371 0.149 2.675 0.165 4.922 0.062 4.576 0.027 4.576 0.462 0 0.518-0.551 1.19-1.055 1.286-0.225 0.043-0.437 0.049-0.472 0.015zM27.244 6.485c-0.035-0.035-1.322-0.084-2.859-0.108s-2.83-0.078-2.872-0.12c-0.042-0.042-0.129-0.473-0.193-0.958-0.11-0.827-0.097-0.873 0.194-0.744 0.171 0.076 1.377 0.151 2.681 0.168 4.692 0.059 4.365 0.023 4.454 0.489 0.099 0.516-0.372 1.152-0.932 1.259-0.225 0.043-0.437 0.049-0.472 0.015z"></path>
</svg>
