<!-- Generated by IcoMoon.io -->
<svg version="1.1" xmlns="http://www.w3.org/2000/svg" width="32" height="32" viewBox="0 0 32 32">
<title>fortunes_chosen</title>
<path d="M15.148 30.951c-1.041-1.002-2.008-2.077-1.995-3.627-0.058-1.078 0.507-1.749 0.96-2.655 0.558-1.269 2.135-1.86 3.434-1.78 1.475 0.285 2.577 1.266 3.251 2.574 0.902 1.433 0.048 3.082-1.075 4.092-1.055 1.415-2.96 1.521-4.575 1.395zM17.028 28.227c0.943-0.346 1.703-1.845 0.39-2.197-1.298-0.324-1.562 2.334-0.39 2.197zM16.104 22.331c-0.933-0.472 0.592-1.445-0.367-1.84-1.085-0.628-0.492-1.37 0.531-0.902 1.463-0.125 1.271-2.445-0.22-2.449-0.729 0.301-1.256 0.404-0.709-0.561-0.19-0.43-0.902-1.052-0.759-1.393-1.441-0.335-2.803-0.743-4.095-1.454-1.033-0.424-2.2-0.898-3.054-1.547-0.969-0.9-2.284-1.363-3.013-2.56-1.061-0.685-1.332-2.215-1.941-3.032 0.169-1.133-1.266-2.31-0.051-3.399 1.032-0.512 1.105-2.112 2.481-2.183 0.037 0.992-0.781 2.397-0.249 3.628 0.338 1.133 0.819 2.247 1.342 3.32 0.78 1.609 2.209 2.837 3.833 3.575 1.104 0.578 2.054 1.11 3.099 1.662 1.034 1.059 1.899 0.314 3.176 0.072 1.424-0.027 2.963 0.081 3.889-1.235 1.036-0.665 2.191-0.978 3.219-1.674 0.845-0.958 1.973-1.369 2.869-2.302 0.352-0.675 0.611-1.346 0.856-1.943 0.286-0.354 1.16-2.278 0.55-3.195-0.377-0.594-1.034-2.438 0.261-1.347 0.567 0.52 2.102 0.533 1.964 1.532 0.042 1.357-0.702 2.545-1.584 3.509-0.619 1.513-1.588 2.883-2.823 3.976-1.086 0.948-2.147 1.972-3.418 2.677-1.067 0.541-2.112 0.822-3.223 1.284-0.716 0.343-0.369 1.628-1.301 1.602 0.759 0.952 1.832 2.113 1.2 3.396-0.639 0.801-1.383 1.34-1.082 2.454-0.139 0.626-0.946 0.632-1.379 0.331z"></path>
</svg>
