<!-- Generated by IcoMoon.io -->
<svg version="1.1" xmlns="http://www.w3.org/2000/svg" width="32" height="32" viewBox="0 0 32 32">
<title>fortune</title>
<path d="M30.045 10.26c0.229 3.574-1.399 6.994-3.385 9.875-2.517 3.501-5.834 6.48-9.722 8.376-2.646 1.188-5.767 2.062-8.605 1.036-1.699-0.621-2.736-2.182-4.030-3.348-0.881-0.748-1.595-1.636-1.957-2.752-0.24-0.874-0.284-1.158-0.303-1.826-0.083-0.366-0.030-1.153 0.038-1.736 0.351-3.47 2.134-6.581 4.244-9.321 2.171-2.642 4.751-4.992 7.768-6.593 2.253-1.216 4.772-2.098 7.365-1.97 1.684-0.014 3.344 0.648 4.457 1.933 1.053 1.123 2.273 2.105 3.176 3.353 0.593 0.825 0.972 2.222 0.954 2.975zM21.519 20.414c0.911-0.652 0.762-1.222-0.121-1.812-0.758-0.909-1.446 1.2-2.269 1.565-0.765 0.513-1.182 0.968-0.214 1.528 0.621 1.287 1.414-0.301 2.035-0.751 0.222-0.143 0.363-0.37 0.568-0.53zM27.089 7.38c-0.809 0.594-2.484 0.776-2.624 1.705 0.379 0.904-0.684 3.129 0.863 1.928 1.062-0.454 2.224-0.878 1.875-2.269-0.004-0.448 0.029-0.983-0.114-1.364zM18.033 20.149c0.586-0.394 1.321-0.883 1.629-1.516-0.259-0.795-0.96 0.065-1.284 0.412-0.316 0.443-1.457 0.861-0.838 1.444 0.3 0.149 0.283-0.198 0.492-0.341zM10.379 26.704c0.292-0.846 1.358-2.198 1.215-2.693-1.079 0.472-2.763-0.649-3.053 0.912-0.78 1.152-1.183 2.264 0.644 1.892 0.4-0.008 0.795-0.077 1.194-0.111zM5.719 17.989c-0.833 0.696-2.553 0.749-2.747 1.876-0.062 0.989-0.367 2.993 1.042 1.743 1.012-0.445 2.089-0.784 1.556-2.070 0.026-0.515 0.068-1.039 0.149-1.549zM20.003 2.378c-0.318 0.836-1.289 2.175-1.194 2.693 0.841-0.14 1.72-0.188 2.558-0.002 0.31-0.87 1.278-2.066 1.194-2.723-0.852-0.117-1.708-0.093-2.558 0.033zM23.982 10.828c-0.637-1.256-0.991 0.986-1.108 1.516-0.623 1.174 0.968 1.085 0.805-0.076 0.127-0.54 0.566-2.064-0.109-0.872-0.451 0.622 0.361-0.498 0.412-0.568zM12.653 22.688c-0.22-0.662-1.072-0.014-1.591-0.152-0.585-0.213-1.862 0.406-0.792 0.758 0.765 0.031 1.528-0.028 2.27-0.189 0.682-0.773-1.919-0.36-0.367-0.442l0.481 0.025zM8.409 23.256c-0.159-0.708-1.034-1.539-1.516-2.084-0.792-0.008-0.136 1.426 0.427 1.364 0.459-0.161 0.862 0.3 1.24 0.038 0.13-0.314-0.186 0.694-0.151 0.682zM6.249 19.126c-0.632 1.030 0.997 1.34 0.682 0.227 0.061-0.531 0.814-2.488-0.303-1.895-0.19 0.542-0.346 1.095-0.379 1.667zM17.503 7.797c0.95-0.234 1.948-0.366 2.918-0.189 0.835-0.313-0.054-1.103-0.655-0.796-0.867 0.007-1.76-0.088-2.566 0.303-0.393 0.412 0.143 0.682 0.303 0.682zM13.903 22.574c-0.703 0.997 0.831 0.711 1.25 0.303 0.404-0.183 1.606-0.486 0.985-1.099-0.609-0.211-2.021 1.419-2.236 0.796zM23.414 7.872c0.055-0.394-0.792 0.084-0.947-0.303-0.913-0.347-0.561 0.895 0 1.146 0.268 0.379 0.402 1.649 1.079 1.033 0.106-0.584-0.132-1.267-0.132-1.876zM13.069 7.266c-0.398 1.448 1.439-0.1 1.98-0.341 1.043-0.383-0.046-1.247-0.568-0.54-0.503 0.147-1.197 0.351-1.411 0.881zM11.63 9.123c-0.601-0.457-0.856 0.647-1.402 0.606-0.393 0.199-0.944 1.012-0.152 1.061 0.481-0.686 1.843-1.25 1.743-2.122l-0.104 0.227-0.085 0.227zM9.167 13.518c-0.077-1.45-1.325 0.43-1.516 0.947-1.013 0.846 0.797 1.471 0.53 0.152 0.277-0.624 0.308-2.688 0.985-1.099zM20.951 17.004c0.465-0.079 0.642-0.732 0.947-0.872 0.592-0.343 0.35-1.652-0.303-0.985-0.214 0.795-1.623 1.6-0.985 2.349 0.276 0.082 0.182-0.401 0.341-0.493zM10.341 7.494c-0.845 0.901-2.314 1.913-2.634 2.885 0.847 0.631 1.65 1.164 2.236-0.041 0.665-0.994 2.877-1.795 1.049-2.776-0.311-0.261-0.416-0.657-0.651-0.069zM9.887 29.698c0.8 0.029 2.398 0.235 2.672-0.199-0.976-0.646-1.557-2.383-2.923-1.679-0.601 0.143-2.219-0.176-0.99 0.614 0.398 0.404 0.955 0.901 1.241 1.264zM23.527 23.484c0.519-0.692 1.948-1.427 0.747-2.095-0.502-0.502-1.003-1.003-1.505-1.505-0.646 1.146-2.512 2.077-2.689 3.062 0.967 0.71 1.859 2.8 2.879 1.085 0.193-0.179 0.382-0.361 0.568-0.547zM27.62 10.79c0.689 0.649 1.329 1.348 2.008 2.008 0.116-0.94 0.387-2.097-0.055-2.934-0.55-0.55-1.1-1.1-1.651-1.651 0.021 0.865-0.1 1.738-0.303 2.577z"></path>
</svg>
