<!-- Generated by IcoMoon.io -->
<svg version="1.1" xmlns="http://www.w3.org/2000/svg" width="32" height="32" viewBox="0 0 32 32">
<title>frost1</title>
<path d="M14.489 29.864c-0.018-0.11-0.023-0.235-0.022-0.654 0-0.285 0.007-0.561 0.015-0.614s0.017-0.127 0.022-0.166c0.007-0.065 0.012-0.073 0.074-0.113 0.036-0.024 0.071-0.043 0.076-0.043s0.030-0.015 0.055-0.034c0.025-0.019 0.052-0.034 0.061-0.034 0.023 0 0.219-0.104 0.264-0.14l0.038-0.031-0.007-1.512-0.17 0.095c-0.27 0.151-1.096 0.665-1.279 0.796-0.092 0.066-0.187 0.124-0.212 0.128l-0.044 0.009v0.578c0 0.51-0.003 0.581-0.022 0.609-0.035 0.050-0.143 0.113-0.599 0.347-0.235 0.121-0.462 0.241-0.505 0.267-0.066 0.040-0.311 0.136-0.319 0.125-0.001-0.002-0.019-0.053-0.039-0.113-0.036-0.108-0.036-0.114-0.036-0.514-0-0.222-0.009-0.555-0.020-0.74-0.025-0.42-0.026-1.273-0.002-1.341 0.015-0.041 0.059-0.073 0.345-0.254 0.18-0.114 0.909-0.573 1.619-1.020l1.291-0.813v-2.998l-0.031 0.016c-0.017 0.009-0.117 0.066-0.223 0.128s-0.238 0.134-0.295 0.162c-0.057 0.028-0.158 0.092-0.225 0.142s-0.166 0.117-0.22 0.149c-0.054 0.032-0.143 0.090-0.198 0.128s-0.107 0.071-0.113 0.071c-0.007 0-0.040 0.019-0.073 0.042l-0.061 0.042v0.638c0 0.688-0.007 0.767-0.073 0.838-0.076 0.082-1.732 1.030-1.8 1.030-0.017 0-0.086-0.102-0.086-0.126 0-0.009-0.017-0.034-0.038-0.056l-0.038-0.039-0.008-1.36 0.086-0.086c0.068-0.068 0.094-0.086 0.127-0.086 0.028 0 0.079-0.025 0.155-0.076l0.113-0.076 0-1.445 0.106-0.068c0.058-0.037 0.316-0.198 0.572-0.357s0.675-0.422 0.932-0.584c0.751-0.475 1.27-0.789 1.332-0.807l0.058-0.017-0.001-0.77-0.749-0.432c-0.412-0.237-0.758-0.431-0.77-0.431s-0.133 0.069-0.268 0.152c-0.135 0.083-0.314 0.187-0.397 0.231s-0.32 0.176-0.527 0.294c-0.207 0.118-0.525 0.297-0.706 0.397s-0.502 0.286-0.715 0.413c-0.212 0.126-0.44 0.259-0.507 0.294s-0.155 0.086-0.198 0.113l-0.077 0.048-0.009 0.344c-0.009 0.35-0.021 0.552-0.056 0.953-0.034 0.383-0.049 0.686-0.062 1.199-0.015 0.61-0.025 0.69-0.101 0.817-0.045 0.074-0.070 0.101-0.125 0.131-0.038 0.020-0.217 0.121-0.398 0.224s-0.409 0.23-0.507 0.283c-0.47 0.254-0.812 0.451-1.058 0.61-0.105 0.068-0.354 0.18-0.428 0.192-0.015 0.003-0.026-0.034-0.044-0.154-0.048-0.303-0.052-0.381-0.052-0.926l-0-0.549 0.074-0.067c0.102-0.092 0.152-0.129 0.178-0.129 0.012 0 0.042-0.018 0.067-0.040s0.079-0.053 0.12-0.069c0.041-0.016 0.22-0.116 0.398-0.222 0.38-0.227 0.354-0.192 0.355-0.485 0-0.105 0.009-0.298 0.020-0.43s0.020-0.355 0.020-0.497l0-0.257-0.038 0.020c-0.021 0.011-0.596 0.344-1.278 0.738l-1.24 0.718-0.009 0.327c-0.005 0.18-0.014 0.35-0.021 0.378-0.011 0.048-0.025 0.059-0.299 0.225-0.487 0.294-0.858 0.505-0.968 0.549l-0.105 0.042-0.063-0.086c-0.036-0.049-0.063-0.101-0.063-0.121s-0.007-0.039-0.016-0.045c-0.012-0.007-0.013-0.247-0.005-0.943 0.006-0.513 0.014-1.003 0.019-1.089l0.009-0.156 0.622-0.353c0.342-0.194 0.672-0.373 0.733-0.397 0.095-0.038 0.473-0.267 0.473-0.287 0-0.004-0.1-0.058-0.222-0.12-0.137-0.070-0.272-0.15-0.353-0.211-0.072-0.054-0.176-0.12-0.233-0.147s-0.169-0.090-0.25-0.14c-0.081-0.050-0.164-0.095-0.184-0.1s-0.062-0.026-0.093-0.048l-0.056-0.039-0.199 0.113c-0.346 0.197-0.444 0.255-0.473 0.282-0.015 0.014-0.049 0.033-0.075 0.041s-0.071 0.034-0.099 0.056c-0.065 0.051-0.402 0.215-0.449 0.219-0.024 0.002-0.228-0.109-0.647-0.353l-0.613-0.355v-0.093c0-0.141 0.055-0.244 0.152-0.285 0.022-0.009 0.040-0.026 0.040-0.039 0-0.015 0.105-0.079 0.315-0.192 0.173-0.093 0.406-0.227 0.517-0.298s0.21-0.128 0.221-0.128c0.010 0 0.041-0.018 0.068-0.040 0.048-0.038 0.184-0.124 0.26-0.165 0.020-0.011 0.061-0.040 0.090-0.065s0.092-0.058 0.14-0.073c0.077-0.024 0.169-0.075 0.265-0.149 0.043-0.033 0.282-0.153 0.304-0.153 0.009 0 0.037-0.019 0.061-0.043l0.044-0.043 0.059 0.040c0.033 0.022 0.143 0.081 0.244 0.131s0.253 0.129 0.336 0.175c0.083 0.046 0.219 0.115 0.301 0.153 0.18 0.082 0.346 0.172 0.752 0.406 0.167 0.096 0.371 0.211 0.453 0.254s0.209 0.116 0.281 0.16c0.072 0.044 0.139 0.081 0.148 0.081s0.017 0.009 0.017 0.021c0 0.011 0.009 0.021 0.021 0.021s0.112 0.045 0.223 0.101l0.202 0.101 0.064-0.022c0.035-0.012 0.082-0.038 0.103-0.058 0.059-0.055 0.225-0.163 0.415-0.268 0.289-0.16 0.575-0.326 0.575-0.333 0-0.011-0.4-0.243-0.431-0.25-0.015-0.003-0.163-0.093-0.329-0.198-0.622-0.396-1.185-0.73-1.449-0.862-0.316-0.158-0.622-0.327-0.677-0.374-0.031-0.027-0.138-0.098-0.236-0.158s-0.178-0.114-0.176-0.12c0.003-0.008 1.042-0.615 1.431-0.835l0.072-0.041 0.161 0.102c0.271 0.171 0.833 0.506 1.085 0.648 0.131 0.074 0.307 0.182 0.39 0.24 0.219 0.153 0.447 0.293 0.772 0.474 0.33 0.185 0.52 0.298 0.655 0.39 0.053 0.036 0.123 0.075 0.155 0.087l0.059 0.021 0.142-0.082c0.078-0.045 0.154-0.082 0.168-0.082s0.081-0.033 0.148-0.073c0.222-0.133 0.311-0.183 0.588-0.328 0.151-0.079 0.355-0.192 0.455-0.252s0.243-0.142 0.32-0.183c0.077-0.041 0.179-0.105 0.227-0.141s0.111-0.075 0.139-0.084l0.051-0.018v-1.763l-0.313-0.196c-0.172-0.108-0.318-0.196-0.324-0.196s-0.135 0.071-0.286 0.158c-0.151 0.087-0.285 0.158-0.296 0.158s-0.19 0.089-0.396 0.199c-0.206 0.109-0.385 0.199-0.396 0.199-0.044 0-0.227 0.096-0.379 0.199-0.162 0.11-0.33 0.199-0.374 0.199-0.014 0-0.044 0.010-0.068 0.022s-0.107 0.049-0.185 0.081l-0.142 0.059-0.701-0.414c-0.666-0.393-1.073-0.628-1.195-0.69-0.049-0.025-0.062-0.043-0.115-0.16l-0.060-0.132 0.060-0.062c0.074-0.076 0.117-0.101 0.643-0.382 0.23-0.123 0.467-0.252 0.527-0.286s0.117-0.063 0.127-0.063c0.031 0 0.146 0.064 0.208 0.116 0.064 0.054 0.238 0.159 0.374 0.228 0.047 0.024 0.111 0.060 0.142 0.082s0.064 0.039 0.073 0.039c0.009 0 0.041-0.018 0.073-0.039 0.075-0.051 0.174-0.101 0.306-0.153 0.133-0.053 0.461-0.234 0.447-0.247-0.006-0.005-0.518-0.312-1.139-0.682l-1.128-0.673-0.076 0.020c-0.042 0.011-0.098 0.036-0.125 0.056-0.148 0.109-0.385 0.257-0.523 0.328-0.086 0.044-0.351 0.206-0.588 0.361-0.385 0.25-0.673 0.426-0.984 0.598-0.055 0.031-0.193 0.116-0.305 0.189s-0.215 0.134-0.227 0.134c-0.013 0-0.072 0.033-0.133 0.073s-0.13 0.084-0.153 0.098l-0.043 0.024-0.348-0.213c-0.191-0.117-0.381-0.229-0.422-0.25s-0.167-0.097-0.281-0.17c-0.283-0.182-0.396-0.248-0.713-0.419-0.151-0.081-0.428-0.24-0.616-0.353s-0.365-0.215-0.392-0.227c-0.051-0.023-0.3-0.195-0.3-0.207 0-0.006 1.438-0.864 1.465-0.874 0.006-0.002 0.103 0.051 0.215 0.118s0.333 0.191 0.492 0.277c0.158 0.085 0.319 0.178 0.356 0.206s0.175 0.11 0.306 0.183l0.238 0.132 0.072-0.051c0.040-0.028 0.106-0.077 0.146-0.108s0.219-0.146 0.397-0.256c0.261-0.161 0.762-0.508 0.879-0.609 0.022-0.019 0.005-0.032-0.212-0.167-0.246-0.152-0.613-0.357-1.093-0.61-0.154-0.081-0.288-0.153-0.297-0.16-0.012-0.009-0.018-0.138-0.024-0.454-0.019-1.127-0.023-1.66-0.011-1.687 0.051-0.114 0.135-0.285 0.142-0.29 0.010-0.006 0.891 0.49 0.942 0.53 0.018 0.014 0.040 0.026 0.050 0.026s0.024 0.009 0.033 0.020c0.009 0.011 0.059 0.037 0.111 0.057 0.064 0.025 0.122 0.061 0.177 0.112l0.082 0.074v0.347c0 0.265 0.004 0.348 0.017 0.354 0.009 0.004 0.060 0.039 0.113 0.078 0.117 0.087 0.194 0.132 0.562 0.329 0.158 0.085 0.315 0.172 0.348 0.194s0.146 0.083 0.251 0.136l0.191 0.095-0.007-0.271c-0.004-0.149-0.012-0.487-0.018-0.751-0.006-0.277-0.017-0.488-0.024-0.5s-0.017-0.179-0.021-0.39l-0.007-0.37-1.407-0.846 0.007-0.625c0.005-0.483 0.012-0.645 0.027-0.714 0.011-0.049 0.028-0.152 0.037-0.229s0.019-0.14 0.020-0.14c0.002 0 0.647 0.375 1.434 0.834l1.43 0.834 0.010 0.060c0.005 0.033 0.044 0.957 0.086 2.053s0.081 2.001 0.086 2.011c0.005 0.009 0.309 0.193 0.674 0.407l0.664 0.39 0.007-1.709 0.072-0.016c0.040-0.009 0.11-0.019 0.157-0.024 0.076-0.007 0.092-0.004 0.137 0.027 0.028 0.019 0.095 0.058 0.147 0.087s0.185 0.102 0.295 0.164c0.109 0.062 0.239 0.129 0.288 0.151s0.164 0.085 0.255 0.141l0.166 0.103 0.009 0.22c0.027 0.658 0.035 0.959 0.035 1.331l0 0.412 0.509 0.294c0.28 0.162 0.52 0.294 0.534 0.294s0.36-0.194 0.771-0.432l0.747-0.432-0.001-2.685-0.262-0.185c-0.65-0.458-1.639-1.096-1.699-1.096-0.026 0-0.086-0.029-0.166-0.078-0.305-0.191-0.664-0.427-1.070-0.703-0.241-0.164-0.457-0.307-0.48-0.319-0.029-0.015-0.047-0.038-0.058-0.075-0.012-0.040-0.016-0.605-0.016-2.255v-2.201h0.393l0.213 0.141c0.117 0.078 0.308 0.189 0.424 0.248 0.298 0.151 0.446 0.24 0.463 0.278 0.010 0.023 0.015 0.475 0.015 1.497v1.465l0.058 0.039c0.032 0.022 0.092 0.056 0.134 0.077s0.122 0.074 0.178 0.119c0.057 0.045 0.134 0.097 0.171 0.117 0.109 0.058 0.28 0.172 0.377 0.253 0.049 0.041 0.107 0.081 0.13 0.089 0.047 0.016 0.675 0.405 0.986 0.61l0.206 0.135 0.004-1.118c0.003-1.053 0.002-1.119-0.021-1.137-0.013-0.010-0.098-0.056-0.188-0.103s-0.254-0.144-0.363-0.217c-0.25-0.167-0.349-0.226-0.415-0.247l-0.052-0.017 0.007-3.265 0.036-0.068c0.040-0.075 0.081-0.118 0.176-0.181l0.062-0.042 1.274 0.717 0.004 0.982 0.004 0.982 0.041 0.029c0.022 0.016 0.107 0.062 0.189 0.102s0.225 0.125 0.319 0.188c0.094 0.063 0.243 0.161 0.332 0.218l0.161 0.102 0.007 3.197 0.214-0.12c0.118-0.066 0.262-0.155 0.321-0.198s0.229-0.139 0.377-0.214c0.148-0.075 0.289-0.152 0.313-0.172l0.043-0.036 0-0.317c0-0.175 0.009-0.53 0.020-0.79 0.014-0.339 0.020-0.895 0.020-1.967l0-1.494 0.058-0.056c0.080-0.076 0.437-0.295 0.51-0.312 0.023-0.005 0.050-0.018 0.062-0.027s0.064-0.040 0.116-0.069c0.053-0.028 0.17-0.1 0.261-0.16 0.144-0.094 0.322-0.177 0.382-0.177 0.008 0 0.040 0.048 0.070 0.106l0.054 0.106 0.014 1.938 0.454-0.27c0.25-0.149 0.523-0.309 0.607-0.356 0.17-0.095 0.192-0.099 0.388-0.070l0.106 0.016v1.564l-0.031 0.020c-0.123 0.078-0.236 0.142-0.44 0.251-0.269 0.143-0.414 0.234-0.549 0.345-0.105 0.086-0.153 0.114-0.291 0.166-0.051 0.019-0.129 0.058-0.172 0.086l-0.078 0.051-0.004 1.082c-0.003 0.851-0.008 1.091-0.022 1.123-0.019 0.044-0.171 0.169-0.283 0.232-0.038 0.021-0.092 0.057-0.121 0.080s-0.126 0.083-0.216 0.135c-0.090 0.052-0.277 0.168-0.415 0.258s-0.259 0.164-0.269 0.164c-0.010 0-0.056 0.024-0.102 0.053s-0.157 0.095-0.248 0.146c-0.090 0.051-0.275 0.164-0.411 0.252-0.367 0.238-0.629 0.398-0.652 0.398-0.011 0-0.037 0.017-0.057 0.038l-0.037 0.038 0 2.56 0.161 0.104c0.24 0.156 0.793 0.468 1.113 0.629 0.064 0.032 0.142 0.076 0.174 0.098s0.064 0.039 0.073 0.039c0.009 0 0.041-0.017 0.073-0.039s0.125-0.075 0.208-0.118c0.288-0.152 1.122-0.642 1.534-0.901l0.137-0.086 0.007-1.048-0.449 0.226c-0.247 0.125-0.477 0.242-0.51 0.261-0.052 0.029-0.296 0.102-0.342 0.102-0.010 0-0.015-0.252-0.015-0.835v-0.835l0.051-0.017c0.028-0.009 0.113-0.055 0.188-0.102s0.274-0.157 0.442-0.245c0.341-0.178 0.591-0.323 0.655-0.378 0.058-0.050 0.365-0.226 0.712-0.408 0.159-0.083 0.321-0.171 0.361-0.195 0.043-0.026 0.109-0.052 0.164-0.062 0.050-0.010 0.102-0.022 0.115-0.027 0.020-0.008 0.034 0.012 0.082 0.112l0.058 0.121 0.009 0.863c0.005 0.475 0.016 0.934 0.023 1.021s0.014 0.245 0.015 0.353c0 0.107 0.004 0.195 0.008 0.195s0.113-0.062 0.241-0.137c0.129-0.075 0.239-0.137 0.246-0.137s0.066-0.040 0.132-0.089c0.066-0.049 0.197-0.129 0.292-0.178s0.215-0.12 0.267-0.159c0.052-0.039 0.103-0.074 0.112-0.077 0.014-0.005 0.017-0.368 0.017-1.751v-1.744l0.106-0.068c0.154-0.098 0.382-0.232 0.579-0.339 0.094-0.051 0.285-0.156 0.425-0.233s0.383-0.206 0.541-0.287c0.31-0.159 0.515-0.273 0.754-0.416 0.183-0.11 0.211-0.121 0.38-0.151 0.153-0.027 0.137-0.040 0.161 0.122 0.010 0.068 0.014 0.336 0.011 0.8l-0.004 0.698-1.432 0.756v0.544c0 0.398 0.005 0.554 0.017 0.582 0.010 0.023 0.020 0.139 0.024 0.295l0.007 0.256 0.569-0.295c0.313-0.162 0.596-0.304 0.63-0.316s0.082-0.040 0.106-0.063l0.044-0.042 0.1 0.038c0.173 0.066 0.57 0.285 0.927 0.512 0.078 0.050 0.161 0.1 0.184 0.112s0.055 0.047 0.073 0.080c0.017 0.032 0.055 0.088 0.084 0.123s0.058 0.072 0.063 0.081c0.007 0.011-0.030 0.037-0.111 0.078-0.066 0.034-0.154 0.089-0.196 0.124s-0.143 0.097-0.226 0.14c-0.083 0.042-0.209 0.114-0.281 0.159-0.395 0.251-0.581 0.363-0.822 0.496-0.147 0.081-0.276 0.156-0.286 0.165-0.015 0.014 0.016 0.037 0.17 0.129 0.104 0.061 0.251 0.141 0.327 0.177s0.243 0.125 0.371 0.198c0.128 0.073 0.266 0.145 0.307 0.16l0.075 0.028 0.042-0.041c0.023-0.022 0.338-0.202 0.698-0.398 0.415-0.226 0.699-0.39 0.774-0.446 0.129-0.097 0.263-0.172 0.376-0.211l0.074-0.025 0.206 0.107c0.641 0.333 0.902 0.489 1.041 0.623l0.113 0.11-0.075 0.098c-0.068 0.090-0.231 0.224-0.27 0.224-0.008 0-0.077 0.039-0.153 0.087s-0.231 0.138-0.344 0.201c-0.113 0.063-0.292 0.168-0.397 0.233s-0.334 0.201-0.507 0.301c-0.173 0.1-0.367 0.215-0.432 0.256-0.167 0.108-0.635 0.376-0.792 0.455-0.308 0.155-0.361 0.164-0.523 0.092-0.057-0.025-0.676-0.355-1.376-0.733s-1.28-0.687-1.289-0.687-0.175 0.089-0.37 0.197c-0.195 0.108-0.694 0.384-1.108 0.614-0.615 0.34-1.031 0.587-1.107 0.655-0.006 0.005 0.071 0.055 0.171 0.11s0.215 0.121 0.254 0.146c0.081 0.051 0.241 0.133 0.289 0.148 0.018 0.005 0.054 0.025 0.081 0.043s0.059 0.033 0.071 0.033c0.013 0 0.053 0.019 0.090 0.043 0.067 0.043 0.068 0.043 0.109 0.018 0.023-0.014 0.107-0.060 0.187-0.103s0.173-0.097 0.206-0.119c0.033-0.022 0.246-0.146 0.474-0.276l0.415-0.236 0.469 0.246c0.258 0.135 0.617 0.32 0.798 0.412 0.483 0.244 0.734 0.382 0.911 0.502 0.087 0.059 0.162 0.111 0.168 0.116s-0.036 0.045-0.093 0.089c-0.059 0.046-0.102 0.091-0.102 0.105 0 0.053-0.161 0.157-0.402 0.258-0.037 0.015-0.069 0.039-0.073 0.053s-0.038 0.041-0.078 0.062c-0.039 0.021-0.134 0.076-0.21 0.124-0.246 0.153-0.334 0.188-0.48 0.188-0.119 0-0.164-0.015-0.285-0.097-0.125-0.083-0.379-0.218-0.412-0.219-0.014-0-0.059-0.018-0.1-0.039l-0.074-0.038-1.319 0.759-0.034-0.024c-0.019-0.013-0.090-0.053-0.158-0.089s-0.271-0.147-0.452-0.246c-0.181-0.1-0.44-0.239-0.575-0.308s-0.324-0.169-0.418-0.22c-0.094-0.051-0.309-0.164-0.478-0.252s-0.355-0.191-0.415-0.229l-0.109-0.070-0.050 0.028c-0.028 0.016-0.198 0.114-0.379 0.219l-0.329 0.191-0.007 1.756 0.058 0.040c0.032 0.022 0.363 0.209 0.736 0.417 0.693 0.385 1.128 0.635 1.415 0.814 0.196 0.122 0.247 0.14 0.328 0.116 0.032-0.009 0.175-0.084 0.319-0.165 0.425-0.241 0.607-0.337 1.062-0.56 0.237-0.116 0.671-0.344 0.963-0.505s0.54-0.296 0.55-0.3c0.010-0.004 0.092 0.038 0.181 0.094s0.255 0.153 0.368 0.216c0.113 0.063 0.403 0.226 0.644 0.363s0.522 0.294 0.623 0.35c0.183 0.1 0.274 0.174 0.274 0.221 0 0.013 0.027 0.069 0.061 0.124l0.061 0.099-0.16 0.086c-0.088 0.047-0.216 0.113-0.285 0.146s-0.149 0.075-0.178 0.094c-0.029 0.018-0.109 0.058-0.176 0.088s-0.209 0.102-0.315 0.16c-0.105 0.058-0.221 0.115-0.257 0.127l-0.066 0.022-0.222-0.13c-0.247-0.144-0.315-0.18-0.366-0.192-0.019-0.005-0.074-0.033-0.123-0.062l-0.089-0.054-0.041 0.027c-0.023 0.015-0.203 0.107-0.401 0.204s-0.401 0.204-0.452 0.237c-0.051 0.033-0.174 0.102-0.274 0.152s-0.181 0.095-0.181 0.101c0 0.017 0.355 0.244 0.472 0.302 0.266 0.132 1.322 0.72 1.511 0.842l0.086 0.055 0.052-0.034c0.082-0.054 0.163-0.093 0.329-0.156 0.106-0.040 0.35-0.166 0.771-0.399 0.339-0.187 0.639-0.354 0.667-0.37 0.094-0.057 0.146-0.076 0.221-0.083 0.059-0.005 0.076-0.002 0.086 0.016 0.007 0.012 0.025 0.022 0.040 0.022s0.093 0.042 0.174 0.094c0.224 0.144 0.411 0.253 0.626 0.368 0.186 0.099 0.204 0.113 0.354 0.263l0.158 0.159-0.212 0.134c-0.116 0.074-0.229 0.14-0.251 0.146s-0.063 0.026-0.093 0.044c-0.030 0.018-0.103 0.056-0.163 0.085s-0.137 0.069-0.171 0.090c-0.034 0.021-0.118 0.062-0.188 0.091s-0.128 0.062-0.132 0.074c-0.003 0.012-0.036 0.032-0.073 0.045s-0.104 0.046-0.149 0.074c-0.045 0.028-0.164 0.097-0.264 0.153s-0.18 0.104-0.178 0.106c0.002 0.002 0.245 0.141 0.538 0.308s0.578 0.337 0.632 0.377c0.087 0.065 0.104 0.086 0.16 0.195l0.063 0.122-0.065 0.063c-0.116 0.113-1.018 0.638-1.202 0.7l-0.096 0.032-0.397-0.225c-0.219-0.124-0.457-0.25-0.529-0.28-0.093-0.038-0.161-0.079-0.232-0.136-0.055-0.045-0.139-0.1-0.186-0.121-0.072-0.032-0.297-0.156-0.591-0.324l-0.058-0.033 0 1.885 1.672 0.955 0.041 0.081c0.037 0.073 0.041 0.094 0.041 0.215 0 0.074 0.009 0.282 0.020 0.463s0.020 0.407 0.020 0.502c0 0.16-0.003 0.182-0.040 0.274-0.022 0.055-0.048 0.127-0.057 0.159-0.010 0.034-0.025 0.057-0.034 0.055s-0.73-0.405-1.6-0.894l-1.583-0.891-0.001-0.63c-0-0.347-0.007-0.716-0.015-0.822s-0.018-0.66-0.023-1.233l-0.009-1.041-0.055-0.036c-0.030-0.020-0.175-0.1-0.322-0.177-0.519-0.274-0.903-0.498-1.401-0.818-0.262-0.168-0.634-0.372-0.65-0.356-0.004 0.004 0.003 0.112 0.015 0.24 0.015 0.163 0.022 0.38 0.022 0.718 0 0.397 0.004 0.496 0.021 0.544 0.011 0.032 0.021 0.102 0.021 0.156l0 0.098 0.353 0.222c0.194 0.122 0.364 0.23 0.377 0.24 0.021 0.015 0.030 0.082 0.065 0.477 0.027 0.301 0.041 0.546 0.041 0.712 0 0.246-0.001 0.257-0.042 0.379l-0.042 0.126-0.115-0.039c-0.188-0.064-0.66-0.32-1.212-0.658-0.17-0.104-0.428-0.257-0.575-0.339s-0.289-0.17-0.317-0.193l-0.049-0.042-0.010-0.339c-0.009-0.335-0.037-0.806-0.063-1.086-0.007-0.079-0.014-0.427-0.014-0.774-0-0.435-0.006-0.707-0.020-0.877-0.011-0.136-0.020-0.303-0.020-0.372l-0-0.125-0.065-0.041c-0.036-0.022-0.102-0.061-0.147-0.086s-0.156-0.092-0.246-0.148c-0.090-0.056-0.216-0.127-0.281-0.157s-0.14-0.070-0.168-0.088l-0.051-0.033-0.196 0.123c-0.108 0.068-0.285 0.174-0.395 0.236-0.467 0.265-0.592 0.338-0.757 0.443l-0.175 0.111v3.363l0.058 0.040c0.032 0.022 0.154 0.086 0.271 0.142 0.534 0.256 1.026 0.544 1.408 0.824 0.142 0.104 0.43 0.277 0.77 0.462 0.162 0.088 0.328 0.194 0.576 0.37 0.038 0.027 0.077 0.065 0.088 0.085s0.029 0.051 0.041 0.068c0.019 0.027 0.021 0.235 0.021 2.004v1.973l-0.099 0.1c-0.133 0.134-0.136 0.134-0.425-0.015-0.442-0.227-0.668-0.359-0.959-0.56l-0.065-0.045-0-1.339-0-1.338-0.044-0.034c-0.072-0.055-0.5-0.296-0.64-0.362-0.071-0.033-0.164-0.084-0.206-0.112s-0.134-0.081-0.206-0.116c-0.072-0.036-0.161-0.088-0.199-0.116-0.062-0.047-0.364-0.22-0.383-0.22-0.004 0-0.008 0.578-0.008 1.284 0 1.632-0.033 3.257-0.067 3.297-0.040 0.046-0.265 0.187-0.413 0.258-0.079 0.038-0.184 0.094-0.233 0.124s-0.211 0.128-0.36 0.217c-0.149 0.089-0.313 0.195-0.366 0.234-0.132 0.1-0.347 0.216-0.402 0.216-0.024 0-0.096 0.009-0.161 0.021s-0.117 0.021-0.118 0.021c-0.001 0-0.012-0.061-0.024-0.136zM15.923 17.74c0.047-0.029 0.169-0.096 0.27-0.149s0.314-0.17 0.473-0.26c0.158-0.090 0.355-0.2 0.438-0.244s0.18-0.098 0.216-0.121l0.065-0.041v-1.771l-0.772-0.455c-0.424-0.25-0.777-0.455-0.783-0.455s-0.349 0.205-0.763 0.455l-0.752 0.455 0.007 1.778 0.189 0.115c0.104 0.063 0.307 0.178 0.452 0.254 0.349 0.184 0.593 0.321 0.736 0.413 0.064 0.041 0.121 0.076 0.127 0.076s0.049-0.022 0.096-0.051z"></path>
</svg>
