<!-- Generated by IcoMoon.io -->
<svg version="1.1" xmlns="http://www.w3.org/2000/svg" width="32" height="32" viewBox="0 0 32 32">
<title>gasoline</title>
<path d="M8.133 4.067c-0.766 0-1.4 0.634-1.4 1.4v20.4c0 0.766 0.634 1.4 1.4 1.4h15.734c0.766 0 1.4-0.634 1.4-1.4v-16.941l-3.819-1.527h-1.898l-3.387-2.823c-0.395-0.329-0.893-0.509-1.408-0.509h-6.622zM21.523 4.764l-0.38 1.139 4 1.333 0.38-1.139-4-1.333zM8.133 5.267h6.622c0.234 0 0.459 0.081 0.639 0.231l3.722 3.102h2.102l2.85 1.139v16.128c0 0.117-0.082 0.2-0.2 0.2h-15.734c-0.117 0-0.2-0.083-0.2-0.2v-20.4c0-0.118 0.082-0.2 0.2-0.2zM9.333 7.4v1.2h6.667v-1.2h-6.667zM9.739 10.558l-0.811 0.884 3.805 3.487v5.489l-3.823 3.823 0.848 0.848 3.823-3.823h4.838l3.823 3.823 0.848-0.848-3.823-3.823v-5.489l3.805-3.488-0.811-0.884-3.828 3.509h-4.866l-3.828-3.509zM13.933 15.267h4.134v4.8h-4.134v-4.8z"></path>
</svg>
