<!-- Generated by IcoMoon.io -->
<svg version="1.1" xmlns="http://www.w3.org/2000/svg" width="31" height="32" viewBox="0 0 31 32">
<title>ghouls</title>
<path d="M17.869 14.837c-0.101 0.107-0.096 0.274-0.139 0.402-0.052 0.172-0.068 0.328-0.089 0.504-0.027 0.242-0.086 0.469-0.22 0.679-0.144 0.225-0.305 0.435-0.42 0.675-0.16 0.334-0.237 0.697-0.352 1.046-0.058 0.181-0.116 0.368-0.166 0.553-0.056 0.205-0.174 0.38-0.254 0.579-0.108 0.266-0.203 0.534-0.389 0.765-0.050 0.059-0.119 0.191-0.212 0.175-0.027-0.003-0.138-0.153-0.166-0.181-0.076-0.085-0.107-0.19-0.188-0.266-0.033-0.028-0.105-0.046-0.147-0.077-0.070-0.057-0.125-0.139-0.177-0.212-0.108-0.141-0.24-0.22-0.371-0.343-0.334-0.306-0.565-0.814-0.709-1.21-0.141-0.39-0.395-0.733-0.565-1.11-0.068-0.153-0.117-0.304-0.135-0.469-0.034-0.331-0.141-0.653-0.237-0.973-0.031-0.097-0.068-0.185-0.053-0.289 0.006 0.403-0.068 0.8-0.058 1.203 0.014 0.537 0.12 1.069 0.114 1.608-0.003 0.306 0.030 0.575 0.086 0.85 0.036 0.168 0.080 0.342 0.133 0.527 0.070 0.249 0.154 0.521 0.323 0.731 0.378 0.472 0.544 1.028 0.78 1.568 0.288 0.659 0.556 1.323 0.846 1.983 0.052 0.123 0.135 0.346 0.242 0.444 0.042 0.040 0.073 0.043 0.101 0.099 0.028 0.051 0.022 0.108 0.065 0.147 0.039 0.036 0.145 0.077 0.193 0.063 0.055-0.020 0.049-0.081 0.059-0.132 0.019-0.102 0.046-0.202 0.077-0.3 0.068-0.221 0.15-0.439 0.224-0.657 0.184-0.53 0.369-1.067 0.665-1.544 0.12-0.193 0.279-0.401 0.326-0.628 0.128-0.611 0.587-1.132 0.617-1.761 0.015-0.245-0.006-0.488 0.016-0.73 0.014-0.184 0.018-0.375 0.065-0.552 0.043-0.166 0.111-0.325 0.128-0.497 0.038-0.417 0.070-0.826 0.056-1.248-0.008-0.286-0.061-0.567-0.059-0.858 0.001-0.067 0.062-0.509-0.013-0.567z"></path>
<path d="M22.449 17.4l-0.117 0.053c-0.105 0.046-0.177 0.174-0.231 0.279-0.014 0.024-0.025 0.046-0.036 0.061-0.073 0.113-0.14 0.228-0.205 0.344-0.083 0.15-0.172 0.306-0.274 0.445-0.218 0.306-0.445 0.62-0.645 0.966-0.171 0.298-0.395 0.577-0.611 0.847-0.107 0.134-0.214 0.267-0.316 0.404-0.144 0.188-0.292 0.374-0.442 0.561-0.203 0.252-0.415 0.515-0.605 0.783-0.162 0.23-0.381 0.583-0.42 0.973-0.042 0.406-0.196 0.848-0.432 1.246-0.042 0.070-0.077 0.142-0.108 0.217-0.040 0.091-0.080 0.176-0.136 0.252-0.147 0.193-0.334 0.375-0.515 0.55-0.059 0.058-0.116 0.113-0.172 0.169-0.093 0.095-0.194 0.187-0.294 0.28-0.26 0.24-0.527 0.49-0.724 0.782-0.015 0.024-0.028 0.044-0.040 0.067-0.047 0.081-0.062 0.101-0.126 0.101h-0.007c-0.122 0-0.283-0.076-0.414-0.136l-0.090-0.043c-0.050-0.024-0.096-0.050-0.141-0.077-0.062-0.036-0.125-0.073-0.193-0.101-0.055-0.024-0.114-0.041-0.174-0.062-0.111-0.036-0.223-0.073-0.306-0.131-0.076-0.052-0.128-0.14-0.179-0.233-0.046-0.077-0.092-0.159-0.159-0.23l-0.248-0.261c-0.11-0.114-0.22-0.229-0.328-0.343-0.229-0.243-0.375-0.525-0.531-0.825-0.105-0.203-0.215-0.414-0.353-0.614-0.128-0.184-0.252-0.368-0.375-0.552l-0.151-0.224c-0.076-0.111-0.141-0.227-0.206-0.342-0.073-0.128-0.148-0.263-0.237-0.387-0.627-0.88-1.176-1.804-1.678-2.672-0.052-0.086-0.089-0.178-0.129-0.274-0.036-0.083-0.068-0.163-0.111-0.245-0.025-0.047-0.055-0.095-0.088-0.142-0.052-0.085-0.104-0.165-0.128-0.245-0.006-0.020-0.015-0.057-0.027-0.101-0.092-0.381-0.162-0.585-0.283-0.653-0.038-0.020-0.092-0.028-0.133-0.012l-0.061 0.020-0.016 0.061c-0.021 0.081-0.016 0.162-0.014 0.235l0.003 0.057c0 0.028-0.007 0.057-0.018 0.083l-0.042 0.125c-0.003 0.020-0.008 0.040-0.014 0.058-0.007 0.024-0.015 0.052-0.019 0.077-0.019 0.119-0.030 0.228-0.031 0.332-0.008 0.438 0.061 0.912 0.208 1.423 0.044 0.159 0.092 0.322 0.172 0.475 0.015 0.032 0.034 0.065 0.055 0.099 0.049 0.085 0.095 0.166 0.104 0.265 0.004 0.046 0.008 0.098 0.031 0.153 0.030 0.074 0.061 0.148 0.095 0.223 0.065 0.146 0.131 0.289 0.197 0.435 0.065 0.146 0.131 0.289 0.196 0.435l0.028 0.064c0.016 0.036 0.030 0.071 0.047 0.108 0 0.040 0 0.083-0.001 0.125 0 0.032-0.011 0.087-0.001 0.119 0.014 0.040 0.065 0.016 0.050 0.059-0.203 0.565-0.083 1.218-0.089 1.801-0.004 0.243 0.027 0.414 0.111 0.641 0.042 0.11 0.036 0.23 0.080 0.335 0.191 0.447 0.386-0.284 0.415-0.387 0.089-0.288 0.159-0.58 0.243-0.868 0.197 0.318 0.436 0.595 0.73 0.838 0 0.074 0.001 0.147 0.001 0.221v0.020c0 0.117-0.043 0.286 0.015 0.395 0.018 0.036 0.052 0.053 0.071 0.083 0.013 0.020 0.015 0.040 0.018 0.061 0.027 0.154-0.003 0.331-0.003 0.488 0 0.371-0.067 0.746 0.145 1.102 0.255 0 0.26-0.211 0.307-0.315 0.134-0.295 0.208-0.593 0.401-0.88 0.070-0.104 0.107-0.212 0.148-0.319 0.142 0.116 0.285 0.23 0.421 0.35 0.122 0.108 0.2 0.22 0.285 0.344 0.001 0.008 0.001 0.020 0.003 0.024 0.006 0 0.010 0.001 0.016 0.001 0.001 0.004 0.004 0.008 0.008 0.012l0.025 0.040c-0.027 0.040-0.062 0.086-0.062 0.091 0 0.469-0.039 0.933 0.049 1.394 0.050 0.264 0.052 0.536 0.122 0.798 0.056 0.209 0.046 0.442 0.13 0.639 0.043 0.102 0.102 0.187 0.132 0.294 0.028 0.093 0.313 0.521 0.454 0.358 0.019-0.024 0.003-0.104 0.001-0.134-0.001-0.102-0.043-0.172-0.077-0.267-0.037-0.108-0.089-0.22-0.095-0.331-0.006-0.166-0.004-0.332 0-0.5 0.006-0.246 0.141-0.516 0.23-0.743 0.034-0.085 0.055-0.188 0.080-0.289 0.208 0.261 0.458 0.495 0.728 0.631 0.168 0.083 0.325 0.125 0.463 0.125s0.263-0.041 0.369-0.123c0.131-0.098 0.246-0.212 0.36-0.322 0.064-0.064 0.128-0.125 0.191-0.182l0.052-0.047c0.010-0.008 0.022-0.024 0.036-0.036 0.004 0.268 0.033 0.501 0.215 0.748 0.043 0.059 0.087 0.115 0.107 0.19 0.021 0.091-0.011 0.172-0.028 0.261-0.022 0.135 0.028 0.248 0.036 0.381 0.010 0.144 0.042 0.288 0.038 0.433-0.001 0.067-0.022 0.181 0.004 0.24 0.079-0.032 0.076-0.113 0.12-0.17 0.050-0.071 0.119-0.11 0.16-0.187 0.087-0.157 0.113-0.337 0.159-0.504 0.042-0.159 0.089-0.318 0.147-0.47 0.061-0.154 0.086-0.332 0.089-0.497 0.007-0.208 0.019-0.412 0.018-0.62 0-0.040-0.007-0.077-0.015-0.114-0.016-0.079-0.033-0.148-0.030-0.23 0.006-0.24 0.036-0.478 0.088-0.712 0.003-0.016 0.014-0.058 0.021-0.095 0.071-0.099 0.151-0.202 0.218-0.298 0.058-0.086 0.12-0.172 0.181-0.257 0.067-0.091 0.129-0.187 0.193-0.279 0.068 0.598 0.193 1.568 0.341 1.559 0.516-0.604 0.463-1.322 0.596-1.945 0.084-0.39 0.197-0.776 0.234-1.168 0.013-0.128-0.006-0.245 0.064-0.362 0.033-0.057 0.059-0.111 0.095-0.163 0.092-0.142 0.184-0.285 0.276-0.427 0.083-0.132 0.168-0.263 0.254-0.393 0.033-0.049 0.061-0.101 0.092-0.15 0.014 0.654 0.077 1.314 0.374 1.939 0.237-0.058 0.317-0.265 0.332-0.438 0.043-0.516-0.073-1.028 0.058-1.541 0.107-0.409 0.3-0.752 0.289-1.176-0.006-0.217-0.006-0.349 0.117-0.527-0.001 0.020-0.014-0.024-0.026-0.073 0.086-0.141 0.166-0.285 0.23-0.43 0.068-0.156 0.076-0.32 0.080-0.478 0.004-0.095 0.007-0.184 0.027-0.268 0.011-0.068 0.022-0.138 0.030-0.205 0.015-0.096 0.028-0.193 0.052-0.291 0.014-0.053 0.043-0.107 0.073-0.165 0.015-0.028 0.030-0.055 0.047-0.092 0.011-0.032 0.031-0.073 0.030-0.125l-0.008-0.036c0.003-0.016 0.008-0.028 0.016-0.041 0.010-0.024 0.022-0.046 0.025-0.061 0.018-0.043 0.033-0.089 0.047-0.135l0.015-0.052c0.018-0.067 0.031-0.123 0.065-0.176 0.006-0.016 0.018-0.024 0.028-0.040 0.034-0.047 0.080-0.108 0.084-0.177 0.003-0.036 0.001-0.076 0-0.113v-0.093l-0.014-0.049c0.001-0.008 0.003-0.020 0.007-0.036 0.014-0.068 0.025-0.136 0.034-0.203 0.022-0.129 0.039-0.277-0.013-0.421l-0.043-0.12z"></path>
<path d="M22.493 12.14c-0.053-0.079-0.144-0.151-0.212-0.217-0.113-0.105-0.325-0.113-0.472-0.065-0.059 0.016-0.147 0.024-0.197 0.047-0.077 0.041-0.159 0.156-0.117 0.114-0.006 0.091-0.079 0.215-0.116 0.3-0.073 0.172-0.186 0.325-0.263 0.495-0.221 0.487-0.401 1.013-0.414 1.552-0.007 0.237 0.018 0.49 0.12 0.708 0.059 0.126 0.246 0.407 0.412 0.395 0.166-0.008 0.386-0.326 0.475-0.433 0.169-0.206 0.295-0.421 0.487-0.611 0.144-0.14 0.32-0.271 0.409-0.447 0.15-0.291 0.126-0.779 0.095-1.098-0.028-0.243-0.070-0.531-0.208-0.74z"></path>
<path d="M9.588 15.063c0.101 0.445 0.564 0.605 0.963 0.485 0.243-0.073 0.46-0.214 0.61-0.426 0.105-0.151 0.123-0.347 0.168-0.522 0.038-0.146 0.191-0.362-0.202-0.184-0.015-0.113 0-0.166 0.022-0.276 0.044-0.249-0.042-0.476-0.178-0.682-0.288-0.427-0.645-0.814-1.141-0.994-0.196-0.070-0.448-0.062-0.642 0.012-0.093 0.036-0.317 0.142-0.368 0.231-0.027 0.051-0.007 0.089 0.004 0.142 0.024 0.126 0.059 0.245 0.077 0.372 0.037 0.279 0.178 0.423 0.331 0.651 0.229 0.344 0.266 0.798 0.356 1.19z"></path>
<path d="M25.333 2.33c-0.087-0.070-0.166 0.024-0.23 0.073-0.093 0.107-0.196 0.208-0.304 0.302-0.151 0.102-0.31 0.188-0.482 0.253-0.484 0.258-0.868 0.678-1.28 1.032-0.338 0.288-0.616 0.565-0.899 0.912-0.248 0.301-0.503 0.608-0.749 0.921-0.016-0.028-0.030-0.065-0.046-0.093-0.052-0.085-0.104-0.17-0.147-0.257l-0.044-0.096c-0.064-0.134-0.128-0.271-0.252-0.411-0.062-0.068-0.129-0.135-0.197-0.202-0.068-0.068-0.135-0.135-0.196-0.206-0.211-0.246-0.442-0.442-0.773-0.656-0.185-0.119-0.328-0.267-0.478-0.424-0.168-0.176-0.341-0.359-0.586-0.512-0.093-0.059-0.165-0.142-0.246-0.24-0.098-0.114-0.208-0.245-0.369-0.341-0.162-0.095-0.417-0.166-0.621-0.224l-0.111-0.032c-0.202-0.059-0.347-0.102-0.501-0.194-0.062-0.036-0.119-0.079-0.177-0.122-0.133-0.097-0.285-0.206-0.484-0.267-0.455-0.144-0.946 0.062-1.276 0.258-0.463 0.276-0.811 0.58-1.182 0.903l-0.217 0.185c-0.205 0.178-0.412 0.356-0.635 0.525-0.096 0.074-0.202 0.142-0.306 0.211-0.157 0.102-0.32 0.209-0.46 0.337-0.332 0.289-0.584 0.614-0.828 0.93l-0.168 0.218c-0.166 0.215-0.332 0.429-0.501 0.641l-0.052 0.064c-0.132 0.165-0.255 0.322-0.42 0.401l-0.098 0.045c-0.046 0.020-0.093 0.046-0.141 0.070-0.279-0.212-0.536-0.507-0.694-0.675-0.271-0.291-0.522-0.601-0.77-0.914-0.3-0.386-0.585-0.86-0.947-1.191-0.418-0.386-0.986-0.521-1.418-0.888-0.102-0.086-0.202-0.226-0.291-0.331 0.008 0.197-0.001 0.398 0 0.595 0.004 0.288 0.076 0.53 0.031 0.811-0.037 0.248 0.006 0.328 0.154 0.512 0.12 0.146 0.277 0.252 0.403 0.393 0.366 0.409 0.571 0.915 0.779 1.417 0.282 0.67 0.684 1.255 0.998 1.908 0.080 0.168 0.174 0.332 0.246 0.503 0.068 0.156 0.010 0.304 0.040 0.463 0.039 0.22 0.030 0.662 0.337 0.678 0.332 0.016 0.485-0.378 0.639-0.599 0.098-0.141 0.233-0.236 0.347-0.363 0.116-0.128 0.169-0.291 0.277-0.423 0.018-0.024 0.039-0.043 0.058-0.065 0.086-0.036 0.166-0.075 0.248-0.165 0.053-0.059 0.102-0.12 0.15-0.181l0.083-0.101c0.071-0.083 0.148-0.157 0.226-0.231l-0.162-0.172 0.196 0.141c0.119-0.11 0.239-0.224 0.347-0.374 0.061-0.081 0.123-0.16 0.197-0.23 0.162-0.15 0.261-0.27 0.387-0.46 0.083-0.125 0.197-0.239 0.318-0.361l0.2-0.208c0.154-0.165 0.301-0.32 0.472-0.451 0.079-0.058 0.154-0.117 0.231-0.178 0.32-0.251 0.62-0.487 0.976-0.587 0.242-0.070 0.479-0.16 0.715-0.251 0.463-0.18 0.902-0.347 1.369-0.347h0.019c0.079 0.001 0.144 0 0.218-0.001 0.199-0.004 0.386-0.008 0.549 0.045 0.116 0.040 0.237 0.052 0.358 0.064 0.236 0.024 0.322 0.043 0.346 0.113 0.077 0.233 0.215 0.391 0.338 0.518 0.147 0.148 0.306 0.282 0.467 0.415 0.148 0.125 0.297 0.248 0.435 0.387 0.096 0.098 0.191 0.203 0.285 0.307 0.172 0.193 0.352 0.393 0.564 0.564l0.141 0.112c0.159 0.125 0.314 0.248 0.464 0.39 0.123 0.119 0.254 0.223 0.383 0.328l0.122 0.099c0.052 0.040 0.090 0.098 0.135 0.163 0.050 0.074 0.105 0.156 0.19 0.233 0.089 0.083 0.196 0.134 0.291 0.176 0.047 0.024 0.095 0.044 0.174 0.104 0.064 0.059 0.168 0.132 0.303 0.153 0.055 0.074 0.11 0.151 0.165 0.221 0.102 0.135 0.2 0.533 0.445 0.445 0.292-1.104 0.625-2.19 1.239-3.17 0.441-0.703 1.159-1.219 1.403-2.044 0.053-0.187 0.044-0.369 0.116-0.544 0.036-0.079 0.108-0.154 0.141-0.23 0.028-0.070 0.101-0.464 0.024-0.527z"></path>
</svg>
