<!-- Generated by IcoMoon.io -->
<svg version="1.1" xmlns="http://www.w3.org/2000/svg" width="32" height="32" viewBox="0 0 32 32">
<title>gifts_of_the_plaguebearer</title>
<path d="M5.712 29.945c-0.020-0.032 0.003-0.041 0.053-0.022 0.097 0.037 0.114 0.077 0.034 0.077-0.029 0-0.068-0.025-0.087-0.055zM7.431 29.145c-0.191-0.043-0.354-0.127-0.475-0.244-0.235-0.227-0.785-0.558-1.010-0.608-0.096-0.021-0.263-0.096-0.372-0.167s-0.273-0.146-0.365-0.168c-0.247-0.057-0.53-0.243-0.532-0.35-0.004-0.248-0.287-0.754-0.645-1.153-0.339-0.377-0.454-0.462-0.99-0.73-0.333-0.167-0.64-0.303-0.681-0.303s-0.128-0.069-0.193-0.154c-0.198-0.258-0.609-0.908-0.644-1.017-0.018-0.057-0.168-0.248-0.333-0.425-0.31-0.333-0.365-0.47-0.367-0.91-0-0.142-0.037-0.362-0.082-0.49-0.103-0.295-0.076-0.386 0.362-1.221 0.407-0.776 0.463-0.871 0.697-1.172 0.096-0.123 0.229-0.32 0.298-0.438 0.14-0.243 0.368-0.537 0.739-0.952 0.14-0.157 0.34-0.398 0.445-0.536 0.832-1.096 1.987-2.169 2.908-2.701 0.142-0.082 0.468-0.356 0.726-0.61 0.673-0.663 1.318-1.212 1.424-1.212 0.167 0 0.454-0.223 0.552-0.428 0.065-0.138 0.087-0.282 0.068-0.452-0.026-0.231-0.001-0.294 0.337-0.844 0.201-0.327 0.45-0.733 0.553-0.902s0.227-0.445 0.275-0.614c0.048-0.169 0.134-0.433 0.191-0.586 0.304-0.816 0.39-1.233 0.389-1.879-0-0.349 0.036-0.81 0.082-1.025 0.192-0.913 0.271-1.897 0.241-2.98l-0.030-1.054 0.61-0.238c0.476-0.186 0.73-0.25 1.152-0.291 0.606-0.059 1.64-0.027 1.854 0.056 0.107 0.042 0.189 0.030 0.347-0.050 0.114-0.058 0.285-0.105 0.38-0.105s0.24-0.035 0.323-0.078c0.083-0.043 0.224-0.087 0.314-0.098l0.163-0.020-0.014 0.67c-0.013 0.644-0.074 1.141-0.154 1.27-0.021 0.034-0.057 0.302-0.080 0.596s-0.069 0.675-0.102 0.846c-0.033 0.172-0.086 0.938-0.117 1.703-0.103 2.462-0.121 2.637-0.302 2.945-0.092 0.157-0.201 0.473-0.258 0.754-0.129 0.628-0.162 0.727-0.43 1.293-0.123 0.261-0.266 0.592-0.318 0.736s-0.184 0.379-0.294 0.524c-0.128 0.167-0.234 0.396-0.293 0.632-0.092 0.364-0.098 0.372-0.397 0.522-0.167 0.084-0.441 0.196-0.609 0.249s-0.376 0.161-0.462 0.239c-0.152 0.137-0.234 0.251-0.957 1.328-0.181 0.269-0.384 0.571-0.452 0.672-0.108 0.159-0.39 0.376-0.783 0.602-0.38 0.219-0.876 0.471-0.928 0.471-0.118 0-1.198 0.638-1.501 0.886-0.513 0.42-1.456 1.417-1.566 1.654-0.386 0.837-0.5 1.512-0.5 2.974v1.22l0.284 0.551c0.516 1.002 1.005 1.436 1.732 1.541 0.227 0.033 0.563 0.088 0.747 0.123s0.699 0.062 1.145 0.061c0.77-0.002 0.832-0.011 1.281-0.179 0.259-0.097 0.489-0.177 0.51-0.177 0.078 0 0.11 0.395 0.050 0.618-0.062 0.23-0.461 0.683-0.8 0.909-0.085 0.057-0.192 0.182-0.239 0.279-0.14 0.292-0.643 0.462-1.752 0.591-0.261 0.030-0.563 0.067-0.67 0.082s-0.326-0.003-0.486-0.040zM24.862 28.824c-0.061-0.025-0.183-0.046-0.27-0.049s-0.288-0.090-0.447-0.196c-0.197-0.131-0.4-0.21-0.635-0.248-0.19-0.031-0.403-0.087-0.474-0.125s-0.292-0.088-0.492-0.111c-0.2-0.023-0.501-0.084-0.67-0.136s-0.442-0.115-0.606-0.14c-0.165-0.025-0.353-0.095-0.419-0.155s-0.225-0.162-0.355-0.227c-0.188-0.095-0.247-0.161-0.293-0.334-0.069-0.258-0.027-0.528 0.122-0.775 0.060-0.1 0.118-0.181 0.129-0.181s0.103 0.047 0.205 0.104c0.102 0.057 0.335 0.133 0.52 0.17s0.451 0.103 0.594 0.148c0.194 0.061 0.567 0.081 1.485 0.081 1.207 0 1.23-0.002 1.416-0.135 0.104-0.074 0.409-0.265 0.677-0.425 0.435-0.259 0.502-0.321 0.621-0.577 0.073-0.158 0.151-0.359 0.171-0.447s0.086-0.264 0.144-0.391c0.341-0.741 0.351-0.792 0.377-1.871 0.020-0.817 0.008-1.067-0.057-1.228-0.116-0.286-0.416-1.281-0.456-1.513-0.068-0.394-0.244-0.654-0.561-0.834-0.165-0.093-0.408-0.197-0.541-0.231-0.383-0.098-0.474-0.204-0.503-0.587-0.035-0.465-0.387-1.048-0.855-1.416-0.188-0.147-0.478-0.41-0.645-0.583-0.21-0.217-0.385-0.342-0.565-0.402-0.144-0.048-0.295-0.127-0.335-0.177s-0.288-0.189-0.549-0.309c-0.763-0.352-0.849-0.396-1.188-0.615-0.177-0.114-0.369-0.208-0.427-0.208-0.16 0-0.317-0.171-0.387-0.424-0.049-0.174-0.156-0.311-0.451-0.573-0.259-0.23-0.399-0.399-0.424-0.512-0.020-0.093-0.093-0.237-0.162-0.321-0.409-0.498-0.926-1.468-0.926-1.737 0-0.145-0.121-0.432-0.484-1.151-0.064-0.127-0.077-0.281-0.054-0.642 0.017-0.261 0.057-1.14 0.089-1.954 0.037-0.944 0.089-1.598 0.142-1.805 0.046-0.179 0.083-0.471 0.083-0.649s0.050-0.521 0.111-0.763c0.076-0.301 0.111-0.629 0.112-1.040 0.001-0.585 0.004-0.6 0.127-0.599 0.186 0.002 1.070 0.291 1.597 0.523l0.46 0.202h1.781v0.193c0 0.205 0.125 0.737 0.212 0.906 0.029 0.056 0.070 0.44 0.092 0.854 0.023 0.434 0.073 0.832 0.119 0.942 0.044 0.105 0.079 0.254 0.079 0.332s0.138 0.389 0.307 0.692l0.307 0.55v0.843c0 0.732 0.019 0.914 0.145 1.381 0.162 0.6 0.338 0.843 0.804 1.109 0.615 0.351 1.098 0.678 1.394 0.943 0.194 0.173 0.448 0.334 0.644 0.407 0.681 0.255 0.92 0.406 1.197 0.756 0.147 0.186 0.297 0.43 0.334 0.543 0.091 0.28 0.368 0.65 0.548 0.732 0.082 0.037 0.364 0.289 0.626 0.56s0.59 0.558 0.729 0.637c0.148 0.085 0.422 0.351 0.666 0.645 0.229 0.277 0.492 0.533 0.586 0.574 0.202 0.086 0.478 0.419 0.478 0.576 0 0.061 0.023 0.172 0.052 0.247 0.094 0.247 0.283 1.423 0.282 1.753-0 0.178-0.039 0.433-0.085 0.566-0.098 0.281-0.046 0.563 0.139 0.76 0.096 0.102 0.105 0.15 0.058 0.313-0.030 0.106-0.055 0.356-0.056 0.555s-0.038 0.469-0.083 0.598c-0.045 0.129-0.097 0.343-0.115 0.475s-0.066 0.327-0.106 0.435c-0.040 0.107-0.191 0.56-0.336 1.005-0.29 0.892-0.472 1.387-0.551 1.494-0.028 0.038-0.113 0.070-0.188 0.070s-0.191 0.029-0.258 0.065c-0.172 0.091-0.555 0.393-0.636 0.499-0.037 0.049-0.229 0.195-0.426 0.323-0.264 0.172-0.395 0.303-0.497 0.497-0.076 0.145-0.205 0.386-0.286 0.537s-0.147 0.319-0.147 0.375c0 0.056-0.087 0.188-0.192 0.294-0.27 0.27-0.654 0.37-1.424 0.37-0.496 0-0.663 0.021-0.829 0.104-0.137 0.069-0.245 0.089-0.319 0.060z"></path>
</svg>
