<!-- Generated by IcoMoon.io -->
<svg version="1.1" xmlns="http://www.w3.org/2000/svg" width="32" height="32" viewBox="0 0 32 32">
<title>going_twice</title>
<path d="M28.090 30.142c-0.285-0.458-2.701-4.631-5.368-9.273s-4.927-8.528-5.022-8.636c-0.095-0.109-0.715 0.11-1.389 0.491-0.915 0.516-1.268 0.62-1.425 0.418-0.416-0.538-2.719-4.58-2.719-4.774 0-0.109 0.506-0.474 1.124-0.811 0.853-0.464 1.114-0.727 1.086-1.090-0.066-0.838 0.001-1.001 0.472-1.15 0.29-0.092 0.612-0.009 0.872 0.226 0.387 0.351 0.472 0.337 1.438-0.229 0.564-0.331 1.058-0.564 1.097-0.519 0.237 0.279 2.797 4.867 2.797 5.014 0 0.099-0.458 0.456-1.017 0.794l-1.017 0.615 0.546 0.939c7.541 12.953 10.37 18.030 10.253 18.398-0.235 0.741-1.143 0.523-1.727-0.414zM1.996 28.921l0.066-1.388 1.098-0.069c0.822-0.052 1.224-0.206 1.6-0.611l0.502-0.541h14.669l0.357 0.545c0.298 0.455 0.564 0.556 1.615 0.611l1.258 0.066 0.132 2.776h-21.364zM11.467 17.199c-0.541-0.316-4.186-6.716-4.182-7.343 0.002-0.294 0.098-0.685 0.214-0.868 0.187-0.296 0.245-0.296 0.518 0 0.525 0.57 4.595 7.746 4.595 8.102 0 0.379-0.588 0.435-1.145 0.109zM11.922 14.706c-0.513-0.886-1.476-2.541-2.142-3.68s-1.175-2.101-1.132-2.14c0.043-0.039 0.741-0.111 1.552-0.16l1.475-0.090 2.916 5.017-0.793 1.332c-0.436 0.732-0.827 1.332-0.869 1.332s-0.495-0.725-1.007-1.61zM20.191 7.206c-0.748-1.311-1.36-2.439-1.36-2.507 0-0.364 1.647-2.814 1.791-2.664 0.277 0.29 4.238 7.217 4.163 7.281-0.038 0.032-0.781 0.107-1.651 0.166l-1.583 0.108zM25.588 9.483c-0.302-0.206-4.759-7.938-4.759-8.255 0-0.342 0.714-0.289 1.259 0.093 0.514 0.36 4.294 6.756 4.294 7.266 0 0.484-0.526 1.079-0.793 0.896z"></path>
</svg>
