<!-- Generated by IcoMoon.io -->
<svg version="1.1" xmlns="http://www.w3.org/2000/svg" width="32" height="32" viewBox="0 0 32 32">
<title>grand_compass</title>
<path d="M11.852 25.763l-4.237-4.237-1.005 1.763c-0.553 0.97-1.549 2.735-2.212 3.922s-1.228 2.182-1.255 2.209c-0.026 0.027-0.172 0.001-0.324-0.057-0.221-0.085 0.156-0.954 1.887-4.342l2.163-4.236-4.27-4.281h4.656l0.591 0.573c0.325 0.315 0.62 0.538 0.655 0.495s1.271-2.446 2.747-5.342 2.787-5.264 2.915-5.264c0.127-0 0.597 0.376 1.044 0.836 0.813 0.836 0.813 0.836 1.089 0.442 0.239-0.341 1.528-1.279 1.758-1.279 0.044 0 1.313 2.409 2.819 5.354s2.762 5.383 2.792 5.418c0.029 0.035 0.354-0.228 0.721-0.585l0.668-0.649h2.222c1.222 0 2.221 0.061 2.219 0.135s-0.629 0.755-1.395 1.513-1.704 1.701-2.085 2.096l-0.694 0.718 2.085 4.107c1.851 3.647 2.251 4.729 1.597 4.325-0.092-0.057-1.12-1.807-2.286-3.889s-2.143-3.787-2.171-3.787c-0.028 0-1.9 1.863-4.159 4.139s-4.15 4.139-4.202 4.139c-0.052 0-2.001-1.907-4.332-4.237zM19.539 22.003l3.298-3.318-1.096-1.946c-1.641-2.912-1.508-2.756-2.337-2.756-1.085 0-1.383-0.251-2.057-1.729-0.812-1.782-1.313-2.482-1.604-2.24-0.123 0.102-0.532 0.854-0.91 1.672-0.912 1.975-1.217 2.297-2.171 2.297h-0.757l-2.595 4.553 3.389 3.392c1.864 1.866 3.423 3.392 3.466 3.392s1.561-1.493 3.375-3.318zM15.236 7.131c-0.495-0.288-0.892-1.207-0.767-1.776 0.32-1.455 2.25-1.852 3.053-0.627 0.935 1.428-0.81 3.263-2.286 2.403z"></path>
</svg>
