<!-- Generated by IcoMoon.io -->
<svg version="1.1" xmlns="http://www.w3.org/2000/svg" width="32" height="32" viewBox="0 0 32 32">
<title>grotto_of_despair</title>
<path d="M27.707 2c-0.088 0.059-0.179 0.116-0.27 0.173-0.067 0.098-0.135 0.198-0.219 0.282-0.157 0.158-0.332 0.3-0.494 0.454-0.244 0.233-0.487 0.465-0.725 0.703s-0.469 0.483-0.705 0.724c-0.034 0.037-0.077 0.066-0.116 0.099-0.091-0.015-0.173-0.027-0.255-0.041-0.073 0.065-0.14 0.12-0.202 0.18-0.286 0.286-0.573 0.574-0.857 0.863-0.363 0.369-0.724 0.742-1.091 1.108-0.178 0.176-0.361 0.349-0.556 0.506-0.241 0.193-0.494 0.372-0.739 0.562-0.469 0.369-0.919 0.757-1.347 1.174-0.34 0.332-0.703 0.64-1.056 0.958-0.045 0.040-0.092 0.078-0.138 0.117-0.222 0.191-0.443 0.383-0.665 0.575-0.026 0.023-0.044 0.054-0.067 0.080-0.074 0.084-0.146 0.169-0.224 0.249-0.085 0.087-0.176 0.167-0.263 0.252-0.224 0.224-0.446 0.451-0.67 0.677-0.023 0.023-0.055 0.040-0.081 0.062-0.066 0.055-0.136 0.107-0.195 0.168-0.138 0.142-0.246 0.31-0.407 0.435-0.099 0.077-0.187 0.176-0.264 0.279-0.211 0.284-0.471 0.524-0.717 0.775-0.157 0.16-0.336 0.296-0.45 0.494-0.025 0.043-0.074 0.072-0.111 0.109-0.048 0.047-0.096 0.096-0.146 0.143-0.16 0.149-0.284 0.326-0.425 0.489-0.376 0.431-0.701 0.899-1.025 1.367-0.256 0.369-0.498 0.749-0.746 1.122-0.168 0.252-0.332 0.508-0.508 0.753-0.201 0.281-0.413 0.553-0.622 0.826-0.029 0.039-0.074 0.065-0.116 0.099-0.173-0.149-0.334-0.29-0.498-0.428-0.151-0.127-0.329-0.226-0.421-0.413-0.014-0.029-0.048-0.048-0.076-0.070-0.113-0.094-0.231-0.182-0.341-0.278-0.191-0.168-0.405-0.311-0.593-0.483-0.434-0.297-0.868-0.589-1.302-0.882-0.034 0.005-0.073-0.015-0.138-0.059-0.165-0.111-0.326-0.226-0.491-0.336-0.114-0.077-0.235-0.145-0.348-0.224-0.124-0.089-0.208-0.234-0.37-0.274-0.015-0.003-0.027-0.021-0.039-0.033-0.025-0.033-0.055-0.061-0.083-0.089-0.436-0.314-0.868-0.636-1.288-0.977-0.012 0.013-0.023 0.023-0.034 0.040-0.015 0.021-0.026 0.043-0.048 0.079-0.044-0.006-0.070-0.006-0.094-0.014-0.22-0.076-0.44-0.15-0.659-0.23-0.039-0.014-0.073-0.045-0.102-0.077-0.111-0.12-0.26-0.129-0.406-0.143-0.043-0.004-0.080 0.006-0.11 0.029 0.173 0.226 0.348 0.45 0.515 0.681 0.023 0.014 0.047 0.030 0.072 0.043 0.111 0.061 0.195 0.135 0.259 0.244 0.173 0.3 0.377 0.579 0.595 0.848 0.215 0.266 0.378 0.56 0.526 0.863 0.487 0.603 1.031 1.153 1.508 1.764 0.311 0.396 0.677 0.742 0.974 1.142 0.208 0.132 0.4 0.284 0.562 0.483 0.155 0.191 0.282 0.389 0.326 0.637 0.008 0.050 0.026 0.101 0.054 0.143 0.083 0.127 0.103 0.271 0.142 0.412-0.052 0.077-0.095 0.156-0.151 0.218-0.372 0.41-0.672 0.877-1.046 1.285-0.274 0.299-0.53 0.615-0.793 0.924-0.168 0.198-0.352 0.385-0.498 0.599-0.268 0.391-0.516 0.797-0.769 1.2-0.1 0.16-0.182 0.334-0.29 0.489-0.058 0.081-0.103 0.154-0.103 0.255-0.003 0.153-0.066 0.284-0.158 0.403-0.052 0.067-0.105 0.136-0.15 0.209-0.142 0.227-0.286 0.453-0.418 0.685-0.106 0.187-0.248 0.356-0.301 0.571-0.032 0.129-0.1 0.237-0.178 0.344-0.147 0.204-0.266 0.424-0.332 0.669-0.037 0.134-0.080 0.264-0.125 0.395-0.017 0.048-0.041 0.095-0.070 0.136-0.143 0.205-0.292 0.406-0.432 0.614-0.059 0.084-0.11 0.175-0.113 0.285-0.001 0.051-0.014 0.106-0.039 0.149-0.132 0.231-0.273 0.46-0.407 0.691-0.087 0.15-0.173 0.299-0.251 0.453-0.040 0.078-0.004 0.164 0.066 0.201 0.062 0.034 0.158 0.004 0.2-0.070 0.026-0.045 0.032-0.102 0.061-0.143 0.069-0.096 0.109-0.222 0.231-0.267 0.184-0.069 0.334-0.171 0.417-0.356 0.014-0.030 0.040-0.056 0.066-0.079 0.19-0.164 0.372-0.339 0.573-0.487 0.328-0.242 0.603-0.54 0.879-0.834 0.111-0.12 0.202-0.259 0.332-0.351 0.026-0.003 0.044-0.006 0.061-0.003 0.19 0.048 0.34 0.022 0.405-0.195 0.008-0.027 0.047-0.047 0.073-0.070 0.098-0.088 0.179-0.184 0.216-0.315 0.021-0.074 0.059-0.143 0.092-0.213 0.048-0.103 0.112-0.193 0.216-0.251 0.059-0.033 0.113-0.080 0.164-0.127 0.271-0.253 0.545-0.505 0.812-0.762 0.253-0.248 0.501-0.5 0.749-0.753 0.15-0.153 0.286-0.323 0.443-0.468 0.153-0.142 0.311-0.274 0.42-0.454 0.027-0.044 0.061-0.088 0.102-0.117 0.087-0.062 0.138-0.151 0.204-0.231 0.165-0.198 0.345-0.384 0.523-0.573 0.125-0.132 0.268-0.246 0.38-0.388 0.171-0.216 0.31-0.458 0.533-0.63 0.026-0.021 0.033-0.063 0.056-0.087 0.142-0.139 0.271-0.296 0.432-0.406s0.361-0.151 0.556-0.158c0.025 0.029 0.051 0.054 0.077 0.078 0.065-0.010 0.133 0.005 0.197 0.059 0.314 0.273 0.707 0.487 1.112 0.687 0.095-0.009 0.175 0.019 0.256 0.079 0.066 0.048 0.133 0.095 0.2 0.142 0.261 0.125 0.518 0.253 0.75 0.392 0.725 0.436 1.507 0.8 2.212 1.269 0.621 0.413 1.153 0.874 1.832 1.207 0.205 0.101 0.414 0.205 0.622 0.314 0.018-0.026 0.028-0.059 0.021-0.092-0.022-0.11-0.047-0.222-0.121-0.311-0.194-0.231-0.385-0.464-0.585-0.691-0.084-0.098-0.195-0.172-0.275-0.274-0.271-0.347-0.564-0.676-0.881-0.98-0.197-0.19-0.409-0.376-0.643-0.513-0.25-0.149-0.451-0.347-0.663-0.535-0.103-0.091-0.191-0.2-0.285-0.3-0.142-0.151-0.282-0.303-0.421-0.456-0.011-0.011-0.022-0.023-0.032-0.034-0.032-0.011-0.062-0.027-0.089-0.050-0.087-0.070-0.175-0.139-0.256-0.218-0.018-0.018-0.030-0.036-0.040-0.055-0.067-0.040-0.128-0.099-0.187-0.18-0.2-0.268-0.438-0.509-0.672-0.75-0.078-0.083-0.147-0.165-0.209-0.26-0.128-0.195-0.263-0.385-0.402-0.573-0.123-0.167-0.257-0.323-0.381-0.49-0.070-0.096-0.128-0.202-0.197-0.311 0.153-0.286 0.275-0.581 0.515-0.808 0.289-0.273 0.571-0.555 0.857-0.83 0.35-0.334 0.71-0.657 1.034-1.018 0.067-0.077 0.149-0.143 0.22-0.217 0.164-0.176 0.334-0.348 0.478-0.545 0.201-0.279 0.405-0.562 0.644-0.808 0.193-0.198 0.38-0.402 0.545-0.622 0.231-0.31 0.482-0.607 0.681-0.941 0.154-0.26 0.34-0.501 0.555-0.716 0.033-0.032 0.087-0.043 0.131-0.063 0.081 0.085 0.168 0.157 0.257 0.219 0.019 0.003 0.040 0.008 0.061 0.015 0.974 0.369 1.897 0.856 2.842 1.288 0.021-0.030 0.034-0.066 0.033-0.109-0.001-0.059-0.022-0.118-0.043-0.173-0.033-0.089-0.089-0.172-0.109-0.263-0.008-0.040-0.022-0.078-0.034-0.116-0.242-0.3-0.46-0.621-0.736-0.89-0.021-0.021-0.034-0.043-0.045-0.065-0.019-0.022-0.039-0.043-0.058-0.063-0.136-0.146-0.275-0.288-0.41-0.434-0.175-0.188-0.301-0.399-0.307-0.665 0.226-0.315 0.475-0.615 0.669-0.952 0.051-0.089 0.11-0.175 0.172-0.257 0.176-0.235 0.356-0.468 0.533-0.703 0.242-0.325 0.471-0.661 0.728-0.974 0.451-0.548 0.831-1.146 1.244-1.722 0.241-0.337 0.538-0.626 0.809-0.939 0.14-0.162 0.31-0.303 0.438-0.473 0.124-0.164 0.262-0.321 0.337-0.517 0.018-0.046 0.065-0.080 0.094-0.123 0.122-0.189 0.304-0.33 0.405-0.535 0.039-0.077 0.073-0.157 0.118-0.23 0.172-0.27 0.347-0.535 0.522-0.803 0.003-0.004 0.008-0.005 0.011-0.010 0.14-0.268 0.354-0.5 0.564-0.732 0.307-0.34 0.621-0.698 0.881-1.086 0.074-0.149 0.143-0.3 0.215-0.45-0.014-0.010-0.025-0.013-0.037-0.019z"></path>
<path d="M16.771 8.779c-0.069-0.029-0.139-0.061-0.208-0.094-0.088-0.034-0.173-0.072-0.26-0.107-0.015 0.011-0.029 0.023-0.043 0.034-0.089-0.048-0.165-0.088-0.239-0.131-0.217-0.123-0.42-0.275-0.661-0.348-0.168-0.051-0.318-0.129-0.472-0.211-0.267-0.14-0.541-0.267-0.811-0.403-0.255-0.128-0.511-0.255-0.757-0.395-0.157-0.089-0.311-0.18-0.465-0.271-0.018-0.009-0.036-0.018-0.052-0.030-0.004-0.003-0.008-0.005-0.011-0.006-0.204-0.121-0.406-0.242-0.61-0.363-0.048-0.029-0.095-0.059-0.139-0.094-0.311-0.171-0.623-0.336-0.912-0.548-0.471-0.344-0.98-0.533-1.495-0.735-0.010-0.003-0.018-0.004-0.028-0.005-0.117-0.032-0.227-0.062-0.318-0.136-0.145-0.062-0.29-0.127-0.434-0.201-0.070-0.036-0.146-0.072-0.224-0.106-0.021 0.022-0.041 0.043-0.065 0.067-0.092-0.048-0.183-0.083-0.259-0.136-0.054-0.040-0.107-0.083-0.16-0.124-0.449-0.167-0.941-0.333-1.385-0.548-0.023 0.006-0.047 0.014-0.072 0.019-0.007 0.001-0.014 0.001-0.021 0.001 0.008 0.041 0.006 0.090-0.015 0.147-0.056 0.156 0.008 0.246 0.158 0.337 0.125 0.074 0.248 0.155 0.366 0.241 0.12 0.087 0.222 0.198 0.348 0.27 0.328 0.186 0.604 0.433 0.862 0.702 0.067 0.070 0.14 0.136 0.209 0.206 0.447 0.222 0.775 0.582 1.153 0.943 0.714 0.679 1.474 1.363 2.248 1.971 0.729 0.571 1.379 1.214 2.118 1.775 0.234 0.176 0.457 0.347 0.663 0.535 0.11-0.076 0.219-0.154 0.321-0.24 0.146-0.121 0.289-0.248 0.416-0.387 0.286-0.315 0.623-0.573 0.952-0.838 0.113-0.091 0.255-0.157 0.215-0.343-0.001-0.013 0.022-0.027 0.026-0.044 0.017-0.056 0.050-0.118 0.040-0.171-0.015-0.087-0.007-0.164 0.018-0.235z"></path>
<path d="M26.065 26.959c-0.756-0.903-1.606-1.708-2.495-2.499-0.037-0.017-0.072-0.036-0.107-0.061-0.172-0.117-0.344-0.235-0.527-0.33-0.248-0.129-0.464-0.299-0.672-0.482-0.089-0.080-0.197-0.153-0.257-0.252-0.066-0.107-0.171-0.157-0.249-0.238-0.204-0.209-0.42-0.409-0.586-0.655-0.116-0.172-0.25-0.33-0.383-0.49-0.311-0.378-0.724-0.64-1.097-0.947-0.099-0.081-0.204-0.158-0.293-0.25-0.173-0.18-0.329-0.378-0.506-0.553-0.191-0.187-0.398-0.358-0.6-0.534-0.054-0.047-0.117-0.078-0.19-0.056-0.067 0.021-0.121-0.001-0.167-0.045-0.149-0.143-0.299-0.285-0.446-0.431-0.184-0.184-0.306-0.417-0.46-0.623-0.041-0.055-0.105-0.111-0.11-0.172-0.010-0.103-0.066-0.182-0.113-0.266-0.161 0.172-0.312 0.354-0.465 0.549-0.212 0.268-0.487 0.486-0.773 0.684-0.036 0.061-0.073 0.118-0.107 0.179-0.030 0.051-0.051 0.109-0.067 0.167 0.051 0.062 0.106 0.121 0.162 0.177 0.041 0.040 0.092 0.088 0.145 0.134 0.011 0.003 0.022 0.005 0.032 0.010 0.056 0.019 0.111 0.043 0.16 0.074 0.044 0.027 0.074 0.073 0.116 0.103 0.38 0.286 0.747 0.586 1.091 0.915 0.149 0.142 0.319 0.263 0.486 0.387 0.153 0.113 0.317 0.211 0.465 0.329 0.161 0.128 0.312 0.266 0.442 0.434 0.179 0.231 0.366 0.461 0.606 0.636 0.314 0.23 0.623 0.464 0.999 0.584 0.025 0.009 0.050 0.018 0.072 0.030 0.285 0.175 0.595 0.318 0.812 0.589 0.032 0.040 0.074 0.073 0.114 0.103 0.179 0.136 0.362 0.267 0.54 0.405 0.274 0.211 0.557 0.412 0.812 0.644 0.267 0.244 0.582 0.396 0.892 0.566 0.061 0.032 0.124 0.066 0.189 0.084 0.128 0.036 0.242 0.102 0.337 0.186 0.074 0.065 0.15 0.070 0.233 0.074 0.012 0.019 0.023 0.033 0.036 0.048 0.136 0.003 0.271 0.036 0.405 0.087 0.044-0.004 0.083 0.006 0.116 0.044 0.001 0.003 0.004 0.004 0.006 0.005 0.074 0.033 0.145 0.072 0.215 0.11 0.010 0.003 0.019 0.005 0.030 0.006 0.059 0.010 0.121 0.021 0.175 0.047 0.059 0.029 0.122 0.066 0.164 0.117 0.040 0.047 0.077 0.095 0.116 0.143 0.162 0.116 0.323 0.237 0.479 0.362 0.117 0.037 0.226 0.088 0.33 0.146-0.027-0.094-0.059-0.186-0.1-0.273z"></path>
<path d="M13.292 14.467c-0.015-0.066-0.065-0.095-0.12-0.125-0.241-0.125-0.449-0.288-0.574-0.538-0.023-0.044-0.058-0.087-0.098-0.118-0.118-0.099-0.235-0.205-0.367-0.286-0.295-0.18-0.584-0.363-0.859-0.575-0.377-0.29-0.789-0.529-1.2-0.767-0.022-0.013-0.044-0.033-0.069-0.037-0.173-0.029-0.282-0.154-0.399-0.27-0.228-0.226-0.484-0.409-0.782-0.54-0.238-0.106-0.493-0.164-0.724-0.275-0.172-0.081-0.35-0.088-0.513-0.128-0.072-0.006-0.124 0.013-0.154 0.048 0.672 0.782 1.515 1.473 2.205 2.219 0.443 0.479 0.82 1.038 1.306 1.474 0.162 0.146 0.385 0.376 0.604 0.586 0.015 0 0.029 0.001 0.044 0 0.040-0.003 0.083 0.022 0.121 0.039 0.065 0.026 0.125 0.058 0.19 0.083 0.128 0.048 0.238 0.029 0.318-0.092 0.084-0.128 0.211-0.202 0.341-0.268 0.183-0.094 0.358-0.205 0.579-0.202 0.113 0.001 0.176-0.116 0.15-0.226z"></path>
<path d="M8.752 7.505c-0.518-0.497-1.076-0.866-1.69-1.155-0.011-0.019-0.029-0.029-0.058-0.026-0.015-0.006-0.032-0.014-0.047-0.021-0.546 0.412-1.163 0.703-1.665 1.184 0 0.001-0.001 0.001-0.001 0.003-1.835 1.507-3.265 3.565-3.823 6.046l0.033 0.446c0.014-0.005 0.026-0.011 0.041-0.019-0.012 0.125 0.161 0.009 0.206-0.081 0.041-0.081 0.084-0.157 0.127-0.237 0.054-0.070 0.095-0.136 0.109-0.183 0.006-0.018 0.012-0.036 0.018-0.054 0.518-0.926 1.098-1.719 1.752-2.414 0.014-0.023 0.030-0.045 0.052-0.066 0.017-0.014 0.034-0.029 0.051-0.043 0.4-0.414 0.829-0.794 1.287-1.142 0.389-0.255 0.793-0.505 1.207-0.731 0.273-0.178 0.546-0.352 0.823-0.522 0.512-0.316 1.054-0.663 1.628-0.857 0-0.050-0.015-0.094-0.050-0.128z"></path>
<path d="M29.238 10.056c-0.084-0.125-0.178-0.249-0.288-0.369-0.259-0.285-0.479-0.549-0.595-0.892-0.396-0.379-0.819-0.732-1.263-1.061-0.431-0.319-0.925-0.888-1.467-0.65-0.081 0.036-0.16 0.085-0.237 0.142-0.311 0.39-0.577 0.823-0.848 1.254 1.168 0.422 2.221 1.363 3.145 2.172 0.497 0.436 0.925 0.941 1.298 1.489 0.39 0.392 0.745 0.822 1.027 1.288 0.061 0.083 0.124 0.162 0.182 0.246 0.051 0.073 0.145 0.062 0.248 0.006 0.008 0.010 0.017 0.018 0.025 0.027 0.010 0.011 0.023 0.014 0.037 0.018-0.069-0.668-0.205-1.313-0.405-1.946-0.255-0.584-0.612-1.133-0.859-1.726z"></path>
<path d="M15.491 2.871c-1.5 0.14-2.987 0.512-4.385 1.049-0.001 0-0.003 0.001-0.004 0.003-0.18 0.128-0.354 0.266-0.538 0.387-0.021 0.034-0.037 0.067-0.047 0.095-0.065 0.048-0.125 0.107-0.178 0.168 0.621 0.349 1.259 0.663 1.91 0.955 0.195 0.080 0.454 0.168 0.698 0.282 0.003-0.005 0.010-0.014 0.012-0.018-0.004 0.005 0.044 0.011 0.125 0.015 0.369-0.161 0.779-0.26 1.155-0.339 0.374-0.077 0.8-0.155 1.186-0.083 0.549-0.054 1.118-0.023 1.641-0.003 1.272 0.048 2.543 0.186 3.61 0.921 0.74-0.362 1.38-1.007 1.974-1.537 0.037-0.034 0.107-0.105 0.164-0.183-2.154-1.386-4.74-1.826-7.323-1.712z"></path>
</svg>
