<!-- Generated by IcoMoon.io -->
<svg version="1.1" xmlns="http://www.w3.org/2000/svg" width="32" height="32" viewBox="0 0 32 32">
<title>guardian1</title>
<path d="M27.814 12.052c0.029 0.483 0.050 0.982 0.050 1.51 0 0.513-0.025 1.026-0.074 1.529-0.039 0.613-0.089 1.256-0.149 1.928-0.070 0.658-0.15 1.17-0.25 1.529-0.115 0.677-0.244 1.309-0.393 1.902-0.135 0.593-0.284 1.186-0.444 1.779-0.214 0.607-0.439 1.2-0.667 1.772-0.235 0.584-0.483 1.131-0.742 1.654-0.414 0.683-1.111 1.385-2.097 2.127-0.394 0.324-0.857 0.629-1.38 0.912-0.533 0.279-1.056 0.548-1.584 0.817l-0.219 0.099c-0.284 0.159-0.567 0.303-0.867 0.444-0.293 0.144-0.583 0.293-0.861 0.442-0.284 0.149-0.533 0.295-0.743 0.444-0.213 0.159-0.383 0.324-0.492 0.468-0.17 0.115-0.319 0.209-0.468 0.298l-0.444 0.295c-0.139-0.099-0.274-0.194-0.423-0.295-0.135-0.089-0.284-0.184-0.444-0.298-0.463-0.334-0.936-0.643-1.429-0.936-0.497-0.284-1.016-0.569-1.559-0.862l-0.244-0.099c-0.533-0.269-1.051-0.538-1.554-0.817-0.513-0.283-0.975-0.588-1.385-0.912-0.492-0.363-0.926-0.727-1.284-1.085-0.344-0.358-0.629-0.708-0.838-1.042-0.269-0.523-0.507-1.070-0.717-1.654-0.214-0.572-0.434-1.165-0.643-1.772-0.199-0.593-0.368-1.186-0.518-1.779-0.135-0.593-0.25-1.225-0.344-1.902-0.099-0.358-0.189-0.871-0.249-1.529-0.050-0.672-0.099-1.315-0.149-1.928-0.036-0.502-0.060-1.016-0.075-1.529 0-0.528 0.014-1.026 0.050-1.51v-0.936c0.014-0.309 0.025-0.598 0.025-0.862 0.014-0.115 0.025-0.209 0.025-0.298v-0.295c0.099 0.015 0.204 0.036 0.324 0.050 0.109 0 0.229 0.010 0.344 0.026 0.278 0.045 0.567 0.084 0.866 0.094 0.295 0.020 0.574 0.026 0.838 0.026h0.468c0.164 0 0.324-0.005 0.468-0.026 0.214-0.010 0.403-0.029 0.567-0.050 0.164-0.010 0.329-0.034 0.498-0.070 0.159-0.014 0.309-0.040 0.444-0.074 0.149-0.031 0.319-0.055 0.518-0.075 0.179-0.029 0.358-0.065 0.543-0.099 0.179-0.050 0.368-0.084 0.567-0.125 0.603-0.159 1.19-0.368 1.753-0.617 0.572-0.244 1.111-0.502 1.604-0.787 0.358-0.249 0.701-0.493 1.035-0.742 0.329-0.249 0.632-0.473 0.917-0.692 0.309 0.219 0.627 0.458 0.961 0.717 0.343 0.25 0.703 0.509 1.085 0.768 0.493 0.264 1.011 0.518 1.554 0.762 0.558 0.233 1.141 0.432 1.753 0.592 0.18 0.041 0.358 0.075 0.543 0.125 0.18 0.034 0.368 0.070 0.567 0.099 0.159 0.020 0.309 0.045 0.444 0.075 0.149 0.034 0.309 0.060 0.493 0.074 0.164 0.036 0.328 0.060 0.497 0.070 0.18 0.020 0.355 0.040 0.543 0.050 0.18 0.020 0.344 0.026 0.493 0.026h0.492c0.245 0 0.509-0.005 0.793-0.026 0.273-0.010 0.578-0.050 0.91-0.094 0.080-0.015 0.18-0.026 0.295-0.026 0.129-0.014 0.249-0.034 0.348-0.050v0.593c0.011 0.264 0.025 0.553 0.025 0.862 0 0.298 0.004 0.612 0.025 0.936zM5.82 15.041c0.029 0.020 0.046 0.040 0.046 0.050h7.704l2.222-6.639c-0.185 0.185-0.439 0.363-0.768 0.543-0.144 0.115-0.334 0.219-0.543 0.319-0.214 0.099-0.363 0.184-0.442 0.249-0.214 0.099-0.433 0.19-0.643 0.269-0.199 0.091-0.418 0.175-0.668 0.274-0.233 0.099-0.468 0.199-0.711 0.295-0.24 0.089-0.483 0.168-0.742 0.249-0.17 0.070-0.334 0.124-0.493 0.175-0.17 0.034-0.334 0.074-0.493 0.119-0.189 0.041-0.358 0.075-0.518 0.125-0.17 0.040-0.344 0.070-0.523 0.099-0.135 0.020-0.289 0.034-0.468 0.050-0.164 0.020-0.334 0.034-0.493 0.050-0.164 0-0.339 0.020-0.518 0.050-0.164 0.020-0.344 0.026-0.543 0.026h-0.394c-0.050 0-0.115-0.005-0.173-0.026-0.070-0.029-0.135-0.050-0.2-0.050-0.134 0-0.219-0.005-0.269-0.024h-0.322v0.343c-0.036 0.070-0.046 0.17-0.046 0.3zM9.321 26.127c0.051 0.036 0.104 0.065 0.175 0.096 0.080 0.040 0.159 0.069 0.249 0.099l2.247-6.639-6.075-4.517-0.050-0.050c0.014 0.343 0.036 0.703 0.050 1.061 0.036 0.348 0.074 0.717 0.124 1.111 0.029 0.384 0.075 0.787 0.125 1.21 0.050 0.413 0.109 0.841 0.199 1.285 0.080 0.433 0.175 0.857 0.295 1.285 0.129 0.413 0.278 0.836 0.442 1.28 0.149 0.432 0.324 0.836 0.519 1.21 0.209 0.384 0.427 0.792 0.641 1.235 0.050 0.084 0.101 0.163 0.15 0.249 0.050 0.084 0.084 0.159 0.124 0.219 0.080 0.089 0.145 0.159 0.195 0.224 0.064 0.064 0.139 0.149 0.223 0.244 0.050 0.070 0.101 0.139 0.15 0.199 0.050 0.050 0.119 0.12 0.218 0.199zM21.125 27.089c0.094-0.069 0.195-0.134 0.295-0.199 0.11-0.065 0.224-0.12 0.319-0.17l-5.748-4.099-5.703 4.099c0.080 0.050 0.17 0.105 0.269 0.17 0.11 0.065 0.224 0.13 0.324 0.199 0.11 0.080 0.224 0.15 0.344 0.2 0.11 0.050 0.228 0.119 0.343 0.218 0.080 0.065 0.164 0.125 0.249 0.175 0.101 0.060 0.205 0.125 0.319 0.175 0.101 0.060 0.205 0.129 0.324 0.194 0.11 0.065 0.229 0.125 0.344 0.175l0.867 0.418c0.144 0.080 0.269 0.154 0.368 0.224 0.11 0.060 0.174 0.11 0.174 0.149 0.245 0.080 0.444 0.154 0.593 0.219 0.145 0.079 0.284 0.175 0.418 0.274 0.329 0.178 0.578 0.358 0.768 0.543 0.129-0.101 0.249-0.195 0.368-0.274 0.13-0.085 0.259-0.17 0.394-0.269 0.159-0.099 0.298-0.195 0.398-0.274 0.11-0.065 0.194-0.139 0.244-0.219 0-0.040 0.125-0.089 0.37-0.149 0.249-0.070 0.448-0.144 0.592-0.224l0.843-0.418c0.108-0.050 0.228-0.11 0.343-0.175s0.23-0.134 0.35-0.194c0.108-0.050 0.204-0.115 0.268-0.175 0.065-0.050 0.15-0.11 0.25-0.175 0.11-0.099 0.228-0.168 0.343-0.218 0.11-0.050 0.235-0.12 0.374-0.2zM25.911 17.288c0.050-0.394 0.085-0.762 0.125-1.111 0.029-0.358 0.055-0.718 0.074-1.061l-0.025 0.050-6.051 4.517 2.247 6.639c0.064-0.031 0.129-0.060 0.199-0.099 0.060-0.031 0.134-0.060 0.224-0.096 0.079-0.079 0.134-0.149 0.168-0.199 0.050-0.060 0.104-0.129 0.175-0.199 0.050-0.094 0.104-0.18 0.175-0.244 0.060-0.065 0.124-0.135 0.17-0.224 0.050-0.060 0.11-0.135 0.174-0.219 0.065-0.085 0.125-0.164 0.175-0.249 0.209-0.444 0.418-0.852 0.617-1.235 0.209-0.374 0.394-0.778 0.543-1.21 0.295-0.838 0.543-1.689 0.742-2.565 0.044-0.444 0.094-0.872 0.145-1.285 0.050-0.423 0.089-0.826 0.124-1.21zM26.136 13.637v-1.385c-0.022-0.099-0.025-0.219-0.025-0.368v-0.643h-0.298c-0.065 0.019-0.159 0.024-0.269 0.024-0.070 0-0.139 0.020-0.199 0.050-0.050 0.020-0.115 0.026-0.199 0.026h-0.394c-0.164 0-0.344-0.005-0.543-0.026-0.184-0.029-0.369-0.050-0.567-0.050-0.164-0.015-0.334-0.029-0.493-0.050-0.149-0.015-0.283-0.029-0.393-0.050-0.17-0.029-0.344-0.060-0.519-0.099-0.168-0.050-0.333-0.084-0.497-0.125-0.164-0.045-0.339-0.084-0.519-0.119-0.163-0.051-0.343-0.105-0.542-0.175-0.264-0.080-0.504-0.159-0.713-0.249-0.219-0.096-0.448-0.195-0.692-0.295-0.233-0.099-0.463-0.184-0.692-0.274-0.214-0.094-0.418-0.184-0.617-0.269-0.295-0.065-0.493-0.149-0.593-0.249s-0.24-0.204-0.418-0.319c-0.264-0.149-0.514-0.329-0.742-0.543l2.221 6.639h7.679v-0.393c0.011-0.11 0.025-0.229 0.025-0.349z"></path>
</svg>
