<!-- Generated by IcoMoon.io -->
<svg version="1.1" xmlns="http://www.w3.org/2000/svg" width="33" height="32" viewBox="0 0 33 32">
<title>guardians_of_time</title>
<path d="M10.477 29.327c-1.986-0.286-2.164-0.361-2.863-1.21-0.371-0.451-1.007-1.156-1.413-1.565s-1.295-1.335-1.975-2.056l-1.235-1.31 0.296-1.773c0.269-1.615 0.348-1.817 0.887-2.267 0.734-0.613 0.949-0.62 1.696-0.050 0.327 0.249 0.706 0.453 0.842 0.453 0.636 0 0.939-0.983 0.36-1.166-0.178-0.056-0.478-0.368-0.666-0.692s-0.655-0.948-1.037-1.386c-0.382-0.438-0.694-0.941-0.694-1.118s0.316-0.572 0.701-0.877c0.476-0.377 0.811-0.857 1.043-1.493 0.289-0.794 0.466-1.001 1.158-1.352 2.155-1.094 5.33-2.433 5.766-2.433 0.113 0 0.474-0.234 0.802-0.52s0.961-0.705 1.408-0.932c0.447-0.227 1.101-0.644 1.454-0.928 0.392-0.315 1.029-0.589 1.636-0.704 0.547-0.104 1.443-0.361 1.991-0.571 2.615-1.002 3.357-1.242 3.845-1.242 0.29 0 0.753-0.117 1.029-0.26s1.231-0.474 2.122-0.735c0.891-0.261 1.778-0.526 1.973-0.587 0.341-0.108 0.34-0.090-0.029 0.537-0.21 0.357-0.599 1.359-0.864 2.227s-1.496 3.645-2.737 6.17c-1.24 2.525-2.255 4.668-2.255 4.761 0 0.767-2.707 5.99-3.454 6.665-0.217 0.196-0.588 0.738-0.824 1.205s-0.592 0.962-0.788 1.1c-0.197 0.138-0.522 0.633-0.722 1.101s-0.457 0.85-0.57 0.85-0.422-0.228-0.687-0.507c-0.264-0.279-0.779-0.688-1.143-0.91s-0.705-0.515-0.757-0.651c-0.109-0.283-1.823-0.744-2.109-0.567-0.336 0.208-0.203 0.771 0.254 1.071 0.412 0.27 0.822 1.245 0.824 1.962 0.001 0.253-2.016 2.020-2.207 1.934-0.033-0.015-0.508-0.091-1.057-0.17zM12.617 26.869c0.038-0.264-0.177-0.582-0.691-1.022-0.446-0.382-0.654-0.669-0.518-0.715 0.152-0.051 0.122-0.117-0.089-0.198-0.19-0.073-0.273-0.050-0.207 0.058 0.127 0.205-0.105 0.232-0.546 0.063-0.241-0.093-0.253-0.147-0.060-0.269 0.158-0.1 0.012-0.154-0.419-0.156-0.759-0.003-0.881 0.187-0.881 1.369 0 0.696 0.057 0.812 0.446 0.91 0.245 0.062 0.55 0.077 0.676 0.035s0.559 0.027 0.96 0.154c0.944 0.299 1.261 0.244 1.328-0.228zM19.112 20.046c0.468-0.718 1.643-2.874 2.893-5.304 0.513-0.998 1.397-2.589 1.964-3.537s1.081-1.927 1.141-2.176c0.060-0.249 0.485-0.902 0.944-1.451 0.592-0.707 0.187-0.391-1.392 1.088-1.351 1.266-2.484 2.504-2.88 3.148-0.359 0.585-1.366 1.821-2.236 2.747s-1.638 1.903-1.705 2.171c-0.067 0.268-0.409 0.904-0.759 1.413-0.889 1.292-0.806 1.763 0.379 2.159 1.224 0.409 1.217 0.41 1.653-0.259z"></path>
</svg>
