<!-- Generated by IcoMoon.io -->
<svg version="1.1" xmlns="http://www.w3.org/2000/svg" width="32" height="32" viewBox="0 0 32 32">
<title>guide_bullet</title>
<path d="M28.375 15.406q0 4.206-2.804 7.407-1.615 1.829-3.688 2.835-2.073 1.036-4.145 1.036-3.261 0-5.273-2.469-2.164-2.621-2.164-7.254 0-1.768 0.762-3.658 1.036-2.591 3.353-4.145 2.317-1.585 4.907-1.585 1.433 0 2.439 1.433 1.036 1.433 1.036 3.353 0 0.823-0.823 1.615-0.792 0.792-1.494 0.792-1.494 0-2.774-1.981-0.488-0.762-0.732-0.975-0.396-0.335-0.975-0.335-4.054 0-4.054 6.188 0 3.231 1.28 5.121 1.311 1.859 3.353 1.859 0.792 0 0.792-0.579 0-0.427-0.549-1.89-0.549-1.494-0.549-2.225 0-0.091-0.061-0.427-0.031-0.335-0.031-0.549 0-1.433 1.372-1.433 0.549 0 1.402 0.305t1.158 0.305q2.195 0 4.023-1.951 1.89-2.073 1.89-4.877 0-3.414-2.042-5.273-2.012-1.89-5.578-1.89-3.109 0-6.096 1.92t-4.846 5.273q-2.347 4.206-2.347 9.114 0 3.353 0.945 7.712-0.091 0.823-0.731 0.823-0.671 0-1.158-2.103-0.549-2.286-0.549-5.791 0-8.077 4.542-13.168 4.42-4.938 11.125-4.938 4.267 0 6.645 3.139 2.439 3.231 2.439 9.266z"></path>
</svg>
