<!-- Generated by IcoMoon.io -->
<svg version="1.1" xmlns="http://www.w3.org/2000/svg" width="36" height="32" viewBox="0 0 36 32">
<title>hand1</title>
<path d="M14.282 6.216l-0.554 0.605 0.235 0.216h0.319v-0.821zM14.282 5.953h0.82v-0.168l-0.066-0.155-0.754 0.323zM13.954 5.297l-0.734 0.367 0.023 0.046 0.028 0.043 0.683-0.455zM13.593 4.673l-0.762 0.305 0.032 0.079 0.047 0.071 0.683-0.455zM13.166 3.722l0.778-0.259-0.035-0.104-0.061-0.091-0.683 0.455zM12.543 2.606l0.778-0.259-0.018-0.055-0.026-0.052-0.734 0.367zM12.477 2.343l-0.807 0.147 0.046 0.252 0.181 0.181 0.58-0.58zM12.904 1.49l0.422 0.704 0.017-0.010 0.016-0.011-0.455-0.683zM13.363 1.227l0.367 0.734 0.028-0.014 0.027-0.016-0.422-0.704zM13.921 1.194l0.367-0.734-0.022-0.011-0.022-0.010-0.323 0.754zM14.151 1.391l-0.734 0.367 0.060 0.119 0.094 0.094 0.58-0.58zM14.315 1.556v0zM14.479 1.785l-0.683 0.455 0.045 0.068 0.057 0.057 0.58-0.58zM15.103 2.704l0.778-0.259-0.035-0.104-0.061-0.091-0.683 0.455zM15.693 3.525l-0.683 0.455 0.045 0.068 0.057 0.057 0.58-0.58zM16.251 4.444l-0.792 0.216 0.006 0.022 0.007 0.022 0.778-0.259zM17.039 5.56l0.712-0.407-0.064-0.111-0.094-0.087-0.555 0.605zM17.466 6.282l0.734-0.367-0.029-0.058-0.037-0.052-0.668 0.477zM17.892 7.037l-0.734 0.367 0.016 0.032 0.019 0.031 0.699-0.43zM18.811 8.284l-0.626 0.53 0.011 0.012 0.011 0.012 0.605-0.554zM19.861 9.4l0.58-0.58-0.014-0.014-0.014-0.013-0.552 0.607zM20.452 9.859l0.435-0.696-0.033-0.021-0.035-0.017-0.367 0.734zM21.962 11.172l0.63-0.525-0.044-0.053-0.052-0.045-0.534 0.623zM23.144 12.222l0.58-0.58-0.062-0.062-0.074-0.048-0.444 0.69zM24.489 13.404l0.58-0.58-0.026-0.026-0.029-0.024-0.525 0.63zM25.113 13.962v0zM25.736 14.684l-0.683 0.455 0.032 0.047 0.038 0.043 0.613-0.545zM26.491 15.57l-0.648 0.504 0.017 0.021 0.018 0.020 0.613-0.545zM27.312 16.456l0.683-0.455-0.045-0.068-0.057-0.058-0.58 0.58zM28.46 17.999l-0.645 0.507 0.011 0.014 0.011 0.013 0.623-0.534zM29.183 18.983l-0.699 0.43 0.031 0.050 0.038 0.045 0.63-0.525zM30.298 19.935l0.58-0.58-0.057-0.057-0.068-0.045-0.455 0.683zM31.48 20.821l-0.492 0.656 0.018 0.014 0.019 0.013 0.455-0.683zM32.235 21.379l0.525-0.63-0.023-0.020-0.025-0.018-0.477 0.668zM32.826 21.937l-0.58 0.58 0.017 0.017 0.018 0.016 0.545-0.613zM33.679 22.725l-0.58 0.58 0.017 0.017 0.018 0.016 0.545-0.613zM34.86 23.906l-0.734 0.367 0.060 0.119 0.094 0.094 0.58-0.58zM34.893 24.103l0.761 0.306 0.059-0.147v-0.159h-0.821zM29.445 30.339v0.82h0.215l0.188-0.106-0.403-0.715zM29.379 30.372v0.82h0.82v-0.82h-0.82zM29.215 30.405l-0.58 0.58 0.24 0.24h0.34v-0.82zM28.887 30.142l0.734-0.367-0.087-0.173-0.155-0.116-0.492 0.656zM28.132 29.486l0.58-0.58-0.019-0.019-0.020-0.018-0.54 0.617zM27.312 28.731l0.545-0.613-0.026-0.023-0.027-0.020-0.492 0.656zM26.623 28.271l-0.545 0.613 0.081 0.072 0.097 0.049 0.367-0.734zM24.292 27.943l-0.135-0.809-0.006 0.001-0.006 0.001 0.147 0.807zM20.813 28.271l0.116 0.812 0.022-0.003 0.022-0.005-0.161-0.805zM20.124 28.337v-0.82h-0.058l-0.058 0.008 0.116 0.812zM19.468 28.468l0.178 0.801 0.024-0.005 0.024-0.007-0.225-0.789zM18.713 28.6l0.116 0.812 0.009-0.001 0.009-0.002-0.135-0.809zM16.448 28.928l-0.178-0.801-0.024 0.005-0.024 0.007 0.225 0.789zM15.693 28.928l0.199-0.796-0.098-0.025h-0.101v0.82zM14.118 29.125l0.178 0.801 0.011-0.002 0.011-0.003-0.199-0.796zM13.166 29.322l-0.147-0.807-0.007 0.001-0.007 0.001 0.161 0.805zM12.116 29.355l0.074-0.817-0.037-0.003h-0.037v0.82zM11.066 29.19l0.26-0.778-0.030-0.010-0.031-0.008-0.199 0.796zM10.606 29.256l0.225 0.789 0.040-0.012 0.039-0.016-0.305-0.762zM9.884 29.42l-0.199-0.796-0.013 0.003-0.013 0.004 0.225 0.789zM9.228 29.584l-0.135-0.809-0.122 0.020-0.11 0.055 0.367 0.734zM7.784 29.223l-0.734 0.367 0.060 0.119 0.094 0.094 0.58-0.58zM7.718 29.125l0.58-0.58-0.24-0.24h-0.34v0.82zM7.652 29.026h0.821v-0.248l-0.138-0.207-0.683 0.455zM7.521 28.173l0.734 0.367 0.026-0.052 0.018-0.055-0.778-0.259zM7.751 27.812l0.58 0.58 0.041-0.041 0.035-0.047-0.656-0.492zM8.867 26.598l-0.455-0.683-0.055 0.037-0.048 0.045 0.558 0.601zM9.622 26.204l0.225 0.789 0.073-0.021 0.068-0.034-0.367-0.734zM10.967 25.843l0.055 0.819 0.024-0.002 0.024-0.003-0.102-0.814zM11.689 25.777v-0.82h-0.058l-0.058 0.008 0.116 0.812zM13.232 25.646v0.82h0.194l0.173-0.087-0.367-0.734zM14.38 25.285l0.185 0.799 0.095-0.022 0.087-0.044-0.367-0.734zM14.807 25.121l0.305 0.762 0.032-0.013 0.031-0.015-0.367-0.734zM15.267 24.957l0.161 0.805 0.21-0.042 0.163-0.14-0.534-0.623zM15.693 24.202l0.816 0.082 0.004-0.041v-0.041h-0.82zM15.693 23.873h0.821v-0.133l-0.042-0.126-0.778 0.26zM15.431 22.725l-0.789 0.225 0.005 0.017 0.006 0.017 0.778-0.259zM15.103 22.003l0.734-0.367-0.077-0.154-0.132-0.11-0.525 0.63zM14.315 21.215l-0.63 0.525 0.024 0.029 0.026 0.026 0.58-0.58zM13.33 20.165l0.455-0.683-0.016-0.011-0.017-0.010-0.422 0.704zM11.689 18.852l-0.683 0.455 0.045 0.068 0.057 0.058 0.58-0.58zM10.77 17.9l-0.525 0.63 0.034 0.028 0.036 0.024 0.455-0.683zM9.523 17.014l-0.52 0.635 0.031 0.025 0.033 0.022 0.455-0.683zM8.407 16.226l0.441-0.692-0.013-0.009-0.014-0.008-0.413 0.709zM7.324 15.57l0.422-0.704-0.011-0.006-0.011-0.006-0.401 0.716zM2.598 12.682l-0.58 0.58 0.079 0.079 0.097 0.055 0.404-0.714zM2.27 12.386l-0.58 0.58 0.041 0.041 0.047 0.035 0.492-0.656zM1.942 12.124l0.492-0.656-0.034-0.025-0.036-0.022-0.422 0.704zM1.581 11.861l-0.613 0.545 0.070 0.079 0.088 0.059 0.455-0.683zM1.154 10.909h-0.821v0.037l0.003 0.037 0.817-0.074zM1.712 9.662l0.393 0.72 0.032-0.017 0.030-0.020-0.455-0.683zM2.106 9.498l-0.082-0.816-0.040 0.004-0.039 0.008 0.161 0.805zM3.156 9.629l0.367-0.734-0.042-0.021-0.044-0.016-0.28 0.771zM3.484 9.695v0zM4.206 10.056v0zM4.337 10.122l0.58-0.58-0.24-0.24h-0.34v0.821zM4.469 10.187l0.641-0.513-0.246-0.308h-0.394v0.82zM5.42 10.811l0.225-0.789-0.032-0.009-0.033-0.006-0.161 0.805zM6.175 11.139l-0.367 0.734 0.022 0.011 0.022 0.010 0.323-0.754zM8.374 12.288l0.58-0.58-0.071-0.071-0.087-0.052-0.422 0.704zM9.523 12.977l0.455-0.683-0.071-0.047-0.079-0.032-0.305 0.762zM10.803 13.699l-0.407 0.712 0.071 0.040 0.077 0.026 0.26-0.778zM11.295 13.929v0zM11.755 14.126l0.734-0.367-0.14-0.279-0.29-0.116-0.305 0.762zM11.886 14.126l0.58 0.58 0.24-0.24v-0.34h-0.82zM11.886 14.060h0.82v-0.194l-0.087-0.173-0.734 0.367zM11.82 13.962l-0.58 0.58 0.24 0.24h0.34v-0.821zM11.755 13.863l0.734-0.367-0.060-0.119-0.094-0.094-0.58 0.58zM8.538 10.68l-0.601 0.558 0.037 0.040 0.042 0.035 0.522-0.633zM5.847 8.382l-0.58 0.58 0.053 0.053 0.062 0.043 0.465-0.676zM5.322 7.955l0.477-0.668-0.052-0.037-0.058-0.029-0.367 0.734zM4.075 7.201l-0.54 0.617 0.062 0.054 0.071 0.041 0.407-0.712zM3.254 6.413l-0.613 0.545 0.016 0.018 0.017 0.017 0.58-0.58zM1.909 4.641h0.821v-0.101l-0.025-0.098-0.796 0.199zM2.106 3.328l0.683 0.455 0.047-0.071 0.032-0.079-0.762-0.305zM2.467 2.967l0.422 0.704 0.087-0.052 0.071-0.071-0.58-0.58zM2.926 2.704l-0.367-0.734-0.119 0.060-0.094 0.094 0.58 0.58zM3.484 2.573l0.161-0.805-0.080-0.016h-0.081v0.82zM4.009 2.737l0.58-0.58-0.094-0.094-0.119-0.060-0.367 0.734zM4.567 3.065l0.58-0.58-0.137-0.137-0.184-0.061-0.259 0.778zM4.961 3.328l0.525-0.63-0.073-0.061-0.085-0.043-0.367 0.734zM5.946 4.148l-0.58 0.58 0.026 0.026 0.029 0.024 0.525-0.63zM6.701 4.575l-0.305 0.762 0.052 0.021 0.054 0.013 0.199-0.796zM7.849 5.297l0.58-0.58-0.032-0.032-0.036-0.028-0.513 0.641zM8.801 6.216l-0.58 0.58 0.014 0.014 0.014 0.013 0.552-0.607zM9.851 7.037l0.504-0.648-0.031-0.024-0.033-0.021-0.44 0.692zM10.573 7.562l-0.455 0.683 0.043 0.028 0.046 0.023 0.367-0.734zM11.427 7.923l0.58-0.58-0.137-0.137-0.184-0.061-0.26 0.778zM11.689 7.923l0.455 0.683 0.365-0.244v-0.439h-0.821zM11.755 7.89l0.734 0.367 0.593-1.187h-1.327v0.821zM11.722 7.955h-0.821l1.554 0.367-0.734-0.367zM10.77 7.135l0.513-0.641-0.009-0.007-0.504 0.648zM9.95 6.38l-0.699 0.43 0.050 0.082 0.068 0.068 0.58-0.58zM9.195 5.461l0.534-0.623-0.011-0.009-0.011-0.009-0.513 0.641zM7.784 4.148l-0.734 0.367 0.060 0.119 0.094 0.094 0.58-0.58zM7.554 3.787l-0.734 0.367 0.023 0.046 0.028 0.043 0.683-0.455zM7.324 3.426l0.734-0.367-0.010-0.020-0.011-0.020-0.712 0.407zM6.996 1.785l0.816 0.082 0.004-0.041v-0.041h-0.821zM7.324 1.194l0.407 0.712 0.095-0.054 0.078-0.078-0.58-0.58zM7.849 0.866l-0.199-0.796-0.138 0.034-0.118 0.079 0.455 0.683zM8.571 0.899l-0.323 0.754 0.048 0.020 0.050 0.014 0.225-0.789zM9.654 1.785l-0.734 0.367 0.033 0.066 0.044 0.059 0.656-0.492zM11.098 3.065l0.455-0.683-0.043-0.028-0.046-0.023-0.367 0.734zM11.591 3.426l0.58-0.58-0.041-0.041-0.047-0.035-0.492 0.656zM12.017 3.886l-0.683 0.455 0.045 0.068 0.057 0.057 0.58-0.58zM12.214 4.148l-0.734 0.367 0.035 0.071 0.048 0.063 0.65-0.5zM14.348 6.216v0.821h0.82v-0.821h-0.82zM15.103 6.216v-0.263h-1.641v0.263h1.641zM15.036 5.63c-0.092-0.215-0.219-0.517-0.4-0.788l-1.365 0.91c0.082 0.123 0.152 0.28 0.257 0.524l1.508-0.646zM14.688 4.93c-0.112-0.225-0.261-0.484-0.412-0.712l-1.365 0.91c0.111 0.166 0.225 0.366 0.31 0.535l1.468-0.734zM14.355 4.369c-0.055-0.138-0.122-0.256-0.159-0.324-0.044-0.080-0.060-0.11-0.070-0.136l-1.524 0.609c0.055 0.138 0.122 0.256 0.159 0.324 0.044 0.080 0.060 0.11 0.070 0.136l1.524-0.609zM14.125 3.909c-0.095-0.236-0.123-0.275-0.18-0.447l-1.557 0.519c0.074 0.222 0.177 0.446 0.214 0.538l1.524-0.609zM13.849 3.267c-0.182-0.273-0.241-0.333-0.31-0.47l-1.468 0.734c0.129 0.257 0.332 0.526 0.412 0.646l1.365-0.91zM13.539 2.797c-0.133-0.266-0.177-0.327-0.218-0.45l-1.557 0.519c0.090 0.271 0.243 0.538 0.307 0.665l1.468-0.734zM13.276 2.239c0.008 0.017 0.029 0.062 0.042 0.128s0.012 0.123 0.012 0.108h-1.641c0 0.018-0.001 0.106 0.020 0.214s0.058 0.202 0.099 0.284l1.468-0.734zM13.33 2.474c0-0.012 0.001-0.1-0.015-0.201-0.014-0.082-0.060-0.313-0.258-0.511l-1.16 1.16c-0.088-0.088-0.135-0.179-0.16-0.24s-0.035-0.111-0.040-0.14c-0.009-0.051-0.007-0.090-0.007-0.069h1.641zM13.284 2.196c-0.002-0.011-0-0.009-0.002 0.001s-0.005 0.023-0.010 0.033c-0.010 0.020-0.009 0.001 0.054-0.037l-0.844-1.407c-0.266 0.16-0.511 0.387-0.669 0.693-0.162 0.315-0.206 0.664-0.143 1.010l1.615-0.294zM13.359 2.173c0.069-0.046 0.204-0.128 0.371-0.211l-0.734-1.468c-0.226 0.113-0.42 0.229-0.548 0.314l0.91 1.365zM13.785 1.931c0.013-0.008-0.024 0.017-0.093 0.023-0.072 0.006-0.11-0.013-0.094-0.006l0.646-1.508c-0.213-0.091-0.449-0.143-0.701-0.12-0.25 0.023-0.451 0.113-0.602 0.204l0.844 1.407zM13.554 1.928c0.019 0.009 0.003 0.004-0.026-0.022-0.033-0.029-0.076-0.078-0.111-0.148l1.468-0.734c-0.14-0.28-0.373-0.452-0.597-0.564l-0.734 1.468zM13.571 1.972c0.033 0.033 0.058 0.057 0.082 0.082s0.049 0.049 0.082 0.082l1.16-1.16c-0.033-0.033-0.058-0.057-0.082-0.082s-0.049-0.049-0.082-0.082l-1.16 1.16zM13.735 2.136c-0.019-0.019-0.028-0.034-0.021-0.023 0.006 0.009 0.012 0.019 0.028 0.043 0.014 0.022 0.032 0.051 0.054 0.084l1.365-0.91c-0.011-0.016-0.021-0.032-0.034-0.052-0.011-0.018-0.029-0.047-0.048-0.075-0.042-0.062-0.1-0.143-0.185-0.228l-1.16 1.16zM13.899 2.365c-0.032-0.032-0.051-0.059-0.058-0.070-0.007-0.010-0.008-0.014 0 0.002 0.004 0.008 0.008 0.015 0.016 0.029 0.006 0.012 0.015 0.028 0.025 0.046 0.019 0.035 0.046 0.081 0.079 0.131l1.365-0.91c0.001 0.001-0.001-0.002-0.009-0.015-0.004-0.007-0.008-0.015-0.014-0.026-0.005-0.010-0.013-0.025-0.022-0.040-0.028-0.051-0.099-0.184-0.222-0.306l-1.16 1.16zM13.96 2.503c0.067 0.1 0.143 0.215 0.256 0.365l1.313-0.985c-0.084-0.112-0.139-0.194-0.203-0.291l-1.365 0.91zM14.216 2.868c0.084 0.112 0.139 0.194 0.204 0.291l1.365-0.91c-0.067-0.1-0.143-0.215-0.256-0.365l-1.313 0.985zM14.324 2.964c0.074 0.223 0.211 0.417 0.26 0.491l1.365-0.91c-0.017-0.025-0.030-0.045-0.042-0.064s-0.020-0.032-0.026-0.042-0.008-0.019-0 0.006l-1.557 0.519zM14.584 3.455c0.050 0.075 0.164 0.252 0.299 0.388l1.16-1.16c0.011 0.011 0.007 0.009-0.015-0.021-0.021-0.029-0.045-0.064-0.079-0.116l-1.365 0.91zM14.883 3.842c0.034 0.034 0.062 0.062 0.088 0.091 0.012 0.014 0.022 0.025 0.030 0.034s0.010 0.014 0.010 0.013l1.365-0.91c-0.119-0.178-0.278-0.334-0.332-0.388l-1.16 1.16zM15.113 4.105c0.187 0.187 0.294 0.363 0.347 0.555l1.583-0.432c-0.145-0.53-0.431-0.945-0.769-1.283l-1.16 1.16zM15.473 4.703c0.189 0.568 0.554 1.041 1.012 1.461l1.109-1.21c-0.33-0.302-0.491-0.551-0.564-0.771l-1.557 0.519zM16.327 5.967c0.1 0.175 0.275 0.517 0.471 0.792l1.335-0.954c-0.132-0.185-0.219-0.368-0.382-0.652l-1.425 0.814zM16.732 6.649c0.082 0.164 0.172 0.314 0.244 0.433 0.076 0.127 0.134 0.224 0.183 0.322l1.468-0.734c-0.082-0.164-0.172-0.314-0.244-0.433-0.076-0.127-0.134-0.224-0.183-0.322l-1.468 0.734zM17.194 7.467c0.29 0.471 0.611 0.898 0.991 1.347l1.253-1.060c-0.342-0.404-0.611-0.764-0.847-1.147l-1.398 0.86zM18.206 8.838c0.324 0.354 0.705 0.807 1.103 1.169l1.104-1.214c-0.324-0.295-0.6-0.629-0.997-1.063l-1.21 1.109zM19.281 9.98c0.219 0.219 0.49 0.456 0.804 0.613l0.734-1.468c-0.079-0.040-0.203-0.131-0.378-0.306l-1.16 1.16zM20.017 10.555c0.218 0.136 0.43 0.296 0.642 0.508l1.16-1.16c-0.313-0.313-0.626-0.547-0.933-0.739l-0.87 1.392zM20.66 11.063c0.257 0.257 0.51 0.511 0.768 0.732l1.068-1.246c-0.201-0.172-0.408-0.378-0.676-0.646l-1.16 1.16zM21.332 11.697c0.377 0.452 0.832 0.871 1.368 1.215l0.887-1.38c-0.383-0.246-0.715-0.55-0.995-0.885l-1.261 1.050zM22.563 12.802c0.248 0.248 0.529 0.532 0.825 0.744l0.954-1.335c-0.163-0.116-0.341-0.292-0.619-0.569l-1.16 1.16zM23.389 13.546c0.205 0.147 0.294 0.253 0.575 0.488l1.050-1.261c-0.112-0.094-0.418-0.381-0.672-0.562l-0.954 1.335zM23.909 13.984c0.127 0.127 0.26 0.239 0.362 0.325 0.111 0.094 0.191 0.163 0.262 0.233l1.16-1.16c-0.127-0.127-0.26-0.239-0.362-0.325-0.111-0.094-0.191-0.163-0.262-0.233l-1.16 1.16zM24.533 14.542c0.201 0.201 0.375 0.378 0.521 0.597l1.365-0.91c-0.248-0.372-0.533-0.654-0.726-0.847l-1.16 1.16zM25.123 15.229c0.266 0.3 0.51 0.575 0.721 0.845l1.295-1.008c-0.249-0.32-0.53-0.636-0.789-0.928l-1.227 1.090zM25.878 16.115c0.261 0.293 0.539 0.606 0.854 0.921l1.16-1.16c-0.276-0.276-0.523-0.553-0.787-0.851l-1.227 1.090zM26.629 16.911c0.415 0.623 0.831 1.142 1.186 1.594l1.29-1.014c-0.367-0.467-0.739-0.932-1.111-1.491l-1.365 0.91zM27.838 18.532c0.179 0.209 0.413 0.502 0.646 0.881l1.398-0.86c-0.292-0.475-0.583-0.838-0.798-1.089l-1.246 1.068zM28.552 19.508c0.196 0.235 0.395 0.434 0.63 0.63l1.051-1.261c-0.159-0.132-0.288-0.261-0.42-0.42l-1.261 1.050zM29.182 20.139c0.236 0.196 0.468 0.35 0.661 0.479l0.91-1.365c-0.201-0.134-0.362-0.242-0.521-0.374l-1.051 1.261zM29.718 20.515c0.136 0.136 0.313 0.249 0.388 0.299l0.91-1.365c-0.052-0.035-0.087-0.058-0.116-0.079-0.030-0.022-0.032-0.026-0.021-0.015l-1.16 1.16zM30.106 20.815c0.049 0.033 0.098 0.066 0.148 0.098s0.098 0.066 0.148 0.098l0.91-1.365c-0.049-0.033-0.098-0.066-0.148-0.098s-0.098-0.066-0.148-0.098l-0.91 1.365zM30.401 21.012c0.102 0.068 0.136 0.093 0.17 0.127l1.16-1.16c-0.163-0.163-0.325-0.269-0.421-0.332l-0.91 1.365zM30.572 21.139c0.153 0.153 0.327 0.272 0.416 0.339l0.985-1.313c-0.173-0.13-0.196-0.142-0.24-0.186l-1.16 1.16zM31.025 21.504c0.125 0.083 0.239 0.169 0.358 0.26 0.112 0.086 0.245 0.19 0.375 0.283l0.954-1.335c-0.1-0.071-0.197-0.147-0.331-0.25-0.127-0.098-0.276-0.209-0.446-0.323l-0.91 1.365zM31.71 22.009c0.163 0.136 0.333 0.305 0.536 0.508l1.16-1.16c-0.191-0.191-0.415-0.416-0.646-0.608l-1.050 1.261zM32.281 22.55c0.299 0.266 0.576 0.512 0.818 0.755l1.16-1.16c-0.283-0.283-0.597-0.562-0.888-0.821l-1.090 1.227zM33.134 23.338c0.299 0.266 0.576 0.512 0.818 0.755l1.16-1.16c-0.283-0.283-0.597-0.562-0.888-0.821l-1.090 1.227zM33.952 24.093c-0.014-0.014-0.021-0.026 0.006 0.011 0.022 0.029 0.079 0.107 0.158 0.186l1.16-1.16c0.014 0.014 0.021 0.026-0.006-0.011-0.022-0.029-0.079-0.107-0.158-0.186l-1.16 1.16zM34.116 24.29c0.008 0.008 0.016 0.015 0.022 0.022s0.012 0.012 0.017 0.018 0.015 0.016 0.017 0.019c0.001 0.001 0 0-0.001-0.001s-0.004-0.006-0.008-0.011c-0.004-0.005-0.009-0.013-0.016-0.023s-0.014-0.023-0.022-0.039l1.468-0.734c-0.105-0.211-0.285-0.377-0.318-0.41l-1.16 1.16zM34.28 24.486c-0.042-0.042-0.087-0.098-0.126-0.171s-0.059-0.141-0.070-0.195c-0.010-0.049-0.011-0.085-0.012-0.094-0-0.007-0-0.010-0 0.011h1.641c0-0.003 0.004-0.121-0.020-0.239-0.035-0.174-0.119-0.338-0.253-0.473l-1.16 1.16zM34.073 24.038v0.066h1.641v-0.066h-1.641zM34.132 23.797c-1.015 2.523-2.696 4.477-5.090 5.828l0.806 1.429c2.726-1.538 4.655-3.784 5.806-6.644l-1.522-0.613zM29.445 29.519c-0.002 0-0.039-0-0.079 0.002-0.038 0.003-0.124 0.010-0.226 0.044-0.107 0.036-0.27 0.114-0.403 0.284-0.138 0.178-0.178 0.373-0.178 0.523h1.641c0 0.134-0.036 0.316-0.167 0.485-0.126 0.161-0.279 0.234-0.373 0.265-0.089 0.030-0.161 0.035-0.184 0.037-0.025 0.002-0.045 0.001-0.031 0.001v-1.641zM29.379 29.551c-0.143 0-0.252 0.035-0.298 0.052-0.025 0.009-0.045 0.017-0.052 0.020-0.002 0.001-0.004 0.002-0.006 0.002s-0.002 0.001-0.003 0.001-0.001 0 0.001-0c0.007-0.003 0.037-0.015 0.079-0.025 0.044-0.011 0.094-0.017 0.148-0.017v1.641c0.087 0 0.166-0.011 0.235-0.028 0.068-0.016 0.12-0.036 0.148-0.047 0.007-0.003 0.013-0.005 0.016-0.006 0.005-0.002 0.004-0.002 0.006-0.002s-0.009 0.004-0.025 0.010c-0.029 0.010-0.122 0.042-0.248 0.042v-1.641zM29.248 29.584h-0.033v1.641h0.033v-1.641zM29.796 29.825c-0.061-0.061-0.178-0.185-0.377-0.285l-0.734 1.468c-0.009-0.004-0.022-0.012-0.038-0.022s-0.029-0.021-0.038-0.028c-0.008-0.007-0.011-0.010-0.006-0.005 0.003 0.003 0.006 0.006 0.012 0.012s0.012 0.012 0.021 0.021l1.16-1.16zM29.418 29.54c-0.019-0.009-0.021-0.011-0.021-0.011 0.001 0.001 0.016 0.009 0.037 0.024 0.044 0.031 0.127 0.102 0.187 0.223l-1.468 0.734c0.176 0.352 0.518 0.492 0.531 0.498l0.734-1.468zM29.379 29.486c-0.23-0.172-0.463-0.376-0.667-0.58l-1.16 1.16c0.256 0.256 0.547 0.511 0.843 0.733l0.985-1.313zM28.673 28.868c-0.119-0.104-0.24-0.217-0.377-0.346-0.134-0.126-0.282-0.265-0.439-0.405l-1.090 1.227c0.138 0.122 0.269 0.246 0.406 0.374 0.134 0.126 0.276 0.259 0.419 0.385l1.081-1.235zM27.804 28.075c-0.124-0.093-0.276-0.208-0.398-0.289l-0.91 1.365c0.075 0.050 0.185 0.132 0.324 0.236l0.985-1.313zM27.406 27.786c-0.098-0.066-0.235-0.157-0.416-0.248l-0.734 1.468c0.081 0.040 0.141 0.080 0.24 0.146l0.91-1.365zM27.168 27.658c-0.47-0.417-1.035-0.601-1.694-0.601v1.641c0.326 0 0.483 0.079 0.604 0.187l1.090-1.227zM25.474 27.057c-0 0-0.001 0-0.001 0s-0.001 0-0.001 0-0.001 0-0.001 0-0.001 0-0.001 0-0.001 0-0.001 0-0.001 0-0.001 0-0.001 0-0.001 0-0.001 0-0.001 0-0.001 0-0.001 0-0.001 0-0.001 0-0.001 0-0.001 0-0.001 0-0.001 0-0.001 0-0.001 0-0.001 0-0.001 0-0.001 0-0.001 0-0.001 0-0.001 0-0.001 0-0.001 0-0.001 0-0.001 0-0.001 0-0.001 0-0.001 0-0.001 0-0.001 0-0.001 0-0.001 0-0.001 0-0.001 0-0.001 0-0.001 0-0.001 0-0.001 0-0.001 0-0.001 0-0.001 0-0.001 0-0.001 0-0.001 0-0.001 0-0.001 0-0.001 0-0.001 0-0.001 0-0.001 0-0.001 0-0.001 0-0.001 0-0.001 0-0.001 0-0.001 0-0.001 0-0.001 0-0.001 0-0.001 0-0.001 0-0.001 0-0.001 0-0.001 0-0.001 0-0.001 0-0.001 0-0.001 0-0.001 0-0.001 0-0.001 0-0.001 0-0.001 0-0.001 0-0.001 0-0.001 0-0.001 0-0.001 0-0.001 0-0.001 0-0.001 0-0.001 0-0.001 0-0.001 0-0.001 0-0.001 0-0.001 0-0.001 0-0.001 0-0.001 0-0.001 0-0.001 0-0.001 0-0.001 0-0.001 0-0.001 0-0.001 0-0.001 0-0.001 0-0.001 0-0.001 0-0.001 0-0.001 0-0.001 0-0.001 0-0.001 0-0.001 0-0.001 0-0.001 0-0.001 0-0.001 0-0.001 0-0.001 0-0.001 0-0.001 0-0.001 0-0.001 0-0.001 0-0.001 0-0.001 0-0.001 0-0.001 0-0.001 0-0.001 0-0.001 0-0.001 0-0.001 0-0.001 0-0.001 0-0.001 0-0.001 0-0.001 0-0.001 0-0.001 0-0.001 0-0.001 0-0.001 0-0.001 0-0.001 0-0.001 0-0.001 0-0.001 0-0.001 0-0.001 0-0.001 0-0.001 0-0.001 0-0.001 0-0.001 0-0.001 0-0.001 0-0.001 0-0.001 0-0.001 0-0.001 0-0.001 0-0.001 0-0.001 0-0.001 0-0.001 0-0.001 0-0.001 0-0.001 0-0.001 0-0.001 0-0.001 0-0.001 0-0.001 0-0.001 0-0.001 0-0.001 0-0.001 0-0.001 0-0.001 0-0.001 0-0.001 0-0.001 0-0.001 0-0.001 0-0.001 0-0.001 0-0.001 0-0.001 0-0.001 0-0.001 0-0.001 0-0.001 0-0.001 0-0.001 0-0.001 0-0.001 0-0.001 0-0.001 0-0.001 0-0.001 0-0.001 0-0.001 0-0.001 0-0.001 0-0.001 0-0.001 0-0.001 0-0.001 0-0.001 0-0.001 0-0.001 0-0.001 0-0.001 0-0.001 0-0.001 0-0.001 0-0.001 0-0.001 0-0.001 0-0.001 0-0.001 0-0.001 0-0.001 0-0.001 0-0.001 0-0.001 0-0.001 0-0.001 0-0.001 0-0.001 0-0.001 0-0.001 0-0.001 0-0.001 0-0.001 0-0.001 0-0.001 0-0.001 0-0.001 0-0.001 0-0.001 0-0.001 0-0.001 0-0.001 0-0.001 0-0.001 0-0.001 0-0.001 0-0.001 0-0.001 0-0.001 0-0.001 0-0.001 0-0.001 0-0.001 0-0.001 0-0.001 0-0.001 0-0.001 0-0.001 0-0.001 0-0.001 0-0.001 0-0.001 0-0.001 0-0.001 0-0.001 0-0.001 0-0.001 0-0.001 0-0.001 0-0.001 0-0.001 0-0.001 0-0.001 0-0.001 0-0.001 0-0.001 0-0.001 0-0.001 0-0.001 0-0.001 0-0.001 0-0.001 0-0.001 0-0.001 0-0.001 0-0.001 0-0.001 0-0.001 0-0.001 0-0.001 0-0.001 0-0.001 0-0.001 0-0.001 0-0.001 0-0.001 0-0.001 0-0.001 0-0.001 0-0.001 0-0.001 0-0.001 0-0.001 0-0.001 0-0.001 0-0.001 0-0.001 0-0.001 0-0.001 0-0.001 0-0.001 0-0.001 0-0.001 0-0.001 0-0.001 0-0.001 0-0.001 0-0.001 0-0.001 0-0.001 0-0.001 0-0.001 0-0.001 0-0.001 0-0.001 0-0.001 0-0.001 0-0.001 0-0.001 0-0.001 0-0.001 0-0.001 0-0.001 0-0.001 0-0.001 0-0.001 0-0.001 0-0.001 0-0.001 0-0.001 0-0.001 0-0.001 0-0.001 0-0.001 0-0.001 0-0.001 0-0.001 0-0.001 0-0.001 0-0.001 0-0.001 0-0.001 0-0.001 0-0.001 0-0.001 0-0.001 0-0.001 0-0.001 0-0.001 0-0.001 0-0.001 0-0.001 0-0.001 0-0.001 0-0.001 0-0.001 0-0.001 0-0.001 0-0.001 0-0.001 0-0.001 0-0.001 0-0.001 0-0.001 0-0.001 0-0.001 0-0.001 0-0.001 0-0.001 0-0.001 0-0.001 0-0.001 0-0.001 0-0.001 0-0.001 0-0.001 0-0.001 0-0.001 0-0.001 0-0.001 0-0.001 0-0.001 0-0.001 0-0.001 0-0.001 0-0.001 0-0.001 0-0.001 0-0.001 0-0.001 0-0.001 0-0.001 0-0.001 0-0.001 0-0.001 0-0.001 0-0.001 0-0.001 0-0.001 0-0.001 0-0.001 0-0.001 0-0.001 0-0.001 0-0.001 0-0.001 0-0.001 0-0.001 0-0.001 0-0.001 0-0.001 0-0.001 0-0.001 0-0.001 0-0.001 0-0.001 0-0.001 0-0.001 0-0.001 0-0.001 0-0.001 0-0.001 0-0.001 0-0.001 0-0.001 0-0.001 0-0.001 0-0.001 0-0.001 0-0.001 0-0.001 0-0.001 0-0.001 0-0.001 0-0.001 0-0.001 0-0.001 0-0.001 0-0.001 0-0.001 0-0.001 0-0.001 0-0.001 0-0.001 0-0.001 0-0.001 0-0.001 0-0.001 0-0.001 0-0.001 0-0.001 0-0.001 0-0.001 0-0.001 0-0.001 0-0.001 0-0.001 0-0.001 0-0.001 0-0.001 0-0.001 0-0.001 0-0.001 0-0.001 0-0.001 0-0.001 0-0.001 0-0.001 0-0.001 0-0.001 0-0.001 0-0.001 0-0.001 0-0.001 0-0.001 0-0.001 0-0.001 0-0.001 0-0.001 0-0.001 0-0.001 0-0.001 0-0.001 0-0.001 0-0.001 0-0.001 0-0.001 0-0.001 0-0.001 0-0.001 0-0.001 0-0.001 0-0.001 0-0.001 0-0.001 0-0.001 0-0.001 0-0.001 0-0.001 0-0.001 0-0.001 0-0.001 0-0.001 0-0.001 0-0.001 0-0.001 0-0.001 0-0.001 0-0.001 0-0.001 0-0.001 0-0.001 0-0.001 0-0.001 0-0.001 0-0.001 0-0.001 0-0.001 0-0.001 0-0.001 0-0.001 0-0.001 0-0.001 0-0.001 0-0.001 0-0.001 0-0.001 0-0.001 0-0.001 0-0.001 0-0.001 0-0.001 0-0.001 0-0.001 0-0.001 0-0.001 0-0.001 0-0.001 0-0.001 0-0.001 0-0.001 0-0.001 0-0.001 0-0.001 0-0.001 0-0.001 0-0.001 0-0.001 0-0.001 0-0.001 0-0.001 0-0.001 0-0.001 0-0.001 0-0.001 0-0.001 0-0.001 0-0.001 0-0.001 0-0.001 0-0.001 0-0.001 0-0.001 0-0.001 0-0.001 0-0.001 0-0.001 0-0.001 0-0.001 0-0.001 0-0.001 0-0.001 0-0.001 0-0.001 0-0.001 0-0.001 0-0.001 0-0.001 0-0.001 0-0.001 0-0.001 0-0.001 0-0.001 0-0.001 0-0.001 0-0.001 0-0.001 0-0.001 0-0.001 0-0.001 0-0.001 0-0.001 0-0.001 0-0.001 0-0.001 0-0.001 0-0.001 0-0.001 0-0.001 0-0.001 0-0.001 0-0.001 0-0.001 0-0.001 0-0.001 0-0.001 0-0.001 0-0.001 0-0.001 0-0.001 0-0.001 0-0.001 0-0.001 0-0.001 0-0.001 0-0.001 0-0.001 0-0.001 0-0.001 0-0.001 0-0.001 0-0.001 0-0.001 0-0.001 0-0.001 0-0.001 0-0.001 0-0.001 0-0.001 0-0.001 0-0.001 0-0.001 0-0.001 0-0.001 0-0.001 0-0.001 0-0.001 0-0.001 0-0.001 0-0.001 0-0.001 0-0.001 0-0.001 0-0.001 0-0.001 0-0.001 0-0.001 0-0.001 0-0.001 0-0.001 0-0.001 0-0.001 0-0.001 0-0.001 0-0.001 0-0.001 0-0.001 0-0.001 0-0.001 0-0.001 0-0.001 0-0.001 0-0.001 0-0.001 0-0.001 0-0.001 0-0.001 0-0.001 0-0.001 0-0.001 0-0.001 0-0.001 0-0.001 0-0.001 0-0.001 0-0.001 0-0.001 0-0.001 0-0.001 0-0.001 0-0.001 0-0.001 0-0.001 0-0.001 0-0.001 0-0.001 0-0.001 0-0.001 0-0.001 0-0.001 0-0.001 0-0.001 0-0.001 0-0.001 0-0.001 0-0.001 0-0.001 0-0.001 0-0.001 0-0.001 0-0.001 0-0.001 0-0.001 0-0.001 0-0.001 0-0.001 0-0.001 0-0.001 0-0.001 0-0.001 0-0.001 0-0.001 0-0.001 0-0.001 0-0.001 0-0.001 0-0.001 0-0.001 0-0.001 0-0.001 0-0.001 0-0.001 0-0.001 0-0.001 0-0.001 0-0.001 0-0.001 0-0.001 0-0.001 0-0.001 0-0.001 0-0.001 0-0.001 0-0.001 0-0.001 0-0.001 0-0.001 0-0.001 0-0.001 0-0.001 0-0.001 0-0.001 0-0.001 0-0.001 0-0.001 0-0.001 0-0.001 0-0.001 0-0.001 0-0.001 0-0.001 0-0.001 0-0.001 0-0.001 0-0.001 0-0.001 0-0.001 0-0.001 0-0.001 0-0.001 0-0.001 0-0.001 0-0.001 0-0.001 0-0.001 0-0.001 0-0.001 0-0.001 0-0.001 0-0.001 0-0.001 0-0.001 0-0.001 0-0.001 0-0.001 0-0.001 0-0.001 0-0.001 0-0.001 0-0.001 0-0.001 0-0.001 0-0.001 0-0.001 0-0.001 0-0.001 0-0.001 0-0.001 0-0.001 0-0.001 0-0.001 0-0.001 0-0.001 0-0.001 0-0.001 0-0.001 0-0.001 0-0.001 0-0.001 0-0.001 0-0.001 0-0.001 0-0.001 0-0.001 0-0.001 0-0.001 0-0.001 0-0.001 0-0.001 0-0.001 0-0.001 0-0.001 0-0.001 0-0.001 0-0.001 0-0.001 0-0.001 0-0.001 0-0.001 0-0.001 0-0.001 0-0.001 0-0.001 0-0.001 0-0.001 0-0.001 0-0.001 0-0.001 0-0.001 0-0.001 0-0.001 0-0.001 0-0.001 0-0.001 0-0.001 0-0.001 0-0.001 0-0.001 0-0.001 0-0.001 0-0.001 0-0.001 0-0.001 0-0.001 0-0.001 0-0.001 0-0.001 0-0.001 0-0.001 0-0.001 0-0.001 0-0.001 0-0.001 0-0.001 0-0.001 0-0.001 0-0.001 0-0.001 0-0.001 0-0.001 0-0.001 0-0.001 0-0.001 0-0.001 0-0.001 0-0.001 0-0.001 0-0.001 0-0.001 0-0.001 0-0.001 0-0.001 0-0.001 0-0.001 0-0.001 0-0.001 0-0.001 0-0.001 0-0.001 0-0.001 0-0.001 0-0.001 0-0.001 0-0.001 0-0.001 0-0.001 0-0.001 0-0.001 0-0.001 0-0.001 0-0.001 0-0.001 0-0.001 0-0.001 0-0.001 0-0.001 0-0.001 0-0.001 0-0.001 0-0.001 0-0.001 0-0.001 0-0.001 0-0.001 0-0.001 0-0.001 0-0.001 0-0.001 0-0.001 0-0.001 0-0.001 0-0.001 0-0.001 0-0.001 0-0.001 0-0.001 0-0.001 0-0.001 0-0.001 0-0.001 0-0.001 0-0.001 0-0.001 0-0.001 0-0.001 0-0.001 0-0.001 0-0.001 0-0.001 0-0.001 0-0.001 0-0.001 0-0.001 0-0.001 0-0.001 0-0.001 0-0.001 0-0.001 0-0.001 0-0.001 0-0.001 0-0.001 0-0.001 0-0.001 0-0.001 0-0.001 0-0.001 0-0.001 0-0.001 0-0.001 0-0.001 0-0.001 0-0.001 0-0.001 0-0.001 0-0.001 0-0.001 0-0.001 0-0.001 0-0.001 0-0.001 0-0.001 0-0.001 0-0.001 0-0.001 0-0.001 0-0.001 0-0.001 0-0.001 0-0.001 0-0.001 0-0.001 0-0.001 0-0.001 0-0.001 0-0.001 0-0.001 0-0.001 0-0.001 0-0.001 0-0.001 0-0.001 0-0.001 0-0.001 0-0.001 0-0.001 0-0.001 0-0.001 0-0.001 0-0.001 0-0.001 0-0.001 0-0.001 0-0.001 0-0.001 0-0.001 0-0.001 0-0.001 0-0.001 0-0.001 0-0.001 0-0.001 0-0.001 0-0.001 0-0.001 0-0.001 0v1.641c0 0 0.001 0 0.001 0s0.001 0 0.001 0 0.001 0 0.001 0 0.001 0 0.001 0 0.001 0 0.001 0 0.001 0 0.001 0 0.001 0 0.001 0 0.001 0 0.001 0 0.001 0 0.001 0 0.001 0 0.001 0 0.001 0 0.001 0 0.001 0 0.001 0 0.001 0 0.001 0 0.001 0 0.001 0 0.001 0 0.001 0 0.001 0 0.001 0 0.001 0 0.001 0 0.001 0 0.001 0 0.001 0 0.001 0 0.001 0 0.001 0 0.001 0 0.001 0 0.001 0 0.001 0 0.001 0 0.001 0 0.001 0 0.001 0 0.001 0 0.001 0 0.001 0 0.001 0 0.001 0 0.001 0 0.001 0 0.001 0 0.001 0 0.001 0 0.001 0 0.001 0 0.001 0 0.001 0 0.001 0 0.001 0 0.001 0 0.001 0 0.001 0 0.001 0 0.001 0 0.001 0 0.001 0 0.001 0 0.001 0 0.001 0 0.001 0 0.001 0 0.001 0 0.001 0 0.001 0 0.001 0 0.001 0 0.001 0 0.001 0 0.001 0 0.001 0 0.001 0 0.001 0 0.001 0 0.001 0 0.001 0 0.001 0 0.001 0 0.001 0 0.001 0 0.001 0 0.001 0 0.001 0 0.001 0 0.001 0 0.001 0 0.001 0 0.001 0 0.001 0 0.001 0 0.001 0 0.001 0 0.001 0 0.001 0 0.001 0 0.001 0 0.001 0 0.001 0 0.001 0 0.001 0 0.001 0 0.001 0 0.001 0 0.001 0 0.001 0 0.001 0 0.001 0 0.001 0 0.001 0 0.001 0 0.001 0 0.001 0 0.001 0 0.001 0 0.001 0 0.001 0 0.001 0 0.001 0 0.001 0 0.001 0 0.001 0 0.001 0 0.001 0 0.001 0 0.001 0 0.001 0 0.001 0 0.001 0 0.001 0 0.001 0 0.001 0 0.001 0 0.001 0 0.001 0 0.001 0 0.001 0 0.001 0 0.001 0 0.001 0 0.001 0 0.001 0 0.001 0 0.001 0 0.001 0 0.001 0 0.001 0 0.001 0 0.001 0 0.001 0 0.001 0 0.001 0 0.001 0 0.001 0 0.001 0 0.001 0 0.001 0 0.001 0 0.001 0 0.001 0 0.001 0 0.001 0 0.001 0 0.001 0 0.001 0 0.001 0 0.001 0 0.001 0 0.001 0 0.001 0 0.001 0 0.001 0 0.001 0 0.001 0 0.001 0 0.001 0 0.001 0 0.001 0 0.001 0 0.001 0 0.001 0 0.001 0 0.001 0 0.001 0 0.001 0 0.001 0 0.001 0 0.001 0 0.001 0 0.001 0 0.001 0 0.001 0 0.001 0 0.001 0 0.001 0 0.001 0 0.001 0 0.001 0 0.001 0 0.001 0 0.001 0 0.001 0 0.001 0 0.001 0 0.001 0 0.001 0 0.001 0 0.001 0 0.001 0 0.001 0 0.001 0 0.001 0 0.001 0 0.001 0 0.001 0 0.001 0 0.001 0 0.001 0 0.001 0 0.001 0 0.001 0 0.001 0 0.001 0 0.001 0 0.001 0 0.001 0 0.001 0 0.001 0 0.001 0 0.001 0 0.001 0 0.001 0 0.001 0 0.001 0 0.001 0 0.001 0 0.001 0 0.001 0 0.001 0 0.001 0 0.001 0 0.001 0 0.001 0 0.001 0 0.001 0 0.001 0 0.001 0 0.001 0 0.001 0 0.001 0 0.001 0 0.001 0 0.001 0 0.001 0 0.001 0 0.001 0 0.001 0 0.001 0 0.001 0 0.001 0 0.001 0 0.001 0 0.001 0 0.001 0 0.001 0 0.001 0 0.001 0 0.001 0 0.001 0 0.001 0 0.001 0 0.001 0 0.001 0 0.001 0 0.001 0 0.001 0 0.001 0 0.001 0 0.001 0 0.001 0 0.001 0 0.001 0 0.001 0 0.001 0 0.001 0 0.001 0 0.001 0 0.001 0 0.001 0 0.001 0 0.001 0 0.001 0 0.001 0 0.001 0 0.001 0 0.001 0 0.001 0 0.001 0 0.001 0 0.001 0 0.001 0 0.001 0 0.001 0 0.001 0 0.001 0 0.001 0 0.001 0 0.001 0 0.001 0 0.001 0 0.001 0 0.001 0 0.001 0 0.001 0 0.001 0 0.001 0 0.001 0 0.001 0 0.001 0 0.001 0 0.001 0 0.001 0 0.001 0 0.001 0 0.001 0 0.001 0 0.001 0 0.001 0 0.001 0 0.001 0 0.001 0 0.001 0 0.001 0 0.001 0 0.001 0 0.001 0 0.001 0 0.001 0 0.001 0 0.001 0 0.001 0 0.001 0 0.001 0 0.001 0 0.001 0 0.001 0 0.001 0 0.001 0 0.001 0 0.001 0 0.001 0 0.001 0 0.001 0 0.001 0 0.001 0 0.001 0 0.001 0 0.001 0 0.001 0 0.001 0 0.001 0 0.001 0 0.001 0 0.001 0 0.001 0 0.001 0 0.001 0 0.001 0 0.001 0 0.001 0 0.001 0 0.001 0 0.001 0 0.001 0 0.001 0 0.001 0 0.001 0 0.001 0 0.001 0 0.001 0 0.001 0 0.001 0 0.001 0 0.001 0 0.001 0 0.001 0 0.001 0 0.001 0 0.001 0 0.001 0 0.001 0 0.001 0 0.001 0 0.001 0 0.001 0 0.001 0 0.001 0 0.001 0 0.001 0 0.001 0 0.001 0 0.001 0 0.001 0 0.001 0 0.001 0 0.001 0 0.001 0 0.001 0 0.001 0 0.001 0 0.001 0 0.001 0 0.001 0 0.001 0 0.001 0 0.001 0 0.001 0 0.001 0 0.001 0 0.001 0 0.001 0 0.001 0 0.001 0 0.001 0 0.001 0 0.001 0 0.001 0 0.001 0 0.001 0 0.001 0 0.001 0 0.001 0 0.001 0 0.001 0 0.001 0 0.001 0 0.001 0 0.001 0 0.001 0 0.001 0 0.001 0 0.001 0 0.001 0 0.001 0 0.001 0 0.001 0 0.001 0 0.001 0 0.001 0 0.001 0 0.001 0 0.001 0 0.001 0 0.001 0 0.001 0 0.001 0 0.001 0 0.001 0 0.001 0 0.001 0 0.001 0 0.001 0 0.001 0 0.001 0 0.001 0 0.001 0 0.001 0 0.001 0 0.001 0 0.001 0 0.001 0 0.001 0 0.001 0 0.001 0 0.001 0 0.001 0 0.001 0 0.001 0 0.001 0 0.001 0 0.001 0 0.001 0 0.001 0 0.001 0 0.001 0 0.001 0 0.001 0 0.001 0 0.001 0 0.001 0 0.001 0 0.001 0 0.001 0 0.001 0 0.001 0 0.001 0 0.001 0 0.001 0 0.001 0 0.001 0 0.001 0 0.001 0 0.001 0 0.001 0 0.001 0 0.001 0 0.001 0 0.001 0 0.001 0 0.001 0 0.001 0 0.001 0 0.001 0 0.001 0 0.001 0 0.001 0 0.001 0 0.001 0 0.001 0 0.001 0 0.001 0 0.001 0 0.001 0 0.001 0 0.001 0 0.001 0 0.001 0 0.001 0 0.001 0 0.001 0 0.001 0 0.001 0 0.001 0 0.001 0 0.001 0 0.001 0 0.001 0 0.001 0 0.001 0 0.001 0 0.001 0 0.001 0 0.001 0 0.001 0 0.001 0 0.001 0 0.001 0c0 0 0.001 0 0.001 0s0.001 0 0.001 0 0.001 0 0.001 0 0.001 0 0.001 0 0.001 0 0.001 0 0.001 0 0.001 0 0.001 0 0.001 0 0.001 0 0.001 0 0.001 0 0.001 0 0.001 0 0.001 0 0.001 0 0.001 0 0.001 0 0.001 0 0.001 0 0.001 0 0.001 0 0.001 0 0.001 0 0.001 0 0.001 0 0.001 0 0.001 0 0.001 0 0.001 0 0.001 0 0.001 0 0.001 0 0.001 0 0.001 0 0.001 0 0.001 0 0.001 0 0.001 0 0.001 0 0.001 0 0.001 0 0.001 0 0.001 0 0.001 0 0.001 0 0.001 0 0.001 0 0.001 0 0.001 0 0.001 0 0.001 0 0.001 0 0.001 0 0.001 0 0.001 0 0.001 0 0.001 0 0.001 0 0.001 0 0.001 0 0.001 0 0.001 0 0.001 0 0.001 0 0.001 0 0.001 0 0.001 0 0.001 0 0.001 0 0.001 0 0.001 0 0.001 0 0.001 0 0.001 0 0.001 0 0.001 0 0.001 0 0.001 0 0.001 0 0.001 0 0.001 0 0.001 0 0.001 0 0.001 0 0.001 0 0.001 0 0.001 0 0.001 0 0.001 0 0.001 0 0.001 0 0.001 0 0.001 0 0.001 0 0.001 0 0.001 0 0.001 0 0.001 0 0.001 0 0.001 0 0.001 0 0.001 0 0.001 0 0.001 0 0.001 0 0.001 0 0.001 0 0.001 0 0.001 0 0.001 0 0.001 0 0.001 0 0.001 0 0.001 0 0.001 0 0.001 0 0.001 0 0.001 0 0.001 0 0.001 0 0.001 0 0.001 0 0.001 0 0.001 0 0.001 0 0.001 0 0.001 0 0.001 0 0.001 0 0.001 0 0.001 0 0.001 0 0.001 0 0.001 0 0.001 0 0.001 0 0.001 0 0.001 0 0.001 0 0.001 0 0.001 0 0.001 0 0.001 0 0.001 0 0.001 0 0.001 0 0.001 0 0.001 0 0.001 0 0.001 0 0.001 0 0.001 0 0.001 0 0.001 0 0.001 0 0.001 0 0.001 0 0.001 0 0.001 0 0.001 0 0.001 0 0.001 0 0.001 0 0.001 0 0.001 0 0.001 0 0.001 0 0.001 0 0.001 0 0.001 0 0.001 0 0.001 0 0.001 0 0.001 0 0.001 0 0.001 0 0.001 0 0.001 0 0.001 0 0.001 0 0.001 0 0.001 0 0.001 0 0.001 0 0.001 0 0.001 0 0.001 0 0.001 0 0.001 0 0.001 0 0.001 0 0.001 0 0.001 0 0.001 0 0.001 0 0.001 0 0.001 0 0.001 0 0.001 0 0.001 0 0.001 0 0.001 0 0.001 0 0.001 0 0.001 0 0.001 0 0.001 0 0.001 0 0.001 0 0.001 0 0.001 0 0.001 0 0.001 0 0.001 0 0.001 0 0.001 0 0.001 0 0.001 0 0.001 0 0.001 0 0.001 0 0.001 0 0.001 0 0.001 0 0.001 0 0.001 0 0.001 0 0.001 0 0.001 0 0.001 0 0.001 0 0.001 0 0.001 0 0.001 0 0.001 0 0.001 0 0.001 0 0.001 0 0.001 0 0.001 0 0.001 0 0.001 0 0.001 0 0.001 0 0.001 0 0.001 0 0.001 0 0.001 0 0.001 0 0.001 0 0.001 0 0.001 0 0.001 0 0.001 0 0.001 0 0.001 0 0.001 0 0.001 0 0.001 0 0.001 0 0.001 0 0.001 0 0.001 0 0.001 0 0.001 0 0.001 0 0.001 0 0.001 0 0.001 0 0.001 0 0.001 0 0.001 0 0.001 0 0.001 0 0.001 0 0.001 0 0.001 0 0.001 0 0.001 0 0.001 0 0.001 0 0.001 0 0.001 0 0.001 0 0.001 0 0.001 0 0.001 0 0.001 0 0.001 0 0.001 0 0.001 0 0.001 0 0.001 0 0.001 0 0.001 0 0.001 0 0.001 0 0.001 0 0.001 0 0.001 0 0.001 0 0.001 0 0.001 0 0.001 0 0.001 0 0.001 0 0.001 0 0.001 0 0.001 0 0.001 0 0.001 0 0.001 0 0.001 0 0.001 0 0.001 0 0.001 0 0.001 0 0.001 0 0.001 0 0.001 0 0.001 0 0.001 0 0.001 0 0.001 0 0.001 0 0.001 0 0.001 0 0.001 0 0.001 0 0.001 0 0.001 0 0.001 0 0.001 0 0.001 0 0.001 0 0.001 0 0.001 0 0.001 0 0.001 0 0.001 0 0.001 0 0.001 0 0.001 0 0.001 0 0.001 0 0.001 0 0.001 0 0.001 0 0.001 0 0.001 0 0.001 0 0.001 0 0.001 0 0.001 0 0.001 0 0.001 0 0.001 0 0.001 0 0.001 0 0.001 0 0.001 0 0.001 0 0.001 0 0.001 0 0.001 0 0.001 0 0.001 0 0.001 0 0.001 0 0.001 0 0.001 0 0.001 0 0.001 0 0.001 0 0.001 0 0.001 0 0.001 0 0.001 0 0.001 0 0.001 0 0.001 0 0.001 0 0.001 0 0.001 0 0.001 0 0.001 0 0.001 0 0.001 0 0.001 0 0.001 0 0.001 0 0.001 0 0.001 0 0.001 0 0.001 0 0.001 0 0.001 0 0.001 0 0.001 0 0.001 0 0.001 0 0.001 0 0.001 0 0.001 0 0.001 0 0.001 0 0.001 0 0.001 0 0.001 0 0.001 0 0.001 0 0.001 0 0.001 0 0.001 0 0.001 0 0.001 0 0.001 0 0.001 0 0.001 0 0.001 0 0.001 0 0.001 0 0.001 0 0.001 0 0.001 0 0.001 0 0.001 0 0.001 0 0.001 0 0.001 0 0.001 0 0.001 0 0.001 0 0.001 0 0.001 0 0.001 0 0.001 0 0.001 0 0.001 0 0.001 0 0.001 0 0.001 0 0.001 0 0.001 0 0.001 0 0.001 0 0.001 0 0.001 0 0.001 0 0.001 0 0.001 0 0.001 0 0.001 0 0.001 0 0.001 0 0.001 0 0.001 0 0.001 0v-1.641zM24.85 27.057c-0.282 0-0.527 0.049-0.693 0.077l0.27 1.619c0.228-0.038 0.311-0.054 0.423-0.054v-1.641zM24.145 27.136c-0.315 0.057-0.667 0.087-1.070 0.121l0.136 1.635c0.385-0.032 0.82-0.068 1.227-0.142l-0.294-1.615zM23.075 27.257c-0.402 0.033-0.76 0.063-1.081 0.063v1.641c0.402 0 0.831-0.036 1.217-0.068l-0.136-1.635zM21.995 27.32c-0.355 0-0.803 0.039-1.342 0.147l0.322 1.609c0.445-0.089 0.785-0.115 1.021-0.115v-1.641zM20.697 27.459c-0.24 0.034-0.412 0.057-0.573 0.057v1.641c0.298 0 0.586-0.043 0.805-0.074l-0.232-1.625zM20.008 27.525c-0.242 0.035-0.482 0.074-0.766 0.155l0.451 1.578c0.176-0.050 0.329-0.077 0.547-0.108l-0.232-1.625zM19.29 27.667c-0.267 0.059-0.474 0.083-0.712 0.123l0.27 1.619c0.156-0.026 0.475-0.068 0.798-0.14l-0.356-1.602zM18.597 27.787c-0.242 0.035-0.482 0.074-0.766 0.155l0.451 1.578c0.176-0.050 0.329-0.077 0.547-0.108l-0.232-1.625zM17.831 27.942c-0.145 0.042-0.331 0.067-0.529 0.067v1.641c0.326 0 0.666-0.040 0.98-0.13l-0.451-1.578zM17.302 28.009c-0.327 0-0.682 0.040-1.031 0.118l0.356 1.602c0.242-0.054 0.477-0.079 0.675-0.079v-1.641zM16.223 28.139c-0.074 0.021-0.189 0.028-0.33-0.007l-0.398 1.592c0.383 0.096 0.794 0.103 1.179-0.007l-0.451-1.578zM15.693 28.107c-0.594 0-1.186 0.074-1.774 0.221l0.398 1.592c0.462-0.116 0.92-0.172 1.376-0.172v-1.641zM13.94 28.324c-0.296 0.066-0.577 0.128-0.921 0.191l0.294 1.615c0.379-0.069 0.688-0.138 0.983-0.203l-0.356-1.602zM13.005 28.517c-0.222 0.044-0.496 0.049-0.815 0.020l-0.149 1.634c0.403 0.037 0.851 0.042 1.285-0.045l-0.322-1.609zM12.116 28.534c-0.305 0-0.579-0.051-0.791-0.122l-0.519 1.557c0.379 0.126 0.827 0.206 1.31 0.206v-1.641zM11.265 28.394c-0.384-0.096-0.747 0.013-0.963 0.1l0.609 1.524c0.019-0.008 0.035-0.013 0.047-0.017 0.006-0.002 0.010-0.003 0.014-0.004s0.005-0.001 0.005-0.001-0.002 0-0.007 0.001c-0.004 0-0.011 0.001-0.020 0-0.017-0-0.046-0.002-0.083-0.012l0.398-1.592zM10.381 28.467c-0.083 0.024-0.171 0.043-0.29 0.068-0.112 0.023-0.255 0.052-0.406 0.090l0.398 1.592c0.111-0.028 0.214-0.049 0.341-0.075 0.12-0.025 0.261-0.055 0.408-0.097l-0.451-1.578zM9.659 28.631c-0.243 0.070-0.424 0.12-0.566 0.144l0.27 1.619c0.252-0.042 0.531-0.123 0.747-0.184l-0.451-1.578zM8.861 28.85c0.057-0.029 0.106-0.042 0.135-0.049 0.028-0.006 0.045-0.007 0.042-0.007s-0.014 0.001-0.039 0.001c-0.026 0-0.056 0-0.099 0v1.641c0.070 0 0.172 0 0.264-0.007 0.091-0.007 0.257-0.026 0.431-0.113l-0.734-1.468zM8.9 28.797c-0.339 0-0.467-0.085-0.536-0.154l-1.16 1.16c0.457 0.457 1.050 0.634 1.696 0.634v-1.641zM8.518 28.856c-0.041-0.082-0.084-0.148-0.123-0.199-0.019-0.026-0.037-0.048-0.054-0.066-0.008-0.009-0.016-0.018-0.023-0.025-0.004-0.004-0.007-0.007-0.010-0.011-0.002-0.002-0.003-0.003-0.005-0.005s-0.002-0.002-0.002-0.002-0.001-0.001-0.001-0.001-0-0-0.001-0.001-0-0-0-0-0-0-0.581 0.58-0.58 0.58-0.581 0.58-0-0-0-0-0-0-0.001-0.001-0.001-0.001-0.001-0.001-0.001-0.001-0.002-0.002-0.003-0.003-0.004-0.004-0.006-0.006-0.008-0.009-0.010-0.011-0.015-0.016-0.017-0.020-0.024-0.030-0.024-0.036-0.032-0.051l1.468-0.734zM7.718 28.304c0.273 0 0.488 0.14 0.611 0.303 0.119 0.159 0.144 0.32 0.144 0.419h-1.641c0 0.285 0.197 0.919 0.886 0.919v-1.641zM8.335 28.571c-0.026-0.039-0.042-0.070-0.052-0.092s-0.011-0.032-0.011-0.030c0 0.002 0.002 0.015-0.001 0.035s-0.009 0.041-0.017 0.056l-1.468-0.734c-0.318 0.636-0.096 1.259 0.182 1.675l1.365-0.91zM8.299 28.432c-0.001 0.003-0.001 0.001 0.003-0.006s0.012-0.018 0.028-0.035l-1.16-1.16c-0.232 0.232-0.36 0.477-0.428 0.682l1.557 0.519zM8.407 28.304c0.26-0.346 0.586-0.704 1.018-1.105l-1.117-1.202c-0.487 0.452-0.883 0.882-1.214 1.323l1.313 0.985zM9.322 27.28c0.287-0.191 0.427-0.259 0.525-0.288l-0.451-1.578c-0.361 0.103-0.68 0.297-0.985 0.5l0.91 1.365zM9.989 26.938c0.298-0.149 0.651-0.251 1.033-0.276l-0.109-1.637c-0.602 0.040-1.168 0.201-1.658 0.446l0.734 1.468zM11.069 26.657c0.105-0.013 0.205-0.020 0.328-0.028 0.116-0.008 0.26-0.018 0.408-0.039l-0.232-1.625c-0.081 0.012-0.167 0.018-0.289 0.026-0.115 0.008-0.261 0.017-0.419 0.037l0.204 1.628zM11.689 26.598c0.149 0 0.293-0.011 0.403-0.019 0.12-0.009 0.205-0.014 0.286-0.014v-1.641c-0.149 0-0.293 0.011-0.403 0.018-0.12 0.009-0.205 0.014-0.286 0.014v1.641zM12.378 26.565c0.133 0 0.336 0.001 0.588-0.049l-0.322-1.609c-0.077 0.015-0.136 0.017-0.266 0.017v1.641zM12.966 26.516c0.044-0.009 0.090-0.018 0.122-0.025 0.036-0.007 0.063-0.013 0.086-0.017 0.047-0.008 0.060-0.008 0.058-0.008v-1.641c-0.237 0-0.484 0.061-0.588 0.082l0.322 1.609zM13.599 26.38c0.228-0.114 0.529-0.195 0.966-0.295l-0.369-1.599c-0.416 0.096-0.903 0.212-1.331 0.427l0.734 1.468zM14.748 26.019c0.018-0.009 0.044-0.020 0.107-0.042 0.054-0.019 0.155-0.053 0.257-0.094l-0.609-1.524c-0.061 0.025-0.109 0.040-0.194 0.070-0.077 0.027-0.182 0.065-0.295 0.122l0.734 1.468zM15.174 25.855c0.090-0.045 0.183-0.079 0.253-0.093l-0.322-1.609c-0.258 0.052-0.493 0.148-0.666 0.235l0.734 1.468zM15.801 25.579c0.333-0.285 0.649-0.693 0.709-1.296l-1.633-0.163c-0.004 0.042-0.014 0.065-0.027 0.086-0.016 0.026-0.048 0.068-0.118 0.127l1.068 1.246zM16.514 24.202v-0.328h-1.641v0.328h1.641zM16.472 23.614c-0.046-0.138-0.070-0.254-0.1-0.433l-1.619 0.27c0.036 0.215 0.077 0.427 0.162 0.683l1.557-0.519zM16.371 23.181c-0.031-0.188-0.073-0.448-0.162-0.715l-1.557 0.519c0.042 0.126 0.066 0.26 0.1 0.466l1.619-0.27zM16.22 22.499c-0.093-0.326-0.284-0.666-0.383-0.864l-1.468 0.734c0.164 0.327 0.235 0.447 0.273 0.581l1.578-0.451zM15.628 21.372c-0.172-0.143-0.25-0.228-0.296-0.289l-1.313 0.985c0.152 0.202 0.336 0.38 0.558 0.565l1.050-1.261zM15.332 21.084c-0.093-0.124-0.193-0.221-0.265-0.288-0.087-0.081-0.119-0.108-0.172-0.161l-1.16 1.16c0.078 0.078 0.177 0.167 0.213 0.2 0.051 0.048 0.067 0.066 0.072 0.073l1.313-0.985zM14.945 20.69c-0.228-0.274-0.307-0.337-0.407-0.488l-1.365 0.91c0.162 0.243 0.412 0.508 0.512 0.628l1.261-1.050zM14.538 20.202c-0.217-0.326-0.515-0.561-0.753-0.72l-0.91 1.365c0.156 0.104 0.252 0.197 0.298 0.265l1.365-0.91zM13.752 19.461c-0.274-0.165-0.53-0.362-0.768-0.57l-1.081 1.235c0.287 0.251 0.622 0.513 1.004 0.742l0.844-1.407zM12.984 18.891c-0.33-0.289-0.506-0.41-0.715-0.619l-1.16 1.16c0.25 0.25 0.6 0.523 0.795 0.694l1.081-1.235zM12.372 18.397c-0.113-0.169-0.314-0.484-0.597-0.711l-1.025 1.281c0.045 0.036 0.106 0.114 0.257 0.34l1.365-0.91zM11.775 17.686c-0.047-0.038-0.082-0.074-0.182-0.168-0.086-0.082-0.209-0.195-0.368-0.3l-0.91 1.365c0.039 0.026 0.080 0.060 0.149 0.126 0.056 0.053 0.168 0.165 0.286 0.258l1.025-1.281zM11.296 17.27c-0.227-0.189-0.483-0.371-0.694-0.512l-0.91 1.365c0.183 0.122 0.387 0.268 0.554 0.407l1.050-1.261zM10.602 16.758c-0.091-0.061-0.192-0.13-0.3-0.205-0.105-0.073-0.218-0.151-0.324-0.221l-0.91 1.365c0.091 0.061 0.192 0.13 0.3 0.205 0.105 0.073 0.218 0.151 0.324 0.221l0.91-1.365zM10.043 16.379c-0.399-0.327-0.826-0.61-1.195-0.845l-0.881 1.384c0.353 0.225 0.714 0.467 1.037 0.73l1.039-1.27zM8.821 15.518c-0.396-0.231-0.714-0.435-1.074-0.651l-0.844 1.407c0.296 0.178 0.7 0.433 1.092 0.662l0.827-1.417zM7.725 14.854c-0.813-0.455-1.58-0.903-2.342-1.411l-0.91 1.365c0.814 0.542 1.622 1.014 2.45 1.477l0.802-1.432zM5.383 13.443c-0.8-0.533-1.605-1.037-2.382-1.476l-0.807 1.429c0.733 0.415 1.504 0.896 2.279 1.412l0.91-1.365zM3.178 12.101c-0.097-0.097-0.233-0.234-0.416-0.372l-0.985 1.313c0.079 0.059 0.14 0.119 0.24 0.219l1.16-1.16zM2.85 11.806c-0.153-0.153-0.327-0.272-0.416-0.339l-0.985 1.313c0.173 0.13 0.196 0.142 0.24 0.186l1.16-1.16zM2.364 11.42c-0.040-0.024-0.075-0.049-0.12-0.085-0.012-0.009-0.024-0.019-0.038-0.030s-0.029-0.023-0.045-0.036-0.075-0.058-0.124-0.091l-0.91 1.365c-0-0 0.006 0.004 0.025 0.019 0.032 0.025 0.030 0.024 0.079 0.062 0.069 0.054 0.166 0.127 0.29 0.202l0.844-1.407zM2.194 11.316c-0.155-0.175-0.207-0.308-0.223-0.481l-1.634 0.149c0.050 0.549 0.261 1.007 0.631 1.423l1.227-1.090zM1.974 10.909c0-0.231 0.037-0.371 0.071-0.446 0.030-0.066 0.053-0.077 0.059-0.081l-0.786-1.441c-0.738 0.402-0.986 1.199-0.986 1.967h1.641zM2.167 10.345c0.029-0.019 0.061-0.035 0.1-0.042l-0.322-1.609c-0.29 0.058-0.52 0.174-0.688 0.286l0.91 1.365zM2.187 10.315c0.216-0.022 0.452 0 0.688 0.086l0.561-1.542c-0.486-0.177-0.972-0.221-1.412-0.177l0.163 1.633zM2.789 10.363c0.086 0.043 0.19 0.083 0.314 0.104 0.104 0.017 0.2 0.015 0.217 0.015v-1.641c-0.020 0-0.018-0-0.013 0 0.009 0 0.033 0.002 0.065 0.007 0.034 0.006 0.066 0.014 0.096 0.024 0.028 0.010 0.047 0.019 0.054 0.022l-0.734 1.468zM3.32 10.483c0.020 0 0.018 0 0.013-0-0.009-0-0.033-0.002-0.065-0.007-0.034-0.006-0.066-0.014-0.096-0.024-0.028-0.010-0.047-0.019-0.054-0.022l0.734-1.468c-0.086-0.043-0.19-0.083-0.314-0.104-0.104-0.017-0.2-0.015-0.217-0.015v1.641zM3.117 10.429c0.105 0.052 0.215 0.094 0.255 0.11 0.027 0.011 0.038 0.016 0.043 0.018s-0.007-0.003-0.025-0.015l0.91-1.365c-0.128-0.085-0.257-0.136-0.319-0.161-0.083-0.033-0.104-0.041-0.131-0.054l-0.734 1.468zM3.39 10.542c0.15 0.1 0.333 0.19 0.449 0.248l0.734-1.468c-0.146-0.073-0.226-0.114-0.273-0.146l-0.91 1.365zM3.839 10.79c-0.005-0.002-0.034-0.019 0.023 0.015 0.018 0.011 0.070 0.042 0.138 0.070 0.073 0.030 0.19 0.067 0.338 0.067v-1.641c0.131 0 0.232 0.033 0.287 0.056 0.028 0.011 0.049 0.022 0.061 0.029s0.020 0.011 0.021 0.012c0 0 0 0-0.007-0.004-0.006-0.004-0.016-0.010-0.027-0.017-0.024-0.014-0.058-0.034-0.099-0.054l-0.734 1.468zM3.757 10.702c0.098 0.098 0.203 0.161 0.279 0.199 0.050 0.025 0.217 0.107 0.433 0.107v-1.641c0.111 0 0.192 0.024 0.219 0.033 0.037 0.012 0.064 0.024 0.082 0.033 0.026 0.013 0.083 0.044 0.148 0.109l-1.16 1.16zM3.828 10.7c0.204 0.255 0.449 0.447 0.678 0.585l0.844-1.407c-0.099-0.059-0.183-0.13-0.241-0.203l-1.281 1.025zM4.506 11.285c0.13 0.078 0.422 0.265 0.754 0.331l0.322-1.609c0.017 0.003 0.008 0.004-0.040-0.020-0.049-0.024-0.104-0.057-0.191-0.109l-0.844 1.407zM5.195 11.6c0.141 0.040 0.329 0.131 0.613 0.273l0.734-1.468c-0.241-0.12-0.578-0.292-0.896-0.383l-0.451 1.578zM5.852 11.893c0.482 0.207 0.814 0.346 1.083 0.507l0.844-1.407c-0.388-0.233-0.844-0.421-1.28-0.609l-0.646 1.508zM6.935 12.401c0.173 0.104 0.353 0.207 0.524 0.304 0.174 0.099 0.338 0.193 0.494 0.287l0.844-1.407c-0.173-0.104-0.353-0.207-0.524-0.304-0.174-0.099-0.338-0.193-0.494-0.287l-0.844 1.407zM7.794 12.868c0.29 0.29 0.612 0.468 0.837 0.58l0.734-1.468c-0.169-0.085-0.306-0.169-0.41-0.273l-1.16 1.16zM8.631 13.448c0.115 0.058 0.385 0.21 0.587 0.29l0.609-1.524c-0.126-0.050-0.184-0.095-0.463-0.235l-0.734 1.468zM9.068 13.66c0.228 0.152 0.487 0.3 0.712 0.412l0.734-1.468c-0.169-0.085-0.369-0.199-0.535-0.31l-0.91 1.365zM9.78 14.072c0.172 0.086 0.381 0.205 0.616 0.34l0.814-1.425c-0.224-0.128-0.475-0.272-0.697-0.383l-0.734 1.468zM10.544 14.477c0.048 0.016 0.1 0.039 0.163 0.070 0.032 0.016 0.064 0.033 0.101 0.052 0.034 0.018 0.078 0.041 0.121 0.063l0.734-1.468c-0.062-0.031-0.329-0.184-0.6-0.274l-0.519 1.557zM10.928 14.663c0.168 0.084 0.367 0.163 0.522 0.225l0.609-1.524c-0.174-0.069-0.303-0.122-0.397-0.169l-0.734 1.468zM11.021 14.493c0.021 0.043 0.241 0.503 0.787 0.503 0.229 0 0.396-0.090 0.477-0.142 0.084-0.054 0.147-0.113 0.181-0.148l-1.16-1.16c0.002-0.002 0.036-0.036 0.094-0.074 0.055-0.035 0.2-0.117 0.408-0.117 0.239 0 0.423 0.106 0.534 0.211 0.093 0.088 0.136 0.173 0.146 0.194l-1.468 0.734zM12.707 14.126v-0.066h-1.641v0.066h1.641zM12.62 13.693c0.004 0.008 0.006 0.014 0.004 0.008-0.001-0.002-0.001-0.003-0.003-0.008-0.001-0.003-0.004-0.009-0.006-0.015-0.005-0.011-0.014-0.033-0.028-0.060-0.021-0.042-0.089-0.176-0.235-0.292-0.175-0.14-0.371-0.186-0.532-0.186v1.641c-0.145 0-0.329-0.042-0.493-0.174-0.135-0.108-0.195-0.23-0.208-0.255s-0.024-0.054-0.010-0.021c0.008 0.019 0.022 0.053 0.043 0.095l1.468-0.734zM11.82 13.962c0.58-0.58 0.58-0.58 0.58-0.58s0 0 0 0 0 0 0.001 0.001 0.001 0.001 0.001 0.001 0.001 0.001 0.002 0.002 0.003 0.003 0.004 0.004 0.006 0.006 0.008 0.009 0.010 0.011 0.015 0.016 0.017 0.020 0.024 0.030 0.024 0.036 0.032 0.052l-1.468 0.734c0.041 0.082 0.084 0.148 0.123 0.199 0.019 0.026 0.037 0.048 0.054 0.067 0.008 0.009 0.016 0.018 0.023 0.025 0.004 0.004 0.007 0.007 0.010 0.011 0.002 0.002 0.003 0.003 0.005 0.005s0.002 0.002 0.002 0.002 0.001 0.001 0.001 0.001 0 0 0.001 0.001 0 0 0 0 0 0 0.58-0.58zM12.335 13.283c-0.515-0.515-1.031-1.063-1.558-1.623l-1.195 1.125c0.524 0.556 1.057 1.123 1.593 1.659l1.16-1.16zM10.777 11.66c-0.547-0.581-1.13-1.13-1.717-1.614l-1.043 1.267c0.529 0.436 1.062 0.937 1.565 1.472l1.195-1.125zM9.14 10.121c-0.454-0.489-0.905-0.905-1.351-1.282l-1.060 1.253c0.407 0.345 0.809 0.716 1.209 1.146l1.203-1.117zM7.788 8.839c-0.443-0.375-0.924-0.753-1.476-1.133l-0.93 1.352c0.498 0.342 0.936 0.686 1.346 1.033l1.060-1.253zM6.427 7.802c-0.178-0.178-0.385-0.34-0.628-0.514l-0.954 1.335c0.216 0.154 0.338 0.255 0.422 0.339l1.16-1.16zM5.689 7.222c-0.169-0.085-0.369-0.199-0.535-0.31l-0.91 1.365c0.228 0.152 0.487 0.3 0.712 0.412l0.734-1.468zM5.154 6.912c-0.195-0.13-0.414-0.276-0.672-0.424l-0.814 1.425c0.202 0.115 0.377 0.232 0.576 0.364l0.91-1.365zM4.615 6.583c-0.238-0.208-0.481-0.45-0.781-0.75l-1.16 1.16c0.291 0.291 0.573 0.574 0.86 0.825l1.081-1.235zM3.868 5.868c-0.305-0.343-0.639-0.638-0.987-0.916l-1.025 1.281c0.309 0.247 0.565 0.477 0.785 0.725l1.227-1.090zM2.881 4.952c-0.072-0.058-0.104-0.107-0.12-0.142-0.017-0.037-0.031-0.089-0.031-0.169h-1.641c0 0.591 0.23 1.163 0.767 1.593l1.025-1.281zM2.705 4.442c-0.001-0.005-0.004-0.019-0.006-0.048-0.002-0.031-0.002-0.062-0.002-0.114h-1.641c0 0.090-0.003 0.317 0.057 0.56l1.592-0.398zM2.696 4.28c0 0-0.001-0.003 0.008-0.065 0.008-0.053 0.025-0.165 0.025-0.296h-1.641c0-0 0.001 0.003-0.008 0.065-0.008 0.053-0.025 0.165-0.025 0.296h1.641zM2.729 3.919c0-0.005-0.001-0.046 0.059-0.136l-1.365-0.91c-0.203 0.304-0.335 0.657-0.335 1.046h1.641zM2.867 3.633c-0.009 0.021-0.020 0.042-0.032 0.059s-0.022 0.027-0.026 0.031c-0.003 0.003-0-0 0.014-0.010s0.034-0.023 0.066-0.042l-0.844-1.407c-0.186 0.111-0.528 0.328-0.701 0.76l1.524 0.609zM3.047 3.547c-0.008 0.008-0.020 0.019-0.035 0.030s-0.030 0.021-0.044 0.029c-0.026 0.014-0.038 0.016-0.012 0.008l-0.519-1.557c-0.165 0.055-0.361 0.14-0.55 0.329l1.16 1.16zM2.956 3.614c0.165-0.055 0.361-0.14 0.55-0.329l-1.16-1.16c0.008-0.008 0.020-0.019 0.035-0.030s0.030-0.021 0.044-0.029c0.026-0.014 0.038-0.016 0.012-0.008l0.519 1.557zM3.293 3.438c0.066-0.033 0.134-0.045 0.191-0.045v-1.641c-0.271 0-0.597 0.054-0.925 0.218l0.734 1.468zM3.323 3.377c0.16 0.032 0.229 0.048 0.319 0.093l0.734-1.468c-0.304-0.152-0.563-0.201-0.731-0.235l-0.322 1.609zM3.429 3.317c0.123 0.123 0.255 0.194 0.306 0.222 0.015 0.008 0.030 0.016 0.040 0.022 0.011 0.006 0.019 0.010 0.026 0.014 0.013 0.007 0.017 0.010 0.015 0.009l0.91-1.365c-0.050-0.034-0.096-0.060-0.131-0.079-0.017-0.010-0.033-0.018-0.046-0.025-0.014-0.007-0.021-0.011-0.029-0.016-0.016-0.009-0.012-0.007-0.002-0 0.012 0.008 0.038 0.027 0.070 0.058l-1.16 1.16zM3.817 3.584c0.074 0.049 0.268 0.185 0.491 0.26l0.519-1.557c0.025 0.008 0.030 0.014 0.006-0-0.010-0.006-0.024-0.014-0.042-0.026s-0.038-0.025-0.064-0.042l-0.91 1.365zM3.987 3.645c0.169 0.169 0.344 0.252 0.41 0.285l0.734-1.468c-0.009-0.004-0.014-0.007-0.020-0.010s-0.009-0.005-0.011-0.006-0.004-0.002 0.001 0.001c0.005 0.003 0.012 0.008 0.021 0.015s0.018 0.015 0.026 0.023l-1.16 1.16zM4.397 3.93c-0.030-0.015-0.048-0.028-0.049-0.028s-0-0 0.004 0.003 0.009 0.007 0.018 0.013 0.044 0.033 0.077 0.056c0.033 0.023 0.084 0.056 0.147 0.087l0.734-1.468c0.030 0.015 0.048 0.028 0.049 0.028s0 0-0.004-0.003-0.009-0.007-0.018-0.013-0.044-0.033-0.077-0.056c-0.033-0.023-0.084-0.056-0.147-0.087l-0.734 1.468zM4.436 3.958c0.204 0.17 0.374 0.306 0.538 0.437l1.025-1.281c-0.164-0.131-0.322-0.258-0.512-0.416l-1.051 1.261zM4.974 4.395c0.173 0.139 0.299 0.24 0.392 0.333l1.16-1.16c-0.17-0.17-0.372-0.33-0.527-0.454l-1.025 1.281zM5.42 4.779c0.281 0.234 0.592 0.405 0.975 0.558l0.609-1.524c-0.273-0.109-0.421-0.201-0.534-0.295l-1.051 1.261zM6.502 5.371c0.129 0.032 0.254 0.102 0.343 0.173l1.025-1.281c-0.239-0.191-0.574-0.384-0.97-0.483l-0.398 1.592zM6.844 5.544c0.082 0.066 0.164 0.131 0.246 0.197s0.164 0.131 0.246 0.197l1.025-1.281c-0.082-0.066-0.164-0.131-0.246-0.197s-0.164-0.131-0.246-0.197l-1.025 1.281zM7.269 5.877c0.157 0.157 0.321 0.312 0.479 0.462 0.161 0.152 0.317 0.301 0.473 0.457l1.16-1.16c-0.173-0.173-0.344-0.336-0.504-0.487-0.162-0.154-0.309-0.294-0.448-0.432l-1.16 1.16zM8.249 6.823c0.384 0.349 0.749 0.643 1.162 0.906l0.881-1.384c-0.31-0.197-0.6-0.428-0.939-0.735l-1.104 1.214zM9.348 7.684c0.309 0.24 0.555 0.416 0.771 0.56l0.91-1.365c-0.178-0.119-0.392-0.271-0.673-0.49l-1.008 1.295zM10.206 8.296c0.206 0.103 0.51 0.255 0.961 0.405l0.519-1.557c-0.337-0.112-0.558-0.222-0.746-0.316l-0.734 1.468zM10.846 8.503c0.435 0.435 0.997 0.303 1.298 0.102l-0.91-1.365c0.051-0.034 0.158-0.089 0.312-0.089 0.168 0 0.337 0.067 0.461 0.191l-1.16 1.16zM12.51 7.923c0 0.134-0.036 0.316-0.167 0.485-0.126 0.161-0.279 0.234-0.373 0.265-0.089 0.030-0.161 0.035-0.184 0.037-0.025 0.002-0.045 0.001-0.031 0.001v-1.641c-0.002 0-0.039-0-0.079 0.002-0.038 0.003-0.124 0.010-0.226 0.044-0.107 0.036-0.27 0.114-0.403 0.284-0.138 0.178-0.178 0.373-0.178 0.523h1.641zM11.021 7.523l-0.033 0.066 1.468 0.734 0.033-0.066-1.468-0.734zM12.543 7.955c0-0.014 0 0.006-0.001 0.030-0.001 0.022-0.007 0.094-0.037 0.184-0.031 0.094-0.103 0.248-0.265 0.374-0.169 0.131-0.351 0.167-0.485 0.167v-1.641c-0.15 0-0.345 0.040-0.523 0.179-0.171 0.133-0.249 0.297-0.284 0.403-0.034 0.102-0.041 0.188-0.044 0.226-0.003 0.040-0.002 0.076-0.002 0.079h1.641zM11.755 7.069c-0.048 0-0.019-0.002 0.022 0.004 0.025 0.004 0.078 0.013 0.143 0.038 0.067 0.026 0.161 0.075 0.251 0.165l-1.16 1.16c0.206 0.206 0.447 0.248 0.534 0.261 0.098 0.014 0.193 0.012 0.21 0.012v-1.641zM12.171 7.277c-0.258-0.258-0.545-0.508-0.888-0.783l-1.025 1.281c0.313 0.25 0.551 0.46 0.753 0.662l1.16-1.16zM11.274 6.487c-0.248-0.193-0.476-0.419-0.744-0.687l-1.16 1.16c0.257 0.257 0.555 0.556 0.897 0.822l1.008-1.295zM10.649 5.95c-0.301-0.49-0.618-0.853-0.92-1.112l-1.068 1.246c0.157 0.135 0.366 0.363 0.59 0.726l1.398-0.86zM9.707 4.82c-0.082-0.066-0.164-0.131-0.246-0.197s-0.164-0.131-0.246-0.197l-1.025 1.281c0.082 0.066 0.164 0.131 0.246 0.197s0.164 0.131 0.246 0.197l1.025-1.281zM9.215 4.427c-0.173-0.139-0.299-0.24-0.392-0.333l-1.16 1.16c0.17 0.17 0.372 0.33 0.527 0.454l1.025-1.281zM8.823 4.093c-0.038-0.038-0.075-0.070-0.097-0.089-0.028-0.024-0.036-0.031-0.050-0.043-0.022-0.020-0.004-0.007 0.019 0.028l-1.365 0.91c0.089 0.133 0.189 0.228 0.249 0.282 0.028 0.025 0.061 0.053 0.071 0.062 0.017 0.015 0.017 0.016 0.012 0.010l1.16-1.16zM8.696 3.989c-0.063-0.095-0.169-0.258-0.332-0.42l-1.16 1.16c0.034 0.034 0.059 0.069 0.127 0.17l1.365-0.91zM8.518 3.781c-0.096-0.192-0.253-0.407-0.281-0.449l-1.365 0.91c0.021 0.032 0.044 0.065 0.062 0.091 0.020 0.028 0.037 0.053 0.053 0.077 0.034 0.051 0.053 0.084 0.064 0.105l1.468-0.734zM8.288 3.42c-0.066-0.132-0.145-0.24-0.181-0.29-0.046-0.065-0.049-0.072-0.049-0.071l-1.468 0.734c0.066 0.132 0.145 0.24 0.181 0.29 0.046 0.065 0.049 0.072 0.049 0.071l1.468-0.734zM8.037 3.019c-0.087-0.153-0.161-0.343-0.212-0.547l-1.592 0.398c0.080 0.321 0.204 0.656 0.379 0.963l1.425-0.814zM7.825 2.472c-0.032-0.129-0.041-0.315-0.012-0.606l-1.633-0.163c-0.037 0.366-0.046 0.77 0.053 1.167l1.592-0.398zM7.816 1.785c0-0.029 0.005-0.002-0.021 0.046-0.013 0.023-0.028 0.043-0.043 0.058s-0.024 0.019-0.021 0.018l-0.814-1.425c-0.23 0.131-0.429 0.318-0.565 0.568-0.133 0.245-0.177 0.502-0.177 0.735h1.641zM7.904 1.775c-0.032 0.032-0.059 0.051-0.070 0.058-0.010 0.007-0.014 0.008 0.002-0 0.008-0.004 0.015-0.008 0.029-0.016 0.012-0.006 0.028-0.015 0.046-0.025 0.035-0.019 0.081-0.046 0.131-0.079l-0.91-1.365c0.001-0.001-0.002 0.001-0.015 0.009-0.007 0.004-0.015 0.008-0.026 0.014-0.010 0.005-0.025 0.014-0.040 0.022-0.051 0.028-0.184 0.1-0.306 0.222l1.16 1.16zM8.042 1.713c0.031-0.021 0.057-0.037 0.098-0.061s0.097-0.058 0.164-0.103l-0.91-1.365c-0.031 0.021-0.057 0.037-0.098 0.061s-0.097 0.058-0.164 0.103l0.91 1.365zM8.048 1.662c0.078-0.019 0.122-0.022 0.146-0.021 0.020 0.001 0.034 0.004 0.054 0.012l0.646-1.508c-0.44-0.188-0.862-0.17-1.244-0.075l0.398 1.592zM8.346 1.688c0.179 0.051 0.251 0.101 0.269 0.119l1.16-1.16c-0.31-0.31-0.698-0.457-0.978-0.537l-0.451 1.578zM8.615 1.807c0.033 0.033 0.074 0.074 0.115 0.115s0.082 0.082 0.115 0.115l1.16-1.16c-0.033-0.033-0.074-0.074-0.115-0.115s-0.082-0.082-0.115-0.115l-1.16 1.16zM8.844 2.037c-0.006-0.006-0.005-0.006 0.002 0.003s0.015 0.019 0.025 0.033c0.021 0.030 0.039 0.059 0.049 0.079l1.468-0.734c-0.103-0.206-0.252-0.41-0.383-0.541l-1.16 1.16zM8.998 2.278c0.218 0.291 0.44 0.55 0.7 0.81l1.16-1.16c-0.2-0.2-0.372-0.4-0.547-0.634l-1.313 0.985zM9.698 3.087c0.318 0.317 0.667 0.528 1.034 0.712l0.734-1.468c-0.29-0.145-0.465-0.262-0.607-0.404l-1.16 1.16zM10.643 3.748c0.172 0.114 0.3 0.218 0.455 0.335l0.985-1.313c-0.107-0.080-0.307-0.239-0.529-0.387l-0.91 1.365zM11.011 4.006c0.043 0.043 0.087 0.085 0.121 0.116 0.037 0.035 0.065 0.062 0.092 0.089 0.053 0.053 0.086 0.092 0.111 0.129l1.365-0.91c-0.191-0.287-0.475-0.53-0.529-0.585l-1.16 1.16zM11.437 4.466c0.017 0.017 0.031 0.034 0.040 0.046 0.004 0.006 0.007 0.010 0.008 0.012s-0.001-0.001-0.004-0.008l1.468-0.734c-0.074-0.149-0.193-0.318-0.351-0.476l-1.16 1.16zM11.564 4.649c0.369 0.479 0.768 0.877 1.149 1.223l1.104-1.214c-0.342-0.311-0.664-0.635-0.952-1.009l-1.301 1.001zM12.713 5.871c0.173 0.158 0.324 0.3 0.484 0.452s0.328 0.312 0.531 0.498l1.109-1.21c-0.191-0.175-0.35-0.326-0.511-0.479s-0.321-0.305-0.509-0.475l-1.104 1.214zM15.103 6.216c0-0.028 0.001 0.020-0.005 0.072-0.005 0.046-0.030 0.279-0.232 0.48s-0.434 0.226-0.48 0.231c-0.051 0.006-0.1 0.005-0.071 0.005v-1.641c-0.002 0-0.014-0-0.028 0s-0.044 0.001-0.082 0.005c-0.055 0.006-0.294 0.033-0.499 0.239s-0.233 0.445-0.239 0.499c-0.004 0.038-0.005 0.070-0.005 0.082s-0 0.026-0 0.028h1.641zM14.315 7.004c0.028 0-0.020 0.001-0.072-0.005-0.045-0.005-0.279-0.030-0.48-0.232s-0.227-0.435-0.232-0.48c-0.006-0.051-0.005-0.1-0.005-0.071h1.641c0-0.002 0-0.014-0-0.027s-0.001-0.043-0.005-0.082c-0.006-0.054-0.033-0.294-0.239-0.499s-0.445-0.233-0.5-0.239c-0.038-0.004-0.069-0.005-0.082-0.005s-0.026-0-0.027-0v1.641zM14.348 5.396h-0.066v1.641h0.066v-1.641z"></path>
</svg>
