<!-- Generated by IcoMoon.io -->
<svg version="1.1" xmlns="http://www.w3.org/2000/svg" width="33" height="32" viewBox="0 0 33 32">
<title>hannihah_valley</title>
<path d="M3.156 30.703c-0.102-0.262-0.054-0.607 0.106-0.767 0.37-0.37-0.088-0.984-0.733-0.984-0.662 0-0.774-0.218-0.535-1.049 0.158-0.552 0.118-0.785-0.155-0.889-0.491-0.188-0.474-0.682 0.024-0.682 0.216 0 0.393-0.094 0.393-0.209s0.413-0.359 0.917-0.541c0.903-0.326 1.091-0.56 0.738-0.914-0.433-0.433-0.869-2.309-1.031-4.432-0.177-2.325-0.073-2.843 1.045-5.171 0.392-0.817 1.476-1.056 1.476-0.326 0 1.040 2.239 2.41 4.802 2.939 1.363 0.281 1.581 0.266 2.037-0.147 0.837-0.757 0.451-1.024-1.489-1.032-1.857-0.007-2.598-0.225-2.317-0.68 0.097-0.157 0.872-0.187 1.996-0.076 1.712 0.169 1.829 0.147 1.729-0.314-0.060-0.277-0.273-0.449-0.485-0.391-0.847 0.233-2.081 0.252-2.081 0.033 0-0.129 0.383-0.271 0.852-0.316 0.773-0.075 0.845-0.155 0.778-0.868-0.094-1.006 1.132-2.579 1.525-1.957 0.193 0.306 0.244 0.267 0.248-0.189 0.003-0.316-0.125-0.654-0.283-0.751s-0.23-0.471-0.162-0.831c0.069-0.36-0.037-0.965-0.236-1.345s-0.361-1.016-0.362-1.412c-0.001-0.465-0.141-0.721-0.395-0.721-0.497 0-0.505-0.487-0.018-1.026 1.744-1.931 1.688-1.893 2.309-1.545l0.591 0.332-0.655 0.093c-0.925 0.132-1.143 0.43-0.793 1.085 0.474 0.887 1.665 0.641 1.847-0.381l0.14-0.786 0.445 0.88c0.484 0.957 0.355 1.467-0.651 2.573-0.541 0.594-0.442 1.133 0.207 1.133 0.228 0 0.378-0.259 0.378-0.655 0-0.751 0.307-0.835 0.896-0.245 0.225 0.225 0.529 0.336 0.674 0.247s0.264-0.038 0.264 0.114c0 0.153-0.273 0.277-0.606 0.277s-0.864 0.24-1.179 0.534c-0.475 0.442-0.573 0.824-0.573 2.212 0 1.737-0.294 2.322-0.762 1.517-0.232-0.399-0.271-0.362-0.278 0.265-0.009 0.792 0.091 0.853 1.78 1.090 0.726 0.102 1.075 0.065 0.971-0.103-0.089-0.144-0.204-1.149-0.256-2.233-0.117-2.435 0.356-2.676 0.915-0.467 0.262 1.033 0.525 1.532 0.84 1.591 0.591 0.112 0.631-0.878 0.045-1.103-0.306-0.118-0.37-0.359-0.245-0.93 0.094-0.427 0.034-1.024-0.134-1.338-0.226-0.423-0.228-0.643-0.006-0.865 0.445-0.445 0.791 0.265 0.795 1.631 0.004 1.145 0.004 1.146 0.828 0.982 0.479-0.096 0.975-0.039 1.185 0.136 0.199 0.165 0.433 0.23 0.519 0.143 0.252-0.252-0.14-1.015-0.43-0.836-0.145 0.090-0.264 0.046-0.264-0.097 0-0.386 1.136-0.685 1.255-0.33 0.225 0.675 0.579 0.225 0.579-0.736 0-0.568 0.118-1.106 0.262-1.195s0.262 0.064 0.262 0.339c0 0.747 1.18 1.888 1.953 1.888 0.367 0 0.668-0.126 0.668-0.28s-0.216-0.211-0.48-0.127c-0.395 0.126-0.48 0.009-0.48-0.66 0-0.447-0.167-0.919-0.371-1.048-0.308-0.195-0.299-0.236 0.052-0.239 0.925-0.009 2.403 3.038 2.306 4.753-0.051 0.899 0.11 1.411 0.765 2.435 0.456 0.713 0.829 1.459 0.829 1.658 0 0.419 2.007 2.333 2.686 2.561 0.594 0.2 0.579 0.538-0.062 1.353-0.286 0.364-0.454 0.77-0.372 0.902 0.086 0.14-0.399 0.187-1.159 0.112-1.351-0.133-1.781 0.162-1.46 1 0.077 0.202 0.023 0.439-0.12 0.528-0.58 0.358-0.917-2.441-0.466-3.867 0.298-0.943 0.724-0.399 0.513 0.655-0.122 0.607-0.040 0.746 0.517 0.886 0.423 0.106 0.908 0.004 1.349-0.285 0.621-0.407 0.653-0.504 0.328-0.993-0.198-0.298-0.734-0.725-1.191-0.947s-0.9-0.669-0.986-0.992c-0.128-0.482-0.28-0.558-0.848-0.422-0.381 0.091-0.811 0.25-0.955 0.353-1.295 0.929-7.974 1.406-11.922 0.85-4.714-0.663-6.992-1.512-8.604-3.206l-0.874-0.919 0.134 0.962c0.095 0.685 0.026 1.003-0.24 1.105-0.539 0.207-0.473 1.405 0.085 1.551 0.385 0.101 0.39 0.125 0.033 0.15-0.361 0.026-0.416 0.357-0.363 2.192 0.034 1.189 0.153 2.548 0.263 3.020 0.261 1.117 1.474 2.005 2.468 1.806 0.814-0.163 1.857 0.037 1.857 0.356 0 0.114-0.619 0.267-1.376 0.34-2.875 0.277-5.296 0.964-3.4 0.964 0.969 0 1.36 0.477 0.754 0.92-0.238 0.174-0.437 0.598-0.442 0.943s-0.173 0.921-0.374 1.281c-0.329 0.591-0.383 0.608-0.55 0.179zM13.522 18.209c0-0.144-0.184-0.262-0.409-0.262s-0.336 0.118-0.247 0.262c0.089 0.144 0.273 0.262 0.409 0.262s0.247-0.118 0.247-0.262zM16.404 18.209c0-0.144-0.413-0.262-0.917-0.262s-0.917 0.118-0.917 0.262c0 0.144 0.413 0.262 0.917 0.262s0.917-0.118 0.917-0.262zM21.907 18.209c0.288-0.186 0.095-0.255-0.721-0.258-0.612-0.002-1.114 0.114-1.114 0.258 0 0.334 1.317 0.334 1.834 0zM16.595 17.003c-0.087-0.087-0.313-0.096-0.502-0.021-0.209 0.084-0.147 0.146 0.158 0.158 0.276 0.012 0.431-0.050 0.344-0.138zM18.575 15.563c0.149-1.115 0.023-1.808-0.331-1.808-0.282 0-0.506 1.584-0.344 2.43 0.186 0.973 0.499 0.684 0.675-0.622zM22.955 16.393c0-0.639-0.772-0.896-1.669-0.555-1.16 0.441-0.874 1.061 0.489 1.061 0.991 0 1.179-0.081 1.179-0.506zM25.979 15.572c0.241-0.39-0.038-0.602-0.54-0.41-0.232 0.089-0.348 0.28-0.258 0.425 0.212 0.344 0.58 0.336 0.798-0.016zM14.046 15.385c0-0.387-1.827-1.927-2.092-1.763-0.469 0.29-0.286 0.599 0.52 0.88 0.432 0.151 0.786 0.457 0.786 0.681s0.177 0.407 0.393 0.407c0.216 0 0.393-0.092 0.393-0.204zM22.706 14.994c-0.156-1.133-0.407-1.759-0.763-1.904-0.362-0.147-0.337-0.21 0.16-0.401 0.636-0.245 0.816-1.030 0.237-1.030-0.194 0-0.566 0.236-0.827 0.524s-0.692 0.524-0.958 0.524c-0.717 0-0.602 0.266 0.63 1.458 1.026 0.993 1.584 1.298 1.52 0.829zM25.977 13.028c-0.077-0.2-0.14-0.59-0.14-0.867s-0.177-0.503-0.393-0.503c-0.216 0-0.393 0.118-0.393 0.262s-0.177 0.262-0.393 0.262c-0.216 0-0.393-0.118-0.393-0.262s-0.118-0.262-0.262-0.262c-0.324 0-0.35 1.749-0.030 1.947 0.128 0.079 0.378-0.032 0.556-0.247 0.546-0.657 0.838-0.448 0.643 0.461l-0.182 0.852 0.563-0.64c0.31-0.352 0.5-0.804 0.423-1.004zM12.998 12.838c0-0.216-0.177-0.393-0.393-0.393s-0.393 0.177-0.393 0.393c0 0.216 0.177 0.393 0.393 0.393s0.393-0.177 0.393-0.393zM19.417 12.445c0.089-0.144 0.037-0.262-0.116-0.262s-0.277 0.118-0.277 0.262 0.052 0.262 0.116 0.262c0.064 0 0.188-0.118 0.277-0.262zM14.308 7.728c0-0.594-0.272-0.672-0.734-0.21s-0.384 0.734 0.21 0.734c0.349 0 0.524-0.175 0.524-0.524zM8.347 27.958c-2.341-0.095-2.533-0.578-0.229-0.578 0.919 0 2.057-0.077 2.53-0.172 0.615-0.123 0.807-0.086 0.673 0.13-0.339 0.549-1.054 0.698-2.974 0.62zM10.902 26.082c0-0.138 0.442-0.315 0.983-0.394s1.749-0.321 2.686-0.538c2.176-0.504 3.144-0.506 3.144-0.006 0 0.634-0.876 0.906-2.409 0.748-0.943-0.097-1.513-0.047-1.632 0.145-0.221 0.357-2.772 0.399-2.772 0.045zM24.964 25.371c-0.096-0.096-0.175-0.378-0.175-0.627s-0.175-0.519-0.389-0.602c-0.221-0.085-0.322-0.323-0.234-0.552 0.124-0.322-0.061-0.403-0.922-0.403-0.592 0-1.076-0.099-1.076-0.22 0-0.307 1.215-0.828 1.932-0.828 1.239 0 2.397 2.185 1.587 2.994-0.469 0.469-0.486 0.475-0.724 0.237zM18.762 24.55c0-0.266 2.737-0.838 4.012-0.838 0.532 0 0.967 0.118 0.967 0.262s-0.648 0.262-1.441 0.262c-0.793 0-1.441 0.118-1.441 0.262s-0.472 0.262-1.048 0.262c-0.576 0-1.048-0.094-1.048-0.21zM24.789 21.878c0-0.144 0.118-0.262 0.262-0.262s0.262 0.118 0.262 0.262c0 0.144-0.118 0.262-0.262 0.262s-0.262-0.118-0.262-0.262zM4.22 17.685c-0.089-0.144-0.037-0.262 0.116-0.262s0.277 0.118 0.277 0.262-0.052 0.262-0.116 0.262c-0.064 0-0.188-0.118-0.277-0.262zM18.132 8.092c-0.077-0.2-0.334-0.364-0.571-0.364-0.397 0-0.396-0.054 0.013-0.679 0.345-0.526 0.386-0.836 0.183-1.376-0.532-1.415-0.562-2.389-0.103-3.312 0.502-1.009 0.845-1.182 0.845-0.426 0 0.315 0.248 0.558 0.678 0.666 0.559 0.14 0.622 0.237 0.361 0.552-0.258 0.31-0.23 0.382 0.145 0.382 0.254 0 0.607-0.198 0.784-0.44 0.286-0.391 0.374-0.331 0.785 0.535 0.446 0.941 0.445 0.988-0.031 1.349-0.697 0.528-1.352 0.477-1.734-0.134-0.36-0.577-1.511-0.721-1.511-0.189 0 0.506 0.77 1.499 1.162 1.499 0.528 0 0.996 0.703 0.826 1.24-0.208 0.656-1.638 1.2-1.831 0.696zM20.602 7.194c0.157-0.294 0.21-0.795 0.117-1.114-0.158-0.544-0.131-0.538 0.444 0.099 0.337 0.373 0.937 0.759 1.333 0.857 0.679 0.168 1.026 0.692 0.459 0.692-0.144 0-0.262-0.104-0.262-0.231 0-0.406-1.339-0.522-1.49-0.129-0.076 0.198-0.307 0.361-0.513 0.361-0.295 0-0.314-0.113-0.089-0.534zM20.072 1.833c0-0.23-0.239-0.393-0.576-0.393-0.417 0-0.497-0.079-0.29-0.286s0.439-0.205 0.838 0.009c0.561 0.3 0.769 1.063 0.29 1.063-0.144 0-0.262-0.177-0.262-0.393z"></path>
</svg>
