<!-- Generated by IcoMoon.io -->
<svg version="1.1" xmlns="http://www.w3.org/2000/svg" width="32" height="32" viewBox="0 0 32 32">
<title>harvey</title>
<path d="M30.66 22.157c-0.065 0.275-0.017 0.558-0.241 0.758-0.17 0.151-0.383 0.26-0.604 0.361l-0.002 0.004c-0.3 0.243-0.729 0.3-1.094 0.413-0.66 0.206-1.327 0.394-1.987 0.598-1.282 0.394-2.582 0.7-3.833 1.195-1.075 0.423-2.145 0.949-3.256 1.263-0.516 0.145-1.033 0.291-1.538 0.467-0.109 0.040-0.614 0.197-1.044 0.352-0.069 0.040-0.138 0.082-0.208 0.119l-0.032 0.023-0.036 0.012c-0.069 0.035-0.14 0.073-0.212 0.107l-0.151 0.078-0.023 0.011-0.046 0.019-0.017 0.005-0.065 0.012-0.189 0.046-0.035-0.027c-0.61 0.034-1.262-0.66-1.826-0.98-1.385-0.79-2.776-1.517-4.227-2.177-1.549-0.706-3.085-1.425-4.608-2.177-0.459-0.229-0.903-0.488-1.362-0.717-0.080-0.030-0.16-0.059-0.233-0.082-0.174-0.053-0.343-0.109-0.513-0.17s-0.337-0.124-0.507-0.187l-0.115-0.035c-0.065-0.014-0.136-0.033-0.201-0.056l-0.113-0.061-0.039-0.043-0.027-0.050c-0.019-0.054-0.019-0.115-0.008-0.178 0.016-0.086 0.050-0.176 0.082-0.26 0-0.166 0.010-0.334 0.025-0.501-0.004-0.306-0.014-0.607-0.044-0.916-0.044-0.459-0.075-0.92-0.111-1.381-0.033-0.461-0.071-0.922-0.126-1.379-0.021-0.157-0.073-0.354-0.126-0.568-0.014-0.063-0.029-0.13-0.044-0.193l0.105 0.025c-0.044-0.159-0.079-0.325-0.105-0.494l-0.029-0.040c-0.126-0.193-0.107-0.383-0.010-0.532 0.002-0.096 0.006-0.191 0.016-0.275 0.015-0.121 0.147-0.17 0.224-0.105-0.042-0.115-0.079-0.234-0.13-0.352 0.109-0.096 0.241-0.19 0.369-0.277 0.058-0.054 0.392-0.417 0.522-0.561 0.13-0.147 0.316-0.388 0.461-0.555 0.071-0.084 0.149-0.166 0.228-0.245 0.677-0.664 1.413-1.289 2.081-1.966 0.163-0.178 0.329-0.354 0.495-0.53 0.055-0.062 0.111-0.123 0.166-0.188 0.989-1.173 2.033-2.311 3.034-3.478 0.247-0.289 0.494-0.65 0.763-1 0.134-0.173 0.272-0.346 0.419-0.503 0.147-0.159 0.402-0.41 0.47-0.488 0.065-0.078 0.165-0.222 0.176-0.235l0.010-0.011 0.025-0.021 0.013-0.007 0.030-0.012 0.014-0.004 0.042-0.007 0.004-0.002h0.061l0.014 0.002 0.055 0.011 0.101 0.036 0.094 0.050 0.124 0.067c0.082 0.042 0.161 0.079 0.247 0.113l0.174 0.062c0.086 0.019 0.17 0.040 0.255 0.061 0.141 0.034 0.279 0.071 0.419 0.111 0.069 0.011 0.141 0.023 0.21 0.033 0.084 0.014 0.165 0.030 0.249 0.044 0.195 0.033 0.385 0.067 0.561 0.101 0.126 0.021 0.241 0.044 0.348 0.063l0.069 0.012c0.278 0.052 0.473 0.090 0.518 0.096 0.362 0.067 0.725 0.128 1.090 0.182 0.727 0.112 1.456 0.206 2.184 0.302 0.365 0.050 0.729 0.098 1.094 0.153 0.371 0.055 0.735 0.115 1.1 0.18 0.727 0.132 1.444 0.285 2.152 0.463 0.354 0.088 0.708 0.183 1.061 0.281 0.215 0.042 0.43 0.082 0.643 0.127 0.214 0.044 0.488 0.086 0.488 0.086s0.411 0.103 0.532 0.132c0.063 0.014 0.124 0.027 0.186 0.039 0.063 0.016 0.126 0.027 0.191 0.044l0.056 0.016c0.044 0.014 0.109 0.036 0.178 0.059l0.209 0.065 0.069-0.007h0.038l0.033-0.002 0.118 0.012 0.033 0.016 0.232 0.193-0.012 0.254-0.007 0.041-0.006 0.011-0.015 0.021-0.010 0.009-0.017 0.011-0.029 0.007h-0.011c-0.186 0.184-0.375 0.369-0.561 0.553-0.189 0.184-0.376 0.369-0.562 0.553-0.371 0.369-0.74 0.741-1.1 1.125-0.258 0.371-0.522 0.734-0.803 1.092-0.323 0.409-0.652 0.815-0.977 1.224-0.094 0.12-0.189 0.237-0.285 0.356l-0.017 0.019-0.098 0.051-0.049 0.102c-0.584 0.629-1.113 1.325-1.609 1.976-0.545 0.719-1.278 1.276-1.742 2.045-0.038 0.061-0.077 0.121-0.117 0.18-0.62 0.764-1.241 1.536-1.846 2.307-0.285 0.363-0.721 0.828-0.794 1.3-0.065 0.414 0.248 1.018 0.352 1.489l0.008 0.053 0.008 0.061 0.006 0.062c-0.027 0.283-0.065 0.566-0.098 0.849-0.052 0.26-0.105 0.518-0.107 0.796-0.006 0.474-0.004 0.95 0.006 1.423-0.025 0.279-0.044 0.558-0.048 0.836-0.007 0.092-0.007 0.183-0.002 0.271l0.004 0.159v0.004l-0.012 0.099c-0.013 0.123-0.011 0.251 0.025 0.396l0.069 0.098 0.103 0.096c0.264 0.082 0.415-0.055 0.623-0.222 0.144-0.113 0.285-0.22 0.428-0.323 0.381-0.157 0.754-0.341 1.125-0.522 0.277-0.138 0.562-0.266 0.851-0.391 0.733-0.223 1.473-0.43 2.207-0.67 1.142-0.377 2.278-0.772 3.413-1.166 0.532-0.184 1.111-0.291 1.622-0.53 0.137-0.065 0.268-0.136 0.398-0.209 0.499-0.188 1.021-0.447 1.516-0.5 0.094-0.011 0.197-0.078 0.188-0.189-0.012-0.153-0.077-0.218-0.144-0.35-0.138-0.268-0.365-0.375-0.43-0.692-0.029-0.138-0.004-0.325 0.013-0.482l0.128 0.073c0.107 0.069 0.268 0.118 0.402 0.189 0.163 0.063 0.326 0.13 0.49 0.193 0.417 0.163 0.985 0.287 1.331 0.574l0.008 0.007c0.090 0.014 0.176 0.033 0.251 0.063 0.061 0.026 0.101 0.109 0.086 0.172z"></path>
<path d="M24.534 18.518c0.845-0.26 1.59-0.635 2.353-1.016l0.099-0.048c0.146 0.033 0.385 0.102 0.53 0.077-0.124 0.275-0.224 0.559-0.302 0.849-0.17 0.183-0.364 0.419-0.343 0.662v0.009l-0.027 0.141c-0.027 0.379 0 0.775 0.021 1.167-0.019 0.124-0.039 0.248-0.075 0.366-0.042 0.147-0.038 0.308-0.013 0.474-0.006 0.118-0.004 0.232 0.011 0.343-0.061 0.201-0.143 0.39-0.249 0.564l-0.027 0.018c-0.067 0.033-0.164 0.040-0.237 0.072-0.111 0.050-0.204 0.132-0.306 0.197-0.314 0.073-0.626 0.147-0.924 0.235-0.865 0.258-1.789 0.371-2.632 0.712-0.367 0.147-0.729 0.308-1.090 0.478-0.055 0.009-0.109 0.019-0.161 0.030l-0.061-0.030c-0.071 0.027-0.143 0.059-0.212 0.086-0.098 0.023-0.176 0.042-0.222 0.056l-0.111 0.036c-0.069 0.019-0.143 0.042-0.214 0.069-0.159 0.033-0.318 0.067-0.473 0.115l-0.032 0.103-0.084 0.033c-0.176 0.072-0.352 0.143-0.524 0.22-0.272 0.075-0.547 0.151-0.788 0.281l0.025 0.063c0.135-0.020 0.266-0.055 0.396-0.099-0.084 0.044-0.166 0.088-0.247 0.132-0.157 0.063-0.31 0.138-0.467 0.251-0.181 0.088-0.365 0.168-0.553 0.226l-0.101-0.032c-0.264 0.056-0.076-0.723-0.008-1.165l0.019-0.13c0.006-0.061 0.006-0.109 0-0.138l-0.015-0.023-0.059-0.078 0.007-0.069c0.004-0.243-0.149-0.289-0.011-0.507l0.084-0.115c0.086-0.105 0.164-0.184 0.183-0.342l-0.032-0.046c0.004-0.099-0.069-0.195-0.143-0.252s-0.123-0.104-0.167-0.17c-0.008-0.274-0.038-0.57-0.086-0.863-0.012-0.119-0.033-0.235-0.065-0.335l-0.033-0.14c0.032-0.229 0.090-0.447 0.167-0.66 0.122-0.166 0.231-0.331 0.329-0.453 0.228-0.281 0.457-0.564 0.685-0.846 0.677-0.675 1.243-1.352 1.869-2.148 0.482-0.614 0.928-1.316 1.442-1.945 0.115 0.050 0.231 0.098 0.346 0.151 0.105 0.049 0.212 0.096 0.319 0.143 0.425 0.189 0.857 0.369 1.306 0.493 0.209 0.057 0.419 0.115 0.63 0.174 0.589 0.159 1.178 0.326 1.758 0.517-0.708 0.558-1.45 1.031-2.284 1.465-0.072 0.035-0.143 0.073-0.214 0.111-0.354 0.125-0.706 0.262-1.058 0.44-0.117 0.061-0.235 0.123-0.352 0.191-0.079 0.036-0.157 0.072-0.237 0.107-0.111 0.044-0.223 0.086-0.334 0.13l-0.038 0.048c-0.101 0.048-0.201 0.098-0.302 0.151l-0.015 0.004-0.067 0.038c-0.18 0.094-0.356 0.191-0.526 0.291l-0.117 0.042-0.040 0.050v0.004l-0.067 0.040-0.050 0.078c-0.294 0.155-0.618 0.327-0.618 0.331l-0.019 0.005-0.002 0.014-0.079 0.038 0.008 0.059c0.266 0.092 0.582-0.18 0.805-0.294l0.027-0.014h0.021c0.498-0.137 0.995-0.281 1.492-0.43 0.712-0.122 1.433-0.376 2.131-0.652 0.151-0.046 0.302-0.092 0.451-0.138z"></path>
</svg>
