<!-- Generated by IcoMoon.io -->
<svg version="1.1" xmlns="http://www.w3.org/2000/svg" width="32" height="32" viewBox="0 0 32 32">
<title>hasturs_gaze</title>
<path d="M15.063 29.912c-0.453-0.124-1.13-0.543-1.604-0.991-0.178-0.169-0.5-0.567-0.714-0.885-0.697-1.033-1.029-2.114-0.985-3.206 0.022-0.536 0.043-0.623 0.256-1.043 0.241-0.474 0.722-1.076 1.451-1.816 0.419-0.425 0.427-0.43 1.205-0.691 0.724-0.243 0.84-0.265 1.541-0.287 0.645-0.021 0.878-0.001 1.567 0.136 0.445 0.088 0.92 0.214 1.056 0.278 0.292 0.138 1.021 0.922 1.425 1.531 0.154 0.232 0.433 0.784 0.62 1.227 0.299 0.707 0.347 0.88 0.399 1.416 0.12 1.246-0.253 2.194-1.275 3.239-0.525 0.537-0.602 0.593-0.934 0.682-0.199 0.053-0.498 0.137-0.666 0.185-0.572 0.166-1.323 0.272-2.136 0.303-0.663 0.025-0.886 0.010-1.205-0.077zM17.371 28.325c0.777-0.119 1.392-0.582 1.737-1.31 0.105-0.221 0.265-0.487 0.356-0.592 0.266-0.306 0.329-0.576 0.328-1.406l-0.001-0.753-0.239-0.473c-0.258-0.511-0.427-0.686-0.887-0.919-0.163-0.083-0.424-0.241-0.579-0.351-0.493-0.35-0.655-0.406-1.27-0.44-0.76-0.042-1.212 0.052-1.503 0.311-0.121 0.108-0.364 0.273-0.54 0.368-0.675 0.363-1.294 1.231-1.479 2.077-0.047 0.215-0.132 0.514-0.187 0.663-0.11 0.294-0.090 0.616 0.056 0.898 0.046 0.089 0.289 0.357 0.54 0.595 0.523 0.497 1.434 0.996 2.205 1.207 0.753 0.207 0.868 0.217 1.465 0.126zM5.703 25.226c-0.227-0.144-0.426-0.275-0.443-0.291-0.052-0.052 0.423-1.172 0.694-1.635 0.173-0.297 0.745-1.653 0.799-1.898 0.033-0.149 0.128-0.373 0.21-0.498 0.131-0.199 0.688-1.432 0.688-1.523 0-0.174 1.259-1.365 1.889-1.788 0.552-0.371 1.033-0.715 1.655-1.187 0.912-0.691 0.952-0.715 1.335-0.796 0.401-0.085 1.040-0.264 2.049-0.574l0.753-0.232 1.145 0.012c0.921 0.009 1.235 0.035 1.605 0.131 0.619 0.161 2.586 0.966 3.349 1.37 0.539 0.286 2.557 1.615 3.421 2.253 0.357 0.264 0.515 0.553 1.27 2.317 0.145 0.339 0.315 0.624 0.456 0.765 0.186 0.186 0.252 0.324 0.378 0.786 0.084 0.308 0.26 0.777 0.39 1.042 0.322 0.655 0.427 0.923 0.427 1.088 0 0.148-0.466 0.676-0.71 0.804-0.133 0.070-0.148 0.051-0.411-0.519-0.549-1.186-1.359-2.734-1.617-3.088-0.11-0.151-0.272-0.41-0.36-0.576s-0.334-0.545-0.546-0.844c-0.213-0.298-0.463-0.674-0.556-0.835-0.631-1.095-1.644-2.269-2.257-2.615-0.283-0.16-0.926-0.316-1.256-0.305-0.050 0.002-0.389-0.034-0.753-0.079-0.412-0.051-1.279-0.081-2.29-0.081-1.529 0.001-1.681 0.011-2.522 0.17-1.042 0.197-1.751 0.468-2.259 0.862-0.187 0.145-0.477 0.354-0.643 0.464s-0.465 0.348-0.663 0.529c-0.198 0.181-0.514 0.453-0.703 0.605s-0.527 0.479-0.753 0.728c-0.497 0.549-0.721 0.905-1.133 1.805-0.087 0.19-0.26 0.502-0.385 0.693-0.657 1.006-0.799 1.245-1.107 1.854-0.184 0.365-0.407 0.819-0.495 1.009s-0.179 0.344-0.201 0.341c-0.022-0.003-0.226-0.123-0.453-0.267zM5.702 17.757c-0.021-0.055 0.018-0.116 0.099-0.158 0.073-0.038 0.212-0.14 0.308-0.227 0.199-0.18 0.158-0.083-0.106 0.248-0.197 0.247-0.25 0.271-0.301 0.136zM25.572 16.828c-0.441-0.2-0.67-0.638-0.608-1.163 0.029-0.248 0.088-0.357 0.354-0.661 0.175-0.2 0.441-0.476 0.59-0.613s0.449-0.426 0.667-0.641c0.218-0.215 0.733-0.703 1.145-1.085 0.997-0.923 1.203-1.141 1.666-1.765 0.386-0.521 0.395-0.528 0.515-0.422 0.067 0.060 0.171 0.216 0.23 0.348l0.108 0.24-0.174 0.152c-0.161 0.141-0.332 0.433-0.898 1.538-0.338 0.659-2.054 3.202-2.511 3.72-0.369 0.419-0.434 0.467-0.625 0.466-0.117-0.001-0.324-0.052-0.459-0.113zM6.628 16.626c-0.179-0.092-0.286-0.194-0.329-0.316-0.117-0.333-0.211-0.44-0.627-0.717-0.228-0.151-0.618-0.499-0.868-0.773s-0.569-0.579-0.711-0.679c-0.142-0.099-0.467-0.384-0.724-0.633s-0.603-0.533-0.77-0.633c-0.312-0.186-0.368-0.28-0.37-0.62-0.001-0.195 0.127-0.57 0.242-0.708 0.077-0.093 0.89 0.189 1.393 0.484 0.197 0.116 0.369 0.21 0.382 0.21s0.194 0.105 0.404 0.232c0.209 0.128 0.708 0.426 1.108 0.662 1.091 0.644 1.182 0.72 1.314 1.099 0.063 0.18 0.161 0.408 0.219 0.507 0.064 0.111 0.116 0.356 0.133 0.633 0.028 0.46 0.135 0.757 0.364 1.008l0.123 0.134-0.265 0.12c-0.35 0.159-0.69 0.155-1.018-0.012zM15.056 13.653l-0.218-0.090 0.029-0.675c0.016-0.371-0.005-1.054-0.046-1.518s-0.1-1.128-0.13-1.476c-0.077-0.879-0.131-5.419-0.067-5.665 0.029-0.111 0.087-0.213 0.13-0.227s0.232 0.133 0.421 0.327c0.255 0.263 0.38 0.454 0.486 0.745 0.079 0.215 0.247 0.639 0.374 0.941l0.231 0.55 0.003 0.987c0.002 0.543 0.039 1.339 0.083 1.769 0.075 0.737 0.071 0.841-0.061 1.793-0.077 0.556-0.17 1.12-0.206 1.254s-0.092 0.478-0.125 0.765c-0.033 0.287-0.092 0.543-0.133 0.569-0.119 0.075-0.538 0.049-0.773-0.048z"></path>
</svg>
