<!-- Generated by IcoMoon.io -->
<svg version="1.1" xmlns="http://www.w3.org/2000/svg" width="31" height="32" viewBox="0 0 31 32">
<title>hauntings</title>
<path d="M17.908 26.723c0.048-0.009 0.093-0.012 0.13-0.012-0.045-0.009-0.089-0.012-0.13 0.012z"></path>
<path d="M18.111 26.727c-0.018-0.012-0.045-0.015-0.073-0.015 0.024 0.003 0.052 0.012 0.073 0.015z"></path>
<path d="M27.208 20.974c-0.021-0.11-0.021-0.224-0.036-0.337-0.061-0.399-0.162-0.761-0.403-1.12-0.223-0.333-0.487-0.638-0.818-0.916-0.211-0.175-0.41-0.357-0.63-0.528-0.245-0.183-0.435-0.379-0.7-0.542-0.207-0.122-0.419-0.211-0.634-0.309-0.269-0.126-0.558-0.228-0.826-0.346-0.085-0.041-0.151-0.081-0.245-0.109-0.009-0.003-0.015-0.003-0.021-0.003-0.036 0.009-0.078 0.015-0.119 0.015-0.13 0.012-0.244-0.041-0.361-0.061-0.134-0.024-0.273-0.032-0.399-0.074-0.134-0.036-0.273-0.085-0.407-0.13-0.134-0.041-0.265-0.093-0.395-0.146 0.003 0.009 0.003 0.021 0.009 0.029-0.521-0.065-1.050-0.081-1.575-0.143-0.109-0.012-0.223-0.024-0.342-0.021-0.191 0.012-0.35-0.021-0.545-0.041-0.237-0.024-0.472-0.073-0.708-0.114-0.134-0.021-0.276-0.042-0.415-0.066-0.036-0.003-0.053 0-0.081-0.021-0.066-0.040-0.089-0.109-0.164-0.158-0.126-0.073-0.28-0.118-0.394-0.199 0.056-0.134 0.114-0.273 0.15-0.407 0.069-0.248 0.061-0.504 0.134-0.745 0.077-0.239 0.167-0.48 0.239-0.724 0.029-0.106 0.057-0.22 0.070-0.329 0.003-0.049 0-0.11 0.021-0.159 0.033-0.094 0.081-0.179 0.106-0.28 0.018-0.089 0.036-0.188 0.057-0.286 0.003-0.024 0.012-0.049 0.021-0.077 0.094 0.057 0.196 0.118 0.297 0.175 0.334 0.199 0.717 0.322 1.042 0.533 0.159 0.097 0.301 0.269 0.427 0.415 0.123 0.138 0.196 0.305 0.302 0.463 0.093 0.147 0.207 0.249 0.333 0.367 0.19 0.188 0.354 0.419 0.517 0.634 0.032 0.045 0.061 0.089 0.081 0.134 0.045-0.015 0.089-0.036 0.134-0.049 0.069-0.021 0.138-0.030 0.211-0.036 0.183-0.030 0.363-0.073 0.538-0.146 0.154-0.066 0.35-0.155 0.525-0.253-0.003-0.041-0.009-0.077-0.018-0.114-0.021-0.102-0.032-0.207-0.049-0.313-0.018-0.077-0.036-0.244-0.089-0.317-0.036-0.045-0.098-0.074-0.138-0.11-0.069-0.069-0.118-0.154-0.171-0.235-0.049-0.078-0.089-0.164-0.167-0.216-0.065-0.057-0.143-0.074-0.211-0.123-0.122-0.081-0.154-0.13-0.318-0.146-0.146-0.009-0.288 0.015-0.435 0.015-0.101 0.003-0.175-0.012-0.211-0.114-0.021-0.066-0.029-0.134-0.053-0.199-0.048-0.147-0.105-0.277-0.216-0.383-0.113-0.118-0.223-0.22-0.321-0.353-0.081-0.127-0.151-0.257-0.232-0.383-0.113-0.154-0.179-0.325-0.305-0.472-0.049-0.056-0.073-0.118-0.122-0.162-0.065-0.066-0.081-0.179-0.151-0.237-0.081-0.065-0.178 0.057-0.276 0.053-0.089 0-0.2-0.081-0.285-0.118-0.109-0.057-0.223-0.106-0.342-0.138-0.109-0.036-0.224-0.060-0.337-0.089-0.012-0.077-0.021-0.154-0.032-0.231-0.029-0.168-0.057-0.326-0.085-0.497-0.012-0.085 0-0.171-0.009-0.26-0.018-0.122-0.049-0.232-0.049-0.358 0.003-0.143-0.049-0.276-0.098-0.41-0.041-0.119-0.105-0.241-0.154-0.358-0.045-0.122-0.094-0.248-0.155-0.363-0.097-0.183-0.211-0.37-0.333-0.545-0.094-0.134-0.191-0.269-0.305-0.386-0.012-0.018-0.049-0.074-0.081-0.115 0.053 0.018 0-0.024-0.032-0.056-0.053-0.070-0.077-0.115-0.155-0.066-0.056 0.037-0.085 0.085-0.134 0.126-0.044 0.036-0.093 0.081-0.142 0.102-0.098 0.041-0.269 0.041-0.334 0.13-0.048 0.057 0.009 0.073 0.053 0.109 0.018 0.012 0.066 0.045 0.077 0.066 0.021 0.024 0.012 0.081 0.024 0.114 0.032 0.077 0.065 0.151 0.094 0.232 0.041 0.13 0.15 0.22 0.191 0.354 0.053 0.154 0.123 0.317 0.196 0.468 0.049 0.081 0.085 0.154 0.098 0.252 0.015 0.089 0.024 0.183 0.036 0.269 0.032 0.151 0.105 0.281 0.138 0.427 0.041 0.183 0.048 0.346 0.048 0.529 0 0.085 0 0.162-0.003 0.239h-0.045c-0.057-0.003-0.102 0-0.151-0.024-0.171-0.066-0.313-0.167-0.5-0.199-0.22-0.045-0.452 0.052-0.676 0.021-0.143-0.018-0.235-0.081-0.37-0.118-0.119-0.032-0.301 0.015-0.428 0.032-0.219 0.030-0.382 0.155-0.585 0.228-0.114 0.045-0.232 0.060-0.342 0.13-0.102 0.065-0.192 0.146-0.301 0.195-0.162 0.078-0.33 0.13-0.508 0.175-0.416 0.115-0.781 0.395-1.107 0.676-0.143 0.118-0.273 0.256-0.37 0.41-0.138 0.216-0.338 0.391-0.521 0.566-0.127 0.122-0.26 0.211-0.367 0.363-0.126 0.171-0.269 0.342-0.346 0.553-0.053 0.138-0.126 0.273-0.188 0.412 0.119 0.030 0.241 0.032 0.391 0.003 0.204-0.037 0.391 0.032 0.557 0.105 0.192 0.081 0.358 0.175 0.558 0.237 0.006-0.018 0.012-0.030 0.021-0.045 0.228-0.512 0.574-0.936 0.932-1.351 0.012-0.073 0.065-0.122 0.134-0.155 0.030-0.032 0.048-0.060 0.077-0.085-0.024 0.024-0.045 0.053-0.066 0.078 0.070-0.033 0.155-0.061 0.2-0.094 0.056-0.036 0.094-0.122 0.158-0.159 0.057-0.032 0.138-0.060 0.192-0.069 0.097-0.012 0.175-0.041 0.272-0.073 0.143-0.053 0.29-0.070 0.435-0.126 0.115-0.045 0.224-0.049 0.354-0.061 0.196-0.024 0.391-0.053 0.591-0.069 0.158-0.018 0.301 0.012 0.459 0.032 0.183 0.015 0.363-0.003 0.537 0.012 0.207 0.021 0.41 0.077 0.61 0.122-0.049 0.297-0.049 0.598-0.053 0.895-0.012 0.326-0.224 0.521-0.386 0.769-0.053 0.078-0.115 0.143-0.179 0.216-0.036 0.053-0.066 0.098-0.081 0.151-0.009 0.045-0.012 0.081-0.030 0.118-0.030 0.077-0.069 0.151-0.105 0.224-0.077 0.155-0.143 0.313-0.216 0.472-0.021 0.021-0.041 0.049-0.061 0.070-0.057 0.045-0.134 0.085-0.207 0.114-0.134 0.045-0.313 0.081-0.456 0.102-0.22 0.024-0.427 0.060-0.651 0.085-0.122 0.012-0.248 0.024-0.378 0.015-0.297-0.012-0.585-0.134-0.858-0.224-0.151-0.044-0.333-0.052-0.497-0.069-0.268-0.024-0.541-0.032-0.809-0.021-0.098 0-0.199-0.003-0.301-0.012 0.003-0.009 0.009-0.012 0.012-0.021h-0.012c-0.077 0.009-0.162 0.018-0.248 0.012-0.106-0.009-0.188-0.073-0.29-0.089-0.089-0.018-0.187-0.009-0.276-0.024-0.277-0.041-0.602-0.13-0.815-0.277-0.118-0.085-0.276-0.114-0.402-0.188-0.094-0.041-0.192-0.085-0.294-0.13-0.219-0.101-0.447-0.195-0.654-0.309-0.298-0.158-0.48-0.415-0.663-0.654-0.241-0.305-0.529-0.57-0.712-0.904-0.138-0.256-0.235-0.577-0.265-0.858-0.024-0.28-0.045-0.59-0.021-0.867 0.024-0.248 0.021-0.557 0.179-0.777 0.052-0.069 0.122-0.122 0.179-0.183 0.041-0.045 0.077-0.089 0.113-0.134 0.147-0.203 0.301-0.398 0.468-0.594 0.049-0.053 0.094-0.109 0.134-0.167 0.073-0.073 0.147-0.143 0.228-0.207 0.069-0.070 0.13-0.138 0.179-0.22 0.118-0.188 0.216-0.386 0.35-0.57 0.113-0.151 0.231-0.301 0.325-0.468 0.024-0.049 0.053-0.082 0.098-0.123 0.122-0.109 0.239-0.223 0.37-0.325 0.123-0.102 0.232-0.196 0.33-0.326 0.094-0.122 0.207-0.167 0.329-0.26 0.126-0.097 0.293-0.167 0.448-0.211 0.134-0.041 0.224-0.069 0.293-0.203 0.036-0.081 0.036-0.175 0.057-0.269 0.012-0.069 0.056-0.134 0.069-0.191 0.003-0.037-0.012-0.074 0-0.11 0.003-0.041 0.030-0.057 0.009-0.098-0.036-0.061-0.143-0.052-0.192-0.052-0.006-0.021-0.015-0.037-0.021-0.057-0.032-0.003-0.061 0.012-0.089 0.009-0.032-0.003-0.036-0.024-0.069-0.033-0.030-0.003-0.057 0.012-0.087 0.012-0.036-0.003-0.056-0.029-0.097-0.024-0.081 0.009-0.147 0.053-0.211 0.089-0.033 0.015-0.082 0.029-0.11 0.052-0.024 0.021-0.024 0.037-0.045 0.057-0.065 0.049-0.188 0.073-0.265 0.102-0.081 0.036-0.167 0.073-0.252 0.109-0.325 0.151-0.634 0.309-0.931 0.497-0.213 0.13-0.432 0.239-0.64 0.37-0.199 0.138-0.399 0.277-0.615 0.403-0.191 0.118-0.37 0.265-0.541 0.399-0.143 0.122-0.241 0.244-0.35 0.386-0.11 0.143-0.241 0.277-0.358 0.415-0.114 0.143-0.179 0.281-0.26 0.431-0.085 0.155-0.171 0.281-0.273 0.42-0.044 0.065-0.081 0.13-0.126 0.195-0.089 0.13-0.199 0.241-0.276 0.371-0.196 0.35-0.375 0.748-0.412 1.131-0.015 0.182-0.024 0.366-0.029 0.549-0.003 0.106 0.029 0.192 0.041 0.293 0.021 0.106 0.021 0.204 0.032 0.309 0.053 0.362 0.151 0.692 0.375 1.018 0.207 0.309 0.451 0.581 0.748 0.833 0.192 0.168 0.379 0.33 0.582 0.489 0.22 0.167 0.399 0.346 0.643 0.493 0.188 0.109 0.378 0.195 0.582 0.284 0.065 0.033 0.134 0.061 0.207 0.089 0.024 0.009 0.053 0.021 0.073 0.024 0.207 0.065 0.416 0.109 0.615 0.179 0.252 0.081 0.521 0.109 0.765 0.211 0.102 0.040 0.2 0.094 0.309 0.118 0.094 0.021 0.179 0.032 0.269 0.073 0.115 0.053 0.183 0.094 0.313 0.106 0.105 0.009 0.199 0.021 0.305 0.041 0.207 0.053 0.391 0.049 0.602 0.049 0.021 0 0.049 0 0.073 0.003 0.003-0.021 0.009-0.033 0.009-0.049 0.143 0.015 0.286 0.024 0.423 0.045 0.106 0.009 0.204 0.021 0.309 0.015 0.179-0.012 0.326 0.021 0.501 0.037 0.256 0.030 0.545 0.142 0.809 0.097 0.081-0.012 0.155-0.041 0.241-0.036 0.244 0.012 0.455 0.216 0.602 0.35 0.094 0.098 0.146 0.216 0.231 0.318 0.041 0.041 0.102 0.077 0.134 0.13 0.041 0.053 0.053 0.122 0.085 0.183 0.024 0.048 0.049 0.105 0.077 0.154 0 0.003-0.003 0.003-0.003 0.009-0.037 0.094-0.053 0.195-0.070 0.293-0.012 0.118 0 0.232-0.003 0.35-0.003 0.143-0.056 0.256-0.085 0.395-0.049 0.192-0.056 0.37-0.056 0.574-0.003 0.224 0.045 0.44 0.048 0.662 0.009 0.134 0.049 0.265 0.045 0.403-0.006 0.032-0.012 0.070-0.021 0.098-0.009 0.024-0.041 0.053-0.045 0.077-0.024 0.081 0.036 0.244 0.049 0.33 0.032 0.252 0.041 0.508 0.085 0.76-0.196-0.012-0.378-0.057-0.557-0.138-0.237-0.118-0.431-0.297-0.635-0.468-0.199-0.158-0.399-0.248-0.532-0.484-0.049-0.081-0.085-0.175-0.138-0.256-0.074-0.114-0.175-0.195-0.256-0.293-0.159-0.196-0.241-0.44-0.375-0.651-0.069-0.106-0.142-0.204-0.224-0.293-0.138-0.159-0.244-0.26-0.337-0.465-0.081-0.187-0.158-0.362-0.265-0.541-0.15-0.256-0.162-0.574-0.138-0.887-0.207 0.057-0.419 0.122-0.643 0.094-0.171-0.029-0.333-0.066-0.504-0.069-0.179-0.012-0.358 0.021-0.537 0 0.009 0.069 0.018 0.133 0.024 0.203 0.021 0.195 0.077 0.374 0.094 0.57 0.015 0.13 0.065 0.239 0.077 0.37 0.015 0.151 0.032 0.301 0.049 0.452 0.006 0.138 0.030 0.406 0.224 0.419 0.056 0.003 0.13-0.061 0.191-0.024 0.070 0.041 0.057 0.175 0.066 0.244 0.045 0.382 0.158 0.798 0.346 1.144 0.093 0.175 0.171 0.357 0.268 0.532 0.057 0.102 0.151 0.179 0.216 0.285 0.049 0.081 0.106 0.216 0.213 0.252 0.030 0.012 0.073 0.003 0.101 0.018 0.053 0.024 0.066 0.052 0.13 0.065 0.183 0.041 0.256 0.118 0.367 0.26 0.143 0.183 0.362 0.273 0.566 0.367 0.244 0.122 0.496 0.235 0.749 0.346 0.024 0.009 0.052 0.021 0.073 0.032 0.427 0.188 0.846 0.354 1.294 0.452 0.244 0.052 0.48 0.097 0.724 0.142 0.049 0.098 0.094 0.196 0.138 0.301 0.077 0.237 0.167 0.44 0.297 0.651 0.224 0.375 0.371 0.79 0.595 1.156 0.114 0.186 0.239 0.358 0.342 0.553 0.049 0.11 0.089 0.199 0.162 0.288 0.073 0.094 0.106 0.175 0.138 0.294 0.012 0.052 0.040 0.138 0.045 0.199 0.003 0.012 0 0.073 0.009 0.081 0.036 0.036 0.154-0.015 0.191-0.032 0.074-0.018 0.13-0.057 0.2-0.077 0.061-0.018 0.081-0.033 0.134-0.061 0.052-0.029 0.114-0.036 0.174-0.061 0.106-0.049 0.2-0.098 0.309-0.127 0.021-0.003 0.171-0.036 0.175-0.045 0.018-0.036-0.029-0.085-0.045-0.114-0.065-0.105-0.109-0.224-0.171-0.333-0.118-0.216-0.28-0.399-0.44-0.574-0.093-0.098-0.203-0.188-0.26-0.309-0.097-0.188-0.142-0.41-0.216-0.615-0.134-0.342-0.28-0.679-0.431-1.021 0.053-0.003 0.11-0.003 0.167-0.009 0.595-0.036 1.217 0.069 1.799-0.073 0.318-0.074 0.615-0.232 0.928-0.338 0.11-0.036 0.239-0.056 0.342-0.118 0.105-0.061 0.175-0.15 0.293-0.195 0.114-0.045 0.192-0.102 0.293-0.164 0.040-0.029 0.098-0.065 0.147-0.065 0.053 0 0.089 0.036 0.134 0.041 0.077 0.009 0.126-0.057 0.183-0.102 0.081-0.065 0.158-0.118 0.239-0.191 0.207-0.204 0.416-0.371 0.679-0.497 0.179-0.081 0.285-0.297 0.403-0.44 0.106-0.126 0.232-0.235 0.33-0.366 0.065-0.085 0.118-0.183 0.154-0.285 0.018-0.052 0.024-0.109 0.045-0.158 0.045-0.122 0.126-0.224 0.179-0.35 0.021-0.053 0.045-0.114 0.069-0.175-0.029-0.049-0.061-0.094-0.098-0.143-0.048-0.065-0.105-0.122-0.15-0.191-0.012-0.021-0.024-0.041-0.045-0.057-0.061-0.061-0.162-0.102-0.237-0.154-0.085-0.061-0.175-0.126-0.26-0.192-0.114-0.081-0.231-0.162-0.366-0.224-0.11-0.053-0.196-0.094-0.281-0.167-0.045-0.045-0.085-0.085-0.13-0.126-0.085 0.126-0.162 0.252-0.22 0.399-0.105 0.256-0.187 0.492-0.342 0.724-0.105 0.158-0.22 0.314-0.321 0.484-0.106 0.171-0.164 0.37-0.273 0.541-0.147 0.228-0.468 0.444-0.704 0.546-0.073 0.029-0.15 0.041-0.228 0.065-0.15 0.038-0.272 0.11-0.41 0.179-0.228 0.115-0.512 0.155-0.761 0.196-0.321 0.061-0.626 0.053-0.952 0.024-0.097-0.012-0.195-0.003-0.28-0.041-0.094-0.032-0.167-0.102-0.252-0.143-0.115-0.056-0.253-0.085-0.375-0.122s-0.22-0.056-0.346-0.049c-0.041 0.003-0.077 0.009-0.118 0.012-0.009-0.239 0-0.484-0.049-0.728-0.030-0.118-0.065-0.237-0.081-0.358-0.018-0.138-0.003-0.284-0.003-0.423 0-0.237 0-0.488 0.061-0.717 0.056-0.216 0.158-0.41 0.231-0.618 0.078-0.208 0.098-0.431 0.171-0.64 0.009-0.003 0.018-0.009 0.030-0.012 0.211-0.066 0.419-0.070 0.615-0.175 0.158-0.089 0.333-0.26 0.532-0.301 0.094-0.024 0.159-0.024 0.249-0.061 0.052-0.021 0.105-0.049 0.162-0.057 0.098-0.021 0.186 0.021 0.28 0.024 0.138 0.009 0.281-0.009 0.42-0.012 0.126 0 0.244-0.003 0.366 0.021 0.081 0.012 0.167 0.029 0.249 0.036 0.069 0 0.138-0.012 0.199 0.003 0.073 0.012 0.109 0.052 0.171 0.081 0.158 0.065 0.468 0.024 0.651 0.024 0.22-0.012 0.44 0.018 0.659 0.012 0.13 0 0.256-0.024 0.387 0 0.224 0.037 0.419 0.134 0.619 0.232 0.089 0 0.182 0.012 0.272 0.024 0.074 0.021 0.196 0.032 0.269 0.057 0.183 0.061 0.29 0.199 0.407 0.312 0.061 0.057 0.122 0.11 0.207 0.151 0.036 0.021 0.085 0.029 0.122 0.049 0.066 0.032 0.118 0.077 0.179 0.118 0-0.021 0-0.032 0.003-0.049 0.154 0.066 0.314 0.134 0.455 0.211 0.151 0.085 0.273 0.196 0.383 0.309 0.056 0.032 0.109 0.070 0.162 0.106 0.134 0.105 0.228 0.284 0.288 0.435 0.232 0.284 0.493 0.545 0.663 0.862 0.151 0.277 0.26 0.634 0.288 0.944 0.029 0.309 0.049 0.643 0.018 0.956-0.024 0.265-0.021 0.606-0.199 0.847-0.053 0.073-0.13 0.138-0.196 0.203-0.045 0.049-0.085 0.094-0.126 0.15-0.162 0.224-0.322 0.435-0.508 0.648-0.057 0.065-0.106 0.122-0.151 0.187-0.077 0.081-0.162 0.155-0.248 0.228-0.077 0.073-0.138 0.151-0.2 0.239-0.13 0.213-0.231 0.42-0.382 0.627-0.146 0.192-0.28 0.399-0.423 0.59-0.162 0.22-0.382 0.395-0.594 0.566-0.081 0.070-0.155 0.123-0.22 0.2-0.057 0.073-0.151 0.138-0.224 0.195-0.118 0.089-0.196 0.26-0.216 0.407-0.012 0.065-0.029 0.207 0.012 0.269 0.032 0.045 0.105 0.056 0.142 0.094 0.012 0.006 0.024 0.041 0.036 0.048 0.038 0.029 0.102 0.024 0.143 0.042 0.102 0.052 0.134 0.085 0.252 0.032 0.057-0.021 0.106-0.041 0.168-0.053 0.097-0.029 0.171-0.098 0.26-0.143 0.036-0.024 0.077-0.032 0.11-0.056 0.045-0.029 0.077-0.094 0.122-0.119 0.036-0.015 0.089-0.012 0.134-0.015 0.126-0.018 0.224 0.036 0.35-0.029 0.118-0.061 0.232-0.15 0.342-0.22 0.115-0.073 0.228-0.142 0.342-0.216 0.224-0.146 0.44-0.301 0.676-0.443 0.207-0.127 0.406-0.285 0.594-0.435 0.154-0.13 0.265-0.273 0.382-0.424 0.122-0.158 0.265-0.305 0.391-0.463 0.126-0.154 0.2-0.305 0.29-0.476 0.093-0.158 0.182-0.301 0.301-0.452 0.049-0.073 0.085-0.146 0.134-0.22 0.097-0.138 0.219-0.256 0.305-0.402 0.219-0.387 0.415-0.822 0.451-1.246 0.021-0.199 0.032-0.398 0.036-0.598 0.003-0.114-0.029-0.216-0.045-0.325z"></path>
<path d="M12.427 4.561c0.045-0.077 0.248-0.073 0.329-0.094 0.216-0.049 0.427-0.114 0.635-0.167 0.207-0.057 0.423-0.085 0.634-0.106 0.26-0.032 0.493-0.15 0.757-0.182 0.199-0.030 0.402-0.057 0.602-0.078 0.109-0.012 0.305-0.052 0.415-0.015 0.049 0.024 0.049 0.053 0.085 0.094 0.074 0.093 0.204 0.122 0.29 0.203 0.077 0.077 0.154 0.269 0.26 0.28 0.077 0.012 0.146-0.029 0.227-0.003 0.089 0.024 0.208 0.097 0.265 0.174 0.057 0.087 0 0.164-0.065 0.224-0.151 0.134-0.367 0.216-0.554 0.29-0.312 0.122-0.594 0.101-0.919 0.049-0.509-0.078-1.018-0.053-1.53 0-0.286 0.029-0.574 0.073-0.858 0.097-0.265 0.021-0.505-0.134-0.774-0.045-0.178 0.053-0.329 0.159-0.487 0.253-0.053 0.024-0.098 0.056-0.13 0.003-0.024-0.041-0.018-0.182-0.021-0.223-0.012-0.089-0.056-0.245-0.041-0.33 0.018-0.089 0.115-0.118 0.183-0.154 0.15-0.077 0.342-0.155 0.508-0.183 0.155-0.024 0.29-0.098 0.188-0.085z"></path>
<path d="M17.675 4.719c-0.029 0.134-0.009 0.265 0.009 0.395 0.015 0.126 0.077 0.147 0.171 0.211 0.073 0.057 0.19 0.179 0.276 0.204 0.138 0.029 0.354-0.123 0.448 0.021 0.053 0.077 0.018 0.118 0.126 0.143 0.081 0.021 0.151 0.012 0.232 0.045 0.118 0.053 0.228 0.085 0.337-0.018 0.106-0.094 0.126-0.288 0.106-0.419-0.018-0.134-0.11-0.252-0.204-0.346-0.077-0.073-0.175-0.126-0.248-0.207-0.032-0.037-0.045-0.098-0.077-0.134-0.032-0.029-0.085-0.024-0.122-0.053-0.021-0.021-0.045-0.057-0.061-0.085-0.053-0.081-0.073-0.11-0.175-0.106-0.073 0.003-0.15 0.018-0.228 0.024-0.134 0.015-0.284 0-0.387 0.105-0.065 0.070-0.101 0.188-0.122 0.281-0.012 0.032-0.045 0.109-0.024 0.138 0.024 0.045 0.134 0.012-0.057-0.2z"></path>
<path d="M19.844 27.188c-0.024 0-0.041 0.003-0.061 0.006-0.081 0.021-0.109 0.082-0.182 0.126-0.070 0.042-0.126 0.029-0.196 0.053-0.057 0.021-0.085 0.077-0.138 0.102-0.085 0.040-0.224 0.065-0.317 0.077-0.119 0.018-0.196 0.029-0.298 0.089-0.056 0.029-0.093 0.049-0.162 0.053-0.138 0.009-0.28 0.032-0.419 0.045-0.089 0.012-0.147-0.003-0.183 0.085-0.045 0.098-0.041 0.244-0.057 0.358-0.061 0.276 0.024 0.451 0.269 0.594 0.13 0.073 0.252 0 0.391-0.029 0.138-0.021 0.265-0.082 0.407-0.070 0.069 0.003 0.126 0.041 0.203 0.041 0.061 0 0.13-0.024 0.196-0.045 0.134-0.045 0.252-0.081 0.366-0.171 0.207-0.154 0.465-0.224 0.615-0.435 0.032-0.041 0.049-0.073 0.098-0.098 0.024-0.021 0.065-0.029 0.085-0.056 0.053-0.066-0.021-0.2-0.057-0.265-0.021-0.041-0.053-0.081-0.073-0.13-0.036-0.077-0.073-0.106-0.13-0.158-0.057-0.057-0.102-0.147-0.183-0.175-0.049-0.012-0.109-0.009-0.171 0z"></path>
<path d="M16.65 28.102c-0.012-0.032-0.021-0.044-0.053-0.056-0.032-0.018-0.081 0.003-0.106 0-0.069-0.012-0.126-0.061-0.179-0.098-0.069-0.049-0.093-0.134-0.187-0.138-0.033-0.003-0.070 0.012-0.106 0.012-0.26 0.003-0.541-0.032-0.801-0.069-0.159-0.021-0.326-0.066-0.476-0.053-0.13 0.015-0.196 0.021-0.305-0.045-0.119-0.066-0.224-0.147-0.343-0.207-0.105-0.049-0.207-0.094-0.308-0.168-0.089-0.069-0.2-0.13-0.298-0.195-0.060-0.036-0.097-0.11-0.158-0.134-0.094-0.032-0.171-0.053-0.22 0.029-0.081 0.13-0.191 0.232-0.28 0.346-0.078 0.098-0.168 0.213-0.204 0.33-0.024 0.081-0.024 0.224-0.003 0.314 0.037 0.122 0.192 0.162 0.294 0.223 0.146 0.085 0.272 0.22 0.427 0.285 0.114 0.045 0.224 0.061 0.325 0.138 0.066 0.056 0.11 0.097 0.196 0.105 0.073 0.018 0.154 0.009 0.231 0.012 0.143 0.003 0.273 0.053 0.416 0.069 0.102 0.009 0.211-0.021 0.313 0.009 0.056 0.018 0.105 0.066 0.167 0.077 0.109 0.029 0.195 0.012 0.301-0.015 0.203-0.066 0.423-0.045 0.634-0.081 0.183-0.038 0.407-0.053 0.578-0.126 0.024-0.009 0.045-0.024 0.069-0.033 0.003 0.003 0.003 0.009 0.009 0.012 0.070-0.069 0.122-0.143 0.11-0.239-0.009-0.094-0.003-0.213-0.041-0.302z"></path>
</svg>
