<!-- Generated by IcoMoon.io -->
<svg version="1.1" xmlns="http://www.w3.org/2000/svg" width="32" height="32" viewBox="0 0 32 32">
<title>hazards_of_antarctica</title>
<path d="M8.935 23.27c-0.056 0.055-0.111 0.116-0.137 0.18 0.050-0.055 0.090-0.119 0.137-0.18z"></path>
<path d="M8.935 23.27c0.026-0.029 0.056-0.055 0.077-0.082 0.011-0.011 0.021-0.021 0.032-0.034-0.029 0.029-0.058 0.055-0.085 0.087-0.011 0.008-0.016 0.018-0.024 0.029z"></path>
<path d="M22.188 10.926c-0.045 0.1-0.13 0.18-0.172 0.283-0.005 0.011-0.011 0.024-0.013 0.034 0.098-0.124 0.227-0.225 0.32-0.351 0.024-0.034 0.048-0.079 0.061-0.127 0.018-0.005 0.034-0.011 0.053-0.016-0.016-0.013-0.029-0.024-0.045-0.034 0-0.040-0.005-0.074-0.032-0.103-0.024 0.021-0.048 0.045-0.069 0.069-0.069-0.003-0.159 0.024-0.227 0.056 0.050 0.026 0.106 0.045 0.164 0.050-0.016 0.045-0.021 0.098-0.040 0.14z"></path>
<path d="M21.214 21.476c0-0.005 0-0.008-0.003-0.011-0.029 0.029-0.050 0.058-0.061 0.087 0.005 0.005 0.011 0.008 0.016 0.011 0.026-0.024 0.048-0.053 0.048-0.087z"></path>
<path d="M21.677 11.79c0.053-0.042 0.108-0.085 0.151-0.135 0.093-0.116 0.122-0.275 0.174-0.412-0.005 0.008-0.013 0.013-0.018 0.021-0.116 0.161-0.222 0.341-0.307 0.526z"></path>
<path d="M12.394 20.815c-0.003 0.003-0.008 0.005-0.011 0.011 0 0 0.003-0.003 0.011-0.011z"></path>
<path d="M22.995 10.924c0.18-0.050 0.344-0.116 0.476-0.251 0.040-0.040 0.063-0.1 0.106-0.132 0.040-0.026 0.1-0.040 0.145-0.053 0.103-0.034 0.206-0.063 0.309-0.098 0.169-0.053 0.351-0.095 0.51-0.182 0.093-0.053 0.188-0.079 0.291-0.114 0.193-0.063 0.293-0.026 0.484 0.042 0.093 0.034 0.161 0.095 0.246 0.135 0.267 0.124 0.613 0.13 0.901 0.127 0.196-0.003 0.412 0.016 0.597 0.082 0.159 0.056 0.283 0.143 0.46 0.166 0.267 0.032 0.529 0.137 0.793 0.198 0.41 0.090 0.822 0.201 1.221 0.33 0.23 0.077 0.444 0.198 0.682 0.254 0.087 0.018 0.143 0.053 0.222 0.087 0.159 0.069 0.354 0.164 0.526 0.188-0.008-0.066-0.026-0.119-0.079-0.166-0.1-0.090-0.267-0.127-0.383-0.193-0.077-0.045-0.143-0.082-0.225-0.119-0.127-0.053-0.262-0.103-0.383-0.164-0.093-0.048-0.177-0.111-0.275-0.151-0.153-0.066-0.346-0.124-0.505-0.077-0.209 0.063-0.328-0.003-0.523-0.061-0.225-0.066-0.444-0.185-0.674-0.256-0.058-0.018-0.116-0.018-0.174-0.032-0.098-0.018-0.196-0.066-0.291-0.095-0.283-0.085-0.603-0.082-0.877-0.185-0.114-0.042-0.243-0.143-0.33-0.206-0.177-0.122-0.357-0.238-0.534-0.362-0.124-0.087-0.209-0.132-0.365-0.116-0.132 0.011-0.264 0.018-0.394 0.056-0.114 0.034-0.227 0.090-0.344 0.114-0.063 0.013-0.127 0.003-0.188 0.016-0.098 0.021-0.145 0.098-0.225 0.145-0.061 0.040-0.103 0.050-0.153 0.108-0.106 0.127-0.285 0.267-0.441 0.333-0.336 0.137-0.658 0.291-1.007 0.402-0.045 0.013-0.1 0.037-0.156 0.056 0.055 0.053 0.103 0.119 0.161 0.161 0.124 0.092 0.246 0.056 0.396 0.013z"></path>
<path d="M20.302 7.919c-0.008-0.008-0.016-0.013-0.024-0.021 0.021 0.034 0.048 0.066 0.074 0.095-0.016-0.026-0.032-0.050-0.050-0.074z"></path>
<path d="M17.348 9.935c-0.037 0.092-0.087 0.174-0.13 0.262-0.058-0.053-0.13-0.106-0.174-0.124-0.095-0.037-0.166 0-0.241-0.074-0.116-0.114-0.241-0.214-0.349-0.333-0.135-0.148-0.275-0.291-0.457-0.394-0.106-0.061-0.193-0.13-0.291-0.201-0.103-0.079-0.172-0.193-0.248-0.283-0.079-0.098-0.151-0.206-0.23-0.307-0.1-0.127-0.227-0.23-0.328-0.354-0.085-0.108-0.169-0.196-0.206-0.325-0.040-0.135-0.045-0.28-0.018-0.42 0.034-0.19 0.061-0.362 0.034-0.55-0.003-0.016 0-0.034 0-0.050 0.045-0.037 0.092-0.071 0.14-0.1 0.182-0.111 0.388-0.145 0.573-0.248 0.122-0.069 0.251-0.098 0.381-0.143 0.111-0.037 0.13-0.127 0.217-0.204 0.090-0.079 0.246-0.172 0.37-0.18 0.058 0.087 0.111 0.18 0.166 0.259 0.045 0.061 0.069 0.156 0.116 0.209 0.026 0.016 0.053 0.032 0.079 0.048 0.016 0.029 0.032 0.061 0.048 0.090 0.063 0.108 0.14 0.219 0.206 0.338 0.063 0.111 0.137 0.222 0.193 0.338 0.040 0.087 0.055 0.182 0.1 0.267 0.066 0.122 0.145 0.233 0.19 0.367 0.021 0.066 0.053 0.108 0.085 0.172 0.032 0.058 0.037 0.119 0.063 0.177 0.058 0.119 0.143 0.214 0.19 0.338 0.037 0.095 0.090 0.238 0.164 0.325-0.032 0.021-0.069 0.032-0.095 0.061-0.029 0.026-0.040 0.058-0.066 0.087-0.063 0.063-0.124 0.106-0.174 0.188-0.053 0.082-0.055 0.151-0.093 0.23-0.040 0.085-0.077 0.159-0.122 0.238-0.050 0.087-0.055 0.204-0.095 0.296zM16.968 10.884c-0.018 0.050-0.040 0.098-0.058 0.148-0.042 0.114-0.087 0.238-0.090 0.362-0.003 0.108 0.037 0.219 0.008 0.328-0.045 0.177-0.135 0.336-0.246 0.489-0.098 0.132-0.135 0.248-0.169 0.404-0.037 0.161-0.106 0.444-0.288 0.502-0.053-0.116-0.159-0.206-0.272-0.272-0.122-0.069-0.204-0.016-0.325-0.013-0.090 0-0.161-0.050-0.251-0.037-0.069 0.011-0.061 0.013-0.124-0.013-0.122-0.048-0.248-0.063-0.346-0.156-0.095-0.087-0.166-0.172-0.211-0.288-0.048-0.116-0.145-0.182-0.206-0.291-0.024-0.042-0.026-0.098-0.048-0.137-0.026-0.042-0.066-0.063-0.098-0.098-0.021-0.026-0.066-0.079-0.082-0.103-0.024-0.042-0.032-0.087-0.058-0.132-0.042-0.077-0.122-0.143-0.172-0.217-0.071-0.098-0.201-0.114-0.272-0.214-0.048-0.069-0.066-0.19-0.092-0.272-0.053-0.166-0.116-0.307-0.225-0.447-0.061-0.079-0.103-0.164-0.18-0.227-0.092-0.077-0.23-0.111-0.288-0.219-0.032-0.066-0.029-0.156-0.063-0.222-0.024-0.045-0.029-0.040-0.063-0.074-0.074-0.074-0.143-0.227-0.238-0.277-0.034-0.018-0.071-0.005-0.108-0.021-0.056-0.021-0.103-0.082-0.143-0.122-0.024-0.024-0.042-0.050-0.061-0.077 0.085-0.050 0.19-0.188 0.235-0.243 0.056-0.069 0.090-0.153 0.172-0.193 0.124-0.063 0.277-0.056 0.412-0.092 0.13-0.037 0.285-0.026 0.412 0 0.132 0.026 0.27 0.053 0.404 0.082 0.135 0.026 0.206 0.061 0.307-0.032 0.037-0.034 0.056-0.061 0.095-0.092 0.058-0.048 0.114-0.050 0.177-0.085 0.037-0.021 0.061-0.056 0.1-0.077 0.050-0.026 0.119-0.037 0.174-0.053 0.085-0.026 0.225-0.063 0.222-0.177 0.092 0.053 0.132 0.185 0.185 0.27 0.079 0.127 0.164 0.293 0.267 0.399 0.116 0.122 0.211 0.285 0.341 0.378 0.127 0.090 0.285 0.275 0.354 0.415 0.055 0.114 0.116 0.299 0.235 0.37 0.074 0.045 0.18 0.053 0.259 0.1 0.159 0.092 0.41 0.291 0.455 0.481 0.018 0.085-0.008 0.166-0.037 0.246zM20.245 22.282c0.106-0.034 0.277-0.053 0.357-0.14 0.029 0.087 0.013 0.219-0.008 0.309-0.029 0.122-0.032 0.243-0.042 0.373-0.011 0.161-0.032 0.365-0.003 0.515 0.021 0.106 0.024 0.198 0.058 0.304 0.034 0.103 0.082 0.211 0.098 0.317 0.013 0.074 0.003 0.137-0.008 0.211-0.011 0.069-0.005 0.053 0 0.116 0.011 0.122 0.040 0.275 0.034 0.391-0.005 0.13-0.032 0.246-0.021 0.375 0.013 0.172 0.055 0.33 0.082 0.502 0.034 0.222 0.037 0.447 0.058 0.669-0.005-0.005-0.011-0.008-0.013-0.013-0.024-0.034-0.021-0.082-0.042-0.122-0.048-0.095-0.164-0.148-0.264-0.145-0.148 0.003-0.301 0.048-0.447 0.048-0.040 0-0.077-0.026-0.116-0.026-0.021 0-0.048 0.013-0.066 0.011-0.090-0.013-0.196-0.042-0.285-0.063-0.053-0.013-0.1-0.040-0.156-0.053-0.093-0.021-0.193-0.016-0.288-0.029-0.145-0.021-0.293-0.018-0.441-0.037-0.164-0.018-0.333-0.021-0.494-0.040-0.037-0.005-0.061-0.008-0.1-0.005-0.048 0-0.106 0.005-0.151-0.003-0.108-0.018-0.211-0.066-0.307-0.106-0.026-0.013-0.061-0.024-0.095-0.034-0.005-0.040-0.011-0.082-0.013-0.119-0.003-0.071 0.021-0.143 0.021-0.219 0-0.143-0.005-0.275-0.018-0.415-0.011-0.119-0.029-0.246-0.003-0.362 0.005-0.013 0.011-0.029 0.016-0.045 0.026-0.024 0.050-0.048 0.079-0.071 0.093-0.079 0.227-0.108 0.325-0.174 0.063-0.042 0.103-0.069 0.174-0.098 0.1-0.040 0.13-0.071 0.211-0.148 0.122-0.116 0.251-0.193 0.349-0.338 0.050-0.071 0.085-0.148 0.13-0.222 0.045-0.077 0.077-0.164 0.122-0.243 0.040-0.066 0.095-0.108 0.156-0.153 0.114-0.087 0.227-0.166 0.341-0.254 0.108-0.085 0.148-0.203 0.285-0.277 0.153-0.087 0.32-0.132 0.486-0.185zM20.953 23.112c-0.016-0.082 0.003-0.164 0.003-0.248-0.003-0.108-0.003-0.19 0.021-0.291 0.048-0.206 0.061-0.449 0.14-0.645 0.040-0.106 0.132-0.159 0.188-0.256-0.040-0.048-0.090-0.079-0.14-0.111-0.005 0.008-0.013 0.016-0.021 0.021 0-0.011 0.005-0.021 0.008-0.029-0.050-0.032-0.1-0.063-0.145-0.108 0.066-0.026 0.201-0.085 0.206 0.018 0.061-0.058 0.148-0.111 0.185-0.148 0.058-0.058 0.116-0.114 0.172-0.172 0.040-0.045 0.111-0.166 0.169-0.174 0.066 0.145 0.23 0.217 0.349 0.322 0.106 0.093 0.233 0.103 0.341 0.196 0.127 0.106 0.214 0.235 0.359 0.32 0.066 0.037 0.122 0.077 0.182 0.119 0.085 0.058 0.13 0.116 0.201 0.182 0.077 0.071 0.159 0.058 0.214 0.153 0.029 0.050 0.055 0.095 0.085 0.143 0.061 0.098 0.106 0.211 0.159 0.314 0.061 0.124 0.145 0.23 0.23 0.338 0.055 0.071 0.093 0.161 0.137 0.243-0.143 0.206-0.275 0.425-0.418 0.634-0.066-0.008-0.135-0.016-0.201-0.024-0.085-0.005-0.177-0.026-0.256-0.032-0.061 0.011-0.122 0.026-0.18 0.042-0.071 0.011-0.14 0.011-0.209 0.003-0.093-0.003-0.164 0.008-0.256-0.034-0.079-0.034-0.114-0.111-0.185-0.151-0.111-0.063-0.283-0.037-0.404-0.018-0.069 0.016-0.137 0.024-0.206 0.016-0.050-0.016-0.1-0.026-0.153-0.026-0.098 0.005-0.18 0.066-0.275 0.077-0.058-0.174-0.18-0.307-0.233-0.476-0.021-0.066-0.053-0.132-0.066-0.198zM21.92 20.548c0.005-0.093 0.174-0.159 0.233-0.203 0.037-0.026 0.069-0.090 0.108-0.108 0.032-0.016 0.082 0 0.114-0.003 0.087-0.003 0.193-0.042 0.277-0.034 0.119 0.013 0.235 0.116 0.333 0.172 0.114 0.061 0.238 0.106 0.357 0.151 0.198 0.074 0.418 0.161 0.6 0.277 0.095 0.061 0.196 0.098 0.28 0.172 0.103 0.087 0.193 0.18 0.312 0.243-0.016-0.037-0.016-0.082-0.034-0.114-0.037-0.074-0.116-0.111-0.185-0.156-0.108-0.071-0.19-0.148-0.285-0.238-0.050-0.050-0.090-0.095-0.148-0.135-0.055-0.037-0.077-0.069-0.116-0.116-0.069-0.082-0.135-0.108-0.225-0.166-0.074-0.050-0.143-0.071-0.159-0.169-0.024-0.153 0.122-0.198 0.225-0.275 0.203-0.148 0.346-0.33 0.476-0.536 0.045-0.074 0.066-0.188 0.159-0.217 0.042 0.053 0.093 0.042 0.148 0.063 0.077 0.029 0.137 0.103 0.203 0.148 0.095 0.061 0.182 0.077 0.28 0.111 0.106 0.034 0.206 0.087 0.312 0.124 0.19 0.066 0.386 0.161 0.584 0.206 0.098 0.011 0.196 0.024 0.291 0.045 0.093 0.037 0.188 0.074 0.283 0.106 0.050 0.008 0.103 0.018 0.156 0.029 0.066 0.079 0.153 0.161 0.233 0.182-0.024 0.053-0.066 0.095-0.095 0.145-0.214 0.336-0.505 0.618-0.735 0.946-0.132 0.185-0.27 0.367-0.404 0.552-0.082 0.114-0.196 0.18-0.291 0.277-0.071 0.079-0.119 0.172-0.201 0.243-0.063 0.058-0.135 0.108-0.198 0.166s-0.13 0.103-0.193 0.156c-0.055 0.048-0.082 0.111-0.135 0.166-0.098 0.106-0.219 0.193-0.312 0.307-0.045 0.055-0.085 0.114-0.127 0.174-0.029-0.074-0.061-0.145-0.077-0.198-0.029-0.082-0.058-0.164-0.082-0.248-0.042-0.137-0.045-0.28-0.093-0.415-0.008-0.024-0.037-0.079-0.037-0.103-0.005-0.077 0.048-0.148 0.058-0.222 0.013-0.106-0.013-0.143 0.040-0.235 0.048-0.087 0.085-0.177 0.143-0.259 0.061-0.087 0.122-0.177 0.182-0.264 0.042-0.055 0.074-0.069 0.061-0.127-0.077-0.005-0.196 0.114-0.267 0.151-0.077 0.037-0.114 0.040-0.169 0.1-0.032 0.037-0.053 0.077-0.079 0.116-0.050 0.069-0.161 0.172-0.193 0.248-0.016 0.034-0.005 0.082-0.018 0.122-0.013 0.032-0.034 0.053-0.040 0.087-0.077-0.016-0.185-0.124-0.246-0.169-0.087-0.061-0.172-0.124-0.259-0.185-0.111-0.079-0.241-0.135-0.346-0.222-0.087-0.071-0.095-0.166-0.159-0.256-0.063-0.093-0.127-0.203-0.209-0.277-0.066-0.055-0.127-0.114-0.193-0.172-0.037-0.034-0.14-0.103-0.137-0.164zM20.586 14.544c0.032-0.188 0.13-0.362 0.23-0.521 0.042-0.063 0.079-0.135 0.114-0.209 0.106-0.034 0.214-0.077 0.32-0.106 0.082-0.021 0.159-0.003 0.241 0.013 0.114 0.021 0.169 0.018 0.277-0.018 0.143-0.045 0.307-0.124 0.455-0.127 0.053 0 0.108 0.005 0.164 0.005-0.079 0.14-0.159 0.277-0.235 0.418-0.058 0.106-0.108 0.214-0.153 0.328-0.050 0.119-0.066 0.275-0.156 0.37-0.048 0.053-0.111 0.087-0.166 0.13-0.090 0.074-0.161 0.166-0.248 0.246-0.093 0.082-0.198 0.148-0.288 0.235-0.032-0.008-0.066-0.016-0.095-0.026-0.153-0.056-0.425-0.108-0.455-0.301-0.021-0.143-0.026-0.293-0.003-0.436zM21.238 12.898c0.032-0.1 0.037-0.177 0.087-0.272 0.116-0.214 0.193-0.439 0.28-0.663 0-0.003 0.003-0.005 0.003-0.011 0.034 0.024 0.082 0.058 0.111 0.085 0.045 0.037 0.050 0.069 0.069 0.127 0.026 0.071 0.074 0.119 0.103 0.188 0.111 0.248 0.169 0.534 0.254 0.793 0.011 0.040 0.069 0.14 0.050 0.18-0.013 0.032-0.198 0.1-0.23 0.116-0.166 0.074-0.354 0.116-0.529 0.172-0.159 0.050-0.317 0.103-0.486 0.156 0.063-0.145 0.114-0.301 0.143-0.441 0.032-0.148 0.1-0.283 0.145-0.428zM22.14 16.59c0.045-0.061 0.103-0.153 0.169-0.193 0.122-0.069 0.285-0.018 0.418-0.029 0.143-0.016 0.248-0.055 0.402-0.040 0.095 0.008 0.196 0 0.288 0.026 0.243 0.071 0.465 0.185 0.714 0.243 0.188 0.045 0.378 0.061 0.566 0.103 0.108 0.024 0.23 0.074 0.344 0.058 0.085-0.011 0.156-0.050 0.243-0.058s0.185-0.005 0.27-0.008c0.14 0 0.285-0.026 0.425-0.008 0.1 0.016 0.193 0.069 0.291 0.077 0.042 0.005 0.085-0.018 0.127-0.016 0.013 0.003 0.029 0.008 0.045 0.013-0.079 0.024-0.111 0.093-0.13 0.153-0.016 0.055-0.026 0.111-0.034 0.166-0.011 0.071-0.032 0.127-0.050 0.201-0.061 0.227 0.066 0.481 0.071 0.714 0.003 0.127 0.026 0.267 0 0.399-0.008 0.048-0.032 0.087-0.045 0.137-0.021 0.095-0.048 0.193-0.050 0.291 0 0.153-0.032 0.304 0.018 0.452 0.053 0.156 0.093 0.325 0.164 0.476-0.082-0.026-0.164-0.055-0.243-0.079-0.153-0.042-0.309-0.095-0.457-0.148-0.188-0.069-0.351-0.172-0.505-0.293-0.13-0.103-0.312-0.172-0.47-0.222-0.114-0.034-0.23-0.032-0.349-0.055-0.090-0.016-0.122-0.058-0.201-0.090-0.024-0.011-0.079-0.008-0.106-0.011-0.114-0.013-0.214-0.077-0.317-0.119s-0.203-0.093-0.309-0.137c-0.291-0.119-0.597-0.132-0.877-0.275-0.095-0.048-0.206-0.093-0.296-0.151-0.164-0.103-0.222-0.196-0.217-0.381 0.008-0.185 0.037-0.367 0.032-0.555-0.003-0.122-0.024-0.233-0.018-0.359 0.003-0.108 0.026-0.201 0.090-0.283zM19.341 21.693c0 0.069-0.045 0.135-0.042 0.206 0.003 0.048 0.013 0.095 0.018 0.14 0.008 0.114 0.074 0.262 0 0.359-0.143 0.19-0.32 0.359-0.468 0.547-0.040 0.050-0.1 0.095-0.148 0.14-0.048 0.048-0.079 0.1-0.127 0.151-0.077 0.079-0.124 0.166-0.19 0.259-0.103 0.148-0.251 0.209-0.394 0.314-0.111 0.082-0.143 0.209-0.219 0.314-0.048 0.066-0.1 0.143-0.151 0.209 0.011-0.034 0.024-0.069 0.034-0.103 0.042-0.116 0.048-0.235 0.055-0.357 0.013-0.201 0.029-0.399 0.024-0.603-0.003-0.135-0.018-0.27-0.048-0.402-0.016-0.063-0.045-0.122-0.050-0.185-0.011-0.148 0.011-0.299 0.021-0.444 0.008-0.106 0.077-0.182 0.124-0.272s0.077-0.166 0.14-0.246c0.090-0.119 0.127-0.243 0.28-0.304 0.153-0.063 0.365-0.063 0.531-0.066 0.061 0 0.145-0.011 0.203 0.003 0.082 0.021 0.145 0.085 0.227 0.111 0.108 0.037 0.177 0.1 0.177 0.227zM17.314 25.823c-0.058 0.103-0.166 0.188-0.275 0.238-0.135 0.063-0.299 0.093-0.441 0.14-0.188 0.058-0.373 0.119-0.56 0.18-0.222 0.071-0.447 0.161-0.674 0.217-0.074 0.018-0.153 0.018-0.23 0.034-0.087 0.018-0.172 0.066-0.259 0.082-0.071 0.013-0.238 0.024-0.301-0.008-0.061-0.029-0.061-0.093-0.082-0.148-0.032-0.077-0.108-0.14-0.156-0.209-0.077-0.108-0.145-0.235-0.251-0.317-0.018-0.016-0.058-0.050-0.1-0.085 0.132-0.177 0.248-0.367 0.333-0.568 0.122-0.285 0.304-0.534 0.394-0.83 0.045-0.148 0.161-0.251 0.238-0.383 0.079-0.143 0.106-0.301 0.177-0.449 0.135-0.277 0.198-0.581 0.396-0.832 0.143-0.182 0.296-0.357 0.447-0.531 0.095-0.111 0.248-0.222 0.317-0.351 0.048-0.095 0.053-0.135 0.148-0.193 0.077-0.050 0.159-0.074 0.248-0.098 0.23-0.058 0.449-0.093 0.589 0.13 0.082 0.127 0.090 0.309 0.111 0.449 0.021 0.143-0.018 0.251-0.034 0.388-0.013 0.116 0.005 0.214 0.016 0.325 0.021 0.193 0.024 0.407 0.013 0.597-0.011 0.188-0.085 0.351-0.122 0.531-0.024 0.116 0 0.251-0.008 0.373-0.008 0.119 0.003 0.235 0.013 0.354 0.021 0.217 0.055 0.449 0.122 0.655 0.005 0.024 0.016 0.042 0.021 0.066 0 0-0.003 0-0.003 0-0.032 0.016-0.066 0.201-0.087 0.243zM14.042 24.262c-0.143 0.082-0.285 0.122-0.407 0.238-0.050 0.050-0.111 0.093-0.164 0.143-0.082 0.082-0.145 0.177-0.233 0.254-0.135 0.119-0.309 0.227-0.473 0.299-0.14 0.061-0.285 0.090-0.423 0.161-0.116 0.061-0.219 0.127-0.344 0.166-0.042 0.013-0.082 0.024-0.119 0.042-0.103 0.048-0.174 0.145-0.288 0.164-0.124 0.024-0.262 0.037-0.388 0.048-0.011 0.003-0.024 0.003-0.034 0.003-0.032-0.071-0.056-0.135-0.1-0.196-0.066-0.085-0.14-0.164-0.211-0.246-0.164-0.193-0.262-0.46-0.394-0.677-0.071-0.114-0.116-0.219-0.204-0.314-0.045-0.053-0.069-0.114-0.116-0.169-0.071-0.082-0.166-0.145-0.241-0.227-0.082-0.090-0.143-0.196-0.238-0.277-0.061-0.050-0.056-0.032-0.079-0.103-0.077-0.209-0.137-0.423-0.206-0.634-0.021-0.018-0.056-0.016-0.090-0.008 0.333-0.248 0.721-0.388 1.086-0.592 0.122-0.066 0.222-0.164 0.338-0.235 0.161-0.1 0.336-0.161 0.505-0.241 0.087-0.042 0.235-0.116 0.275-0.217 0.018-0.048 0.013-0.103 0.005-0.153 0.003 0.018-0.042-0.135-0.040-0.145 0.026-0.13 0.254-0.196 0.359-0.227 0.233-0.071 0.391-0.127 0.563-0.293 0-0.005 0.137-0.169 0.14-0.172 0.032-0.008 0.042 0.011 0.074 0.008 0.098-0.013 0.132 0.016 0.204 0.079 0.106 0.093 0.233 0.148 0.317 0.259 0.124 0.159 0.098 0.241 0.307 0.225 0.050-0.003 0.098-0.029 0.145-0.032 0.145-0.011 0.341 0.053 0.465 0.082 0.201 0.050 0.399 0.082 0.584 0.177 0.14 0.071 0.077 0.032 0.19 0.021 0.137-0.013 0.359 0.114 0.365 0.264 0 0.058-0.037 0.127-0.045 0.188-0.021 0.164-0.040 0.312-0.082 0.47-0.077 0.288-0.185 0.555-0.299 0.827-0.095 0.227-0.222 0.444-0.309 0.674-0.011 0.026-0.018 0.053-0.026 0.079-0.098 0.119-0.243 0.217-0.37 0.288zM9.827 21.368c-0.092-0.037-0.188-0.063-0.283-0.103-0.124-0.053-0.28-0.071-0.391-0.156-0.1-0.077-0.211-0.145-0.312-0.225-0.111-0.090-0.204-0.174-0.333-0.241-0.090-0.045-0.23-0.137-0.333-0.122-0.005-0.085 0.069-0.169 0.116-0.235 0.032-0.045 0.058-0.095 0.087-0.14s0.074-0.074 0.103-0.119c0.058-0.1 0.108-0.264 0.13-0.375 0.016-0.095 0.021-0.18 0.077-0.264 0.021-0.034 0.037-0.074 0.053-0.111 0.003 0.003 0.005 0.003 0.005 0.003 0.092 0.032 0.182 0.066 0.272 0.103 0.098 0.042 0.19 0.053 0.291 0.082 0.090 0.034 0.177 0.069 0.264 0.103 0.087 0.018 0.177 0.032 0.264 0.034 0.235 0.029 0.457-0.003 0.692 0.016 0.156 0.011 0.267 0.018 0.42 0.003 0.143-0.016 0.28 0.003 0.42 0.011 0.151 0.005 0.362 0.003 0.486 0.106 0.087 0.071 0.106 0.177 0.137 0.28 0.045 0.145 0.085 0.291 0.148 0.431 0.034 0.074 0.053 0.082-0.008 0.161-0.111 0.145-0.32 0.254-0.47 0.349-0.069 0.042-0.13 0.071-0.196 0.108-0.111 0.061-0.193 0.166-0.304 0.233 0.135 0.074 0.085 0.227 0.016 0.33-0.114 0.166-0.312 0.285-0.489 0.37-0.018 0.008-0.034 0.011-0.053 0.018-0.018-0.013-0.034-0.024-0.045-0.029-0.048-0.032-0.098-0.066-0.145-0.106-0.034-0.026-0.082-0.050-0.108-0.079-0.058-0.066-0.095-0.135-0.166-0.196-0.116-0.095-0.211-0.185-0.346-0.241zM12.271 12.097c-0.042-0.037-0.085-0.116-0.111-0.166-0.029-0.056-0.056-0.085-0.085-0.13-0.003-0.003-0.005-0.005-0.008-0.008 0.061 0.063 0.135 0.119 0.188 0.188 0.042 0.058 0.085 0.116 0.127 0.174-0.040-0.013-0.079-0.032-0.111-0.058zM16.688 5.688c0.103-0.032 0.241-0.053 0.336-0.106 0.048-0.026 0.069-0.058 0.119-0.079 0.045-0.021 0.1-0.032 0.148-0.048 0.098-0.032 0.196-0.063 0.296-0.093 0.090-0.029 0.145-0.077 0.225-0.116 0.040-0.019 0.079-0.019 0.114-0.042 0.048-0.032 0.074-0.085 0.124-0.114 0.061-0.032 0.135-0.037 0.198-0.069 0.272-0.151 0.566-0.277 0.814-0.473-0.058 0.127-0.13 0.251-0.198 0.37-0.19 0.33-0.246 0.692-0.357 1.047-0.071 0.23-0.166 0.473-0.28 0.684-0.069 0.127-0.172 0.418-0.090 0.568 0.048 0.087 0.127 0.145 0.182 0.227 0.045 0.071 0.066 0.156 0.071 0.24-0.055 0.013-0.124 0.040-0.159 0.066 0.016 0.071 0.008 0.106 0.003 0.367-0.016 0.053-0.029 0.106-0.037 0.159-0.018 0.156-0.063 0.412-0.177 0.536-0.003-0.040 0-0.085-0.003-0.1 0-0.050 0.024-0.087-0.005-0.143-0.042-0.077-0.082-0.122-0.111-0.211-0.032-0.103-0.066-0.206-0.098-0.309l-0.143-0.444c-0.048-0.148-0.074-0.333-0.193-0.447-0.114-0.108-0.209-0.206-0.267-0.362-0.040-0.108-0.093-0.185-0.151-0.285-0.045-0.082-0.090-0.164-0.143-0.243-0.071-0.111-0.1-0.256-0.203-0.344-0.1-0.085-0.241-0.095-0.359-0.13 0.114-0.034 0.227-0.071 0.344-0.108zM14.602 29.888c0.143 0.066 0.309 0.074 0.46 0.132 0.127 0.048 0.256 0.1 0.386 0.148 0.095 0.037 0.177 0.061 0.262 0.111 0.053 0.032 0.114 0.063 0.169 0.087 0.048 0.018 0.095 0.034 0.143 0.037 0.003 0 0.008 0.003 0.013 0.003-0.090 0.029-0.182 0.058-0.272 0.087-0.137 0.042-0.272 0.087-0.41 0.132-0.061 0.018-0.148 0.066-0.211 0.058-0.082-0.008-0.13-0.090-0.182-0.14-0.066-0.063-0.077-0.098-0.127-0.159-0.048-0.058-0.122-0.093-0.18-0.14-0.18-0.143-0.325-0.309-0.455-0.497 0.124 0.066 0.277 0.082 0.404 0.14zM10.921 16.193c-0.122-0.018-0.238-0.016-0.359-0.040-0.283-0.058-0.563-0.061-0.846-0.1-0.164-0.021-0.325-0.079-0.489-0.087-0.111-0.008-0.214 0.024-0.322 0.008-0.071-0.013-0.122-0.034-0.196-0.034-0.219-0.003-0.428 0.063-0.647 0.016-0.188-0.040-0.233-0.217-0.373-0.33-0.151-0.124-0.346-0.14-0.539-0.164 0.029-0.095 0.045-0.214 0.056-0.264 0.026-0.143 0.024-0.233-0.021-0.367-0.050-0.137-0.071-0.296-0.093-0.439-0.037-0.248-0.164-0.478-0.204-0.721-0.008-0.061 0.003-0.114-0.013-0.174-0.013-0.058-0.050-0.116-0.048-0.177 0.28 0.040 0.603 0.040 0.893 0.018 0.143-0.011 0.264-0.037 0.402-0.082 0.164-0.053 0.359-0.045 0.531-0.040 0.056 0.003 0.116 0.032 0.172 0.056 0.085 0.034 0.177 0.037 0.267 0.071 0.177 0.069 0.193 0.119 0.277 0.28 0.071 0.137 0.145 0.293 0.246 0.41 0.021 0.026 0.053 0.063 0.085 0.077 0.045 0.021 0.074 0 0.114 0.008 0.082 0.021 0.172 0.048 0.254 0.071 0.074 0.021 0.124 0.069 0.204 0.085 0.058 0.011 0.151-0.011 0.201 0.024 0.050 0.037 0.090 0.256 0.103 0.304 0.018 0.056 0.034 0.111 0.056 0.166 0.040 0.111 0.106 0.198 0.143 0.317 0.037 0.132 0.063 0.256 0.145 0.375 0.069 0.103 0.153 0.188 0.196 0.307 0.050 0.153 0.153 0.325 0.201 0.489-0.145-0.003-0.256-0.040-0.394-0.061zM21.566 8.212c0.061-0.1 0.077-0.233 0.182-0.28 0.13-0.061 0.277-0.066 0.415-0.095 0.193-0.042 0.433-0.111 0.613-0.193 0.066-0.029 0.108-0.071 0.174-0.098 0.122-0.048 0.248-0.079 0.373-0.119 0.079-0.024 0.169-0.040 0.243-0.085 0.053-0.032 0.090-0.082 0.14-0.116 0.211-0.156 0.486-0.254 0.737-0.32 0.317-0.082 0.655-0.159 0.978-0.206 0.447-0.066 0.88-0.18 1.316-0.291 0.108-0.026 0.217-0.026 0.325-0.061 0.053-0.016 0.098-0.034 0.153-0.040 0.137-0.013 0.248-0.063 0.381-0.093 0.344-0.074 0.706-0.082 1.049-0.177 0.256-0.071 0.573-0.161 0.801-0.307 0.032-0.021 0.055-0.048 0.093-0.061-0.148 0.053-0.322 0.132-0.481 0.148-0.040 0.003-0.050-0.011-0.095-0.003-0.037 0.008-0.074 0.024-0.108 0.037-0.111 0.037-0.222 0.040-0.333 0.066-0.135 0.032-0.27 0.050-0.41 0.063-0.23 0.021-0.462 0.077-0.69 0.122-0.277 0.053-0.542 0.1-0.809 0.188-0.217 0.071-0.425 0.103-0.65 0.132-0.238 0.032-0.478 0.156-0.711 0.227-0.317 0.093-0.655 0.124-0.97 0.227-0.206 0.069-0.412 0.132-0.618 0.198-0.386 0.124-0.795 0.304-1.2 0.359-0.169 0.024-0.333 0.011-0.494 0.066-0.071 0.024-0.177 0.079-0.251 0.074-0.037-0.082-0.079-0.159-0.122-0.238-0.053-0.106-0.151-0.19-0.206-0.296-0.053-0.098-0.077-0.148-0.159-0.235-0.053-0.056-0.093-0.119-0.14-0.18-0.066-0.085-0.1-0.182-0.164-0.267-0.061-0.074-0.119-0.159-0.18-0.23-0.050-0.061-0.108-0.122-0.161-0.177-0.061-0.066-0.132-0.164-0.209-0.204-0.003 0.204 0.156 0.41 0.222 0.595 0.055 0.151 0.090 0.235 0.196 0.367 0.13 0.167 0.256 0.351 0.399 0.497 0.108 0.111 0.241 0.127 0.357 0.219 0.085 0.071 0.103 0.079 0.116 0.19 0.008 0.082 0.016 0.137 0.008 0.214-0.005 0.042 0.008 0.045-0.005 0.090-0.021 0.061-0.058 0.116-0.079 0.18-0.018 0.058-0.037 0.116-0.058 0.172-0.040 0.111-0.132 0.204-0.151 0.32-0.011 0.066-0.008 0.127-0.011 0.185-0.021-0.048-0.048-0.095-0.074-0.127-0.037-0.050-0.106-0.095-0.151-0.14-0.077-0.077-0.145-0.114-0.241-0.169-0.169-0.095-0.383-0.18-0.523-0.315-0.013-0.013-0.024-0.024-0.034-0.037 0.008 0.011 0.013 0.021 0.021 0.032 0.077 0.103 0.166 0.23 0.277 0.293 0.093 0.053 0.18 0.127 0.259 0.193 0.087 0.079 0.148 0.196 0.241 0.267 0.055 0.045 0.1 0.085 0.156 0.135 0.013 0.011 0.026 0.021 0.037 0.029 0 0 0 0 0 0.003-0.114 0.256-0.23 0.441-0.233 0.724-0.003 0.185 0.061 0.357 0.013 0.536-0.021 0.085-0.037 0.169-0.048 0.256-0.008 0.066-0.016 0.103-0.058 0.159-0.005 0.005-0.008 0.011-0.013 0.016-0.164-0.061-0.333-0.103-0.507-0.108-0.087-0.003-0.151-0.024-0.238-0.016-0.085 0.011-0.161 0.024-0.235 0.018-0.077-0.008-0.135-0.042-0.209-0.056-0.034-0.005-0.071-0.003-0.103-0.013-0.071-0.021-0.108-0.085-0.174-0.111-0.106-0.040-0.174-0.053-0.264-0.132-0.087-0.074-0.211-0.13-0.304-0.193-0.169-0.111-0.328-0.241-0.515-0.32-0.135-0.058-0.251-0.135-0.394-0.172-0.085-0.021-0.188-0.071-0.277-0.050 0.058-0.092 0.145-0.174 0.198-0.264 0.032-0.053 0.066-0.106 0.095-0.159 0.042-0.069 0.087-0.161 0.108-0.243 0.018-0.079 0.021-0.161 0.055-0.241 0.069-0.153 0.185-0.341 0.209-0.521 0.077-0.056 0.151-0.095 0.238-0.148 0.172-0.103 0.338-0.132 0.536-0.161 0.090-0.013 0.193-0.040 0.285-0.032 0.127 0.011 0.182 0.077 0.309 0.040 0.082-0.024 0.135-0.021 0.211-0.026 0.029-0.003 0.055-0.032 0.085-0.024 0.048 0.013 0.061 0.087 0.085 0.116 0.024 0.032 0.053 0.053 0.082 0.077-0.011-0.013-0.018-0.026-0.029-0.042-0.021-0.037-0.053-0.061-0.074-0.098-0.016-0.032-0.011-0.079-0.032-0.111-0.021-0.034-0.071-0.095-0.1-0.124-0.058-0.063-0.159-0.061-0.235-0.045-0.203 0.040-0.41 0.132-0.605 0.196-0.1 0.032-0.188 0.056-0.288 0.061-0.074 0.005-0.095-0.005-0.161-0.026-0.032-0.008-0.093-0.019-0.151-0.026 0.040-0.087 0.071-0.182 0.103-0.272 0.018-0.058 0.040-0.087 0.040-0.145 0-0.056-0.024-0.132-0.032-0.19-0.018-0.159-0.093-0.301-0.111-0.462-0.013-0.143-0.042-0.309-0.011-0.455 0.026-0.116 0.119-0.235 0.169-0.349 0.040-0.090 0.058-0.182 0.116-0.264s0.13-0.137 0.177-0.227c0.066-0.13 0.124-0.262 0.19-0.391 0.095-0.177 0.085-0.41 0.151-0.603 0.106-0.304 0.137-0.621 0.177-0.936 0.016-0.114 0.077-0.211 0.114-0.317 0.026-0.071 0.061-0.151 0.071-0.225 0.005-0.045-0.003-0.092 0.005-0.145 0.040-0.201 0.053-0.407 0.093-0.611 0.021-0.106 0.026-0.206 0.018-0.315-0.005-0.093 0.013-0.193 0.005-0.283-0.045 0.132-0.1 0.259-0.156 0.386-0.061 0.151-0.135 0.304-0.18 0.46-0.037 0.13-0.055 0.259-0.098 0.388-0.048 0.145-0.119 0.285-0.143 0.436-0.026 0.153-0.040 0.314-0.053 0.468-0.018 0.206-0.042 0.42-0.087 0.624-0.016 0.077-0.042 0.151-0.074 0.225-0.151 0.050-0.304 0.093-0.452 0.145-0.164 0.061-0.312 0.143-0.478 0.196-0.079 0.026-0.159 0.042-0.225 0.090-0.095 0.066-0.156 0.18-0.264 0.23-0.026 0.013-0.095 0.032-0.127 0.029s-0.061-0.034-0.087-0.037c-0.13-0.011-0.367 0.106-0.473 0.174-0.222 0.14-0.436 0.341-0.682 0.428-0.148 0.056-0.277 0.079-0.402 0.18-0.166 0.135-0.378 0.214-0.566 0.33-0.114 0.071-0.211 0.106-0.338 0.148-0.063 0.021-0.153 0.032-0.206 0.071 0 0.011 0.003 0.021 0.003 0.032l-0.048 0.063c0.045-0.103 0.018-0.174 0.016-0.293-0.003-0.071-0.029-0.090 0.026-0.159 0.029-0.034 0.066-0.056 0.090-0.095 0.029-0.042 0.042-0.093 0.074-0.132 0.077-0.1 0.166-0.201 0.246-0.301 0.132-0.164 0.262-0.325 0.404-0.484 0.042-0.048 0.137-0.132 0.132-0.211-0.090 0.024-0.159 0.095-0.235 0.143-0.069 0.042-0.135 0.071-0.193 0.13-0.111 0.114-0.169 0.27-0.275 0.383-0.098 0.103-0.222 0.177-0.309 0.291-0.071 0.090-0.122 0.233-0.204 0.307-0.169-0.063-0.351-0.122-0.534-0.137-0.108-0.011-0.201-0.037-0.296-0.087-0.063-0.037-0.119-0.050-0.182-0.082-0.119-0.058-0.204-0.153-0.341-0.18-0.14-0.024-0.304-0.095-0.441-0.048 0.166 0.019 0.301 0.050 0.433 0.151 0.151 0.116 0.336 0.164 0.476 0.296 0.122 0.116 0.222 0.293 0.394 0.338 0.092 0.021 0.182-0.021 0.27-0.050 0.034-0.011 0.098-0.045 0.132-0.040 0.032 0.005 0.151 0.090 0.177 0.124 0.074 0.082 0.018 0.233-0.016 0.341l-0.122 0.156c0.032-0.016 0.063-0.029 0.092-0.042-0.061 0.301-0.024 0.558 0.069 0.851 0.032 0.095 0.063 0.185 0.069 0.275 0.003 0.050 0.013 0.143-0.008 0.193-0.056 0.137-0.309 0.108-0.431 0.116-0.098 0.005-0.193 0.042-0.291 0.053-0.063 0.005-0.114 0.037-0.174 0.045-0.063 0.005-0.119 0-0.185 0.021-0.137 0.040-0.317 0.095-0.465 0.066-0.066-0.013-0.135-0.079-0.206-0.082-0.098-0.005-0.143 0.056-0.206 0.1-0.071 0.048-0.145 0.085-0.214 0.145-0.045 0.042-0.1 0.069-0.145 0.108s-0.058 0.098-0.092 0.145c-0.032 0.045-0.111 0.127-0.135 0.201-0.011-0.016-0.021-0.032-0.034-0.048-0.032-0.040-0.079-0.058-0.108-0.1-0.021-0.024-0.021-0.063-0.037-0.095-0.018-0.040-0.053-0.056-0.082-0.085-0.042-0.045-0.066-0.111-0.119-0.156-0.045-0.037-0.106-0.058-0.151-0.092-0.087-0.063-0.13-0.153-0.204-0.222-0.145-0.135-0.264-0.307-0.402-0.447-0.005 0.079 0 0.071 0.071 0.124 0.042 0.032 0.095 0.085 0.13 0.124 0.214 0.256 0.312 0.608 0.558 0.838 0.185 0.174 0.354 0.346 0.489 0.563 0.024 0.037 0.045 0.077 0.069 0.116-0.011 0.005-0.021 0.011-0.029 0.013-0.092 0.032-0.188 0.061-0.28 0.090-0.174 0.056-0.315 0.098-0.455 0.211-0.063 0.053-0.111 0.124-0.188 0.159-0.045 0.018-0.090 0.018-0.132 0.040-0.119 0.066-0.217 0.188-0.317 0.28-0.103 0.092-0.209 0.151-0.32 0.23-0.032 0.024-0.090 0.056-0.135 0.090 0.053-0.037 0.122-0.074 0.151-0.087 0.058-0.026 0.13-0.029 0.188-0.056 0.169-0.079 0.277-0.225 0.407-0.354 0.132-0.13 0.367-0.259 0.56-0.27 0.185-0.011 0.344 0.071 0.534 0.021 0.095-0.026 0.143-0.013 0.23-0.034-0.003-0.003-0.003-0.003-0.003-0.005 0 0.003 0.003 0.003 0.003 0.005 0 0 0 0 0 0 0.008 0.013 0.016 0.024 0.026 0.029 0.011 0.011 0.021 0.026 0.034 0.037 0.116 0.106 0.188 0.209 0.283 0.33 0.161 0.204 0.336 0.375 0.528 0.544 0.069 0.058 0.074 0.090 0.1 0.169 0.042 0.132 0.122 0.254 0.19 0.375 0.048 0.085 0.106 0.111 0.082 0.209-0.021 0.077-0.1 0.169-0.137 0.233-0.079 0.137-0.19 0.246-0.28 0.378-0.016 0.024-0.034 0.058-0.053 0.098-0.032-0.066-0.066-0.127-0.092-0.209-0.037-0.122-0.061-0.307-0.137-0.407-0.021 0-0.042 0.003-0.063 0.005-0.013-0.018-0.045-0.074-0.042-0.1 0.008-0.058 0.021-0.032 0.061-0.058 0.098-0.061 0.172-0.090 0.248-0.182 0.053-0.061 0.124-0.204 0.143-0.28 0.021-0.087-0.032-0.172-0.098-0.225-0.056 0.018-0.063 0.058-0.087 0.103-0.056 0.106-0.1 0.106-0.201 0.193-0.048 0.042-0.090 0.092-0.127 0.148-0.021 0.011-0.040 0.021-0.061 0.029-0.032 0.034-0.092 0.098-0.098 0.145-0.011 0.063 0.005 0.056 0.053 0.098 0.085 0.079 0.124 0.135 0.161 0.248 0.053 0.161 0.103 0.322 0.275 0.568-0.013-0.008-0.024-0.013-0.037-0.021-0.077-0.042-0.148-0.092-0.227-0.132-0.056-0.029-0.119-0.045-0.182-0.058-0.048-0.026-0.1-0.053-0.153-0.077-0.259-0.119-0.486-0.27-0.669-0.494 0.011 0.029 0.026 0.053 0.045 0.074-0.045-0.042-0.092-0.071-0.164-0.098-0.048-0.018-0.124-0.026-0.169-0.056-0.042-0.024-0.034-0.071-0.095-0.077-0.058-0.003-0.085 0.058-0.137 0.058-0.058-0.003-0.13-0.066-0.172-0.098-0.111-0.074-0.233-0.132-0.344-0.201-0.124-0.077-0.254-0.14-0.386-0.206-0.045-0.024-0.071-0.045-0.111-0.074-0.066-0.050-0.145-0.079-0.227-0.108-0.119-0.042-0.23-0.106-0.354-0.145-0.153-0.048-0.304-0.108-0.457-0.159-0.053-0.016-0.092-0.037-0.143-0.061-0.132-0.061-0.338-0.103-0.447-0.204-0.066-0.061-0.077-0.082-0.174-0.116-0.077-0.024-0.148-0.045-0.222-0.082-0.127-0.063-0.248-0.124-0.37-0.198-0.153-0.095-0.32-0.172-0.484-0.248-0.161-0.074-0.304-0.182-0.457-0.272-0.143-0.085-0.28-0.185-0.423-0.272-0.095-0.056-0.193-0.1-0.285-0.153-0.259-0.143-0.473-0.338-0.743-0.465-0.161-0.077-0.32-0.172-0.486-0.235-0.085-0.032-0.169-0.040-0.254-0.066-0.093-0.034-0.177-0.092-0.272-0.13-0.056-0.024-0.122-0.045-0.188-0.071 0.021 0.013 0.042 0.026 0.069 0.037 0.058 0.032 0.122 0.082 0.18 0.116 0.053 0.034 0.058 0.069 0.1 0.108 0.061 0.061 0.227 0.085 0.304 0.108 0.169 0.056 0.312 0.174 0.484 0.235 0.536 0.188 0.986 0.536 1.464 0.838 0.193 0.122 0.423 0.233 0.632 0.338 0.137 0.069 0.262 0.161 0.388 0.243 0.106 0.069 0.201 0.135 0.304 0.196 0.114 0.071 0.256 0.217 0.391 0.227 0.040 0.003 0.069-0.026 0.108-0.018 0.024 0.011 0.042 0.026 0.061 0.045 0.021 0 0.040 0 0.061-0.003 0.071 0.032 0.135 0.074 0.209 0.106 0.127 0.056 0.241 0.156 0.365 0.222 0.082 0.045 0.196 0.098 0.267 0.151 0.166 0.13 0.359 0.241 0.521 0.383 0.193 0.172 0.418 0.246 0.64 0.373 0.058 0.032 0.137 0.063 0.166 0.127 0.069-0.018 0.225 0.016 0.285 0.029 0.145 0.034 0.267 0.087 0.378 0.172 0.082 0.061 0.148 0.137 0.233 0.198 0.071 0.050 0.151 0.090 0.222 0.135 0.098 0.058 0.196 0.148 0.272 0.225 0.090 0.090 0.156 0.137 0.264 0.201 0.103 0.061 0.193 0.137 0.283 0.211 0.037 0.085 0.069 0.169 0.111 0.254 0.063 0.124 0.159 0.241 0.198 0.378 0.024 0.085 0 0.159-0.005 0.246-0.008 0.135 0.003 0.243-0.034 0.378-0.082 0.307-0.293 0.539-0.41 0.83-0.040 0.103-0.074 0.238-0.056 0.349 0.011 0.071 0.056 0.135 0.063 0.211 0.016 0.159-0.071 0.272-0.143 0.402-0.026 0.045-0.034 0.079-0.077 0.108-0.063 0.008-0.124 0.016-0.188 0.026-0.13 0.024-0.259 0.042-0.388 0.050-0.092 0.011-0.143 0.037-0.238 0.037-0.206-0.003-0.418-0.011-0.624-0.018-0.008-0.066-0.008-0.14-0.016-0.188-0.029-0.209-0.085-0.439-0.145-0.645-0.050-0.172-0.111-0.344-0.166-0.515-0.048-0.145-0.085-0.288-0.164-0.423-0.048-0.082-0.077-0.225-0.151-0.283-0.032-0.026-0.069-0.005-0.087-0.056 0.132-0.1 0.307-0.156 0.444-0.248 0.074-0.050 0.148-0.090 0.222-0.137 0.122-0.074 0.209-0.19 0.309-0.285 0.056-0.053 0.116-0.114 0.177-0.161 0.135-0.103 0.304-0.151 0.428-0.27 0.085-0.082 0.235-0.164 0.291-0.272-0.071-0.092-0.309 0.174-0.351 0.198-0.127 0.074-0.293 0.098-0.431 0.164-0.201 0.095-0.436 0.127-0.618 0.256-0.108 0.079-0.18 0.18-0.288 0.259-0.124 0.087-0.211 0.219-0.344 0.299-0.27 0.164-0.597-0.085-0.758-0.293-0.082-0.106-0.182-0.201-0.264-0.307-0.085-0.106-0.13-0.188-0.243-0.256-0.063-0.040-0.206-0.106-0.267-0.124 0.058-0.040 0.095-0.132 0.122-0.196 0.040-0.092 0.074-0.159 0.14-0.235 0.087-0.103 0.137-0.256 0.143-0.391 0-0.069 0.018-0.14 0.016-0.206 0-0.045-0.018-0.087-0.026-0.132-0.016-0.1-0.008-0.217 0-0.32 0.011-0.174 0.050-0.378-0.003-0.552 0.037 0.18-0.114 0.349-0.161 0.507-0.040 0.127-0.071 0.262-0.103 0.391-0.034 0.132-0.108 0.256-0.143 0.388-0.013 0.050 0 0.111-0.018 0.161-0.024 0.058-0.071 0.106-0.098 0.166-0.056 0.132-0.127 0.359-0.259 0.425-0.106 0.053-0.206 0.034-0.317 0.029-0.159-0.005-0.299 0.045-0.447 0.095-0.127 0.042-0.233 0.024-0.365 0.008-0.225-0.024-0.462-0.106-0.684-0.029-0.135 0.045-0.198 0.048-0.33-0.011-0.093-0.042-0.172-0.082-0.275-0.085-0.085-0.005-0.148 0.029-0.23 0.040-0.095 0.013-0.198-0.024-0.296-0.021-0.143 0.003-0.28-0.016-0.423-0.011-0.127 0.008-0.513 0.008-0.47 0.217 0.026 0.137 0.122 0.013 0.177-0.018 0.14-0.082 0.336-0.085 0.492-0.077s0.317-0.021 0.468 0c0.098 0.013 0.23 0.098 0.325 0.071 0.093 0.174 0.288 0.235 0.415 0.37 0.037 0.040 0.040 0.053 0.063 0.106 0.026 0.069 0.087 0.106 0.124 0.164 0.050 0.074 0.071 0.188 0.098 0.275 0.042 0.137 0.066 0.317 0.058 0.462 0 0.048-0.026 0.111-0.029 0.166 0 0.058 0.003 0.111 0.005 0.166 0.005 0.114 0.050 0.217 0.085 0.325 0.021 0.066 0.040 0.145 0.061 0.219-0.095-0.018-0.188-0.045-0.272-0.098-0.019 0.011-0.032 0.032-0.040 0.053-0.069-0.061-0.127-0.13-0.198-0.182-0.071-0.056-0.201-0.095-0.285-0.127-0.069-0.026-0.135-0.061-0.201-0.087-0.050-0.018-0.1-0.016-0.148-0.032-0.021-0.008-0.037-0.037-0.058-0.042-0.042-0.013-0.061-0.003-0.106-0.024-0.037-0.016-0.066-0.042-0.108-0.056-0.098-0.029-0.204-0.040-0.307-0.063-0.122-0.029-0.27-0.040-0.367-0.116-0.114-0.087-0.209-0.193-0.28-0.309-0.024-0.040-0.040-0.040-0.074-0.071-0.050-0.053-0.077-0.13-0.127-0.188-0.108-0.119-0.256-0.222-0.391-0.309-0.185-0.116-0.365-0.27-0.539-0.407-0.201-0.159-0.41-0.301-0.647-0.407-0.092-0.042-0.196-0.098-0.291-0.13-0.079-0.029-0.18-0.053-0.272-0.079-0.116-0.034-0.259-0.074-0.351-0.156-0.021-0.018-0.032-0.053-0.050-0.069-0.024-0.018-0.056-0.016-0.077-0.034-0.042-0.034-0.074-0.106-0.116-0.148-0.090-0.092-0.164-0.214-0.238-0.322-0.066-0.095-0.153-0.185-0.304-0.315 0.013 0.029 0.026 0.058 0.040 0.087 0.037 0.042 0.074 0.090 0.106 0.137 0.103 0.161 0.214 0.301 0.312 0.473 0.063 0.111 0.156 0.204 0.251 0.293 0.129 0.116 0.293 0.277 0.457 0.341 0.108 0.042 0.182 0.077 0.277 0.143 0.050 0.034 0.098 0.056 0.153 0.077 0.106 0.040 0.167 0.103 0.256 0.164 0.108 0.077 0.246 0.153 0.365 0.211 0.042 0.018 0.066 0.034 0.103 0.058 0.085 0.058 0.177 0.063 0.262 0.116 0.055 0.034 0.087 0.087 0.135 0.122 0.042 0.029 0.079 0.032 0.119 0.066 0.092 0.082 0.174 0.19 0.264 0.275 0.034 0.032 0.063 0.058 0.095 0.098 0.1 0.124 0.227 0.243 0.351 0.338 0.24 0.185 0.465 0.407 0.748 0.523 0.143 0.058 0.272 0.116 0.425 0.137 0.124 0.016 0.251 0.008 0.375 0.037 0.124 0.032 0.251 0.056 0.375 0.092-0.034 0.053-0.071 0.106-0.114 0.151-0.098 0.103-0.211 0.193-0.309 0.301-0.114 0.127-0.198 0.28-0.28 0.428-0.082 0.153-0.177 0.291-0.28 0.431-0.056 0.071-0.103 0.148-0.164 0.217-0.066 0.074-0.145 0.132-0.211 0.206-0.056 0.069-0.090 0.145-0.135 0.219-0.103 0.169-0.233 0.32-0.349 0.476-0.344 0.452-0.69 0.906-0.967 1.403 0.328-0.415 0.671-0.814 0.978-1.247 0.119-0.169 0.185-0.365 0.312-0.531s0.275-0.32 0.42-0.47c0.264-0.272 0.536-0.547 0.777-0.838 0.122-0.145 0.243-0.288 0.373-0.425 0.045-0.050 0.074-0.063 0.14-0.085 0.061-0.018 0.122-0.037 0.18-0.056 0.050-0.011 0.087-0.034 0.119-0.071 0.045-0.013 0.143-0.013 0.188 0 0.063 0.018 0.085 0.048 0.137 0.095 0.119 0.114 0.209 0.248 0.375 0.299 0.188 0.055 0.391 0.082 0.587 0.106 0.272 0.032 0.547 0.093 0.822 0.103-0.021 0.087 0.008 0.143 0.024 0.225 0.013 0.095-0.016 0.174-0.063 0.254-0.053 0.087-0.074 0.153-0.177 0.172-0.111 0.016-0.196-0.008-0.301-0.037-0.13-0.037-0.209-0.018-0.309-0.119-0.090-0.093-0.098-0.106-0.222-0.093s-0.259-0.032-0.386-0.050c-0.137-0.018-0.307-0.079-0.444-0.061 0.256 0.082 0.492 0.19 0.735 0.301 0.116 0.053 0.23 0.087 0.354 0.116 0.085 0.026 0.169 0.050 0.256 0.071 0.008 0 0.013 0.003 0.021 0.003-0.021 0.008-0.040 0.016-0.056 0.024-0.048 0.032-0.116 0.106-0.148 0.156-0.024 0.042-0.032 0.085-0.061 0.124-0.024 0.037-0.048 0.045-0.061 0.087-0.016 0.050-0.008 0.061-0.040 0.103-0.037 0.048-0.116 0.071-0.164 0.111-0.071 0.066-0.122 0.085-0.214 0.116-0.079 0.029-0.122 0.069-0.185 0.114-0.061 0.042-0.122 0.061-0.182 0.098-0.145 0.085-0.299 0.188-0.425 0.275-0.063 0.045-0.143 0.079-0.188 0.135-0.021 0.024-0.032 0.069-0.053 0.098-0.032 0.048-0.087 0.077 0.116-0.024 0.132-0.029 0.172-0.14 0.283-0.203 0.085-0.048 0.209-0.071 0.293-0.108 0.156-0.063 0.333-0.145 0.478-0.238 0.085-0.053 0.151-0.122 0.23-0.18 0.127-0.095 0.285-0.137 0.381-0.272 0.053-0.074 0.061-0.132 0.066-0.222 0-0.013 0.005-0.082 0.008-0.093 0.008-0.026 0.050-0.050 0.045-0.077 0-0.008-0.005-0.011-0.011-0.016 0.026 0.003 0.056 0.003 0.079 0.008 0.153 0.024 0.291 0.071 0.447 0.071 0.024-0.063-0.021-0.124-0.029-0.185-0.011-0.077 0.016-0.161 0.040-0.235 0.042-0.14 0.079-0.254 0.159-0.378 0.045-0.069 0.016-0.079 0.106-0.077 0.124 0.003 0.256 0.018 0.381 0.021 0.18 0.005 0.351 0.034 0.523-0.003 0.098 0.114 0.061 0.296 0.103 0.428 0.021 0.077 0.042 0.095 0.024 0.172-0.026 0.106-0.151 0.227-0.238 0.288-0.069 0.053-0.161 0.087-0.251 0.074-0.108-0.016-0.196-0.090-0.312-0.082-0.011 0.048 0.1 0.161 0.135 0.196 0.074 0.069 0.127 0.079 0.233 0.116 0.085 0.029 0.137 0.058 0.227 0.055 0.114-0.008 0.23-0.026 0.344-0.005 0.198 0.037 0.367 0.164 0.566 0.198 0.132 0.024 0.275 0.071 0.412 0.066 0.092-0.005 0.209-0.042 0.285 0.034-0.034 0.061-0.045 0.074-0.061 0.148-0.050 0.214-0.124 0.439-0.151 0.658-0.013 0.1 0.026 0.111 0.056 0.196 0.026 0.082 0.021 0.169 0.008 0.251-0.032 0.251-0.328 0.291-0.526 0.357-0.193 0.063-0.362 0.011-0.563 0.011-0.13-0.003-0.243-0.026-0.373-0.053-0.293-0.058-0.581-0.011-0.88-0.018-0.225-0.005-0.425-0.005-0.637-0.079-0.032-0.013-0.092-0.034-0.156-0.053 0.013-0.037 0.026-0.074 0.042-0.111 0.037-0.082 0.066-0.169 0.087-0.256 0.016-0.058 0.013-0.119 0.024-0.177 0.008-0.061 0.003-0.137 0.016-0.196 0.016-0.077 0.026-0.090 0.018-0.166-0.008-0.050-0.005-0.069 0-0.119 0.016-0.024 0.026-0.037 0.034-0.045-0.048 0.034-0.056 0.077-0.090 0.122-0.018 0.021-0.042 0.037-0.058 0.061-0.048 0.074-0.053 0.159-0.063 0.238-0.021 0.161-0.087 0.33-0.169 0.478-0.114 0.209-0.275 0.423-0.359 0.647-0.016 0.042-0.016 0.090-0.034 0.135-0.018 0.040-0.045 0.069-0.063 0.111-0.024 0.058-0.037 0.137-0.050 0.193-0.008 0.032-0.032 0.040-0.018 0.085-0.108 0.045-0.19 0.185-0.264 0.272-0.148 0.174-0.243 0.399-0.394 0.566-0.248 0.275-0.751 0.18-1.012 0.433 0.13 0.008 0.248-0.050 0.367-0.087 0.061-0.018 0.145-0.026 0.174-0.090-0.066 0.050-0.103 0.23-0.127 0.312-0.034 0.114-0.061 0.241-0.077 0.354-0.011 0.087-0.050 0.153-0.061 0.241-0.011 0.077-0.071 0.19-0.061 0.262 0.061-0.042 0.074-0.143 0.095-0.214 0.034-0.122 0.1-0.256 0.172-0.359 0.048-0.069 0.098-0.164 0.159-0.225 0.021-0.024 0.061-0.050 0.087-0.069 0.024-0.013 0.048-0.026 0.071-0.040 0.011-0.016 0.016-0.034 0.019-0.055 0.040-0.042 0.074-0.093 0.114-0.137 0.066-0.079 0.151-0.13 0.211-0.217 0.048-0.069 0.079-0.151 0.14-0.203 0.079-0.074 0.14-0.087 0.185-0.185 0.119 0.008 0.233 0.037 0.362 0.037 0.164 0 0.254 0.074 0.386 0.156 0.066 0.040 0.122 0.090 0.19 0.13 0.048 0.024 0.066 0.058 0.106 0.085 0.048 0.032 0.106 0.037 0.156 0.066 0.092 0.050 0.169 0.127 0.27 0.166 0.124 0.050 0.238 0.145 0.349 0.233 0.048 0.037 0.106 0.058 0.159 0.103 0.048 0.040 0.082 0.095 0.13 0.137 0.069 0.058 0.145 0.106 0.209 0.172 0.029 0.032 0.058 0.069 0.092 0.093-0.040 0.016-0.077 0.029-0.114 0.050-0.145 0.079-0.291 0.177-0.412 0.285-0.174 0.148-0.341 0.307-0.502 0.47-0.016 0.005-0.032 0.011-0.050 0.016-0.085 0.024-0.106 0.021-0.085 0.103-0.034 0.032-0.066 0.069-0.095 0.106 0.032-0.032 0.063-0.063 0.098-0.095 0.018 0.063 0.040 0.13 0.061 0.19 0.021 0.055 0.053 0.069 0.079 0.114 0.061 0.1 0.061 0.235 0.124 0.336 0.053 0.079 0.071 0.172 0.127 0.251 0.042 0.055 0.098 0.098 0.137 0.159 0.026 0.042 0.040 0.087 0.071 0.127 0.071 0.093 0.193 0.153 0.28 0.227 0.061 0.053 0.114 0.111 0.177 0.161 0.135 0.098 0.272 0.225 0.357 0.37 0.085 0.151 0.201 0.291 0.299 0.436 0.050 0.079 0.108 0.145 0.164 0.219 0.042 0.053 0.085 0.087 0.13 0.13-0.079 0-0.18-0.008-0.243 0.018 0.050 0.040 0.13 0.066 0.188 0.058 0.032-0.005 0.061-0.029 0.092-0.034 0.048-0.008 0.122 0.005 0.172-0.003 0.222-0.032 0.433-0.106 0.647-0.177 0.069-0.024 0.1-0.058 0.161-0.095 0.106-0.061 0.254-0.079 0.37-0.116 0.267-0.085 0.539-0.166 0.788-0.293 0.135-0.066 0.246-0.172 0.367-0.267 0.148-0.116 0.291-0.238 0.418-0.373 0.082-0.090 0.156-0.188 0.233-0.28-0.034 0.13-0.066 0.256-0.116 0.381-0.116 0.288-0.248 0.581-0.41 0.848-0.227 0.375-0.354 0.806-0.571 1.187-0.058 0.103-0.137 0.185-0.196 0.288-0.087 0.153-0.177 0.304-0.259 0.457-0.063 0.119-0.1 0.243-0.177 0.357-0.037 0.053-0.071 0.132-0.108 0.177-0.029 0.032-0.082 0.053-0.116 0.077-0.045 0.029-0.106 0.093-0.156 0.124-0.108 0.063-0.222 0.127-0.336 0.182-0.256 0.132-0.494 0.299-0.743 0.447-0.156 0.095-0.317 0.188-0.47 0.285-0.005-0.069-0.005-0.137-0.013-0.211-0.011-0.095-0.050-0.201-0.058-0.299-0.016-0.156 0.032-0.299 0.066-0.452 0.021-0.085 0.048-0.151 0.077-0.23 0.026-0.069 0.013-0.153 0.048-0.217-0.222 0.196-0.307 0.359-0.349 0.55-0.029 0.127-0.048 0.28-0.021 0.407 0.018 0.085 0.029 0.18 0.037 0.267 0.013 0.166 0.029 0.33 0 0.497-0.034 0.185-0.037 0.407-0.003 0.592 0.029 0.148 0.053 0.283 0.1 0.428 0.034 0.114 0.092 0.203 0.145 0.309 0.069-0.058 0.013-0.169 0.024-0.243 0.008-0.058 0.024-0.061 0.018-0.127-0.005-0.063 0.008-0.132 0-0.196s-0.034-0.119-0.042-0.182c-0.016-0.116-0.029-0.246-0.016-0.367 0.013-0.124 0.045-0.262 0.008-0.383 0-0.005 0-0.008 0-0.013 0.058-0.032 0.119-0.095 0.182-0.127 0.156-0.085 0.317-0.159 0.481-0.227 0.153-0.063 0.315-0.116 0.452-0.214 0.050-0.037 0.092-0.074 0.145-0.103 0.156-0.085 0.307-0.143 0.481-0.196 0.214-0.066 0.391-0.153 0.492-0.357 0.003-0.005 0.003-0.008 0.003-0.013 0.082 0.188 0.198 0.367 0.285 0.542 0.050 0.103 0.122 0.188 0.198 0.272 0.122 0.137 0.214 0.317 0.322 0.473 0.074 0.103 0.153 0.203 0.23 0.304-0.013-0.011-0.024-0.018-0.034-0.029-0.016-0.013-0.032-0.024-0.048-0.037l0.122 0.124c0.011 0.013 0.024 0.029 0.034 0.042 0.026 0.042 0.050 0.079 0.092 0.108 0.003 0.003 0.011 0.005 0.016 0.008 0.095 0.135 0.185 0.293 0.248 0.441 0.111 0.256 0.391 0.46 0.576 0.666 0.032 0.040 0.045 0.077 0.074 0.116 0.029 0.034 0.024 0.061 0.085 0.045 0.037-0.011 0.090-0.093 0.119-0.114 0.066-0.050 0.143-0.063 0.211-0.095 0.185-0.087 0.362-0.156 0.558-0.219 0.132-0.042 0.248-0.082 0.373-0.151 0.153-0.079 0.285-0.177 0.449-0.235 0.061-0.021 0.111-0.063 0.166-0.090-0.275 0.087-0.55 0.174-0.825 0.264-0.093-0.061-0.177-0.135-0.277-0.185-0.143-0.071-0.301-0.082-0.449-0.124-0.090-0.029-0.164-0.048-0.243-0.087-0.050-0.024-0.116-0.058-0.172-0.069-0.074-0.011-0.145 0.013-0.222-0.008-0.061-0.016-0.127-0.034-0.19-0.053-0.124-0.037-0.293-0.074-0.41-0.13-0.050-0.024-0.092-0.053-0.135-0.087-0.008-0.011-0.018-0.021-0.024-0.032-0.034-0.055-0.042-0.119-0.074-0.177-0.050-0.093-0.079-0.193-0.13-0.283-0.119-0.214-0.235-0.423-0.365-0.629-0.082-0.13-0.122-0.277-0.209-0.407-0.058-0.087-0.108-0.172-0.161-0.256-0.045-0.071-0.074-0.148-0.1-0.225 0.018-0.032 0.037-0.066 0.053-0.093 0.143-0.277 0.27-0.563 0.41-0.843 0.103-0.206 0.241-0.394 0.386-0.573 0.048 0.024 0.085 0.058 0.122 0.098 0.082 0.087 0.124 0.196 0.193 0.291 0.026 0.037 0.053 0.048 0.066 0.106 0.011 0.055 0.003 0.114 0.003 0.169 0 0.137 0.016 0.145 0.13 0.145 0.201 0 0.378-0.050 0.573-0.061 0.256-0.016 0.494-0.119 0.737-0.198 0.235-0.074 0.468-0.151 0.703-0.225 0.071-0.024 0.166-0.034 0.233-0.071 0.042-0.024 0.045-0.050 0.085-0.071 0.135-0.074 0.317-0.1 0.465-0.148 0.13-0.042 0.259-0.082 0.388-0.124 0 0 0 0 0.003 0 0.003 0.003 0.003 0.008 0.008 0.013 0-0.005 0-0.013 0.003-0.018 0.093-0.029 0.185-0.063 0.277-0.090 0.209-0.053 0.351 0.098 0.555 0.093 0.026 0.013 0.050 0.008 0.071-0.013 0.024-0.008 0.040 0 0.048 0.024 0.127 0.021 0.233 0.061 0.37 0.061 0.161 0.003 0.307 0.029 0.462 0.055 0.079 0.013 0.159 0.021 0.241 0.024 0.050 0.008 0.103 0.003 0.151-0.016 0.116 0.013 0.225 0.082 0.351 0.085 0.137 0.003 0.28-0.021 0.418-0.029 0.093-0.005 0.225-0.003 0.317 0.055 0.008 0.095 0.021 0.193 0.045 0.288 0.026 0.114 0.029 0.219 0.066 0.333 0.063 0.182 0.077 0.383 0.098 0.573 0.013 0.108-0.013 0.214-0.005 0.32 0.011 0.106 0.063 0.217 0.098 0.317 0.040 0.124 0.069 0.402 0.18 0.47-0.011-0.476-0.048-0.946-0.018-1.422 0.011-0.169-0.008-0.341 0.005-0.507 0.016-0.166 0.021-0.32-0.003-0.486-0.018-0.122-0.040-0.235-0.050-0.359-0.008-0.079-0.024-0.148-0.048-0.225-0.071-0.206-0.108-0.394-0.124-0.608-0.013-0.164-0.034-0.338-0.071-0.499-0.021-0.093-0.077-0.251 0.018-0.309 0.135-0.085 0.317 0.021 0.455 0.048 0.182 0.034 0.37 0.011 0.552-0.016 0.106-0.016 0.14-0.026 0.227 0.018 0.058 0.032 0.093 0.058 0.159 0.074 0.238 0.053 0.47 0.061 0.714 0.048 0.169-0.011 0.27-0.077 0.423-0.1 0.074 0.132 0.13 0.27 0.214 0.396 0.1 0.148 0.137 0.307 0.19 0.478 0.079 0.248 0.159 0.497 0.241 0.743 0.14 0.444 0.267 0.888 0.457 1.311 0.103 0.23 0.243 0.396 0.439 0.555 0.069 0.058 0.159 0.103 0.214 0.172 0.111 0.14 0.145 0.346 0.256 0.492 0.132 0.169 0.283 0.328 0.436 0.478-0.061-0.071-0.071-0.151-0.114-0.227-0.045-0.074-0.085-0.122-0.108-0.209-0.034-0.116-0.090-0.201-0.156-0.301-0.053-0.077-0.093-0.164-0.143-0.238-0.061-0.087-0.151-0.182-0.219-0.267-0.1-0.119-0.143-0.211-0.206-0.362-0.066-0.156-0.111-0.32-0.164-0.481-0.077-0.238-0.153-0.478-0.23-0.716-0.061-0.19-0.1-0.402-0.193-0.579-0.053-0.103-0.135-0.188-0.196-0.285-0.050-0.082-0.087-0.19-0.127-0.277-0.135-0.296-0.211-0.605-0.185-0.928-0.040 0.021-0.085 0.021-0.132 0.005-0.063-0.008-0.127-0.016-0.19-0.021 0.164-0.108 0.325-0.217 0.468-0.338 0.071-0.061 0.127-0.137 0.188-0.209 0.122-0.151 0.296-0.288 0.436-0.425 0.193-0.185 0.386-0.37 0.581-0.552 0.137-0.13 0.256-0.267 0.394-0.396 0.135-0.124 0.217-0.299 0.299-0.46 0.042-0.085 0.093-0.161 0.137-0.243 0.040-0.069 0.042-0.148 0.082-0.217 0.063-0.114 0.127-0.23 0.196-0.344 0.087-0.151 0.114-0.33 0.196-0.478 0.061-0.108 0.222-0.1 0.328-0.108 0.241-0.016 0.499 0.024 0.732-0.037 0.196-0.053 0.383-0.1 0.589-0.111 0.079-0.003 0.206-0.045 0.27-0.008 0.029 0.016 0.066 0.063 0.098 0.087 0.050 0.040 0.087 0.074 0.132 0.119 0.037 0.040 0.093 0.071 0.124 0.116 0.024 0.034 0.029 0.085 0.053 0.122 0.037 0.058 0.108 0.098 0.148 0.151 0.042 0.061 0.063 0.119 0.111 0.18 0.040 0.050 0.085 0.098 0.127 0.148 0.079 0.095 0.164 0.198 0.251 0.283 0.251 0.243 0.605 0.365 0.867 0.608 0.116 0.106 0.188 0.235 0.296 0.346 0.026 0.029 0.119 0.114 0.166 0.106 0.011-0.063-0.093-0.116-0.132-0.156-0.124-0.127-0.219-0.27-0.314-0.418-0.116-0.182-0.238-0.367-0.367-0.544-0.082-0.116-0.209-0.285-0.322-0.37-0.182-0.13-0.349-0.291-0.505-0.449-0.048-0.048-0.077-0.106-0.103-0.166-0.042-0.103-0.093-0.161-0.174-0.233-0.077-0.069-0.241-0.135-0.291-0.217-0.016-0.026-0.029-0.082-0.034-0.111-0.011-0.066 0.005-0.058 0.016-0.114 0.013-0.061 0-0.116 0.016-0.18 0.032-0.119 0.095-0.233 0.151-0.341 0.114-0.222 0.241-0.444 0.375-0.655 0.095-0.151 0.198-0.28 0.314-0.415 0.090-0.103 0.153-0.222 0.235-0.328 0.071-0.093 0.116-0.198 0.185-0.291 0.032-0.040 0.063-0.058 0.085-0.111 0.040-0.103 0.108-0.174 0.172-0.275 0.14-0.225 0.344-0.423 0.505-0.634 0.069-0.087 0.148-0.164 0.214-0.254 0.045-0.058 0.085-0.122 0.124-0.182-0.053 0.058-0.116 0.119-0.135 0.137-0.087 0.077-0.193 0.127-0.288 0.188-0.206 0.137-0.328 0.32-0.478 0.502-0.119 0.145-0.172 0.33-0.293 0.47-0.048 0.055-0.114 0.093-0.156 0.148-0.079 0.1-0.14 0.246-0.198 0.359-0.085 0.159-0.193 0.312-0.275 0.476-0.071 0.137-0.127 0.283-0.211 0.415-0.061 0.098-0.135 0.185-0.182 0.291-0.069 0.143-0.124 0.293-0.156 0.447-0.013 0.069-0.008 0.148-0.042 0.211-0.087 0.153-0.285 0.196-0.441 0.243-0.325 0.106-0.637 0.222-0.983 0.193-0.085-0.008-0.259-0.069-0.381-0.063 0-0.005 0-0.008 0-0.011-0.003-0.153-0.053-0.299-0.066-0.449-0.008-0.124 0.008-0.251-0.008-0.375-0.013-0.108-0.037-0.214-0.040-0.333-0.003-0.095 0.026-0.185 0.003-0.28-0.018-0.090-0.058-0.182-0.087-0.27-0.063-0.198-0.103-0.367-0.108-0.579-0.008-0.238-0.005-0.497 0.055-0.727 0.058 0.034 0.111 0.077 0.145 0.111 0.063 0.066 0.090 0.137 0.164 0.198 0.074 0.058 0.124 0.106 0.211 0.137 0.23 0.087 0.336 0.135 0.592 0.1 0.135-0.016 0.344-0.013 0.455-0.074-0.045-0.029-0.103-0.018-0.153-0.029-0.090-0.021-0.193-0.069-0.275-0.111-0.169-0.093-0.325-0.153-0.46-0.285-0.087-0.082-0.18-0.161-0.267-0.235-0.032-0.026-0.085-0.063-0.124-0.079-0.13-0.058-0.328-0.114-0.46-0.143-0.351-0.077-0.721 0.018-1.070 0.037-0.082 0.003-0.151-0.024-0.23-0.045-0.159-0.045-0.317-0.058-0.468-0.132-0.13-0.061-0.211-0.1-0.351-0.127-0.272-0.053-0.547-0.124-0.809-0.211-0.124-0.040-0.124-0.061-0.222-0.005-0.055 0.032-0.103 0.061-0.166 0.087 0.119-0.058 0.201-0.174 0.288-0.259 0.132-0.13 0.248-0.312 0.322-0.481 0.042-0.1 0.032-0.214 0.021-0.325-0.013-0.132-0.005-0.233 0.021-0.365 0.032-0.156 0.119-0.243 0.203-0.375 0.048-0.071 0.082-0.153 0.13-0.225 0.085-0.13 0.222-0.301 0.248-0.46 0.011-0.069 0.003-0.137 0.016-0.206 0.018-0.135 0.040-0.256 0.034-0.394-0.005-0.211 0.040-0.418 0-0.626-0.055 0.225-0.217 0.407-0.246 0.632-0.013 0.106-0.026 0.211-0.061 0.309-0.021 0.061-0.061 0.114-0.077 0.174-0.018 0.074-0.024 0.124-0.058 0.196-0.061 0.13-0.103 0.277-0.13 0.42-0.021 0.103-0.045 0.206-0.048 0.312-0.003 0.132-0.045 0.206-0.114 0.309-0.151 0.225-0.317 0.436-0.473 0.658-0.114 0.161-0.285 0.262-0.394 0.42-0.069 0.103-0.198 0.143-0.312 0.145-0.172 0.005-0.309-0.024-0.441-0.137-0.087-0.071-0.177-0.116-0.277-0.174-0.005-0.005-0.011-0.008-0.016-0.013 0-0.008 0.003-0.018 0.003-0.026 0.005-0.143 0.024-0.317 0.103-0.444 0.050-0.077 0.106-0.14 0.172-0.204 0.122-0.116 0.201-0.238 0.296-0.373 0.114-0.166 0.137-0.373 0.222-0.555 0.069-0.145 0.1-0.277 0.135-0.428 0.063-0.275 0.114-0.555 0.159-0.835 0-0.011 0.005-0.021 0.008-0.032-0.034 0.082-0.055 0.164-0.095 0.243-0.061 0.122-0.14 0.222-0.196 0.346-0.005 0.005-0.008 0.013-0.013 0.021-0.018-0.061-0.037-0.122-0.058-0.182-0.037-0.116-0.037-0.225-0.069-0.341-0.058-0.217-0.143-0.415-0.238-0.616-0.074-0.156-0.19-0.235-0.362-0.233-0.034 0-0.063 0.018-0.098 0.016-0.021-0.003-0.050-0.026-0.077-0.029-0.003-0.003-0.005 0-0.008 0 0.013-0.034 0.026-0.066 0.042-0.1-0.026 0.021-0.053 0.040-0.077 0.063-0.013 0.013-0.026 0.029-0.040 0.045-0.040 0.011-0.077 0.024-0.122 0.003 0.037 0.013 0.069 0.016 0.1 0.024-0.093 0.116-0.169 0.259-0.241 0.386-0.098 0.169-0.214 0.299-0.317 0.457-0.14 0.211-0.309 0.436-0.415 0.666-0.053 0.114-0.087 0.217-0.182 0.307-0.106 0.098-0.193 0.206-0.288 0.315-0.13 0.153-0.404 0.209-0.597 0.259-0.116 0.029-0.214 0.034-0.307-0.032-0.077-0.056-0.077-0.066-0.161-0.069-0.151-0.008-0.206-0.061-0.344-0.132-0.090-0.045-0.188-0.085-0.275-0.132-0.021-0.011-0.053-0.045-0.077-0.050-0.166-0.050-0.378 0.069-0.544 0.011-0.045-0.016-0.063-0.061-0.103-0.087-0.090-0.058-0.214-0.069-0.314-0.103-0.079-0.029-0.137-0.050-0.217-0.069-0.074-0.018-0.122-0.071-0.201-0.045-0.021-0.132 0.037-0.291 0.063-0.418 0.013-0.056 0.032-0.108 0.026-0.164-0.003-0.026-0.021-0.045-0.018-0.071 0-0.040 0.026-0.090 0.032-0.13 0.005-0.045 0.005-0.082 0.018-0.13 0.005-0.016 0.011-0.032 0.016-0.048 0.148-0.135 0.27-0.198 0.349-0.296 0.034-0.042 0.066-0.085 0.1-0.127-0.122 0-0.238 0.008-0.336 0.090-0.011 0.008-0.021 0.021-0.032 0.029 0-0.013 0.005-0.026 0.008-0.040 0.005-0.071-0.013-0.127 0.003-0.196 0.032-0.156 0.048-0.349 0.103-0.494 0.066-0.172 0.188-0.317 0.259-0.486 0.042-0.103 0.050-0.201 0.063-0.309 0.024-0.19-0.013-0.375 0.018-0.566 0.021-0.137 0.053-0.272 0.074-0.41 0.042 0.013 0.095 0.040 0.336 0.074 0.055 0 0.103 0.034 0.153 0.048 0.063 0.016 0.13 0.018 0.19 0.040 0.111 0.037 0.227 0.071 0.336 0.114 0.055 0.024 0.156 0.053 0.203 0.085 0.029 0.021 0.063 0.082 0.093 0.111 0.037 0.034 0.069 0.077 0.106 0.114 0.127 0.14 0.325 0.111 0.415 0.28 0.095-0.013 0.201 0.008 0.293 0.013 0.172 0.013 0.344 0.029 0.515 0.034 0.061 0.003 0.124-0.003 0.19-0.008-0.077 0.042-0.153 0.119-0.203 0.151-0.151 0.098-0.267 0.217-0.423 0.304-0.159 0.087-0.32 0.211-0.489 0.267-0.114 0.042-0.241 0.063-0.351 0.116-0.103 0.048-0.188 0.1-0.301 0.132-0.219 0.069-0.452 0.016-0.674 0.095-0.137 0.053-0.264 0.151-0.381 0.238-0.066 0.048-0.119 0.111-0.169 0.174 0.077 0.003 0.156 0.008 0.235 0 0.1-0.008 0.159 0 0.254-0.032 0.164-0.056 0.328-0.106 0.492-0.159 0.581-0.185 1.181-0.354 1.657-0.756 0.093-0.077 0.193-0.095 0.291-0.153 0.048-0.032 0.093-0.079 0.132-0.116 0.069-0.063 0.151-0.079 0.182-0.185-0.032-0.024-0.066-0.063-0.106-0.087 0.053-0.003 0.106-0.003 0.156 0.003 0.066 0.005 0.1 0.040 0.143 0.074 0.132 0.204 0.18 0.267 0.219 0.251 0.061-0.026 0.005-0.082-0.003-0.119-0.003-0.016 0-0.029-0.003-0.045 0 0 0 0 0 0 0.053 0.008 0.108-0.003 0.156 0.008 0.066 0.016 0.048 0.040 0.124 0.024 0.042-0.011 0.082-0.037 0.127-0.040 0.050-0.003 0.098 0.026 0.148 0.024 0.106-0.008 0.18-0.116 0.267-0.161 0.013-0.005 0.032-0.013 0.048-0.021-0.037-0.018-0.074-0.040-0.114-0.058-0.077-0.037-0.164-0.053-0.251-0.048-0.127 0.008-0.243 0.1-0.37 0.111-0.048 0.005-0.090-0.005-0.132-0.021 0.013-0.116 0.037-0.235 0.037-0.344 0-0.069-0.008-0.122 0.005-0.188 0.037-0.219 0.196-0.394 0.267-0.603 0.063-0.18 0.082-0.402 0.029-0.584-0.042-0.148-0.098-0.246-0.069-0.396 0.026-0.145 0.021-0.259 0.1-0.391z"></path>
<path d="M31.14 15.744c-0.026 0.032-0.048 0.063-0.069 0.098 0.040-0.045 0.074-0.085 0.069-0.098z"></path>
<path d="M10.469 10.747c-0.029 0.021-0.056 0.040-0.058 0.058 0.011-0.021 0.032-0.040 0.058-0.058z"></path>
<path d="M4.251 7.906c-0.034-0.021-0.066-0.045-0.090-0.069 0.019 0.034 0.053 0.056 0.090 0.069z"></path>
<path d="M4.251 7.906c0.061 0.040 0.135 0.069 0.209 0.098-0.032-0.019-0.061-0.037-0.098-0.056-0.032-0.019-0.074-0.029-0.111-0.042z"></path>
<path d="M1.005 11.592c0.058 0.048 0.111 0.090 0.156 0.13-0.003-0.011-0.008-0.018-0.011-0.029-0.032-0.042-0.090-0.103-0.145-0.1z"></path>
<path d="M9.002 18.12c0.005-0.005 0.011-0.008 0.016-0.013-0.003 0.003-0.008 0.005-0.016 0.013z"></path>
<path d="M17.018 30.091c0.021-0.005 0.040-0.013 0.061-0.018-0.021 0.003-0.042 0.011-0.061 0.018z"></path>
<path d="M13.801 29.352c-0.021-0.029-0.037-0.061-0.077-0.077z"></path>
<path d="M13.831 29.391c0.021 0.024 0.042 0.040 0.063 0.055l-0.092-0.095c0.008 0.013 0.018 0.026 0.029 0.040z"></path>
<path d="M22.926 12.448c-0.034 0.069-0.061 0.14-0.077 0.217 0.003-0.008 0.005-0.018 0.011-0.026 0.029-0.058 0.050-0.124 0.066-0.19z"></path>
<path d="M23.125 12.092c0.106-0.201 0.137-0.439 0.18-0.658 0.045-0.219-0.063-0.367-0.095-0.576-0.011 0.127-0.053 0.248-0.082 0.37-0.024 0.106-0.045 0.214-0.069 0.32-0.026 0.111-0.085 0.23-0.098 0.344-0.016 0.127 0.032 0.251 0.003 0.388-0.011 0.053-0.024 0.111-0.037 0.169 0.058-0.122 0.135-0.235 0.198-0.357z"></path>
<path d="M19.988 1c-0.050 0.172-0.124 0.315-0.108 0.489v0.003c0.003 0 0.003-0.003 0.003-0.005 0.058-0.161 0.053-0.33 0.106-0.486z"></path>
<path d="M14.427 6.973l0.040-0.053c-0.011 0.005-0.024 0.011-0.037 0.019 0 0.011-0.003 0.024-0.003 0.034z"></path>
</svg>
