<!-- Generated by IcoMoon.io -->
<svg version="1.1" xmlns="http://www.w3.org/2000/svg" width="26" height="32" viewBox="0 0 26 32">
<title>health</title>
<path d="M25.731 6.63c0 0.379 0 0.758 0 1.138-0.124 0.308-0.324 0.6-0.357 0.917-0.166 1.351-0.905 1.936-2.341 1.802-0.407-0.040-0.822-0.055-1.212-0.079-0.025 0.142-0.041 0.182-0.025 0.205 0.108 0.198 0.224 0.387 0.324 0.585 0.714 1.501 1.228 3.002 0.183 4.583-0.125 0.19-0.075 0.537 0 0.782 0.39 1.367 0.523 2.742 0.166 4.117-0.407 1.564-0.39 3.121-0.083 4.693 0.083 0.435 0.158 0.877 0.166 1.312 0.025 1.699-1.013 3.010-2.764 3.311-1.942 0.332-3.793-0.008-5.578-0.853-1.419-0.672-2.855-1.407-4.374-1.786-2.083-0.521-3.752-1.407-5.063-3.074-0.739-0.948-0.872-2.197-1.926-2.994-0.531-0.403-0.955-1.177-1.054-1.833-0.357-2.489-0.208-4.97 0.722-7.356 0.174-0.458 0.664-0.798 0.872-1.256 0.191-0.403 0.216-0.893 0.232-1.343 0-0.055-0.531-0.134-0.822-0.182-0.905-0.15-1.569-0.845-1.693-1.754-0.058-0.34-0.141-0.703-0.282-1.027-0.481-1.106-0.017-2.118 1.179-2.442 0.506-0.142 1.029-0.245 1.561-0.292 1.295-0.119 2.59-0.198 3.901-0.292-0.49-1.596-0.324-2.236 0.706-2.876 1.029-0.648 1.967-0.529 3.113 0.379 0.697-0.924 1.469-1.177 2.565-0.909 0.564 0.134 1.154 0.229 1.735 0.284 0.988 0.095 1.76 0.569 1.785 1.454 0.025 0.83 0.44 1.209 1.096 1.541 0.199 0.103 0.407 0.245 0.531 0.427 0.589 0.845 1.394 1.043 2.391 0.845 0.315-0.063 0.664 0.032 0.988 0 1.66-0.182 2.806 0.442 3.362 1.975zM18.326 9.419c-0.407 0.126-0.83 0.245-1.229 0.395-0.955 0.356-1.685 1.335-1.536 2.276 0.083 0.529 0.050 0.853-0.564 0.956 1.046 1.075 2.183 1.817 3.777 2.118-0.174-0.229-0.249-0.324-0.332-0.427-0.747-0.956-0.855-2.086-0.598-3.145 0.158-0.632 0.747-1.185 0.722-1.928 0.706-0.126 1.586-0.601 1.586 0.703 0 0.032 0.108 0.063 0.166 0.087 0.149 0.585 0.216 1.209 0.465 1.762 0.589 1.288 0.581 2.173-0.456 3.066-0.581 0.498-0.415 0.964-0.208 1.351 0.299 0.553 0.166 0.948-0.1 1.422-0.1 0.174 0 0.648 0.025 0.648 0.847 0.032 0.465 0.529 0.34 0.861-0.183 0.498-0.415 0.988-0.672 1.462-0.681 1.296-0.681 1.288-1.677 0.198-0.498-0.545-1.112-1.003-1.901-0.79-0.805 0.221-1.17 0.877-1.287 1.651-0.033 0.198-0.033 0.403-0.041 0.522 0.34 0 0.614 0 0.88 0-0.158 0.174-0.332 0.514-0.465 0.498-0.772-0.087-0.631 0.308-0.606 0.782 0.017 0.34-0.116 0.766-0.349 1.019-0.149 0.166-0.797 0.229-0.872 0.118-0.515-0.782-1.046-1.58-1.361-2.449-0.374-1.027-0.531-2.133-0.78-3.2-0.083-0.008-0.158-0.024-0.241-0.032-0.274 1.177-0.54 2.354-0.797 3.461-0.266-0.032-0.83-0.008-0.855-0.119-0.199-0.743-1.229-0.664-1.436-1.557-0.207-0.869-0.075-2.37 0.913-2.671 1.17-0.363 1.378-1.478 2.133-2.157 0.091-0.079 0.025-0.356-0.025-0.521-0.282-1.011-0.589-2.023-0.847-3.034-0.050-0.19 0.149-0.474 0.066-0.601-0.282-0.403-0.647-0.751-1.129-1.272 1.237 0.229 0.938-0.632 0.971-0.94 0.141-1.478 1.229-3.066-0.282-4.362 0.423-0.158 0.896-0.332 1.361-0.498-0.83-0.988-1.585-1.928-2.324-2.829 0.465-0.237 0.838-0.427 1.212-0.616-0.050-0.111-0.1-0.221-0.158-0.332-0.398 0.15-0.888 0.229-1.187 0.49-0.191 0.166-0.216 0.648-0.116 0.924 0.191 0.561 0.531 1.083 0.78 1.628 0.1 0.205 0.124 0.442 0.183 0.672-0.216-0.008-0.432 0.024-0.639-0.024-2.117-0.458-4.217-0.261-6.309 0.15-0.266 0.055-0.473 0.411-0.706 0.632 0.299 0.229 0.573 0.545 0.913 0.672 0.307 0.111 0.689 0.024 1.121 0.024-0.498 0.3-0.93 0.553-1.353 0.806h0.017c-0.357 0.727 0.091 0.901 0.706 0.885 0.282-0.008 0.564-0.205 0.855-0.221 0.199-0.016 0.564 0.095 0.589 0.205 0.249 1.201 0.564 2.41-0.374 3.516-0.515 0.608-1.461 1.090-0.946 2.133 0.008 0.008-0.058 0.047-0.058 0.071-0.149 1.683-0.382 3.358-0.423 5.041-0.025 1.003 0.598 1.77 1.552 2.268 0.191 0.103 0.39 0.324 0.44 0.529 0.564 2.213 2.059 3.563 4.267 4.314 1.594 0.545 3.121 1.256 4.715 1.786 1.444 0.482 2.93 0.909 4.424 1.225 1.644 0.348 3.378-1.003 2.963-3.042-0.34-1.667-0.481-3.358-0.058-5.057 0.365-1.47 0.357-2.939-0.166-4.385-0.191-0.521-0.141-0.932 0.241-1.446 0.324-0.435 0.482-1.169 0.332-1.675-0.29-1.011-0.838-1.952-1.287-2.923 0.125-1.288 0.125-1.288 1.527-1.241 0.357 0.008 0.714 0.047 1.079 0.063 0.324 0.008 0.648 0 0.971 0 0-0.103 0-0.205 0-0.308-1.378-0.284-2.772-0.466-4.192-0.142-0.473 0.095-0.905 0.363-1.353 0.553zM18.974 5.919c-1.004 0.324-1.859 0.917-2.615 0.205-0.938-0.885-1.81-0.474-2.731-0.111-0.058 0.024-0.133 0.008-0.199 0.024-1.336 0.403-2.001 1.383-1.834 2.718 0.108 0.869-0.398 1.825 0.44 2.592 0.050 0.047-0.091 0.261-0.1 0.403-0.017 0.316-0.091 0.885 0.017 0.917 0.631 0.213 0.772-0.363 1.038-0.735 0.017-0.024-0.008-0.071 0.008-0.095 0.141-0.253 0.274-0.514 0.432-0.751 0.789-1.177 2.656-0.924 3.329-2.283 0.066-0.134 0.415-0.182 0.631-0.198 2.067-0.158 4.134-0.284 6.201-0.458 0.506-0.040 1.004-0.221 1.511-0.34-0.183-0.253-0.374-0.506-0.531-0.766-0.066-0.103-0.050-0.237-0.1-0.356-0.241-0.632-0.697-0.932-1.428-0.893-0.988 0.055-1.992-0.024-2.972 0.087-0.589 0.063-0.88-0.111-1.229-0.521-0.465-0.537-1.062-0.964-1.602-1.438-0.033 0.047-0.075 0.087-0.108 0.134 0.564 0.585 1.154 1.169 1.843 1.865zM13.454 1.186c-0.739-0.158-1.029 0.142-1.17 0.679-0.125 0.49-0.158 1.051-0.457 1.43-0.506 0.648-0.133 0.719 0.398 0.751 1.029 0.063 0.548-0.687 0.523-1.051-0.041-0.703-0.183-1.367 0.706-1.809zM8.033 12.272c-0.091-0.521-0.863-0.845-0.432-1.509 0.083-0.119-0.017-0.348-0.033-0.521-0.191 0.095-0.473 0.15-0.573 0.3-0.548 0.861-1.087 1.738-1.552 2.647-0.125 0.253 0.033 0.624 0.025 0.94 0 0.15-0.075 0.3-0.116 0.45-1.129-0.308-0.755 0.521-0.722 0.948 0.058 0.743 0.257 1.478 0.365 2.22 0.033 0.205-0.125 0.442-0.075 0.64 0.091 0.379 0.266 0.735 0.398 1.106 0.191-0.229 0.423-0.435 0.573-0.687 0.365-0.624 0.681-1.28 1.046-1.896 0.498-0.845 1.17-1.628 1.511-2.521 0.241-0.648 0.34-1.185 1.295-1.106-0.041-0.111-0.083-0.213-0.133-0.324-0.382 0.032-0.755 0.063-1.146 0.095-0.108-0.19-0.382-0.466-0.432-0.782zM2.505 5.793c1.121-0.442 2.333-0.529 3.329 0.016 0.913 0.498 1.984 1.138 1.793 2.584 0.398-0.363 0.78-0.758 0.706-1.051-0.166-0.64 0.033-1.485-0.896-1.817-1.212-0.427-2.449-0.506-3.71-0.3-0.448 0.071-0.88 0.198-1.32 0.292 0.033 0.095 0.066 0.182 0.1 0.277zM2.513 7.27c0.315 0.087 0.473 0.332 0.971 0.213 1.104-0.277 2.092 0.079 2.175 1.225 0.008 0.134 0.191 0.261 0.291 0.387 0.125-0.158 0.349-0.3 0.365-0.466 0.1-1.106-1.054-2.031-2.2-1.786-0.54 0.119-1.079 0.284-1.61 0.427h0.008zM16.683 7.934c0.697-0.142 1.386-0.348 2.092-0.403 1.212-0.103 2.44-0.040 3.644-0.198 0.398-0.055 0.731-0.569 1.087-0.869-0.324-0.079-0.664-0.261-0.971-0.221-1.527 0.198-3.055 0.411-4.557 0.711-0.498 0.103-0.921 0.49-1.386 0.743 0.033 0.079 0.058 0.158 0.091 0.237zM13.595 8.092c-0.066 0.229 0.041 0.514 0.075 0.766 0.473-0.292 0.955-0.577 1.411-0.893 0.075-0.055 0.108-0.284 0.050-0.356-0.515-0.656-1.536-0.672-2.225 0.103 0.531-0.134 0.863-0.19 0.689 0.379z"></path>
</svg>
