<!-- Generated by IcoMoon.io -->
<svg version="1.1" xmlns="http://www.w3.org/2000/svg" width="26" height="32" viewBox="0 0 26 32">
<title>health_inverted</title>
<path d="M25.731 6.63v1.138c-0.124 0.308-0.324 0.6-0.357 0.917-0.166 1.351-0.905 1.936-2.341 1.802-0.407-0.040-0.822-0.055-1.212-0.079-0.025 0.142-0.041 0.182-0.025 0.205 0.108 0.198 0.224 0.387 0.324 0.585 0.714 1.501 1.228 3.002 0.183 4.583-0.125 0.19-0.075 0.537 0 0.782 0.39 1.367 0.523 2.742 0.166 4.117-0.407 1.564-0.39 3.121-0.083 4.693 0.083 0.435 0.158 0.877 0.166 1.312 0.025 1.699-1.013 3.010-2.764 3.311-1.942 0.332-3.793-0.008-5.578-0.853-1.419-0.672-2.855-1.407-4.374-1.786-2.083-0.521-3.752-1.407-5.063-3.074-0.739-0.948-0.872-2.197-1.926-2.994-0.531-0.403-0.955-1.177-1.054-1.833-0.357-2.489-0.208-4.97 0.722-7.356 0.174-0.458 0.664-0.798 0.872-1.256 0.191-0.403 0.216-0.893 0.232-1.343 0-0.055-0.531-0.134-0.822-0.182-0.905-0.15-1.569-0.845-1.693-1.754-0.058-0.34-0.141-0.703-0.282-1.027-0.481-1.106-0.017-2.118 1.179-2.442 0.506-0.142 1.029-0.245 1.561-0.292 1.295-0.119 2.59-0.198 3.901-0.292-0.49-1.596-0.324-2.236 0.706-2.876 1.029-0.648 1.967-0.529 3.113 0.379 0.697-0.924 1.469-1.177 2.565-0.909 0.564 0.134 1.154 0.229 1.735 0.284 0.988 0.095 1.76 0.569 1.785 1.454 0.025 0.83 0.44 1.209 1.096 1.541 0.199 0.103 0.407 0.245 0.531 0.427 0.589 0.845 1.394 1.043 2.391 0.845 0.315-0.063 0.664 0.032 0.988 0 1.66-0.182 2.806 0.442 3.362 1.975z"></path>
</svg>
