<!-- Generated by IcoMoon.io -->
<svg version="1.1" xmlns="http://www.w3.org/2000/svg" width="32" height="32" viewBox="0 0 32 32">
<title>heart_of_darkness</title>
<path d="M10.005 30.603c0-0.57 1.496-3.758 1.764-3.758 0.539 0 0.441 0.734-0.318 2.382-0.733 1.59-1.446 2.269-1.446 1.376zM21.155 30.386c-0.367-0.485-1.622-3.524-1.622-3.929 0-0.195 0.119-0.428 0.265-0.518 0.24-0.148 1.717 2.705 2.168 4.189 0.197 0.646-0.379 0.829-0.812 0.258zM13.799 28.431c-5.091-5.338-5.875-10.624-2.362-15.919 1.013-1.527 4.036-4.722 4.468-4.722 0.36 0 2.935 3.038 3.929 4.635 1.65 2.651 1.887 3.459 1.887 6.431 0 2.629-0.030 2.77-0.991 4.695-0.675 1.353-1.646 2.685-3.049 4.184-1.132 1.21-2.146 2.199-2.253 2.199s-0.841-0.677-1.63-1.504zM14.898 25.042c0-0.439-0.172-0.515-1.159-0.515s-1.159 0.076-1.159 0.515c0 0.439 0.172 0.515 1.159 0.515s1.159-0.076 1.159-0.515zM18.454 25.107c-0.067-0.349-0.346-0.451-1.238-0.451s-1.171 0.102-1.239 0.451c-0.074 0.382 0.115 0.451 1.239 0.451s1.312-0.069 1.238-0.451zM18.457 22.663c-0.068-0.48-0.267-0.59-1.177-0.653-1.020-0.071-1.094-0.031-1.094 0.577 0 0.604 0.089 0.653 1.177 0.653 1.072 0 1.169-0.052 1.094-0.577zM14.851 22.532c-0.097-0.513-1.902-0.793-2.333-0.362-0.462 0.462 0.079 0.813 1.256 0.813 0.968 0 1.148-0.075 1.077-0.451zM18.375 20.021c0-0.422-0.198-0.529-1.094-0.594-1.029-0.074-1.094-0.039-1.094 0.594s0.066 0.669 1.094 0.594c0.896-0.065 1.094-0.172 1.094-0.594zM14.851 19.957c-0.064-0.34-0.386-0.47-1.306-0.529-1.085-0.070-1.221-0.020-1.221 0.451 0 0.464 0.16 0.529 1.306 0.529 1.105 0 1.293-0.069 1.221-0.451zM14.77 16.926c0-0.431-0.176-0.51-1.137-0.51-1.272 0-1.708 0.508-0.751 0.874 1.004 0.384 1.888 0.213 1.888-0.365zM18.713 16.867c-0.064-0.34-0.387-0.47-1.306-0.529-1.085-0.070-1.221-0.020-1.221 0.451 0 0.464 0.16 0.529 1.306 0.529 1.105 0 1.293-0.069 1.221-0.451zM14.845 14.517c-0.055-0.292-0.41-0.442-1.171-0.497-0.946-0.069-1.092-0.010-1.092 0.434 0 0.39 0.201 0.534 0.837 0.599 1.124 0.115 1.522-0.034 1.427-0.536zM18.761 14.742c0-0.308-0.181-0.527-0.451-0.544-0.248-0.016-0.767-0.067-1.153-0.113-0.766-0.091-1.098 0.213-0.873 0.798 0.096 0.251 0.528 0.374 1.31 0.374 0.995 0 1.167-0.076 1.167-0.515zM14.852 12.232c0.075-0.528-0.021-0.579-1.094-0.579-0.969 0-1.177 0.083-1.177 0.472 0 0.692 0.262 0.849 1.278 0.763 0.72-0.061 0.928-0.198 0.993-0.656zM18.672 12.543c0.208-0.543 0.108-0.6-1.209-0.686-1.021-0.067-1.157-0.011-1.23 0.504-0.075 0.529 0.021 0.579 1.102 0.579 0.83 0 1.23-0.119 1.337-0.397zM21.198 12.041c-0.28-0.647-0.28-1.834 0.002-2.834l0.218-0.773 0.172 0.944c0.095 0.519 0.096 1.446 0.001 2.060-0.141 0.92-0.21 1.026-0.394 0.603zM19.539 10.816c0.006-0.655 0.844-2.626 1.213-2.854 0.291-0.18 0.013 1.695-0.404 2.725-0.346 0.855-0.816 0.93-0.808 0.129zM11.567 8.933c-0.329-0.793-0.765-1.506-0.97-1.585s-0.479-0.388-0.61-0.687c-0.13-0.299-0.335-0.718-0.455-0.931-0.593-1.050-0.813-1.572-0.813-1.928 0-0.214-0.103-0.39-0.23-0.39-0.315 0-0.579-1.152-0.381-1.667 0.111-0.288 0.406-0.396 0.939-0.342 0.808 0.081 0.964 0.25 1.609 1.752 0.213 0.496 0.486 1.075 0.607 1.288 0.442 0.778 0.733 2.014 0.546 2.317-0.106 0.172 0.090 0.816 0.438 1.439 0.347 0.62 0.593 1.323 0.546 1.562-0.173 0.891-0.647 0.571-1.227-0.827zM18.528 9.75c-0.234-0.283-0.127-0.5 0.516-1.041 1.032-0.869 1.221-0.686 0.498 0.483-0.647 1.047-0.62 1.032-1.014 0.558zM20.911 7.138c-0.441-1.149 0.641-4.088 2.026-5.505 0.725-0.741 0.833-0.78 1.057-0.381 0.548 0.979-0.835 4.478-2.254 5.705-0.576 0.498-0.697 0.525-0.829 0.181z"></path>
</svg>
