<!-- Generated by IcoMoon.io -->
<svg version="1.1" xmlns="http://www.w3.org/2000/svg" width="32" height="32" viewBox="0 0 32 32">
<title>heart_of_the_elders</title>
<path d="M16.216 2.020c0.303-0.078 0.71 0.381 0.87 0.574 0.237 0.288 0.334 0.598 0.456 0.931 0.087 0.237 0.185 0.411 0.153 0.676-0.025 0.211-0.124 0.422-0.184 0.623-0.137 0.458-0.227 0.899-0.437 1.333-0.313 0.642-0.709 1.238-0.976 1.897-0.055 0.136-0.159 0.25-0.18 0.4-0.020 0.135 0.052 0.287 0.038 0.429-0.042 0.407-0.052 0.643 0.1 1.024 0.092 0.231 0.264 0.417 0.383 0.636 0.177 0.324 0.326 0.633 0.58 0.906 0.482 0.521 1.067 0.993 1.428 1.61 0.058 0.098 0.144 0.248 0.18 0.362 0.039 0.119 0.108 0.245 0.14 0.338 0.087 0.256 0.186 0.496 0.203 0.772 0.015 0.289-0.033 0.629-0.25 0.842-0.192 0.19-0.459 0.304-0.632 0.48-0.373 0.381-1.089 0.843-1.252 1.375-0.083 0.27-0.137 0.644-0.045 0.923 0.069 0.212 0.362 0.466 0.271 0.72-0.192 0.043-0.656-0.324-0.812-0.432-0.231-0.16-0.508-0.532-0.588-0.784-0.238-0.758 0.19-1.228 0.662-1.746 0.373-0.411 0.968-0.695 1.222-1.22 0.33-0.681-0.127-1.396-0.605-1.853-0.197-0.188-0.351-0.409-0.562-0.58-0.304-0.247-0.535-0.589-0.836-0.838-0.303-0.251-0.606-0.45-0.836-0.791-0.212-0.311-0.414-0.661-0.531-1.033-0.148-0.474 0.095-0.959 0.092-1.422-0.001-0.479 0.062-0.973 0.198-1.435 0.069-0.24 0.232-0.381 0.387-0.575 0.18-0.226 0.223-0.387 0.464-0.56 0.314-0.227 0.629-0.504 0.818-0.856 0.090-0.166 0.413-0.501 0.384-0.693-0.023-0.145-0.3-0.295-0.402-0.366-0.359-0.251-0.638-0.617-0.848-1.006-0.091-0.168-0.177-0.426-0.14-0.619 0.023-0.122 0.161-0.408 0.28-0.493 0.145-0.102 0.517-0.081 0.638 0.026 0.131 0.117 0.199 0.381 0.169 0.427z"></path>
<path d="M14.225 5.239c-0.013 0.104-0.13 0.198-0.182 0.287-0.040 0.069-0.079 0.189-0.119 0.271-0.2 0.416-0.34 0.891-0.483 1.33-0.126 0.393-0.137 0.938-0.126 1.349 0.012 0.367 0.029 0.833 0.161 1.171 0.455 1.166 0.937 2.247 1.523 3.337 0.058 0.108 0.171 0.206 0.223 0.306 0.052 0.1 0.063 0.202 0.103 0.316 0.083 0.241 0.121 0.513 0.206 0.741 0.151 0.411-0.011 0.933-0.181 1.314-0.115 0.254-0.213 0.542-0.363 0.775-0.13 0.203-0.243 0.337-0.25 0.585-0.012 0.502 0.112 0.997 0.25 1.436 0.034 0.11 0.112 0.248 0.156 0.376 0.057 0.163 0.108 0.238 0.122 0.424 0.023 0.286 0.069 0.574 0.081 0.861 0.015 0.358-0.168 0.528-0.397 0.768-0.078 0.082-0.135 0.187-0.217 0.265-0.083 0.081-0.184 0.117-0.266 0.197-0.027-0.194 0.153-0.432 0.178-0.618 0.035-0.242-0.033-0.681-0.083-0.922-0.052-0.242-0.173-0.532-0.287-0.734-0.117-0.207-0.177-0.433-0.303-0.652-0.257-0.45-0.374-0.903-0.429-1.454-0.063-0.625 0.326-1.277 0.681-1.771 0.311-0.432 0.258-1.036 0.213-1.566-0.009-0.102 0.010-0.286-0.029-0.382-0.048-0.114-0.135-0.13-0.216-0.214-0.108-0.115-0.159-0.271-0.252-0.396-0.106-0.141-0.248-0.258-0.361-0.396-0.2-0.245-0.445-0.443-0.606-0.706-0.185-0.303-0.31-0.634-0.464-0.957-0.441-0.932-0.712-1.919-0.783-2.955-0.047-0.678 0.387-1.49 0.91-1.919 0.183-0.151 0.306-0.202 0.523-0.265 0.098-0.029 0.229-0.139 0.31-0.147 0.073-0.007 0.309 0.119 0.371 0.163 0.132 0.093 0.243 0.282 0.385-0.219z"></path>
<path d="M11.789 3.504c-0.024 0.291-0.116 0.605-0.159 0.899-0.045 0.315-0.15 0.6-0.231 0.905-0.073 0.277-0.050 0.561-0.078 0.843-0.096 0.977 0.010 1.92 0.097 2.895 0.059 0.657 0.117 1.194 0.387 1.792 0.212 0.466 0.425 0.938 0.552 1.406 0.062 0.228 0.147 0.419 0.168 0.663 0.020 0.261 0.044 0.523 0.071 0.783 0.044 0.458-0.165 0.872-0.432 1.234-0.239 0.325-0.443 0.441-0.792 0.583-0.174 0.071-0.33 0.142-0.557 0.137-0.199-0.004-0.41-0.087-0.613-0.151-0.296-0.092-0.885-0.306-0.978-0.627-0.175-0.601 0.18-0.811 0.565-1.149-0.319 0.354-0.498 1.205 0.198 1.13 0.521-0.057 1.014-0.061 1.37-0.502 0.17-0.209 0.137-0.473 0.145-0.722 0.004-0.155 0.064-0.187 0.087-0.325 0.029-0.177-0.073-0.333-0.144-0.48-0.211-0.446-0.494-0.801-0.746-1.209-0.124-0.2-0.208-0.397-0.298-0.598-0.106-0.237-0.107-0.485-0.199-0.741-0.094-0.262-0.115-0.535-0.211-0.796-0.101-0.275-0.060-0.567-0.14-0.847-0.034-0.122-0.102-0.163-0.127-0.322s-0.067-0.229-0.119-0.371c-0.052-0.144-0.039-0.279-0.061-0.43-0.024-0.176-0.121-0.303-0.158-0.474-0.049-0.24-0.077-0.566-0.071-0.809 0.005-0.229 0.091-0.473 0.134-0.686 0.041-0.204 0.054-0.369 0.125-0.576 0.053-0.151 0.099-0.269 0.159-0.415 0.166-0.417 0.354-0.74 0.643-1.079 0.177-0.207 0.474-0.439 0.773-0.329 0.209 0.076 0.328 0.426 0.639 0.368z"></path>
<path d="M17.382 8.654c0.002 0.319 0.072 0.562 0.113 0.867 0.039 0.274 0.033 0.421 0.316 0.57 0.203 0.107 0.445 0.117 0.649 0.181 0.256 0.082 0.503 0.131 0.759 0.196 0.257 0.064 0.601 0.112 0.865 0.135 0.115 0.009 0.238-0.027 0.352-0.009 0.189 0.030 0.319 0.11 0.516 0.117 0.595 0.020 1.147 0.294 1.727 0.459 0.721 0.207 1.481 0.485 2.082 0.944 0.3 0.228 0.735 0.438 0.954 0.751 0.117 0.166 0.105 0.363 0.151 0.557 0.052 0.214 0.154 0.412 0.17 0.634 0.035 0.461 0.106 0.919 0.102 1.384-0.001 0.223 0 0.448 0.001 0.672 0.004 0.305-0.063 0.556-0.098 0.856-0.042 0.362-0.079 0.728-0.142 1.086-0.073 0.42-0.104 0.784-0.246 1.19-0.139 0.396-0.313 0.797-0.506 1.166-0.113 0.218-0.334 0.334-0.475 0.527-0.153 0.208-0.192 0.362-0.409 0.53-0.54 0.417-1.038 0.74-1.643 1.012-0.483 0.217-0.991 0.411-1.514 0.567-0.619 0.184-1.196 0.203-1.833 0.203-0.228 0-0.479 0.028-0.706 0.002-0.219-0.025-0.397-0.155-0.601-0.209-0.247-0.066-0.443-0.107-0.669-0.253-0.204-0.131-0.374-0.293-0.618-0.353-0.261-0.066-0.346 0.016-0.435 0.271-0.074 0.214-0.158 0.463-0.161 0.703-0.009 0.506-0.217 0.91-0.216 1.406 0.001 0.144 0.006 0.29 0.001 0.432-0.005 0.168-0.069 0.277-0.1 0.432-0.055 0.276 0.045 0.584-0.019 0.856-0.024 0.105-0.087 0.149-0.101 0.277-0.016 0.139 0.002 0.294 0.002 0.435 0 0.142 0.011 0.29 0.003 0.432-0.009 0.164-0.091 0.276-0.117 0.433-0.025 0.156-0.040 0.28-0.078 0.432-0.029 0.119-0.084 0.253-0.108 0.348-0.068 0.281-0.127 0.468-0.27 0.704-0.101 0.168-0.177 0.334-0.347 0.464-0.107 0.081-0.541 0.382-0.587 0.13 0.269-0.106 0.688-0.021 0.972-0.024 0.305-0.001 0.551 0.091 0.85 0.106 0.701 0.035 1.364 0.216 2.061 0.219 0.236 0 0.566 0.061 0.354-0.246-0.14-0.203-0.364-0.289-0.548-0.43-0.405-0.309-0.56-0.809-0.667-1.271-0.132-0.57-0.219-1.078-0.219-1.681 0-0.269 0.004-0.537 0-0.807-0.004-0.28 0.094-0.543 0.161-0.811 0.059-0.238 0.208-0.546 0.482-0.603 0.211-0.043 0.601 0.161 0.803 0.238 0.751 0.283 1.586 0.194 2.397 0.203 0.885 0.012 1.776-0.39 2.641-0.551 0.367-0.068 0.726-0.243 1.036-0.422 0.322-0.185 0.712-0.237 1.024-0.456 1.257-0.885 1.805-2.419 2.131-3.86 0.076-0.337 0.199-0.648 0.295-0.976 0.073-0.257 0.030-0.504 0.082-0.763 0.098-0.489 0.084-0.963 0.084-1.463v-0.995c0-0.175-0.001-0.352 0.001-0.528 0.004-0.28-0.097-0.506-0.115-0.78-0.042-0.634-0.202-1.296-0.536-1.853-0.362-0.606-0.763-0.976-1.355-1.301-0.318-0.174-0.667-0.195-0.998-0.32-0.303-0.115-0.58-0.217-0.894-0.301-0.266-0.071-0.514-0.169-0.785-0.216-0.427-0.074-0.864-0.090-1.275-0.231-0.4-0.139-0.832-0.137-1.271-0.206-0.182-0.028-0.352-0.075-0.53-0.107-0.193-0.036-0.377 0.003-0.569-0.019-0.209-0.024-0.438-0.097-0.648-0.14-0.223-0.045-0.487-0.038-0.697-0.091-0.304-0.077-0.504-0.206-0.492-0.532 0.012-0.277 0.054-0.523 0.243-0.73 0.166-0.18 0.446-0.391 0.697-0.351-0.245-0.001-0.604-0.068-0.838-0.005-0.25 0.067-0.495 0.343-0.645 0.546-0.274 0.369-1.004 1.456 0.002 0.216z"></path>
<path d="M8.948 30.171c1.081 0 2.162-0.006 3.243 0 0.509 0.004 0.98-0.205 1.403-0.46 0.151-0.090 0.378-0.212 0.482-0.359 0.125-0.175 0.101-0.526 0.184-0.748 0.087-0.233 0.047-0.448 0.116-0.673 0.036-0.119 0.141-0.227 0.173-0.356 0.047-0.179 0.004-0.358 0.047-0.54 0.077-0.335 0.146-0.687 0.194-1.033 0.041-0.29 0.108-0.558 0.106-0.861-0.002-0.238 0.058-0.561 0.005-0.792-0.031-0.135-0.097-0.189-0.117-0.338-0.019-0.136 0.001-0.297 0.004-0.436 0.002-0.226-0.064-0.415-0.132-0.625-0.033-0.105-0.188-0.416-0.269-0.488-0.178-0.161-0.421 0.028-0.627 0.087-0.247 0.072-0.494 0.053-0.756 0.053-0.1 0-0.232-0.025-0.329-0.004-0.111 0.024-0.156 0.083-0.26 0.115-0.247 0.076-0.522 0.041-0.768 0.1-0.103 0.024-0.151 0.094-0.261 0.117-0.097 0.021-0.228-0.004-0.329-0.004-0.245 0-0.514 0.034-0.757 0.004-0.513-0.063-0.975-0.261-1.459-0.436-0.235-0.086-0.415-0.212-0.653-0.298-0.219-0.079-0.323-0.229-0.537-0.328-0.319-0.144-0.77-0.415-0.96-0.735-0.593-0.997-0.908-2.196-1.098-3.344-0.058-0.347-0.111-0.692-0.106-1.050 0.006-0.402-0.108-0.759-0.107-1.166 0.001-0.294-0.051-0.644 0.050-0.919 0.091-0.247 0.214-0.487 0.356-0.705 0.29-0.45 0.859-0.691 1.324-0.919 0.092-0.045 0.221-0.112 0.324-0.136 0.117-0.027 0.257-0.088 0.349-0.107 0.121-0.027 0.238 0 0.358-0.020 0.134-0.023 0.212-0.126 0.356-0.131 0.020-0.142 0.092-0.25 0.119-0.369 0.031-0.15-0.010-0.301 0.033-0.453 0.040-0.146 0.086-0.208 0.083-0.403-0.001-0.147 0.040-0.35 0.006-0.492-0.024-0.102-0.079-0.212-0.111-0.315-0.050-0.166-0.101-0.26-0.219-0.383-0.192-0.199-0.564-0.422-0.818-0.415 0.111 0.159 0.059 0.392 0.062 0.576 0.002 0.298-0.052 0.427-0.238 0.646-0.149 0.175-0.314 0.345-0.513 0.465-0.236 0.141-0.427 0.306-0.654 0.46-0.388 0.264-0.811 0.479-1.19 0.755-0.363 0.264-0.575 0.701-0.809 1.078-0.132 0.212-0.154 0.424-0.216 0.652-0.078 0.285-0.145 0.528-0.158 0.822-0.018 0.424-0.111 0.83-0.114 1.26-0.002 0.329 0.044 0.685 0.102 1.004 0.020 0.115 0.098 0.202 0.12 0.316 0.025 0.138-0.019 0.272 0.018 0.414 0.058 0.224 0.121 0.456 0.182 0.682 0.043 0.159 0.020 0.271 0.090 0.424 0.051 0.111 0.119 0.202 0.144 0.325 0.021 0.111-0.009 0.228 0.015 0.346 0.042 0.193 0.151 0.369 0.185 0.565 0.061 0.339 0.219 0.553 0.374 0.872 0.243 0.498 0.532 0.909 0.869 1.344 0.33 0.426 0.62 0.744 1.142 0.899 0.396 0.119 0.864 0.135 1.286 0.177 0.557 0.055 1.086 0.122 1.647 0.122 0.611-0.001 1.224-0.009 1.836 0 0.454 0.006 0.894 0.055 1.087 0.482 0.083 0.185 0.184 0.409 0.206 0.596 0.025 0.227-0.002 0.477-0.002 0.706 0 0.512 0.009 0.964-0.322 1.396-0.232 0.304-0.552 0.572-0.871 0.794-0.187 0.129-0.319 0.329-0.493 0.461-0.179 0.136-0.431 0.233-0.625 0.335-0.417 0.218-0.902 0.387-1.363 0.503-0.16 0.039-0.314 0.020-0.48 0.023-0.161 0.002-0.238 0.047-0.387 0.086-0.126 0.031-0.248 0.002-0.369 0.033-0.077 0.019-0.19 0.093-0.277 0.126-0.285 0.107-0.555 0.184-0.813 0.338-0.212 0.127-0.416 0.318-0.672 0.284 0.513 0.002 1.026 0.002 1.539 0 0.14 0 0.294-0.021 0.43 0.009 0.117 0.026 0.364 0.233 0.595-0.009z"></path>
</svg>
