<!-- Generated by IcoMoon.io -->
<svg version="1.1" xmlns="http://www.w3.org/2000/svg" width="32" height="32" viewBox="0 0 32 32">
<title>hideous_abominations</title>
<path d="M29.513 16.652c0.427-1.112 0.526-2.195 0.183-3.322-0.566-1.906-1.782-3.454-2.824-5.079-0.625-0.977-1.232-1.881-2.051-2.656-0.56-0.227-1.071-0.595-1.425-1.057-1.638-0.962-3.623-1.509-5.321-2.303-1.242-0.581-2.497-0.799-3.867-0.719-0.193 0.007-0.383 0.029-0.586 0.055-2.467 0.303-5.461 1.662-5.188 4.552 0.183 1.891 1.191 3.857 3.36 4.155 1.162 0.159 4.657-0.552 4.841-1.941 2.492 0.224 4.423 0.804 6.221 2.725 0.391 0.417 0.729 0.854 1.027 1.301 0.571 0.332 0.864 0.953 0.888 1.594 0.229 0.313 0.447 0.635 0.591 0.998 0.239 0.164 0.372 0.456 0.229 0.824-0.026 0.060-0.045 0.12-0.070 0.179-0.010 0.209-0.050 0.422-0.114 0.635 0.095 0.755 0.125 1.529 0.090 2.308-0.020 0.357-0.065 0.721-0.125 1.073 0.114 0.472 0.029 0.943-0.139 1.385 0.029 0.079 0.039 0.174 0.034 0.273 0 0.060-0.005 0.104-0.010 0.159 0.005 0.159-0.024 0.308-0.089 0.441-0.268 0.958-1.042 1.57-1.648 2.388-0.089 0.12-0.193 0.209-0.302 0.268-0.294 0.393-0.611 0.765-0.948 1.122-0.835 0.873-1.887 1.544-2.731 2.398-0.784 0.784-1.732 0.993-2.805 1.167-2.81 0.461-5.868 0.735-7.709-0.463 2.084 1.53 5.555 3.982 10.762 2.349 0.299-0.407 0.741-0.695 1.262-0.854 0.352-0.114 0.794-0.139 1.201-0.214 0.089-0.055 0.179-0.099 0.263-0.154 0.352-0.615 0.779-1.186 1.305-1.683 0.263-0.248 0.552-0.477 0.849-0.685 0.125-0.244 0.304-0.466 0.517-0.671 0.313-0.297 0.68-0.53 1.022-0.784 0.289-0.446 0.567-0.909 0.839-1.409 1.018-1.872 2.731-3.961 2.86-6.107 0.070-1.186-0.784-1.216-0.391-2.248z"></path>
<path d="M8.91 22.624c-0.839-0.724-1.688-1.589-2.338-2.482-0.456-0.63-0.66-1.088-0.7-1.589-0.084-0.114-0.173-0.234-0.248-0.357-0.188-0.309-0.119-0.716 0.114-0.973-0.005-0.179 0-0.357 0.034-0.541 0.055-0.292 0.135-0.581 0.229-0.864 0-0.248 0.039-0.491 0.119-0.719 0-0.323 0.069-0.651 0.238-0.963 0.273-0.501 0.735-0.844 1.251-1.052 0.447-0.497 0.949-0.933 1.495-1.281 0.109-0.063 0.219-0.118 0.333-0.164 0.234-0.149 0.477-0.287 0.75-0.427-1.713-0.962-3.192-3.142-3.029-5.232-0.943 0.477-1.782 1.257-2.443 1.942-0.521 0.545-0.987 1.206-1.395 1.93-0.024 0.422-0.108 0.839-0.272 1.256-0.055 0.135-0.13 0.254-0.224 0.353-0.099 0.282-0.253 0.541-0.466 0.75-0.046 0.159-0.090 0.318-0.125 0.482-0.034 0.605-0.084 1.211-0.094 1.816 0 0.234-0.085 0.412-0.203 0.541-0.005 0.873 0.109 1.722 0.376 2.492 0.413 0.342 0.785 0.719 0.999 1.221 0.118 0.278 0.133 0.55 0.024 0.789 2.060 3.148 5.649 4.979 9.508 5.003-1.484-0.496-2.687-0.839-3.932-1.93z"></path>
<path d="M16.614 10.069c-0.545 0.869-1.915 1.31-2.879 1.638 1.196 0.174 3.237 1.534 3.867 2.482 0.967 1.455 2.13 3.416 1.941 5.128-0.308 2.805-0.973 4.807-3.128 6.667-1.078 0.924-2.8 0.79-4.209 1.137 1.678 0.125 2.824 0.893 4.298-0.036 1.395-0.869 3.436-2.205 4.315-3.466 2.696-3.883 2.899-8.172-0.347-10.748-0.924-0.735-2.741-3.669-3.858-2.805z"></path>
</svg>
