<!-- Generated by IcoMoon.io -->
<svg version="1.1" xmlns="http://www.w3.org/2000/svg" width="33" height="32" viewBox="0 0 33 32">
<title>hong_kong</title>
<path d="M14.425 26.99c-1.634-0.020-3.106-0.064-3.843-0.115-1.219-0.084-2.206-0.255-3.152-0.545-0.937-0.288-1.866-0.742-2.539-1.242-0.459-0.341-0.902-0.788-1.188-1.198-0.292-0.42-0.393-0.621-0.629-1.255-0.177-0.475-0.246-0.6-0.39-0.707-0.101-0.075-0.167-0.103-0.395-0.168-0.109-0.031-0.374-0.115-0.589-0.186l-0.39-0.13-0-0.064c-0-0.069 0.037-0.918 0.041-0.923 0.001-0.002 0.085 0.010 0.186 0.026 0.636 0.101 0.668 0.105 0.958 0.127 0.259 0.020 0.403 0.046 0.59 0.106 0.288 0.093 0.468 0.184 1.013 0.51 0.207 0.124 0.498 0.289 0.648 0.367s0.362 0.194 0.473 0.259l0.201 0.118 0.027-0.025c0.015-0.014 0.040-0.045 0.058-0.070l0.031-0.045-0.008-0.153c-0.004-0.084-0.018-0.309-0.030-0.5s-0.023-0.364-0.023-0.384c-0-0.033-0.005-0.038-0.038-0.044-0.041-0.007-0.421-0.042-0.755-0.071-0.279-0.024-0.323-0.033-0.375-0.080l-0.042-0.038-0.004-0.118c-0.002-0.065-0.001-0.145 0.004-0.178l0.008-0.060 1.252-0.481c0.688-0.265 2.43-0.935 3.87-1.489s2.62-1.006 2.621-1.004c0.001 0.002 0.037 0.173 0.080 0.379 0.091 0.441 0.241 1.166 0.354 1.712 0.097 0.467 0.1 0.486 0.082 0.486-0.008 0-0.158 0.018-0.334 0.040s-0.427 0.053-0.557 0.069c-0.13 0.016-0.386 0.047-0.567 0.070s-0.501 0.062-0.711 0.087c-0.21 0.026-0.527 0.065-0.706 0.087s-0.451 0.056-0.607 0.075c-0.156 0.019-0.454 0.056-0.662 0.081-1.084 0.133-1.619 0.199-1.993 0.245-0.165 0.020-0.312 0.041-0.326 0.046-0.039 0.014-0.112 0.192-0.144 0.352-0.023 0.113-0.021 0.392 0.004 0.503 0.029 0.135 0.096 0.308 0.156 0.409 0.097 0.162 0.258 0.315 0.415 0.393 0.169 0.085 0.694 0.21 1.907 0.453 0.114 0.023 0.239 0.049 0.278 0.058s0.103 0.017 0.143 0.017l0.073 0-0.004-0.587c-0.004-0.52-0.007-0.594-0.025-0.648-0.040-0.122-0.132-0.186-0.403-0.284-0.177-0.064-0.276-0.107-0.276-0.12 0-0.020 0.167-0.233 0.247-0.313 0.168-0.171 0.345-0.274 0.541-0.315 0.098-0.020 0.159-0.023 0.596-0.023 0.268-0 0.591 0.005 0.717 0.011s0.402 0.019 0.612 0.029c0.57 0.026 1.56 0.077 2.69 0.139 0.175 0.010 0.466 0.025 0.648 0.035s0.427 0.026 0.545 0.037c0.263 0.024 0.33 0.015 0.388-0.047s0.068-0.135 0.052-0.372c-0.007-0.108-0.013-0.206-0.013-0.217 0-0.019-0.046-0.020-0.801-0.021-0.441-0.001-0.829-0.005-0.863-0.009-0.048-0.006-0.074-0.017-0.118-0.054-0.031-0.025-0.057-0.053-0.057-0.062-0.001-0.029 0.102-0.16 0.131-0.168 0.037-0.009 0.18-0.036 1.106-0.204 0.423-0.077 0.824-0.15 0.891-0.162s0.194-0.035 0.283-0.051c0.089-0.016 0.292-0.052 0.451-0.081 0.3-0.054 0.512-0.092 1.070-0.192 0.409-0.073 0.869-0.156 1.030-0.185 0.067-0.012 0.197-0.036 0.289-0.052s0.209-0.038 0.26-0.047c0.051-0.009 0.197-0.035 0.324-0.058 0.226-0.040 0.378-0.067 0.972-0.174 0.159-0.029 0.362-0.065 0.451-0.081s0.217-0.039 0.283-0.051c0.149-0.027 0.346-0.062 0.775-0.139 0.479-0.085 0.744-0.133 1.070-0.192 0.159-0.029 0.362-0.065 0.451-0.081s0.217-0.039 0.283-0.051c0.164-0.030 0.392-0.071 0.711-0.127 0.146-0.026 0.307-0.055 0.357-0.064 0.113-0.021 0.169-0.021 0.169-0.002 0 0.008 0.013 0.137 0.029 0.286s0.047 0.446 0.070 0.659c0.022 0.213 0.051 0.456 0.064 0.539 0.022 0.139 0.022 0.155 0.006 0.194-0.035 0.084 0.050 0.075-1.378 0.152-0.172 0.009-0.445 0.025-0.607 0.034-0.434 0.026-0.867 0.050-1.33 0.076-0.226 0.012-0.499 0.028-0.607 0.034-0.253 0.015-0.758 0.043-1.047 0.058-0.593 0.031-1.714 0.090-2.285 0.121-0.172 0.009-0.414 0.023-0.538 0.029-0.252 0.014-0.355 0.026-0.436 0.053-0.2 0.066-0.257 0.23-0.188 0.546l0.013 0.061h2.148c2.305 0 2.279-0.001 2.572 0.059 0.212 0.043 0.448 0.135 0.631 0.246 0.136 0.082 0.413 0.298 0.399 0.31-0.005 0.005-0.095 0.046-0.2 0.091-0.242 0.105-0.342 0.16-0.421 0.233-0.087 0.079-0.095 0.122-0.071 0.355 0.010 0.095 0.018 0.179 0.018 0.186 0 0.029 0.033 0.011 0.064-0.036 0.087-0.132 0.254-0.269 0.404-0.332 0.169-0.070 0.353-0.099 0.712-0.111 0.542-0.018 1.463-0.126 1.983-0.232 0.465-0.095 1.044-0.289 1.296-0.436 0.106-0.062 0.236-0.192 0.276-0.277 0.070-0.148 0.070-0.152 0.074-0.758l0.004-0.557-0.368-0.004c-0.349-0.004-0.37-0.005-0.414-0.029-0.085-0.045-0.090-0.057-0.075-0.168 0.023-0.17 0.050-0.232 0.107-0.244 0.014-0.003 0.112-0.032 0.217-0.064 1.264-0.388 2.387-0.726 4.549-1.373 0.374-0.112 0.698-0.203 0.72-0.203 0.024 0 0.040 0.006 0.041 0.014s0.005 0.061 0.011 0.119 0.019 0.206 0.029 0.33c0.010 0.124 0.031 0.315 0.047 0.424 0.042 0.297 0.038 0.367-0.027 0.435-0.059 0.062-0.125 0.076-0.743 0.155-0.983 0.125-1.157 0.148-1.926 0.253-0.121 0.017-0.316 0.043-0.434 0.059s-0.271 0.037-0.341 0.046c-0.14 0.019-0.274 0.037-0.596 0.080-0.118 0.016-0.241 0.035-0.275 0.042l-0.061 0.013v0.711c0 0.564 0.003 0.71 0.014 0.705 0.008-0.003 0.445-0.178 0.972-0.389s0.96-0.383 0.963-0.383c0.012 0 0.004 0.073-0.035 0.318-0.023 0.14-0.061 0.4-0.087 0.578-0.082 0.579-0.125 0.788-0.216 1.063-0.177 0.53-0.611 1.147-1.281 1.818-0.517 0.518-1.045 0.93-1.684 1.314-1.593 0.958-3.796 1.595-6.42 1.855-1.191 0.118-2.371 0.148-4.654 0.12zM16.926 23.348l0.065-0.020 0.006-1.59h-0.53l-0.007 0.072c-0.004 0.040-0.012 0.33-0.017 0.645-0.012 0.635-0.008 0.696 0.054 0.794 0.036 0.058 0.099 0.104 0.162 0.12 0.057 0.014 0.185 0.004 0.267-0.021zM12.786 22.485v-0.816h-3.285v0.642c0 0.506 0.003 0.642 0.014 0.642 0.008 0 0.053 0.006 0.101 0.012s0.183 0.022 0.301 0.034c0.446 0.046 0.666 0.070 0.706 0.075 0.022 0.003 0.142 0.016 0.266 0.029s0.322 0.034 0.44 0.046c0.118 0.013 0.336 0.036 0.486 0.052 0.439 0.047 0.706 0.076 0.787 0.086 0.041 0.005 0.1 0.010 0.13 0.011l0.055 0.002zM18.42 23.289c0.099-0.006 0.322-0.019 0.497-0.029s0.394-0.023 0.486-0.029c0.092-0.007 0.321-0.023 0.509-0.035 0.615-0.042 0.843-0.064 0.921-0.091 0.081-0.028 0.205-0.107 0.238-0.152s0.043-0.196 0.043-0.731l0-0.471h-3.667v0.767c0 0.422 0.003 0.771 0.008 0.775 0.012 0.012 0.761 0.009 0.964-0.004zM15.198 22.497v-0.787h-1.909l-0.003 0.775c-0.002 0.426-0.001 0.782 0.003 0.79 0.004 0.012 0.202 0.014 0.957 0.012l0.952-0.003zM4.214 19.472v-0.416l0.032-0.034c0.025-0.027 0.805-0.491 2.137-1.271 0.038-0.022 0.434-0.255 0.879-0.517s1.304-0.767 1.909-1.122c0.604-0.355 1.286-0.756 1.515-0.891 0.366-0.215 0.51-0.293 0.521-0.281 0.002 0.002 0.064 0.175 0.139 0.385s0.222 0.621 0.327 0.914c0.105 0.293 0.203 0.567 0.217 0.609l0.027 0.077-0.303 0.116c-0.166 0.064-1.271 0.489-2.454 0.944s-2.394 0.921-2.69 1.035c-0.296 0.114-0.892 0.343-1.325 0.51s-0.819 0.315-0.859 0.331l-0.072 0.027zM13.381 18.803c0.004-0.593 0.004-0.602 0.029-0.654 0.031-0.063 0.078-0.105 0.161-0.143 0.035-0.016 1.070-0.281 2.371-0.606 2.123-0.531 3.368-0.843 5.503-1.381 1.691-0.426 2.963-0.744 3.002-0.751l0.041-0.007 0.056 0.286c0.031 0.158 0.092 0.469 0.136 0.691 0.107 0.543 0.137 0.731 0.137 0.856-0.001 0.238-0.063 0.277-0.613 0.375-0.105 0.019-0.311 0.056-0.457 0.082s-0.396 0.071-0.555 0.1c-0.525 0.095-0.599 0.108-0.931 0.167-0.475 0.085-0.962 0.172-1.648 0.296-0.159 0.029-0.362 0.065-0.451 0.081s-0.217 0.039-0.283 0.051c-0.067 0.012-0.181 0.033-0.255 0.046s-0.19 0.034-0.26 0.047c-0.070 0.013-0.229 0.041-0.353 0.063s-0.387 0.069-0.584 0.105c-0.197 0.036-0.432 0.078-0.521 0.094s-0.217 0.039-0.283 0.051c-0.067 0.012-0.194 0.035-0.283 0.051s-0.264 0.047-0.388 0.070c-0.124 0.022-0.475 0.085-0.781 0.14-0.525 0.094-0.856 0.154-1.226 0.22-0.089 0.016-0.217 0.039-0.283 0.051s-0.197 0.035-0.289 0.052c-0.494 0.089-0.861 0.153-0.934 0.162l-0.060 0.008zM25.539 18.645c-0.004-0.010-0.005-0.211-0.003-0.446l0.004-0.428 0.035-0.034c0.021-0.020 0.27-0.149 0.619-0.32 0.676-0.331 1.905-0.934 3.332-1.633 0.55-0.27 1.033-0.503 1.073-0.519l0.073-0.028 0.012 0.032c0.007 0.018 0.023 0.058 0.035 0.090 0.045 0.116 0.369 1.479 0.369 1.554 0 0.046-0.051 0.114-0.095 0.127-0.021 0.006-0.282 0.085-0.581 0.175s-1.202 0.362-2.007 0.603c-2.383 0.714-2.721 0.815-2.776 0.826-0.022 0.004-0.050 0.010-0.061 0.013s-0.023-0.002-0.027-0.013zM4.187 18.555c-0.004-0.052-0.009-0.189-0.013-0.304s-0.014-0.274-0.023-0.354c-0.024-0.214-0.004-0.328 0.080-0.454 0.056-0.084 0.129-0.15 0.353-0.321 0.403-0.306 1.775-1.353 2.007-1.531 0.134-0.103 0.469-0.36 0.746-0.573 0.409-0.313 1.53-1.175 2.522-1.938 0.175-0.135 0.299-0.221 0.305-0.213 0.002 0.003 0.064 0.122 0.137 0.265s0.275 0.535 0.448 0.872c0.173 0.336 0.31 0.615 0.305 0.62s-0.213 0.127-0.461 0.273c-0.248 0.145-0.818 0.48-1.267 0.743s-1.042 0.612-1.319 0.775c-0.277 0.163-0.602 0.354-0.723 0.425s-0.582 0.342-1.024 0.601c-0.442 0.26-1.036 0.608-1.319 0.775-0.709 0.417-0.738 0.434-0.744 0.434-0.003 0-0.008-0.043-0.012-0.095zM13.405 17.63c-0.003-0.008-0.005-0.29-0.003-0.627l0.003-0.612 0.116-0.044c0.064-0.024 0.311-0.117 0.55-0.206s0.673-0.251 0.966-0.36c0.293-0.109 0.774-0.289 1.070-0.399s0.921-0.344 1.388-0.518c1.621-0.605 1.847-0.689 2.285-0.853 0.995-0.371 1.225-0.457 1.689-0.63 0.267-0.1 0.637-0.238 0.821-0.306s0.614-0.229 0.956-0.357c0.341-0.127 0.63-0.233 0.641-0.235 0.022-0.004 0.029 0.020 0.144 0.517 0.020 0.089 0.063 0.271 0.094 0.405s0.065 0.277 0.074 0.318c0.009 0.041 0.043 0.187 0.075 0.324 0.154 0.655 0.186 0.802 0.177 0.81-0.005 0.005-0.283 0.077-0.617 0.16s-0.946 0.238-1.359 0.342c-0.414 0.104-1.179 0.297-1.7 0.429s-1.193 0.301-1.492 0.376c-0.299 0.076-0.877 0.221-1.284 0.324s-1.027 0.259-1.377 0.347c-0.35 0.088-1.042 0.263-1.539 0.388-0.999 0.251-1.62 0.409-1.651 0.418-0.011 0.003-0.023-0.001-0.026-0.009zM25.57 17.381c-0.044-0.083-0.045-0.36-0.002-0.529 0.048-0.188 0.005-0.14 0.883-0.962 0.44-0.412 0.964-0.903 1.165-1.091 1.485-1.391 1.797-1.679 1.872-1.73 0.046-0.030 0.085-0.053 0.087-0.051s0.185 0.335 0.406 0.739c0.221 0.404 0.456 0.833 0.523 0.953s0.116 0.222 0.111 0.227c-0.005 0.005-0.329 0.165-0.721 0.356-0.69 0.338-1.747 0.855-3.467 1.699-0.459 0.225-0.838 0.41-0.841 0.41s-0.011-0.009-0.017-0.020zM4.117 16.79c-0.010-0.399 0.007-0.534 0.087-0.703 0.048-0.101 0.105-0.176 0.312-0.404 0.617-0.682 1.4-1.57 2.925-3.32 0.499-0.573 0.978-1.122 1.065-1.22s0.183-0.213 0.214-0.254l0.057-0.074 0.027 0.034c0.015 0.019 0.209 0.302 0.433 0.63s0.484 0.709 0.578 0.846c0.094 0.138 0.173 0.256 0.175 0.262 0.004 0.013-0.002 0.018-0.459 0.368-0.435 0.333-1.802 1.383-2.765 2.123-0.261 0.2-0.62 0.476-0.798 0.613s-0.48 0.368-0.671 0.515c-0.913 0.701-1.146 0.88-1.158 0.887-0.009 0.006-0.015-0.082-0.020-0.301zM25.536 16.299c-0.035-0.011-0.038-0.015-0.032-0.048 0.004-0.020 0.020-0.127 0.036-0.238 0.037-0.261 0.070-0.414 0.11-0.512 0.048-0.118 0.567-0.996 1.228-2.079 1.104-1.808 1.142-1.869 1.166-1.86 0.005 0.002 0.289 0.264 0.631 0.582s0.637 0.591 0.655 0.607l0.034 0.029-0.391 0.365c-0.395 0.369-1.191 1.112-2.615 2.443-0.427 0.399-0.778 0.725-0.78 0.725s-0.021-0.007-0.042-0.014zM13.458 15.437c0.001-0.278 0.005-0.55 0.009-0.603 0.007-0.089 0.011-0.099 0.041-0.122 0.034-0.025 0.179-0.105 0.735-0.406 0.169-0.091 0.632-0.341 1.030-0.556 1.275-0.689 3.353-1.81 5.929-3.198 1.537-0.828 1.717-0.925 1.82-0.977 0.060-0.030 0.11-0.053 0.112-0.051 0.007 0.007 0.307 1.019 0.416 1.403 0.175 0.617 0.223 0.795 0.232 0.865 0.020 0.145-0.033 0.269-0.149 0.348-0.067 0.045-0.187 0.092-1.414 0.55-1.652 0.616-2.406 0.898-3.858 1.439-0.614 0.229-1.205 0.45-1.313 0.49s-0.582 0.217-1.053 0.393c-0.471 0.176-0.973 0.363-1.116 0.416s-0.45 0.168-0.683 0.255c-0.517 0.194-0.702 0.26-0.724 0.26-0.014 0-0.016-0.074-0.016-0.506zM4.079 15.686c-0-0.008-0.007-0.163-0.016-0.344-0.022-0.469 0.002-0.69 0.101-0.936 0.062-0.155 0.114-0.233 0.443-0.672 0.596-0.793 0.977-1.322 2.071-2.869 0.682-0.965 0.884-1.248 0.936-1.307 0.045-0.052 0.046-0.052 0.068-0.029 0.012 0.013 0.211 0.244 0.442 0.515s0.427 0.5 0.436 0.511c0.014 0.017-0.091 0.141-0.959 1.134-0.536 0.613-1.5 1.716-2.143 2.451-1.468 1.68-1.365 1.562-1.373 1.562-0.004 0-0.007-0.007-0.007-0.014zM13.501 13.731c-0.006-0.566-0.004-0.592 0.063-0.719 0.063-0.119 0.171-0.212 0.535-0.464 1.366-0.942 4.669-3.235 6.796-4.718 0.66-0.46 0.98-0.679 0.994-0.679 0.005 0 0.012 0.054 0.017 0.119 0.034 0.529 0.222 1.021 0.536 1.398 0.123 0.148 0.401 0.399 0.511 0.46 0.010 0.006 0.016 0.013 0.013 0.015s-0.248 0.135-0.544 0.294c-0.296 0.159-1.004 0.541-1.573 0.848s-1.332 0.718-1.695 0.914c-2.105 1.135-3.43 1.849-4.28 2.308-1.082 0.584-1.363 0.735-1.366 0.735-0.001 0-0.005-0.23-0.008-0.512zM3.943 14.114c-0.008-0.082-0.020-0.262-0.053-0.762-0.025-0.377-0.030-0.883-0.010-0.97 0.018-0.076 0.112-0.266 0.193-0.39 0.038-0.057 0.257-0.393 0.487-0.746 0.378-0.579 0.699-1.068 1.543-2.351 0.233-0.354 0.34-0.51 0.391-0.568 0.008-0.009 0.946 0.927 0.957 0.954 0.002 0.005-0.204 0.3-0.458 0.655s-1.038 1.452-1.743 2.438c-0.705 0.986-1.286 1.798-1.291 1.803s-0.012-0.023-0.016-0.064zM13.482 12.372c-0.070-0.135-0.098-0.257-0.098-0.425 0-0.207 0.056-0.399 0.17-0.592 0.102-0.172 0.169-0.242 0.637-0.662 0.095-0.086 0.254-0.229 0.353-0.319 0.166-0.15 0.963-0.872 1.272-1.152 0.139-0.125 0.277-0.251 1.365-1.238 0.137-0.124 0.642-0.582 1.122-1.017 0.844-0.765 1.143-1.036 1.791-1.624 0.307-0.279 0.38-0.342 0.396-0.342 0.005 0 0.054 0.098 0.11 0.217 0.339 0.725 0.398 0.805 0.934 1.283 0.138 0.123 0.252 0.227 0.252 0.229 0 0.007-0.079 0.062-1.139 0.798-0.503 0.349-1.153 0.801-1.446 1.005s-0.657 0.457-0.81 0.563c-0.153 0.106-0.947 0.658-1.764 1.226-1.545 1.074-1.893 1.315-2.636 1.832-0.244 0.17-0.448 0.308-0.453 0.308s-0.030-0.040-0.056-0.090z"></path>
</svg>
