<!-- Generated by IcoMoon.io -->
<svg version="1.1" xmlns="http://www.w3.org/2000/svg" width="32" height="32" viewBox="0 0 32 32">
<title>in_the_clutches_of_chaos</title>
<path d="M15.53 24.264c-0.004-0.097-0.008-0.161-0.074-0.237-0.106-0.123-0.201-0.25-0.324-0.36-0.231-0.209-0.509-0.378-0.794-0.521-0.295-0.146-0.586-0.309-0.892-0.434-0.237-0.097-0.491-0.131-0.733-0.209-0.21-0.068-0.402-0.176-0.602-0.265-0.386-0.171-0.808-0.262-1.225-0.352-0.168-0.037-0.335-0.077-0.503-0.113-0.169-0.037-0.304-0.107-0.444-0.2-0.135-0.087-0.246-0.193-0.362-0.3-0.14-0.131-0.3-0.24-0.452-0.358-0.2-0.16-0.423-0.262-0.648-0.386-0.237-0.13-0.472-0.267-0.704-0.405-0.249-0.148-0.48-0.312-0.7-0.493-0.218-0.18-0.444-0.357-0.614-0.577-0.201-0.262-0.34-0.55-0.511-0.827-0.099-0.161-0.214-0.311-0.328-0.464-0.12-0.163-0.276-0.299-0.396-0.462-0.114-0.157-0.157-0.337-0.197-0.52-0.025-0.119-0.024-0.241-0.061-0.357-0.025-0.078-0.066-0.15-0.085-0.229-0.017-0.075-0.021-0.152-0.032-0.229-0.044-0.298-0.164-0.594-0.279-0.873-0.081-0.195-0.173-0.381-0.217-0.586-0.052-0.24-0.075-0.489-0.095-0.731-0.015-0.181 0.004-0.363-0.012-0.544-0.015-0.181-0.023-0.36-0.024-0.541-0.001-0.348 0.114-0.682 0.176-1.025 0.065-0.356 0.157-0.706 0.314-1.041 0.172-0.364 0.269-0.746 0.409-1.12 0.070-0.188 0.15-0.361 0.238-0.541 0.054-0.113 0.083-0.235 0.143-0.344 0.025-0.045 0.053-0.091 0.089-0.13 0.028-0.030 0.078-0.048 0.069-0.094-0.007 0.209 0.013 0.417-0.017 0.624-0.035 0.23-0.087 0.458-0.126 0.687-0.045 0.275-0.058 0.557-0.059 0.835 0 0.263 0.064 0.536 0.025 0.799-0.016 0.111-0.057 0.221-0.056 0.334 0.001 0.11 0.033 0.216 0.082 0.316 0.083 0.175 0.144 0.366 0.209 0.549 0.036 0.103 0.069 0.208 0.101 0.312 0.036 0.116 0.036 0.22 0.041 0.339 0.005 0.128 0.095 0.254 0.16 0.365 0.018 0.030 0.033 0.078 0.060 0.102 0.021 0.019 0.070 0.038 0.097 0.060 0.036 0.026 0.065 0.063 0.102 0.090 0.054 0.037 0.12 0.034 0.179 0.061 0.11 0.055 0.224 0.164 0.295 0.255 0.098 0.126 0.098 0.298 0.14 0.441 0.075 0.251 0.239 0.499 0.368 0.731 0.075 0.139 0.172 0.267 0.237 0.411 0.070 0.156 0.119 0.32 0.216 0.464 0.147 0.22 0.328 0.417 0.472 0.638 0.132 0.198 0.266 0.397 0.41 0.59 0.201 0.27 0.496 0.487 0.788 0.668 0.165 0.103 0.312 0.217 0.456 0.34 0.059 0.050 0.132 0.111 0.202 0.15 0.078 0.042 0.16 0.062 0.235 0.113 0.086 0.055 0.188 0.075 0.276 0.124 0.049 0.026 0.085 0.069 0.131 0.101 0.196 0.14 0.39 0.299 0.604 0.413 0.114 0.061 0.21 0.087 0.339 0.107 0.095 0.015 0.18 0.037 0.275 0.008 0.295-0.091 0.611-0.361 0.552-0.667-0.045-0.221-0.206-0.47-0.349-0.651-0.18-0.228-0.354-0.441-0.573-0.638-0.164-0.148-0.315-0.307-0.479-0.454-0.21-0.186-0.239-0.411-0.358-0.642-0.072-0.136-0.136-0.275-0.212-0.409-0.077-0.133-0.172-0.259-0.229-0.401-0.054-0.139-0.102-0.274-0.169-0.407-0.073-0.147-0.153-0.291-0.235-0.434-0.123-0.216-0.242-0.43-0.374-0.64-0.050-0.079-0.094-0.16-0.146-0.237-0.066-0.098-0.143-0.192-0.187-0.302-0.028-0.070-0.038-0.143-0.053-0.216-0.025-0.123-0.079-0.225-0.124-0.341-0.086-0.218-0.097-0.455-0.165-0.677-0.066-0.216-0.073-0.467-0.072-0.691 0.001-0.267 0.012-0.532-0.028-0.796-0.017-0.12-0.024-0.237-0.030-0.357-0.008-0.135-0.038-0.268-0.050-0.403-0.015-0.168-0.024-0.352-0.001-0.52 0.018-0.133 0.073-0.259 0.094-0.393 0.008-0.053 0.010-0.108 0.021-0.16 0.020-0.083 0.069-0.159 0.093-0.241 0.029-0.11 0.025-0.229 0.038-0.343 0.037-0.329 0.127-0.66 0.295-0.956 0.072-0.126 0.115-0.256 0.177-0.385 0.050-0.105 0.135-0.186 0.198-0.286 0.065-0.102 0.107-0.216 0.163-0.321 0.034-0.065 0.058-0.164 0.122-0.21 0.066 0.008 0.058 0.123 0.060 0.165 0.003 0.133-0.008 0.267 0.004 0.401 0.010 0.116 0.018 0.23 0.021 0.348 0.004 0.173 0.044 0.346 0.065 0.519 0.045 0.372 0.097 0.741 0.131 1.112 0.033 0.361 0.065 0.721 0.165 1.073 0.038 0.133 0.112 0.258 0.153 0.392 0.046 0.144 0.087 0.288 0.143 0.429 0.066 0.164 0.15 0.32 0.226 0.479 0.085 0.172 0.216 0.308 0.333 0.459 0.164 0.209 0.358 0.415 0.575 0.579 0.066 0.049 0.135 0.113 0.216 0.142 0.069 0.026 0.135 0.004 0.206 0.019 0.102 0.015 0.179 0.085 0.245 0.152 0.097 0.097 0.202 0.176 0.313 0.259 0.229 0.169 0.394 0.393 0.546 0.622 0.095 0.144 0.126 0.316 0.205 0.468 0.090 0.173 0.122 0.372 0.237 0.533 0.103 0.146 0.172 0.334 0.196 0.507 0.008 0.057-0.004 0.115 0.008 0.171 0.020 0.085 0.072 0.164 0.094 0.249 0.054 0.198 0.027 0.402 0.115 0.593 0.095 0.204 0.171 0.413 0.267 0.616 0.077 0.164 0.163 0.328 0.251 0.487 0.052 0.090 0.126 0.169 0.181 0.258s0.107 0.181 0.15 0.275c0.143 0.307 0.254 0.63 0.474 0.904 0.085 0.105 0.169 0.209 0.253 0.313 0.038 0.048 0.102 0.086 0.13 0.139 0.017 0.030 0.010 0.087 0.036 0.114 0.046 0.050 0.152 0.019 0.21 0.011 0.171-0.026 0.361-0.045 0.508-0.13 0.12-0.069 0.147-0.179 0.135-0.308-0.010-0.108-0.025-0.211-0.024-0.321 0-0.087 0.007-0.176-0.001-0.262-0.025-0.275-0.13-0.542-0.209-0.807-0.040-0.136-0.062-0.27-0.082-0.409-0.023-0.159-0.075-0.313-0.11-0.471-0.061-0.268-0.136-0.536-0.198-0.804-0.056-0.234-0.179-0.451-0.233-0.686-0.054-0.234-0.097-0.468-0.157-0.702-0.036-0.132-0.040-0.264-0.046-0.4-0.005-0.126-0.028-0.249-0.040-0.373-0.024-0.226-0.018-0.458-0.015-0.685 0.001-0.090 0.028-0.173 0.032-0.262 0.003-0.077-0.003-0.146 0.012-0.222 0.032-0.164-0.012-0.334 0.030-0.497 0.024-0.094 0.072-0.181 0.099-0.274 0.045-0.155 0.057-0.316 0.119-0.467 0.061-0.147 0.124-0.286 0.156-0.44 0.040-0.198 0.046-0.398 0.042-0.599-0.003-0.249-0.037-0.492-0.073-0.738-0.029-0.213-0.015-0.427-0.042-0.64-0.027-0.205-0.072-0.406-0.089-0.611-0.017-0.2-0.030-0.4-0.049-0.598-0.036-0.394-0.103-0.791-0.163-1.184-0.024-0.153-0.036-0.307-0.074-0.458-0.017-0.063-0.081-0.172-0.054-0.238 0.044 0.034 0.058 0.086 0.079 0.131 0.045 0.094 0.124 0.164 0.189 0.247 0.175 0.226 0.327 0.471 0.476 0.712 0.146 0.233 0.276 0.458 0.361 0.714 0.089 0.27 0.233 0.527 0.339 0.791 0.099 0.243 0.13 0.495 0.257 0.729 0.078 0.144 0.157 0.276 0.212 0.43 0.044 0.127 0.089 0.253 0.146 0.376 0.107 0.233 0.189 0.464 0.259 0.708 0.070 0.241 0.204 0.47 0.311 0.698 0.099 0.213 0.155 0.432 0.27 0.64 0.060 0.106 0.138 0.2 0.201 0.303 0.072 0.116 0.098 0.246 0.131 0.374 0.070 0.275 0.165 0.55 0.266 0.816 0.053 0.139 0.124 0.271 0.168 0.413 0.049 0.159 0.074 0.329 0.091 0.493 0.012 0.121 0.040 0.242 0.052 0.364 0.013 0.132-0.003 0.262 0.001 0.393 0.009 0.267 0.104 0.544 0.169 0.804 0.032 0.126 0.066 0.253 0.087 0.382 0.016 0.101 0.013 0.208 0.035 0.307 0.023 0.108 0.083 0.208 0.116 0.313 0.044 0.136 0.007 0.255-0.003 0.396-0.005 0.105-0.008 0.216-0.033 0.319-0.020 0.075-0.057 0.144-0.075 0.22-0.036 0.146-0.036 0.262-0.005 0.41 0.037 0.177 0.036 0.357 0.062 0.534 0.025 0.169 0.093 0.349 0.188 0.496 0.072 0.11 0.15 0.22 0.217 0.332 0.061 0.102 0.083 0.195 0.204 0.249 0.185 0.083 0.362 0.184 0.536 0.29 0.339 0.206 0.753 0.24 1.143 0.296 0.155 0.023 0.302 0.074 0.456 0.091 0.139 0.015 0.282-0.003 0.421-0.015 0.112-0.011 0.217-0.026 0.327-0.052 0.212-0.053 0.401-0.16 0.612-0.216 0.134-0.037 0.258-0.044 0.378-0.115 0.082-0.049 0.144-0.11 0.196-0.184 0.053-0.074 0.102-0.151 0.155-0.225 0.062-0.087 0.057-0.172 0.081-0.27 0.038-0.157 0.153-0.25 0.246-0.382 0.067-0.095 0.116-0.2 0.184-0.295 0.083-0.12 0.184-0.222 0.295-0.32 0.114-0.102 0.233-0.198 0.348-0.299 0.169-0.147 0.22-0.313 0.322-0.497 0.091-0.166 0.255-0.334 0.429-0.432 0.177-0.101 0.294-0.176 0.389-0.348 0.12-0.216 0.169-0.458 0.265-0.682 0.186-0.435 0.27-0.93 0.18-1.393-0.023-0.119-0.018-0.234-0.033-0.353-0.018-0.14-0.056-0.279-0.075-0.419-0.015-0.098-0.033-0.197-0.036-0.296-0.003-0.086-0.021-0.169-0.027-0.253 0.107 0.13 0.124 0.325 0.177 0.475 0.095 0.275 0.231 0.534 0.322 0.811 0.086 0.263 0.179 0.529 0.241 0.796 0.061 0.254 0.074 0.512 0.091 0.77 0.017 0.262 0.029 0.521 0.028 0.784 0 0.141 0.020 0.294-0.004 0.434-0.012 0.069-0.035 0.135-0.046 0.204-0.017 0.107-0.016 0.218-0.035 0.325-0.037 0.237-0.144 0.431-0.254 0.646-0.104 0.205-0.111 0.421-0.179 0.634-0.060 0.185-0.241 0.333-0.339 0.503-0.075 0.13-0.118 0.256-0.218 0.374-0.115 0.138-0.222 0.275-0.333 0.414-0.081 0.102-0.181 0.185-0.261 0.288-0.059 0.077-0.108 0.155-0.197 0.209-0.049 0.030-0.116 0.045-0.163 0.081-0.077 0.057-0.122 0.161-0.193 0.229-0.108 0.102-0.222 0.193-0.329 0.296-0.22 0.216-0.431 0.413-0.576 0.679-0.104 0.195-0.182 0.442-0.368 0.582-0.058 0.044-0.099 0.045-0.168 0.063-0.085 0.023-0.14 0.060-0.209 0.108-0.143 0.098-0.291 0.119-0.445 0.191-0.118 0.054-0.22 0.136-0.333 0.197-0.056 0.030-0.106 0.062-0.172 0.065-0.041 0.001-0.074-0.015-0.115 0.003-0.049 0.023-0.075 0.101-0.091 0.133-0.048 0.103-0.116 0.197-0.163 0.299-0.060 0.13-0.040 0.303-0.025 0.438 0.013 0.123 0.072 0.308-0.004 0.425-0.044 0.066-0.086 0.070-0.091 0.157-0.012 0.196 0.029 0.39 0.030 0.586 0.003 0.289 0.061 0.556 0.156 0.828 0.078 0.224 0.255 0.411 0.393 0.606 0.033 0.049 0.072 0.097 0.094 0.151 0.024 0.060 0.033 0.122 0.060 0.181 0.044 0.094 0.103 0.175 0.124 0.276 0.017 0.086 0.018 0.176 0.036 0.262 0.010 0.057 0.037 0.116 0.030 0.176-0.004 0.037-0.013 0.061-0.030 0.093-0.040 0.070-0.042 0.038-0.020 0.146 0.061 0.282 0.138 0.548 0.22 0.824 0.058 0.195 0.116 0.389 0.172 0.585 0.032 0.116 0.058 0.275-0.008 0.386-0.059-0.004-0.115-0.023-0.175-0.026-0.027-0.003-0.070 0.008-0.094-0.003-0.049-0.019-0.098-0.113-0.132-0.152-0.099-0.111-0.188-0.23-0.286-0.344-0.127-0.15-0.279-0.402-0.507-0.422-0.155-0.015-0.161 0.102-0.279 0.147-0.095 0.037-0.2-0.008-0.296-0.015-0.095-0.008-0.135 0.004-0.171 0.093-0.008 0.106-0.010 0.211-0.005 0.319 0.004 0.077 0.004 0.155 0.001 0.233-0.004 0.147-0.018 0.293-0.057 0.435-0.025 0.095-0.052 0.185-0.056 0.284-0.004 0.068 0.005 0.139 0 0.206-0.010 0.123-0.029 0.241-0.027 0.365-0.163-0.28-0.464-0.38-0.741-0.546-0.184-0.11-0.299-0.286-0.468-0.411-0.102-0.075-0.216-0.139-0.315-0.217-0.135-0.106-0.221-0.262-0.319-0.394-0.093-0.124-0.188-0.247-0.284-0.368-0.152-0.188-0.324-0.36-0.475-0.55-0.175-0.22-0.339-0.444-0.538-0.648-0.142-0.142-0.777-0.78-0.951-0.364-0.035 0.083-0.021 0.165-0.044 0.249-0.013 0.046-0.015 0.034-0.042 0.058-0.018-0.004-0.035 0.003-0.046 0.019-0.007 0.030-0.015 0.061-0.021 0.090-0.010 0.083 0.029 0.202-0.035 0.268-0.168-0.042-0.287-0.253-0.38-0.38-0.103-0.143-0.173-0.316-0.251-0.47-0.072-0.14-0.146-0.28-0.216-0.419-0.157-0.309-0.324-0.614-0.46-0.931-0.066-0.151-0.15-0.294-0.191-0.451-0.025-0.094-0.081-0.153-0.138-0.23-0.061-0.082-0.061-0.184-0.126-0.265-0.044-0.055-0.107-0.079-0.157-0.13-0.044-0.044-0.061-0.108-0.074-0.165-0.017-0.075-0.016-0.151-0.020-0.228-0.010-0.259-0.079-0.478-0.168-0.725z"></path>
<path d="M26.657 12.599c0.001-0.061 0.012-0.095 0.027-0.152 0.016-0.057 0.008-0.132 0.018-0.192 0.016-0.086 0.032-0.171 0.035-0.258 0.010-0.353 0.013-0.717 0.001-1.070-0.008-0.205-0.072-0.411-0.101-0.614-0.027-0.188-0.097-0.356-0.151-0.537-0.075-0.249-0.184-0.481-0.27-0.726-0.083-0.238-0.165-0.478-0.283-0.701-0.103-0.197-0.22-0.388-0.315-0.589-0.081-0.171-0.191-0.341-0.299-0.495-0.258-0.364-0.566-0.679-0.861-1.011-0.165-0.185-0.357-0.34-0.517-0.53-0.115-0.136-0.243-0.267-0.384-0.377-0.169-0.132-0.315-0.291-0.485-0.425-0.147-0.116-0.287-0.237-0.442-0.345-0.721-0.505-1.485-0.967-2.292-1.32-0.147-0.063-0.302-0.124-0.454-0.176-0.144-0.049-0.284-0.108-0.429-0.157-0.074-0.026-0.148-0.037-0.22-0.069-0.078-0.034-0.151-0.072-0.23-0.101-0.138-0.050-0.282-0.077-0.425-0.11-0.345-0.079-0.686-0.176-1.034-0.249-0.142-0.030-0.288-0.023-0.429-0.057-0.231-0.053-0.467-0.087-0.698-0.139-0.636-0.143-1.284-0.201-1.935-0.201-0.164 0-0.327-0.008-0.489 0.019-0.094 0.015-0.182 0.040-0.275 0.062-0.101 0.023-0.193 0.019-0.294 0.030-0.348 0.038-0.689 0.173-1.024 0.268-0.153 0.043-0.309 0.098-0.456 0.159-0.081 0.034-0.155 0.081-0.237 0.112-0.094 0.037-0.192 0.054-0.287 0.088-0.304 0.11-0.647 0.152-0.926 0.325-0.073 0.046-0.153 0.069-0.231 0.105-0.073 0.034-0.138 0.079-0.213 0.112-0.134 0.057-0.241 0.14-0.366 0.21-0.077 0.041-0.156 0.081-0.23 0.13-0.078 0.052-0.134 0.126-0.204 0.188-0.107 0.094-0.239 0.148-0.353 0.233-0.159 0.116-0.303 0.25-0.441 0.389-0.112 0.114-0.226 0.226-0.339 0.339-0.114 0.114-0.246 0.221-0.332 0.357-0.104 0.164-0.253 0.291-0.361 0.454-0.082 0.122-0.169 0.247-0.266 0.357-0.070 0.079-0.14 0.156-0.21 0.234-0.044 0.048-0.072 0.106-0.108 0.157-0.052 0.070-0.112 0.13-0.169 0.195-0.193 0.216-0.37 0.442-0.544 0.673-0.078 0.106-0.155 0.211-0.229 0.321-0.029 0.040-0.101 0.171-0.081 0.229 0.012 0.034 0.073 0.043 0.104 0.057 0.101 0.040 0.204 0.065 0.292 0.13 0.146 0.106 0.035 0.266 0.074 0.413 0.015 0.055 0.061 0.103 0.081 0.161 0.030 0.090 0.027 0.173 0.027 0.268-0.001 0.12-0.023 0.234-0.028 0.353-0.007 0.132 0.012 0.266-0.005 0.397-0.009 0.074-0.023 0.138-0.020 0.211 0.003 0.082-0.015 0.106-0.046 0.175-0.035 0.073-0.054 0.155-0.085 0.229-0.015 0.038-0.037 0.074-0.046 0.115-0.018 0.082-0.004 0.172-0.007 0.256-0.005 0.216 0.126 0.409 0.134 0.627 0.001 0.057 0.001 0.12 0 0.179-0.004 0.101-0.042 0.152-0.082 0.24-0.023 0.049-0.021 0.073-0.024 0.123-0.004 0.057-0.024 0.106-0.028 0.163-0.008 0.088 0.007 0.18 0.003 0.268-0.004 0.071-0.094 0.157-0.003 0.198 0.033 0.015 0.093 0.004 0.126 0.004 0.107-0.001 0.214 0.008 0.32 0.004 0.143-0.003 0.21-0.073 0.309-0.168 0.087-0.086 0.175-0.166 0.214-0.286 0.028-0.086 0.038-0.169 0.082-0.25 0.064-0.12 0.098-0.23 0.124-0.365 0.013-0.069 0.021-0.172 0.052-0.243 0.040-0.094 0.089-0.156 0.101-0.262 0.012-0.113 0.048-0.189 0.115-0.278 0.037-0.048 0.057-0.058 0.067-0.123 0.009-0.053-0.004-0.107 0.008-0.159 0.013-0.054 0.057-0.090 0.072-0.143 0.016-0.061 0.008-0.147 0.007-0.21-0.003-0.091-0.143-0.161-0.106-0.256 0.057-0.011 0.14-0.001 0.191-0.034 0.066-0.040 0.061-0.091 0.089-0.155 0.041-0.095 0.077-0.196 0.138-0.28 0.091-0.124 0.091-0.309 0.103-0.462 0.008-0.094 0.029-0.201 0.060-0.291 0.016-0.052 0.094-0.11 0.095-0.161 0.004-0.113-0.331-0.189-0.417-0.216-0.112-0.034-0.271-0.037-0.287-0.179-0.013-0.11 0.029-0.161 0.104-0.237 0.049-0.038 0.090-0.083 0.124-0.133 0.009-0.034 0.020-0.065 0.033-0.095 0.032-0.062 0.046-0.127 0.077-0.189 0.045-0.094 0.111-0.118 0.192-0.173 0.11-0.074 0.147-0.221 0.229-0.32 0.081-0.101 0.172-0.169 0.235-0.284 0.070-0.126 0.124-0.171 0.251-0.24 0.15-0.082 0.286-0.192 0.444-0.259 0.061-0.015 0.115-0.042 0.161-0.083 0.040-0.050 0.077-0.102 0.111-0.155 0.073-0.088 0.159-0.172 0.258-0.233 0.127-0.078 0.278-0.136 0.411-0.206 0.118-0.060 0.253-0.126 0.38-0.164 0.074-0.023 0.159-0.038 0.234-0.050 0.025 0.004 0.049 0.003 0.073-0.004 0.015-0.011 0.032-0.019 0.050-0.023 0.119 0.001 0.139 0.323 0.152 0.4 0.023 0.131-0.030 0.238-0.045 0.365-0.012 0.099 0.008 0.184 0.107 0.213 0.134 0.040 0.266 0.114 0.409 0.126 0.024 0.123 0.030 0.24 0.030 0.364 0 0.083 0.016 0.179-0.004 0.259-0.008 0.034-0.023 0.061-0.049 0.082-0.008 0.008-0.046 0.019-0.050 0.030-0.020 0.053 0.123 0.126 0.151 0.143 0.159 0.098 0.352 0.202 0.546 0.163 0.181-0.037 0.319-0.143 0.467-0.247 0.146-0.105 0.313-0.184 0.452-0.298 0.106-0.087 0.16-0.181 0.106-0.313-0.049-0.116-0.123-0.222-0.161-0.343-0.063-0.202 0.005-0.468 0.103-0.648 0.042-0.077 0.054-0.151 0.072-0.235 0.007-0.030 0.007-0.066 0.032-0.082 0.007-0.004 0.079 0.001 0.078 0.001 0.060 0.001 0.119 0.003 0.18 0.003 0.153 0 0.325-0.026 0.459-0.111 0.091-0.057 0.091-0.116 0.124-0.205 0.021-0.055 0.070-0.074 0.114-0.115 0.037-0.037 0.061-0.062 0.107-0.087 0.082-0.046 0.171-0.037 0.262-0.034 0.151 0.004 0.291 0.003 0.441-0.023 0.107-0.019 0.206-0.023 0.313-0.026 0.045-0.001 0.094 0.004 0.138-0.015 0.054-0.023 0.068-0.066 0.112-0.099 0.111-0.082 0.275-0.037 0.396-0.004 0.127 0.034 0.231 0.111 0.352 0.164 0.139 0.060 0.292 0.074 0.439 0.098 0.214 0.034 0.427 0.085 0.642 0.114 0.103 0.015 0.231 0.023 0.3 0.106 0.064 0.077 0.045 0.204 0.017 0.293-0.025 0.078-0.066 0.151-0.093 0.229-0.029 0.091-0.037 0.183-0.040 0.279-0.003 0.050-0.027 0.112-0.023 0.159 0.005 0.057 0.108 0.12 0.157 0.141 0.075 0.034 0.157 0.054 0.233 0.091 0.053 0.026 0.083 0.030 0.139 0.037 0.072 0.008 0.12 0.026 0.185 0.062 0.060 0.034 0.118 0.070 0.177 0.105 0.025 0.015 0.104 0.048 0.127 0.073 0.040 0.048 0.008 0.091-0.027 0.14-0.027 0.037-0.058 0.071-0.097 0.097-0.081 0.049-0.172 0.030-0.247 0.077-0.103 0.062-0.083 0.209-0.116 0.313-0.024 0.078-0.070 0.148-0.095 0.225-0.045 0.142-0.007 0.285-0.025 0.427-0.007 0.046-0.008 0.136-0.029 0.177-0.013 0.026-0.040 0.019-0.050 0.058-0.017 0.062 0.021 0.152 0.027 0.216 0.007 0.065 0.008 0.124-0.013 0.186-0.053 0.155-0.165 0.279-0.171 0.452-0.003 0.099 0.056 0.155 0.12 0.228 0.037 0.042 0.089 0.103 0.14 0.128 0.078 0.038 0.122-0.019 0.177-0.061 0.14-0.107 0.235-0.229 0.328-0.38 0.098-0.161 0.209-0.302 0.335-0.442 0.139-0.156 0.241-0.275 0.471-0.221 0.101 0.023 0.209 0.124 0.201 0.238-0.005 0.073-0.065 0.142-0.082 0.213-0.018 0.074-0.023 0.121-0.067 0.185-0.061 0.086-0.089 0.186-0.119 0.287-0.032 0.103-0.037 0.184-0.018 0.291 0.007 0.038 0.009 0.074 0.008 0.114-0.003 0.116-0.082 0.242-0.132 0.348-0.027 0.058-0.054 0.128-0.089 0.183-0.028 0.042-0.030 0.040-0.081 0.041-0.052 0.003-0.062 0-0.094 0.041-0.054 0.073-0.095 0.18-0.102 0.268-0.015 0.191 0.066 0.425 0.176 0.581 0.12 0.172 0.316-0.069 0.422 0.11 0.062 0.103 0.057 0.24 0.056 0.354-0.001 0.054-0.018 0.135 0.016 0.179 0.004 0.004 0.11 0.043 0.104 0.041 0.118 0.058 0.22 0.151 0.34 0.205 0.056 0.026 0.107 0.044 0.167 0.030 0.067-0.015 0.083-0.054 0.139-0.088 0.095-0.058 0.226-0.081 0.328-0.127 0.067-0.030 0.138-0.060 0.196-0.108 0.066-0.055 0.114-0.13 0.176-0.192 0.151-0.153 0.36-0.144 0.553-0.091 0.079 0.023 0.16 0.045 0.237 0.074 0.070 0.026 0.222 0.083 0.27 0.157-0.112-0.001-0.221-0.023-0.324 0.048-0.132 0.088-0.22 0.229-0.357 0.315-0.139 0.086-0.302 0.074-0.442 0.152-0.126 0.070-0.198 0.189-0.284 0.3-0.070 0.093-0.147 0.181-0.233 0.259-0.046 0.043-0.11 0.078-0.14 0.132-0.028 0.053-0.015 0.118-0.038 0.175-0.023 0.057-0.083 0.094-0.104 0.152-0.020 0.057-0.004 0.183 0.001 0.233 0.013 0.11 0.041 0.217 0.064 0.325 0.025 0.123 0.049 0.254 0.036 0.38-0.009 0.079-0.053 0.148-0.077 0.222-0.054 0.175-0.155 0.371-0.156 0.553 0 0.13 0.033 0.247 0.073 0.369 0.078 0.238 0.16 0.476 0.242 0.713 0.040 0.114 0.067 0.276 0.169 0.351 0.077 0.054 0.179 0.055 0.271 0.054 0.192-0.001 0.381-0.078 0.576-0.090 0.196-0.011 0.433 0.019 0.627 0.042 0.358 0.048 0.725 0.11 1.011 0.351 0.102 0.086 0.254 0.303 0.276 0.442 0.004 0.037 0.007 0.073 0.009 0.108-0.054 0.072-0.122 0.128-0.201 0.172-0.192 0.185-0.218 0.442-0.287 0.689-0.030 0.11-0.046 0.217-0.107 0.316-0.058 0.098-0.123 0.186-0.167 0.294-0.066 0.163-0.119 0.329-0.066 0.5 0.045 0.15 0.069 0.311 0.077 0.466 0.004 0.101-0.015 0.21 0.004 0.308 0.069-0.011 0.122-0.044 0.184-0.073 0.116-0.055 0.25-0.093 0.36-0.159 0.261-0.155 0.38-0.472 0.565-0.7 0.091-0.11 0.2-0.211 0.274-0.334 0.085-0.14 0.127-0.308 0.171-0.463s0.074-0.32 0.156-0.459c0.075-0.128 0.196-0.224 0.28-0.343 0.167-0.235 0.197-0.529 0.294-0.794 0.032-0.086 0.075-0.161 0.114-0.242 0.059-0.13 0.075-0.268 0.083-0.41 0.013-0.245-0.025-0.491-0.027-0.735 0-0.139-0.020-0.341 0.074-0.46 0.036-0.045 0.107-0.057 0.134-0.114 0.048-0.101 0.028-0.237 0.045-0.344 0.033-0.21 0.102-0.414 0.114-0.627 0.010-0.18-0.038-0.34-0.106-0.504-0.038-0.094-0.033-0.156 0.057-0.222 0.101-0.073 0.278-0.102 0.397-0.053 0.061 0.026 0.11 0.081 0.159 0.123 0.094 0.082 0.165 0.156 0.213 0.274 0.095 0.245 0.127 0.517 0.197 0.77 0.048-0.008 0.104-0.102 0.13-0.128 0.069-0.070 0.177-0.121 0.237-0.197 0.094-0.116 0.095-0.273 0.094-0.417-0.001-0.069-0.004-0.136-0.007-0.205-0.005-0.265 0.025-0.525 0.090-0.782z"></path>
<path d="M14.255 23.799c-0.024-0.054-0.032-0.086-0.077-0.123-0.041-0.034-0.089-0.068-0.131-0.101-0.090-0.068-0.194-0.111-0.29-0.169-0.116-0.070-0.238-0.14-0.373-0.172-0.078-0.019-0.144-0.008-0.224-0.008-0.14-0.001-0.274-0.054-0.417-0.055-0.29-0.001-0.565-0.082-0.844-0.156-0.262-0.069-0.493-0.183-0.741-0.286-0.201-0.085-0.414-0.132-0.616-0.213-0.184-0.074-0.36-0.164-0.544-0.233-0.242-0.093-0.487-0.15-0.716-0.276-0.143-0.081-0.27-0.183-0.4-0.282-0.172-0.13-0.341-0.268-0.504-0.41-0.108-0.095-0.258-0.213-0.335-0.337 0.066 0.023 0.090 0.192 0.11 0.253 0.070 0.222 0.214 0.43 0.348 0.616 0.122 0.171 0.287 0.271 0.458 0.386 0.193 0.13 0.39 0.249 0.582 0.38 0.193 0.131 0.392 0.221 0.594 0.331 0.214 0.115 0.425 0.237 0.634 0.361 0.21 0.124 0.43 0.206 0.653 0.304 0.202 0.090 0.368 0.193 0.591 0.229 0.14 0.023 0.282 0.040 0.423 0.041 0.138 0.001 0.269 0.023 0.405 0.026 0.213 0.004 0.423-0.008 0.634 0.030 0.135 0.023 0.262 0.062 0.403 0.048 0.048-0.004 0.072-0.023 0.112-0.046 0.058-0.034 0.12-0.034 0.262-0.138z"></path>
</svg>
