<!-- Generated by IcoMoon.io -->
<svg version="1.1" xmlns="http://www.w3.org/2000/svg" width="32" height="32" viewBox="0 0 32 32">
<title>in_the_labyrinths_of_lunacy</title>
<path d="M12.908 12.703c-0.108 0.469-0.12 0.965-0.053 1.441 0.016 0.119 0.019 0.171 0.018 0.211-0.002 0.398-0.195 0.271-0.447 0.337-0.098 0.026-0.171 0.108-0.257 0.158-0.092 0.054-0.195 0.090-0.289 0.14-0.097 0.052-0.174 0.136-0.27 0.191-0.16 0.091-0.314 0.118-0.45 0.252-0.113 0.113-0.157 0.127-0.292 0.194-0.166 0.082-0.288 0.23-0.457 0.312s-0.333 0.141-0.495 0.236c-0.102 0.061-0.201 0.119-0.311 0.161-0.324 0.123-0.65 0.302-0.919 0.527-0.231 0.194-0.424 0.46-0.68 0.625-0.219 0.141-0.462 0.245-0.711 0.309-0.254 0.066-0.517 0.128-0.745 0.263-0.193 0.113-0.332 0.307-0.518 0.437-0.054 0.036-0.104 0.074-0.15 0.111-0.152 0.082-0.286 0.167-0.407 0.25 0-0.112 0.008-0.267 0.015-0.39l0.007-0.127c0.019-0.382-0.008-0.709-0.036-0.984-0.001-0.030 0-0.073-0.001-0.115-0.001-0.226-0.028-0.487-0.093-0.704-0.047-0.153-0.034-0.306-0.076-0.462-0.047-0.174-0.097-0.341-0.151-0.515-0.080-0.264-0.089-0.539-0.137-0.81-0.022-0.125-0.070-0.246-0.079-0.373-0.010-0.146 0.020-0.264 0.041-0.404 0.041-0.272 0.036-0.552 0.072-0.827 0.062-0.468 0.145-0.947 0.238-1.41 0.027-0.134 0.075-0.252 0.142-0.371 0.038-0.068 0.080-0.134 0.119-0.202 0.055-0.097 0.104-0.192 0.182-0.274 0.147-0.153 0.221-0.243 0.274-0.457 0.053-0.217 0.188-0.401 0.268-0.607 0.071-0.18 0.12-0.369 0.234-0.529 0.072-0.102 0.168-0.175 0.263-0.255 0.301-0.252 0.547-0.545 0.884-0.759 0.202-0.129 0.401-0.255 0.606-0.377 0.227-0.136 0.457-0.289 0.65-0.47 0.147-0.138 0.28-0.281 0.436-0.408 0.136-0.112 0.227-0.29 0.375-0.379 0.185-0.111 0.361-0.174 0.534-0.316 0.085-0.070 0.173-0.141 0.267-0.199 0.098-0.060 0.203-0.053 0.305-0.097 0.161-0.069 0.327-0.080 0.499-0.127 0.141-0.039 0.236-0.066 0.359-0.141 0.081-0.050 0.142-0.018 0.219-0.051 0.127-0.055 0.171-0.199 0.314-0.236 0.158-0.041 0.262-0.090 0.405-0.18 0.007 0.257 0.025 0.528 0.056 0.822 0.024 0.23 0.059 0.426 0.059 0.658 0 0.198 0 0.397 0.002 0.595 0.002 0.383-0.053 0.756-0.052 1.139 0.001 0.146-0.008 0.294-0.002 0.44 0.005 0.119 0.047 0.228 0.054 0.346 0.016 0.241 0.063 0.46 0.101 0.696 0.062 0.392 0.030 0.776 0.047 1.173 0.012 0.297 0.109 0.577 0.104 0.877-0.003 0.223-0.019 0.437-0.069 0.655zM15.385 15.129c-0.034-0.254-0.013-0.519-0.011-0.775 0.002-0.198-0.015-0.379-0.041-0.573-0.044-0.312 0.021-0.604 0.045-0.913 0.014-0.198-0.011-0.405-0.042-0.6-0.058-0.359-0.065-0.714-0.12-1.074-0.034-0.227-0.043-0.445-0.063-0.674-0.025-0.296-0.107-0.589-0.102-0.888 0.008-0.457 0.158-0.888 0.169-1.343 0.005-0.225-0.004-0.453-0.004-0.678 0.001-0.228-0.030-0.479 0.009-0.705 0.012-0.070 0.033-0.127 0.031-0.2-0.004-0.263-0.075-0.536-0.102-0.798-0.027-0.257-0.045-0.515-0.044-0.773 0.002-0.507-0.002-1.011 0.038-1.517 0.030-0.377 0.097-0.75 0.118-1.126-0.235 0.010-0.471 0.016-0.706 0.019-0.27 0.003-0.534-0.047-0.803-0.048-0.099 0-0.207-0.016-0.305-0.011-0.184 0.010-0.366 0.070-0.543 0.116-0.241 0.063-0.472 0.155-0.719 0.195-0.152 0.025-0.302 0.044-0.435 0.128-0.577 0.361-1.147 0.73-1.712 1.111-0.304 0.205-0.606 0.415-0.907 0.623-0.171 0.119-0.347 0.224-0.532 0.32-0.223 0.115-0.427 0.254-0.639 0.387-0.628 0.394-1.281 0.786-1.848 1.266-0.214 0.181-0.438 0.342-0.64 0.537-0.281 0.272-0.561 0.545-0.839 0.82-0.667 0.661-1.175 1.451-1.419 2.363-0.189 0.71-0.333 1.448-0.394 2.18-0.025 0.285-0.028 0.572-0.053 0.856-0.030 0.349-0.086 0.699-0.072 1.049 0.011 0.263 0.022 0.519 0.066 0.779 0.047 0.281 0.032 0.561 0.051 0.845 0.021 0.329 0.13 0.64 0.144 0.97 0.008 0.189-0.002 0.375 0.016 0.564 0.020 0.202 0.036 0.399 0.026 0.603-0.019 0.398-0.051 0.789 0.017 1.186 0.052 0.305 0.154 0.601 0.239 0.899 0.090 0.313 0.216 0.595 0.366 0.882 0.198 0.383 0.396 0.769 0.618 1.139 0.026 0.043 0.055 0.085 0.082 0.127 0.165-0.096 0.335-0.182 0.514-0.252 0.241-0.093 0.453-0.283 0.67-0.423 0.16-0.103 0.323-0.203 0.487-0.299 0.129-0.075 0.231-0.086 0.368-0.126 0.147-0.043 0.264-0.181 0.384-0.272 0.13-0.097 0.261-0.195 0.407-0.268 0.074-0.037 0.157-0.060 0.221-0.112 0.052-0.042 0.077-0.095 0.135-0.13 0.108-0.066 0.173-0.143 0.278-0.215 0.145-0.099 0.308-0.163 0.454-0.259 0.052-0.034 0.116-0.044 0.169-0.078 0.089-0.057 0.152-0.151 0.235-0.216 0.208-0.164 0.443-0.318 0.664-0.464 0.336-0.221 0.689-0.415 1.025-0.637 0.644-0.425 1.391-0.67 2.070-1.035 0.578-0.311 1.199-0.558 1.765-0.892 0.422-0.249 0.862-0.446 1.287-0.686 0.002-0.301-0.030-0.61-0.069-0.906z"></path>
<path d="M28.105 17.852c-0.057 0.237-0.004 0.489-0.066 0.722-0.051 0.191-0.15 0.367-0.201 0.561-0.124 0.471-0.267 0.938-0.453 1.388-0.131-0.078-0.262-0.153-0.39-0.229 0 0-0.149-0.085-0.15-0.086-0.351-0.203-0.779-0.339-1.104-0.586-0.218-0.167-0.441-0.304-0.672-0.453-0.324-0.209-0.643-0.505-1.004-0.646-0.252-0.099-0.485-0.176-0.73-0.289-0.085-0.039-0.091-0.058-0.162-0.117-0.11-0.091-0.205-0.115-0.344-0.17-0.21-0.082-0.4-0.215-0.621-0.271-0.079-0.020-0.161-0.029-0.239-0.055-0.253-0.086-0.456-0.268-0.719-0.341-0.090-0.025-0.222-0.038-0.298-0.084-0.052-0.032-0.096-0.085-0.152-0.119-0.085-0.050-0.172-0.086-0.253-0.131-0.125-0.071-0.178-0.181-0.268-0.283-0.066-0.075-0.14-0.095-0.229-0.13-0.276-0.112-0.506-0.318-0.787-0.429-0.14-0.057-0.24-0.105-0.337-0.161-0.049-0.029-0.098-0.059-0.148-0.090-0.18-0.111-0.406-0.249-0.67-0.357-0.024-0.010-0.047-0.020-0.072-0.030 0.013-0.245 0.025-0.497 0.022-0.765-0.003-0.353 0.073-0.697-0.080-1.027-0.168-0.365-0.105-0.733-0.154-1.12-0.051-0.404-0.118-0.792-0.027-1.192 0.024-0.102 0.068-0.198 0.094-0.297 0.052-0.199 0.012-0.442 0.012-0.645 0-0.386-0.052-0.814 0.029-1.194 0.023-0.109 0.067-0.213 0.088-0.323 0.060-0.308-0.014-0.633-0.014-0.943 0-0.122-0.002-0.245-0.004-0.368-0.004-0.27-0.009-0.526 0.012-0.752 0.058-0.674 0.072-1.355 0.039-2.026-0.004-0.102-0.015-0.207-0.026-0.314-0.007-0.073-0.019-0.185-0.017-0.222 0.041-0.252 0.055-0.5 0.054-0.741 0.093 0 0.187-0.006 0.281-0.014 0.030 0 0.061-0.005 0.091-0.006 0.106 0.007 0.237 0.027 0.322 0.053 0.035 0.011 0.134 0.065 0.207 0.105 0.118 0.064 0.251 0.137 0.408 0.204 0.327 0.14 0.622 0.347 0.926 0.531 0.097 0.059 0.185 0.123 0.268 0.2 0.266 0.243 0.474 0.509 0.809 0.667 0.087 0.041 0.166 0.081 0.244 0.138 0.13 0.094 0.243 0.095 0.376 0.165 0.15 0.080 0.246 0.146 0.411 0.189 0.102 0.026 0.223 0.046 0.321 0.080 0.175 0.062 0.301 0.289 0.44 0.413 0.263 0.235 0.565 0.407 0.714 0.739 0.152 0.336 0.417 0.597 0.637 0.888 0.264 0.351 0.474 0.761 0.644 1.115 0.104 0.216 0.215 0.41 0.322 0.597 0.052 0.091 0.104 0.181 0.153 0.273 0.119 0.22 0.24 0.437 0.366 0.651 0.149 0.252 0.302 0.502 0.458 0.75 0.070 0.112 0.199 0.247 0.23 0.38 0.016 0.066-0.001 0.13 0.006 0.198 0.022 0.199 0.156 0.377 0.241 0.553 0.125 0.261 0.274 0.509 0.391 0.774 0.128 0.287 0.238 0.574 0.315 0.88 0.074 0.292 0.155 0.561 0.265 0.843 0.117 0.299 0.117 0.636 0.152 0.951 0.030 0.26-0.030 0.531 0.003 0.79 0.014 0.103 0.052 0.184 0.054 0.29 0.002 0.112 0 0.225 0 0.338 0 0.184 0.031 0.4-0.012 0.578zM29.455 14.921c-0.089-0.371-0.177-0.722-0.303-1.084-0.166-0.479-0.4-0.905-0.643-1.347-0.472-0.854-1.028-1.657-1.523-2.498-0.119-0.202-0.231-0.406-0.343-0.612-0.146-0.271-0.314-0.539-0.448-0.816-0.223-0.464-0.464-0.916-0.776-1.33-0.302-0.399-0.635-0.792-0.977-1.155-0.413-0.439-0.855-0.796-1.337-1.153-0.788-0.584-1.628-1.087-2.457-1.61-0.291-0.184-0.566-0.357-0.883-0.493-0.252-0.107-0.488-0.28-0.753-0.359-0.193-0.058-0.423-0.092-0.625-0.103-0.177-0.009-0.358 0.032-0.536 0.012-0.197-0.021-0.391-0.079-0.588-0.101-0.221-0.025-0.445-0.025-0.668-0.012 0.002 0.091 0.006 0.18 0.015 0.273 0.055 0.556 0.13 1.118 0.043 1.669-0.040 0.252 0.019 0.525 0.031 0.779 0.030 0.614 0.017 1.242-0.036 1.854-0.036 0.407-0.013 0.823-0.012 1.232 0 0.368 0.042 0.725 0.051 1.090 0.004 0.19 0.052 0.374 0.057 0.565 0.003 0.169-0.015 0.336 0.009 0.506 0.038 0.269 0.029 0.517 0.040 0.788 0.004 0.1 0.037 0.15 0.057 0.246 0.017 0.083-0.002 0.188-0.003 0.275-0.001 0.453-0.036 0.889-0.049 1.341-0.020 0.645-0.116 1.297-0.11 1.942 0.005 0.505-0.051 0.998-0.051 1.502 0 0.007 0 0.013 0 0.020 0.276 0.172 0.585 0.307 0.884 0.43 0.232 0.096 0.445 0.243 0.661 0.369 0.167 0.097 0.328 0.172 0.505 0.243 0.286 0.114 0.5 0.312 0.75 0.484 0.18 0.125 0.403 0.242 0.622 0.277 0.087 0.013 0.18 0.003 0.264 0.033 0.101 0.036 0.182 0.143 0.265 0.206 0.217 0.165 0.451 0.341 0.697 0.459 0.341 0.163 0.61 0.46 0.932 0.657 0.153 0.093 0.29 0.192 0.448 0.278 0.155 0.084 0.332 0.133 0.501 0.185 0.098 0.029 0.2 0.047 0.296 0.083 0.116 0.042 0.215 0.108 0.334 0.141 0.161 0.045 0.292 0.049 0.403 0.18 0.101 0.119 0.23 0.176 0.351 0.278 0.053 0.045 0.091 0.090 0.153 0.125 0.224 0.125 0.49 0.197 0.725 0.301 0.231 0.102 0.458 0.213 0.676 0.339 0.428 0.249 0.855 0.491 1.263 0.773 0.131 0.091 0.258 0.188 0.384 0.285 0.175-0.306 0.355-0.609 0.507-0.927 0.335-0.7 0.562-1.435 0.75-2.186 0.162-0.644 0.351-1.283 0.476-1.936 0.075-0.392 0.141-0.786 0.129-1.186-0.014-0.451-0.053-0.867-0.158-1.308z"></path>
<path d="M20.045 6.989c0.004 0.279 0.014 0.489 0.063 0.75 0.021 0.112 0.007 0.23 0.006 0.343 0 0.188-0.001 0.376 0.001 0.565 0.001 0.149-0.030 0.271-0.059 0.417-0.033 0.167-0.041 0.32-0.043 0.489-0.002 0.113 0.018 0.231 0.034 0.341 0.008 0.049-0.012 0.047 0.032 0.069 0.015 0.008 0.131 0 0.14 0 0.089-0.008 0.126-0.069 0.204-0.063 0.061 0.005 0.045 0.052 0.106-0.004 0.038-0.036 0.026-0.057 0.033-0.1 0.036-0.212-0.082-0.434-0.030-0.649 0.047-0.194 0.122-0.359 0.089-0.566-0.029-0.185-0.064-0.367-0.063-0.556 0.002-0.176 0.031-0.346 0.036-0.52 0.004-0.148-0.005-0.296-0.002-0.445 0.002-0.080 0.008-0.095-0.068-0.124-0.113-0.044-0.284-0.017-0.478 0.052z"></path>
<path d="M20.701 6.951c-0.093-0.102-0.268-0.088-0.379-0.114-0.052-0.013-0.105-0.024-0.156-0.047-0.086-0.038-0.158-0.116-0.245-0.151-0.066-0.027-0.061-0.013-0.071 0.051-0.009 0.056-0.002 0.119-0.014 0.174-0.014 0.069-0.078 0.082-0.109 0.141-0.019 0.035-0.018 0.069-0.044 0.104 0.035 0.015 0.069 0.029 0.106 0.051 0.089 0.054 0.153 0.081 0.251 0.109 0.113 0.032 0.224 0.064 0.327 0.137 0.025 0.017 0.039 0.045 0.063 0.061 0.015 0.010 0.034 0.005 0.045 0.012 0.034 0.022 0.075 0.039 0.103 0.058 0.061 0.043 0.097 0.071 0.169 0.097s0.132 0.019 0.204 0.035c0.046 0.010 0.114 0.059 0.139 0.006 0.019-0.041-0.047-0.101-0.068-0.136-0.047-0.082-0.040-0.141 0.011-0.197 0.025-0.027 0.053-0.052 0.085-0.072 0.018-0.011 0.088-0.029 0.094-0.051 0.033-0.12-0.246-0.132-0.304-0.161-0.057-0.028-0.226-0.187-0.27-0.091z"></path>
<path d="M19.123 8.049c0.012-0.008 0.024-0.015 0.036-0.023 0.097 0.041 0.127 0.308 0.136 0.4 0.019 0.191 0.072 0.329 0.21 0.468 0.12 0.123 0.305 0.251 0.473 0.292 0.136 0.033 0.273 0.023 0.412 0.024 0.146 0 0.307-0.015 0.443-0.069 0.102-0.041 0.213-0.045 0.307-0.11 0.042-0.029 0.047-0.062 0.076-0.097 0.025-0.030 0.061-0.043 0.085-0.073 0.030-0.038 0.067-0.154 0.102-0.161 0.008 0.084 0.090 0.176 0.128 0.252 0.030 0.058 0.172 0.224 0.088 0.26-0.036 0.015-0.099-0.012-0.139-0.004-0.038 0.008-0.069 0.026-0.102 0.044-0.057 0.030-0.113 0.042-0.171 0.067-0.056 0.025-0.086 0.061-0.136 0.089-0.108 0.063-0.225 0.061-0.341 0.074-0.075 0.009-0.14 0.035-0.217 0.037-0.043 0-0.087 0-0.131 0-0.129 0-0.257 0-0.386 0-0.17 0-0.279-0.009-0.439-0.069-0.053-0.020-0.11-0.020-0.161-0.038-0.055-0.020-0.102-0.070-0.155-0.098-0.081-0.042-0.135-0.080-0.171-0.169-0.034-0.082-0.022-0.169-0.068-0.257-0.044-0.086-0.067-0.149-0.084-0.24-0.014-0.070-0.028-0.158-0.052-0.222-0.023-0.059-0.056-0.111-0.069-0.171-0.012-0.052-0.030-0.032 0.014-0.069 0.026-0.021 0.090-0.029 0.122-0.035 0.086-0.016 0.166-0.031 0.188-0.102z"></path>
<path d="M23.675 23.472c-0.027 0.023-0.058 0.038-0.086 0.057 0.017 0.006 0.031 0.014 0.036 0.029 0.014 0.053-0.119 0.124-0.146 0.15-0.054 0.051-0.104 0.108-0.161 0.158-0.041 0.037-0.064 0.085-0.104 0.122-0.028 0.025-0.057 0.026-0.086 0.044s-0.047 0.048-0.072 0.070c-0.058 0.052-0.13 0.091-0.183 0.147-0.060 0.065-0.108 0.133-0.185 0.183-0.061 0.041-0.109 0.086-0.16 0.134 0.007 0.008 0.011 0.018 0.018 0.026 0.062 0.075 0.080 0.139 0.119 0.226 0.039 0.089 0.091 0.139 0.159 0.202 0.058 0.054 0.108 0.105 0.079 0.191-0.034 0.102-0.197 0.299-0.31 0.211-0.015-0.012-0.045-0.047-0.058-0.062-0.016-0.016-0.026-0.032-0.041-0.051-0.022-0.029-0.042-0.057-0.064-0.089-0.026-0.041-0.059-0.062-0.091-0.097-0.060-0.069-0.099-0.157-0.147-0.236-0.029 0.023-0.058 0.045-0.091 0.064-0.069 0.041-0.118 0.091-0.169 0.151-0.027 0.033-0.058 0.103-0.101 0.109-0.093-0.109-0.207-0.175-0.27-0.309-0.026-0.054-0.032-0.062 0.022-0.102 0.030-0.023 0.060-0.040 0.091-0.060 0.075-0.050 0.149-0.1 0.224-0.149-0.030-0.026-0.058-0.054-0.084-0.086-0.121-0.145-0.257-0.268-0.372-0.419-0.109-0.143-0.241-0.225-0.367-0.351-0.054-0.054-0.108-0.109-0.163-0.163-0.064-0.060-0.134-0.146-0.206-0.196-0.020-0.013-0.102-0.057-0.102-0.092-0.008-0.008-0.015-0.015-0.024-0.020-0.058-0.036-0.111-0.007-0.080-0.085 0.014-0.036 0.050-0.062 0.078-0.084 0.050-0.041 0.079-0.077 0.113-0.135 0.021-0.036 0.041-0.063 0.066-0.092 0.018-0.020 0.057-0.081 0.085-0.078 0.030 0.004 0.051 0.075 0.075 0.095 0.033 0.028 0.056 0.046 0.085 0.077 0.077 0.084 0.149 0.159 0.221 0.249 0.025 0.032 0.058 0.066 0.088 0.098 0.023 0.024 0.053 0.041 0.076 0.064 0.002 0.003 0.040 0.054 0.038 0.052 0.048 0.021 0.081-0.026 0.11-0.042 0.025-0.014 0.053-0.013 0.077-0.029 0.030-0.020 0.047-0.076 0.072-0.102s0.060-0.038 0.084-0.065c0.021-0.024 0.035-0.052 0.056-0.077 0.040-0.046 0.085-0.090 0.119-0.142 0.002 0.112 0.21 0.206 0.293 0.245 0.101 0.047 0.124 0.067 0.058 0.164-0.036 0.051-0.074 0.109-0.119 0.152-0.045 0.041-0.086 0.058-0.126 0.104-0.049 0.056-0.1 0.088-0.169 0.113-0.058 0.021-0.079 0.052-0.124 0.096 0.044 0.072 0.132 0.087 0.204 0.123 0.089 0.044 0.144 0.148 0.225 0.207 0.044 0.031 0.089 0.062 0.128 0.099 0.025-0.018 0.050-0.036 0.072-0.061 0.214-0.235 0.475-0.41 0.652-0.675 0.040-0.060 0.093-0.108 0.136-0.166 0.051-0.069 0.108-0.079 0.168-0.13 0.056-0.049 0.034-0.041 0.091-0.021 0.039 0.013 0.081 0.025 0.121 0.038 0.080 0.028 0.127 0.152 0.204 0.157-0.038 0-0.056 0.040-0.081 0.062zM18.166 25.731c-0.020 0.097-0.043 0.18-0.092 0.268-0.040 0.071-0.104 0.129-0.143 0.199-0.024 0.043-0.030 0.091-0.054 0.136-0.040 0.075-0.099 0.141-0.156 0.202-0.047 0.052-0.095 0.081-0.149 0.12-0.052 0.036-0.085 0.087-0.136 0.129-0.116 0.095-0.261 0.215-0.4 0.273-0.098 0.040-0.209 0.028-0.313 0.036-0.1 0.009-0.199 0.016-0.299 0.025-0.039 0.004-0.079 0-0.119 0.003-0.008 0.128-0.020 0.256-0.023 0.385-0.053-0.010-0.081-0.013-0.14 0-0.041 0.009-0.152 0.054-0.195 0.047-0.087-0.016-0.070-0.236-0.059-0.304 0.008-0.048 0.018-0.098 0.029-0.147-0.049-0.007-0.098-0.009-0.147-0.019-0.143-0.027-0.247-0.051-0.351-0.158-0.096-0.099-0.163-0.223-0.242-0.335-0.078-0.11-0.124-0.224-0.189-0.341-0.050-0.092-0.108-0.167-0.133-0.27-0.103-0.443-0.129-0.891 0.035-1.324 0.055-0.147 0.188-0.263 0.294-0.372 0.061-0.063 0.107-0.074 0.177-0.117 0.043-0.027 0.069-0.071 0.119-0.090 0.015-0.026 0.065-0.081 0.119-0.097 0.068-0.021 0.112-0.031 0.173-0.074 0.088-0.061 0.172-0.106 0.249-0.005 0.075 0.097 0.057 0.254 0.098 0.367 0.020 0.056 0.061 0.091 0.094 0.141 0.049 0.074 0.071 0.161 0.113 0.237 0.042 0.075 0.103 0.136 0.147 0.211 0.043 0.072 0.055 0.136 0.075 0.224 0.014 0.059 0.048 0.119 0.007 0.161-0.037 0.036-0.22 0.047-0.272 0.058-0.082 0.020-0.108 0.047-0.157-0.026-0.062-0.091-0.093-0.218-0.137-0.319-0.041-0.091-0.064-0.168-0.090-0.262-0.020-0.075-0.026-0.097-0.108-0.089-0.094 0.008-0.157 0.076-0.237 0.117-0.086 0.045-0.137 0.031-0.202 0.11-0.092 0.113-0.146 0.217-0.214 0.346-0.034 0.063-0.052 0.081-0.045 0.147 0.004 0.043 0.020 0.089 0.030 0.132 0.065 0.289 0.085 0.621 0.296 0.84 0.163 0.169 0.334 0.302 0.561 0.313 0.001-0.015 0.002-0.030 0.003-0.047 0.008-0.074 0.005-0.148 0.014-0.224 0.004-0.036 0.025-0.154 0.021-0.126 0.039 0 0.080 0.004 0.119 0.008s0.107-0.014 0.141-0.008c0.082 0.015 0.005 0.118 0.002 0.178s0.004 0.121 0.014 0.181c0.113-0.021 0.23-0.048 0.325-0.091 0.078-0.034 0.16-0.069 0.234-0.113 0.054-0.033 0.115-0.080 0.175-0.107 0.038-0.017 0.090-0.016 0.125-0.032 0.1-0.048 0.169-0.164 0.274-0.206 0.055-0.021 0.068 0 0.102-0.053 0.038-0.058 0.032-0.127 0.045-0.191 0.020-0.096 0-0.197 0.030-0.288 0.011-0.031 0.036-0.039 0.039-0.075 0.003-0.044-0.040-0.093-0.036-0.136 0.008-0.071 0.139-0.129 0.197-0.148 0.046-0.015 0.061-0.038 0.096-0.053 0.036-0.015 0.081-0.011 0.116-0.027 0.044-0.022 0.053-0.088 0.1-0.027 0.016 0.021 0.019 0.093 0.025 0.119 0.020 0.095 0.048 0.19 0.065 0.285 0.017 0.101-0.020 0.211-0.041 0.307zM17.373 23.717c0.030 0.032 0.046 0.075 0.071 0.108 0.035 0.046 0.058 0.047 0.074 0.106 0.028 0.102-0.028 0.181-0.014 0.279-0.091 0.048-0.174 0.026-0.268 0.029-0.077 0.003-0.229 0.101-0.277 0.032-0.061-0.088-0.062-0.529 0.097-0.516l-0.163-0.054c-0.006 0.003-0.013 0.007-0.018 0.010l-0.009-0.019 0.026 0.008c0.112-0.069 0.389-0.085 0.48 0.016zM10.343 23.855c0.041 0 0.075-0.024 0.119-0.009 0.051 0.017 0.024 0.007 0.067 0.045 0.097 0.085 0.205 0.334 0.030 0.401-0.085 0.032-0.214 0.028-0.303 0.028-0.079 0-0.193-0.003-0.213-0.107-0.011-0.058 0.002-0.191 0.027-0.241 0.023-0.049 0.089-0.14 0.142-0.146l-0.003 0.047c0.043-0.012 0.080-0.020 0.135-0.019zM12.23 25.849c-0.047 0.044-0.089 0.117-0.134 0.151-0.073-0.025-0.131-0.113-0.194-0.158-0.075-0.054-0.152-0.108-0.225-0.167-0.145-0.116-0.29-0.221-0.445-0.318-0.054 0.046-0.11 0.091-0.168 0.139-0.189 0.157-0.383 0.304-0.579 0.452-0.091 0.068-0.175 0.152-0.262 0.227-0.038 0.032-0.069 0.061-0.099 0.096-0.030 0.037-0.074 0.156-0.143 0.115-0.025-0.015-0.031-0.071-0.051-0.097-0.021-0.027-0.074-0.073-0.101-0.101-0.079-0.080-0.145-0.125-0.089-0.194 0.080-0.022 0.13-0.078 0.195-0.126 0.077-0.058 0.147-0.13 0.226-0.185-0.036-0.044-0.075-0.086-0.113-0.13-0.104-0.117-0.205-0.231-0.312-0.345-0.209-0.222-0.38-0.47-0.603-0.683-0.041-0.040-0.172-0.152-0.191-0.246-0.022 0.031-0.032 0-0.053-0.027-0.036-0.048-0.075-0.088-0.108-0.132-0.026 0-0.053 0.004-0.082 0.003-0.009-0.034 0.001-0.078 0.017-0.119-0.020-0.038-0.032-0.066 0.020-0.101 0.016-0.011 0.030-0.017 0.041-0.022 0.036-0.063 0.069-0.125 0.107-0.189 0.079-0.137 0.158-0.285 0.269-0.4 0.272-0.282 0.693-0.407 1.045-0.534 0.215-0.077 0.41-0.040 0.627 0.003 0.245 0.048 0.352 0.299 0.482 0.494 0.071 0.107 0.169 0.181 0.242 0.286 0.052 0.075 0.102 0.152 0.154 0.228 0.025 0.036 0.081 0.091 0.091 0.131 0.026 0.092-0.038 0.077-0.112 0.103-0.071 0.025-0.12 0.088-0.191 0.111-0.020-0.108-0.091-0.193-0.157-0.29-0.061-0.089-0.115-0.197-0.186-0.277-0.149-0.165-0.34-0.243-0.55-0.307-0.076-0.023-0.196-0.052-0.273-0.052-0.030 0-0.093 0-0.121 0.010s-0.049 0.040-0.077 0.051c-0.025 0.010-0.043-0.005-0.067 0.003-0.165 0.055-0.297 0.148-0.428 0.264-0.1 0.089-0.197 0.161-0.278 0.268s-0.12 0.235-0.197 0.346c0.002 0.003 0.005 0.004 0.008 0.007 0.001 0 0.002 0.003 0.003 0.003 0.154 0.047 0.091 0.026 0.014 0.012 0.119 0.1 0.251 0.188 0.346 0.307 0.244 0.302 0.505 0.594 0.844 0.832 0.050 0.035 0.102 0.084 0.163 0.107 0.010 0.004 0.021 0.005 0.033 0.006 0.134-0.11 0.267-0.23 0.367-0.351 0.036-0.043 0.068-0.082 0.102-0.119 0.082-0.163 0.194-0.223 0.268-0.22 0.070 0.004 0.109 0.077 0.154 0.137 0.081 0.023 0.147 0.043 0.216 0.097-0.001 0-0.002 0.003-0.002 0.003 0.008 0 0.016 0.003 0.024 0.005 0.067 0.020 0.152 0.038 0.218 0.069 0.144 0.068 0.293 0.206 0.417 0.305 0.058 0.047 0.157 0.102 0.191 0.171-0.094 0.121-0.184 0.242-0.296 0.346zM26.12 23.202c-0.192-0.158-0.453-0.241-0.673-0.353-0.29-0.149-0.67-0.298-0.896-0.539-0.202-0.214-0.427-0.369-0.703-0.484-0.15-0.063-0.313-0.101-0.456-0.178-0.13-0.070-0.238-0.16-0.384-0.202-0.141-0.040-0.239-0.096-0.366-0.169-0.145-0.086-0.296-0.168-0.452-0.232-0.135-0.056-0.236-0.146-0.368-0.208-0.368-0.176-0.825-0.198-1.111-0.511-0.094-0.102-0.173-0.211-0.296-0.28-0.088-0.050-0.181-0.068-0.276-0.096-0.257-0.077-0.495-0.264-0.719-0.407-0.234-0.148-0.465-0.302-0.701-0.448-0.535-0.333-1.037-0.733-1.586-1.042-0.429-0.242-0.817-0.531-1.242-0.777-0.036-0.021-0.072-0.039-0.107-0.058-0.207 0.133-0.404 0.286-0.624 0.386-0.099 0.045-0.178 0.1-0.267 0.166-0.115 0.085-0.203 0.202-0.313 0.293-0.157 0.13-0.346 0.27-0.52 0.377-0.181 0.111-0.385 0.162-0.576 0.252-0.765 0.362-1.435 0.839-2.119 1.331-0.246 0.176-0.527 0.278-0.773 0.451-0.226 0.159-0.445 0.287-0.683 0.429-0.209 0.125-0.417 0.261-0.614 0.402-0.451 0.325-0.917 0.708-1.467 0.834-0.243 0.057-0.407 0.185-0.6 0.338-0.25 0.197-0.517 0.376-0.793 0.534-0.43 0.246-0.855 0.495-1.302 0.711 0.090 0.163 0.18 0.325 0.27 0.489 0.419 0.766 0.901 1.502 1.474 2.161 0.48 0.552 1.069 1.001 1.684 1.392 0.34 0.218 0.661 0.469 1.015 0.662 0.167 0.091 0.346 0.165 0.517 0.25 0.264 0.131 0.512 0.295 0.782 0.415 0.318 0.141 0.699 0.163 1.037 0.242 0.39 0.091 0.767 0.214 1.164 0.277 0.409 0.065 0.8 0.157 1.218 0.135 0.386-0.020 0.763-0.065 1.15-0.023 0.398 0.043 0.777-0.013 1.17-0.054 0.357-0.038 0.707-0.048 1.059-0.13 0.311-0.072 0.628-0.142 0.933-0.231 0.39-0.113 0.764-0.272 1.143-0.412 0.402-0.148 0.802-0.266 1.184-0.468 0.293-0.155 0.604-0.277 0.891-0.444 0.298-0.174 0.56-0.391 0.804-0.633 0.219-0.217 0.476-0.401 0.727-0.579 0.642-0.458 1.297-0.883 1.916-1.373s1.215-1.062 1.707-1.682c-0.303-0.144-0.596-0.304-0.856-0.516z"></path>
<path d="M24.36 15.394c0.042 0.063 0.13 0.036 0.192 0.028 0.125-0.015 0.253-0.041 0.38-0.033 0.191 0.010 0.391 0.054 0.566 0.127 0.141 0.059 0.262 0.052 0.412 0.051 0.060 0 0.156-0.018 0.21 0.006-0.010 0.053-0.064 0.075-0.094 0.117-0.044 0.062-0.073 0.139-0.117 0.202-0.12 0.173-0.254 0.332-0.369 0.51-0.057 0.087-0.13 0.169-0.179 0.259-0.047 0.084-0.083 0.174-0.127 0.258-0.075 0.144-0.123 0.307-0.236 0.427 0.069-0.016 0.094 0.064 0.13 0.107 0.064 0.076 0.155 0.137 0.254 0.172 0.121 0.041 0.238 0.042 0.363 0.041 0.141 0 0.299 0.022 0.412-0.081 0.114-0.106 0.23-0.243 0.311-0.374 0.034-0.055 0.034-0.075 0.035-0.146 0.001-0.058 0.045-0.133 0.034-0.185 0.023 0.029 0.042 0.015 0.075 0.023 0.039 0.009 0.072 0.023 0.111 0.032 0.041 0.010 0.086-0.008 0.126 0 0.065 0.016 0.051 0.027 0.053 0.091 0.008 0.231-0.082 0.471-0.185 0.679-0.080 0.162-0.152 0.154-0.318 0.191-0.199 0.044-0.396 0.076-0.598 0.113-0.085 0.016-0.167 0.013-0.252 0.021-0.094 0.009-0.18 0.046-0.272 0.064-0.126 0.024-0.248 0.009-0.368-0.026-0.077-0.024-0.213-0.052-0.274-0.113-0.037-0.036-0.075-0.141-0.097-0.192-0.021-0.047-0.036-0.102-0.048-0.154-0.042-0.181-0.172-0.462-0.030-0.627 0.025-0.029 0.061-0.041 0.089-0.067 0.053-0.050 0.081-0.125 0.133-0.178 0.068-0.069 0.159-0.111 0.236-0.169 0.101-0.076 0.187-0.169 0.282-0.251 0.080-0.069 0.145-0.125 0.183-0.222 0.009-0.025 0.045-0.042 0.031-0.073-0.018-0.038-0.091-0.021-0.129-0.020-0.295 0.005-0.589 0.003-0.884 0.004-0.029 0-0.118 0.018-0.14-0.005s-0.006-0.108-0.006-0.137c0-0.103 0.007-0.211-0.004-0.313 0.008 0.013 0.021 0.021 0.11-0.159z"></path>
<path d="M25.67 14.88c0.002 0.295 0.024 0.594 0.006 0.888-0.016 0.279-0.11 0.542-0.106 0.825 0.001 0.091-0.046 0.462 0.022 0.517 0.034 0.026 0.155-0.003 0.197 0 0.087 0.004 0.163 0.082 0.25 0.073 0.041-0.2 0.002-0.443 0.001-0.647l-0.002-0.539c-0.001-0.114-0.001-0.228-0.002-0.342-0.002-0.101 0.030-0.176 0.037-0.274 0.011-0.148-0.014-0.3-0.002-0.449-0.040 0.054-0.132 0.020-0.183 0.006-0.069-0.020-0.152 0-0.215-0.027-0.005-0.024 0.006-0.034-0.002-0.030z"></path>
<path d="M6.42 14.341c0.347-0.135 0.675-0.309 1.021-0.446 0.19-0.075 0.369-0.152 0.55-0.248 0.125-0.067 0.253-0.171 0.394-0.197 0.086-0.016 0.164-0.051 0.25-0.068 0.1-0.019 0.18-0.036 0.279-0.076 0.054-0.022 0.121-0.063 0.18-0.073 0.061-0.011 0.096 0 0.16-0.025 0.056-0.022 0.166-0.014 0.198-0.064 0.063 0.079 0.093 0.219 0.13 0.31 0.027 0.069 0.084 0.16 0.086 0.235-0.058-0.003-0.083-0.009-0.141 0.030-0.169 0.114-0.325 0.242-0.507 0.341-0.2 0.107-0.399 0.204-0.608 0.29-0.163 0.065-0.317 0.089-0.486 0.125-0.13 0.027-0.244 0.088-0.375 0.113-0.113 0.021-0.218 0.040-0.332 0.055-0.187 0.026-0.353 0.092-0.528 0.164-0.069 0.029-0.114 0.017-0.184 0.033s-0.13 0.065-0.199 0.083c-0.081 0.021-0.086-0.007-0.148-0.065-0.050-0.047-0.119-0.082-0.158-0.138-0.101-0.146 0.029-0.181 0.143-0.228 0.106-0.043 0.191-0.111 0.292-0.157 0.059-0.027 0.122-0.048-0.016 0.007z"></path>
<path d="M9.503 14.599c-0.143 0.058-0.281 0.102-0.429 0.142-0.21 0.055-0.399 0.173-0.606 0.232-0.102 0.028-0.207 0.011-0.307 0.045-0.088 0.030-0.174 0.072-0.261 0.107-0.091 0.037-0.179 0.070-0.279 0.050-0.032 0.077 0.090 0.323 0.13 0.394 0.039 0.069 0.041 0.037 0.11 0.058 0.062 0.018 0.109 0.080 0.12 0.141 0.014-0.087 0.161-0.162 0.235-0.197 0.204-0.097 0.424-0.139 0.602-0.288 0.145-0.121 0.36-0.171 0.537-0.242 0.091-0.036 0.187-0.091 0.283-0.114 0.025-0.005 0.097 0.008 0.111 0 0.045-0.026 0.006-0.045 0.003-0.082-0.003-0.083-0.009-0.253-0.087-0.303-0.048-0.031-0.194 0.034-0.162 0.058z"></path>
<path d="M6.044 13.498c-0.002-0.007-0.006-0.014-0.008-0.021 0.022 0.056 0.088 0.315 0.136 0.335 0.097 0.039 0.246-0.142 0.3-0.189 0.096-0.084 0.19-0.164 0.318-0.187 0.074-0.013 0.148-0.009 0.222-0.026 0.125-0.028 0.283-0.088 0.384-0.165 0.133-0.101 0.31-0.122 0.456-0.201 0.192-0.103-0.067-0.371-0.035-0.527-0.053 0.026-0.084 0.074-0.137 0.099-0.097 0.046-0.185 0.097-0.279 0.146-0.18 0.094-0.384 0.157-0.573 0.232-0.168 0.068-0.339 0.097-0.506 0.164-0.058 0.024-0.155 0.044-0.203 0.084-0.045 0.037-0.060 0.091-0.117 0.128 0.002 0.010 0.002 0.020 0.044 0.128z"></path>
<path d="M9.281 8.186c-0.050 0.064-0.119 0.113-0.18 0.174-0.136 0.135-0.24 0.281-0.324 0.451-0.075 0.149-0.157 0.296-0.157 0.468 0 0.204-0.011 0.447 0.051 0.644 0.052 0.167 0.142 0.32 0.237 0.463 0.053 0.080 0.113 0.169 0.155 0.257 0.057 0.12 0.102 0.158 0.198 0.252 0.047 0.045 0.084 0.099 0.146 0.125 0.076 0.030 0.166 0.018 0.246 0.039 0.14 0.037 0.246 0.052 0.393 0.041 0.157-0.011 0.287-0.1 0.444-0.107 0.028 0 0.063 0.027 0.085-0.008 0.008-0.013-0.015-0.059-0.018-0.074-0.015-0.082-0.025-0.166-0.041-0.249-0.030-0.159-0.028-0.199-0.191-0.167-0.181 0.036-0.345 0.070-0.533 0.058-0.151-0.010-0.267-0.036-0.371-0.155-0.133-0.151-0.198-0.401-0.278-0.584-0.025-0.058-0.054-0.114-0.079-0.171-0.053-0.124-0.013-0.187 0.018-0.306 0.040-0.154 0.065-0.317 0.144-0.457 0.032-0.057 0.073-0.070 0.123-0.103 0.096-0.063 0.197-0.131 0.29-0.198 0.041-0.030 0.099-0.063 0.102-0.112 0.002-0.036-0.058-0.128-0.074-0.162-0.011-0.026-0.065-0.207-0.101-0.226-0.040-0.022-0.106 0.026-0.141 0.050-0.053 0.036-0.111 0.064-0.163 0.099-0.068 0.045-0.058 0.038 0.018-0.044z"></path>
<path d="M9.007 9.46c0.089-0.022 0.153-0.009 0.242-0.018 0.131-0.013 0.287-0.068 0.418-0.097 0.085-0.020 0.18-0.030 0.261-0.062 0.21-0.081 0.421-0.181 0.638-0.245 0.153-0.045 0.3-0.152 0.462-0.097 0.041 0.013 0.078 0.054 0.121 0.061 0.074 0.013 0.155-0.043 0.229-0.046 0.088-0.003 0.075 0.036 0.088 0.103 0.012 0.055 0.025 0.11 0.037 0.165 0.047 0.206 0.021 0.391 0.010 0.604-0.002 0.030 0.014 0.058 0.010 0.087-0.007 0.037-0.048 0.064-0.058 0.1-0.014 0.061 0.025 0.141 0.037 0.198 0.018 0.079 0.033 0.395 0.125 0.429-0.067 0.009-0.134 0.028-0.199 0.042-0.117 0.026-0.218 0.078-0.329 0.106-0.1-0.182 0-0.422-0.104-0.6-0.058-0.101-0.080-0.203-0.106-0.318-0.016-0.070-0.013-0.256-0.075-0.299-0.060-0.042-0.117-0.011-0.193 0.006-0.097 0.021-0.188 0.010-0.285 0.028-0.091 0.016-0.187 0.041-0.277 0.063-0.084 0.022-0.143 0.063-0.226 0.088-0.085 0.026-0.17 0.031-0.254 0.063-0.091 0.036-0.151 0.062-0.247 0.083-0.12 0.026-0.305 0.091-0.362-0.003-0.039-0.064-0.069-0.227-0.068-0.301 0.002-0.052 0.148-0.239 0.103-0.144z"></path>
<path d="M10.548 7.964c-0.063 0.036-0.094 0.192-0.082 0.263 0.011 0.063 0.014 0.030 0.051 0.065 0.039 0.037 0.065 0.060 0.094 0.108 0.060 0.1 0.119 0.143 0.237 0.123 0.085-0.014 0.207-0.030 0.268-0.096 0.072-0.075 0.041-0.216 0.023-0.312-0.017-0.090-0.063-0.163-0.144-0.211-0.058-0.034-0.044-0.022-0.118-0.023-0.038 0-0.064-0.011-0.106-0.004-0.085 0.014-0.169 0.039-0.253 0.058 0.008-0.003 0.015-0.003 0.022-0.005z"></path>
<path d="M22.167 10.945c-0.005 0.009-0.010 0.019-0.015 0.029 0.038 0.017 0.073 0.016 0.105 0.044 0.037 0.032 0.062 0.109 0.085 0.149 0.146 0.252 0.312 0.465 0.512 0.672 0.090 0.092 0.167 0.197 0.257 0.288 0.037 0.037 0.078 0.059 0.117 0.091 0.061 0.047 0.096 0.102 0.141 0.163 0.054-0.013 0.050-0.102 0.090-0.135s0.089-0.004 0.145-0.014c0.095-0.017 0.211-0.035 0.232-0.15 0.007-0.037-0.002-0.059 0.014-0.098 0.019-0.049 0.057-0.078 0.063-0.137 0.005-0.050-0.009-0.053 0.008-0.102 0.027-0.074 0.097-0.171 0.132-0.24 0.064-0.124 0.112-0.249 0.172-0.375 0.069-0.145 0.155-0.3 0.197-0.454 0.041-0.152 0.075-0.306 0.117-0.457-0.047 0-0.095 0.021-0.141 0.030-0.085 0.017-0.171 0.008-0.257 0.025-0.050 0.009-0.087 0.014-0.122 0.048-0.020 0.020-0.030 0.058-0.043 0.082-0.041 0.077-0.092 0.148-0.13 0.227-0.1 0.204-0.22 0.384-0.342 0.574-0.041 0.063-0.068 0.115-0.094 0.185-0.011 0.031-0.034 0.113-0.068 0.126-0.066 0.026-0.163-0.112-0.201-0.158-0.033-0.041-0.053-0.091-0.089-0.132-0.040-0.048-0.089-0.088-0.135-0.131-0.052-0.051-0.084-0.097-0.128-0.154-0.035-0.046-0.072-0.049-0.115-0.081-0.069-0.052-0.13-0.147-0.185-0.213-0.044-0.052-0.093-0.091-0.134-0.143-0.019-0.025-0.053-0.079-0.087-0.084-0.1 0.198-0.178 0.401-0.379 0.524 0.058 0.013 0.134 0.041 0.19 0.062 0.068 0.026 0.106 0.088 0.091-0.060z"></path>
<path d="M22.855 12.716c-0.078 0.017-0.247 0.024-0.315 0.096-0.050 0.053-0.065 0.125-0.088 0.19-0.017 0.048-0.043 0.084-0.044 0.137-0.001 0.078 0.031 0.17 0.050 0.246 0.022 0.089 0.047 0.1 0.144 0.102 0.072 0 0.147 0 0.218-0.013 0.136-0.025 0.246-0.078 0.285-0.224 0.012-0.045-0.007-0.082-0.007-0.129-0.001-0.052 0.002-0.087-0.010-0.142-0.017-0.073-0.026-0.119-0.076-0.176-0.028-0.030-0.066-0.078-0.101-0.1-0.056-0.036-0.094-0.030-0.167-0.021 0.012 0.004 0.020 0.013 0.024 0.026z"></path>
<path d="M24.906 12.344c-0.163 0.036-0.303 0.097-0.459 0.149-0.174 0.058-0.33 0.082-0.5 0.104-0.095 0.012-0.191 0.045-0.285 0.058-0.080 0.010-0.162 0.007-0.244 0.030 0.036 0.077 0.062 0.181 0.061 0.272-0.001 0.061-0.036 0.091 0.011 0.136 0.054 0.050 0.098 0.013 0.195-0.011 0.353-0.085 0.702-0.144 1.056-0.235 0.207-0.053 0.411-0.061 0.616-0.114-0.038-0.077-0.067-0.174-0.094-0.259-0.008-0.025-0.037-0.068-0.043-0.090-0.008-0.031 0.023-0.097 0.012-0.116-0.017-0.028-0.194 0.033-0.245 0.042-0.046 0.009-0.186 0.017-0.226 0.047 0.004 0.009 0.008 0.017 0.145-0.013z"></path>
</svg>
