<!-- Generated by IcoMoon.io -->
<svg version="1.1" xmlns="http://www.w3.org/2000/svg" width="34" height="32" viewBox="0 0 34 32">
<title>inhabitants_of_carcosa</title>
<path d="M23.013 13.352c0.003 0.229-0.079 0.473-0.2 0.668-0.118 0.188-0.206 0.379-0.366 0.54-0.277 0.276-0.632 0.487-0.919 0.755-0.212 0.195-0.5 0.35-0.675 0.573-0.039 0.054-0.060 0.11-0.094 0.167-0.090 0.151-0.268 0.238-0.378 0.382-0.209 0.274-0.368 0.592-0.53 0.895-0.055 0.104-0.108 0.211-0.167 0.316-0.041 0.074-0.103 0.132-0.147 0.205-0.047 0.080-0.074 0.159-0.135 0.233-0.121 0.15-0.264 0.277-0.374 0.437-0.217 0.301-0.462 0.608-0.584 0.955-0.041 0.123-0.060 0.246-0.112 0.366-0.038 0.084-0.062 0.167-0.1 0.252-0.086 0.186-0.166 0.371-0.25 0.558-0.059 0.129-0.076 0.248-0.087 0.387-0.019 0.2-0.1 0.342-0.198 0.512-0.030 0.052-0.071 0.091-0.094 0.146-0.041 0.111-0.028 0.236-0.048 0.351-0.025 0.15-0.023 0.304-0.058 0.457-0.039 0.173-0.041 0.356-0.1 0.524-0.033 0.094-0.091 0.112-0.197 0.094-0.032-0.115-0.086-0.217-0.13-0.328-0.055-0.134-0.064-0.261-0.142-0.39-0.087-0.137-0.195-0.248-0.265-0.396-0.063-0.134-0.153-0.259-0.205-0.4-0.035-0.088-0.062-0.177-0.1-0.268-0.087-0.211-0.084-0.443-0.137-0.666-0.024-0.102-0.084-0.173-0.137-0.263-0.091-0.158-0.133-0.331-0.198-0.5-0.158-0.402-0.303-0.812-0.435-1.223-0.048-0.147-0.080-0.289-0.096-0.443-0.023-0.244-0.174-0.438-0.246-0.67-0.039-0.132-0.080-0.26-0.123-0.388-0.028-0.088-0.068-0.172-0.095-0.259-0.035-0.11-0.051-0.208-0.1-0.309-0.217-0.438-0.558-0.825-0.838-1.228-0.209-0.304-0.546-0.529-0.731-0.846-0.060-0.103-0.070-0.217-0.115-0.327-0.027-0.060-0.066-0.112-0.11-0.162-0.084-0.086-0.182-0.159-0.28-0.225-0.187-0.124-0.362-0.252-0.522-0.404-0.154-0.147-0.372-0.191-0.506-0.355-0.139-0.163-0.265-0.287-0.277-0.505-0.007-0.123 0.003-0.251 0.003-0.376 0-0.14 0.024-0.265 0.036-0.403 0.020-0.189 0.059-0.364 0.064-0.553 0-0.111 0.040-0.203 0.112-0.29 0.129-0.147 0.080-0.32 0.126-0.504 0.050-0.196 0.133-0.4 0.229-0.58 0.066-0.123 0.118-0.232 0.212-0.337 0.095-0.11 0.189-0.214 0.273-0.33 0.196-0.274 0.487-0.43 0.769-0.619 0.147-0.095 0.275-0.214 0.415-0.317 0.185-0.132 0.392-0.244 0.581-0.374 0.24-0.162 0.528-0.188 0.749-0.374 0.159-0.132 0.25-0.33 0.415-0.451 0.017-0.015 0.038-0.027 0.059-0.040 0.003-0.003 0.008-0.004 0.012-0.011 0.060-0.083 0.138-0.129 0.224-0.182 0.094-0.061 0.161-0.17 0.272-0.209 0.052-0.019 0.115-0.019 0.171-0.034 0.253-0.071 0.512 0.054 0.758-0.023 0.163-0.051 0.299-0.083 0.469-0.051 0.151 0.030 0.324 0.068 0.442 0.162 0.135 0.109 0.206 0.268 0.35 0.37 0.059 0.044 0.122 0.080 0.178 0.127 0.063 0.052 0.116 0.119 0.183 0.165 0.134 0.094 0.304 0.126 0.427 0.238 0.056 0.054 0.106 0.11 0.169 0.158 0.072 0.051 0.157 0.078 0.234 0.122 0.071 0.041 0.094 0.082 0.182 0.109 0.115 0.030 0.233 0.047 0.35 0.074 0.22 0.052 0.346 0.155 0.51 0.292 0.133 0.114 0.305 0.143 0.426 0.274 0.086 0.091 0.162 0.169 0.265 0.243 0.094 0.071 0.129 0.177 0.181 0.271 0.105 0.191 0.226 0.374 0.331 0.565 0.024 0.040 0.051 0.076 0.080 0.117 0.067 0.092 0.114 0.183 0.155 0.287 0.108 0.268 0.226 0.533 0.371 0.786 0.041 0.076 0.1 0.131 0.138 0.208 0.027 0.051 0.039 0.11 0.068 0.162 0.11 0.201 0.217 0.379 0.28 0.597 0.030 0.106 0.035 0.218 0.064 0.327 0.023 0.076 0.059 0.145 0.088 0.218 0.044 0.109 0.094 0.208 0.143 0.312 0.091 0.189 0.036 0.457 0.039 0.662zM24.653 11.801c0-0.183-0.017-0.376-0.086-0.549-0.027-0.072-0.054-0.313-0.177-0.307-0.054 0.129-0.186 0.234-0.323 0.279-0.071 0.023-0.149 0.027-0.221 0.054-0.035 0.011-0.108 0.059-0.145 0.038-0.027-0.015-0.015-0.034-0.027-0.059-0.025-0.052-0.067-0.096-0.096-0.15-0.050-0.088-0.068-0.193-0.118-0.285-0.051-0.099-0.147-0.162-0.214-0.252-0.068-0.091-0.125-0.194-0.186-0.289-0.088-0.145-0.173-0.305-0.288-0.433-0.064-0.071-0.138-0.129-0.201-0.2-0.079-0.084-0.146-0.174-0.234-0.251-0.277-0.234-0.449-0.583-0.595-0.897-0.068-0.149-0.174-0.297-0.265-0.433-0.159-0.232-0.371-0.406-0.58-0.595-0.269-0.241-0.497-0.514-0.761-0.758-0.151-0.137-0.336-0.253-0.505-0.368-0.264-0.178-0.508-0.339-0.765-0.536 0.051 0.015 0.090 0.027 0.122 0.038-0.035-0.023-0.068-0.041-0.102-0.061-0.024 0-0.046-0.003-0.066-0.011-0.024-0.008-0.041-0.019-0.052-0.041-0.082-0.046-0.166-0.027-0.228-0.102-0.059-0.072-0.092-0.135-0.174-0.192-0.072-0.048-0.125-0.129-0.214-0.153-0.139-0.039-0.354-0.003-0.501-0.003-0.175 0-0.352 0.003-0.529 0-0.339 0-0.674 0.030-1.012 0.030-0.134 0-0.28-0.019-0.406 0.027-0.309 0.111-0.585 0.234-0.836 0.442-0.062 0.052-0.068 0.087-0.103 0.15-0.041 0.076-0.118 0.161-0.182 0.222-0.1 0.094-0.213 0.17-0.313 0.263-0.129 0.12-0.257 0.221-0.404 0.316-0.205 0.134-0.398 0.279-0.597 0.419-0.284 0.203-0.587 0.379-0.853 0.607-0.159 0.134-0.295 0.293-0.439 0.441-0.141 0.149-0.288 0.288-0.398 0.455-0.214 0.319-0.5 0.584-0.667 0.923-0.095 0.198-0.256 0.477-0.234 0.703-0.056-0.051-0.166-0.051-0.234-0.086-0.064-0.030-0.114-0.091-0.175-0.127-0.102-0.062-0.213-0.101-0.321-0.146-0.147-0.060-0.28-0.094-0.439-0.124-0.099-0.019-0.166-0.054-0.255-0.091-0.071-0.030-0.303-0.087-0.321 0.019-0.009 0.062 0.062 0.174 0.088 0.226 0.035 0.071 0.074 0.15 0.121 0.216 0.071 0.102 0.1 0.182 0.147 0.297 0.078 0.202 0.137 0.416 0.17 0.629 0.033 0.241 0.009 0.485 0.115 0.711 0.064 0.145 0.054 0.297 0.098 0.445 0.035 0.122 0.084 0.251 0.135 0.368 0.096 0.226 0.308 0.38 0.435 0.589 0.082 0.139 0.175 0.251 0.297 0.364 0.104 0.095 0.217 0.182 0.303 0.293 0.111 0.153 0.185 0.32 0.329 0.45 0.103 0.094 0.226 0.169 0.327 0.264 0.108 0.099 0.2 0.21 0.315 0.303 0.098 0.076 0.212 0.137 0.283 0.237 0.115 0.157 0.191 0.374 0.383 0.462 0.040 0.019 0.082 0.027 0.122 0.047 0.066 0.038 0.060 0.068 0.074 0.145 0.027 0.175 0.087 0.347 0.129 0.524 0.025 0.106 0.038 0.229 0.079 0.333 0.035 0.084 0.070 0.131 0.070 0.222 0.001 0.126 0.035 0.248 0.032 0.376-0.003 0.106-0.011 0.218-0.003 0.327 0.005 0.051 0.021 0.059 0.044 0.101 0.076 0.135 0.062 0.305 0.142 0.443 0.058 0.098 0.221 0.166 0.332 0.202 0.059 0.019 0.1 0.030 0.15 0.069 0.050 0.038 0.162 0.101 0.194 0.153 0.080 0.137-0.191 0.091-0.265 0.091-0.106 0-0.214-0.008-0.317-0.003-0.064 0.004-0.115 0.023-0.174 0.030-0.094 0.015-0.335-0.027-0.399 0.069-0.044 0.064 0.044 0.129 0.072 0.178 0.056 0.104 0.127 0.174 0.206 0.265 0.046 0.054 0.074 0.115 0.118 0.172 0.050 0.061 0.112 0.103 0.17 0.159 0.191 0.202 0.183 0.505 0.384 0.706 0.194 0.191 0.362 0.421 0.588 0.585 0.135 0.098 0.293 0.163 0.431 0.257 0.068 0.048 0.159 0.111 0.201 0.181 0.106 0.186 0.194 0.386 0.285 0.577 0.1 0.211 0.241 0.394 0.327 0.611 0.066 0.169 0.183 0.313 0.246 0.478 0.041 0.103 0.095 0.197 0.15 0.295 0.056 0.098 0.125 0.2 0.159 0.307 0.039 0.114 0.054 0.234 0.083 0.351 0.059 0.23 0.15 0.427 0.288 0.627 0.1 0.147 0.185 0.322 0.3 0.461 0.047 0.058 0.175 0.167 0.241 0.134 0.063-0.030 0.091-0.111 0.123-0.165 0.112-0.17 0.171-0.359 0.268-0.541 0.044-0.083 0.125-0.142 0.186-0.216 0.094-0.109 0.167-0.216 0.283-0.316 0.197-0.174 0.4-0.36 0.573-0.56 0.135-0.159 0.288-0.312 0.382-0.5 0.033-0.066 0.039-0.145 0.080-0.203 0.039-0.058 0.083-0.103 0.118-0.169 0.028-0.052 0.063-0.091 0.098-0.139 0.023-0.030 0.032-0.074 0.059-0.101 0.031-0.030 0.099-0.046 0.135-0.067 0.059-0.034 0.105-0.075 0.153-0.118 0.074-0.069 0.158-0.095 0.241-0.146 0.088-0.056 0.165-0.15 0.22-0.234 0.056-0.090 0.035-0.153 0.046-0.244 0.015-0.11 0.084-0.211 0.138-0.304 0.035-0.061 0.044-0.126 0.115-0.159 0.039-0.019 0.094-0.019 0.134-0.034 0.048-0.019 0.076-0.055 0.115-0.091 0.075-0.071 0.112-0.064 0.198-0.094 0.025-0.008 0.044-0.027 0.067-0.030 0.058-0.011 0.114-0.008 0.17-0.023 0.059-0.015 0.115-0.019 0.173-0.040 0.090-0.030 0.171-0.079 0.261-0.104 0.082-0.027 0.146-0.027 0.213-0.084 0.033-0.030 0.103-0.071 0.122-0.106 0.017-0.030 0.003-0.095 0.003-0.13 0-0.082 0.004-0.146-0.059-0.209-0.192-0.197-0.457-0.324-0.688-0.47-0.161-0.103-0.213-0.251-0.106-0.412 0.167-0.251 0.22-0.548 0.317-0.824 0.068-0.194 0.083-0.396 0.1-0.599 0.015-0.183 0.021-0.361 0.118-0.525 0.087-0.15 0.162-0.274 0.287-0.4 0.060-0.063 0.134-0.115 0.19-0.182 0.052-0.066 0.082-0.145 0.13-0.211 0.111-0.163 0.279-0.336 0.446-0.451 0.107-0.074 0.229-0.091 0.336-0.161 0.234-0.154 0.408-0.371 0.591-0.572 0.186-0.205 0.356-0.421 0.548-0.616 0.155-0.163 0.25-0.379 0.347-0.576 0.062-0.129 0.096-0.264 0.138-0.399 0.041-0.13 0.106-0.254 0.147-0.386 0.076-0.244 0.162-0.502 0.194-0.754 0.021-0.193 0.004-0.394 0.007-0.588z"></path>
<path d="M16.558 8.705c-0.012 0.12-0.015 0.238-0.015 0.347 0 0.295 0.064 0.583 0.088 0.874 0.007 0.099-0.004 0.18-0.024 0.279-0.050 0.238-0.047 0.501-0.046 0.745 0.005 0.366 0.013 0.737-0.007 1.104-0.024 0.423 0.052 0.791 0.142 1.192 0.067 0.292 0.090 0.58 0.131 0.88 0.041 0.291 0.030 0.585 0.076 0.872 0.036 0.232 0.036 0.461 0.041 0.696 0.005 0.094 0.005 0.188 0.009 0.279 0.003 0.055 0.023 0.127 0.011 0.178 0.016-0.060 0.056-0.117 0.080-0.174 0.059-0.151 0.108-0.315 0.149-0.477 0.102-0.394 0.086-0.833 0.102-1.239 0.013-0.341 0.030-0.68 0.043-1.019 0.008-0.208 0.009-0.411 0.041-0.616 0.040-0.268 0.071-0.536 0.11-0.801 0.067-0.474 0.19-0.936 0.153-1.419-0.012-0.137-0.035-0.266-0.056-0.399-0.027-0.15-0.023-0.273-0.005-0.421 0.016-0.139-0.030-0.282-0.030-0.425 0-0.117 0.008-0.236 0.001-0.35-0.005-0.103-0.046-0.202-0.056-0.305-0.011-0.131 0.024-0.268 0-0.399-0.011-0.056-0.098-0.272-0.143-0.307-0.129 0.011-0.135 0.205-0.258 0.208-0.083 0-0.071-0.109-0.165-0.023-0.044 0.041-0.067 0.115-0.11 0.165-0.043 0.047-0.094 0.082-0.129 0.131-0.082 0.119-0.118 0.272-0.135 0.425z"></path>
<path d="M4.122 17.293c-0.091-0.132-0.197-0.261-0.315-0.366-0.1-0.087-0.083-0.109-0.083-0.241 0.001-0.153-0.003-0.303 0-0.455 0.001-0.185 0.036-0.282 0.133-0.433 0.135-0.211 0.293-0.399 0.462-0.585 0.356-0.4 0.785-0.747 1.3-0.892 0.386-0.109 0.762-0.248 1.148-0.351 0.13-0.034 0.241-0.064 0.368-0.011 0.134 0.054 0.253 0.135 0.386 0.197 0.15 0.068 0.309 0.094 0.467 0.138 0.226 0.060 0.398 0.186 0.568 0.35 0.134 0.127 0.256 0.254 0.399 0.371 0.191 0.154 0.403 0.282 0.584 0.45 0.202 0.189 0.307 0.474 0.374 0.742 0.031 0.127 0.079 0.274 0.062 0.407-0.015 0.123-0.012 0.232 0.008 0.355 0.046 0.287 0.135 0.565 0.198 0.848 0.161 0.733 0.143 1.48 0.256 2.216 0.060 0.391 0.095 0.785 0.155 1.176 0.054 0.315 0.133 0.613 0.221 0.92 0.078 0.284 0.161 0.569 0.212 0.861 0.047 0.252 0.133 0.482 0.212 0.723 0.145 0.435 0.445 0.816 0.754 1.141 0.133 0.139 0.265 0.276 0.412 0.398 0.141 0.112 0.299 0.221 0.418 0.355 0.051 0.054 0.084 0.115 0.126 0.172 0.050 0.061 0.11 0.106 0.162 0.165 0.129 0.142 0.246 0.301 0.372 0.447 0.169 0.198 0.4 0.324 0.631 0.43 0.309 0.142 0.599 0.317 0.903 0.469 0.153 0.076 0.289 0.099 0.455 0.137 0.171 0.038 0.34 0.090 0.51 0.131 0.252 0.060 0.504 0.111 0.762 0.122 0.3 0.011 0.624 0.044 0.893-0.104 0.299-0.163 0.643-0.261 0.923-0.454 0.233-0.158 0.431-0.327 0.64-0.517 0.153-0.137 0.292-0.307 0.435-0.454 0.15-0.155 0.285-0.324 0.437-0.482 0.295-0.303 0.603-0.575 0.845-0.927 0.083-0.119 0.138-0.253 0.209-0.379 0.070-0.119 0.173-0.217 0.246-0.335 0.153-0.249 0.352-0.431 0.579-0.611 0.103-0.083 0.218-0.15 0.339-0.201 0.169-0.072 0.336-0.161 0.51-0.22 0.153-0.051 0.305-0.086 0.457-0.145 0.218-0.086 0.455-0.132 0.69-0.138 0.347-0.015 0.668 0.019 1.006 0.086 0.15 0.030 0.3 0.004 0.45 0.027 0.208 0.027 0.378 0.161 0.572 0.224 0.319 0.102 0.479 0.426 0.765 0.588 0.111 0.061 0.177 0.146 0.275 0.222 0.111 0.087 0.208 0.13 0.268 0.269 0.072 0.163 0.087 0.414 0.087 0.593-0.003 0.189 0.030 0.415-0.035 0.593-0.038 0.104-0.027 0.183-0.038 0.292-0.012 0.115-0.051 0.233-0.075 0.348-0.025 0.112-0.043 0.241-0.084 0.35-0.043 0.11-0.133 0.216-0.201 0.312-0.090 0.119-0.159 0.213-0.285 0.295-0.138 0.092-0.279 0.165-0.41 0.268-0.131 0.109-0.252 0.182-0.416 0.234-0.062 0.019-0.25 0.106-0.315 0.083 0.032-0.083 0.072-0.182 0.126-0.244 0.031-0.038 0.063-0.061 0.103-0.094 0.084-0.068 0.159-0.172 0.248-0.236 0.072-0.052 0.122-0.049 0.178-0.132 0.070-0.106 0.157-0.198 0.204-0.32 0.062-0.172 0.066-0.363 0.066-0.546-0.001-0.2 0.003-0.402-0.043-0.601-0.058-0.252-0.202-0.467-0.337-0.683-0.064-0.103-0.182-0.216-0.288-0.28-0.058-0.038-0.123-0.049-0.189-0.074-0.111-0.044-0.209-0.11-0.324-0.149-0.659-0.218-1.358-0.066-1.989 0.181-0.3 0.118-0.549 0.342-0.821 0.512-0.15 0.095-0.296 0.198-0.435 0.313-0.155 0.13-0.279 0.282-0.421 0.429-0.099 0.1-0.182 0.21-0.276 0.317-0.105 0.119-0.177 0.265-0.28 0.383-0.083 0.091-0.129 0.194-0.204 0.292-0.115 0.147-0.249 0.282-0.367 0.429-0.187 0.233-0.41 0.41-0.612 0.621-0.171 0.182-0.37 0.336-0.533 0.521-0.143 0.163-0.258 0.366-0.415 0.512-0.399 0.371-0.759 0.836-1.291 0.999-0.163 0.050-0.309 0.107-0.481 0.107h-0.387c-0.127 0-0.256-0.008-0.379-0.030-0.092-0.019-0.171-0.080-0.257-0.125-0.435-0.224-0.816-0.575-1.291-0.711-0.147-0.041-0.3-0.066-0.45-0.114-0.15-0.047-0.285-0.131-0.43-0.2-0.277-0.135-0.597-0.229-0.856-0.408-0.151-0.103-0.333-0.221-0.431-0.383-0.035-0.059-0.066-0.106-0.114-0.155-0.123-0.122-0.258-0.233-0.395-0.337-0.125-0.095-0.264-0.174-0.384-0.277-0.309-0.268-0.585-0.568-0.874-0.86-0.346-0.35-0.612-0.802-0.814-1.255-0.218-0.49-0.224-1.002-0.256-1.525-0.033-0.514-0.094-1.037-0.166-1.548-0.035-0.256-0.050-0.514-0.076-0.773-0.028-0.3-0.104-0.58-0.213-0.861-0.15-0.383-0.293-0.734-0.363-1.145-0.080-0.483-0.088-0.978-0.166-1.457-0.023-0.159-0.055-0.315-0.107-0.465-0.103-0.3-0.197-0.645-0.419-0.872-0.044-0.047-0.094-0.072-0.146-0.103-0.133-0.080-0.167-0.214-0.262-0.33-0.221-0.261-0.58-0.45-0.907-0.504-0.121-0.019-0.238-0.023-0.356-0.059-0.133-0.040-0.268-0.094-0.399-0.143-0.141-0.055-0.268-0.107-0.42-0.109-0.145-0.003-0.177 0.030-0.292 0.13-0.131 0.114-0.273 0.202-0.412 0.303-0.178 0.126-0.273 0.234-0.376 0.423-0.122 0.232-0.175 0.482-0.102 0.737 0.032 0.107 0.045 0.2 0.096 0.3 0.032 0.067 0.056 0.138 0.086 0.205 0.067 0.157 0.091 0.33 0.133 0.509 0.025 0.107 0.076 0.163 0.138 0.243 0.050 0.063 0.182 0.246 0.15 0.331-0.017 0.049-0.076 0.075-0.125 0.078-0.087 0.004-0.193-0.061-0.268-0.098-0.151-0.074-0.323-0.153-0.443-0.276-0.066-0.066-0.088-0.125-0.121-0.206z"></path>
<path d="M22.518 23.284c0.129-0.205 0.261-0.398 0.438-0.565 0.15-0.145 0.312-0.232 0.491-0.333 0.185-0.104 0.356-0.232 0.538-0.345 0.392-0.251 0.801-0.455 1.227-0.641 0.429-0.183 0.896-0.242 1.286-0.513 0.351-0.241 0.639-0.506 0.86-0.879 0.118-0.197 0.24-0.392 0.364-0.587 0.142-0.229 0.256-0.471 0.384-0.708 0.194-0.359 0.375-0.692 0.478-1.093 0.044-0.167 0.107-0.328 0.125-0.502 0.013-0.131 0.005-0.265 0.005-0.396 0-0.243 0.020-0.474-0.091-0.695-0.123-0.241-0.305-0.454-0.501-0.632-0.192-0.177-0.327-0.358-0.564-0.474-0.196-0.095-0.404-0.142-0.619-0.14-0.138 0-0.273-0.011-0.406 0.019-0.121 0.027-0.228 0.066-0.344 0.099-0.123 0.034-0.253 0.086-0.35 0.169-0.050 0.044-0.142 0.167-0.201 0.177-0.041-0.122 0.13-0.322 0.2-0.392 0.068-0.071 0.157-0.119 0.237-0.172 0.174-0.117 0.348-0.233 0.534-0.32 0.309-0.146 0.632-0.12 0.963-0.115 0.233 0.001 0.485 0.023 0.703 0.115 0.143 0.062 0.283 0.145 0.418 0.224 0.212 0.122 0.431 0.236 0.576 0.442 0.064 0.111 0.13 0.22 0.194 0.33 0.079 0.111 0.165 0.214 0.257 0.312 0.268 0.323 0.449 0.694 0.509 1.117 0.059 0.407 0.076 0.836-0.032 1.236-0.046 0.142-0.092 0.282-0.135 0.425-0.035 0.149-0.072 0.295-0.112 0.442-0.054 0.155-0.115 0.296-0.218 0.422-0.154 0.195-0.268 0.418-0.426 0.612-0.208 0.254-0.437 0.498-0.666 0.731-0.135 0.135-0.246 0.217-0.408 0.309-0.221 0.129-0.41 0.307-0.628 0.446-0.375 0.238-0.745 0.501-1.149 0.686-0.327 0.15-0.683 0.172-1.015 0.3-0.272 0.104-0.541 0.24-0.805 0.368-0.22 0.106-0.453 0.209-0.659 0.339-0.118 0.076-0.187 0.155-0.272 0.261-0.056 0.068-0.11 0.103-0.183 0.142z"></path>
<path d="M12.398 26.976c-0.007 0.076 0.015 0.33-0.098 0.317-0.023-0.003-0.083-0.052-0.099-0.064-0.033-0.030-0.056-0.076-0.079-0.115-0.1-0.165-0.26-0.276-0.398-0.41-0.167-0.163-0.362-0.254-0.553-0.376-0.123-0.079-0.206-0.208-0.324-0.288-0.147-0.098-0.246-0.234-0.379-0.347-0.072-0.061-0.153-0.094-0.232-0.145-0.075-0.050-0.146-0.118-0.217-0.177-0.146-0.117-0.303-0.22-0.469-0.304-0.22-0.111-0.434-0.22-0.67-0.287-0.222-0.064-0.446-0.118-0.668-0.186-0.264-0.076-0.54-0.004-0.802-0.059-0.108-0.019-0.226-0.015-0.335-0.023-0.224-0.019-0.451-0.054-0.656-0.159-0.337-0.174-0.562-0.509-0.791-0.806-0.071-0.088-0.157-0.17-0.208-0.271-0.099-0.197-0.096-0.506-0.075-0.708 0.015-0.098 0.030-0.195 0.054-0.293 0.021-0.090 0.015-0.181 0.031-0.272 0.036-0.224 0.216-0.382 0.28-0.592 0.021-0.067 0.031-0.138 0.062-0.202 0.092-0.206 0.304-0.307 0.502-0.382 0.17-0.063 0.319-0.132 0.501-0.161 0.042-0.008 0.327-0.074 0.336 0-0.43 0.078-0.806 0.375-0.968 0.803-0.043 0.115-0.044 0.238-0.076 0.359-0.025 0.115-0.051 0.218-0.068 0.336-0.013 0.099-0.027 0.197-0.023 0.297 0.003 0.049 0.005 0.109 0.030 0.154 0.030 0.052 0.071 0.063 0.098 0.122 0.070 0.15 0.202 0.226 0.311 0.344 0.074 0.078 0.137 0.195 0.221 0.26 0.083 0.064 0.183 0.049 0.277 0.086 0.182 0.079 0.364 0.129 0.568 0.146 0.22 0.019 0.441 0.034 0.658 0.079 0.355 0.071 0.722 0.086 1.081 0.119 0.356 0.030 0.71 0.046 1.045 0.182 0.123 0.049 0.253 0.087 0.376 0.138 0.112 0.044 0.221 0.121 0.325 0.185 0.129 0.076 0.246 0.201 0.392 0.24 0.001 0.011 0.001 0.019 0.004 0.030z"></path>
<path d="M20.126 10.725c-0.22 0.312-0.279 0.644-0.422 0.988-0.177 0.421-0.426 0.803-0.579 1.233-0.103 0.285-0.091 0.597-0.145 0.891-0.062 0.342-0.234 0.639-0.32 0.978-0.059 0.244-0.157 0.474-0.224 0.712-0.079 0.285-0.256 0.517-0.331 0.802-0.038 0.13-0.090 0.254-0.122 0.386-0.041 0.153-0.031 0.309-0.028 0.471v0.438c0.001-0.165 0.007-0.243 0.095-0.391 0.13-0.213 0.28-0.437 0.337-0.683 0.041-0.182 0.063-0.366 0.133-0.538 0.036-0.091 0.092-0.159 0.139-0.241 0.076-0.123 0.108-0.248 0.153-0.384 0.035-0.104 0.088-0.178 0.15-0.269 0.125-0.183 0.229-0.376 0.333-0.573 0.15-0.279 0.285-0.572 0.402-0.868 0.072-0.18 0.071-0.359 0.151-0.536 0.114-0.248 0.2-0.509 0.325-0.751 0.17-0.325 0.245-0.694 0.406-1.020 0.080-0.167 0.189-0.273 0.3-0.421 0.059-0.078 0.133-0.147 0.074-0.22-0.032-0.039-0.19-0.083-0.237-0.092-0.068-0.019-0.125-0.051-0.185-0.067-0.083-0.019-0.186 0.003-0.26 0.040-0.078 0.041-0.194 0.094-0.147 0.115z"></path>
<path d="M12.959 11.28c0.086 0.205 0.212 0.38 0.379 0.526 0.074 0.066 0.145 0.13 0.22 0.197 0.167 0.159 0.325 0.348 0.467 0.53 0.193 0.246 0.37 0.514 0.552 0.769 0.154 0.214 0.324 0.414 0.404 0.666 0.080 0.26 0.19 0.508 0.266 0.766 0.062 0.201 0.198 0.327 0.257 0.525 0.062 0.2 0.185 0.37 0.3 0.537 0.086 0.124 0.126 0.28 0.212 0.403 0.074 0.106 0.135 0.21 0.214 0.315 0.062-0.167-0.055-0.455-0.091-0.62-0.056-0.241-0.114-0.479-0.162-0.725-0.047-0.244-0.174-0.455-0.23-0.691-0.062-0.251-0.104-0.477-0.24-0.7-0.112-0.186-0.153-0.412-0.275-0.596-0.055-0.078-0.126-0.139-0.179-0.22-0.071-0.104-0.121-0.222-0.177-0.335-0.185-0.382-0.5-0.694-0.712-1.059-0.067-0.118-0.070-0.264-0.143-0.379-0.071-0.109-0.179-0.206-0.261-0.315-0.111-0.147-0.159-0.359-0.359-0.262-0.146 0.069-0.313 0.083-0.341 0.262-0.024 0.158-0.068 0.838-0.1 0.406z"></path>
</svg>
