<!-- Generated by IcoMoon.io -->
<svg version="1.1" xmlns="http://www.w3.org/2000/svg" width="32" height="32" viewBox="0 0 32 32">
<title>intellect</title>
<path d="M21.476 6.337c0 0-14.291 1.961-15.041 1.965s-2.664 0.319-2.723 1.973l-0.242 4.389c-0.004 0.844 0.195 1.429 0.549 1.801l5.97 10.441c0.313 0.425 1.388 1.353 2.038 1.276l4.157-0.62-0.226 4.275c1.495-0.827 3.775-3.272 4.566-4.932l0.171-0.021c0.922 1.287 2.729 2.315 4.028 2.959l-0.39-3.503 2.629-0.396c0.354-0.258 2.345-0.076 1.528-1.482-0.819-1.4-1.376-2.504-2.191-3.621-0.608-0.825-0.484-1.77 0.603-1.618l1.11 0.065c0.862-0.313 0.762-0.679 0.727-1.234l-6.124-10.636c-0.378-0.94-0.762-1.064-1.14-1.081zM24.819 19.234c-0.614 1.76-0.514 3.597 0.608 5.127l-1.924 0.277c-0.059-0.898-0.319-0.514-0.39-1.193l-0.496-2.652-8.303 1.323 0.13 2.215 1.128-0.13-0.107 1.613-3.095 0.453c-0.531 0.026-0.949-0.236-1.128-1.128l0.13-2.693c-0.094-0.709 0.118-1.299 1.518-1.429z"></path>
</svg>
