<!-- Generated by IcoMoon.io -->
<svg version="1.1" xmlns="http://www.w3.org/2000/svg" width="32" height="32" viewBox="0 0 32 32">
<title>kabul</title>
<path d="M1.045 26.931c-0.027-0.037-0.056-0.081-0.065-0.098-0.014-0.025-0.017-0.897-0.021-5.565-0.003-4.173-0.001-5.551 0.009-5.597 0.018-0.080 0.071-0.129 0.152-0.141 0.031-0.005 0.462-0.006 0.957-0.002 0.992 0.007 0.931 0.002 1.011 0.083 0.021 0.021 0.046 0.056 0.055 0.077 0.025 0.060 0.024 11.113-0.001 11.161-0.009 0.018-0.040 0.060-0.067 0.092l-0.050 0.060-1.931-0.001-0.049-0.068zM3.653 26.907c-0.055-0.089-0.058-0.097-0.068-0.217-0.007-0.075-0.009-1.615-0.006-3.881 0.005-3.604 0.006-3.758 0.027-3.801 0.027-0.055 0.108-0.141 0.163-0.171 0.039-0.021 0.117-0.022 1.921-0.022h1.881l0.056 0.033c0.031 0.018 0.076 0.058 0.101 0.088 0.043 0.053 0.046 0.061 0.053 0.164 0.004 0.060 0.008 1.805 0.009 3.879 0.001 3.333-0.001 3.776-0.017 3.814-0.010 0.024-0.045 0.080-0.079 0.125l-0.061 0.082h-0.615l-0.055-0.078c-0.030-0.043-0.066-0.102-0.080-0.133-0.024-0.055-0.024-0.067-0.025-2.122-0-1.747-0.003-2.079-0.017-2.143-0.039-0.174-0.149-0.315-0.35-0.449-0.444-0.296-0.911-0.335-1.39-0.117-0.139 0.063-0.329 0.181-0.389 0.241-0.098 0.098-0.188 0.325-0.221 0.555-0.009 0.067-0.015 0.688-0.019 2.060-0.003 1.238-0.009 1.977-0.017 2-0.006 0.019-0.032 0.069-0.056 0.11l-0.044 0.074-0.645 0-0.057-0.092zM8.258 26.907c-0.034-0.051-0.068-0.104-0.075-0.119-0.010-0.021-0.014-2.066-0.016-8.208l-0.002-8.181 0.027-0.044c0.054-0.087 0.012-0.084 1.088-0.079 1.064 0.005 0.971-0.003 1.060 0.089 0.025 0.025 0.049 0.060 0.053 0.076s0.008 3.707 0.008 8.202c0 6.996-0.002 8.177-0.017 8.202-0.009 0.016-0.039 0.058-0.065 0.092l-0.049 0.062-1.953-0.001-0.061-0.092zM10.909 26.922c-0.028-0.043-0.058-0.097-0.066-0.122-0.013-0.037-0.016-1.098-0.016-6.241-0-6.005 0-6.198 0.022-6.245 0.015-0.034 0.036-0.056 0.068-0.071 0.045-0.023 0.139-0.023 5.308-0.023s5.263 0 5.308 0.023c0.032 0.016 0.053 0.038 0.068 0.071 0.021 0.047 0.022 0.24 0.022 6.245-0 5.143-0.003 6.204-0.016 6.241-0.009 0.025-0.039 0.079-0.066 0.122l-0.050 0.077h-1.306l-0.061-0.090c-0.034-0.050-0.069-0.108-0.078-0.131-0.014-0.034-0.017-0.501-0.018-3.175-0.001-1.724-0.005-3.448-0.010-3.831l-0.009-0.696-0.036-0.131c-0.020-0.072-0.053-0.168-0.074-0.214-0.086-0.191-0.257-0.398-0.43-0.521-0.193-0.137-1.91-1.076-2.8-1.531-0.329-0.168-0.483-0.194-0.685-0.116-0.136 0.052-0.185 0.078-0.426 0.22-0.11 0.065-0.46 0.256-0.778 0.424-1.28 0.679-1.67 0.917-1.956 1.195-0.22 0.214-0.324 0.404-0.388 0.715-0.045 0.218-0.048 0.335-0.050 2.012-0.001 0.9-0.005 2.55-0.009 3.667l-0.007 2.030-0.102 0.172h-1.306zM12.898 26.918c-0.033-0.045-0.069-0.101-0.079-0.125-0.016-0.038-0.018-0.477-0.018-3.766 0-3.589 0.001-3.727 0.022-3.831 0.078-0.377 0.294-0.642 0.71-0.872 0.46-0.254 2.063-1.112 2.431-1.302 0.162-0.083 0.262-0.1 0.385-0.063 0.036 0.011 0.225 0.109 0.422 0.218 0.465 0.26 1 0.548 1.548 0.834 0.68 0.355 0.777 0.413 0.952 0.574 0.14 0.129 0.282 0.346 0.327 0.503 0.050 0.174 0.048 0.045 0.048 3.95 0 3.278-0.002 3.717-0.018 3.755-0.010 0.024-0.045 0.080-0.079 0.125l-0.061 0.082h-1.279l-0.060-0.086c-0.033-0.047-0.067-0.1-0.077-0.116-0.014-0.025-0.018-0.358-0.023-2.095l-0.006-2.065-0.032-0.131c-0.044-0.181-0.083-0.288-0.161-0.439-0.12-0.235-0.335-0.49-0.548-0.647-0.183-0.135-0.441-0.246-0.689-0.297-0.15-0.030-0.584-0.030-0.736 0-0.483 0.096-0.851 0.317-1.113 0.669-0.186 0.249-0.287 0.485-0.356 0.828-0.051 0.256-0.052 0.301-0.060 2.292l-0.007 1.917-0.104 0.172h-1.281l-0.061-0.082zM22.121 26.925c-0.030-0.041-0.064-0.093-0.077-0.116-0.022-0.041-0.023-0.239-0.026-8.21l-0.004-8.169 0.024-0.055c0.020-0.045 0.034-0.059 0.080-0.079 0.055-0.024 0.067-0.024 0.997-0.020 1.057 0.005 0.972-0.003 1.063 0.096l0.049 0.053 0.009 3.688c0.005 2.028 0.007 5.722 0.004 8.209l-0.005 4.522-0.106 0.156h-1.954zM24.757 26.919c-0.032-0.044-0.068-0.098-0.079-0.119-0.018-0.035-0.019-0.349-0.016-3.905l0.003-3.866 0.031-0.048c0.036-0.055 0.1-0.114 0.156-0.145 0.036-0.020 0.143-0.021 1.919-0.021h1.881l0.056 0.033c0.031 0.018 0.076 0.058 0.101 0.088l0.045 0.055 0.007 0.668c0.012 1.069 0.011 7.079-0.001 7.131-0.006 0.025-0.036 0.083-0.067 0.128l-0.056 0.082-0.645-0.001-0.061-0.092c-0.034-0.051-0.068-0.105-0.076-0.121-0.011-0.023-0.016-0.502-0.020-2.149-0.003-1.342-0.009-2.142-0.017-2.182-0.019-0.098-0.074-0.197-0.145-0.256-0.199-0.168-0.436-0.276-0.716-0.324-0.137-0.024-0.402-0.024-0.537-0-0.117 0.020-0.481 0.152-0.597 0.215-0.148 0.081-0.258 0.209-0.304 0.353-0.023 0.073-0.024 0.109-0.026 2.187l-0.002 2.113-0.028 0.054c-0.015 0.029-0.052 0.087-0.081 0.128l-0.053 0.074h-0.615l-0.059-0.080zM29.363 26.91c-0.039-0.057-0.063-0.108-0.068-0.14-0.004-0.028-0.006-2.52-0.004-5.539 0.004-5.139 0.005-5.49 0.024-5.525 0.033-0.060 0.148-0.157 0.198-0.168 0.024-0.005 0.438-0.009 0.919-0.009h0.875l0.057 0.033c0.031 0.018 0.071 0.054 0.087 0.080l0.031 0.046 0.006 4.855c0.004 2.67 0.002 5.186-0.003 5.591l-0.009 0.736-0.1 0.122-1.954 0.006-0.060-0.089zM3.896 18.43c-0.151-0.007-0.164-0.009-0.203-0.038-0.023-0.017-0.057-0.054-0.076-0.082l-0.035-0.051v-0.93c0-1.048-0.008-0.961 0.096-1.053l0.055-0.048 0.21-0.005c0.116-0.003 0.99-0.004 1.943-0.004l1.733 0.001 0.049 0.034c0.027 0.019 0.064 0.056 0.082 0.082l0.034 0.049 0.003 0.927c0.003 0.895 0.002 0.928-0.020 0.971-0.024 0.048-0.069 0.093-0.126 0.129-0.034 0.022-0.095 0.022-1.809 0.024-0.976 0.001-1.847-0.002-1.936-0.006zM25.147 18.429c-0.315-0.006-0.329-0.007-0.371-0.034-0.024-0.015-0.060-0.052-0.080-0.082l-0.037-0.055-0.003-0.376c-0.002-0.207-0.001-0.625 0.001-0.93l0.004-0.554 0.032-0.052c0.017-0.029 0.055-0.069 0.083-0.089l0.052-0.037h3.865l0.051 0.036c0.028 0.020 0.068 0.059 0.087 0.087l0.036 0.051v1.861l-0.027 0.044c-0.015 0.024-0.050 0.062-0.077 0.083l-0.049 0.039-0.399 0.008c-0.458 0.009-2.678 0.008-3.167-0.002zM1.21 15.108c-0.13-0.008-0.16-0.021-0.211-0.089-0.033-0.044-0.038-0.133-0.049-0.841-0.006-0.41-0.005-0.633 0.006-0.768 0.033-0.448 0.067-0.554 0.335-1.065 0.070-0.134 0.199-0.397 0.285-0.583 0.228-0.493 0.344-0.717 0.384-0.735 0.051-0.024 0.18-0.033 0.196-0.013 0.022 0.028 0.607 1.188 0.671 1.332 0.181 0.405 0.302 0.775 0.345 1.054 0.021 0.133 0.027 0.609 0.013 0.887-0.007 0.141-0.019 0.363-0.025 0.493-0.013 0.263-0.013 0.262-0.101 0.308-0.047 0.025-0.058 0.025-0.887 0.027-0.462 0.001-0.894-0.002-0.961-0.006zM29.534 15.108c-0.127-0.008-0.193-0.034-0.222-0.088-0.018-0.034-0.038-0.882-0.030-1.241 0.010-0.43 0.041-0.711 0.098-0.898 0.044-0.147 0.11-0.293 0.322-0.715 0.104-0.206 0.274-0.548 0.379-0.761 0.167-0.339 0.196-0.39 0.237-0.42 0.055-0.040 0.092-0.042 0.145-0.009 0.048 0.030 0.076 0.084 0.463 0.89 0.414 0.863 0.516 1.086 0.539 1.17 0.019 0.069 0.021 0.161 0.021 0.975 0 0.494-0.004 0.914-0.009 0.932s-0.029 0.055-0.053 0.081c-0.085 0.094-0.018 0.088-0.944 0.089-0.455 0.001-0.881-0.002-0.946-0.006zM12.658 13.798l-1.662-0.007-0.049-0.034c-0.027-0.019-0.064-0.056-0.082-0.083l-0.034-0.050v-1.861l0.036-0.050c0.020-0.028 0.059-0.067 0.088-0.087l0.052-0.037h5.204c4.953 0 5.206 0.001 5.243 0.021 0.049 0.027 0.116 0.094 0.143 0.143 0.020 0.036 0.021 0.101 0.021 0.949 0 0.839-0.002 0.914-0.020 0.948-0.025 0.047-0.085 0.107-0.127 0.128-0.026 0.014-0.616 0.017-3.591 0.021-1.958 0.003-4.307 0.002-5.221-0.002zM8.314 9.844c-0.037-0.015-0.104-0.078-0.125-0.118-0.023-0.043-0.047-1.042-0.038-1.547 0.015-0.835 0.030-0.91 0.326-1.595 0.209-0.485 0.325-0.738 0.503-1.101 0.139-0.282 0.174-0.345 0.231-0.408l0.068-0.074 0.084 0.065c0.046 0.036 0.091 0.076 0.101 0.089 0.021 0.030 0.344 0.717 0.681 1.447l0.258 0.559v1.25c0 0.688-0.004 1.265-0.009 1.283-0.013 0.045-0.089 0.128-0.136 0.147-0.031 0.013-0.215 0.016-0.976 0.015-0.59-0.001-0.949-0.005-0.968-0.013zM22.164 9.84c-0.020-0.009-0.058-0.040-0.084-0.070l-0.048-0.055-0.008-0.342c-0.019-0.829 0.001-1.879 0.041-2.198 0.020-0.159 0.088-0.326 0.267-0.657 0.028-0.052 0.125-0.253 0.215-0.446 0.266-0.572 0.463-0.966 0.508-1.017l0.042-0.047 0.051 0.023c0.141 0.063 0.144 0.068 0.38 0.601 0.185 0.417 0.273 0.595 0.399 0.808 0.116 0.197 0.173 0.325 0.222 0.501 0.089 0.32 0.098 0.494 0.093 1.744-0.004 0.906-0.006 1.003-0.024 1.036-0.027 0.048-0.092 0.109-0.133 0.124-0.054 0.020-1.872 0.016-1.919-0.004z"></path>
</svg>
