<!-- Generated by IcoMoon.io -->
<svg version="1.1" xmlns="http://www.w3.org/2000/svg" width="32" height="32" viewBox="0 0 32 32">
<title>key_of_eztli</title>
<path d="M5.758 1.575l-0.848 0.85 4 4 0.848-0.85-4-4zM26.242 1.575l-4 4 0.848 0.85 4-4-0.848-0.85zM14.248 2.847l-9.044 9.795 6.195 7.572v6.702l3.867 3.866v-10.277l-4.555-7.809 4.619-6.598-1.083-3.25zM17.752 2.847l-0.32 0.964-0.762 2.286 4.619 6.598-4.555 7.809v10.277l3.867-3.866v-6.702l6.195-7.572-9.044-9.795zM13.752 5.153l0.25 0.75-4.714 6.734 4.78 8.191v7.058l-1.467-1.467v-6.633l-5.805-7.095 6.956-7.537zM18.248 5.153l6.956 7.538-5.805 7.095v6.633l-1.467 1.467v-7.058l4.78-8.191-4.714-6.734 0.25-0.75zM2.856 6.764l-0.38 1.139 4 1.333 0.38-1.139-4-1.333zM29.144 6.764l-4 1.333 0.38 1.139 4-1.333-0.38-1.139zM15.48 7.702l-2.827 4.947 2.811 5.62 0.536-0.269 0.536 0.269 2.811-5.62-2.827-4.947-0.52 0.298-0.52-0.298zM15.4 10.259v5.2l-1.386-2.773 1.386-2.427zM16.6 10.259l1.386 2.427-1.386 2.773v-5.2zM6.477 16.097l-4 1.334 0.38 1.137 4-1.333-0.38-1.139zM25.523 16.097l-0.38 1.139 4 1.333 0.38-1.137-4-1.334zM8.909 18.909l-4 4 0.848 0.848 4-4-0.848-0.848zM23.091 18.909l-0.848 0.848 4 4 0.848-0.848-4-4z"></path>
</svg>
