<!-- Generated by IcoMoon.io -->
<svg version="1.1" xmlns="http://www.w3.org/2000/svg" width="32" height="32" viewBox="0 0 32 32">
<title>knyan</title>
<path d="M20.555 6.866l0.001 0.775c0.001 0.575 0.004 1.152-0.003 1.727-0.005 0.515 0.096 1.008 0.195 1.484 0.057 0.271 0.115 0.551 0.15 0.826 0.010 0.073 0.014 0.144 0.019 0.217 0.006 0.116 0.014 0.237 0.039 0.363 0.028 0.14 0.073 0.273 0.115 0.401 0.023 0.070 0.047 0.142 0.066 0.213 0.122 0.43 0.195 0.86 0.207 1.243 0.011 0.287 0.006 0.584 0.003 0.871-0.004 0.16-0.005 0.319-0.005 0.479 0 0.063 0.004 0.136 0.009 0.211 0.001 0.017 0.001 0.035 0.003 0.052-0.006 0.067-0.011 0.136-0.014 0.204 0 0.030 0 0.059 0.001 0.088 0 0.037 0.001 0.070-0.003 0.094-0.004 0.015-0.009 0.027-0.014 0.038-0.054 0.116-0.009 0.254 0.106 0.312 0.034 0.017 0.070 0.026 0.107 0.026 0.082 0 0.164-0.044 0.206-0.123 0.028-0.050 0.046-0.101 0.055-0.149 0.038-0.151 0.036-0.319 0.027-0.477 0.007-0.064 0.016-0.129 0.026-0.196 0.007-0.057 0.015-0.113 0.022-0.17 0.031-0.255 0.084-0.501 0.14-0.764l0.006-0.027c0.036-0.168 0.087-0.331 0.142-0.505 0.044-0.144 0.090-0.289 0.127-0.436 0.031-0.123 0.078-0.243 0.128-0.37 0.062-0.159 0.127-0.324 0.164-0.507 0.106-0.536 0.099-1.078 0.092-1.6-0.001-0.127-0.003-0.255-0.003-0.382 0-0.591 0.082-1.157 0.17-1.754 0.021-0.142 0.042-0.285 0.062-0.427 0.007-0.048 0.011-0.111 0.016-0.179 0.007-0.098 0.017-0.234 0.036-0.298 0.010-0.027 0.044-0.072 0.076-0.111 0.031-0.038 0.062-0.076 0.086-0.116 0.193-0.304 0.254-0.644 0.313-0.973 0.019-0.101 0.036-0.202 0.058-0.299 0.050-0.224 0.087-0.446 0.124-0.66 0.028-0.169 0.057-0.339 0.091-0.511 0.072-0.35 0.065-0.753-0.020-1.195-0.014-0.073-0.019-0.153-0.025-0.237-0.009-0.138-0.019-0.293-0.072-0.447-0.101-0.297-0.176-0.367-0.204-0.393-0.019-0.018-0.041-0.033-0.064-0.043-0.003-0.004-0.005-0.009-0.007-0.012-0.017-0.030-0.037-0.060-0.059-0.090-0.082-0.106-0.169-0.175-0.253-0.241l-0.042-0.032c-0.164-0.133-0.307-0.188-0.457-0.248-0.37-0.144-0.953-0.186-1.352 0.015-0.466 0.234-0.493 0.871-0.514 1.335-0.005 0.123-0.010 0.24-0.022 0.326-0.091 0.66-0.079 1.34-0.066 1.998 0.005 0.225 0.009 0.451 0.009 0.674z"></path>
<path d="M25.534 13.157c0.016-0.041 0.031-0.081 0.047-0.116 0.081-0.177 0.175-0.349 0.281-0.538 0.172-0.312 0.248-0.632 0.32-0.941 0.022-0.095 0.046-0.19 0.070-0.287 0.028-0.105 0.064-0.208 0.099-0.31 0.044-0.127 0.090-0.259 0.123-0.399 0.015-0.063 0.028-0.13 0.042-0.198 0.030-0.147 0.059-0.297 0.11-0.404 0.028-0.060 0.054-0.121 0.080-0.18 0.019-0.042 0.037-0.084 0.054-0.123 0.003 0.025 0.004 0.052 0.005 0.080 0.003 0.085 0.006 0.184 0.033 0.286 0.028 0.112 0.133 0.186 0.251 0.175 0.344-0.033 0.392-0.469 0.425-0.759 0.005-0.050 0.010-0.094 0.016-0.122 0.011-0.054 0.026-0.106 0.039-0.159 0.036-0.131 0.072-0.266 0.078-0.42 0.006-0.15 0.003-0.3 0-0.451-0.003-0.11-0.005-0.218-0.004-0.328 0.003-0.202 0.052-0.404 0.103-0.618 0.053-0.217 0.107-0.442 0.115-0.681 0.004-0.11 0.003-0.222 0-0.333-0.001-0.063-0.003-0.126-0.003-0.19 0-0.033 0.004-0.075 0.007-0.118 0.010-0.117 0.020-0.25-0.009-0.363-0.095-0.371-0.431-0.411-0.632-0.435-0.068-0.009-0.139-0.017-0.18-0.035-0.092-0.037-0.191-0.069-0.291-0.102-0.185-0.060-0.36-0.117-0.498-0.215-0.078-0.056-0.159-0.129-0.246-0.207-0.163-0.147-0.33-0.298-0.523-0.384-0.126-0.056-0.237-0.049-0.328-0.027-0.020-0.025-0.046-0.046-0.075-0.060-0.078-0.039-0.172-0.033-0.244 0.019-0.111 0.079-0.262 0.186-0.225 0.378 0.016 0.082 0.075 0.15 0.154 0.177 0.004 0.001 0.007 0.002 0.011 0.004 0.014 0.069 0.028 0.137 0.043 0.203 0.019 0.078 0.036 0.157 0.050 0.24 0.023 0.129 0.017 0.269 0.011 0.416-0.004 0.104-0.007 0.206-0.004 0.309 0.007 0.168 0.037 0.326 0.064 0.482 0.011 0.060 0.022 0.122 0.032 0.182 0.021 0.132 0.039 0.265 0.058 0.397 0.026 0.186 0.052 0.371 0.084 0.555 0.015 0.092 0.037 0.182 0.059 0.274 0.033 0.135 0.064 0.264 0.070 0.388 0.006 0.145 0.003 0.293-0.001 0.448-0.003 0.115-0.005 0.229-0.004 0.342 0.001 0.161-0.022 0.329-0.047 0.509-0.010 0.076-0.021 0.153-0.030 0.229-0.011 0.1-0.034 0.202-0.059 0.31-0.023 0.106-0.049 0.217-0.064 0.331-0.026 0.206-0.022 0.409-0.019 0.605 0.001 0.064 0.003 0.127 0.003 0.19 0.001 0.288 0 0.577 0 0.865v0.248c0 0.059 0.001 0.118 0.003 0.177 0.003 0.084 0.004 0.169 0.001 0.252-0.001 0.047-0.017 0.115-0.033 0.185-0.037 0.158-0.082 0.352-0.014 0.536 0.028 0.076 0.095 0.133 0.175 0.149 0.015 0.002 0.031 0.004 0.046 0.004 0.065 0 0.128-0.027 0.174-0.076 0.096-0.105 0.148-0.243 0.195-0.365z"></path>
<path d="M16.030 11.653c-0.004 0.585 0.096 1.155 0.192 1.707 0.068 0.386 0.137 0.783 0.168 1.175 0.036 0.445 0.101 0.937 0.2 1.509 0.010 0.058 0.022 0.115 0.033 0.17 0.030 0.149 0.057 0.278 0.049 0.418-0.006 0.108 0.064 0.207 0.168 0.238 0.022 0.008 0.046 0.010 0.068 0.010 0.082 0 0.16-0.043 0.203-0.116 0.063-0.106 0.075-0.202 0.085-0.272 0.003-0.023 0.005-0.048 0.012-0.074 0.003-0.008 0.006-0.015 0.016-0.033 0.020-0.037 0.050-0.092 0.065-0.175 0.016-0.090 0.007-0.174 0-0.246-0.005-0.043-0.010-0.088-0.005-0.115 0.010-0.064 0.027-0.131 0.047-0.202 0.011-0.038 0.022-0.078 0.032-0.117 0.025-0.1 0.057-0.197 0.087-0.294 0.049-0.151 0.101-0.308 0.128-0.475 0.015-0.091 0.047-0.179 0.081-0.272 0.026-0.069 0.050-0.138 0.072-0.212 0.027-0.095 0.039-0.184 0.052-0.27 0.011-0.076 0.021-0.149 0.041-0.213 0.053-0.179 0.094-0.358 0.133-0.532 0.072-0.315 0.139-0.615 0.275-0.893 0.022-0.044 0.041-0.090 0.060-0.136 0.041-0.095 0.075-0.176 0.127-0.233 0.105-0.118 0.248-0.299 0.291-0.515 0.015-0.074 0.009-0.143 0.004-0.197-0.001-0.022-0.004-0.055-0.003-0.067 0.004-0.014 0.007-0.021 0.019-0.044 0.020-0.042 0.050-0.105 0.063-0.203 0.007-0.063 0.001-0.118-0.004-0.164-0.001-0.020-0.005-0.050-0.004-0.060 0.009-0.049 0.020-0.094 0.031-0.138 0.021-0.082 0.044-0.177 0.049-0.296 0.015-0.408 0.010-0.823 0.005-1.224-0.004-0.208-0.006-0.415-0.006-0.622 0-0.113-0.001-0.227-0.003-0.339-0.004-0.452-0.009-0.879 0.052-1.307 0.048-0.339 0.085-0.677 0.111-0.934 0.025-0.233 0.027-0.466 0.030-0.691 0.001-0.253 0.004-0.49 0.034-0.722 0.021-0.155 0.046-0.309 0.070-0.463 0.030-0.179 0.058-0.36 0.080-0.541 0.005-0.037 0.009-0.077 0.012-0.118 0.015-0.144 0.032-0.324 0.090-0.41 0.005-0.006 0.021-0.012 0.076-0.025 0.089-0.020 0.235-0.053 0.335-0.198 0.058-0.084 0.054-0.195-0.007-0.276l-0.085-0.113c-0.259-0.341-0.501-0.664-0.872-0.749-0.085-0.020-0.17-0.022-0.244-0.025-0.058-0.002-0.113-0.004-0.156-0.014-0.158-0.032-0.283-0.046-0.418-0.044-0.107 0.001-0.214 0.001-0.32 0-0.14-0.001-0.281-0.002-0.42 0-0.259 0.008-0.459 0.088-0.658 0.176-0.349 0.156-0.387 0.387-0.399 0.672-0.011 0.26 0.014 0.515 0.037 0.762 0.020 0.207 0.039 0.403 0.038 0.6-0.001 0.331-0.001 0.661-0.001 0.992v0.483c0 0.094 0.003 0.186 0.004 0.28 0.003 0.124 0.005 0.248 0.003 0.372-0.003 0.161-0.034 0.323-0.068 0.493-0.027 0.14-0.054 0.286-0.068 0.436-0.037 0.421-0.028 0.851-0.020 1.268 0.004 0.177 0.007 0.356 0.006 0.532 0 0.101 0.003 0.203 0.004 0.306 0.004 0.164 0.007 0.334 0.001 0.496-0.005 0.126-0.021 0.25-0.038 0.383-0.019 0.145-0.037 0.297-0.042 0.454-0.007 0.288-0.004 0.58 0 0.862 0.001 0.195 0.004 0.39 0.003 0.585z"></path>
<path d="M14.732 28.741c0.121-0.594 0.092-1.425 0.527-1.875 0.076-0.078 0.166-0.161 0.26-0.212 0.134-0.074 0.272-0.046 0.414-0.085 0.201-0.058 0.356-0.212 0.527-0.33 0.293-0.204 0.404-0.329 0.535-0.686 0.126-0.347 0.16-0.66 0.196-1.031 0.015-0.158 0.042-0.316 0.033-0.477-0.007-0.129-0.043-0.243-0.027-0.373 0.033-0.262 0.169-0.533 0.234-0.79 0.074-0.293 0.164-0.579 0.24-0.871 0.074-0.282 0.019-0.553 0.064-0.839 0.101-0.642-0.022-1.324-0.084-1.972-0.031-0.326-0.005-0.604 0.046-0.923 0.030-0.185 0.020-0.373 0.049-0.554 0.237-0.124 0.198 0.107 0.244 0.262 0.022 0.076 0.068 0.127 0.079 0.238 0.021 0.217 0.058 0.394 0.107 0.6 0.156 0.642 0.24 1.301 0.457 1.92 0.107 0.304 0.133 0.628 0.225 0.934 0.111 0.368 0.159 0.732 0.188 1.116 0.025 0.314 0.127 0.594 0.151 0.915 0.023 0.32 0.185 0.606 0.229 0.923 0.079 0.57 0.237 1.2 0.687 1.567 0.246 0.2 0.489 0.424 0.727 0.64 0.212 0.193 0.314 0.331 0.43 0.605 0.224 0.532 0.437 1.142 0.494 1.719 0.007 0.079 0.042 0.198 0.027 0.273-0.022 0.121-0.011 0.078-0.111 0.142-0.312 0.203-1.095 0.371-1.245-0.107-0.022-0.067 0.005-0.147-0.012-0.214-0.022-0.086-0.078-0.172-0.115-0.254-0.111-0.25-0.166-0.578-0.266-0.845-0.158-0.424-0.59-0.407-0.909-0.641-0.118-0.089-0.24-0.16-0.357-0.254-0.095-0.074-0.202-0.214-0.319-0.24-0.187-0.041-0.33 0.097-0.462 0.202-0.168 0.133-0.346 0.286-0.551 0.371-0.208 0.085-0.397 0.216-0.612 0.285-0.11 0.035-0.143 0.033-0.239 0.116-0.055 0.048-0.102 0.104-0.159 0.147-0.372 0.285-0.48 0.809-0.617 1.239-0.091 0.288-0.143 0.653-0.397 0.85-0.11 0.085-0.273 0.181-0.403 0.233-0.066 0.027-0.121 0.036-0.192 0.035-0.118-0.002-0.191-0.041-0.235-0.101-0.079-0.106-0.072-0.282-0.084-0.457-0.031-0.429 0.142-0.794 0.224-1.201z"></path>
<path d="M22.809 25.644c-0.193-1.228-0.259-2.524-0.618-3.71-0.082-0.275-0.057-0.57-0.154-0.849-0.115-0.326-0.217-0.647-0.302-0.984-0.057-0.22-0.163-0.424-0.217-0.637-0.057-0.228 0.036-0.477-0.027-0.7-0.105 0.037-0.193 0.271-0.255 0.386-0.107 0.196-0.216 0.399-0.308 0.601-0.075 0.166-0.080 0.319-0.17 0.483-0.147 0.266-0.181 0.53-0.235 0.829-0.097 0.548-0.156 1.166-0.054 1.721 0.081 0.434 0.038 0.913 0.037 1.356-0.001 0.218-0.011 0.416 0.062 0.625 0.023 0.065 0.054 0.196 0.094 0.244 0.094 0.116 0.22 0.185 0.303 0.326 0.124 0.217 0.246 0.48 0.357 0.706 0.116 0.235 0.206 0.474 0.33 0.706 0.132 0.249 0.176 0.526 0.248 0.802 0.118 0.453 0.253 0.962 0.322 1.424 0.296 0 0.584 0.054 0.787-0.054 0.265-0.142 0.394-0.403 0.432-0.724 0.041-0.335-0.058-0.726-0.143-1.043-0.137-0.511-0.404-0.977-0.488-1.506z"></path>
<path d="M9.777 7.316c0.049 0.121 0.097 0.235 0.119 0.346 0.017 0.084 0.015 0.181 0.012 0.283-0.004 0.106-0.006 0.217 0.011 0.334 0.015 0.105 0.038 0.208 0.062 0.313 0.033 0.144 0.064 0.28 0.068 0.411 0.001 0.021 0 0.041-0.001 0.059-0.006 0.096-0.017 0.256 0.122 0.394 0.044 0.044 0.105 0.068 0.166 0.068 0.019 0 0.038-0.002 0.058-0.006 0.081-0.021 0.144-0.081 0.168-0.161 0.062-0.212 0.106-0.421 0.148-0.623l0.030-0.137c0.012-0.057 0.043-0.12 0.078-0.187 0.043-0.086 0.091-0.182 0.115-0.294 0.019-0.091 0.016-0.17 0.012-0.24-0.001-0.030-0.003-0.059-0.001-0.091 0.003-0.068 0.019-0.142 0.036-0.219 0.017-0.084 0.036-0.17 0.043-0.267 0.007-0.105 0.004-0.208 0-0.31-0.001-0.055-0.004-0.111-0.004-0.165 0.003-0.357-0.043-0.668-0.092-0.95-0.025-0.144-0.039-0.287-0.055-0.437-0.015-0.142-0.030-0.284-0.053-0.429-0.021-0.124-0.017-0.256-0.014-0.395l0.003-0.094c0.003-0.138-0.025-0.23-0.047-0.303-0.009-0.030-0.019-0.060-0.025-0.096-0.032-0.176-0.021-0.395-0.012-0.606 0.005-0.106 0.010-0.211 0.010-0.309 0-0.075-0.036-0.145-0.096-0.19-0.059-0.044-0.138-0.058-0.209-0.036-0.139 0.043-0.233 0.014-0.362-0.027-0.106-0.033-0.227-0.071-0.371-0.062-0.285 0.020-0.611 0.193-0.849 0.32l-0.046 0.025c-0.222 0.117-0.519 0.329-0.539 0.807-0.019 0.415 0.149 0.708 0.312 0.993 0.046 0.080 0.092 0.161 0.134 0.246 0.032 0.064 0.059 0.129 0.086 0.195 0.041 0.1 0.082 0.202 0.142 0.306 0.041 0.072 0.087 0.139 0.134 0.207 0.049 0.070 0.096 0.137 0.131 0.204 0.063 0.124 0.134 0.241 0.204 0.36 0.116 0.191 0.225 0.372 0.299 0.578 0.023 0.063 0.049 0.126 0.075 0.189z"></path>
<path d="M13.807 6.12c0.016-0.113 0.034-0.227 0.054-0.34l0.032-0.193c0.016-0.096 0.047-0.193 0.079-0.296 0.022-0.073 0.046-0.144 0.064-0.218 0.063-0.25 0.062-0.489 0.060-0.719v-0.045c-0.003-0.514-0.003-1.026-0.001-1.54v-0.7c0-0.027-0.004-0.053-0.014-0.079-0.115-0.33-0.606-0.339-0.993-0.245-0.378 0.092-0.684 0.152-1.030 0.165-0.18 0.006-0.317 0.069-0.406 0.182-0.158 0.196-0.108 0.464-0.065 0.702 0.017 0.095 0.036 0.193 0.037 0.268 0.003 0.384 0.006 0.746 0.090 1.142 0.001 0.005 0.091 0.394 0.251 0.52 0.1 0.079 0.216 0.108 0.326 0.082 0.211-0.049 0.318-0.27 0.37-0.376 0.019-0.037 0.039-0.095 0.063-0.161 0.014-0.036 0.034-0.094 0.057-0.148 0.099 0.192 0.144 0.467 0.185 0.713 0.012 0.075 0.023 0.147 0.037 0.213l0.025 0.129c0.047 0.24 0.096 0.489 0.097 0.723 0.001 0.038-0.003 0.080-0.004 0.124-0.011 0.199-0.027 0.473 0.155 0.669 0.047 0.049 0.11 0.075 0.172 0.075 0.054 0 0.108-0.018 0.153-0.057 0.163-0.138 0.182-0.357 0.198-0.519 0.003-0.026 0.004-0.052 0.007-0.074z"></path>
<path d="M24.050 24.583c-0.004-0.158 0.025-0.278 0.068-0.427 0.044-0.153 0.041-0.273 0.068-0.425 0.034-0.201 0.076-0.408 0.107-0.61 0.019-0.124 0.102-0.365 0.186-0.457 0.126 0.108 0.177 0.203 0.244 0.359 0.055 0.13 0.078 0.223 0.219 0.223 0.158 0 0.253-0.181 0.334-0.322 0.044-0.075 0.058-0.155 0.081-0.236 0.015-0.050 0.052-0.158 0.058-0.207 0.015-0.101-0.020-0.204 0.001-0.305 0.025-0.122 0.097-0.221 0.123-0.342 0.070-0.323 0.039-0.679 0.084-1.005 0.039-0.281 0.057-0.59 0.127-0.861 0.025-0.092 0.126-0.608 0.228-0.621 0.113 0.086 0.063 0.252 0.095 0.379 0.050 0.203 0.137 0.357 0.148 0.578 0.014 0.281 0.020 0.472 0.090 0.741 0.058 0.225 0.1 0.459 0.147 0.689 0.11 0.545 0.026 1.152 0.062 1.707 0.009 0.135 0.053 0.25 0.085 0.374 0.028 0.117 0.054 0.204 0.132 0.308 0.084 0.111 0.16 0.106 0.277 0.145 0.143 0.047 0.121 0.047 0.181 0.189 0.074 0.175 0.156 0.372 0.159 0.576 0.004 0.259 0.033 0.524 0.030 0.785 0 0.064-0.004 0.129-0.009 0.193-0.028 0.329-0.228 0.369-0.52 0.303-0.165-0.037-0.307-0.121-0.463-0.168-0.116-0.036-0.241-0.043-0.358-0.076-0.196-0.055-0.425-0.064-0.634-0.037-0.49 0.064 0.068 0.807-0.322 0.987-0.164 0.075-0.447-0.035-0.584-0.095-0.36-0.158-0.742-0.216-0.826-0.664-0.121-0.636 0.397-1.096 0.384-1.678z"></path>
<path d="M5.016 22.824c0.206 0.039 0.506 0.133 0.685-0.028 0.122-0.108 0.085-0.244 0.112-0.384 0.026-0.132 0.096-0.262 0.126-0.397 0.053-0.234 0.084-0.479 0.133-0.713 0.057-0.265 0.001-0.546 0.014-0.814 0.019-0.421 0.096-1.088 0.408-1.409 0.123 0.165 0.143 0.439 0.209 0.632 0.068 0.196 0.135 0.393 0.213 0.584 0.158 0.389 0.254 0.818 0.439 1.196 0.105 0.214 0.149 0.414 0.266 0.613 0.089 0.151 0.156 0.32 0.193 0.478 0.063 0.272 0.169 0.551 0.161 0.831-0.003 0.089-0.020 0.17-0.007 0.259 0.021 0.148 0.085 0.293 0.119 0.439 0.076 0.314 0.112 0.638 0.112 0.962 0.001 0.2 0.033 0.326 0.087 0.512 0.085 0.292 0.171 0.49 0.079 0.797-0.059 0.19-0.123 0.427-0.265 0.575-0.158 0.165-0.326 0.122-0.526 0.080-0.289-0.058-0.351-0.111-0.519-0.351-0.005-0.009-0.011-0.017-0.017-0.026-0.105-0.159-0.148-0.304-0.191-0.487-0.053-0.221-0.19-0.421-0.267-0.633-0.076-0.214-0.185-0.437-0.379-0.568-0.196-0.13-0.349-0.106-0.57-0.134-0.11-0.015-0.217-0.063-0.328-0.089-0.202-0.048-0.34-0.070-0.472-0.233-0.115-0.14-0.246-0.259-0.372-0.388-0.27-0.28-0.324-0.82-0.058-1.121 0.154-0.175 0.392-0.227 0.615-0.183z"></path>
<path d="M8.788 25.716c0.006-0.132 0.048-0.208 0.068-0.328 0.022-0.14-0.001-0.28 0.021-0.421 0.022-0.133 0.048-0.241 0.054-0.387 0.006-0.156 0.053-0.26 0.094-0.405 0.033-0.126 0.025-0.272 0.065-0.392 0.072-0.207 0.192-0.376 0.363-0.49 0.149 0.227 0.187 0.474 0.266 0.727 0.087 0.278 0.165 0.576 0.234 0.868 0.020 0.084 0.034 0.17 0.049 0.255 0.127-0.158 0.251-0.315 0.335-0.515 0.134-0.324 0.1-0.638 0.172-0.971 0.121-0.562 0.206-1.144 0.394-1.68 0.067-0.191 0.137-0.378 0.196-0.574 0.11-0.362 0.27-0.771 0.312-1.145 0.032-0.287-0.004-0.565 0.048-0.854 0.046-0.255 0.079-0.5 0.087-0.756 0.007-0.186 0.134-0.26 0.293-0.116 0.092 0.084 0.111 0.283 0.155 0.418 0.129 0.387 0.131 0.831 0.181 1.235 0.038 0.308-0.021 0.622 0.032 0.929 0.049 0.288 0.021 0.58 0.072 0.867 0.039 0.225 0.089 0.446 0.135 0.671 0.089 0.421 0.253 0.788 0.281 1.224 0.014 0.202 0.014 0.355 0.050 0.557 0.022 0.121 0.054 0.25 0.073 0.37 0.022 0.142 0.001 0.283 0.031 0.425 0.036 0.171 0.107 0.328 0.145 0.499 0.047 0.217 0.156 0.383 0.268 0.565 0.158 0.253 0.402 0.389 0.576 0.615 0.147 0.189 0.188 0.472 0.211 0.708 0.041 0.445 0.072 0.861 0.072 1.308 0 0.286 0.016 0.51-0.074 0.772-0.042 0.122-0.010 0.149-0.148 0.223-0.112 0.059-0.239 0.075-0.355 0.126-0.095 0.042-0.129 0.084-0.244 0.075-0.161-0.011-0.351-0.163-0.442-0.298-0.009-0.012-0.016-0.026-0.022-0.039-0.036-0.078-0.052-0.188-0.066-0.261-0.027-0.138-0.058-0.302-0.073-0.445-0.027-0.272-0.070-0.522-0.138-0.797-0.050-0.202-0.091-0.395-0.315-0.478-0.219-0.082-0.474-0.117-0.711-0.074-0.277 0.050-0.533 0.169-0.807 0.234-0.259 0.062-0.522 0.055-0.787 0.049-0.159-0.004-0.328 0.006-0.468-0.080-0.421-0.261-0.676-1.031-0.558-1.479-0.084-0.054-0.124-0.122-0.127-0.277-0.001-0.151-0.006-0.307 0-0.458z"></path>
</svg>
