<!-- Generated by IcoMoon.io -->
<svg version="1.1" xmlns="http://www.w3.org/2000/svg" width="33" height="32" viewBox="0 0 33 32">
<title>lagos</title>
<path d="M1.079 27.578v-0.422h0.773c0.438 0 0.815-0.022 0.869-0.051 0.093-0.050 0.096-0.135 0.096-2.978 0-2.641-0.008-2.931-0.080-2.971s-0.079-0.274-0.072-2.33l0.008-2.285-0.263-0.032c-0.145-0.017-0.504-0.032-0.797-0.032l-0.534-0v-0.138c0-0.133 0.024-0.146 0.584-0.329 0.507-0.166 3.569-1.313 4.102-1.537 0.12-0.050 0.436-0.329 0.849-0.749 0.362-0.368 0.719-0.693 0.793-0.721 0.085-0.032 0.901-0.051 2.21-0.051 1.915 0 2.081-0.007 2.148-0.087 0.040-0.048 0.36-0.657 0.71-1.354s0.754-1.49 0.896-1.763c0.143-0.273 0.775-1.514 1.405-2.757 1.437-2.835 1.519-2.992 1.571-2.989 0.023 0.001 0.354 0.613 0.734 1.359s1.095 2.151 1.589 3.121c1.992 3.914 2.192 4.3 2.265 4.383 0.070 0.080 0.235 0.087 2.126 0.087 1.309 0 2.101 0.019 2.19 0.052 0.077 0.029 0.453 0.362 0.835 0.74l0.695 0.688 0.993 0.374c0.546 0.206 1.373 0.518 1.838 0.693s1.096 0.403 1.403 0.506c0.539 0.18 0.559 0.192 0.559 0.33v0.143l-0.509 0.003c-0.508 0.003-0.901 0.031-1.018 0.072-0.084 0.029-0.090 4.018-0.007 4.295 0.051 0.169 0.045 0.195-0.074 0.314l-0.13 0.13v2.855c0 2.529 0.009 2.864 0.078 2.933 0.064 0.064 0.216 0.078 0.869 0.078h0.791v0.844h-30.498zM5.906 26.969c0.013-0.11 0.044-0.14 0.165-0.154 0.082-0.009 0.165-0.043 0.185-0.074 0.052-0.082 0.032-5.454-0.020-5.559-0.024-0.048-0.074-0.087-0.11-0.087s-0.095-0.034-0.128-0.074c-0.052-0.062-0.248-0.074-1.193-0.074h-1.131l-0.308 0.351v2.844c0 2.146 0.015 2.859 0.060 2.904 0.043 0.043 0.393 0.060 1.263 0.060h1.204zM29.28 24.151l0.013-2.931-0.313-0.273h-1.084c-1.005 0-1.099 0.008-1.285 0.104l-0.2 0.104v5.652h0.174c0.16 0 0.174 0.012 0.174 0.15v0.15l2.508-0.026zM11.746 23.994l0.013-2.789-0.46-0.257h-2.106c-1.761 0-2.111 0.011-2.133 0.070-0.015 0.038-0.070 0.081-0.123 0.095-0.093 0.024-0.096 0.1-0.096 2.828 0 1.541 0.015 2.818 0.034 2.836s1.119 0.028 2.446 0.021l2.413-0.013zM7.917 25.831c-0.063-0.063-0.038-2.326 0.026-2.391 0.039-0.039 0.25-0.060 0.619-0.060 0.502 0 0.565 0.010 0.611 0.096 0.069 0.128 0.069 2.163 0 2.291-0.046 0.087-0.109 0.096-0.637 0.096-0.322 0-0.601-0.015-0.619-0.033zM9.384 25.805c-0.085-0.085-0.085-2.28 0-2.364 0.040-0.040 0.261-0.060 0.669-0.060 0.551 0 0.614 0.009 0.661 0.096 0.031 0.058 0.051 0.517 0.051 1.146s-0.021 1.088-0.051 1.146c-0.047 0.087-0.109 0.096-0.661 0.096-0.408 0-0.629-0.020-0.669-0.060zM7.946 23.099c-0.046-0.019-0.062-0.224-0.062-0.785 0-0.862-0.024-0.819 0.45-0.821 0.372-0.001 0.412 0.058 0.435 0.638 0.035 0.87-0.029 1.002-0.479 0.996-0.155-0.002-0.31-0.015-0.344-0.029zM8.951 23.050c-0.071-0.071-0.080-0.178-0.066-0.743 0.012-0.455 0.037-0.68 0.082-0.724 0.072-0.072 0.671-0.091 0.738-0.023 0.023 0.023 0.041 0.354 0.041 0.737 0 0.631-0.009 0.702-0.096 0.766-0.137 0.1-0.595 0.092-0.699-0.012zM9.854 23.099c-0.062-0.062-0.038-1.482 0.026-1.546 0.035-0.035 0.204-0.060 0.412-0.060s0.377 0.024 0.412 0.060c0.041 0.041 0.060 0.281 0.060 0.76s-0.019 0.719-0.060 0.76c-0.063 0.063-0.792 0.086-0.851 0.026zM13.497 24.995l0.025-1.788 1.062-0.013c0.741-0.009 1.082 0.004 1.13 0.043 0.056 0.046 0.068 0.382 0.068 1.814v1.757h1.192v-1.735c0-1.52 0.010-1.745 0.079-1.814 0.068-0.068 0.223-0.077 1.13-0.066l1.051 0.013 0.026 3.605 0.918-0.029 0.026-5.579-0.46-0.257-3.409 0.001c-3.259 0.001-3.418 0.005-3.62 0.097l-0.211 0.096v2.801c0 1.54 0.016 2.816 0.035 2.835s0.237 0.028 0.484 0.021l0.449-0.014zM13.55 22.963c-0.078-0.095-0.077-0.809 0.002-0.904 0.043-0.052 0.141-0.068 0.338-0.058l0.278 0.015 0.014 0.44c0.009 0.281-0.006 0.465-0.043 0.509-0.077 0.093-0.511 0.093-0.589-0.001zM14.325 23c-0.018-0.018-0.033-0.23-0.033-0.471 0-0.406 0.009-0.443 0.118-0.515 0.084-0.055 0.176-0.068 0.323-0.044l0.205 0.033v0.464c0 0.408-0.012 0.47-0.096 0.515-0.107 0.057-0.465 0.070-0.517 0.018zM15.096 22.973c-0.080-0.080-0.080-0.844 0-0.924 0.070-0.070 0.479-0.078 0.585-0.012 0.051 0.032 0.079 0.16 0.092 0.416 0.016 0.324 0.006 0.383-0.086 0.474-0.118 0.118-0.49 0.146-0.591 0.045zM17.007 23c-0.041-0.041-0.044-0.825-0.003-0.931 0.022-0.057 0.097-0.079 0.269-0.079 0.394 0 0.396 0.002 0.396 0.5 0 0.384-0.012 0.446-0.096 0.491-0.107 0.057-0.514 0.070-0.566 0.018zM17.814 22.926c-0.079-0.147-0.033-0.831 0.059-0.892 0.038-0.025 0.181-0.039 0.318-0.032l0.248 0.013v0.461c0 0.523-0.020 0.555-0.358 0.556-0.164 0.001-0.222-0.022-0.267-0.107zM18.587 22.973c-0.015-0.040-0.021-0.271-0.013-0.515l0.014-0.443 0.272-0.015c0.214-0.012 0.285 0.003 0.335 0.072 0.073 0.1 0.086 0.75 0.018 0.858-0.065 0.102-0.589 0.139-0.626 0.044zM14.688 25.154c-0.001-1.537-0.046-2.091-0.116-1.421-0.040 0.387-0.041 2.813-0.001 2.963 0.086 0.321 0.118-0.098 0.117-1.542zM18.166 25.144c0-1.076-0.018-1.664-0.050-1.664s-0.050 0.588-0.050 1.664c0 1.076 0.018 1.664 0.050 1.664s0.050-0.588 0.050-1.664zM25.81 26.74c0.041-0.049 0.053-0.835 0.043-2.844l-0.013-2.776-0.112-0.016c-0.061-0.009-0.112-0.048-0.112-0.087 0-0.061-0.321-0.071-2.173-0.070l-2.173 0.001-0.347 0.288-0.015 2.674c-0.008 1.471-0.002 2.724 0.013 2.785l0.028 0.112h2.402c1.967 0 2.412-0.012 2.458-0.068zM22.024 25.831c-0.063-0.063-0.038-2.326 0.026-2.391 0.040-0.040 0.254-0.060 0.636-0.060s0.596 0.020 0.636 0.060c0.043 0.043 0.060 0.382 0.060 1.212 0 1.005-0.010 1.156-0.079 1.182-0.107 0.041-1.238 0.038-1.279-0.003zM23.564 25.831c-0.018-0.018-0.033-0.563-0.033-1.212 0-1.029 0.010-1.182 0.079-1.209 0.111-0.043 1.077-0.036 1.144 0.008 0.082 0.053 0.147 2.199 0.072 2.34-0.053 0.098-0.096 0.105-0.642 0.105-0.322 0-0.601-0.015-0.619-0.033zM21.997 23.066c-0.060-0.072-0.047-1.417 0.015-1.517 0.020-0.033 0.184-0.055 0.4-0.055 0.527 0 0.532 0.009 0.517 0.814-0.007 0.358-0.022 0.69-0.034 0.738-0.018 0.074-0.082 0.087-0.432 0.087-0.282 0-0.428-0.021-0.466-0.067zM23.062 23.054c-0.064-0.064-0.078-0.207-0.078-0.768 0-0.799 0.014-0.823 0.463-0.78 0.361 0.035 0.382 0.083 0.382 0.864 0 0.601-0.008 0.664-0.096 0.711-0.151 0.081-0.58 0.064-0.67-0.027zM24.088 23.055c-0.105-0.073-0.11-0.111-0.11-0.742s0.006-0.669 0.11-0.742c0.148-0.104 0.602-0.103 0.706 0.001 0.063 0.063 0.078 0.2 0.078 0.692 0 0.338-0.022 0.671-0.048 0.742-0.044 0.117-0.073 0.127-0.337 0.127-0.18 0-0.329-0.029-0.399-0.077zM10.695 19.998c0.088-0.097 0.096-0.211 0.11-1.577 0.008-0.81 0.002-1.544-0.014-1.632-0.061-0.329 0.101-0.312-2.935-0.312-2.687 0-2.756 0.002-2.852 0.099-0.095 0.095-0.099 0.166-0.099 1.714s0.004 1.618 0.099 1.714c0.097 0.097 0.166 0.099 2.848 0.099 2.731 0 2.75-0.001 2.844-0.104zM5.455 19.723c-0.109-0.076-0.115-0.105-0.087-0.404 0.017-0.177 0.043-0.335 0.058-0.35 0.046-0.046 0.574-0.095 0.913-0.086 0.415 0.012 0.504 0.107 0.481 0.511-0.022 0.383-0.072 0.411-0.722 0.411-0.408 0-0.552-0.018-0.643-0.082zM7.186 19.712c-0.108-0.087-0.111-0.11-0.068-0.431 0.043-0.32 0.055-0.342 0.195-0.381 0.082-0.023 0.376-0.027 0.653-0.009 0.594 0.038 0.644 0.081 0.602 0.521-0.035 0.362-0.092 0.392-0.737 0.392-0.443 0-0.55-0.015-0.645-0.092zM8.96 19.714c-0.106-0.117-0.114-0.616-0.012-0.718 0.047-0.047 0.239-0.080 0.584-0.1 0.686-0.039 0.737-0.008 0.737 0.452 0 0.196-0.025 0.362-0.060 0.396-0.039 0.039-0.249 0.060-0.613 0.060-0.473 0-0.566-0.013-0.636-0.091zM5.479 18.683c-0.117-0.117-0.11-0.698 0.009-0.754 0.048-0.022 0.35-0.029 0.673-0.014 0.669 0.030 0.679 0.037 0.68 0.433 0.001 0.386-0.046 0.413-0.719 0.413-0.447 0-0.58-0.016-0.642-0.078zM7.252 18.711c-0.141-0.057-0.179-0.214-0.127-0.523l0.041-0.246 1.303-0.028 0.055 0.158c0.077 0.221 0.068 0.449-0.022 0.579-0.072 0.103-0.114 0.11-0.608 0.107-0.292-0.002-0.581-0.023-0.641-0.047zM8.956 18.683c-0.053-0.053-0.078-0.171-0.078-0.371 0-0.374 0.039-0.396 0.707-0.396 0.657 0 0.711 0.033 0.701 0.427-0.009 0.391-0.055 0.417-0.719 0.417-0.419 0-0.55-0.017-0.611-0.078zM9.066 17.766c-0.17-0.040-0.25-0.245-0.194-0.497 0.026-0.115 0.072-0.233 0.103-0.264 0.077-0.078 1.055-0.105 1.189-0.034 0.089 0.048 0.104 0.102 0.104 0.375 0 0.253-0.018 0.329-0.087 0.366-0.1 0.053-0.945 0.095-1.115 0.055zM5.476 17.688c-0.059-0.059-0.076-0.154-0.066-0.359 0.019-0.364 0.094-0.403 0.769-0.404 0.467-0.001 0.512 0.008 0.584 0.11 0.088 0.125 0.103 0.494 0.026 0.638-0.046 0.087-0.109 0.096-0.642 0.096-0.478 0-0.606-0.015-0.671-0.080zM7.192 17.698c-0.035-0.042-0.052-0.195-0.043-0.382 0.015-0.31 0.016-0.312 0.189-0.357 0.246-0.064 1.064-0.022 1.162 0.060 0.092 0.076 0.11 0.5 0.028 0.653-0.047 0.087-0.109 0.096-0.664 0.096-0.467 0-0.627-0.017-0.671-0.070zM13.398 17.274v-2.828l-1.031-0.015c-0.567-0.008-1.069-0.007-1.115 0.002s-0.091 0.063-0.099 0.118c-0.012 0.082-0.2 0.168-1.033 0.47-0.56 0.203-1.13 0.411-1.267 0.462s-0.354 0.131-0.483 0.177c-0.129 0.047-0.223 0.104-0.208 0.128 0.048 0.078 0.268 0.046 0.716-0.106 0.243-0.082 0.485-0.149 0.539-0.149 0.104 0 1.445 0.554 1.634 0.676l0.112 0.072v1.815c0 1.156 0.019 1.85 0.051 1.911 0.048 0.090 0.114 0.096 1.118 0.096h1.066zM11.391 16.845c-0.055-0.142-0.032-0.695 0.032-0.776 0.073-0.092 0.552-0.148 0.72-0.085 0.103 0.039 0.112 0.074 0.112 0.431 0 0.236-0.023 0.412-0.060 0.448s-0.205 0.060-0.417 0.060c-0.28 0-0.364-0.017-0.387-0.079zM12.375 16.867c-0.054-0.087-0.022-0.751 0.040-0.825 0.038-0.046 0.16-0.061 0.407-0.051l0.352 0.014v0.412c0 0.312-0.018 0.423-0.074 0.459-0.106 0.067-0.682 0.061-0.725-0.008zM11.038 15.88c-0.055-0.020-0.353-0.144-0.663-0.274l-0.564-0.237 0.167-0.071c0.344-0.148 1.143-0.42 1.165-0.397 0.013 0.013 0.017 0.247 0.009 0.52-0.014 0.473-0.019 0.495-0.114 0.46zM11.423 15.726c-0.037-0.038-0.062-0.198-0.062-0.402 0-0.468 0.080-0.546 0.536-0.526l0.333 0.015 0.014 0.402c0.012 0.324-0.001 0.415-0.067 0.47-0.113 0.093-0.674 0.124-0.754 0.041zM12.504 15.745c-0.125-0.047-0.148-0.123-0.148-0.496-0.001-0.304 0.014-0.366 0.095-0.41 0.132-0.071 0.616-0.065 0.689 0.008 0.092 0.092 0.078 0.759-0.018 0.856-0.077 0.077-0.456 0.103-0.617 0.042zM16.129 17.271v-2.831h-2.285v5.662h2.285zM14.126 16.89c-0.059-0.059-0.036-0.739 0.029-0.827 0.070-0.096 0.499-0.165 0.704-0.113 0.125 0.031 0.128 0.043 0.128 0.444 0 0.254-0.023 0.434-0.060 0.471-0.063 0.063-0.742 0.085-0.801 0.026zM15.12 16.89c-0.060-0.060-0.036-0.739 0.029-0.826 0.092-0.124 0.638-0.174 0.727-0.066 0.093 0.112 0.057 0.813-0.045 0.878-0.084 0.053-0.661 0.065-0.711 0.015zM15.335 15.745c-0.211-0.039-0.248-0.105-0.248-0.445 0-0.474 0.033-0.512 0.448-0.512 0.328 0 0.347 0.006 0.376 0.125 0.053 0.213-0.002 0.77-0.082 0.821-0.074 0.047-0.275 0.051-0.494 0.011zM14.128 15.7c-0.019-0.019-0.035-0.197-0.035-0.396 0-0.481 0.046-0.526 0.515-0.506l0.355 0.014v0.894l-0.4 0.014c-0.22 0.008-0.415-0.001-0.435-0.021zM18.812 17.275v-2.827l-0.41-0.016c-0.225-0.009-0.728-0.008-1.118 0.001l-0.708 0.017v5.653h2.235v-2.827zM16.837 16.99c-0.075-0.030-0.086-0.747-0.013-0.861 0.060-0.094 0.694-0.083 0.755 0.013 0.075 0.118 0.047 0.719-0.037 0.803-0.076 0.076-0.553 0.106-0.704 0.045zM17.725 16.934c-0.027-0.050-0.033-0.249-0.014-0.459l0.033-0.371h0.844v0.412c0 0.49-0.014 0.505-0.483 0.506-0.269 0.001-0.343-0.016-0.381-0.088zM17.806 15.845c-0.074-0.018-0.087-0.082-0.087-0.43 0-0.252 0.023-0.431 0.060-0.468 0.035-0.035 0.206-0.060 0.421-0.060 0.346 0 0.363 0.006 0.393 0.126 0.042 0.167 0.001 0.709-0.058 0.762-0.054 0.049-0.601 0.102-0.729 0.070zM16.775 15.443c0-0.526 0.034-0.565 0.473-0.546l0.347 0.015 0.015 0.359c0.021 0.521-0.011 0.56-0.463 0.56h-0.371zM21.494 18.224c0-1.427 0.015-1.897 0.062-1.957 0.071-0.091 1.573-0.735 1.714-0.735 0.051 0 0.291 0.067 0.534 0.149 0.457 0.154 0.743 0.192 0.71 0.093-0.010-0.031-0.174-0.112-0.364-0.179s-0.547-0.197-0.793-0.287c-0.246-0.090-0.738-0.269-1.093-0.398-0.439-0.159-0.675-0.272-0.737-0.353-0.091-0.118-0.091-0.118-1.18-0.118h-1.089v5.662h2.235zM19.467 16.936c-0.024-0.048-0.033-0.26-0.021-0.472 0.021-0.36 0.030-0.387 0.144-0.416 0.125-0.031 0.533 0.008 0.616 0.059 0.025 0.016 0.046 0.205 0.046 0.421 0 0.461-0.032 0.496-0.467 0.496-0.212 0-0.285-0.020-0.318-0.087zM20.413 16.99c-0.072-0.029-0.087-0.745-0.018-0.854 0.060-0.095 0.675-0.14 0.775-0.058 0.055 0.045 0.075 0.162 0.075 0.426 0 0.319-0.013 0.373-0.11 0.441-0.106 0.074-0.576 0.103-0.722 0.044zM21.523 15.893c-0.016-0.016-0.029-0.252-0.029-0.524 0-0.578-0.077-0.552 0.745-0.258 0.602 0.215 0.657 0.251 0.492 0.316-0.066 0.026-0.358 0.148-0.649 0.271s-0.543 0.211-0.559 0.194zM19.433 15.782c-0.048-0.077 0.033-0.817 0.093-0.857 0.095-0.063 0.666-0.044 0.708 0.024 0.051 0.083 0.023 0.679-0.038 0.792-0.039 0.073-0.112 0.089-0.391 0.089-0.189 0-0.356-0.022-0.373-0.049zM20.385 15.798c-0.067-0.067-0.036-0.797 0.037-0.857 0.043-0.036 0.209-0.052 0.435-0.043l0.365 0.015 0.015 0.39c0.009 0.245-0.007 0.416-0.043 0.459-0.060 0.073-0.741 0.103-0.807 0.037zM27.662 20.020c0.085-0.076 0.091-0.197 0.091-1.736 0-1.652-0-1.654-0.11-1.731-0.097-0.068-0.449-0.077-2.831-0.077-2.655 0-2.723 0.002-2.82 0.099-0.095 0.095-0.099 0.166-0.099 1.714s0.004 1.618 0.099 1.714c0.097 0.097 0.166 0.099 2.84 0.099 2.48 0 2.749-0.008 2.831-0.082zM22.489 19.732c-0.076-0.092-0.123-0.429-0.082-0.592 0.064-0.256 0.138-0.281 0.717-0.248 0.649 0.038 0.705 0.073 0.705 0.448 0 0.417-0.075 0.464-0.739 0.464-0.413 0-0.554-0.017-0.601-0.073zM24.237 19.727c-0.094-0.066-0.11-0.123-0.11-0.391 0-0.431 0.030-0.45 0.72-0.45 0.698 0 0.72 0.015 0.72 0.479 0 0.322-0.008 0.346-0.127 0.391-0.214 0.082-1.075 0.061-1.203-0.029zM25.975 19.727c-0.092-0.065-0.11-0.124-0.11-0.363 0-0.457 0.035-0.48 0.716-0.472 0.377 0.004 0.601 0.028 0.65 0.068 0.053 0.044 0.075 0.16 0.075 0.405 0 0.322-0.008 0.346-0.127 0.391-0.214 0.082-1.075 0.061-1.203-0.029zM22.487 18.662c-0.073-0.073-0.099-0.166-0.099-0.345 0-0.356 0.084-0.4 0.753-0.4 0.639 0 0.688 0.030 0.688 0.418 0 0.389-0.062 0.426-0.712 0.426-0.464 0-0.542-0.012-0.629-0.099zM24.178 18.665c-0.065-0.121-0.067-0.454-0.003-0.621 0.048-0.127 0.049-0.127 0.661-0.127 0.41 0 0.632 0.020 0.672 0.060 0.034 0.034 0.060 0.196 0.060 0.374 0 0.292-0.009 0.318-0.127 0.363-0.070 0.027-0.371 0.048-0.669 0.048-0.484 0-0.547-0.010-0.593-0.096zM25.953 18.699c-0.044-0.034-0.094-0.177-0.113-0.319-0.029-0.22-0.019-0.271 0.070-0.36 0.091-0.091 0.167-0.104 0.637-0.109 0.627-0.007 0.671-0.002 0.719 0.073 0.067 0.105 0.041 0.553-0.039 0.667-0.072 0.103-0.115 0.11-0.636 0.11-0.372 0-0.586-0.021-0.638-0.062zM22.999 17.77c-0.251-0.015-0.481-0.051-0.51-0.081s-0.067-0.166-0.083-0.304c-0.025-0.213-0.014-0.267 0.076-0.356 0.094-0.094 0.162-0.106 0.605-0.106 0.464 0 0.508 0.009 0.621 0.122 0.096 0.096 0.122 0.173 0.122 0.366 0 0.365-0.086 0.403-0.83 0.358zM24.177 17.695c-0.033-0.040-0.064-0.185-0.068-0.321-0.011-0.377 0.059-0.422 0.677-0.44 0.665-0.018 0.75 0.023 0.771 0.374 0.026 0.446 0.004 0.46-0.706 0.46-0.479 0-0.626-0.016-0.674-0.073zM25.924 17.708c-0.033-0.033-0.060-0.188-0.060-0.344 0-0.428 0.041-0.452 0.732-0.432 0.656 0.019 0.709 0.052 0.709 0.44 0 0.359-0.070 0.396-0.751 0.396-0.377 0-0.59-0.020-0.629-0.060zM20.799 13.597c0-0.027-0.075-0.189-0.167-0.36-0.152-0.284-0.793-1.544-3.362-6.611-0.482-0.951-0.895-1.73-0.918-1.73-0.043-0.001-0.282 0.458-1.957 3.758-0.583 1.147-1.393 2.74-1.801 3.539l-0.742 1.453h4.474c2.873 0 4.474-0.017 4.474-0.048zM14.875 11.323c-0.266-0.009-0.484-0.026-0.484-0.037s0.142-0.296 0.316-0.631c0.174-0.336 0.589-1.155 0.923-1.82s0.615-1.201 0.625-1.191c0.010 0.010 0.022 0.82 0.027 1.801 0.009 1.673 0.004 1.787-0.081 1.849-0.091 0.066-0.17 0.068-1.326 0.029zM16.539 11.292c-0.048-0.026-0.103-0.072-0.123-0.101s-0.036-0.847-0.036-1.817c0.001-1.464 0.012-1.749 0.066-1.678 0.091 0.12 1.833 3.569 1.812 3.588-0.046 0.042-1.642 0.050-1.719 0.008z"></path>
</svg>
