<!-- Generated by IcoMoon.io -->
<svg version="1.1" xmlns="http://www.w3.org/2000/svg" width="32" height="32" viewBox="0 0 32 32">
<title>lair_of_dagon</title>
<path d="M25.682 15.83c-0.197 0.325-0.432 0.63-0.658 0.935-0.312 0.417-0.59 0.843-0.95 1.221-0.349 0.368-0.678 0.749-1.017 1.126-0.139 0.155-0.305 0.269-0.482 0.38-0.131 0.084-0.27 0.168-0.41 0.238-0.133 0.066-0.275 0.102-0.405 0.173-0.21 0.115-0.407 0.251-0.626 0.355-0.203 0.095-0.375 0.221-0.592 0.29-0.535 0.17-1.057 0.415-1.618 0.498-0.419 0.063-0.842 0.089-1.261 0.156-0.368 0.060-0.722 0.093-1.093 0.091-0.305-0.001-0.579-0.033-0.877-0.091-0.319-0.063-0.639-0.108-0.955-0.195-0.211-0.059-0.408-0.15-0.623-0.203-0.334-0.084-0.659-0.191-0.991-0.283-0.783-0.215-1.535-0.519-2.238-0.923-0.31-0.179-0.626-0.334-0.926-0.53-0.27-0.176-0.519-0.379-0.796-0.544-0.221-0.131-0.435-0.274-0.646-0.42-0.292-0.201-0.509-0.477-0.779-0.704-0.338-0.283-0.647-0.591-0.925-0.932-0.205-0.251-0.452-0.464-0.603-0.754-0.15-0.29-0.364-0.527-0.535-0.802-0.022-0.036-0.043-0.074-0.065-0.111 0.040-0.076 0.079-0.153 0.12-0.228 0.31-0.564 0.624-1.080 1.093-1.524 0.37-0.35 0.783-0.634 1.192-0.937 0.145-0.108 0.313-0.189 0.473-0.271 0.167-0.086 0.336-0.173 0.509-0.244 0.263-0.11 0.537-0.183 0.808-0.269 0.395-0.125 0.787-0.244 1.186-0.357 0.741-0.208 1.466-0.483 2.214-0.664 0.209-0.051 0.408-0.126 0.623-0.143 0.26-0.020 0.517-0.065 0.774-0.105 0.34-0.054 0.679-0.111 1.022-0.136 0.353-0.026 0.713-0.005 1.066-0.005 0.52-0.001 1.067-0.045 1.584 0.039 0.144 0.024 0.282 0.095 0.422 0.134 0.163 0.045 0.329 0.068 0.495 0.095 0.3 0.050 0.588 0.149 0.88 0.235 0.355 0.106 0.714 0.185 1.063 0.31 0.247 0.089 0.488 0.19 0.734 0.28 0.17 0.063 0.338 0.117 0.492 0.216 0.073 0.048 0.139 0.098 0.214 0.139 0.233 0.134 0.474 0.225 0.699 0.377 0.234 0.155 0.452 0.33 0.688 0.483 0.253 0.163 0.498 0.327 0.714 0.537 0.209 0.204 0.43 0.387 0.621 0.608 0.142 0.166 0.284 0.335 0.413 0.514 0.137 0.191 0.263 0.39 0.393 0.587 0.051 0.079 0.108 0.154 0.163 0.229-0.168 0.39-0.368 0.768-0.587 1.131zM27.503 13.101c0.144-0.151 0.209-0.358 0.32-0.535 0.179-0.289 0.3-0.598 0.454-0.901 0.106-0.208 0.174-0.387-0.099-0.225-0.1 0.324-0.299 0.58-0.463 0.876-0.139 0.25-0.268 0.514-0.432 0.749-0.119 0.169-0.259 0.318-0.388 0.478-0.081 0.101-0.168 0.205-0.241 0.315-0.019-0.033-0.033-0.064-0.051-0.096-0.037-0.080-0.068-0.158-0.12-0.232-0.147-0.209-0.397-0.357-0.607-0.493-0.178-0.117-0.319-0.256-0.478-0.397-0.24-0.211-0.519-0.387-0.782-0.568-0.319-0.221-0.574-0.503-0.89-0.728-0.151-0.108-0.305-0.215-0.449-0.334-0.16-0.133-0.29-0.293-0.45-0.427-0.422-0.352-0.968-0.488-1.489-0.634-0.21-0.060-0.429-0.091-0.633-0.174-0.108-0.044-0.214-0.098-0.322-0.143-0.336-0.145-0.694-0.258-1.025-0.415-0.139-0.068-0.265-0.151-0.402-0.221-0.122-0.063-0.256-0.1-0.385-0.146-0.249-0.088-0.52-0.126-0.778-0.178-0.285-0.058-0.584-0.033-0.872-0.033-0.172 0-0.345 0-0.518 0-0.407 0-0.821-0.027-1.225 0.005-0.345 0.027-0.694 0.075-1.037 0.123-0.184 0.025-0.365 0.061-0.549 0.089-0.134 0.019-0.257 0.075-0.388 0.096-0.244 0.040-0.494 0.052-0.739 0.076-0.525 0.051-1.033 0.229-1.534 0.389-0.169 0.054-0.36 0.088-0.51 0.181-0.099 0.061-0.185 0.144-0.279 0.211-0.3 0.215-0.656 0.355-0.962 0.562-0.152 0.103-0.278 0.233-0.424 0.343-0.128 0.095-0.255 0.176-0.388 0.265-0.25 0.166-0.485 0.349-0.748 0.494-0.339 0.186-0.673 0.4-0.952 0.669-0.181 0.173-0.319 0.372-0.473 0.567-0.131 0.166-0.29 0.309-0.389 0.499-0.175 0.335-0.379 0.649-0.555 0.983-0.037-0.061-0.073-0.123-0.11-0.183-0.348-0.552-0.632-1.136-0.967-1.694-0.075-0.123-0.141-0.249-0.2-0.382-0.043-0.095-0.109-0.19-0.136-0.292-0.026-0.085-0.011-0.185-0.067-0.261-0.053 0.149 0.043 0.394 0.064 0.538 0.026 0.184 0.030 0.366 0.076 0.547s0.093 0.359 0.136 0.538c0.136 0.549 0.313 1.078 0.539 1.596 0.063 0.144 0.133 0.282 0.205 0.417-0.033 0.085-0.063 0.173-0.093 0.263-0.1 0.298-0.195 0.602-0.264 0.91-0.056 0.256-0.148 0.499-0.21 0.754-0.064 0.256-0.138 0.508-0.219 0.756 0.049-0.1 0.099-0.2 0.151-0.296 0.149-0.273 0.336-0.517 0.467-0.799 0.131-0.285 0.279-0.543 0.447-0.807 0.026-0.038 0.046-0.076 0.069-0.115 0.037 0.088 0.076 0.175 0.12 0.261 0.038 0.074 0.086 0.134 0.131 0.201 0.106 0.16 0.168 0.339 0.259 0.507 0.122 0.224 0.25 0.444 0.372 0.669 0.225 0.417 0.487 0.813 0.762 1.199 0.074 0.102 0.158 0.194 0.24 0.289 0.119 0.134 0.218 0.283 0.329 0.423 0.194 0.244 0.47 0.453 0.741 0.603 0.499 0.279 1.002 0.544 1.54 0.741 0.219 0.080 0.445 0.123 0.658 0.218 0.26 0.114 0.532 0.191 0.776 0.336 0.346 0.208 0.737 0.399 1.126 0.517 0.12 0.036 0.245 0.056 0.368 0.086s0.24 0.079 0.363 0.11c0.29 0.074 0.591 0.035 0.883 0.104 0.315 0.073 0.627 0.040 0.947 0.058 0.284 0.015 0.567 0.083 0.848 0.121 0.16 0.021 0.323 0.035 0.482 0.059 0.154 0.024 0.3 0.073 0.454 0.096s0.309 0.030 0.464 0.046c0.312 0.034 0.606 0.036 0.916-0.023 0.457-0.089 0.901-0.224 1.354-0.324 0.433-0.095 0.881-0.194 1.275-0.405 0.13-0.070 0.251-0.15 0.385-0.211 0.1-0.046 0.203-0.082 0.285-0.156 0.073-0.064 0.129-0.145 0.194-0.216 0.14-0.151 0.323-0.248 0.503-0.344 0.238-0.128 0.483-0.228 0.709-0.375 0.177-0.116 0.383-0.194 0.567-0.299 0.152-0.088 0.328-0.169 0.473-0.266 0.15-0.103 0.285-0.263 0.414-0.39 0.082-0.082 0.174-0.146 0.24-0.244 0.081-0.12 0.127-0.268 0.197-0.397 0.195-0.364 0.482-0.668 0.686-1.027 0.125-0.221 0.207-0.465 0.34-0.683 0.161-0.265 0.375-0.502 0.518-0.777 0.056-0.109 0.074-0.201 0.103-0.316 0.075-0.304 0.244-0.515 0.4-0.773 0.007 0.012 0.015 0.023 0.022 0.034 0.336 0.478 0.621 0.971 0.882 1.495 0.1 0.201 0.17 0.418 0.275 0.619 0.026 0.050 0.044 0.086 0.055 0.14 0.007 0.003 0.019 0.004 0.026 0.007l0.249 0.779c0.015 0.014 0.030 0.030 0.046 0.049-0.037-0.123-0.081-0.242-0.12-0.364-0.056-0.178-0.084-0.359-0.139-0.538-0.054-0.176-0.073-0.358-0.104-0.541-0.033-0.195-0.105-0.344-0.188-0.523-0.148-0.322-0.215-0.664-0.346-0.99-0.12-0.298-0.191-0.612-0.313-0.907 0.040-0.082 0.078-0.168 0.105-0.258 0.105-0.36 0.224-0.719 0.489-1z"></path>
<path d="M21.31 16.051c-0.070-0.225-0.119-0.459-0.183-0.687-0.078-0.28-0.209-0.534-0.32-0.803-0.096-0.228-0.22-0.469-0.258-0.714-0.026-0.174-0.068-0.342-0.131-0.505-0.060-0.151-0.118-0.3-0.203-0.439-0.12-0.2-0.258-0.387-0.364-0.594-0.141-0.279-0.328-0.548-0.565-0.752-0.121-0.104-0.226-0.218-0.364-0.304-0.154-0.096-0.325-0.232-0.494-0.293-0.829-0.303-1.73-0.479-2.617-0.477-0.24 0-0.478-0.010-0.716 0.024-0.325 0.047-0.611 0.176-0.928 0.254-0.286 0.071-0.607 0.051-0.88 0.179-0.235 0.111-0.487 0.244-0.696 0.399-0.377 0.279-0.809 0.544-1.085 0.93-0.148 0.206-0.314 0.428-0.432 0.653-0.061 0.118-0.084 0.239-0.121 0.367-0.070 0.235-0.172 0.459-0.251 0.691-0.126 0.373-0.207 0.744-0.207 1.137 0.001 0.17-0.007 0.342-0.002 0.51 0.004 0.128 0.053 0.247 0.066 0.373 0.019 0.166 0.011 0.321 0.040 0.488 0.105 0.592 0.22 1.175 0.433 1.738 0.090 0.234 0.273 0.462 0.428 0.658 0.157 0.196 0.319 0.398 0.505 0.568 0.070 0.065 0.13 0.1 0.208 0.15 0.11 0.070 0.191 0.178 0.306 0.239 0.154 0.081 0.299 0.195 0.47 0.238 0.274 0.070 0.574 0.082 0.854 0.124 0.067 0.012 0.135 0.017 0.204 0.026 0.074 0.009 0.171 0.058 0.245 0.033-0.030-0.12-0.293-0.284-0.382-0.344-0.17-0.116-0.345-0.208-0.507-0.337-0.159-0.125-0.318-0.236-0.46-0.38-0.121-0.123-0.235-0.249-0.346-0.38-0.115-0.133-0.207-0.29-0.274-0.452-0.026-0.065-0.056-0.129-0.088-0.193-0.049-0.098-0.065-0.205-0.113-0.304-0.080-0.165-0.177-0.311-0.241-0.485-0.033-0.093-0.063-0.188-0.106-0.278-0.054-0.111-0.119-0.205-0.151-0.326-0.022-0.084-0.055-0.133-0.096-0.207-0.044-0.076-0.074-0.158-0.116-0.236-0.124-0.233-0.177-0.443-0.221-0.704-0.063-0.367-0.195-0.853-0.019-1.206 0.151-0.306 0.315-0.605 0.428-0.932 0.108-0.314 0.179-0.651 0.4-0.91 0.265-0.308 0.696-0.594 1.086-0.722 0.134-0.044 0.263-0.094 0.394-0.141 0.299-0.106 0.636-0.063 0.942-0.15 0.168-0.049 0.336-0.088 0.507-0.133 0.265-0.069 0.542-0.166 0.813-0.206 0.216-0.031 0.433-0.043 0.652-0.043 0.147 0.001 0.282-0.009 0.419 0.049 0.109 0.046 0.209 0.121 0.315 0.174 0.109 0.054 0.219 0.106 0.325 0.165 0.208 0.116 0.412 0.23 0.633 0.315 0.194 0.074 0.373 0.103 0.529 0.251 0.195 0.185 0.354 0.394 0.53 0.596 0.128 0.146 0.258 0.268 0.36 0.435 0.073 0.119 0.131 0.242 0.211 0.355 0.11 0.158 0.193 0.312 0.236 0.503 0.041 0.175 0.096 0.34 0.15 0.513 0.037 0.12 0.075 0.24 0.106 0.362 0.048 0.18 0.059 0.365 0.105 0.544 0.048 0.188 0.094 0.375 0.134 0.565 0.033 0.165 0.082 0.32 0.081 0.489-0.002 0.16-0.011 0.321 0.004 0.483 0.022 0.265 0.096 0.523 0.139 0.784 0.046 0.274 0.070 0.587 0.069 0.867-0.001 0.235-0.015 0.439-0.093 0.663-0.061 0.175-0.157 0.335-0.215 0.512-0.071 0.218-0.235 0.317-0.367 0.49-0.007 0.009-0.015 0.019-0.022 0.027 0.069-0.068 0.134-0.138 0.2-0.205 0.095-0.098 0.199-0.184 0.279-0.295 0.081-0.111 0.172-0.218 0.253-0.329 0.098-0.138 0.163-0.294 0.239-0.443 0.194-0.371 0.294-0.754 0.397-1.161 0.075-0.297 0.060-0.599 0.090-0.901 0.015-0.138 0.030-0.274 0.015-0.412-0.022-0.193-0.113-0.356-0.169-0.538z"></path>
<path d="M20.914 8.64c0.063-0.44 0.22-0.49 0.325-0.608 0.137-0.153 0.278-0.294 0.408-0.453 0.11-0.135 0.228-0.314 0.367-0.422 0.085-0.065 0.108-0.069 0.105-0.183-0.007-0.367 0-0.733 0-1.098 0-0.21-0.019-0.424 0.007-0.633 0.019-0.143 0.046-0.283 0.022-0.428-0.015-0.082-0.026-0.16-0.030-0.246-0.011-0.379 0.007-0.761 0.001-1.141-0.001-0.1 0.011-0.105 0.111-0.104 0.167 0.004 0.333 0 0.5 0 0.613 0 1.226 0 1.839 0 0.152 0 0.309 0.010 0.462 0.003 0.086-0.005 0.165-0.035 0.251-0.039 0.095-0.007 0.293 0.044 0.369-0.023-0.033-0.035-0.019-0.073-0.022-0.115-0.007-0.065-0.026-0.119-0.037-0.183-0.022-0.143-0.046-0.285-0.086-0.427-0.026-0.098-0.069-0.195-0.084-0.295-0.007-0.046 0.011-0.12-0.001-0.164-0.046-0.16-0.422-0.040-0.534-0.020-0.197 0.037-0.412 0.088-0.612 0.095-0.296 0.009-0.582 0.088-0.878 0.104-0.34 0.018-0.678-0.007-1.020 0.027-0.235 0.023-0.464 0.045-0.702 0.044-0.081 0-0.397-0.051-0.445 0.037-0.015 0.030 0.004 0.199 0.004 0.23 0 0.144 0 0.288 0 0.432 0 0.298 0.007 0.595-0.007 0.893-0.022 0.447-0.152 0.871-0.223 1.31-0.118 0.736-0.34 1.449-0.243 2.202 0.053 0.4 0.152 0.799 0.152 1.204z"></path>
<path d="M6.323 3.998c0.197 0 0.394-0.004 0.591-0.001 0.225 0.003 0.433 0.078 0.658 0.074 0.331-0.007 0.644 0.020 0.971 0.061 0.249 0.031 0.489 0.109 0.586 0.374 0.026 0.076 0.030 0.158 0.015 0.235-0.033 0.173-0.099 0.308-0.103 0.487-0.015 0.794-0.011 1.606 0.16 2.386 0.019 0.088 0.037 0.139 0.125 0.165 0.099 0.030 0.198 0.044 0.296 0.081 0.141 0.054 0.269 0.133 0.403 0.2 0.152 0.076 0.302 0.126 0.46 0.189 0.116 0.045 0.333 0.104 0.718 0.143-0.057-0.003-0.054-0.069-0.061-0.116-0.033-0.208-0.051-0.419-0.079-0.628-0.030-0.213-0.076-0.423-0.103-0.636-0.019-0.161-0.007-0.327-0.022-0.489-0.019-0.163-0.007-0.327-0.022-0.488-0.011-0.16-0.033-0.315-0.033-0.477 0.004-0.384-0.037-0.763-0.033-1.147 0-0.179 0-0.358 0-0.537 0-0.144-0.022-0.3 0.007-0.442 0.026-0.129 0.026-0.241 0.026-0.375 0-0.085 0.026-0.165-0.046-0.219-0.057-0.044-0.178-0.045-0.244-0.046-0.119-0.001-0.223-0.012-0.341-0.034-0.354-0.069-0.718-0.027-1.076-0.064-0.334-0.034-0.681-0.009-1.017-0.008-0.26 0-0.522 0-0.778-0.044-0.221-0.039-0.444-0.023-0.668-0.053-0.122-0.017-0.25-0.040-0.365-0.072-0.093-0.026-0.135 0.008-0.185 0.085-0.134 0.203-0.141 0.498-0.183 0.733-0.037 0.209-0.125 0.442-0.090 0.657 0.122 0.036 0.304 0.005 0.43 0.005z"></path>
<path d="M19.338 23.945c-0.171 0.009-0.343-0.001-0.514 0-0.22 0.001-0.429 0.052-0.648 0.068-0.315 0.021-0.634 0.007-0.951 0.007h-3.404c-0.105 0-0.272-0.029-0.374 0.003 0.063 0.123 0.152 0.224 0.234 0.334 0.125 0.171 0.25 0.357 0.353 0.543 0.049 0.102 0.103 0.201 0.161 0.298 0.079 0.106 0.159 0.214 0.238 0.32 0.095 0.144 0.174 0.293 0.236 0.453 0.141 0.355 0.359 0.673 0.512 1.026 0.151 0.35 0.362 0.676 0.524 1.021 0.059 0.124 0.125 0.219 0.205 0.327 0.093 0.125 0.161 0.266 0.254 0.392 0.071 0.096 0.167 0.156 0.24 0.249 0.103 0.133 0.188 0.278 0.305 0.399 0.093 0.096 0.163 0.199 0.233 0.311 0.065 0.105 0.178 0.186 0.218 0.305-0.007-0.164 0.007-0.319-0.033-0.48-0.050-0.176-0.075-0.367-0.14-0.537-0.084-0.219-0.228-0.425-0.289-0.652-0.033-0.134-0.054-0.266-0.108-0.395-0.044-0.103-0.104-0.197-0.141-0.3-0.088-0.24-0.109-0.498-0.2-0.737-0.075-0.195-0.136-0.397-0.188-0.601-0.056-0.229-0.164-0.485-0.179-0.723-0.004-0.083-0.045-0.181-0.030-0.262 0.033-0.179 0.055-0.34 0.229-0.412 0.41-0.164 0.868-0.185 1.29-0.319 0.276-0.088 0.562-0.126 0.839-0.21 0.184-0.055 0.392-0.113 0.581-0.138 0.084-0.012 0.165-0.004 0.245-0.035 0.126-0.050 0.23-0.089 0.37-0.103 0.094-0.010 0.183-0.007 0.274-0.033 0.046-0.013 0.090-0.037 0.066-0.151-0.138 0.001-0.269 0.026-0.407 0.033z"></path>
<path d="M14.673 7.081c0.199 0 0.398 0 0.597 0 0.168 0 0.34-0.012 0.507-0.003 0.138 0.009 0.272 0.036 0.41 0.042 0.225 0.009 0.435 0.063 0.654 0.099 0.115 0.019 0.207-0.013 0.175-0.139-0.133-0.151-0.205-0.355-0.272-0.542-0.115-0.324-0.235-0.648-0.349-0.973-0.174-0.499-0.345-1.015-0.45-1.534-0.115 0.014-0.208 0.343-0.235 0.408-0.144 0.34-0.295 0.671-0.503 0.976-0.201 0.296-0.359 0.623-0.494 0.955-0.063 0.154-0.115 0.31-0.179 0.462-0.030 0.071-0.11 0.166-0.104 0.247 0.075 0.017 0.165 0.003 0.243 0.003z"></path>
</svg>
