<!-- Generated by IcoMoon.io -->
<svg version="1.1" xmlns="http://www.w3.org/2000/svg" width="33" height="32" viewBox="0 0 33 32">
<title>lands_of_the_congo</title>
<path d="M11.745 27.837c-3.23-0.89-4.514-1.516-6.719-3.276-0.911-0.727-1.828-2.182-1.828-2.9 0-0.561 0.527-1.049 0.826-0.763 0.21 0.201 1.67 0.339 2.93 0.277l0.637-0.031-0.694-0.959c-0.86-1.187-0.98-2.706-0.23-2.902 0.256-0.067 0.532-0.389 0.614-0.717 0.125-0.499-0.010-0.736-0.829-1.463-0.742-0.658-0.953-0.996-0.874-1.398l0.104-0.531 0.175 0.53c0.096 0.292 0.582 0.738 1.080 0.992 1.072 0.547 1.244 0.89 0.919 1.824-0.358 1.028-0.081 0.845 0.433-0.286 0.767-1.689 0.649-2.033-0.99-2.895-1.241-0.652-1.546-0.727-2.192-0.536-0.512 0.151-0.751 0.145-0.751-0.021 0-0.15-0.132-0.134-0.346 0.044-0.272 0.226-0.346 0.227-0.346 0.004 0-0.156-0.153-0.225-0.34-0.153s-0.444-0.046-0.571-0.264c-0.127-0.217-0.233-0.309-0.237-0.205s-0.163 0.034-0.353-0.157c-0.615-0.615-0.529-0.821 1.149-2.747 0.194-0.222 0.58-0.404 0.857-0.404s0.742-0.223 1.033-0.496c0.313-0.294 0.93-0.535 1.516-0.593 0.648-0.064 1.2-0.299 1.604-0.684 0.551-0.525 0.927-0.617 3.58-0.871 2.873-0.276 4.217-0.658 5.218-1.484 0.806-0.666 8.359-1.079 9.062-0.496 0.181 0.15 0.796 0.273 1.367 0.273 1.041 0 1.703 0.41 1.415 0.875-0.082 0.133-0.383 0.241-0.669 0.241s-0.721 0.147-0.967 0.327c-0.338 0.247-0.525 0.263-0.763 0.066-0.194-0.161-0.995-0.232-2.080-0.186-2.38 0.102-2.355 0.103-3.208-0.093-0.46-0.106-0.751-0.083-0.751 0.058 0 0.332 1.593 0.564 4.483 0.653 2.484 0.076 2.53 0.088 3.292 0.826 0.425 0.412 0.774 0.962 0.775 1.223s0.261 0.927 0.578 1.48 0.575 1.15 0.575 1.327c0 0.355-0.555 0.325-1.27-0.067-0.376-0.207-0.759-0.107-2.063 0.54-0.881 0.436-1.92 1.094-2.31 1.462-1.302 1.228-2.929 2.548-3.14 2.548-0.417 0-1.938 1.529-2.69 2.703-0.423 0.661-0.769 1.245-0.769 1.298s0.754 0.17 1.675 0.259c0.921 0.089 2.444 0.309 3.385 0.487 1.87 0.355 2.663 0.265 3.378-0.382 0.601-0.544 1.485-0.347 1.522 0.338 0.045 0.831 0.081 0.951 0.32 1.070 0.127 0.064 0.262-0.1 0.299-0.363 0.057-0.396 0.195-0.46 0.808-0.375 1.6 0.223 1.744 1.204 0.45 3.056-1.284 1.838-3.166 3.083-5.485 3.629-1.687 0.397-11.384 0.615-12.589 0.283zM10.896 20.509c-0.116-0.33-0.085-0.351 0.169-0.116 0.338 0.314 1.144 0.396 1.141 0.116-0.001-0.095-0.258-0.693-0.57-1.328-0.581-1.18-0.735-1.963-0.388-1.963 0.107 0 0.318 0.411 0.468 0.914 0.196 0.653 0.371 0.877 0.615 0.783 0.233-0.089 0.45 0.129 0.684 0.689 0.325 0.777 0.387 0.813 1.211 0.684 1.365-0.213 1.894-0.476 2.17-1.082 0.218-0.479 0.163-0.683-0.377-1.391-0.406-0.532-0.825-0.829-1.169-0.829-0.295 0-0.601-0.104-0.679-0.231s-0.397-0.231-0.707-0.231c-0.473 0-0.564-0.112-0.564-0.693 0-0.381 0.111-0.693 0.247-0.693 0.141 0 0.184 0.197 0.1 0.462-0.104 0.328-0.041 0.462 0.215 0.462 0.491 0 0.455-0.529-0.099-1.438-0.679-1.114-0.563-1.316 0.231-0.401 0.518 0.597 0.666 0.961 0.583 1.435-0.101 0.58-0.048 0.635 0.601 0.635 0.484 0 0.857 0.185 1.166 0.578 0.621 0.79 1.192 0.725 1.686-0.191 0.342-0.635 0.37-0.907 0.161-1.559-0.679-2.121-1.161-4.336-1.042-4.79 0.096-0.366 0.029-0.505-0.241-0.505-0.205 0-0.373 0.104-0.373 0.231s-0.209 0.022-0.466-0.235c-0.32-0.32-0.637-0.422-1.014-0.328-0.302 0.076-0.618 0.025-0.703-0.112s-0.292-0.25-0.459-0.25c-0.411 0-3.449 2.998-3.237 3.194 0.092 0.085 0.214 0.025 0.271-0.134s0.284-0.289 0.504-0.289c0.22 0 0.579-0.338 0.798-0.751s0.341-0.56 0.273-0.328c-0.068 0.233-0.124 0.681-0.124 0.995s-0.096 0.513-0.214 0.44c-0.417-0.258-1.316 0.38-2.047 1.453-0.798 1.17-0.919 1.541-0.439 1.357 0.166-0.064-0.139 0.778-0.678 1.87s-0.929 2.069-0.867 2.17c0.063 0.101 0.319 0.184 0.569 0.184s0.52 0.182 0.599 0.404c0.266 0.75 0.834 1.213 1.488 1.213 0.519 0 0.621-0.081 0.508-0.404zM18.837 12.689l-0.324-0.619-0.26 0.746c-0.21 0.601-0.188 0.909 0.114 1.592l0.374 0.847 0.21-0.973c0.157-0.724 0.127-1.132-0.114-1.592zM21.168 13.455c0.535-0.545 0.972-1.123 0.972-1.284s0.091-0.238 0.202-0.169c0.224 0.138 2.57-2.245 2.57-2.611 0-0.4-0.505-0.563-0.715-0.23-0.111 0.175-0.205 0.214-0.209 0.087s-0.103-0.079-0.22 0.106c-0.186 0.294-0.267 0.292-0.632-0.017-0.655-0.556-1.442-0.491-1.731 0.142-0.138 0.302-0.7 0.834-1.249 1.181s-0.937 0.729-0.863 0.85c0.074 0.12 0.171 0.732 0.215 1.36 0.134 1.907 0.304 1.967 1.659 0.586zM20.908 12.213c-0.085-0.085-0.154-0.261-0.154-0.393 0-0.145 0.108-0.131 0.273 0.035 0.15 0.15 0.22 0.327 0.154 0.393s-0.189 0.050-0.273-0.035zM22.14 13.868c0.16-0.193 0.185-0.347 0.057-0.347-0.127 0-0.36 0.156-0.519 0.347-0.16 0.193-0.185 0.347-0.057 0.347 0.127 0 0.36-0.156 0.519-0.347zM9.323 13.274c0.166-0.754-0.028-1.198-0.318-0.728-0.131 0.212-0.469 0.156-1.374-0.226-0.851-0.36-1.272-0.435-1.447-0.26s0.177 0.488 1.213 1.077c0.803 0.457 1.53 0.834 1.615 0.839s0.225-0.311 0.311-0.701zM25.107 11.7c-0.286-0.095-1.802 1.521-1.808 1.927-0.002 0.122 0.468-0.241 1.043-0.806 0.612-0.601 0.93-1.066 0.765-1.121zM24.107 11.715c-0.157-0.157-0.797 0.421-1.085 0.979-0.188 0.365-0.074 0.317 0.472-0.195 0.396-0.372 0.672-0.725 0.613-0.784zM17.813 10.927c-0.083-0.446-0.008-0.674 0.257-0.775 0.206-0.079 0.375-0.308 0.375-0.509 0-0.268-0.179-0.194-0.676 0.282-0.372 0.356-0.64 0.765-0.597 0.909s0.151 0.574 0.24 0.955c0.144 0.617 0.181 0.642 0.34 0.231 0.098-0.254 0.126-0.746 0.061-1.094zM10.072 11.847c0.52-0.65 0.553-1.286 0.074-1.438-0.592-0.188-3.251 0.327-3.251 0.629 0 0.125 0.259 0.178 0.576 0.118 0.328-0.063 0.688 0.025 0.837 0.204 0.143 0.173 0.456 0.314 0.694 0.314s0.434 0.104 0.434 0.231c0 0.321 0.359 0.289 0.636-0.058zM26.057 10.394c0.233-0.231 0.263-0.408 0.096-0.574s-0.554 0.048-1.261 0.697l-1.020 0.938 0.924-0.363c0.508-0.2 1.075-0.514 1.261-0.697zM26.991 10.725c0-0.24-0.104-0.437-0.231-0.437s-0.231 0.104-0.231 0.231c0 0.127-0.143 0.231-0.318 0.231s-0.43 0.134-0.566 0.299c-0.197 0.237-0.083 0.28 0.549 0.206 0.595-0.069 0.797-0.204 0.797-0.53zM19.023 10.517c0.231-0.255 0.468-0.415 0.527-0.356 0.172 0.172 1.367-0.518 1.501-0.868 0.067-0.175 0.032-0.464-0.078-0.643-0.164-0.266-0.263-0.241-0.549 0.136-0.192 0.253-0.352 0.545-0.356 0.648s-0.112 0.122-0.241 0.043c-0.213-0.132-1.614 1.058-1.614 1.37 0 0.28 0.408 0.114 0.81-0.33zM19.83 6.134c0-0.298-1.053-0.557-1.398-0.344-0.198 0.122-0.186 0.219 0.045 0.365 0.429 0.272 1.353 0.257 1.353-0.021z"></path>
</svg>
