<!-- Generated by IcoMoon.io -->
<svg version="1.1" xmlns="http://www.w3.org/2000/svg" width="32" height="32" viewBox="0 0 32 32">
<title>late_risers</title>
<path d="M9.793 30.966c-0.046-0.016-0.17-0.112-0.276-0.213-0.184-0.174-0.918-0.575-1.053-0.575-0.1 0-0.444-0.22-0.656-0.419-0.106-0.1-0.342-0.247-0.524-0.327s-0.457-0.261-0.61-0.402c-0.308-0.283-0.585-0.495-1.126-0.862-0.655-0.444-0.838-0.543-1.29-0.695-0.247-0.083-0.584-0.24-0.75-0.349s-0.334-0.198-0.374-0.198c-0.167 0-0.449-0.205-0.825-0.6-0.22-0.231-0.502-0.523-0.626-0.649-0.256-0.259-0.258-0.285-0.079-1.232 0.049-0.258 0.113-0.704 0.144-0.992s0.084-0.635 0.118-0.772c0.034-0.136 0.082-0.744 0.107-1.351 0.066-1.604 0.13-2.382 0.227-2.757 0.178-0.686 0.22-1.019 0.246-1.971l0.027-0.978 0.228-0.059c0.126-0.033 0.303-0.081 0.394-0.108s0.283-0.078 0.427-0.114c0.144-0.036 0.413-0.163 0.597-0.283s0.451-0.254 0.593-0.299c0.142-0.045 0.486-0.198 0.765-0.34 0.63-0.321 1.071-0.542 1.918-0.962 0.364-0.18 0.742-0.377 0.84-0.437s0.315-0.145 0.482-0.188c0.711-0.182 0.895-0.241 1.125-0.359l0.243-0.125 0.119 0.149c0.127 0.159 0.195 0.145 0.196-0.042 0.001-0.206 0.083-0.254 0.678-0.397 0.702-0.168 0.903-0.29 1.086-0.655 0.137-0.274 0.138-0.285 0.136-1.764-0.002-1.499-0.040-1.848-0.242-2.225-0.033-0.061-0.059-0.311-0.059-0.557 0-0.272-0.032-0.524-0.083-0.644-0.046-0.109-0.082-0.288-0.081-0.398 0.001-0.193 0.015-0.206 0.359-0.36 0.415-0.185 0.939-0.648 1.431-1.264 0.306-0.382 0.377-0.437 0.937-0.723 0.334-0.17 0.638-0.308 0.677-0.308s0.423-0.158 0.855-0.352 0.859-0.369 0.951-0.388c0.2-0.041 0.371-0.18 0.72-0.583 0.265-0.306 0.429-0.428 0.935-0.693l0.278-0.146 0.415 0.285c0.228 0.157 0.508 0.395 0.62 0.53 0.227 0.271 0.4 0.377 0.707 0.433 0.207 0.038 0.601 0.276 1.018 0.617 0.126 0.103 0.246 0.188 0.267 0.188s0.143 0.076 0.273 0.17c0.13 0.093 0.335 0.192 0.455 0.219 0.17 0.038 0.323 0.154 0.684 0.514 0.493 0.493 0.52 0.507 1.317 0.676 0.197 0.042 0.42 0.077 0.496 0.078s0.186 0.038 0.245 0.083c0.101 0.077 0.103 0.101 0.033 0.426-0.041 0.189-0.094 0.642-0.119 1.006s-0.069 0.81-0.098 0.992c-0.085 0.535-0.073 1.671 0.021 2.031 0.046 0.175 0.084 0.447 0.085 0.604s0.037 0.349 0.081 0.425c0.050 0.088 0.079 0.303 0.081 0.594 0.001 0.277 0.035 0.535 0.085 0.655 0.058 0.14 0.083 0.399 0.083 0.883 0 0.483 0.023 0.729 0.078 0.834 0.121 0.232 0.367 0.434 0.639 0.524 0.231 0.077 0.251 0.098 0.289 0.322 0.023 0.132 0.086 0.3 0.141 0.374 0.101 0.135 0.611 0.484 0.925 0.634 0.093 0.044 0.204 0.121 0.245 0.171s0.213 0.164 0.382 0.253c0.169 0.089 0.406 0.236 0.527 0.327 0.193 0.143 1.11 0.775 1.662 1.144l0.188 0.126-0.023 1.5c-0.012 0.825-0.049 1.811-0.080 2.19s-0.059 1.822-0.062 3.207c-0.003 1.385-0.020 2.558-0.039 2.608-0.037 0.097-0.558 0.46-0.926 0.647-0.124 0.063-0.318 0.197-0.432 0.299s-0.241 0.186-0.283 0.186c-0.042 0-0.108 0.039-0.148 0.087s-0.185 0.148-0.324 0.222c-0.138 0.074-0.438 0.248-0.665 0.387s-0.562 0.309-0.744 0.379c-1.269 0.485-1.753 0.655-2.067 0.723-0.752 0.163-0.858 0.197-0.98 0.311l-0.125 0.118-0.288-0.149c-0.158-0.082-0.425-0.25-0.591-0.373-0.339-0.25-0.756-0.453-1.179-0.572-0.522-0.148-0.937-0.314-1.088-0.434-0.082-0.066-0.376-0.281-0.652-0.478s-0.58-0.414-0.675-0.482c-0.245-0.177-0.737-0.192-1.103-0.033-0.202 0.088-0.205 0.087-0.422-0.085-0.595-0.471-1.145-0.446-1.647 0.076-0.128 0.134-0.352 0.311-0.496 0.394s-0.332 0.208-0.417 0.277c-0.085 0.069-0.258 0.152-0.386 0.183-0.528 0.131-0.633 0.172-0.958 0.384-0.187 0.122-0.445 0.346-0.573 0.498-0.146 0.173-0.4 0.373-0.68 0.535-0.246 0.142-0.506 0.304-0.578 0.359s-0.184 0.101-0.248 0.103c-0.064 0.002-0.221 0.058-0.348 0.124-0.786 0.409-1.177 0.588-1.405 0.64-0.142 0.033-0.266 0.058-0.276 0.055s-0.054-0.018-0.1-0.034zM10.813 28.503c0.182-0.084 0.455-0.205 0.606-0.27s0.315-0.15 0.363-0.189c0.048-0.039 0.115-0.072 0.149-0.072s0.194-0.106 0.354-0.235c0.577-0.466 0.85-0.631 1.246-0.756 0.813-0.256 1.333-0.703 1.334-1.145 0-0.172 0.009-0.179 0.223-0.179 0.437 0 0.784-0.247 1.001-0.712 0.151-0.324 0.221-1.195 0.228-2.844 0.008-1.715-0.126-2.393-0.551-2.794-0.288-0.273-0.856-0.387-1.203-0.242-0.128 0.053-0.371 0.087-0.631 0.087-0.363 0-0.455 0.020-0.646 0.144-0.122 0.079-0.282 0.241-0.355 0.358s-0.152 0.214-0.176 0.214c-0.024 0-0.152 0.1-0.285 0.223s-0.312 0.245-0.398 0.272c-0.086 0.027-0.33 0.113-0.543 0.192s-0.498 0.158-0.634 0.176c-0.303 0.040-0.478 0.127-0.672 0.332-0.228 0.241-0.263 0.399-0.297 1.359-0.028 0.8-0.046 0.922-0.168 1.175-0.136 0.281-0.136 0.289-0.108 1.489 0.041 1.701 0.104 2.676 0.182 2.811 0.037 0.064 0.155 0.194 0.262 0.288 0.153 0.135 0.195 0.212 0.195 0.364 0 0.163 0.015 0.186 0.096 0.15 0.053-0.023 0.245-0.111 0.427-0.195zM25.837 28.14c0.611-0.158 0.974-0.383 1.654-1.021 0.197-0.185 0.453-0.407 0.57-0.492 0.366-0.269 0.422-0.417 0.422-1.113 0-0.337 0.025-0.684 0.054-0.772 0.057-0.168 0.135-1.124 0.219-2.687 0.027-0.51 0.077-1.004 0.109-1.097 0.085-0.245 0.072-0.731-0.026-0.966-0.186-0.444-0.497-0.62-1.095-0.62-0.227 0-0.482 0.027-0.567 0.061s-0.361 0.118-0.613 0.188c-0.274 0.076-0.56 0.201-0.714 0.311-0.268 0.192-0.852 0.767-1.106 1.089l-0.149 0.189-0.031 1.769c-0.024 1.329-0.050 1.803-0.106 1.906-0.054 0.099-0.081 0.482-0.098 1.378-0.024 1.232-0.023 1.242 0.106 1.429 0.294 0.426 0.808 0.594 1.37 0.449zM22.080 27.352c0.174-0.568 0.359-0.918 0.663-1.26 0.395-0.443 0.502-0.688 0.502-1.148 0-0.247-0.039-0.491-0.108-0.678-0.181-0.49-0.436-1.433-0.466-1.725-0.122-1.181-0.155-1.346-0.281-1.429-0.106-0.070-0.121-0.117-0.097-0.323 0.048-0.429-0.327-0.967-0.931-1.333-0.192-0.117-0.424-0.281-0.515-0.366s-0.334-0.233-0.54-0.329c-0.321-0.15-0.42-0.171-0.689-0.149-0.675 0.056-1.282 0.424-1.36 0.827-0.019 0.099-0.058 0.292-0.085 0.428s-0.073 0.496-0.101 0.799c-0.055 0.586-0.168 1.135-0.274 1.333-0.039 0.072-0.065 0.372-0.065 0.744 0 0.593 0.009 0.64 0.174 0.953 0.101 0.192 0.192 0.468 0.218 0.662 0.087 0.653 0.197 1.162 0.289 1.338 0.197 0.377 0.73 0.579 1.194 0.454 0.177-0.048 0.25-0.049 0.264-0.005 0.011 0.034 0.136 0.139 0.277 0.234s0.344 0.256 0.45 0.358c0.196 0.188 1.269 1.005 1.327 1.009 0.017 0.001 0.087-0.177 0.154-0.397zM7.986 27.389c0.379-0.247 0.383-0.268 0.403-2.306 0.011-1.096 0.041-1.902 0.077-2.018 0.079-0.255 0.076-1.814-0.004-2.131-0.078-0.308-0.364-0.601-0.677-0.693-0.133-0.039-0.316-0.16-0.446-0.294-0.139-0.143-0.343-0.275-0.551-0.355-0.182-0.070-0.368-0.158-0.413-0.195s-0.143-0.086-0.217-0.109c-0.074-0.023-0.245-0.1-0.38-0.172-0.577-0.307-1.619-0.035-1.981 0.517-0.076 0.116-0.103 0.325-0.131 1.003-0.035 0.847-0.038 0.864-0.266 1.409l-0.23 0.551-0.030 1.158c-0.030 1.152-0.029 1.159 0.101 1.349 0.174 0.254 0.437 0.425 0.723 0.47 0.128 0.020 0.459 0.146 0.736 0.28s0.541 0.243 0.587 0.243c0.077 0 0.232 0.11 0.743 0.526 0.099 0.080 0.179 0.175 0.179 0.21 0 0.169 0.585 0.621 0.91 0.703 0.257 0.065 0.641-0 0.867-0.148zM10.731 19.097c0.136-0.070 0.315-0.174 0.398-0.232s0.268-0.141 0.414-0.184c0.145-0.043 0.4-0.168 0.567-0.277s0.39-0.247 0.496-0.307c0.106-0.060 0.277-0.162 0.38-0.227s0.364-0.159 0.579-0.21c0.349-0.082 0.397-0.109 0.444-0.252 0.097-0.295 0.334-0.6 0.61-0.785 0.288-0.193 0.363-0.285 0.233-0.285-0.076 0-0.894-0.466-1.562-0.89-0.184-0.117-0.384-0.213-0.444-0.213-0.205 0-0.663-0.276-0.98-0.59l-0.316-0.313-0.219 0.059c-0.212 0.057-0.231 0.050-0.576-0.205-0.619-0.457-1.114-0.489-1.63-0.105-0.16 0.119-0.329 0.217-0.377 0.218-0.154 0.002-0.546 0.207-1.102 0.577-0.553 0.368-1.031 0.634-1.14 0.634-0.115 0-0.514 0.329-0.599 0.493-0.108 0.209-0.111 0.786-0.004 0.992 0.178 0.345 0.681 0.604 1.036 0.533 0.092-0.018 0.224 0.002 0.313 0.048 0.085 0.044 0.372 0.134 0.639 0.201 0.388 0.097 0.551 0.172 0.817 0.374 0.207 0.158 0.352 0.315 0.385 0.418 0.121 0.378 0.401 0.616 0.809 0.688 0.256 0.045 0.525-0.008 0.827-0.162zM24.707 18.682c0.243-0.096 0.664-0.303 0.937-0.461s0.595-0.313 0.717-0.345c0.244-0.064 0.744-0.362 0.744-0.442 0-0.028-0.036-0.065-0.081-0.082-0.069-0.026-0.070-0.048-0.005-0.15 0.042-0.065 0.107-0.224 0.144-0.351 0.059-0.2 0.054-0.269-0.031-0.491-0.116-0.304-0.402-0.637-0.682-0.796-0.11-0.062-0.271-0.212-0.357-0.334-0.305-0.428-0.847-0.656-1.559-0.656-0.393 0-0.522 0.027-0.933 0.193-0.263 0.106-0.619 0.278-0.791 0.383s-0.424 0.238-0.559 0.296c-0.135 0.058-0.355 0.197-0.488 0.309s-0.288 0.228-0.345 0.258c-0.188 0.101-0.432 0.604-0.433 0.894-0.001 0.313 0.153 0.646 0.371 0.801 0.208 0.148 0.584 0.243 0.803 0.202 0.147-0.028 0.256 0.009 0.592 0.2 0.226 0.129 0.509 0.311 0.628 0.404 0.589 0.46 0.591 0.46 1.327 0.169zM17.513 14.23c0.104-0.171 0.109-0.284 0.109-2.51 0-1.892-0.015-2.367-0.078-2.519-0.105-0.252-0.464-0.503-0.788-0.552-0.148-0.022-0.369-0.113-0.51-0.209-0.473-0.321-0.53-0.357-0.751-0.47-0.122-0.062-0.256-0.154-0.297-0.203-0.193-0.232-0.835-0.335-1.131-0.181-0.233 0.121-0.46 0.343-0.524 0.512-0.030 0.079-0.055 0.416-0.055 0.748 0 0.461 0.023 0.653 0.096 0.81 0.083 0.177 0.095 0.357 0.084 1.335l-0.013 1.13 0.718 0.348c0.395 0.191 0.798 0.415 0.895 0.498 0.218 0.185 0.523 0.412 0.921 0.686 0.167 0.115 0.477 0.331 0.689 0.481s0.417 0.272 0.456 0.273c0.038 0.001 0.119-0.079 0.179-0.178zM20.396 13.701c0.127-0.102 0.38-0.26 0.562-0.352s0.437-0.24 0.567-0.329c0.13-0.089 0.353-0.213 0.496-0.275s0.359-0.193 0.481-0.29c0.121-0.097 0.332-0.243 0.469-0.324 0.497-0.295 0.463-0.212 0.477-1.181 0.012-0.876-0.032-1.309-0.184-1.794-0.083-0.264-0.081-0.487 0.015-1.568 0.040-0.45-0.017-0.509-0.259-0.268-0.151 0.151-0.939 0.608-1.703 0.989-0.666 0.332-1.261 0.739-1.416 0.968-0.118 0.176-0.12 0.204-0.088 1.544 0.028 1.166 0.020 1.401-0.055 1.609-0.057 0.16-0.1 0.539-0.123 1.094l-0.035 0.85 0.283-0.243c0.156-0.134 0.387-0.326 0.514-0.428zM19.716 7.766c0.085-0.044 0.241-0.18 0.345-0.302 0.154-0.18 0.243-0.232 0.474-0.276 0.401-0.076 0.595-0.19 0.977-0.575 0.184-0.185 0.419-0.386 0.524-0.447 0.224-0.13 0.438-0.518 0.438-0.794s-0.193-0.633-0.432-0.799c-0.114-0.079-0.229-0.144-0.256-0.144s-0.090-0.038-0.141-0.084c-0.12-0.108-0.98-0.467-1.12-0.467-0.059 0-0.272-0.169-0.477-0.379-0.46-0.47-0.734-0.58-1.367-0.548-0.233 0.012-0.49 0.058-0.57 0.102s-0.313 0.166-0.515 0.27c-0.203 0.104-0.484 0.292-0.625 0.417-0.183 0.162-0.341 0.246-0.552 0.294-0.404 0.090-0.679 0.323-0.886 0.747-0.201 0.412-0.216 0.693-0.053 1.001 0.179 0.338 0.354 0.494 0.813 0.721 0.232 0.115 0.503 0.278 0.602 0.363s0.248 0.17 0.331 0.19c0.083 0.019 0.213 0.093 0.288 0.163 0.13 0.12 0.609 0.355 0.724 0.355 0.029 0 0.123 0.052 0.21 0.116s0.24 0.137 0.342 0.163c0.242 0.061 0.733 0.016 0.929-0.085z"></path>
</svg>
