<!-- Generated by IcoMoon.io -->
<svg version="1.1" xmlns="http://www.w3.org/2000/svg" width="32" height="32" viewBox="0 0 32 32">
<title>level_none</title>
<path d="M6.206 4.167c-3.366 2.828-5.508 7.080-5.508 11.833 0 8.515 6.871 15.418 15.346 15.418s15.346-6.903 15.346-15.418c0-4.526-1.941-8.597-5.033-11.418 2.241 2.325 3.606 5.412 3.606 8.8 0 7.23-6.219 13.091-13.891 13.091s-13.891-5.861-13.891-13.091c0-3.594 1.537-6.849 4.025-9.215zM16.117 32c-8.837 0-16-7.163-16-16s7.163-16 16-16c8.837 0 16 7.163 16 16s-7.163 16-16 16z"></path>
<path d="M1.352 15.939c0 7.982 6.362 14.524 14.344 14.524s15.208-6.425 14.973-14.404c-0.085-3.194-0.066-1.92-0.559 0.471-0.885 6.47-7.567 11.046-14.497 11.046s-13.942-6.057-13.942-12.588c-0.132-2.146-0.278-1.356-0.32 0.951z"></path>
</svg>
