<!-- Generated by IcoMoon.io -->
<svg version="1.1" xmlns="http://www.w3.org/2000/svg" width="41" height="32" viewBox="0 0 41 32">
<title>lion_and_unicorn</title>
<path d="M23.277 17.526c0.172-0.194 0.372-0.362 0.595-0.499l3.269-2.742-4.897-7.186 6.61 5.75 0.343-0.288-0.289-1.341c0 0-0.181-0.841-0.18-0.844l0.001 0c0.305-0.539 1.58-0.495 2.911 0.118 0.987 0.454 1.731 1.095 1.98 1.64 2.738 0.864 5.251 3.733 6.273 7.564 0.83 3.113 0.488 6.153-0.715 8.302h-13.562c-0.050-0.248-0.077-0.505-0.077-0.767 0-0.637 0.156-1.28 0.463-1.841 0.149-0.272 0.329-0.532 0.536-0.764 0.263-0.294 0.58-0.535 0.868-0.804 0.589-0.55 1.39-1.192 1.679-1.963 0.207-0.551 0.201-1.136 0.086-1.711 0 0-1.763 0.597-1.765 0.596-0.478 0.663-1.26 1.096-2.147 1.096-1.456 0-2.637-1.166-2.637-2.604 0-0.652 0.244-1.247 0.644-1.704z"></path>
<path d="M18.297 4.27c-0.006-0.004-0.012-0.008-0.018-0.012-0.001-0.003 0.005 0.002 0.018 0.012z"></path>
<path d="M9.455 10.817c-0.007 0.002-0.014 0.004-0.021 0.006-0.003-0.001 0.004-0.003 0.021-0.006z"></path>
<path d="M16.982 4.742c-0.005-0.003-0.009-0.006-0.014-0.009-0.001-0.002 0.004 0.001 0.014 0.009z"></path>
<path d="M12.015 7.338c-0.008 0-0.016 0.001-0.024 0.001-0.003-0.002 0.005-0.002 0.024-0.001z"></path>
<path d="M11.241 8.561c-0.006 0-0.012 0.001-0.018 0.001-0.003-0.001 0.004-0.001 0.018-0.001z"></path>
<path d="M9.186 14.367c-0.004 0.004-0.008 0.007-0.012 0.011-0.002 0.001 0.002-0.003 0.012-0.011z"></path>
<path d="M10.788 19.545c-0.001 0.007-0.003 0.014-0.004 0.022-0.002 0.003-0.001-0.005 0.004-0.022z"></path>
<path d="M11.877 20.526c-0.001 0.006-0.002 0.011-0.003 0.017-0.002 0.002-0.001-0.004 0.003-0.017z"></path>
<path d="M15.556 24.957c-0.001-0.012-0.001-0.023-0.002-0.035 0.004 0.027 0.005 0.040 0.002 0.035z"></path>
<path d="M21.64 26.212c-0.001-0.018-0.002-0.035-0.003-0.053 0.006 0.041 0.007 0.060 0.003 0.053z"></path>
<path d="M20.48 14.618c0.167-0.269 0.197-0.677 0.198-0.734 0.095-0.036 0.224-0.216 0.246-0.243-0.004 0.041-0.024 0.312-0.108 0.513-0.009 0.2 0.054 1.022-0.425 1.401-0.254-0.319 0.038-0.85 0.089-0.937z"></path>
<path d="M1.483 16.302c0.174-0.137 0.471-0.696 0.462-0.71 0.318-0.627 0.713-1.115 1.057-1.466-0.467 0.191-1.082 0.58-1.175 0.648 0.295-0.257 0.33-0.245 0.538-0.703 0.067-0.238 0.148-0.433 0.238-0.595-0.054 0.054-0.093 0.108-0.111 0.161-0.254 0.73-1.436 0.941-1.436 0.941 0.612-0.148 0.497-0.555 1.209-1.494 0.505-0.664 1.235-1.051 1.635-1.217 0.001-0.001 0.001-0.003 0.001-0.004-0.587 0.26-1.787 0.097-1.797 0.045 0.457 0.019 1.373-0.486 1.436-0.539 0.129-0.092 0.26-0.172 0.39-0.243-0.667-0.047-1.675 0.069-1.835 0.098 0.505-0.136 0.54-0.103 1.069-0.524 0.491-0.524 0.937-0.784 1.321-0.889-0.206 0.008-0.363 0.016-0.377 0.011-0.343 0.121-1.367 0.006-1.168 0.006s0.731-0.223 0.733-0.238c0.536-0.236 1.047-0.358 1.468-0.42 0.004-0.006 0.009-0.012 0.013-0.019-0.508-0.118-1.156-0.181-1.272-0.185 0.425-0.021 0.446 0.011 0.943-0.232 0.224-0.152 0.43-0.262 0.619-0.337-0.083 0.009-0.154 0.029-0.205 0.061-0.728 0.438-1.853-0.151-1.853-0.151 0.61 0.273 0.804-0.137 2.058-0.45 0.025-0.006 0.050-0.012 0.075-0.018-0.415-0.060-0.77-0.092-0.864-0.096 0.559-0.028 0.587 0.015 1.241-0.305 0.379-0.257 0.718-0.422 1.020-0.518-0.692 0.027-1.739-0.442-1.732-0.494 0.461 0.155 1.559-0.090 1.641-0.125 0.069-0.024 0.138-0.045 0.206-0.065-0.347-0.302-0.612-0.631-0.594-0.657 0.27 0.26 1.039 0.458 1.33 0.517 0.701-0.068 1.321 0.053 1.789 0.208-0.272-0.193-0.52-0.356-0.532-0.373-0.394-0.121-1.22-0.909-1.043-0.775s0.814 0.291 0.826 0.279c0.711 0.163 1.295 0.426 1.729 0.671-0.296-0.394-0.825-0.883-0.915-0.956 0.326 0.22 0.322 0.255 0.836 0.351 0.258 0.012 0.476 0.045 0.661 0.094-0.067-0.039-0.131-0.064-0.188-0.069-0.803-0.080-1.271-1.137-1.271-1.137 0.283 0.538 0.675 0.344 1.789 0.808 0.022 0.009 0.044 0.019 0.066 0.029-0.269-0.274-0.511-0.494-0.578-0.548 0.429 0.289 0.423 0.335 1.1 0.462 0.436 0.020 0.785 0.087 1.067 0.183-0.525-0.363-1.010-1.288-0.974-1.322 0.245 0.369 1.203 0.796 1.284 0.816 1.775 0.564 2.353 2.116 2.419 2.311 0.756 0.375 1.706 1.116 2.222 2.226 0 0-0.111 0.484 0.14 0.75 0.307 0.239 0.977 0.758 1.312 0.998 0.377 0.226 2.053 1.131 1.913 1.717-0.001 0.003-0.002 0.006-0.003 0.009-0 0-0.448 0.072-0.617 0.001-0.025-0.011-0.077-0.020-0.279 0.115-0.176 0.106-0.561 0.118-0.692-0.046-0.088-0.097-0.219-0.146-0.244-0.044 0 0.065 0.008 0.393 0.889 0.635 0.025 0.008 0.127 0.293 0.157 0.392-0.026 0.424-0.221 0.753-0.221 0.753-0.269 0.273-1.842 1.81-3.757 1.089-0.048-0.018-0.401 0.145-0.105 0.309 0.187 0.051 1.867 0.654 3.576-1.029-0.072 0.287 0.13 0.688 0.13 0.688l0.054 0.108c0.064 0.564 0.102 2.24-1.802 1.767-0.433-0.108-0.579-0.289-0.868-0.431-0.829-0.406-1.396-0.532-2.326-0.624-0.649-0.165-1.501-0.572-1.807-1.574 0.004 0.003 0.151 1.427 2.051 1.758 0.295 0.256 0.773 0.814 1.050 1.88 0.12 0.464 0.214 0.993 0.255 1.587 0.091 1.291-0.064 2.886-0.724 4.78-0.088-0.195-0.005-1.187-0.696-2.1-0.057-0.075-0.111-0.152-0.164-0.23-0.139 0.343-0.319 0.706-0.547 1.088-0.632 1.551-0.519 1.601-0.451 2.867-0.056-0.373-0.545-2.608-1.169-4.101 0.004 0.025 0.008 0.050 0.013 0.075 0.424 2.383-1.984 5.019-1.984 5.019 0.119-2.994-0.782-4.899-1.897-6.145-0.052 0.56-0.269 1.235-0.751 2.044-0.412 1.011-0.339 1.045-0.294 1.87-0.036-0.237-0.335-1.608-0.724-2.578-0.010 0.945-0.567 2.217-0.64 2.212 0.204-0.647-0.246-2.148-0.305-2.258-0.328-0.751-0.444-1.473-0.442-2.125-0.052 0.378-0.087 0.676-0.1 0.7 0.119 0.6-0.39 2.254-0.332 1.925s-0.189-1.269-0.216-1.276c-0.248-0.875-0.329-1.687-0.332-2.366-0.277 0.442-0.553 1.245-0.588 1.372 0.069-0.4 0.106-0.413-0.037-0.927-0.108-0.241-0.176-0.456-0.214-0.648-0.008 0.079-0.003 0.149 0.019 0.204 0.294 0.771-0.55 1.693-0.55 1.693 0.41-0.51 0.031-0.778-0.023-2.012-0.001-0.025-0.001-0.049-0.002-0.074-0.15 0.374-0.259 0.698-0.282 0.784 0.090-0.527 0.14-0.543-0.048-1.221-0.183-0.407-0.279-0.758-0.314-1.060-0.12 0.65-0.824 1.524-0.876 1.507 0.257-0.396 0.24-1.471 0.221-1.555-0.010-0.069-0.017-0.138-0.022-0.206-0.383 0.259-0.778 0.435-0.8 0.413 0.324-0.196 0.691-0.87 0.813-1.128 0.079-0.668 0.336-1.218 0.594-1.622-0.256 0.213-0.476 0.408-0.496 0.416-0.208 0.341-1.192 0.943-1.017 0.805zM14.918 10.455c-0.002 0.005 0.057 0.012 0.144 0.021 0.035 0.068 0.224 0.146 0.461 0.183 0.19 0.030 0.359 0.026 0.448-0.005 0.268 0.112 0.679 0.295 1.11 0.47 0 0-0.662-0.426-0.866-0.775-0.070-0.090-0.158-0.162-0.259-0.206 0.275-0.065 0.566-0.119 0.825-0.134-0.023-0.004-0.912-0.063-1.495 0.139-0.021 0.010-0.258 0.062-0.399 0.316 0 0 0.010-0.004 0.029-0.011z"></path>
</svg>
