<!-- Generated by IcoMoon.io -->
<svg version="1.1" xmlns="http://www.w3.org/2000/svg" width="32" height="32" viewBox="0 0 32 32">
<title>locked_doors</title>
<path d="M22.832 27.595c0.013 0.077 0.026 0.161 0.035 0.237 0.038 0.271 0.067 0.546 0.101 0.817 0.013 0.106 0.013 0.254 0.047 0.351 0.047-0.009 0.030-0.080 0.035-0.127 0.038-0.398 0.207-0.791 0.321-1.177 0.148-0.529 0.212-1.079 0.357-1.612 0.042-0.153 0.096-0.297 0.14-0.449 0.054-0.204 0.080-0.411 0.135-0.61 0.034-0.135 0.105-0.254 0.139-0.385 0.081-0.304-0.025-0.584 0.153-0.859s0.173-0.622 0.186-0.939c0.017-0.492 0.034-0.983 0.034-1.478 0.004-0.436-0.072-0.875-0.144-1.308-0.058-0.351-0.101-0.724-0.275-1.041-0.122-0.232-0.228-0.423-0.232-0.693-0.009-0.572 0.080-1.181-0.017-1.744-0.022-0.114-0.064-0.224-0.084-0.334-0.060-0.304 0.098-0.668 0.22-0.944 0.055-0.131 0.157-0.22 0.224-0.339 0.072-0.127 0.127-0.258 0.199-0.385 0.050-0.098 0.089-0.195 0.152-0.284 0.064-0.085 0.093-0.060 0.102-0.182 0.004-0.148-0.080-0.229-0.122-0.368-0.030-0.102-0.077-0.203-0.093-0.309-0.017-0.093 0.009-0.191-0.009-0.28-0.017-0.080-0.076-0.114-0.102-0.178-0.058-0.144-0.080-0.33-0.127-0.478-0.11-0.322-0.309-0.601-0.368-0.939-0.047-0.271-0.009-0.488 0.076-0.745 0.102-0.304 0.068-0.635 0.068-0.952 0-0.393 0-0.783 0-1.177 0-0.304-0.025-0.597 0.064-0.888 0.034-0.115 0.034-0.144 0.025-0.28-0.025-0.411-0.055-0.826-0.098-1.236-0.076-0.769-0.178-1.536-0.284-2.306-0.047-0.017-0.092-0.017-0.143-0.004-0.131 0.012-0.263-0.009-0.386-0.064-0.267-0.148-0.524-0.3-0.787-0.462-0.335-0.207-0.783-0.254-1.169-0.194-0.109 0.012-0.211 0.047-0.321 0.047-0.174 0.003-0.339-0.064-0.512-0.064-0.204-0.004-0.402 0.034-0.606 0.055-0.529 0.047-1.006-0.073-1.532-0.144-0.423-0.055-0.855-0.071-1.282-0.102-0.677-0.051-1.342-0.071-2.020 0.013-0.287 0.047-0.575 0.084-0.862 0.109-0.255 0.009-0.512 0.013-0.766 0.022-0.377 0.029-0.648 0.106-0.936 0.33-0.051 0.038-0.144 0.012-0.109 0.105 0.025 0.068 0.118 0.035 0.173 0.038 0.186 0.004 0.36 0.013 0.542 0.039 0.322 0.051 0.631 0.152 0.957 0.186 0.427 0.046 0.787 0.054 1.177 0.258 0.36 0.186 0.689 0.296 1.079 0.402 0.182 0.034 0.351 0.102 0.511 0.191 0.119 0.085 0.242 0.165 0.368 0.241 0.11 0.064 0.304 0.077 0.428 0.077 0.076 0.004 0.14 0 0.207-0.035 0.026-0.012 0.022-0.063 0.034-0.072 0.064-0.025 0.186 0.017 0.259 0.022 0.355 0.038 0.724 0.012 1.083 0.012 0.355 0.004 0.685-0.076 1.032 0 0.635 0.135 1.235-0.055 1.862-0.055 0.038 0 0.367-0.038 0.414 0.009 0.035 0.030 0.013 0.064 0.017 0.102 0.017 0.072 0 0.22 0 0.28v0.698c0 0.681 0 1.363 0.004 2.044 0 0.317 0 0.639 0 0.957 0 0.296 0.067 0.686-0.009 0.973-0.025-0.034-0.064-0.051-0.102-0.042-0.063 0.009-0.016 0.486-0.029 0.555-0.004 0.029-0.042 0.080-0.051 0.131-0.013 0.127 0.017 0.258 0.017 0.389 0 0.268-0.013 0.517-0.055 0.783-0.060 0.347-0.047 0.66-0.173 0.99-0.055 0.153-0.077 0.28-0.182 0.402-0.191 0.216 0.009 0.424 0.004 0.668-0.004 0.073-0.022 0.132-0.038 0.199-0.030 0.122-0.047 0.195 0.038 0.304 0.122 0.161 0.236 0.262 0.313 0.462 0.067 0.173 0.114 0.36 0.203 0.524 0.246 0.445 0.255 0.952 0.17 1.44-0.090 0.516 0.067 1.075 0.092 1.599 0.013 0.208 0.017 0.415 0.022 0.626 0 0.157 0.038 0.306 0.038 0.466 0 0.486 0.029 0.977 0 1.46-0.004 0.084-0.013 0.165-0.029 0.245-0.042 0.173-0.068 0.339-0.068 0.521 0.009 0.52 0.119 1.041 0.123 1.561 0.012 0.753-0.081 1.503-0.081 2.256 0 0.342-0.025 0.69 0.042 1.028 0.073 0.343 0.132 0.686 0.182 1.037zM9.158 26.842c0.022-0.106 0.038-0.211 0.051-0.322 0.038-0.317 0.068-0.644 0.064-0.961-0.004-0.287-0.026-0.618 0.080-0.888 0.038-0.102 0.067-0.191 0.080-0.296 0.009-0.098-0.009-0.195 0.009-0.288 0.038-0.211 0.098-0.427 0.144-0.639 0.021-0.098 0.038-0.233 0.102-0.313 0.089-0.106 0.114-0.131 0.085-0.262-0.035-0.153-0.026-0.33-0.026-0.486-0.004-0.322 0.004-0.644 0.004-0.965v-0.906c0-0.55 0.022-1.126 0.076-1.676 0.043-0.469 0.182-0.982 0.102-1.452-0.072-0.398-0.034-0.837 0.060-1.231 0.072-0.326 0.16-0.652 0.322-0.944 0.098-0.174 0.322-0.22 0.415-0.381 0.034-0.060 0.008-0.203 0.008-0.275v-0.444c0-0.098-0.016-0.211 0.004-0.309 0.026-0.106 0.073-0.165 0.055-0.284-0.029-0.173-0.186-0.275-0.271-0.423-0.127-0.237-0.304-0.462-0.342-0.737-0.068-0.437-0.064-0.864-0.199-1.278-0.076-0.237-0.051-0.478-0.029-0.724 0.051-0.635 0.147-1.261 0.207-1.892 0.093-1.003 0.255-2.014 0.038-3.013-0.093-0.415-0.072-0.834-0.122-1.249-0.017-0.152-0.093-0.313-0.127-0.465-0.042-0.161-0.068-0.33-0.122-0.483-0.026 0.026-0.055 0.051-0.098 0.043-0.042 0.076-0.051 0.182-0.073 0.262 0 0.009 0 0.012 0 0.016-0.038 0.174-0.063 0.348-0.098 0.517-0.085 0.44-0.228 0.868-0.363 1.295-0.111 0.33-0.179 0.657-0.208 1.003-0.016 0.169-0.029 0.335-0.060 0.5-0.034 0.182-0.089 0.355-0.135 0.533-0.054 0.216-0.080 0.432-0.076 0.657 0 0.135 0.004 0.271-0.021 0.406-0.030 0.185-0.111 0.36-0.14 0.546-0.038 0.245 0.047 0.473 0.054 0.715 0.004 0.16-0.050 0.338-0.072 0.495-0.021 0.156-0.038 0.317-0.055 0.473-0.101 0.948-0.233 1.905-0.28 2.857-0.029 0.686-0.003 1.372 0.039 2.056 0.012 0.178 0 0.22 0.114 0.352 0.157 0.173 0.060 0.491 0.064 0.693 0 0.377-0.022 0.757 0.016 1.13 0.030 0.304 0.017 0.61 0.017 0.914 0 0.33-0.004 0.66 0 0.99 0 0.157 0.009 0.309-0.034 0.462-0.035 0.114-0.038 0.194-0.038 0.309 0.008 0.635-0.009 1.265 0 1.896 0.008 0.33 0.096 0.686 0 1.012-0.030 0.105-0.064 0.194-0.068 0.309-0.013 0.36 0 0.728 0 1.091 0 0.348 0 0.695 0 1.041 0 0.377-0.025 0.754 0.038 1.122 0.055 0.296 0.102 0.596 0.153 0.893 0.029 0.173 0.102 0.313 0.173 0.474 0.080 0.186 0.14 0.368 0.199 0.555-0.030-0.69 0.165-1.354 0.283-2.031z"></path>
<path d="M5.625 13.49c-0.157 0.009-0.317 0-0.47 0-0.118-0.004-0.237-0.026-0.3 0.072-0.060 0.085-0.042 0.199-0.039 0.297 0 0.245-0.085 0.478-0.085 0.719-0.004 0.085-0.029 0.165 0.060 0.19 0.051 0.013 0.111 0 0.16 0.009 0.064 0.009 0.119 0.026 0.186 0.026 0.111 0 0.204-0.026 0.306-0.055 0.105-0.029 0.203-0.038 0.313-0.029 0.14 0.008 0.203 0.080 0.325 0.118 0.055 0.017 0.128 0.013 0.186 0.017 0.106 0.004 0.229 0.012 0.335-0.009 0.122-0.022 0.211-0.038 0.342-0.038s0.255 0 0.381 0.021c0.178 0.030 0.36 0.017 0.546 0.017 0.224 0 0.444 0.042 0.668 0.042 0.288-0.004 0.593-0.009 0.877 0.038 0.096 0.017 0.198 0.034 0.296 0.042 0.606 0.038 1.206 0.038 1.812 0.102 0.411 0.042 0.817 0.089 1.228 0.148 0.207 0.034 0.418 0.047 0.626 0.059 0.14 0.009 0.267 0.042 0.402 0.068 0.245 0.038 0.478-0.009 0.724-0.042 0.304-0.047 0.609-0.089 0.914-0.144 1.104-0.199 2.23-0.344 3.355-0.415 0.572-0.038 1.147-0.085 1.718-0.118 0.288-0.013 0.575-0.026 0.859-0.026 0.127-0.004 0.25 0.004 0.377 0.009 0.042 0 0.072 0 0.114-0.009 0.199-0.038 0.402-0.098 0.597-0.144 0.406-0.093 0.813-0.063 1.232-0.059 0.28 0.004 0.555 0.021 0.833 0.016 0.178 0 0.39 0.009 0.559-0.025 0.038-0.009 0.072-0.017 0.102-0.038 0.047-0.030 0.067-0.085 0.114-0.119 0.153-0.105 0.457-0.038 0.635-0.034 0.144 0.004 0.288 0.026 0.428 0.009 0.042-0.004 0.080-0.013 0.127-0.009 0.102 0.009 0.186 0.051 0.267 0.111 0.089 0.067 0.135 0.122 0.178 0.216 0.060 0.135 0.127 0.347 0.33 0.254 0.241-0.109 0.267-0.431 0.423-0.618 0.077-0.093 0.161-0.038 0.263-0.038 0.127-0.004 0.278-0.102 0.321-0.211 0.060-0.17 0.039-0.377 0.039-0.55 0-0.17-0.004-0.339 0-0.508 0-0.102-0.009-0.115-0.128-0.111-0.127 0-0.258 0-0.389-0.004-0.076 0-0.165-0.021-0.242 0-0.034 0.009-0.054 0.030-0.084 0.039-0.093 0.025-0.229 0-0.322 0h-0.808c-0.22 0-0.38-0.017-0.593 0.054-0.063 0.022-0.127 0.042-0.194 0.051-0.081 0.009-0.157 0-0.237 0-0.258 0-0.512 0.035-0.766 0.051-0.757 0.055-1.511 0.115-2.26 0.229-0.317 0.047-0.639 0.093-0.965 0.093-0.254 0-0.507-0.021-0.766-0.042-0.194-0.013-0.38-0.004-0.575-0.013-0.127-0.009-0.254-0.021-0.381-0.042-0.245-0.009-0.491 0.009-0.731 0.042-0.5 0.051-0.999 0.042-1.494 0.089-0.542 0.055-1.063 0.204-1.6 0.28-0.415 0.055-0.842 0.042-1.261 0.080-0.291 0.030-0.571 0.042-0.859 0.004-0.644-0.080-1.277-0.156-1.925-0.191-0.868-0.042-1.744-0.101-2.611-0.072-0.466 0.017-0.932 0.080-1.396 0.106-0.089 0.004-0.178 0.016-0.263 0.038-0.122 0.025-0.241 0.072-0.367 0.080-0.195 0.013-0.386-0.047-0.568-0.098-0.267-0.072-0.5-0.063-0.762-0.034-0.038 0.004-0.076 0.009-0.114 0.009z"></path>
<path d="M20.331 17.451l-0.022-0.004c-0.098-0.016-0.182-0.009-0.275 0.022-0.042 0.012-0.076 0.051-0.114 0.072-0.229 0.14-0.204 0.453-0.22 0.69-0.022 0.275 0.058 0.533 0.093 0.804 0.016 0.135 0.047 0.267 0.080 0.402 0.038 0.157 0.067 0.313 0.064 0.475 0 0.114-0.009 0.224-0.013 0.334 0 0.051 0 0.098-0.013 0.144-0.004 0.025-0.042 0.080-0.021 0.11 0.021 0.025 0.072 0.012 0.096 0.012 0.135 0.004 0.271 0.013 0.406 0.017 0.191 0.009 0.381 0.013 0.568 0.021 0.089 0.004 0.109-0.012 0.118-0.101 0.026-0.297-0.029-0.597-0.016-0.894 0.008-0.152 0-0.291-0.035-0.44-0.034-0.178-0.034-0.355-0.047-0.533-0.016-0.203-0.016-0.402-0.008-0.609 0.003-0.077 0.034-0.204 0.012-0.28-0.012-0.047-0.114-0.119-0.16-0.14-0.144-0.077-0.335-0.080-0.495-0.102z"></path>
<path d="M12.535 12.021c0 0.444 0.039 0.885 0.068 1.329 0.025 0.393 0.051 0.783 0.051 1.172-0.004 0.254 0.009 0.478 0.047 0.728 0.029 0.169 0.060 0.329 0.098 0.499 0.029 0.122 0.072 0.169 0.122 0.271 0.055 0.118 0.021 0.291 0.131 0.38 0.068 0.055 0.186 0.047 0.262 0.051 0.135 0.009 0.262 0.004 0.39-0.051 0.050-0.034 0.109-0.051 0.169-0.047 0.034 0.009 0.072 0.004 0.106-0.008 0.089-0.068 0.046-0.361 0.046-0.45 0-0.816 0.077-1.667-0.118-2.454-0.067-0.267-0.118-0.533-0.148-0.813-0.016-0.135 0.013-0.288-0.016-0.419-0.131 0.004-0.255-0.051-0.394-0.047-0.198 0-0.38 0.017-0.813-0.144z"></path>
<path d="M19.175 12.191c-0.047 0.050-0.038 0.131-0.038 0.198-0.009 0.169 0 0.335 0.009 0.504 0.029 0.512 0.029 1.016 0.029 1.528v0.932c0 0.267-0.034 0.533 0.009 0.795 0.009 0.055 0.034 0.098 0.038 0.153 0.009 0.054 0.022 0.096 0.042 0.152 0.035 0.093 0.022 0.182 0.148 0.186 0.11 0.004 0.22 0 0.33 0 0.135 0 0.198-0.025 0.309-0.106 0.11-0.080 0.127-0.135 0.157-0.271 0.046-0.182 0.135-0.338 0.143-0.533 0.004-0.135 0.009-0.258 0.030-0.393 0.012-0.089 0.012-0.157 0.051-0.242 0.016-0.038 0.029-0.059 0.034-0.105 0.038-0.267 0.042-0.546 0.051-0.817 0.025-0.53 0.098-1.075 0.072-1.605-0.009-0.216-0.038-0.427-0.042-0.644 0-0.105-0.009-0.109-0.098-0.109-0.114 0-0.22 0.047-0.338 0.051-0.161 0.004-0.326-0.004-0.488-0.004-0.173 0.004-0.334-0.047-0.511-0.047 0.009 0 0.016 0 0.063 0.377z"></path>
<path d="M27.123 13.587c-0.165-0.051-0.025 0.685-0.016 0.728 0.016 0.109 0.054 0.241 0.051 0.355-0.017-0.022-0.039-0.035-0.064-0.030-0.042 0.217-0.060 0.419-0.047 0.644 0.009 0.148 0.072 0.296 0.029 0.449-0.025 0.093-0.084 0.237 0.055 0.262 0.122 0.022 0.267-0.009 0.39-0.004 0.118 0 0.211 0.047 0.329 0.073 0.080 0.016 0.169-0.009 0.25 0.013 0.105 0.025 0.194 0.109 0.304 0.050 0.098-0.054 0.102-0.182 0.109-0.278 0.004-0.068 0.030-0.128 0.039-0.195 0.012-0.106-0.009-0.191-0.030-0.293-0.025-0.118-0.012-0.249-0.016-0.372-0.009-0.259-0.030-0.517-0.068-0.77-0.029-0.195-0.034-0.399-0.105-0.58-0.026-0.073-0.039-0.123-0.051-0.195-0.035-0.004-0.068-0.009-0.102-0.013-0.004-0.034-0.009-0.067-0.013-0.102-0.055 0.004-0.089 0.047-0.14 0.064-0.114 0.038-0.241 0.051-0.355 0.085-0.186 0.051-0.355 0.076-0.555 0.076-0.093-0.004-0.185-0.004-0.283 0 0.016-0.008 0.025-0.021 0.287 0.035z"></path>
<path d="M3.969 14.158c-0.021 0.009-0.042 0.017-0.058 0.029-0.051-0.067-0.013-0.254-0.013-0.329 0-0.381-0.042-0.758-0.042-1.134 0-0.208 0-0.411 0.004-0.619 0-0.038-0.026-0.147 0-0.182 0.021-0.034 0.127-0.038 0.173-0.046 0.241-0.051 0.491-0.119 0.737-0.128 0.147-0.008 0.287-0.025 0.436-0.038 0.080-0.004 0.102-0.009 0.118 0.064 0.017 0.063 0 0.165 0 0.233 0 0.165-0.012 0.296-0.038 0.453-0.017 0.105-0.017 0.236 0.009 0.342 0.038 0.157 0.080 0.254 0.182 0.377 0.122 0.16 0.296 0.267 0.431 0.414 0.068 0.073 0.102 0.132 0.195 0.179 0.060 0.029 0.135 0.042 0.157 0.114-0.055 0.004-0.068 0.034-0.111 0.055-0.051 0.029-0.118 0.042-0.178 0.055-0.106 0.025-0.182 0.089-0.271 0.143-0.153 0.085-0.089 0.263-0.254 0.335-0.229 0.106-0.428 0.242-0.674 0.3-0.122 0.030-0.267-0.012-0.385 0.017-0.038 0.013-0.042 0.034-0.076 0.042-0.039 0.009-0.081-0.009-0.119-0.004-0.055 0.009-0.105 0.064-0.169 0.038-0.080-0.029-0.051-0.109-0.064-0.182-0.021-0.118-0.008-0.245-0.038-0.364-0.009-0.034-0.025-0.051-0.029-0.089s0.004-0.076 0.076-0.076z"></path>
</svg>
