<!-- Generated by IcoMoon.io -->
<svg version="1.1" xmlns="http://www.w3.org/2000/svg" width="32" height="32" viewBox="0 0 32 32">
<title>lock</title>
<path fill="#394852" d="M16 4.2c-1.678 0-3.154 0.573-4.191 1.609s-1.609 2.513-1.609 4.191v2.2h-1.778l-0.181 0.547c0 0-1.041 3.075-1.041 6.253 0 2.713 1.137 4.754 2.819 6.016s3.848 1.784 5.981 1.784c2.133 0 4.299-0.523 5.981-1.784s2.819-3.302 2.819-6.016c0-3.178-1.041-6.253-1.041-6.253l-0.181-0.547h-1.778v-2.2c0-1.678-0.573-3.154-1.609-4.191s-2.513-1.609-4.191-1.609zM16 5.8c1.322 0 2.346 0.427 3.059 1.141s1.141 1.737 1.141 3.059v2.2h-8.4v-2.2c0-1.322 0.427-2.346 1.141-3.059s1.737-1.141 3.059-1.141zM9.669 13.8h12.662c0.149 0.479 0.869 2.646 0.869 5.2 0 2.287-0.863 3.746-2.181 4.734s-3.152 1.466-5.019 1.466c-1.867 0-3.701-0.477-5.019-1.466s-2.181-2.448-2.181-4.734c0-2.554 0.719-4.721 0.869-5.2zM16 16.2c-0.767 0-1.37 0.503-1.591 0.944s-0.209 0.856-0.209 0.856c0 0-0.011 0.415 0.209 0.856 0.11 0.219 0.519 0.289 0.791 0.469v3.675h1.6v-3.675c0.272-0.18 0.681-0.25 0.791-0.469 0.22-0.441 0.209-0.856 0.209-0.856s0.011-0.415-0.209-0.856c-0.22-0.441-0.824-0.944-1.591-0.944zM16 17.8c0.233 0 0.13-0.003 0.159 0.056s0.041 0.144 0.041 0.144-0.011 0.085-0.041 0.144c-0.030 0.059 0.074 0.056-0.159 0.056s-0.13 0.003-0.159-0.056c-0.030-0.059-0.041-0.144-0.041-0.144s0.011-0.085 0.041-0.144c0.030-0.059-0.074-0.056 0.159-0.056z"></path>
</svg>
