<!-- Generated by IcoMoon.io -->
<svg version="1.1" xmlns="http://www.w3.org/2000/svg" width="32" height="32" viewBox="0 0 32 32">
<title>lost_cathedral</title>
<path d="M28.629 19.809c-0.077-0.125-0.432-0.354-0.789-0.51-0.36-0.157-0.492-0.286-0.297-0.29 0.326-0.007 1.686 1.006 1.37 1.021-0.079 0.003-0.206-0.096-0.284-0.221z"></path>
<path d="M15.367 30.617c-1.55-0.945-2.097-2.769-1.342-4.476 0.261-0.59 0.366-1.077 0.257-1.186-0.271-0.271-1.293-0.344-1.85-0.132-0.302 0.115-0.436 0.109-0.359-0.015 0.253-0.41 1.539-0.481 2.096-0.116 0.51 0.334 0.558 0.332 0.983-0.056 0.577-0.527 1.669-1.077 2.144-1.079 0.761-0.005 2.49-1.005 3.23-1.869 0.757-0.885 1.595-2.736 1.595-3.525 0-0.406-0.009-0.406-0.842 0.019-1.709 0.872-3.886 0.724-5.162-0.349-1.897-1.596-1.908-4.573-0.020-5.549 1.336-0.691 2.732-0.132 2.693 1.077-0.019 0.568-0.019 0.568-0.208-0.084-0.349-1.203-1.928-1.261-2.956-0.108-0.536 0.601-0.674 2.085-0.268 2.87 0.47 0.908 1.674 1.887 2.515 2.045 1.152 0.216 2.478-0.080 3.422-0.764 0.815-0.59 0.857-0.672 0.728-1.388-0.226-1.246-1.049-2.84-2.006-3.884-0.494-0.539-1.991-1.704-3.326-2.588-2.029-1.344-2.679-1.664-3.964-1.949-0.845-0.188-1.803-0.311-2.128-0.274-0.576 0.066-0.59 0.097-0.554 1.206 0.037 1.111 0.034 1.118-0.118 0.255-0.209-1.188-0.375-1.314-1.389-1.057-1.917 0.487-3.945 2.763-4.416 4.957-0.458 2.137 0.488 4.376 2.242 5.302 2.329 1.23 4.975-0.092 4.374-2.186-0.107-0.372-0.108-0.646-0.002-0.646 0.101 0 0.279 0.347 0.396 0.771 0.621 2.25-2.416 3.876-4.852 2.598-2.477-1.299-3.493-3.956-2.617-6.841 0.239-0.787 0.636-1.687 0.881-1.999l0.447-0.568-0.443-0.788c-0.243-0.433-0.433-1.054-0.422-1.38 0.018-0.517 0.045-0.488 0.212 0.225 0.105 0.45 0.341 0.983 0.525 1.186 0.317 0.35 0.371 0.338 1.116-0.252 1.516-1.201 2.945-1.696 4.928-1.709 0.985-0.006 2.092 0.058 2.46 0.144l0.669 0.155-0.55-1.202c-0.396-0.866-0.577-1.657-0.644-2.829-0.094-1.617-0.091-1.626 0.399-1.557 0.452 0.064 0.505 0.193 0.625 1.539 0.158 1.762 0.638 2.909 1.856 4.432l0.911 1.139 0.257-1.449 0.027 0.758c0.025 0.696 0.14 0.832 1.425 1.679 0.769 0.507 1.743 1.277 2.164 1.711 0.764 0.787 0.77 0.789 1.636 0.529 0.559-0.168 1.256-0.647 1.954-1.345 0.89-0.89 1.13-1.289 1.34-2.224 0.216-0.963 0.204-1.315-0.073-2.268-0.744-2.557-3.435-3.618-5.086-2.005-0.841 0.822-0.88 1.809-0.095 2.426 0.332 0.261 0.428 0.429 0.246 0.429-0.574 0-1.206-0.814-1.206-1.554 0-0.943 1.002-2.093 2.075-2.382 2.31-0.622 4.556 1.214 4.882 3.993 0.077 0.652 0.224 1.185 0.327 1.185 0.43 0 1.204 1.040 1.187 1.595l-0.018 0.579-0.177-0.592c-0.319-1.066-1.444-1.888-1.444-1.057 0 1.056-1.911 3.255-3.313 3.813-0.399 0.158-0.757 0.312-0.796 0.341s0.187 0.689 0.504 1.465c0.482 1.183 0.577 1.723 0.585 3.327l0.009 1.915 1.402 0.031c0.771 0.017 1.519 0.040 1.661 0.052 0.461 0.037 1.79 1.764 1.929 2.508 0.33 1.757-0.673 3.3-2.109 3.246-0.418-0.016-0.933-0.185-1.144-0.376-0.402-0.364-0.52-1.211-0.197-1.411 0.103-0.064 0.138 0.073 0.078 0.305-0.064 0.246 0.043 0.591 0.258 0.829 0.946 1.045 2.789-0.051 2.789-1.658 0-2.214-2.044-3.598-4.231-2.866-0.65 0.218-0.95 0.503-1.482 1.411-0.959 1.637-1.874 2.342-3.759 2.896-2.704 0.795-3.574 1.453-3.963 3-0.615 2.444 1.793 4.6 3.573 3.2 0.645-0.507 0.745-1.505 0.183-1.832-0.199-0.116-0.253-0.214-0.118-0.217 0.393-0.011 0.895 0.607 0.89 1.096-0.002 0.248-0.166 0.65-0.362 0.893-0.783 0.967-1.993 1.168-3.073 0.51z"></path>
</svg>
