<!-- Generated by IcoMoon.io -->
<svg version="1.1" xmlns="http://www.w3.org/2000/svg" width="33" height="32" viewBox="0 0 33 32">
<title>lost_in_time_and_space</title>
<path d="M27.131 16.090c-0.771 0.227-1.618 0.369-2.28 0.807-0.707 0.465-1.383 0.918-2.080 1.429-0.691 0.504-1.493 0.606-1.932 1.398-0.439 0.781-1.038 1.458-1.503 2.285-0.559 1.005-1.024 2.201-1.71 3.083-0.394 0.515-0.707 1.181-0.913 1.857-0.136-0.521-0.419-0.868-0.63-1.444-0.217-0.585-0.278-1.21-0.672-1.7-0.554-0.701-1.059-1.585-1.488-2.452-0.212-0.137-0.404-0.309-0.545-0.531-0.146-0.247-0.238-0.524-0.323-0.802-0.434-0.509-1.095-0.57-1.408-1.165-0.151-0.136-0.313-0.267-0.49-0.403-0.66-0.51-1.443-0.727-2.129-1.085-1.63-0.849-3.113-1.241-4.849-1.569 1.689-0.344 3.486-0.934 5.076-1.686 0.691-0.323 1.467-0.519 2.129-0.984 1.035-0.721 1.665-1.13 2.255-2.275 0.484-0.949 1.318-1.979 1.998-2.76 0.394-0.444 0.227-0.55 0.444-1.085 0.212-0.519 0.495-0.832 0.63-1.307 0.207 0.611 0.519 1.217 0.913 1.68 0.686 0.802 1.151 1.887 1.71 2.795 0.465 0.747 1.064 1.363 1.503 2.074s1.241 0.807 1.932 1.261c0.696 0.465 1.373 0.878 2.080 1.302 0.661 0.394 1.509 0.524 2.28 0.727 0.373 0.101 0.778 0.186 1.191 0.262-0.413 0.080-0.818 0.181-1.191 0.287zM32.172 15.759c-0.036 0-0.076-0.005-0.121-0.005-0.262-0.061-0.53-0.101-0.807-0.132-0.344-0.080-0.666-0.177-0.868-0.236-0.953-0.304-1.907-0.48-2.88-0.677-0.812-0.167-1.928-0.318-2.639-0.776-0.54-0.354-0.958-0.969-1.559-1.277-0.444-0.231-0.868-0.262-1.231-0.606-0.167-0.161-0.384-0.382-0.576-0.564-0.55-0.519-1.125-1.186-1.629-1.776-0.531-0.616-0.293-1.408-0.828-2.069-0.344-0.424-0.762-0.741-1.115-1.16-0.359-0.424-0.369-0.545-0.47-1.009-0.146-0.656-0.273-1.387-0.514-2.080-0.015-0.040-0.031-0.080-0.045-0.12 0.040-0.253 0.075-0.5 0.005-0.783-0.111-0.45-0.293-0.988-0.369-1.488-0.019 0.005-0.040 0.005-0.059 0.005 0 0.010 0 0.014-0.005 0.025l0.005-0.025c-0.010 0-0.015 0.005-0.026 0.005-0.010 0.045-0.021 0.096-0.025 0.146-0.015 0.025-0.026 0.056-0.041 0.080 0.010 0.005 0.021 0.005 0.026 0.010-0.010 0.087-0.015 0.177-0.026 0.273-0.111 0.55-0.287 1.069-0.287 1.696 0 0.741 0 1.205-0.278 1.837-0.646 1.462-1.050 2.703-2.18 3.95-0.358 0.399-0.63 1.040-0.979 1.529-0.242 0.337-0.676 0.49-0.893 0.832-0.408 0.661-1.231 1.175-1.917 1.58-1.494 0.887-3.335 1.766-4.991 2.038-0.71 0.116-1.382 0.278-2.108 0.353-0.338 0.056-0.677 0.111-1.010 0.177-0.181 0.040-0.363 0.081-0.545 0.111-0.059 0.015-0.12 0.031-0.181 0.045 0.071 0.045 0.136 0.096 0.202 0.147 0.010 0 0.021 0 0.031 0.004 0.393 0.081 0.771 0.192 1.15 0.319 0.424 0.004 0.858 0.070 1.212 0.307 0.009 0.005 0.019 0.015 0.030 0.019 0.404 0.081 0.807 0.177 1.221 0.248 1.656 0.297 3.265 0.969 4.764 1.948 0.57 0.373 1.196 0.771 1.625 1.306 0.439 0.555 0.882 0.802 1.306 1.373 0.415 0.555 1.005 0.974 1.318 1.589 0.283 0.55 0.318 1.222 0.681 1.721 0.177 0.248 0.429 0.439 0.576 0.701 0.363 0.656 0.403 1.6 0.691 2.321 0.278 0.691 0.278 1.206 0.278 2.024 0 0.696 0.181 1.271 0.287 1.882 0.010 0.101 0.015 0.196 0.026 0.287l-0.026 0.015c0.015 0.026 0.026 0.056 0.041 0.081 0 0.009 0 0.019 0 0.035 0.045 0 0.090 0 0.13 0.005 0.087-0.51 0.248-1.045 0.349-1.503 0.070-0.313 0.035-0.585-0.005-0.868 0.014-0.045 0.030-0.090 0.045-0.132 0.242-0.762 0.368-1.569 0.514-2.295 0.101-0.51 0.111-0.646 0.47-1.115 0.353-0.465 0.771-0.812 1.115-1.277 0.535-0.726 0.297-1.604 0.828-2.285 0.504-0.646 1.079-1.382 1.629-1.958 0.192-0.201 0.409-0.444 0.576-0.62 0.363-0.384 0.787-0.415 1.231-0.672 0.601-0.337 1.019-1.019 1.559-1.403 0.71-0.509 1.826-0.681 2.639-0.858 0.974-0.217 1.927-0.413 2.88-0.747 0.262-0.090 0.727-0.242 1.186-0.338 0.121-0.014 0.243-0.035 0.368-0.056 0.087-0.009 0.167-0.014 0.253-0.014-0.005-0.036-0.005-0.071-0.010-0.101z"></path>
<path d="M24.003 7.236c-0.021 0.010-0.041 0.021-0.061 0.025-0.026 0.021-0.050 0.041-0.087 0.061-0.207 0.132-0.439 0.172-0.646 0.258-0.019 0.019-0.040 0.040-0.066 0.056-0.161 0.125-0.287 0.276-0.387 0.453 0.050 0.090 0.075 0.207 0.045 0.338-0.106 0.509-0.111 1.044-0.283 1.544-0.101 0.283-0.363 0.373-0.595 0.328-0.257 0.439-0.58 0.878-0.908 1.241-0.061 0.066-0.127 0.121-0.191 0.182-0.328 0.736-1.146 1.038-1.918 1.241-0.207 0.252-0.313 0.585-0.222 1.059 0.061 0.125 0.132 0.262 0.217 0.413-0.247-0.005 0.368 0.031 0.424 0 0.137-0.085 0.208-0.196 0.304-0.333 0.13-0.181 0.061-0.424 0.247-0.604 0.313-0.298 0.651-0.152 0.984-0.283 0.616-0.238 0.812-0.858 1.049-1.378 0.198-0.438 0.606-0.832 0.979-1.19 0.595-0.576 0.555-0.646 0.484-1.358-0.045-0.439-0.014-0.778 0.293-1.106 0.247-0.267 0.797-0.384 1.004-0.707 0.106-0.165 0.090-0.641 0.096-1.12-0.161 0.368-0.398 0.691-0.761 0.878z"></path>
<path d="M14.361 12.538c-0.278-0.448-0.611-0.403-1.095-0.524-0.636-0.167-0.828-0.495-1.146-0.988-0.358-0.561-0.287-0.717-0.938-0.979-0.424-0.177-1.292-0.177-1.62-0.484-0.248-0.232-0.056-0.394-0.151-0.656-0.087-0.252-0.389-0.413-0.571-0.575-0.424-0.384-0.771-0.687-1.297-0.939-0.12-0.056-0.247-0.101-0.373-0.141-0.025 0.035-0.056 0.075-0.090 0.111 0.035 0.045 0.061 0.090 0.090 0.13 0.415 0.187 0.722 0.479 0.969 0.842 0.081 0.056 0.161 0.111 0.248 0.172 0.459 0.328 0.278 0.581 0.358 1.060 0.076 0.464 0.243 0.509 0.672 0.757 0.242 0.136 0.766 0.313 0.913 0.559 0.318 0.524-0.187 0.505 0.524 0.701 0.453 0.121 0.731 0.338 1.115 0.535 0.278 0.151 0.677 0.182 0.944 0.368 0.53 0.373 1.16 0.939 1.544 1.413 0.196-0.045 0.056-0.061 0.278-0.368-0.217-0.101-0.212-0.741-0.373-0.995z"></path>
<path d="M13.66 17.276c-0.5-0.009-0.903-0.019-1.287 0.323-0.172 0.156-0.253 0.444-0.378 0.601-0.278 0.349-0.611 0.49-1.005 0.752-0.448 0.304-1.372 0.955-1.634 1.413-0.313 0.55-0.071 0.717-0.738 1.104-0.459 0.267-1.21 0.687-1.438 1.146-0.096 0.187-0.016 0.404-0.090 0.571-0.167 0.358-0.304 0.337-0.626 0.575-0.413 0.302-0.459 0.676-0.741 1.035-0.035 0.050-0.075 0.090-0.121 0.136 0 0 0 0 0.005 0.005 0-0.005 0-0.005 0.005-0.005 0.505-0.424 1.156-0.646 1.635-1.070 0.635-0.564 0.564-1.101 1.418-1.413 0.927-0.337 1.064-1.438 1.917-1.962 0.555-0.344 1.019-0.53 1.307-1.135 0.267-0.575 0.373-0.788 1.004-1.080 0.267-0.127 1.191-0.358 1.271-0.696 0.106-0.455-0.368-0.389-0.504-0.298z"></path>
<path d="M24.538 23.67c0.050 0.056 0.101 0.115 0.161 0.156 0.585 0.050 1.12 0.191 1.503 0.62 0.040 0.010 0.080 0.026 0.125 0.035 0.015-0.186-0.035-0.368-0.111-0.549-0.009-0.021-0.019-0.041-0.030-0.061-0.127-0.090-0.278-0.167-0.455-0.222-0.378-0.111-0.544-0.252-0.832-0.419-0.177-0.101-0.363-0.212-0.545-0.338-0.040 0.010-0.085 0.010-0.141-0.005-0.495-0.172-0.894-0.495-1.055-0.938-0.419-0.375-0.903-0.666-1.316-1.050-0.429-0.399-0.5-0.924-0.772-1.413-0.278-0.499-0.722-0.863-1.266-1.080-0.359-0.146-0.536-0.13-0.849-0.408-0.181-0.156-0.424-0.722-0.641-0.767-0.651-0.151-0.459 0.677-0.419 0.717 0.161 0.646 0.672 0.45 1.266 0.696 0.394 0.161 0.581 0.444 0.656 0.878 0.111 0.665 0.036 0.509 0.621 0.877 0.212 0.132 0.373 0.298 0.559 0.46 0.203 0.177 0.243 0.181 0.51 0.323 0.424 0.227 0.555 0.448 0.807 0.837 0.252 0.394 0.55 0.732 0.958 0.969 0.424 0.238 0.924 0.304 1.262 0.682z"></path>
<path d="M18.438 15.511c-0.58-0.292-1.070-0.747-1.368-1.271-0.226-0.248-0.424-0.51-0.59-0.788-0.807 0.611-1.427 1.534-2.341 2.104 1.054-0.009 1.776 1.368 2.094 2.114 0.625-0.797 1.321-1.644 2.205-2.16z"></path>
</svg>
