<!-- Generated by IcoMoon.io -->
<svg version="1.1" xmlns="http://www.w3.org/2000/svg" width="33" height="32" viewBox="0 0 33 32">
<title>lost_in_the_night</title>
<path d="M9.165 3.010c-0.159-0.057-0.276 0.134-0.428 0.119-0.099-0.009-0.19 0-0.289-0.002-0.075-0.002-0.159-0.038-0.232-0.029-0.126 0.017-0.256 0.156-0.293 0.274-0.027 0.086-0.014 0.103-0.071 0.172-0.11 0.132-0.256 0.245-0.392 0.351-0.128 0.099-0.225 0.214-0.304 0.342-0.048 0.077-0.080 0.15-0.117 0.245-0.040 0.11-0.086 0.152-0.15 0.238-0.11 0.145-0.082 0.384-0.080 0.553 0.002 0.165-0.040 0.338-0.066 0.501-0.025 0.181-0.079 0.346-0.020 0.52 0.020 0.062 0.033 0.137 0.068 0.192 0.024 0.038 0.163 0.126 0.176 0.135 0.123 0.101 0.21 0.229 0.326 0.337 0.071 0.066 0.126 0.079 0.152 0.174 0.018 0.079 0.033 0.139 0.064 0.218 0.051 0.124 0.097 0.251 0.163 0.375 0.088 0.161 0.185 0.293 0.344 0.371 0.231 0.115 0.481 0.231 0.737 0.284 0.049 0.011 0.132 0.004 0.181 0.024 0.046 0.018 0.029 0.027 0.071 0.059 0.068 0.049 0.185 0.095 0.252 0.117 0.077 0.027 0.132 0.027 0.216 0.020 0.159-0.013 0.236 0.037 0.388 0.077 0.108 0.029 0.214 0.040 0.32-0.004 0.099-0.042 0.174-0.055 0.284-0.082 0.163-0.040 0.247-0.126 0.373-0.22 0.132-0.097 0.242-0.196 0.346-0.324 0.084-0.102 0.113-0.099 0.236-0.159 0.070-0.033 0.135-0.097 0.214-0.091 0.017-0.084 0.097-0.079 0.126-0.154 0.025-0.060 0.020-0.157 0.031-0.223 0.011-0.075 0.018-0.15 0.033-0.223 0.018-0.095 0.079-0.121 0.117-0.192 0.018-0.035 0.007-0.070 0.027-0.106 0.020-0.038 0.073-0.066 0.099-0.099 0.055-0.070 0.068-0.132 0.077-0.216 0.009-0.086 0.006-0.148-0.017-0.231-0.014-0.055 0-0.223-0.046-0.249-0.126 0.053-0.183 0.216-0.265 0.317-0.040 0.048-0.066 0.064-0.119 0.095-0.081 0.048-0.093 0.070-0.145 0.148-0.055 0.082-0.13 0.132-0.199 0.205-0.059 0.059-0.108 0.143-0.188 0.174-0.066 0.027-0.134 0.020-0.196 0.053-0.038 0.020-0.088 0.062-0.124 0.090-0.071 0.051-0.128 0.117-0.209 0.152-0.201 0.086-0.432-0.060-0.633-0.097-0.124-0.024-0.282-0.059-0.406-0.049-0.057 0.006-0.086 0.035-0.165 0.018-0.201-0.042-0.489-0.179-0.637-0.322-0.106-0.104-0.177-0.284-0.291-0.373-0.029-0.024-0.077-0.022-0.113-0.055-0.053-0.048-0.044-0.051-0.062-0.126-0.046-0.183-0.285-0.251-0.287-0.41 0-0.132 0.044-0.284 0.064-0.413s0.014-0.203-0.040-0.326c-0.031-0.070-0.086-0.128-0.099-0.207-0.013-0.099 0.024-0.201 0.037-0.298 0.017-0.124 0.062-0.251 0.11-0.366 0.057-0.134 0.095-0.113 0.199-0.174 0.095-0.055 0.124-0.183 0.176-0.267 0.062-0.104 0.132-0.216 0.214-0.302 0.093-0.099 0.196-0.143 0.238-0.273 0.031-0.097 0.123-0.296 0.225-0.287z"></path>
<path d="M1.575 17.437h-0.027c-0.331 0-0.937 0.106-0.924-0.379 0.009-0.302 0.256-0.525 0.307-0.816 0.086-0.499-0.044-1.015-0.035-1.513 0.002-0.148 0.038-0.238 0.135-0.357 0.115-0.143 0.174-0.26 0.183-0.448 0.013-0.216-0.038-0.424-0.048-0.639-0.006-0.148 0.053-0.242 0.104-0.377 0.095-0.252 0.243-0.251 0.445-0.090 0.146 0.117 0.282 0.223 0.443 0.318 0.086 0.051 0.258 0.117 0.32 0.198 0.091 0.123 0.044 0.349 0.040 0.509-0.002 0.188-0.011 0.397 0.101 0.56 0.104 0.15 0.238 0.256 0.328 0.421 0.055 0.099 0.103 0.194 0.135 0.304 0.022 0.077 0.027 0.163 0.064 0.236 0.086 0.176 0.265 0.134 0.428 0.132 0.059 0 0.201 0.024 0.256-0.006 0.177-0.099 0.006-0.392 0-0.536-0.004-0.091-0.046-0.172-0.059-0.265-0.013-0.101-0.009-0.258-0.042-0.357-0.014-0.044-0.062-0.075-0.073-0.139-0.017-0.093-0.007-0.187-0.009-0.28 0-0.066-0.027-0.156 0.042-0.181 0.060-0.022 0.168 0.044 0.227 0.051 0.117 0.013 0.243-0.002 0.359-0.002h0.501c0.059 0 0.179-0.025 0.229-0.004 0.073 0.033 0.044 0.145 0.075 0.221 0.020 0.049 0.062 0.123 0.097 0.156 0.068 0.066 0.203 0.113 0.285 0.166 0.091 0.060 0.15 0.086 0.254 0.102 0.15 0.024 0.291 0.038 0.445 0.037 0.060-0.002 0.115 0.006 0.176-0.011 0.013-0.004 0.128-0.070 0.145-0.062 0.082 0.029 0.062 0.172 0.088 0.242 0.040 0.112 0.104 0.216 0.154 0.322 0.044 0.093 0.077 0.148 0.145 0.234 0.123 0.156 0.216 0.298 0.32 0.459 0.037 0.057 0.080 0.135 0.15 0.154 0.053-0.051 0.075-0.192 0.135-0.209 0.014 0.068 0.035 0.19 0.084 0.238 0.029 0.027 0.090 0.025 0.123 0.038 0.079 0.027 0.146 0.081 0.223 0.11 0.093 0.035 0.262 0.042 0.351-0.002 0.068-0.031 0.113-0.124 0.168-0.165 0.040 0.17 0.013 0.349 0.048 0.523 0.033 0.154 0.059 0.326 0.124 0.468 0.086 0.19 0.249 0.249 0.446 0.218 0.242-0.038 0.47-0.156 0.695-0.243 0.157-0.060 0.32-0.113 0.474-0.183 0.137-0.062 0.273-0.163 0.432-0.157 0.132 0.004 0.256 0.071 0.375 0.123 0.307 0.134 0.585 0.112 0.918 0.113 0.267 0.002 0.547-0.022 0.811-0.068 0.124-0.022 0.245-0.062 0.371-0.070 0.187-0.013 0.328 0.064 0.503 0.090 0.048 0.006 0.086-0.007 0.132-0.006 0.172 0.006 0.353 0.101 0.512 0.156 0.851 0.284 1.736 0.057 2.551-0.21 0.146-0.048 0.309-0.070 0.461-0.075 0.135-0.004 0.271 0.020 0.404-0.006 0.068-0.013 0.123-0.060 0.185-0.075 0.159-0.042 0.359-0.009 0.521-0.007 0.207 0.002 0.402-0.037 0.602-0.093 0.113-0.031 0.22-0.029 0.333-0.053 0.099-0.020 0.17-0.055 0.278-0.033 0.071 0.015 0.115 0.060 0.185 0.081 0.082 0.024 0.229 0.013 0.304 0.011 0.26-0.011 0.467-0.104 0.708-0.187 0.45-0.15 0.917-0.177 1.39-0.177 0.143 0 0.218-0.006 0.351 0.053 0.176 0.079 0.315 0.209 0.507 0.253 0.088 0.020 0.172 0.007 0.26 0.018 0.095 0.011 0.188 0.060 0.284 0.075 0.097 0.017 0.194-0.002 0.291 0.017 0.348 0.068 0.607 0.335 0.902 0.512 0.194 0.117 0.359 0.172 0.578 0.157 0.177-0.011 0.245-0.068 0.388-0.141-0.038 0.004-0.084-0.007-0.121 0-0.079 0.017-0.139 0.075-0.22 0.090-0.256 0.051-0.52 0.051-0.781 0.048-0.446-0.006-0.873 0.11-1.319 0.134-0.223 0.011-0.406-0.015-0.624-0.038-0.326-0.033-0.671-0.004-0.997-0.002-0.443 0.002-0.882-0.048-1.325-0.046-0.285 0-0.573 0-0.858 0-0.11 0-0.269-0.037-0.377 0-0.062 0.020-0.254 0.198-0.284 0.218-0.203 0.15-0.419 0.28-0.639 0.408-0.249 0.145-0.516 0.289-0.776 0.419-0.091 0.044-0.19 0.108-0.291 0.126-0.139 0.025-0.3 0.002-0.439 0.002-0.754-0.002-1.506 0-2.26 0-0.562 0-1.122 0-1.683 0-0.265 0-0.593 0.057-0.853-0.015-0.265-0.071-0.518-0.192-0.798-0.212-0.146-0.009-0.296 0.002-0.445 0.002-0.699-0.002-1.405 0.029-2.102-0.024-0.36-0.027-0.712-0.128-1.061-0.192-0.377-0.070-0.853-0.018-1.208 0.101-0.234 0.077-0.435 0.174-0.684 0.209-0.163 0.024-0.494 0.112-0.655 0.033-0.046-0.024-0.113-0.106-0.145-0.135-0.104-0.104-0.218-0.199-0.329-0.295-0.075-0.062-0.179-0.187-0.28-0.209-0.123-0.027-0.306 0.015-0.43 0.017-0.329 0.002-0.602-0.007-0.918 0.066-0.119 0.027-0.258 0.079-0.381 0.073-0.088-0.006-0.146-0.068-0.221-0.112-0.229-0.135-0.419-0.121-0.671-0.119z"></path>
<path d="M21.372 25.943c-0.157-0.216-0.315-0.452-0.399-0.708-0.128-0.384-0.229-0.774-0.329-1.165-0.084-0.331-0.172-0.66-0.262-0.99-0.040-0.172-0.081-0.344-0.119-0.514-0.016-0.156-0.016-0.298-0.051-0.45-0.053-0.24-0.15-0.472-0.192-0.715-0.038-0.231-0.11-0.346-0.242-0.543-0.172-0.256-0.331-0.52-0.512-0.768-0.163-0.227-0.302-0.393-0.413-0.655-0.13-0.3-0.183-0.556-0.176-0.875 0.002-0.106-0.009-0.36 0.091-0.423-0.441-0.457-0.948-0.962-1.187-1.561-0.086-0.212-0.079-0.395-0.079-0.62 0.002-0.329-0.002-0.661-0.002-0.99-0.22 0.037-0.443 0.057-0.673 0.064-0.113 0.004-0.209-0.022-0.293-0.062-0.166 0.188-0.333 0.377-0.448 0.6-0.128 0.249-0.263 0.505-0.344 0.774-0.048 0.157-0.033 0.307-0.112 0.452-0.093 0.174-0.185 0.368-0.26 0.547-0.097 0.227-0.209 0.395-0.37 0.589-0.128 0.157-0.218 0.344-0.357 0.492-0.055 0.060-0.124 0.084-0.166 0.148-0.066 0.104-0.044 0.251-0.042 0.364 0.002 0.183 0.027 0.377-0.051 0.549-0.088 0.192-0.24 0.382-0.362 0.553-0.137 0.192-0.318 0.333-0.463 0.514-0.086 0.108-0.22 0.123-0.309 0.242-0.106 0.141-0.273 0.212-0.401 0.329-0.102 0.090-0.134 0.132-0.13 0.262 0.004 0.163 0 0.328 0.002 0.49 0 0.188 0.016 0.309-0.062 0.474-0.088 0.187-0.139 0.465-0.304 0.607-0.038 0.033-0.090 0.037-0.119 0.062-0.064 0.053-0.106 0.218-0.128 0.289-0.060 0.194-0.123 0.37-0.223 0.551-0.073 0.132-0.154 0.278-0.245 0.399-0.121 0.163-0.311 0.28-0.454 0.424 0.033-0.035-0.203 0.196-0.218 0.227-0.038 0.071-0.009 0.194-0.009 0.269 0 0.086 0.013 0.187-0.002 0.271-0.018 0.112-0.093 0.209-0.123 0.318-0.060 0.227-0.115 0.392-0.091 0.626 0.013 0.113 0.075 0.337 0.038 0.463-0.025 0.093-0.137 0.132-0.207 0.199-0.060 0.059-0.126 0.135-0.198 0.177-0.044 0.027-0.102 0.029-0.139 0.071 0.525 0.002 0.807 0.203 1.041 0.329 0.322 0.174 0.615 0.384 0.944 0.549 0.263 0.132 0.512 0.221 0.798 0.291 0.258 0.042 0.512 0.095 0.763 0.157 0.132 0.027 0.262 0.062 0.39 0.104 0.274 0.044 0.534 0.006 0.807-0.038 0.309-0.048 0.606-0.099 0.9-0.212 0.403-0.157 0.807-0.278 1.23-0.359 0.413-0.079 0.807-0.145 1.191-0.331 0.492-0.236 0.986-0.454 1.513-0.598 0.366-0.101 0.732-0.086 1.065-0.26 0.203-0.095 0.39-0.214 0.562-0.359 0.057-0.046 0.113-0.093 0.17-0.139 0.086-0.154-0.166-0.392-0.24-0.492z"></path>
<path d="M31.695 17.558c0.088-0.677 0.207-1.345 0.278-2.024 0.015-0.152 0.037-0.306 0.026-0.456-0.016-0.242-0.095-0.467-0.101-0.71-0.006-0.223-0.002-0.47-0.091-0.675-0.075-0.172-0.344-0.39-0.461-0.52-0.146-0.166-0.331-0.349-0.43-0.553-0.112-0.227-0.263-0.448-0.32-0.692-0.082-0.353-0.227-0.692-0.342-1.036-0.048-0.141-0.168-0.282-0.243-0.393-0.117-0.17-0.249-0.344-0.355-0.521-0.097-0.165-0.234-0.439-0.216-0.637 0.013-0.143 0.093-0.291 0.134-0.43 0.051-0.176 0.113-0.344 0.123-0.529 0.016-0.285-0.018-0.554-0.082-0.831-0.11-0.468-0.304-0.918-0.448-1.376-0.095-0.298-0.221-0.624-0.368-0.9-0.090-0.033-0.176-0.080-0.251-0.145-0.41-0.348-0.748-0.743-1.008-1.191-0.461 0.038-0.922 0.068-1.383 0.084-0.040 0.123-0.070 0.251-0.077 0.375-0.004 0.059 0.033 0.185 0.016 0.236-0.040 0.123-0.243 0.216-0.337 0.291-0.188 0.15-0.375 0.3-0.575 0.435-0.152 0.104-0.307 0.201-0.457 0.307-0.102 0.071-0.179 0.108-0.181 0.236-0.002 0.119 0.006 0.22-0.033 0.335-0.117 0.338-0.399 0.633-0.549 0.959-0.022 0.046-0.040 0.103-0.060 0.148-0.066 0.159-0.081 0.28-0.079 0.448 0.002 0.203 0.011 0.41 0.004 0.611-0.006 0.137-0.091 0.251-0.099 0.381-0.002 0.048 0.016 0.079 0 0.124-0.027 0.081-0.146 0.115-0.218 0.15-0.143 0.068-0.263 0.124-0.388 0.22-0.177 0.137-0.338 0.145-0.551 0.179-0.177 0.031-0.353 0.062-0.527 0.113-0.082 0.024-0.128 0.084-0.203 0.113-0.086 0.033-0.152-0.006-0.19 0.088-0.011 0.029 0.006 0.154 0.006 0.176 0 0.126 0 0.254 0 0.381-0.002 0.426 0.011 0.845-0.102 1.264-0.070 0.254-0.152 0.36-0.287 0.547-0.026 0.035-0.179 0.22-0.199 0.302-0.048 0.177 0.068 0.417 0.139 0.578 0.062 0.141 0.099 0.298 0.19 0.424 0.093 0.128 0.121 0.212 0.172 0.36 0.099 0.284 0.21 0.607 0.229 0.906 0.013 0.209 0.020 0.479-0.018 0.686-0.060 0.309-0.205 0.582-0.28 0.88-0.026 0.095-0.055 0.254-0.016 0.353 0.015 0.040 0.062 0.079 0.084 0.117 0.040 0.075 0.051 0.139 0.068 0.227 0.13 0.736 0.066 1.541 0.066 2.287 0 0.556 0.048 1.131-0.022 1.683-0.037 0.304-0.055 0.602-0.099 0.906-0.027 0.201-0.084 0.39-0.135 0.584-0.095 0.364-0.112 0.787-0.154 1.16-0.055 0.52-0.102 1.041-0.157 1.561-0.022 0.221-0.018 0.439-0.018 0.662 0 0.084-0.046 0.302 0.006 0.399l-0.639-0.681c-0.097 0.113-0.231 0.174-0.351 0.256-0.194 0.132-0.415 0.209-0.609 0.342-0.117 0.081-0.238 0.159-0.351 0.24-0.152 0.106-0.256 0.291-0.421 0.381-0.053 0.029-0.166 0.031-0.201 0.088-0.022 0.033-0.006 0.088-0.006 0.124-0.002 0.139-0.040 0.338-0.006 0.468-0.015 0.060 0.007 0.099 0.066 0.113 0.062 0.024 0.123 0.051 0.181 0.079 0.134 0.038 0.282 0.029 0.419 0.033 0.177 0.004 0.598-0.091 0.745 0.081 0.223 0.258 0.432 0.551 0.629 0.836 0.040 0.11 0.121 0.166 0.242 0.17 0.174 0.018 0.344 0.046 0.512 0.084 0.086 0.027 0.17 0.064 0.256 0.091 0.342 0.104 0.631 0.108 0.964-0.044 0.229-0.106 0.302-0.22 0.445-0.417 0.077-0.086 0.152-0.174 0.22-0.265 0.013-0.033 0.024-0.068 0.035-0.101 0.071-0.134 0.229-0.207 0.373-0.221 0.020 0 0.040 0.002 0.060 0.004 0.262 0.033 0.525 0.055 0.79 0.068 0.335 0.007 0.432-0.006 0.699-0.081 0.254-0.071 0.518-0.124 0.77-0.21 0.070-0.024 0.13-0.046 0.188-0.090 0.119-0.088 0.181-0.221 0.315-0.3 0.135-0.079 0.234-0.161 0.346-0.274 0.172-0.177 0.368-0.313 0.551-0.47 0.117-0.099 0.199-0.221 0.249-0.37 0.117-0.198 0.209-0.408 0.273-0.629 0.053-0.242 0-0.456 0.022-0.695 0.059-0.684 0.523-1.182 1.014-1.628 0.428-0.39 0.915-0.629 1.401-0.928 0.199-0.123 0.395-0.229 0.503-0.432 0.126-0.238 0.236-0.47 0.395-0.686 0.055-0.073 0.102-0.137 0.137-0.225 0.068-0.172 0.097-0.335 0.177-0.512 0.071-0.159 0.17-0.3 0.203-0.472 0.029-0.157 0.007-0.349 0.004-0.507-0.006-0.309-0.027-0.615-0.059-0.922-0.024-0.223-0.059-0.452-0.026-0.675 0.015-0.099 0.027-0.062 0.057-0.284z"></path>
</svg>
