<!-- Generated by IcoMoon.io -->
<svg version="1.1" xmlns="http://www.w3.org/2000/svg" width="32" height="32" viewBox="0 0 32 32">
<title>machinations_through_time</title>
<path d="M19.673 16.625c-0.003-0.243 0.059-0.511 0.183-0.727 0.106-0.184 0.301-0.37 0.618-0.712 0.135-0.023 0.274-0.072 0.405-0.119 0.204-0.070 0.395-0.062 0.607-0.059 0.18 0.001 0.333 0.076 0.497 0.125 0.065 0.020 0.161 0.076 0.219 0.11 0.081 0.047 0.233 0.119 0.295 0.183 0.058 0.059 0.163 0.242 0.201 0.326 0.075 0.163 0.163 0.326 0.208 0.51 0.056 0.221 0.026 0.464 0.026 0.692 0 0.201 0.015 0.382-0.050 0.575-0.044 0.134-0.113 0.211-0.19 0.321-0.119 0.166-0.149 0.38-0.271 0.542-0.214 0.288-0.657 0.342-0.978 0.403-0.295 0.056-0.747-0.058-0.972-0.268-0.075-0.070-0.117-0.195-0.19-0.284-0.114-0.141-0.195-0.277-0.292-0.438-0.116-0.19-0.266-0.399-0.312-0.624-0.035-0.17-0.002-0.38-0.003-0.554zM18.943 21.123c0 0.611-0.012 1.208-0.058 1.818-0.018 0.249-0.084 0.49-0.108 0.739-0.014 0.149-0.014 0.336-0.076 0.475-0.050-0.129-0.076-0.268-0.12-0.4-0.116-0.35-0.3-0.672-0.443-1.010-0.16-0.376-0.356-0.726-0.469-1.126-0.076-0.274-0.119-0.552-0.213-0.82-0.040-0.116-0.388-0.853-0.447-0.831-0.043 0.114-0.012 0.286-0.011 0.409 0.002 0.189-0.044 0.345-0.061 0.528-0.015 0.167 0.002 0.348 0.005 0.516 0.002 0.275-0.049 0.551-0.087 0.823-0.075 0.546-0.28 1.077-0.315 1.631-0.018 0.297-0.158 0.595-0.265 0.872-0.049 0.126-0.141 0.765-0.295 0.809-0.193-0.323-0.169-0.701-0.11-0.523-0.096-0.288-0.211-0.538-0.374-0.796-0.154-0.243-0.303-0.455-0.367-0.742-0.064-0.291-0.075-0.639-0.079-0.936-0.005-0.316 0.055-0.618 0.062-0.933 0.008-0.303-0.002-0.608-0.003-0.913 0-0.138 0.038-0.368-0.011-0.507-0.075 0.029-0.202 0.298-0.256 0.386-0.032 0.052-0.050 0.094-0.076 0.146-0.024 0.047-0.055 0.076-0.081 0.119-0.164 0.271-0.297 0.625-0.377 0.949-0.087 0.351-0.103 0.7-0.216 1.048-0.058 0.184-0.111 0.327-0.14 0.522-0.017 0.105-0.023 0.224-0.049 0.324-0.023 0.093-0.076 0.164-0.111 0.253-0.040 0.097-0.049 0.438-0.172 0.461-0.067-0.050-0.032-0.081-0.061-0.143-0.032-0.070-0.072-0.137-0.11-0.207-0.082-0.155-0.122-0.318-0.224-0.461-0.291-0.405-0.499-0.864-0.607-1.36-0.068-0.313-0.131-0.662-0.067-0.984 0.099-0.505 0.397-0.937 0.525-1.433 0.076-0.297 0.17-0.587 0.263-0.878 0.037-0.117 0.049-0.245 0.11-0.345 0.391-0.157 0.423-0.266 0.523-0.301 0.094-0.032 0.222 0.031 0.309 0.065 0.567 0.224 1.15 0.295 1.751 0.295 0.216 0 0.443 0.023 0.651-0.027 0.18-0.044 0.356-0.131 0.538-0.155 0.326-0.044 0.663 0.021 0.993-0.026 0.099-0.015 0.35-0.090 0.429 0.043 0.026 0.043 0.003 0.091 0.008 0.138 0.006 0.090 0.024 0.163 0.044 0.253 0.040 0.173 0.056 0.339 0.076 0.517 0.037 0.326 0.114 0.648 0.155 0.975 0.032 0.243 0.012 0.496 0.012 0.742zM18.027 28.987c-0.18 0.137-0.426 0.167-0.624 0.271-0.176 0.093-0.341 0.211-0.517 0.301-0.175 0.090-0.379 0.073-0.566 0.113-0.148 0.032-0.289 0.029-0.441 0.029-0.266 0-0.532-0.002-0.8 0-0.17 0.002-0.227 0.014-0.364-0.081-0.088-0.061-0.173-0.128-0.269-0.172-0.094-0.043-0.291-0.055-0.788-0.281 0.005-0.084 0.079-0.17 0.11-0.249 0.099-0.253 0.175-0.51 0.303-0.75 0.11-0.204 0.246-0.38 0.336-0.593 0.075-0.175 0.128-0.354 0.195-0.532 0.046-0.119 0.123-0.236 0.141-0.362 0.011-0.082-0.008-0.161 0.006-0.242 0.029-0.164 0.053-0.269 0.052-0.444-0.015 0.137 0.076 0.257 0.125 0.377 0.052 0.128 0.135 0.234 0.183 0.362 0.031 0.082 0.032 0.152 0.050 0.239 0.078 0.37 0.213 0.713 0.216 1.103 0.002 0.192-0.044 0.434-0.005 0.619 0.035 0.167 0.119 0.103 0.233 0.072 0.099-0.029 0.199 0 0.3-0.024 0.294-0.073 0.335-0.42 0.443-0.669 0.075-0.17 0.113-0.342 0.146-0.526 0.011-0.061 0.006-0.167 0.024-0.222 0.008-0.024 0.043-0.050 0.046-0.065 0.038-0.169 0.020-0.353 0.056-0.529 0.029-0.14 0.072-0.263 0.073-0.406 0.002-0.129-0.005-0.243 0.027-0.362 0.024-0.094-0.008-0.319 0.067-0.392 0.26 0.155 0.481 0.441 0.348 0.315 0.236 0.224 0.417 0.35 0.516 0.663 0.058 0.184 0.172 0.335 0.23 0.517 0.038 0.12 0.041 0.25 0.076 0.364 0.053 0.178 0.189 0.3 0.234 0.488 0.044 0.175 0.097 0.333 0.102 0.513 0.006 0.23-0.081 0.421-0.263 0.56zM9.861 18.121c-0.181-0.072-0.431-0.128-0.552-0.292-0.078-0.102-0.125-0.253-0.187-0.364-0.052-0.093-0.072-0.16-0.099-0.265-0.062-0.237-0.014-0.464-0.055-0.703-0.037-0.207-0.065-0.412-0.049-0.63 0.021-0.291 0.195-0.654 0.415-0.835 0.135-0.111 0.318-0.131 0.103-0.473 0.076-0.196 0.193-0.295 0.391-0.298 0.239-0.005 0.479 0.002 0.72 0.002 0.096 0 0.23-0.027 0.321-0.005 0.085 0.021 0.155 0.084 0.236 0.12 0.187 0.087 0.371 0.181 0.543 0.301 0.123 0.088 0.090 0.094 0.158 0.23 0.106 0.208 0.202 0.362 0.249 0.601 0.103 0.525 0.076 0.993-0.059 1.498-0.050 0.187-0.12 0.344-0.201 0.517-0.113 0.242-0.216 0.303-0.453 0.414-0.435 0.202-1.013 0.365-1.482 0.181zM30.634 28.952c-0.108-0.037-0.26-0.006-0.376-0.006-0.237 0-0.475-0.002-0.712 0-0.3 0.002-0.59-0.038-0.888-0.046-0.356-0.009-0.701-0.012-1.051-0.090-0.339-0.075-0.665-0.125-0.989-0.266-0.161-0.072-0.335-0.097-0.5-0.151-0.163-0.052-0.336-0.084-0.502-0.137-0.239-0.075-0.507-0.114-0.739-0.207-0.231-0.093-0.47-0.21-0.694-0.326-0.233-0.123-0.417-0.312-0.637-0.455-0.163-0.105-0.31-0.222-0.458-0.351-0.143-0.125-0.341-0.28-0.458-0.44-0.064-0.085-0.102-0.176-0.17-0.26-0.132-0.158-0.28-0.307-0.4-0.476-0.018-0.024-0.034-0.052-0.052-0.078 0.053-0.351 0.096-0.709 0.137-1.060 0.141-1.2 0.298-2.486 0.926-3.538 0.084-0.14 0.141-0.333 0.246-0.452 0.068-0.076 0.135-0.085 0.214-0.134 0.093-0.058 0.172-0.137 0.266-0.195 0.164-0.102 0.202-0.201 0.295-0.373 0.106-0.201 0.248-0.388 0.315-0.608 0.119-0.395 0.167-0.835 0.18-1.244 0.018-0.71 0.181-1.477-0.126-2.149-0.138-0.3-0.326-0.531-0.543-0.774-0.234-0.259-0.313-0.307-0.616-0.44-0.055-0.026-0.097-0.053-0.149-0.085-0.082-0.050-0.198-0.072-0.271-0.123-0.123-0.087-0.187-0.249-0.249-0.385-0.082-0.181-0.198-0.341-0.275-0.522-0.067-0.155-0.094-0.321-0.169-0.475-0.169-0.348-0.269-0.917-0.14-1.295 0.214-0.627 0.692-1.077 1.048-1.617 0.135-0.202 0.184-0.462 0.289-0.683 0.163-0.339 0.155-0.776 0.17-1.15 0.015-0.389-0.015-0.777 0.031-1.164 0.043-0.356 0.090-0.706 0.091-1.065 0.002-0.183 0.009-0.365-0.011-0.548-0.020-0.184-0.084-0.353-0.128-0.532-0.097-0.405-0.14-0.821-0.208-1.232-0.041-0.249-0.143-0.466-0.231-0.701-0.116-0.312-0.208-0.688-0.225-1.316-0.002 0.761 0.125 1.511 0.186 2.27 0.027 0.347 0.105 0.796 0.047 1.149-0.029 0.178-0.146 0.332-0.175 0.517-0.029 0.184-0.047 0.309-0.126 0.482-0.076 0.164-0.17 0.333-0.208 0.513-0.038 0.173-0.050 0.342-0.108 0.513-0.146 0.432-0.289 0.856-0.473 1.27-0.047 0.105-0.067 0.254-0.128 0.353-0.043 0.068-0.111 0.116-0.158 0.183-0.11 0.149-0.192 0.316-0.303 0.467-0.082 0.108-0.151 0.227-0.228 0.339-0.085 0.126-0.16 0.202-0.269 0.309-0.119 0.114-0.309 0.376-0.47 0.405-0.138 0.023-0.146-0.072-0.228-0.166-0.079-0.090-0.18-0.163-0.262-0.254-0.111-0.125-0.119-0.246-0.195-0.386-0.1-0.184-0.275-0.132-0.452-0.19-0.14-0.047-0.277-0.1-0.42-0.143-0.064-0.018-0.126-0.032-0.189-0.050-0.1-0.029-0.202-0.031-0.31-0.055-0.386-0.088-0.764-0.211-1.162-0.228-0.595-0.023-1.196 0.002-1.792 0.002-0.186 0-0.5-0.046-0.677 0.041-0.102 0.052-0.161 0.161-0.236 0.257-0.082 0.105-0.14 0.213-0.225 0.307-0.14 0.157-0.284 0.268-0.475 0.345-0.131 0.053-0.251 0.078-0.374 0.161-0.082 0.056-0.208 0.183-0.309 0.198-0.166 0.023-0.344-0.151-0.47-0.227-0.152-0.090-0.275-0.132-0.405-0.262-0.137-0.137-0.257-0.291-0.386-0.435-0.134-0.151-0.231-0.286-0.329-0.462-0.082-0.152-0.208-0.262-0.287-0.408-0.061-0.111-0.088-0.298-0.138-0.417-0.064-0.128-0.114-0.262-0.152-0.402-0.003-0.076-0.009-0.152-0.018-0.227-0.062-0.248-0.207-0.476-0.263-0.724-0.099-0.438-0.192-0.878-0.295-1.314-0.055-0.225-0.141-0.426-0.214-0.645-0.143-0.424-0.249-0.89-0.291-1.339-0.044-0.484-0.129-0.955-0.126-1.442 0.002-0.087-0.005-0.176-0.002-0.263 0.006-0.116 0.037-0.119 0.062-0.208 0.032-0.111-0.003-0.291-0.003-0.406 0-0.073 0.012-0.164-0.009-0.231-0.26 0.362-0.151 0.925-0.231 1.348-0.105 0.557-0.19 1.123-0.246 1.687-0.034 0.33-0.129 0.663-0.145 0.995-0.017 0.312 0.002 0.63 0.002 0.942 0.002 0.479-0.056 0.939-0.056 1.419 0 0.427 0.003 0.856-0.002 1.284-0.003 0.341 0.058 0.636 0.132 0.964 0.043 0.184 0.041 0.382 0.102 0.56 0.052 0.151 0.152 0.292 0.21 0.444 0.073 0.19 0.164 0.376 0.231 0.567 0.122 0.35 0.246 0.694 0.371 1.040 0.047 0.134 0.067 0.271 0.114 0.411 0.037 0.108 0.125 0.35 0.094 0.458-0.157-0.084-0.339-0.246-0.514-0.286-0.164-0.037-0.385 0.002-0.555 0.005-0.236 0.005-0.418 0.198-0.586 0.359-0.135 0.129-0.272 0.167-0.373 0.327-0.116 0.181-0.288 0.313-0.385 0.502-0.041 0.078-0.079 0.141-0.126 0.214-0.091 0.143-0.108 0.307-0.175 0.456-0.126 0.272-0.243 0.535-0.344 0.815-0.046 0.128-0.129 0.228-0.144 0.365-0.017 0.146-0.008 0.271-0.040 0.417-0.047 0.225-0.046 0.464-0.12 0.675-0.106 0.304-0.088 0.656-0.021 0.969 0.099 0.467 0.447 0.811 0.818 1.077 0.161 0.116 0.388 0.126 0.453 0.318 0.094 0.281 0.046 0.595 0.085 0.893 0.056 0.415 0.18 0.811 0.26 1.22 0.059 0.31 0.122 0.615 0.216 0.916 0.152 0.49 0.374 0.881 0.662 1.305 0.187 0.275 0.376 0.561 0.511 0.87 0.132 0.303 0.225 0.621 0.351 0.926-0.006 0.008-0.012 0.018-0.018 0.026-0.207 0.277-0.429 0.459-0.677 0.689-0.277 0.256-0.493 0.573-0.774 0.826-0.397 0.359-0.933 0.592-1.436 0.73-0.28 0.078-0.555 0.145-0.834 0.234-0.236 0.076-0.479 0.148-0.723 0.196-0.246 0.047-0.499 0.056-0.742 0.122-0.37 0.097-0.73 0.126-1.112 0.125-0.143-0.002-0.289 0.009-0.432 0.003-0.111-0.005-0.202-0.052-0.304-0.094-0.029-0.012-0.11-0.067-0.14-0.078-0.084-0.027-0.154-0.015-0.224-0.084-0.129 0.154 0.065 0.455 0.154 0.581 0.122 0.176 0.179 0.374 0.341 0.523 0.113 0.103 0.251 0.167 0.37 0.262 0.164 0.132 0.342 0.183 0.534 0.266 0.291 0.129 0.575 0.16 0.887 0.211 0.301 0.049 0.607 0.099 0.911 0.135 0.234 0.027 0.475 0.008 0.709 0.009 0.356 0 0.713-0.011 1.069-0.003 0.339 0.008 0.674 0.050 1.015 0.049 0.581-0.005 1.193 0.065 1.765-0.052 0.476-0.096 0.904-0.236 1.298-0.526 0.012-0.009 0.024-0.020 0.037-0.027 0.176 0.388 0.379 0.776 0.642 1.082 0.351 0.408 0.931 0.318 1.419 0.324 0.695 0.008 1.392 0 2.087 0.006 0.341 0.002 0.674-0.003 1.010-0.070 0.224-0.046 0.453-0.088 0.681-0.108 0.26-0.021 0.555-0.035 0.812 0.003 0.176 0.026 0.35 0.078 0.526 0.1 0.18 0.021 0.367 0.011 0.545 0.012 0.065 0 0.175 0.026 0.237 0.002 0.141-0.058 0.125-0.321 0.161-0.472 0.094-0.37 0.274-0.715 0.441-1.059 0.085 0.040 0.172 0.079 0.259 0.122 0.149 0.078 0.3 0.151 0.456 0.21 0.105 0.040 0.218 0.052 0.318 0.103 0.163 0.085 0.294 0.178 0.469 0.234 0.243 0.079 0.481 0.145 0.71 0.251 0.14 0.064 0.312 0.073 0.462 0.113 0.54 0.145 1.101 0.204 1.649 0.312 0.288 0.058 0.554 0.061 0.846 0.062 0.231 0.002 0.431-0.058 0.656-0.081 0.315-0.034 0.624-0.003 0.937-0.065 0.329-0.064 0.66-0.119 0.986-0.198 0.289-0.070 0.545-0.193 0.818-0.3 0.336-0.132 0.726-0.335 0.993-0.584 0.082-0.076 0.155-0.163 0.231-0.243 0.053-0.055 0.167-0.143 0.208-0.214 0.032-0.056 0.035-0.11 0.021-0.178z"></path>
</svg>
