<!-- Generated by IcoMoon.io -->
<svg version="1.1" xmlns="http://www.w3.org/2000/svg" width="39" height="32" viewBox="0 0 39 32">
<title>maddening_delusions</title>
<path d="M23.17 19.068c0.036 0.157 0.029 0.336 0.057 0.497 0.030 0.175 0.145 0.423 0.228 0.577 0.11 0.2 0.211 0.264 0.398 0.374 0.113 0.066 0.336 0.075 0.407 0.182 0.030 0.047 0.048 0.17 0.059 0.227 0.036 0.179 0.050 0.369 0.050 0.547 0.003 0.399-0.017 0.799 0.018 1.198 0.042 0.467 0.078 0.925 0.113 1.394 0.018 0.237 0.102 0.452 0.155 0.681 0.062 0.27 0.029 0.54 0.039 0.814 0.011 0.264 0.056 0.53 0.057 0.791 0.002 0.241-0.045 0.497-0.017 0.74 0.026 0.206 0.066 0.413 0.077 0.625 0.011 0.225-0.029 0.393-0.108 0.602-0.085 0.217-0.139 0.454-0.219 0.669-0.071 0.197-0.209 0.351-0.261 0.561-0.074 0.306-0.339 0.681-0.25 1.007 0.131 0.481 0.61 0.811 1.072 0.913 0.288 0.065 0.473 0.035 0.684-0.182 0.249-0.258 0.354-0.645 0.403-0.986 0.051-0.375 0.087-0.766 0.018-1.146-0.020-0.111-0.047-0.188-0.042-0.304 0.005-0.096 0.015-0.16 0.006-0.259-0.024-0.243-0.062-0.475-0.121-0.711-0.095-0.39-0.139-0.797-0.235-1.191-0.039-0.16-0.071-0.344-0.086-0.509-0.017-0.202 0.011-0.401 0.009-0.6 0-0.152-0.035-0.288-0.017-0.442 0.018-0.157 0.038-0.297 0.030-0.455-0.008-0.131-0.063-0.23-0.071-0.357-0.009-0.12 0.009-0.175-0.027-0.303-0.021-0.074-0.020-0.128-0.023-0.205-0.009-0.179-0.017-0.368-0.032-0.547-0.030-0.324-0.045-0.642-0.102-0.968-0.071-0.392-0.125-0.779-0.047-1.18 0.097-0.485 0.121-0.977 0.372-1.415 0.072-0.124 0.133-0.271 0.229-0.377 0.11-0.12 0.273-0.202 0.38-0.327 0.083-0.099 0.053-0.179 0.084-0.277 0.059-0.173 0.223-0.134 0.342-0.069 0.389 0.21 0.764 0.571 1.223 0.425 0.167-0.055 0.398-0.137 0.537 0.009 0.164 0.173 0.122 0.485 0.122 0.699 0 0.288-0.041 0.588-0.119 0.868-0.039 0.145-0.146 0.27-0.217 0.401-0.092 0.172-0.095 0.372-0.178 0.546-0.077 0.159-0.086 0.256-0.063 0.439 0.023 0.17 0.121 0.312 0.223 0.443 0.196 0.246 0.488 0.683 0.829 0.712 0.323 0.026 0.523-0.393 0.597-0.66 0.080-0.294 0.222-0.585 0.267-0.886 0.053-0.347 0.056-0.702 0.102-1.051 0.039-0.28 0.038-0.552 0.072-0.828 0.027-0.224-0.003-0.442-0.053-0.659-0.081-0.356-0.172-0.721-0.178-1.082-0.003-0.127 0.017-0.251 0.020-0.38 0.003-0.163-0.059-0.311-0.048-0.473 0.014-0.197 0.048-0.392 0.063-0.586 0.035-0.437 0.066-0.913-0.092-1.333-0.155 0.336-0.366 0.602-0.665 0.793-0.148 0.095-0.306 0.197-0.466 0.267-0.078 0.035-0.152 0.030-0.234 0.056-0.13 0.039-0.246 0.14-0.374 0.19-0.717 0.28-1.165 0.984-1.877 1.269-0.155 0.063-0.294 0.113-0.439 0.206-0.137 0.089-0.298 0.131-0.436 0.211-0.191 0.112-0.324 0.323-0.565 0.382-0.259 0.065-0.534 0.060-0.793 0.138-0.118 0.035-0.228 0.090-0.35 0.127-0.155 0.045-0.314 0.14-0.541 0.166z"></path>
<path d="M15.675 17.98c-0.036 0.12-0.029 0.256-0.056 0.38-0.029 0.133-0.14 0.323-0.22 0.439-0.107 0.154-0.203 0.2-0.386 0.283-0.108 0.050-0.326 0.054-0.393 0.136-0.030 0.035-0.047 0.131-0.059 0.175-0.033 0.137-0.047 0.282-0.048 0.417-0.002 0.306 0.018 0.612-0.017 0.916-0.041 0.357-0.077 0.709-0.11 1.067-0.017 0.181-0.098 0.344-0.149 0.518-0.060 0.206-0.029 0.413-0.039 0.623-0.011 0.202-0.054 0.405-0.056 0.604-0.002 0.185 0.045 0.382 0.017 0.567-0.024 0.159-0.065 0.316-0.074 0.478-0.011 0.172 0.027 0.301 0.105 0.461 0.081 0.167 0.134 0.348 0.211 0.514 0.070 0.151 0.204 0.27 0.252 0.431 0.072 0.235 0.33 0.524 0.244 0.772-0.127 0.368-0.591 0.615-1.040 0.69-0.279 0.047-0.457 0.026-0.662-0.145-0.241-0.2-0.344-0.497-0.389-0.758-0.051-0.286-0.086-0.587-0.020-0.876 0.020-0.086 0.047-0.145 0.042-0.234-0.005-0.074-0.017-0.12-0.006-0.197 0.024-0.185 0.060-0.363 0.116-0.543 0.093-0.3 0.134-0.609 0.229-0.909 0.038-0.124 0.069-0.264 0.083-0.389 0.017-0.157-0.012-0.307-0.011-0.461 0.002-0.116 0.035-0.219 0.018-0.338-0.018-0.119-0.038-0.227-0.030-0.348 0.008-0.099 0.062-0.175 0.070-0.271 0.009-0.093-0.009-0.134 0.026-0.232 0.021-0.057 0.018-0.098 0.023-0.157 0.009-0.137 0.015-0.28 0.030-0.419 0.029-0.247 0.044-0.49 0.099-0.74 0.068-0.297 0.122-0.594 0.045-0.901-0.093-0.372-0.116-0.748-0.362-1.085-0.069-0.096-0.128-0.21-0.222-0.291-0.105-0.092-0.264-0.157-0.366-0.253-0.083-0.077-0.051-0.137-0.083-0.213-0.057-0.134-0.216-0.106-0.332-0.057-0.377 0.159-0.74 0.431-1.183 0.315-0.163-0.044-0.386-0.107-0.522 0.004-0.158 0.131-0.118 0.369-0.118 0.534 0 0.22 0.039 0.451 0.115 0.666 0.039 0.11 0.143 0.206 0.211 0.307 0.089 0.131 0.092 0.285 0.173 0.419 0.074 0.122 0.083 0.198 0.060 0.336-0.021 0.13-0.116 0.238-0.217 0.336-0.19 0.187-0.472 0.52-0.802 0.538-0.313 0.017-0.508-0.304-0.577-0.509-0.078-0.226-0.216-0.451-0.261-0.681-0.051-0.265-0.053-0.538-0.099-0.803-0.036-0.216-0.036-0.422-0.069-0.635-0.026-0.172 0.003-0.337 0.051-0.503 0.078-0.271 0.166-0.55 0.173-0.826 0.002-0.098-0.017-0.193-0.020-0.291-0.005-0.124 0.057-0.237 0.047-0.362-0.014-0.151-0.047-0.3-0.062-0.449-0.033-0.335-0.065-0.699 0.089-1.019 0.151 0.259 0.356 0.463 0.645 0.612 0.142 0.074 0.295 0.154 0.451 0.208 0.075 0.026 0.148 0.026 0.226 0.045 0.127 0.030 0.238 0.109 0.362 0.148 0.696 0.22 1.13 0.763 1.818 0.987 0.152 0.050 0.287 0.089 0.425 0.161 0.134 0.071 0.291 0.104 0.424 0.166 0.185 0.087 0.313 0.249 0.546 0.297 0.252 0.052 0.518 0.052 0.77 0.113 0.113 0.026 0.22 0.071 0.338 0.099 0.151 0.035 0.304 0.11 0.524 0.131z"></path>
<path d="M9.095 15.579c0.051 0.057 0.015 0.117 0.014 0.195-0.003 0.122 0.005 0.256 0.008 0.378 0.009 0.259-0.029 0.52-0.041 0.781-0.017 0.351 0.060 0.689 0.125 1.027 0.051 0.262 0.015 0.57-0.003 0.835-0.015 0.203-0.017 0.412-0.065 0.612-0.042 0.179-0.187 0.283-0.247 0.446-0.121 0.323 0.056 0.663 0.14 0.977 0.024 0.092 0.008 0.149 0.015 0.235 0.011 0.109 0.080 0.159 0.122 0.25 0.042 0.090 0.015 0.176 0.036 0.267 0.026 0.109 0.118 0.206 0.17 0.311 0.191 0.372 0.393 0.718 0.6 1.078 0.167 0.293 0.351 0.534 0.446 0.856 0.065 0.217 0.11 0.434-0.012 0.63-0.063 0.101-0.143 0.259-0.231 0.339-0.069 0.063-0.197 0.101-0.286 0.137-0.283 0.116-0.502 0.074-0.662-0.189-0.068-0.111-0.137-0.202-0.176-0.33-0.014-0.044-0.018-0.087-0.033-0.133-0.041-0.124-0.045-0.219-0.072-0.34-0.031-0.138-0.137-0.262-0.16-0.404-0.023-0.138-0.014-0.309-0.026-0.455-0.029-0.337-0.065-0.675-0.119-1.012-0.112-0.686 0.164-1.412-0.053-2.074-0.050-0.148-0.070-0.309-0.093-0.46-0.030-0.187 0.065-0.387 0.068-0.58 0.005-0.353 0.036-0.712 0.077-1.061 0.045-0.382 0.11-0.746 0.214-1.106 0.036-0.125 0.024-0.288 0.076-0.417 0.063-0.157 0.054-0.307 0.169-0.791z"></path>
<path d="M31.829 9.114c-0.018-0.076-0.012-0.149-0.026-0.223-0.021-0.099-0.068-0.194-0.107-0.288-0.045-0.107-0.093-0.203-0.175-0.288-0.103-0.109-0.161-0.107-0.306-0.13s-0.283-0.059-0.421-0.095c-0.122-0.030-0.264-0.013-0.335 0.211 0.047 0.052 0.112 0.054 0.167 0.083 0.050 0.026 0.099 0.074 0.136 0.113 0.030 0.035 0.080 0.087 0.104 0.124 0.045 0.076 0.017 0.101 0.038 0.187 0.011 0.045 0.050 0.060 0.062 0.106 0.014 0.056-0.005 0.14-0.003 0.199 0 0.136-0.027 0.19-0.085 0.306-0.081 0.166-0.23 0.333-0.419 0.379-0.31 0.077-0.722 0.017-1.002-0.098-0.16-0.068-0.354-0.108-0.502-0.202-0.161-0.103-0.318-0.217-0.479-0.326-0.076-0.048-0.148-0.065-0.231-0.096-0.13-0.051-0.241-0.14-0.371-0.19-0.136-0.053-0.253-0.080-0.377-0.163-0.095-0.066-0.19-0.136-0.289-0.196-0.238-0.143-0.512-0.282-0.727-0.458-0.209-0.173-0.437-0.371-0.669-0.508-0.425-0.253-0.957-0.294-1.432-0.381-0.207-0.039-0.415-0.081-0.621-0.117-0.292-0.051-0.613-0.080-0.897-0.176-0.532-0.182-1.124-0.345-1.688-0.372-0.289-0.017-0.583 0.002-0.873 0.002-0.445 0-0.907-0.035-1.351 0.004-0.302 0.030-0.61 0.039-0.906 0.093-0.342 0.060-0.668 0.134-1.016 0.173-0.445 0.050-0.876 0.154-1.317 0.244-0.579 0.119-1.13 0.356-1.709 0.479-0.185 0.039-0.371 0.060-0.552 0.12-0.228 0.076-0.392 0.225-0.615 0.315-0.122 0.048-0.235 0.122-0.348 0.19-0.093 0.057-0.181 0.080-0.28 0.122-0.196 0.086-0.392 0.185-0.585 0.282-0.191 0.096-0.416 0.197-0.589 0.321-0.149 0.106-0.235 0.232-0.399 0.312-0.229 0.112-0.469 0.262-0.674 0.413-0.109 0.080-0.209 0.12-0.322 0.181-0.095 0.050-0.146 0.142-0.235 0.2-0.404 0.259-0.87 0.452-1.302 0.668-0.216 0.107-0.57 0.348-0.592 0.618 0.249 0.099 0.506-0.136 0.713-0.232 0.087-0.039 0.175-0.065 0.258-0.117 0.143-0.089 0.256-0.196 0.416-0.258 0.216-0.081 0.403-0.219 0.603-0.333 0.222-0.125 0.467-0.191 0.692-0.307 0.133-0.068 0.277-0.084 0.413-0.149 0.145-0.071 0.258-0.13 0.412-0.172 0.235-0.066 0.46-0.202 0.695-0.28 0.222-0.074 0.433-0.167 0.654-0.243 0.231-0.078 0.479-0.128 0.705-0.222 0.36-0.148 0.725-0.312 1.109-0.386 0.149-0.030 0.279-0.082 0.419-0.125 0.146-0.047 0.291-0.053 0.434-0.083 0.023-0.004 0.095-0.035 0.123-0.044 0.063-0.017 0.127-0.039 0.19-0.063 0.13-0.050 0.285-0.084 0.426-0.109 0.357-0.059 0.195 0.339 0.057 0.481-0.071 0.071-0.185 0.056-0.27 0.092-0.039 0.017-0.080 0.068-0.123 0.089-0.056 0.026-0.115 0.035-0.167 0.068-0.080 0.050-0.176 0.115-0.224 0.198-0.063 0.11-0.124 0.293-0.154 0.416-0.017 0.065-0.032 0.139-0.044 0.214 0.794-0.077 1.928-0.079 2.252 0.368-0.002 0.002-0.003 0.003-0.005 0.004-0.33 0.214-0.49 0.241-0.876 0.253-0.626 0.017-1.233 0.3-1.437 0.906 0.172 0.184 0.146 0.488-0.017 0.68v0.479c0 0.149-0.021 0.323 0.005 0.469 0.027 0.154 0.113 0.318 0.194 0.467 0.464-0.27 0.945-0.294 1.438-0.258 0.472-0.122 0.934-0.179 1.348 0.086 0.128-0.002 0.258 0.017 0.389 0.062 0.095 0.035 0.167 0.109 0.205 0.197-0.52 0.562-1.824 0.013-2.252 0.883-0.074 0.151-0.087 0.297-0.060 0.431-0.030 0.022-0.060 0.044-0.089 0.060 0.083 0.095 0.164 0.19 0.232 0.296 0.123 0.19 0.323 0.306 0.517 0.428 0.271 0.169 0.509 0.362 0.806 0.484 0.454 0.188 0.965 0.243 1.403 0.46 0.347 0.172 0.683 0.333 1.063 0.417 0.506 0.114 1.075 0.143 1.593 0.093 0.799-0.077 1.568-0.398 2.033-1.072 0.247-0.357 0.577-0.639 0.805-1.013 0.193-0.316 0.342-0.669 0.419-1.034 0.044-0.205 0.099-0.426 0.121-0.635 0.006-0.072 0.008-0.148 0.008-0.224 0.048-0.163 0.047-0.35-0.008-0.523 0.003-0.050 0.005-0.101 0.011-0.149-0.024-0.002-0.048-0.002-0.072-0.003-0.116-0.223-0.329-0.401-0.636-0.437-0.954-0.115-1.881-0.205-2.825-0.437-0.211-0.052-0.407-0.117-0.597-0.185 0.068-0.084 0.155-0.152 0.264-0.182 0.692-0.196 1.412-0.261 2.13-0.275 0.604-0.013 1.225 0.119 1.837 0.173 0.003-0.086 0.005-0.172-0.008-0.253-0.033-0.21-0.142-0.407-0.163-0.617-0.015-0.135-0.048-0.25-0.056-0.39-0.006-0.128-0.054-0.274-0.098-0.392-0.036-0.093-0.063-0.175-0.125-0.252-0.087-0.104-0.16-0.065-0.28-0.095-0.109-0.030-0.214-0.066-0.312-0.095-0.101-0.030-0.276-0.026-0.36-0.086s-0.081-0.281-0.045-0.368c0.057-0.142 0.249-0.22 0.377-0.223 0.473-0.009 0.897 0.172 1.335 0.35 0.416 0.169 0.784 0.442 1.191 0.626 0.187 0.083 0.389 0.13 0.582 0.199 0.086 0.030 0.17 0.065 0.247 0.11 0.13 0.079 0.259 0.101 0.396 0.167 0.22 0.104 0.434 0.223 0.66 0.327 0.288 0.131 0.547 0.086 0.853 0.119 0.115 0.013 0.211 0.057 0.329 0.060 0.119 0.004 0.24-0.001 0.357-0.001h0.623c0.304 0 0.705 0.013 0.962-0.181 0.092-0.071 0.161-0.17 0.22-0.265 0.096-0.157 0.123-0.211 0.125-0.392 0.002-0.076-0.009-0.12-0.027-0.193z"></path>
<path d="M30.154 12.49c-0.083 0.072-0.149 0.164-0.232 0.235-0.294 0.249-0.577 0.501-0.868 0.755-0.167 0.148-0.304 0.285-0.44 0.463-0.113 0.149-0.265 0.25-0.38 0.39-0.152 0.185-0.353 0.321-0.506 0.508-0.203 0.246-0.497 0.401-0.76 0.585-0.131 0.090-0.259 0.185-0.389 0.276-0.107 0.077-0.185 0.171-0.282 0.246-0.16 0.127-0.357 0.229-0.529 0.347-0.097 0.066-0.169 0.104-0.273 0.161-0.075 0.039-0.098 0.090-0.161 0.151-0.131 0.124-0.336 0.193-0.493 0.275-0.102 0.056-0.237 0.167-0.339 0.205-0.232 0.086-0.495 0.181-0.736 0.235-0.288 0.063-0.564 0.108-0.846 0.197-0.461 0.145-0.951 0.137-1.43 0.137-0.333 0-0.666-0.002-0.998 0.001-0.211 0.002-0.401-0.057-0.612-0.057-0.208 0.002-0.43 0.022-0.636-0.013-0.214-0.035-0.436-0.017-0.645-0.056-1.265-0.252-2.519-0.57-3.75-0.96-0.461-0.146-0.898-0.333-1.325-0.549-0.261-0.131-0.552-0.271-0.794-0.43-0.083-0.053-0.155-0.116-0.235-0.172-0.103-0.072-0.207-0.098-0.32-0.146-0.097-0.044-0.172-0.099-0.255-0.16-0.090-0.066-0.193-0.115-0.283-0.182-0.137-0.101-0.258-0.229-0.399-0.307-0.415-0.23-0.864-0.41-1.275-0.65-0.203-0.119-0.393-0.219-0.624-0.274-0.268-0.063-0.537-0.169-0.815-0.182-0.354-0.017-0.915-0.068-1.101 0.285-0.090 0.169-0.101 0.532-0.006 0.702 0.136 0.244 0.422 0.188 0.677 0.188-0.387 0.128-0.384 0.143-0.381 0.159 0.199 0.059 0.745 0.030 0.823-0.202-0.11-0.017-0.22-0.057-0.333-0.071-0.083-0.009-0.149 0.022-0.222-0.022-0.119-0.071-0.158-0.232-0.258-0.309 0.109-0.044 0.179-0.13 0.303-0.157 0.080-0.017 0.182-0.022 0.264-0.004 0.172 0.035 0.276 0.155 0.419 0.249 0.121 0.078 0.261 0.13 0.389 0.205 0.166 0.098 0.33 0.19 0.502 0.28 0.213 0.111 0.405 0.246 0.629 0.336 0.118 0.047 0.235 0.099 0.351 0.146 0.105 0.044 0.16 0.093 0.252 0.163 0.149 0.111 0.309 0.179 0.443 0.304 0.113 0.107 0.223 0.14 0.37 0.187 0.208 0.065 0.381 0.188 0.583 0.262 0.198 0.073 0.398 0.152 0.591 0.237 0.143 0.060 0.265 0.146 0.41 0.198 0.221 0.077 0.383 0.214 0.591 0.32 0.296 0.154 0.604 0.362 0.92 0.46 0.277 0.086 0.544 0.155 0.815 0.258 0.216 0.081 0.475 0.166 0.701 0.189 0.309 0.030 0.597 0.143 0.901 0.197 0.428 0.077 0.876 0.083 1.311 0.083 0.195 0 0.401-0.022 0.592 0.013 0.431 0.074 0.871 0.075 1.302 0.155 0.199 0.035 0.374 0.056 0.579 0.056 0.427 0 0.855 0 1.281 0 0.398 0 0.814-0.057 1.174-0.223 0.134-0.062 0.282-0.083 0.416-0.117 0.063-0.017 0.096-0.035 0.172-0.048 0.090-0.017 0.14-0.056 0.224-0.087 0.148-0.057 0.326-0.035 0.478-0.080 0.051-0.017 0.099-0.050 0.151-0.073 0.041-0.017 0.112-0.026 0.146-0.044 0.039-0.022 0.066-0.079 0.109-0.109 0.068-0.050 0.185-0.077 0.264-0.113 0.133-0.060 0.24-0.131 0.35-0.224 0.146-0.125 0.297-0.246 0.441-0.374 0.171-0.152 0.362-0.315 0.547-0.451 0.152-0.112 0.315-0.203 0.448-0.345 0.298-0.32 0.582-0.627 0.924-0.898 0.134-0.107 0.255-0.227 0.392-0.33 0.155-0.116 0.329-0.208 0.473-0.337 0.131-0.116 0.277-0.222 0.401-0.333 0.059-0.055 0.125-0.093 0.185-0.146 0.071-0.062 0.097-0.149 0.164-0.214 0.109-0.103 0.166-0.176 0.238-0.31 0.059-0.11 0.127-0.208 0.181-0.313 0.074-0.143 0.137-0.312 0.182-0.469 0.027-0.098 0.054-0.202 0.095-0.297 0.032-0.068 0.087-0.133 0.105-0.197-0.077 0.003-0.267 0.188-0.329 0.243z"></path>
<path d="M33.597 11.503c-0.011 0.002-0.023 0.004-0.033 0.004-0.496 0.035-1.015-0.34-1.613-0.199-0.072 0.017-0.136-0.009-0.187-0.057-0.496-0.022-1.033-0.101-1.611-0.247-0.941-0.238-3.556-1.524-4.394 0.265-0.121 0.255-0.149 0.555-0.035 0.802 1.299 0.205 2.466-0.009 3.497-0.165-0.201-0.017-0.403-0.035-0.603-0.047-0.335 0.039-0.871 0.057-1.308-0.013-0.312 0.009-0.648-0.022-0.755-0.243-0.211-0.438 0.589-0.701 0.88-0.741 1.014-0.139 2.276 0.409 3.226 0.686 0.116 0.035 0.16 0.12 0.152 0.21 0.030 0.009 0.060 0.017 0.090 0.026 0.093 0.009 0.185 0.022 0.276 0.039 0.763 0.14 1.421 0.345 2.042 0.329 0.142-0.004 0.277-0.013 0.41-0.017 0.008-0.004 0.017-0.013 0.024-0.017 0.374-0.297 0.675-0.353 0.998-0.38 0.011-0.044 0.020-0.087 0.024-0.134-0.329-0.009-0.733-0.009-1.081-0.098z"></path>
<path d="M13.876 12.041c-0.069-0.066-0.14-0.124-0.209-0.181-0.14-0.017-0.277-0.026-0.413-0.035 0.191 0.182 0.234 0.419-0.030 0.73-0.858 1.011-3.075-0.528-3.976-0.699-0.045-0.009-0.076-0.030-0.101-0.056-0.362-0.063-0.708-0.125-1.046-0.114-0.033 0.057-0.089 0.101-0.173 0.104-0.769 0.026-1.444 0.38-2.189 0.522-0.287 0.056-0.81 0.13-1.017-0.155-0.041-0.057-0.057-0.11-0.063-0.162-0.062 0.004-0.125 0.013-0.187 0.013-0.318 0.002-0.256 0.856 0.051 0.907 0.057 0.009 0.115 0.017 0.173 0.026 0.048 0.12 0.124 0.205 0.223 0.193 0.008 0 0.014 0.002 0.021 0.002 0.83-0.291 1.822-0.425 2.981-0.274 0.734 0.096 1.521 0.366 2.413 0.475 0.532 0.065 1.079 0.13 1.663 0.251 0.508-0.017 1.043-0.072 1.607-0.181 0.613-0.119 0.693-0.968 0.273-1.364z"></path>
</svg>
