<!-- Generated by IcoMoon.io -->
<svg version="1.1" xmlns="http://www.w3.org/2000/svg" width="32" height="32" viewBox="0 0 32 32">
<title>manokwari</title>
<path d="M14.766 29.985c-0.131-0.021-0.332-0.077-0.451-0.126-0.26-0.107-0.538-0.284-0.986-0.627-0.454-0.348-0.917-0.618-1.287-0.752-0.082-0.030-0.249-0.086-0.371-0.126-0.345-0.112-0.576-0.222-0.83-0.393-0.21-0.142-0.391-0.302-0.562-0.496-0.177-0.202-0.36-0.505-0.471-0.779-0.030-0.074-0.059-0.146-0.065-0.159-0.019-0.044-0.165-0.49-0.197-0.605-0.031-0.109-0.123-0.482-0.347-1.401-0.12-0.492-0.192-0.73-0.222-0.73-0.024 0-0.235 0.074-0.285 0.101-0.020 0.010-0.062 0.041-0.094 0.068-0.17 0.146-0.567 0.556-0.567 0.585 0 0.006-0.010 0.018-0.023 0.027-0.057 0.040-0.266 0.315-0.438 0.578-0.176 0.268-0.21 0.325-0.304 0.496-0.034 0.063-0.067 0.122-0.073 0.132s-0.052 0.099-0.102 0.198c-0.050 0.099-0.107 0.196-0.127 0.217-0.038 0.040-0.102 0.065-0.169 0.065-0.049 0-0.338-0.139-0.513-0.247-0.135-0.083-0.379-0.257-0.411-0.291-0.012-0.014-0.029-0.025-0.038-0.025s-0.022-0.010-0.031-0.022c-0.009-0.012-0.069-0.073-0.135-0.134s-0.122-0.118-0.124-0.124c-0.002-0.007-0.027-0.037-0.055-0.066-0.061-0.065-0.227-0.294-0.274-0.377-0.234-0.418-0.361-0.813-0.423-1.311-0.027-0.221-0.028-0.75-0-1.006l0.020-0.186 0.049-0.044c0.027-0.024 0.072-0.053 0.1-0.064 0.050-0.019 0.060-0.018 0.313 0.024 0.144 0.024 0.317 0.047 0.384 0.050 0.136 0.007 0.136 0.007 0.27-0.111l0.055-0.049-0.060-0.086c-0.033-0.047-0.073-0.096-0.090-0.11-0.034-0.027-0.459-0.167-0.908-0.3-0.342-0.101-0.822-0.256-1.006-0.324-0.399-0.149-0.6-0.244-0.739-0.352-0.038-0.029-0.071-0.053-0.073-0.053-0.010 0-0.187-0.188-0.236-0.252-0.067-0.085-0.070-0.090-0.146-0.239-0.146-0.285-0.212-0.578-0.212-0.951-0-0.233 0.013-0.351 0.062-0.542 0.075-0.292 0.182-0.496 0.389-0.746 0.183-0.22 0.494-0.464 0.811-0.633 0.11-0.059 0.123-0.063 0.2-0.063 0.119 0.001 0.191 0.029 0.279 0.109 0.305 0.28 0.55 0.47 0.84 0.651 0.563 0.352 1.215 0.579 1.893 0.659 0.167 0.020 0.203 0.012 0.341-0.076l0.103-0.065-0.098-0.097c-0.054-0.054-0.115-0.106-0.135-0.117s-0.109-0.030-0.197-0.044c-0.484-0.075-1.039-0.253-1.43-0.46-0.266-0.14-0.5-0.295-0.721-0.478-0.158-0.13-0.46-0.436-0.614-0.621-0.116-0.14-0.393-0.509-0.404-0.54-0.003-0.007-0.027-0.046-0.054-0.085s-0.055-0.083-0.062-0.096c-0.135-0.241-0.233-0.425-0.285-0.534-0.076-0.16-0.224-0.509-0.248-0.584-0.005-0.016-0.029-0.084-0.053-0.15s-0.048-0.136-0.054-0.156c-0.006-0.020-0.035-0.119-0.065-0.221-0.154-0.518-0.302-1.227-0.383-1.832-0.063-0.468-0.087-0.726-0.126-1.323-0.026-0.398-0.041-0.613-0.061-0.896-0.014-0.196-0.009-0.554 0.013-0.935 0.007-0.112 0.018-0.303 0.025-0.425 0.016-0.278 0.019-0.298 0.055-0.314 0.042-0.019 0.062 0.005 0.143 0.173 0.226 0.466 0.411 0.813 0.61 1.138 0.084 0.138 0.226 0.348 0.277 0.411 0.022 0.027 0.040 0.053 0.040 0.058 0 0.010 0.262 0.352 0.368 0.481 0.298 0.361 0.72 0.778 1.086 1.071 0.331 0.266 0.643 0.481 0.964 0.663 0.445 0.253 0.647 0.391 0.88 0.601 0.118 0.106 0.298 0.289 0.323 0.329 0.007 0.011 0.059 0.081 0.115 0.156 0.151 0.199 0.231 0.33 0.352 0.579 0.077 0.158 0.196 0.446 0.246 0.599 0.043 0.129 0.056 0.146 0.17 0.217l0.105 0.065 0.028-0.045c0.015-0.025 0.032-0.053 0.036-0.063s0.021-0.040 0.037-0.066c0.046-0.075 0.043-0.1-0.045-0.377-0.076-0.242-0.236-0.606-0.332-0.76-0.012-0.020-0.032-0.055-0.043-0.078-0.031-0.063-0.187-0.296-0.249-0.371-0.030-0.036-0.077-0.095-0.104-0.132-0.119-0.156-0.411-0.427-0.702-0.65-0.123-0.094-0.15-0.155-0.212-0.48-0.072-0.378-0.071-0.901 0.001-1.3 0.17-0.933 0.682-1.776 1.454-2.396 0.236-0.189 0.45-0.323 0.755-0.47 0.329-0.159 0.579-0.244 0.901-0.304 0.321-0.060 0.397-0.067 0.736-0.067 0.265 0 0.347 0.005 0.497 0.027 0.324 0.049 0.45 0.089 0.525 0.168 0.048 0.051 0.057 0.165 0.020 0.277-0.014 0.043-0.035 0.143-0.047 0.224-0.026 0.175-0.059 0.241-0.144 0.286-0.050 0.027-0.061 0.028-0.191 0.021-0.224-0.012-0.469 0.034-0.674 0.126-0.21 0.094-0.44 0.277-0.562 0.444-0.021 0.030-0.045 0.059-0.053 0.066-0.026 0.022-0.11 0.173-0.159 0.286-0.081 0.184-0.125 0.409-0.119 0.61 0.003 0.111-0.006 0.133-0.078 0.18-0.053 0.035-0.042 0.035-0.258 0.006-0.313-0.042-0.705 0.056-0.996 0.247-0.123 0.081-0.326 0.287-0.409 0.416-0.163 0.25-0.237 0.507-0.237 0.816 0 0.3 0.083 0.57 0.252 0.825 0.053 0.080 0.216 0.253 0.323 0.343 0.137 0.115 0.375 0.227 0.578 0.274 0.132 0.030 0.196 0.059 0.267 0.122 0.056 0.050 0.061 0.060 0.109 0.22 0.059 0.197 0.13 0.359 0.262 0.593 0.064 0.113 0.185 0.287 0.199 0.287 0.005 0 0.019 0.020 0.030 0.044 0.025 0.053 0.311 0.344 0.429 0.437 0.28 0.221 0.604 0.39 0.943 0.493 0.547 0.166 1.172 0.149 1.717-0.047 0.87-0.313 1.505-1.012 1.744-1.921 0.045-0.172 0.064-0.286 0.081-0.494 0.019-0.237 0.002-0.49-0.050-0.757-0.031-0.159-0.034-0.191-0.022-0.235 0.021-0.078 0.040-0.108 0.109-0.172 0.184-0.17 0.293-0.31 0.375-0.48 0.125-0.258 0.169-0.462 0.158-0.731-0.009-0.233-0.044-0.365-0.165-0.62-0.019-0.040-0.043-0.080-0.053-0.088s-0.019-0.022-0.019-0.030c0-0.008-0.014-0.033-0.030-0.055-0.234-0.319-0.544-0.522-0.921-0.605-0.071-0.016-0.148-0.021-0.299-0.021-0.188 0-0.214 0.003-0.341 0.037-0.211 0.056-0.4 0.146-0.545 0.26-0.103 0.081-0.13 0.093-0.193 0.084-0.058-0.009-0.118-0.052-0.16-0.115-0.016-0.025-0.053-0.071-0.080-0.103-0.115-0.132-0.389-0.493-0.418-0.552l-0.031-0.063 0.014-0.141c0.024-0.235 0.047-0.365 0.116-0.649 0.024-0.099 0.107-0.349 0.138-0.417 0.013-0.029 0.034-0.079 0.047-0.111 0.036-0.091 0.155-0.332 0.205-0.415 0.025-0.041 0.045-0.078 0.045-0.081 0-0.010 0.13-0.196 0.22-0.316 0.047-0.062 0.097-0.128 0.111-0.148 0.050-0.068 0.382-0.395 0.507-0.499 0.62-0.517 1.368-0.822 2.206-0.9 0.194-0.018 0.674-0.008 0.846 0.018 0.534 0.080 1.031 0.251 1.424 0.491 0.063 0.038 0.129 0.078 0.148 0.087s0.044 0.027 0.055 0.037c0.011 0.011 0.066 0.053 0.123 0.094 0.182 0.133 0.507 0.445 0.628 0.604 0.018 0.024 0.093 0.121 0.166 0.215 0.119 0.153 0.272 0.36 0.295 0.397 0.107 0.173 0.194 0.321 0.234 0.398 0.358 0.695 0.371 1.323 0.041 1.979-0.067 0.134-0.097 0.159-0.192 0.166-0.069 0.005-0.071 0.004-0.158-0.062-0.283-0.213-0.646-0.323-0.995-0.302-0.202 0.012-0.355 0.054-0.559 0.151-0.163 0.077-0.259 0.147-0.394 0.284-0.315 0.318-0.477 0.76-0.433 1.176 0.023 0.218 0.069 0.371 0.17 0.564 0.076 0.146 0.137 0.225 0.299 0.387 0.078 0.078 0.15 0.157 0.159 0.174 0.032 0.062 0.032 0.112 0.002 0.264-0.035 0.175-0.067 0.461-0.067 0.601 0 0.133 0.029 0.406 0.059 0.561 0.052 0.271 0.128 0.475 0.295 0.801 0.055 0.108 0.266 0.408 0.339 0.481 0.017 0.017 0.083 0.084 0.145 0.148 0.187 0.191 0.441 0.371 0.712 0.503 0.59 0.289 1.297 0.357 1.937 0.186 0.26-0.069 0.586-0.22 0.813-0.376 0.31-0.212 0.61-0.522 0.788-0.811 0.022-0.036 0.047-0.077 0.056-0.090 0.092-0.145 0.302-0.654 0.302-0.734 0-0.029 0.062-0.115 0.101-0.141 0.016-0.011 0.077-0.030 0.135-0.042 0.451-0.098 0.807-0.333 1.036-0.681 0.049-0.075 0.153-0.288 0.153-0.313 0-0.009 0.005-0.022 0.011-0.028s0.023-0.068 0.037-0.137c0.033-0.157 0.036-0.387 0.008-0.545-0.020-0.114-0.064-0.268-0.082-0.287-0.006-0.006-0.010-0.020-0.011-0.030-0-0.026-0.096-0.212-0.153-0.296-0.067-0.098-0.23-0.269-0.325-0.338-0.317-0.232-0.698-0.323-1.158-0.275l-0.136 0.014-0.102-0.074-0.007-0.172c-0.012-0.275-0.062-0.483-0.167-0.694-0.121-0.241-0.28-0.419-0.512-0.571-0.324-0.212-0.762-0.28-1.175-0.181-0.129 0.031-0.164 0.031-0.224 0.001-0.048-0.024-0.048-0.025-0.086-0.169-0.099-0.372-0.094-0.518 0.022-0.633 0.087-0.087 0.247-0.141 0.588-0.199 0.38-0.065 0.759-0.066 1.188-0.005 1.076 0.154 1.998 0.704 2.628 1.568 0.132 0.181 0.302 0.48 0.39 0.688 0.205 0.484 0.301 0.897 0.332 1.433 0.043 0.732-0.089 1.202-0.479 1.697-0.034 0.043-0.101 0.132-0.15 0.198s-0.1 0.134-0.114 0.152c-0.073 0.095-0.273 0.452-0.43 0.769-0.324 0.654-0.362 0.736-0.353 0.764 0.017 0.057 0.128 0.235 0.141 0.227 0.098-0.057 0.215-0.144 0.228-0.169 0.009-0.018 0.036-0.094 0.061-0.17 0.051-0.157 0.106-0.307 0.138-0.377 0.012-0.026 0.039-0.086 0.060-0.132s0.050-0.108 0.066-0.138c0.015-0.030 0.046-0.089 0.068-0.132s0.043-0.081 0.046-0.084c0.003-0.003 0.048-0.068 0.099-0.144 0.133-0.198 0.169-0.246 0.233-0.315 0.031-0.034 0.089-0.096 0.129-0.138 0.168-0.18 0.411-0.36 0.712-0.529 0.66-0.37 1.174-0.741 1.698-1.225 0.164-0.152 0.438-0.435 0.535-0.552 0.020-0.024 0.055-0.064 0.078-0.090 0.079-0.087 0.15-0.171 0.189-0.226 0.022-0.030 0.044-0.058 0.049-0.062s0.046-0.055 0.090-0.114c0.367-0.493 0.604-0.874 0.867-1.398 0.077-0.153 0.162-0.326 0.188-0.385s0.058-0.119 0.070-0.135c0.030-0.038 0.089-0.038 0.103-0.001 0.005 0.015 0.016 0.153 0.024 0.308s0.022 0.402 0.032 0.551c0.020 0.313 0.022 0.61 0.005 0.712-0.024 0.146-0.111 0.912-0.155 1.365-0.024 0.251-0.072 0.707-0.084 0.802-0.007 0.053-0.026 0.209-0.043 0.347-0.083 0.686-0.237 1.399-0.435 2.011-0.025 0.078-0.14 0.392-0.158 0.431-0.006 0.013-0.041 0.097-0.078 0.186-0.072 0.174-0.206 0.447-0.299 0.611-0.244 0.43-0.471 0.729-0.802 1.060-0.544 0.543-1.115 0.88-1.88 1.107-0.247 0.073-0.475 0.123-0.735 0.161-0.201 0.029-0.21 0.032-0.249 0.069-0.022 0.021-0.053 0.065-0.069 0.097-0.026 0.053-0.028 0.062-0.013 0.091 0.023 0.044 0.108 0.119 0.16 0.141 0.031 0.013 0.063 0.016 0.115 0.010 1.085-0.117 1.987-0.512 2.763-1.209 0.124-0.111 0.185-0.15 0.236-0.15 0.039 0 0.274 0.126 0.392 0.211 0.114 0.081 0.327 0.272 0.369 0.331 0.013 0.018 0.062 0.085 0.108 0.149 0.092 0.128 0.090 0.125 0.159 0.261 0.081 0.163 0.148 0.365 0.191 0.578 0.033 0.164 0.030 0.54-0.006 0.718-0.045 0.224-0.117 0.421-0.219 0.603-0.055 0.098-0.153 0.237-0.206 0.292-0.019 0.020-0.044 0.049-0.054 0.066s-0.030 0.039-0.044 0.050c-0.013 0.011-0.056 0.048-0.096 0.082-0.395 0.34-0.892 0.594-1.49 0.763-0.286 0.081-0.859 0.202-1.109 0.235-0.045 0.006-0.069 0.017-0.091 0.040-0.043 0.046-0.129 0.171-0.129 0.187s0.13 0.125 0.177 0.149c0.043 0.022 0.22 0.011 0.436-0.028 0.276-0.050 0.321-0.051 0.395-0.015 0.035 0.017 0.085 0.053 0.111 0.080 0.046 0.047 0.048 0.053 0.063 0.171 0.024 0.191 0.033 0.719 0.016 0.907-0.041 0.456-0.148 0.848-0.331 1.212-0.082 0.164-0.287 0.472-0.377 0.565-0.038 0.040-0.087 0.093-0.109 0.119s-0.097 0.098-0.166 0.16c-0.321 0.29-0.714 0.54-1.176 0.75-0.125 0.057-0.129 0.058-0.184 0.044-0.121-0.031-0.143-0.052-0.245-0.246-0.068-0.13-0.097-0.182-0.14-0.252-0.008-0.013-0.026-0.045-0.040-0.071s-0.047-0.079-0.072-0.118c-0.026-0.039-0.047-0.073-0.047-0.077s-0.013-0.024-0.030-0.046c-0.016-0.022-0.030-0.043-0.030-0.047 0-0.011-0.203-0.308-0.221-0.323-0.008-0.007-0.032-0.039-0.054-0.072-0.052-0.077-0.141-0.192-0.238-0.305-0.232-0.272-0.615-0.642-0.777-0.752-0.074-0.049-0.179-0.076-0.251-0.063-0.026 0.005-0.072 0.023-0.102 0.041-0.094 0.055-0.13 0.126-0.188 0.369-0.040 0.168-0.118 0.501-0.156 0.663-0.063 0.271-0.157 0.653-0.172 0.7-0.009 0.030-0.026 0.086-0.037 0.126-0.054 0.191-0.189 0.58-0.27 0.778-0.008 0.020-0.016 0.041-0.018 0.048-0.007 0.027-0.168 0.318-0.235 0.424-0.040 0.063-0.102 0.154-0.14 0.202s-0.073 0.096-0.080 0.108c-0.007 0.011-0.055 0.065-0.107 0.12-0.231 0.243-0.555 0.471-0.856 0.602-0.062 0.027-0.24 0.092-0.395 0.145-0.779 0.265-1.228 0.498-1.754 0.909-0.639 0.499-0.848 0.621-1.227 0.714l-0.126 0.031-0.79 0.003c-0.636 0.002-0.811-0-0.898-0.014zM17.495 26.198c0.621-0.058 1.019-0.133 1.462-0.277 0.415-0.134 0.841-0.337 1.13-0.536 0.518-0.358 0.878-0.781 1.156-1.36 0.078-0.162 0.168-0.397 0.196-0.509 0.006-0.023 0.024-0.090 0.040-0.15 0.061-0.222 0.092-0.386 0.128-0.669 0.035-0.275 0.064-0.361 0.133-0.397 0.066-0.034 0.147-0.018 0.298 0.059 0.144 0.073 0.2 0.083 0.303 0.052 0.075-0.023 0.097-0.064 0.097-0.18 0-0.093-0.003-0.103-0.055-0.206-0.103-0.201-0.145-0.327-0.173-0.521-0.048-0.326-0.002-0.622 0.166-1.083 0.193-0.53 0.397-0.951 0.7-1.442 0.175-0.283 0.208-0.335 0.305-0.471 0.078-0.11 0.102-0.144 0.168-0.237 0.054-0.077 0.32-0.411 0.382-0.48 0.028-0.031 0.059-0.070 0.070-0.085 0.018-0.027 0.052-0.066 0.293-0.336 0.174-0.194 0.277-0.303 0.606-0.636 0.331-0.335 0.351-0.362 0.352-0.495 0.001-0.076-0-0.079-0.040-0.106-0.105-0.071-0.191-0.075-0.48-0.021-0.471 0.088-0.846 0.21-1.251 0.406-0.65 0.315-1.187 0.739-1.754 1.389-0.075 0.086-0.195 0.218-0.268 0.294-0.281 0.295-0.315 0.438-0.206 0.867 0.103 0.407 0.179 0.771 0.425 2.041 0.105 0.541 0.113 0.585 0.105 0.604-0.010 0.027-0.060 0.023-0.125-0.010-0.149-0.075-0.588-0.436-0.811-0.667-0.191-0.197-0.209-0.217-0.209-0.224 0-0.004-0.026-0.037-0.057-0.073s-0.087-0.104-0.122-0.151c-0.036-0.046-0.070-0.087-0.076-0.091s-0.030-0.037-0.054-0.074c-0.024-0.037-0.081-0.122-0.127-0.19-0.137-0.203-0.316-0.507-0.408-0.692-0.152-0.305-0.296-0.622-0.37-0.814-0.078-0.202-0.092-0.221-0.232-0.311l-0.065-0.041-0.047 0.053c-0.062 0.071-0.111 0.142-0.123 0.179-0.005 0.016-0.013 0.326-0.018 0.688-0.008 0.647-0.009 0.66-0.036 0.735-0.089 0.245-0.362 0.358-0.654 0.271-0.076-0.023-0.191-0.11-0.226-0.172-0.071-0.124-0.069-0.107-0.077-0.842l-0.008-0.678-0.033-0.049c-0.035-0.053-0.158-0.18-0.174-0.18-0.019 0-0.164 0.163-0.186 0.21-0.021 0.044-0.023 0.089-0.031 0.586-0.009 0.595-0.009 0.595-0.092 0.757-0.078 0.15-0.261 0.308-0.422 0.363-0.108 0.037-0.297 0.045-0.431 0.018-0.297-0.060-0.504-0.246-0.575-0.517-0.022-0.085-0.026-0.149-0.036-0.633-0.007-0.341-0.016-0.554-0.025-0.581-0.014-0.043-0.159-0.203-0.183-0.203-0.008 0-0.054 0.039-0.104 0.087-0.089 0.086-0.090 0.088-0.1 0.165-0.006 0.043-0.011 0.299-0.011 0.569l-0.001 0.491-0.032 0.096c-0.070 0.209-0.205 0.366-0.399 0.463-0.117 0.058-0.216 0.081-0.352 0.081-0.217 0-0.383-0.065-0.538-0.211-0.089-0.083-0.177-0.208-0.197-0.279-0.005-0.016-0.014-0.049-0.021-0.072-0.008-0.025-0.016-0.262-0.022-0.587-0.005-0.3-0.013-0.564-0.018-0.587-0.007-0.030-0.035-0.067-0.099-0.129-0.049-0.048-0.096-0.087-0.104-0.087-0.017 0-0.163 0.149-0.187 0.192-0.014 0.024-0.018 0.156-0.024 0.706-0.004 0.408-0.012 0.694-0.019 0.72-0.059 0.205-0.242 0.334-0.476 0.334-0.231 0-0.42-0.132-0.476-0.333-0.007-0.026-0.016-0.308-0.020-0.678-0.009-0.723-0.003-0.676-0.119-0.841l-0.070-0.099-0.065 0.050c-0.121 0.094-0.176 0.154-0.203 0.224-0.014 0.037-0.036 0.090-0.048 0.118s-0.023 0.053-0.023 0.056c0 0.029-0.315 0.695-0.408 0.862-0.018 0.033-0.046 0.084-0.062 0.114s-0.045 0.081-0.066 0.114c-0.020 0.033-0.051 0.084-0.069 0.114s-0.103 0.155-0.189 0.28c-0.086 0.124-0.162 0.235-0.169 0.247s-0.026 0.036-0.042 0.054c-0.056 0.061-0.065 0.073-0.119 0.138-0.088 0.107-0.095 0.115-0.288 0.309s-0.399 0.373-0.604 0.526c-0.173 0.128-0.283 0.175-0.301 0.128-0.013-0.034 0.047-0.283 0.193-0.802 0.166-0.588 0.219-0.823 0.258-1.137 0.007-0.059 0.037-0.228 0.067-0.375 0.069-0.346 0.084-0.494 0.065-0.646-0.029-0.229-0.106-0.386-0.3-0.613-0.199-0.231-0.447-0.493-0.62-0.654-0.19-0.177-0.482-0.423-0.501-0.423-0.006 0-0.023-0.013-0.039-0.029s-0.090-0.072-0.167-0.124c-0.366-0.249-0.772-0.46-1.151-0.597-0.297-0.108-0.833-0.232-1.011-0.235-0.156-0.002-0.269 0.063-0.269 0.155 0 0.038 0.005 0.055 0.045 0.149 0.011 0.025 0.142 0.167 0.32 0.347 0.166 0.168 0.349 0.356 0.407 0.419s0.124 0.133 0.146 0.156c0.022 0.023 0.085 0.093 0.139 0.156s0.111 0.127 0.125 0.144c0.244 0.277 0.59 0.73 0.782 1.023 0.056 0.086 0.111 0.163 0.122 0.172s0.020 0.022 0.020 0.029c0 0.007 0.013 0.030 0.030 0.052s0.030 0.043 0.030 0.048c0 0.005 0.048 0.087 0.106 0.183s0.114 0.191 0.124 0.211c0.454 0.894 0.58 1.214 0.657 1.67 0.022 0.133 0.019 0.438-0.006 0.567-0.039 0.201-0.104 0.378-0.2 0.548-0.062 0.11-0.066 0.123-0.046 0.193s0.064 0.114 0.138 0.137l0.065 0.020 0.091-0.046c0.118-0.059 0.221-0.071 0.284-0.032 0.069 0.043 0.084 0.090 0.093 0.301 0.019 0.416 0.178 0.956 0.421 1.43 0.050 0.098 0.21 0.366 0.225 0.377 0.005 0.003 0.015 0.019 0.024 0.036 0.034 0.065 0.191 0.262 0.283 0.356 0.054 0.055 0.1 0.104 0.102 0.11 0.007 0.020 0.229 0.217 0.351 0.311 0.195 0.151 0.38 0.266 0.622 0.387 0.419 0.209 0.958 0.367 1.466 0.427 0.276 0.033 0.45 0.039 1.395 0.048 0.719 0.007 1.104 0.015 1.311 0.029 0.161 0.011 0.339 0.021 0.395 0.024 0.19 0.008 1.071-0.003 1.203-0.016zM14.129 25.801c-0.074-0.015-0.132-0.059-0.155-0.118-0.063-0.162 0.016-0.486 0.163-0.669 0.22-0.273 0.633-0.362 0.954-0.205 0.073 0.035 0.243 0.16 0.243 0.177 0 0.005 0.016 0.025 0.036 0.045 0.044 0.045 0.125 0.212 0.15 0.309 0.027 0.105 0.024 0.289-0.005 0.337-0.045 0.073-0.083 0.086-0.325 0.107-0.222 0.019-0.989 0.031-1.061 0.017zM16.624 25.807c-0.004-0.004-0.121-0.007-0.261-0.007-0.284 0-0.331-0.010-0.382-0.080-0.083-0.116-0.036-0.433 0.094-0.632 0.060-0.093 0.2-0.222 0.288-0.267 0.167-0.084 0.391-0.111 0.563-0.068 0.259 0.066 0.472 0.267 0.559 0.528 0.028 0.083 0.032 0.116 0.033 0.248l0.001 0.152-0.036 0.038c-0.064 0.068-0.083 0.071-0.418 0.071-0.19 0-0.308 0.005-0.312 0.012-0.008 0.013-0.117 0.017-0.129 0.005zM13.353 25.71c-0.030-0.011-0.124-0.022-0.245-0.028-0.282-0.015-0.341-0.031-0.437-0.119-0.131-0.121-0.171-0.381-0.086-0.567 0.093-0.202 0.387-0.31 0.637-0.233 0.067 0.021 0.093 0.037 0.149 0.093 0.037 0.037 0.080 0.094 0.094 0.126 0.041 0.093 0.073 0.277 0.073 0.416 0 0.11-0.004 0.135-0.037 0.219-0.047 0.123-0.055 0.128-0.149 0.093zM17.996 25.602c-0.044-0.077-0.046-0.086-0.050-0.209-0.014-0.442 0.147-0.65 0.501-0.649 0.308 0.001 0.491 0.166 0.491 0.443 0 0.143-0.047 0.263-0.133 0.338s-0.185 0.102-0.429 0.116c-0.076 0.004-0.169 0.015-0.207 0.025-0.117 0.029-0.121 0.027-0.172-0.064zM11.881 25.295c-0.546-0.21-1.137-0.827-1.461-1.524-0.092-0.199-0.096-0.207-0.119-0.267-0.148-0.387-0.204-0.692-0.193-1.053 0.011-0.37 0.038-0.443 0.211-0.575 0.331-0.251 0.723-0.634 0.962-0.939 0.116-0.148 0.262-0.346 0.286-0.387 0.014-0.024 0.046-0.071 0.071-0.104s0.045-0.065 0.045-0.070c0-0.005 0.013-0.026 0.030-0.048s0.030-0.042 0.030-0.046c0-0.004 0.022-0.039 0.048-0.078s0.048-0.078 0.048-0.085c0-0.007 0.004-0.013 0.009-0.013s0.028-0.035 0.051-0.078c0.066-0.124 0.066-0.125 0.108-0.168 0.022-0.023 0.049-0.041 0.061-0.041 0.027 0 0.053 0.041 0.063 0.102 0.016 0.093 0.058 0.251 0.081 0.304 0.036 0.083 0.114 0.191 0.201 0.277 0.194 0.191 0.542 0.291 0.821 0.234 0.145-0.029 0.292-0.107 0.426-0.226 0.111-0.098 0.112-0.098 0.178-0.099 0.064-0 0.070 0.003 0.18 0.086 0.139 0.106 0.268 0.171 0.425 0.215 0.107 0.029 0.14 0.033 0.305 0.033 0.156 0 0.202-0.004 0.287-0.027 0.212-0.057 0.374-0.147 0.544-0.302l0.094-0.086 0.075 0.005c0.072 0.005 0.078 0.007 0.148 0.073 0.267 0.247 0.563 0.359 0.898 0.34 0.266-0.015 0.502-0.107 0.708-0.276 0.071-0.058 0.079-0.062 0.143-0.061 0.068 0 0.068 0.001 0.179 0.099 0.204 0.18 0.394 0.251 0.64 0.238 0.194-0.010 0.383-0.073 0.522-0.174 0.065-0.048 0.168-0.149 0.168-0.167 0-0.009 0.008-0.019 0.017-0.022 0.036-0.014 0.136-0.244 0.167-0.385 0.036-0.16 0.046-0.182 0.084-0.182 0.021 0 0.043 0.019 0.081 0.069 0.089 0.117 0.205 0.258 0.252 0.304 0.025 0.024 0.045 0.049 0.045 0.055s0.017 0.029 0.039 0.052c0.021 0.022 0.062 0.072 0.091 0.11s0.057 0.069 0.062 0.069c0.005 0 0.013 0.009 0.016 0.021s0.034 0.049 0.067 0.083c0.033 0.034 0.060 0.066 0.060 0.070s0.034 0.048 0.075 0.098c0.085 0.103 0.151 0.182 0.201 0.243 0.019 0.023 0.071 0.086 0.116 0.14s0.114 0.14 0.154 0.192c0.040 0.052 0.142 0.183 0.228 0.291 0.184 0.235 0.19 0.243 0.228 0.344 0.030 0.080 0.1 0.453 0.1 0.532 0 0.117-0.093 0.57-0.172 0.836-0.080 0.269-0.15 0.435-0.293 0.694-0.258 0.467-0.655 0.871-1.125 1.148-0.077 0.045-0.095 0.051-0.141 0.046-0.029-0.003-0.073-0.020-0.098-0.036-0.041-0.027-0.048-0.039-0.067-0.118-0.023-0.097-0.073-0.233-0.096-0.261-0.008-0.010-0.018-0.027-0.022-0.038-0.013-0.036-0.115-0.163-0.175-0.217-0.065-0.059-0.192-0.129-0.297-0.166-0.353-0.123-0.679-0.052-0.957 0.209-0.104 0.097-0.195 0.099-0.302 0.007-0.182-0.157-0.444-0.258-0.705-0.271-0.319-0.016-0.632 0.103-0.878 0.333-0.132 0.123-0.189 0.123-0.33 0.001-0.123-0.107-0.195-0.158-0.296-0.208-0.301-0.149-0.599-0.169-0.918-0.060-0.127 0.043-0.23 0.1-0.358 0.196-0.075 0.056-0.108 0.074-0.149 0.079-0.066 0.008-0.116-0.013-0.154-0.063-0.074-0.097-0.295-0.226-0.451-0.263-0.098-0.023-0.261-0.023-0.368-0.001-0.309 0.065-0.548 0.242-0.661 0.491-0.036 0.078-0.081 0.236-0.091 0.318-0.013 0.108-0.072 0.18-0.145 0.179-0.018-0-0.066-0.013-0.105-0.028zM21.842 20.323c-0.010-0.031-0.032-0.146-0.049-0.254s-0.066-0.418-0.108-0.688c-0.043-0.27-0.078-0.502-0.078-0.517s0.012-0.055 0.028-0.090c0.015-0.035 0.038-0.087 0.050-0.117 0.036-0.087 0.232-0.368 0.287-0.413 0.009-0.007 0.048-0.050 0.087-0.096 0.128-0.15 0.564-0.581 0.589-0.581 0.005 0 0.020-0.011 0.032-0.025 0.056-0.063 0.442-0.335 0.654-0.463 0.246-0.147 0.658-0.34 0.814-0.381 0.082-0.021 0.105-0.012 0.105 0.043 0 0.042-0.054 0.113-0.277 0.361-0.19 0.212-0.224 0.252-0.406 0.477-0.066 0.082-0.132 0.163-0.146 0.18s-0.045 0.057-0.070 0.090c-0.025 0.033-0.070 0.092-0.1 0.131s-0.055 0.076-0.055 0.082c0 0.006-0.016 0.026-0.036 0.046s-0.036 0.044-0.036 0.053c0 0.009-0.005 0.017-0.011 0.017s-0.022 0.017-0.035 0.039c-0.014 0.021-0.060 0.090-0.104 0.153-0.070 0.101-0.151 0.224-0.194 0.293-0.008 0.013-0.040 0.064-0.071 0.114-0.055 0.088-0.080 0.131-0.127 0.215-0.013 0.023-0.034 0.061-0.048 0.084-0.048 0.081-0.213 0.392-0.213 0.401 0 0.005-0.021 0.050-0.046 0.1s-0.061 0.129-0.080 0.175c-0.019 0.046-0.038 0.089-0.043 0.096s-0.050 0.12-0.1 0.251c-0.050 0.132-0.1 0.249-0.111 0.26s-0.034 0.021-0.052 0.021c-0.029 0-0.035-0.007-0.051-0.057zM9.552 20.352c-0.022-0.011-0.038-0.039-0.062-0.11-0.081-0.234-0.227-0.575-0.376-0.872-0.069-0.138-0.245-0.453-0.268-0.478-0.007-0.008-0.034-0.053-0.060-0.099-0.056-0.099-0.059-0.104-0.14-0.225-0.035-0.052-0.063-0.096-0.063-0.099 0-0.029-0.635-0.879-0.683-0.915-0.004-0.003-0.028-0.033-0.054-0.066-0.051-0.067-0.086-0.108-0.15-0.173-0.024-0.024-0.045-0.051-0.048-0.058-0.005-0.015-0.18-0.215-0.311-0.355-0.128-0.137-0.154-0.188-0.114-0.221 0.031-0.026 0.134 0.005 0.39 0.116 0.337 0.146 0.698 0.355 0.973 0.562 0.038 0.029 0.072 0.052 0.076 0.052s0.021 0.013 0.039 0.028c0.018 0.016 0.057 0.051 0.087 0.078s0.058 0.049 0.062 0.049c0.017 0 0.524 0.499 0.592 0.583 0.089 0.11 0.128 0.154 0.142 0.163 0.009 0.005 0.017 0.016 0.017 0.024s0.032 0.052 0.071 0.098c0.121 0.144 0.154 0.211 0.175 0.367l0.019 0.135-0.050 0.329c-0.027 0.181-0.066 0.423-0.085 0.539s-0.046 0.277-0.060 0.359c-0.014 0.082-0.031 0.156-0.038 0.165-0.025 0.030-0.052 0.038-0.082 0.023zM14.705 17.596c0.183-0.050 0.364-0.171 0.475-0.32 0.040-0.053 0.075-0.105 0.079-0.115s0.015-0.029 0.025-0.040c0.010-0.012 0.014-0.021 0.009-0.021s-0.001-0.015 0.009-0.033c0.092-0.171 0.103-0.419 0.028-0.637-0.055-0.159-0.103-0.237-0.224-0.359-0.12-0.12-0.198-0.169-0.359-0.225-0.444-0.152-0.914 0.057-1.124 0.5-0.060 0.128-0.077 0.221-0.070 0.406 0.008 0.217 0.037 0.302 0.174 0.499 0.121 0.175 0.342 0.316 0.559 0.358 0.104 0.020 0.32 0.013 0.418-0.014zM14.414 17.189c-0.073-0.020-0.154-0.065-0.254-0.14-0.037-0.028-0.111-0.083-0.163-0.123s-0.099-0.083-0.103-0.096c-0.010-0.032-0.008-0.211 0.002-0.235 0.013-0.031 0.337-0.284 0.409-0.319 0.093-0.045 0.195-0.045 0.287 0.003 0.082 0.042 0.259 0.218 0.301 0.3 0.060 0.117 0.072 0.241 0.034 0.37-0.020 0.069-0.128 0.176-0.216 0.216-0.090 0.040-0.207 0.050-0.298 0.024zM17.194 17.609c0.245-0.047 0.454-0.189 0.596-0.406 0.038-0.058 0.070-0.115 0.070-0.126s0.005-0.025 0.011-0.032c0.030-0.032 0.061-0.197 0.061-0.329 0-0.163-0.020-0.255-0.086-0.392-0.204-0.422-0.663-0.624-1.099-0.483-0.537 0.173-0.8 0.779-0.551 1.27 0.194 0.381 0.586 0.576 0.998 0.497zM16.899 17.166c-0.059-0.021-0.121-0.062-0.26-0.174-0.063-0.050-0.131-0.104-0.153-0.118l-0.039-0.027v-0.26l0.165-0.133c0.092-0.074 0.203-0.152 0.251-0.176 0.077-0.038 0.094-0.042 0.151-0.036 0.201 0.021 0.465 0.292 0.466 0.479 0.001 0.082-0.032 0.151-0.119 0.246-0.167 0.185-0.321 0.251-0.463 0.2zM24.384 29.677c-0.069-0.021-0.165-0.088-0.199-0.14-0.018-0.027-0.037-0.048-0.042-0.048s-0.010-0.006-0.010-0.013c0-0.007-0.015-0.033-0.032-0.057-0.078-0.106-0.13-0.177-0.141-0.189-0.007-0.007-0.046-0.063-0.088-0.123s-0.080-0.109-0.086-0.109c-0.005 0-0.026-0.026-0.047-0.059s-0.046-0.062-0.055-0.065c-0.010-0.004-0.017-0.013-0.017-0.021s-0.026-0.044-0.057-0.081c-0.031-0.037-0.064-0.075-0.072-0.085-0.186-0.226-0.527-0.578-0.724-0.747-0.106-0.090-0.376-0.294-0.404-0.304-0.010-0.004-0.037-0.021-0.060-0.039-0.112-0.087-0.314-0.195-0.515-0.275-0.198-0.079-0.218-0.115-0.163-0.287 0.016-0.049 0.056-0.173 0.089-0.275 0.111-0.344 0.326-1.009 0.494-1.526 0.092-0.283 0.174-0.536 0.183-0.562 0.021-0.067 0.050-0.083 0.103-0.058 0.048 0.022 0.207 0.181 0.392 0.392 0.069 0.079 0.135 0.152 0.145 0.162s0.025 0.027 0.031 0.037c0.007 0.010 0.036 0.050 0.066 0.087 0.401 0.51 0.787 1.199 1.019 1.82 0.155 0.415 0.226 0.642 0.313 1.007 0.108 0.45 0.161 0.731 0.218 1.146l0.031 0.225-0.051 0.075c-0.072 0.105-0.106 0.126-0.202 0.125-0.042-0.001-0.096-0.007-0.119-0.014zM6.774 29.399c-0.030-0.016-0.141-0.157-0.156-0.198-0.012-0.033 0.082-0.648 0.151-0.988 0.098-0.483 0.328-1.23 0.485-1.579 0.012-0.026 0.040-0.091 0.062-0.144 0.124-0.297 0.371-0.75 0.584-1.070 0.185-0.278 0.288-0.415 0.514-0.679 0.162-0.19 0.221-0.245 0.263-0.245 0.034 0 0.068 0.052 0.094 0.144 0.010 0.036 0.086 0.289 0.169 0.563s0.155 0.516 0.161 0.539c0.032 0.113 0.213 0.722 0.285 0.958 0.079 0.256 0.080 0.267 0.051 0.328-0.022 0.046-0.039 0.060-0.143 0.115-0.547 0.291-1.077 0.775-1.707 1.558-0.044 0.055-0.154 0.2-0.243 0.322s-0.179 0.238-0.198 0.259c-0.048 0.049-0.133 0.095-0.22 0.118-0.086 0.022-0.11 0.022-0.151 0zM11.537 15.507c-0.403-0.042-0.817-0.201-1.149-0.439-0.133-0.096-0.35-0.306-0.465-0.451-0.053-0.067-0.104-0.131-0.113-0.142s-0.017-0.024-0.017-0.027c0-0.003-0.025-0.047-0.055-0.098-0.102-0.172-0.162-0.313-0.226-0.524-0.070-0.234-0.084-0.348-0.084-0.67 0-0.319 0.018-0.452 0.089-0.677 0.057-0.18 0.070-0.213 0.145-0.361 0.065-0.128 0.249-0.42 0.272-0.43 0.005-0.002 0.047-0.046 0.092-0.097 0.093-0.105 0.272-0.264 0.397-0.353 0.258-0.183 0.556-0.31 0.894-0.381 0.182-0.038 0.526-0.053 0.711-0.030 0.721 0.088 1.355 0.493 1.742 1.114 0.092 0.148 0.113 0.187 0.168 0.323 0.063 0.154 0.101 0.277 0.137 0.449 0.031 0.145 0.033 0.176 0.033 0.449 0 0.264-0.002 0.307-0.028 0.431-0.076 0.368-0.213 0.682-0.415 0.952-0.382 0.511-0.9 0.832-1.516 0.94-0.157 0.028-0.457 0.039-0.611 0.023zM11.905 14.501c0.323-0.038 0.583-0.166 0.815-0.4 0.25-0.252 0.388-0.585 0.388-0.933 0-0.22-0.045-0.41-0.143-0.604-0.047-0.093-0.12-0.204-0.134-0.204-0.006 0-0.010-0.007-0.010-0.016 0-0.024-0.224-0.237-0.31-0.295-0.112-0.075-0.284-0.153-0.417-0.188-0.101-0.027-0.143-0.031-0.309-0.032-0.207-0.001-0.302 0.012-0.443 0.061-0.558 0.197-0.916 0.692-0.916 1.268 0 0.228 0.037 0.392 0.134 0.591 0.222 0.456 0.671 0.745 1.189 0.764 0.026 0.001 0.096-0.004 0.156-0.011zM11.58 14.077c-0.183-0.040-0.32-0.118-0.472-0.269-0.101-0.1-0.122-0.128-0.176-0.239-0.070-0.143-0.099-0.26-0.099-0.407 0-0.413 0.287-0.782 0.701-0.9 0.127-0.036 0.328-0.037 0.462-0.001 0.219 0.059 0.421 0.206 0.556 0.403 0.097 0.142 0.162 0.4 0.143 0.572-0.053 0.493-0.453 0.86-0.934 0.857-0.059-0-0.141-0.008-0.181-0.017zM19.77 15.507c-0.417-0.048-0.809-0.198-1.147-0.439-0.214-0.153-0.498-0.463-0.634-0.691-0.137-0.231-0.241-0.503-0.298-0.783-0.031-0.152-0.044-0.537-0.023-0.704 0.032-0.254 0.092-0.465 0.201-0.71 0.016-0.036 0.034-0.074 0.040-0.084s0.022-0.040 0.036-0.066c0.187-0.366 0.574-0.744 0.966-0.946 0.529-0.272 1.106-0.341 1.67-0.198 0.483 0.123 0.942 0.418 1.247 0.803 0.039 0.049 0.078 0.094 0.086 0.099s0.015 0.015 0.015 0.021c0 0.006 0.020 0.042 0.044 0.080 0.103 0.161 0.201 0.368 0.265 0.56 0.095 0.288 0.132 0.679 0.093 0.988-0.084 0.658-0.409 1.222-0.934 1.618-0.219 0.165-0.547 0.32-0.827 0.392-0.232 0.059-0.583 0.086-0.801 0.061zM20.141 14.501c0.321-0.038 0.573-0.16 0.801-0.387 0.18-0.18 0.302-0.393 0.363-0.639 0.028-0.111 0.032-0.152 0.032-0.314-0-0.151-0.005-0.205-0.026-0.29-0.053-0.213-0.15-0.406-0.287-0.575-0.159-0.195-0.431-0.368-0.679-0.433-0.248-0.065-0.561-0.051-0.786 0.033-0.272 0.103-0.487 0.265-0.645 0.487-0.148 0.208-0.226 0.412-0.25 0.649-0.032 0.313 0.046 0.61 0.231 0.887 0.191 0.287 0.553 0.52 0.882 0.569 0.186 0.028 0.225 0.029 0.364 0.012zM19.811 14.077c-0.192-0.041-0.339-0.128-0.492-0.29-0.234-0.249-0.307-0.605-0.191-0.935 0.032-0.091 0.083-0.189 0.122-0.235 0.011-0.013 0.022-0.030 0.025-0.038 0.009-0.028 0.198-0.184 0.28-0.23 0.16-0.091 0.383-0.135 0.558-0.11 0.211 0.030 0.371 0.105 0.521 0.245 0.116 0.108 0.194 0.229 0.244 0.376 0.051 0.15 0.062 0.352 0.029 0.502-0.025 0.113-0.091 0.263-0.151 0.345-0.053 0.072-0.176 0.191-0.25 0.242-0.183 0.124-0.468 0.177-0.694 0.129zM8.709 13.169c-0.162-0.053-0.283-0.129-0.404-0.255-0.149-0.154-0.207-0.256-0.267-0.465-0.030-0.104-0.034-0.14-0.035-0.275-0.001-0.321 0.099-0.556 0.331-0.78 0.143-0.138 0.326-0.234 0.526-0.274 0.132-0.027 0.362-0.018 0.488 0.018 0.145 0.042 0.221 0.086 0.247 0.144 0.040 0.089 0.022 0.186-0.047 0.246-0.008 0.007-0.049 0.066-0.093 0.132-0.095 0.143-0.232 0.414-0.284 0.562-0.083 0.235-0.15 0.547-0.164 0.764-0.008 0.124-0.022 0.149-0.103 0.19-0.057 0.029-0.092 0.028-0.195-0.006zM22.882 13.174c-0.099-0.048-0.109-0.066-0.126-0.235-0.038-0.382-0.114-0.648-0.288-1.006-0.068-0.14-0.251-0.43-0.301-0.477-0.021-0.020-0.024-0.033-0.018-0.093 0.011-0.119 0.044-0.15 0.235-0.214 0.102-0.034 0.134-0.039 0.283-0.044 0.203-0.007 0.321 0.017 0.49 0.099 0.3 0.146 0.501 0.397 0.587 0.736 0.003 0.010 0.010 0.066 0.018 0.125 0.027 0.223-0.037 0.498-0.157 0.674-0.019 0.027-0.034 0.053-0.034 0.057 0 0.014-0.151 0.166-0.215 0.216-0.082 0.063-0.208 0.127-0.316 0.161-0.099 0.031-0.098 0.031-0.157 0.002zM25.555 12.664c-0.011-0.024-0.011-0.064 0-0.171 0.036-0.352 0.043-0.618 0.022-0.888-0.041-0.54-0.127-0.923-0.308-1.38-0.050-0.125-0.196-0.429-0.238-0.494-0.013-0.020-0.032-0.054-0.042-0.077s-0.033-0.060-0.051-0.084c-0.018-0.023-0.043-0.061-0.055-0.084-0.032-0.059-0.179-0.258-0.288-0.39-0.090-0.108-0.359-0.379-0.474-0.476-0.428-0.365-0.879-0.617-1.442-0.808-0.191-0.065-0.339-0.102-0.6-0.152-0.312-0.059-0.503-0.073-0.767-0.055-0.208 0.014-0.278 0.022-0.806 0.096-0.415 0.058-0.547 0.068-0.626 0.051-0.037-0.008-0.083-0.028-0.102-0.044-0.020-0.017-0.068-0.097-0.115-0.194-0.098-0.2-0.232-0.432-0.345-0.602-0.095-0.142-0.269-0.38-0.304-0.414-0.012-0.012-0.061-0.068-0.108-0.124-0.092-0.11-0.284-0.3-0.381-0.377-0.033-0.026-0.065-0.054-0.072-0.061-0.023-0.026-0.16-0.125-0.172-0.125-0.007 0-0.017-0.007-0.022-0.017s-0.047-0.042-0.093-0.074c-0.546-0.373-1.192-0.6-1.933-0.678-0.198-0.021-0.809-0.021-1.006-0-0.599 0.063-1.148 0.233-1.622 0.503-0.149 0.084-0.36 0.226-0.444 0.297-0.042 0.035-0.080 0.064-0.084 0.064-0.032 0-0.423 0.384-0.567 0.557-0.149 0.178-0.262 0.329-0.263 0.349-0 0.008-0.007 0.019-0.015 0.024-0.040 0.025-0.276 0.412-0.392 0.642l-0.078 0.153-0.15 0.074-0.188-0.038c-0.355-0.071-0.606-0.097-0.931-0.097-0.899 0-1.762 0.269-2.49 0.776-0.096 0.067-0.193 0.141-0.215 0.164-0.007 0.007-0.044 0.037-0.083 0.066-0.176 0.131-0.629 0.619-0.701 0.754-0.009 0.016-0.022 0.035-0.030 0.042-0.043 0.036-0.234 0.353-0.338 0.563-0.235 0.471-0.388 0.997-0.447 1.532-0.015 0.139-0.020 0.595-0.010 0.898l0.006 0.18-0.027 0.004c-0.016 0.002-0.063-0.017-0.114-0.046-0.048-0.028-0.16-0.092-0.249-0.144-0.187-0.108-0.243-0.145-0.376-0.246-0.091-0.070-0.25-0.226-0.32-0.315-0.040-0.051-0.165-0.249-0.165-0.262 0-0.005-0.014-0.043-0.031-0.084-0.109-0.269-0.136-0.585-0.083-0.97 0.029-0.21 0.041-0.508 0.041-1.035 0-0.523 0.008-0.679 0.049-0.926 0.046-0.281 0.111-0.488 0.227-0.726 0.136-0.28 0.278-0.475 0.51-0.701 0.325-0.317 0.717-0.535 1.168-0.651 0.248-0.064 0.319-0.072 0.644-0.072 0.333-0.001 0.436 0.011 0.705 0.078 0.218 0.054 0.27 0.047 0.329-0.047 0.032-0.051 0.047-0.115 0.072-0.325 0.023-0.188 0.045-0.289 0.104-0.483 0.142-0.465 0.358-0.817 0.709-1.153 0.234-0.225 0.482-0.387 0.791-0.517 0.35-0.148 0.673-0.216 1.018-0.216 0.42 0 0.775 0.092 1.23 0.319 0.196 0.098 0.234 0.105 0.357 0.069 0.070-0.021 0.143-0.060 0.143-0.077 0-0.028 0.159-0.348 0.231-0.467 0.014-0.023 0.042-0.069 0.061-0.102s0.056-0.087 0.081-0.121c0.025-0.034 0.045-0.065 0.045-0.069s0.036-0.051 0.080-0.105c0.413-0.508 0.853-0.811 1.435-0.99 0.298-0.092 0.698-0.161 0.927-0.161 0.309 0.001 0.784 0.105 1.125 0.246 0.387 0.161 0.742 0.424 0.974 0.72 0.063 0.081 0.206 0.282 0.238 0.335 0.005 0.008 0.053 0.087 0.106 0.176 0.107 0.177 0.269 0.423 0.325 0.494 0.045 0.057 0.188 0.128 0.278 0.137 0.061 0.006 0.070 0.003 0.172-0.055 0.316-0.181 0.719-0.304 1.104-0.337 0.535-0.047 1.138 0.103 1.609 0.401 0.369 0.233 0.703 0.586 0.905 0.958 0.077 0.141 0.104 0.203 0.16 0.365 0.084 0.243 0.122 0.422 0.16 0.762 0.014 0.126 0.057 0.222 0.112 0.251 0.058 0.031 0.159 0.026 0.328-0.018 0.237-0.061 0.366-0.077 0.639-0.077 0.264-0 0.427 0.020 0.656 0.081 0.324 0.087 0.679 0.264 0.957 0.478 0.155 0.119 0.461 0.431 0.521 0.531 0.013 0.021 0.028 0.039 0.034 0.039s0.011 0.007 0.011 0.015c0 0.008 0.026 0.053 0.057 0.099 0.049 0.072 0.178 0.32 0.206 0.395 0.005 0.013 0.016 0.040 0.024 0.060 0.046 0.113 0.11 0.362 0.139 0.541 0.012 0.072 0.023 0.257 0.029 0.476 0.014 0.502 0.004 2.813-0.012 2.869-0.017 0.059-0.092 0.153-0.177 0.22-0.108 0.086-0.717 0.488-0.784 0.517-0.057 0.025-0.103 0.019-0.119-0.016zM14.185 11.782c-0.103-0.167-0.164-0.232-0.398-0.419-0.196-0.157-0.572-0.451-0.677-0.53-0.018-0.013-0.094-0.074-0.171-0.134-0.123-0.098-0.14-0.116-0.152-0.162-0.030-0.116-0.023-0.15 0.047-0.228 0.285-0.32 0.762-0.43 1.172-0.269 0.175 0.069 0.312 0.169 0.428 0.313 0.12 0.15 0.188 0.31 0.225 0.532 0.022 0.133 0.019 0.328-0.006 0.411-0.007 0.024-0.070 0.128-0.139 0.231s-0.125 0.19-0.125 0.194c0 0.004-0.022 0.033-0.049 0.065-0.069 0.082-0.103 0.081-0.155-0.004zM17.414 11.797c-0.028-0.017-0.138-0.214-0.355-0.634-0.052-0.1-0.052-0.096-0.005-0.275 0.030-0.118 0.092-0.279 0.12-0.312 0.009-0.010 0.016-0.023 0.016-0.028 0-0.018 0.133-0.197 0.189-0.255 0.216-0.223 0.528-0.342 0.846-0.323 0.289 0.017 0.538 0.142 0.728 0.365 0.048 0.056 0.057 0.075 0.057 0.115-0 0.027-0.010 0.071-0.023 0.098-0.021 0.046-0.034 0.056-0.167 0.123-0.321 0.161-0.563 0.336-0.796 0.576-0.131 0.135-0.287 0.331-0.381 0.48-0.023 0.037-0.050 0.068-0.059 0.069-0.109 0.012-0.151 0.013-0.169 0.002zM10.133 10.849c-0.067-0.023-0.097-0.064-0.121-0.163-0.042-0.173-0.021-0.469 0.043-0.607 0.006-0.013 0.023-0.051 0.037-0.083 0.027-0.063 0.115-0.193 0.176-0.263 0.063-0.071 0.206-0.174 0.319-0.229 0.124-0.060 0.206-0.083 0.36-0.102 0.231-0.028 0.505 0.039 0.696 0.169 0.079 0.054 0.212 0.182 0.271 0.262 0.067 0.089 0.156 0.268 0.182 0.364 0.025 0.091 0.014 0.136-0.039 0.171-0.042 0.027-0.247 0.052-0.44 0.053-0.086 0-0.188 0.008-0.227 0.016s-0.233 0.078-0.431 0.154c-0.198 0.076-0.429 0.164-0.515 0.194s-0.168 0.061-0.183 0.067c-0.034 0.014-0.082 0.013-0.128-0.003zM21.386 10.778c-0.151-0.087-0.413-0.204-0.575-0.255-0.221-0.071-0.486-0.11-0.819-0.123l-0.209-0.008-0.045-0.041c-0.058-0.052-0.067-0.098-0.041-0.204 0.062-0.252 0.268-0.499 0.528-0.633 0.356-0.184 0.809-0.148 1.119 0.089 0.259 0.198 0.399 0.443 0.429 0.748 0.017 0.175-0.017 0.41-0.068 0.455-0.031 0.028-0.104 0.057-0.143 0.056-0.018-0-0.098-0.038-0.177-0.084z"></path>
</svg>
