<!-- Generated by IcoMoon.io -->
<svg version="1.1" xmlns="http://www.w3.org/2000/svg" width="32" height="32" viewBox="0 0 32 32">
<title>meddling</title>
<path d="M13.226 14.777c0.1-0.065 0.162-0.15 0.497-0.098 0.043-0.283 0.063-0.568 0.11-0.851 0.051-0.309 0.135-0.613 0.196-0.919 0.068-0.338 0.115-0.808 0.323-1.101 0.119-0.168 0.26-0.321 0.354-0.507 0.168-0.333 0.278-0.699 0.378-1.058 0.070-0.254 0.131-0.504 0.19-0.762 0.074-0.321 0.089-0.665 0.198-0.977 0.436-1.244 0.601-2.566 0.834-3.859 0.116-0.641 0.112-1.293 0.211-1.934 0.033-0.214 0.058-0.436 0.070-0.653 0.006-0.094 0.007-0.196 0.009-0.299-0.121 0.356-0.314 0.781-0.347 0.863-0.28 0.704-0.412 1.474-0.647 2.197-0.097 0.301-0.129 0.599-0.193 0.907-0.043 0.213-0.153 0.382-0.211 0.588-0.086 0.309-0.187 0.617-0.299 0.921-0.172 0.472-0.338 0.977-0.559 1.428-0.367 0.753-0.524 1.612-0.652 2.435-0.048 0.317-0.156 0.62-0.205 0.937-0.049 0.309-0.112 0.613-0.17 0.919-0.065 0.348-0.153 0.684-0.153 1.040 0.001 0.144 0.015 0.25 0.045 0.39 0.027 0.129-0.018 0.269 0.021 0.393z"></path>
<path d="M16.657 1.254c-0.045 0.153-0.055 0.332-0.059 0.506 0.089-0.262 0.141-0.486 0.059-0.506z"></path>
<path d="M22.203 1.67c-0.001 0.027 0 0.054 0 0.080 0.025-0.189 0.043-0.379 0.052-0.568-0.015 0.162-0.048 0.321-0.052 0.488z"></path>
<path d="M19.733 13.233c0.005 0.144 0.037 0.284 0.070 0.422 0.013 0.054 0.046 0.189 0.113 0.223 0.062-0.063 0.1-0.181 0.324-0.043 0.016-0.010 0.033-0.021 0.049-0.031-0.080 0.068-0.049-0.125-0.049-0.189 0-0.269 0.046-0.486 0.113-0.748 0.153-0.598 0.238-1.221 0.449-1.8 0.065-0.178 0.097-0.366 0.125-0.553 0.042-0.287 0.146-0.552 0.198-0.836 0.056-0.312 0.164-0.616 0.238-0.927 0.036-0.155 0.089-0.3 0.109-0.457 0.016-0.141 0.018-0.277 0.045-0.418 0.054-0.278 0.092-0.555 0.138-0.833 0.064-0.382 0.178-0.751 0.259-1.128 0.122-0.579 0.010-1.166 0.094-1.745 0.079-0.552 0.082-1.102 0.171-1.653 0.042-0.256 0.022-0.51 0.025-0.769-0.068 0.51-0.189 1.016-0.308 1.511-0.161 0.672-0.289 1.357-0.527 2.008-0.095 0.263-0.12 0.547-0.23 0.805-0.119 0.28-0.204 0.558-0.326 0.837-0.14 0.32-0.189 0.686-0.293 1.017-0.103 0.332-0.208 0.671-0.336 0.992-0.183 0.463-0.186 0.979-0.341 1.459-0.161 0.5-0.109 1.080-0.109 1.599 0 0.416-0.015 0.838-0.001 1.254z"></path>
<path d="M22.255 1.182c0.006-0.060 0.009-0.121 0.006-0.182 0 0.061-0.003 0.121-0.006 0.182z"></path>
<path d="M23.723 16.211c0.012-0.080 0.034-0.161 0.051-0.231 0.103-0.445 0.274-0.86 0.443-1.282 0.238-0.588 0.46-1.186 0.635-1.794 0.094-0.32 0.184-0.64 0.275-0.961 0.080-0.278 0.097-0.564 0.165-0.845 0.059-0.25 0.153-0.486 0.172-0.744 0.019-0.271 0.057-0.525 0.054-0.799-0.006-0.513 0.065-1.032 0.171-1.534 0.043-0.21 0.049-0.4 0.054-0.614 0.005-0.217 0.048-0.431 0.057-0.65 0.007-0.216 0.040-0.448 0.071-0.662 0.034-0.229 0.043-0.463 0.083-0.693 0.074-0.43 0.217-0.9 0.184-1.339-0.016 0.763-0.329 1.45-0.565 2.167-0.229 0.692-0.486 1.376-0.699 2.072-0.15 0.486-0.318 0.957-0.506 1.429-0.106 0.266-0.156 0.515-0.21 0.793-0.064 0.333-0.189 0.668-0.269 0.998-0.134 0.555-0.254 1.133-0.324 1.699-0.028 0.229-0.033 0.437-0.089 0.663-0.058 0.235-0.156 0.475-0.193 0.714-0.098 0.619-0.046 1.238-0.067 1.862-0.022-0.107 0.161-0.303 0.507-0.251z"></path>
<path d="M28.541 8.050c-0.055 0.004-0.068 0.275-0.092 0.33-0.117 0.262-0.254 0.518-0.378 0.778-0.167 0.352-0.309 0.72-0.46 1.080-0.141 0.341-0.192 0.71-0.327 1.049-0.058 0.146-0.152 0.275-0.196 0.427-0.045 0.149-0.054 0.309-0.079 0.461-0.043 0.254-0.101 0.509-0.153 0.762-0.119 0.574-0.236 1.169-0.411 1.728-0.088 0.283-0.086 0.574-0.15 0.861-0.022 0.104-0.070 0.198-0.103 0.299-0.052 0.167-0.061 0.345-0.082 0.518-0.042 0.332-0.113 0.656-0.153 0.988-0.048 0.375-0.193 0.723-0.214 1.099-0.022 0.397-0.178 0.751-0.223 1.137-0.015 0.129-0.071 0.239-0.1 0.347-0.027 0.101-0.006 0.204-0.016 0.306 0.013-0.021 0.033-0.033 0.454 0.021 0.015-0.107-0.043-0.181-0.059-0.281-0.018-0.113 0.028-0.235 0.061-0.341 0.083-0.259 0.177-0.512 0.254-0.774 0.137-0.463 0.239-0.93 0.364-1.397 0.11-0.411 0.248-0.823 0.338-1.238 0.077-0.366 0.149-0.723 0.265-1.080 0.085-0.256 0.189-0.504 0.281-0.759 0.122-0.336 0.18-0.687 0.265-1.034 0.062-0.25 0.158-0.488 0.228-0.735 0.074-0.269 0.095-0.543 0.138-0.818 0.065-0.416 0.259-0.788 0.324-1.205 0.033-0.205 0.037-0.411 0.082-0.616 0.051-0.235 0.106-0.451 0.101-0.693-0.004-0.222 0.025-0.418 0.049-0.634 0.018-0.155 0.055-0.442-0.007-0.588z"></path>
<path d="M23.272 22.459c-0.378 0.458-0.863 0.787-1.379 1.075-0.173 0.605-0.613 1.239-1.138 1.605-0.46 0.32-1.125 0.411-1.511-0.068-0.412-0.513-0.177-1.235 0.305-1.61 0.515-0.399 1.223-0.623 1.873-0.652 0.064-0.003 0.122 0.010 0.174 0.033 0.464-0.236 0.909-0.512 1.406-0.687 0.178-0.063 0.416 0.126 0.271 0.303zM20.254 26.947c0.178 0.021 0.36 0.040 0.54 0.049 0.211 0.009 0.415-0.025 0.617 0.051 0.128 0.048 0.178 0.187 0.106 0.3-0.153 0.236-0.451 0.345-0.705 0.451-0.256 0.106-0.524 0.184-0.799 0.219l-0.735 0.097c0.024-0.027 0.046-0.055 0.068-0.085-0.488-0.048-0.93-0.244-1.174-0.718-0.086-0.167-0.079-0.403 0.042-0.553 0.086-0.11 0.168-0.198 0.303-0.25 0.18-0.068 0.427-0.055 0.552 0.113 0.015 0.021 0.030 0.042 0.045 0.064 0.131 0.1 0.19 0.138 0.4 0.168 0.065 0.009 0.134 0.018 0.201 0.027zM17.974 25.365c-0.233 0.199-0.576 0.275-0.873 0.17-0.379-0.135-0.486-0.486-0.492-0.87-0.167 0.040-0.347 0.042-0.547-0.016-0.443-0.125-0.702-0.461-0.846-0.849-0.419 0.129-0.876 0.144-1.239-0.112-0.577-0.405-0.436-1.206 0.074-1.596 0.272-0.208 0.602-0.293 0.912-0.431 0.324-0.146 0.628-0.333 0.961-0.46 0.339-0.129 0.687-0.126 0.918 0.187 0.086 0.117 0.131 0.269 0.153 0.411 0.007 0.048 0.013 0.103 0.016 0.155 0.106-0.039 0.208-0.085 0.308-0.122 0.381-0.143 0.772 0.164 0.655 0.559-0.115 0.382-0.080 0.754 0.062 1.123 0.135 0.35 0.405 0.785 0.174 1.125 0.033 0.265-0.003 0.528-0.235 0.727zM13.547 21.235c-0.232 0.305-0.653 0.503-1.041 0.382-0.477-0.147-0.687-0.62-0.663-1.077 0.018-0.367 0.126-0.768 0.299-1.113 0.003-0.132 0.028-0.25 0.089-0.39 0.001-0.003 0.001-0.006 0.003-0.009-0.010-0.091-0.012-0.18-0.006-0.263 0.009-0.115 0.040-0.216 0.070-0.317-0.001-0.236-0.003-0.485 0.059-0.714 0.009-0.104 0.030-0.205 0.080-0.312 0.097-0.199 0.4-0.208 0.455 0.030 0.049 0.205 0.015 0.375 0.018 0.58 0.003 0.233 0.104 0.323 0.199 0.518 0.040 0.080 0.065 0.162 0.085 0.247 0.092 0.031 0.18 0.086 0.259 0.17 0.201 0.213 0.286 0.659 0.241 1.086 0.091 0.403 0.121 0.833-0.147 1.183zM16.594 18.986c0.118-0.476 0.37-1.055 0.757-1.383 0.031-0.027 0.065-0.052 0.101-0.074 0.354-0.723 0.809-1.403 1.544-1.795 0.135-0.071 0.323 0.080 0.259 0.222-0.198 0.437-0.46 0.831-0.668 1.266-0.058 0.12-0.119 0.239-0.18 0.358 0.031 0.042 0.055 0.091 0.071 0.147 0.056 0.051 0.095 0.117 0.107 0.199 0.092 0.607-0.101 1.236-0.391 1.769-0.236 0.433-0.729 0.953-1.27 0.582-0.422-0.289-0.44-0.849-0.33-1.29zM19.142 20.087c0.229-0.388 0.558-0.707 0.949-0.942 0.28-0.17 0.726-0.408 1.069-0.299 0.158-0.137 0.302-0.295 0.451-0.431 0.277-0.254 0.573-0.479 0.872-0.71 0.18-0.137 0.418 0.070 0.297 0.257-0.317 0.491-0.635 1.083-1.123 1.432-0.055 0.040-0.116 0.079-0.178 0.119-0.016 0.054-0.037 0.107-0.063 0.161-0.048 0.803-0.558 1.598-1.358 1.901-0.408 0.155-0.942 0.225-1.163-0.245-0.192-0.411 0.039-0.887 0.247-1.244zM25.006 21.006c-0.077 0.054-0.156 0.12-0.244 0.159-0.079 0.034-0.161 0.027-0.244 0.036-0.207 0.024-0.4 0.071-0.596 0.134-0.217 0.068-0.446 0.14-0.646 0.254-0.1 0.058-0.183 0.113-0.281 0.144 0.018-0.296 0.040-0.596 0.073-0.892-0.174-0.484-0.58-0.806-0.823-1.244 0.015-0.024 0.031-0.046 0.043-0.071 0.068-0.134 0.153-0.25 0.257-0.357 0.155-0.159 0.274-0.332 0.402-0.515 0.311-0.449 0.541-0.959 0.666-1.493 0.030-0.129 0.11-0.562-0.144-0.516-0.094 0.016-0.184 0.098-0.266 0.141-0.1 0.052-0.174 0.103-0.253 0.181s-0.144 0.171-0.236 0.232c-0.153 0.101-0.317 0.186-0.469 0.29-0.128 0.086-0.248 0.181-0.384 0.257-0.068 0.040-0.143 0.077-0.208 0.123-0.051 0.036-0.097 0.082-0.153 0.107-0.098 0.045-0.202 0.073-0.305 0.097-0.408-0.318-0.896-0.549-1.41-0.684-0.018 0.001-0.034 0.007-0.052 0.009-0.303 0.033-0.576 0.040-0.837 0.021 0.001-0.004 0.004-0.009 0.007-0.015 0.019-0.049 0.021-0.103 0.042-0.153 0.028-0.074 0.074-0.14 0.109-0.211 0.046-0.095 0.058-0.202 0.106-0.297 0.039-0.079 0.095-0.147 0.14-0.223 0.052-0.086 0.077-0.183 0.125-0.269 0.042-0.074 0.079-0.137 0.103-0.219 0.068-0.238 0.123-0.473 0.207-0.707 0.083-0.229 0.132-0.46 0.14-0.704 0.001-0.025 0.028-0.25 0-0.269-0.027-0.019-0.030-0.010-0.055 0.004-0.010 0.006-0.016 0.031-0.025 0.040-0.021 0.025-0.061 0.040-0.086 0.056-0.049 0.031-0.109 0.068-0.153 0.106-0.036 0.028-0.056 0.074-0.088 0.109-0.052 0.056-0.103 0.106-0.173 0.138-0.065 0.030-0.128 0.058-0.187 0.098-0.092 0.062-0.187 0.132-0.268 0.21-0.098 0.094-0.214 0.155-0.312 0.251-0.055 0.055-0.095 0.126-0.159 0.171-0.062 0.043-0.117 0.064-0.171 0.117-0.052 0.052-0.088 0.094-0.119 0.162-0.031 0.070-0.071 0.119-0.113 0.181-0.086 0.129-0.107 0.29-0.196 0.42-0.065 0.095-0.146 0.161-0.225 0.245-0.095 0.103-0.198 0.195-0.302 0.292-0.052 0.049-0.088 0.119-0.144 0.164-0.037 0.030-0.080 0.052-0.122 0.074-0.146-0.013-0.293-0.019-0.439-0.010-0.341 0.125-0.687 0.232-1.047 0.289-0.070 0.010-0.138 0.016-0.207 0.018 0.005 0.015 0.006 0.031 0.010 0.046 0.001 0.007 0.006 0.013 0.009 0.021-0.152 0.068-0.305 0.132-0.467 0.174-0.436 0.115-0.866 0.137-1.278 0.242-0.033-0.167-0.004-0.35-0.085-0.504-0.107-0.208-0.132-0.452-0.19-0.683-0.019-0.076-0.045-0.152-0.058-0.229-0.012-0.079-0.003-0.159-0.010-0.238-0.009-0.092-0.025-0.18-0.052-0.268-0.027-0.091-0.019-0.18-0.034-0.272-0.007-0.052-0.013-0.225-0.106-0.202-0.065 0.016-0.129 0.178-0.155 0.238-0.037 0.091-0.051 0.18-0.076 0.272-0.019 0.076-0.070 0.14-0.101 0.21-0.060 0.134-0.094 0.274-0.159 0.406-0.037 0.073-0.068 0.149-0.1 0.225-0.033 0.077-0.037 0.159-0.068 0.236-0.064 0.161-0.171 0.295-0.248 0.446-0.088 0.171-0.126 0.357-0.177 0.54-0.037 0.135-0.086 0.268-0.109 0.406-0.018 0.104-0.058 0.195-0.082 0.297-0.022 0.092-0.025 0.18-0.061 0.269-0.083 0.204-0.168 0.415-0.201 0.634-0.007 0.040-0.016 0.079-0.025 0.117-0.040 0.061-0.080 0.12-0.12 0.18-0.375 0.552-0.689 1.138-1.040 1.702-1.074 1.517-2.364 1.544-3.734 2.728-0.018 0.016-0.034 0.036-0.051 0.055-0.234 0.132-0.44 0.305-0.677 0.433-0.323 0.172-0.603 0.409-0.907 0.61-0.156 0.103-0.301 0.222-0.455 0.327-0.085 0.048-0.162 0.104-0.234 0.17-0.054 0.065-0.113 0.126-0.178 0.18-0.073 0.061-0.271 0.155-0.225 0.281 0.183-0.046 0.35-0.113 0.522-0.192 0.097-0.043 0.198-0.089 0.3-0.119 0.070-0.013 0.14-0.033 0.208-0.057 0.064-0.033 0.129-0.062 0.198-0.089 0.195-0.064 0.364-0.181 0.567-0.235 0.189-0.049 0.372-0.074 0.567-0.052 0.269 0.031 0.466 0.128 0.683 0.283 0.192 0.137 0.302 0.342 0.466 0.501 0.062 0.062 0.006 0.12-0.034 0.181-0.034 0.052-0.061 0.095-0.113 0.135-0.051 0.039-0.195 0.091-0.207 0.167 0.062-0.039 0.132-0.036 0.198-0.070 0.156-0.082 0.277-0.201 0.46-0.226 0.251-0.036 0.518 0.196 0.485 0.458-0.019 0.153-0.153 0.33-0.238 0.458-0.134 0.198-0.357 0.302-0.536 0.455-0.152 0.129-0.3 0.238-0.469 0.345-0.097 0.059-0.234 0.106-0.284 0.214 0.054-0.030 0.116-0.030 0.173-0.045 0.128-0.036 0.26-0.083 0.384-0.132 0.335-0.131 0.674-0.251 1.011-0.375 0.11-0.039 0.214-0.071 0.317-0.128 0.141-0.077 0.257-0.17 0.412-0.222 0.266-0.091 0.524-0.19 0.809-0.204 0.231-0.009 0.44-0.129 0.668-0.165 0.122-0.019 0.242 0.006 0.364 0.018 0.119 0.012 0.241 0.055 0.358 0.055 0.173 0 0.366-0.065 0.533-0.11 0.071-0.019 0.143-0.052 0.219-0.055 0.052-0.001 0.106 0.009 0.158 0.007 0.061-0.003 0.12 0.010 0.181 0.001 0.083-0.015 0.167-0.051 0.253-0.037 0.037 0.006 0.082 0.021 0.11 0.048 0.052 0.049 0.031 0.070 0.003 0.135-0.060 0.135-0.097 0.274-0.196 0.384-0.061 0.067-0.126 0.126-0.183 0.199-0.086 0.109-0.155 0.23-0.252 0.332-0.216 0.225-0.445 0.457-0.707 0.629-0.199 0.131-0.382 0.29-0.601 0.393-0.317 0.147-0.638 0.269-0.933 0.463-0.143 0.094-0.275 0.204-0.411 0.308-0.059 0.045-0.141 0.070-0.196 0.116 0.034-0.005 0.071-0.030 0.103-0.045 0.091-0.043 0.182-0.083 0.271-0.129 0.228-0.115 0.46-0.202 0.698-0.293 0.21-0.080 0.424-0.152 0.64-0.211 0.231-0.065 0.448-0.164 0.669-0.248 0.216-0.082 0.431-0.18 0.653-0.242 0.171-0.048 0.344-0.046 0.521-0.056 0.207-0.012 0.408-0.027 0.598-0.106 0.117-0.049 0.219-0.083 0.326-0.152 0.14-0.089 0.296-0.126 0.439-0.213 0.061-0.036 0.134-0.1 0.205-0.109 0.062-0.007 0.126 0.003 0.192-0.006 0.049-0.007 0.104-0.009 0.152-0.028 0.046-0.019 0.086-0.054 0.135-0.068 0.083-0.027 0.214-0.054 0.289 0.010-0.012 0.116-0.116 0.289-0.184 0.376-0.097 0.123-0.192 0.245-0.296 0.361-0.042 0.048-0.089 0.059-0.138 0.095-0.055 0.039-0.104 0.079-0.162 0.115-0.064 0.040-0.12 0.097-0.19 0.129-0.067 0.031-0.123 0.060-0.181 0.106-0.207 0.162-0.424 0.297-0.644 0.436-0.219 0.135-0.388 0.327-0.552 0.524-0.091 0.11-0.205 0.211-0.287 0.327-0.022 0.031-0.043 0.077-0.048 0.116 0.229-0.061 0.427-0.162 0.64-0.266 0.278-0.138 0.571-0.235 0.86-0.35 0.382-0.153 0.778-0.295 1.168-0.428 0.357-0.122 0.693-0.302 1.050-0.419 0.582-0.189 1.181-0.312 1.746-0.55 0.027-0.012 0.056-0.022 0.085-0.034 0.067 0.048 0.135 0.092 0.202 0.143 0.077-0.088 0.198-0.231 0.229-0.347 0.049-0.033 0.1-0.064 0.152-0.089l-0.074-0.064c0.012-0.018 0.024-0.037 0.036-0.055 0.149 0.055 0.293 0.089 0.454 0.085 0.303-0.006 0.598-0.021 0.897-0.068 0.265-0.043 0.522-0.11 0.785-0.159 0.239-0.043 0.458-0.132 0.675-0.236 0.152-0.073 0.312-0.124 0.46-0.207 0.171-0.097 0.33-0.202 0.506-0.291 0.129-0.067 0.256-0.167 0.372-0.256 0.117-0.088 0.241-0.161 0.361-0.244 0.060-0.040 0.289-0.186 0.263-0.262-0.101-0.013-0.211-0.009-0.312-0.004-0.11 0.003-0.214 0.037-0.323 0.031-0.077-0.004-0.15-0.030-0.228-0.031-0.089-0.003-0.177 0.006-0.266 0.003-0.15-0.004-0.299-0.033-0.451-0.031-0.116 0.001-0.216-0.003-0.33-0.027-0.165-0.034-0.324-0.061-0.488-0.101-0.082-0.021-0.159-0.012-0.244-0.012-0.098 0.001-0.195-0.003-0.292-0.010 0.146-0.112 0.29-0.225 0.431-0.339 0.942-0.769 1.647-1.601 2.050-2.679 0.039-0.028 0.077-0.057 0.115-0.088 0.082-0.071 0.137-0.144 0.229-0.205 0.171-0.113 0.315-0.269 0.451-0.422 0.222-0.25 0.48-0.446 0.73-0.668 0.167-0.147 0.332-0.293 0.492-0.448 0.083-0.092 0.165-0.186 0.245-0.281 0.112-0.113 0.216-0.232 0.314-0.357 0.103-0.14 0.231-0.33 0.208-0.518-0.051 0.010-0.113 0.058-0.158 0.082-0.113 0.062-0.219 0.138-0.326 0.211z"></path>
</svg>
