<!-- Generated by IcoMoon.io -->
<svg version="1.1" xmlns="http://www.w3.org/2000/svg" width="32" height="32" viewBox="0 0 32 32">
<title>medicine</title>
<path d="M13.333 4.067v1.2h1.4v4.133h-1.4c-1.040 0-1.821 0.072-2.433 0.512s-0.833 1.204-0.833 2.088c0 0.633 0.229 1.174 0.567 1.555s0.76 0.608 1.155 0.756c0.483 0.181 0.652 0.152 0.944 0.177v6.888l2-0.333v6.958h1.2v-7.159l2-0.333v-6.020c0.292-0.025 0.461 0.006 0.944-0.175 0.395-0.148 0.817-0.378 1.155-0.758s0.569-0.921 0.569-1.555c0-0.767-0.224-1.501-0.808-1.969s-1.393-0.631-2.459-0.631h-1.4v-4.133h1.4v-1.2h-4zM22.067 6v9.333c0 1.415 0.598 2.957 1.289 4.358-0.347 0.638-0.688 1.24-0.97 1.62-0.391-0.319-0.847-0.578-1.386-0.578-1.245 0-2.267 1.022-2.267 2.267v3.333c0 1.245 1.022 2.267 2.267 2.267s2.267-1.022 2.267-2.267v-3.333c0-0.303-0.215-0.514-0.325-0.78l0.194 0.155c0.246-0.308 0.585-0.966 0.9-1.469 0.277 0.477 0.584 1.105 0.798 1.427l0.245-0.163c-0.124 0.279-0.347 0.507-0.347 0.83v3.333c0 1.245 1.022 2.267 2.267 2.267s2.267-1.022 2.267-2.267v-3.333c0-1.245-1.022-2.267-2.267-2.267-0.531 0-0.976 0.259-1.364 0.569-0.254-0.405-0.555-1.003-0.863-1.598 0.636-1.297 1.159-2.802 1.159-4.37v-9.333h-1.2v9.333c0 0.927-0.29 1.907-0.652 2.841-0.417-1.021-0.814-2.081-0.814-2.841v-9.333h-1.2zM4.602 8.067l0.906 4.533h2.317l0.906-4.533h-4.13zM6.066 9.267h1.202l-0.425 2.133h-0.35l-0.427-2.133zM13.333 10.6h4c0.933 0 1.46 0.169 1.709 0.369s0.358 0.465 0.358 1.031c0 0.367-0.104 0.576-0.266 0.758s-0.406 0.328-0.678 0.43c-0.253 0.095-0.317 0.069-0.523 0.098v-1.886h-5.2v1.886c-0.206-0.029-0.269-0.004-0.522-0.098-0.272-0.102-0.518-0.247-0.68-0.43s-0.264-0.391-0.264-0.758c0-0.717 0.111-0.953 0.333-1.113s0.773-0.287 1.733-0.287zM13.933 12.6h2.8v0.8h-1.4v1.2h1.4v0.8h-1.4v1.2h1.4v0.8h-1.4v1.2h1.4v0.892l-2.8 0.467v-7.359zM3.902 13.4l0.722 2.934c-0.38 0.089-0.78 0.119-1.097 0.38-0.505 0.416-0.794 1.104-0.794 1.953v9.266h7.867v-9.266c0-0.849-0.287-1.538-0.792-1.953-0.317-0.261-0.718-0.29-1.098-0.38l0.723-2.934h-5.531zM5.431 14.6h2.47l-0.65 2.639 0.694 0.064c0.514 0.048 0.89 0.165 1.1 0.337s0.355 0.413 0.355 1.027v0.733h-4.733v1.2h4.733v6.133h-5.467v-8.066c0-0.613 0.144-0.854 0.355-1.027s0.588-0.29 1.102-0.337l0.694-0.064-0.652-2.639zM21 21.933c0.596 0 1.067 0.471 1.067 1.067v3.333c0 0.596-0.471 1.067-1.067 1.067s-1.067-0.471-1.067-1.067v-3.333c0-0.596 0.471-1.067 1.067-1.067zM27 21.933c0.596 0 1.067 0.471 1.067 1.067v3.333c0 0.596-0.471 1.067-1.067 1.067s-1.067-0.471-1.067-1.067v-3.333c0-0.596 0.471-1.067 1.067-1.067z"></path>
</svg>
