<!-- Generated by IcoMoon.io -->
<svg version="1.1" xmlns="http://www.w3.org/2000/svg" width="32" height="32" viewBox="0 0 32 32">
<title>meteoric_phenomenon</title>
<path d="M2.603 20.443c0.876-2.386 3.1-4.769 5.648-6.052 1.539-0.775 1.614-0.753 0.867 0.257-0.489 0.662-0.562 0.956-0.328 1.328 0.749 1.19 1.829 0.596 3.167-1.741 0.9-1.573 1.896-2.603 3.366-3.484 1.356-0.813 1.534-0.736 0.631 0.275-1.019 1.141-1.253 1.813-0.769 2.214 0.548 0.455 1.015 0.12 2.738-1.966 1.523-1.845 3.136-3.129 4.391-3.498l0.699-0.206-0.769 0.775c-0.864 0.871-0.951 1.206-0.371 1.428 0.624 0.24 1.482-0.352 4.089-2.823 1.334-1.264 2.846-2.445 3.36-2.624l0.935-0.326-1.154 0.987c-0.79 0.676-1.299 1.426-1.616 2.378-0.5 1.505-1.189 2.263-3.356 3.692-1.516 1-1.861 1.813-0.714 1.685 0.376-0.042 0.911-0.282 1.189-0.533 0.37-0.335 0.504-0.359 0.504-0.090 0 0.594-1.987 2.308-3.785 3.266-1.867 0.995-3.368 2.399-3.074 2.875 0.267 0.433 1.177 0.122 2.639-0.902l1.234-0.864-0.535 0.908c-0.781 1.325-1.297 1.726-3.822 2.967-2.434 1.197-3.166 1.913-2.445 2.393 0.231 0.154 0.769 0.215 1.195 0.137 0.717-0.131 0.752-0.097 0.46 0.449-0.174 0.325-0.844 1.119-1.49 1.765-3.364 3.364-8.958 3.877-11.685 1.071-1.649-1.698-2.025-3.495-1.2-5.741zM4.208 24.717c0.918 1.363 2.22 2.024 3.984 2.024 2.486 0 4.228-1.421 4.618-3.768 0.11-0.663 0.287-1.409 0.394-1.658 0.136-0.319 0.017-0.499-0.403-0.608-0.499-0.131-0.547-0.247-0.296-0.716 0.165-0.308 0.678-0.83 1.14-1.159s0.97-0.84 1.128-1.136c0.234-0.438 0.013-0.377-1.189 0.329-0.812 0.476-1.639 0.999-1.838 1.16-0.558 0.454-1.095-0.197-0.627-0.761 0.322-0.388 0.257-0.389-0.646-0.012-0.552 0.231-1.453 0.419-2.001 0.419-1.81 0-4.063 1.293-4.627 2.657-0.419 1.013-0.277 2.28 0.363 3.229z"></path>
</svg>
