<!-- Generated by IcoMoon.io -->
<svg version="1.1" xmlns="http://www.w3.org/2000/svg" width="33" height="32" viewBox="0 0 33 32">
<title>miasma</title>
<path d="M2.441 15.752c0.261 0.095 0.466 0.084 0.722 0.087 0.011-0.003 0.047-0.018 0.066-0.074 0.016-0.063-0.003-0.163-0.003-0.229-0.003-0.118 0.045-0.163 0.124-0.255 0.071-0.084 0.079-0.174 0.145-0.263 0.076-0.108 0.226-0.25 0.363-0.277 0.092-0.018 0.192-0.032 0.29-0.045 0.016 0.016 0.034 0.029 0.050 0.042 0.068 0.066 0.145 0.121 0.224 0.171 0.134-0.005 0.269-0.005 0.403-0.003 0.182 0.042 0.35 0.013 0.508-0.082 0.174-0.132 0.345-0.266 0.511-0.403 0.369-0.298 0.65-0.674 0.966-1.022 0.021-0.003 0.045-0.005 0.066-0.008 0.008 0.003 0.018 0.005 0.026 0.008 0.108 0.042 0.216 0.066 0.327 0.079 0.050-0.050 0.103-0.095 0.166-0.129 0.011-0.011 0.024-0.018 0.034-0.029 0.042-0.040 0.084-0.079 0.132-0.113 0.295-0.308 0.574-0.577 1.074-0.608 0.537-0.034 0.811 0.266 1.161 0.556 0.108 0.058 0.208 0.134 0.303 0.226 0.008 0.011 0.018 0.016 0.026 0.024 0.084 0.090 0.129 0.19 0.15 0.295 0.179-0.003 0.358-0.011 0.537-0.013 0.145-0.061 0.316-0.063 0.492 0.032 0.084 0.021 0.163 0.050 0.245 0.082 0.332 0.055 0.719-0.092 1.032-0.153 0.456-0.084 0.919-0.126 1.356 0.055 0.118 0.047 0.205 0.121 0.269 0.208 0.018 0 0.037 0 0.053 0 0.355-0.005 0.698-0.090 1.043-0.155 0.274-0.053 0.566-0.063 0.837 0.008 0.124 0.034 0.24 0.092 0.361 0.124 0.192 0.053 0.445 0.029 0.632 0.026 0.174-0.005 0.4 0.026 0.569-0.024 0.108-0.029 0.2-0.155 0.292-0.219 0.119-0.076 0.232-0.142 0.371-0.163 0.074-0.079 0.153-0.142 0.237-0.19 0.040-0.024 0.082-0.042 0.121-0.058 0.016-0.005 0.029-0.013 0.045-0.018 0.058-0.018 0.116-0.034 0.176-0.042 0.053-0.018 0.108-0.034 0.166-0.045 0.055-0.011 0.111-0.018 0.169-0.021 0.14-0.011 0.282 0.005 0.427 0.053 0.087 0.029 0.166 0.068 0.245 0.113 0.379 0.066 0.735 0.261 0.985 0.569 0.15 0.113 0.287 0.253 0.403 0.419 0.018 0.024 0.029 0.050 0.042 0.074 0 0 0.003 0 0.003 0 0.047-0.016 0.084-0.076 0.142-0.095 0.097-0.034 0.205-0.021 0.305-0.011 0.369 0.034 0.73 0.147 1.090 0.090 0.050-0.095 0.132-0.179 0.263-0.24 0.845-0.4 1.896-0.153 2.597 0.435 0.090 0.076 0.145 0.161 0.174 0.248 0.032 0.003 0.066 0.003 0.097 0.008 0.092 0.013 0.237 0.037 0.334 0.076 0.261 0.105 0.492 0.308 0.777 0.358 0.153 0.026 0.305-0.008 0.458-0.003 0.153 0.008 0.258 0.034 0.398 0.108 0.1 0.053 0.161 0.092 0.229 0.171 0.021 0.024 0.058 0.087 0.087 0.111 0.097 0.074 0.116-0.016 0.198-0.003 0.090 0.016 0.079 0.153 0.097 0.219 0.029 0.105 0.105 0.237 0.221 0.271 0.092 0.029 0.216 0 0.311-0.003 0.061 0 0.147 0.018 0.203-0.005 0.055-0.021 0.053-0.071 0.113-0.066 0.050 0.005 0.045 0.061 0.087 0.074s0.119-0.026 0.155-0.040c0.079-0.024 0.166-0.034 0.242-0.066 0.042-0.016 0.074-0.040 0.108-0.063 0.074-0.055 0.111-0.082 0.2-0.121 0.121-0.055 0.226-0.134 0.358-0.161 0.063-0.013 0.126-0.021 0.192-0.034 0.105-0.018 0.213-0.018 0.319-0.037 0.192-0.032 0.369-0.021 0.553-0.082 0.040-0.134 0.003-0.4-0.003-0.511-0.011-0.216-0.021-0.429-0.029-0.643-0.005-0.153 0.011-0.147-0.053-0.237-0.047-0.066-0.105-0.129-0.158-0.192-0.105-0.129-0.095-0.24-0.092-0.4 0.003-0.158-0.016-0.287-0.055-0.448-0.119-0.485-0.363-0.893-0.614-1.319-0.132-0.226-0.392-0.471-0.566-0.645-0.166-0.166-0.332-0.311-0.527-0.442-0.437-0.298-0.977-0.369-1.496-0.411-0.121-0.008-0.216-0.003-0.324 0.026-0.005 0.003-0.032 0.045-0.042 0.050-0.016-0.2-0.011-0.39-0.045-0.587-0.016-0.1-0.042-0.187-0.071-0.284-0.047-0.145-0.066-0.274-0.153-0.406-0.084-0.126-0.171-0.255-0.269-0.374-0.121-0.145-0.287-0.24-0.442-0.35-0.097-0.071-0.208-0.158-0.282-0.258-0.042-0.061-0.063-0.092-0.132-0.132-0.274-0.153-0.608-0.255-0.919-0.306-0.287-0.047-0.579-0.145-0.872-0.155-0.079-0.003-0.124 0.021-0.187-0.029-0.184-0.142-0.216-0.387-0.361-0.558-0.308-0.358-0.521-0.782-0.859-1.122-0.258-0.258-0.598-0.529-0.969-0.572-0.229-0.026-0.5-0.092-0.73-0.061-0.158 0.024-0.311 0.116-0.437 0.211-0.066 0.053-0.121 0.121-0.192 0.163-0.021-0.055-0.026-0.113-0.018-0.176-0.016-0.158-0.024-0.316-0.029-0.477 0.003-0.113-0.016-0.192-0.053-0.303-0.071-0.208-0.184-0.371-0.279-0.564-0.169-0.337-0.479-0.587-0.795-0.787-0.213-0.14-0.424-0.284-0.635-0.429-0.147-0.153-0.287-0.295-0.5-0.35-0.176-0.045-0.332-0.113-0.498-0.055-0.061 0.021-0.121 0.040-0.184 0.058-0.040-0.005-0.076 0.005-0.119-0.003-0.050-0.011-0.108-0.055-0.15-0.087-0.097-0.074-0.155-0.155-0.282-0.179-0.042-0.008-0.074-0.003-0.113-0.024-0.029-0.016-0.047-0.042-0.079-0.053-0.026-0.008-0.061-0.003-0.092-0.008-0.082-0.016-0.155-0.053-0.24-0.063-0.134-0.016-0.29-0.011-0.424-0.003-0.119 0.008-0.266 0.013-0.379 0.040-0.063 0.016-0.113 0.055-0.174 0.079-0.105 0.045-0.208 0.055-0.308 0.111-0.24 0.137-0.495 0.342-0.643 0.574-0.063 0.1-0.090 0.166-0.097 0.253-0.103 0.092-0.203 0.187-0.306 0.277-0.163 0.142-0.25 0.337-0.358 0.519-0.008 0.013-0.013 0.024-0.021 0.037-0.066-0.063-0.132-0.124-0.19-0.187-0.234-0.258-0.445-0.524-0.711-0.753-0.248-0.219-0.582-0.474-0.906-0.574-0.155-0.045-0.324-0.034-0.482-0.032-0.198 0.005-0.363 0.034-0.553 0.105-0.145 0.055-0.261 0.134-0.395 0.213-0.095 0.053-0.19 0.087-0.271 0.163-0.079 0.074-0.15 0.158-0.219 0.242-0.208 0.261-0.366 0.519-0.477 0.837-0.053 0.145-0.066 0.292-0.092 0.442-0.008 0.055-0.003 0.145-0.037 0.19-0.040 0.055-0.050 0.032-0.105 0.021-0.087-0.055-0.182-0.087-0.287-0.1-0.166-0.032-0.332-0.063-0.5-0.092-0.416-0.066-0.861-0.082-1.285-0.055-0.411 0.024-0.751 0.219-1.106 0.408-0.282 0.15-0.498 0.25-0.64 0.537-0.105 0.211-0.14 0.44-0.163 0.672-0.045 0.44-0.040 0.89 0.092 1.314 0.087 0.271 0.216 0.537 0.319 0.803 0.011 0.026 0.021 0.050 0.032 0.076-0.029-0.003-0.058-0.005-0.090-0.008-0.2-0.005-0.363 0.108-0.527 0.221-0.174 0.124-0.319 0.245-0.416 0.437-0.097 0.19-0.134 0.548-0.166 0.756-0.029 0.19-0.042 0.379-0.034 0.572 0.005 0.082 0.016 0.2 0.037 0.327-0.055 0-0.113 0-0.169 0-0.121 0-0.232-0.016-0.353-0.029-0.087-0.013-0.184-0.026-0.266 0.005-0.132 0.047-0.245 0.153-0.366 0.224-0.211 0.126-0.561 0.134-0.482 0.466 0.029 0.126 0.029 0.179 0.029 0.327 0 0.134 0.008 0.271 0.003 0.403-0.003 0.047 0.005 0.090-0.026 0.129-0.35-0.074-0.687-0.332-1.035-0.126-0.084 0.050-0.174 0.079-0.248 0.147-0.084 0.079-0.1 0.155-0.153 0.248-0.063 0.108-0.179 0.182-0.25 0.29-0.058 0.095-0.121 0.195-0.184 0.287-0.045 0.063-0.108 0.087-0.15 0.153-0.053 0.076-0.037 0.155-0.037 0.248 0.005 0.245-0.034 0.54-0.187 0.74-0.108 0.142-0.298 0.171-0.269 0.384 0.011 0.061 0.021 0.124 0.074 0.153 0.034-0.018 0.068-0.016 0.103 0.011 0.129 0.079 0.248 0.171 0.358 0.277 0.387 0.353 0.664 0.795 1.18 0.985z"></path>
<path d="M11.8 17.161c0.277-0.047 0.553 0.034 0.814 0.113 0.142 0.045 0.29 0.095 0.432 0.129-0.058 0-0.116 0.003-0.169 0.005-0.363 0.011-0.724-0.003-1.085 0.005-0.184 0.005-0.345-0.037-0.506-0.113 0.169-0.053 0.337-0.108 0.514-0.14zM10.030 17.751c0.479-0.008 0.956 0.021 1.433 0 0.258-0.013 0.519-0.050 0.769-0.113 0.129-0.034 0.263-0.095 0.395-0.111 0.195-0.021 0.39 0.068 0.579 0.092 0.163 0.018 0.311 0.026 0.471-0.011 0.242-0.055 0.5-0.229 0.708-0.348 0.1-0.058 0.153-0.145 0.232-0.229 0.113 0 0.226-0.003 0.34-0.003 0.166-0.003 0.384-0.029 0.556 0.016 0.026 0.008 0.050 0.016 0.076 0.024-0.016-0.003-0.034-0.003-0.050-0.003-0.087-0.011-0.158-0.047-0.242-0.021-0.097 0.029-0.169 0.116-0.258 0.163-0.061 0.034-0.169 0.108-0.245 0.092 0.263 0 0.424-0.016 0.569 0.008 0.205 0.037 0.432 0.153 0.64 0.090 0.15-0.047 0.311-0.097 0.453-0.163 0.011-0.005 0.024-0.008 0.034-0.011 0.090 0.026 0.182 0.050 0.277 0.061 0.187 0.021 0.366 0.047 0.55 0.082 0.19 0.037 0.39 0.145 0.577 0.155 0.105 0.005 0.213-0.003 0.316-0.003 0.074 0.003 0.161 0.016 0.232-0.003 0.097-0.026 0.132-0.1 0.203-0.158 0.050-0.042 0.113-0.071 0.153-0.124 0.045-0.063 0.050-0.311 0.226-0.471 0-0.011 0-0.024 0-0.034-0.061-0.011-0.198 0.053-0.253 0.066-0.203 0.045-0.413 0.055-0.616 0.103-0.184 0.042-0.348 0.055-0.537 0.055-0.182 0-0.321-0.029-0.498-0.074-0.282-0.071-0.59-0.042-0.877-0.040-0.382 0.003-0.753-0.061-1.132-0.076-0.274-0.011-0.445 0.045-0.685 0.15-0.042 0.018-0.137 0.021-0.166 0.047-0.032 0.029-0.016 0.045 0.013 0.055-0.032 0.021-0.061 0.045-0.1 0.071-0.087 0.061-0.19 0.079-0.292 0.105-0.111 0.032-0.198 0.103-0.308 0.14-0.045 0.016-0.095 0.026-0.145 0.034-0.003-0.021-0.013-0.045-0.021-0.063-0.008-0.016-0.037-0.032-0.042-0.045-0.011-0.026 0.005-0.061-0.008-0.082-0.032-0.055-0.097-0.050-0.15-0.068-0.137-0.050-0.232-0.19-0.348-0.271-0.061-0.047-0.137-0.084-0.19-0.14-0.082-0.084-0.15-0.169-0.24-0.25-0.105-0.092-0.208-0.126-0.353-0.15-0.274-0.045-0.379 0.255-0.558 0.403-0.219 0.174-0.485 0.324-0.737 0.45-0.034-0.003-0.071-0.005-0.111-0.008-0.187-0.018-0.366-0.066-0.556-0.074-0.097-0.003-0.195 0.005-0.292 0.005-0.137 0.003-0.274 0.005-0.411-0.003-0.147-0.008-0.284-0.053-0.429-0.066-0.095-0.011-0.19-0.008-0.284-0.005-0.158-0.061-0.442-0.068-0.561-0.074-0.008-0.003-0.016-0.005-0.026-0.008-0.145-0.040-0.282-0.092-0.432-0.105-0.203-0.018-0.411-0.016-0.614-0.005-0.029 0-0.055 0.005-0.084 0.008-0.124-0.021-0.25-0.045-0.377-0.087-0.121-0.045-0.271-0.105-0.384-0.176-0.082-0.053-0.15-0.119-0.237-0.169-0.182-0.097-0.453-0.174-0.661-0.14-0.063 0.011-0.116 0.034-0.176 0.050-0.108 0.024-0.226 0.016-0.327 0.063-0.063 0.026-0.097 0.074-0.147 0.116-0.068 0.055-0.147 0.087-0.224 0.129-0.034 0.018-0.066 0.034-0.097 0.050-0.429 0.016-0.872 0.1-1.285 0.216-0.116 0.032-0.213 0.055-0.334 0.053 0.063 0.011 0.013 0.026-0.037 0.047 0.008 0.1-0.153 0.174-0.229 0.2-0.121 0.040-0.229 0.103-0.353 0.15-0.042 0.016-0.103 0.018-0.124 0.066 0.040 0.071 0.095 0.066 0.166 0.066 0.187 0.005 0.374 0.003 0.561 0.003 0.1 0 0.2-0.003 0.298-0.003 0.158 0.005 0.305-0.029 0.461-0.058 0.232-0.040 0.477-0.016 0.711-0.016 0.337 0 0.677-0.011 1.014 0.003 0.195 0.005 0.387 0.032 0.579 0.050 0.14 0.013 0.306-0.008 0.437 0.018 0.163 0.032 0.313 0.116 0.45 0.203 0.261 0.163 0.656 0.158 0.951 0.174 0.329 0.013 0.656 0.008 0.985 0.008 0.479 0 0.953-0.074 1.43-0.082z"></path>
<path d="M10.546 19.039c0.224 0.008 0.442 0.058 0.669 0.071 0.342 0.021 0.748 0.032 1.093-0.018 0.392-0.055 0.745-0.271 1.122-0.379 0.105-0.032 0.219-0.013 0.327-0.013 0.311 0 0.624 0 0.938 0 0.661 0 1.317 0.008 1.975-0.045 0.084 0.045 0.171 0.092 0.255 0.132 0.205 0.092 0.435 0.142 0.65 0.213 0.192 0.063 0.413 0.076 0.616 0.084 0.082 0.003 0.129 0 0.198-0.040 0.229-0.134 0.44-0.284 0.69-0.395 0.179-0.076 0.363-0.14 0.545-0.205 0.258 0.008 0.527 0.016 0.772-0.016 0.053-0.008 0.108-0.016 0.163-0.021 0.068 0.108 0.161 0.213 0.263 0.287 0.124 0.087 0.305 0.192 0.461 0.203 0.161 0.008 0.229-0.058 0.363-0.119 0.174-0.076 0.371-0.147 0.516-0.274 0.082-0.068 0.155-0.15 0.234-0.221 0.134 0 0.271 0 0.408 0 0.145 0 0.295-0.016 0.44-0.008 0.271 0.013 0.511 0.166 0.774 0.234 0.316 0.084 0.716 0.087 1.022-0.029 0.232-0.087 0.471-0.037 0.679-0.179 0.184-0.129 0.392-0.169 0.611-0.169 0.079 0 0.187 0.018 0.266 0 0.068-0.016 0.084-0.042 0.174-0.037-0.032-0.040-0.061-0.026-0.097-0.047-0.071-0.040-0.103-0.082-0.116-0.068-0.305 0-0.611 0-0.919 0-0.284 0.003-0.558 0.016-0.837-0.045-0.198-0.047-0.406-0.047-0.598-0.111-0.184-0.063-0.379-0.103-0.561-0.174-0.158-0.063-0.308-0.142-0.479-0.163-0.184-0.021-0.429-0.029-0.606 0.026-0.087 0.029-0.145 0.074-0.226 0.116-0.147 0.074-0.313 0.105-0.471 0.147-0.321 0.082-0.606 0.121-0.927 0.053-0.277-0.061-0.55-0.034-0.832-0.061-0.134-0.013-0.263-0.029-0.398-0.047-0.029-0.005-0.063-0.013-0.092-0.008-0.066 0.016-0.15 0.092-0.211 0.119-0.1 0.047-0.203 0.095-0.303 0.137-0.229 0.090-0.524 0.050-0.766 0.050-0.087 0-0.174-0.008-0.258-0.003-0.15 0.005-0.298 0.058-0.445 0.097-0.132 0.034-0.266 0.084-0.403 0.103-0.205 0.032-0.413 0.029-0.621 0.029-0.237-0.003-0.471 0-0.708 0-0.097-0.003-0.184-0.005-0.279 0.013-0.298 0.063-0.598 0.063-0.893 0.119-0.298 0.055-0.598 0.026-0.893 0.076-0.392 0.061-0.806 0.018-1.198 0.018-0.329 0-0.658-0.005-0.985 0-0.066 0-0.111 0-0.169 0.034-0.095 0.058-0.153 0.103-0.266 0.132-0.076 0.021-0.145 0.045-0.219 0.071-0.063 0.024-0.108 0.024-0.182 0.032-0.116 0.008-0.224 0.037-0.342 0.034-0.137 0-0.271-0.024-0.408-0.034-0.068-0.008-0.147-0.016-0.216-0.008-0.1 0.011-0.187 0.063-0.287 0.076-0.203 0.029-0.45 0.021-0.65-0.003 0.169 0.029 0.334 0.103 0.503 0.14 0.377 0.082 0.753 0.079 1.135 0.092z"></path>
<path d="M7.461 18.831c-0.055-0.005-0.095-0.058-0.147-0.076-0.192-0.068-0.424-0.042-0.624-0.058-0.090-0.008-0.184-0.026-0.271-0.011-0.058 0.013-0.103 0.032-0.163 0.034-0.092 0.003-0.179-0.013-0.255-0.068-0.034-0.024-0.061-0.071-0.103-0.084-0.066-0.021-0.169-0.003-0.237-0.003-0.124 0-0.226-0.024-0.321 0.040-0.026 0.016-0.045 0.042-0.066 0.058-0.079 0.058-0.176 0.092-0.269 0.124-0.19 0.068-0.377 0.018-0.564 0.082-0.082 0.029-0.171 0.016-0.25 0.042-0.047 0.016-0.082 0.047-0.124 0.074-0.171 0.108-0.416 0.116-0.608 0.153 0.087-0.008 0.187-0.011 0.274-0.003 0.184 0.016 0.361 0.113 0.556 0.142 0.369 0.053 0.732 0.047 1.109 0.047 0.179 0 0.356 0 0.535-0.008 0.277-0.013 0.495-0.076 0.753-0.161 0.095-0.032 0.079-0.008 0.155 0.013 0.108 0.029 0.205-0.026 0.311-0.037 0.063-0.005 0.14 0 0.203 0.011 0.129 0.026 0.242 0.029 0.374 0.029 0.095 0 0.263-0.029 0.35-0.003 0.024 0.008 0.026 0.034 0.047 0.037 0.087 0.016 0.24 0.008 0.277-0.087 0.037-0.097-0.279-0.124-0.332-0.129-0.187-0.024-0.398 0.026-0.577-0.045-0.047-0.018-0.082-0.053-0.124-0.076-0.084-0.045-0.153-0.037 0.092-0.037z"></path>
<path d="M11.865 20.060h-0.348c-0.137 0-0.245 0.008-0.377 0.029-0.029 0.005-0.055 0.008-0.084 0.008 0.408 0 0.816 0.003 1.225 0.003-0.029-0.018-0.058-0.034-0.092-0.042-0.047-0.011-0.319 0.003-0.324 0.003z"></path>
<path d="M11.165 19.95c-0.050-0.011-0.113-0.005-0.166-0.008-0.176-0.011-0.355-0.024-0.529-0.042-0.287-0.029-0.558-0.029-0.851-0.029-0.219 0-0.442-0.016-0.661-0.003-0.079 0.005-0.145 0.040-0.221 0.058-0.271 0.074-0.561 0.053-0.84 0.068-0.092 0.003-0.345-0.021-0.416 0.055 0.066 0.008 0.866 0.024 0.819 0.211 0.295 0.037 0.606 0.045 0.906 0.029 0.063-0.005 0.118-0.011 0.182-0.026 0.074-0.016 0.145-0.042 0.219-0.053 0.061-0.011 0.137 0.003 0.195-0.005 0.111-0.016 0.211-0.053 0.316-0.082 0.005 0 0.021-0.024 0.029-0.029 0.061-0.024 0.324 0.003 0.358 0.003h0.15c0.132 0 0.269 0.011 0.403 0h-0.032c0.192-0.119 0.174-0.142 0.14-0.147z"></path>
<path d="M31.711 19.226c-0.092-0.005-0.169 0.084-0.255 0.111-0.063 0.018-0.147 0.047-0.211 0.050-0.205 0.008-0.416-0.084-0.627-0.084-0.129 0-0.25 0.018-0.379 0.040-0.121 0.018-0.242 0.034-0.366 0.047-0.055 0.011-0.105 0.032-0.15 0.063-0.061 0.034-0.129 0.029-0.2-0.021-0.169-0.034-0.34-0.061-0.511-0.079-0.071-0.016-0.145-0.021-0.216-0.016-0.047 0.032-0.097 0.058-0.153 0.074-0.203 0.074-0.253 0.047-0.413-0.058-0.037-0.026-0.071-0.076-0.108-0.087-0.079-0.024-0.221-0.003-0.305 0-0.219 0.008-0.427 0.134-0.64 0.187-0.063 0.013-0.126 0.016-0.192 0.013-0.071 0.013-0.145 0.024-0.216 0.034-0.087-0.013-0.116-0.105-0.119-0.184-0.158-0.029-0.363 0.026-0.527 0.029-0.19 0.005-0.379-0.003-0.566-0.003-0.037 0-0.145-0.011-0.192-0.003-0.121 0.018-0.282 0.116-0.387 0.14-0.258 0.063-0.514 0.058-0.774 0.053-0.145-0.003-0.224 0.068-0.358 0.108-0.2 0.058-0.424 0.013-0.621 0.105-0.1 0.047-0.182 0.119-0.279 0.166-0.1 0.037-0.205 0.063-0.313 0.076-0.121 0.042-0.245 0.063-0.371 0.068-0.147 0.008-0.311-0.013-0.456-0.042-0.216-0.045-0.277-0.174-0.453-0.263-0.14-0.074-0.384-0.032-0.529-0.032-0.221-0.003-0.408 0.016-0.614 0.090-0.1 0.034-0.19 0.047-0.298 0.055-0.532 0.045-1.080 0.011-1.612 0.008-0.129 0-0.258-0.008-0.384 0.008-0.111 0.013-0.213 0.055-0.324 0.066-0.395 0.040-0.806 0.003-1.204 0.005-0.303 0.003-0.503-0.021-0.793-0.090-0.182-0.045-0.387-0.050-0.572-0.013-0.395 0.074-0.756 0.253-1.164 0.253-0.527 0.003-1.051 0.003-1.577 0.003 0.040 0.024 0.079 0.055 0.124 0.074 0.137 0.055 0.298 0.034 0.442 0.037 0.1 0 0.187-0.016 0.287-0.029 0.176-0.026 0.363-0.008 0.54-0.011 0.076 0 0.126 0.003 0.195 0.026 0.042 0.016 0.082 0.024 0.118 0.050 0.021 0.013 0.047 0.055 0.071 0.068 0.097 0.053 0.248 0.024 0.355 0.045 0.053 0.011 0.108 0.032 0.161 0.040 0.271 0.037 0.566 0.018 0.843 0.037 0.113 0.008 0.071-0.008 0.15 0.055 0.005 0.005 0.029 0.045 0.042 0.050 0.068 0.034 0.176 0 0.242-0.013 0.403-0.090 0.806-0.274 1.225-0.282 0.363-0.008 0.735-0.024 1.093 0.008 0.458 0.042 0.914 0.021 1.372 0.037 0.195 0.008 0.416 0.008 0.608 0.055 0.132 0.034 0.261 0.076 0.395 0.105 0.25 0.055 0.424 0.113 0.619 0.29 0.066 0.061 0.092 0.105 0.19 0.121 0.126 0.021 0.324-0.029 0.453-0.047 0.129-0.016 0.269-0.034 0.395-0.079 0.182-0.061 0.348-0.187 0.519-0.277 0.292-0.153 0.598-0.282 0.903-0.403 0.145-0.058 0.292-0.032 0.45-0.053 0.119-0.018 0.234-0.050 0.353-0.071 0.176-0.034 0.377-0.066 0.553-0.047 0.087 0.008 0.176 0.008 0.263 0.021 0.171 0.024 0.334 0.095 0.503 0.134 0.232 0.055 0.469 0.055 0.703 0.1 0.211 0.040 0.395 0.071 0.611 0.071 0.35-0.003 0.782-0.034 1.125-0.132 0.134-0.040 0.263-0.105 0.398-0.14 0.142-0.034 0.284-0.037 0.424-0.092 0.092-0.034 0.163-0.082 0.261-0.105 0.208-0.053 0.45-0.071 0.664-0.095 0.211-0.024 0.419-0.016 0.627-0.063 0.074-0.018 0.137-0.042 0.208-0.055 0.163-0.032 0.34 0.013 0.506-0.011 0.063-0.008 0.124-0.029 0.19-0.032 0.126-0.008 0.19 0.011 0.305-0.068 0.042-0.029 0.142-0.087 0.134-0.15-0.061-0.011-0.132-0.045-0.19-0.047z"></path>
<path d="M10.213 21.562c-0.082 0.021-0.171 0.058-0.255 0.068-0.161 0.021-0.332-0.018-0.492-0.005-0.079 0.005-0.124 0.040-0.192 0.079-0.074 0.040-0.142 0.063-0.221 0.087-0.25 0.068-0.521 0.045-0.766 0.126-0.121 0.037-0.282 0.090-0.374 0.182-0.087 0.087-0.184 0.237-0.129 0.358 0.024 0.050 0.103 0.187 0.163 0.19 0.008-0.050 0.032-0.092 0.040-0.134 0.011-0.045-0.008-0.090 0.021-0.129 0.034-0.047 0.090-0.037 0.142-0.045 0.113-0.018 0.182-0.040 0.274-0.111 0.184-0.147 0.408-0.24 0.65-0.226 0.095 0.008 0.205 0.034 0.295 0.061 0.037 0.013 0.074 0.026 0.111 0.040 0.005 0.013 0.013 0.026 0.021 0.040 0.142 0.066 0.361 0.011 0.519 0.013 0.282 0.005 0.553 0.055 0.819 0.147 0.403 0.137 0.772 0.163 1.19 0.161 0.355-0.003 0.711-0.042 1.067-0.042 0.029 0 0.061 0 0.092 0 0.082 0.037 0.161 0.090 0.237 0.121 0.142 0.061 0.313 0.032 0.458 0.082 0.14 0.047 0.205 0.208 0.371 0.221 0.166 0.016 0.345-0.003 0.514-0.003 0.39 0 0.793-0.029 1.164-0.161 0.084-0.029 0.161-0.092 0.234-0.132 0.053-0.029 0.192-0.066 0.213-0.134 0.016 0 0.032 0 0.047 0 0.234-0.011 0.474-0.045 0.708-0.034 0.116 0.003 0.226 0.032 0.342 0.042 0.216 0.018 0.44-0.045 0.643-0.116 0.277-0.1 0.561-0.213 0.83-0.334-0.119-0.021-0.269-0.021-0.384 0.005-0.182 0.037-0.366 0.026-0.556 0.042-0.348 0.034-0.682 0.137-1.024 0.171-0.208 0.021-0.416-0.005-0.627 0.011-0.282 0.021-0.556 0.103-0.84 0.111-0.113 0.003-0.226 0-0.342 0-0.037 0-0.076 0-0.116 0-0.003 0-0.003 0-0.003 0-0.134 0-0.269 0.003-0.403 0.003-0.234-0.003-0.464-0.066-0.679-0.158-0.068-0.021-0.129-0.058-0.179-0.105-0.026-0.024-0.034-0.053-0.029-0.084-0.090-0.063-0.192-0.087-0.311-0.071-0.166-0.021-0.332-0.016-0.495 0.011-0.142 0.026-0.284 0.076-0.424 0.121-0.113 0.034-0.295 0.111-0.398 0.029-0.053-0.040-0.084-0.108-0.14-0.147-0.071-0.018-0.137-0.053-0.195-0.103-0.087-0.066-0.169-0.137-0.248-0.213-0.034-0.055-0.087-0.071-0.155-0.050-0.134 0.008-0.266 0.013-0.4 0.011-0.234-0.011-0.464-0.024-0.698-0.032 0 0 0 0-0.003 0-0.016 0.005-0.063 0.034-0.087 0.040z"></path>
<path d="M9.994 21.514c0.103 0 0.205 0.005 0.308 0.008 0.018-0.003 0.037-0.005 0.058-0.008z"></path>
<path d="M10.359 21.514h0.24c-0.063 0-0.161-0.008-0.24 0z"></path>
<path d="M26.416 21.627c-0.092 0-0.161 0-0.253-0.016-0.263-0.050-0.516-0.050-0.779-0.058-0.134-0.003-0.274-0.045-0.406-0.074-0.111-0.013-0.213-0.050-0.305-0.111-0.024-0.037-0.055-0.053-0.1-0.050-0.090 0.011-0.182 0.021-0.271 0.034-0.045 0.003-0.092 0.005-0.137 0.011-0.024-0.013-0.045-0.024-0.066-0.037-0.155-0.095-0.408-0.082-0.595-0.074-0.084 0.003-0.108 0.029-0.174 0.074-0.14 0.092-0.274 0.163-0.379 0.298-0.008 0.011-0.013 0.016-0.021 0.024-0.126 0.032-0.253 0.061-0.377 0.095-0.237 0.063-0.4 0.208-0.619 0.311-0.116 0.053-0.198 0.029-0.329 0.026-0.192 0.003-0.384 0.003-0.579 0-0.079-0.008-0.161-0.008-0.24 0.003-0.111 0.053-0.221 0.1-0.337 0.14-0.092 0.018-0.176 0.053-0.253 0.1-0.15 0.1-0.327 0.255-0.44 0.395-0.032 0.034-0.066 0.076-0.082 0.121-0.224 0.174-0.008 0.097 0.174 0.055 0.14-0.034 0.221-0.058 0.34-0.113 0.161-0.076 0.369-0.169 0.54-0.163 0.145 0.003 0.295 0.068 0.448 0.074 0.269 0.005 0.537-0.029 0.801-0.074 0.155-0.026 0.253-0.111 0.384-0.198 0.142-0.095 0.29-0.179 0.442-0.255 0.29-0.145 0.606-0.29 0.935-0.221 0.24 0.053 0.448 0.176 0.69 0.176 0.421 0 0.843-0.092 1.259-0.142 0.34-0.042 0.682-0.034 1.019-0.105 0.258-0.068 0.516-0.145 0.769-0.229 0.011-0.008 0.021-0.008 0.032-0.013-0.361 0.013-0.727-0.005-1.090-0.003z"></path>
<path d="M27.507 21.63c0.040-0.003 0.079-0.003 0.119-0.005-0.034-0.021-0.076-0.016-0.119 0.005z"></path>
<path d="M23.88 24.332c-0.076-0.066-0.171-0.076-0.284-0.032-0.163 0-0.324-0.016-0.485-0.040 0.026-0.058 0.040-0.124 0.076-0.182-0.1-0.024-0.226-0.005-0.329-0.005h-1.512c0.045 0.055 0.074 0.1 0.129 0.142-0.429 0.016-0.853 0.045-1.285 0.129-0.411 0.124-0.827 0.213-1.251 0.271-0.334 0.068-0.669 0.095-1.009 0.076-0.39-0.008-0.722-0.058-1.064-0.24-0.145-0.076-0.198-0.145-0.353-0.116-0.29 0.055-0.572 0.145-0.861 0.205-0.708 0.145-1.446 0.097-2.167 0.1-0.224-0.003-0.448 0-0.669 0.008-0.219-0.032-0.427-0.1-0.621-0.205-0.166-0.068-0.277-0.121-0.456-0.111-0.298 0.016-0.6-0.005-0.901 0.008-0.311 0.016-0.643 0.066-0.956 0.034-0.184 0.011-0.34-0.050-0.461-0.182-0.029-0.042-0.055-0.084-0.084-0.124-0.071-0.105-0.179-0.134-0.321-0.084-0.416-0.005-0.832-0.003-1.251 0.008-0.492-0.005-0.988 0.026-1.477 0.090-0.384 0.061-0.772 0.116-1.156 0.166-0.253 0.032-0.495 0.061-0.748 0.047-0.034 0.176 0.071 0.129 0.184 0.113 0.229-0.032 0.445 0.058 0.664 0.097 0.234 0.042 0.485 0.011 0.724 0.013 0.413 0.005 0.816 0.161 1.23 0.161 0.266-0.003 0.524-0.037 0.787-0.066 0.216-0.024 0.429-0.018 0.648-0.016 0.216 0 0.495-0.040 0.711-0.003 0.229 0.040 0.445 0.145 0.658 0.226 0.25 0.095 0.521 0.226 0.79 0.119 0.095-0.040 0.084-0.066 0.19-0.095 0.134-0.040 0.269-0.090 0.406-0.116 0.279-0.053 0.587-0.016 0.866 0.005 0.511 0.034 1.022 0.097 1.522 0.195 0.408 0.079 0.816 0.129 1.225 0.195 0.487 0.079 0.93 0.203 1.377 0.413 0.282 0.134 0.548 0.303 0.866 0.329 0.229 0.018 0.395-0.032 0.608-0.105 0.324-0.111 0.658-0.208 0.964-0.369 0.187-0.1 0.371-0.203 0.561-0.295 0.132-0.092 0.277-0.153 0.432-0.184 0.19-0.061 0.387-0.097 0.587-0.111 0.203-0.040 0.424-0.14 0.632-0.163 0.727-0.087 1.464 0.108 2.191 0.032 0.2-0.042 0.4-0.082 0.6-0.116l0.137-0.026c0.055-0.018 0.113-0.045 0.161-0.076-0.042-0.013-0.35 0.021-0.226-0.124z"></path>
<path d="M26.767 23.355c-0.087 0.008-0.182 0.013-0.269 0.005-0.132-0.011-0.25-0.063-0.384-0.032-0.234 0.058-0.5 0.037-0.74 0.132-0.108 0.045-0.226 0.076-0.332 0.124-0.042 0.021-0.105 0.082-0.15 0.074-0.003-0.013-0.005-0.024-0.008-0.034-0.021 0.032-0.050 0.047 0.047 0.142 0.032 0.032 0.108 0.066 0.15 0.076 0.171 0.045 0.429 0.016 0.6-0.013 0.253-0.045 0.498-0.134 0.743-0.205 0.097-0.029 0.716-0.121 0.653-0.298-0.095-0.032-0.213 0.018-0.311 0.029z"></path>
<path d="M6.261 21.701c0.055-0.021 0.198-0.063 0.471-0.361-0.313-0.050-0.637-0.076-0.961-0.079-0.198-0.003-0.329 0.013-0.503 0.087-0.124 0.053-0.253 0.105-0.39 0.111-0.211 0.005-0.413-0.016-0.619-0.063-0.169-0.040-0.35-0.018-0.527-0.018-0.15 0.003-0.29-0.029-0.437-0.037-0.082-0.005-0.163 0-0.245 0-0.063 0.003-0.1-0.018-0.158-0.032-0.184-0.040-0.4 0.034-0.59 0.032-0.090 0-0.161 0.013-0.245 0.037-0.126 0.032-0.25 0.058-0.379 0.074-0.058 0.005-0.155-0.008-0.192 0.050 0.032 0.037 0.1 0.034 0.145 0.037 0.374 0.032 0.785-0.026 1.151 0.068 0.158 0.040 0.305 0.037 0.469 0.037 0.358-0.003 0.708 0.024 1.067 0.034 0.519 0.013 1.038 0.068 1.556 0.082 0.134 0.003 0.261-0.011 0.387-0.058z"></path>
<path d="M15.038 27.922c0.219 0.026 0.416 0.037 0.635 0.037 0.108 0 0.205-0.008 0.308 0.008 0.219 0.040 0.435 0.079 0.653 0.095 0.134 0.011 0.211 0.018 0.313-0.063 0.040-0.032 0.063-0.074 0.111-0.103 0.092-0.061 0.216-0.074 0.324-0.087 0.176-0.021 0.377 0 0.55-0.045 0.216-0.055 0.419-0.171 0.624-0.258 0.369-0.153 0.745-0.29 1.14-0.353-0.284-0.053-0.587-0.066-0.877-0.095-0.226-0.021-0.474-0.055-0.701-0.042-0.203 0.013-0.387 0.074-0.582 0.124-0.35 0.079-0.706 0.137-1.061 0.174-0.155 0.034-0.308 0.047-0.464 0.037-0.018-0.029-0.021-0.071-0.018-0.105-0.053-0.018-0.153-0.003-0.203-0.003-0.274 0.005-0.532-0.032-0.803-0.079-0.442-0.076-0.885-0.090-1.322-0.19-0.29-0.068-0.566-0.079-0.861-0.082-0.208 0-0.413-0.016-0.616 0.040-0.287 0.076-0.558 0.219-0.856 0.263-0.024 0.003-0.124 0.026-0.14 0.005 0.021-0.203-0.14-0.113-0.311-0.037-0.097 0.042-0.219 0.071-0.321 0.092-0.145 0.034-0.3 0.095-0.45 0.1-0.084 0.005-0.342-0.053-0.403 0.034 0.011 0.045 0.113 0.097 0.15 0.129s0.074 0.068 0.111 0.097c0.076 0.058 0.176 0.063 0.269 0.071 0.2 0.021 0.421 0.018 0.621-0.003 0.108-0.011 0.213-0.032 0.324-0.029 0.187 0.003 0.377-0.008 0.564-0.003 0.19 0.008 0.379 0.042 0.569 0.042 0.282-0.003 0.537 0.095 0.814 0.134 0.269 0.037 0.545 0.011 0.816 0.013 0.363 0.005 0.732 0.037 1.093 0.079z"></path>
<path d="M8.819 14.583c-0.187 0-0.371-0.021-0.558-0.032-0.016 0-0.040-0.003-0.061-0.003 0.013-0.008 0.026-0.013 0.040-0.018 0.076-0.024 0.334-0.016 0.348-0.016 0.105-0.008 0.213-0.024 0.321-0.032 0.090-0.003 0.19-0.008 0.277 0.003 0.111 0.013 0.213 0.061 0.321 0.090-0.224-0.018-0.469 0.008-0.687 0.008zM20.209 16.071c-0.068-0.045-0.137-0.090-0.205-0.134-0.063-0.082-0.137-0.158-0.226-0.203-0.082-0.045-0.129-0.090-0.216-0.124-0.126-0.050-0.255-0.084-0.382-0.132-0.087-0.034-0.15-0.047-0.242-0.047-0.018 0-0.034 0.003-0.053 0.003-0.074-0.053-0.15-0.108-0.229-0.153-0.024-0.026-0.047-0.053-0.071-0.076-0.116-0.097-0.282-0.174-0.411-0.255-0.079-0.050-0.171-0.087-0.269-0.118-0.021-0.024-0.045-0.045-0.079-0.058-0.087-0.042-0.184-0.032-0.274-0.047-0.013-0.003-0.021-0.003-0.032-0.003-0.026-0.008-0.053-0.013-0.076-0.018-0.163-0.042-0.337-0.132-0.503-0.147-0.079-0.008-0.166 0.005-0.245 0.005-0.042 0-0.124-0.016-0.161-0.003s-0.074 0.037-0.108 0.063c-0.158 0.045-0.311 0.113-0.445 0.158-0.44 0.15-0.932 0.021-1.385 0.113-0.213 0.042-0.427 0.058-0.64 0.066-0.016-0.021-0.029-0.040-0.047-0.058-0.2-0.187-0.445-0.234-0.698-0.266-0.142-0.018-0.319-0.013-0.461 0-0.129 0.011-0.261 0.074-0.384 0.124s-0.226 0.126-0.332 0.203c-0.166 0.121-0.437 0.126-0.632 0.14-0.14 0.008-0.277 0.016-0.416 0.021-0.237-0.076-0.466-0.184-0.703-0.284-0.092-0.042-0.179-0.066-0.274-0.103-0.121-0.042-0.232-0.118-0.358-0.145-0.034-0.079-0.068-0.105-0.158-0.15-0.105-0.053-0.221-0.074-0.327-0.129-0.082-0.042-0.103-0.055-0.198-0.053-0.155 0.003-0.311 0.003-0.464 0-0.032 0-0.074-0.011-0.1-0.003-0.074 0.018-0.163 0.1-0.229 0.145-0.058 0.042-0.118 0.097-0.182 0.134-0.066 0-0.134 0-0.184 0.011-0.008 0.003-0.016 0.003-0.024 0.005-0.103 0.026-0.203 0.087-0.3 0.126-0.111 0.045-0.224 0.068-0.334 0.105-0.211 0.066-0.477 0.187-0.632 0.342-0.058 0.053-0.097 0.118 0.108 0.1 0.155-0.1 0.356-0.161 0.527-0.25 0.398-0.2 0.827-0.3 1.277-0.284 0.158 0.008 0.282 0.018 0.419 0.090 0.248 0.132 0.598 0.269 0.88 0.295 0.205 0.018 0.413-0.034 0.614 0.055 0.090 0.040 0.147 0.090 0.213 0.163 0.040 0.045 0.079 0.116 0.134 0.142 0.155 0.082 0.398-0.021 0.561 0.013 0.232 0.047 0.453 0.187 0.682 0.253 0.147 0.042 0.266 0.058 0.416 0.055 0.232-0.008 0.461-0.008 0.693-0.034 0.255-0.032 0.479-0.105 0.724-0.169 0.282-0.071 0.55-0.145 0.822-0.253 0.166-0.066 0.308-0.129 0.498-0.147 0.040-0.003 0.076-0.003 0.116-0.005 0.055 0 0.113-0.003 0.169-0.005 0.224 0 0.45 0.018 0.674 0.008 0.163-0.005 0.327-0.032 0.49-0.061 0.061 0.084 0.084 0.124 0.179 0.179 0.084 0.047 0.126 0.084 0.224 0.105 0.103 0.024 0.216 0.037 0.321 0.040 0.226 0.008 0.45 0.011 0.664 0.103 0.203 0.090 0.377 0.216 0.572 0.321 0.266 0.147 0.582 0.174 0.864 0.255 0.195 0.055 0.435 0.082 0.637 0.079 0.087 0 0.1 0 0.179 0.034 0.061 0.026 0.295 0.132 0.334 0.053-0.045-0.055-0.142-0.092-0.229-0.119 0.016 0 0.029 0.003 0.045 0.003-0.055-0.034-0.1-0.063-0.116-0.074z"></path>
<path d="M27.417 15.836c-0.068-0.050-0.377-0.008-0.461-0.011-0.224-0.003-0.442 0.042-0.666 0.040-0.184 0-0.382 0.026-0.561 0.008-0.263-0.026-0.529-0.118-0.79-0.187-0.024-0.013-0.050-0.026-0.074-0.040-0.113-0.058-0.198-0.121-0.319-0.124-0.066-0.003-0.1 0.011-0.169-0.013-0.087-0.029-0.142-0.076-0.229-0.097-0.121-0.029-0.234-0.155-0.353-0.153-0.084 0-0.213 0.095-0.266 0.161-0.037 0.047-0.053 0.090-0.074 0.142-0.024 0.055-0.050 0.097-0.076 0.15-0.005 0.011-0.008 0.024-0.013 0.037-0.292 0.061-0.598 0.040-0.898 0.042-0.226 0-0.643 0.042-0.827-0.153-0.116-0.15-0.255-0.211-0.424-0.263-0.134-0.042-0.25-0.111-0.384-0.153-0.113 0.008-0.229-0.016-0.334-0.095-0.011-0.008-0.021-0.016-0.032-0.024-0.026-0.011-0.053-0.021-0.079-0.034-0.063-0.032-0.153-0.063-0.208-0.113-0.032-0.029-0.026-0.076-0.082-0.071-0.034 0.079 0.003 0.171 0.061 0.224 0.042 0.040 0.129 0.066 0.179 0.103 0.047 0.037 0.092 0.074 0.137 0.111 0.134 0.116 0.298 0.187 0.437 0.298 0.121 0.097 0.274 0.166 0.411 0.242 0.169 0.090 0.374 0.187 0.558 0.226 0.095 0.021 0.147 0.034 0.245 0.090 0.087 0.050 0.182 0.137 0.274 0.169 0.071 0.026 0.121 0.013 0.203 0.008 0.345-0.024 0.669-0.108 1.019-0.113 0.234-0.003 0.474 0.026 0.706-0.005 0.195-0.029 0.363-0.040 0.561-0.008 0.377 0.058 0.743 0.092 1.13 0.092 0.179 0 0.464 0.055 0.635-0.024 0.216-0.1 0.379-0.342 0.606-0.416 0.055-0.018 0.116-0.003 0.158-0.045z"></path>
<path d="M20.548 28.722c-0.137 0.071-0.29 0.108-0.44 0.132-0.195 0.034-0.387 0.079-0.577 0.126-0.058 0.013-0.119 0.026-0.171 0.053-0.066 0.032-0.090 0.079-0.137 0.126-0.092 0.097-0.213 0.171-0.334 0.226-0.274 0.126-0.492 0.113-0.79 0.113-0.232 0-0.464 0.008-0.693-0.018-0.161-0.018-0.334-0.050-0.487 0-0.255 0.084-0.529 0.129-0.793 0.169-0.187 0.029-0.374 0.084-0.564 0.076-0.116-0.005-0.097-0.068-0.187-0.126-0.055-0.037-0.121-0.029-0.187-0.026-0.155 0.005-0.3 0.032-0.432 0.105l0.118 0.011c0.229-0.008 0.437 0.029 0.656 0.076 0.153 0.032 0.306 0.021 0.458 0.034 0.116 0.013 0.229 0.042 0.345 0.055 0.137 0.013 0.282-0.003 0.411 0.047 0.121 0.047 0.158 0.082 0.279 0.092 0.269 0.024 0.49-0.024 0.737-0.111 0.182-0.061 0.361-0.147 0.553-0.166 0.163-0.018 0.342 0.011 0.508 0 0.198-0.013 0.395-0.021 0.59-0.034 0.282-0.021 0.511-0.092 0.774-0.176 0.074-0.024 0.121-0.040 0.176-0.087 0.058-0.084 0.121-0.166 0.187-0.245 0.074-0.087 0.147-0.179 0.219-0.269 0.053-0.092 0.163-0.353 0.113-0.458-0.121 0.082-0.2 0.203-0.334 0.274z"></path>
<path d="M14.442 29.797c0.124 0.026 0.187-0.045 0.29-0.108 0.008-0.003 0.016-0.008 0.024-0.011l-0.803-0.058c0.166 0.034 0.327 0.14 0.49 0.176z"></path>
<path d="M13.951 29.62c-0.045-0.008-0.090-0.013-0.134-0.011z"></path>
</svg>
