<!-- Generated by IcoMoon.io -->
<svg version="1.1" xmlns="http://www.w3.org/2000/svg" width="32" height="32" viewBox="0 0 32 32">
<title>midnight_masks</title>
<path d="M4.33 13.415c0.405-0.593 1.038-1.167 1.572-1.705 0.511-0.519 1.080-1.016 1.587-1.54 0.441-0.456 0.788-0.949 1.23-1.404 0.607-0.63 1.295-1.204 1.874-1.85 0.688-0.762 1.586-1.408 2.42-2.097 0.31-0.256 0.583-0.529 0.894-0.784 0.282-0.232 0.587-0.452 0.847-0.698 0.146-0.136 0.169-0.378 0.452-0.333 0.347 0.055 0.688 0.265 0.988 0.392 0.442 0.191 0.853 0.401 1.264 0.624 0.341 0.187 0.725 0.387 1.002 0.629 0.205 0.179 0.31 0.365 0.447 0.566 0.387 0.583 1.363 0.797 1.941 1.262 0.305 0.246 0.533 0.529 0.779 0.802 0.351 0.392 0.775 0.743 1.208 1.098 0.606 0.506 0.802 1.131 1.212 1.714 0.364 0.506 0.629 1.030 0.952 1.549 0.242 0.392 0.557 0.771 0.817 1.162 0.228 0.347 0.464 0.698 0.811 0.994 0.287 0.251 0.574 0.492 0.866 0.734 0.114 0.096 0.369 0.351 0.27 0.478-0.014 0.023-0.375 0.059-0.429 0.073-0.154 0.036-0.3 0.077-0.455 0.123-0.215 0.059-0.466 0.146-0.707 0.141-0.533-0.009-0.792-0.502-1.016-0.761-0.1-0.114-0.214-0.224-0.323-0.337-0.237-0.232-0.411-0.492-0.662-0.712-0.132-0.113-0.223-0.25-0.328-0.392-0.072-0.096-0.151-0.191-0.232-0.282-0.124-0.136-0.26-0.259-0.369-0.405-0.165-0.224-0.256-0.483-0.387-0.726-0.16-0.292-0.361-0.569-0.561-0.833-0.223-0.292-0.46-0.579-0.711-0.844-0.205-0.223-0.447-0.406-0.648-0.634-0.282-0.315-0.529-0.652-0.765-0.998-0.187-0.279-0.378-0.552-0.561-0.834-0.086-0.133-0.155-0.282-0.264-0.397-0.105-0.11-0.219-0.215-0.337-0.306-0.083-0.059-0.169-0.114-0.246-0.187-0.064-0.055-0.114-0.155-0.183-0.201-0.113-0.077-0.295-0.072-0.424-0.118-0.141-0.050-0.282-0.092-0.428-0.138-0.26-0.082-0.574-0.127-0.816-0.246-0.229-0.118-0.506-0.214-0.762-0.246-0.113-0.013-0.223-0.068-0.337-0.096-0.127-0.032-0.259-0.008-0.392-0.027-0.113-0.014-0.2-0.082-0.309-0.122-0.328-0.128-1.733 1.071-1.924 1.208-0.228 0.155-0.424 0.337-0.629 0.524-0.242 0.215-0.369 0.483-0.546 0.751-0.193 0.301-0.438 0.58-0.702 0.817-0.173 0.154-0.31 0.328-0.464 0.496-0.193 0.205-0.425 0.361-0.634 0.543-0.425 0.37-0.771 0.817-1.19 1.19-0.242 0.21-0.515 0.373-0.748 0.593-0.113 0.104-0.196 0.209-0.264 0.347-0.028 0.049-0.028 0.082-0.074 0.123-0.091 0.082-0.232 0.141-0.328 0.223-0.141 0.114-0.273 0.238-0.397 0.365-0.209 0.196-0.428 0.378-0.66 0.547-0.583 0.45-1.203 0.883-1.75 1.376-0.019 0.019-0.26 0.201-0.282 0.284-0.033 0.099-0.629-0.069-0.725-0.246-0.096-0.169-0.078-0.361-0.069-0.547 0.009-0.146 0.56-0.611 0.607-0.684z"></path>
<path d="M19.781 21.997c0 0.287-0.009 0.547-0.069 0.825-0.059 0.265-0.214 0.52-0.319 0.771-0.114 0.259-0.237 0.51-0.351 0.761-0.127 0.278-0.215 0.574-0.373 0.834-0.251 0.41-0.634 0.842-0.994 1.167-0.055 0.046-0.119 0.096-0.177 0.137-0.124 0.082-0.187 0.064-0.31 0.11-0.069 0.027-0.122 0.077-0.191 0.108-0.114 0.059-0.187 0.037-0.31 0.055-0.259 0.037-0.505 0.059-0.775 0.064-0.264 0-0.51-0.073-0.77-0.11-0.177-0.027-0.347-0.013-0.519-0.096-0.165-0.082-0.387-0.218-0.519-0.351-0.26-0.259-0.575-0.501-0.803-0.792-0.127-0.155-0.242-0.282-0.387-0.42-0.123-0.108-0.205-0.237-0.315-0.359-0.177-0.191-0.359-0.375-0.537-0.566-0.165-0.177-0.347-0.355-0.484-0.555-0.159-0.228-0.182-0.488-0.177-0.757 0.005-0.323 0.023-0.624 0.073-0.943 0.058-0.356 0.177-0.634 0.305-0.961 0.128-0.347 0.246-0.693 0.401-1.030 0.136-0.306 0.356-0.579 0.565-0.839 0.193-0.232 0.365-0.474 0.58-0.693 0.068-0.068 0.715-0.478 1.139-0.478 0.31 0 0.597 0.009 0.903 0.073 0.254 0.054 0.474 0.168 0.72 0.237 0.251 0.072 0.442 0.105 0.697 0.1 0.246 0 0.483 0.046 0.725 0.058 0.233 0.014 0.37 0.092 0.571 0.183 0.214 0.096 0.323 0.096 0.488 0.278 0.137 0.141 0.301 0.296 0.4 0.469 0.138 0.233 0.233 0.483 0.347 0.725 0.1 0.21 0.224 0.401 0.284 0.629 0.054 0.219 0.137 0.442 0.177 0.662 0.036 0.228 0.009 0.478 0.009 0.706zM21.089 20.603c-0.005-0.215-0.086-0.401-0.146-0.606-0.091-0.296-0.205-0.597-0.324-0.889-0.214-0.516-0.555-0.971-0.947-1.367-0.169-0.174-0.406-0.428-0.62-0.543-0.301-0.16-0.643-0.242-0.966-0.342-0.324-0.105-0.684-0.055-1.026-0.055-0.287 0.005-0.566-0.050-0.848-0.059-0.61-0.022-1.244-0.022-1.846 0.073-0.215 0.036-0.419 0.1-0.634 0.146-0.16 0.032-0.319 0.050-0.469 0.122-0.133 0.064-0.27 0.114-0.406 0.183-0.146 0.077-0.237 0.209-0.383 0.287-0.205 0.113-0.383 0.177-0.524 0.369-0.128 0.174-0.328 0.401-0.383 0.466-0.128 0.146-0.284 0.328-0.383 0.505-0.205 0.365-0.351 0.734-0.52 1.121-0.205 0.483-0.452 0.957-0.501 1.49-0.050 0.484-0.033 0.989-0.009 1.472 0.022 0.466 0.209 0.93 0.337 1.377 0.15 0.519 0.351 1.043 0.593 1.526 0.118 0.233 0.264 0.557 0.488 0.712 0.25 0.173 0.524 0.314 0.77 0.488 0.474 0.328 0.875 0.492 1.43 0.597 0.461 0.086 0.935 0.163 1.404 0.168 0.438 0.009 0.88 0 1.322 0 0.415 0 0.844 0.028 1.24-0.122 0.538-0.201 1.079-0.488 1.521-0.848 0.21-0.165 0.337-0.31 0.52-0.502 0.068-0.077 0.155-0.146 0.214-0.228 0.11-0.151 0.251-0.292 0.342-0.452 0.196-0.337 0.292-0.747 0.392-1.121 0.165-0.596 0.237-1.203 0.31-1.813 0.077-0.621 0.041-1.25 0.046-1.869 0-0.096 0.005-0.196 0.005-0.287z"></path>
<path d="M10.067 18.329c0.16 0.478 0.547 0.66 0.903 0.98 0.242 0.223 0.419 0.505 0.62 0.756 0.242 0.31 0.561 0.519 0.848 0.779 0.296 0.27 0.565 0.565 0.842 0.844 0.279 0.278 0.571 0.551 0.83 0.847 0.246 0.279 0.529 0.52 0.775 0.798 0.174 0.196 0.351 0.424 0.552 0.593 0.165 0.137 0.237 0.055 0.361-0.096 0.063-0.087 0.104-0.119 0.182-0.187 0.196-0.16 0.314-0.37 0.478-0.552 0.151-0.16 0.273-0.265 0.361-0.474 0.127-0.315 0.35-0.593 0.428-0.925 0.072-0.315 0.278-0.571 0.464-0.83 0.055-0.083 0.086-0.183 0.133-0.27 0.050-0.086 0.113-0.137 0.182-0.214 0.187-0.21 0.359-0.447 0.529-0.671 0.196-0.254 0.387-0.519 0.593-0.775 0.196-0.242 0.474-0.419 0.67-0.66 0.165-0.201 0.306-0.442 0.424-0.665 0.055-0.105 0.091-0.224 0.137-0.329 0.023-0.050 0.069-0.054 0.055-0.118-0.009-0.073-0.187-0.215-0.228-0.282-0.055-0.096-0.077-0.219-0.177-0.306-0.324-0.273-0.538 0.438-0.674 0.615-0.069 0.086-0.138 0.137-0.183 0.246-0.072 0.182-0.113 0.26-0.264 0.383-0.201 0.16-0.365 0.425-0.529 0.621-0.146 0.173-0.265 0.369-0.397 0.546-0.114 0.146-0.256 0.233-0.375 0.365-0.323 0.369-0.541 0.842-0.706 1.299-0.055 0.151-0.114 0.292-0.21 0.424-0.059 0.083-0.132 0.16-0.205 0.233-0.104 0.1-0.214 0.191-0.292 0.309-0.108 0.174-0.146 0.438-0.369 0.506-0.114 0.036-0.264 0.068-0.392 0.064-0.196 0-0.223 0.008-0.333-0.151-0.11-0.169-0.315-0.265-0.483-0.379-0.32-0.214-0.602-0.491-0.894-0.737-0.108-0.087-0.15-0.188-0.228-0.296-0.096-0.133-0.228-0.237-0.342-0.351-0.215-0.219-0.464-0.406-0.679-0.615-0.073-0.073-0.123-0.16-0.201-0.229-0.118-0.096-0.246-0.159-0.356-0.273-0.237-0.251-0.555-0.42-0.811-0.662-0.105-0.096-0.21-0.154-0.314-0.232-0.1-0.077-0.146-0.177-0.26-0.242-0.105-0.050-0.273-0.1-0.392-0.041-0.114 0.055-0.136 0.177-0.132 0.287 0 0.091 0.136 0.365 0.058 0.064z"></path>
<path d="M23.162 21.733c-0.017 0.273-0.046 0.547-0.055 0.825-0.009 0.455 0.023 0.911 0.023 1.367 0 1.038 0.009 2.087 0.096 3.121 0.072 0.898 0.259 1.769 0.256 2.667 0 0.264 0 0.529 0 0.792 0 0.11-0.028 0.256 0.013 0.361 0.133-0.146 0.128-0.574 0.16-0.739 0.073-0.383 0.237-0.698 0.342-1.066 0.215-0.775 0.301-1.618 0.361-2.415 0.041-0.561 0.104-1.117 0.127-1.678 0.019-0.474 0.046-0.947 0.055-1.422 0.005-0.323 0.077-0.606 0.137-0.921 0.077-0.424 0.032-0.879 0.032-1.308 0-0.488 0-0.975 0-1.463 0-1.17 0-2.342 0-3.513 0-0.37 0.028-0.753 0.005-1.121-0.009-0.169-0.059-0.342-0.077-0.506-0.032-0.218-0.096-0.679-0.26-0.756-0.11-0.055-0.309 0.013-0.414 0.063-0.096 0.050-0.196 0.1-0.282 0.169-0.069 0.055-0.128 0.15-0.183 0.182 0.014 0.059-0.009 0.15-0.013 0.215l-0.042 0.588c-0.041 0.692-0.082 1.385-0.113 2.078-0.073 1.413-0.124 2.826-0.151 4.244-0.005 0.077-0.005 0.159-0.014 0.237z"></path>
<path d="M6.418 15.065c-0.009 0.688-0.005 1.381 0.032 2.069 0.045 0.912 0.16 1.783 0.165 2.694 0.003 0.433 0.072 0.925-0.033 1.353-0.022 0.096-0.063 0.187-0.077 0.287-0.055 0.351 0.009 0.748 0.036 1.104 0.064 0.765 0.165 1.531 0.256 2.296 0.146 1.204 0.383 2.398 0.533 3.601 0.045 0.365 0.16 0.707 0.163 1.071 0.005 0.229-0.022 0.461 0.009 0.684 0.028 0.177-0.005 0.643 0.174 0.761 0.105 0.069 0.159-0.113 0.228-0.159 0.055-0.036 0.082-0.005 0.132-0.046 0.028-0.119 0.050-0.237 0.064-0.361 0.046-0.196 0.1-0.392 0.169-0.588 0.191-0.688 0.292-1.422 0.333-2.133 0.041-0.684-0.078-1.418 0.050-2.087 0.063-0.315-0.028-0.679-0.055-0.998-0.033-0.375-0.069-0.748-0.114-1.117-0.118-0.989-0.292-1.974-0.369-2.972-0.033-0.415-0.005-0.839-0.046-1.254-0.023-0.278-0.074-0.555-0.11-0.833-0.105-0.748-0.127-1.559-0.124-2.316 0.005-0.866-0.232-2.425-0.337-2.406-0.122 0.022-0.254-0.019-0.383 0.005-0.151 0.027-0.301 0.1-0.447 0.136-0.113 0.031-0.25-0.023-0.359 0.036 0 0.023 0.113 0.875 0.11 1.171z"></path>
<path d="M10.268 13.242c0.21 0 0.42 0 0.629-0.004 0.32-0.005 0.616 0.077 0.93 0.113 0.347 0.046 0.684 0 1.030-0.036 0.237-0.023 0.474 0.005 0.711-0.023 0.389-0.046 0.739-0.136 1.131-0.1 0.237 0.050 0.478 0.055 0.72 0.028 0.146-0.041 0.292-0.082 0.438-0.124 0.32-0.086 0.643-0.027 0.967-0.036 0.337-0.009 0.624-0.155 0.943-0.173 0.287-0.019 0.638 0.005 0.925 0.055 0.323 0.055 0.593 0.25 0.93 0.292 0.218 0.027 0.447 0.008 0.665 0.008h0.42c0.113 0 0.278 0.033 0.387 0.005 0.105-0.027 0.214-0.113 0.282-0.196 0.105-0.127 0.082-0.697-0.032-0.842-0.033-0.041-1.509-0.378-2.079-0.579-0.278-0.1-0.56-0.091-0.847-0.124-0.179-0.018-0.347-0.055-0.524-0.041-0.169 0.014-0.338 0.064-0.506 0.059-0.306-0.005-0.602 0.068-0.903 0.063-0.154 0-0.3-0.046-0.446-0.058-0.224-0.023-0.447-0.005-0.671-0.005-0.378 0-0.783-0.069-1.153 0.022-0.141 0.041-0.273 0.050-0.419 0.023-0.287-0.050-0.552-0.046-0.839-0.050-0.383-0.005-0.693 0.182-1.062 0.191-0.228 0.005-0.461-0.005-0.688-0.005-0.165 0-0.328 0-0.488 0-0.165 0.005-0.306-0.050-0.464-0.064-0.133-0.008-0.265 0.005-0.397 0.005-0.141-0.005-0.182 0.055-0.265 0.16-0.082 0.11-0.205 0.201-0.259 0.328-0.005 0-0.037 0.141-0.037 0.133-0.008 0.082-0.008 0.159-0.008 0.242 0 0.072 0.902 0.733 0.979 0.733z"></path>
<path d="M20.291 22.508c-0.424-0.005-0.916 0.16-1.344 0.050-0.009-0.11 0.177-0.282 0.251-0.37 0.159-0.196 0.328-0.419 0.569-0.483 0.119-0.027 0.779-0.108 0.77-0.305z"></path>
<path d="M11.025 22.198c0.232-0.027 0.505 0.151 0.706 0.232 0.146 0.059 0.301 0.146 0.452 0.188 0.064 0.017 0.123 0.005 0.173 0.058-0.177 0.042-0.4 0.174-0.555 0.27-0.196 0.114-0.392 0.246-0.579 0.373-0.1 0.069-0.282 0.301-0.425 0.219 0.042-0.078 0.138-0.128 0.229-0.114z"></path>
<path d="M15.318 27.106c0.397-0.424 0.361-1.076 0.666-1.563 0.063 0.023 0.163 0.096 0.209 0.146 0.059 0.059 0.083 0.188 0.114 0.265 0.059 0.146 0.146 0.282 0.205 0.428 0.041 0.1 0.064 0.21 0.096 0.315 0.014 0.036 0.1 0.196 0.11 0.237 0.032 0.122-0.046 0.319 0.077 0.397-0.005-0.073 0-0.146 0-0.224z"></path>
<path d="M15.136 17.6c0.128 0.364 0.347 0.674 0.529 1.016 0.046 0.091 0.114 0.314 0.233 0.237 0.046-0.027 0.068-0.191 0.082-0.237 0.032-0.146 0.077-0.27 0.141-0.411 0.077-0.173 0.1-0.4 0.242-0.546z"></path>
</svg>
