<!-- Generated by IcoMoon.io -->
<svg version="1.1" xmlns="http://www.w3.org/2000/svg" width="33" height="32" viewBox="0 0 33 32">
<title>mourning_stroll</title>
<path d="M26.409 28.941c-0.895-0.104-1.788-0.366-2.145-0.629-0.091-0.067-0.299-0.194-0.461-0.28-0.617-0.33-0.99-0.54-1.137-0.643-0.084-0.058-0.171-0.106-0.193-0.106s-0.173-0.067-0.336-0.15c-0.163-0.082-0.641-0.264-1.064-0.403s-0.901-0.32-1.063-0.401c-0.162-0.082-0.458-0.21-0.659-0.286-0.711-0.269-1.038-0.481-1.248-0.809-0.107-0.167-0.212-0.376-0.233-0.463s-0.099-0.281-0.174-0.43c-0.075-0.149-0.135-0.314-0.135-0.366s-0.063-0.215-0.139-0.361c-0.34-0.65-0.343-0.688-0.333-3.283 0.011-2.754 0.028-3.009 0.25-3.703 0.091-0.283 0.165-0.55 0.165-0.594s0.078-0.273 0.172-0.509c0.095-0.237 0.173-0.512 0.174-0.613s0.059-0.287 0.129-0.416c0.070-0.128 0.211-0.391 0.313-0.585s0.21-0.366 0.239-0.385c0.064-0.039 0.3-0.667 0.434-1.153 0.052-0.19 0.13-0.435 0.172-0.546 0.406-1.058 0.691-3.504 0.552-4.746-0.071-0.64-0.024-0.908 0.154-0.874 0.114 0.022 0.236 0.599 0.242 1.142 0.002 0.176 0.059 0.564 0.126 0.862 0.103 0.455 0.205 1.119 0.219 1.422 0.002 0.042 0.143 0.223 0.314 0.402 0.407 0.428 0.561 0.737 0.605 1.208 0.020 0.21 0.055 0.412 0.078 0.45s0.002 0.18-0.048 0.316c-0.050 0.136-0.129 0.39-0.176 0.564s-0.106 0.394-0.132 0.488c-0.026 0.095-0.151 0.366-0.277 0.603-0.376 0.704-0.405 0.762-0.535 1.092-0.068 0.174-0.195 0.432-0.281 0.575-0.258 0.425-0.57 1.162-0.609 1.437-0.020 0.142-0.070 0.335-0.111 0.43-0.124 0.284-0.203 0.573-0.203 0.74 0 0.087-0.029 0.212-0.065 0.279-0.115 0.214-0.192 1.357-0.192 2.83 0 1.223 0.016 1.487 0.105 1.781 0.159 0.524 0.369 0.866 0.755 1.226 0.328 0.307 0.398 0.343 1.095 0.566 0.936 0.3 1.221 0.348 2.326 0.396 0.867 0.038 0.899 0.035 1.149-0.098l0.257-0.137 1.838 0.017c1.612 0.015 1.934 0.003 2.614-0.099 0.994-0.149 1.222-0.198 1.751-0.376 0.239-0.080 0.47-0.146 0.513-0.146 0.102 0 0.153 0.211 0.178 0.746 0.022 0.456 0.141 1.051 0.249 1.239 0.118 0.208 0.354 1.026 0.354 1.231-0 0.133-0.049 0.26-0.144 0.37-0.079 0.092-0.144 0.184-0.144 0.205s-0.278 0.17-0.618 0.331c-0.436 0.206-0.77 0.32-1.135 0.387-0.284 0.052-0.688 0.145-0.897 0.206-0.313 0.092-0.541 0.11-1.293 0.104-0.502-0.004-1.107-0.030-1.344-0.058zM3.571 28.488c-0.221-0.063-0.57-0.143-0.776-0.178s-0.516-0.11-0.689-0.168c-0.174-0.057-0.392-0.121-0.486-0.141s-0.248-0.128-0.345-0.238c-0.133-0.153-0.234-0.209-0.419-0.233-0.134-0.018-0.244-0.049-0.244-0.069 0-0.081 0.295-0.962 0.368-1.097 0.099-0.184 0.284-1.128 0.237-1.205-0.037-0.059 0.060-0.686 0.114-0.74 0.016-0.016 0.1 0.034 0.187 0.112 0.264 0.238 0.586 0.346 1.277 0.428 0.804 0.096 1.291 0.103 1.444 0.021 0.073-0.039 0.14-0.042 0.183-0.007 0.037 0.030 0.212 0.096 0.389 0.146 0.275 0.079 0.454 0.084 1.255 0.036 0.831-0.050 0.982-0.076 1.368-0.23 0.583-0.233 0.991-0.283 2.321-0.285 0.898-0.001 1.172-0.020 1.346-0.092 0.12-0.050 0.337-0.112 0.481-0.138 0.805-0.143 1.193-0.349 1.523-0.808 0.509-0.709 0.63-1.204 0.624-2.554-0.007-1.455-0.063-2.25-0.188-2.672-0.061-0.205-0.135-0.529-0.164-0.718-0.095-0.618-0.355-1.43-0.715-2.232-0.069-0.153-0.24-0.399-0.381-0.546l-0.256-0.268-0.036-0.632c-0.039-0.68-0.095-0.844-0.434-1.264-0.21-0.26-0.259-0.457-0.256-1.034 0.002-0.502 0.086-0.938 0.264-1.363 0.076-0.181 0.137-0.378 0.137-0.439s0.111-0.262 0.247-0.447c0.136-0.185 0.266-0.368 0.289-0.406 0.081-0.133 0.269-1.133 0.272-1.45 0.006-0.543 0.128-1.121 0.242-1.142 0.178-0.034 0.225 0.234 0.154 0.874-0.119 1.072 0.068 3.022 0.414 4.315 0.124 0.462 0.4 1.097 0.613 1.408 0.258 0.377 0.49 0.944 0.53 1.298 0.022 0.193 0.108 0.495 0.191 0.672s0.152 0.348 0.152 0.381c0 0.033 0.077 0.253 0.171 0.489s0.233 0.657 0.31 0.935c0.268 0.974 0.296 1.301 0.277 3.206-0.018 1.776-0.056 2.24-0.22 2.729-0.048 0.142-0.135 0.616-0.193 1.053l-0.106 0.795-0.238 0.234c-0.131 0.129-0.278 0.294-0.326 0.368s-0.229 0.215-0.401 0.314c-0.172 0.099-0.358 0.227-0.412 0.285s-0.24 0.143-0.413 0.189c-0.351 0.092-0.928 0.38-1.354 0.674-0.352 0.244-0.741 0.455-0.84 0.455-0.071 0-0.804 0.329-1.051 0.472-0.48 0.278-0.644 0.356-0.826 0.395-0.114 0.025-0.311 0.074-0.438 0.11s-0.32 0.085-0.431 0.109c-0.111 0.024-0.258 0.074-0.327 0.111s-0.199 0.068-0.289 0.068c-0.090 0-0.227 0.045-0.305 0.101-0.126 0.089-0.326 0.102-1.78 0.114-1.489 0.012-1.674 0.003-2.040-0.101zM22.617 23.026c-0.079-0.034-0.323-0.088-0.543-0.119-0.539-0.077-0.721-0.175-0.721-0.392 0-0.163 0.018-0.175 0.558-0.343 0.307-0.096 0.598-0.175 0.646-0.176s0.205-0.056 0.347-0.122c0.264-0.123 0.339-0.145 1.092-0.308 0.996-0.216 1.514-0.397 2.011-0.702 0.57-0.349 0.621-0.398 0.701-0.663 0.037-0.125 0.108-0.239 0.157-0.254 0.274-0.083 0.649-0.284 0.773-0.415 0.243-0.255 0.464-0.801 0.467-1.155 0.002-0.195 0.039-0.371 0.098-0.46 0.229-0.346 0.289-0.595 0.288-1.207-0.001-1.128-0.11-3.303-0.173-3.454-0.035-0.083-0.079-0.341-0.099-0.575s-0.059-0.527-0.088-0.654c-0.183-0.808-0.252-1.042-0.377-1.276-0.077-0.145-0.14-0.3-0.14-0.346 0-0.173-0.407-0.998-0.664-1.346-0.148-0.2-0.292-0.426-0.322-0.503-0.102-0.266-0.442-0.667-0.832-0.981-0.216-0.174-0.685-0.589-1.043-0.923-0.498-0.464-0.761-0.662-1.121-0.842-0.768-0.384-0.872-0.419-1.242-0.419-0.269 0-0.436-0.040-0.709-0.168-1.282-0.603-2.142-0.868-3.863-1.192-0.659-0.124-2.041-0.072-2.557 0.097-0.205 0.067-0.619 0.148-0.919 0.179s-0.729 0.12-0.953 0.197c-0.224 0.077-0.559 0.168-0.745 0.203s-0.429 0.109-0.541 0.166c-0.112 0.057-0.397 0.159-0.634 0.227-1.202 0.346-1.567 0.542-2.207 1.189-0.129 0.13-0.354 0.316-0.499 0.413s-0.308 0.244-0.362 0.326c-0.054 0.082-0.268 0.362-0.476 0.621s-0.463 0.604-0.566 0.766c-0.114 0.178-0.355 0.42-0.61 0.612-0.232 0.175-0.477 0.379-0.544 0.453-0.126 0.138-0.466 1.081-0.651 1.807-0.057 0.225-0.159 0.509-0.225 0.632-0.355 0.659-0.373 0.722-0.425 1.487-0.091 1.359-0.081 2.158 0.031 2.384 0.254 0.514 0.762 1.264 1.070 1.578 0.403 0.412 0.637 0.847 0.64 1.192 0.002 0.325 0.141 0.541 0.826 1.279 0.489 0.527 0.894 0.868 1.304 1.099 0.062 0.035 0.171 0.117 0.241 0.182s0.205 0.137 0.3 0.16c0.095 0.023 0.234 0.090 0.309 0.148s0.163 0.106 0.196 0.106c0.032 0 0.216 0.074 0.409 0.165s0.512 0.211 0.709 0.266l0.359 0.101v0.363c0 0.199-0.020 0.375-0.044 0.389s-0.276-0.064-0.56-0.175c-0.284-0.111-0.757-0.251-1.050-0.31-0.557-0.112-0.984-0.269-1.347-0.494-0.118-0.073-0.238-0.133-0.267-0.133-0.129 0-0.701-0.72-0.942-1.185-0.145-0.28-0.376-0.64-0.512-0.8s-0.364-0.505-0.507-0.767c-0.301-0.555-0.703-1.179-0.893-1.384-0.073-0.079-0.224-0.42-0.336-0.759s-0.301-0.802-0.421-1.031l-0.218-0.416 0.005-1.095c0.004-0.84 0.034-1.265 0.129-1.826 0.073-0.428 0.124-0.98 0.124-1.33 0-0.547 0.014-0.625 0.163-0.906 0.238-0.45 0.968-1.519 1.145-1.678 0.040-0.036 0.207-0.233 0.371-0.439s0.442-0.516 0.617-0.69c0.291-0.289 0.982-1.238 1.22-1.675 0.166-0.306 0.433-0.534 0.894-0.767 0.244-0.123 0.509-0.267 0.588-0.32 0.124-0.083 0.372-0.187 1.104-0.465 0.086-0.032 0.288-0.158 0.45-0.278 0.262-0.195 0.342-0.223 0.735-0.257 0.242-0.021 0.57-0.073 0.728-0.116 0.502-0.138 1.134-0.25 1.637-0.291 0.269-0.022 0.55-0.062 0.625-0.091s0.821-0.078 1.658-0.111c1.504-0.059 1.71-0.049 2.572 0.122 0.126 0.025 0.411 0.076 0.632 0.114 0.666 0.113 1.725 0.408 1.982 0.554 0.151 0.085 1.318 0.684 1.81 0.928 0.158 0.078 0.378 0.213 0.488 0.299s0.304 0.19 0.431 0.231c0.279 0.090 0.415 0.175 0.862 0.536 0.19 0.153 0.384 0.293 0.431 0.311 0.122 0.046 0.746 0.63 0.933 0.873 0.086 0.112 0.271 0.372 0.41 0.578s0.349 0.464 0.466 0.575c0.341 0.32 0.693 0.906 0.798 1.325 0.052 0.207 0.094 0.413 0.094 0.457s0.116 0.319 0.259 0.611c0.142 0.292 0.259 0.577 0.259 0.632 0 0.087 0.221 0.821 0.413 1.37 0.033 0.095 0.080 0.316 0.103 0.493s0.069 0.37 0.101 0.431c0.099 0.188 0.141 1.168 0.070 1.633-0.036 0.237-0.087 0.702-0.113 1.034s-0.077 0.745-0.113 0.919c-0.073 0.35-0.278 0.973-0.35 1.064-0.070 0.088-0.211 0.541-0.255 0.817-0.021 0.134-0.058 0.244-0.081 0.244s-0.103 0.11-0.177 0.244c-0.075 0.134-0.152 0.257-0.172 0.273-0.089 0.070-0.421 0.602-0.529 0.849-0.249 0.569-1.014 1.33-1.343 1.336-0.060 0.001-0.174 0.039-0.253 0.084s-0.223 0.083-0.319 0.084c-0.097 0.001-0.226 0.040-0.287 0.086s-0.17 0.085-0.242 0.086c-0.072 0.001-0.336 0.105-0.588 0.232s-0.501 0.23-0.554 0.23c-0.053 0-0.235 0.078-0.404 0.173-0.342 0.193-0.867 0.272-1.11 0.166zM15.993 11.724c-0.296-0.133-0.665-0.733-0.785-1.275-0.038-0.174-0.158-0.488-0.266-0.698-0.177-0.344-0.197-0.429-0.197-0.855 0-0.36 0.034-0.568 0.144-0.871 0.079-0.219 0.144-0.511 0.144-0.649 0-0.337 0.205-0.574 0.688-0.793 0.28-0.127 0.468-0.172 0.749-0.177 0.355-0.007 0.391 0.005 0.669 0.222 0.162 0.126 0.363 0.338 0.448 0.471l0.154 0.241-0.059 0.707c-0.067 0.8-0.118 1.079-0.288 1.563-0.066 0.187-0.119 0.399-0.119 0.473s-0.036 0.231-0.080 0.35c-0.044 0.119-0.114 0.345-0.155 0.502s-0.143 0.416-0.228 0.575c-0.142 0.266-0.172 0.29-0.377 0.3-0.122 0.006-0.321-0.032-0.44-0.086z"></path>
</svg>
