<!-- Generated by IcoMoon.io -->
<svg version="1.1" xmlns="http://www.w3.org/2000/svg" width="32" height="32" viewBox="0 0 32 32">
<title>mtt</title>
<path d="M21.96 3.631c0.045 0 0.089 0.003 0.133 0.007l-0.371-2.638h-3.786c-0.016 0.274-0.988 0.495-2.187 0.495s-2.171-0.221-2.187-0.495h-3.786l-0.37 2.638c0.044-0.003 0.088-0.007 0.133-0.007z"></path>
<path d="M9.288 6.704c1.834-1.279 4.061-2.032 6.462-2.032s4.628 0.753 6.462 2.032c0.645-0.119 1.137-0.687 1.137-1.365 0-0.703-0.53-1.287-1.21-1.376-0.059-0.008-0.118-0.013-0.179-0.013h-12.421c-0.061 0-0.12 0.005-0.179 0.013-0.68 0.089-1.21 0.673-1.21 1.376 0 0.678 0.492 1.245 1.137 1.365z"></path>
<path d="M9.539 28.369c-0.045 0-0.089-0.003-0.133-0.007l0.37 2.638h3.786c0.016-0.274 0.988-0.495 2.187-0.495s2.171 0.221 2.187 0.495h3.786l0.37-2.638c-0.044 0.003-0.088 0.007-0.133 0.007z"></path>
<path d="M22.212 25.296c-1.834 1.279-4.061 2.031-6.462 2.031s-4.628-0.753-6.462-2.031c-0.645 0.119-1.137 0.687-1.137 1.365 0 0.703 0.53 1.287 1.21 1.375 0.059 0.008 0.118 0.013 0.179 0.013h12.421c0.061 0 0.12-0.005 0.179-0.013 0.68-0.089 1.21-0.672 1.21-1.375 0-0.678-0.493-1.245-1.137-1.365z"></path>
<path d="M19.095 24.953c-0.152 0.057-0.305 0.11-0.461 0.16-0.186 0.059-0.374 0.112-0.565 0.16-0.743 0.186-1.52 0.286-2.319 0.286s-1.576-0.1-2.319-0.286c-0.191-0.048-0.379-0.101-0.565-0.16-0.155-0.049-0.309-0.103-0.461-0.16-3.626-1.359-6.214-4.859-6.214-8.953s2.588-7.594 6.214-8.953c0.152-0.057 0.305-0.111 0.461-0.16 0.186-0.059 0.374-0.112 0.565-0.16 0.743-0.186 1.52-0.286 2.319-0.286s1.576 0.1 2.319 0.286c0.191 0.048 0.379 0.101 0.565 0.16 0.155 0.049 0.309 0.103 0.461 0.16 3.626 1.359 6.214 4.859 6.214 8.953s-2.588 7.594-6.214 8.953zM22.139 7.037c-0.071-0.050-0.14-0.101-0.211-0.15-0.081-0.055-0.164-0.107-0.247-0.16-1.712-1.098-3.746-1.736-5.931-1.736s-4.219 0.639-5.931 1.736c-0.082 0.053-0.166 0.105-0.246 0.16-0.072 0.049-0.141 0.1-0.211 0.15-2.796 1.996-4.62 5.265-4.62 8.962s1.825 6.966 4.62 8.962c0.070 0.050 0.14 0.102 0.211 0.15 0.081 0.055 0.164 0.107 0.247 0.16 1.712 1.098 3.747 1.736 5.931 1.736s4.219-0.639 5.931-1.736c0.082-0.053 0.166-0.105 0.247-0.16 0.072-0.049 0.141-0.1 0.211-0.15 2.796-1.996 4.62-5.265 4.62-8.962s-1.825-6.966-4.62-8.962z"></path>
<path d="M15.431 23.052v1.997h0.638v-1.997c-0.106 0.005-0.212 0.008-0.319 0.008s-0.213-0.003-0.319-0.008z"></path>
<path d="M19 22.267l0.999 1.73 0.553-0.319-0.999-1.73c-0.179 0.115-0.363 0.221-0.553 0.32z"></path>
<path d="M21.698 19.802l1.73 0.999 0.319-0.553-1.73-0.998c-0.099 0.189-0.205 0.374-0.32 0.553z"></path>
<path d="M22.802 15.681c0.005 0.106 0.008 0.212 0.008 0.319s-0.003 0.214-0.008 0.319h1.998v-0.639z"></path>
<path d="M23.747 11.752l-0.319-0.553-1.73 0.999c0.115 0.179 0.221 0.363 0.32 0.553z"></path>
<path d="M19 9.733c0.19 0.098 0.374 0.205 0.553 0.32l0.999-1.73-0.553-0.319z"></path>
<path d="M10.948 8.322l0.999 1.73c0.179-0.115 0.363-0.221 0.553-0.32l-0.999-1.729z"></path>
<path d="M7.752 11.752l1.73 0.999c0.098-0.19 0.205-0.374 0.32-0.553l-1.73-0.999z"></path>
<path d="M8.689 16c0-0.107 0.003-0.213 0.008-0.319h-1.998v0.638h1.998c-0.005-0.106-0.008-0.212-0.008-0.319z"></path>
<path d="M7.752 20.248l0.319 0.553 1.73-0.999c-0.115-0.179-0.221-0.363-0.32-0.553z"></path>
<path d="M10.948 23.677l0.553 0.319 0.998-1.73c-0.189-0.098-0.374-0.205-0.553-0.32z"></path>
<path d="M16.754 16.177l-0.042-0.364-0.015-0.133-0.065-0.558-0.001-0.009-0.715-6.169c0.051 0.001 0.102 0.002 0.153 0.004v-1.997h-0.639v1.997c0.051-0.002 0.102-0.003 0.153-0.004l-0.153 1.323-0.419 3.614-2.263-2.984 1.964 5.565-0.010 0.087 0.065 0.069 0.093 0.264 0.004 0.012 0.144 0.407 0.483 0.084 0.258 0.273 0.185-0.196 0.386 0.067 0.384-0.882 0.092-0.097-0.010-0.090 0.066-0.152-0.053-0.070z"></path>
</svg>
