<!-- Generated by IcoMoon.io -->
<svg version="1.1" xmlns="http://www.w3.org/2000/svg" width="32" height="32" viewBox="0 0 32 32">
<title>music_of_the_damned</title>
<path d="M25.041 1.67c-0.267-0.156-0.532-0.321-0.799-0.477-0.076-0.044-0.164-0.084-0.227-0.147 0.073-0.041 0.18-0.012 0.238-0.047-0.128 0.008-0.253 0.044-0.379 0.061-0.342 0.048-0.689 0.064-1.032 0.091-0.76 0.058-1.522 0.071-2.282 0.119-0.541 0.033-1.096 0.103-1.617 0.263-0.153 0.047-0.291 0.122-0.443 0.168-0.205 0.061-0.407 0.129-0.612 0.189-0.326 0.093-0.666 0.108-0.995 0.185-0.308 0.074-0.615 0.154-0.917 0.247-0.433 0.131-0.866 0.132-1.317 0.119-0.336-0.008-0.664-0.041-0.997-0.084-0.196-0.025-0.283 0.051-0.443 0.154-0.1 0.066-0.211 0.112-0.317 0.17-0.122 0.067-0.235 0.148-0.352 0.225-0.247 0.164-0.504 0.317-0.767 0.451-0.293 0.148-0.592 0.272-0.905 0.365-0.193 0.056-0.398 0.147-0.599 0.176-0.129 0.021-0.311 0.008-0.427-0.057-0.081-0.047-0.121-0.144-0.198-0.19 0.006 0.042 0.014 0.075 0.007 0.118-0.007 0.045-0.012 0.066-0.005 0.112 0.022 0.159 0.055 0.307 0.116 0.459 0.048 0.122 0.102 0.243 0.164 0.359 0.077 0.147 0.119 0.297 0.167 0.455 0.033 0.109 0.063 0.221 0.099 0.33 0.080 0.25 0.208 0.481 0.286 0.732 0.071 0.222 0.129 0.448 0.208 0.668 0.095 0.269 0.217 0.526 0.32 0.792 0.174 0.449 0.289 0.93 0.429 1.389 0.142 0.471 0.301 0.937 0.462 1.401 0.217 0.622 0.493 1.208 0.756 1.809 0.135 0.308 0.288 0.597 0.451 0.891 0.121 0.22 0.234 0.442 0.382 0.645 0.328 0.456 0.711 0.871 1.010 1.347 0.286 0.456 0.523 0.945 0.792 1.411 0.154 0.267 0.321 0.52 0.452 0.802 0.109 0.234 0.211 0.472 0.301 0.716 0.144 0.389 0.247 0.799 0.369 1.198 0.093 0.305 0.192 0.609 0.275 0.917 0.11 0.411 0.147 0.824 0.196 1.246 0.054 0.451 0.14 0.898 0.161 1.353 0.036 0.757 0.27 1.48 0.375 2.225 0.017 0.102 0.026 0.202 0.028 0.305 0.007 0.052-0.001 0.102-0.023 0.148-0.047 0.041-0.102 0.021-0.155 0.004 0.007 0.029 0.016 0.061 0.025 0.091 0.007 0.089-0.007 0.151-0.038 0.234-0.047 0.132-0.051 0.266-0.086 0.4-0.032 0.119-0.112 0.205-0.158 0.314-0.031 0.072-0.026 0.154-0.057 0.228-0.032 0.077-0.099 0.135-0.154 0.196-0.128 0.143-0.272 0.27-0.389 0.42-0.106 0.135-0.221 0.253-0.343 0.372-0.153 0.148-0.317 0.206-0.523 0.18-0.135-0.016-0.19-0.012-0.299 0.075-0.096 0.075-0.193 0.134-0.304 0.185-0.192 0.089-0.375 0.128-0.584 0.094-0.145-0.025-0.266-0.138-0.356-0.247-0.048-0.060-0.065-0.115-0.099-0.18-0.028-0.053-0.078-0.102-0.112-0.152s-0.055-0.103-0.095-0.149c-0.049-0.055-0.132-0.116-0.153-0.19-0.016-0.060 0.029-0.071 0.054-0.125 0.038-0.075 0.014-0.148 0.028-0.225 0.012-0.058 0.051-0.099 0.076-0.151 0.038-0.084 0.033-0.163 0.090-0.239 0.078-0.103 0.187-0.185 0.27-0.286 0.11-0.134 0.155-0.297 0.247-0.44 0.035-0.055 0.071-0.108 0.108-0.16-1.341 1.030-2.539 2.51-2.738 4.303 0.036 0.025 0.071 0.052 0.1 0.091 0.041 0.054 0.070 0.108 0.116 0.157 0.131 0.14 0.289 0.259 0.42 0.397 0.032 0.033 0.035 0.077 0.065 0.116 0.028 0.033 0.074 0.070 0.112 0.094 0.113 0.070 0.254 0.106 0.384 0.109 0.273 0.004 0.544 0.001 0.818-0.033 0.096-0.012 0.176-0.047 0.275-0.041 0.073 0.004 0.148 0.037 0.222 0.025 0.023-0.004 0.090-0.021 0.109-0.033 0.036-0.025 0.025-0.077 0.063-0.108 0.078-0.063 0.225-0.071 0.318-0.064 0.211 0.016 0.391-0.068 0.592-0.129 0.352-0.106 0.722-0.143 1.083-0.208 0.32-0.058 0.716-0.134 1.004-0.299 0.195-0.11 0.355-0.282 0.517-0.436 0.161-0.154 0.299-0.317 0.429-0.497 0.193-0.267 0.376-0.555 0.464-0.875 0.074-0.276 0.279-0.478 0.535-0.59 0.158-0.070 0.331-0.118 0.491-0.182 0.192-0.077 0.379-0.164 0.565-0.251 0.272-0.128 0.564-0.248 0.817-0.411 0.112-0.072 0.25-0.152 0.318-0.272 0.048-0.082 0.073-0.174 0.099-0.265 0.081-0.279 0.192-0.554 0.262-0.836 0.049-0.193 0.077-0.42 0.025-0.616-0.135-0.513-0.419-0.919-0.769-1.305-0.145-0.162-0.196-0.343-0.253-0.547-0.038-0.138-0.035-0.278-0.096-0.408-0.092-0.198-0.288-0.35-0.439-0.5-0.201-0.198-0.433-0.323-0.657-0.49-0.279-0.211-0.578-0.401-0.841-0.634-0.17-0.152-0.355-0.304-0.491-0.488-0.15-0.202-0.18-0.468-0.217-0.711-0.005-0.029-0.025-0.086-0.016-0.116 0.010-0.044 0.055-0.047 0.073-0.079 0.032-0.055-0.033-0.174-0.052-0.235-0.025-0.082-0.057-0.163-0.068-0.247-0.009-0.058-0.009-0.11-0.028-0.167-0.013-0.041-0.019-0.093-0.045-0.128-0.039-0.055-0.153-0.103-0.211-0.145-0.11-0.082-0.231-0.162-0.327-0.259-0.1-0.1-0.202-0.218-0.294-0.328-0.048-0.058-0.109-0.131-0.138-0.198s-0.045-0.113-0.095-0.176c-0.109-0.141-0.209-0.257-0.296-0.416-0.060-0.109-0.116-0.222-0.185-0.327-0.155-0.231-0.327-0.404-0.42-0.673-0.055-0.159-0.118-0.334-0.15-0.498-0.023-0.124-0.013-0.246-0.009-0.371 0.005-0.113-0.003-0.228 0.005-0.343 0.006-0.093 0.019-0.185 0.017-0.279-0.006-0.273-0.122-0.547-0.201-0.805-0.087-0.285-0.167-0.568-0.283-0.843-0.113-0.267-0.257-0.513-0.413-0.757-0.128-0.199-0.266-0.333-0.445-0.484-0.095-0.080-0.164-0.199-0.238-0.298-0.155-0.206-0.269-0.464-0.397-0.687-0.095-0.163-0.182-0.327-0.256-0.5-0.102-0.237-0.163-0.49-0.222-0.738-0.060-0.24-0.108-0.475-0.122-0.722-0.009-0.173-0.012-0.346-0.020-0.517-0.016-0.299-0.109-0.549-0.276-0.794-0.102-0.149-0.259-0.315-0.282-0.503-0.019-0.14 0.042-0.311 0.074-0.446 0.067-0.288 0.217-0.581 0.373-0.831 0.080-0.131 0.174-0.234 0.295-0.327 0.125-0.096 0.195-0.195 0.233-0.346 0.097 0.003 0.195 0.029 0.293 0.033 0.201 0.008 0.421 0.025 0.622 0.008 0.301-0.029 0.567-0.182 0.859-0.231 0.044-0.008 0.051-0.008 0.093 0.004 0.169 0.064 0.323 0.196 0.468 0.292 0.219 0.147 0.449 0.27 0.676 0.404 0.172 0.103 0.437 0.224 0.552 0.398 0.045 0.067 0.039 0.173 0.081 0.231 0.042 0.057 0.118 0.048 0.187 0.051 0.668 0.025 1.291-0.174 1.934-0.311 0.44-0.093 0.879-0.159 1.327-0.176 0.436-0.016 0.847 0.041 1.273 0.124 0.25 0.049 0.472 0.125 0.714 0.186 0.057 0.016 0.070 0.021 0.125 0-0.019-0.058-0.054-0.109-0.103-0.149-0.108-0.125-0.215-0.251-0.323-0.378-0.34-0.413-0.66-0.849-0.968-1.283-0.202-0.285-0.379-0.592-0.602-0.86-0.112-0.138-0.237-0.263-0.375-0.374-0.071-0.042-0.128-0.096-0.173-0.164-0.071-0.147 0.122-0.151 0.219-0.179 0.23-0.067 0.455-0.15 0.687-0.208 0.378-0.093 0.777-0.145 1.167-0.137 0.173 0.003 0.391 0.041 0.548-0.061 0.065-0.042 0.105-0.116 0.166-0.166 0.083-0.067 0.128-0.118 0.189-0.202 0.045-0.061 0.108-0.135 0.18-0.152 0.158-0.041 0.34-0.029 0.501-0.033 0.331-0.004 0.667-0.049 0.998-0.004 0.323 0.042 0.635 0.162 0.949 0.253-0.084-0.029-0.17-0.067-0.228-0.091-0.243-0.109-0.474-0.237-0.705-0.371z"></path>
<path d="M11.203 23.945c-0.022 0.087-0.041 0.208-0.083 0.286-0.026 0.048-0.067 0.077-0.097 0.121-0.038 0.055-0.044 0.118-0.106 0.151-0.033 0.021-0.084 0.021-0.122 0.033-0.049 0.016-0.070 0.041-0.112 0.066-0.016 0.008-0.039 0.021-0.061 0.029 0.025-0.008 0.057-0.021 0.097-0.029-0.185 0.162-0.48 0.155-0.69 0.058-0.112-0.051-0.187-0.077-0.312-0.057-0.105 0.016-0.167 0.021-0.263-0.025-0.054-0.025-0.109-0.021-0.158-0.058-0.070-0.051-0.1-0.144-0.166-0.202-0.068-0.061-0.081-0.106-0.086-0.19-0.005-0.091-0.026-0.198 0.003-0.295 0.041-0.138 0.125-0.263 0.169-0.401 0.045-0.147 0.129-0.299 0.225-0.421 0.087-0.11 0.251-0.212 0.387-0.259 0.147-0.049 0.244 0 0.387 0.033 0.334 0.084 0.606 0.323 0.782 0.616 0.090 0.148 0.253 0.36 0.208 0.545zM11.488 28.407c0.035 0.021 0.324 0.27 0.266 0.070 0.11-0.033-0.019-0.16-0.042-0.237-0.035-0.116-0.064-0.241-0.11-0.353 0.057 0.041 0.176 0.037 0.246 0.052 0.118 0.025 0.215-0.012 0.327-0.052 0.131-0.045 0.091-0.070 0.119-0.189 0.017-0.074 0.090-0.089 0.106-0.159 0.026-0.116-0.096-0.22-0.054-0.349 0.012-0.033 0.045-0.103 0.076-0.128 0.036-0.029 0.105-0.016 0.132-0.042 0.052-0.048-0.035-0.236-0.054-0.294-0.032-0.1 0.005-0.193-0.014-0.304-0.022-0.132-0.154-0.356 0.022-0.416 0.141-0.048 0.243-0.004 0.381-0.008 0.064 0 0.102-0.029 0.172-0.012 0.077 0.021 0.144 0.105 0.228 0.090 0.073-0.012 0.176-0.121 0.221-0.173 0.067-0.078 0.1-0.182 0.173-0.262 0.134-0.151 0.248-0.313 0.407-0.434 0.11-0.084 0.173-0.198 0.234-0.318 0.049-0.096 0.109-0.185 0.167-0.275 0.019-0.18 0.045-0.362 0.089-0.541l-0.068 0.507c0.014-0.021 0.029-0.044 0.042-0.067 0.032-0.055 0.064-0.11 0.097-0.166 0.051-0.086 0.106-0.168 0.166-0.25 0.108-0.144 0.302-0.269 0.356-0.442 0.049-0.151 0.071-0.311 0.113-0.464 0.1-0.375 0.276-0.744 0.299-1.135 0.013-0.232-0.028-0.466-0.058-0.696-0.026-0.209-0.071-0.432-0.16-0.623-0.108-0.23-0.235-0.445-0.278-0.7-0.033-0.206-0.033-0.394-0.125-0.586-0.093-0.199-0.224-0.371-0.378-0.526-0.144-0.145-0.291-0.254-0.382-0.442-0.089-0.179-0.224-0.298-0.355-0.449s-0.262-0.28-0.426-0.397c-0.211-0.149-0.423-0.248-0.663-0.339-0.151-0.057-0.314-0.131-0.472-0.167-0.132-0.029-0.269-0.033-0.401-0.049-0.594-0.078-1.184-0.141-1.783-0.167-0.542-0.025-1.128-0.053-1.626 0.189-0.1 0.049-0.208 0.091-0.305 0.147-0.116 0.064-0.179 0.161-0.275 0.243-0.177 0.152-0.398 0.228-0.564 0.4-0.169 0.176-0.328 0.374-0.469 0.573-0.154 0.217-0.257 0.484-0.385 0.718-0.121 0.218-0.246 0.442-0.342 0.671-0.102 0.243-0.161 0.501-0.225 0.756-0.061 0.241-0.121 0.484-0.16 0.73-0.048 0.302-0.028 0.616-0.048 0.921-0.026 0.397-0.049 0.763 0.074 1.145 0.055 0.17 0.127 0.334 0.198 0.5 0.096 0.22 0.219 0.497 0.4 0.664 0.153 0.143 0.323 0.273 0.483 0.407 0.057 0.048 0.083 0.061 0.147 0.029 0.093-0.049 0.179-0.121 0.266-0.183 0.122-0.089 0.196-0.113 0.35-0.096 0.092 0.008 0.193-0.021 0.279 0.016 0.086 0.033 0.169 0.115 0.202 0.199 0.045 0.109 0.070 0.236 0.105 0.349 0.035 0.116 0.076 0.232 0.108 0.349 0.028 0.1 0.080 0.289 0.044 0.392-0.019 0.057-0.081 0.137-0.132 0.162-0.033 0.016-0.105 0.003-0.108 0.051-0.001 0.037 0.044 0.044 0.061 0.071 0.046 0.072 0.038 0.091 0.128 0.144 0.051 0.029 0.112 0.047 0.131 0.109 0.003 0.008-0.012 0.075-0.009 0.087 0.006 0.029 0.031 0.058 0.046 0.084 0.064 0.099 0.161 0.212 0.256 0.28 0.118 0.086 0.248 0.154 0.36 0.248 0.067 0.057 0.131 0.090 0.203 0.134 0.070 0.042 0.106 0.168 0.172 0.19 0.001-0.115-0.067-0.199-0.116-0.294-0.076-0.147-0.099-0.33-0.153-0.488 0.052 0.058 0.102 0.025 0.164 0.048 0.112 0.042 0.227 0.154 0.337 0.212 0.14 0.074 0.286 0.135 0.403 0.241 0.109 0.099 0.228 0.177 0.342 0.272 0.048 0.041 0.125 0.090 0.132 0.157-0.070 0.037-0.172 0.063-0.25 0.071-0.147 0.016-0.182-0.004-0.129 0.163 0.035 0.11-0.013 0.167-0.019 0.278-0.003 0.029 0.010 0.115-0.010 0.141-0.065 0.089-0.151-0.004-0.127 0.149 0.014 0.1 0.078 0.195 0.164 0.248 0.039 0.025 0.083 0.025 0.128 0.044 0.063 0.029 0.086 0.067 0.127 0.119 0.035 0.045 0.058 0.066 0.108 0.067 0.028 0 0.052-0.029 0.081-0.021 0.031 0.008 0.076 0.067 0.108 0.078 0.036 0.016 0.153 0.025 0.177-0.025 0.035-0.067-0.078-0.147-0.109-0.187-0.042-0.055-0.071-0.135-0.073-0.202 0.033-0.004 0.105 0.029 0.145 0.037 0.044 0.004 0.090 0.016 0.132 0.033 0.068 0.025 0.11 0.072 0.167 0.112 0.051 0.033 0.119 0.057 0.14 0.122 0.078 0 0.122-0.016 0.121-0.086-0.001-0.047-0.036-0.134-0.058-0.173-0.028-0.052-0.055-0.093-0.078-0.148-0.023-0.052-0.061-0.070-0.078-0.127-0.051-0.157 0.173-0.072 0.247-0.029z"></path>
</svg>
