<!-- Generated by IcoMoon.io -->
<svg version="1.1" xmlns="http://www.w3.org/2000/svg" width="32" height="32" viewBox="0 0 32 32">
<title>mystic1</title>
<path d="M30.503 28.685h-29.005l14.504-19.37zM16.001 27.686c0.833 0 1.643-0.083 2.433-0.25s1.54-0.409 2.247-0.726c0.708-0.322 1.351-0.708 1.933-1.165 0.595-0.458 1.109-0.968 1.54-1.54-0.181-0.998-0.514-1.915-0.998-2.747-0.473-0.832-1.070-1.544-1.79-2.141-0.723-0.609-1.54-1.090-2.455-1.437-0.915-0.345-1.888-0.519-2.909-0.519-1.040 0-2.020 0.174-2.935 0.519-0.915 0.348-1.736 0.828-2.455 1.437-0.708 0.598-1.306 1.309-1.79 2.141-0.473 0.832-0.802 1.748-0.976 2.747 0.424 0.571 0.935 1.082 1.518 1.54 0.594 0.457 1.248 0.844 1.955 1.165 0.708 0.318 1.457 0.56 2.248 0.726s1.604 0.25 2.436 0.25zM11.84 21.717c0-0.625 0.103-1.207 0.311-1.748 0.219-0.552 0.522-1.040 0.896-1.457 0.383-0.416 0.833-0.738 1.332-0.976 0.508-0.25 1.049-0.375 1.623-0.375 0.564 0 1.101 0.125 1.601 0.375 0.51 0.238 0.957 0.56 1.332 0.976s0.665 0.905 0.874 1.457c0.22 0.541 0.333 1.123 0.333 1.748 0 0.624-0.113 1.217-0.333 1.767-0.208 0.54-0.5 1.032-0.874 1.457-0.375 0.431-0.821 0.76-1.332 0.998-0.5 0.234-1.037 0.355-1.601 0.355-0.574 0-1.116-0.121-1.623-0.355-0.499-0.238-0.949-0.568-1.332-0.998-0.374-0.424-0.677-0.916-0.896-1.457-0.208-0.549-0.311-1.143-0.311-1.767z"></path>
</svg>
