<!-- Generated by IcoMoon.io -->
<svg version="1.1" xmlns="http://www.w3.org/2000/svg" width="31" height="32" viewBox="0 0 31 32">
<title>mysteries_abound</title>
<path d="M24.849 6.79c0.011 0.008 0.022 0.016 0.031 0.024z"></path>
<path d="M22.901 2.004c0.183-0.015 0.307-0.011 0.315 0.027 0.001 0.012 0.092 0.44 0.092 0.44s0.499 0.051 0.583 0.079c0.091 0.030 0.253 0.019 0.323 0.050 0.392 0.172 0.229 1.536 0.269 1.97 0.076 0.789 0.164 1.689 0.392 2.444 0.125 0.41 0.208 0.841 0.309 1.256 0.073 0.303 0.169 0.601 0.158 0.914-0.004 0.135-0.007 0.305-0.053 0.432-0.080 0.219-0.072 0.152-0.25 0.23-0.326 0.143-0.809 0.307-0.769 0.743 0.093 0.987 0.314 1.964 0.402 2.944 0.24 2.638 0.709 5.226 1.084 7.843 0.062 0.432 0.175 0.855 0.225 1.288 0.047 0.422 0.015 0.849 0.054 1.272 0.023 0.256 0.341 1.202 0.176 1.445-0.047 0.070-0.291 0.189-0.383 0.171-0.13-0.027-0.214-0.744-0.24-0.868-0.116-0.531-0.126-1.122-0.149-1.684-0.028-0.665-0.172-1.318-0.296-1.962-0.127-0.656-0.223-1.318-0.318-1.984-0.057-0.392-0.112-0.785-0.169-1.179-0.049-0.345-0.084-0.688-0.12-1.034-0.146-1.409-0.501-2.785-0.713-4.185-0.208-1.371-0.25-2.757-0.447-4.135-0.060-0.414-0.131-0.83-0.152-1.245-0.018-0.344-0.207-0.65-0.238-0.993-0.061-0.69-0.328-1.895-0.405-2.582-0.045-0.391-0.096-1.154-0.275-1.153-0.843 0.004-2.768 0.325-3.588 0.134 0.177-0.276 1.121-0.279 1.402-0.325 0.616-0.103 2.156-0.304 2.779-0.353z"></path>
<path d="M24.757 26.25c0.001-0.011 0.081-1.137-0.050-1.654-0.079-0.306-0.081-0.583-0.082-0.85-0.003-0.255-0.004-0.495-0.066-0.765-0.115-0.493-0.18-1.007-0.223-1.401-0.049-0.43-0.139-0.991-0.21-1.372-0.081-0.445-0.177-1.309-0.242-1.88l-0.032-0.292c-0.060-0.525-0.138-0.91-0.214-1.28-0.076-0.375-0.154-0.763-0.215-1.298-0.176-1.535-0.463-3.071-0.766-4.641l-0.069-0.353c-0.135-0.697-0.275-1.417-0.382-2.109l-0.395-2.562c-0.114-0.724-0.424-1.768-0.513-2.064-0.249-0.001-0.82-0.009-1.071-0.057-0.13-0.024-0.28-0.037-0.459-0.037-0.18 0-0.364 0.012-0.541 0.024l-0.116 0.007c-0.332 0.020-0.666 0.072-0.991 0.122-0.263 0.041-0.536 0.083-0.807 0.107-0.586 0.054-1.24 0.153-2.059 0.31-0.237 0.046-0.485 0.051-0.724 0.057-0.195 0.005-0.397 0.009-0.586 0.037-0.229 0.032-0.452 0.093-0.667 0.152-0.271 0.074-0.551 0.15-0.85 0.173-0.694 0.056-1.372 0.112-2.042 0.207-0.428 0.062-0.809 0.125-1.167 0.194l-0.134 0.026c-0.445 0.085-0.905 0.173-1.364 0.233-0.249 0.032-0.503 0.076-0.75 0.119-0.367 0.062-0.746 0.127-1.127 0.158l-0.064 0.005-0.038-0.050c-0.062-0.082-0.093-0.191-0.082-0.292l0.008-0.076 0.073-0.023c0.080-0.024 0.17-0.041 0.257-0.056 0.116-0.020 0.238-0.041 0.326-0.082 0.142-0.069 0.292-0.093 0.439-0.118 0.127-0.022 0.248-0.042 0.353-0.088 0.355-0.16 0.646-0.256 0.943-0.311 0.202-0.037 0.405-0.058 0.602-0.077 0.156-0.016 0.313-0.032 0.467-0.056 0.422-0.066 0.843-0.143 1.249-0.218 0.677-0.126 1.375-0.255 2.086-0.328 0.623-0.064 1.188-0.129 1.726-0.195 0.118-0.015 0.231-0.018 0.341-0.020 0.116-0.003 0.226-0.005 0.336-0.022 0.12-0.016 0.23-0.027 0.338-0.037 0.134-0.012 0.26-0.023 0.405-0.049l0.062-0.011c0.357-0.061 0.696-0.119 1.041-0.202 0.495-0.12 0.981-0.188 1.408-0.196 0.203-0.003 0.425-0.051 0.639-0.097 0.18-0.039 0.367-0.080 0.547-0.095 0.173-0.015 0.353-0.023 0.551-0.023 0.382 0 0.773 0.028 1.138 0.060 0.143 0.012 0.272 0.028 0.399 0.043 0.143 0.019 0.287 0.037 0.451 0.047l0.088 0.007 0.018 0.087c0.070 0.355 0.139 0.681 0.207 1.001 0.096 0.459 0.191 0.908 0.287 1.416 0.042 0.218 0.081 0.437 0.122 0.656 0.045 0.244 0.088 0.487 0.134 0.728 0.074 0.386 0.123 0.78 0.169 1.16 0.039 0.319 0.080 0.651 0.135 0.973 0.038 0.218 0.089 0.437 0.141 0.65 0.046 0.2 0.093 0.399 0.13 0.601 0.049 0.267 0.080 0.521 0.111 0.767 0.042 0.351 0.082 0.681 0.169 1.035 0.062 0.258 0.093 0.489 0.123 0.712 0.023 0.179 0.047 0.363 0.089 0.563 0.028 0.138 0.045 0.279 0.060 0.414 0.014 0.123 0.028 0.245 0.051 0.365 0.037 0.194 0.074 0.39 0.114 0.59 0.181 0.923 0.367 1.877 0.453 2.773 0.092 0.945 0.222 1.857 0.349 2.741 0.126 0.884 0.256 1.797 0.349 2.745 0.030 0.313 0.066 0.623 0.104 0.934 0.039 0.323 0.079 0.647 0.11 0.972 0.022 0.23 0.085 0.977 0.085 0.977l0.005 0.060-0.709 0.605z"></path>
<path d="M19.853 2.729c-0.2 0-0.384 0.007-0.56 0.023-0.188 0.016-0.378 0.058-0.562 0.097-0.218 0.047-0.425 0.092-0.616 0.095-0.434 0.008-0.93 0.077-1.433 0.199-0.341 0.083-0.678 0.141-1.035 0.202l-0.060 0.009c-0.139 0.024-0.264 0.035-0.395 0.047-0.108 0.009-0.219 0.020-0.345 0.038-0.103 0.015-0.208 0.018-0.321 0.020-0.114 0.003-0.23 0.005-0.353 0.020-0.535 0.066-1.099 0.131-1.723 0.195-0.715 0.074-1.416 0.203-2.094 0.329-0.406 0.074-0.827 0.152-1.246 0.217-0.152 0.024-0.302 0.039-0.461 0.056-0.199 0.020-0.406 0.041-0.612 0.079-0.307 0.058-0.606 0.156-0.97 0.319-0.091 0.041-0.204 0.060-0.325 0.080-0.146 0.024-0.313 0.051-0.47 0.127-0.073 0.035-0.185 0.054-0.295 0.073-0.091 0.016-0.184 0.032-0.272 0.060l-0.145 0.046-0.016 0.152c-0.015 0.129 0.024 0.269 0.104 0.373l0.077 0.101 0.127-0.011c0.386-0.031 0.767-0.096 1.138-0.16 0.244-0.042 0.497-0.085 0.744-0.118 0.46-0.060 0.922-0.149 1.366-0.234l0.139-0.026c0.355-0.069 0.735-0.131 1.161-0.192 0.666-0.096 1.316-0.15 2.034-0.207 0.311-0.024 0.595-0.101 0.872-0.177 0.222-0.060 0.432-0.116 0.654-0.149 0.183-0.026 0.371-0.030 0.571-0.034 0.245-0.007 0.498-0.012 0.744-0.060 0.815-0.157 1.464-0.255 2.046-0.309 0.275-0.026 0.549-0.068 0.815-0.108 0.321-0.049 0.654-0.1 0.98-0.12l0.116-0.007c0.176-0.012 0.357-0.023 0.535-0.023 0.171 0 0.314 0.011 0.436 0.034 0.237 0.045 0.727 0.055 1.006 0.058 0.112 0.371 0.383 1.306 0.486 1.966 0.062 0.405 0.137 0.885 0.21 1.36 0.065 0.424 0.13 0.843 0.185 1.202 0.108 0.697 0.249 1.421 0.384 2.122l0.066 0.344c0.303 1.569 0.59 3.102 0.765 4.631 0.062 0.54 0.141 0.931 0.218 1.309 0.079 0.386 0.153 0.75 0.212 1.27l0.031 0.284c0.065 0.575 0.161 1.444 0.244 1.896 0.070 0.38 0.161 0.938 0.208 1.364 0.045 0.397 0.11 0.916 0.226 1.414 0.060 0.257 0.061 0.491 0.064 0.739 0.001 0.275 0.004 0.558 0.085 0.878 0.127 0.498 0.049 1.605 0.047 1.616l-0.041 0.555 0.965-0.824-0.009-0.119c0 0-0.064-0.747-0.085-0.977-0.031-0.328-0.072-0.656-0.11-0.976-0.037-0.305-0.074-0.62-0.106-0.93-0.092-0.95-0.222-1.865-0.349-2.75-0.126-0.882-0.256-1.795-0.348-2.737-0.087-0.903-0.273-1.86-0.455-2.785-0.039-0.199-0.077-0.395-0.114-0.587-0.023-0.115-0.037-0.233-0.050-0.356-0.016-0.139-0.032-0.283-0.062-0.426-0.039-0.195-0.064-0.378-0.088-0.554-0.030-0.227-0.061-0.461-0.125-0.724-0.085-0.349-0.125-0.675-0.168-1.022-0.030-0.249-0.061-0.506-0.111-0.775-0.037-0.206-0.085-0.409-0.131-0.606-0.050-0.21-0.102-0.429-0.138-0.643-0.055-0.321-0.096-0.65-0.135-0.969-0.047-0.382-0.096-0.777-0.171-1.167-0.045-0.238-0.089-0.48-0.134-0.721-0.039-0.222-0.080-0.443-0.122-0.662-0.097-0.512-0.189-0.953-0.288-1.421-0.068-0.321-0.135-0.646-0.206-0.997l-0.035-0.173-0.176-0.014c-0.16-0.011-0.298-0.028-0.444-0.046-0.13-0.016-0.258-0.033-0.405-0.045-0.368-0.031-0.762-0.060-1.149-0.060zM19.853 2.962c0.376 0 0.756 0.027 1.13 0.058 0.307 0.026 0.543 0.069 0.851 0.091 0.171 0.857 0.329 1.551 0.494 2.417 0.087 0.457 0.168 0.927 0.256 1.383 0.135 0.708 0.181 1.424 0.303 2.132 0.073 0.422 0.195 0.831 0.272 1.252 0.115 0.629 0.129 1.19 0.28 1.809 0.111 0.455 0.118 0.815 0.211 1.269 0.053 0.257 0.062 0.522 0.111 0.78 0.203 1.066 0.462 2.264 0.567 3.352 0.183 1.892 0.513 3.593 0.697 5.487 0.061 0.635 0.153 1.267 0.214 1.904 0.022 0.23 0.085 0.976 0.085 0.976l-0.452 0.386c0 0 0.085-1.15-0.054-1.692-0.146-0.573-0.014-1.035-0.148-1.612-0.104-0.451-0.169-0.926-0.222-1.387-0.046-0.421-0.137-0.98-0.21-1.381-0.096-0.525-0.212-1.634-0.273-2.164-0.12-1.060-0.309-1.518-0.429-2.578-0.179-1.559-0.47-3.109-0.767-4.65-0.156-0.801-0.325-1.65-0.451-2.456-0.118-0.761-0.276-1.796-0.395-2.563-0.135-0.865-0.543-2.161-0.543-2.161h-0.020c-0.13 0-0.835-0.003-1.114-0.055-0.152-0.028-0.315-0.038-0.479-0.038-0.225 0-0.453 0.018-0.665 0.031-0.609 0.037-1.203 0.173-1.803 0.229-0.686 0.064-1.395 0.183-2.068 0.311-0.421 0.081-0.877 0.032-1.305 0.093-0.524 0.073-0.985 0.283-1.51 0.323-0.686 0.054-1.367 0.111-2.050 0.208-0.394 0.057-0.784 0.119-1.172 0.194-0.495 0.095-0.991 0.194-1.49 0.258-0.624 0.081-1.241 0.225-1.872 0.276-0.043-0.056-0.068-0.135-0.060-0.208 0.18-0.056 0.426-0.062 0.598-0.145 0.248-0.119 0.545-0.096 0.789-0.206 0.29-0.13 0.587-0.241 0.918-0.302 0.353-0.065 0.713-0.079 1.066-0.133 1.125-0.175 2.198-0.428 3.328-0.544 0.577-0.060 1.153-0.124 1.728-0.196 0.23-0.028 0.453-0.009 0.678-0.041 0.268-0.038 0.478-0.041 0.747-0.085 0.375-0.065 0.742-0.126 1.11-0.215 0.441-0.107 0.927-0.184 1.383-0.192 0.387-0.007 0.805-0.16 1.194-0.194 0.179-0.016 0.359-0.022 0.54-0.022z"></path>
<path d="M20.859 4.719c0.145 1.439 0.47 2.798 0.673 4.223 0.096 0.67 0.168 1.338 0.2 2.010 0.015 0.306 0.062 0.372 0.388 0.305-0.123-0.688-0.081-1.393-0.169-2.086-0.096-0.748-0.185-1.498-0.329-2.24-0.169-0.878-0.463-1.7-0.633-2.574-0.045-0.007-0.12 0.004-0.162 0.023 0.009 0.114 0.022 0.226 0.032 0.34z"></path>
<path d="M7.72 7.749c0.223 0.438 0.242 0.679 0.345 1.165 0.129 0.602 0.275 1.218 0.464 1.8 0.233 0.715 0.502 1.429 0.619 2.165 0.045 0.287 0.146 0.411 0.238 0.678 0.072 0.211 0.187 0.444 0.187 0.444s0.642-0.13 0.747-0.175c0.479-0.207 0.735-0.188 1.207-0.367 0.531-0.2 1.094-0.198 1.638-0.309 0.402-0.081 0.754-0.361 1.15-0.502 0.373-0.131 0.757-0.242 1.126-0.37-0.171-1.233-0.621-2.389-0.877-3.611-0.127-0.608-0.364-1.16-0.495-1.761-0.083-0.379-0.226-0.849-0.409-1.175-1.606 0.233-3.263 0.311-4.813 0.87-0.349 0.127-1.313 0.394-1.313 0.394s0.116 0.556 0.185 0.751z"></path>
<path d="M8.581 29.942c0.33 0.13 0.713 0.023 1.052-0.027 1.42-0.211 2.853-0.272 4.281-0.413 0.497-0.050 0.965-0.189 1.458-0.246 0.901-0.104 1.776-0.321 2.65-0.471 0.972-0.168 1.96-0.161 2.938-0.303 0.688-0.1 1.375-0.28 2.068-0.398 0.388-0.066 1.375 0.062 1.221-0.503-0.414-0.099-0.962 0.045-1.372 0.123-0.544 0.103-1.060 0.183-1.594 0.325-0.564 0.15-1.21 0.199-1.791 0.29-0.475 0.074-0.949 0.127-1.428 0.18-2.086 0.231-4.093 0.732-6.203 0.812-0.78 0.030-1.565 0.139-2.317 0.288-0.368 0.073-0.66 0.187-1.057 0.208 0.030 0.061 0.103 0.222 0.095 0.135z"></path>
<path d="M21.011 16.299c-0.433 0.093-0.826 0.242-1.253 0.357-0.991 0.269-2.044 0.272-3.049 0.49-2.791 0.604-5.388 1.607-8.248 1.807-0.026-0.046-0.015-0.081 0.034-0.103-0.153 0.057-0.194 0.097-0.202 0.134 0.001-0.406-0.054-0.628 0.18-0.817 0.275-0.223 0.792-0.168 1.11-0.214 0.778-0.112 1.543-0.061 2.305-0.317 1.13-0.379 2.299-0.612 3.425-1.019 1.842-0.667 3.794-0.616 5.695-0.926 0.065 0.303-0.018 0.291 0.003 0.608zM19.964 18.525c-1.060 0.227-2.13 0.386-3.186 0.614-0.838 0.18-1.68 0.359-2.521 0.514-0.345 0.065-1.889 0.34-2.301 0.355-0.433 0.13-1.51 0.369-1.701 0.437-0.421 0.149-0.826 0.334-1.28 0.394 0.096-0.269 0.081-0.595 0.055-0.904 0.551-0.123 1.037-0.269 1.558-0.497 0.612-0.267 1.498-0.264 2.13-0.463 0.92-0.291 1.949-0.315 2.876-0.571 1.276-0.351 2.747-0.552 4.045-0.738 0.597-0.085 1.256-0.411 1.546 0.619-0.399 0.092-0.827 0.156-1.221 0.24zM17.164 21.279c-1.184 0.328-2.421 0.552-3.614 0.823-0.582 0.131-1.782 0.188-2.356 0.23-0.66 0.049-0.907 0.529-1.562 0.355-0.019-0.005-0.037-0.009-0.055-0.016 0.027-0.307-0.185-0.824-0.047-1.002-0.015-0.003-0.023-0.016-0.024-0.037 0.997-0.418 2.22-0.424 3.279-0.49 1.133-0.069 2.272-0.129 3.367-0.459 0.964-0.29 1.869-0.558 2.871-0.635 0.506-0.039 1.042-0.395 1.271 0.445-0.015-0.054-2.902 0.723-3.129 0.785zM22.416 12.893c0 0-0.043-0.7-0.261-0.839-0.219-0.138-0.669-0.249-0.886-0.275-0.1-0.505-0.091-1.022-0.199-1.525-0.204-0.946-0.433-1.827-0.508-2.795-0.041-0.528-0.118-1.053-0.166-1.579-0.019-0.21-0.073-0.411-0.106-0.614-0.034-0.222 0.018-0.455-0.030-0.677-0.398-0.146-0.854-0.139-1.271-0.202-0.323-0.049-0.675-0.146-0.997-0.152-0.256-0.004-0.513 0.11-0.761 0.158-0.367 0.072-0.709 0.035-1.068 0.068-0.585 0.053-1.157 0.115-1.735 0.195 0.054 0.213 0.194 0.752 0.236 0.888 0.138 0.437 0.309 0.872 0.472 1.307 0.357 0.951 0.307 1.884 0.64 2.843 0.145 0.421 0.313 0.834 0.313 1.263 0.001 0.378 0.222 0.719 0.299 1.084 0.051 0.249 0.108 0.486 0.181 0.724 0.092 0.298 0.394 1.154 0.394 1.154s-0.317 0.096-0.643 0.18c-0.742 0.191-1.494 0.344-2.226 0.566-1.089 0.33-2.199 0.536-3.298 0.822-0.467 0.12-1.749 0.497-1.749 0.497s-0.292-1.215-0.47-1.666c-0.28-0.709-0.409-1.441-0.643-2.161-0.264-0.815-0.486-1.625-0.66-2.463-0.153-0.738-0.555-2.216-0.593-2.244-0.001-0.068-0.215-0.761-0.371-1.069 0.061-0.020 0.632-0.233 0.872-0.282 0.457-0.185 0.974-0.189 1.452-0.315 0.382-0.1 0.761-0.214 1.142-0.315-0.338 0.038-0.675 0.068-1.002 0.077-0.479 0.015-0.961 0.022-1.439 0.065-0.44 0.038-0.9 0.081-1.353 0.141-0.328 0.042-0.651 0.092-0.962 0.156 0.096 0.471 0.246 0.885 0.26 1.386 0.013 0.498-0.024 1.002 0.046 1.497 0.313 2.187 0.752 4.354 1.075 6.54 0.066 0.443 0.043 0.88 0.101 1.328 0.070 0.543 0.135 1.085 0.204 1.628 0.141 1.102 0.294 2.202 0.533 3.287 0.2 0.911 0.131 1.861 0.241 2.806 0.097 0.843 0.225 1.684 0.371 2.52 0.135 0.778 0.326 1.49 0.338 2.29 0.696-0.060 1.19-0.424 1.915-0.367 0.411 0.031 0.785-0.076 1.19-0.104 0.441-0.031 0.884 0.018 1.328-0.018 0.66-0.051 1.309-0.123 1.954-0.272 0.604-0.139 1.244-0.079 1.843-0.256 0.675-0.199 1.367-0.318 2.068-0.452 0.723-0.137 1.447-0.264 2.172-0.382 0.363-0.058 0.728-0.111 1.091-0.168 0.255-0.041 0.382 0.016 0.628 0.037 0.172 0.014 0.334-0.066 0.491-0.126 0.295-0.114 0.868-0.33 1.195-0.305 0.18-0.823 0.020-1.657-0.093-2.477-0.112-0.819-0.149-1.635-0.309-2.454-0.176-0.904-0.263-1.88-0.355-2.799-0.129-1.283-0.399-2.509-0.521-3.795-0.077-0.811-0.372-2.359-0.372-2.359z"></path>
</svg>
