<!-- Generated by IcoMoon.io -->
<svg version="1.1" xmlns="http://www.w3.org/2000/svg" width="32" height="32" viewBox="0 0 32 32">
<title>mysterious_scepter</title>
<path d="M24 4.067c-1.8 0-3.205 0.646-4.069 1.83-0.575 0.788-0.851 1.833-1.014 2.981-0.63-1.62-0.328-3.427-0.328-3.427l-1.178-0.236c0 0-0.58 3.086 1.17 5.358l-0.245 0.247-0.578-0.578-0.848 0.848 1.003 1.005 2.997 2.995 0.848-0.848-0.578-0.578 0.305-0.303c1.069 0.545 2.268 0.739 3.266 0.739 1.145 0 2.034-0.178 2.034-0.178l-0.236-1.177c0 0-0.777 0.155-1.798 0.155-0.201 0-0.423-0.047-0.636-0.063 0.78-0.262 1.47-0.635 2.034-1.139 1.163-1.037 1.784-2.566 1.784-4.366h-1.2c0 1.533-0.49 2.673-1.383 3.469s-2.235 1.266-4.017 1.266v0.598l-0.422-0.425-0.58 0.575-0.43-0.43 5.256-2.627 1.869-5.611-5.517 2.759-1.772 5.314-0.553-0.552 0.575-0.581-0.425-0.422h0.598c0-1.818 0.333-3.191 0.969-4.063s1.565-1.338 3.098-1.338v-1.2zM24.973 6.519l-0.797 2.389-2.483 1.241 0.797-2.389 2.483-1.241zM17.575 12.242c0 0-6.675 6.654-11.894 9.916l-0.142 0.089-0.075 0.152c-0.405 0.81-0.557 1.845-0.644 2.709s-0.088 1.559-0.088 1.559v0.469l0.455 0.113c0 0 0.705 0.178 1.586 0.266s1.947 0.13 2.828-0.311l0.156-0.078 0.091-0.15c3.946-6.576 9.909-12.55 9.909-12.55l-0.848-0.848c0 0-5.89 5.898-9.942 12.563-0.472 0.2-1.323 0.256-2.073 0.181-0.518-0.052-0.686-0.102-0.933-0.155 0.006-0.252 0.001-0.416 0.053-0.939 0.077-0.766 0.255-1.654 0.498-2.191 5.411-3.439 11.912-9.945 11.912-9.945l-0.85-0.848z"></path>
</svg>
