<!-- Generated by IcoMoon.io -->
<svg version="1.1" xmlns="http://www.w3.org/2000/svg" width="32" height="32" viewBox="0 0 32 32">
<title>mythos-busters</title>
<path d="M3.369 28.378l-0.321-0.193-0.031-0.050c-0.033-0.054-0.083-0.162-0.077-0.168 0.002-0.002 0.013 0.007 0.024 0.020 0.049 0.055 0.117 0.1 0.17 0.112 0.012 0.003 0.037 0.027 0.068 0.066 0.027 0.034 0.057 0.065 0.067 0.069 0.021 0.008 0.074 0.010 0.081 0.002 0.003-0.003-0.020-0.022-0.050-0.043-0.211-0.145-0.399-0.348-0.558-0.601-0.060-0.096-0.164-0.296-0.213-0.41-0.014-0.033-0.030-0.059-0.036-0.059-0.022 0-0.055-0.043-0.055-0.071 0-0.040 0.024-0.063 0.108-0.105 0.094-0.047 0.279-0.155 0.37-0.216 0.315-0.211 0.564-0.445 0.764-0.719 0.089-0.122 0.22-0.341 0.22-0.368 0-0.007 0.003-0.013 0.007-0.013 0.013 0 0.103-0.214 0.146-0.348 0.051-0.16 0.112-0.441 0.104-0.484-0.003-0.014-0.001-0.031 0.003-0.038s0.013-0.026 0.020-0.041c0.012-0.026 0.047-0.055 0.080-0.065 0.030-0.009 0.013-0.055-0.022-0.061-0.025-0.005-0.076 0.019-0.114 0.053-0.021 0.019-0.032 0.025-0.032 0.017 0-0.054 0.050-0.229 0.085-0.298 0.011-0.022 0.015-0.050 0.018-0.122 0.005-0.157 0.047-0.272 0.141-0.391 0.049-0.061 0.078-0.080 0.175-0.112 0.14-0.046 0.311-0.036 0.449 0.025l0.043 0.019 0.052-0.052c0.132-0.132 0.305-0.164 0.478-0.089 0.055 0.024 0.064 0.026 0.078 0.016 0.009-0.006 0.047-0.014 0.085-0.019 0.638-0.083 1.048-0.485 1.236-1.209l0.023-0.087-0.022-0.054c-0.094-0.227-0.103-0.481-0.024-0.684 0.050-0.128 0.171-0.28 0.304-0.38 0.129-0.097 0.356-0.198 0.492-0.22 0.032-0.005 0.059-0.010 0.060-0.011s-0.032-0.053-0.073-0.116c-0.239-0.358-0.572-0.95-0.762-1.355-0.616-1.312-0.968-2.67-1.066-4.117-0.017-0.254-0.020-1.152-0.004-1.37 0.044-0.611 0.096-1.019 0.19-1.493 0.125-0.629 0.271-1.154 0.48-1.726 0.143-0.391 0.256-0.658 0.427-1.009 0.042-0.086 0.076-0.159 0.076-0.162s-0.007-0.008-0.016-0.011c-0.025-0.008-0.123-0.090-0.162-0.135-0.182-0.214-0.315-0.565-0.371-0.979-0.020-0.147-0.020-0.491 0-0.631 0.026-0.185 0.075-0.351 0.15-0.513 0.018-0.038 0.031-0.069 0.030-0.069s0.002-0.005 0.008-0.012c0.005-0.006 0.028-0.039 0.050-0.072 0.051-0.078 0.16-0.192 0.239-0.251 0.073-0.054 0.312-0.174 0.49-0.245 0.5-0.2 1.085-0.312 1.634-0.313 0.099-0 0.2 0.001 0.224 0.003s0.046 0.001 0.048-0.003c0.002-0.004 0.029-0.006 0.059-0.007l0.055-0 0.107-0.097c0.563-0.509 1.219-0.987 1.86-1.356 0.584-0.336 1.095-0.58 1.699-0.809 0.629-0.239 1.361-0.44 2.005-0.551 0.41-0.071 0.819-0.121 1.167-0.145 0.98-0.067 2.002-0.007 2.916 0.173 0.756 0.148 1.377 0.331 2.094 0.616 0.192 0.076 0.201 0.079 0.23 0.071 0.051-0.015 0.218-0.011 0.308 0.009 0.044 0.009 0.089 0.022 0.1 0.028 0.038 0.020 0.118 0.115 0.165 0.197l0.046 0.080 0.115 0.058c0.383 0.194 0.788 0.437 1.213 0.727 0.768 0.525 1.492 1.173 2.129 1.903 0.189 0.217 0.286 0.336 0.469 0.58 0.058 0.077 0.108 0.14 0.112 0.14 0.013 0 0.416 0.071 0.592 0.104 0.508 0.096 0.735 0.164 0.983 0.294 0.36 0.189 0.643 0.475 0.952 0.962 0.283 0.446 0.477 0.904 0.615 1.455 0.215 0.859 0.267 1.788 0.165 2.99-0.008 0.097-0.017 0.255-0.019 0.352-0.008 0.32-0.053 0.609-0.123 0.775-0.023 0.055-0.051 0.146-0.077 0.251-0.033 0.132-0.046 0.173-0.068 0.208-0.047 0.076-0.132 0.296-0.17 0.437-0.020 0.077-0.136 0.319-0.25 0.521-0.219 0.391-0.451 0.713-0.676 0.938l-0.085 0.085-0.029 0.115c-0.13 0.517-0.374 1.219-0.598 1.719-0.324 0.726-0.68 1.35-1.14 2.001-0.343 0.485-0.827 1.053-1.243 1.46-0.503 0.491-0.947 0.86-1.505 1.25-0.597 0.417-1.292 0.802-1.979 1.096-0.576 0.247-1.098 0.422-1.73 0.58-0.42 0.105-0.744 0.167-1.194 0.229-0.555 0.076-0.913 0.099-1.531 0.1-0.493 0-0.778-0.015-1.232-0.065-0.848-0.094-1.684-0.284-2.469-0.561-0.66-0.233-1.119-0.44-1.794-0.809-0.372-0.203-0.891-0.54-1.259-0.818-0.034-0.025-0.062-0.045-0.063-0.044s-0.009 0.057-0.017 0.124c-0.018 0.139-0.036 0.212-0.073 0.291-0.055 0.119-0.159 0.241-0.269 0.314-0.082 0.055-0.223 0.122-0.298 0.142-0.084 0.023-0.257 0.028-0.352 0.012-0.129-0.023-0.238-0.059-0.392-0.132-0.078-0.037-0.086-0.039-0.086-0.025 0 0.026-0.039 0.058-0.077 0.063-0.127 0.019-0.232 0.039-0.289 0.055-0.036 0.010-0.080 0.022-0.097 0.026-0.044 0.010-0.159 0.057-0.226 0.093-0.19 0.102-0.342 0.246-0.464 0.439-0.097 0.153-0.163 0.329-0.213 0.564-0.010 0.046-0.023 0.090-0.030 0.097-0.011 0.012-0.011 0.017-0.001 0.046 0.062 0.175 0 0.333-0.173 0.446-0.039 0.025-0.060 0.044-0.060 0.053 0 0.008 0.009 0.040 0.019 0.071 0.047 0.141 0.026 0.277-0.067 0.426-0.028 0.044-0.048 0.068-0.066 0.077l-0.026 0.013 0.030 0.005c0.016 0.003 0.039 0.010 0.051 0.016l0.021 0.011-0.015 0.022c-0.029 0.040-0.109 0.108-0.155 0.131-0.025 0.013-0.047 0.022-0.049 0.020s0-0.013 0.005-0.024c0.007-0.019 0.011-0.096 0.005-0.096-0.002 0-0.022 0.008-0.045 0.018-0.066 0.029-0.125 0.038-0.23 0.033-0.068-0.003-0.114-0.010-0.166-0.025-0.040-0.011-0.088-0.022-0.107-0.024-0.037-0.004-0.149-0.053-0.189-0.084-0.023-0.018-0.025-0.018-0.025-0.004 0 0.008-0.009 0.024-0.020 0.035-0.020 0.020-0.032 0.023-0.137 0.032-0.075 0.007-0.246 0.039-0.333 0.062-0.241 0.066-0.464 0.169-0.693 0.321-0.361 0.24-0.686 0.58-1.019 1.067-0.068 0.099-0.079 0.112-0.104 0.118-0.036 0.009-0.076-0.012-0.086-0.046-0.006-0.021-0.015-0.027-0.092-0.056-0.047-0.018-0.124-0.052-0.171-0.077l-0.086-0.044 0.093 0.097c0.051 0.053 0.101 0.101 0.111 0.106 0.018 0.010 0.092 0.102 0.082 0.101-0.003-0-0.15-0.087-0.327-0.193zM3.87 28.222c0.27-0.392 0.588-0.732 0.903-0.964 0.349-0.258 0.744-0.424 1.124-0.473 0.053-0.007 0.105-0.014 0.114-0.016 0.015-0.003 0.002-0.014-0.073-0.061-0.108-0.069-0.209-0.141-0.308-0.219l-0.072-0.057-0.023 0.014c-0.035 0.021-0.068 0.018-0.098-0.008-0.014-0.012-0.035-0.026-0.047-0.031-0.032-0.012-0.097-0.009-0.131 0.007-0.029 0.013-0.064 0.048-0.064 0.063 0 0.004 0.034 0.007 0.075 0.007 0.097 0 0.109 0.007 0.109 0.065 0 0.063-0.044 0.198-0.089 0.272-0.039 0.065-0.105 0.137-0.163 0.177-0.1 0.069-0.262 0.132-0.387 0.151-0.054 0.008-0.266 0.076-0.312 0.1-0.021 0.011-0.11 0.105-0.172 0.183-0.025 0.032-0.087 0.102-0.137 0.157-0.131 0.144-0.206 0.241-0.238 0.308-0.043 0.091-0.087 0.155-0.167 0.241l-0.072 0.079 0.036 0.014c0.078 0.030 0.136 0.050 0.144 0.050 0.005 0 0.027-0.026 0.049-0.059zM3.685 28.128c0.081-0.095 0.098-0.121 0.154-0.23 0.047-0.090 0.081-0.136 0.26-0.349 0.053-0.062 0.113-0.134 0.134-0.16s0.066-0.071 0.099-0.102c0.033-0.030 0.056-0.056 0.050-0.056s-0.029 0.005-0.053 0.011c-0.097 0.025-0.211 0.035-0.293 0.027-0.043-0.004-0.085-0.006-0.094-0.004s-0.029 0.025-0.046 0.051c-0.034 0.052-0.243 0.261-0.384 0.384-0.051 0.045-0.125 0.103-0.165 0.129s-0.087 0.060-0.105 0.075l-0.034 0.027 0.026 0.022c0.054 0.046 0.143 0.113 0.197 0.147 0.055 0.035 0.177 0.104 0.185 0.103 0.002-0 0.033-0.034 0.068-0.076zM3.186 27.847c-0.038-0.005-0.051-0.010-0.051-0.021 0-0.013-0.012-0.015-0.020-0.003-0.003 0.005 0.010 0.024 0.028 0.042l0.033 0.034 0.013-0.025c0.013-0.024 0.013-0.025-0.004-0.027zM3.079 27.665c0.034-0.027 0.075-0.065 0.092-0.083 0.109-0.123 0.299-0.322 0.331-0.346 0.021-0.016 0.096-0.091 0.167-0.166s0.165-0.169 0.209-0.208c0.12-0.106 0.187-0.175 0.333-0.344 0.073-0.085 0.155-0.175 0.183-0.201 0.047-0.044 0.057-0.049 0.137-0.075 0.061-0.020 0.114-0.031 0.182-0.038 0.084-0.009 0.119-0.015 0.189-0.031 0.009-0.002 0.017-0.007 0.017-0.011s-0.008-0.009-0.017-0.012c-0.016-0.005-0.094-0.076-0.18-0.164-0.038-0.039-0.071-0.086-0.135-0.19-0.024-0.039-0.049-0.080-0.056-0.091s0.026 0.021 0.075 0.070c0.048 0.049 0.107 0.105 0.131 0.123 0.038 0.029 0.046 0.033 0.071 0.029 0.015-0.003 0.028-0.007 0.028-0.011s-0.019-0.019-0.041-0.034c-0.058-0.038-0.135-0.122-0.173-0.189-0.018-0.031-0.051-0.084-0.075-0.117l-0.042-0.061 0.048 0.051c0.026 0.028 0.066 0.064 0.088 0.080s0.065 0.051 0.095 0.077c0.050 0.044 0.055 0.047 0.060 0.033 0.003-0.009 0.015-0.021 0.028-0.028 0.021-0.011 0.022-0.013 0.012-0.025-0.129-0.151-0.35-0.439-0.491-0.64l-0.055-0.079-0.025 0.108c-0.031 0.136-0.108 0.369-0.165 0.499-0.253 0.58-0.698 1.052-1.328 1.409-0.065 0.037-0.12 0.068-0.121 0.069-0.004 0.003 0.060 0.144 0.113 0.248 0.029 0.057 0.077 0.143 0.107 0.192 0.055 0.088 0.138 0.206 0.145 0.206 0.002 0 0.032-0.022 0.066-0.050zM3.723 27.283c-0.002-0.010-0.014 0.001-0.043 0.037-0.022 0.028-0.040 0.053-0.040 0.056s0.019-0.013 0.043-0.037c0.026-0.026 0.042-0.048 0.040-0.056zM4.435 27.194c0.027-0.009 0.066-0.028 0.087-0.043 0.054-0.036 0.060-0.038 0.029-0.010-0.015 0.013-0.044 0.034-0.065 0.046-0.053 0.031-0.038 0.028 0.066-0.012 0.049-0.019 0.137-0.044 0.196-0.057 0.24-0.051 0.412-0.152 0.509-0.298 0.047-0.071 0.086-0.175 0.095-0.253l0.004-0.040h-0.092c-0.119 0-0.131-0.009-0.104-0.076 0.014-0.034 0.047-0.063 0.1-0.086s0.134-0.017 0.187 0.016c0.039 0.024 0.057 0.029 0.064 0.018 0.002-0.003-0.030-0.036-0.072-0.073l-0.076-0.067h-0.083c-0.089 0-0.146-0.012-0.18-0.038-0.011-0.008-0.021-0.015-0.023-0.015s-0.008 0.012-0.013 0.027c-0.012 0.037-0.059 0.094-0.099 0.122l-0.033 0.023-0.154 0.004c-0.141 0.004-0.156 0.005-0.181 0.021-0.055 0.034-0.182 0.173-0.248 0.27-0.191 0.281-0.216 0.32-0.232 0.367-0.019 0.055-0.023 0.135-0.008 0.155 0.020 0.026 0.248 0.024 0.326-0.003zM6.735 26.843c0.080-0.013 0.124-0.040 0.204-0.121 0.093-0.096 0.111-0.134 0.111-0.239 0-0.066-0.002-0.077-0.024-0.124-0.013-0.028-0.037-0.068-0.052-0.087-0.028-0.037-0.035-0.073-0.020-0.102 0.006-0.012 0.002-0.017-0.028-0.034-0.019-0.011-0.040-0.020-0.045-0.020s-0.014-0.005-0.019-0.012c-0.005-0.006-0.011-0.010-0.013-0.008s0.012 0.026 0.031 0.054c0.042 0.061 0.047 0.083 0.046 0.192-0.001 0.090-0.013 0.146-0.046 0.212-0.038 0.075-0.084 0.113-0.163 0.133-0.043 0.011-0.053 0.011-0.109 0-0.066-0.012-0.137-0.042-0.192-0.080-0.091-0.063-0.189-0.115-0.293-0.156-0.063-0.025-0.134-0.056-0.158-0.069-0.037-0.020-0.118-0.091-0.135-0.119-0.003-0.005-0.021-0.016-0.040-0.024s-0.039-0.020-0.045-0.027c-0.010-0.012-0.048-0.031-0.099-0.051-0.014-0.005-0.032-0.020-0.041-0.032s-0.056-0.057-0.105-0.1c-0.1-0.088-0.108-0.096-0.108-0.114-0-0.007-0.025-0.035-0.056-0.062-0.054-0.048-0.057-0.050-0.109-0.055l-0.053-0.006 0.026 0.030c0.014 0.016 0.085 0.088 0.157 0.16 0.246 0.245 0.527 0.477 0.85 0.704 0.059 0.041 0.108 0.078 0.11 0.082s0.013 0.006 0.025 0.006c0.013 0 0.063 0.014 0.112 0.030 0.122 0.041 0.199 0.052 0.279 0.039zM6.165 26.73c0.004-0.003 0.015 0.006-0.106-0.083-0.143-0.104-0.311-0.237-0.454-0.36-0.104-0.090-0.121-0.101-0.121-0.085 0 0.019-0.018 0.043-0.031 0.043-0.018 0-0.002 0.019 0.059 0.072 0.036 0.032 0.069 0.056 0.073 0.053s0.006-0.001 0.005 0.003c-0.007 0.024 0.408 0.319 0.499 0.354 0.029 0.011 0.064 0.012 0.076 0.002zM6.743 26.625c0.088-0.043 0.142-0.184 0.133-0.349-0.003-0.051-0.010-0.080-0.031-0.134-0.015-0.039-0.035-0.075-0.045-0.083s-0.070-0.050-0.134-0.094c-0.132-0.091-0.273-0.203-0.396-0.312-0.046-0.041-0.091-0.077-0.101-0.081s-0.068-0.015-0.131-0.026c-0.062-0.010-0.123-0.023-0.135-0.027-0.013-0.005-0.084-0.008-0.178-0.008h-0.156l0.033 0.033c0.034 0.034 0.052 0.079 0.046 0.114-0.003 0.015 0.029 0.050 0.19 0.21 0.106 0.105 0.23 0.226 0.274 0.267s0.070 0.067 0.056 0.057c-0.21-0.161-0.335-0.265-0.473-0.395l-0.083-0.078-0.028 0.013c-0.015 0.007-0.029 0.013-0.030 0.014-0.003 0.002 0.166 0.192 0.259 0.29 0.086 0.091 0.101 0.115 0.098 0.159-0.002 0.032-0.002 0.032 0.047 0.062 0.027 0.017 0.075 0.050 0.107 0.075 0.058 0.045 0.161 0.095 0.242 0.119 0.055 0.016 0.144 0.011 0.221-0.013 0.043-0.013 0.061-0.024 0.089-0.053 0.056-0.057 0.072-0.099 0.070-0.177-0.002-0.084-0.023-0.155-0.060-0.198-0.015-0.018-0.027-0.034-0.025-0.036 0.007-0.007 0.114 0.092 0.118 0.108 0.002 0.009 0.001 0.077-0.002 0.151-0.006 0.13-0.007 0.134-0.029 0.162-0.045 0.059-0.111 0.088-0.235 0.103-0.139 0.018-0.132 0.010-0.054 0.061 0.038 0.025 0.079 0.051 0.092 0.057 0.076 0.040 0.178 0.043 0.248 0.009zM6.496 26.479c0.032-0.006 0.065-0.015 0.073-0.019 0.012-0.008 0.012-0.008-0.005-0.004-0.068 0.016-0.112 0.021-0.18 0.018-0.064-0.003-0.086-0.007-0.133-0.028-0.031-0.013-0.058-0.023-0.060-0.021-0.005 0.005 0.075 0.053 0.099 0.059 0.040 0.009 0.143 0.008 0.206-0.004zM6.070 26.37c-0.017-0.015-0.062-0.051-0.101-0.081-0.063-0.047-0.072-0.052-0.087-0.044-0.016 0.009-0.016 0.009 0.013 0.040 0.037 0.038 0.076 0.064 0.141 0.092 0.065 0.028 0.071 0.027 0.034-0.006zM7.104 26.111c0.141-0.079 0.193-0.184 0.146-0.297-0.013-0.031-0.037-0.034-0.030-0.003 0.003 0.013-0 0.011-0.015-0.008-0.011-0.014-0.063-0.055-0.117-0.091l-0.098-0.066 0.003 0.024c0.002 0.016 0 0.024-0.007 0.024-0.011 0-0.043-0.046-0.052-0.075-0.008-0.024-0.051-0.056-0.077-0.056-0.022 0-0.050-0.019-0.050-0.034 0-0.005-0.005-0.016-0.012-0.026l-0.012-0.017-0.022 0.016c-0.035 0.026-0.050 0.017-0.050-0.029 0-0.034-0.003-0.041-0.024-0.059l-0.024-0.020-0.024 0.057-0-0.039c-0-0.039-0.001-0.039-0.056-0.086s-0.056-0.046-0.065-0.030-0.010 0.016-0.006-0.006c0.004-0.021-0.003-0.029-0.088-0.107-0.288-0.263-0.571-0.612-0.781-0.961-0.045-0.074-0.201-0.372-0.211-0.403-0.002-0.007-0.077 0.023-0.099 0.040-0.032 0.025-0.041 0.040-0.059 0.104l-0.014 0.050 0.004-0.045c0.007-0.084 0.049-0.132 0.13-0.151 0.021-0.005 0.042-0.012 0.046-0.016s0.015-0.007 0.024-0.007c0.014 0 0.028 0.022 0.083 0.134 0.1 0.2 0.246 0.439 0.367 0.6l0.031 0.041 0.009-0.035c0.005-0.019 0.016-0.043 0.026-0.053s0.015-0.023 0.013-0.028c-0.002-0.006-0.001-0.023 0.002-0.038 0.005-0.025 0.008-0.027 0.032-0.024 0.044 0.004 0.097 0.045 0.123 0.095 0.008 0.016 0.024 0.037 0.035 0.048l0.021 0.019 0.009-0.034c0.014-0.057 0.043-0.080 0.145-0.117 0.049-0.018 0.063-0.019 0.149-0.017 0.125 0.003 0.142-0.001 0.158-0.032 0.029-0.057 0.078-0.092 0.124-0.088l0.028 0.002-0.002-0.035c-0.004-0.070 0.023-0.101 0.185-0.21 0.060-0.040 0.138-0.099 0.174-0.131s0.084-0.070 0.107-0.083c0.023-0.014 0.061-0.039 0.083-0.056 0.041-0.031 0.041-0.031 0.045-0.080 0.006-0.093 0.050-0.193 0.13-0.301 0.020-0.027 0.041-0.055 0.046-0.063 0.027-0.043-0.050 0.157-0.1 0.257-0.032 0.065-0.058 0.123-0.058 0.128 0 0.014 0.012 0.012 0.027-0.003 0.021-0.021 0.226-0.331 0.242-0.365 0.017-0.038 0.018-0.031 0.003 0.050-0.010 0.053-0.030 0.116-0.061 0.195-0.006 0.016 0.139-0.128 0.17-0.17l0.019-0.024-0.078-0.087c-0.043-0.048-0.115-0.132-0.161-0.187s-0.096-0.109-0.112-0.12c-0.020-0.013-0.037-0.035-0.055-0.072-0.014-0.029-0.053-0.091-0.086-0.137-0.061-0.087-0.177-0.269-0.216-0.341l-0.022-0.040-0.022 0.084c-0.075 0.291-0.196 0.554-0.35 0.757-0.047 0.062-0.169 0.187-0.235 0.241-0.11 0.090-0.234 0.162-0.371 0.217-0.145 0.058-0.368 0.107-0.47 0.104-0.026-0.001-0.058 0.003-0.072 0.009-0.022 0.009-0.030 0.009-0.061-0.003-0.1-0.038-0.128-0.045-0.182-0.041-0.074 0.005-0.123 0.031-0.197 0.107-0.068 0.069-0.066 0.060-0.020 0.153 0.025 0.050 0.036 0.063 0.068 0.083 0.042 0.026 0.051 0.037 0.014 0.018-0.013-0.007-0.025-0.011-0.027-0.009-0.007 0.007 0.062 0.134 0.186 0.343 0.069 0.115 0.084 0.136 0.106 0.144 0.030 0.011 0.043 0.030 0.057 0.081 0.015 0.055 0.021 0.065 0.11 0.184 0.117 0.157 0.138 0.183 0.216 0.276 0.262 0.311 0.568 0.588 0.904 0.818 0.047 0.032 0.087 0.058 0.090 0.058s0.005-0.008 0.005-0.018c0-0.033 0.053-0.126 0.089-0.156 0.031-0.026 0.172-0.11 0.178-0.105 0.001 0.001-0.003 0.014-0.008 0.028-0.011 0.025-0.050 0.065-0.123 0.124-0.025 0.020-0.044 0.045-0.059 0.076-0.033 0.070-0.031 0.083 0.020 0.113 0.025 0.015 0.044 0.032 0.047 0.043 0.007 0.027 0.055 0.023 0.114-0.010zM6.792 25.942c-0.007-0.007 0.047-0.079 0.097-0.128 0.025-0.024 0.070-0.059 0.101-0.078l0.056-0.033-0.031 0.041c-0.017 0.023-0.059 0.065-0.093 0.094s-0.074 0.065-0.089 0.081c-0.027 0.028-0.032 0.031-0.041 0.023zM6.201 25.41c-0.065-0.016-0.099-0.047-0.21-0.191-0.015-0.019-0.051-0.059-0.081-0.088-0.059-0.058-0.196-0.23-0.215-0.27-0.007-0.014-0.047-0.071-0.089-0.126-0.096-0.127-0.117-0.168-0.112-0.219 0.002-0.021 0.011-0.047 0.021-0.061 0.015-0.022 0.016-0.027 0.008-0.053-0.005-0.016-0.019-0.049-0.032-0.075-0.025-0.051-0.023-0.050 0.025 0.014 0.041 0.054 0.052 0.061 0.082 0.050 0.038-0.014 0.074-0.002 0.127 0.044 0.071 0.061 0.148 0.152 0.253 0.294 0.051 0.069 0.114 0.15 0.14 0.18s0.054 0.065 0.063 0.079c0.009 0.014 0.062 0.075 0.12 0.135s0.107 0.119 0.112 0.13c0.021 0.055-0.001 0.114-0.052 0.144-0.030 0.017-0.112 0.024-0.158 0.012zM6.713 26.094c-0.003-0.013-0.012-0.030-0.020-0.038-0.012-0.010-0.014-0.011-0.011-0.002 0.003 0.006 0.009 0.026 0.014 0.044 0.011 0.036 0.025 0.033 0.017-0.004zM5.351 26.054c-0.061-0.061-0.062-0.061-0.087-0.053l-0.025 0.009 0.042 0.038c0.023 0.021 0.044 0.044 0.047 0.053 0.004 0.012 0.012 0.015 0.044 0.015h0.040zM4.967 26.012c0.003-0.007-0.009-0.021-0.032-0.038-0.020-0.015-0.037-0.025-0.039-0.024-0.004 0.004 0.054 0.073 0.061 0.073 0.003 0 0.007-0.005 0.009-0.011zM5.205 25.921c-0.012-0.009-0.047-0.039-0.077-0.068-0.057-0.055-0.067-0.058-0.093-0.027-0.012 0.014 0.058 0.091 0.109 0.12l0.038 0.022 0.044-0.031zM4.998 25.747c0.011-0.013 0.020-0.028 0.020-0.034s-0.028-0.044-0.063-0.085c-0.197-0.238-0.372-0.504-0.509-0.774l-0.071-0.139-0.022 0.016c-0.012 0.009-0.024 0.018-0.027 0.021s-0.009 0.030-0.014 0.062c-0.005 0.032-0.010 0.065-0.012 0.074-0.004 0.018 0.091 0.157 0.259 0.382 0.157 0.21 0.396 0.501 0.41 0.501 0.004 0 0.015-0.011 0.026-0.024zM7.25 25.715c0.018-0.028 0.022 0.001-0.036-0.264-0.033-0.152-0.039-0.136-0.036 0.085l0.002 0.167 0.023 0.018c0.013 0.010 0.025 0.018 0.027 0.018s0.011-0.011 0.020-0.025zM7.127 25.625c-0.015-0.064-0.029-0.233-0.024-0.284l0.004-0.040-0.015 0.046c-0.031 0.093-0.041 0.24-0.017 0.266 0.012 0.014 0.012 0.014-0.001 0.009-0.017-0.007-0.028-0.034-0.028-0.074-0-0.050-0.015-0.063-0.016-0.015-0.001 0.022-0.002 0.047-0.002 0.055-0 0.010 0.017 0.027 0.053 0.053 0.029 0.021 0.054 0.037 0.056 0.036s-0.003-0.024-0.009-0.051zM5.131 25.642l0.055-0.004-0.103-0.109c-0.083-0.088-0.104-0.115-0.108-0.138-0.003-0.016-0.022-0.052-0.042-0.079s-0.060-0.092-0.088-0.142c-0.028-0.050-0.071-0.125-0.096-0.166s-0.043-0.075-0.042-0.075c0.001 0 0.021 0.025 0.044 0.056 0.059 0.079 0.274 0.312 0.288 0.312s0.019 0.008-0.072-0.101c-0.034-0.041-0.097-0.127-0.14-0.192s-0.068-0.105-0.056-0.091c0.012 0.014 0.086 0.107 0.164 0.206l0.142 0.179 0.080 0.026c0.044 0.014 0.106 0.031 0.139 0.036 0.054 0.009 0.059 0.009 0.054-0.002-0.014-0.032-0.025-0.099-0.030-0.178l-0.006-0.087-0.047-0.065c-0.057-0.078-0.069-0.099-0.034-0.057 0.014 0.017 0.039 0.044 0.054 0.061l0.029 0.031 0-0.038c0-0.035-0.003-0.042-0.039-0.084-0.049-0.057-0.086-0.111-0.141-0.208-0.024-0.042-0.059-0.1-0.078-0.129-0.069-0.108-0.070-0.114-0.005-0.027 0.021 0.027 0.072 0.088 0.115 0.135s0.096 0.108 0.118 0.136c0.022 0.028 0.043 0.051 0.046 0.051s0.008-0.007 0.010-0.015c0.006-0.019-0.031-0.081-0.088-0.147-0.061-0.070-0.117-0.15-0.183-0.26-0.031-0.052-0.077-0.126-0.102-0.164-0.052-0.078-0.049-0.078 0.016 0.004 0.025 0.032 0.1 0.115 0.166 0.185 0.103 0.109 0.123 0.127 0.134 0.119 0.024-0.015 0.051-0.001 0.068 0.034 0.014 0.028 0.016 0.030 0.016 0.013 0-0.011 0.005-0.026 0.011-0.035 0.010-0.014 0.006-0.024-0.056-0.126-0.080-0.131-0.178-0.306-0.224-0.4-0.031-0.064-0.036-0.068-0.074-0.087-0.060-0.028-0.131-0.041-0.231-0.041-0.091 0-0.155 0.007-0.214 0.023-0.039 0.011-0.082 0.051-0.108 0.101-0.021 0.041-0.026 0.141-0.016 0.285 0.008 0.11 0.013 0.137 0.025 0.13 0.004-0.002 0.007 0.003 0.007 0.012 0 0.013-0.004 0.016-0.017 0.014s-0.020-0.012-0.030-0.041c-0.011-0.031-0.013-0.068-0.013-0.202-0-0.188 0.002-0.199 0.067-0.267 0.053-0.057 0.091-0.066 0.269-0.066 0.149-0 0.191 0.007 0.262 0.043 0.016 0.008 0.029 0.013 0.029 0.011 0-0.014-0.036-0.073-0.044-0.073-0.006 0-0.042-0.014-0.081-0.030-0.144-0.061-0.259-0.070-0.386-0.027-0.057 0.019-0.067 0.025-0.095 0.060-0.035 0.044-0.066 0.103-0.088 0.165-0.011 0.033-0.014 0.064-0.014 0.145 0 0.116 0.013 0.178 0.063 0.301 0.022 0.054 0.026 0.073 0.022 0.098-0.004 0.027 0.001 0.042 0.050 0.139 0.136 0.272 0.283 0.499 0.484 0.75 0.062 0.078 0.088 0.104 0.096 0.101 0.007-0.003 0.037-0.007 0.067-0.009zM16.766 25.626c0.017-0.008 0.042-0.029 0.057-0.047 0.107-0.125-0-0.321-0.166-0.304-0.099 0.010-0.167 0.082-0.167 0.178 0 0.087 0.063 0.166 0.151 0.188 0.036 0.009 0.092 0.002 0.126-0.015zM7.277 25.347l0.004-0.284 0.024-0.065c0.013-0.036 0.024-0.075 0.024-0.087l0-0.022-0.040 0.037c-0.056 0.052-0.078 0.107-0.090 0.233l-0.009 0.096 0.031 0.157c0.017 0.086 0.033 0.173 0.036 0.194s0.008 0.035 0.010 0.032c0.003-0.003 0.007-0.133 0.009-0.289zM17.494 25.594c0.060-0.027 0.060-0.026-0.009-0.094-0.072-0.070-0.123-0.135-0.166-0.209l-0.029-0.050-0.023 0.037c-0.028 0.044-0.034 0.074-0.029 0.136 0.011 0.142 0.142 0.233 0.258 0.18zM7.018 25.528c0.003-0.033 0.006-0.075 0.009-0.094l0.004-0.034-0.012 0.034c-0.015 0.044-0.029 0.135-0.023 0.145 0.011 0.018 0.017 0.004 0.022-0.051zM17.137 25.547c-0.008-0.020-0.012-0.058-0.012-0.1l-0-0.067h-0.181l0.012 0.032c0.008 0.020 0.013 0.058 0.013 0.1l0.001 0.067h0.179l-0.012-0.032zM17.726 25.53c-0.022-0.025-0.030-0.030-0.032-0.021-0.001 0.007-0.005 0.022-0.009 0.034l-0.007 0.021h0.077zM6.847 25.537c-0.005-0.006-0.011-0.010-0.013-0.008-0.005 0.005 0.005 0.020 0.015 0.020 0.005 0 0.005-0.004-0.002-0.012zM18.18 25.53c0.1-0.011 0.21-0.023 0.244-0.027 0.099-0.013 0.39-0.055 0.391-0.056 0.003-0.006 0.041-0.2 0.039-0.201s-0.069 0.008-0.151 0.020c-0.287 0.042-0.689 0.085-0.922 0.098-0.113 0.006-0.112 0.002-0.012 0.068 0.036 0.024 0.086 0.060 0.111 0.080 0.056 0.045 0.046 0.045 0.3 0.018zM16.009 25.474c-0.071-0.131-0.092-0.162-0.109-0.166-0.009-0.002-0.063-0.009-0.12-0.016-0.386-0.046-0.767-0.117-1.221-0.229-0.469-0.116-0.898-0.252-1.334-0.423l-0.078-0.031 0 0.020c0 0.021 0.020 0.167 0.027 0.201 0.005 0.022 0.034 0.035 0.34 0.143 0.723 0.256 1.539 0.445 2.3 0.533 0.177 0.020 0.21 0.024 0.221 0.026 0.004 0.001-0.008-0.026-0.026-0.058zM6.931 25.377c0.015-0.045 0.041-0.095 0.079-0.151l0.034-0.050-0.027-0.010c-0.026-0.009-0.028-0.009-0.045 0.012-0.073 0.089-0.148 0.22-0.148 0.259 0 0.010 0.015 0.026 0.040 0.044l0.040 0.029 0.008-0.052c0.005-0.029 0.013-0.066 0.018-0.083zM6.771 25.488c0-0.010-0.020-0.025-0.026-0.019-0.011 0.011-0.004 0.025 0.010 0.025 0.008 0 0.015-0.003 0.015-0.007zM7.333 25.38c0.159-0.529 0.52-0.882 1.041-1.018 0.115-0.030 0.255-0.054 0.323-0.056 0.055-0.001 0.056-0.002 0.060-0.024 0.004-0.019 0-0.026-0.028-0.050-0.018-0.015-0.055-0.047-0.082-0.071-0.042-0.037-0.053-0.043-0.069-0.038-0.025 0.007-0.155 0.006-0.203-0.002l-0.038-0.006 0.037-0.011c0.020-0.006 0.070-0.013 0.11-0.016l0.073-0.005-0.109-0.1c-0.178-0.162-0.182-0.166-0.155-0.12 0.009 0.015 0.004 0.012-0.016-0.010-0.030-0.033-0.030-0.032-0.001 0.038 0.030 0.072 0.033 0.098 0.005 0.044-0.047-0.092-0.174-0.207-0.295-0.268l-0.046-0.023-0.016 0.018c-0.020 0.022-0.137 0.060-0.225 0.072-0.051 0.007-0.090 0.020-0.18 0.059-0.063 0.028-0.121 0.056-0.129 0.063-0.017 0.015-0.082 0.11-0.078 0.114 0.002 0.002 0.021-0.009 0.044-0.024s0.051-0.029 0.064-0.032c0.021-0.005 0.019-0.003-0.012 0.017-0.074 0.048-0.097 0.094-0.13 0.255-0.027 0.134-0.018 0.342 0.019 0.413 0.012 0.023 0.052 0.054 0.070 0.054 0.005 0 0.041-0.024 0.080-0.053s0.11-0.075 0.156-0.101c0.046-0.026 0.098-0.056 0.115-0.067l0.031-0.019-0.019 0.021c-0.011 0.012-0.048 0.042-0.082 0.067s-0.062 0.047-0.061 0.049c0.002 0.002 0.030-0.010 0.063-0.025 0.060-0.028 0.289-0.106 0.378-0.129 0.051-0.013 0.070-0.010 0.033 0.005-0.058 0.024-0.222 0.106-0.293 0.147-0.044 0.025-0.107 0.058-0.142 0.074s-0.092 0.050-0.129 0.077c-0.101 0.072-0.131 0.116-0.144 0.211-0.004 0.032-0.017 0.081-0.028 0.109-0.020 0.051-0.020 0.054-0.022 0.258-0.001 0.114-0 0.203 0.002 0.199s0.015-0.048 0.030-0.096zM8.116 24.291c0.097-0.065 0.102-0.076 0.089-0.171-0.011-0.075-0.041-0.135-0.094-0.187-0.054-0.053-0.127-0.091-0.234-0.122-0.047-0.013-0.095-0.033-0.109-0.043-0.030-0.023-0.032-0.030-0.004-0.016 0.021 0.011 0.044 0.016 0.168 0.039 0.078 0.015 0.121 0.033 0.183 0.077 0.094 0.067 0.157 0.164 0.158 0.242 0 0.023-0.002 0.053-0.005 0.067-0.005 0.024-0.005 0.025 0.010 0.017 0.009-0.005 0.025-0.008 0.036-0.008 0.020 0 0.021 0 0.007 0.016-0.008 0.009-0.031 0.026-0.053 0.038s-0.052 0.036-0.069 0.053c-0.033 0.034-0.048 0.040-0.035 0.016 0.011-0.021 0.004-0.020-0.065 0.012-0.032 0.015-0.060 0.027-0.062 0.027s0.034-0.025 0.079-0.056zM17.615 25.454c0.005-0.014 0.009-0.030 0.009-0.036 0-0.017-0.060-0.092-0.12-0.15-0.031-0.030-0.056-0.057-0.056-0.061s0.011 0.004 0.024 0.016c0.025 0.024 0.023 0.012-0.004-0.018-0.011-0.012-0.024-0.017-0.043-0.017-0.034 0-0.063 0.008-0.060 0.016 0.003 0.009 0.231 0.275 0.236 0.275 0.002 0 0.008-0.011 0.013-0.025zM16.4 25.455c0-0.009 0.008-0.035 0.018-0.057l0.018-0.039-0.072-0.005c-0.040-0.003-0.074-0.004-0.076-0.002-0.004 0.004 0.098 0.12 0.106 0.12 0.003 0 0.006-0.007 0.006-0.017zM6.804 25.394c0.003-0.012 0.004-0.021 0.002-0.021-0.008 0-0.028 0.040-0.023 0.047 0.007 0.011 0.015 0 0.022-0.026zM19.076 25.403c0.546-0.098 1.18-0.269 1.706-0.459 0.48-0.174 1.006-0.406 1.431-0.633 0.194-0.104 0.577-0.323 0.578-0.331 0-0.002-0.043-0.024-0.096-0.048l-0.096-0.044-0.147 0.083c-0.753 0.427-1.529 0.756-2.325 0.985-0.326 0.094-0.838 0.215-1.070 0.253-0.057 0.009-0.079 0.016-0.082 0.025-0.002 0.007-0.011 0.045-0.019 0.085s-0.017 0.080-0.020 0.090c-0.002 0.009-0.001 0.017 0.003 0.017s0.065-0.011 0.136-0.023zM6.766 25.354c0.015-0.026 0.072-0.103 0.116-0.156 0.001-0.002 0.007 0.001 0.013 0.006 0.012 0.010 0.025-0.001 0.017-0.013-0.005-0.009 0.018-0.041 0.026-0.036 0.004 0.002 0.009 0.001 0.011-0.004s-0.009-0.008-0.033-0.008c-0.021 0-0.054-0.005-0.075-0.011s-0.038-0.011-0.039-0.012c-0.001 0-0.002 0.005-0.002 0.012 0 0.026-0.034 0.11-0.066 0.164l-0.034 0.057 0.022 0.018c0.012 0.010 0.022 0.018 0.023 0.018s0.010-0.015 0.021-0.034zM5.524 25.336c-0.010-0.018-0.039-0.044-0.039-0.035 0 0.004 0.007 0.017 0.016 0.028 0.018 0.023 0.035 0.028 0.023 0.007zM17.612 25.313c-0.004-0.014-0.006-0.015-0.016-0.008s-0.009 0.011 0.002 0.019c0.017 0.012 0.019 0.010 0.013-0.012zM6.755 25.158c0.017-0.020 0.031-0.039 0.031-0.041s-0.012-0.008-0.027-0.013c-0.027-0.009-0.028-0.008-0.090 0.045-0.035 0.029-0.071 0.062-0.081 0.072l-0.018 0.019 0.089 0.078 0.032-0.061c0.018-0.034 0.046-0.078 0.063-0.099zM17.224 25.235c0.019-0.017 0.038-0.031 0.041-0.031 0.011 0-0.033-0.087-0.057-0.113l-0.023-0.025-0.022 0.046c-0.026 0.053-0.078 0.108-0.127 0.134l-0.035 0.018 0.189 0.001 0.035-0.031zM16.673 25.224l0.055-0.001-0.034-0.034c-0.019-0.019-0.043-0.055-0.055-0.080-0.019-0.040-0.021-0.055-0.021-0.119 0-0.067 0.002-0.077 0.025-0.124 0.031-0.064 0.092-0.121 0.151-0.143 0.023-0.009 0.049-0.016 0.057-0.016 0.019 0 0.019-0.013-0.001-0.042s-0.083-0.152-0.096-0.188l-0.010-0.027-0.001 0.028c-0.001 0.045-0.027 0.117-0.057 0.158-0.101 0.137-0.303 0.155-0.429 0.039-0.020-0.019-0.045-0.053-0.060-0.083-0.023-0.047-0.025-0.056-0.025-0.131 0-0.077 0.001-0.083 0.026-0.128 0.014-0.026 0.041-0.062 0.060-0.079 0.122-0.112 0.323-0.098 0.421 0.031 0.029 0.038 0.030 0.034 0.010-0.053s-0.018-0.101 0.004-0.032c0.044 0.139 0.184 0.499 0.193 0.499 0.007 0 0.008-0.004 0.003-0.013-0.018-0.034-0.104-0.379-0.098-0.394 0.002-0.006 0.004-0.005 0.005 0.003 0 0.010 0.137 0.405 0.141 0.409 0.001 0.001 0.014 0.003 0.029 0.006l0.029 0.005-0.015-0.035c-0.024-0.055-0.017-0.059 0.010-0.006 0.018 0.035 0.034 0.053 0.059 0.070 0.079 0.050 0.128 0.128 0.136 0.212 0.005 0.052 0.013 0.066 0.096 0.159l0.053 0.059 0.047-0.005c0.026-0.003 0.048-0.006 0.050-0.007s-0.008-0.018-0.021-0.037c-0.013-0.019-0.051-0.086-0.085-0.15s-0.072-0.13-0.085-0.146c-0.013-0.017-0.022-0.032-0.020-0.034s0.014 0.009 0.027 0.025c0.013 0.016 0.063 0.069 0.113 0.117 0.093 0.092 0.168 0.184 0.199 0.244 0.010 0.019 0.028 0.045 0.041 0.057l0.023 0.022 0.229-0.011-0.032-0.032c-0.045-0.045-0.088-0.105-0.134-0.188-0.022-0.040-0.049-0.084-0.059-0.097-0.036-0.049-0.016-0.031 0.089 0.076 0.092 0.094 0.159 0.171 0.195 0.222 0.009 0.013 0.018 0.013 0.173-0.002 0.286-0.027 0.793-0.093 0.804-0.106 0.002-0.003 0.016-0.043 0.029-0.089 0.047-0.157 0.165-0.431 0.234-0.54l0.018-0.028-0.033-0.049c-0.306-0.456-0.509-1.145-0.563-1.909-0.004-0.063-0.009-0.13-0.011-0.149-0.002-0.026 0.002-0.046 0.019-0.082 0.012-0.026 0.028-0.071 0.034-0.1s0.020-0.081 0.031-0.116c0.010-0.035 0.023-0.104 0.029-0.152 0.012-0.097 0.012-0.098 0.077-0.122 0.027-0.010 0.058-0.014 0.101-0.014 0.052 0 0.070 0.004 0.112 0.024 0.028 0.013 0.064 0.036 0.081 0.051 0.036 0.033 0.076 0.104 0.083 0.149 0.003 0.018 0.007 0.032 0.009 0.032s0.019-0.014 0.038-0.030c0.019-0.017 0.050-0.038 0.068-0.047l0.034-0.016-0.031-0.022c-0.119-0.087-0.148-0.265-0.063-0.389 0.057-0.084 0.139-0.126 0.243-0.126 0.053 0 0.069 0.004 0.113 0.024 0.032 0.015 0.066 0.039 0.090 0.063 0.021 0.021 0.042 0.037 0.046 0.034 0.012-0.007 0.030 0.011 0.030 0.029 0 0.009 0.008 0.024 0.017 0.034 0.015 0.016 0.017 0.025 0.015 0.077-0.003 0.082-0.033 0.171-0.066 0.194-0.013 0.009-0.037 0.028-0.053 0.042s-0.043 0.032-0.061 0.042c-0.018 0.009-0.034 0.018-0.036 0.019s0.016 0.020 0.039 0.040c0.023 0.021 0.048 0.050 0.056 0.066l0.015 0.028 0.054-0.005c0.029-0.003 0.054-0.006 0.055-0.006s-0.005-0.018-0.013-0.039c-0.049-0.131-0.001-0.28 0.113-0.349 0.015-0.009 0.029-0.017 0.030-0.018s-0.010-0.018-0.026-0.039c-0.051-0.066-0.061-0.096-0.061-0.186 0-0.073 0.002-0.084 0.021-0.121l0.021-0.041-0.048 0.032c-0.067 0.045-0.098 0.076-0.098 0.097 0 0.026-0.014 0.048-0.030 0.048-0.020 0-0.032-0.017-0.037-0.052-0.012-0.091 0.111-0.188 0.372-0.292 0.127-0.051 0.153-0.054 0.153-0.019 0 0.016-0.007 0.023-0.040 0.038-0.022 0.010-0.038 0.018-0.036 0.019 0.124 0.013 0.219 0.075 0.266 0.175 0.018 0.037 0.020 0.053 0.020 0.116 0 0.066-0.002 0.078-0.024 0.122-0.025 0.052-0.074 0.108-0.114 0.128-0.013 0.007-0.025 0.013-0.026 0.014s0.008 0.014 0.022 0.028c0.014 0.014 0.035 0.048 0.048 0.075 0.020 0.043 0.024 0.058 0.024 0.112l0 0.062 0.027-0.007c0.015-0.004 0.045-0.012 0.066-0.018l0.039-0.011-0.016-0.040c-0.012-0.030-0.016-0.058-0.016-0.109-0-0.063 0.002-0.073 0.025-0.12 0.029-0.059 0.090-0.119 0.143-0.141 0.019-0.008 0.035-0.016 0.035-0.018s-0.014-0.014-0.031-0.027c-0.041-0.030-0.087-0.1-0.099-0.15-0.015-0.061-0.007-0.148 0.018-0.2 0.026-0.054 0.097-0.122 0.148-0.141 0.020-0.008 0.054-0.027 0.075-0.043 0.078-0.059 0.21-0.112 0.319-0.129 0.065-0.010 0.085-0.004 0.081 0.026-0.002 0.011-0.018 0.020-0.064 0.036-0.034 0.012-0.102 0.036-0.153 0.054l-0.091 0.033 0.026 0.011c0.014 0.006 0.033 0.011 0.042 0.012 0.028 0.002 0.109 0.087 0.136 0.143 0.022 0.045 0.024 0.056 0.024 0.122 0 0.064-0.003 0.079-0.022 0.121-0.026 0.057-0.092 0.122-0.145 0.144l-0.035 0.014 0.092 0.086 0.039-0.026c0.021-0.014 0.055-0.039 0.074-0.055s0.059-0.043 0.089-0.059c0.061-0.033 0.116-0.039 0.151-0.017 0.019 0.012 0.020 0.012 0.039-0.008l0.020-0.021-0.030-0.013c-0.050-0.022-0.105-0.077-0.132-0.134-0.023-0.047-0.025-0.057-0.025-0.124 0-0.064 0.003-0.079 0.022-0.12 0.032-0.069 0.038-0.073 0.129-0.079 0.064-0.005 0.171-0.024 0.18-0.034 0.001-0.001-0.055-0.002-0.125-0.001-0.114 0.001-0.128-0.001-0.136-0.013-0.024-0.038 0.015-0.047 0.284-0.066 0.064-0.005 0.175-0.008 0.245-0.008 0.072 0 0.132-0.003 0.136-0.007 0.008-0.008 0.126-0.028 0.199-0.034 0.025-0.002 0.070-0.009 0.1-0.015s0.11-0.020 0.18-0.031c0.727-0.112 1.318-0.053 1.788 0.179 0.345 0.17 0.613 0.423 0.817 0.773l0.041 0.070 0.099-0.113c0.294-0.336 0.492-0.586 0.723-0.917 0.142-0.203 0.343-0.511 0.422-0.647l0.020-0.035-0.101-0.081c-0.241-0.192-0.482-0.35-0.756-0.494-0.121-0.064-0.271-0.132-0.292-0.132-0.009 0-0.024-0.006-0.033-0.014-0.019-0.017-0.195-0.085-0.347-0.134-0.809-0.259-1.693-0.277-2.668-0.054-0.13 0.030-0.155 0.033-0.174 0.026-0.017-0.007-0.041-0.006-0.112 0.003-0.572 0.077-1.079 0.058-1.446-0.053-0.254-0.077-0.429-0.177-0.589-0.336-0.165-0.165-0.261-0.337-0.321-0.578-0.035-0.141-0.043-0.221-0.046-0.448l-0.002-0.214 0.006 0.165c0.011 0.301 0.056 0.502 0.158 0.708 0.057 0.116 0.128 0.211 0.224 0.304 0.149 0.144 0.325 0.24 0.56 0.308 0.366 0.106 0.893 0.116 1.477 0.029 0.074-0.011 0.156-0.020 0.184-0.021s0.127-0.017 0.222-0.037c0.449-0.093 0.794-0.125 1.243-0.118 0.491 0.008 0.871 0.068 1.311 0.206 0.122 0.039 0.131 0.040 0.139 0.027 0.012-0.020 0.144-0.081 0.21-0.098 0.031-0.008 0.078-0.017 0.106-0.020l0.051-0.005 0.004-0.033c0.013-0.097 0.075-0.184 0.161-0.226 0.1-0.049 0.221-0.035 0.307 0.035l0.042 0.034 0.035-0.020c0.032-0.018 0.034-0.021 0.024-0.032-0.006-0.007-0.021-0.033-0.033-0.058-0.018-0.039-0.021-0.055-0.021-0.115 0-0.061 0.003-0.074 0.024-0.119 0.029-0.060 0.082-0.115 0.14-0.144 0.038-0.018 0.051-0.021 0.119-0.021s0.082 0.002 0.125 0.022c0.059 0.027 0.124 0.094 0.144 0.148 0.007 0.020 0.015 0.038 0.016 0.040s0.025-0.007 0.052-0.018c0.047-0.020 0.060-0.035 0.042-0.046-0.004-0.003-0.015-0.029-0.024-0.059-0.043-0.14 0.017-0.282 0.145-0.345 0.048-0.024 0.056-0.025 0.132-0.025 0.073 0 0.084 0.002 0.121 0.021 0.090 0.047 0.152 0.133 0.16 0.221 0.004 0.042 0.005 0.046 0.021 0.042 0.009-0.002 0.036-0.006 0.060-0.009s0.044-0.006 0.044-0.007c0-0.001-0.006-0.024-0.012-0.050-0.028-0.11 0.019-0.237 0.111-0.301 0.029-0.020 0.033-0.027 0.061-0.118 0.052-0.165 0.169-0.588 0.169-0.611 0-0.010-0.131-0.084-0.214-0.121-0.183-0.082-0.432-0.143-0.716-0.176-0.117-0.014-0.174-0.014-0.268-0.004-0.192 0.022-0.371 0.080-0.601 0.195-0.222 0.111-0.404 0.232-0.7 0.468-0.509 0.404-0.97 0.657-1.396 0.765-0.168 0.043-0.259 0.053-0.457 0.053-0.161 0-0.194-0.002-0.27-0.017-0.343-0.069-0.603-0.249-0.815-0.563-0.13-0.194-0.284-0.482-0.357-0.669-0.134-0.346-0.234-0.822-0.234-1.12 0-0.112 0.003-0.144 0.016-0.193 0.042-0.153 0.108-0.227 0.244-0.27 0.114-0.037 0.209-0.106 0.315-0.23 0.114-0.133 0.194-0.274 0.269-0.476 0.092-0.247 0.2-0.689 0.233-0.96 0.063-0.506 0.019-1.020-0.134-1.588-0.101-0.376-0.229-0.75-0.325-0.951-0.070-0.147-0.098-0.191-0.13-0.202-0.018-0.006-0.024-0.012-0.019-0.017 0.017-0.017 0.005-0.036-0.056-0.097-0.146-0.145-0.245-0.208-0.382-0.242-0.043-0.011-0.094-0.028-0.112-0.038s-0.038-0.016-0.044-0.014c-0.015 0.006-0.032-0.009-0.049-0.043l-0.014-0.027-0.029 0.064-0.021-0.024c-0.021-0.024-0.021-0.024-0.043-0.011-0.023 0.014-0.045 0.016-0.083 0.008-0.018-0.004-0.022-0.008-0.019-0.019 0.006-0.021 0.049-0.052 0.081-0.057 0.026-0.004 0.027-0.005 0.031-0.051l0.004-0.046-0.147-0.23c-0.213-0.335-0.337-0.494-0.568-0.731-0.725-0.742-1.669-1.21-2.748-1.363-0.806-0.114-1.754-0.031-2.609 0.229-0.371 0.113-0.743 0.284-1.046 0.48-0.356 0.232-0.66 0.521-0.902 0.858-0.222 0.309-0.416 0.713-0.529 1.1-0.062 0.213-0.125 0.511-0.14 0.667l-0.009 0.093-0.027 0.004c-0.015 0.002-0.055 0.007-0.088 0.009-0.072 0.006-0.127 0.031-0.178 0.078-0.018 0.017-0.049 0.036-0.070 0.043-0.033 0.011-0.039 0.017-0.053 0.048-0.070 0.165-0.122 0.514-0.159 1.081-0.052 0.796 0.012 1.433 0.199 1.996 0.138 0.414 0.354 0.781 0.612 1.039 0.132 0.131 0.265 0.233 0.383 0.291 0.068 0.034 0.106 0.072 0.128 0.13 0.016 0.041 0.017 0.058 0.017 0.183-0.001 0.129-0.002 0.143-0.024 0.226-0.131 0.489-0.568 0.983-1.294 1.465-0.611 0.405-1.312 0.738-1.926 0.915-0.482 0.139-0.903 0.204-1.378 0.212-0.326 0.006-0.551-0.010-0.846-0.060-0.074-0.012-0.135-0.022-0.136-0.022-0.005 0 0.169 0.338 0.242 0.472 0.156 0.285 0.284 0.495 0.471 0.776 0.351 0.526 0.696 0.957 1.156 1.445 0.123 0.131 0.15 0.155 0.168 0.155 0.049 0 0.249-0.025 0.395-0.050 0.269-0.046 0.545-0.108 0.908-0.207l0.214-0.058 0.026-0.097c0.128-0.475 0.374-1.021 0.673-1.49 0.482-0.756 1.155-1.478 2.026-2.17 0.243-0.193 0.69-0.526 0.697-0.519 0.002 0.002-0.061 0.051-0.14 0.109-0.87 0.639-1.676 1.428-2.207 2.159-0.681 0.937-1.042 1.882-1.11 2.904-0.009 0.133-0.005 0.63 0.005 0.662 0.006 0.020 0.275 0.201 0.52 0.35 0.386 0.235 1.025 0.561 1.343 0.688l0.034 0.014-0.003-0.204c-0.001-0.112 0.001-0.257 0.006-0.323 0.077-1.045 0.584-1.882 1.535-2.535 0.301-0.207 0.677-0.405 1.101-0.58 0.225-0.093 0.701-0.264 0.723-0.259 0.006 0.001-0.034 0.017-0.088 0.036-0.439 0.151-0.882 0.347-1.229 0.545-0.058 0.033-0.066 0.040-0.058 0.052 0.006 0.010 0.006 0.055 0.001 0.162-0.004 0.082-0.007 0.149-0.006 0.15s0.026-0.035 0.056-0.080c0.030-0.045 0.088-0.121 0.128-0.169s0.084-0.102 0.097-0.121c0.013-0.019 0.025-0.032 0.027-0.030s-0.010 0.024-0.026 0.048c-0.016 0.025-0.040 0.062-0.051 0.083s-0.028 0.049-0.037 0.063-0.011 0.028 0.040-0.037c0.026-0.034 0.049-0.060 0.051-0.058s-0.014 0.027-0.036 0.056c-0.055 0.072-0.097 0.16-0.176 0.37-0.037 0.099-0.067 0.181-0.066 0.182s0.011-0.001 0.024-0.004c0.014-0.004 0.024-0.013 0.027-0.025 0.035-0.119 0.060-0.192 0.091-0.256 0.036-0.076 0.174-0.292 0.181-0.285 0.002 0.002-0.008 0.024-0.024 0.049s-0.045 0.090-0.067 0.144c-0.037 0.093-0.13 0.358-0.127 0.36 0.001 0.001 0.018 0.003 0.037 0.006l0.036 0.005 0.005-0.036c0.003-0.020 0.024-0.093 0.046-0.162s0.046-0.154 0.053-0.187c0.007-0.034 0.013-0.062 0.014-0.063s0.002 0.051 0.002 0.115c0 0.109 0.002 0.123 0.029 0.227 0.041 0.158 0.060 0.29 0.059 0.401-0.001 0.078 0.013 0.228 0.028 0.303 0.003 0.016 0.012 0.022 0.044 0.032 0.022 0.007 0.046 0.015 0.052 0.017 0.011 0.004 0.011 0.001 0.001-0.036-0.010-0.035-0.028-0.364-0.021-0.372 0.001-0.001 0.004 0.014 0.007 0.034s0.016 0.087 0.031 0.148c0.014 0.061 0.032 0.145 0.039 0.188 0.011 0.067 0.017 0.083 0.046 0.126 0.078 0.117 0.076 0.246-0.007 0.354l-0.028 0.036h0.031c0.017 0 0.038-0.004 0.046-0.010 0.013-0.008 0.017-0.007 0.027 0.005 0.013 0.018 0.014 0.036 0.002 0.049-0.011 0.011-0.096 0.012-0.137 0.002-0.021-0.005-0.039-0.003-0.073 0.009-0.063 0.021-0.151 0.017-0.21-0.011-0.054-0.025-0.102-0.068-0.129-0.115l-0.021-0.037-0.018 0.014c-0.017 0.014-0.018 0.015-0.008 0.074l0.010 0.059 0.027-0.003c0.045-0.006 0.116 0.009 0.163 0.034 0.080 0.042 0.135 0.121 0.15 0.213 0.004 0.023 0.007 0.035 0.008 0.026 0.002-0.031 0.039-0.097 0.075-0.133 0.020-0.020 0.057-0.047 0.083-0.059 0.042-0.020 0.053-0.023 0.122-0.022 0.068 0 0.082 0.003 0.121 0.022 0.097 0.047 0.158 0.138 0.165 0.242 0.002 0.032 0 0.069-0.004 0.084-0.006 0.022-0.004 0.030 0.008 0.047 0.010 0.013 0.013 0.026 0.010 0.036-0.006 0.020-0.024 0.021-0.034 0.003-0.007-0.012-0.009-0.012-0.021 0.006-0.034 0.047-0.069 0.078-0.116 0.101s-0.056 0.025-0.128 0.025-0.081-0.002-0.127-0.025c-0.085-0.042-0.146-0.125-0.16-0.219-0.003-0.022-0.006-0.034-0.007-0.028-0.002 0.027-0.047 0.106-0.078 0.137-0.018 0.018-0.051 0.042-0.072 0.053s-0.039 0.020-0.040 0.021c-0.003 0.003 0.032 0.103 0.036 0.104 0.002 0 0.024-0.009 0.049-0.020 0.146-0.067 0.313-0.009 0.385 0.134 0.030 0.060 0.035 0.16 0.011 0.224-0.033 0.087-0.103 0.152-0.193 0.178-0.024 0.007-0.044 0.014-0.044 0.016s0.016 0.036 0.036 0.075l0.036 0.072 0.021-0.029c0.025-0.033 0.063-0.061 0.117-0.086 0.058-0.026 0.16-0.025 0.22 0.003 0.062 0.029 0.121 0.087 0.148 0.146 0.019 0.042 0.022 0.056 0.022 0.12 0 0.067-0.002 0.077-0.025 0.124-0.031 0.064-0.092 0.121-0.151 0.143-0.023 0.009-0.050 0.016-0.059 0.016-0.039 0-0.037 0.010 0.019 0.094l0.055 0.082 0.021-0.037c0.029-0.051 0.091-0.104 0.143-0.125 0.061-0.023 0.149-0.023 0.21 0 0.058 0.023 0.128 0.087 0.156 0.145 0.019 0.039 0.021 0.051 0.021 0.124s-0.002 0.085-0.021 0.123c-0.012 0.023-0.034 0.057-0.050 0.074l-0.029 0.032 0.039 0.004c0.083 0.009 0.116 0.008 0.154-0.006 0.023-0.009 0.060-0.015 0.093-0.015zM18.552 21.915c-0.056-0.113-0.083-0.194-0.105-0.306-0.026-0.136-0.045-0.337-0.055-0.561-0.003-0.078-0.010-0.137-0.019-0.172-0.013-0.048-0.021-0.125-0.033-0.299l-0.004-0.054 0.015 0.072c0.008 0.039 0.041 0.15 0.072 0.245 0.094 0.282 0.114 0.334 0.147 0.373 0.050 0.060 0.163 0.205 0.163 0.21 0 0.003 0.024 0.004 0.054 0.004s0.054-0.003 0.054-0.006-0.025-0.023-0.056-0.044c-0.031-0.021-0.071-0.055-0.089-0.075-0.036-0.041-0.087-0.138-0.118-0.223-0.011-0.031-0.025-0.066-0.032-0.078s-0.012-0.026-0.012-0.031c0-0.005 0.036 0.048 0.079 0.117 0.089 0.142 0.118 0.183 0.19 0.267l0.050 0.058 0.026-0.016c0.016-0.010 0.046-0.018 0.076-0.022 0.027-0.003 0.061-0.008 0.074-0.010 0.019-0.004 0.028-0.001 0.041 0.012 0.019 0.019 0.020 0.018 0.047-0.030 0.008-0.015 0.019-0.024 0.029-0.024 0.015 0 0.015 0.001 0.005 0.021-0.021 0.040-0.056 0.082-0.083 0.101-0.015 0.011-0.033 0.031-0.040 0.047s-0.046 0.058-0.089 0.098c-0.070 0.064-0.079 0.070-0.107 0.070-0.017 0-0.038-0.004-0.046-0.008-0.011-0.006-0.018-0.005-0.026 0.003-0.026 0.026-0.12 0.025-0.143-0.001-0.021-0.024-0.049-0.088-0.078-0.177-0.032-0.099-0.033-0.119-0.005-0.119 0.023 0 0.026 0.007 0.073 0.13 0.048 0.125 0.049 0.126 0.096 0.126h0.039l-0.005-0.023c-0.006-0.028 0.007-0.070 0.027-0.088 0.015-0.013 0.014-0.027-0.001-0.027-0.004 0-0.006 0.005-0.004 0.012 0.007 0.018-0.001 0.014-0.054-0.023-0.080-0.057-0.148-0.147-0.175-0.233-0.007-0.023-0.031-0.073-0.053-0.111s-0.042-0.074-0.044-0.080c-0.007-0.019-0.006 0.019 0.006 0.168 0.009 0.113 0.014 0.15 0.029 0.184 0.024 0.057 0.148 0.294 0.174 0.332 0.030 0.045 0.033 0.058 0.020 0.078-0.017 0.025-0.052 0.024-0.077-0.002-0.052-0.056-0.087-0.153-0.107-0.294-0.007-0.053-0.015-0.097-0.016-0.099-0.006-0.006-0.003 0.037 0.009 0.127 0.022 0.168 0.055 0.293 0.104 0.388 0.029 0.056 0.047 0.104 0.039 0.104-0.003-0-0.030-0.051-0.061-0.113zM18.456 21.383c-0.002-0.006-0.004-0.004-0.005 0.005s0.002 0.013 0.004 0.010 0.003-0.009 0.001-0.015zM20.627 18.414c-0.002-0.003-0.012-0.006-0.022-0.006s-0.019-0.004-0.019-0.010c0-0.026 0.036-0.098 0.067-0.135 0.048-0.056 0.080-0.075 0.136-0.081 0.025-0.002 0.059-0.006 0.075-0.008 0.027-0.003 0.029-0.002 0.024 0.013-0.003 0.009-0.005 0.026-0.004 0.038 0.002 0.044-0.062 0.125-0.129 0.164-0.035 0.020-0.12 0.036-0.128 0.023zM13.939 16.382c-0.008-0.002-0.043-0.011-0.076-0.019-0.259-0.065-0.557-0.27-0.823-0.569-0.452-0.507-0.77-1.2-0.819-1.785-0.036-0.424 0.085-0.747 0.325-0.868 0.113-0.057 0.27-0.072 0.411-0.037 0.245 0.060 0.486 0.21 0.739 0.463 0.165 0.164 0.282 0.311 0.421 0.525 0.037 0.057 0.091 0.128 0.12 0.158 0.060 0.063 0.088 0.117 0.1 0.193 0.004 0.028 0.021 0.081 0.037 0.116 0.084 0.188 0.14 0.349 0.187 0.534 0.037 0.148 0.056 0.267 0.066 0.419 0.007 0.111 0.007 0.147-0.004 0.242-0.013 0.115-0.035 0.207-0.068 0.289-0.062 0.153-0.183 0.273-0.323 0.32-0.053 0.018-0.076 0.021-0.168 0.023-0.059 0.001-0.114 0-0.123-0.002zM13.95 14.568c0-0.011-0.122-0.171-0.166-0.218-0.026-0.028-0.048-0.054-0.048-0.058s0.007-0.021 0.015-0.037c0.036-0.070 0.009-0.15-0.077-0.235-0.067-0.066-0.192-0.159-0.25-0.187s-0.13-0.030-0.172-0.006l-0.028 0.016-0.074-0.052c-0.107-0.075-0.213-0.137-0.293-0.17-0.068-0.028-0.2-0.067-0.226-0.067-0.007 0 0.025 0.020 0.073 0.045 0.116 0.060 0.305 0.174 0.406 0.244l0.082 0.058v0.034c0 0.061 0.034 0.11 0.114 0.165 0.066 0.045 0.123 0.091 0.186 0.15 0.050 0.047 0.097 0.071 0.139 0.071 0.027 0 0.037 0.008 0.115 0.080 0.105 0.097 0.191 0.172 0.198 0.173 0.003 0 0.006-0.002 0.006-0.004zM20.261 16.008c-0.076-0.014-0.132-0.037-0.193-0.080-0.128-0.090-0.21-0.223-0.262-0.425-0.029-0.112-0.038-0.204-0.038-0.373 0-0.392 0.118-0.848 0.333-1.284 0.289-0.587 0.701-1.032 1.086-1.177 0.314-0.118 0.585-0.028 0.734 0.243 0.035 0.064 0.085 0.213 0.102 0.306 0.021 0.114 0.019 0.464-0.004 0.604-0.026 0.16-0.068 0.335-0.11 0.466-0.266 0.825-0.807 1.516-1.323 1.688-0.13 0.043-0.216 0.052-0.325 0.031zM20.32 14.238c0.053-0.079 0.135-0.204 0.184-0.277s0.113-0.165 0.142-0.204l0.054-0.070 0.029 0.007c0.063 0.015 0.11-0.006 0.221-0.101 0.123-0.104 0.152-0.137 0.163-0.179 0.005-0.020 0.007-0.051 0.005-0.068l-0.004-0.032 0.048-0.032c0.026-0.018 0.065-0.042 0.086-0.055s0.033-0.024 0.027-0.024c-0.020-0-0.117 0.029-0.161 0.048-0.040 0.018-0.044 0.018-0.065 0.007-0.034-0.018-0.107-0.016-0.146 0.005-0.078 0.041-0.232 0.181-0.255 0.233-0.017 0.037-0.020 0.091-0.007 0.128 0.008 0.022 0.006 0.027-0.014 0.053-0.107 0.133-0.236 0.328-0.297 0.446-0.033 0.065-0.111 0.245-0.111 0.257 0 0.009 0.016-0.014 0.101-0.141zM15.743 14.999c-0.005-0.119-0.013-0.27-0.017-0.335-0.036-0.584-0.044-0.679-0.073-0.892-0.12-0.86-0.425-1.506-0.91-1.925-0.144-0.124-0.32-0.245-0.495-0.34-0.062-0.034-0.068-0.035-0.084-0.025-0.030 0.019-0.071 0.023-0.099 0.009-0.014-0.007-0.038-0.015-0.054-0.017s-0.031-0.008-0.033-0.011c-0.002-0.004-0.014-0.004-0.027-0.002-0.025 0.005-0.032-0.011-0.011-0.028 0.006-0.005 0.012-0.021 0.012-0.036 0-0.030-0.002-0.031-0.124-0.073-0.041-0.014-0.075-0.028-0.075-0.032 0-0.007 0.007-0.006 0.134 0.022 0.074 0.016 0.085 0.017 0.090 0.007 0.004-0.006 0.011-0.015 0.016-0.019 0.046-0.038 0.060-0.048 0.095-0.061 0.048-0.018 0.084-0.019 0.118-0.004 0.014 0.006 0.035 0.013 0.046 0.015s0.021 0.009 0.021 0.015c0 0.006 0.009 0.014 0.019 0.019s0.019 0.012 0.019 0.017c0 0.009-0.015 0.039-0.022 0.046-0.003 0.002-0.011 0.018-0.020 0.034s-0.016 0.033-0.017 0.035c-0.001 0.003 0.024 0.016 0.057 0.029 0.225 0.094 0.447 0.245 0.634 0.432 0.51 0.513 0.796 1.279 0.868 2.331 0.017 0.238 0.005 0.564-0.030 0.857-0.008 0.069-0.015 0.131-0.015 0.136s-0.003 0.010-0.006 0.010-0.010-0.097-0.016-0.216zM18.464 14.795c-0.011-0.205-0.002-0.61 0.018-0.823 0.053-0.558 0.182-1.118 0.358-1.558 0.169-0.424 0.376-0.751 0.644-1.019 0.328-0.329 0.691-0.514 1.13-0.577 0.105-0.015 0.233-0.025 0.233-0.019 0 0.003-0.040 0.014-0.090 0.026-0.502 0.118-0.975 0.39-1.279 0.734-0.393 0.444-0.654 1.049-0.808 1.864-0.059 0.317-0.166 1.098-0.185 1.366-0.008 0.106-0.015 0.108-0.021 0.004zM17.9 9.8c-0.005-0.006-0.016-0.012-0.025-0.012-0.010 0-0.014-0.004-0.011-0.011 0.016-0.042 0.023-0.087 0.023-0.154 0-0.061-0.003-0.083-0.016-0.111-0.022-0.048-0.066-0.096-0.112-0.123l-0.039-0.023 0.035-0c0.067-0 0.117-0.055 0.117-0.126-0.001-0.089-0.073-0.155-0.149-0.134-0.032 0.009-0.081 0.045-0.101 0.075-0.029 0.044-0.012 0.113 0.037 0.154l0.030 0.025-0.023-0.006c-0.044-0.011-0.143-0.007-0.182 0.008-0.071 0.027-0.12 0.113-0.123 0.215-0.001 0.030-0.005 0.057-0.009 0.060-0.018 0.013-0.116-0.116-0.138-0.181-0.017-0.049-0.015-0.057 0.009-0.062 0.068-0.014 0.12-0.030 0.142-0.045 0.034-0.023 0.059-0.075 0.059-0.124 0-0.113-0.072-0.187-0.182-0.187-0.043 0-0.049-0.002-0.055-0.018-0.004-0.010-0.012-0.022-0.019-0.028s-0.010-0.014-0.007-0.018c0.003-0.005 0.011-0 0.020 0.010l0.015 0.018-0.011-0.019c-0.006-0.011-0.015-0.019-0.019-0.019s-0.011-0.003-0.014-0.007c-0.004-0.004-0.002-0.004 0.004-0.001 0.008 0.005 0.010 0.002 0.006-0.010-0.006-0.021 0.004-0.021 0.020 0.001 0.007 0.009 0.010 0.012 0.007 0.006-0.005-0.010-0.004-0.010 0.006-0.002s0.013 0.008 0.016-0.002c0.002-0.006 0.001-0.014-0.004-0.016s-0.005-0.007 0.002-0.012c0.007-0.005 0.018 0.002 0.035 0.022 0.020 0.023 0.026 0.027 0.034 0.019 0.005-0.005 0.019-0.009 0.030-0.009s0.027-0.007 0.035-0.016c0.021-0.023 0.073-0.045 0.112-0.046 0.046-0.001 0.091 0.008 0.106 0.021 0.013 0.012 0.024 0.015 0.021 0.006-0.004-0.013 0.019-0.010 0.050 0.006 0.018 0.010 0.021 0.009 0.017-0.004-0.006-0.017 0.017-0.010 0.041 0.012 0.012 0.011 0.039 0.027 0.061 0.036 0.11 0.044 0.221 0.151 0.279 0.268 0.027 0.054 0.032 0.072 0.035 0.124 0.002 0.034-0 0.071-0.005 0.085-0.008 0.023-0.004 0.064 0.011 0.103 0.004 0.011 0.003 0.013-0.005 0.007s-0.007-0.001 0.003 0.014c0.017 0.025 0.017 0.032 0.001 0.026-0.011-0.004-0.011-0.003 0 0.014 0.013 0.020 0.007 0.026-0.010 0.010-0.008-0.008-0.009-0.007-0.001 0.008 0.011 0.020 0.007 0.021-0.019 0.005-0.020-0.013-0.026-0.003-0.007 0.012 0.006 0.005 0.012 0.013 0.012 0.017s-0.005 0.003-0.012-0.002c-0.020-0.017-0.022-0.001-0.005 0.032 0.021 0.040 0.021 0.042-0.002 0.027l-0.019-0.013v0.029c0 0.043-0.027 0.067-0.068 0.060-0.025-0.004-0.030-0.003-0.026 0.007 0.006 0.015-0 0.015-0.013 0zM17.227 8.983l-0.018-0.017 0.015 0.020c0.008 0.011 0.016 0.019 0.018 0.017s-0.005-0.011-0.015-0.020zM5.833 25.204c-0.012-0.013-0.024-0.021-0.026-0.019s0.006 0.014 0.018 0.027c0.012 0.013 0.024 0.021 0.026 0.019s-0.006-0.014-0.018-0.027zM6.64 25.142c0-0.003-0.022-0.017-0.051-0.032l-0.052-0.027-0.076 0.053 0.066-0.059-0.048-0.021c-0.059-0.026-0.153-0.059-0.157-0.055-0.002 0.002 0.050 0.053 0.114 0.115l0.117 0.112 0.044-0.040c0.024-0.022 0.044-0.042 0.044-0.045zM15.841 25.184c0-0.011-0.118-0.199-0.138-0.221-0.012-0.013-0.026-0.035-0.032-0.050-0.018-0.043-0.095-0.159-0.113-0.17-0.009-0.005-0.080-0.084-0.158-0.174-0.145-0.169-0.286-0.323-0.43-0.47-0.091-0.093-0.122-0.112-0.197-0.118-0.045-0.004-0.054-0.001-0.146 0.039-0.31 0.134-0.744 0.235-1.292 0.3-0.088 0.011-0.172 0.019-0.186 0.019-0.025 0-0.025 0-0.024 0.036 0 0.020 0.003 0.053 0.006 0.073l0.005 0.037 0.065 0.026c0.698 0.284 1.571 0.523 2.315 0.634 0.292 0.044 0.325 0.047 0.325 0.038zM16.314 25.16c0.021-0.013 0.044-0.037 0.058-0.059 0.057-0.093 0.009-0.242-0.095-0.295-0.088-0.045-0.193-0.011-0.238 0.079-0.026 0.052-0.022 0.111 0.014 0.18 0.046 0.089 0.105 0.127 0.186 0.12 0.027-0.002 0.053-0.011 0.076-0.025zM7.066 25.126c0.003-0.018 0.010-0.044 0.016-0.059s0.010-0.027 0.008-0.029c-0.001-0.001-0.021 0.020-0.043 0.047s-0.039 0.051-0.038 0.052c0.009 0.008 0.035 0.020 0.042 0.020 0.005 0 0.011-0.014 0.014-0.032zM7.116 25.067c0.001-0.024 0.002-0.024 0.005-0.006 0.005 0.036 0.017 0.015 0.017-0.031v-0.043l-0.019 0.026c-0.016 0.022-0.050 0.111-0.049 0.129 0 0.003 0.010-0.007 0.023-0.022 0.014-0.017 0.023-0.037 0.024-0.054zM17.012 25.115c0.038-0.015 0.086-0.069 0.098-0.109 0.009-0.029 0.008-0.033-0.012-0.064-0.012-0.018-0.035-0.066-0.053-0.105-0.028-0.065-0.036-0.075-0.065-0.091l-0.033-0.018 0.005 0.018c0.011 0.037 0.014 0.068 0.009 0.081-0.004 0.010-0.012-0.001-0.031-0.044l-0.026-0.057h-0.045c-0.077 0-0.136 0.052-0.159 0.141-0.025 0.096 0.015 0.203 0.091 0.243 0.052 0.027 0.159 0.030 0.22 0.006zM6.7 25.099l0.017-0.014-0.044-0.021c-0.049-0.024-0.192-0.105-0.227-0.129-0.012-0.008-0.024-0.013-0.027-0.010-0.007 0.008 0.131 0.135 0.142 0.13 0.005-0.002 0.009-0.001 0.008 0.003s0.019 0.020 0.044 0.037c0.048 0.032 0.050 0.032 0.087 0.003zM7.064 25.012l0.066-0.074v-0.047c0-0.026 0.003-0.047 0.008-0.047s0.008 0.018 0.008 0.040l0 0.040 0.094-0.097c0.051-0.053 0.103-0.103 0.115-0.11s0.020-0.015 0.017-0.017c-0.007-0.007-0.047 0.024-0.123 0.097-0.086 0.083-0.083 0.075 0.010-0.028 0.035-0.039 0.063-0.072 0.061-0.073s-0.020-0.008-0.041-0.016c-0.071-0.026-0.132-0.109-0.162-0.219-0.014-0.053-0.020-0.237-0.009-0.294l0.006-0.031-0.016 0.019c-0.039 0.048-0.057 0.1-0.060 0.173-0.003 0.062-0.001 0.075 0.013 0.098 0.023 0.039 0.008 0.033-0.021-0.008s-0.046-0.092-0.046-0.144v-0.039l-0.057 0.057c-0.036 0.035-0.057 0.063-0.057 0.073 0 0.009-0.008 0.028-0.017 0.042s-0.024 0.041-0.032 0.060c-0.017 0.038-0.060 0.073-0.104 0.085-0.031 0.008-0.056 0.038-0.151 0.181-0.073 0.11-0.066 0.135 0.056 0.208 0.029 0.018 0.114 0.061 0.188 0.097s0.139 0.068 0.145 0.072c0.013 0.008 0.011 0.009 0.11-0.1zM19.243 25.058c0.471-0.095 0.979-0.235 1.393-0.382 0.509-0.181 0.963-0.377 1.384-0.598 0.209-0.109 0.442-0.239 0.442-0.245s-0.293-0.102-0.371-0.121c-0.205-0.050-0.405-0.077-0.624-0.082-0.151-0.004-0.166-0.006-0.182-0.020s-0.023-0.015-0.203-0.011c-0.264 0.007-0.453 0.030-0.656 0.082-0.677 0.171-1.133 0.605-1.377 1.311l-0.039 0.113 0.025-0.005c0.014-0.003 0.107-0.021 0.208-0.042zM7.199 24.984c-0.004-0.001-0.007-0.012-0.007-0.023v-0.020l-0.021 0.020c-0.018 0.017-0.021 0.025-0.018 0.052l0.003 0.032 0.025-0.030c0.014-0.016 0.022-0.031 0.018-0.032zM6.487 25.018c0-0.001-0.018-0.020-0.040-0.042l-0.040-0.040-0.026 0.019c-0.024 0.017-0.025 0.020-0.011 0.024 0.008 0.002 0.034 0.012 0.057 0.022 0.038 0.016 0.061 0.023 0.061 0.017zM6.64 24.987c-0.014-0.014-0.126-0.096-0.131-0.096-0.009 0-0.007 0.011 0.003 0.025 0.010 0.013 0.112 0.074 0.124 0.075 0.004 0 0.006-0.001 0.004-0.003zM6.331 24.956c0.013-0.003 0.031-0.011 0.041-0.019l0.018-0.014-0.065-0.062c-0.036-0.034-0.087-0.074-0.114-0.089s-0.082-0.052-0.123-0.082c-0.041-0.030-0.076-0.053-0.079-0.050-0.006 0.006 0.082 0.112 0.194 0.237 0.061 0.067 0.091 0.096 0.097 0.091 0.005-0.004 0.019-0.009 0.032-0.012zM7.223 24.888c0.008-0.017 0.014-0.031 0.012-0.033-0.003-0.003-0.082 0.093-0.082 0.1 0 0.013 0.057-0.041 0.070-0.067zM6.411 24.907c0-0.007-0.072-0.063-0.081-0.063-0.004 0 0.009 0.015 0.027 0.034 0.031 0.032 0.054 0.044 0.054 0.028zM13.052 24.762c-0.003-0.020-0.009-0.073-0.013-0.118l-0.009-0.081-0.097-0.040c-0.52-0.217-1.194-0.579-1.681-0.903-0.055-0.036-0.103-0.068-0.108-0.071-0.008-0.005-0.001 0.074 0.020 0.214l0.009 0.060 0.108 0.069c0.384 0.243 0.749 0.444 1.161 0.64 0.221 0.105 0.585 0.265 0.608 0.267 0.004 0 0.005-0.016 0.002-0.036zM7.442 24.698c-0.004-0.003 0.004-0.009 0.017-0.013s0.037-0.019 0.054-0.032c0.016-0.013 0.056-0.036 0.089-0.051 0.067-0.030 0.196-0.103 0.191-0.108-0.010-0.010-0.302 0.11-0.352 0.144-0.027 0.018-0.028 0.020-0.013 0.025 0.009 0.003 0.019 0.003 0.024 0s0.006 0 0.003 0.007c-0.003 0.007-0.012 0.012-0.022 0.012-0.018 0-0.027 0.013-0.027 0.039 0 0.015 0.001 0.015 0.022-0.003 0.012-0.010 0.019-0.020 0.015-0.023zM6.592 24.656c-0.001-0.001-0.011 0-0.023 0.003-0.019 0.004-0.021 0.007-0.021 0.036l0 0.032 0.023-0.034c0.012-0.019 0.022-0.035 0.021-0.036zM16.572 24.687c0.027-0.017 0.043-0.034 0.059-0.065 0.020-0.038 0.022-0.048 0.019-0.096-0.004-0.061-0.013-0.083-0.073-0.167-0.056-0.078-0.092-0.101-0.162-0.1-0.059 0-0.102 0.020-0.137 0.062-0.052 0.063-0.061 0.16-0.022 0.236 0.023 0.046 0.1 0.121 0.145 0.142 0.050 0.023 0.122 0.018 0.171-0.012zM7.259 24.647c-0.024-0.026-0.032-0.040-0.054-0.103-0.016-0.045-0.017-0.057-0.013-0.175l0.004-0.126 0.052-0.111c0.029-0.061 0.062-0.124 0.075-0.14 0.037-0.047 0.008-0.033-0.046 0.023-0.088 0.089-0.118 0.167-0.128 0.331-0.008 0.134 0.020 0.235 0.082 0.292 0.036 0.034 0.057 0.040 0.028 0.008zM7.173 24.457c-0.003-0.011-0.004-0.022-0.002-0.024s0.006 0.006 0.008 0.017c0.003 0.011 0.004 0.022 0.002 0.024s-0.006-0.006-0.008-0.017zM7.162 24.411c0-0.009 0.002-0.011 0.005-0.005s0.002 0.012-0.001 0.015c-0.003 0.003-0.004-0.002-0.004-0.010zM7.155 24.37c0-0.015 0.002-0.021 0.003-0.013s0.002 0.019 0 0.027c-0.002 0.007-0.003 0.001-0.003-0.013zM15.718 24.635c-0.016-0.015-0.076-0.057-0.072-0.051 0.006 0.009 0.065 0.054 0.071 0.054 0.002 0 0.003-0.001 0.001-0.003zM15.873 24.621c0.055-0.033 0.083-0.087 0.083-0.157 0-0.113-0.063-0.2-0.159-0.218-0.104-0.020-0.219 0.089-0.194 0.183 0.018 0.067 0.068 0.119 0.173 0.183 0.053 0.032 0.060 0.033 0.097 0.010zM9.496 24.4c0.188-0.023 0.32-0.106 0.458-0.287 0.079-0.105 0.14-0.25 0.163-0.393l0.008-0.048-0.042-0.080c-0.035-0.068-0.041-0.083-0.035-0.1 0.004-0.011 0.006-0.022 0.003-0.026s-0.032-0.023-0.067-0.043c-0.144-0.082-0.375-0.245-0.53-0.374-0.305-0.253-0.63-0.586-0.888-0.911-0.050-0.063-0.114-0.14-0.142-0.172-0.057-0.065-0.082-0.099-0.23-0.314-0.143-0.208-0.141-0.205-0.161-0.256-0.023-0.058-0.062-0.119-0.108-0.168-0.020-0.021-0.048-0.054-0.062-0.073-0.028-0.038-0.051-0.044-0.063-0.017-0.006 0.013-0.014 0.017-0.035 0.017-0.097 0-0.334 0.099-0.456 0.191-0.109 0.081-0.208 0.199-0.252 0.298-0.048 0.108-0.064 0.265-0.041 0.392 0.012 0.067 0.048 0.184 0.056 0.184 0.004 0 0.013 0.015 0.021 0.034 0.044 0.102 0.179 0.329 0.296 0.495l0.057 0.081 0.073 0.037c0.064 0.032 0.079 0.037 0.124 0.038s0.062 0.006 0.124 0.037c0.040 0.019 0.105 0.054 0.145 0.077 0.073 0.042 0.073 0.042 0.082 0.025 0.005-0.009 0.040-0.042 0.077-0.073s0.093-0.079 0.125-0.108l0.058-0.051-0.005-0.056c-0.003-0.031-0.013-0.091-0.023-0.133-0.013-0.059-0.017-0.102-0.018-0.188-0.001-0.109-0-0.112 0.022-0.152 0.016-0.029 0.033-0.047 0.057-0.061 0.019-0.011 0.069-0.040 0.11-0.066 0.073-0.045 0.076-0.045 0.089-0.031 0.007 0.008 0.056 0.065 0.107 0.128 0.14 0.169 0.271 0.314 0.434 0.478l0.146 0.147-0.107 0c-0.059 0-0.12 0.003-0.135 0.008-0.040 0.011-0.089 0.057-0.115 0.108-0.034 0.067-0.078 0.087-0.136 0.064-0.024-0.010-0.037-0.011-0.059-0.005-0.031 0.009-0.068 0.001-0.090-0.019-0.013-0.012-0.015-0.012-0.031 0.009-0.045 0.058-0.211 0.236-0.248 0.267-0.053 0.044-0.088 0.053-0.167 0.047-0.081-0.007-0.104-0.018-0.168-0.079-0.030-0.028-0.070-0.065-0.090-0.081s-0.038-0.035-0.040-0.042c-0.004-0.012-0.125-0.074-0.132-0.067-0.008 0.008 0.215 0.253 0.41 0.45 0.156 0.158 0.156 0.158 0.17 0.142l0.013-0.017 0.049 0.017c0.027 0.009 0.069 0.021 0.095 0.026s0.085 0.030 0.134 0.055c0.169 0.088 0.188 0.097 0.245 0.115 0.075 0.025 0.129 0.035 0.179 0.035 0.029 0 0.044 0.004 0.053 0.013 0.010 0.011 0.047 0.101 0.062 0.148 0.002 0.007 0.018 0.015 0.041 0.020 0.020 0.004 0.078 0.019 0.129 0.032 0.108 0.029 0.188 0.032 0.283 0.012 0.136-0.029 0.212-0.068 0.296-0.154 0.053-0.054 0.091-0.118 0.070-0.118-0.007 0-0.019 0.005-0.026 0.012-0.012 0.011-0.020 0.009-0.092-0.018-0.123-0.047-0.179-0.074-0.213-0.105-0.054-0.049-0.055-0.105-0.003-0.13 0.024-0.011 0.042-0.012 0.12-0.008 0.051 0.003 0.106 0.007 0.123 0.010l0.031 0.005-0.032-0.028c-0.069-0.060-0.084-0.126-0.041-0.176 0.030-0.034 0.064-0.049 0.081-0.035 0.010 0.009 0.009 0.012-0.008 0.030-0.011 0.011-0.019 0.027-0.019 0.036 0 0.021 0.046 0.065 0.103 0.1 0.081 0.048 0.096 0.062 0.096 0.087 0 0.033-0.026 0.044-0.075 0.031-0.045-0.012-0.214-0.024-0.266-0.018-0.050 0.005-0.088 0.017-0.088 0.027 0 0.017 0.054 0.058 0.125 0.092 0.078 0.038 0.177 0.074 0.203 0.074 0.021 0 0.020 0.006-0.012 0.062-0.015 0.027-0.043 0.081-0.062 0.121-0.054 0.115-0.085 0.139-0.241 0.186-0.207 0.063-0.285 0.066-0.432 0.017-0.064-0.021-0.088-0.026-0.103-0.021-0.042 0.016-0.066-0.017-0.088-0.122-0.006-0.029-0.011-0.070-0.011-0.090v-0.037l-0.053-0.004c-0.088-0.007-0.173-0.035-0.284-0.092-0.186-0.096-0.217-0.111-0.278-0.127-0.087-0.023-0.092-0.021-0.047 0.021 0.022 0.020 0.094 0.086 0.161 0.148 0.191 0.175 0.361 0.321 0.376 0.321 0.007 0 0.062 0.022 0.12 0.049 0.118 0.054 0.22 0.089 0.314 0.107 0.055 0.011 0.081 0.014 0.149 0.019 0.011 0.001 0.049-0.002 0.084-0.007zM19.296 24.281c0.26-0.346 0.652-0.596 1.115-0.71 0.23-0.057 0.373-0.073 0.672-0.078 0.213-0.004 0.249-0.003 0.265 0.007 0.013 0.008 0.049 0.013 0.128 0.017 0.374 0.017 0.709 0.087 1.031 0.213l0.086 0.034 0.094-0.057c0.132-0.080 0.43-0.278 0.584-0.387 0.379-0.269 0.652-0.489 1.022-0.823 0.151-0.136 0.585-0.565 0.608-0.601 0.013-0.019 0.012-0.021-0.035-0.102-0.026-0.046-0.050-0.085-0.053-0.089s-0.059 0.021-0.124 0.054c-0.587 0.299-1.382 0.486-2.387 0.564-0.557 0.043-1.241 0.053-1.887 0.027l-0.199-0.008-0.069 0.026c-0.103 0.039-0.166 0.070-0.244 0.115-0.463 0.272-0.73 0.761-0.813 1.487l-0.013 0.114 0.029 0.057c0.031 0.062 0.127 0.224 0.13 0.221 0.001-0.001 0.028-0.037 0.060-0.080zM6.96 24.174c0.010 0.003 0.023-0.008 0.046-0.037 0.018-0.022 0.032-0.043 0.032-0.046s-0.032 0.011-0.070 0.031c-0.079 0.041-0.129 0.083-0.129 0.108 0 0.015 0.005 0.013 0.053-0.022 0.033-0.024 0.059-0.037 0.067-0.035zM15.5 24.072c0.017-0.008 0.037-0.021 0.045-0.030l0.015-0.016h-0.061c-0.055 0-0.065-0.002-0.095-0.023-0.041-0.027-0.134-0.129-0.154-0.167-0.010-0.020-0.014-0.045-0.014-0.088 0-0.060-0-0.061-0.015-0.047-0.048 0.044-0.063 0.144-0.032 0.214 0.021 0.047 0.102 0.126 0.156 0.153 0.049 0.024 0.11 0.026 0.155 0.005zM15.597 23.959c0.011-0.029 0.004-0.093-0.015-0.129-0.026-0.050-0.115-0.141-0.158-0.161-0.038-0.017-0.102-0.024-0.13-0.013-0.018 0.007-0.017 0.119 0.003 0.16 0.018 0.038 0.132 0.155 0.156 0.159 0.009 0.002 0.044 0.004 0.077 0.004 0.058 0.001 0.060 0.001 0.068-0.020zM23.116 23.777c0.438-0.293 0.819-0.584 1.168-0.891 0.256-0.226 0.75-0.703 0.75-0.725 0-0.008-0.050-0.135-0.062-0.158-0.006-0.011-0.045 0.025-0.235 0.215-0.454 0.454-0.89 0.824-1.391 1.18-0.131 0.093-0.495 0.336-0.579 0.387l-0.051 0.031 0.093 0.047c0.051 0.026 0.097 0.048 0.101 0.048s0.097-0.060 0.207-0.133zM7.652 23.661c0.006-0.004-0.001-0.026-0.008-0.025-0.003 0-0.015 0.009-0.028 0.020l-0.023 0.019 0.027-0.005c0.015-0.003 0.029-0.007 0.032-0.008zM8.075 23.667c-0.004-0.004-0.030-0.023-0.058-0.042-0.044-0.031-0.051-0.034-0.056-0.022-0.003 0.007-0.002 0.014 0.001 0.016s0.029 0.014 0.056 0.028c0.050 0.026 0.071 0.034 0.057 0.021zM8.030 23.589c-0.043-0.043-0.046-0.045-0.052-0.029-0.004 0.011-0.003 0.019 0.004 0.023 0.005 0.003 0.025 0.016 0.044 0.029 0.053 0.035 0.054 0.029 0.004-0.022zM7.842 23.612c0-0.004-0.005-0.008-0.012-0.008s-0.012 0.003-0.012 0.008c0 0.004 0.005 0.008 0.012 0.008s0.012-0.003 0.012-0.008zM7.887 23.57c0.005-0.011 0.007-0.023 0.005-0.027s0-0.007 0.006-0.007c0.006-0 0.019-0.008 0.031-0.017l0.021-0.017-0.122-0.121-0.008 0.021c-0.014 0.038-0.009 0.044 0.020 0.024 0.016-0.011 0.017-0.010 0.025 0.026 0.009 0.039 0.006 0.074-0.012 0.109-0.008 0.016-0.008 0.021-0.001 0.024 0.019 0.008 0.026 0.005 0.035-0.015zM15.822 23.467c0.038-0.022 0.069-0.056 0.061-0.069-0.002-0.003-0.023-0.008-0.046-0.011-0.057-0.006-0.1-0.029-0.17-0.092-0.068-0.061-0.099-0.080-0.111-0.068s-0.016 0.085-0.006 0.121c0.031 0.115 0.172 0.176 0.273 0.117zM15.271 23.395c0.185-0.086 0.116-0.372-0.091-0.372-0.065 0-0.128 0.030-0.128 0.061s0.089 0.165 0.139 0.209c0.009 0.007 0.027 0.013 0.041 0.013 0.038 0 0.066 0.015 0.063 0.034-0.002 0.015-0.007 0.016-0.056 0.013-0.029-0.001-0.061-0.007-0.070-0.013-0.023-0.015-0.106-0.118-0.131-0.164-0.012-0.021-0.024-0.038-0.026-0.038-0.009-0-0.016 0.067-0.010 0.097 0.008 0.040 0.037 0.094 0.067 0.123 0.058 0.055 0.134 0.070 0.202 0.038zM15.908 23.307c-0.005-0.057-0.027-0.099-0.070-0.137-0.053-0.047-0.127-0.061-0.186-0.036-0.029 0.012-0.056 0.032-0.056 0.042 0 0.003 0.011 0.012 0.025 0.020s0.051 0.037 0.082 0.065c0.072 0.062 0.083 0.068 0.149 0.080 0.029 0.005 0.055 0.009 0.057 0.010s0.001-0.019-0.001-0.044zM15.37 22.873c-0.055-0.033-0.114-0.088-0.13-0.122-0.007-0.015-0.012-0.048-0.012-0.085-0.001-0.072-0.013-0.056-0.014 0.018-0.001 0.114 0.081 0.216 0.175 0.216l0.027 0-0.046-0.027zM15.529 22.848c0.051-0.056 0.072-0.152 0.050-0.224-0.005-0.016-0.021-0.044-0.035-0.060-0.026-0.030-0.083-0.066-0.092-0.058-0.002 0.002 0.003 0.024 0.012 0.048 0.018 0.050 0.027 0.086 0.021 0.086-0.009 0-0.060-0.060-0.086-0.101-0.031-0.049-0.039-0.051-0.099-0.017-0.045 0.026-0.053 0.038-0.043 0.061 0.005 0.011 0.011 0.044 0.014 0.074 0.006 0.063 0.014 0.084 0.050 0.118 0.031 0.030 0.149 0.102 0.167 0.102 0.007 0 0.025-0.013 0.040-0.030zM15.002 22.693c-0.021-0.013-0.045-0.029-0.053-0.036-0.010-0.008-0.008-0.005 0.004 0.009 0.022 0.025 0.060 0.051 0.076 0.051 0.006 0-0.006-0.011-0.027-0.024zM15.134 22.642c0.008-0.057-0.033-0.152-0.077-0.179-0.056-0.034-0.149-0.003-0.15 0.051-0.001 0.038 0.105 0.139 0.17 0.164 0.012 0.004 0.021 0.012 0.021 0.017 0 0.023 0.032-0.025 0.036-0.053zM18.875 22.544c0.038-0.013 0.048-0.026 0.066-0.083 0.005-0.017 0.017-0.039 0.027-0.050 0.056-0.062 0.089-0.139 0.073-0.168-0.011-0.020-0.062-0.046-0.091-0.046-0.012 0-0.035 0.009-0.052 0.020-0.025 0.017-0.035 0.019-0.068 0.015-0.048-0.006-0.084 0.010-0.11 0.049-0.015 0.023-0.017 0.033-0.014 0.069 0.009 0.090 0.018 0.142 0.028 0.163 0.020 0.042 0.073 0.054 0.14 0.031zM15.31 22.414c0.032-0.006 0.034-0.009 0.026-0.046-0.004-0.017-0.009-0.047-0.012-0.067l-0.005-0.037-0.030 0.023c-0.039 0.031-0.091 0.053-0.138 0.059l-0.038 0.005 0.033 0.035c0.018 0.019 0.038 0.046 0.043 0.059l0.010 0.024 0.042-0.025c0.023-0.014 0.054-0.028 0.068-0.030zM15.153 22.226c0.028-0.008 0.084-0.048 0.084-0.059 0-0.003-0.020-0.016-0.044-0.028-0.097-0.051-0.181-0.137-0.191-0.197-0.005-0.032-0.010-0.035-0.028-0.015s-0.044 0.143-0.033 0.155c0.007 0.007 0.005 0.008-0.005 0.004s-0.013-0.002-0.009 0.012c0.032 0.103 0.127 0.157 0.226 0.127zM18.942 22.175c0.032-0.016 0.047-0.031 0.066-0.063 0.023-0.039 0.025-0.046 0.023-0.096-0.003-0.064-0.025-0.105-0.076-0.139-0.028-0.019-0.039-0.021-0.094-0.021s-0.066 0.002-0.094 0.021c-0.051 0.034-0.073 0.075-0.076 0.139-0.002 0.050-0.001 0.057 0.023 0.096 0.032 0.053 0.087 0.085 0.148 0.085 0.029 0 0.052-0.006 0.081-0.021zM19.591 22.151c0-0.008-0.011-0.031-0.025-0.052-0.061-0.091-0.187-0.106-0.265-0.031-0.042 0.041-0.043 0.053-0.001 0.024 0.086-0.058 0.209-0.036 0.262 0.046 0.020 0.030 0.029 0.034 0.029 0.013zM9.357 22.033c-0.309-0.329-0.561-0.628-0.792-0.939-0.423-0.569-0.721-1.054-1.039-1.69-0.053-0.106-0.077-0.147-0.087-0.148-0.007-0-0.065-0.015-0.128-0.034s-0.116-0.033-0.116-0.032c-0.007 0.007 0.223 0.471 0.34 0.686 0.268 0.491 0.492 0.843 0.81 1.275 0.135 0.183 0.184 0.245 0.299 0.372 0.042 0.047 0.123 0.145 0.179 0.216 0.111 0.141 0.201 0.247 0.277 0.327 0.044 0.046 0.053 0.052 0.093 0.060 0.066 0.013 0.138 0.021 0.21 0.022l0.064 0.001zM15.271 22.109c0.002-0.006-0.008-0.026-0.022-0.045-0.024-0.031-0.039-0.073-0.055-0.152-0.003-0.014-0.012-0.023-0.028-0.029-0.033-0.012-0.073-0.011-0.078 0.002-0.009 0.023-0.014 0.081-0.008 0.090 0.003 0.006 0.007 0.015 0.008 0.021 0.002 0.016 0.046 0.051 0.11 0.089 0.063 0.038 0.068 0.039 0.074 0.024zM25.275 21.893c0.36-0.409 0.637-0.772 0.925-1.21 0.085-0.13 0.238-0.372 0.257-0.408 0.006-0.012-0.002-0.023-0.052-0.068l-0.060-0.054-0.072 0.116c-0.094 0.153-0.268 0.415-0.375 0.568-0.236 0.336-0.448 0.603-0.745 0.94l-0.107 0.121 0.074 0.17 0.023-0.026c0.013-0.014 0.071-0.081 0.13-0.148zM19.906 21.994c0.028-0.046 0.076-0.073 0.142-0.080l0.052-0.005-0.025-0.024c-0.039-0.038-0.115-0.044-0.157-0.012-0.040 0.029-0.063 0.101-0.046 0.144 0.007 0.018 0.013 0.015 0.035-0.022zM20.676 21.871c0.014-0.020 0.041-0.044 0.064-0.057l0.040-0.023-0.027-0.013c-0.051-0.024-0.116 0.004-0.125 0.055-0.005 0.025 0.008 0.072 0.019 0.072 0.003 0 0.016-0.015 0.029-0.034zM19.522 21.863c0-0.006 0.009-0.014 0.021-0.016s0.035-0.013 0.052-0.023c0.017-0.010 0.037-0.017 0.045-0.016 0.018 0.002 0.040-0.061 0.047-0.133 0.005-0.047 0.004-0.052-0.020-0.087-0.048-0.071-0.139-0.113-0.212-0.096s-0.163 0.097-0.175 0.157c-0.015 0.082 0.014 0.154 0.078 0.191 0.042 0.025 0.070 0.032 0.124 0.033 0.031 0.001 0.040-0.002 0.040-0.011zM20.165 21.652c0.080-0.036 0.13-0.113 0.13-0.199 0-0.028-0.004-0.062-0.009-0.076-0.012-0.035-0.047-0.086-0.069-0.1l-0.018-0.012 0.003 0.084c0.003 0.098-0.009 0.194-0.030 0.242-0.025 0.057-0.032 0.061-0.095 0.061-0.058 0-0.076-0.009-0.071-0.036 0.002-0.012 0.009-0.013 0.054-0.011 0.049 0.003 0.051 0.002 0.062-0.019 0.015-0.030 0.026-0.095 0.032-0.199l0.005-0.086-0.031-0.008c-0.032-0.009-0.060-0.038-0.050-0.054 0.009-0.014-0.041-0.001-0.084 0.022-0.039 0.021-0.081 0.070-0.113 0.131-0.023 0.044-0.024 0.12-0.003 0.161 0.027 0.051 0.074 0.092 0.127 0.108 0.040 0.012 0.125 0.007 0.161-0.009zM20.831 21.452c0.068-0.029 0.122-0.105 0.122-0.171 0-0.035-0.019-0.098-0.034-0.11-0.008-0.006-0.011-0-0.015 0.028-0.003 0.020-0.014 0.064-0.025 0.097-0.018 0.054-0.027 0.067-0.078 0.121-0.057 0.059-0.057 0.060-0.032 0.055 0.014-0.003 0.041-0.011 0.060-0.020zM20.694 21.449c0.035-0.023 0.108-0.098 0.122-0.125 0.023-0.045 0.039-0.111 0.039-0.164v-0.051l-0.029-0.013c-0.017-0.008-0.049-0.013-0.080-0.013-0.095 0-0.177 0.061-0.197 0.147-0.018 0.076 0.021 0.172 0.087 0.212 0.038 0.023 0.035 0.022 0.059 0.007zM21.479 21.331c-0.015-0.017-0.030-0.040-0.032-0.052s-0.006-0.026-0.008-0.031c-0.012-0.038 0.067-0.188 0.116-0.22 0.029-0.019 0.014-0.028-0.055-0.029-0.075-0.002-0.124 0.012-0.164 0.046-0.081 0.070-0.086 0.175-0.013 0.253 0.038 0.040 0.086 0.059 0.157 0.062l0.026 0.001zM20.165 21.247c-0.006-0.004-0.015-0.007-0.019-0.007s-0.003 0.003 0.004 0.007c0.006 0.004 0.015 0.007 0.019 0.007s0.003-0.003-0.004-0.007zM21.658 20.933c0.025 0.006 0.052 0.007 0.075 0.003 0.036-0.006 0.036-0.006-0.033-0.014-0.078-0.009-0.132-0.002-0.117 0.016 0.007 0.008 0.011 0.008 0.022-0.002s0.019-0.011 0.053-0.003zM21.495 20.936c-0.003-0.003-0.009-0.003-0.015-0.001s-0.004 0.004 0.005 0.005c0.008 0 0.013-0.002 0.010-0.004zM26.544 20.135c0.052-0.091 0.208-0.382 0.258-0.482l0.060-0.121-0.055 0.059c-0.030 0.033-0.121 0.127-0.202 0.209-0.112 0.114-0.153 0.162-0.175 0.202l-0.029 0.052 0.057 0.052c0.031 0.029 0.060 0.053 0.064 0.053s0.014-0.011 0.022-0.025zM25.524 19.425c0.041-0.021 0.087-0.064 0.099-0.092 0.008-0.019 0.007-0.026-0.003-0.042-0.015-0.023-0.033-0.024-0.103-0.005-0.064 0.018-0.098 0.035-0.108 0.054-0.013 0.025-0.009 0.058 0.009 0.075 0.032 0.029 0.062 0.032 0.106 0.010zM25.206 19.188c0.044-0.030 0.080-0.055 0.080-0.057s-0.002-0.009-0.005-0.015c-0.004-0.010-0.010-0.008-0.034 0.014-0.049 0.044-0.098 0.068-0.172 0.085l-0.023 0.005 0.023 0.010c0.013 0.006 0.029 0.011 0.037 0.011s0.050-0.024 0.094-0.053zM25.786 19.165c0.032-0.025 0.065-0.056 0.074-0.069s0.030-0.034 0.046-0.047l0.029-0.024 0.007 0.020c0.009 0.025 0.043 0.039 0.066 0.028 0.009-0.004 0.039-0.024 0.065-0.044s0.073-0.048 0.102-0.062c0.029-0.014 0.058-0.032 0.063-0.039 0.015-0.020 0.011-0.057-0.007-0.076-0.029-0.031-0.066-0.024-0.18 0.031-0.094 0.046-0.101 0.051-0.11 0.077s-0.010 0.027-0.023 0.016c-0.007-0.007-0.022-0.012-0.034-0.012-0.036 0-0.115 0.037-0.164 0.077-0.074 0.060-0.089 0.105-0.048 0.146 0.012 0.012 0.029 0.022 0.038 0.022s0.041-0.021 0.073-0.046zM25.564 19.122c0.040-0.020 0.058-0.041 0.103-0.117 0.040-0.068 0.042-0.073 0.032-0.092-0.006-0.011-0.020-0.023-0.031-0.027-0.017-0.006-0.026-0.002-0.061 0.026-0.047 0.037-0.069 0.064-0.097 0.119-0.011 0.021-0.028 0.048-0.038 0.061-0.018 0.021-0.018 0.023-0.005 0.032 0.019 0.014 0.068 0.013 0.097-0.002zM8.73 19.073c0.561-0.031 1.106-0.155 1.67-0.379 0.284-0.113 0.608-0.271 0.918-0.449 0.21-0.121 0.225-0.13 0.227-0.154 0.001-0.011 0.030-0.066 0.064-0.122 0.238-0.393 0.383-0.815 0.432-1.262 0.017-0.158 0.017-0.472-0-0.634-0.035-0.321-0.114-0.655-0.223-0.944-0.104-0.275-0.185-0.615-0.229-0.958-0.041-0.318-0.054-0.793-0.032-1.171 0.023-0.388 0.052-0.683 0.089-0.904l0.016-0.092-0.028-0.065c-0.016-0.036-0.057-0.124-0.092-0.197-0.053-0.111-0.067-0.133-0.085-0.14-0.050-0.019-0.1-0.048-0.128-0.075-0.044-0.042-0.12-0.159-0.14-0.215-0.019-0.055-0.024-0.15-0.010-0.2 0.007-0.027 0.006-0.032-0.040-0.103-0.026-0.041-0.068-0.105-0.092-0.142l-0.045-0.067h-0.035c-0.041 0-0.136-0.030-0.177-0.056-0.042-0.027-0.092-0.085-0.114-0.132-0.025-0.055-0.032-0.144-0.015-0.198 0.014-0.044 0.027-0.023-0.113-0.174l-0.091-0.098h-0.036c-0.174 0-0.315-0.112-0.347-0.276l-0.010-0.049-0.164-0.11-0.036 0.016c-0.105 0.046-0.294 0.011-0.398-0.074-0.039-0.032-0.083-0.095-0.107-0.154l-0.018-0.046-0.071-0.021c-0.039-0.012-0.091-0.025-0.114-0.029l-0.043-0.009-0.036 0.035c-0.087 0.084-0.243 0.113-0.366 0.066-0.051-0.019-0.119-0.078-0.149-0.128l-0.020-0.034-0.094 0.005c-0.052 0.003-0.119 0.008-0.15 0.010l-0.056 0.005-0.004 0.046c-0.008 0.095-0.067 0.155-0.17 0.172-0.064 0.011-0.145 0.005-0.19-0.013-0.017-0.007-0.032-0.011-0.034-0.009-0.007 0.008-0.142 0.266-0.206 0.394-0.509 1.018-0.862 2.163-1.011 3.279-0.045 0.336-0.075 0.665-0.089 0.964-0.010 0.216-0.005 0.966 0.008 1.14 0.063 0.862 0.196 1.6 0.432 2.4 0.098 0.33 0.261 0.778 0.412 1.131 0.037 0.086 0.040 0.090 0.066 0.097 0.387 0.101 0.852 0.146 1.272 0.123zM25.475 18.994c0.015-0.029 0.046-0.070 0.067-0.091l0.039-0.038-0.033 0.004c-0.046 0.006-0.098 0.041-0.122 0.081l-0.020 0.034 0.037-0.010-0.017 0.013c-0.018 0.013-0.024 0.054-0.012 0.084 0.004 0.012 0.007 0.011 0.019-0.005 0.008-0.010 0.027-0.042 0.042-0.071zM7.248 18.79c-0.257-0.619-0.452-1.243-0.595-1.913-0.093-0.435-0.164-0.932-0.203-1.427-0.033-0.42-0.033-1.153-0-1.569 0.056-0.699 0.16-1.318 0.33-1.959 0.197-0.744 0.48-1.483 0.824-2.147 0.064-0.123 0.077-0.154 0.063-0.145-0.086 0.056-0.185 0.099-0.231 0.099-0.016 0-0.028 0.019-0.103 0.174-0.162 0.334-0.253 0.538-0.364 0.825-0.445 1.148-0.68 2.268-0.741 3.529-0.010 0.206-0.005 0.821 0.008 1.052 0.039 0.675 0.142 1.357 0.303 2.002 0.136 0.543 0.25 0.897 0.479 1.479 0.014 0.035 0.019 0.040 0.037 0.040 0.012 0 0.069 0.017 0.127 0.037s0.107 0.035 0.108 0.032c0.001-0.003-0.017-0.052-0.041-0.108zM26.437 18.827c0.013-0.009 0.049-0.037 0.078-0.061 0.074-0.060 0.087-0.092 0.056-0.131-0.025-0.032-0.062-0.028-0.117 0.015-0.025 0.019-0.053 0.034-0.063 0.034-0.017 0-0.057 0.048-0.068 0.082-0.006 0.018 0.007 0.056 0.024 0.069 0.020 0.015 0.062 0.011 0.089-0.007zM26.143 18.768c0.106-0.052 0.132-0.081 0.132-0.146 0-0.022-0.002-0.041-0.004-0.044-0.008-0.008-0.071 0.038-0.129 0.094l-0.059 0.056-0.064-0c-0.035-0-0.084-0.005-0.109-0.011s-0.047-0.009-0.049-0.008c-0.002 0.002 0.003 0.015 0.012 0.028 0.015 0.026 0.078 0.065 0.121 0.075 0.034 0.008 0.052 0.002 0.15-0.045zM26.948 18.689c0.036-0.024 0.072-0.095 0.061-0.122-0.009-0.024-0.031-0.032-0.073-0.026-0.089 0.013-0.135 0.103-0.076 0.15 0.026 0.020 0.055 0.019 0.087-0.002zM26.113 18.633c0.027-0.028 0.066-0.061 0.086-0.073s0.036-0.026 0.036-0.029c0-0.009-0.070-0.052-0.107-0.065-0.018-0.006-0.053-0.012-0.076-0.012-0.062 0-0.089 0.021-0.141 0.109-0.023 0.039-0.043 0.076-0.045 0.082-0.005 0.015 0.083 0.036 0.151 0.038l0.046 0.001 0.050-0.050zM26.725 18.548c0.072-0.024 0.15-0.073 0.174-0.109 0.017-0.026 0.024-0.089 0.013-0.119-0.007-0.018-0.013-0.015-0.029 0.013-0.028 0.048-0.083 0.114-0.107 0.129-0.017 0.010-0.038 0.015-0.071 0.015-0.026 0-0.078 0.002-0.117 0.005l-0.070 0.005 0.029 0.030c0.054 0.056 0.086 0.062 0.178 0.031zM27.332 18.519c0.025-0.023 0.027-0.062 0.005-0.091-0.024-0.030-0.122-0.076-0.172-0.080-0.038-0.003-0.043-0.002-0.065 0.020-0.013 0.013-0.023 0.031-0.023 0.040 0 0.022 0.045 0.063 0.108 0.101 0.061 0.036 0.115 0.040 0.147 0.010zM26.515 18.427c0.017-0.013 0.042-0.015 0.042-0.004 0 0.005 0.036 0.008 0.093 0.008h0.093l0.028-0.029c0.015-0.016 0.044-0.054 0.064-0.085 0.034-0.052 0.036-0.057 0.027-0.078-0.005-0.013-0.022-0.032-0.036-0.043-0.026-0.020-0.031-0.021-0.112-0.020-0.063 0-0.094 0.004-0.121 0.014-0.043 0.016-0.086 0.062-0.097 0.102-0.009 0.034-0.011 0.148-0.002 0.148 0.003 0 0.013-0.005 0.021-0.011zM27.418 18.327c0.045-0.027 0.066-0.059 0.070-0.108 0.003-0.035 0-0.046-0.017-0.071-0.011-0.017-0.020-0.038-0.020-0.048 0-0.047-0.053-0.098-0.102-0.098-0.033 0-0.072 0.022-0.089 0.050-0.034 0.055-0.068 0.195-0.047 0.195 0.005 0 0.010-0.003 0.013-0.008s0.039-0.008 0.084-0.008h0.079l0.017-0.023c0.020-0.028 0.048-0.029 0.052-0.001 0.002 0.012-0.006 0.026-0.024 0.044-0.026 0.026-0.028 0.027-0.091 0.027-0.040 0-0.068 0.004-0.073 0.009-0.007 0.007-0.014 0.005-0.033-0.008l-0.024-0.017 0.011 0.022c0.037 0.070 0.117 0.089 0.193 0.045zM23.351 18.083c0.332-0.063 0.691-0.229 1.072-0.496 0.098-0.069 0.125-0.092 0.145-0.124 0.014-0.022 0.033-0.049 0.042-0.061 0.016-0.020 0.016-0.023 0.006-0.048-0.006-0.015-0.011-0.039-0.011-0.055 0-0.050 0.024-0.158 0.046-0.206 0.029-0.064 0.148-0.208 0.195-0.237 0.034-0.021 0.044-0.023 0.104-0.024l0.067-0.001 0.060-0.072c0.033-0.040 0.071-0.077 0.083-0.083 0.073-0.037 0.078-0.042 0.082-0.090 0.005-0.059 0.042-0.13 0.095-0.186 0.057-0.060 0.103-0.083 0.181-0.092 0.035-0.004 0.077-0.011 0.093-0.016s0.051-0.007 0.076-0.005l0.046 0.003 0.137-0.11 0.002-0.060c0.001-0.037 0.008-0.077 0.018-0.104 0.056-0.156 0.222-0.268 0.351-0.236 0.034 0.009 0.036 0.008 0.058-0.013 0.012-0.012 0.047-0.050 0.077-0.085 0.053-0.062 0.054-0.065 0.057-0.111 0.005-0.080 0.030-0.15 0.1-0.275 0.023-0.041 0.057-0.092 0.075-0.112 0.038-0.043 0.114-0.085 0.153-0.085 0.025 0 0.026-0.001 0.091-0.133l0.066-0.133-0.013-0.045c-0.022-0.075-0.004-0.276 0.035-0.403 0.020-0.063 0.073-0.136 0.126-0.171 0.021-0.014 0.044-0.030 0.052-0.035 0.009-0.007 0.018-0.037 0.030-0.103l0.016-0.093-0.019-0.025c-0.060-0.080-0.083-0.205-0.068-0.362 0.009-0.093 0.030-0.152 0.070-0.197l0.030-0.034-0.008-0.156c-0.005-0.098-0.006-0.256-0.002-0.424 0.003-0.147 0.007-0.421 0.008-0.609 0.003-0.565 0.005-0.593 0.053-0.702l0.018-0.040-0.050-0.147c-0.106-0.311-0.268-0.725-0.394-1.004-0.116-0.258-0.37-0.747-0.52-0.999l-0.052-0.088-0.183-0.064c-0.811-0.285-1.282-0.419-1.72-0.49-0.076-0.012-0.166-0.030-0.2-0.039-0.134-0.035-0.305-0.111-0.456-0.203-0.039-0.024-0.12-0.067-0.179-0.097-0.358-0.179-0.648-0.389-0.918-0.663-0.061-0.062-0.145-0.144-0.186-0.182s-0.094-0.095-0.118-0.127c-0.045-0.061-0.106-0.173-0.123-0.225-0.005-0.017-0.019-0.048-0.031-0.069-0.038-0.068-0.061-0.15-0.060-0.212 0.001-0.030 0.001-0.074 0.001-0.098-0.001-0.061-0.041-0.21-0.078-0.288-0.063-0.132-0.082-0.208-0.103-0.404-0.030-0.273-0.060-0.364-0.149-0.454-0.087-0.089-0.177-0.109-0.235-0.054-0.033 0.032-0.064 0.092-0.128 0.249-0.055 0.137-0.097 0.222-0.151 0.312-0.020 0.034-0.047 0.089-0.058 0.122-0.019 0.055-0.021 0.071-0.021 0.165 0 0.122 0.015 0.183 0.068 0.289 0.038 0.076 0.112 0.29 0.13 0.378 0.021 0.103 0.029 0.237 0.020 0.34-0.014 0.167-0.036 0.24-0.088 0.3-0.077 0.088-0.161 0.083-0.26-0.017-0.111-0.111-0.216-0.321-0.344-0.682-0.073-0.207-0.195-0.592-0.204-0.647-0.012-0.070-0.012-0.242 0-0.325 0.018-0.121 0.070-0.301 0.129-0.448 0.072-0.179 0.219-0.465 0.347-0.677 0.033-0.054 0.060-0.101 0.060-0.103-0-0.007-0.293-0.114-0.517-0.19-0.467-0.157-1.066-0.307-1.556-0.389-1.091-0.182-2.147-0.199-3.232-0.050-1.198 0.164-2.384 0.542-3.445 1.098-0.453 0.237-0.809 0.454-1.212 0.737-0.224 0.157-0.599 0.443-0.592 0.451 0.005 0.005 0.319 0.018 0.652 0.026 0.561 0.014 1.011-0.008 1.362-0.066 0.367-0.061 0.649-0.17 0.819-0.317 0.12-0.103 0.314-0.348 0.431-0.543 0.109-0.182 0.316-0.606 0.357-0.732 0.008-0.024 0.024-0.049 0.043-0.068 0.017-0.016 0.031-0.032 0.031-0.035 0-0.009 0.089-0.068 0.133-0.089 0.152-0.070 0.268 0.012 0.311 0.219 0.026 0.124 0.035 0.286 0.024 0.445-0.017 0.251-0.055 0.435-0.154 0.733-0.059 0.179-0.060 0.18-0.056 0.245 0.013 0.231-0.173 0.636-0.382 0.831-0.043 0.040-0.058 0.062-0.117 0.176-0.079 0.152-0.162 0.297-0.217 0.381-0.022 0.033-0.044 0.074-0.049 0.092-0.011 0.038-0.049 0.077-0.106 0.111-0.023 0.014-0.059 0.037-0.079 0.051-0.028 0.020-0.045 0.027-0.068 0.027-0.031 0-0.084 0.029-0.256 0.142-0.077 0.051-0.167 0.096-0.232 0.117-0.080 0.026-0.234 0.060-0.333 0.074-0.075 0.010-0.287 0.064-0.313 0.079-0.004 0.002 0.008 0.013 0.027 0.025s0.067 0.042 0.107 0.068l0.074 0.047 0.034-0.009c0.038-0.010 0.117-0.001 0.186 0.021 0.108 0.034 0.185 0.141 0.178 0.247l-0.003 0.037 0.098 0.087c0.14 0.124 0.124 0.114 0.173 0.105s0.095-0 0.144 0.029c0.027 0.016 0.041 0.032 0.075 0.086 0.001 0.001 0.044-0.034 0.096-0.079 0.497-0.431 1.113-0.738 1.845-0.919 1.399-0.346 2.719-0.262 3.854 0.246 0.753 0.337 1.417 0.861 1.89 1.494 0.063 0.085 0.423 0.639 0.435 0.671 0.002 0.006 0.039 0.020 0.082 0.031 0.096 0.025 0.213 0.081 0.293 0.141 0.127 0.095 0.258 0.223 0.315 0.309 0.011 0.016 0.024 0.029 0.030 0.029 0.022 0 0.055 0.023 0.072 0.051s0.017 0.028 0.003 0.038c-0.008 0.006-0.017 0.010-0.021 0.010s0.004 0.019 0.017 0.043c0.139 0.246 0.368 0.944 0.466 1.419 0.027 0.129 0.056 0.316 0.075 0.478 0.020 0.166 0.019 0.655-0 0.819-0.047 0.391-0.164 0.876-0.278 1.156-0.095 0.232-0.189 0.39-0.317 0.532-0.145 0.16-0.28 0.256-0.42 0.299-0.050 0.015-0.058 0.027-0.069 0.108-0.026 0.181 0.073 0.708 0.194 1.040 0.068 0.187 0.212 0.461 0.342 0.655 0.179 0.265 0.395 0.407 0.684 0.448 0.090 0.013 0.312 0.003 0.426-0.018zM27.543 17.803c0.074-0.242 0.1-0.349 0.095-0.392-0.004-0.039-0.006-0.041-0.054-0.077-0.027-0.020-0.052-0.034-0.055-0.031s-0.024 0.075-0.046 0.158c-0.022 0.084-0.059 0.214-0.081 0.291s-0.040 0.14-0.039 0.141c0.001 0.001 0.021 0.005 0.044 0.009s0.053 0.012 0.068 0.018c0.015 0.006 0.027 0.011 0.028 0.010s0.019-0.058 0.040-0.127zM28.355 17.007c0.013-0.017 0.023-0.030 0.021-0.030s-0.017 0.016-0.033 0.036c-0.016 0.020-0.026 0.034-0.021 0.030s0.020-0.019 0.033-0.036zM28.417 16.618c0.224-0.296 0.435-0.635 0.569-0.914 0.082-0.171 0.175-0.478 0.233-0.767 0.022-0.109 0.029-0.126 0.055-0.136 0.010-0.004 0.076-0.487 0.103-0.752 0.024-0.239 0.034-0.357 0.045-0.528 0.102-1.521-0.094-2.763-0.583-3.708-0.084-0.162-0.101-0.187-0.204-0.298-0.047-0.051-0.094-0.107-0.104-0.125-0.047-0.082-0.088-0.145-0.121-0.185-0.057-0.069-0.39-0.376-0.453-0.418-0.031-0.021-0.093-0.052-0.138-0.069-0.093-0.036-0.17-0.074-0.282-0.138-0.105-0.060-0.17-0.085-0.285-0.109-0.053-0.011-0.171-0.039-0.263-0.062-0.116-0.029-0.205-0.047-0.293-0.057-0.132-0.016-0.375-0.056-0.532-0.089-0.135-0.028-0.408-0.057-0.644-0.069l-0.090-0.005-0.036-0.031c-0.061-0.053-0.102-0.065-0.281-0.086-0.155-0.018-0.586-0.14-0.763-0.217-0.040-0.017-0.144-0.075-0.202-0.112-0.021-0.013-0.088-0.051-0.149-0.084-0.235-0.127-0.525-0.313-0.873-0.562-0.264-0.189-0.278-0.202-0.351-0.326-0.025-0.043-0.038-0.079-0.063-0.184-0.039-0.16-0.058-0.221-0.153-0.482-0.041-0.114-0.089-0.255-0.107-0.313s-0.043-0.131-0.055-0.161c-0.018-0.042-0.024-0.073-0.030-0.139-0.009-0.115-0.022-0.158-0.084-0.287-0.029-0.061-0.067-0.152-0.085-0.202-0.044-0.126-0.074-0.189-0.138-0.289-0.030-0.048-0.061-0.095-0.067-0.105-0.074-0.118-0.233-0.185-0.384-0.162-0.066 0.010-0.122 0.033-0.23 0.093-0.093 0.052-0.136 0.086-0.17 0.136-0.013 0.020-0.052 0.065-0.085 0.101-0.099 0.106-0.181 0.243-0.181 0.301 0 0.020-0.044 0.097-0.102 0.181-0.063 0.091-0.15 0.236-0.183 0.306-0.037 0.078-0.072 0.216-0.083 0.319-0.009 0.091-0.016 0.123-0.037 0.18-0.020 0.053-0.021 0.201-0.005 0.363 0.015 0.142 0.029 0.187 0.111 0.345s0.117 0.246 0.202 0.509c0.071 0.221 0.088 0.253 0.146 0.287 0.066 0.039 0.146 0.032 0.203-0.017 0.054-0.046 0.064-0.075 0.067-0.19 0.001-0.055-0-0.123-0.004-0.152l-0.006-0.053-0.027-0.002c-0.035-0.002-0.064-0.022-0.091-0.061-0.097-0.142-0.159-0.404-0.117-0.498l0.013-0.030-0.031-0.079c-0.024-0.060-0.034-0.078-0.042-0.074-0.006 0.003-0.021 0.008-0.033 0.013-0.032 0.013-0.073-0.012-0.099-0.060-0.057-0.105-0.060-0.311-0.005-0.388 0.030-0.042 0.089-0.041 0.124 0.001 0.023 0.028 0.049 0.095 0.057 0.148l0.006 0.039 0.018-0.054c0.010-0.029 0.033-0.086 0.052-0.126 0.067-0.14 0.116-0.253 0.107-0.247-0.005 0.003-0.021 0.013-0.035 0.023-0.036 0.024-0.096 0.024-0.132 0-0.086-0.058-0.092-0.244-0.013-0.362 0.034-0.050 0.081-0.085 0.125-0.092 0.042-0.006 0.070 0.004 0.102 0.037s0.047 0.080 0.047 0.15v0.058l0.014-0.023c0.035-0.058 0.121-0.112 0.194-0.123l0.036-0.005-0.023-0.032c-0.055-0.078-0.028-0.178 0.058-0.221 0.084-0.042 0.195-0.006 0.239 0.078 0.042 0.079 0.008 0.168-0.077 0.204-0.029 0.012-0.029 0.012-0.015 0.029 0.008 0.009 0.018 0.020 0.023 0.024 0.014 0.012 0.102 0.135 0.113 0.156 0.005 0.011 0.020 0.059 0.032 0.106s0.024 0.086 0.026 0.086c0.002 0 0.010-0.016 0.017-0.037 0.035-0.098 0.124-0.109 0.166-0.021 0.042 0.086 0.049 0.238 0.016 0.342-0.015 0.048-0.045 0.091-0.069 0.099-0.009 0.003-0.007 0.013 0.009 0.053 0.011 0.027 0.030 0.101 0.043 0.164s0.032 0.139 0.042 0.168l0.018 0.054 0.061 0.004c0.051 0.003 0.069 0.009 0.116 0.033 0.167 0.088 0.308 0.304 0.308 0.472 0 0.032-0.005 0.053-0.021 0.084-0.025 0.049-0.054 0.069-0.113 0.075l-0.041 0.005 0.058 0.073c0.032 0.040 0.1 0.115 0.15 0.166l0.091 0.093 0.022-0.030c0.028-0.039 0.084-0.073 0.137-0.085 0.063-0.013 0.2-0.005 0.253 0.015 0.073 0.028 0.234 0.162 0.272 0.226s0.063 0.229 0.041 0.265c-0.008 0.012-0.007 0.017 0.004 0.029 0.018 0.020 0.017 0.060-0.001 0.070-0.019 0.010-0.037-0.004-0.045-0.037-0.009-0.036-0.022-0.042-0.075-0.035l-0.045 0.006 0.034 0.019c0.018 0.011 0.076 0.042 0.127 0.069 0.089 0.047 0.094 0.049 0.094 0.032 0-0.026 0.026-0.065 0.053-0.079 0.077-0.040 0.204-0.007 0.285 0.074 0.033 0.033 0.059 0.083 0.060 0.113 0 0.011-0.005 0.029-0.011 0.041s-0.011 0.025-0.011 0.028c0 0.007 0.112 0.047 0.19 0.068l0.056 0.015-0.014-0.021c-0.049-0.075-0.045-0.123 0.016-0.176 0.099-0.087 0.408-0.082 0.69 0.010 0.156 0.051 0.301 0.137 0.351 0.209 0.024 0.034 0.026 0.056 0.018 0.165-0.003 0.036-0.021 0.052-0.044 0.037-0.015-0.009-0.039-0.006-0.039 0.005 0 0.009 0.159 0.053 0.212 0.059 0.046 0.005 0.048 0.004 0.067-0.019 0.030-0.035 0.062-0.043 0.164-0.038 0.123 0.006 0.185 0.025 0.329 0.097 0.105 0.053 0.128 0.068 0.164 0.107 0.023 0.025 0.048 0.060 0.055 0.079 0.012 0.031 0.016 0.034 0.062 0.050 0.076 0.027 0.298 0.122 0.375 0.161 0.038 0.019 0.088 0.045 0.112 0.057 0.032 0.016 0.048 0.030 0.063 0.055 0.027 0.045 0.076 0.094 0.131 0.13 0.125 0.082 0.243 0.193 0.289 0.272 0.016 0.027 0.045 0.099 0.064 0.16s0.044 0.125 0.053 0.142c0.010 0.017 0.037 0.087 0.060 0.157 0.064 0.188 0.114 0.39 0.161 0.654 0.009 0.047 0.018 0.076 0.030 0.091l0.018 0.022 0.006-0.029c0.006-0.033-0.001-0.234-0.009-0.264-0.003-0.011-0.003-0.017 0-0.014 0.010 0.009 0.042 0.185 0.042 0.232 0 0.065-0.012 0.103-0.032 0.103-0.009 0-0.021-0.006-0.027-0.013-0.010-0.012-0.010-0.011-0.006 0.013 0.009 0.046 0.015 0.148 0.011 0.185-0.004 0.034-0.003 0.036 0.020 0.047 0.068 0.032 0.090 0.209 0.049 0.386-0.008 0.035-0.023 0.079-0.033 0.1-0.013 0.027-0.016 0.043-0.013 0.059 0.003 0.013 0.006 0.063 0.006 0.111 0.001 0.104-0.012 0.166-0.049 0.24-0.026 0.051-0.026 0.055-0.026 0.14s0 0.088 0.018 0.095c0.071 0.027 0.131 0.136 0.163 0.296 0.010 0.050 0.014 0.105 0.014 0.209 0 0.146-0.009 0.217-0.041 0.311l-0.013 0.040 0.055 0.117c0.030 0.065 0.065 0.137 0.078 0.162l0.023 0.045-0.003-0.114c-0.004-0.129 0.006-0.217 0.034-0.314 0.041-0.141 0.114-0.248 0.2-0.29 0.116-0.057 0.253 0.003 0.341 0.15 0.169 0.282 0.153 0.772-0.033 0.975-0.033 0.037-0.090 0.073-0.131 0.085-0.010 0.003-0.001 0.026 0.047 0.123 0.113 0.226 0.198 0.529 0.222 0.789 0.010 0.11 0.010 0.855 0 0.964-0.024 0.257-0.11 0.647-0.192 0.867-0.026 0.071-0.033 0.077 0.116-0.119zM28.073 12.493l-0.009-0.040-0.034 0.026c-0.049 0.037-0.078 0.041-0.129 0.016-0.101-0.049-0.165-0.233-0.155-0.445 0.007-0.144 0.041-0.247 0.101-0.302 0.081-0.075 0.172-0.038 0.234 0.095 0.042 0.090 0.056 0.162 0.055 0.295-0 0.121-0.014 0.192-0.050 0.265-0.017 0.035-0.018 0.039-0.008 0.075 0.006 0.021 0.009 0.042 0.008 0.046s-0.007-0.010-0.012-0.032zM27.996 12.414c0.012-0.013 0.024-0.030 0.026-0.038s-0.012-0.058-0.037-0.124c-0.070-0.184-0.112-0.33-0.113-0.398l-0-0.025-0.015 0.028c-0.056 0.106-0.054 0.353 0.004 0.484 0.041 0.092 0.091 0.119 0.135 0.073zM28.060 12.139c0-0.108-0.002-0.144-0.013-0.184-0.024-0.084-0.062-0.149-0.099-0.169-0.010-0.006-0.012-0.005-0.009 0.005s0.001 0.010-0.008 0.007c-0.019-0.007-0.016 0.028 0.011 0.128 0.025 0.093 0.087 0.332 0.096 0.37l0.006 0.023 0.008-0.023c0.004-0.013 0.008-0.083 0.009-0.157zM24.050 8.245c-0.013-0.007-0.029-0.018-0.037-0.025s-0.037-0.028-0.065-0.047c-0.059-0.040-0.086-0.075-0.086-0.114 0-0.031 0.022-0.072 0.046-0.085 0.068-0.036 0.217 0.033 0.277 0.128 0.017 0.028 0.021 0.083 0.007 0.109-0.022 0.042-0.094 0.059-0.142 0.034zM22.894 7.425c-0.036-0.022-0.117-0.113-0.138-0.154-0.025-0.050-0.025-0.099 0.001-0.099 0.015 0 0.013-0.013-0.003-0.022-0.010-0.006-0.004-0.008 0.029-0.008 0.052-0 0.102 0.026 0.163 0.086 0.050 0.049 0.070 0.089 0.071 0.139 0 0.031-0.003 0.040-0.021 0.056-0.026 0.023-0.068 0.024-0.101 0.004zM22.24 6.515c-0.013-0.013-0.025-0.037-0.031-0.063-0.005-0.023-0.018-0.062-0.028-0.086-0.026-0.064-0.023-0.108 0.012-0.134 0.020-0.015 0.065-0.011 0.093 0.008 0.057 0.038 0.099 0.169 0.076 0.238-0.019 0.058-0.082 0.078-0.122 0.037zM21.913 5.488c-0.032-0.019-0.048-0.052-0.048-0.095 0-0.069 0.073-0.105 0.136-0.066 0.030 0.019 0.055 0.058 0.055 0.087 0 0.027-0.018 0.062-0.040 0.078-0.023 0.016-0.074 0.015-0.103-0.003zM28.246 13.905c0.058-0.027 0.114-0.111 0.15-0.225 0.050-0.158 0.047-0.405-0.007-0.566-0.024-0.073-0.051-0.125-0.061-0.121-0.006 0.002-0.033-0.010-0.060-0.026-0.083-0.050-0.146-0.049-0.204 0.003-0.052 0.047-0.066 0.113-0.074 0.332-0.004 0.12-0.003 0.143 0.012 0.217 0.035 0.171 0.055 0.225 0.115 0.321 0.063 0.099 0.059 0.097 0.128 0.065zM27.96 13.558c-0.017-0.057-0.030-0.124-0.035-0.176-0.008-0.079-0.005-0.274 0.005-0.318 0.002-0.011-0.003 0.001-0.011 0.026-0.035 0.105-0.045 0.29-0.024 0.418 0.010 0.062 0.013 0.067 0.049 0.105 0.021 0.022 0.039 0.039 0.040 0.038s-0.010-0.043-0.025-0.094zM27.633 12.999c0.015-0.089 0.015-0.258 0-0.348-0.018-0.11-0.052-0.199-0.091-0.235l-0.019-0.018-0.006 0.115c-0.006 0.134 0 0.268 0.017 0.334 0.013 0.052 0.080 0.228 0.084 0.223 0.002-0.002 0.008-0.034 0.014-0.071zM28.094 12.867c0.034-0.011 0.065-0.011 0.114 0.002 0.022 0.006 0.040 0.009 0.040 0.007 0-0.009-0.084-0.040-0.108-0.041-0.039-0-0.1 0.033-0.13 0.070l-0.026 0.032 0.042-0.031c0.023-0.017 0.053-0.035 0.068-0.040zM27.574 11.308c-0.008-0.040-0.018-0.056-0.029-0.046-0.003 0.003 0.003 0.034 0.012 0.069s0.017 0.074 0.018 0.086c0.001 0.012 0.003 0.002 0.004-0.023s-0.001-0.063-0.006-0.086zM27.349 11.214c0.020-0.043 0.036-0.086 0.036-0.101 0.001-0.046-0.183-0.52-0.334-0.861-0.105-0.239-0.243-0.515-0.275-0.554-0.015-0.018-0.028-0.039-0.028-0.047s-0.005-0.019-0.011-0.025c-0.006-0.006-0.009-0.013-0.007-0.015 0.011-0.011-0.044-0.092-0.107-0.157-0.067-0.069-0.197-0.178-0.213-0.178-0.004 0 0 0.013 0.009 0.029 0.036 0.060 0.192 0.348 0.262 0.484 0.205 0.396 0.404 0.859 0.569 1.33 0.033 0.094 0.061 0.17 0.061 0.17s0.017-0.034 0.037-0.075zM7.333 9.572c0.076-0.020 0.137-0.060 0.222-0.145 0.052-0.052 0.171-0.138 0.44-0.316 0.182-0.121 0.555-0.393 0.839-0.612 0.226-0.174 0.24-0.182 0.499-0.269 0.258-0.086 0.439-0.136 0.961-0.259l0.151-0.036 0.21 0.001c0.203 0.001 0.282 0.006 0.38 0.023l0.046 0.008 0.029-0.026c0.109-0.098 0.355-0.211 0.565-0.258 0.099-0.023 0.227-0.028 0.275-0.012 0.093 0.031 0.102 0.105 0.022 0.185-0.050 0.050-0.095 0.081-0.199 0.135-0.046 0.024-0.079 0.044-0.072 0.044s0.052 0.005 0.102 0.011c0.049 0.006 0.125 0.013 0.168 0.016s0.095 0.006 0.115 0.008c0.035 0.004 0.036 0.003 0.029-0.011-0.004-0.008-0.008-0.036-0.008-0.061 0-0.038 0.005-0.056 0.032-0.11s0.045-0.078 0.121-0.152c0.155-0.154 0.352-0.269 0.54-0.314 0.259-0.062 0.376 0.068 0.245 0.273-0.022 0.034-0.027 0.049-0.027 0.083 0 0.032-0.004 0.046-0.015 0.057-0.008 0.008-0.019 0.015-0.023 0.015s-0.013 0.011-0.020 0.025c-0.007 0.014-0.033 0.048-0.058 0.077s-0.043 0.052-0.040 0.052c0.007 0 0.263-0.126 0.278-0.136 0.009-0.006 0.008-0.011-0.005-0.029-0.022-0.031-0.033-0.075-0.033-0.135-0-0.055 0.011-0.089 0.040-0.13 0.010-0.014 0.026-0.044 0.036-0.067 0.096-0.234 0.322-0.508 0.457-0.555 0.028-0.010 0.029-0.011 0.038-0.062 0.005-0.029 0.007-0.055 0.006-0.058-0.006-0.011 0.014-0.108 0.031-0.147 0.030-0.068 0.182-0.316 0.242-0.395 0.014-0.019 0.025-0.051 0.037-0.107 0.054-0.252 0.211-0.611 0.315-0.72 0.081-0.085 0.137-0.068 0.152 0.045l0.006 0.044 0.011-0.077c0.017-0.115 0.015-0.364-0.003-0.448-0.023-0.106-0.057-0.191-0.079-0.2-0.043-0.016-0.114-0.003-0.151 0.030-0.015 0.013-0.078 0.14-0.121 0.242-0.012 0.029-0.041 0.077-0.063 0.107-0.024 0.032-0.055 0.086-0.073 0.13-0.145 0.342-0.329 0.633-0.524 0.827-0.134 0.133-0.277 0.225-0.444 0.286-0.034 0.012-0.092 0.035-0.13 0.050s-0.107 0.042-0.153 0.060l-0.084 0.032-0.243 0.003c-0.176 0.002-0.285-0-0.394-0.009-0.121-0.010-0.274-0.012-0.761-0.012l-0.61 0 0.016 0.032c0.021 0.043 0.020 0.076-0.005 0.105-0.011 0.013-0.021 0.030-0.024 0.038-0.005 0.016-0.010 0.016-0.046 0.002-0.049-0.019-0.079-0.098-0.055-0.146 0.010-0.020 0.010-0.024 0.001-0.024-0.052 0-0.47 0.043-0.539 0.055-0.048 0.009-0.102 0.018-0.119 0.021s-0.075 0.001-0.13-0.005c-0.055-0.005-0.206-0.011-0.336-0.014-0.131-0.002-0.242-0.007-0.25-0.012-0.018-0.009-0.044-0.010-0.047-0.001-0.005 0.014-0.285 0.033-0.519 0.035-0.307 0.003-0.369 0.012-0.628 0.099-0.069 0.023-0.237 0.072-0.371 0.108-0.416 0.111-0.517 0.151-0.662 0.26-0.12 0.090-0.171 0.155-0.253 0.321-0.075 0.151-0.097 0.278-0.089 0.501 0.005 0.137 0.047 0.487 0.077 0.647 0.010 0.055 0.023 0.144 0.028 0.199 0.016 0.185 0.063 0.377 0.12 0.489 0.069 0.137 0.196 0.251 0.315 0.284 0.047 0.013 0.164 0.013 0.211 0.001zM25.094 8.637c0.029-0.007 0.059-0.017 0.066-0.022 0.012-0.009 0.013-0.013 0.004-0.030-0.030-0.057-0.169-0.155-0.271-0.193-0.030-0.011-0.076-0.031-0.102-0.043l-0.047-0.023-0.274 0.005-0.090 0.034c-0.085 0.032-0.105 0.047-0.063 0.047 0.013 0 0.019 0.004 0.019 0.014 0 0.019-0.020 0.035-0.036 0.028-0.012-0.005-0.012-0.004 0 0.010 0.023 0.026 0.080 0.045 0.25 0.082 0.091 0.020 0.221 0.051 0.291 0.069 0.14 0.037 0.175 0.040 0.252 0.022zM24.27 8.358c0.013-0.008 0.064-0.029 0.115-0.047s0.090-0.033 0.089-0.034c-0.004-0.004-0.148 0.011-0.174 0.019-0.070 0.021-0.089 0.049-0.067 0.098l0.010 0.021 0.003-0.021c0.002-0.014 0.011-0.026 0.026-0.036zM23.873 8.341c0.066-0.030-0.047-0.146-0.152-0.157-0.051-0.005-0.074 0.006-0.074 0.034 0 0.034 0.016 0.046 0.112 0.090 0.050 0.023 0.091 0.041 0.092 0.042s0.010-0.004 0.021-0.008zM12.57 8.137c0.036-0.014 0.077-0.037 0.096-0.054s0.047-0.033 0.064-0.038c0.021-0.006 0.035-0.016 0.044-0.032 0.008-0.013 0.013-0.025 0.011-0.027s-0.020 0.009-0.041 0.024l-0.038 0.027-0.353-0.005-0.047-0.024c-0.054-0.027-0.063-0.024-0.063 0.023 0 0.046 0.028 0.082 0.086 0.111 0.045 0.023 0.052 0.024 0.113 0.021 0.050-0.002 0.079-0.009 0.128-0.028zM23.367 8.060l0.036-0.005-0.049-0.073c-0.074-0.11-0.113-0.144-0.234-0.202-0.057-0.027-0.123-0.056-0.147-0.064l-0.044-0.014-0.031 0.018c-0.017 0.010-0.031 0.024-0.031 0.032 0 0.017 0.151 0.135 0.301 0.237 0.123 0.083 0.123 0.083 0.199 0.072zM23.438 7.977c-0.028-0.061-0.053-0.092-0.091-0.111l-0.032-0.016 0.027 0.031c0.015 0.017 0.046 0.059 0.069 0.093 0.047 0.068 0.058 0.070 0.027 0.003zM11.571 8.001c0.142-0.051 0.293-0.136 0.35-0.198 0.033-0.036 0.037-0.045 0.022-0.054-0.074-0.046-0.389 0.024-0.615 0.137-0.074 0.037-0.152 0.091-0.14 0.098 0.006 0.003 0.066 0.011 0.133 0.018s0.129 0.014 0.138 0.015c0.040 0.006 0.060 0.003 0.112-0.016zM12.699 7.98c0.008-0.005 0.033-0.023 0.056-0.039 0.034-0.025 0.040-0.033 0.040-0.055 0-0.014 0.006-0.031 0.012-0.038 0.011-0.011 0.014-0.011 0.030-0.001 0.017 0.011 0.018 0.010 0.034-0.026 0.009-0.021 0.016-0.040 0.016-0.042s0.021-0.029 0.046-0.060c0.085-0.101 0.113-0.186 0.073-0.218-0.075-0.059-0.321 0.010-0.528 0.149-0.081 0.054-0.097 0.070-0.131 0.13-0.022 0.040-0.029 0.060-0.030 0.094-0.001 0.024-0.004 0.052-0.007 0.063-0.005 0.019-0.003 0.021 0.028 0.032 0.050 0.018 0.054 0.019 0.205 0.019 0.098 0 0.146-0.002 0.157-0.009zM12.914 7.857c0.013-0.022 0.011-0.021-0.026 0.010-0.022 0.018-0.040 0.038-0.040 0.043s-0.009 0.020-0.019 0.032c-0.011 0.013-0.019 0.026-0.019 0.029 0 0.009 0.087-0.087 0.104-0.115zM25.595 7.87c-0.347-0.438-0.873-0.985-1.32-1.372-0.416-0.361-0.771-0.63-1.206-0.915-0.227-0.148-0.621-0.387-0.672-0.406-0.011-0.004-0.014-0.003-0.011 0.005 0.002 0.006 0.017 0.047 0.032 0.091l0.028 0.080 0.105 0.061c0.148 0.086 0.26 0.156 0.477 0.299 0.628 0.414 1.144 0.834 1.676 1.366 0.24 0.24 0.39 0.401 0.596 0.643 0.070 0.082 0.136 0.159 0.146 0.171 0.017 0.019 0.030 0.024 0.1 0.036 0.044 0.008 0.087 0.015 0.094 0.015 0.010 0.001-0.003-0.021-0.045-0.074zM12.302 7.912c-0.002-0.006-0.004-0.004-0.005 0.005s0.002 0.013 0.004 0.010 0.003-0.009 0.001-0.015zM12.31 7.882c-0.002-0.006-0.004-0.004-0.005 0.005s0.002 0.013 0.004 0.010 0.003-0.009 0.001-0.015zM13.479 7.821c0.046-0.031 0.088-0.066 0.093-0.076 0.037-0.075 0.073-0.166 0.083-0.214 0.007-0.032 0.017-0.074 0.023-0.093s0.011-0.060 0.011-0.090c0-0.044 0.003-0.057 0.015-0.069 0.018-0.018 0.019-0.042 0.005-0.068-0.006-0.010-0.009-0.024-0.007-0.031s-0.005-0.028-0.016-0.047c-0.011-0.019-0.020-0.043-0.021-0.053-0.002-0.038-0.013 0.074-0.013 0.148-0 0.045-0.005 0.085-0.011 0.1-0.006 0.014-0.013 0.041-0.016 0.059-0.011 0.069-0.029 0.119-0.061 0.164-0.018 0.025-0.041 0.063-0.052 0.085-0.046 0.091-0.172 0.162-0.274 0.155l-0.038-0.003 0 0.027c0 0.015 0.003 0.032 0.007 0.038 0.011 0.018 0.068 0.030 0.13 0.028l0.057-0.002 0.084-0.057zM25.27 7.852c-0.032-0.041-0.175-0.203-0.301-0.344-0.135-0.15-0.539-0.554-0.688-0.687-0.448-0.402-0.798-0.675-1.265-0.987-0.237-0.158-0.516-0.331-0.516-0.318 0 0.008 0.16 0.53 0.207 0.677 0.070 0.216 0.126 0.301 0.34 0.516 0.247 0.248 0.567 0.489 0.964 0.728 0.284 0.171 0.529 0.281 0.747 0.336 0.077 0.019 0.506 0.109 0.527 0.11 0.006 0-0-0.013-0.015-0.031zM12.964 7.801c0.009-0.012 0.009-0.012-0.003-0.003s-0.017 0.016-0.011 0.016c0.002 0 0.008-0.006 0.013-0.013zM12.343 7.755c-0.001-0.011-0.030 0.031-0.030 0.043 0 0.007 0.006 0.002 0.015-0.013 0.008-0.014 0.015-0.028 0.015-0.031zM23.166 7.737c-0.028-0.023-0.054-0.035-0.084-0.040-0.021-0.004-0.015 0.001 0.031 0.025 0.063 0.033 0.083 0.039 0.054 0.015zM13.341 7.721c0.057-0.022 0.103-0.064 0.134-0.123 0.014-0.027 0.035-0.061 0.047-0.076 0.028-0.036 0.042-0.069 0.048-0.117 0.003-0.021 0.012-0.059 0.020-0.084 0.018-0.057 0.025-0.233 0.009-0.233-0.005 0-0.010-0.003-0.010-0.008 0-0.015-0.014-0.007-0.053 0.028-0.090 0.081-0.195 0.229-0.267 0.376-0.049 0.1-0.050 0.103-0.048 0.161 0.002 0.089 0.004 0.093 0.043 0.093 0.018 0 0.052-0.007 0.076-0.016zM13.72 7.504c-0.001-0.021-0.002-0.030-0.004-0.019-0.003 0.017-0.020 0.087-0.029 0.12-0.002 0.008 0.005-0.004 0.015-0.025 0.014-0.027 0.019-0.050 0.018-0.077zM22.467 7.212c-0.011-0.020-0.029-0.059-0.040-0.087-0.028-0.065-0.038-0.080-0.112-0.155l-0.062-0.063 0.005 0.057c0.005 0.062 0.020 0.097 0.085 0.199 0.026 0.041 0.042 0.058 0.064 0.067 0.030 0.013 0.072 0.024 0.077 0.021 0.002-0.001-0.006-0.019-0.017-0.039zM22.553 7.196c0.031-0.117-0.112-0.358-0.26-0.437-0.040-0.021-0.115-0.040-0.115-0.029 0 0.020 0.040 0.089 0.058 0.1 0.012 0.008 0.061 0.054 0.109 0.102 0.071 0.071 0.091 0.098 0.11 0.138 0.046 0.104 0.077 0.161 0.083 0.157 0.004-0.002 0.010-0.017 0.015-0.033zM13.828 7.089c0.024-0.042 0.024-0.049 0.001-0.026-0.008 0.008-0.018 0.016-0.022 0.017s-0.010 0.014-0.013 0.029c-0.008 0.037 0.007 0.028 0.035-0.020zM21.227 7.016c-0.007-0.067-0.045-0.172-0.097-0.269l-0.046-0.085-0 0.043c-0 0.085 0.058 0.268 0.108 0.336 0.030 0.041 0.041 0.034 0.035-0.025zM13.916 6.902c0.005-0.030 0.025-0.047 0.045-0.039 0.014 0.005 0.016 0.023 0.004 0.030s-0.009 0.027 0.004 0.027c0.006 0 0.012-0.003 0.012-0.006s0.025-0.034 0.056-0.068c0.034-0.038 0.070-0.089 0.094-0.133l0.038-0.072 0.004-0.299-0.017 0.023c-0.039 0.052-0.079 0.087-0.109 0.092-0.035 0.007-0.050-0.001-0.066-0.033-0.006-0.013-0.013-0.024-0.016-0.024-0.007-0-0.097 0.154-0.121 0.207-0.035 0.077-0.062 0.172-0.062 0.217 0 0.061 0.007 0.089 0.023 0.089 0.024 0 0.060 0.037 0.066 0.067l0.005 0.028 0.018-0.038c0.010-0.021 0.020-0.051 0.022-0.067zM14.064 6.914c0.017 0.010 0.14-0.205 0.191-0.334 0.024-0.060 0.058-0.182 0.052-0.187-0.002-0.002-0.016 0.028-0.033 0.066s-0.031 0.067-0.032 0.066c-0.002-0.002 0.001-0.024 0.006-0.049 0.010-0.051 0.005-0.094-0.012-0.109-0.010-0.009-0.012 0.002-0.011 0.093 0.001 0.102-0.006 0.167-0.023 0.209-0.021 0.054-0.085 0.157-0.125 0.201-0.042 0.046-0.057 0.069-0.033 0.049 0.006-0.005 0.015-0.007 0.019-0.005zM10.393 6.335c0.366-0.299 0.884-0.658 1.303-0.904 0.296-0.174 0.803-0.436 1.068-0.552 0.966-0.425 1.934-0.7 2.934-0.834 0.625-0.084 1.276-0.114 1.9-0.088 0.611 0.026 1.286 0.115 1.864 0.246 0.565 0.128 1.007 0.262 1.547 0.468l0.051 0.019 0.043-0.054c0.024-0.030 0.042-0.055 0.041-0.056-0.006-0.006-0.411-0.154-0.554-0.202-1.048-0.356-2.143-0.547-3.28-0.571-0.364-0.008-0.921 0.014-1.271 0.051-0.694 0.072-1.287 0.186-1.944 0.374-0.915 0.261-1.773 0.636-2.625 1.147-0.436 0.261-0.943 0.623-1.342 0.957l-0.106 0.089 0.076 0.004c0.042 0.002 0.097 0.005 0.124 0.006l0.048 0.002zM14.088 6.328c0-0.003-0.012-0.006-0.027-0.006-0.024 0-0.027 0.002-0.027 0.022 0 0.012 0.002 0.024 0.005 0.027 0.006 0.006 0.048-0.032 0.048-0.042zM20.93 6.311c0.024-0.094-0.006-0.288-0.045-0.288-0.025 0-0.036 0.165-0.017 0.242 0.011 0.044 0.037 0.090 0.046 0.084 0.004-0.002 0.011-0.019 0.015-0.038zM14.103 6.288c0.010-0.005 0.030-0.030 0.045-0.057 0.024-0.043 0.025-0.048 0.010-0.040-0.022 0.012-0.116 0.1-0.116 0.109 0 0.008 0.033 0.002 0.061-0.012zM14.236 6.264c0.003-0.007 0.001-0.011-0.004-0.009-0.011 0.004-0.018 0.021-0.008 0.021 0.004 0 0.010-0.005 0.012-0.012zM14.269 6.186c0.016-0.038 0.007-0.040-0.012-0.003-0.018 0.035-0.019 0.042-0.007 0.035 0.005-0.003 0.013-0.017 0.020-0.032zM14.16 6.104c0.020-0.011 0.042-0.020 0.047-0.020 0.013 0 0.032-0.038 0.070-0.142 0.064-0.175 0.104-0.343 0.1-0.419l-0.002-0.040-0.040 0.054c-0.078 0.104-0.183 0.336-0.243 0.534-0.015 0.050-0.027 0.092-0.027 0.094s0.013-0.006 0.029-0.019c0.016-0.013 0.046-0.032 0.066-0.043zM22.028 6.109c0.015-0.032 0.017-0.049 0.017-0.144s-0.002-0.112-0.017-0.144c-0.009-0.020-0.020-0.035-0.024-0.032-0.027 0.017-0.048 0.179-0.033 0.258 0.009 0.045 0.028 0.098 0.036 0.098 0.003 0 0.012-0.016 0.021-0.036zM14.317 6.058c0-0.004-0.003-0.003-0.007 0.004s-0.007 0.015-0.007 0.019c0 0.004 0.003 0.003 0.007-0.004s0.007-0.015 0.007-0.019zM21.123 5.692c0.075-0.051 0.114-0.208 0.070-0.284-0.059-0.102-0.198 0.098-0.162 0.233 0.010 0.038 0.034 0.068 0.054 0.068 0.007 0 0.024-0.008 0.039-0.017zM21.729 5.342c0.019-0.021 0.022-0.030 0.018-0.052-0.011-0.066-0.096-0.106-0.158-0.074-0.027 0.014-0.038 0.033-0.038 0.067 0 0.053 0.052 0.092 0.118 0.087 0.031-0.002 0.042-0.007 0.060-0.028z"></path>
</svg>
