<!-- Generated by IcoMoon.io -->
<svg version="1.1" xmlns="http://www.w3.org/2000/svg" width="32" height="32" viewBox="0 0 32 32">
<title>nairobi</title>
<path d="M18.204 28.988c-0.004-0.010-0.016-0.101-0.026-0.202-0.070-0.699-0.174-1.276-0.309-1.725-0.031-0.105-0.059-0.151-0.071-0.118-0.005 0.015-0.032 0.392-0.067 0.963-0.026 0.417-0.028 0.405-0.166-0.868-0.085-0.785-0.11-1.005-0.122-1.035l-0.011-0.029-0.023 0.037c-0.013 0.020-0.103 0.296-0.2 0.612-0.166 0.538-0.179 0.577-0.215 0.606l-0.038 0.031-0.099 0.503c-0.106 0.536-0.121 0.598-0.138 0.571-0.015-0.024-0.013-1.456 0.002-1.611 0.016-0.16 0.066-0.361 0.123-0.501 0.054-0.13 0.079-0.206 0.068-0.206-0.005 0-0.040 0.027-0.079 0.060s-0.075 0.059-0.079 0.059c-0.018 0-0.021-0.125-0.010-0.482 0.006-0.209 0.022-0.844 0.035-1.41s0.029-1.23 0.036-1.475c0.007-0.245 0.026-1.008 0.042-1.695s0.038-1.543 0.047-1.902c0.018-0.668 0.016-0.715-0.026-0.797-0.011-0.021-0.128-0.185-0.261-0.365-0.307-0.415-1.174-1.594-1.645-2.237-0.199-0.272-0.379-0.512-0.4-0.534l-0.038-0.040-0.023 0.024c-0.029 0.031-0.191 0.437-0.266 0.668-0.117 0.358-0.238 0.916-0.237 1.095 0.001 0.158 0.020 0.202 0.25 0.565 0.164 0.26 0.286 0.455 0.646 1.035 0.314 0.506 0.343 0.554 0.361 0.607 0.016 0.045 0.028 0.172 0.112 1.16 0.020 0.232 0.052 0.612 0.071 0.845s0.051 0.615 0.071 0.851c0.019 0.236 0.038 0.455 0.041 0.488s0.023 0.258 0.042 0.5c0.020 0.242 0.052 0.63 0.072 0.863 0.063 0.741 0.133 1.585 0.214 2.588 0.020 0.242 0.041 0.499 0.048 0.572 0.019 0.193-0.007 0.325-0.085 0.44-0.018 0.027-0.040 0.055-0.050 0.062-0.020 0.017-0.024 0.010-0.092-0.17-0.23-0.604-0.586-1.223-1.084-1.886-0.259-0.344-0.344-0.44-0.344-0.389 0 0.010 0.035 0.108 0.079 0.218 0.1 0.255 0.196 0.541 0.242 0.724 0.069 0.274 0.093 0.475 0.12 1.005 0.015 0.298 0.015 0.329-0 0.314-0.007-0.007-0.073-0.194-0.148-0.416-0.203-0.604-0.259-0.734-0.399-0.918-0.11-0.145-0.333-0.35-0.333-0.307 0 0.011 0.045 0.115 0.1 0.23 0.105 0.219 0.139 0.326 0.161 0.501 0.018 0.146 0.015 0.484-0.005 0.65-0.016 0.127-0.033 0.228-0.108 0.63-0.020 0.106-0.045 0.161-0.058 0.124-0.003-0.009-0.014-0.121-0.025-0.249-0.021-0.254-0.052-0.503-0.090-0.714-0.031-0.174-0.103-0.457-0.13-0.511l-0.021-0.041-0.013 0.041c-0.007 0.022-0.054 0.239-0.104 0.481s-0.099 0.456-0.109 0.475l-0.018 0.035-0.016-0.041c-0.015-0.040-0.118-0.514-0.243-1.121-0.088-0.426-0.102-0.489-0.119-0.52-0.014-0.025-0.017-0.026-0.029-0.009-0.008 0.011-0.021 0.072-0.029 0.136-0.014 0.107-0.072 0.458-0.185 1.116-0.063 0.367-0.082 0.394-0.102 0.145-0.006-0.073-0.024-0.214-0.040-0.312s-0.067-0.409-0.113-0.69c-0.080-0.486-0.129-0.78-0.238-1.427-0.050-0.294-0.056-0.362-0.037-0.398 0.006-0.012 0.080-0.069 0.164-0.127 0.259-0.18 1.145-0.801 1.277-0.896 0.2-0.143 0.209-0.157 0.111-0.157-0.049 0-0.767 0.058-1.705 0.137-0.799 0.067-0.802 0.068-0.873 0.135-0.042 0.039-0.443 0.483-0.48 0.53-0.016 0.021-0.027 0.051-0.027 0.076 0 0.048 0.462 1.532 0.619 1.989 0.057 0.167 0.113 0.33 0.124 0.363 0.062 0.19 0.075 0.45 0.032 0.618-0.025 0.098-0.124 0.315-0.144 0.315-0.006 0-0.020-0.031-0.030-0.068-0.040-0.145-0.136-0.431-0.189-0.568-0.116-0.296-0.34-0.71-0.357-0.659-0.003 0.009-0.008 0.164-0.011 0.343-0.008 0.487-0.048 0.678-0.209 1.005-0.11 0.222-0.485 0.854-0.501 0.844-0.025-0.016-0.001-0.36 0.038-0.54 0.049-0.225 0.152-0.464 0.334-0.774 0.102-0.174 0.14-0.244 0.14-0.255 0-0.018-0.105 0.062-0.254 0.194-0.431 0.383-0.735 0.713-0.948 1.031-0.079 0.118-0.114 0.158-0.126 0.146-0.008-0.008 0.026-0.338 0.050-0.485 0.106-0.648 0.421-1.263 0.924-1.806 0.111-0.12 0.132-0.16 0.064-0.126-0.021 0.011-0.189 0.122-0.372 0.247-0.54 0.368-0.553 0.377-0.567 0.377-0.018 0-0.009-0.181 0.043-0.821 0.087-1.083 0.101-1.29 0.091-1.334-0.009-0.040-0.227-0.355-0.677-0.98-0.19-0.264-0.221-0.301-0.261-0.311-0.047-0.012-0.241 0.091-0.304 0.162-0.063 0.070-0.142 0.202-0.169 0.283-0.020 0.060-0.016 0.202 0.025 0.877 0.010 0.157 0.028 0.494 0.041 0.75s0.032 0.598 0.041 0.761c0.010 0.164 0.028 0.498 0.042 0.744s0.030 0.516 0.036 0.601c0.017 0.229 0.014 0.434-0.007 0.539-0.023 0.112-0.059 0.193-0.139 0.316-0.059 0.090-0.062 0.092-0.070 0.062-0.005-0.018-0-0.121 0.010-0.231 0.023-0.243 0.025-0.837 0.005-1.049-0.019-0.196-0.056-0.438-0.074-0.482l-0.014-0.035-0.009 0.033c-0.005 0.018-0.018 0.12-0.029 0.226-0.039 0.396-0.119 0.796-0.222 1.112-0.056 0.174-0.096 0.27-0.118 0.283-0.018 0.011-0.015-0.032 0.030-0.494 0.016-0.167 0.048-0.499 0.071-0.738 0.090-0.94 0.105-1.079 0.131-1.259 0.028-0.192 0.026-0.245-0.009-0.192-0.026 0.040-0.251 0.602-0.345 0.861-0.119 0.328-0.25 0.739-0.33 1.032-0.082 0.3-0.094 0.336-0.108 0.322-0.005-0.005-0.050-0.189-0.1-0.408-0.162-0.716-0.209-0.883-0.348-1.231-0.031-0.078-0.064-0.144-0.072-0.147-0.018-0.006-0.019 0.068-0.003 0.241 0.027 0.3 0.038 0.79 0.025 1.109s-0.040 0.645-0.055 0.685c-0.008 0.021-0.009 0.021-0.023 0-0.008-0.012-0.045-0.099-0.083-0.194-0.085-0.217-0.258-0.574-0.386-0.798-0.185-0.324-0.635-0.975-0.674-0.975-0.023 0-0.023-0.003 0.025 0.145 0.285 0.881 0.435 1.665 0.454 2.372 0.008 0.283 0.002 0.323-0.037 0.264-0.021-0.033-0.299-0.62-0.551-1.163-0.101-0.219-0.192-0.406-0.201-0.416-0.036-0.038-0.039 0.006-0.016 0.237 0.031 0.318 0.031 0.712-0 0.983-0.026 0.225-0.064 0.431-0.089 0.479l-0.016 0.031-0.013-0.033c-0.007-0.018-0.026-0.104-0.042-0.19s-0.046-0.246-0.066-0.354c-0.035-0.191-0.088-0.369-0.108-0.369-0.029 0-0.115 0.148-0.273 0.471-0.097 0.197-0.182 0.362-0.189 0.367-0.024 0.015-0.014-0.047 0.035-0.215 0.049-0.166 0.142-0.422 0.475-1.29 0.099-0.258 0.178-0.476 0.177-0.484-0.006-0.024-0.033 0.005-0.178 0.186-0.41 0.515-0.705 0.947-0.913 1.334-0.034 0.063-0.070 0.122-0.081 0.131-0.017 0.014-0.018 0.009-0.010-0.049 0.027-0.206 0.117-0.546 0.21-0.796 0.075-0.203 0.257-0.574 0.363-0.741 0.232-0.366 0.394-0.557 0.871-1.029 0.213-0.211 0.379-0.384 0.368-0.384-0.031-0-0.339 0.213-0.599 0.415-0.691 0.536-1.268 1.15-1.702 1.815-0.087 0.133-0.129 0.183-0.14 0.165-0.008-0.013-0.040-0.336-0.056-0.569-0.007-0.105-0.012-0.413-0.011-0.684s0.002-0.503 0.001-0.515c-0.004-0.059-0.049 0.004-0.178 0.252-0.189 0.363-0.341 0.713-0.449 1.034-0.025 0.074-0.050 0.132-0.057 0.13s-0.123-0.199-0.26-0.437l-0.248-0.434 0.004-0.351c0.005-0.42 0.031-6.276 0.035-7.926 0.003-1.099 0.004-1.164 0.024-1.184s0.072-0.021 0.883-0.021h0.862l0.054-0.054 0.006-1.002c0.006-0.973 0.008-1.028 0.039-1.058 0.001-0.001 0.194-0.005 0.427-0.009 0.387-0.006 0.427-0.008 0.446-0.028s0.022-0.17 0.030-3.147c0.005-1.719 0.012-3.711 0.016-4.427 0.007-1.252 0.008-1.302 0.030-1.324s0.055-0.022 0.808-0.022c0.836 0 0.836 0 0.864-0.056 0.006-0.012 0.011-0.268 0.012-0.569 0.001-0.387 0.006-0.558 0.016-0.583 0.028-0.073 0.070-0.118 0.25-0.271 0.421-0.359 0.751-0.649 0.869-0.764 0.142-0.14 0.299-0.267 0.387-0.313l0.060-0.031 1.737 0.003c1.12 0.002 1.759 0.008 1.8 0.016s0.080 0.026 0.11 0.050c0.026 0.021 0.188 0.193 0.361 0.383s0.408 0.446 0.524 0.57c0.144 0.155 0.22 0.246 0.242 0.291l0.032 0.065 0 0.512c0 0.472 0.002 0.516 0.022 0.556 0.044 0.088 0.031 0.086 0.742 0.093 0.587 0.005 0.635 0.008 0.654 0.027 0.024 0.024 0.024-0.032 0.018 3.393l-0.004 1.903 0.026 0.021c0.024 0.020 0.111 0.021 1.438 0.021 1.2 0 1.416-0.003 1.435-0.017s0.025-0.039 0.033-0.17c0.005-0.084 0.011-0.759 0.013-1.5 0.003-1.274 0.005-1.349 0.025-1.371 0.021-0.023 0.053-0.023 3.469-0.023 3.117 0 3.449 0.002 3.466 0.019 0.010 0.010 0.021 0.030 0.025 0.045s0.008 0.548 0.009 1.186c0.003 1.111 0.004 1.164 0.027 1.249 0.023 0.088 0.023 0.131 0.019 2.677-0.004 2.583-0.004 2.588 0.020 2.617l0.024 0.030 1.035 0.007 0.068-0.058 0.006-2.038c0.003-1.121 0.011-2.048 0.016-2.059s0.020-0.026 0.032-0.033c0.013-0.007 0.239-0.012 0.575-0.012h0.553l0.067-0.057 0.006-1.402c0.005-1.067 0.009-1.408 0.020-1.427 0.033-0.058-0.008-0.057 1.546-0.048 1.007 0.005 1.464 0.012 1.481 0.021 0.013 0.007 0.029 0.026 0.035 0.042 0.007 0.018 0.008 0.559 0.004 1.382-0.009 1.592-0.030 1.408 0.165 1.42 0.068 0.004 0.272 0.008 0.453 0.009l0.33 0.001v7.646c0 4.205-0.002 7.643-0.004 7.641s-0.032-0.133-0.067-0.29c-0.064-0.294-0.088-0.375-0.106-0.356-0.006 0.006-0.022 0.083-0.036 0.172-0.065 0.401-0.176 0.835-0.346 1.351-0.045 0.138-0.090 0.261-0.099 0.273-0.015 0.021-0.017 0.020-0.024-0.013-0.004-0.019-0.036-0.238-0.072-0.487-0.064-0.449-0.072-0.494-0.090-0.494-0.013 0-0.008-0.023-0.275 1.154-0.059 0.258-0.123 0.529-0.143 0.601-0.051 0.181-0.070 0.201-0.092 0.098-0.007-0.034-0.024-0.108-0.036-0.164-0.063-0.281-0.083-0.573-0.050-0.732 0.030-0.14 0.122-0.461 0.296-1.029 0.097-0.317 0.181-0.592 0.185-0.611l0.008-0.034-0.044 0.034c-0.040 0.031-0.189 0.224-0.597 0.779-0.080 0.109-0.153 0.204-0.162 0.212-0.025 0.020-0.028-0.019-0.035-0.363-0.006-0.35-0.038-0.593-0.11-0.845-0.038-0.135-0.059-0.116-0.070 0.064-0.016 0.268-0.033 0.354-0.191 0.988-0.209 0.837-0.311 1.227-0.325 1.241-0.016 0.016-0.023-0.019-0.109-0.515-0.069-0.404-0.088-0.488-0.106-0.488s-0.067 0.097-0.154 0.309c-0.127 0.31-0.148 0.357-0.157 0.357-0.004 0-0.014-0.041-0.022-0.092-0.016-0.102-0.027-0.122-0.056-0.098-0.010 0.009-0.078 0.096-0.149 0.195s-0.141 0.193-0.155 0.209l-0.025 0.030 0.007-0.042c0.013-0.074 0.127-0.345 0.244-0.583 0.133-0.269 0.292-0.55 0.478-0.845 0.152-0.24 0.236-0.383 0.23-0.39-0.017-0.017-0.166 0.102-0.691 0.549-0.327 0.279-0.599 0.507-0.605 0.507-0.014 0.001-0.008-0.022 0.056-0.232 0.069-0.225 0.129-0.483 0.168-0.72 0.031-0.19 0.066-0.5 0.066-0.58l-0-0.045-0.021 0.027c-0.011 0.015-0.052 0.106-0.090 0.202-0.2 0.505-0.493 1.020-0.994 1.752-0.124 0.181-0.165 0.233-0.176 0.222-0.006-0.006 0.248-1.136 0.332-1.471 0.083-0.332 0.141-0.515 0.301-0.94 0.107-0.284 0.131-0.369 0.1-0.35-0.022 0.014-0.257 0.334-0.373 0.511-0.304 0.46-0.609 1.071-0.798 1.598-0.065 0.182-0.089 0.24-0.101 0.24-0.005 0-0.012-0.052-0.016-0.116-0.023-0.354-0.057-0.586-0.145-0.973-0.055-0.24-0.083-0.325-0.101-0.307-0.010 0.010-0.037 0.199-0.082 0.58-0.032 0.274-0.070 0.453-0.138 0.651-0.080 0.234-0.261 0.599-0.327 0.659l-0.025 0.022 0.008-0.047c0.011-0.066 0.064-0.344 0.078-0.416 0.007-0.033 0.025-0.126 0.040-0.208 0.162-0.848 0.244-1.276 0.303-1.582 0.039-0.2 0.074-0.387 0.078-0.416l0.008-0.053-0.026 0.023c-0.093 0.084-0.654 1.114-0.868 1.595-0.134 0.3-0.144 0.32-0.156 0.308-0.007-0.007-0.033-0.092-0.058-0.19-0.081-0.308-0.192-0.619-0.34-0.951-0.098-0.219-0.359-0.733-0.387-0.761-0.023-0.023-0.023-0.023-0.023 0.008s0.044 0.205 0.142 0.563c0.177 0.648 0.255 1.182 0.256 1.751 0.001 0.392-0.011 0.419-0.068 0.156-0.017-0.080-0.083-0.383-0.145-0.673-0.109-0.503-0.13-0.585-0.149-0.585-0.014 0-0.022 0.043-0.047 0.256-0.082 0.704-0.094 0.774-0.112 0.689-0.004-0.019-0.018-0.136-0.032-0.261-0.047-0.43-0.119-0.884-0.214-1.346-0.056-0.271-0.182-0.782-0.21-0.852l-0.019-0.047-0.017 0.040c-0.017 0.039-0.053 0.279-0.163 1.075-0.030 0.216-0.068 0.484-0.084 0.595s-0.056 0.395-0.089 0.631c-0.033 0.236-0.063 0.438-0.066 0.449-0.012 0.039-0.027 0.021-0.041-0.048-0.046-0.222-0.146-0.502-0.293-0.815-0.077-0.164-0.114-0.224-0.13-0.208-0.004 0.004-0.015 0.135-0.024 0.291s-0.024 0.35-0.034 0.432c-0.034 0.271-0.103 0.729-0.116 0.76l-0.012 0.031-0.010-0.030c-0.006-0.016-0.026-0.177-0.046-0.357-0.036-0.328-0.052-0.416-0.072-0.416-0.011 0-0.089 0.158-0.165 0.334-0.045 0.104-0.084 0.162-0.084 0.126-0-0.012 0.040-0.159 0.088-0.327s0.14-0.484 0.203-0.704c0.063-0.219 0.128-0.443 0.145-0.497 0.029-0.094 0.031-0.121 0.005-0.105-0.017 0.010-0.221 0.343-0.326 0.531-0.287 0.514-0.54 1.119-0.723 1.725-0.019 0.062-0.040 0.129-0.048 0.149-0.012 0.032-0.015 0.034-0.026 0.014-0.017-0.030-0.055-0.787-0.065-1.275-0.009-0.461 0.004-0.757 0.048-1.104 0.044-0.348 0.087-0.531 0.234-1.006 0.084-0.274 0.090-0.299 0.070-0.299-0.016 0-0.219 0.239-0.339 0.399-0.385 0.513-0.673 1.065-0.908 1.743-0.075 0.215-0.074 0.214-0.087 0.214-0.006 0-0.045-0.073-0.088-0.162-0.229-0.482-0.581-0.92-1.026-1.278-0.134-0.108-0.132-0.083 0.008 0.084 0.186 0.222 0.355 0.511 0.44 0.753 0.087 0.249 0.122 0.454 0.123 0.722 0 0.185-0.026 0.443-0.050 0.486-0.014 0.024-0.029-0.023-0.101-0.307-0.129-0.51-0.275-0.848-0.492-1.136-0.092-0.123-0.207-0.243-0.214-0.224-0.003 0.008 0.014 0.051 0.036 0.096 0.122 0.243 0.217 0.519 0.252 0.733 0.028 0.174 0.045 0.508 0.036 0.734-0.008 0.206-0.063 1.084-0.070 1.118-0.003 0.016-0.005 0.016-0.011 0zM21.386 24.351c0.191-0.091 0.265-0.147 0.284-0.215 0.026-0.094 0.047 0-0.346-1.542-0.078-0.308-0.239-0.939-0.357-1.404s-0.22-0.859-0.226-0.877c-0.030-0.076-0.021-0.075-0.438-0.071l-0.379 0.003-0.008-0.055-0.351-0.002c-0.201-0.001-0.367 0.003-0.387 0.009-0.049 0.016-0.094 0.066-0.184 0.207-0.098 0.154-0.474 0.733-0.859 1.322-0.442 0.677-0.425 0.647-0.382 0.647 0.017 0 0.729-0.184 1.739-0.448 0.294-0.077 0.292-0.077 0.342 0.028 0.063 0.134 0.303 0.632 0.505 1.051 0.112 0.232 0.282 0.583 0.376 0.779 0.289 0.599 0.292 0.604 0.338 0.635 0.066 0.044 0.129 0.031 0.335-0.067zM10.315 23.36c0.124-0.118 0.31-0.293 0.413-0.388s0.193-0.188 0.2-0.207c0.012-0.029-0.013-0.147-0.196-0.929-0.116-0.493-0.219-0.914-0.23-0.937-0.027-0.056-1.279-1.535-1.307-1.544-0.026-0.008-0.036 0.078-0.087 0.687-0.027 0.33-0.063 0.759-0.079 0.952-0.046 0.537-0.053 0.471 0.077 0.734 0.061 0.123 0.295 0.589 0.521 1.035 0.356 0.704 0.414 0.812 0.436 0.812 0.017-0 0.102-0.072 0.252-0.215zM12.665 22.433c0.115 0 0.144-0.004 0.165-0.021l0.026-0.021-0.037-0.19c-0.095-0.49-0.26-1.329-0.345-1.76-0.108-0.546-0.118-0.573-0.245-0.71-0.109-0.118-0.324-0.345-1.052-1.117-0.337-0.357-0.731-0.774-0.875-0.928-0.378-0.402-0.578-0.567-0.891-0.741-0.294-0.163-0.609-0.271-0.962-0.331-0.211-0.036-0.561-0.044-0.766-0.017-0.776 0.099-1.422 0.599-1.776 1.375-0.169 0.37-0.292 0.864-0.345 1.386-0.020 0.198-0.021 0.892-0.001 1.124 0.025 0.285 0.085 0.738 0.103 0.773 0.033 0.064 0.059 0.063 0.338-0.011 0.122-0.032 0.478-0.123 0.792-0.203s0.587-0.153 0.607-0.163c0.066-0.034 0.182-0.166 0.229-0.261l0.044-0.089 0.015-0.249c0.041-0.686 0.138-1.115 0.323-1.432 0.067-0.115 0.248-0.303 0.35-0.363 0.198-0.116 0.351-0.149 0.765-0.163l0.238-0.008 0.050 0.040c0.028 0.022 0.319 0.348 0.648 0.724s0.711 0.813 0.85 0.972c0.139 0.158 0.26 0.303 0.27 0.321s0.036 0.119 0.060 0.224c0.023 0.105 0.080 0.359 0.126 0.565s0.121 0.551 0.168 0.767c0.092 0.431 0.107 0.484 0.147 0.504 0.019 0.010 0.138 0.012 0.436 0.008 0.225-0.003 0.472-0.006 0.549-0.006zM14.596 22.395c0.061-0.015 0.11-0.066 0.121-0.124 0.005-0.026-0-0.196-0.011-0.38s-0.036-0.593-0.055-0.91c-0.095-1.558-0.084-1.418-0.119-1.487-0.047-0.091-1.484-2.053-1.522-2.079s-0.044-0.027-0.448-0.027c-0.282 0-0.409-0.004-0.409-0.013 0-0.014-0.837-0.011-0.851 0.003-0.013 0.013 0.024 0.060 0.326 0.42 0.456 0.543 1.249 1.489 1.362 1.624 0.057 0.069 0.117 0.15 0.133 0.18 0.028 0.055 0.147 0.721 0.394 2.206 0.081 0.49 0.096 0.562 0.119 0.585l0.026 0.026 0.444-0.007c0.244-0.004 0.465-0.012 0.491-0.018zM17.568 21.199c0.024-0.028 0.502-0.74 0.802-1.197 0.133-0.202 0.247-0.386 0.254-0.41 0.008-0.027 0.017-0.347 0.024-0.813 0.010-0.664 0.009-0.778-0.006-0.836-0.016-0.063-0.11-0.231-0.517-0.934-0.318-0.548-1.558-2.693-1.802-3.117-0.149-0.258-0.281-0.485-0.294-0.503-0.030-0.042-0.072-0.042-0.128-0.001-0.136 0.101-0.403 0.356-0.559 0.533-0.21 0.238-0.31 0.375-0.31 0.423 0 0.021 0.080 0.143 0.254 0.387 0.14 0.196 0.358 0.503 0.486 0.683s0.513 0.723 0.857 1.208c0.344 0.484 0.701 0.987 0.793 1.118 0.211 0.298 0.21 0.294 0.199 0.576-0.004 0.115-0.021 0.592-0.037 1.060s-0.037 1.061-0.047 1.319c-0.020 0.526-0.018 0.562 0.032 0.504zM21.328 17.608c0.064-0.022 0.139-0.083 0.186-0.152 0.048-0.071 0.319-0.576 0.339-0.633 0.043-0.122 0.034-0.25-0.025-0.368-0.016-0.033-0.097-0.153-0.179-0.268s-0.281-0.393-0.441-0.619c-0.16-0.226-0.329-0.463-0.376-0.528s-0.096-0.126-0.111-0.135c-0.024-0.016-0.029-0.014-0.060 0.018-0.051 0.053-0.207 0.239-0.252 0.3-0.134 0.179-0.157 0.177-0.373-0.026-0.063-0.059-0.068-0.069-0.068-0.116 0-0.030 0.068-0.293 0.161-0.623 0.089-0.315 0.201-0.715 0.25-0.889s0.089-0.331 0.089-0.348c0-0.019-0.010-0.038-0.027-0.049-0.041-0.027-1.139-0.399-1.177-0.399-0.021 0-0.038 0.009-0.046 0.025-0.007 0.014-0.021 0.128-0.030 0.253s-0.019 0.254-0.023 0.287c-0.004 0.033-0.023 0.281-0.043 0.552s-0.042 0.502-0.048 0.514c-0.017 0.031-0.058 0.038-0.132 0.023-0.035-0.007-0.111-0.018-0.17-0.024-0.142-0.014-0.15-0.024-0.178-0.205-0.022-0.144-0.173-1.113-0.205-1.313-0.025-0.157-0.051-0.216-0.105-0.238-0.056-0.023-0.409-0.023-0.572 0-0.17 0.024-0.398 0.072-0.572 0.12-0.197 0.054-0.213 0.062-0.211 0.107 0.002 0.040 1.629 3.709 1.679 3.785 0.037 0.057 0.042 0.059 0.747 0.319 0.242 0.089 0.534 0.197 0.648 0.24 0.267 0.099 1.059 0.391 1.083 0.4 0.038 0.014 0.189 0.008 0.24-0.010z"></path>
</svg>
