<!-- Generated by IcoMoon.io -->
<svg version="1.1" xmlns="http://www.w3.org/2000/svg" width="33" height="32" viewBox="0 0 33 32">
<title>nameless_horrors</title>
<path d="M31.177 15.579c-0.018 0.013-0.033 0.033-0.043 0.056 0.018-0.013 0.033-0.030 0.043-0.056z"></path>
<path d="M16.976 8.515c-0.038-0.058-0.108-0.068-0.172-0.081-0.033 0.078 0.134 0.184 0.172 0.081z"></path>
<path d="M30.219 17.189c0.020-0.018 0.043-0.033 0.076-0.035 0.003-0.010 0.005-0.020 0.008-0.030-0.048 0.030-0.071 0.050-0.083 0.066z"></path>
<path d="M30.166 17.244c-0.058 0.058-0.121 0.114-0.182 0.169-0.108 0.093-0.24 0.149-0.353 0.235-0.091 0.066-0.159 0.159-0.24 0.235-0.093 0.088-0.194 0.169-0.285 0.257-0.197 0.184-0.396 0.421-0.633 0.558-0.227 0.131-0.454 0.285-0.653 0.457-0.098 0.083-0.149 0.159-0.22 0.27-0.045 0.071-0.098 0.141-0.151 0.204-0.119 0.141-0.179 0.28-0.265 0.439-0.098 0.184-0.277 0.277-0.416 0.426-0.111 0.119-0.199 0.242-0.323 0.346-0.025 0.018-0.050 0.035-0.076 0.050 0.098-0.061 0.204-0.116 0.29-0.179 0.154-0.116 0.315-0.212 0.457-0.341 0.166-0.151 0.336-0.313 0.51-0.454 0.048-0.038 0.108-0.055 0.154-0.091 0.061-0.048 0.086-0.119 0.134-0.177 0.055-0.071 0.146-0.154 0.217-0.209s0.159-0.083 0.23-0.141c0.126-0.103 0.232-0.235 0.373-0.325 0.066-0.040 0.134-0.066 0.197-0.114 0.139-0.103 0.26-0.23 0.389-0.346 0.106-0.098 0.209-0.192 0.305-0.3 0.048-0.055 0.103-0.114 0.141-0.177 0.028-0.048 0.038-0.108 0.068-0.156 0.076-0.116 0.156-0.232 0.22-0.358 0.025-0.055 0.035-0.119 0.068-0.172 0.023-0.035 0.050-0.066 0.071-0.101 0.013-0.020 0.010-0.035 0.028-0.061-0.018 0.018-0.033 0.035-0.053 0.055z"></path>
<path d="M26.318 20.927c0.015-0.013 0.033-0.025 0.050-0.035-0.068 0.043-0.136 0.088-0.187 0.141 0.058 0 0.096-0.076 0.136-0.106z"></path>
<path d="M29.642 13.528c0.048 0.025 0.096 0.053 0.144 0.081-0.083-0.068-0.164-0.141-0.257-0.197-0.061-0.035-0.119-0.078-0.174-0.124 0.086 0.096 0.161 0.172 0.288 0.24z"></path>
<path d="M11.232 6.487c-0.217 0.161-0.391 0.298-0.542 0.522-0.081 0.121-0.353 0.479-0.212 0.638 0.121-0.033 0.242-0.156 0.351-0.207 0.134-0.061 0.275-0.111 0.565-0.169 0.245-0.003 0.479-0.053 0.724-0.091 0.212-0.030 0.421-0.101 0.633-0.121 0.295-0.028 0.595 0.025 0.891-0.023 0.114-0.020 0.217-0.020 0.333-0.018 0.081 0.003 0.187 0.018 0.265-0.018 0.025-0.010 0.045-0.038 0.071-0.053 0.088-0.048 0.192-0.061 0.283-0.111 0.098-0.053 0.172-0.129 0.26-0.192 0.053-0.040 0.116-0.053 0.169-0.086 0.116-0.066 0.169-0.199 0.24-0.305s0.166-0.189 0.245-0.29c0.071-0.091 0.114-0.199 0.182-0.29 0.129-0.172 0.225-0.361 0.371-0.517 0.111-0.116 0.242-0.225 0.343-0.346 0.053-0.063 0.091-0.139 0.136-0.204 0.048-0.073 0.121-0.126 0.174-0.197 0.061-0.083 0.101-0.161 0.189-0.22 0.093-0.063 0.146-0.141 0.227-0.22 0.121-0.111 0.265-0.197 0.396-0.298 0.202-0.151 0.391-0.32 0.603-0.457 0.179-0.116 0.32-0.283 0.494-0.411 0.124-0.091 0.217-0.134 0.371-0.136 0.121-0.003 0.242 0 0.361 0 0.373 0 0.764-0.025 1.138 0.008 0.212 0.020 0.255 0.048 0.371 0.197 0.101 0.129 0.257 0.24 0.341 0.381 0.093 0.161 0.093 0.419 0.083 0.6-0.008 0.119-0.068 0.285-0.134 0.378 0.071-0.008 0.146-0.048 0.209-0.073 0.187-0.073 0.371-0.144 0.545-0.24 0.207-0.114 0.288-0.214 0.338-0.449 0.035-0.154 0.076-0.328 0.058-0.489-0.013-0.121-0.081-0.207-0.149-0.313-0.121-0.189-0.272-0.426-0.469-0.552-0.040-0.025-0.076-0.038-0.141-0.066-0.303-0.131-0.57-0.341-0.873-0.479-0.24-0.111-0.505-0.204-0.752-0.298-0.159-0.058-0.325-0.114-0.487-0.167-0.202-0.063-0.467-0.106-0.681-0.103-0.189 0-0.381-0.020-0.568 0.023-0.101 0.043-0.202 0.073-0.308 0.096-0.091 0.005-0.177 0.025-0.257 0.061-0.626 0.26-1.208 0.704-1.67 1.196-0.177 0.189-0.222 0.421-0.356 0.636-0.192 0.305-0.399 0.658-0.656 0.916-0.076 0.078-0.174 0.179-0.275 0.222-0.043 0.010-0.086 0.018-0.129 0.023-0.169 0.063-0.325 0.146-0.472 0.25-0.237 0.156-0.499 0.315-0.669 0.547-0.114 0.159-0.182 0.341-0.29 0.502-0.177 0.26-0.467 0.394-0.752 0.512-0.184 0.076-0.381 0.086-0.565 0.169-0.199 0.091-0.376 0.199-0.553 0.33z"></path>
<path d="M5.771 9.777c0.139-0.141 0.247-0.262 0.419-0.358 0.161-0.088 0.298-0.199 0.447-0.31 0.058-0.043 0.116-0.083 0.174-0.124 0.182-0.121 0.366-0.177 0.56-0.262 0.005-0.003 0.010-0.005 0.015-0.008 0.063-0.093 0.114-0.204 0.164-0.3 0.083-0.149 0.174-0.283 0.272-0.421 0.086-0.124 0.159-0.257 0.262-0.368 0.27-0.29 0.527-0.575 0.762-0.896 0.126-0.172 0.272-0.341 0.338-0.545 0.071-0.225 0.108-0.434 0.108-0.669-0.003-0.23-0.035-0.472 0.066-0.684 0.124-0.255 0.288-0.459 0.439-0.691 0.058-0.091 0.116-0.184 0.182-0.267 0.038-0.050 0.053-0.088 0.078-0.136 0.063-0.116 0.159-0.25 0.25-0.348 0.159-0.167 0.426-0.189 0.638-0.103 0.353 0.139 0.429 0.406 0.542 0.737 0.048 0.144 0.116 0.381 0.083 0.535-0.003 0.008-0.008 0.015-0.010 0.023 0.063-0.091 0.121-0.182 0.182-0.275 0.144-0.222 0.156-0.477 0.156-0.732 0.003-0.358-0.134-0.727-0.452-0.911-0.169-0.098-0.376-0.217-0.578-0.214-0.071 0-0.131 0.003-0.202-0.005-0.252-0.030-0.522-0.081-0.774-0.048-0.166 0.023-0.338 0.033-0.505 0.061-0.121 0.018-0.222 0.063-0.336 0.108-0.106 0.043-0.252 0.066-0.346 0.131-0.078 0.053-0.141 0.136-0.204 0.204-0.189 0.207-0.378 0.436-0.479 0.699-0.116 0.308-0.214 0.681-0.22 1.012-0.003 0.209-0.003 0.404-0.040 0.605-0.028 0.167-0.098 0.383-0.189 0.525-0.144 0.222-0.386 0.353-0.623 0.457-0.093 0.043-0.214 0.081-0.3 0.141-0.214 0.154-0.265 0.401-0.257 0.643 0.013 0.358-0.194 0.633-0.305 0.964-0.061 0.182-0.083 0.404-0.091 0.595-0.010 0.265-0.146 0.464-0.247 0.704-0.083 0.194-0.134 0.351-0.277 0.505-0.235 0.25-0.457 0.502-0.611 0.805-0.053 0.103-0.134 0.192-0.202 0.29 0.056-0.061 0.141-0.114 0.192-0.159 0.325-0.28 0.616-0.605 0.918-0.908z"></path>
<path d="M11.561 4.58c-0.030 0.045-0.063 0.091-0.096 0.134 0.040-0.038 0.078-0.078 0.096-0.134z"></path>
<path d="M7.227 8.901c0.318-0.227 0.245-0.22 0.159-0.184-0.015 0.025-0.033 0.048-0.050 0.071-0.033 0.040-0.096 0.058-0.109 0.114z"></path>
<path d="M11.398 4.781c-0.056 0.063-0.136 0.136-0.174 0.212 0.091-0.086 0.166-0.179 0.242-0.28-0.023 0.023-0.045 0.043-0.068 0.068z"></path>
<path d="M4.609 10.924c0.015-0.028 0.033-0.053 0.050-0.078-0.023 0.023-0.040 0.050-0.050 0.078z"></path>
<path d="M21.275 5.43c-0.108 0.025-0.182 0.098-0.277 0.149s-0.177 0.114-0.265 0.172c-0.091 0.061-0.204 0.081-0.288 0.149-0.068 0.053-0.108 0.131-0.174 0.184-0.043 0.038-0.096 0.066-0.141 0.101-0.083 0.068-0.154 0.151-0.23 0.227-0.129 0.028-0.257 0.053-0.389 0.071-0.108 0.018-0.214 0.048-0.315 0.088-0.27 0.083-0.558 0.106-0.822 0.194-0.106 0.035-0.204 0.093-0.303 0.146-0.139 0.076-0.29 0.126-0.449 0.144-0.177 0.020-0.343-0.050-0.515-0.071 0.030 0.056 0.204 0.068 0.27 0.088 0.204 0.056 0.399 0.038 0.603 0.053 0.116 0.010 0.194 0.119 0.31 0.144 0.119 0.023 0.255 0.005 0.376 0.020 0.038 0.023 0.081 0.040 0.126 0.058 0.232 0.078 0.487 0.076 0.724 0.141 0.24 0.068 0.5 0.066 0.747 0.106 0.166 0.025 0.323 0.038 0.492 0.038 0.131 0 0.368 0.025 0.484-0.045 0.141-0.083 0.108-0.288 0.149-0.424 0.048-0.159 0.166-0.265 0.308-0.346 0.139-0.063 0.28-0.121 0.421-0.177 0.106-0.061 0.217-0.096 0.338-0.109 0.154-0.023 0.303-0.040 0.457-0.068 0.169-0.030 0.351-0.050 0.522-0.058 0.341-0.015 0.676-0.071 1.009-0.141 0.222-0.048 0.474-0.083 0.696-0.025 0.235 0.063 0.449 0.156 0.575 0.381 0.076 0.134 0.174 0.245 0.255 0.378 0.023 0.038 0.040 0.078 0.058 0.119 0 0.013 0 0.025 0 0.038 0 0.222 0.066 0.439 0.073 0.658 0.008 0.179-0.023 0.328-0.066 0.5-0.015 0.066-0.013 0.119-0.050 0.179-0.045 0.071-0.121 0.119-0.184 0.174-0.061 0.053-0.121 0.103-0.182 0.156-0.015 0-0.033 0-0.050-0.003-0.177-0.025-0.179-0.098-0.3-0.202-0.073-0.063-0.156-0.126-0.227-0.189-0.055-0.048-0.088-0.078-0.126-0.149-0.045-0.081-0.058-0.25-0.129-0.31-0.086 0.184-0.018 0.558 0.078 0.716 0.103 0.169 0.225 0.26 0.389 0.361 0.156 0.098 0.298 0.146 0.472 0.204 0.121 0.040 0.227 0.083 0.351 0.111 0.101 0.020 0.164 0.063 0.275 0.040 0.045-0.008 0.088-0.020 0.131-0.030 0.098-0.020 0.161-0.056 0.252-0.106 0.103-0.061 0.194-0.134 0.3-0.192 0.010-0.088 0.146-0.182 0.194-0.227 0.066-0.061 0.134-0.121 0.199-0.187 0.172-0.166 0.172-0.315 0.187-0.565 0.020-0.285-0.023-0.613-0.204-0.843-0.164-0.209-0.346-0.381-0.452-0.631-0.101-0.232-0.184-0.464-0.333-0.671-0.035-0.048-0.071-0.098-0.103-0.149-0.033-0.040-0.053-0.083-0.061-0.134-0.020-0.028-0.013-0.020-0.043-0.050-0.068-0.068-0.161-0.146-0.24-0.202-0.114-0.078-0.252-0.078-0.376-0.141-0.174-0.091-0.424-0.035-0.603-0.116-0.103-0.045-0.174-0.154-0.288-0.194-0.192-0.071-0.406-0.169-0.58-0.283-0.166-0.111-0.394-0.048-0.585-0.018-0.477 0.078-0.936 0.247-1.383 0.441-0.252 0.109-0.502 0.247-0.772 0.31-0.103 0.025-0.214-0.010-0.318 0.013z"></path>
<path d="M22.889 23.892c0.136-0.055 0.275-0.121 0.419-0.151 0.088-0.020 0.172-0.030 0.257-0.061l-0.724-0.108c-0.146 0-0.283 0.003-0.426 0.028-0.146 0.023-0.28 0.063-0.419 0.106-0.31 0.101-0.631 0.151-0.936 0.275-0.325 0.131-0.631 0.315-0.949 0.462-0.141 0.066-0.295 0.063-0.436 0.136-0.116 0.061-0.184 0.101-0.293 0.187-0.23 0.182-0.477 0.32-0.684 0.527-0.172 0.172-0.431 0.214-0.616 0.373-0.23 0.194-0.421 0.497-0.537 0.767-0.081 0.187-0.093 0.371-0.103 0.57-0.005 0.126-0.035 0.225-0.076 0.341-0.141 0.399-0.558 0.563-0.843 0.838-0.063 0.073-0.134 0.141-0.204 0.204-0.068 0.053-0.136 0.103-0.207 0.151-0.028 0.040-0.048 0.083-0.066 0.126-0.045 0.086-0.101 0.164-0.169 0.23-0.108 0.108-0.22 0.212-0.338 0.31-0.141 0.088-0.293 0.146-0.457 0.177-0.174 0.063-0.351 0.116-0.532 0.161-0.177 0.015-0.353 0.020-0.53 0.013-0.265-0.010-0.565-0.058-0.812-0.154-0.013-0.030-0.038-0.045-0.078-0.040-0.086-0.013-0.172-0.030-0.255-0.058-0.053-0.008-0.093-0.008-0.146-0.018-0.146-0.035-0.346-0.078-0.469-0.166-0.303-0.217-0.605-0.436-0.888-0.684-0.124-0.106-0.126-0.129-0.126-0.29 0-0.197 0.020-0.416 0.114-0.595 0.071-0.129 0.23-0.293 0.373-0.343 0.098-0.035 0.116-0.010 0.192 0.028 0.093 0.043 0.23 0.028 0.189 0.174 0.131-0.222 0.088-0.532-0.048-0.734-0.086-0.121-0.073-0.169-0.22-0.166-0.083 0.003-0.189-0.018-0.272-0.003-0.134 0.028-0.27 0.043-0.404 0.068-0.096 0.018-0.146 0.035-0.214 0.116-0.111 0.136-0.209 0.28-0.288 0.434-0.061 0.124-0.169 0.225-0.227 0.358-0.116 0.272-0.106 0.497-0.066 0.785 0.030 0.194 0.045 0.192 0.073 0.336 0.008 0.035-0.003 0.066 0.008 0.103 0.018 0.068 0.056 0.124 0.068 0.192 0.020 0.101 0.013 0.166 0.063 0.27 0.106 0.22 0.139 0.517 0.381 0.631 0.091 0.043 0.166 0.063 0.255 0.116 0.177 0.098 0.373 0.108 0.568 0.144 0.212 0.040 0.401 0.078 0.605 0.149 0.28 0.098 0.52 0.275 0.785 0.414 0.131 0.071 0.293 0.098 0.436 0.146 0.126 0.043 0.245 0.114 0.371 0.154 0.23 0.071 0.525 0.076 0.757 0.081 0.25 0.008 0.479-0.013 0.724-0.058 0.106-0.020 0.204-0.063 0.308-0.088 0.091-0.025 0.225-0.015 0.305-0.071 0.103-0.071 0.126-0.106 0.262-0.146 0.305-0.088 0.603-0.194 0.913-0.272 0.237-0.058 0.457-0.172 0.691-0.237 0.174-0.050 0.328-0.098 0.431-0.262 0.020-0.030 0.025-0.071 0.045-0.096 0.035-0.048 0.111-0.086 0.151-0.129 0.126-0.134 0.277-0.252 0.389-0.399 0.088-0.114 0.156-0.24 0.22-0.368 0.083-0.164 0.177-0.29 0.207-0.477 0.005-0.038 0-0.073 0.003-0.111 0.013-0.108 0.096-0.25 0.131-0.346 0.091-0.237 0.136-0.467 0.252-0.694 0.063-0.119 0.101-0.252 0.169-0.366 0.063-0.108 0.156-0.222 0.242-0.313 0.091-0.101 0.169-0.204 0.262-0.295 0.22-0.209 0.391-0.494 0.552-0.749 0.116-0.182 0.199-0.356 0.283-0.555 0.061-0.146 0.141-0.283 0.255-0.391 0.197-0.187 0.452-0.272 0.671-0.426 0.214-0.146 0.442-0.164 0.676-0.257z"></path>
<path d="M11.469 25.378c0.151-0.020 0.267-0.131 0.411-0.141 0.108-0.008 0.237-0.010 0.346 0.010 0.083 0.015 0.154 0.030 0.24 0.028 0.038 0 0.076-0.008 0.114 0.003 0.098 0.033 0.172 0.146 0.285 0.174 0.028 0.005 0.056 0 0.081 0.008 0.093 0.030 0.177 0.129 0.272 0.164 0.048 0.018 0.096 0.030 0.144 0.050 0.086 0.038 0.159 0.093 0.242 0.131 0.293 0.141 0.563 0.25 0.896 0.267 0.277 0.013 0.568 0.028 0.833-0.063 0.247-0.086 0.439-0.283 0.641-0.442 0.204-0.156 0.399-0.353 0.54-0.573 0.050-0.078 0.063-0.131 0.061-0.227l-0.578 0.108c-0.187 0.008-0.376-0.023-0.558-0.053-0.151-0.025-0.32-0.040-0.472-0.076-0.262-0.063-0.515-0.166-0.782-0.22-0.159-0.030-0.325-0.045-0.482-0.083-0.129-0.033-0.25-0.086-0.376-0.134-0.116-0.043-0.197-0.058-0.318-0.076-0.111-0.018-0.212-0.058-0.32-0.078-0.222-0.038-0.484-0.010-0.699 0.048-0.295 0.081-0.578 0.156-0.863 0.272-0.348 0.144-0.699 0.277-1.050 0.411-0.242 0.093-0.449 0.141-0.711 0.136-0.24-0.003-0.482-0.050-0.716-0.106-0.093-0.023-0.204-0.068-0.3-0.038-0.149 0.048-0.295 0.189-0.421 0.277-0.361 0.252-0.84 0.227-1.249 0.121-0.119-0.030-0.235-0.124-0.252-0.26-0.018-0.121 0.013-0.295 0.030-0.414 0.010-0.071 0.013-0.166 0.048-0.23 0.058-0.096 0.209-0.199 0.323-0.22 0.088-0.015 0.184-0.005 0.272-0.005 0.063 0 0.172-0.018 0.235 0.005 0.015 0.103 0.005 0.222-0.076 0.298-0.103 0.096-0.29 0.063-0.381 0.159 0.058 0.134 0.411-0.063 0.494-0.098 0.187-0.081 0.182-0.336 0.182-0.507 0-0.093 0.020-0.204-0.008-0.293-0.048-0.156-0.177-0.24-0.293-0.346-0.103-0.093-0.167-0.169-0.295-0.217-0.103-0.035-0.209-0.050-0.318-0.071-0.197-0.035-0.388-0.076-0.588-0.048-0.189 0.028-0.441 0.093-0.555 0.257-0.066 0.091-0.154 0.169-0.209 0.26-0.071 0.116-0.129 0.25-0.189 0.371-0.109 0.222-0.116 0.578-0.073 0.82 0.020 0.114 0.086 0.209 0.101 0.323 0.018 0.134 0.056 0.247 0.119 0.366 0.058 0.114 0.139 0.146 0.24 0.23 0.073 0.063 0.139 0.129 0.217 0.187 0.126 0.091 0.28 0.172 0.416 0.247 0.071 0.038 0.139 0.076 0.217 0.086 0.184 0.020 0.366 0.033 0.55 0.066 0.096 0.015 0.174 0.015 0.267 0.043 0.169 0.048 0.361 0.076 0.535 0.073 0.285-0.003 0.552-0.010 0.807-0.154 0.159-0.091 0.336-0.161 0.502-0.24 0.156-0.071 0.313-0.081 0.474-0.136 0.187-0.068 0.353-0.179 0.55-0.222 0.255-0.058 0.507-0.131 0.762-0.184 0.232-0.048 0.454-0.018 0.686-0.048z"></path>
<path d="M29.454 20.995c0.015 0.232-0.045 0.447-0.182 0.638-0.225 0.252-0.452 0.505-0.679 0.754-0.179 0.232-0.399 0.414-0.661 0.54-0.237 0.129-0.482 0.23-0.739 0.308-0.141 0.023-0.28 0.025-0.421 0.008-0.063-0.013-0.119 0-0.164 0.038l0.976-0.762c-0.172 0.040-0.348 0.068-0.52 0.114-0.164 0.043-0.32 0.139-0.474 0.212-0.222 0.106-0.449 0.202-0.661 0.328-0.214 0.129-0.429 0.255-0.643 0.386-0.144 0.091-0.277 0.202-0.424 0.285-0.114 0.066-0.24 0.076-0.343 0.161-0.182 0.151-0.262 0.373-0.267 0.6-0.003 0.141 0.033 0.267 0.040 0.404 0.013 0.272-0.033 0.53-0.038 0.797-0.005 0.227-0.076 0.447-0.076 0.674 0 0.141-0.028 0.275-0.124 0.391-0.091 0.111-0.25 0.222-0.376 0.293-0.156 0.088-0.32 0.194-0.494 0.237-0.078 0.020-0.166 0.088-0.242 0.086-0.119-0.005-0.161-0.141-0.174-0.242 0.008-0.071 0.003-0.141-0.018-0.209-0.020-0.035-0.038-0.073-0.050-0.111-0.015-0.066-0.005-0.134-0.005-0.199 0-0.088 0-0.166 0.018-0.25 0.010-0.053 0.033-0.096 0.015-0.146-0.066-0.015-0.124 0.033-0.172 0.068-0.116 0.088-0.265 0.199-0.368 0.303-0.098 0.101-0.187 0.23-0.247 0.356-0.098 0.209-0.048 0.505 0.010 0.716 0.035 0.131 0.184 0.255 0.295 0.328 0.053 0.035 0.108 0.053 0.164 0.078 0.108 0.048 0.204 0.126 0.32 0.161 0.124 0.038 0.255 0.053 0.381 0.086 0.119 0.033 0.247 0.050 0.368 0.066 0.252 0.028 0.575 0.040 0.797-0.096 0.247-0.151 0.484-0.31 0.487-0.628 0-0.192-0.010-0.378 0.018-0.568 0.045-0.32 0.098-0.641 0.164-0.956 0.078-0.368 0.202-0.749 0.439-1.047 0.129-0.159 0.295-0.285 0.447-0.421 0.156-0.144 0.28-0.283 0.469-0.376 0.3-0.149 0.611-0.288 0.906-0.447 0.177-0.093 0.341-0.202 0.52-0.293 0.159-0.081 0.29-0.164 0.434-0.267 0.247-0.179 0.558-0.328 0.749-0.568 0.217-0.275 0.411-0.636 0.492-0.974 0.055-0.225 0.071-0.454 0.108-0.684 0.028-0.172 0.048-0.338 0.025-0.512-0.121 0.018-0.078 0.285-0.081 0.341z"></path>
<path d="M30.089 16.727c-0.166 0.159-0.361 0.28-0.56 0.396 0.028-0.028 0.050-0.055 0.081-0.078 0.078-0.066 0.184-0.088 0.26-0.154 0.058-0.048 0.086-0.121 0.151-0.166 0.043-0.030 0.091-0.053 0.139-0.073-0.023 0.025-0.045 0.050-0.071 0.076zM17.415 22.92c-0.187 0-0.381-0.015-0.568 0.008-0.151 0.020-0.298 0.035-0.449 0.025-0.214-0.010-0.421-0.025-0.636-0.030-0.008 0-0.015-0.003-0.023-0.003 0.106 0.003 0.212 0.003 0.315 0.003 0.222 0 0.442 0.013 0.658-0.038 0.096-0.025 0.184-0.040 0.285-0.038 0.154 0.003 0.31-0.003 0.464-0.003 0.257 0.003 0.515 0.050 0.772 0.066-0.267 0.035-0.555 0.010-0.82 0.010zM6.973 20.751c-0.368-0.144-0.694-0.346-1.002-0.595-0.156-0.129-0.29-0.27-0.469-0.363-0.050-0.025-0.101-0.053-0.149-0.078 0.081 0.028 0.161 0.058 0.242 0.091 0.172 0.076 0.333 0.161 0.515 0.217 0.103 0.030 0.212 0.053 0.323 0.076 0.025 0.028 0.053 0.055 0.083 0.083 0.103 0.091 0.235 0.144 0.351 0.217 0.214 0.134 0.411 0.293 0.653 0.371 0.146 0.045 0.29 0.116 0.442 0.121 0.169 0.005 0.318 0.033 0.477 0.091 0.126 0.048 0.267 0.081 0.391 0.129 0.053 0.023 0.086 0.058 0.144 0.073 0.182 0.038 0.366 0.073 0.547 0.121 0.078 0.018 0.169 0.028 0.24 0.063 0.081 0.035 0.116 0.101 0.177 0.164 0.045 0.048 0.106 0.083 0.169 0.116-0.015 0.003-0.028 0.008-0.043 0.008 0.020 0 0.040 0.003 0.061 0.003 0.025 0.015 0.050 0.028 0.076 0.043 0.189 0.101 0.399 0.111 0.611 0.106 0.045 0.013 0.093 0.025 0.141 0.040-0.020-0.015-0.040-0.030-0.061-0.043 0.068-0.003 0.136-0.005 0.204-0.005 0.598-0.008 1.176 0.139 1.771 0.146 0.227 0.003 0.441 0.013 0.666 0.033 0.197 0.015 0.394-0.015 0.588-0.003 0.177 0.013 0.346 0.098 0.512 0.151 0.184 0.055 0.376 0.093 0.568 0.124 0.159 0.025 0.32 0.013 0.479 0.028 0.305 0.028 0.608 0.028 0.913 0.028 0.762-0.003 1.509 0 2.253-0.179 0.194-0.048 0.368-0.106 0.545-0.197 0.174-0.088 0.285-0.192 0.416-0.308-0.048 0.005-0.096 0.010-0.146 0.023-0.119 0.025-0.217 0.045-0.341 0.045-0.061 0-0.129-0.010-0.189 0.003-0.048 0.010-0.078 0.030-0.129 0.035-0.043 0-0.086-0.008-0.126-0.003-0.071 0.008-0.134 0.035-0.204 0.038-0.154 0.005-0.298 0.023-0.452 0.048-0.146 0.025-0.295 0.073-0.442 0.088-0.323 0.040-0.671 0.008-0.999 0.008-0.179 0-0.358 0-0.537 0-0.197 0-0.383-0.038-0.578-0.035-0.166 0-0.336-0.003-0.502 0-0.436 0-0.853-0.083-1.274-0.209-0.245-0.073-0.492-0.159-0.744-0.184-0.121-0.015-0.209-0.045-0.328-0.071-0.24-0.053-0.494-0.005-0.729-0.078-0.328-0.103-0.669-0.121-1.007-0.166-0.189-0.023-0.376-0.015-0.56-0.071-0.093-0.028-0.187-0.048-0.283-0.063-0.101-0.066-0.199-0.129-0.298-0.204-0.154-0.121-0.298-0.225-0.469-0.318-0.207-0.108-0.444-0.141-0.643-0.272-0.045-0.030-0.088-0.068-0.129-0.103-0.010-0.010-0.020-0.023-0.023-0.033-0.010-0.035 0-0.091 0-0.129 0.003-0.083-0.015-0.126-0.045-0.199-0.028-0.073-0.025-0.131-0.025-0.212 0-0.179-0.035-0.338-0.124-0.494-0.068-0.121-0.174-0.23-0.225-0.363-0.098-0.275-0.063-0.603-0.189-0.87-0.023-0.045 0.008-0.013-0.040-0.058-0.038-0.038-0.109-0.053-0.151-0.083-0.061-0.043-0.103-0.088-0.109-0.161-0.008-0.096 0.040-0.209 0.040-0.31 0.003-0.076 0-0.154 0-0.23 0-0.277-0.010-0.555-0.003-0.83 0.003-0.129 0.015-0.272 0.040-0.396 0.018-0.081 0.066-0.141 0.081-0.225 0.033-0.164 0.048-0.333 0.068-0.499 0.030-0.235 0.091-0.477 0.149-0.709 0.050-0.204 0.108-0.325 0.25-0.487 0.134-0.151 0.262-0.315 0.411-0.447 0.056-0.050 0.081-0.078 0.108-0.154 0.066-0.169 0.056-0.396-0.003-0.57-0.025-0.073-0.083-0.129-0.093-0.209-0.005-0.056 0.018-0.116 0.028-0.169 0.061-0.305 0.177-0.598 0.421-0.797 0.018-0.015 0.035-0.028 0.050-0.043 0.028-0.008 0.056-0.018 0.083-0.025 0.225-0.068 0.414-0.177 0.631-0.27 0.333-0.141 0.664-0.293 0.991-0.444 0.086-0.038 0.184-0.071 0.267-0.119 0.038-0.020 0.073-0.045 0.108-0.071 0.023-0.003 0.048-0.008 0.071-0.015 0.038-0.010 0.179-0.086 0.169-0.081 0.134-0.056 0.285-0.093 0.411-0.166 0.008-0.003 0.010-0.008 0.015-0.010 0.083-0.020 0.166-0.030 0.247-0.063 0.048-0.023 0.088-0.040 0.136-0.056 0.343-0.101 0.699-0.159 1.050-0.197 0.139-0.015 0.267-0.053 0.396-0.093 0.386 0.008 0.772 0.010 1.158-0.008 0.212-0.010 0.383-0.030 0.588 0.008 0.22 0.038 0.441 0.038 0.661 0.081 0.25 0.045 0.484 0.126 0.737 0.164 0.257 0.038 0.487 0.154 0.724 0.26 0.242 0.106 0.474 0.116 0.732 0.111 0.646-0.008 1.314 0.015 1.948 0.144 0.515 0.106 1.017 0.265 1.531 0.373 0.313 0.066 0.618 0.134 0.913 0.247 0.063 0.035 0.129 0.071 0.194 0.108 0.126 0.071 0.245 0.131 0.368 0.207 0.277 0.169 0.545 0.343 0.777 0.575 0.098 0.098 0.197 0.245 0.25 0.373 0.068 0.156 0.033 0.356 0.033 0.525 0 0.098 0.008 0.199 0.003 0.298-0.005 0.058-0.018 0.053-0.038 0.106-0.053 0.139-0.096 0.315-0.071 0.467 0.030 0.184 0.161 0.32 0.267 0.469 0.131 0.187 0.255 0.361 0.341 0.573 0.076 0.192 0.149 0.383 0.212 0.58 0.101 0.31 0.139 0.636 0.222 0.951 0.048 0.187 0.124 0.363 0.172 0.547 0.063 0.24 0.088 0.454 0.088 0.701 0.003 0.341-0.073 0.671-0.144 1.004-0.025 0.119-0.068 0.227-0.106 0.336-0.098 0.073-0.202 0.149-0.308 0.199-0.091 0.040-0.161 0.063-0.24 0.129-0.31 0.27-0.555 0.608-0.888 0.85-0.212 0.151-0.434 0.27-0.679 0.358-0.098 0.035-0.197 0.073-0.29 0.119-0.257 0.124-0.474 0.285-0.752 0.373-0.174 0.055-0.348 0.126-0.527 0.161-0.101 0.018-0.202 0.018-0.303 0.030-0.164 0.023-0.315 0.068-0.484 0.066-0.146-0.003-0.3-0.020-0.444 0.015-0.096 0.023-0.184 0.043-0.28 0.055-0.159 0.020-0.255 0.050-0.376 0.154-0.025 0.025-0.050 0.045-0.076 0.068 0.040-0.003 0.078-0.005 0.121-0.005 0.033 0 0.126-0.018 0.154 0.005 0.048 0.040-0.010 0.151-0.023 0.189-0.055 0.169-0.086 0.404-0.237 0.505-0.111 0.073-0.225 0.103-0.356 0.124-0.202 0.033-0.401 0.088-0.603 0.121-0.419 0.071-0.825 0.068-1.249 0.071-0.361 0.003-0.719-0.043-1.077-0.076-0.285-0.025-0.565-0.061-0.85-0.073-0.192-0.010-0.409-0.015-0.593-0.058-0.497-0.116-0.981-0.26-1.494-0.262-0.26-0.003-0.527-0.008-0.785-0.045-0.252-0.035-0.497-0.096-0.752-0.121s-0.515-0.015-0.769-0.058c-0.119-0.020-0.23-0.055-0.343-0.091 0.050 0.043 0.086 0.103 0.091 0.199-0.202 0.038-0.404 0.078-0.608 0.103-0.26 0.033-0.487-0.010-0.732-0.083-0.177-0.053-0.303-0.136-0.454-0.232-0.164-0.106-0.353-0.179-0.527-0.262-0.58-0.277-1.15-0.583-1.748-0.82zM2.946 17.209c0.013 0.005 0.028 0.013 0.040 0.020 0.008 0.023 0.020 0.045 0.028 0.071-0.003-0.005-0.005-0.008-0.008-0.010-0.018-0.020-0.040-0.048-0.061-0.081zM12.359 10.125c-0.088 0.038-0.177 0.071-0.265 0.106 0.028-0.020 0.056-0.043 0.086-0.056 0.030-0.015 0.106-0.033 0.179-0.050zM12.947 9.915c-0.038 0.015-0.078 0.028-0.116 0.040 0.018-0.013 0.033-0.025 0.056-0.033 0.020-0.003 0.040-0.005 0.061-0.008zM10.119 10.713c0.093-0.061 0.187-0.139 0.29-0.177 0.172-0.010 0.343-0.013 0.515-0.005 0.023 0 0.048 0 0.071 0-0.088 0.038-0.169 0.058-0.272 0.083-0.199 0.045-0.401 0.073-0.603 0.098zM4.932 13.379l0.078-0.252c0.045-0.030 0.093-0.056 0.139-0.081-0.071 0.111-0.144 0.225-0.217 0.333zM7.676 13.172c-0.038 0.103-0.096 0.217-0.159 0.305-0.184 0.265-0.527 0.404-0.58 0.754-0.025 0.166 0.098 0.227 0.141 0.371 0.028 0.091-0.005 0.22-0.020 0.308-0.015 0.116-0.033 0.24-0.066 0.353-0.040 0.134-0.096 0.242-0.091 0.383 0.015 0.343 0.048 0.689 0.068 1.034 0.005 0.083 0.043 0.32-0.003 0.394-0.045 0.076-0.182 0.050-0.22 0.121-0.008 0.015 0.005 0.114 0.008 0.136 0.005 0.071 0.035 0.119 0.056 0.189 0.025 0.081 0.023 0.156 0.053 0.235 0.068 0.182 0.071 0.336 0.222 0.469 0.076 0.066 0.184 0.139 0.222 0.237 0.056 0.146 0.050 0.399-0.005 0.545-0.005 0.013-0.013 0.020-0.018 0.030-0.068-0.023-0.136-0.040-0.207-0.058-0.005-0.008-0.013-0.018-0.020-0.025-0.058-0.073-0.129-0.093-0.199-0.146-0.245-0.184-0.55-0.255-0.764-0.479-0.078-0.078-0.081-0.177-0.098-0.28-0.033-0.187-0.106-0.376-0.156-0.563-0.020-0.081-0.063-0.114-0.093-0.184-0.043-0.101 0.081 0.033-0.045-0.149-0.073-0.103-0.164-0.189-0.25-0.28 0-0.093 0-0.184 0-0.277 0-0.315-0.045-0.666 0.073-0.964 0.068-0.174 0.111-0.366 0.139-0.55 0.010-0.078 0-0.149 0.025-0.222 0.050-0.136 0.119-0.252 0.154-0.396 0.025-0.108 0.058-0.192 0.096-0.29 0.025-0.061 0.068-0.114 0.096-0.172 0.028-0.066 0.018-0.124 0.040-0.187 0.018-0.040 0.056-0.076 0.078-0.116 0.018-0.038 0.015-0.058 0.030-0.098 0.018-0.040 0.045-0.081 0.066-0.121 0.038-0.086 0.083-0.172 0.114-0.262 0.013-0.038 0.023-0.083 0.030-0.129 0.308-0.156 0.605-0.351 0.903-0.52 0.161-0.093 0.262-0.182 0.341-0.348 0.045-0.091 0.109-0.149 0.167-0.227 0.053-0.071 0.093-0.139 0.169-0.189 0.030-0.023 0.061-0.040 0.093-0.058 0.083-0.015 0.166-0.028 0.25-0.040-0.083 0.096-0.169 0.192-0.25 0.29-0.088 0.103-0.204 0.192-0.27 0.308-0.098 0.174-0.098 0.305-0.096 0.494 0 0.126 0.018 0.255-0.023 0.373zM7.868 11.093c0.404-0.252 0.838-0.447 1.231-0.719 0.202-0.141 0.373-0.275 0.608-0.368 0.217-0.088 0.416-0.202 0.633-0.285 0.308-0.119 0.585-0.29 0.88-0.424 0.108-0.048 0.232-0.053 0.346-0.078 0.098-0.023 0.192-0.053 0.285-0.081 0.134-0.038 0.277-0.088 0.409-0.124 0.144-0.035 0.31 0.038 0.449-0.003 0.030-0.008 0.035-0.033 0.071-0.040 0.124-0.025 0.245 0.005 0.368-0.053 0.025-0.025 0.056-0.043 0.088-0.056 0.040 0.018 0.081 0.010 0.121-0.018 0.156-0.053 0.262-0.169 0.419-0.22 0.182-0.061 0.308-0.124 0.489-0.124 0.154 0 0.331 0.025 0.482-0.005 0.182-0.040 0.353-0.086 0.535-0.111 0.288-0.040 0.583-0.023 0.878-0.030 0.207-0.005 0.424 0.035 0.628 0.076 0.005 0.003 0.010 0.003 0.015 0.003 0.008-0.015 0.020-0.033 0.050-0.043 0.078-0.030 0.27 0.048 0.331 0.058 0.098 0.020 0.174 0.015 0.272 0.025 0.262 0.020 0.517 0.050 0.774 0.106 0.227 0.050 0.452 0.134 0.671 0.202 0.126 0.040 0.227 0.134 0.348 0.184 0.124 0.053 0.285 0.081 0.411 0.126 0.179 0.063 0.358 0.093 0.53 0.169 0.164 0.073 0.325 0.111 0.497 0.149 0.015 0.005 0.030 0.013 0.045 0.018 0.161 0.053 0.32 0.108 0.482 0.151 0.028 0.010 0.053 0.020 0.081 0.028 0.038 0.013 0.078 0.018 0.116 0.020 0.028 0.005 0.053 0.010 0.081 0.015 0.182 0.028 0.356 0.076 0.535 0.124 0.068 0.018 0.136 0.023 0.204 0.035 0.015 0.005 0.028 0.008 0.040 0.013 0.073 0.028 0.146 0.058 0.222 0.091 0.121 0.076 0.227 0.169 0.363 0.237 0.098 0.050 0.169 0.093 0.277 0.111 0.010 0 0.023 0.003 0.035 0.003 0.040 0.028 0.081 0.053 0.124 0.076 0.078 0.043 0.161 0.063 0.245 0.096 0.154 0.058 0.315 0.101 0.472 0.156-0.161-0.018-0.323-0.045-0.467-0.088-0.159-0.045-0.303-0.073-0.459-0.111-0.313-0.071-0.605-0.225-0.918-0.3-0.247-0.063-0.507-0.088-0.757-0.139-0.353-0.071-0.699-0.161-1.052-0.232-0.212-0.040-0.366-0.091-0.552-0.189-0.066-0.035-0.131-0.066-0.199-0.093-0.020-0.018-0.040-0.035-0.063-0.053-0.121-0.053-0.202 0.129-0.267 0.204-0.376-0.078-0.699-0.262-1.037-0.434-0.207-0.106-0.411-0.207-0.641-0.209-0.262-0.003-0.517-0.056-0.774-0.073-0.111-0.005-0.214 0.003-0.323-0.015-0.618-0.114-1.251-0.207-1.885-0.164-0.535 0.038-1.052 0.338-1.501 0.616-0.267 0.166-0.558 0.194-0.853 0.288-0.134 0.043-0.262 0.116-0.396 0.164-0.119 0.043-0.235 0.038-0.356 0.068-0.098 0.025-0.209 0.063-0.305 0.103-0.101 0.043-0.149 0.129-0.23 0.192-0.146 0.111-0.434 0.161-0.616 0.166-0.053 0-0.106-0.008-0.159-0.013-0.086-0.013-0.177-0.045-0.265-0.025-0.111 0.028-0.199 0.068-0.318 0.071-0.172 0.003-0.252-0.003-0.401 0.071-0.045 0.023-0.093 0.040-0.141 0.061-0.144 0.063-0.267 0.161-0.406 0.235-0.146 0.078-0.283 0.177-0.421 0.267-0.086 0.040-0.179 0.056-0.267 0.093-0.078 0.033-0.161 0.101-0.237 0.159-0.045 0.018-0.088 0.038-0.131 0.058 0.083-0.056 0.169-0.114 0.255-0.166zM27.592 12.204c0.038 0.035 0.076 0.071 0.111 0.106 0.040 0.033 0.086 0.058 0.126 0.086-0.182-0.081-0.358-0.174-0.53-0.272-0.005-0.013-0.013-0.020-0.018-0.030 0.033 0.015 0.063 0.035 0.096 0.050 0.071 0.023 0.141 0.043 0.214 0.061zM25.757 12.673c-0.038-0.091-0.073-0.187-0.116-0.28 0.166 0.053 0.333 0.108 0.5 0.161 0.202 0.066 0.399 0.134 0.598 0.202 0.035 0.018 0.055 0.045 0.055 0.088 0.053 0.103 0.081 0.225 0.106 0.336 0.071 0.328 0.209 0.598 0.358 0.893 0.076 0.146 0.184 0.275 0.24 0.429 0.043 0.114 0.061 0.235 0.096 0.348 0.030 0.098 0.081 0.189 0.108 0.288 0.005 0.023 0.010 0.048 0.018 0.071-0.103 0.114-0.232 0.262-0.27 0.404-0.050 0.184-0.010 0.429-0.010 0.621 0 0.068-0.005 0.136 0 0.204 0.005 0.093 0.035 0.177 0.038 0.272 0.010 0.404-0.028 0.792-0.063 1.193-0.013 0.141-0.061 0.262-0.078 0.399-0.005 0.053-0.015 0.091-0.028 0.124-0.114 0.028-0.225 0.063-0.32 0.124-0.063 0.038-0.119 0.076-0.187 0.108-0.050 0.023-0.103 0.038-0.159 0.053 0.055-0.098 0.101-0.199 0.131-0.31 0.048-0.179 0.058-0.308 0.025-0.489-0.033-0.169-0.045-0.325-0.045-0.5-0.003-0.149-0.073-0.275-0.101-0.419-0.045-0.222-0.091-0.447-0.124-0.671-0.025-0.169-0.093-0.328-0.101-0.502-0.008-0.139-0.003-0.28 0-0.421 0.003-0.134-0.030-0.227-0.058-0.351-0.033-0.139 0.030-0.129-0.068-0.255-0.159-0.202-0.378-0.351-0.552-0.535-0.038-0.040-0.081-0.078-0.101-0.129-0.045-0.106-0.030-0.22 0.040-0.305 0.093-0.116 0.209-0.26 0.235-0.411 0.043-0.24-0.078-0.52-0.166-0.739zM29.247 13.937c0.159 0.048 0.313 0.146 0.474 0.182 0.101 0.020 0.199 0.015 0.3 0.053 0.184 0.068 0.356 0.182 0.542 0.25 0.055 0.020 0.111 0.040 0.169 0.058-0.119 0-0.235 0-0.351 0-0.192 0-0.394 0.018-0.578-0.033-0.373-0.103-0.628-0.383-0.878-0.666 0.098 0.063 0.199 0.121 0.32 0.156zM31.706 14.951c-0.015-0.028-0.040-0.050-0.055-0.081-0.030-0.058-0.030-0.119-0.076-0.172-0.066-0.078-0.192-0.124-0.285-0.154-0.008-0.003-0.015-0.005-0.023-0.005-0.018-0.028-0.043-0.050-0.073-0.061-0.018-0.005-0.038-0.005-0.058-0.008-0.013-0.010-0.023-0.023-0.033-0.030-0.202-0.199-0.482-0.366-0.737-0.492-0.197-0.096-0.389-0.225-0.583-0.338 0.045 0.038 0.091 0.073 0.139 0.106 0.015 0 0.030 0.003 0.045 0.008 0.013 0.020 0.025 0.040 0.038 0.063 0.136 0.179 0.373 0.212 0.55 0.293l0.482 0.391c-0.003 0-0.003 0-0.005 0-0.086-0.023-0.174-0.045-0.26-0.071-0.199-0.056-0.323-0.189-0.482-0.3-0.187-0.131-0.401-0.237-0.575-0.386-0.038-0.030-0.071-0.066-0.108-0.093-0.182-0.136-0.361-0.303-0.53-0.457-0.043-0.040-0.076-0.081-0.111-0.124 0.141 0.050 0.265 0.151 0.389 0.25-0.018-0.018-0.033-0.035-0.050-0.056-0.088-0.101-0.194-0.189-0.28-0.298-0.3-0.381-0.729-0.633-1.052-0.991-0.053-0.061-0.103-0.136-0.172-0.179-0.035-0.023-0.078-0.038-0.119-0.071-0.149-0.126-0.28-0.25-0.406-0.394-0.068-0.078-0.144-0.141-0.212-0.214-0.038-0.038-0.048-0.083-0.081-0.121-0.038-0.045-0.103-0.063-0.156-0.098-0.048-0.035-0.083-0.083-0.136-0.114-0.043-0.025-0.101-0.038-0.146-0.061-0.154-0.076-0.26-0.068-0.419-0.093-0.096-0.015-0.184-0.068-0.28-0.088-0.063-0.013-0.126-0.020-0.189-0.033-0.008-0.005-0.015-0.015-0.023-0.020-0.093-0.058-0.161-0.161-0.255-0.212-0.209-0.114-0.434-0.197-0.656-0.29-0.114-0.050-0.217-0.114-0.341-0.139-0.197-0.040-0.341-0.129-0.512-0.217-0.119-0.058-0.262-0.078-0.378-0.151-0.179-0.114-0.404-0.172-0.613-0.22-0.096-0.015-0.187-0.045-0.272-0.096-0.038-0.028-0.078-0.056-0.116-0.083-0.093-0.043-0.194-0.056-0.293-0.114-0.242-0.139-0.479-0.27-0.729-0.394-0.164-0.081-0.346-0.116-0.522-0.144-0.184-0.025-0.368 0.008-0.552-0.043-0.265-0.076-0.542-0.177-0.815-0.22-0.255-0.040-0.505-0.114-0.764-0.136-0.204-0.018-0.414 0.003-0.616-0.045-0.139-0.033-0.255-0.111-0.389-0.161-0.343-0.136-0.674 0.061-1.024 0.056-0.442-0.008-0.878 0.038-1.319 0.035-0.52-0.003-1.039 0-1.557-0.003-0.358 0-0.769 0.003-1.123 0.081-0.066 0.015-0.134 0.043-0.194 0.066-0.179 0.061-0.368 0.076-0.553 0.093-0.184 0.020-0.353 0.028-0.515 0.116-0.25 0.136-0.507 0.252-0.767 0.366-0.411 0.182-0.87 0.272-1.304 0.383-0.325 0.083-0.641 0.172-0.918 0.373-0.121 0.086-0.22 0.194-0.325 0.295-0.141 0.136-0.277 0.232-0.431 0.346-0.167 0.121-0.313 0.257-0.444 0.416-0.159 0.194-0.325 0.386-0.489 0.575-0.22 0.255-0.56 0.394-0.82 0.611-0.068 0.035-0.131 0.076-0.202 0.121-0.053 0.035-0.136 0.053-0.177 0.106-0.040 0.048-0.035 0.124-0.056 0.182-0.058 0.008-0.139-0.003-0.161 0.066 0.053 0.086-0.139 0.182-0.192 0.222-0.146 0.116-0.275 0.26-0.416 0.373-0.083 0.066-0.116 0.129-0.167 0.225-0.184 0.348-0.328 0.729-0.598 1.019-0.086 0.093-0.199 0.151-0.28 0.247-0.063 0.076-0.124 0.156-0.192 0.235-0.030 0.015-0.061 0.033-0.088 0.056-0.040 0.053-0.086 0.103-0.134 0.151-0.048 0.033-0.096 0.066-0.144 0.096-0.156 0.106-0.3 0.225-0.447 0.341-0.103 0.083-0.154 0.146-0.222 0.252-0.055 0.081-0.134 0.124-0.202 0.192-0.018 0.010-0.035 0.023-0.053 0.033-0.018 0.030-0.040 0.045-0.071 0.045 0.008 0.005 0.013 0.008 0.018 0.010-0.025 0.018-0.053 0.030-0.081 0.030-0.008 0.023-0.013 0.045-0.018 0.066-0.151 0.086-0.336 0.101-0.502 0.131-0.136 0.023-0.272 0.018-0.411 0.018-0.015 0-0.159-0.018-0.182 0-0.053 0.040-0.015 0.204 0.003 0.262 0.025 0.078 0.033 0.184 0.086 0.25 0.033 0.040 0.139 0.088 0.182 0.106 0.129 0.048 0.27 0.040 0.401 0.078 0.088 0.025 0.177 0.063 0.26 0.091 0.045 0.015 0.083 0.023 0.126 0.043 0.073 0.033 0.108 0.091 0.161 0.139 0.048 0.040 0.114 0.061 0.164 0.106 0.108 0.098 0.237 0.164 0.363 0.242 0.038 0.025 0.076 0.043 0.114 0.058 0.028 0.076 0.053 0.156 0.068 0.25 0.020 0.111 0.025 0.134 0.076 0.222 0.045 0.076 0.083 0.154 0.121 0.232 0.013 0.073 0.025 0.146 0.048 0.214 0.043 0.141 0.058 0.343 0.156 0.457 0.058 0.068 0.179 0.119 0.255 0.177 0.066 0.050 0.129 0.091 0.189 0.139 0.030 0.058 0.058 0.116 0.106 0.159 0.045 0.045 0.106 0.071 0.156 0.116 0.119 0.106 0.23 0.255 0.33 0.378 0.134 0.164 0.283 0.295 0.459 0.406 0.182 0.114 0.368 0.225 0.537 0.358 0.204 0.159 0.394 0.32 0.616 0.452 0.151 0.086 0.267 0.159 0.404 0.272 0.126 0.106 0.245 0.212 0.391 0.293 0.167 0.093 0.32 0.207 0.482 0.313 0.172 0.114 0.361 0.199 0.522 0.328 0.096 0.078 0.199 0.141 0.313 0.189 0.156 0.068 0.328 0.081 0.484 0.141 0.023 0.033 0.048 0.061 0.078 0.078 0.154 0.093 0.406 0.151 0.593 0.151 0.121 0.003 0.257-0.018 0.378 0.005 0.325 0.063 0.613 0.222 0.926 0.31 0.333 0.091 0.681 0.134 1.014 0.227 0.204 0.055 0.389 0.144 0.603 0.174 0.189 0.008 0.376 0.035 0.558 0.088 0.108 0.030 0.214 0.058 0.323 0.088 0.192 0.048 0.386 0.063 0.583 0.050 0.227 0 0.454 0.018 0.681 0.053 0.774 0.078 1.559 0.154 2.336 0.194 0.207 0.010 0.416 0.013 0.623 0.008 0.209-0.005 0.404-0.066 0.613-0.086 0.336-0.035 0.621-0.146 0.941-0.247 0.242-0.076 0.472-0.136 0.706-0.23 0.204-0.078 0.396-0.096 0.611-0.136 0.189-0.033 0.366-0.096 0.558-0.101 0.275-0.010 0.522-0.050 0.787-0.108 0.207-0.043 0.426-0.096 0.638-0.111 0.31-0.020 0.633-0.038 0.936-0.134 0.293-0.091 0.535-0.28 0.807-0.411 0.184-0.088 0.368-0.146 0.547-0.252 0.232-0.141 0.479-0.262 0.729-0.373 0.172-0.078 0.343-0.131 0.497-0.242 0.189-0.134 0.315-0.303 0.444-0.497 0.159-0.232 0.28-0.484 0.424-0.724 0.111-0.161 0.22-0.325 0.323-0.494 0.020-0.045 0.045-0.088 0.068-0.134 0.245-0.212 0.489-0.419 0.795-0.532 0.136-0.050 0.257-0.106 0.383-0.177 0.192-0.106 0.325-0.28 0.507-0.394 0.409-0.257 0.749-0.598 1.11-0.916 0.144-0.129 0.265-0.28 0.404-0.416 0.091-0.086 0.164-0.164 0.227-0.272 0.083-0.139 0.199-0.247 0.277-0.394 0.114-0.207 0.277-0.363 0.411-0.555 0.028-0.040 0.043-0.101 0.068-0.146-0.025 0.020-0.055 0.035-0.086 0.058-0.035 0.028-0.066 0.061-0.096 0.093 0.040-0.053 0.083-0.103 0.126-0.156 0.073-0.088 0.156-0.146 0.257-0.192 0.141-0.066 0.255-0.174 0.363-0.288 0.073-0.078 0.058-0.144 0.008-0.202z"></path>
</svg>
