<!-- Generated by IcoMoon.io -->
<svg version="1.1" xmlns="http://www.w3.org/2000/svg" width="21" height="32" viewBox="0 0 21 32">
<title>naomis_crew</title>
<path d="M10.368 19.411c0 2.833 0.12 5.595 0.12 8.407 0 0.641 0.208 3.093 0.355 4.047 0.025 0.188 0.307 0.177 0.323-0.015 0.088-1.152 0.145-3.839 0.287-4.797 0.323-2.161-0.005-4.479-0.005-6.683-0.005-2.281 0.989-4.172 0.307-6.287-0.495-1.509-0.036-4.687-0.088-6.115-0.823 0.048-1.527 0.052-2.36 0.251 0.005 0.015 0.245 0.026 0.251 0.038-0.021-0.019-0.068-0.047-0.136-0.068 0.011 3.079 0.959 8.053 0.948 11.224z"></path>
<path d="M6.775 16.318c0.057-0.364 5.297 0.188 6.161 0.141 0.995-0.048 1.943-0.24 2.891-0.417 0.068 0.584-0.093 1.375-0.12 1.979-0.041 0.943-0.407 1.803-0.473 2.709-0.068 0.896 1.036 3.219 0.192 3.932-0.771-0.333-2.068-0.093-2.927-0.141-1-0.047-1.975 0-2.975 0-1.057-0.004-2.104 0.147-3.099-0.151-0.063-1.38 0.037-2.755-0.187-4.088-0.136-0.808-0.141-1.584-0.063-2.407 0.057-0.579 0.265-1.041 0.249-1.615 0.089 0.004 0.26 0.073 0.339 0.147 0.057 0.88-0.109 1.765-0.109 2.671 0 1.011 0.213 1.928 0.328 2.901 0.115 0.959-0.213 2.011 0.76 2.12 1.376 0.151 2.855-0.073 4.251-0.073 1.021 0 2.131-0.213 3.109 0.063 0.073-0.547-0.161-0.875-0.307-1.333-0.229-0.719-0.105-1.317-0.048-2.063 0.048-0.651 0.167-1.312 0.131-1.968-0.027-0.484-0.369-1.073-0.193-1.547-0.833-0.057-1.64 0.14-2.468 0.041-0.907-0.099-1.921 0.249-2.797-0.004-1.011-0.292-1.989-0.287-2.943-0.401 0.177 0 0.36 0 0.297-0.495z"></path>
<path d="M2.113 6.459c0.239 0.353 1.312 3.307 0.572 3.359-0.541 0.038-0.776-1.812-0.864-2.244-0.093-0.444-0.188-0.991 0.292-1.115z"></path>
<path d="M19.228 6.167c-0.177-0.026-0.376 0.015-0.532 0.093-0.172 0.5-0.172 1.24-0.219 1.771-0.025 0.287-0.109 1.147 0.099 1.36 0.387 0.391 0.568-0.256 0.609-0.516 0.079-0.536-0.056-1.115-0.041-1.635 0.005-0.287 0.323-0.896 0.084-1.073z"></path>
<path d="M8.889 1.323c-0.349-0.183-1.317-0.208-1.385-0.62-0.089-0.563 0.989-0.604 1.396-0.635 0.432-0.038 4.812-0.381 3.989 0.921-0.251 0.396-1.724 0.151-2.204 0.151z"></path>
<path d="M11.78 7.745c0.801-0.285 2.093-0.187 2.973-0.233 1.089-0.063 2.323-0.068 3.391 0.046 0.459-0.011 0.24 0.432 0.355 0.683-2.281 0.113-4.437-0.527-6.719-0.496zM10.608 2.293c-0.812 0.697-1.317-0.996-0.579-1.057l-0.124-0.043c0.271-0.119 0.64 0.109 0.823 0.292 0.26 0.26 0.229 0.511-0.12 0.808zM10.217 3.802c-0.323-0.124-0.464-0.885-0.027-0.905 0.219-0.026 0.381 0.077 0.579 0.129 0.057 0.385-0.005 0.991-0.552 0.776zM10.519 5.224c-0.457 0.129-0.567-0.631-0.161-0.74l0.043-0.038c0.271 0.12 0.645 0.625 0.119 0.776zM7.373 8.009c-0.62 0.057-1.26 0.14-1.855 0.229-0.671 0.104-1.38 0.145-2.052 0.244-1.025 0.151-0.531-0.093-0.943-0.724 1.839 0.536 3.953-0.057 5.896-0.057 0.193-0.052 0.667-0.015 1.052 0.015-0.541 0.271-1.505 0.235-2.099 0.292zM18.957 6.435c-1.021 0.369-2.715 0.172-3.797 0.235-0.735 0.046-1.333 0.104-2.027 0.26-0.676 0.146-1.004 0.131-1.656 0.099-0.229-0.833-0.229-2.083-0.025-2.943 0.307-1.271-0.292-3.015 0.864-3.812-0.979-0.432-2.844-0.131-3.943-0.099-0.031 0.697 0.199 0.932 0.489 1.479 0.412 0.745 0.313 1.355 0.448 2.167 0.193 1.115 0.147 2.047 0.36 3.099-0.349 0.235-2.985 0.464-3.595 0.511-1.171 0.084-2.979 0.004-3.9-0.745-0.423 0.761 0.391 1.933 0.353 2.855 1.109-0.312 2.5-0.271 3.693-0.557 1.328-0.317 2.823-0.593 4.104-0.74 2.979-0.353 5.828 1.172 8.755 0.917-0.197-0.891-0.224-1.776-0.124-2.724z"></path>
</svg>
