<!-- Generated by IcoMoon.io -->
<svg version="1.1" xmlns="http://www.w3.org/2000/svg" width="32" height="32" viewBox="0 0 32 32">
<title>neutral</title>
<path d="M15.6 1.699l-4.381 5.84h-6.979v0.5l-0.488 0.111 1.643 7.154-4.17 5.561 6.072 2.734 1.633 7.107 7.070-3.186 7.070 3.186 1.633-7.107 6.072-2.734-4.17-5.559 1.643-7.156-0.488-0.111v-0.5h-6.979l-4.381-5.84-0.4 0.301-0.4-0.301zM15.754 3.164c0.282 1.643 0.648 2.961 0.994 4.375h-4.275l3.281-4.375zM17.006 4.176l2.521 3.363h-1.758c-0.268-1.078-0.531-2.152-0.764-3.363zM5.4 8.539h5.068l-2.373 3.166c-0.732-1.095-1.63-2.145-2.695-3.166zM11.721 8.539h5.254c0.249 0.957 0.433 2.169 0.697 3.037l-3.746 1.445c-0.315-0.339-0.743-0.564-1.238-0.564-0.943 0-1.717 0.774-1.717 1.717s0.774 1.717 1.717 1.717c0.943 0 1.719-0.774 1.719-1.717 0-0.089-0.082-0.143-0.096-0.229l3.684-1.424c0.703 2.202 1.427 4.255 2.061 6.072 0.554 1.661-0.022 2.522-0.699 2.777-0.652 0.246-1.553-0.063-2.102-1.35 0.248-0.299 0.563-0.563 0.563-0.979 0-0.943-0.774-1.717-1.717-1.717s-1.717 0.774-1.717 1.717c0 0.943 0.774 1.719 1.717 1.719 0.16 0 0.294-0.078 0.441-0.119 0.757 1.417 2.057 2.083 3.168 1.664 1.233-0.465 1.959-2.038 1.295-4.029l-0.002-0.004v-0.004c-0.645-1.85-1.372-3.901-2.074-6.107l3.154-1.219 3.443 4.592-1.688 7.359-7.838 3.531-7.838-3.531-1.688-7.359 1.547-2.064c0.174 0.305 0.425 0.627 0.574 0.92 0.491 0.969 0.847 1.862 1.076 2.578 0.187 0.585 0.238 0.942 0.268 1.199-0.641 0.25-1.16 0.759-1.16 1.484 0 0.943 0.776 1.717 1.719 1.717s1.717-0.774 1.717-1.717c0-0.775-0.576-1.326-1.285-1.537-0.037-0.395-0.104-0.82-0.307-1.451-0.247-0.771-0.619-1.708-1.135-2.725-0.214-0.422-0.56-0.882-0.824-1.324l3.057-4.076zM17.998 8.539h2.281l1.18 1.574-2.854 1.102c-0.231-0.762-0.388-1.846-0.607-2.676zM21.529 8.539h3.738l-2.846 1.189-0.893-1.189zM27.057 8.875l-1.238 5.385-2.777-3.705 4.016-1.68zM5.133 9.701c0.909 0.938 1.688 1.873 2.322 2.859l-1.275 1.697-1.047-4.557zM12.688 13.457c0.402 0 0.719 0.315 0.719 0.717s-0.317 0.717-0.719 0.717c-0.402 0-0.717-0.315-0.717-0.717s0.315-0.717 0.717-0.717zM5.688 16.582l1.33 5.797-4.242-1.912 2.912-3.885zM26.313 16.582l2.912 3.885-4.242 1.912 1.33-5.797zM16.1 18.326c0.402 0 0.717 0.315 0.717 0.717 0 0.27-0.143 0.499-0.357 0.623-0.105 0.061-0.227 0.096-0.359 0.096-0.402 0-0.717-0.317-0.717-0.719s0.315-0.717 0.717-0.717zM10.498 18.936c0.402 0 0.717 0.315 0.717 0.717s-0.315 0.717-0.717 0.717c-0.402 0-0.719-0.315-0.719-0.717s0.317-0.717 0.719-0.717zM8.441 24.115l6.342 2.857-5.152 2.322-1.189-5.18zM23.559 24.115l-1.189 5.18-5.152-2.322 6.342-2.857z"></path>
</svg>
