<!-- Generated by IcoMoon.io -->
<svg version="1.1" xmlns="http://www.w3.org/2000/svg" width="32" height="32" viewBox="0 0 32 32">
<title>nightgaunts</title>
<path d="M8.029 6.277c-0.027 0.019-0.051 0.039-0.074 0.058-0.492 0.395-0.969 0.848-1.355 1.344-0.176 0.23-0.325 0.48-0.5 0.715-0.188 0.254-0.348 0.523-0.504 0.801-0.125 0.23-0.235 0.472-0.356 0.707-0.129 0.238-0.238 0.515-0.43 0.71-0.074 0.071-0.128 0.141-0.167 0.239-0.114 0.301-0.172 0.621-0.305 0.922-0.11 0.254-0.188 0.531-0.262 0.797-0.074 0.273-0.156 0.542-0.23 0.816-0.071 0.246-0.176 0.476-0.235 0.723-0.058 0.234-0.051 0.476-0.125 0.703-0.051 0.152-0.121 0.293-0.152 0.457-0.047 0.261-0.055 0.535-0.059 0.804-0.004 0.301 0.008 0.602 0.008 0.903 0 0.187 0.031 0.351 0.059 0.535 0.011 0.074 0.008 0.144 0.035 0.219 0.019 0.058 0.039 0.097 0.043 0.156 0.004 0.086 0 0.176 0 0.258 0 0.047-0.004 0.086 0.008 0.129 0.011 0.047 0.031 0.074 0.023 0.132 0-0.058 0.031-0.117 0.043-0.175 0.031-0.172 0.078-0.344 0.106-0.52 0.023-0.164 0.015-0.328 0.054-0.492 0.031-0.141 0.071-0.273 0.094-0.418 0.047-0.281 0.16-0.551 0.25-0.82 0.074-0.235 0.121-0.477 0.187-0.715 0.071-0.27 0.188-0.617 0.485-0.692 0.055-0.015 0.101-0.035 0.148 0 0.032 0.024 0.082 0.106 0.102 0.137 0.082 0.106 0.090 0.262 0.090 0.387 0 0.172 0.004 0.34 0 0.508 0 0.132-0.039 0.234-0.102 0.351-0.070 0.141-0.090 0.274-0.133 0.418-0.039 0.137-0.105 0.254-0.132 0.391-0.020 0.113-0.036 0.23-0.055 0.344-0.067 0.402-0.106 0.808-0.18 1.211-0.019 0.105-0.004 0.218-0.008 0.324-0.004 0.363-0.070 0.715-0.004 1.074 0.059 0.324 0.149 0.641 0.2 0.961 0.031 0.18 0.066 0.355 0.089 0.531 0.028 0.203 0.040 0.406 0.071 0.61 0.023 0.156 0.070 0.308 0.117 0.46 0.043 0.129 0.109 0.227 0.18 0.34 0.043 0.071 0.078 0.164 0.136 0.227 0.028 0.031 0.067 0.051 0.094 0.086 0.047 0.066 0.063 0.144 0.113 0.207 0.075 0.078 0.122 0.125 0.164 0.226 0.028 0.067 0.063 0.129 0.094 0.196 0.016 0.039 0.035 0.097 0.071 0.121-0.016-0.196-0.059-0.383-0.090-0.578-0.024-0.157-0.043-0.305-0.082-0.457-0.047-0.188-0.063-0.364-0.086-0.555-0.035-0.277-0.051-0.543-0.051-0.824v-0.723c0-0.215 0.008-0.508 0.238-0.617 0.059-0.027 0.192-0.051 0.254-0.024 0.043 0.020 0.059 0.063 0.082 0.106 0.067 0.129 0.129 0.269 0.184 0.406 0.105 0.25 0.113 0.512 0.148 0.778 0.039 0.316 0.035 0.632 0.067 0.953 0.031 0.316 0.019 0.64 0.078 0.953 0.035 0.199 0.082 0.398 0.183 0.578 0.129 0.223 0.2 0.469 0.325 0.687 0.148 0.266 0.253 0.559 0.429 0.805 0.153 0.211 0.281 0.438 0.387 0.676 0.062 0.144 0.105 0.297 0.176 0.441 0.176 0.387 0.574 0.567 0.898 0.809 0.012 0.008 0.028 0.015 0.039 0.027 0.094 0.067 0.164 0.145 0.27 0.196 0.070 0.035 0.14 0.066 0.207 0.109 0.133 0.094 0.289 0.109 0.429 0.183 0.133 0.071 0.266 0.157 0.418 0.184 0.063 0.012 0.172 0.066 0.231 0.027-0.051-0.043-0.098-0.086-0.149-0.121-0.058-0.043-0.128-0.058-0.187-0.101-0.035-0.028-0.039-0.039-0.055-0.078-0.019-0.051-0.078-0.090-0.121-0.118-0.070-0.043-0.144-0.066-0.203-0.132-0.090-0.094-0.176-0.149-0.246-0.258-0.082-0.125-0.156-0.254-0.23-0.383-0.094-0.156-0.161-0.312-0.239-0.477-0.054-0.117-0.152-0.207-0.207-0.328-0.051-0.109-0.090-0.222-0.090-0.343 0-0.063-0.031-0.2 0.020-0.247 0.039-0.039 0.133-0.019 0.18-0.011 0.175 0.031 0.269 0.066 0.402 0.187 0.121 0.114 0.309 0.199 0.359 0.367 0.020 0.059 0.008 0.129 0.028 0.188 0.058 0.164 0.289 0.207 0.422 0.289 0.281 0.172 0.57 0.359 0.816 0.578 0.051 0.047 0.094 0.102 0.133 0.16 0.066 0.106 0.125 0.188 0.246 0.239 0.394 0.168 0.832 0.261 1.238 0.386 0.129 0.035 0.227 0.024 0.356 0.039 0.082 0.012 0.211 0.059 0.293 0.036 0.109-0.032-0.004-0.090-0.051-0.125-0.145-0.106-0.274-0.258-0.367-0.418-0.223-0.375-0.536-0.68-0.821-1.008-0.090-0.106-0.211-0.164-0.324-0.242-0.137-0.098-0.25-0.219-0.367-0.336-0.203-0.207-0.414-0.403-0.606-0.614-0.449-0.488-0.859-1.031-1.25-1.566-0.195-0.27-0.453-0.527-0.586-0.836-0.046-0.098-0.046-0.199-0.062-0.305-0.020-0.093-0.055-0.175-0.090-0.261-0.16-0.368-0.328-0.735-0.508-1.094-0.281-0.555-0.508-1.129-0.679-1.727-0.114-0.394-0.219-0.793-0.258-1.203-0.016-0.176-0.067-0.348-0.11-0.519-0.058-0.204-0.089-0.414-0.121-0.625-0.054-0.348-0.097-0.704-0.187-1.043-0.039-0.133-0.078-0.27-0.098-0.411-0.019-0.148-0.004-0.308-0.004-0.457 0.004-1.058-0.082-2.156 0.141-3.199 0.031-0.16 0.070-0.32 0.109-0.48 0.067-0.27 0.137-0.535 0.211-0.801 0.067-0.227 0.121-0.469 0.227-0.684 0.062-0.129 0.152-0.234 0.238-0.347 0.059-0.074 0.113-0.157 0.164-0.239 0.277-0.449 0.594-0.863 0.926-1.273 0.461-0.57 0.906-1.145 1.336-1.738 0.113-0.157 0.258-0.285 0.398-0.41 0.067-0.059 0.133-0.106 0.18-0.18 0.066-0.098 0.141-0.121 0.234-0.199 0.086-0.075 0.133-0.176 0.203-0.262 0.051-0.055 0.098-0.082 0.157-0.129 0.172-0.129 0.289-0.324 0.488-0.414 0.082-0.035 0.168-0.063 0.258-0.063 0.121 0.004 0.269 0.114 0.304 0.235 0.012 0.039 0.020 0.082 0.016 0.125-0.004 0.055-0.039 0.094-0.062 0.144-0.012 0.032-0.028 0.063-0.039 0.098-0.012 0.031-0.016 0.039-0.040 0.063-0.011 0.011-0.019 0.007-0.023 0.027 0.027-0.012 0.051-0.039 0.070-0.059 0.082-0.066 0.203-0.136 0.258-0.234 0.024-0.035 0.035-0.082 0.047-0.125 0.035-0.113 0.113-0.266 0.066-0.383-0.043-0.121-0.132-0.183-0.23-0.254-0.063-0.051-0.105-0.152-0.199-0.117-0.031 0.012-0.059 0.031-0.094 0.043-0.047 0.020-0.090 0.016-0.141 0.016-0.129-0.004-0.25 0.031-0.379 0.054-0.031 0.004-0.058 0.008-0.089 0.012-0.11 0.008-0.203 0.051-0.297 0.105-0.047 0.028-0.094 0.071-0.145 0.086-0.039 0.012-0.078 0.008-0.113 0.024-0.090 0.035-0.156 0.117-0.231 0.172-0.152 0.117-0.304 0.238-0.476 0.332-0.172 0.086-0.352 0.164-0.527 0.25-0.258 0.133-0.5 0.285-0.731 0.469-0.172 0.136-0.312 0.281-0.492 0.398-0.149 0.098-0.293 0.199-0.43 0.309z"></path>
<path d="M24.128 6.277c0.027 0.019 0.051 0.039 0.074 0.058 0.492 0.395 0.969 0.848 1.356 1.344 0.175 0.23 0.324 0.48 0.5 0.715 0.187 0.254 0.347 0.523 0.503 0.801 0.125 0.23 0.235 0.472 0.356 0.707 0.144 0.273 0.305 0.539 0.434 0.816 0.21 0.453 0.414 0.91 0.578 1.379 0.066 0.195 0.113 0.394 0.191 0.59 0.094 0.23 0.098 0.5 0.231 0.715 0.046 0.082 0.062 0.179 0.078 0.273 0.047 0.215 0.132 0.422 0.168 0.641 0.043 0.277 0.148 0.539 0.203 0.816 0.117 0.602 0.074 1.234 0.074 1.844 0 0.187-0.031 0.351-0.059 0.535-0.011 0.074-0.007 0.144-0.035 0.219-0.019 0.058-0.039 0.097-0.043 0.156-0.004 0.086 0 0.176 0 0.258 0 0.047 0.004 0.086-0.008 0.129-0.011 0.047-0.031 0.074-0.023 0.132 0-0.058-0.031-0.117-0.043-0.175-0.031-0.172-0.078-0.344-0.105-0.52-0.024-0.164-0.016-0.328-0.055-0.492-0.031-0.141-0.070-0.273-0.094-0.418-0.047-0.281-0.16-0.551-0.25-0.82-0.074-0.235-0.121-0.477-0.187-0.715-0.071-0.27-0.188-0.617-0.485-0.692-0.054-0.015-0.101-0.035-0.148 0-0.031 0.024-0.082 0.106-0.102 0.137-0.082 0.106-0.090 0.262-0.090 0.387 0 0.172-0.003 0.34 0 0.508 0 0.132 0.039 0.234 0.102 0.351 0.070 0.141 0.090 0.274 0.133 0.418 0.039 0.137 0.105 0.254 0.133 0.391 0.019 0.113 0.035 0.23 0.054 0.344 0.063 0.363 0.114 0.718 0.145 1.082 0.070 0.761 0.047 1.531-0.070 2.281-0.051 0.324-0.153 0.637-0.208 0.961-0.019 0.129-0.015 0.258-0.035 0.387-0.023 0.156-0.070 0.308-0.117 0.46-0.043 0.129-0.109 0.227-0.18 0.34-0.043 0.071-0.078 0.164-0.136 0.227-0.028 0.031-0.067 0.051-0.094 0.086-0.047 0.066-0.063 0.144-0.113 0.207-0.075 0.078-0.121 0.125-0.164 0.226-0.028 0.067-0.063 0.129-0.094 0.196-0.016 0.039-0.035 0.097-0.070 0.121 0.015-0.196 0.058-0.383 0.089-0.578 0.024-0.157 0.043-0.305 0.082-0.457 0.047-0.188 0.063-0.364 0.086-0.555 0.036-0.277 0.051-0.543 0.051-0.824v-0.723c0-0.215-0.008-0.508-0.238-0.617-0.059-0.027-0.192-0.051-0.254-0.024-0.043 0.020-0.059 0.063-0.082 0.106-0.066 0.129-0.129 0.269-0.184 0.406-0.105 0.25-0.113 0.512-0.148 0.778-0.039 0.316-0.035 0.632-0.066 0.953-0.032 0.316-0.020 0.64-0.075 0.953-0.023 0.113-0.047 0.23-0.062 0.347-0.024 0.176-0.024 0.364-0.063 0.539-0.050 0.227-0.113 0.418-0.215 0.625-0.062 0.125-0.14 0.254-0.21 0.372-0.059 0.097-0.145 0.179-0.2 0.281-0.031 0.058-0.066 0.121-0.101 0.183-0.039 0.071-0.043 0.149-0.098 0.215-0.043 0.051-0.082 0.098-0.121 0.149-0.035 0.047-0.102 0.074-0.133 0.121-0.008 0.012-0.012 0.035-0.019 0.043-0.020 0.023-0.047 0.027-0.071 0.047-0.027 0.027-0.031 0.054-0.054 0.086-0.020 0.031-0.059 0.046-0.075 0.078-0.007 0.023 0.004 0.043-0.003 0.062-0.012 0.024-0.032 0.024-0.043 0.043-0.024 0.043-0.036 0.098-0.067 0.137-0.035 0.043-0.090 0.062-0.133 0.105-0.101 0.106-0.199 0.219-0.332 0.293-0.148 0.086-0.3 0.196-0.441 0.297-0.094 0.067-0.164 0.145-0.27 0.196-0.070 0.035-0.14 0.066-0.207 0.109-0.132 0.094-0.289 0.109-0.429 0.183-0.133 0.071-0.266 0.157-0.418 0.184-0.063 0.012-0.172 0.066-0.231 0.027 0.051-0.043 0.098-0.086 0.149-0.121 0.058-0.043 0.129-0.058 0.187-0.101 0.035-0.028 0.039-0.039 0.055-0.078 0.019-0.051 0.078-0.090 0.121-0.118 0.070-0.043 0.144-0.066 0.203-0.132 0.090-0.094 0.176-0.149 0.246-0.258 0.082-0.125 0.156-0.254 0.231-0.383 0.093-0.156 0.16-0.312 0.238-0.477 0.055-0.117 0.152-0.207 0.207-0.328 0.051-0.109 0.090-0.222 0.090-0.343 0-0.063 0.031-0.2-0.020-0.247-0.039-0.039-0.133-0.019-0.179-0.011-0.176 0.031-0.27 0.066-0.403 0.187-0.14 0.133-0.32 0.239-0.472 0.356-0.040 0.027-0.079 0.054-0.125 0.078-0.098 0.051-0.172 0.101-0.254 0.176-0.219 0.203-0.446 0.394-0.68 0.578-0.090 0.070-0.188 0.129-0.277 0.203-0.11 0.090-0.204 0.195-0.313 0.285-0.137 0.113-0.281 0.219-0.43 0.316-0.148 0.098-0.312 0.157-0.461 0.25-0.148 0.090-0.273 0.106-0.437 0.129-0.227 0.036-0.445 0.094-0.641 0.215 0.188-0.168 0.313-0.39 0.485-0.57 0.164-0.172 0.328-0.309 0.449-0.508 0.070-0.113 0.18-0.215 0.227-0.34 0.035-0.097 0.035-0.199 0.101-0.289 0.129-0.16 0.332-0.273 0.5-0.39 0.137-0.098 0.25-0.219 0.367-0.336 0.203-0.207 0.414-0.403 0.606-0.614 0.449-0.488 0.859-1.031 1.25-1.566 0.195-0.27 0.453-0.527 0.586-0.836 0.047-0.098 0.047-0.199 0.062-0.305 0.020-0.093 0.055-0.175 0.090-0.261 0.16-0.368 0.328-0.735 0.508-1.094 0.281-0.555 0.508-1.129 0.68-1.727 0.261-0.914 0.41-1.855 0.507-2.797 0.047-0.445 0.102-0.886 0.106-1.339 0.008-0.629-0.028-1.266-0.071-1.895-0.031-0.437-0.074-0.867-0.148-1.301-0.098-0.558-0.258-1.090-0.453-1.625-0.172-0.484-0.293-1.023-0.555-1.472-0.176-0.305-0.406-0.579-0.625-0.852-0.461-0.57-0.906-1.145-1.336-1.738-0.113-0.157-0.258-0.285-0.398-0.41-0.067-0.059-0.133-0.106-0.18-0.18-0.066-0.098-0.137-0.121-0.234-0.199-0.086-0.075-0.133-0.176-0.203-0.262-0.051-0.055-0.098-0.082-0.157-0.129-0.171-0.129-0.289-0.324-0.488-0.414-0.082-0.035-0.168-0.063-0.258-0.063-0.121 0.004-0.269 0.114-0.304 0.235-0.012 0.039-0.020 0.082-0.016 0.125 0.004 0.055 0.039 0.094 0.063 0.144 0.011 0.032 0.027 0.063 0.039 0.098 0.011 0.031 0.015 0.039 0.039 0.063 0.011 0.011 0.019 0.007 0.023 0.027-0.027-0.012-0.051-0.039-0.070-0.059-0.082-0.066-0.203-0.136-0.258-0.234-0.023-0.035-0.035-0.082-0.047-0.125-0.035-0.113-0.113-0.266-0.066-0.383 0.043-0.121 0.132-0.183 0.23-0.254 0.063-0.051 0.106-0.152 0.199-0.117 0.032 0.012 0.059 0.031 0.094 0.043 0.047 0.020 0.090 0.016 0.141 0.016 0.129-0.004 0.25 0.031 0.379 0.054 0.031 0.004 0.058 0.008 0.089 0.012 0.11 0.008 0.204 0.051 0.297 0.105 0.047 0.028 0.094 0.071 0.145 0.086 0.039 0.012 0.078 0.008 0.113 0.024 0.090 0.035 0.156 0.117 0.231 0.172 0.152 0.117 0.304 0.238 0.476 0.332 0.172 0.086 0.352 0.164 0.528 0.25 0.257 0.133 0.5 0.285 0.73 0.469 0.172 0.136 0.313 0.281 0.492 0.398 0.149 0.098 0.293 0.199 0.43 0.309z"></path>
<path d="M18.839 8.737c0.012 0.008 0.023 0.012 0.031 0.020 0.094 0.059 0.184 0.129 0.266 0.203 0.183 0.164 0.351 0.367 0.453 0.59 0.039 0.086 0.074 0.199 0.14 0.273 0.051 0.055 0.122 0.086 0.176 0.133 0.16 0.129 0.278 0.332 0.364 0.512 0.093 0.195 0.164 0.406 0.238 0.609 0.101 0.266 0.133 0.543 0.191 0.813 0.039 0.172 0.106 0.336 0.141 0.508 0.031 0.132 0.035 0.277 0.055 0.414 0.039 0.242-0.004 0.476-0.024 0.718-0.016 0.184-0.019 0.372-0.055 0.551-0.035 0.188-0.097 0.387-0.156 0.567-0.055 0.183-0.156 0.351-0.215 0.535-0.066 0.199-0.144 0.394-0.222 0.59-0.055 0.144-0.141 0.273-0.192 0.418-0.090 0.269-0.090 0.566-0.289 0.789-0.070 0.074-0.125 0.136-0.18 0.222-0.074 0.114-0.109 0.246-0.183 0.356-0.012 0.015-0.031-0.028-0.031-0.031-0.051 0.023-0.102 0.082-0.145 0.121-0.191 0.179-0.453 0.238-0.652 0.406-0.082 0.066-0.168 0.168-0.266 0.215-0.062 0.031-0.117 0.031-0.16 0.090 0.055-0.004 0.086 0.035 0.133 0.058 0.047 0.024 0.094 0.039 0.144 0.059 0.172 0.062 0.336 0.222 0.461 0.355 0.133 0.145 0.196 0.395 0.254 0.578 0.031 0.102 0.059 0.211 0.074 0.317 0.020 0.113 0.036 0.164 0.079 0.261 0.015 0.040 0.050 0.239 0.085 0.25 0.036 0.012 0.075-0.097 0.090-0.117 0.106-0.16 0.262-0.277 0.367-0.445 0.258-0.398 0.524-0.801 0.782-1.199 0.293-0.461 0.652-0.879 0.902-1.364 0.121-0.242 0.274-0.511 0.309-0.777 0.023-0.164-0.024-0.332 0.011-0.492 0.051-0.234 0.25-0.402 0.336-0.625 0.090-0.242 0.121-0.5 0.153-0.754 0.047-0.394 0.105-0.836 0.066-1.227-0.035-0.339-0.070-0.656-0.144-0.988-0.075-0.34-0.207-0.683-0.325-1.012-0.070-0.191-0.187-0.355-0.285-0.535-0.086-0.152-0.172-0.308-0.265-0.453-0.258-0.41-0.657-0.715-0.977-1.074-0.113-0.133-0.238-0.262-0.383-0.367-0.066-0.047-0.121-0.113-0.191-0.153-0.078-0.046-0.156-0.082-0.239-0.136-0.078-0.055-0.164-0.149-0.257-0.184-0.086-0.035-0.164-0.058-0.25-0.101-0.121-0.067-0.239-0.141-0.36-0.204-0.152-0.082-0.32-0.132-0.472-0.21-0.043-0.024-0.059-0.067-0.106-0.032-0.094 0.074 0.078 0.317 0.117 0.371 0.059 0.094 0.137 0.176 0.207 0.262 0.047 0.059 0.067 0.141 0.125 0.184 0.079 0.058 0.188 0.086 0.274 0.132z"></path>
<path d="M12.55 18.754c0.031-0.082 0.051-0.16 0.101-0.238 0.067-0.106 0.039-0.254 0-0.363-0.027-0.082-0.070-0.157-0.101-0.239-0.031-0.074-0.039-0.148-0.086-0.218-0.153-0.227-0.41-0.348-0.578-0.567-0.078-0.098-0.133-0.215-0.207-0.316-0.102-0.157-0.243-0.282-0.356-0.426-0.094-0.125-0.215-0.274-0.226-0.438-0.008-0.050 0.007-0.101 0.015-0.152 0.012-0.129-0.035-0.25-0.047-0.379-0.050-0.469-0.011-0.961 0-1.437 0.024-0.688 0.254-1.364 0.454-2.016 0.039-0.141 0.085-0.285 0.132-0.422 0.020-0.055 0.039-0.105 0.055-0.16 0.039-0.051 0.066-0.035 0.105-0.066 0.079-0.059 0.133-0.227 0.184-0.309 0.078-0.121 0.164-0.238 0.25-0.352 0.090-0.113 0.133-0.253 0.199-0.382 0.078-0.164 0.18-0.313 0.297-0.45 0.184-0.218 0.414-0.386 0.602-0.601 0.093-0.106 0.183-0.211 0.281-0.313 0.109-0.113 0.234-0.199 0.348-0.304 0.148-0.149 0.312-0.239 0.468-0.375 0.051-0.043 0.129-0.082 0.172-0.129 0.004 0 0.047-0.024 0.043-0.031-0.004-0.024-0.004-0.016-0.027-0.028-0.055-0.031-0.199 0.008-0.258 0.020-0.277 0.062-0.551 0.218-0.809 0.343-0.121 0.059-0.222 0.141-0.335 0.219-0.153 0.106-0.321 0.196-0.477 0.301-0.195 0.129-0.344 0.309-0.512 0.469-0.125 0.117-0.265 0.222-0.398 0.332-0.117 0.094-0.246 0.176-0.356 0.281-0.121 0.121-0.195 0.301-0.285 0.445-0.125 0.211-0.312 0.375-0.453 0.578-0.105 0.153-0.187 0.282-0.254 0.454-0.101 0.253-0.18 0.539-0.254 0.8-0.031 0.118-0.035 0.239-0.093 0.348-0.036 0.070-0.090 0.133-0.133 0.199-0.137 0.227-0.172 0.535-0.219 0.793-0.051 0.293-0.090 0.59-0.121 0.887-0.008 0.055-0.012 0.109-0.020 0.16-0.039 0.375 0.016 0.758 0.039 1.133 0.020 0.324 0.043 0.648 0.059 0.973 0.020 0.347 0.187 0.679 0.312 1 0.098 0.242 0.258 0.429 0.418 0.628 0.082 0.098 0.149 0.192 0.254 0.27 0.078 0.059 0.121 0.109 0.172 0.191 0.063 0.106 0.168 0.188 0.223 0.293 0.078 0.157 0.156 0.266 0.277 0.387 0.102 0.106 0.172 0.27 0.207 0.41 0.035 0.153 0.059 0.289 0.125 0.434 0.039 0.094 0.098 0.183 0.117 0.285 0.114-0.023 0.114-0.277 0.129-0.363 0.036-0.196 0.118-0.391 0.164-0.582 0.036-0.16 0.079-0.321 0.141-0.473 0.059-0.145 0.148-0.27 0.219-0.406 0.015-0.031 0.031-0.067 0.043-0.098z"></path>
<path d="M18.073 23.328c-0.047 0.067-0.125 0.114-0.176 0.172-0.078 0.090-0.234 0.211-0.277 0.321-0.047 0.125-0.074 0.257-0.129 0.382-0.055 0.118-0.137 0.235-0.172 0.364-0.082 0.273-0.093 0.578-0.207 0.843-0.074 0.164-0.105 0.36-0.238 0.493-0.063 0.066-0.117 0.14-0.184 0.203-0.070 0.066-0.164 0.101-0.234 0.168-0.086 0.086-0.129 0.179-0.246 0.23-0.25 0.102-0.508 0.024-0.723-0.086-0.218-0.109-0.277-0.445-0.367-0.652-0.086-0.199-0.172-0.406-0.23-0.613-0.067-0.227-0.188-0.45-0.274-0.668-0.078-0.2-0.156-0.399-0.289-0.567-0.117-0.156-0.293-0.234-0.437-0.359-0.141-0.121-0.254-0.27-0.356-0.426-0.055-0.074-0.098-0.152-0.144-0.234-0.059-0.098-0.067-0.196-0.114-0.305-0.050-0.133-0.097-0.258-0.054-0.398 0.070-0.239 0.089-0.469 0.144-0.711 0.043-0.204 0.059-0.414 0.113-0.618 0.082-0.289 0.336-0.523 0.532-0.742 0.172-0.199 0.386-0.332 0.597-0.484 0.090-0.063 0.172-0.145 0.27-0.195 0.090-0.051 0.191-0.083 0.281-0.122 0.481-0.207 0.973-0.207 1.485-0.109 0.269 0.051 0.472 0.27 0.628 0.481 0.11 0.152 0.184 0.328 0.266 0.496 0.074 0.152 0.156 0.296 0.219 0.457 0.066 0.164 0.14 0.332 0.199 0.5 0.066 0.207 0.090 0.437 0.145 0.652 0.019 0.086 0.074 0.133 0.085 0.223 0.012 0.074-0.003 0.148-0.003 0.222 0 0.067 0.003 0.133 0 0.2-0.004 0.050-0.024 0.074-0.036 0.113-0.054 0.234 0.039 0.496-0.050 0.722-0.008 0.020-0.016 0.036-0.024 0.047zM19.245 21.766c-0.027-0.133-0.039-0.258-0.027-0.391 0.011-0.144-0.051-0.289-0.098-0.426-0.098-0.308-0.226-0.609-0.394-0.886-0.141-0.235-0.309-0.438-0.516-0.617-0.176-0.157-0.324-0.333-0.5-0.493-0.145-0.136-0.309-0.218-0.469-0.328-0.164-0.113-0.312-0.262-0.5-0.332-0.148-0.051-0.312-0.047-0.465-0.082-0.148-0.035-0.304-0.082-0.461-0.082-0.031-0.004-0.066 0.008-0.097 0.004-0.102-0.016-0.184-0.047-0.289-0.047-0.114 0-0.223-0.008-0.336 0.016-0.176 0.043-0.344 0.121-0.52 0.16-0.168 0.039-0.336 0.047-0.496 0.109-0.141 0.055-0.238 0.141-0.344 0.25-0.109 0.117-0.195 0.25-0.281 0.383-0.129 0.199-0.191 0.445-0.344 0.621-0.093 0.11-0.164 0.219-0.234 0.344-0.078 0.129-0.18 0.238-0.25 0.371-0.176 0.344-0.238 0.723-0.387 1.074-0.035 0.090-0.047 0.168-0.058 0.266-0.016 0.226-0.020 0.457-0.102 0.668-0.098 0.242-0.238 0.437-0.367 0.66-0.070 0.125-0.156 0.27-0.207 0.402-0.012 0.036-0.035 0.032-0.020 0.075 0.016 0.046 0.106 0.066 0.137 0.082 0.293 0.14 0.484 0.41 0.738 0.605 0.039 0.027 0.078 0.051 0.114 0.082 0.097 0.082 0.172 0.184 0.269 0.262 0.141 0.117 0.309 0.199 0.449 0.324 0.137 0.129 0.219 0.297 0.348 0.43 0.129 0.136 0.254 0.269 0.352 0.426 0.078 0.121 0.113 0.253 0.171 0.382 0.055 0.129 0.118 0.246 0.153 0.383 0.066 0.25 0.164 0.457 0.336 0.66 0.051 0.059 0.121 0.137 0.187 0.172 0.067 0.031 0.11 0.035 0.16 0.094 0.059 0.059 0.11 0.074 0.172 0.117 0.055 0.043 0.067 0.121 0.121 0.164 0.079 0.059 0.176 0.051 0.262 0.094 0.035 0.019 0.086 0.059 0.121 0.070 0.090 0.028 0.168 0 0.258-0.015 0.109-0.020 0.234-0.004 0.352-0.008 0.23-0.004 0.429-0.051 0.636-0.16 0.239-0.129 0.5-0.297 0.692-0.489 0.136-0.136 0.332-0.289 0.394-0.476 0.051-0.16 0.067-0.336 0.102-0.5 0.051-0.227 0.121-0.438 0.222-0.653 0.098-0.218 0.278-0.375 0.395-0.578 0.109-0.191 0.27-0.386 0.43-0.539 0.129-0.129 0.3-0.254 0.406-0.402 0.074-0.106 0.184-0.199 0.246-0.305 0.020-0.035 0.023-0.070 0.039-0.105 0.055-0.133 0.172-0.246 0.168-0.399-0.004-0.109-0.051-0.132-0.113-0.222-0.086-0.121-0.133-0.27-0.207-0.399-0.157-0.25-0.285-0.519-0.348-0.808 0-0.004 0-0.008 0-0.008z"></path>
</svg>
