<!-- Generated by IcoMoon.io -->
<svg version="1.1" xmlns="http://www.w3.org/2000/svg" width="32" height="32" viewBox="0 0 32 32">
<title>num0-fill1</title>
<path d="M15.986 2.286c-2.368 0-4.672 1.312-6.912 3.936s-3.36 5.771-3.36 9.44c0 3.691 1.088 6.848 3.264 9.472s4.523 3.936 7.040 3.936c2.539 0 4.896-1.205 7.072-3.616 2.176-2.389 3.275-5.653 3.296-9.792 0-4.117-1.12-7.36-3.36-9.728-2.261-2.432-4.587-3.648-6.976-3.648h-0.064zM15.922 4.27c1.899 0 3.339 1.056 4.32 3.168 0.853 1.771 1.28 4.043 1.28 6.816 0 0.064 0 0.299 0 0.704-0.021 0.277-0.032 0.523-0.032 0.736-0.192 3.435-0.768 6.176-1.728 8.224s-2.24 3.136-3.84 3.264c-1.643 0-3.008-1.088-4.096-3.264-0.981-2.091-1.472-4.469-1.472-7.136 0-0.064 0.011-0.235 0.032-0.512 0-0.213 0-0.405 0-0.576 0.128-3.157 0.608-5.856 1.44-8.096s2.187-3.371 4.064-3.392l0.032 0.064z"></path>
</svg>
