<!-- Generated by IcoMoon.io -->
<svg version="1.1" xmlns="http://www.w3.org/2000/svg" width="32" height="32" viewBox="0 0 32 32">
<title>num2-outline1</title>
<path d="M24.041 21.68c0.019 0.002 0.037 0.004 0.055 0.007 0.211 0.035 0.353 0.171 0.425 0.407 0.043 0.085 0.064 0.213 0.064 0.384 0 0.192-0.032 0.331-0.096 0.416-0.076 0.19-0.158 0.374-0.244 0.55-0.157 0.319-0.331 0.615-0.524 0.89-0.32 0.469-0.565 0.928-0.736 1.376-0.128 0.277-0.267 0.715-0.416 1.312-0.128 0.491-0.277 0.928-0.448 1.312-0.149 0.448-0.501 0.672-1.056 0.672-1.195-0.085-2.336-0.139-3.424-0.16-1.067-0.043-2.293-0.064-3.68-0.064-1.65 0.018-3.384 0.090-5.203 0.216-0.002 0-0.005 0-0.007 0-0.192 0.013-0.386 0.027-0.58 0.042-0.128 0.010-0.257 0.019-0.386 0.030-0.171 0-0.32-0.107-0.448-0.32-0.085-0.171-0.128-0.299-0.128-0.384 0-0.107 0.021-0.181 0.064-0.224 0.789-1.856 1.685-3.445 2.688-4.768s2.411-2.613 4.224-3.872l0.032-0.032c0.256-0.192 0.597-0.416 1.024-0.672 0.448-0.32 0.971-0.757 1.568-1.312 0.469-0.427 0.949-0.928 1.44-1.504 0.427-0.597 0.853-1.323 1.28-2.176 0.405-0.789 0.651-1.632 0.736-2.528 0-1.344-0.267-2.485-0.8-3.424-0.277-0.661-0.779-1.237-1.504-1.728-0.661-0.491-1.173-0.768-1.536-0.832-0.384-0.064-0.949-0.096-1.696-0.096-1.259 0-2.379 0.491-3.36 1.472s-1.472 2.069-1.472 3.264c0 1.045 0.213 1.941 0.64 2.688h0.032c0.171 0.277 0.459 0.544 0.864 0.8 0.384 0.256 0.779 0.384 1.184 0.384 0.861 0 1.608-0.23 2.239-0.69 0.088-0.064 0.174-0.133 0.257-0.206 0.171-0.171 0.363-0.256 0.576-0.256 0.383 0 0.628 0.154 0.736 0.461 0.012 0.036 0.023 0.073 0.032 0.113 0.021 0.096 0.032 0.203 0.032 0.322 0 0.107-0.011 0.192-0.032 0.256h-0.032c-0.021 0.064-0.053 0.139-0.096 0.224-0.010 0.022-0.021 0.043-0.032 0.064-0.016 0.032-0.034 0.064-0.051 0.095-0.002 0.003-0.003 0.006-0.005 0.009-0.001 0.001-0.002 0.003-0.002 0.004-0.635 1.122-1.927 1.683-3.877 1.683-0.64 0-1.216-0.107-1.728-0.32-0.128-0.085-0.224-0.139-0.288-0.16l-0.384-0.192c-2.005-1.28-3.040-3.189-3.104-5.728 0-2.112 0.907-3.84 2.72-5.184 1.835-1.344 4.021-2.016 6.56-2.016 1.984 0 3.712 0.48 5.184 1.44 1.451 0.939 2.485 2.123 3.104 3.552h0.032c0.491 1.344 0.736 2.613 0.736 3.808 0 1.792-0.501 3.253-1.504 4.384-1.024 1.216-2.251 2.315-3.68 3.296s-2.901 1.941-4.416 2.88c-1.059 0.65-1.978 1.386-2.758 2.208-0.043 0.045-0.085 0.090-0.127 0.136-0.002 0.002-0.004 0.004-0.005 0.006s-0.002 0.003-0.003 0.004c-0.173 0.189-0.34 0.382-0.499 0.58-0.006 0.007-0.011 0.014-0.017 0.021-0.082 0.102-0.161 0.205-0.239 0.309-0.054 0.081-0.097 0.153-0.128 0.215-0.043 0.085-0.064 0.152-0.064 0.201 0 0.085 0.021 0.128 0.064 0.128 0.085 0.085 0.213 0.128 0.384 0.128 0.212-0.004 0.421-0.008 0.628-0.013 0.034-0.001 0.068-0.002 0.101-0.003 0.175-0.004 0.349-0.009 0.52-0.014 0.058-0.002 0.116-0.004 0.174-0.006 1.879-0.061 3.538-0.177 4.977-0.349 1.806-0.234 3.136-1.071 3.99-2.511 0.003-0.006 0.007-0.011 0.010-0.017 0.092-0.19 0.2-0.35 0.326-0.482 0.006-0.006 0.012-0.013 0.018-0.019 0.086-0.087 0.18-0.161 0.282-0.222 0.198-0.117 0.425-0.185 0.681-0.201 0.023-0.002 0.045-0.003 0.068-0.003 0.021-0.001 0.043-0.001 0.064-0.001l-0.064-0.064c0.022 0 0.043 0.001 0.064 0.003zM26.029 23.658c0.246-0.461 0.27-0.927 0.27-1.18 0-0.229-0.018-0.608-0.177-1-0.129-0.358-0.359-0.751-0.76-1.057-0.45-0.344-0.953-0.457-1.385-0.457-0.24 0-0.472 0.050-0.683 0.142-0.357 0.077-0.708 0.215-1.037 0.427-0.528 0.34-0.903 0.809-1.161 1.315-0.558 0.921-1.393 1.477-2.706 1.649-0.859 0.102-1.806 0.184-2.844 0.246 0.297-0.22 0.612-0.432 0.945-0.637l0.006-0.004c1.537-0.952 3.031-1.927 4.483-2.924 1.539-1.056 2.878-2.251 4.007-3.589 1.32-1.498 1.921-3.383 1.921-5.504 0-1.43-0.294-2.9-0.84-4.396-0.052-0.143-0.122-0.277-0.207-0.397-0.778-1.633-2.002-2.967-3.605-4.004-1.785-1.163-3.847-1.717-6.118-1.717-2.859 0-5.411 0.763-7.573 2.347h-0l-0.008 0.006c-2.215 1.641-3.413 3.864-3.413 6.561 0 0.014 0 0.029 0.001 0.043 0.077 3.063 1.372 5.519 3.895 7.13 0.050 0.032 0.102 0.062 0.156 0.088l0.384 0.192c0.026 0.013 0.053 0.026 0.080 0.037 0.007 0.004 0.015 0.009 0.024 0.016 0.092 0.061 0.19 0.113 0.292 0.156 0.751 0.313 1.555 0.452 2.387 0.452 0.629 0 1.245-0.052 1.829-0.17-0.383 0.234-0.721 0.457-1.001 0.668-0.028 0.021-0.056 0.043-0.083 0.066-1.869 1.309-3.39 2.695-4.511 4.174-1.077 1.42-2.019 3.090-2.838 4.989-0.245 0.43-0.262 0.856-0.262 1.038 0 0.522 0.217 0.966 0.309 1.151 0.020 0.039 0.041 0.078 0.063 0.115 0.283 0.472 0.895 1.152 1.918 1.152 0.045 0 0.089-0.002 0.134-0.005 2.139-0.168 4.156-0.262 6.051-0.283 1.366 0 2.566 0.021 3.602 0.063 0.006 0 0.011 0 0.016 0.001s0.012 0 0.018 0c1.056 0.021 2.167 0.073 3.335 0.156 0.041 0.003 0.081 0.004 0.122 0.004 0.498 0 1.072-0.1 1.6-0.436 0.521-0.332 0.861-0.806 1.050-1.318 0.203-0.467 0.372-0.973 0.512-1.512l0.004-0.017c0.144-0.576 0.252-0.884 0.309-1.009 0.016-0.036 0.032-0.072 0.046-0.108 0.114-0.3 0.29-0.638 0.545-1.013 0.353-0.506 0.651-1.058 0.897-1.65zM18.116 12.792c-0.087-0.353-0.251-0.724-0.548-1.056-0.557-0.624-1.294-0.797-1.879-0.797-0.699 0-1.291 0.287-1.732 0.704-0.338 0.286-0.753 0.448-1.34 0.448-0.022 0-0.090-0.001-0.233-0.096-0.012-0.008-0.024-0.015-0.036-0.023-0.133-0.084-0.219-0.152-0.271-0.2-0.033-0.031-0.048-0.049-0.052-0.054-0.033-0.052-0.068-0.103-0.105-0.151-0.19-0.412-0.309-0.942-0.309-1.633 0-0.666 0.254-1.336 0.97-2.052 0.696-0.696 1.393-0.97 2.148-0.97 0.68 0 1.12 0.029 1.371 0.066 0.020 0.008 0.073 0.030 0.165 0.079 0.162 0.088 0.385 0.23 0.675 0.445 0.020 0.015 0.040 0.029 0.061 0.043 0.511 0.346 0.761 0.679 0.884 0.971 0.026 0.063 0.057 0.124 0.090 0.184 0.346 0.609 0.565 1.417 0.576 2.494-0.062 0.565-0.207 1.095-0.435 1.597z"></path>
</svg>
