<!-- Generated by IcoMoon.io -->
<svg version="1.1" xmlns="http://www.w3.org/2000/svg" width="32" height="32" viewBox="0 0 32 32">
<title>num22</title>
<path d="M25.381 22.699c-0.772 0-1.332 0.361-1.68 1.083-0.996 1.692-2.551 2.676-4.667 2.949-2.091 0.249-4.58 0.398-7.467 0.448-0.199 0-0.348-0.050-0.448-0.149-0.050 0-0.075-0.050-0.075-0.149s0.075-0.261 0.224-0.485c1.095-1.468 2.514-2.738 4.256-3.808 1.767-1.095 3.484-2.215 5.152-3.36s3.099-2.427 4.293-3.845c1.17-1.319 1.755-3.024 1.755-5.115 0-1.394-0.286-2.875-0.859-4.443h-0.037c-0.722-1.668-1.929-3.049-3.621-4.144-1.717-1.12-3.733-1.68-6.048-1.68-2.962 0-5.513 0.784-7.653 2.352-2.116 1.568-3.173 3.584-3.173 6.048 0.075 2.962 1.282 5.189 3.621 6.683 0.199 0.1 0.348 0.174 0.448 0.224 0.075 0.025 0.187 0.087 0.336 0.187 0.597 0.249 1.269 0.373 2.016 0.373 2.389 0 3.932-0.722 4.629-2.165 0.050-0.1 0.087-0.187 0.112-0.261h0.037c0.025-0.075 0.037-0.174 0.037-0.299 0-0.697-0.311-1.045-0.933-1.045-0.249 0-0.473 0.1-0.672 0.299-0.796 0.697-1.767 1.045-2.912 1.045-0.473 0-0.933-0.149-1.381-0.448-0.473-0.299-0.809-0.61-1.008-0.933h-0.037c-0.498-0.871-0.747-1.916-0.747-3.136 0-1.394 0.572-2.663 1.717-3.808s2.452-1.717 3.92-1.717c0.871 0 1.531 0.037 1.979 0.112 0.423 0.075 1.020 0.398 1.792 0.971 0.846 0.572 1.431 1.244 1.755 2.016 0.622 1.095 0.933 2.427 0.933 3.995-0.1 1.045-0.386 2.028-0.859 2.949-0.498 0.996-0.996 1.842-1.493 2.539-0.572 0.672-1.132 1.257-1.68 1.755-0.697 0.647-1.307 1.157-1.829 1.531-0.498 0.299-0.896 0.56-1.195 0.784l-0.037 0.037c-2.116 1.468-3.758 2.974-4.928 4.517s-2.215 3.397-3.136 5.563c-0.050 0.050-0.075 0.137-0.075 0.261 0 0.1 0.050 0.249 0.149 0.448 0.149 0.249 0.324 0.373 0.523 0.373 2.539-0.199 4.94-0.311 7.205-0.336 1.618 0 3.049 0.025 4.293 0.075 1.269 0.025 2.601 0.087 3.995 0.187 0.647 0 1.058-0.261 1.232-0.784 0.199-0.448 0.373-0.958 0.523-1.531 0.174-0.697 0.336-1.207 0.485-1.531 0.199-0.523 0.485-1.058 0.859-1.605 0.348-0.498 0.647-1.058 0.896-1.68 0.075-0.1 0.112-0.261 0.112-0.485 0-0.199-0.025-0.348-0.075-0.448-0.1-0.324-0.311-0.485-0.635-0.485l0.075 0.075z"></path>
</svg>
