<!-- Generated by IcoMoon.io -->
<svg version="1.1" xmlns="http://www.w3.org/2000/svg" width="32" height="32" viewBox="0 0 32 32">
<title>num3-fill</title>
<path d="M24.178 2.318c-2.133 0.128-4.299 0.192-6.496 0.192-1.259 0-2.411-0.011-3.456-0.032-1.024-0.043-2.059-0.107-3.104-0.192-0.235 0-0.416 0.096-0.544 0.288-0.128 0.213-0.224 0.384-0.288 0.512-0.725 1.365-1.525 2.549-2.4 3.552-0.213 0.213-0.352 0.523-0.416 0.928 0 0.405 0.139 0.608 0.416 0.608 0.725 0 1.323-0.384 1.792-1.152 0.512-0.704 1.707-1.152 3.584-1.344 0.683-0.085 1.643-0.128 2.88-0.128 0.704 0 1.376 0.032 2.016 0.096 0.235 0.021 0.395 0.053 0.48 0.096l0.032 0.064c0 0.085-0.096 0.256-0.288 0.512-0.853 0.981-1.696 1.877-2.528 2.688-0.981 0.96-1.888 1.792-2.72 2.496-0.32 0.277-0.48 0.619-0.48 1.024 0 0.32 0.128 0.48 0.384 0.48 0.448 0 0.811-0.075 1.088-0.224 0.384-0.171 0.768-0.256 1.152-0.256 1.749 0 3.2 0.704 4.352 2.112 0.917 1.173 1.376 2.485 1.376 3.936 0 0.341-0.032 0.704-0.096 1.088-0.021 1.835-0.629 3.488-1.824 4.96-1.173 1.472-2.709 2.208-4.608 2.208-1.344 0-2.507-0.501-3.488-1.504-1.272-1.328-2.194-4.141-0.992-5.824 0.235-0.363 0.629-0.683 1.184-0.96 0.576-0.299 0.864-0.619 0.864-0.96v-0.288c0-0.171-0.053-0.288-0.16-0.352-0.128-0.085-0.288-0.139-0.48-0.16-0.192-0.043-0.48-0.064-0.864-0.064-0.555 0.021-1.035 0.139-1.44 0.352-4.373 1.856-4.109 6.901-0.96 9.76 1.643 1.472 3.691 2.208 6.144 2.208 1.173 0 2.432-0.277 3.776-0.832 1.301-0.533 2.496-1.269 3.584-2.208 1.067-0.917 1.973-1.973 2.72-3.168s1.131-2.411 1.152-3.648c0-1.301-0.117-2.443-0.352-3.424s-0.597-1.899-1.088-2.752c-1.024-1.771-2.549-2.933-4.576-3.488-0.528-0.106-0.553-0.499-0.288-0.896 1.444-1.699 3.066-3.229 4.704-4.736 0.299-0.32 0.459-0.651 0.48-0.992 0-0.341-0.128-0.512-0.384-0.512l0.16-0.064z"></path>
</svg>
