<!-- Generated by IcoMoon.io -->
<svg version="1.1" xmlns="http://www.w3.org/2000/svg" width="32" height="32" viewBox="0 0 32 32">
<title>num3-outline1</title>
<path d="M25.566 12.148c-0.952-1.646-2.275-2.872-3.925-3.661 1.075-1.141 2.236-2.23 3.441-3.339 0.032-0.029 0.063-0.060 0.093-0.092 0.492-0.528 0.885-1.217 0.938-2.055 0.002-0.036 0.003-0.071 0.003-0.107 0-0.336-0.054-0.9-0.439-1.413l-0.011-0.015c-0.316-0.553-0.926-0.9-1.591-0.86-2.098 0.126-4.229 0.189-6.393 0.189-1.242 0-2.376-0.010-3.403-0.031-0.995-0.042-2.001-0.104-3.018-0.187-0.046-0.004-0.093-0.006-0.139-0.006-0.796 0-1.518 0.373-1.97 1.051-0.015 0.023-0.030 0.046-0.044 0.069-0.132 0.219-0.249 0.426-0.341 0.606-0.663 1.245-1.379 2.301-2.14 3.18-0.512 0.539-0.749 1.204-0.846 1.821-0.014 0.088-0.021 0.178-0.021 0.267 0 0.345 0.049 0.906 0.404 1.424 0.434 0.635 1.108 0.898 1.727 0.898 1.427 0 2.494-0.786 3.19-1.869 0.037-0.035 0.165-0.137 0.484-0.256 0.411-0.154 1.021-0.292 1.876-0.38 0.013-0.001 0.025-0.003 0.038-0.004 0.409-0.051 0.968-0.087 1.69-0.104-0.17 0.172-0.338 0.339-0.507 0.503l-0.002 0.002c-0.959 0.938-1.835 1.741-2.629 2.413l-0.015 0.013c-0.677 0.586-1.072 1.392-1.072 2.319 0 0.335 0.058 0.892 0.444 1.396 0.009 0.012 0.018 0.024 0.028 0.035 0.469 0.586 1.12 0.763 1.627 0.763 0.593 0 1.233-0.092 1.822-0.388 0.168-0.069 0.304-0.092 0.418-0.092 1.206 0 2.174 0.45 3.013 1.469 0.68 0.876 1.001 1.814 1.001 2.865 0 0.235-0.022 0.503-0.073 0.806-0.014 0.087-0.022 0.174-0.023 0.262-0.017 1.434-0.481 2.717-1.441 3.9l-0.009 0.012c-0.845 1.060-1.885 1.562-3.268 1.562-0.858 0-1.583-0.297-2.256-0.982-0.395-0.416-0.805-1.156-0.982-1.958-0.182-0.821-0.058-1.382 0.153-1.678 0.015-0.021 0.030-0.043 0.044-0.065 0.011-0.017 0.118-0.161 0.511-0.358l0.023-0.011c0.636-0.33 1.789-1.080 1.789-2.482v-0.288c0-0.514-0.18-1.312-0.954-1.799-0.367-0.237-0.758-0.355-1.12-0.406-0.359-0.069-0.762-0.086-1.144-0.086-0.022 0-0.044 0-0.066 0.001-0.732 0.028-1.448 0.182-2.105 0.513-5.518 2.196-5.519 9.054-1.518 12.482 3.433 2.943 7.802 3.143 11.861 1.791 1.475-0.605 2.827-1.439 4.051-2.495 1.198-1.030 2.217-2.218 3.055-3.558 0.888-1.421 1.385-2.937 1.412-4.527l0-0.030c0-1.399-0.126-2.679-0.399-3.823-0.272-1.137-0.695-2.208-1.269-3.208l-0.002-0.004zM24.402 2.894c-0.006 0.103-0.025 0.205-0.057 0.306-0.025 0.081-0.058 0.16-0.1 0.24-0.059 0.114-0.135 0.226-0.227 0.338-0.030 0.036-0.062 0.073-0.096 0.109l-0.2 0.185c-1.318 1.216-2.621 2.45-3.825 3.778l-0.001 0.001-0.072 0.080c-0.205 0.228-0.407 0.458-0.606 0.692-0.265 0.397-0.24 0.79 0.288 0.896 0.042 0.011 0.083 0.023 0.124 0.035 0.639 0.185 1.227 0.431 1.763 0.738 1.115 0.639 2.011 1.544 2.688 2.715 0.491 0.853 0.853 1.771 1.088 2.752s0.352 2.123 0.352 3.424c-0.021 1.237-0.405 2.453-1.152 3.648s-1.653 2.251-2.72 3.168c-0.824 0.711-1.71 1.306-2.657 1.785-0.303 0.153-0.612 0.294-0.927 0.423-1.344 0.555-2.603 0.832-3.776 0.832-2.453 0-4.501-0.736-6.144-2.208-3.149-2.859-3.413-7.904 0.96-9.76 0.405-0.213 0.885-0.331 1.44-0.352 0.384 0 0.672 0.021 0.864 0.064 0.192 0.021 0.352 0.075 0.48 0.16 0.107 0.064 0.16 0.181 0.16 0.352v0.288c0 0.341-0.288 0.661-0.864 0.96-0.555 0.277-0.949 0.597-1.184 0.96-1.202 1.683-0.28 4.496 0.992 5.824 0.981 1.003 2.144 1.504 3.488 1.504 1.899 0 3.435-0.736 4.608-2.208 0.146-0.18 0.284-0.363 0.412-0.548 0.922-1.331 1.393-2.801 1.412-4.412 0.064-0.384 0.096-0.747 0.096-1.088 0-0.816-0.145-1.588-0.435-2.316-0.226-0.567-0.539-1.107-0.941-1.62-1.152-1.408-2.603-2.112-4.352-2.112-0.292 0-0.584 0.049-0.876 0.148-0.027 0.009-0.053 0.018-0.080 0.028-0.037 0.014-0.074 0.028-0.111 0.043l-0.019 0.008c-0.022 0.009-0.044 0.019-0.067 0.029-0.262 0.141-0.6 0.215-1.014 0.223-0.025 0-0.049 0.001-0.074 0.001-0.256 0-0.384-0.16-0.384-0.48 0-0.363 0.128-0.674 0.384-0.934 0.030-0.031 0.062-0.061 0.096-0.090 0.067-0.056 0.134-0.114 0.202-0.172l0.105-0.090 0.067-0.058c0.728-0.632 1.51-1.357 2.346-2.176 0.543-0.529 1.090-1.094 1.642-1.696 0.185-0.202 0.371-0.408 0.557-0.618l0.011-0.012c0.081-0.091 0.162-0.183 0.243-0.276l0.075-0.086c0.192-0.256 0.288-0.427 0.288-0.512l-0.032-0.064c-0.085-0.043-0.245-0.075-0.48-0.096-0.199-0.020-0.401-0.037-0.607-0.050-0.048-0.003-0.096-0.006-0.145-0.009-0.143-0.008-0.287-0.015-0.432-0.021-0.069-0.003-0.137-0.005-0.207-0.007-0.206-0.006-0.414-0.009-0.625-0.009-1.237 0-2.197 0.043-2.88 0.128-1.466 0.15-2.516 0.456-3.149 0.918-0.178 0.13-0.322 0.271-0.435 0.426-0.171 0.28-0.359 0.509-0.564 0.687-0.028 0.025-0.057 0.048-0.086 0.071-0.012 0.009-0.023 0.018-0.035 0.027-0.328 0.245-0.697 0.368-1.107 0.368-0.277 0-0.416-0.203-0.416-0.608 0.064-0.405 0.203-0.715 0.416-0.928 0.049-0.056 0.097-0.112 0.145-0.169 0.084-0.099 0.166-0.199 0.249-0.301 0.027-0.034 0.055-0.068 0.082-0.103 0.17-0.214 0.336-0.436 0.5-0.664 0.503-0.703 0.978-1.474 1.424-2.315 0.064-0.128 0.16-0.299 0.288-0.512 0.128-0.192 0.309-0.288 0.544-0.288 1.045 0.085 2.080 0.149 3.104 0.192 1.045 0.021 2.197 0.032 3.456 0.032 1.557 0 3.097-0.032 4.622-0.096 0.567-0.024 1.131-0.052 1.693-0.085l0.181-0.011-0.16 0.064c0.063 0 0.118 0.010 0.166 0.031 0.014 0.006 0.028 0.013 0.041 0.022 0.116 0.073 0.175 0.22 0.177 0.443l0 0.016z"></path>
</svg>
