<!-- Generated by IcoMoon.io -->
<svg version="1.1" xmlns="http://www.w3.org/2000/svg" width="32" height="32" viewBox="0 0 32 32">
<title>num41</title>
<path d="M6.117 22.736c-0.448 0.398-0.709 0.884-0.784 1.456 0 0.597 0.324 0.946 0.971 1.045h12.805c0.299 0 0.523 0.012 0.672 0.037 0.224 0 0.336 0.299 0.336 0.896-0.025 1.244-0.112 2.041-0.261 2.389s-0.336 0.585-0.56 0.709c-0.075 0.025-0.187 0.075-0.336 0.149s-0.299 0.149-0.448 0.224c-0.324 0.149-0.684 0.597-1.083 1.344 0 0.1 0.062 0.199 0.187 0.299 0.174 0.124 0.324 0.187 0.448 0.187 0.597-0.075 1.307-0.149 2.128-0.224s1.518-0.112 2.091-0.112c0.597 0 1.244 0.037 1.941 0.112 0.722 0.075 1.356 0.149 1.904 0.224 0.398 0 0.597-0.162 0.597-0.485-0.025-0.498-0.112-0.796-0.261-0.896-0.149-0.124-0.336-0.274-0.56-0.448-0.224-0.199-0.448-0.535-0.672-1.008-0.224-0.498-0.411-1.332-0.56-2.501 0-0.174 0.062-0.386 0.187-0.635 0.149-0.274 0.423-0.411 0.821-0.411h1.12c0.697 0 1.045-0.336 1.045-1.008v-1.157c0-0.647-0.348-0.971-1.045-0.971h-1.344c-0.622 0-0.971-0.149-1.045-0.448s-0.112-0.622-0.112-0.971c-0.025-0.423-0.037-1.132-0.037-2.128 0-1.095 0.012-1.954 0.037-2.576l0.224-14.56c-0.050 0-0.112-0.187-0.187-0.56-0.075-0.448-0.336-0.684-0.784-0.709-0.846 0.025-1.493 0.46-1.941 1.307-2.265 3.684-4.754 7.292-7.467 10.827-2.439 3.186-5.164 6.67-8.176 10.453l0.149 0.149zM18.96 9.296c0.075-0.124 0.261-0.348 0.56-0.672 0.050-0.1 0.112-0.149 0.187-0.149 0.149 0 0.224 0.311 0.224 0.933-0.025 0.722-0.037 1.829-0.037 3.323v3.323c0.050 1.045 0.087 1.929 0.112 2.651 0.025 0.548 0.037 1.307 0.037 2.277 0 0.672-0.187 1.008-0.56 1.008h-0.709l-8.064 0.187c-0.050 0-0.112 0.012-0.187 0.037-0.050 0-0.087 0-0.112 0-0.249 0-0.373-0.075-0.373-0.224 0-0.224 0.075-0.423 0.224-0.597 1.344-1.991 2.8-3.97 4.368-5.936 1.543-1.941 3.012-3.97 4.405-6.085l-0.075-0.075z"></path>
</svg>
