<!-- Generated by IcoMoon.io -->
<svg version="1.1" xmlns="http://www.w3.org/2000/svg" width="32" height="32" viewBox="0 0 32 32">
<title>num5-outline</title>
<path d="M10.153 2.606l0.192 0.064v-0.032c0.003 0 0.007 0.001 0.010 0.001 0.133 0.010 0.265 0.021 0.396 0.031 0.451 0.035 0.886 0.069 1.305 0.102 1.668 0.129 3.082 0.234 4.241 0.314 0.235 0 0.597 0.011 1.088 0.032 0.469 0.021 0.811 0.032 1.024 0.032 1.287 0 2.439-0.073 3.454-0.219 0.011-0.002 0.022-0.003 0.034-0.005 0.152-0.035 0.284-0.080 0.398-0.134 0.094-0.045 0.175-0.096 0.242-0.154 0.079-0.069 0.168-0.132 0.266-0.188 0.006-0.003 0.011-0.006 0.017-0.009 0.108-0.060 0.227-0.112 0.358-0.155 0.363 0 0.608 0.096 0.736 0.288 0.064 0.064 0.096 0.139 0.096 0.224 0 0.171-0.075 0.341-0.224 0.512-0.066 0.073-0.13 0.146-0.194 0.219-0.046 0.053-0.091 0.106-0.135 0.159-0.003 0.004-0.006 0.007-0.009 0.011-0.194 0.233-0.375 0.465-0.542 0.698-0.353 0.491-0.646 0.982-0.88 1.473-0.213 0.427-0.48 0.661-0.8 0.704-0.213 0.021-0.459 0.032-0.736 0.032h-0.032c-0.064 0-0.16-0.021-0.288-0.064-1.664-0.107-3.189-0.16-4.576-0.16-1.557 0-2.731 0.032-3.52 0.096-0.384 0-0.576 0.107-0.576 0.32s0.011 0.352 0.032 0.416v2.048c0 0.384-0.021 0.64-0.064 0.768 0 0.235 0.107 0.352 0.32 0.352 0.149 0 0.267-0.021 0.352-0.064 0.031-0.011 0.063-0.022 0.094-0.033 0.276-0.094 0.555-0.18 0.837-0.255 0.037-0.010 0.073-0.020 0.11-0.029 0.011-0.003 0.021-0.005 0.032-0.008 0.89-0.228 1.812-0.365 2.766-0.411 2.667 0.021 4.949 0.96 6.848 2.816 1.856 1.792 2.784 4.224 2.784 7.296 0 0.021 0.011 0.107 0.032 0.256v0.288c0 2.475-0.96 4.64-2.88 6.496-2.048 1.984-4.384 2.976-7.008 2.976-2.475 0-4.587-0.491-6.336-1.472-1.707-0.96-2.56-2.592-2.56-4.896 0.043-1.941 0.619-3.36 1.728-4.256 0.946-0.757 2.109-1.14 3.489-1.152 0.021-0 0.042-0 0.063-0h0.352c0.033 0.006 0.066 0.010 0.099 0.014 0.091 0.011 0.181 0.017 0.272 0.018 0.004 0 0.009 0 0.013 0 0.045 0 0.087 0.002 0.128 0.007 0.011 0.001 0.021 0.003 0.032 0.004 0.363 0.052 0.544 0.294 0.544 0.725 0 0.448-0.181 0.693-0.544 0.736h-0.032c-0.043 0.012-0.086 0.024-0.128 0.037-0.12 0.036-0.235 0.076-0.347 0.12-0.012 0.005-0.025 0.010-0.037 0.015-0.031 0.013-0.062 0.025-0.093 0.038-0.002 0.001-0.004 0.002-0.007 0.003-1.363 0.587-2.045 1.732-2.045 3.435 0 1.237 0.448 2.293 1.344 3.168 0.917 0.875 2.027 1.312 3.328 1.312 0.384 0 0.672-0.011 0.864-0.032 1.536-0.235 2.827-0.949 3.872-2.144 1.024-1.152 1.536-2.784 1.536-4.896-0.021-2.005-0.555-3.627-1.6-4.864-1.003-1.195-2.283-1.909-3.84-2.144-0.384-0.064-0.757-0.096-1.12-0.096-0.811 0-1.536 0.192-2.176 0.576-0.917 0.555-1.493 0.949-1.728 1.184-0.341 0.277-0.597 0.416-0.768 0.416-0.597 0-0.896-0.299-0.896-0.896 0-0.576 0.011-1.003 0.032-1.28 0.043-0.811 0.107-1.653 0.192-2.528 0.085-0.768 0.128-1.632 0.128-2.592s-0.043-1.824-0.128-2.592c-0.049-0.505-0.091-1.007-0.127-1.505l-0-0.004c-0.001-0.011-0.002-0.022-0.002-0.033-0.003-0.045-0.006-0.089-0.009-0.134-0.021-0.307-0.039-0.612-0.054-0.917 0-0.171 0.053-0.309 0.16-0.416 0.011-0.011 0.023-0.022 0.034-0.032 0.095-0.085 0.191-0.128 0.286-0.128l0.128 0.032c0.064 0 0.117 0.011 0.16 0.032s0.107 0.032 0.192 0.032zM16.36 1.372c-1.511-0.105-3.455-0.252-5.834-0.439-0.047-0.010-0.094-0.019-0.141-0.025-0.104-0.030-0.205-0.049-0.299-0.061-0.135-0.033-0.273-0.050-0.412-0.050-0.722 0-1.239 0.369-1.532 0.662-0.471 0.471-0.662 1.068-0.662 1.628 0 0.029 0.001 0.057 0.002 0.086 0.044 0.881 0.11 1.772 0.198 2.673l0.002 0.023c0.077 0.692 0.118 1.492 0.118 2.403s-0.041 1.71-0.118 2.403l-0.002 0.023c-0.087 0.891-0.153 1.753-0.197 2.585-0.025 0.345-0.035 0.818-0.035 1.389 0 0.563 0.142 1.3 0.726 1.884 0.176 0.176 0.366 0.312 0.56 0.416-0.428 0.212-0.835 0.47-1.219 0.778l-0.006 0.005c-1.63 1.317-2.315 3.298-2.365 5.552-0 0.013-0 0.025-0 0.038 0 2.793 1.082 5.067 3.434 6.39l0.002 0.001c2.059 1.155 4.474 1.691 7.175 1.691 3.109 0 5.862-1.194 8.199-3.458 2.225-2.151 3.403-4.75 3.403-7.729v-0.287c0-0.081-0.006-0.163-0.017-0.243l-0.012-0.089-0.003-0.019c-0.019-3.398-1.073-6.275-3.304-8.431-1.562-1.526-3.367-2.528-5.384-2.995 0.402 0.019 0.813 0.042 1.235 0.068 0.161 0.041 0.366 0.079 0.587 0.079h0.032c0.319 0 0.623-0.012 0.907-0.040 0.019-0.002 0.037-0.004 0.056-0.007 1.119-0.149 1.768-0.959 2.107-1.637 0.005-0.010 0.010-0.021 0.015-0.031 0.321-0.676 0.806-1.393 1.486-2.149l0.016-0.018c0.331-0.379 0.648-0.935 0.648-1.641 0-0.501-0.181-0.949-0.471-1.297-0.601-0.787-1.508-0.929-2.075-0.929-0.184 0-0.367 0.030-0.542 0.088-0.385 0.128-0.764 0.317-1.105 0.587-0.897 0.124-1.935 0.189-3.121 0.189-0.172 0-0.48-0.009-0.946-0.030l-0.003-0c-0.459-0.020-0.83-0.032-1.1-0.033zM12.222 16.219c0.049-0.035 0.108-0.078 0.181-0.128 0.251-0.172 0.593-0.39 1.035-0.658 0.35-0.21 0.765-0.33 1.292-0.33 0.262 0 0.541 0.023 0.838 0.073l0.026 0.004c1.149 0.173 2.051 0.68 2.782 1.551l0.004 0.004c0.73 0.864 1.176 2.067 1.195 3.767-0.002 1.843-0.448 3.011-1.103 3.748l-0.009 0.010c-0.776 0.887-1.692 1.394-2.801 1.572-0.106 0.009-0.31 0.018-0.645 0.018-0.87 0-1.55-0.274-2.138-0.831-0.565-0.555-0.82-1.168-0.82-1.934 0-0.713 0.161-1.119 0.336-1.359 0.156-0.214 0.425-0.438 0.942-0.601 0.523-0.084 1.082-0.343 1.483-0.885 0.389-0.527 0.472-1.113 0.472-1.539 0-0.491-0.116-1.177-0.651-1.737-0.549-0.574-1.248-0.713-1.767-0.713-0.032 0-0.066-0.003-0.102-0.009-0.093-0.016-0.187-0.023-0.282-0.023h-0.268z"></path>
</svg>
