<!-- Generated by IcoMoon.io -->
<svg version="1.1" xmlns="http://www.w3.org/2000/svg" width="32" height="32" viewBox="0 0 32 32">
<title>num5-fill1</title>
<path d="M10.153 2.606c-0.085 0-0.149-0.011-0.192-0.032s-0.096-0.032-0.16-0.032l-0.128-0.032c-0.107 0-0.213 0.053-0.32 0.16s-0.16 0.245-0.16 0.416c0.043 0.853 0.107 1.717 0.192 2.592 0.085 0.768 0.128 1.632 0.128 2.592s-0.043 1.824-0.128 2.592c-0.085 0.875-0.149 1.717-0.192 2.528-0.021 0.277-0.032 0.704-0.032 1.28 0 0.597 0.299 0.896 0.896 0.896 0.171 0 0.427-0.139 0.768-0.416 0.235-0.235 0.811-0.629 1.728-1.184 0.64-0.384 1.365-0.576 2.176-0.576 0.363 0 0.736 0.032 1.12 0.096 1.557 0.235 2.837 0.949 3.84 2.144 1.045 1.237 1.579 2.859 1.6 4.864 0 2.112-0.512 3.744-1.536 4.896-1.045 1.195-2.336 1.909-3.872 2.144-0.192 0.021-0.48 0.032-0.864 0.032-1.301 0-2.411-0.437-3.328-1.312-0.896-0.875-1.344-1.931-1.344-3.168 0-1.941 0.885-3.157 2.656-3.648h0.032c0.363-0.043 0.544-0.288 0.544-0.736 0-0.491-0.235-0.736-0.704-0.736-0.128 0-0.256-0.011-0.384-0.032-0.213 0-0.331 0-0.352 0-1.408 0-2.592 0.384-3.552 1.152-1.109 0.896-1.685 2.315-1.728 4.256 0 2.304 0.853 3.936 2.56 4.896 1.749 0.981 3.861 1.472 6.336 1.472 2.624 0 4.96-0.992 7.008-2.976 1.92-1.856 2.88-4.021 2.88-6.496 0-0.043 0-0.139 0-0.288-0.021-0.149-0.032-0.235-0.032-0.256 0-3.072-0.928-5.504-2.784-7.296-1.899-1.856-4.181-2.795-6.848-2.816-1.344 0.064-2.624 0.309-3.84 0.736-0.085 0.043-0.203 0.064-0.352 0.064-0.213 0-0.32-0.117-0.32-0.352 0.043-0.128 0.064-0.384 0.064-0.768v-2.048c-0.021-0.064-0.032-0.203-0.032-0.416s0.192-0.32 0.576-0.32c0.789-0.064 1.963-0.096 3.52-0.096 1.387 0 2.912 0.053 4.576 0.16 0.128 0.043 0.224 0.064 0.288 0.064h0.032c0.277 0 0.523-0.011 0.736-0.032 0.32-0.043 0.587-0.277 0.8-0.704 0.405-0.853 0.992-1.707 1.76-2.56 0.149-0.171 0.224-0.341 0.224-0.512 0-0.085-0.032-0.16-0.096-0.224-0.128-0.192-0.373-0.288-0.736-0.288-0.256 0.085-0.469 0.203-0.64 0.352-0.149 0.128-0.363 0.224-0.64 0.288-1.024 0.149-2.187 0.224-3.488 0.224-0.213 0-0.555-0.011-1.024-0.032-0.491-0.021-0.853-0.032-1.088-0.032-1.536-0.107-3.52-0.256-5.952-0.448 0 0 0 0.011 0 0.032l-0.192-0.064z"></path>
</svg>
