<!-- Generated by IcoMoon.io -->
<svg version="1.1" xmlns="http://www.w3.org/2000/svg" width="32" height="32" viewBox="0 0 32 32">
<title>num51</title>
<path d="M9.179 0.373c-0.1 0-0.174-0.012-0.224-0.037s-0.112-0.037-0.187-0.037l-0.149-0.037c-0.124 0-0.249 0.062-0.373 0.187s-0.187 0.286-0.187 0.485c0.050 0.996 0.124 2.004 0.224 3.024 0.1 0.896 0.149 1.904 0.149 3.024s-0.050 2.128-0.149 3.024c-0.1 1.020-0.174 2.004-0.224 2.949-0.025 0.324-0.037 0.821-0.037 1.493 0 0.697 0.348 1.045 1.045 1.045 0.199 0 0.498-0.162 0.896-0.485 0.274-0.274 0.946-0.734 2.016-1.381 0.747-0.448 1.593-0.672 2.539-0.672 0.423 0 0.859 0.037 1.307 0.112 1.817 0.274 3.31 1.108 4.48 2.501 1.22 1.444 1.842 3.335 1.867 5.675 0 2.464-0.597 4.368-1.792 5.712-1.22 1.394-2.725 2.228-4.517 2.501-0.224 0.025-0.56 0.037-1.008 0.037-1.518 0-2.812-0.51-3.883-1.531-1.045-1.020-1.568-2.252-1.568-3.696 0-2.265 1.033-3.684 3.099-4.256h0.037c0.423-0.050 0.635-0.336 0.635-0.859 0-0.572-0.274-0.859-0.821-0.859-0.149 0-0.299-0.012-0.448-0.037-0.249 0-0.386 0-0.411 0-1.643 0-3.024 0.448-4.144 1.344-1.294 1.045-1.966 2.7-2.016 4.965 0 2.688 0.996 4.592 2.987 5.712 2.041 1.145 4.505 1.717 7.392 1.717 3.061 0 5.787-1.157 8.176-3.472 2.24-2.165 3.36-4.692 3.36-7.579 0-0.050 0-0.162 0-0.336-0.025-0.174-0.037-0.274-0.037-0.299 0-3.584-1.083-6.421-3.248-8.512-2.215-2.165-4.878-3.26-7.989-3.285-1.568 0.075-3.061 0.361-4.48 0.859-0.1 0.050-0.236 0.075-0.411 0.075-0.249 0-0.373-0.137-0.373-0.411 0.050-0.149 0.075-0.448 0.075-0.896v-2.389c-0.025-0.075-0.037-0.236-0.037-0.485s0.224-0.373 0.672-0.373c0.921-0.075 2.29-0.112 4.107-0.112 1.618 0 3.397 0.062 5.339 0.187 0.149 0.050 0.261 0.075 0.336 0.075h0.037c0.324 0 0.61-0.012 0.859-0.037 0.373-0.050 0.684-0.324 0.933-0.821 0.473-0.996 1.157-1.991 2.053-2.987 0.174-0.199 0.261-0.398 0.261-0.597 0-0.1-0.037-0.187-0.112-0.261-0.149-0.224-0.436-0.336-0.859-0.336-0.299 0.1-0.548 0.236-0.747 0.411-0.174 0.149-0.423 0.261-0.747 0.336-1.195 0.174-2.551 0.261-4.069 0.261-0.249 0-0.647-0.012-1.195-0.037-0.572-0.025-0.996-0.037-1.269-0.037-1.792-0.124-4.107-0.299-6.944-0.523 0 0 0 0.012 0 0.037l-0.224-0.075z"></path>
</svg>
