<!-- Generated by IcoMoon.io -->
<svg version="1.1" xmlns="http://www.w3.org/2000/svg" width="32" height="32" viewBox="0 0 32 32">
<title>num61</title>
<path d="M19.755 0c-1.792 0-3.671 0.585-5.637 1.755-1.916 1.145-3.646 2.601-5.189 4.368-1.518 1.742-2.75 3.646-3.696 5.712-0.423 0.971-0.734 1.916-0.933 2.837-0.199 0.896-0.299 1.879-0.299 2.949 0 4.654 1.22 8.151 3.659 10.491 2.514 2.364 5.575 3.547 9.184 3.547v-0.037h0.224c2.265-0.025 4.468-1.095 6.608-3.211 2.116-2.091 3.173-4.642 3.173-7.653 0-3.509-1.070-6.16-3.211-7.952-2.14-1.842-4.754-2.763-7.84-2.763-0.423 0-0.684 0.087-0.784 0.261-1.543 2.091-3.285 3.995-5.227 5.712-0.1 0.149-0.274 0.224-0.523 0.224-0.174-0.025-0.261-0.1-0.261-0.224 0.124-2.19 0.61-4.082 1.456-5.675 0.871-1.618 1.879-2.999 3.024-4.144 1.17-1.17 2.34-2.103 3.509-2.8 1.195-0.722 2.165-1.244 2.912-1.568 0.548 0 0.958-0.174 1.232-0.523 0.050-0.149 0.075-0.261 0.075-0.336 0-0.572-0.423-0.859-1.269-0.859l-0.187-0.112zM16.171 29.232c-1.742 0-3.236-0.933-4.48-2.8-1.195-1.792-1.792-3.26-1.792-4.405 0-1.842 0.597-3.472 1.792-4.891 1.269-1.518 2.775-2.277 4.517-2.277 1.767 0 3.26 0.709 4.48 2.128 1.22 1.394 1.829 3.086 1.829 5.077 0 2.016-0.61 3.721-1.829 5.115-1.22 1.419-2.713 2.128-4.48 2.128l-0.037-0.075z"></path>
</svg>
