<!-- Generated by IcoMoon.io -->
<svg version="1.1" xmlns="http://www.w3.org/2000/svg" width="32" height="32" viewBox="0 0 32 32">
<title>num6-outline</title>
<path d="M22.181 3.118c0-0.734-0.31-1.488-1.026-1.972-0.699-0.473-1.124-0.574-1.937-0.574-1.919 0-3.83 0.628-5.708 1.745l-0.003 0.002c-1.805 1.078-3.425 2.445-4.86 4.088l-0.001 0.001c-1.408 1.615-2.554 3.386-3.434 5.309l-0.013 0.029c-0.77 1.766-1.199 3.717-1.199 5.645 0 4.275 1.124 7.794 3.664 10.229l0.012 0.012c2.488 2.341 5.539 3.506 9.047 3.506 0.118 0 0.233-0.012 0.345-0.035 5.257-0.145 9.945-5.474 9.945-11.024 0-3.369-1.043-6.18-3.357-8.123-2.174-1.867-4.819-2.775-7.829-2.775-0.278 0-0.628 0.026-0.982 0.144-0.136 0.045-0.292 0.111-0.45 0.205 0.214-0.254 0.434-0.493 0.66-0.719 0.923-0.923 1.815-1.628 2.673-2.139l0.009-0.005c0.847-0.512 1.521-0.88 2.034-1.122 0.725-0.085 1.448-0.402 1.98-1.079 0.122-0.155 0.216-0.33 0.278-0.517 0.051-0.153 0.152-0.472 0.152-0.83zM22.546 13.262c1.835 1.536 2.752 3.808 2.752 6.816 0 2.581-0.907 4.768-2.72 6.56-1.835 1.813-3.723 2.731-5.664 2.752h-0.192v0.032c-0.317 0-0.63-0.011-0.937-0.032-0.262-0.018-0.52-0.044-0.775-0.078-2.361-0.312-4.414-1.289-6.159-2.93-2.091-2.005-3.136-5.003-3.136-8.992 0-0.917 0.085-1.76 0.256-2.528 0.171-0.789 0.437-1.6 0.8-2.432 0.811-1.771 1.867-3.403 3.168-4.896 1.323-1.515 2.805-2.763 4.448-3.744 1.457-0.867 2.858-1.359 4.204-1.476 0.028-0.002 0.057-0.005 0.085-0.007 0.145-0.011 0.289-0.018 0.433-0.020 0.037-0.001 0.073-0.001 0.11-0.001l0.16 0.096c0.725 0 1.088 0.245 1.088 0.736 0 0.064-0.021 0.16-0.064 0.288-0.229 0.292-0.571 0.441-1.024 0.448l-0.032 0c-0.042 0.018-0.084 0.037-0.128 0.057l-0.053 0.024c-0.049 0.022-0.098 0.045-0.149 0.069l-0.075 0.036c-0.574 0.277-1.271 0.663-2.091 1.158-1.003 0.597-2.005 1.397-3.008 2.4-0.981 0.981-1.845 2.165-2.592 3.552-0.465 0.876-0.803 1.856-1.014 2.943-0.026 0.132-0.049 0.266-0.071 0.402-0.043 0.268-0.079 0.542-0.108 0.822-0.009 0.089-0.017 0.179-0.025 0.269-0.012 0.141-0.022 0.284-0.030 0.428 0 0.107 0.075 0.171 0.224 0.192 0.192 0 0.332-0.052 0.42-0.155 0.010-0.012 0.019-0.024 0.028-0.037 0.284-0.251 0.563-0.507 0.836-0.767 0.108-0.102 0.214-0.205 0.321-0.309 1.207-1.18 2.315-2.454 3.323-3.82 0.085-0.149 0.309-0.224 0.672-0.224 2.645 0 4.885 0.789 6.72 2.368z"></path>
<path d="M10.77 21.166c0-1.579 0.512-2.976 1.536-4.192 1.088-1.301 2.379-1.952 3.872-1.952 1.515 0 2.795 0.608 3.84 1.824 1.045 1.195 1.568 2.645 1.568 4.352 0 1.728-0.523 3.189-1.568 4.384-1.045 1.216-2.325 1.824-3.84 1.824l-0.032-0.064c-1.493 0-2.773-0.8-3.84-2.4-1.024-1.536-1.536-2.795-1.536-3.776zM16.542 25.674c0.823-0.082 1.528-0.456 2.176-1.209l0.010-0.011c0.747-0.854 1.144-1.903 1.144-3.255 0-1.325-0.393-2.366-1.144-3.223l-0.010-0.011c-0.741-0.863-1.557-1.227-2.54-1.227-0.913 0-1.745 0.366-2.557 1.337l-0.004 0.005c-0.766 0.909-1.133 1.916-1.133 3.088 0 0.456 0.271 1.36 1.248 2.825 0.851 1.277 1.657 1.637 2.414 1.637 0.135 0 0.268 0.016 0.396 0.046z"></path>
</svg>
