<!-- Generated by IcoMoon.io -->
<svg version="1.1" xmlns="http://www.w3.org/2000/svg" width="32" height="32" viewBox="0 0 32 32">
<title>num71</title>
<path d="M24.635 0.336c-0.796 0.050-1.979 0.075-3.547 0.075-0.398 0-0.996-0.012-1.792-0.037s-1.394-0.037-1.792-0.037c-3.186-0.149-5.563-0.261-7.131-0.336h-0.224c-0.348 0-0.759 0.137-1.232 0.411s-0.759 0.61-0.859 1.008c-0.274 0.946-0.622 1.842-1.045 2.688-0.523 1.020-1.020 1.904-1.493 2.651-0.124 0.149-0.187 0.361-0.187 0.635 0 0.149 0.025 0.261 0.075 0.336 0.149 0.274 0.398 0.411 0.747 0.411 0.896 0 1.568-0.46 2.016-1.381 0.747-1.319 2.464-2.066 5.152-2.24 0.796-0.075 1.916-0.112 3.36-0.112 1.22 0 2.427 0.062 3.621 0.187 0.498 0 0.747 0.174 0.747 0.523 0 0.1-0.037 0.224-0.112 0.373-1.618 3.186-3.771 7.342-6.459 12.469-2.265 4.306-4.044 8.549-5.339 12.731 0 0 0 0.025 0 0.075-0.025 0.050-0.037 0.087-0.037 0.112 0 0.124 0.037 0.261 0.112 0.411 0.075 0.174 0.249 0.261 0.523 0.261 0.747-0.124 1.444-0.187 2.091-0.187 0.597 0 1.294 0.062 2.091 0.187 0.050 0 0.112 0.012 0.187 0.037 0.050 0 0.087 0 0.112 0 0.498 0 0.796-0.299 0.896-0.896 0.996-5.301 2.476-10.404 4.443-15.307 1.842-4.629 3.92-9.346 6.235-14.149 0.075-0.124 0.112-0.274 0.112-0.448 0-0.299-0.212-0.448-0.635-0.448-0.324 0-0.548 0.012-0.672 0.037l0.037-0.037z"></path>
</svg>
