<!-- Generated by IcoMoon.io -->
<svg version="1.1" xmlns="http://www.w3.org/2000/svg" width="32" height="32" viewBox="0 0 32 32">
<title>num7-fill1</title>
<path d="M23.401 2.574c-0.683 0.043-1.696 0.064-3.040 0.064-0.341 0-0.853-0.011-1.536-0.032s-1.195-0.032-1.536-0.032c-2.731-0.128-4.768-0.224-6.112-0.288h-0.192c-0.299 0-0.651 0.117-1.056 0.352s-0.651 0.523-0.736 0.864c-0.235 0.811-0.533 1.579-0.896 2.304-0.448 0.875-0.875 1.632-1.28 2.272-0.107 0.128-0.16 0.309-0.16 0.544 0 0.128 0.021 0.224 0.064 0.288 0.128 0.235 0.341 0.352 0.64 0.352 0.768 0 1.344-0.395 1.728-1.184 0.64-1.131 2.112-1.771 4.416-1.92 0.683-0.064 1.643-0.096 2.88-0.096 1.045 0 2.080 0.053 3.104 0.16 0.427 0 0.64 0.149 0.64 0.448 0 0.085-0.032 0.192-0.096 0.32-1.387 2.731-3.232 6.293-5.536 10.688-1.941 3.691-3.467 7.328-4.576 10.912 0 0 0 0.021 0 0.064-0.021 0.043-0.032 0.075-0.032 0.096 0 0.107 0.032 0.224 0.096 0.352 0.064 0.149 0.213 0.224 0.448 0.224 0.64-0.107 1.237-0.16 1.792-0.16 0.512 0 1.109 0.053 1.792 0.16 0.043 0 0.096 0.011 0.16 0.032 0.043 0 0.075 0 0.096 0 0.427 0 0.683-0.256 0.768-0.768 0.853-4.544 2.123-8.917 3.808-13.12 1.579-3.968 3.36-8.011 5.344-12.128 0.064-0.107 0.096-0.235 0.096-0.384 0-0.256-0.181-0.384-0.544-0.384-0.277 0-0.469 0.011-0.576 0.032l0.032-0.032z"></path>
</svg>
