<!-- Generated by IcoMoon.io -->
<svg version="1.1" xmlns="http://www.w3.org/2000/svg" width="32" height="32" viewBox="0 0 32 32">
<title>num9-fill1</title>
<path d="M10.985 29.294c1.579 0 3.243-0.491 4.992-1.472 1.792-1.003 3.413-2.251 4.864-3.744 1.493-1.536 2.699-3.168 3.616-4.896 0.448-0.811 0.768-1.611 0.96-2.4 0.213-0.789 0.32-1.632 0.32-2.528 0-4.053-0.885-7.029-2.656-8.928-1.792-2.005-4.245-3.019-7.36-3.040-1.92 0-3.925 0.907-6.016 2.72-1.899 1.643-2.848 3.659-2.848 6.048 0 0.107 0.011 0.267 0.032 0.48s0.032 0.373 0.032 0.48c0 2.987 1.035 5.248 3.104 6.784 2.155 1.579 4.299 2.368 6.432 2.368 0.32 0 0.544-0.075 0.672-0.224 0.299-0.896 0.619-1.568 0.96-2.016 0.341-0.427 1.013-1.013 2.016-1.76 0.107-0.128 0.245-0.192 0.416-0.192 0.149 0.021 0.224 0.085 0.224 0.192-0.149 1.429-0.629 2.741-1.44 3.936-0.832 1.237-1.739 2.283-2.72 3.136s-2.005 1.6-3.072 2.24c-0.981 0.576-1.803 1.024-2.464 1.344h-0.032c-0.555 0.149-0.885 0.299-0.992 0.448-0.064 0.085-0.096 0.181-0.096 0.288 0 0.469 0.363 0.704 1.088 0.704l-0.032 0.032zM16.233 4.75c1.899 0.299 3.168 1.237 3.808 2.816 0.661 1.643 1.035 2.891 1.12 3.744l0.192 1.44c0 0.021 0.011 0.085 0.032 0.192 0 0.107 0 0.171 0 0.192 0 0.277-0.053 0.544-0.16 0.8-0.256 0.533-0.896 1.109-1.92 1.728-1.024 0.597-2.080 0.917-3.168 0.96-2.987 0-4.821-1.888-5.504-5.664-0.107-0.576-0.16-1.056-0.16-1.44 0-1.301 0.416-2.4 1.248-3.296 0.875-1.003 2.037-1.504 3.488-1.504 0.427 0 0.757 0.021 0.992 0.064l0.032-0.032z"></path>
</svg>
