<!-- Generated by IcoMoon.io -->
<svg version="1.1" xmlns="http://www.w3.org/2000/svg" width="32" height="32" viewBox="0 0 32 32">
<title>num9-outline</title>
<path d="M8.644 27.255c0.33-0.45 0.787-0.673 1.004-0.771 0.256-0.116 0.542-0.211 0.832-0.292 0.575-0.286 1.292-0.68 2.158-1.188 0.974-0.585 1.915-1.271 2.822-2.059 0.039-0.034 0.077-0.067 0.115-0.102-2.267-0.192-4.461-1.122-6.563-2.662l-0.009-0.006c-2.578-1.914-3.797-4.729-3.797-8.161 0 0.001 0-0.006-0.001-0.021s-0.002-0.037-0.004-0.064c-0.004-0.056-0.010-0.13-0.019-0.223-0.023-0.226-0.040-0.455-0.040-0.651 0-2.915 1.187-5.394 3.44-7.344 2.267-1.966 4.657-3.139 7.138-3.139l0.012 0c3.508 0.024 6.449 1.183 8.614 3.599 2.186 2.353 3.104 5.839 3.104 10.084 0 1.025-0.121 2.012-0.374 2.954-0.232 0.945-0.609 1.875-1.113 2.79-0.999 1.879-2.302 3.637-3.894 5.275-1.564 1.61-3.317 2.96-5.255 4.045-1.937 1.087-3.889 1.691-5.83 1.691-0.148 0-0.293-0.019-0.432-0.055-0.407-0.043-0.864-0.157-1.283-0.428-0.718-0.464-1.055-1.211-1.055-1.967 0-0.472 0.149-0.924 0.429-1.303zM10.985 27.83c-0.535 0.146-0.855 0.293-0.96 0.439-0.009 0.012-0.018 0.025-0.026 0.038-0.047 0.076-0.070 0.159-0.070 0.25 0 0.455 0.341 0.69 1.023 0.703 0.011 0 0.022 0 0.033 0.001s0.021 0 0.032 0l-0.032 0.032c0.011 0 0.021 0 0.032-0s0.021-0 0.032-0c-0 0 0 0 0 0 0.109-0.001 0.219-0.004 0.328-0.010 0.010-0.001 0.021-0.001 0.031-0.002 0.001 0 0.001-0 0.002-0 0.111-0.006 0.222-0.015 0.333-0.025 0.119-0.011 0.238-0.026 0.358-0.043 0.206-0.029 0.414-0.066 0.623-0.111 1.049-0.226 2.134-0.653 3.253-1.281 1.792-1.003 3.413-2.251 4.864-3.744 1.493-1.536 2.699-3.168 3.616-4.896 0.448-0.811 0.768-1.611 0.96-2.4 0.213-0.789 0.32-1.632 0.32-2.528 0-4.053-0.885-7.029-2.656-8.928-1.792-2.005-4.245-3.019-7.36-3.040-1.92 0-3.925 0.907-6.016 2.72-1.899 1.643-2.848 3.659-2.848 6.048 0 0.107 0.011 0.267 0.032 0.48s0.032 0.373 0.032 0.48c0 2.987 1.035 5.248 3.104 6.784 2.155 1.579 4.299 2.368 6.432 2.368 0.32 0 0.544-0.075 0.672-0.224 0.299-0.896 0.619-1.568 0.96-2.016 0.163-0.203 0.401-0.443 0.714-0.72 0.122-0.107 0.255-0.22 0.399-0.338 0.243-0.2 0.519-0.415 0.827-0.645 0.025-0.019 0.050-0.038 0.076-0.057 0.015-0.018 0.031-0.035 0.048-0.051 0.004-0.003 0.007-0.007 0.011-0.010s0.006-0.005 0.009-0.008c0.075-0.064 0.162-0.103 0.261-0.117 0.028-0.004 0.058-0.006 0.088-0.006 0.149 0.021 0.224 0.085 0.224 0.192-0.017 0.162-0.038 0.322-0.063 0.481-0.013 0.080-0.027 0.159-0.041 0.238-0.034 0.181-0.074 0.36-0.119 0.537-0.068 0.264-0.148 0.523-0.24 0.779-0.241 0.664-0.566 1.298-0.976 1.901-0.832 1.237-1.739 2.283-2.72 3.136s-2.005 1.6-3.072 2.24c-0.728 0.428-1.369 0.785-1.921 1.071-0.040 0.021-0.079 0.041-0.118 0.061-0.080 0.041-0.158 0.080-0.233 0.118-0.065 0.033-0.13 0.064-0.192 0.094h-0.032c-0.011 0.003-0.021 0.006-0.032 0.009zM11.721 6.222c0.875-1.003 2.037-1.504 3.488-1.504 0.427 0 0.757 0.021 0.992 0.064l0.032-0.032c1.899 0.299 3.168 1.237 3.808 2.816 0.661 1.643 1.035 2.891 1.12 3.744l0.192 1.44c0 0.021 0.011 0.085 0.032 0.192v0.192c0 0.277-0.053 0.544-0.16 0.8-0.221 0.46-0.726 0.951-1.517 1.474-0.127 0.084-0.261 0.169-0.403 0.254-0.088 0.051-0.176 0.101-0.265 0.148-0.941 0.502-1.909 0.773-2.903 0.812-2.987 0-4.821-1.888-5.504-5.664-0.107-0.576-0.16-1.056-0.16-1.44 0-1.301 0.416-2.4 1.248-3.296zM16.251 6.495c-0.118 0.003-0.238-0.005-0.357-0.027-0.084-0.015-0.295-0.036-0.685-0.036-1.006 0-1.679 0.324-2.196 0.917-0.012 0.013-0.024 0.027-0.036 0.040-0.518 0.557-0.79 1.23-0.79 2.13 0 0.24 0.035 0.607 0.131 1.128l0.001 0.007c0.307 1.698 0.836 2.747 1.43 3.358 0.544 0.56 1.273 0.89 2.353 0.896 0.768-0.036 1.539-0.262 2.327-0.72 0.446-0.27 0.763-0.504 0.976-0.696 0.151-0.136 0.224-0.227 0.254-0.271 0.007-0.028 0.010-0.056 0.010-0.087v-0.034c-0-0.001-0-0.003-0.001-0.004 0-0-0-0.001-0-0.002-0.002-0.012-0.013-0.073-0.021-0.156l-0.187-1.401c-0.003-0.019-0.005-0.037-0.007-0.056-0.060-0.598-0.353-1.657-1.004-3.272-0.355-0.873-0.992-1.459-2.2-1.713z"></path>
</svg>
