<!-- Generated by IcoMoon.io -->
<svg version="1.1" xmlns="http://www.w3.org/2000/svg" width="32" height="32" viewBox="0 0 32 32">
<title>numNull-fill</title>
<path d="M9.175 13.714l1.184 0.832c0.469 0.043 0.928 0.075 1.376 0.096 0.469 0 0.939 0 1.408 0 1.216 0 2.421-0.011 3.616-0.032 1.216-0.021 2.432-0.032 3.648-0.032 0.341 0 0.64-0.085 0.896-0.256 0.277-0.171 0.565-0.331 0.864-0.48v4.416c-0.32-0.149-0.64-0.32-0.96-0.512-0.299-0.192-0.629-0.288-0.992-0.288-0.341 0-0.821 0-1.44 0-0.597-0.021-1.269-0.032-2.016-0.032s-1.525 0.011-2.336 0.032c-0.789 0.021-1.547 0.064-2.272 0.128-0.704 0.043-1.323 0.117-1.856 0.224-0.533 0.085-0.907 0.203-1.12 0.352-0.021-0.363-0.032-0.725-0.032-1.088 0-0.384 0-0.757 0-1.12s0-0.736 0-1.12c0.021-0.384 0.032-0.757 0.032-1.12z"></path>
</svg>
