<!-- Generated by IcoMoon.io -->
<svg version="1.1" xmlns="http://www.w3.org/2000/svg" width="32" height="32" viewBox="0 0 32 32">
<title>numNull-outline</title>
<path d="M10.16 12.312l0.804 0.565c0.275 0.021 0.546 0.038 0.812 0.051h1.367c1.206 0 2.401-0.011 3.585-0.032 1.224-0.021 2.449-0.032 3.673-0.032l0.003-0.002c0.321-0.198 0.653-0.382 0.996-0.553 0.531-0.266 1.163-0.237 1.668 0.075s0.813 0.864 0.813 1.458v4.416c0 0.586-0.299 1.131-0.793 1.446s-1.115 0.355-1.646 0.108c-0.377-0.176-0.749-0.375-1.117-0.596-0.015-0.009-0.030-0.018-0.045-0.028s-0.023-0.012-0.023-0.012-0.014-0.004-0.042-0.004h-1.44c-0.020 0-0.041-0-0.061-0.001-0.573-0.020-1.224-0.031-1.955-0.031-0.73 0-1.493 0.010-2.29 0.031-0.757 0.020-1.48 0.061-2.168 0.122-0.016 0.001-0.031 0.003-0.047 0.004-0.647 0.039-1.185 0.106-1.623 0.194-0.022 0.004-0.043 0.008-0.065 0.012-0.213 0.034-0.353 0.068-0.437 0.095-0.015 0.005-0.026 0.009-0.035 0.012-0.5 0.317-1.13 0.355-1.666 0.096-0.559-0.27-0.928-0.822-0.965-1.442-0.023-0.396-0.035-0.792-0.035-1.189v-2.24c0-0.032 0.001-0.063 0.003-0.095l0.029-1.025c0-0.64 0.356-1.226 0.924-1.521s1.252-0.249 1.776 0.119zM11.735 14.642c-0.448-0.021-0.907-0.053-1.376-0.096l-1.184-0.832c0 0.363-0.011 0.736-0.032 1.12v2.24c0 0.363 0.011 0.725 0.032 1.088 0.213-0.149 0.587-0.267 1.12-0.352 0.182-0.036 0.373-0.069 0.574-0.098 0.39-0.056 0.817-0.098 1.282-0.126 0.725-0.064 1.483-0.107 2.272-0.128 0.811-0.021 1.589-0.032 2.336-0.032s1.419 0.011 2.016 0.032h1.44c0.081 0 0.16 0.005 0.238 0.014 0.271 0.033 0.522 0.124 0.754 0.274 0.32 0.192 0.64 0.363 0.96 0.512v-4.416c-0.299 0.149-0.587 0.309-0.864 0.48-0.244 0.163-0.528 0.248-0.85 0.256-0.015 0-0.030 0-0.046 0-1.216 0-2.432 0.011-3.648 0.032-1.195 0.021-2.4 0.032-3.616 0.032h-1.408z"></path>
</svg>
