<!-- Generated by IcoMoon.io -->
<svg version="1.1" xmlns="http://www.w3.org/2000/svg" width="32" height="32" viewBox="0 0 32 32">
<title>overlap</title>
<path fill="#394852" d="M12.6 5.2c-1.316 0-2.4 1.084-2.4 2.4v0.4h1.6v-0.4c0-0.451 0.349-0.8 0.8-0.8h11.8c0.451 0 0.8 0.349 0.8 0.8v11.8c0 0.451-0.349 0.8-0.8 0.8h-0.4v1.6h0.4c1.316 0 2.4-1.084 2.4-2.4v-11.8c0-1.316-1.084-2.4-2.4-2.4zM7.6 10.2c-1.316 0-2.4 1.084-2.4 2.4v11.8c0 1.316 1.084 2.4 2.4 2.4h11.8c1.316 0 2.4-1.084 2.4-2.4v-0.4h-1.6v0.4c0 0.451-0.349 0.8-0.8 0.8h-11.8c-0.451 0-0.8-0.349-0.8-0.8v-11.8c0-0.451 0.349-0.8 0.8-0.8h0.4v-1.6z"></path>
<path fill="#394852" d="M10.2 10.2v9.2c0 1.316 1.084 2.4 2.4 2.4h9.2v-9.2c0-1.316-1.084-2.4-2.4-2.4zM11.8 11.8h7.6c0.451 0 0.8 0.349 0.8 0.8v7.6h-7.6c-0.451 0-0.8-0.349-0.8-0.8z"></path>
</svg>
