<!-- Generated by IcoMoon.io -->
<svg version="1.1" xmlns="http://www.w3.org/2000/svg" width="32" height="32" viewBox="0 0 32 32">
<title>parallel1</title>
<path d="M11.271 2c-0.601 1.567-1.201 3.133-1.803 4.698l-3.113 4.495 0.082 0.094 3.19-1.107c-0.326 2.638-0.207 5.166-0.085 7.818 0.081 1.644-0.044 3.288 0.264 4.932 0.164 0.822 0.026 1.644 0.281 2.466 0.228 0.822 0.813 3.781 1.183 4.604 0.37-0.822 0.955-3.782 1.183-4.604 0.256-0.822 0.117-1.644 0.281-2.466 0.309-1.644 0.184-3.288 0.264-4.932 0.121-2.651 0.241-5.178-0.085-7.814l3.163 1.104 0.109-0.094-3.113-4.495c-0.601-1.566-1.201-3.132-1.803-4.698zM20.416 2c-0.37 0.822-0.955 3.781-1.182 4.604-0.256 0.822-0.118 1.644-0.282 2.466-0.309 1.644-0.184 3.288-0.264 4.932-0.121 2.651-0.241 5.177 0.085 7.814l-3.163-1.104-0.109 0.094 3.113 4.495c0.601 1.566 1.201 3.132 1.803 4.698 0.601-1.566 1.202-3.132 1.803-4.698l3.113-4.495-0.082-0.094-3.19 1.107c0.326-2.638 0.207-5.166 0.085-7.817-0.080-1.644 0.044-3.288-0.264-4.932-0.164-0.822-0.026-1.644-0.282-2.466-0.227-0.822-0.813-3.781-1.183-4.604z"></path>
</svg>
