<!-- Generated by IcoMoon.io -->
<svg version="1.1" xmlns="http://www.w3.org/2000/svg" width="32" height="32" viewBox="0 0 32 32">
<title>penguins</title>
<path d="M14.651 5.692c-0.010 0.003-0.020 0.003-0.031 0.005-0.038 0.145-0.077 0.296-0.153 0.429-0.092 0.156-0.199 0.314-0.258 0.482-0.1 0.301 0.003 0.645-0.071 0.957-0.026 0.094-0.036 0.194-0.064 0.288-0.020 0.064-0.059 0.122-0.077 0.184-0.023 0.082-0.010 0.148-0.051 0.227-0.056 0.112-0.1 0.23-0.156 0.339-0.043 0.079-0.048 0.138-0.064 0.219-0.008 0.036-0.026 0.048-0.031 0.092-0.008 0.043 0.010 0.089-0.003 0.133-0.069 0.293-0.046 0.599-0.125 0.898-0.054 0.199-0.094 0.398-0.179 0.584-0.087 0.194-0.153 0.398-0.224 0.599-0.092 0.258-0.288 0.474-0.367 0.737-0.015 0.051-0.015 0.097-0.033 0.145-0.023 0.064-0.054 0.094-0.056 0.166-0.018 0.281 0 0.569 0 0.849 0 0.316 0.003 0.62 0.064 0.929 0.018 0.082 0.018 0.161 0.038 0.245 0.013 0.059 0.033 0.117 0.046 0.173 0.031 0.138 0.059 0.283 0.071 0.426 0.013 0.166 0.051 0.329 0.071 0.49 0.010 0.061 0.033 0.115 0.041 0.176 0.005 0.056-0.013 0.115 0 0.168 0.010 0.043 0.036 0.102 0.048 0.15 0.036 0.125 0.094 0.227 0.097 0.357 0 0.056 0.003 0.117 0 0.173-0.005 0.071-0.033 0.133-0.038 0.204-0.010 0.094 0.003 0.194 0 0.288 0 0.148-0.043 0.332-0.11 0.459-0.071 0.14-0.125 0.268-0.24 0.375-0.092 0.084-0.087 0.194-0.148 0.286-0.018 0.026-0.048 0.033-0.066 0.056-0.028 0.041-0.038 0.094-0.059 0.14-0.084 0.176-0.148 0.365-0.204 0.556-0.018 0.059-0.046 0.12-0.054 0.179-0.013 0.094 0.018 0.189-0.008 0.281-0.041 0.163-0.028 0.334-0.054 0.503-0.028 0.186-0.003 0.413-0.054 0.594-0.015 0.054-0.048 0.102-0.061 0.156-0.013 0.064 0 0.122-0.013 0.184-0.015 0.077-0.061 0.13-0.066 0.209-0.005 0.064 0.010 0.133-0.003 0.196-0.033 0.173-0.023 0.342-0.041 0.518-0.010 0.11-0.043 0.217-0.059 0.326-0.015 0.117-0.018 0.235-0.033 0.352-0.041 0.281-0.059 0.548-0.051 0.834 0.005 0.158 0.059 0.311 0.084 0.467 0.041 0.25 0.13 0.472 0.212 0.707 0.064 0.184 0.173 0.337 0.24 0.518 0.059 0.156 0.107 0.316 0.161 0.474 0.066 0.184 0.145 0.362 0.186 0.551 0.028 0.138 0.077 0.304 0.135 0.431 0.048 0.107 0.117 0.199 0.163 0.309 0.079 0.184 0.196 0.36 0.255 0.554 0.054 0.181 0.079 0.383 0.117 0.569 0.013 0.064 0.079 0.329-0.005 0.357-0.242-0.235-0.324-0.531-0.49-0.811-0.059-0.074-0.105-0.156-0.133-0.245-0.018-0.084-0.048-0.163-0.1-0.232-0.036-0.041-0.064-0.087-0.087-0.138 0-0.031-0.005-0.061-0.013-0.092-0.023-0.046-0.066-0.077-0.092-0.133-0.061-0.148-0.158-0.276-0.24-0.416-0.033-0.059-0.061-0.153-0.12-0.191 0.069 0.061 0.102 0.125 0.122 0.219 0.018 0.074 0.092 0.278 0.026 0.332-0.1 0.079-0.217-0.125-0.232-0.191-0.020-0.089-0.005-0.191-0.005-0.281 0-0.151 0.026-0.326-0.003-0.472-0.023-0.125-0.094-0.232-0.115-0.362-0.033-0.189-0.097-0.383-0.105-0.574-0.010-0.273 0.003-0.546 0.003-0.819 0 0.122 0.028 0.227 0.038 0.347 0.015 0.186-0.028 0.372 0.031 0.546-0.082-0.087-0.156-0.232-0.191-0.347-0.023-0.077-0.031-0.156-0.061-0.232-0.018-0.046-0.056-0.087-0.069-0.128-0.018-0.054-0.008-0.12-0.020-0.176-0.020-0.082-0.043-0.153-0.051-0.237-0.020-0.176-0.046-0.342-0.071-0.515-0.015-0.102-0.013-0.204-0.043-0.301-0.105-0.332-0.11-0.681-0.11-1.025 0-0.179 0.033-0.393 0.003-0.566-0.013-0.064-0.041-0.064-0.069-0.112-0.059-0.107-0.041-0.286-0.043-0.401-0.005-0.189-0.038-0.365-0.038-0.554 0-0.151-0.026-0.283-0.036-0.429-0.005-0.079-0.036-0.145-0.038-0.222-0.005-0.089 0-0.181 0-0.27v-0.378c0-0.222 0-0.441 0-0.661 0.003-0.148-0.036-0.283-0.036-0.429-0.003-0.115 0.008-0.232-0.008-0.347-0.046-0.329-0.010-0.668-0.069-0.992-0.010-0.066-0.051-0.128-0.061-0.194-0.023-0.12 0.003-0.242-0.010-0.362-0.010-0.069-0.038-0.288-0.112-0.326 0.020 0.138 0.043 0.268 0.043 0.408 0 0.24-0.023 0.421-0.084 0.65-0.061 0.227-0.094 0.296-0.237 0.472-0.107 0.138-0.179 0.209-0.316 0.301-0.11 0.071-0.23 0.145-0.319 0.24-0.023 0.036-0.048 0.071-0.079 0.102-0.043 0.031-0.087 0.059-0.13 0.089-0.102 0.089-0.196 0.217-0.27 0.329-0.064 0.099-0.107 0.107-0.207 0.179-0.092 0.066-0.181 0.107-0.273 0.176-0.107 0.077-0.214 0.151-0.324 0.224-0.046 0.028-0.084 0.061-0.117 0.105-0.138 0.094-0.311 0.153-0.383 0.309-0.061 0.13-0.153 0.235-0.26 0.332-0.089 0.084-0.115 0.166-0.161 0.273-0.028 0.064-0.051 0.125-0.074 0.194-0.041 0.122-0.082 0.138-0.186 0.219-0.094 0.074-0.184 0.156-0.265 0.245-0.036 0.036-0.064 0.077-0.082 0.125-0.059 0.064-0.122 0.092-0.168 0.171-0.054 0.099-0.099 0.171-0.122 0.288-0.018 0.092-0.036 0.194-0.092 0.27-0.051 0.071-0.133 0.094-0.186 0.161-0.061 0.077-0.089 0.179-0.133 0.263-0.079 0.166-0.179 0.319-0.26 0.485-0.082 0.163-0.158 0.314-0.25 0.469-0.036 0.061-0.048 0.128-0.087 0.186-0.064 0.107-0.14 0.204-0.253 0.263-0.097 0.036-0.194 0.071-0.291 0.105-0.061 0.008-0.087 0.036-0.077 0.084-0.020 0.046-0.015 0.102-0.061 0.14-0.158-0.107-0.204-0.293-0.263-0.457-0.048-0.138-0.036-0.276-0.036-0.418-0.003-0.13 0.018-0.219 0.066-0.342 0.059-0.145 0.158-0.276 0.247-0.403 0.066-0.074 0.122-0.158 0.161-0.25 0.005-0.059 0.018-0.115 0.038-0.168 0.064-0.214 0.135-0.429 0.219-0.635 0.064-0.158 0.089-0.326 0.156-0.485 0.036-0.082 0.064-0.166 0.102-0.247 0.117-0.26 0.24-0.515 0.355-0.778 0.082-0.179 0.171-0.36 0.255-0.538 0.069-0.125 0.143-0.247 0.219-0.37 0.028-0.051 0.056-0.105 0.084-0.156 0.043-0.056 0.11-0.087 0.117-0.161 0.026-0.005 0.046-0.005 0.064-0.026 0.092-0.094 0.158-0.247 0.235-0.355 0.105-0.151 0.217-0.293 0.324-0.441 0.161-0.219 0.276-0.469 0.411-0.694 0.031-0.051 0.048-0.11 0.077-0.161 0.064-0.11 0.15-0.184 0.242-0.265 0.071-0.064 0.156-0.125 0.219-0.191 0.117-0.125 0.202-0.314 0.275-0.464 0.107-0.224 0.212-0.533 0.39-0.714 0.056-0.056 0.133-0.077 0.194-0.125 0.059-0.048 0.138-0.115 0.191-0.171 0.056-0.056 0.069-0.15 0.122-0.212 0.046-0.056 0.115-0.084 0.171-0.128 0.1-0.077 0.191-0.176 0.278-0.268 0.268-0.281 0.536-0.582 0.783-0.88 0.122-0.15 0.202-0.326 0.316-0.48 0.1-0.133 0.217-0.247 0.334-0.362 0.064-0.059 0.128-0.122 0.194-0.184 0.059-0.056 0.133-0.087 0.181-0.153 0.031-0.038 0.046-0.087 0.082-0.125 0.089-0.092 0.186-0.179 0.27-0.281 0.064-0.077 0.097-0.14 0.145-0.219 0.097-0.161 0.247-0.286 0.349-0.446 0.112-0.179 0.196-0.367 0.316-0.541 0.041-0.059 0.077-0.089 0.092-0.158 0.010-0.036-0.003-0.11 0-0.143 0.005-0.128 0.031-0.247 0.074-0.367 0.074-0.204 0.166-0.39 0.219-0.602 0.041-0.15 0.107-0.296 0.156-0.444 0.059-0.184 0.026-0.421 0.026-0.617 0-0.344-0.023-0.696 0-1.041 0.003-0.054 0.020-0.084 0.031-0.135 0.013-0.079 0.005-0.145 0.005-0.227 0.003-0.413 0.074-0.832 0.13-1.242 0.036-0.27 0.11-0.61 0.324-0.804 0.105-0.092 0.311-0.255 0.464-0.227z"></path>
<path d="M24.617 4.886c-0.153 0.036-0.355 0.056-0.513 0.043-0.099-0.008-0.196-0.054-0.291-0.087-0.135-0.046-0.293-0.089-0.429-0.143-0.212-0.084-0.403-0.258-0.64-0.255-0.084 0.003-0.151 0.026-0.232 0.048-0.135 0.036-0.268 0.028-0.406 0.026-0.138 0-0.276 0.008-0.413 0.003-0.084-0.003-0.161-0.033-0.245-0.038s-0.171 0.003-0.258 0.003c-0.217-0.003-0.423-0.128-0.635-0.176-0.089-0.018-0.362 0.033-0.408-0.043 0.092-0.133 0.148-0.304 0.26-0.423 0.082-0.087 0.191-0.158 0.283-0.235 0.074-0.061 0.138-0.094 0.227-0.13 0.247-0.099 0.487-0.212 0.73-0.324 0.125-0.056 0.265-0.097 0.383-0.158 0.344-0.176 0.796-0.089 1.166-0.023 0.041 0.010 0.084 0.010 0.128 0.005 0.023 0.005 0.046 0.013 0.069 0.020 0.245 0.028 0.485 0.079 0.712 0.166-0.003-0.010-0.005-0.018-0.010-0.028-0.059-0.196-0.074-0.472-0.224-0.617-0.122-0.12-0.273-0.209-0.406-0.319-0.173-0.056-0.349-0.115-0.523-0.171-0.217-0.018-0.444 0-0.658 0-0.14 0-0.283 0.005-0.423 0.003-0.138-0.003-0.23-0.066-0.355-0.112-0.395-0.046-0.786-0.13-1.171-0.25-0.036-0.003-0.071-0.008-0.11-0.008-0.153 0.003-0.293-0.003-0.439 0.059-0.043 0.018-0.082 0.043-0.122 0.069-0.056-0.026-0.117-0.064-0.168-0.089-0.145-0.077-0.276-0.112-0.436-0.166-0.207-0.069-0.37-0.224-0.561-0.319-0.133-0.069-0.288-0.133-0.436-0.138-0.112-0.005-0.222 0.013-0.326 0.020-0.107 0.008-0.281-0.036-0.385-0.048-0.13-0.015-0.26-0.043-0.39-0.046-0.199-0.008-0.398 0-0.594 0-0.12 0-0.186-0.003-0.283 0.046-0.15 0.071-0.296 0.133-0.431 0.219-0.059 0.038-0.135 0.064-0.186 0.107-0.054 0.048-0.102 0.117-0.156 0.168-0.066 0.066-0.143 0.122-0.212 0.184-0.061 0.059-0.122 0.125-0.186 0.189-0.337 0.337-0.75 0.533-0.913 1.013-0.038 0.112-0.071 0.247-0.079 0.365-0.010 0.133-0.059 0.232-0.082 0.36-0.023 0.125-0.071 0.235-0.105 0.352-0.013 0.046 0.008 0.107-0.005 0.158-0.010 0.048-0.036 0.097-0.056 0.143-0.038 0.097-0.105 0.222-0.12 0.321-0.013 0.084-0.015 0.179-0.028 0.265-0.054 0.388 0.031 0.786 0.028 1.173 0 0.105 0.028 0.24 0.003 0.339-0.028 0.112-0.036 0.209-0.038 0.334 0 0.099-0.020 0.202-0.046 0.298-0.023 0.094-0.028 0.168-0.028 0.265 0 0.084 0 0.171 0 0.255 0.003 0.207-0.033 0.408-0.038 0.615-0.003 0.112-0.003 0.189-0.041 0.293-0.084 0.242-0.153 0.49-0.232 0.732-0.041 0.13-0.087 0.255-0.13 0.383-0.023 0.066-0.015 0.135-0.036 0.194-0.028 0.084-0.1 0.158-0.135 0.242-0.028 0.064-0.033 0.133-0.064 0.196-0.026 0.054-0.054 0.105-0.079 0.158-0.077 0.171-0.24 0.316-0.24 0.51 0.163-0.056 0.375-0.046 0.49-0.171 0.071-0.079 0.084-0.161 0.112-0.258 0.026-0.097 0.046-0.196 0.074-0.293 0.051-0.181 0.125-0.334 0.204-0.508 0.082-0.179 0.138-0.365 0.219-0.536 0.082-0.166 0.153-0.342 0.253-0.497 0.071-0.105 0.148-0.209 0.194-0.329 0.026-0.066 0.051-0.12 0.071-0.181 0.051-0.148 0.079-0.314 0.112-0.469 0.031-0.138 0.020-0.276 0.043-0.411 0.038-0.224 0.112-0.446 0.168-0.668 0.041-0.156 0.054-0.309 0.087-0.467 0.015-0.071 0.074-0.173 0.13-0.222 0.061-0.056 0.179-0.066 0.268-0.071 0.059-0.005 0.163-0.018 0.219 0.005 0.089 0.038 0.125 0.209 0.156 0.291 0.028 0.069 0.020 0.117 0.071 0.171 0.117 0.128 0.334 0.125 0.472 0.23 0.12 0.094 0.145 0.321 0.278 0.413 0.041 0.031 0.071 0.020 0.122 0.026 0.046 0.005 0.064 0.018 0.107 0.028 0.12 0.033 0.268 0.010 0.39 0.010 0.235 0 0.452 0.026 0.663-0.084 0.089-0.046 0.171-0.084 0.23-0.173 0.046-0.071 0.079-0.153 0.145-0.212 0.074-0.066 0.176-0.105 0.258-0.163 0.079-0.059 0.148-0.138 0.217-0.209 0.128-0.125 0.245-0.26 0.383-0.372 0.084-0.069 0.069-0.051 0.125 0.023 0.041 0.051 0.105 0.084 0.158 0.117 0.082 0.051 0.186 0.066 0.278 0.087 0.179 0.036 0.298 0.031 0.454 0.138 0.133 0.094 0.286 0.156 0.413 0.258 0.046 0.038 0.089 0.082 0.135 0.125 0.352-0.031 0.704-0.036 1.056-0.020-0.074-0.115-0.158-0.222-0.255-0.288-0.14-0.097-0.263-0.194-0.36-0.332-0.074-0.105-0.176-0.176-0.258-0.265-0.122-0.135-0.306-0.209-0.429-0.355-0.069-0.079-0.13-0.151-0.214-0.214-0.033-0.026-0.176-0.092-0.163-0.148 0.020-0.082 0.278-0.031 0.326-0.015 0.168 0.056 0.326 0.125 0.49 0.199 0.196 0.089 0.449 0.122 0.666 0.145 0.161 0.015 0.337-0.038 0.495-0.071 0.219-0.046 0.449-0.074 0.673-0.074 0.082 0 0.168-0.013 0.247 0.005 0.115 0.026 0.194 0.064 0.316 0.069 0.209 0.008 0.418 0.010 0.628 0.033 0.227 0.023 0.444 0.138 0.658 0.212 0.196 0.066 0.309 0.048 0.497-0.005 0.107-0.033 0.255-0.054 0.349-0.122 0.043-0.033 0.059-0.079 0.084-0.133 0.059-0.117 0.12-0.227 0.153-0.357 0.036-0.143 0.043-0.281 0.056-0.426-0.064 0.227-0.324 0.487-0.548 0.541z"></path>
<path d="M19.539 1.845c-0.051 0.010-0.115 0.005 0.059-0.020-0.020 0.008-0.038 0.015-0.059 0.020z"></path>
<path d="M19.267 5.656c0 0.138-0.026 0.253-0.092 0.375-0.054 0.105-0.094 0.222-0.125 0.339-0.071 0.273-0.117 0.577-0.179 0.86-0.112 0.531 0.202 0.972 0.37 1.439 0.028 0.079 0.033 0.171 0.069 0.25 0.028 0.059 0.077 0.11 0.112 0.168 0.048 0.084 0.077 0.181 0.13 0.265 0.041 0.064 0.087 0.115 0.115 0.186 0.038 0.102 0.059 0.232 0.13 0.311 0.089 0.102 0.133 0.24 0.212 0.349 0.077 0.11 0.128 0.24 0.173 0.362 0.056 0.143 0.135 0.27 0.202 0.406 0.036 0.071 0.066 0.135 0.115 0.199 0.046 0.061 0.046 0.133 0.084 0.196 0.061 0.1 0.143 0.194 0.204 0.293 0.092 0.145 0.212 0.268 0.304 0.411 0.061 0.1 0.153 0.207 0.189 0.316 0.031 0.1 0.069 0.209 0.112 0.309 0.041 0.094 0.122 0.176 0.181 0.27 0.079 0.133 0.204 0.23 0.296 0.349 0.094 0.125 0.168 0.27 0.27 0.388 0.026 0.031 0.064 0.056 0.087 0.087 0.041 0.059 0.051 0.12 0.105 0.173 0.069 0.071 0.161 0.153 0.242 0.214 0.107 0.079 0.191 0.168 0.276 0.275 0.145 0.184 0.375 0.273 0.561 0.411 0.143 0.107 0.24 0.207 0.418 0.258 0.153 0.043 0.344 0.033 0.467 0.14 0.054 0.048 0.176 0.148 0.204 0.217 0.028 0.061 0.031 0.087 0.079 0.143 0.077 0.092 0.122 0.204 0.191 0.304 0.099 0.15 0.191 0.304 0.286 0.454 0.033 0.051 0.059 0.107 0.092 0.161 0.046 0.074 0.094 0.107 0.148 0.173 0.043 0.054 0.071 0.125 0.125 0.176 0.048 0.043 0.097 0.071 0.138 0.125 0.102 0.135 0.245 0.286 0.301 0.446 0.11 0.304 0.227 0.643 0.444 0.885 0.122 0.138 0.191 0.314 0.291 0.467 0.046 0.069 0.094 0.143 0.138 0.219 0.041 0.074 0.107 0.128 0.153 0.202 0.015 0.026 0.041 0.056 0.056 0.074 0.061 0.097 0.079 0.212 0.112 0.326 0.043 0.153 0.082 0.314 0.143 0.459 0.056 0.138 0.115 0.258 0.14 0.403 0.023 0.125 0.026 0.158-0.003 0.273-0.043 0.196-0.008 0.441 0.041 0.63 0.033 0.125 0.105 0.219 0.135 0.334 0.015 0.064 0.048 0.14 0.061 0.204 0.018 0.107-0.023 0.212-0.056 0.309-0.028 0.082-0.069 0.151-0.107 0.227-0.043 0.089-0.217 0.349-0.334 0.326 0.003-0.048-0.023-0.059-0.043-0.094-0.041-0.066-0.056-0.161-0.102-0.224-0.051-0.071-0.14-0.117-0.196-0.186-0.094-0.11-0.14-0.227-0.209-0.355-0.133-0.24-0.321-0.462-0.477-0.689-0.13-0.196-0.199-0.459-0.265-0.684-0.084-0.283-0.217-0.592-0.383-0.837-0.105-0.156-0.26-0.268-0.38-0.413-0.156-0.184-0.365-0.291-0.526-0.459-0.161-0.166-0.161-0.439-0.329-0.61-0.122-0.128-0.286-0.186-0.429-0.283-0.242-0.161-0.474-0.334-0.724-0.487-0.099-0.059-0.151-0.122-0.224-0.204-0.079-0.092-0.148-0.207-0.26-0.26-0.115-0.054-0.219-0.013-0.337-0.043-0.25-0.061-0.418-0.372-0.594-0.541-0.107-0.102-0.219-0.173-0.337-0.26-0.051-0.041-0.145-0.112-0.214-0.11-0.117 0.151-0.054 0.518-0.054 0.696 0 0.196 0.003 0.395 0 0.592-0.003 0.077-0.005 0.14 0.008 0.214 0.028 0.161 0.087 0.309 0.11 0.469 0.028 0.171 0.031 0.337 0.033 0.51 0.003 0.283-0.005 0.566-0.005 0.849 0.003 0.11-0.005 0.196-0.036 0.298-0.084 0.276-0.12 0.554-0.173 0.834-0.038 0.189-0.084 0.362-0.082 0.556 0 0.281 0.046 0.599-0.043 0.867-0.105 0.316-0.281 0.63-0.457 0.911-0.087 0.14-0.117 0.27-0.179 0.421-0.069 0.173-0.11 0.258-0.135 0.444-0.031 0.212-0.061 0.434-0.107 0.64-0.12 0.556-0.258 1.105-0.255 1.681 0.003 0.173 0.023 0.355-0.056 0.513-0.161 0.324-0.477 0.564-0.681 0.867-0.13 0.194-0.362 0.431-0.398 0.671-0.013 0.087 0.003 0.186 0.003 0.276 0 0.041 0.020 0.161-0.020 0.179-0.048 0.023-0.056-0.033-0.092-0.054-0.069-0.036-0.288-0.036-0.367-0.018-0.059 0.013-0.107 0.061-0.163 0.087-0.036 0.015-0.069 0.028-0.099 0.051-0.038 0.028-0.066 0.071-0.102 0.099-0.069 0.059-0.181 0.097-0.186 0.199-0.296 0.061-0.602 0.079-0.893 0.166-0.084 0.023-0.166 0.056-0.255 0.087-0.028-0.028 0.015-0.168 0.018-0.214 0.005-0.133-0.010-0.268-0.003-0.401 0.005-0.11 0.038-0.212 0.038-0.324 0-0.051-0.005-0.099 0.008-0.151 0.059-0.232 0.161-0.452 0.184-0.696 0.015-0.168 0.023-0.357 0.071-0.518 0.028-0.084 0.077-0.166 0.11-0.247 0.079-0.194 0.14-0.342 0.14-0.556 0-0.194-0.064-0.375-0.074-0.564-0.008-0.107 0.008-0.209-0.008-0.316-0.010-0.069-0.028-0.135-0.031-0.209 0.105 0.161 0.105 0.352 0.151 0.533 0.051 0.217 0.074 0.457 0.071 0.679 0 0.207-0.018 0.431 0.028 0.622 0.015 0.064 0.020 0.117 0.059 0.176 0.054 0.077 0.117 0.117 0.161 0.202 0.041 0.077 0.069 0.125 0.087 0.209 0.013 0.064 0.026 0.112 0.069 0.163 0.061 0.074 0.151 0.117 0.25 0.125 0.219 0.013 0.416-0.074 0.508-0.268 0.041-0.089 0.097-0.138 0.158-0.209 0.084-0.094 0.112-0.24 0.166-0.349 0.043-0.089 0.071-0.176 0.107-0.268 0.066-0.173 0.191-0.321 0.306-0.462 0.117-0.14 0.181-0.24 0.245-0.408 0.061-0.161 0.148-0.301 0.184-0.472 0.031-0.158 0.054-0.311 0.092-0.467 0.020-0.087 0.028-0.168 0.038-0.255 0.018-0.14 0.079-0.281 0.117-0.418 0.033-0.125 0.087-0.247 0.102-0.378 0.010-0.084 0.020-0.156 0.043-0.237 0.041-0.145 0.074-0.311 0.14-0.446 0.031-0.061 0.094-0.094 0.125-0.153 0.023-0.043 0.033-0.112 0.046-0.161 0.023-0.079 0.038-0.163 0.066-0.237 0.092-0.237 0.199-0.464 0.199-0.722 0.003-0.334 0.038-0.663 0.038-1 0-0.36 0.003-0.719 0-1.079-0.003-0.138 0.036-0.268 0.038-0.406 0.003-0.158-0.005-0.316-0.003-0.474 0.003-0.105 0.036-0.199 0.038-0.304 0-0.097-0.003-0.191-0.003-0.286 0.003-0.385 0.074-0.765 0.074-1.148 0-0.446-0.015-0.895 0.028-1.337 0.036-0.352 0.046-0.694 0.046-1.046 0-0.326 0-0.653 0-0.98 0-0.184-0.010-0.362-0.036-0.543-0.013-0.1-0.079-0.191-0.11-0.291-0.020-0.059-0.033-0.12-0.038-0.184-0.008-0.089-0.043-0.161-0.066-0.247-0.066-0.26-0.14-0.503-0.281-0.735-0.099-0.161-0.196-0.311-0.253-0.495-0.051-0.171-0.061-0.355-0.087-0.531-0.013-0.077-0.041-0.145-0.051-0.219-0.12-0.020-0.151-0.107-0.196-0.207-0.071-0.163-0.115-0.314-0.156-0.492-0.023-0.092-0.038-0.247-0.089-0.329-0.041-0.066-0.117-0.128-0.168-0.189-0.161-0.202-0.23-0.444-0.378-0.656-0.102-0.143-0.138-0.306-0.217-0.462-0.212-0.421-0.339-0.954-0.133-1.395 0.020-0.041 0.015-0.079 0.031-0.122 0.018-0.056 0.061-0.112 0.084-0.168 0.059-0.14 0.125-0.276 0.166-0.421 0.033-0.133 0.107-0.281 0.11-0.418 0.003-0.092 0.018-0.151 0.036-0.24z"></path>
<path d="M18.168 28.184c0.069 0.071 0.074 0.176 0.184 0.212 0.148 0.051 0.367 0.008 0.52 0.008h0.283c0.071 0 0.153-0.010 0.224-0.003 0.082 0.013 0.156 0.059 0.237 0.087 0.128 0.043 0.247 0.099 0.38 0.13 0.071 0.015 0.128 0.031 0.186 0.069 0.028 0.018 0.043 0.041 0.069 0.056 0.056 0.033 0.128 0.036 0.181 0.074 0.064 0.043 0.069 0.117 0.122 0.166 0.023 0.005 0.043 0.010 0.066 0.015 0.026 0.018 0.048 0.038 0.074 0.059 0.043 0.015 0.074 0.005 0.112 0.026 0.161 0.089 0.352 0.329 0.291 0.533-0.015 0.056-0.12 0.158-0.176 0.191-0.097 0.059-0.204 0.018-0.301-0.036-0.12-0.069-0.515-0.474-0.513-0.122 0 0.092 0.033 0.143 0.074 0.219 0.038 0.079 0.048 0.161 0.033 0.253-0.094 0.026-0.202 0.005-0.291-0.038-0.077-0.038-0.143-0.148-0.217-0.173-0.122-0.038-0.293 0.176-0.296 0.291-0.008 0.212-0.166 0.148-0.276 0.008-0.069-0.087-0.11-0.138-0.202-0.202-0.041-0.031-0.153-0.117-0.212-0.059-0.061 0.061 0.059 0.227 0.066 0.288 0.018 0.13-0.013 0.296-0.166 0.296-0.102-0.003-0.342-0.153-0.436-0.056-0.041 0.038-0.015 0.105-0.028 0.156-0.013 0.038-0.071 0.122-0.107 0.145-0.102 0.069-0.326 0.071-0.444 0.046-0.069-0.013-0.128-0.061-0.176-0.11-0.115-0.117-0.204-0.324-0.401-0.25-0.12 0.043-0.176 0.222-0.291 0.253-0.112 0.031-0.214-0.066-0.268-0.148-0.082-0.12-0.105-0.151-0.245-0.148-0.199 0.005-0.403 0.010-0.599 0.003-0.092-0.005-0.181-0.026-0.273-0.038-0.176-0.026-0.4-0.003-0.569-0.071-0.041-0.015-0.1-0.064-0.133-0.079-0.145-0.074-0.298-0.13-0.439-0.214-0.138-0.082-0.23-0.176-0.326-0.298-0.028-0.036-0.064-0.066-0.089-0.107-0.043-0.064-0.066-0.074-0.128-0.117-0.077-0.054-0.107-0.115-0.156-0.186-0.082-0.122-0.133-0.099-0.275-0.099-0.077 0-0.156-0.005-0.23 0.003-0.074 0.010-0.207 0.010-0.273 0.033-0.020 0.008-0.028 0.033-0.043 0.038-0.1 0.033-0.156 0.036-0.263 0.036-0.275 0-0.561-0.041-0.821 0.046-0.048 0.015-0.056 0.020-0.102 0.020-0.003-0.018-0.013-0.026-0.028-0.026-0.033-0.013-0.069-0.015-0.105-0.005-0.079 0-0.138-0.003-0.212 0.018-0.235 0.059-0.462 0.079-0.704 0.094-0.112 0.008-0.204 0.043-0.316 0.064-0.087 0.015-0.161 0.013-0.245 0.043-0.041-0.112-0.179-0.148-0.26-0.217-0.046-0.041-0.069-0.082-0.128-0.112-0.026-0.015-0.084-0.026-0.1-0.056-0.038-0.087 0.054-0.143 0.122-0.161 0.145-0.033 0.27-0.092 0.408-0.145 0.224-0.087 0.429-0.242 0.64-0.365 0.202-0.115 0.342-0.281 0.492-0.444 0.1-0.107 0.145-0.24 0.232-0.352 0.077-0.094 0.133-0.189 0.202-0.288 0.059-0.087 0.094-0.168 0.166-0.247 0.079-0.087 0.084-0.135 0.082-0.247-0.003-0.117 0.015-0.186 0.056-0.296 0.008-0.018 0.013-0.087 0.023-0.11 0.028-0.054 0.089-0.087 0.125-0.135 0.046-0.064 0.087-0.117 0.089-0.191 0.005-0.097 0.010-0.204 0.003-0.296-0.008-0.087-0.128-0.347 0.069-0.298 0.074 0.018 0.148 0.151 0.214 0.199 0.077 0.059 0.122 0.138 0.191 0.204 0.069 0.064 0.13 0.13 0.176 0.224 0.056 0.122 0.087 0.276 0.125 0.406 0.028 0.099 0.074 0.214 0.15 0.291 0.056 0.059 0.145 0.077 0.202 0.135 0.074 0.077 0.069 0.179 0.117 0.268 0.082 0.161 0.242 0.224 0.39 0.321 0.107 0.071 0.222 0.115 0.332 0.173 0.135 0.077 0.224 0.156 0.37 0.209 0.344 0.125 0.628 0.324 1.002 0.324 0.135 0 0.245 0.038 0.38 0.036 0.107 0 0.176 0.015 0.278 0.038 0.115 0.026 0.265 0.051 0.38 0.026 0.107-0.020 0.173-0.084 0.273-0.13 0.115-0.051 0.232-0.145 0.36-0.156 0.023-0.003 0.054 0.003 0.077 0.003 0.084 0 0.168 0 0.253 0 0.066 0 0.133 0 0.199 0.003 0.059-0.020 0.107-0.066 0.173-0.079 0.069-0.010 0.151 0.003 0.403 0.077z"></path>
<path d="M11.648 21.48c0.033 0.026 0.066 0.133 0.084 0.173 0.028 0.069 0.028 0.135 0.043 0.207 0.036 0.153 0.051 0.306 0.089 0.462 0.036 0.138 0.079 0.27 0.115 0.408 0.023 0.092 0.074 0.171 0.1 0.26 0.054 0.168 0.12 0.306 0.117 0.49 0 0.077 0.013 0.138 0.038 0.207 0.028 0.082 0.031 0.128 0.043 0.214 0.033 0.204-0.008 0.421 0.028 0.62 0.031 0.181 0.128 0.344 0.148 0.531 0.010 0.087 0.033 0.171 0.038 0.258 0.005 0.13-0.031 0.255-0.038 0.385-0.013 0.222 0.148 0.38 0.258 0.559 0.051 0.084 0.061 0.186 0.125 0.273 0.051 0.069 0.102 0.133 0.156 0.199 0.084 0.105 0.204 0.099 0.319 0.168 0.084 0.048 0.176 0.112 0.255 0.173 0.089 0.069 0.148 0.166 0.199 0.265 0.033 0.066 0.064 0.105 0.107 0.163 0.122 0.156 0.181 0.513 0.411 0.505 0.153-0.005 0.306 0.064 0.423 0.163 0.102 0.089 0.196 0.217 0.326 0.26 0.082 0.026 0.222 0.079 0.309 0.046 0.010-0.003 0.036-0.038 0.048-0.048 0.054-0.036 0.11-0.066 0.171-0.094 0.054-0.026 0.094-0.026 0.153-0.041 0.077-0.020 0.143-0.092 0.214-0.125 0.199-0.099 0.281-0.232 0.38-0.411 0.010-0.018 0.043-0.015 0.059-0.041 0.013-0.031 0.008-0.066 0.023-0.094 0.038-0.074 0.066-0.115 0.084-0.204 0.013-0.054 0.033-0.11 0.043-0.161 0.013-0.074-0.008-0.11 0.036-0.176 0.043-0.064 0.087-0.125 0.13-0.189 0.023-0.031 0.079-0.135 0.13-0.135 0.087-0.003 0.071 0.171 0.074 0.217 0.008 0.196 0.015 0.403 0 0.599-0.018 0.235-0.074 0.457-0.074 0.696-0.003 0.232-0.018 0.444-0.204 0.622-0.048 0.048-0.161 0.133-0.227 0.143-0.071 0.010-0.14-0.013-0.207-0.028-0.265-0.064-0.531-0.064-0.798-0.084-0.166-0.010-0.316-0.056-0.487-0.033-0.107 0.013-0.207 0.031-0.314 0.041-0.089 0.010-0.176 0.026-0.265 0.036-0.194 0.023-0.349-0.158-0.477-0.288-0.148-0.151-0.298-0.306-0.439-0.467-0.084-0.097-0.107-0.13-0.145-0.232-0.046-0.117-0.112-0.199-0.181-0.298-0.064-0.092-0.107-0.189-0.168-0.281-0.038-0.061-0.094-0.115-0.13-0.179-0.117-0.194-0.13-0.38-0.161-0.599-0.013-0.089-0.026-0.173-0.046-0.263-0.026-0.11-0.059-0.217-0.079-0.329-0.031-0.148-0.115-0.293-0.181-0.421-0.102-0.191-0.153-0.38-0.204-0.589-0.026-0.105-0.046-0.207-0.087-0.306-0.048-0.117-0.13-0.222-0.163-0.347s-0.056-0.258-0.084-0.383c-0.033-0.153-0.077-0.276-0.079-0.429-0.005-0.133-0.041-0.253-0.038-0.388 0-0.122 0-0.247 0-0.37 0-0.12 0.008-0.24 0-0.36-0.003-0.064-0.033-0.117-0.038-0.184-0.013-0.212-0.003-0.421-0.043-0.63-0.018-0.092-0.038-0.158-0.020-0.255 0.033-0.181 0.028-0.355 0.028-0.543z"></path>
<path d="M21.611 2.945c0.008 0.010 0.018 0.018 0.026 0.028-0.031 0.038-0.084 0.046-0.122 0.069-0.089 0.051-0.161 0.125-0.253 0.173-0.133 0.071-0.288 0.097-0.421 0.168-0.176 0.094-0.383 0.235-0.513 0.38-0.107 0.125-0.23 0.219-0.258 0.393-0.020 0.128-0.033 0.26-0.074 0.378-0.020 0.061-0.079 0.133-0.107 0.196-0.038 0.084-0.051 0.184-0.11 0.26-0.046 0.064-0.122 0.112-0.179 0.171-0.064 0.064-0.128 0.12-0.196 0.181-0.122 0.112-0.217 0.253-0.321 0.38-0.094 0.115-0.24 0.166-0.349 0.263-0.064 0.059-0.122 0.097-0.196 0.145s-0.163 0.089-0.224 0.156c-0.051 0.059-0.087 0.12-0.145 0.176-0.092 0.089-0.202 0.148-0.324 0.191-0.059 0.023-0.117 0.020-0.186 0.033-0.066 0.015-0.186 0.043-0.25 0.074-0.066 0.031-0.115 0.089-0.194 0.112-0.258 0.077-0.625 0.028-0.875-0.046-0.148-0.043-0.319-0.054-0.449-0.102-0.097-0.033-0.184-0.087-0.283-0.117-0.163-0.056-0.334-0.135-0.469-0.23-0.054-0.038-0.125-0.074-0.168-0.128-0.046-0.059-0.069-0.143-0.097-0.212-0.036-0.082-0.054-0.176-0.11-0.25-0.031-0.041-0.051-0.051-0.094-0.077-0.074-0.046-0.128-0.117-0.202-0.161-0.13-0.082-0.148-0.048-0.145-0.224 0.005-0.242-0.008-0.485-0.003-0.724 0.005-0.102 0.038-0.186 0.077-0.281 0.061-0.151 0.117-0.115 0.255-0.194 0.319-0.186 0.574-0.459 0.865-0.684 0.048-0.038 0.097-0.066 0.153-0.099 0.122-0.061 0.237-0.138 0.344-0.227 0.064-0.071 0.135-0.135 0.217-0.189 0.171-0.102 0.378-0.112 0.569-0.158 0.161-0.041 0.332-0.079 0.487-0.14 0.242-0.097 0.533-0.054 0.796-0.051 0.388 0.003 0.763-0.079 1.151-0.074z"></path>
<path d="M19.815 6.371c0.048 0.038 0.099 0.079 0.151 0.11 0.010 0.005 0.018 0.010 0.026 0.015 0.031 0.003 0.059 0.010 0.089 0.018 0.337-0.031 0.676-0.038 1.013-0.028-0.089-0.061-0.173-0.14-0.247-0.212-0.061-0.059-0.148-0.107-0.196-0.176-0.033-0.048-0.051-0.077-0.099-0.112-0.079-0.054-0.153-0.099-0.235-0.145s-0.171-0.082-0.235-0.156c-0.092-0.107-0.087-0.276-0.163-0.383-0.064-0.089-0.145-0.173-0.202-0.268-0.054-0.089-0.084-0.309-0.191-0.329l-2.454 0.439c0.087 0.003 0.117-0.013 0.184 0.048 0.102 0.097 0.196 0.217 0.293 0.321 0.153 0.168 0.319 0.217 0.538 0.281 0.196 0.059 0.378 0.145 0.579 0.173 0.122 0.018 0.245 0.041 0.367 0.061 0.094 0.013 0.191 0.031 0.281 0.059 0.161 0.046 0.255 0.14 0.395 0.222 0.041 0.023 0.066 0.028 0.107 0.061z"></path>
<path d="M24.432 3.21c0.003-0.128-0.048-0.296-0.112-0.406-0.036-0.064-0.041-0.066-0.099-0.11-0.092-0.066-0.186-0.168-0.288-0.212-0.077-0.036-0.11-0.043-0.158-0.12-0.018-0.026-0.031-0.051-0.043-0.079-0.362-0.11-0.722-0.235-1.084-0.347-0.314 0.026-0.628 0.028-0.936 0.005-0.033 0.023-0.069 0.046-0.107 0.061-0.133 0.056-0.319 0.026-0.457 0.026-0.268 0-0.526-0.003-0.791-0.043-0.128-0.020-0.227-0.064-0.357-0.066l0.329 1.245c0.043 0.018 0.431-0.332 0.48-0.365 0.179-0.12 0.304-0.148 0.505-0.212 0.191-0.061 0.321-0.125 0.528-0.12 0.128 0.003 0.255 0.003 0.383 0 0.082 0 0.084 0.015 0.14 0.028 0.235 0.046 0.472 0.059 0.704 0.12 0.158 0.043 0.291 0.087 0.426 0.179 0.13 0.089 0.263 0.181 0.37 0.293 0.199 0.054 0.393 0.133 0.571 0.237 0-0.038-0.003-0.079-0.003-0.115z"></path>
<path d="M19.596 4.96c-0.008 0-0.015 0-0.023-0.003 0.041 0.048 0.125 0.107 0.176 0.14 0.089 0.059 0.222 0.122 0.324 0.166 0.054 0.023 0.112 0.043 0.168 0.061 0.064 0.013 0.125 0.033 0.181 0.064 0.043 0.038 0.087 0.079 0.13 0.115 0.071 0.051 0.166 0.12 0.253 0.145 0.089 0.028 0.196 0 0.291 0.015 0.064 0.010 0.153 0.015 0.214 0.036s0.12 0.074 0.184 0.094c0.018 0.008 0.071 0.033 0.087 0.036 0.061 0.015 0.117 0 0.179 0.008 0.084 0.013 0.14 0.061 0.217 0.102 0.199 0.11 0.413 0.105 0.625 0.156 0.054 0.013 0.094 0.051 0.145 0.066s0.077 0.005 0.12 0.033c0.071 0.048 0.12 0.125 0.163 0.196 0.038 0.061 0.087 0.115 0.12 0.179 0.046 0.094 0.036 0.191 0.036 0.296 0 0.043 0.013 0.105 0.003 0.148s-0.033 0.056-0.038 0.107c-0.008 0.051 0.008 0.105 0.003 0.156-0.008 0.056-0.038 0.099-0.041 0.156 0.008-0.143-0.089-0.278-0.171-0.393-0.056-0.077-0.089-0.115-0.179-0.143-0.13-0.038-0.247-0.102-0.378-0.143-0.375-0.12-0.74-0.181-1.138-0.181-0.372 0-0.75-0.031-1.102-0.156-0.099-0.036-0.14-0.094-0.227-0.156-0.107-0.077-0.194-0.176-0.301-0.25-0.191-0.135-0.324-0.332-0.495-0.492-0.168-0.161-0.329-0.334-0.515-0.485z"></path>
<path d="M24.981 4.96c-0.089 0.054-0.128 0.074-0.227 0.074-0.069-0.003-0.14 0-0.209 0-0.281-0.003-0.467-0.099-0.643-0.314-0.102-0.125-0.245-0.133-0.403-0.153-0.219-0.031-0.449-0.071-0.666-0.028-0.176 0.036-0.383 0.023-0.566 0.018-0.168-0.005-0.255-0.143-0.429-0.148-0.11-0.003-0.199 0.015-0.291-0.043-0.232-0.143-0.436-0.327-0.709-0.39-0.128-0.028-0.268-0.023-0.383-0.074-0.242-0.115-0.436-0.309-0.689-0.411-0.176-0.071-0.263-0.026-0.413 0.117-0.066 0.066-0.214 0.25-0.199 0.362 0.010 0.066 0.054 0.135 0.077 0.196 0.041 0.115 0.071 0.194 0.173 0.265 0.143 0.097 0.362 0.054 0.523 0.051 0.066 0 0.084 0.018 0.138 0.038 0.038 0.013 0.117 0.005 0.153 0.015 0.071 0.020 0.13 0.051 0.202 0.066 0.087 0.020 0.181 0.038 0.265 0.069 0.156 0.059 0.39 0.161 0.566 0.145 0.026-0.003 0.038-0.028 0.061-0.031 0.079-0.013 0.158-0.026 0.235-0.038 0.11-0.015 0.214-0.041 0.321-0.046 0.179-0.008 0.337 0.036 0.51 0.038 0.125 0.003 0.219 0 0.337 0.028 0.125 0.031 0.258 0.023 0.383 0.054 0.128 0.031 0.258 0.071 0.383 0.11 0.082 0.026 0.161 0.056 0.242 0.084 0.151 0.056 0.278 0.166 0.439 0.194 0.199 0.036 0.403 0.010 0.605 0.008 0.156-0.003 0.306 0.010 0.462 0.031 0.426 0.051 0.814-0.158 1.079-0.505 0.14-0.186 0.258-0.37 0.25-0.607-0.003-0.066-0.013-0.079-0.038-0.143-0.036-0.084-0.033-0.171-0.064-0.255s-0.082-0.138-0.138-0.207c-0.148-0.186-0.411-0.37-0.656-0.367-0.11 0.003-0.184 0.028-0.278 0.074-0.079 0.038-0.161 0.077-0.184 0.163-0.020 0.071-0.013 0.224 0.036 0.278 0.041 0.046 0.153 0.11 0.214 0.115 0 0.046 0.031 0.079 0.069 0.097-0.092 0.054-0.061-0.133-0.061-0.176-0.003-0.122 0.023-0.117 0.145-0.112 0.082 0.005 0.135 0.046 0.181 0.105 0.005 0.061 0.031 0.115 0.071 0.163 0.051 0.048 0.097 0.102 0.14 0.161 0.018 0.043 0.010 0.077 0.010 0.122 0 0.028 0.010 0.084 0.003 0.11-0.013 0.059-0.054 0.071-0.094 0.11-0.082 0.074-0.148 0.089-0.255 0.12-0.115 0.033-0.222 0.028-0.342 0.028-0.036 0-0.079 0.003-0.117 0-0.054-0.003-0.092-0.031-0.145-0.038z"></path>
<path d="M25.933 18.549c0.11 0.097 0.202 0.23 0.291 0.347 0.161 0.209 0.334 0.388 0.52 0.574 0.13 0.133 0.281 0.245 0.406 0.383 0.074 0.082 0.099 0.181 0.184 0.253 0.051 0.043 0.082 0.087 0.125 0.135 0.069 0.079 0.128 0.156 0.196 0.232 0.161 0.179 0.222 0.385 0.255 0.605 0.008 0.054 0.051 0.077 0.066 0.117 0.015 0.043 0.008 0.092 0.008 0.138 0 0.048 0 0.092 0.008 0.14 0.008 0.036 0.038 0.054 0.031 0.107 0-0.087-0.041-0.163-0.038-0.255 0.003-0.102 0.046-0.176 0.066-0.276 0.020-0.105 0.008-0.222 0.008-0.326 0-0.145 0.018-0.304-0.008-0.446-0.023-0.122-0.087-0.25-0.13-0.365-0.023-0.064-0.059-0.122-0.089-0.184-0.046-0.097-0.084-0.194-0.14-0.286-0.041-0.066-0.102-0.13-0.14-0.199-0.020-0.038-0.020-0.074-0.051-0.117-0.102-0.148-0.278-0.255-0.423-0.357-0.112-0.079-0.173-0.163-0.265-0.26-0.064-0.069-0.151-0.12-0.219-0.189-0.099-0.097-0.156-0.219-0.247-0.324-0.043-0.051-0.102-0.087-0.145-0.14-0.036-0.043-0.064-0.102-0.097-0.148-0.079-0.102-0.171-0.191-0.263-0.283-0.079-0.089-0.168-0.166-0.265-0.235-0.056-0.046-0.117-0.084-0.181-0.117-0.079-0.071-0.133-0.171-0.212-0.247-0.056-0.054-0.117-0.112-0.163-0.171-0.018-0.023-0.026-0.051-0.059-0.079-0.069-0.061-0.128-0.112-0.202-0.161-0.051-0.038-0.151-0.135-0.217-0.135z"></path>
<path d="M5.714 21.186c0 0.056 0.013 0.13-0.005 0.184-0.015 0.033-0.054 0.054-0.066 0.092-0.010 0.028-0.003 0.071-0.003 0.099 0.005 0.255-0.010 0.446 0.107 0.691 0.087 0.184 0.202 0.329 0.304 0.505 0.064 0.107 0.12 0.207 0.194 0.304 0.038 0.054 0.092 0.163 0.161 0.171-0.041-0.107-0.018-0.209-0.031-0.324-0.008-0.071-0.036-0.135-0.041-0.209-0.005-0.094 0.008-0.191 0.005-0.288-0.008-0.222-0.038-0.436-0.038-0.656s-0.013-0.444-0.003-0.661c0.013-0.24 0.128-0.406 0.255-0.602 0.138-0.207 0.24-0.439 0.349-0.661 0.061-0.125 0.166-0.24 0.217-0.367 0.041-0.099 0.061-0.184 0.133-0.273 0.054-0.066 0.153-0.143 0.148-0.24z"></path>
<path d="M13.699 5.73c0 0.186-0.003 0.342-0.074 0.515-0.071 0.181-0.189 0.319-0.286 0.485-0.066 0.117-0.15 0.209-0.219 0.319-0.077 0.125-0.245 0.227-0.293 0.367-0.028 0.077-0.008 0.196-0.008 0.278 0 0.181 0 0.362 0.003 0.541 0 0.186-0.018 0.311-0.12 0.459-0.061 0.089-0.082 0.199-0.145 0.288-0.041 0.056-0.094 0.097-0.138 0.15-0.041 0.054-0.1 0.122-0.128 0.186-0.028 0.061-0.018 0.036 0.015 0.084 0.026 0.033 0.066 0.056 0.077 0.097 0.010 0.043-0.003 0.094 0.005 0.138 0.020 0.102 0.031 0.196 0.028 0.304 0 0.133 0.038 0.247 0.038 0.378-0.003 0.1 0.008 0.194-0.038 0.283-0.059 0.12-0.166 0.214-0.23 0.329-0.087 0.163-0.227 0.291-0.314 0.452-0.059 0.107-0.013 0.12-0.11 0.135s-0.191 0-0.288 0.026c-0.204 0.051-0.413 0.179-0.582 0.298-0.056 0.043-0.143 0.051-0.196 0.097-0.056 0.048-0.11 0.143-0.15 0.204-0.056 0.084-0.051 0.199-0.061 0.298-0.015 0.125-0.015 0.245-0.038 0.367-0.018 0.11-0.008 0.227-0.008 0.337 0 0.064-0.015 0.138 0.005 0.196 0.135-0.048 0.25-0.156 0.372-0.23 0.214-0.128 0.434-0.224 0.635-0.372 0.255-0.186 0.423-0.395 0.554-0.673 0.026-0.054 0.061-0.097 0.084-0.145 0.031-0.061 0.028-0.112 0.043-0.179 0.010-0.038 0.026-0.079 0.043-0.115 0.043-0.107 0.087-0.214 0.133-0.321 0.064-0.138 0.115-0.293 0.189-0.423 0.043-0.074 0.102-0.138 0.143-0.212 0.020-0.036 0.023-0.074 0.041-0.107 0.015-0.033 0.056-0.048 0.077-0.079 0.020-0.033 0.026-0.077 0.051-0.112 0.033-0.048 0.087-0.077 0.122-0.122 0.059-0.079 0.084-0.184 0.128-0.27 0.023-0.041 0.048-0.074 0.074-0.11 0.066-0.087 0.11-0.181 0.166-0.273 0.082-0.135 0.13-0.263 0.163-0.416 0.077-0.362 0.092-0.753 0.202-1.107 0.089-0.288 0.199-0.541 0.237-0.842 0.013-0.094 0.020-0.186 0.041-0.281s0.048-0.179 0.054-0.276c0.008-0.304-0.003-0.607-0.296-0.946z"></path>
<path d="M12.637 9.245c0 0.013 0 0.026 0.003 0.038-0.115 0.064-0.219 0.051-0.342 0.079-0.181 0.038-0.38 0.128-0.551 0.191-0.209 0.079-0.482 0.204-0.587 0.423-0.071 0.158-0.166 0.309-0.24 0.469-0.061 0.138-0.145 0.337-0.153 0.487-0.013 0.258-0.018 0.541 0 0.798 0.008 0.105 0.041 0.199 0.038 0.309 0 0.069 0 0.138 0 0.207 0 0.102-0.020 0.227 0.003 0.326 0.069 0.026 0.158 0.005 0.227-0.013 0.079-0.020 0.191-0.036 0.268-0.064 0.166-0.061 0.263-0.237 0.352-0.375 0.097-0.148 0.199-0.286 0.268-0.449 0.074-0.173 0.13-0.349 0.202-0.525 0.15-0.36 0.245-0.737 0.367-1.107 0.046-0.138 0.036-0.273 0.036-0.418 0-0.077-0.033-0.255 0.11-0.378z"></path>
<path d="M13.919 4.19c-0.003 0.128-0.038 0.235-0.036 0.365 0 0.071 0.010 0.156 0 0.227-0.008 0.051-0.026 0.089-0.038 0.14-0.023 0.089-0.031 0.184-0.064 0.265-0.031 0.074-0.11 0.128-0.12 0.212z"></path>
<path d="M14.102 3.386c-0.084-0.026-0.352 0.594-0.395 0.699-0.043 0.102-0.079 0.181-0.135 0.278-0.089 0.148-0.12 0.311-0.202 0.464-0.082 0.151-0.158 0.309-0.247 0.454-0.079 0.13-0.15 0.286-0.258 0.398-0.135 0.14-0.273 0.357-0.344 0.541-0.064 0.176-0.046 0.436-0.023 0.612 0.020 0.168 0.107 0.365 0.059 0.538-0.036 0.128-0.148 0.224-0.23 0.321-0.156 0.184-0.278 0.383-0.372 0.599-0.071 0.158-0.207 0.301-0.235 0.477-0.015 0.089 0.013 0.181-0.008 0.273-0.010 0.054-0.026 0.092-0.028 0.148-0.010 0.204 0 0.411 0 0.617 0 0.077 0.013 0.168-0.008 0.245-0.015 0.061-0.028 0.087-0.028 0.153 0.003 0.176-0.013 0.334-0.046 0.503-0.041 0.219-0.041 0.462-0.026 0.686 0.084 0.061 0.347-0.145 0.416-0.189 0.143-0.089 0.232-0.224 0.365-0.319 0.051-0.036 0.115-0.046 0.166-0.079 0.092-0.061 0.176-0.166 0.258-0.24 0.117-0.105 0.232-0.156 0.329-0.281 0.11-0.14 0.26-0.291 0.326-0.459 0.033-0.079 0.023-0.191 0.043-0.278 0.031-0.128 0.041-0.245 0.038-0.375-0.008-0.533-0.003-1.066-0.003-1.599 0-0.334 0.018-0.643 0.1-0.972 0.056-0.222 0.156-0.421 0.26-0.622 0.082-0.158 0.11-0.342 0.181-0.505 0.184-0.416 0.275-0.872 0.357-1.316 0.048-0.27 0.079-0.541 0.051-0.816-0.013-0.153-0.087-0.316-0.069-0.469z"></path>
<path d="M13.772 4.996c-0.082 0.028-0.194 0.179-0.255 0.237-0.242 0.24-0.513 0.518-0.829 0.645-0.077 0.028-0.135 0.074-0.212 0.097-0.079 0.023-0.153 0.041-0.227 0.082-0.082 0.046-0.24 0.105-0.288 0.184-0.084 0.14 0.023 0.349 0.018 0.497-0.010 0.37-0.431 0.513-0.587 0.811 0.102 0.013 0.184 0.094 0.265 0.145 0.041 0.026 0.1 0.048 0.125 0.089-0.077 0.117-0.212 0.186-0.319 0.27-0.122 0.097-0.217 0.212-0.324 0.321-0.082 0.084-0.168 0.148-0.23 0.25-0.133 0.224-0.209 0.599-0.087 0.837 0.056 0.11 0.056 0.212 0.056 0.329 0 0.143 0.013 0.275-0.036 0.411-0.066 0.184-0.163 0.347-0.245 0.523-0.046 0.102-0.122 0.196-0.196 0.278-0.066 0.071-0.092 0.128-0.13 0.222-0.043 0.1-0.1 0.194-0.145 0.291-0.038 0.082-0.084 0.163-0.107 0.25-0.038 0.13-0.013 0.265-0.028 0.398-0.013 0.097-0.051 0.196-0.087 0.286-0.089 0.214-0.158 0.429-0.311 0.61-0.125 0.148-0.273 0.265-0.38 0.429-0.089 0.138-0.214 0.247-0.329 0.367-0.189 0.202-0.301 0.525-0.367 0.791-0.036 0.143-0.079 0.301-0.133 0.441-0.028 0.077-0.089 0.143-0.143 0.207-0.094 0.122-0.181 0.247-0.258 0.38-0.102 0.173-0.186 0.365-0.255 0.554-0.054 0.143-0.115 0.309-0.14 0.457-0.033 0.181-0.023 0.365-0.066 0.543 0.031-0.008 0.079-0.066 0.105-0.087 0.107-0.089 0.224-0.166 0.332-0.253 0.24-0.196 0.492-0.355 0.773-0.477 0.344-0.153 0.645-0.429 0.849-0.742 0.077-0.12 0.171-0.23 0.232-0.357 0.082-0.166 0.163-0.314 0.301-0.436 0.207-0.186 0.388-0.416 0.582-0.612 0.14-0.14 0.263-0.288 0.388-0.441 0.122-0.145 0.263-0.265 0.388-0.406 0.14-0.153 0.235-0.334 0.372-0.49 0.082-0.094 0.117-0.194 0.179-0.304 0.186-0.334 0.301-0.684 0.388-1.056 0.015-0.066 0.013-0.135 0.028-0.202 0.020-0.102 0.056-0.204 0.089-0.301 0.048-0.135 0.092-0.27 0.125-0.408 0.077-0.309 0.168-0.622 0.204-0.936z"></path>
<path d="M8.827 17.891c-0.008 0.077-0.064 0.102-0.11 0.153-0.071 0.079-0.12 0.181-0.196 0.263-0.122 0.13-0.25 0.247-0.372 0.37-0.191 0.191-0.324 0.441-0.423 0.694-0.023 0.056-0.059 0.115-0.089 0.168-0.038 0.069-0.036 0.125-0.061 0.194-0.013 0.033-0.046 0.056-0.059 0.089-0.010 0.028-0.005 0.066-0.013 0.094-0.015 0.064-0.026 0.105-0.031 0.171-0.008 0.105-0.059 0.189-0.077 0.286-0.008 0.048 0.015 0.107 0.005 0.158-0.010 0.043-0.033 0.059-0.041 0.107-0.008 0.059 0.041 0.232-0.048 0.219-0.036-0.005-0.041-0.051-0.066-0.066-0.043-0.020-0.112-0.005-0.158-0.008-0.082-0.003-0.209-0.041-0.26-0.115-0.069-0.102-0.051-0.25-0.051-0.367 0-0.12-0.026-0.273-0.003-0.39 0.010-0.056 0.043-0.079 0.066-0.122 0.023-0.046 0.026-0.097 0.054-0.14 0.077-0.12 0.158-0.24 0.235-0.36 0.112-0.186 0.288-0.316 0.372-0.523 0.061-0.148 0.153-0.291 0.247-0.426 0.041-0.061 0.056-0.128 0.089-0.194 0.043-0.087 0.112-0.166 0.138-0.263 0.061-0.219 0.199-0.398 0.293-0.605 0.038-0.084 0.064-0.156 0.117-0.23 0.048-0.064 0.122-0.143 0.148-0.219z"></path>
<path d="M11.245 16.534c0 0.326-0.056 0.63-0.105 0.951-0.005 0.046 0.003 0.097-0.003 0.14-0.013 0.069-0.048 0.13-0.069 0.199-0.051 0.191-0.11 0.383-0.156 0.576-0.145 0.62-0.245 1.224-0.411 1.834-0.041 0.151-0.026 0.306-0.028 0.467v0.617c0 0.219 0.043 0.477-0.015 0.691-0.018 0.069-0.038 0.173-0.064 0.237-0.028 0.071-0.071 0.125-0.094 0.202-0.089 0.278-0.117 0.533-0.117 0.824 0 0.156-0.033 0.344 0.026 0.485 0.036 0.087 0.041 0.163 0.061 0.253 0.066 0.298 0.316 0.515 0.467 0.77 0.038 0.064 0.036 0.128 0.056 0.202 0.061 0.209 0.176 0.383 0.298 0.559 0.059 0.087 0.094 0.125 0.184 0.191 0.135 0.105 0.37 0.214 0.429 0.385 0.026 0.071 0.018 0.186 0.018 0.26-0.003 0.082 0.003 0.135 0.026 0.199 0.051 0.143 0.115 0.296 0.191 0.429 0.043 0.071 0.224 0.263 0.329 0.23 0.056-0.018 0.087-0.107 0.12-0.163 0.135-0.222 0.181-0.495 0.179-0.75-0.003-0.156 0.008-0.311-0.020-0.462-0.059-0.326-0.059-0.696-0.191-1.005-0.018-0.038-0.033-0.056-0.056-0.094-0.054-0.087-0.056-0.133-0.071-0.23-0.010-0.071-0.031-0.133-0.056-0.202-0.048-0.13-0.077-0.283-0.138-0.406-0.061-0.128-0.097-0.237-0.138-0.375-0.015-0.056-0.038-0.115-0.054-0.173-0.033-0.117-0.097-0.217-0.133-0.332s-0.051-0.235-0.077-0.352c-0.026-0.13-0.071-0.26-0.1-0.393-0.038-0.189-0.033-0.372-0.031-0.564 0-1.066 0-2.133-0.003-3.199 0-0.349 0.018-0.704 0.003-1.054-0.008-0.224-0.041-0.444-0.038-0.671 0-0.326-0.008-0.65 0.036-0.974 0.018 0.235-0.477 0.452-0.528 0.679-0.023 0.097-0.056 0.189-0.084 0.283-0.036 0.112-0.038 0.23-0.071 0.342-0.028 0.092-0.061 0.173-0.077 0.268-0.036 0.196-0.168 0.418-0.263 0.589-0.112 0.199-0.224 0.401-0.316 0.61-0.077 0.179-0.143 0.365-0.235 0.536-0.089 0.163-0.128 0.334-0.204 0.5-0.074 0.163-0.122 0.326-0.179 0.495-0.102 0.309-0.245 0.65-0.24 0.977 0.003 0.265 0.107 0.51 0.107 0.773 0.003 0.214 0.038 0.426 0.038 0.643-0.013-0.077 0.046-0.125 0.038-0.199 0.008 0.092-0.097 0.209-0.122 0.286-0.043 0.143-0.064 0.291-0.061 0.439 0.003 0.291 0.033 0.48 0.194 0.742 0.054 0.089 0.125 0.173 0.14 0.276 0.008 0.041 0.005 0.084 0.013 0.125 0.028 0.133 0.020 0.27 0.038 0.408 0.015 0.138 0.041 0.196 0.125 0.311 0.084 0.117 0.171 0.237 0.263 0.349 0.1 0.12 0.235 0.163 0.349 0.265 0.094 0.084 0.179 0.145 0.296 0.191 0.033 0.013 0.054 0.015 0.082 0.036 0.156 0.102 0.258 0.334 0.365 0.482 0.166 0.23 0.441 0.357 0.701 0.472 0.038 0.015 0.041-0.003 0.074 0.028 0.048 0.043 0.089 0.138 0.138 0.189 0.051 0.056 0.107 0.184 0.184 0.202 0.048-0.291 0.089-0.605 0.048-0.898-0.064-0.454-0.217-0.901-0.311-1.347-0.043-0.202-0.082-0.401-0.122-0.602-0.026-0.138-0.046-0.293-0.107-0.421-0.051-0.107-0.061-0.194-0.125-0.298-0.064-0.107-0.112-0.222-0.181-0.321-0.148-0.212-0.48-0.403-0.482-0.686-0.003-0.151 0.092-0.288 0.166-0.416 0.1-0.176 0.184-0.352 0.258-0.541 0.038-0.115 0.087-0.224 0.145-0.329 0.079-0.171 0.168-0.334 0.273-0.49 0.1-0.214 0.117-0.413 0.133-0.648 0.020-0.311 0.020-0.62 0.018-0.934-0.005-0.347 0.102-0.676 0.115-1.020 0.008-0.255 0.013-0.52-0.059-0.763-0.061-0.207-0.074-0.395-0.092-0.605-0.005-0.059-0.026-0.112-0.033-0.171-0.013-0.087 0-0.176-0.003-0.265-0.003-0.079-0.013-0.161-0.028-0.24-0.018-0.094-0.023-0.227-0.054-0.316-0.023-0.061-0.066-0.11-0.084-0.171-0.041-0.13-0.092-0.265-0.128-0.4z"></path>
<path d="M20.695 21.26c0.084 0.074 0.087 0.288 0.12 0.385 0.051 0.163 0.051 0.314 0.099 0.474 0.084 0.273 0.048 0.635 0.003 0.913-0.026 0.133-0.048 0.219-0.117 0.329-0.084 0.143-0.222 0.25-0.273 0.411-0.036 0.11-0.031 0.296-0.008 0.408 0.003 0.010 0.028 0.036 0.031 0.054 0.013 0.043-0.008 0.094-0.003 0.138 0.008 0.071 0.038 0.13 0.038 0.204 0 0.077-0.028 0.14-0.046 0.214-0.054 0.209-0.112 0.416-0.189 0.617-0.028 0.071-0.084 0.214-0.135 0.288-0.026 0.036-0.054 0.054-0.071 0.092-0.031 0.061-0.054 0.133-0.082 0.196-0.026 0.059-0.054 0.13-0.066 0.191-0.015 0.094 0.023 0.148-0.028 0.23-0.043 0.066-0.133 0.125-0.189 0.184-0.054 0.061-0.13 0.087-0.186 0.138-0.173 0.161-0.25 0.413-0.454 0.559-0.043 0.028-0.145 0.077-0.202 0.066-0.107-0.020-0.117-0.212-0.112-0.296 0.005-0.13 0.056-0.306 0.12-0.418 0.059-0.105 0.077-0.207 0.094-0.324 0.010-0.079 0.028-0.14 0.046-0.217 0.008-0.038 0.003-0.074 0.018-0.115 0.020-0.054 0.061-0.097 0.082-0.153 0.018-0.041 0.018-0.087 0.036-0.13 0.018-0.048 0.064-0.094 0.077-0.143 0.008-0.033-0.003-0.056 0.003-0.087 0.013-0.102 0.074-0.176 0.117-0.265s0.059-0.194 0.097-0.291c0.031-0.077 0.038-0.128 0.043-0.209 0.008-0.069 0.023-0.13 0.043-0.196 0.033-0.099 0.023-0.186 0.038-0.288 0.043-0.245 0.161-0.474 0.214-0.714 0.051-0.232 0.105-0.452 0.209-0.671 0.092-0.189 0.202-0.385 0.26-0.587 0.028-0.099 0.043-0.196 0.079-0.291 0.026-0.061 0.020-0.181 0.293-0.696z"></path>
<path d="M9.12 14.263l-0.031 0.005c-0.061 0.232-0.25 0.372-0.406 0.548-0.051 0.059-0.107 0.112-0.161 0.168-0.074 0.079-0.122 0.171-0.189 0.258-0.13 0.171-0.268 0.352-0.416 0.503-0.11 0.115-0.191 0.258-0.319 0.36-0.207 0.171-0.406 0.342-0.625 0.495-0.066 0.048-0.161 0.064-0.219 0.115-0.046 0.038-0.079 0.097-0.125 0.14-0.102 0.089-0.171 0.196-0.301 0.25-0.304 0.125-0.597 0.227-0.844 0.444-0.115 0.102-0.24 0.194-0.352 0.296-0.079 0.074-0.133 0.153-0.217 0.219-0.168 0.13-0.324 0.304-0.492 0.446-0.107 0.094-0.219 0.173-0.304 0.293-0.038 0.054-0.059 0.105-0.089 0.161-0.041 0.074-0.11 0.13-0.145 0.212-0.033 0.082-0.059 0.194-0.033 0.283 0.020 0.003 0.041 0.008 0.061 0.010 0.023 0.087 0.005 0.199 0.005 0.288 0 0.097 0.008 0.199-0.003 0.293-0.013 0.094-0.036 0.171-0.036 0.265 0.003 0.069 0.008 0.143 0.003 0.209-0.005 0.061-0.092 0.204-0.069 0.247 0.056-0.041 0.064-0.122 0.092-0.181 0.041-0.077 0.094-0.135 0.125-0.214 0.028-0.071 0.056-0.143 0.079-0.217 0.054-0.171 0.115-0.324 0.209-0.485 0.074-0.125 0.161-0.242 0.258-0.349 0.071-0.082 0.158-0.135 0.227-0.219 0.148-0.173 0.362-0.214 0.52-0.362 0.224-0.209 0.495-0.372 0.742-0.564 0.316-0.242 0.599-0.513 0.893-0.776 0.196-0.176 0.398-0.306 0.633-0.416 0.158-0.074 0.291-0.219 0.431-0.321 0.153-0.11 0.301-0.23 0.459-0.334 0.207-0.14 0.393-0.301 0.576-0.469 0.156-0.145 0.321-0.275 0.459-0.436 0.133-0.156 0.25-0.332 0.365-0.497 0.115-0.163 0.204-0.321 0.189-0.523z"></path>
<path d="M24.358 17.891v0.036z"></path>
<path d="M18.864 6.388c0.010 0.048-0.023 0.133-0.036 0.181-0.023 0.084-0.038 0.153-0.038 0.24 0 0.074 0.020 0.115 0.033 0.184 0.015 0.079 0.005 0.168 0.005 0.247-0.003 0.163 0.033 0.296 0.069 0.449 0.048 0.199 0.089 0.408 0.158 0.605 0.051 0.148 0.166 0.278 0.232 0.416 0.043 0.087 0.186 0.258 0.278 0.306 0.059 0.033 0.12 0.038 0.181 0.074 0.036 0.023 0.043 0.031 0.071 0.046 0.084 0.048 0.158 0.077 0.199 0.179 0.033 0.082 0 0.161 0.023 0.24 0.010 0.041 0.048 0.087 0.069 0.128 0.079 0.171 0.161 0.347 0.214 0.531 0.056 0.184 0.074 0.383 0.122 0.569 0.028 0.11 0.087 0.212 0.133 0.316 0.089 0.214 0.306 0.355 0.36 0.587 0.018 0.087 0.048 0.186 0.051 0.273 0.005 0.064 0.026 0.4-0.112 0.316-0.043-0.028-0.082-0.176-0.107-0.224-0.046-0.092-0.094-0.181-0.13-0.278-0.046-0.122-0.079-0.247-0.112-0.375-0.048-0.194-0.135-0.326-0.224-0.495-0.133-0.253-0.255-0.505-0.393-0.755-0.026-0.054-0.048-0.11-0.092-0.15-0.061-0.056-0.148-0.082-0.204-0.148-0.031-0.038-0.036-0.097-0.071-0.13s-0.074-0.028-0.105-0.066c-0.036-0.048-0.059-0.138-0.087-0.194-0.054-0.097-0.14-0.176-0.186-0.275-0.043-0.089-0.061-0.14-0.138-0.214-0.046-0.046-0.064-0.071-0.089-0.125-0.051-0.1-0.122-0.184-0.148-0.291-0.026-0.122-0.051-0.247-0.082-0.37-0.036-0.15-0.026-0.306-0.056-0.462-0.005-0.031-0.003-0.059-0.008-0.087-0.008-0.051-0.031-0.097-0.038-0.145z"></path>
<path d="M24.541 16.278c0.105 0 0.186-0.008 0.283 0.041 0.087 0.046 0.163 0.099 0.255 0.133 0.168 0.064 0.326 0.145 0.482 0.232 0.097 0.056 0.214 0.094 0.316 0.143 0.074 0.038 0.224 0.066 0.283 0.12 0.084 0.077 0.115 0.214 0.204 0.296 0.054 0.051 0.135 0.089 0.184 0.143 0.005 0.018 0.010 0.036 0.013 0.056 0.018 0.010 0.036 0.023 0.056 0.033 0.066 0.061 0.13 0.125 0.196 0.189 0.071 0.066 0.138 0.107 0.189 0.189 0.048 0.074 0.181 0.176 0.031 0.186-0.092 0.005-0.168-0.077-0.25-0.115-0.14-0.064-0.281-0.153-0.421-0.209-0.125-0.051-0.235-0.128-0.357-0.184s-0.286-0.082-0.416-0.117c-0.276-0.077-0.625-0.11-0.839-0.319-0.184-0.181-0.355-0.375-0.209-0.816z"></path>
<path d="M11.721 27.633c-0.133-0.018-0.265 0.099-0.367 0.173-0.066 0.048-0.112 0.082-0.189 0.102-0.071 0.018-0.145 0.023-0.212 0.059-0.071 0.041-0.125 0.115-0.191 0.161-0.102 0.077-0.207 0.115-0.298 0.202-0.082 0.082-0.171 0.153-0.278 0.202-0.105 0.046-0.219 0.084-0.334 0.092-0.11 0.008-0.207 0.036-0.319 0.036-0.179-0.003-0.355 0-0.533 0-0.196 0-0.416-0.028-0.607 0.005 0.015 0.128 0.288 0.278 0.385 0.329 0.112 0.059 0.232 0.099 0.344 0.161 0.033 0.020 0.071 0.036 0.107 0.054 0.059 0.028 0.077 0.064 0.128 0.102 0.059 0.046 0.135 0.071 0.204 0.082 0.066 0.013 0.1 0.036 0.171 0.038 0.074 0 0.122 0.003 0.191 0.026 0.1 0.033 0.217 0.099 0.319 0.12 0.27 0.054 0.546-0.207 0.798-0.291 0.191-0.064 0.372-0.153 0.543-0.255 0.117-0.069 0.235-0.115 0.367-0.133 0.115-0.013 0.227-0.023 0.329-0.082 0.122-0.069 0.212-0.158 0.209-0.301z"></path>
<path d="M16.996 30.125l0.031 0.005c0.013 0.048 0.003 0.092 0.015 0.14 0.013 0.056 0.026 0.087 0.028 0.148 0.003 0.102-0.038 0.135-0.11 0.202-0.082 0.074-0.171 0.156-0.26 0.23-0.038 0.033-0.089 0.084-0.135 0.102-0.041 0.018-0.102 0.003-0.125 0.048-0.051-0.005-0.11-0.054-0.145-0.089-0.087-0.092-0.191-0.258-0.237-0.37-0.033-0.079-0.148-0.296-0.232-0.306z"></path>
<path d="M21.025 4.96c-0.316 0-0.638-0.015-0.951 0-0.087 0.003-0.194 0.089-0.25 0.156-0.023 0.026-0.026 0.061-0.054 0.092-0.041 0.043-0.069 0.048-0.125 0.071-0.232 0.097-0.332 0.11-0.561-0.023-0.084-0.051-0.429-0.247-0.457-0.378-0.010-0.046 0.015-0.153 0.015-0.204 0.003-0.074 0.003-0.092 0.071-0.128 0.115-0.059 0.276-0.092 0.398-0.12 0.189-0.043 0.367-0.054 0.559-0.054z"></path>
</svg>
