<!-- Generated by IcoMoon.io -->
<svg version="1.1" xmlns="http://www.w3.org/2000/svg" width="32" height="32" viewBox="0 0 32 32">
<title>per_investigator1</title>
<path d="M30.327 22.891c0.016 0.039 0.033 0.074 0.057 0.107 0.012 0.023 0.041 0.057 0.086 0.107 0 0.046-0.016 0.057-0.029 0.057-0.952 0.329-1.876 0.692-2.76 1.094-0.897 0.398-1.745 0.794-2.545 1.174 0.125 0.221 0.255 0.442 0.385 0.685 0.125 0.25 0.204 0.488 0.244 0.709-0.617 0.068-1.27 0.164-1.938 0.271-0.566 0.091-1.19 0.222-1.859 0.386-0.651 0.176-1.275 0.369-1.859 0.572-0.107 0.068-0.211 0.136-0.3 0.193-0.091 0.068-0.187 0.142-0.3 0.216-0.544 0.328-1.111 0.583-1.695 0.765-0.181 0.033-0.351 0.068-0.517 0.113-0.164 0.035-0.328 0.068-0.492 0.107-0.13 0.012-0.261 0.029-0.38 0.029-0.113 0.012-0.244 0.023-0.386 0.023-0.164 0-0.322-0.012-0.464-0.023-0.148-0.023-0.3-0.051-0.464-0.086-0.511-0.107-1.010-0.271-1.503-0.493-0.215-0.129-0.435-0.265-0.657-0.408-0.215-0.131-0.447-0.265-0.679-0.408-0.602-0.221-1.242-0.425-1.917-0.601-0.675-0.164-1.297-0.295-1.853-0.386-0.68-0.107-1.344-0.209-1.995-0.3 0.033-0.26 0.119-0.515 0.271-0.794 0.165-0.271 0.329-0.538 0.493-0.788-0.821-0.373-1.716-0.731-2.68-1.094-0.947-0.351-1.967-0.667-3.061-0.985v-0.029c0.016-0.051 0.029-0.078 0.029-0.078l0.084-0.086c0.273-0.38 0.579-0.77 0.924-1.174 0.277-0.283 0.55-0.572 0.821-0.844 0.273-0.289 0.556-0.56 0.85-0.821 0.357-0.306 0.72-0.612 1.088-0.93 0.386-0.306 0.778-0.628 1.18-0.958 0.068-0.012 0.113-0.051 0.137-0.107h0.029l-0.057-0.051c-0.096-0.041-0.176-0.062-0.244-0.086-0.057-0.033-0.113-0.068-0.164-0.107-0.261-0.148-0.517-0.283-0.765-0.413-0.244-0.142-0.466-0.312-0.686-0.517-0.181-0.141-0.357-0.283-0.516-0.408-0.153-0.125-0.295-0.277-0.441-0.443-0.273-0.34-0.511-0.669-0.71-0.979-0.096-0.125-0.176-0.255-0.244-0.386-0.078-0.119-0.158-0.255-0.248-0.408-0.041-0.091-0.068-0.17-0.080-0.244-0.025-0.091-0.057-0.181-0.107-0.279-0.025-0.107-0.046-0.192-0.057-0.271v-0.216c0.008-0.057 0.029-0.113 0.029-0.164 0-0.057 0.004-0.096 0.029-0.136 0.119-0.254 0.334-0.435 0.622-0.548 0.125-0.052 0.25-0.062 0.357-0.029 0.033 0.023 0.086 0.029 0.137 0.029 0.057 0 0.119 0.016 0.193 0.028 0.339 0.107 0.692 0.205 1.037 0.273 0.339 0.078 0.708 0.152 1.094 0.22 0.176 0.051 0.369 0.102 0.572 0.136 0.199 0.022 0.413 0.045 0.63 0.078 0.033 0.023 0.084 0.029 0.137 0.029 0.057 0 0.107 0.017 0.164 0.028h0.086l0.051-0.028v-0.080c0-0.090 0.004-0.17 0.029-0.25 0.012-0.084 0.029-0.176 0.029-0.271 0.012-0.107 0.029-0.216 0.029-0.329 0.012-0.107 0.051-0.203 0.107-0.3v-0.271c0.012-0.091 0.033-0.176 0.058-0.273 0.008-0.125 0.021-0.25 0.021-0.357 0.016-0.119 0.045-0.25 0.086-0.38 0.033-0.090 0.057-0.192 0.057-0.3 0.012-0.113 0.033-0.226 0.051-0.357 0.033-0.125 0.063-0.244 0.086-0.357 0.008-0.119 0.041-0.255 0.078-0.408 0.016-0.164 0.041-0.306 0.086-0.437 0.033-0.125 0.068-0.261 0.107-0.408 0.051-0.312 0.125-0.618 0.216-0.93 0.113-0.312 0.209-0.618 0.3-0.929 0.090-0.148 0.164-0.29 0.22-0.437 0.068-0.164 0.164-0.318 0.271-0.464 0.033-0.115 0.086-0.199 0.137-0.279 0.057-0.068 0.113-0.147 0.164-0.244l0.137-0.136c0.068-0.057 0.137-0.107 0.193-0.164 0.057-0.033 0.107-0.068 0.164-0.107 0.068-0.057 0.154-0.096 0.244-0.136 0.125-0.057 0.255-0.084 0.386-0.084 0.289-0.035 0.532-0.029 0.737 0.028 0.197 0.023 0.39 0.039 0.572 0.057s0.357 0.045 0.522 0.080c0.107 0.022 0.203 0.028 0.3 0.028 0.107 0 0.203 0.023 0.3 0.057 0.141 0.017 0.277 0.041 0.408 0.052h0.413c0.107 0.022 0.215 0.028 0.324 0.028h0.385c0.142 0.023 0.29 0.029 0.437 0.029h1.667c0.176 0 0.316-0.006 0.408-0.029h0.521c0.125-0.012 0.255-0.028 0.386-0.028 0.119 0 0.244-0.006 0.351-0.029 0.125-0.012 0.232-0.023 0.329-0.023 0.107-0.016 0.22-0.033 0.328-0.057 0.125 0 0.3-0.010 0.517-0.057 0.164-0.033 0.316-0.062 0.464-0.078 0.146-0.017 0.3-0.035 0.464-0.057 0.113-0.012 0.222-0.029 0.329-0.029h0.328c0.165 0.045 0.306 0.080 0.437 0.113 0.068 0.041 0.125 0.074 0.164 0.107 0.033 0.023 0.091 0.046 0.165 0.080 0.057 0.045 0.107 0.086 0.164 0.142 0.057 0.051 0.113 0.119 0.193 0.187 0.068 0.096 0.137 0.203 0.187 0.328 0.072 0.107 0.146 0.21 0.22 0.3 0.176 0.351 0.334 0.698 0.464 1.037 0.068 0.221 0.137 0.454 0.193 0.686 0.068 0.238 0.142 0.476 0.216 0.708 0.057 0.238 0.113 0.482 0.164 0.714 0.057 0.238 0.113 0.476 0.164 0.708 0.057 0.205 0.091 0.398 0.107 0.573 0.016 0.187 0.046 0.374 0.086 0.573 0.033 0.164 0.063 0.345 0.080 0.521 0.016 0.181 0.045 0.357 0.084 0.521 0.012 0.148 0.029 0.284 0.029 0.409 0.012 0.107 0.051 0.244 0.107 0.408 0 0.096 0.004 0.187 0.029 0.271 0.008 0.080 0.029 0.16 0.029 0.25v0.051c0 0.046 0.012 0.057 0.051 0.057 0.068 0 0.125-0.006 0.164-0.028 0.165-0.012 0.329-0.035 0.493-0.051 0.176-0.017 0.357-0.046 0.522-0.086 0.435-0.107 0.872-0.205 1.309-0.3 0.448-0.107 0.901-0.215 1.338-0.328 0.033 0 0.119-0.012 0.25-0.052 0.158 0 0.283 0.017 0.38 0.052 0.328 0.152 0.527 0.396 0.601 0.736 0.008 0.097 0.008 0.187 0 0.279 0 0.074-0.012 0.147-0.029 0.215-0.041 0.261-0.119 0.482-0.244 0.657-0.107 0.261-0.267 0.517-0.464 0.794-0.107 0.181-0.238 0.351-0.386 0.517-0.125 0.164-0.266 0.351-0.408 0.55-0.346 0.379-0.731 0.708-1.145 0.979-0.493 0.353-0.969 0.624-1.423 0.823-0.041 0.016-0.068 0.039-0.084 0.057-0.016 0-0.045 0.012-0.080 0.022l-0.029 0.029c0.033 0.039 0.057 0.068 0.057 0.086 0.527 0.402 1.047 0.81 1.58 1.229 0.386 0.324 0.749 0.651 1.094 0.981 0.347 0.329 0.686 0.657 1.016 0.987 0.232 0.238 0.447 0.482 0.651 0.736 0.199 0.261 0.396 0.511 0.601 0.766zM16.804 27.889c0.328-0.057 0.628-0.147 0.901-0.271 0.503-0.187 0.991-0.431 1.451-0.737 0.25-0.164 0.487-0.357 0.708-0.579 0.22-0.203 0.437-0.408 0.657-0.622 0.273-0.295 0.517-0.595 0.737-0.907 0.215-0.312 0.408-0.624 0.572-0.953 0.386-0.714 0.663-1.428 0.85-2.159 0.051-0.141 0.086-0.3 0.109-0.464 0.033-0.164 0.067-0.318 0.107-0.464 0.016-0.109 0.033-0.205 0.057-0.3 0.012-0.091 0.029-0.193 0.029-0.302 0.012-0.107 0.025-0.221 0.025-0.328 0-0.125 0.012-0.273 0.029-0.437v-0.544c0-0.017-0.016-0.028-0.052-0.028h-0.084c-0.041 0.039-0.097 0.067-0.165 0.078-0.051 0-0.102 0.017-0.135 0.029-0.261 0.074-0.511 0.136-0.766 0.193-0.26 0.051-0.515 0.107-0.792 0.164-0.165 0.039-0.329 0.074-0.487 0.107-0.154 0.023-0.3 0.045-0.466 0.080-0.113 0.022-0.22 0.045-0.328 0.057-0.113 0-0.216 0.012-0.3 0.028-0.097 0.041-0.181 0.052-0.25 0.052-0.074 0-0.154 0.022-0.244 0.057-0.097 0-0.193 0.016-0.3 0.028-0.097 0-0.193 0.012-0.3 0.029-0.107 0-0.232 0.012-0.357 0.028-0.131 0.017-0.261 0.023-0.38 0.023-0.131 0-0.25 0.017-0.357 0.028h-0.464c-0.041 0-0.080 0.017-0.137 0.029h-0.164c-0.239 0-0.483 0.012-0.737 0.028-0.238 0-0.476-0.016-0.71-0.057h-0.413c-0.096-0.010-0.187-0.028-0.3-0.028h-0.029c-0.109 0-0.267-0.012-0.466-0.051-0.203 0-0.339-0.006-0.408-0.029-0.107-0.012-0.209-0.028-0.3-0.028-0.074 0-0.164-0.012-0.271-0.057-0.109-0.035-0.234-0.052-0.357-0.052-0.13-0.016-0.239-0.033-0.329-0.057-0.181-0.033-0.351-0.062-0.517-0.078-0.164-0.017-0.328-0.041-0.492-0.086-0.294-0.051-0.573-0.107-0.844-0.164-0.261-0.068-0.522-0.142-0.794-0.216-0.097-0.033-0.187-0.057-0.273-0.057-0.078-0.012-0.158-0.039-0.25-0.078-0.041 0-0.051 0.016-0.051 0.051v0.601c0 0.152 0.004 0.295 0.025 0.442 0.016 0.147 0.029 0.289 0.029 0.435 0.016 0.131 0.057 0.273 0.109 0.437 0.033 0.205 0.084 0.402 0.141 0.601 0.051 0.205 0.113 0.408 0.187 0.63 0.398 1.166 1.043 2.245 1.915 3.247 0.234 0.289 0.493 0.562 0.766 0.821 0.271 0.255 0.577 0.505 0.929 0.766 0.165 0.125 0.341 0.244 0.544 0.357 0.199 0.107 0.398 0.203 0.601 0.3 0.255 0.164 0.585 0.283 0.987 0.38 0.107 0.016 0.199 0.033 0.273 0.057 0.090 0.010 0.192 0.028 0.3 0.028 0.306 0.012 0.657 0 1.037-0.057z"></path>
</svg>
