<!-- Generated by IcoMoon.io -->
<svg version="1.1" xmlns="http://www.w3.org/2000/svg" width="32" height="32" viewBox="0 0 32 32">
<title>physical</title>
<path fill="#394852" d="M12.759 2.747l-1.519 0.506 2 6 1.519-0.506zM17.209 2.869l-1 6 1.431 0.613c1.035-1.38 2.751-2.154 4.544-2.522 1.531-0.314 2.926-0.242 4.016-0.144v3.513c-4.448 0.148-6.905 1.246-9.766 4.106l1.131 1.131c2.937-2.937 4.541-3.766 9.434-3.766h0.8v-6.494l-0.688-0.097c-1.265-0.181-3.223-0.234-5.247 0.181-1.305 0.268-2.57 0.858-3.725 1.644l0.65-3.903zM5 6.2v1.6c1.867 0 3.157 0.465 3.972 1.178s1.228 1.7 1.228 3.022h1.6c0-1.678-0.587-3.191-1.772-4.228s-2.895-1.572-5.028-1.572zM7.284 11.644c-2.262 4.525-0.866 14.006 11.462 18.116l0.278 0.094 5.869-2.35-0.103-0.634c-0.476-2.855-0.098-5.454 0.228-7.809s0.646-4.518-0.303-6.416l-1.431 0.716c0.651 1.302 0.471 3.137 0.147 5.481-0.3 2.169-0.613 4.763-0.253 7.625l-4.144 1.659c-11.402-3.932-12.042-12.318-10.319-15.766z"></path>
</svg>
