<!-- Generated by IcoMoon.io -->
<svg version="1.1" xmlns="http://www.w3.org/2000/svg" width="32" height="32" viewBox="0 0 32 32">
<title>pickaxe</title>
<path d="M11.317 3.192l-0.539 0.272c-0.905 0.456-1.687 1.27-2.283 1.97s-0.995 1.305-0.995 1.305l-0.27 0.408 1.869 1.881 0.852-0.845-1.156-1.166c0.146-0.207 0.245-0.369 0.616-0.805 0.413-0.485 0.941-0.899 1.439-1.264l1.186 2.389 1.075-0.533-1.792-3.612zM23.991 5.303c-3.135-0.004-7.099 0.394-10.411 1.995l0.261 0.539-0.325-0.503-3.556 2.303 0.327 0.503-0.363-0.478c-6.364 4.809-7.848 14.198-7.848 14.198l1.112 0.397c0 0 3.532-6.090 7.458-9.030l-0.719-0.961c-2.23 1.67-4.17 4.055-5.592 6.048 0.966-2.858 2.694-6.607 5.814-9.233l2.217 3.723 4.861-2.939-2.472-3.736c3.654-1.543 7.418-1.662 10.433-1.513-2.203 0.547-4.966 1.317-7.505 2.33l0.444 1.116c5.063-2.019 11.316-3.17 11.316-3.17l-0.009-1.183c0 0-2.307-0.404-5.442-0.408zM13.669 8.666l1.867 2.82-2.758 1.667-1.681-2.822 2.572-1.666zM16.919 12.945l-1.075 0.533c0 0 3.668 7.342 7.436 12.755-0.342 0.611-0.769 1.237-1.291 1.688-0.466 0.402-0.946 0.537-1.408 0.636-0.442-1.953-1.454-4.513-2.647-7.094-1.319-2.852-2.755-5.582-3.572-7.012l-1.042 0.595c0.791 1.385 2.223 4.105 3.525 6.92s2.472 5.769 2.753 7.466l0.083 0.502h0.509c0.963 0 1.845-0.467 2.583-1.105s1.348-1.459 1.764-2.298l0.159-0.322-0.208-0.292c-3.763-5.308-7.57-12.97-7.57-12.97z"></path>
</svg>
