<!-- Generated by IcoMoon.io -->
<svg version="1.1" xmlns="http://www.w3.org/2000/svg" width="33" height="32" viewBox="0 0 33 32">
<title>pillars_of_judgement</title>
<path d="M18.533 10.674c0.012-0.023 0.023-0.047 0.036-0.070 0.082-0.014 0.169 0.047 0.245 0.069 0.132 0.039 0.294 0.035 0.426 0.071 0.443 0.119 0.937 0.366 1.352 0.564 0.331 0.157 0.607 0.447 0.869 0.697 0.384 0.367 0.683 0.684 0.802 1.207 0.115 0.503 0.2 1.151 0.018 1.646-0.079 0.215-0.136 0.456-0.239 0.661-0.136 0.275-0.355 0.434-0.547 0.656-0.745 0.86-2.011 1.238-3.123 1.276-0.398 0.013-0.804 0.036-1.176-0.102-0.329-0.125-0.686-0.307-0.962-0.52-0.644-0.499-1.206-1.228-1.211-2.089-0.001-0.249 0.038-0.556 0.096-0.799 0.027-0.113 0.104-0.213 0.131-0.325 0.025-0.097 0-0.183 0.021-0.276 0.061-0.262 0.205-0.544 0.369-0.756 0.139-0.178 0.451-0.31 0.656-0.415 0.28-0.144 0.573-0.305 0.879-0.372 0.609-0.135 1.15-0.214 1.754-0.070 0.146 0.034 0.266 0.082 0.394 0.141 0.126 0.057 0.266 0.047 0.386 0.096 0.181 0.074 0.48 0.264 0.596 0.441 0.144 0.218 0.162 0.599 0.226 0.858 0.028 0.118 0.117 0.274 0.134 0.376 0.010 0.057 0.030 0.084 0.023 0.144-0.008 0.087-0.104 0.106-0.091 0.207 0.093-0.075 0.141-0.236 0.167-0.346 0.038-0.163 0.069-0.325 0.076-0.497 0.010-0.198-0.025-0.32-0.099-0.5-0.048-0.115-0.058-0.201-0.135-0.302-0.089-0.118-0.219-0.196-0.306-0.318-0.193-0.272-0.502-0.508-0.813-0.657-0.207-0.098-0.427-0.136-0.639-0.22-0.309-0.123-0.647-0.079-0.975-0.079-0.449 0-0.966-0.076-1.395 0.058-0.198 0.062-0.467 0.065-0.647 0.158-0.209 0.108-0.406 0.322-0.552 0.503-0.104 0.131-0.181 0.263-0.255 0.415-0.067 0.141-0.131 0.24-0.224 0.364-0.083 0.111-0.053 0.15-0.11 0.253-0.27 0.482-0.353 1.001-0.446 1.536-0.040 0.226-0.018 0.464-0.018 0.694 0 0.21-0.030 0.438 0.017 0.642 0.123 0.548 0.379 1.005 0.757 1.417 0.507 0.554 1.198 0.73 1.841 1.060 0.285 0.146 0.705 0.156 1.020 0.154 0.585-0.002 1.134-0.036 1.709-0.141 0.756-0.137 1.536-0.328 2.234-0.657 0.258-0.122 0.509-0.275 0.713-0.476 0.213-0.211 0.267-0.446 0.367-0.718 0.043-0.115 0.074-0.228 0.11-0.342 0.039-0.121 0.114-0.25 0.145-0.373 0.043-0.161 0.005-0.335 0.031-0.499 0.031-0.189 0.060-0.35 0.065-0.542 0.016-0.67 0.083-1.385-0.24-1.986-0.179-0.333-0.302-0.677-0.56-0.961-0.132-0.147-0.206-0.323-0.336-0.467-0.123-0.137-0.319-0.214-0.463-0.331-0.218-0.179-0.397-0.325-0.669-0.418-0.285-0.097-0.564-0.132-0.841-0.202-0.429-0.109-0.875-0.093-1.317-0.097-0.193-0.002-0.334 0.043-0.517 0.098-0.141 0.044-0.468 0.104 0.239 0.459z"></path>
<path d="M17.426 10.179c-0.012 0.025-0.022 0.048-0.034 0.071-0.082 0.018-0.17-0.040-0.248-0.060-0.134-0.033-0.294-0.023-0.429-0.054-0.447-0.102-0.95-0.331-1.373-0.512-0.336-0.145-0.622-0.424-0.893-0.664-0.398-0.353-0.709-0.659-0.849-1.177-0.134-0.498-0.242-1.142-0.079-1.644 0.071-0.218 0.119-0.461 0.213-0.669 0.126-0.28 0.338-0.448 0.521-0.677 0.714-0.887 1.963-1.313 3.074-1.394 0.397-0.028 0.801-0.067 1.178 0.058 0.333 0.111 0.698 0.28 0.981 0.483 0.662 0.473 1.251 1.18 1.289 2.041 0.012 0.248-0.017 0.556-0.066 0.801-0.023 0.114-0.095 0.217-0.118 0.329-0.021 0.1 0.008 0.184-0.010 0.277-0.051 0.264-0.184 0.552-0.341 0.77-0.131 0.183-0.439 0.325-0.639 0.438-0.275 0.156-0.561 0.327-0.865 0.406-0.603 0.158-1.141 0.258-1.75 0.137-0.146-0.030-0.268-0.073-0.399-0.127-0.127-0.053-0.267-0.036-0.389-0.082-0.184-0.066-0.49-0.245-0.613-0.418-0.152-0.211-0.185-0.592-0.258-0.849-0.032-0.117-0.127-0.268-0.148-0.371-0.012-0.057-0.032-0.083-0.028-0.143 0.005-0.088 0.1-0.11 0.083-0.21-0.091 0.078-0.132 0.24-0.154 0.353-0.031 0.163-0.057 0.327-0.058 0.498-0.001 0.198 0.038 0.319 0.119 0.495 0.052 0.114 0.066 0.2 0.146 0.298 0.092 0.114 0.226 0.187 0.316 0.305 0.204 0.266 0.52 0.489 0.838 0.626 0.21 0.092 0.432 0.121 0.647 0.197 0.312 0.112 0.649 0.053 0.977 0.042 0.449-0.017 0.967 0.040 1.391-0.112 0.196-0.069 0.464-0.082 0.642-0.181 0.204-0.115 0.393-0.337 0.532-0.525 0.1-0.134 0.172-0.27 0.24-0.424 0.062-0.144 0.122-0.244 0.21-0.372 0.079-0.114 0.048-0.152 0.102-0.257 0.249-0.493 0.312-1.014 0.386-1.552 0.031-0.227 0-0.466-0.010-0.695-0.008-0.21 0.014-0.438-0.040-0.64-0.144-0.543-0.417-0.988-0.81-1.387-0.528-0.534-1.225-0.683-1.88-0.989-0.29-0.135-0.712-0.13-1.027-0.115-0.583 0.025-1.132 0.079-1.701 0.206-0.751 0.166-1.522 0.385-2.206 0.741-0.254 0.131-0.5 0.293-0.695 0.503-0.205 0.218-0.25 0.455-0.34 0.731-0.039 0.117-0.065 0.231-0.097 0.345-0.034 0.123-0.105 0.255-0.132 0.379-0.035 0.163 0.010 0.334-0.012 0.5-0.023 0.191-0.045 0.353-0.043 0.544 0.008 0.67-0.032 1.387 0.314 1.976 0.192 0.327 0.328 0.664 0.596 0.939 0.137 0.14 0.219 0.315 0.354 0.454 0.128 0.132 0.327 0.201 0.474 0.312 0.224 0.17 0.41 0.31 0.684 0.393 0.289 0.085 0.568 0.11 0.849 0.17 0.432 0.092 0.876 0.060 1.318 0.047 0.193-0.005 0.333-0.054 0.515-0.119 0.139-0.048 0.463-0.121-0.257-0.449z"></path>
<path d="M20.984 21.94l0.012 0.078c-0.058 0.060-0.165 0.060-0.241 0.087-0.13 0.045-0.258 0.141-0.388 0.189-0.43 0.159-0.976 0.245-1.429 0.324-0.36 0.064-0.755-0.013-1.112-0.065-0.525-0.076-0.953-0.162-1.353-0.519-0.386-0.343-0.83-0.822-0.97-1.331-0.060-0.222-0.153-0.451-0.189-0.677-0.048-0.302 0.038-0.559 0.066-0.85 0.11-1.133 0.92-2.175 1.806-2.851 0.315-0.241 0.633-0.495 1.016-0.598 0.341-0.091 0.738-0.149 1.086-0.135 0.813 0.033 1.693 0.302 2.196 1 0.145 0.202 0.292 0.474 0.385 0.706 0.043 0.108 0.039 0.233 0.082 0.341 0.038 0.093 0.106 0.149 0.144 0.237 0.101 0.249 0.148 0.563 0.136 0.83-0.010 0.226-0.188 0.513-0.293 0.718-0.145 0.28-0.29 0.581-0.502 0.814-0.417 0.461-0.812 0.84-1.388 1.073-0.139 0.056-0.263 0.085-0.403 0.113-0.135 0.026-0.242 0.115-0.369 0.145-0.191 0.045-0.544 0.064-0.742-0.013-0.242-0.093-0.48-0.393-0.682-0.569-0.091-0.079-0.253-0.154-0.327-0.228-0.040-0.042-0.073-0.052-0.102-0.104-0.044-0.076 0.023-0.146-0.045-0.222-0.034 0.115 0.021 0.275 0.064 0.38 0.065 0.154 0.132 0.305 0.226 0.448 0.108 0.166 0.206 0.246 0.371 0.35 0.106 0.066 0.165 0.13 0.285 0.169 0.14 0.043 0.292 0.031 0.433 0.080 0.315 0.11 0.703 0.123 1.044 0.065 0.226-0.039 0.426-0.136 0.649-0.191 0.321-0.079 0.572-0.311 0.839-0.502 0.366-0.261 0.831-0.497 1.103-0.856 0.124-0.166 0.342-0.323 0.436-0.503 0.108-0.209 0.144-0.498 0.157-0.731 0.010-0.166-0.004-0.32-0.031-0.485-0.027-0.156-0.032-0.272-0.028-0.428 0.003-0.139-0.044-0.153-0.056-0.271-0.061-0.547-0.294-1.018-0.528-1.509-0.1-0.207-0.255-0.389-0.389-0.576-0.122-0.171-0.228-0.375-0.384-0.513-0.42-0.376-0.892-0.599-1.439-0.716-0.735-0.157-1.4 0.101-2.114 0.204-0.318 0.045-0.666 0.281-0.922 0.465-0.474 0.342-0.902 0.688-1.309 1.106-0.537 0.551-1.062 1.158-1.439 1.83-0.14 0.249-0.257 0.52-0.306 0.801-0.051 0.296 0.041 0.519 0.118 0.799 0.032 0.118 0.073 0.228 0.109 0.341 0.038 0.122 0.052 0.271 0.097 0.389 0.058 0.157 0.189 0.275 0.264 0.425 0.084 0.171 0.154 0.32 0.262 0.478 0.375 0.556 0.734 1.177 1.346 1.481 0.34 0.167 0.639 0.375 1.014 0.458 0.192 0.043 0.355 0.143 0.544 0.185 0.18 0.040 0.384-0.012 0.568 0.001 0.281 0.019 0.513 0.035 0.788-0.048 0.289-0.085 0.535-0.219 0.802-0.323 0.412-0.159 0.766-0.432 1.129-0.684 0.158-0.11 0.248-0.228 0.364-0.381 0.089-0.117 0.321-0.355-0.46-0.235z"></path>
<path d="M22.204 22.212c-0.005-0.026-0.010-0.052-0.014-0.078 0.056-0.061 0.162-0.065 0.237-0.095 0.127-0.051 0.253-0.152 0.381-0.205 0.424-0.175 0.966-0.281 1.414-0.377 0.358-0.078 0.755-0.017 1.114 0.022 0.528 0.056 0.958 0.126 1.373 0.467 0.398 0.328 0.861 0.79 1.019 1.294 0.069 0.219 0.17 0.445 0.214 0.669 0.060 0.301-0.016 0.56-0.032 0.853-0.067 1.136-0.837 2.208-1.697 2.917-0.306 0.253-0.613 0.519-0.993 0.635-0.337 0.104-0.731 0.176-1.080 0.175-0.814-0.001-1.703-0.236-2.234-0.914-0.153-0.197-0.309-0.464-0.411-0.692-0.047-0.106-0.048-0.232-0.095-0.337-0.040-0.092-0.111-0.145-0.152-0.232-0.111-0.245-0.17-0.556-0.169-0.825 0.001-0.224 0.169-0.52 0.266-0.727 0.135-0.286 0.268-0.592 0.471-0.832 0.399-0.478 0.779-0.871 1.346-1.127 0.137-0.061 0.261-0.096 0.399-0.128 0.134-0.031 0.239-0.125 0.363-0.16 0.191-0.052 0.543-0.083 0.743-0.014 0.246 0.084 0.494 0.375 0.701 0.542 0.096 0.077 0.259 0.145 0.336 0.217 0.043 0.040 0.075 0.048 0.108 0.1 0.045 0.074-0.018 0.148 0.053 0.22 0.028-0.117-0.031-0.274-0.079-0.377-0.069-0.153-0.143-0.301-0.241-0.439-0.114-0.163-0.215-0.239-0.384-0.336-0.109-0.062-0.17-0.124-0.292-0.158-0.141-0.038-0.293-0.021-0.436-0.064-0.319-0.099-0.708-0.097-1.045-0.026-0.226 0.048-0.421 0.152-0.642 0.215-0.319 0.091-0.56 0.333-0.819 0.533-0.357 0.275-0.811 0.529-1.070 0.897-0.119 0.17-0.331 0.337-0.417 0.52-0.1 0.213-0.124 0.502-0.13 0.736-0.003 0.166 0.017 0.319 0.051 0.484 0.032 0.154 0.041 0.27 0.045 0.427 0.001 0.139 0.049 0.152 0.066 0.267 0.082 0.546 0.332 1.007 0.585 1.49 0.106 0.202 0.27 0.379 0.41 0.56 0.128 0.167 0.242 0.366 0.403 0.498 0.433 0.36 0.914 0.564 1.465 0.661 0.74 0.13 1.395-0.153 2.105-0.284 0.315-0.057 0.655-0.306 0.904-0.5 0.46-0.359 0.875-0.721 1.267-1.154 0.515-0.57 1.016-1.198 1.369-1.884 0.13-0.254 0.236-0.529 0.274-0.813 0.040-0.297-0.061-0.516-0.148-0.793-0.036-0.117-0.080-0.226-0.121-0.337-0.044-0.121-0.062-0.268-0.113-0.385-0.065-0.153-0.2-0.267-0.28-0.415-0.092-0.167-0.167-0.314-0.28-0.468-0.395-0.541-0.778-1.149-1.401-1.427-0.346-0.156-0.652-0.351-1.029-0.42-0.194-0.035-0.362-0.128-0.551-0.163-0.183-0.034-0.384 0.025-0.569 0.020-0.281-0.007-0.513-0.014-0.784 0.078-0.287 0.097-0.528 0.24-0.791 0.353-0.406 0.176-0.749 0.462-1.102 0.727-0.154 0.117-0.239 0.237-0.35 0.394-0.084 0.121-0.307 0.367 0.469 0.218z"></path>
<path d="M10.862 20.443c0.026-0.001 0.053-0.001 0.079-0.002 0.052 0.065 0.039 0.171 0.057 0.249 0.030 0.135 0.11 0.275 0.143 0.408 0.108 0.446 0.128 0.998 0.153 1.457 0.021 0.366-0.101 0.747-0.196 1.097-0.137 0.512-0.272 0.927-0.674 1.284-0.386 0.342-0.914 0.727-1.436 0.804-0.227 0.035-0.465 0.1-0.694 0.109-0.307 0.012-0.552-0.102-0.838-0.166-1.112-0.242-2.052-1.171-2.619-2.129-0.202-0.342-0.417-0.687-0.473-1.081-0.049-0.347-0.060-0.749-0.005-1.094 0.128-0.804 0.499-1.645 1.252-2.063 0.217-0.121 0.506-0.235 0.747-0.298 0.112-0.030 0.236-0.013 0.347-0.042 0.099-0.026 0.161-0.089 0.253-0.114 0.259-0.073 0.576-0.082 0.84-0.039 0.223 0.036 0.489 0.248 0.678 0.376 0.262 0.177 0.543 0.358 0.749 0.594 0.41 0.469 0.739 0.906 0.902 1.505 0.040 0.145 0.054 0.272 0.065 0.415 0.010 0.136 0.086 0.255 0.101 0.384 0.022 0.196-0.001 0.548-0.101 0.735-0.122 0.229-0.447 0.429-0.646 0.609-0.089 0.082-0.183 0.233-0.264 0.298-0.047 0.035-0.060 0.066-0.115 0.089-0.080 0.034-0.143-0.040-0.226 0.019 0.11 0.047 0.275 0.012 0.384-0.019 0.162-0.045 0.319-0.096 0.473-0.171 0.178-0.087 0.268-0.175 0.39-0.327 0.079-0.097 0.149-0.148 0.201-0.263 0.061-0.134 0.066-0.285 0.132-0.42 0.146-0.3 0.205-0.683 0.187-1.029-0.012-0.228-0.084-0.438-0.111-0.666-0.041-0.329-0.242-0.605-0.399-0.892-0.217-0.394-0.395-0.884-0.72-1.197-0.15-0.144-0.281-0.38-0.45-0.493-0.194-0.132-0.476-0.201-0.707-0.242-0.165-0.030-0.319-0.034-0.486-0.026-0.157 0.007-0.272 0-0.428-0.022-0.136-0.019-0.157 0.025-0.275 0.023-0.551-0.004-1.046 0.172-1.561 0.346-0.218 0.074-0.416 0.207-0.617 0.318-0.185 0.101-0.399 0.183-0.556 0.322-0.421 0.372-0.699 0.814-0.88 1.344-0.242 0.71-0.065 1.401-0.047 2.123 0.008 0.32 0.201 0.694 0.354 0.97 0.283 0.512 0.576 0.978 0.942 1.431 0.484 0.598 1.024 1.191 1.648 1.645 0.231 0.167 0.486 0.316 0.761 0.398 0.287 0.085 0.519 0.019 0.805-0.023 0.122-0.018 0.236-0.044 0.353-0.067 0.126-0.023 0.275-0.019 0.398-0.051 0.162-0.040 0.296-0.157 0.452-0.213 0.181-0.064 0.336-0.115 0.507-0.204 0.595-0.306 1.255-0.59 1.628-1.162 0.206-0.318 0.447-0.59 0.574-0.953 0.065-0.185 0.184-0.336 0.248-0.519 0.062-0.175 0.035-0.382 0.069-0.564 0.052-0.277 0.095-0.506 0.045-0.788-0.051-0.297-0.154-0.558-0.226-0.835-0.11-0.428-0.338-0.813-0.546-1.202-0.091-0.171-0.198-0.274-0.336-0.407-0.106-0.104-0.315-0.362-0.288 0.429z"></path>
<path d="M10.603 19.342c-0.026 0.002-0.052 0.004-0.079 0.005-0.054-0.062-0.045-0.169-0.066-0.246-0.035-0.134-0.121-0.27-0.158-0.403-0.126-0.441-0.167-0.992-0.211-1.449-0.034-0.364 0.074-0.749 0.153-1.103 0.118-0.517 0.237-0.937 0.625-1.308 0.372-0.358 0.884-0.762 1.404-0.861 0.226-0.043 0.462-0.117 0.688-0.135 0.306-0.023 0.555 0.082 0.844 0.132 1.12 0.2 2.095 1.090 2.699 2.026 0.215 0.335 0.443 0.67 0.515 1.062 0.064 0.345 0.089 0.745 0.048 1.092-0.097 0.809-0.434 1.665-1.171 2.112-0.213 0.128-0.497 0.253-0.735 0.327-0.11 0.034-0.235 0.021-0.345 0.054-0.097 0.030-0.158 0.096-0.249 0.124-0.255 0.082-0.572 0.104-0.838 0.071-0.224-0.027-0.498-0.228-0.692-0.35-0.268-0.166-0.556-0.336-0.771-0.564-0.428-0.452-0.774-0.876-0.961-1.469-0.045-0.143-0.065-0.27-0.082-0.411-0.014-0.136-0.096-0.251-0.115-0.38-0.030-0.195-0.019-0.548 0.071-0.739 0.114-0.235 0.43-0.446 0.621-0.634 0.088-0.085 0.175-0.24 0.254-0.307 0.044-0.038 0.057-0.069 0.111-0.095 0.079-0.038 0.145 0.035 0.226-0.027-0.113-0.043-0.276-0.001-0.384 0.034-0.159 0.050-0.315 0.108-0.465 0.188-0.175 0.095-0.262 0.187-0.377 0.342-0.075 0.101-0.144 0.154-0.191 0.272-0.056 0.136-0.056 0.288-0.115 0.424-0.135 0.306-0.179 0.691-0.148 1.036 0.022 0.228 0.102 0.436 0.139 0.661 0.053 0.328 0.266 0.596 0.433 0.876 0.231 0.386 0.43 0.869 0.766 1.168 0.156 0.137 0.296 0.368 0.468 0.474 0.2 0.124 0.484 0.183 0.716 0.214 0.166 0.023 0.32 0.022 0.486 0.006 0.157-0.013 0.274-0.010 0.429 0.006 0.137 0.013 0.156-0.031 0.274-0.035 0.551-0.017 1.038-0.213 1.547-0.406 0.214-0.083 0.408-0.224 0.604-0.342 0.181-0.108 0.392-0.198 0.543-0.342 0.407-0.387 0.666-0.841 0.827-1.378 0.215-0.72 0.010-1.403-0.036-2.123-0.021-0.32-0.228-0.686-0.392-0.955-0.302-0.5-0.613-0.954-0.997-1.392-0.507-0.579-1.071-1.151-1.711-1.58-0.237-0.158-0.498-0.297-0.775-0.368-0.29-0.074-0.52 0.001-0.805 0.055-0.121 0.023-0.233 0.055-0.349 0.082-0.124 0.028-0.274 0.030-0.395 0.066-0.161 0.047-0.289 0.167-0.445 0.229-0.178 0.071-0.331 0.13-0.498 0.223-0.583 0.331-1.232 0.639-1.582 1.225-0.194 0.325-0.425 0.607-0.537 0.974-0.058 0.189-0.171 0.344-0.228 0.528-0.054 0.178-0.019 0.385-0.047 0.568-0.041 0.279-0.075 0.508-0.014 0.788 0.062 0.296 0.176 0.552 0.258 0.826 0.127 0.424 0.369 0.799 0.592 1.18 0.098 0.167 0.209 0.266 0.351 0.394 0.11 0.099 0.329 0.349 0.271-0.441z"></path>
</svg>
