<!-- Generated by IcoMoon.io -->
<svg version="1.1" xmlns="http://www.w3.org/2000/svg" width="30" height="32" viewBox="0 0 30 32">
<title>plan_in_shambles</title>
<path d="M15.164 30.958c-1.196-0.296-2.478-0.151-3.673-0.579-0.464 0.212-1.101-1.145-1.462-1.662-0.676-0.914-1.021-1.774-1.693-2.713-0.59-1.054-1.011-2.174-1.078-3.388-0.191-1.233-0.548-2.387-0.722-3.625-0.31-1.093-0.721-2.146-0.684-3.309 0.023-1.152-0.171-2.176-0.234-3.302-0.068-1.323 0.262-2.609 0.23-3.933-0.040-1.237 0.536-2.329 0.895-3.475 0.316-1.073 1.362-1.771 2.171-2.462 0.908-0.452 1.775-0.857 2.778-1.145 1.070-0.223 2.054-0.459 3.155-0.231 1.407 0.143 2.893-0.179 4.235 0.325 0.916 0.736 1.886 1.455 2.638 2.38 0.683 1.174 1.19 2.467 1.482 3.801 0.469 1.015 0.321 2.215 0.501 3.289 0.22 1.662 0.325 3.362 0.079 5.034-0.101 1.457 0.172 2.955-0.336 4.359 0.005 1.076-0.753 1.994-0.936 3.056-0.506 1.158-1.105 2.27-1.461 3.491-0.005 1.132-0.6 2.21-1.766 2.467-0.983 0.827-2.342 1.198-3.623 1.387-0.191-0.064-0.467 0.12-0.495 0.235zM13.953 28.616c0.393-0.331 1.325-0.513 0.236-0.7-1.271-0.061-1.685-1.267-1.473-2.352-0.075-1.213 0.081-2.38 0.456-3.491 0.843-0.781 0.2 2.449 0.81 0.957 0.306-0.453-0-1.716 0.688-0.751 0.112 0.598 0.321 1.852 0.777 1.984 0.237-0.568 0.117-2.265 0.591-2.159 0.469 1.137 0.95 2.341 1.207 3.569 0.275 1.186 0.305-0.728 0.048-1.094 0.032-0.99-0.225-2.455-0.069-3.15 1.051 0.805 1.564 2.251 1.665 3.539-0.055 0.531 0.088 1.811 0.38 0.61 0.064-1.082-0.069-2.182 0.085-3.256 0.601-0.347-0.058-1.874 0.689-1.362 0.218 0.513 0.664 2.302 0.793 0.822 0.155-1.1-0.085-1.842 0.227-2.823 0.126-1.085 0.34-2.265-0.649-2.876-0.601 0.112-1.735-0.344-1.020 0.651-0.224 1.367 1.063-0.928 1.377 0.335 0.181 0.73 0.096 1.489 0.116 2.234-0.326 0.361-1.116 1.542-0.962 0.358 0.387-0.552-0.336-2.188-0.499-0.995 0.604 0.352-0.676 1.101-0.866 1.658-0.874 0.4-0.173-1.867-0.578-2.501-0.182-0.63-0.474 1.092-0.505 1.375-0.323 0.479-0.784 1.777-1.289 1.549 0.251-1.077 0.048-2.089-0.238-3.141-0.151-0.985-0.929-2.331 0.337-2.767-0.97-0.313-1.388-1.109-2.551-0.832-1.166-0.333-1.299 1.25-2.406 0.594-0.956-0.18-0.563 0.392 0.169 0.208 1.337-0.61 0.856 2.725 1.257 0.939-0.326-1.303 1.144-2.057 2.060-1.162 0.723 0.957-0.346 2.276-0.786 3.211-0.32 0.934 0.296 2.345-0.304 3.079-0.752-0.877-0.972-2.138-0.997-3.272 0.201-0.59-0.4-1.617-0.381-0.441-0.169 0.452-0.396 1.756 0.095 1.254-0.577 0.523-0 3.205-1.168 2.076-0.623-0.982-0.523-2.288-0.906-3.434-0.326-1.154-0.491 1.587-0.3 2.11-0.468 0.238 0.288 1.22-0.474 1.372-0.298-0.98-0.71-2.002-0.762-3.15-0.602-0.495-0.229 1.666-0.008 2.067 0.153 1.314 0.145 2.634 0.106 3.961-0.166 0.76 0.568 1.301 0.516 0.207 0.268-0.685 0.653-2.238 1.458-2.094-0.095 0.672 0.49 0.979 0.213 1.593 0.117-0.132 0.611-1.846 0.843-0.838-0.012 1.355 0.182 2.694 0.532 3.999-0.004 0.677-0.852 0.977 0.116 1.404 0.639-0.112 1.018 1.425 1.339 0.927zM16.419 22.659c0.227-0.34 0.199 0.328 0 0zM18.358 20.762c0.213-0.439 0.172 0.423 0 0zM19.163 20.051c0.021-0.45 0.29 0.27 0 0zM12.294 19.912c0.082-0.299 0.052 0.366 0 0zM14.943 16.504c0.022-0.309 0.253 0.284 0 0zM18.458 27.676c0.382-0.096 1.833-0.728 1.278-0.939-0.796-0.111-1.288 0.28-2.050 0.417-0.629-1.047-1.014 1.112 0.092 0.512 0.252 0.199 0.42 0.315 0.68 0.011zM11.95 27.12c-0.475-0.502-1.32-1.362-1.806-0.949 0.458 0.573 0.963 1.259 1.806 0.949zM20.669 26.443c0.442-1.018-0.413-0.718-0.487 0.060-0.388 0.199 0.586 0.414 0.487-0.060zM14.758 26.145c0.446-1.050-0.326-0.044-0.531-0.487-0.446-0.885 0.321 1.787 0.531 0.487zM11.14 25.203c0.081-1.773-0.803 0.469 0 0zM10.769 24.231c-0.168-1.21-0.593-0.148-0.023 0.181zM20.834 23.966c-0.24-0.409-0.017 0.422 0 0zM20.888 22.846c-0.485-0.658-0.123 0.509 0 0zM22.528 20.614c-0.599-1.264-0.43 0.705 0 0zM7.698 20.403c0.407-0.916-0.869-2.555-0.288-0.802-0.027 0.166-0.025 1.247 0.288 0.802zM22.279 19.598c0.165-0.382 0.569-0.309 0.033-0.848-0.437-0.993-0.243 2.127-0.033 0.848zM19.583 17.608c-0.4-0.805-0.047 1.122 0 0zM8.531 16.553c-0.133-0.535 1.346-1.033 0.076-0.853-0.572 0.016-0.155 1.819-0.076 0.853zM18.333 16.242c0.945-0.010 0.638-0.424 0.194-0.914-0.22-0.895-0.917-0.229-0.442 0.261 0.022 0.193-0.243 1.026 0.248 0.653zM10.264 15.929c0.174-0.529 0.416-1.642-0.422-1.011-0.388 0.546-0.61 0.805 0.137 1.075 0.074 0.272 0.358 0.23 0.285-0.064zM17.961 8.615c-0.339-1.040 0.21-2.049 1.291-1.339-0.101-0.773-0.893-1.897-0.426-2.486 0.496 0.359 1.507 0.477 0.681-0.239-0.518-0.337-0.473-1.075 0.251-0.639 0.008-0.732-1.691-1.523-1.999-0.923 0.719 0.391 0.277 0.945-0.245 0.827-0.11 0.269 1.035 0.879 0.066 0.873-0.437 0.032 1.032 1.137 0.165 1.042-0.881-0.003-0.802 0.646-0.014 0.703-0.151 0.566-0.377 1.24-0.747 1.733-0.637-0.148-1.069 0.541-0.226 0.388 0.526-0.33 0.815 0.718 1.203 0.060zM6.764 20.973c0.259-0.271 0.027 0.291 0 0z"></path>
</svg>
