<!-- Generated by IcoMoon.io -->
<svg version="1.1" xmlns="http://www.w3.org/2000/svg" width="32" height="32" viewBox="0 0 32 32">
<title>point_of_no_return</title>
<path d="M18.359 8.989c-0.007-0.001-0.014-0.003-0.025-0.004-0.018-0.058-0.004-0.135-0.004-0.195v-0.678c0-0.225 0-0.45-0.001-0.674-0.001-0.209 0.032-0.412 0.028-0.62-0.001-0.163 0-0.328-0.001-0.492 0-0.142 0.032-0.28 0.032-0.426-0.003-0.173 0.018-0.337-0.050-0.497-0.025-0.061-0.058-0.127-0.091-0.185-0.032-0.056-0.064-0.134-0.104-0.185-0.036-0.044-0.061-0.045-0.064-0.109-0.003-0.058 0-0.119 0-0.177 0-0.099 0-0.198 0-0.297 0-0.069 0.011-0.13-0.018-0.193-0.048-0.107-0.134-0.231-0.258-0.253-0.184-0.032-0.282 0.162-0.336 0.305-0.065 0.179-0.14 0.379-0.138 0.569 0.001 0.123-0.021 0.246-0.090 0.352-0.146 0.221-0.232 0.521-0.278 0.779-0.032 0.185-0.097 0.373-0.148 0.554-0.048 0.162-0.081 0.329-0.126 0.492-0.042 0.157-0.105 0.308-0.138 0.467-0.021 0.098-0.032 0.196-0.055 0.293-0.036 0.157-0.109 0.301-0.142 0.459-0.025 0.127-0.021 0.257-0.059 0.383-0.032 0.101-0.058 0.19-0.077 0.294-0.011 0.062-0.041 0.116-0.055 0.178-0.018 0.065-0.044 0.13-0.058 0.195-0.011 0.045-0.011 0.12 0.028 0.141 0.032 0.014 0.13 0.036 0.168 0.028s0.050-0.032 0.081-0.051c0.043-0.025 0.097-0.036 0.141-0.059 0.138-0.076 0.238-0.21 0.377-0.283 0.097-0.051 0.264-0.135 0.373-0.095 0.113 0.042 0.176 0.159 0.294 0.195 0.059 0.018 0.116 0.014 0.178 0.014 0.107-0.001 0.232 0.021 0.336-0.007 0.142-0.037 0.25-0.091 0.281-0.218z"></path>
<path d="M13.988 8.962c0.003-0.145 0.044-0.282 0.055-0.431 0.025-0.35 0.116-0.694 0.112-1.045-0.001-0.149 0-0.298 0-0.446 0-0.152 0.025-0.297 0.028-0.448 0.007-0.247 0.018-0.514-0.057-0.752-0.025-0.080-0.079-0.171-0.14-0.221-0.043-0.036-0.050-0.018-0.056-0.083-0.004-0.050 0.001-0.103 0.001-0.153 0-0.112 0.003-0.195-0.036-0.298-0.036-0.095-0.047-0.196-0.142-0.249-0.188-0.101-0.328 0.16-0.408 0.297-0.065 0.111-0.081 0.25-0.112 0.376-0.014 0.065-0.011 0.068-0.055 0.111-0.032 0.032-0.070 0.070-0.111 0.098-0.028 0.018-0.069 0.036-0.091 0.061-0.037 0.044-0.059 0.115-0.083 0.167-0.055 0.12-0.062 0.224-0.083 0.356-0.025 0.174-0.1 0.33-0.145 0.499-0.028 0.112-0.042 0.225-0.077 0.334-0.048 0.146-0.083 0.294-0.112 0.446-0.036 0.189-0.119 0.366-0.163 0.554-0.018 0.080-0.021 0.16-0.042 0.241-0.025 0.094-0.065 0.182-0.097 0.275-0.014 0.042-0.083 0.188-0.051 0.224 0.021 0.025 0.185 0.003 0.218 0.003 0.122 0.001 0.206-0.036 0.323-0.068 0.062-0.018 0.174-0.036 0.243-0.018 0.097 0.025 0.011 0.123 0.077 0.185 0.065 0.061 0.209 0.080 0.296 0.072 0.137-0.014 0.249-0.090 0.39-0.088 0.096 0.001 0.192 0.001 0.315 0.001z"></path>
<path d="M21.172 16.369c0.003 0.007 0.004 0.018 0.004 0.025 0.036-0.004 0.064-0.054 0.086-0.080 0.129-0.154 0.26-0.307 0.397-0.453 0.278-0.298 0.519-0.619 0.765-0.944 0.113-0.151 0.22-0.309 0.327-0.464 0.044-0.062 0.083-0.123 0.135-0.178 0.066-0.069 0.149-0.123 0.21-0.198 0.173-0.21 0.323-0.434 0.518-0.626 0.145-0.144 0.289-0.287 0.432-0.432 0.043-0.042 0.080-0.090 0.13-0.123 0.025-0.018 0.050-0.018 0.079-0.042 0.021-0.018 0.037-0.044 0.062-0.059 0.127-0.073 0.261-0.065 0.348 0.064 0.062 0.095 0.079 0.211 0.159 0.301 0.059 0.069 0.092 0.119 0.133 0.202 0.044 0.094 0.115 0.17 0.155 0.267 0.058 0.135 0.129 0.271 0.178 0.41 0.050 0.138 0.091 0.28 0.141 0.419 0.051 0.142 0.080 0.293 0.138 0.434 0.050 0.12 0.079 0.238 0.11 0.363 0.039 0.152 0.109 0.301 0.171 0.445 0.091 0.218 0.187 0.435 0.267 0.656 0.045 0.13 0.122 0.279 0.203 0.39 0.028 0.036 0.083 0.079 0.087 0.126 0.004 0.058-0.018 0.044-0.058 0.062-0.070 0.032-0.113 0.077-0.167 0.133-0.053 0.053-0.106 0.126-0.173 0.16-0.025 0.014-0.059 0.014-0.086 0.032-0.044 0.028-0.058 0.076-0.091 0.112-0.044 0.048-0.068 0.025-0.129 0.028-0.098 0.007-0.165 0.090-0.258 0.11-0.050 0.014-0.091 0.011-0.138 0.032-0.064 0.032-0.107 0.087-0.156 0.137-0.126 0.129-0.225 0.244-0.319 0.401-0.105 0.176-0.236 0.286-0.39 0.413-0.084 0.070-0.207 0.225-0.319 0.244-0.011-0.037-0.003-0.083-0.003-0.122 0.003-0.123 0-0.246 0-0.37 0-0.207 0.007-0.416-0.001-0.625-0.007-0.154-0.028-0.305-0.025-0.46 0.001-0.272 0.014-0.535 0.028-0.804 0.011-0.184 0.054-0.369 0.058-0.551 0.003-0.127-0.011-0.253 0.004-0.38 0.011-0.084 0.032-0.167 0.044-0.252 0.011-0.086-0.001-0.168 0.004-0.254 0.004-0.064 0.025-0.13 0.037-0.192 0.055-0.298 0.047-0.591 0.047-0.894 0-0.105 0.007-0.214 0.001-0.321-0.004-0.104-0.11-0.083-0.178-0.028-0.069 0.054-0.138 0.108-0.214 0.152-0.059 0.036-0.124 0.052-0.179 0.1-0.064 0.055-0.113 0.126-0.181 0.178-0.062 0.051-0.13 0.094-0.194 0.142-0.148 0.112-0.243 0.275-0.401 0.377-0.095 0.061-0.196 0.113-0.272 0.2-0.072 0.086-0.126 0.185-0.195 0.274-0.17 0.216-0.374 0.423-0.569 0.615-0.149 0.151-0.3 0.3-0.45 0.45-0.066 0.066-0.123 0.149-0.196 0.209 0.025-0.007 0.051-0.007-0.118 0.189z"></path>
<path d="M29.388 17.651c-0.004-0.26-0.181-0.482-0.319-0.694-0.308-0.473-0.568-0.978-0.851-1.467-0.086-0.149-0.173-0.291-0.278-0.428-0.079-0.104-0.142-0.222-0.231-0.318-0.062-0.066-0.102-0.064-0.181-0.1-0.055-0.025-0.081-0.054-0.145-0.057-0.050-0.003-0.112-0.007-0.162-0.001-0.068 0.011-0.109 0.057-0.16 0.098-0.165 0.133-0.322 0.28-0.502 0.391-0.127 0.079-0.232 0.199-0.334 0.304-0.032 0.036-0.062 0.068-0.095 0.101-0.014 0.014-0.039 0.018-0.051 0.032-0.014 0.014-0.007 0.036-0.021 0.051 0.032-0.004 0.072 0.007 0.102-0.001 0.028-0.007 0.053-0.032 0.082-0.043 0.145-0.057 0.316-0.037 0.443-0.141 0.099-0.082 0.164-0.191 0.311-0.179 0.097 0.007 0.148 0.084 0.221 0.133 0.066 0.043 0.062 0.108 0.077 0.181 0.036 0.167-0.011 0.349-0.075 0.504-0.157 0.384-0.269 0.782-0.448 1.158-0.055 0.114-0.119 0.22-0.182 0.33-0.032 0.054-0.057 0.116-0.098 0.165-0.032 0.037-0.071 0.064-0.099 0.106-0.102 0.156-0.119 0.38-0.18 0.555-0.025 0.079-0.040 0.154-0.054 0.236-0.014 0.069-0.059 0.156 0.028 0.192 0.050 0.021 0.086-0.003 0.127-0.025 0.108-0.059 0.236-0.133 0.332-0.209 0.118-0.094 0.224-0.213 0.322-0.326 0.055-0.062 0.102-0.129 0.166-0.182 0.069-0.059 0.151-0.105 0.224-0.157 0.123-0.087 0.236-0.221 0.394-0.213 0.099 0.004 0.135 0.057 0.176 0.142 0.036 0.076 0.098 0.086 0.148 0.151 0.058 0.075 0.077 0.166 0.145 0.239 0.053 0.057 0.12 0.098 0.171 0.156 0.059 0.069 0.133 0.165 0.242 0.126 0.119-0.043 0.191-0.221 0.296-0.297 0.053-0.039 0.090-0.068 0.134-0.116 0.042-0.045 0.086-0.055 0.134-0.090 0.081-0.058 0.156-0.095 0.2-0.189 0.014-0.032 0.025-0.045 0.021-0.084-0.003-0.115-0.032-0.222-0.028-0.032z"></path>
<path d="M15.937 6.428c0.007-0.001 0.014-0.003 0.025-0.004 0.018-0.057 0.004-0.133 0.004-0.192 0-0.173 0.001-0.337 0.025-0.507 0.018-0.126-0.068-0.263-0.135-0.363-0.061-0.093-0.088-0.104-0.195-0.102-0.092 0-0.155 0.014-0.196 0.109-0.021 0.050-0.025 0.098-0.053 0.142-0.021 0.032-0.047 0.045-0.065 0.080-0.080 0.16-0.133 0.358-0.131 0.538 0 0.028 0.007 0.077 0.001 0.108-0.007 0.025-0.025 0.025-0.032 0.051-0.007 0.025 0.004 0.058 0.001 0.086-0.007 0.051 0.001 0.025-0.028 0.056-0.007 0.007-0.025 0.007-0.037 0.018-0.018 0.018-0.011 0.039-0.025 0.058-0.037 0.051-0.091 0.092-0.127 0.145-0.097 0.138-0.163 0.292-0.206 0.453-0.018 0.059-0.054 0.099-0.073 0.157-0.025 0.073-0.036 0.154-0.058 0.228-0.039 0.12-0.094 0.229-0.138 0.347-0.061 0.165-0.093 0.34-0.144 0.509-0.037 0.123-0.083 0.247-0.113 0.373-0.032 0.123-0.028 0.25-0.058 0.374-0.036 0.155-0.084 0.297-0.101 0.456-0.018 0.159-0.036 0.315-0.062 0.473-0.043 0.269-0.054 0.539-0.090 0.808-0.025 0.182-0.047 0.361-0.134 0.524-0.051 0.095-0.054 0.236 0.084 0.228 0.091-0.004 0.176-0.032 0.269-0.032 0.188 0.002 0.326 0.192 0.452 0.312 0.064 0.059 0.112 0.093 0.202 0.115s0.168 0.044 0.263 0.048c0.098 0.004 0.156 0.021 0.238 0.077 0.109 0.072 0.232 0.079 0.34 0.145 0.12 0.076 0.244 0.056 0.383 0.056 0.093 0 0.217 0.025 0.305 0.004 0.068-0.014 0.093-0.087 0.119-0.144 0.051-0.116 0.091-0.239 0.127-0.361 0.075-0.264 0.086-0.517 0.087-0.789 0.001-0.165 0.028-0.326 0.032-0.491 0.004-0.193-0.036-0.374-0.054-0.566-0.047-0.521 0.081-1.035 0.079-1.554-0.001-0.405-0.070-0.795-0.109-1.195-0.014-0.138-0.068-0.294-0.113-0.424-0.025-0.068-0.032-0.075-0.077-0.114-0.037-0.032-0.053-0.061-0.083-0.097-0.086-0.102-0.179-0.17-0.396-0.145z"></path>
<path d="M25.731 29.238c0.037 0.138-0.103-0.014-0.116-0.028-0.385-0.531-0.764-1.057-1.111-1.614-0.246-0.395-0.488-0.792-0.734-1.187-0.216-0.347-0.406-0.701-0.612-1.054-0.099-0.173-0.21-0.337-0.303-0.515-0.047-0.091-0.104-0.193-0.16-0.275-0.040-0.055-0.057-0.066-0.055-0.144 0.011-0.564-0.036-1.144-0.13-1.698-0.062-0.355-0.133-0.705-0.168-1.064-0.025-0.241-0.083-0.478-0.091-0.72-0.003-0.092 0.004-0.13-0.061-0.185-0.102-0.086-0.191-0.188-0.305-0.258-0.123-0.073-0.214-0.148-0.322-0.246-0.076-0.068-0.148-0.14-0.215-0.214-0.047-0.047-0.090-0.097-0.129-0.151-0.053-0.045-0.098-0.040-0.137-0.109-0.042-0.073-0.079-0.176-0.115-0.252-0.117-0.249-0.181-0.518-0.249-0.783-0.076-0.301-0.156-0.607-0.225-0.915 0.077-0.3 0.157-0.6 0.238-0.898 0.155-0.576 0.309-1.15 0.443-1.73 0.141-0.614 0.271-1.23 0.41-1.843 0.044-0.195 0.097-0.387 0.141-0.58 0.053-0.228 0.079-0.459 0.122-0.688 0.045-0.244 0.098-0.486 0.135-0.732 0.032-0.211 0.086-0.408 0.138-0.615 0.066-0.263 0.095-0.53 0.145-0.796 0.056-0.298 0.054-0.6 0.103-0.898 0.043-0.243 0.056-0.478 0.056-0.724 0-0.181-0.018-0.348-0.051-0.526-0.007-0.043 0.003-0.082-0.039-0.108-0.014-0.011-0.037 0.001-0.050-0.004-0.025-0.011-0.028-0.025-0.048-0.036-0.066-0.040-0.127-0.088-0.195-0.133-0.077-0.051-0.196-0.025-0.286-0.025-0.077-0.001-0.142-0.021-0.22-0.036-0.141-0.025-0.278-0.025-0.42-0.007-0.149 0.018-0.297 0.053-0.449 0.045-0.174-0.007-0.35-0.072-0.524-0.098-0.187-0.028-0.373-0.040-0.561-0.072-0.274-0.047-0.548-0.065-0.825-0.084-0.366-0.025-0.731-0.014-1.097-0.032-0.453-0.025-0.908-0.037-1.362-0.011-0.542 0.036-1.079 0.086-1.617 0.163-0.538 0.076-1.079 0.118-1.617 0.199-0.287 0.043-0.571 0.111-0.857 0.155-0.369 0.057-0.742 0.065-1.107 0.142-0.482 0.102-0.962 0.232-1.431 0.377-0.967 0.301-1.908 0.684-2.871 0.998-0.004 0.001-0.011 0.002-0.014 0.004 0.018-0.003 0.036-0.004 0.054-0.007 0.402-0.056 0.789-0.176 1.187-0.255 0.327-0.066 0.644-0.163 0.97-0.23 0.268-0.055 0.511-0.166 0.772-0.244 0.452-0.137 0.883-0.369 1.35-0.452 0.282-0.051 0.566-0.083 0.847-0.145 0.271-0.061 0.531-0.098 0.81-0.109 0.274-0.011 0.544-0.047 0.819-0.054 0.146-0.003 0.303-0.007 0.45 0.007 0.182 0.018 0.361 0.051 0.546 0.053 0.449 0.001 0.902 0.072 1.35 0.116 0.26 0.025 0.517 0.014 0.776 0.018 0.285 0.007 0.573 0.032 0.858 0.051 0.258 0.018 0.522 0.037 0.781 0.036 0.275-0.002 0.547 0.021 0.822 0.028 0.276 0.007 0.56 0.004 0.837 0 0.3-0.004 0.608-0.073 0.904-0.001 0.092 0.021 0.351 0.058 0.391 0.166 0.039 0.106-0.144 0.374-0.188 0.463-0.087 0.17-0.137 0.355-0.229 0.521-0.073 0.133-0.117 0.257-0.145 0.406-0.040 0.211-0.064 0.424-0.105 0.636-0.042 0.214-0.062 0.432-0.174 0.625-0.307 0.532-0.709 0.987-1.099 1.459-0.314 0.381-0.67 0.738-1.021 1.083-0.177 0.174-0.359 0.341-0.538 0.513-0.232 0.224-0.435 0.475-0.67 0.694-0.955 0.886-2.032 1.615-3.099 2.354-0.282 0.195-0.564 0.391-0.847 0.582-0.427 0.289-0.836 0.597-1.253 0.899-0.21 0.152-0.43 0.29-0.644 0.438-0.323 0.222-0.625 0.475-0.933 0.718-0.253 0.2-0.508 0.397-0.753 0.605-0.334 0.283-0.647 0.591-0.977 0.879-0.468 0.409-0.962 0.789-1.431 1.199-0.311 0.271-0.63 0.535-0.94 0.81-0.254 0.228-0.497 0.468-0.754 0.691-0.388 0.337-0.789 0.659-1.155 1.020-0.511 0.502-1.024 1.002-1.306 1.676 0.065 0.014 0.12-0.014 0.177-0.045 0.154-0.084 0.315-0.155 0.475-0.225 0.271-0.12 0.539-0.26 0.815-0.366 0.289-0.11 0.591-0.168 0.887-0.253 0.409-0.119 0.808-0.265 1.206-0.41 0.296-0.108 0.597-0.184 0.901-0.26 0.131-0.032 0.264-0.066 0.397-0.094 0.652-0.738 1.306-1.477 1.97-2.205 0.391-0.287 0.803-0.544 1.193-0.836 0.564-0.423 1.133-0.843 1.687-1.28 0.383-0.308 0.761-0.622 1.136-0.942 0.153-0.115 0.298-0.238 0.437-0.37 0.036-0.047 0.048-0.098 0.091-0.141 0.071-0.048 0.138-0.101 0.202-0.158 0.151-0.13 0.296-0.265 0.437-0.406 0.326-0.319 0.631-0.652 0.985-0.941 0.351-0.286 0.739-0.557 1.021-0.918 0.055-0.069 0.102-0.17 0.168-0.231 0.055-0.051 0.13-0.087 0.196-0.123 0.271-0.14 0.537-0.28 0.803-0.43 0.242-0.137 0.479-0.276 0.723-0.401 0.043 0.211 0.084 0.421 0.088 0.638 0.004 0.135 0.039 0.253 0.037 0.391-0.001 0.18 0.068 0.333 0.097 0.515 0.028 0.184 0.079 0.354 0.134 0.53 0.044 0.14 0.084 0.282 0.127 0.423-0.028 0.032-0.058 0.062-0.087 0.092-0.007 0.011-0.018 0.018-0.025 0.028 0.138 0.249 0.196 0.549 0.129 0.858v0.001c0.043 0.050 0.083 0.105 0.12 0.166 0.702 1.141 0.965 2.418 1.223 3.715 0.123 0.611 0.253 1.223 0.362 1.838 0.088 0.028 0.16 0.178 0.198 0.233 0.233 0.358 0.484 0.703 0.698 1.075 0.104 0.18 0.184 0.38 0.294 0.554 0.146 0.233 0.337 0.441 0.529 0.64 0.597 0.619 1.081 1.324 1.629 1.983 0.193 0.232 0.399 0.453 0.547 0.718 0.057 0.102 0.059 0.145 0.18 0.146 0.037 0 0.126 0.018 0.156-0.004 0.039-0.028 0.011-0.095 0.032-0.12 0.040-0.044 0.123 0.070 0.184 0.075 0.122 0.007 0.18-0.129 0.243-0.207 0.050-0.061 0.144-0.061-0.122-0.495z"></path>
</svg>
