<!-- Generated by IcoMoon.io -->
<svg version="1.1" xmlns="http://www.w3.org/2000/svg" width="31" height="32" viewBox="0 0 31 32">
<title>poison</title>
<path d="M14.076 29.462c-0.859-0.859-1.009-2.769-0.322-4.113 0.164-0.321 0.503-1.235 0.753-2.032l0.455-1.449 0.493 1.23c1.222 3.049 1.457 4.775 0.785 5.765-0.824 1.215-1.391 1.372-2.164 0.598zM24.971 23.947c0.707-0.204 1.615-1.229 1.858-2.097 0.11-0.392 0.146-0.938 0.090-1.347-0.188-1.372-1.378-3.366-2.415-4.047-0.529-0.347-0.563-0.583-0.117-0.821 0.566-0.302 2.168-1.925 2.457-2.49 0.381-0.745 0.348-1.561-0.104-2.514-0.402-0.848-1.347-1.829-1.763-1.829-0.176 0-0.202-0.045-0.091-0.156 0.24-0.24 1.196 0.074 1.838 0.604 0.681 0.562 1.045 1.256 1.276 2.433 0.249 1.263 0.125 2.124-0.481 3.343-0.444 0.895-0.49 1.074-0.312 1.223 0.451 0.375 0.618 1.099 0.686 2.976 0.060 1.661 0.032 1.985-0.226 2.624-0.318 0.79-1.575 2.114-2.007 2.114-0.14 0-0.475 0.032-0.746 0.070-0.482 0.069-0.481 0.067 0.055-0.087zM18.242 23.589c-0.518-0.436-0.81-1.334-0.686-2.108 0.047-0.29 0.312-0.965 0.591-1.499s0.585-1.234 0.681-1.556c0.096-0.322 0.217-0.585 0.267-0.585 0.144 0 0.883 1.568 1.265 2.686 0.19 0.555 0.346 1.285 0.346 1.622 0 0.518-0.091 0.706-0.583 1.214-0.7 0.722-1.218 0.784-1.881 0.226zM4.873 23.31c-1.211-0.726-1.806-2.009-1.806-3.896 0-1.015 0.058-1.261 0.513-2.183 0.458-0.926 0.49-1.064 0.297-1.277-0.516-0.57-0.664-1.285-0.664-3.196 0-1.481 0.055-2.005 0.255-2.451 0.514-1.143 1.552-2.094 2.271-2.079 0.453 0.009 0.455 0.012 0.101 0.153-0.546 0.218-0.872 0.565-1.275 1.36-0.321 0.632-0.357 0.857-0.298 1.822 0.056 0.921 0.154 1.256 0.596 2.048 0.573 1.028 0.981 1.518 1.764 2.114 0.278 0.212 0.475 0.463 0.439 0.557s-0.359 0.357-0.717 0.584c-0.85 0.538-2.068 2.005-2.262 2.725-0.324 1.203 0.63 3.127 1.877 3.786l0.529 0.279-0.51 0.005c-0.291 0.002-0.768-0.149-1.11-0.354zM10.266 23.394c-0.549-0.335-0.785-0.948-0.784-2.039 0-0.578 0.092-0.966 0.313-1.327 0.172-0.281 0.492-1.035 0.711-1.676l0.399-1.166 0.471 1.020c0.632 1.369 0.905 2.303 0.98 3.353 0.060 0.851 0.046 0.892-0.509 1.494-0.635 0.688-0.913 0.748-1.581 0.341zM13.482 17.447c0.053-0.139-0.022-0.168-0.271-0.106-0.455 0.114-0.582-0.119-0.589-1.090l-0.007-0.791-0.875-0.31c-0.762-0.269-0.896-0.374-1.039-0.812-0.196-0.601-0.12-0.871 0.248-0.871 0.364 0 0.219-0.352-0.23-0.557-0.595-0.271-0.862-0.85-0.881-1.907-0.010-0.529-0.070-1.364-0.133-1.855s-0.070-1.325-0.014-1.854c0.088-0.823 0.187-1.065 0.687-1.694 0.321-0.404 0.674-0.734 0.784-0.734s0.397-0.287 0.639-0.639c0.345-0.501 0.558-0.661 0.991-0.742 0.303-0.057 0.624-0.163 0.713-0.236 0.269-0.222 1.512-0.398 1.927-0.272 0.215 0.065 0.773 0.186 1.241 0.27 0.88 0.157 2.29 0.933 3.314 1.823 0.286 0.249 0.704 0.606 0.928 0.795 0.403 0.338 0.407 0.356 0.323 1.604-0.295 4.39-0.598 5.291-1.995 5.925l-0.506 0.23 0.48-0.090c0.562-0.106 0.905 0.116 0.905 0.587 0 0.368-0.418 0.806-0.768 0.806-0.129 0-0.275 0.065-0.324 0.144s-0.448 0.248-0.888 0.376c-0.794 0.231-0.798 0.235-0.708 0.715 0.199 1.060-0.341 1.315-3.039 1.434-0.771 0.034-0.973 0.001-0.915-0.149zM15.108 14.369l0.168-0.338 0.094 0.374c0.071 0.281 0.188 0.374 0.471 0.374 0.419 0 0.422 0.030-0.132-1.273-0.438-1.032-0.7-0.998-1.1 0.143-0.176 0.501-0.319 0.965-0.319 1.031 0.002 0.257 0.66 0.007 0.818-0.311zM13.737 12.739c0.136-0 0.42-0.15 0.632-0.332 0.334-0.288 0.372-0.403 0.284-0.87-0.081-0.43-0.223-0.609-0.705-0.889-1.026-0.595-1.201-0.605-1.835-0.103-0.926 0.733-0.898 1.702 0.071 2.464 0.374 0.294 0.38 0.295 0.841 0.013 0.255-0.156 0.575-0.283 0.711-0.284zM18.629 12.305c0.376-0.554 0.424-1.259 0.117-1.698-0.116-0.166-0.516-0.418-0.888-0.56l-0.677-0.259-0.715 0.704c-0.563 0.555-0.715 0.804-0.715 1.175 0 0.576 0.428 0.921 1.162 0.935 0.283 0.007 0.645 0.066 0.806 0.135 0.412 0.176 0.539 0.116 0.911-0.433z"></path>
</svg>
