<!-- Generated by IcoMoon.io -->
<svg version="1.1" xmlns="http://www.w3.org/2000/svg" width="32" height="32" viewBox="0 0 32 32">
<title>private_lives</title>
<path d="M2.928 21.793c-0.026-5.006-0.050-10.061-0.052-11.232l-0.005-2.13 3.243-1.868c1.784-1.027 4.232-2.435 5.44-3.128s2.641-1.525 3.184-1.847l0.986-0.587 4.559 2.629c2.507 1.446 5.453 3.134 6.546 3.75l1.988 1.122 0.074 10.754c0.041 5.915 0.012 10.953-0.066 11.197-0.434 1.367-0.531-0.199-0.531-8.554 0-5.794-0.074-8.998-0.207-8.998s-0.227 3.259-0.264 9.050l-0.057 9.050-0.050-9.050c-0.032-5.86-0.124-9.050-0.259-9.050s-0.209 3.139-0.209 8.998-0.073 8.998-0.209 8.998-0.209-3.139-0.209-8.998-0.073-8.998-0.209-8.998-0.209 3.139-0.209 8.998-0.073 8.998-0.209 8.998-0.209-3.139-0.209-8.998-0.073-8.998-0.209-8.998-0.209 3.139-0.209 8.998-0.073 8.998-0.209 8.998-0.209-3.139-0.209-8.998v-8.998h-18.413v8.666c0 4.767-0.057 8.815-0.127 8.998-0.411 1.071-0.501-0.481-0.501-8.666 0-5.794-0.074-8.998-0.207-8.998s-0.228 3.259-0.264 9.050l-0.057 9.050-0.050-9.050c-0.032-5.86-0.124-9.050-0.259-9.050s-0.209 3.139-0.209 8.998-0.073 8.998-0.209 8.998-0.209-3.139-0.209-8.998-0.073-8.998-0.209-8.998-0.209 3.139-0.209 8.998-0.073 8.998-0.209 8.998-0.209-3.139-0.209-8.998-0.073-8.998-0.209-8.998-0.209 3.139-0.209 8.998-0.073 8.998-0.209 8.998-0.226-3.205-0.257-9.102zM28.042 10.545l0.061-1.623-24.604 0.108-0.063 1.338c-0.035 0.736-0.014 1.466 0.046 1.623 0.091 0.237 2.164 0.276 12.304 0.231l12.194-0.054zM3.813 10.494v-1.151h23.815l0.143 2.302-23.959-0.001zM26.999 10.499l0.065-0.738h-22.624v1.446l1.412 0.062c0.777 0.034 5.838 0.041 11.247 0.015l9.834-0.047zM26.715 8.109c-0.295-0.278-10.77-6.299-10.959-6.299-0.184 0-10.686 6.023-10.991 6.304-0.114 0.105 4.581 0.183 10.975 0.183 6.589 0 11.092-0.077 10.975-0.187zM6.443 7.902c-0.161-0.261-0.098-0.302 4.829-3.125l4.425-2.536 4.73 2.733c2.602 1.503 4.677 2.819 4.612 2.924-0.153 0.248-18.443 0.253-18.596 0.005zM22.436 6.657c-4.236-2.491-6.553-3.801-6.725-3.801-0.206 0-7.469 4.114-7.807 4.422-0.112 0.102 3.303 0.181 7.847 0.18l8.045-0.001-1.36-0.8zM14.74 29.208c-1.357-0.267-2.949-1.232-3.737-2.264-2.186-2.862-1.531-6.942 1.421-8.855 0.557-0.361 1.013-0.772 1.013-0.913 0-0.377 1.549-0.931 2.568-0.917 1.172 0.015 2.256 0.413 2.539 0.93 0.126 0.23 0.353 0.497 0.503 0.593 0.854 0.543 1.809 1.593 2.3 2.527 0.477 0.91 0.559 1.325 0.562 2.844 0.002 1.462-0.085 1.946-0.487 2.72-0.914 1.756-2.155 2.724-4.157 3.246-1.313 0.342-1.252 0.34-2.525 0.089zM17.728 28.037c0.602-0.205 1.373-0.702 1.888-1.217 2.364-2.364 1.941-6.275-0.873-8.059-0.789-0.5-1.026-0.554-1.799-0.411-0.49 0.091-1.314 0.086-1.832-0.010-2.989-0.556-5.498 3.725-4.048 6.905 1.157 2.537 3.963 3.713 6.664 2.792z"></path>
</svg>
