<!-- Generated by IcoMoon.io -->
<svg version="1.1" xmlns="http://www.w3.org/2000/svg" width="32" height="32" viewBox="0 0 32 32">
<title>provisions</title>
<path d="M13.072 1.183l-3.608 7.216 1.072 0.536 3.059-6.117 10.791 5.713 0.561-1.059-11.875-6.287zM28 7.4c-0.567 0-1.135 0.1-1.614 0.448s-0.811 0.899-1.042 1.639c-0.462 1.48-0.611 3.829-0.611 7.845v0.6h1.934v-1.2h-0.717c0.022-3.54 0.191-5.775 0.539-6.887 0.185-0.593 0.395-0.875 0.603-1.027 0.071-0.051 0.22-0.041 0.308-0.073v15.255h1.2v-16.6h-0.6zM3.408 7.902c-0.337 2.021-0.531 3.723-0.245 5.058 0.143 0.667 0.425 1.264 0.916 1.684 0.337 0.289 0.843 0.34 1.322 0.428v8.928h1.2v-8.928c0.479-0.088 0.985-0.139 1.322-0.428 0.49-0.42 0.771-1.017 0.914-1.684 0.286-1.335 0.093-3.037-0.244-5.058l-1.184 0.197c0.33 1.979 0.47 3.611 0.256 4.609-0.107 0.499-0.285 0.819-0.523 1.023s-0.574 0.336-1.141 0.336c-0.567 0-0.902-0.131-1.141-0.336s-0.416-0.524-0.523-1.023c-0.214-0.999-0.074-2.631 0.256-4.609l-1.184-0.197zM5.4 8v4.667h1.2v-4.667h-1.2zM16.667 8.733c-4.006 0-7.267 3.261-7.267 7.267s3.261 7.267 7.267 7.267c4.006 0 7.266-3.261 7.266-7.267s-3.259-7.267-7.266-7.267zM16.667 9.933c3.358 0 6.066 2.71 6.066 6.067s-2.708 6.067-6.066 6.067c-3.358 0-6.067-2.71-6.067-6.067s2.71-6.067 6.067-6.067zM24.816 21.031l-4.372 7.492-11.486-6.381-0.583 1.048 12.514 6.953 4.962-8.508-1.036-0.605z"></path>
</svg>
