<!-- Generated by IcoMoon.io -->
<svg version="1.1" xmlns="http://www.w3.org/2000/svg" width="33" height="32" viewBox="0 0 33 32">
<title>pyroclastic_flow</title>
<path d="M10.291 29.922c0.411-0.043 1.083-0.043 1.494 0s0.075 0.078-0.747 0.078c-0.822 0-1.158-0.035-0.747-0.078zM18.961 29.921c0.469-0.042 1.186-0.041 1.594 0.001s0.025 0.077-0.852 0.077c-0.877-0.001-1.21-0.036-0.742-0.078zM8.548 29.669c-0.068-0.11-0.947-0.218-1.954-0.24l-1.831-0.041 1.74-0.066c1.272-0.049 1.888 0.014 2.291 0.232 0.372 0.202 0.441 0.301 0.213 0.307-0.185 0.005-0.392-0.082-0.46-0.191zM13.030 29.669c0.274-0.088 0.722-0.158 0.996-0.156 0.447 0.003 0.437 0.019-0.1 0.156-0.329 0.084-0.777 0.154-0.996 0.156-0.312 0.003-0.291-0.031 0.1-0.156zM21.742 29.563c0.348-0.244 0.944-0.292 2.983-0.242l2.547 0.062-2.628 0.043c-1.488 0.024-2.681 0.13-2.751 0.242-0.068 0.11-0.227 0.199-0.355 0.199s-0.036-0.137 0.203-0.305zM4.962 28.343c-1.038-0.124-2.092-0.475-2.092-0.697 0-0.131 0.174-0.16 0.448-0.075 0.246 0.077 1.232 0.24 2.191 0.364s1.743 0.295 1.743 0.381c0 0.155-1.108 0.168-2.291 0.027zM12.731 28.283c-1.825-0.084-2.254-0.152-1.812-0.288 0.33-0.102 1.697-0.109 3.187-0.016 3.282 0.203 3.974 0.209 5.148 0.040 0.956-0.137 1.326 0.107 0.498 0.329-0.492 0.132-3.315 0.106-7.022-0.064zM24.15 27.975c-0.074-0.075-0.477-0.258-0.896-0.407l-0.762-0.272 0.707-0.009c0.389-0.005 0.806 0.090 0.927 0.211 0.145 0.145 1.097 0.196 2.808 0.149 2.156-0.058 2.655-0.131 2.987-0.432 0.22-0.199 0.451-0.278 0.514-0.176s-0.072 0.354-0.3 0.561c-0.354 0.321-0.809 0.385-3.133 0.443-1.495 0.037-2.779 0.006-2.853-0.068zM12.465 26.972c-0.421-0.305-0.642-0.312-2.332-0.080-1.448 0.199-2.042 0.204-2.646 0.023-0.954-0.286-2.358-0.305-2.526-0.034-0.183 0.297-1.035 0.241-1.719-0.113-0.577-0.298-0.589-0.331-0.282-0.747 0.177-0.239 0.372-0.586 0.434-0.77 0.169-0.507 0.721-0.635 1.014-0.236 0.227 0.311 0.254 0.313 0.254 0.021 0-0.18-0.147-0.409-0.326-0.51-0.278-0.155-0.096-0.49 1.225-2.251 1.856-2.475 1.69-2.292 2.223-2.453 0.644-0.194 0.866 0.628 0.287 1.065-0.379 0.286-0.398 0.385-0.183 0.955 0.208 0.552 0.19 0.697-0.141 1.094l-0.381 0.458 0.485-0.448c0.429-0.397 0.459-0.515 0.262-1.038-0.166-0.44-0.164-0.639 0.007-0.781 0.252-0.209 0.925 0.17 0.925 0.522 0 0.112 0.312 0.442 0.694 0.733 0.416 0.318 0.648 0.41 0.579 0.23-0.063-0.164-0.286-0.353-0.495-0.419s-0.38-0.208-0.38-0.315c0-0.107-0.202-0.398-0.448-0.646-0.824-0.829-0.615-1.344 1.34-3.31 0.984-0.989 1.868-1.798 1.965-1.798 0.174 0 0.125 0.307-0.175 1.096-0.124 0.327-0.104 0.354 0.116 0.15 0.147-0.136 0.286-0.63 0.308-1.096s0.053-1.027 0.069-1.246c0.030-0.429 1.131-1.836 1.302-1.664 0.057 0.057 0.239 1.082 0.405 2.278s0.39 2.434 0.498 2.752c0.244 0.718 0.259 2.709 0.020 2.709-0.293 0-0.82-0.949-0.82-1.475 0-0.271-0.077-0.541-0.17-0.599-0.231-0.143-0.057 0.835 0.286 1.602 0.259 0.579 1.278 1.089 1.278 0.64 0-0.096 0.224-0.119 0.498-0.050 0.307 0.077 0.498 0.040 0.498-0.096 0-0.369 0.397-0.246 0.412 0.128 0.008 0.192 0.145-0.077 0.305-0.598s0.378-0.946 0.484-0.946c0.106 0 0.193-0.127 0.193-0.282s0.112-0.327 0.249-0.383c0.163-0.066 0.14-0.106-0.065-0.116-0.284-0.014-0.286-0.132-0.022-1.211 0.161-0.657 0.361-1.195 0.446-1.195 0.228 0 1.185 1.187 1.185 1.469 0 0.134-0.086 0.33-0.192 0.436-0.123 0.123-0.089 0.512 0.096 1.086l0.288 0.894-0.119-0.946c-0.065-0.52-0.038-0.946 0.062-0.946s0.529 0.597 0.956 1.326c0.427 0.729 1.028 1.584 1.336 1.899 0.681 0.697 0.725 1.458 0.112 1.957-0.407 0.332-0.416 0.378-0.101 0.501 0.191 0.074 0.289 0.229 0.218 0.344-0.077 0.125-0.033 0.15 0.11 0.061 0.177-0.11 0.182-0.218 0.017-0.416-0.169-0.204-0.123-0.367 0.195-0.685l0.417-0.417 0.912 0.653c0.502 0.359 1.087 0.753 1.301 0.876 0.33 0.19 0.342 0.241 0.078 0.342-0.171 0.066-0.309 0.234-0.307 0.374 0.002 0.178 0.060 0.165 0.192-0.044 0.126-0.199 0.507-0.297 1.142-0.294 0.818 0.005 1.121 0.132 2.128 0.896l1.174 0.891-0.577 0.126c-0.964 0.21-3.458 0.161-5.457-0.108-1.32-0.178-2.043-0.194-2.39-0.052-0.274 0.111-1.529 0.221-2.789 0.243s-3.008 0.103-3.884 0.18c-1.332 0.117-1.67 0.084-2.058-0.197zM16.485 25.778c-0.158-0.412-0.269-0.363-0.269 0.118 0 0.226 0.086 0.357 0.191 0.292s0.14-0.249 0.078-0.41zM17.176 24.788c0.125-0.274 0.146-0.498 0.047-0.498s-0.229 0.157-0.288 0.349c-0.059 0.192-0.066-0.093-0.014-0.633s0.228-1.13 0.392-1.31 0.298-0.479 0.298-0.662c0-0.183 0.090-0.333 0.199-0.333s0.199-0.087 0.199-0.193c0-0.106-0.134-0.141-0.299-0.078s-0.299 0.308-0.299 0.543-0.16 0.529-0.355 0.651c-0.268 0.167-0.367 0.522-0.404 1.442-0.051 1.285 0.145 1.554 0.524 0.722zM15.673 24.275c-0.11-0.42-0.93-0.861-1.329-0.714-0.12 0.044-0.389-0.065-0.596-0.242-0.36-0.308-0.366-0.301-0.139 0.132 0.151 0.288 0.399 0.441 0.676 0.417 0.871-0.073 1.135 0.025 1.135 0.423 0 0.219 0.081 0.398 0.181 0.398s0.132-0.186 0.072-0.414zM15.623 21.956c-0.19-0.304-0.203-0.286-0.090 0.123 0.112 0.405 0.075 0.458-0.239 0.348-0.334-0.117-0.332-0.099 0.027 0.179 0.354 0.275 0.405 0.276 0.462 0.006 0.035-0.166-0.037-0.462-0.159-0.657zM29.264 25.393l-0.598-0.274 0.532-0.016c0.642-0.020 1.162 0.161 1.162 0.404 0 0.248-0.394 0.207-1.096-0.114zM2.273 24.888c0-0.11 0.246-0.198 0.548-0.196 0.427 0.003 0.482 0.046 0.249 0.196-0.39 0.252-0.797 0.252-0.797 0zM15.965 20.984c-0.078-0.078-0.088-0.479-0.021-0.891 0.093-0.581-0.005-1.005-0.437-1.887-0.617-1.26-0.69-2.059-0.278-3.024 0.251-0.588 0.233-0.726-0.215-1.629-0.27-0.543-0.736-1.133-1.038-1.311-0.465-0.276-0.548-0.457-0.548-1.198 0-0.939-0.074-1.027-1.292-1.519-1.229-0.497-1.186-1.064 0.185-2.445 0.833-0.84 1.249-1.116 1.68-1.116 0.619 0 0.935-0.269 1.051-0.895 0.082-0.443 0.716-0.638 2.198-0.675 0.514-0.013 0.99-0.113 1.058-0.223s0.499-0.186 0.958-0.169c0.595 0.021 0.678 0.054 0.287 0.113-0.57 0.086-0.772 0.455-0.249 0.455 0.164 0 0.299 0.174 0.299 0.387 0 0.294 0.197 0.426 0.826 0.55 0.887 0.175 1.305 0.603 1.104 1.128-0.176 0.457-2.484 0.473-2.658 0.019-0.065-0.169-0.050-0.371 0.034-0.448s0.192-0.029 0.24 0.108c0.121 0.34 2.113 0.346 2 0.006-0.044-0.134-0.468-0.337-0.942-0.453-0.564-0.137-0.912-0.35-1.011-0.617-0.129-0.348-0.341-0.413-1.453-0.444-0.716-0.020-1.529 0.051-1.807 0.156-0.665 0.253-0.848 1.013-0.406 1.687 0.188 0.288 0.294 0.572 0.234 0.631s-0.169-0.083-0.244-0.318c-0.157-0.495-0.763-0.769-1.422-0.643-0.516 0.099-2.468 1.924-2.454 2.296 0.005 0.131 0.476 0.462 1.046 0.736 1.007 0.484 1.037 0.523 1.058 1.365 0.018 0.75 0.283 1.226 0.676 1.216 0.055-0.001 0.298-0.395 0.54-0.876l0.44-0.873-0.49-0.321c-0.651-0.427-0.702-1.612-0.077-1.811 0.535-0.17 0.783 0.076 0.332 0.328-0.652 0.365-0.293 1.37 0.49 1.37 0.197 0 0.361-0.022 0.364-0.050s0.169-0.543 0.368-1.145c0.293-0.886 0.454-1.106 0.841-1.151 0.432-0.050 0.446-0.029 0.143 0.211-0.184 0.147-0.399 0.531-0.477 0.852s-0.534 1.176-1.015 1.899c-0.728 1.094-0.859 1.434-0.784 2.035 0.049 0.397 0.231 0.924 0.404 1.171 0.403 0.576 0.4 1.363-0.009 2.222-0.312 0.654-0.305 0.722 0.188 1.799 0.282 0.616 0.607 1.119 0.723 1.119 0.329 0 0.249-1.137-0.089-1.267-0.379-0.145-0.396-1.279-0.025-1.705 0.445-0.512 0.582-1.711 0.228-2.004-0.321-0.267-0.413-1.107-0.139-1.276 0.090-0.056 0.127 0.146 0.083 0.448-0.049 0.336 0.040 0.648 0.229 0.805 0.235 0.195 0.281 0.481 0.19 1.184-0.065 0.51-0.197 1.012-0.292 1.116-0.222 0.243-0.226 1.106-0.005 1.106 0.397 0 0.849-0.812 0.901-1.619 0.031-0.479 0.125-1.026 0.21-1.215 0.098-0.22 0.039-0.458-0.165-0.662-0.399-0.399-0.409-1.055-0.022-1.481 0.245-0.27 0.254-0.437 0.054-0.967-0.285-0.756-0.048-1.292 0.617-1.391 0.235-0.035 0.434-0.214 0.442-0.398 0.011-0.27 0.047-0.258 0.185 0.064 0.289 0.672 0.225 0.846-0.275 0.75-0.555-0.106-0.798 0.186-0.62 0.745 0.103 0.323 0.302 0.397 1.082 0.397 1.231 0 2.12-0.608 1.79-1.225-0.319-0.597-0.096-0.921 0.802-1.163 0.666-0.179 0.807-0.303 0.807-0.708 0-0.27 0.068-0.49 0.152-0.49s0.24-0.202 0.349-0.448c0.111-0.254 0.413-0.478 0.695-0.517 1.041-0.144 1.418-1.027 0.438-1.027-0.949 0-1.329-0.674-0.723-1.281 0.341-0.341 1.383-0.441 1.181-0.114-0.068 0.11-0.287 0.199-0.488 0.199-0.388 0-0.704 0.514-0.422 0.688 0.258 0.159 2.89-0.216 3.389-0.483 0.244-0.131 0.497-0.185 0.562-0.12 0.205 0.205-0.615 0.671-1.403 0.797-0.592 0.095-0.848 0.273-1.168 0.815-0.245 0.415-0.565 0.693-0.797 0.693-0.516 0-1.327 0.898-1.403 1.555-0.049 0.415-0.215 0.569-0.792 0.73-0.952 0.266-1.043 0.378-0.727 0.894 0.237 0.387 0.202 0.485-0.354 0.985-0.375 0.338-0.96 0.61-1.494 0.695-1.504 0.24-2.177 0.932-1.475 1.514 0.164 0.136 0.299 0.461 0.299 0.722 0 0.378 0.105 0.474 0.521 0.474 0.3 0 0.823 0.265 1.232 0.624l0.711 0.624 0.461-0.536c0.559-0.649 0.593-1.111 0.084-1.111-0.393 0-0.619-0.366-0.619-1.005 0-0.391 0.545-0.788 1.082-0.788 0.481 0 0.369 0.363-0.134 0.434-0.546 0.078-0.711 0.712-0.232 0.895 0.193 0.074 0.604-0.014 0.927-0.2 0.326-0.187 1.008-0.333 1.556-0.333 0.933 0 0.993-0.034 1.37-0.772 0.434-0.851 0.361-1.115-0.223-0.802-0.21 0.112-0.624 0.177-0.92 0.142-0.447-0.052-0.538-0.16-0.538-0.643 0-0.32 0.116-0.62 0.258-0.667 0.188-0.063 0.222 0.058 0.123 0.449-0.12 0.478-0.084 0.528 0.34 0.468 0.377-0.053 0.462-0.171 0.415-0.573-0.047-0.409 0.092-0.591 0.726-0.947 0.845-0.475 1.11-0.878 1.041-1.584-0.048-0.491 0.731-0.93 1.278-0.72 0.558 0.214 1.253-0.12 1.65-0.793 0.398-0.675 1.138-1.054 1.359-0.696 0.066 0.107-0.065 0.242-0.291 0.301s-0.591 0.412-0.81 0.783c-0.364 0.618-0.481 0.676-1.352 0.679-1.113 0.003-1.514 0.199-1.339 0.654 0.155 0.405-0.501 1.272-1.356 1.792-0.602 0.366-0.614 0.397-0.253 0.66 0.44 0.322 2.803 0.382 2.992 0.076 0.068-0.11-0.016-0.341-0.188-0.512s-0.311-0.433-0.311-0.582c0-0.371 0.556-0.896 0.948-0.896 0.256 0 0.229 0.087-0.131 0.422-0.674 0.628-0.243 0.845 0.737 0.371 0.704-0.34 0.836-0.497 0.836-0.997 0-0.326 0.090-0.593 0.199-0.593s0.199 0.276 0.199 0.613c0 0.422-0.165 0.747-0.53 1.046-0.292 0.238-0.814 0.724-1.16 1.080-0.529 0.545-0.774 0.647-1.542 0.647-0.868 0-0.949 0.050-1.629 0.996-0.656 0.914-0.782 0.996-1.523 0.996-0.962 0-1.907 0.445-2.076 0.977-0.435 1.37-1.65 1.815-2.496 0.915-0.257-0.274-0.625-0.498-0.817-0.498-0.5 0-0.976 0.545-0.976 1.118 0 0.27-0.172 0.735-0.383 1.032s-0.486 1.182-0.613 1.966c-0.228 1.414-0.578 2.213-0.85 1.94zM19.491 13.842c-0.356-0.543-0.323-1.145 0.067-1.223 0.14-0.028 0.162-0.006 0.050 0.050-0.298 0.148-0.25 0.712 0.106 1.219 0.171 0.244 0.262 0.443 0.204 0.443s-0.25-0.22-0.426-0.488zM21.844 11.94c0.044-0.164 0.298-0.315 0.563-0.336 0.38-0.029 0.398-0.014 0.084 0.073-0.219 0.060-0.472 0.211-0.563 0.336-0.109 0.149-0.137 0.125-0.084-0.073zM19.619 10.828c0.009-0.232 0.057-0.279 0.12-0.12 0.058 0.144 0.051 0.316-0.016 0.382s-0.113-0.051-0.105-0.261zM16.631 10.629c0.009-0.232 0.057-0.279 0.12-0.12 0.058 0.144 0.051 0.316-0.016 0.382s-0.113-0.051-0.105-0.261zM22.016 10.709c-0.024-0.34 1.106-1.291 1.302-1.096 0.059 0.059-0.164 0.246-0.494 0.417s-0.642 0.469-0.693 0.662c-0.081 0.311-0.094 0.313-0.115 0.016zM19.681 9.834c-0.071-0.282-0.050-0.591 0.046-0.686 0.1-0.099 0.181 0.12 0.19 0.513 0.018 0.817-0.060 0.874-0.236 0.174zM27.014 9.957c0.275-0.44 0.468-0.385 0.289 0.082-0.065 0.169-0.211 0.307-0.325 0.307-0.131 0-0.118-0.143 0.036-0.389zM16.938 9.858c0.062-0.161 0.283-0.347 0.492-0.414 0.227-0.072 0.38-0.303 0.38-0.574 0-0.441 0.547-1.113 0.907-1.113 0.098 0-0.021 0.14-0.265 0.31s-0.443 0.512-0.443 0.759c0 0.267-0.24 0.627-0.592 0.887-0.395 0.292-0.555 0.34-0.48 0.145zM13.264 8.958c-0.239-0.323-0.434-0.711-0.434-0.863 0-0.389 0.722-0.997 1.034-0.872 0.184 0.074 0.168 0.109-0.054 0.12-0.173 0.009-0.435 0.24-0.582 0.514-0.24 0.448-0.22 0.549 0.2 0.995 0.257 0.273 0.422 0.541 0.368 0.594s-0.293-0.166-0.532-0.489zM23.188 9.209c0-0.114 0.157-0.331 0.349-0.481 0.322-0.253 0.327-0.244 0.056 0.125-0.161 0.219-0.318 0.436-0.349 0.481s-0.056-0.011-0.056-0.125zM27.378 9.027c-0.003-0.124 0.106-0.315 0.243-0.425 0.313-0.252 1.743-0.421 1.743-0.207 0 0.088-0.354 0.159-0.787 0.159-0.539 0-0.851 0.11-0.99 0.349-0.112 0.192-0.206 0.248-0.209 0.124zM18.952 8.729c0.135-0.136 0.296-0.197 0.357-0.136s-0.049 0.173-0.246 0.248c-0.284 0.108-0.307 0.085-0.112-0.112zM19.765 8.418c0.144-0.058 0.316-0.051 0.382 0.016s-0.051 0.113-0.261 0.105c-0.232-0.009-0.279-0.057-0.12-0.12zM24.384 8.297c0.274-0.138 0.677-0.585 0.896-0.992s0.51-0.742 0.647-0.742c0.149-0 0.089 0.159-0.149 0.398-0.219 0.219-0.398 0.484-0.398 0.59 0 0.297-0.836 1.004-1.183 1.001-0.186-0.002-0.11-0.104 0.187-0.254zM21.794 7.558c0.219-0.219 0.398-0.503 0.398-0.631s0.057-0.175 0.127-0.106c0.16 0.16-0.467 1.135-0.729 1.135-0.107 0-0.016-0.179 0.204-0.398zM16.927 6.222c-0.108-0.284-0.085-0.307 0.112-0.112 0.136 0.135 0.197 0.296 0.136 0.357s-0.173-0.049-0.248-0.246zM22.338 6.18c-0.087-0.331-0.061-0.409 0.087-0.261 0.116 0.116 0.171 0.328 0.123 0.472-0.050 0.149-0.14 0.059-0.21-0.21zM27.318 6.415c0.791-0.056 1.114-0.177 1.345-0.505 0.167-0.238 0.303-0.337 0.303-0.22 0 0.509-0.741 0.872-1.709 0.835l-0.98-0.037zM17.187 5.516c0.278-0.354 1.313-0.483 1.497-0.185 0.055 0.090-0.164 0.124-0.488 0.077s-0.745 0.036-0.936 0.185c-0.314 0.246-0.321 0.239-0.073-0.077zM21.725 5.201c-0.354-0.391-0.257-0.633 0.252-0.628 0.266 0.003 0.271 0.031 0.029 0.184-0.237 0.15-0.241 0.235-0.025 0.495 0.363 0.438 0.147 0.395-0.256-0.051z"></path>
</svg>
