<!-- Generated by IcoMoon.io -->
<svg version="1.1" xmlns="http://www.w3.org/2000/svg" width="31" height="32" viewBox="0 0 31 32">
<title>quito</title>
<path d="M7.072 30.575c0-0.234 0.002-0.425 0.004-0.425 0.037 0 0.588-0.121 0.598-0.131 0.011-0.011 0.016-0.627 0.020-2.889 0.003-1.71 0.010-2.992 0.018-3.165 0.017-0.402 0.043-0.548 0.17-0.947 0.12-0.377 0.146-0.586 0.146-1.188 0.001-0.456 0.030-1.48 0.045-1.539 0.019-0.075 0.051-0.118 0.112-0.149l0.058-0.029 2.327-0.003c1.657-0.002 2.349 0 2.403 0.009 0.089 0.015 0.134 0.039 0.163 0.087 0.047 0.076 0.050 0.145 0.053 1.204 0.002 0.89 0.005 1.032 0.022 1.129 0.029 0.165 0.069 0.306 0.136 0.479 0.11 0.284 0.143 0.461 0.144 0.766 0 0.112 0.010 1.157 0.021 2.322s0.023 2.448 0.027 2.851c0.004 0.403 0.009 0.813 0.013 0.911l0.007 0.177h4.278l0.018-0.055c0.019-0.058 0.019-0.025 0.053-3.029 0.016-1.421 0.034-2.601 0.047-3.061 0.011-0.43 0.013-0.443 0.102-0.745 0.062-0.21 0.118-0.426 0.163-0.623l0.032-0.14 0.012-2.256 0.291-0.067 4.562-0.003 0.145 0.032c0.080 0.017 0.147 0.034 0.149 0.036 0.014 0.014 0.026 1.144 0.016 1.456-0.023 0.684 0.029 1.105 0.192 1.561 0.111 0.31 0.101 0.207 0.11 1.139 0.005 0.454 0.006 1.932 0.002 3.285s-0.003 2.458 0.001 2.458c0.004 0 0.126 0.026 0.27 0.058s0.264 0.058 0.268 0.058c0.003 0 0.006 0.191 0.006 0.425v0.425h-17.199zM11.474 28.74c0.004-1.87 0.005-1.814-0.026-1.993-0.014-0.083-0.046-0.209-0.070-0.279-0.044-0.128-0.258-0.63-0.32-0.751-0.083-0.163-0.197-0.31-0.309-0.401-0.139-0.112-0.124-0.11-0.219-0.036-0.147 0.115-0.287 0.317-0.415 0.6-0.030 0.067-0.094 0.204-0.141 0.303-0.098 0.207-0.144 0.34-0.181 0.519-0.026 0.125-0.026 0.132-0.029 1.586-0.003 1.323 0.003 1.722 0.026 1.76 0.003 0.005 0.382 0.009 0.842 0.009h0.837zM21.717 30.025c0.013-0.047 0.027-2.977 0.015-3.127-0.031-0.402-0.163-0.764-0.411-1.135-0.147-0.219-0.275-0.366-0.387-0.444l-0.094-0.066-0.12 0.136c-0.262 0.296-0.363 0.44-0.491 0.704-0.161 0.329-0.241 0.628-0.274 1.027-0.007 0.083-0.012 0.71-0.012 1.539l-0 1.399h1.766zM17.129 25.883c-0.059-0.029-0.089-0.078-0.141-0.231-0.152-0.443-0.409-0.801-0.924-1.289-0.252-0.238-0.298-0.26-0.42-0.202-0.127 0.060-0.482 0.391-0.668 0.624-0.133 0.166-0.267 0.372-0.356 0.549-0.071 0.141-0.082 0.171-0.111 0.285-0.015 0.062-0.063 0.108-0.167 0.161-0.060 0.030-0.095 0.040-0.14 0.040-0.119-0-0.173-0.067-0.193-0.241-0.016-0.143-0.015-1.215 0.002-1.512 0.022-0.394-0.013-0.664-0.132-0.998-0.032-0.091-0.074-0.209-0.093-0.263s-0.045-0.159-0.058-0.233c-0.023-0.129-0.024-0.176-0.023-1.193 0.001-0.582 0.004-1.101 0.008-1.152l0.007-0.093 0.118-0.028c0.104-0.025 0.156-0.029 0.438-0.037 0.479-0.012 3.037-0.011 3.173 0.001 0.227 0.020 0.292 0.080 0.318 0.287 0.015 0.117 0.015 1.691 0.001 1.901-0.013 0.181-0.027 0.253-0.108 0.535-0.094 0.329-0.159 0.629-0.179 0.832-0.005 0.045-0.009 0.534-0.009 1.088l-0.001 1.007-0.029 0.058c-0.024 0.048-0.041 0.064-0.092 0.090-0.074 0.037-0.159 0.042-0.22 0.012zM18.447 19.642c-0.038-0.005-0.080-0.013-0.093-0.018-0.049-0.019-0.103-0.069-0.123-0.116s-0.022-0.11-0.025-1.479c-0.002-1.133 0-1.44 0.012-1.479 0.024-0.080 0.065-0.116 0.214-0.189l0.138-0.067 0.004-0.493c0.004-0.541 0.009-0.591 0.068-0.657 0.073-0.083-0.069-0.078 2.203-0.079 2.207-0.001 2.098-0.004 2.174 0.063 0.069 0.060 0.070 0.071 0.077 0.658l0.007 0.535 0.029 0.004c0.105 0.013 0.216 0.072 0.268 0.144 0.078 0.108 0.075 0.030 0.071 1.557-0.002 0.758-0.008 1.404-0.014 1.435-0.023 0.122-0.080 0.166-0.24 0.183-0.121 0.013-4.665 0.012-4.768-0.001zM8.321 19.631c-0.19-0.014-0.252-0.056-0.29-0.194-0.016-0.060-0.019-0.216-0.025-1.296-0.006-1.344-0.001-1.537 0.043-1.616 0.033-0.058 0.11-0.113 0.24-0.171l0.095-0.043 0.008-1.039 0.029-0.058c0.021-0.041 0.042-0.064 0.076-0.081 0.046-0.024 0.052-0.024 2.124-0.024 1.947 0 2.079 0.001 2.114 0.020 0.046 0.025 0.081 0.069 0.098 0.124 0.009 0.028 0.015 0.223 0.019 0.562l0.006 0.519 0.108 0.043c0.143 0.057 0.206 0.098 0.234 0.154 0.022 0.044 0.023 0.089 0.026 1.413 0.002 0.915-0.001 1.394-0.009 1.447-0.021 0.134-0.063 0.188-0.173 0.224-0.062 0.020-0.173 0.021-2.335 0.023-1.248 0.001-2.322-0.002-2.387-0.007zM13.937 19.631c-0.153-0.026-0.241-0.135-0.208-0.258 0.028-0.104 0.18-0.326 0.779-1.138 0.457-0.62 0.591-0.807 0.775-1.077 0.082-0.121 0.178-0.251 0.214-0.289 0.109-0.116 0.225-0.15 0.336-0.1 0.068 0.031 0.175 0.136 0.261 0.255 0.039 0.055 0.297 0.416 0.572 0.804s0.574 0.804 0.664 0.925c0.314 0.426 0.38 0.539 0.38 0.652 0 0.104-0.055 0.172-0.171 0.213-0.051 0.018-0.207 0.020-1.801 0.021-0.96 0.001-1.77-0.002-1.799-0.007zM13.856 18.002c-0.057-0.011-0.109-0.044-0.135-0.086-0.021-0.035-0.022-0.082-0.028-0.985l-0.006-0.948-0.379-0.128 0.007-1.187 0.039-0.070c0.141-0.251 1.007-1.886 1.027-1.938 0.013-0.035 0.035-0.103 0.049-0.151 0.025-0.086 0.025-0.102 0.032-1.629 0.005-1.11 0.011-1.568 0.021-1.635 0.022-0.149 0.159-0.883 0.67-3.613 0.162-0.867 0.304-1.626 0.314-1.685s0.026-0.123 0.035-0.141c0.043-0.083 0.203-0.173 0.283-0.158 0.024 0.005 0.060 0.028 0.095 0.062 0.084 0.082 0.078 0.056 0.326 1.387 0.298 1.601 0.426 2.288 0.615 3.293l0.182 0.972 0.013 3.084 0.027 0.098c0.041 0.149 0.078 0.23 0.231 0.514 0.077 0.143 0.233 0.436 0.346 0.65s0.239 0.448 0.279 0.518c0.161 0.284 0.223 0.435 0.256 0.629 0.025 0.148 0.010 0.864-0.020 0.92s-0.091 0.103-0.19 0.144c-0.050 0.021-0.109 0.045-0.13 0.054l-0.038 0.016 0.004 1.732-0.031 0.070c-0.017 0.039-0.049 0.087-0.070 0.108-0.038 0.037-0.041 0.037-0.124 0.033-0.124-0.007-0.162-0.029-0.272-0.167-0.051-0.064-0.398-0.543-0.77-1.065s-0.703-0.974-0.734-1.005l-0.057-0.056-0.226 0.306c-0.297 0.402-0.942 1.291-1.196 1.65-0.111 0.157-0.215 0.301-0.231 0.32-0.061 0.075-0.13 0.103-0.212 0.088zM15.928 10.897v-0.634h-0.419v1.268h0.419zM8.628 14.626c-0.146-0.021-0.208-0.089-0.229-0.251-0.008-0.061-0.011-0.608-0.008-1.645 0.004-1.549 0.004-1.554 0.029-1.641 0.014-0.048 0.046-0.132 0.071-0.186 0.097-0.209 0.142-0.411 0.142-0.641 0-0.124 0.013-0.234 0.047-0.393l0.013-0.060 3.809 0 0.037 0.055c0.051 0.076 0.062 0.126 0.074 0.344 0.006 0.104 0.021 0.25 0.034 0.326 0.023 0.132 0.033 0.167 0.117 0.398 0.021 0.058 0.049 0.152 0.062 0.209 0.024 0.102 0.024 0.136 0.028 1.48 0.002 0.756-0.001 1.477-0.007 1.602-0.009 0.204-0.013 0.233-0.038 0.283-0.035 0.070-0.092 0.104-0.203 0.12-0.1 0.014-3.878 0.014-3.977-0.001zM10.771 12.317c0.241-0.057 0.474-0.277 0.549-0.517 0.052-0.167 0.038-0.334-0.041-0.495-0.149-0.302-0.487-0.483-0.785-0.421-0.145 0.030-0.268 0.099-0.384 0.215-0.24 0.24-0.283 0.517-0.129 0.833 0.143 0.293 0.481 0.457 0.791 0.384zM18.794 14.626c-0.103-0.021-0.152-0.065-0.187-0.167-0.018-0.055-0.020-0.172-0.024-1.444-0.002-0.797 0.001-1.483 0.008-1.618 0.013-0.26 0.030-0.345 0.101-0.486 0.057-0.113 0.117-0.297 0.139-0.429 0.011-0.064 0.020-0.192 0.022-0.303 0.002-0.106 0.010-0.235 0.018-0.288l0.015-0.096h3.88l0.025 0.055c0.022 0.049 0.025 0.084 0.030 0.294 0.010 0.406 0.048 0.556 0.238 0.925 0.032 0.062 0.038 0.414 0.033 1.891-0.005 1.558-0.004 1.521-0.068 1.591-0.015 0.017-0.051 0.041-0.080 0.055l-0.052 0.025-2.025 0.002c-1.114 0.001-2.047-0.003-2.073-0.008zM21.019 12.287c0.108-0.034 0.213-0.101 0.314-0.203 0.155-0.155 0.226-0.307 0.227-0.481 0-0.197-0.065-0.347-0.221-0.502-0.157-0.157-0.312-0.226-0.507-0.225-0.306 0.002-0.607 0.242-0.686 0.547-0.024 0.092-0.024 0.25 0 0.331 0.044 0.151 0.159 0.316 0.286 0.412 0.191 0.144 0.383 0.184 0.585 0.121zM8.909 9.309c-0.14-0.017-0.218-0.070-0.253-0.174-0.027-0.080-0.039-0.452-0.032-1.042 0.007-0.601 0.015-0.795 0.055-1.321 0.037-0.485 0.112-1.154 0.158-1.409 0.043-0.237 0.139-0.312 0.298-0.231 0.069 0.035 0.089 0.091 0.109 0.305 0.009 0.097 0.030 0.287 0.046 0.421s0.035 0.299 0.042 0.367c0.007 0.067 0.016 0.126 0.020 0.13 0.006 0.007 0.187-0.843 0.498-2.353 0.060-0.291 0.201-0.985 0.312-1.542s0.212-1.032 0.223-1.057c0.040-0.090 0.178-0.171 0.262-0.153 0.105 0.023 0.196 0.106 0.222 0.206 0.009 0.034 0.059 0.274 0.11 0.533 0.106 0.53 0.353 1.751 0.553 2.729 0.165 0.806 0.348 1.638 0.357 1.626 0.004-0.005 0.032-0.252 0.062-0.55 0.061-0.596 0.065-0.616 0.143-0.665 0.054-0.033 0.149-0.035 0.204-0.003 0.085 0.049 0.093 0.086 0.167 0.76 0.017 0.15 0.043 0.376 0.058 0.5 0.076 0.606 0.090 0.933 0.085 1.92-0.004 0.696-0.006 0.768-0.025 0.826-0.027 0.080-0.078 0.132-0.159 0.159-0.060 0.020-0.148 0.021-1.751 0.023-0.928 0.001-1.722-0.002-1.765-0.008zM19.043 9.308c-0.077-0.013-0.127-0.045-0.154-0.099-0.023-0.045-0.023-0.073-0.027-0.913-0.005-1.273 0.018-1.723 0.131-2.494 0.036-0.248 0.041-0.268 0.071-0.299 0.067-0.070 0.186-0.105 0.258-0.075 0.050 0.021 0.114 0.078 0.138 0.124 0.009 0.017 0.037 0.132 0.062 0.257 0.046 0.224 0.083 0.374 0.090 0.366 0.005-0.005 0.278-1.332 0.586-2.853 0.425-2.095 0.393-1.95 0.491-2.226l0.034-0.096h0.225l0.060 0.183c0.080 0.243 0.067 0.189 0.293 1.283 0.371 1.798 0.759 3.607 0.79 3.681 0.005 0.013 0.024-0.078 0.047-0.239 0.050-0.339 0.055-0.36 0.096-0.417 0.043-0.060 0.096-0.083 0.192-0.083 0.101 0 0.163 0.034 0.2 0.108 0.023 0.047 0.035 0.125 0.084 0.57 0.031 0.284 0.065 0.61 0.075 0.726 0.032 0.364 0.044 0.991 0.033 1.693-0.010 0.625-0.011 0.648-0.035 0.702-0.021 0.046-0.035 0.060-0.081 0.081l-0.056 0.026-1.775 0.002c-0.976 0.001-1.8-0.003-1.83-0.008z"></path>
</svg>
