<!-- Generated by IcoMoon.io -->
<svg version="1.1" xmlns="http://www.w3.org/2000/svg" width="32" height="32" viewBox="0 0 32 32">
<title>rainforest</title>
<path d="M14.316 28.998c-0.483-0.132-1.194-0.427-1.579-0.656l-0.701-0.415 0.597-0.339c1.563-0.888 2.383-2.817 1.921-4.524-0.207-0.764-1.273-1.965-2.099-2.365-0.812-0.393-1.464-0.382-2.647 0.048-1.018 0.37-1.562 0.777-1.898 1.424-0.309 0.594-0.249 0.925 0.243 1.339 0.515 0.433 0.811 0.468 1.265 0.15 0.312-0.218 0.323-0.212 0.323 0.2 0 0.529-0.497 0.77-1.454 0.705-0.768-0.052-1.131-0.228-1.903-0.926-0.725-0.655-0.784-1.365-0.174-2.090l0.395-0.47-0.548 0.103c-0.942 0.177-2.98-0.57-3.213-1.177-0.166-0.432 0.080-1.447 0.446-1.842 0.483-0.521 0.58-0.484 0.515 0.194-0.047 0.488 0.013 0.646 0.385 1.018 0.647 0.647 1.586 0.619 3.042-0.091 1.070-0.521 1.121-0.531 2.926-0.545 1.688-0.013 1.938 0.021 3.073 0.42 0.984 0.346 1.378 0.576 1.934 1.127 0.679 0.674 1.016 0.832 1.186 0.558 0.046-0.074 0.265-0.174 0.487-0.223s0.794-0.348 1.271-0.665 1.010-0.577 1.185-0.577c0.175-0 0.502-0.071 0.727-0.156 0.55-0.209 1.588-0.4 3.132-0.575 1.494-0.169 2.265-0.032 3.402 0.604 0.41 0.229 0.854 0.417 0.988 0.417 0.438 0 0.957-0.668 0.957-1.231 0-0.428-0.082-0.568-0.473-0.806l-0.473-0.288 0.606-0.001c0.333-0 0.712 0.040 0.841 0.090 0.629 0.241 0.91 1.907 0.442 2.621-0.294 0.449-1.463 1.183-2.073 1.301-0.36 0.070-0.493 0.184-0.555 0.475-0.136 0.642-0.672 1.741-0.994 2.037-0.167 0.154-0.75 0.456-1.296 0.672l-0.992 0.393-0.68-0.294c-0.405-0.175-0.697-0.401-0.722-0.559-0.039-0.245-0.030-0.246 0.113-0.017 0.199 0.32 0.985 0.467 1.485 0.277 0.534-0.203 0.7-0.58 0.732-1.656 0.032-1.073-0.273-1.729-1.045-2.25-0.597-0.403-1.934-0.446-2.961-0.096-0.762 0.26-2.021 1.316-2.39 2.005-0.366 0.684-0.325 2.601 0.072 3.362 0.407 0.78 1.148 1.452 1.85 1.677l0.577 0.184-0.477 0.368c-0.461 0.355-1.666 0.918-2.565 1.198-0.652 0.203-2.215 0.138-3.206-0.133zM16.070 19.681c-0.247-1.125-1.992-2.306-3.173-2.147l-0.572 0.077 0.49-0.51c0.269-0.28 0.784-0.684 1.144-0.897 0.574-0.34 0.806-0.387 1.89-0.381 1.438 0.008 2.152 0.28 3.199 1.222 0.602 0.542 0.626 0.589 0.3 0.589-0.834 0.001-1.925 0.801-2.864 2.1l-0.309 0.428-0.106-0.481zM9.452 17.402c-1.033-0.448-1.6-1.253-1.601-2.269l-0-0.625 0.727 0.050c0.681 0.047 0.727 0.075 0.727 0.443 0 0.5 0.243 0.742 0.744 0.742 0.72 0 0.855-0.129 0.855-0.815v-0.639h0.732c0.89 0 0.954 0.116 0.741 1.345-0.134 0.774-0.244 0.99-0.737 1.454-0.654 0.616-1.284 0.706-2.189 0.314zM21.032 17.485c-0.551-0.165-0.962-0.547-1.204-1.118-0.253-0.598-0.263-1.64-0.016-1.642 0.1-0.001 0.427-0.042 0.727-0.092 0.515-0.085 0.545-0.069 0.545 0.292 0 0.508 0.479 0.964 1.013 0.964 0.506 0 0.803-0.425 0.669-0.959-0.085-0.337-0.059-0.35 0.698-0.35 0.87 0 0.959 0.108 0.963 1.172 0.004 1.162-1.956 2.162-3.394 1.732zM8.109 13.054c1.085-2.494 1.466-3.526 1.639-4.435 0.099-0.52 0.226-0.997 0.282-1.061 0.114-0.127 0.478 0.749 1.315 3.169 0.304 0.88 0.72 1.972 0.924 2.427l0.37 0.828-0.613 0.078c-0.337 0.043-1.47 0.096-2.518 0.117l-1.906 0.039 0.506-1.163zM20.307 13.574c0.187-0.586 1.026-3.866 1.396-5.452l0.133-0.57 0.255 0.57c0.374 0.836 0.827 2.248 1.302 4.060 0.231 0.88 0.466 1.71 0.522 1.846 0.093 0.225-0.069 0.245-1.859 0.229l-1.961-0.017 0.212-0.665zM15.34 12.996c-0.913-0.423-1.418-1.054-1.527-1.911l-0.094-0.735 0.811 0.043c0.741 0.039 0.815 0.074 0.861 0.406 0.072 0.519 0.289 0.727 0.759 0.727 0.506 0 0.863-0.464 0.863-1.123 0-0.43 0.042-0.477 0.424-0.477 0.233 0 0.523-0.038 0.644-0.084 0.169-0.065 0.243 0.072 0.321 0.596 0.138 0.92-0.132 1.746-0.768 2.345-0.612 0.577-1.356 0.646-2.294 0.212zM14.005 9.807c-0.313-0.096-0.307-0.122 0.39-1.875 0.743-1.868 1.215-3.431 1.385-4.583 0.103-0.699 0.36-0.824 0.36-0.176 0 0.716 0.942 3.745 1.664 5.355 0.211 0.47 0.357 0.88 0.325 0.913s-0.747 0.119-1.588 0.193c-0.841 0.074-1.685 0.165-1.874 0.203s-0.487 0.024-0.662-0.029z"></path>
</svg>
