<!-- Generated by IcoMoon.io -->
<svg version="1.1" xmlns="http://www.w3.org/2000/svg" width="33" height="32" viewBox="0 0 33 32">
<title>read_or_die</title>
<path d="M16.43 20.039l-0.102-8.678 3.665 4.99z"></path>
<path d="M16.328 11.923l4.024 3.561 1.358-1.257z"></path>
<path d="M21.465 13.57l0.245-7.654-5.382 6.103z"></path>
<path d="M21.988 12.414l-0.277-6.499 2.599 3.305z"></path>
<path d="M16.328 4.364l4.668 1.163-4.668 6.581z"></path>
<path d="M16.328 2l2.595 0.548-2.595 0.848z"></path>
<path d="M16.328 4.444l2.181-2.004 3.202 1.18-0.418 1.312z"></path>
<path d="M21.71 3.62l0.127 1.476 2.472 4.124-1.021-4.856z"></path>
<path d="M19.48 17.6l1.233-1.483 7.964-1.66-4.861 2.894-3.177 0.345z"></path>
<path d="M21.293 18.013l-2.127-0.317 0.71-1.318-3.13 3.682 2.407-0.418z"></path>
<path d="M18.752 21.688l0.179 1.177 1.763-1.619 0.507-2.73z"></path>
<path d="M20.647 20.721l0.975 3.5-2.398-1.232z"></path>
<path d="M21.293 18.013l2.553 0.35-2.553 2.358z"></path>
<path d="M21.942 20.463l1.902-2.1 0.464 1.75-1.299-0.102z"></path>
<path d="M21.942 21.032l1.495-1.334 4.736 1.334-4.483 0.657z"></path>
<path d="M25.644 21.81l2.528-0.778 1.998 2.167z"></path>
<path d="M27.258 22.865l2.913 0.334-0.574 2.636z"></path>
<path d="M27.655 24.35l1.942 1.485-5.837 0.832z"></path>
<path d="M21.269 22.173l0.353 2.049h2.064z"></path>
<path d="M22.654 26.438l-0.485-1.836 1.518-0.381z"></path>
<path d="M20.959 15.588l3.35-0.423-2.599-0.938z"></path>
<path d="M16.526 20.288l1.634 2.002 1.805 4.148c0 0-3.531 3.642-3.472 3.561 0.058-0.082-0.020-6.862-0.020-6.862l3.222 2.983-3.309-3.472z"></path>
<path d="M16.226 20.039l0.102-8.678-3.665 4.99z"></path>
<path d="M16.328 11.923l-4.024 3.561-1.358-1.257z"></path>
<path d="M11.191 13.57l-0.245-7.654 5.382 6.103z"></path>
<path d="M10.669 12.414l0.277-6.499-2.599 3.305z"></path>
<path d="M16.328 4.364l-4.667 1.163 4.667 6.581z"></path>
<path d="M16.328 2l-2.595 0.548 2.595 0.848z"></path>
<path d="M16.328 4.444l-2.181-2.004-3.202 1.18 0.418 1.312z"></path>
<path d="M10.946 3.62l-0.127 1.476-2.472 4.124 1.021-4.856z"></path>
<path d="M13.176 17.6l-1.233-1.483-7.964-1.66 4.861 2.894 3.177 0.345z"></path>
<path d="M11.364 18.013l2.127-0.317-0.71-1.318 3.13 3.682-2.407-0.418z"></path>
<path d="M13.905 21.688l-0.179 1.177-1.763-1.619-0.507-2.73z"></path>
<path d="M12.009 20.721l-0.975 3.5 2.398-1.232z"></path>
<path d="M11.364 18.013l-2.553 0.35 2.553 2.358z"></path>
<path d="M10.714 20.463l-1.902-2.1-0.464 1.75 1.299-0.102z"></path>
<path d="M10.714 21.032l-1.495-1.334-4.736 1.334 4.483 0.657z"></path>
<path d="M7.012 21.81l-2.528-0.778-1.998 2.167z"></path>
<path d="M5.398 22.865l-2.913 0.334 0.574 2.636z"></path>
<path d="M5.001 24.35l-1.942 1.485 5.837 0.832z"></path>
<path d="M11.387 22.173l-0.353 2.049h-2.064z"></path>
<path d="M10.003 26.438l0.485-1.836-1.518-0.381z"></path>
<path d="M11.698 15.588l-3.35-0.423 2.599-0.938z"></path>
<path d="M16.13 20.288l-1.634 2.002-1.805 4.148c0 0 3.531 3.642 3.472 3.561-0.058-0.082 0.020-6.862 0.020-6.862l-3.222 2.983 3.309-3.472z"></path>
</svg>
