<!-- Generated by IcoMoon.io -->
<svg version="1.1" xmlns="http://www.w3.org/2000/svg" width="32" height="32" viewBox="0 0 32 32">
<title>realm_of_death</title>
<path d="M19.835 2.232c0.059-0.004 0.124-0.020 0.17 0.026-0.010-0.015-0.022-0.022-0.038-0.022 0.031 0.112 0.106 0.206 0.172 0.295 0.161 0.223 0.304 0.454 0.471 0.671 0.208 0.271 0.336 0.611 0.509 0.908 0.132 0.226 0.291 0.41 0.438 0.621 0.279 0.398 0.517 0.836 0.843 1.194 0.078 0.086 0.075 0.17 0.139 0.26 0.082 0.113 0.206 0.17 0.272 0.297 0.152 0.29 0.338 0.564 0.524 0.836 0.104 0.15 0.142 0.304 0.204 0.474 0.074 0.2 0.183 0.384 0.285 0.568 0.087 0.155 0.172 0.313 0.253 0.471 0.074 0.143 0.178 0.223 0.278 0.343 0.061 0.074 0.11 0.155 0.178 0.223 0.060 0.059 0.172 0.095 0.21 0.173 0.044 0.087 0.023 0.176 0.112 0.245-0.019 0.091-0.098 0.242-0.131 0.342-0.048 0.139-0.128 0.255-0.18 0.392-0.067 0.174-0.124 0.392-0.166 0.576-0.098 0.432-0.050 0.923-0.074 1.363-0.022 0.418-0.113 0.809-0.154 1.22-0.039 0.398-0.148 0.812-0.225 1.204-0.076 0.394-0.181 0.771-0.244 1.17-0.106 0.669-0.304 1.314-0.359 1.989-0.014 0.161-0.038 0.316-0.061 0.477-0.035 0.253-0.019 0.506-0.063 0.761-0.082 0.496-0.225 0.978-0.374 1.454-0.119 0.378-0.227 0.761-0.351 1.137-0.174 0.528-0.283 1.054-0.374 1.604-0.061 0.369-0.191 0.719-0.25 1.088-0.056 0.339-0.105 0.692-0.127 1.036-0.053 0.867-0.332 1.623-0.655 2.413-0.301 0.737-0.641 1.452-0.942 2.187-0.112 0.272-0.24 0.543-0.366 0.806-0.094 0.195-0.121 0.43-0.185 0.636-0.031 0.099-0.005 0.199-0.133 0.203-0.090 0.001-0.176-0.044-0.272-0.040-0.241 0.010-0.453 0.090-0.69 0.121-0.325 0.042-1.733 0.033-2.064 0.044-0.143 0.005-0.24-0.015-0.374-0.061-0.229-0.080-1.936 0.012-2.177-0.038-0.252-0.053-0.549-0.118-0.805-0.074-0.034 0.006-0.067 0.053-0.109 0.034-0.091-0.041-0.029-0.225-0.037-0.3-0.030-0.271-0.206-0.599-0.294-0.851-0.128-0.361-0.272-0.705-0.438-1.048-0.313-0.648-0.656-1.276-0.866-1.976-0.133-0.445-0.275-0.886-0.421-1.329-0.176-0.537-0.238-1.148-0.308-1.71-0.059-0.475-0.169-0.935-0.257-1.404-0.125-0.652-0.236-1.311-0.383-1.958-0.128-0.566-0.21-1.137-0.31-1.71-0.046-0.261-0.074-0.527-0.136-0.786-0.084-0.353-0.214-0.686-0.332-1.028-0.23-0.673-0.342-1.378-0.511-2.068-0.128-0.53-0.275-1.053-0.413-1.577-0.029-0.112-0.090-0.219-0.124-0.328-0.048-0.147-0.061-0.302-0.106-0.449-0.068-0.227-0.169-0.436-0.223-0.671-0.052-0.227-0.076-0.46-0.125-0.689-0.027-0.132-0.11-0.38-0.069-0.526 0.019-0.068 0.059-0.065 0.109-0.112 0.084-0.078 0.114-0.172 0.157-0.282 0.143-0.381 0.278-0.765 0.419-1.148 0.187-0.501 0.29-1.034 0.494-1.526 0.090-0.221 0.192-0.426 0.26-0.656 0.052-0.174 0.101-0.304 0.204-0.453 0.187-0.271 0.267-0.596 0.428-0.889 0.079-0.146 0.162-0.275 0.233-0.428 0.075-0.163 0.181-0.275 0.267-0.429 0.079-0.139 0.099-0.304 0.173-0.447 0.086-0.172 0.21-0.319 0.302-0.486 0.072-0.131 0.154-0.247 0.2-0.391 0.035-0.109 0.048-0.2 0.105-0.304 0.118-0.213 0.278-0.383 0.373-0.611 0.101-0.244 0.233-0.436 0.368-0.658 0.072-0.12 0.076-0.314 0.204-0.355 0.176-0.057 0.411 0.012 0.594-0.020 0.492-0.089 0.888 0.029 1.388-0.053 0.244-0.040 0.494-0.026 0.737-0.069 0.14-0.025 0.274-0.078 0.412-0.106 0.144-0.031 0.313-0.060 0.423 0.050 0.093 0.095 0.072 0.177 0.075 0.313 0.005 0.298-0.007 0.148 0.041 0.441 0.033 0.197 0.097 0.388 0.131 0.586 0.018 0.105 0.007 0.34 0.053 0.438 0.129 0.28 0.562 0.282 0.692 0.579 0.041 0.094 0.023 0.2 0.042 0.301 0.027 0.143 0.093 0.229 0.162 0.346 0.138 0.232 0.203 0.477 0.29 0.727 0.050 0.146 0.17 0.219 0.242 0.351 0.116 0.213-0.015 0.233-0.155 0.351-0.106 0.089-0.183 0.207-0.286 0.3-0.238 0.215-0.47 0.403-0.639 0.694-0.229 0.398-0.286 0.874-0.513 1.274-0.12 0.21-0.277 0.399-0.422 0.59-0.068 0.090-0.161 0.182-0.189 0.301-0.019 0.072 0.001 0.117 0 0.192-0.006 0.265-0.173 0.515-0.295 0.731-0.146 0.255-0.29 0.47-0.485 0.683-0.071 0.078-0.357 0.323-0.332 0.474 0.010 0.054 0.097 0.087 0.131 0.116 0.184 0.154 0.283 0.358 0.381 0.581 0.222 0.506 0.467 0.997 0.738 1.476 0.076 0.135 0.138 0.285 0.227 0.41 0.167 0.233 0.403 0.272 0.61 0.441 0.147 0.118 0.229 0.267 0.28 0.453 0.079 0.29 0.237 0.385 0.44 0.586 0.211 0.21 0.259 0.349 0.255 0.635-0.004 0.238-0.094 0.459-0.143 0.695-0.093 0.447-0.305 0.854-0.399 1.298-0.057 0.272 0.057 0.546-0.040 0.82-0.034 0.095-0.090 0.178-0.121 0.275-0.030 0.094-0.037 0.176-0.080 0.261-0.079 0.148-0.149 0.158-0.18 0.358-0.057 0.369 0.012 0.735-0.075 1.103-0.067 0.283-0.091 0.478-0.079 0.775 0.011 0.237-0.042 0.474-0.030 0.703 0.106 0.029 0.323-0.532 0.358-0.596 0.187-0.336 0.387-0.659 0.513-1.028 0.086-0.253 0.14-0.498 0.247-0.742 0.183-0.414 0.29-0.888 0.395-1.329 0.071-0.297 0.104-0.61 0.153-0.912 0.044-0.272 0.011-0.569 0.11-0.829 0.079-0.207 0.212-0.368 0.321-0.553 0.072-0.12 0.117-0.28 0.157-0.418 0.057-0.204 0.037-0.417 0.083-0.618 0.026-0.114 0.119-0.166 0.078-0.272-0.015-0.037-0.24-0.14-0.289-0.192-0.14-0.143-0.215-0.342-0.317-0.516-0.060-0.101-0.119-0.199-0.176-0.302-0.109-0.197-0.313-0.395-0.374-0.61-0.042-0.147 0-0.219-0.124-0.329-0.135-0.118-0.294-0.256-0.343-0.443-0.012-0.052 0.005-0.093-0.011-0.146-0.018-0.054-0.084-0.117-0.109-0.161-0.083-0.154-0.033-0.32-0.114-0.481-0.025-0.050-0.091-0.124-0.108-0.185-0.019-0.065-0.001-0.114-0.011-0.176-0.029-0.17-0.097-0.206-0.176-0.342-0.11-0.192-0.037-0.376-0.012-0.573 0.014-0.102 0.009-0.108 0.082-0.169 0.034-0.027 0.089-0.034 0.128-0.063 0.052-0.038 0.102-0.118 0.151-0.159 0.090-0.078 0.103-0.095 0.154-0.206 0.068-0.148 0.184-0.241 0.25-0.391 0.090-0.2 0.159-0.396 0.23-0.606 0.046-0.138 0.099-0.264 0.21-0.354 0.108-0.088 0.207-0.191 0.315-0.283 0.189-0.165 0.402-0.267 0.565-0.463 0.080-0.095 0.121-0.169 0.237-0.22 0.087-0.040 0.14-0.048 0.22-0.116 0.080-0.067 0.226-0.222 0.253-0.334 0.033-0.135-0.075-0.223-0.112-0.346-0.059-0.192-0.072-0.395-0.185-0.567-0.29-0.44-0.576-0.781-0.675-1.323-0.042-0.223-0.139-0.369-0.232-0.561-0.069-0.143-0.17-0.258-0.229-0.411-0.094-0.245-0.037-0.492-0.080-0.746-0.026-0.159-0.094-0.302-0.135-0.456-0.031-0.121-0.040-0.25-0.080-0.369-0.039-0.109-0.087-0.211-0.124-0.323-0.039-0.116-0.12-0.248-0.123-0.37 0.113-0.071 0.392 0.074 0.509 0.088 0.174 0.023 0.262-0.030 0.421-0.064 0.324-0.071 0.701-0.015 1.023 0.033 0.158 0.023 0.321 0.026 0.478 0.059 0.069 0.015 0.099 0.042 0.184 0.039 0.279-0.012 0.481 0.010 0.378-0.069z"></path>
</svg>
