<!-- Generated by IcoMoon.io -->
<svg version="1.1" xmlns="http://www.w3.org/2000/svg" width="32" height="32" viewBox="0 0 32 32">
<title>resource</title>
<path fill="#394852" d="M15.988 3.116l-11.338 5.497 0.35 0.719v0.003h-0.8v13.834l11.45 5.55 0.35-0.719 0.35 0.719 11.45-5.55v-14.169h-0.8l0.331-0.728zM16.012 4.884l9.053 4.116-9.075 4.125-9.056-3.841zM26.2 10.244v11.922l-9.4 4.559v-12.209zM5.8 10.541l9.4 3.991v12.194l-9.4-4.559zM23.319 12.912l-6 9.666 1.363 0.844 6-9.666zM19.334 14.891l-2 3 1.331 0.887 2-3zM23.334 17.891l-2 3 1.331 0.887 2-3z"></path>
</svg>
