<!-- Generated by IcoMoon.io -->
<svg version="1.1" xmlns="http://www.w3.org/2000/svg" width="32" height="32" viewBox="0 0 32 32">
<title>return_to_at_deaths_doorstep</title>
<path d="M23.684 21.849v0c-0.142 0.237-0.35 0.482-0.662 0.562-0.154 0.039-0.311 0.084-0.478 0.113v0c-0.182 0.031-0.365 0.043-0.546 0.043h-0.052c-0.086 0-0.174-0.001-0.267-0.015-0.099-0.015-0.196-0.035-0.292-0.055h-0c-0.183-0.041-0.32-0.121-0.464-0.206-0.038-0.023-0.085-0.045-0.135-0.082-0.051-0.039-0.086-0.069-0.126-0.090l-0-0c-0.047-0.027-0.074-0.051-0.094-0.063-0.050-0.031-0.106-0.060-0.164-0.094h-0c-0.126-0.075-0.256-0.146-0.387-0.207-0.12-0.056-0.252-0.1-0.386-0.155l0 0c-0.108-0.044-0.214-0.089-0.312-0.107-0.012-0.001-0.027-0.003-0.047-0.003l-0.035 0c-0.031-0-0.065-0-0.106-0.012l-0.108-0.031 0.044-0.103 0.023-0.038 0.035-0.027c0.019-0.015 0.049-0.031 0.098-0.057l0.004-0.027 0.057-0.015c0.049-0.012 0.075-0.008 0.080-0.012l-0.001 0c0.079-0.023 0.154-0.038 0.241-0.038l0.038 0.001c0.131 0.008 0.269 0.043 0.39 0.090l-0.145-0.398 0.41 0.497 0.008 0.008c0.001 0.003 0.004 0.004 0.008 0.008 0.001 0 0.001 0.001 0.001 0.001 0.1 0.046 0.182 0.104 0.261 0.145h0c0.055 0.031 0.111 0.058 0.167 0.082 0.073 0.035 0.156 0.050 0.252 0.078h0c0.071 0.023 0.127 0.043 0.178 0.047 0.023 0.001 0.045 0.003 0.068 0.003 0.038 0 0.076-0.001 0.118-0.001h0.008c0.238 0 0.479-0.061 0.673-0.19 0.156-0.103 0.26-0.291 0.324-0.484 0.015-0.046 0.023-0.086 0.023-0.118-0.001-0.044-0.008-0.076-0.044-0.118l-0-0c-0.023-0.027-0.051-0.055-0.076-0.075l-0-0-0.027-0.015c-0.008-0.004-0.027-0.008-0.053-0.015-0.019-0.004-0.043-0.008-0.075-0.008h-0.001c-0.004 0-0.012 0.001-0.015 0.001l-0.031-0.001h-0.001l-0.001-0.157-0.012-0.008 0.012-0.015-0-0.019h0.018l0.003-0.001c0.015-0.012 0.031-0.027 0.051-0.035 0.019-0.008 0.035-0.012 0.051-0.015l0.001-0c-0 0-0 0-0.001 0 0.035-0.008 0.070-0.008 0.105-0.008 0.149 0.001 0.296 0.053 0.408 0.133v0c0.035 0.027 0.069 0.052 0.103 0.082h0c0.049 0.045 0.123 0.095 0.184 0.168 0.015 0.019 0.027 0.043 0.041 0.064l-0-0.008v0.001l0.050-0.008 0.075-0.123 0.008 0.004 0.001-0.001c0.031 0.019 0.084 0.041 0.142 0.081 0.148 0.104 0.282 0.23 0.384 0.387h0c0.062 0.096 0.090 0.207 0.090 0.316-0 0.116-0.031 0.23-0.090 0.33zM21.309 24.884v0c-0.001 0.093-0.027 0.174-0.063 0.244-0.035 0.070-0.076 0.132-0.111 0.191-0.079 0.131-0.174 0.235-0.28 0.334-0.135 0.125-0.307 0.194-0.447 0.261h-0c-0.126 0.059-0.257 0.068-0.378 0.068-0.076 0-0.15-0.004-0.218-0.004-0.241-0.003-0.461-0.098-0.654-0.191l-0-0c-0.086-0.043-0.161-0.106-0.221-0.146h-0c-0.059-0.040-0.126-0.086-0.182-0.157l-0-0c-0.091-0.116-0.161-0.228-0.218-0.368l0 0c-0.038-0.092-0.085-0.186-0.132-0.28h-0c-0.052-0.106-0.141-0.215-0.186-0.368-0.023-0.090-0.031-0.132-0.071-0.185l0 0c-0.041-0.056-0.073-0.111-0.105-0.158-0.1-0.145-0.18-0.278-0.29-0.396-0.083-0.089-0.17-0.182-0.258-0.25l-0-0c-0.027-0.019-0.046-0.040-0.062-0.058l-0.044-0.048c-0-0.003-0.023-0.015-0.053-0.035s-0.074-0.043-0.104-0.101c-0.019-0.045-0.019-0.080-0.023-0.115 0-0.056 0.008-0.114 0.008-0.137 0.003-0.085 0.019-0.143 0.019-0.183-0-0.023-0.003-0.039-0.012-0.063-0.035-0.087-0.108-0.185-0.179-0.272-0.019-0.027-0.078-0.056-0.147-0.099-0.090-0.060-0.236-0.127-0.337-0.235l-0.12-0.134 0.178-0.031c0.023-0.004 0.047-0.004 0.070-0.004 0.137 0.001 0.25 0.060 0.343 0.105 0.038 0.019 0.065 0.027 0.098 0.035 0.031 0.008 0.072 0.008 0.126 0.015 0 0 0.001 0 0.001 0 0.027-0.008 0.053-0.012 0.078-0.012 0.080 0.001 0.152 0.023 0.211 0.055l0.012-0 0 0.004c0.169 0.094 0.279 0.216 0.395 0.342 0.1 0.108 0.217 0.221 0.309 0.357 0-0 0-0-0-0l0 0c0.071 0.106 0.156 0.209 0.197 0.364 0.012 0.045 0.027 0.093 0.043 0.148l0 0.001c0-0 0-0-0-0.001 0.012 0.040 0.012 0.075 0.012 0.102v0.027l0.001 0.035v0c0.015 0.149 0.118 0.31 0.181 0.496 0.051 0.158 0.14 0.254 0.28 0.373 0.043 0.038 0.117 0.093 0.195 0.138s0.162 0.076 0.212 0.075c0.023-0 0.035-0.004 0.047-0.012l0-0c0.003 0 0.023-0.023 0.041-0.055 0.019-0.031 0.035-0.072 0.047-0.104 0.019-0.043 0.023-0.085 0.023-0.141 0-0.019-0-0.040-0.001-0.062v-0l-0-0.008-0.015-0.008c-0.056-0.035-0.088-0.056-0.121-0.064l-0.16-0.042 0.112-0.121c0.040-0.044 0.098-0.060 0.142-0.059 0.049 0 0.090 0.015 0.125 0.027s0.064 0.027 0.080 0.031c0.039 0.015 0.089 0.031 0.139 0.058s0.102 0.061 0.141 0.118v0c0.065 0.096 0.076 0.199 0.076 0.286 0 0.056-0.004 0.108-0.004 0.156 0 0.015 0.001 0.027 0.003 0.042 0.019 0.004 0.035 0.008 0.047 0.012l0.023 0.004 0.023-0.004c0.146-0.038 0.302-0.068 0.38-0.137 0.062-0.051 0.111-0.114 0.146-0.187 0.041-0.082 0.095-0.172 0.111-0.234 0.004-0.015 0.008-0.038 0.008-0.061s-0.003-0.045-0.008-0.061l-0.012-0.019c-0.004-0.004-0.008-0.008-0.012-0.012l0.135-0.146c0.003 0.003 0.004 0.004 0.008 0.008l0.001-0.001c0.058 0.060 0.108 0.12 0.156 0.186 0.118 0.162 0.165 0.327 0.209 0.501 0.031 0.115 0.035 0.222 0.035 0.329l-0 0.040zM16.252 21.681c-0.001 0.004-0.003 0.008-0.004 0.012-0.012 0.048-0.019 0.103-0.023 0.139-0.023 0.189-0.035 0.383-0.060 0.579-0.019 0.145-0.064 0.274-0.087 0.395-0.027 0.126-0.031 0.264-0.053 0.409l-0.001 0.027c-0 0.039 0.012 0.083 0.031 0.137s0.041 0.118 0.045 0.196c0.001 0.040 0.003 0.079 0.003 0.118 0 0.1-0.004 0.197-0.004 0.291v0.027l0 0.023c-0 0.17-0.015 0.353-0.050 0.522-0.049 0.231-0.097 0.477-0.203 0.708-0.087 0.187-0.213 0.325-0.324 0.467-0.049 0.060-0.093 0.153-0.188 0.231-0.092 0.069-0.188 0.088-0.236 0.121h-0c-0.11 0.066-0.214 0.188-0.371 0.269-0.088 0.045-0.181 0.057-0.269 0.057-0.121-0-0.237-0.023-0.334-0.035v0c-0.251-0.035-0.463-0.131-0.676-0.214v0c-0.155-0.061-0.304-0.121-0.455-0.212-0.155-0.093-0.244-0.22-0.313-0.363-0.055-0.111-0.059-0.214-0.058-0.309 0-0.019 0-0.042 0-0.064 0-0.044-0.003-0.095-0.003-0.15 0-0.077 0.004-0.161 0.035-0.243 0.027-0.082 0.090-0.164 0.188-0.207l0-0c0.019-0.008 0.044-0.027 0.077-0.049 0.035-0.019 0.075-0.048 0.135-0.056h0l0.046-0.003c0.027 0 0.053 0.003 0.072 0.001l0.023-0.001 0.255-0.023-0.17 0.19c-0.031 0.035-0.063 0.069-0.065 0.078l-0 0.001-0.003 0.035c0 0.027 0.003 0.057 0.004 0.092v-0c0.001 0.031 0.012 0.053 0.031 0.083 0.023 0.031 0.056 0.062 0.096 0.098 0.076 0.069 0.163 0.145 0.241 0.197 0.045 0.031 0.111 0.048 0.188 0.056 0.077 0.008 0.162 0.012 0.243 0.019 0.035 0.003 0.068 0.004 0.101 0.004 0.148-0 0.277-0.031 0.431-0.085 0.162-0.058 0.286-0.113 0.415-0.209 0.112-0.083 0.202-0.22 0.296-0.357v-0c0.083-0.118 0.144-0.254 0.213-0.396v0c0.061-0.127 0.118-0.244 0.153-0.368 0.023-0.089 0.035-0.185 0.035-0.282 0-0.043-0.001-0.085-0.004-0.128-0.008-0.129-0.008-0.26-0.041-0.352v-0c-0.012-0.031-0.023-0.060-0.035-0.095s-0.023-0.077-0.023-0.126l-0-0.023c0-0.038 0.003-0.070 0.003-0.099v-0l0-0.027c0-0.027-0-0.054-0-0.081 0-0.096 0.004-0.197 0.031-0.304 0.019-0.080 0.042-0.145 0.071-0.21 0.035-0.1 0.075-0.199 0.123-0.294l0-0c0 0-0 0-0 0 0.015-0.031 0.035-0.056 0.049-0.076s0.023-0.035 0.023-0.038l0.064 0.019c0.053-0.070 0.106-0.138 0.15-0.206 0.008-0.019 0.012-0.038 0.019-0.055 0.015-0.031 0.035-0.065 0.072-0.091l0.327-0.246-0.175 0.368c-0.019 0.038-0.038 0.072-0.060 0.106zM12.541 23.873v-0.001c0-0.052 0.015-0.093 0.023-0.126 0.012-0.035 0.019-0.058 0.019-0.075v0c0.008-0.060 0.031-0.114 0.063-0.154 0.035-0.041 0.070-0.068 0.107-0.094l0.108-0.074 0.044 0.123c0.008 0.019 0.008 0.038 0.008 0.051l-0.001 0.012 0.019 0.035 0.001 0.004c0.015 0.031 0.027 0.061 0.041 0.095l0.001 0.001c0.004 0.004 0.019 0.015 0.043 0.031v-0c0.038 0.031 0.067 0.050 0.092 0.061 0.027 0.012 0.048 0.015 0.088 0.019h0.012c0.063-0.001 0.086-0.003 0.121-0.023l0-0c0.038-0.023 0.076-0.050 0.1-0.074l0-0c0.075-0.072 0.135-0.191 0.155-0.295v0c0.027-0.128 0.060-0.247 0.059-0.353v-0.008l-0-0.027c0-0.019 0.001-0.047 0.008-0.077s0.027-0.061 0.054-0.085v-0c0.027-0.023 0.060-0.051 0.096-0.076 0.019-0.015 0.040-0.023 0.061-0.035 0.035-0.056 0.086-0.108 0.16-0.139h0c0.051-0.019 0.1-0.023 0.138-0.023 0.023 0 0.042 0.001 0.059 0.001h0c0.035 0 0.073 0 0.109 0h0.073c0.136 0 0.273-0 0.41-0 0.065 0 0.129 0 0.194 0 0 0 0-0 0.001-0l0.012 0h0.001l-0.003 0.199h-0.012c-0.054 0-0.094 0.008-0.146 0.027-0.056 0.023-0.101 0.063-0.169 0.118-0.058 0.048-0.085 0.084-0.099 0.147-0.012 0.048-0.008 0.12-0.031 0.207-0.031 0.105-0.080 0.187-0.101 0.263-0.039 0.133-0.118 0.223-0.194 0.308-0.076 0.084-0.148 0.192-0.254 0.284-0.092 0.080-0.203 0.128-0.302 0.165h-0c-0.095 0.035-0.192 0.051-0.292 0.051l-0.023-0c-0.113-0.003-0.218-0.015-0.319-0.015h-0c-0.116-0.001-0.204-0.043-0.285-0.081-0.041-0.019-0.076-0.041-0.105-0.070-0.031-0.031-0.048-0.060-0.069-0.093l0 0c-0.012-0.019-0.031-0.043-0.046-0.074s-0.035-0.073-0.035-0.123zM12.036 22.744v0c-0.044-0.008-0.088-0.019-0.131-0.031l-0.004-0.001-0.004-0.001c-0.035-0.015-0.066-0.027-0.1-0.038-0.061-0.015-0.13-0.023-0.202-0.023-0.060 0-0.121 0.004-0.18 0.012h-0c-0.108 0.012-0.213 0.019-0.302 0.045h-0c-0.074 0.019-0.152 0.053-0.238 0.080h-0c-0.123 0.039-0.244 0.073-0.359 0.111l0-0c-0.092 0.031-0.186 0.066-0.295 0.086-0.138 0.027-0.271 0.023-0.391 0.035-0.114 0.008-0.224 0.012-0.332 0.012h-0.008c-0.135-0-0.277-0.004-0.421-0.068l-0-0c-0.008-0.003-0.023-0.008-0.042-0.015s-0.046-0.015-0.074-0.035c-0.035-0.023-0.055-0.049-0.075-0.074-0.019-0.023-0.035-0.049-0.048-0.065v0c-0.063-0.086-0.121-0.18-0.149-0.296-0.004-0.027-0.031-0.070-0.057-0.113l-0-0c0.001-0.001-0.019-0.015-0.055-0.059v0c-0.004-0.008-0.008-0.012-0.012-0.019-0.003-0.003-0.004-0.004-0.008-0.008l-0.003-0.001-0.012-0.008c-0.008-0.008-0.023-0.015-0.038-0.040-0.008-0.015-0.019-0.038-0.019-0.063l0.008-0.038 0.031-0.089 0.091 0.023c0.035 0.008 0.052 0.027 0.066 0.040l0.031 0.038c0.001 0.003 0.003 0.004 0.004 0.008 0.031 0.023 0.067 0.045 0.108 0.072v-0c0.098 0.063 0.186 0.125 0.278 0.176 0.070 0.039 0.169 0.075 0.244 0.083h0c0.031 0.004 0.061 0.004 0.094 0.004 0.054 0 0.113-0.003 0.174-0.003h0.019c0.093-0.001 0.154-0.012 0.228-0.053 0.066-0.038 0.133-0.089 0.211-0.138 0.074-0.046 0.142-0.070 0.191-0.101l0-0c0.045-0.027 0.096-0.072 0.144-0.115 0.049-0.045 0.103-0.073 0.162-0.091l0-0c0.045-0.015 0.103-0.045 0.179-0.061 0.069-0.015 0.138-0.019 0.205-0.019 0.1 0 0.197 0.008 0.287 0.019 0.164 0.015 0.323 0.044 0.478 0.072h0c0.169 0.031 0.331 0.069 0.488 0.080 0.060 0.004 0.124 0.008 0.188 0.008 0.239 0.001 0.484-0.044 0.636-0.177h0c0.085-0.073 0.146-0.171 0.164-0.274l-0.015-0.012-0.023-0.027c-0.004-0.008-0.015-0.023-0.015-0.054l0.015-0.054 0.039-0.035c0.027-0.012 0.040-0.012 0.050-0.012l0.035 0.004 0.023 0.008 0.068 0.015 0.015 0.058c0.001 0.004 0.001 0.008 0.001 0.012 0.050 0.042 0.096 0.086 0.136 0.126 0.104 0.106 0.206 0.233 0.266 0.382 0.027 0.070 0.050 0.144 0.050 0.225 0 0.059-0.012 0.12-0.040 0.179l-0 0c-0.068 0.145-0.179 0.292-0.351 0.365h-0c-0.13 0.054-0.258 0.067-0.379 0.067-0.094-0-0.185-0.008-0.274-0.012h-0c-0.184-0.008-0.38-0.004-0.58-0.060-0.070-0.019-0.123-0.045-0.17-0.057zM11.208 20.081c-0.015-0.138-0.035-0.28-0.035-0.429-0-0.035-0.001-0.072-0.001-0.108 0-0.113 0.001-0.224 0.001-0.335 0-0.214 0.003-0.428 0.003-0.64 0-0.165-0.001-0.329-0.008-0.493-0.008-0.167-0.031-0.339-0.038-0.521-0.001-0.061-0.003-0.122-0.003-0.183 0-0.151 0.004-0.3 0.004-0.447 0-0.158-0-0.317-0.001-0.476v0-0.008c0-0.193 0.015-0.38 0.015-0.562v-0.008c-0-0.11-0.001-0.221-0.001-0.332 0-0.071 0-0.143 0.003-0.214v-0c0.004-0.154 0.015-0.305 0.023-0.452v-0c0.019-0.405 0.054-0.806 0.072-1.205 0.004-0.116 0.008-0.233 0.008-0.35 0-0.194-0.004-0.39-0.004-0.587 0-0.123 0.003-0.244 0.003-0.364 0-0.213-0.008-0.419-0.054-0.619-0.061-0.273-0.11-0.547-0.133-0.828-0.012-0.139-0.035-0.283-0.041-0.433-0.015-0.292-0.061-0.589-0.112-0.882-0.047-0.272-0.031-0.531-0.050-0.779v-0c-0.008-0.098-0.008-0.195-0.008-0.29 0-0.108 0.003-0.215 0.003-0.319v-0.027c-0-0.023-0-0.043-0-0.065 0-0.075 0.001-0.153 0.015-0.234l0-0c0.015-0.099 0.044-0.185 0.054-0.262h-0c0.019-0.135 0.045-0.26 0.045-0.378v-0.008c0-0.004-0.003-0.031-0.003-0.061 0-0.015 0.001-0.035 0.004-0.057s0.015-0.052 0.049-0.079c0.023-0.019 0.053-0.027 0.078-0.027l0.027 0.003 0.027 0.004 1.166 1.007-0.196-0.008c0.003 0.012 0.008 0.023 0.008 0.038v0l0.001 0.031c-0 0.027-0.003 0.051-0.003 0.065v0c-0 0.159-0.001 0.318-0.001 0.477 0 0.193 0 0.386 0.001 0.579v0.002c-0 0.157-0.012 0.306-0.015 0.453-0.001 0.041-0.001 0.083-0.001 0.124 0 0.149 0.004 0.299 0.015 0.448 0.012 0.209 0.008 0.415 0.019 0.616 0.012 0.209 0.027 0.421 0.035 0.632 0.004 0.12 0 0.232 0.004 0.34 0.004 0.122 0.015 0.247 0.023 0.373 0.012 0.211 0.027 0.425 0.031 0.64 0.004 0.18 0.015 0.362 0.015 0.547 0 0.061-0.001 0.123-0.004 0.184-0.015 0.294-0.040 0.582-0.040 0.868v0.015c0 0.11 0.003 0.221 0.003 0.332 0 0.086-0.001 0.173-0.004 0.261-0.008 0.216-0.008 0.435-0.023 0.658-0.004 0.074-0.004 0.148-0.004 0.224 0 0.103 0.003 0.208 0.003 0.313v0.008c0 0.277-0.015 0.55-0.015 0.821v0.042c0 0.326-0.015 0.648-0.015 0.968v0.054c0 0.246-0.008 0.492-0.019 0.738-0.012 0.234-0.023 0.466-0.023 0.695v0.054c0 0.142-0.015 0.277-0.015 0.406-0.001 0.101 0.038 0.21 0.056 0.347v0c0.008 0.070 0.031 0.146 0.045 0.235v0c0.004 0.039 0.015 0.080 0.019 0.124l0.035 0.168-0.125 0.004c-0.045-0-0.077-0.015-0.098-0.019-0.023-0.008-0.035-0.008-0.035-0.008h-0.001c-0.008-0.001-0.035 0.008-0.076 0.015-0.062 0.012-0.126 0.019-0.188 0.023l-0.027 0.001c-0.069-0-0.128-0.019-0.177-0.031-0.050-0.015-0.091-0.031-0.129-0.035h-0c-0.019-0.003-0.055 0.001-0.11-0.004h-0.001c-0.027-0.004-0.040-0.008-0.044-0.008l-0.429 0.076 0.352-0.253c0.001-0.004 0.004-0.023 0.008-0.051l0-0.001c0.031-0.127 0.047-0.257 0.047-0.386 0-0.049-0.003-0.098-0.008-0.145zM11.528 6.443l0.027 0.008 0.008 0.004 0.040 0.027 0.003 0.003 0.027 0.008 0 0c0.092 0.023 0.196 0.031 0.302 0.044 0.179 0.023 0.363 0.027 0.55 0.027 0.102 0 0.205-0.001 0.308-0.001h0.004c0.103 0 0.206 0.001 0.308 0.001 0.076 0 0.152-0.001 0.226-0.004 0.15-0.008 0.305-0.023 0.464-0.023 0.297-0.004 0.598-0.027 0.904-0.027h0.015c0.115 0 0.231 0 0.346 0 0.208 0 0.415-0 0.623-0 0.187 0 0.374 0 0.561 0 0.093 0 0.187 0 0.281-0 0.075 0 0.149 0.001 0.222 0.001 0.083 0 0.164-0.001 0.244-0.008 0.175-0.012 0.351-0.023 0.529-0.023l0.027 0h0.015c0.156 0 0.316-0.012 0.481-0.015 0.065-0.001 0.13-0.001 0.194-0.001 0.156 0 0.31 0.003 0.464 0.003 0.188 0 0.376 0 0.564 0.001h0.004c0.178 0 0.358-0.019 0.546-0.023 0.081-0.003 0.161-0.004 0.241-0.004 0.091 0 0.183 0.001 0.272 0.001l0.035-0c0.027-0.001 0.075 0.008 0.114 0.035l0.001-0.001 0.038 0.023-0.052 0.085 0.095-0.035 0.023 0.061-0.69 0.767-0.039 0.003h-0.001l-0.012 0.003c-0.012 0.003-0.031 0.008-0.056 0.012h-0l-0.048 0.001c-0.035-0-0.068-0.001-0.097-0.001h-0.008c-0.103 0-0.194-0.012-0.289-0.023h0c-0.073-0.008-0.149-0.015-0.229-0.015-0.129-0.004-0.253-0.015-0.374-0.015-0.147 0-0.296 0.015-0.444 0.031h-0c-0.079 0.008-0.158 0.015-0.235 0.015-0.099 0-0.196-0.004-0.287-0.004-0.23 0-0.46-0-0.691-0-0.115 0-0.23 0-0.345 0h-0.004c-0.195 0-0.385-0.015-0.57-0.015h-0.015c-0.093 0-0.186 0-0.278 0-0.123 0-0.247-0-0.37-0-0.124 0-0.249 0-0.373 0h-0.137c-0.235 0-0.463 0.012-0.695 0.040h-0c-0.323 0.038-0.643 0.054-0.967 0.054-0.146 0-0.295 0.004-0.445 0.004-0.13 0-0.26-0.003-0.391-0.015v0c-0.023-0.003-0.046-0.004-0.058-0.004l-0.035-0.001-1.287-1.112 0.422 0.114zM19.439 22.119l0.003 0.004 0.001 0.004c0.023 0.066 0.023 0.109 0.031 0.127 0.023 0.053 0.039 0.093 0.065 0.131 0.069 0.103 0.148 0.201 0.234 0.297h0c0.078 0.088 0.168 0.151 0.278 0.221 0.060 0.038 0.118 0.078 0.171 0.106 0.031 0.015 0.080 0.031 0.135 0.055h-0c0.035 0.015 0.081 0.019 0.15 0.035h0c0.076 0.019 0.124 0.052 0.159 0.060l-0.042 0.194-0.041-0.003c-0.023 0-0.052 0.001-0.083 0.001h-0.008c-0.118 0-0.227-0.012-0.345-0.050-0.103-0.035-0.196-0.069-0.285-0.083h-0c-0.042-0.008-0.094-0.008-0.153-0.023 0 0 0 0 0 0l-0-0c-0.062-0.015-0.089-0.027-0.115-0.027h0c-0.093-0.001-0.184-0.012-0.272-0.042s-0.172-0.080-0.244-0.155c-0.052-0.055-0.102-0.114-0.145-0.178h-0l-0.040-0.051-0.004-0.012-0.012-0.038-0.003-0.012c-0.019-0.041-0.045-0.085-0.068-0.117-0.031-0.041-0.063-0.071-0.11-0.111l0 0c-0.035-0.031-0.051-0.055-0.058-0.060-0.015-0.012-0.051-0.027-0.096-0.056l0 0c-0.083-0.050-0.172-0.101-0.257-0.144-0.139-0.073-0.328-0.103-0.499-0.23-0.023-0.019-0.060-0.043-0.095-0.073-0.035-0.031-0.072-0.063-0.099-0.11l-0.008-0.012-0.072-0.27 0.166 0.043c0.038 0.008 0.061 0.027 0.078 0.038l0.031 0.023h0c0.035 0.015 0.065 0.027 0.114 0.038h-0c0.078 0.023 0.14 0.042 0.192 0.042l0.031-0.003c0.019-0.003 0.053-0.012 0.064-0.019 0.004 0.001 0.027-0.027 0.083-0.046v0c0.001-0 0.001-0 0.001-0l-0.003-0 0.008-0.094 0.066-0.019 0.049-0.015 0.004-0.001c0.023-0.004 0.049-0.008 0.073-0.008s0.045 0.001 0.065 0.004v0c0.098 0.015 0.185 0.051 0.257 0.081 0.091 0.038 0.183 0.079 0.271 0.146h0c0.078 0.059 0.159 0.124 0.229 0.204l0.001 0.001c0.031 0.035 0.060 0.073 0.086 0.111l-0.001 0c0.023 0.027 0.043 0.053 0.058 0.083zM20.172 20.694h-0.1l-0.056 0.082c-0.094-0.063-0.137-0.091-0.153-0.101l-0.057-0.012-0.004-0.031c-0.027 0.001-0.062 0.004-0.104 0.004-0.035 0-0.078-0.004-0.121-0.019-0.064-0.023-0.113-0.054-0.154-0.070-0.082-0.035-0.178-0.044-0.283-0.050-0.276-0.019-0.55-0.027-0.824-0.027-0.068 0-0.135 0.001-0.203 0.001-0.531 0.008-1.065 0.094-1.602 0.165-0.32 0.043-0.64 0.077-0.966 0.092-0.339 0.015-0.681 0.035-1.024 0.035-0.043 0-0.086 0-0.13 0h-0.189c-0.189-0-0.376 0.001-0.563 0.008-0.174 0.008-0.351 0.019-0.531 0.019l-0.040-0c-0.031-0-0.063-0.001-0.090-0.001-0.046-0.001-0.082 0.008-0.097 0.015l-0 0-0.015 0.015c-0.008 0.012-0.019 0.031-0.035 0.057l-0.324 0.51 0.142-0.586c0.012-0.051 0.015-0.107 0.015-0.167 0-0.035-0.001-0.070-0.001-0.107v-0.004c-0.001-0.052 0.023-0.095 0.035-0.118 0.015-0.023 0.019-0.035 0.023-0.040 0.027-0.093 0.035-0.201 0.048-0.314 0.019-0.13 0.035-0.26 0.052-0.39 0.038-0.285 0.080-0.567 0.102-0.847 0.027-0.358 0.042-0.716 0.051-1.076 0.001-0.055 0.003-0.11 0.003-0.165 0-0.409-0.038-0.819-0.081-1.231-0.056-0.549-0.101-1.1-0.117-1.653-0.019-0.618-0.001-1.233-0.019-1.843-0.012-0.337-0.040-0.677-0.057-1.020-0.004-0.122-0.008-0.244-0.008-0.365 0-0.146 0.003-0.292 0.008-0.437 0.012-0.421 0.019-0.845 0.061-1.271 0.019-0.189 0.044-0.377 0.082-0.565 0.035-0.172 0.057-0.337 0.060-0.508 0.001-0.082 0.004-0.166 0.004-0.249 0-0.129-0.012-0.254-0.050-0.355l-0-0-0.003-0.004-0.012-0.019c-0.008-0.019-0.019-0.040-0.023-0.081-0.001-0.031 0.015-0.073 0.044-0.098v0c0.027-0.023 0.049-0.027 0.067-0.031 0.019-0.004 0.035-0.004 0.048-0.004 0.035 0 0.069 0.004 0.071 0.004h0c0.147 0.001 0.291 0.008 0.437 0.023 0.395 0.035 0.786 0.077 1.174 0.076h0.019c0.235-0.001 0.469-0.004 0.705-0.012 0.124-0.004 0.25-0.012 0.378-0.015 0.142-0.003 0.278 0 0.41-0.008 0.248-0.015 0.491-0.012 0.728-0.031 0.186-0.015 0.377-0.051 0.579-0.067 0.095-0.008 0.19-0.012 0.284-0.012 0.174 0 0.348 0.008 0.517 0.019h-0c0.29 0.019 0.588 0.048 0.876 0.107 0.131 0.027 0.261 0.064 0.385 0.104h0c0.038 0.012 0.061 0.023 0.074 0.023l0.012 0c0.008 0 0.023-0.001 0.045-0.001h0.004c0.023 0 0.047 0.004 0.070 0.015s0.046 0.031 0.058 0.052c0.023 0.042 0.023 0.075 0.023 0.098l-0.001 0.039v0l-0 0.035c0 0.169 0.015 0.342 0.023 0.517v0c0.015 0.257 0.031 0.513 0.063 0.765 0.035 0.287 0.027 0.567 0.054 0.836 0.019 0.191 0.019 0.379 0.019 0.565 0 0.065-0 0.13-0 0.194 0 0.197 0.003 0.395 0.003 0.593 0 0.078-0 0.157-0.001 0.235-0.003 0.27-0.027 0.535-0.042 0.796-0.031 0.591-0.035 1.184-0.035 1.779v2.28c0 0.092-0.001 0.183-0.001 0.273 0 0.065 0.001 0.128 0.004 0.191 0.008 0.164 0.031 0.332 0.053 0.502 0.038 0.28 0.068 0.559 0.1 0.838 0.031 0.27 0.061 0.54 0.095 0.809v-0c0.012 0.095 0.019 0.191 0.019 0.286 0 0.035-0.001 0.068-0.003 0.102l-0 0.001c-0.004 0.101-0.027 0.188-0.027 0.264-0.001 0.027-0.001 0.056-0.001 0.083 0 0.158 0.015 0.32 0.015 0.49zM20.94 6.986l0.068 0.123c0.019 0.035 0.019 0.062 0.019 0.079l-0 0.023v-0l-0 0.045c0 0.038 0 0.075 0 0.113 0 0.031 0 0.060-0 0.091v0.015c-0 0.148 0.023 0.288 0.055 0.441v0c0.068 0.334 0.145 0.675 0.192 1.020 0.047 0.341 0.073 0.689 0.080 1.034 0.003 0.199 0.031 0.404 0.041 0.617v0c0.012 0.253 0.027 0.508 0.038 0.765v0c0.019 0.548 0.056 0.977 0.075 1.516 0.008 0.235 0.015 0.47 0.015 0.706v0.008c0 0.298-0.027 0.589-0.040 0.877-0.023 0.515-0.023 1.034-0.066 1.556-0.023 0.267-0.049 0.528-0.050 0.788 0 0.023-0 0.047-0 0.070 0 0.188 0.003 0.376 0.003 0.565 0 0.050-0 0.1-0.001 0.151-0.004 0.385-0.031 0.766-0.031 1.143 0 0.118 0.003 0.235 0.008 0.352v-0c0.012 0.216 0.023 0.433 0.048 0.641 0.015 0.136 0.023 0.267 0.031 0.397 0.004 0.085 0.015 0.171 0.027 0.254 0.004 0.027 0.012 0.078 0.019 0.095l0.001 0.001 0.109 0.165-0.201-0.012c-0.041-0.003-0.070-0.015-0.089-0.023s-0.027-0.008-0.027-0.008h-0.001c-0.019-0.001-0.048 0.008-0.1 0.023v0c-0.060 0.015-0.118 0.027-0.172 0.041h0c-0.064 0.015-0.124 0.027-0.178 0.041-0.004 0-0.031 0.015-0.083 0.019l-0.031-0.003c-0.027-0.008-0.046-0.019-0.060-0.031l-0.035-0.035c-0.012-0.019-0.023-0.038-0.027-0.063-0.003-0.004-0.004-0.004-0.008-0.008l-0.058-0.071 0.050-0.048 0.001-0.019c0-0.031-0.003-0.063-0.004-0.092l0.001-0.019c0.019-0.172 0.053-0.329 0.053-0.481v-0.011l-0-0.039c0-0.141 0.008-0.281 0.023-0.419v-0c0.004-0.050 0.004-0.1 0.004-0.153 0-0.038-0.001-0.076-0.001-0.116l0-0.035c0.001-0.138 0.027-0.261 0.031-0.375 0.008-0.204 0.027-0.399 0.027-0.589v-0.008c-0-0.040-0-0.080-0-0.12v-0.14c0-0.176-0.001-0.351-0.008-0.524-0.008-0.123-0.019-0.244-0.031-0.37-0.019-0.165-0.012-0.323-0.019-0.473v0c-0.008-0.137-0.003-0.267-0.008-0.391v0c-0.008-0.128-0.012-0.254-0.012-0.381v-0.019c0.001-0.32 0.001-0.641 0.001-0.962 0-0.601-0.001-1.203-0.001-1.805v-0.704c0-0.233-0.001-0.466-0.023-0.692-0.019-0.229-0.027-0.455-0.038-0.678-0.015-0.249-0.046-0.502-0.087-0.751v0c-0.019-0.116-0.038-0.234-0.051-0.352-0.015-0.127-0.008-0.242-0.027-0.346l-0-0c-0.019-0.136-0.041-0.274-0.055-0.415v-0c-0.012-0.112-0.015-0.216-0.035-0.315v-0c-0.027-0.159-0.053-0.321-0.055-0.49v0c-0-0.053-0.008-0.113-0.015-0.177-0.001-0.019-0.003-0.035-0.004-0.050l-0.137-0.015 0.849-0.942zM30.193 17.411c-0.035-0.1-0.074-0.203-0.078-0.306-0.004-0.088 0.069-0.183 0.055-0.266-0.043-0.248-0.111-0.492-0.17-0.738-0.015 0.003-0.035 0.008-0.050 0.008-0.004 0.049-0.008 0.098-0.015 0.146-0.052-0.081-0.092-0.166-0.088-0.249 0.012-0.231 0.043-0.461 0.064-0.692 0.035-0.369 0.086-0.731-0.045-1.102-0.146-0.414-0.264-0.84-0.285-1.285-0.008-0.165-0.035-0.33-0.058-0.494-0.019-0.128-0.041-0.257-0.070-0.383-0.019-0.077-0.052-0.15-0.075-0.226-0.035-0.117-0.071-0.234-0.097-0.352-0.008-0.041 0.031-0.1 0.012-0.129-0.164-0.266-0.197-0.572-0.284-0.862-0.012-0.042-0.027-0.090-0.053-0.122-0.123-0.143-0.254-0.281-0.377-0.424-0.023-0.027-0.027-0.073-0.050-0.146-0.199-0.226-0.442-0.469-0.644-0.741-0.28-0.376-0.528-0.775-0.793-1.163-0.045-0.065-0.105-0.121-0.157-0.181-0.119-0.137-0.238-0.274-0.362-0.416 0.035-0.015 0.053-0.023 0.070-0.031-0.263-0.357-0.526-0.714-0.792-1.075-0.015 0.045-0.027 0.081-0.039 0.116-0.012 0.003-0.023 0.004-0.038 0.008-0.060-0.143-0.133-0.283-0.177-0.432-0.038-0.126-0.098-0.205-0.221-0.254-0.081-0.035-0.153-0.094-0.223-0.15-0.064-0.051-0.113-0.123-0.179-0.17-0.187-0.132-0.37-0.272-0.572-0.378-0.286-0.151-0.505-0.371-0.723-0.598-0.119-0.124-0.234-0.252-0.357-0.372-0.041-0.040-0.096-0.079-0.151-0.091-0.38-0.085-0.763-0.161-1.143-0.245-0.063-0.015-0.129-0.035-0.18-0.072-0.19-0.135-0.369-0.285-0.562-0.414-0.227-0.151-0.464-0.287-0.699-0.426-0.118-0.070-0.235-0.159-0.364-0.188-0.37-0.083-0.747-0.141-1.122-0.206-0.039-0.008-0.081 0.001-0.121 0.008-0.132 0.015-0.271 0.066-0.395 0.043-0.377-0.072-0.722 0.049-1.069 0.146-0.18 0.050-0.326 0.004-0.474-0.072-0.019-0.008-0.015-0.067-0.023-0.143-0.29-0.061-0.612-0.147-0.94-0.19-0.195-0.027-0.399 0.019-0.599 0.031-0.085 0.004-0.174 0.012-0.256-0.008-0.15-0.035-0.296-0.122-0.443-0.123-0.259-0.001-0.518 0.056-0.778 0.066-0.116 0.004-0.137 0.118-0.218 0.139-0.152 0.038-0.31 0.056-0.465 0.082-0.001-0.004-0.001-0.012-0.001-0.015 0.039-0.019 0.078-0.040 0.145-0.072-0.299-0.058-0.36-0.039-0.53 0.144-0.027 0.031-0.055 0.069-0.089 0.080-0.189 0.058-0.314 0.213-0.484 0.299-0.058 0.031-0.112 0.068-0.166 0.106-0.116 0.081-0.219 0.192-0.347 0.239-0.402 0.148-0.813 0.271-1.22 0.405-0.083 0.027-0.163 0.058-0.245 0.088 0.004 0.015 0.008 0.027 0.012 0.043l0.226-0.043c0.004 0.015 0.012 0.027 0.019 0.041-0.075 0.039-0.146 0.095-0.226 0.114-0.116 0.027-0.241 0.196-0.361 0.001-0.004-0.008-0.040-0.003-0.058 0.003-0.351 0.113-0.712 0.208-1.009 0.441-0.154 0.12-0.287 0.291-0.46 0.356-0.221 0.084-0.377 0.224-0.534 0.379-0.027 0.027-0.063 0.047-0.095 0.072-0.179 0.137-0.367 0.264-0.535 0.413-0.104 0.092-0.177 0.218-0.269 0.335-0.068-0.080-0.088-0.103-0.134-0.158-0.104 0.117-0.194 0.226-0.292 0.329-0.272 0.285-0.518 0.597-0.852 0.821-0.060 0.041-0.105 0.108-0.15 0.168-0.148 0.193-0.288 0.39-0.439 0.58-0.334 0.421-0.674 0.837-0.894 1.334-0.035 0.076-0.096 0.142-0.146 0.211-0.008 0.008-0.023 0.015-0.048 0.027 0.008-0.045 0.015-0.078 0.023-0.112-0.083 0.055-0.159 0.119-0.184 0.199-0.098 0.31-0.18 0.625-0.266 0.938-0.056 0.202-0.084 0.416-0.168 0.605-0.18 0.406-0.384 0.802-0.587 1.197-0.042 0.081-0.148 0.13-0.183 0.212-0.076 0.177-0.144 0.362-0.183 0.551-0.073 0.351-0.121 0.707-0.188 1.060-0.019 0.098-0.081 0.188-0.093 0.286-0.065 0.554-0.027 1.12-0.214 1.661-0.126 0.364-0.069 0.753 0.001 1.106 0.114 0.581 0.121 1.159 0.133 1.743 0.003 0.142 0.058 0.285 0.106 0.422 0.089 0.255 0.19 0.506 0.285 0.76 0.008 0.023 0.015 0.049 0.008 0.070-0.031 0.108-0.057 0.224 0.049 0.296 0.2 0.135 0.262 0.322 0.256 0.547-0.001 0.035 0.012 0.069 0.019 0.104 0.101 0.596 0.346 1.14 0.628 1.668 0.178 0.333 0.387 0.65 0.58 0.975 0.090 0.152 0.174 0.307 0.259 0.462 0.086 0.159 0.143 0.344 0.261 0.476 0.225 0.252 0.471 0.49 0.732 0.706 0.296 0.246 0.63 0.436 0.854 0.772 0.156 0.235 0.411 0.403 0.594 0.623 0.291 0.349 0.556 0.72 0.84 1.075 0.051 0.063 0.14 0.126 0.217 0.134 0.242 0.027 0.486 0.035 0.729 0.035 5.167-0.019 10.334-0.042 15.501-0.065 0.112-0.001 0.224 0 0.335-0.012 0.045-0.004 0.104-0.027 0.129-0.060 0.239-0.319 0.471-0.643 0.707-0.963 0.035-0.047 0.077-0.092 0.125-0.126 0.175-0.126 0.354-0.246 0.531-0.369 0.031-0.023 0.062-0.056 0.098-0.065 0.422-0.103 0.768-0.294 0.918-0.735 0.052-0.152 0.124-0.298 0.199-0.44 0.108-0.205 0.211-0.415 0.345-0.602 0.246-0.345 0.515-0.674 0.771-1.013 0.042-0.055 0.075-0.12 0.1-0.185 0.292-0.767 0.583-1.534 0.969-2.263 0.104-0.196 0.161-0.45 0.142-0.669-0.041-0.47 0.004-0.911 0.214-1.335 0.031-0.059 0.049-0.121 0.075-0.182 0.106-0.254 0.196-0.516 0.325-0.758 0.062-0.117 0.116-0.212 0.072-0.344z"></path>
<path d="M8.082 27.834c0.126 0.116 0.249 0.234 0.379 0.347 0.043 0.038 0.102 0.074 0.16 0.085 0.404 0.079 0.81 0.15 1.214 0.227 0.066 0.015 0.137 0.035 0.191 0.067 0.202 0.125 0.392 0.265 0.597 0.385 0.241 0.14 0.493 0.267 0.742 0.396 0.125 0.065 0.25 0.148 0.387 0.175 0.394 0.078 0.794 0.131 1.191 0.192 0.041 0.008 0.086-0.001 0.128-0.004 0.141-0.015 0.287-0.062 0.42-0.040 0.4 0.067 0.767-0.046 1.136-0.136 0.192-0.047 0.346-0.004 0.503 0.067 0.019 0.008 0.015 0.062 0.027 0.133 0.308 0.056 0.65 0.137 0.998 0.177 0.207 0.023 0.424-0.019 0.637-0.027 0.091-0.004 0.185-0.012 0.272 0.008 0.159 0.031 0.314 0.113 0.471 0.114 0.275 0.001 0.551-0.052 0.827-0.062 0.124-0.004 0.145-0.11 0.231-0.129 0.162-0.035 0.329-0.052 0.494-0.076 0.001 0.004 0.001 0.008 0.001 0.015-0.042 0.019-0.083 0.038-0.154 0.067 0.318 0.054 0.383 0.035 0.563-0.135 0.031-0.027 0.058-0.065 0.095-0.075 0.201-0.054 0.334-0.198 0.514-0.279 0.062-0.027 0.119-0.063 0.176-0.098 0.123-0.075 0.233-0.179 0.369-0.222 0.427-0.138 0.864-0.252 1.297-0.377 0.087-0.027 0.173-0.055 0.26-0.082-0.004-0.015-0.008-0.027-0.012-0.040-0.080 0.015-0.16 0.027-0.24 0.040-0.008-0.012-0.015-0.027-0.019-0.038 0.080-0.035 0.155-0.088 0.24-0.106 0.124-0.027 0.256-0.182 0.384-0.001 0.004 0.008 0.041 0.003 0.061-0.003 0.373-0.106 0.756-0.193 1.072-0.41 0.163-0.112 0.304-0.271 0.489-0.332 0.136-0.045 0.247-0.108 0.349-0.181h-16.883c0.154 0.109 0.294 0.231 0.432 0.357z"></path>
</svg>
