<!-- Generated by IcoMoon.io -->
<svg version="1.1" xmlns="http://www.w3.org/2000/svg" width="32" height="32" viewBox="0 0 32 32">
<title>return_to_city_of_archives</title>
<path d="M18.516 28.767c-0-0-0-0.001-0.001-0.001-0.003 0.002-0.002 0.002 0.001 0.001z"></path>
<path d="M20.469 27.895c-0.001 0-0.002 0.001-0.005 0.003 0.002-0.002 0.003-0.002 0.005-0.003z"></path>
<path d="M24.624 23.616c0.018-0.012 0.041-0.031 0.076-0.057-0.025 0.018-0.051 0.038-0.076 0.057z"></path>
<path d="M14.368 1.016c-0.050 0.028-0.098 0.054-0.145 0.079-0.032 0.013-0.064 0.028-0.092 0.042-0.058 0.023-0.111 0.048-0.164 0.070-0.104 0.042-0.198 0.078-0.272 0.114l0.165-0.114c-0.1 0.068-0.185 0.113-0.274 0.162l0.125-0.009c-0.108 0.048-0.194 0.094-0.204 0.074-0.089 0.088 0.122 0.032-0.068 0.187-0.075 0.027-0.176 0.090-0.268 0.143-0.047 0.025-0.093 0.046-0.13 0.063-0.020 0.006-0.035 0.013-0.050 0.015-0.009 0-0.015-0.003-0.022-0.011 0.006-0.001 0.036-0.016 0.055-0.026 0.021-0.011 0.039-0.023 0.055-0.029 0.028-0.016 0.044-0.027 0.055-0.035 0.018-0.018 0.006-0.023-0.009-0.024-0.025-0.006-0.057-0.012 0.040-0.076-0.055 0.032-0.118 0.064-0.193 0.098-0.019 0.001 0.009-0.023 0.035-0.040-0.029 0.011-0.074 0.030-0.081 0.031-0.004-0.001-0.004-0.001-0.007 0-0.004-0.001-0.005 0.001-0.005 0.002-0.009 0.002-0.037 0.006-0.048 0.011-0.031 0.009-0.050 0.021-0.077 0.033-0.052 0.024-0.126 0.051-0.334 0.055 0.042-0.026-0.025-0.042-0.097-0.052 0.046 0.019-0.045 0.061-0.18 0.085-0.314-0.021-0.341 0.029-0.505 0.029l0.187 0.009c-0.029 0.019-0.083 0.030-0.154 0.037-0.074 0.005-0.168 0.009-0.279 0.017-0.008 0.002-0.020 0.005-0.029 0.011-0.007-0.005 0.004-0.015 0.026-0.026-0.082 0.031-0.121 0.043-0.186 0.059-0.062 0.010-0.126 0.022-0.193 0.035-0.131 0.024-0.27 0.055-0.404 0.119-0.158 0.024-0.035-0.063-0.173-0.037-0.134 0.064-0.227 0.089-0.31 0.107-0.041 0.009-0.079 0.014-0.121 0.024-0.022 0.004-0.042 0.010-0.066 0.015-0.012 0.004-0.025 0.005-0.037 0.009-0.023 0.006-0.043 0.014-0.066 0.020-0.022 0.013-0.044 0.027-0.068 0.040-0.013 0.007-0.029 0.018-0.044 0.028-0.031 0.020-0.063 0.045-0.097 0.072 0.124-0.018 0.134-0.038-0.081 0.152l0.323-0.222 0.294-0.114-0.13 0.072c-0.050 0.024-0.073 0.040-0.151 0.074-0.059 0.044-0.079 0.068-0.114 0.099 0.040-0.025 0.083-0.054 0.123-0.081 0.043-0.016 0.085-0.033 0.125-0.048 0.038-0.015 0.071-0.030 0.103-0.042 0.067-0.028 0.127-0.049 0.173-0.061-0.179 0.103-0.166 0.085-0.063 0.096-0.056 0.001-0.109 0.011-0.16 0.024-0.025 0.006-0.053 0.016-0.077 0.026l-0.090 0.035c-0.071 0.052-0.142 0.104-0.217 0.16-0.071 0.051-0.147 0.098-0.237 0.134l-0.057-0.11c-0.316 0.145-0.551 0.354-0.842 0.555-0.094 0.051-0.237 0.12-0.38 0.176l0.189-0.063c-0.055 0.079-0.343 0.164-0.514 0.265-0.001-0.045-0.119-0.006-0.208 0.002 0.020 0.025-0.405 0.183-0.426 0.285l-0.074 0.022-0.066 0.048-0.050 0.031-0.096 0.061c-0.373 0.325-0.325 0.477-0.678 0.794 0.072-0.131-0.105-0.002 0.101-0.246-0.114 0.11-0.221 0.201-0.202 0.224-0.019 0.009-0.045 0.033-0.072 0.061-0.029 0.033-0.066 0.075-0.103 0.119-0.034 0.062-0.071 0.13-0.105 0.191-0.032 0.053-0.063 0.1-0.094 0.129-0.023 0.066 0.003 0.108-0.096 0.254-0.012 0.008-0.017 0.001-0.019-0.005-0.003 0.038-0.121 0.234-0.005 0.137-0.084 0.075-0.167 0.174-0.25 0.287-0.042 0.053-0.081 0.113-0.121 0.175-0.038 0.056-0.074 0.113-0.112 0.171-0.064 0.057-0.13 0.117-0.195 0.175-0.068 0.058-0.136 0.117-0.2 0.173-0.131 0.108-0.258 0.198-0.367 0.25-0.14 0.131-0.293 0.275-0.434 0.406-0.068 0.194-0.132 0.372-0.184 0.526-0.005-0.024-0.019-0.009 0.005-0.063-0.186 0.393 0.021 0.29-0.189 0.739-0.151 0.213 0.054-0.257-0.024-0.119-0.044 0.005-0.076 0.051-0.107 0.123-0.015 0.036-0.030 0.080-0.046 0.125-0.011 0.042-0.034 0.108-0.035 0.123-0.004 0.011-0.028 0.048-0.053 0.083l-0.072 0.107c-0.050 0.067-0.104 0.128-0.162 0.175l0.042-0.070c-0.189 0.175-0.326 0.53-0.581 0.858 0 0-0.001-0.024-0.018-0.015-0.006 0.022-0.022 0.057-0.051 0.107-0.015 0.079-0.033 0.169-0.051 0.268-0.019 0.089-0.040 0.185-0.064 0.283-0.048 0.195-0.102 0.398-0.149 0.575-0.013-0.134 0.027-0.18-0.048-0.127-0.048 0.174 0.098-0.022 0.004 0.323-0.028 0.046-0.057 0.101-0.097 0.178-0.036 0.107-0.071 0.19-0.108 0.208l0.031-0.226 0.042-0.129c-0.013 0.016-0.028 0.029-0.038 0.048-0.010 0.016-0.018 0.037-0.033 0.074-0.004 0.025-0.009 0.049-0.015 0.075l-0.011 0.064c-0.004 0.043-0.004 0.086-0.005 0.129-0.004 0.086-0.008 0.169-0.026 0.237l-0.029-0.029c-0.064 0.499 0.012 0.538-0.066 1.044-0.001 0.006-0.005 0.016-0.007 0.026 0.006-0.010 0.014-0.017 0.020-0.024 0.005-0.005 0.011-0.009 0.017-0.018 0.001 0.012 0.001 0.017 0.002 0.022 0 0.276-0.107 0.216-0.119 0.513l-0.105 0.068c-0.031 0.197-0.084 0.701-0.171 1.049 0.004-0.209 0.067-0.627 0.097-0.887-0.033 0.127-0.066 0.325-0.097 0.509 0.012 0.256-0.058 0.566-0.169 0.944-0.044-0.036-0.097 0.055-0.153 0.204-0.028 0.074-0.056 0.164-0.086 0.257-0.034 0.106-0.068 0.217-0.101 0.325 0.005 0.039 0.012 0.078 0.018 0.116 0.002 0.027 0.005 0.052 0.009 0.077 0.005 0.048 0.013 0.098 0.017 0.143 0.005 0.088 0.003 0.161-0.009 0.215 0.045 0.166 0.082 0.335 0.114 0.505 0.015 0.086 0.030 0.172 0.046 0.259 0.013 0.092 0.028 0.182 0.042 0.277 0.058 0.179 0.116 0.363 0.176 0.551 0.060 0.183 0.124 0.372 0.197 0.566 0.021-0.314 0.084 0.222 0.189 0.13 0.031 0.080 0.051 0.135 0.066 0.173 0.004 0.028 0.008 0.067 0.005 0.072v0.002l0.013 0.581c-0.016 0.14-0.057-0.175-0.083-0.152 0.056 0.411-0.026 0.181-0.016 0.457 0.038-0.063 0.087 0.132 0.108 0.369l0.007-0.338c0.076 0.27 0.071 0.382 0.068 0.525 0.010 0.159 0.005 0.273 0.118 0.568l-0.085-0.169c0.039 0.112 0.089 0.302 0.145 0.507 0.031 0.103 0.061 0.209 0.090 0.312 0.018 0.050 0.035 0.101 0.050 0.149 0.020 0.054 0.039 0.104 0.055 0.152 0.023 0.050 0.028 0.057 0.040 0.081 0.013 0.020 0.024 0.038 0.035 0.055 0.023 0.036 0.049 0.068 0.070 0.092 0.005 0.055-0.002 0.132-0.061 0.013 0.074 0.194 0.161 0.399 0.254 0.601 0.096 0.209 0.194 0.419 0.287 0.619 0.052 0.072 0.103 0.141 0.152 0.208 0.043 0.061 0.085 0.121 0.125 0.18 0.080 0.118 0.149 0.229 0.204 0.336l-0.055-0.029c0.082 0.107 0.18 0.162 0.248 0.32-0.018 0-0.059-0.028-0.026 0.024 0.016 0.019 0.051 0.058 0.094 0.105 0.020 0.024 0.040 0.048 0.064 0.075 0.024 0.031 0.041 0.048 0.083 0.107 0.029 0.027 0.060 0.057 0.088 0.083 0.023 0.023 0.042 0.043 0.061 0.064l-0.134-0.081c0.479 0.518 0.834 0.687 1.275 1.075-0.066 0.067 0.313 0.464 0.503 0.661l-0.017 0.002c0.145 0.138 0.281 0.26 0.415 0.377 0.128 0.122 0.254 0.236 0.377 0.345 0.126 0.111 0.246 0.22 0.375 0.331 0.061 0.058 0.125 0.114 0.189 0.173 0.034 0.029 0.066 0.059 0.099 0.090 0.037 0.035 0.076 0.070 0.114 0.107 0.015 0.007 0.030 0.019 0.048 0.029 0.111 0.115 0.291 0.258 0.503 0.413 0.108 0.076 0.222 0.158 0.34 0.241 0.13 0.091 0.265 0.183 0.401 0.276 0.155 0.043 0.311 0.087 0.461 0.129 0.134 0.040 0.263 0.081 0.382 0.121-0.107-0.045 0.036-0.066 0.167-0.042 0.167 0.063 0.489 0.060 0.439 0.136l-0.059-0.018c0.016 0.017 0.040 0.035 0.068 0.052 0.012 0.007 0.026 0.016 0.042 0.024 0.020 0.006 0.010 0.004 0.017 0.011-0.007 0.001 0.048 0.036 0.086 0.059 0.043 0.025 0.085 0.052 0.13 0.077 0.091 0.050 0.186 0.102 0.272 0.149l0.094-0.075c0.099 0.087 0.217 0.17 0.345 0.25 0.063 0.040 0.128 0.082 0.195 0.119 0.075 0.042 0.15 0.080 0.226 0.121l0.231 0.077c0.070 0.021 0.139 0.041 0.208 0.063 0.138 0.043 0.275 0.084 0.397 0.121 0.246 0.079 0.447 0.16 0.557 0.248 0.028 0.005 0.035 0.006 0.094 0.020 0.084 0.011 0.177 0.022 0.268 0.033 0.087 0.009 0.172 0.021 0.25 0.024l-0.022 0.057c0.191 0.043 0.344 0.077 0.502 0.112 0.079 0.017 0.159 0.034 0.246 0.052 0.098 0.019 0.203 0.040 0.321 0.064 0.068-0.006 0.197-0.021 0.34-0.033l-0.123 0.053c0.345-0.023 0.423-0.206 0.74-0.231l0.101 0.083 0.263-0.016 0.272-0.011 0.336-0.048 0.318-0.050c0.211-0.036 0.42-0.083 0.625-0.149-0.007 0.015-0.023 0.044-0.118 0.064 0.083-0.013 0.213-0.032 0.351-0.053 0.078-0.004 0.157-0.007 0.231-0.011 0.079-0.005 0.155-0.013 0.217-0.022 0.113-0.016 0.184-0.039 0.168-0.074 0.072 0.056 0.633-0.048 0.937-0.11l-0.044 0.066c0.266-0.11 0.272-0.132 0.65-0.2 0.091-0.004 0.085 0.035-0.035 0.035 0.304-0.006 0.226-0.083 0.595-0.097l-0.13 0.055c0.151-0.017 0.222-0.030 0.274-0.046s0.084-0.034 0.191-0.070c0.001-0.001 0.006-0.006 0.011-0.009 0.025-0.019 0.054-0.042 0.084-0.064 0.024-0.016 0.052-0.031 0.079-0.050 0.056-0.035 0.116-0.072 0.175-0.101 0.115-0.059 0.22-0.099 0.254-0.088 0.017-0.051 0.136-0.178 0.299-0.265 0.032 0.004-0.018 0.049-0.042 0.072 0.107-0.058 0.197-0.116 0.276-0.169 0.040-0.029 0.076-0.054 0.114-0.081l0.050-0.039 0.031-0.024c0.016-0.009 0.064-0.027 0.108-0.040 0.043-0.015 0.084-0.031 0.127-0.044 0.084-0.024 0.171-0.043 0.268-0.052 0.012 0.016 0.034 0.020 0.066 0.018-0.235 0.059-0.441 0.114-0.558 0.143-0.024 0.015-0.043 0.026-0.053 0.031-0.009 0.006-0.015 0.009-0.018 0.010 0.013 0.020 0.083-0.005 0.091 0.006 0.015 0.005 0.021 0.011 0.029 0.020 0.004 0.009-0.001 0.026 0 0.042 0 0.003 0.001 0.007 0.002 0.011 0-0.002 0.001-0.007 0.002-0.011 0.017-0.006 0.034-0.014 0.050-0.022 0.038-0.015 0.075-0.032 0.114-0.050 0.078-0.032 0.16-0.066 0.244-0.101 0.167-0.068 0.342-0.129 0.496-0.156 0.016 0.001 0.031 0.001 0.044 0.005l-0.031 0.013c0.074-0.013 0.141-0.035 0.2-0.059 0.051-0.009 0.093-0.018 0.134-0.026 0.047-0.009 0.063-0.013 0.16-0.037 0.017 0.005 0.057 0.001 0.117-0.011 0.035-0.035 0.079-0.081 0.127-0.136 0.027-0.032 0.055-0.065 0.084-0.101 0.058-0.070 0.12-0.142 0.162-0.193-0.054-0.026 0.087-0.185-0.072-0.068 0.003 0.001-0.031 0.047-0.091 0.119-0.013 0.021-0.031 0.044-0.039 0.059 0-0.004 0.001-0.009 0.002-0.015l-0.217 0.265-0.184 0.050c0.038-0.022 0.113-0.050 0.169-0.072 0.020-0.028 0.041-0.057 0.063-0.086 0.017-0.023 0.037-0.049 0.057-0.074 0.033-0.043 0.073-0.083 0.123-0.123 0.025-0.091 0.057-0.188 0.075-0.241 0.211-0.12 0.531-0.43 0.608-0.443 0.054-0.071 0.108-0.147 0.167-0.224 0.080-0.068 0.163-0.139 0.244-0.208 0.087-0.076 0.17-0.149 0.252-0.219 0.159-0.146 0.295-0.284 0.371-0.401 0.104-0.1 0.149-0.077 0.202-0.097-0.060 0.061-0.138 0.122-0.163 0.162 0.202-0.21 0.687-0.512 0.695-0.617 0.318-0.182-0.126 0.177 0.276-0.121l-0.040 0.057c0.107-0.056 0.203-0.114 0.296-0.175 0.046-0.032 0.090-0.063 0.134-0.092 0.055-0.040 0.11-0.079 0.162-0.119l0.066-0.123 0.042-0.084 0.075-0.169c0.050-0.112 0.101-0.224 0.151-0.338 0.1-0.224 0.219-0.471 0.356-0.693 0.079-0.074 0.188-0.168 0.303-0.257-0.013 0.009-0.024 0.015-0.033 0.016 0.146-0.128 0.288-0.263 0.43-0.399l0.209-0.209 0.222-0.219c0.292-0.467 0.536-0.88 0.836-1.341l0.088-0.272 0.088-0.254c0.060-0.17 0.124-0.335 0.191-0.498 0.098-0.256 0.096-0.336 0.107-0.474 0-0.036 0.004-0.078 0.004-0.129l0.077-0.061 0.007-0.371c0.063-0.516 0.345-0.84 0.402-1.499l-0.061 0.074c0.063-0.227 0.151-0.733 0.189-0.682-0.001-0.027-0.026-0.083 0.017-0.169h0.037l0.011-0.085 0.020-0.114-0.044-0.123v0.005l-0.035-0.096-0.075-0.193c-0.094-0.438 0.148 0.035-0.015-0.599-0.078-0.231-0.276-0.643-0.274-0.549 0.024 0.095 0.046 0.247 0.015 0.265l-0.074-0.209c-0.006-0.001-0.015-0.002-0.022-0.004l-0.011-0.035 0.312-1.534-0.276-1.029 0.024 0.020-0.037-0.070-0.088-0.327c0.013 0.006 0.034 0.033 0.055 0.097-0.007-0.096-0.021-0.144-0.039-0.191-0.039-0.067-0.069-0.088-0.097-0.222-0.004-0.025 0.006-0.018 0.018 0l-0.125-0.208c0.036 0.035 0.040-0.063 0.090 0.077-0.134-0.415-0.354-0.606-0.362-0.781l0.022 0.029c-0.209-0.397-0.149-0.21-0.219-0.259l-0.004-0.011-0.037-0.261 0.083-0.222-0.072-0.052c-0.006-0.060-0.016-0.182 0.013-0.164-0.073-0.222-0.024 0.043-0.083-0.085 0.015-0.233-0.064-0.565-0.068-0.774-0.033-0.059-0.054-0.107-0.040-0.134-0.107-0.060 0.146 0.261-0.079 0.016 0.035-0.14-0.233-0.285-0.356-0.535 0.096 0.033 0.225 0.26 0.103 0.011-0.175-0.075-0.297-0.439-0.448-0.612-0.071 0.037-0.319-0.386-0.564-0.683 0.036 0.004-0.391-0.612-0.564-0.928l0.015 0.002c-0.103-0.013-0.299-0.326-0.465-0.54 0.044-0.017 0.088 0.012 0.187 0.121l-0.141-0.211c-0.055-0.035-0.108-0.094-0.208-0.224l0.084 0.022-0.075-0.101-0.103-0.086-0.090-0.074c-0.060-0.048-0.125-0.1-0.189-0.151-0.128-0.106-0.26-0.219-0.391-0.364-0.037 0.018 0.045 0.167-0.011 0.176l-0.171-0.16c0.019-0.007 0.048-0.002 0.097 0.033-0.032-0.024-0.121-0.075-0.171-0.138l0.169 0.088c-0.131-0.15-0.105-0.040-0.219-0.151 0.032-0.028-0.063-0.101-0.024-0.11 0.032 0.024 0.089 0.105 0.145 0.134-0.063-0.061-0.145-0.146-0.182-0.197-0.027-0.054-0.066-0.132-0.072-0.165-0.011 0.028-0.046 0.037-0.129-0.064-0.205-0.267-0.030-0.124-0.13-0.294-0.072-0.047-0.178-0.236-0.231-0.204-0.059-0.079-0.048-0.109-0.057-0.151-0.035-0.034-0.087-0.098-0.143-0.167-0.067-0.082-0.136-0.171-0.195-0.244-0.205-0.051-0.257-0.053-0.187 0l0.050 0.018c-0.011-0.001-0.023-0.005-0.035-0.007-0.237-0.041-0.472-0.111-0.707-0.187l-0.353-0.118c-0.112-0.038-0.219-0.074-0.329-0.108l-0.094-0.081-0.11-0.088 0.013-0.015c-0.273-0.202-0.581-0.48-0.794-0.604-0.076-0.064-0.155-0.182-0.107-0.173-0.031-0.023-0.059-0.045-0.077-0.059-0.048-0.020-0.088-0.035-0.127-0.050-0.036-0.015-0.070-0.030-0.107-0.046-0.073-0.036-0.158-0.083-0.296-0.169 0.25 0.083-0.067-0.068 0.252 0.096-0.294-0.166-0.349-0.23-0.696-0.34 0.132 0.005-0.192-0.172-0.351-0.233l0.198 0.141c-0.047-0.020-0.091-0.040-0.134-0.061-0.049-0.024-0.098-0.049-0.145-0.074-0.080-0.012-0.155-0.022-0.231-0.035l0.094-0.059c-0.333-0.087-0.644-0.090-0.935-0.099-0.145-0.004-0.284-0.010-0.421-0.028-0.134-0.019-0.26-0.063-0.382-0.121-0.187 0.013 0.361 0.105 0.191 0.13-0.308-0.070-0.612-0.233-0.709-0.25-0.171-0.051-0.272-0.056-0.362-0.053-0.046 0.002-0.085 0.005-0.132 0.007-0.023 0.001-0.050 0.001-0.075 0-0.029-0.001-0.049-0.001-0.101-0.009-0.032 0-0.066 0.002-0.105 0.002-0.034 0-0.071-0.003-0.114-0.005 0.059 0.027 0.114 0.092-0.226 0.112-0.316-0.015-0.388-0.111-0.187-0.129 0.076-0.001 0.113 0.007 0.11 0.017 0.103-0.007 0.236-0.016 0.11-0.046l-0.042 0.026c-0.156-0.029-0.591-0.033-0.487-0.074-0.241 0.022-0.106 0.039 0.072 0.055-0.262-0.029-0.462-0.025-0.667-0.028-0.096-0.006-0.229-0.019-0.369-0.040 0.065 0.020 0.124 0.054 0.059 0.048-0.609-0.087-0.273 0.022-0.687-0.004-0.232-0.059 0.092-0.083-0.327-0.088-0.253-0.050-0.048-0.071 0.053-0.083-0.046 0.001-0.090 0.001-0.134 0l-0.094-0.005c-0.037-0.004-0.073-0.007-0.108-0.011h-0.002v-0zM9.553 4.722c0.153-0.003 0.167 0.194 0.217 0.331 0.081 0.22 0.16 0.046 0.281-0.016 0.124-0.061 0.249-0.135 0.379-0.133 0.067 0.001 0.156-0.019 0.221-0.003 0.057 0.015 0.094 0.063 0.153 0.076-0.055 0.057-0.114 0.079-0.18 0.107-0.040 0.017-0.102 0.050-0.142 0.061-0.095 0.026-0.088-0.018-0.15 0.055-0.024 0.028-0.055 0.098-0.085 0.136-0.136 0.173-0.218 0.376-0.305 0.582-0.054 0.129-0.073 0.272-0.097 0.418-0.024 0.143-0.059 0.252-0.050 0.416 0.008 0.137 0.058 0.287 0.099 0.417 0.052 0.172 0.067 0.294 0.182 0.417 0.053 0.057 0.090 0.087 0.156 0.131 0.073 0.049 0.119 0.136 0.185 0.185 0.099 0.076 0.24 0.121 0.354 0.177 0.171 0.085 0.348 0.111 0.526 0.178 0.189 0.072 0.365 0.148 0.547 0.224 0.125 0.053 0.22 0.15 0.339 0.222 0.129 0.080 0.233 0.129 0.351 0.238 0.21 0.192 0.5 0.546 0.419 0.9-0.001 0-0.002 0.001-0.004 0.001 0.154-0.026 0.1 0.177-0.011 0.285-0.161 0.155-0.295 0.14-0.489 0.142-0.157 0.002-0.285-0.040-0.394-0.176-0.15-0.187-0.272-0.419-0.458-0.571-0.099-0.080-0.137-0.135-0.219-0.231-0.023-0.027-0.090-0.107-0.118-0.126-0.088-0.058-0.202-0.071-0.299-0.135-0.064-0.041-0.124-0.058-0.191-0.085-0.274-0.113-0.62-0.267-0.83-0.522-0.11-0.135-0.201-0.317-0.277-0.48-0.045-0.094-0.114-0.12-0.155-0.206-0.016-0.032-0.018-0.080-0.032-0.115-0.018-0.040-0.061-0.087-0.082-0.125-0.155-0.275-0.145-0.623-0.133-0.955 0.006-0.186 0.101-0.388 0.161-0.567 0.024-0.074 0.057-0.159 0.073-0.237 0.015-0.076 0.043-0.149 0.055-0.214 0.037-0.199-0.021-0.305-0.094-0.466-0.059-0.131-0.074-0.333 0.098-0.336zM22.766 4.722c0.211 0.003 0.193 0.205 0.12 0.336-0.090 0.162-0.16 0.267-0.115 0.466 0.015 0.065 0.050 0.138 0.068 0.214 0.019 0.078 0.059 0.163 0.090 0.237 0.073 0.179 0.188 0.382 0.196 0.567 0.014 0.333 0.026 0.68-0.164 0.955-0.027 0.039-0.079 0.085-0.1 0.125-0.019 0.034-0.021 0.082-0.041 0.115-0.051 0.086-0.136 0.112-0.19 0.206-0.093 0.163-0.205 0.345-0.34 0.48-0.257 0.255-0.68 0.41-1.017 0.522-0.081 0.027-0.154 0.045-0.233 0.085-0.119 0.064-0.259 0.076-0.367 0.135-0.034 0.019-0.116 0.099-0.144 0.126-0.101 0.096-0.147 0.15-0.268 0.231-0.227 0.152-0.377 0.385-0.56 0.571-0.135 0.137-0.292 0.178-0.484 0.176-0.238-0.002-0.401 0.014-0.599-0.142-0.136-0.108-0.203-0.312-0.012-0.284-0.002-0-0.003-0.001-0.005-0.001-0.099-0.355 0.256-0.708 0.513-0.9 0.145-0.108 0.271-0.157 0.431-0.238 0.144-0.072 0.262-0.169 0.414-0.222 0.223-0.076 0.44-0.152 0.671-0.224 0.217-0.068 0.434-0.093 0.642-0.178 0.14-0.056 0.312-0.101 0.434-0.177 0.080-0.049 0.137-0.136 0.225-0.185 0.081-0.045 0.126-0.074 0.192-0.131 0.143-0.123 0.16-0.245 0.224-0.417 0.048-0.13 0.111-0.281 0.121-0.417 0.012-0.164-0.032-0.273-0.062-0.416-0.029-0.146-0.052-0.289-0.119-0.418-0.106-0.206-0.208-0.409-0.373-0.582-0.035-0.038-0.073-0.107-0.102-0.136-0.077-0.073-0.069-0.029-0.185-0.055-0.049-0.010-0.125-0.044-0.173-0.061-0.082-0.028-0.153-0.050-0.221-0.107 0.073-0.014 0.117-0.062 0.188-0.076 0.079-0.016 0.189 0.004 0.27 0.003 0.159-0.002 0.312 0.072 0.463 0.133 0.149 0.062 0.245 0.236 0.344 0.016 0.062-0.137 0.077-0.334 0.266-0.331zM15.396 5.442c0.099-0.001 0.298 0.094 0.345 0.175 0.033 0.055 0.030 0.097 0.033 0.159 0.002 0.073 0.025 0.109 0.041 0.179 0.011 0.055-0.005 0.111 0.001 0.166 0.007 0.068 0.041 0.125 0.049 0.192 0.017 0.145 0.032 0.286 0.041 0.432 0.010 0.182 0.094 0.346 0.092 0.531-0.001 0.107-0.012 0.215 0.026 0.315 0.116 0.304 0.26 0.616 0.327 0.935 0.053 0.247 0.101 0.489 0.194 0.726 0.048 0.122 0.076 0.238 0.146 0.348 0.071 0.115 0.114 0.148 0.236 0.213 0.174 0.092 0.37 0.2 0.507 0.345 0.042 0.044 0.076 0.112 0.125 0.148 0.058 0.043 0.122 0.041 0.175 0.099 0.071 0.078 0.143 0.15 0.203 0.246 0.105 0.167 0.194 0.338 0.274 0.519 0.049 0.111 0.083 0.215 0.112 0.332 0.028 0.12 0.090 0.215 0.125 0.331 0.040 0.129 0.042 0.269 0.076 0.401 0.018 0.069 0.051 0.133 0.064 0.203 0.017 0.093 0.003 0.199 0.003 0.294l0.001 0c0.223 0.046 0.129 0.286-0.045 0.315-0.183 0.031-0.261-0.096-0.357-0.225-0.117-0.16-0.212-0.316-0.282-0.503-0.069-0.182-0.040-0.386-0.088-0.571s-0.108-0.346-0.266-0.458c-0.086-0.061-0.186-0.1-0.271-0.167-0.089-0.069-0.147-0.143-0.223-0.222-0.153-0.162-0.251-0.359-0.48-0.429-0.102-0.031-0.204-0.009-0.304-0.031-0.035-0.006-0.050-0.028-0.099-0.035-0.034-0.004-0.076 0.001-0.113 0.001-0.297 0.004-0.469-0.203-0.515-0.49-0.026-0.167-0.034-0.324-0.043-0.493-0.004-0.093-0.072-0.249-0.178-0.272-0.163-0.033-0.181 0.224-0.225 0.319-0.032 0.072-0.029 0.106-0.052 0.187-0.026 0.094-0.099 0.16-0.121 0.259-0.038 0.159-0.068 0.306-0.151 0.445-0.060 0.102-0.16 0.227-0.245 0.317-0.15 0.156-0.398 0.282-0.603 0.345-0.129 0.041-0.236 0.074-0.349 0.167-0.076 0.060-0.141 0.143-0.211 0.212-0.103 0.101-0.106 0.169-0.154 0.292-0.019 0.049-0.064 0.108-0.087 0.163-0.021 0.052-0.051 0.102-0.071 0.159-0.037 0.1-0.092 0.196-0.125 0.296-0.036 0.103-0.031 0.22-0.075 0.321-0.045 0.104-0.126 0.183-0.182 0.279-0.027 0.047-0.048 0.111-0.103 0.13-0.265 0.098-0.351-0.511-0.321-0.657 0.009-0.052 0.051-0.128 0.068-0.189 0.028-0.096 0.055-0.185 0.090-0.281 0.058-0.165 0.085-0.331 0.178-0.483 0.122-0.198 0.326-0.339 0.483-0.507 0.123-0.131 0.235-0.287 0.342-0.43 0.046-0.059 0.109-0.087 0.16-0.142 0.044-0.048 0.069-0.112 0.111-0.162 0.050-0.058 0.103-0.097 0.141-0.165 0.040-0.070 0.056-0.129 0.106-0.196 0.064-0.085 0.141-0.169 0.221-0.241 0.187-0.168 0.263-0.408 0.326-0.634 0.031-0.111 0.029-0.254 0.043-0.371 0.015-0.126 0.057-0.259 0.090-0.382 0.047-0.185 0.157-0.346 0.224-0.525 0.033-0.090 0.062-0.183 0.079-0.278 0.023-0.121-0.006-0.241 0.008-0.36 0.022-0.185 0.090-0.349 0.171-0.516 0.094-0.192 0.172-0.376 0.189-0.591 0.007-0.094 0.040-0.175 0.046-0.268 0.005-0.091 0.002-0.137 0.049-0.22 0.006-0.001 0.012-0.002 0.018-0.002zM9.497 9.119c0.15-0.002 0.294 0.019 0.307 0.126-0.102 0.034-0.218-0.006-0.323 0.024-0.078 0.022-0.187 0.073-0.265 0.093-0.18 0.045-0.326 0.12-0.476 0.237-0.4 0.314-0.853 0.573-1.169 0.972-0.16 0.201-0.302 0.412-0.461 0.616-0.135 0.172-0.228 0.334-0.31 0.53-0.053 0.128-0.102 0.207-0.134 0.341-0.024 0.101-0.066 0.195-0.092 0.297-0.063 0.255-0.133 0.514-0.15 0.774-0.035 0.577 0.008 1.166 0.002 1.745-0.002 0.165 0.054 0.301 0.062 0.463 0.006 0.141-0.008 0.282-0.002 0.422 0.009 0.233 0.098 0.432 0.167 0.653 0.13 0.42 0.183 0.871 0.416 1.25 0.139 0.226 0.251 0.454 0.419 0.659 0.118 0.146 0.192 0.329 0.324 0.459 0.308 0.302 0.703 0.482 1.057 0.714 0.197 0.129 0.399 0.261 0.6 0.375 0.157 0.091 0.35 0.058 0.535 0.058l-0 0c0.059 0.146 0.078 0.283 0.017 0.417-0.056 0.123-0.068 0.238-0.12 0.358-0.055 0.127-0.13 0.232-0.254 0.301-0.103 0.058-0.226 0.024-0.345-0.017-0.088-0.029-0.178-0.123-0.266-0.152-0.127-0.042-0.284-0.056-0.418-0.088-0.2-0.046-0.397-0.127-0.586-0.209-0.112-0.048-0.271-0.108-0.357-0.192-0.225-0.221-0.283-0.535-0.473-0.777-0.095-0.121-0.193-0.239-0.284-0.355-0.027-0.036-0.041-0.086-0.070-0.123-0.064-0.080-0.165-0.107-0.233-0.178-0.074-0.077-0.096-0.132-0.185-0.192-0.084-0.056-0.157-0.101-0.233-0.169-0.091-0.081-0.178-0.181-0.236-0.294-0.078-0.153-0.13-0.321-0.207-0.477-0.087-0.173-0.097-0.359-0.165-0.54-0.169-0.453-0.119-0.941-0.119-1.417 0-0.177-0.009-0.357-0.002-0.533 0.007-0.186 0.065-0.346 0.063-0.537-0.003-0.342-0.001-0.683-0.001-1.025 0-0.096-0.016-0.207-0.003-0.301 0.015-0.111 0.059-0.197 0.065-0.313 0.005-0.126-0.003-0.213 0.042-0.333 0.016-0.043 0.052-0.089 0.064-0.13 0.038-0.139 0.042-0.274 0.087-0.416 0.031-0.1 0.082-0.197 0.106-0.298 0.055-0.245 0.136-0.496 0.238-0.73 0.070-0.157 0.114-0.307 0.176-0.466 0.046-0.117 0.128-0.245 0.195-0.358 0.125-0.211 0.302-0.407 0.492-0.557 0.097-0.077 0.217-0.166 0.323-0.229 0.127-0.077 0.281-0.088 0.413-0.149 0.228-0.106 0.475-0.113 0.72-0.201 0.258-0.094 0.472-0.112 0.75-0.112 0.062 0 0.181-0.016 0.298-0.018zM22.381 9.375c0.166 0 0.329 0.007 0.494 0.046 0.248 0.058 0.479 0.153 0.697 0.291 0.503 0.315 1.081 0.641 1.389 1.168 0.092 0.159 0.151 0.348 0.249 0.51 0.111 0.182 0.224 0.355 0.282 0.562 0.066 0.232 0.199 0.404 0.271 0.629 0.071 0.222 0.153 0.45 0.211 0.674 0.082 0.315 0.118 0.637 0.177 0.95 0.033 0.172 0.031 0.355 0.061 0.529 0.027 0.167 0.012 0.343 0.012 0.513 0 0.403 0.029 0.784-0.121 1.165-0.071 0.182-0.098 0.381-0.164 0.568-0.061 0.173-0.089 0.35-0.144 0.52-0.026 0.082-0.081 0.144-0.102 0.228-0.033 0.128-0.048 0.276-0.065 0.408-0.041 0.302-0.061 0.61-0.137 0.906-0.069 0.27-0.133 0.474-0.265 0.719-0.17 0.313-0.399 0.589-0.599 0.885-0.121 0.177-0.243 0.239-0.42 0.357-0.165 0.11-0.311 0.249-0.488 0.344-0.338 0.182-0.701 0.296-1.058 0.433-0.261 0.099-0.516 0.178-0.79 0.177-0.224-0.001-0.479 0.049-0.613-0.176-0.125-0.211-0.016-0.416 0.076-0.778l0-0c0.108-0.014 0.182-0.062 0.298-0.059 0.124 0.003 0.211-0.040 0.327-0.061 0.235-0.044 0.446-0.141 0.661-0.237 0.514-0.23 1.097-0.561 1.42-1.044 0.169-0.25 0.295-0.58 0.393-0.866 0.035-0.103 0.090-0.194 0.135-0.294 0.069-0.155 0.092-0.321 0.147-0.478 0.090-0.253 0.181-0.529 0.242-0.791 0.030-0.133 0.033-0.273 0.059-0.406 0.027-0.136-0.008-0.276 0.010-0.412 0.018-0.128 0.061-0.23 0.063-0.361 0.001-0.104 0-0.209 0-0.312v-0.762c0-0.442 0.012-0.887-0.056-1.311-0.019-0.118-0.066-0.173-0.063-0.298s-0.019-0.184-0.047-0.298c-0.050-0.205-0.103-0.396-0.192-0.6-0.070-0.161-0.146-0.316-0.225-0.473-0.041-0.080-0.071-0.151-0.117-0.233-0.090-0.162-0.18-0.322-0.27-0.483-0.107-0.193-0.212-0.358-0.342-0.537-0.1-0.139-0.232-0.24-0.341-0.369-0.131-0.156-0.249-0.355-0.432-0.451-0.213-0.112-0.354-0.161-0.585-0.207-0.017-0.003-0.11-0.040-0.133-0.046-0.027-0.009-0.093-0.023-0.12-0.030-0.087-0.022-0.168-0.026-0.268-0.029-0.107-0.003-0.202-0.005-0.115-0.115 0.058-0.072 0.21-0.066 0.294-0.065 0.101 0.001 0.201-0.001 0.301-0.001zM9.654 11.581c0.142 0 0.28 0.004 0.419 0.037 0.191 0.046 0.422 0.077 0.605 0.148 0.14 0.054 0.315 0.136 0.446 0.204 0.095 0.049 0.156 0.173 0.238 0.243 0.091 0.079 0.203 0.114 0.268 0.232 0.051 0.094 0.127 0.255 0.158 0.355 0.025 0.085 0.010 0.166 0.047 0.249 0.030 0.071 0.083 0.108 0.105 0.181s0.041 0.187 0.061 0.267c0.015 0.063 0.050 0.156 0.058 0.203 0.012 0.070-0.002 0.146 0.012 0.213 0.019 0.089 0.062 0.122 0.073 0.22 0.043 0.355-0.078 0.663-0.223 0.961-0.125 0.257-0.308 0.489-0.559 0.61-0.152 0.073-0.276 0.179-0.421 0.255-0.205 0.108-0.475 0.092-0.691 0.136-0.35 0.070-0.752 0.145-1.091-0.028-0.165-0.084-0.354-0.109-0.528-0.186-0.159-0.069-0.283-0.164-0.42-0.263-0.29-0.209-0.412-0.501-0.41-0.882 0.002-0.263-0.057-0.758 0.236-0.829 0.121-0.029 0.34-0.014 0.432 0.095 0.025 0.029 0.057 0.133 0.078 0.177 0.047 0.095 0.085 0.2 0.135 0.293 0.094 0.177 0.236 0.281 0.406 0.359 0.182 0.084 0.363 0.019 0.546 0.072 0.167 0.048 0.297 0.055 0.475 0.057 0.179 0.003 0.307-0.074 0.476-0.131 0.146-0.049 0.336-0.102 0.437-0.243 0.099-0.138 0.086-0.244 0.102-0.414 0.021-0.209 0.112-0.374 0.065-0.601-0.037-0.178-0.050-0.391-0.147-0.547s-0.234-0.371-0.389-0.45c-0.123-0.061-0.244-0.11-0.365-0.176-0.138-0.076-0.292-0.143-0.417-0.243-0.172-0.138-0.302-0.228-0.509-0.273-0.166-0.037-0.285-0.075-0.474-0.075-0.044 0-0.096-0.007-0.146-0.009-0.062 0.064-0.118 0.141-0.193 0.159 0 0 0 0 0 0.001l-0-0.001c0 0 0 0 0 0-0.043-0.047 0.019-0.133 0.099-0.153 0.028-0.007 0.060-0.008 0.094-0.006 0.025-0.026 0.051-0.050 0.080-0.066 0.214-0.121 0.458-0.151 0.691-0.15 0.048 0 0.096-0 0.143-0zM21.767 11.814c0.305-0.012 0.679 0.204 0.946 0.315 0.225 0.094 0.514 0.251 0.695 0.435 0.101 0.102 0.179 0.269 0.209 0.411 0.018 0.086-0.017 0.179 0.003 0.264 0.021 0.092 0.066 0.111 0.077 0.217 0.008 0.073-0.008 0.151-0.003 0.224 0.006 0.103 0.047 0.162 0.068 0.261 0.033 0.157 0.014 0.359 0.008 0.521-0.012 0.282-0.177 0.562-0.344 0.8-0.181 0.257-0.317 0.393-0.601 0.555-0.294 0.169-0.591 0.292-0.92 0.409-0.14 0.050-0.292 0.056-0.45 0.093-0.18 0.043-0.336 0.047-0.507 0-0.29-0.078-0.636-0.049-0.923-0.202-0.278-0.147-0.537-0.399-0.599-0.726-0.027-0.145-0.006-0.302 0.075-0.41 0.112-0.144 0.235-0.11 0.398-0.111 0.173-0.001 0.338 0.033 0.501 0.081 0.054 0.016 0.085 0.054 0.148 0.070 0.092 0.023 0.197-0.019 0.291 0.003 0.152 0.035 0.308 0.113 0.475 0.072 0.061-0.015 0.115-0.057 0.174-0.078 0.081-0.027 0.177-0.036 0.26-0.074 0.272-0.128 0.648-0.184 0.813-0.504 0.049-0.096 0.044-0.12 0.049-0.24 0.004-0.103 0.048-0.164 0.068-0.26 0.041-0.189 0.002-0.367-0.057-0.527-0.127-0.347-0.373-0.542-0.657-0.74-0.282-0.195-0.598-0.184-0.942-0.184h-0.579c-0.081 0-0.172-0.013-0.252-0.002-0.011 0.001-0.021 0.003-0.032 0.006-0.039 0.052-0.073 0.109-0.075 0.152 0.015 0.021 0.038 0.043 0.070 0.067-0.053-0.007-0.071-0.033-0.070-0.067-0.057-0.079-0.002-0.133 0.075-0.152 0.038-0.050 0.080-0.095 0.101-0.118 0.147-0.151 0.285-0.204 0.472-0.274 0.075-0.028 0.14-0.094 0.216-0.117 0.086-0.026 0.169-0.003 0.253-0.022 0.171-0.038 0.332-0.119 0.506-0.145 0.020-0.003 0.040-0.005 0.060-0.006zM15.809 12.116c0.012-0.001 0.026-0 0.040 0.001 0.201 0.014 0.395 0.119 0.58 0.197 0.174 0.073 0.345 0.119 0.507 0.206 0.093 0.049 0.291 0.144 0.371 0.249 0.040 0.022 0.079 0.044 0.117 0.067 0.118 0.071 0.273 0.146 0.321 0.295 0.054 0.169 0.087 0.35 0.146 0.525 0.010 0.031 0.037 0.062 0.046 0.1 0.012 0.048-0.001 0.1 0.011 0.151 0.021 0.081 0.079 0.182 0.093 0.252 0.038 0.188 0.014 0.402 0.014 0.595 0 0.238 0.043 0.492-0.074 0.704-0.078 0.14-0.191 0.261-0.276 0.393-0.081 0.124-0.207 0.216-0.294 0.335-0.028 0.038-0.015 0.090-0.044 0.129-0.032 0.044-0.104 0.059-0.147 0.093-0.127 0.099-0.233 0.202-0.375 0.288-0.193 0.116-0.378 0.336-0.59 0.418-0.415 0.163-0.996 0.072-1.434 0.072-0.261 0-0.514 0.016-0.762-0.073-0.292-0.104-0.514-0.295-0.745-0.489-0.171-0.144-0.274-0.231-0.341-0.451-0.044-0.148-0.045-0.276-0.045-0.437 0.001-0.124-0.039-0.339 0.009-0.451 0.14-0.023 0.266-0.069 0.408-0.068 0.263 0.002 0.427 0.108 0.659 0.239 0.171 0.096 0.291 0.235 0.475 0.314 0.168 0.073 0.362 0.105 0.535 0.149 0.16 0.042 0.357 0.014 0.524 0.014 0.192 0 0.41 0.028 0.598-0.014 0.228-0.050 0.573-0.226 0.713-0.414 0.224-0.297 0.316-0.69 0.313-1.060-0.001-0.175-0.001-0.352 0-0.527 0.002-0.194-0.073-0.338-0.192-0.491-0.077-0.1-0.228-0.19-0.342-0.239-0.134-0.057-0.267-0.047-0.419-0.057-0.146-0.009-0.264-0.062-0.417-0.061-0.197 0.001-0.349-0.030-0.538-0.063-0.156-0.027-0.346 0.003-0.506 0.003-0.17 0-0.297-0.008-0.444 0.059-0.154 0.070-0.327 0.112-0.483 0.178-0.117 0.050-0.231 0.123-0.342 0.173-0.072-0.149 0.116-0.379 0.21-0.486 0.057-0.065 0.14-0.161 0.21-0.212 0.062-0.045 0.159-0.045 0.222-0.084 0.365-0.216 0.81-0.382 1.222-0.467 0.087-0.018 0.188 0.026 0.273 0.005 0.082-0.020 0.11-0.060 0.195-0.064zM9.782 12.794c0.019 0.001 0.040 0.004 0.063 0.011 0.067 0.019 0.319 0.272 0.299 0.371-0.039 0.196-0.62 0.227-0.755 0.31-0.154 0.093-0.083 0.231 0.041 0.305 0.117 0.070 0.237 0.055 0.379 0.053 0.343-0.006 0.369 0.292 0.090 0.467-0.113 0.071-0.241 0.064-0.379 0.054-0.101-0.007-0.335-0.040-0.419-0.091-0.043-0.025-0.063-0.086-0.103-0.118-0.044-0.033-0.102-0.029-0.148-0.069-0.096-0.081-0.156-0.248-0.197-0.354-0.066-0.169-0.077-0.237-0.008-0.384 0.067-0.144 0.14-0.214 0.256-0.327 0.175-0.173 0.404-0.195 0.619-0.106 0.087-0.052 0.156-0.127 0.265-0.123zM20.856 12.843c0.041-0.001 0.083 0.003 0.124 0.011 0.108 0.021 0.305 0.055 0.38 0.166 0.058 0.012 0.11 0.036 0.149 0.078 0.012 0.013 0.084 0.187 0.087 0.209 0.010 0.118-0.018 0.142-0.103 0.193-0.194 0.116-0.854-0.123-0.786 0.299 0.056 0.351 0.588 0.164 0.78 0.108 0.201-0.058 0.308 0.057 0.191 0.248-0.042 0.067-0.102 0.088-0.154 0.129-0.029 0.024-0.101 0.099-0.133 0.116-0.134 0.070-0.324 0.034-0.478 0.034-0.195 0.002-0.262-0.044-0.424-0.131-0.105-0.056-0.199-0.111-0.273-0.223-0.076-0.117-0.169-0.253-0.187-0.394-0.048-0.406 0.202-0.567 0.476-0.734 0.107-0.066 0.228-0.106 0.352-0.109zM15.489 13.56c0.041-0.001 0.083 0.003 0.124 0.011 0.108 0.021 0.305 0.055 0.38 0.166 0.058 0.012 0.11 0.036 0.149 0.078 0.012 0.013 0.084 0.187 0.087 0.209 0.010 0.118-0.018 0.142-0.103 0.193-0.194 0.116-0.854-0.123-0.786 0.299 0.056 0.351 0.588 0.164 0.78 0.108 0.201-0.058 0.308 0.057 0.191 0.248-0.042 0.067-0.102 0.088-0.154 0.129-0.029 0.024-0.101 0.099-0.132 0.116-0.136 0.070-0.324 0.034-0.478 0.034-0.195 0.002-0.262-0.044-0.425-0.131-0.105-0.056-0.199-0.111-0.273-0.223-0.076-0.117-0.169-0.254-0.187-0.394-0.048-0.406 0.202-0.567 0.476-0.734 0.107-0.066 0.228-0.106 0.352-0.109zM18.754 16.661c0.040 0.069 0.103 0.035 0.165 0.054 0.067 0.020 0.152 0.061 0.213 0.099 0.141 0.092 0.234 0.161 0.31 0.314 0.062 0.124 0.11 0.241 0.178 0.356 0.079 0.13 0.153 0.25 0.217 0.391 0.121 0.268 0.244 0.534 0.38 0.803 0.078 0.155 0.126 0.312 0.178 0.477 0.057 0.179 0.054 0.353 0.121 0.537 0.058 0.16 0.033 0.318 0.089 0.477 0.074 0.214 0.115 0.432 0.164 0.652 0.070 0.303 0.029 0.649 0.029 0.962 0.001 0.068 0.019 0.173 0.004 0.238-0.012 0.049-0.055 0.065-0.067 0.114-0.018 0.079 0.012 0.16-0.009 0.242-0.022 0.081-0.026 0.16-0.044 0.241-0.024 0.113-0.094 0.233-0.121 0.352-0.039 0.17-0.115 0.302-0.187 0.449-0.116 0.237-0.259 0.478-0.411 0.686-0.156 0.216-0.341 0.484-0.584 0.591-0.077-0.263-0.032-0.695 0.034-0.949 0.021-0.079 0.011-0.152 0.012-0.235 0.002-0.125 0.044-0.226 0.063-0.348 0.017-0.103 0.047-0.209 0.062-0.314 0.010-0.076-0.019-0.159-0.006-0.234 0.033-0.201 0.067-0.404 0.11-0.602 0.035-0.168 0.074-0.357 0.072-0.531-0.002-0.2 0-0.401 0-0.602 0-0.078 0.001-0.156 0-0.236-0.001-0.115-0.034-0.187-0.053-0.297-0.016-0.087-0.031-0.156-0.052-0.239-0.022-0.082 0.003-0.157-0.011-0.239-0.033-0.193-0.124-0.379-0.177-0.567-0.075-0.271-0.125-0.584-0.302-0.829-0.155-0.213-0.432-0.393-0.686-0.392-0.313 0.002-0.518 0.105-0.744 0.335-0.096 0.098-0.205 0.188-0.299 0.291-0.106 0.115-0.186 0.248-0.298 0.358-0.098 0.096-0.218 0.224-0.241 0.356-0.007 0.041 0.012 0.085 0.004 0.124-0.008 0.041-0.042 0.073-0.048 0.1-0.017 0.075 0 0.16-0.014 0.236 0.013-0.016 0.031-0.038 0.060-0.070l0-0c-0.003 0.155 0.102 0.258 0.048 0.419-0.058 0.172-0.197 0.2-0.346 0.235-0.152 0.036-0.301 0.106-0.464 0.050-0.1-0.035-0.269-0.18-0.329-0.272-0.148-0.226-0.138-0.641-0.103-0.91 0.033-0.26 0.269-0.444 0.421-0.654 0.162-0.226 0.382-0.452 0.592-0.641 0.218-0.195 0.404-0.465 0.673-0.597 0.249-0.121 0.461-0.275 0.656-0.477 0.094-0.097 0.224-0.151 0.339-0.21 0.13-0.067 0.281-0.044 0.405-0.093zM11.794 16.939c0.212 0.006 0.415 0.173 0.593 0.249 0.45 0.191 0.788 0.554 1.196 0.805 0.229 0.141 0.459 0.286 0.681 0.447 0.181 0.131 0.397 0.274 0.556 0.432 0.206 0.203 0.245 0.54 0.197 0.82-0.051 0.297-0.216 0.549-0.509 0.627-0.191 0.051-0.657 0.097-0.822-0.015-0.097-0.065-0.207-0.199-0.225-0.314-0.025-0.147 0.064-0.22 0.074-0.346 0.016-0.004 0.032-0.008 0.048-0.011l0-0c-0.059 0.002-0.037-0.197-0.089-0.358-0.053-0.164-0.093-0.358-0.187-0.507-0.111-0.176-0.24-0.229-0.381-0.362-0.15-0.141-0.225-0.316-0.446-0.324-0.088-0.002-0.182-0.005-0.269-0.001-0.091 0.005-0.151 0.050-0.239 0.065-0.138 0.022-0.279 0.005-0.389 0.114-0.101 0.099-0.164 0.341-0.207 0.476-0.032 0.098-0.081 0.204-0.107 0.301-0.024 0.089 0.001 0.175-0.018 0.264-0.021 0.101-0.042 0.169-0.052 0.274-0.009 0.090-0.046 0.097-0.065 0.174s0.022 0.166 0.006 0.242c-0.016 0.075-0.056 0.131-0.066 0.209-0.011 0.103-0.002 0.142-0.041 0.236-0.040 0.097-0.072 0.168-0.077 0.271-0.008 0.158-0.059 0.286-0.058 0.445 0.002 0.206-0.023 0.425-0.001 0.63 0.009 0.084 0.048 0.136 0.064 0.22 0.016 0.087-0.011 0.168 0.010 0.256 0.045 0.175 0.079 0.344 0.119 0.524 0.020 0.087 0.033 0.198 0.058 0.283 0.023 0.077 0.093 0.131 0.124 0.202 0.047 0.107 0.032 0.21 0.1 0.304 0.055 0.078 0.12 0.16 0.179 0.237 0.053 0.068 0.118 0.183 0.177 0.242 0.074 0.073 0.132 0.092 0.196 0.174 0.194 0.253 0.696 0.689 0.572 1.055-0.080-0.102-0.176-0.227-0.3-0.266-0.155-0.048-0.306-0.043-0.463-0.069-0.141-0.024-0.366-0.075-0.465-0.183-0.053-0.057-0.061-0.12-0.1-0.18-0.033-0.050-0.091-0.095-0.127-0.145-0.195-0.266-0.269-0.572-0.318-0.868-0.025-0.147-0.081-0.321-0.138-0.463-0.026-0.067-0.072-0.148-0.104-0.217-0.034-0.076-0.034-0.1-0.058-0.186-0.038-0.136-0.061-0.228-0.061-0.386v-0.895c0-0.125-0.032-0.299-0.003-0.42 0.016-0.068 0.054-0.096 0.064-0.173 0.010-0.087-0.016-0.175 0.004-0.261 0.014-0.058 0.047-0.088 0.055-0.158 0.008-0.068-0.019-0.147-0.003-0.213 0.019-0.081 0.050-0.119 0.064-0.206 0.009-0.065-0.002-0.126 0.012-0.193 0.018-0.087 0.072-0.167 0.093-0.239 0.018-0.066 0.004-0.127 0.018-0.195 0.030-0.148 0.093-0.3 0.128-0.448 0.037-0.158 0.101-0.322 0.15-0.477 0.094-0.296 0.157-0.592 0.268-0.881 0.092-0.238 0.223-0.556 0.49-0.612 0.030-0.006 0.061-0.009 0.091-0.008zM17.459 21.302l0 0c0.105 0.038 0.195 0.125 0.282 0.194 0.089 0.070 0.198 0.115 0.27 0.205 0.179 0.228 0.277 0.677 0.285 0.961 0.006 0.286 0.008 0.534-0.121 0.786-0.117 0.232-0.278 0.436-0.358 0.688-0.031 0.098-0.081 0.196-0.126 0.293-0.026 0.058-0.063 0.122-0.084 0.181-0.031 0.083-0.015 0.152-0.032 0.234-0.014 0.057-0.048 0.084-0.056 0.152-0.009 0.067 0.001 0.144 0.001 0.211 0 0.139-0.005 0.279 0 0.417 0.004 0.145 0.074 0.251 0.106 0.388 0.016 0.067 0.017 0.119 0.041 0.178 0.028 0.069 0.095 0.135 0.123 0.209 0.108 0.286 0.299 0.538 0.38 0.829 0.043 0.157 0.138 0.284 0.127 0.453-0.009 0.132-0.070 0.345-0.135 0.464-0.142 0.263-0.492 0.49-0.75 0.604-0.089-0.261 0.11-0.481 0.107-0.739-0.002-0.266-0.001-0.504-0.089-0.746-0.096-0.266-0.298-0.472-0.447-0.715-0.082-0.133-0.179-0.256-0.262-0.387-0.089-0.142-0.145-0.304-0.216-0.453-0.11-0.228-0.102-0.7-0.055-0.951 0.031-0.167 0.149-0.32 0.236-0.462 0.086-0.14 0.144-0.293 0.253-0.418 0.185-0.213 0.395-0.435 0.456-0.702 0.069-0.303-0.035-0.577-0.181-0.826-0.122-0.209-0.478-0.223-0.533-0.48-0.030-0.142 0.092-0.29 0.179-0.389 0.133-0.151 0.233-0.176 0.6-0.179zM14.989 21.478c0.174 0 0.289 0.094 0.561 0.121l0 0c-0.217-0.004-0.118 0.735-0.090 0.862 0.037 0.17 0.104 0.368 0.207 0.512 0.073 0.103 0.19 0.212 0.235 0.331 0.040 0.105 0.058 0.207 0.064 0.322 0.003 0.075 0.058 0.146 0.058 0.211 0 0.072-0.044 0.077-0.061 0.144-0.014 0.058 0.021 0.127 0.006 0.185-0.012 0.053-0.049 0.091-0.064 0.145-0.015 0.049-0.014 0.103-0.028 0.15-0.020 0.067-0.062 0.141-0.090 0.209-0.045 0.108-0.087 0.21-0.135 0.314-0.024 0.053-0.029 0.073-0.045 0.134-0.014 0.055-0.043 0.106-0.054 0.154-0.055 0.239-0.005 0.554-0.005 0.8 0 0.268 0.012 0.497 0.065 0.741 0.019 0.088 0.072 0.212 0.115 0.304 0.042 0.091 0.041 0.128 0.056 0.22 0.021 0.123 0.099 0.217 0.119 0.339 0.020 0.118-0.023 0.23 0.038 0.332 0.049 0.081 0.073 0.042 0.085 0.151 0.021 0.165-0.014 0.298-0.054 0.448-0.066 0.242-0.177 0.578-0.415 0.727-0.033-0.117 0.008-0.248-0.006-0.369-0.009-0.080-0.052-0.142-0.065-0.222-0.015-0.091 0.012-0.178-0.010-0.268-0.067-0.264-0.093-0.53-0.26-0.764-0.187-0.262-0.327-0.541-0.442-0.838-0.139-0.363-0.166-0.795-0.122-1.187 0.019-0.169 0.081-0.31 0.168-0.447 0.039-0.061 0.054-0.13 0.086-0.193 0.059-0.12 0.154-0.207 0.213-0.328 0.032-0.065 0.022-0.123 0.071-0.187 0.022-0.027 0.070-0.045 0.088-0.071 0.025-0.037 0.058-0.089 0.078-0.131 0.041-0.085 0.117-0.194 0.138-0.281 0.029-0.121-0.046-0.281-0.091-0.391-0.061-0.147-0.189-0.26-0.326-0.328-0.119-0.057-0.223-0.071-0.332-0.149-0.126-0.092-0.223-0.161-0.306-0.298-0.179-0.299-0.090-0.741 0.095-1.028 0.123-0.19 0.181-0.358 0.419-0.373 0.012-0.001 0.024-0.001 0.036-0.001zM13.403 21.539l0.001 0c-0.118 0.115-0.239 0.255-0.286 0.417-0.021 0.071-0.002 0.139-0.018 0.209-0.020 0.093-0.053 0.142-0.055 0.239-0.003 0.15-0.012 0.281 0.058 0.415 0.095 0.181 0.187 0.328 0.301 0.492 0.079 0.113 0.14 0.22 0.223 0.326 0.077 0.1 0.148 0.233 0.195 0.344 0.050 0.12 0.024 0.236 0.054 0.363 0.014 0.058 0.052 0.083 0.066 0.144 0.015 0.070-0.002 0.169-0.002 0.241 0 0.068 0.010 0.143 0.001 0.21-0.009 0.073-0.038 0.091-0.055 0.153-0.042 0.146-0.066 0.24-0.142 0.366-0.106 0.176-0.206 0.349-0.37 0.493-0.187 0.163-0.404 0.282-0.582 0.462-0.085 0.086-0.179 0.15-0.24 0.252-0.069 0.115-0.192 0.293-0.225 0.415-0.020 0.071 0.009 0.168 0.004 0.242-0.005 0.090-0.049 0.151-0.064 0.239-0.022 0.122-0.017 0.346 0.016 0.463 0.006 0.021 0.043 0.040 0.050 0.070 0.009 0.040-0.015 0.087-0.006 0.126 0.010 0.050 0.068 0.129 0.093 0.175 0.055 0.105 0.181 0.291 0.138 0.411-0.096-0.013-0.162-0.159-0.21-0.231-0.092-0.137-0.22-0.252-0.316-0.389-0.222-0.318-0.396-0.655-0.419-1.045-0.017-0.29-0.003-0.568 0.178-0.8 0.096-0.124 0.22-0.276 0.359-0.349 0.125-0.066 0.273-0.091 0.396-0.153 0.277-0.142 0.442-0.279 0.44-0.604-0.001-0.135 0.020-0.288-0.014-0.417-0.021-0.080-0.041-0.121-0.046-0.21-0.005-0.081-0.040-0.118-0.055-0.184-0.016-0.067 0.008-0.137-0.002-0.203-0.012-0.079-0.062-0.145-0.099-0.215-0.102-0.191-0.253-0.321-0.369-0.501-0.177-0.276-0.311-0.538-0.445-0.835-0.146-0.321 0.103-0.564 0.285-0.805 0.094-0.124 0.238-0.191 0.388-0.239 0.104-0.032 0.365-0.079 0.457 0.016-0.014 0.005-0.027 0.011 0.318-0.104z"></path>
</svg>
