<!-- Generated by IcoMoon.io -->
<svg version="1.1" xmlns="http://www.w3.org/2000/svg" width="32" height="32" viewBox="0 0 32 32">
<title>return_to_the_gathering</title>
<path d="M29.302 12.912c0.005 0.013 0.005 0.021 0.006 0.027l-0.063-0.104c0.018 0.024 0.035 0.049 0.056 0.077zM23.047 27.978c0.025-0.017 0.053-0.037 0.085-0.059 0.021-0.016 0.044-0.033 0.070-0.052 0.001-0.004 0.005-0.010 0.006-0.012-0.002 0.014-0.006 0.028-0.018 0.044-0.028 0.023-0.045 0.036-0.070 0.050-0.031 0.020-0.053 0.031-0.068 0.038-0.021 0.002-0.033 0.002-0.041 0 0.008-0.002 0.020-0.005 0.036-0.010zM20.925 25.672c-0.080 0.118-0.221 0.306-0.383 0.244-0.097-0.036-0.233-0.131-0.311-0.193-0.176-0.141-0.335-0.381-0.46-0.56-0.269-0.383-0.479-0.782-0.847-1.082-0.092-0.074-0.265-0.347-0.286-0.379-0.162-0.231-0.313-0.473-0.48-0.701-0.301-0.414-0.616-0.819-0.92-1.231-0.496-0.676-1.030-1.319-1.393-2.080-0.367-0.768-0.714-1.551-1.128-2.296-0.356-0.641-0.89-1.123-1.274-1.74-0.15-0.242-0.242-0.421-0.216-0.7-0.087 0.261-0.082-0.028-0.135-0.115-0.054-0.092-0.135-0.147-0.172-0.252-0.064-0.176-0.032-0.492 0.033-0.669 0.139-0.373 0.649-0.451 0.994-0.417 0.311 0.031 0.651 0.174 0.922 0.323 0.108 0.061 0.254 0.104 0.343 0.195 0.056 0.058 0.074 0.122 0.113 0.188 0.042 0.071 0.096 0.13 0.144 0.196 0.097 0.14 0.16 0.298 0.253 0.44 0.063 0.096 0.135 0.183 0.2 0.276 0.18 0.263 0.322 0.532 0.463 0.815 0.188 0.377 0.46 0.712 0.614 1.104 0.126 0.324 0.21 0.664 0.349 0.983 0.138 0.317 0.301 0.636 0.462 0.944 0.356 0.68 0.712 1.353 1.030 2.052 0.276 0.605 0.549 1.293 1.002 1.791 0.185 0.203 0.307 0.403 0.426 0.649 0.118 0.248 0.27 0.464 0.343 0.731 0.070 0.249 0.145 0.479 0.269 0.707 0.058 0.104 0.168 0.234 0.193 0.355 0.031 0.157-0.061 0.3-0.145 0.421zM12.7 9.985c-0.128-0.133-0.228-0.261-0.332-0.41-0.064-0.091-0.14-0.255-0.233-0.307-0.061 0.146-0.053 0.319-0.103 0.47-0.050 0.155-0.135 0.297-0.173 0.454-0.077 0.318-0.108 0.641-0.18 0.96-0.091 0.388-0.111 0.745-0.111 1.138 0 0.145 0.023 0.3 0.002 0.443-0.012 0.094-0.059 0.169-0.066 0.266-0.026 0.307-0.033 0.576 0.147 0.85 0.145 0.222 0.201 0.475 0.158 0.727-0.037 0.216-0.085 0.412-0.050 0.633 0.027 0.171 0.080 0.339 0.109 0.51 0.026 0.144 0.033 0.297 0.117 0.429 0.097 0.151 0.264 0.255 0.394 0.384 0.145 0.142-0.322 0.204-0.552-0.013-0.224-0.212-0.447-0.415-0.736-0.57-0.233-0.125-0.349-0.354-0.473-0.555-0.13-0.214-0.101-0.513-0.146-0.75-0.029-0.041-0.060-0.080-0.085-0.122-0.052-0.083-0.074-0.177-0.139-0.255-0.070-0.085-0.164-0.145-0.231-0.237-0.087-0.124-0.114-0.257-0.162-0.392-0.055-0.157-0.145-0.282-0.237-0.426-0.179-0.279-0.227-0.603-0.296-0.91-0.065-0.293-0.134-0.641-0.045-0.936 0.029-0.097 0.095-0.165 0.146-0.25 0.139-0.233 0.096-0.581 0.052-0.819-0.075-0.401-0.064-0.803 0.058-1.199 0.061-0.2 0.118-0.404 0.183-0.604 0.023-0.069 0.056-0.241 0.173-0.246 0.021 0.205 0.141 0.387 0.19 0.598 0.066 0.295 0.033 0.577 0.185 0.847 0.069 0.124 0.123 0.254 0.172 0.385 0.039-0.112 0.076-0.225 0.093-0.332 0.045-0.258 0.037-0.53 0.053-0.791 0.015-0.221-0.016-0.489 0.075-0.697 0.044-0.103 0.081-0.233 0.152-0.323 0.111-0.139 0.183-0.237 0.223-0.412 0.088-0.379 0.247-0.734 0.315-1.116 0.036-0.197 0.042-0.454 0.212-0.608 0.026-0.024 0.097-0.088 0.135-0.091 0.115-0.009 0.074 0.083 0.087 0.152 0.026 0.123 0.111 0.239 0.152 0.359 0.129 0.367-0.082 0.729 0.155 1.089 0.334 0.501 1.231-0.745 1.293-0.851 0.077-0.13 0.101-0.269 0.157-0.405 0.087-0.21 0.193-0.416 0.281-0.626 0.128-0.302 0.18-0.622 0.318-0.923 0.069-0.153 0.211-0.313 0.324-0.447 0.082-0.098 0.182-0.174 0.203 0.006 0.017 0.164-0.039 0.339-0.034 0.506 0.011 0.298 0.061 0.63 0.133 0.924 0.038 0.155 0.128 0.302 0.187 0.452 0.087 0.223 0.131 0.455 0.222 0.678 0.307 0.744 0.42 1.591 0.985 2.25 0.126 0.147 0.279 0.249 0.446 0.358 0.22 0.146 0.33 0.319 0.444 0.527 0.136 0.253 0.168 0.572 0.421 0.771 0.083 0.066 0.182 0.114 0.258 0.187 0.317 0.295 0.532 0.75 0.617 1.131 0.041 0.178 0.031 0.361 0.080 0.539 0.204 0.734 0.091 1.487 0.041 2.233-0.025 0.343-0.11 0.68-0.264 0.987-0.055 0.109-0.147 0.261-0.239 0.351-0.007 0.008-0.28-0.367-0.302-0.4-0.083-0.127-0.164-0.297-0.205-0.438-0.064-0.233-0.168-0.443-0.275-0.665-0.133-0.274-0.243-0.549-0.339-0.831-0.091-0.269-0.145-0.559-0.265-0.819-0.104-0.224-0.258-0.437-0.381-0.654-0.199-0.35-0.275-0.722-0.453-1.077-0.14-0.282-0.332-0.543-0.583-0.767-0.317-0.282-0.399-0.579-0.502-0.97-0.102-0.387-0.148-0.82-0.338-1.186-0.12 0.041-0.131 0.261-0.164 0.355-0.102 0.279-0.21 0.545-0.289 0.829-0.064 0.233-0.124 0.465-0.177 0.701-0.022 0.098-0.066 0.201-0.081 0.3-0.007 0.050 0.009 0.117-0.029 0.157-0.127-0.004-0.19-0.087-0.289-0.141-0.082-0.044-0.155-0.064-0.244-0.096-0.179-0.063-0.228-0.146-0.346-0.269zM29.502 16.007c-0.002 0.090-0.018 0.228-0.050 0.236l-0.016-0.203c-0.006-0.002-0.012-0.005-0.017-0.008v-0.032l-0.14-1.381 0.118-1.008 0.012 0.024-0.006-0.072 0.037-0.308c0.009 0.010 0.016 0.039 0.013 0.102 0.027-0.085 0.033-0.15 0.033-0.19-0.042-0.056-0.076-0.086-0.11-0.196-0.005-0.023 0.004-0.016 0.016 0l-0.134-0.178c0.037 0.028 0.031-0.061 0.091 0.061-0.162-0.363-0.378-0.518-0.403-0.676l0.022 0.026c-0.23-0.344-0.158-0.179-0.226-0.216l-0.038-0.064-0.029-0.174 0.066-0.204-0.066-0.043c-0.008-0.056-0.023-0.167 0.004-0.152-0.076-0.2-0.020 0.041-0.079-0.074 0.006-0.244-0.11-0.611-0.091-0.771-0.005-0.026-0.005-0.044 0.001-0.060-0.042-0.033-0.023 0.020-0.007 0.062 0 0.047 0.001 0.076-0.020 0.006-0.012-0.014-0.026-0.036-0.047-0.065 0.050-0.122-0.177-0.286-0.255-0.528 0.083 0.042 0.172 0.263 0.093 0.021-0.15-0.088-0.215-0.436-0.331-0.613-0.061 0.023-0.257-0.379-0.457-0.673 0.023 0.004-0.163-0.336-0.329-0.646-0.061-0.087-0.12-0.167-0.166-0.229h0.015c-0.096-0.005-0.298-0.276-0.465-0.458 0.039-0.018 0.081 0.005 0.18 0.096l-0.147-0.179c-0.053-0.028-0.107-0.076-0.207-0.187l0.077 0.010c-0.053-0.061-0.097-0.111-0.162-0.182-0.194-0.164-0.382-0.309-0.579-0.538-0.034 0.015 0.037 0.155-0.014 0.162l-0.155-0.149c0.017-0.006 0.044-0.002 0.088 0.033-0.027-0.023-0.107-0.074-0.151-0.133l0.152 0.084c-0.117-0.14-0.096-0.038-0.195-0.141 0.028-0.026-0.058-0.093-0.022-0.101 0.028 0.022 0.080 0.098 0.129 0.127-0.055-0.060-0.114-0.128-0.163-0.189-0.050-0.063-0.080-0.109-0.114-0.163 0.001 0.012-0.004 0.020-0.018 0.020-0.020 0.005-0.070-0.006-0.134-0.038-0.273-0.141-0.070-0.091-0.219-0.192-0.079-0.012-0.238-0.128-0.271-0.080-0.079-0.043-0.080-0.075-0.103-0.104-0.152-0.053-0.658-0.344-0.53-0.206l0.033 0.022c-0.006-0.004-0.015-0.006-0.023-0.010-0.421-0.194-0.813-0.519-1.203-0.759-0.047-0.033-0.092-0.067-0.138-0.102l0.013-0.013c-0.258-0.173-0.552-0.415-0.751-0.518-0.072-0.056-0.15-0.161-0.104-0.156-0.055-0.037-0.099-0.066-0.138-0.091-0.127-0.053-0.19-0.080-0.405-0.215 0.228 0.078-0.060-0.063 0.23 0.088-0.268-0.152-0.317-0.212-0.635-0.313 0.123 0.006-0.179-0.161-0.315-0.212l0.177 0.129c-0.058-0.026-0.112-0.052-0.162-0.079-0.061-0.031-0.122-0.062-0.18-0.092-0.047 0-0.093 0.002-0.141 0.002 0.018-0.022 0.066-0.044 0.11-0.069-0.047-0.002-0.092-0.004-0.138-0.005-0.034 0-0.067-0.001-0.101-0.001-0.066 0-0.13 0.004-0.195 0.008-0.127 0.010-0.248 0.026-0.366 0.044s-0.232 0.034-0.343 0.047c-0.055 0.006-0.11 0.010-0.166 0.012h-0.081l-0.041-0.001c-0.009 0-0.014-0.001-0.021-0.002-0.008-0.006-0.037-0.016-0.068-0.027-0.027-0.010-0.054-0.022-0.082-0.037-0.058 0.006-0.038 0.018 0.007 0.033 0.023 0.006 0.052 0.016 0.080 0.025 0.013 0.005 0.028 0.010 0.041 0.013 0.008 0.001 0.015 0.005 0.021 0.009 0.022 0.006 0.043 0.016 0.008 0.034h-0.012l-0.091-0.026c-0.033-0.011-0.067-0.021-0.101-0.032-0.066-0.022-0.129-0.047-0.184-0.070-0.114-0.044-0.204-0.085-0.248-0.092-0.36-0.102-0.371 0.010-0.721-0.060-0.022-0.002-0.050-0.006-0.080-0.008 0.052 0.027 0.097 0.092-0.215 0.092-0.289-0.029-0.347-0.123-0.163-0.129 0.069 0.004 0.102 0.013 0.097 0.021 0.095-0.001 0.217-0.002 0.106-0.037l-0.039 0.021c-0.141-0.033-0.54-0.059-0.443-0.091-0.22 0.006-0.097 0.032 0.065 0.055-0.14-0.023-0.258-0.033-0.369-0.042-0.107-0.006-0.21-0.015-0.327-0.023-0.033-0.006-0.066-0.016-0.102-0.025-0.041-0.011-0.082-0.023-0.127-0.035 0.056 0.026 0.106 0.065 0.045 0.050-0.541-0.151-0.25-0.010-0.624-0.085-0.203-0.082 0.095-0.065-0.285-0.12-0.224-0.075-0.034-0.071 0.060-0.069-0.067-0.006-0.13-0.017-0.192-0.028-0.031-0.006-0.061-0.015-0.090-0.021-0.045-0.012-0.090-0.023-0.133-0.034-0.039 0.006-0.079 0.012-0.117 0.018-0.023 0.002-0.045 0.005-0.067 0.006-0.044 0.004-0.087 0.007-0.127 0.010-0.081 0.006-0.152 0.012-0.214 0.022l0.177-0.054c-0.106 0.032-0.194 0.050-0.284 0.068l0.112 0.026c-0.107 0.012-0.197 0.031-0.198 0.011-0.104 0.052 0.097 0.059-0.111 0.142-0.145 0.006-0.424 0.112-0.485 0.063 0.447-0.070-0.060-0.052 0.312-0.136-0.070 0.021-0.158 0.038-0.266 0.053-0.017-0.004 0.012-0.016 0.041-0.026-0.058 0.005-0.102 0.010-0.139 0.015-0.018 0.004-0.036 0.006-0.049 0.010-0.027 0.005-0.049 0.011-0.070 0.016-0.026 0.015-0.052 0.028-0.064 0.038-0.009 0.008-0.018 0.016-0.026 0.025-0.014 0.015-0.027 0.031-0.043 0.050-0.036 0.037-0.095 0.082-0.244 0.151 0.037-0.055-0.122-0.016-0.185 0.023 0.165-0.077 0.103 0.015-0.036 0.109-0.271 0.097-0.274 0.151-0.411 0.211l0.161-0.060c-0.039 0.055-0.171 0.112-0.347 0.208-0.027-0.018 0.156-0.094 0.087-0.076-0.038 0.034-0.098 0.066-0.136 0.082-0.167 0.046-0.408 0.049-0.621 0.146-0.145 0.020-0.033-0.059-0.158-0.037-0.139 0.063-0.227 0.082-0.312 0.096-0.042 0.006-0.082 0.013-0.128 0.022-0.022 0.005-0.044 0.010-0.071 0.016-0.012 0.004-0.025 0.006-0.039 0.011-0.022 0.006-0.047 0.014-0.071 0.021-0.072 0.043-0.088 0.056-0.133 0.087 0.113-0.012 0.124-0.031-0.076 0.136l0.238-0.153 0.339-0.122-0.152 0.077-0.078 0.039-0.038 0.018-0.053 0.025c-0.017 0.012-0.041 0.029-0.052 0.039 0.017-0.011 0.036-0.022 0.055-0.032 0.064-0.021 0.090-0.032 0.133-0.047 0.041-0.015 0.079-0.029 0.114-0.043 0.072-0.028 0.138-0.052 0.185-0.063-0.164 0.088-0.15 0.072-0.055 0.085-0.13 0.004-0.227 0.042-0.366 0.096-0.126 0.088-0.221 0.162-0.363 0.218l-0.050-0.106c-0.157 0.069-0.289 0.15-0.42 0.239-0.066 0.045-0.133 0.092-0.204 0.139-0.034 0.025-0.070 0.049-0.107 0.075l-0.056 0.037c-0.023 0.015-0.048 0.029-0.071 0.044-0.043 0.037-0.086 0.074-0.133 0.113-0.042 0.034-0.087 0.071-0.135 0.108l0.15-0.101c-0.027 0.084-0.261 0.226-0.388 0.357-0.011-0.041-0.107 0.021-0.182 0.053 0.025 0.015-0.317 0.26-0.307 0.351l-0.037 0.020c-0.011 0.006-0.016 0.006-0.023 0.010-0.009 0.001-0.013 0-0.026 0.004l-0.041 0.010-0.082 0.023c-0.415 0.184-0.412 0.328-0.808 0.512 0.099-0.096-0.090-0.032 0.157-0.19-0.13 0.066-0.25 0.118-0.241 0.142-0.021 0.005-0.054 0.022-0.093 0.044-0.048 0.028-0.104 0.065-0.165 0.101-0.033 0.056-0.069 0.114-0.101 0.168-0.026 0.041-0.053 0.075-0.080 0.098-0.020 0.059 0.001 0.098-0.093 0.231-0.016 0.011-0.015-0.010-0.015-0.010 0.015 0.010-0.123 0.223-0.007 0.131-0.161 0.135-0.335 0.386-0.481 0.603-0.218 0.209-0.462 0.447-0.647 0.544-0.13 0.129-0.274 0.271-0.403 0.399-0.088 0.144-0.168 0.271-0.237 0.384 0-0.022-0.016-0.011 0.017-0.055-0.244 0.314-0.039 0.265-0.315 0.624-0.177 0.158 0.099-0.22 0.003-0.113-0.139-0.016-0.279 0.468-0.517 0.673l0.036-0.065c-0.167 0.167-0.282 0.492-0.505 0.799 0 0 0.001-0.022-0.015-0.014-0.008 0.020-0.011 0.031-0.027 0.060-0.012 0.027-0.029 0.055-0.047 0.090 0.001 0.077 0.002 0.166 0.002 0.259 0 0.081-0.001 0.167-0.002 0.254-0.007 0.174-0.016 0.355-0.023 0.512-0.038-0.118-0.010-0.168-0.066-0.104-0.010 0.164 0.085-0.039 0.066 0.287-0.014 0.034-0.026 0.083-0.042 0.135-0.015 0.048-0.031 0.107-0.045 0.127-0.022 0.020-0.049 0.044-0.069 0.048l0.025-0.060 0.018-0.197c-0.017 0.032-0.029 0.065-0.037 0.101-0.005 0.020-0.007 0.037-0.009 0.056-0.002 0.018-0.002 0.020-0.002 0.031l-0.006 0.020-0.013 0.039c-0.008 0.028-0.018 0.056-0.028 0.085-0.018 0.055-0.037 0.108-0.060 0.151l-0.020-0.031c-0.18 0.436-0.114 0.473-0.323 0.934l0.043-0.038c-0.009 0.071-0.022 0.115-0.042 0.161-0.017 0.133-0.076 0.139-0.065 0.354l-0.088 0.072c-0.009 0.185-0.020 0.636-0.055 0.976v0.002c0 0 0-0.001-0.001-0.002-0.026-0.206-0.001-0.579 0.001-0.821-0.027 0.179-0.085 0.611-0.060 0.71 0.002-0.074-0.002-0.167 0.020-0.237 0.011 0.104 0.018 0.2 0.011 0.347 0.036 0.177 0.059 0.343 0.079 0.55-0.113-0.039-0.033 0.491-0.020 0.859-0.009 0.125-0.028 0.264-0.061 0.33 0.011 0.174 0.012 0.346 0.008 0.521-0.003 0.087-0.007 0.174-0.011 0.263-0.005 0.093-0.010 0.187-0.015 0.282 0.015 0.157 0.031 0.318 0.045 0.482 0.016 0.158 0.034 0.323 0.059 0.492 0.081-0.277 0.031 0.216 0.142 0.153 0.029 0.168 0.037 0.235 0.031 0.252l0.001-0.035c-0.001 0.017-0.001 0.024-0.001 0.038l0.008 0.53c-0.017 0.128-0.052-0.16-0.076-0.141 0.048 0.378-0.026 0.166-0.020 0.419 0.034-0.056 0.080 0.123 0.096 0.34l0.009-0.311c0.045 0.163 0.059 0.27 0.060 0.356 0.001 0.043 0 0.081-0.002 0.119l-0.003 0.054c-0.002 0.014 0.001 0.063 0.002 0.095 0.036 0.096 0.041 0.122 0.069 0.187 0.027 0.060 0.063 0.129 0.114 0.214l-0.104-0.139c0.122 0.218 0.355 0.767 0.554 1.052 0.041 0.052 0.056 0.063 0.085 0.088 0.011 0.049 0.016 0.12-0.052 0.020 0.158 0.288 0.365 0.593 0.559 0.883 0.093 0.147 0.189 0.286 0.28 0.415 0.088 0.131 0.164 0.255 0.222 0.371l-0.052-0.027c0.075 0.099 0.164 0.151 0.223 0.296-0.015 0-0.053-0.027-0.022 0.022 0.018 0.022 0.060 0.069 0.111 0.126 0.023 0.029 0.049 0.063 0.074 0.095 0.028 0.034 0.043 0.058 0.085 0.12 0.017 0.017 0.034 0.032 0.049 0.047 0.010 0.010 0.018 0.020 0.027 0.028l-0.036-0.020-0.058-0.041c-0.021-0.022-0.048-0.055-0.059-0.064 0.016 0.027 0.031 0.053 0.045 0.076 0.060 0.056 0.117 0.11 0.172 0.163 0.048 0.044 0.096 0.085 0.142 0.123 0.092 0.077 0.182 0.145 0.27 0.207 0.174 0.126 0.352 0.248 0.532 0.395 0.012 0.012 0.027 0.025 0.039 0.038-0.064 0.058 0.257 0.448 0.416 0.642l-0.016 0.001c0.071 0.076 0.138 0.149 0.203 0.219 0.071 0.072 0.139 0.145 0.206 0.212 0.421 0.306 0.738 0.494 1.166 0.802l0.005 0.004c0.329 0.312 1.212 0.809 1.794 1.198-0.083-0.067 0.049-0.049 0.158 0.005 0.133 0.097 0.417 0.174 0.357 0.23l-0.050-0.029c0.067 0.136 0.38 0.258 0.611 0.378l0.086-0.071c0.087 0.070 0.19 0.139 0.301 0.204 0.055 0.032 0.113 0.064 0.172 0.095 0.064 0.033 0.129 0.066 0.195 0.099l0.217 0.065c0.066 0.020 0.135 0.038 0.2 0.058 0.131 0.038 0.26 0.074 0.378 0.108 0.237 0.071 0.431 0.14 0.538 0.222 0.007 0.001 0.013 0.004 0.021 0.005 0.183 0.018 0.36 0.059 0.524 0.071l-0.020 0.052c0.163 0.042 0.297 0.077 0.432 0.113 0.068 0.016 0.136 0.033 0.21 0.052 0.081 0.017 0.168 0.038 0.265 0.060 0.077-0.001 0.207-0.001 0.361-0.003l-0.114 0.038c0.315 0.008 0.4-0.153 0.692-0.152l0.086 0.082 0.209 0.006 0.242 0.010 0.334-0.082 0.301-0.079c0.198-0.054 0.394-0.118 0.582-0.201-0.005 0.015-0.013 0.042-0.098 0.069 0.066-0.016 0.169-0.043 0.28-0.070-0.002 0.001 0.022-0.002 0.041-0.005l0.059-0.006c0.039-0.006 0.077-0.010 0.114-0.015 0.076-0.009 0.147-0.022 0.206-0.035 0.119-0.023 0.189-0.053 0.15-0.088 0.008 0.033 0.124 0.020 0.277-0.010 0.075-0.016 0.16-0.036 0.244-0.055 0.042-0.012 0.085-0.022 0.125-0.032 0.021-0.005 0.041-0.009 0.061-0.015 0.020-0.006 0.041-0.012 0.044-0.013l0.009-0.002 0.025-0.001c0.014-0.002 0.028-0.004 0.043-0.005l-0.047 0.053c0.252-0.068 0.26-0.087 0.611-0.103 0.082 0.006 0.073 0.044-0.038 0.029 0.276 0.029 0.216-0.050 0.552-0.020l-0.125 0.034c0.136 0.002 0.201 0 0.252-0.009 0.025-0.004 0.044-0.009 0.069-0.016 0.032-0.006 0.066-0.014 0.114-0.023 0.002-0.002 0.007-0.008 0.013-0.015 0.026-0.017 0.054-0.035 0.082-0.055 0.025-0.012 0.048-0.028 0.075-0.043 0.052-0.029 0.108-0.058 0.162-0.084 0.108-0.048 0.206-0.081 0.236-0.071 0.018-0.046 0.133-0.158 0.285-0.232 0.029 0.005-0.018 0.045-0.041 0.066 0.098-0.048 0.183-0.096 0.257-0.142 0.037-0.023 0.071-0.047 0.104-0.069s0.070-0.047 0.080-0.056c0.015-0.008 0.068-0.027 0.103-0.041 0.039-0.013 0.077-0.026 0.117-0.039 0.078-0.026 0.157-0.044 0.247-0.055 0.012 0.017 0.034 0.020 0.061 0.017-0.219 0.059-0.41 0.112-0.518 0.141-0.022 0.012-0.041 0.022-0.050 0.028-0.015 0.009-0.021 0.012-0.017 0.006 0.006 0.021 0.079-0.005 0.086 0.006 0.006 0.001 0.012 0.004 0.016 0.006 0.006 0.004 0.017 0.005 0.021 0.010 0.012 0.008-0.017 0.028-0.012 0.043 0 0.004 0.001 0.009 0.002 0.015v-0.006c0.003-0.004-0.003-0.004 0.009-0.012 0.016-0.007 0.031-0.015 0.047-0.021 0.032-0.016 0.066-0.032 0.102-0.048 0.070-0.031 0.146-0.065 0.223-0.099 0.152-0.064 0.313-0.123 0.454-0.15 0.015 0 0.029 0.001 0.042 0.005l-0.027 0.013c0.066-0.013 0.125-0.034 0.179-0.058 0.092-0.018 0.152-0.029 0.241-0.053 0.005 0.006 0.045 0.004 0.103-0.008 0.032-0.020 0.072-0.044 0.117-0.071 0.029-0.020 0.064-0.042 0.098-0.065 0.067-0.046 0.136-0.093 0.185-0.127-0.042-0.038 0.13-0.142-0.052-0.075 0.023-0.012-0.020 0.020-0.102 0.079-0.020 0.015-0.041 0.029-0.052 0.041 0.001-0.002 0.003-0.006 0.006-0.010l-0.233 0.16-0.144 0.042c0.034-0.020 0.069-0.039 0.135-0.064 0.054-0.044 0.085-0.069 0.125-0.097 0.039-0.026 0.085-0.052 0.136-0.074 0.045-0.073 0.097-0.152 0.128-0.193 0.216-0.052 0.575-0.242 0.647-0.233 0.067-0.050 0.137-0.103 0.212-0.158 0.080-0.075 0.162-0.151 0.244-0.228 0.077-0.075 0.153-0.148 0.227-0.22 0.141-0.144 0.263-0.279 0.327-0.39 0.091-0.097 0.134-0.077 0.182-0.098-0.050 0.059-0.12 0.117-0.142 0.156 0.058-0.061 0.124-0.124 0.212-0.206 0.174-0.196 0.346-0.389 0.341-0.459 0.254-0.22-0.080 0.183 0.226-0.158l-0.026 0.059c0.091-0.074 0.173-0.15 0.248-0.226 0.037-0.038 0.072-0.076 0.109-0.114 0.042-0.045 0.082-0.092 0.123-0.137 0.042-0.101 0.050-0.133 0.072-0.193l0.055-0.164c0.035-0.11 0.071-0.22 0.107-0.331 0.037-0.11 0.075-0.224 0.12-0.339 0.023-0.058 0.047-0.115 0.075-0.174 0.023-0.056 0.058-0.129 0.077-0.164 0.042-0.033 0.086-0.070 0.13-0.107 0.050-0.039 0.103-0.079 0.158-0.118-0.055 0.042-0.085 0.063-0.102 0.064 0.145-0.124 0.287-0.254 0.43-0.387l0.211-0.203 0.227-0.221 0.286-0.668c0.093-0.221 0.182-0.421 0.286-0.652 0.076-0.318 0.151-0.596 0.244-0.884 0.080-0.269 0.063-0.35 0.059-0.484 0.001-0.012 0.001-0.020 0.008-0.042l0.083-0.037 0.088-0.328c0.060-0.161 0.141-0.292 0.228-0.422 0.044-0.065 0.090-0.129 0.135-0.197 0.022-0.034 0.044-0.069 0.068-0.103l0.033-0.055c0.015-0.026 0.031-0.055 0.046-0.082 0.012-0.114 0.017-0.161 0.020-0.242 0.003-0.076 0-0.155-0.006-0.239l-0.046 0.074c0.022-0.214 0.026-0.681 0.069-0.642-0.005-0.022-0.036-0.074-0.009-0.156l0.031-0.004-0.005-0.231-0.031-0.307c0.022-0.409 0.123 0.065 0.128-0.533-0.012-0.224-0.090-0.635-0.11-0.55z"></path>
</svg>
