<!-- Generated by IcoMoon.io -->
<svg version="1.1" xmlns="http://www.w3.org/2000/svg" width="32" height="32" viewBox="0 0 32 32">
<title>return_to_knyan</title>
<path d="M18.516 28.767c-0-0-0-0.001-0.001-0.001-0.003 0.002-0.002 0.002 0.001 0.001z"></path>
<path d="M20.469 27.895c-0.001 0-0.002 0.001-0.005 0.003 0.002-0.002 0.003-0.002 0.005-0.003z"></path>
<path d="M24.624 23.616c0.018-0.012 0.041-0.031 0.076-0.057-0.025 0.018-0.051 0.038-0.076 0.057z"></path>
<path d="M14.368 1.016c-0.050 0.028-0.098 0.054-0.145 0.079-0.032 0.013-0.064 0.028-0.092 0.042-0.058 0.023-0.111 0.048-0.164 0.070-0.104 0.042-0.198 0.078-0.272 0.114l0.165-0.114c-0.1 0.068-0.185 0.113-0.274 0.162l0.125-0.009c-0.108 0.048-0.194 0.094-0.204 0.074-0.089 0.088 0.122 0.032-0.068 0.187-0.075 0.027-0.176 0.090-0.268 0.143-0.047 0.025-0.093 0.046-0.13 0.063-0.020 0.006-0.035 0.013-0.050 0.015-0.009 0-0.015-0.003-0.022-0.011 0.006-0.001 0.036-0.016 0.055-0.026 0.021-0.011 0.039-0.023 0.055-0.029 0.028-0.016 0.044-0.027 0.055-0.035 0.018-0.018 0.006-0.023-0.009-0.024-0.025-0.006-0.057-0.012 0.040-0.076-0.055 0.032-0.118 0.064-0.193 0.098-0.019 0.001 0.009-0.023 0.035-0.040-0.029 0.011-0.074 0.030-0.081 0.031-0.004-0.001-0.004-0.001-0.007 0-0.004-0.001-0.005 0.001-0.005 0.002-0.009 0.002-0.037 0.006-0.048 0.011-0.031 0.009-0.050 0.021-0.077 0.033-0.052 0.024-0.126 0.051-0.334 0.055 0.042-0.026-0.025-0.042-0.097-0.052 0.046 0.019-0.045 0.061-0.18 0.085-0.314-0.021-0.341 0.029-0.505 0.029l0.187 0.009c-0.029 0.019-0.083 0.030-0.154 0.037-0.074 0.005-0.168 0.009-0.279 0.017-0.008 0.002-0.020 0.005-0.029 0.011-0.007-0.005 0.004-0.015 0.026-0.026-0.082 0.031-0.121 0.043-0.186 0.059-0.062 0.010-0.126 0.022-0.193 0.035-0.131 0.024-0.27 0.055-0.404 0.119-0.158 0.024-0.035-0.063-0.173-0.037-0.134 0.064-0.227 0.089-0.31 0.107-0.041 0.009-0.079 0.014-0.121 0.024-0.022 0.004-0.042 0.010-0.066 0.015-0.012 0.004-0.025 0.005-0.037 0.009-0.023 0.006-0.043 0.014-0.066 0.020-0.022 0.013-0.044 0.027-0.068 0.040-0.013 0.007-0.029 0.018-0.044 0.028-0.031 0.020-0.063 0.045-0.097 0.072 0.124-0.018 0.134-0.038-0.081 0.152l0.323-0.222 0.294-0.114-0.13 0.072c-0.050 0.024-0.073 0.040-0.151 0.074-0.059 0.044-0.079 0.068-0.114 0.099 0.040-0.025 0.083-0.054 0.123-0.081 0.043-0.016 0.085-0.033 0.125-0.048 0.038-0.015 0.071-0.030 0.103-0.042 0.067-0.028 0.127-0.049 0.173-0.061-0.179 0.103-0.166 0.085-0.063 0.096-0.056 0.001-0.109 0.011-0.16 0.024-0.025 0.006-0.053 0.016-0.077 0.026l-0.090 0.035c-0.071 0.052-0.142 0.104-0.217 0.16-0.071 0.051-0.147 0.098-0.237 0.134l-0.057-0.11c-0.316 0.145-0.551 0.354-0.842 0.555-0.094 0.051-0.237 0.12-0.38 0.176l0.189-0.063c-0.055 0.079-0.343 0.164-0.514 0.265-0.001-0.045-0.119-0.006-0.208 0.002 0.020 0.025-0.405 0.183-0.426 0.285l-0.074 0.022-0.066 0.048-0.050 0.031-0.096 0.061c-0.373 0.325-0.325 0.477-0.678 0.794 0.072-0.131-0.105-0.002 0.101-0.246-0.114 0.11-0.221 0.201-0.202 0.224-0.019 0.009-0.045 0.033-0.072 0.061-0.029 0.033-0.066 0.075-0.103 0.119-0.034 0.062-0.071 0.13-0.105 0.191-0.032 0.053-0.063 0.1-0.094 0.129-0.023 0.066 0.003 0.108-0.096 0.254-0.012 0.008-0.017 0.001-0.019-0.005-0.003 0.038-0.121 0.234-0.005 0.137-0.084 0.075-0.167 0.174-0.25 0.287-0.042 0.053-0.081 0.113-0.121 0.175-0.038 0.056-0.074 0.113-0.112 0.171-0.064 0.057-0.13 0.117-0.195 0.175-0.068 0.058-0.136 0.117-0.2 0.173-0.131 0.108-0.258 0.198-0.367 0.25-0.14 0.131-0.293 0.275-0.434 0.406-0.068 0.194-0.132 0.372-0.184 0.526-0.005-0.024-0.019-0.009 0.005-0.063-0.186 0.393 0.021 0.29-0.189 0.739-0.151 0.213 0.054-0.257-0.024-0.119-0.044 0.005-0.076 0.051-0.107 0.123-0.015 0.036-0.030 0.080-0.046 0.125-0.011 0.042-0.034 0.108-0.035 0.123-0.004 0.011-0.028 0.048-0.053 0.083l-0.072 0.107c-0.050 0.067-0.104 0.128-0.162 0.175l0.042-0.070c-0.189 0.175-0.326 0.53-0.581 0.858 0 0-0.001-0.024-0.018-0.015-0.006 0.022-0.022 0.057-0.051 0.107-0.015 0.079-0.033 0.169-0.051 0.268-0.019 0.089-0.040 0.185-0.064 0.283-0.048 0.195-0.102 0.398-0.149 0.575-0.013-0.134 0.027-0.18-0.048-0.127-0.048 0.174 0.098-0.022 0.004 0.323-0.028 0.046-0.057 0.101-0.097 0.178-0.036 0.107-0.071 0.19-0.108 0.208l0.031-0.226 0.042-0.129c-0.013 0.016-0.028 0.029-0.038 0.048-0.010 0.016-0.018 0.037-0.033 0.074-0.004 0.025-0.009 0.049-0.015 0.075l-0.011 0.064c-0.004 0.043-0.004 0.086-0.005 0.129-0.004 0.086-0.008 0.169-0.026 0.237l-0.029-0.029c-0.064 0.499 0.012 0.538-0.066 1.044-0.001 0.006-0.005 0.016-0.007 0.026 0.006-0.010 0.014-0.017 0.020-0.024 0.005-0.005 0.011-0.009 0.017-0.018 0.001 0.012 0.001 0.017 0.002 0.022 0 0.276-0.107 0.216-0.119 0.513l-0.105 0.068c-0.031 0.197-0.084 0.701-0.171 1.049 0.004-0.209 0.067-0.627 0.097-0.887-0.033 0.127-0.066 0.325-0.097 0.509 0.012 0.256-0.058 0.566-0.169 0.944-0.044-0.036-0.097 0.055-0.153 0.204-0.028 0.074-0.056 0.164-0.086 0.257-0.034 0.106-0.068 0.217-0.101 0.325 0.005 0.039 0.012 0.078 0.018 0.116 0.002 0.027 0.005 0.052 0.009 0.077 0.005 0.048 0.013 0.098 0.017 0.143 0.005 0.088 0.003 0.161-0.009 0.215 0.045 0.166 0.082 0.335 0.114 0.505 0.015 0.086 0.030 0.172 0.046 0.259 0.013 0.092 0.028 0.182 0.042 0.277 0.058 0.179 0.116 0.363 0.176 0.551 0.060 0.183 0.124 0.372 0.197 0.566 0.021-0.314 0.084 0.222 0.189 0.13 0.031 0.080 0.051 0.135 0.066 0.173 0.004 0.028 0.008 0.067 0.005 0.072v0.002l0.013 0.581c-0.016 0.14-0.057-0.175-0.083-0.152 0.056 0.411-0.026 0.181-0.016 0.457 0.038-0.063 0.087 0.132 0.108 0.369l0.007-0.338c0.076 0.27 0.071 0.382 0.068 0.525 0.010 0.159 0.005 0.273 0.118 0.568l-0.085-0.169c0.039 0.112 0.089 0.302 0.145 0.507 0.031 0.103 0.061 0.209 0.090 0.312 0.018 0.050 0.035 0.101 0.050 0.149 0.020 0.054 0.039 0.104 0.055 0.152 0.023 0.050 0.028 0.057 0.040 0.081 0.013 0.020 0.024 0.038 0.035 0.055 0.023 0.036 0.049 0.068 0.070 0.092 0.005 0.055-0.002 0.132-0.061 0.013 0.074 0.194 0.161 0.399 0.254 0.601 0.096 0.209 0.194 0.419 0.287 0.619 0.052 0.072 0.103 0.141 0.152 0.208 0.043 0.061 0.085 0.121 0.125 0.18 0.080 0.118 0.149 0.229 0.204 0.336l-0.055-0.029c0.082 0.107 0.18 0.162 0.248 0.32-0.018 0-0.059-0.028-0.026 0.024 0.016 0.019 0.051 0.058 0.094 0.105 0.020 0.024 0.040 0.048 0.064 0.075 0.024 0.031 0.041 0.048 0.083 0.107 0.029 0.027 0.060 0.057 0.088 0.083 0.023 0.023 0.042 0.043 0.061 0.064l-0.134-0.081c0.479 0.518 0.834 0.687 1.275 1.075-0.066 0.067 0.313 0.464 0.503 0.661l-0.017 0.002c0.145 0.138 0.281 0.26 0.415 0.377 0.128 0.122 0.254 0.236 0.377 0.345 0.126 0.111 0.246 0.22 0.375 0.331 0.061 0.058 0.125 0.114 0.189 0.173 0.034 0.029 0.066 0.059 0.099 0.090 0.037 0.035 0.076 0.070 0.114 0.107 0.015 0.007 0.030 0.019 0.048 0.029 0.111 0.115 0.291 0.258 0.503 0.413 0.108 0.076 0.222 0.158 0.34 0.241 0.13 0.091 0.265 0.183 0.401 0.276 0.155 0.043 0.311 0.087 0.461 0.129 0.134 0.040 0.263 0.081 0.382 0.121-0.107-0.045 0.036-0.066 0.167-0.042 0.167 0.063 0.489 0.060 0.439 0.136l-0.059-0.018c0.016 0.017 0.040 0.035 0.068 0.052 0.012 0.007 0.026 0.016 0.042 0.024 0.020 0.006 0.010 0.004 0.017 0.011-0.007 0.001 0.048 0.036 0.086 0.059 0.043 0.025 0.085 0.052 0.13 0.077 0.091 0.050 0.186 0.102 0.272 0.149l0.094-0.075c0.099 0.087 0.217 0.17 0.345 0.25 0.063 0.040 0.128 0.082 0.195 0.119 0.075 0.042 0.15 0.080 0.226 0.121l0.231 0.077c0.070 0.021 0.139 0.041 0.208 0.063 0.138 0.043 0.275 0.084 0.397 0.121 0.246 0.079 0.447 0.16 0.557 0.248 0.028 0.005 0.035 0.006 0.094 0.020 0.084 0.011 0.177 0.022 0.268 0.033 0.087 0.009 0.172 0.021 0.25 0.024l-0.022 0.057c0.191 0.043 0.344 0.077 0.502 0.112 0.079 0.017 0.159 0.034 0.246 0.052 0.098 0.019 0.203 0.040 0.321 0.064 0.068-0.006 0.197-0.021 0.34-0.033l-0.123 0.053c0.345-0.023 0.423-0.206 0.74-0.231l0.101 0.083 0.263-0.016 0.272-0.011 0.336-0.048 0.318-0.050c0.211-0.036 0.42-0.083 0.625-0.149-0.007 0.015-0.023 0.044-0.118 0.064 0.083-0.013 0.213-0.032 0.351-0.053 0.078-0.004 0.157-0.007 0.231-0.011 0.079-0.005 0.155-0.013 0.217-0.022 0.113-0.016 0.184-0.039 0.168-0.074 0.072 0.056 0.633-0.048 0.937-0.11l-0.044 0.066c0.266-0.11 0.272-0.132 0.65-0.2 0.091-0.004 0.085 0.035-0.035 0.035 0.304-0.006 0.226-0.083 0.595-0.097l-0.13 0.055c0.151-0.017 0.222-0.030 0.274-0.046s0.084-0.034 0.191-0.070c0.001-0.001 0.006-0.006 0.011-0.009 0.025-0.019 0.054-0.042 0.084-0.064 0.024-0.016 0.052-0.031 0.079-0.050 0.056-0.035 0.116-0.072 0.175-0.101 0.115-0.059 0.22-0.099 0.254-0.088 0.017-0.051 0.136-0.178 0.299-0.265 0.032 0.004-0.018 0.049-0.042 0.072 0.107-0.058 0.197-0.116 0.276-0.169 0.040-0.029 0.076-0.054 0.114-0.081l0.050-0.039 0.031-0.024c0.016-0.009 0.064-0.027 0.108-0.040 0.043-0.015 0.084-0.031 0.127-0.044 0.084-0.024 0.171-0.043 0.268-0.052 0.012 0.016 0.034 0.020 0.066 0.018-0.235 0.059-0.441 0.114-0.558 0.143-0.024 0.015-0.043 0.026-0.053 0.031-0.009 0.006-0.015 0.009-0.018 0.010 0.013 0.020 0.083-0.005 0.091 0.006 0.015 0.005 0.021 0.011 0.029 0.020 0.004 0.009-0.001 0.026 0 0.042 0 0.003 0.001 0.007 0.002 0.011 0-0.002 0.001-0.007 0.002-0.011 0.017-0.006 0.034-0.014 0.050-0.022 0.038-0.015 0.075-0.032 0.114-0.050 0.078-0.032 0.16-0.066 0.244-0.101 0.167-0.068 0.342-0.129 0.496-0.156 0.016 0.001 0.031 0.001 0.044 0.005l-0.031 0.013c0.074-0.013 0.141-0.035 0.2-0.059 0.051-0.009 0.093-0.018 0.134-0.026 0.047-0.009 0.063-0.013 0.16-0.037 0.017 0.005 0.057 0.001 0.117-0.011 0.035-0.035 0.079-0.081 0.127-0.136 0.027-0.032 0.055-0.065 0.084-0.101 0.058-0.070 0.12-0.142 0.162-0.193-0.054-0.026 0.087-0.185-0.072-0.068 0.003 0.001-0.031 0.047-0.091 0.119-0.013 0.021-0.031 0.044-0.039 0.059 0-0.004 0.001-0.009 0.002-0.015l-0.217 0.265-0.184 0.050c0.038-0.022 0.113-0.050 0.169-0.072 0.020-0.028 0.041-0.057 0.063-0.086 0.017-0.023 0.037-0.049 0.057-0.074 0.033-0.043 0.073-0.083 0.123-0.123 0.025-0.091 0.057-0.188 0.075-0.241 0.211-0.12 0.531-0.43 0.608-0.443 0.054-0.071 0.108-0.147 0.167-0.224 0.080-0.068 0.163-0.139 0.244-0.208 0.087-0.076 0.17-0.149 0.252-0.219 0.159-0.146 0.295-0.284 0.371-0.401 0.104-0.1 0.149-0.077 0.202-0.097-0.060 0.061-0.138 0.122-0.163 0.162 0.202-0.21 0.687-0.512 0.695-0.617 0.318-0.182-0.126 0.177 0.276-0.121l-0.040 0.057c0.107-0.056 0.203-0.114 0.296-0.175 0.046-0.032 0.090-0.063 0.134-0.092 0.055-0.040 0.11-0.079 0.162-0.119l0.066-0.123 0.042-0.084 0.075-0.169c0.050-0.112 0.101-0.224 0.151-0.338 0.1-0.224 0.219-0.471 0.356-0.693 0.079-0.074 0.188-0.168 0.303-0.257-0.013 0.009-0.024 0.015-0.033 0.016 0.146-0.128 0.288-0.263 0.43-0.399l0.209-0.209 0.222-0.219c0.292-0.467 0.536-0.88 0.836-1.341l0.088-0.272 0.088-0.254c0.060-0.17 0.124-0.335 0.191-0.498 0.098-0.256 0.096-0.336 0.107-0.474 0-0.036 0.004-0.078 0.004-0.129l0.077-0.061 0.007-0.371c0.063-0.516 0.345-0.84 0.402-1.499l-0.061 0.074c0.063-0.227 0.151-0.733 0.189-0.682-0.001-0.027-0.026-0.083 0.017-0.169h0.037l0.011-0.085 0.020-0.114-0.044-0.123v0.005l-0.035-0.096-0.075-0.193c-0.094-0.438 0.148 0.035-0.015-0.599-0.078-0.231-0.276-0.643-0.274-0.549 0.024 0.095 0.046 0.247 0.015 0.265l-0.074-0.209c-0.006-0.001-0.015-0.002-0.022-0.004l-0.011-0.035 0.312-1.534-0.276-1.029 0.024 0.020-0.037-0.070-0.088-0.327c0.013 0.006 0.034 0.033 0.055 0.097-0.007-0.096-0.021-0.144-0.039-0.191-0.039-0.067-0.069-0.088-0.097-0.222-0.004-0.025 0.006-0.018 0.018 0l-0.125-0.208c0.036 0.035 0.040-0.063 0.090 0.077-0.134-0.415-0.354-0.606-0.362-0.781l0.022 0.029c-0.209-0.397-0.149-0.21-0.219-0.259l-0.004-0.011-0.037-0.261 0.083-0.222-0.072-0.052c-0.006-0.060-0.016-0.182 0.013-0.164-0.073-0.222-0.024 0.043-0.083-0.085 0.015-0.233-0.064-0.565-0.068-0.774-0.033-0.059-0.054-0.107-0.040-0.134-0.107-0.060 0.146 0.261-0.079 0.016 0.035-0.14-0.233-0.285-0.356-0.535 0.096 0.033 0.225 0.26 0.103 0.011-0.175-0.075-0.297-0.439-0.448-0.612-0.071 0.037-0.319-0.386-0.564-0.683 0.036 0.004-0.391-0.612-0.564-0.928l0.015 0.002c-0.103-0.013-0.299-0.326-0.465-0.54 0.044-0.017 0.088 0.012 0.187 0.121l-0.141-0.211c-0.055-0.035-0.108-0.094-0.208-0.224l0.084 0.022-0.075-0.101-0.103-0.086-0.090-0.074c-0.060-0.048-0.125-0.1-0.189-0.151-0.128-0.106-0.26-0.219-0.391-0.364-0.037 0.018 0.045 0.167-0.011 0.176l-0.171-0.16c0.019-0.007 0.048-0.002 0.097 0.033-0.032-0.024-0.121-0.075-0.171-0.138l0.169 0.088c-0.131-0.15-0.105-0.040-0.219-0.151 0.032-0.028-0.063-0.101-0.024-0.11 0.032 0.024 0.089 0.105 0.145 0.134-0.063-0.061-0.145-0.146-0.182-0.197-0.027-0.054-0.066-0.132-0.072-0.165-0.011 0.028-0.046 0.037-0.129-0.064-0.205-0.267-0.030-0.124-0.13-0.294-0.072-0.047-0.178-0.236-0.231-0.204-0.059-0.079-0.048-0.109-0.057-0.151-0.035-0.034-0.087-0.098-0.143-0.167-0.067-0.082-0.136-0.171-0.195-0.244-0.205-0.051-0.257-0.053-0.187 0l0.050 0.018c-0.011-0.001-0.023-0.005-0.035-0.007-0.237-0.041-0.472-0.111-0.707-0.187l-0.353-0.118c-0.112-0.038-0.219-0.074-0.329-0.108l-0.094-0.081-0.11-0.088 0.013-0.015c-0.273-0.202-0.581-0.48-0.794-0.604-0.076-0.064-0.155-0.182-0.107-0.173-0.031-0.023-0.059-0.045-0.077-0.059-0.048-0.020-0.088-0.035-0.127-0.050-0.036-0.015-0.070-0.030-0.107-0.046-0.073-0.036-0.158-0.083-0.296-0.169 0.25 0.083-0.067-0.068 0.252 0.096-0.294-0.166-0.349-0.23-0.696-0.34 0.132 0.005-0.192-0.172-0.351-0.233l0.198 0.141c-0.047-0.020-0.091-0.040-0.134-0.061-0.049-0.024-0.098-0.049-0.145-0.074-0.080-0.012-0.155-0.022-0.231-0.035l0.094-0.059c-0.333-0.087-0.644-0.090-0.935-0.099-0.145-0.004-0.284-0.010-0.421-0.028-0.134-0.019-0.26-0.063-0.382-0.121-0.187 0.013 0.361 0.105 0.191 0.13-0.308-0.070-0.612-0.233-0.709-0.25-0.171-0.051-0.272-0.056-0.362-0.053-0.046 0.002-0.085 0.005-0.132 0.007-0.023 0.001-0.050 0.001-0.075 0-0.029-0.001-0.049-0.001-0.101-0.009-0.032 0-0.066 0.002-0.105 0.002-0.034 0-0.071-0.003-0.114-0.005 0.059 0.027 0.114 0.092-0.226 0.112-0.316-0.015-0.388-0.111-0.187-0.129 0.076-0.001 0.113 0.007 0.11 0.017 0.103-0.007 0.236-0.016 0.11-0.046l-0.042 0.026c-0.156-0.029-0.591-0.033-0.487-0.074-0.241 0.022-0.106 0.039 0.072 0.055-0.262-0.029-0.462-0.025-0.667-0.028-0.096-0.006-0.229-0.019-0.369-0.040 0.065 0.020 0.124 0.054 0.059 0.048-0.609-0.087-0.273 0.022-0.687-0.004-0.232-0.059 0.092-0.083-0.327-0.088-0.253-0.050-0.048-0.071 0.053-0.083-0.046 0.001-0.090 0.001-0.134 0l-0.094-0.005c-0.037-0.004-0.073-0.007-0.108-0.011h-0.002v-0zM16.117 3.339c0.059 0 0.118 0.001 0.177 0.001 0.089 0.001 0.179 0.001 0.268 0 0.113-0.001 0.218 0.010 0.35 0.037 0.036 0.008 0.083 0.010 0.131 0.011 0.062 0.002 0.133 0.004 0.204 0.021 0.311 0.071 0.514 0.342 0.731 0.628l0.071 0.095c0.052 0.068 0.055 0.161 0.006 0.231-0.084 0.122-0.207 0.15-0.281 0.166-0.047 0.010-0.060 0.015-0.064 0.021-0.049 0.072-0.063 0.223-0.075 0.344-0.003 0.034-0.007 0.068-0.010 0.099-0.019 0.152-0.042 0.304-0.067 0.453-0.021 0.129-0.041 0.258-0.059 0.388-0.026 0.194-0.028 0.393-0.029 0.605-0.002 0.189-0.004 0.384-0.025 0.579-0.022 0.215-0.053 0.499-0.093 0.783-0.051 0.358-0.046 0.717-0.043 1.096 0.002 0.094 0.002 0.189 0.002 0.284 0 0.173 0.002 0.347 0.005 0.521 0.005 0.337 0.009 0.685-0.004 1.026-0.004 0.099-0.024 0.179-0.041 0.248-0.009 0.037-0.018 0.074-0.026 0.116-0.001 0.008 0.002 0.034 0.003 0.051 0.004 0.038 0.009 0.085 0.003 0.137-0.010 0.083-0.036 0.135-0.053 0.17-0.009 0.020-0.012 0.026-0.016 0.037-0.001 0.009 0.002 0.037 0.002 0.056 0.005 0.045 0.009 0.103-0.003 0.165-0.036 0.181-0.156 0.333-0.244 0.432-0.043 0.048-0.072 0.116-0.106 0.195-0.017 0.038-0.032 0.076-0.051 0.114-0.114 0.233-0.17 0.484-0.23 0.749-0.033 0.146-0.067 0.296-0.111 0.446-0.017 0.054-0.025 0.115-0.034 0.179-0.010 0.072-0.021 0.147-0.043 0.226-0.018 0.062-0.038 0.12-0.060 0.178-0.029 0.079-0.056 0.152-0.068 0.228-0.023 0.14-0.066 0.272-0.107 0.399-0.026 0.082-0.053 0.163-0.073 0.247-0.008 0.033-0.018 0.066-0.027 0.098-0.017 0.060-0.031 0.116-0.039 0.169-0.005 0.023-0 0.060 0.004 0.096 0.006 0.061 0.013 0.131 0 0.206-0.012 0.069-0.038 0.116-0.055 0.147-0.008 0.015-0.011 0.021-0.014 0.028-0.007 0.022-0.008 0.042-0.010 0.062-0.008 0.059-0.019 0.139-0.071 0.228-0.036 0.061-0.101 0.097-0.17 0.097-0.019 0-0.038-0.002-0.057-0.009-0.087-0.026-0.146-0.108-0.14-0.199 0.006-0.117-0.017-0.225-0.041-0.35-0.009-0.047-0.020-0.094-0.028-0.143-0.083-0.479-0.137-0.892-0.167-1.265-0.026-0.328-0.084-0.662-0.14-0.985-0.081-0.463-0.164-0.941-0.161-1.431l0 0c0.001-0.163-0.002-0.327-0.002-0.491-0.003-0.236-0.006-0.481 0-0.723 0.004-0.132 0.020-0.259 0.035-0.381 0.014-0.112 0.028-0.216 0.032-0.321 0.005-0.136 0.002-0.279-0.001-0.416-0.001-0.086-0.003-0.171-0.003-0.256 0.001-0.148-0.002-0.297-0.005-0.446-0.007-0.349-0.014-0.709 0.016-1.063 0.011-0.126 0.034-0.248 0.057-0.365 0.028-0.143 0.055-0.278 0.057-0.413 0.002-0.104 0-0.208-0.002-0.312-0.001-0.078-0.003-0.156-0.003-0.234v-0.405c0-0.277-0-0.553 0.001-0.831 0.001-0.165-0.015-0.329-0.032-0.503-0.020-0.208-0.040-0.421-0.031-0.639 0.010-0.24 0.042-0.433 0.335-0.564 0.166-0.074 0.335-0.141 0.551-0.148 0.058-0.001 0.117-0.001 0.176-0.001zM12.789 3.501c0.234-0.005 0.449 0.058 0.515 0.248 0.008 0.022 0.011 0.043 0.011 0.066v0.587c-0.002 0.431-0.002 0.86 0.001 1.291v0.038c0.001 0.193 0.002 0.393-0.051 0.603-0.015 0.062-0.035 0.122-0.054 0.183-0.027 0.086-0.053 0.167-0.066 0.248l-0.027 0.162c-0.017 0.095-0.032 0.19-0.045 0.285l0-0c-0.003 0.018-0.004 0.040-0.006 0.062-0.013 0.135-0.030 0.319-0.166 0.435-0.037 0.032-0.083 0.047-0.128 0.047-0.053 0-0.105-0.022-0.145-0.063-0.153-0.164-0.139-0.393-0.13-0.561 0.001-0.037 0.004-0.072 0.003-0.104-0.001-0.196-0.042-0.405-0.081-0.606l-0.021-0.108c-0.011-0.056-0.021-0.115-0.031-0.179-0.034-0.207-0.072-0.437-0.155-0.598-0.019 0.045-0.036 0.094-0.048 0.124-0.020 0.056-0.037 0.104-0.053 0.135-0.043 0.089-0.133 0.274-0.31 0.315-0.093 0.022-0.19-0.003-0.274-0.069-0.134-0.105-0.21-0.432-0.211-0.436-0.070-0.331-0.073-0.635-0.075-0.957-0.001-0.063-0.017-0.146-0.031-0.225-0.036-0.199-0.078-0.424 0.055-0.589 0.075-0.095 0.19-0.147 0.341-0.153 0.29-0.011 0.546-0.061 0.863-0.138 0.101-0.025 0.211-0.041 0.317-0.043zM19.804 4.091c0.203 0.003 0.403 0.042 0.558 0.102 0.126 0.050 0.246 0.096 0.383 0.207l0.035 0.027c0.070 0.056 0.143 0.114 0.212 0.202 0.019 0.025 0.035 0.051 0.050 0.075 0.002 0.003 0.004 0.007 0.006 0.010 0.020 0.008 0.038 0.021 0.054 0.036 0.024 0.022 0.087 0.081 0.171 0.329 0.044 0.129 0.052 0.259 0.060 0.375 0.005 0.070 0.009 0.137 0.021 0.198 0.071 0.371 0.076 0.708 0.017 1.002-0.029 0.145-0.053 0.287-0.076 0.429-0.031 0.18-0.062 0.366-0.104 0.553-0.019 0.082-0.033 0.166-0.049 0.251-0.050 0.276-0.1 0.561-0.262 0.816-0.021 0.033-0.047 0.065-0.072 0.097-0.027 0.033-0.056 0.070-0.064 0.093-0.015 0.054-0.024 0.167-0.030 0.25-0.004 0.057-0.007 0.109-0.014 0.15-0.017 0.12-0.034 0.24-0.052 0.358-0.073 0.501-0.142 0.975-0.142 1.47 0 0.106 0.002 0.214 0.002 0.32 0.005 0.438 0.011 0.892-0.077 1.341-0.031 0.154-0.086 0.292-0.137 0.425-0.042 0.106-0.081 0.207-0.107 0.31-0.031 0.123-0.069 0.245-0.106 0.366-0.045 0.146-0.089 0.283-0.119 0.423l-0.005 0.023c-0.047 0.22-0.092 0.427-0.118 0.64-0.006 0.047-0.012 0.095-0.019 0.143-0.008 0.056-0.016 0.11-0.022 0.164 0.007 0.132 0.009 0.273-0.023 0.4-0.008 0.040-0.023 0.083-0.047 0.125-0.035 0.066-0.103 0.103-0.172 0.103-0.031 0-0.061-0.007-0.090-0.022-0.096-0.049-0.134-0.164-0.089-0.261 0.004-0.009 0.008-0.020 0.011-0.032 0.003-0.020 0.002-0.047 0.002-0.078-0.001-0.024-0.001-0.049-0.001-0.073 0.002-0.058 0.006-0.116 0.011-0.171-0.002-0.014-0.002-0.029-0.002-0.043-0.005-0.063-0.008-0.124-0.008-0.177 0-0.134 0.001-0.267 0.004-0.402 0.003-0.241 0.007-0.489-0.002-0.73-0.010-0.321-0.071-0.682-0.174-1.042-0.017-0.060-0.036-0.12-0.056-0.179-0.035-0.107-0.072-0.219-0.096-0.336-0.022-0.106-0.028-0.208-0.033-0.305-0.004-0.061-0.007-0.121-0.016-0.182-0.030-0.231-0.078-0.466-0.126-0.693-0.083-0.4-0.167-0.813-0.163-1.244 0.005-0.482 0.003-0.965 0.002-1.448l-0.001-0.649 0 0c0-0.187-0.004-0.376-0.008-0.565-0.010-0.551-0.021-1.121 0.056-1.675 0.010-0.072 0.015-0.17 0.019-0.274 0.018-0.389 0.040-0.923 0.431-1.119 0.167-0.084 0.373-0.117 0.576-0.115zM9.67 4.502c0.101 0.001 0.189 0.029 0.266 0.053 0.108 0.034 0.187 0.059 0.304 0.023 0.060-0.019 0.126-0.007 0.175 0.030 0.051 0.037 0.081 0.096 0.081 0.159 0 0.083-0.004 0.17-0.008 0.259-0.007 0.177-0.016 0.36 0.010 0.508 0.005 0.030 0.013 0.056 0.021 0.081 0.019 0.061 0.041 0.138 0.039 0.254l-0.002 0.079c-0.003 0.117-0.006 0.227 0.011 0.331 0.020 0.121 0.032 0.241 0.044 0.359 0.013 0.126 0.026 0.246 0.047 0.367 0.041 0.237 0.080 0.497 0.077 0.796 0 0.045 0.002 0.092 0.003 0.138 0.003 0.086 0.006 0.173 0 0.26-0.006 0.082-0.022 0.154-0.036 0.224-0.014 0.065-0.028 0.127-0.030 0.184-0.002 0.027 0 0.052 0.001 0.076 0.003 0.059 0.005 0.125-0.010 0.201-0.020 0.094-0.060 0.174-0.096 0.247-0.029 0.057-0.055 0.109-0.065 0.157l-0.025 0.114c-0.035 0.169-0.072 0.345-0.124 0.523-0.020 0.067-0.072 0.118-0.14 0.135-0.016 0.004-0.033 0.005-0.049 0.005-0.052 0-0.102-0.020-0.139-0.057-0.117-0.116-0.108-0.25-0.102-0.331 0.001-0.015 0.002-0.032 0.001-0.050-0.003-0.11-0.029-0.224-0.057-0.345-0.020-0.088-0.039-0.174-0.052-0.262-0.015-0.098-0.012-0.191-0.009-0.28 0.002-0.086 0.004-0.167-0.010-0.238-0.019-0.093-0.059-0.189-0.1-0.29l0.001 0.001c-0.022-0.053-0.043-0.105-0.063-0.158-0.062-0.172-0.154-0.324-0.251-0.484-0.059-0.099-0.119-0.197-0.171-0.301-0.029-0.057-0.068-0.113-0.109-0.171-0.039-0.057-0.078-0.114-0.113-0.173-0.050-0.087-0.085-0.172-0.119-0.256-0.023-0.055-0.046-0.109-0.072-0.163-0.035-0.071-0.074-0.14-0.113-0.207-0.136-0.239-0.277-0.484-0.261-0.832 0.017-0.401 0.266-0.578 0.452-0.676l0.038-0.021c0.199-0.106 0.473-0.252 0.711-0.269 0.015-0.001 0.030-0.001 0.044-0.001zM22.416 5.576c0.027 0.002 0.053 0.009 0.077 0.021s0.046 0.030 0.063 0.051c0.076-0.019 0.169-0.024 0.275 0.023 0.162 0.072 0.303 0.199 0.439 0.322 0.073 0.065 0.141 0.127 0.206 0.173 0.116 0.083 0.262 0.13 0.417 0.181 0.084 0.028 0.166 0.055 0.244 0.086 0.034 0.015 0.094 0.021 0.151 0.029 0.168 0.020 0.45 0.054 0.53 0.364 0.024 0.095 0.016 0.206 0.008 0.305-0.003 0.036-0.006 0.071-0.006 0.099 0 0.054 0.001 0.106 0.002 0.159 0.002 0.093 0.003 0.187 0 0.279-0.006 0.2-0.052 0.389-0.096 0.571-0.043 0.18-0.084 0.349-0.087 0.518-0.001 0.092 0.001 0.183 0.003 0.275 0.002 0.126 0.005 0.252 0 0.378-0.005 0.129-0.035 0.243-0.065 0.352-0.011 0.044-0.024 0.088-0.033 0.133-0.005 0.024-0.010 0.060-0.013 0.102-0.028 0.243-0.068 0.608-0.356 0.636-0.099 0.009-0.187-0.053-0.211-0.147-0.023-0.086-0.026-0.168-0.028-0.239-0.001-0.024-0.002-0.047-0.004-0.067-0.014 0.033-0.030 0.068-0.045 0.103-0.022 0.050-0.043 0.1-0.067 0.151-0.042 0.090-0.067 0.216-0.092 0.339-0.011 0.057-0.023 0.114-0.035 0.166-0.028 0.118-0.066 0.228-0.103 0.335-0.029 0.086-0.059 0.173-0.083 0.26-0.021 0.082-0.040 0.161-0.059 0.241-0.061 0.259-0.124 0.528-0.269 0.789-0.089 0.159-0.167 0.303-0.235 0.451-0.013 0.029-0.026 0.063-0.039 0.097l-0-0c-0.039 0.102-0.083 0.218-0.163 0.306-0.038 0.041-0.091 0.064-0.146 0.064-0.012 0-0.026-0.002-0.038-0.003-0.067-0.013-0.123-0.061-0.147-0.125-0.058-0.154-0.020-0.317 0.011-0.449 0.013-0.059 0.027-0.116 0.028-0.155 0.002-0.070 0.002-0.141-0.001-0.212-0.002-0.050-0.002-0.099-0.002-0.149v-0.207c0-0.242 0.001-0.483 0-0.725 0-0.053-0.002-0.105-0.002-0.159-0.003-0.164-0.006-0.335 0.016-0.507 0.012-0.096 0.034-0.189 0.054-0.278 0.021-0.091 0.040-0.177 0.050-0.26 0.007-0.064 0.016-0.128 0.025-0.192 0.021-0.151 0.040-0.291 0.039-0.426-0.001-0.095 0.001-0.191 0.003-0.287 0.003-0.13 0.006-0.254 0.001-0.376-0.005-0.104-0.031-0.212-0.059-0.325-0.019-0.076-0.037-0.152-0.050-0.229-0.027-0.155-0.049-0.31-0.070-0.466-0.015-0.111-0.031-0.222-0.049-0.332-0.008-0.051-0.018-0.102-0.027-0.153-0.023-0.13-0.048-0.263-0.054-0.404-0.003-0.087 0-0.172 0.003-0.259 0.005-0.124 0.010-0.241-0.009-0.349-0.012-0.070-0.027-0.136-0.042-0.201-0.012-0.056-0.025-0.113-0.036-0.17-0.003-0.002-0.006-0.002-0.009-0.003-0.066-0.023-0.116-0.080-0.129-0.149-0.031-0.161 0.096-0.251 0.189-0.317 0.037-0.027 0.082-0.039 0.127-0.037zM16.465 16.91c0.1-0.004 0.084 0.144 0.115 0.249 0.019 0.064 0.057 0.106 0.066 0.199 0.018 0.182 0.049 0.331 0.090 0.503 0.131 0.538 0.201 1.090 0.383 1.61 0.090 0.255 0.111 0.527 0.189 0.783 0.093 0.309 0.133 0.613 0.158 0.935 0.021 0.263 0.106 0.498 0.127 0.767 0.020 0.268 0.155 0.508 0.192 0.773 0.066 0.478 0.198 1.006 0.576 1.313 0.207 0.167 0.41 0.355 0.609 0.537 0.178 0.162 0.263 0.278 0.36 0.507 0.188 0.446 0.367 0.957 0.414 1.441 0.006 0.066 0.035 0.166 0.023 0.229-0.019 0.101-0.009 0.065-0.093 0.119-0.261 0.17-0.918 0.311-1.044-0.090-0.019-0.056 0.004-0.123-0.010-0.18-0.019-0.072-0.065-0.145-0.096-0.213-0.093-0.21-0.139-0.484-0.223-0.708-0.132-0.355-0.495-0.341-0.762-0.537-0.099-0.074-0.201-0.134-0.299-0.213-0.080-0.062-0.169-0.18-0.267-0.201-0.157-0.034-0.277 0.082-0.387 0.169-0.14 0.111-0.29 0.239-0.462 0.311-0.174 0.071-0.332 0.181-0.513 0.239-0.092 0.029-0.12 0.028-0.2 0.097-0.046 0.040-0.086 0.087-0.133 0.123-0.312 0.239-0.403 0.678-0.517 1.039-0.076 0.242-0.12 0.547-0.332 0.713-0.092 0.071-0.229 0.152-0.338 0.195-0.056 0.023-0.101 0.030-0.161 0.029-0.099-0.002-0.16-0.034-0.197-0.085-0.066-0.089-0.060-0.236-0.070-0.383-0.026-0.359 0.119-0.666 0.188-1.007 0.101-0.498 0.077-1.195 0.442-1.572 0.064-0.065 0.139-0.135 0.218-0.178 0.113-0.062 0.228-0.038 0.347-0.071 0.168-0.049 0.298-0.178 0.442-0.277 0.246-0.171 0.339-0.276 0.448-0.575 0.105-0.291 0.134-0.553 0.164-0.864 0.012-0.132 0.035-0.265 0.028-0.399-0.006-0.108-0.036-0.203-0.023-0.313 0.028-0.22 0.141-0.447 0.196-0.662 0.062-0.246 0.137-0.485 0.201-0.73 0.062-0.236 0.016-0.464 0.054-0.703 0.085-0.538-0.019-1.11-0.070-1.653-0.026-0.274-0.004-0.506 0.038-0.773 0.025-0.155 0.017-0.313 0.041-0.465 0.037-0.020 0.066-0.029 0.089-0.030zM11.29 17.553c0.039-0.001 0.085 0.018 0.135 0.063 0.077 0.070 0.093 0.238 0.13 0.35 0.108 0.324 0.11 0.697 0.152 1.036 0.032 0.258-0.018 0.521 0.027 0.779 0.041 0.242 0.018 0.486 0.060 0.727 0.033 0.189 0.074 0.374 0.114 0.563 0.074 0.353 0.212 0.661 0.235 1.026 0.011 0.169 0.011 0.297 0.042 0.467 0.019 0.101 0.045 0.21 0.061 0.31 0.019 0.119 0.001 0.238 0.026 0.356 0.030 0.143 0.090 0.275 0.122 0.418 0.039 0.182 0.131 0.321 0.225 0.474 0.132 0.212 0.337 0.326 0.483 0.515 0.123 0.158 0.158 0.396 0.177 0.594 0.034 0.373 0.060 0.722 0.060 1.097 0 0.239 0.013 0.427-0.062 0.647-0.035 0.102-0.008 0.125-0.124 0.187-0.094 0.050-0.2 0.063-0.297 0.105-0.080 0.035-0.108 0.070-0.204 0.063-0.135-0.010-0.294-0.136-0.371-0.25-0.008-0.010-0.013-0.022-0.019-0.033-0.030-0.065-0.043-0.158-0.056-0.219-0.023-0.116-0.049-0.253-0.061-0.373-0.023-0.228-0.059-0.438-0.116-0.668-0.042-0.169-0.076-0.331-0.264-0.401-0.184-0.069-0.398-0.098-0.596-0.062-0.232 0.042-0.447 0.142-0.676 0.196-0.217 0.052-0.438 0.047-0.66 0.041-0.133-0.003-0.275 0.005-0.392-0.067-0.353-0.219-0.567-0.864-0.468-1.24-0.070-0.045-0.104-0.102-0.106-0.232-0.001-0.127-0.005-0.257 0-0.384l-0 0c0.005-0.111 0.040-0.175 0.057-0.275 0.019-0.118-0.001-0.234 0.018-0.353 0.019-0.111 0.040-0.202 0.045-0.324 0.005-0.131 0.044-0.218 0.079-0.34 0.028-0.105 0.021-0.228 0.055-0.328 0.060-0.174 0.161-0.315 0.305-0.411 0.125 0.19 0.157 0.398 0.223 0.609 0.073 0.233 0.138 0.483 0.196 0.728 0.017 0.070 0.029 0.143 0.041 0.214 0.106-0.132 0.211-0.264 0.281-0.432 0.113-0.272 0.084-0.535 0.145-0.814 0.101-0.471 0.173-0.959 0.331-1.408 0.056-0.16 0.115-0.317 0.164-0.481 0.092-0.303 0.226-0.646 0.261-0.96 0.027-0.241-0.003-0.474 0.040-0.716 0.038-0.214 0.066-0.419 0.073-0.634 0.004-0.097 0.047-0.158 0.111-0.161zM19.515 17.812c0.053 0.187-0.025 0.395 0.023 0.587 0.045 0.179 0.134 0.349 0.182 0.534 0.071 0.283 0.157 0.551 0.253 0.825 0.082 0.233 0.060 0.481 0.129 0.711 0.302 0.994 0.356 2.081 0.518 3.11l0 0c0.070 0.444 0.294 0.834 0.409 1.263 0.071 0.266 0.154 0.594 0.12 0.875-0.032 0.269-0.14 0.488-0.362 0.607-0.17 0.091-0.412 0.045-0.66 0.045-0.058-0.387-0.17-0.814-0.269-1.194-0.060-0.231-0.097-0.464-0.208-0.672-0.104-0.194-0.18-0.394-0.277-0.592-0.093-0.189-0.195-0.41-0.299-0.592-0.069-0.119-0.176-0.177-0.254-0.274-0.033-0.040-0.059-0.15-0.078-0.204-0.061-0.174-0.052-0.341-0.052-0.524 0.001-0.372 0.037-0.773-0.031-1.137-0.086-0.465-0.036-0.983 0.045-1.443 0.045-0.251 0.074-0.472 0.197-0.695 0.075-0.137 0.079-0.265 0.142-0.405 0.077-0.169 0.168-0.34 0.258-0.504 0.052-0.096 0.126-0.292 0.214-0.323zM6.942 18.074c0.103 0.138 0.12 0.368 0.176 0.53 0.057 0.164 0.114 0.329 0.179 0.489 0.132 0.326 0.213 0.686 0.368 1.003 0.088 0.18 0.125 0.347 0.223 0.514 0.074 0.127 0.131 0.268 0.162 0.401 0.053 0.228 0.142 0.462 0.135 0.697-0.002 0.074-0.017 0.143-0.006 0.217 0.018 0.124 0.071 0.246 0.1 0.368 0.064 0.263 0.094 0.535 0.094 0.806 0.001 0.167 0.028 0.274 0.073 0.429 0.071 0.245 0.144 0.411 0.066 0.668-0.050 0.159-0.103 0.358-0.222 0.482-0.132 0.138-0.274 0.102-0.441 0.067-0.243-0.049-0.294-0.093-0.435-0.294-0.004-0.008-0.009-0.014-0.014-0.022-0.088-0.133-0.124-0.255-0.16-0.408-0.044-0.185-0.159-0.353-0.224-0.531-0.064-0.18-0.155-0.367-0.318-0.476-0.164-0.109-0.292-0.089-0.478-0.113-0.092-0.012-0.182-0.053-0.275-0.074-0.169-0.040-0.285-0.059-0.396-0.195-0.096-0.118-0.207-0.217-0.312-0.325-0.226-0.234-0.272-0.688-0.048-0.94 0.129-0.147 0.328-0.19 0.515-0.154l0 0c0.172 0.033 0.424 0.111 0.574-0.024 0.102-0.091 0.071-0.204 0.094-0.322 0.022-0.111 0.081-0.22 0.105-0.333 0.044-0.196 0.070-0.402 0.112-0.598 0.048-0.222 0.001-0.457 0.011-0.682 0.016-0.353 0.080-0.912 0.342-1.181zM23.276 18.298c0.095 0.072 0.053 0.212 0.079 0.318 0.042 0.17 0.115 0.299 0.124 0.484 0.011 0.235 0.017 0.396 0.075 0.622 0.049 0.189 0.084 0.385 0.123 0.577 0.092 0.456 0.022 0.966 0.052 1.431 0.008 0.114 0.044 0.21 0.071 0.314 0.024 0.098 0.045 0.171 0.11 0.258 0.070 0.093 0.134 0.089 0.232 0.122 0.12 0.039 0.101 0.039 0.152 0.158 0.062 0.147 0.131 0.312 0.133 0.483 0.003 0.217 0.028 0.439 0.025 0.658 0 0.054-0.003 0.108-0.008 0.162-0.024 0.276-0.191 0.31-0.436 0.254-0.138-0.031-0.257-0.101-0.388-0.14-0.097-0.030-0.202-0.036-0.301-0.064-0.164-0.047-0.356-0.054-0.532-0.031-0.411 0.054 0.057 0.676-0.269 0.827-0.137 0.063-0.375-0.029-0.489-0.079-0.302-0.132-0.622-0.181-0.693-0.557-0.101-0.533 0.332-0.919 0.322-1.406l0.001 0c-0.003-0.132 0.021-0.233 0.057-0.358 0.037-0.128 0.034-0.229 0.057-0.356 0.029-0.168 0.064-0.342 0.090-0.511 0.015-0.104 0.086-0.306 0.156-0.383 0.105 0.091 0.149 0.17 0.204 0.301 0.046 0.109 0.065 0.187 0.184 0.187 0.132 0 0.212-0.152 0.28-0.269 0.037-0.063 0.049-0.13 0.068-0.198 0.012-0.042 0.043-0.132 0.049-0.174 0.012-0.085-0.017-0.171 0.001-0.256 0.021-0.102 0.082-0.185 0.103-0.287 0.059-0.271 0.033-0.569 0.070-0.843 0.033-0.235 0.048-0.495 0.106-0.722 0.021-0.078 0.105-0.51 0.191-0.52z"></path>
</svg>
