<!-- Generated by IcoMoon.io -->
<svg version="1.1" xmlns="http://www.w3.org/2000/svg" width="32" height="32" viewBox="0 0 32 32">
<title>return_to_before_the_black_throne</title>
<path d="M10.171 17.37c-0.027-0.027-0.058-0.052-0.088-0.080-0.015-0.012-0.040-0.040-0.027-0.058 0.027-0.039 0.092 0.031 0.1 0.053 0.012 0.031 0.015 0.058 0.015 0.085zM25.741 15.69c-0.077 0.206-0.111 0.423-0.191 0.628-0.089 0.228-0.208 0.425-0.373 0.607-0.162 0.178-0.381 0.313-0.608 0.395-0.133 0.048-0.28 0.052-0.419 0.063-0.187 0.015-0.354 0.008-0.531-0.058-0.238-0.088-0.449-0.206-0.625-0.387-0.091-0.094-0.176-0.196-0.093-0.317 0.073-0.105 0.328-0.311 0.443-0.161 0.044 0.058 0.060 0.076 0.137 0.090 0.096 0.019 0.23 0.048 0.328 0.023 0.138-0.035 0.192-0.189 0.204-0.314 0.015-0.141-0.023-0.263-0.132-0.36-0.17-0.152-0.457-0.115-0.662-0.064-0.159 0.040-0.304 0.063-0.469 0.056-0.195-0.008-0.388-0.077-0.576-0.126-0.311-0.082-0.571-0.285-0.831-0.464-0.281-0.192-0.53-0.415-0.747-0.678-0.25-0.304-0.405-0.636-0.573-0.987-0.075-0.158-0.159-0.313-0.232-0.472-0.075-0.161-0.142-0.323-0.225-0.481-0.149-0.285-0.298-0.577-0.485-0.84-0.090-0.127-0.198-0.23-0.321-0.326s-0.252-0.2-0.405-0.242c-0.116-0.031-0.233-0.042-0.351-0.038-0.131 0.284-0.257 0.569-0.387 0.853 0.147 0.184 0.316 0.354 0.501 0.496 0.261 0.201 0.53 0.388 0.768 0.618 0.144 0.139 0.274 0.3 0.396 0.458 0.124 0.159 0.21 0.356 0.276 0.543 0.068 0.194 0.122 0.405 0.163 0.607 0.031 0.151 0.038 0.293 0.038 0.447-0.003 0.329 0.019 0.654-0.052 0.978-0.040 0.178-0.105 0.342-0.175 0.509-0.077 0.185-0.144 0.373-0.214 0.561-0.166 0.447-0.385 0.867-0.573 1.305-0.084 0.195-0.158 0.392-0.249 0.584-0.023 0.047-0.043 0.094-0.064 0.141 0.21 0.471 0.477 0.911 0.822 1.299 0.178 0.2 0.364 0.401 0.584 0.558 0.195 0.139 0.412 0.266 0.628 0.368 0.348 0.164 0.749 0.272 1.138 0.266 0.198-0.003 0.373-0.084 0.541-0.177 0.164-0.090 0.308-0.196 0.426-0.343 0.244-0.303 0.386-0.664 0.397-1.053 0.004-0.145 0.004-0.296-0.019-0.439-0.031-0.175-0.098-0.346-0.172-0.508-0.128-0.282-0.319-0.532-0.597-0.681-0.126-0.068-0.244-0.101-0.388-0.108-0.094-0.004-0.211-0.015-0.302-0.001-0.193 0.027-0.32 0.177-0.438 0.319-0.066 0.079-0.123 0.159-0.16 0.255-0.023 0.061-0.072 0.204-0.161 0.176-0.103-0.031-0.142-0.191-0.162-0.278-0.046-0.199-0.015-0.394 0.071-0.579 0.043-0.091 0.117-0.156 0.188-0.226 0.067-0.065 0.131-0.133 0.2-0.196 0.16-0.146 0.374-0.265 0.588-0.309 0.683-0.144 1.361 0.249 1.838 0.698 0.111 0.104 0.209 0.216 0.303 0.336 0.121 0.156 0.25 0.316 0.348 0.489 0.146 0.26 0.232 0.546 0.291 0.837 0.060 0.294 0.069 0.594 0.070 0.892 0.001 0.333-0.043 0.661-0.156 0.975-0.2 0.55-0.696 0.96-1.228 1.183-0.184 0.077-0.379 0.122-0.574 0.164-0.228 0.049-0.455 0.081-0.688 0.082-0.504 0.003-1.010-0.081-1.472-0.292-0.465-0.213-0.898-0.505-1.251-0.875-0.388-0.406-0.744-0.874-0.967-1.392-0.035-0.082-0.066-0.166-0.094-0.251-0.019 0.076-0.035 0.153-0.045 0.231-0.027 0.182-0.027 0.369-0.035 0.552-0.008 0.149-0.004 0.279 0.015 0.427 0.040 0.269 0.105 0.542 0.213 0.794 0.071 0.165 0.18 0.331 0.3 0.464 0.123 0.136 0.253 0.276 0.405 0.379 0.137 0.092 0.278 0.182 0.426 0.255 0.063 0.031 0.113 0.041 0.181 0.042-0.16-0.001-0.307-0.042-0.463-0.079-0.158-0.038-0.314-0.086-0.469-0.133-0.187-0.058-0.366-0.13-0.522-0.248-0.091-0.069-0.191-0.131-0.276-0.206-0.088-0.079-0.169-0.174-0.244-0.266-0.14-0.172-0.276-0.354-0.331-0.571-0.023-0.092-0.047-0.185-0.052-0.281-0.004-0.107-0.004-0.211-0.015-0.317-0.015-0.144-0.038-0.288-0.019-0.433 0.019-0.124 0.051-0.244 0.079-0.365 0.079-0.344 0.151-0.698 0.279-1.028 0.067-0.171 0.142-0.339 0.222-0.505-0.031-0.192-0.042-0.386-0.059-0.578-0.023-0.293-0.060-0.584-0.091-0.876-0.050-0.481-0.060-0.964-0.058-1.447 0.001-0.262 0.008-0.523-0.008-0.785-0.015-0.233-0.068-0.452-0.143-0.673-0.085-0.249-0.203-0.48-0.368-0.684-0.072-0.088-0.151-0.169-0.234-0.246-0.105 0.225-0.21 0.448-0.313 0.673-0.143 0.311-0.288 0.619-0.418 0.935-0.055 0.134-0.108 0.268-0.163 0.401-0.040 0.104-0.082 0.207-0.126 0.309-0.015 0.031-0.082 0.167-0.138 0.116-0.015-0.038-0.027-0.077-0.038-0.116-0.027-0.077-0.054-0.153-0.085-0.228-0.176-0.41-0.495-0.741-0.831-1.041-0.072 0.074-0.141 0.149-0.209 0.228-0.283 0.327-0.523 0.669-0.688 1.070-0.085 0.206-0.129 0.423-0.146 0.645-0.004 0.088-0.008 0.177-0.008 0.266 0.1 0.157 0.23 0.296 0.349 0.439 0.315 0.378 0.619 0.754 0.873 1.176 0.114 0.189 0.22 0.38 0.323 0.576 0.089 0.17 0.177 0.314 0.197 0.507 0.039 0.384-0.012 0.785-0.199 1.126 0.127 0.12 0.258 0.236 0.382 0.361 0.154 0.153 0.291 0.327 0.409 0.509 0.074 0.114 0.139 0.233 0.201 0.355 0.068 0.135 0.148 0.279 0.189 0.425 0.031 0.108 0.043 0.216 0.057 0.328 0.015 0.13 0.035 0.26 0.038 0.391 0.001 0.247-0.086 0.498-0.198 0.717-0.066 0.13-0.145 0.259-0.223 0.381-0.078 0.124-0.18 0.216-0.29 0.313-0.182 0.16-0.39 0.311-0.608 0.418-0.136 0.067-0.289 0.106-0.436 0.141-0.107 0.027-0.208 0.048-0.318 0.055-0.191 0.015-0.392 0.004-0.582-0.015-0.221-0.019-0.421-0.083-0.627-0.162-0.169-0.066-0.332-0.144-0.485-0.242-0.17-0.109-0.311-0.244-0.457-0.382-0.204-0.193-0.385-0.377-0.467-0.651-0.053-0.177-0.070-0.368-0.053-0.552 0.008-0.071 0.038-0.125 0.078-0.184 0.061-0.091 0.132-0.2 0.223-0.266 0.074-0.055 0.161-0.074 0.248-0.098s0.172-0.051 0.259-0.076c0.178-0.053 0.33-0.055 0.499 0.023 0.151 0.070 0.333 0.169 0.425 0.313 0.027 0.044 0.065 0.086-0.004 0.091-0.163 0.008-0.324-0.046-0.487-0.001-0.21 0.058-0.333 0.331-0.261 0.528 0.149 0.404 0.739 0.509 1.105 0.374 0.328-0.121 0.555-0.428 0.692-0.733 0.106-0.236 0.118-0.509 0.073-0.761-0.040-0.226-0.124-0.467-0.254-0.66-0.035-0.049-0.070-0.097-0.108-0.144-0.156 0.041-0.318 0.063-0.479 0.053-0.178-0.012-0.353-0.054-0.533-0.065-0.172-0.012-0.312-0.035-0.47-0.109-0.172-0.080-0.329-0.189-0.499-0.274-0.113-0.057-0.234-0.095-0.347-0.151-0.174-0.086-0.32-0.232-0.462-0.362-0.12-0.11-0.232-0.23-0.338-0.354-0.077-0.091-0.142-0.185-0.172-0.301-0.055-0.215-0.004-0.454 0.107-0.643 0.031-0.050 0.079-0.139 0.128-0.174 0.023-0.015 0.043-0.023 0.069-0.012-0.031 0.050-0.073 0.108-0.086 0.171-0.031 0.14 0.041 0.326 0.087 0.455 0.031 0.081 0.054 0.163 0.099 0.237 0.056 0.091 0.146 0.156 0.231 0.221 0.134 0.103 0.284 0.182 0.438 0.254 0.204 0.095 0.438 0.188 0.66 0.235 0.276 0.058 0.573 0.045 0.857 0.027-0.077-0.087-0.153-0.175-0.232-0.261-0.065-0.072-0.13-0.141-0.184-0.222-0.074-0.11-0.119-0.236-0.184-0.352-0.382-0.682-0.592-1.455-0.684-2.227-0.023-0.191-0.027-0.382-0.027-0.575-0.003-0.294-0.015-0.577 0.064-0.864 0.048-0.174 0.108-0.346 0.176-0.516-0.039-0.142-0.066-0.286-0.077-0.433-0.027-0.392 0.047-0.782 0.123-1.165 0.069-0.346 0.21-0.653 0.398-0.947-0.208-0.16-0.417-0.319-0.628-0.474-0.078 0.035-0.161 0.054-0.24 0.083-0.138 0.051-0.288 0.135-0.406 0.223-0.153 0.115-0.242 0.286-0.349 0.44-0.101 0.148-0.18 0.303-0.196 0.484-0.012 0.135-0.008 0.284 0.001 0.418 0.008 0.102 0.072 0.181 0.12 0.269 0.068 0.124 0.145 0.249 0.201 0.379 0.067 0.155 0.082 0.313 0.077 0.48-0.004 0.153-0.056 0.258-0.109 0.398-0.049 0.13-0.091 0.248-0.194 0.348-0.111 0.108-0.251 0.148-0.397 0.186-0.13 0.035-0.234 0.035-0.367 0.023-0.031-0.003-0.138 0.015-0.158-0.023 0.008-0.019 0.067-0.035 0.085-0.040 0.041-0.012 0.085-0.015 0.123-0.035 0.054-0.027 0.088-0.069 0.122-0.116 0.075-0.105 0.101-0.215 0.113-0.341 0.008-0.083 0.019-0.196-0.015-0.271-0.1-0.2-0.276-0.356-0.442-0.498-0.118-0.101-0.225-0.213-0.318-0.337-0.099-0.132-0.206-0.29-0.215-0.46-0.004-0.113-0.004-0.235 0.023-0.344 0.035-0.148 0.074-0.311 0.142-0.447 0.067-0.136 0.194-0.251 0.302-0.354 0.13-0.124 0.282-0.21 0.443-0.287 0.16-0.076 0.342-0.112 0.509-0.172 0.171-0.061 0.336-0.186 0.465-0.313 0.041-0.040 0.078-0.085 0.113-0.133-0.072-0.058-0.144-0.115-0.215-0.174-0.095 0.053-0.188 0.11-0.29 0.151-0.093 0.035-0.19 0.056-0.279 0.101-0.101 0.051-0.182 0.13-0.275 0.193-0.11 0.075-0.226 0.138-0.335 0.214-0.193 0.137-0.421 0.221-0.603 0.373-0.083 0.070-0.158 0.15-0.248 0.21-0.076 0.050-0.153 0.085-0.218 0.151s-0.103 0.151-0.159 0.223c-0.063 0.082-0.138 0.154-0.199 0.237-0.062 0.085-0.113 0.183-0.206 0.238-0.065 0.039-0.139 0.072-0.215 0.080-0.093 0.008-0.189 0.001-0.282 0.003-0.038 0-0.073-0-0.108-0.001-0.004 0.035-0.008 0.072-0.015 0.108-0.051 0.595 0.035 1.227 0.336 1.75 0.187 0.326 0.481 0.615 0.79 0.831 0.132 0.092 0.264 0.186 0.403 0.266 0.133 0.077 0.257 0.105 0.412 0.096 0.138-0.008 0.28-0.106 0.282-0.244 0.023 0.019 0.043 0.040 0.064 0.066 0.077 0.096 0.163 0.183 0.219 0.293 0.045 0.088 0.071 0.201 0.050 0.301-0.019 0.091-0.095 0.171-0.149 0.245-0.14 0.19-0.426 0.263-0.653 0.262-0.131-0.001-0.242-0.015-0.366-0.055-0.163-0.054-0.296-0.138-0.436-0.236-0.289-0.202-0.555-0.449-0.798-0.703-0.264-0.276-0.516-0.574-0.649-0.936-0.058-0.158-0.101-0.316-0.122-0.483-0.023-0.178-0.019-0.357-0.019-0.536 0.001-0.193 0.023-0.383 0.058-0.572 0.035-0.181 0.069-0.373 0.125-0.553-0.095-0.035-0.186-0.080-0.265-0.131-0.157-0.1-0.29-0.249-0.412-0.386-0.115-0.129-0.198-0.283-0.281-0.433-0.075-0.134-0.151-0.295-0.16-0.449-0.004-0.078 0.012-0.155 0.015-0.233 0.004-0.102 0.008-0.193 0.044-0.29 0.072-0.194 0.183-0.333 0.375-0.42 0.165-0.074 0.359-0.102 0.539-0.076 0.069 0.008 0.156 0.038 0.206 0.088 0.019 0.019 0.031 0.045 0.058 0.054-0.131-0.008-0.234 0.031-0.346 0.097-0.096 0.058-0.154 0.141-0.21 0.236-0.066 0.112-0.058 0.239-0.051 0.365 0.003 0.061 0.003 0.13 0.023 0.189 0.019 0.056 0.051 0.109 0.078 0.161 0.067 0.136 0.162 0.253 0.277 0.353 0.113 0.098 0.239 0.181 0.371 0.236 0.015-0.048 0.035-0.095 0.053-0.142 0.080-0.198 0.188-0.383 0.292-0.569 0.118-0.213 0.211-0.441 0.343-0.645 0.090-0.14 0.194-0.266 0.308-0.387 0.111-0.118 0.255-0.201 0.384-0.301 0.108-0.083 0.22-0.159 0.342-0.22 0.138-0.069 0.313-0.135 0.433-0.246-0.047-0.031-0.094-0.064-0.14-0.096-0.241-0.168-0.483-0.328-0.733-0.484-0.019-0.012-0.197-0.101-0.173-0.143 0.008-0.015 0.054-0.023 0.070-0.031 0.069-0.019 0.128-0.047 0.196-0.073 0.652-0.259 1.288-0.554 1.953-0.786 0.279-0.093 0.56-0.181 0.843-0.264 0.268-0.084 0.536-0.171 0.802-0.262 0.548-0.18 1.105-0.331 1.661-0.488 0.498-0.14 1.001-0.257 1.502-0.384 0.503-0.126 0.999-0.276 1.504-0.397 0.427-0.102 0.851-0.215 1.276-0.327 0.299-0.079 0.603-0.144 0.9-0.23 0.192-0.056 0.372-0.137 0.551-0.221-0.027 0.031-0.048 0.061-0.070 0.104-0.051 0.102-0.114 0.198-0.173 0.296-0.090 0.148-0.161 0.296-0.224 0.457-0.052 0.135-0.099 0.271-0.145 0.408 0.234 0.012 0.469 0.078 0.683 0.158 0.213 0.080 0.411 0.19 0.6 0.314 0.008 0.004 0.015 0.012 0.023 0.015 0.019-0.027 0.038-0.055 0.057-0.082 0.055-0.073 0.111-0.156 0.191-0.205 0.070-0.043 0.142-0.051 0.224-0.046 0.184 0.012 0.378 0.188 0.514 0.303 0.177 0.15 0.31 0.377 0.407 0.584 0.049 0.105 0.065 0.215 0.082 0.328 0.019 0.133 0.038 0.264 0.050 0.398 0.001 0.019 0.001 0.040 0.003 0.060 0.34 0.271 0.785 0.522 1.213 0.343 0.321-0.134 0.495-0.501 0.494-0.832-0.001-0.366-0.216-0.676-0.533-0.852-0.137-0.076-0.274-0.123-0.432-0.133-0.113-0.008-0.209-0.004-0.263 0.105-0.044 0.087-0.059 0.196-0.056 0.293 0.001 0.042 0.035 0.116 0.019 0.157-0.058 0.008-0.165-0.178-0.178-0.2-0.105-0.181-0.147-0.43 0.003-0.604 0.070-0.081 0.217-0.163 0.311-0.206 0.131-0.060 0.267-0.066 0.408-0.067 0.347-0.001 0.739 0.123 1.005 0.348 0.259 0.219 0.495 0.499 0.607 0.821 0.055 0.159 0.107 0.33 0.128 0.497 0.019 0.149 0.015 0.303 0.008 0.453-0.031 0.578-0.494 1.067-1.021 1.265-0.197 0.074-0.415 0.079-0.623 0.075-0.211-0.004-0.407-0.123-0.573-0.242-0.22-0.157-0.394-0.371-0.571-0.573-0.055 0.355-0.082 0.721 0.066 1.057 0.064 0.146 0.116 0.313 0.251 0.413 0.105 0.078 0.279 0.112 0.405 0.136 0.052 0.008 0.109 0.023 0.158-0.003 0.048-0.023 0.076-0.073 0.113-0.109 0.027-0.027 0.052-0.035 0.063-0.076 0.012-0.040 0.027-0.095 0.023-0.137-0.003 0.088 0.012 0.182-0.003 0.269-0.015 0.088-0.061 0.168-0.106 0.243-0.031 0.053-0.062 0.108-0.11 0.148-0.114 0.095-0.324 0.142-0.469 0.1-0.17-0.050-0.314-0.183-0.409-0.325-0.117-0.176-0.228-0.344-0.308-0.543-0.067-0.166-0.090-0.372-0.093-0.55-0.001-0.096-0.004-0.194-0.001-0.289 0.004-0.113 0.038-0.223 0.048-0.335 0.015-0.138 0.012-0.277 0.012-0.416-0.11-0.123-0.224-0.242-0.35-0.352-0.274-0.24-0.578-0.432-0.915-0.572-0.027 0.045-0.049 0.090-0.075 0.136-0.050 0.086-0.117 0.159-0.173 0.241-0.082 0.12-0.165 0.237-0.261 0.347-0.070 0.081-0.147 0.147-0.244 0.194-0.059 0.027-0.12 0.043-0.183 0.053-0.076 0.019-0.15 0.040-0.223 0.065-0.101 0.027-0.208 0.035-0.312 0.031-0.189-0.008-0.358-0.1-0.531-0.168-0.004-0.001-0.008-0.003-0.012-0.004-0.035 0.065-0.067 0.129-0.1 0.194 0.263 0.083 0.517 0.192 0.766 0.318 0.342 0.173 0.726 0.381 0.973 0.679 0.127 0.155 0.222 0.348 0.253 0.546 0.015 0.105 0.012 0.211 0.015 0.317 0.003 0.129 0.023 0.256 0.052 0.382 0.019 0.095 0.040 0.194 0.072 0.286 0.053 0.155 0.138 0.295 0.22 0.435s0.173 0.264 0.274 0.39c0.127 0.16 0.25 0.328 0.413 0.454 0.214 0.166 0.459 0.296 0.712 0.392 0.244 0.092 0.523 0.129 0.783 0.149 0.114 0.008 0.226 0.008 0.34 0.008 0.173-0.001 0.359 0.001 0.527-0.043 0.241-0.064 0.47-0.155 0.722-0.171 0.231-0.015 0.483-0.004 0.703 0.068 0.125 0.042 0.276 0.079 0.377 0.166 0.196 0.168 0.067 0.501-0.004 0.694zM20.153 7.096c0.015-0.015 0.063-0.062 0.076-0.019-0.035 0.015-0.068 0.031-0.103 0.049 0.008-0.008 0.015-0.019 0.027-0.031zM30.201 17.416c-0.035-0.1-0.074-0.203-0.078-0.306-0.004-0.088 0.069-0.183 0.055-0.266-0.043-0.249-0.111-0.492-0.17-0.738-0.015 0.003-0.035 0.008-0.050 0.008-0.004 0.049-0.008 0.098-0.015 0.146-0.052-0.080-0.092-0.166-0.088-0.249 0.012-0.231 0.043-0.461 0.064-0.692 0.035-0.369 0.085-0.732-0.045-1.102-0.146-0.414-0.264-0.84-0.286-1.285-0.008-0.165-0.035-0.33-0.058-0.494-0.019-0.128-0.042-0.257-0.070-0.383-0.019-0.077-0.052-0.151-0.075-0.227-0.035-0.116-0.071-0.233-0.098-0.352-0.008-0.041 0.031-0.1 0.012-0.13-0.164-0.266-0.197-0.572-0.284-0.862-0.012-0.042-0.027-0.090-0.053-0.122-0.123-0.143-0.254-0.281-0.377-0.424-0.023-0.027-0.027-0.073-0.050-0.146-0.199-0.227-0.442-0.469-0.644-0.742-0.28-0.376-0.528-0.776-0.793-1.163-0.045-0.065-0.104-0.121-0.157-0.181-0.119-0.137-0.238-0.274-0.362-0.416 0.035-0.015 0.053-0.023 0.070-0.031-0.263-0.357-0.526-0.714-0.792-1.076-0.015 0.045-0.027 0.081-0.038 0.116-0.012 0.003-0.023 0.004-0.038 0.008-0.060-0.144-0.134-0.283-0.177-0.432-0.038-0.126-0.098-0.205-0.221-0.254-0.081-0.035-0.153-0.094-0.223-0.15-0.064-0.051-0.112-0.123-0.179-0.17-0.187-0.132-0.371-0.272-0.572-0.379-0.286-0.151-0.505-0.371-0.723-0.598-0.119-0.125-0.234-0.252-0.357-0.373-0.041-0.040-0.096-0.079-0.151-0.091-0.381-0.085-0.763-0.162-1.143-0.245-0.063-0.015-0.129-0.035-0.181-0.072-0.19-0.135-0.369-0.285-0.562-0.414-0.227-0.151-0.464-0.288-0.699-0.426-0.118-0.070-0.235-0.159-0.364-0.188-0.371-0.083-0.747-0.141-1.122-0.207-0.039-0.008-0.081 0.001-0.121 0.008-0.132 0.015-0.271 0.067-0.395 0.043-0.377-0.072-0.723 0.049-1.070 0.146-0.181 0.050-0.326 0.004-0.474-0.072-0.019-0.008-0.012-0.067-0.023-0.143-0.29-0.061-0.612-0.147-0.94-0.19-0.195-0.027-0.399 0.019-0.599 0.031-0.085 0.004-0.175 0.012-0.256-0.008-0.15-0.035-0.295-0.122-0.443-0.123-0.259-0.001-0.519 0.056-0.779 0.066-0.116 0.004-0.137 0.118-0.218 0.139-0.152 0.038-0.31 0.056-0.466 0.082-0-0.004-0.001-0.012-0.001-0.015 0.039-0.019 0.078-0.039 0.145-0.073-0.299-0.058-0.361-0.038-0.53 0.145-0.027 0.031-0.055 0.070-0.090 0.080-0.189 0.058-0.314 0.213-0.484 0.299-0.058 0.031-0.112 0.068-0.166 0.106-0.116 0.080-0.219 0.192-0.347 0.239-0.402 0.148-0.814 0.271-1.221 0.405-0.083 0.027-0.163 0.058-0.245 0.088 0.004 0.015 0.008 0.027 0.012 0.043l0.226-0.043c0.008 0.015 0.012 0.027 0.019 0.041-0.075 0.039-0.146 0.095-0.226 0.113-0.117 0.027-0.241 0.195-0.362 0.001-0.004-0.008-0.040-0.003-0.058 0.003-0.351 0.113-0.712 0.208-1.010 0.441-0.154 0.12-0.287 0.291-0.461 0.356-0.221 0.083-0.377 0.224-0.534 0.379-0.027 0.027-0.063 0.047-0.095 0.071-0.18 0.137-0.367 0.264-0.535 0.414-0.104 0.092-0.178 0.218-0.269 0.335-0.068-0.080-0.088-0.103-0.134-0.159-0.104 0.118-0.194 0.227-0.292 0.329-0.272 0.286-0.519 0.597-0.852 0.821-0.061 0.041-0.104 0.109-0.15 0.168-0.147 0.193-0.288 0.39-0.439 0.58-0.334 0.421-0.674 0.838-0.895 1.334-0.035 0.076-0.095 0.142-0.146 0.211-0.008 0.008-0.023 0.015-0.048 0.027 0.008-0.045 0.015-0.078 0.023-0.112-0.084 0.055-0.159 0.119-0.184 0.199-0.098 0.31-0.18 0.625-0.266 0.939-0.056 0.202-0.084 0.416-0.168 0.605-0.18 0.406-0.384 0.802-0.587 1.197-0.042 0.081-0.148 0.13-0.183 0.212-0.076 0.177-0.144 0.362-0.183 0.551-0.074 0.351-0.121 0.707-0.188 1.060-0.019 0.098-0.082 0.188-0.093 0.286-0.065 0.554-0.027 1.121-0.214 1.661-0.126 0.364-0.068 0.753 0.001 1.106 0.114 0.581 0.121 1.16 0.133 1.743 0.003 0.142 0.058 0.285 0.106 0.422 0.089 0.255 0.19 0.506 0.285 0.76 0.008 0.023 0.015 0.049 0.008 0.070-0.031 0.108-0.057 0.224 0.049 0.295 0.2 0.135 0.262 0.323 0.256 0.547-0.001 0.035 0.012 0.070 0.019 0.104 0.101 0.596 0.346 1.14 0.628 1.669 0.178 0.333 0.388 0.65 0.58 0.976 0.090 0.152 0.174 0.307 0.259 0.462 0.087 0.16 0.143 0.345 0.261 0.477 0.225 0.252 0.472 0.49 0.732 0.706 0.296 0.246 0.631 0.436 0.855 0.772 0.156 0.235 0.411 0.403 0.595 0.624 0.291 0.349 0.556 0.72 0.84 1.075 0.051 0.064 0.14 0.126 0.217 0.135 0.242 0.027 0.486 0.035 0.73 0.035 5.169-0.019 10.337-0.042 15.506-0.065 0.112-0.001 0.224 0 0.335-0.012 0.045-0.004 0.103-0.027 0.129-0.060 0.239-0.319 0.471-0.643 0.707-0.964 0.035-0.047 0.077-0.092 0.125-0.126 0.175-0.126 0.353-0.246 0.531-0.369 0.031-0.023 0.062-0.056 0.098-0.065 0.422-0.103 0.768-0.293 0.918-0.735 0.052-0.152 0.124-0.298 0.2-0.44 0.108-0.205 0.211-0.415 0.345-0.602 0.247-0.345 0.515-0.674 0.772-1.013 0.042-0.055 0.075-0.12 0.1-0.185 0.292-0.768 0.582-1.535 0.969-2.264 0.104-0.196 0.161-0.45 0.142-0.669-0.040-0.47 0.004-0.912 0.214-1.335 0.031-0.059 0.049-0.121 0.075-0.182 0.106-0.254 0.196-0.516 0.325-0.758 0.062-0.117 0.116-0.213 0.072-0.344z"></path>
<path d="M8.061 27.833c0.126 0.116 0.249 0.234 0.379 0.347 0.043 0.038 0.102 0.074 0.16 0.085 0.404 0.079 0.81 0.15 1.215 0.228 0.066 0.015 0.137 0.035 0.191 0.067 0.202 0.125 0.392 0.265 0.597 0.385 0.241 0.14 0.493 0.268 0.743 0.396 0.125 0.065 0.25 0.148 0.387 0.175 0.394 0.078 0.794 0.131 1.192 0.192 0.041 0.008 0.086-0.001 0.128-0.004 0.14-0.015 0.288-0.062 0.42-0.040 0.401 0.067 0.767-0.046 1.136-0.136 0.191-0.047 0.346-0.004 0.504 0.067 0.019 0.008 0.015 0.063 0.027 0.133 0.308 0.056 0.65 0.137 0.999 0.177 0.207 0.023 0.424-0.019 0.637-0.027 0.091-0.004 0.185-0.012 0.272 0.008 0.159 0.031 0.314 0.113 0.471 0.114 0.276 0.001 0.551-0.052 0.827-0.062 0.124-0.004 0.145-0.11 0.231-0.129 0.162-0.035 0.329-0.052 0.494-0.076 0.001 0.004 0.001 0.008 0.001 0.015-0.041 0.019-0.083 0.038-0.154 0.068 0.318 0.054 0.383 0.035 0.564-0.135 0.031-0.027 0.058-0.065 0.095-0.075 0.201-0.054 0.334-0.198 0.514-0.279 0.062-0.027 0.119-0.063 0.176-0.098 0.123-0.075 0.233-0.179 0.369-0.223 0.427-0.138 0.864-0.253 1.297-0.377 0.088-0.027 0.173-0.054 0.26-0.082-0.004-0.015-0.008-0.027-0.012-0.040-0.080 0.015-0.16 0.027-0.24 0.040-0.008-0.012-0.015-0.027-0.019-0.038 0.079-0.035 0.155-0.088 0.24-0.106 0.124-0.027 0.256-0.182 0.384-0.001 0.004 0.008 0.042 0.003 0.061-0.003 0.373-0.106 0.756-0.193 1.072-0.41 0.163-0.112 0.304-0.271 0.489-0.332 0.136-0.045 0.247-0.108 0.349-0.181h-16.888c0.154 0.109 0.294 0.231 0.432 0.358z"></path>
</svg>
