<!-- Generated by IcoMoon.io -->
<svg version="1.1" xmlns="http://www.w3.org/2000/svg" width="34" height="32" viewBox="0 0 34 32">
<title>return_to_where_doom_awaits</title>
<path d="M27.081 14.309c-0.432 0.956-2.062 1.357-2.844 1.665-0.829 0.327-1.785 0.94-2.661 0.999-0.42 0.027-0.756-0.14-1.134-0.194 0.318 1.154 1.387 1.566 1.887 2.766 0.32 0.77 0.321 2.121 0.923 2.716 0.488 0.482 1.267 0.148 1.727 0.515 0.53 0.422 0.826 1.56 1.082 2.238-1.272 0.532-1.386-0.666-1.99-1.324-0.799-0.869-1.998-0.651-2.573-1.808-0.361-0.73-0.485-1.741-0.807-2.539-0.243-0.599-0.416-1.163-0.684-1.669-0.592 0.059-1.551-0.304-2.024-0.242-1.334 0.174-2.422 0.471-3.729 0.561-0.127 0.271-0.284 0.531-0.4 0.825-0.43 1.069-0.261 1.895-0.466 2.962-0.196 1.007-0.823 1.76-1.559 2.221-0.77 0.484-2.215 0.053-2.124 1.428-0.255 0.017-0.596 0.091-0.974 0.173-0.39-0.112-0.792-0.164-1.209-0.163-0.147-0.147-0.292-0.298-0.433-0.458-0.006-0.036-0.007-0.071-0.011-0.107 0.789 0.065 1.421-0.142 2.195-0.877 0.354-0.337 0.602-0.963 0.972-1.287 0.491-0.427 1.222-0.507 1.667-0.993 0.803-0.878 0.322-1.911 0.735-2.9 0.050-0.121 0.114-0.232 0.186-0.334-0.727-1.033-1.285-1.533-2.471-1.628-0.806-0.065-1.281 0.095-1.98-0.44-0.989-0.756-2.522-2.072-2.091-3.199-0.035-0.001-0.068-0.001-0.101-0.001l0.163-0.137c0.119-0.222 0.319-0.436 0.625-0.635 1.806-1.179 4.136 0.085 6.032 0.189 1.018 0.055 1.993-0.331 2.942-0.302 1.062 0.033 1.741 0.426 2.806 0.295 1.379-0.171 2.796-0.249 4.136 0.153 1.531 0.458 3.135 0.44 4.736 0.604 0.024 0.442-0.181 0.738-0.545 0.927zM20.542 25.259c-0.006 0.134 0.052 0.331-0.010 0.452-1.57-0.486-3.184-4.447-2.504-6.42 0.176 0.005 0.243-0.101 0.391-0.148 0.128 0.635 0.633 2.005 0.989 3.23 0.166 0.57 0.266 1.18 0.53 1.678 0.276 0.527 0.704 0.665 0.797 1.402-0.091 0.059-0.137-0.15-0.193-0.193zM12.136 26.137c0.917-1.105 1.559-1.451 2.13-2.796 0.52-1.223 1.99-2.983 1.943-4.328 0.475 0.086 0.439 0.167 0.63 0.153-0.927 2.681-0.822 6.842-4.703 6.972zM10.279 7.518c0.571-0.407 0.796-1.074 1.291-1.576 0.633-0.642 1.195-0.793 2.072-1.105 1.367-0.485 2.514-0.872 4.070-0.678 0.806 0.101 0.725 0.040 1.305 0.371 0.53 0.302 0.676 0.774 1.33 0.927 0.885 0.207 1.448-0.181 2.237 0.475 0.688 0.571 1.73 2.367 1.619 3.251-0.366-0.4-0.943-0.586-1.505-0.522-0.040-1.216-2.332-1.9-3.248-2.306-1.363-0.604-3.012-1.010-4.526-0.715-1.294 0.252-2.123 0.799-3.041 1.608-0.599 0.528-1.518 1.931-2.356 1.933-0.332-1.167 1.023-1.195 0.753-1.662zM32.202 17.299c0.046-0.272-0.13-0.538-0.295-0.777v0.161c-0.019 0.001-0.037 0.002-0.056 0.005-0.007-0.131-0.040-0.265-0.019-0.391 0.069-0.412 0.166-0.82 0.239-1.233 0.020-0.115 0.016-0.243-0.013-0.358-0.091-0.38-0.194-0.757-0.299-1.133-0.088-0.311-0.177-0.623-0.284-0.928-0.065-0.183-0.16-0.356-0.25-0.527-0.037-0.070-0.102-0.125-0.151-0.19-0.020-0.027-0.035-0.062-0.046-0.095-0.069-0.193 0.088-0.394-0.022-0.589-0.037-0.066-0.056-0.145-0.066-0.222-0.029-0.214-0.048-0.432-0.072-0.649-0.005-0.036-0.014-0.076-0.036-0.105-0.118-0.167-0.243-0.327-0.36-0.495-0.020-0.029-0.009-0.079-0.014-0.137-0.269-0.242-0.391-0.623-0.675-0.897-0.256-0.248-0.417-0.59-0.622-0.891-0.135-0.197-0.275-0.39-0.406-0.59-0.114-0.174-0.299-0.291-0.318-0.544-0.010-0.137-0.157-0.281-0.273-0.39-0.232-0.216-0.485-0.41-0.73-0.615-0.005 0.037-0.010 0.079-0.014 0.121-0.016 0.007-0.030 0.013-0.046 0.019-0.096-0.142-0.191-0.286-0.291-0.429-0.063-0.092-0.132-0.181-0.199-0.273-0.049-0.066-0.099-0.132-0.145-0.202-0.079-0.117-0.153-0.236-0.232-0.351-0.027-0.039-0.066-0.071-0.095-0.109-0.117-0.154-0.227-0.315-0.353-0.462-0.032-0.037-0.112-0.039-0.171-0.047-0.085-0.011-0.177 0.002-0.258-0.020-0.344-0.101-0.687-0.2-1.023-0.321-0.135-0.049-0.269-0.135-0.373-0.236-0.32-0.308-0.72-0.517-1.019-0.856-0.158-0.18-0.415-0.279-0.636-0.394-0.248-0.13-0.504-0.24-0.759-0.354-0.14-0.062-0.278-0.144-0.425-0.166-0.286-0.042-0.579-0.042-0.868-0.069-0.332-0.032-0.679-0.006-0.987-0.174-0.331-0.183-0.692-0.148-1.048-0.154-0.026 0-0.059 0.005-0.075 0.020-0.16 0.15-0.343 0.085-0.517 0.053-0.027-0.006-0.043-0.072-0.072-0.125-0.081-0.012-0.186-0.036-0.289-0.037-0.222-0.002-0.445 0.006-0.666 0.008-0.232 0.002-0.463 0.023-0.694 0.005-0.216-0.017-0.427-0.073-0.642-0.114-0.005 0-0.006-0.013-0.010-0.013-0.086-0.008-0.183-0.043-0.259-0.019-0.2 0.069-0.4 0.148-0.581 0.253-0.095 0.056-0.249 0.085-0.245 0.253 0 0.023-0.039 0.055-0.068 0.071-0.111 0.062-0.223 0.118-0.335 0.177 0-0.017 0.001-0.035 0.002-0.052-0.033-0.007-0.068-0.026-0.098-0.020-0.163 0.035-0.322 0.081-0.486 0.108-0.066 0.012-0.14-0.027-0.204-0.016-0.255 0.043-0.508 0.096-0.761 0.145-0.312 0.060-0.623 0.119-0.934 0.181-0.043 0.008-0.088 0.039-0.128 0.033-0.286-0.040-0.53 0.115-0.794 0.17-0.047 0.010-0.083 0.071-0.125 0.108 0.008 0.007 0.017 0.014 0.026 0.022l0.242-0.078c0.006 0.016 0.011 0.030 0.017 0.046-0.168 0.114-0.337 0.229-0.505 0.343-0.008-0.025-0.016-0.047-0.023-0.071-0.060 0.003-0.131-0.010-0.177 0.016-0.145 0.082-0.282 0.18-0.422 0.272-0.227 0.151-0.445 0.32-0.684 0.446-0.173 0.091-0.386 0.102-0.561 0.19-0.413 0.207-0.825 0.422-1.095 0.825-0.098 0.145-0.212 0.282-0.341 0.455-0.030-0.060-0.046-0.092-0.058-0.115-0.312 0.263-0.425 0.629-0.619 0.944-0.177 0.285-0.36 0.579-0.594 0.816-0.284 0.288-0.629 0.514-0.937 0.78-0.305 0.263-0.361 0.646-0.455 1.010-0.037 0.147-0.071 0.295-0.106 0.443-0.017-0.005-0.035-0.008-0.053-0.011 0.006-0.045 0.010-0.089 0.016-0.132-0.073 0.072-0.101 0.161-0.15 0.237-0.101 0.163-0.212 0.319-0.321 0.476-0.029 0.042-0.071 0.072-0.098 0.114-0.171 0.255-0.343 0.509-0.508 0.767-0.029 0.045-0.040 0.102-0.053 0.157-0.068 0.288-0.125 0.579-0.204 0.864-0.072 0.262-0.166 0.52-0.249 0.779l-0.042-0.011c-0.008-0.026-0.017-0.053-0.022-0.068-0.032 0.164-0.075 0.331-0.092 0.501-0.020 0.216-0.011 0.435-0.030 0.652-0.020 0.223 0.025 0.453-0.096 0.666-0.068 0.119-0.127 0.253-0.15 0.387-0.096 0.583-0.171 1.166-0.475 1.694-0.219 0.381-0.236 0.813-0.16 1.233 0.124 0.687 0.245 1.376 0.515 2.025 0.016 0.037 0.059 0.063 0.083 0.099 0.091 0.138 0.178 0.278 0.268 0.417l-0.030 0.022c-0.033-0.014-0.066-0.030-0.099-0.045 0.151 0.199 0.178 0.445 0.108 0.63-0.078 0.209-0.071 0.37 0.020 0.55 0.008-0.016 0.017-0.033 0.049-0.088 0.014 0.16 0.026 0.279 0.036 0.4 0.011 0.128 0.014 0.258 0.036 0.383 0.124 0.714 0.409 1.374 0.656 2.048 0.25 0.676 0.702 1.233 1.062 1.842 0.19 0.322 0.45 0.615 0.767 0.848 0.356 0.261 0.715 0.511 0.964 0.905 0.174 0.276 0.448 0.497 0.691 0.725 0.387 0.363 0.779 0.722 1.184 1.066 0.627 0.534 1.242 1.099 2.098 1.255 0.058 0.010 0.118 0.001 0.176 0.012 0.201 0.035 0.415 0.043 0.599 0.119 0.189 0.079 0.347 0.229 0.522 0.344 0.027 0.019 0.071 0.016 0.108 0.022 0.056 0.010 0.127 0 0.168 0.030 0.338 0.243 0.691 0.446 1.099 0.556 0.289 0.078 0.571 0.189 0.855 0.291 0.094 0.035 0.181 0.118 0.272 0.119 0.351 0.008 0.662 0.166 0.996 0.235 0.491 0.101 0.979 0.235 1.458-0.053 0.052-0.030 0.137-0.013 0.206-0.007s0.138 0.049 0.204 0.040c0.645-0.079 1.29-0.166 1.934-0.248 0.324-0.042 0.649-0.078 0.974-0.119 0.258-0.032 0.515-0.059 0.77-0.105 0.32-0.058 0.638-0.131 0.956-0.197 0.016-0.005 0.033 0.001 0.050-0.001 0.15-0.024 0.317-0.014 0.445-0.081 0.383-0.2 0.75-0.429 1.123-0.649 0.115-0.066 0.212-0.197 0.368-0.079 0.014 0.010 0.062-0.014 0.091-0.029 0.387-0.199 0.805-0.296 1.228-0.363 0.301-0.047 0.43-0.281 0.602-0.475 0.017-0.019 0.007-0.060 0.012-0.117-0.060 0.052-0.104 0.091-0.147 0.128l-0.037-0.024c0.045-0.075 0.073-0.17 0.138-0.224 0.263-0.22 0.524-0.448 0.784-0.671 0.386-0.33 0.684-0.759 1.147-1.003 0.177-0.093 0.312-0.266 0.471-0.399 0.030-0.027 0.075-0.042 0.114-0.056 0.357-0.135 0.697-0.288 0.865-0.669 0.144-0.328 0.291-0.655 0.459-0.969 0.082-0.153 0.203-0.292 0.33-0.413 0.511-0.484 1.053-0.935 1.379-1.583 0.112-0.224 0.265-0.427 0.396-0.642 0.040-0.066 0.075-0.137 0.101-0.21 0.115-0.308 0.239-0.615 0.334-0.93 0.088-0.292 0.148-0.593 0.212-0.892 0.048-0.223 0.068-0.452 0.125-0.671 0.078-0.296 0.229-0.581 0.256-0.881 0.029-0.305 0.094-0.597 0.163-0.891 0.029-0.121 0.095-0.252 0.072-0.363-0.052-0.243-0.163-0.455-0.115-0.735z"></path>
<path d="M12.345 13.508c-1.7 0.092-3.386-0.168-5.089-0.261 1.15 0.533 2.658 1.822 3.32 2.251 0.737 0.476 2.313 1.376 2.736 2.465 0.413-0.366 0.884-0.691 1.147-1.212 0.027 0.158 0.035 0.304 0.024 0.44 1.072-0.669 2.183-0.688 3.112-0.632 0.108 0.006 0.94 0.049 1.691 0.176-0.056-0.050-0.115-0.101-0.178-0.148 0.443 0.049 0.907-0.058 1.243-0.416 0.005 0.134 0.020 0.258 0.040 0.376 0.879-0.491 1.716-1.239 2.529-1.501 0.543-0.174 1.030-0.363 1.513-0.527-2.353-0.237-5.263-1.087-5.987-1.157-2.113-0.206-3.982 0.032-6.101 0.145z"></path>
</svg>
