<!-- Generated by IcoMoon.io -->
<svg version="1.1" xmlns="http://www.w3.org/2000/svg" width="32" height="32" viewBox="0 0 32 32">
<title>return_to_pillars_of_judgement</title>
<path d="M18.516 28.767c-0-0-0-0.001-0.001-0.001-0.003 0.002-0.002 0.002 0.001 0.001z"></path>
<path d="M20.469 27.895c-0.001 0-0.002 0.001-0.005 0.003 0.002-0.002 0.003-0.002 0.005-0.003z"></path>
<path d="M24.624 23.616c0.018-0.012 0.041-0.031 0.076-0.057-0.025 0.018-0.051 0.038-0.076 0.057z"></path>
<path d="M14.368 1.016c-0.050 0.028-0.098 0.054-0.145 0.079-0.032 0.013-0.064 0.028-0.092 0.042-0.058 0.023-0.111 0.048-0.164 0.070-0.104 0.042-0.198 0.078-0.272 0.114l0.165-0.114c-0.1 0.068-0.185 0.113-0.274 0.162l0.125-0.009c-0.108 0.048-0.194 0.094-0.204 0.074-0.089 0.088 0.122 0.032-0.068 0.187-0.075 0.027-0.176 0.090-0.268 0.143-0.047 0.025-0.093 0.046-0.13 0.063-0.020 0.006-0.035 0.013-0.050 0.015-0.009 0-0.015-0.003-0.022-0.011 0.006-0.001 0.036-0.016 0.055-0.026 0.021-0.011 0.039-0.023 0.055-0.029 0.028-0.016 0.044-0.027 0.055-0.035 0.018-0.018 0.006-0.023-0.009-0.024-0.025-0.006-0.057-0.012 0.040-0.076-0.055 0.032-0.118 0.064-0.193 0.098-0.019 0.001 0.009-0.023 0.035-0.040-0.029 0.011-0.074 0.030-0.081 0.031-0.004-0.001-0.004-0.001-0.007 0-0.004-0.001-0.005 0.001-0.005 0.002-0.009 0.002-0.037 0.006-0.048 0.011-0.031 0.009-0.050 0.021-0.077 0.033-0.052 0.024-0.126 0.051-0.334 0.055 0.042-0.026-0.025-0.042-0.097-0.052 0.046 0.019-0.045 0.061-0.18 0.085-0.314-0.021-0.341 0.029-0.505 0.029l0.187 0.009c-0.029 0.019-0.083 0.030-0.154 0.037-0.074 0.005-0.168 0.009-0.279 0.017-0.008 0.002-0.020 0.005-0.029 0.011-0.007-0.005 0.004-0.015 0.026-0.026-0.082 0.031-0.121 0.043-0.186 0.059-0.062 0.010-0.126 0.022-0.193 0.035-0.131 0.024-0.27 0.055-0.404 0.119-0.158 0.024-0.035-0.063-0.173-0.037-0.134 0.064-0.227 0.089-0.31 0.107-0.041 0.009-0.079 0.014-0.121 0.024-0.022 0.004-0.042 0.010-0.066 0.015-0.012 0.004-0.025 0.005-0.037 0.009-0.023 0.006-0.043 0.014-0.066 0.020-0.022 0.013-0.044 0.027-0.068 0.040-0.013 0.007-0.029 0.018-0.044 0.028-0.031 0.020-0.063 0.045-0.097 0.072 0.124-0.018 0.134-0.038-0.081 0.152l0.323-0.222 0.294-0.114-0.13 0.072c-0.050 0.024-0.073 0.040-0.151 0.074-0.059 0.044-0.079 0.068-0.114 0.099 0.040-0.025 0.083-0.054 0.123-0.081 0.043-0.016 0.085-0.033 0.125-0.048 0.038-0.015 0.071-0.030 0.103-0.042 0.067-0.028 0.127-0.049 0.173-0.061-0.179 0.103-0.166 0.085-0.063 0.096-0.056 0.001-0.109 0.011-0.16 0.024-0.025 0.006-0.053 0.016-0.077 0.026l-0.090 0.035c-0.071 0.052-0.142 0.104-0.217 0.16-0.071 0.051-0.147 0.098-0.237 0.134l-0.057-0.11c-0.316 0.145-0.551 0.354-0.842 0.555-0.094 0.051-0.237 0.12-0.38 0.176l0.189-0.063c-0.055 0.079-0.343 0.164-0.514 0.265-0.001-0.045-0.119-0.006-0.208 0.002 0.020 0.025-0.405 0.183-0.426 0.285l-0.074 0.022-0.066 0.048-0.050 0.031-0.096 0.061c-0.373 0.325-0.325 0.477-0.678 0.794 0.072-0.131-0.105-0.002 0.101-0.246-0.114 0.11-0.221 0.201-0.202 0.224-0.019 0.009-0.045 0.033-0.072 0.061-0.029 0.033-0.066 0.075-0.103 0.119-0.034 0.062-0.071 0.13-0.105 0.191-0.032 0.053-0.063 0.1-0.094 0.129-0.023 0.066 0.003 0.108-0.096 0.254-0.012 0.008-0.017 0.001-0.019-0.005-0.003 0.038-0.121 0.234-0.005 0.137-0.084 0.075-0.167 0.174-0.25 0.287-0.042 0.053-0.081 0.113-0.121 0.175-0.038 0.056-0.074 0.113-0.112 0.171-0.064 0.057-0.13 0.117-0.195 0.175-0.068 0.058-0.136 0.117-0.2 0.173-0.131 0.108-0.258 0.198-0.367 0.25-0.14 0.131-0.293 0.275-0.434 0.406-0.068 0.194-0.132 0.372-0.184 0.526-0.005-0.024-0.019-0.009 0.005-0.063-0.186 0.393 0.021 0.29-0.189 0.739-0.151 0.213 0.054-0.257-0.024-0.119-0.044 0.005-0.076 0.051-0.107 0.123-0.015 0.036-0.030 0.080-0.046 0.125-0.011 0.042-0.034 0.108-0.035 0.123-0.004 0.011-0.028 0.048-0.053 0.083l-0.072 0.107c-0.050 0.067-0.104 0.128-0.162 0.175l0.042-0.070c-0.189 0.175-0.326 0.53-0.581 0.858 0 0-0.001-0.024-0.018-0.015-0.006 0.022-0.022 0.057-0.051 0.107-0.015 0.079-0.033 0.169-0.051 0.268-0.019 0.089-0.040 0.185-0.064 0.283-0.048 0.195-0.102 0.398-0.149 0.575-0.013-0.134 0.027-0.18-0.048-0.127-0.048 0.174 0.098-0.022 0.004 0.323-0.028 0.046-0.057 0.101-0.097 0.178-0.036 0.107-0.071 0.19-0.108 0.208l0.031-0.226 0.042-0.129c-0.013 0.016-0.028 0.029-0.038 0.048-0.010 0.016-0.018 0.037-0.033 0.074-0.004 0.025-0.009 0.049-0.015 0.075l-0.011 0.064c-0.004 0.043-0.004 0.086-0.005 0.129-0.004 0.086-0.008 0.169-0.026 0.237l-0.029-0.029c-0.064 0.499 0.012 0.538-0.066 1.044-0.001 0.006-0.005 0.016-0.007 0.026 0.006-0.010 0.014-0.017 0.020-0.024 0.005-0.005 0.011-0.009 0.017-0.018 0.001 0.012 0.001 0.017 0.002 0.022 0 0.276-0.107 0.216-0.119 0.513l-0.105 0.068c-0.031 0.197-0.084 0.701-0.171 1.049 0.004-0.209 0.067-0.627 0.097-0.887-0.033 0.127-0.066 0.325-0.097 0.509 0.012 0.256-0.058 0.566-0.169 0.944-0.044-0.036-0.097 0.055-0.153 0.204-0.028 0.074-0.056 0.164-0.086 0.257-0.034 0.106-0.068 0.217-0.101 0.325 0.005 0.039 0.012 0.078 0.018 0.116 0.002 0.027 0.005 0.052 0.009 0.077 0.005 0.048 0.013 0.098 0.017 0.143 0.005 0.088 0.003 0.161-0.009 0.215 0.045 0.166 0.082 0.335 0.114 0.505 0.015 0.086 0.030 0.172 0.046 0.259 0.013 0.092 0.028 0.182 0.042 0.277 0.058 0.179 0.116 0.363 0.176 0.551 0.060 0.183 0.124 0.372 0.197 0.566 0.021-0.314 0.084 0.222 0.189 0.13 0.031 0.080 0.051 0.135 0.066 0.173 0.004 0.028 0.008 0.067 0.005 0.072v0.002l0.013 0.581c-0.016 0.14-0.057-0.175-0.083-0.152 0.056 0.411-0.026 0.181-0.016 0.457 0.038-0.063 0.087 0.132 0.108 0.369l0.007-0.338c0.076 0.27 0.071 0.382 0.068 0.525 0.010 0.159 0.005 0.273 0.118 0.568l-0.085-0.169c0.039 0.112 0.089 0.302 0.145 0.507 0.031 0.103 0.061 0.209 0.090 0.312 0.018 0.050 0.035 0.101 0.050 0.149 0.020 0.054 0.039 0.104 0.055 0.152 0.023 0.050 0.028 0.057 0.040 0.081 0.013 0.020 0.024 0.038 0.035 0.055 0.023 0.036 0.049 0.068 0.070 0.092 0.005 0.055-0.002 0.132-0.061 0.013 0.074 0.194 0.161 0.399 0.254 0.601 0.096 0.209 0.194 0.419 0.287 0.619 0.052 0.072 0.103 0.141 0.152 0.208 0.043 0.061 0.085 0.121 0.125 0.18 0.080 0.118 0.149 0.229 0.204 0.336l-0.055-0.029c0.082 0.107 0.18 0.162 0.248 0.32-0.018 0-0.059-0.028-0.026 0.024 0.016 0.019 0.051 0.058 0.094 0.105 0.020 0.024 0.040 0.048 0.064 0.075 0.024 0.031 0.041 0.048 0.083 0.107 0.029 0.027 0.060 0.057 0.088 0.083 0.023 0.023 0.042 0.043 0.061 0.064l-0.134-0.081c0.479 0.518 0.834 0.687 1.275 1.075-0.066 0.067 0.313 0.464 0.503 0.661l-0.017 0.002c0.145 0.138 0.281 0.26 0.415 0.377 0.128 0.122 0.254 0.236 0.377 0.345 0.126 0.111 0.246 0.22 0.375 0.331 0.061 0.058 0.125 0.114 0.189 0.173 0.034 0.029 0.066 0.059 0.099 0.090 0.037 0.035 0.076 0.070 0.114 0.107 0.015 0.007 0.030 0.019 0.048 0.029 0.111 0.115 0.291 0.258 0.503 0.413 0.108 0.076 0.222 0.158 0.34 0.241 0.13 0.091 0.265 0.183 0.401 0.276 0.155 0.043 0.311 0.087 0.461 0.129 0.134 0.040 0.263 0.081 0.382 0.121-0.107-0.045 0.036-0.066 0.167-0.042 0.167 0.063 0.489 0.060 0.439 0.136l-0.059-0.018c0.016 0.017 0.040 0.035 0.068 0.052 0.012 0.007 0.026 0.016 0.042 0.024 0.020 0.006 0.010 0.004 0.017 0.011-0.007 0.001 0.048 0.036 0.086 0.059 0.043 0.025 0.085 0.052 0.13 0.077 0.091 0.050 0.186 0.102 0.272 0.149l0.094-0.075c0.099 0.087 0.217 0.17 0.345 0.25 0.063 0.040 0.128 0.082 0.195 0.119 0.075 0.042 0.15 0.080 0.226 0.121l0.231 0.077c0.070 0.021 0.139 0.041 0.208 0.063 0.138 0.043 0.275 0.084 0.397 0.121 0.246 0.079 0.447 0.16 0.557 0.248 0.028 0.005 0.035 0.006 0.094 0.020 0.084 0.011 0.177 0.022 0.268 0.033 0.087 0.009 0.172 0.021 0.25 0.024l-0.022 0.057c0.191 0.043 0.344 0.077 0.502 0.112 0.079 0.017 0.159 0.034 0.246 0.052 0.098 0.019 0.203 0.040 0.321 0.064 0.068-0.006 0.197-0.021 0.34-0.033l-0.123 0.053c0.345-0.023 0.423-0.206 0.74-0.231l0.101 0.083 0.263-0.016 0.272-0.011 0.336-0.048 0.318-0.050c0.211-0.036 0.42-0.083 0.625-0.149-0.007 0.015-0.023 0.044-0.118 0.064 0.083-0.013 0.213-0.032 0.351-0.053 0.078-0.004 0.157-0.007 0.231-0.011 0.079-0.005 0.155-0.013 0.217-0.022 0.113-0.016 0.184-0.039 0.168-0.074 0.072 0.056 0.633-0.048 0.937-0.11l-0.044 0.066c0.266-0.11 0.272-0.132 0.65-0.2 0.091-0.004 0.085 0.035-0.035 0.035 0.304-0.006 0.226-0.083 0.595-0.097l-0.13 0.055c0.151-0.017 0.222-0.030 0.274-0.046s0.084-0.034 0.191-0.070c0.001-0.001 0.006-0.006 0.011-0.009 0.025-0.019 0.054-0.042 0.084-0.064 0.024-0.016 0.052-0.031 0.079-0.050 0.056-0.035 0.116-0.072 0.175-0.101 0.115-0.059 0.22-0.099 0.254-0.088 0.017-0.051 0.136-0.178 0.299-0.265 0.032 0.004-0.018 0.049-0.042 0.072 0.107-0.058 0.197-0.116 0.276-0.169 0.040-0.029 0.076-0.054 0.114-0.081l0.050-0.039 0.031-0.024c0.016-0.009 0.064-0.027 0.108-0.040 0.043-0.015 0.084-0.031 0.127-0.044 0.084-0.024 0.171-0.043 0.268-0.052 0.012 0.016 0.034 0.020 0.066 0.018-0.235 0.059-0.441 0.114-0.558 0.143-0.024 0.015-0.043 0.026-0.053 0.031-0.009 0.006-0.015 0.009-0.018 0.010 0.013 0.020 0.083-0.005 0.091 0.006 0.015 0.005 0.021 0.011 0.029 0.020 0.004 0.009-0.001 0.026 0 0.042 0 0.003 0.001 0.007 0.002 0.011 0-0.002 0.001-0.007 0.002-0.011 0.017-0.006 0.034-0.014 0.050-0.022 0.038-0.015 0.075-0.032 0.114-0.050 0.078-0.032 0.16-0.066 0.244-0.101 0.167-0.068 0.342-0.129 0.496-0.156 0.016 0.001 0.031 0.001 0.044 0.005l-0.031 0.013c0.074-0.013 0.141-0.035 0.2-0.059 0.051-0.009 0.093-0.018 0.134-0.026 0.047-0.009 0.063-0.013 0.16-0.037 0.017 0.005 0.057 0.001 0.117-0.011 0.035-0.035 0.079-0.081 0.127-0.136 0.027-0.032 0.055-0.065 0.084-0.101 0.058-0.070 0.12-0.142 0.162-0.193-0.054-0.026 0.087-0.185-0.072-0.068 0.003 0.001-0.031 0.047-0.091 0.119-0.013 0.021-0.031 0.044-0.039 0.059 0-0.004 0.001-0.009 0.002-0.015l-0.217 0.265-0.184 0.050c0.038-0.022 0.113-0.050 0.169-0.072 0.020-0.028 0.041-0.057 0.063-0.086 0.017-0.023 0.037-0.049 0.057-0.074 0.033-0.043 0.073-0.083 0.123-0.123 0.025-0.091 0.057-0.188 0.075-0.241 0.211-0.12 0.531-0.43 0.608-0.443 0.054-0.071 0.108-0.147 0.167-0.224 0.080-0.068 0.163-0.139 0.244-0.208 0.087-0.076 0.17-0.149 0.252-0.219 0.159-0.146 0.295-0.284 0.371-0.401 0.104-0.1 0.149-0.077 0.202-0.097-0.060 0.061-0.138 0.122-0.163 0.162 0.202-0.21 0.687-0.512 0.695-0.617 0.318-0.182-0.126 0.177 0.276-0.121l-0.040 0.057c0.107-0.056 0.203-0.114 0.296-0.175 0.046-0.032 0.090-0.063 0.134-0.092 0.055-0.040 0.11-0.079 0.162-0.119l0.066-0.123 0.042-0.084 0.075-0.169c0.050-0.112 0.101-0.224 0.151-0.338 0.1-0.224 0.219-0.471 0.356-0.693 0.079-0.074 0.188-0.168 0.303-0.257-0.013 0.009-0.024 0.015-0.033 0.016 0.146-0.128 0.288-0.263 0.43-0.399l0.209-0.209 0.222-0.219c0.292-0.467 0.536-0.88 0.836-1.341l0.088-0.272 0.088-0.254c0.060-0.17 0.124-0.335 0.191-0.498 0.098-0.256 0.096-0.336 0.107-0.474 0-0.036 0.004-0.078 0.004-0.129l0.077-0.061 0.007-0.371c0.063-0.516 0.345-0.84 0.402-1.499l-0.061 0.074c0.063-0.227 0.151-0.733 0.189-0.682-0.001-0.027-0.026-0.083 0.017-0.169h0.037l0.011-0.085 0.020-0.114-0.044-0.123v0.005l-0.035-0.096-0.075-0.193c-0.094-0.438 0.148 0.035-0.015-0.599-0.078-0.231-0.276-0.643-0.274-0.549 0.024 0.095 0.046 0.247 0.015 0.265l-0.074-0.209c-0.006-0.001-0.015-0.002-0.022-0.004l-0.011-0.035 0.312-1.534-0.276-1.029 0.024 0.020-0.037-0.070-0.088-0.327c0.013 0.006 0.034 0.033 0.055 0.097-0.007-0.096-0.021-0.144-0.039-0.191-0.039-0.067-0.069-0.088-0.097-0.222-0.004-0.025 0.006-0.018 0.018 0l-0.125-0.208c0.036 0.035 0.040-0.063 0.090 0.077-0.134-0.415-0.354-0.606-0.362-0.781l0.022 0.029c-0.209-0.397-0.149-0.21-0.219-0.259l-0.004-0.011-0.037-0.261 0.083-0.222-0.072-0.052c-0.006-0.060-0.016-0.182 0.013-0.164-0.073-0.222-0.024 0.043-0.083-0.085 0.015-0.233-0.064-0.565-0.068-0.774-0.033-0.059-0.054-0.107-0.040-0.134-0.107-0.060 0.146 0.261-0.079 0.016 0.035-0.14-0.233-0.285-0.356-0.535 0.096 0.033 0.225 0.26 0.103 0.011-0.175-0.075-0.297-0.439-0.448-0.612-0.071 0.037-0.319-0.386-0.564-0.683 0.036 0.004-0.391-0.612-0.564-0.928l0.015 0.002c-0.103-0.013-0.299-0.326-0.465-0.54 0.044-0.017 0.088 0.012 0.187 0.121l-0.141-0.211c-0.055-0.035-0.108-0.094-0.208-0.224l0.084 0.022-0.075-0.101-0.103-0.086-0.090-0.074c-0.060-0.048-0.125-0.1-0.189-0.151-0.128-0.106-0.26-0.219-0.391-0.364-0.037 0.018 0.045 0.167-0.011 0.176l-0.171-0.16c0.019-0.007 0.048-0.002 0.097 0.033-0.032-0.024-0.121-0.075-0.171-0.138l0.169 0.088c-0.131-0.15-0.105-0.040-0.219-0.151 0.032-0.028-0.063-0.101-0.024-0.11 0.032 0.024 0.089 0.105 0.145 0.134-0.063-0.061-0.145-0.146-0.182-0.197-0.027-0.054-0.066-0.132-0.072-0.165-0.011 0.028-0.046 0.037-0.129-0.064-0.205-0.267-0.030-0.124-0.13-0.294-0.072-0.047-0.178-0.236-0.231-0.204-0.059-0.079-0.048-0.109-0.057-0.151-0.035-0.034-0.087-0.098-0.143-0.167-0.067-0.082-0.136-0.171-0.195-0.244-0.205-0.051-0.257-0.053-0.187 0l0.050 0.018c-0.011-0.001-0.023-0.005-0.035-0.007-0.237-0.041-0.472-0.111-0.707-0.187l-0.353-0.118c-0.112-0.038-0.219-0.074-0.329-0.108l-0.094-0.081-0.11-0.088 0.013-0.015c-0.273-0.202-0.581-0.48-0.794-0.604-0.076-0.064-0.155-0.182-0.107-0.173-0.031-0.023-0.059-0.045-0.077-0.059-0.048-0.020-0.088-0.035-0.127-0.050-0.036-0.015-0.070-0.030-0.107-0.046-0.073-0.036-0.158-0.083-0.296-0.169 0.25 0.083-0.067-0.068 0.252 0.096-0.294-0.166-0.349-0.23-0.696-0.34 0.132 0.005-0.192-0.172-0.351-0.233l0.198 0.141c-0.047-0.020-0.091-0.040-0.134-0.061-0.049-0.024-0.098-0.049-0.145-0.074-0.080-0.012-0.155-0.022-0.231-0.035l0.094-0.059c-0.333-0.087-0.644-0.090-0.935-0.099-0.145-0.004-0.284-0.010-0.421-0.028-0.134-0.019-0.26-0.063-0.382-0.121-0.187 0.013 0.361 0.105 0.191 0.13-0.308-0.070-0.612-0.233-0.709-0.25-0.171-0.051-0.272-0.056-0.362-0.053-0.046 0.002-0.085 0.005-0.132 0.007-0.023 0.001-0.050 0.001-0.075 0-0.029-0.001-0.049-0.001-0.101-0.009-0.032 0-0.066 0.002-0.105 0.002-0.034 0-0.071-0.003-0.114-0.005 0.059 0.027 0.114 0.092-0.226 0.112-0.316-0.015-0.388-0.111-0.187-0.129 0.076-0.001 0.113 0.007 0.11 0.017 0.103-0.007 0.236-0.016 0.11-0.046l-0.042 0.026c-0.156-0.029-0.591-0.033-0.487-0.074-0.241 0.022-0.106 0.039 0.072 0.055-0.262-0.029-0.462-0.025-0.667-0.028-0.096-0.006-0.229-0.019-0.369-0.040 0.065 0.020 0.124 0.054 0.059 0.048-0.609-0.087-0.273 0.022-0.687-0.004-0.232-0.059 0.092-0.083-0.327-0.088-0.253-0.050-0.048-0.071 0.053-0.083-0.046 0.001-0.090 0.001-0.134 0l-0.094-0.005c-0.037-0.004-0.073-0.007-0.108-0.011h-0.002v-0zM16.712 3.375c0.222-0.001 0.466 0.018 0.649 0.102 0.548 0.256 1.133 0.381 1.574 0.829 0.329 0.335 0.558 0.707 0.679 1.162 0.046 0.169 0.027 0.36 0.034 0.536 0.008 0.192 0.034 0.392 0.008 0.582-0.062 0.451-0.115 0.887-0.324 1.3-0.046 0.088-0.020 0.12-0.086 0.215-0.074 0.107-0.124 0.191-0.176 0.312-0.056 0.129-0.117 0.243-0.201 0.355-0.116 0.157-0.275 0.343-0.445 0.44-0.149 0.084-0.374 0.095-0.538 0.152-0.355 0.127-0.789 0.079-1.165 0.094-0.275 0.010-0.557 0.059-0.819-0.035-0.18-0.064-0.366-0.088-0.542-0.165-0.266-0.115-0.531-0.302-0.701-0.524-0.076-0.099-0.188-0.16-0.265-0.255-0.067-0.082-0.079-0.154-0.123-0.25-0.068-0.148-0.101-0.249-0.1-0.415 0.001-0.143 0.023-0.28 0.049-0.417 0.018-0.094 0.053-0.23 0.129-0.295 0.014 0.084-0.065 0.102-0.069 0.176-0.003 0.050 0.014 0.072 0.024 0.119 0.017 0.086 0.097 0.213 0.124 0.31 0.061 0.215 0.089 0.534 0.216 0.711 0.103 0.144 0.359 0.294 0.514 0.35 0.102 0.038 0.219 0.024 0.326 0.068 0.11 0.046 0.212 0.082 0.334 0.107 0.51 0.101 0.961 0.017 1.466-0.115 0.254-0.066 0.494-0.21 0.724-0.34 0.167-0.094 0.426-0.214 0.535-0.367 0.131-0.182 0.243-0.424 0.286-0.645 0.015-0.078-0.009-0.149 0.009-0.232 0.020-0.094 0.079-0.18 0.099-0.276 0.041-0.205 0.065-0.464 0.055-0.671-0.031-0.721-0.524-1.313-1.079-1.709-0.238-0.171-0.543-0.312-0.822-0.405-0.316-0.105-0.655-0.073-0.987-0.049-0.931 0.067-1.976 0.425-2.575 1.167-0.153 0.191-0.331 0.332-0.437 0.567-0.078 0.174-0.118 0.378-0.178 0.56-0.137 0.42-0.046 0.96 0.066 1.377 0.117 0.434 0.378 0.691 0.711 0.986 0.227 0.201 0.467 0.434 0.748 0.556 0.354 0.152 0.775 0.343 1.15 0.429 0.113 0.026 0.248 0.018 0.359 0.046 0.065 0.016 0.139 0.065 0.207 0.050 0.010-0.020 0.018-0.039 0.028-0.060-0-0-0-0-0.001-0l0.001 0c0 0 0 0 0 0 0.602 0.275 0.331 0.335 0.215 0.376-0.152 0.054-0.269 0.096-0.431 0.1-0.37 0.011-0.743 0.038-1.104-0.039-0.236-0.050-0.469-0.071-0.711-0.142-0.23-0.070-0.385-0.187-0.573-0.329-0.124-0.093-0.29-0.151-0.397-0.262-0.113-0.116-0.181-0.263-0.296-0.38-0.225-0.23-0.339-0.513-0.499-0.786-0.29-0.493-0.256-1.093-0.263-1.655-0.002-0.161 0.016-0.296 0.036-0.456 0.018-0.139-0.020-0.282 0.010-0.419 0.023-0.103 0.083-0.214 0.111-0.317 0.027-0.096 0.049-0.191 0.081-0.289 0.075-0.231 0.113-0.43 0.284-0.612 0.163-0.176 0.369-0.312 0.582-0.421 0.573-0.299 1.219-0.482 1.848-0.621 0.477-0.106 0.936-0.152 1.425-0.173 0.066-0.003 0.137-0.006 0.211-0.006zM17.346 9.755c0.37 0.003 0.744-0.010 1.103 0.081 0.232 0.059 0.466 0.088 0.705 0.169 0.228 0.077 0.378 0.2 0.56 0.35 0.12 0.098 0.285 0.162 0.388 0.277 0.109 0.12 0.171 0.268 0.281 0.391 0.216 0.238 0.319 0.525 0.469 0.805 0.27 0.504 0.214 1.102 0.201 1.663-0.004 0.161-0.028 0.295-0.054 0.454-0.022 0.138 0.010 0.283-0.026 0.418-0.026 0.103-0.089 0.212-0.122 0.313-0.030 0.096-0.056 0.19-0.092 0.287-0.074 0.203-0.119 0.38-0.253 0.542 0.113 0.262 0.205 0.528 0.237 0.821 0.010 0.099 0.049 0.111 0.047 0.227-0.003 0.13 0.001 0.228 0.024 0.358 0.023 0.138 0.035 0.267 0.026 0.406-0.011 0.196-0.041 0.438-0.131 0.613-0.078 0.151-0.261 0.282-0.365 0.421-0.228 0.301-0.618 0.498-0.924 0.717-0.224 0.16-0.433 0.354-0.703 0.42-0.187 0.046-0.355 0.127-0.544 0.16-0.286 0.049-0.61 0.038-0.874-0.054-0.118-0.041-0.245-0.032-0.363-0.067-0.101-0.033-0.15-0.086-0.239-0.141-0.138-0.087-0.22-0.154-0.311-0.293-0.078-0.12-0.135-0.246-0.189-0.376-0.036-0.088-0.081-0.222-0.053-0.318 0.058 0.063 0.001 0.122 0.038 0.186 0.025 0.044 0.052 0.052 0.086 0.087 0.062 0.062 0.198 0.125 0.274 0.191 0.169 0.148 0.368 0.398 0.571 0.477 0.165 0.064 0.462 0.049 0.621 0.011 0.106-0.025 0.197-0.1 0.309-0.122 0.117-0.023 0.221-0.048 0.338-0.094 0.483-0.195 0.813-0.513 1.163-0.899 0.177-0.196 0.299-0.447 0.42-0.682 0.088-0.172 0.237-0.413 0.245-0.602 0.010-0.224-0.029-0.486-0.114-0.695-0.032-0.074-0.089-0.12-0.121-0.199-0.017-0.043-0.025-0.090-0.033-0.137-0.029 0.015-0.058 0.030-0.088 0.043-0.584 0.276-1.238 0.435-1.871 0.551-0.433 0.079-0.85 0.11-1.287 0.117 0.002 0.204-0.018 0.41-0.080 0.619-0.135 0.45-0.352 0.83-0.693 1.154-0.127 0.121-0.303 0.197-0.455 0.287-0.164 0.099-0.327 0.217-0.506 0.287-0.063 0.024-0.127 0.048-0.19 0.072 0.168 0.262 0.401 0.5 0.613 0.688 0.336 0.299 0.694 0.37 1.134 0.434 0.3 0.043 0.63 0.107 0.932 0.054 0.379-0.066 0.836-0.138 1.197-0.271 0.109-0.040 0.216-0.121 0.325-0.159 0.064-0.023 0.153-0.023 0.202-0.073l-0.010-0.065v-0c0.655-0.101 0.46 0.099 0.385 0.197-0.098 0.128-0.173 0.227-0.305 0.319-0.304 0.212-0.6 0.44-0.946 0.573-0.224 0.087-0.43 0.199-0.672 0.27-0.23 0.070-0.425 0.056-0.66 0.040-0.154-0.011-0.325 0.033-0.476-0.001-0.159-0.036-0.295-0.119-0.456-0.155-0.314-0.070-0.565-0.243-0.849-0.383-0.513-0.254-0.813-0.774-1.127-1.24-0.002-0.003-0.003-0.005-0.005-0.008-0.126 0.025-0.254 0.042-0.387 0.046-0.099 0.003-0.114 0.040-0.229 0.029-0.13-0.013-0.228-0.016-0.359-0.005-0.139 0.014-0.268 0.015-0.407-0.005-0.194-0.026-0.432-0.075-0.599-0.179-0.144-0.089-0.262-0.282-0.392-0.397-0.281-0.251-0.449-0.655-0.642-0.978-0.14-0.235-0.318-0.459-0.363-0.734-0.030-0.189-0.098-0.363-0.116-0.554-0.026-0.289 0.011-0.611 0.124-0.868 0.050-0.114 0.050-0.241 0.097-0.355 0.039-0.099 0.097-0.143 0.16-0.228 0.097-0.13 0.169-0.207 0.316-0.287 0.126-0.067 0.256-0.115 0.39-0.157 0.090-0.029 0.227-0.064 0.321-0.028-0.067 0.052-0.123-0.009-0.189 0.023-0.046 0.022-0.056 0.048-0.093 0.079-0.066 0.056-0.139 0.186-0.213 0.257-0.16 0.158-0.425 0.334-0.52 0.531-0.076 0.16-0.085 0.456-0.060 0.619 0.016 0.108 0.085 0.204 0.097 0.318 0.014 0.118 0.030 0.225 0.068 0.344 0.156 0.496 0.446 0.851 0.805 1.23 0.18 0.191 0.421 0.333 0.646 0.472 0.163 0.102 0.392 0.27 0.58 0.293 0.2 0.024 0.433 0.012 0.634-0.041-0.040-0.056-0.079-0.112-0.103-0.176-0.038-0.099-0.050-0.224-0.081-0.326-0.030-0.094-0.064-0.187-0.091-0.286-0.064-0.235-0.141-0.421-0.099-0.669 0.041-0.236 0.139-0.463 0.256-0.671 0.175-0.312 0.388-0.607 0.619-0.886-0.023-0.022-0.045-0.045-0.067-0.069-0.317-0.345-0.531-0.727-0.634-1.187-0.039-0.171-0.014-0.362-0.014-0.538 0-0.192-0.018-0.392 0.015-0.581 0.012-0.071 0.025-0.142 0.037-0.212-0.133-0.049-0.27-0.087-0.41-0.111-0.242-0.042-0.451-0.13-0.707-0.111-0.19 0.015-0.388 0.077-0.577 0.113-0.435 0.083-0.864 0.421-1.176 0.721-0.325 0.31-0.425 0.662-0.523 1.096-0.066 0.296-0.156 0.619-0.128 0.924 0.037 0.383 0.072 0.845 0.177 1.214 0.031 0.112 0.103 0.226 0.132 0.338 0.017 0.065 0.010 0.154 0.055 0.206 0.023-0.001 0.045-0.002 0.066-0.004l0-0.001c0.049 0.661-0.135 0.452-0.227 0.369-0.119-0.108-0.212-0.19-0.294-0.33-0.187-0.319-0.39-0.633-0.496-0.988-0.068-0.229-0.164-0.444-0.216-0.692-0.051-0.235-0.023-0.427 0.012-0.66 0.023-0.153-0.006-0.327 0.039-0.476 0.048-0.154 0.142-0.283 0.191-0.442 0.093-0.307 0.287-0.543 0.45-0.815 0.293-0.491 0.836-0.749 1.325-1.026 0.14-0.078 0.268-0.127 0.417-0.187 0.13-0.052 0.238-0.153 0.372-0.192 0.102-0.030 0.227-0.032 0.331-0.055 0.097-0.023 0.191-0.049 0.292-0.068 0.239-0.045 0.431-0.108 0.674-0.046 0.182 0.047 0.354 0.128 0.516 0.224 0.013-0.025 0.026-0.050 0.040-0.074 0.048-0.086 0.023-0.118 0.092-0.212 0.078-0.104 0.131-0.187 0.188-0.305 0.062-0.127 0.127-0.238 0.214-0.347 0.123-0.152 0.288-0.331 0.463-0.421 0.151-0.078 0.376-0.080 0.542-0.132 0.359-0.113 0.793-0.049 1.168-0.049 0.275 0 0.558-0.037 0.817 0.066 0.178 0.070 0.362 0.102 0.535 0.185 0.261 0.125 0.519 0.323 0.681 0.551 0.073 0.102 0.181 0.167 0.256 0.266 0.064 0.085 0.073 0.156 0.113 0.253 0.062 0.151 0.090 0.253 0.082 0.419-0.007 0.143-0.032 0.279-0.064 0.416-0.022 0.092-0.062 0.227-0.14 0.29-0.011-0.085 0.070-0.101 0.076-0.174 0.005-0.050-0.012-0.073-0.020-0.121-0.014-0.086-0.088-0.216-0.112-0.315-0.053-0.217-0.068-0.536-0.189-0.719-0.098-0.148-0.347-0.307-0.499-0.369-0.101-0.041-0.218-0.033-0.324-0.080-0.108-0.050-0.207-0.090-0.33-0.118-0.506-0.12-0.959-0.054-1.469 0.059-0.256 0.056-0.502 0.191-0.736 0.312-0.171 0.088-0.433 0.199-0.549 0.347-0.138 0.177-0.258 0.414-0.309 0.633-0.001 0.005-0.002 0.010-0.002 0.014 0.38 0.309 0.725 0.67 1.044 1.034 0.174 0.198 0.329 0.401 0.476 0.611 0.002-0.002 0.004-0.003 0.006-0.005 0.214-0.154 0.506-0.352 0.772-0.39 0.598-0.086 1.155-0.302 1.771-0.17 0.458 0.098 0.854 0.285 1.205 0.599 0.104 0.093 0.181 0.22 0.26 0.34 0.052-0.062 0.1-0.13 0.139-0.209 0.086-0.172 0.134-0.373 0.2-0.554 0.152-0.415 0.081-0.958-0.015-1.379-0.1-0.438-0.351-0.704-0.672-1.011-0.219-0.21-0.451-0.453-0.728-0.584-0.348-0.166-0.761-0.373-1.133-0.472-0.111-0.031-0.246-0.027-0.357-0.060-0.064-0.018-0.137-0.069-0.205-0.057-0.011 0.020-0.021 0.039-0.030 0.059l-0 0c-0.592-0.297-0.318-0.347-0.2-0.384 0.153-0.047 0.271-0.084 0.433-0.083zM14.183 13.415c-0.006 0.074-0.010 0.146-0.009 0.213 0.003 0.544 0.272 1.025 0.635 1.408 0.168-0.172 0.339-0.329 0.518-0.479-0.299-0.432-0.691-0.844-1.144-1.143zM17.633 14.34c-0.263 0.002-0.549 0.048-0.799 0.115-0.198 0.053-0.375 0.154-0.544 0.271 0.13 0.219 0.279 0.498 0.295 0.745 0.010 0.147 0.027 0.292 0.045 0.436 0.116 0 0.232-0.004 0.348-0.008 0.856-0.029 1.819-0.299 2.454-0.901-0.433-0.451-1.083-0.632-1.688-0.657-0.037-0.002-0.074-0.002-0.111-0.002zM15.709 15.182c-0.115 0.102-0.226 0.211-0.332 0.326 0.155 0.098 0.327 0.185 0.494 0.255-0.008-0.065-0.018-0.13-0.029-0.192-0.025-0.137-0.073-0.266-0.133-0.39zM14.9 16.136c-0.229 0.373-0.388 0.782-0.429 1.207-0.024 0.244-0.096 0.459-0.055 0.712 0.021 0.129 0.064 0.259 0.105 0.389 0.135-0.055 0.27-0.121 0.381-0.189 0.592-0.36 0.875-1.034 0.969-1.687-0.062-0.017-0.121-0.038-0.174-0.066-0.264-0.136-0.537-0.24-0.798-0.366zM7.756 16.421c0.012 0.001 0.024 0.002 0.039 0.004 0.13 0.018 0.227 0.024 0.358 0.018 0.14-0.006 0.269-0.003 0.407 0.022 0.193 0.035 0.429 0.092 0.592 0.203 0.141 0.094 0.251 0.292 0.377 0.413 0.271 0.262 0.421 0.672 0.603 1.002 0.131 0.24 0.3 0.471 0.334 0.747 0.023 0.191 0.084 0.367 0.093 0.558 0.015 0.29-0.034 0.611-0.156 0.862-0.055 0.113-0.060 0.24-0.111 0.352-0.043 0.097-0.102 0.139-0.168 0.22-0.102 0.127-0.178 0.201-0.327 0.274-0.129 0.063-0.261 0.105-0.396 0.143-0.091 0.026-0.229 0.055-0.321 0.016 0.069-0.050 0.122 0.012 0.189-0.016 0.047-0.019 0.058-0.046 0.097-0.075 0.068-0.054 0.147-0.181 0.221-0.25 0.166-0.151 0.439-0.318 0.541-0.51 0.084-0.156 0.103-0.452 0.085-0.616-0.013-0.107-0.076-0.207-0.085-0.321-0.009-0.119-0.021-0.226-0.054-0.348-0.137-0.502-0.413-0.868-0.756-1.261-0.173-0.198-0.408-0.349-0.628-0.497-0.159-0.108-0.381-0.285-0.568-0.315-0.221-0.036-0.487-0.028-0.704 0.033-0.077 0.021-0.129 0.074-0.212 0.096-0.093 0.024-0.197 0.010-0.291 0.035-0.202 0.053-0.444 0.149-0.625 0.25-0.631 0.35-0.941 1.054-1.049 1.728-0.046 0.289-0.037 0.625 0.004 0.917 0.047 0.33 0.227 0.619 0.396 0.905 0.475 0.802 1.262 1.58 2.193 1.783 0.239 0.053 0.444 0.149 0.702 0.139 0.191-0.008 0.391-0.062 0.581-0.091 0.438-0.064 0.88-0.387 1.203-0.673 0.337-0.299 0.45-0.646 0.565-1.075 0.079-0.293 0.181-0.612 0.164-0.919-0.021-0.384-0.038-0.847-0.128-1.22-0.027-0.112-0.094-0.229-0.119-0.342-0.015-0.065-0.004-0.154-0.048-0.209-0.022 0.001-0.044 0.001-0.066 0.002 0 0 0 0 0 0l-0.001-0c0 0 0 0 0.001 0-0.023-0.662 0.152-0.446 0.241-0.359 0.115 0.112 0.205 0.198 0.281 0.341 0.174 0.326 0.365 0.648 0.457 1.007 0.060 0.232 0.147 0.451 0.189 0.699 0.041 0.237 0.005 0.428-0.038 0.66-0.028 0.152-0.005 0.326-0.058 0.472-0.053 0.153-0.153 0.279-0.207 0.434-0.107 0.304-0.308 0.532-0.481 0.798-0.313 0.479-0.865 0.717-1.364 0.973-0.143 0.074-0.272 0.117-0.425 0.171-0.131 0.047-0.243 0.144-0.379 0.178-0.103 0.026-0.228 0.023-0.333 0.042-0.098 0.019-0.193 0.041-0.295 0.056-0.24 0.036-0.434 0.091-0.674 0.020-0.23-0.068-0.444-0.193-0.637-0.333-0.522-0.38-0.975-0.877-1.38-1.378-0.307-0.38-0.553-0.77-0.789-1.199-0.128-0.231-0.29-0.544-0.296-0.812-0.015-0.605-0.164-1.184 0.039-1.779 0.152-0.444 0.384-0.814 0.737-1.126 0.131-0.116 0.311-0.185 0.466-0.269 0.168-0.092 0.334-0.204 0.517-0.266 0.431-0.145 0.846-0.293 1.307-0.29 0.086 0.001 0.111-0.027 0.192-0.023zM22.689 18.379c0.040-0.001 0.079 0.002 0.117 0.009 0.158 0.029 0.299 0.108 0.461 0.137 0.316 0.058 0.572 0.222 0.862 0.352 0.522 0.233 0.843 0.743 1.174 1.195 0.094 0.129 0.157 0.252 0.235 0.392 0.067 0.124 0.18 0.219 0.235 0.348 0.042 0.098 0.058 0.221 0.095 0.322 0.034 0.093 0.071 0.185 0.101 0.282 0.073 0.232 0.158 0.416 0.124 0.665-0.032 0.238-0.121 0.468-0.229 0.681-0.295 0.574-0.716 1.1-1.147 1.578-0.328 0.363-0.675 0.666-1.061 0.966-0.209 0.163-0.493 0.371-0.757 0.419-0.595 0.11-1.143 0.346-1.763 0.238-0.462-0.081-0.864-0.252-1.227-0.554-0.135-0.111-0.23-0.277-0.338-0.417-0.117-0.152-0.254-0.3-0.343-0.469-0.212-0.404-0.421-0.791-0.49-1.248-0.014-0.097-0.055-0.108-0.055-0.224-0.003-0.131-0.011-0.228-0.038-0.357-0.028-0.138-0.045-0.266-0.042-0.405 0.004-0.196 0.025-0.439 0.109-0.617 0.073-0.153 0.25-0.293 0.35-0.435 0.216-0.308 0.597-0.521 0.896-0.751 0.217-0.167 0.419-0.37 0.686-0.446 0.185-0.053 0.349-0.14 0.537-0.18 0.282-0.060 0.608-0.061 0.875 0.022 0.119 0.036 0.247 0.022 0.365 0.053 0.102 0.028 0.153 0.080 0.244 0.132 0.141 0.081 0.226 0.144 0.321 0.281 0.083 0.116 0.144 0.24 0.202 0.368 0.040 0.087 0.090 0.218 0.066 0.316-0.060-0.061-0.007-0.123-0.045-0.185-0.027-0.044-0.054-0.050-0.090-0.084-0.064-0.060-0.201-0.117-0.281-0.181-0.174-0.14-0.381-0.383-0.587-0.454-0.167-0.058-0.463-0.031-0.622 0.012-0.104 0.029-0.192 0.107-0.304 0.134-0.116 0.027-0.219 0.056-0.334 0.107-0.475 0.214-0.793 0.543-1.127 0.944-0.169 0.201-0.281 0.457-0.394 0.697-0.081 0.174-0.222 0.421-0.223 0.609-0.001 0.225 0.048 0.485 0.141 0.691 0.034 0.073 0.093 0.117 0.127 0.194 0.039 0.088 0.040 0.193 0.079 0.282 0.086 0.191 0.216 0.415 0.344 0.58 0.444 0.568 1.189 0.765 1.871 0.766 0.292 0.001 0.622-0.060 0.904-0.147 0.318-0.098 0.576-0.32 0.832-0.532 0.72-0.594 1.365-1.492 1.421-2.443 0.014-0.245 0.077-0.463 0.027-0.715-0.037-0.188-0.122-0.377-0.179-0.56-0.132-0.422-0.52-0.809-0.853-1.084-0.347-0.286-0.708-0.344-1.15-0.391-0.301-0.033-0.633-0.084-0.933-0.018-0.376 0.080-0.83 0.169-1.185 0.316-0.108 0.044-0.213 0.129-0.319 0.172-0.063 0.025-0.152 0.028-0.199 0.079 0.003 0.022 0.008 0.043 0.012 0.065l-0 0c-0.65 0.125-0.464-0.082-0.393-0.183 0.093-0.131 0.164-0.232 0.293-0.33 0.295-0.222 0.583-0.461 0.923-0.609 0.22-0.094 0.422-0.214 0.662-0.295 0.227-0.077 0.421-0.071 0.657-0.065 0.116 0.003 0.24-0.023 0.359-0.025z"></path>
</svg>
