<!-- Generated by IcoMoon.io -->
<svg version="1.1" xmlns="http://www.w3.org/2000/svg" width="32" height="32" viewBox="0 0 32 32">
<title>return_to_the_untamed_wilds</title>
<path d="M2.272 14.16c0.004-0.002 0.008 0.008 0.012 0.031 0.014 0.072 0.014 0.191 0 0.263s-0.026 0.013-0.026-0.132c0-0.099 0.005-0.159 0.014-0.162z"></path>
<path d="M11.111 1.043c0.025-0.014 0.049-0.029 0.070-0.043-0.029 0.017-0.051 0.031-0.070 0.043z"></path>
<path d="M3.634 4.928c0-0.003-0-0.005-0.001-0.006 0 0 0.001 0.003 0.001 0.006z"></path>
<path d="M19.778 28.767c-0-0-0-0.001-0.001-0.001-0.003 0.002-0.002 0.002 0.001 0.001z"></path>
<path d="M21.731 27.895c-0.001 0-0.002 0.001-0.005 0.003 0.002-0.002 0.003-0.002 0.005-0.003z"></path>
<path d="M25.886 23.617c0.018-0.012 0.041-0.031 0.076-0.057-0.025 0.018-0.051 0.038-0.076 0.057z"></path>
<path d="M14.368 1.016c-0.050 0.028-0.098 0.054-0.145 0.079-0.032 0.013-0.064 0.028-0.092 0.042-0.058 0.023-0.111 0.048-0.164 0.070-0.104 0.042-0.198 0.078-0.272 0.114l0.165-0.114c-0.1 0.068-0.185 0.113-0.274 0.162l0.125-0.009c-0.108 0.048-0.194 0.094-0.204 0.074-0.089 0.088 0.122 0.032-0.068 0.187-0.075 0.027-0.176 0.090-0.268 0.143-0.047 0.025-0.093 0.046-0.13 0.063-0.020 0.006-0.035 0.013-0.050 0.015-0.009 0-0.015-0.003-0.022-0.011 0.006-0.001 0.036-0.016 0.055-0.026 0.021-0.011 0.039-0.023 0.055-0.029 0.028-0.016 0.044-0.027 0.055-0.035 0.018-0.018 0.006-0.023-0.009-0.024-0.025-0.006-0.057-0.012 0.040-0.076-0.055 0.032-0.118 0.064-0.193 0.098-0.019 0.001 0.009-0.023 0.035-0.040-0.029 0.011-0.074 0.030-0.081 0.031-0.004-0.001-0.004-0.001-0.007 0-0.004-0.001-0.005 0.001-0.005 0.002-0.009 0.002-0.037 0.006-0.048 0.011-0.031 0.009-0.050 0.021-0.077 0.033-0.052 0.024-0.126 0.051-0.334 0.055 0.042-0.026-0.025-0.042-0.097-0.052 0.046 0.019-0.045 0.061-0.18 0.085-0.314-0.021-0.341 0.029-0.505 0.029l0.187 0.009c-0.029 0.019-0.083 0.030-0.154 0.037-0.074 0.005-0.168 0.009-0.279 0.017-0.008 0.002-0.020 0.005-0.029 0.011-0.007-0.005 0.004-0.015 0.026-0.026-0.082 0.031-0.121 0.043-0.186 0.059-0.062 0.010-0.126 0.022-0.193 0.035-0.131 0.024-0.27 0.055-0.404 0.119-0.158 0.024-0.035-0.063-0.173-0.037-0.134 0.064-0.227 0.089-0.31 0.107-0.041 0.009-0.079 0.014-0.121 0.024-0.022 0.004-0.042 0.010-0.066 0.015-0.012 0.004-0.025 0.005-0.037 0.009-0.023 0.006-0.043 0.014-0.066 0.020-0.022 0.013-0.044 0.027-0.068 0.040-0.013 0.007-0.029 0.018-0.044 0.028-0.031 0.020-0.063 0.045-0.097 0.072 0.124-0.018 0.134-0.038-0.081 0.153l0.323-0.222 0.294-0.114-0.13 0.072c-0.050 0.024-0.073 0.040-0.151 0.074-0.059 0.044-0.079 0.068-0.114 0.099 0.040-0.025 0.083-0.054 0.123-0.081 0.043-0.016 0.085-0.033 0.125-0.048 0.038-0.015 0.071-0.030 0.103-0.042 0.067-0.028 0.127-0.049 0.173-0.061-0.179 0.103-0.166 0.085-0.063 0.096-0.056 0.001-0.109 0.011-0.16 0.024-0.025 0.006-0.053 0.016-0.077 0.026l-0.090 0.035c-0.071 0.052-0.142 0.104-0.217 0.16-0.071 0.051-0.147 0.098-0.237 0.134l-0.057-0.11c-0.316 0.145-0.551 0.354-0.842 0.555-0.094 0.051-0.237 0.12-0.38 0.176l0.189-0.063c-0.055 0.079-0.343 0.164-0.514 0.265-0.001-0.045-0.119-0.006-0.208 0.002 0.020 0.025-0.405 0.183-0.426 0.285l-0.074 0.022-0.066 0.048-0.050 0.031-0.096 0.061c-0.373 0.325-0.325 0.477-0.678 0.794 0.072-0.131-0.105-0.002 0.101-0.246-0.114 0.11-0.221 0.201-0.202 0.224-0.019 0.009-0.045 0.033-0.072 0.061-0.029 0.033-0.066 0.075-0.103 0.119-0.034 0.062-0.071 0.13-0.105 0.191-0.032 0.053-0.063 0.1-0.094 0.129-0.023 0.066 0.003 0.108-0.096 0.254-0.012 0.008-0.017 0.001-0.019-0.005-0.003 0.038-0.121 0.234-0.005 0.137-0.084 0.075-0.167 0.174-0.25 0.287-0.042 0.053-0.081 0.113-0.121 0.175-0.038 0.056-0.074 0.113-0.112 0.171-0.064 0.057-0.131 0.117-0.195 0.175-0.068 0.058-0.136 0.117-0.2 0.173-0.131 0.108-0.258 0.198-0.367 0.25-0.14 0.131-0.293 0.275-0.434 0.406-0.068 0.194-0.132 0.372-0.184 0.526-0.005-0.024-0.019-0.009 0.005-0.063-0.186 0.393 0.021 0.29-0.189 0.739-0.151 0.213 0.054-0.257-0.024-0.119-0.044 0.005-0.076 0.051-0.107 0.123-0.015 0.036-0.030 0.080-0.046 0.125-0.011 0.042-0.034 0.108-0.035 0.123-0.004 0.011-0.028 0.048-0.053 0.083l-0.072 0.107c-0.050 0.067-0.104 0.128-0.162 0.175l0.042-0.070c-0.189 0.175-0.326 0.53-0.581 0.858 0 0-0.001-0.024-0.018-0.015-0.006 0.022-0.022 0.057-0.051 0.107-0.015 0.079-0.033 0.169-0.051 0.268-0.019 0.089-0.040 0.185-0.064 0.283-0.048 0.195-0.102 0.399-0.149 0.575-0.013-0.134 0.027-0.18-0.048-0.127-0.048 0.174 0.098-0.022 0.004 0.323-0.028 0.046-0.057 0.101-0.097 0.178-0.036 0.107-0.071 0.19-0.108 0.208l0.031-0.226 0.042-0.129c-0.013 0.016-0.028 0.029-0.038 0.048-0.010 0.016-0.018 0.037-0.033 0.074-0.004 0.025-0.009 0.049-0.015 0.075l-0.011 0.064c-0.004 0.043-0.004 0.086-0.005 0.129-0.004 0.086-0.008 0.169-0.026 0.237l-0.029-0.029c-0.064 0.499 0.012 0.538-0.066 1.044-0.001 0.006-0.005 0.016-0.007 0.026 0.006-0.010 0.014-0.017 0.020-0.024 0.005-0.005 0.011-0.009 0.017-0.018 0.001 0.012 0.001 0.017 0.002 0.022 0 0.276-0.107 0.216-0.119 0.513l-0.105 0.068c-0.031 0.197-0.084 0.701-0.171 1.049 0.004-0.209 0.067-0.627 0.097-0.887-0.033 0.127-0.066 0.325-0.097 0.509 0.012 0.256-0.058 0.566-0.169 0.944-0.044-0.036-0.097 0.055-0.153 0.204-0.028 0.074-0.056 0.164-0.086 0.257-0.034 0.106-0.068 0.217-0.101 0.325 0.005 0.039 0.012 0.078 0.018 0.116 0.002 0.027 0.005 0.052 0.009 0.077 0.005 0.048 0.013 0.098 0.017 0.143 0.005 0.088 0.003 0.161-0.009 0.215 0.045 0.166 0.082 0.335 0.114 0.505 0.015 0.086 0.030 0.172 0.046 0.259 0.013 0.092 0.028 0.183 0.042 0.277 0.058 0.179 0.116 0.363 0.176 0.551 0.060 0.183 0.124 0.372 0.197 0.566 0.021-0.314 0.084 0.222 0.189 0.13 0.031 0.080 0.051 0.135 0.066 0.173 0.004 0.028 0.008 0.067 0.005 0.072v0.002l0.013 0.581c-0.016 0.14-0.057-0.175-0.083-0.153 0.056 0.411-0.026 0.181-0.016 0.458 0.038-0.063 0.087 0.132 0.108 0.369l0.007-0.338c0.076 0.27 0.071 0.382 0.068 0.526 0.010 0.159 0.005 0.273 0.118 0.568l-0.085-0.169c0.039 0.112 0.089 0.302 0.145 0.507 0.031 0.103 0.061 0.209 0.090 0.312 0.018 0.050 0.035 0.101 0.050 0.149 0.020 0.054 0.039 0.104 0.055 0.153 0.023 0.050 0.028 0.057 0.040 0.081 0.013 0.020 0.024 0.038 0.035 0.055 0.023 0.036 0.049 0.068 0.070 0.092 0.005 0.055-0.002 0.132-0.061 0.013 0.074 0.194 0.161 0.399 0.254 0.601 0.096 0.209 0.194 0.419 0.287 0.619 0.052 0.072 0.103 0.141 0.153 0.208 0.043 0.061 0.085 0.121 0.125 0.18 0.080 0.118 0.149 0.229 0.204 0.336l-0.055-0.029c0.082 0.107 0.18 0.162 0.248 0.32-0.018 0-0.059-0.028-0.026 0.024 0.016 0.019 0.051 0.058 0.094 0.105 0.020 0.024 0.040 0.048 0.064 0.075 0.024 0.031 0.041 0.048 0.083 0.107 0.029 0.027 0.060 0.057 0.088 0.083 0.023 0.023 0.042 0.043 0.061 0.064l-0.134-0.081c0.479 0.518 0.834 0.687 1.275 1.075-0.066 0.067 0.313 0.464 0.503 0.662l-0.017 0.002c0.145 0.138 0.281 0.26 0.415 0.377 0.128 0.122 0.254 0.236 0.377 0.345 0.126 0.111 0.246 0.22 0.375 0.331 0.061 0.058 0.125 0.114 0.189 0.173 0.034 0.029 0.066 0.059 0.099 0.090 0.037 0.035 0.076 0.070 0.114 0.107 0.015 0.007 0.030 0.019 0.048 0.029 0.111 0.115 0.291 0.258 0.503 0.413 0.108 0.076 0.222 0.158 0.34 0.241 0.13 0.091 0.265 0.183 0.401 0.276 0.155 0.043 0.311 0.087 0.461 0.129 0.134 0.040 0.263 0.081 0.382 0.121-0.107-0.045 0.036-0.066 0.167-0.042 0.167 0.063 0.489 0.060 0.439 0.136l-0.059-0.018c0.016 0.017 0.040 0.035 0.068 0.052 0.012 0.007 0.026 0.016 0.042 0.024 0.020 0.006 0.010 0.004 0.017 0.011-0.007 0.001 0.048 0.036 0.086 0.059 0.043 0.025 0.085 0.052 0.13 0.077 0.091 0.050 0.186 0.102 0.272 0.149l0.094-0.075c0.099 0.087 0.217 0.17 0.345 0.25 0.063 0.040 0.128 0.082 0.195 0.119 0.075 0.042 0.15 0.080 0.226 0.121l0.231 0.077c0.070 0.021 0.139 0.041 0.208 0.063 0.138 0.043 0.275 0.084 0.397 0.121 0.246 0.079 0.447 0.16 0.557 0.248 0.028 0.005 0.035 0.006 0.094 0.020 0.084 0.011 0.177 0.022 0.268 0.033 0.087 0.009 0.172 0.021 0.25 0.024l-0.022 0.057c0.191 0.043 0.344 0.077 0.502 0.112 0.079 0.017 0.159 0.034 0.246 0.052 0.098 0.019 0.203 0.040 0.321 0.064 0.068-0.006 0.197-0.021 0.34-0.033l-0.123 0.053c0.345-0.023 0.423-0.206 0.74-0.231l0.101 0.083 0.263-0.016 0.272-0.011 0.336-0.048 0.318-0.050c0.211-0.036 0.42-0.083 0.625-0.149-0.007 0.015-0.023 0.044-0.118 0.064 0.083-0.013 0.213-0.032 0.351-0.053 0.078-0.004 0.157-0.007 0.231-0.011 0.079-0.005 0.155-0.013 0.217-0.022 0.113-0.016 0.184-0.039 0.168-0.074 0.072 0.056 0.633-0.048 0.937-0.11l-0.044 0.066c0.266-0.11 0.272-0.132 0.65-0.2 0.091-0.004 0.085 0.035-0.035 0.035 0.304-0.006 0.226-0.083 0.595-0.097l-0.13 0.055c0.151-0.017 0.222-0.030 0.274-0.046s0.084-0.034 0.191-0.070c0.001-0.001 0.006-0.006 0.011-0.009 0.025-0.019 0.054-0.042 0.084-0.064 0.024-0.016 0.052-0.031 0.079-0.050 0.056-0.035 0.116-0.072 0.175-0.101 0.115-0.059 0.22-0.099 0.254-0.088 0.017-0.051 0.136-0.178 0.299-0.265 0.032 0.004-0.018 0.049-0.042 0.072 0.107-0.058 0.197-0.116 0.276-0.169 0.040-0.029 0.076-0.054 0.114-0.081l0.050-0.039 0.031-0.024c0.016-0.009 0.064-0.027 0.108-0.040 0.043-0.015 0.084-0.031 0.127-0.044 0.084-0.024 0.171-0.043 0.268-0.052 0.012 0.016 0.034 0.020 0.066 0.018-0.235 0.059-0.441 0.114-0.558 0.143-0.024 0.015-0.043 0.026-0.053 0.031-0.009 0.006-0.015 0.009-0.018 0.010 0.013 0.020 0.083-0.005 0.091 0.006 0.015 0.005 0.021 0.011 0.029 0.020 0.004 0.009-0.001 0.026 0 0.042 0 0.003 0.001 0.007 0.002 0.011 0-0.002 0.001-0.007 0.002-0.011 0.017-0.006 0.034-0.014 0.050-0.022 0.038-0.015 0.075-0.032 0.114-0.050 0.078-0.032 0.16-0.066 0.244-0.101 0.167-0.068 0.342-0.129 0.496-0.156 0.016 0.001 0.031 0.001 0.044 0.005l-0.031 0.013c0.074-0.013 0.141-0.035 0.2-0.059 0.051-0.009 0.093-0.018 0.134-0.026 0.047-0.009 0.063-0.013 0.16-0.037 0.017 0.005 0.057 0.001 0.117-0.011 0.035-0.035 0.079-0.081 0.127-0.136 0.027-0.032 0.055-0.065 0.084-0.101 0.058-0.070 0.12-0.142 0.162-0.193-0.054-0.026 0.087-0.185-0.072-0.068 0.003 0.001-0.031 0.047-0.091 0.119-0.013 0.021-0.031 0.044-0.039 0.059 0-0.004 0.001-0.009 0.002-0.015l-0.217 0.265-0.184 0.050c0.038-0.022 0.113-0.050 0.169-0.072 0.020-0.028 0.041-0.057 0.063-0.086 0.017-0.023 0.037-0.049 0.057-0.074 0.033-0.043 0.073-0.083 0.123-0.123 0.025-0.091 0.057-0.188 0.075-0.241 0.211-0.12 0.531-0.43 0.608-0.443 0.054-0.071 0.108-0.147 0.167-0.224 0.080-0.068 0.163-0.139 0.244-0.208 0.087-0.076 0.17-0.149 0.252-0.219 0.159-0.146 0.295-0.284 0.371-0.401 0.104-0.1 0.149-0.077 0.202-0.097-0.060 0.061-0.138 0.122-0.163 0.162 0.202-0.21 0.687-0.512 0.695-0.617 0.318-0.182-0.126 0.177 0.276-0.121l-0.040 0.057c0.107-0.056 0.203-0.114 0.296-0.175 0.046-0.032 0.090-0.063 0.134-0.092 0.055-0.040 0.11-0.079 0.162-0.119l0.066-0.123 0.042-0.084 0.075-0.169c0.050-0.112 0.101-0.224 0.151-0.338 0.1-0.224 0.219-0.471 0.356-0.693 0.079-0.074 0.188-0.168 0.303-0.257-0.013 0.009-0.024 0.015-0.033 0.016 0.146-0.128 0.288-0.263 0.43-0.399l0.209-0.209 0.222-0.219c0.292-0.467 0.536-0.88 0.836-1.341l0.088-0.272 0.088-0.254c0.060-0.17 0.124-0.335 0.191-0.498 0.098-0.256 0.096-0.336 0.107-0.474 0-0.036 0.004-0.078 0.004-0.129l0.077-0.061 0.007-0.371c0.063-0.516 0.345-0.84 0.402-1.499l-0.061 0.074c0.063-0.227 0.151-0.733 0.189-0.682-0.001-0.027-0.026-0.083 0.017-0.169h0.037l0.011-0.085 0.020-0.114-0.044-0.123v0.005l-0.035-0.096-0.075-0.193c-0.094-0.438 0.148 0.035-0.015-0.599-0.078-0.231-0.276-0.643-0.274-0.549 0.024 0.095 0.046 0.247 0.015 0.265l-0.074-0.209c-0.006-0.001-0.015-0.002-0.022-0.004l-0.011-0.035 0.312-1.534-0.276-1.029 0.024 0.020-0.037-0.070-0.088-0.327c0.013 0.006 0.034 0.033 0.055 0.097-0.007-0.096-0.021-0.144-0.039-0.191-0.039-0.067-0.069-0.088-0.097-0.222-0.004-0.025 0.006-0.018 0.018 0l-0.125-0.208c0.036 0.035 0.040-0.063 0.090 0.077-0.134-0.415-0.354-0.606-0.362-0.781l0.022 0.029c-0.209-0.397-0.149-0.21-0.219-0.259l-0.004-0.011-0.037-0.261 0.083-0.222-0.072-0.052c-0.006-0.060-0.016-0.182 0.013-0.164-0.073-0.222-0.024 0.043-0.083-0.085 0.015-0.233-0.064-0.565-0.068-0.774-0.033-0.059-0.054-0.107-0.040-0.134-0.107-0.060 0.146 0.261-0.079 0.016 0.035-0.14-0.233-0.285-0.356-0.535 0.096 0.033 0.225 0.26 0.103 0.011-0.175-0.075-0.297-0.439-0.448-0.612-0.071 0.037-0.319-0.386-0.564-0.683 0.036 0.004-0.391-0.612-0.564-0.928l0.015 0.002c-0.103-0.013-0.299-0.326-0.465-0.54 0.044-0.017 0.088 0.012 0.187 0.121l-0.141-0.211c-0.055-0.035-0.108-0.094-0.208-0.224l0.084 0.022-0.075-0.101-0.103-0.086-0.090-0.074c-0.060-0.048-0.125-0.1-0.189-0.151-0.128-0.106-0.26-0.219-0.391-0.364-0.037 0.018 0.045 0.167-0.011 0.176l-0.171-0.16c0.019-0.007 0.048-0.002 0.097 0.033-0.032-0.024-0.121-0.075-0.171-0.138l0.169 0.088c-0.131-0.15-0.105-0.040-0.219-0.151 0.032-0.028-0.063-0.101-0.024-0.11 0.032 0.024 0.089 0.105 0.145 0.134-0.063-0.061-0.145-0.146-0.182-0.197-0.027-0.054-0.066-0.132-0.072-0.165-0.011 0.028-0.046 0.037-0.129-0.064-0.205-0.267-0.030-0.124-0.13-0.294-0.072-0.047-0.178-0.236-0.231-0.204-0.059-0.079-0.048-0.109-0.057-0.151-0.035-0.034-0.087-0.098-0.143-0.167-0.067-0.082-0.136-0.171-0.195-0.244-0.205-0.051-0.257-0.053-0.187 0l0.050 0.018c-0.011-0.001-0.023-0.005-0.035-0.007-0.237-0.041-0.472-0.111-0.707-0.187l-0.353-0.118c-0.112-0.038-0.219-0.074-0.329-0.108l-0.094-0.081-0.11-0.088 0.013-0.015c-0.273-0.202-0.581-0.48-0.794-0.604-0.076-0.064-0.155-0.182-0.107-0.173-0.031-0.023-0.059-0.045-0.077-0.059-0.048-0.020-0.088-0.035-0.127-0.050-0.036-0.015-0.070-0.030-0.107-0.046-0.073-0.036-0.158-0.083-0.296-0.169 0.25 0.083-0.067-0.068 0.252 0.096-0.294-0.166-0.349-0.23-0.696-0.34 0.132 0.005-0.192-0.172-0.351-0.233l0.198 0.141c-0.047-0.020-0.091-0.040-0.134-0.061-0.049-0.024-0.098-0.049-0.145-0.074-0.080-0.012-0.155-0.022-0.231-0.035l0.094-0.059c-0.333-0.087-0.644-0.090-0.935-0.099-0.145-0.004-0.284-0.010-0.421-0.028-0.134-0.019-0.26-0.063-0.382-0.121-0.187 0.013 0.361 0.105 0.191 0.13-0.308-0.070-0.612-0.233-0.709-0.25-0.171-0.051-0.272-0.056-0.362-0.053-0.046 0.002-0.085 0.005-0.132 0.007-0.023 0.001-0.050 0.001-0.075 0-0.029-0.001-0.049-0.001-0.101-0.009-0.032 0-0.066 0.002-0.105 0.002-0.034 0-0.071-0.003-0.114-0.005 0.059 0.027 0.114 0.092-0.226 0.112-0.316-0.015-0.388-0.111-0.187-0.129 0.076-0.001 0.113 0.007 0.11 0.017 0.103-0.007 0.236-0.016 0.11-0.046l-0.042 0.026c-0.156-0.029-0.591-0.033-0.487-0.074-0.241 0.022-0.106 0.039 0.072 0.055-0.262-0.029-0.462-0.025-0.667-0.028-0.096-0.006-0.229-0.019-0.369-0.040 0.065 0.020 0.124 0.054 0.059 0.048-0.609-0.087-0.273 0.022-0.687-0.004-0.232-0.059 0.092-0.083-0.327-0.088-0.253-0.050-0.048-0.071 0.053-0.083-0.046 0.001-0.090 0.001-0.134 0l-0.094-0.005c-0.037-0.004-0.073-0.007-0.108-0.011h-0.002zM23.006 7.86c0.188-0.003 0.413 0.013 0.733 0.038 1.206 0.093 2.043 0.458 2.54 1.109 0.247 0.323 0.3 0.536 0.304 1.2 0.002 0.444-0.029 0.841-0.070 0.882s-0.075-0.019-0.075-0.133h0c0-0.114-0.132-0.467-0.293-0.783-0.371-0.729-1.448-1.38-2.66-1.606-0.783-0.146-0.849-0.139-1.647 0.18-1.431 0.573-2.116 0.533-2.116-0.122 0-0.232 0.33-0.675 0.503-0.675 0.031 0 0.054 0.15 0.051 0.332-0.007 0.484 0.265 0.479 1.41-0.024 0.669-0.294 0.905-0.391 1.319-0.397zM9.438 7.878c0.339-0 1.348 0.234 1.582 0.385 0.149 0.096 0.416 0.174 0.594 0.174 0.264 0 0.312-0.045 0.26-0.244-0.079-0.303 0.226-0.329 0.619-0.054 0.271 0.19 0.337 0.472 0.197 0.838-0.111 0.29-0.834 0.24-1.523-0.105-0.956-0.48-1.344-0.547-2.216-0.383-0.976 0.183-1.77 0.728-2.362 1.621-0.237 0.357-0.449 0.648-0.472 0.648s-0.072-0.079-0.109-0.177h-0c-0.037-0.097-0.026-0.441 0.025-0.763 0.070-0.441 0.212-0.714 0.574-1.101 0.466-0.499 0.513-0.518 1.571-0.647 0.599-0.073 1.122-0.152 1.16-0.176 0.017-0.011 0.052-0.015 0.1-0.015zM18.121 8.684c0.38 0.001 0.476 0.073 0.733 0.33 0.499 0.499 0.61 1.285 0.303 2.142-0.212 0.593-0.259 0.64-0.655 0.666-0.386 0.025-0.399 0.017-0.136-0.093s0.284-0.177 0.226-0.695c-0.044-0.39-0.151-0.643-0.334-0.792-0.338-0.274-0.393-0.272-0.748 0.015-0.238 0.193-0.287 0.343-0.279 0.86 0.011 0.763 0.289 1.097 0.98 1.178 0.559 0.065 1.023-0.273 1.307-0.954 0.104-0.25 0.555-0.729 1.136-1.208 1.208-0.996 1.171-0.975 1.989-1.142 0.858-0.175 1.683-0.042 2.034 0.329 0.327 0.344 1.151 2.413 1.151 2.889 0 0.439-0.676 1.445-1.219 1.813-0.386 0.262-1.345 0.392-1.345 0.182 0 0 0-0 0-0 0-0.051 0.169-0.167 0.376-0.259 0.43-0.19 1.089-1.033 1.089-1.393 0-1.41-1.572-2.762-2.801-2.409-0.507 0.145-0.671 0.286-1.252 1.072-0.387 0.524-0.492 0.789-0.57 1.438-0.053 0.437-0.15 0.849-0.217 0.916-0.13 0.13-3.142-0.254-3.31-0.421-0.050-0.050-0.108-0.952-0.129-2.004-0.046-2.365-0.043-2.372 1.18-2.441 0.206-0.012 0.364-0.019 0.49-0.019zM14.92 8.685c0.316 0.001 0.625 0.038 0.828 0.115l0.313 0.119v2.071c0 1.48-0.042 2.097-0.147 2.162-0.081 0.050-0.809 0.184-1.618 0.299-1.725 0.244-1.701 0.256-1.821-0.892-0.064-0.617-0.147-0.83-0.43-1.113l-0.351-0.351 0.171 0.655c0.209 0.801 0.135 1.194-0.303 1.613-0.537 0.514-1.33 0.564-2.219 0.139-0.915-0.437-1.081-0.77-0.838-1.678 0.158-0.592 0.22-0.663 0.938-1.080 0.658-0.383 0.829-0.433 1.194-0.351 0.234 0.053 0.52 0.168 0.635 0.257s0.081 0.015-0.078-0.163c-0.443-0.497-1.102-0.558-1.885-0.174-1.351 0.663-1.907 1.603-1.509 2.553 0.197 0.471 0.97 1.005 1.655 1.142 0.541 0.108 0.246 0.286-0.476 0.286-0.388-0-0.697-0.096-1.051-0.325l0 0c-0.64-0.415-1.147-1.205-1.147-1.788 0-0.547 0.777-2.481 1.151-2.866 0.223-0.229 0.446-0.295 1.18-0.347l0.905-0.065 1.435 0.995c1.216 0.843 1.477 1.082 1.709 1.567 0.336 0.703 0.733 0.947 1.348 0.832 0.58-0.109 0.675-0.332 0.541-1.264-0.098-0.683-0.139-0.763-0.39-0.763-0.173 0-0.304 0.089-0.341 0.232-0.098 0.374 0.017 1.014 0.223 1.242 0.277 0.306 0.024 0.4-0.495 0.183-1.029-0.43-1.149-2.561-0.173-3.066 0.221-0.114 0.639-0.174 1.046-0.173zM22.176 10.365c0.571 0.004 1.389 0.332 1.695 0.721 0.275 0.35 0.322 1.005 0.115 1.6-0.228 0.653-1.583 1.248-2.371 1.041h-0c-0.331-0.087-0.795-0.525-0.932-0.88-0.072-0.187-0.060-0.556 0.034-1.032 0.164-0.835 0.489-1.228 1.171-1.416 0.084-0.023 0.181-0.034 0.287-0.033zM22.255 11.133c-0.203 0.007-0.406 0.104-0.569 0.312-0.139 0.177-0.253 0.412-0.253 0.522 0 0.381 0.486 0.881 0.952 0.98 0.020 0.004 0.199-0.076 0.397-0.179v0c0.29-0.15 0.36-0.266 0.36-0.594 0-0.637-0.441-1.057-0.887-1.041zM10.259 11.233c-0.413-0.014-0.791 0.332-0.791 0.879 0 0.793 0.73 1.101 1.287 0.543 0.363-0.363 0.385-0.835 0.056-1.165-0.17-0.17-0.365-0.25-0.552-0.257zM14.846 13.687c0.936 0 1.337 0.564 1.337 1.883 0 1.090-0.198 1.323-1.080 1.271l-0.685-0.041-0.076 0.464c-0.042 0.255-0.133 0.521-0.203 0.591-0.192 0.192-1.712 0.25-1.824 0.069v-0c-0.051-0.081-0.104-0.224-0.118-0.317s-0.072-0.216-0.13-0.273c-0.058-0.058-1.103-0.023-2.336 0.077-1.621 0.132-2.3 0.145-2.478 0.049-0.482-0.258-0.768-1.509-0.471-2.063 0.157-0.294 0.877-0.735 1.199-0.735 0.302 0 0.506 0.267 0.265 0.347-0.354 0.118-0.731 0.626-0.731 0.986 0 0.866 1.296 0.824 3.11-0.101 1.293-0.66 1.702-0.731 2.872-0.504 0.656 0.128 1.29-0.113 1.497-0.566 0.112-0.245 0.082-0.339-0.195-0.628-0.417-0.435-0.41-0.51 0.047-0.51zM17.793 13.688c0.13-0.001 0.262 0.023 0.395 0.074 0.241 0.092 0.253 0.292 0.018 0.292-0.255 0-0.703 0.687-0.658 1.007 0.052 0.364 0.528 0.416 1.342 0.146 1.115-0.37 1.933-0.169 3.354 0.825 0.728 0.509 1.519 0.679 2.141 0.459 0.574-0.203 0.837-0.516 0.649-0.772-0.696-0.951-0.672-1.135 0.13-0.984 1.067 0.2 1.302 1.001 0.626 2.127l-0.403 0.672-1.147 0.081c-0.885 0.063-1.424 0.028-2.363-0.151-1.276-0.243-1.542-0.199-1.542 0.253 0 0.326-0.61 0.43-1.624 0.277v0c-0.353-0.053-0.571-0.396-0.533-0.839 0.017-0.196-0.085-0.244-0.634-0.299-0.969-0.097-1.289-0.721-0.995-1.945 0.18-0.75 0.683-1.22 1.244-1.224zM8.625 18.082c0.193 0 0.218 0.043 0.126 0.215-0.239 0.446 0.052 1.181 1.020 2.581l0.955 1.381 1.008-0.084c0.555-0.046 1.522-0.044 2.149 0.006 1.062 0.083 1.167 0.115 1.526 0.475 0.212 0.212 0.444 0.603 0.514 0.867 0.136 0.51 0.241 2.437 0.138 2.529-0.034 0.030-0.803 0.086-1.709 0.124-1.24 0.052-1.744 0.029-2.035-0.095v-0c-0.465-0.198-0.651-0.509-0.651-1.092 0-0.699 0.715-1.241 0.807-0.612 0.019 0.131 0.154 0.334 0.299 0.451 0.509 0.412 1.767 0.18 1.9-0.349 0.152-0.607-0.038-0.658-2.456-0.658-2.52 0-2.312 0.078-2.93-1.105-0.202-0.387-0.573-1.091-0.825-1.566-0.4-0.753-0.458-0.969-0.458-1.694 0-0.91 0.21-1.373 0.622-1.373zM23.847 18.082c0.736 0 1.107 0.617 0.945 1.575-0.044 0.259-0.321 0.876-0.617 1.371s-0.655 1.147-0.8 1.449c-0.145 0.302-0.397 0.728-0.56 0.946l-0.297 0.397h-1.746c-1.853 0-2.437 0.115-2.655 0.522-0.193 0.36 0.148 0.572 0.957 0.595 0.356 0.010 0.711 0.024 0.787 0.030s0.2-0.087 0.275-0.209c0.108-0.177 0.088-0.256-0.102-0.397-0.228-0.169-0.226-0.176 0.070-0.176 0.392 0 0.838 0.471 0.838 0.884 0 0.195-0.16 0.489-0.411 0.755-0.457 0.484-0.411 0.479-2.946 0.321v0l-1.099-0.069-0.036-1.091c-0.029-0.889 0.013-1.21 0.226-1.735 0.371-0.914 0.464-0.965 1.691-0.922 0.577 0.020 1.618 0.001 2.314-0.043 1.249-0.079 1.267-0.084 1.465-0.449 0.11-0.203 0.326-0.523 0.48-0.712 0.624-0.767 1.125-1.75 1.125-2.206 0-0.252-0.055-0.492-0.122-0.533-0.234-0.145-0.12-0.305 0.217-0.305zM18.408 18.109l0.505 0.054c0.278 0.030 0.67 0.079 0.871 0.109l0.366 0.055 0.023 1.77c0.022 1.71 0.014 1.77-0.228 1.77-0.138 0-0.386-0.151-0.552-0.336h-0c-0.166-0.185-0.491-0.759-0.723-1.276-0.366-0.816-0.412-1.020-0.342-1.543zM13.625 18.204c0.565 0 0.666 0.214 0.547 1.166-0.117 0.937-1.226 2.618-1.727 2.618-0.158 0-0.176-0.065-0.092-0.336h0.001c0.058-0.185 0.103-1.004 0.101-1.821l-0.005-1.486 0.355-0.071c0.195-0.039 0.564-0.071 0.82-0.071z"></path>
</svg>
