<!-- Generated by IcoMoon.io -->
<svg version="1.1" xmlns="http://www.w3.org/2000/svg" width="32" height="32" viewBox="0 0 32 32">
<title>return_to_for_the_greater_good</title>
<path d="M15.032 10.768c0.052 0.114 0.115 0.236 0.164 0.375v0c0.042 0.118 0.072 0.23 0.105 0.333v-0c0.062 0.195 0.137 0.383 0.217 0.579v0c0.035 0.085 0.049 0.164 0.061 0.23s0.023 0.122 0.035 0.166c0.027 0.080 0.031 0.152 0.040 0.21 0.008 0.059 0.012 0.106 0.023 0.141 0.004 0.019 0.019 0.047 0.038 0.088 0.003 0.008 0.008 0.015 0.012 0.023 0.071 0.004 0.113 0.015 0.13 0.012l0.023-0.004c0.11-0.035 0.239-0.086 0.397-0.099h-0c0.061-0.004 0.127-0.008 0.196-0.008 0.088 0 0.18 0.004 0.271 0.023h0.003c0.003 0 0.008-0 0.015-0.001 0.031-0.135 0.079-0.241 0.096-0.323l0-0.001c0.019-0.086 0.031-0.188 0.046-0.302v-0c0.031-0.202 0.068-0.405 0.122-0.606l0-0c-0 0-0 0-0 0 0.063-0.239 0.135-0.464 0.179-0.685 0.023-0.115 0.040-0.231 0.053-0.351v-0.001c0.012-0.1 0.038-0.175 0.057-0.241l-0.015 0.003c-0.015 0.004-0.038 0.015-0.071 0.023l-0.001 0c-0.105 0.035-0.209 0.049-0.315 0.051h-0l-0.019 0c-0.212-0.001-0.386-0.049-0.526-0.047l-0.023 0c-0.045 0.001-0.103 0.019-0.181 0.050s-0.173 0.071-0.297 0.084h-0c-0.15 0.015-0.274 0.001-0.371 0.015h-0c-0.091 0.008-0.196 0.027-0.316 0.027l-0.038-0.001c-0.093-0.004-0.168-0.023-0.227-0.038 0.041 0.095 0.079 0.187 0.118 0.271z"></path>
<path d="M23.929 13.682c0.198-0.001 0.351 0.027 0.438 0.224 0.165 0.372 0.045 0.865-0.346 1.050-0.227 0.108-0.606-0.035-0.812-0.141-0.184-0.094-0.265-0.175-0.313-0.373-0.023-0.1-0.052-0.204 0.023-0.291 0.073-0.086 0.212-0.165 0.303-0.228 0.187-0.13 0.362-0.141 0.56-0.155-0.056-0.095 0.066-0.086 0.148-0.087zM26.151 16.607c-0.001 0.008-0.001 0.031-0.008 0.063-0.004 0.031-0.012 0.078-0.050 0.136-0.023 0.038-0.072 0.078-0.125 0.096v0c-0.035 0.012-0.064 0.015-0.088 0.015-0.070-0.001-0.11-0.015-0.148-0.027-0.035-0.012-0.068-0.023-0.069-0.023-0.118-0.019-0.228-0.044-0.328-0.060-0.138-0.023-0.291-0.035-0.461-0.085l-0.001-0c-0.223-0.070-0.401-0.167-0.57-0.209-0.17-0.045-0.367-0.065-0.581-0.136l-0-0c-0.137-0.047-0.248-0.090-0.347-0.1h0c-0.078-0.008-0.179-0.003-0.3-0.015v0c-0.112-0.015-0.186-0.035-0.23-0.035l-0.016 0c-0.067 0.004-0.138 0.019-0.218 0.041h-0.001c-0.121 0.031-0.233 0.035-0.332 0.035-0.019 0-0.042-0-0.061-0h-0.023c-0.12 0-0.248 0.004-0.381 0.004-0.105-0-0.215-0.004-0.326-0.019h-0c-0.261-0.035-0.551-0.038-0.854-0.119h0c-0.1-0.027-0.206-0.048-0.315-0.065-0.116-0.019-0.257-0.019-0.417-0.044-0.146-0.027-0.274-0.065-0.388-0.087-0.079-0.015-0.184-0.019-0.31-0.044v0c-0.119-0.023-0.228-0.053-0.328-0.070-0.048-0.008-0.119-0.008-0.209-0.027l-0.107-0.023-0.039-0.101c-0.008-0.027-0.015-0.055-0.015-0.085-0-0.048 0.015-0.092 0.035-0.121 0.019-0.031 0.038-0.048 0.052-0.062 0.031-0.027 0.051-0.038 0.052-0.039v0c0.104-0.078 0.193-0.126 0.252-0.178 0.093-0.081 0.175-0.187 0.26-0.306l-0 0c0.070-0.097 0.137-0.184 0.189-0.268l0-0c0.035-0.058 0.071-0.124 0.11-0.194l0-0c0.008-0.019 0.023-0.047 0.040-0.086 0.019-0.039 0.039-0.087 0.078-0.138 0 0-0 0-0 0l0-0c0.047-0.061 0.104-0.128 0.173-0.185v0c0.044-0.035 0.094-0.057 0.137-0.067 0.043-0.008 0.080-0.012 0.112-0.012 0.050 0 0.087 0.004 0.105 0.004l-0.001 0.148c0.183-0.098 0.352-0.133 0.47-0.196 0.12-0.062 0.243-0.152 0.387-0.239h-0c0.228-0.138 0.454-0.234 0.646-0.353 0.156-0.097 0.313-0.187 0.488-0.265 0.198-0.089 0.365-0.19 0.488-0.333 0.107-0.123 0.213-0.243 0.356-0.357v-0c0.099-0.079 0.13-0.109 0.164-0.144s0.079-0.089 0.175-0.183c0.019-0.015 0.042-0.049 0.074-0.091 0.031-0.042 0.072-0.093 0.135-0.142l0.001-0.001c0.038-0.027 0.078-0.053 0.146-0.076 0.023-0.008 0.050-0.015 0.090-0.015l0.040 0.003c0.023 0.004 0.050 0.008 0.086 0.031 0.035 0.019 0.073 0.061 0.090 0.099 0.012 0.023 0.015 0.046 0.019 0.060 0.003 0.019 0.003 0.031 0.003 0.038l0.001 0.012v0c0.012 0.117 0.035 0.24 0.059 0.359l0 0c0.027 0.132 0.088 0.272 0.144 0.436 0.004 0.012 0.015 0.043 0.031 0.081s0.031 0.083 0.043 0.132c0.008 0.035 0.015 0.068 0.015 0.113l-0.001 0.031-0.019 0.178-0.181-0.001-0-0-0.012 0.008c-0.031 0.019-0.048 0.031-0.089 0.046-0.012 0.004-0.031 0.008-0.055 0.012-0.077 0.042-0.158 0.066-0.231 0.076-0.068 0.008-0.12 0.031-0.203 0.069l-0.001 0c-0.077 0.035-0.162 0.080-0.263 0.117-0.082 0.031-0.15 0.048-0.2 0.070l-0 0c-0.053 0.023-0.117 0.057-0.198 0.088l-0 0c0 0 0 0 0-0-0.104 0.039-0.185 0.048-0.238 0.066-0.094 0.027-0.194 0.075-0.286 0.127-0.060 0.031-0.131 0.1-0.244 0.17v0c-0.059 0.035-0.111 0.058-0.159 0.079l-0.027 0.015c-0.008 0.008-0.027 0.023-0.051 0.048-0.142 0.138-0.312 0.283-0.496 0.392l-0 0c-0.149 0.087-0.298 0.185-0.467 0.276v0c-0.116 0.062-0.222 0.141-0.335 0.233l0-0c-0.015 0.012-0.027 0.019-0.040 0.031 0.019 0.003 0.043 0.008 0.063 0.008 0.113 0.015 0.231 0.015 0.354 0.015 0.085 0 0.173-0.001 0.263-0.001l0.027 0h0.019c0.278 0 0.562-0.019 0.858-0.019l0.050 0c0.18 0.003 0.329 0.041 0.458 0.054 0.164 0.019 0.327 0.035 0.48 0.040 0.035 0.001 0.072 0.001 0.108 0.001 0.14 0 0.285-0.008 0.436-0.008 0.105 0 0.213 0.003 0.323 0.015v0c0.184 0.019 0.364 0.063 0.529 0.11 0.102 0.031 0.188 0.070 0.263 0.101s0.14 0.055 0.201 0.066h0c0.027 0.004 0.058 0.004 0.098 0.008-0-0.023-0.001-0.047-0.001-0.073v0c-0.004-0.217-0.027-0.435-0.055-0.657v-0c-0.031-0.251-0.098-0.511-0.131-0.794v0c-0.043-0.363-0.104-0.701-0.214-1.040-0.092-0.285-0.17-0.576-0.244-0.86l-0-0.001c-0.027-0.105-0.084-0.229-0.111-0.396-0.008-0.041-0.015-0.086-0.019-0.133l-0.001-0.008-0-0.008-0.001-0.041c-0.004-0.015-0.019-0.045-0.051-0.088-0.035-0.052-0.085-0.121-0.111-0.225l-0.099-0.402 0.369 0.173 0.008 0c0.023 0.001 0.063-0.004 0.124-0.008l0.023 0c0.080 0.004 0.143 0.023 0.19 0.035 0.047 0.015 0.080 0.019 0.099 0.023 0.048 0.003 0.091 0.008 0.123 0.008 0.012 0 0.019-0.001 0.027-0.001l0.008-0.004c0.015-0.012 0.042-0.035 0.085-0.056 0.031-0.015 0.070-0.031 0.129-0.035 0.061-0.003 0.135 0.031 0.175 0.072l0 0c0.068 0.069 0.085 0.139 0.098 0.191s0.015 0.098 0.015 0.122l-0-0c0.012 0.117 0.045 0.247 0.081 0.383v0c0.084 0.32 0.192 0.643 0.281 0.98 0.043 0.165 0.085 0.333 0.119 0.504 0.046 0.227 0.067 0.445 0.101 0.651v0c0.051 0.306 0.101 0.613 0.129 0.933v0.001c0.008 0.096 0.015 0.193 0.015 0.293l-0 0.027v0.015c-0 0.13 0.019 0.275 0.019 0.437v0c0 0.041 0 0.082 0 0.123 0 0.158-0.001 0.316-0.001 0.472v0.046c0 0.055 0.003 0.115 0.003 0.181 0 0.050-0.001 0.103-0.008 0.159zM20.236 23.007c-0.027 0.031-0.051 0.045-0.071 0.057l-0.001 0.001c-0.047 0.027-0.084 0.035-0.114 0.043s-0.052 0.012-0.060 0.015c-0.053 0.015-0.109 0.035-0.17 0.050l-0.001 0c-0.091 0.023-0.177 0.027-0.254 0.027-0.075-0-0.143-0.004-0.201-0.004-0.072-0-0.154 0.004-0.243 0.004-0.065 0-0.134-0.004-0.205-0.015 0.023 0.083 0.043 0.162 0.066 0.235v-0c0.041 0.13 0.082 0.26 0.115 0.401v0c0.027 0.121 0.068 0.246 0.105 0.379 0.060 0.214 0.092 0.421 0.138 0.61 0.046 0.19 0.14 0.382 0.215 0.611 0.003 0.008 0.008 0.027 0.015 0.051s0.015 0.057 0.015 0.1c0 0.027-0.004 0.061-0.015 0.097-0.015 0.035-0.038 0.073-0.068 0.101l-0 0c0 0 0-0 0-0-0.035 0.035-0.080 0.054-0.116 0.063-0.038 0.008-0.065 0.008-0.085 0.008-0.019-0-0.035-0.001-0.038-0.001h-0.001c-0.064 0.001-0.091 0.003-0.099 0.008l-0 0c-0.003 0.001-0.004 0.001-0.031 0.015-0.027 0.015-0.079 0.031-0.131 0.035h-0c-0.035 0.001-0.068 0.003-0.102 0.003-0.14 0-0.28-0.015-0.419-0.052 0 0 0 0 0.001 0l-0.001-0c-0.035-0.008-0.063-0.019-0.089-0.023-0.015-0.004-0.027-0.008-0.038-0.008l-0.035 0.023-0.035 0.008c-0.019 0.004-0.044 0.008-0.068 0.008-0.038 0-0.077-0.008-0.109-0.027-0.031-0.015-0.057-0.035-0.075-0.056-0.038-0.040-0.053-0.077-0.067-0.11-0.023-0.065-0.031-0.123-0.038-0.169-0.004-0.031-0.004-0.056-0.008-0.066l-0-0.001c-0.023-0.163-0.012-0.292-0.031-0.391v-0c-0.023-0.132-0.065-0.278-0.091-0.444v-0c-0.019-0.118-0.035-0.234-0.057-0.341v-0.001c-0.042-0.201-0.060-0.385-0.111-0.539-0.061-0.189-0.078-0.37-0.079-0.552-0.019-0.004-0.038-0.008-0.052-0.015-0.023-0.012-0.035-0.019-0.050-0.031l-0.023-0.015c-0.008 0.001-0.031 0.004-0.061 0.012-0.035 0.008-0.077 0.023-0.127 0.031v0c-0.035 0.008-0.050 0.008-0.055 0.012l-0.008 0.008c-0.015 0.012-0.050 0.038-0.107 0.055h-0c-0.044 0.012-0.081 0.015-0.111 0.015-0.045-0-0.076-0.004-0.087-0.004h-0.001c-0.019-0-0.042-0-0.063-0-0.035 0-0.073 0-0.111 0.001h-0.004c-0.126-0.001-0.226-0.023-0.295-0.023-0.019 0-0.035 0.001-0.048 0.003h-0c-0.019 0.003-0.043 0.008-0.078 0.019-0.035 0.008-0.080 0.019-0.135 0.019-0.019 0-0.041-0.001-0.063-0.004v0c-0.055-0.008-0.096-0.015-0.133-0.015h-0.016c-0.035-0-0.078 0.003-0.124 0.008-0.003 0.129-0.019 0.24-0.019 0.332l0 0.008v-0c0 0.050 0.001 0.1 0.001 0.15v0.136c0 0.035 0 0.068 0 0.103v0.008c-0.001 0.138-0.019 0.252-0.019 0.346l0 0.012v0c0 0.027 0.001 0.051 0.001 0.077-0 0.142-0.004 0.295-0.027 0.442-0.035 0.216-0.093 0.397-0.101 0.561-0.001 0.038-0.003 0.078-0.003 0.119l0 0.050 0.004 0.145-0.023 0.046c-0.023 0.047-0.076 0.093-0.122 0.109s-0.077 0.015-0.093 0.015l-0.008-0c-0.109 0.012-0.242 0.053-0.369 0.094l-0 0c-0.023 0.008-0.067 0.031-0.124 0.058s-0.128 0.061-0.226 0.069c-0.012 0.001-0.023 0.003-0.047 0.003-0.023-0.001-0.060-0-0.111-0.023-0.052-0.023-0.095-0.079-0.109-0.117-0.012-0.027-0.015-0.047-0.019-0.065l-0-0c0 0 0 0 0 0-0.004-0.027-0.004-0.051-0.004-0.072 0-0.042 0.003-0.073 0.003-0.087 0-0.042-0.001-0.088-0.001-0.141 0-0.069 0.003-0.149 0.027-0.235 0.019-0.065 0.027-0.155 0.056-0.265v0c0.015-0.048 0.019-0.119 0.031-0.211 0.023-0.142 0.064-0.245 0.073-0.324 0.015-0.118 0.012-0.262 0.023-0.425l0-0c0.008-0.096 0.023-0.183 0.035-0.267 0.019-0.114 0.015-0.24 0.019-0.384v0c0.004-0.164 0.012-0.326 0.015-0.486v-0c0.004-0.177 0.023-0.342 0.038-0.501v0c0.015-0.192 0.023-0.391 0.038-0.596 0.012-0.185 0.015-0.373 0.019-0.571v-0c0.008-0.233 0.038-0.454 0.048-0.667v-0c0.015-0.3 0.043-0.599 0.080-0.898 0.035-0.277 0.052-0.55 0.062-0.825-0.058 0.012-0.094 0.015-0.107 0.019l-0.001 0c-0.058 0.019-0.127 0.044-0.216 0.062-0.080 0.015-0.162 0.031-0.245 0.047h0c-0.004 0.001-0.031 0.008-0.058 0.012-0.031 0.004-0.063 0.012-0.107 0.012-0.015 0-0.035-0.001-0.055-0.004l-0.182-0.031 0.019-0.182c0.012-0.096 0.031-0.157 0.035-0.194 0.008-0.094 0.012-0.194 0.015-0.3 0.008-0.105 0.019-0.201 0.023-0.287l-0-0.003-0.001-0.015c-0.001-0.015-0.003-0.035-0.003-0.057 0.001-0.031 0-0.068 0.027-0.125l0-0.001c0.015-0.035 0.048-0.077 0.092-0.103s0.092-0.035 0.128-0.035c0.078 0.003 0.117 0.027 0.148 0.039 0.023 0.012 0.038 0.019 0.047 0.027 0.004 0.001 0.015 0.001 0.027 0.001 0.035 0.001 0.090-0.008 0.158-0.008h0.017c0.081-0 0.125-0.003 0.184-0.019 0.093-0.027 0.185-0.035 0.272-0.035 0.043 0 0.085 0.003 0.127 0.004v0c0.071 0.008 0.121 0.015 0.155 0.015l0.019-0.001c0.042-0.003 0.103-0.015 0.186-0.019h-0c0.031-0.001 0.075-0.004 0.129-0.004 0.038 0 0.080 0.001 0.128 0.012l0.121 0.027 0.027 0.12c0.015 0.068 0.012 0.106 0.015 0.112l0 0.001c0.019 0.090 0.027 0.177 0.027 0.263v0l0 0.038c0 0.078-0.008 0.155-0.027 0.235v0c0 0 0 0 0 0-0.023 0.1-0.031 0.224-0.031 0.356 0 0.065 0.001 0.133 0.001 0.201 0 0.251-0.001 0.501-0.001 0.751 0 0.142 0 0.283 0.001 0.425v0.016c-0 0.282-0.031 0.55-0.038 0.807-0.004 0.127-0.023 0.235-0.041 0.34v0c-0.019 0.118-0.019 0.264-0.043 0.431-0.015 0.081-0.019 0.161-0.023 0.241 0.012-0.004 0.027-0.012 0.042-0.019l0.001-0c0.053-0.019 0.082-0.023 0.086-0.027 0.015-0.008 0.027-0.015 0.054-0.027 0.031-0.015 0.071-0.023 0.107-0.031h0c0.048-0.004 0.105-0.023 0.175-0.046s0.152-0.050 0.251-0.061h0c0.087-0.008 0.173-0.012 0.257-0.012 0.104 0 0.205 0.004 0.299 0.008v0c0.027 0.001 0.050 0.004 0.074 0.008-0.046-0.151-0.080-0.301-0.113-0.441-0.019-0.089-0.019-0.167-0.019-0.231v-0.031l-0-0.049v-0c-0-0.058-0.019-0.135-0.038-0.241v0c-0.023-0.154-0.027-0.3-0.042-0.434-0.012-0.124-0.035-0.257-0.048-0.403-0.015-0.16-0.019-0.31-0.031-0.451-0.015-0.138-0.044-0.293-0.047-0.464v0c-0.001-0.027-0.001-0.052-0.001-0.078 0-0.053 0.001-0.105 0.001-0.156 0-0.045-0.001-0.088-0.003-0.13-0.008-0.204-0.031-0.418-0.035-0.644v-0c-0.001-0.132-0.001-0.253-0.015-0.37-0.019-0.165-0.057-0.337-0.089-0.522-0.015-0.103-0.040-0.208-0.060-0.32l0 0.001-0.001-0.008-0.004-0.019c-0.004-0.015-0.008-0.035-0.015-0.056-0.012-0.044-0.023-0.093-0.023-0.157 0.001-0.027 0.001-0.060 0.019-0.105l0.048-0.123 0.132-0.004h0.008c0.074 0.001 0.123 0.023 0.155 0.038 0.031 0.015 0.045 0.019 0.049 0.023l0.008 0c0.027 0 0.065-0.004 0.103-0.015 0.063-0.015 0.119-0.031 0.158-0.049l0.003-0.001 0.027-0.015c0.027-0.015 0.064-0.042 0.15-0.045l0.038 0.003 0.133 0.023 0.031 0.131c0.015 0.060 0.015 0.11 0.015 0.146 0 0.038 0.001 0.061 0.004 0.073v-0c0.019 0.095 0.023 0.17 0.041 0.223v-0c0.093 0.318 0.187 0.64 0.261 0.971v0c0.027 0.127 0.038 0.244 0.055 0.344v0c0.015 0.077 0.035 0.163 0.056 0.26v0c0.027 0.128 0.053 0.263 0.072 0.402l-0-0.001c0 0 0 0 0 0.001 0.008 0.054 0.008 0.079 0.019 0.107 0.035 0.118 0.107 0.255 0.131 0.444v0c0.004 0.067 0.048 0.161 0.082 0.297v0c0.045 0.197 0.073 0.369 0.136 0.518l0 0c0.004 0.015 0.015 0.035 0.027 0.064 0.012 0.031 0.019 0.075 0.019 0.12v0.007l-0 0.031c0 0.023 0 0.049 0 0.075v0.001c0 0.053 0.001 0.067 0.008 0.099v0.001c0.027 0.117 0.019 0.206 0.031 0.261 0.004 0.027 0.015 0.061 0.027 0.107 0.015 0.045 0.031 0.099 0.042 0.165v0c0.019 0.13 0.035 0.25 0.061 0.36l-0-0c0.023 0.095 0.027 0.18 0.027 0.254s-0.001 0.135 0.004 0.19l0.003 0.012 0.001 0.001 0.008 0.003c0.019 0.004 0.052 0.008 0.077 0.008l0.031-0.003h-0.001c0.092-0.015 0.18-0.027 0.27-0.035h-0.001c0.008-0.001 0.015-0.001 0.057-0.019h0c0.061-0.027 0.118-0.035 0.159-0.035 0.042-0.001 0.070-0.001 0.086-0.003 0.075-0.003 0.187-0.046 0.344-0.053l0.001-0 0.008-0.001 0.027-0.003c0.023-0.001 0.051-0.004 0.082-0.004 0.015 0 0.031 0 0.048 0.003 0.019 0.003 0.039 0.004 0.073 0.015 0.023 0.008 0.055 0.023 0.090 0.065l0.001 0.001c0.046 0.060 0.049 0.114 0.050 0.148-0 0.043-0.008 0.070-0.015 0.091-0.004 0.015-0.008 0.027-0.008 0.031l-0.001 0.027 0 0.027v0.009c-0 0.080-0.008 0.152-0.008 0.212-0 0.052 0.004 0.089 0.015 0.109 0.004 0.004 0.012 0.015 0.023 0.035s0.027 0.055 0.027 0.105c0.001 0.054-0.027 0.111-0.052 0.14zM13.847 10.874c-0.023-0.107-0.056-0.212-0.090-0.316-0.050-0.004-0.099-0.008-0.15-0.008-0.068 0-0.139 0.004-0.214 0.012-0.031 0.003-0.063 0.004-0.095 0.004-0.201 0-0.376-0.067-0.532-0.15l0 0c-0.027-0.015-0.039-0.023-0.041-0.023s-0.008-0.001-0.031-0.008c-0.023-0.004-0.065-0.023-0.093-0.045-0.019-0.015-0.035-0.031-0.045-0.042l-0-0c-0.057-0.065-0.1-0.117-0.143-0.155-0.008-0.008-0.031-0.023-0.059-0.050-0.027-0.027-0.065-0.063-0.092-0.121l-0.113-0.242 0.267-0.035c0.038-0.004 0.089-0.023 0.158-0.056 0.069-0.031 0.155-0.071 0.267-0.087h0c0.127-0.015 0.231-0.008 0.308-0.015 0.072-0.008 0.149-0.015 0.231-0.027 0.012-0.001 0.035-0.004 0.063-0.012 0.004-0.001 0.008-0.001 0.012-0.001-0.008-0.055-0.031-0.124-0.043-0.22v0c-0.012-0.1-0.023-0.194-0.039-0.282-0.035-0.191-0.091-0.377-0.158-0.568-0.045-0.13-0.107-0.269-0.151-0.429-0.035-0.13-0.064-0.26-0.088-0.388-0.031-0.159-0.058-0.315-0.097-0.455v0c-0.052-0.183-0.128-0.371-0.205-0.561v-0c-0.023-0.060-0.058-0.128-0.086-0.216l0 0.001c-0.008-0.023-0.023-0.054-0.047-0.096-0.023-0.042-0.056-0.095-0.082-0.164l-0.060-0.163 0.155-0.080c0.060-0.031 0.106-0.038 0.141-0.043 0.035-0.004 0.058-0.012 0.060-0.012 0.096-0.031 0.213-0.077 0.361-0.083v0l0.043-0.001c0.054 0 0.101 0.003 0.14 0.003l0.031-0.001 0.023-0.008c0.023-0.004 0.058-0.015 0.115-0.019 0.019 0 0.045 0.003 0.074 0.012h0c0.027 0.008 0.056 0.019 0.083 0.042 0.027 0.019 0.050 0.050 0.063 0.077 0.027 0.056 0.027 0.096 0.027 0.12-0 0.027-0.001 0.040-0.001 0.043 0.008 0.091 0.038 0.189 0.075 0.297 0.106 0.307 0.186 0.61 0.295 0.889v-0c0.109 0.282 0.165 0.558 0.255 0.802 0.065 0.18 0.143 0.375 0.186 0.59v-0c0.031 0.145 0.061 0.289 0.104 0.417 0.023 0.071 0.057 0.152 0.084 0.248 0.004 0.003 0.012 0.004 0.019 0.008 0.084 0.031 0.14 0.061 0.173 0.068l0 0c0.015 0.004 0.038 0.008 0.068 0.004 0.031 0 0.066-0.003 0.103-0.004h-0c0.043-0.003 0.101-0.015 0.184-0.015 0.019 0 0.042 0.001 0.065 0.004v0c0.080 0.008 0.146 0.023 0.2 0.031h0c0.045 0.004 0.098 0.008 0.152 0.008s0.109-0.003 0.155-0.008c0.162-0.019 0.292-0.008 0.389-0.023 0.046-0.008 0.093-0.012 0.142-0.012 0.067 0 0.138 0.008 0.209 0.031l0 0c0.101 0.031 0.154 0.045 0.224 0.045h0.008c0.080-0.001 0.158-0.001 0.237-0.001 0.063 0 0.125 0 0.187 0 0-0.003-0-0.004-0-0.008 0-0.111 0.023-0.209 0.051-0.297s0.055-0.166 0.073-0.23c0.063-0.226 0.111-0.457 0.164-0.696 0.044-0.197 0.114-0.368 0.167-0.53 0.040-0.121 0.059-0.258 0.075-0.406v-0c0.012-0.104 0.019-0.215 0.038-0.331v-0c0.027-0.171 0.075-0.32 0.102-0.455l0-0.001c0.015-0.082 0.031-0.167 0.050-0.255v0c0.019-0.093 0.042-0.158 0.045-0.201l0.015-0.133 0.129-0.038c0.019-0.008 0.043-0.008 0.068-0.008 0.045-0.001 0.093 0.015 0.128 0.038 0.019 0.012 0.035 0.027 0.047 0.038 0.035 0.027 0.072 0.053 0.112 0.073l0.001 0.001c0.063 0.035 0.152 0.069 0.194 0.073 0.015 0.003 0.031 0.003 0.050 0.003 0.041 0 0.095-0.004 0.16-0.004l0.015 0c0.023 0.001 0.057 0.001 0.103 0.015 0.045 0.012 0.104 0.050 0.136 0.098 0.023 0.031 0.035 0.063 0.043 0.092v0c0.015 0.047 0.015 0.091 0.015 0.132-0 0.070-0.012 0.131-0.019 0.185-0.012 0.053-0.019 0.1-0.023 0.129v0c-0.027 0.177-0.050 0.363-0.096 0.553v0c-0.053 0.212-0.131 0.395-0.177 0.567-0.027 0.104-0.039 0.213-0.043 0.333v-0c-0.012 0.379-0.143 0.713-0.277 1.023-0.012 0.027-0.023 0.058-0.035 0.094 0.048-0.012 0.104-0.027 0.177-0.035l0-0c0.027-0.003 0.050-0.004 0.073-0.004 0.103 0.001 0.188 0.019 0.248 0.027 0.083 0.008 0.168 0.012 0.258 0.012 0.027 0 0.053-0 0.080-0h0.004c0.049 0 0.089 0.008 0.116 0.012s0.042 0.008 0.050 0.008l0.145 0.004 0.040 0.138c0.012 0.043 0.015 0.083 0.015 0.118-0.001 0.086-0.019 0.155-0.027 0.198-0.019 0.095-0.038 0.193-0.059 0.29l-0.001 0.004-0.001 0.004c-0.012 0.042-0.019 0.084-0.027 0.128-0.001 0.043-0.003 0.087-0.004 0.13l-0.001 0.008-0.001 0.008c-0.003 0.015-0.004 0.038-0.015 0.069-0.008 0.031-0.023 0.074-0.067 0.12-0.027 0.031-0.071 0.057-0.117 0.069l-0.027 0.008-0.031-0.001c-0.041-0.001-0.083-0.004-0.124-0.008l-0.005-0.001c-0.052-0.008-0.103-0.012-0.154-0.015h-0.023c-0.042 0-0.087 0.001-0.134 0.001-0.045 0-0.092-0.001-0.141-0.004h-0c-0.089-0.008-0.197-0.004-0.317-0.015h-0.001c-0.027-0.003-0.047-0.008-0.066-0.008 0.008 0.038 0.008 0.072 0.008 0.102-0 0.070-0.008 0.127-0.008 0.158v0.001l0 0.015c-0 0.163-0.012 0.333-0.053 0.504l0-0c-0.070 0.297-0.125 0.605-0.195 0.917v0c-0.035 0.154-0.084 0.289-0.116 0.415l-0 0c-0.027 0.108-0.057 0.215-0.090 0.323l-0 0c-0.042 0.132-0.048 0.289-0.085 0.477v0c-0.035 0.163-0.105 0.272-0.14 0.364-0.079 0.194-0.127 0.415-0.18 0.643v0c-0.041 0.166-0.043 0.373-0.115 0.601v0c-0.041 0.124-0.087 0.22-0.101 0.295v0c-0.023 0.111-0.041 0.255-0.104 0.403l0-0-0.003 0.008-0.008 0.023c-0.008 0.019-0.015 0.039-0.027 0.062-0.008 0.015-0.015 0.031-0.031 0.053-0.008 0.012-0.019 0.027-0.042 0.048l-0.001 0.001c-0.015 0.015-0.035 0.027-0.063 0.041-0.027 0.015-0.066 0.023-0.097 0.023-0.038-0-0.061-0.008-0.073-0.012l-0.015-0.004c-0.012-0.003-0.031-0.003-0.053-0.003-0.031 0-0.069 0.003-0.114 0.003h-0c-0.004-0.001-0.038 0.003-0.082 0.004-0.027-0-0.057-0.001-0.098-0.012l-0.153-0.043 0.008-0.157c0.003-0.041 0.012-0.068 0.015-0.089 0.008-0.019 0.012-0.035 0.012-0.038l0.001-0.002c0.023-0.096 0.035-0.207 0.060-0.328l0-0c0.027-0.135 0.064-0.248 0.073-0.34v-0.001c0.008-0.067 0.015-0.139 0.027-0.22l0-0c0.027-0.151 0.064-0.309 0.115-0.461v-0c0.023-0.072 0.039-0.153 0.055-0.243-0.015 0.003-0.031 0.003-0.042 0.003-0.039-0-0.068-0.004-0.072-0.004l-0.008 0c-0.154-0.001-0.268-0.035-0.36-0.038h-0.001l-0.008-0c-0.035-0.001-0.098 0.015-0.201 0.019h-0c-0.041 0.001-0.085 0.003-0.133 0.003-0.042 0-0.085-0.001-0.13-0.004h-0.001c-0.039-0.004-0.068-0.008-0.092-0.012 0.015 0.054 0.027 0.111 0.027 0.175l-0 0.012 0 0.004 0.001 0.019c0.001 0.015 0.003 0.035 0.003 0.061 0 0.015-0.001 0.035-0.004 0.059-0.004 0.023-0.008 0.053-0.035 0.094-0.015 0.027-0.045 0.060-0.089 0.083l-0.219 0.11-0.038-0.136c-0.047-0.008-0.093-0.015-0.134-0.019h-0.001l-0.035-0.001c-0.019 0-0.047 0.001-0.080 0.001-0.035 0-0.076-0.001-0.125-0.012h-0c-0.044-0.008-0.083-0.023-0.126-0.048-0.042-0.023-0.090-0.052-0.136-0.124 0 0 0 0 0 0l-0-0c-0.023-0.039-0.027-0.065-0.031-0.087s-0.008-0.040-0.008-0.057c-0.003-0.031-0.003-0.060-0.004-0.061-0.012-0.081-0.019-0.159-0.027-0.238-0.015-0.143-0.040-0.298-0.050-0.464v0c-0.004-0.122-0.001-0.218-0.015-0.29-0.031-0.178-0.134-0.369-0.215-0.597l-0-0c-0.035-0.102-0.053-0.192-0.076-0.267-0.035-0.118-0.070-0.231-0.11-0.336-0.031-0.080-0.086-0.176-0.125-0.306-0.065-0.223-0.137-0.454-0.192-0.692zM13.755 15.054c-0.023 0.047-0.060 0.086-0.099 0.114v0c-0.043 0.031-0.111 0.084-0.22 0.104h-0c-0.054 0.008-0.096 0.008-0.126 0.012-0.031 0.001-0.045 0.004-0.054 0.008l-0 0c-0.078 0.027-0.144 0.039-0.204 0.054l-0 0-0.004 0.004c-0.008 0.008-0.031 0.027-0.068 0.053 0 0 0 0 0-0l-0.001 0.001c0-0 0-0 0.001-0-0.008 0.004-0.015 0.008-0.019 0.012 0.004 0.012 0.008 0.023 0.012 0.031 0 0.003 0.023 0.039 0.053 0.085 0.027 0.047 0.071 0.108 0.076 0.217l0 0.008c-0.001 0.074-0.019 0.133-0.035 0.185-0.019 0.052-0.038 0.095-0.050 0.128l-0 0.001c-0.027 0.064-0.062 0.127-0.11 0.181s-0.108 0.1-0.173 0.136c0-0 0-0 0-0v0c-0.087 0.047-0.14 0.079-0.188 0.127l0-0c-0.015 0.015-0.035 0.035-0.068 0.060-0.031 0.023-0.085 0.055-0.165 0.057-0.042 0-0.087-0.012-0.123-0.031-0.035-0.019-0.064-0.045-0.085-0.071l-0.001-0.001c-0.059-0.075-0.066-0.139-0.074-0.185s-0.008-0.083-0.008-0.090l-0-0.001c-0.015-0.115-0.035-0.229-0.051-0.344v-0c-0.015-0.101-0.027-0.196-0.042-0.288-0 0-0.001 0-0.001 0h-0c-0.035 0.008-0.064 0.008-0.088 0.008-0.031-0-0.052-0.001-0.063-0.001h-0.002c-0.038 0-0.089 0.004-0.15 0.004-0.039 0-0.082-0.001-0.129-0.008v0c-0.094-0.019-0.148-0.040-0.18-0.041-0.053-0.008-0.128-0.001-0.231-0.023v-0c-0.119-0.027-0.217-0.043-0.325-0.047h-0c-0.134-0.004-0.239-0.031-0.322-0.031h-0c-0.074-0.003-0.15-0.004-0.226-0.004s-0.154 0.001-0.234 0.001c-0.12 0-0.243-0.001-0.37-0.012h0c-0.042-0.003-0.087-0.004-0.134-0.004s-0.097 0.001-0.148 0.001h-0.008c-0.076 0-0.148-0.003-0.216-0.003-0.047 0-0.091 0.001-0.133 0.004h-0c-0.129 0.008-0.272 0.052-0.442 0.083h0c-0.108 0.019-0.197 0.023-0.266 0.042l-0.004 0.001-0.015 0.004c-0.015 0.004-0.031 0.008-0.051 0.015-0.031 0.008-0.069 0.015-0.115 0.023-0.001 0.004-0.004 0.008-0.008 0.015-0.023 0.056-0.048 0.121-0.078 0.193v-0c-0.035 0.087-0.074 0.179-0.138 0.279v0c-0.065 0.1-0.13 0.2-0.19 0.3v-0c-0.079 0.128-0.13 0.299-0.185 0.477v0c-0.069 0.223-0.124 0.453-0.167 0.683l-0 0c-0 0.001-0.001 0.008-0.003 0.031-0.001 0.019-0.003 0.050-0.015 0.093-0.008 0.031-0.027 0.064-0.051 0.095-0.035 0.042-0.084 0.071-0.129 0.086 0-0 0-0 0-0l-0 0c-0.157 0.053-0.308 0.061-0.447 0.062-0.027 0-0.055 0-0.088 0-0.058 0-0.127-0.001-0.2-0.015-0.073-0.015-0.155-0.038-0.231-0.095l-0.001-0.001c-0.044-0.031-0.081-0.083-0.097-0.131-0.015-0.048-0.019-0.088-0.019-0.117 0-0.031 0.001-0.048 0.001-0.058v-0c0.003-0.106 0.035-0.197 0.063-0.275 0.031-0.078 0.062-0.148 0.082-0.201 0.101-0.277 0.194-0.564 0.318-0.852l0.001-0.004c0.001-0.008 0.004-0.027 0.008-0.057v0c0.023-0.098 0.065-0.172 0.099-0.231v0c0.031-0.055 0.060-0.118 0.098-0.193l0-0c0.055-0.109 0.109-0.226 0.184-0.345-0.048-0.004-0.094-0.008-0.136-0.008l-0.035 0.001-0 0c-0.118 0.004-0.266 0.047-0.422 0.086l-0 0c0-0 0-0 0-0h-0c-0.058 0.015-0.148 0.045-0.265 0.047-0.051 0-0.108-0.008-0.165-0.031v0c-0.035-0.015-0.077-0.038-0.112-0.081s-0.052-0.103-0.051-0.146c0.001-0.053 0.015-0.086 0.023-0.109s0.019-0.038 0.023-0.047c0.076-0.153 0.145-0.316 0.226-0.482l-0 0c0.085-0.171 0.182-0.319 0.223-0.446l0.004-0.023c0.001-0.015 0.001-0.040 0.004-0.076l0.015-0.164 0.165-0.015 0.035-0.001c0.077 0 0.138 0.019 0.187 0.031 0.048 0.015 0.087 0.027 0.105 0.027l0 0c0.055 0.008 0.12 0.012 0.189 0.012 0.091 0 0.19-0.004 0.293-0.004 0.112 0 0.226-0.001 0.342-0.001 0.043 0 0.086 0 0.13 0.001 0.15 0.003 0.285 0.019 0.406 0.019h0.012l0.038-0c0.105 0 0.21 0.003 0.32 0.015 0.049 0.004 0.102 0.008 0.157 0.008 0.080 0 0.167-0.003 0.257-0.003h0.008c0.040 0 0.081-0 0.122-0 0.098 0 0.2 0.001 0.305 0.008h-0c0.147 0.012 0.281 0.027 0.407 0.027h0.004c0.168-0.001 0.343-0.008 0.521-0.008 0.13 0 0.263 0.003 0.395 0.015 0.125 0.012 0.235 0.031 0.329 0.039h-0c0.097 0.008 0.212 0.004 0.349 0.031 0.004 0.001 0.008 0.001 0.012 0.001l-0.076-0.173 0.141 0.183c0.068 0.012 0.14 0.019 0.22 0.035l0 0c-0 0-0-0-0-0 0.127 0.027 0.207 0.068 0.262 0.080 0.044 0.012 0.106 0.015 0.182 0.019 0.076 0.008 0.167 0.015 0.266 0.053l0 0c0.047 0.019 0.089 0.035 0.1 0.035h0c0.047 0.008 0.113 0.008 0.195 0.023 0.12 0.019 0.24 0.035 0.349 0.035 0.051 0 0.099-0.003 0.144-0.012l0.001-0 0.008-0.001 0.023-0.008c0.019-0.004 0.045-0.015 0.074-0.023 0.058-0.015 0.127-0.038 0.214-0.038 0.057 0 0.131 0.008 0.202 0.062v0c0.067 0.053 0.084 0.105 0.098 0.14 0.012 0.035 0.019 0.064 0.019 0.078l0 0.001c0-0-0-0.001-0-0.001 0.015 0.073 0.015 0.121 0.023 0.143l0.001 0.004 0.008 0.019c0.008 0.019 0.019 0.043 0.027 0.079v0c0.008 0.027 0.012 0.056 0.012 0.091 0 0.042-0.008 0.092-0.031 0.138zM8.331 12.808c0.015-0.053 0.031-0.1 0.040-0.13l-0 0c0.008-0.027 0.019-0.074 0.042-0.127s0.056-0.118 0.13-0.173l0.001-0.001c0.067-0.047 0.125-0.060 0.169-0.072s0.077-0.019 0.085-0.023c0.108-0.042 0.227-0.073 0.356-0.074 0.105-0 0.216 0.023 0.32 0.078 0.127 0.069 0.257 0.165 0.34 0.315 0.043 0.082 0.062 0.17 0.063 0.257-0.001 0.143-0.052 0.301-0.19 0.409h-0c-0.080 0.061-0.165 0.101-0.242 0.133h-0c-0.049 0.019-0.109 0.041-0.175 0.041-0.015 0.015-0.031 0.035-0.050 0.049-0.057 0.043-0.133 0.067-0.193 0.065-0.051-0-0.090-0.012-0.115-0.019l-0.001-0c-0.075-0.027-0.111-0.053-0.12-0.054-0.043-0.019-0.104-0.038-0.171-0.066-0.067-0.031-0.144-0.068-0.212-0.143-0.045-0.049-0.082-0.117-0.097-0.19v0c-0.008-0.031-0.008-0.060-0.008-0.088 0-0.073 0.015-0.135 0.031-0.188zM10.439 12.776c0.015-0.035 0.031-0.059 0.040-0.077l0-0c-0 0-0 0-0 0 0.039-0.070 0.095-0.138 0.166-0.183s0.145-0.067 0.22-0.084c0.086-0.019 0.201-0.038 0.323-0.038 0.060 0 0.122 0.004 0.185 0.019s0.128 0.035 0.19 0.080c0.173 0.123 0.258 0.317 0.257 0.501-0 0.156-0.056 0.31-0.16 0.433-0.043 0.052-0.099 0.095-0.16 0.121s-0.123 0.035-0.179 0.035c-0.062 0-0.117-0.008-0.169-0.019h-0c-0.008-0.003-0.027-0.004-0.047-0.008s-0.046-0.012-0.083-0.031c-0.019-0.012-0.051-0.031-0.081-0.068-0.004-0.001-0.008-0.001-0.012-0.003-0.093-0.031-0.2-0.083-0.291-0.176-0.019-0.019-0.050-0.047-0.085-0.082s-0.072-0.073-0.106-0.131l-0-0.001c-0.027-0.046-0.040-0.101-0.040-0.15 0-0.058 0.015-0.103 0.031-0.137zM30.217 17.427c-0.035-0.1-0.074-0.203-0.078-0.306-0.004-0.088 0.069-0.183 0.055-0.267-0.043-0.249-0.111-0.493-0.17-0.739-0.015 0.003-0.035 0.008-0.050 0.008-0.004 0.049-0.008 0.098-0.015 0.146-0.052-0.080-0.092-0.166-0.088-0.25 0.012-0.231 0.043-0.462 0.064-0.692 0.031-0.369 0.085-0.732-0.045-1.103-0.146-0.414-0.264-0.841-0.286-1.286-0.008-0.165-0.035-0.33-0.058-0.495-0.019-0.128-0.042-0.257-0.070-0.384-0.019-0.077-0.052-0.15-0.075-0.227-0.035-0.117-0.071-0.233-0.098-0.352-0.008-0.041 0.031-0.1 0.012-0.129-0.164-0.266-0.197-0.573-0.285-0.862-0.012-0.042-0.027-0.090-0.053-0.122-0.123-0.143-0.254-0.281-0.377-0.424-0.023-0.027-0.027-0.073-0.050-0.146-0.199-0.226-0.442-0.469-0.645-0.742-0.28-0.376-0.528-0.776-0.793-1.164-0.045-0.065-0.104-0.121-0.157-0.181-0.119-0.137-0.238-0.274-0.363-0.416 0.035-0.015 0.053-0.023 0.070-0.031-0.263-0.358-0.526-0.714-0.792-1.076-0.015 0.045-0.027 0.081-0.038 0.116-0.012 0.003-0.023 0.004-0.038 0.008-0.060-0.144-0.134-0.283-0.177-0.432-0.038-0.126-0.098-0.205-0.222-0.255-0.082-0.035-0.153-0.094-0.223-0.15-0.064-0.052-0.112-0.123-0.179-0.17-0.187-0.132-0.371-0.272-0.572-0.378-0.286-0.151-0.506-0.372-0.723-0.599-0.119-0.124-0.235-0.252-0.358-0.373-0.041-0.040-0.096-0.079-0.151-0.092-0.381-0.085-0.763-0.162-1.144-0.245-0.063-0.015-0.129-0.035-0.18-0.072-0.19-0.134-0.369-0.285-0.563-0.414-0.227-0.151-0.464-0.288-0.699-0.426-0.118-0.070-0.235-0.16-0.365-0.188-0.371-0.083-0.747-0.141-1.122-0.207-0.039-0.008-0.081 0.001-0.121 0.008-0.132 0.015-0.271 0.067-0.395 0.043-0.378-0.072-0.723 0.049-1.070 0.146-0.18 0.050-0.326 0.004-0.474-0.072-0.019-0.008-0.012-0.067-0.023-0.143-0.29-0.061-0.613-0.147-0.941-0.19-0.195-0.027-0.399 0.019-0.6 0.027-0.085 0.004-0.174 0.012-0.256-0.008-0.15-0.035-0.296-0.122-0.443-0.123-0.259-0.001-0.519 0.056-0.779 0.067-0.117 0.004-0.137 0.119-0.218 0.139-0.152 0.038-0.31 0.056-0.466 0.082-0-0.004-0.001-0.012-0.001-0.015 0.039-0.019 0.078-0.040 0.145-0.073-0.299-0.058-0.361-0.038-0.531 0.145-0.027 0.031-0.055 0.070-0.090 0.080-0.189 0.058-0.315 0.213-0.485 0.3-0.058 0.031-0.112 0.068-0.166 0.106-0.116 0.081-0.22 0.192-0.348 0.239-0.402 0.148-0.814 0.271-1.221 0.405-0.083 0.027-0.164 0.058-0.245 0.088 0.004 0.015 0.008 0.027 0.012 0.043l0.226-0.043c0.008 0.015 0.012 0.027 0.019 0.041-0.075 0.039-0.146 0.095-0.226 0.114-0.117 0.027-0.242 0.195-0.362 0.001-0.004-0.008-0.040-0.003-0.058 0.003-0.351 0.113-0.712 0.208-1.010 0.441-0.154 0.12-0.287 0.291-0.461 0.357-0.222 0.083-0.377 0.224-0.534 0.38-0.027 0.027-0.063 0.047-0.095 0.071-0.18 0.137-0.367 0.264-0.535 0.414-0.104 0.092-0.178 0.218-0.27 0.335-0.068-0.080-0.088-0.103-0.134-0.159-0.104 0.118-0.195 0.227-0.292 0.329-0.273 0.286-0.519 0.597-0.853 0.822-0.061 0.041-0.104 0.109-0.15 0.168-0.148 0.193-0.288 0.39-0.439 0.58-0.335 0.421-0.675 0.838-0.895 1.335-0.035 0.077-0.095 0.142-0.146 0.211-0.008 0.008-0.023 0.015-0.047 0.027 0.008-0.045 0.015-0.078 0.023-0.112-0.084 0.055-0.159 0.119-0.184 0.199-0.098 0.31-0.18 0.625-0.267 0.939-0.056 0.202-0.084 0.416-0.168 0.605-0.18 0.406-0.384 0.802-0.588 1.198-0.042 0.081-0.148 0.13-0.183 0.212-0.077 0.177-0.143 0.363-0.183 0.551-0.074 0.351-0.122 0.708-0.188 1.061-0.019 0.098-0.082 0.188-0.093 0.286-0.065 0.555-0.027 1.121-0.214 1.662-0.126 0.365-0.068 0.754 0.001 1.106 0.114 0.582 0.122 1.16 0.133 1.744 0.003 0.142 0.058 0.285 0.106 0.422 0.089 0.255 0.19 0.507 0.285 0.76 0.008 0.023 0.015 0.049 0.008 0.070-0.031 0.108-0.057 0.224 0.049 0.295 0.2 0.135 0.262 0.323 0.256 0.548-0.001 0.035 0.012 0.070 0.019 0.104 0.101 0.597 0.346 1.141 0.628 1.669 0.178 0.333 0.388 0.65 0.58 0.976 0.090 0.152 0.174 0.307 0.259 0.462 0.087 0.16 0.143 0.345 0.261 0.477 0.225 0.253 0.472 0.49 0.733 0.707 0.296 0.246 0.631 0.436 0.855 0.772 0.157 0.235 0.411 0.404 0.595 0.624 0.291 0.35 0.556 0.721 0.84 1.076 0.051 0.063 0.14 0.126 0.217 0.135 0.242 0.027 0.487 0.035 0.73 0.035 5.171-0.019 10.342-0.042 15.512-0.065 0.112-0.001 0.224 0 0.335-0.012 0.045-0.004 0.104-0.027 0.129-0.060 0.239-0.319 0.471-0.643 0.707-0.964 0.035-0.047 0.077-0.092 0.125-0.127 0.175-0.126 0.354-0.247 0.531-0.369 0.031-0.023 0.062-0.057 0.098-0.065 0.422-0.103 0.768-0.293 0.919-0.735 0.052-0.152 0.124-0.298 0.2-0.441 0.108-0.205 0.212-0.415 0.346-0.602 0.247-0.345 0.516-0.675 0.772-1.013 0.042-0.055 0.075-0.12 0.1-0.185 0.292-0.768 0.583-1.535 0.969-2.265 0.104-0.196 0.161-0.45 0.142-0.669-0.041-0.47 0.004-0.912 0.214-1.336 0.031-0.059 0.049-0.122 0.074-0.182 0.106-0.254 0.197-0.516 0.325-0.758 0.062-0.117 0.116-0.213 0.071-0.345z"></path>
<path d="M8.071 27.833c0.127 0.116 0.249 0.235 0.38 0.347 0.043 0.038 0.102 0.074 0.16 0.085 0.404 0.079 0.81 0.151 1.215 0.228 0.067 0.015 0.137 0.035 0.191 0.067 0.202 0.125 0.392 0.265 0.597 0.385 0.242 0.14 0.493 0.268 0.743 0.397 0.125 0.065 0.25 0.148 0.387 0.175 0.394 0.078 0.794 0.131 1.192 0.192 0.041 0.008 0.086-0.001 0.128-0.004 0.14-0.015 0.288-0.062 0.42-0.040 0.401 0.067 0.768-0.046 1.137-0.136 0.191-0.047 0.346-0.004 0.504 0.067 0.019 0.008 0.015 0.062 0.027 0.133 0.308 0.057 0.65 0.137 0.999 0.177 0.207 0.023 0.424-0.019 0.637-0.027 0.091-0.004 0.185-0.012 0.272 0.008 0.159 0.031 0.314 0.113 0.471 0.114 0.275 0.001 0.551-0.052 0.827-0.062 0.124-0.004 0.145-0.11 0.232-0.129 0.162-0.035 0.33-0.052 0.495-0.076 0.001 0.004 0.001 0.008 0.001 0.015-0.042 0.019-0.083 0.038-0.154 0.067 0.318 0.054 0.383 0.035 0.564-0.135 0.031-0.027 0.058-0.065 0.095-0.074 0.201-0.054 0.334-0.199 0.514-0.279 0.062-0.027 0.119-0.063 0.176-0.098 0.123-0.075 0.233-0.179 0.369-0.223 0.427-0.138 0.864-0.253 1.297-0.377 0.087-0.027 0.173-0.054 0.26-0.082-0.004-0.015-0.008-0.027-0.012-0.040-0.080 0.015-0.16 0.027-0.24 0.040-0.008-0.012-0.015-0.027-0.019-0.038 0.079-0.038 0.155-0.088 0.24-0.106 0.124-0.027 0.257-0.182 0.385-0.001 0.004 0.008 0.042 0.003 0.061-0.003 0.373-0.106 0.756-0.193 1.073-0.41 0.163-0.112 0.305-0.271 0.489-0.332 0.136-0.045 0.247-0.108 0.35-0.181h-16.896c0.154 0.109 0.295 0.232 0.432 0.358z"></path>
</svg>
