<!-- Generated by IcoMoon.io -->
<svg version="1.1" xmlns="http://www.w3.org/2000/svg" width="32" height="32" viewBox="0 0 32 32">
<title>return_to_the_secret_name</title>
<path d="M18.324 25.716c-0.089 0.004-0.18-0.098-0.276-0.116-0.061-0.012-0.107 0.001-0.169-0.027-0.17-0.079-0.225-0.191-0.429-0.196-0.108-0.003-0.235-0.015-0.341 0.004-0.075 0.015-0.12 0.049-0.2 0.053-0.046 0.003-0.096-0.008-0.142-0.004-0.123 0.015-0.212 0.060-0.342 0.058-0.111-0.001-0.234 0.015-0.342-0.004-0.117-0.023-0.223-0.094-0.342-0.11-0.108-0.015-0.233 0.001-0.342 0.003-0.13 0.001-0.217 0.035-0.287-0.082-0.042-0.072-0.048-0.209-0.115-0.254-0.122-0.082-0.272 0.128-0.339 0.195-0.124 0.127-0.218 0.201-0.4 0.199-0.165-0.003-0.145-0.045-0.142-0.199 0.003-0.135-0.008-0.154-0.085-0.252-0.031-0.038-0.132-0.132-0.136-0.175-0.004-0.058 0.046-0.043 0.045-0.086-0.003-0.122-0.050-0.215-0.081-0.334-0.062-0.238 0.075-0.424 0.13-0.65 0.023-0.1 0.045-0.142 0.085-0.232 0.060-0.139 0.043-0.299 0.041-0.447-0.001-0.070-0.023-0.181 0.003-0.245 0.023-0.054 0.064-0.047 0.112-0.087 0.128-0.109 0.11-0.297 0.155-0.445s0.075-0.253 0.073-0.407c-0.003-0.185 0.015-0.294 0.090-0.459 0.091-0.199 0.2-0.299 0.195-0.526-0.003-0.161 0.023-0.333 0.001-0.492-0.019-0.14-0.125-0.207-0.164-0.336-0.038-0.122-0.008-0.281-0.008-0.405 0-0.181 0.015-0.338-0.040-0.506s-0.125-0.307-0.132-0.482c-0.008-0.204-0.027-0.441 0.012-0.643 0.038-0.193 0.117-0.383 0.148-0.576 0.031-0.204 0.008-0.416 0.012-0.622 0.001-0.088 0.015-0.18-0.008-0.266-0.027-0.105-0.097-0.185-0.131-0.286-0.127-0.373-0.004-0.852-0.027-1.245-0.019-0.285-0.155-0.633-0.003-0.888 0.067-0.111 0.056-0.175 0.057-0.31 0-0.069 0.015-0.148-0.008-0.215-0.015-0.041-0.075-0.072-0.093-0.112-0.107-0.228-0.008-0.34-0.012-0.565-0.001-0.097-0.019-0.213 0.004-0.306 0.019-0.072 0.093-0.133 0.125-0.2 0.070-0.145 0.031-0.176 0.212-0.173 0.094 0.001 0.189 0 0.283 0 0.267-0.001 0.535 0.107 0.799 0.043 0.208-0.050 0.445-0.211 0.616-0.34 0.101-0.076 0.218-0.206 0.29-0.303 0.075-0.101 0.054-0.135 0.205-0.136 0.116-0.001 0.201 0.052 0.314 0.059 0.090 0.004 0.218-0.042 0.276 0.052 0.047 0.074-0.008 0.206 0.004 0.286 0.015 0.095 0.058 0.258 0.101 0.342 0.055 0.105 0.074 0.089 0.073 0.223-0.003 0.148-0.059 0.461 0.003 0.588 0.031 0.063 0.122 0.073 0.159 0.144 0.023 0.044 0.027 0.125 0.040 0.175 0.031 0.132 0.035 0.33-0.027 0.453-0.131 0.256-0.27-0.324-0.288-0.398-0.031-0.125-0.046-0.386-0.155-0.471-0.068-0.053-0.152-0.073-0.19 0.015-0.027 0.063 0.004 0.239 0.015 0.308 0.035 0.2 0.015 0.403 0.056 0.601 0.035 0.173 0.086 0.316 0.172 0.461 0.123 0.205 0.156 0.437 0.161 0.674 0.004 0.223 0.008 0.411 0.066 0.629 0.064 0.25 0.213 0.46 0.221 0.724 0.008 0.259 0.023 0.548-0.015 0.803-0.042 0.275-0.126 0.543-0.177 0.816-0.045 0.242-0.019 0.46-0.038 0.704-0.019 0.266-0.12 0.523-0.163 0.786-0.127 0.774 0.206 1.634 0.43 2.361 0.186 0.604 0.282 1.2 0.216 1.827-0.015 0.158-0.035 0.315-0.031 0.474 0 0.015 0.001 0.031 0.003 0.047 0.035 0.114 0.091 0.216 0.127 0.331 0.104 0.333 0.262 0.848 0.089 1.179zM16.112 11.946v0.019c0.001-0.004 0-0.012-0-0.019-0.004 0.012-0.012 0.023-0.023 0.031-0.039 0.027-0.067 0.008-0.113 0.015-0.027 0.004-0.019 0.015-0.040 0.019-0.071 0.015-0.153 0.041-0.231 0.027-0.019-0.003-0.086-0.019-0.101-0.023-0.023-0.008-0.023-0.004-0.043-0.015-0.065-0.041-0.003-0.076 0.012-0.115 0.015-0.038-0.003-0.093-0.001-0.133 0.001-0.052-0.019-0.103-0.031-0.154-0.012-0.044-0.031-0.086-0.043-0.131-0.023-0.094-0.083-0.195-0.12-0.285-0.049-0.115 0.015-0.241 0.027-0.354 0.019-0.166 0.131-0.31 0.135-0.482 0.001-0.053-0.035-0.079-0.035-0.132 0.001-0.035 0.001-0.073 0-0.11-0.001-0.073 0.023-0.144 0.11-0.192 0.090-0.051 0.213-0.031 0.305 0.008 0.045 0.019 0.109 0.058 0.137 0.088 0.027 0.031 0.038 0.080 0.050 0.116 0.031 0.086-0.019 0.155-0.129 0.197-0.115 0.045-0.040 0.118-0.075 0.192-0.015 0.031-0.072 0.065-0.086 0.098-0.015 0.035-0.008 0.070-0.008 0.105 0 0.019-0.004 0.046-0.001 0.067 0.004 0.019 0.023 0.035 0.027 0.048 0.008 0.019-0.001 0.042 0.004 0.062 0.008 0.019 0.027 0.019 0.031 0.035 0.031 0.079 0.053 0.153 0.105 0.228 0.027 0.040 0.045 0.090 0.060 0.133 0.015 0.039 0.035 0.081 0.043 0.121 0.004 0.023-0.012 0.054-0.003 0.078 0.008 0.019 0.031 0.023 0.038 0.042 0.015 0.040-0.001 0.1-0.001 0.141v0.221c0.004 0.019 0.004 0.038 0 0.053zM14.575 8.901c0.126-0.258 0.202-0.375 0.47-0.526 0.276-0.155 0.492-0.434 0.572-0.7 0.031-0.103 0.023-0.18 0.073-0.285 0.047-0.099 0.103-0.181 0.131-0.286 0.048-0.18 0.078-0.324 0.077-0.513-0.001-0.288-0.004-0.506-0.17-0.753-0.076-0.114-0.168-0.216-0.242-0.333-0.038-0.058-0.085-0.17-0.143-0.244 0.071 0.049 0.16 0.081 0.228 0.137 0.125 0.102 0.254 0.2 0.363 0.318 0.24 0.261 0.437 0.494 0.532 0.817 0.043 0.146 0.093 0.299 0.135 0.451 0.041 0.147 0.052 0.266 0.053 0.423 0.003 0.166-0.117 0.319-0.072 0.486 0.023 0.092 0.122 0.214 0.176 0.299 0.137 0.217 0.271 0.445 0.312 0.694 0.023 0.146-0.015 0.305-0.004 0.453 0.008 0.156 0.070 0.287 0.070 0.453 0.001 0.274-0.138 0.524-0.311 0.755-0.042 0.057-0.051 0.079-0.1 0.121-0.023 0.023-0.117 0.084-0.153 0.106-0.148 0.090-0.366 0.074-0.399 0.255 0.023-0.076-0.052-0.139-0.071-0.209-0.023-0.081 0.003-0.19 0.003-0.274-0.001-0.091-0.001-0.163 0.035-0.242 0.027-0.059 0.092-0.117 0.107-0.177 0.035-0.136 0.019-0.402-0.019-0.533-0.012-0.038-0.091-0.2-0.119-0.222-0.070-0.058-0.182-0.031-0.281-0.031-0.522-0.001-0.414 0.469-0.494 0.76-0.015 0.052-0.045 0.101-0.060 0.153-0.031 0.104-0.044 0.212-0.050 0.319-0.008 0.185 0.008 0.37 0.041 0.553l-0.049-0.056c-0.172-0.185-0.332-0.392-0.469-0.598-0.035-0.050-0.053-0.111-0.082-0.163-0.035-0.061-0.093-0.121-0.126-0.184-0.070-0.135-0.083-0.276-0.082-0.423 0.003-0.292-0.004-0.542 0.121-0.8zM30.211 17.419c-0.035-0.1-0.074-0.203-0.078-0.306-0.004-0.088 0.069-0.183 0.055-0.266-0.043-0.248-0.111-0.493-0.17-0.738-0.015 0.003-0.035 0.008-0.050 0.008-0.004 0.049-0.008 0.097-0.015 0.146-0.052-0.080-0.092-0.166-0.088-0.249 0.012-0.231 0.043-0.462 0.064-0.692 0.035-0.369 0.085-0.732-0.045-1.103-0.146-0.414-0.264-0.84-0.286-1.286-0.008-0.165-0.035-0.33-0.058-0.495-0.019-0.128-0.042-0.257-0.070-0.383-0.019-0.077-0.052-0.15-0.075-0.227-0.035-0.117-0.071-0.233-0.097-0.352-0.008-0.041 0.031-0.1 0.012-0.129-0.165-0.266-0.198-0.573-0.285-0.862-0.012-0.042-0.027-0.090-0.053-0.122-0.123-0.143-0.254-0.281-0.377-0.424-0.023-0.027-0.027-0.073-0.050-0.146-0.199-0.227-0.442-0.469-0.644-0.742-0.28-0.376-0.528-0.776-0.793-1.164-0.045-0.065-0.104-0.121-0.157-0.181-0.12-0.137-0.238-0.274-0.363-0.416 0.035-0.015 0.053-0.023 0.070-0.031-0.263-0.358-0.526-0.714-0.792-1.076-0.015 0.045-0.027 0.081-0.039 0.116-0.012 0.003-0.023 0.004-0.038 0.008-0.060-0.144-0.134-0.283-0.177-0.432-0.038-0.126-0.098-0.205-0.221-0.255-0.082-0.035-0.153-0.094-0.223-0.15-0.064-0.051-0.112-0.123-0.179-0.17-0.187-0.132-0.371-0.272-0.572-0.378-0.286-0.151-0.506-0.371-0.723-0.599-0.119-0.124-0.235-0.252-0.357-0.373-0.041-0.040-0.096-0.079-0.151-0.092-0.38-0.085-0.763-0.162-1.144-0.245-0.063-0.015-0.129-0.035-0.18-0.072-0.19-0.134-0.369-0.285-0.563-0.414-0.227-0.151-0.464-0.288-0.699-0.426-0.118-0.070-0.235-0.159-0.365-0.188-0.37-0.083-0.747-0.141-1.122-0.206-0.039-0.008-0.081 0.001-0.121 0.008-0.132 0.015-0.271 0.067-0.395 0.043-0.377-0.072-0.723 0.049-1.070 0.147-0.18 0.050-0.326 0.004-0.474-0.072-0.019-0.008-0.012-0.067-0.023-0.142-0.29-0.061-0.612-0.147-0.941-0.19-0.195-0.027-0.399 0.019-0.6 0.031-0.085 0.004-0.175 0.012-0.256-0.008-0.15-0.035-0.296-0.122-0.443-0.123-0.259-0.001-0.519 0.056-0.779 0.067-0.117 0.004-0.136 0.118-0.218 0.139-0.153 0.038-0.31 0.056-0.466 0.082-0.001-0.004-0.001-0.012-0.001-0.015 0.039-0.019 0.078-0.040 0.145-0.073-0.299-0.058-0.361-0.038-0.531 0.145-0.027 0.031-0.055 0.070-0.090 0.080-0.188 0.058-0.314 0.213-0.484 0.3-0.058 0.031-0.112 0.068-0.166 0.106-0.116 0.081-0.219 0.192-0.348 0.239-0.402 0.148-0.814 0.271-1.221 0.405-0.083 0.027-0.163 0.058-0.245 0.088 0.004 0.015 0.008 0.027 0.012 0.043l0.226-0.043c0.008 0.015 0.012 0.027 0.019 0.041-0.075 0.039-0.146 0.095-0.226 0.113-0.117 0.027-0.241 0.195-0.362 0.001-0.004-0.008-0.040-0.003-0.058 0.003-0.351 0.113-0.712 0.208-1.010 0.441-0.154 0.12-0.287 0.291-0.461 0.357-0.221 0.083-0.377 0.224-0.534 0.38-0.027 0.027-0.063 0.047-0.095 0.071-0.179 0.137-0.367 0.265-0.535 0.414-0.104 0.092-0.177 0.218-0.269 0.335-0.068-0.080-0.088-0.103-0.134-0.159-0.104 0.118-0.195 0.227-0.292 0.329-0.272 0.286-0.519 0.597-0.853 0.822-0.060 0.041-0.104 0.109-0.15 0.168-0.148 0.193-0.288 0.39-0.439 0.58-0.335 0.421-0.675 0.838-0.895 1.335-0.035 0.076-0.095 0.142-0.146 0.211-0.008 0.008-0.023 0.015-0.048 0.027 0.008-0.045 0.015-0.078 0.023-0.112-0.083 0.055-0.159 0.119-0.184 0.199-0.098 0.31-0.18 0.625-0.266 0.939-0.056 0.202-0.083 0.416-0.168 0.606-0.18 0.406-0.384 0.802-0.588 1.198-0.042 0.081-0.148 0.13-0.183 0.212-0.076 0.177-0.144 0.363-0.183 0.551-0.074 0.351-0.122 0.708-0.188 1.061-0.019 0.098-0.082 0.188-0.093 0.286-0.065 0.554-0.027 1.121-0.214 1.662-0.127 0.365-0.068 0.754 0.001 1.106 0.114 0.582 0.122 1.16 0.133 1.744 0.003 0.142 0.058 0.285 0.106 0.422 0.089 0.255 0.19 0.506 0.285 0.76 0.008 0.023 0.015 0.049 0.008 0.070-0.031 0.108-0.057 0.224 0.049 0.295 0.2 0.135 0.262 0.323 0.256 0.547-0.001 0.035 0.012 0.070 0.019 0.104 0.101 0.597 0.346 1.141 0.628 1.669 0.178 0.333 0.388 0.65 0.58 0.976 0.090 0.152 0.174 0.307 0.258 0.462 0.087 0.16 0.143 0.345 0.261 0.477 0.225 0.252 0.472 0.49 0.733 0.706 0.296 0.246 0.631 0.436 0.855 0.772 0.156 0.235 0.411 0.403 0.595 0.624 0.291 0.35 0.556 0.72 0.84 1.076 0.051 0.064 0.14 0.126 0.217 0.135 0.242 0.027 0.486 0.035 0.73 0.035 5.17-0.019 10.341-0.042 15.511-0.065 0.112-0.001 0.225 0 0.335-0.012 0.045-0.004 0.104-0.027 0.129-0.060 0.239-0.319 0.471-0.643 0.707-0.964 0.035-0.047 0.077-0.092 0.125-0.127 0.175-0.126 0.354-0.247 0.531-0.369 0.031-0.023 0.062-0.057 0.098-0.065 0.422-0.103 0.768-0.293 0.919-0.735 0.052-0.152 0.124-0.298 0.2-0.441 0.108-0.205 0.212-0.415 0.346-0.603 0.247-0.345 0.515-0.675 0.772-1.013 0.042-0.055 0.075-0.12 0.1-0.185 0.292-0.768 0.583-1.535 0.969-2.265 0.104-0.196 0.161-0.45 0.142-0.669-0.040-0.47 0.004-0.912 0.214-1.336 0.031-0.059 0.049-0.122 0.075-0.182 0.106-0.254 0.197-0.516 0.325-0.758 0.062-0.117 0.116-0.213 0.072-0.345z"></path>
<path d="M8.070 27.833c0.127 0.116 0.249 0.235 0.38 0.347 0.043 0.038 0.102 0.074 0.16 0.085 0.404 0.079 0.81 0.15 1.215 0.228 0.067 0.015 0.137 0.035 0.191 0.067 0.202 0.125 0.392 0.265 0.597 0.385 0.241 0.14 0.493 0.268 0.743 0.397 0.125 0.065 0.25 0.148 0.387 0.175 0.394 0.078 0.794 0.131 1.192 0.192 0.041 0.008 0.086-0.001 0.128-0.004 0.14-0.015 0.288-0.062 0.42-0.040 0.401 0.067 0.768-0.046 1.137-0.136 0.191-0.047 0.346-0.004 0.504 0.067 0.019 0.008 0.015 0.063 0.027 0.133 0.308 0.057 0.65 0.137 0.999 0.177 0.207 0.023 0.424-0.019 0.637-0.027 0.091-0.004 0.185-0.012 0.272 0.008 0.159 0.031 0.314 0.113 0.471 0.114 0.276 0.001 0.551-0.052 0.827-0.062 0.124-0.004 0.145-0.11 0.231-0.129 0.162-0.035 0.33-0.052 0.494-0.076 0.001 0.004 0.001 0.008 0.001 0.015-0.042 0.019-0.083 0.038-0.154 0.068 0.318 0.054 0.383 0.035 0.564-0.135 0.031-0.027 0.058-0.065 0.095-0.075 0.201-0.054 0.334-0.198 0.514-0.279 0.062-0.027 0.119-0.063 0.176-0.098 0.123-0.075 0.233-0.179 0.369-0.223 0.427-0.138 0.864-0.253 1.297-0.377 0.088-0.027 0.173-0.054 0.26-0.082-0.004-0.015-0.008-0.027-0.012-0.040-0.080 0.015-0.16 0.027-0.24 0.040-0.008-0.012-0.015-0.027-0.019-0.038 0.079-0.035 0.155-0.088 0.24-0.106 0.124-0.027 0.256-0.182 0.384-0.001 0.004 0.008 0.042 0.003 0.061-0.003 0.373-0.106 0.756-0.193 1.073-0.41 0.163-0.112 0.305-0.271 0.489-0.332 0.136-0.045 0.247-0.108 0.35-0.181h-16.894c0.154 0.109 0.295 0.231 0.432 0.358z"></path>
</svg>
