<!-- Generated by IcoMoon.io -->
<svg version="1.1" xmlns="http://www.w3.org/2000/svg" width="32" height="32" viewBox="0 0 32 32">
<title>return_to_the_last_king</title>
<path d="M14.475 4c-0.047 0.026-0.091 0.050-0.136 0.074-0.030 0.012-0.060 0.026-0.086 0.039-0.054 0.021-0.104 0.045-0.153 0.065-0.097 0.039-0.185 0.073-0.254 0.106l0.154-0.106c-0.094 0.064-0.173 0.106-0.256 0.151l0.117-0.009c-0.101 0.045-0.182 0.087-0.19 0.069-0.084 0.082 0.114 0.030-0.063 0.175-0.070 0.025-0.164 0.084-0.251 0.134-0.044 0.024-0.087 0.043-0.122 0.058-0.019 0.006-0.033 0.012-0.046 0.014-0.008 0-0.014-0.003-0.021-0.010 0.006-0.001 0.034-0.015 0.052-0.024 0.020-0.011 0.037-0.021 0.052-0.027 0.026-0.015 0.042-0.025 0.052-0.033 0.016-0.016 0.005-0.021-0.009-0.022-0.028-0.007-0.067-0.013 0.103-0.112-0.064 0.042-0.143 0.086-0.245 0.132-0.018 0.001 0.008-0.022 0.033-0.038-0.028 0.011-0.069 0.028-0.076 0.029-0.004-0.001-0.004-0.001-0.007 0-0.004-0.001-0.005 0.001-0.005 0.002-0.008 0.002-0.035 0.006-0.045 0.010-0.029 0.008-0.047 0.020-0.072 0.031-0.049 0.022-0.117 0.048-0.312 0.051 0.039-0.025-0.023-0.040-0.091-0.048 0.043 0.017-0.042 0.057-0.168 0.079-0.294-0.020-0.318 0.027-0.472 0.027l0.175 0.009c-0.027 0.018-0.078 0.028-0.144 0.034-0.069 0.005-0.157 0.009-0.261 0.015-0.008 0.002-0.019 0.005-0.027 0.010-0.007-0.005 0.004-0.014 0.024-0.024-0.076 0.029-0.113 0.040-0.173 0.055-0.057 0.009-0.118 0.020-0.18 0.033-0.122 0.022-0.252 0.052-0.377 0.112-0.147 0.022-0.033-0.059-0.161-0.034-0.125 0.060-0.212 0.083-0.29 0.099-0.039 0.008-0.073 0.014-0.113 0.022-0.020 0.004-0.039 0.009-0.062 0.014-0.012 0.004-0.023 0.005-0.034 0.009-0.021 0.006-0.041 0.013-0.062 0.019-0.020 0.012-0.041 0.025-0.063 0.038-0.013 0.007-0.027 0.017-0.041 0.026-0.029 0.019-0.058 0.042-0.091 0.067 0.116-0.016 0.126-0.035-0.076 0.142l0.302-0.208 0.274-0.106-0.122 0.067c-0.046 0.022-0.068 0.037-0.141 0.069-0.055 0.041-0.074 0.064-0.106 0.093 0.038-0.024 0.078-0.051 0.115-0.076 0.040-0.015 0.079-0.031 0.117-0.045 0.035-0.014 0.066-0.028 0.096-0.039 0.063-0.026 0.119-0.045 0.161-0.057-0.168 0.096-0.155 0.079-0.058 0.089-0.052 0.001-0.102 0.010-0.149 0.022-0.024 0.006-0.050 0.015-0.072 0.024l-0.084 0.033c-0.066 0.049-0.132 0.097-0.202 0.149-0.066 0.048-0.138 0.091-0.221 0.125l-0.053-0.103c-0.295 0.135-0.515 0.331-0.786 0.518-0.088 0.048-0.221 0.112-0.355 0.165l0.177-0.058c-0.051 0.074-0.321 0.153-0.48 0.247-0.001-0.042-0.111-0.006-0.194 0.002 0.019 0.024-0.378 0.171-0.398 0.266l-0.069 0.021-0.062 0.045-0.046 0.029-0.089 0.057c-0.349 0.304-0.303 0.445-0.633 0.741 0.067-0.122-0.098-0.002 0.094-0.23-0.106 0.102-0.206 0.188-0.189 0.209-0.017 0.008-0.042 0.030-0.067 0.057-0.028 0.031-0.061 0.070-0.096 0.112-0.031 0.058-0.067 0.121-0.098 0.178-0.030 0.050-0.059 0.094-0.088 0.12-0.021 0.061 0.002 0.101-0.089 0.237-0.017 0.012-0.019-0.010-0.019-0.010 0.017 0.011-0.12 0.231-0.003 0.134-0.079 0.070-0.156 0.163-0.233 0.268-0.039 0.050-0.076 0.106-0.113 0.163-0.035 0.052-0.070 0.106-0.105 0.16-0.060 0.054-0.122 0.109-0.182 0.163-0.064 0.054-0.127 0.109-0.187 0.161-0.123 0.101-0.241 0.185-0.343 0.233-0.131 0.122-0.274 0.257-0.405 0.379-0.064 0.181-0.123 0.347-0.172 0.491-0.005-0.022-0.017-0.008 0.005-0.058-0.174 0.367 0.019 0.271-0.177 0.69-0.141 0.199 0.050-0.24-0.022-0.112-0.041 0.005-0.071 0.047-0.099 0.115-0.014 0.034-0.028 0.074-0.043 0.117-0.011 0.039-0.031 0.101-0.033 0.115-0.004 0.011-0.026 0.045-0.050 0.077l-0.067 0.099c-0.046 0.062-0.097 0.119-0.151 0.163l0.039-0.065c-0.176 0.164-0.305 0.495-0.542 0.801 0 0-0.001-0.022-0.017-0.014-0.006 0.020-0.021 0.053-0.048 0.099-0.014 0.074-0.031 0.158-0.048 0.251-0.017 0.084-0.038 0.173-0.060 0.264-0.045 0.182-0.095 0.372-0.139 0.537-0.013-0.125 0.025-0.168-0.045-0.118-0.045 0.162 0.092-0.020 0.003 0.302-0.026 0.043-0.053 0.094-0.091 0.166-0.034 0.1-0.066 0.178-0.101 0.194l0.029-0.211 0.039-0.12c-0.012 0.015-0.026 0.027-0.036 0.045-0.009 0.015-0.017 0.035-0.031 0.069-0.004 0.024-0.008 0.045-0.014 0.070l-0.010 0.060c-0.004 0.040-0.003 0.080-0.005 0.12-0.004 0.080-0.008 0.158-0.024 0.221l-0.027-0.027c-0.060 0.466 0.011 0.502-0.062 0.975-0.001 0.006-0.005 0.015-0.007 0.024 0.006-0.009 0.013-0.016 0.019-0.022 0.005-0.005 0.010-0.008 0.015-0.017 0.001 0.012 0.001 0.015 0.002 0.021 0 0.257-0.1 0.201-0.112 0.479l-0.098 0.063c-0.029 0.184-0.078 0.655-0.16 0.98 0.004-0.195 0.062-0.585 0.091-0.829-0.031 0.119-0.061 0.304-0.091 0.475 0.012 0.239-0.054 0.528-0.158 0.882-0.041-0.034-0.091 0.052-0.142 0.19-0.026 0.069-0.052 0.153-0.081 0.24-0.031 0.099-0.063 0.202-0.094 0.304 0.005 0.036 0.011 0.073 0.017 0.108 0.002 0.025 0.005 0.048 0.009 0.072 0.005 0.045 0.012 0.091 0.015 0.134 0.005 0.082 0.003 0.151-0.009 0.201 0.042 0.155 0.076 0.313 0.106 0.472 0.014 0.080 0.028 0.161 0.043 0.242 0.013 0.086 0.026 0.17 0.039 0.259 0.054 0.167 0.108 0.339 0.165 0.515 0.056 0.171 0.116 0.347 0.184 0.528 0.020-0.294 0.078 0.207 0.177 0.122 0.029 0.075 0.048 0.126 0.062 0.161 0.004 0.026 0.008 0.062 0.005 0.067v0.002l0.012 0.542c-0.015 0.131-0.054-0.164-0.077-0.142 0.052 0.384-0.024 0.169-0.015 0.427 0.035-0.059 0.081 0.124 0.101 0.345l0.007-0.316c0.071 0.252 0.066 0.357 0.063 0.491 0.009 0.149 0.005 0.255 0.11 0.53l-0.079-0.158c0.036 0.105 0.083 0.282 0.136 0.474 0.029 0.096 0.057 0.195 0.084 0.292 0.016 0.046 0.033 0.094 0.046 0.139 0.019 0.050 0.036 0.097 0.051 0.142 0.021 0.046 0.027 0.053 0.038 0.076 0.013 0.019 0.023 0.035 0.033 0.052 0.021 0.034 0.045 0.063 0.065 0.086 0.005 0.051-0.002 0.123-0.057 0.012 0.069 0.181 0.151 0.372 0.237 0.561 0.090 0.195 0.181 0.391 0.268 0.578 0.049 0.067 0.096 0.131 0.142 0.194 0.040 0.057 0.079 0.113 0.117 0.168 0.075 0.11 0.139 0.214 0.19 0.314l-0.051-0.027c0.076 0.1 0.168 0.151 0.232 0.299-0.016 0-0.055-0.026-0.024 0.022 0.015 0.017 0.048 0.054 0.088 0.098 0.019 0.022 0.038 0.045 0.060 0.070 0.022 0.029 0.038 0.045 0.077 0.099 0.028 0.025 0.056 0.053 0.082 0.077 0.021 0.021 0.039 0.040 0.057 0.060l-0.125-0.076c0.447 0.484 0.778 0.641 1.191 1.004-0.061 0.063 0.293 0.433 0.47 0.618l-0.015 0.002c0.135 0.129 0.263 0.243 0.388 0.352 0.12 0.114 0.237 0.22 0.352 0.323 0.118 0.104 0.23 0.205 0.35 0.309 0.057 0.054 0.117 0.106 0.177 0.161 0.031 0.028 0.061 0.055 0.093 0.084 0.035 0.032 0.071 0.066 0.106 0.099 0.014 0.007 0.028 0.018 0.045 0.027 0.104 0.107 0.272 0.241 0.47 0.386 0.101 0.071 0.207 0.147 0.317 0.225 0.121 0.085 0.248 0.171 0.374 0.257 0.145 0.040 0.291 0.081 0.431 0.12 0.125 0.038 0.246 0.076 0.357 0.113-0.1-0.042 0.034-0.062 0.156-0.039 0.156 0.059 0.456 0.056 0.41 0.127l-0.055-0.017c0.015 0.016 0.037 0.033 0.063 0.048 0.012 0.007 0.024 0.015 0.039 0.022 0.019 0.006 0.009 0.004 0.015 0.010-0.007 0.001 0.044 0.034 0.081 0.055 0.040 0.024 0.080 0.048 0.122 0.072 0.085 0.046 0.174 0.095 0.254 0.139l0.088-0.070c0.092 0.081 0.203 0.158 0.323 0.233 0.059 0.038 0.119 0.077 0.182 0.112 0.070 0.039 0.14 0.075 0.211 0.113l0.216 0.072c0.065 0.020 0.13 0.038 0.194 0.058 0.129 0.040 0.257 0.078 0.371 0.113 0.23 0.074 0.417 0.149 0.52 0.232 0.026 0.005 0.033 0.005 0.088 0.019 0.079 0.011 0.166 0.021 0.251 0.031 0.081 0.008 0.161 0.020 0.233 0.022l-0.021 0.053c0.179 0.040 0.321 0.072 0.468 0.105 0.074 0.016 0.149 0.032 0.23 0.048 0.091 0.018 0.189 0.038 0.3 0.060 0.064-0.006 0.184-0.020 0.317-0.031l-0.115 0.050c0.322-0.021 0.395-0.192 0.691-0.216l0.094 0.077 0.245-0.015 0.254-0.010 0.314-0.045 0.297-0.046c0.197-0.034 0.392-0.078 0.583-0.139-0.007 0.014-0.021 0.041-0.11 0.060 0.077-0.013 0.199-0.030 0.328-0.050 0.072-0.004 0.146-0.007 0.216-0.010 0.074-0.005 0.145-0.012 0.202-0.021 0.116-0.016 0.186-0.041 0.149-0.079 0.014 0.074 0.582-0.032 0.882-0.093l-0.041 0.062c0.249-0.102 0.254-0.123 0.607-0.187 0.085-0.004 0.080 0.033-0.033 0.033 0.284-0.006 0.211-0.077 0.556-0.091l-0.122 0.052c0.141-0.016 0.207-0.028 0.256-0.043s0.078-0.031 0.178-0.065c0.001-0.001 0.006-0.006 0.010-0.009 0.024-0.017 0.050-0.039 0.079-0.060 0.022-0.015 0.049-0.029 0.074-0.046 0.052-0.033 0.108-0.067 0.163-0.094 0.107-0.055 0.206-0.092 0.237-0.082 0.016-0.047 0.127-0.166 0.28-0.247 0.030 0.004-0.017 0.046-0.039 0.067 0.1-0.054 0.184-0.108 0.257-0.158 0.038-0.028 0.071-0.051 0.106-0.076l0.046-0.036 0.029-0.022c0.015-0.008 0.060-0.025 0.101-0.038 0.040-0.014 0.078-0.029 0.118-0.041 0.079-0.022 0.159-0.041 0.251-0.048 0.012 0.015 0.032 0.018 0.062 0.017-0.22 0.055-0.412 0.106-0.522 0.134-0.022 0.014-0.040 0.024-0.050 0.029-0.016 0.011-0.022 0.012-0.017 0.009 0.011 0.020 0.078-0.004 0.086 0.007 0.014 0.005 0.020 0.010 0.027 0.019 0.004 0.008-0.001 0.024 0 0.039 0 0.003 0.001 0.007 0.002 0.010 0-0.002 0.001-0.007 0.002-0.010 0.016-0.006 0.031-0.013 0.046-0.021 0.035-0.014 0.070-0.030 0.106-0.046 0.073-0.030 0.15-0.062 0.228-0.094 0.156-0.064 0.32-0.121 0.463-0.146 0.015 0.001 0.029 0.001 0.041 0.005l-0.029 0.012c0.069-0.013 0.132-0.032 0.187-0.055 0.047-0.008 0.087-0.017 0.125-0.024 0.044-0.008 0.059-0.012 0.149-0.034 0.016 0.005 0.053 0.001 0.11-0.010 0.032-0.032 0.073-0.076 0.118-0.127 0.025-0.030 0.051-0.061 0.079-0.094 0.054-0.065 0.112-0.133 0.151-0.18-0.051-0.025 0.085-0.178-0.072-0.060 0.019-0.017-0.015 0.028-0.081 0.108-0.013 0.020-0.029 0.041-0.036 0.055 0-0.004 0.001-0.008 0.002-0.014l-0.202 0.247-0.172 0.046c0.035-0.020 0.105-0.047 0.158-0.067 0.019-0.026 0.038-0.053 0.058-0.081 0.016-0.021 0.034-0.046 0.053-0.069 0.031-0.040 0.069-0.077 0.115-0.115 0.024-0.085 0.053-0.176 0.070-0.225 0.197-0.112 0.495-0.401 0.568-0.413 0.050-0.066 0.101-0.137 0.156-0.209 0.075-0.064 0.152-0.13 0.228-0.194 0.081-0.071 0.159-0.139 0.235-0.204 0.149-0.136 0.275-0.265 0.347-0.374 0.097-0.094 0.139-0.072 0.189-0.091-0.056 0.057-0.129 0.113-0.153 0.151 0.189-0.196 0.641-0.478 0.649-0.577 0.297-0.17-0.117 0.165 0.257-0.113l-0.038 0.053c0.1-0.052 0.19-0.107 0.276-0.163 0.043-0.030 0.084-0.058 0.125-0.086 0.051-0.038 0.102-0.074 0.151-0.112l0.062-0.115 0.039-0.079 0.070-0.158c0.046-0.105 0.094-0.21 0.141-0.316 0.094-0.209 0.204-0.439 0.333-0.647 0.090-0.084 0.221-0.197 0.353-0.293-0.056 0.044-0.083 0.066-0.101 0.069 0.136-0.12 0.269-0.246 0.402-0.372l0.196-0.196 0.208-0.204c0.272-0.436 0.501-0.822 0.781-1.253l0.082-0.254 0.082-0.237c0.056-0.159 0.116-0.313 0.178-0.465 0.091-0.239 0.090-0.314 0.099-0.443 0-0.034 0.003-0.073 0.003-0.12l0.072-0.057 0.007-0.347c0.059-0.482 0.322-0.784 0.376-1.4l-0.057 0.069c0.059-0.212 0.141-0.684 0.177-0.637-0.001-0.025-0.024-0.078 0.015-0.158h0.034l0.010-0.079 0.019-0.106-0.041-0.115v0.005l-0.033-0.089-0.070-0.18c-0.088-0.409 0.139 0.033-0.014-0.559-0.073-0.216-0.258-0.601-0.256-0.513 0.022 0.089 0.043 0.231 0.014 0.247l-0.069-0.196c-0.006-0.001-0.014-0.002-0.021-0.003l-0.010-0.033 0.292-1.433-0.257-0.961 0.022 0.019-0.034-0.065-0.082-0.305c0.012 0.006 0.031 0.031 0.052 0.091-0.007-0.090-0.020-0.135-0.036-0.178-0.036-0.062-0.065-0.083-0.091-0.208-0.004-0.024 0.005-0.017 0.017 0l-0.117-0.194c0.034 0.032 0.038-0.059 0.084 0.072-0.125-0.387-0.33-0.566-0.338-0.729l0.021 0.027c-0.195-0.371-0.139-0.196-0.204-0.242l-0.003-0.010-0.034-0.244 0.077-0.208-0.067-0.048c-0.006-0.056-0.015-0.17 0.012-0.153-0.069-0.207-0.022 0.040-0.077-0.079 0.014-0.217-0.060-0.527-0.064-0.722-0.031-0.055-0.050-0.1-0.038-0.125-0.1-0.056 0.136 0.244-0.074 0.015 0.032-0.131-0.218-0.266-0.333-0.499 0.090 0.031 0.21 0.243 0.096 0.010-0.164-0.070-0.277-0.41-0.419-0.571-0.066 0.035-0.298-0.361-0.527-0.638 0.034 0.004-0.366-0.572-0.527-0.867l0.014 0.002c-0.096-0.012-0.279-0.304-0.434-0.504 0.041-0.016 0.083 0.011 0.175 0.113l-0.132-0.197c-0.051-0.032-0.101-0.088-0.194-0.209l0.079 0.021-0.070-0.094-0.096-0.081-0.084-0.069c-0.056-0.045-0.117-0.093-0.177-0.141-0.12-0.099-0.243-0.205-0.365-0.34-0.035 0.016 0.042 0.156-0.010 0.165l-0.16-0.149c0.017-0.007 0.045-0.002 0.091 0.031-0.030-0.022-0.113-0.070-0.16-0.129l0.158 0.082c-0.122-0.14-0.098-0.037-0.204-0.141 0.030-0.026-0.059-0.094-0.022-0.103 0.030 0.022 0.083 0.098 0.136 0.125-0.059-0.057-0.135-0.136-0.17-0.184-0.025-0.050-0.062-0.123-0.067-0.154-0.011 0.026-0.043 0.035-0.12-0.060-0.191-0.25-0.028-0.116-0.122-0.274-0.067-0.044-0.166-0.22-0.216-0.19-0.055-0.074-0.044-0.102-0.053-0.141-0.032-0.031-0.081-0.091-0.134-0.156-0.062-0.076-0.127-0.159-0.182-0.228-0.191-0.047-0.24-0.049-0.175 0l0.046 0.017c-0.011-0.001-0.021-0.005-0.033-0.007-0.221-0.039-0.441-0.104-0.661-0.175l-0.329-0.11c-0.105-0.035-0.205-0.069-0.307-0.101l-0.087-0.076-0.103-0.082 0.012-0.014c-0.255-0.189-0.543-0.448-0.741-0.564-0.071-0.060-0.144-0.17-0.099-0.161-0.029-0.021-0.055-0.042-0.072-0.055-0.045-0.019-0.082-0.033-0.118-0.046-0.034-0.014-0.066-0.028-0.099-0.043-0.069-0.034-0.148-0.078-0.276-0.158 0.234 0.077-0.062-0.063 0.235 0.089-0.275-0.155-0.325-0.215-0.65-0.317 0.124 0.005-0.179-0.16-0.328-0.218l0.185 0.132c-0.044-0.019-0.085-0.038-0.125-0.057-0.046-0.022-0.092-0.046-0.136-0.069-0.075-0.012-0.145-0.020-0.216-0.033l0.087-0.055c-0.311-0.081-0.601-0.084-0.873-0.093-0.135-0.004-0.265-0.009-0.393-0.026-0.125-0.018-0.243-0.058-0.357-0.113-0.175 0.012 0.337 0.098 0.178 0.122-0.287-0.065-0.571-0.217-0.662-0.233-0.16-0.048-0.254-0.052-0.338-0.050-0.043 0.002-0.080 0.005-0.123 0.007-0.021 0.001-0.047 0.001-0.070 0-0.028-0.001-0.046-0.001-0.094-0.009-0.030 0-0.062 0.002-0.098 0.002-0.031 0-0.066-0.002-0.106-0.005 0.055 0.025 0.106 0.086-0.211 0.105-0.295-0.014-0.362-0.104-0.175-0.12 0.071-0.001 0.106 0.006 0.103 0.015 0.096-0.007 0.22-0.015 0.103-0.043l-0.039 0.024c-0.146-0.028-0.552-0.031-0.455-0.069-0.225 0.020-0.099 0.036 0.067 0.051-0.245-0.027-0.432-0.023-0.623-0.026-0.090-0.006-0.214-0.018-0.345-0.038 0.061 0.019 0.116 0.051 0.055 0.045-0.568-0.081-0.255 0.021-0.642-0.003-0.216-0.055 0.086-0.077-0.305-0.082-0.236-0.046-0.045-0.066 0.050-0.077-0.043 0.001-0.084 0.001-0.125 0l-0.088-0.005c-0.034-0.004-0.068-0.006-0.101-0.010h-0.002zM22.455 9.135c0.083 0.003 0.146 0.083 0.225 0.105 0.125 0.038 0.272-0.022 0.362 0.099 0.070 0.092 0.12 0.155 0.213 0.228 0.070 0.055 0.064 0.144 0.13 0.211 0.162 0.176 0.402 0.246 0.571 0.415 0.083 0.082 0.182 0.117 0.274 0.182 0.112 0.069 0.079 0.191 0.142 0.29 0.038 0.060 0.099 0.096 0.141 0.156 0 0.029 0.017 0.055 0.041 0.067 0.029 0.009 0.057 0.022 0.082 0.034 0.047 0.045 0.065 0.137 0.11 0.189 0.047 0.051 0.092 0.099 0.142 0.137 0.077 0.060 0.15 0.159 0.238 0.197 0.147 0.057 0.323-0.008 0.474 0.036 0.096 0.025 0.169 0.044 0.268 0.027 0.105-0.011 0.2-0.050 0.305-0.050 0.178-0.007 0.325 0.114 0.494 0.149 0.025 0.064-0.058 0.171-0.089 0.216-0.058 0.086-0.118 0.153-0.223 0.153-0.089-0.003-0.169-0.012-0.23-0.089-0.045-0.064-0.039-0.124-0.118-0.144-0.042-0.016-0.124 0-0.172 0-0.058 0.003-0.095 0.020-0.149 0.043-0.054 0.016-0.102 0.006-0.156 0.022-0.090 0.026-0.186 0.111-0.266 0.163-0.079 0.047-0.165 0.089-0.257 0.093-0.023 0-0.092 0.013-0.112-0.002-0.016-0.023-0.001-0.085-0.010-0.11-0.077-0.003-0.093-0.073-0.134-0.127-0.065-0.074-0.128-0.133-0.172-0.22-0.029-0.054-0.051-0.111-0.086-0.156-0.025-0.028-0.051-0.043-0.076-0.067-0.011 0.026-0.030 0.049-0.053 0.077-0.144 0.169-0.294 0.339-0.45 0.504-0.252 0.264-0.503 0.535-0.781 0.777-0.207 0.172-0.412 0.325-0.638 0.468-0.239 0.147-0.453 0.317-0.673 0.489-0.182 0.14-0.372 0.251-0.51 0.436-0.122 0.172-0.299 0.322-0.462 0.453-0.079 0.067-0.16 0.136-0.256 0.172-0.055 0.022-0.097 0.035-0.144 0.067-0.118 0.070-0.226 0.143-0.338 0.23-0.092 0.074-0.206 0.121-0.302 0.201-0.045 0.042-0.087 0.056-0.144 0.082-0.102 0.047-0.188 0.135-0.283 0.199-0.178 0.117-0.374 0.218-0.546 0.347-0.271 0.197-0.481 0.444-0.729 0.657-0.14 0.125-0.264 0.268-0.386 0.402-0.239 0.269-0.539 0.5-0.813 0.726-0.319 0.264-0.619 0.545-0.944 0.81-0.080 0.064-0.165 0.122-0.239 0.192-0.048 0.044-0.073 0.101-0.117 0.148-0.002 0.079-0.026 0.162-0.027 0.232-0.002 0.169 0.025 0.335 0.015 0.501-0.003 0.038-0.012 0.073-0.026 0.112-0.022 0.067-0.063 0.118-0.079 0.185-0.035 0.112-0.024 0.238-0.029 0.353-0.009 0.134-0.019 0.271-0.019 0.405 0 0.073-0.007 0.157 0 0.23 0.005 0.057 0.029 0.111 0.029 0.168 0.010 0.105-0.016 0.159-0.048 0.257-0.113 0.291 0.047 0.601-0.014 0.901-0.057 0.261-0.026 0.559-0.026 0.83 0 0.134-0.027 0.259-0.027 0.396v0.261c0 0.179-0.003 0.357 0 0.535 0.005 0.102 0.037 0.221 0.012 0.323-0.012 0.047-0.039 0.086-0.048 0.134-0.039 0.134-0.024 0.274-0.024 0.408 0 0.182 0.029 0.357 0.029 0.542 0 0.144 0.029 0.284 0.029 0.427 0.005 0.125 0.036 0.239 0.029 0.36 0 0.169-0.010 0.327 0.038 0.484 0.032 0.108 0.029 0.21 0.070 0.312 0.047 0.118 0.009 0.204 0 0.326 0 0.047 0.027 0.112 0.003 0.156-0.009 0.015-0.019 0.017-0.029 0.022 0.050 0.003 0.106 0.007 0.153 0.009 0.166 0.004 0.334 0.011 0.503 0.014 0.182 0.005 0.361-0.017 0.546-0.014 0.328 0.010 0.612 0.083 0.911 0.223 0.271 0.124 0.562 0.202 0.839 0.307 0.032 0.016 0.065 0.025 0.098 0.036-0.017-0.006-0.031-0.021-0.046-0.024 0.025 0.016 0.056 0.027 0.086 0.036v0.002c-0.011-0.007-0.026-0.009-0.039-0.014 0.055 0.019 0.117 0.042 0.151 0.076 0.083 0.093-0.044 0.243-0.141 0.278-0.044 0.017-0.102 0.016-0.149 0.022-0.284 0.012-0.564-0.011-0.844 0.012-0.3 0.019-0.598-0.010-0.897 0.019-0.319 0.028-0.646 0.009-0.968 0.009-0.389-0.005-0.773-0.023-1.158-0.029-0.239-0.005-0.471-0.027-0.71-0.027-0.229 0.003-0.452 0.019-0.679 0.045-0.44 0.051-0.868 0.044-1.307 0.041-0.179 0-0.471 0.072-0.637-0.057-0.052-0.038-0.122-0.182-0.077-0.24 0.029-0.039 0.112-0.031 0.153-0.043 0.217-0.055 0.418-0.144 0.631-0.211 0.054-0.016 0.113-0.032 0.166-0.058 0.077-0.037 0.146-0.082 0.225-0.113 0.246-0.118 0.523-0.161 0.794-0.158 0.099 0 0.179-0.010 0.271-0.024 0.073-0.007 0.16 0.009 0.24 0.009 0.067 0.003 0.13 0.004 0.197 0.010 0.070 0 0.122 0.022 0.189 0.031 0.089 0.012 0.172-0.012 0.257-0.026 0.112-0.014 0.222-0.021 0.328-0.060-0.007-0.068 0.029-0.154 0.029-0.223 0.003-0.105 0.010-0.218 0.003-0.329-0.003-0.073-0.045-0.134-0.063-0.204-0.032-0.111-0.060-0.231-0.074-0.352-0.015-0.157 0.001-0.316-0.027-0.472-0.012-0.080-0.052-0.179-0.036-0.262 0.035-0.169 0.071-0.341 0.099-0.51 0.023-0.134 0.098-0.246 0.105-0.377 0-0.131-0.029-0.257-0.029-0.388-0.006-0.095-0.038-0.182-0.063-0.278-0.043-0.172-0.027-0.344-0.027-0.523v-0.432c0-0.335-0.024-0.686 0.005-1.021 0.032-0.395 0.024-0.793 0.024-1.189v-0.897c0-0.15 0.007-0.306 0-0.453 0-0.060-0.005-0.102-0.019-0.16-0.025-0.112-0.016-0.242-0.026-0.357-0.012-0.131-0.018-0.265-0.027-0.389-0.002-0.052-0.002-0.096-0.003-0.142-0.024-0.022-0.048-0.045-0.079-0.074-0.058-0.057-0.087-0.086-0.125-0.153-0.079-0.125-0.237-0.234-0.348-0.336-0.159-0.153-0.322-0.302-0.487-0.455-0.217-0.204-0.375-0.444-0.57-0.667-0.087-0.095-0.179-0.193-0.262-0.302-0.089-0.111-0.165-0.232-0.264-0.331-0.217-0.214-0.436-0.409-0.688-0.575-0.207-0.14-0.383-0.293-0.546-0.472-0.166-0.182-0.281-0.395-0.456-0.558-0.217-0.211-0.369-0.507-0.628-0.666-0.216-0.131-0.404-0.297-0.618-0.431-0.124-0.082-0.236-0.178-0.338-0.28-0.054-0.048-0.118-0.102-0.178-0.144-0.087-0.064-0.153-0.141-0.233-0.214-0.134-0.134-0.286-0.242-0.405-0.384-0.095-0.118-0.16-0.256-0.274-0.348-0.067-0.058-0.107-0.131-0.172-0.189-0.086-0.086-0.194-0.136-0.271-0.239-0.092-0.114-0.067-0.259-0.13-0.383-0.025-0.045-0.058-0.074-0.067-0.122-0.012-0.070 0.026-0.111 0.033-0.172 0-0.012 0-0.023 0.007-0.029 0.022-0.084 0.089-0.085 0.182-0.069 0.076 0.018 0.12 0.022 0.197 0.022 0.353-0.007 0.708-0.016 1.059-0.022 0.383-0.010 0.763-0.023 1.146-0.029 0.36-0.010 0.721 0.013 1.081 0.007 0.271-0.002 0.549-0.024 0.82-0.017 0.379 0.013 0.761 0.064 1.138 0.096 0.755 0.070 1.504 0.061 2.263 0.045 0.746-0.022 1.493-0.042 2.239-0.074 0.025-0.179 0.12-0.31 0.242-0.443 0.064-0.060 0.095-0.074 0.182-0.099 0.156-0.042 0.302-0.104 0.458-0.142 0.128-0.028 0.255-0.033 0.383-0.058 0.144-0.028 0.285-0.059 0.434-0.069 0.224-0.009 0.354-0.119 0.523-0.247 0.112-0.082 0.175-0.184 0.261-0.287 0.083-0.099 0.21-0.169 0.312-0.245 0.080-0.067 0.127-0.045 0.223-0.089 0.134-0.067 0.263-0.157 0.415-0.185 0.128-0.028 0.245-0.050 0.369-0.094 0.172-0.060 0.358-0.067 0.537-0.096 0.111-0.009 0.216-0.018 0.335-0.015 0.108 0 0.223-0.042 0.331-0.033zM22.543 9.84c-0.076 0.001-0.153 0.013-0.216 0.029-0.087 0.026-0.159 0.065-0.252 0.081-0.089 0.016-0.165 0.032-0.251 0.060-0.105 0.032-0.224 0.052-0.329 0.067-0.22 0.042-0.427 0.101-0.647 0.146-0.405 0.083-0.694 0.413-1.004 0.667-0.076 0.066-0.155 0.131-0.242 0.19 0.312-0.014 0.624-0.017 0.937-0.026 0.708-0.023 1.422 0.016 2.133 0.041 0.373 0.016 0.742 0.030 1.115 0.033 0.070 0 0.151-0.004 0.218 0.012 0.092 0.017 0.175 0.069 0.268 0.076 0.022 0.003 0.037 0.002 0.055 0.002-0.031-0.080-0.060-0.161-0.103-0.228-0.096-0.14-0.236-0.214-0.335-0.348-0.122-0.15-0.204-0.287-0.386-0.386-0.108-0.064-0.236-0.092-0.357-0.149-0.077-0.035-0.148-0.084-0.221-0.125-0.057-0.028-0.108-0.073-0.168-0.101-0.062-0.029-0.138-0.040-0.214-0.039zM19.633 11.436c-0.134 0-0.252 0.003-0.388 0.019-0.086 0.010-0.175 0.004-0.262 0.003-0.031 0.024-0.066 0.045-0.096 0.067-0.14 0.099-0.274 0.233-0.402 0.353-0.157 0.147-0.34 0.246-0.503 0.386-0.108 0.089-0.149 0.169-0.168 0.312-0.026 0.179-0.042 0.375-0.099 0.547-0.087 0.278-0.291 0.541-0.333 0.832 0.008 0.007 0.017 0.014 0.024 0.022 0.064 0.070 0.126 0.161 0.165 0.24 0.053 0.105 0.020 0.23 0.043 0.341 0.019 0.108 0.064 0.218 0.076 0.329h-0.002c0.029 0.246-0.071 0.475-0.082 0.717-0.010 0.162-0.072 0.297-0.142 0.444-0.047 0.101-0.091 0.201-0.134 0.302 0.038-0.045 0.054-0.104 0.077-0.161 0.022-0.044 0.038-0.102 0.067-0.142 0.038-0.045 0.111-0.099 0.156-0.137 0.096-0.087 0.214-0.134 0.316-0.201 0.283-0.175 0.559-0.338 0.824-0.542 0.077-0.061 0.144-0.135 0.218-0.204 0.070-0.058 0.153-0.095 0.223-0.146 0.114-0.092 0.176-0.214 0.274-0.316 0.233-0.242 0.496-0.471 0.774-0.662 0.131-0.086 0.234-0.189 0.374-0.266 0.181-0.099 0.354-0.206 0.546-0.283 0.166-0.070 0.309-0.175 0.462-0.264 0.207-0.118 0.427-0.224 0.643-0.319 0.185-0.083 0.37-0.173 0.535-0.285 0.042-0.022 0.070-0.044 0.099-0.074s0.050-0.057 0.082-0.082c0.087-0.064 0.166-0.136 0.252-0.202 0.073-0.057 0.163-0.141 0.233-0.204 0.038-0.035 0.088-0.081 0.117-0.125v0.003c0.016-0.029 0.066-0.137 0.064-0.166-0.012-0.041-0.085-0.040-0.12-0.050-0.092-0.035-0.186-0.029-0.288-0.029-0.146-0.006-0.285 0.036-0.429 0.048-0.201 0.027-0.412 0.038-0.609 0.038h-0.415c-0.179 0-0.35-0.036-0.535-0.029-0.15 0.003-0.28-0.050-0.426-0.057-0.202-0.012-0.4-0.026-0.601-0.029-0.201-0.006-0.402-0.029-0.609-0.029zM8.367 11.461c-0.070 0-0.083 0.003-0.137 0.036-0.037 0.022-0.106 0.056-0.115 0.11-0.020 0.108 0.192 0.138 0.106 0.141 0.169 0.134 0.283 0.32 0.424 0.486 0.125 0.14 0.196 0.328 0.343 0.446 0.083 0.070 0.182 0.117 0.268 0.184 0.093 0.070 0.157 0.16 0.249 0.23 0.070 0.051 0.15 0.073 0.223 0.118 0.093 0.057 0.173 0.127 0.278 0.168 0.326 0.137 0.577 0.386 0.851 0.602 0.131 0.105 0.261 0.211 0.376 0.329 0.070 0.077 0.129 0.162 0.196 0.235 0.087 0.092 0.187 0.163 0.276 0.256 0.125 0.118 0.259 0.233 0.4 0.335 0.171 0.128 0.308 0.28 0.439 0.446 0.086 0.115 0.189 0.182 0.3 0.271 0.018 0.015 0.036 0.032 0.055 0.046-0.025-0.062-0.054-0.123-0.072-0.194-0.067-0.239-0.028-0.448 0.007-0.697 0.042-0.274 0.054-0.569 0.137-0.834 0.042-0.134 0.118-0.22 0.185-0.335 0.070-0.115 0.178-0.179 0.287-0.259 0.115-0.089 0.232-0.178 0.36-0.257 0.060-0.035 0.115-0.056 0.182-0.084 0.102-0.038 0.191-0.105 0.29-0.153 0.153-0.083 0.326-0.108 0.482-0.185 0.143-0.077 0.293-0.115 0.458-0.141 0.181-0.024 0.349-0.001 0.52 0.022 0.052-0.006 0.106-0.013 0.153-0.002 0.039 0.012 0.075 0.027 0.11 0.045 0.079 0.014 0.156 0.033 0.228 0.063 0.074 0.003 0.15 0.002 0.223 0.002 0.105 0 0.235 0.031 0.328-0.031 0.169-0.102 0.257-0.279 0.359-0.443 0.145-0.231 0.286-0.494 0.295-0.77-0.052 0.013-0.104 0.021-0.156 0.034-0.37 0.099-0.754 0.154-1.131 0.154h-1.352c-0.487-0.005-0.976 0.055-1.464 0.010-0.287-0.025-0.575 0.001-0.858-0.010-0.185-0.010-0.369-0.066-0.554-0.084-0.191-0.018-0.386-0.039-0.577-0.033-0.15 0-0.294-0.031-0.441-0.031-0.15 0.002-0.286-0.001-0.429-0.024-0.22-0.031-0.457-0.002-0.674-0.002h-0.424c-0.051 0-0.117 0.011-0.168 0-0.035-0.010-0.060-0.027-0.101-0.036-0.060-0.007-0.125 0.001-0.189-0.015-0.111-0.022-0.199-0.088-0.307-0.127-0.079-0.030-0.152-0.024-0.239-0.024zM15.244 13.388c-0.134 0.019-0.269 0.066-0.4 0.108-0.122 0.038-0.219 0.111-0.34 0.156-0.087 0.035-0.151 0.056-0.227 0.123-0.090 0.073-0.183 0.14-0.269 0.22-0.082 0.077-0.144 0.169-0.221 0.249-0.127 0.134-0.244 0.322-0.317 0.501-0.073 0.175-0.057 0.418-0.057 0.606 0.003 0.090 0.013 0.156 0.057 0.239 0.048 0.083 0.078 0.179 0.136 0.256 0.051 0.076 0.149 0.106 0.213 0.173 0.099 0.102 0.111 0.245 0.197 0.347 0.067 0.080 0.176 0.144 0.256 0.204 0.077 0.064 0.135 0.093 0.233 0.112 0.080 0.022 0.131 0.054 0.208 0.082 0.118 0.041 0.251 0.044 0.372 0.089 0.077 0.029 0.144 0.071 0.227 0.087 0.115 0.016 0.242 0.025 0.36 0.034 0.153 0.006 0.247-0.038 0.381-0.115 0.134-0.080 0.273-0.144 0.365-0.278 0.131-0.185 0.241-0.386 0.355-0.58 0.102-0.179 0.21-0.341 0.316-0.51 0.054-0.073 0.116-0.156 0.141-0.252 0.014-0.076 0.001-0.166 0.003-0.242 0-0.090 0.005-0.163-0.029-0.245-0.042-0.099-0.057-0.188-0.086-0.29-0.048-0.178-0.156-0.385-0.316-0.484-0.114-0.071-0.271-0.169-0.257-0.081-0.156-0.095-0.306-0.223-0.475-0.3-0.102-0.048-0.217-0.080-0.326-0.122-0.153-0.060-0.33-0.113-0.499-0.088zM14.498 14.739h0.163l0.029 0.002c0.035 0 0.066 0.010 0.098 0.010 0.012-0.003 0.022-0.003 0.038 0 0.035 0.014 0.073 0.024 0.115 0.024 0.041 0.003 0.088 0.008 0.129 0.010 0.087 0.019 0.102 0.053 0.156 0.123 0.035 0.058 0.073 0.118 0.117 0.172 0.045 0.051 0.119 0.080 0.158 0.127 0.053 0.067 0.059 0.199 0.043 0.285-0.019 0.083-0.123 0.181-0.18 0.239-0.045 0.045-0.096 0.080-0.144 0.134-0.051 0.060-0.090 0.125-0.163 0.158-0.095 0.044-0.235 0.124-0.328 0.076-0.073-0.032-0.131-0.105-0.208-0.146-0.108-0.067-0.204-0.12-0.264-0.232-0.057-0.095-0.185-0.165-0.23-0.261-0.029-0.080-0.010-0.249 0.019-0.319 0.038-0.086 0.112-0.143 0.178-0.209 0.032-0.038 0.073-0.064 0.089-0.108 0.012-0.044 0.057-0.044 0.093-0.058 0.029-0.009 0.057-0.019 0.093-0.026zM13.83 16.875c0.024 0.050 0.046 0.104 0.081 0.146 0.029 0.032 0.061 0.057 0.089 0.089 0.14 0.172 0.261 0.358 0.417 0.52 0.073 0.073 0.161 0.101 0.24 0.153 0.061 0.041 0.102 0.114 0.163 0.153 0.029 0.023 0.064 0.027 0.093 0.043 0.022 0.019 0.021 0.044 0.050 0.060 0.052 0.035 0.118 0.022 0.175 0.022 0.122 0 0.301-0.092 0.377-0.194 0.055-0.077 0.111-0.163 0.175-0.233 0.038-0.042 0.087-0.061 0.137-0.086 0.030-0.019 0.054-0.044 0.081-0.067-0.008 0.003-0.016 0.008-0.024 0.010-0.102 0.032-0.222 0.034-0.328 0.048-0.109 0.013-0.186 0.011-0.281-0.034-0.111-0.057-0.236-0.096-0.353-0.144-0.064-0.035-0.134-0.076-0.208-0.093-0.070-0.016-0.139-0.016-0.209-0.033-0.249-0.055-0.418-0.283-0.657-0.353-0.007-0.002-0.011-0.005-0.017-0.007z"></path>
</svg>
