<!-- Generated by IcoMoon.io -->
<svg version="1.1" xmlns="http://www.w3.org/2000/svg" width="32" height="32" viewBox="0 0 32 32">
<title>return_to_the_phantom_of_truth</title>
<path d="M14.475 4c-0.047 0.026-0.091 0.050-0.136 0.074-0.030 0.012-0.060 0.026-0.086 0.039-0.054 0.021-0.104 0.045-0.153 0.065-0.097 0.039-0.185 0.073-0.254 0.106l0.154-0.106c-0.094 0.064-0.173 0.106-0.256 0.151l0.117-0.009c-0.101 0.045-0.182 0.087-0.19 0.069-0.084 0.082 0.114 0.030-0.063 0.175-0.070 0.025-0.164 0.084-0.251 0.134-0.044 0.024-0.087 0.043-0.122 0.058-0.019 0.006-0.033 0.012-0.046 0.014-0.008 0-0.014-0.003-0.021-0.010 0.006-0.001 0.034-0.015 0.052-0.024 0.020-0.011 0.037-0.021 0.052-0.027 0.026-0.015 0.042-0.025 0.052-0.033 0.016-0.016 0.005-0.021-0.009-0.022-0.028-0.007-0.067-0.013 0.103-0.112-0.064 0.042-0.143 0.086-0.245 0.132-0.018 0.001 0.008-0.022 0.033-0.038-0.028 0.011-0.069 0.028-0.076 0.029-0.004-0.001-0.004-0.001-0.007 0-0.004-0.001-0.005 0.001-0.005 0.002-0.008 0.002-0.035 0.006-0.045 0.010-0.029 0.008-0.047 0.020-0.072 0.031-0.049 0.022-0.117 0.048-0.312 0.051 0.039-0.025-0.023-0.040-0.091-0.048 0.043 0.017-0.042 0.057-0.168 0.079-0.294-0.020-0.318 0.027-0.472 0.027l0.175 0.009c-0.027 0.018-0.078 0.028-0.144 0.034-0.069 0.005-0.157 0.009-0.261 0.015-0.008 0.002-0.019 0.005-0.027 0.010-0.007-0.005 0.004-0.014 0.024-0.024-0.076 0.029-0.113 0.040-0.173 0.055-0.057 0.009-0.118 0.020-0.18 0.033-0.122 0.022-0.252 0.052-0.377 0.112-0.147 0.022-0.033-0.059-0.161-0.034-0.125 0.060-0.212 0.083-0.29 0.099-0.039 0.008-0.073 0.014-0.113 0.022-0.020 0.004-0.039 0.009-0.062 0.014-0.012 0.004-0.023 0.005-0.034 0.009-0.021 0.006-0.041 0.013-0.062 0.019-0.020 0.012-0.041 0.025-0.063 0.038-0.013 0.007-0.027 0.017-0.041 0.026-0.029 0.019-0.058 0.042-0.091 0.067 0.116-0.016 0.126-0.035-0.076 0.142l0.302-0.208 0.274-0.106-0.122 0.067c-0.046 0.022-0.068 0.037-0.141 0.069-0.055 0.041-0.074 0.064-0.106 0.093 0.038-0.024 0.078-0.051 0.115-0.076 0.040-0.015 0.079-0.031 0.117-0.045 0.035-0.014 0.066-0.028 0.096-0.039 0.063-0.026 0.119-0.045 0.161-0.057-0.168 0.096-0.155 0.079-0.058 0.089-0.052 0.001-0.102 0.010-0.149 0.022-0.024 0.006-0.050 0.015-0.072 0.024l-0.084 0.033c-0.066 0.049-0.132 0.097-0.202 0.149-0.066 0.048-0.138 0.091-0.221 0.125l-0.053-0.103c-0.295 0.135-0.515 0.331-0.786 0.518-0.088 0.048-0.221 0.112-0.355 0.165l0.177-0.058c-0.051 0.074-0.321 0.153-0.48 0.247-0.001-0.042-0.111-0.006-0.194 0.002 0.019 0.024-0.378 0.171-0.398 0.266l-0.069 0.021-0.062 0.045-0.046 0.029-0.089 0.057c-0.349 0.304-0.303 0.445-0.633 0.741 0.067-0.122-0.098-0.002 0.094-0.23-0.106 0.102-0.206 0.188-0.189 0.209-0.017 0.008-0.042 0.030-0.067 0.057-0.028 0.031-0.061 0.070-0.096 0.112-0.031 0.058-0.067 0.121-0.098 0.178-0.030 0.050-0.059 0.094-0.088 0.12-0.021 0.061 0.002 0.101-0.089 0.237-0.017 0.012-0.019-0.010-0.019-0.010 0.017 0.011-0.12 0.231-0.003 0.134-0.079 0.070-0.156 0.163-0.233 0.268-0.039 0.050-0.076 0.106-0.113 0.163-0.035 0.052-0.070 0.106-0.105 0.16-0.060 0.054-0.122 0.109-0.182 0.163-0.064 0.054-0.127 0.109-0.187 0.161-0.123 0.101-0.241 0.185-0.343 0.233-0.131 0.122-0.274 0.257-0.405 0.379-0.064 0.181-0.123 0.347-0.172 0.491-0.005-0.022-0.017-0.008 0.005-0.058-0.174 0.367 0.019 0.271-0.177 0.69-0.141 0.199 0.050-0.24-0.022-0.112-0.041 0.005-0.071 0.047-0.099 0.115-0.014 0.034-0.028 0.074-0.043 0.117-0.011 0.039-0.031 0.101-0.033 0.115-0.004 0.011-0.026 0.045-0.050 0.077l-0.067 0.099c-0.046 0.062-0.097 0.119-0.151 0.163l0.039-0.065c-0.176 0.164-0.305 0.495-0.542 0.801 0 0-0.001-0.022-0.017-0.014-0.006 0.020-0.021 0.053-0.048 0.099-0.014 0.074-0.031 0.158-0.048 0.251-0.017 0.084-0.038 0.173-0.060 0.264-0.045 0.182-0.095 0.372-0.139 0.537-0.013-0.125 0.025-0.168-0.045-0.118-0.045 0.162 0.092-0.020 0.003 0.302-0.026 0.043-0.053 0.094-0.091 0.166-0.034 0.1-0.066 0.178-0.101 0.194l0.029-0.211 0.039-0.12c-0.012 0.015-0.026 0.027-0.036 0.045-0.009 0.015-0.017 0.035-0.031 0.069-0.004 0.024-0.008 0.045-0.014 0.070l-0.010 0.060c-0.004 0.040-0.003 0.080-0.005 0.12-0.004 0.080-0.008 0.158-0.024 0.221l-0.027-0.027c-0.060 0.466 0.011 0.502-0.062 0.975-0.001 0.006-0.005 0.015-0.007 0.024 0.006-0.009 0.013-0.016 0.019-0.022 0.005-0.005 0.010-0.008 0.015-0.017 0.001 0.012 0.001 0.015 0.002 0.021 0 0.257-0.1 0.201-0.112 0.479l-0.098 0.063c-0.029 0.184-0.078 0.655-0.16 0.98 0.004-0.195 0.062-0.585 0.091-0.829-0.031 0.119-0.061 0.304-0.091 0.475 0.012 0.239-0.054 0.528-0.158 0.882-0.041-0.034-0.091 0.052-0.142 0.19-0.026 0.069-0.052 0.153-0.081 0.24-0.031 0.099-0.063 0.202-0.094 0.304 0.005 0.036 0.011 0.073 0.017 0.108 0.002 0.025 0.005 0.048 0.009 0.072 0.005 0.045 0.012 0.091 0.015 0.134 0.005 0.082 0.003 0.151-0.009 0.201 0.042 0.155 0.076 0.313 0.106 0.472 0.014 0.080 0.028 0.161 0.043 0.242 0.013 0.086 0.026 0.17 0.039 0.259 0.054 0.167 0.108 0.339 0.165 0.515 0.056 0.171 0.116 0.347 0.184 0.528 0.020-0.294 0.078 0.207 0.177 0.122 0.029 0.075 0.048 0.126 0.062 0.161 0.004 0.026 0.008 0.062 0.005 0.067v0.002l0.012 0.542c-0.015 0.131-0.054-0.164-0.077-0.142 0.052 0.384-0.024 0.169-0.015 0.427 0.035-0.059 0.081 0.124 0.101 0.345l0.007-0.316c0.071 0.252 0.066 0.357 0.063 0.491 0.009 0.149 0.005 0.255 0.11 0.53l-0.079-0.158c0.036 0.105 0.083 0.282 0.136 0.474 0.029 0.096 0.057 0.195 0.084 0.292 0.016 0.046 0.033 0.094 0.046 0.139 0.019 0.050 0.036 0.097 0.051 0.142 0.021 0.046 0.027 0.053 0.038 0.076 0.013 0.019 0.023 0.035 0.033 0.052 0.021 0.034 0.045 0.063 0.065 0.086 0.005 0.051-0.002 0.123-0.057 0.012 0.069 0.181 0.151 0.372 0.237 0.561 0.090 0.195 0.181 0.391 0.268 0.578 0.049 0.067 0.096 0.131 0.142 0.194 0.040 0.057 0.079 0.113 0.117 0.168 0.075 0.11 0.139 0.214 0.19 0.314l-0.051-0.027c0.076 0.1 0.168 0.151 0.232 0.299-0.016 0-0.055-0.026-0.024 0.022 0.015 0.017 0.048 0.054 0.088 0.098 0.019 0.022 0.038 0.045 0.060 0.070 0.022 0.029 0.038 0.045 0.077 0.099 0.028 0.025 0.056 0.053 0.082 0.077 0.021 0.021 0.039 0.040 0.057 0.060l-0.125-0.076c0.447 0.484 0.778 0.641 1.191 1.004-0.061 0.063 0.293 0.433 0.47 0.618l-0.015 0.002c0.135 0.129 0.263 0.243 0.388 0.352 0.12 0.114 0.237 0.22 0.352 0.323 0.118 0.104 0.23 0.205 0.35 0.309 0.057 0.054 0.117 0.106 0.177 0.161 0.031 0.028 0.061 0.055 0.093 0.084 0.035 0.032 0.071 0.066 0.106 0.099 0.014 0.007 0.028 0.018 0.045 0.027 0.104 0.107 0.272 0.241 0.47 0.386 0.101 0.071 0.207 0.147 0.317 0.225 0.121 0.085 0.248 0.171 0.374 0.257 0.145 0.040 0.291 0.081 0.431 0.12 0.125 0.038 0.246 0.076 0.357 0.113-0.1-0.042 0.034-0.062 0.156-0.039 0.156 0.059 0.456 0.056 0.41 0.127l-0.055-0.017c0.015 0.016 0.037 0.033 0.063 0.048 0.012 0.007 0.024 0.015 0.039 0.022 0.019 0.006 0.009 0.004 0.015 0.010-0.007 0.001 0.044 0.034 0.081 0.055 0.040 0.024 0.080 0.048 0.122 0.072 0.085 0.046 0.174 0.095 0.254 0.139l0.088-0.070c0.092 0.081 0.203 0.158 0.323 0.233 0.059 0.038 0.119 0.077 0.182 0.112 0.070 0.039 0.14 0.075 0.211 0.113l0.216 0.072c0.065 0.020 0.13 0.038 0.194 0.058 0.129 0.040 0.257 0.078 0.371 0.113 0.23 0.074 0.417 0.149 0.52 0.232 0.026 0.005 0.033 0.005 0.088 0.019 0.079 0.011 0.166 0.021 0.251 0.031 0.081 0.008 0.161 0.020 0.233 0.022l-0.021 0.053c0.179 0.040 0.321 0.072 0.468 0.105 0.074 0.016 0.149 0.032 0.23 0.048 0.091 0.018 0.189 0.038 0.3 0.060 0.064-0.006 0.184-0.020 0.317-0.031l-0.115 0.050c0.322-0.021 0.395-0.192 0.691-0.216l0.094 0.077 0.245-0.015 0.254-0.010 0.314-0.045 0.297-0.046c0.197-0.034 0.392-0.078 0.583-0.139-0.007 0.014-0.021 0.041-0.11 0.060 0.077-0.013 0.199-0.030 0.328-0.050 0.072-0.004 0.146-0.007 0.216-0.010 0.074-0.005 0.145-0.012 0.202-0.021 0.116-0.016 0.186-0.041 0.149-0.079 0.014 0.074 0.582-0.032 0.882-0.093l-0.041 0.062c0.249-0.102 0.254-0.123 0.607-0.187 0.085-0.004 0.080 0.033-0.033 0.033 0.284-0.006 0.211-0.077 0.556-0.091l-0.122 0.052c0.141-0.016 0.207-0.028 0.256-0.043s0.078-0.031 0.178-0.065c0.001-0.001 0.006-0.006 0.010-0.009 0.024-0.017 0.050-0.039 0.079-0.060 0.022-0.015 0.049-0.029 0.074-0.046 0.052-0.033 0.108-0.067 0.163-0.094 0.107-0.055 0.206-0.092 0.237-0.082 0.016-0.047 0.127-0.166 0.28-0.247 0.030 0.004-0.017 0.046-0.039 0.067 0.1-0.054 0.184-0.108 0.257-0.158 0.038-0.028 0.071-0.051 0.106-0.076l0.046-0.036 0.029-0.022c0.015-0.008 0.060-0.025 0.101-0.038 0.040-0.014 0.078-0.029 0.118-0.041 0.079-0.022 0.159-0.041 0.251-0.048 0.012 0.015 0.032 0.018 0.062 0.017-0.22 0.055-0.412 0.106-0.522 0.134-0.022 0.014-0.040 0.024-0.050 0.029-0.016 0.011-0.022 0.012-0.017 0.009 0.011 0.020 0.078-0.004 0.086 0.007 0.014 0.005 0.020 0.010 0.027 0.019 0.004 0.008-0.001 0.024 0 0.039 0 0.003 0.001 0.007 0.002 0.010 0-0.002 0.001-0.007 0.002-0.010 0.016-0.006 0.031-0.013 0.046-0.021 0.035-0.014 0.070-0.030 0.106-0.046 0.073-0.030 0.15-0.062 0.228-0.094 0.156-0.064 0.32-0.121 0.463-0.146 0.015 0.001 0.029 0.001 0.041 0.005l-0.029 0.012c0.069-0.013 0.132-0.032 0.187-0.055 0.047-0.008 0.087-0.017 0.125-0.024 0.044-0.008 0.059-0.012 0.149-0.034 0.016 0.005 0.053 0.001 0.11-0.010 0.032-0.032 0.073-0.076 0.118-0.127 0.025-0.030 0.051-0.061 0.079-0.094 0.054-0.065 0.112-0.133 0.151-0.18-0.051-0.025 0.085-0.178-0.072-0.060 0.019-0.017-0.014 0.028-0.081 0.108-0.013 0.020-0.029 0.041-0.036 0.055 0-0.004 0.001-0.008 0.002-0.014l-0.202 0.247-0.172 0.046c0.035-0.020 0.105-0.047 0.158-0.067 0.019-0.026 0.038-0.053 0.058-0.081 0.016-0.021 0.034-0.046 0.053-0.069 0.031-0.040 0.069-0.077 0.115-0.115 0.024-0.085 0.053-0.176 0.070-0.225 0.197-0.112 0.495-0.401 0.568-0.413 0.050-0.066 0.101-0.137 0.156-0.209 0.075-0.064 0.152-0.13 0.228-0.194 0.081-0.071 0.159-0.139 0.235-0.204 0.149-0.136 0.275-0.265 0.347-0.374 0.097-0.094 0.139-0.072 0.189-0.091-0.056 0.057-0.129 0.113-0.153 0.151 0.189-0.196 0.641-0.478 0.649-0.577 0.297-0.17-0.117 0.165 0.257-0.113l-0.038 0.053c0.1-0.052 0.19-0.107 0.276-0.163 0.043-0.030 0.084-0.058 0.125-0.086 0.051-0.038 0.102-0.074 0.151-0.112l0.062-0.115 0.039-0.079 0.070-0.158c0.046-0.105 0.094-0.21 0.141-0.316 0.094-0.209 0.204-0.439 0.333-0.647 0.090-0.084 0.221-0.197 0.353-0.293-0.056 0.044-0.083 0.066-0.101 0.069 0.136-0.12 0.269-0.246 0.402-0.372l0.196-0.196 0.208-0.204c0.272-0.436 0.501-0.822 0.781-1.253l0.082-0.254 0.082-0.237c0.056-0.159 0.116-0.313 0.178-0.465 0.091-0.239 0.090-0.314 0.099-0.443 0-0.034 0.003-0.073 0.003-0.12l0.072-0.057 0.007-0.347c0.059-0.482 0.322-0.784 0.376-1.4l-0.057 0.069c0.059-0.212 0.141-0.684 0.177-0.637-0.001-0.025-0.024-0.078 0.015-0.158h0.034l0.010-0.079 0.019-0.106-0.041-0.115v0.005l-0.033-0.089-0.070-0.18c-0.088-0.409 0.139 0.033-0.014-0.559-0.073-0.216-0.258-0.601-0.256-0.513 0.022 0.089 0.043 0.231 0.014 0.247l-0.069-0.196c-0.006-0.001-0.014-0.002-0.021-0.003l-0.010-0.033 0.292-1.433-0.257-0.961 0.022 0.019-0.034-0.065-0.082-0.305c0.012 0.006 0.031 0.031 0.052 0.091-0.007-0.090-0.020-0.135-0.036-0.178-0.036-0.062-0.065-0.083-0.091-0.208-0.004-0.024 0.005-0.017 0.017 0l-0.117-0.194c0.034 0.032 0.038-0.059 0.084 0.072-0.125-0.387-0.33-0.566-0.338-0.729l0.021 0.027c-0.195-0.371-0.139-0.196-0.204-0.242l-0.003-0.010-0.034-0.244 0.077-0.208-0.067-0.048c-0.006-0.056-0.015-0.17 0.012-0.153-0.069-0.207-0.022 0.040-0.077-0.079 0.014-0.217-0.060-0.527-0.064-0.722-0.031-0.055-0.050-0.1-0.038-0.125-0.1-0.056 0.136 0.244-0.074 0.015 0.032-0.131-0.218-0.266-0.333-0.499 0.090 0.031 0.21 0.243 0.096 0.010-0.164-0.070-0.277-0.41-0.419-0.571-0.066 0.035-0.298-0.361-0.527-0.638 0.034 0.004-0.366-0.572-0.527-0.867l0.014 0.002c-0.096-0.012-0.279-0.304-0.434-0.504 0.041-0.016 0.083 0.011 0.175 0.113l-0.132-0.197c-0.051-0.032-0.101-0.088-0.194-0.209l0.079 0.021-0.070-0.094-0.096-0.081-0.084-0.069c-0.056-0.045-0.117-0.093-0.177-0.141-0.12-0.099-0.243-0.205-0.365-0.34-0.035 0.016 0.042 0.156-0.010 0.165l-0.16-0.149c0.017-0.007 0.045-0.002 0.091 0.031-0.030-0.022-0.113-0.070-0.16-0.129l0.158 0.082c-0.122-0.14-0.098-0.037-0.204-0.141 0.030-0.026-0.059-0.094-0.022-0.103 0.030 0.022 0.083 0.098 0.136 0.125-0.059-0.057-0.135-0.136-0.17-0.184-0.025-0.050-0.062-0.123-0.067-0.154-0.011 0.026-0.043 0.035-0.12-0.060-0.191-0.25-0.028-0.116-0.122-0.274-0.067-0.044-0.166-0.22-0.216-0.19-0.055-0.074-0.044-0.102-0.053-0.141-0.032-0.031-0.081-0.091-0.134-0.156-0.062-0.076-0.127-0.159-0.182-0.228-0.191-0.047-0.24-0.049-0.175 0l0.046 0.017c-0.011-0.001-0.021-0.005-0.033-0.007-0.221-0.039-0.441-0.104-0.661-0.175l-0.329-0.11c-0.105-0.035-0.205-0.069-0.307-0.101l-0.087-0.076-0.103-0.082 0.012-0.014c-0.255-0.189-0.543-0.448-0.741-0.564-0.071-0.060-0.144-0.17-0.099-0.161-0.029-0.021-0.055-0.042-0.072-0.055-0.045-0.019-0.082-0.033-0.118-0.046-0.034-0.014-0.066-0.028-0.099-0.043-0.069-0.034-0.148-0.078-0.276-0.158 0.234 0.077-0.062-0.063 0.235 0.089-0.275-0.155-0.325-0.215-0.65-0.317 0.124 0.005-0.179-0.16-0.328-0.218l0.185 0.132c-0.044-0.019-0.085-0.038-0.125-0.057-0.046-0.022-0.092-0.046-0.136-0.069-0.075-0.012-0.145-0.020-0.216-0.033l0.087-0.055c-0.311-0.081-0.601-0.084-0.873-0.093-0.135-0.004-0.265-0.009-0.393-0.026-0.125-0.018-0.243-0.058-0.357-0.113-0.175 0.012 0.337 0.098 0.178 0.122-0.287-0.065-0.571-0.217-0.662-0.233-0.16-0.048-0.254-0.052-0.338-0.050-0.043 0.002-0.080 0.005-0.123 0.007-0.021 0.001-0.047 0.001-0.070 0-0.028-0.001-0.046-0.001-0.094-0.009-0.030 0-0.062 0.002-0.098 0.002-0.031 0-0.066-0.002-0.106-0.005 0.055 0.025 0.106 0.086-0.211 0.105-0.295-0.014-0.362-0.104-0.175-0.12 0.071-0.001 0.106 0.006 0.103 0.015 0.096-0.007 0.22-0.015 0.103-0.043l-0.039 0.024c-0.146-0.028-0.552-0.031-0.455-0.069-0.225 0.020-0.099 0.036 0.067 0.051-0.245-0.027-0.432-0.023-0.623-0.026-0.090-0.006-0.214-0.018-0.345-0.038 0.061 0.019 0.116 0.051 0.055 0.045-0.568-0.081-0.255 0.021-0.642-0.003-0.216-0.055 0.086-0.077-0.305-0.082-0.236-0.046-0.045-0.066 0.050-0.077-0.043 0.001-0.084 0.001-0.125 0l-0.088-0.005c-0.034-0.004-0.068-0.006-0.101-0.010h-0.002zM15.311 6.17c0.104 0.012 0.223 0.073 0.323 0.108 0.178 0.060 0.261 0.231 0.384 0.362 0.128 0.139 0.252 0.285 0.377 0.427 0.115 0.131 0.163 0.291 0.268 0.431 0.117 0.159 0.217 0.327 0.326 0.487l0.002-0.002c0.173 0.256 0.075 0.521 0.067 0.806-0.008 0.273-0.008 0.537-0.034 0.81-0.049 0.536 0.039 1.077-0.045 1.611-0.068 0.431-0.248 0.846-0.257 1.282-0.008 0.357-0.004 0.716 0 1.074 0.001 0.135 0.029 0.287-0.015 0.42-0.025 0.078-0.088 0.142-0.112 0.221-0.037 0.128-0.012 0.277-0.012 0.408 0 0.156-0.002 0.312-0.002 0.467v1.719c0 0.17 0.014 0.344 0.005 0.513s-0.054 0.325-0.053 0.496c0.004 0.3 0.052 0.609-0.132 0.885-0.076 0.116-0.046 0.234-0.105 0.357-0.068 0.144-0.122 0.29-0.192 0.432-0.041 0.080-0.093 0.157-0.142 0.235 0.196 0.003 0.39 0.016 0.59 0.033 0.493 0.040 0.977 0.108 1.388 0.46 0.073 0.062 0.156 0.076 0.233 0.13 0.074 0.050 0.137 0.109 0.213 0.151 0.165 0.090 0.331 0.164 0.494 0.264 0.21 0.129 0.449 0.218 0.625 0.417 0.127 0.14 0.238 0.274 0.347 0.436 0.083 0.123 0.214 0.184 0.278 0.328 0.045 0.1 0.058 0.22 0.065 0.333 0.006 0.069 0.007 0.138 0 0.206-0.009 0.103-0.041 0.201-0.062 0.302-0.028 0.144-0.027 0.289-0.043 0.434-0.020 0.169-0.089 0.207-0.184 0.321-0.122 0.149-0.257 0.239-0.405 0.34-0.073 0.048-0.139 0.138-0.225 0.161-0.060 0.017-0.112 0.016-0.172 0.039-0.125 0.045-0.25 0.099-0.371 0.158-0.042 0.020-0.080 0.044-0.127 0.045-0.121 0.004-0.245-0.097-0.35-0.154-0.066-0.035-0.147-0.033-0.22-0.052-0.134-0.034-0.228-0.16-0.357-0.218-0.080-0.036-0.090-0.085-0.149-0.158-0.045-0.056-0.091-0.083-0.132-0.144-0.101-0.145-0.207-0.327-0.271-0.498-0.026-0.067-0.064-0.174-0.041-0.251 0.022-0.071 0.16-0.135 0.218-0.18 0.050-0.041 0.145-0.166 0.209-0.156 0.032 0.164-0.005 0.348 0.077 0.499 0.089 0.16 0.214 0.284 0.369 0.335 0.111 0.036 0.2 0.113 0.314 0.153 0.131 0.046 0.256 0.048 0.393 0.046 0.105-0.001 0.258-0.019 0.312-0.153 0.022-0.054 0.014-0.087 0.007-0.142-0.021-0.142-0.027-0.282-0.048-0.424-0.015-0.107 0.016-0.215-0.034-0.311-0.035-0.069-0.105-0.092-0.146-0.149-0.056-0.082-0.056-0.171-0.074-0.271-0.024-0.127-0.112-0.155-0.182-0.233-0.299-0.331-0.755-0.509-1.126-0.707-0.239-0.127-0.482-0.21-0.736-0.268-0.146-0.033-0.293-0.062-0.443-0.077-0.24-0.023-0.461 0.027-0.7 0.052-0.372 0.041-0.745 0.004-1.119 0.058-0.267 0.038-0.531 0.098-0.8 0.141-0.302 0.048-0.621 0.14-0.913 0.274-0.289 0.131-0.595 0.251-0.897 0.314-0.333 0.069-0.628 0.174-0.93 0.377-0.251 0.168-0.499 0.315-0.731 0.528-0.088 0.081-0.141 0.138-0.206 0.256-0.082 0.15-0.19 0.246-0.288 0.374-0.141 0.18-0.365 0.404-0.429 0.654-0.059 0.231-0.059 0.537-0.036 0.769 0.016 0.176 0.036 0.356 0.045 0.53 0.004 0.085 0.062 0.293-0.012 0.355-0.081 0.068-0.325-0.059-0.376-0.136-0.076-0.113-0.164-0.275-0.214-0.407-0.055-0.142-0.062-0.247-0.069-0.405-0.008-0.167-0.053-0.29-0.038-0.432-0.077-0.317-0.080-0.735 0.039-1.014 0.132-0.306 0.373-0.502 0.578-0.714 0.186-0.192 0.372-0.377 0.564-0.556 0.424-0.392 0.884-0.793 1.369-1.029 0.238-0.116 0.471-0.196 0.709-0.257-0.012-0.011-0.021-0.018-0.043-0.036-0.171-0.137-0.233-0.321-0.335-0.496-0.081-0.139-0.178-0.265-0.251-0.41-0.089-0.176-0.18-0.361-0.28-0.532-0.066-0.11-0.089-0.232-0.153-0.34-0.144-0.247-0.074-0.536-0.074-0.805 0-0.246 0.040-0.519-0.010-0.76-0.029-0.145-0.028-0.277-0.034-0.427-0.006-0.129-0.054-0.247-0.052-0.376 0.005-0.347 0-0.695 0-1.041 0-0.199-0.010-0.399 0.005-0.597 0.015-0.183 0.045-0.357 0.045-0.54-0.005-0.378 0-0.757 0-1.134 0-0.435 0.025-0.861 0.045-1.292 0.005-0.1 0.045-0.194 0.052-0.292 0.005-0.081 0.037-0.144 0.034-0.221-0.005-0.187-0.006-0.375 0.005-0.563 0.008-0.131-0.032-0.294 0.082-0.383 0.048-0.039 0.092-0.071 0.139-0.11 0.066-0.055 0.128-0.105 0.189-0.17 0.060-0.060 0.131-0.097 0.189-0.154 0.054-0.055 0.080-0.123 0.141-0.173 0.036-0.032 0.078-0.049 0.113-0.082 0.060-0.057 0.096-0.131 0.16-0.187 0.074-0.067 0.153-0.121 0.228-0.184 0.142-0.117 0.264-0.279 0.371-0.426 0.065-0.089 0.112-0.194 0.185-0.274 0.048-0.053 0.106-0.071 0.168-0.074s0.129 0.007 0.197 0.007c-0.048 0.19-0.048 0.42-0.048 0.649 0 0.399-0.040 0.789-0.106 1.184-0.083 0.478-0.231 0.94-0.23 1.426 0.004 0.586 0.013 1.189-0.048 1.772-0.011 0.096-0.040 0.183-0.077 0.274-0.095 0.241-0.072 0.489-0.057 0.739 0.027 0.148 0.054 0.295 0.079 0.443 0.028 0.241 0.010 0.492 0.009 0.734 0 0.382 0.058 0.816-0.010 1.196-0.042 0.231-0.039 0.465-0.038 0.698 0 0.2-0.039 0.41 0.010 0.607 0.035 0.135 0.097 0.256 0.099 0.396 0.005 0.225-0.092 0.427-0.146 0.645-0.077 0.309-0.169 0.611-0.262 0.918-0.033 0.105-0.072 0.277-0.173 0.362 0.076-0.017 0.149-0.042 0.228-0.053 0.248-0.035 0.496-0.101 0.745-0.149 0.266-0.051 0.533-0.079 0.798-0.154 0.446-0.128 0.901-0.216 1.355-0.292-0.056-0.1-0.089-0.207-0.151-0.307-0.088-0.139-0.197-0.267-0.266-0.415-0.081-0.173-0.099-0.358-0.158-0.537-0.063-0.192-0.123-0.393-0.136-0.594-0.013-0.219-0.006-0.438 0-0.657 0.001-0.089 0.007-0.171 0.029-0.257 0.052-0.206 0.003-0.422 0.031-0.633 0.026-0.206 0.074-0.407 0.086-0.616 0.015-0.309 0.026-0.621 0.034-0.93 0.007-0.256-0.019-0.528 0.062-0.779 0.056-0.178 0.138-0.34 0.163-0.527 0.020-0.149 0.025-0.298 0.058-0.444 0.033-0.143 0.075-0.284 0.074-0.431-0.002-0.151-0.1-0.281-0.106-0.432-0.009-0.176 0.010-0.35 0.039-0.523 0.047-0.289 0.091-0.588 0.105-0.877 0.018-0.349-0.009-0.699 0.005-1.047 0.015-0.371 0.067-0.741 0.103-1.11 0.018-0.182 0.025-0.364 0.036-0.546 0.005-0.066 0.029-0.104 0.048-0.165 0.041-0.131 0.011-0.297 0.010-0.434-0.003-0.228-0.011-0.459-0.009-0.69 0.001-0.224-0.088-0.409 0-0.633-0.026 0.067 0.099-0.013 0.089-0.007 0.003-0.002 0.004-0.003 0.005-0.003 0.032-0.022 0.029-0.031 0.072-0.048 0.032-0.011 0.063-0.013 0.096-0.010zM19.055 8.265c0.264-0.015 0.416 0.272 0.585 0.429 0.204 0.187 0.393 0.373 0.594 0.568 0.094 0.090 0.205 0.173 0.314 0.245 0.032 0.020 0.073 0.035 0.096 0.065 0.056 0.070 0.010 0.166 0.043 0.244 0.008 0.020 0.044 0.020 0.053 0.039 0.024 0.047 0.003 0.168 0.003 0.214v0.388c0 0.32 0.049 0.635 0.048 0.956-0.001 0.162 0.001 0.326 0 0.487-0.002 0.191 0.045 0.376 0.052 0.566l-0.002-0.002c0.011 0.346-0.002 0.695-0.002 1.042 0 0.458-0.024 0.916-0.084 1.373-0.064 0.488-0.045 0.967-0.060 1.455-0.006 0.218-0.028 0.448-0.052 0.666-0.020 0.186-0.091 0.368-0.118 0.554-0.050 0.349-0.002 0.699-0.021 1.048-0.012 0.244-0.14 0.449-0.242 0.669-0.093 0.203-0.163 0.413-0.237 0.621-0.045 0.129-0.155 0.197-0.233 0.312-0.040 0.061-0.088 0.091-0.127 0.149-0.070 0.107-0.125 0.185-0.216 0.281-0.090-0.080-0.094-0.214-0.166-0.305-0.090-0.112-0.141-0.155-0.168-0.287-0.021-0.109-0.085-0.211-0.098-0.323-0.007-0.055 0.006-0.103-0.007-0.158-0.015-0.062-0.059-0.12-0.077-0.182-0.085-0.28-0.224-0.548-0.252-0.841-0.028-0.301 0.023-0.599-0.034-0.897-0.040-0.205-0.009-0.416-0.048-0.623-0.045-0.242-0.009-0.503-0.010-0.748-0.002-0.348 0.069-0.67 0.146-1.012 0.089-0.394 0.066-0.766 0.098-1.163 0.030-0.413 0.109-0.826 0.136-1.24 0.031-0.464 0.003-0.936 0.003-1.4v-1.832c0-0.234-0.025-0.489-0.014-0.733l-0.034 0.213c-0.030-0.134-0.185-0.819 0.132-0.839zM22.974 10.593c0.062 0.011 0.117 0.033 0.168 0.069 0.055 0.039 0.153 0.102 0.196 0.156 0.026 0.034 0.023 0.040 0.043 0.084 0.038 0.085 0.069 0.18 0.112 0.261 0.074 0.133 0.186 0.245 0.254 0.383 0.085 0.175 0.192 0.385 0.341 0.51 0.046 0.037 0.097 0.075 0.129 0.125 0.048 0.083 0.072 0.218 0.077 0.311v0.002c0.006 0.114 0.007 0.226-0.002 0.34-0.028 0.355-0.055 0.711-0.118 1.062-0.159 0.877 0.080 1.784-0.058 2.663-0.079 0.501-0.024 1.031-0.024 1.536 0 0.258-0.017 0.521 0.012 0.779 0.023 0.209-0.129 0.47-0.249 0.654-0.109 0.169-0.23 0.331-0.338 0.499-0.069 0.108-0.155 0.196-0.235 0.299-0.057 0.076-0.149 0.116-0.211 0.18-0.041 0.045-0.053 0.103-0.093 0.148-0.109-0.017-0.15-0.197-0.175-0.266-0.066-0.185-0.105-0.378-0.208-0.556-0.28-0.488-0.228-1.039-0.228-1.567 0-0.369-0.036-0.754 0.005-1.122 0.009-0.096 0.042-0.203-0.009-0.293-0.041-0.075-0.091-0.121-0.103-0.204-0.019-0.135 0.006-0.276 0.038-0.408 0.063-0.256 0.092-0.521 0.112-0.781 0.015-0.212 0.037-0.424 0.053-0.635 0.020-0.252 0.078-0.497 0.096-0.75v-0.014c0.021-0.325 0.047-0.641 0.046-0.968 0-0.332 0.002-0.662 0.002-0.993 0-0.265 0.001-0.529-0.002-0.793-0.004-0.212 0.071-0.378 0.178-0.566 0.071-0.126 0.046-0.166 0.19-0.142zM8.913 10.875c0.099-0.015 0.199 0.045 0.194 0.168-0.005 0.109-0.054 0.212-0.063 0.321-0.011 0.125 0.009 0.254 0.009 0.379-0.002 0.186 0.012 0.375 0.002 0.563-0.022 0.402-0.177 0.785-0.233 1.18-0.036 0.256-0.040 0.525-0.057 0.784-0.012 0.182-0.041 0.361-0.050 0.542-0.019 0.418 0.002 0.84 0.002 1.259 0 0.554-0.018 1.109 0.043 1.661 0.038 0.339 0.035 0.734-0.041 1.060-0.035 0.15-0.098 0.308-0.142 0.462-0.038 0.125-0.079 0.238-0.13 0.35 0.023 0.004 0.045 0.001 0.069 0.005 0.169 0.033 0.332 0.044 0.431 0.19 0.082 0.124 0.171 0.237 0.244 0.365 0.028 0.048 0.063 0.072 0.101 0.113 0.043 0.045 0.060 0.096 0.081 0.151 0.049 0.125 0.046 0.234 0.046 0.365 0 0.093 0.019 0.207 0.002 0.299-0.013 0.069-0.077 0.135-0.12 0.189-0.088 0.114-0.186 0.245-0.336 0.29-0.047 0.013-0.072 0.034-0.11 0.050-0.052 0.023-0.065 0.027-0.127 0.041-0.093 0.020-0.165 0.117-0.184-0.007-0.014-0.090 0.039-0.116 0.101-0.175 0.054-0.050 0.175-0.086 0.082 0.007v0.002c0.007-0.038 0.059-0.055 0.088-0.082 0.155-0.15 0.131-0.405 0.010-0.577-0.054-0.074-0.099-0.145-0.185-0.199-0.057-0.035-0.112-0.044-0.172-0.064-0.048-0.013-0.090-0.047-0.142-0.046-0.081 0-0.138 0.073-0.213 0.091-0.071 0.017-0.138 0.015-0.211 0.041-0.080 0.027-0.159 0.019-0.235 0.039-0.052 0.013-0.071 0.041-0.12 0.067-0.074 0.038-0.128 0.049-0.199 0.103-0.076 0.056-0.152 0.105-0.223 0.17-0.192 0.171-0.332 0.41-0.438 0.645-0.231 0.508-0.073 1.226 0.184 1.675 0.049 0.084 0.079 0.162 0.146 0.232 0.050 0.055 0.119 0.129 0.002 0.16-0.202 0.055-0.465-0.109-0.607-0.214-0.169-0.125-0.275-0.286-0.359-0.467-0.074-0.158-0.195-0.305-0.228-0.477-0.036-0.196-0.093-0.397-0.113-0.595-0.020-0.19-0.12-0.428-0.045-0.609 0.076-0.185 0.166-0.334 0.302-0.486 0.15-0.17 0.31-0.328 0.449-0.504 0.060-0.076 0.111-0.114 0.196-0.16 0.121-0.066 0.215-0.166 0.335-0.232 0.056-0.030 0.117-0.040 0.173-0.072 0.095-0.053 0.178-0.113 0.268-0.166-0.046-0.111-0.099-0.218-0.156-0.335-0.071-0.143-0.108-0.282-0.24-0.4-0.069-0.062-0.112-0.080-0.096-0.175 0.034-0.184 0.096-0.35 0.099-0.54 0.008-0.446 0.168-0.89 0.141-1.337-0.025-0.421-0.043-0.834-0.039-1.259 0.001-0.156-0.036-0.301-0.041-0.456-0.008-0.214 0-0.431 0-0.645 0-0.158-0.017-0.314-0.015-0.472 0.001-0.088 0-0.182 0.038-0.262 0.018-0.038 0.042-0.061 0.051-0.105 0.030-0.12-0.001-0.276-0.002-0.398 0-0.154 0.002-0.308 0.009-0.462 0.006-0.14 0.132-0.248 0.201-0.372 0.041-0.073 0.064-0.142 0.13-0.196 0.204-0.171 0.386-0.411 0.58-0.606 0.022-0.025 0.048-0.049 0.072-0.072 0.185-0.171 0.402-0.326 0.547-0.53 0.049-0.069 0.087-0.171 0.154-0.225 0.029-0.022 0.062-0.036 0.094-0.041zM14.99 16.401c-0.018 0.004-0.028 0.016-0.038 0.046-0.020 0.068 0.025 0.134 0.039 0.197 0.012 0.059 0.003 0.122 0.003 0.18 0 0.047-0.026 0.155-0.003 0.199 0.030 0.056 0.244 0.031 0.321 0.031 0.139 0 0.279-0.003 0.417-0.002 0.074 0.001 0.143 0.018 0.177-0.046 0.020-0.038 0.001-0.107 0-0.149-0.001-0.122-0.039-0.233-0.039-0.359l-0.039-0.065c-0.128 0-0.296 0.025-0.419 0.002-0.053-0.012-0.079-0.028-0.136-0.034-0.063-0.006-0.136 0.001-0.201 0-0.040-0.001-0.065-0.004-0.082 0zM11.227 16.962c-0.020 0-0.061-0.006-0.081 0.003-0.076 0.034-0.036 0.141-0.043 0.189-0.007 0.053-0.055 0.106-0.043 0.161 0.008 0.038 0.030 0.064 0.043 0.101 0.017 0.055 0.033 0.118 0.046 0.173 0.144 0.014 0.244 0.071 0.389 0.070 0.066 0 0.156 0.015 0.22 0.002 0.084-0.018 0.061-0.064 0.058-0.132-0.001-0.063 0.026-0.078 0.041-0.129 0.014-0.050 0.005-0.102 0-0.153-0.001-0.021 0.004-0.035 0.009-0.055v-0.002c0.006-0.027 0.003-0.056 0.003-0.082 0-0.028 0.008-0.064-0.002-0.091-0.021-0.003-0.033-0.010-0.052-0.014-0.023-0.004-0.063 0-0.089 0-0.030 0.003-0.057-0.002-0.088-0.009-0.033-0.003-0.066-0-0.099-0.007-0.102-0.023-0.21-0.027-0.314-0.027zM19.383 16.974c-0.047 0-0.105 0.003-0.142 0.029-0.067 0.048-0.036 0.165-0.036 0.228 0.001 0.067 0.004 0.135 0 0.201-0.004 0.054-0.041 0.109-0.038 0.158 0.064 0.010 0.097 0.026 0.151 0.039 0.064 0.014 0.158-0.003 0.225-0.003 0.108 0 0.274 0.027 0.377 0.003 0.114-0.028 0.070-0.132 0.081-0.201 0.001-0.023 0.005-0.013 0.010-0.029 0.004-0.011 0.001-0.024 0.002-0.038 0.006-0.025 0.012-0.049 0.012-0.072 0-0.045 0.008-0.083 0.012-0.125l0.002-0.002c0.003-0.032 0-0.065 0-0.098 0-0.021 0.011-0.064-0.014-0.077-0.020 0.020-0.118 0.005-0.149 0.005-0.095 0-0.199 0.015-0.29-0.005-0.067-0.012-0.136-0.014-0.202-0.014zM22.965 17.739c-0.059 0.074-0.055 0.131-0.055 0.216 0.002 0.117-0.055 0.213-0.055 0.331 0 0.107-0.028 0.138 0.163 0.137 0.177-0.003 0.339-0.030 0.518-0.033 0.19-0.002 0.192-0.041 0.189-0.146-0.001-0.055 0.022-0.122 0.003-0.175-0.014-0.043-0.044-0.078-0.057-0.12-0.014-0.046 0.032-0.064-0.050-0.084-0.046-0.010-0.14 0.004-0.19 0-0.085-0.009-0.208-0.080-0.304-0.064l-0.163-0.064zM7.583 17.878c-0.045-0.006-0.084-0.006-0.101 0.019-0.016 0.023 0.010 0.075 0.005 0.101-0.007 0.040-0.019 0.053-0.041 0.086 0.006 0.041 0.014 0.082 0.029 0.125 0.027 0.080-0.018 0.165 0.017 0.242 0.13 0.018 0.213-0.013 0.331-0.029 0.125-0.019 0.287 0.004 0.417 0 0.068 0 0.097 0.015 0.125-0.029v-0.003c0.017-0.027 0.001-0.099-0.002-0.132-0.002-0.058-0.043-0.108-0.053-0.166-0.008-0.042 0.013-0.082-0.003-0.125-0.111-0.006-0.174-0.037-0.287-0.036-0.056 0-0.115 0.001-0.17 0-0.062-0.003-0.088-0.019-0.132-0.026-0.039-0.005-0.090-0.019-0.136-0.026zM7.446 18.084c-0.005-0.028-0.009-0.054-0.010-0.087v0.098c0.005-0.003 0.008-0.007 0.010-0.010zM25.34 18.669c0.050-0.008 0.144 0.138 0.178 0.173 0.075 0.073 0.109 0.117 0.129 0.233 0.062 0.357 0.020 0.714 0.038 1.072 0.011 0.178 0.044 0.358 0.029 0.537-0.013 0.164-0.032 0.329-0.045 0.494-0.015 0.176-0.055 0.363-0.093 0.535-0.052 0.237-0.1 0.475-0.163 0.709-0.117 0.437-0.306 0.822-0.604 1.127-0.285 0.293-0.557 0.591-0.885 0.817-0.319 0.219-0.617 0.491-0.927 0.729-0.245 0.19-0.502 0.367-0.772 0.504-0.361 0.185-0.723 0.372-1.108 0.463-0.259 0.061-0.519 0.128-0.779 0.175-0.471 0.084-0.949 0.163-1.422 0.218-0.298 0.033-0.579 0.075-0.873 0.007-0.321-0.073-0.589-0.16-0.866-0.357-0.23-0.162-0.473-0.293-0.698-0.46-0.043-0.032-0.086-0.058-0.132-0.084-0.074-0.043-0.144-0.080-0.199-0.148-0.090-0.113-0.133-0.257-0.221-0.374-0.088-0.116-0.204-0.207-0.3-0.314-0.204-0.226-0.396-0.466-0.611-0.681-0.162-0.164-0.319-0.31-0.535-0.393-0.225-0.084-0.466-0.142-0.7-0.18-0.156-0.026-0.289-0.077-0.45-0.074-0.125 0.002-0.193-0.044-0.312-0.043-0.223 0.003-0.454-0.012-0.643 0.123-0.207 0.145-0.459 0.265-0.693 0.374-0.134 0.062-0.291 0.137-0.412 0.221-0.232 0.164-0.428 0.362-0.556 0.619-0.098 0.199-0.136 0.475-0.172 0.697-0.028 0.174-0.014 0.336 0.084 0.487 0.064 0.099 0.149 0.18 0.237 0.256 0.116 0.102 0.22 0.219 0.338 0.317 0.085 0.070 0.179 0.126 0.283 0.161 0.056 0.018 0.105 0.071 0.165 0.069 0.025-0.001 0.039-0.034 0.055-0.038 0.046-0.006 0.073-0.004 0.118 0 0.082 0.008 0.134 0.028 0.209 0.058 0.052 0.020 0.1 0.054 0.146 0.070 0.068 0.023 0.13 0.006 0.19-0.003 0.098-0.016 0.073-0.007 0.074 0.106 0.002 0.115 0.018 0.211 0.012 0.328-0.005 0.083 0.013 0.193 0.046 0.268-0.092 0.097-0.391-0-0.498-0.010-0.18-0.016-0.339-0.081-0.52-0.098-0.212-0.017-0.437-0.068-0.649-0.026-0.179 0.037-0.277-0.016-0.426-0.134-0.307-0.242-0.594-0.538-0.722-0.956-0.098-0.322-0.116-0.724-0.029-1.059 0.075-0.286 0.238-0.527 0.355-0.794 0.088-0.198 0.123-0.398 0.16-0.611 0.053-0.317 0.271-0.563 0.54-0.727 0.103-0.062 0.211-0.113 0.311-0.184 0.143-0.102 0.275-0.194 0.458-0.19 0.116 0.002 0.208-0.033 0.319-0.043 0.193-0.019 0.374-0.034 0.564-0.082 0.225-0.057 0.428-0.115 0.657-0.125 0.382-0.019 0.755-0.088 1.138-0.087 0.333 0.001 0.63-0.002 0.952 0.082 0.436 0.114 0.763 0.442 1.067 0.76 0.169 0.178 0.335 0.379 0.446 0.599 0.027 0.052 0.028 0.112 0.069 0.156 0.069 0.074 0.201 0.124 0.278 0.184 0.112 0.084 0.231 0.179 0.333 0.276 0.205 0.199 0.35 0.441 0.589 0.599 0.121 0.080 0.257 0.104 0.383 0.17 0.15 0.077 0.311 0.106 0.472 0.153 0.425 0.122 0.888 0.197 1.328 0.12 0.209-0.038 0.398-0.156 0.585-0.262 0.2-0.116 0.396-0.248 0.592-0.371 0.28-0.172 0.576-0.308 0.853-0.484 0.288-0.183 0.544-0.41 0.818-0.616 0.165-0.125 0.334-0.246 0.487-0.388 0.137-0.127 0.246-0.295 0.403-0.391 0.107-0.065 0.23-0.092 0.326-0.177 0.084-0.072 0.139-0.174 0.192-0.273 0.223-0.417 0.38-0.872 0.475-1.34 0.048-0.239 0.073-0.512 0.070-0.757-0.002-0.163 0.034-0.444-0.067-0.58v-0.003c-0.112 0.087-0.025-0.053 0.003-0.148 0.030-0.098 0.056-0.194 0.091-0.29 0.046-0.131 0.109-0.28 0.192-0.384 0.052-0.063 0.104-0.102 0.151-0.175 0.022-0.036 0.048-0.129 0.093-0.136zM21.515 19.611c0.064 0.086 0.142 0.138 0.19 0.238 0.035 0.070 0.056 0.109 0.093 0.161 0.002-0.012 0.014-0.020 0.010-0.034 0.075 0.144 0.038 0.102 0 0.052-0.004-0.006-0.006-0.012-0.010-0.017-0.010 0.055-0.059 0.096-0.098 0.137-0.107 0.114-0.174 0.232-0.206 0.381-0.089 0.404 0.008 0.845 0.082 1.242 0.042 0.227 0.166 0.419 0.276 0.619 0.040 0.073 0.057 0.158 0.132 0.202 0.060 0.035 0.178 0.067 0.244 0.081 0.125 0.030 0.273 0.007 0.402 0.010 0.076 0.001 0.233-0.067 0.269-0.021 0.035 0.045-0 0.214 0.002 0.273 0.001 0.13-0.038 0.159-0.165 0.17-0.091 0.007-0.165 0.020-0.247 0.064-0.062 0.030-0.091 0.063-0.156 0.062-0.076-0.001-0.185-0.029-0.264-0.039-0.088-0.010-0.151-0.046-0.228-0.086-0.323-0.166-0.547-0.391-0.722-0.715-0.092-0.17-0.172-0.343-0.273-0.508-0.054-0.087-0.127-0.163-0.166-0.259-0.039-0.097-0.040-0.2-0.057-0.304-0.036-0.213-0.037-0.393 0.005-0.602 0.026-0.131 0.032-0.296 0.125-0.402 0.148-0.171 0.394-0.252 0.554-0.415 0.083-0.085 0.16-0.176 0.208-0.29zM12.468 24.505c0.068 0.004 0.137 0.012 0.201 0.015 0.135 0.007 0.278-0.003 0.41 0.017 0.264 0.040 0.525 0.158 0.779 0.238 0.228 0.073 0.373 0.193 0.573 0.317 0.128 0.080 0.217 0.213 0.314 0.324 0.089 0.102 0.178 0.204 0.251 0.319 0.063 0.101 0.131 0.196 0.199 0.293 0.039 0.055 0.054 0.121 0.093 0.175 0.041 0.059 0.1 0.101 0.142 0.163 0.103 0.152 0.217 0.285 0.352 0.41 0.088 0.081 0.16 0.192 0.261 0.257s0.211 0.127 0.317 0.19c0.134 0.081 0.268 0.125 0.41 0.187 0.267 0.117 0.633 0.165 0.916 0.082 0.111-0.033 0.191-0.030 0.304-0.029 0.148 0.005 0.123 0.042 0.16 0.18 0.035 0.123 0.192 0.381 0.067 0.467-0.038 0.026-0.131 0.026-0.172 0.043-0.054 0.019-0.091 0.050-0.141 0.070-0.169 0.065-0.334 0.098-0.494 0.189-0.207 0.116-0.482 0.147-0.717 0.096-0.060-0.013-0.106-0.043-0.166-0.053-0.042-0.006-0.083 0.005-0.125-0.009-0.082-0.027-0.147-0.113-0.213-0.165-0.078-0.059-0.167-0.095-0.245-0.154-0.334-0.249-0.606-0.581-0.853-0.916-0.081-0.11-0.175-0.213-0.254-0.324-0.047-0.067-0.081-0.137-0.137-0.197-0.155-0.16-0.252-0.369-0.441-0.494-0.218-0.145-0.363-0.346-0.611-0.451-0.198-0.084-0.399-0.191-0.611-0.23-0.286-0.054-0.565 0.012-0.851-0.002v0.002c-0.098 0.202-0.127 0.17-0.18 0.034-0.040-0.107-0.038-0.23-0.060-0.345-0.029-0.159-0.045-0.339-0.017-0.508 0.019-0.119 0.045-0.085 0.132-0.118 0.069-0.025 0.135-0.049 0.211-0.065 0.062-0.014 0.129-0.015 0.197-0.010z"></path>
</svg>
