<!-- Generated by IcoMoon.io -->
<svg version="1.1" xmlns="http://www.w3.org/2000/svg" width="32" height="32" viewBox="0 0 32 32">
<title>return_to_threads_of_fate</title>
<path d="M18.516 28.767c-0-0-0-0.001-0.001-0.001-0.003 0.002-0.002 0.002 0.001 0.001z"></path>
<path d="M20.469 27.895c-0.001 0-0.002 0.001-0.005 0.003 0.002-0.002 0.003-0.002 0.005-0.003z"></path>
<path d="M24.624 23.616c0.018-0.012 0.041-0.031 0.076-0.057-0.025 0.018-0.051 0.038-0.076 0.057z"></path>
<path d="M14.368 1.016c-0.050 0.028-0.098 0.054-0.145 0.079-0.032 0.013-0.064 0.028-0.092 0.042-0.058 0.023-0.111 0.048-0.164 0.070-0.104 0.042-0.198 0.078-0.272 0.114l0.165-0.114c-0.1 0.068-0.185 0.113-0.274 0.162l0.125-0.009c-0.108 0.048-0.194 0.094-0.204 0.074-0.089 0.088 0.122 0.032-0.068 0.187-0.075 0.027-0.176 0.090-0.268 0.143-0.047 0.025-0.093 0.046-0.13 0.063-0.020 0.006-0.035 0.013-0.050 0.015-0.009 0-0.015-0.003-0.022-0.011 0.006-0.001 0.036-0.016 0.055-0.026 0.021-0.011 0.039-0.023 0.055-0.029 0.028-0.016 0.044-0.027 0.055-0.035 0.018-0.018 0.006-0.023-0.009-0.024-0.025-0.006-0.057-0.012 0.040-0.076-0.055 0.032-0.118 0.064-0.193 0.098-0.019 0.001 0.009-0.023 0.035-0.040-0.029 0.011-0.074 0.030-0.081 0.031-0.004-0.001-0.004-0.001-0.007 0-0.004-0.001-0.005 0.001-0.005 0.002-0.009 0.002-0.037 0.006-0.048 0.011-0.031 0.009-0.050 0.021-0.077 0.033-0.052 0.024-0.126 0.051-0.334 0.055 0.042-0.026-0.025-0.042-0.097-0.052 0.046 0.019-0.045 0.061-0.18 0.085-0.314-0.021-0.341 0.029-0.505 0.029l0.187 0.009c-0.029 0.019-0.083 0.030-0.154 0.037-0.074 0.005-0.168 0.009-0.279 0.017-0.008 0.002-0.020 0.005-0.029 0.011-0.007-0.005 0.004-0.015 0.026-0.026-0.082 0.031-0.121 0.043-0.186 0.059-0.062 0.010-0.126 0.022-0.193 0.035-0.131 0.024-0.27 0.055-0.404 0.119-0.158 0.024-0.035-0.063-0.173-0.037-0.134 0.064-0.227 0.089-0.31 0.107-0.041 0.009-0.079 0.014-0.121 0.024-0.022 0.004-0.042 0.010-0.066 0.015-0.012 0.004-0.025 0.005-0.037 0.009-0.023 0.006-0.043 0.014-0.066 0.020-0.022 0.013-0.044 0.027-0.068 0.040-0.013 0.007-0.029 0.018-0.044 0.028-0.031 0.020-0.063 0.045-0.097 0.072 0.124-0.018 0.134-0.038-0.081 0.152l0.323-0.222 0.294-0.114-0.13 0.072c-0.050 0.024-0.073 0.040-0.151 0.074-0.059 0.044-0.079 0.068-0.114 0.099 0.040-0.025 0.083-0.054 0.123-0.081 0.043-0.016 0.085-0.033 0.125-0.048 0.038-0.015 0.071-0.030 0.103-0.042 0.067-0.028 0.127-0.049 0.173-0.061-0.179 0.103-0.166 0.085-0.063 0.096-0.056 0.001-0.109 0.011-0.16 0.024-0.025 0.006-0.053 0.016-0.077 0.026l-0.090 0.035c-0.071 0.052-0.142 0.104-0.217 0.16-0.071 0.051-0.147 0.098-0.237 0.134l-0.057-0.11c-0.316 0.145-0.551 0.354-0.842 0.555-0.094 0.051-0.237 0.12-0.38 0.176l0.189-0.063c-0.055 0.079-0.343 0.164-0.514 0.265-0.001-0.045-0.119-0.006-0.208 0.002 0.020 0.025-0.405 0.183-0.426 0.285l-0.074 0.022-0.066 0.048-0.050 0.031-0.096 0.061c-0.373 0.325-0.325 0.477-0.678 0.794 0.072-0.131-0.105-0.002 0.101-0.246-0.114 0.11-0.221 0.201-0.202 0.224-0.019 0.009-0.045 0.033-0.072 0.061-0.029 0.033-0.066 0.075-0.103 0.119-0.034 0.062-0.071 0.13-0.105 0.191-0.032 0.053-0.063 0.1-0.094 0.129-0.023 0.066 0.003 0.108-0.096 0.254-0.012 0.008-0.017 0.001-0.019-0.005-0.003 0.038-0.121 0.234-0.005 0.137-0.084 0.075-0.167 0.174-0.25 0.287-0.042 0.053-0.081 0.113-0.121 0.175-0.038 0.056-0.074 0.113-0.112 0.171-0.064 0.057-0.13 0.117-0.195 0.175-0.068 0.058-0.136 0.117-0.2 0.173-0.131 0.108-0.258 0.198-0.367 0.25-0.14 0.131-0.293 0.275-0.434 0.406-0.068 0.194-0.132 0.372-0.184 0.526-0.005-0.024-0.019-0.009 0.005-0.063-0.186 0.393 0.021 0.29-0.189 0.739-0.151 0.213 0.054-0.257-0.024-0.119-0.044 0.005-0.076 0.051-0.107 0.123-0.015 0.036-0.030 0.080-0.046 0.125-0.011 0.042-0.034 0.108-0.035 0.123-0.004 0.011-0.028 0.048-0.053 0.083l-0.072 0.107c-0.050 0.067-0.104 0.128-0.162 0.175l0.042-0.070c-0.189 0.175-0.326 0.53-0.581 0.858 0 0-0.001-0.024-0.018-0.015-0.006 0.022-0.022 0.057-0.051 0.107-0.015 0.079-0.033 0.169-0.051 0.268-0.019 0.089-0.040 0.185-0.064 0.283-0.048 0.195-0.102 0.398-0.149 0.575-0.013-0.134 0.027-0.18-0.048-0.127-0.048 0.174 0.098-0.022 0.004 0.323-0.028 0.046-0.057 0.101-0.097 0.178-0.036 0.107-0.071 0.19-0.108 0.208l0.031-0.226 0.042-0.129c-0.013 0.016-0.028 0.029-0.038 0.048-0.010 0.016-0.018 0.037-0.033 0.074-0.004 0.025-0.009 0.049-0.015 0.075l-0.011 0.064c-0.004 0.043-0.004 0.086-0.005 0.129-0.004 0.086-0.008 0.169-0.026 0.237l-0.029-0.029c-0.064 0.499 0.012 0.538-0.066 1.044-0.001 0.006-0.005 0.016-0.007 0.026 0.006-0.010 0.014-0.017 0.020-0.024 0.005-0.005 0.011-0.009 0.017-0.018 0.001 0.012 0.001 0.017 0.002 0.022 0 0.276-0.107 0.216-0.119 0.513l-0.105 0.068c-0.031 0.197-0.084 0.701-0.171 1.049 0.004-0.209 0.067-0.627 0.097-0.887-0.033 0.127-0.066 0.325-0.097 0.509 0.012 0.256-0.058 0.566-0.169 0.944-0.044-0.036-0.097 0.055-0.153 0.204-0.028 0.074-0.056 0.164-0.086 0.257-0.034 0.106-0.068 0.217-0.101 0.325 0.005 0.039 0.012 0.078 0.018 0.116 0.002 0.027 0.005 0.052 0.009 0.077 0.005 0.048 0.013 0.098 0.017 0.143 0.005 0.088 0.003 0.161-0.009 0.215 0.045 0.166 0.082 0.335 0.114 0.505 0.015 0.086 0.030 0.172 0.046 0.259 0.013 0.092 0.028 0.182 0.042 0.277 0.058 0.179 0.116 0.363 0.176 0.551 0.060 0.183 0.124 0.372 0.197 0.566 0.021-0.314 0.084 0.222 0.189 0.13 0.031 0.080 0.051 0.135 0.066 0.173 0.004 0.028 0.008 0.067 0.005 0.072v0.002l0.013 0.581c-0.016 0.14-0.057-0.175-0.083-0.152 0.056 0.411-0.026 0.181-0.016 0.457 0.038-0.063 0.087 0.132 0.108 0.369l0.007-0.338c0.076 0.27 0.071 0.382 0.068 0.525 0.010 0.159 0.005 0.273 0.118 0.568l-0.085-0.169c0.039 0.112 0.089 0.302 0.145 0.507 0.031 0.103 0.061 0.209 0.090 0.312 0.018 0.050 0.035 0.101 0.050 0.149 0.020 0.054 0.039 0.104 0.055 0.152 0.023 0.050 0.028 0.057 0.040 0.081 0.013 0.020 0.024 0.038 0.035 0.055 0.023 0.036 0.049 0.068 0.070 0.092 0.005 0.055-0.002 0.132-0.061 0.013 0.074 0.194 0.161 0.399 0.254 0.601 0.096 0.209 0.194 0.419 0.287 0.619 0.052 0.072 0.103 0.141 0.152 0.208 0.043 0.061 0.085 0.121 0.125 0.18 0.080 0.118 0.149 0.229 0.204 0.336l-0.055-0.029c0.082 0.107 0.18 0.162 0.248 0.32-0.018 0-0.059-0.028-0.026 0.024 0.016 0.019 0.051 0.058 0.094 0.105 0.020 0.024 0.040 0.048 0.064 0.075 0.024 0.031 0.041 0.048 0.083 0.107 0.029 0.027 0.060 0.057 0.088 0.083 0.023 0.023 0.042 0.043 0.061 0.064l-0.134-0.081c0.479 0.518 0.834 0.687 1.275 1.075-0.066 0.067 0.313 0.464 0.503 0.661l-0.017 0.002c0.145 0.138 0.281 0.26 0.415 0.377 0.128 0.122 0.254 0.236 0.377 0.345 0.126 0.111 0.246 0.22 0.375 0.331 0.061 0.058 0.125 0.114 0.189 0.173 0.034 0.029 0.066 0.059 0.099 0.090 0.037 0.035 0.076 0.070 0.114 0.107 0.015 0.007 0.030 0.019 0.048 0.029 0.111 0.115 0.291 0.258 0.503 0.413 0.108 0.076 0.222 0.158 0.34 0.241 0.13 0.091 0.265 0.183 0.401 0.276 0.155 0.043 0.311 0.087 0.461 0.129 0.134 0.040 0.263 0.081 0.382 0.121-0.107-0.045 0.036-0.066 0.167-0.042 0.167 0.063 0.489 0.060 0.439 0.136l-0.059-0.018c0.016 0.017 0.040 0.035 0.068 0.052 0.012 0.007 0.026 0.016 0.042 0.024 0.020 0.006 0.010 0.004 0.017 0.011-0.007 0.001 0.048 0.036 0.086 0.059 0.043 0.025 0.085 0.052 0.13 0.077 0.091 0.050 0.186 0.102 0.272 0.149l0.094-0.075c0.099 0.087 0.217 0.17 0.345 0.25 0.063 0.040 0.128 0.082 0.195 0.119 0.075 0.042 0.15 0.080 0.226 0.121l0.231 0.077c0.070 0.021 0.139 0.041 0.208 0.063 0.138 0.043 0.275 0.084 0.397 0.121 0.246 0.079 0.447 0.16 0.557 0.248 0.028 0.005 0.035 0.006 0.094 0.020 0.084 0.011 0.177 0.022 0.268 0.033 0.087 0.009 0.172 0.021 0.25 0.024l-0.022 0.057c0.191 0.043 0.344 0.077 0.502 0.112 0.079 0.017 0.159 0.034 0.246 0.052 0.098 0.019 0.203 0.040 0.321 0.064 0.068-0.006 0.197-0.021 0.34-0.033l-0.123 0.053c0.345-0.023 0.423-0.206 0.74-0.231l0.101 0.083 0.263-0.016 0.272-0.011 0.336-0.048 0.318-0.050c0.211-0.036 0.42-0.083 0.625-0.149-0.007 0.015-0.023 0.044-0.118 0.064 0.083-0.013 0.213-0.032 0.351-0.053 0.078-0.004 0.157-0.007 0.231-0.011 0.079-0.005 0.155-0.013 0.217-0.022 0.113-0.016 0.184-0.039 0.168-0.074 0.072 0.056 0.633-0.048 0.937-0.11l-0.044 0.066c0.266-0.11 0.272-0.132 0.65-0.2 0.091-0.004 0.085 0.035-0.035 0.035 0.304-0.006 0.226-0.083 0.595-0.097l-0.13 0.055c0.151-0.017 0.222-0.030 0.274-0.046s0.084-0.034 0.191-0.070c0.001-0.001 0.006-0.006 0.011-0.009 0.025-0.019 0.054-0.042 0.084-0.064 0.024-0.016 0.052-0.031 0.079-0.050 0.056-0.035 0.116-0.072 0.175-0.101 0.115-0.059 0.22-0.099 0.254-0.088 0.017-0.051 0.136-0.178 0.299-0.265 0.032 0.004-0.018 0.049-0.042 0.072 0.107-0.058 0.197-0.116 0.276-0.169 0.040-0.029 0.076-0.054 0.114-0.081l0.050-0.039 0.031-0.024c0.016-0.009 0.064-0.027 0.108-0.040 0.043-0.015 0.084-0.031 0.127-0.044 0.084-0.024 0.171-0.043 0.268-0.052 0.012 0.016 0.034 0.020 0.066 0.018-0.235 0.059-0.441 0.114-0.558 0.143-0.024 0.015-0.043 0.026-0.053 0.031-0.009 0.006-0.015 0.009-0.018 0.010 0.013 0.020 0.083-0.005 0.091 0.006 0.015 0.005 0.021 0.011 0.029 0.020 0.004 0.009-0.001 0.026 0 0.042 0 0.003 0.001 0.007 0.002 0.011 0-0.002 0.001-0.007 0.002-0.011 0.017-0.006 0.034-0.014 0.050-0.022 0.038-0.015 0.075-0.032 0.114-0.050 0.078-0.032 0.16-0.066 0.244-0.101 0.167-0.068 0.342-0.129 0.496-0.156 0.016 0.001 0.031 0.001 0.044 0.005l-0.031 0.013c0.074-0.013 0.141-0.035 0.2-0.059 0.051-0.009 0.093-0.018 0.134-0.026 0.047-0.009 0.063-0.013 0.16-0.037 0.017 0.005 0.057 0.001 0.117-0.011 0.035-0.035 0.079-0.081 0.127-0.136 0.027-0.032 0.055-0.065 0.084-0.101 0.058-0.070 0.12-0.142 0.162-0.193-0.054-0.026 0.087-0.185-0.072-0.068 0.003 0.001-0.031 0.047-0.091 0.119-0.013 0.021-0.031 0.044-0.039 0.059 0-0.004 0.001-0.009 0.002-0.015l-0.217 0.265-0.184 0.050c0.038-0.022 0.113-0.050 0.169-0.072 0.020-0.028 0.041-0.057 0.063-0.086 0.017-0.023 0.037-0.049 0.057-0.074 0.033-0.043 0.073-0.083 0.123-0.123 0.025-0.091 0.057-0.188 0.075-0.241 0.211-0.12 0.531-0.43 0.608-0.443 0.054-0.071 0.108-0.147 0.167-0.224 0.080-0.068 0.163-0.139 0.244-0.208 0.087-0.076 0.17-0.149 0.252-0.219 0.159-0.146 0.295-0.284 0.371-0.401 0.104-0.1 0.149-0.077 0.202-0.097-0.060 0.061-0.138 0.122-0.163 0.162 0.202-0.21 0.687-0.512 0.695-0.617 0.318-0.182-0.126 0.177 0.276-0.121l-0.040 0.057c0.107-0.056 0.203-0.114 0.296-0.175 0.046-0.032 0.090-0.063 0.134-0.092 0.055-0.040 0.11-0.079 0.162-0.119l0.066-0.123 0.042-0.084 0.075-0.169c0.050-0.112 0.101-0.224 0.151-0.338 0.1-0.224 0.219-0.471 0.356-0.693 0.079-0.074 0.188-0.168 0.303-0.257-0.013 0.009-0.024 0.015-0.033 0.016 0.146-0.128 0.288-0.263 0.43-0.399l0.209-0.209 0.222-0.219c0.292-0.467 0.536-0.88 0.836-1.341l0.088-0.272 0.088-0.254c0.060-0.17 0.124-0.335 0.191-0.498 0.098-0.256 0.096-0.336 0.107-0.474 0-0.036 0.004-0.078 0.004-0.129l0.077-0.061 0.007-0.371c0.063-0.516 0.345-0.84 0.402-1.499l-0.061 0.074c0.063-0.227 0.151-0.733 0.189-0.682-0.001-0.027-0.026-0.083 0.017-0.169h0.037l0.011-0.085 0.020-0.114-0.044-0.123v0.005l-0.035-0.096-0.075-0.193c-0.094-0.438 0.148 0.035-0.015-0.599-0.078-0.231-0.276-0.643-0.274-0.549 0.024 0.095 0.046 0.247 0.015 0.265l-0.074-0.209c-0.006-0.001-0.015-0.002-0.022-0.004l-0.011-0.035 0.312-1.534-0.276-1.029 0.024 0.020-0.037-0.070-0.088-0.327c0.013 0.006 0.034 0.033 0.055 0.097-0.007-0.096-0.021-0.144-0.039-0.191-0.039-0.067-0.069-0.088-0.097-0.222-0.004-0.025 0.006-0.018 0.018 0l-0.125-0.208c0.036 0.035 0.040-0.063 0.090 0.077-0.134-0.415-0.354-0.606-0.362-0.781l0.022 0.029c-0.209-0.397-0.149-0.21-0.219-0.259l-0.004-0.011-0.037-0.261 0.083-0.222-0.072-0.052c-0.006-0.060-0.016-0.182 0.013-0.164-0.073-0.222-0.024 0.043-0.083-0.085 0.015-0.233-0.064-0.565-0.068-0.774-0.033-0.059-0.054-0.107-0.040-0.134-0.107-0.060 0.146 0.261-0.079 0.016 0.035-0.14-0.233-0.285-0.356-0.535 0.096 0.033 0.225 0.26 0.103 0.011-0.175-0.075-0.297-0.439-0.448-0.612-0.071 0.037-0.319-0.386-0.564-0.683 0.036 0.004-0.391-0.612-0.564-0.928l0.015 0.002c-0.103-0.013-0.299-0.326-0.465-0.54 0.044-0.017 0.088 0.012 0.187 0.121l-0.141-0.211c-0.055-0.035-0.108-0.094-0.208-0.224l0.084 0.022-0.075-0.101-0.103-0.086-0.090-0.074c-0.060-0.048-0.125-0.1-0.189-0.151-0.128-0.106-0.26-0.219-0.391-0.364-0.037 0.018 0.045 0.167-0.011 0.176l-0.171-0.16c0.019-0.007 0.048-0.002 0.097 0.033-0.032-0.024-0.121-0.075-0.171-0.138l0.169 0.088c-0.131-0.15-0.105-0.040-0.219-0.151 0.032-0.028-0.063-0.101-0.024-0.11 0.032 0.024 0.089 0.105 0.145 0.134-0.063-0.061-0.145-0.146-0.182-0.197-0.027-0.054-0.066-0.132-0.072-0.165-0.011 0.028-0.046 0.037-0.129-0.064-0.205-0.267-0.030-0.124-0.13-0.294-0.072-0.047-0.178-0.236-0.231-0.204-0.059-0.079-0.048-0.109-0.057-0.151-0.035-0.034-0.087-0.098-0.143-0.167-0.067-0.082-0.136-0.171-0.195-0.244-0.205-0.051-0.257-0.053-0.187 0l0.050 0.018c-0.011-0.001-0.023-0.005-0.035-0.007-0.237-0.041-0.472-0.111-0.707-0.187l-0.353-0.118c-0.112-0.038-0.219-0.074-0.329-0.108l-0.094-0.081-0.11-0.088 0.013-0.015c-0.273-0.202-0.581-0.48-0.794-0.604-0.076-0.064-0.155-0.182-0.107-0.173-0.031-0.023-0.059-0.045-0.077-0.059-0.048-0.020-0.088-0.035-0.127-0.050-0.036-0.015-0.070-0.030-0.107-0.046-0.073-0.036-0.158-0.083-0.296-0.169 0.25 0.083-0.067-0.068 0.252 0.096-0.294-0.166-0.349-0.23-0.696-0.34 0.132 0.005-0.192-0.172-0.351-0.233l0.198 0.141c-0.047-0.020-0.091-0.040-0.134-0.061-0.049-0.024-0.098-0.049-0.145-0.074-0.080-0.012-0.155-0.022-0.231-0.035l0.094-0.059c-0.333-0.087-0.644-0.090-0.935-0.099-0.145-0.004-0.284-0.010-0.421-0.028-0.134-0.019-0.26-0.063-0.382-0.121-0.187 0.013 0.361 0.105 0.191 0.13-0.308-0.070-0.612-0.233-0.709-0.25-0.171-0.051-0.272-0.056-0.362-0.053-0.046 0.002-0.085 0.005-0.132 0.007-0.023 0.001-0.050 0.001-0.075 0-0.029-0.001-0.049-0.001-0.101-0.009-0.032 0-0.066 0.002-0.105 0.002-0.034 0-0.071-0.003-0.114-0.005 0.059 0.027 0.114 0.092-0.226 0.112-0.316-0.015-0.388-0.111-0.187-0.129 0.076-0.001 0.113 0.007 0.11 0.017 0.103-0.007 0.236-0.016 0.11-0.046l-0.042 0.026c-0.156-0.029-0.591-0.033-0.487-0.074-0.241 0.022-0.106 0.039 0.072 0.055-0.262-0.029-0.462-0.025-0.667-0.028-0.096-0.006-0.229-0.019-0.369-0.040 0.065 0.020 0.124 0.054 0.059 0.048-0.609-0.087-0.273 0.022-0.687-0.004-0.232-0.059 0.092-0.083-0.327-0.088-0.253-0.050-0.048-0.071 0.053-0.083-0.046 0.001-0.090 0.001-0.134 0l-0.094-0.005c-0.037-0.004-0.073-0.007-0.108-0.011h-0.002v-0zM17.364 4.848c-0.030 0.020-0.063 0.040-0.098 0.060 0.026-0.017 0.056-0.036 0.098-0.060zM12.161 5.931c0.029-0.006 0.217 0.109 0.25 0.136 0.063 0.052 0.088 0.126 0.134 0.188 0.081 0.106 0.173 0.222 0.215 0.354 0.025 0.076 0.055 0.174 0.059 0.253 0.001 0.037-0.011 0.083-0.002 0.12 0.007 0.031 0.035 0.039 0.042 0.072 0.008 0.036-0.001 0.075 0.007 0.111 0.006 0.026 0.027 0.048 0.031 0.085 0.008 0.075-0.001 0.158-0.001 0.233 0 0.001 0 0.001 0 0.002l-0 0c0-0.001 0-0.002 0-0.002-0.001-0.138-0.015 0.009-0.115 0.044-0.106 0.037-0.222-0.037-0.315-0.072-0.142-0.052-0.408-0.145-0.319-0.329 0.019-0.043 0.041-0.083 0.050-0.126 0.006-0.032-0.011-0.068-0.003-0.101 0.005-0.019 0.029-0.032 0.031-0.046 0.022-0.101 0.009-0.217 0.009-0.322 0-0.108 0.021-0.244-0.003-0.348-0.006-0.022-0.029-0.023-0.033-0.046s0.004-0.054-0.001-0.076c-0.013-0.043-0.058-0.084-0.036-0.131zM7.143 5.97c0.171 0.036 0.325 0.106 0.494 0.113 0.059 0.001 0.085 0.016 0.137 0.039 0.066 0.032 0.095 0.029 0.165 0.037 0.139 0.018 0.276 0.107 0.416 0.139 0.652 0.151 1.288 0.378 1.94 0.536 0.438 0.106 0.87 0.243 1.291 0.4 0.223 0.084 0.393 0.177 0.6 0.3 0.137 0.083 0.283 0.155 0.424 0.233l-0-0.001c0.046 0.025 0.091 0.052 0.135 0.078 0.127 0.078 0.231 0.193 0.369 0.264 0.136 0.071 0.275 0.185 0.389 0.291 0.197 0.183 0.345 0.36 0.413 0.621 0.046 0.173 0.1 0.333 0.111 0.514 0.010 0.142 0.072 0.31 0.119 0.444 0.024 0.071 0.034 0.143 0.056 0.213 0.030 0.094 0.079 0.174 0.101 0.27 0.054 0.252 0.006 0.489 0.113 0.732 0.1 0.222 0.071 0.502 0.047 0.737-0.005 0.055-0.011 0.112-0.014 0.166-0.005 0.077-0.014 0.154-0.022 0.229-0.005-0.003-0.012-0.004-0.017-0.005-0.005 0.078-0.007 0.154-0.008 0.231 0 0.134-0.035 0.256-0.046 0.386-0.011 0.155-0.009 0.317-0.003 0.472 0.006 0.172 0.007 0.338 0.010 0.503 0.002 0.157 0.004 0.333 0.076 0.494 0.042 0.095 0.068 0.186 0.094 0.279 0.006 0.024 0.012 0.047 0.017 0.071-0.081-0.028-0.16-0.058-0.239-0.090-0.078-0.033-0.15-0.069-0.228-0.099-0.066-0.023-0.133-0.042-0.198-0.067-0.139-0.056-0.276-0.137-0.411-0.202-0.163-0.078-0.33-0.133-0.489-0.208 0.005-0.026 0.010-0.052 0.019-0.076 0.016-0.041 0.040-0.079 0.059-0.121 0.028-0.064 0.037-0.133 0.053-0.204 0.019-0.094 0.065-0.172 0.096-0.261 0.044-0.134 0.084-0.274 0.132-0.41 0.031-0.091 0.067-0.174 0.108-0.265 0.030-0.184 0.109-0.354 0.173-0.53 0.008-0.024 0.017-0.050 0.025-0.074-0.019-0.002-0.039-0.005-0.059-0.007 0.058-0.144 0.107-0.299 0.101-0.455-0.006-0.104-0.035-0.205-0.043-0.309-0.005-0.059-0.006-0.117 0-0.174 0.012-0.089 0.041-0.175 0.041-0.265 0.002-0.285-0.156-0.61-0.255-0.873-0.067-0.18-0.143-0.351-0.215-0.526-0.056-0.132-0.114-0.265-0.202-0.38-0.159-0.204-0.359-0.377-0.551-0.525-0.186-0.144-0.386-0.267-0.595-0.376-0.086-0.044-0.178-0.106-0.267-0.141-0.124-0.047-0.238-0.114-0.365-0.147-0.15-0.037-0.301-0.093-0.447-0.136-0.053-0.016-0.085-0.035-0.144-0.048-0.010-0.002-0.036-0.027-0.054-0.031-0.067-0.019-0.136-0.010-0.205-0.037-0.25-0.097-0.5-0.133-0.744-0.253-0.106-0.053-0.193-0.099-0.291-0.148-0.123-0.061-0.256-0.096-0.381-0.154-0.161-0.077-0.322-0.169-0.488-0.235-0.196-0.079-0.35-0.209-0.535-0.298-0.149-0.073-0.269-0.207-0.4-0.304-0.136-0.102-0.315-0.213-0.407-0.358zM7.759 7.072c0.070 0.036 0.146 0.018 0.22 0.032 0.046 0.009 0.103 0.040 0.145 0.069 0.073 0.050 0.143 0.139 0.204 0.205 0.082 0.086 0.151 0.199 0.215 0.299 0.047 0.076 0.053 0.165 0.096 0.238 0.029 0.050 0.072 0.092 0.099 0.147 0.109 0.213 0.236 0.417 0.358 0.623 0.108 0.183 0.252 0.333 0.372 0.506 0.077 0.108 0.137 0.226 0.215 0.332 0.049 0.067 0.102 0.13 0.16 0.19 0.085 0.089 0.179 0.159 0.283 0.226 0.132 0.086 0.299 0.27 0.464 0.282 0.002 0.009 0.005 0.020 0.085 0.070l-0 0c-0.072 0.091-0.114 0.163-0.166 0.264-0.028 0.050-0.042 0.113-0.068 0.167s-0.061 0.092-0.078 0.155c-0.018 0.062 0.003 0.102-0.078 0.088-0.025-0.002-0.088-0.047-0.114-0.060-0.070-0.031-0.141-0.059-0.209-0.090-0.244-0.114-0.435-0.311-0.633-0.485-0.124-0.109-0.251-0.216-0.366-0.335-0.149-0.154-0.311-0.324-0.425-0.504-0.070-0.113-0.084-0.25-0.149-0.365-0.073-0.13-0.086-0.255-0.137-0.393-0.024-0.065-0.070-0.128-0.089-0.195-0.037-0.121-0.089-0.253-0.099-0.389-0.006-0.080 0.002-0.134-0.029-0.204-0.033-0.073-0.038-0.105-0.047-0.185-0.006-0.061-0.028-0.115-0.043-0.175-0.018-0.064-0.041-0.13-0.065-0.185-0.028-0.064-0.036-0.114-0.058-0.177-0.014-0.045-0.086-0.1-0.064-0.149zM11.756 8.86c0.051-0.001 0.106 0.016 0.166 0.046 0.15 0.074 0.315 0.139 0.312 0.333-0.002 0.099 0.005 0.121-0.059 0.195-0.055 0.062-0.085 0.127-0.134 0.195-0.082 0.109-0.157 0.222-0.221 0.342-0.061 0.113-0.144 0.211-0.204 0.323-0.038 0.072-0.047 0.142-0.063 0.221-0.040 0.208-0.165 0.393-0.249 0.585-0.142 0.324-0.233 0.669-0.24 1.015-0.002 0.154-0.021 0.31 0.002 0.459 0.020 0.142 0.046 0.288 0.090 0.422 0.066 0.193 0.106 0.388 0.204 0.568 0.078 0.144 0.265 0.25 0.368 0.359 0.207 0.156 0.436 0.252 0.668 0.36 0.019-0.016 0.037-0.032 0.059-0.048 0.269 0.114 0.569 0.21 0.848 0.322 0.228 0.090 0.453 0.193 0.698 0.274 0.115 0.038 0.238 0.071 0.355 0.107 0.141 0.042 0.263 0.089 0.398 0.133 0.137 0.046 0.279 0.086 0.423 0.129 0 0.004 0 0.007-0.001 0.012 0.142 0.048 0.286 0.095 0.429 0.143 0.232 0.077 0.467 0.146 0.705 0.205 0.102 0.024 0.228 0.041 0.301 0.113 0.018 0.017 0.052 0.047 0.061 0.065 0.005 0.008-0.002 0.014-0.001 0.023 0.010 0.049-0.016 0.089-0.029 0.132-0.020 0.067-0.059 0.115-0.1 0.175-0.025 0.037-0.067 0.115-0.112 0.145-0.026-0.011-0.056-0.015-0.086-0.024-0.098-0.031-0.197-0.060-0.298-0.079-0.237-0.046-0.461-0.059-0.695-0.125-0.102-0.028-0.192-0.030-0.293-0.044-0.079-0.012-0.16-0.029-0.24-0.043-0.005-0.001-0.010-0.001-0.014-0.002-0.004 0.009-0.012 0.020-0.016 0.030-0.143-0.030-0.285-0.061-0.428-0.088-0.093-0.018-0.186-0.031-0.276-0.049-0.119-0.023-0.228-0.054-0.342-0.081-0.154-0.035-0.303-0.064-0.449-0.103-0.169-0.048-0.339-0.090-0.513-0.132-0.138-0.034-0.262-0.073-0.393-0.112 0.002 0.007 0.005 0.016 0.007 0.024 0.012 0.039 0.021 0.076 0.029 0.112-0.018-0.006-0.039-0.012-0.056-0.018-0.167-0.068-0.335-0.131-0.497-0.208-0.175-0.084-0.332-0.193-0.484-0.305-0.082-0.059-0.172-0.114-0.246-0.179l0.001-0c-0.091-0.079-0.183-0.159-0.268-0.241-0.244-0.232-0.447-0.517-0.548-0.817-0.018-0.151-0.031-0.306-0.043-0.462-0.022-0.293-0.010-0.578 0.047-0.879 0.050-0.268 0.13-0.53 0.202-0.812 0.066-0.138 0.112-0.288 0.177-0.431 0.043-0.097 0.085-0.198 0.132-0.298 0.079-0.168 0.168-0.333 0.256-0.497 0.040-0.076 0.043-0.12 0.053-0.198 0.011-0.077 0.065-0.135 0.077-0.21 0.012-0.074 0.018-0.121 0.047-0.193 0.050-0.127 0.118-0.239 0.15-0.367 0.005-0.025 0.026-0.075 0.034-0.1 0.014-0.038 0.021-0.084 0.041-0.12 0.028-0.055 0.052-0.135 0.086-0.184 0.052-0.080 0.11-0.113 0.175-0.115zM6.824 10.326c0.002 0.001 0.002 0.004 0.002 0.008-0.001-0.004-0.002-0.008-0.002-0.008zM11.851 10.877c0.056-0.005 0.061 0.062 0.099 0.117 0.072 0.103 0.213 0.159 0.322 0.203 0.13 0.050 0.253 0.073 0.39 0.116 0.124 0.038 0.253 0.046 0.369 0.111 0.036 0.020 0.068 0.047 0.108 0.062 0.048 0.018 0.108 0.013 0.145 0.054 0.090 0.097-0.053 0.394-0.094 0.493-0.050-0.006-0.101-0.008-0.15-0.020-0.184-0.040-0.344-0.113-0.536-0.108-0.149 0.004-0.257-0.018-0.384-0.068l0-0c-0.019-0.007-0.041-0.017-0.062-0.027-0.133-0.058-0.27-0.091-0.41-0.117-0.104-0.019-0.076-0.052-0.077-0.155-0.001-0.076 0.026-0.094 0.041-0.155 0.008-0.037-0.003-0.072 0.006-0.11 0.006-0.018 0.033-0.064 0.041-0.085 0.022-0.058 0.037-0.113 0.059-0.166 0.018-0.044 0.037-0.103 0.085-0.129 0.019-0.010 0.035-0.015 0.047-0.016zM14.766 11.877c0.108-0.003 0.255 0.040 0.31 0.050 0.095 0.015 0.183 0.053 0.276 0.076 0.124 0.033 0.241 0.093 0.358 0.149 0.098 0.047 0.207 0.066 0.305 0.117 0.071 0.035 0.141 0.082 0.208 0.126 0.321 0.209 0.679 0.351 0.997 0.565 0.151 0.101 0.27 0.257 0.36 0.407 0.049 0.083 0.094 0.169 0.147 0.251 0.047 0.075 0.125 0.138 0.166 0.216 0.046 0.084 0.097 0.203 0.109 0.298 0.006 0.060 0.002 0.118 0.017 0.172s0.019 0.094 0.019 0.155c0 0.197 0.023 0.407 0 0.602-0.019 0.168-0.063 0.333-0.073 0.503-0.009 0.121 0.014 0.243 0.013 0.364-0.002 0.072-0.013 0.145-0.010 0.219 0.002 0.070 0.022 0.14 0.024 0.21 0.005 0.113 0.037 0.238 0.018 0.346-0.007 0.044-0.005 0.084-0.005 0.129 0.001 0.089-0.034 0.166-0.049 0.251-0.013 0.066-0.008 0.133-0.023 0.199-0.011 0.054-0.030 0.107-0.040 0.161-0.012 0.061-0.016 0.124-0.019 0.186-0.315-0.103-0.628-0.217-0.945-0.321-0.008-0.003-0.018-0.006-0.028-0.009v-0.017c0.001-0.050 0.009-0.098 0.016-0.148 0.012-0.080 0.015-0.159 0.017-0.24 0.004-0.076 0.037-0.142 0.050-0.215 0.011-0.058 0.011-0.119 0.026-0.177 0.013-0.052 0.020-0.104 0.036-0.155 0.026-0.084 0.078-0.159 0.101-0.244 0.036-0.132 0.089-0.262 0.127-0.394 0.067-0.222-0.024-0.483 0.376-0.633-0.4 0-0.101-0.285-0.193-0.539-0.025-0.073-0.050-0.148-0.086-0.221-0.121-0.258-0.285-0.527-0.539-0.757-0.089-0.079-0.181-0.175-0.282-0.245-0.047-0.033-0.096-0.059-0.141-0.090-0.032-0.022-0.075-0.037-0.108-0.055-0.032-0.016-0.053-0.038-0.082-0.056-0.031-0.020-0.070-0.038-0.102-0.056-0.048-0.029-0.106-0.047-0.157-0.067-0.082-0.031-0.155-0.074-0.234-0.107l-0.001-0c-0.145-0.061-0.294-0.121-0.437-0.169-0.115-0.040-0.222-0.097-0.338-0.125-0.085-0.019-0.239-0.018-0.264-0.106-0.013-0.044 0.002-0.152 0.002-0.203s0.007-0.108 0.001-0.157c-0.007-0.052-0.029-0.067-0.042-0.114-0.025-0.096 0.035-0.127 0.119-0.129zM12.921 15.895c0.102 0.029 0.208 0.050 0.315 0.070 0.135 0.025 0.259 0.069 0.41 0.052 0.143 0.065 0.271 0.064 0.41 0.083 0.067 0.010 0.133 0.027 0.2 0.031 0.053 0.005 0.106 0.004 0.157 0.008 0.083 0.007 0.165 0.018 0.246 0.029 0.005 0.034 0.008 0.066 0.013 0.1 0.013 0.081 0.054 0.155 0.074 0.233 0.016 0.056 0.028 0.112 0.054 0.168 0.058 0.121 0.231 0.187 0.366 0.269 0.093 0.055 0.214 0.078 0.321 0.114 0.183 0.063 0.362 0.132 0.55 0.185 0.091 0.025 0.183 0.048 0.275 0.072 0.084 0.023 0.165 0.050 0.246 0.078 0.001-0.022 0.001-0.044 0.001-0.067 0.011 0.004 0.020 0.007 0.029 0.010 0.33 0.103 0.656 0.216 0.983 0.322 0.025 0.007 0.050 0.018 0.074 0.024 0.141 0.044 0.281 0.082 0.422 0.119 0.062 0.017 0.127 0.040 0.19 0.043 0.102 0.005 0.173 0.035 0.276 0.065 0.097 0.027 0.198 0.042 0.297 0.066 0.12 0.030 0.229 0.078 0.346 0.112 0.042 0.012 0.084 0.019 0.126 0.031 0.091 0.027 0.168 0.072 0.258 0.1 0.253 0.078 0.499 0.163 0.734 0.269 0.217 0.101 0.423 0.217 0.629 0.327 0.144 0.078 0.288 0.14 0.434 0.21 0.094 0.043 0.162 0.097 0.198 0.18 0.042 0.096 0.085 0.187 0.142 0.281 0.044 0.071 0.083 0.134 0.105 0.211 0.024 0.085 0.028 0.168 0.022 0.253-0.002 0.026-0.011 0.086 0.019 0.246-0.013-0.029-0.038-0.029-0.069-0.041-0.085-0.035-0.172-0.075-0.259-0.11-0.317-0.132-0.643-0.273-0.975-0.407-0.228-0.093-0.468-0.195-0.695-0.3-0.083-0.038-0.163-0.080-0.244-0.121-0.095-0.049-0.193-0.081-0.291-0.122-0.078-0.036-0.155-0.076-0.238-0.106-0.059-0.023-0.106-0.050-0.163-0.076-0.067-0.030-0.145-0.042-0.215-0.068-0.054-0.023-0.105-0.049-0.156-0.072-0.132-0.056-0.3-0.073-0.432-0.126-0.105-0.011-0.204-0.012-0.306-0.013-0.033-0.001-0.065-0.003-0.097-0.006-0.136-0.013-0.267-0.046-0.455-0.047-0.151-0.035-0.303-0.068-0.455-0.102-0.031-0.059-0.060-0.118-0.087-0.177-0.038-0.083-0.068-0.166-0.091-0.249 0.001 0.004 0.001 0.010 0.002 0.014 0.017 0.086 0.044 0.172 0.081 0.258 0.023 0.055 0.048 0.109 0.074 0.165-0.313-0.065-0.632-0.126-0.942-0.204-0.038-0.011-0.071-0.023-0.106-0.035-0.049-0.018-0.092-0.023-0.145-0.034-0.103-0.020-0.221-0.056-0.317-0.096-0.333-0.136-0.698-0.235-1.011-0.395-0.139-0.071-0.275-0.148-0.392-0.234l0-0c-0.041-0.030-0.089-0.058-0.125-0.090-0.055-0.050-0.083-0.116-0.114-0.173-0.102-0.184-0.192-0.368-0.312-0.549-0.055-0.086-0.094-0.178-0.151-0.263-0.046-0.070-0.098-0.137-0.141-0.207-0.058-0.1-0.074-0.204-0.094-0.307zM18.622 16.146c0.19 0.005 0.396 0.077 0.581 0.12 0.161 0.037 0.31 0.092 0.473 0.127 0.079 0.018 0.154 0.042 0.235 0.056 0.095 0.016 0.19 0.036 0.285 0.052 0.203 0.037 0.399 0.070 0.597 0.125 0.163 0.048 0.316 0.101 0.471 0.16 0.076 0.030 0.15 0.053 0.222 0.086h0c0.061 0.029 0.115 0.065 0.177 0.091 0.163 0.071 0.301 0.179 0.443 0.273 0.159 0.105 0.287 0.231 0.424 0.351 0.155 0.137 0.328 0.323 0.375 0.492 0.002 0.167 0.059 0.347 0.087 0.523 0.032 0.216 0.060 0.438 0.067 0.661 0.010 0.078 0.014 0.156 0.012 0.238-0.005 0.086-0.029 0.165-0.042 0.251-0.008 0.058-0.012 0.117-0.025 0.175-0.025 0.117-0.055 0.232-0.083 0.352-0.031 0.132-0.068 0.267-0.11 0.399-0.037 0.115-0.096 0.221-0.132 0.341-0.048 0.162-0.139 0.292-0.22 0.438-0.038 0.071-0.068 0.145-0.108 0.217-0.133 0.235-0.228 0.386-0.292 0.651-0.050 0.209-0.151 0.41-0.226 0.617-0.030 0.082-0.036 0.118-0.044 0.202-0.006 0.054-0.012 0.097-0.015 0.154-0.001 0.043 0.007 0.087 0.005 0.126-0.009 0.205 0.013 0.423 0.008 0.637-0.006 0.276-0.031 0.567-0.089 0.876-0.054 0.291-0.15 0.661-0.309 0.941-0.067 0.122-0.113 0.237-0.201 0.345-0.103 0.128-0.207 0.249-0.31 0.371-0.042 0.048-0.058 0.071-0.097 0.125-0.018 0.028-0.080 0.134-0.101 0.144-0.048 0.029-0.060-0.083-0.079-0.11-0.020-0.034-0.046-0.063-0.069-0.097-0.036-0.049-0.101-0.035-0.138-0.083-0.043-0.055-0.084-0.133-0.144-0.165-0.017 0.017-0.033 0.017-0.051-0.015 0.019 0.001 0.035 0.007 0.051 0.015 0.028-0.029 0.055-0.105 0.081-0.15s0.054-0.066 0.082-0.108c0.052-0.076 0.090-0.159 0.144-0.232 0.101-0.138 0.181-0.303 0.281-0.44 0.064-0.088 0.142-0.178 0.193-0.277 0.124-0.232 0.138-0.503 0.166-0.745 0.015-0.124-0.010-0.227-0.012-0.34-0.002-0.073-0.033-0.127-0.044-0.195-0.008-0.053-0.003-0.093-0.008-0.144-0.017-0.21-0.065-0.39-0.052-0.601 0.014-0.243 0.012-0.441 0.068-0.663 0.052-0.21 0.211-0.346 0.34-0.483 0.114-0.124 0.279-0.286 0.308-0.458 0.036-0.211 0.171-0.402 0.251-0.591 0.054-0.131 0.064-0.27 0.125-0.399 0.031-0.245 0.041-0.465 0.028-0.695-0.073-0.572-0.495-1.041-0.417-1.601-0.231-0.077-0.225-0.245-0.34-0.37-0.049-0.054-0.12-0.095-0.169-0.155-0.123-0.070-0.244-0.154-0.365-0.231-0.096-0.061-0.18-0.127-0.291-0.171-0.263-0.106-0.536-0.205-0.825-0.261-0.308-0.102-0.609-0.203-0.913-0.308-0.119-0.042-0.234-0.102-0.356-0.139-0.050-0.016-0.119-0.018-0.154-0.055-0.019-0.023 0-0.034 0.026-0.041-0.001-0.002-0.002-0.003-0.003-0.004-0.047-0.029-0.106-0.038-0.131-0.082-0.019-0.034-0.026-0.080-0.020-0.113 0.006-0.042 0.053-0.071 0.083-0.105 0.049-0.054 0.106-0.097 0.215-0.106 0.026-0.002 0.053-0.003 0.080-0.003zM16.989 18.673c0.214 0.056 0.42 0.096 0.634 0.133 0.066 0.011 0.126 0.023 0.186 0.031 0.012 0.035 0.023 0.070 0.037 0.103 0.056 0.132 0.154 0.258 0.253 0.384h0c0.119 0.15 0.249 0.288 0.402 0.428 0.102 0.091 0.202 0.193 0.333 0.261 0.050 0.028 0.105 0.046 0.157 0.070 0.077 0.037 0.146 0.082 0.229 0.106 0.066 0.019 0.132 0.029 0.197 0.058 0.068 0.029 0.131 0.054 0.198 0.080 0.197 0.078 0.389 0.189 0.567 0.293 0.281 0.162 0.539 0.36 0.819 0.49 0.084 0.040 0.225 0.067 0.249 0.173 0.010 0.040 0.005 0.099 0.004 0.138 0 0.048-0.007 0.109-0.024 0.155-0.018 0.052-0.065 0.062-0.151 0.168-0.078-0.022-0.155-0.047-0.235-0.046-0.094 0.001-0.191-0.026-0.285-0.061-0.122-0.046-0.252-0.090-0.372-0.155-0.162-0.087-0.33-0.201-0.494-0.283-0.107-0.11-0.24-0.189-0.365-0.281-0.294-0.22-0.589-0.434-0.879-0.677-0.149-0.16-0.347-0.305-0.512-0.462-0.073-0.071-0.131-0.145-0.198-0.219-0.049-0.053-0.107-0.103-0.157-0.155-0.118-0.121-0.241-0.241-0.346-0.365-0.1-0.121-0.178-0.242-0.247-0.366zM23.257 20.004c0.005-0.001 0.012 0.005 0.030 0.010 0.028 0.016 0.054 0.031 0.082 0.044 0.031 0.017 0.064 0.029 0.093 0.038 0.073 0.026 0.138 0.041 0.21 0.068 0.082 0.034 0.151 0.076 0.233 0.125l0-0c0.137 0.082 0.267 0.165 0.395 0.249 0.181 0.115 0.348 0.283 0.509 0.423 0.089 0.075 0.172 0.142 0.253 0.231 0.070 0.078 0.136 0.165 0.199 0.247 0.198 0.256 0.382 0.515 0.533 0.792 0.080 0.147 0.157 0.251 0.191 0.509-0.030 0.169-0.047 0.346-0.095 0.497-0.036 0.116-0.088 0.214-0.137 0.304-0.030 0.055-0.049 0.083-0.070 0.006-0.018-0.024-0.011-0.038-0.018-0.074-0.020-0.094-0.038-0.169-0.071-0.255-0.086-0.222-0.201-0.416-0.321-0.609-0.062-0.102-0.133-0.18-0.204-0.271-0.115-0.148-0.228-0.328-0.375-0.424-0.118-0.115-0.231-0.248-0.355-0.364-0.107-0.1-0.213-0.181-0.328-0.264-0.087-0.064-0.181-0.166-0.269-0.217-0.029-0.018-0.057-0.024-0.088-0.043-0.044-0.026-0.089-0.060-0.134-0.086-0.031-0.020-0.075-0.055-0.105-0.064-0.013-0.032-0.041-0.073-0.058-0.108-0.041-0.080-0.062-0.149-0.086-0.223-0.044-0.132-0.020-0.227-0.013-0.325 0.005-0.058-0.040-0.161-0.013-0.203 0.005-0.008 0.008-0.011 0.011-0.011zM22.783 21.755c0.010-0.002 0.023 0.005 0.044 0.023 0.095 0.079 0.186 0.17 0.27 0.27 0.056 0.067 0.112 0.101 0.168 0.155 0.049 0.047 0.092 0.118 0.139 0.169 0.051 0.056 0.091 0.11 0.132 0.181 0.056 0.092 0.12 0.163 0.167 0.265 0.1 0.219 0.162 0.484 0.233 0.715 0.022 0.070 0.046 0.134 0.063 0.209 0.017 0.064 0.025 0.144 0.043 0.201 0.007 0.027 0.020 0.039 0.027 0.066 0.010 0.034 0.011 0.080 0.017 0.118h0c0.016 0.088 0.028 0.162 0.032 0.262 0.007 0.113 0.019 0.275-0.028 0.412-0.072 0.214-0.199 0.413-0.297 0.567-0.103 0.162-0.203 0.246-0.273 0.101 0.025-0.146 0.023-0.255 0.017-0.378-0.017-0.363-0.059-0.711-0.16-1-0.037-0.108-0.083-0.201-0.127-0.304-0.035-0.079-0.065-0.167-0.105-0.241-0.038-0.072-0.077-0.148-0.124-0.207-0.031-0.042-0.066-0.073-0.097-0.121-0.119-0.187-0.255-0.346-0.394-0.529-0.046-0.059-0.086-0.062-0.062-0.152 0.035-0.127 0.081-0.257 0.128-0.368 0.049-0.12 0.119-0.214 0.155-0.346 0.010-0.038 0.015-0.064 0.031-0.067zM4.924 23.226c0.005-0.002 0.011 0.011 0.017 0.043 0.020 0.101 0.020 0.266 0 0.367s-0.036 0.018-0.036-0.184c0-0.139 0.008-0.221 0.019-0.227z"></path>
</svg>
