<!-- Generated by IcoMoon.io -->
<svg version="1.1" xmlns="http://www.w3.org/2000/svg" width="32" height="32" viewBox="0 0 32 32">
<title>return_to_union_and_disillusion</title>
<path d="M13.472 17.849c0.081-0.045 0.166-0.081 0.207-0.099l0.046-0.019c0.012-0.004-0.003 0.004 0.043-0.023l0.193-0.111c0.063-0.035 0.127-0.072 0.206-0.112 0.149-0.076 0.254-0.113 0.341-0.153l0.386-0.173 0.374-0.152c0.127-0.050 0.256-0.098 0.388-0.142l0.199-0.064 0.188-0.054c0.227-0.069 0.489-0.169 0.755-0.25l0.348-0.114c0.023-0.008 0.041-0.019 0.045-0.019 0.001 0.004 0.015-0.012 0.061-0.052 0.173-0.127 0.066-0.019 0.13-0.090 0.048-0.056 0.090-0.1 0.115-0.133l0.019-0.027 0.019-0.038 0.041-0.080c0.035-0.067 0.077-0.22 0.116-0.339l0.048-0.18 0.045-0.192c0.035-0.132 0.070-0.261 0.076-0.349 0.008-0.097-0.015-0.218-0.023-0.365-0.008-0.103-0.038-0.209-0.076-0.326-0.080-0.241-0.176-0.491-0.246-0.778l-0.023-0.11-0.012-0.056c-0.003-0.019-0.004-0.023-0.008-0.035l-0.048-0.164c-0.019-0.066-0.038-0.146-0.050-0.239l-0.027-0.219-0.015-0.106c-0.008-0.004-0.001-0.149 0.019-0.218 0.042-0.159 0.101-0.252 0.141-0.326l0.015-0.027c0.004-0.008 0.004-0.012 0.019-0.031 0.019-0.031 0.040-0.055 0.055-0.076 0.031-0.041 0.050-0.064 0.050-0.070l-0.008 0.004 0.012-0.031 0.035-0.072c0.019-0.041 0.053-0.11 0.086-0.173l0.102-0.19c0.051-0.097 0.078-0.153 0.123-0.269 0.038-0.092 0.079-0.168 0.115-0.23l0.093-0.163c0.031-0.057 0.068-0.121 0.112-0.19 0.023-0.035 0.046-0.070 0.072-0.107 0.023-0.035 0.057-0.079 0.080-0.103l0.149-0.167 0.075-0.083c0.023-0.027 0.049-0.054 0.086-0.089 0.135-0.128 0.256-0.213 0.346-0.283l0.063-0.048 0.085-0.062 0.175-0.126 0.175-0.125 0.17-0.115 0.237-0.156-0.339-0 0.419-0.183-0.143-0.085-1.686-0.397-1.113-0.289-1.058-0.26-1.097 0.269-1.098 0.144-1.051 0.377-1.061 0.294-0.873 0.655-1.237 1.063-0.8 1.433-0.852 1.409-0.314 1.576 0.001 1.63 0.249 1.597 0.64 1.494 0.881 1.41 0.951 1.363 0.917 0.525-0.038-0.274 0.274 0.282c0.027-0.078 0.052-0.16 0.076-0.253l0.023-0.086 0.012-0.044 0.004-0.027c0.008-0.038 0.012-0.079 0.015-0.126 0.012-0.096 0.019-0.216 0.031-0.362l0.047-0.407 0.047-0.379c0.035-0.25 0.073-0.507 0.109-0.751 0.038-0.247 0.074-0.527 0.152-0.826l0.090-0.32c0.008-0.012 0.008-0.064 0.027-0.19 0.004-0.031 0.012-0.067 0.023-0.108l0.015-0.057 0.008-0.023 0.039-0.11c0.058-0.154 0.144-0.368 0.331-0.569 0.045-0.049 0.098-0.096 0.152-0.138 0.043-0.035 0.084-0.060 0.13-0.089 0.046-0.027 0.093-0.055 0.159-0.086l0.027-0.012 0.008-0.003 0.012-0.004 0.027-0.012c0.073-0.031 0.178-0.095 0.321-0.172z"></path>
<path d="M25.337 19.488l-0.503 1.254-0.698 1.161-0.903 1.011-1.012 0.907-1.206 0.628-1.243 0.529-1.3 0.422-1.368 0.086-1.374-0.165-1.335-0.334-1.293-0.499 0.145-0.294 0.212-0.213 0.33-0.557 0.096-0.774 0.13-1.294 0.053-0.916 0.24-0.368-0.038-0.24 0.205-0.592 0.188-0.127 0.416-0.256 0.312-0.122 0.304-0.18 0.402-0.206 0.303-0.274 1.073-0.279 0.764-0.31 0.283-0.193 0.155-0.154 0.065-0.185 0.229 0.019 0.139-0.23-0.071-0.273 0.075-0.264 0.090-0.294 0.291-0.348-0.12-0.48-0.189-0.596 0.14-0.705-0.088-0.444-0.182-0.302 0.283-0.215 0.019-0.235 0.274-0.088 0.080-0.331 0.135-0.337 0.091-0.349 0.291-0.314 0.307-0.233 0.344-0.405 0.508-0.31 0.244-0.35 0.279-0.107 0.067-0.205 0.942 1.095 1.165 0.853 0.733 1.23 0.345 1.381 0.473 1.32-0.023 1.401 0.141 1.359zM12.992 22.955l-0.023 0.065-0.019 0.048-0.038 0.098c-0.054 0.133-0.116 0.28-0.195 0.422l-0.223 0.38c-0.099 0.149-0.207 0.268-0.306 0.372l-0.143 0.145c-0.052 0.051-0.104 0.101-0.156 0.149-0.106 0.097-0.213 0.191-0.326 0.276-0.112 0.086-0.223 0.167-0.349 0.251-0.246 0.164-0.502 0.284-0.75 0.389-0.249 0.107-0.485 0.199-0.748 0.296-0.266 0.090-0.536 0.135-0.785 0.184l-0.065-0.118c0.224-0.17 0.446-0.301 0.639-0.458 0.191-0.155 0.399-0.336 0.599-0.493 0.198-0.163 0.382-0.324 0.539-0.489 0.074-0.081 0.156-0.175 0.231-0.269 0.075-0.095 0.149-0.186 0.218-0.282 0.035-0.047 0.068-0.095 0.1-0.143l0.075-0.108-1.229-0.741-1.43-1.153-0.929-1.598-0.974-1.609-0.071-1.532-0.169-1.437 0.031-1.531 0.535-1.415 0.606-1.392 1.66-1.897 0.949-0.751 1.018-0.748 1.235-0.468 1.201-0.165 1.805-0.345 1.793 0.335 1.284 0.070 1.499 1.112 0.489 0.168c0.035-0.023 0.072-0.049 0.103-0.073 0.096-0.079 0.212-0.176 0.326-0.256 0.058-0.041 0.117-0.082 0.177-0.12l0.162-0.104c0.104-0.068 0.212-0.135 0.321-0.201 0.085-0.050 0.185-0.151 0.316-0.241 0.064-0.043 0.119-0.065 0.164-0.094 0.066-0.053 0.127-0.074 0.167-0.103l0.111 0.077c-0.035 0.078-0.086 0.13-0.103 0.177-0.040 0.070-0.088 0.127-0.119 0.173-0.058 0.089-0.1 0.209-0.198 0.343-0.083 0.109-0.168 0.216-0.256 0.324-0.042 0.052-0.091 0.112-0.129 0.156-0.039 0.045-0.076 0.092-0.114 0.139-0.076 0.097-0.141 0.186-0.222 0.297-0.101 0.128-0.208 0.233-0.301 0.328l-0.068 0.069-0.046 0.046-0.001 0.004c-0.008 0.012-0.040 0.064-0.116 0.147-0.035 0.038-0.103 0.095-0.116 0.108l-0.074 0.067-0.148 0.133-0.547 0.502c-0.109 0.098-0.194 0.172-0.241 0.229l-0.096 0.12-0.105 0.128c-0.019 0.023-0.023 0.035-0.038 0.052l-0.035 0.056-0.081 0.147-0.163 0.29-0.047 0.1c-0.019 0.038-0.038 0.074-0.058 0.111-0.039 0.072-0.091 0.148-0.132 0.207l-0.214 0.303-0.067 0.096-0.038 0.052c-0.023 0.031-0.048 0.060-0.069 0.082-0.041 0.043-0.069 0.066-0.080 0.074l-0.004-0.001-0.023 0.023c-0.035 0.031-0.045 0.049-0.041 0.015 0.003-0.008 0.003-0.086-0.003-0.027l-0.012 0.088-0.015 0.089c-0.004 0.027-0.008 0.068-0.012 0.080-0.008 0.035-0.012 0.085-0.012 0.147s0.003 0.136 0.001 0.221c-0.001 0.019-0.001 0.047-0.003 0.060l-0.004 0.041-0.004 0.084c-0.012 0.227 0.015 0.482 0.046 0.746 0.015 0.136 0.031 0.287 0.019 0.443-0.008 0.111-0.004 0.25-0.027 0.41-0.027 0.17-0.081 0.285-0.111 0.404l-0.098 0.38-0.054 0.183-0.027 0.099c-0.012 0.044-0.027 0.083-0.041 0.117l-0.042 0.095-0.023 0.052c-0.012 0.019-0.019 0.040-0.031 0.058-0.047 0.076-0.091 0.129-0.122 0.175-0.015 0.023-0.052 0.076-0.109 0.118l-0.038 0.027-0.019 0.012-0.004 0.004h0.004c-0.004 0.004-0.031 0.040-0.079 0.084-0.047 0.040-0.085 0.062-0.121 0.083l-0.368 0.2c-0.22 0.107-0.418 0.253-0.668 0.394l-0.172 0.098-0.157 0.096c-0.104 0.066-0.208 0.135-0.312 0.206l-0.611 0.423c-0.134 0.098-0.264 0.174-0.341 0.229l-0.125 0.094-0.137 0.098c-0.012 0.004-0.076 0.059-0.12 0.086-0.047 0.031-0.088 0.055-0.124 0.075-0.075 0.042-0.108 0.061-0.139 0.083-0.082 0.054-0.191 0.139-0.348 0.23l-0.061 0.035-0.046 0.023 0.004-0.001-0.008 0.012-0.027 0.027 0.012-0.003c0.012-0.008-0.004 0.023-0.027 0.114l-0.019 0.076-0.004 0.023 0.008-0.023c0.001 0.001 0 0.023-0.001 0.054l-0.003 0.062-0.008 0.080c-0.023 0.203-0.068 0.346-0.083 0.437-0.038 0.206-0.063 0.441-0.095 0.706-0.035 0.269-0.078 0.523-0.121 0.784l-0.069 0.389c-0.023 0.129-0.050 0.267-0.070 0.361-0.023 0.111-0.041 0.248-0.075 0.407-0.015 0.080-0.039 0.165-0.068 0.252zM30.201 17.42c-0.035-0.1-0.074-0.203-0.078-0.306-0.004-0.088 0.069-0.183 0.055-0.266-0.043-0.249-0.111-0.492-0.17-0.738-0.015 0.003-0.035 0.008-0.050 0.008-0.004 0.049-0.008 0.098-0.015 0.146-0.052-0.081-0.092-0.166-0.088-0.249 0.012-0.231 0.043-0.461 0.064-0.692 0.031-0.369 0.085-0.732-0.045-1.103-0.146-0.414-0.264-0.84-0.286-1.285-0.008-0.165-0.035-0.33-0.058-0.494-0.019-0.129-0.042-0.257-0.070-0.384-0.019-0.077-0.052-0.15-0.075-0.227-0.035-0.117-0.071-0.233-0.097-0.352-0.008-0.041 0.031-0.1 0.012-0.129-0.165-0.266-0.197-0.572-0.284-0.862-0.012-0.042-0.027-0.090-0.053-0.122-0.123-0.143-0.254-0.281-0.377-0.424-0.023-0.027-0.027-0.073-0.050-0.146-0.199-0.226-0.442-0.469-0.644-0.741-0.28-0.376-0.528-0.776-0.793-1.163-0.045-0.065-0.104-0.121-0.157-0.181-0.119-0.137-0.238-0.274-0.362-0.416 0.035-0.015 0.053-0.023 0.070-0.031-0.263-0.357-0.526-0.714-0.792-1.075-0.015 0.045-0.027 0.081-0.039 0.116-0.012 0.003-0.023 0.004-0.038 0.008-0.060-0.144-0.133-0.284-0.177-0.432-0.038-0.126-0.098-0.205-0.221-0.254-0.082-0.035-0.153-0.094-0.223-0.15-0.064-0.051-0.112-0.123-0.179-0.17-0.187-0.132-0.371-0.272-0.572-0.379-0.286-0.151-0.505-0.371-0.723-0.599-0.119-0.124-0.234-0.252-0.357-0.373-0.041-0.040-0.096-0.080-0.151-0.092-0.381-0.085-0.762-0.161-1.143-0.244-0.063-0.015-0.129-0.035-0.18-0.072-0.19-0.135-0.369-0.285-0.563-0.413-0.227-0.151-0.464-0.288-0.699-0.426-0.118-0.070-0.235-0.159-0.364-0.188-0.371-0.083-0.747-0.141-1.122-0.206-0.039-0.008-0.081 0.001-0.121 0.008-0.132 0.015-0.271 0.067-0.395 0.043-0.377-0.072-0.722 0.049-1.070 0.146-0.18 0.051-0.326 0.004-0.474-0.072-0.019-0.008-0.015-0.067-0.023-0.143-0.29-0.061-0.612-0.147-0.94-0.19-0.195-0.027-0.399 0.019-0.6 0.027-0.085 0.004-0.174 0.012-0.256-0.008-0.149-0.035-0.295-0.121-0.443-0.123-0.259-0.001-0.519 0.056-0.779 0.066-0.116 0.004-0.136 0.119-0.218 0.139-0.152 0.038-0.31 0.056-0.466 0.082-0-0.004-0.001-0.012-0.001-0.015 0.039-0.019 0.078-0.039 0.145-0.072-0.299-0.058-0.361-0.038-0.53 0.145-0.027 0.031-0.055 0.070-0.090 0.080-0.189 0.058-0.314 0.213-0.484 0.299-0.058 0.031-0.112 0.068-0.166 0.106-0.116 0.081-0.219 0.192-0.348 0.239-0.402 0.148-0.813 0.271-1.221 0.405-0.082 0.027-0.163 0.058-0.245 0.088 0.004 0.015 0.008 0.027 0.012 0.043l0.226-0.043c0.008 0.015 0.012 0.027 0.019 0.040-0.075 0.039-0.146 0.095-0.226 0.114-0.117 0.027-0.241 0.195-0.362 0.001-0.004-0.008-0.040-0.003-0.058 0.003-0.351 0.113-0.712 0.208-1.009 0.441-0.154 0.121-0.287 0.291-0.461 0.357-0.221 0.083-0.377 0.223-0.534 0.379-0.027 0.027-0.063 0.047-0.095 0.071-0.18 0.137-0.367 0.264-0.535 0.413-0.104 0.093-0.178 0.218-0.269 0.335-0.068-0.080-0.087-0.104-0.134-0.159-0.104 0.118-0.194 0.227-0.292 0.329-0.273 0.286-0.519 0.597-0.852 0.821-0.061 0.041-0.104 0.109-0.15 0.168-0.148 0.193-0.288 0.39-0.439 0.58-0.334 0.421-0.674 0.838-0.895 1.334-0.035 0.077-0.095 0.142-0.146 0.211-0.008 0.008-0.023 0.015-0.047 0.027 0.008-0.045 0.015-0.078 0.023-0.112-0.084 0.055-0.159 0.119-0.184 0.199-0.098 0.31-0.18 0.625-0.266 0.938-0.056 0.202-0.084 0.416-0.168 0.605-0.18 0.406-0.384 0.802-0.587 1.197-0.042 0.081-0.148 0.13-0.183 0.212-0.076 0.178-0.143 0.362-0.183 0.551-0.073 0.351-0.121 0.707-0.187 1.060-0.019 0.098-0.082 0.188-0.093 0.286-0.065 0.554-0.027 1.121-0.214 1.661-0.126 0.364-0.068 0.753 0.001 1.106 0.114 0.581 0.121 1.159 0.133 1.743 0.003 0.142 0.058 0.285 0.105 0.422 0.089 0.255 0.19 0.506 0.285 0.76 0.008 0.023 0.015 0.049 0.008 0.070-0.031 0.108-0.057 0.224 0.049 0.295 0.2 0.135 0.262 0.323 0.256 0.547-0.001 0.035 0.012 0.070 0.019 0.104 0.101 0.596 0.346 1.141 0.628 1.668 0.178 0.333 0.388 0.65 0.58 0.976 0.090 0.152 0.174 0.307 0.258 0.462 0.087 0.16 0.143 0.344 0.261 0.476 0.225 0.253 0.471 0.49 0.732 0.706 0.296 0.246 0.631 0.436 0.855 0.772 0.156 0.235 0.411 0.403 0.594 0.624 0.291 0.349 0.556 0.72 0.84 1.075 0.051 0.063 0.14 0.126 0.217 0.135 0.242 0.027 0.486 0.035 0.73 0.035 5.168-0.019 10.337-0.042 15.506-0.065 0.112-0.001 0.224 0 0.335-0.012 0.045-0.004 0.104-0.027 0.129-0.060 0.239-0.319 0.471-0.643 0.707-0.964 0.035-0.047 0.078-0.092 0.125-0.126 0.175-0.126 0.354-0.246 0.531-0.369 0.031-0.023 0.062-0.056 0.098-0.065 0.422-0.103 0.768-0.294 0.918-0.735 0.052-0.152 0.124-0.298 0.2-0.441 0.108-0.205 0.211-0.415 0.346-0.602 0.247-0.345 0.515-0.674 0.772-1.013 0.042-0.055 0.075-0.12 0.1-0.185 0.292-0.768 0.582-1.535 0.969-2.264 0.104-0.196 0.161-0.45 0.142-0.669-0.040-0.47 0.004-0.912 0.214-1.335 0.031-0.058 0.049-0.121 0.075-0.182 0.106-0.254 0.196-0.516 0.325-0.758 0.062-0.117 0.116-0.213 0.072-0.344z"></path>
<path d="M8.057 27.833c0.126 0.116 0.249 0.234 0.379 0.347 0.043 0.038 0.102 0.074 0.16 0.085 0.404 0.079 0.81 0.151 1.215 0.228 0.066 0.015 0.137 0.035 0.192 0.067 0.202 0.125 0.392 0.265 0.597 0.385 0.241 0.14 0.493 0.268 0.743 0.396 0.125 0.065 0.249 0.148 0.387 0.175 0.394 0.078 0.794 0.131 1.191 0.192 0.041 0.008 0.086-0.001 0.128-0.004 0.14-0.015 0.288-0.062 0.42-0.040 0.4 0.067 0.767-0.046 1.136-0.136 0.191-0.047 0.346-0.004 0.504 0.067 0.019 0.008 0.015 0.062 0.027 0.133 0.308 0.056 0.65 0.137 0.999 0.177 0.207 0.023 0.424-0.019 0.637-0.027 0.091-0.004 0.185-0.012 0.272 0.008 0.159 0.031 0.314 0.113 0.471 0.114 0.275 0.001 0.551-0.052 0.827-0.062 0.124-0.004 0.145-0.11 0.231-0.129 0.162-0.035 0.329-0.052 0.494-0.076 0.001 0.004 0.001 0.008 0.001 0.015-0.042 0.019-0.083 0.038-0.154 0.067 0.318 0.054 0.383 0.035 0.564-0.135 0.031-0.027 0.058-0.065 0.095-0.074 0.201-0.054 0.334-0.199 0.514-0.279 0.062-0.027 0.119-0.063 0.176-0.098 0.123-0.075 0.233-0.179 0.369-0.223 0.427-0.138 0.864-0.253 1.297-0.377 0.087-0.027 0.173-0.055 0.26-0.082-0.004-0.015-0.008-0.027-0.012-0.040-0.080 0.015-0.16 0.027-0.24 0.040-0.008-0.012-0.015-0.027-0.019-0.038 0.080-0.035 0.155-0.088 0.24-0.106 0.124-0.027 0.256-0.182 0.384-0.001 0.004 0.008 0.041 0.003 0.061-0.003 0.373-0.106 0.756-0.193 1.073-0.41 0.163-0.112 0.304-0.271 0.489-0.332 0.136-0.045 0.247-0.108 0.349-0.181h-16.888c0.154 0.109 0.294 0.231 0.432 0.358z"></path>
</svg>
