<!-- Generated by IcoMoon.io -->
<svg version="1.1" xmlns="http://www.w3.org/2000/svg" width="34" height="32" viewBox="0 0 34 32">
<title>return_to_the_dunwich_legacy</title>
<path d="M9.271 20.366v4.326l2.886-2.163-2.886-2.163z"></path>
<path d="M10.062 25.018h5.414l-2.707-2.029-2.708 2.029z"></path>
<path d="M15.534 19.998h-5.529l2.764 2.072 2.764-2.072z"></path>
<path d="M12.604 17.666c0.791 0 1.433-0.641 1.433-1.433s-0.642-1.432-1.433-1.432-1.433 0.641-1.433 1.432c0 0.792 0.642 1.433 1.433 1.433z"></path>
<path d="M16.116 24.578v-4.098l-2.734 2.049 2.734 2.050z"></path>
<path d="M26.333 7.981v17.747h-6.844v-9.365l-1.79-2.87-5.1-3.412-4.926 3.44-1.969 3.31-0.665-0.444 2.121-3.526 0.035 0.023-0.004-0.008 5.373-3.656 0.014-0.027 5.606 3.656-0.004 0.008 0.035-0.023 1.275 2.032v-6.491c-0.021-0.132-0.035-0.266-0.035-0.403 0-1.652 1.539-2.992 3.439-2.992s3.44 1.34 3.44 2.992c0 0.003-0.001 0.008-0.001 0.011h0.001zM18.512 25.728h-12.005v-9.248l1.569-2.408 4.529-3.214 4.611 3.187 1.359 2.355-0.063 9.327zM17 1c-8.56 0-15.499 6.939-15.499 15.499s6.94 15.501 15.499 15.501c8.561 0 15.5-6.939 15.5-15.501s-6.939-15.499-15.501-15.499z"></path>
</svg>
