<!-- Generated by IcoMoon.io -->
<svg version="1.1" xmlns="http://www.w3.org/2000/svg" width="34" height="32" viewBox="0 0 34 32">
<title>return_to_the_essex_county_express</title>
<path d="M18.492 19.64c0.462 0.020 0.927-0.073 1.405-0.052-0.017-0.045-0.033-0.089-0.047-0.134-0.045-0.15-0.069-0.345-0.083-0.553-0.207-0.001-0.413-0.005-0.619-0.005-0.964-0.001-1.895-0.104-2.87-0.104-0.194 0.001-1.278 0.060-2.36 0.078-0.011 0.075-0.022 0.15-0.026 0.224-0.010 0.174 0.049 0.335 0.026 0.458 0.522-0.014 1.048-0.039 1.554-0.039 0.564 0 1.137 0.027 1.7-0.006 0.449-0.026 0.898 0.112 1.321 0.131z"></path>
<path d="M15.107 25.499c0.026-0.537-0.032-1.062 0.072-1.587 0.062-0.309 0.033-1.678 0.13-2.201-0.193-0.020-0.383-0.039-0.574-0.053-0.115 0.387-0.286 0.771-0.351 1.16-0.135 0.815-0.263 1.566-0.358 2.414-0.065 0.574-0.466 1.016-0.645 1.557-0.045 0.135-0.115 0.789-0.325 0.93 0.094 0.056 0.183 0.117 0.285 0.166 0.256 0.122 0.507 0.16 0.799 0.214 0.134 0.024 0.263 0.050 0.391 0.079-0.117-0.275 0.19-1.005 0.258-1.216 0.151-0.471 0.295-0.966 0.319-1.462z"></path>
<path d="M18.642 26.139c-0.066-0.84-0.307-1.628-0.361-2.458-0.023-0.366-0.15-0.668-0.246-1.035-0.046-0.177-0.026-0.691-0.122-0.963-0.174-0.035-0.348-0.069-0.524-0.073 0.022 0.288-0.055 0.538-0.081 0.816-0.032 0.337 0.124 0.653 0.132 0.997 0.013 0.451-0.216 0.918-0.24 1.433-0.045 0.956 0.265 1.898 0.261 2.864-0.001 0.321 0.091 0.678 0.037 0.993-0.014 0.081-0.043 0.154-0.075 0.227 0.314-0.050 0.636-0.127 0.898-0.197 0.268-0.072 0.54-0.153 0.812-0.24-0.059-0.199-0.115-0.471-0.167-0.679-0.134-0.528-0.281-1.131-0.324-1.685z"></path>
<path d="M16.949 28.235c0.010-0.237-0.093-0.452-0.14-0.682-0.068-0.348-0.035-0.718-0.073-1.069-0.019-0.176 0.023-0.358 0.002-0.534-0.008-0.079-0.071-0.219-0.068-0.286 0.005-0.111 0.105-0.222 0.102-0.318-0.007-0.281-0.141-0.491-0.065-0.783 0.047-0.183 0.163-0.324 0.177-0.521 0.036-0.505-0.037-1.088-0.083-1.596-0.024-0.262-0.010-0.511-0.101-0.761-0.001-0.005-0.002-0.007-0.005-0.012-0.271 0.037-0.545 0.076-0.828 0.075-0.007 0-0.013 0-0.020 0 0.017 0.227-0.068 0.525-0.092 0.623-0.14 0.557 0.039 1.16 0.035 1.743-0.005 0.721-0.296 1.32-0.436 2.002-0.108 0.534-0.296 1.010-0.391 1.562-0.019 0.114-0.049 0.426-0.142 0.569 0.305 0.076 0.603 0.168 0.907 0.299 0.377 0.163 0.715 0.449 1.147 0.448 0.046 0 0.092-0.003 0.14-0.006-0.009-0.053-0.022-0.107-0.033-0.161-0.048-0.235-0.043-0.338-0.033-0.59z"></path>
<path d="M24.152 27.030c-0.042-0.006-0.088-0.014-0.132-0.020-0.967 0.446-1.998 0.897-3.054 1.193-0.917 0.258-1.772 0.603-2.674 0.868-0.311 0.091-0.481 0.194-0.756 0.337-0.272 0.141-0.344 0.083-0.656 0.092-0.063-0.098-0.617-0.25-0.807-0.338-0.271-0.125-0.557-0.189-0.855-0.271-0.75-0.209-1.478-0.439-2.202-0.717-0.612-0.235-1.248-0.35-1.838-0.61-0.295-0.131-1.177-0.21-1.039-0.661 0.016-0.013 0.029-0.020 0.043-0.027-0.050-0.151 0.058-0.394 0.094-0.528 0.105-0.38 0.278-0.757 0.389-1.141 0.086-0.295 0.223-0.564 0.315-0.863 0.062-0.199 0.040-0.442 0.122-0.633 0.109-0.259 0.252-0.461 0.37-0.721 0.089-0.203 0.026-0.353 0.088-0.532 0.042-0.119 0.262-0.459 0.413-0.671-0.615 0.029-1.241 0.148-1.834 0.093-0.127-0.399-0.071-0.779-0.043-1.199 0.011-0.18-0.083-0.42-0.082-0.571 0.003-0.14 0.186-0.37 0.154-0.456 0.002-0.111-0.065-0.083-0.148-0.137 0.629-0.222 1.464-0.065 2.119 0.003 0.317 0.032 0.642 0.043 0.97 0.046 0.011-0.229 0.011-0.466 0.068-0.689-0.907-0.007-1.654-0.066-1.635-0.248 0.076-0.010 0.236-0.049 0.107-0.142 0.573 0.020 1.115-0.093 1.688-0.17 0.043-0.154 0.086-0.309 0.127-0.465 0.086-0.335 0.007-0.809 0.017-1.238-0.117-0.125-0.219-0.268-0.318-0.445-0.409-0.73-0.718-1.349-0.819-2.188-0.076-0.639-0.242-1.556 0.068-2.142 0.325-0.616 0.759-1.025 1.281-1.38 0.285-0.194 0.577-0.314 0.866-0.497 0.248-0.158 0.409-0.364 0.695-0.488 0.024-0.184 0.135-0.315 0.203-0.502 0.076-0.213 0.069-0.249 0.073-0.499-0.066 0.013-0.16-0.023-0.225-0.011-0.088-0.324-0.024-0.655-0.037-0.979-0.007-0.183-0.029-0.92 0.309-0.567 0.040-0.216 0.115-0.492 0.117-0.699 0.001-0.281-0.154-0.524 0-0.793 0.007 0.003 0.009 0.007 0.013 0.010-0.023-0.039-0.036-0.076-0.081-0.119 0.438-0.040 0.874 0.023 1.327 0.001 0.286-0.013 0.743 0.085 0.986-0.002 0.35 0.321-0.013 1.19 0.045 1.573 0.358 0.037 0.279 1.212 0.186 1.539-0.055-0.007-0.13 0.019-0.184 0.011-0.073 0.825 0.964 1.38 1.57 1.767 0.479 0.307 0.652 0.576 0.938 1.051 0.209 0.348 0.489 0.626 0.684 1.003 0.288 0.557-0.107 0.934-0.007 1.507 0.053 0.312 0.252 0.462 0.197 0.822-0.040 0.269-0.158 0.55-0.227 0.823-0.148 0.589-0.415 0.839-0.931 1.182-0.016 0.010-0.030 0.022-0.046 0.032 0.013 0.108 0.013 0.224 0.036 0.331 0.072 0.343 0.214 0.521 0.377 0.836 0.049 0.095 0.085 0.199 0.112 0.307 0.783-0.012 1.628 0.068 1.845 0.59-0.328 0.144-0.832 0.15-1.19 0.18-0.186 0.014-0.371 0.024-0.558 0.030 0.014 0.25 0.027 0.499 0.073 0.721 0.374-0.006 0.747-0.032 1.115-0.073 0.72-0.082 1.445-0.161 2.144-0.263 0 0.471-0.197 0.889-0.174 1.387 0.012 0.223 0.104 0.452 0.144 0.702 0.024 0.158-0.012 0.279 0.068 0.407-0.317-0.065-0.685-0.196-1.036-0.137-0.222 0.039-0.416 0.158-0.642 0.177-0.164 0.014-0.324 0-0.482-0.026 0.324 0.416 0.547 0.912 0.796 1.369 0.266 0.491 0.574 0.977 0.76 1.511 0.246 0.71 0.897 1.589 0.603 2.359zM15.549 3.714c0.449 0 0.901-0.017 1.349 0.003 0.661 0.029 1.326 0.043 1.99 0.033-0.104 0.213-0.288 0.453-0.433 0.661-0.109 0.155-0.273 0.551-0.413 0.646-0.22 0.148-0.704 0.020-0.963 0.009-0.446-0.023-1.203-0.189-1.573 0.032-0.167-0.285-0.482-1.123-0.699-1.114 0.030 0.006 0.043-0.035 0.035-0.071-0.117-0.029-0.226-0.118-0.304-0.201 0.268 0.125 0.705 0.001 1.012 0.002zM32.204 17.3c0.046-0.273-0.13-0.54-0.295-0.779v0.161c-0.019 0.001-0.037 0.002-0.056 0.005-0.008-0.131-0.042-0.265-0.020-0.391 0.071-0.412 0.167-0.82 0.24-1.233 0.020-0.115 0.014-0.243-0.013-0.358-0.091-0.379-0.194-0.756-0.301-1.133-0.088-0.311-0.176-0.623-0.282-0.928-0.065-0.183-0.16-0.354-0.252-0.527-0.036-0.069-0.101-0.125-0.15-0.189-0.020-0.029-0.035-0.063-0.046-0.096-0.069-0.193 0.088-0.393-0.022-0.589-0.037-0.066-0.058-0.145-0.068-0.22-0.027-0.216-0.046-0.433-0.071-0.649-0.005-0.037-0.014-0.078-0.036-0.107-0.118-0.166-0.243-0.327-0.36-0.495-0.020-0.029-0.010-0.079-0.014-0.137-0.269-0.242-0.391-0.623-0.676-0.897-0.255-0.246-0.417-0.59-0.62-0.891-0.135-0.197-0.275-0.39-0.406-0.59-0.114-0.174-0.301-0.291-0.318-0.544-0.010-0.137-0.157-0.281-0.273-0.389-0.232-0.217-0.485-0.412-0.73-0.616-0.005 0.037-0.010 0.079-0.014 0.121-0.016 0.007-0.030 0.013-0.046 0.019-0.096-0.142-0.193-0.286-0.291-0.429-0.063-0.092-0.132-0.181-0.199-0.272-0.049-0.068-0.099-0.134-0.145-0.203-0.079-0.117-0.154-0.235-0.233-0.351-0.026-0.039-0.065-0.071-0.093-0.108-0.117-0.155-0.227-0.315-0.353-0.462-0.032-0.039-0.112-0.040-0.171-0.047-0.086-0.011-0.177 0.001-0.259-0.022-0.343-0.101-0.687-0.2-1.022-0.321-0.135-0.049-0.269-0.135-0.374-0.236-0.32-0.308-0.718-0.517-1.018-0.856-0.16-0.18-0.416-0.278-0.638-0.394-0.246-0.13-0.504-0.24-0.759-0.354-0.138-0.062-0.276-0.144-0.423-0.166-0.286-0.042-0.579-0.042-0.868-0.069-0.334-0.032-0.679-0.005-0.987-0.174-0.331-0.183-0.692-0.148-1.049-0.154-0.024 0-0.058 0.005-0.075 0.020-0.158 0.15-0.341 0.085-0.517 0.053-0.026-0.006-0.042-0.072-0.071-0.125-0.081-0.010-0.186-0.036-0.291-0.037-0.222-0.003-0.443 0.006-0.666 0.008-0.23 0.005-0.463 0.023-0.692 0.005-0.216-0.017-0.429-0.073-0.642-0.114-0.005 0-0.007-0.013-0.010-0.013-0.086-0.009-0.184-0.043-0.259-0.017-0.2 0.068-0.4 0.147-0.583 0.253-0.094 0.055-0.248 0.083-0.245 0.252 0.001 0.023-0.039 0.055-0.066 0.071-0.111 0.062-0.225 0.119-0.337 0.177 0.001-0.017 0.002-0.035 0.002-0.052-0.032-0.007-0.066-0.026-0.096-0.020-0.163 0.035-0.324 0.081-0.486 0.108-0.066 0.012-0.14-0.026-0.204-0.016-0.255 0.043-0.508 0.096-0.761 0.145-0.312 0.060-0.623 0.121-0.935 0.181-0.043 0.009-0.088 0.039-0.127 0.035-0.286-0.042-0.53 0.114-0.794 0.168-0.047 0.010-0.083 0.071-0.125 0.108 0.009 0.007 0.017 0.014 0.024 0.022l0.242-0.078c0.007 0.016 0.013 0.032 0.019 0.046-0.168 0.114-0.338 0.229-0.507 0.343-0.007-0.025-0.014-0.047-0.023-0.071-0.059 0.005-0.13-0.010-0.176 0.016-0.147 0.082-0.284 0.18-0.423 0.272-0.226 0.151-0.443 0.32-0.682 0.446-0.173 0.091-0.387 0.102-0.561 0.19-0.413 0.207-0.825 0.422-1.095 0.825-0.098 0.147-0.212 0.282-0.343 0.455-0.029-0.060-0.045-0.092-0.056-0.115-0.312 0.263-0.425 0.629-0.62 0.944-0.177 0.285-0.36 0.579-0.593 0.816-0.284 0.288-0.63 0.514-0.937 0.78-0.305 0.263-0.361 0.648-0.455 1.010-0.037 0.147-0.072 0.295-0.106 0.443-0.017-0.005-0.036-0.009-0.053-0.011 0.006-0.045 0.010-0.088 0.016-0.132-0.073 0.072-0.102 0.161-0.15 0.237-0.101 0.163-0.212 0.319-0.321 0.476-0.029 0.042-0.071 0.073-0.098 0.114-0.171 0.255-0.343 0.509-0.509 0.767-0.029 0.045-0.039 0.104-0.052 0.157-0.069 0.288-0.125 0.579-0.204 0.864-0.072 0.263-0.166 0.52-0.249 0.779l-0.042-0.011c-0.008-0.026-0.017-0.052-0.022-0.068-0.032 0.164-0.076 0.331-0.092 0.501-0.022 0.216-0.011 0.436-0.032 0.652-0.019 0.223 0.026 0.453-0.095 0.666-0.068 0.119-0.127 0.253-0.15 0.387-0.098 0.583-0.171 1.166-0.475 1.694-0.219 0.381-0.236 0.813-0.16 1.233 0.124 0.687 0.245 1.376 0.515 2.025 0.016 0.037 0.059 0.063 0.082 0.099 0.091 0.138 0.178 0.278 0.268 0.417-0.010 0.007-0.020 0.014-0.030 0.022-0.032-0.014-0.065-0.030-0.098-0.045 0.15 0.199 0.177 0.446 0.108 0.632-0.079 0.207-0.072 0.368 0.019 0.548 0.010-0.016 0.019-0.033 0.049-0.088 0.016 0.16 0.026 0.281 0.037 0.4 0.011 0.128 0.013 0.258 0.036 0.383 0.124 0.714 0.409 1.374 0.656 2.048 0.249 0.676 0.702 1.233 1.062 1.842 0.189 0.322 0.449 0.616 0.766 0.848 0.356 0.261 0.717 0.511 0.964 0.905 0.176 0.278 0.448 0.497 0.692 0.725 0.387 0.363 0.779 0.722 1.183 1.067 0.629 0.534 1.242 1.1 2.098 1.255 0.058 0.010 0.119 0.001 0.177 0.012 0.201 0.035 0.415 0.043 0.599 0.119 0.189 0.079 0.347 0.229 0.521 0.344 0.029 0.019 0.072 0.016 0.108 0.022 0.058 0.010 0.127 0.001 0.168 0.030 0.338 0.243 0.692 0.446 1.1 0.556 0.291 0.079 0.573 0.19 0.856 0.291 0.094 0.035 0.18 0.118 0.272 0.121 0.35 0.007 0.662 0.164 0.995 0.233 0.492 0.101 0.98 0.235 1.458-0.053 0.052-0.030 0.138-0.013 0.207-0.006 0.068 0.006 0.138 0.047 0.204 0.039 0.645-0.078 1.288-0.166 1.933-0.248 0.325-0.042 0.651-0.078 0.976-0.119 0.256-0.032 0.515-0.059 0.77-0.105 0.32-0.058 0.636-0.131 0.956-0.197 0.016-0.003 0.033 0.001 0.050-0.001 0.148-0.024 0.317-0.014 0.445-0.081 0.383-0.2 0.75-0.429 1.123-0.649 0.114-0.066 0.212-0.196 0.367-0.079 0.016 0.012 0.063-0.014 0.092-0.029 0.387-0.199 0.805-0.296 1.228-0.363 0.299-0.047 0.43-0.281 0.602-0.475 0.016-0.019 0.006-0.060 0.012-0.117-0.062 0.053-0.104 0.091-0.147 0.128-0.013-0.009-0.026-0.016-0.039-0.024 0.046-0.075 0.075-0.17 0.138-0.223 0.265-0.222 0.524-0.449 0.786-0.671 0.386-0.33 0.682-0.76 1.147-1.005 0.177-0.093 0.312-0.266 0.469-0.399 0.032-0.027 0.075-0.042 0.115-0.056 0.357-0.135 0.697-0.288 0.865-0.669 0.144-0.327 0.291-0.655 0.459-0.969 0.082-0.153 0.203-0.292 0.33-0.413 0.509-0.484 1.053-0.935 1.379-1.583 0.111-0.224 0.265-0.426 0.396-0.642 0.040-0.066 0.073-0.137 0.101-0.209 0.115-0.309 0.239-0.616 0.334-0.93 0.088-0.294 0.147-0.594 0.21-0.894 0.048-0.223 0.068-0.452 0.125-0.671 0.078-0.296 0.23-0.581 0.258-0.879 0.029-0.307 0.094-0.599 0.163-0.892 0.027-0.121 0.093-0.252 0.071-0.363-0.050-0.243-0.161-0.455-0.114-0.734z"></path>
<path d="M13.551 25.215c0.081-0.501 0.115-0.989 0.225-1.48 0.091-0.416 0.273-0.771 0.387-1.173 0.040-0.14 0.017-0.63 0.094-0.915-0.285 0.010-0.567 0.042-0.849 0.072-0.027 0.095-0.058 0.19-0.101 0.304-0.075 0.193-0.138 0.41-0.199 0.603-0.249 0.79-0.134 1.757-0.508 2.519-0.25 0.508-0.435 0.966-0.76 1.441-0.155 0.227-0.222 0.376-0.207 0.596 0.403 0.135 0.802 0.282 1.169 0.419-0.099-0.33 0.232-1.104 0.289-1.255 0.141-0.373 0.396-0.73 0.461-1.13z"></path>
<path d="M22.572 23.875c-0.132-0.256-0.321-0.443-0.482-0.681-0.154-0.232-0.104-0.354-0.168-0.589-0.055-0.199-0.21-0.315-0.291-0.488-0.062-0.131-0.059-0.278-0.078-0.422-0.119-0.030-0.239-0.059-0.356-0.082-0.281-0.053-0.573-0.058-0.869-0.037 0.289 0.291 0.324 0.54 0.425 0.754 0.258 0.547 0.71 0.967 0.987 1.51 0.371 0.728 0.448 1.523 0.613 2.307 0.069 0.331 0.492 0.656 0.474 1.005 0.127-0.058 0.255-0.117 0.384-0.178 0.112-0.055 0.299-0.118 0.468-0.131-0.045-0.394-0.145-0.806-0.325-1.156-0.298-0.581-0.484-1.236-0.782-1.812z"></path>
<path d="M22.055 26.352c-0.236-0.379-0.253-0.659-0.391-1.068-0.25-0.747-0.435-1.576-0.866-2.234-0.173-0.263-0.227-0.531-0.351-0.797-0.102-0.22-0.213-0.429-0.295-0.662-0.243 0.023-0.489 0.058-0.733 0.089 0.206 0.214 0.374 0.557 0.44 0.691 0.16 0.314 0.311 0.59 0.436 0.925 0.063 0.17 0.134 0.248 0.184 0.442 0.042 0.16 0.037 0.322 0.069 0.479 0.079 0.384 0.261 0.751 0.354 1.134 0.104 0.426 0.128 0.756 0.363 1.121 0.128 0.2 0.469 0.859 0.314 1.173 0.059-0.022 0.118-0.043 0.177-0.063 0.294-0.102 0.564-0.21 0.833-0.325-0.309-0.151-0.36-0.628-0.534-0.905z"></path>
<path d="M20.423 25.989c-0.105-0.361-0.131-0.75-0.216-1.12-0.096-0.426-0.271-0.833-0.419-1.243-0.088-0.242-0.121-0.393-0.178-0.643-0.059-0.263-0.266-0.438-0.358-0.688-0.043-0.118-0.168-0.38-0.232-0.571-0.226 0.022-0.449 0.033-0.666 0.023-0.093-0.005-0.189-0.017-0.282-0.035 0.351 0.351 0.345 0.966 0.461 1.341 0.144 0.465 0.341 0.825 0.325 1.3-0.020 0.571 0.086 1.167 0.181 1.718 0.089 0.518 0.019 1.114 0.176 1.616 0.076 0.249 0.294 0.438 0.327 0.681 0.604-0.203 1.212-0.427 1.805-0.64-0.442-0.35-0.771-1.219-0.923-1.739z"></path>
<path d="M18.309 12.636c0.271 0.517 1.030-0.36 0.4-0.632-0.024 0.013-0.042 0.032-0.049 0.058-0.14-0.053-0.22-0.013-0.344 0.043-0.213 0.065-0.224 0.294-0.19 0.481 0.060 0.027 0.115 0.047 0.183 0.050z"></path>
<path d="M14.927 14.917c-0.425 0.056-0.259 0.423 0.058 0.489 0.325 0.066 0.708-0.076 0.725-0.407-0.069-0.098-0.078-0.079-0.119-0.226-0.206-0.066-0.394-0.026-0.584 0.069l-0.079 0.075z"></path>
<path d="M17.329 14.297c0.835-0.363 0.425-1.553-0.321-1.736-0.425-0.104-1.020 0.005-1.018 0.33-0.171 0.255-0.42 0.34-0.393 0.714 0.011 0.16 0.059 0.39 0.193 0.509 0.295 0.261 1.187 0.335 1.539 0.183z"></path>
<path d="M16.006 8.134c-0.014 0.321 0.64 0.304 0.882 0.324 0.502 0.043 0.55-0.225 0.891-0.373-0.036-0.286 0.023-0.433 0.121-0.697-0.2-0.093-0.187-0.361-0.39-0.498-0.151-0.102-0.436-0.233-0.616-0.148 0.005 0 0.008 0 0.014 0-0.030 0.001-0.050 0.010-0.030 0.036-0.168-0.194-0.606-0.101-0.715 0.144-0.4 0.095-0.714 1.131-0.157 1.212z"></path>
<path d="M18.158 14.581c0.078 0.141 0.21 0.23 0.282 0.37 0.311 0.035 0.829-0.008 0.655-0.474-0.132-0.353-0.658-0.276-0.97-0.229-0.012 0.039-0.033 0.14-0.033 0.178 0.069 0.008 0.157-0.024 0.223-0.070l-0.157 0.225z"></path>
<path d="M12.26 24.956c0.227-0.563 0.127-1.144 0.328-1.694 0.107-0.292 0.402-0.532 0.466-0.872 0.037-0.193 0.042-0.423 0.039-0.638-0.235 0.022-0.471 0.036-0.71 0.030-0.017 0.099-0.039 0.193-0.050 0.237-0.14 0.535-0.394 1.113-0.652 1.618-0.299 0.589-0.569 1.074-0.684 1.716-0.085 0.472-0.24 0.907-0.371 1.367-0.013 0.046-0.030 0.096-0.052 0.145 0.235 0.059 0.478 0.128 0.727 0.207 0.075-0.223 0.176-0.474 0.273-0.658 0.127-0.243 0.294-0.419 0.394-0.652 0.115-0.265 0.18-0.535 0.291-0.807z"></path>
<path d="M18.88 17.511c-0.535 0.25-1.012 0.381-1.612 0.456-0.679 0.085-1.012-0.138-1.611-0.276 0.037-0.415-0.584-0.22-0.878-0.294-0.204-0.050-0.416-0.16-0.602-0.265-0.005 0.073-0.010 0.147-0.022 0.222-0.046 0.311-0.105 0.571-0.132 0.892 0 0.005-0.001 0.010-0.001 0.016 0.468-0.017 0.948-0.006 1.402-0.019 1.37-0.039 2.747-0.088 4.116-0.102 0.059 0 0.127-0.002 0.199-0.006 0-0.020 0-0.042 0-0.060-0.006-0.212-0.024-0.658-0.091-1.062-0.227 0.18-0.461 0.354-0.769 0.498z"></path>
<path d="M14.761 12.787c0.259 0.073 0.36-0.151 0.594-0.201 0.019-0.141 0.001-0.273-0.037-0.4-0.186-0.069-0.386-0.085-0.57-0.117-0.14 0.010-0.255 0.068-0.337 0.184 0.187 0.193 0.063 0.452 0.35 0.534z"></path>
<path d="M13.583 13.081c0.047-0.2 0.304-0.366 0.353-0.566 0.073-0.309-0.125-0.484 0.125-0.777 0.141-0.167 0.474-0.472 0.71-0.422-0.030-0.246 0.186-0.371 0.426-0.494 0.13-0.258 0.715-0.276 1.012-0.35 0.376-0.092 0.83-0.098 1.193 0.059 0.265 0.117 0.531 0.387 0.797 0.533 0.302 0.166 0.623 0.304 0.866 0.563 0.304 0.324 0.784 0.858 0.79 1.301 0.005 0.345-0.118 0.725-0.121 1.089-0.002 0.227 0.046 0.507 0 0.73-0.144 0.708-0.701 0.927-1.279 1.275-0.688 0.417-1.053 0.603-1.914 0.474-0.577-0.086-1.236-0.223-1.7-0.528-0.514-0.338-0.603-0.882-0.898-1.426-0.15-0.278-0.286-0.43-0.317-0.754-0.017-0.196-0.086-0.524-0.043-0.707zM13.783 15.774h0.001c0.249 0.387 0.615 0.74 0.961 0.507 0.142 0.462 1.213 0.58 1.651 0.638 0.675 0.089 1.367-0.014 1.97-0.266 0.367-0.154 0.662-0.271 0.928-0.439-0.013-0.006-0.026-0.012-0.040-0.014l0.050 0.009c0.196-0.125 0.379-0.278 0.563-0.498 0.298-0.357 0.567-0.708 0.63-1.2 0.058-0.455 0.042-0.983 0.039-1.432-0.002-0.492-0.321-0.869-0.492-1.308-0.197-0.507-0.576-0.649-0.933-1.012-0.331-0.337-0.531-0.471-1-0.603-0.534-0.151-1.098-0.212-1.691-0.102-0.272 0.050-1.252 0.145-0.887 0.292-0.312-0.027-0.497 0.065-0.744 0.21-0.171 0.101-0.461 0.219-0.633 0.335-0.095 0.065-0.109 0.184-0.217 0.249-0.235 0.141-0.435 0.157-0.606 0.379-0.18 0.233-0.243 0.567-0.243 0.854 0 0.446-0.014 0.92-0.059 1.33-0.058 0.52 0.34 0.92 0.453 1.435 0.030 0.135 0.141 0.394 0.298 0.639z"></path>
</svg>
