<!-- Generated by IcoMoon.io -->
<svg version="1.1" xmlns="http://www.w3.org/2000/svg" width="34" height="32" viewBox="0 0 34 32">
<title>return_to_blood_on_the_altar</title>
<path d="M17.165 8.092c-0.307-0.25-0.711-0.163-1.046 0.102 0.302 0.029 0.836 0.020 0.956-0.040 0.035-0.017 0.063-0.039 0.091-0.062z"></path>
<path d="M15.223 6.765c0.082 0.292 0.178 0.57 0.282 0.8 0.489-0.203 1.376 0.105 1.623 0.16 0.075 0.016 0.142 0.033 0.207 0.050 0.032-0.13 0.039-0.266 0.045-0.379 0.010-0.199-0.040-0.406-0.081-0.612-0.691-0.030-1.387-0.048-2.077-0.020z"></path>
<path d="M15.433 20.514c-0.748-1.292-0.633-2.667-0.829-4.067-0.091-0.281-0.005-0.474 0.176-0.609-0.284-1.219 0.022-2.356 0.177-3.552-0.030-0.010-0.062-0.022-0.091-0.029-0.263-1.254 0.037-2.418 0.235-3.637-0.007 0-0.014 0-0.020 0-0.35-0.576-0.525-1.169-0.633-1.773-1.236 0.21-2.429 0.807-3.286 1.573-0.161 0.145-0.361 0.281-0.545 0.479-0.566 0.766-1.077 1.502-1.444 2.409-0.377 0.928-0.914 1.775-1.351 2.681-0.446 0.928-0.253 1.832-0.232 2.847 0.008 0.4 0 0.803 0 1.205 0 0.8 0.072 1.331 0.417 2.062 0.403 0.855 0.396 2.068 1.081 2.742 0.331 0.324 0.783 0.524 1.144 0.83 0.43 0.368 0.872 0.74 1.28 1.13 0.361 0.347 0.664 0.734 1.108 0.96 0.361 0.183 0.806 0.243 1.196 0.356 0.416 0.119 0.869 0.207 1.327 0.278 0.001-0.54 0.027-1.085 0.006-1.641-0.048-0.216 0.001-0.373 0.109-0.486-0.151-1.271 0.066-2.491 0.207-3.756-0.010 0-0.022-0.001-0.032-0.001z"></path>
<path d="M15.157 5.743c0.74 0 1.454-0.086 2.172-0.137-0.010-0.072-0.029-0.153-0.063-0.253-0.121-0.36-0.193-0.851-0.461-1.111-0.125-0.122-0.721-0.4-0.946-0.371-0.183 0.023-0.148 0.252-0.272 0.324-0.212 0.122-0.443 0.039-0.569 0.532-0.085 0.174-0.081 0.56-0.016 1.013 0.052 0.001 0.102 0.002 0.154 0.002z"></path>
<path d="M17.467 19.345c0.105 0.023 0.199 0.047 0.284 0.072 0.002-0.039 0.006-0.076 0.009-0.111 0.026-0.356-0.138-0.743-0.101-1.095 0.045-0.417 0.177-0.501 0.035-0.957-0.039-0.128-0.073-0.273-0.111-0.419-0.602 0.191-1.372-0.18-2.018-0.475-0.037 0.060-0.072 0.14-0.102 0.248-0.193 0.373 0.011 1.736 0.337 2.64 0.472-0.302 1.413 0.042 1.668 0.098z"></path>
<path d="M18.005 25.105c-0.072 0.2-0.164 0.358-0.289 0.433-0.522 0.317-1.206-0.114-1.773-0.443-0.104 0.272-0.119 0.82-0.071 1.403 0.301 0.036 0.599 0.066 0.882 0.095 0.465 0.047 0.9 0.030 1.326-0.033 0.072-0.217 0.134-0.343 0.062-0.695-0.047-0.232-0.069-0.512-0.137-0.76z"></path>
<path d="M21.905 8.269c-1.104-0.728-2.375-1.288-3.69-1.429-0.020 0.436 0.14 1.241-0.095 1.651 0.033 0.154 0.053 0.341 0.079 0.573 0.076 0.723-0.094 1.508-0.312 2.193-0.037 0.117-0.071 0.265-0.105 0.426 0.632 0.201 0.691 0.488 0.82 1.233 0.127 0.727-0.035 1.513-0.256 2.198-0.079 0.24-0.13 0.62-0.224 0.963 0.068 0.128 0.135 0.281 0.216 0.463 0.295 0.678 0.325 1.482 0.271 2.202-0.032 0.413 0.096 1.173-0.101 1.602 0.024 0.153 0.046 0.331 0.071 0.54 0.099 0.852-0.048 1.789-0.245 2.609-0.046 0.187-0.082 0.445-0.125 0.714 0.36 0.153 0.461 0.443 0.645 1.015 0.117 0.36 0.158 0.744 0.157 1.13 0.213-0.063 0.426-0.137 0.643-0.219 0.786-0.299 1.491-0.908 2.15-1.433 0.728-0.58 1.183-1.485 1.893-2.111 0.925-0.817 1.655-2.13 2.136-3.284 0.393-0.941 0.521-2.175 0.561-3.184 0.049-1.169 0.145-2.081-0.15-3.215-0.556-2.133-2.589-3.483-4.338-4.636z"></path>
<path d="M16.099 27.806c0.099 0.347 0.224 0.61 0.367 0.701 0.13 0.082 0.979 0.18 1.14 0.119 0.289-0.108 0.354-0.475 0.397-0.72 0.003-0.020 0.005-0.040 0.007-0.060-0.078 0.023-0.154 0.045-0.23 0.063-0.498 0.124-1.090 0.029-1.681-0.104z"></path>
<path d="M15.729 8.693c-0.204 0.56-0.319 1.841-0.242 2.65 0.486-0.098 1.208 0.078 1.596 0.173 0.075-0.318 0.052-0.685 0.157-0.987 0.138-0.394 0.266-0.445 0.261-0.918-0.002-0.235 0.023-0.514 0.007-0.766-0.538 0.102-1.216-0.052-1.779-0.151z"></path>
<path d="M16.355 24.59c0.249 0.099 0.63 0.196 0.733 0.158 0.141-0.052 0.233-0.2 0.301-0.371-0.348-0.144-0.723-0.039-1.033 0.213z"></path>
<path d="M17.891 20.748c-0.544 0.114-1.232-0.047-1.805-0.155-0.201 0.776-0.266 2.536-0.107 3.415 0.532-0.050 1.159 0.040 1.373 0.053 0.046 0.001 0.089 0.006 0.132 0.008 0.010-0.042 0.020-0.083 0.030-0.122 0.095-0.404 0.043-0.891 0.148-1.29 0.125-0.472 0.252-0.537 0.233-1.098-0.007-0.191 0.010-0.499-0.006-0.812z"></path>
<path d="M27.969 17.615c-0.079 1.433-0.882 2.881-1.544 4.115-0.292 0.545-0.833 0.889-1.229 1.351-0.296 0.347-0.393 0.787-0.635 1.189-0.302 0.504-0.72 0.835-1.151 1.202-0.19 0.163-0.331 0.394-0.514 0.544-0.284 0.232-0.658 0.288-0.976 0.451-0.191 0.098-0.356 0.227-0.537 0.321-0.436 0.222-0.974 0.266-1.464 0.403-0.347 0.096-0.691 0.226-1.033 0.354-0.060 0.522-0.007 1.426-0.44 1.672-0.799 0.452-2.15-0.275-2.877-0.341-0.194-0.425-0.301-0.848-0.36-1.274-0.242-0.052-0.476-0.093-0.695-0.112-0.282-0.023-0.514-0.096-0.783-0.173-0.517-0.148-1.068-0.197-1.576-0.423-0.584-0.261-1.048-0.656-1.497-1.101-0.442-0.438-0.787-0.77-1.29-1.072-0.481-0.291-1.094-0.842-1.408-1.271-0.754-1.038-0.974-2.198-1.292-3.408-0.36-1.369-0.887-2.709-0.828-4.126 0.014-0.345 0.013-0.866 0.148-1.19 0.217-0.521 0.622-1.016 0.871-1.546 0.272-0.579 0.602-1.195 0.826-1.779 0.187-0.492 0.258-0.799 0.606-1.238 0.448-0.564 1.484-2.26 2.324-2.441-0.138-0.003-0.091-0.115-0.024-0.189 0.41-0.445 1.013-0.577 1.511-0.897 0.376-0.242 0.694-0.504 1.095-0.698 0.351-0.168 0.721-0.207 1.101-0.21-0.042-0.381-0.081-0.767-0.144-1.154-0.356-1.023 1.682-0.907 2.104-0.928 1.136-0.058 1.244 0.15 1.634 0.992 0.135 0.294 0.219 0.612 0.269 0.937 1.113 0.013 2.707 0.592 3.532 1.228 0.462 0.357 0.833 0.71 1.336 1.013 0.425 0.255 0.872 0.517 1.269 0.823 0.56 0.433 1.151 0.992 1.769 1.324 0.419 0.225 0.471 0.118 0.662 0.715 0.296 0.924 0.469 1.835 0.854 2.729 0.197 0.455 0.173 0.832 0.173 1.34 0 0.983 0.268 1.871 0.213 2.868zM32.202 17.3c0.046-0.273-0.13-0.538-0.294-0.777v0.161c-0.019 0.001-0.037 0.003-0.058 0.005-0.007-0.131-0.040-0.266-0.019-0.391 0.071-0.413 0.166-0.82 0.239-1.233 0.020-0.115 0.016-0.245-0.011-0.358-0.092-0.38-0.194-0.757-0.301-1.133-0.088-0.311-0.176-0.623-0.284-0.928-0.063-0.183-0.16-0.356-0.25-0.527-0.037-0.070-0.102-0.125-0.15-0.19-0.022-0.027-0.035-0.062-0.047-0.095-0.069-0.193 0.088-0.394-0.022-0.589-0.037-0.066-0.056-0.145-0.066-0.222-0.029-0.216-0.046-0.433-0.072-0.649-0.005-0.036-0.014-0.076-0.035-0.107-0.119-0.166-0.245-0.327-0.361-0.494-0.020-0.029-0.009-0.079-0.014-0.137-0.269-0.242-0.391-0.623-0.675-0.897-0.256-0.248-0.417-0.59-0.622-0.891-0.134-0.197-0.275-0.39-0.406-0.59-0.114-0.174-0.299-0.291-0.318-0.544-0.010-0.137-0.157-0.282-0.272-0.39-0.233-0.216-0.486-0.41-0.731-0.615-0.005 0.036-0.008 0.079-0.014 0.121-0.014 0.006-0.030 0.013-0.045 0.019-0.098-0.144-0.193-0.288-0.291-0.429-0.065-0.092-0.132-0.183-0.199-0.273-0.049-0.068-0.099-0.134-0.147-0.202-0.078-0.117-0.153-0.236-0.232-0.351-0.027-0.039-0.066-0.071-0.095-0.109-0.117-0.154-0.226-0.315-0.353-0.462-0.032-0.037-0.111-0.040-0.171-0.047-0.085-0.011-0.177 0.002-0.258-0.022-0.343-0.099-0.687-0.199-1.022-0.32-0.137-0.049-0.271-0.135-0.374-0.236-0.32-0.309-0.72-0.517-1.019-0.858-0.158-0.178-0.415-0.278-0.636-0.394-0.248-0.128-0.504-0.239-0.759-0.353-0.14-0.062-0.278-0.144-0.425-0.166-0.286-0.042-0.579-0.042-0.866-0.069-0.334-0.032-0.679-0.006-0.989-0.176-0.331-0.181-0.692-0.148-1.048-0.153-0.026 0-0.059 0.005-0.075 0.020-0.16 0.148-0.341 0.085-0.517 0.052-0.027-0.005-0.042-0.071-0.072-0.124-0.081-0.012-0.184-0.036-0.289-0.037-0.222-0.002-0.445 0.006-0.666 0.008-0.232 0.002-0.463 0.022-0.694 0.005-0.216-0.017-0.427-0.073-0.642-0.114-0.005-0.001-0.006-0.013-0.010-0.013-0.086-0.008-0.183-0.045-0.259-0.019-0.2 0.069-0.4 0.147-0.581 0.253-0.095 0.056-0.248 0.085-0.245 0.253 0 0.023-0.039 0.055-0.068 0.069-0.109 0.062-0.223 0.119-0.335 0.178 0.001-0.017 0.001-0.035 0.003-0.053-0.033-0.007-0.068-0.024-0.096-0.019-0.164 0.033-0.324 0.079-0.488 0.108-0.065 0.012-0.14-0.027-0.204-0.016-0.255 0.043-0.508 0.096-0.761 0.145-0.311 0.060-0.623 0.119-0.934 0.18-0.043 0.009-0.088 0.040-0.128 0.035-0.286-0.040-0.53 0.115-0.794 0.17-0.047 0.010-0.083 0.071-0.124 0.108 0.007 0.007 0.016 0.014 0.024 0.022l0.242-0.078c0.006 0.014 0.011 0.030 0.017 0.046-0.168 0.114-0.337 0.227-0.505 0.341-0.007-0.023-0.016-0.046-0.023-0.071-0.060 0.005-0.13-0.010-0.177 0.017-0.145 0.082-0.282 0.18-0.422 0.272-0.227 0.15-0.443 0.32-0.684 0.446-0.173 0.091-0.386 0.102-0.561 0.19-0.413 0.206-0.825 0.422-1.094 0.823-0.099 0.147-0.213 0.284-0.343 0.456-0.030-0.060-0.046-0.094-0.058-0.115-0.312 0.263-0.425 0.629-0.619 0.944-0.177 0.285-0.36 0.579-0.594 0.816-0.284 0.288-0.629 0.514-0.937 0.78-0.305 0.262-0.361 0.646-0.455 1.009-0.037 0.148-0.071 0.296-0.106 0.443-0.017-0.003-0.035-0.007-0.052-0.011 0.005-0.043 0.010-0.088 0.014-0.131-0.073 0.070-0.101 0.16-0.148 0.237-0.102 0.163-0.213 0.319-0.322 0.476-0.029 0.040-0.069 0.072-0.098 0.114-0.171 0.253-0.341 0.508-0.508 0.766-0.029 0.046-0.040 0.104-0.053 0.158-0.068 0.288-0.125 0.579-0.203 0.864-0.072 0.262-0.166 0.518-0.25 0.779l-0.042-0.011c-0.008-0.027-0.017-0.053-0.022-0.068-0.030 0.164-0.075 0.331-0.092 0.499-0.020 0.217-0.011 0.436-0.030 0.653-0.020 0.223 0.025 0.453-0.096 0.666-0.068 0.119-0.127 0.253-0.148 0.387-0.098 0.581-0.171 1.166-0.476 1.694-0.219 0.381-0.236 0.813-0.16 1.233 0.124 0.687 0.245 1.375 0.515 2.024 0.016 0.039 0.059 0.065 0.083 0.101 0.091 0.138 0.178 0.278 0.268 0.416-0.010 0.009-0.020 0.016-0.030 0.023-0.033-0.016-0.066-0.030-0.098-0.045 0.15 0.199 0.177 0.445 0.107 0.63-0.078 0.209-0.071 0.368 0.020 0.55 0.008-0.016 0.019-0.033 0.049-0.088 0.014 0.16 0.026 0.279 0.036 0.4 0.011 0.128 0.014 0.256 0.036 0.383 0.124 0.712 0.409 1.375 0.658 2.048 0.249 0.676 0.701 1.233 1.061 1.842 0.19 0.322 0.45 0.615 0.767 0.848 0.356 0.261 0.715 0.511 0.964 0.905 0.174 0.276 0.448 0.495 0.691 0.724 0.387 0.364 0.78 0.724 1.184 1.068 0.629 0.534 1.242 1.1 2.098 1.254 0.058 0.012 0.118 0.003 0.176 0.012 0.201 0.036 0.415 0.043 0.599 0.121 0.189 0.079 0.347 0.229 0.522 0.343 0.029 0.019 0.072 0.017 0.108 0.023 0.056 0.010 0.127 0 0.168 0.030 0.338 0.242 0.692 0.446 1.1 0.556 0.291 0.078 0.571 0.189 0.855 0.291 0.094 0.033 0.181 0.118 0.272 0.119 0.351 0.009 0.662 0.166 0.996 0.233 0.491 0.101 0.979 0.235 1.458-0.052 0.052-0.032 0.137-0.014 0.206-0.007s0.14 0.049 0.204 0.040c0.645-0.079 1.29-0.166 1.934-0.249 0.324-0.040 0.651-0.076 0.974-0.118 0.258-0.032 0.515-0.059 0.77-0.105 0.321-0.058 0.638-0.131 0.956-0.197 0.016-0.005 0.035 0.001 0.050-0.001 0.15-0.024 0.318-0.014 0.445-0.081 0.383-0.2 0.751-0.43 1.124-0.649 0.114-0.068 0.21-0.197 0.367-0.081 0.014 0.012 0.063-0.013 0.091-0.029 0.387-0.197 0.805-0.296 1.229-0.361 0.299-0.047 0.429-0.282 0.6-0.475 0.017-0.019 0.007-0.062 0.012-0.118-0.060 0.053-0.104 0.091-0.147 0.13-0.013-0.009-0.024-0.016-0.037-0.024 0.045-0.076 0.075-0.17 0.138-0.224 0.265-0.22 0.524-0.448 0.784-0.671 0.386-0.33 0.684-0.759 1.148-1.003 0.177-0.093 0.312-0.266 0.469-0.4 0.032-0.026 0.075-0.040 0.115-0.056 0.356-0.135 0.695-0.286 0.864-0.669 0.145-0.327 0.291-0.653 0.459-0.967 0.082-0.154 0.204-0.292 0.331-0.413 0.509-0.484 1.052-0.936 1.377-1.583 0.112-0.224 0.265-0.427 0.396-0.642 0.040-0.066 0.075-0.137 0.102-0.21 0.114-0.308 0.239-0.615 0.332-0.93 0.088-0.292 0.148-0.593 0.212-0.892 0.048-0.223 0.068-0.452 0.125-0.671 0.078-0.296 0.229-0.581 0.256-0.881 0.029-0.305 0.093-0.597 0.163-0.892 0.029-0.121 0.095-0.25 0.072-0.361-0.050-0.243-0.163-0.456-0.115-0.735z"></path>
<path d="M17.219 12.961c-0.474 0.222-1.059-0.063-1.576-0.34-0.222 0.727-0.258 2.284-0.019 2.953 0.456-0.053 0.924-0.035 1.104-0.042 0.261-0.011 0.463-0.008 0.632 0.011 0.010-0.029 0.019-0.058 0.027-0.085 0.109-0.338 0.040-0.753 0.16-1.085 0.142-0.394 0.291-0.443 0.261-0.918-0.023-0.377 0.033-0.871-0.157-1.187-0.001-0.001-0.006-0.006-0.007-0.008-0.094 0.322-0.219 0.604-0.425 0.701z"></path>
<path d="M17.637 19.859c-0.099-0.115-0.235-0.189-0.422-0.189-0.328 0.001-0.672 0.153-0.881 0.402 0.223 0.055 0.959 0.060 1.101-0.010 0.092-0.045 0.155-0.118 0.201-0.203z"></path>
<path d="M17.013 11.747c-0.069-0.036-0.134-0.063-0.183-0.069-0.183-0.022-0.209 0.209-0.348 0.248-0.196 0.056-0.37-0.029-0.566 0.197 0.246 0.089 0.596 0.174 0.695 0.148 0.212-0.058 0.325-0.305 0.402-0.524z"></path>
<path d="M16.126 15.976c0.288 0.086 0.662 0.164 0.77 0.14 0.075-0.016 0.14-0.052 0.194-0.098-0.229-0.131-0.599-0.284-0.767-0.263-0.127 0.014-0.153 0.128-0.197 0.222z"></path>
</svg>
