<!-- Generated by IcoMoon.io -->
<svg version="1.1" xmlns="http://www.w3.org/2000/svg" width="32" height="32" viewBox="0 0 32 32">
<title>return_to_the_boundary_beyond</title>
<path d="M18.516 28.767c-0-0-0-0.001-0.001-0.001-0.003 0.002-0.002 0.002 0.001 0.001z"></path>
<path d="M20.469 27.895c-0.001 0-0.002 0.001-0.005 0.003 0.002-0.002 0.003-0.002 0.005-0.003z"></path>
<path d="M24.624 23.616c0.018-0.012 0.041-0.031 0.076-0.057-0.025 0.018-0.051 0.038-0.076 0.057z"></path>
<path d="M14.368 1.016c-0.050 0.028-0.098 0.054-0.145 0.079-0.032 0.013-0.064 0.028-0.092 0.042-0.058 0.023-0.111 0.048-0.164 0.070-0.104 0.042-0.198 0.078-0.272 0.114l0.165-0.114c-0.1 0.068-0.185 0.113-0.274 0.162l0.125-0.009c-0.108 0.048-0.194 0.094-0.204 0.074-0.089 0.088 0.122 0.032-0.068 0.187-0.075 0.027-0.176 0.090-0.268 0.143-0.047 0.025-0.093 0.046-0.13 0.063-0.020 0.006-0.035 0.013-0.050 0.015-0.009 0-0.015-0.003-0.022-0.011 0.006-0.001 0.036-0.016 0.055-0.026 0.021-0.011 0.039-0.023 0.055-0.029 0.028-0.016 0.044-0.027 0.055-0.035 0.018-0.018 0.006-0.023-0.009-0.024-0.025-0.006-0.057-0.012 0.040-0.076-0.055 0.032-0.118 0.064-0.193 0.098-0.019 0.001 0.009-0.023 0.035-0.040-0.029 0.011-0.074 0.030-0.081 0.031-0.004-0.001-0.004-0.001-0.007 0-0.004-0.001-0.005 0.001-0.005 0.002-0.009 0.002-0.037 0.006-0.048 0.011-0.031 0.009-0.050 0.021-0.077 0.033-0.052 0.024-0.126 0.051-0.334 0.055 0.042-0.026-0.025-0.042-0.097-0.052 0.046 0.019-0.045 0.061-0.18 0.085-0.314-0.021-0.341 0.029-0.505 0.029l0.187 0.009c-0.029 0.019-0.083 0.030-0.154 0.037-0.074 0.005-0.168 0.009-0.279 0.017-0.008 0.002-0.020 0.005-0.029 0.011-0.007-0.005 0.004-0.015 0.026-0.026-0.082 0.031-0.121 0.043-0.186 0.059-0.062 0.010-0.126 0.022-0.193 0.035-0.131 0.024-0.27 0.055-0.404 0.119-0.158 0.024-0.035-0.063-0.173-0.037-0.134 0.064-0.227 0.089-0.31 0.107-0.041 0.009-0.079 0.014-0.121 0.024-0.022 0.004-0.042 0.010-0.066 0.015-0.012 0.004-0.025 0.005-0.037 0.009-0.023 0.006-0.043 0.014-0.066 0.020-0.022 0.013-0.044 0.027-0.068 0.040-0.013 0.007-0.029 0.018-0.044 0.028-0.031 0.020-0.063 0.045-0.097 0.072 0.124-0.018 0.134-0.038-0.081 0.152l0.323-0.222 0.294-0.114-0.13 0.072c-0.050 0.024-0.073 0.040-0.151 0.074-0.059 0.044-0.079 0.068-0.114 0.099 0.040-0.025 0.083-0.054 0.123-0.081 0.043-0.016 0.085-0.033 0.125-0.048 0.038-0.015 0.071-0.030 0.103-0.042 0.067-0.028 0.127-0.049 0.173-0.061-0.179 0.103-0.166 0.085-0.063 0.096-0.056 0.001-0.109 0.011-0.16 0.024-0.025 0.006-0.053 0.016-0.077 0.026l-0.090 0.035c-0.071 0.052-0.142 0.104-0.217 0.16-0.071 0.051-0.147 0.098-0.237 0.134l-0.057-0.11c-0.316 0.145-0.551 0.354-0.842 0.555-0.094 0.051-0.237 0.12-0.38 0.176l0.189-0.063c-0.055 0.079-0.343 0.164-0.514 0.265-0.001-0.045-0.119-0.006-0.208 0.002 0.020 0.025-0.405 0.183-0.426 0.285l-0.074 0.022-0.066 0.048-0.050 0.031-0.096 0.061c-0.373 0.325-0.325 0.477-0.678 0.794 0.072-0.131-0.105-0.002 0.101-0.246-0.114 0.11-0.221 0.201-0.202 0.224-0.019 0.009-0.045 0.033-0.072 0.061-0.029 0.033-0.066 0.075-0.103 0.119-0.034 0.062-0.071 0.13-0.105 0.191-0.032 0.053-0.063 0.1-0.094 0.129-0.023 0.066 0.003 0.108-0.096 0.254-0.012 0.008-0.017 0.001-0.019-0.005-0.003 0.038-0.121 0.234-0.005 0.137-0.084 0.075-0.167 0.174-0.25 0.287-0.042 0.053-0.081 0.113-0.121 0.175-0.038 0.056-0.074 0.113-0.112 0.171-0.064 0.057-0.13 0.117-0.195 0.175-0.068 0.058-0.136 0.117-0.2 0.173-0.131 0.108-0.258 0.198-0.367 0.25-0.14 0.131-0.293 0.275-0.434 0.406-0.068 0.194-0.132 0.372-0.184 0.526-0.005-0.024-0.019-0.009 0.005-0.063-0.186 0.393 0.021 0.29-0.189 0.739-0.151 0.213 0.054-0.257-0.024-0.119-0.044 0.005-0.076 0.051-0.107 0.123-0.015 0.036-0.030 0.080-0.046 0.125-0.011 0.042-0.034 0.108-0.035 0.123-0.004 0.011-0.028 0.048-0.053 0.083l-0.072 0.107c-0.050 0.067-0.104 0.128-0.162 0.175l0.042-0.070c-0.189 0.175-0.326 0.53-0.581 0.858 0 0-0.001-0.024-0.018-0.015-0.006 0.022-0.022 0.057-0.051 0.107-0.015 0.079-0.033 0.169-0.051 0.268-0.019 0.089-0.040 0.185-0.064 0.283-0.048 0.195-0.102 0.398-0.149 0.575-0.013-0.134 0.027-0.18-0.048-0.127-0.048 0.174 0.098-0.022 0.004 0.323-0.028 0.046-0.057 0.101-0.097 0.178-0.036 0.107-0.071 0.19-0.108 0.208l0.031-0.226 0.042-0.129c-0.013 0.016-0.028 0.029-0.038 0.048-0.010 0.016-0.018 0.037-0.033 0.074-0.004 0.025-0.009 0.049-0.015 0.075l-0.011 0.064c-0.004 0.043-0.004 0.086-0.005 0.129-0.004 0.086-0.008 0.169-0.026 0.237l-0.029-0.029c-0.064 0.499 0.012 0.538-0.066 1.044-0.001 0.006-0.005 0.016-0.007 0.026 0.006-0.010 0.014-0.017 0.020-0.024 0.005-0.005 0.011-0.009 0.017-0.018 0.001 0.012 0.001 0.017 0.002 0.022 0 0.276-0.107 0.216-0.119 0.513l-0.105 0.068c-0.031 0.197-0.084 0.701-0.171 1.049 0.004-0.209 0.067-0.627 0.097-0.887-0.033 0.127-0.066 0.325-0.097 0.509 0.012 0.256-0.058 0.566-0.169 0.944-0.044-0.036-0.097 0.055-0.153 0.204-0.028 0.074-0.056 0.164-0.086 0.257-0.034 0.106-0.068 0.217-0.101 0.325 0.005 0.039 0.012 0.078 0.018 0.116 0.002 0.027 0.005 0.052 0.009 0.077 0.005 0.048 0.013 0.098 0.017 0.143 0.005 0.088 0.003 0.161-0.009 0.215 0.045 0.166 0.082 0.335 0.114 0.505 0.015 0.086 0.030 0.172 0.046 0.259 0.013 0.092 0.028 0.182 0.042 0.277 0.058 0.179 0.116 0.363 0.176 0.551 0.060 0.183 0.124 0.372 0.197 0.566 0.021-0.314 0.084 0.222 0.189 0.13 0.031 0.080 0.051 0.135 0.066 0.173 0.004 0.028 0.008 0.067 0.005 0.072v0.002l0.013 0.581c-0.016 0.14-0.057-0.175-0.083-0.152 0.056 0.411-0.026 0.181-0.016 0.457 0.038-0.063 0.087 0.132 0.108 0.369l0.007-0.338c0.076 0.27 0.071 0.382 0.068 0.525 0.010 0.159 0.005 0.273 0.118 0.568l-0.085-0.169c0.039 0.112 0.089 0.302 0.145 0.507 0.031 0.103 0.061 0.209 0.090 0.312 0.018 0.050 0.035 0.101 0.050 0.149 0.020 0.054 0.039 0.104 0.055 0.152 0.023 0.050 0.028 0.057 0.040 0.081 0.013 0.020 0.024 0.038 0.035 0.055 0.023 0.036 0.049 0.068 0.070 0.092 0.005 0.055-0.002 0.132-0.061 0.013 0.074 0.194 0.161 0.399 0.254 0.601 0.096 0.209 0.194 0.419 0.287 0.619 0.052 0.072 0.103 0.141 0.152 0.208 0.043 0.061 0.085 0.121 0.125 0.18 0.080 0.118 0.149 0.229 0.204 0.336l-0.055-0.029c0.082 0.107 0.18 0.162 0.248 0.32-0.018 0-0.059-0.028-0.026 0.024 0.016 0.019 0.051 0.058 0.094 0.105 0.020 0.024 0.040 0.048 0.064 0.075 0.024 0.031 0.041 0.048 0.083 0.107 0.029 0.027 0.060 0.057 0.088 0.083 0.023 0.023 0.042 0.043 0.061 0.064l-0.134-0.081c0.479 0.518 0.834 0.687 1.275 1.075-0.066 0.067 0.313 0.464 0.503 0.661l-0.017 0.002c0.145 0.138 0.281 0.26 0.415 0.377 0.128 0.122 0.254 0.236 0.377 0.345 0.126 0.111 0.246 0.22 0.375 0.331 0.061 0.058 0.125 0.114 0.189 0.173 0.034 0.029 0.066 0.059 0.099 0.090 0.037 0.035 0.076 0.070 0.114 0.107 0.015 0.007 0.030 0.019 0.048 0.029 0.111 0.115 0.291 0.258 0.503 0.413 0.108 0.076 0.222 0.158 0.34 0.241 0.13 0.091 0.265 0.183 0.401 0.276 0.155 0.043 0.311 0.087 0.461 0.129 0.134 0.040 0.263 0.081 0.382 0.121-0.107-0.045 0.036-0.066 0.167-0.042 0.167 0.063 0.489 0.060 0.439 0.136l-0.059-0.018c0.016 0.017 0.040 0.035 0.068 0.052 0.012 0.007 0.026 0.016 0.042 0.024 0.020 0.006 0.010 0.004 0.017 0.011-0.007 0.001 0.048 0.036 0.086 0.059 0.043 0.025 0.085 0.052 0.13 0.077 0.091 0.050 0.186 0.102 0.272 0.149l0.094-0.075c0.099 0.087 0.217 0.17 0.345 0.25 0.063 0.040 0.128 0.082 0.195 0.119 0.075 0.042 0.15 0.080 0.226 0.121l0.231 0.077c0.070 0.021 0.139 0.041 0.208 0.063 0.138 0.043 0.275 0.084 0.397 0.121 0.246 0.079 0.447 0.16 0.557 0.248 0.028 0.005 0.035 0.006 0.094 0.020 0.084 0.011 0.177 0.022 0.268 0.033 0.087 0.009 0.172 0.021 0.25 0.024l-0.022 0.057c0.191 0.043 0.344 0.077 0.502 0.112 0.079 0.017 0.159 0.034 0.246 0.052 0.098 0.019 0.203 0.040 0.321 0.064 0.068-0.006 0.197-0.021 0.34-0.033l-0.123 0.053c0.345-0.023 0.423-0.206 0.74-0.231l0.101 0.083 0.263-0.016 0.272-0.011 0.336-0.048 0.318-0.050c0.211-0.036 0.42-0.083 0.625-0.149-0.007 0.015-0.023 0.044-0.118 0.064 0.083-0.013 0.213-0.032 0.351-0.053 0.078-0.004 0.157-0.007 0.231-0.011 0.079-0.005 0.155-0.013 0.217-0.022 0.113-0.016 0.184-0.039 0.168-0.074 0.072 0.056 0.633-0.048 0.937-0.11l-0.044 0.066c0.266-0.11 0.272-0.132 0.65-0.2 0.091-0.004 0.085 0.035-0.035 0.035 0.304-0.006 0.226-0.083 0.595-0.097l-0.13 0.055c0.151-0.017 0.222-0.030 0.274-0.046s0.084-0.034 0.191-0.070c0.001-0.001 0.006-0.006 0.011-0.009 0.025-0.019 0.054-0.042 0.084-0.064 0.024-0.016 0.052-0.031 0.079-0.050 0.056-0.035 0.116-0.072 0.175-0.101 0.115-0.059 0.22-0.099 0.254-0.088 0.017-0.051 0.136-0.178 0.299-0.265 0.032 0.004-0.018 0.049-0.042 0.072 0.107-0.058 0.197-0.116 0.276-0.169 0.040-0.029 0.076-0.054 0.114-0.081l0.050-0.039 0.031-0.024c0.016-0.009 0.064-0.027 0.108-0.040 0.043-0.015 0.084-0.031 0.127-0.044 0.084-0.024 0.171-0.043 0.268-0.052 0.012 0.016 0.034 0.020 0.066 0.018-0.235 0.059-0.441 0.114-0.558 0.143-0.024 0.015-0.043 0.026-0.053 0.031-0.009 0.006-0.015 0.009-0.018 0.010 0.013 0.020 0.083-0.005 0.091 0.006 0.015 0.005 0.021 0.011 0.029 0.020 0.004 0.009-0.001 0.026 0 0.042 0 0.003 0.001 0.007 0.002 0.011 0-0.002 0.001-0.007 0.002-0.011 0.017-0.006 0.034-0.014 0.050-0.022 0.038-0.015 0.075-0.032 0.114-0.050 0.078-0.032 0.16-0.066 0.244-0.101 0.167-0.068 0.342-0.129 0.496-0.156 0.016 0.001 0.031 0.001 0.044 0.005l-0.031 0.013c0.074-0.013 0.141-0.035 0.2-0.059 0.051-0.009 0.093-0.018 0.134-0.026 0.047-0.009 0.063-0.013 0.16-0.037 0.017 0.005 0.057 0.001 0.117-0.011 0.035-0.035 0.079-0.081 0.127-0.136 0.027-0.032 0.055-0.065 0.084-0.101 0.058-0.070 0.12-0.142 0.162-0.193-0.054-0.026 0.087-0.185-0.072-0.068 0.003 0.001-0.031 0.047-0.091 0.119-0.013 0.021-0.031 0.044-0.039 0.059 0-0.004 0.001-0.009 0.002-0.015l-0.217 0.265-0.184 0.050c0.038-0.022 0.113-0.050 0.169-0.072 0.020-0.028 0.041-0.057 0.063-0.086 0.017-0.023 0.037-0.049 0.057-0.074 0.033-0.043 0.073-0.083 0.123-0.123 0.025-0.091 0.057-0.188 0.075-0.241 0.211-0.12 0.531-0.43 0.608-0.443 0.054-0.071 0.108-0.147 0.167-0.224 0.080-0.068 0.163-0.139 0.244-0.208 0.087-0.076 0.17-0.149 0.252-0.219 0.159-0.146 0.295-0.284 0.371-0.401 0.104-0.1 0.149-0.077 0.202-0.097-0.060 0.061-0.138 0.122-0.163 0.162 0.202-0.21 0.687-0.512 0.695-0.617 0.318-0.182-0.126 0.177 0.276-0.121l-0.040 0.057c0.107-0.056 0.203-0.114 0.296-0.175 0.046-0.032 0.090-0.063 0.134-0.092 0.055-0.040 0.11-0.079 0.162-0.119l0.066-0.123 0.042-0.084 0.075-0.169c0.050-0.112 0.101-0.224 0.151-0.338 0.1-0.224 0.219-0.471 0.356-0.693 0.079-0.074 0.188-0.168 0.303-0.257-0.013 0.009-0.024 0.015-0.033 0.016 0.146-0.128 0.288-0.263 0.43-0.399l0.209-0.209 0.222-0.219c0.292-0.467 0.536-0.88 0.836-1.341l0.088-0.272 0.088-0.254c0.060-0.17 0.124-0.335 0.191-0.498 0.098-0.256 0.096-0.336 0.107-0.474 0-0.036 0.004-0.078 0.004-0.129l0.077-0.061 0.007-0.371c0.063-0.516 0.345-0.84 0.402-1.499l-0.061 0.074c0.063-0.227 0.151-0.733 0.189-0.682-0.001-0.027-0.026-0.083 0.017-0.169h0.037l0.011-0.085 0.020-0.114-0.044-0.123v0.005l-0.035-0.096-0.075-0.193c-0.094-0.438 0.148 0.035-0.015-0.599-0.078-0.231-0.276-0.643-0.274-0.549 0.024 0.095 0.046 0.247 0.015 0.265l-0.074-0.209c-0.006-0.001-0.015-0.002-0.022-0.004l-0.011-0.035 0.312-1.534-0.276-1.029 0.024 0.020-0.037-0.070-0.088-0.327c0.013 0.006 0.034 0.033 0.055 0.097-0.007-0.096-0.021-0.144-0.039-0.191-0.039-0.067-0.069-0.088-0.097-0.222-0.004-0.025 0.006-0.018 0.018 0l-0.125-0.208c0.036 0.035 0.040-0.063 0.090 0.077-0.134-0.415-0.354-0.606-0.362-0.781l0.022 0.029c-0.209-0.397-0.149-0.21-0.219-0.259l-0.004-0.011-0.037-0.261 0.083-0.222-0.072-0.052c-0.006-0.060-0.016-0.182 0.013-0.164-0.073-0.222-0.024 0.043-0.083-0.085 0.015-0.233-0.064-0.565-0.068-0.774-0.033-0.059-0.054-0.107-0.040-0.134-0.107-0.060 0.146 0.261-0.079 0.016 0.035-0.14-0.233-0.285-0.356-0.535 0.096 0.033 0.225 0.26 0.103 0.011-0.175-0.075-0.297-0.439-0.448-0.612-0.071 0.037-0.319-0.386-0.564-0.683 0.036 0.004-0.391-0.612-0.564-0.928l0.015 0.002c-0.103-0.013-0.299-0.326-0.465-0.54 0.044-0.017 0.088 0.012 0.187 0.121l-0.141-0.211c-0.055-0.035-0.108-0.094-0.208-0.224l0.084 0.022-0.075-0.101-0.103-0.086-0.090-0.074c-0.060-0.048-0.125-0.1-0.189-0.151-0.128-0.106-0.26-0.219-0.391-0.364-0.037 0.018 0.045 0.167-0.011 0.176l-0.171-0.16c0.019-0.007 0.048-0.002 0.097 0.033-0.032-0.024-0.121-0.075-0.171-0.138l0.169 0.088c-0.131-0.15-0.105-0.040-0.219-0.151 0.032-0.028-0.063-0.101-0.024-0.11 0.032 0.024 0.089 0.105 0.145 0.134-0.063-0.061-0.145-0.146-0.182-0.197-0.027-0.054-0.066-0.132-0.072-0.165-0.011 0.028-0.046 0.037-0.129-0.064-0.205-0.267-0.030-0.124-0.13-0.294-0.072-0.047-0.178-0.236-0.231-0.204-0.059-0.079-0.048-0.109-0.057-0.151-0.035-0.034-0.087-0.098-0.143-0.167-0.067-0.082-0.136-0.171-0.195-0.244-0.205-0.051-0.257-0.053-0.187 0l0.050 0.018c-0.011-0.001-0.023-0.005-0.035-0.007-0.237-0.041-0.472-0.111-0.707-0.187l-0.353-0.118c-0.112-0.038-0.219-0.074-0.329-0.108l-0.094-0.081-0.11-0.088 0.013-0.015c-0.273-0.202-0.581-0.48-0.794-0.604-0.076-0.064-0.155-0.182-0.107-0.173-0.031-0.023-0.059-0.045-0.077-0.059-0.048-0.020-0.088-0.035-0.127-0.050-0.036-0.015-0.070-0.030-0.107-0.046-0.073-0.036-0.158-0.083-0.296-0.169 0.25 0.083-0.067-0.068 0.252 0.096-0.294-0.166-0.349-0.23-0.696-0.34 0.132 0.005-0.192-0.172-0.351-0.233l0.198 0.141c-0.047-0.020-0.091-0.040-0.134-0.061-0.049-0.024-0.098-0.049-0.145-0.074-0.080-0.012-0.155-0.022-0.231-0.035l0.094-0.059c-0.333-0.087-0.644-0.090-0.935-0.099-0.145-0.004-0.284-0.010-0.421-0.028-0.134-0.019-0.26-0.063-0.382-0.121-0.187 0.013 0.361 0.105 0.191 0.13-0.308-0.070-0.612-0.233-0.709-0.25-0.171-0.051-0.272-0.056-0.362-0.053-0.046 0.002-0.085 0.005-0.132 0.007-0.023 0.001-0.050 0.001-0.075 0-0.029-0.001-0.049-0.001-0.101-0.009-0.032 0-0.066 0.002-0.105 0.002-0.034 0-0.071-0.003-0.114-0.005 0.059 0.027 0.114 0.092-0.226 0.112-0.316-0.015-0.388-0.111-0.187-0.129 0.076-0.001 0.113 0.007 0.11 0.017 0.103-0.007 0.236-0.016 0.11-0.046l-0.042 0.026c-0.156-0.029-0.591-0.033-0.487-0.074-0.241 0.022-0.106 0.039 0.072 0.055-0.262-0.029-0.462-0.025-0.667-0.028-0.096-0.006-0.229-0.019-0.369-0.040 0.065 0.020 0.124 0.054 0.059 0.048-0.609-0.087-0.273 0.022-0.687-0.004-0.232-0.059 0.092-0.083-0.327-0.088-0.253-0.050-0.048-0.071 0.053-0.083-0.046 0.001-0.090 0.001-0.134 0l-0.094-0.005c-0.037-0.004-0.073-0.007-0.108-0.011h-0.002v-0zM12.829 4.899c0.037-0 0.076 0.003 0.112 0.003 0.473 0.002 0.947 0 1.421 0 0.55 0 1.116-0.005 1.65 0.106 0.132 0.027 0.246 0.027 0.384 0.036 0.103 0.006 0.192 0.046 0.297 0.051 0.279 0.013 0.564-0.001 0.844-0.001h1.963c0.139 0 0.4-0.021 0.438 0.141 0.014 0.061-0 0.153-0.004 0.216-0.004 0.078-0.036 0.098-0.052 0.164-0.021 0.088 0.016 0.197 0.004 0.289-0.010 0.076-0.041 0.112-0.051 0.189-0.015 0.109-0.029 0.243-0.144 0.312-0.098 0.057-0.103 0.045-0.099 0.165 0.004 0.102-0.031 0.107-0.051 0.189-0.034 0.132 0.002 0.319 0.002 0.454v0.5c0 0.080-0.006 0.16-0.001 0.239 0.004 0.081 0.067 0.16 0.050 0.238l-0.001 0.002c-0.047-0.082-0.074-0.134-0.091-0.168 0.019 0.114 0.015 0.303-0.065 0.35s-0.161-0.009-0.235-0.027c-0.082-0.022-0.163 0.005-0.245-0.009-0.065-0.011-0.176-0.041-0.199-0.094-0.024-0.053 0.004-0.18 0.004-0.242 0-0.082-0.001-0.164-0.001-0.246 0.001-0.132-0.026-0.214-0.051-0.335-0.023-0.114 0.006-0.259 0.027-0.371 0.020-0.111 0.001-0.227 0.021-0.334 0.019-0.103 0.124-0.242-0.008-0.323-0.107-0.067-0.392-0.010-0.524-0.010h-0.823c-0.134 0-0.269 0.005-0.402 0.001-0.161-0.005-0.304-0.065-0.462-0.086-0.345-0.046-0.688-0.047-1.032-0.096-0.404-0.056-0.848-0.010-1.257-0.011-0.183 0-0.289 0.022-0.428 0.14-0.073 0.062-0.178 0.194-0.199 0.287-0.010 0.047 0.017 0.101 0.005 0.148-0.006 0.026-0.036 0.039-0.040 0.056-0.015 0.067-0.011 0.133-0.011 0.204 0.001 0.171 0.007 0.324 0.038 0.492 0.026 0.15 0.010 0.292 0.048 0.437 0.022 0.085 0.047 0.269-0.048 0.324-0.094 0.055-0.345 0.010-0.454 0.010-0.13 0-0.286 0.022-0.411-0.008 0.010-0.083 0.037-0.185 0.055-0.268 0.007-0.036 0.033-0.055 0.040-0.104 0.007-0.043-0.001-0.1-0.001-0.144v-0.525c0-0.175-0.026-0.374-0.001-0.548 0.012-0.093 0.051-0.163 0.050-0.262-0.001-0.092 0.011-0.15 0.042-0.226-0.066-0.054-0.101-0.086-0.176-0.119-0.073-0.032-0.154-0.028-0.221-0.071-0.138-0.086-0.084-0.312-0.084-0.452 0-0.092-0.024-0.236-0.002-0.325 0.010-0.040 0.044-0.050 0.055-0.091 0.007-0.030-0.014-0.069-0.005-0.1 0.030-0.101 0.106-0.082 0.188-0.103 0.045-0.011 0.047-0.030 0.108-0.039 0.011-0.001 0.024-0.002 0.036-0.002zM15.069 8.42c0.039-0.001 0.094 0.007 0.119 0.007 0.082 0.001 0.164 0 0.245 0 0.127 0 0.273-0.020 0.394 0.011 0.104 0.027 0.179 0.037 0.292 0.037 0.194 0 0.358 0.039 0.544 0.084 0.26 0.065 0.601 0.011 0.874 0.011 0.088 0 0.209-0.022 0.294-0.004 0.133 0.029 0.078 0.097 0.094 0.194 0.019 0.117 0.097 0.214 0.102 0.334 0.004 0.098 0.037 0.145 0.048 0.237 0.024 0.19 0.050 0.386 0.096 0.573 0.016 0.069 0.047 0.117 0.051 0.19 0.005 0.057-0.015 0.124-0.004 0.181 0.012 0.061 0.042 0.102 0.055 0.164 0.010 0.058-0.017 0.123-0.005 0.181 0.040 0.209 0.094 0.42 0.138 0.627 0.082 0.389 0.079 0.798 0.146 1.183 0.031 0.175-0.009 0.356 0.022 0.534 0.048 0.289 0.021 0.569 0.035 0.861 0.015 0.304 0.057 0.615 0.114 0.914 0.045 0.235 0.036 0.466 0.035 0.703 0 0.454 0.094 0.899 0.173 1.347 0.086 0.484 0.174 0.971 0.257 1.457 0.034 0.195 0.063 0.42 0.061 0.617-0.004 0.338 0.036 0.664 0.047 1 0.010 0.334 0.103 0.658 0.099 0.993-0.001 0.226-0.001 0.452-0.001 0.677 0 0.187-0.001 0.375 0 0.562 0.001 0.113-0.035 0.187-0.048 0.293l0.001-0c-0.246 0.144-0.548 0.165-0.841 0.145-0.098-0.006-0.187-0.048-0.285-0.052-0.106-0.006-0.188 0.001-0.291-0.023-0.157-0.035-0.288-0.027-0.437-0.089-0.007-0.056 0.026-0.163 0.042-0.216 0.035-0.118 0.089-0.227 0.114-0.349 0.026-0.12 0.032-0.24 0.070-0.358 0.022-0.068 0.051-0.128 0.065-0.199 0.106-0.586 0.145-1.176 0.145-1.772v-1.609c0-0.43-0.014-0.846-0.050-1.274-0.010-0.119-0.043-0.235-0.051-0.354-0.009-0.127 0.015-0.25-0.009-0.376-0.043-0.241-0.051-0.479-0.091-0.719-0.046-0.278-0.184-0.538-0.23-0.821-0.035-0.219-0.055-0.437-0.097-0.654-0.057-0.294-0.061-0.579-0.061-0.879 0-0.286 0.004-0.55 0.039-0.832 0.024-0.205-0.005-0.41 0.022-0.615 0.018-0.148 0.045-0.293 0.076-0.438 0.046-0.225 0.010-0.487 0.010-0.714 0-0.112 0.067-0.518-0.038-0.585-0.002-0.020 0.005-0.036 0.020-0.048-0.043-0.036-0.181-0.103-0.237-0.119-0.118-0.035-0.248 0.011-0.369-0.009-0.081-0.014-0.128-0.061-0.202-0.087-0.077-0.027-0.162-0.018-0.24-0.045-0.144-0.051-0.252-0.084-0.4-0.107-0.161-0.026-0.25-0.109-0.295 0.093-0.027 0.124-0.022 0.256-0.045 0.38-0.016 0.091-0.049 0.156-0.052 0.253-0.003 0.058 0.001 0.119 0.001 0.179v0.329c0 0.097 0.015 0.204 0.004 0.299-0.012 0.104-0.070 0.185-0.092 0.286-0.055 0.243-0.051 0.497-0.097 0.74-0.037 0.2-0.011 0.426-0.011 0.629 0 0.289-0.001 0.58 0.001 0.869 0.006 0.697-0.168 1.401-0.281 2.086-0.048 0.296-0.128 0.586-0.212 0.873-0.050 0.172-0.020 0.327-0.053 0.497-0.025 0.127-0.107 0.232-0.13 0.359-0.050 0.258-0.072 0.528-0.107 0.788-0.026 0.197-0.098 0.384-0.098 0.582 0 0.174-0.061 0.341-0.087 0.513-0.023 0.16-0.010 0.324-0.010 0.485 0 0.802-0.146 1.584-0.146 2.383-0.001 0.125-0.004 0.25-0.001 0.374 0.001 0.029 0.018 0.119-0.007 0.144-0.041 0.039-0.23 0.008-0.287 0.008-0.227 0-0.457 0.008-0.684-0.001-0.088-0.003-0.149-0.022-0.233-0.036-0.037-0.006-0.13 0.002-0.163-0.017-0.073-0.047-0.002-0.196 0.015-0.268 0.015-0.060 0.050-0.143 0.075-0.211 0.061-0.174 0.050-0.34 0.097-0.515 0.12-0.438 0.192-0.889 0.246-1.342 0.051-0.415 0.129-0.826 0.173-1.239 0.041-0.394 0.083-0.787 0.144-1.178 0.088-0.558 0.153-1.121 0.246-1.679 0.066-0.394 0.107-0.795 0.184-1.186 0.12-0.621 0.13-1.253 0.257-1.871 0.106-0.522 0.182-1.039 0.232-1.568 0.024-0.254 0.078-0.504 0.108-0.757 0.031-0.261 0.057-0.531 0.098-0.79 0.062-0.384 0.095-0.786 0.185-1.16 0.015-0.066-0.025-0.067 0.045-0.097 0.007-0.003 0.018-0.005 0.031-0.005zM11.481 9.082c0.044 0.001 0.084 0.004 0.115 0.011 0.104 0.025 0.168 0.050 0.292 0.050l2.42 0.001c-0.195 0.411-0.313 0.695-0.435 0.934-0.057 0.113-0.038 0.283-0.199 0.309-0.098 0.018-0.191-0.044-0.286-0.055-0.068-0.007-0.145 0.002-0.214 0.002-0.334 0-0.709 0.044-1.039-0.004-0.242-0.034-0.467-0.043-0.714-0.043-0.16 0-0.332 0.016-0.491 0.001-0.052-0.005-0.129-0.003-0.168-0.047-0.051-0.060 0.001-0.053 0.013-0.108 0.020-0.101 0.035-0.197 0.060-0.299 0.015-0.062 0.034-0.106 0.062-0.166 0.026-0.055 0.020-0.11 0.040-0.163 0.029-0.073 0.099-0.154 0.13-0.228 0.047-0.11 0.077-0.166 0.206-0.181 0.054-0.007 0.134-0.013 0.206-0.012zM19.29 9.455c0.137 0 0.271 0.008 0.398 0.033 0.13 0.025 0.262 0.049 0.394 0.073 0.099 0.019 0.194-0.004 0.292 0.009 0.086 0.010 0.156 0.049 0.246 0.051 0.074 0.002 0.096-0.004 0.156 0.032 0.096 0.056 0.168 0.204 0.221 0.299 0.050 0.091 0.077 0.185 0.122 0.274 0.046 0.091 0.115 0.163 0.171 0.252 0.081 0.128 0.098 0.192-0.086 0.189-0.62-0.011-1.239 0.002-1.859 0-0.066 0-0.139-0.009-0.205-0.002-0.102 0.010-0.181 0.072-0.286 0.042-0.123-0.035-0.251-0.124-0.281-0.241-0.015-0.061 0.002-0.118-0.008-0.18-0.012-0.069-0.049-0.117-0.054-0.19-0.006-0.127 0.001-0.256 0.099-0.62l0-0.001c0.216 0 0.45-0.021 0.678-0.021zM9.747 10.995c0.066-0.001 0.137 0.031 0.199 0.042 0.089 0.018 0.168 0.026 0.255 0.048 0.251 0.063 0.534-0.012 0.784 0.047 0.236 0.057 0.517 0.004 0.759 0.035 0.428 0.055 0.874 0.024 1.305 0.024h0.919c-0.050 0.5-0.081 0.654-0.145 0.809-0.045 0.107-0.084 0.262-0.154 0.353-0.078 0.103-0.169 0.077-0.297 0.077h-2.978c-0.404 0-0.823 0.048-1.213-0.058 0.053-0.153 0.185-0.297 0.227-0.466 0.023-0.091 0.031-0.173 0.056-0.263 0.021-0.077 0.031-0.139 0.053-0.214 0.020-0.066 0.035-0.122 0.061-0.19 0.027-0.068 0.021-0.171 0.085-0.217 0.026-0.019 0.055-0.027 0.085-0.027zM21.717 11.222c0.095 0 0.188 0.007 0.271 0.029 0.091 0.022 0.146 0.038 0.245 0.036 0.102-0.001 0.151-0.005 0.21 0.085 0.034 0.051 0.053 0.103 0.093 0.153 0.071 0.089 0.117 0.084 0.137 0.191 0.027 0.15 0.089 0.312 0.153 0.448 0.027 0.057 0.041 0.114 0.066 0.173 0.032 0.077 0.117 0.138 0.119 0.231-0.19 0.047-0.435 0.005-0.631 0.005h-0.736c-0.661 0-1.295-0.072-1.943-0.179-0.087-0.015-0.169-0.010-0.256-0.011-0.089-0.001-0.138-0.026-0.219-0.043-0.133-0.029-0.296 0.018-0.419-0.060-0.108-0.068-0.122-0.312-0.156-0.421-0.016-0.051-0.062-0.111-0.074-0.154-0.024-0.086-0.011-0.185 0.135-0.466v0.001h2.541c0.141 0 0.307-0.018 0.466-0.017zM8.318 13.184c0.104 0.001 0.246 0.056 0.328 0.057 0.335 0.009 0.672-0.001 1.007 0 0.292 0 0.559 0.047 0.848 0.047 0.878 0.001 1.756 0 2.634 0l-0 0c-0.098 0.395-0.088 0.465-0.097 0.525-0.009 0.066-0.039 0.081-0.052 0.139-0.026 0.107 0.018 0.227-0.009 0.336-0.046 0.185-0.108 0.191-0.291 0.19-0.192-0.001-0.385 0-0.577 0h-3.271c-0.232 0-0.464-0.001-0.697 0-0.077 0.001-0.16 0.012-0.235-0.009 0.055-0.125 0.111-0.264 0.147-0.395 0.035-0.127 0.088-0.256 0.093-0.381 0.003-0.074-0.009-0.144 0.011-0.215 0.009-0.034 0.033-0.060 0.040-0.096 0.008-0.040-0.014-0.083-0.005-0.122 0.014-0.061 0.063-0.079 0.125-0.078zM19.149 13.288l0.001 0h2.419c0.374 0 0.735 0.047 1.109 0.047 0.218 0.001 0.415 0.050 0.629 0.048 0.113-0.001 0.364-0.047 0.461 0.001 0.087 0.043 0.061 0.14 0.076 0.215 0.011 0.053 0.037 0.099 0.062 0.152 0.072 0.149 0.105 0.328 0.145 0.49 0.036 0.144 0.112 0.272 0.132 0.421-0.683 0.129-1.444 0.055-2.146 0.055h-2.064c-0.23 0-0.458 0.015-0.677-0.037-0.088-0.021-0.125 0.011-0.149-0.079-0.016-0.065 0.001-0.173 0.002-0.241 0.001-0.155-0.073-0.253-0.1-0.405-0.015-0.087-0.012-0.153-0.035-0.238-0.021-0.077-0.011-0.158 0.135-0.428zM7.298 15.093c0.054-0.001 0.12 0.021 0.164 0.029 0.21 0.039 0.421 0.118 0.636 0.125 0.281 0.009 0.543-0.017 0.821 0.043 0.284 0.063 0.59 0.074 0.88 0.092 0.267 0.015 0.519 0 0.782 0.041 0.255 0.038 0.529 0.010 0.786 0.010 0.622 0 1.243 0 1.865 0.096l0-0.002v0.762c0 0.045 0.022 0.154 0.004 0.194-0.031 0.066-0.086 0.046-0.158 0.045-0.258-0.005-0.517 0-0.775 0-0.282 0-0.567-0.010-0.849-0.002-0.183 0.005-0.356 0.047-0.539 0.052-0.186 0.004-0.374-0.002-0.561-0.002h-0.631c-0.301 0-0.582-0.087-0.882-0.097-0.206-0.005-0.4-0.083-0.597-0.094-0.209-0.013-0.4-0.050-0.612-0.046-0.178 0.002-0.337-0.050-0.513-0.048-0.122 0.001-0.356 0.055-0.283-0.133 0.016-0.042 0.077-0.097 0.101-0.143 0.026-0.048 0.047-0.099 0.071-0.154 0.030-0.065 0.066-0.129 0.099-0.191 0.048-0.088 0.039-0.118 0.060-0.216 0.012-0.053 0.041-0.085 0.052-0.138 0.010-0.046-0.029-0.151 0-0.191 0.018-0.024 0.046-0.032 0.079-0.032zM24.788 15.414c0.055-0.002 0.104 0.001 0.136 0.015 0.083 0.037 0.045 0.268 0.070 0.359 0.019 0.071 0.048 0.145 0.063 0.216 0.016 0.079-0.004 0.161 0.020 0.24 0.050 0.164 0.2 0.216 0.287 0.351 0.032 0.052 0.049 0.060 0.048 0.124-0.001 0.096-0.011 0.086-0.099 0.096-0.158 0.017-0.333 0-0.492 0h-2.336c-0.359 0-0.712 0.015-1.065-0.037-0.291-0.045-0.585-0.062-0.88-0.058-0.114 0.001-0.191-0.036-0.3-0.051-0.106-0.014-0.229 0.002-0.334 0.002-0.071 0-0.148 0.009-0.217 0.001-0.119-0.014-0.076-0.016-0.102-0.119-0.077-0.294-0.283-0.574-0.191-1.073v0.001c1.268 0 2.536-0.002 3.803 0 0.286 0.001 0.562-0.050 0.846-0.047 0.163 0.001 0.325 0 0.487 0 0.060 0 0.166-0.016 0.257-0.019zM5.125 17.295c0.12 0.101 0.43 0.043 0.576 0.043 0.344 0 0.69-0.015 1.032 0.024 0.259 0.029 0.515 0.057 0.775 0.070 0.115 0.005 0.235 0.040 0.349 0.061 0.268 0.050 0.528 0.087 0.8 0.108 0.431 0.034 0.865 0.070 1.293 0.132 0.376 0.054 0.749 0.070 1.123 0.119 0.345 0.047 0.713 0.011 1.060 0.011h0.514l-0 0.001c-0.225 0.355-0.205 0.553-0.134 0.762 0.035 0.104 0.097 0.304-0.035 0.335-0.184 0.044-0.466-0.001-0.644-0.001-0.287 0-0.571 0.011-0.853-0.037-0.2-0.035-0.42-0.011-0.621-0.011h-0.985c-0.375 0-0.74-0.006-1.112-0.037-0.335-0.027-0.672 0.021-1.001-0.056-0.128-0.030-0.251-0.071-0.383-0.091-0.171-0.025-0.356-0.008-0.53-0.008-0.281 0.002-0.562 0.001-0.843 0.001-0.184 0-0.367-0.002-0.55 0-0.069 0-0.163 0.021-0.212-0.033 0.047-0.053 0.017-0.098 0.027-0.158 0.010-0.057 0.034-0.139 0.050-0.192 0.031-0.099 0.087-0.181 0.127-0.282 0.047-0.122 0.048-0.26 0.068-0.384 0.021-0.128 0.092-0.245 0.111-0.376zM25.646 17.67c0.024 0 0.047 0 0.070 0.001 0.096 0.004 0.165 0.040 0.255 0.051 0.135 0.016 0.309-0.047 0.417 0.045 0.093 0.078 0.035 0.264 0.060 0.392 0.030 0.154 0.068 0.319 0.148 0.458 0.038 0.068 0.055 0.115 0.086 0.191 0.026 0.060 0.066 0.091 0.098 0.148 0.027 0.050 0.139 0.279 0.091 0.329-0.029 0.029-0.166 0.011-0.206 0.017-0.21 0.035-0.416 0.058-0.629 0.026-0.342-0.050-0.687-0.074-1.027-0.132-0.621-0.103-1.224-0.082-1.851-0.093-0.248-0.004-0.491-0.058-0.735-0.088-0.189-0.023-0.383-0.009-0.572-0.009-0.312-0.001-0.625 0-0.936 0-0.245 0-0.5 0.025-0.73-0.037-0.174-0.048-0.381 0.065-0.505-0.092-0.071-0.088-0.055-0.159-0.084-0.256-0.024-0.076-0.052-0.097-0.051-0.188 0.002-0.159 0-0.318 0.098-0.762h-0l0-0c0 0 0 0 0 0h5.794c0.071 0 0.142-0.002 0.213-0.002zM20.159 20.195c0.070-0.002 0.124 0.015 0.195 0.037 0.178 0.053 0.36 0.061 0.544 0.089 0.724 0.113 1.448 0.213 2.182 0.21 1.211-0.005 2.422 0 3.634 0h0.652c0.099 0 0.304-0.041 0.395-0.004 0.084 0.036 0.045 0.209 0.045 0.297 0 0.124-0.014 0.253 0.011 0.376 0.020 0.101 0.019 0.212 0.042 0.309 0.026 0.11 0.106 0.21 0.155 0.306 0.063 0.119 0.035 0.278 0.047 0.41 0.009 0.076 0.060 0.083-0.056 0.114-0.071 0.019-0.156 0.004-0.228 0.005-0.152 0.008-0.302 0.032-0.454 0.040-0.358 0.017-0.748 0.034-1.105 0-0.191-0.017-0.364-0.046-0.556-0.045-0.308 0.001-0.621 0.020-0.926-0.010-0.297-0.027-0.582-0.037-0.88-0.035-0.288 0.001-0.568-0.042-0.854-0.052-0.417-0.015-0.838 0.015-1.255 0.005-0.165-0.005-0.318-0.045-0.481-0.052-0.148-0.008-0.299 0.002-0.448 0.002-0.135 0-0.36 0.042-0.488 0.002-0.020-0.005-0.057-0.038-0.065-0.040-0.031-0.008-0.087 0.002-0.108-0.014-0.066-0.047-0.016-0.119 0.009-0.183 0.047-0.122 0.077-0.252 0.1-0.38 0.041-0.216 0.011-0.42-0.077-0.617-0.072-0.161-0.109-0.261-0.060-0.769-0 0-0 0-0 0l0-0.002c-0 0.001-0 0.001-0 0.002 0.011-0.001 0.021-0.002 0.031-0.002zM4.698 20.283c0.040-0.001 0.079 0.001 0.115 0.007 0.073 0.012 0.13 0.043 0.206 0.052 0.345 0.038 0.721-0.002 1.069-0.002h6.165c0-0.001 0.001-0.001 0.001-0.002l0 0.002h-0.001c-0.243 0.418-0.194 0.629-0.194 0.861 0 0.125 0.003 0.251-0.001 0.378-0.003 0.102-0.042 0.176-0.057 0.276-0.067 0.011-0.122 0.046-0.188 0.058-0.068 0.014-0.159-0.002-0.23-0.002-0.416 0.001-0.826-0.049-1.242-0.047-0.952 0.004-1.905 0-2.856 0-0.938 0-1.875-0.001-2.813 0-0.286 0-0.567 0.007-0.852-0.024-0.097-0.011-0.319 0.014-0.4-0.051-0.12-0.094 0.016-0.144 0.068-0.221 0.15-0.226 0.145-0.541 0.274-0.782 0.052-0.099 0.135-0.243 0.166-0.351 0.015-0.054-0.007-0.109 0.036-0.142 0.026-0.020 0.112-0.002 0.145-0.001 0.129 0.001 0.258-0.001 0.389 0 0.061 0 0.13-0.008 0.197-0.009z"></path>
</svg>
