<!-- Generated by IcoMoon.io -->
<svg version="1.1" xmlns="http://www.w3.org/2000/svg" width="34" height="32" viewBox="0 0 34 32">
<title>return_to_the_miskatonic_museum</title>
<path d="M9.783 23.697c-0.154 0.167-0.386 0.42-0.416 0.551-0.037 0.16 0.122 0.379 0.239 0.538l0.039 0.052c0.17 0.236 0.319 0.471 0.453 0.714 0.005-0.017 0.007-0.036 0.010-0.053 0.062-0.39 0.141-0.786 0.21-1.121 0.020-0.094 0.035-0.265 0.050-0.463 0.043-0.52 0.091-0.98 0.227-1.274-0.011-0.005-0.023-0.010-0.033-0.014-0.163 0.285-0.358 0.553-0.533 0.786-0.063 0.085-0.153 0.181-0.248 0.285z"></path>
<path d="M9.376 13.588c-0.023-0.050-0.047-0.104-0.072-0.158-0.125-0.278-0.286-0.639-0.488-0.842-0.042 0.239-0.132 0.475-0.204 0.658l-0.016 0.042c-0.056 0.144-0.119 0.285-0.18 0.42-0.023 0.050-0.046 0.101-0.068 0.151l-0.024 0.052c-0.013 0.032-0.027 0.063-0.040 0.095-0.155 0.384-0.36 0.541-0.6 0.724-0.045 0.035-0.093 0.070-0.144 0.112-0.514 0.41-0.862 0.602-1.494 0.817-0.037 0.013-0.083 0.032-0.141 0.055-0.016 0.007-0.035 0.014-0.052 0.022l0.055 0.010c0.478 0.092 1.019 0.196 1.471 0.4 0.226 0.102 0.488 0.222 0.748 0.363 0.462 0.249 0.792 0.499 1.038 0.786l0.076 0.088c0.121 0.141 0.263 0.305 0.394 0.472 0.073-0.347 0.141-0.699 0.142-1.020 0.001-0.196-0.027-0.394-0.055-0.586-0.042-0.289-0.085-0.589-0.040-0.914 0.011-0.086 0.069-0.161 0.15-0.193 0 0 0.002-0.002 0.006-0.013 0.036-0.091 0.063-0.417-0.439-1.49l-0.023-0.050z"></path>
<path d="M23.241 22.641c0.137 0.294 0.186 0.754 0.227 1.274 0.017 0.199 0.030 0.37 0.050 0.465 0.069 0.335 0.148 0.731 0.21 1.12 0.002 0.017 0.007 0.036 0.010 0.055 0.134-0.243 0.284-0.479 0.455-0.715l0.037-0.052c0.117-0.16 0.276-0.379 0.24-0.538-0.032-0.131-0.263-0.383-0.417-0.551-0.094-0.102-0.184-0.2-0.248-0.285-0.174-0.233-0.368-0.501-0.531-0.786-0.012 0.006-0.023 0.010-0.035 0.014z"></path>
<path d="M14.346 23.276c-0.036-0.006-0.075-0.009-0.122-0.009-0.049 0-0.098 0.003-0.15 0.006-0.058 0.002-0.117 0.006-0.174 0.006-0.091 0-0.229-0.006-0.377-0.060-0.13-0.047-0.242-0.108-0.35-0.166-0.16-0.086-0.298-0.16-0.465-0.184-0.33-0.047-0.648-0.069-0.986-0.091-0.167-0.012-0.322-0.023-0.471-0.036 0.022 0.154 0.030 0.307 0.037 0.461 0.006 0.094 0.010 0.189 0.019 0.286 0.024 0.299-0.043 0.574-0.108 0.839-0.037 0.153-0.076 0.309-0.094 0.461-0.013 0.122-0.027 0.246-0.042 0.373 0.556-0.728 1.432-1.251 2.368-1.392 0.109-0.016 0.23-0.046 0.36-0.078 0.219-0.053 0.446-0.109 0.665-0.111 0.127 0 0.268 0.030 0.41 0.072-0.109-0.164-0.189-0.37-0.246-0.556-0.029 0.107-0.124 0.181-0.236 0.181-0.013 0-0.026 0-0.039-0.002z"></path>
<path d="M29.532 16.115c-0.266 0.18-0.666 0.259-1.019 0.331-0.135 0.026-0.263 0.052-0.367 0.081-0.537 0.147-1.304 0.4-1.907 0.777-0.203 0.127-0.364 0.315-0.535 0.515-0.158 0.184-0.321 0.374-0.53 0.532-0.127 0.098-0.25 0.248-0.371 0.391-0.079 0.096-0.161 0.194-0.249 0.284l0.076 0.046 0.010 0.007c0.486 0.296 0.99 0.604 1.497 0.879l0.066 0.035c0.995 0.525 1.508 0.911 1.649 1.246-0.096-0.596-0.119-1.219-0.142-1.805-0.010-0.266-0.020-0.52-0.036-0.763-0.255 0.092-0.56 0.155-0.782 0.178-0.026 0.002-0.050 0.005-0.076 0.005-0.066 0-0.13-0.008-0.18-0.016-0.014-0.003-0.027-0.005-0.040-0.006-0.083 0.052-0.148 0.081-0.226 0.081-0.020 0-0.039-0.001-0.069-0.007-0.091-0.013-0.167-0.076-0.197-0.164s-0.008-0.184 0.056-0.25c0.073-0.076 0.164-0.125 0.271-0.145 0.125-0.112 0.284-0.183 0.426-0.245 0.082-0.036 0.167-0.073 0.236-0.115 0.151-0.088 0.307-0.242 0.456-0.389 0.099-0.098 0.201-0.199 0.307-0.285 0.093-0.079 0.193-0.17 0.296-0.268 0.253-0.233 0.514-0.475 0.794-0.606 0.033-0.016 0.069-0.023 0.105-0.023 0.045 0 0.091 0.012 0.13 0.036 0.070 0.043 0.114 0.119 0.117 0.203 0.010 0.337-0.173 0.629-0.35 0.912-0.115 0.186-0.235 0.377-0.272 0.55-0.069 0.318-0.052 0.607-0.033 0.914 0.008 0.131 0.016 0.266 0.019 0.409 0.006 0.393 0.029 0.764 0.053 1.157 0.014 0.245 0.030 0.491 0.040 0.747 0.007 0.157-0.019 0.312-0.045 0.462-0.024 0.145-0.047 0.282-0.035 0.39 0.006 0.045 0.049 0.131 0.083 0.2 0.052 0.102 0.104 0.207 0.128 0.324 0.016 0.076-0.008 0.154-0.059 0.21 0.049 0.032 0.099 0.062 0.142 0.101 0.081 0.071 0.107 0.184 0.065 0.282-0.040 0.091-0.128 0.15-0.226 0.15-0.008 0-0.016-0.001-0.024-0.001-0.036-0.005-0.075-0.008-0.115-0.013-0.125-0.013-0.266-0.029-0.4-0.029-0.317 0-0.41 0.085-0.452 0.15-0.046 0.069-0.122 0.111-0.214 0.111h-0.001c-0.010 0-0.022 0-0.033 0-0.341 0-0.701 0.203-1.051 0.399-0.124 0.070-0.242 0.137-0.363 0.197-0.125 0.062-0.207 0.138-0.312 0.235-0.072 0.065-0.145 0.132-0.239 0.201-0.117 0.086-0.219 0.138-0.302 0.181-0.137 0.069-0.212 0.108-0.309 0.261-0.157 0.242-0.318 0.498-0.427 0.718-0.045 0.091-0.076 0.201-0.111 0.317-0.049 0.168-0.101 0.343-0.2 0.504l-0.089 0.141c-0.115 0.186-0.207 0.331-0.314 0.54-0.008 0.019-0.019 0.039-0.029 0.059-0.049 0.102-0.118 0.248-0.25 0.318-0.020 0.068-0.069 0.125-0.138 0.154-0.030 0.013-0.063 0.019-0.096 0.019-0.081 0-0.157-0.040-0.203-0.107-0.068-0.099-0.091-0.189-0.111-0.266l-0.008-0.035c-0.006-0.020-0.009-0.040-0.009-0.062-0.114-0.292-0.296-0.652-0.415-0.812-0.078-0.107-0.227-0.214-0.373-0.32-0.099-0.072-0.201-0.147-0.291-0.226-0.212-0.191-0.325-0.355-0.458-0.55-0.024-0.035-0.050-0.072-0.078-0.111-0.334-0.476-0.887-0.665-1.291-0.74-0.217-0.039-0.439-0.111-0.655-0.18-0.298-0.096-0.607-0.196-0.866-0.196-0.032 0-0.062 0.001-0.092 0.005-0.008 0.001-0.017 0.001-0.024 0.001-0.118 0-0.219-0.083-0.242-0.199-0.024-0.125 0.049-0.248 0.171-0.284 0.062-0.019 0.137-0.045 0.223-0.075 0.248-0.089 0.53-0.191 0.771-0.191 0.212 0.002 0.439 0.058 0.658 0.111 0.13 0.032 0.252 0.062 0.36 0.078 0.937 0.142 1.813 0.663 2.368 1.393-0.014-0.127-0.029-0.252-0.042-0.373-0.016-0.151-0.055-0.309-0.092-0.461-0.066-0.266-0.134-0.541-0.108-0.84 0.008-0.098 0.013-0.193 0.017-0.286 0.008-0.154 0.017-0.307 0.037-0.459-0.147 0.013-0.302 0.024-0.471 0.036-0.337 0.022-0.656 0.042-0.984 0.089-0.168 0.024-0.305 0.099-0.465 0.184-0.109 0.059-0.222 0.118-0.351 0.167-0.147 0.055-0.285 0.060-0.376 0.060-0.059 0-0.117-0.002-0.178-0.007-0.049-0.001-0.098-0.005-0.147-0.005-0.046 0-0.086 0.002-0.122 0.007-0.013 0.002-0.026 0.005-0.039 0.005-0.114 0-0.213-0.078-0.239-0.19-0.029-0.118 0.035-0.239 0.145-0.285 0.035-0.039 0.096-0.168 0.184-0.387 0.134-0.331 0.249-0.617 0.524-0.617 0.053 0 0.107 0.013 0.155 0.039 0.045 0.023 0.079 0.059 0.104 0.104 0.045 0.086 0.223 0.14 0.466 0.14 0.253 0 0.522-0.056 0.689-0.108 0.060-0.019 0.125-0.049 0.193-0.082 0.105-0.052 0.226-0.109 0.363-0.137 0.029-0.005 0.063-0.007 0.127-0.007 0.045 0 0.101 0.001 0.154 0.002 0.010 0 0.022 0 0.030 0-0.002-0.030-0.007-0.063-0.010-0.081-0.013-0.081-0.027-0.183-0.013-0.291 0.013-0.101 0.085-0.181 0.183-0.206 0.020-0.006 0.040-0.008 0.060-0.008 0.073 0 0.142 0.033 0.189 0.089 0.071-0.259 0.177-0.502 0.281-0.738 0.158-0.361 0.308-0.701 0.32-1.061 0.014-0.465-0.114-0.912-0.249-1.389-0.073-0.253-0.148-0.515-0.2-0.782-0.104-0.53-0.194-1.363-0.108-1.969 0.068-0.469 0.253-0.897 0.435-1.311 0.055-0.127 0.109-0.252 0.161-0.379 0.059-0.147 0.107-0.308 0.158-0.478 0.107-0.36 0.217-0.733 0.458-1.029 0.114-0.138 0.227-0.266 0.338-0.39 0.22-0.246 0.429-0.478 0.6-0.771 0.173-0.293 0.377-0.56 0.576-0.816 0.161-0.21 0.328-0.426 0.471-0.65 0.199-0.314 0.72-1.048 1.248-1.048 0.027 0 0.055 0.002 0.082 0.006 0.099 0.016 0.18 0.088 0.203 0.186 0.024 0.098-0.013 0.199-0.095 0.258-0.104 0.075-0.19 0.184-0.282 0.301-0.033 0.043-0.068 0.085-0.104 0.128-0.089 0.107-0.187 0.197-0.282 0.286-0.128 0.118-0.249 0.229-0.324 0.357-0.104 0.181-0.125 0.412-0.148 0.655-0.008 0.088-0.017 0.177-0.029 0.265-0.030 0.219-0.109 0.404-0.186 0.584-0.081 0.186-0.15 0.347-0.148 0.512 0.008 0.604 0.307 1.59 0.577 2.134 0.227 0.453 0.629 0.581 1.095 0.728 0.151 0.049 0.308 0.098 0.462 0.161 0.344 0.14 0.589 0.23 0.891 0.308 0.081 0.022 0.145 0.082 0.171 0.161 0.016 0.048 0.017 0.096 0.005 0.144 0.115 0.009 0.223 0.029 0.327 0.058 0.092 0.026 0.161 0.102 0.177 0.197 0.016 0.094-0.026 0.19-0.105 0.243zM17.651 23.452c-0.082-0.071-0.124-0.157-0.158-0.224l-0.019-0.036c-0.073-0.138-0.2-0.258-0.322-0.374-0.053-0.049-0.107-0.099-0.153-0.119-0.019-0.007-0.042-0.012-0.065-0.012-0.055 0-0.119 0.020-0.177 0.058-0.088 0.055-0.166 0.144-0.248 0.239s-0.167 0.193-0.279 0.279c-0.079 0.060-0.161 0.099-0.227 0.131-0.104 0.050-0.15 0.075-0.186 0.138-0.009 0.016-0.017 0.033-0.026 0.053-0.026 0.056-0.059 0.125-0.117 0.19-0.049 0.055-0.098 0.089-0.145 0.117 0.069 0.056 0.105 0.147 0.088 0.239-0.023 0.115-0.125 0.199-0.242 0.199-0.008 0-0.016 0-0.024-0.001-0.030-0.002-0.060-0.005-0.092-0.005-0.259 0-0.569 0.099-0.868 0.196-0.214 0.069-0.438 0.141-0.653 0.18-0.404 0.075-0.957 0.263-1.291 0.74-0.029 0.039-0.055 0.078-0.079 0.114-0.132 0.19-0.245 0.355-0.458 0.547-0.088 0.079-0.191 0.154-0.291 0.226-0.144 0.105-0.293 0.213-0.371 0.32-0.118 0.16-0.299 0.517-0.415 0.809v0.001c0 0.026-0.005 0.052-0.013 0.076l-0.005 0.022c-0.020 0.078-0.043 0.167-0.112 0.266-0.046 0.066-0.121 0.107-0.203 0.107-0.033 0-0.065-0.006-0.095-0.019-0.069-0.029-0.118-0.086-0.14-0.154-0.131-0.070-0.201-0.216-0.25-0.32-0.010-0.019-0.019-0.039-0.029-0.058-0.105-0.209-0.197-0.354-0.314-0.54l-0.088-0.142c-0.099-0.16-0.151-0.334-0.2-0.502-0.035-0.115-0.066-0.226-0.112-0.317-0.109-0.22-0.271-0.476-0.426-0.718-0.099-0.153-0.174-0.191-0.309-0.261-0.083-0.043-0.187-0.095-0.302-0.181-0.095-0.069-0.168-0.137-0.239-0.201-0.105-0.096-0.189-0.173-0.312-0.235-0.121-0.060-0.239-0.127-0.364-0.197-0.348-0.196-0.708-0.399-1.049-0.399-0.011 0-0.023 0-0.043 0-0.083 0-0.161-0.042-0.206-0.111-0.043-0.065-0.135-0.15-0.452-0.15-0.134 0-0.275 0.016-0.4 0.029-0.040 0.005-0.079 0.008-0.115 0.013-0.008 0-0.016 0.001-0.024 0.001-0.098 0-0.187-0.059-0.226-0.15-0.043-0.098-0.017-0.212 0.065-0.282 0.043-0.039 0.092-0.069 0.142-0.101-0.050-0.056-0.076-0.132-0.059-0.21 0.023-0.117 0.076-0.222 0.128-0.324 0.035-0.069 0.078-0.155 0.082-0.2 0.014-0.108-0.008-0.245-0.033-0.39-0.026-0.15-0.052-0.305-0.046-0.462 0.011-0.256 0.027-0.502 0.042-0.747 0.024-0.393 0.047-0.764 0.053-1.157 0.001-0.142 0.010-0.278 0.017-0.409 0.019-0.307 0.037-0.596-0.032-0.914-0.037-0.173-0.157-0.364-0.272-0.55-0.177-0.284-0.36-0.576-0.35-0.912 0.002-0.083 0.046-0.16 0.117-0.203 0.039-0.024 0.083-0.036 0.13-0.036 0.036 0 0.072 0.007 0.104 0.023 0.282 0.131 0.543 0.373 0.794 0.606 0.105 0.098 0.203 0.189 0.298 0.268 0.105 0.086 0.207 0.187 0.305 0.285 0.151 0.147 0.305 0.301 0.456 0.389 0.071 0.042 0.155 0.079 0.237 0.115 0.141 0.062 0.301 0.132 0.426 0.245 0.105 0.020 0.196 0.069 0.271 0.145 0.062 0.065 0.082 0.161 0.052 0.25-0.030 0.088-0.109 0.151-0.197 0.164-0.023 0.005-0.043 0.007-0.066 0.007-0.076 0-0.141-0.029-0.226-0.081-0.013 0.001-0.026 0.002-0.039 0.006-0.050 0.007-0.114 0.016-0.181 0.016-0.024 0-0.050-0.001-0.075-0.005-0.222-0.023-0.527-0.086-0.783-0.178-0.014 0.243-0.024 0.498-0.035 0.763-0.023 0.586-0.047 1.209-0.142 1.805 0.141-0.335 0.653-0.721 1.649-1.245l0.065-0.036c0.235-0.127 0.465-0.261 0.639-0.363 0.299-0.177 0.6-0.36 0.891-0.537l0.053-0.033c-0.086-0.089-0.168-0.187-0.249-0.284-0.119-0.144-0.243-0.294-0.371-0.391-0.209-0.158-0.371-0.348-0.53-0.532-0.089-0.104-0.173-0.201-0.262-0.291-0.098-0.098-0.184-0.168-0.272-0.224-0.604-0.377-1.372-0.63-1.908-0.777-0.102-0.029-0.23-0.055-0.367-0.081-0.353-0.072-0.751-0.151-1.018-0.331-0.079-0.053-0.121-0.148-0.105-0.243 0.014-0.095 0.083-0.171 0.176-0.197 0.104-0.029 0.212-0.049 0.328-0.058-0.013-0.047-0.013-0.096 0.002-0.144 0.027-0.079 0.091-0.14 0.173-0.161 0.302-0.078 0.547-0.168 0.889-0.308 0.155-0.063 0.312-0.112 0.463-0.161 0.465-0.147 0.868-0.275 1.094-0.728 0.272-0.544 0.569-1.53 0.577-2.134 0.002-0.166-0.066-0.327-0.147-0.512-0.076-0.18-0.157-0.366-0.186-0.584-0.013-0.088-0.022-0.177-0.029-0.265-0.023-0.243-0.045-0.474-0.15-0.655-0.073-0.128-0.194-0.239-0.322-0.357-0.095-0.089-0.194-0.18-0.284-0.286-0.036-0.043-0.069-0.085-0.104-0.128-0.091-0.117-0.178-0.226-0.282-0.301-0.081-0.059-0.118-0.16-0.095-0.258 0.024-0.098 0.104-0.17 0.204-0.186 0.026-0.002 0.055-0.006 0.082-0.006 0.528 0 1.048 0.734 1.248 1.048 0.141 0.225 0.308 0.44 0.471 0.65 0.199 0.256 0.403 0.522 0.576 0.816 0.008 0.017 0.019 0.032 0.030 0.049l0.019 0.029c0.161 0.258 0.353 0.471 0.554 0.697 0.109 0.122 0.223 0.249 0.334 0.387 0.242 0.296 0.351 0.669 0.459 1.029 0.050 0.17 0.098 0.331 0.158 0.478 0.050 0.127 0.105 0.252 0.161 0.38 0.18 0.413 0.367 0.841 0.435 1.31 0.086 0.606-0.005 1.439-0.108 1.969-0.053 0.266-0.128 0.528-0.2 0.782-0.137 0.475-0.265 0.924-0.249 1.389 0.010 0.36 0.16 0.701 0.319 1.062l0.062 0.144c0.076 0.177 0.16 0.377 0.217 0.593 0.048-0.056 0.117-0.089 0.189-0.089 0.022 0 0.042 0.002 0.062 0.008 0.098 0.024 0.17 0.105 0.183 0.206 0.014 0.108-0.001 0.21-0.013 0.291-0.002 0.017-0.008 0.052-0.011 0.081 0.010 0 0.020 0 0.030 0 0.055-0.001 0.109-0.002 0.154-0.002 0.063 0 0.098 0.002 0.127 0.007 0.138 0.027 0.258 0.085 0.364 0.137 0.068 0.033 0.132 0.063 0.191 0.082 0.167 0.052 0.436 0.108 0.691 0.108 0.242 0 0.42-0.053 0.466-0.14 0.023-0.045 0.059-0.081 0.104-0.104 0.049-0.026 0.102-0.039 0.155-0.039 0.275 0 0.39 0.286 0.524 0.619 0.088 0.217 0.148 0.347 0.183 0.386 0.032 0.013 0.058 0.033 0.079 0.056-0.032-0.14-0.047-0.236-0.047-0.239-0.007-0.076 0.019-0.15 0.071-0.199 0 0 0.001-0.005 0.001-0.013 0-0.18-0.011-0.384-0.088-0.534-0.016-0.033-0.026-0.069-0.026-0.107-0.002-0.132-0.007-0.259-0.013-0.376l-0.001-0.033c-0.029-0.504-0.049-0.868-0.092-1.173-0.002-0.020-0.002-0.042 0-0.062 0.037-0.341-0.016-0.626-0.158-0.848-0.069-0.108-0.161-0.199-0.271-0.269-0.027-0.017-0.052-0.040-0.071-0.068-0.043-0.062-0.091-0.128-0.141-0.196l-0.017-0.026-0.017-0.023-0.013-0.017c-0.161-0.214-0.361-0.482-0.44-0.76-0.035-0.117-0.033-0.213-0.030-0.291 0.001-0.098 0.001-0.121-0.050-0.18-0.276-0.321-0.413-0.697-0.547-1.061-0.046-0.128-0.095-0.262-0.15-0.39-0.153-0.36-0.351-0.656-0.561-0.972l-0.108-0.164c-0.014-0.008-0.029-0.019-0.046-0.035-0.013-0.008-0.024-0.019-0.035-0.029-0.032-0.027-0.055-0.062-0.068-0.101-0.001-0.001-0.002-0.007-0.005-0.013-0.068-0.154-0.154-0.299-0.246-0.453-0.076-0.13-0.155-0.262-0.225-0.403-0.002-0.005-0.006-0.010-0.007-0.011-0.016-0.027-0.026-0.056-0.030-0.086-0.027-0.181-0.045-0.376-0.062-0.563-0.032-0.347-0.065-0.704-0.155-0.946-0.013-0.033-0.017-0.071-0.014-0.108 0.002-0.033 0.005-0.066 0.006-0.098-0.050-0.311-0.138-0.877-0.16-1.082-0.030-0.281 0.037-0.564 0.177-0.743 0.309-0.396 0.62-0.825 0.714-1.323 0.046-0.242 0.049-0.482 0.053-0.714 0.005-0.305 0.009-0.622 0.102-0.961 0.046-0.164 0.109-0.37 0.186-0.592 0.095-0.275 0.59-1.674 1.023-2.165 0.145-0.163 0.397-0.242 0.773-0.242 0.317 0 0.659 0.056 0.889 0.102 0.043 0.009 0.085 0.029 0.117 0.059 0.001 0 0.006 0.005 0.008 0.007 0.145 0.121 0.293 0.176 0.484 0.176 0.134 0 0.286-0.029 0.482-0.091 0.027-0.017 0.059-0.029 0.092-0.035 0.271-0.043 0.556-0.134 0.895-0.286 0.325-0.145 0.638-0.216 0.957-0.216 0.259 0 0.522 0.045 0.828 0.14 0.095 0.029 0.161 0.111 0.173 0.216 0.095 0.027 0.186 0.040 0.271 0.040 0.125 0 0.227-0.030 0.305-0.088 0.037-0.027 0.081-0.045 0.127-0.049 0.069-0.006 0.138-0.013 0.209-0.020 0.163-0.017 0.331-0.035 0.501-0.035 0.258 0 0.469 0.040 0.668 0.127 0.662 0.289 0.884 0.517 1.030 1.055 0.005 0.017 0.008 0.035 0.008 0.052l0.001 0.016c0.040 0.761 0.086 1.623 0.615 1.936 0.023 0.013 0.043 0.030 0.062 0.050l0.007 0.010 0.017 0.020c0.017 0.019 0.032 0.042 0.040 0.066 0.026 0.062 0.059 0.125 0.107 0.2 0.062 0.104 0.042 0.235-0.052 0.309 0 0 0.001 0.002 0.006 0.010 0.272 0.453 0.507 0.771 0.757 1.030 0.026 0.027 0.046 0.062 0.058 0.098 0.2 0.633 0.278 1.255 0.226 1.799-0.052 0.543-0.407 1.37-0.751 2.113-0.001 0.010-0.001 0.020-0.002 0.030 0 0.005-0.002 0.017-0.005 0.022-0.008 0.037-0.026 0.072-0.050 0.102-0.089 0.167-0.554 1.241-0.632 1.435-0.029 0.072-0.049 0.151-0.069 0.229-0.048 0.181-0.101 0.387-0.268 0.569-0.117 0.127-0.259 0.201-0.384 0.266-0.078 0.042-0.153 0.079-0.209 0.125-0.168 0.138-0.299 0.396-0.394 0.584-0.232 0.461-0.391 0.977-0.547 1.478l-0.050 0.167c-0.039 0.124-0.075 0.25-0.114 0.4-0.013 0.046-0.039 0.089-0.082 0.128-0.085 0.142-0.109 0.308-0.075 0.491 0.006 0.030 0.006 0.060 0.001 0.091-0.032 0.174-0.060 0.348-0.091 0.54-0.035 0.216-0.072 0.448-0.119 0.711-0.005 0.026-0.014 0.052-0.027 0.075l-0.013 0.024c-0.153 0.273-0.296 0.531-0.33 0.829-0.013 0.109-0.012 0.223-0.012 0.334 0.001 0.216 0.002 0.461-0.092 0.717-0.114 0.301-0.239 0.616-0.417 0.885-0.173 0.263-0.448 0.42-0.735 0.42-0.194 0-0.38-0.072-0.538-0.209zM32.319 18.033c-0.050-0.242-0.161-0.455-0.115-0.734 0.046-0.273-0.13-0.538-0.294-0.779v0.161c-0.019 0.001-0.037 0.002-0.056 0.005-0.008-0.13-0.042-0.265-0.020-0.391 0.071-0.412 0.166-0.82 0.239-1.232 0.020-0.117 0.016-0.245-0.011-0.358-0.092-0.38-0.194-0.757-0.301-1.134-0.088-0.311-0.176-0.623-0.284-0.928-0.063-0.183-0.16-0.354-0.25-0.527-0.037-0.069-0.102-0.124-0.15-0.189-0.022-0.029-0.035-0.063-0.047-0.096-0.069-0.193 0.088-0.393-0.022-0.589-0.036-0.066-0.056-0.145-0.066-0.22-0.029-0.216-0.046-0.433-0.072-0.649-0.003-0.037-0.014-0.078-0.035-0.107-0.119-0.166-0.245-0.327-0.36-0.494-0.022-0.030-0.010-0.081-0.016-0.137-0.269-0.243-0.391-0.625-0.675-0.898-0.256-0.246-0.417-0.59-0.622-0.889-0.134-0.197-0.275-0.391-0.406-0.592-0.114-0.174-0.299-0.291-0.318-0.544-0.008-0.137-0.157-0.281-0.272-0.389-0.233-0.217-0.486-0.412-0.731-0.616-0.005 0.037-0.008 0.079-0.014 0.121-0.014 0.007-0.030 0.013-0.045 0.019-0.096-0.142-0.193-0.286-0.291-0.429-0.065-0.092-0.132-0.181-0.199-0.272-0.049-0.068-0.099-0.134-0.147-0.203-0.078-0.117-0.153-0.235-0.232-0.351-0.027-0.039-0.065-0.071-0.095-0.108-0.117-0.155-0.226-0.315-0.351-0.462-0.033-0.037-0.112-0.040-0.171-0.047-0.086-0.011-0.177 0.001-0.259-0.022-0.343-0.101-0.687-0.2-1.022-0.321-0.137-0.049-0.269-0.135-0.374-0.236-0.32-0.308-0.718-0.517-1.019-0.856-0.158-0.18-0.415-0.278-0.636-0.394-0.248-0.13-0.504-0.24-0.759-0.354-0.138-0.062-0.278-0.144-0.423-0.164-0.286-0.042-0.58-0.042-0.868-0.071-0.334-0.030-0.679-0.005-0.989-0.174-0.331-0.183-0.692-0.148-1.048-0.154-0.026 0-0.058 0.005-0.075 0.020-0.16 0.15-0.341 0.086-0.517 0.053-0.027-0.006-0.042-0.072-0.071-0.125-0.082-0.010-0.186-0.035-0.291-0.037-0.222-0.002-0.445 0.006-0.666 0.008-0.232 0.005-0.463 0.023-0.694 0.005-0.214-0.017-0.427-0.073-0.642-0.114-0.005 0-0.006-0.012-0.009-0.013-0.088-0.008-0.184-0.043-0.261-0.017-0.2 0.068-0.4 0.147-0.581 0.253-0.095 0.055-0.248 0.085-0.245 0.252 0 0.023-0.039 0.055-0.066 0.071-0.111 0.062-0.225 0.119-0.337 0.177 0.001-0.017 0.001-0.035 0.002-0.052-0.032-0.007-0.068-0.026-0.096-0.020-0.164 0.035-0.324 0.081-0.488 0.109-0.065 0.010-0.138-0.027-0.204-0.017-0.255 0.043-0.508 0.096-0.761 0.147-0.311 0.059-0.623 0.119-0.934 0.18-0.043 0.008-0.088 0.039-0.128 0.035-0.285-0.042-0.53 0.114-0.794 0.168-0.046 0.010-0.083 0.071-0.124 0.108 0.007 0.007 0.016 0.014 0.024 0.022 0.081-0.026 0.161-0.052 0.242-0.078 0.006 0.016 0.011 0.032 0.017 0.046-0.168 0.115-0.337 0.229-0.505 0.343-0.007-0.025-0.016-0.047-0.023-0.071-0.059 0.005-0.13-0.010-0.177 0.016-0.145 0.082-0.282 0.18-0.422 0.272-0.227 0.151-0.443 0.32-0.684 0.446-0.171 0.091-0.386 0.102-0.561 0.19-0.413 0.207-0.825 0.422-1.094 0.825-0.099 0.147-0.213 0.282-0.343 0.455-0.030-0.060-0.046-0.092-0.056-0.115-0.312 0.263-0.426 0.629-0.62 0.944-0.177 0.286-0.36 0.579-0.593 0.816-0.285 0.288-0.63 0.514-0.938 0.78-0.304 0.263-0.361 0.648-0.455 1.010-0.037 0.147-0.071 0.295-0.106 0.443-0.017-0.005-0.035-0.007-0.052-0.011 0.005-0.045 0.010-0.088 0.014-0.132-0.073 0.072-0.101 0.161-0.148 0.237-0.101 0.163-0.213 0.319-0.322 0.478-0.027 0.040-0.069 0.072-0.098 0.112-0.171 0.255-0.341 0.509-0.508 0.767-0.029 0.045-0.040 0.104-0.053 0.157-0.068 0.288-0.125 0.579-0.203 0.864-0.072 0.263-0.166 0.52-0.25 0.779-0.013-0.005-0.027-0.007-0.042-0.011-0.009-0.026-0.016-0.052-0.022-0.066-0.030 0.163-0.075 0.33-0.091 0.499-0.022 0.216-0.013 0.436-0.032 0.652-0.020 0.223 0.024 0.453-0.096 0.666-0.068 0.119-0.127 0.253-0.148 0.387-0.098 0.583-0.171 1.166-0.475 1.694-0.22 0.381-0.237 0.813-0.161 1.233 0.124 0.687 0.245 1.376 0.515 2.025 0.016 0.037 0.059 0.063 0.083 0.099 0.091 0.138 0.178 0.278 0.268 0.417l-0.030 0.022c-0.033-0.014-0.065-0.030-0.098-0.045 0.15 0.199 0.177 0.446 0.107 0.632-0.078 0.209-0.071 0.368 0.020 0.548 0.009-0.016 0.019-0.033 0.049-0.088 0.014 0.16 0.026 0.281 0.036 0.4 0.011 0.128 0.014 0.258 0.036 0.384 0.125 0.712 0.409 1.373 0.658 2.047 0.249 0.676 0.701 1.233 1.061 1.842 0.19 0.322 0.45 0.616 0.767 0.848 0.356 0.261 0.715 0.511 0.964 0.905 0.174 0.278 0.448 0.497 0.691 0.725 0.389 0.364 0.78 0.724 1.184 1.067 0.629 0.534 1.242 1.099 2.098 1.255 0.058 0.010 0.118 0.001 0.176 0.012 0.201 0.035 0.416 0.043 0.6 0.121 0.189 0.078 0.347 0.227 0.521 0.343 0.029 0.019 0.072 0.016 0.108 0.022 0.056 0.010 0.127 0.001 0.168 0.030 0.338 0.243 0.692 0.448 1.1 0.557 0.291 0.078 0.571 0.189 0.855 0.289 0.095 0.035 0.181 0.118 0.273 0.121 0.35 0.007 0.661 0.164 0.995 0.233 0.492 0.101 0.979 0.235 1.458-0.053 0.052-0.030 0.137-0.013 0.206-0.006 0.069 0.006 0.14 0.047 0.204 0.040 0.646-0.079 1.29-0.167 1.934-0.249 0.325-0.042 0.651-0.078 0.974-0.118 0.258-0.033 0.515-0.060 0.77-0.107 0.321-0.056 0.638-0.131 0.956-0.197 0.017-0.002 0.035 0.001 0.050-0.001 0.15-0.024 0.318-0.013 0.446-0.081 0.381-0.2 0.75-0.429 1.123-0.649 0.114-0.066 0.21-0.196 0.367-0.079 0.016 0.012 0.062-0.014 0.092-0.029 0.386-0.199 0.805-0.296 1.228-0.363 0.299-0.046 0.429-0.281 0.6-0.475 0.017-0.019 0.007-0.060 0.012-0.117-0.060 0.053-0.104 0.091-0.145 0.128-0.013-0.007-0.026-0.016-0.039-0.023 0.045-0.076 0.075-0.171 0.138-0.224 0.265-0.222 0.524-0.448 0.784-0.671 0.386-0.33 0.684-0.76 1.148-1.005 0.177-0.092 0.312-0.266 0.469-0.399 0.032-0.027 0.075-0.042 0.115-0.056 0.355-0.135 0.695-0.288 0.864-0.669 0.145-0.327 0.291-0.653 0.461-0.969 0.081-0.153 0.203-0.292 0.33-0.413 0.509-0.484 1.052-0.936 1.377-1.583 0.112-0.223 0.265-0.426 0.396-0.642 0.040-0.065 0.075-0.137 0.102-0.21 0.114-0.308 0.239-0.615 0.334-0.928 0.086-0.294 0.147-0.594 0.21-0.894 0.047-0.222 0.068-0.45 0.125-0.671 0.078-0.296 0.229-0.581 0.258-0.879 0.027-0.307 0.094-0.597 0.161-0.892 0.029-0.121 0.095-0.252 0.072-0.363z"></path>
<path d="M27.546 21.849c-0.069 0-0.134-0.029-0.181-0.079l-0.078-0.085c-0.19-0.209-0.355-0.39-0.58-0.569-0.050-0.039-0.174-0.099-0.294-0.157-0.278-0.135-0.564-0.275-0.687-0.481-0.363-0.111-0.675-0.255-1.036-0.419l-0.023-0.012c-0.063-0.029-0.138-0.060-0.223-0.095-0.083-0.035-0.173-0.070-0.261-0.109-0.010 0.261-0.058 0.53-0.107 0.698-0.047 0.167-0.134 0.299-0.209 0.417-0.065 0.098-0.119 0.183-0.15 0.278-0.029 0.086-0.032 0.19-0.036 0.299-0.001 0.072-0.005 0.148-0.014 0.224-0.007 0.055-0.012 0.107-0.017 0.155-0.007 0.063-0.014 0.131-0.024 0.196 0.337 0.174 0.656 0.479 0.943 0.753 0.082 0.079 0.163 0.155 0.239 0.224 0.183 0.166 0.302 0.222 0.471 0.222 0.117 0 0.256-0.024 0.475-0.069 0.166-0.035 0.386-0.104 0.617-0.176 0.518-0.161 1.105-0.345 1.644-0.345 0.118 0 0.226 0.013 0.331 0.030-0.226-0.389-0.366-0.83-0.456-1.295-0.007 0.14-0.076 0.263-0.206 0.351-0.042 0.027-0.089 0.042-0.138 0.042z"></path>
<path d="M5.492 22.752c0.104-0.019 0.213-0.030 0.331-0.030 0.538 0 1.125 0.183 1.644 0.345 0.232 0.072 0.452 0.141 0.617 0.174 0.217 0.045 0.358 0.069 0.475 0.069 0.168 0 0.288-0.056 0.471-0.222 0.076-0.069 0.155-0.145 0.24-0.224 0.285-0.272 0.604-0.577 0.941-0.751-0.011-0.066-0.019-0.132-0.026-0.197-0.005-0.047-0.010-0.099-0.017-0.154-0.008-0.078-0.011-0.153-0.014-0.224-0.002-0.111-0.007-0.214-0.035-0.299-0.013-0.042-0.033-0.083-0.060-0.134-0.027-0.049-0.058-0.095-0.089-0.144-0.075-0.118-0.161-0.25-0.209-0.417-0.049-0.17-0.096-0.439-0.107-0.699-0.088 0.039-0.178 0.076-0.262 0.111-0.082 0.035-0.158 0.066-0.223 0.095-0.193 0.088-0.374 0.171-0.558 0.248-0.181 0.075-0.341 0.134-0.499 0.183-0.122 0.206-0.409 0.345-0.687 0.479-0.119 0.059-0.245 0.119-0.293 0.158-0.224 0.178-0.39 0.358-0.581 0.567l-0.078 0.085c-0.046 0.050-0.112 0.081-0.18 0.081-0.050 0-0.098-0.016-0.138-0.043-0.13-0.088-0.2-0.212-0.207-0.351-0.089 0.465-0.23 0.908-0.455 1.297z"></path>
<path d="M27.791 15.658c-0.632-0.216-0.98-0.407-1.492-0.817-0.052-0.042-0.101-0.079-0.148-0.114-0.236-0.181-0.44-0.337-0.596-0.723-0.042-0.104-0.092-0.212-0.14-0.318-0.059-0.13-0.121-0.263-0.173-0.399l-0.017-0.043c-0.071-0.183-0.163-0.417-0.203-0.656-0.201 0.201-0.364 0.563-0.489 0.842-0.024 0.055-0.047 0.108-0.072 0.158l-0.023 0.049c-0.501 1.072-0.474 1.399-0.439 1.49 0.002 0.008 0.006 0.013 0.006 0.013 0.082 0.033 0.138 0.107 0.151 0.194 0.043 0.324 0.001 0.623-0.042 0.912-0.027 0.193-0.055 0.391-0.055 0.586 0.001 0.321 0.069 0.672 0.144 1.022 0.131-0.168 0.272-0.332 0.394-0.472l0.075-0.088c0.484-0.563 1.236-0.902 1.786-1.15 0.453-0.203 0.995-0.308 1.472-0.4l0.055-0.010c-0.020-0.009-0.039-0.016-0.058-0.023-0.052-0.022-0.098-0.040-0.137-0.053z"></path>
<path d="M19.427 17.309c0.052-0.166 0.091-0.307 0.125-0.432 0.137-0.492 0.217-0.789 0.715-1.34 0.217-0.239 0.472-0.665 0.741-1.115 0.453-0.756 0.851-1.418 1.271-1.622-0.043-0.095-0.082-0.189-0.119-0.279-0.114-0.272-0.212-0.508-0.386-0.707-0.328-0.379-0.743-0.586-1.143-0.786-0.272-0.137-0.551-0.276-0.806-0.468l-0.022-0.016c0.029 1.235-0.098 2.647-0.353 3.918-0.242 1.209-0.708 2.817-1.551 3.614-0.001 0.001-0.007 0.007-0.008 0.008-0.045 0.039-0.102 0.059-0.161 0.059-0.069 0-0.137-0.029-0.183-0.081-0.069-0.078-0.082-0.191-0.033-0.281 0.009-0.027 0.029-0.088 0.046-0.142 0.109-0.347 0.174-0.53 0.249-0.635 0.056-0.178 0.114-0.353 0.171-0.53 0.307-0.944 0.597-1.835 0.698-2.925 0.056-0.615-0.073-1.346-0.2-2.051-0.128-0.717-0.249-1.396-0.194-1.983-0.049-0.024-0.096-0.046-0.142-0.068-0.081-0.037-0.164-0.079-0.255-0.13-0.039-0.020-0.071-0.052-0.094-0.089-0.035-0.059-0.071-0.115-0.108-0.171-0.058-0.089-0.137-0.201-0.243-0.295-0.042 0.033-0.095 0.050-0.15 0.050-0.072 0-0.141-0.032-0.187-0.086-0.042-0.049-0.082-0.101-0.121-0.151-0.059-0.076-0.168-0.217-0.204-0.23 0 0-0.020 0.005-0.062 0.045-0.069 0.065-0.135 0.203-0.191 0.327-0.013 0.029-0.032 0.055-0.055 0.078-0.079 0.075-0.163 0.147-0.246 0.22-0.232 0.204-0.452 0.397-0.59 0.643-0.010 0.019-0.023 0.036-0.037 0.052-0.014 0.014-0.032 0.027-0.049 0.039-0.184 0.114-0.374 0.222-0.56 0.328-0.079 0.046-0.16 0.092-0.239 0.138-0.232 1.089 0.037 2.966 0.239 3.745 0.124 0.485 0.249 0.92 0.38 1.33 0.319 0.997 0.674 1.783 1.114 2.475 0.069 0.109 0.042 0.255-0.063 0.331-0.042 0.030-0.092 0.046-0.144 0.046-0.075 0-0.144-0.032-0.191-0.089-0.561-0.688-1.015-1.337-1.384-1.986-0.553-0.969-0.921-1.93-1.125-2.939-0.026-0.13-0.065-0.291-0.105-0.461-0.099-0.413-0.217-0.91-0.261-1.351-0.276 0.219-0.58 0.449-0.9 0.636-0.219 0.13-0.442 0.164-0.645 0.187 0.508 0.63 0.935 1.698 1.317 2.652 0.154 0.389 0.301 0.754 0.435 1.045 0.407 0.879 0.537 1.134 1.111 1.743l0.013 0.013 0.014 0.016c0.548 0.579 0.855 1.268 0.995 2.235 0.040 0.278 0.036 0.642 0.030 1.028-0.007 0.476-0.017 1.252 0.14 1.48 0.005-0.002 0.008-0.006 0.014-0.010-0.016-1.232 0.117-2.029 0.284-3.038 0.033-0.206 0.069-0.419 0.105-0.645 0.019-0.121 0.121-0.207 0.242-0.207 0.012 0 0.022 0 0.032 0.001 0.134 0.017 0.227 0.135 0.214 0.269-0.059 0.57 0.016 1.789 0.124 2.74 0.111-0.070 0.239-0.13 0.37-0.13 0.040 0 0.081 0.005 0.119 0.010 0.13-0.852 0.272-1.813 0.174-2.617-0.016-0.13 0.072-0.249 0.2-0.272 0.014-0.002 0.030-0.005 0.045-0.005 0.114 0 0.212 0.078 0.239 0.189 0.273 1.117 0.389 1.929 0.423 3.060 0.166-0.348 0.21-0.836 0.253-1.308 0.037-0.413 0.078-0.84 0.196-1.21 0.101-0.314 0.216-0.615 0.328-0.907 0.118-0.309 0.24-0.629 0.345-0.964z"></path>
<path d="M19.783 6.782l0.014 0.024c0.131 0.216 0.321 0.373 0.453 0.373 0.023 0 0.043-0.005 0.063-0.014 0.253-0.122 0.475-0.579 0.381-0.984-0.009-0.033-0.024-0.076-0.050-0.128-0.055-0.114-0.141-0.232-0.233-0.321-0.065-0.039-0.135-0.069-0.209-0.088-0.017-0.005-0.033-0.010-0.049-0.017-0.007-0.005-0.014-0.007-0.023-0.010-0.020 0.019-0.040 0.039-0.060 0.059-0.353 0.341-0.586 0.567-0.296 1.094l0.008 0.013z"></path>
<path d="M15.622 7.782c0.076-0.101 0.16-0.236 0.248-0.379 0.075-0.119 0.151-0.245 0.233-0.363 0.020-0.030 0.049-0.055 0.081-0.073 0.171-0.098 0.334-0.16 0.494-0.19 0.076-0.013 0.154-0.020 0.237-0.020 0.184 0 0.364 0.035 0.518 0.066 0.056 0.013 0.105 0.043 0.141 0.086 0.127 0.155 0.243 0.33 0.357 0.498 0.167 0.249 0.34 0.505 0.527 0.678 0.007 0.006 0.013 0.011 0.023 0.022 0.43 0.377 0.855 0.649 1.304 0.935 0.118 0.076 0.237 0.153 0.358 0.232 0.924 0.603 1.872 1.328 2.503 2.929 0.101-0.235 0.171-0.489 0.14-0.777-0.147-1.363-0.312-1.544-1.003-2.31-0.417-0.462-0.649-0.927-0.8-1.308-0.002 0.001-0.006 0.002-0.008 0.006-0.226 0.144-0.485 0.223-0.731 0.223-0.393 0-0.717-0.194-0.912-0.545l-0.046-0.081c-0.030-0.053-0.066-0.117-0.105-0.187-0.35-0.639-0.463-1.059-0.367-1.367 0.050-0.158 0.193-0.304 0.35-0.423-0.486-0.132-0.901-0.191-1.318-0.191-0.455 0-0.947 0.072-1.593 0.235-0.124 0.030-0.259 0.046-0.415 0.046-0.235 0-0.475-0.035-0.728-0.071l-0.16-0.022c-0.052-0.007-0.107-0.014-0.163-0.022 0.007 0.017 0.014 0.033 0.022 0.050 0.222 0.557 0.181 1.147-0.119 1.754-0.229 0.463-0.652 0.753-1.105 0.753-0.259 0-0.498-0.096-0.687-0.272-0.099 0.679-0.212 1.36-0.512 1.752-0.308 0.402-0.718 0.983-0.904 1.608 0.599-0.317 1.456-1.012 2.048-1.491 0.393-0.318 0.676-0.548 0.833-0.635 0.45-0.253 0.877-0.638 1.262-1.146z"></path>
<path d="M13.827 7.057c0.083 0 0.138-0.026 0.191-0.088 0.081-0.095 0.184-0.466 0.178-0.715-0.005-0.178-0.056-0.258-0.128-0.367-0.046-0.071-0.098-0.151-0.138-0.256-0.014-0.010-0.027-0.020-0.037-0.032-0.062-0.010-0.128-0.023-0.194-0.046-0.125 0.079-0.233 0.191-0.328 0.341-0.019 0.056-0.030 0.106-0.039 0.157-0.006 0.029-0.010 0.060-0.016 0.094-0.056 0.37-0.052 0.604-0.029 0.714 0.157 0.086 0.37 0.199 0.54 0.199z"></path>
</svg>
