<!-- Generated by IcoMoon.io -->
<svg version="1.1" xmlns="http://www.w3.org/2000/svg" width="32" height="32" viewBox="0 0 32 32">
<title>return_to_shattered_aeons</title>
<path d="M18.516 28.767c-0-0-0-0.001-0.001-0.001-0.003 0.002-0.002 0.002 0.001 0.001z"></path>
<path d="M20.469 27.895c-0.001 0-0.002 0.001-0.005 0.003 0.002-0.002 0.003-0.002 0.005-0.003z"></path>
<path d="M24.624 23.616c0.018-0.012 0.041-0.031 0.076-0.057-0.025 0.018-0.051 0.038-0.076 0.057z"></path>
<path d="M14.368 1.016c-0.050 0.028-0.098 0.054-0.145 0.079-0.032 0.013-0.064 0.028-0.092 0.042-0.058 0.023-0.111 0.048-0.164 0.070-0.104 0.042-0.198 0.078-0.272 0.114l0.165-0.114c-0.1 0.068-0.185 0.113-0.274 0.162l0.125-0.009c-0.108 0.048-0.194 0.094-0.204 0.074-0.089 0.088 0.122 0.032-0.068 0.187-0.075 0.027-0.176 0.090-0.268 0.143-0.047 0.025-0.093 0.046-0.13 0.063-0.020 0.006-0.035 0.013-0.050 0.015-0.009 0-0.015-0.003-0.022-0.011 0.006-0.001 0.036-0.016 0.055-0.026 0.021-0.011 0.039-0.023 0.055-0.029 0.028-0.016 0.044-0.027 0.055-0.035 0.018-0.018 0.006-0.023-0.009-0.024-0.025-0.006-0.057-0.012 0.040-0.076-0.055 0.032-0.118 0.064-0.193 0.098-0.019 0.001 0.009-0.023 0.035-0.040-0.029 0.011-0.074 0.030-0.081 0.031-0.004-0.001-0.004-0.001-0.007 0-0.004-0.001-0.005 0.001-0.005 0.002-0.009 0.002-0.037 0.006-0.048 0.011-0.031 0.009-0.050 0.021-0.077 0.033-0.052 0.024-0.126 0.051-0.334 0.055 0.042-0.026-0.025-0.042-0.097-0.052 0.046 0.019-0.045 0.061-0.18 0.085-0.314-0.021-0.341 0.029-0.505 0.029l0.187 0.009c-0.029 0.019-0.083 0.030-0.154 0.037-0.074 0.005-0.168 0.009-0.279 0.017-0.008 0.002-0.020 0.005-0.029 0.011-0.007-0.005 0.004-0.015 0.026-0.026-0.082 0.031-0.121 0.043-0.186 0.059-0.062 0.010-0.126 0.022-0.193 0.035-0.131 0.024-0.27 0.055-0.404 0.119-0.158 0.024-0.035-0.063-0.173-0.037-0.134 0.064-0.227 0.089-0.31 0.107-0.041 0.009-0.079 0.014-0.121 0.024-0.022 0.004-0.042 0.010-0.066 0.015-0.012 0.004-0.025 0.005-0.037 0.009-0.023 0.006-0.043 0.014-0.066 0.020-0.022 0.013-0.044 0.027-0.068 0.040-0.013 0.007-0.029 0.018-0.044 0.028-0.031 0.020-0.063 0.045-0.097 0.072 0.124-0.018 0.134-0.038-0.081 0.152l0.323-0.222 0.294-0.114-0.13 0.072c-0.050 0.024-0.073 0.040-0.151 0.074-0.059 0.044-0.079 0.068-0.114 0.099 0.040-0.025 0.083-0.054 0.123-0.081 0.043-0.016 0.085-0.033 0.125-0.048 0.038-0.015 0.071-0.030 0.103-0.042 0.067-0.028 0.127-0.049 0.173-0.061-0.179 0.103-0.166 0.085-0.063 0.096-0.056 0.001-0.109 0.011-0.16 0.024-0.025 0.006-0.053 0.016-0.077 0.026l-0.090 0.035c-0.071 0.052-0.142 0.104-0.217 0.16-0.071 0.051-0.147 0.098-0.237 0.134l-0.057-0.11c-0.316 0.145-0.551 0.354-0.842 0.555-0.094 0.051-0.237 0.12-0.38 0.176l0.189-0.063c-0.055 0.079-0.343 0.164-0.514 0.265-0.001-0.045-0.119-0.006-0.208 0.002 0.020 0.025-0.405 0.183-0.426 0.285l-0.074 0.022-0.066 0.048-0.050 0.031-0.096 0.061c-0.373 0.325-0.325 0.477-0.678 0.794 0.072-0.131-0.105-0.002 0.101-0.246-0.114 0.11-0.221 0.201-0.202 0.224-0.019 0.009-0.045 0.033-0.072 0.061-0.029 0.033-0.066 0.075-0.103 0.119-0.034 0.062-0.071 0.13-0.105 0.191-0.032 0.053-0.063 0.1-0.094 0.129-0.023 0.066 0.003 0.108-0.096 0.254-0.012 0.008-0.017 0.001-0.019-0.005-0.003 0.038-0.121 0.234-0.005 0.137-0.084 0.075-0.167 0.174-0.25 0.287-0.042 0.053-0.081 0.113-0.121 0.175-0.038 0.056-0.074 0.113-0.112 0.171-0.064 0.057-0.13 0.117-0.195 0.175-0.068 0.058-0.136 0.117-0.2 0.173-0.131 0.108-0.258 0.198-0.367 0.25-0.14 0.131-0.293 0.275-0.434 0.406-0.068 0.194-0.132 0.372-0.184 0.526-0.005-0.024-0.019-0.009 0.005-0.063-0.186 0.393 0.021 0.29-0.189 0.739-0.151 0.213 0.054-0.257-0.024-0.119-0.044 0.005-0.076 0.051-0.107 0.123-0.015 0.036-0.030 0.080-0.046 0.125-0.011 0.042-0.034 0.108-0.035 0.123-0.004 0.011-0.028 0.048-0.053 0.083l-0.072 0.107c-0.050 0.067-0.104 0.128-0.162 0.175l0.042-0.070c-0.189 0.175-0.326 0.53-0.581 0.858 0 0-0.001-0.024-0.018-0.015-0.006 0.022-0.022 0.057-0.051 0.107-0.015 0.079-0.033 0.169-0.051 0.268-0.019 0.089-0.040 0.185-0.064 0.283-0.048 0.195-0.102 0.398-0.149 0.575-0.013-0.134 0.027-0.18-0.048-0.127-0.048 0.174 0.098-0.022 0.004 0.323-0.028 0.046-0.057 0.101-0.097 0.178-0.036 0.107-0.071 0.19-0.108 0.208l0.031-0.226 0.042-0.129c-0.013 0.016-0.028 0.029-0.038 0.048-0.010 0.016-0.018 0.037-0.033 0.074-0.004 0.025-0.009 0.049-0.015 0.075l-0.011 0.064c-0.004 0.043-0.004 0.086-0.005 0.129-0.004 0.086-0.008 0.169-0.026 0.237l-0.029-0.029c-0.064 0.499 0.012 0.538-0.066 1.044-0.001 0.006-0.005 0.016-0.007 0.026 0.006-0.010 0.014-0.017 0.020-0.024 0.005-0.005 0.011-0.009 0.017-0.018 0.001 0.012 0.001 0.017 0.002 0.022 0 0.276-0.107 0.216-0.119 0.513l-0.105 0.068c-0.031 0.197-0.084 0.701-0.171 1.049 0.004-0.209 0.067-0.627 0.097-0.887-0.033 0.127-0.066 0.325-0.097 0.509 0.012 0.256-0.058 0.566-0.169 0.944-0.044-0.036-0.097 0.055-0.153 0.204-0.028 0.074-0.056 0.164-0.086 0.257-0.034 0.106-0.068 0.217-0.101 0.325 0.005 0.039 0.012 0.078 0.018 0.116 0.002 0.027 0.005 0.052 0.009 0.077 0.005 0.048 0.013 0.098 0.017 0.143 0.005 0.088 0.003 0.161-0.009 0.215 0.045 0.166 0.082 0.335 0.114 0.505 0.015 0.086 0.030 0.172 0.046 0.259 0.013 0.092 0.028 0.182 0.042 0.277 0.058 0.179 0.116 0.363 0.176 0.551 0.060 0.183 0.124 0.372 0.197 0.566 0.021-0.314 0.084 0.222 0.189 0.13 0.031 0.080 0.051 0.135 0.066 0.173 0.004 0.028 0.008 0.067 0.005 0.072v0.002l0.013 0.581c-0.016 0.14-0.057-0.175-0.083-0.152 0.056 0.411-0.026 0.181-0.016 0.457 0.038-0.063 0.087 0.132 0.108 0.369l0.007-0.338c0.076 0.27 0.071 0.382 0.068 0.525 0.010 0.159 0.005 0.273 0.118 0.568l-0.085-0.169c0.039 0.112 0.089 0.302 0.145 0.507 0.031 0.103 0.061 0.209 0.090 0.312 0.018 0.050 0.035 0.101 0.050 0.149 0.020 0.054 0.039 0.104 0.055 0.152 0.023 0.050 0.028 0.057 0.040 0.081 0.013 0.020 0.024 0.038 0.035 0.055 0.023 0.036 0.049 0.068 0.070 0.092 0.005 0.055-0.002 0.132-0.061 0.013 0.074 0.194 0.161 0.399 0.254 0.601 0.096 0.209 0.194 0.419 0.287 0.619 0.052 0.072 0.103 0.141 0.152 0.208 0.043 0.061 0.085 0.121 0.125 0.18 0.080 0.118 0.149 0.229 0.204 0.336l-0.055-0.029c0.082 0.107 0.18 0.162 0.248 0.32-0.018 0-0.059-0.028-0.026 0.024 0.016 0.019 0.051 0.058 0.094 0.105 0.020 0.024 0.040 0.048 0.064 0.075 0.024 0.031 0.041 0.048 0.083 0.107 0.029 0.027 0.060 0.057 0.088 0.083 0.023 0.023 0.042 0.043 0.061 0.064l-0.134-0.081c0.479 0.518 0.834 0.687 1.275 1.075-0.066 0.067 0.313 0.464 0.503 0.661l-0.017 0.002c0.145 0.138 0.281 0.26 0.415 0.377 0.128 0.122 0.254 0.236 0.377 0.345 0.126 0.111 0.246 0.22 0.375 0.331 0.061 0.058 0.125 0.114 0.189 0.173 0.034 0.029 0.066 0.059 0.099 0.090 0.037 0.035 0.076 0.070 0.114 0.107 0.015 0.007 0.030 0.019 0.048 0.029 0.111 0.115 0.291 0.258 0.503 0.413 0.108 0.076 0.222 0.158 0.34 0.241 0.13 0.091 0.265 0.183 0.401 0.276 0.155 0.043 0.311 0.087 0.461 0.129 0.134 0.040 0.263 0.081 0.382 0.121-0.107-0.045 0.036-0.066 0.167-0.042 0.167 0.063 0.489 0.060 0.439 0.136l-0.059-0.018c0.016 0.017 0.040 0.035 0.068 0.052 0.012 0.007 0.026 0.016 0.042 0.024 0.020 0.006 0.010 0.004 0.017 0.011-0.007 0.001 0.048 0.036 0.086 0.059 0.043 0.025 0.085 0.052 0.13 0.077 0.091 0.050 0.186 0.102 0.272 0.149l0.094-0.075c0.099 0.087 0.217 0.17 0.345 0.25 0.063 0.040 0.128 0.082 0.195 0.119 0.075 0.042 0.15 0.080 0.226 0.121l0.231 0.077c0.070 0.021 0.139 0.041 0.208 0.063 0.138 0.043 0.275 0.084 0.397 0.121 0.246 0.079 0.447 0.16 0.557 0.248 0.028 0.005 0.035 0.006 0.094 0.020 0.084 0.011 0.177 0.022 0.268 0.033 0.087 0.009 0.172 0.021 0.25 0.024l-0.022 0.057c0.191 0.043 0.344 0.077 0.502 0.112 0.079 0.017 0.159 0.034 0.246 0.052 0.098 0.019 0.203 0.040 0.321 0.064 0.068-0.006 0.197-0.021 0.34-0.033l-0.123 0.053c0.345-0.023 0.423-0.206 0.74-0.231l0.101 0.083 0.263-0.016 0.272-0.011 0.336-0.048 0.318-0.050c0.211-0.036 0.42-0.083 0.625-0.149-0.007 0.015-0.023 0.044-0.118 0.064 0.083-0.013 0.213-0.032 0.351-0.053 0.078-0.004 0.157-0.007 0.231-0.011 0.079-0.005 0.155-0.013 0.217-0.022 0.113-0.016 0.184-0.039 0.168-0.074 0.072 0.056 0.633-0.048 0.937-0.11l-0.044 0.066c0.266-0.11 0.272-0.132 0.65-0.2 0.091-0.004 0.085 0.035-0.035 0.035 0.304-0.006 0.226-0.083 0.595-0.097l-0.13 0.055c0.151-0.017 0.222-0.030 0.274-0.046s0.084-0.034 0.191-0.070c0.001-0.001 0.006-0.006 0.011-0.009 0.025-0.019 0.054-0.042 0.084-0.064 0.024-0.016 0.052-0.031 0.079-0.050 0.056-0.035 0.116-0.072 0.175-0.101 0.115-0.059 0.22-0.099 0.254-0.088 0.017-0.051 0.136-0.178 0.299-0.265 0.032 0.004-0.018 0.049-0.042 0.072 0.107-0.058 0.197-0.116 0.276-0.169 0.040-0.029 0.076-0.054 0.114-0.081l0.050-0.039 0.031-0.024c0.016-0.009 0.064-0.027 0.108-0.040 0.043-0.015 0.084-0.031 0.127-0.044 0.084-0.024 0.171-0.043 0.268-0.052 0.012 0.016 0.034 0.020 0.066 0.018-0.235 0.059-0.441 0.114-0.558 0.143-0.024 0.015-0.043 0.026-0.053 0.031-0.009 0.006-0.015 0.009-0.018 0.010 0.013 0.020 0.083-0.005 0.091 0.006 0.015 0.005 0.021 0.011 0.029 0.020 0.004 0.009-0.001 0.026 0 0.042 0 0.003 0.001 0.007 0.002 0.011 0-0.002 0.001-0.007 0.002-0.011 0.017-0.006 0.034-0.014 0.050-0.022 0.038-0.015 0.075-0.032 0.114-0.050 0.078-0.032 0.16-0.066 0.244-0.101 0.167-0.068 0.342-0.129 0.496-0.156 0.016 0.001 0.031 0.001 0.044 0.005l-0.031 0.013c0.074-0.013 0.141-0.035 0.2-0.059 0.051-0.009 0.093-0.018 0.134-0.026 0.047-0.009 0.063-0.013 0.16-0.037 0.017 0.005 0.057 0.001 0.117-0.011 0.035-0.035 0.079-0.081 0.127-0.136 0.027-0.032 0.055-0.065 0.084-0.101 0.058-0.070 0.12-0.142 0.162-0.193-0.054-0.026 0.087-0.185-0.072-0.068 0.003 0.001-0.031 0.047-0.091 0.119-0.013 0.021-0.031 0.044-0.039 0.059 0-0.004 0.001-0.009 0.002-0.015l-0.217 0.265-0.184 0.050c0.038-0.022 0.113-0.050 0.169-0.072 0.020-0.028 0.041-0.057 0.063-0.086 0.017-0.023 0.037-0.049 0.057-0.074 0.033-0.043 0.073-0.083 0.123-0.123 0.025-0.091 0.057-0.188 0.075-0.241 0.211-0.12 0.531-0.43 0.608-0.443 0.054-0.071 0.108-0.147 0.167-0.224 0.080-0.068 0.163-0.139 0.244-0.208 0.087-0.076 0.17-0.149 0.252-0.219 0.159-0.146 0.295-0.284 0.371-0.401 0.104-0.1 0.149-0.077 0.202-0.097-0.060 0.061-0.138 0.122-0.163 0.162 0.202-0.21 0.687-0.512 0.695-0.617 0.318-0.182-0.126 0.177 0.276-0.121l-0.040 0.057c0.107-0.056 0.203-0.114 0.296-0.175 0.046-0.032 0.090-0.063 0.134-0.092 0.055-0.040 0.11-0.079 0.162-0.119l0.066-0.123 0.042-0.084 0.075-0.169c0.050-0.112 0.101-0.224 0.151-0.338 0.1-0.224 0.219-0.471 0.356-0.693 0.079-0.074 0.188-0.168 0.303-0.257-0.013 0.009-0.024 0.015-0.033 0.016 0.146-0.128 0.288-0.263 0.43-0.399l0.209-0.209 0.222-0.219c0.292-0.467 0.536-0.88 0.836-1.341l0.088-0.272 0.088-0.254c0.060-0.17 0.124-0.335 0.191-0.498 0.098-0.256 0.096-0.336 0.107-0.474 0-0.036 0.004-0.078 0.004-0.129l0.077-0.061 0.007-0.371c0.063-0.516 0.345-0.84 0.402-1.499l-0.061 0.074c0.063-0.227 0.151-0.733 0.189-0.682-0.001-0.027-0.026-0.083 0.017-0.169h0.037l0.011-0.085 0.020-0.114-0.044-0.123v0.005l-0.035-0.096-0.075-0.193c-0.094-0.438 0.148 0.035-0.015-0.599-0.078-0.231-0.276-0.643-0.274-0.549 0.024 0.095 0.046 0.247 0.015 0.265l-0.074-0.209c-0.006-0.001-0.015-0.002-0.022-0.004l-0.011-0.035 0.312-1.534-0.276-1.029 0.024 0.020-0.037-0.070-0.088-0.327c0.013 0.006 0.034 0.033 0.055 0.097-0.007-0.096-0.021-0.144-0.039-0.191-0.039-0.067-0.069-0.088-0.097-0.222-0.004-0.025 0.006-0.018 0.018 0l-0.125-0.208c0.036 0.035 0.040-0.063 0.090 0.077-0.134-0.415-0.354-0.606-0.362-0.781l0.022 0.029c-0.209-0.397-0.149-0.21-0.219-0.259l-0.004-0.011-0.037-0.261 0.083-0.222-0.072-0.052c-0.006-0.060-0.016-0.182 0.013-0.164-0.073-0.222-0.024 0.043-0.083-0.085 0.015-0.233-0.064-0.565-0.068-0.774-0.033-0.059-0.054-0.107-0.040-0.134-0.107-0.060 0.146 0.261-0.079 0.016 0.035-0.14-0.233-0.285-0.356-0.535 0.096 0.033 0.225 0.26 0.103 0.011-0.175-0.075-0.297-0.439-0.448-0.612-0.071 0.037-0.319-0.386-0.564-0.683 0.036 0.004-0.391-0.612-0.564-0.928l0.015 0.002c-0.103-0.013-0.299-0.326-0.465-0.54 0.044-0.017 0.088 0.012 0.187 0.121l-0.141-0.211c-0.055-0.035-0.108-0.094-0.208-0.224l0.084 0.022-0.075-0.101-0.103-0.086-0.090-0.074c-0.060-0.048-0.125-0.1-0.189-0.151-0.128-0.106-0.26-0.219-0.391-0.364-0.037 0.018 0.045 0.167-0.011 0.176l-0.171-0.16c0.019-0.007 0.048-0.002 0.097 0.033-0.032-0.024-0.121-0.075-0.171-0.138l0.169 0.088c-0.131-0.15-0.105-0.040-0.219-0.151 0.032-0.028-0.063-0.101-0.024-0.11 0.032 0.024 0.089 0.105 0.145 0.134-0.063-0.061-0.145-0.146-0.182-0.197-0.027-0.054-0.066-0.132-0.072-0.165-0.011 0.028-0.046 0.037-0.129-0.064-0.205-0.267-0.030-0.124-0.13-0.294-0.072-0.047-0.178-0.236-0.231-0.204-0.059-0.079-0.048-0.109-0.057-0.151-0.035-0.034-0.087-0.098-0.143-0.167-0.067-0.082-0.136-0.171-0.195-0.244-0.205-0.051-0.257-0.053-0.187 0l0.050 0.018c-0.011-0.001-0.023-0.005-0.035-0.007-0.237-0.041-0.472-0.111-0.707-0.187l-0.353-0.118c-0.112-0.038-0.219-0.074-0.329-0.108l-0.094-0.081-0.11-0.088 0.013-0.015c-0.273-0.202-0.581-0.48-0.794-0.604-0.076-0.064-0.155-0.182-0.107-0.173-0.031-0.023-0.059-0.045-0.077-0.059-0.048-0.020-0.088-0.035-0.127-0.050-0.036-0.015-0.070-0.030-0.107-0.046-0.073-0.036-0.158-0.083-0.296-0.169 0.25 0.083-0.067-0.068 0.252 0.096-0.294-0.166-0.349-0.23-0.696-0.34 0.132 0.005-0.192-0.172-0.351-0.233l0.198 0.141c-0.047-0.020-0.091-0.040-0.134-0.061-0.049-0.024-0.098-0.049-0.145-0.074-0.080-0.012-0.155-0.022-0.231-0.035l0.094-0.059c-0.333-0.087-0.644-0.090-0.935-0.099-0.145-0.004-0.284-0.010-0.421-0.028-0.134-0.019-0.26-0.063-0.382-0.121-0.187 0.013 0.361 0.105 0.191 0.13-0.308-0.070-0.612-0.233-0.709-0.25-0.171-0.051-0.272-0.056-0.362-0.053-0.046 0.002-0.085 0.005-0.132 0.007-0.023 0.001-0.050 0.001-0.075 0-0.029-0.001-0.049-0.001-0.101-0.009-0.032 0-0.066 0.002-0.105 0.002-0.034 0-0.071-0.003-0.114-0.005 0.059 0.027 0.114 0.092-0.226 0.112-0.316-0.015-0.388-0.111-0.187-0.129 0.076-0.001 0.113 0.007 0.11 0.017 0.103-0.007 0.236-0.016 0.11-0.046l-0.042 0.026c-0.156-0.029-0.591-0.033-0.487-0.074-0.241 0.022-0.106 0.039 0.072 0.055-0.262-0.029-0.462-0.025-0.667-0.028-0.096-0.006-0.229-0.019-0.369-0.040 0.065 0.020 0.124 0.054 0.059 0.048-0.609-0.087-0.273 0.022-0.687-0.004-0.232-0.059 0.092-0.083-0.327-0.088-0.253-0.050-0.048-0.071 0.053-0.083-0.046 0.001-0.090 0.001-0.134 0l-0.094-0.005c-0.037-0.004-0.073-0.007-0.108-0.011h-0.002v-0zM15.282 2.894l0.256 0.174c0.123 0.099 0.135 0.437 0.171 0.582 0.059 0.234 0.112 1.184 0.152 1.417 0.063 0.361 0.018 1.498 0.019 1.866 0.001 0.16 0.059 0.363-0.080 0.439-0.084 0.046-0.331 0.079-0.434 0.084-0.167 0.010-0.348 0.010-0.515 0-0.082-0.004-0.42-0.050-0.469-0.093-0.108-0.096 0.034-0.284 0.042-0.43 0.008-0.157-0.002-1.059-0.002-1.216 0-0.154-0.023-0.328-0.002-0.48 0.020-0.153 0.082-0.226 0.088-0.388 0.007-0.157-0.023-1.021-0.002-1.176 0.019-0.151 0.074-0.229 0.087-0.388 0.018-0.226 0.042-0.233 0.26-0.306 0.141-0.049 0.267-0.088 0.427-0.085zM16.567 3.958l0 0.001c0 0.034 0 0.068 0.001 0.102 0.060 0.162 0.388 0.258 0.513 0.327 0.252 0.138 0.489 0.31 0.741 0.456 0.888 0.512 1.472 0.806 2.442 1.109 0.577 0.181 1.126 0.199 1.597 0.611 0.297 0.26 0.523 0.531 0.725 0.876 0.227 0.386 0.52 0.761 0.792 1.118 0.324 0.427 0.642 0.873 1.012 1.26 0.653 0.682 1.179 1.604 1.245 2.561 0.028 0.409 0.085 0.798 0.085 1.213 0.001 0.505 0 1.010 0 1.515 0.001 0.408 0.031 0.82-0.046 1.223-0.060 0.307-0.152 0.607-0.211 0.914-0.099 0.505-0.149 1.020-0.429 1.453-0.225 0.349-0.393 0.717-0.635 1.057-0.244 0.344-0.445 0.683-0.649 1.049-0.117 0.21-0.221 0.381-0.306 0.608-0.060 0.16-0.072 0.148-0.206 0.251-0.335 0.26-0.568 0.618-0.927 0.858-0.254 0.17-0.53 0.294-0.784 0.458-0.129 0.083-0.194 0.15-0.347 0.194-0.456 0.129-0.9 0.283-1.359 0.409-0.586 0.162-1.201 0.379-1.809 0.436-0.164 0.015-0.314 0.072-0.476 0.089-0.256 0.027-0.527-0.004-0.787-0.004-0.894 0-1.787 0.012-2.66-0.178-0.193-0.042-0.348-0.186-0.537-0.242-0.124-0.037-0.234-0.047-0.357-0.099-0.289-0.12-0.579-0.244-0.851-0.394-0.65-0.359-1.415-0.362-2.106-0.607-0.289-0.101-0.559-0.22-0.773-0.444-0.264-0.278-0.379-0.727-0.557-1.057-0.24-0.447-0.58-0.97-0.605-1.497-0.029-0.616 0.039-1.161 0.262-1.736 0.137-0.352 0.151-0.742 0.163-1.115 0.008-0.245 0.121-0.458 0.164-0.694 0.030-0.162-0.005-0.324 0.027-0.485 0.085-0.424 0.372-0.79 0.484-1.196 0.093-0.337 0.22-0.502 0.447-0.762 0.374-0.426 0.737-0.923 1.022-1.418 0.128-0.223 0.348-0.452 0.517-0.647 0.194-0.223 0.465-0.357 0.658-0.584 0.288-0.337 0.697-0.627 1.143-0.652 0.325-0.017 0.627-0.086 0.956-0.086h0.956c0.442 0 0.907-0.046 1.34 0.043 0.294 0.060 0.587 0.043 0.888 0.043 0.314 0.001 0.59-0.016 0.883 0.097 0.192 0.074 0.39 0.148 0.577 0.225 0.141 0.058 0.213 0.151 0.324 0.235 0.106 0.079 0.241 0.13 0.348 0.223 0.197 0.171 0.358 0.381 0.512 0.591 0.276 0.377 0.506 0.783 0.644 1.235 0.069 0.226 0.074 0.467 0.147 0.697 0.085 0.267 0.065 0.53 0.065 0.818 0 0.247 0.009 0.496 0.002 0.742-0.006 0.241-0.112 0.424-0.165 0.651-0.090 0.387-0.177 0.764-0.307 1.139-0.078 0.227-0.218 0.415-0.353 0.607-0.192 0.27-0.336 0.316-0.62 0.469-0.171 0.093-0.311 0.214-0.487 0.304-0.197 0.1-0.38 0.181-0.573 0.283-0.461 0.244-1.001 0.221-1.51 0.196-0.411-0.019-0.911-0.213-1.306-0.349-0.45-0.154-0.916-0.319-1.373-0.456-0.302-0.091-0.802-0.464-0.861-0.8-0.025-0.149-0.027-0.419-0.001-0.569 0.016-0.091 0.055-0.259 0.097-0.339 0.043-0.081 0.115-0.14 0.157-0.222 0.116-0.225 0.123-0.465 0.297-0.657 0.095-0.104 0.137-0.199 0.222-0.31 0.187-0.247 0.471-0.388 0.688-0.597 0.512-0.491 1.529-0.597 1.941 0.034-0.588-0.496-1.356-0.093-1.852 0.373-0.261 0.245-0.586 0.638-0.605 1.025-0.020 0.44 0.146 0.795 0.412 1.134 0.127 0.162 0.277 0.234 0.448 0.343 0.105 0.067 0.211 0.144 0.324 0.197 0.060 0.029 0.129 0.035 0.189 0.059 0.124 0.052 0.214 0.145 0.345 0.182 0.072 0.021 0.183 0.045 0.258 0.064 0.197 0.049 0.395 0.107 0.6 0.106 0.394-0.005 0.91 0.098 1.288-0.017 0.23-0.070 0.47-0.209 0.69-0.309 0.183-0.082 0.186-0.159 0.337-0.285 0.083-0.070 0.184-0.090 0.264-0.167 0.131-0.127 0.278-0.356 0.36-0.515 0.185-0.359 0.396-0.821 0.414-1.228 0.026-0.641 0.040-1.335-0.004-1.977-0.029-0.439-0.261-0.845-0.409-1.252-0.131-0.36-0.35-0.651-0.622-0.915-0.325-0.315-0.842-0.513-1.288-0.542-0.312-0.021-0.61-0.087-0.925-0.084-0.293 0.002-0.587-0.004-0.88-0.003-0.239 0.002-0.449 0.078-0.685 0.094-0.133 0.009-0.271-0.025-0.403-0.009-0.295 0.035-0.559 0.154-0.837 0.244-0.802 0.258-1.477 0.737-2.001 1.413-0.209 0.269-0.337 0.601-0.529 0.888-0.165 0.245-0.302 0.503-0.409 0.779-0.225 0.573-0.227 1.216-0.344 1.808-0.074 0.377-0.018 0.805-0.020 1.187-0.001 0.375 0.032 0.644 0.148 0.996 0.109 0.328 0.227 0.658 0.388 0.964 0.14 0.265 0.241 0.579 0.406 0.825 0.21 0.315 0.514 0.536 0.776 0.8 0.092 0.093 0.17 0.179 0.251 0.28 0.121 0.15 0.211 0.161 0.352 0.261 0.107 0.076 0.168 0.178 0.267 0.263 0.126 0.107 0.268 0.14 0.398 0.236 0.114 0.084 0.148 0.13 0.292 0.195 0.142 0.063 0.284 0.126 0.433 0.177 0.348 0.118 0.712 0.205 1.075 0.236 0.212 0.018 0.373 0.089 0.595 0.087 0.459-0.005 0.862-0.005 1.312-0.109 0.593-0.135 1.19-0.168 1.782-0.349 0.209-0.064 0.408-0.066 0.613-0.128 0.123-0.038 0.247-0.042 0.37-0.083 0.138-0.045 0.254-0.137 0.39-0.182 0.46-0.152 0.917-0.317 1.241-0.693 0.175-0.202 0.383-0.372 0.572-0.555 0.26-0.25 0.477-0.554 0.696-0.838 0.104-0.136 0.251-0.237 0.343-0.381 0.067-0.103 0.105-0.225 0.167-0.331 0.099-0.165 0.185-0.336 0.258-0.516 0.166-0.409 0.335-0.838 0.346-1.283 0.007-0.3 0.097-0.544 0.15-0.838 0.068-0.379 0.020-0.796 0.020-1.181 0-0.566 0.079-1.186-0.063-1.732-0.11-0.425-0.226-0.834-0.387-1.244-0.111-0.281-0.178-0.55-0.302-0.823-0.195-0.428-0.489-0.803-0.683-1.233-0.136-0.296-0.347-0.508-0.517-0.785-0.159-0.257-0.315-0.49-0.537-0.697-0.407-0.38-0.805-0.761-1.306-1.020-0.228-0.119-0.501-0.2-0.736-0.303-0.137-0.060-0.289-0.078-0.446-0.129-0.399-0.131-0.785-0.284-1.202-0.281-0.398 0.002-0.433-0.023-0.83-0.002-0.184 0.010-0.322 0.092-0.515 0.088-0.178-0.003-0.268 0.005-0.41 0.083-0.067-0.2-0.018-0.533-0.018-0.74 0-0.302-0.009-0.582 0.043-0.877 0.071-0.401 0.048-0.819 0.044-1.228-0.012-0.032-0.013-0.066-0.001-0.103zM13.514 4.465l0 0.001c-0.001 0.002-0.001 0.004-0.002 0.006-0.005 0.024-0.010 0.047-0.015 0.071-0.002 0-0.004 0.001-0.005 0.001-0.044 0.215 0.085 0.353 0.119 0.569 0.015 0.088-0.003 0.169 0.016 0.258 0.023 0.105 0.125 0.138 0.057 0.289-0.429-0.097-0.94-0.151-1.372-0.014-0.1 0.031-0.181 0.042-0.277 0.087-0.152 0.072-0.233 0.201-0.372 0.289-0.058 0.037-0.178 0.073-0.245 0.104-0.138 0.067-0.267 0.145-0.403 0.214-0.413 0.212-0.84 0.519-1.19 0.822-0.479 0.417-0.968 0.696-1.338 1.224-0.367 0.52-1.076 1.089-1.17 1.739-0.017 0.114 0.010 0.218-0.016 0.329-0.024 0.101-0.075 0.156-0.072 0.296 0.005 0.199-0.065 0.362-0.112 0.555-0.031 0.124-0.040 0.251-0.068 0.374-0.017 0.078-0.083 0.096-0.101 0.175-0.053 0.216 0.004 0.526 0.004 0.749 0 0.449 0.069 0.804 0.273 1.178-0.287 0.097-0.256-0.038-0.549 0.014-0.155 0.028-0.261 0.093-0.423 0.098-0.103 0.004-0.409 0.049-0.508 0.006-0.167-0.074-0.086-0.562-0.086-0.747 0-0.123 0.002-0.246 0.001-0.37-0.002-0.165 0.056-0.263 0.084-0.415 0.044-0.237 0.050-0.459 0.119-0.694 0.062-0.211 0.197-0.443 0.279-0.649 0.080-0.2 0.213-0.407 0.311-0.598 0.151-0.294 0.324-0.567 0.5-0.85 0.081-0.128 0.144-0.262 0.235-0.383 0.030-0.042 0.087-0.064 0.116-0.105 0.081-0.115 0.108-0.274 0.178-0.396 0.135-0.236 0.241-0.477 0.349-0.718 0.11-0.246 0.246-0.443 0.398-0.671 0.060-0.093 0.065-0.202 0.117-0.29 0.049-0.082 0.186-0.162 0.273-0.219 0.198-0.131 0.412-0.257 0.61-0.379 0.156-0.098 0.303-0.225 0.476-0.314 0.433-0.22 0.949-0.453 1.373-0.704 0.388-0.231 0.769-0.388 1.214-0.492 0.184-0.043 0.382-0.166 0.575-0.211 0.199-0.046 0.413-0.111 0.625-0.152 0.005-0.023 0.011-0.047 0.020-0.072 0-0.002 0.001-0.004 0.001-0.007zM6.744 14.342c0.249 0 0.477 0.011 0.644 0.038v-0c-0.001-0.001-0.002-0.002 0-0.002v0.002c0.016 0.011 0.234 0.061 0.212 0.066-0.101 0.291 0.133 1.072-0.087 1.232-0.054 0.039-0.186-0.002-0.254 0.010-0.087 0.017-0.167 0.065-0.256 0.083-0.167 0.032-1.082 0.077-1.253 0.085-0.358 0.016-0.473-0.091-0.821-0.005-0.071 0.017-0.088 0.078-0.163 0.095-0.075 0.020-0.184-0.003-0.261-0.004-0.084 0-0.178-0.012-0.26-0.002-0.067 0.010-0.15 0.067-0.191 0.072-0.35 0.047-0.029-0.492 0.042-0.656 0.065-0.149 0.041-0.289 0.084-0.455 0.031-0.12 0.051-0.4 0.147-0.441 0.155-0.067 0.165 0.007 0.332 0.007 0.198 0 0.399 0.014 0.594-0.019 0.301-0.053 0.945-0.106 1.492-0.106zM26.63 14.452c0.161 0.003 0.368 0.1 0.532 0.099 0.185-0.002 1.058 0 1.244 0l-0.085 0.173c0 0.188-0.009 0.378 0 0.566 0.005 0.117 0.016 0.141 0.062 0.235 0.039 0.080 0.114 0.126 0.101 0.228-0.201 0.053-1.055 0.033-1.26 0.122-0.127 0.055-0.232 0.107-0.36 0.149-0.228 0.076-0.342 0.114-0.347-0.17-0.004-0.179-0.066-0.266-0.086-0.432-0.022-0.167 0.002-0.356 0.002-0.524-0.001-0.186-0.072-0.403 0.131-0.441 0.021-0.004 0.043-0.005 0.066-0.005zM5.875 16.109c0.081 0.001 0.163 0.006 0.234 0.009 0.164 0.008 0.363 0.134 0.425 0.296l0 0c-0.102 0.095-0.082 0.172-0.094 0.295-0.011 0.117-0.045 0.185-0.073 0.296-0.063 0.244-0.020 0.528-0.021 0.782-0.001 0.337 0.033 0.466 0.166 0.766 0.121 0.276 0.249 0.511 0.402 0.767 0.414 0.692 0.501 1.568 0.987 2.22 0.419 0.56 0.87 1.086 1.342 1.595 0.626 0.674 1.498 0.686 2.23 1.122 0.336 0.2 0.625 0.424 0.99 0.555 0.277 0.1 0.599 0.109 0.858 0.219 0.164 0.069 0.391 0.252 0.53 0.367-0.099 0.253-0.187 0.524-0.248 0.768-0.049 0.198 0.022 0.164-0.185 0.199-0.156 0.027-0.254-0.030-0.379-0.1-0.183-0.101-0.365-0.144-0.564-0.221-0.292-0.115-0.545-0.225-0.85-0.323-0.28-0.089-0.592-0.096-0.849-0.217-0.279-0.131-0.573-0.279-0.824-0.446-0.456-0.302-0.842-0.658-1.288-0.96-0.182-0.123-0.37-0.26-0.527-0.416-0.19-0.189-0.392-0.333-0.566-0.545-0.19-0.233-0.392-0.448-0.588-0.692-0.166-0.206-0.335-0.436-0.519-0.638-0.365-0.401-0.592-0.991-0.691-1.513-0.035-0.18-0.137-0.276-0.183-0.428-0.039-0.127-0.033-0.273-0.091-0.404-0.133-0.297-0.017-0.57-0.089-0.887-0.012-0.052-0.071-0.081-0.079-0.115-0.021-0.101-0.006-0.174-0.018-0.277-0.018-0.157-0.079-0.232-0.099-0.389-0.039-0.306 0.012-0.617 0.094-0.881 0.096-0.304 0.002-0.707 0.342-0.787 0.067-0.016 0.147-0.020 0.228-0.019zM27.095 16.785c0.098 0.154 0.073 0.249 0.093 0.408 0.017 0.14 0.078 0.205 0.098 0.344 0.016 0.112-0.035 0.244-0.007 0.353 0.020 0.079 0.082 0.086 0.101 0.165 0.020 0.076-0.003 0.186-0.004 0.265-0.002 0.275 0.017 0.524-0.069 0.781-0.093 0.275-0.228 0.554-0.367 0.8-0.127 0.227-0.261 0.449-0.392 0.671-0.153 0.258-0.353 0.514-0.488 0.764-0.224 0.422-0.444 0.898-0.723 1.289-0.165 0.231-0.412 0.4-0.636 0.574-0.246 0.192-0.437 0.441-0.63 0.682-0.345 0.43-0.715 0.892-1.176 1.212-0.221 0.152-0.402 0.356-0.622 0.498-0.266 0.172-0.537 0.246-0.814 0.391-0.29 0.152-0.569 0.198-0.883 0.279-0.176 0.044-0.33 0.156-0.499 0.202-0.181 0.051-0.327 0.067-0.508 0.123-0.394 0.124-0.834 0.281-1.254 0.333-0.337 0.041-0.715-0.001-1.057-0.004-0.071-0.001-0.17-0.020-0.236-0.004-0.076 0.017-0.098 0.095-0.176 0.1-0.084 0.005-0.371-0.111-0.425-0.179-0.081-0.101-0.053-0.31-0.044-0.439 0.012-0.189 0.132-0.269 0.279-0.781l-0-0.001c0.241-0.035 0.47 0.229 0.717 0.194 0.35-0.052 0.709-0.152 1.044-0.28 0.137-0.053 0.259-0.122 0.407-0.145 0.171-0.027 0.345 0.018 0.514-0.002 0.341-0.041 0.683-0.111 1.016-0.18 0.447-0.094 0.804-0.204 1.197-0.454 0.203-0.129 0.445-0.182 0.628-0.326 0.222-0.174 0.921-0.733 1.13-0.919 0.195-0.174 0.308-0.299 0.442-0.511 0.019-0.031 0.007-0.083 0.028-0.112 0.031-0.043 0.087-0.085 0.12-0.126 0.081-0.105 0.27-0.235 0.334-0.36 0.206-0.405 0.646-0.74 0.925-1.109 0.221-0.294 0.289-0.554 0.483-0.858 0.109-0.171 0.223-0.298 0.395-0.413 0.191-0.126 0.113-0.268 0.214-0.477 0.072-0.149 0.090-0.246 0.202-0.391 0.087-0.116 0.143-0.218 0.197-0.347 0.047-0.114 0.093-0.235 0.126-0.356 0.035-0.129 0.117-0.262 0.143-0.378 0.048-0.221-0.067-0.484-0.010-0.704 0.015-0.058 0.065-0.062 0.077-0.101 0.019-0.067 0-0.138 0.018-0.2 0.026-0.087 0.113-0.178 0.092-0.274zM14.658 24.534c0.039-0 0.088 0.003 0.152 0.004 0.171 0.002 0.343 0 0.514 0 0.366 0 0.707 0.029 0.643 0.521l-0.172-0.174c0.083 0.16 0.074 0.245 0.084 0.434 0.008 0.167 0.067 0.356 0.107 0.52 0.023 0.097 0.064 0.157 0.069 0.261 0.003 0.083-0.021 0.178-0.006 0.261 0.032 0.189 0.14 1.335 0.072 1.541-0.109 0.33-0.643 0.192-0.926 0.195-0.194 0.003-0.33-0.081-0.515-0.088-0.164-0.008-0.296 0.005-0.389-0.169-0.142-0.264-0.009-1.77 0.043-2.043 0.037-0.191 0.081-0.32 0.087-0.521 0.006-0.185 0.073-0.336 0.087-0.521 0.015-0.192 0.032-0.219 0.148-0.219z"></path>
</svg>
