<!-- Generated by IcoMoon.io -->
<svg version="1.1" xmlns="http://www.w3.org/2000/svg" width="32" height="32" viewBox="0 0 32 32">
<title>return_to_the_forgotten_age</title>
<path d="M14.375 1c-0.050 0.028-0.098 0.054-0.145 0.079-0.032 0.013-0.064 0.028-0.092 0.042-0.058 0.023-0.111 0.048-0.164 0.070-0.104 0.042-0.199 0.078-0.272 0.114l0.165-0.114c-0.1 0.068-0.186 0.114-0.274 0.162l0.125-0.009c-0.108 0.048-0.195 0.094-0.204 0.074-0.089 0.088 0.122 0.032-0.068 0.188-0.075 0.027-0.176 0.090-0.268 0.143-0.047 0.025-0.093 0.046-0.13 0.063-0.020 0.006-0.035 0.013-0.050 0.015-0.009 0-0.015-0.003-0.022-0.011 0.006-0.001 0.036-0.016 0.055-0.026 0.021-0.011 0.039-0.023 0.055-0.029 0.028-0.016 0.044-0.027 0.055-0.035 0.018-0.018 0.006-0.023-0.009-0.024-0.025-0.006-0.057-0.012 0.040-0.076-0.055 0.032-0.118 0.064-0.193 0.098-0.019 0.001 0.009-0.023 0.035-0.040-0.029 0.011-0.074 0.030-0.081 0.031-0.004-0.001-0.004-0.001-0.007 0-0.004-0.001-0.005 0.001-0.005 0.002-0.009 0.002-0.037 0.006-0.048 0.011-0.031 0.009-0.050 0.021-0.077 0.033-0.052 0.024-0.126 0.051-0.335 0.055 0.042-0.026-0.025-0.042-0.097-0.052 0.046 0.019-0.045 0.061-0.18 0.085-0.315-0.021-0.341 0.029-0.506 0.029l0.187 0.009c-0.029 0.019-0.083 0.030-0.154 0.037-0.074 0.005-0.168 0.009-0.279 0.017-0.008 0.002-0.020 0.005-0.029 0.011-0.007-0.005 0.004-0.015 0.026-0.026-0.082 0.031-0.121 0.043-0.186 0.059-0.062 0.010-0.126 0.022-0.193 0.035-0.131 0.024-0.271 0.055-0.404 0.119-0.158 0.024-0.035-0.063-0.173-0.037-0.134 0.064-0.228 0.089-0.311 0.107-0.041 0.009-0.079 0.014-0.121 0.024-0.022 0.004-0.042 0.010-0.066 0.015-0.012 0.004-0.025 0.005-0.037 0.009-0.023 0.006-0.043 0.014-0.066 0.020-0.022 0.013-0.044 0.027-0.068 0.040-0.013 0.007-0.029 0.018-0.044 0.028-0.031 0.020-0.063 0.045-0.097 0.072 0.125-0.018 0.135-0.038-0.081 0.153l0.324-0.222 0.294-0.114-0.13 0.072c-0.050 0.024-0.073 0.040-0.151 0.074-0.059 0.044-0.079 0.068-0.114 0.099 0.040-0.025 0.083-0.054 0.123-0.081 0.043-0.016 0.085-0.033 0.125-0.048 0.038-0.015 0.071-0.030 0.103-0.042 0.067-0.028 0.127-0.049 0.173-0.061-0.179 0.103-0.166 0.085-0.063 0.096-0.056 0.001-0.109 0.011-0.16 0.024-0.025 0.006-0.053 0.016-0.077 0.026l-0.090 0.035c-0.071 0.052-0.142 0.104-0.217 0.16-0.071 0.051-0.147 0.098-0.237 0.134l-0.057-0.11c-0.316 0.145-0.552 0.354-0.842 0.555-0.094 0.051-0.237 0.12-0.381 0.176l0.189-0.063c-0.055 0.079-0.344 0.164-0.515 0.265-0.001-0.045-0.119-0.006-0.208 0.002 0.020 0.025-0.405 0.183-0.427 0.285l-0.074 0.022-0.066 0.048-0.050 0.031-0.096 0.061c-0.374 0.325-0.325 0.477-0.678 0.794 0.072-0.131-0.105-0.002 0.101-0.246-0.114 0.11-0.221 0.201-0.202 0.224-0.019 0.009-0.045 0.033-0.072 0.061-0.029 0.033-0.066 0.075-0.103 0.119-0.034 0.062-0.071 0.13-0.105 0.191-0.032 0.053-0.063 0.101-0.094 0.129-0.023 0.066 0.003 0.108-0.096 0.254-0.012 0.008-0.017 0.001-0.019-0.005-0.003 0.038-0.121 0.234-0.005 0.138-0.084 0.075-0.167 0.174-0.25 0.287-0.042 0.053-0.081 0.113-0.121 0.175-0.038 0.056-0.074 0.113-0.112 0.171-0.064 0.058-0.131 0.117-0.195 0.175-0.068 0.058-0.136 0.117-0.2 0.173-0.131 0.108-0.258 0.198-0.368 0.25-0.141 0.131-0.293 0.275-0.434 0.406-0.068 0.194-0.132 0.372-0.184 0.526-0.005-0.024-0.019-0.009 0.006-0.063-0.186 0.394 0.021 0.291-0.189 0.739-0.151 0.213 0.054-0.257-0.024-0.12-0.044 0.005-0.076 0.051-0.107 0.123-0.015 0.036-0.030 0.080-0.046 0.125-0.011 0.042-0.034 0.108-0.035 0.123-0.004 0.011-0.028 0.048-0.053 0.083l-0.072 0.107c-0.050 0.067-0.104 0.128-0.162 0.175l0.042-0.070c-0.189 0.175-0.327 0.53-0.581 0.859 0 0-0.001-0.024-0.018-0.015-0.006 0.022-0.022 0.057-0.052 0.107-0.015 0.079-0.033 0.169-0.052 0.268-0.019 0.089-0.040 0.185-0.064 0.283-0.048 0.195-0.102 0.399-0.149 0.575-0.013-0.134 0.027-0.18-0.048-0.127-0.048 0.174 0.098-0.022 0.004 0.324-0.028 0.046-0.057 0.101-0.097 0.178-0.036 0.107-0.071 0.19-0.108 0.208l0.031-0.226 0.042-0.129c-0.013 0.016-0.028 0.029-0.039 0.048-0.010 0.016-0.018 0.037-0.033 0.074-0.004 0.025-0.009 0.049-0.015 0.075l-0.011 0.064c-0.004 0.043-0.004 0.086-0.006 0.129-0.004 0.086-0.008 0.169-0.026 0.237l-0.029-0.029c-0.064 0.499 0.012 0.538-0.066 1.044-0.001 0.006-0.005 0.016-0.007 0.026 0.006-0.010 0.014-0.017 0.020-0.024 0.005-0.005 0.011-0.009 0.017-0.018 0.001 0.012 0.001 0.017 0.002 0.022 0 0.276-0.107 0.216-0.12 0.513l-0.105 0.068c-0.031 0.197-0.084 0.702-0.171 1.050 0.004-0.209 0.067-0.627 0.097-0.888-0.033 0.128-0.066 0.325-0.097 0.509 0.012 0.256-0.058 0.566-0.169 0.945-0.044-0.036-0.098 0.055-0.153 0.204-0.028 0.074-0.056 0.164-0.087 0.257-0.034 0.106-0.068 0.217-0.101 0.325 0.005 0.039 0.012 0.078 0.018 0.116 0.002 0.027 0.005 0.052 0.009 0.077 0.005 0.048 0.013 0.098 0.017 0.143 0.005 0.088 0.003 0.162-0.009 0.215 0.045 0.166 0.082 0.335 0.114 0.506 0.015 0.086 0.030 0.172 0.046 0.259 0.013 0.092 0.028 0.183 0.042 0.278 0.058 0.179 0.116 0.363 0.176 0.552 0.060 0.183 0.124 0.372 0.197 0.566 0.021-0.315 0.084 0.222 0.189 0.131 0.031 0.080 0.051 0.135 0.066 0.173 0.004 0.028 0.008 0.067 0.006 0.072v0.002l0.013 0.581c-0.016 0.141-0.057-0.175-0.083-0.153 0.056 0.411-0.026 0.181-0.016 0.458 0.038-0.063 0.087 0.133 0.108 0.369l0.007-0.338c0.076 0.27 0.071 0.382 0.068 0.526 0.010 0.159 0.005 0.274 0.118 0.568l-0.085-0.169c0.039 0.112 0.089 0.303 0.145 0.507 0.031 0.103 0.061 0.209 0.090 0.312 0.018 0.050 0.035 0.101 0.050 0.149 0.020 0.054 0.039 0.104 0.055 0.153 0.023 0.050 0.028 0.057 0.040 0.081 0.013 0.020 0.024 0.038 0.035 0.055 0.023 0.036 0.049 0.068 0.070 0.092 0.005 0.055-0.002 0.132-0.061 0.013 0.074 0.194 0.161 0.399 0.254 0.601 0.096 0.209 0.194 0.419 0.287 0.62 0.052 0.072 0.103 0.141 0.153 0.208 0.043 0.061 0.085 0.121 0.125 0.18 0.080 0.118 0.149 0.229 0.204 0.336l-0.055-0.029c0.082 0.107 0.18 0.162 0.248 0.32-0.018 0-0.059-0.028-0.026 0.024 0.016 0.019 0.051 0.058 0.094 0.105 0.020 0.024 0.040 0.048 0.064 0.075 0.024 0.031 0.041 0.048 0.083 0.107 0.029 0.027 0.060 0.057 0.088 0.083 0.023 0.023 0.042 0.043 0.061 0.064l-0.134-0.081c0.479 0.518 0.834 0.687 1.276 1.075-0.066 0.067 0.314 0.464 0.504 0.662l-0.017 0.002c0.145 0.138 0.282 0.26 0.415 0.377 0.128 0.122 0.254 0.236 0.377 0.346 0.126 0.111 0.247 0.22 0.375 0.331 0.062 0.058 0.125 0.114 0.189 0.173 0.034 0.029 0.066 0.059 0.099 0.090 0.037 0.035 0.077 0.070 0.114 0.107 0.015 0.007 0.030 0.019 0.048 0.029 0.111 0.115 0.291 0.258 0.504 0.414 0.108 0.076 0.222 0.158 0.34 0.241 0.13 0.091 0.266 0.183 0.401 0.276 0.155 0.043 0.312 0.087 0.461 0.129 0.134 0.040 0.263 0.081 0.382 0.121-0.107-0.045 0.036-0.066 0.167-0.042 0.167 0.063 0.489 0.060 0.439 0.136l-0.059-0.018c0.016 0.017 0.040 0.035 0.068 0.052 0.012 0.007 0.026 0.016 0.042 0.024 0.020 0.006 0.010 0.004 0.017 0.011-0.007 0.001 0.048 0.036 0.086 0.059 0.043 0.025 0.085 0.052 0.131 0.077 0.091 0.050 0.186 0.102 0.272 0.149l0.094-0.075c0.099 0.087 0.217 0.17 0.346 0.25 0.063 0.040 0.128 0.082 0.195 0.12 0.075 0.042 0.15 0.080 0.226 0.121l0.232 0.077c0.070 0.021 0.139 0.041 0.208 0.063 0.138 0.043 0.275 0.084 0.397 0.121 0.246 0.079 0.447 0.16 0.557 0.248 0.028 0.005 0.035 0.006 0.094 0.020 0.084 0.011 0.177 0.022 0.268 0.033 0.087 0.009 0.172 0.021 0.25 0.024l-0.022 0.057c0.191 0.043 0.344 0.077 0.502 0.112 0.079 0.017 0.159 0.034 0.246 0.052 0.098 0.019 0.203 0.040 0.322 0.064 0.068-0.006 0.197-0.021 0.34-0.033l-0.123 0.053c0.345-0.023 0.424-0.206 0.741-0.232l0.101 0.083 0.263-0.017 0.272-0.011 0.336-0.048 0.318-0.050c0.212-0.036 0.42-0.083 0.625-0.149-0.007 0.015-0.023 0.044-0.118 0.064 0.083-0.013 0.213-0.032 0.351-0.053 0.078-0.004 0.157-0.007 0.232-0.011 0.079-0.005 0.155-0.013 0.217-0.022 0.113-0.016 0.184-0.039 0.168-0.074 0.072 0.056 0.633-0.048 0.937-0.11l-0.044 0.066c0.266-0.11 0.272-0.132 0.651-0.2 0.091-0.004 0.086 0.035-0.035 0.035 0.304-0.006 0.226-0.083 0.596-0.097l-0.13 0.055c0.151-0.017 0.222-0.030 0.274-0.046s0.084-0.034 0.191-0.070c0.001-0.001 0.006-0.006 0.011-0.009 0.025-0.019 0.054-0.042 0.085-0.064 0.024-0.016 0.052-0.031 0.079-0.050 0.056-0.035 0.116-0.072 0.175-0.101 0.115-0.059 0.22-0.099 0.254-0.088 0.017-0.051 0.136-0.178 0.3-0.265 0.032 0.004-0.018 0.049-0.042 0.072 0.107-0.058 0.197-0.116 0.276-0.169 0.040-0.029 0.076-0.054 0.114-0.081l0.050-0.039 0.031-0.024c0.016-0.009 0.064-0.027 0.108-0.040 0.043-0.015 0.084-0.031 0.127-0.044 0.084-0.024 0.171-0.043 0.268-0.052 0.012 0.016 0.034 0.020 0.066 0.018-0.236 0.059-0.441 0.114-0.559 0.143-0.024 0.015-0.043 0.026-0.053 0.031-0.009 0.006-0.015 0.009-0.018 0.010 0.013 0.020 0.083-0.005 0.091 0.006 0.015 0.005 0.021 0.011 0.029 0.020 0.004 0.009-0.001 0.026 0 0.042 0 0.003 0.001 0.007 0.002 0.011 0-0.002 0.001-0.007 0.002-0.011 0.017-0.006 0.034-0.014 0.050-0.022 0.038-0.015 0.075-0.032 0.114-0.050 0.078-0.032 0.16-0.066 0.244-0.101 0.167-0.068 0.342-0.129 0.496-0.156 0.016 0.001 0.031 0.001 0.044 0.006l-0.031 0.013c0.074-0.013 0.141-0.035 0.2-0.059 0.051-0.009 0.093-0.018 0.134-0.026 0.047-0.009 0.064-0.013 0.16-0.037 0.017 0.005 0.057 0.001 0.118-0.011 0.035-0.035 0.079-0.081 0.127-0.136 0.027-0.032 0.055-0.065 0.085-0.101 0.058-0.070 0.12-0.142 0.162-0.193-0.054-0.026 0.087-0.185-0.072-0.068 0.003 0.001-0.031 0.047-0.091 0.119-0.013 0.021-0.031 0.044-0.039 0.059 0-0.004 0.001-0.009 0.002-0.015l-0.217 0.265-0.184 0.050c0.038-0.022 0.113-0.050 0.169-0.072 0.020-0.028 0.041-0.057 0.063-0.086 0.017-0.023 0.037-0.049 0.057-0.074 0.033-0.043 0.074-0.083 0.123-0.123 0.025-0.091 0.057-0.189 0.075-0.241 0.212-0.12 0.531-0.43 0.608-0.443 0.054-0.071 0.108-0.147 0.167-0.224 0.080-0.068 0.163-0.14 0.245-0.208 0.087-0.076 0.17-0.149 0.252-0.219 0.159-0.146 0.295-0.284 0.371-0.401 0.104-0.1 0.149-0.077 0.202-0.097-0.060 0.061-0.138 0.122-0.164 0.162 0.202-0.21 0.687-0.512 0.695-0.618 0.319-0.182-0.126 0.177 0.276-0.121l-0.040 0.057c0.107-0.056 0.204-0.114 0.296-0.175 0.046-0.032 0.090-0.063 0.134-0.092 0.055-0.040 0.11-0.079 0.162-0.119l0.066-0.123 0.042-0.085 0.075-0.169c0.050-0.112 0.101-0.224 0.151-0.338 0.1-0.224 0.219-0.471 0.357-0.693 0.079-0.074 0.188-0.168 0.303-0.257-0.013 0.009-0.024 0.015-0.033 0.016 0.146-0.128 0.288-0.264 0.43-0.399l0.209-0.209 0.222-0.219c0.292-0.467 0.537-0.88 0.836-1.342l0.088-0.272 0.088-0.254c0.060-0.17 0.124-0.335 0.191-0.498 0.098-0.256 0.096-0.336 0.107-0.474 0-0.036 0.004-0.078 0.004-0.129l0.077-0.061 0.007-0.371c0.063-0.517 0.345-0.84 0.403-1.5l-0.061 0.074c0.063-0.228 0.151-0.733 0.189-0.682-0.001-0.027-0.026-0.083 0.017-0.169h0.037l0.011-0.085 0.020-0.114-0.044-0.123v0.006l-0.035-0.096-0.075-0.193c-0.094-0.438 0.149 0.035-0.015-0.599-0.078-0.232-0.277-0.643-0.274-0.55 0.024 0.095 0.046 0.247 0.015 0.265l-0.074-0.209c-0.006-0.001-0.015-0.002-0.022-0.004l-0.011-0.035 0.312-1.535-0.276-1.030 0.024 0.020-0.037-0.070-0.088-0.327c0.013 0.006 0.034 0.033 0.055 0.097-0.007-0.096-0.021-0.144-0.039-0.191-0.039-0.067-0.069-0.088-0.097-0.222-0.004-0.025 0.006-0.018 0.018 0l-0.125-0.208c0.036 0.035 0.040-0.063 0.090 0.077-0.134-0.415-0.354-0.606-0.362-0.781l0.022 0.029c-0.209-0.398-0.149-0.21-0.219-0.259l-0.004-0.011-0.037-0.261 0.083-0.222-0.072-0.052c-0.006-0.060-0.016-0.182 0.013-0.164-0.073-0.222-0.024 0.043-0.083-0.085 0.015-0.233-0.064-0.565-0.068-0.774-0.033-0.059-0.054-0.107-0.040-0.134-0.107-0.060 0.146 0.262-0.079 0.017 0.035-0.141-0.233-0.285-0.357-0.535 0.096 0.033 0.225 0.26 0.103 0.011-0.175-0.075-0.297-0.44-0.449-0.612-0.071 0.037-0.319-0.387-0.564-0.684 0.036 0.004-0.392-0.612-0.564-0.928l0.015 0.002c-0.103-0.013-0.299-0.326-0.465-0.54 0.044-0.017 0.089 0.012 0.188 0.121l-0.142-0.211c-0.055-0.035-0.109-0.094-0.208-0.224l0.085 0.022-0.075-0.101-0.103-0.086-0.090-0.074c-0.060-0.048-0.125-0.1-0.189-0.151-0.128-0.106-0.26-0.219-0.392-0.364-0.037 0.018 0.045 0.167-0.011 0.176l-0.171-0.16c0.019-0.007 0.048-0.002 0.097 0.033-0.032-0.024-0.121-0.075-0.171-0.138l0.169 0.088c-0.131-0.15-0.105-0.040-0.219-0.151 0.032-0.028-0.063-0.101-0.024-0.11 0.032 0.024 0.089 0.105 0.145 0.134-0.063-0.062-0.145-0.146-0.182-0.197-0.027-0.054-0.066-0.132-0.072-0.165-0.011 0.028-0.046 0.037-0.129-0.064-0.205-0.268-0.030-0.124-0.13-0.294-0.072-0.047-0.178-0.236-0.232-0.204-0.059-0.079-0.048-0.109-0.057-0.151-0.035-0.034-0.087-0.098-0.143-0.167-0.067-0.082-0.136-0.171-0.195-0.245-0.205-0.051-0.257-0.053-0.188 0l0.050 0.018c-0.011-0.001-0.023-0.005-0.035-0.007-0.237-0.041-0.472-0.111-0.708-0.188l-0.353-0.118c-0.112-0.038-0.219-0.074-0.329-0.108l-0.094-0.081-0.11-0.088 0.013-0.015c-0.273-0.202-0.581-0.48-0.794-0.605-0.076-0.064-0.155-0.182-0.107-0.173-0.031-0.023-0.059-0.045-0.077-0.059-0.048-0.020-0.088-0.035-0.127-0.050-0.036-0.015-0.070-0.030-0.107-0.046-0.074-0.036-0.158-0.083-0.296-0.169 0.25 0.083-0.067-0.068 0.252 0.096-0.295-0.166-0.349-0.23-0.697-0.34 0.132 0.005-0.192-0.172-0.351-0.233l0.199 0.142c-0.047-0.020-0.091-0.040-0.134-0.061-0.050-0.024-0.098-0.049-0.145-0.074-0.080-0.012-0.155-0.022-0.232-0.035l0.094-0.059c-0.333-0.087-0.644-0.090-0.936-0.099-0.145-0.004-0.284-0.010-0.421-0.028-0.134-0.019-0.261-0.063-0.382-0.121-0.187 0.013 0.361 0.105 0.191 0.13-0.308-0.070-0.612-0.233-0.71-0.25-0.171-0.051-0.272-0.056-0.362-0.053-0.046 0.002-0.085 0.005-0.132 0.007-0.023 0.001-0.050 0.001-0.075 0-0.029-0.001-0.049-0.001-0.101-0.009-0.032 0-0.066 0.002-0.105 0.002-0.034 0-0.071-0.003-0.114-0.006 0.059 0.027 0.114 0.092-0.226 0.112-0.316-0.015-0.388-0.111-0.188-0.129 0.076-0.001 0.113 0.007 0.11 0.017 0.103-0.007 0.236-0.016 0.11-0.046l-0.042 0.026c-0.157-0.029-0.592-0.033-0.487-0.074-0.241 0.022-0.106 0.039 0.072 0.055-0.262-0.029-0.462-0.025-0.667-0.028-0.096-0.006-0.229-0.019-0.37-0.040 0.065 0.020 0.124 0.054 0.059 0.048-0.609-0.087-0.273 0.022-0.688-0.004-0.232-0.059 0.092-0.083-0.327-0.088-0.253-0.050-0.048-0.071 0.053-0.083-0.046 0.001-0.090 0.001-0.134 0l-0.094-0.006c-0.037-0.004-0.073-0.007-0.108-0.011h-0.002zM27.956 24.21c0.018-0.012 0.041-0.031 0.076-0.057-0.026 0.019-0.051 0.038-0.076 0.057zM23.799 28.491c-0.001 0-0.002 0.001-0.005 0.003 0.002-0.002 0.003-0.002 0.005-0.003zM21.844 29.363c-0-0-0-0.001-0.001-0.001-0.003 0.002-0.002 0.002 0.001 0.001zM5.692 5.511c0-0.003-0-0.005-0.001-0.006 0 0 0 0.003 0.001 0.006zM13.173 1.624c0.025-0.014 0.049-0.029 0.070-0.043-0.029 0.017-0.051 0.031-0.070 0.043zM16.785 5.098c0.193-0.003 0.34 0.025 0.565 0.096 0.287 0.091 0.51 0.118 0.918 0.109 0.487-0.011 0.566 0.003 0.826 0.147 0.158 0.087 0.491 0.214 0.738 0.282 0.491 0.135 1.066 0.403 1.402 0.655 0.118 0.088 0.263 0.161 0.322 0.161s0.194 0.053 0.301 0.117c0.107 0.064 0.332 0.143 0.501 0.174 0.352 0.065 0.578 0.211 0.855 0.552 0.399 0.491 0.873 0.938 1.407 1.325 0.335 0.243 0.724 0.6 0.997 0.914 0.246 0.283 0.62 0.663 0.83 0.844 0.388 0.335 0.764 0.905 0.764 1.157 0 0.144 0.314 0.828 0.495 1.078 0.126 0.175 0.341 1.084 0.342 1.448 0 0.117 0.043 0.327 0.095 0.468 0.137 0.373 0.139 3.063 0.002 3.634-0.080 0.333-0.384 1.036-0.392 0.909v0c-0.002-0.022 0.027-0.114 0.064-0.205 0.159-0.392 0.234-0.804 0.296-1.626 0.070-0.922 0.062-0.988-0.218-1.843-0.047-0.145-0.087-0.408-0.087-0.585-0.001-0.212-0.053-0.442-0.153-0.672-0.084-0.193-0.174-0.417-0.2-0.497s-0.129-0.317-0.228-0.526c-0.1-0.209-0.256-0.604-0.348-0.877-0.164-0.488-0.335-0.76-0.478-0.76-0.127 0-0.772-0.725-0.95-1.069-0.329-0.636-1.064-1.376-1.785-1.796-0.19-0.111-0.427-0.274-0.527-0.364s-0.228-0.162-0.284-0.162c-0.15 0-0.901-0.442-1.177-0.693-0.554-0.504-1.117-0.833-1.929-1.131-0.174-0.063-0.389-0.176-0.479-0.249s-0.339-0.223-0.552-0.332l-0.389-0.198-1.226-0.018c-1.216-0.018-1.229-0.017-1.569 0.135-0.189 0.085-0.358 0.178-0.377 0.208s-0.343 0.055-0.719 0.055c-0.745 0-0.886 0.042-1.551 0.459-0.358 0.225-0.7 0.323-0.958 0.276-0.108-0.020-0.298 0.002-0.439 0.051-0.279 0.096-1.108 0.57-1.306 0.747-0.097 0.086-0.264 0.128-0.658 0.163-0.567 0.052-0.897 0.13-1.046 0.247-0.052 0.040-0.241 0.271-0.421 0.512s-0.567 0.658-0.861 0.927c-0.798 0.731-1.506 1.519-1.682 1.87-0.094 0.188-0.212 0.333-0.296 0.364-0.107 0.040-0.14 0.097-0.141 0.244-0.001 0.192-0.149 0.629-0.448 1.325-0.093 0.217-0.178 0.552-0.202 0.802-0.023 0.236-0.057 0.443-0.075 0.461s-0.050-0.141-0.070-0.353c-0.038-0.395 0.002-0.61 0.254-1.364 0.068-0.205 0.124-0.434 0.124-0.508 0-0.204 0.1-0.422 0.394-0.859 0.147-0.218 0.293-0.464 0.325-0.546s0.123-0.233 0.203-0.336 0.214-0.321 0.299-0.486c0.085-0.165 0.261-0.427 0.391-0.581s0.255-0.361 0.276-0.46c0.021-0.099 0.087-0.232 0.146-0.296s0.148-0.212 0.197-0.329c0.070-0.165 0.163-0.247 0.422-0.371 0.183-0.088 0.364-0.196 0.402-0.241s0.146-0.082 0.239-0.082c0.093 0 0.192-0.040 0.219-0.088 0.066-0.116 0.484-0.322 0.653-0.322 0.074 0 0.155-0.035 0.182-0.078 0.068-0.111 0.699-0.39 0.883-0.39 0.085 0 0.315-0.079 0.511-0.175 0.221-0.109 0.447-0.175 0.598-0.175 0.25 0 0.837-0.246 0.837-0.351 0-0.031 0.091-0.094 0.202-0.139s0.22-0.112 0.243-0.147c0.022-0.035 0.103-0.064 0.179-0.064s0.27-0.057 0.43-0.127c0.212-0.092 0.44-0.132 0.83-0.146 0.296-0.010 0.686-0.047 0.867-0.080s0.612-0.086 0.957-0.116c0.345-0.030 0.807-0.071 1.027-0.092 0.079-0.007 0.148-0.012 0.212-0.013zM16.209 7.197c0.389-0 0.749 0.065 0.992 0.188 0.926 0.469 1.33 0.623 1.856 0.71 0.391 0.065 0.713 0.166 1.111 0.35 0.308 0.143 0.729 0.302 0.936 0.354s0.51 0.147 0.675 0.21c0.521 0.201 1.441 0.767 1.843 1.135 0.214 0.196 0.607 0.517 0.874 0.715 0.515 0.382 0.801 0.672 0.801 0.813 0 0.047 0.056 0.192 0.124 0.323 0.153 0.294 0.224 0.684 0.3 1.659 0.145 1.856 0.155 1.931 0.308 2.339 0.085 0.225 0.212 0.541 0.283 0.702 0.24 0.542 0.295 0.855 0.244 1.403-0.040 0.426-0.076 0.547-0.226 0.755-0.098 0.136-0.197 0.344-0.22 0.461s-0.074 0.234-0.113 0.259c-0.134 0.084-0.563 0.687-0.632 0.887-0.037 0.109-0.068 0.289-0.068 0.4 0 0.164-0.063 0.267-0.345 0.561-0.19 0.198-0.447 0.509-0.572 0.691s-0.458 0.524-0.74 0.76c-0.283 0.236-0.774 0.666-1.092 0.955-0.783 0.713-1.065 0.856-1.794 0.912-0.314 0.024-0.625 0.061-0.69 0.081s0.204-0.129 0.599-0.332c0.84-0.432 1.164-0.643 1.73-1.126 1.051-0.897 1.397-1.334 1.738-2.196 0.095-0.241 0.219-0.504 0.274-0.585s0.12-0.212 0.145-0.292c0.025-0.080 0.070-0.177 0.1-0.214 0.24-0.294 0.455-2.128 0.39-3.324-0.032-0.597-0.178-1.174-0.59-2.339-0.704-1.988-1.477-2.97-2.921-3.707-0.181-0.092-0.63-0.338-0.999-0.547-0.885-0.501-1.905-0.844-2.919-0.982-0.263-0.036-0.631-0.103-0.816-0.149-0.313-0.077-0.769-0.113-0.769-0.061 0 0.207 0.555 0.901 0.792 0.989 0.051 0.019 0.031 0.060-0.060 0.126-0.265 0.191-0.332 0.416-0.287 0.96 0.023 0.274 0.076 0.578 0.119 0.676 0.111 0.255 0.91 1.217 1.086 1.307 0.146 0.075 0.146 0.119-0.005 0.304-0.195 0.239-0.389 0.887-0.389 1.297 0 0.744 0.393 1.934 1.007 3.049l0.22 0.399-0.299 0.268c-0.892 0.798-1.292 1.209-1.502 1.544-0.231 0.37-0.233 0.378-0.253 1.059-0.015 0.52 0.004 0.756 0.078 0.974l0.098 0.287-0.274 0.254c-0.204 0.189-0.313 0.357-0.422 0.652-0.081 0.219-0.147 0.469-0.148 0.556-0.001 0.204-0.145 0.61-0.198 0.558-0.022-0.022-0.040-0.125-0.040-0.229 0-0.276-0.312-0.912-0.588-1.198-0.361-0.375-0.413-0.495-0.277-0.642 0.245-0.265 0.146-1.492-0.194-2.407-0.189-0.507-0.548-1.047-0.77-1.156-0.096-0.047-0.184-0.091-0.195-0.097s0.074-0.144 0.188-0.306c0.16-0.227 0.25-0.467 0.391-1.043 0.229-0.931 0.289-1.689 0.19-2.388-0.091-0.643-0.254-1.033-0.52-1.248l-0.203-0.163 0.277-0.17c0.291-0.179 0.881-0.857 1.217-1.399 0.334-0.539 0.31-1.045-0.069-1.468l-0.181-0.202 0.109-0.235c0.060-0.129 0.191-0.29 0.292-0.358 0.243-0.162 0.632-0.524 0.632-0.588 0-0.055-0.973-0.023-1.316 0.043-0.681 0.131-0.957 0.269-1.394 0.699-0.611 0.6-1.44 1.261-1.582 1.261-0.19 0-0.725 0.169-1.174 0.371-0.507 0.228-0.724 0.475-1.010 1.15-0.666 1.571-0.887 1.976-1.444 2.655-0.183 0.222-0.344 0.446-0.359 0.497-0.14 0.487-0.283 1.186-0.337 1.643-0.036 0.305-0.1 0.689-0.143 0.852-0.067 0.259-0.063 0.348 0.034 0.715 0.061 0.23 0.182 0.571 0.268 0.756s0.179 0.464 0.206 0.619c0.034 0.192 0.155 0.435 0.382 0.766 0.183 0.266 0.425 0.666 0.538 0.888 0.328 0.647 1.454 1.644 2.216 1.962 0.099 0.041 0.336 0.177 0.528 0.302s0.463 0.276 0.602 0.336c0.139 0.060 0.303 0.163 0.363 0.229s0.14 0.119 0.176 0.119c0.036 0 0.227 0.079 0.424 0.175 0.23 0.112 0.451 0.175 0.615 0.175 0.141 0 0.41 0.050 0.598 0.11s0.484 0.125 0.656 0.143c0.173 0.019 0.361 0.061 0.419 0.093 0.199 0.113-0.535 0.069-0.8-0.049-0.309-0.137-0.569-0.195-0.95-0.211-1.092-0.046-3.28-0.807-4.326-1.504-0.142-0.095-0.438-0.25-0.658-0.346-0.481-0.21-0.85-0.585-1.733-1.766-0.233-0.311-0.655-1.108-0.701-1.323-0.024-0.113-0.108-0.313-0.187-0.445s-0.185-0.378-0.236-0.546c-0.084-0.275-0.084-0.332-0.002-0.568 0.050-0.144 0.076-0.338 0.057-0.431-0.029-0.143 0.004-0.207 0.212-0.408 0.231-0.224 0.246-0.259 0.246-0.572-0-0.526-0.091-0.745-0.452-1.095-0.212-0.206-0.324-0.362-0.322-0.449 0.011-0.408 0.115-0.717 0.366-1.085 0.633-0.926 0.707-1.083 0.707-1.493 0-0.328 0.037-0.455 0.269-0.939 0.148-0.308 0.269-0.583 0.269-0.612s0.088-0.165 0.194-0.303c0.253-0.325 0.487-0.674 0.65-0.965 0.149-0.267 0.637-0.73 0.771-0.731 0.182-0.002 0.484-0.241 0.663-0.525 0.235-0.373 0.4-0.485 1.046-0.708 0.289-0.1 0.581-0.215 0.65-0.257s0.285-0.093 0.481-0.114c0.196-0.021 0.603-0.101 0.904-0.177s0.705-0.157 0.899-0.178c0.194-0.022 0.5-0.075 0.681-0.118s0.531-0.108 0.778-0.144c0.247-0.036 0.655-0.108 0.908-0.159 0.236-0.048 0.479-0.071 0.713-0.071zM4.329 14.748c0.004-0.002 0.008 0.008 0.012 0.031 0.014 0.072 0.014 0.191 0 0.263s-0.026 0.013-0.026-0.132c0-0.1 0.005-0.159 0.014-0.162zM19.359 24.981c0.048 0 0.053 0.012 0.015 0.035-0.146 0.089-0.502 0.131-0.598 0.070v0c-0.071-0.045-0.059-0.057 0.060-0.058 0.082-0.001 0.257-0.016 0.389-0.034 0.061-0.008 0.105-0.012 0.134-0.012z"></path>
</svg>
