<!-- Generated by IcoMoon.io -->
<svg version="1.1" xmlns="http://www.w3.org/2000/svg" width="32" height="32" viewBox="0 0 32 32">
<title>return_to_in_the_clutches_of_chaos</title>
<path d="M24.014 17.147c-0.008 0.046-0.023 0.091-0.031 0.138-0.012 0.073-0.012 0.148-0.023 0.221-0.027 0.16-0.099 0.292-0.174 0.437-0.071 0.138-0.076 0.285-0.122 0.429-0.040 0.126-0.164 0.226-0.23 0.34-0.052 0.088-0.081 0.175-0.149 0.255-0.078 0.092-0.151 0.185-0.228 0.28-0.055 0.069-0.124 0.126-0.178 0.195-0.041 0.052-0.074 0.105-0.134 0.142-0.035 0.023-0.080 0.031-0.111 0.054-0.052 0.039-0.083 0.11-0.132 0.155-0.073 0.069-0.152 0.131-0.225 0.201-0.151 0.145-0.295 0.279-0.393 0.459-0.071 0.131-0.125 0.299-0.251 0.395-0.039 0.031-0.068 0.031-0.114 0.043-0.058 0.015-0.096 0.040-0.143 0.073-0.097 0.067-0.198 0.081-0.303 0.13-0.080 0.038-0.15 0.092-0.228 0.134-0.038 0.019-0.072 0.042-0.118 0.044-0.027 0.001-0.050-0.008-0.078 0.001-0.035 0.015-0.052 0.068-0.062 0.091-0.031 0.070-0.080 0.133-0.111 0.202-0.041 0.088-0.027 0.205-0.015 0.297 0.008 0.083 0.049 0.209-0.003 0.287-0.031 0.045-0.058 0.047-0.062 0.107-0.008 0.133 0.019 0.265 0.023 0.397 0.001 0.196 0.041 0.377 0.106 0.561 0.053 0.151 0.175 0.278 0.268 0.411 0.023 0.031 0.049 0.065 0.064 0.102 0.015 0.040 0.023 0.083 0.041 0.123 0.031 0.063 0.070 0.118 0.084 0.187 0.012 0.058 0.015 0.119 0.023 0.177 0.008 0.038 0.027 0.079 0.023 0.119-0.003 0.027-0.008 0.041-0.023 0.063-0.027 0.048-0.027 0.027-0.012 0.098 0.041 0.191 0.094 0.371 0.15 0.558 0.040 0.132 0.079 0.264 0.116 0.396 0.023 0.078 0.040 0.186-0.004 0.261-0.041-0.003-0.079-0.015-0.119-0.019-0.019-0.001-0.048 0.004-0.065-0.001-0.035-0.012-0.067-0.076-0.090-0.103-0.067-0.076-0.128-0.156-0.195-0.233-0.087-0.101-0.191-0.273-0.347-0.286-0.105-0.008-0.11 0.069-0.19 0.099-0.065 0.023-0.136-0.004-0.202-0.008s-0.092 0.003-0.116 0.061c-0.004 0.072-0.008 0.144-0.004 0.216 0.003 0.053 0.003 0.105 0 0.158-0.003 0.1-0.012 0.198-0.038 0.296-0.015 0.065-0.035 0.125-0.038 0.192-0.003 0.047 0.004 0.094 0.001 0.14-0.008 0.083-0.019 0.163-0.019 0.247-0.111-0.189-0.317-0.257-0.506-0.369-0.126-0.075-0.204-0.194-0.32-0.279-0.069-0.051-0.147-0.094-0.215-0.146-0.093-0.072-0.151-0.178-0.218-0.267-0.063-0.084-0.128-0.167-0.194-0.249-0.104-0.128-0.221-0.244-0.324-0.373-0.119-0.15-0.231-0.302-0.368-0.439-0.096-0.096-0.53-0.528-0.649-0.246-0.023 0.057-0.015 0.112-0.031 0.168-0.008 0.031-0.008 0.023-0.031 0.039-0.015-0.003-0.023 0.001-0.031 0.015-0.004 0.019-0.008 0.040-0.015 0.061-0.008 0.057 0.019 0.137-0.023 0.182-0.114-0.031-0.196-0.171-0.259-0.258-0.070-0.097-0.118-0.214-0.171-0.318-0.048-0.095-0.099-0.189-0.148-0.284-0.108-0.209-0.221-0.416-0.314-0.63-0.045-0.102-0.101-0.199-0.13-0.305-0.015-0.063-0.055-0.104-0.094-0.157-0.041-0.055-0.042-0.124-0.086-0.178-0.031-0.038-0.073-0.054-0.107-0.088-0.031-0.031-0.042-0.074-0.051-0.112-0.012-0.051-0.012-0.102-0.015-0.154-0.008-0.142-0.038-0.266-0.083-0.398-0.052-0.062-0.104-0.125-0.166-0.18-0.159-0.141-0.348-0.256-0.543-0.353-0.201-0.099-0.4-0.21-0.609-0.294-0.161-0.065-0.335-0.088-0.5-0.141-0.143-0.046-0.274-0.12-0.41-0.179-0.264-0.116-0.552-0.178-0.837-0.239-0.115-0.023-0.228-0.051-0.343-0.076-0.115-0.023-0.208-0.073-0.304-0.135-0.092-0.060-0.168-0.131-0.247-0.204-0.096-0.088-0.206-0.161-0.309-0.243-0.137-0.108-0.289-0.178-0.442-0.261-0.162-0.088-0.323-0.181-0.481-0.275-0.17-0.1-0.327-0.211-0.478-0.334-0.148-0.121-0.303-0.241-0.419-0.39-0.137-0.177-0.232-0.373-0.348-0.561-0.068-0.109-0.146-0.21-0.224-0.314-0.083-0.11-0.189-0.203-0.27-0.313-0.078-0.106-0.108-0.228-0.135-0.351-0.019-0.081-0.015-0.163-0.042-0.243-0.015-0.052-0.045-0.101-0.058-0.155-0.012-0.052-0.015-0.103-0.023-0.155-0.031-0.202-0.112-0.402-0.191-0.591-0.055-0.132-0.118-0.258-0.148-0.398-0.035-0.162-0.051-0.331-0.065-0.495-0.008-0.123 0.003-0.246-0.008-0.368-0.012-0.122-0.015-0.243-0.015-0.366-0.001-0.236 0.077-0.463 0.12-0.695 0.044-0.242 0.107-0.479 0.215-0.705 0.117-0.246 0.183-0.506 0.278-0.76 0.048-0.127 0.103-0.244 0.163-0.366 0.038-0.076 0.057-0.159 0.098-0.233 0.015-0.031 0.035-0.062 0.060-0.088 0.019-0.019 0.054-0.031 0.047-0.063-0.004 0.142 0.008 0.283-0.012 0.424-0.023 0.156-0.060 0.31-0.085 0.465-0.031 0.186-0.041 0.377-0.041 0.565 0 0.179 0.043 0.363 0.015 0.541-0.012 0.075-0.039 0.15-0.038 0.227 0.001 0.075 0.023 0.146 0.056 0.214 0.058 0.118 0.099 0.248 0.143 0.371 0.023 0.070 0.047 0.141 0.069 0.212 0.023 0.079 0.023 0.149 0.027 0.229 0.004 0.086 0.065 0.172 0.109 0.248 0.015 0.023 0.023 0.053 0.041 0.069 0.015 0.015 0.047 0.027 0.065 0.040 0.023 0.019 0.045 0.044 0.070 0.062 0.035 0.027 0.082 0.023 0.121 0.042 0.075 0.038 0.153 0.111 0.202 0.173 0.067 0.084 0.066 0.201 0.096 0.298 0.052 0.171 0.164 0.338 0.251 0.496 0.052 0.094 0.118 0.181 0.162 0.279 0.048 0.105 0.082 0.216 0.147 0.314 0.1 0.149 0.224 0.283 0.323 0.431 0.090 0.135 0.181 0.269 0.28 0.4 0.137 0.183 0.339 0.33 0.538 0.453 0.113 0.070 0.213 0.146 0.312 0.23 0.040 0.035 0.090 0.075 0.138 0.101 0.053 0.027 0.109 0.042 0.161 0.076 0.058 0.038 0.128 0.051 0.188 0.085 0.035 0.019 0.058 0.047 0.090 0.068 0.134 0.095 0.266 0.201 0.413 0.279 0.078 0.041 0.143 0.059 0.231 0.072 0.065 0.008 0.123 0.027 0.188 0.004 0.201-0.062 0.417-0.244 0.376-0.451-0.031-0.15-0.14-0.319-0.238-0.441-0.123-0.153-0.242-0.298-0.391-0.432-0.111-0.1-0.214-0.207-0.327-0.306-0.143-0.126-0.163-0.279-0.245-0.435-0.048-0.092-0.093-0.187-0.145-0.278s-0.117-0.176-0.156-0.272c-0.038-0.093-0.070-0.185-0.116-0.276-0.050-0.1-0.106-0.197-0.161-0.294-0.084-0.146-0.165-0.291-0.256-0.434-0.035-0.053-0.064-0.108-0.099-0.16-0.045-0.066-0.098-0.13-0.127-0.204-0.019-0.048-0.027-0.097-0.038-0.147-0.015-0.083-0.053-0.152-0.085-0.231-0.058-0.148-0.066-0.308-0.112-0.459-0.045-0.146-0.050-0.316-0.049-0.467 0.001-0.181 0.008-0.36-0.019-0.54-0.012-0.081-0.015-0.16-0.019-0.241-0.004-0.091-0.027-0.181-0.035-0.273-0.008-0.115-0.015-0.238-0.001-0.352 0.012-0.090 0.049-0.176 0.064-0.266 0.004-0.035 0.008-0.073 0.015-0.108 0.015-0.057 0.047-0.107 0.063-0.163 0.019-0.075 0.019-0.155 0.027-0.232 0.027-0.223 0.087-0.448 0.201-0.648 0.049-0.085 0.078-0.174 0.121-0.261 0.035-0.071 0.092-0.127 0.135-0.193 0.045-0.069 0.074-0.146 0.112-0.218 0.023-0.044 0.040-0.11 0.083-0.142 0.045 0.008 0.040 0.083 0.040 0.113 0.001 0.091-0.004 0.181 0.003 0.271 0.008 0.079 0.012 0.156 0.015 0.235 0.003 0.118 0.031 0.235 0.045 0.352 0.031 0.251 0.066 0.501 0.089 0.754 0.023 0.244 0.044 0.488 0.113 0.727 0.027 0.091 0.076 0.174 0.105 0.265 0.031 0.098 0.059 0.195 0.098 0.291 0.045 0.111 0.101 0.216 0.155 0.324 0.057 0.116 0.146 0.208 0.228 0.311 0.112 0.142 0.245 0.281 0.393 0.392 0.045 0.035 0.092 0.076 0.147 0.096 0.048 0.015 0.092 0.003 0.142 0.012 0.070 0.012 0.122 0.058 0.167 0.103 0.066 0.066 0.138 0.119 0.214 0.175 0.156 0.115 0.269 0.266 0.372 0.421 0.066 0.098 0.086 0.215 0.14 0.318 0.062 0.117 0.083 0.252 0.162 0.361 0.070 0.098 0.117 0.226 0.134 0.343 0.004 0.038-0.003 0.078 0.004 0.115 0.015 0.058 0.048 0.111 0.064 0.169 0.038 0.135 0.019 0.272 0.079 0.402 0.065 0.138 0.117 0.28 0.182 0.417 0.053 0.111 0.111 0.222 0.172 0.33 0.035 0.061 0.085 0.115 0.123 0.175s0.073 0.123 0.102 0.186c0.097 0.208 0.173 0.427 0.323 0.612 0.058 0.071 0.115 0.142 0.173 0.213 0.027 0.031 0.069 0.058 0.089 0.094 0.012 0.023 0.008 0.058 0.023 0.077 0.031 0.035 0.104 0.015 0.144 0.008 0.116-0.015 0.246-0.031 0.347-0.088 0.082-0.047 0.1-0.121 0.092-0.209-0.008-0.073-0.015-0.144-0.015-0.218 0.001-0.059 0.004-0.119-0.001-0.178-0.019-0.186-0.089-0.367-0.142-0.546-0.027-0.093-0.043-0.183-0.057-0.277-0.015-0.108-0.051-0.212-0.075-0.318-0.042-0.182-0.092-0.363-0.135-0.545-0.038-0.159-0.122-0.305-0.159-0.465-0.038-0.159-0.066-0.318-0.108-0.476-0.023-0.090-0.027-0.179-0.031-0.271-0.004-0.085-0.019-0.168-0.027-0.253-0.015-0.153-0.012-0.31-0.008-0.464 0.001-0.061 0.019-0.118 0.019-0.178 0.003-0.052-0.001-0.098 0.008-0.15 0.023-0.111-0.008-0.227 0.019-0.337 0.015-0.063 0.049-0.123 0.068-0.185 0.031-0.105 0.039-0.215 0.082-0.316 0.041-0.1 0.085-0.193 0.106-0.299 0.027-0.134 0.031-0.27 0.031-0.406-0.003-0.168-0.027-0.333-0.050-0.5-0.019-0.144-0.008-0.289-0.031-0.433-0.019-0.138-0.049-0.275-0.061-0.414-0.012-0.135-0.019-0.27-0.035-0.405-0.023-0.268-0.071-0.536-0.111-0.802-0.015-0.104-0.023-0.208-0.051-0.31-0.012-0.043-0.055-0.117-0.035-0.161 0.031 0.023 0.039 0.058 0.054 0.088 0.031 0.064 0.085 0.111 0.129 0.168 0.12 0.153 0.223 0.319 0.326 0.482 0.099 0.158 0.188 0.31 0.246 0.484 0.061 0.183 0.159 0.357 0.231 0.536 0.067 0.165 0.088 0.335 0.175 0.493 0.053 0.097 0.107 0.188 0.144 0.291 0.031 0.086 0.061 0.17 0.1 0.254 0.073 0.158 0.129 0.315 0.177 0.48 0.047 0.163 0.139 0.318 0.212 0.473 0.068 0.144 0.106 0.293 0.185 0.434 0.040 0.072 0.094 0.135 0.137 0.205 0.049 0.079 0.067 0.167 0.089 0.254 0.048 0.186 0.113 0.372 0.181 0.552 0.035 0.094 0.085 0.184 0.115 0.28 0.035 0.108 0.051 0.223 0.061 0.334 0.008 0.083 0.027 0.164 0.035 0.247 0.008 0.090-0.001 0.177 0.001 0.266 0.004 0.181 0.071 0.368 0.115 0.544 0.023 0.086 0.045 0.172 0.059 0.259 0.012 0.068 0.008 0.141 0.023 0.208 0.015 0.073 0.057 0.14 0.080 0.212 0.031 0.093 0.004 0.173-0.001 0.268-0.004 0.072-0.004 0.146-0.023 0.216-0.015 0.051-0.038 0.098-0.051 0.149-0.023 0.098-0.027 0.177-0.004 0.278 0.027 0.12 0.023 0.241 0.042 0.362 0.015 0.115 0.063 0.237 0.128 0.336 0.049 0.075 0.102 0.149 0.148 0.225 0.042 0.069 0.057 0.132 0.139 0.168 0.127 0.057 0.248 0.125 0.366 0.196 0.231 0.14 0.514 0.162 0.781 0.201 0.105 0.015 0.206 0.051 0.311 0.061 0.095 0.008 0.193-0.001 0.287-0.008 0.077-0.008 0.149-0.015 0.223-0.035 0.145-0.035 0.275-0.108 0.418-0.146 0.091-0.023 0.177-0.031 0.258-0.078 0.057-0.035 0.098-0.074 0.134-0.125s0.070-0.102 0.105-0.153c0.042-0.059 0.039-0.116 0.055-0.183 0.027-0.106 0.105-0.169 0.169-0.258 0.046-0.065 0.079-0.135 0.125-0.2 0.057-0.081 0.126-0.151 0.202-0.217 0.078-0.069 0.159-0.134 0.238-0.202 0.116-0.1 0.15-0.213 0.219-0.337 0.063-0.113 0.175-0.226 0.293-0.293 0.121-0.068 0.2-0.119 0.266-0.236 0.082-0.146 0.115-0.31 0.181-0.462 0.127-0.295 0.184-0.631 0.122-0.944-0.015-0.081-0.012-0.158-0.023-0.239-0.012-0.095-0.038-0.189-0.052-0.285-0.008-0.066-0.023-0.134-0.023-0.201-0.001-0.058-0.015-0.115-0.019-0.171 0.072 0.088 0.085 0.221 0.12 0.322 0.065 0.186 0.158 0.362 0.22 0.55 0.058 0.178 0.121 0.358 0.165 0.539 0.041 0.172 0.050 0.346 0.062 0.521 0.012 0.178 0.019 0.353 0.019 0.531 0 0.096 0.015 0.199-0.003 0.294zM14.3 22.087c-0.027 0.015-0.045 0.027-0.077 0.031-0.096 0.008-0.183-0.015-0.276-0.031-0.144-0.023-0.286-0.015-0.432-0.019-0.093-0.003-0.183-0.019-0.276-0.019-0.097-0.001-0.193-0.012-0.289-0.027-0.153-0.023-0.266-0.095-0.404-0.155-0.153-0.067-0.302-0.121-0.446-0.206-0.142-0.084-0.286-0.167-0.432-0.244-0.139-0.074-0.274-0.136-0.406-0.225s-0.266-0.17-0.397-0.256c-0.117-0.078-0.229-0.146-0.313-0.262-0.091-0.127-0.19-0.267-0.238-0.417-0.008-0.027-0.019-0.080-0.035-0.121-0.015-0.015-0.027-0.035-0.038-0.050 0.015 0.004 0.027 0.027 0.038 0.050 0.055 0.065 0.131 0.127 0.19 0.178 0.111 0.096 0.226 0.19 0.344 0.278 0.089 0.067 0.175 0.136 0.273 0.19 0.156 0.086 0.323 0.125 0.488 0.187 0.126 0.047 0.246 0.108 0.371 0.158 0.138 0.055 0.284 0.087 0.421 0.144 0.169 0.071 0.327 0.148 0.506 0.194 0.191 0.050 0.378 0.105 0.576 0.105 0.097 0.001 0.188 0.035 0.285 0.038 0.053 0.001 0.099-0.008 0.152 0.004 0.093 0.023 0.175 0.069 0.255 0.117 0.065 0.039 0.136 0.068 0.197 0.114 0.031 0.023 0.062 0.045 0.090 0.068 0.031 0.027 0.035 0.047 0.052 0.083-0.096 0.070-0.139 0.070-0.178 0.093zM9.176 9.968c0.051-0.074 0.103-0.145 0.157-0.217 0.118-0.157 0.239-0.311 0.371-0.456 0.039-0.044 0.080-0.084 0.115-0.131 0.027-0.035 0.045-0.075 0.074-0.107 0.048-0.053 0.096-0.105 0.144-0.158 0.066-0.075 0.126-0.16 0.182-0.243 0.074-0.11 0.175-0.196 0.246-0.307 0.059-0.092 0.15-0.165 0.226-0.242s0.155-0.153 0.231-0.229c0.095-0.094 0.193-0.185 0.301-0.264 0.078-0.057 0.168-0.094 0.241-0.158 0.048-0.042 0.086-0.092 0.14-0.127 0.050-0.035 0.104-0.059 0.156-0.088 0.086-0.047 0.159-0.103 0.251-0.142 0.051-0.023 0.095-0.052 0.145-0.076 0.053-0.023 0.108-0.040 0.158-0.071 0.19-0.117 0.424-0.146 0.632-0.221 0.065-0.023 0.132-0.035 0.196-0.060 0.056-0.019 0.107-0.053 0.162-0.075 0.1-0.042 0.207-0.078 0.311-0.108 0.228-0.065 0.462-0.156 0.699-0.182 0.070-0.008 0.132-0.004 0.201-0.019 0.063-0.015 0.124-0.031 0.188-0.042 0.111-0.019 0.222-0.012 0.334-0.012 0.445 0 0.887 0.040 1.322 0.136 0.158 0.035 0.319 0.058 0.476 0.094 0.096 0.023 0.196 0.019 0.293 0.039 0.237 0.049 0.47 0.115 0.706 0.168 0.098 0.023 0.195 0.040 0.29 0.074 0.055 0.019 0.103 0.046 0.156 0.068 0.050 0.019 0.1 0.031 0.15 0.046 0.098 0.035 0.194 0.074 0.293 0.107 0.104 0.035 0.21 0.076 0.31 0.12 0.55 0.238 1.073 0.552 1.565 0.894 0.105 0.073 0.201 0.155 0.302 0.233 0.116 0.091 0.215 0.198 0.331 0.288 0.096 0.074 0.183 0.163 0.261 0.255 0.11 0.129 0.241 0.233 0.353 0.359 0.202 0.225 0.412 0.438 0.588 0.685 0.074 0.104 0.149 0.219 0.204 0.335 0.065 0.136 0.145 0.265 0.215 0.399 0.080 0.152 0.137 0.313 0.193 0.475 0.058 0.165 0.132 0.323 0.184 0.492 0.038 0.123 0.085 0.236 0.103 0.364 0.019 0.138 0.063 0.278 0.068 0.416 0.008 0.239 0.008 0.486-0 0.725-0.001 0.059-0.015 0.117-0.023 0.174-0.008 0.040-0.001 0.092-0.012 0.13-0.012 0.039-0.019 0.062-0.019 0.103l0.035-0.513c-0.045 0.175-0.065 0.351-0.062 0.53 0.001 0.047 0.004 0.092 0.004 0.139 0.001 0.097-0 0.203-0.065 0.283-0.041 0.051-0.115 0.086-0.161 0.133-0.019 0.019-0.056 0.081-0.089 0.087-0.047-0.171-0.069-0.356-0.135-0.521-0.031-0.080-0.081-0.13-0.145-0.185-0.035-0.031-0.067-0.066-0.108-0.083-0.082-0.035-0.203-0.015-0.272 0.035-0.061 0.044-0.064 0.087-0.038 0.15 0.046 0.111 0.080 0.22 0.072 0.341-0.008 0.145-0.055 0.282-0.078 0.425-0.012 0.073 0.001 0.165-0.031 0.233-0.019 0.038-0.068 0.047-0.091 0.077-0.065 0.081-0.051 0.218-0.051 0.313 0.001 0.166 0.027 0.332 0.019 0.498-0.004 0.095-0.015 0.19-0.057 0.277-0.027 0.055-0.057 0.106-0.077 0.164-0.067 0.179-0.088 0.378-0.201 0.538-0.058 0.081-0.14 0.145-0.192 0.232-0.056 0.095-0.077 0.207-0.107 0.311-0.031 0.105-0.058 0.22-0.116 0.314-0.051 0.083-0.125 0.152-0.187 0.227-0.127 0.154-0.208 0.369-0.386 0.474-0.076 0.045-0.167 0.071-0.246 0.108-0.043 0.019-0.079 0.042-0.125 0.050-0.012-0.066 0-0.141-0.003-0.209-0.004-0.105-0.019-0.214-0.052-0.315-0.035-0.116 0.001-0.229 0.046-0.339 0.031-0.073 0.073-0.133 0.114-0.199 0.041-0.067 0.052-0.14 0.073-0.214 0.047-0.167 0.065-0.341 0.196-0.466 0.054-0.031 0.1-0.068 0.137-0.116-0.001-0.023-0.004-0.049-0.004-0.074-0.015-0.094-0.119-0.241-0.19-0.3-0.195-0.163-0.445-0.205-0.689-0.237-0.133-0.019-0.295-0.035-0.429-0.027-0.133 0.008-0.261 0.060-0.393 0.061-0.063 0-0.132 0-0.185-0.038-0.070-0.050-0.089-0.16-0.116-0.237-0.056-0.161-0.113-0.322-0.166-0.484-0.027-0.082-0.050-0.162-0.049-0.25 0-0.124 0.070-0.256 0.107-0.374 0.015-0.050 0.046-0.097 0.052-0.151 0.008-0.086-0.008-0.175-0.023-0.258-0.015-0.073-0.035-0.146-0.043-0.22-0.004-0.035-0.015-0.119-0.001-0.157s0.056-0.064 0.072-0.103c0.015-0.038 0.008-0.082 0.027-0.118 0.019-0.038 0.064-0.061 0.096-0.090 0.058-0.053 0.11-0.114 0.159-0.176 0.059-0.075 0.108-0.156 0.194-0.203 0.096-0.053 0.206-0.045 0.301-0.103 0.094-0.058 0.153-0.153 0.244-0.213 0.070-0.047 0.145-0.031 0.221-0.031-0.035-0.050-0.136-0.089-0.184-0.107-0.053-0.019-0.108-0.035-0.162-0.051-0.132-0.035-0.274-0.042-0.378 0.062-0.042 0.042-0.074 0.092-0.12 0.13-0.040 0.035-0.087 0.052-0.134 0.073-0.070 0.031-0.159 0.047-0.224 0.086-0.038 0.023-0.049 0.051-0.095 0.060-0.040 0.008-0.075-0.004-0.113-0.023-0.082-0.038-0.151-0.1-0.233-0.139 0.003 0.001-0.068-0.023-0.071-0.027-0.023-0.031-0.012-0.084-0.012-0.12 0.001-0.078 0.004-0.171-0.038-0.241-0.073-0.121-0.206 0.042-0.288-0.074-0.075-0.105-0.13-0.264-0.121-0.394 0.004-0.060 0.035-0.133 0.070-0.181 0.019-0.027 0.031-0.027 0.064-0.027 0.035-0.001 0.035 0.001 0.055-0.027 0.023-0.038 0.042-0.084 0.061-0.124 0.035-0.072 0.088-0.157 0.090-0.236 0.001-0.027-0-0.051-0.004-0.077-0.012-0.072-0.008-0.127 0.012-0.197 0.019-0.068 0.040-0.136 0.082-0.195 0.031-0.043 0.035-0.075 0.045-0.126 0.012-0.048 0.053-0.095 0.056-0.144 0.004-0.077-0.068-0.146-0.138-0.162-0.156-0.035-0.226 0.044-0.321 0.15-0.086 0.095-0.161 0.191-0.228 0.3-0.063 0.102-0.128 0.184-0.223 0.257-0.038 0.031-0.068 0.067-0.121 0.041-0.035-0.015-0.070-0.059-0.096-0.087-0.045-0.049-0.083-0.087-0.082-0.155 0.003-0.117 0.080-0.201 0.116-0.306 0.015-0.042 0.015-0.083 0.008-0.127-0.004-0.043-0.031-0.103-0.019-0.146 0.008-0.027 0.023-0.023 0.035-0.039 0.015-0.027 0.015-0.088 0.019-0.121 0.015-0.097-0.015-0.194 0.019-0.289 0.015-0.052 0.048-0.1 0.065-0.152 0.023-0.071 0.008-0.17 0.080-0.213 0.052-0.031 0.114-0.019 0.168-0.053 0.027-0.015 0.048-0.040 0.066-0.065 0.023-0.035 0.045-0.062 0.019-0.094-0.015-0.015-0.070-0.040-0.087-0.050-0.040-0.023-0.080-0.048-0.121-0.071-0.045-0.023-0.078-0.038-0.127-0.042-0.038-0.004-0.059-0.008-0.095-0.027-0.052-0.027-0.107-0.039-0.159-0.062-0.035-0.015-0.104-0.058-0.107-0.096-0.003-0.031 0.015-0.073 0.015-0.107 0.003-0.065 0.008-0.127 0.027-0.19 0.015-0.053 0.045-0.102 0.063-0.155 0.019-0.060 0.031-0.146-0.012-0.197-0.047-0.058-0.135-0.063-0.205-0.072-0.146-0.019-0.292-0.054-0.438-0.078-0.101-0.015-0.206-0.027-0.3-0.066-0.083-0.035-0.153-0.088-0.24-0.111-0.082-0.019-0.195-0.052-0.271 0.004-0.031 0.023-0.039 0.052-0.076 0.067-0.031 0.012-0.063 0.008-0.094 0.008-0.073 0.003-0.141 0.004-0.214 0.019-0.102 0.019-0.197 0.019-0.301 0.015-0.062-0.001-0.123-0.008-0.179 0.023-0.031 0.019-0.047 0.035-0.073 0.060-0.031 0.027-0.063 0.040-0.078 0.078-0.023 0.060-0.023 0.1-0.085 0.139-0.091 0.057-0.21 0.075-0.314 0.075-0.041 0-0.082-0.001-0.123-0.001 0.001 0-0.049-0.004-0.053-0.001-0.015 0.012-0.015 0.035-0.023 0.056-0.012 0.058-0.019 0.107-0.049 0.16-0.067 0.122-0.114 0.302-0.070 0.439 0.027 0.082 0.076 0.153 0.11 0.232 0.038 0.090 0 0.154-0.072 0.213-0.094 0.076-0.21 0.131-0.309 0.201-0.101 0.072-0.195 0.143-0.319 0.168-0.132 0.027-0.264-0.044-0.373-0.111-0.019-0.012-0.117-0.061-0.103-0.097 0.003-0.004 0.031-0.015 0.035-0.019 0.019-0.015 0.027-0.035 0.031-0.056 0.015-0.055 0.003-0.12 0.003-0.175-0-0.085-0.004-0.163-0.019-0.247-0.097-0.008-0.188-0.058-0.279-0.085-0.068-0.019-0.081-0.077-0.073-0.145 0.008-0.085 0.046-0.158 0.031-0.246-0.008-0.053-0.023-0.27-0.104-0.271-0.012 0.003-0.023 0.008-0.035 0.015-0.015 0.004-0.031 0.004-0.049 0.004-0.052 0.008-0.11 0.019-0.16 0.035-0.086 0.027-0.179 0.071-0.259 0.111-0.091 0.047-0.194 0.087-0.281 0.14-0.067 0.041-0.126 0.098-0.175 0.158-0.023 0.035-0.050 0.070-0.076 0.104-0.031 0.027-0.068 0.048-0.11 0.057-0.109 0.046-0.201 0.119-0.304 0.175-0.086 0.047-0.123 0.077-0.171 0.162-0.044 0.078-0.106 0.125-0.161 0.193s-0.081 0.168-0.156 0.218c-0.055 0.038-0.1 0.054-0.131 0.117-0.019 0.042-0.031 0.086-0.052 0.128-0.008 0.019-0.015 0.043-0.023 0.065-0.023 0.035-0.052 0.064-0.085 0.090-0.052 0.052-0.080 0.086-0.072 0.16 0.012 0.097 0.12 0.099 0.196 0.122 0.059 0.019 0.287 0.070 0.285 0.146-0.001 0.035-0.054 0.075-0.066 0.109-0.019 0.061-0.035 0.134-0.040 0.198-0.008 0.103-0.008 0.228-0.070 0.313-0.042 0.057-0.066 0.125-0.094 0.19-0.019 0.043-0.015 0.078-0.060 0.105-0.035 0.023-0.091 0.015-0.131 0.023-0.023 0.064 0.070 0.112 0.072 0.174 0.001 0.043 0.008 0.1-0.004 0.142-0.008 0.035-0.040 0.060-0.048 0.096-0.008 0.035 0 0.072-0.004 0.107-0.008 0.044-0.019 0.052-0.046 0.083-0.047 0.060-0.071 0.113-0.079 0.188-0.008 0.072-0.041 0.114-0.068 0.178-0.019 0.048-0.027 0.118-0.035 0.165-0.019 0.091-0.042 0.165-0.085 0.247-0.031 0.055-0.038 0.111-0.056 0.169-0.027 0.081-0.086 0.136-0.146 0.193-0.068 0.065-0.114 0.113-0.211 0.114-0.073 0.001-0.146-0.004-0.219-0.004-0.023 0-0.063 0.008-0.086-0.003-0.062-0.027-0-0.086 0.001-0.134 0.003-0.060-0.008-0.122-0.001-0.182 0.003-0.038 0.015-0.071 0.019-0.11 0.001-0.035 0.001-0.050 0.015-0.083 0.027-0.059 0.053-0.094 0.056-0.163 0.001-0.039 0.001-0.082 0-0.121-0.004-0.148-0.095-0.279-0.091-0.425 0.001-0.057-0.008-0.118 0.004-0.174 0.008-0.027 0.023-0.052 0.031-0.077 0.019-0.051 0.035-0.106 0.057-0.156 0.023-0.047 0.035-0.063 0.031-0.118-0.001-0.050 0.008-0.093 0.015-0.143 0.012-0.089-0.001-0.179 0.003-0.269 0.004-0.081 0.019-0.158 0.019-0.24 0-0.065 0.004-0.121-0.019-0.182-0.015-0.039-0.045-0.072-0.055-0.11-0.027-0.099 0.049-0.207-0.050-0.279-0.061-0.043-0.131-0.061-0.2-0.088-0.023-0.008-0.063-0.015-0.072-0.038-0.015-0.039 0.035-0.128 0.055-0.156zM30.208 17.423c-0.035-0.1-0.074-0.203-0.078-0.306-0.004-0.088 0.069-0.183 0.055-0.266-0.043-0.249-0.111-0.492-0.17-0.738-0.015 0.003-0.035 0.008-0.050 0.008-0.004 0.049-0.008 0.098-0.015 0.146-0.052-0.081-0.092-0.166-0.088-0.249 0.012-0.231 0.043-0.462 0.064-0.692 0.035-0.369 0.085-0.732-0.045-1.103-0.146-0.414-0.264-0.84-0.286-1.285-0.008-0.165-0.035-0.33-0.058-0.494-0.019-0.129-0.042-0.257-0.070-0.384-0.019-0.077-0.052-0.15-0.075-0.227-0.035-0.117-0.071-0.233-0.097-0.352-0.008-0.041 0.031-0.1 0.012-0.129-0.164-0.266-0.197-0.572-0.285-0.862-0.012-0.042-0.027-0.090-0.053-0.122-0.123-0.143-0.254-0.281-0.377-0.425-0.023-0.027-0.027-0.073-0.050-0.146-0.199-0.226-0.442-0.469-0.644-0.742-0.28-0.376-0.528-0.776-0.793-1.164-0.045-0.065-0.104-0.121-0.157-0.181-0.119-0.137-0.238-0.273-0.363-0.416 0.035-0.015 0.053-0.023 0.070-0.031-0.263-0.358-0.526-0.714-0.792-1.076-0.015 0.045-0.027 0.080-0.039 0.116-0.012 0.003-0.023 0.004-0.038 0.008-0.060-0.144-0.134-0.284-0.177-0.432-0.038-0.126-0.098-0.205-0.221-0.255-0.082-0.031-0.153-0.094-0.223-0.15-0.064-0.051-0.112-0.123-0.179-0.17-0.187-0.132-0.371-0.272-0.572-0.379-0.286-0.151-0.506-0.371-0.723-0.599-0.119-0.124-0.235-0.252-0.357-0.373-0.041-0.040-0.096-0.080-0.151-0.092-0.38-0.085-0.763-0.161-1.144-0.244-0.063-0.015-0.129-0.035-0.18-0.072-0.19-0.135-0.369-0.285-0.563-0.414-0.227-0.151-0.464-0.288-0.699-0.426-0.118-0.070-0.235-0.159-0.364-0.188-0.371-0.083-0.747-0.141-1.122-0.206-0.039-0.008-0.081 0.001-0.121 0.008-0.132 0.015-0.271 0.067-0.395 0.043-0.377-0.072-0.723 0.049-1.070 0.146-0.18 0.051-0.326 0.004-0.474-0.072-0.019-0.008-0.012-0.067-0.023-0.143-0.29-0.061-0.612-0.147-0.941-0.19-0.195-0.027-0.399 0.019-0.6 0.027-0.085 0.004-0.174 0.012-0.256-0.008-0.15-0.035-0.296-0.121-0.443-0.123-0.26-0.001-0.519 0.056-0.779 0.067-0.117 0.004-0.136 0.119-0.218 0.139-0.153 0.038-0.31 0.056-0.466 0.082-0-0.004-0.001-0.012-0.001-0.015 0.039-0.019 0.078-0.039 0.145-0.072-0.299-0.058-0.361-0.038-0.531 0.145-0.027 0.031-0.055 0.070-0.089 0.080-0.189 0.058-0.314 0.213-0.485 0.299-0.058 0.031-0.112 0.068-0.166 0.106-0.116 0.081-0.22 0.192-0.348 0.239-0.402 0.148-0.814 0.271-1.221 0.405-0.083 0.027-0.164 0.058-0.245 0.088 0.004 0.015 0.008 0.027 0.012 0.043l0.226-0.043c0.008 0.015 0.012 0.027 0.019 0.040-0.075 0.039-0.146 0.095-0.226 0.114-0.117 0.027-0.241 0.195-0.362 0.001-0.004-0.008-0.040-0.003-0.058 0.003-0.351 0.113-0.712 0.208-1.010 0.441-0.154 0.121-0.287 0.291-0.461 0.357-0.221 0.083-0.377 0.223-0.534 0.38-0.027 0.027-0.063 0.047-0.095 0.071-0.18 0.137-0.367 0.264-0.535 0.414-0.104 0.093-0.178 0.218-0.269 0.335-0.068-0.080-0.088-0.104-0.134-0.159-0.104 0.118-0.195 0.227-0.292 0.329-0.272 0.286-0.519 0.597-0.853 0.822-0.060 0.041-0.104 0.109-0.15 0.168-0.148 0.193-0.288 0.39-0.439 0.58-0.334 0.421-0.674 0.838-0.895 1.335-0.035 0.077-0.095 0.142-0.146 0.211-0.008 0.008-0.023 0.015-0.048 0.027 0.008-0.045 0.015-0.078 0.023-0.111-0.084 0.055-0.159 0.119-0.184 0.199-0.097 0.31-0.18 0.625-0.266 0.939-0.056 0.202-0.083 0.416-0.168 0.606-0.18 0.406-0.384 0.802-0.588 1.197-0.042 0.081-0.148 0.13-0.183 0.212-0.076 0.178-0.144 0.363-0.183 0.551-0.074 0.351-0.121 0.707-0.188 1.060-0.019 0.098-0.082 0.188-0.093 0.286-0.065 0.555-0.027 1.121-0.214 1.662-0.127 0.364-0.068 0.754 0.001 1.106 0.114 0.581 0.121 1.16 0.133 1.743 0.003 0.142 0.058 0.285 0.106 0.422 0.089 0.255 0.19 0.506 0.285 0.76 0.008 0.023 0.015 0.049 0.008 0.070-0.031 0.108-0.057 0.224 0.049 0.295 0.2 0.135 0.262 0.323 0.256 0.547-0.001 0.035 0.012 0.070 0.019 0.104 0.101 0.596 0.346 1.141 0.628 1.669 0.178 0.333 0.387 0.65 0.58 0.976 0.090 0.152 0.175 0.307 0.259 0.462 0.087 0.159 0.143 0.345 0.261 0.476 0.225 0.253 0.472 0.49 0.733 0.706 0.296 0.246 0.631 0.436 0.855 0.772 0.156 0.235 0.411 0.403 0.595 0.624 0.291 0.349 0.556 0.72 0.84 1.076 0.051 0.063 0.14 0.126 0.217 0.135 0.242 0.027 0.486 0.035 0.73 0.035 5.17-0.019 10.339-0.042 15.509-0.065 0.112-0.001 0.224 0 0.335-0.012 0.045-0.004 0.104-0.027 0.129-0.060 0.239-0.319 0.471-0.643 0.707-0.964 0.035-0.047 0.077-0.092 0.125-0.127 0.175-0.126 0.354-0.246 0.531-0.369 0.031-0.023 0.061-0.057 0.098-0.065 0.422-0.103 0.768-0.294 0.918-0.735 0.052-0.152 0.124-0.298 0.2-0.441 0.108-0.205 0.211-0.415 0.346-0.602 0.246-0.345 0.515-0.675 0.772-1.013 0.042-0.055 0.075-0.12 0.1-0.185 0.292-0.768 0.582-1.535 0.969-2.265 0.104-0.196 0.161-0.45 0.142-0.67-0.040-0.47 0.004-0.912 0.214-1.336 0.031-0.058 0.049-0.121 0.074-0.182 0.106-0.254 0.196-0.516 0.325-0.758 0.062-0.117 0.116-0.213 0.072-0.345z"></path>
<path d="M8.077 27.832c0.127 0.116 0.249 0.235 0.38 0.347 0.043 0.038 0.102 0.074 0.16 0.085 0.404 0.079 0.81 0.15 1.215 0.228 0.066 0.015 0.137 0.035 0.191 0.067 0.202 0.125 0.392 0.265 0.597 0.385 0.241 0.14 0.493 0.268 0.743 0.396 0.125 0.065 0.25 0.148 0.387 0.175 0.394 0.078 0.794 0.131 1.192 0.192 0.041 0.008 0.086-0.001 0.128-0.004 0.14-0.015 0.288-0.062 0.42-0.040 0.401 0.067 0.768-0.045 1.136-0.136 0.191-0.047 0.346-0.004 0.504 0.067 0.019 0.008 0.015 0.062 0.027 0.133 0.308 0.057 0.65 0.137 0.999 0.177 0.207 0.023 0.424-0.019 0.637-0.027 0.091-0.004 0.185-0.012 0.272 0.008 0.159 0.031 0.314 0.113 0.471 0.114 0.276 0.001 0.551-0.052 0.827-0.062 0.124-0.004 0.145-0.11 0.231-0.129 0.162-0.035 0.329-0.052 0.494-0.076 0.001 0.004 0.001 0.008 0.001 0.015-0.042 0.019-0.083 0.038-0.154 0.067 0.318 0.054 0.383 0.035 0.564-0.135 0.031-0.027 0.058-0.065 0.095-0.074 0.201-0.054 0.334-0.199 0.514-0.279 0.062-0.027 0.119-0.063 0.176-0.098 0.123-0.075 0.233-0.179 0.369-0.223 0.427-0.138 0.864-0.253 1.297-0.377 0.087-0.027 0.173-0.054 0.26-0.082-0.004-0.015-0.008-0.027-0.012-0.040-0.080 0.015-0.16 0.027-0.24 0.040-0.008-0.012-0.015-0.027-0.019-0.038 0.079-0.035 0.155-0.088 0.24-0.106 0.124-0.027 0.256-0.182 0.384-0.001 0.004 0.008 0.042 0.003 0.061-0.003 0.373-0.106 0.756-0.193 1.073-0.41 0.163-0.112 0.305-0.271 0.489-0.332 0.136-0.045 0.247-0.108 0.349-0.18h-16.891c0.154 0.109 0.295 0.231 0.432 0.358z"></path>
</svg>
