<!-- Generated by IcoMoon.io -->
<svg version="1.1" xmlns="http://www.w3.org/2000/svg" width="32" height="32" viewBox="0 0 32 32">
<title>return_to_the_witching_hour</title>
<path d="M18.58 7.458c-0.781-0.228-1.607-0.353-2.462-0.353-4.799 0-8.69 3.86-8.69 8.621s3.891 8.621 8.69 8.621c0.856 0 1.681-0.125 2.462-0.353-3.6-1.053-6.228-4.355-6.228-8.268s2.628-7.214 6.228-8.268z"></path>
<path d="M20.192 24.305c-1.236 0.579-2.617 0.904-4.074 0.904-5.279 0-9.559-4.246-9.559-9.483s4.28-9.483 9.559-9.483c1.458 0 2.838 0.325 4.074 0.904 3.241 1.518 5.485 4.788 5.485 8.579s-2.244 7.062-5.485 8.579zM30.203 17.419c-0.035-0.1-0.074-0.203-0.078-0.306-0.004-0.088 0.069-0.183 0.055-0.266-0.043-0.249-0.111-0.493-0.17-0.738-0.015 0.003-0.035 0.008-0.050 0.008-0.004 0.049-0.008 0.098-0.015 0.146-0.052-0.081-0.092-0.166-0.088-0.249 0.012-0.231 0.043-0.461 0.064-0.692 0.031-0.369 0.085-0.732-0.045-1.103-0.145-0.414-0.264-0.84-0.286-1.285-0.008-0.165-0.035-0.33-0.058-0.494-0.019-0.129-0.042-0.257-0.070-0.384-0.019-0.077-0.052-0.15-0.075-0.226-0.035-0.117-0.071-0.234-0.098-0.352-0.008-0.041 0.031-0.1 0.012-0.129-0.164-0.266-0.197-0.572-0.284-0.862-0.012-0.043-0.027-0.090-0.053-0.122-0.123-0.143-0.254-0.281-0.377-0.424-0.023-0.027-0.027-0.073-0.050-0.146-0.199-0.227-0.442-0.469-0.644-0.742-0.28-0.376-0.528-0.776-0.793-1.164-0.045-0.065-0.104-0.121-0.157-0.181-0.119-0.137-0.238-0.274-0.362-0.416 0.035-0.015 0.053-0.023 0.070-0.031-0.263-0.357-0.526-0.714-0.792-1.076-0.015 0.045-0.027 0.081-0.038 0.116-0.012 0.003-0.023 0.004-0.038 0.008-0.060-0.144-0.134-0.283-0.177-0.432-0.038-0.126-0.098-0.205-0.221-0.254-0.081-0.035-0.153-0.094-0.223-0.151-0.064-0.051-0.112-0.123-0.179-0.17-0.187-0.132-0.371-0.272-0.572-0.378-0.286-0.151-0.505-0.371-0.723-0.598-0.119-0.125-0.235-0.252-0.357-0.373-0.041-0.040-0.096-0.079-0.151-0.091-0.381-0.085-0.763-0.161-1.144-0.244-0.063-0.015-0.129-0.035-0.18-0.072-0.19-0.135-0.369-0.285-0.563-0.413-0.227-0.151-0.464-0.288-0.699-0.426-0.118-0.070-0.235-0.159-0.364-0.188-0.371-0.083-0.747-0.141-1.122-0.206-0.039-0.008-0.081 0.001-0.121 0.008-0.132 0.015-0.271 0.067-0.395 0.043-0.377-0.072-0.723 0.049-1.070 0.146-0.181 0.050-0.326 0.004-0.474-0.072-0.019-0.008-0.015-0.067-0.023-0.143-0.29-0.061-0.612-0.147-0.94-0.19-0.195-0.027-0.399 0.019-0.599 0.027-0.086 0.004-0.175 0.012-0.256-0.008-0.15-0.035-0.295-0.121-0.443-0.123-0.259-0.001-0.519 0.056-0.779 0.067-0.116 0.004-0.136 0.118-0.218 0.139-0.152 0.038-0.31 0.056-0.465 0.082-0-0.004-0.001-0.012-0.001-0.015 0.039-0.019 0.078-0.039 0.145-0.072-0.299-0.058-0.361-0.038-0.531 0.145-0.027 0.031-0.055 0.070-0.090 0.080-0.189 0.058-0.314 0.213-0.484 0.299-0.058 0.031-0.112 0.068-0.166 0.106-0.116 0.080-0.219 0.192-0.348 0.239-0.402 0.148-0.814 0.271-1.221 0.405-0.082 0.027-0.163 0.058-0.245 0.088 0.004 0.015 0.008 0.027 0.012 0.043l0.226-0.043c0.008 0.015 0.012 0.027 0.019 0.041-0.075 0.039-0.146 0.095-0.226 0.114-0.117 0.027-0.241 0.195-0.362 0.001-0.004-0.008-0.040-0.003-0.058 0.003-0.351 0.114-0.712 0.208-1.010 0.441-0.154 0.12-0.287 0.291-0.461 0.357-0.221 0.083-0.377 0.224-0.534 0.379-0.027 0.027-0.063 0.047-0.095 0.071-0.18 0.137-0.367 0.264-0.535 0.413-0.104 0.093-0.178 0.218-0.269 0.335-0.068-0.080-0.088-0.103-0.134-0.159-0.104 0.118-0.194 0.227-0.292 0.329-0.273 0.286-0.519 0.597-0.852 0.821-0.061 0.041-0.104 0.109-0.15 0.168-0.147 0.193-0.288 0.39-0.439 0.58-0.334 0.421-0.674 0.838-0.895 1.335-0.035 0.076-0.095 0.142-0.146 0.211-0.008 0.008-0.023 0.015-0.047 0.027 0.008-0.045 0.015-0.078 0.023-0.111-0.084 0.055-0.159 0.119-0.184 0.199-0.098 0.31-0.18 0.625-0.266 0.939-0.056 0.202-0.084 0.416-0.168 0.605-0.18 0.406-0.384 0.802-0.587 1.197-0.042 0.080-0.148 0.13-0.183 0.212-0.076 0.177-0.144 0.362-0.183 0.551-0.073 0.351-0.121 0.707-0.188 1.060-0.019 0.098-0.082 0.188-0.093 0.286-0.065 0.555-0.027 1.121-0.214 1.661-0.126 0.365-0.068 0.754 0.001 1.106 0.114 0.581 0.121 1.16 0.133 1.743 0.003 0.141 0.058 0.285 0.106 0.422 0.089 0.255 0.19 0.506 0.285 0.76 0.008 0.023 0.015 0.049 0.008 0.070-0.031 0.108-0.057 0.224 0.049 0.295 0.2 0.135 0.262 0.322 0.256 0.547-0.001 0.035 0.012 0.070 0.019 0.104 0.101 0.596 0.346 1.14 0.628 1.668 0.178 0.334 0.388 0.65 0.58 0.976 0.090 0.152 0.174 0.307 0.258 0.462 0.087 0.16 0.143 0.344 0.261 0.476 0.225 0.253 0.472 0.49 0.732 0.706 0.296 0.246 0.631 0.436 0.855 0.772 0.156 0.235 0.411 0.403 0.595 0.624 0.291 0.349 0.556 0.72 0.84 1.075 0.051 0.063 0.14 0.126 0.217 0.135 0.242 0.027 0.486 0.035 0.73 0.035 5.169-0.019 10.338-0.042 15.506-0.065 0.112-0.001 0.224 0 0.335-0.012 0.045-0.004 0.104-0.027 0.129-0.060 0.239-0.319 0.471-0.643 0.707-0.964 0.035-0.047 0.077-0.092 0.125-0.126 0.175-0.126 0.354-0.246 0.531-0.369 0.031-0.023 0.062-0.057 0.098-0.065 0.422-0.103 0.768-0.294 0.918-0.735 0.052-0.152 0.124-0.298 0.2-0.441 0.108-0.205 0.211-0.415 0.346-0.602 0.247-0.345 0.515-0.674 0.772-1.013 0.042-0.055 0.075-0.12 0.1-0.184 0.292-0.768 0.582-1.535 0.969-2.264 0.104-0.196 0.161-0.45 0.142-0.669-0.040-0.47 0.004-0.912 0.214-1.335 0.031-0.059 0.049-0.122 0.075-0.182 0.106-0.254 0.197-0.516 0.325-0.758 0.062-0.117 0.116-0.213 0.072-0.344z"></path>
<path d="M8.066 27.833c0.126 0.116 0.249 0.235 0.379 0.347 0.043 0.038 0.102 0.073 0.16 0.085 0.404 0.079 0.81 0.15 1.215 0.228 0.066 0.015 0.137 0.035 0.191 0.067 0.202 0.125 0.392 0.265 0.597 0.385 0.241 0.14 0.493 0.268 0.743 0.396 0.125 0.065 0.249 0.148 0.387 0.175 0.394 0.078 0.794 0.131 1.192 0.192 0.041 0.008 0.086-0.001 0.128-0.004 0.14-0.015 0.288-0.062 0.42-0.040 0.401 0.067 0.767-0.046 1.136-0.136 0.191-0.047 0.346-0.004 0.504 0.067 0.019 0.008 0.015 0.062 0.027 0.133 0.308 0.057 0.65 0.137 0.999 0.177 0.207 0.023 0.424-0.019 0.637-0.027 0.091-0.004 0.185-0.012 0.272 0.008 0.159 0.031 0.314 0.113 0.471 0.114 0.275 0.001 0.551-0.052 0.827-0.062 0.124-0.004 0.145-0.11 0.231-0.129 0.162-0.035 0.329-0.052 0.494-0.076 0.001 0.004 0.001 0.008 0.001 0.015-0.042 0.019-0.083 0.038-0.154 0.067 0.318 0.054 0.383 0.035 0.564-0.135 0.031-0.027 0.058-0.065 0.095-0.075 0.201-0.054 0.334-0.198 0.514-0.279 0.062-0.027 0.119-0.063 0.176-0.098 0.123-0.075 0.233-0.179 0.369-0.223 0.427-0.138 0.864-0.253 1.297-0.377 0.088-0.027 0.173-0.055 0.26-0.082-0.004-0.015-0.008-0.027-0.012-0.040-0.080 0.015-0.16 0.027-0.24 0.040-0.008-0.012-0.015-0.027-0.019-0.038 0.079-0.035 0.155-0.088 0.24-0.106 0.124-0.027 0.256-0.182 0.384-0.001 0.004 0.008 0.042 0.003 0.061-0.003 0.373-0.106 0.756-0.193 1.072-0.41 0.163-0.112 0.304-0.271 0.489-0.332 0.136-0.045 0.247-0.108 0.349-0.181h-16.889c0.154 0.109 0.294 0.231 0.432 0.358z"></path>
</svg>
