<!-- Generated by IcoMoon.io -->
<svg version="1.1" xmlns="http://www.w3.org/2000/svg" width="32" height="32" viewBox="0 0 32 32">
<title>return_to_dim_carcosa</title>
<path d="M14.501 4.5c-0.046 0.025-0.089 0.049-0.133 0.072-0.030 0.012-0.059 0.025-0.084 0.039-0.053 0.021-0.102 0.044-0.15 0.064-0.096 0.038-0.182 0.071-0.249 0.104l0.152-0.104c-0.092 0.063-0.17 0.104-0.251 0.148l0.115-0.008c-0.099 0.044-0.178 0.086-0.187 0.067-0.082 0.081 0.112 0.030-0.062 0.172-0.069 0.025-0.161 0.082-0.246 0.131-0.043 0.023-0.085 0.043-0.12 0.057-0.018 0.006-0.032 0.012-0.046 0.013-0.008 0-0.014-0.003-0.020-0.010 0.006-0.001 0.033-0.015 0.051-0.024 0.020-0.010 0.036-0.021 0.051-0.027 0.026-0.015 0.041-0.025 0.051-0.032 0.016-0.016 0.005-0.021-0.008-0.022-0.027-0.006-0.066-0.013 0.101-0.11-0.063 0.042-0.14 0.085-0.241 0.13-0.017 0.001 0.008-0.021 0.032-0.037-0.027 0.010-0.068 0.028-0.074 0.029-0.004-0.001-0.004-0.001-0.007 0-0.004-0.001-0.005 0.001-0.005 0.002-0.008 0.002-0.034 0.006-0.044 0.010-0.028 0.008-0.046 0.019-0.071 0.030-0.048 0.022-0.115 0.047-0.307 0.051 0.038-0.024-0.023-0.039-0.089-0.047 0.043 0.017-0.041 0.056-0.165 0.078-0.288-0.020-0.312 0.027-0.463 0.027l0.172 0.008c-0.027 0.017-0.076 0.028-0.142 0.034-0.068 0.005-0.154 0.009-0.256 0.015-0.007 0.002-0.018 0.005-0.027 0.010-0.006-0.005 0.004-0.014 0.024-0.024-0.075 0.028-0.111 0.039-0.17 0.054-0.056 0.009-0.116 0.020-0.177 0.032-0.12 0.022-0.248 0.051-0.371 0.11-0.145 0.022-0.032-0.058-0.158-0.034-0.123 0.059-0.209 0.082-0.285 0.098-0.038 0.008-0.072 0.013-0.111 0.022-0.020 0.004-0.039 0.009-0.061 0.013-0.011 0.004-0.023 0.005-0.034 0.008-0.021 0.006-0.040 0.013-0.061 0.018-0.020 0.012-0.040 0.025-0.062 0.037-0.012 0.006-0.027 0.017-0.040 0.025-0.028 0.018-0.057 0.041-0.089 0.066 0.114-0.016 0.123-0.034-0.074 0.14l0.297-0.204 0.27-0.104-0.12 0.066c-0.046 0.022-0.067 0.037-0.138 0.067-0.054 0.040-0.073 0.063-0.104 0.091 0.037-0.023 0.076-0.050 0.113-0.074 0.039-0.015 0.078-0.030 0.115-0.044 0.034-0.013 0.065-0.028 0.094-0.039 0.061-0.026 0.117-0.045 0.158-0.056-0.165 0.095-0.152 0.078-0.057 0.088-0.052 0.001-0.1 0.010-0.147 0.022-0.023 0.006-0.049 0.015-0.071 0.024l-0.083 0.032c-0.065 0.048-0.13 0.095-0.199 0.147-0.065 0.047-0.135 0.090-0.217 0.123l-0.052-0.101c-0.29 0.133-0.505 0.325-0.772 0.509-0.086 0.047-0.217 0.11-0.349 0.162l0.174-0.057c-0.050 0.072-0.315 0.151-0.472 0.243-0.001-0.042-0.109-0.006-0.19 0.002 0.018 0.023-0.371 0.168-0.391 0.261l-0.067 0.020-0.061 0.044-0.046 0.029-0.088 0.056c-0.342 0.298-0.298 0.437-0.622 0.728 0.066-0.12-0.096-0.002 0.093-0.226-0.104 0.101-0.202 0.185-0.185 0.206-0.017 0.008-0.041 0.030-0.066 0.056-0.027 0.031-0.060 0.069-0.094 0.11-0.031 0.056-0.065 0.119-0.096 0.175-0.029 0.049-0.058 0.092-0.086 0.118-0.021 0.060 0.002 0.099-0.088 0.233-0.017 0.011-0.018-0.010-0.018-0.010 0.017 0.010-0.117 0.227-0.003 0.131-0.077 0.069-0.153 0.16-0.229 0.263-0.038 0.049-0.074 0.104-0.111 0.16-0.034 0.052-0.068 0.104-0.103 0.157-0.059 0.053-0.12 0.107-0.179 0.16-0.063 0.053-0.125 0.107-0.184 0.158-0.12 0.099-0.236 0.181-0.337 0.229-0.129 0.12-0.269 0.252-0.398 0.372-0.063 0.178-0.121 0.341-0.169 0.482-0.005-0.022-0.017-0.008 0.005-0.057-0.171 0.361 0.019 0.266-0.174 0.677-0.139 0.195 0.049-0.236-0.022-0.11-0.040 0.005-0.069 0.047-0.098 0.113-0.013 0.033-0.027 0.073-0.042 0.115-0.010 0.038-0.031 0.099-0.032 0.113-0.004 0.010-0.026 0.044-0.049 0.076l-0.066 0.098c-0.046 0.061-0.096 0.117-0.148 0.16l0.039-0.064c-0.173 0.161-0.299 0.486-0.532 0.787 0 0-0.001-0.022-0.017-0.013-0.006 0.020-0.020 0.052-0.047 0.098-0.014 0.072-0.030 0.155-0.047 0.246-0.017 0.082-0.037 0.17-0.059 0.259-0.044 0.179-0.094 0.365-0.137 0.527-0.012-0.123 0.025-0.165-0.044-0.116-0.044 0.159 0.090-0.020 0.003 0.297-0.026 0.042-0.052 0.092-0.089 0.164-0.033 0.098-0.065 0.174-0.099 0.19l0.029-0.207 0.039-0.118c-0.011 0.015-0.026 0.027-0.035 0.044-0.009 0.015-0.017 0.034-0.030 0.068-0.004 0.023-0.008 0.045-0.013 0.069l-0.010 0.059c-0.004 0.039-0.003 0.079-0.005 0.118-0.004 0.079-0.008 0.155-0.024 0.217l-0.027-0.027c-0.059 0.458 0.011 0.493-0.061 0.957-0.001 0.006-0.005 0.015-0.007 0.024 0.006-0.009 0.013-0.016 0.018-0.022 0.005-0.005 0.010-0.008 0.015-0.017 0.001 0.011 0.001 0.015 0.002 0.020 0 0.253-0.099 0.198-0.11 0.47l-0.096 0.062c-0.028 0.18-0.077 0.643-0.157 0.962 0.004-0.191 0.061-0.575 0.089-0.814-0.030 0.117-0.060 0.298-0.089 0.467 0.011 0.235-0.053 0.519-0.155 0.866-0.040-0.033-0.089 0.051-0.14 0.187-0.026 0.068-0.051 0.15-0.079 0.236-0.031 0.097-0.062 0.199-0.093 0.298 0.005 0.035 0.011 0.072 0.017 0.106 0.002 0.025 0.005 0.047 0.008 0.071 0.005 0.044 0.012 0.090 0.015 0.131 0.005 0.081 0.003 0.148-0.008 0.197 0.042 0.152 0.075 0.308 0.104 0.463 0.014 0.079 0.027 0.158 0.042 0.238 0.012 0.085 0.025 0.167 0.039 0.254 0.053 0.164 0.107 0.333 0.162 0.506 0.055 0.168 0.114 0.341 0.18 0.519 0.020-0.288 0.077 0.203 0.174 0.12 0.028 0.074 0.047 0.124 0.061 0.158 0.004 0.026 0.008 0.061 0.005 0.066v0.002l0.012 0.532c-0.015 0.129-0.053-0.161-0.076-0.14 0.052 0.377-0.024 0.166-0.015 0.42 0.034-0.058 0.080 0.122 0.099 0.339l0.007-0.31c0.070 0.248 0.065 0.351 0.062 0.482 0.009 0.146 0.005 0.251 0.108 0.521l-0.078-0.155c0.035 0.103 0.082 0.277 0.133 0.465 0.028 0.094 0.056 0.192 0.083 0.286 0.016 0.046 0.032 0.092 0.046 0.137 0.018 0.049 0.036 0.096 0.051 0.14 0.021 0.046 0.026 0.052 0.037 0.074 0.012 0.018 0.022 0.035 0.032 0.051 0.021 0.033 0.045 0.062 0.064 0.084 0.005 0.050-0.002 0.121-0.056 0.012 0.068 0.178 0.148 0.366 0.233 0.551 0.088 0.191 0.178 0.384 0.263 0.568 0.048 0.066 0.094 0.129 0.14 0.19 0.039 0.056 0.078 0.111 0.115 0.165 0.074 0.108 0.137 0.21 0.187 0.308l-0.051-0.027c0.075 0.098 0.165 0.148 0.228 0.293-0.016 0-0.054-0.026-0.024 0.022 0.015 0.017 0.047 0.053 0.086 0.096 0.018 0.022 0.037 0.044 0.059 0.069 0.022 0.028 0.038 0.044 0.076 0.098 0.027 0.025 0.055 0.052 0.081 0.076 0.021 0.021 0.038 0.039 0.056 0.059l-0.123-0.074c0.439 0.475 0.764 0.63 1.17 0.986-0.060 0.061 0.287 0.425 0.462 0.607l-0.015 0.002c0.133 0.126 0.258 0.239 0.381 0.345 0.118 0.112 0.233 0.216 0.345 0.317 0.115 0.102 0.226 0.202 0.344 0.303 0.056 0.053 0.115 0.104 0.174 0.158 0.031 0.027 0.060 0.054 0.091 0.083 0.034 0.032 0.070 0.064 0.104 0.098 0.013 0.006 0.028 0.017 0.044 0.027 0.102 0.106 0.267 0.237 0.462 0.379 0.099 0.070 0.204 0.145 0.312 0.221 0.119 0.083 0.243 0.168 0.367 0.253 0.142 0.039 0.286 0.080 0.423 0.118 0.123 0.037 0.241 0.074 0.351 0.111-0.098-0.042 0.033-0.061 0.153-0.039 0.153 0.058 0.448 0.055 0.403 0.125l-0.054-0.017c0.015 0.016 0.037 0.032 0.062 0.047 0.011 0.006 0.024 0.015 0.039 0.022 0.018 0.006 0.009 0.004 0.015 0.010-0.006 0.001 0.044 0.033 0.079 0.054 0.039 0.023 0.078 0.047 0.12 0.071 0.084 0.046 0.171 0.094 0.249 0.137l0.086-0.069c0.091 0.080 0.199 0.156 0.317 0.229 0.058 0.037 0.117 0.075 0.179 0.11 0.069 0.038 0.137 0.073 0.207 0.111l0.212 0.071c0.064 0.020 0.128 0.038 0.19 0.057 0.126 0.039 0.252 0.077 0.364 0.111 0.226 0.073 0.41 0.147 0.511 0.228 0.026 0.005 0.032 0.005 0.086 0.018 0.077 0.010 0.163 0.020 0.246 0.030 0.080 0.008 0.158 0.019 0.229 0.022l-0.020 0.052c0.175 0.039 0.315 0.071 0.46 0.103 0.073 0.016 0.146 0.031 0.226 0.047 0.090 0.017 0.186 0.037 0.295 0.059 0.063-0.006 0.18-0.019 0.312-0.030l-0.113 0.049c0.317-0.021 0.388-0.189 0.679-0.212l0.093 0.076 0.241-0.015 0.249-0.010 0.308-0.044 0.291-0.046c0.194-0.033 0.385-0.076 0.573-0.137-0.006 0.013-0.021 0.041-0.108 0.059 0.076-0.012 0.195-0.029 0.322-0.049 0.071-0.004 0.143-0.007 0.212-0.010 0.072-0.005 0.142-0.012 0.199-0.020 0.114-0.016 0.182-0.041 0.147-0.078 0.014 0.072 0.572-0.031 0.866-0.091l-0.040 0.061c0.244-0.101 0.249-0.121 0.597-0.184 0.084-0.004 0.078 0.032-0.032 0.032 0.279-0.006 0.207-0.076 0.546-0.089l-0.12 0.051c0.139-0.016 0.203-0.027 0.251-0.042s0.077-0.031 0.175-0.064c0.001-0.001 0.006-0.006 0.010-0.008 0.023-0.017 0.049-0.038 0.078-0.059 0.022-0.015 0.048-0.028 0.073-0.046 0.052-0.032 0.106-0.066 0.16-0.093 0.106-0.054 0.202-0.091 0.233-0.081 0.016-0.047 0.125-0.163 0.275-0.243 0.029 0.004-0.017 0.045-0.039 0.066 0.098-0.053 0.18-0.106 0.253-0.155 0.037-0.027 0.070-0.050 0.104-0.074l0.046-0.035 0.029-0.022c0.015-0.008 0.059-0.025 0.099-0.037 0.039-0.014 0.077-0.028 0.116-0.040 0.077-0.022 0.156-0.040 0.246-0.047 0.011 0.015 0.031 0.018 0.061 0.017-0.216 0.054-0.404 0.104-0.512 0.131-0.022 0.014-0.039 0.024-0.049 0.029-0.016 0.010-0.022 0.011-0.017 0.008 0.010 0.020 0.077-0.004 0.084 0.007 0.014 0.005 0.020 0.010 0.027 0.018 0.004 0.008-0.001 0.024 0 0.039 0 0.003 0.001 0.007 0.002 0.010 0-0.002 0.001-0.007 0.002-0.010 0.016-0.006 0.031-0.013 0.046-0.020 0.034-0.014 0.069-0.030 0.104-0.046 0.071-0.029 0.147-0.061 0.224-0.093 0.153-0.063 0.314-0.119 0.455-0.143 0.015 0.001 0.028 0.001 0.040 0.005l-0.029 0.012c0.068-0.012 0.13-0.032 0.184-0.054 0.047-0.008 0.085-0.016 0.123-0.024 0.043-0.008 0.058-0.012 0.147-0.034 0.016 0.005 0.052 0.001 0.108-0.010 0.032-0.032 0.072-0.075 0.116-0.125 0.025-0.029 0.050-0.060 0.078-0.093 0.053-0.064 0.11-0.13 0.148-0.177-0.050-0.025 0.084-0.174-0.071-0.059 0.018-0.017-0.014 0.028-0.079 0.106-0.012 0.020-0.028 0.040-0.035 0.054 0-0.004 0.001-0.008 0.002-0.013l-0.199 0.243-0.169 0.046c0.034-0.020 0.104-0.046 0.155-0.066 0.018-0.026 0.038-0.052 0.057-0.079 0.016-0.021 0.034-0.045 0.052-0.067 0.031-0.039 0.067-0.076 0.113-0.113 0.023-0.083 0.052-0.173 0.069-0.221 0.194-0.11 0.487-0.394 0.558-0.406 0.049-0.065 0.099-0.134 0.153-0.206 0.074-0.063 0.149-0.128 0.224-0.19 0.080-0.070 0.156-0.137 0.231-0.201 0.146-0.134 0.27-0.261 0.34-0.367 0.096-0.092 0.136-0.071 0.185-0.089-0.055 0.056-0.127 0.111-0.15 0.148 0.185-0.193 0.63-0.469 0.637-0.566 0.292-0.167-0.115 0.162 0.253-0.111l-0.037 0.052c0.098-0.052 0.187-0.105 0.271-0.16 0.042-0.029 0.083-0.057 0.123-0.084 0.050-0.037 0.101-0.073 0.148-0.11l0.061-0.113 0.039-0.078 0.069-0.155c0.046-0.103 0.093-0.206 0.138-0.31 0.092-0.205 0.2-0.432 0.327-0.635 0.088-0.082 0.217-0.194 0.347-0.288-0.055 0.043-0.081 0.065-0.099 0.067 0.134-0.118 0.264-0.242 0.394-0.366l0.192-0.192 0.204-0.201c0.268-0.428 0.492-0.807 0.767-1.23l0.081-0.249 0.081-0.233c0.055-0.156 0.114-0.307 0.175-0.457 0.090-0.234 0.088-0.308 0.098-0.435 0-0.033 0.003-0.071 0.003-0.118l0.071-0.056 0.007-0.34c0.058-0.474 0.316-0.77 0.369-1.375l-0.056 0.067c0.058-0.209 0.138-0.672 0.174-0.625-0.001-0.025-0.024-0.076 0.015-0.155h0.034l0.010-0.078 0.018-0.104-0.040-0.113v0.005l-0.032-0.088-0.069-0.177c-0.086-0.401 0.136 0.032-0.013-0.549-0.071-0.212-0.253-0.59-0.251-0.504 0.022 0.087 0.042 0.227 0.013 0.243l-0.067-0.192c-0.006-0.001-0.014-0.002-0.020-0.003l-0.010-0.032 0.286-1.407-0.253-0.944 0.022 0.018-0.034-0.064-0.081-0.3c0.012 0.006 0.031 0.030 0.051 0.089-0.006-0.088-0.020-0.132-0.035-0.175-0.036-0.061-0.064-0.081-0.089-0.204-0.004-0.023 0.005-0.017 0.017 0l-0.115-0.19c0.033 0.032 0.037-0.058 0.083 0.071-0.123-0.38-0.325-0.556-0.332-0.716l0.020 0.027c-0.191-0.364-0.137-0.192-0.201-0.238l-0.003-0.010-0.034-0.239 0.076-0.204-0.066-0.047c-0.006-0.055-0.014-0.167 0.012-0.15-0.067-0.204-0.022 0.039-0.076-0.078 0.013-0.214-0.059-0.518-0.062-0.709-0.031-0.054-0.049-0.099-0.037-0.123-0.098-0.055 0.134 0.24-0.073 0.015 0.032-0.129-0.214-0.261-0.327-0.49 0.088 0.031 0.206 0.238 0.094 0.010-0.161-0.069-0.273-0.403-0.411-0.561-0.065 0.034-0.293-0.355-0.517-0.627 0.033 0.004-0.359-0.561-0.517-0.851l0.013 0.002c-0.094-0.012-0.274-0.299-0.426-0.495 0.040-0.016 0.081 0.011 0.172 0.111l-0.13-0.194c-0.050-0.032-0.099-0.086-0.19-0.206l0.078 0.020-0.069-0.093-0.094-0.079-0.083-0.068c-0.055-0.044-0.115-0.092-0.174-0.138-0.118-0.097-0.239-0.201-0.359-0.334-0.034 0.016 0.041 0.153-0.010 0.162l-0.157-0.147c0.017-0.006 0.044-0.002 0.089 0.030-0.029-0.022-0.111-0.069-0.157-0.126l0.155 0.081c-0.12-0.137-0.096-0.036-0.201-0.138 0.029-0.026-0.058-0.092-0.022-0.101 0.029 0.022 0.082 0.096 0.133 0.123-0.058-0.056-0.133-0.134-0.167-0.18-0.025-0.049-0.061-0.121-0.066-0.152-0.010 0.026-0.042 0.034-0.118-0.059-0.188-0.245-0.028-0.114-0.12-0.27-0.066-0.043-0.163-0.216-0.212-0.187-0.054-0.072-0.044-0.1-0.052-0.138-0.032-0.031-0.080-0.089-0.131-0.153-0.061-0.075-0.125-0.157-0.179-0.224-0.188-0.047-0.236-0.048-0.172 0l0.046 0.017c-0.010-0.001-0.021-0.005-0.032-0.007-0.217-0.038-0.433-0.102-0.649-0.172l-0.324-0.108c-0.103-0.034-0.201-0.068-0.302-0.099l-0.086-0.074-0.101-0.081 0.012-0.013c-0.25-0.185-0.533-0.44-0.728-0.554-0.070-0.059-0.142-0.167-0.098-0.158-0.028-0.021-0.054-0.042-0.071-0.054-0.044-0.018-0.081-0.032-0.116-0.046-0.033-0.013-0.065-0.027-0.098-0.042-0.067-0.033-0.145-0.076-0.271-0.155 0.229 0.076-0.061-0.062 0.231 0.088-0.27-0.152-0.32-0.211-0.639-0.312 0.121 0.005-0.176-0.157-0.322-0.214l0.182 0.13c-0.043-0.018-0.084-0.037-0.123-0.056-0.045-0.022-0.090-0.045-0.133-0.067-0.074-0.011-0.142-0.020-0.212-0.032l0.086-0.054c-0.305-0.080-0.59-0.082-0.858-0.091-0.133-0.004-0.261-0.009-0.386-0.025-0.123-0.017-0.239-0.057-0.351-0.111-0.172 0.012 0.331 0.096 0.175 0.12-0.282-0.064-0.561-0.213-0.651-0.229-0.157-0.047-0.25-0.051-0.332-0.049-0.042 0.002-0.078 0.005-0.121 0.007-0.021 0.001-0.046 0.001-0.069 0-0.027-0.001-0.045-0.001-0.093-0.008-0.029 0-0.061 0.002-0.096 0.002-0.031 0-0.065-0.002-0.104-0.005 0.054 0.025 0.104 0.084-0.207 0.103-0.29-0.013-0.356-0.102-0.172-0.118 0.070-0.001 0.104 0.006 0.101 0.015 0.095-0.006 0.216-0.015 0.101-0.042l-0.039 0.024c-0.143-0.027-0.542-0.030-0.447-0.067-0.221 0.020-0.097 0.036 0.066 0.051-0.24-0.027-0.424-0.023-0.612-0.025-0.088-0.006-0.21-0.018-0.339-0.037 0.060 0.018 0.114 0.050 0.054 0.044-0.558-0.080-0.25 0.021-0.63-0.003-0.212-0.054 0.084-0.076-0.3-0.081-0.232-0.046-0.044-0.065 0.049-0.076-0.042 0.001-0.083 0.001-0.123 0l-0.086-0.005c-0.034-0.004-0.067-0.006-0.099-0.010h-0.002zM12.912 8.553c0.043-0.009 0.066-0.001 0.11 0.005 0.109 0.021 0.218 0.040 0.332 0.044 0.219 0.008 0.44-0.014 0.659-0.005 0.113 0.006 0.173 0.059 0.266 0.113 0.096 0.054 0.201 0.096 0.293 0.153 0.115 0.071 0.215 0.173 0.317 0.263 0.226 0.197 0.464 0.467 0.586 0.742 0.076 0.169 0.147 0.346 0.221 0.519 0.086 0.202 0.094 0.369 0.094 0.592-0.001 0.183 0.011 0.31-0.076 0.479-0.082 0.159-0.146 0.331-0.236 0.487-0.183 0.324-0.512 0.531-0.824 0.713-0.309 0.18-0.563 0.447-0.886 0.61-0.169 0.084-0.348 0.080-0.532 0.079-0.226 0-0.443-0.012-0.664-0.059-0.358-0.075-0.701-0.169-1.013-0.364-0.25-0.156-0.483-0.311-0.544-0.617-0.073-0.369-0.081-0.74-0.081-1.116 0-0.269 0.006-0.509 0.11-0.762 0.119-0.291 0.229-0.594 0.438-0.836 0.185-0.216 0.379-0.409 0.598-0.588 0.156-0.125 0.332-0.256 0.517-0.332 0.098-0.040 0.212-0.095 0.315-0.12zM18.235 15.019c0.024 0.010 0.049 0.040 0.11 0.068 0.119 0.053 0.229 0.071 0.345 0.152 0.12 0.082 0.224 0.196 0.359 0.258 0.189 0.086 0.289 0.255 0.509 0.317 0.171 0.049 0.351 0.085 0.529 0.054 0.081-0.014 0.181-0.021 0.258-0.039 0.061-0.015 0.061-0.057 0.135-0.052 0.103 0.005 0.219 0.102 0.319 0.13 0.164 0.048 0.34 0.065 0.506 0.115 0.080 0.023 0.157 0.082 0.234 0.103 0.090 0.026 0.068 0.013 0.158-0.040 0.134-0.077 0.293-0.127 0.436-0.187 0.142-0.059 0.275-0.168 0.425-0.155 0.090 0.007 0.185 0.058 0.266 0.096 0.162 0.076 0.228 0.228 0.413 0.266 0.233 0.047 0.482 0.013 0.703 0.123 0.106 0.053 0.092 0.134 0.179 0.201 0.011 0.008 0.022 0.011 0.032 0.015 0.049-0.001 0.099-0.001 0.148-0.002 0.013-0.005 0.028-0.011 0.040-0.015 0.082-0.037 0.135-0.079 0.224-0.093 0.183-0.031 0.37-0.049 0.554-0.081 0.128-0.021 0.273-0.086 0.404-0.078 0.025 0.001 0.053 0.024 0.076 0.022 0.075-0.004 0.098-0.066 0.167-0.089 0.074-0.023 0.119 0.027 0.19 0.044 0.117 0.025 0.241-0.026 0.359 0.003 0.123 0.032 0.249 0.102 0.366 0.155 0.091 0.043 0.192 0.072 0.278 0.125 0.032 0.020 0.058 0.043 0.093 0.057 0.096 0.040 0.186 0.055 0.253 0.143 0.040 0.055 0.067 0.092 0.128 0.113 0.011-0.004 0.021-0.004 0.032 0.002 0.015 0.012 0.031 0.025 0.046 0.037 0.056 0.022 0.073-0.003 0.12 0.042 0.028 0.028 0.054 0.038 0.088 0.051 0.045 0.016 0.055 0.018 0.027 0.067-0.037 0.065-0.111 0.106-0.17 0.152-0.070 0.056-0.14 0.147-0.231 0.17-0.081 0.022-0.156-0.022-0.231-0.030-0.107-0.011-0.233 0.041-0.347 0.042-0.152 0.005-0.245 0.051-0.388 0.091-0.085 0.023-0.16 0.021-0.251 0.024-0.303 0.007-0.58-0.006-0.873-0.057-0.247-0.042-0.454-0.024-0.704-0.037-0.223-0.011-0.443-0.045-0.669-0.042-0.312 0.002-0.623 0.030-0.934 0.029-0.217-0.001-0.427-0.025-0.645-0.018-0.6 0.020-1.187 0.045-1.78-0.018-0.736-0.078-1.494-0.023-2.236-0.003-0.438 0.011-0.876 0.014-1.313 0.047-0.541 0.042-1.089 0.155-1.631 0.163-0.452 0.006-0.895-0.017-1.348-0.003-0.331 0.010-0.653-0.012-0.979-0.008-0.29 0.004-0.58 0.016-0.87 0.025-0.267 0.008-0.526-0.013-0.792-0.013-0.288-0.002-0.56 0.027-0.846-0.008-0.232-0.029-0.468-0.033-0.701-0.054-0.267-0.025-0.527-0.037-0.795-0.051-0.227-0.012-0.448-0.050-0.672-0.062-0.277-0.013-0.559-0.009-0.838-0.027-0.19-0.015-0.364-0.037-0.558-0.037-0.302 0.001-0.594-0.048-0.893-0.044-0.223 0.005-0.446 0.015-0.669 0.022-0.305 0.008-0.611 0.017-0.917 0.024-0.075 0.002-0.165 0.011-0.239 0.005-0.097-0.009-0.088-0.002-0.093-0.079-0.009-0.135-0.040-0.253-0.076-0.382-0.007-0.029-0.030-0.079-0.017-0.111 0.060 0.002 0.123 0 0.18-0.005h-0.18c0.040-0.070 0.212-0.032 0.283-0.037 0.108-0.011 0.204-0.065 0.31-0.086 0.185-0.034 0.347 0.017 0.511-0.11 0.16-0.121 0.265-0.272 0.438-0.359 0.125-0.064 0.271-0.057 0.404-0.096 0.058-0.016 0.092-0.065 0.167-0.046 0.094 0.026 0.145 0.156 0.266 0.182 0.12 0.026 0.098 0.013 0.185 0.062 0.118 0.066 0.246 0.094 0.377 0.118 0.067 0.009 0.134 0.010 0.204 0.008 0.113-0.002 0.146-0.056 0.253-0.084 0.167-0.047 0.3 0.121 0.465 0.131 0.191 0.012 0.382 0.003 0.568 0.024 0.010 0.002 0.015 0.001 0.025 0.002 0.025-0.003 0.050-0.005 0.074-0.007 0.023-0.012 0.043-0.035 0.078-0.074 0.055-0.059 0.093-0.084 0.167-0.128 0.119-0.070 0.202-0.163 0.308-0.253 0.091-0.076 0.246-0.25 0.367-0.246 0.001 0 0.129 0.042 0.11 0.039 0.077 0.010 0.159-0.004 0.238 0.008 0.223 0.037 0.418 0.044 0.649 0.015 0.090-0.011 0.178-0.034 0.266-0.049 0.102-0.016 0.206-0.007 0.307-0.025 0.153-0.028 0.295-0.125 0.431-0.197 0.044-0.023 0.104-0.068 0.153-0.069 0.038 0 0.090 0.038 0.131 0.044 0.053 0.008 0.117-0.018 0.167-0.007 0.107 0.026 0.196 0.105 0.307 0.133 0.166 0.040 0.22 0.072 0.357 0.16 0.169 0.107 0.295 0.044 0.468 0.072 0.159 0.026 0.254 0.161 0.389 0.233 0.059 0.032 0.094 0.042 0.142 0.093 0.036 0.038 0.024 0.090 0.076 0.123 0.064 0.042 0.167 0.014 0.239 0.027 0.214 0.038 0.465 0.149 0.684 0.073 0.065-0.023 0.090-0.071 0.157-0.084 0.066-0.012 0.165-0.002 0.231 0.002 0.163 0.007 0.314 0.046 0.482 0.046 0.145 0 0.423 0.047 0.546-0.040 0.082-0.058 0.107-0.181 0.163-0.261 0.040-0.056 0.125-0.175 0.194-0.202 0.058-0.022 0.133 0.009 0.197-0.008 0.202-0.054 0.405-0.229 0.597-0.32 0.123-0.058 0.241-0.082 0.371-0.116 0.123-0.032 0.209-0.129 0.325-0.157 0.037-0.009 0.074 0.010 0.115-0.002 0.059-0.016 0.106-0.064 0.15-0.106 0.056-0.052 0.080-0.061 0.104-0.051zM14.91 18.426c0.036 0.005 0.058 0.035 0.099 0.037 0.003 0.006 0.001 0.016-0.425 0.086 0.555 0.044 1.095 0.064 1.65 0.062 0.279 0 0.557-0.006 0.836-0.003 0.277 0.004 0.539 0.048 0.814 0.078 0.245 0.026 0.509-0.017 0.748 0.051 0.172 0.047 0.326 0.138 0.502 0.172 0.137 0.010 0.275 0.016 0.413 0.013 0.13 0.009 0.256 0.037 0.379 0.083 0.232 0.052 0.454 0.039 0.689 0 0.174-0.040 0.35-0.067 0.527-0.081 0.102 0.004 0.203-0.001 0.303-0.015 0.231-0.026 0.448-0.102 0.683-0.11 0.179-0.006 0.355 0.027 0.536 0.030 0.344 0.006 0.687-0.089 1.030-0.037 0.248 0.038 0.477 0.053 0.731 0.042 0.224-0.010 0.437-0.015 0.659 0.022 0.119 0.029 0.24 0.047 0.362 0.052 0.129-0.015 0.256-0.038 0.382-0.071 0.165-0.025 0.263 0 0.421 0.015 0.178 0.016 0.351-0.053 0.527-0.059 0.059 0.131-0.372 0.218-0.448 0.234-0.339 0.074-0.654 0.22-0.987 0.317-0.37 0.107-0.762 0.102-1.146 0.094-0.287-0.006-0.571-0.013-0.846-0.103-0.708-0.234-1.477-0.142-2.194 0.005-0.728 0.152-1.477 0.184-2.216 0.121-0.313-0.027-0.627-0.105-0.94-0.115-0.297-0.010-0.592-0.035-0.883-0.093-0.126-0.025-0.251-0.062-0.377-0.088-0.184-0.039-0.373-0.041-0.559-0.056-0.374-0.029-0.74-0.095-1.109-0.16-0.448-0.077-0.943-0.054-1.394-0.003-0.242 0.027-0.474 0.029-0.718 0.029-0.146 0-0.278 0.002-0.421-0.029-0.087-0.020-0.172-0.031-0.261-0.034-0.042-0.001-0.237 0.031-0.276-0.029 0.020-0.028 0.046-0.072 0.074-0.093 0.054-0.043 0.151-0.037 0.216-0.047 0.112-0.017 0.219-0.046 0.329-0.074 0.226-0.059 0.465-0.101 0.699-0.094 0.18 0.005 0.348 0.052 0.532 0.029 0.161-0.021 0.314-0.086 0.475-0.091 0.082-0.003 0.165 0.012 0.246 0.005 0.049-0.001 0.095-0.019 0.142-0.032 0.020-0.005 0.155-0.067 0.195-0.062zM5.544 19.038c0.271-0.001 0.543 0.025 0.807 0.093 0.398 0.102 0.805 0.065 1.21 0.032 0.565-0.046 1.13-0.029 1.695-0.061 0.033 0.011 0.080 0.025 0.148 0.054 0.037 0.016 0.076 0.049 0.111 0.062 0.050 0.020 0.121 0.005 0.174 0.005 0.174 0 0.35-0.016 0.519 0.030 0.126 0.036 0.435 0.017 0.362 0.226-0.030 0.082-0.125 0.1-0.199 0.123-0.048 0.017-0.090 0.011-0.138 0.017-0.103 0.011-0.207 0.070-0.303 0.104-0.131 0.047-0.213 0.048-0.349 0.051-0.124 0.002-0.242 0.026-0.362 0.046-0.162 0.027-0.307 0.040-0.441-0.064-0.102-0.080-0.19-0.126-0.319-0.14-0.184-0.020-0.386 0.015-0.571 0.008-0.274-0.011-0.542-0.065-0.817-0.066-0.356-0.004-0.708-0.038-1.065-0.054-0.325-0.013-0.652 0.016-0.976 0-0.049-0.004-0.271-0.008-0.253-0.13 0.007-0.053 0.064-0.070 0.104-0.093 0.114-0.064 0.225-0.136 0.344-0.192 0.12-0.057 0.192-0.051 0.319-0.052zM9.307 19.1c0.004-0 0.008 0 0.012 0v0.002c-0.012-0.002-0.002-0-0.012-0.002zM13.235 20.217c0.183-0.001 0.363-0.004 0.532 0.081 0.009 0.004 0.017 0.009 0.024 0.013-0.074 0.016-0.148 0.029-0.223 0.040-0.042 0.006-0.229 0.021-0.238 0.091 0.13 0.048 0.312-0.055 0.421 0.046 0.003 0.016 0.006 0.030 0.010 0.046 0.025 0.015 0.050 0.025 0.076 0.030 0.088 0.030 0.2 0.011 0.28 0.046 0.056 0.025 0.040 0.086 0.068 0.118 0.044 0.051 0.126 0.027 0.192 0.027h0.054c0.016 0.012 0.033 0.023 0.049 0.035 0.047-0.003 0.092-0.003 0.135-0.003 0.071 0 0.206-0.028 0.271 0.005 0.027 0.012 0.027 0.049 0.066 0.057 0.037 0.009 0.085-0.028 0.098 0.027 0.009 0.039-0.055 0.088-0.081 0.108-0.026 0.018-0.077 0.026-0.121 0.039 0.172 0.108 0.338 0.228 0.472 0.377 0.047 0.018 0.095 0.039 0.14 0.057 0.136 0.056 0.265 0.047 0.406 0.069 0.040 0.065-0.195 0.11-0.366 0.135 0.038 0.072 0.074 0.149 0.11 0.224-0.042 0.016-0.085 0.032-0.128 0.037-0.115 0.014-0.239-0.011-0.293 0.126-0.034 0.088-0.004 0.097 0.072 0.131 0.123 0.057 0.248 0.071 0.381 0.086 0.044 0.005 0.087 0.005 0.131 0.008 0.010 0.053 0.015 0.103 0.015 0.158 0.085 0.032 0.162 0.037 0.268 0.037 0.060 0 0.152 0.002 0.153 0.084-0.079 0.028-0.148 0.077-0.219 0.121-0.046 0.004-0.088 0.008-0.118 0.008-0.146-0.001-0.27 0.015-0.413 0.047-0.040 0.011-0.082 0.010-0.121 0.017-0.020 0.004-0.025 0.026-0.046 0.030-0.037 0.010-0.087-0.006-0.126-0.003-0.042 0.004-0.050 0.013-0.088 0.024-0.050 0.014-0.098-0.001-0.147 0.012-0.050 0.013-0.096 0.053-0.145 0.071-0.101 0.033-0.2 0.011-0.302 0.047-0.118 0.041-0.191 0.023-0.305 0.005-0.071-0.012-0.080 0.005-0.138 0.051-0.018 0.013-0.034 0.030-0.054 0.035 0.231-0.009 0.459-0.050 0.686-0.007 0.222 0.042 0.439 0.039 0.664 0.039h0.185c0.036 0.002 0.071 0.003 0.106 0.002 0.034-0.002 0.072-0.010 0.108-0.018-0.009 0.031-0.014 0.062-0.025 0.094 0.104 0.018 0.211 0.010 0.308 0.061 0.054 0.027 0.137 0.060 0.18 0.099-0.043 0.029-0.111 0.038-0.16 0.052-0.123 0.034-0.245 0.070-0.366 0.111 0.006 0.108 0.485-0.055 0.561-0.032-0.048 0.080-0.092 0.121-0.179 0.15-0.187 0.066-0.389 0.126-0.573 0.206-0.026 0.012-0.051 0.028-0.076 0.046-0.029 0.050-0.063 0.103-0.098 0.153 0.048-0.005 0.095-0.011 0.126-0.012 0.167-0.012 0.359-0.048 0.527-0.020 0.068 0.011 0.144 0.032 0.195 0.073 0.034 0.026 0.056 0.057 0.094 0.074 0.039 0.018 0.108 0.047 0.145 0.057l-0.002 0.002c0.129 0.036 0.249-0.060 0.376-0.051-0.052 0.037-0.159 0.042-0.214 0.061-0.118 0.039-0.238 0.085-0.354 0.133-0.107 0.044-0.126 0.074-0.234 0.074-0.125 0.001-0.239 0.043-0.357 0.073-0.038 0.006-0.073 0.010-0.111 0.017-0.020 0.001-0.042 0.006-0.062 0.007-0.050 0-0.115 0.011-0.162 0-0.028-0.007-0.053-0.030-0.079-0.034-0.068-0.012-0.131 0.018-0.192 0.056h-0.027c-0.151-0.001-0.301-0.015-0.452-0.020-0.040-0.001-0.081 0.001-0.118-0.013-0.002-0.008-0.003-0.018-0.003-0.027-0.082-0.017-0.136 0.001-0.204 0.018-0.106 0.026-0.265 0.062-0.357 0.128-0.086 0.063 0.008 0.111 0.068 0.13 0.068 0.020 0.13 0.029 0.194 0.074 0.043 0.032 0.079 0.071 0.118 0.11-0.068 0.042-0.124 0.077-0.214 0.081-0.22 0.010-0.44-0.010-0.659-0.003-0.012 0-0.023 0.001-0.035 0.002-0.052 0.027-0.128 0.029-0.195 0.024-0.034 0.006-0.067 0.013-0.101 0.018-0.042 0.008-0.066 0.015-0.11 0.003-0.076-0.017-0.16-0.053-0.238-0.086-0.058-0.007-0.114-0.012-0.172-0.012-0.125-0.001-0.231-0.009-0.349-0.056-0.153-0.060-0.319-0.060-0.436-0.19-0.008-0.009-0.011-0.019-0.020-0.027 0.058 0.023 0.111-0 0.177-0.005 0.135-0.009 0.26 0.017 0.396-0.024 0.137-0.041 0.251-0.052 0.394-0.039 0.026 0.002 0.070 0.013 0.096 0.007 0.065-0.021 0.11-0.129 0.17-0.172 0.056-0.040 0.13-0.080 0.192-0.104 0.039-0.016 0.244-0.040 0.138-0.103-0.047-0.030-0.19-0.007-0.248-0.010-0.211-0.009-0.392-0.115-0.598-0.135-0.256-0.023-0.483 0.043-0.735 0.081-0.115 0.018-0.232 0.017-0.349 0.022-0.020-0.022-0.040-0.044-0.057-0.067-0.026-0.034-0.049-0.053-0.091-0.066-0.056-0.017-0.126-0.014-0.182-0.013-0.030 0.001-0.375 0.006-0.371-0.005 0.016-0.033 0.148-0.055 0.189-0.066-0.032-0.056-0.184-0.091-0.244-0.108-0.055-0.017-0.143-0-0.187-0.051-0.074-0.083 0.075-0.174 0.128-0.234 0.13-0.141 0.331-0.101 0.501-0.101 0.054 0 0.105-0.002 0.155-0.002-0.009-0.023-0.017-0.044-0.027-0.066 0.045 0 0.089 0.001 0.135 0 0.164-0.002 0.324-0.031 0.482-0.049 0.147-0.016 1.163-0.049 0.807-0.138-0.101-0.026-0.234-0.025-0.329-0.049-0.163-0.039-0.298-0.103-0.458-0.145-0.090-0.024-0.093-0.020-0.226-0.020-0.193 0.001-0.311-0.031-0.49-0.046-0.023-0.002-0.052-0.001-0.084-0.003-0.018-0.080-0.032-0.158-0.037-0.239-0.066-0.015-0.131-0.032-0.194-0.042-0.075-0.011-0.111-0.077-0.177-0.098-0.033-0.009-0.064 0.004-0.093-0.018-0.075-0.059-0.015-0.13 0.047-0.148 0.070-0.022 0.138-0.029 0.2-0.071 0.049-0.033 0.095-0.074 0.145-0.11 0.023-0.016 0.043-0.035 0.062-0.057v-0.015c0.009-0.004 0.016-0.007 0.024-0.010 0.074-0.037 0.137-0.063 0.214-0.086 0.112-0.034 0.207-0.070 0.322-0.084 0.087-0.011 0.114-0.048 0.148-0.126-0.038-0.004-0.053-0.032-0.086-0.042-0.039-0.012-0.058-0.011-0.094-0.032-0.068-0.039-0.138-0.049-0.212-0.067-0.065-0.016-0.161-0.063-0.216-0.099-0.053-0.035-0.078-0.052-0.118-0.061-0.020-0.014-0.039-0.026-0.062-0.037-0.036-0.017-0.073-0.026-0.098-0.059-0.157-0.21 0.155-0.325 0.268-0.389 0.061-0.036 0.108-0.089 0.17-0.12 0.101-0.106 0.227-0.19 0.362-0.275 0.053-0.032 0.108-0.059 0.164-0.086 0.028-0.006 0.056-0.013 0.086-0.017 0.050-0.008 0.106-0.010 0.157-0.015 0.081-0.011 0.157-0.037 0.239-0.042 0.114-0.007 0.24 0.006 0.295-0.073 0.034-0.050 0.002-0.056-0.074-0.076-0.018-0.005-0.037-0.006-0.054-0.008 0.066-0.017 0.135-0.034 0.202-0.047 0.222-0.047 0.437-0.058 0.664-0.059zM22.945 20.443c0.372-0.003 0.739 0.040 1.089 0.174 0.131 0.050 0.243 0.103 0.388 0.108 0.156 0.004 0.314-0.002 0.47-0.002 0.383-0.001 0.765 0 1.148 0-0.006-0.092 0.105-0.105 0.214-0.062 0.088 0.034 0.172 0.055 0.263 0.079 0.060 0.015 0.115 0.039 0.174 0.059 0.104 0.033 0.286 0.024 0.366 0.106-0.009 0.128-0.408 0.204-0.489 0.211-0.104 0.013-0.207 0.001-0.312 0.003-0.109 0.004-0.205 0.046-0.31 0.066-0.256 0.052-0.521 0.023-0.78 0.059-0.326 0.046-0.641 0-0.969 0.024-0.398 0.029-0.792-0.055-1.188-0.078-0.221-0.015-0.446-0.016-0.667-0.003-0.405 0.022-0.797 0.119-1.203 0.118-0.285-0.001-0.581-0.011-0.859-0.076-0.129-0.028-0.185-0.082-0.256-0.189-0.087-0.128-0.128-0.168-0.295-0.167-0.058 0-0.118 0-0.175 0.005 0.039 0.001 0.075-0.011 0.113-0.017 0.082-0.014 0.164-0.015 0.246-0.024 0.233-0.021 0.459-0.017 0.693-0.024 0.22-0.007 0.485-0.017 0.684-0.121 0.133-0.069 0.267-0.098 0.415-0.13 0.413-0.091 0.82-0.117 1.244-0.12zM9.061 22.324c0.143-0 0.286 0.008 0.435 0.027 0.007 0.066 0.058 0.084 0.069 0.145 0.038 0.186-0.179 0.16-0.297 0.17-0.129 0.011-0.246 0.017-0.364 0.074-0.034 0.017-0.068 0.042-0.103 0.059-0.201 0.093-0.422 0.075-0.635 0.046-0.173-0.022-0.341-0.046-0.516-0.034-0.151 0.011-0.296 0.032-0.447 0.008-0.298-0.048-0.586-0.046-0.886-0.046-0.144 0-0.293 0.014-0.436 0.003-0.061-0.005-0.116-0.032-0.177-0.035-0.038-0.003-0.081 0.016-0.116 0 0.095-0.118 0.278-0.16 0.413-0.206 0.101-0.035 0.211-0.097 0.315-0.116 0.069-0.013 0.117 0.014 0.185 0.018 0.182 0.015 0.371 0 0.551 0l-0.489 0.061c0.36 0 0.731 0.027 1.090-0.012 0.325-0.034 0.643-0.11 0.971-0.14 0.15-0.014 0.293-0.024 0.436-0.024zM23.053 22.834c0.124 0.002 0.247 0.012 0.367 0.044 0.109 0.029 0.58 0.013 0.467 0.233-0.049 0.095-0.216 0.127-0.307 0.128-0.139 0-0.256 0.002-0.394 0.034-0.12 0.028-0.224 0.057-0.347 0.057-0.049 0-0.094-0.005-0.143 0-0.191 0.013-0.372 0.079-0.566 0.088-0.087 0.005-0.178-0.006-0.265 0.005-0.139 0.016-0.273 0.057-0.408 0.088-0.279 0.065-0.555 0.098-0.841 0.116-0.151 0.009-0.304 0.016-0.455 0.003-0.14-0.012-0.276-0.052-0.415-0.073-0.476-0.075-0.959-0.075-1.437-0.135-0.151-0.021-0.31-0.036-0.447-0.111-0.066-0.037-0.122-0.091-0.199-0.104-0.050-0.008-0.208 0.028-0.233-0.025 0.075-0.044 0.17-0.035 0.248-0.074 0.118-0.060 0.217-0.14 0.342-0.194 0.226-0.099 0.515-0.046 0.758-0.046 0.657-0.001 1.31 0.030 1.967 0.030 0.463 0 0.924 0.003 1.385 0 0.018 0 0.032 0.004 0.049 0.005 0.003-0.018 0.046-0.039 0.091-0.049 0.133-0.031 0.273-0.018 0.408-0.018 0.125 0 0.25-0.004 0.374-0.002zM16.794 25.684c0.123 0.015 0.247 0.039 0.367 0.071 0.189 0.038 0.381 0.056 0.575 0.056 1.050 0.021 2.106-0.003 3.158-0.003-0.252-0.123-0.106-0.121 0.039-0.121 0.125-0.001 0.258-0.015 0.379 0.017 0.101 0.026 0.17 0.095 0.265 0.13 0.077 0.029 0.176 0.027 0.258 0.035 0.124 0.012 0.246 0.045 0.362 0.089 0.163 0.063 0.295 0.163 0.44 0.256-0.169 0.142-0.422 0.064-0.617 0.052-0.243-0.015-0.473 0.057-0.716 0.062-0.137 0.005-0.27 0.014-0.406 0.032-0.191 0.025-0.364 0.025-0.554 0.007-0.258-0.026-0.483 0.029-0.738 0.066-0.345 0.049-0.697 0.109-1.046 0.113-0.206 0.001-0.427-0.017-0.63-0.047-0.336-0.049-0.666-0.088-1.009-0.104-1.009-0.043-2.026-0.058-3.037-0.034 0.148-0.018 0.287-0.047 0.43-0.088 0.322-0.093 0.635-0.226 0.959-0.308 0.109-0.021 0.219-0.045 0.325-0.074 0.070-0.028 0.141-0.049 0.216-0.056 0.074-0.004 0.141 0.012 0.216 0.003 0.264-0.033 0.491-0.172 0.767-0.153zM11.203 27.305c0.232 0.012 0.461 0.062 0.679 0.157 0.383 0.167 0.782 0.192 1.196 0.18 0.33-0.009 0.644-0.066 0.969-0.108 0.483-0.063 0.981-0.046 1.466-0.046 0.388 0.002 0.775-0.005 1.163 0 0.357 0.005 0.705 0.058 1.062 0.064-0.081-0.037 0.023-0.047 0.12-0.010 0.063 0.025 0.11 0.076 0.174 0.099 0.043 0.017 0.094 0.014 0.11 0.064 0.027 0.082-0.102 0.161-0.157 0.189-0.101 0.049-0.215 0.080-0.32 0.118-0.172 0.064-0.333 0.048-0.511 0.067-0.201 0.021-0.391 0.030-0.593 0.007-0.185-0.020-0.371-0.009-0.558-0.037-0.214-0.033-0.409 0.066-0.615 0.116-0.297 0.074-0.575 0.088-0.88 0.091-0.263 0.004-0.483-0.042-0.73-0.126-0.066-0.025-0.124-0.026-0.195-0.022-0.177 0.011-0.351 0.027-0.527 0.027-0.355-0.001-0.712 0.010-1.063-0.039-0.267-0.037-0.538-0.093-0.802-0.145-0.128-0.025-0.253-0.056-0.379-0.084-0.112-0.026-0.189-0.033-0.244-0.138-0.058-0.107-0.054-0.239-0.059-0.357 0.229-0.054 0.464-0.080 0.696-0.067z"></path>
</svg>
