<!-- Generated by IcoMoon.io -->
<svg version="1.1" xmlns="http://www.w3.org/2000/svg" width="33" height="32" viewBox="0 0 33 32">
<title>riddles_and_rain</title>
<path d="M2.927 18.636c0.361-0.796 0.633-1.636 1.075-2.394 0.458-0.786 1.149-1.446 1.75-2.123 0.237-0.267 0.429-0.557 0.707-0.786 0.28-0.23 0.655-0.446 0.811-0.785-0.253 0.014-0.476 0.038-0.721 0.117-0.252 0.081-0.508 0.238-0.762 0.301-0.145 0.036-0.843 0.627-1.45 1.113-0.142 0.229-0.35 0.466-0.443 0.661-0.193 0.403-0.7 0.981-0.834 1.407-0.262 0.827-0.618 1.507-0.876 2.338-0.249 0.801-0.361 1.566-0.558 2.381-0.112 0.464-0.219 1.090-0.164 1.571 0.238-0.748 0.708-1.421 0.95-2.167 0.029-0.092 0.102-0.22 0.195-0.36 0.050-0.312 0.151-0.738 0.321-1.274z"></path>
<path d="M3.588 14.060c0.088-0.064 0.2-0.132 0.321-0.195 0.577-0.703 1.479-1.589 1.684-1.807 1.020-1.091 2.712-2.064 3.942-2.899 1.135-0.768 2.526-1.063 3.653-1.824-0.112-0.132-0.808-0.013-0.986 0.023-0.401 0.083-0.918 0.221-1.375 0.248-0.501 0.158-0.973 0.329-1.112 0.426-0.385 0.268-0.781 0.495-1.192 0.731-0.915 0.527-1.684 1.109-2.532 1.741-0.555 0.413-0.42 0.724-0.953 1.165-0.42 0.347-0.655 0.815-0.996 1.232-0.382 0.469-0.725 0.958-1.096 1.436-0.188 0.242-0.382 0.692-0.438 0.997 0.2-0.228 0.298-0.506 0.523-0.712 0.195-0.179 0.338-0.407 0.557-0.563z"></path>
<path d="M5.86 16.784c-0.121-0.259-0.392-0.167-0.673-0.020-0.163 0.085-0.809 0.728-1.715 2.31 0.148 0.422 0.036 1.802 0.011 2.138 0.272-0.719 1.147-2.511 1.558-3.149 0.299-0.466 0.499-0.678 0.86-1.073-0.005-0.076-0.015-0.148-0.042-0.205z"></path>
<path d="M8.806 19.985c0.079-0.486 0.188-0.959 0.327-1.433 0.128-0.446 0.123-0.922 0.259-1.367 0.14-0.458 0.315-0.811 0.391-1.299-0.126 0.34-0.915 0.506-1.040 0.815-0.122 0.299-0.265 0.594-0.397 0.865 0.033-0.017 0.065-0.036 0.097-0.053-0.491 0.967-0.418 2.395-0.544 3.458-0.134 1.132-0.21 2.33 0.041 3.451 0.085-0.332 0.265-0.599 0.438-0.893 0.116-0.196 0.209-0.404 0.308-0.608-0.023-0.902 0.023-2.33 0.122-2.936z"></path>
<path d="M6.924 17.706c0.371-0.647 1.491-2.371 1.738-3.081-0.019 0.055-0.413 0.234-0.482 0.287-0.472 0.357-0.964 0.828-1.346 1.286-0.126 0.151-0.237 0.31-0.34 0.477-0.116 0.425-0.218 0.857-0.362 1.266-0.223 0.623-0.321 1.366-0.655 1.937 0.327-0.332 0.664-0.664 1.014-0.978 0.116-0.462 0.28-0.926 0.434-1.194z"></path>
<path d="M11.84 22.868c-0.108-0.51-0.247-1.096-0.23-1.249 0.034-0.31 0.080-0.619 0.111-0.931 0.025-0.252-0.024-2.072-0.024-2.072s-0.412 0.833-0.455 1.071c-0.059 0.324-0.223 0.986-0.411 1.615-0.019 0.234-0.036 0.468-0.043 0.698-0.028 0.75 0.253 1.446 0.453 2.16 0.177-0.226 0.24-0.621 0.38-0.889 0.069-0.134 0.144-0.268 0.22-0.403z"></path>
<path d="M30.519 17.46c-0.183-0.155-0.289-0.43-0.429-0.63-0.191-0.273-0.359-0.416-0.638-0.603-0.684-0.459-1.402-0.78-2.129-1.146-0.731-0.368-1.435-0.775-2.172-1.131-0.748-0.361-1.567-0.711-2.417-0.767-0.46-0.032-1.127-0.296-1.425-0.664-0.122-0.151-0.12-0.259-0.106-0.482 0.102-0.032 0.178 0.008 0.195 0.113 0.307 0.015 0.575 0.106 0.885 0.158 0.294 0.048 0.594 0.061 0.888 0.113 0.401 0.070 0.728 0.263 1.143 0.24-0.044-0.172-0.455-0.352-0.611-0.435-0.36-0.19-0.73-0.384-1.109-0.535 0.042 0.017 0.35-0.109 0.452-0.099 0.148 0.017 0.329 0.144 0.473 0.126 0.422-0.051-0.345-0.394-0.511-0.44 0.397-0.076 0.703 0.037 1.090 0.122 0.483 0.107 0.93 0.52 1.361 0.748 0.651 0.343 1.038 0.77 1.558 1.296 0.365 0.369 0.693 0.771 1.034 1.164 0.193 0.224 0.6 0.772 0.907 0.827-0.065-0.355-0.314-0.787-0.516-1.080-0.299-0.431-0.635-0.93-0.995-1.308-0.524-0.546-0.991-1.136-1.561-1.64-0.229-0.202-1.163-0.979-0.884-1.32 0.499 0.052 0.808 0.438 1.109 0.795 0.38 0.454 0.782 0.884 1.169 1.338 0.51 0.602 0.964 1.23 1.441 1.853 0.234 0.305 0.441 0.642 0.701 0.931 0.251 0.28 0.538 0.527 0.731 0.856 0.132 0.225 0.146 0.421 0.174 0.669 0.037 0.317 0.233 0.602 0.191 0.93zM25.361 17.012c0.2 0.16 0.383 0.293 0.567 0.469 0.242 0.232 0.935 0.635 0.89 1.025-0.389-0.24-0.819-0.541-1.219-0.806-0.488-0.324-0.96-0.667-1.45-0.987-0.346-0.226-0.77-0.471-1.058-0.761-0.287-0.289-0.585-0.585-0.889-0.859-0.329-0.296-0.588-0.635-0.906-0.937-0.193-0.186-0.535-0.399-0.46-0.7 0.148-0.594 0.618 0.053 0.874 0.109 0.242 0.057 0.48 0.349 0.697 0.561 0.698 0.68 1.386 1.446 2.138 2.058 0.298 0.242 0.513 0.583 0.815 0.827zM20.665 11.16c-0.312-0.354-0.371-1.189 0.058-1.474 0.163-0.109 0.407-0.073 0.596-0.075 0.075-0.001 0.141 0.006 0.198 0.020 0.296 0.073 0.391 0.329 0.576 0.604 0.128 0.192 0.245 0.232 0.206 0.478-0.039 0.24-0.3 0.438-0.483 0.566-0.431 0.303-0.778 0.304-1.152-0.12zM19.119 18.386c-0.282 0.427-0.589 0.941-0.693 1.435-0.114 0.533-0.212 1.089-0.361 1.605-0.137 0.478-0.081 0.995-0.173 1.488-0.044 0.239-0.122 0.473-0.247 0.684-0.107 0.183-0.314 0.31-0.392 0.504 0.122-0.173 0.098-0.38 0.136-0.577 0.042-0.221 0.111-0.391 0.109-0.621-0.003-1.029-0.015-2.025 0.048-3.055 0.034-0.579 0.286-0.979 0.572-1.461 0.186-0.312 0.742-0.814 1.132-0.778 0.074-0.036 0.359-0.061 0.557-0.046-0.004 0.271-0.533 0.586-0.689 0.823zM17.036 18.812c-0.212 0.293-0.314 0.586-0.391 0.95-0.22 1.051-0.117 2.367-1.012 3.157 0.088-0.298 0.314-0.566 0.404-0.88 0.108-0.375 0.172-0.831 0.195-1.219 0.028-0.478 0.090-0.927 0.267-1.379 0.114-0.296 0.412-1.119 0.756-1.199-0.023-0.022 0.097-0.1 0.216-0.12-0.037 0.118-0.163 0.174-0.235 0.29-0.080 0.131-0.109 0.273-0.2 0.399zM31.108 17.885c-0.084-0.893-0.261-1.723-0.656-2.555-0.279-0.586-0.476-1.142-0.893-1.655-0.443-0.544-0.983-1-1.414-1.554-0.21-0.271-0.331-0.556-0.611-0.759-0.257-0.186-0.548-0.319-0.808-0.502-0.21-0.149-0.347-0.343-0.528-0.556-0.099-0.117-0.196-0.126-0.216-0.274-0.014-0.098 0.085-0.323 0.094-0.445 0.003-0.027 0.004-0.052 0.005-0.078 0.033-0.766-0.335-1.258-0.895-1.786-0.218-0.205-0.362-0.433-0.569-0.647-0.455-0.477-1.063-0.75-1.689-0.923-1.137-0.617-1.893-1.147-3.149-1.526-0.471-0.141-0.912-0.416-1.393-0.518-0.359-0.075-0.786-0.078-1.152-0.098-0.711-0.037-1.271 0.052-1.891 0.36 0.931-0.015 1.625 0.145 2.348 0.712-1.778-0.028-3.508 0.209-5.118 0.94-0.795 0.36-1.328 0.467-2.11 0.843-0.417 0.202-1.198 0.618-1.477 0.996 0.501-0.117 1.425-0.387 1.932-0.541 0.088-0.028 0.197-0.034 0.317-0.034 0.141-0.047 0.28-0.090 0.392-0.139 0.35-0.153 0.668-0.371 1.028-0.518 0.448-0.181 0.861-0.263 1.339-0.347 0.607-0.107 1.164-0.393 1.765-0.479 0.413-0.061 0.702-0.321 1.102-0.36 0.382-0.038 0.763 0.023 1.145 0.018 0.388-0.004 0.73 0.034 1.094 0.122 0.239 0.057 0.471 0.145 0.712 0.2 0.906 0.207 1.844 0.338 2.638 0.867 0.752 0.501 1.45 1.205 1.966 1.938 0.229 0.327 0.577 0.814 0.5 1.25-0.095 0.525-1.024 0.562-1.425 0.504-0.602-0.090-1.070-0.448-1.576-0.739-0.576-0.329-1.271-0.277-1.907-0.272-0.623 0.005-1.151 0.203-1.734 0.404-1.249 0.432-2.886 0.574-3.741 1.68 0.483-0.172 0.89-0.51 1.43-0.608 0.271-0.050 0.538 0.052 0.803 0.018 0.261-0.036 0.449-0.111 0.724-0.033-0.131-0.037-0.814 0.351-0.962 0.42-0.286 0.135-0.457 0.34-0.603 0.623 0.226 0.013 0.448-0.214 0.656-0.285 0.317-0.107 0.693-0.114 1.025-0.093 0.183 0.013 0.375 0.032 0.562 0.044 0.125 0.008 0.441 0.109 0.548 0.067-0.482 0.19-0.973 0.305-1.442 0.541-0.581 0.293-1.117 0.593-1.645 0.974-0.508 0.368-1.026 0.716-1.552 1.054-0.192 0.125-0.441 0.184-0.609 0.324-0.182 0.15-0.245 0.425-0.403 0.599-0.182 0.202-0.261 0.299-0.365 0.566 0.211-0.249 0.499-0.432 0.776-0.599 0.374-0.225 0.719-0.284 1.1-0.473 0.229-0.114 0.463-0.223 0.707-0.298 0.145-0.043 0.647-0.031 0.735-0.104-0.181 0.151-0.429 0.275-0.636 0.404-0.472 0.295-0.912 0.628-1.29 1.029-0.391 0.416-0.691 0.875-1.051 1.316-0.263 0.324-0.453 0.683-0.435 1.114 0.44-0.623 0.869-1.168 1.508-1.601 0.535-0.365 1.179-0.722 1.823-0.847-0.121 0.024-0.389 0.433-0.477 0.533-0.184 0.214-0.332 0.44-0.491 0.673-0.237 0.345-0.406 0.661-0.486 1.084-0.060 0.318 0.005 0.625-0.031 0.937 0.081-0.385 0.21-0.824 0.444-1.146 0.243-0.332 0.628-0.621 0.923-0.92 0.142-0.145 0.31-0.458 0.533-0.429-0.146 0.368-0.416 0.687-0.551 1.079-0.259 0.758-0.335 1.666-0.399 2.46-0.098 1.188-0.312 2.311-0.56 3.476-0.078 0.365-0.15 0.74-0.215 1.105 0.35 0.32-0.875 1.395-0.969 1.703 0.13-0.427 0.078-0.904 0.179-1.339 0.235-1.006 0.232-2.085 0.2-3.107-0.023-0.74-0.041-1.353-0.346-2.044-0.397 0.299-0.731 0.474-0.796 1.514-0.006 0.083-0.020 0.173-0.041 0.268 0.001 0.96 0.216 1.917 0.169 2.88-0.037 0.739-0.195 1.36-0.497 2.026-0.234 0.516-0.597 1.273-1.004 1.669 0.109-0.21 0.762-0.075 0.95-0.221 0.645-0.5 1.498-0.753 2.045-1.364 0.495-0.553 0.908-1.201 1.201-1.882s0.452-1.828 0.452-1.828c0 0 0.102 0.632 0.137 0.953 0.056 0.519-0.010 1.066 0.027 1.59 0.065 0.925-0.455 2.763-0.455 2.763s1.060-1.14 1.461-1.731c0.577-0.848 0.738-1.447 1.007-2.428 0.174-0.633 0.293-1.071 0.324-1.98-0.065-0.323 0.293-1.525 0.293-1.525s0.357 0.973 0.357 1.655c0.226-0.421 0.195-2.077 0.324-2.759s0.519-1.179 0.907-1.881c0.218-0.392 0.318-0.63 0.586-0.976 0.037 0.042 0.664-0.006 0.715 0 0.362 0.044 0.425 0.033 0.747 0.163 0.796 0.32 1.526 0.86 2.24 1.364 0.294 0.207 0.626 0.286 0.921 0.5 0.328 0.239 0.663 0.464 0.986 0.709 0.229 0.174 0.462 0.391 0.715 0.523 0.020-0.023 0.029-0.047 0.048-0.071 0.252 0.145 0.471 0.445 0.603 0.7 0.108-0.645-0.401-1.163-0.644-1.704-0.282-0.63-0.663-1.141-1.039-1.727-0.181-0.282-0.328-0.548-0.537-0.805-0.22-0.271-0.273-0.599-0.469-0.883-0.139-0.202-0.462-0.331-0.483-0.579-0.004-0.053 0.661 0.145 0.714 0.168 0.259 0.114 0.454 0.285 0.677 0.457 0.49 0.377 1.085 0.555 1.617 0.862 0.37 0.212 0.645 0.43 0.876 0.79 0.259 0.401 0.46 0.71 0.832 1.002 0.476 0.374 1.159 0.754 1.475 1.29 0.024-0.413 0.011-0.839-0.027-1.247z"></path>
<path d="M20.896 10.378c0.005-0.005 0.011-0.010 0.017-0.015 0.044 0.109 0.173 0.261 0.303 0.266 0.113 0.003 0.259-0.048 0.346-0.121 0.041-0.036 0.198-0.282 0.1-0.313 0.234 0.074 0.202 0.46 0.137 0.644-0.056 0.16-0.247 0.225-0.399 0.248-0.202 0.029-0.333-0.009-0.495-0.13-0.075-0.056-0.042-0.122-0.055-0.203-0.018-0.12-0.046-0.282 0.046-0.375z"></path>
<path d="M15.364 9.103c-1.458 0.006-2.88 0.496-4.136 1.202-0.519 0.29-1.063 0.544-1.481 0.973-0.324 0.332-0.574 0.78-0.837 1.16 0.041-0.57 0.422-1.243 0.74-1.704 0.429-0.619 1.206-0.921 1.855-1.249 0.771-0.388 1.674-0.593 2.539-0.511 0.345 0.032 0.976 0.097 1.32 0.13z"></path>
<path d="M13.027 11.506c0.025-0.011 0.070-0.011 0.038-0.029-0.832 0.637-1.636 1.533-1.93 2.585-0.21 0.753-0.112 1.603-0.214 2.37 0.563-0.59 0.803-1.731 1.108-2.484 0.178-0.441 0.426-0.827 0.59-1.257 0.262-0.68 0.569-1.053 1.177-1.437-0.432-0.083-0.673 0.329-0.77 0.253z"></path>
</svg>
