<!-- Generated by IcoMoon.io -->
<svg version="1.1" xmlns="http://www.w3.org/2000/svg" width="32" height="32" viewBox="0 0 32 32">
<title>riddles_and_games</title>
<path d="M9.026 25.383c-3.585-1.715-6.588-3.187-6.674-3.27-0.16-0.154-0.196-12.274-0.037-12.433 0.048-0.048 3.088 1.041 6.756 2.421l6.668 2.508 0.051 6.956c0.028 3.826-0.016 6.951-0.097 6.946s-3.081-1.413-6.666-3.128zM9.221 23.565c0-0.552-0.105-0.731-0.574-0.973-0.774-0.4-0.788-0.393-0.788 0.373 0 0.472 0.128 0.76 0.432 0.973 0.681 0.477 0.93 0.378 0.93-0.373zM9.245 20.748c0.072-0.353 0.315-0.872 0.539-1.153 0.897-1.123 1.236-2 1.115-2.883-0.246-1.798-1.663-3.367-3.040-3.367-1.086 0-1.884 2.042-0.986 2.522 0.585 0.313 0.733 0.247 0.859-0.382 0.090-0.452 0.221-0.584 0.578-0.584 0.625 0 1.117 0.594 1.238 1.493 0.084 0.624-0.011 0.906-0.584 1.738-0.376 0.546-0.796 1.367-0.933 1.825-0.236 0.787-0.225 0.852 0.208 1.202 0.594 0.481 0.844 0.378 1.006-0.412zM16.271 21.572l0.051-6.949 13.425-5.124 0.097 6.155c0.063 3.965 0.028 6.236-0.097 6.384-0.174 0.205-13.174 6.484-13.424 6.484-0.057 0-0.080-3.127-0.052-6.949zM22.961 21.923l0.607-0.677 1.387 0.405c0.763 0.223 1.385 0.349 1.384 0.281s-0.209-0.787-0.461-1.597l-0.458-1.474 1.243-1.619c0.684-0.89 1.212-1.651 1.173-1.69s-0.71 0.193-1.49 0.515c-0.781 0.322-1.483 0.585-1.561 0.585s-0.387-0.674-0.688-1.497c-0.617-1.691-0.56-1.73-1.349 0.931l-0.496 1.671-3.79 1.745 1.265 0.427c1.913 0.646 1.835 0.51 1.364 2.385-0.226 0.899-0.454 1.81-0.507 2.024-0.056 0.226 0.294-0.056 0.836-0.674 0.513-0.585 1.206-1.368 1.54-1.74zM14.182 13.499c-1.638-0.631-7.956-3.032-10.37-3.941-0.781-0.294-1.391-0.621-1.356-0.726 0.059-0.176 1.831-0.883 9.408-3.755 1.507-0.571 3.055-1.17 3.44-1.331 0.689-0.288 0.747-0.274 3.777 0.92 1.693 0.667 4.804 1.862 6.914 2.656s3.774 1.5 3.697 1.568c-0.207 0.183-13.531 5.243-13.759 5.225-0.107-0.008-0.895-0.285-1.751-0.615z"></path>
</svg>
