<!-- Generated by IcoMoon.io -->
<svg version="1.1" xmlns="http://www.w3.org/2000/svg" width="32" height="32" viewBox="0 0 32 32">
<title>rope</title>
<path d="M23.5 4.763c-0.344-0.044-0.706 0.009-1.036 0.141-0.659 0.264-1.291 0.782-1.916 1.495-1.248 1.427-2.443 3.665-3.131 6.417l1.166 0.291c0.645-2.581 1.784-4.677 2.869-5.917 0.543-0.62 1.077-1.019 1.459-1.172s0.509-0.122 0.666 0.034c0.192 0.192 0.226 0.323 0.141 0.705s-0.363 0.946-0.805 1.628c-0.883 1.364-2.388 3.21-4.067 5.561l0.977 0.697c1.654-2.316 3.148-4.137 4.098-5.606 0.475-0.735 0.824-1.378 0.967-2.017s0.012-1.341-0.462-1.816c-0.255-0.255-0.581-0.397-0.925-0.441zM26.145 5.713l-0.291 1.164c0.236 0.059 0.313 0.132 0.35 0.186s0.068 0.138 0.044 0.336c-0.049 0.395-0.388 1.127-0.986 1.964-1.196 1.674-3.343 3.829-5.653 5.809l0.781 0.911c2.357-2.020 4.544-4.197 5.848-6.023 0.652-0.913 1.103-1.723 1.2-2.516 0.049-0.396-0.009-0.816-0.245-1.161s-0.618-0.563-1.048-0.67zM27.091 10.536l-0.848 0.848c0.157 0.157 0.187 0.297 0.047 0.686s-0.504 0.923-1.047 1.466c-1.086 1.086-2.861 2.221-4.766 2.856l0.38 1.137c2.095-0.698 3.987-1.898 5.234-3.145 0.624-0.624 1.093-1.255 1.328-1.908s0.182-1.431-0.328-1.941zM15.333 13.027v1.2c1.1 0 1.845 0.611 2.416 1.48s0.891 1.977 0.991 2.672l1.188-0.169c-0.123-0.861-0.468-2.085-1.175-3.161s-1.852-2.022-3.419-2.022zM14 14.361v1.2c1.1 0 1.845 0.612 2.416 1.48s0.891 1.977 0.991 2.672l1.188-0.17c-0.123-0.861-0.468-2.085-1.175-3.161s-1.852-2.020-3.419-2.020zM12.667 15.694v1.2c1.1 0 1.844 0.611 2.414 1.48s0.893 1.977 0.992 2.672l1.188-0.169c-0.123-0.861-0.469-2.086-1.177-3.163s-1.851-2.020-3.417-2.020zM12 17.694c-2.505 0-4.928 1.044-6.534 2.294-0.803 0.625-1.414 1.293-1.709 2.017-0.148 0.362-0.215 0.756-0.125 1.145s0.351 0.742 0.703 0.977c0.634 0.423 1.383 0.486 2.058 0.283s1.313-0.614 2.038-1.125c1.448-1.022 3.235-2.485 5.839-3.788l-0.537-1.073c-2.729 1.365-4.609 2.902-5.994 3.88-0.692 0.489-1.263 0.828-1.692 0.958s-0.68 0.111-1.045-0.133c-0.148-0.098-0.179-0.164-0.198-0.248s-0.014-0.222 0.067-0.422c0.163-0.4 0.636-0.982 1.333-1.523 1.393-1.084 3.637-2.041 5.798-2.041v-1.2zM14.186 20.6c-1.096 1.461-1.301 3.015-1.025 4.395s0.99 2.606 1.673 3.631l0.998-0.666c-0.65-0.974-1.27-2.082-1.494-3.202s-0.096-2.234 0.808-3.439l-0.961-0.72zM11.625 21.825c-1.731 1.385-2.93 2.901-3.973 3.647-0.522 0.373-0.966 0.55-1.445 0.534s-1.061-0.23-1.831-0.847l-0.75 0.936c0.896 0.717 1.732 1.085 2.544 1.111s1.535-0.297 2.18-0.758c1.29-0.921 2.425-2.404 4.027-3.686l-0.75-0.938z"></path>
</svg>
