<!-- Generated by IcoMoon.io -->
<svg version="1.1" xmlns="http://www.w3.org/2000/svg" width="33" height="32" viewBox="0 0 33 32">
<title>rougerauo2</title>
<path d="M7.753 29.065c-3.084-3.391-3.992-6.814-2.806-10.576 0.69-2.171 0.696-2.226 0.252-3.626-0.437-1.379-0.431-1.449 0.104-2.358 0.405-0.683 0.553-1.394 0.553-2.652 0-0.946 0.087-1.718 0.197-1.718 0.109 0.004 0.918 0.23 1.799 0.508 0.881 0.275 2.411 0.585 3.401 0.694 2.55 0.274 1.865 1.4-1.301 2.151-1.865 0.442-2.872 2.531-2.139 4.445 0.57 1.483 0.608 1.308-0.617 2.724-2.122 2.456-1.504 7.83 1.247 10.871 0.235 0.263 0.365 0.47 0.295 0.47-0.071 0-0.515-0.421-0.986-0.935zM23.099 24.936c2.549-3.758 3.654-9.161 2.39-11.677-0.344-0.694-0.781-1.739-0.967-2.324-0.602-1.919-0.777-2.002-4.178-2.002-3.397 0-3.31 0.071-2.226-1.891 0.437-0.794 0.792-1.707 0.798-2.029 0.022-2.937 1.646-4.070 2.636-1.838 0.519 1.176 1.34 1.81 4.167 3.227 1.067 0.536 1.067 0.536 1.236 2.8 0.099 1.246 0.427 3.047 0.734 3.997 1.116 3.457-0.132 7.35-3.6 11.244-1.372 1.543-1.875 1.795-0.99 0.493zM18.156 22.234c2.685-2.58 3.905-4.594 5.453-9.018 0.092-0.267 0.3-0.115 0.672 0.503 1.219 2.002-2.921 7.52-7.492 9.998-0.22 0.12 0.393-0.547 1.366-1.483zM14.388 15.568c0.365-0.175 1.268-0.58 2.001-0.903 1.52-0.672 3.145-2.204 3.895-3.664 0.371-0.722 0.689-1.001 1.131-1.001 3.254 0-2.559 5.343-6.229 5.726-1.253 0.132-1.368 0.109-0.798-0.158z"></path>
</svg>
