<!-- Generated by IcoMoon.io -->
<svg version="1.1" xmlns="http://www.w3.org/2000/svg" width="32" height="32" viewBox="0 0 32 32">
<title>s_level_4</title>
<path fill="#9b9b9b" d="M0.709 13.714l-0.008 0.472c-0.002 0.119-0.004 0.239-0.004 0.359 0 4.823 1.443 9.183 4.090 12.342 2.64 3.15 6.508 5.113 11.308 5.113s8.669-1.963 11.308-5.113c2.647-3.159 4.090-7.519 4.090-12.342 0-0.12-0.002-0.238-0.004-0.357l-0.008-0.474h-5.752l-0.023 0.457c-0.25 4.848-4.463 8.686-9.613 8.686s-9.363-3.838-9.613-8.686l-0.023-0.457zM1.669 14.677h3.972c0.524 5.143 4.996 9.143 10.455 9.143s9.931-4 10.455-9.143h3.972c-0.027 4.576-1.402 8.665-3.855 11.592-2.47 2.948-6.031 4.769-10.571 4.769s-8.101-1.821-10.571-4.769c-2.453-2.927-3.828-7.016-3.855-11.592z"></path>
<path fill="#9b9b9b" d="M23.314 26.225c0 0.797-0.646 1.444-1.444 1.444s-1.444-0.646-1.444-1.444c0-0.797 0.646-1.444 1.444-1.444s1.444 0.646 1.444 1.444z"></path>
<path fill="#9b9b9b" d="M17.54 27.669c0 0.797-0.646 1.444-1.444 1.444s-1.444-0.646-1.444-1.444c0-0.797 0.646-1.444 1.444-1.444s1.444 0.646 1.444 1.444z"></path>
<path fill="#9b9b9b" d="M11.765 26.225c0 0.797-0.646 1.444-1.444 1.444s-1.444-0.646-1.444-1.444c0-0.797 0.646-1.444 1.444-1.444s1.444 0.646 1.444 1.444z"></path>
<path fill="#9b9b9b" d="M7.434 22.376c0 0.797-0.646 1.444-1.444 1.444s-1.444-0.646-1.444-1.444c0-0.797 0.646-1.444 1.444-1.444s1.444 0.646 1.444 1.444z"></path>
</svg>
