<!-- Generated by IcoMoon.io -->
<svg version="1.1" xmlns="http://www.w3.org/2000/svg" width="33" height="32" viewBox="0 0 33 32">
<title>san_francisco</title>
<path d="M2.062 29.988c0-0.017 0.1-0.105 0.168-0.149 0.031-0.020 0.269-0.153 0.528-0.296 0.512-0.283 0.889-0.492 2.784-1.541 0.281-0.155 0.718-0.397 0.971-0.538s0.697-0.386 0.985-0.546c0.288-0.16 0.754-0.417 1.034-0.572 0.787-0.435 1.397-0.773 1.971-1.090 0.288-0.16 0.678-0.375 0.866-0.479s0.353-0.198 0.367-0.21c0.053-0.046 0.019-0.129-0.053-0.129-0.048 0-0.048-0.001-0.077-0.101-0.081-0.282-0.148-0.385-0.285-0.437-0.064-0.024-0.073-0.024-0.195-0.002-0.092 0.017-0.316 0.029-0.806 0.045-0.373 0.012-0.822 0.028-0.999 0.035s-0.501 0.020-0.72 0.028c-0.219 0.008-0.559 0.024-0.755 0.036-0.452 0.027-1.7 0.080-2.914 0.125-0.315 0.012-0.664 0.027-0.776 0.035s-0.426 0.023-0.699 0.035c-0.273 0.012-0.581 0.028-0.685 0.035s-0.38 0.023-0.615 0.035c-0.234 0.012-0.466 0.027-0.515 0.034s-0.153 0.017-0.231 0.023c-0.138 0.009-0.143 0.009-0.183-0.026-0.023-0.019-0.049-0.055-0.058-0.078-0.016-0.042-0.014-0.046 0.056-0.108 0.098-0.088 0.203-0.157 0.254-0.165 0.023-0.004 0.249-0.013 0.503-0.021s0.571-0.021 0.706-0.029c0.135-0.008 0.66-0.027 1.167-0.042s1.067-0.033 1.244-0.040c0.177-0.007 0.564-0.020 0.859-0.028s0.651-0.021 0.79-0.029c0.138-0.007 0.519-0.026 0.846-0.041s0.742-0.037 0.922-0.049c0.181-0.011 0.457-0.027 0.615-0.035 0.294-0.015 0.418-0.023 1.132-0.070 0.639-0.043 0.83-0.057 0.849-0.063 0.011-0.004-0.010-0.046-0.058-0.116-0.056-0.082-0.092-0.157-0.14-0.297-0.052-0.151-0.133-0.474-0.133-0.532 0-0.007 2.538-0.012 5.752-0.012h5.752l-0.009 0.087c-0.022 0.206-0.123 0.507-0.261 0.776-0.045 0.088-0.082 0.162-0.082 0.164s0.008 0.003 0.017 0.002c0.010-0.001 0.146 0.003 0.304 0.009s0.598 0.016 0.978 0.024c1.295 0.025 2.294 0.063 4.109 0.154 0.304 0.015 0.703 0.034 0.887 0.042s0.512 0.024 0.727 0.035c0.758 0.039 0.954 0.049 1.321 0.063 0.428 0.016 0.896 0.051 0.958 0.070 0.023 0.007 0.085 0.056 0.137 0.109 0.137 0.138 0.132 0.142-0.149 0.142-0.124 0-0.521-0.009-0.883-0.021s-0.89-0.027-1.174-0.035c-0.284-0.008-0.803-0.023-1.153-0.035s-0.884-0.027-1.188-0.035c-0.304-0.008-0.838-0.024-1.188-0.035-0.758-0.024-1.479-0.044-2.306-0.063-1.188-0.027-1.233-0.029-1.306-0.052-0.053-0.017-0.104-0.020-0.217-0.014-0.197 0.011-0.235 0.025-0.246 0.091-0.019 0.111-0.054 0.212-0.129 0.362-0.043 0.086-0.075 0.16-0.071 0.164 0.010 0.010 0.809 0.476 2.94 1.715 0.707 0.411 1.732 1.008 2.278 1.325s1.027 0.598 1.069 0.622c0.042 0.024 0.401 0.233 0.797 0.464s0.998 0.581 1.338 0.779c0.556 0.324 0.758 0.456 0.758 0.498 0 0.007-0.263 0.013-0.631 0.013h-0.631l-0.218-0.119c-0.12-0.066-0.463-0.279-0.763-0.475s-0.595-0.387-0.657-0.427c-0.061-0.039-0.178-0.114-0.259-0.167s-0.197-0.128-0.259-0.167c-0.061-0.039-0.253-0.163-0.426-0.276s-0.369-0.24-0.437-0.283c-0.067-0.043-0.432-0.279-0.811-0.525s-0.758-0.492-0.842-0.546c-0.085-0.055-0.22-0.142-0.3-0.195s-0.191-0.124-0.245-0.158c-0.054-0.035-0.148-0.096-0.21-0.136-0.169-0.11-1.66-1.075-1.799-1.165-0.129-0.083-0.477-0.308-0.583-0.378-0.035-0.023-0.145-0.094-0.245-0.158s-0.223-0.144-0.273-0.176c-0.093-0.060-0.178-0.091-0.297-0.107-0.054-0.007-0.066-0.005-0.066 0.012 0 0.022 0.084 0.084 0.517 0.383 0.135 0.093 0.345 0.239 0.468 0.325 0.186 0.129 0.773 0.536 2.456 1.7 0.098 0.068 0.274 0.19 0.391 0.271s0.446 0.309 0.73 0.506c0.284 0.197 0.536 0.371 0.559 0.387 0.119 0.084 0.451 0.314 0.776 0.538 0.338 0.233 0.578 0.4 0.839 0.581 0.058 0.040 0.259 0.179 0.447 0.309 0.246 0.17 0.367 0.262 0.43 0.33 0.048 0.052 0.087 0.098 0.087 0.104s-0.285 0.010-0.633 0.010h-0.633l-0.192-0.129c-0.105-0.071-0.334-0.242-0.508-0.381s-0.456-0.362-0.627-0.496c-0.403-0.317-0.986-0.777-1.356-1.069-0.161-0.127-0.385-0.304-0.496-0.391s-0.317-0.25-0.456-0.36c-0.139-0.11-0.365-0.288-0.502-0.395-0.239-0.188-0.592-0.467-0.769-0.607-0.046-0.037-0.219-0.173-0.384-0.302s-0.332-0.261-0.371-0.292c-0.039-0.031-0.174-0.138-0.3-0.237s-0.286-0.226-0.355-0.28c-0.465-0.368-0.585-0.458-0.639-0.482-0.058-0.026-0.1-0.027-1.302-0.028-1.074-0-1.241 0.002-1.234 0.020 0.004 0.011 0.015 0.047 0.023 0.080s0.027 0.095 0.042 0.137c0.015 0.042 0.071 0.218 0.126 0.391s0.111 0.349 0.126 0.391c0.015 0.042 0.071 0.218 0.126 0.391s0.112 0.349 0.126 0.391c0.014 0.042 0.071 0.218 0.126 0.391s0.124 0.387 0.152 0.475c0.029 0.088 0.085 0.264 0.125 0.391s0.085 0.265 0.099 0.307c0.014 0.042 0.068 0.209 0.118 0.37s0.107 0.338 0.126 0.391c0.018 0.054 0.063 0.192 0.099 0.307s0.080 0.254 0.098 0.307c0.117 0.357 0.131 0.418 0.136 0.563l0.005 0.143h-1.305l-0.015-0.038c-0.044-0.116-0.074-0.246-0.107-0.472-0.020-0.138-0.049-0.333-0.064-0.433-0.032-0.215-0.087-0.596-0.125-0.86-0.015-0.104-0.043-0.299-0.063-0.433s-0.048-0.329-0.063-0.433c-0.015-0.104-0.043-0.299-0.063-0.433s-0.048-0.329-0.063-0.433c-0.015-0.104-0.043-0.299-0.063-0.433s-0.048-0.329-0.063-0.433c-0.015-0.104-0.043-0.292-0.061-0.419s-0.038-0.262-0.043-0.3c-0.005-0.038-0.019-0.128-0.031-0.199l-0.023-0.129h-0.117c-0.096 0-0.119 0.004-0.126 0.023-0.009 0.024 0.006 0.436 0.052 1.36 0.015 0.296 0.030 0.636 0.035 0.755s0.017 0.386 0.029 0.594c0.011 0.208 0.026 0.535 0.034 0.727 0.014 0.363 0.045 0.999 0.070 1.447 0.016 0.285 0.007 0.386-0.045 0.486l-0.031 0.059h-1.274l-0.033-0.059c-0.044-0.078-0.044-0.212-0.003-0.486 0.017-0.111 0.047-0.322 0.066-0.468s0.048-0.357 0.063-0.468c0.015-0.111 0.043-0.322 0.063-0.468 0.058-0.437 0.088-0.657 0.126-0.936 0.020-0.146 0.049-0.36 0.064-0.475s0.040-0.298 0.055-0.405c0.015-0.108 0.043-0.318 0.063-0.468 0.059-0.448 0.089-0.664 0.126-0.929 0.019-0.138 0.035-0.26 0.035-0.27-0-0.014-0.031-0.017-0.128-0.014l-0.128 0.004-0.045 0.182c-0.025 0.1-0.074 0.304-0.11 0.454s-0.088 0.364-0.115 0.475c-0.027 0.111-0.067 0.278-0.089 0.37-0.041 0.17-0.096 0.401-0.188 0.783-0.087 0.36-0.13 0.538-0.182 0.755-0.028 0.115-0.066 0.273-0.084 0.349-0.061 0.251-0.158 0.653-0.21 0.866-0.028 0.115-0.069 0.288-0.092 0.384s-0.057 0.234-0.075 0.307c-0.018 0.073-0.053 0.219-0.078 0.325l-0.045 0.192h-1.311l0.009-0.115c0.005-0.063 0.015-0.137 0.023-0.164 0.013-0.043 0.142-0.363 0.521-1.293 0.346-0.847 0.36-0.884 0.741-1.81 0.159-0.388 0.31-0.756 0.335-0.818 0.068-0.167 0.171-0.418 0.226-0.552 0.078-0.188 0.17-0.415 0.228-0.559l0.053-0.133-1.058-0.008c-0.582-0.005-1.105-0.003-1.162 0.003-0.205 0.021-0.461 0.12-0.678 0.261-0.113 0.074-0.093 0.059-0.978 0.716-0.249 0.184-0.382 0.283-0.853 0.629-0.223 0.164-0.459 0.337-0.524 0.386-0.228 0.168-0.637 0.469-0.846 0.621-0.115 0.084-0.336 0.246-0.491 0.36s-0.384 0.281-0.51 0.373c-0.126 0.092-0.298 0.218-0.382 0.281s-0.242 0.178-0.349 0.256c-0.172 0.125-0.557 0.406-1.013 0.741-0.153 0.113-0.332 0.243-0.83 0.607l-0.302 0.22h-0.629c-0.346 0-0.629-0.004-0.629-0.009s0.029-0.043 0.064-0.084c0.061-0.072 0.135-0.124 0.607-0.431 0.14-0.091 0.29-0.189 0.842-0.55 0.136-0.089 0.331-0.217 0.433-0.283 0.179-0.117 1.319-0.862 1.59-1.039 0.073-0.048 0.208-0.136 0.3-0.196s0.246-0.161 0.342-0.224c0.16-0.105 0.313-0.204 0.692-0.452 0.077-0.050 0.228-0.149 0.335-0.219s0.268-0.175 0.356-0.233c0.287-0.187 1.44-0.94 1.677-1.094 0.127-0.083 0.319-0.208 0.426-0.278 0.433-0.282 0.489-0.323 0.494-0.357 0.003-0.023-0.001-0.031-0.014-0.026-0.010 0.004-0.055 0.015-0.1 0.025-0.112 0.025-0.229 0.086-0.61 0.32-0.181 0.11-0.357 0.218-0.391 0.239s-0.164 0.099-0.287 0.175c-0.123 0.075-0.34 0.207-0.482 0.293s-0.318 0.193-0.391 0.238c-0.073 0.045-0.233 0.142-0.356 0.217-0.28 0.17-0.718 0.437-1.055 0.642-0.142 0.087-0.375 0.228-0.517 0.314s-0.391 0.237-0.552 0.336c-0.161 0.098-0.435 0.265-0.608 0.37s-0.415 0.253-0.538 0.328c-0.123 0.075-0.271 0.165-0.328 0.2s-0.199 0.121-0.314 0.192c-0.115 0.071-0.298 0.182-0.405 0.248s-0.469 0.285-0.804 0.489c-0.334 0.204-0.652 0.397-0.706 0.429s-0.139 0.084-0.189 0.115c-0.050 0.031-0.183 0.112-0.295 0.181l-0.205 0.125h-0.631c-0.356 0-0.631-0.005-0.631-0.012zM16.686 23.766c0.099-0.037 0.195-0.13 0.242-0.234 0.094-0.207 0.005-0.441-0.208-0.549-0.088-0.045-0.247-0.043-0.349 0.004-0.090 0.042-0.168 0.118-0.209 0.202-0.025 0.052-0.029 0.080-0.024 0.178 0.017 0.322 0.267 0.503 0.548 0.398zM6.338 23.176c-0.078-0.041-0.112-0.104-0.112-0.206 0-0.109 0.044-0.192 0.126-0.237l0.063-0.035 2.607-0.008v-0.244c0-0.134-0.002-0.246-0.004-0.247s-0.415-0.006-0.919-0.010c-0.883-0.007-0.917-0.009-0.963-0.036-0.066-0.039-0.102-0.092-0.114-0.17-0.006-0.037-0.011-0.997-0.012-2.134l-0.001-2.066-0.046-0.044c-0.025-0.024-0.065-0.054-0.089-0.067-0.055-0.029-0.103-0.127-0.103-0.21 0-0.084 0.060-0.179 0.141-0.224 0.033-0.018 0.068-0.049 0.078-0.068 0.014-0.028 0.018-0.513 0.018-2.346l0-2.311-0.048-0.044c-0.026-0.024-0.070-0.061-0.096-0.082-0.060-0.047-0.093-0.116-0.093-0.19 0-0.084 0.1-0.226 0.178-0.253l0.057-0.020 0.005-0.232c0.005-0.216 0.007-0.236 0.040-0.293 0.043-0.076 0.109-0.113 0.2-0.113 0.121 0 0.206 0.072 0.232 0.196 0.008 0.039 0.015 0.156 0.015 0.259v0.188h0.335v-4.137h17.4v4.109h0.349l0-0.22c0-0.247 0.015-0.302 0.096-0.37 0.075-0.063 0.201-0.067 0.283-0.009 0.073 0.052 0.098 0.132 0.098 0.316-0 0.242 0.019 0.287 0.151 0.357 0.104 0.055 0.142 0.18 0.091 0.301-0.031 0.075-0.059 0.101-0.157 0.145l-0.088 0.040 0.004 2.331c0.003 1.914 0.007 2.337 0.022 2.364 0.010 0.018 0.046 0.045 0.080 0.060 0.115 0.051 0.176 0.194 0.129 0.302-0.042 0.097-0.088 0.149-0.161 0.181l-0.074 0.033-0 2.121c0 1.492-0.005 2.138-0.015 2.177-0.018 0.065-0.044 0.098-0.103 0.131-0.038 0.021-0.139 0.023-0.961 0.027l-0.919 0.004v0.502l2.607 0.007 0.068 0.035c0.037 0.019 0.080 0.052 0.096 0.072 0.054 0.072 0.055 0.216 0.002 0.287-0.015 0.020-0.058 0.052-0.096 0.072l-0.070 0.037h-1.454c-1.446 0-1.454-0-1.509-0.029-0.036-0.019-0.069-0.051-0.091-0.091-0.035-0.061-0.035-0.067-0.042-0.467l-0.007-0.405-14.053-0.007v0.345c0 0.493-0.020 0.572-0.16 0.635-0.054 0.024-0.13 0.026-1.504 0.026l-1.448 0-0.060-0.032zM7.813 21.656c0.023-0.026 0.026-0.061 0.029-0.367 0.004-0.413-0.004-0.532-0.037-0.574-0.022-0.027-0.038-0.030-0.141-0.030-0.064 0-0.128 0.005-0.141 0.010-0.023 0.009-0.024 0.047-0.024 0.5v0.49h0.145c0.127 0 0.148-0.003 0.17-0.028zM25.566 21.178l0.004-0.5h-0.14c-0.213 0-0.198-0.039-0.193 0.502 0.005 0.543-0.009 0.507 0.192 0.501l0.134-0.004zM17.177 21.524c0.041-0.020 0.065-0.046 0.089-0.095 0.030-0.061 0.033-0.086 0.035-0.273 0.002-0.25-0.006-0.268-0.128-0.305-0.070-0.021-0.152-0.024-0.667-0.025-0.584-0.001-0.587-0-0.637 0.031-0.080 0.050-0.102 0.116-0.103 0.316-0.001 0.242 0.033 0.322 0.156 0.366 0.043 0.016 0.166 0.019 0.626 0.016 0.541-0.003 0.576-0.005 0.629-0.031zM7.834 18.952v-1.223h-0.335v2.446h0.335zM25.569 18.938v-1.237h-0.321v2.474h0.321zM10.88 19.726c0.088-0.024 0.23-0.062 0.314-0.084 0.195-0.052 0.441-0.118 0.594-0.159 0.112-0.030 0.341-0.087 0.671-0.166 0.081-0.019 0.26-0.057 0.398-0.084 0.593-0.116 1.011-0.155 1.534-0.145l0.304 0.006-0.007-0.909-0.238-0.075c-0.131-0.041-0.307-0.093-0.393-0.115-0.088-0.022-0.194-0.061-0.245-0.088-0.166-0.091-0.633-0.357-0.788-0.45-0.054-0.032-0.161-0.095-0.238-0.14-0.163-0.095-0.259-0.185-0.259-0.242 0-0.068 0.035-0.098 0.158-0.135 0.103-0.031 0.148-0.035 0.436-0.041 0.337-0.008 0.755-0.038 0.992-0.072 0.077-0.011 0.294-0.042 0.482-0.069 0.676-0.098 1.466-0.133 2.418-0.107 0.768 0.020 1.091 0.050 1.824 0.164 0.298 0.047 0.284 0.045 0.58 0.063 0.318 0.019 0.472 0.048 0.769 0.145 0.127 0.041 0.251 0.080 0.276 0.085s0.045 0.015 0.045 0.021c0 0.006-0.036 0.042-0.080 0.080-0.391 0.332-0.763 0.532-1.576 0.85-0.131 0.051-0.272 0.108-0.314 0.126s-0.094 0.037-0.115 0.043l-0.038 0.009v0.856l0.486 0.001c0.486 0.001 0.57 0.007 0.919 0.062 0.24 0.038 0.338 0.061 1.398 0.32 0.969 0.238 1.145 0.279 1.174 0.279 0.019 0 0.021-0.054 0.021-0.434v-0.434l-0.059-0.025c-0.033-0.014-0.1-0.036-0.15-0.049s-0.138-0.039-0.196-0.057c-0.058-0.018-0.172-0.052-0.255-0.076s-0.218-0.063-0.3-0.087c-0.083-0.024-0.197-0.058-0.255-0.076s-0.205-0.061-0.328-0.097-0.293-0.087-0.344-0.13c-0.069-0.058-0.049-0.131 0.067-0.243 0.037-0.035 0.108-0.092 0.158-0.125 0.195-0.129 0.339-0.253 0.601-0.516 0.213-0.213 0.283-0.293 0.321-0.364l0.048-0.091 0.011-0.955-0.061-0.008c-0.033-0.004-0.514-0.011-1.067-0.014s-1.079-0.013-1.167-0.021c-0.343-0.032-0.606-0.061-0.894-0.1-0.332-0.044-0.665-0.077-0.985-0.098-0.403-0.026-1.284-0.013-1.992 0.028-0.135 0.008-0.377 0.020-0.539 0.028s-0.404 0.029-0.538 0.048c-0.706 0.1-0.819 0.106-2.074 0.118l-1.006 0.009 0.001 0.476c0.001 0.419 0.004 0.484 0.025 0.54 0.020 0.052 0.076 0.113 0.293 0.321 0.547 0.524 0.606 0.572 0.967 0.794 0.115 0.071 0.212 0.131 0.215 0.134 0.013 0.013-0.015 0.020-0.171 0.047-0.090 0.015-0.206 0.040-0.258 0.056s-0.16 0.047-0.241 0.071c-0.245 0.071-0.583 0.17-1.195 0.352-0.2 0.059-0.254 0.080-0.29 0.109-0.031 0.025-0.032 0.028-0.036 0.453-0.004 0.35-0.001 0.428 0.014 0.428 0.010 0 0.091-0.019 0.179-0.043zM16.706 19.439c0.216-0.059 0.38-0.25 0.433-0.506 0.022-0.107 0.022-0.121 0-0.227-0.040-0.191-0.124-0.326-0.266-0.423-0.081-0.056-0.24-0.107-0.332-0.107-0.083 0-0.246 0.049-0.32 0.097-0.327 0.21-0.39 0.691-0.129 0.982 0.115 0.128 0.206 0.174 0.414 0.211 0.039 0.007 0.113-0.003 0.2-0.027zM7.834 16.108v-1.090h17.4l0 1.038c0 0.808 0.004 1.045 0.018 1.073 0.029 0.058 0.082 0.074 0.207 0.063l0.111-0.010v-4.749h-0.335v2.25h-17.4v-2.208h-0.335v2.353c0 1.294 0.004 2.357 0.009 2.362s0.081 0.009 0.168 0.009h0.158v-1.090zM13.219 13.861c0.017-0.1 0.010-4.776-0.007-4.824s-0.044-0.066-0.194-0.131c-0.575-0.249-1.312-0.388-1.95-0.369-0.31 0.009-0.606 0.041-0.818 0.087-0.088 0.019-0.176 0.038-0.196 0.042-0.196 0.039-0.73 0.228-0.846 0.3-0.091 0.056-0.091 0.052-0.091 0.927 0 0.433 0.004 1.514 0.009 2.404l0.009 1.617h4.073zM23.913 13.882c0.004-0.017 0.006-1.115 0.004-2.44l-0.004-2.409-0.043-0.038c-0.044-0.039-0.238-0.126-0.426-0.19-0.351-0.12-0.716-0.203-1.067-0.24-0.385-0.041-1.009-0.024-1.316 0.036-0.411 0.081-0.577 0.128-0.957 0.27-0.179 0.067-0.248 0.11-0.274 0.172-0.017 0.040-0.020 0.406-0.020 2.459v2.411h4.094zM18.581 11.216v-2.683h-4.081v5.367h4.081zM7.023 7.017v-0.552h19.035v1.104h-19.035zM11.691 5.527c0-0.607-0.001-0.643-0.024-0.637-0.013 0.004-0.063 0.017-0.11 0.029-0.107 0.027-0.587 0.185-0.746 0.245-0.28 0.106-0.321 0.113-0.414 0.071-0.118-0.053-0.174-0.236-0.109-0.351 0.045-0.078 0.143-0.119 0.834-0.35 0.653-0.218 1.323-0.379 2.114-0.508 0.697-0.114 1.382-0.178 2.397-0.224 0.25-0.011 0.5-0.025 0.556-0.029l0.102-0.009-0.008-0.41-0.447-0.007c-0.485-0.008-0.489-0.008-0.566-0.090-0.054-0.058-0.057-0.199-0.007-0.34 0.074-0.209 0.165-0.356 0.32-0.518 0.17-0.177 0.376-0.301 0.609-0.367 0.105-0.030 0.146-0.033 0.356-0.033 0.217 0.001 0.248 0.004 0.361 0.039 0.368 0.113 0.661 0.363 0.838 0.715 0.062 0.123 0.108 0.272 0.108 0.348 0 0.079-0.051 0.176-0.112 0.211-0.046 0.026-0.077 0.029-0.5 0.033l-0.451 0.004v0.45l0.171-0.008c0.188-0.009 0.365 0.001 0.961 0.053 0.219 0.019 0.445 0.038 0.503 0.043s0.322 0.029 0.587 0.055c1.149 0.113 1.72 0.219 2.69 0.501 0.256 0.074 0.849 0.281 0.947 0.331 0.114 0.057 0.166 0.129 0.166 0.229 0 0.121-0.093 0.236-0.204 0.252-0.055 0.008-0.123-0.011-0.609-0.174-0.301-0.101-0.562-0.183-0.581-0.183h-0.034v1.272h-2.040v-0.396c0-0.379-0.001-0.398-0.029-0.433-0.016-0.020-0.054-0.043-0.087-0.052-0.168-0.045-0.729-0.139-1.163-0.194-0.347-0.044-1.295-0.099-1.359-0.079-0.056 0.018-0.060 0.056-0.060 0.617v0.537h-0.224v-1.16l-0.094 0c-0.399 0.001-1.166 0.058-1.59 0.118-0.25 0.035-0.712 0.118-0.859 0.154-0.042 0.010-0.094 0.023-0.115 0.027l-0.038 0.009v0.852h-2.040v-0.644zM17.109 2.726c-0.113-0.108-0.251-0.187-0.376-0.216-0.096-0.022-0.331-0.018-0.418 0.008-0.156 0.046-0.311 0.146-0.407 0.262l-0.042 0.051 1.351-0.001-0.109-0.104z"></path>
</svg>
