<!-- Generated by IcoMoon.io -->
<svg version="1.1" xmlns="http://www.w3.org/2000/svg" width="33" height="32" viewBox="0 0 33 32">
<title>sands_of_egypt</title>
<path d="M30.141 22.693c-0.175-0.278-0.423-0.268-0.656-0.413-0.481-0.297-0.99-0.496-1.484-0.762-0.682-0.366-1.337-0.778-1.975-1.259-0.459-0.344-0.904-0.698-1.343-1.083-0.505-0.442-0.99-0.931-1.518-1.325-0.44-0.328-0.821-0.751-1.241-1.114-0.349-0.301-0.682-0.644-1.002-0.996-0.272-0.301-0.564-0.612-0.866-0.86-0.15-0.124-0.314-0.209-0.459-0.341-0.187-0.17-0.353-0.37-0.543-0.536-0.407-0.354-0.802-0.753-1.231-1.056-0.113-0.080-0.2-0.198-0.317-0.271-0.114-0.070-0.237-0.111-0.356-0.163-0.239-0.102-0.483-0.178-0.716-0.299-0.121-0.063-0.481-0.151-0.576-0.002-0.023 0.036-0.048 0.125-0.040 0.174 0.013 0.084 0.020 0.045 0.055 0.095 0.051 0.074 0.146 0.155 0.215 0.227 0.198 0.208 0.367 0.432 0.551 0.66 0.093 0.116 0.156 0.252 0.26 0.36 0.096 0.1 0.203 0.183 0.301 0.28 0.132 0.133 0.234 0.28 0.379 0.392 0.402 0.312 0.706 0.924 0.951 1.429 0.095 0.197 0.211 0.49 0.168 0.731-0.020 0.116-0.087 0.193-0.142 0.295-0.13 0.244-0.291 0.452-0.411 0.714-0.298 0.643-0.724 0.976-1.295 1.064-0.283 0.044-0.561 0.035-0.844 0.094-0.392 0.083-0.784 0.185-1.179 0.237-1.143 0.153-2.279-0.187-3.417-0.186-0.197 0-0.627-0.022-0.518 0.401 0.063 0.245 0.372 0.279 0.525 0.39 0.21 0.152 0.392 0.345 0.585 0.53 0.256 0.245 0.466 0.552 0.727 0.781 0.473 0.417 0.928 0.874 1.4 1.292 0.529 0.468 1.076 0.902 1.599 1.384 0.186 0.173 0.353 0.329 0.56 0.459 0.161 0.102 0.327 0.226 0.473 0.361 0.116 0.108 0.19 0.221 0.32 0.303 0.091 0.057 0.203 0.106 0.285 0.18 0.18 0.164 0.297 0.368 0.409 0.615 0.036 0.079 0.090 0.233 0.055 0.335-0.035 0.101-0.138 0.062-0.218 0.062-0.446-0.003-0.892 0.014-1.338 0.002-0.092-0.002-0.171-0.039-0.259-0.054-0.095-0.016-0.185-0.002-0.28-0.012-0.208-0.020-0.424-0.073-0.63-0.119-0.194-0.044-0.423-0.104-0.617-0.087-0.212 0.016-0.415 0.143-0.616 0.218-0.184 0.068-0.25 0.205-0.36 0.384-0.023 0.039-0.161 0.212-0.158 0.266 0.005 0.129 0.222 0.041 0.219 0.199-0.002 0.117-0.314 0.067-0.363 0.067-0.274-0.005-0.528-0.126-0.798-0.184-0.302-0.067-0.595-0.157-0.903-0.15-0.521 0.012-1.046-0.264-1.574-0.122-0.166 0.044-0.306 0.15-0.479 0.179-0.143 0.024-0.275 0.001-0.417 0.005-0.361 0.013-0.707 0.163-1.072 0.143-0.185-0.010-0.349-0.094-0.529-0.128-0.22-0.041-0.448-0.013-0.669-0.011-0.275 0.002-0.539-0.072-0.811-0.068-0.331 0.004-0.65-0.035-0.979-0.066-0.175-0.015-0.344-0.060-0.519-0.069-0.216-0.012-0.435 0.026-0.651-0.002-0.196-0.025-0.356-0.118-0.533-0.202-0.107-0.051-0.23-0.051-0.176-0.246 0.17-0.043 0.276-0.087 0.42-0.21 0.215-0.184 0.452-0.269 0.692-0.396 0.283-0.151 0.562-0.304 0.838-0.474 0.319-0.197 0.662-0.304 0.974-0.522 0.226-0.158 0.486-0.289 0.702-0.467 0.13-0.108 0.247-0.255 0.373-0.374 0.17-0.16 0.321-0.37 0.466-0.565 0.192-0.258 0.279-0.632 0.424-0.936 0.098-0.206 0.144-0.445 0.251-0.64 0.11-0.202 0.177-0.413 0.274-0.623 0.106-0.231 0.272-0.421 0.397-0.64 0.158-0.278 0.333-0.537 0.497-0.81 0.122-0.202 0.245-0.4 0.412-0.541 0.145-0.121 0.284-0.297 0.446-0.378 0.14-0.069 0.286-0.052 0.425-0.13 0.11-0.061 0.225-0.177 0.313-0.274 0.278-0.306 0.511-0.599 0.729-0.979 0.367-0.643 0.741-1.285 1.122-1.917 0.188-0.313 0.322-0.666 0.496-0.991 0.177-0.331 0.313-0.774 0.525-1.059 0.136-0.182 0.309-0.229 0.474-0.353 0.203-0.152 0.319-0.411 0.549-0.504 0.109-0.044 0.211-0.082 0.302-0.177 0.083-0.086 0.129-0.206 0.211-0.294 0.124-0.131 0.309-0.17 0.461-0.225 0.224-0.079 0.459-0.153 0.692-0.113 0.311 0.055 0.667 0.321 0.944 0.508 0.267 0.18 0.513 0.379 0.791 0.532 0.297 0.163 0.601 0.306 0.895 0.476 0.814 0.472 1.591 0.961 2.269 1.73 0.34 0.387 0.679 0.777 1.015 1.168 0.384 0.447 0.784 0.834 1.208 1.212 0.497 0.443 0.949 0.936 1.403 1.448 0.301 0.337 0.589 0.708 0.908 1.015 0.333 0.321 0.748 0.484 1.083 0.805 0.243 0.233 0.488 0.428 0.744 0.633 0.237 0.187 0.431 0.426 0.676 0.592 0.209 0.141 0.355 0.393 0.565 0.52 0.102 0.062 0.209 0.083 0.308 0.157 0.105 0.079 0.196 0.161 0.309 0.221 0.284 0.15 0.552 0.39 0.46 0.446z"></path>
<path d="M14.623 10.918c-0.054-0.033-0.122-0.138-0.164-0.209-0.082-0.137-0.14-0.225-0.249-0.314-0.183-0.149-0.356-0.34-0.546-0.458-0.238-0.149-0.513-0.17-0.761-0.225-0.561-0.123-1.124-0.152-1.684-0.255-0.276-0.050-0.539-0.224-0.812-0.316-0.292-0.098-0.553-0.27-0.818-0.521-0.162-0.152-0.261-0.302-0.378-0.54-0.098-0.2-0.12-0.263-0.151-0.523-0.023-0.198-0.033-0.37-0.030-0.576 0.003-0.211 0.069-0.292 0.132-0.452 0.056-0.142 0.127-0.317 0.204-0.423 0.055-0.074 0.123-0.090 0.187-0.134 0.133-0.095 0.279 0.003 0.405-0.084-0.016-0.114-0.095-0.227-0.145-0.301-0.046-0.068-0.091-0.102-0.148-0.137-0.066-0.041-0.126-0.125-0.188-0.163-0.13-0.079-0.32-0.012-0.455-0.012-0.108 0-0.223-0.027-0.33-0.009s-0.174 0.157-0.26 0.257c-0.132 0.152-0.27 0.287-0.327 0.585-0.059 0.306-0.080 0.717-0.083 1.040-0.001 0.165 0.002 0.33 0.001 0.495 0 0.137-0.019 0.32 0.002 0.451 0.033 0.216 0.178 0.446 0.282 0.553 0.121 0.123 0.257 0.208 0.389 0.284s0.26 0.221 0.4 0.247c0.14 0.027 0.276-0.020 0.416 0.032 0.092 0.034 0.186 0.039 0.279 0.068 0.082 0.026 0.162 0.088 0.244 0.108 0.187 0.045 0.367 0.142 0.552 0.224 0.211 0.095 0.432 0.154 0.64 0.262 0.175 0.091 0.354 0.065 0.532 0.123 0.216 0.072 0.437 0.003 0.656 0.083 0.306 0.11 0.619 0.201 0.92 0.351 0.122 0.060 0.246 0.114 0.369 0.168 0.103 0.045 0.21 0.033 0.31 0.105 0.095 0.069 0.18 0.186 0.284 0.211 0.049 0.013 0.102-0.013 0.151 0.009 0.119 0.056 0.094 0.209 0.17-0.006z"></path>
<path d="M10.47 13.726c-0.025-0.237-0.279-0.26-0.379-0.304-0.318-0.136-0.659-0.167-0.985-0.082-0.226 0.059-0.434 0.055-0.661 0.074-0.144 0.011-0.282 0.098-0.427 0.115-0.427 0.049-0.796-0.161-1.182-0.455-0.144-0.11-0.264-0.167-0.372-0.37-0.075-0.144-0.14-0.308-0.19-0.487-0.069-0.247-0.067-0.463-0.066-0.738 0.001-0.256 0.035-0.481 0.176-0.592 0.086-0.068 0.294-0.076 0.349 0.092-0.048-0.142-0.222-0.246-0.305-0.291-0.137-0.074-0.454-0.353-0.565-0.157-0.071 0.124-0.125 0.466-0.16 0.64-0.057 0.275-0.052 0.549-0.014 0.819 0.023 0.167 0.091 0.648-0.105 0.504-0.050-0.037-0.070-0.145-0.118-0.188-0.057-0.050-0.132-0.055-0.196-0.107-0.299-0.25-0.62-0.406-0.95-0.416-0.158-0.005-0.756-0.129-0.786 0.29 0.269 0.108 0.545 0.115 0.816 0.22 0.097 0.038 0.138 0.133 0.217 0.215 0.082 0.084 0.141 0.048 0.222 0.114 0.061 0.050 0.104 0.199 0.161 0.269 0.047 0.058 0.114 0.102 0.164 0.147 0.149 0.137 0.262 0.285 0.427 0.361 0.142 0.063 0.245 0.098 0.39 0.119 0.209 0.031 0.439 0.097 0.646 0.181 0.204 0.085 0.412 0.103 0.613 0.204 0.225 0.114 0.423 0.134 0.655 0.128 0.235-0.005 0.459 0.106 0.698 0.105 0.437-0.004 0.874 0 1.311 0 0.158 0 0.395-0.082 0.55-0.005 0.092 0.046 0.167 0.189 0.256 0.252 0.197 0.138 0.491 0.198 0.663 0.452-0.208-0.302-0.449-0.485-0.659-0.793-0.13-0.19-0.241-0.314-0.4-0.417-0.149-0.105-0.302-0.178-0.46-0.219-0.219-0.034-0.398 0.107-0.538 0.423z"></path>
<path d="M25.715 10.764c-0.003 0.028-0.007 0.057-0.009 0.084-0.218 0.117-0.44 0.085-0.67 0.129-0.116 0.022-0.23 0.105-0.348 0.108-0.162 0.004-0.246-0.165-0.383-0.302-0.092-0.093-0.187-0.115-0.284-0.179-0.115-0.076-0.212-0.214-0.317-0.329-0.197-0.216-0.402-0.38-0.614-0.534-0.129-0.094-0.224-0.199-0.364-0.208-0.125-0.008-0.245-0.017-0.369-0.046-0.232-0.051-0.455-0.051-0.687-0.051s-0.509-0.096-0.718 0.097c-0.246 0.225-0.446 0.149-0.705 0.232-0.241 0.078-0.472 0.098-0.72 0.084-0.313-0.017-0.659-0.141-0.948-0.368-0.18-0.143-0.452-0.397-0.569-0.713-0.091-0.244-0.16-0.777-0.111-1.073 0.048-0.305 0.285-0.308 0.421-0.296-0.081-0.123-0.132-0.251-0.227-0.34-0.052-0.048-0.088-0.064-0.144-0.097-0.093-0.053-0.268-0.227-0.366-0.193-0.071 0.024-0.081 0.145-0.141 0.208-0.067 0.071-0.168 0.037-0.24 0.107-0.142 0.138-0.198 0.356-0.269 0.616-0.101 0.366-0.118 0.926 0.024 1.255 0.064 0.148 0.157 0.315 0.236 0.432 0.081 0.119 0.157 0.26 0.243 0.348 0.094 0.097 0.23 0.149 0.328 0.226 0.113 0.088 0.218 0.155 0.33 0.239 0.174 0.134 0.342 0.258 0.517 0.403 0.205 0.171 0.411 0.182 0.628 0.302 0.474 0.259 1.001 0.44 1.48 0.072 0.117-0.091 0.179-0.284 0.287-0.401 0.054-0.058 0.128-0.101 0.186-0.143 0.212-0.153 0.44-0.366 0.67-0.386 0.128-0.012 0.293-0.045 0.417 0.021 0.063 0.033 0.112 0.132 0.175 0.167 0.047 0.026 0.099 0.018 0.147 0.041 0.249 0.125 0.496 0.372 0.748 0.468 0.171 0.067 0.328-0.011 0.498 0.118 0.145 0.108 0.234 0.185 0.389 0.205 0.237 0.032 0.408 0.256 0.628 0.387 0.069 0.042 0.117 0.094 0.192 0.050 0.104-0.197 0.218-0.367 0.343-0.513 0.193-0.28 0.409-0.492 0.316-0.227z"></path>
<path d="M11.537 23.265c0.061 0.013 0.083 0.052 0.063 0.118-0.167 0.052-0.183-0.131-0.296-0.22-0.062-0.048-0.141-0.034-0.204-0.073-0.074-0.046-0.119-0.119-0.187-0.174-0.131-0.106-0.252-0.16-0.383-0.273-0.192-0.169-0.33-0.409-0.518-0.578-0.318-0.287-0.706-0.535-0.99-0.897-0.345-0.436-0.729-0.745-1.080-1.158-0.309-0.365-0.624-0.702-0.96-1.022-0.209-0.2-0.467-0.234-0.701-0.404-0.128-0.093-0.532-0.66-0.649-0.364-0.060 0.152 0.046 0.264 0.086 0.393 0.027 0.088 0.143 0.485 0.129 0.563-0.020 0.115-0.367 0.432-0.474 0.467-0.115 0.037-0.233-0.116-0.346-0.123-0.055-0.003-0.104 0.037-0.144 0.038-0.039 0.001-0.186-0.074-0.214-0.045-0.122 0.132 0.036 0.706 0.095 0.855 0.128 0.318 0.295 0.59 0.458 0.87 0.21 0.361 0.467 0.627 0.654 1.014 0.101 0.209 0.368 0.484 0.375 0.745 0.010 0.443-0.407 0.134-0.565 0.125-0.085-0.005-0.21-0.015-0.291 0.001-0.062 0.012-0.101 0.066-0.166 0.060-0.081-0.007-0.165-0.115-0.245-0.113-0.075 0.002-0.054 0.029-0.107 0.048-0.074 0.025-0.117 0.059-0.194 0.072-0.125 0.022-0.255 0.063-0.389 0.107-0.255 0.083-0.501 0.211-0.773 0.225-0.343 0.019-0.701-0.15-1.044-0.286-0.227-0.090-0.412-0.236-0.622-0.403-0.12-0.095-0.352-0.218-0.352-0.439 0.068-0.051 0.111-0.137 0.173-0.199 0.097-0.097 0.209-0.115 0.31-0.185 0.133-0.093 0.261-0.195 0.41-0.265 0.323-0.151 0.448-0.552 0.624-0.953 0.073-0.169 0.11-0.339 0.176-0.532 0.11-0.329 0.316-0.493 0.497-0.742 0.105-0.143 0.222-0.231 0.338-0.344 0.14-0.136 0.222-0.286 0.353-0.445 0.121-0.145 0.256-0.356 0.326-0.546 0.106-0.288 0.12-0.563 0.381-0.601 0.397-0.059 0.871 0.367 1.212 0.651 0.288 0.24 0.599 0.422 0.889 0.665 0.282 0.237 0.589 0.331 0.883 0.541 0.176 0.126 0.357 0.153 0.539 0.239 0.177 0.082 0.241 0.22 0.378 0.374 0.226 0.252 0.467 0.37 0.681 0.668 0.145 0.202 0.288 0.328 0.445 0.503 0.162 0.182 0.263 0.401 0.449 0.551 0.166 0.136 0.328 0.223 0.48 0.399 0.219 0.252 0.4 0.468 0.599 0.757 0.093 0.136 0.333 0.25 0.364 0.438 0.030 0.181-0.069 0.221-0.174 0.259-0.224 0.082-0.362-0.001-0.298-0.361z"></path>
<path d="M31.18 18.629h0.036c-0.060-0.001-0.14 0.029-0.198 0.008-0.092-0.036-0.166-0.154-0.254-0.215-0.211-0.146-0.426-0.137-0.635-0.318-0.171-0.15-0.325-0.361-0.498-0.503-0.141-0.117-0.278-0.251-0.427-0.321-0.128-0.060-0.239-0.213-0.364-0.269-0.109-0.049-0.215 0.022-0.325-0.034-0.078-0.039-0.171-0.146-0.244-0.209-0.298-0.256-0.574-0.682-0.918-0.592-0.094 0.025-0.090-0.022-0.111 0.152-0.015 0.128 0.011 0.194 0.044 0.287 0.029 0.084 0.087 0.148 0.126 0.214 0.108 0.187 0.172 0.482 0.286 0.644 0.060 0.085 0.141 0.083 0.204 0.154 0.081 0.091 0.132 0.231 0.217 0.315 0.057 0.057 0.12 0.087 0.167 0.174 0.023 0.061 0.045 0.125 0.064 0.19 0.028 0.012 0.058 0.023 0.086 0.034 0.162 0.514-0.424 0.391-0.537 0.391-0.125 0-0.261 0.033-0.384 0.003-0.119-0.029-0.193-0.103-0.327-0.105-0.102-0.001-0.223 0.001-0.223 0.256 0.001 0.228 0.181 0.294 0.163 0.546-0.17 0.080-0.283-0.062-0.431-0.090-0.094-0.019-0.154-0.054-0.247-0.091-0.079-0.032-0.156 0.011-0.234-0.032-0.103-0.058-0.211-0.22-0.315-0.296-0.109-0.080-0.193-0.058-0.299-0.087-0.080-0.022-0.131-0.114-0.213-0.128 0.015-0.111 0.093-0.109 0.146-0.176 0.069-0.084 0.12-0.203 0.177-0.311 0.106-0.203 0.212-0.365 0.329-0.533 0.094-0.134 0.14-0.348 0.23-0.487 0.109-0.168 0.19-0.296 0.273-0.511 0.083-0.212 0.168-0.458 0.258-0.637 0.093-0.186 0.193-0.452 0.333-0.493 0.099-0.030 0.221 0.002 0.323 0.005 0.162 0.005 0.282 0.161 0.438 0.231 0.14 0.063 0.251 0.175 0.384 0.261 0.13 0.085 0.252 0.079 0.384 0.2 0.129 0.117 0.26 0.212 0.395 0.306 0.138 0.096 0.254 0.24 0.381 0.332 0.169 0.12 0.318 0.388 0.496 0.492 0.165 0.096 0.232 0.093 0.369 0.33 0.132 0.231 0.274 0.413 0.434 0.558 0.069 0.062 0.192 0.206 0.259 0.237 0.050-0.142 0.144-0.192 0.178 0.118z"></path>
</svg>
