<!-- Generated by IcoMoon.io -->
<svg version="1.1" xmlns="http://www.w3.org/2000/svg" width="32" height="32" viewBox="0 0 32 32">
<title>sanguine_shadows</title>
<path d="M13.332 16.662c0.329 0.020 1.123 0.066 1.437 0.093 0.974-0.004 2.010-0.027 2.954-0.254 0.157-0.042 0.999-0.236 1.175-0.277 0.635-0.16 1.245-0.378 1.84-0.632-0.274-0.162-0.548-0.323-0.906-0.315-1.452 0.035-2.985 0.199-4.434 0.356-1.050 0.116-2.074 0.35-3.129 0.378-0.405 0.010-0.865-0.112-0.841 0.37 0.001 0.045 0.007 0.092 0.016 0.137 0.625 0.073 1.256 0.109 1.888 0.144z"></path>
<path d="M17.826 19.606c-0.078 0.093-0.165 0.182-0.254 0.264-0.193 0.176-0.425 0.303-0.659 0.406-0.193 0.083-0.704 0.083-0.892 0-0.1-0.044-0.198-0.093-0.294-0.147-0.038-0.021-0.078-0.041-0.116-0.064-0.034-0.020-0.059-0.052-0.093-0.071-0.042-0.024-0.086-0.049-0.128-0.075-0.104-0.062-0.212-0.106-0.309-0.179-0.035-0.027-0.072-0.048-0.102-0.083-0.032-0.038-0.023-0.044 0.028-0.044 0.083 0 0.164 0.004 0.247 0.011 0.114 0.010 0.23 0.014 0.346 0.018 0.138 0.004 0.411-0.006 0.521-0.001 0.090 0.003 0.296 0.027 0.382 0.031 0.059 0.003 0.2-0.035 0.255-0.052 0.055-0.016 0.213-0.030 0.268-0.040 0.267-0.047 0.459-0.127 0.718-0.205 0.073-0.021 0.222-0.092 0.298-0.080 0.007 0.106-0.151 0.23-0.217 0.309zM19.112 17.757l-0.955 0.097c-0.294 0.041-0.734 0.093-1.015 0.080-0.835-0.016-1.633-0.052-2.458-0.178-0.31-0.065-1.092-0.213-1.41-0.272-0.583-0.106-1.173-0.217-1.754-0.357 0.075 0.202 0.183 0.397 0.285 0.563 0.367 0.607 0.889 1.099 1.349 1.633 0.363 0.419 0.703 0.802 1.085 1.212 0.426 0.459 1.036 1.015 1.636 1.245 0.906 0.346 1.757-0.464 2.489-0.989 1.301-0.934 2.231-2.028 2.732-3.432-0.649 0.178-1.311 0.315-1.984 0.398z"></path>
<path d="M23.262 15.611c0.11 0.172 0.241 0.329 0.389 0.478 0.189 0.191 0.368 0.405 0.48 0.653 0.572 1.28 1.524 2.371 1.74 3.816 0.080 0.539 0.224 1.017 0.121 1.571-0.106 0.566-0.37 1.096-0.646 1.595-0.541 0.971-1.545 1.462-2.585 1.092-0.416-0.148-0.557-0.343-0.799-0.697-0.090 0.421 0.257 0.974 0.497 1.287 0.358 0.467 0.745 0.573 1.319 0.597 0.766 0.032 1.168-0.226 1.706-0.771 0.734-0.744 1.18-1.806 1.365-2.825 0.175-0.96 0.319-1.988 0.151-2.958-0.128-0.748-0.373-1.74-0.721-2.4-0.351-0.663-0.502-0.977-0.766-1.675-0.224-0.59-0.556-1.298-1.156-1.678-0.16-0.102-0.433-0.288-0.622-0.234-0.312 0.088-0.401 0.498-0.545 0.745-0.231 0.398-0.284 0.627-0.097 1.080 0.048 0.116 0.104 0.223 0.169 0.325z"></path>
<path d="M26.449 19.977c0.485 0.641 0.48 1.604 0.577 2.372 0.095 0.755 0.136 1.47-0.021 2.22-0.189 0.902-0.576 1.514-1.391 1.946-0.37 0.195-0.779 0.066-1.13 0.215 0.103-0.044 0.419 0.056 0.543 0.059 0.199 0.004 0.398-0.008 0.594-0.041 0.389-0.062 0.804-0.185 1.13-0.409 0.771-0.535 1.314-1.308 1.37-2.255 0.049-0.81-0.041-1.634-0.128-2.427-0.045-0.419-0.131-0.847-0.289-1.246-0.089-0.224-0.207-0.443-0.296-0.673-0.212-0.548-0.514-1.129-0.82-1.627-0.133-0.216-0.35-0.366-0.485-0.577-0.064-0.1-0.298-0.435-0.318-0.535 0.192 0.996 0.487 2.024 0.665 2.979z"></path>
<path d="M8.064 14.751c-0.137 0.020-0.044-0.45-0.217-0.336-0.286 0.189-0.711-0.94-1.005-0.766-0.54 0.322-1.243 2.010-1.628 2.921-0.54 1.279-0.676 2.63 0.289 3.661 0.446 0.476 0.797 1.016 1.346 1.387 0.524 0.353 0.797 0.775 1.033 1.366 0.279 0.703 0.481 1.684 0.189 2.419-0.106 0.268-0.257 0.531-0.435 0.745-0.169 0.205-0.48 0.281-0.604 0.457 0.584-0.024 1.051-0.843 1.266-1.302 0.212-0.452 0.223-0.965 0.222-1.458-0.001-1.198-0.227-2.272-1.276-2.975-1.119-0.748-1.822-1.946-1.064-3.218 0.421-0.707 1.115-1.238 1.829-1.616 0.497-0.261 1.019-0.405 1.514-0.641 0.508-0.243 0.522-0.78-0.114-0.858-0.433-0.054-1.012 0.035-1.345 0.213z"></path>
<path d="M9.818 14.993c-0.329 0.21-1.061 0.198-1.446 0.268-0.305 0.055-0.57 0.095-0.837 0.258-0.426 0.262-1.032 0.721-1.267 1.178-0.413 0.804 0.215 2.036 0.817 2.561 0.406 0.356 0.765 0.739 1.156 1.098 0.358 0.329 0.553 0.648 0.797 1.082 0.385 0.691 0.366 1.662 0.296 2.436-0.049 0.553-0.178 1.245 0.168 1.733 0.308 0.435 0.785 0.442 1.152 0.61-1.185-0.643-0.785-2.515-0.732-3.59 0.051-1.073-0.238-1.994-0.854-2.859-0.327-0.457-0.618-0.923-0.967-1.359-0.25-0.315-0.444-0.756-0.404-1.17 0.104-1.041 1.353-1.754 2.121-2.247z"></path>
<path d="M18.361 25.585c0.305-0.982 0.73-1.911 1.068-2.879 0.092-0.257 0.426-1.342 0.524-1.648 0.158-0.501 0.368-0.985 0.454-1.496 0.343-0.076 0.792-0.357 1.105-0.525 0.766-0.408 1.634-0.885 2.472-1.099 0.373-0.096 0.82-0.191 1.207-0.168 0.32 0.020 0.648 0.134 0.978 0.095-1.373 2.33-3.192 4.338-4.778 6.531-0.988 1.366-2.029 2.76-3.16 4.005-0.185 0.203-0.694 0.603-0.694 0.603s0.593-2.669 0.824-3.418z"></path>
<path d="M6.301 17.489c0.388 0.008 0.799 0.092 1.152 0.171 0.461 0.104 0.938 0.202 1.406 0.271 0.621 0.092 1.187 0.363 1.785 0.546 0.59 0.181 1.511 0.354 1.83 0.945 0.275 0.514 0.248 1.14 0.325 1.702 0.068 0.5 0.113 0.999 0.175 1.499 0.095 0.747 0.1 1.475 0.2 2.211 0.078 0.57 0.535 3.428 0.535 3.428s-0.358-0.504-0.504-0.756c-0.371-0.643-0.723-1.219-1.238-1.772-0.645-0.696-1.041-1.485-1.507-2.306-0.532-0.936-1.068-1.811-1.736-2.659-0.277-0.351-0.652-0.638-0.929-0.992-0.336-0.428-0.721-0.857-1.032-1.297-0.099-0.138-0.151-0.302-0.25-0.437-0.138-0.191-0.384-0.322-0.452-0.548 0.078-0.006 0.158-0.007 0.238-0.006z"></path>
<path d="M21.765 9.428c-0.069 0.368-0.255 0.628-0.57 0.796-0.133 0.072-0.271 0.152-0.411 0.234-0.327 0.191-0.666 0.388-0.974 0.476-0.548 0.154-1.157 0.219-1.747 0.281-0.305 0.032-0.619 0.066-0.926 0.112-0.196 0.030-0.433 0.045-0.704 0.045v0c-0.649 0-1.463-0.088-2.077-0.223-0.845-0.186-1.295-0.336-2.22-0.69l-0.128-0.048c-0.346-0.13-0.778-0.291-0.943-0.54-0.171-0.258-0.166-0.696-0.162-1.049 0.003-0.143 0.008-0.285 0.013-0.422 0.004-0.102 0.008-0.2 0.011-0.296 0.008-0.411 0.076-0.848 0.183-1.198 0.023-0.075 0.045-0.15 0.069-0.224 0.347 0.11 0.701 0.215 1.064 0.271 0.675 0.106 1.397 0.148 2.096 0.189 0.349 0.021 0.696 0.041 1.033 0.069 0.254 0.021 0.555 0.031 0.895 0.031 0.782 0 1.765-0.058 2.506-0.148 1.057-0.13 1.638-0.243 2.625-0.452l0.044-0.010c0.027 0.104 0.049 0.203 0.065 0.296 0.024 0.133 0.048 0.271 0.073 0.411 0.089 0.494 0.182 1.005 0.222 1.475 0.018 0.207 0.007 0.38-0.037 0.615zM31.642 7.713c-0.446-0.415-4.022 0.16-5.393 0.255-1.109 0.078-2.851-0.054-4.2-0.154-0.058-0.337-0.126-0.673-0.183-0.989-0.11-0.597-0.409-1.257-0.706-1.784-0.285-0.504-0.555-0.975-1.044-1.304-0.468-0.313-1.029-0.435-1.578-0.524-0.381-0.064-0.844-0.121-1.226-0.161-0.363-0.038-0.608-0.023-0.977-0.040-0.368-0.018-0.738-0.037-1.113 0.042-0.409 0.086-0.873 0.059-1.286 0.15-0.769 0.168-1.614 0.541-2.098 1.184-0.498 0.662-0.82 1.59-1.074 2.374-0.095 0.286-0.154 0.614-0.182 0.929-1.358 0.024-2.741 0.099-4.073 0.291-1.080 0.155-1.645 0.329-2.7 0.624-0.847 0.238-2.455 1.006-3.047 1.733-0.56 0.69 0.334 1.329 1.101 1.682 2.553 1.181 4.308 2.873 7.699 4.126 1.661 0.614 3.387 0.675 5.12 0.933 0.535 0.079 2.506 0.078 3.010-0.032 0.532-0.116 1.074-0.172 1.606-0.285 1.236-0.261 2.47-0.728 3.598-1.279 0.49-0.238 1.006-0.367 1.5-0.588 0.553-0.247 2.56-1.396 3.448-1.949 0.981-0.611 2.917-2.867 3.096-3.287 0.195-0.459 1.14-1.541 0.701-1.947z"></path>
</svg>
