<!-- Generated by IcoMoon.io -->
<svg version="1.1" xmlns="http://www.w3.org/2000/svg" width="32" height="32" viewBox="0 0 32 32">
<title>scarlet_sorcery</title>
<path d="M14.88 12.618c-0.757 0-1.203-0.255-1.366-0.78-0.133-0.35-0.054-0.695 0.031-1.059l0.010-0.048c0.048-0.082 0.1-0.179 0.145-0.283 0.049-0.115 0.13-0.224 0.216-0.34 0.089-0.121 0.179-0.243 0.249-0.386 0.191-0.391 0.312-0.75 0.374-1.097 0.079-0.449 0.179-0.96 0.361-1.342 0.045-0.095 0.072-0.188 0.094-0.27 0.027-0.098 0.048-0.176 0.094-0.237 0.142-0.195 0.261-0.4 0.358-0.574 0.089-0.157 0.182-0.309 0.276-0.462 0.064-0.104 0.127-0.207 0.188-0.31 0.447-0.757 0.945-1.549 1.683-2.172 0.523-0.441 1.087-0.872 1.585-1.252 0.085-0.064 0.179-0.143 0.28-0.228l0.022-0.018c0.338-0.285 0.908-0.762 1.291-0.762 0.122 0 0.225 0.040 0.322 0.125 0.127 0.11 0.025 0.543-0.024 0.75-0.010 0.045-0.034 0.152-0.034 0.152-0.046 0.224-0.131 0.44-0.243 0.695-0.049 0.113-0.092 0.231-0.134 0.347-0.048 0.13-0.095 0.264-0.157 0.389-0.179 0.376-0.44 0.714-0.693 1.042-0.203 0.261-0.403 0.52-0.574 0.804-0.122 0.203-0.297 0.616-0.362 0.772l-0.022 0.049c-0.204 0.435-0.364 0.881-0.432 1.133-0.024 0.058-0.028 0.13-0.028 0.131 0.002 0.022 0.002 0.043 0.006 0.069 0.027 0.152 0.148 0.246 0.322 0.246 0.219 0 0.474-0.136 0.58-0.209 0.124-0.060 0.247-0.151 0.368-0.24 0.134-0.1 0.261-0.194 0.401-0.247 0.036-0.013 0.070-0.021 0.104-0.021 0.087 0 0.149 0.046 0.186 0.087 0.073 0.076 0.112 0.188 0.106 0.298 0.009 0.213-0.073 0.407-0.161 0.611-0.034 0.081-0.069 0.161-0.098 0.245-0.040 0.116-0.073 0.233-0.106 0.347-0.054 0.191-0.104 0.37-0.183 0.535-0.133 0.276-0.34 0.523-0.522 0.734-0.171 0.18-0.341 0.373-0.51 0.567-0.441 0.505-0.896 1.027-1.476 1.369l-0.066 0.033c-0.529 0.27-1.076 0.549-1.616 0.725-0.312 0.055-0.593 0.084-0.845 0.084z"></path>
<path d="M30.004 8.941c-0.072-0.441-0.446-0.558-0.446-0.558-0.122-0.034-0.435-0.045-0.666-0.045-0.161 0-0.327 0.007-0.48 0.015-0.137 0.006-0.265 0.012-0.371 0.012-0.221 0-0.446 0.021-0.663 0.042-0.18 0.016-0.359 0.033-0.54 0.039-0.048 0.002-0.092 0.003-0.136 0.003-0.116 0-0.215-0.006-0.31-0.010-0.087-0.006-0.171-0.010-0.268-0.010-0.067 0-0.14 0.003-0.224 0.009-0.067 0.004-0.143 0.007-0.221 0.007-0.267 0-0.571-0.025-0.78-0.046-0.55 0.070-1.090 0.171-1.537 0.347 0.397-0.237 0.819-0.473 1.267-0.61v-0.003c0.019-0.006 0.47-0.148 0.751-0.209 0.243-0.051 0.319-0.066 0.505-0.087 0.4-0.094 0.778-0.182 0.783-0.183 0 0 0 0.002 0.002 0 0.039-0.009 0.078-0.021 0.122-0.028 0.21-0.042 0.385-0.075 0.547-0.104 0.328-0.063 0.605-0.113 1.029-0.209l0.133-0.028c0.391-0.083 1.244-0.24 1.34-0.573 0.134-0.458 0.121-1.056-0.222-1.287-0.173-0.118-0.374-0.173-0.631-0.173-0.17 0-0.468 0.025-0.65 0.049-0.151 0.019-0.301 0.040-0.45 0.046-0.318 0.015-1.572 0.207-1.767 0.237-0.458 0.124-0.905 0.264-1.363 0.407-0.711 0.154-1.354 0.452-1.967 0.847 0.801-0.663 1.807-0.941 2.749-1.348 0.179-0.060 0.446-0.131 0.702-0.198 0.045-0.013 0.088-0.028 0.115-0.042 0.119-0.058 0.347-0.134 0.587-0.216 0.273-0.092 0.583-0.198 0.705-0.268 0.242-0.137 0.374-0.279 0.403-0.434 0.101-0.556-0.124-1.014-0.619-1.26-0.143-0.070-0.312-0.109-0.486-0.109-0.089 0-0.18 0.010-0.268 0.030l-0.151 0.031c-0.094 0.021-0.189 0.040-0.285 0.063-0.049 0.010-0.103 0.039-0.16 0.070-0.061 0.033-0.125 0.066-0.197 0.088-0.192 0.055-0.385 0.112-0.578 0.161-0.157 0.042-0.316 0.073-0.477 0.106-0.221 0.045-0.449 0.089-0.666 0.16l-0.206 0.066c-0.637 0.204-1.294 0.415-1.882 0.754-0.282 0.164-0.564 0.34-0.845 0.514l-0.267 0.167c-0.145 0.089-0.298 0.151-0.446 0.209-0.061 0.024-0.122 0.048-0.182 0.075-0.084 0.036-0.166 0.079-0.247 0.122-0.081 0.043-0.161 0.085-0.243 0.122-0.146 0.066-0.289 0.158-0.404 0.261-0.052 0.046-0.27 0.245-0.27 0.245l-0.078 0.095c-0.23 0.352-0.416 0.705-0.562 1.088 0.021 0.315 0.486 0.101 0.674-0.027 0.283-0.143 0.492-0.392 0.798-0.519 0.353-0.142 0.658 0.185 0.643 0.531 0.018 0.334-0.158 0.626-0.256 0.917-0.146 0.613-0.377 1.235-0.833 1.695-0.825 0.953-1.642 2.005-2.875 2.435-0.989 0.568-2.943 0.872-3.382-0.519-0.088-0.318-0.079-0.646-0.006-0.96 0.004-0.015 0.010-0.031 0.015-0.046-0.040 0.067-0.082 0.136-0.119 0.207-0.104 0.203-0.219 0.358-0.429 0.462-0.371 0.185-0.777 0.2-1.169 0.213-0.415 0.015-0.807 0.028-1.142 0.236-0.328 0.201-0.681 0.356-1.023 0.507-0.037 0.016-0.076 0.034-0.115 0.051 0.012 0.007 0.027 0.015 0.039 0.022 0.368 0.227 0.777 0.371 1.211 0.523 0.292 0.103 0.595 0.21 0.881 0.343 0.362 0.171 0.729 0.358 1.084 0.538 0.282 0.143 0.574 0.292 0.865 0.432 0.802 0.389 1.618 0.833 2.424 1.322 0.106 0.066 0.212 0.122 0.316 0.18 0.218 0.119 0.443 0.242 0.659 0.416 0.256 0.206 0.531 0.376 0.792 0.494 0.063 0.027 0.155 0.072 0.256 0.127 0.036-0.057 0.073-0.113 0.103-0.17 0.134-0.249 0.325-0.44 0.58-0.584 0.166-0.095 0.335-0.186 0.504-0.277 0.227-0.122 0.455-0.245 0.677-0.376 0.213-0.127 0.397-0.282 0.589-0.446 0.173-0.146 0.352-0.298 0.553-0.426 0.321-0.206 0.586-0.449 0.842-0.681 0.38-0.347 0.774-0.707 1.337-0.927 0.334-0.131 0.883-0.231 1.246-0.297l0.043-0.009c0.291-0.052 0.595-0.060 0.889-0.067 0.298-0.006 0.607-0.013 0.892-0.070 0.197-0.039 0.379-0.063 0.552-0.086 0.283-0.037 0.549-0.073 0.817-0.168 0.064-0.024 0.136-0.048 0.21-0.072 0.352-0.118 0.895-0.276 1.105-0.505 0.118-0.13 0.134-0.276 0.127-0.376-0.013-0.177-0.109-0.353-0.255-0.473-0.265-0.215-1.024-0.203-1.27-0.203h-0.051c-0.476 0.002-0.996 0.033-1.591 0.094-0.091 0.010-0.225-0.004-0.316 0.002-0.119 0.009-0.412 0.015-0.531 0.010-0.359-0.012-0.835 0.069-0.865 0.070l-0.37 0.048c0 0 0.002 0 0.002 0 0.025-0.009 0.665-0.291 1-0.388 0.242-0.072 0.526-0.148 0.655-0.171 0.218-0.039 0.443-0.081 0.643-0.097 0.194-0.018 0.346-0.027 0.501-0.037 0.137-0.007 0.276-0.016 0.446-0.031 0.222-0.018 0.516-0.019 0.799-0.019 0.213 0 0.42 0 0.584-0.009l0.088-0.004c0.395-0.018 0.754-0.034 1.123-0.191 0.222-0.094 0.316-0.14 0.425-0.335 0.124-0.225 0.121-0.501 0.079-0.756z"></path>
<path d="M14.809 19.907c-0.015 0.024-0.040 0.037-0.067 0.037l-0.037-0.004-0.018-0.018c-0.171-0.171-0.368-0.322-0.558-0.468-0.182-0.142-0.371-0.288-0.54-0.452-0.587-0.541-1.059-1.202-1.513-1.84-0.1-0.14-0.2-0.279-0.301-0.418-0.106-0.155-0.24-0.291-0.382-0.435-0.198-0.201-0.403-0.409-0.534-0.677-0.013-0.024-0.012-0.052 0.003-0.075s0.040-0.037 0.067-0.037c0.028 0 0.054 0.015 0.067 0.039 0.136 0.23 0.334 0.401 0.544 0.583 0.154 0.133 0.312 0.27 0.447 0.434 0.109 0.131 0.216 0.264 0.324 0.395 0.191 0.237 0.388 0.482 0.586 0.71 0.224 0.246 0.473 0.502 0.714 0.75 0.255 0.262 0.519 0.534 0.757 0.796 0.165 0.179 0.337 0.373 0.443 0.605 0.012 0.024 0.012 0.052-0.003 0.075zM12.312 21.923c-0.007 0.033-0.036 0.054-0.069 0.054l-0.045-0.003-0.018-0.033c-0.151-0.256-0.315-0.52-0.471-0.775-0.483-0.778-0.981-1.583-1.282-2.456l0.006-0.002c-0.042-0.067-0.127-0.233-0.334-0.641-0.103-0.253-0.274-0.465-0.441-0.671-0.134-0.166-0.273-0.337-0.377-0.537l-0.010-0.043 0.018-0.028c0.015-0.021 0.040-0.034 0.067-0.034 0.030 0 0.055 0.016 0.069 0.043 0.109 0.166 0.248 0.313 0.395 0.47 0.194 0.206 0.394 0.418 0.517 0.669 0.21 0.341 0.519 0.896 0.698 1.303 0.121 0.222 0.258 0.447 0.389 0.665 0.306 0.507 0.623 1.032 0.813 1.61 0.009 0.036 0.022 0.070 0.034 0.103 0.033 0.091 0.066 0.183 0.042 0.306zM9.816 22.775l-0.027 0.179-0.092-0.155c-0.286-0.48-0.496-1.009-0.699-1.522-0.103-0.261-0.21-0.529-0.325-0.787l-0.082-0.177c-0.273-0.593-0.555-1.206-0.981-1.728-0.007-0.013-0.016-0.030-0.028-0.048-0.063-0.097-0.148-0.23-0.085-0.329l0.019-0.030h0.034c0.039 0 0.072 0.028 0.078 0.064 0.064 0.174 0.23 0.359 0.391 0.538 0.13 0.143 0.262 0.292 0.353 0.446 0.107 0.198 0.224 0.398 0.335 0.59 0.364 0.626 0.74 1.273 0.909 1.999 0.019 0.1 0.054 0.204 0.089 0.315 0.069 0.212 0.14 0.431 0.11 0.646zM21.99 23.93c-0.249-0.434-0.583-0.862-0.907-1.232-0.216-0.247-0.497-0.419-0.732-0.656-0.247-0.246-0.429-0.531-0.695-0.753-0.286-0.239-0.583-0.462-0.856-0.714-0.16-0.146-0.273-0.321-0.418-0.476-0.21-0.227-0.507-0.35-0.737-0.549-0.113-0.098-0.222-0.204-0.34-0.297-0.662-0.239-1.117-0.768-1.637-1.194-0.564-0.398-1.13-0.807-1.637-1.266 0.538 0.438 1.109 0.804 1.701 1.179 0.432 0.318 0.842 0.717 1.322 0.954 0.325 0.046 0.663 0.016 0.857-0.255 0.154-0.215 0.283-0.668 0.133-0.872-0.152-0.209-0.537-0.413-0.759-0.513-0.31-0.139-0.602-0.329-0.854-0.531-0.297-0.239-0.619-0.376-0.945-0.576-0.775-0.471-1.58-0.912-2.399-1.309-0.659-0.318-1.3-0.666-1.947-0.968-0.678-0.319-1.46-0.477-2.12-0.883-0.386-0.239-0.948-0.444-1.181-0.863-0.133-0.236-0.21-0.373-0.437-0.517-0.324-0.207-0.458-0.182-0.771-0.022-0.349 0.18-0.696 0.34-1.036 0.544-0.513 0.309-1.017 0.716-1.424 1.153-0.423 0.455-0.841 0.875-1.246 1.337-0.246 0.279-0.523 0.58-0.675 0.926-0.248 0.564-0.659 1.637 0.242 1.908 0.279 0.084 0.705-0.1 0.918 0.152 0.13 0.155 0.207 0.34 0.359 0.497 0.167 0.171 0.349 0.334 0.479 0.537 0.222 0.352 0.446 0.716 0.641 1.082 0.098 0.183 0.245 0.353 0.327 0.531 0.063 0.134 0.245 0.367 0.346 0.508 0.127 0.177 0.259 0.347 0.383 0.526 0.23 0.334 0.501 0.641 0.756 0.957 0.115 0.143 0.21 0.303 0.3 0.456 0.11 0.191 0.306 0.497 0.446 0.672 0.128 0.163 0.237 0.344 0.318 0.538 0.165 0.4 0.307 0.813 0.459 1.217 0.121 0.322 0.267 0.61 0.409 0.927 0.103 0.228 0.18 0.47 0.285 0.696 0.309 0.672 0.731 1.278 1.023 1.958 0.076 0.174 0.131 0.456 0.306 0.558 0.395 0.231 0.704 0.589 1.078 0.243 0.297-0.274 0.45-0.771 0.355-1.163-0.028-0.122-0.089-0.21-0.14-0.324-0.049-0.112-0.058-0.259-0.115-0.35 0.013-0.221-0.107-0.371-0.204-0.555-0.118-0.218-0.148-0.409-0.215-0.64-0.063-0.222-0.587-1.569-0.227-1.67 0.14 0.222 0.346 0.343 0.455 0.58 0.104 0.231 0.252 0.432 0.376 0.653 0.16 0.282 0.289 0.586 0.441 0.872 0.243 0.461 0.425 0.869 0.759 1.272 0.131 0.158 0.24 0.329 0.361 0.494 0.14 0.188 0.162 0.409 0.313 0.593 0.249 0.307 0.447 0.656 0.671 0.984 0.204 0.298 0.425 0.607 0.81 0.695 0.367 0.085 0.704-0.158 0.868-0.47 0.152-0.289 0.188-0.497 0.086-0.832-0.095-0.315-0.286-0.611-0.404-0.921-0.082-0.212-0.183-0.406-0.261-0.619-0.16-0.44-0.377-0.839-0.568-1.242-0.17-0.361-0.365-0.692-0.543-1.050-0.3-0.604-0.646-1.217-0.874-1.846-0.037-0.104-0.107-0.224-0.119-0.334 0.145 0.039 0.368 0.192 0.482 0.297 0.283 0.261 0.476 0.65 0.713 0.953 0.382 0.489 0.862 0.889 1.269 1.351 0.492 0.561 0.917 1.175 1.39 1.75 0.188 0.228 0.397 0.441 0.58 0.671 0.143 0.179 0.24 0.389 0.45 0.508 0.169 0.094 0.327 0.106 0.517 0.098 0.166-0.004 0.361-0.010 0.502-0.094 0.534-0.318 0.666-0.944 0.343-1.557-0.133-0.252-0.237-0.495-0.409-0.75-0.073-0.109-0.166-0.209-0.222-0.327-0.070-0.143-0.252-0.41-0.349-0.546-0.319-0.452-0.567-0.957-0.89-1.404-0.13-0.179-0.294-0.328-0.422-0.502-0.109-0.148-0.179-0.327-0.285-0.48-0.206-0.298-0.45-0.553-0.593-0.887-0.085-0.198-0.128-0.355-0.261-0.517-0.076-0.092-0.262-0.453-0.346-0.45-0.013 0.015-0.030-0.022-0.018 0.012-0.022-0.039-0.022-0.057-0.018-0.104 0.434-0.021 0.775 0.27 1.094 0.543 0.327 0.282 0.674 0.502 1.029 0.74 0.301 0.203 0.561 0.461 0.839 0.689 0.283 0.233 0.586 0.443 0.868 0.687 0.501 0.435 1.151 0.659 1.765 0.85 0.334 0.104 0.59-0.115 0.819-0.337 0.301-0.292 0.174-0.619-0.006-0.935z"></path>
</svg>
