<!-- Generated by IcoMoon.io -->
<svg version="1.1" xmlns="http://www.w3.org/2000/svg" width="18" height="32" viewBox="0 0 18 32">
<title>seal_e</title>
<path d="M1.264 16.896l0.032-0.096q0-0.064 0.016-0.144t0.016-0.144 0.016-0.096 0.016-0.096q0-0.192 0.016-0.368t0.048-0.368q0.352-0.8 0.368-1.712t-0.24-1.744q0.064-0.064 0.128-0.096 0.064 0 0.112-0.016t0.112-0.016h0.032l0.288 0.192q0.032 0.032 0.096 0.032 0.256 0.128 0.384 0.16l0.288 0.128h0.032l0.032 0.032q0.096 0.032 0.352 0.16 0.256 0.16 0.448 0.192 0.128 0.064 0.224 0.128 0.48 0.256 0.576 0.416t0.224 0.32q0.096 0.128-0.032 0.288 0.064 0 0.128 0.064 0.224 0.096 0.288 0.384-0.032 0.128-0.048 0.24t-0.048 0.272q-0.064 0.064-0.096 0.128t-0.096 0.16q0 0.064-0.064 0.128v0.064l-0.032 0.064q-0.064 0.096-0.080 0.208t-0.048 0.208v0.128q-0.032 0.032-0.032 0.064v0.512q0.256 0.672 0.656 1.104t1.136 0.592v0.032l0.864 0.128q-0.032-1.856-0.544-3.744v-0.224q-0.16-0.384-0.352-0.768t-0.352-0.768q-0.32-0.672-0.48-1.376t-0.224-1.44-0.064-1.44 0.032-1.44q0-0.16 0.032-0.256l0.512-1.536 0.32-0.384t0.384-0.352q0.288 0.064 0.416 0.224 0.128 0.064 0.384 0.128 0.896 0.352 1.632 0.896l0.064 0.064q0.288 0 0.448 0.288-0.064 0.16-0.128 0.336t-0.128 0.336q-0.32 0.832-0.352 1.632-0.064 0.448-0.048 0.912t0.176 0.912q0.096 0.16 0.192 0.192 0.064 0.32 0.128 0.512v0.288q0.576 1.632 0.896 3.216t0.48 3.28q0.256 0 0.512 0.016t0.512 0.016h0.032q0.192 0.064 0.448 0t0.432-0.272 0.24-0.464v-0.416l-0.064-0.192t-0.064-0.16l-0.064-0.096h-0.032q-0.096-0.288-0.224-0.544t-0.256-0.608l-0.896-2.144q-0.032 0-0.128-0.224-0.064-0.192-0.176-0.592t-0.336-1.168q-0.096-0.416-0.16-0.624t-0.128-0.56q-0.096-0.352-0.064-0.512t0.096-0.512q0-0.096 0.064-0.224 0.064 0 0.096-0.032l0.032-0.032q0.032 0 0.048-0.016t0.080-0.016l0.032 0.032q0.064-0.032 0.112-0.048t0.112-0.048q0.096 0.032 0.192 0 0.064 0 0.064 0.032l1.664 0.576q0.384 0.16 0.8 0.272t0.768 0.368q0.128 0.064 0.208 0.176t0.144 0.208q-0.064 0.192-0.128 0.368t-0.128 0.368q-0.032 0-0.048 0.016t-0.048 0.016q-0.256 0.192-0.432 0.464t-0.144 0.624v0.256q0.352 0.704 0.64 1.408t0.544 1.44l0.576 0.96t0.448 1.024q0.32 0.832 0.272 1.728t-0.624 1.632q-0.32 0.384-0.784 0.656t-0.976 0.432-1.056 0.224-1.024 0.064q-0.16 0.032-0.32 0.048t-0.32 0.016l-0.672 1.632q-0.128 0.352-0.288 0.72t-0.224 0.72q-0.032 0.16-0.032 0.336v0.336q0 0.064-0.032 0.096 0.064 0.256 0.096 0.48t-0.032 0.48q-0.928 0-2.128 0.128t-2.064 0.32q0.064-1.184 0.32-2.208 0-0.064 0.032-0.16t0.064-0.16l0.096-0.128q0.096-0.192 0.096-0.352 0.128-0.192 0.272-0.56t0.272-0.912q0.064-0.288 0.080-0.448t0.048-0.32h-1.568q-0.48-0.224-0.96-0.4t-0.992-0.336q-0.256-0.064-0.384-0.128-0.16-0.096-0.448-0.464t-0.576-0.8-0.512-0.88-0.288-0.672q-0.032-0.064-0.032-0.080t-0.032-0.080q-0.096-0.352-0.096-0.704-0.032-0.128-0.048-0.256t-0.048-0.256z"></path>
</svg>
