<!-- Generated by IcoMoon.io -->
<svg version="1.1" xmlns="http://www.w3.org/2000/svg" width="17" height="32" viewBox="0 0 17 32">
<title>seal_a</title>
<path d="M1.433 17.026q0.064-1.184 0.56-2.24t1.296-1.888q0.096-0.224 0.256-0.288 0.064-0.064 0.128-0.096t0.128-0.096l0.064-0.064q0.096-0.128 0.224-0.192t0.16-0.096l0.032-0.032q0-0.032 0.032-0.064 0.832-0.832 1.424-1.92t0.528-2.304q-0.032-0.608-0.192-1.248-0.032-0.128-0.032-0.32-0.032-0.16-0.064-0.304t-0.064-0.304q-0.064-0.256-0.224-0.576-0.064-0.128-0.128-0.192 1.024-0.032 2.016 0.192t2.016 0.352q0.064 0.192 0.128 0.4t0.064 0.464v0.16q0.128 0.096 0.16 0.256 0.224 0.864 0.064 1.728t-0.512 1.664q-0.16 0.32-0.288 0.64t-0.288 0.608q0.064 0.064 0.112 0.096t0.208 0.096q0.256 0.096 0.272 0.016t0.368-0.112h0.32t0.352 0.032q0.16 0 0.32 0.016t0.352 0.048q0.32 0.064 0.448 0.064 0.352-0.064 0.672-0.096t0.64-0.096q0.16-0.032 0.416 0.032h0.16q0.128-0.032 0.288-0.032h0.64t0.32 0.032q0.352 0.032 0.272 0.16t0.048 0.352q0.16 0.192 0.032 0.576-0.032 0.064-0.032 0.096t-0.032 0.096q0 0.192-0.096 0.352-0.448 1.024-1.104 1.36t-1.68 0.336q-0.672 0.032-1.28 0-1.088-0.064-2.16-0.208t-2.096-0.4q0 0.032-0.064 0.16-0.224-0.128-0.48-0.032-0.448 0.16-0.672 0.592t-0.352 0.88q-0.16 0.512-0.24 1.040t-0.048 1.072q0 0.736 0.32 1.376t0.848 1.152 1.168 0.896 1.28 0.576q0.032 0 0.16 0.064 0.224 0.096 0.432 0.176t0.432 0.112q0.16 0.032 0.288-0.032h0.032l0.192 0.096h0.032q0.704 0.256 1.28 0.512t1.024 0.624 0.752 0.88 0.464 1.28q-0.032 0.128-0.048 0.256t-0.048 0.256q-0.096 0.384-0.256 0.688t-0.48 0.496q-0.576-0.352-1.312-0.672-0.128-0.096-0.192-0.112t-0.16-0.080l-0.128-0.064q-0.256-0.064-0.384 0-1.344-0.544-2.64-1.136t-2.512-1.328q-0.832-0.512-1.568-1.136t-1.28-1.456q-0.64-0.928-0.912-2t-0.176-2.192zM8.313 17.698q0.096-0.608 0.576-1.088t1.12-0.576q0.256 0 0.352 0.032 0.064-0.032 0.144-0.032t0.144-0.032q0.544 0 1.040 0.336t0.688 0.848q0.288 0.64 0.064 1.152-0.032 0.064-0.048 0.128t-0.048 0.128q-0.064 0.288-0.208 0.56t-0.368 0.464q-0.576 0.576-1.376 0.576-0.256 0-0.496-0.064t-0.496-0.16q-0.64-0.288-0.912-0.944t-0.176-1.328z"></path>
</svg>
