<!-- Generated by IcoMoon.io -->
<svg version="1.1" xmlns="http://www.w3.org/2000/svg" width="20" height="32" viewBox="0 0 20 32">
<title>seal_c</title>
<path d="M2.152 17.026q0.672-0.928 1.696-1.504t2.144-0.736q0.288-0.064 0.592-0.112t0.656-0.048h1.392t1.2 0.016 1.216 0.016h1.536q0.032 0 0.256-0.016t0.48-0.032 0.496-0.032 0.272-0.016q0.096-0.032 0.416-0.048t0.416-0.080q0.064-0.032 0.144-0.016t0.24-0.016q0.128 0 0.192-0.032 0.544-0.192 1.056-0.544 0.096-0.032 0.16 0 0.128-0.128 0.224-0.16 0.064-0.064 0.096-0.16t0.096-0.16 0.144-0.16 0.144-0.16q0.256-0.128 0.56-0.032t0.368 0.416q0.16 0.832-0.064 1.632t-0.768 1.44l-0.224 0.224q-0.032 0.032-0.064 0.048t-0.064 0.048q-0.128 0.096-0.256 0.128-0.064 0.064-0.128 0.080t-0.128 0.080q-0.032 0-0.048 0.016t-0.080 0.016q-0.096 0.096-0.16 0.128-0.576 0.352-1.28 0.448t-1.376 0.096h-1.008t-0.976-0.032q-0.032 1.824 0.096 3.648 0.064 0.544 0.096 1.072t0.096 1.072q0.032 0.256 0.080 0.512t0.048 0.512l0.32 0.064h0.32l0.288-0.096q0.096-0.064 0.272-0.080t0.336-0.080q0.032-0.064 0.048-0.112t0.080-0.112 0.144-0.112 0.144-0.112q0.64-0.192 0.864-0.848t0.224-1.296q0-0.416-0.048-0.816t-0.112-0.816q0.16-0.096 0.32-0.288 0.352 0.032 0.736 0.048t0.736 0.016q0.288-0.032 0.576-0.032t0.576-0.064q0.16 0.096 0.272 0.176t0.208 0.24q0.064 0.768 0.144 1.552t0.048 1.552v0.448q-0.096 0.192-0.176 0.368t-0.208 0.336q-0.736 1.184-1.968 1.76t-2.576 0.672q-0.288 0.096-0.448 0.112t-0.304 0.016h-0.368t-0.64 0.064q-0.224 0.032-0.432 0.032t-0.464 0.032q-0.896 0-1.84-0.032t-1.808-0.256q-1.44-0.128-2.512-0.496t-1.808-1.056-1.136-1.712-0.56-2.464q-0.064-1.024 0.032-2.144t0.736-2.016zM5.512 22.754q0.16 0.448 0.4 0.736t0.624 0.544q0.16 0.096 0.336 0.144t0.336 0.144q0.096 0.064 0.224 0.096 0.256 0.064 0.576 0.064-0.032-0.192-0.032-0.384v-0.352q0-0.256-0.016-0.544t-0.016-0.544q-0.032-0.544-0.032-1.056v-2.448t0.032-1.424q-0.704 0-1.392 0.176t-1.264 0.624q-0.032 0.224-0.064 0.56t-0.048 0.64-0.048 0.576-0.032 0.4q-0.064 0.544 0.096 1.056t0.32 0.992zM4.296 11.778q0.096-0.8 0.704-1.472 0.128-0.256 0.256-0.352 0.032-0.064 0.16-0.128 0.128-0.128 0.224-0.192 0.064-0.064 0.192-0.128 0.064-0.064 0.256-0.128 0.064-0.064 0.208-0.080t0.208-0.016 0.128 0.016 0.128 0.016q0.064 0.032 0.224 0.032 0.256 0.032 0.448 0.256 0.16 0.16 0.384 0.256 0.256 0.224 0.384 0.448 0.32 0.256 0.448 0.608 0.128 0.32 0.080 0.656t-0.144 0.656-0.208 0.608-0.368 0.512q-0.288 0.288-0.704 0.432t-0.864 0.144q-0.544 0-1.024-0.208t-0.8-0.656q-0.192-0.256-0.272-0.592t-0.048-0.688zM7.592 5.666q0.224-0.416 0.64-0.624t0.864-0.24 0.832 0.144 0.736 0.432q0.672 0.512 0.96 1.312 0.16 0.448 0.064 0.928t-0.48 0.8q-0.352 0.32-0.832 0.448t-0.96 0.128q-0.448 0-0.88-0.128t-0.72-0.48q-0.192-0.256-0.336-0.608t-0.176-0.736 0.032-0.736 0.256-0.64zM11.368 9.986q0.16-0.32 0.512-0.32 0.608-0.352 1.312-0.192 0.736 0.128 1.152 0.832 0.16 0.16 0.288 0.336t0.192 0.4q0.192 0.512 0.112 1.040t-0.4 0.944q-0.48 0.512-1.056 0.608-0.544 0.064-1.088-0.096-1.184-0.32-1.44-1.472-0.128-0.544 0.016-1.072t0.4-1.008z"></path>
</svg>
