<!-- Generated by IcoMoon.io -->
<svg version="1.1" xmlns="http://www.w3.org/2000/svg" width="19" height="32" viewBox="0 0 19 32">
<title>seal_b</title>
<path d="M2.28 16.254q0.032-0.064 0.064-0.112t0.064-0.112q0.128-0.064 0.16-0.096 0.16-0.064 0.272-0.096t0.24-0.064h0.128q0.576-0.032 1.28 0.224 0.832 0.128 1.632 0.24t1.632 0.176q0.256 0 0.416 0.224h0.352q0.032 0 0.048 0.016t0.048 0.016l0.192 0.032q0.224 0 0.352-0.096 0.256 0.064 0.496 0.064h0.496q0.16 0 0.224-0.032h0.288t0.288-0.032q0.896 0 1.808-0.096t1.808-0.192h0.096q0.032-0.032 0.128-0.032 0.256 0.544 0.56 1.056t0.624 1.056q0 0.064-0.128 0.256-0.704 0.576-1.536 0.768t-1.696 0.224q-0.896 0.064-1.776 0.064t-1.776-0.032q-0.224 0.224-0.288 0.224-0.128 0.064-0.256 0.256t-0.224 0.288q-0.16 0.128-0.176 0.288t-0.112 0.32q-0.128 0.32-0.096 0.704 0 1.088 0.576 1.856l0.096 0.096q0.064 0 0.144-0.016t0.144-0.016q0.128 0.096 0.272 0.128t0.304 0.032q0.48 0 1.056-0.32 0.224-0.064 0.384-0.16 0.384-0.192 0.816-0.56t0.688-0.72q0.064-0.064 0.064-0.192 0.352-0.416 0.512-0.992 0-0.064 0.016-0.128t0.016-0.128q0.832-0.32 1.856-0.256 0.48 0.544 0.816 1.168t0.592 1.296q0 0.032-0.016 0.048t-0.016 0.048q-0.128 0.416-0.64 0.736-0.16 0.096-0.272 0.224t-0.272 0.256q-0.128 0.128-0.256 0.224t-0.288 0.256q-0.256 0.224-0.48 0.48t-0.512 0.416q-0.128 0.064-0.24 0.288t-0.24 0.256q-0.224 0.096-0.256 0.16t-0.224 0.128q-0.224 0.096-0.432 0.144t-0.432 0.112q-0.16 0.064-0.304 0.096t-0.304 0.096q-0.032 0-0.032 0.016t-0.032 0.016q-1.152 0.352-2.272 0.352-2.048 0-3.328-0.96t-1.632-2.976q-0.16-0.96-0.112-2.080t0.56-1.984q-0.672-0.096-1.328-0.256t-1.296-0.448q-0.192-0.032-0.256-0.256 0.128-0.512 0.4-1.024t0.528-0.96zM2.92 13.918q0.096-0.288 0.176-0.56t0.176-0.56q0.032 0.032 0.128 0.032l0.064-0.128q0.032-0.128 0.064-0.24t0.096-0.272q0-0.032 0.016-0.064t0.016-0.064l0.032-0.064q0.032-0.064 0.048-0.112t0.048-0.112q0.064-0.064 0.080-0.112t0.080-0.112v-0.032q0.064-0.064 0.096-0.128 0.032-0.032 0.064-0.048t0.064-0.048q1.568 0.416 3.216 0.752t3.28 0.336q0.48 0 0.976-0.032t0.976-0.128q-0.032-0.064-0.032-0.128 0.096-0.032 0.224-0.096 0.288 0 0.512-0.096 0.32-0.096 0.576-0.352h0.032q0.096-0.096 0.192-0.176t0.16-0.176q0.064-0.128 0.096-0.288l0.064-0.32q0.16-0.48 0.16-0.896 0-0.064-0.032-0.096 0-0.416-0.128-0.672t-0.416-0.544q-0.16-0.192-0.336-0.352t-0.4-0.288q-0.224-0.096-0.448-0.144t-0.48-0.112-0.48-0.096-0.48-0.032q-0.16-0.032-0.32-0.032h-0.32q-0.064 0.128-0.144 0.272t-0.144 0.24q-0.032 0.096-0.064 0.208t-0.064 0.24q-0.032 0.064-0.032 0.128t-0.032 0.128v0.096q-0.064 0.544-0.032 1.056t0.096 1.024q-0.864 0.064-1.76-0.080t-1.728-0.304h-0.096q-0.064-0.064-0.064-0.096-0.032-0.256-0.064-0.496t0-0.496q0-0.224 0.064-0.432t0.096-0.432q0.032-0.192 0.080-0.592t0.048-0.592q0.032-0.032 0.032-0.096 0.064-0.192 0.080-0.384t0.016-0.384q0-0.256 0.048-0.528t0.112-0.528q0.032 0 0.096-0.064 0.288-0.224 0.48-0.272t0.512-0.016h0.032q0.16-0.096 0.32-0.096 2.784-0.16 5.472 0.576 1.216 0.352 1.888 0.992t1.184 1.76q0.256 0.544 0.416 1.104t0.128 1.136q0.032 1.6-0.928 2.896t-2.528 1.744q-1.024 0.288-2.096 0.272t-2.096-0.080q-0.928-0.064-1.872-0.192t-1.84-0.352q-0.064 0-0.144-0.016t-0.176-0.016h-0.32q-0.128 0-0.272-0.064t-0.304-0.128q-0.128-0.032-0.224-0.048t-0.224-0.048q-0.256 0-0.416-0.096-0.352-0.064-0.688-0.16t-0.688-0.192z"></path>
</svg>
