<!-- Generated by IcoMoon.io -->
<svg version="1.1" xmlns="http://www.w3.org/2000/svg" width="32" height="32" viewBox="0 0 32 32">
<title>secrets_of_the_universe</title>
<path d="M15.834 8.983c-0.039 0.185-0.088 0.369-0.132 0.553-0.045 0.188-0.043 0.334-0.052 0.522-0.007 0.189-0.113 0.348-0.142 0.533-0.033 0.204 0.003 0.404-0.044 0.608-0.048 0.213-0.062 0.441-0.133 0.647-0.065 0.186-0.127 0.373-0.192 0.561-0.058 0.164-0.084 0.352-0.113 0.524-0.039 0.24-0.044 0.491-0.044 0.734 0 0.194 0.022 0.401-0.026 0.592-0.048 0.188-0.072 0.371-0.135 0.554-0.079 0.23-0.114 0.482-0.153 0.721-0.022 0.137-0.052 0.259-0.095 0.391-0.037 0.114-0.026 0.221-0.043 0.338-0.029 0.211-0.101 0.413-0.133 0.624-0.018 0.12 0.001 0.238-0.004 0.359-0.007 0.14-0.033 0.275-0.037 0.416-0.007 0.229-0.044 0.482-0.084 0.707-0.039 0.218-0.018 0.438-0.065 0.656-0.058 0.282 0.004 0.567-0.045 0.848-0.037 0.204-0.052 0.395-0.063 0.603-0.007 0.118-0.043 0.224-0.040 0.343 0.001 0.054 0.007 0.116-0.007 0.17-0.004 0.018-0.039 0.059-0.033 0.081 0.043 0.153 0.34-0.263 0.37-0.29 0.056 0.172-0.117 0.359-0.182 0.505-0.045 0.101-0.058 0.208-0.109 0.301-0.033 0.061-0.088 0.092-0.123 0.146-0.061 0.095-0.098 0.277-0.1 0.386-0.004 0.14-0.026 0.237-0.045 0.373-0.059 0.365-0.105 0.729-0.176 1.092l0.037-0.665c0-0.312-0.037-0.614-0.037-0.924 0.001-0.349-0.011-0.699 0.001-1.049 0.015-0.413 0.084-0.831 0.155-1.24 0.058-0.338 0.093-0.681 0.159-1.016 0.073-0.364 0.149-0.726 0.203-1.091 0.037-0.232 0.026-0.466 0.061-0.698 0.026-0.171 0.092-0.325 0.125-0.494 0.083-0.413 0.052-0.83 0.092-1.247 0.037-0.384 0.113-0.764 0.164-1.147 0.045-0.338 0.097-0.669 0.17-1.001 0.067-0.316 0.146-0.621 0.238-0.929 0.074-0.243 0.18-0.496 0.22-0.746 0.044-0.285 0.085-0.567 0.147-0.848 0.065-0.296 0.144-0.581 0.168-0.884 0.022-0.265 0.033-0.528 0.13-0.779 0.062-0.164 0.132-0.326 0.197-0.491 0.111 0.026-0.029 0.573-0.048 0.652zM20.051 2.316c-0.083-0.136-0.127-0.144-0.263-0.186-0.116-0.037-0.209-0.113-0.281-0.215-0.049-0.070-0.084-0.236-0.188-0.242-0.029 0.095 0.015 0.212-0.003 0.309-0.029 0.145-0.145 0.301-0.216 0.432-0.209 0.386-0.438 0.764-0.669 1.138-0.088 0.141-0.23 0.316-0.262 0.496 0.001 0.049 0.003 0.097 0 0.145-0.011-0.048-0.007-0.097 0-0.145-0.015-0.272-0.085-0.55-0.007-0.809 0.146-0.475 0.125-0.984 0.27-1.459 0.061-0.189 0.14-0.37 0.237-0.544 0.051-0.070 0.069-0.145 0.053-0.225-0.044-0.022-0.101-0.004-0.145 0.004-0.079 0.015-0.141 0.026-0.225 0.026-0.083 0.003-0.142 0.022-0.219 0.048-0.092 0.029-0.186 0.044-0.282 0.062-0.41 0.079-0.866 0.216-1.226 0.434-0.136 0.083-0.196 0.223-0.318 0.313-0.059 0.044-0.104 0.054-0.174 0.076-0.273 0.088-0.386 0.301-0.482 0.55-0.138 0.364-0.374 0.673-0.633 0.958-0.298 0.33-0.311 0.775-0.559 1.125-0.124 0.173-0.225 0.328-0.322 0.519-0.093 0.186-0.204 0.357-0.318 0.531-0.296 0.452-0.526 0.953-0.786 1.426-0.132 0.24-0.268 0.476-0.347 0.74-0.083 0.276-0.113 0.526-0.106 0.812 0.004 0.232 0 0.454-0.056 0.68-0.073 0.287-0.28 0.504-0.399 0.769-0.1 0.223-0.208 0.45-0.294 0.68-0.114 0.304-0.056 0.649-0.1 0.966-0.057 0.412-0.19 0.8-0.189 1.218 0.001 0.295 0.037 0.573 0.074 0.865 0.011 0.093 0.033 0.145 0.079 0.23 0.125 0.237 0.252 0.462 0.351 0.713 0.093 0.241 0.198 0.485 0.162 0.749-0.018 0.135-0.058 0.268-0.082 0.403-0.026-0.037-0.039-0.080-0.033-0.13-0.033-0.135-0.075-0.268-0.124-0.399-0.076-0.258-0.106-0.523-0.241-0.76-0.088-0.154-0.167-0.317-0.263-0.467-0.040-0.065-0.087-0.164-0.176-0.164-0.015-0.048 0-0.093-0.015-0.141-0.192 0.007-0.079 0.448-0.062 0.513 0.058 0.213 0.141 0.409 0.145 0.633 0.004 0.152 0.004 0.289 0.029 0.44 0.057 0.34 0.122 0.682 0.186 1.021 0.054 0.291 0.184 0.57 0.221 0.863 0.018 0.153 0 0.311 0.011 0.465 0.018 0.232 0.044 0.454 0.108 0.677 0.066 0.237 0.096 0.47 0.142 0.708 0.047 0.24 0.146 0.452 0.154 0.699 0.004 0.157-0.003 0.309-0.029 0.463-0.026 0.147-0.087 0.281-0.116 0.425-0.033 0.164-0.039 0.355-0.044 0.522-0.007 0.192-0.015 0.397 0.033 0.584 0.045 0.171 0.133 0.297 0.226 0.44 0.084 0.13 0.157 0.265 0.24 0.396 0.097 0.152 0.157 0.326 0.258 0.476 0.1 0.145 0.254 0.276 0.248 0.47-0.001 0.058-0.022 0.104-0.041 0.157-0.029 0.083-0.022 0.102-0.111 0.113-0.026-0.007-0.052-0.007-0.076 0.004-0.022 0.026-0.037 0.057-0.043 0.092-0.051 0.037-0.152 0.015-0.214 0.015-0.137 0.001-0.241-0.033-0.371-0.076-0.145-0.048-0.255-0.037-0.403-0.007-0.122 0.022-0.186 0.049-0.154 0.193 0.015 0.059 0.037 0.084 0.033 0.145-0.022 0.037-0.033 0.075-0.040 0.116-0.015 0.074-0.026 0.149-0.037 0.223-0.033 0.201-0.066 0.425-0.139 0.615-0.039 0.104-0.128 0.176-0.153 0.281-0.037 0.152-0.078 0.394-0.029 0.546 0.123-0.018 0.286-0.263 0.387-0.333 0.092-0.065 0.193-0.1 0.232-0.21 0.061-0.172 0.080-0.39 0.12-0.568 0.039-0.172 0.003-0.352 0.040-0.518 0.056-0.022 0.14 0.033 0.198 0.037 0.066 0.004 0.131-0.007 0.196-0.001 0.067 0.18 0.144 0.355 0.214 0.535 0.037 0.097 0.11 0.188 0.13 0.286 0.026 0.119-0.022 0.159 0.11 0.177 0.096 0.015 0.080 0.058 0.149 0.133 0.047 0.052 0.066 0.053 0.074 0.125 0.004 0.051 0.011 0.135 0 0.185-0.029 0.166-0.096 0.331-0.131 0.498-0.037 0.17-0.079 0.329-0.097 0.502-0.018 0.19-0.061 0.384-0.106 0.571-0.040 0.166-0.087 0.327-0.125 0.494-0.041 0.182-0.063 0.37-0.105 0.553-0.102 0.445-0.174 0.898-0.289 1.342-0.097 0.378-0.197 0.783-0.373 1.134 0.11-0.108 0.186-0.232 0.27-0.357 0.073-0.111 0.158-0.174 0.259-0.256 0.095-0.076 0.161-0.181 0.255-0.26 0.089-0.075 0.224-0.073 0.3-0.146s0.116-0.207 0.167-0.299c0.052-0.092 0.037-0.167 0.054-0.265 0.022-0.139 0.085-0.306 0.149-0.431 0.073-0.141 0.141-0.25 0.168-0.422 0.004-0.092 0.018-0.182 0.043-0.272 0.037-0.075 0.067-0.15 0.097-0.226 0.051-0.163 0.076-0.346 0.106-0.513 0.039-0.225 0.067-0.428 0.059-0.658-0.004-0.13-0.067-0.258-0.029-0.388 0.018-0.057 0.057-0.106 0.078-0.163 0.026-0.073 0.018-0.142 0.037-0.216s0.057-0.123 0.111-0.175c0.051-0.048 0.065-0.101 0.111-0.147 0.066-0.066 0.127-0.052 0.14-0.157 0.004-0.040-0.015-0.093-0.003-0.132 0.018-0.065 0.007-0.040 0.075-0.054 0.074-0.015 0.082 0.004 0.113-0.071 0.022-0.057 0.026-0.125 0.043-0.185 0.109 0.004 0.157 0.137 0.25 0.176 0.056 0.022 0.113-0.004 0.168 0.007 0.098 0.022 0.228 0.155 0.299 0.208 0.175 0.132 0.338 0.226 0.537 0.317 0.304 0.137 0.605 0.282 0.911 0.41 0.325 0.136 0.668 0.262 1.017 0.311-0.003-0.001 0.294 0.058 0.321-0.007 0.026-0.063-0.094-0.207-0.132-0.26-0.108-0.152-0.247-0.26-0.384-0.382-0.192-0.17-0.381-0.34-0.573-0.509-0.149-0.128-0.292-0.278-0.46-0.384-0.12-0.076-0.162-0.114-0.301-0.113-0.202 0.003-0.423 0.079-0.623 0.029 0.022-0.056 0.101-0.081 0.153-0.111 0.096-0.054 0.189-0.11 0.287-0.158 0.128-0.063 0.269-0.080 0.392-0.147 0.065-0.037 0.135-0.062 0.198-0.098 0.015-0.101-0.109-0.214-0.141-0.307-0.039-0.109-0.063-0.095-0.18-0.095-0.070 0-0.124 0.018-0.186 0.029-0.001 0.022-0.004 0.044-0.004 0.066 0 0.047-0.001 0.093-0.003 0.14-0.007-0.004-0.015-0.007-0.018-0.011l0.026-0.194c-0.015 0.003-0.022 0.007-0.037 0.007-0.062 0.007-0.13-0.004-0.193-0.003-0.1 0.003-0.104 0.049-0.166 0.113-0.066 0.065-0.157 0.062-0.241 0.093-0.213 0.080-0.431 0.172-0.637 0.269-0.079 0.037-0.188 0.109-0.277 0.075 0.215-0.322 0.502-0.588 0.617-0.964 0.137-0.454 0.375-0.862 0.537-1.306 0.079-0.218 0.247-0.343 0.351-0.541 0.091-0.176 0.070-0.365 0.108-0.557 0.067-0.338 0.185-0.658 0.281-0.988 0.088-0.307 0.252-0.598 0.379-0.889 0.080-0.184 0.218-0.33 0.302-0.511 0.057-0.122 0.070-0.263 0.095-0.393 0.033-0.177 0.083-0.351 0.123-0.527 0.059-0.264 0.131-0.5 0.258-0.742 0.079-0.146 0.176-0.285 0.22-0.448 0.033-0.123 0.015-0.258 0.011-0.383 0-0.11-0.001-0.193-0.029-0.292-0.015-0.045-0.015-0.085-0.007-0.124-0.083 0.089-0.174 0.17-0.263 0.251-0.146 0.133-0.28 0.281-0.439 0.399-0.158 0.118-0.285 0.24-0.409 0.391-0.198 0.24-0.44 0.457-0.672 0.661 0.056-0.098 0.118-0.19 0.15-0.299 0.043-0.145 0.109-0.203 0.208-0.317 0.044-0.051 0.066-0.115 0.109-0.166 0.033-0.040 0.081-0.062 0.119-0.098 0.119-0.114 0.202-0.267 0.306-0.393 0.325-0.395 0.796-0.676 1.055-1.117 0.037-0.061 0.075-0.119 0.115-0.176 0.041-0.085 0.087-0.17 0.133-0.236 0.040-0.054 0.094-0.092 0.133-0.15 0.045-0.069 0.078-0.161 0.111-0.237 0.091-0.202 0.141-0.349 0.295-0.519 0.149-0.166 0.287-0.33 0.373-0.541 0.098-0.242 0.114-0.514 0.144-0.77 0.022-0.19 0.026-0.426 0.13-0.594 0.076-0.125 0.137-0.101 0.141-0.252 0.007-0.208-0.049-0.43-0.084-0.636-0.037-0.199-0.076-0.396-0.101-0.597-0.022-0.189-0.078-0.365-0.076-0.555 0-0.182 0.007-0.377 0.059-0.553 0.053-0.18 0.13-0.277 0.127-0.47-0.003-0.199-0.007-0.399-0.003-0.598 0.007-0.252 0.029-0.536 0.118-0.774 0.080-0.219 0.19-0.422 0.284-0.634 0.106-0.243 0.223-0.474 0.36-0.702 0.102-0.17 0.162-0.344 0.247-0.519 0.080-0.162 0.181-0.295 0.236-0.471 0.058-0.189 0.061-0.384 0.056-0.58-0.026-0.837-0.321-1.613-0.681-2.36l-0.026-0.029c0-0.007-0.001-0.015-0.001-0.026 0.007 0.018 0.018 0.037 0.026 0.054l0.827 1.043c-0.273-0.372-0.546-0.739-0.783-1.134z"></path>
</svg>
