<!-- Generated by IcoMoon.io -->
<svg version="1.1" xmlns="http://www.w3.org/2000/svg" width="36" height="32" viewBox="0 0 36 32">
<title>secret_doors</title>
<path d="M26.565 31.504c-0.009 0-0.019 0-0.027 0 0.088 0.016 0.085-0.009 0.118-0.069 0.129-0.225 0.098-0.592 0.117-0.841 0.019-0.261 0.050-0.524 0.050-0.787 0-0.372-0.076-0.732-0.15-1.094-0.195-0.951-0.356-1.908-0.441-2.876-0.076-0.844-0.162-1.689-0.167-2.536-0.003-0.782-0.046-1.559-0.074-2.339-0.028-0.8-0.025-1.608 0-2.407 0.028-0.844 0.123-1.681 0.12-2.527-0.015-3.026-0.003-6.050-0.003-9.076 0-0.861 0.047-1.74-0.007-2.601-0.019-0.287-0.077-0.557-0.079-0.845-0.001-0.179 0.001-0.359 0.003-0.537 0-0.189 0.044-0.436-0.008-0.617-0.041 0.004-0.123-0.031-0.157-0.050-0.091-0.052-0.096-0.074-0.206-0.076-0.136-0.001-0.28-0.017-0.414 0.008-0.169 0.030-0.28 0.082-0.46 0.080-0.164-0.001-0.329-0.020-0.493-0.035-0.452-0.038-0.904-0.083-1.354-0.137-0.424-0.050-0.847-0.042-1.272-0.072-0.609-0.046-1.234-0.010-1.847-0.010-0.357-0.001-0.71-0.022-1.066-0.038-0.422-0.021-0.845-0.005-1.266-0.005-0.441 0-0.904-0.044-1.34 0.023-0.335 0.054-0.672 0.093-1.009 0.121-0.866 0.076-1.727 0.186-2.593 0.25-0.421 0.033-0.841 0.030-1.26 0.082-0.192 0.025-0.409 0.039-0.593 0.105 0.247-0.009 0.488 0.043 0.735 0.041 0.222-0.001 0.444 0.008 0.664-0.022 0.271-0.038 0.53 0.007 0.803 0.017 0.354 0.016 0.708-0.003 1.063 0.001 0.449 0.007 0.897 0.036 1.348 0.042 0.436 0.007 0.871 0.044 1.31 0.044 0.477-0.001 0.954-0.001 1.431-0.001 0.409 0 0.819 0 1.228-0.001 0.348-0.001 0.696 0.035 1.044 0.049 0.499 0.019 0.99 0.077 1.491 0.077 0.507 0 1.008-0.001 1.51 0.082 0.29 0.047 0.579 0.142 0.871 0.165 0.128 0.012 0.263-0.019 0.387 0.007 0.003 0.061-0.063 0.136-0.083 0.195-0.055 0.161-0.071 0.351-0.080 0.518-0.013 0.238 0.025 0.471 0.057 0.704 0.061 0.449 0.142 0.886 0.233 1.33 0.076 0.365 0.151 0.735 0.189 1.107 0.036 0.346 0.053 0.691 0.101 1.036 0.090 0.661 0.121 1.329 0.176 1.993 0.055 0.66 0.129 1.318 0.167 1.98 0.046 0.803 0.132 1.604 0.15 2.41 0.017 0.855 0.129 1.7 0.162 2.554 0.025 0.652 0.010 1.308 0.010 1.96-0.003 1.351 0.109 2.708 0.035 4.059-0.031 0.57-0.176 1.13-0.2 1.702-0.020 0.54-0.019 1.097 0.028 1.634 0.101 1.154 0.241 2.3 0.427 3.445 0.123 0.759 0.246 1.527 0.424 2.275 0.025-0.016 0.047-0.028 0.198-0.498z"></path>
<path d="M10.349 3.426c0.022 0 0.036-0.009 0.044-0.027-0.003 0.178 0.046 0.373 0.065 0.553 0.063 0.597 0.058 1.192 0.058 1.792-0.001 0.778-0.015 1.556 0.036 2.332 0.053 0.83 0.135 1.653 0.261 2.475 0.261 1.711 0.576 3.41 0.864 5.117 0.265 1.56 0.425 3.135 0.617 4.704 0.159 1.291 0.211 2.596 0.211 3.895 0 0.556 0.005 1.105-0.041 1.659-0.042 0.509-0.11 1.020-0.121 1.53-0.010 0.455-0.053 0.901-0.087 1.354-0.038 0.515-0.068 1.050-0.197 1.551-0.066 0.255-0.164 0.498-0.22 0.757-0.035 0.16-0.057 0.32-0.082 0.482-0.012 0.061-0.012 0.142-0.052 0.194-0.046-0.013-0.058-0.397-0.061-0.427-0.053-0.464 0.028-0.929 0.033-1.39 0.005-0.434 0.015-0.874-0.012-1.307-0.039-0.707-0.039-1.414-0.085-2.122-0.102-1.576-0.095-3.161-0.351-4.723-0.151-0.919-0.261-1.834-0.364-2.762-0.087-0.765-0.17-1.532-0.228-2.302-0.050-0.671-0.104-1.337-0.123-2.009-0.022-0.757-0.16-1.505-0.2-2.259-0.019-0.338-0.010-0.674-0.047-1.011-0.038-0.348-0.090-0.693-0.127-1.041-0.094-0.856-0.097-1.713-0.154-2.571-0.074-1.135-0.052-2.272-0.052-3.41 0-0.302 0-0.606 0-0.908 0-0.109-0.019-0.241 0.007-0.348 0.019-0.083 0.072-0.146 0.086-0.231 0.068 0.016 0.013 0.113 0.028 0.165 0.017 0.054 0.074 0.066 0.293 0.288z"></path>
<path d="M31.872 11.887c-0.066-0.001-0.107 0.001-0.164-0.019-0.087-0.031-0.162-0.105-0.244-0.146-0.356-0.179-0.721-0.184-1.104-0.247-0.329-0.055-0.633-0.088-0.968-0.085-0.301 0.004-0.597-0.033-0.897-0.044-0.275-0.012-0.52 0.058-0.79 0.102-0.316 0.052-0.633 0.066-0.931 0.194-1.056 0.452-2.168 0.729-3.257 1.085-0.638 0.208-1.304 0.415-1.97 0.505-0.675 0.091-1.349 0.105-2.029 0.107-0.932 0.004-1.892-0.293-2.779-0.571-1.052-0.331-2.065-0.776-3.119-1.105-0.508-0.159-1.030-0.205-1.549-0.315-0.346-0.074-0.698-0.086-1.050-0.123-0.364-0.036-0.705-0.086-1.070-0.083-0.419 0.001-0.852-0.023-1.266 0.049-0.466 0.083-0.894 0.353-1.345 0.49-0.258 0.077-0.499 0.208-0.735 0.334-0.205 0.109-0.427 0.167-0.642 0.247-0.348 0.127-0.674 0.19-1.047 0.168-0.294-0.017-0.623-0.164-0.833-0.373-0.041-0.042-0.065-0.099-0.101-0.143-0.038-0.046-0.095-0.079-0.123-0.129-0.028-0.047-0.049-0.15 0.004-0.189-0.071 0.005-0.115-0.007-0.17 0.039-0.109 0.090-0.146 0.324-0.189 0.45-0.050 0.148-0.104 0.353-0.085 0.512 0.020 0.19 0.187 0.222 0.283 0.365-0.058 0.016-0.14 0.012-0.197-0.005-0.105-0.028-0.211-0.053-0.328-0.035-0.335 0.053-0.425 0.402-0.545 0.676-0.14 0.32-0.138 0.639-0.124 0.978 0.008 0.202 0.075 0.368 0.165 0.548 0.074 0.146 0.195 0.29 0.253 0.444-0.012-0.131-0.031-0.318 0.031-0.434 0.068-0.126 0.187-0.228 0.266-0.35 0.105-0.164 0.195-0.315 0.338-0.449 0.268-0.247 0.586-0.461 0.912-0.623 0.242-0.121 0.521-0.179 0.774-0.278 0.263-0.101 0.52-0.206 0.79-0.285 0.51-0.146 1-0.299 1.525-0.384 0.539-0.087 1.089-0.162 1.636-0.172 0.54-0.012 1.101-0.030 1.637 0.030 0.202 0.023 0.39 0.068 0.587 0.116 0.288 0.069 0.581 0.117 0.869 0.186 0.6 0.145 1.176 0.373 1.759 0.578 0.668 0.236 1.321 0.516 1.99 0.748 0.507 0.175 1.014 0.275 1.541 0.375 0.337 0.063 0.666 0.142 1.008 0.179 0.414 0.046 0.828 0.090 1.244 0.129 0.389 0.038 0.778 0.024 1.167 0.024 0.38 0 0.764 0.015 1.141-0.003 0.592-0.027 1.25-0.027 1.809-0.235 0.246-0.090 0.497-0.153 0.746-0.238 0.208-0.071 0.408-0.16 0.622-0.209 0.238-0.055 0.474-0.107 0.71-0.167 0.232-0.058 0.463-0.066 0.699-0.091 0.389-0.041 0.822-0.124 1.195 0.030 0.179 0.076 0.401 0.168 0.463 0.362 0.052 0.164 0.15 0.343 0.020 0.493-0.080 0.093-0.2 0.254-0.312 0.313-0.082 0.044-0.131 0.046-0.191 0.121 0.061-0.007 0.134 0.031 0.194 0.047 0.205 0.053 0.408 0.127 0.62 0.151 0.236 0.027 0.494 0.017 0.734 0.008 0.169-0.005 0.348-0.027 0.493-0.121 0.142-0.091 0.249-0.238 0.351-0.368 0.101-0.126 0.213-0.263 0.243-0.427 0.046-0.236 0.020-0.535-0.107-0.738-0.154-0.249-0.453-0.509-0.721-0.628-0.197-0.088-0.414-0.167-0.631-0.17-0.186-0.001-0.357 0.038-0.526-0.066-0.242-0.15 0.115-0.291 0.247-0.343 0.176-0.072 0.329-0.178 0.523-0.203 0.224-0.028 0.458-0.004 0.683-0.007 0.186-0.001 0.343 0.024 0.52 0.082 0.159 0.055 0.288 0.15 0.439 0.22 0.351 0.167 0.757 0.276 1.145 0.282 0.225 0.005 0.491 0.036 0.705-0.047 0.157-0.061 0.412-0.183 0.504-0.332 0.101-0.165 0.129-0.386 0.224-0.56 0.077-0.145 0.131-0.249 0.117-0.417-0.005-0.065-0.197-0.65-0.288-0.548-0.027 0.030-0.025 0.173-0.044 0.217-0.063 0.154-0.145 0.305-0.275 0.411-0.211 0.167-0.394 0.214-0.652 0.249-0.192 0.025-0.381 0.093-0.578 0.077-0.22-0.016-0.452-0.129-0.666-0.184-0.134-0.041-0.271-0.069-0.411-0.085-0.093 0-0.146 0.047-0.16 0.14z"></path>
<path d="M29.717 20.389c0.001-0.121 0.003-0.224 0.165-0.161 0.060 0.025 0.118 0.109 0.154 0.158 0.057 0.072 0.145 0.175 0.173 0.261 0.028 0.090 0.008 0.216 0.007 0.31-0.003 0.138-0.013 0.263-0.080 0.389-0.145 0.268-0.498 0.453-0.776 0.537-0.216 0.066-0.417 0.085-0.639 0.082-0.183-0.001-0.372 0.030-0.543-0.047-0.206-0.091-0.431-0.312-0.453-0.545-0.017-0.187 0.003-0.268 0.169-0.351 0.124-0.063 0.239-0.017 0.359-0.060-0.082-0.071-0.143-0.071-0.244-0.105-0.090-0.031-0.161-0.047-0.255-0.053-0.109-0.005-0.208-0.043-0.316-0.044-0.191-0.005-0.227 0.077-0.318 0.209-0.047 0.068-0.126 0.098-0.173 0.167-0.044 0.068-0.052 0.134-0.118 0.189-0.069 0.055-0.157 0.085-0.239 0.11-0.083 0.028-0.159 0.087-0.239 0.11-0.098 0.028-0.231 0.007-0.331 0.007-0.119 0-0.246 0.013-0.364 0.004-0.206-0.017-0.438-0.129-0.628-0.209-0.151-0.063-0.31-0.125-0.468-0.164-0.187-0.046-0.345-0.128-0.527-0.187-0.354-0.116-0.716-0.206-1.075-0.315-0.397-0.12-0.784-0.211-1.201-0.208-0.307 0.003-0.614 0.001-0.919 0.001-0.304 0-0.612-0.033-0.904 0.055-0.242 0.074-0.472 0.162-0.707 0.255-0.227 0.091-0.428 0.202-0.644 0.313-0.091 0.047-0.178 0.088-0.258 0.153-0.057 0.046-0.113 0.099-0.176 0.137-0.137 0.085-0.271 0.105-0.424 0.132-0.194 0.035-0.383 0.036-0.581 0.033-0.227-0.005-0.439-0.117-0.614-0.26-0.283-0.235-0.611-0.45-0.953-0.592-0.282-0.116-0.578-0.222-0.877-0.285-0.129-0.028-0.323-0.065-0.45-0.017 0.020 0.049 0.091 0.082 0.137 0.11 0.16 0.102 0.309 0.209 0.447 0.338 0.162 0.153 0.255 0.28 0.246 0.507-0.005 0.151-0.020 0.238-0.172 0.271-0.261 0.057-0.582 0.008-0.845 0.012-0.156 0.001-0.287 0.005-0.435-0.041-0.202-0.061-0.405-0.068-0.604-0.121-0.197-0.055-0.383-0.172-0.575-0.244-0.17-0.063-0.345-0.118-0.513-0.186-0.225-0.091-0.436-0.184-0.675-0.241-0.198-0.046-0.398-0.12-0.605-0.124-0.164-0.005-0.329 0.001-0.491 0.001-0.208 0-0.431-0.025-0.636 0.008-0.086 0.022-0.173 0.044-0.258 0.068-0.069 0.005-0.138 0.010-0.208 0.015-0.090 0.022-0.165 0.085-0.257 0.11-0.107 0.028-0.216 0.044-0.318 0.088-0.132 0.057-0.249 0.145-0.376 0.211-0.716 0.371-1.466 0.655-2.273 0.737-0.146 0.016-0.324 0.033-0.471 0-0.096-0.020-0.102-0.042-0.156-0.113-0.101-0.135-0.255-0.252-0.326-0.405-0.058-0.126-0.047-0.254-0.050-0.386 0-0.072-0.012-0.087 0.039-0.125 0.030-0.024 0.118-0.044 0.156-0.043-0.121 0.004-0.247 0.012-0.37-0.008-0.258-0.039-0.464-0.033-0.719 0.025-0.172 0.038-0.335 0.049-0.472 0.168-0.105 0.093-0.197 0.225-0.252 0.354-0.044 0.101-0.085 0.227-0.115 0.332-0.019 0.066-0.022 0.176 0 0.241 0.028 0.076 0.127 0.146 0.17 0.214 0.049 0.079 0.061 0.15 0.138 0.211-0.135 0.013-0.266-0.057-0.406-0.047-0.243 0.017-0.405 0.195-0.542 0.373-0.345 0.45-0.559 1.045-0.269 1.579 0.050-0.016 0.019-0.043 0.027-0.090 0.016-0.099 0.039-0.126 0.123-0.189 0.178-0.134 0.32-0.31 0.51-0.43 0.283-0.178 0.595-0.25 0.916-0.331 0.253-0.063 0.562-0.069 0.818-0.030 0.208 0.031 0.409 0.112 0.62 0.118 0.315 0.009 0.63 0.001 0.94-0.044 0.365-0.052 0.721-0.099 1.083-0.167 0.205-0.036 0.414-0.066 0.611-0.129 0.227-0.072 0.43-0.195 0.658-0.261 0.402-0.113 0.806-0.206 1.212-0.304 0.431-0.104 0.856-0.132 1.297-0.165 0.871-0.063 1.788-0.113 2.623 0.206 0.523 0.202 1.049 0.438 1.609 0.521 0.308 0.047 0.62 0.082 0.929 0.126 0.236 0.033 0.49 0.008 0.727 0.008 0.31-0.001 0.619-0.001 0.929 0 0.406 0.001 0.773-0.028 1.17-0.134 0.375-0.099 0.738-0.206 1.101-0.343 0.491-0.184 1.006-0.48 1.543-0.479 0.178 0 0.477-0.013 0.619 0.124 0.083 0.080 0.085 0.231 0.11 0.334 0.035 0.146 0.095 0.26-0.009 0.39-0.047 0.058-0.236 0.189-0.156 0.279 0.039 0.042 0.387-0.068 0.427-0.087 0.074-0.035 0.15-0.099 0.209-0.154 0.091-0.088 0.083-0.153 0.080-0.274-0.005-0.139-0.050-0.282 0.076-0.354 0.172-0.099 0.468-0.104 0.66-0.094 0.145 0.008 0.283 0.042 0.43 0.046 0.187 0.005 0.351-0.003 0.535 0.038 0.294 0.065 0.578 0.165 0.874 0.231 0.329 0.072 0.614 0.236 0.924 0.362 0.338 0.137 0.694 0.345 1.058 0.4 0.184 0.027 0.378 0 0.565 0.015s0.368 0.041 0.559 0.036c0.189-0.005 0.364-0.044 0.548-0.087 0.244-0.057 0.512-0.050 0.748-0.131 0.121-0.039 0.247-0.096 0.361-0.151 0.15-0.072 0.316-0.148 0.458-0.233 0.205-0.123 0.409-0.304 0.499-0.529 0.094-0.244 0.162-0.458 0.101-0.719-0.050-0.214-0.172-0.447-0.274-0.642-0.104-0.2-0.354-0.438-0.535-0.573-0.441-0.327-0.962-0.134-1.45-0.297z"></path>
<path d="M19.597 6.661c0.082 0.027 0.213-0.124 0.283-0.164 0.373-0.2 0.705-0.384 1.132-0.465 0.389-0.074 0.772-0.065 1.165-0.088 0.258-0.015 0.517-0.035 0.778-0.036 0.688-0.009 1.266 0.209 1.885 0.479 0.235 0.101 0.475 0.176 0.715 0.263 0.242 0.090 0.469 0.213 0.712 0.304 0.524 0.198 1.060 0.202 1.611 0.206 0.244 0.004 0.512 0.027 0.741-0.077 0.17-0.079 0.31-0.187 0.453-0.307 0.129-0.107 0.261-0.194 0.4-0.287 0.072-0.049 0.187-0.091 0.209-0.187-0.050 0.031-0.040 0.069-0.052 0.12-0.050 0.191-0.14 0.389-0.211 0.573-0.082 0.22-0.231 0.362-0.393 0.526-0.183 0.184-0.343 0.329-0.581 0.439-0.243 0.112-0.48 0.195-0.746 0.239-0.301 0.050-0.603 0.036-0.907 0.038-0.276 0.004-0.534-0.020-0.805-0.079-0.324-0.071-0.625-0.206-0.945-0.294-0.321-0.090-0.638-0.156-0.945-0.291-0.247-0.11-0.471-0.184-0.742-0.208-0.304-0.028-0.616-0.076-0.921-0.077-0.25-0.001-0.488 0.079-0.729 0.142-0.274 0.069-0.539 0.096-0.82 0.109-0.246 0.010-0.488 0.060-0.734 0.076-0.326 0.022-0.631-0.057-0.945-0.142-0.158-0.042-0.51-0.123-0.531-0.334 0.101 0.095 0.26 0.15 0.383 0.228z"></path>
<path d="M6.118 25.408c0.15 0.030 0.351-0.157 0.455-0.227 0.213-0.142 0.457-0.178 0.701-0.239 0.389-0.096 0.773-0.179 1.171-0.224 0.457-0.052 0.856-0.077 1.31 0.028 0.375 0.085 0.797 0.156 1.146 0.318 0.192 0.090 0.315 0.222 0.482 0.351 0.244 0.189 0.521 0.315 0.801 0.442 0.274 0.126 0.532 0.236 0.833 0.282 0.337 0.053 0.699 0.053 1.039 0.058 0.811 0.012 1.63-0.022 2.403-0.293 0.392-0.139 0.754-0.367 1.121-0.561 0.334-0.178 0.679-0.345 0.997-0.551 0.212-0.139 0.362-0.356 0.579-0.479 0.096-0.055 0.2-0.090 0.307-0.115-0.109 0.066-0.168 0.219-0.225 0.328-0.099 0.192-0.172 0.372-0.301 0.549-0.132 0.184-0.279 0.38-0.436 0.542-0.148 0.15-0.323 0.321-0.486 0.455-0.181 0.15-0.403 0.238-0.59 0.381-0.164 0.126-0.291 0.282-0.483 0.368-0.205 0.095-0.46 0.132-0.677 0.194-0.384 0.109-0.772 0.192-1.173 0.178-0.153-0.005-0.282-0.046-0.428-0.087-0.153-0.042-0.307-0.063-0.46-0.113-0.123-0.041-0.247-0.102-0.371-0.129-0.082-0.018-0.165-0.003-0.247-0.012-0.183-0.016-0.346-0.036-0.531-0.036 0.35 0.003 0.683 0.15 0.891 0.439 0.072 0.102 0.132 0.198 0.189 0.307 0.066 0.129 0.151 0.219 0.233 0.334 0.041 0.058 0.151 0.244 0.124 0.313-0.083-0.018-0.137-0.091-0.205-0.137-0.195-0.129-0.427-0.249-0.641-0.343-0.216-0.096-0.422-0.131-0.658-0.128-0.244 0.003-0.499-0.024-0.742 0.008-0.233 0.031-0.455 0.121-0.677 0.195-0.249 0.084-0.549 0.076-0.806 0.022-0.428-0.090-0.784-0.373-1.088-0.671-0.31-0.304-0.735-0.45-1.133-0.603-0.297-0.115-0.647-0.148-0.967-0.11-0.143 0.017-0.318 0.102-0.416 0.213-0.090 0.102-0.090 0.249-0.088 0.378 0.003 0.128-0.035 0.296 0.046 0.402 0.068 0.087 0.213 0.186 0.32 0.214-0.571-0.074-1.143-0.179-1.582-0.593-0.11-0.104-0.291-0.26-0.357-0.405-0.061-0.131-0.049-0.287-0.047-0.427 0-0.197 0.053-0.28 0.195-0.406 0.405-0.359 0.927-0.56 1.428-0.745z"></path>
</svg>
