<!-- Generated by IcoMoon.io -->
<svg version="1.1" xmlns="http://www.w3.org/2000/svg" width="32" height="32" viewBox="0 0 32 32">
<title>seeker1</title>
<path d="M16.182 16.867c-0.381-0.168-0.777-0.33-1.183-0.502-0.412-0.183-0.818-0.367-1.214-0.549l-6.002-2.554c0.578-1.153 1.417-2.107 2.513-2.853 1.092-0.742 2.311-1.189 3.652-1.326 0.091-0.026 0.187-0.046 0.294-0.046 0.103-0.010 0.214-0.021 0.321-0.021h0.547c0.047 0.015 0.112 0.021 0.204 0.021h0.070c0.029 0 0.056 0.010 0.092 0.025 0.045 0.015 0.091 0.021 0.136 0.021 0.091 0 0.162 0.010 0.229 0.026 0.056 0.014 0.117 0.020 0.183 0.020 0.070 0 0.142 0.010 0.203 0.026 0.101 0.046 0.213 0.081 0.32 0.112 0.101 0.014 0.218 0.040 0.346 0.070 0.832 0.229 1.625 0.61 2.371 1.137 0.029 0.046 0.056 0.072 0.091 0.072 0.011 0 0.026 0.010 0.026 0.021 0.954 0.72 1.716 1.615 2.28 2.696 0.558 1.082 0.842 2.27 0.842 3.559 0 0.838-0.138 1.686-0.407 2.534l-4.087-1.756c-0.022 0.035-0.040 0.046-0.072 0.046 0-0.030-0.015-0.046-0.045-0.046-0.304-0.138-0.605-0.259-0.889-0.365-0.273-0.122-0.547-0.239-0.822-0.367zM8.513 21.544c-0.107-0.086-0.182-0.192-0.229-0.315-0.472-0.686-0.837-1.462-1.096-2.331-0.037-0.101-0.061-0.203-0.092-0.295-0.015-0.107-0.037-0.208-0.045-0.299-0.045-0.148-0.066-0.279-0.066-0.386-0.018-0.046-0.026-0.127-0.026-0.253v-0.021c-0.015-0.101-0.022-0.259-0.022-0.458-0.037-0.075-0.045-0.192-0.045-0.365v-0.046c0-0.147 0.011-0.264 0.045-0.341v-0.365c0.011-0.030 0.022-0.061 0.022-0.091v-0.072c0.011-0.056 0.026-0.112 0.026-0.157 0-0.061 0.011-0.122 0.047-0.183v-0.046c0.045-0.396 0.137-0.767 0.274-1.117l0.045-0.046c0 0.030 0.011 0.046 0.045 0.046l0.365 0.157c0.741 0.335 1.503 0.675 2.28 1.005 0.777 0.32 1.534 0.65 2.285 0.98 0.787 0.335 1.574 0.681 2.35 1.026 0.772 0.341 1.56 0.681 2.372 1.031 0.029 0 0.070 0.015 0.116 0.046l4.403 1.915c-0.091 0.183-0.203 0.365-0.34 0.549-0.126 0.173-0.254 0.346-0.39 0.523-0.473 0.493-0.945 0.889-1.412 1.188-0.477 0.311-0.961 0.549-1.462 0.732-0.503 0.173-1.020 0.289-1.555 0.365-0.533 0.061-1.096 0.091-1.685 0.091-0.95 0-1.773-0.091-2.469-0.274-0.701-0.192-1.29-0.4-1.756-0.614-0.473-0.213-0.833-0.412-1.073-0.594-0.248-0.194-0.376-0.32-0.39-0.365-0.199-0.183-0.367-0.377-0.503-0.595-0.015 0-0.022-0.004-0.022-0.025zM25.083 16.115c0.015 0.152 0.026 0.309 0.026 0.477v0.594c0 0.047-0.011 0.092-0.026 0.138v0.341c0 0.035-0.015 0.070-0.045 0.116v0.204l-0.091 0.528c-0.077 0.426-0.173 0.853-0.295 1.274-0.107 0.412-0.248 0.818-0.432 1.214-0.594 1.321-1.396 2.453-2.396 3.377-0.844 0.807-1.819 1.452-2.925 1.94-0.265 0.137-0.524 0.238-0.798 0.32-0.274 0.091-0.558 0.173-0.842 0.248-0.128 0.046-0.249 0.077-0.365 0.092-0.128 0.014-0.244 0.035-0.346 0.070-0.152 0.026-0.285 0.046-0.386 0.046-0.037 0.026-0.081 0.047-0.136 0.047-0.047 0-0.103 0.005-0.162 0.020-0.153 0-0.265 0.005-0.341 0.026h-0.138c-0.136 0-0.238 0.005-0.299 0.020h-0.386c-0.198 0-0.341-0.009-0.432-0.020h-0.391c-0.015-0.021-0.045-0.026-0.091-0.026h-0.183c-0.061-0.014-0.152-0.020-0.274-0.020-0.045-0.036-0.091-0.047-0.136-0.047s-0.091-0.009-0.138-0.025c-0.045 0-0.101-0.010-0.157-0.021-0.045 0-0.101-0.020-0.162-0.046-0.086-0.020-0.192-0.035-0.294-0.046-0.107-0.021-0.203-0.046-0.295-0.091-0.173-0.036-0.315-0.072-0.437-0.117-0.126-0.046-0.248-0.082-0.386-0.112-0.045 0-0.081-0.010-0.091-0.026v0.346c-0.022 0.072-0.072 0.189-0.162 0.341-0.091 0.121-0.239 0.229-0.432 0.32-0.037 0-0.072 0.005-0.117 0.025-0.029 0.010-0.066 0.021-0.112 0.021h-0.026c-0.213 0-0.396-0.066-0.543-0.203-0.157-0.127-0.249-0.274-0.274-0.458 0-0.035-0.015-0.072-0.026-0.117v-0.112c0.029-0.238 0.138-0.446 0.32-0.614 0.029-0.031 0.056-0.046 0.092-0.046 0-0.047-0.015-0.072-0.045-0.072 0 0-0.015-0.005-0.047-0.021-0.060-0.046-0.126-0.070-0.182-0.070-0.061-0.010-0.127-0.036-0.183-0.066l-0.018-0.046v-0.026c0.007-0.010 0.018-0.035 0.018-0.066l0.935-2.011c0.426 0.199 0.914 0.377 1.463 0.524 0.467 0.137 1.036 0.253 1.691 0.345 0.664 0.092 1.421 0.107 2.259 0.047 0.94-0.056 1.777-0.229 2.509-0.503 0.731-0.285 1.351-0.615 1.849-0.98 0.488-0.365 0.904-0.741 1.258-1.143 0.346-0.396 0.645-0.783 0.889-1.162 0.238-0.396 0.432-0.767 0.568-1.123 0.138-0.345 0.244-0.65 0.32-0.909 0.285-1.173 0.391-2.158 0.3-2.97-0.082-0.802-0.173-1.427-0.274-1.869-0.037-0.168-0.101-0.395-0.208-0.685-0.091-0.285-0.199-0.573-0.32-0.848-0.092-0.208-0.173-0.391-0.249-0.543-0.081-0.168-0.136-0.29-0.182-0.367-0.061-0.075-0.117-0.152-0.163-0.227-0.042-0.077-0.101-0.153-0.157-0.229-0.402-0.559-0.838-1.062-1.326-1.508-0.488-0.442-1.046-0.844-1.686-1.209-0.066-0.046-0.131-0.077-0.208-0.091-0.061-0.010-0.128-0.046-0.183-0.092 0 0-0.040-0.009-0.112-0.046h-0.026c-0.015 0-0.040-0.010-0.066-0.046-0.136-0.056-0.274-0.122-0.411-0.183-0.128-0.055-0.255-0.121-0.391-0.182-0.029 0-0.082-0.026-0.157-0.072h-0.026v-0.066c0.015-0.009 0.026-0.030 0.026-0.045 0.045-0.091 0.066-0.126 0.066-0.117 0 0.021 0.015-0.020 0.045-0.112 0.045-0.056 0.072-0.121 0.072-0.182 0.007-0.077 0.045-0.147 0.091-0.229 0 0 0.011-0.021 0.045-0.066h0.066c0.152 0.077 0.264 0.127 0.345 0.157 0 0.016 0.022 0.026 0.066 0.026l0.026-0.026v-0.065c-0.022-0.061-0.022-0.127 0-0.209 0-0.116 0.045-0.238 0.136-0.365 0.101-0.162 0.259-0.279 0.477-0.341 0.077-0.009 0.189-0.025 0.346-0.025 0.163 0.021 0.304 0.091 0.432 0.229 0.136 0.136 0.218 0.294 0.248 0.456 0.015 0.036 0.026 0.087 0.026 0.162 0 0.274-0.107 0.498-0.32 0.681-0.015 0.020-0.037 0.025-0.045 0.025-0.015 0-0.037 0.010-0.045 0.021v0.045l0.026 0.026 0.36 0.182c1.691 0.975 3.017 2.32 3.977 4.043 0.376 0.715 0.666 1.457 0.863 2.233 0.107 0.274 0.168 0.538 0.183 0.777l0.091 0.432c0.015 0.066 0.026 0.133 0.026 0.208 0 0.061 0.004 0.122 0.018 0.183 0 0.182 0.015 0.32 0.045 0.411zM21.503 30.517c0 0.010 0.004 0.031 0.022 0.046 0.011 0.031 0.026 0.052 0.026 0.072 0 0.046-0.026 0.101-0.072 0.183 0 0-0.015 0.030-0.045 0.112-0.045 0.010-0.087 0.030-0.112 0.046-0.022 0.030-0.040 0.051-0.072 0.066-0.045 0.014-0.086 0.030-0.112 0.046-0.037 0.030-0.066 0.056-0.091 0.070l-0.437 0.183c-0.107 0.031-0.203 0.051-0.295 0.066-0.091 0.030-0.192 0.072-0.299 0.117-0.091 0.025-0.198 0.046-0.315 0.046-0.128 0.010-0.244 0.046-0.346 0.091-0.061 0.010-0.128 0.021-0.183 0.021-0.060 0-0.126 0.015-0.182 0.046-0.082 0.015-0.147 0.026-0.203 0.026-0.047 0-0.117 0.004-0.209 0.020h-0.136c-0.045 0.015-0.086 0.026-0.112 0.026-0.081 0.025-0.183 0.046-0.32 0.046 0 0-0.011 0.005-0.026 0.020-0.168 0-0.289 0.005-0.365 0.026h-0.091c-0.077 0-0.128 0.010-0.157 0.046-0.199 0-0.356 0.005-0.458 0.021h-0.365c-0.015 0.014-0.045 0.025-0.091 0.025h-0.412c-0.061 0-0.131 0.005-0.203 0.021h-2.011c-0.136 0-0.243-0.010-0.32-0.021h-0.569c-0.015-0.020-0.055-0.025-0.116-0.025h-0.341c-0.015-0.015-0.045-0.021-0.091-0.021h-0.229c-0.061 0-0.133-0.010-0.203-0.025-0.066-0.015-0.127-0.021-0.183-0.021-0.022 0-0.040-0.010-0.072-0.026h-0.112c-0.037 0-0.081-0.009-0.136-0.020h-0.183c-0.037 0-0.081-0.010-0.136-0.026-0.046-0.014-0.092-0.020-0.138-0.020-0.045-0.021-0.131-0.026-0.254-0.026l-0.432-0.091c-0.082-0.015-0.152-0.031-0.229-0.046-0.061 0-0.136-0.015-0.229-0.046-0.172-0.031-0.33-0.066-0.477-0.112-0.157-0.036-0.31-0.072-0.456-0.117-0.082-0.031-0.157-0.056-0.229-0.066-0.066-0.015-0.127-0.040-0.183-0.072-0.061-0.046-0.117-0.075-0.162-0.091-0.045 0-0.091-0.021-0.136-0.066-0.061-0.046-0.107-0.086-0.138-0.112-0.045-0.035-0.076-0.070-0.091-0.117-0.029-0.014-0.045-0.035-0.045-0.046 0 0-0.011-0.014-0.022-0.046-0.015-0.061-0.015-0.131 0-0.203 0.011-0.021 0.029-0.036 0.046-0.046 0.011-0.021 0.029-0.042 0.047-0.072l0.091-0.091c0.029-0.036 0.091-0.066 0.182-0.112 0.092-0.066 0.183-0.112 0.274-0.138 0.183-0.112 0.346-0.173 0.503-0.182 0.229-0.092 0.467-0.148 0.732-0.163l0.432-0.092c0.076-0.030 0.142-0.056 0.203-0.065h0.183c0.045-0.021 0.091-0.026 0.136-0.026s0.081-0.010 0.117-0.021c0.045 0 0.091-0.009 0.136-0.025s0.092-0.021 0.138-0.021c0.056 0 0.117-0.010 0.182-0.025h0.138c0.056 0 0.096-0.010 0.112-0.021h0.208c0.045-0.035 0.117-0.046 0.229-0.046 0.056 0 0.117-0.010 0.182-0.026h0.229c0.101 0 0.168-0.009 0.203-0.020h0.249c0.045 0 0.081-0.010 0.117-0.026 0.091-0.046 0.172-0.091 0.248-0.137s0.152-0.101 0.229-0.157c0.122-0.082 0.213-0.148 0.274-0.208l0.182-0.183c0.077-0.122 0.122-0.194 0.138-0.203 0-0.036 0.026-0.087 0.072-0.157v-0.138c0-0.091-0.026-0.178-0.072-0.253-0.045-0.082-0.082-0.133-0.091-0.157 0-0.021-0.011-0.026-0.022-0.026v-0.046h1.548v0.026c0 0.009-0.015 0.025-0.045 0.046-0.029 0.046-0.045 0.091-0.045 0.137-0.061 0.138-0.081 0.253-0.066 0.365 0 0.056 0.011 0.112 0.045 0.157l0.066 0.163c0.045 0.042 0.072 0.072 0.072 0.087l0.091 0.091c0.091 0.092 0.162 0.163 0.229 0.208l0.274 0.183c0.072 0.046 0.187 0.112 0.34 0.203 0.007 0.015 0.056 0.026 0.136 0.026h0.254c0.011 0.010 0.026 0.020 0.047 0.020h0.182c0.072 0 0.143 0.005 0.203 0.026h0.229c0.056 0 0.096 0.010 0.112 0.046h0.229c0.045 0.010 0.101 0.021 0.163 0.021h0.136c0.011 0.014 0.037 0.025 0.066 0.025h0.091c0.047 0 0.092 0.005 0.138 0.021 0.061 0.015 0.122 0.025 0.183 0.025 0.029 0.010 0.081 0.021 0.163 0.021 0.070 0.015 0.142 0.026 0.203 0.026 0.056 0.009 0.122 0.020 0.182 0.020 0.194 0.046 0.391 0.082 0.575 0.117 0.178 0.046 0.36 0.096 0.543 0.157 0.091 0.031 0.173 0.051 0.254 0.072 0.072 0.025 0.163 0.066 0.274 0.112 0.056 0.010 0.112 0.030 0.157 0.046 0.045 0.010 0.096 0.046 0.163 0.091 0.072 0.046 0.117 0.077 0.138 0.092 0.045 0.009 0.065 0.030 0.065 0.046 0.011 0.030 0.047 0.051 0.092 0.070 0.029 0.047 0.051 0.077 0.070 0.112z"></path>
</svg>
