<!-- Generated by IcoMoon.io -->
<svg version="1.1" xmlns="http://www.w3.org/2000/svg" width="33" height="32" viewBox="0 0 33 32">
<title>serpents</title>
<path d="M15.312 29.279c-0.334-0.123-0.976-0.271-1.426-0.33s-0.965-0.202-1.144-0.319c-0.332-0.215-1.827-0.768-2.685-0.992-1.433-0.374-3.051-1.869-3.878-3.582-0.464-0.962-0.552-1.341-0.659-2.852-0.068-0.959-0.198-2.127-0.289-2.597-0.255-1.315-0.2-2.336 0.217-4.022 0.285-1.151 0.534-1.758 0.974-2.37 0.734-1.022 1.112-1.883 1.248-2.848 0.090-0.638 0.225-0.854 0.942-1.505 0.46-0.418 1.059-0.843 1.331-0.942 0.486-0.178 0.493-0.173 0.409 0.249-0.070 0.351 0.020 0.523 0.488 0.934 0.316 0.277 0.706 0.504 0.868 0.504 0.518 0 0.94 0.515 1.047 1.279 0.089 0.63 0.048 0.788-0.308 1.211-0.675 0.802-2.177 2.937-2.496 3.547-0.412 0.788-0.761 2.546-0.764 3.849-0.005 2.009 1.238 4.706 2.51 5.445 0.405 0.235 1.021 0.628 1.37 0.873s0.791 0.556 0.982 0.691c0.284 0.2 0.957 0.25 3.645 0.272l3.297 0.027 0.951-0.5c1.521-0.8 2.141-1.603 2.525-3.273 0.387-1.684 0.331-3.283-0.148-4.229-0.634-1.251-1.294-1.802-2.552-2.13-2.189-0.571-4.072-0.711-4.835-0.359-0.228 0.105-0.656 0.47-0.951 0.811-0.524 0.606-0.537 0.657-0.563 2.139l-0.026 1.519 1.058 1.030c0.582 0.566 1.358 1.208 1.725 1.426 1.385 0.822 0.378 0.884-1.295 0.079-0.634-0.305-1.253-0.556-1.374-0.558-0.323 0-1.955-1.585-2.273-2.2-0.15-0.29-0.311-0.901-0.358-1.359-0.077-0.745-0.022-0.954 0.524-1.992 0.736-1.4 1.853-2.626 2.603-2.859 0.303-0.094 1.889-0.204 3.523-0.244 2.743-0.069 3.028-0.049 3.705 0.251 0.786 0.347 3.41 2.785 3.797 3.525 0.129 0.247 0.223 0.888 0.223 1.519 0 0.6 0.082 1.499 0.182 1.998 0.236 1.177-0.038 2.851-0.59 3.599-0.211 0.287-0.384 0.604-0.384 0.706s-0.214 0.454-0.475 0.783c-0.261 0.329-0.475 0.701-0.475 0.828 0 0.363-1.743 1.93-2.615 2.352-0.692 0.335-1.016 0.383-2.567 0.385-1.062 0.001-2.142 0.097-2.688 0.239-1.1 0.286-1.528 0.285-2.325-0.011zM13.82 11.512c-0.281-0.114-0.246-0.338 0.125-0.81 0.222-0.282 0.294-0.542 0.231-0.829-0.123-0.56 0.15-1.234 0.754-1.86l0.497-0.515h-0.425c-0.472 0-1.080 0.793-1.353 1.765l-0.15 0.533-0.192-0.517c-0.158-0.425-0.317-0.548-0.892-0.693-1.167-0.294-1.876-1.416-1.488-2.354 0.25-0.603 0.625-0.711 1.32-0.38 0.484 0.231 0.656 0.24 1.274 0.067 0.393-0.11 0.752-0.299 0.799-0.42 0.114-0.298-0.135-0.279-0.391 0.030-0.153 0.184-0.357 0.223-0.772 0.147-0.938-0.171-1.278-0.48-1.278-1.16 0-0.484 0.115-0.711 0.603-1.187 0.969-0.946 2.091-1.117 2.091-0.319 0 0.42-0.203 0.687-0.742 0.975-0.232 0.124-0.313 0.282-0.256 0.5 0.046 0.175 0.114 0.319 0.152 0.319 0.257 0 0.982-0.523 1.273-0.918 0.288-0.391 0.559-0.52 1.562-0.743 0.667-0.149 1.439-0.228 1.714-0.176 0.631 0.118 1.368 0.79 1.371 1.249 0.003 0.665 0.215 0.775 1.655 0.865 1.48 0.092 1.628 0.188 1.364 0.884-0.132 0.347-0.261 0.424-0.71 0.424-0.302 0-0.593 0.071-0.647 0.158-0.056 0.091 0.091 0.159 0.347 0.16 0.328 0.001 0.497 0.114 0.643 0.428 0.268 0.577 0.249 0.762-0.052 0.512-0.195-0.162-0.276-0.165-0.369-0.014-0.066 0.107-0.241 0.147-0.392 0.089-0.171-0.066-0.349-0-0.477 0.175-0.195 0.267-0.21 0.267-0.314 0-0.104-0.27-0.12-0.269-0.331 0.017-0.21 0.285-0.228 0.286-0.331 0.020-0.079-0.204-0.163-0.236-0.307-0.117-0.141 0.117-0.256 0.095-0.397-0.075-0.283-0.341-0.757-0.297-1.265 0.117-0.241 0.196-0.559 0.428-0.707 0.515-0.411 0.241-0.141 0.706 0.604 1.039 0.355 0.159 0.683 0.233 0.729 0.165s0.381-0.107 0.746-0.087c0.474 0.026 0.69-0.033 0.756-0.206 0.082-0.213 0.129-0.21 0.391 0.028 0.204 0.184 0.332 0.214 0.406 0.094 0.060-0.096 0.239-0.134 0.398-0.084 0.187 0.059 0.371-0.023 0.517-0.231 0.225-0.321 0.229-0.321 0.508-0.013 0.155 0.171 0.317 0.627 0.36 1.015 0.098 0.868-0.056 0.973-1.905 1.298-1.244 0.219-6.579 0.313-7.047 0.125zM18.289 5.545c0.364-1.041-0.808-1.82-1.47-0.978-0.364 0.462-0.309 0.808 0.194 1.227 0.491 0.409 1.087 0.293 1.276-0.249zM23.221 9.942c-0.137-0.137-0.249-0.424-0.249-0.638 0-0.556-0.483-0.675-2.060-0.507-2.308 0.246-2.711 0.236-2.909-0.072-0.245-0.379 0.053-0.832 0.549-0.832 0.285 0 0.366 0.075 0.327 0.302-0.049 0.282 0.029 0.296 1.189 0.205 0.682-0.053 1.613-0.183 2.069-0.288 0.636-0.147 0.971-0.149 1.445-0.011 0.339 0.101 0.989 0.185 1.443 0.185 1.224 0 0.971 0.375-0.321 0.475-0.764 0.059-1.018 0.139-1.018 0.317 0 0.141 0.176 0.258 0.436 0.288 0.506 0.058 0.576 0.418 0.129 0.657-0.43 0.23-0.74 0.205-1.029-0.085z"></path>
</svg>
