<!-- Generated by IcoMoon.io -->
<svg version="1.1" xmlns="http://www.w3.org/2000/svg" width="32" height="32" viewBox="0 0 32 32">
<title>shades_of_sorrow</title>
<path d="M22.119 28.944l-6.237-19.944-0.52 0.159 6.242 19.947c0.038 0.12 0.151 0.195 0.273 0.189 0.022-0.001 0.043-0.005 0.065-0.012 0.142-0.045 0.221-0.197 0.177-0.339z"></path>
<path d="M22.662 29.241c-0.023-0.397-0.363-0.701-0.76-0.679-0.397 0.023-0.701 0.363-0.678 0.76 0.022 0.397 0.362 0.701 0.759 0.679 0.398-0.023 0.701-0.363 0.679-0.76z"></path>
<path d="M14.161 9.269c1.533-0.5 1.786-0.569 2.725-0.843l-3.003-5.036c-0.003 0-0.005 0-0.008 0.001z"></path>
<path d="M17.277 8.316c1.116-0.322 1.832-0.521 3.167-0.847l-6.549-4.081c-0.004 0.001-0.008 0.001-0.012 0.003z"></path>
<path d="M7.594 11.655c0.888-0.363 1.070-0.427 1.668-0.653 0.616-0.234 0.963-0.365 1.801-0.667l2.805-6.942c-0.003 0.001-0.005 0.001-0.008 0.001z"></path>
<path d="M13.896 3.387l7.158 3.953c1.704-0.409 2.116-0.517 4.043-0.859l-11.187-3.097c-0.005 0.001-0.009 0.003-0.014 0.003z"></path>
<path d="M13.851 3.396c0 0-0.392 0.266-0.693 0.587-0.050 0.053-0.361 0.345-0.838 0.793l-11.171 10.047 0.181 0.199 0.478-0.445c-0.001 0.005-0.001 0.010-0.004 0.016 0.224-0.203 0.48-0.374 0.713-0.513 1.055-0.662 2.186-1.17 3.312-1.677 0.391-0.171 0.471-0.203 1.060-0.449l6.972-8.559c-0.001 0-0.005 0-0.006 0h-0.001c0 0.001-0.001 0.001-0.003 0.001z"></path>
<path d="M13.875 3.391c-0.001 0-0.004 0.001-0.006 0.001l-2.395 6.792c1.421-0.508 0.956-0.347 2.293-0.786z"></path>
<path d="M21.166 4.409c-3.556-0.578-6.583-1.098-7.24-1.026l-0.050-0.008 0.047 0.008c-0.004 0-0.006 0.001-0.010 0.001l11.952 2.964c0.592-0.101 0.804-0.133 1.256-0.199 1.009-0.106 2.109-0.41 3.119-0.193-0.004-0.003-0.006-0.005-0.009-0.008l1.050 0.166 0.040-0.266z"></path>
<path d="M30.307 6.016c-0.172-0.021-0.348-0.023-0.522-0.016 0.243 0.022 0.463 0.067 0.629 0.144-0.027-0.048-0.065-0.089-0.106-0.128z"></path>
<path d="M13.405 2.006c-0.4 0.119-0.243 1.438-0.116 1.844 0 0 0.257-0.15 0.653-0.275 0.424-0.135 0.754-0.162 0.754-0.162-0.128-0.406-0.891-1.526-1.291-1.407z"></path>
<path d="M16.19 8.914l1.322 4.213c0.489-0.142 0.807-0.248 1.397-0.423l0.372 0.672 0.352-0.171-2.669-4.53c-0.296 0.087-0.479 0.149-0.773 0.238z"></path>
<path d="M17.389 8.534l0.239 0.366-0.19 0.104 1.855 3.593c0.023-0.008 0.047-0.014 0.072-0.022 2.061-0.614 3.514-1.133 4.79-1.68l0.654 0.463 0.318-0.323-4.91-3.231c-1.016 0.256-1.821 0.441-2.828 0.731z"></path>
<path d="M23.456 7.039c-1.692 0.356-1.364 0.295-2.161 0.488l0.151 0.087-0.275 0.264-0.374-0.23c-0.11 0.027-0.177 0.041-0.287 0.069l4.111 2.959c1.624-0.715 2.505-1.232 3.243-1.61l0.733 0.29 0.266-0.354-0.515-0.191z"></path>
<path d="M30.406 6.823l-2.855-0.539c-0.385 0.061-0.234 0.035-0.4 0.063-0.288 0.047-0.577 0.097-0.865 0.146l0.389 0.098-0.069 0.261-0.922-0.252c-0.65 0.119-0.481 0.078-1.845 0.361l4.521 1.84c0.996-0.569 1.52-1.085 1.836-1.565l0.521 0.114 0.114-0.442z"></path>
<path d="M29.784 5.999c-0.27 0.012-0.542 0.045-0.807 0.072-0.393 0.053-0.168 0.016-1.084 0.156l2.515 0.587c0.124-0.251 0.114-0.488 0.005-0.672-0.167-0.075-0.385-0.12-0.63-0.144z"></path>
<path d="M14.177 9.53l0.017 0.485-0.397 0.115-0.014-0.468c-0.264 0.085-0.022 0.006-0.636 0.213l-0.848 4.564c1.196-0.211 2.226-0.458 4.088-0.989l-1.318-4.199c-0.36 0.113-0.533 0.163-0.891 0.279z"></path>
<path d="M11.409 10.474l-0.186 0.517-0.349-0.065 0.124-0.31c-0.524 0.188-0.135 0.037-1.442 0.525l-2.546 4.018c1.174-0.138 2.405-0.31 3.48-0.451 0.553-0.072 0.883-0.142 1.353-0.219l-0.096 0.57 0.441 0.040 0.094-0.658 0.547-4.462c-1.258 0.424-0.886 0.305-1.42 0.494z"></path>
<path d="M7.362 11.997l-0.498 0.648-0.359-0.119 0.237-0.294c-0.76 0.307-1.222 0.515-2.126 0.916l-2.118 2.063c0.088 0.028 0.184 0.056 0.29 0.085 0.704 0.19 2.043 0.092 3.704-0.094l-0.338 0.555 0.405 0.144 0.431-0.737 2.16-3.868c-1.72 0.665-1.102 0.432-1.786 0.702z"></path>
<path d="M2.594 14.2c-0.275 0.147-0.565 0.312-0.812 0.52 0.006 0.151 0.141 0.272 0.415 0.385l-0.301 0.303 0.206 0.199 0.385-0.4 1.723-1.861c-1.6 0.768-1.049 0.521-1.615 0.854z"></path>
</svg>
