<!-- Generated by IcoMoon.io -->
<svg version="1.1" xmlns="http://www.w3.org/2000/svg" width="32" height="32" viewBox="0 0 32 32">
<title>shanghai</title>
<path d="M7.566 29.694c0-1.206 0.007-1.313 0.088-1.386s0.721-0.078 8.468-0.067l8.38 0.012 0.025 2.747h-16.961zM9.152 27.694c-0.083-0.083-0.070-0.219 0.026-0.27 0.046-0.024 0.317-0.102 0.603-0.173 0.993-0.247 1.95-0.611 2.366-0.9l0.22-0.153h7.453l0.223 0.156c0.323 0.226 1.163 0.551 2.006 0.776 0.945 0.253 1.064 0.296 1.083 0.398 0.045 0.234 0.394 0.223-7.011 0.223-5.312 0-6.925-0.013-6.969-0.057zM12.658 25.67c-0.059-0.059-0.075-0.188-0.075-0.614 0-0.602-0-0.601 0.375-0.79 0.114-0.057 0.299-0.189 0.411-0.292s0.245-0.188 0.296-0.188c0.051 0 0.167 0.077 0.257 0.17 0.211 0.218 0.603 0.443 0.92 0.527 0.375 0.1 2.174 0.093 2.521-0.010 0.368-0.109 0.564-0.218 0.842-0.469 0.134-0.12 0.284-0.219 0.334-0.219s0.165 0.077 0.256 0.171c0.091 0.094 0.272 0.226 0.404 0.292 0.409 0.206 0.406 0.201 0.406 0.786 0 0.454-0.012 0.53-0.096 0.614-0.094 0.094-0.159 0.096-3.436 0.096-2.973 0-3.349-0.008-3.416-0.075zM11.436 24.201c-0.145-0.034-0.352-0.108-0.461-0.165-0.24-0.125-0.826-0.76-0.921-0.998-0.065-0.163-0.063-0.177 0.039-0.259 0.105-0.085 0.113-0.085 0.283 0.007 0.162 0.087 0.274 0.094 1.548 0.094h1.373l0.163-0.143c0.188-0.165 0.294-0.181 0.363-0.053 0.096 0.18 0.284 0.196 2.325 0.196h1.973l0.133-0.167c0.158-0.198 0.209-0.204 0.411-0.054 0.084 0.062 0.217 0.131 0.295 0.152s0.702 0.046 1.385 0.056c1.088 0.015 1.264 0.007 1.421-0.064 0.17-0.076 0.184-0.076 0.275 0.006 0.154 0.139 0.113 0.272-0.198 0.642-0.557 0.662-1.121 0.891-1.914 0.777-0.417-0.060-0.59-0.135-0.897-0.389-0.118-0.098-0.274-0.216-0.345-0.262-0.126-0.082-0.134-0.081-0.263 0.019-0.073 0.057-0.298 0.21-0.5 0.34-0.489 0.314-0.664 0.342-2.019 0.322-1.040-0.015-1.113-0.022-1.327-0.128-0.125-0.061-0.308-0.197-0.406-0.302s-0.25-0.234-0.336-0.288l-0.157-0.098-0.189 0.131c-0.104 0.072-0.244 0.182-0.312 0.245s-0.245 0.177-0.394 0.255c-0.33 0.172-0.92 0.228-1.346 0.128zM12.807 22.459c-0.065-0.071-0.081-0.184-0.081-0.555 0-0.256 0.022-0.507 0.049-0.558s0.155-0.146 0.285-0.212c0.13-0.066 0.344-0.216 0.478-0.334s0.263-0.215 0.288-0.215c0.025 0 0.164 0.107 0.308 0.238s0.376 0.297 0.514 0.37l0.252 0.133h2.389l0.244-0.129c0.134-0.071 0.363-0.237 0.508-0.37s0.28-0.241 0.299-0.241c0.019 0 0.137 0.086 0.262 0.191s0.354 0.262 0.508 0.348l0.28 0.157 0.024 0.521c0.031 0.667 0.008 0.717-0.331 0.717-0.196 0-0.266-0.019-0.297-0.084-0.023-0.046-0.059-0.121-0.082-0.167s-0.106-0.090-0.189-0.098c-0.131-0.013-0.159 0.007-0.234 0.167l-0.086 0.182h-4.203l-0.086-0.182c-0.076-0.161-0.103-0.18-0.234-0.167-0.082 0.008-0.164 0.047-0.182 0.087-0.117 0.254-0.129 0.263-0.366 0.277-0.183 0.011-0.255-0.006-0.318-0.075zM11.359 20.963c-0.359-0.112-0.722-0.454-0.988-0.932-0.269-0.484-0.244-0.534 0.213-0.426 0.227 0.053 0.611 0.072 1.537 0.072 1.393 0.001 1.446-0.011 1.576-0.342 0.088-0.223 0.205-0.238 0.29-0.036 0.037 0.088 0.144 0.194 0.265 0.263l0.203 0.116h1.732c1.68 0 1.736-0.003 1.858-0.099 0.069-0.054 0.126-0.138 0.126-0.185s0.032-0.113 0.072-0.146c0.084-0.069 0.192-0.003 0.239 0.145 0.017 0.052 0.135 0.129 0.29 0.187 0.24 0.090 0.368 0.098 1.52 0.098 1.205 0 1.263-0.004 1.385-0.1 0.153-0.12 0.254-0.093 0.297 0.081 0.048 0.19-0.092 0.416-0.531 0.856-0.447 0.449-0.561 0.497-1.242 0.533-0.614 0.032-0.905-0.048-1.343-0.371-0.493-0.364-0.587-0.362-1.023 0.013-0.402 0.346-0.497 0.367-1.727 0.37-1.329 0.003-1.477-0.035-1.864-0.481-0.22-0.252-0.253-0.274-0.389-0.247-0.082 0.016-0.3 0.151-0.484 0.299-0.207 0.166-0.434 0.3-0.592 0.35-0.35 0.11-1.035 0.101-1.421-0.019zM12.971 19.327c-0.039-0.047-0.053-0.248-0.044-0.635l0.014-0.567 0.283-0.15c0.155-0.083 0.385-0.238 0.511-0.346s0.252-0.196 0.282-0.196c0.030 0 0.165 0.103 0.302 0.229 0.511 0.473 0.714 0.534 1.78 0.534 1.043 0.001 1.32-0.088 1.848-0.592 0.099-0.094 0.203-0.171 0.232-0.171s0.152 0.088 0.275 0.196c0.122 0.108 0.346 0.259 0.497 0.335l0.275 0.139v0.615c0 0.681 0.004 0.674-0.326 0.673-0.207-0.001-0.271-0.036-0.313-0.172-0.049-0.156-0.199-0.27-0.309-0.235-0.053 0.017-0.135 0.11-0.183 0.207l-0.086 0.177-1.883 0.012c-1.701 0.011-1.891 0.005-1.971-0.067-0.048-0.044-0.088-0.105-0.088-0.136s-0.041-0.094-0.092-0.14c-0.129-0.117-0.275-0.056-0.375 0.156-0.077 0.165-0.098 0.176-0.325 0.19-0.167 0.010-0.261-0.007-0.3-0.055zM11.836 17.902c-0.41-0.070-0.969-0.459-1.136-0.79-0.042-0.084-0.129-0.209-0.193-0.278-0.122-0.132-0.199-0.368-0.147-0.451 0.047-0.077 0.199-0.058 0.37 0.046 0.146 0.089 0.242 0.095 1.5 0.096 1.29 0 1.348-0.004 1.47-0.1 0.070-0.055 0.159-0.162 0.199-0.239 0.094-0.182 0.236-0.182 0.3 0 0.027 0.077 0.093 0.184 0.148 0.239 0.097 0.097 0.142 0.099 1.774 0.099h1.674l0.081-0.148c0.112-0.204 0.248-0.377 0.295-0.377 0.022 0 0.107 0.105 0.189 0.234s0.198 0.247 0.256 0.262c0.058 0.016 0.708 0.029 1.444 0.029 1.246 0 1.347-0.006 1.479-0.093 0.289-0.19 0.357 0.101 0.115 0.494-0.282 0.458-0.768 0.835-1.231 0.955-0.247 0.064-0.811 0.067-1.014 0.004-0.36-0.11-0.632-0.289-0.913-0.599-0.164-0.182-0.313-0.331-0.33-0.331s-0.138 0.135-0.268 0.301c-0.284 0.362-0.61 0.58-0.966 0.646-0.145 0.027-0.596 0.045-1.004 0.040-0.716-0.009-0.75-0.014-1.018-0.149-0.249-0.126-0.494-0.35-0.8-0.73-0.082-0.102-0.112-0.116-0.131-0.061-0.042 0.118-0.543 0.566-0.798 0.713-0.335 0.193-0.872 0.268-1.344 0.188zM13.192 16.186c-0.072-0.042-0.084-0.126-0.084-0.612 0-0.626-0.001-0.625 0.358-0.808 0.105-0.054 0.296-0.185 0.423-0.292s0.253-0.194 0.279-0.194c0.026 0 0.167 0.107 0.313 0.237 0.493 0.439 0.874 0.55 1.779 0.517 0.525-0.019 0.637-0.038 0.883-0.151 0.155-0.071 0.395-0.236 0.533-0.366s0.283-0.237 0.322-0.237c0.039 0 0.18 0.094 0.314 0.208s0.324 0.248 0.422 0.298c0.348 0.176 0.346 0.17 0.346 0.764 0 0.618-0.034 0.689-0.335 0.689-0.164 0-0.2-0.023-0.321-0.203-0.177-0.264-0.314-0.287-0.439-0.075-0.052 0.087-0.118 0.185-0.146 0.218-0.040 0.046-0.446 0.060-1.723 0.060h-1.671l-0.107-0.128c-0.293-0.349-0.364-0.374-0.499-0.178-0.169 0.244-0.252 0.306-0.408 0.305-0.085-0.001-0.193-0.023-0.239-0.050zM11.726 14.653c-0.504-0.145-0.932-0.653-1.028-1.22-0.042-0.247 0.012-0.283 0.273-0.184 0.171 0.065 0.406 0.074 1.539 0.063l1.337-0.013 0.076-0.161c0.114-0.241 0.209-0.274 0.325-0.111 0.067 0.094 0.181 0.161 0.374 0.218 0.242 0.072 0.459 0.081 1.704 0.068l1.427-0.015 0.135-0.162c0.148-0.178 0.267-0.177 0.293 0.003 0.012 0.086 0.056 0.117 0.207 0.143 0.28 0.049 2.689 0.047 2.72-0.003 0.014-0.023 0.086-0.057 0.158-0.075s0.169-0.066 0.214-0.107c0.123-0.111 0.229-0.044 0.229 0.144 0 0.11-0.051 0.229-0.16 0.372-0.088 0.115-0.175 0.256-0.193 0.312-0.044 0.139-0.446 0.508-0.703 0.646-0.191 0.102-0.269 0.112-0.879 0.112-0.748 0-0.927-0.053-1.279-0.375-0.097-0.089-0.256-0.222-0.353-0.296l-0.177-0.135-0.266 0.292c-0.154 0.17-0.369 0.344-0.512 0.415-0.237 0.118-0.277 0.123-1.099 0.122-1.018-0.001-1.079-0.021-1.556-0.498l-0.321-0.321-0.15 0.107c-0.082 0.059-0.269 0.211-0.415 0.339-0.168 0.147-0.354 0.259-0.505 0.304-0.272 0.081-1.152 0.091-1.413 0.015zM13.395 13.050c-0.126-0.048-0.142-0.122-0.142-0.658 0-0.289 0.016-0.55 0.035-0.579s0.146-0.109 0.281-0.178c0.135-0.068 0.346-0.211 0.469-0.317s0.26-0.193 0.306-0.193c0.046 0 0.2 0.1 0.343 0.222 0.807 0.691 1.99 0.698 2.784 0.017 0.153-0.131 0.315-0.239 0.359-0.239s0.198 0.098 0.342 0.217c0.144 0.119 0.352 0.257 0.461 0.306s0.223 0.134 0.252 0.189c0.033 0.061 0.048 0.299 0.040 0.613-0.014 0.511-0.014 0.513-0.149 0.578-0.218 0.104-0.45 0.036-0.544-0.161-0.129-0.27-0.338-0.272-0.476-0.004-0.042 0.082-0.1 0.165-0.13 0.185-0.080 0.053-2.983 0.044-3.083-0.009-0.047-0.025-0.113-0.111-0.145-0.19-0.103-0.25-0.396-0.233-0.461 0.025-0.043 0.171-0.32 0.261-0.544 0.175zM12.042 11.554c-0.282-0.070-0.58-0.266-0.843-0.555-0.132-0.145-0.24-0.282-0.24-0.305s-0.097-0.151-0.215-0.284c-0.354-0.399-0.255-0.588 0.192-0.368l0.253 0.124 2.785 0.018 0.14-0.134c0.077-0.074 0.153-0.173 0.168-0.221 0.041-0.13 0.198-0.106 0.269 0.042 0.034 0.071 0.132 0.169 0.216 0.219 0.138 0.081 0.269 0.090 1.298 0.092 1.267 0.003 1.275 0.001 1.603-0.341 0.077-0.081 0.168-0.147 0.202-0.147s0.116 0.107 0.183 0.239c0.072 0.142 0.155 0.241 0.204 0.243 0.046 0.002 0.657 0.003 1.36 0.002 1.362-0.002 1.379-0.005 1.642-0.253 0.124-0.117 0.157-0.129 0.203-0.072 0.069 0.083-0.087 0.627-0.255 0.888-0.166 0.258-0.495 0.552-0.789 0.704-0.246 0.128-0.299 0.136-0.836 0.136-0.565 0-0.577-0.002-0.86-0.164-0.158-0.090-0.401-0.267-0.541-0.394s-0.292-0.23-0.337-0.23c-0.097 0-0.37 0.193-0.464 0.327-0.036 0.052-0.211 0.177-0.389 0.277l-0.323 0.183h-0.573c-0.679 0-0.814-0.052-1.396-0.536-0.198-0.165-0.369-0.3-0.379-0.3s-0.153 0.125-0.317 0.278c-0.164 0.153-0.426 0.34-0.582 0.417-0.245 0.12-0.346 0.14-0.739 0.15-0.251 0.006-0.538-0.009-0.638-0.034zM13.494 9.806c-0.084-0.107-0.099-0.193-0.099-0.576 0-0.502 0.034-0.601 0.242-0.709 0.079-0.041 0.282-0.192 0.451-0.335s0.339-0.26 0.378-0.26c0.039 0 0.159 0.094 0.266 0.209 0.238 0.254 0.69 0.49 1.073 0.56 0.536 0.098 1.153-0.108 1.617-0.539 0.136-0.126 0.284-0.229 0.329-0.229s0.164 0.089 0.263 0.197c0.1 0.108 0.294 0.261 0.432 0.339s0.265 0.165 0.282 0.192c0.017 0.028 0.040 0.255 0.050 0.506 0.023 0.565-0.026 0.71-0.257 0.753-0.224 0.042-0.38-0.039-0.465-0.242-0.059-0.142-0.094-0.169-0.219-0.169s-0.16 0.027-0.217 0.165c-0.038 0.091-0.111 0.188-0.162 0.215-0.057 0.031-0.59 0.050-1.402 0.050-1.208 0-1.316-0.007-1.389-0.087-0.043-0.048-0.079-0.109-0.079-0.136 0-0.091-0.183-0.214-0.294-0.199-0.071 0.010-0.138 0.074-0.186 0.175-0.091 0.194-0.167 0.246-0.364 0.247-0.108 0.001-0.181-0.036-0.251-0.125zM12.167 8.336c-0.612-0.228-1.677-1.351-1.52-1.604 0.049-0.080 0.131-0.056 0.269 0.077 0.073 0.070 0.222 0.143 0.337 0.165 0.304 0.059 2.749 0.054 2.86-0.005 0.051-0.027 0.125-0.113 0.165-0.191 0.096-0.185 0.175-0.179 0.33 0.025l0.128 0.167h2.551l0.231-0.164c0.127-0.090 0.256-0.154 0.287-0.141s0.099 0.092 0.152 0.176l0.096 0.153 2.482 0.022 0.191-0.132c0.105-0.073 0.234-0.2 0.287-0.284 0.105-0.166 0.246-0.203 0.272-0.071 0.009 0.046-0.034 0.223-0.095 0.394-0.255 0.709-0.637 1.193-1.098 1.391-0.558 0.24-1.313 0.145-1.731-0.216-0.125-0.108-0.336-0.288-0.469-0.399l-0.242-0.203-0.145 0.18c-0.415 0.514-0.896 0.777-1.422 0.777-0.476 0-0.754-0.132-1.167-0.553-0.438-0.446-0.504-0.487-0.597-0.371-0.038 0.048-0.092 0.145-0.119 0.216s-0.118 0.173-0.201 0.227c-0.083 0.054-0.225 0.152-0.314 0.218-0.375 0.275-1.009 0.336-1.518 0.147zM13.194 6.746c-0.099-0.026-0.154-0.178-0.1-0.276 0.022-0.039 0.211-0.189 0.421-0.332 0.445-0.305 1.116-0.907 1.386-1.243s0.589-0.879 0.648-1.102c0.096-0.364 0.148-0.406 0.509-0.405 0.177 0 0.347 0.017 0.379 0.037s0.121 0.193 0.199 0.385c0.197 0.484 0.403 0.807 0.793 1.248 0.362 0.408 0.815 0.797 1.326 1.137 0.371 0.247 0.437 0.368 0.273 0.5-0.088 0.071-0.179 0.087-0.448 0.080-0.434-0.013-0.502-0.040-0.595-0.238-0.060-0.127-0.11-0.167-0.224-0.178-0.131-0.013-0.155 0.005-0.22 0.172-0.059 0.149-0.104 0.192-0.229 0.217-0.196 0.039-2.27 0.030-2.454-0.010-0.094-0.021-0.161-0.082-0.215-0.197-0.064-0.135-0.106-0.167-0.219-0.167s-0.158 0.034-0.232 0.174c-0.065 0.124-0.133 0.183-0.235 0.203-0.159 0.032-0.636 0.029-0.762-0.004zM15.811 3.168c-0.063-0.063-0.075-0.225-0.075-1.025 0-0.916 0.004-0.954 0.105-1.048 0.125-0.117 0.383-0.128 0.489-0.022 0.063 0.063 0.075 0.229 0.075 1.065 0 0.707-0.016 1.007-0.057 1.048-0.084 0.084-0.447 0.072-0.536-0.018z"></path>
</svg>
