<!-- Generated by IcoMoon.io -->
<svg version="1.1" xmlns="http://www.w3.org/2000/svg" width="32" height="32" viewBox="0 0 32 32">
<title>shattered_aeons</title>
<path d="M16.498 3.639c0 0.473 0.036 0.959-0.046 1.424-0.055 0.316-0.046 0.616-0.046 0.939 0 0.221-0.052 0.578 0.020 0.792 0.152-0.083 0.249-0.092 0.439-0.089 0.206 0.003 0.354-0.084 0.551-0.095 0.424-0.023 0.462 0.004 0.888 0.002 0.446-0.003 0.86 0.16 1.287 0.301 0.168 0.055 0.331 0.074 0.477 0.138 0.251 0.11 0.543 0.197 0.788 0.324 0.536 0.278 0.962 0.685 1.398 1.092 0.238 0.221 0.405 0.471 0.574 0.746 0.182 0.296 0.408 0.524 0.554 0.841 0.207 0.46 0.522 0.861 0.731 1.319 0.133 0.293 0.204 0.58 0.323 0.881 0.172 0.438 0.296 0.876 0.414 1.331 0.151 0.584 0.067 1.248 0.067 1.853 0 0.412 0.052 0.858-0.021 1.264-0.057 0.315-0.152 0.577-0.16 0.897-0.012 0.476-0.193 0.935-0.37 1.373-0.077 0.193-0.17 0.376-0.276 0.552-0.067 0.113-0.107 0.243-0.179 0.354-0.098 0.154-0.255 0.263-0.367 0.408-0.234 0.304-0.467 0.63-0.745 0.897-0.203 0.196-0.425 0.378-0.612 0.594-0.347 0.402-0.836 0.579-1.328 0.742-0.145 0.048-0.27 0.146-0.418 0.195-0.131 0.044-0.264 0.048-0.395 0.089-0.219 0.067-0.432 0.069-0.656 0.137-0.634 0.194-1.273 0.23-1.907 0.374-0.482 0.111-0.913 0.111-1.405 0.117-0.237 0.002-0.409-0.074-0.637-0.093-0.389-0.033-0.778-0.126-1.151-0.253-0.159-0.054-0.311-0.121-0.464-0.189-0.154-0.069-0.19-0.119-0.313-0.209-0.138-0.103-0.291-0.138-0.425-0.253-0.106-0.091-0.172-0.201-0.286-0.281-0.151-0.107-0.248-0.119-0.377-0.279-0.087-0.108-0.171-0.201-0.269-0.3-0.28-0.283-0.605-0.52-0.83-0.857-0.176-0.264-0.285-0.6-0.435-0.883-0.172-0.327-0.299-0.681-0.415-1.032-0.123-0.376-0.159-0.664-0.158-1.066 0.002-0.409-0.059-0.867 0.021-1.271 0.124-0.633 0.127-1.322 0.368-1.935 0.115-0.295 0.262-0.572 0.438-0.834 0.205-0.307 0.342-0.662 0.566-0.95 0.56-0.723 1.283-1.236 2.141-1.512 0.297-0.096 0.58-0.224 0.896-0.261 0.141-0.017 0.289 0.020 0.431 0.010 0.252-0.017 0.477-0.098 0.733-0.1 0.314-0.001 0.629 0.005 0.942 0.003 0.338-0.003 0.656 0.068 0.991 0.090 0.477 0.031 1.030 0.243 1.378 0.58 0.291 0.283 0.525 0.594 0.666 0.979 0.159 0.436 0.407 0.871 0.438 1.34 0.047 0.687 0.032 1.43 0.004 2.116-0.018 0.436-0.244 0.931-0.443 1.315-0.088 0.171-0.245 0.415-0.385 0.551-0.085 0.082-0.194 0.104-0.283 0.179-0.161 0.135-0.165 0.218-0.361 0.306-0.235 0.107-0.493 0.256-0.738 0.331-0.404 0.123-0.956 0.013-1.378 0.018-0.219 0.002-0.431-0.061-0.642-0.113-0.080-0.020-0.198-0.046-0.276-0.068-0.14-0.039-0.236-0.14-0.369-0.195-0.063-0.027-0.137-0.032-0.202-0.064-0.121-0.056-0.235-0.14-0.347-0.211-0.183-0.116-0.344-0.194-0.48-0.367-0.284-0.362-0.462-0.743-0.441-1.213 0.020-0.414 0.368-0.835 0.647-1.097 0.53-0.498 1.353-0.93 1.982-0.399-0.441-0.676-1.529-0.563-2.077-0.037-0.233 0.224-0.536 0.375-0.737 0.639-0.091 0.119-0.136 0.221-0.238 0.332-0.187 0.205-0.194 0.462-0.318 0.703-0.045 0.088-0.122 0.151-0.168 0.238-0.045 0.086-0.087 0.266-0.104 0.363-0.028 0.16-0.026 0.45 0.001 0.609 0.063 0.359 0.599 0.759 0.921 0.856 0.489 0.146 0.987 0.323 1.469 0.488 0.423 0.145 0.958 0.353 1.398 0.374 0.544 0.027 1.122 0.051 1.616-0.21 0.206-0.11 0.402-0.196 0.613-0.303 0.188-0.096 0.338-0.226 0.521-0.325 0.303-0.164 0.458-0.212 0.663-0.502 0.145-0.205 0.295-0.406 0.378-0.649 0.14-0.401 0.232-0.805 0.329-1.219 0.057-0.242 0.17-0.438 0.176-0.696 0.008-0.264-0.002-0.53-0.002-0.795 0-0.308 0.022-0.589-0.069-0.875-0.077-0.247-0.083-0.504-0.157-0.746-0.148-0.483-0.394-0.918-0.69-1.322-0.165-0.224-0.337-0.449-0.548-0.632-0.114-0.099-0.259-0.155-0.372-0.239-0.119-0.090-0.196-0.189-0.347-0.251-0.2-0.083-0.412-0.161-0.617-0.241-0.314-0.121-0.61-0.103-0.946-0.104-0.322 0-0.635 0.018-0.95-0.046-0.464-0.096-0.962-0.046-1.435-0.046-0.341 0-0.682 0-1.023 0-0.352 0-0.675 0.074-1.023 0.092-0.477 0.027-0.916 0.337-1.224 0.698-0.207 0.243-0.497 0.386-0.705 0.625-0.181 0.209-0.416 0.453-0.554 0.692-0.306 0.529-0.694 1.062-1.094 1.518-0.243 0.278-0.379 0.454-0.479 0.815-0.12 0.435-0.427 0.826-0.518 1.28-0.035 0.172 0.003 0.346-0.029 0.519-0.046 0.253-0.167 0.481-0.175 0.743-0.013 0.399-0.028 0.816-0.174 1.194-0.239 0.616-0.311 1.198-0.28 1.858 0.028 0.564 0.391 1.123 0.648 1.602 0.19 0.353 0.314 0.834 0.596 1.131 0.228 0.24 0.518 0.367 0.827 0.475 0.74 0.262 1.559 0.265 2.254 0.649 0.292 0.161 0.602 0.294 0.911 0.422 0.131 0.055 0.249 0.067 0.382 0.106 0.202 0.060 0.368 0.215 0.574 0.259 0.935 0.203 1.89 0.19 2.847 0.19 0.278 0 0.567 0.033 0.842 0.004 0.174-0.018 0.334-0.080 0.51-0.096 0.65-0.061 1.309-0.294 1.936-0.467 0.491-0.135 0.966-0.3 1.454-0.438 0.164-0.047 0.233-0.119 0.371-0.208 0.272-0.175 0.567-0.308 0.84-0.49 0.384-0.256 0.633-0.64 0.992-0.918 0.143-0.111 0.156-0.098 0.22-0.269 0.091-0.242 0.202-0.425 0.328-0.65 0.218-0.392 0.434-0.755 0.694-1.123 0.258-0.364 0.438-0.758 0.679-1.131 0.3-0.462 0.353-1.014 0.459-1.555 0.063-0.329 0.161-0.649 0.226-0.978 0.083-0.431 0.051-0.872 0.050-1.309 0-0.541 0.001-1.081 0-1.621 0-0.444-0.061-0.86-0.091-1.299-0.070-1.024-0.633-2.011-1.332-2.741-0.395-0.414-0.736-0.891-1.083-1.348-0.291-0.383-0.604-0.784-0.848-1.197-0.217-0.369-0.458-0.66-0.776-0.938-0.504-0.441-1.091-0.46-1.709-0.654-1.038-0.324-1.663-0.639-2.613-1.187-0.27-0.156-0.524-0.34-0.793-0.488-0.159-0.088-0.631-0.217-0.55-0.46z"></path>
<path d="M15.397 2.686c0.131 0.106 0.144 0.468 0.183 0.623 0.063 0.25 0.12 1.267 0.163 1.516 0.067 0.386 0.020 1.603 0.021 1.997 0.001 0.171 0.063 0.389-0.085 0.469-0.090 0.050-0.354 0.084-0.465 0.090-0.179 0.011-0.372 0.011-0.551 0-0.088-0.004-0.45-0.053-0.502-0.099-0.115-0.103 0.037-0.304 0.045-0.46 0.009-0.168-0.002-1.133-0.002-1.302 0-0.165-0.024-0.351-0.002-0.513 0.022-0.164 0.088-0.242 0.095-0.415 0.008-0.168-0.024-1.092-0.002-1.258 0.021-0.161 0.079-0.246 0.093-0.415 0.020-0.242 0.045-0.249 0.278-0.328 0.151-0.052 0.286-0.095 0.457-0.091z"></path>
<path d="M15.672 26.035c0.089 0.172 0.080 0.262 0.090 0.465 0.009 0.179 0.072 0.381 0.114 0.557 0.024 0.104 0.068 0.168 0.074 0.279 0.003 0.089-0.023 0.19-0.006 0.279 0.035 0.202 0.15 1.429 0.077 1.649-0.117 0.353-0.688 0.205-0.991 0.209-0.208 0.003-0.353-0.086-0.551-0.095-0.175-0.009-0.317 0.005-0.416-0.181-0.152-0.283-0.010-1.895 0.046-2.186 0.039-0.204 0.087-0.342 0.093-0.558 0.007-0.198 0.078-0.36 0.093-0.558 0.021-0.274 0.047-0.234 0.322-0.231 0.183 0.002 0.367 0 0.55 0 0.392 0 0.757 0.031 0.688 0.557z"></path>
<path d="M29.168 14.975c-0.198 0-1.132-0.002-1.331 0-0.201 0.002-0.461-0.134-0.64-0.1-0.218 0.040-0.142 0.272-0.141 0.472 0 0.18-0.025 0.382-0.002 0.56 0.022 0.178 0.088 0.271 0.092 0.462 0.005 0.305 0.127 0.264 0.371 0.182 0.137-0.045 0.249-0.1 0.385-0.159 0.219-0.095 1.132-0.074 1.348-0.13 0.014-0.11-0.067-0.159-0.108-0.244-0.050-0.1-0.061-0.126-0.067-0.252-0.010-0.201 0-0.405 0-0.605z"></path>
<path d="M6.674 14.79c-0.025 0.005 0.253 0.067 0.227 0.073-0.108 0.311 0.142 1.147-0.093 1.318-0.058 0.041-0.2-0.002-0.272 0.011-0.093 0.018-0.179 0.069-0.274 0.089-0.179 0.035-1.158 0.082-1.341 0.091-0.383 0.017-0.506-0.097-0.879-0.005-0.076 0.018-0.095 0.083-0.174 0.101-0.081 0.021-0.197-0.003-0.279-0.004-0.090 0-0.19-0.013-0.278-0.002-0.072 0.011-0.16 0.072-0.204 0.077-0.375 0.051-0.031-0.527 0.045-0.702 0.069-0.159 0.044-0.309 0.090-0.487 0.033-0.128 0.054-0.428 0.157-0.472 0.166-0.072 0.176 0.008 0.355 0.008 0.212 0 0.427 0.015 0.635-0.021 0.468-0.082 1.714-0.166 2.286-0.073z"></path>
<path d="M13.231 4.181c-0.005 0.028-0.012 0.055-0.017 0.083-0.228 0.044-0.46 0.114-0.675 0.164-0.207 0.048-0.419 0.18-0.616 0.226-0.476 0.112-0.884 0.28-1.3 0.527-0.453 0.269-1.006 0.518-1.469 0.753-0.186 0.095-0.342 0.231-0.51 0.336-0.212 0.13-0.441 0.265-0.653 0.406-0.092 0.061-0.24 0.146-0.292 0.234-0.057 0.093-0.061 0.211-0.126 0.31-0.163 0.245-0.308 0.456-0.426 0.718-0.115 0.257-0.229 0.515-0.374 0.768-0.075 0.13-0.104 0.3-0.19 0.423-0.031 0.044-0.092 0.067-0.125 0.112-0.097 0.129-0.165 0.272-0.251 0.409-0.188 0.303-0.374 0.595-0.535 0.91-0.105 0.204-0.248 0.426-0.333 0.64-0.088 0.22-0.232 0.468-0.299 0.694-0.074 0.251-0.080 0.489-0.127 0.743-0.030 0.163-0.092 0.268-0.090 0.444 0.001 0.133-0.001 0.264-0.001 0.396 0 0.197-0.087 0.72 0.092 0.799 0.105 0.046 0.433-0.002 0.543-0.006 0.174-0.005 0.287-0.075 0.453-0.105 0.314-0.055 0.281 0.089 0.588-0.015-0.218-0.4-0.292-0.78-0.292-1.26 0-0.239-0.061-0.57-0.004-0.801 0.020-0.084 0.090-0.104 0.108-0.187 0.030-0.131 0.039-0.268 0.073-0.4 0.051-0.207 0.126-0.381 0.12-0.594-0.003-0.15 0.052-0.209 0.077-0.317 0.028-0.119-0.001-0.229 0.017-0.352 0.1-0.695 0.859-1.304 1.252-1.861 0.397-0.565 0.919-0.864 1.432-1.31 0.374-0.324 0.831-0.653 1.273-0.88 0.145-0.074 0.284-0.158 0.431-0.229 0.072-0.033 0.2-0.073 0.262-0.112 0.149-0.093 0.235-0.232 0.398-0.309 0.103-0.048 0.189-0.060 0.296-0.093 0.462-0.146 1.009-0.089 1.468 0.015 0.073-0.161-0.037-0.197-0.061-0.309-0.021-0.095-0.002-0.181-0.017-0.276-0.040-0.258-0.209-0.411-0.104-0.692z"></path>
<path d="M5.76 16.97c-0.109 0.102-0.088 0.185-0.1 0.316-0.012 0.126-0.048 0.198-0.078 0.317-0.067 0.261-0.022 0.565-0.023 0.837-0.001 0.361 0.036 0.498 0.178 0.82 0.129 0.295 0.266 0.547 0.43 0.821 0.443 0.74 0.536 1.678 1.056 2.376 0.449 0.6 0.931 1.162 1.436 1.707 0.67 0.721 1.603 0.735 2.387 1.201 0.36 0.214 0.669 0.453 1.060 0.594 0.296 0.107 0.641 0.117 0.918 0.234 0.175 0.074 0.419 0.27 0.567 0.393-0.106 0.271-0.201 0.56-0.265 0.822-0.052 0.212 0.023 0.175-0.198 0.213-0.167 0.029-0.272-0.032-0.406-0.107-0.196-0.108-0.391-0.155-0.603-0.236-0.313-0.123-0.584-0.241-0.91-0.346-0.3-0.096-0.633-0.103-0.909-0.232-0.299-0.141-0.613-0.299-0.882-0.477-0.488-0.323-0.901-0.705-1.378-1.027-0.195-0.131-0.396-0.278-0.564-0.445-0.203-0.202-0.42-0.356-0.605-0.584-0.203-0.249-0.42-0.48-0.63-0.74-0.178-0.22-0.359-0.467-0.556-0.683-0.391-0.429-0.633-1.061-0.739-1.619-0.037-0.193-0.146-0.295-0.196-0.458-0.041-0.136-0.036-0.292-0.098-0.432-0.142-0.318-0.018-0.61-0.096-0.949-0.013-0.055-0.076-0.087-0.084-0.123-0.022-0.108-0.006-0.186-0.020-0.296-0.020-0.168-0.084-0.248-0.106-0.416-0.041-0.328 0.013-0.661 0.1-0.943 0.103-0.325 0.002-0.757 0.366-0.842 0.144-0.035 0.342-0.017 0.495-0.011 0.175 0.009 0.389 0.143 0.454 0.317z"></path>
<path d="M16.594 26.815c0.258-0.037 0.503 0.246 0.767 0.208 0.375-0.055 0.759-0.163 1.117-0.3 0.146-0.056 0.277-0.13 0.436-0.156 0.183-0.029 0.369 0.020 0.55-0.002 0.364-0.044 0.731-0.119 1.088-0.193 0.479-0.1 0.86-0.218 1.281-0.485 0.217-0.138 0.476-0.195 0.672-0.349 0.238-0.186 0.986-0.784 1.21-0.984 0.209-0.186 0.33-0.319 0.473-0.547 0.021-0.033 0.008-0.089 0.030-0.12 0.033-0.046 0.093-0.091 0.128-0.135 0.087-0.112 0.289-0.252 0.358-0.385 0.22-0.434 0.692-0.792 0.989-1.187 0.236-0.315 0.309-0.593 0.517-0.918 0.116-0.183 0.239-0.319 0.423-0.442 0.204-0.135 0.121-0.287 0.229-0.511 0.077-0.159 0.097-0.263 0.216-0.419 0.093-0.125 0.153-0.233 0.211-0.371 0.051-0.122 0.099-0.251 0.135-0.381 0.037-0.138 0.126-0.28 0.153-0.405 0.052-0.236-0.072-0.518-0.011-0.753 0.016-0.062 0.069-0.067 0.082-0.108 0.021-0.072 0-0.148 0.020-0.214 0.028-0.093 0.121-0.19 0.098-0.293 0.105 0.165 0.078 0.266 0.099 0.437 0.018 0.15 0.083 0.219 0.105 0.368 0.017 0.12-0.038 0.261-0.008 0.378 0.022 0.084 0.088 0.092 0.108 0.176 0.022 0.082-0.003 0.2-0.004 0.284-0.002 0.294 0.018 0.56-0.074 0.836-0.099 0.294-0.245 0.593-0.393 0.857-0.136 0.243-0.279 0.481-0.42 0.718-0.164 0.276-0.378 0.55-0.522 0.818-0.24 0.452-0.475 0.961-0.774 1.379-0.176 0.247-0.441 0.428-0.68 0.615-0.263 0.205-0.468 0.472-0.675 0.73-0.369 0.46-0.766 0.955-1.258 1.297-0.236 0.163-0.43 0.381-0.665 0.533-0.285 0.185-0.574 0.263-0.871 0.419-0.31 0.163-0.609 0.212-0.946 0.299-0.188 0.047-0.353 0.167-0.534 0.217-0.194 0.054-0.349 0.072-0.543 0.132-0.422 0.133-0.892 0.301-1.342 0.356-0.361 0.044-0.766-0.001-1.131-0.004-0.076-0.001-0.182-0.022-0.253-0.004-0.082 0.018-0.105 0.101-0.188 0.107-0.090 0.005-0.397-0.119-0.454-0.191-0.087-0.108-0.057-0.332-0.047-0.469 0.013-0.202 0.141-0.288 0.299-0.836z"></path>
</svg>
