<!-- Generated by IcoMoon.io -->
<svg version="1.1" xmlns="http://www.w3.org/2000/svg" width="32" height="32" viewBox="0 0 32 32">
<title>shoggoths</title>
<path d="M19.031 17.387c0.025-0.082 0.233-0.079 0.302-0.060 0.058 0.016 0.143 0.085 0.178 0.137 0.099 0.148-0.118 0.175-0.228 0.17-0.090-0.005-0.066-0.022-0.137-0.071-0.041-0.030-0.11-0.025-0.118-0.088l0.038-0.077zM20.394 17.94c-0.104 0.258-0.318 0.411-0.556 0.598-0.112 0.090-0.255 0.145-0.343 0.252-0.071 0.093-0.134 0.203-0.192 0.302-0.085 0.148-0.173 0.288-0.266 0.433-0.090 0.14-0.060 0.23-0.099 0.367-0.016 0.055-0.058 0.038-0.058 0.118 0 0.044 0.025 0.066 0.038 0.104 0.003 0.011 0.008 0.025 0.011 0.036 0.096 0.099 0.203 0.192 0.304 0.277-0.241-0.126-0.28-0.206-0.304-0.277-0.134-0.14-0.241-0.293-0.263-0.461-0.027-0.186-0.112-0.4-0.071-0.595 0.008-0.027 0.019-0.049 0.030-0.069-0.066-0.047-0.143-0.115-0.148-0.192 0-0.033 0.036-0.096 0.049-0.129 0.014-0.047 0.016-0.074 0.027-0.129 0.014-0.088 0.069-0.151 0.079-0.236 0.027-0.195 0.005-0.419 0-0.617-0.008 0.041 0.060 0.129 0.082 0.159 0.038 0.055 0.082 0.085 0.134 0.123 0.058 0.041 0.126 0.071 0.186 0.090 0.036 0.011 0.079-0.003 0.11 0.014 0.005 0.003 0.005 0.005 0.008 0.008 0.008-0.022 0.016-0.038 0.022-0.041 0.060-0.030 0.197 0.041 0.266 0.049l0.581-0.469c0.033-0.134 0.055-0.197-0.088-0.307-0.313-0.238-0.916-0.589-1.25-0.184-0.049-0.090-0.014-0.23-0.014-0.326 0-0.049-0.016-0.11-0.003-0.156 0.008-0.033 0.052-0.066 0.058-0.088 0.030-0.104-0.005-0.217 0.022-0.323 0.014-0.058 0.074-0.143 0.066-0.208-0.041-0.033-0.058-0.069-0.118-0.090 0.085 0.014 0.115 0.049 0.118 0.090 0.005 0.003 0.011 0.008 0.016 0.011 0.025 0.014 0.074 0.005 0.101 0.019 0.154 0.079 0.304 0.112 0.469 0.175 0.26 0.104 0.441 0.313 0.603 0.493 0.093 0.104 0.137 0.206 0.211 0.315 0.058 0.082 0.099 0.159 0.14 0.247 0.041 0.085 0.129 0.228 0.129 0.318s-0.055 0.206-0.090 0.296zM18.184 13.771c-0.060-0.014-0.085-0.036-0.162-0.036-0.060 0-0.159-0.019-0.217-0.003-0.047 0.016-0.074 0.060-0.11 0.090 0.030 0.069 0.036 0.126 0.090 0.186 0.030 0.033 0.093 0.112 0.14 0.115 0.058 0.005 0.088-0.052 0.145-0.027-0.041 0.052-0.167 0.11-0.225 0.151-0.079 0.055-0.145 0.126-0.208 0.197-0.074 0.082-0.151 0.167-0.228 0.252-0.022 0.027-0.060 0.058-0.088 0.090 0.030-0.066-0.005-0.159 0.008-0.228 0.014-0.049 0.036-0.060 0.044-0.115 0.003-0.033 0.003-0.088 0-0.118-0.008-0.107-0.055-0.153-0.011-0.247 0.038-0.085 0.049-0.129 0.049-0.228 0-0.088-0.014-0.189 0.008-0.274 0.016-0.063 0.052-0.208 0.099-0.249 0.058-0.052 0.17-0.027 0.247-0.027h0.315c0.044 0.005 0.077 0.036 0.118 0.041 0.030 0.005 0.071-0.011 0.101-0.003 0.060 0.016 0.101 0.066 0.137 0.121 0.044 0.066 0.143 0.241 0.044 0.307-0.052 0.036-0.238 0.019-0.299 0.003zM16.74 9.486c-0.033 0.058-0.088 0.030-0.14 0.038-0.137 0.027-0.263 0.112-0.387 0.175-0.093 0.049-0.159 0.074-0.197 0.175-0.036 0.096 0.014 0.247-0.093 0.31-0.044 0.027-0.156 0.019-0.203 0.008-0.11-0.019-0.162-0.041-0.282-0.041-0.26 0.003-0.518 0-0.779 0-0.206 0.003-0.439-0.033-0.633 0.049-0.236 0.099-0.441 0.348-0.726 0.304-0.118-0.016-0.219-0.096-0.321-0.156-0.151-0.011-0.403-0.148-0.302-0.118 0.066 0.019 0.175 0.052 0.239 0.082 0.022 0.011 0.044 0.022 0.063 0.036 0.030 0.003 0.058 0.003 0.077-0.008 0.082-0.047 0.151-0.132 0.217-0.2 0.107-0.112 0.156-0.258 0.239-0.395 0.058-0.099 0.093-0.249 0.173-0.332 0.101-0.107 0.403-0.329 0.502-0.129 0.074 0.143 0.11 0.365 0.288 0.428 0.069 0.022 0.192 0.016 0.266 0.008 0.077-0.011 0.206-0.044 0.277-0.079 0.060-0.030 0.123-0.082 0.118-0.156-0.005-0.063-0.036-0.121-0.041-0.189-0.005-0.066-0.022-0.096-0.036-0.151-0.014-0.058 0.003-0.088-0.041-0.137-0.030-0.033-0.096-0.060-0.14-0.071-0.096-0.027-0.197-0.025-0.293-0.049-0.011-0.060 0.134-0.162 0.192-0.184 0.093-0.036 0.2 0.014 0.293-0.011 0.162-0.044 0.313-0.112 0.496-0.115 0.151-0.118 0.34-0.115 0.532-0.118 0.154-0.003 0.233-0.077 0.354-0.159 0.107-0.071 0.101-0.005 0.099 0.099-0.003 0.189-0.008 0.381 0 0.567 0.005 0.153 0.060 0.28 0.143 0.4 0.027 0.038 0.090 0.052 0.049 0.118zM13.738 20.885c-0.038 0.071-0.063 0.143-0.101 0.211-0.071 0.126-0.145 0.282-0.266 0.365-0.049 0.036-0.184 0.134-0.244 0.115-0.063-0.019-0.123-0.134-0.181-0.181-0.378-0.293-0.866-0.395-1.275-0.644-0.162-0.101-0.323-0.313-0.526-0.323-0.148-0.008-0.326 0.038-0.463-0.033-0.132-0.069-0.162-0.222-0.214-0.351-0.016-0.036-0.066-0.156-0.101-0.189-0.019-0.019-0.038-0.008-0.060-0.025-0.107-0.063-0.241-0.079-0.348-0.145-0.074-0.047-0.115-0.134-0.164-0.203-0.063-0.093-0.145-0.178-0.2-0.28-0.074-0.137-0.118-0.28-0.203-0.411-0.126-0.195 0.003-0.461-0.093-0.677-0.036-0.077-0.093-0.115-0.137-0.186-0.082-0.132-0.052-0.313-0.052-0.461 0-0.115 0.005-0.228 0-0.34-0.003-0.112-0.082-0.164-0.11-0.28-0.047-0.206-0.151-0.48-0.304-0.631-0.164-0.156-0.332-0.31-0.491-0.472-0.132-0.132-0.208-0.313-0.197-0.496 0.005-0.129 0.074-0.4 0.266-0.285 0.049 0.027 0.077 0.112 0.126 0.143 0.019 0.011 0.060 0.016 0.079 0.025 0.030 0.016 0.049 0.036-0.066-0.008 0.096 0.058 0.192 0.060 0.302 0.077 0.121 0.019 0.23 0.033 0.356 0.033 0.115 0 0.239-0.019 0.348 0.027 0.208 0.090 0.4 0.167 0.641 0.17 0.069 0 0.14 0 0.208 0 0.066 0 0.192 0.022 0.26 0 0.033-0.008 0.038-0.036 0.074-0.044 0.044-0.008 0.112 0.003 0.159 0.003 0.14 0 0.269-0.014 0.4 0.038 0.151 0.060 0.307 0.096 0.455 0.159-0.096 0.066-0.263 0.041-0.362 0.041-0.159-0.003-0.288-0.016-0.439 0.041-0.184 0.069-0.403 0.082-0.543 0.233-0.090 0.096-0.107 0.28-0.132 0.406-0.016 0.074-0.033 0.148-0.047 0.222-0.016 0.104 0.003 0.211-0.022 0.315-0.060 0.249 0.019 0.518-0.027 0.77-0.030 0.143-0.063 0.313-0.027 0.458 0.047 0.195 0.236 0.329 0.318 0.507 0.052 0.11 0.077 0.288 0.159 0.384 0.041 0.049 0.101 0.112 0.148 0.159 0.069 0.066 0.129 0.082 0.219 0.104 0.066 0.014 0.214 0.030 0.291 0.069 0.066 0.030 0.115 0.093 0.189 0.121 0.189 0.077 0.4 0.107 0.595 0.175 0.049 0.016 0.088 0.041 0.14 0.049 0.101 0.022 0.228 0 0.332 0 0.118 0 0.252 0.008 0.359-0.047 0.137-0.069 0.304-0.192 0.348-0.348 0.049-0.178 0.060-0.367 0.126-0.548 0.049-0.14 0.082-0.288 0.079-0.436-0.003-0.055 0.019-0.082 0.030-0.123 0.016-0.079 0.008-0.167 0.008-0.252 0-0.099-0.025-0.238-0.003-0.334 0.005-0.016 0.030-0.030 0.033-0.041 0.011-0.044 0.008-0.090 0.019-0.134 0.019-0.090 0.047-0.115 0.14-0.096 0.085 0.37 0.211 0.732 0.206 1.121-0.008 0.359 0.003 0.718 0 1.080-0.003 0.167 0.022 0.326 0.036 0.493 0.011 0.17 0.003 0.343 0.003 0.513 0 0.164 0.019 0.263-0.055 0.398zM8.675 10.731c0.112-0.134 0.225-0.28 0.384-0.351 0.137-0.060 0.178-0.107 0.167-0.269-0.003-0.088-0.030-0.074-0.079-0.134-0.025-0.027-0.058-0.058-0.041-0.101 0.038-0.11 0.184 0 0.239 0.041 0.071 0.055 0.107 0.11 0.197 0.121 0.044 0.005 0.093-0.003 0.137-0.003 0.118 0.003 0.197 0.077 0.315 0.079 0.151 0.005 0.288-0.014 0.419 0.041 0.099 0.036 0.239 0.049 0.321 0.107 0.071 0.049 0.143 0.167 0.148 0.247 0.005 0.101-0.014 0.184-0.041 0.274-0.036 0.121-0.099 0.219-0.159 0.326-0.044 0.079-0.069 0.164-0.115 0.244-0.038 0.071-0.277 0.573-0.277 0.691 0-0.123-0.093-0.121-0.236-0.118-0.186 0.003-0.362-0.071-0.543-0.11-0.175-0.038-0.343-0.096-0.513-0.156-0.071-0.027-0.11-0.044-0.186-0.049-0.099-0.008-0.112-0.052-0.129-0.162-0.011-0.071-0.003-0.107-0.041-0.162-0.049-0.063-0.143-0.096-0.184-0.17-0.090-0.167 0.126-0.28 0.217-0.386zM11.907 17.403c0.115-0.005 0.115-0.173 0.115-0.244l0.077-0.038c-0.014-0.096 0.066-0.192 0.079-0.282 0.014-0.071-0.008-0.241 0.071-0.271 0.052 0.167-0.104 0.6 0.112 0.672 0.085 0.027 0.077-0.033 0.129-0.069 0.044-0.033 0.096-0.036 0.132-0.082 0.079 0.014 0.079 0.123 0.069 0.192-0.025 0.167-0.184 0.233-0.318 0.299-0.14 0.066-0.134 0.156 0.003 0.203 0.088 0.030 0.181 0.079 0.271 0.096-0.016 0.060-0.137 0.025-0.195 0.030-0.101 0.011-0.079 0.047-0.077 0.151 0.003 0.115-0.038 0.222-0.041 0.34 0 0.063 0.014 0.293-0.069 0.299-0.033-0.107 0.011-0.228-0.011-0.337-0.014-0.055-0.033-0.085-0.038-0.145-0.005-0.085 0.022-0.126-0.077-0.148-0.307-0.074-0.241 0.387-0.386 0.537-0.036-0.069 0.033-0.2 0.033-0.285-0.003-0.077 0.011-0.162 0-0.236-0.008-0.063-0.041-0.11-0.047-0.173-0.052-0.014-0.090 0.047-0.118 0.118-0.008 0.058-0.022 0.115-0.055 0.164 0.011-0.030 0.030-0.101 0.055-0.164 0.003-0.033 0.005-0.066 0.005-0.099 0-0.079 0.033-0.233-0.016-0.299-0.033-0.041-0.055-0.030-0.101-0.038-0.058-0.011-0.126-0.019-0.186-0.030-0.099-0.019-0.291 0.044-0.351-0.047 0.077-0.030 0.118-0.077 0.203-0.082 0.058-0.005 0.118 0.003 0.175 0.003 0.077 0 0.288 0.016 0.321-0.077 0.016-0.052-0.093-0.2-0.121-0.238-0.066-0.082-0.156-0.167-0.184-0.271 0.11 0.058 0.173 0.2 0.249 0.291 0.060 0.069 0.184 0.269 0.291 0.263zM12.019 6.602c0.063-0.11 0.074-0.197 0.11-0.313 0.069-0.214 0.003-0.428 0.148-0.603 0.096-0.118 0.186-0.244 0.334-0.288 0.228-0.063 0.461-0.11 0.688-0.162 0.211-0.049 0.441 0.027 0.652 0.036 0.153 0.003 0.365 0.112 0.504 0.186 0.167 0.093 0.362 0.197 0.562 0.208 0.162 0.008 0.326 0 0.488 0 0.066-0.003 0.129 0.005 0.192 0.014 0.022-0.008 0.041-0.014 0.066-0.016 0.079-0.008 0.132 0.036 0.208 0.044-0.096 0-0.184-0.016-0.274-0.027-0.025 0.008-0.047 0.016-0.071 0.022-0.033 0.005-0.071-0.008-0.104 0-0.060 0.016-0.121 0.088-0.175 0.118-0.077 0.041-0.14 0.030-0.228 0.047-0.038 0.005-0.069 0.030-0.104 0.036-0.060 0.011-0.118-0.003-0.181 0.008-0.093 0.016-0.17 0.038-0.255 0.080-0.175 0.085-0.428 0.129-0.515 0.332 0.022-0.23 0.014-0.529-0.222-0.65-0.252-0.129-0.513 0.005-0.748 0.082-0.096 0.033-0.203 0.080-0.239 0.186-0.025 0.077-0.003 0.2 0.041 0.269 0.069 0.101 0.129 0.060 0.228 0.085 0.049 0.011 0.060 0.036 0.118 0.041 0.060 0.005 0.112-0.022 0.156 0.038 0.118 0.027 0.099 0.11 0.041 0.2-0.071 0.11-0.211 0.066-0.326 0.044-0.206-0.038-0.433-0.011-0.644-0.008-0.134 0-0.217 0.063-0.34 0.129-0.066 0.033-0.192 0.090-0.249 0.143 0.030-0.093 0.093-0.192 0.14-0.28zM7.071 7.965c-0.016 0.088-0.003 0.173-0.008 0.26-0.008 0.134-0.044 0.367-0.217 0.219-0.055-0.049-0.077-0.121-0.118-0.181-0.047-0.063-0.093-0.077-0.159-0.115-0.082-0.052-0.126-0.104-0.219-0.14-0.066-0.027-0.115-0.049-0.123-0.132-0.022-0.005-0.041-0.011-0.063-0.014-0.016-0.058 0-0.099 0.011-0.151 0.014-0.047 0.022-0.112 0.049-0.159 0.052-0.088 0.154-0.167 0.167-0.274v0.118c0.129-0.003 0.208 0.088 0.318 0.151 0.047 0.027 0.134 0.036 0.071 0.129-0.036 0.052-0.132 0.047-0.184 0.085-0.025 0.019-0.093 0.074-0.082 0.11 0.005 0.019 0.126 0.074 0.151 0.080 0.052 0.011 0.148 0.005 0.2 0 0.074-0.008 0.088-0.058 0.156-0.074 0.11-0.027 0.060 0.030 0.049 0.088zM30.707 20.882c-0.052-0.093-0.025-0.164 0.016-0.247 0.090-0.184 0.293-0.329 0.313-0.54 0.014-0.148-0.044-0.282-0.162-0.37-0.041-0.022-0.085-0.033-0.132-0.038-0.096-0.038-0.178-0.093-0.247-0.167-0.085-0.060-0.178-0.104-0.274-0.151-0.107-0.052-0.225-0.090-0.334-0.143-0.085-0.038-0.178-0.107-0.274-0.121-0.121-0.014-0.23 0.014-0.351-0.036-0.143-0.058-0.247-0.181-0.384-0.238-0.096-0.041-0.222-0.069-0.326-0.079-0.192-0.019-0.326 0.085-0.51 0.082-0.238-0.003-0.447-0.115-0.685-0.121-0.186-0.003-0.252-0.036-0.392-0.151-0.096-0.079-0.189-0.145-0.291-0.217-0.088-0.063-0.206-0.137-0.214-0.255-0.055-0.025-0.085 0.014-0.090 0.060-0.069-0.027-0.151-0.047-0.203-0.063-0.296-0.088-0.617-0.167-0.929-0.154-0.23 0.011-0.447 0.033-0.683-0.003-0.104-0.014-0.208-0.030-0.31-0.052-0.206-0.047-0.387-0.175-0.556-0.296-0.107-0.071-0.4-0.252-0.376-0.403 0.022-0.154 0.354-0.137 0.485-0.151 0.11-0.008 0.2-0.014 0.304-0.047 0.049-0.014 0.096-0.036 0.151-0.041 0.329-0.036 0.674 0.077 0.992 0.145 0.159 0.033 0.258 0.003 0.414-0.014 0.189-0.025 0.37-0.003 0.556-0.066 0.244-0.082 0.631-0.101 0.743-0.376 0.047-0.115 0.088-0.211 0.162-0.315 0.052-0.071 0.14-0.145 0.164-0.236 0.052-0.186 0.011-0.373 0.118-0.546 0.079-0.126 0.151-0.244 0.217-0.376 0.033-0.066 0.088-0.126 0.104-0.2 0.036-0.153 0.011-0.365-0.016-0.513-0.022-0.121-0.016-0.239-0.058-0.356-0.044-0.129-0.112-0.247-0.162-0.376-0.058-0.156-0.123-0.304-0.156-0.458-0.022-0.093-0.077-0.186-0.107-0.277-0.025-0.085-0.055-0.159-0.107-0.228-0.112-0.145-0.296-0.282-0.441-0.395-0.129-0.104-0.48-0.217-0.526-0.398-0.063-0.236 0.274-0.203 0.408-0.217 0.101-0.008 0.17-0.030 0.255-0.079 0.112-0.066 0.304-0.129 0.376-0.239 0.219-0.329 0.184-0.699 0.184-1.080 0 0.14-0.063 0.247-0.082 0.384-0.011 0.085-0.038 0.151-0.074 0.23-0.085 0.186-0.225 0.249-0.425 0.239-0.107-0.005-0.189-0.036-0.302-0.038-0.066-0.003-0.101-0.022-0.164-0.041-0.126-0.041-0.258-0.058-0.389-0.071-0.241-0.027-0.471 0.025-0.71 0.033-0.337 0.008-0.768-0.060-1.064 0.137-0.214 0.145-0.447 0.299-0.414 0.589 0.008 0.071 0.038 0.126 0.044 0.197 0.003 0.058-0.005 0.088 0.022 0.143 0.066 0.126 0.236 0.208 0.323 0.318 0.060 0.079 0.115 0.173 0.047 0.247-0.049 0.058-0.123 0.058-0.192 0.066 0.008 0.167-0.277 0.153-0.381 0.151-0.148 0-0.348-0.008-0.444 0.118-0.052 0.074-0.074 0.107-0.186 0.082-0.071-0.014-0.164-0.071-0.219-0.121-0.085-0.077-0.151-0.214-0.203-0.313-0.027-0.052-0.022-0.107-0.049-0.156-0.052-0.096-0.217-0.153-0.304-0.208-0.197-0.121-0.433-0.153-0.625-0.293-0.066-0.047-0.104-0.088-0.189-0.093-0.093-0.008-0.162-0.003-0.252-0.038-0.071-0.027-0.027-0.036-0.137-0.049-0.195-0.022-0.302-0.055-0.43-0.197-0.101-0.112-0.148-0.271-0.238-0.395-0.145-0.195-0.282-0.411-0.452-0.584-0.049-0.049-0.060-0.058-0.093-0.121-0.033-0.060-0.101-0.118-0.096-0.192 0.005-0.036 0.060-0.143 0.074-0.175 0.027-0.074 0.036-0.112 0.055-0.189 0.033-0.132 0.107-0.23 0.115-0.367 0.003-0.082 0.003-0.17-0.003-0.255-0.008-0.184-0.143-0.43-0.269-0.562-0.025-0.025-0.055-0.047-0.082-0.069-0.074-0.066-0.123-0.085-0.208-0.118-0.107-0.044-0.181-0.115-0.296-0.153-0.011-0.003-0.022-0.005-0.033-0.005 0.052 0.060 0.096 0.132 0.104 0.162 0.016 0.074-0.003 0.175-0.003 0.252 0 0.055 0.011 0.129 0 0.184-0.022 0.112-0.101 0.211-0.189 0.277-0.079 0.066-0.132 0.077-0.244 0.077-0.101 0-0.173-0.033-0.228-0.126-0.025-0.044-0.033-0.101-0.058-0.145-0.041-0.077-0.047-0.129-0.069-0.203-0.027-0.096-0.104-0.175-0.156-0.263-0.079-0.129-0.181-0.203-0.2-0.365-0.011-0.074 0.019-0.129 0.030-0.197 0.011-0.058 0.003-0.107 0.008-0.164 0.014-0.132 0.107-0.236 0.17-0.343 0.071-0.132 0.17-0.271 0.28-0.376 0.151-0.143 0.315-0.211 0.521-0.219 0.14-0.008 0.299 0.014 0.436 0.038 0.071 0.014 0.148 0.041 0.208 0.085 0.090 0.069 0.151 0.173 0.241 0.247 0.044 0.033 0.233 0.288 0.313 0.258 0.096-0.038-0.008-0.206 0.093-0.263 0.052-0.033 0.186-0.008 0.249-0.011 0.178 0 0.354 0.005 0.526 0.049 0 0.186-0.005 0.378-0.005 0.567 0 0.096 0.003 0.195 0 0.293 0 0.033-0.008 0.082 0 0.118 0.005 0.030 0.030 0.033 0.036 0.060 0.019 0.074 0.016 0.14 0.044 0.214 0.019 0.047 0.049 0.239 0.088 0.26 0.060 0.036 0.14-0.049 0.151-0.104 0.016-0.066-0.003-0.167-0.003-0.236 0.003-0.162-0.052-0.37-0.118-0.51-0.058-0.123-0.112-0.299-0.071-0.436 0.019-0.060 0.055-0.129 0.079-0.186 0.060-0.129 0.055-0.228 0.079-0.365 0.014-0.071 0.027-0.126 0.033-0.2 0-0.019-0.014-0.049-0.008-0.069 0.030-0.14 0.195-0.203 0.244-0.318 0.052-0.126 0.052-0.293 0.071-0.428 0.027-0.164 0.047-0.323 0.047-0.491-0.003-0.167-0.011-0.334-0.003-0.502 0.005-0.096 0.049-0.129 0.090-0.206 0.030-0.055 0.052-0.154 0.069-0.208 0.022-0.080 0.011-0.17 0.038-0.252 0.022-0.066 0.055-0.126 0.071-0.192 0.019-0.082 0.058-0.156 0.079-0.236 0.069-0.255 0.291-0.529 0.164-0.8-0.033-0.069-0.093-0.148-0.14-0.217-0.047-0.071-0.099-0.145-0.151-0.211-0.049-0.060-0.115-0.101-0.164-0.167-0.047-0.066-0.063-0.126-0.099-0.192-0.022-0.047-0.055-0.088-0.069-0.143-0.036-0.156-0.033-0.392 0.151-0.436 0.14-0.033 0.288 0.027 0.392 0.11 0.164 0.137 0.392 0.181 0.515 0.376 0.044 0.071 0.104 0.17 0.118 0.252 0.022 0.123-0.003 0.277-0.003 0.4 0 0.143-0.030 0.326-0.003 0.469 0.016 0.079 0.063 0.156 0.079 0.236 0.016 0.066 0.038 0.107 0.041 0.175 0.008 0.14 0.003 0.282 0 0.422 0 0.101 0.019 0.134 0.041 0.219 0.027 0.096-0.030 0.219-0.003 0.318 0 0 0.033 0.055 0.033 0.055 0.019 0.11 0.038 0.225 0.047 0.334 0.011 0.115 0.063 0.249 0.041 0.365-0.014 0.085-0.033 0.156-0.038 0.244s-0.038 0.175-0.052 0.263c-0.014 0.101-0.011 0.214-0.038 0.313-0.030 0.112-0.030 0.186-0.030 0.31 0 0.17-0.022 0.326-0.036 0.496-0.011 0.137-0.022 0.293-0.005 0.43 0.014 0.121 0.041 0.211 0.041 0.337 0 0.214 0 0.43 0 0.644 0 0.159 0.036 0.378-0.016 0.526-0.063 0.175-0.184 0.323-0.184 0.521 0 0.104 0.030 0.323 0.118 0.378 0.079 0.052 0.274 0.052 0.356-0.005 0.063-0.047 0.093-0.249 0.112-0.307 0.022-0.063 0.047-0.121 0.052-0.189 0.005-0.077 0.005-0.181-0.003-0.258-0.011-0.088-0.069-0.159-0.082-0.239-0.011-0.060 0-0.134 0-0.195 0-0.153-0.016-0.313 0.011-0.463 0.014-0.079 0.030-0.145 0.030-0.228-0.003-0.304 0.014-0.611 0-0.913-0.011-0.34-0.079-0.669-0.079-1.012 0-0.228-0.011-0.45-0.060-0.669-0.060-0.28-0.058-0.578-0.058-0.866 0-0.282 0.005-0.565 0.003-0.847-0.003-0.115-0.005-0.247-0.041-0.362-0.016-0.041-0.033-0.038-0.041-0.093-0.011-0.066-0.016-0.236 0.030-0.285 0.060 0.025 0.071 0.123 0.096 0.175 0.044 0.079 0.093 0.145 0.159 0.208 0.121 0.11 0.159 0.151 0.323 0.156 0.085 0.003 0.17-0.003 0.252-0.003 0.107 0.003 0.258 0.025 0.362-0.005 0.082-0.027 0.269-0.121 0.233-0.222-0.099-0.030-0.208 0.005-0.31-0.003-0.173-0.014-0.356-0.079-0.524-0.132 0.003-0.129-0.003-0.299-0.055-0.422-0.036-0.085-0.143-0.143-0.17-0.233-0.019-0.060-0.003-0.14-0.003-0.203 0-0.107 0-0.217 0-0.323 0-0.238-0.058-0.425-0.17-0.636-0.079-0.148-0.192-0.214-0.299-0.343-0.099-0.121-0.208-0.112-0.367-0.115-0.249-0.005-0.502 0-0.748 0.033-0.060 0.008-0.129-0.005-0.189 0.005-0.041 0.008-0.071 0.033-0.112 0.044-0.093 0.022-0.184-0.016-0.28 0.025-0.069 0.027-0.148 0.093-0.197 0.148-0.047 0.052-0.055 0.085-0.085 0.162-0.041 0.093-0.077 0.186-0.107 0.282-0.008 0.041-0.008 0.082-0.003 0.123-0.016 0.047-0.055 0.066-0.074 0.112-0.022 0.058-0.005 0.137-0.005 0.197-0.003 0.107 0.003 0.151 0.069 0.239 0.038 0.055 0.069 0.088 0.082 0.156 0.033 0.186-0.11 0.376-0.145 0.554-0.033 0.164-0.005 0.348-0.005 0.515 0 0.181 0 0.359 0 0.537 0 0.206-0.016 0.381-0.121 0.565-0.063 0.115-0.164 0.164-0.099 0.31-0.208 0.252-0.526 0.386-0.828 0.474-0.162 0.044-0.313 0.033-0.477 0.044-0.167 0.008-0.329 0.074-0.496 0.085-0.123 0.008-0.175 0.016-0.304 0.074-0.148 0.069-0.203 0.096-0.359 0.074-0.192-0.025-0.439-0.066-0.606-0.17-0.151-0.093-0.288-0.225-0.422-0.337-0.093-0.077-0.167-0.134-0.236-0.228-0.11-0.148-0.189-0.326-0.304-0.471-0.101-0.123-0.184-0.167-0.348-0.167-0.156 0-0.34 0.011-0.493 0.049-0.079-0.104-0.167-0.2-0.263-0.291-0.090-0.143-0.217-0.214-0.373-0.214-0.123 0.093-0.241 0.189-0.359 0.288-0.058 0.066-0.129 0.107-0.208 0.126-0.153 0.027-0.332 0.003-0.491 0.003-0.178 0-0.359 0-0.537 0-0.153 0-0.43-0.033-0.598 0.008-0.184 0.044-0.417 0.164-0.551 0.304-0.148 0.154-0.162 0.397-0.285 0.559-0.121 0.162-0.329 0.26-0.461 0.422-0.055 0.069-0.101 0.145-0.151 0.219-0.162 0.247-0.222 0.614-0.236 0.916-0.005 0.115-0.027 0.217-0.041 0.332-0.005 0.038 0.008 0.077 0 0.118-0.038 0.173-0.367 0.367-0.548 0.392-0.14 0.016-0.219-0.033-0.307 0.112-0.019 0.033-0.060 0.123-0.055 0.164 0.014 0.074 0.137 0.080 0.132 0.184-0.005 0.121-0.145 0.203-0.239 0.233-0.159 0.055-0.329 0.132-0.477 0.208-0.088 0.044-0.178 0.14-0.274 0.159-0.121 0.025-0.222-0.016-0.345 0.036-0.052 0.022-0.126 0.052-0.167 0.079-0.085 0.052-0.11 0.137-0.137 0.23-0.11-0.148-0.189-0.318-0.277-0.482-0.036-0.071-0.069-0.107-0.052-0.178-0.293-0.132-0.707-0.090-0.916-0.386-0.033-0.044-0.052-0.101-0.074-0.154-0.027-0.069-0.071-0.112-0.101-0.167-0.052-0.093-0.019-0.277-0.016-0.384 0-0.145-0.003-0.282-0.137-0.362-0.025-0.016-0.052-0.011-0.077-0.027-0.016-0.011-0.019-0.036-0.033-0.047-0.093-0.066-0.214-0.077-0.315-0.123-0.134-0.060-0.195-0.14-0.288-0.239-0.071-0.077-0.129-0.080-0.23-0.082-0.123-0.003-0.485-0.022-0.537 0.115-0.036 0.099 0.005 0.291 0.038 0.378 0.082 0.244 0.047 0.485-0.074 0.716-0.052 0.101-0.151 0.17-0.225 0.255-0.112 0.123-0.132 0.304-0.055 0.461 0.055 0.11 0.154 0.192 0.162 0.318 0.005 0.079-0.019 0.153-0.033 0.23-0.014 0.093-0.008 0.186-0.008 0.277 0 0.115 0.008 0.233 0.003 0.348-0.008 0.151-0.085 0.225-0.156 0.348-0.027 0.044-0.030 0.099-0.060 0.14-0.016 0.022-0.052 0.036-0.071 0.058-0.030 0.030-0.069 0.079-0.085 0.118-0.030 0.063-0.044 0.186-0.016 0.255 0.030 0.079 0.156 0.258 0.236 0.282 0.093 0.027 0.233 0.003 0.293-0.060 0.066-0.066 0.093-0.134 0.074-0.222-0.005-0.022-0.011-0.071-0.019-0.099-0.008-0.036-0.033-0.060-0.041-0.096-0.011-0.038-0.008-0.082-0.019-0.123-0.011-0.049-0.033-0.099-0.022-0.153 0.019-0.090 0.044-0.148 0.044-0.244-0.003-0.060-0.011-0.129-0.003-0.189 0.005-0.041 0.022-0.058 0.033-0.088 0.014-0.044 0.008-0.082 0.027-0.126 0.033-0.071 0.093-0.151 0.14-0.211 0.027-0.036 0.060-0.069 0.077-0.11 0.005-0.019-0.008-0.041 0-0.058 0.011-0.030 0.036-0.074 0.063-0.093 0.063-0.044 0.175-0.096 0.252-0.104 0.167-0.016 0.332 0.036 0.499 0.041 0.074 0.003 0.145 0.033 0.208 0.077 0.077 0.052 0.197 0.148 0.23 0.236 0.041 0.11 0.019 0.318-0.030 0.419-0.060 0.123-0.14 0.236-0.239 0.332-0.096 0.096-0.175 0.159-0.233 0.28-0.071 0.151-0.162 0.293-0.274 0.417-0.175 0.195-0.332 0.398-0.496 0.603-0.107 0.137-0.318 0.299-0.337 0.474-0.005 0.058 0.019 0.126 0.008 0.184-0.016 0.088-0.101 0.14-0.154 0.208-0.151 0.197-0.351 0.31-0.562 0.439-0.197 0.118-0.343 0.239-0.499 0.403-0.052 0.058-0.069 0.063-0.090 0.143-0.014 0.038-0.016 0.074-0.049 0.104-0.047-0.014-0.060-0.049-0.096-0.074-0.049-0.041-0.099-0.058-0.143-0.107-0.088-0.101-0.112-0.228-0.211-0.323-0.093-0.088-0.143-0.186-0.217-0.288-0.047-0.066-0.093-0.129-0.143-0.192-0.052-0.041-0.101-0.085-0.151-0.134-0.022-0.044-0.041-0.090-0.060-0.137-0.033-0.063-0.071-0.121-0.118-0.173-0.033-0.058-0.033-0.11-0.052-0.173-0.036-0.118-0.121-0.186-0.101-0.318 0.011-0.060 0.022-0.052 0.047-0.099 0.047-0.036 0.082-0.082 0.11-0.137 0.036-0.093 0.090-0.175 0.156-0.249 0.14-0.17 0.258-0.313 0.313-0.532 0.022-0.090 0.049-0.153 0.085-0.239 0.025-0.058 0.038-0.107 0.088-0.148 0.038-0.033 0.090-0.036 0.126-0.071 0.069-0.066 0.060-0.175 0.063-0.263 0.005-0.104 0.016-0.249-0.003-0.356-0.025-0.134-0.121-0.263-0.156-0.386-0.014-0.041-0.027-0.077-0.038-0.121-0.027-0.093-0.014-0.129-0.066-0.225-0.066-0.126-0.104-0.181-0.211-0.241-0.066-0.038-0.052-0.038-0.096-0.123-0.079-0.126-0.17-0.244-0.266-0.359-0.044-0.047-0.079-0.099-0.104-0.156-0.055-0.044-0.123-0.069-0.197-0.096-0.154-0.058-0.285-0.173-0.447-0.17-0.123 0.003-0.228-0.011-0.345-0.038-0.112-0.027-0.195-0.041-0.315-0.041-0.143 0.058 0.047 0.178 0.184 0.255 0.134 0.074 0.507 0.189 0.447 0.395-0.019 0.074-0.099 0.159-0.14 0.225-0.071 0.118-0.129 0.249-0.162 0.384-0.047 0.192 0.241 0.622 0.408 0.356-0.090-0.244-0.022-0.551 0.049-0.787 0.027 0.082 0.066 0.203 0.137 0.263s0.159 0.049 0.239 0.085c0.17 0.079 0.186 0.228 0.241 0.384 0.030 0.085 0.052 0.148 0.058 0.241 0 0.049 0.025 0.225-0.003 0.285-0.041 0.090-0.222 0.219-0.299 0.269-0.143 0.088-0.302 0.151-0.452 0.222-0.186 0.085-0.417 0.143-0.573 0.288-0.063 0.058-0.049 0.063-0.085 0.132-0.077 0.159-0.195 0.291-0.282 0.441-0.123 0.208-0.266 0.414-0.378 0.63-0.049 0.099-0.085 0.159-0.022 0.26 0.063 0.104 0.222 0.178 0.329 0.233-0.066 0.217-0.362 0.34-0.307 0.578 0.063 0.266 0.126 0.521 0.134 0.798 0.26 0.093 0.488 0.285 0.696 0.458-0.036 0.184-0.066 0.376-0.14 0.546-0.101 0.239-0.101 0.408-0.038 0.65-0.019-0.088 0.11-0.162 0.181-0.181 0.121-0.030 0.249 0.047 0.337 0.126 0.115 0.107 0.096 0.197 0.121 0.34 0.008 0.058 0.019 0.148 0.066 0.189 0.030 0.003 0.060 0.014 0.085 0.030 0.025 0.060 0.038 0.123 0.036 0.189 0.008 0.162 0.008 0.208-0.082 0.345-0.049 0.079-0.263 0.329-0.247 0.452 0.008 0.060 0.104 0.195 0.17 0.208 0.027 0.217-0.167 0.359-0.225 0.543-0.019 0.066-0.011 0.115-0.008 0.186 0 0.154 0.016 0.323-0.025 0.471-0.069 0.249-0.321 0.414-0.384 0.661-0.044 0.162-0.014 0.277 0.090 0.414 0.044 0.058 0.118 0.101 0.175 0.143 0.107 0.066 0.219 0.121 0.337 0.159 0.047 0.025 0.090 0.049 0.137 0.077 0.074 0.104 0.027 0.323 0.016 0.441-0.008 0.104-0.036 0.206-0.038 0.307-0.005 0.154 0.016 0.392 0.071 0.537 0.041 0.107 0.11 0.211 0.222 0.26 0.156 0.069 0.173-0.063 0.31-0.104 0.118-0.036 0.384 0.025 0.51 0.049 0.134 0 0.244 0.055 0.323 0.162 0.082 0.090 0.175 0.17 0.277 0.241 0.069 0.041 0.134 0.049 0.206 0.085 0.088 0.047 0.132 0.121 0.197 0.195 0.085 0.096 0.175 0.189 0.249 0.293 0.104 0.143 0.228 0.348 0.26 0.521 0.022 0.121-0.025 0.351-0.060 0.474-0.060 0.195-0.132 0.403-0.233 0.57-0.123 0.208-0.367 0.321-0.556 0.463-0.044 0.033-0.151 0.107-0.167 0.17-0.011 0.049 0.047 0.219 0.058 0.266 0.016 0.085 0.049 0.167 0.063 0.252 0.014 0.079-0.003 0.159 0.014 0.236 0.036 0.145 0.044 0.269 0.019 0.43-0.025 0.154-0.052 0.354-0.184 0.461-0.049 0.041-0.099 0.066-0.148 0.112-0.129 0.123-0.186 0.228-0.156 0.4 0.011 0.058 0.088 0.241 0.071 0.315-0.016 0.066-0.085 0.132-0.115 0.192-0.055 0.112-0.060 0.241-0.077 0.365-0.022 0.156 0.005 0.354 0.118 0.474 0.184 0.197 0.485 0.282 0.688 0.458 0.082 0.071 0.115 0.115 0.217 0.14 0.052 0.008 0.104-0.011 0.159 0.003 0.074 0.016 0.318 0.154 0.381 0.049 0.055-0.088-0.074-0.156-0.129-0.2-0.055-0.047-0.115-0.099-0.173-0.137-0.069-0.044-0.17-0.036-0.23-0.077-0.101-0.074-0.143-0.26-0.203-0.362-0.055-0.099-0.101-0.211-0.121-0.323-0.022-0.132 0.011-0.307 0.077-0.425 0.090-0.167 0.326-0.211 0.406-0.389 0.033-0.079 0.014-0.148 0.019-0.228 0.033-0.343 0.099-0.631 0.359-0.869 0.123-0.112 0.145-0.2 0.151-0.37 0.005-0.104 0.005-0.195 0.060-0.291 0.101-0.175 0.156-0.329 0.206-0.524 0.030-0.112 0.074-0.123 0.156-0.197 0.129-0.118 0.219-0.214 0.389-0.28 0.099-0.036 0.2-0.066 0.304-0.074 0.099-0.008 0.195-0.003 0.282-0.066 0.252-0.175 0.041-0.614-0.036-0.822-0.049-0.137-0.074-0.277-0.137-0.408-0.069-0.143-0.173-0.263-0.274-0.384-0.123-0.145-0.315-0.296-0.397-0.471-0.060-0.129-0.036-0.285-0.074-0.419-0.008-0.025-0.082-0.164-0.080-0.2 0.145 0.123 0.337 0.17 0.496 0.277 0.115 0.079 0.228 0.2 0.296 0.323 0.175 0.313 0.206 0.71 0.458 0.979 0.085 0.090 0.181 0.189 0.28 0.263 0.112 0.082 0.233 0.107 0.365 0.154 0.145 0.052 0.285 0.093 0.398 0.2 0.153 0.145 0.329 0.26 0.485 0.403 0.082 0.077 0.162 0.112 0.263 0.162 0.132 0.055 0.258 0.126 0.376 0.208 0.038 0.058 0.074 0.112 0.112 0.167 0.11 0.156 0.217 0.222 0.403 0.23 0.195 0.008 0.45 0 0.62 0.104 0.255 0.151 0.26 0.436 0.252 0.696-0.005 0.126-0.027 0.214-0.052 0.329-0.025 0.112-0.011 0.238-0.052 0.348-0.055 0.154-0.181 0.233-0.332 0.132-0.321-0.217-0.252-0.718-0.65-0.842-0.189-0.060-0.345-0.293-0.567-0.263-0.112 0.016-0.233 0.093-0.318 0.164-0.112 0.093-0.359 0.129-0.362 0.315-0.003 0.077 0.099 0.263 0.175 0.302 0.055-0.049 0.014-0.126 0.047-0.184 0.027-0.052 0.101-0.126 0.145-0.17 0.236-0.23 0.757 0.126 0.924 0.266-0.027 0.134-0.079 0.252-0.115 0.387-0.041 0.159-0.022 0.282 0.025 0.436 0.055 0.173 0.175 0.217 0.315 0.321 0.148 0.112 0.211 0.178 0.398 0.178 0.148 0 0.285 0 0.428-0.038 0.173-0.044 0.26-0.121 0.395-0.236 0.143-0.123 0.217-0.252 0.228-0.439 0.005-0.145 0.044-0.252 0.104-0.387 0.14-0.304 0.208-0.762 0.066-1.083-0.11-0.255-0.195-0.529-0.315-0.781-0.099-0.206-0.263-0.359-0.406-0.54-0.079-0.107-0.148-0.255-0.258-0.334-0.060-0.044-0.137-0.058-0.2-0.088-0.112-0.052-0.192-0.137-0.258-0.238-0.060-0.085-0.093-0.186-0.151-0.271-0.058-0.079-0.143-0.123-0.208-0.189-0.088-0.090-0.159-0.154-0.258-0.197 0.049 0.016 0.099 0.030 0.148 0.038 0.069 0.014 0.14 0.016 0.203 0.041 0.219 0.090 0.414 0.255 0.625 0.365 0.186 0.096 0.367 0.197 0.507 0.354 0.074 0.082 0.151 0.189 0.192 0.293 0.025 0.060 0.014 0.118 0.033 0.175 0.044 0.129 0.277 0.206 0.392 0.28 0.096 0.063 0.192 0.162 0.299 0.208 0.033 0.014 0.058-0.003 0.093 0.019 0.033 0.019 0.052 0.060 0.069 0.093 0.060 0.134 0.033 0.129 0.178 0.2 0.063 0.027 0.543 0.274 0.499 0.337 0.337 0.093 0.674 0.186 1.014 0.271 0.153 0.038 0.304 0.074 0.436 0.164 0.093 0.058 0.167 0.134 0.219 0.23 0.014 0.016 0.025 0.036 0.038 0.055 0.069 0.049 0.214 0.060 0.302 0.096 0.236 0.093 0.485 0.115 0.729 0.181 0.208 0.055 0.417 0.126 0.628 0.167 0.123 0.025 0.236 0.033 0.359 0.033 0.049-0.003 0.104-0.016 0.145 0.016 0.027 0.049 0.055 0.099 0.082 0.148 0.058 0.143 0.121 0.28 0.195 0.417 0.036 0.033 0.082 0.058 0.123 0.079 0.121 0.060 0.225 0.058 0.293 0.178 0.079 0.137 0.118 0.296 0.203 0.43 0.096 0.156 0.192 0.315 0.282 0.477 0.060 0.107 0.129 0.28 0.236 0.356 0.115 0.079 0.345 0.085 0.471 0.118 0.132 0.033 0.249 0.074 0.37 0.134s0.28 0.14 0.318 0.28c0.005 0.016-0.011 0.222-0.008 0.175-0.003 0.162-0.022 0.296 0.151 0.37 0.027 0.014 0.247 0.036 0.184 0.025 0.132 0.022 0.291 0.060 0.422 0.104 0.126 0.041 0.132 0.088 0.186 0.2 0.077 0.156 0.099 0.249 0.011 0.411-0.044 0.079-0.126 0.132-0.189 0.211-0.069 0.090-0.126 0.197-0.225 0.26-0.323 0.208-0.62 0.112-0.976 0-0.112-0.036-0.208-0.082-0.321-0.11-0.055-0.014-0.123-0.044-0.17-0.077-0.058-0.041-0.082-0.11-0.134-0.156-0.058-0.047-0.14-0.085-0.2-0.126-0.11-0.079-0.222-0.17-0.345-0.228-0.173-0.079-0.4-0.085-0.554-0.203-0.121-0.090-0.249-0.255-0.343-0.376-0.041-0.055-0.074-0.11-0.123-0.159-0.090-0.096-0.129-0.063-0.233-0.112-0.085-0.041-0.088-0.167-0.159-0.238-0.093-0.099-0.197-0.126-0.326-0.129-0.203-0.003-0.411 0.011-0.611 0.049-0.063 0.011-0.123 0.049-0.181 0.063-0.066 0.016-0.134 0.003-0.203 0.011-0.304 0.033-0.592 0.148-0.874 0.252-0.159 0.058-0.332 0.071-0.493 0.118-0.148 0.041-0.2 0.071-0.288 0.197-0.036 0.052-0.063 0.112-0.104 0.164-0.049 0.066-0.126 0.118-0.156 0.197-0.030 0.085-0.022 0.255 0.025 0.326 0.044 0.063 0.093 0.058 0.162 0.074 0.093 0.025 0.178 0.058 0.266 0.101 0.126 0.063 0.258 0.145 0.365 0.241 0.101 0.085 0.178 0.192 0.277 0.277 0.047 0.041 0.099 0.047 0.121 0.112 0.027 0.079-0.038 0.186-0.107 0.23-0.074 0.047-0.186 0.038-0.271 0.011-0.214-0.071-0.439-0.175-0.641-0.269 0.049 0.036 0.077 0.088 0.123 0.126 0.049 0.041 0.112 0.071 0.164 0.107 0.192 0.134 0.354 0.26 0.578 0.329 0.192 0.055 0.524 0.085 0.71 0.008 0.181-0.077 0.31-0.222 0.313-0.422 0.008-0.321 0.025-0.617-0.26-0.828-0.167-0.123-0.94-0.326-0.526-0.614 0.077-0.052 0.148-0.036 0.241-0.036 0.063 0 0.17-0.027 0.228-0.008 0.058 0.016 0.151 0.11 0.181 0.129 0.17 0.11 0.376 0.164 0.546 0.274 0.145 0.090 0.277 0.186 0.428 0.271 0.186 0.104 0.26 0.225 0.373 0.395 0.11 0.162 0.206 0.321 0.266 0.504 0.060 0.175 0.164 0.345 0.269 0.502 0.079 0.123 0.178 0.296 0.321 0.362 0.099 0.044 0.214 0.066 0.321 0.088 0.181 0.036 0.408 0.074 0.595 0.038 0.055-0.011 0.099-0.041 0.162-0.041 0.148 0 0.313 0.077 0.463 0.096 0.26 0.030 0.51 0.069 0.773 0.066 0.096 0 0.195 0 0.293 0.003 0.11 0 0.074-0.014 0.137-0.030 0.112-0.033 0.206-0.052 0.323-0.049 0.066 0 0.137 0.005 0.203 0.003 0.099-0.005 0.175-0.047 0.271-0.074 0.263-0.071 0.658-0.036 0.82-0.299 0.184-0.304 0.282-0.666 0.425-0.99 0.14-0.318 0.115-0.713 0.115-1.053 0.003-0.143 0.005-0.249-0.049-0.376-0.036-0.079-0.058-0.173-0.069-0.263-0.025-0.203-0.066-0.387-0.247-0.51-0.118-0.082-0.222-0.115-0.282-0.249-0.055-0.121-0.112-0.263-0.101-0.398 0.008-0.126 0.044-0.236 0.044-0.365-0.003-0.134-0.069-0.143-0.134-0.252-0.038-0.060-0.019-0.060-0.036-0.112-0.052-0.173-0.121-0.313-0.241-0.45-0.151-0.173-0.34-0.277-0.537-0.384-0.121-0.063-0.23-0.118-0.367-0.132-0.085-0.008-0.17 0.003-0.255-0.005 0.093-0.088 0.112-0.228 0.189-0.326 0.079 0.016 0.159 0.011 0.236 0.022 0.090 0.014 0.156 0.047 0.252 0.027 0.093-0.019 0.129-0.060 0.208-0.134 0.112-0.090 0.203-0.2 0.266-0.329-0.011-0.038-0.014-0.079-0.011-0.121 0.074-0.025 0.123 0.016 0.186 0.047 0.208 0.096 0.482 0.071 0.702 0.041 0.164-0.022 0.34-0.082 0.466-0.192 0.154-0.132 0.211-0.359 0.359-0.496 0.038-0.033 0.123-0.123 0.178-0.121 0.019 0.003 0.019 0.030 0.033 0.036 0.074 0.030 0.159 0.088 0.238 0.088 0.099 0 0.041-0.036 0.137-0.066 0.071-0.022 0.151 0.052 0.195 0.093 0.096 0.093 0.126 0.14 0.247 0.208 0.173 0.099 0.356 0.222 0.54 0.291 0.088 0.033 0.178 0.036 0.266 0.055 0.11 0.025 0.197 0.069 0.288 0.129 0.071 0.047 0.129 0.118 0.197 0.164 0.118 0.074 0.299 0.085 0.428 0.055 0.217-0.052 0.463-0.022 0.683-0.022 0.104 0 0.203 0.008 0.307 0.022 0.14 0.016 0.28 0.003 0.417 0.025 0.208 0.030 0.378 0.184 0.57 0.263 0.030 0.014 0.099 0.014 0.118 0.041 0.044 0.052 0.008 0.115-0.022 0.162-0.096 0.159-0.293 0.181-0.461 0.217-0.271 0.058-0.551 0.115-0.828 0.14 0.186-0.038 0.392 0.107 0.581 0.118 0.115 0.005 0.217 0.016 0.329 0.036 0.066 0.011 0.101 0.003 0.162-0.019 0.219-0.082 0.469-0.069 0.609-0.282 0.052-0.079 0.156-0.151 0.192-0.236 0.027-0.071 0.022-0.228 0-0.302-0.014-0.049-0.058-0.107-0.077-0.159-0.036-0.090-0.022-0.192-0.060-0.277-0.060-0.137-0.164-0.288-0.313-0.321-0.277-0.058-0.554-0.101-0.831-0.137-0.129-0.016-0.184-0.058-0.274-0.148-0.060-0.060-0.121-0.077-0.214-0.107-0.186-0.055-0.356-0.041-0.546-0.063-0.37-0.044-0.77-0.088-1.11-0.249-0.244-0.118-0.419-0.299-0.633-0.461-0.044-0.033-0.088-0.047-0.137-0.071-0.129-0.058-0.241-0.143-0.365-0.211-0.093-0.052-0.206-0.069-0.249-0.167-0.019-0.044-0.036-0.107-0.052-0.154-0.033-0.099-0.096-0.167-0.099-0.271-0.005-0.178 0.082-0.337 0.26-0.389 0.189-0.058 0.507-0.052 0.702-0.030 0.123 0.016 0.277 0.101 0.381 0.17 0.093 0.060 0.211 0.167 0.233 0.282 0.025 0.129-0.074 0.206-0.101 0.318-0.022 0.096 0.088 0.121 0.027 0.208 0.121 0.058 0.307-0.154 0.389-0.228 0.060-0.055 0.159-0.090 0.192-0.164 0.025-0.060 0.019-0.222 0.005-0.288-0.030-0.156-0.151-0.332-0.26-0.455-0.14-0.156-0.367-0.228-0.562-0.291-0.151-0.047-0.269-0.156-0.417-0.208-0.085-0.030-0.197-0.011-0.288-0.011-0.118 0-0.238 0-0.359 0-0.082 0-0.164-0.014-0.241 0.027-0.074 0.041-0.115 0.107-0.195 0.151-0.11 0.058-0.173 0.099-0.238 0.206-0.049 0.079-0.079 0.156-0.099 0.247-0.027 0.118-0.011 0.2 0.027 0.296-0.055-0.071-0.112-0.134-0.178-0.195-0.129-0.123-0.249-0.252-0.365-0.389-0.164-0.184-0.362-0.299-0.546-0.455 0.090 0.005 0.181 0 0.214-0.008 0.151-0.038 0.299-0.123 0.444-0.178s0.302-0.121 0.422-0.217c0.071-0.052 0.118-0.134 0.192-0.184 0.088-0.060 0.304-0.099 0.392-0.121 0.104-0.030 0.208-0.049 0.318-0.055 0.033 0.011 0.063 0.027 0.088 0.055 0.17 0.082 0.367 0.066 0.524 0.159 0.096 0.055 0.162 0.112 0.269 0.151 0.112 0.038 0.236 0.047 0.354 0.069 0.052 0.008 0.099 0.014 0.154 0.033 0.164 0.052 0.389 0.085 0.54 0.167 0.123 0.071 0.214 0.189 0.337 0.247 0.077 0.025 0.137 0.069 0.186 0.132 0.069 0.060 0.151 0.099 0.244 0.112 0.115 0.038 0.222 0.093 0.34 0.121 0.228 0.058 0.428-0.014 0.622-0.134 0.236-0.145 0.507-0.192 0.751-0.315 0.11-0.055 0.208-0.121 0.313-0.186 0.074-0.047 0.148-0.121 0.225-0.159 0.23-0.11 0.499-0.129 0.746-0.129 0.2 0 0.387 0.047 0.578 0.101 0.14 0.038 0.214 0.036 0.233 0.175 0.008 0.049 0.014 0.137 0.003 0.189-0.025 0.107-0.112 0.167-0.184 0.247-0.126 0.137-0.26 0.271-0.458 0.31-0.2 0.038-0.502 0.022-0.688-0.030 0.151 0.121 0.403 0.143 0.507 0.318 0.047 0.074 0.071 0.126 0.156 0.154 0.090 0.027 0.195-0.016 0.277-0.044 0.071-0.025 0.123-0.019 0.189-0.038 0.085-0.022 0.159-0.071 0.252-0.090 0.343-0.071 0.713-0.118 1.036-0.255 0.154-0.066 0.154-0.074 0.090-0.219-0.027-0.055-0.063-0.093-0.093-0.145z"></path>
<path d="M9.202 10.605c0.074 0.066 0.099 0.14 0.192 0.093 0.003-0.003 0.005-0.005 0.008-0.008-0.008-0.008-0.019-0.016-0.036-0.025-0.033-0.016-0.129-0.063-0.164-0.060z"></path>
<path d="M9.812 10.638c-0.008-0.005-0.019-0.011-0.036-0.027-0.022-0.027-0.049-0.082-0.038-0.121zM9.258 10.966c0.011 0.060 0.041 0.112 0.049 0.173 0.005 0.069-0.033 0.134 0.058 0.162 0.101 0.030 0.156-0.118 0.244-0.134 0.038 0.049 0.101 0.055 0.14 0.101 0.036 0.038 0.038 0.079 0.079 0.118 0.058 0.058 0.058 0.047 0.104-0.014 0.038-0.052 0.077-0.137 0.115-0.195 0.036-0.058 0.036-0.107 0.052-0.17 0.049-0.014 0.134 0.022 0.148-0.036-0.071-0.027-0.159 0-0.236-0.008-0.003 0-0.005-0.003-0.011-0.003-0.008-0.003-0.014-0.008-0.022-0.008 0.008-0.036 0.077-0.047 0.112-0.069 0.058-0.036 0.101-0.088 0.156-0.132-0.003-0.011-0.186-0.066-0.291-0.093 0.047-0.033 0.090-0.071 0.093-0.082-0.066-0.030-0.184 0.066-0.228 0.027-0.063-0.058 0.058-0.134 0.038-0.195-0.019-0.058-0.143-0.058-0.195-0.030-0.022 0.014-0.121 0.096-0.121 0.101 0.085-0.003 0.074 0.036 0.058 0.077-0.019 0.011-0.041 0.019-0.063 0.030-0.049 0.025-0.088 0.074-0.137 0.104 0.033 0.030 0.011 0.055-0.030 0.101-0.101 0.126-0.189 0.14-0.34 0.178 0.011 0.079 0.181 0.016 0.225-0.005z"></path>
</svg>
