<!-- Generated by IcoMoon.io -->
<svg version="1.1" xmlns="http://www.w3.org/2000/svg" width="32" height="32" viewBox="0 0 32 32">
<title>show</title>
<path fill="#394852" d="M16 11.2c-3.39 0-5.973 0.577-8.019 1.941s-3.483 3.465-4.716 6.319l1.469 0.634c1.167-2.702 2.43-4.486 4.134-5.622 1.126-0.751 2.616-1.149 4.328-1.394-0.469 0.257-0.946 0.509-1.303 0.887-0.98 1.040-1.494 2.473-1.494 4.034s0.509 3.014 1.484 4.081c0.975 1.067 2.418 1.719 4.116 1.719s3.14-0.651 4.116-1.719c0.975-1.067 1.484-2.52 1.484-4.081s-0.513-2.994-1.494-4.034c-0.357-0.379-0.834-0.631-1.303-0.887 1.712 0.245 3.202 0.643 4.328 1.394 1.704 1.136 2.967 2.92 4.134 5.622l1.469-0.634c-1.233-2.854-2.669-4.955-4.716-6.319s-4.629-1.941-8.019-1.941zM16 13.912c1.312 0 2.274 0.44 2.944 1.15s1.056 1.721 1.056 2.938c0 1.216-0.391 2.265-1.066 3.003s-1.632 1.197-2.934 1.197c-1.302 0-2.26-0.459-2.934-1.197s-1.066-1.787-1.066-3.003c0-1.216 0.387-2.227 1.056-2.938s1.631-1.15 2.944-1.15z"></path>
</svg>
