<!-- Generated by IcoMoon.io -->
<svg version="1.1" xmlns="http://www.w3.org/2000/svg" width="32" height="32" viewBox="0 0 32 32">
<title>sibling_rivalry</title>
<path d="M7.911 27.061c-2.845-0.889-5.104-3.572-5.397-6.409l-0.114-1.103 2.277 1.015c1.252 0.558 4.144 1.842 6.425 2.851s4.148 1.892 4.148 1.959c0.001 0.251-1.684 1.227-2.755 1.595-1.286 0.442-3.329 0.483-4.584 0.090zM8.987 21.987l-6.563-2.932 0.125-0.789c0.172-1.087 1.163-3.099 1.843-3.74l0.563-0.531 6.368 2.833c3.502 1.558 6.373 2.922 6.379 3.030s-0.315 0.376-0.712 0.594l-0.723 0.397-1.416-1.373-2.015 0.851-1.413-1.24-0.615 0.364c-0.596 0.352-0.624 0.352-0.884-0.004-0.148-0.202-0.269-0.44-0.269-0.529 0-0.239-0.275-0.197-0.689 0.106-0.294 0.215-0.322 0.343-0.144 0.65 0.122 0.21 0.225 0.27 0.228 0.132 0.008-0.334 0.311-0.316 0.668 0.040 0.228 0.228 0.446 0.247 1.019 0.089 0.701-0.193 0.757-0.169 1.472 0.627 0.677 0.754 0.809 0.818 1.469 0.712 0.677-0.108 0.762-0.061 1.265 0.7 0.562 0.849 0.605 0.86 1.96 0.457 0.192-0.057 0.35-0.003 0.35 0.119 0 0.309-1.359 2.406-1.547 2.386-0.084-0.009-3.106-1.336-6.715-2.949zM25.489 24.020c-0.361-0.178-0.845-0.589-1.076-0.913-0.442-0.621-0.695-2.095-0.425-2.478 0.087-0.124 1.037-0.586 2.11-1.026l1.951-0.802 0.501 0.394c2.664 2.096-0.019 6.324-3.061 4.824zM23.846 19.395c0-0.198 0.097-0.457 0.215-0.575 0.154-0.154-0.012-0.864-0.583-2.489-2.694-7.672-3.431-9.852-3.431-10.154 0-0.186 0.135-0.514 0.3-0.727 0.297-0.384 0.303-0.384 0.6 0 0.299 0.387 0.375 0.309 0.313-0.32-0.045-0.457 0.262-0.603 0.653-0.311 0.179 0.134 1.229 2.852 2.333 6.041 2.484 7.174 2.372 6.897 2.8 6.897 0.287 0 0.597 0.362 0.597 0.698 0 0.111-3.214 1.3-3.515 1.3-0.156 0-0.283-0.162-0.283-0.36zM11.474 16.405l-6.075-2.72 0.577-0.46c0.318-0.253 1.054-0.61 1.637-0.794 1.268-0.399 1.288-0.393 5.038 1.328 1.484 0.681 2.998 1.369 3.364 1.527 0.494 0.214 0.786 0.556 1.136 1.329 0.522 1.154 0.837 2.548 0.571 2.525-0.095-0.008-2.906-1.239-6.248-2.735zM13.751 13.352c-0.88-0.426-1.701-0.779-1.825-0.784s-0.337-0.145-0.474-0.31c-0.351-0.423 0.080-0.9 0.815-0.9 0.533 0 0.661-0.194 2.21-3.348 1.633-3.324 1.646-3.343 1.759-2.555l0.114 0.794 0.246-0.544c0.264-0.584 0.654-0.732 0.654-0.249 0 0.224 0.151 0.265 0.631 0.169 0.358-0.072 0.584-0.048 0.523 0.055-0.456 0.768-3.153 6.588-3.153 6.804 0 0.151 0.087 0.274 0.193 0.274 0.37 0 0.655 0.8 0.396 1.112-0.305 0.367-0.215 0.389-2.088-0.518z"></path>
</svg>
