<!-- Generated by IcoMoon.io -->
<svg version="1.1" xmlns="http://www.w3.org/2000/svg" width="32" height="32" viewBox="0 0 32 32">
<title>sinking_ship</title>
<path d="M30.065 20.988c-0.691-1.028-2.070-1.928-2.955-1.928-0.404 0-1.826 0.548-3.16 1.219-3.294 1.654-4.098 1.642-7.436-0.115-3.352-1.764-4.286-1.885-7.792-1.009-2.852 0.713-3.877 0.708-5.006-0.026-0.642-0.417-1.565-2.141-1.851-3.457l-0.177-0.813 0.536 0.837c0.723 1.129 1.887 2.007 2.658 2.007 0.803 0 1.25-0.851 1.851-3.521 0.736-3.27 1.507-4.661 3.135-5.653 1.906-1.162 4.27-0.328 4.716 1.665l0.168 0.752-0.565-0.566c-0.311-0.311-0.82-0.527-1.131-0.481-1.407 0.21-2.306 3.135-1.465 4.762 0.614 1.186 0.938 1.293 1.269 0.417 0.651-1.723 2.525-3.064 4.283-3.064 0.841 0 1.2 0.157 1.639 0.714 0.698 0.887 0.724 1.288 0.058 0.871-0.688-0.429-1.283-0.148-1.929 0.912-0.733 1.202-0.692 2.257 0.12 3.069 0.851 0.851 1.099 0.838 1.173-0.064 0.178-2.151 3.264-3.92 4.485-2.57 0.609 0.673 0.565 0.806-0.219 0.656-0.552-0.106-0.746 0.038-1.12 0.822-0.497 1.041-0.346 2.361 0.27 2.361 0.203 0 1.065-0.319 1.916-0.709 1.234-0.565 1.84-0.684 2.987-0.589 1.905 0.158 2.754 0.766 3.574 2.557 0.756 1.65 0.741 2.089-0.032 0.939z"></path>
<path d="M18.179 25.005c-0.417-0.12-1.601-1.012-2.631-1.983-2.67-2.519-3.604-2.611-8.221-0.807-3.681 1.438-4.799 1.096-5.444-1.664l-0.19-0.813 0.632 0.576c1.591 1.45 3.083 1.543 6.006 0.372 2.83-1.133 4.308-1.105 6.039 0.117 3.085 2.178 3.668 2.447 5.303 2.447 1.348 0 1.919-0.189 4.282-1.418 1.5-0.78 3.009-1.418 3.355-1.418 0.814 0 1.951 0.903 2.502 1.988l0.435 0.856-0.644-0.576c-0.833-0.745-1.699-1.185-2.331-1.185-0.277 0-1.413 0.565-2.523 1.255-3.34 2.076-5.089 2.675-6.57 2.252z"></path>
<path d="M17.012 27.288c-0.58-0.391-1.524-1.134-2.099-1.651-2.3-2.068-4-2.145-7.957-0.363-1.345 0.605-2.615 1.101-2.823 1.101-0.595 0-1.5-0.741-1.662-1.362-0.118-0.451-0.074-0.504 0.218-0.262 0.721 0.598 2.391 0.342 4.575-0.702 2.358-1.127 4.533-1.482 5.61-0.915 0.356 0.187 1.642 1.060 2.857 1.939 1.316 0.952 2.603 1.662 3.185 1.756 1.079 0.175 2.879-0.397 4.56-1.451 1.395-0.874 1.278-0.369-0.193 0.837-2.371 1.943-4.454 2.299-6.271 1.073z"></path>
</svg>
