<!-- Generated by IcoMoon.io -->
<svg version="1.1" xmlns="http://www.w3.org/2000/svg" width="31" height="32" viewBox="0 0 31 32">
<title>sins_of_the_past</title>
<path d="M24.969 20.878c-0.16-0.151-0.357-0.263-0.518-0.412-0.077-0.072-0.143-0.169-0.227-0.232-0.14-0.107-0.377-0.035-0.527 0.016-0.205 0.071-0.424 0.092-0.623 0.19-0.165 0.082-0.296 0.133-0.449 0.016-0.183-0.137-0.352-0.315-0.518-0.472-0.123-0.115-0.273-0.197-0.385-0.321-0.287-0.318-0.66-0.559-0.976-0.848-0.561-0.512-1.137-1.005-1.682-1.536-0.236-0.229-0.442-0.483-0.667-0.722-0.129-0.137-0.26-0.253-0.414-0.359-0.045-0.031-0.145-0.054-0.125-0.127-0.337 0.125-0.259 0.164-0.216 0.217 0.052 0.063 0.087 0.141 0.131 0.21 0.071 0.109 0.116 0.235 0.19 0.341 0.048 0.067 0.12 0.125 0.172 0.188 0.138 0.167 0.265 0.35 0.392 0.525 0.217 0.299 0.455 0.579 0.674 0.876 0.496 0.673 0.979 1.355 1.47 2.033 0.116 0.16 0.222 0.313 0.301 0.497 0.042 0.097 0.077 0.154 0.141 0.245 0.108 0.153 0.224 0.379 0.242 0.569 0.011 0.11-0.043 0.171-0.087 0.266-0.075 0.166-0.1 0.361-0.157 0.534-0.033 0.098-0.063 0.194-0.048 0.299 0.016 0.113 0.038 0.096 0.142 0.151 0.093 0.050 0.212 0.109 0.286 0.184 0.129 0.131 0.223 0.314 0.343 0.457 0.067 0.079 0.085 0.16 0.141 0.237 0.028 0.039 0.018 0.085 0.087 0.075 0.118-0.017 0.216-0.305 0.296-0.393 0.061-0.068 0.161-0.215 0.237-0.261 0.072-0.042 0.159-0.066 0.236-0.113 0.389-0.234 0.825-0.503 1.154-0.814 0.307-0.289 0.579-0.627 0.807-0.979 0.072-0.112 0.199-0.247 0.236-0.377 0.025-0.091 0.003-0.1-0.060-0.16z"></path>
<path d="M12.726 16.255c-0.166 0.135-0.357 0.235-0.513 0.383-0.221 0.208-0.401 0.457-0.615 0.672-0.268 0.271-0.577 0.489-0.851 0.754-0.174 0.169-0.376 0.302-0.557 0.463-0.163 0.143-0.346 0.264-0.509 0.409-0.080 0.071-0.162 0.133-0.246 0.2-0.060 0.048-0.15 0.086-0.199 0.145-0.039 0.049-0.057 0.102-0.096 0.152-0.153 0.196-0.411 0.366-0.608 0.522-0.114 0.089-0.238 0.161-0.349 0.253-0.093 0.077-0.171 0.155-0.277 0.214-0.042 0.024-0.053 0.021-0.092 0.055-0.1 0.088-0.050 0.102-0.179 0.049-0.251-0.105-0.536-0.139-0.792-0.241-0.13-0.052-0.204-0.13-0.336-0.054-0.212 0.123-0.383 0.339-0.523 0.536-0.091 0.131-0.27 0.258-0.297 0.419-0.015 0.082-0.036-0.006 0.005 0.1 0.030 0.083 0.179 0.202 0.235 0.271 0.137 0.167 0.279 0.301 0.385 0.492 0.066 0.122 0.147 0.236 0.245 0.34 0.426 0.453 0.779 0.989 1.258 1.39 0.221 0.185 0.429 0.348 0.684 0.478 0.1 0.051 0.199 0.109 0.293 0.17 0.055 0.037 0.158 0.154 0.216 0.164 0.159 0.024 0.199-0.198 0.319-0.288 0.162-0.123 0.349-0.18 0.553-0.188 0.090-0.003 0.28 0.003 0.324-0.090 0.045-0.1-0.004-0.326-0.005-0.43 0-0.067-0.005-0.137-0.002-0.204 0.002-0.064 0.065-0.212 0.045-0.273-0.005-0.011-0.046-0.037-0.055-0.047-0.147-0.15-0.353-0.239-0.499-0.396-0.14-0.151-0.208-0.337-0.303-0.515-0.048-0.088-0.088-0.144-0.095-0.246-0.013-0.192 0.008-0.311 0.117-0.478 0.173-0.265 0.367-0.51 0.559-0.761 0.183-0.238 0.353-0.488 0.541-0.722 0.092-0.113 0.199-0.211 0.292-0.323 0.145-0.17 0.258-0.361 0.399-0.533 0.064-0.078 0.101-0.161 0.159-0.245 0.071-0.103 0.17-0.191 0.234-0.299 0.072-0.122 0.098-0.253 0.189-0.367 0.115-0.145 0.189-0.278 0.286-0.438 0.126-0.21 0.285-0.413 0.431-0.61 0.075-0.1 0.145-0.186 0.196-0.302 0.037-0.085 0.093-0.155 0.13-0.236 0.091-0.2 0.152-0.427 0.105-0.478-0.107 0.027-0.123 0.070-0.202 0.134z"></path>
<path d="M27.239 10.84c0-0.224 0.005-0.429-0.037-0.648-0.050-0.262 0.009-0.538-0.015-0.802-0.023-0.259-0.043-0.497-0.043-0.759 0.001-0.308 0-0.616 0-0.924v-0.983c0-0.19 0.038-0.42-0.005-0.605-0.222-0.030-0.601-0.049-0.786 0.095-0.148 0.114-0.194 0.32-0.274 0.478-0.052 0.105-0.138 0.186-0.204 0.283-0.117 0.171-0.206 0.37-0.314 0.548-0.125 0.211-0.342 0.394-0.388 0.646-0.224 0.044-0.485 0.007-0.713 0.007h-2.701c-0.412 0-0.824 0-1.236 0-0.489 0-0.97 0.049-1.458 0.048-0.597-0.001-1.195 0-1.792 0 0.039-0.264 0.063-0.528 0.107-0.792 0.099-0.604 0.199-1.217 0.191-1.83-0.005-0.35 0.032-0.664 0.097-1.008 0.046-0.239 0.057-0.483 0.095-0.723 0.038-0.237 0.148-0.212 0.342-0.286 0.142-0.054 0.276-0.141 0.422-0.185 0.126-0.037 0.282-0.047 0.378-0.148-0.061-0.19-0.233-0.371-0.342-0.535-0.091-0.138-0.194-0.346-0.323-0.458-0.135-0.118-0.37-0.071-0.537-0.1-0.249-0.044-0.511-0.105-0.763-0.114-0.201-0.007-0.404 0.004-0.605 0.004-0.449-0.001-0.899 0-1.348 0-0.741-0.125-1.069 0.017-1.419 0.084-0.151 0.028-0.304 0.048-0.457 0.071-0.146 0.022-0.157 0.006-0.188 0.129-0.015 0.061 0.007 0.152 0.007 0.22 0 0.189-0.016 0.377-0.036 0.566-0.024 0.229-0.096 0.471-0.051 0.702 0.083 0.425 0.721 0.189 1.040 0.273 0.184 0.049 0.388 0.067 0.523 0.221 0.105 0.118 0.054 0.312 0.054 0.468 0.001 0.445 0.005 0.885-0.044 1.325-0.055 0.505-0.005 1.050-0.005 1.558 0.001 0.176-0.008 0.349-0.018 0.523-0.28-0.019-0.56-0.013-0.845-0.013-1.083 0-2.16-0.007-3.241-0.052-0.516-0.022-1.024-0.044-1.541-0.044h-1.467c-0.529 0-1.083 0.064-1.591-0.104-0.015-0.138-0.098-0.245-0.103-0.388-0.008-0.162 0.008-0.326 0.003-0.488-0.002-0.066 0.002-0.416-0.059-0.484-0.048-0.051-0.112-0.024-0.172-0.009-0.097 0.025-0.171 0.032-0.272 0.039-0.177 0.014-0.343 0.085-0.518 0.115-0.11 0.018-0.278-0.004-0.37 0.066 0 0.055 0.012 0.109 0.036 0.16 0.013 0.074 0.016 0.149 0.010 0.223 0.015 0.090 0.039 0.166 0.050 0.259 0.024 0.226 0.047 0.435 0.048 0.665 0 0.728 0.054 1.465-0.083 2.184-0.028 0.146-0.080 0.288-0.101 0.435-0.032 0.226-0.016 0.476-0.011 0.703 0.007 0.235 0.038 0.465 0.063 0.699 0.005 0.041-0.002 0.389 0.080 0.426 0.046 0.021 0.1-0.011 0.147-0.004 0.050 0.007 0.105 0.036 0.154 0.051 0.171 0.053 0.217 0.090 0.3-0.093 0.066-0.148 0.119-0.278 0.174-0.429 0.046-0.122 0.131-0.219 0.176-0.34 0.025-0.070 0.032-0.131 0.065-0.199 0.16-0.326 0.299-0.658 0.385-1.009 0.037-0.148 0.101-0.257 0.181-0.38 0.075-0.116 0.093-0.226 0.229-0.292 0.076-0.037 0.191-0.054 0.284-0.071 0.109-0.018 0.21-0.004 0.32-0.007 0.133-0.003 0.26-0.036 0.391-0.047 0.512-0.040 1.047-0.004 1.56-0.004h2.386c0.569 0 1.139 0.013 1.708 0.004 0.382-0.007 0.757-0.071 1.137-0.091 0.127-0.007 0.254-0.010 0.382-0.010-0.012 0.16-0.011 0.321-0.029 0.479-0.027 0.245-0.078 0.485-0.1 0.73-0.034 0.371-0.073 0.758-0.084 1.129-0.005 0.19 0.027 0.36-0.046 0.539-0.023 0.054-0.036 0.086-0.049 0.145-0.048 0.212-0.002 0.534-0.129 0.718-0.062 0.090-0.189 0.133-0.279 0.187-0.125 0.074-0.227 0.136-0.367 0.191-0.133 0.052-0.382 0.034-0.423 0.189-0.039 0.148 0.004 0.368 0.004 0.52 0 0.104-0.051 0.391 0.007 0.47 0.055 0.076 0.233 0.076 0.322 0.099 0.333 0.085 0.662 0.007 0.991 0.065 0.165 0.028 0.187 0.072 0.153 0.234-0.049 0.242-0.085 0.465-0.085 0.714 0 0.82-0.025 1.643-0.002 2.462 0.018 0.665 0.172 1.316 0.243 1.975 0.040 0.375 0.092 0.773 0.2 1.136 0.073 0.247 0.167 0.496 0.22 0.747 0.039 0.19 0.033 0.386 0.064 0.576 0.027 0.159 0.073 0.301 0.123 0.454 0.186 0.585 0.22 1.19 0.39 1.777 0.184 0.63 0.365 1.265 0.523 1.903 0.114 0.464 0.208 0.939 0.357 1.393 0.077 0.238 0.19 0.462 0.266 0.701 0.046 0.145 0.087 0.287 0.143 0.427 0.022 0.054 0.131 0.364 0.189 0.379 0.054-0.143 0.097-0.286 0.105-0.436 0.011-0.194 0.071-0.386 0.101-0.574 0.014-0.092-0.015-0.178 0.008-0.273 0.018-0.075 0.027-0.123 0.036-0.199 0.008-0.068 0.037-0.082 0.052-0.14 0.014-0.058-0.011-0.129-0.005-0.189 0.011-0.116 0.050-0.22 0.051-0.338 0.001-0.093-0.001-0.187-0.001-0.279v-2.165c0-0.329-0.007-0.643 0.062-0.968 0.027-0.13 0.027-0.24 0.033-0.371 0.008-0.164 0.053-0.318 0.051-0.486-0.003-0.23 0.009-0.448 0.036-0.677 0.026-0.218-0.003-0.436 0.021-0.654 0.023-0.202 0.034-0.392 0.036-0.596 0.003-0.236 0.046-0.466 0.052-0.701 0.024-0.897-0.038-1.779-0.109-2.671-0.026-0.326-0.084-0.646-0.122-0.97-0.048-0.415-0.078-0.829-0.157-1.241-0.056-0.299-0.152-0.64-0.089-0.948 0.122-0.038 0.3-0.007 0.429-0.007 0.387 0.003 0.748-0.067 1.127-0.133 0.027-0.004 0.314-0.023 0.347-0.067 0.034-0.046 0.007-0.254 0.007-0.287 0-0.153 0-0.305 0-0.458-0.001-0.084 0-0.168 0.003-0.252-0.035-0.061-0.052-0.062-0.123-0.089-0.155-0.060-0.314-0.106-0.464-0.183-0.188-0.097-0.351-0.172-0.563-0.21-0.261-0.048-0.457-0.065-0.698-0.176-0.087-0.040-0.341-0.076-0.4-0.166-0.040-0.062 0.020-0.165 0.030-0.225 0.024-0.124 0.032-0.25 0.059-0.374 0.029-0.129 0.084-0.245 0.118-0.373 0.044-0.161 0.026-0.332 0.026-0.498 0-0.364-0.034-0.741 0.011-1.102 0.036-0.288 0.073-0.576 0.11-0.864h0.061c0.372 0 0.741 0.014 1.111-0.035 0.35-0.046 0.698-0.085 1.051-0.109 0.237-0.015 0.481-0.042 0.717-0.083 0.373-0.063 0.734-0.060 1.112-0.061 0.927 0 1.855 0 2.783 0 0.402 0 0.961-0.084 1.327 0.13 0.241 0.142 0.247 0.487 0.333 0.727 0.063 0.18 0.126 0.36 0.194 0.54 0.072 0.188 0.080 0.371 0.178 0.554 0.047 0.088 0.104 0.203 0.19 0.263 0.095 0.064 0.137 0.018 0.242-0.003 0.285-0.057 0.581-0.047 0.87-0.114 0.028-0.201 0.002-0.425 0.002-0.629z"></path>
</svg>
