<!-- Generated by IcoMoon.io -->
<svg version="1.1" xmlns="http://www.w3.org/2000/svg" width="32" height="32" viewBox="0 0 32 32">
<title>skill_wild1</title>
<path d="M15.902 30.233c-0.437-0.11-0.892-0.436-1.228-0.879-0.285-0.376-0.355-0.507-0.539-1.022l-0.14-0.39-5.633-5.784c-3.098-3.181-5.633-5.805-5.633-5.832 0-0.025 1.104-1.211 2.454-2.633l2.454-2.586 0.075-0.41c0.173-0.944 0.43-1.577 0.95-2.338 0.786-1.15 1.915-1.908 3.964-2.661 0.183-0.068 0.425-0.304 1.874-1.836l1.663-1.758 1.717 1.715c1.127 1.125 1.749 1.715 1.809 1.715 0.050 0 0.375 0.070 0.721 0.155 0.993 0.244 2.144 0.737 2.894 1.239 1.327 0.889 2.098 2.259 2.39 4.251l0.076 0.519 4.735 4.746-5.891 5.55c-5.873 5.532-5.891 5.55-5.921 5.755-0.107 0.736-0.312 1.217-0.726 1.702-0.219 0.257-0.688 0.587-1.013 0.714-0.238 0.093-0.807 0.131-1.051 0.069zM16.814 29.347c0.29-0.144 0.662-0.511 0.824-0.812 0.38-0.705 0.374-2.151-0.011-2.972-0.128-0.272-0.569-0.725-0.816-0.837-0.526-0.239-1.142 0.018-1.653 0.686-0.161 0.211-0.192 0.294-0.275 0.735-0.138 0.733-0.154 0.967-0.097 1.383 0.092 0.673 0.329 1.188 0.722 1.569 0.399 0.387 0.853 0.473 1.307 0.247zM17.119 22.307c0.449-0.093 0.728-0.206 1.093-0.442 0.317-0.206 0.513-0.391 0.348-0.329-0.228 0.085-0.754 0.123-1.029 0.073-1.118-0.203-1.397-0.98-0.699-1.95 0.112-0.156 0.282-0.357 0.377-0.447 0.476-0.449 1.47-1.082 3.109-1.981 2.601-1.427 2.933-1.638 3.567-2.28 0.466-0.471 0.674-0.77 0.865-1.244 0.313-0.774 0.316-1.859 0.011-3.174-0.36-1.551-1.198-2.641-2.551-3.319-1.587-0.796-3.343-1.156-5.618-1.153-1.726 0.002-3.139 0.179-3.991 0.5-1.821 0.685-2.832 1.437-3.517 2.618-0.704 1.214-0.866 2.893-0.395 4.115 0.433 1.123 1.562 2.093 2.815 2.42 0.816 0.213 2.122 0.184 3.062-0.066 0.248-0.066 0.693-0.416 0.871-0.685 0.212-0.321 0.281-0.628 0.364-1.625 0.069-0.832 0.123-1.090 0.273-1.319 0.042-0.064 0.055-0.116 0.029-0.116s-0.246 0.083-0.491 0.184c-1.032 0.427-1.184 0.485-1.465 0.555-0.548 0.138-1.169 0.079-1.626-0.155-0.253-0.129-0.649-0.515-0.87-0.847-0.672-1.012-0.519-2.227 0.406-3.21 0.747-0.794 1.55-1.145 2.907-1.27 1.714-0.158 3.032 0.149 4.013 0.933 0.644 0.515 1.060 1.129 1.335 1.972 0.356 1.090 0.489 2.876 0.274 3.667-0.137 0.502-0.413 0.958-0.833 1.377-0.525 0.524-1.228 1.12-2.29 1.942-0.99 0.766-1.616 1.361-2.046 1.941-0.339 0.457-0.466 0.72-0.593 1.222-0.247 0.975 0.078 1.78 0.835 2.071 0.294 0.113 0.971 0.124 1.46 0.025z"></path>
</svg>
