<!-- Generated by IcoMoon.io -->
<svg version="1.1" xmlns="http://www.w3.org/2000/svg" width="32" height="32" viewBox="0 0 32 32">
<title>skill_willpower</title>
<path d="M13.453 29.334c-0.112-0.097-0.135-0.195-0.404-1.727l-0.284-1.625-1.618-1.589c-1.22-1.198-1.652-1.595-1.755-1.615-0.448-0.086-0.917-0.47-1.116-0.915-0.064-0.144-0.145-0.323-0.179-0.399s-1.357-1.414-2.94-2.974-2.879-2.85-2.879-2.865c0-0.016 1.635-1.664 3.632-3.664l3.633-3.635 0.048-0.452c0.027-0.248 0.091-0.579 0.142-0.735 0.144-0.435 0.577-1.054 1.096-1.568 0.77-0.761 1.373-1.114 2.511-1.469l0.61-0.19 2.258-2.247 1.891 1.892 0.251 0.028c1.616 0.18 3.007 0.657 4.156 1.426 1.439 0.963 2.231 2.518 2.509 4.928l0.069 0.599 5.061 5.065-2.972 2.905c-1.635 1.598-3.214 3.143-3.509 3.434l-0.536 0.529 0.075 0.225c0.078 0.234 0.055 0.392-0.070 0.495-0.034 0.028-0.325 0.147-0.648 0.264l-0.587 0.214-0.768 0.753c-0.422 0.414-1.72 1.684-2.883 2.821l-2.116 2.068-0.916-0.907-0.226 0.18c-0.124 0.099-0.437 0.331-0.694 0.516-0.514 0.369-0.643 0.404-0.842 0.234zM14.677 27.805c0.346-0.277 1.025-0.842 1.509-1.256 2.439-2.086 3.757-2.952 5.599-3.681 0.236-0.093 0.447-0.187 0.47-0.207 0.023-0.022-0.041-0.163-0.151-0.332-0.105-0.162-0.23-0.416-0.276-0.565-0.133-0.427-0.239-1.28-0.241-1.945-0.002-0.562 0.007-0.636 0.125-0.948 0.159-0.422 0.377-0.822 0.934-1.716 0.897-1.44 1.232-2.15 1.48-3.138 0.158-0.632 0.194-1.014 0.192-2.022-0.006-2.394-0.364-4.058-1.114-5.187-0.787-1.184-2.439-2.048-4.534-2.373-0.724-0.112-2.423-0.112-3.183 0.001-1.517 0.224-2.702 0.618-3.454 1.148-0.646 0.455-1.389 1.342-1.551 1.851-0.037 0.118-0.081 0.366-0.096 0.553-0.070 0.865-0.139 1.092-0.575 1.897-0.287 0.531-0.417 0.935-0.352 1.105 0.022 0.059 0.154 0.191 0.291 0.293 0.341 0.252 0.407 0.364 0.392 0.667-0.003 0.060-0.172 0.277-0.423 0.543-0.735 0.778-1.952 2.42-2.267 3.059-0.233 0.472-0.231 0.553 0.020 0.681 0.111 0.057 0.435 0.169 0.72 0.251 0.634 0.181 0.817 0.313 0.817 0.59 0 0.183-0.046 0.246-0.382 0.523-0.109 0.090-0.121 0.123-0.093 0.271 0.041 0.218 0.046 0.224 0.204 0.259 0.074 0.016 0.177 0.084 0.23 0.15 0.11 0.139 0.107 0.216-0.048 1.069-0.202 1.117-0.109 2.071 0.235 2.403 0.333 0.323 0.699 0.357 1.511 0.142 0.394-0.104 0.669-0.147 1.053-0.163 0.286-0.012 0.539-0.040 0.562-0.062s0.121-0.040 0.217-0.040c0.129 0 0.202 0.030 0.282 0.116 0.208 0.225 0.192 0.369-0.13 1.125-0.063 0.149-0.114 0.312-0.113 0.361 0.002 0.060 0.128 0.183 0.371 0.361 0.538 0.395 0.572 0.478 0.619 1.523 0.030 0.672 0.076 1.036 0.244 1.963 0.114 0.626 0.207 1.16 0.207 1.185 0 0.094 0.087 0.037 0.704-0.456z"></path>
</svg>
