<!-- Generated by IcoMoon.io -->
<svg version="1.1" xmlns="http://www.w3.org/2000/svg" width="32" height="32" viewBox="0 0 32 32">
<title>skill_agility_inverted1</title>
<path d="M16.175 2.268c-0.035 0.001 0.033 0.091 0.182 0.27 0.523 0.619 0.786 1.244 0.853 2.012l0.036 0.441-0.291 0.7c-0.548 1.316-1.209 2.617-1.778 3.506-0.193 0.259-0.327 0.572-0.376 0.914l-0.001 0.011c-0.057 0.284-0.139 0.768-0.178 1.077-0.078 0.636-0.174 2.247-0.132 2.311 0.014 0.021 0.068 0.004 0.117-0.036l1.205-1.095c0.988-0.9 1.127-1.042 1.266-1.312 0.213-0.402 0.633-0.825 0.924-0.924 0.225-0.061 0.485-0.1 0.753-0.107h0.004l0.533-0.025 0.249-0.345c0.231-0.32 0.249-0.356 0.245-0.59-0.003-0.153-0.015-0.3-0.038-0.445l0.002 0.018-0.032-0.178-0.302 0.011c-0.27 0.011-0.299 0.004-0.284-0.071 0.014-0.043 0.085-0.356 0.164-0.69 0.171-0.729 0.199-1.458 0.071-1.931-0.102-0.352-0.248-0.659-0.434-0.936l0.007 0.012c-0.071-0.082-0.078-0.078-0.167 0.036-0.089 0.107-0.099 0.11-0.291 0.053l-0.199-0.057-0.082-0.324c-0.185-0.754-0.74-1.465-1.596-2.044-0.26-0.176-0.396-0.264-0.431-0.263zM23.099 2.727c0.020 0.152 0.053 0.289 0.097 0.421 0.226 0.814 0.273 1.124 0.269 1.908 0 0.658-0.014 0.8-0.121 1.184-0.142 0.523-0.452 1.148-0.807 1.618-0.563 0.653-1.148 1.245-1.769 1.796l-0.019 0.017c-0.373 0.345-0.698 0.735-0.967 1.164l-0.014 0.024c-0.262 0.369-0.53 0.797-0.775 1.241l-0.036 0.071c-0.548 1.102-0.871 2.802-0.686 3.595 0.089 0.377 0.267 0.647 0.729 1.106 0.441 0.441 0.675 0.594 1.013 0.651 0.295 0.050 0.285 0.050 0.757-0.004l-0-0.004c0.221-0.020 0.425-0.066 0.618-0.137l-0.017 0.005c0.23-0.143 0.416-0.335 0.55-0.561l0.004-0.008c0.235-0.462 0.192-1.081-0.093-1.34-0.196-0.178-1.323-0.213-1.699-0.053-0.096 0.039-0.181 0.064-0.192 0.053-0.046-0.046 0.089-0.469 0.178-0.569 0.37-0.391 1.408-0.633 2.183-0.505 0.178 0.028 0.448 0.114 0.605 0.188 0.32 0.153 0.583 0.167 1.027 0.064 0.946-0.224 1.636-0.978 1.973-2.162 0.156-0.558 0.157-0.569-0.082-0.569-0.311-0.048-0.587-0.17-0.819-0.346-0.090-0.070-0.090-0.070 0.023-0.141 0.286-0.219 0.522-0.486 0.701-0.791l0.007-0.013c0.258-0.494 0.409-1.079 0.409-1.699 0-0.007 0-0.015 0-0.022 0.008-0.089 0.012-0.192 0.012-0.296 0-0.24-0.024-0.474-0.070-0.7l0.004 0.023c-0.085-0.38-0.327-0.917-0.469-1.045-0.096-0.085-0.1-0.085-0.192 0.036-0.107 0.135-0.313 0.252-0.434 0.252-0.092-0.008-0.177-0.025-0.258-0.049l0.009 0.002-0.164-0.046 0.22-0.437c0.124-0.242 0.253-0.562 0.292-0.711 0.26-1.042-0.295-2.116-1.508-2.916-0.141-0.103-0.302-0.201-0.471-0.286l-0.020-0.009zM13.36 13.638c-0.096 0-0.188 0.016-0.274 0.044-0.282 0.165-0.508 0.399-0.657 0.681l-0.005 0.009c-0.124 0.249-0.135 0.309-0.199 1.287-0.118 1.885-0.206 3.068-0.304 4.249l0.055-0.828c-0.021 0.324-0.071 0.69-0.107 0.818-0.114 0.363-0.409 0.771-0.924 1.276l-0.48 0.466 0.135 0.096c0.476 0.338 0.597 0.615 0.338 0.772-0.135 0.078-0.146 0.078-0.487-0.036-0.768-0.249-1.372-0.309-1.884-0.188-0.823 0.272-1.522 0.572-2.188 0.926l0.076-0.037c-0.647 0.384-0.889 0.725-0.921 1.28-0.001 0.030-0.002 0.065-0.002 0.099 0 0.172 0.016 0.341 0.047 0.504l-0.003-0.017 0.057 0.267 0.224 0.060c0.384 0.096 1.28 0.235 1.874 0.284l0.725 0.060c0.388 0.036 2.329 0.025 2.82-0.018l0-0.004c1.653-0.142 2.602-0.398 3.57-0.967 1.166-0.686 2.386-1.892 3.876-3.829l0.444-0.576 0.448 0.597c0.249 0.331 0.469 0.608 0.491 0.615 0.057 0.021 3.388-2.471 3.388-2.535 0-0.092-0.391-1.479-0.498-1.764l-0.099-0.263-0.167 0.316c-0.262 0.548-0.717 0.968-1.275 1.179l-0.016 0.005c-0.184 0.070-0.396 0.111-0.619 0.111-0.045 0-0.090-0.002-0.134-0.005l0.006 0c-0.020 0-0.045 0.001-0.069 0.001-0.352 0-0.689-0.062-1.002-0.175-0.646-0.186-0.919-0.311-1.262-0.566-0.615-0.513-1.030-1.248-1.122-2.080l-0.001-0.014-0.032-0.292-0.252-0.028c-0.668-0.075-1.227-0.306-2.016-0.828-0.139-0.1-0.298-0.199-0.464-0.288l-0.023-0.011c-0.021 0-0.064-0.036-0.092-0.071-0.19-0.192-0.402-0.361-0.633-0.504l-0.015-0.008c-0.103-0.046-0.222-0.072-0.348-0.072zM19.621 18.4c0.004 0.001 0.007 0.002 0.011 0.003l-0.020-0.006c0.003 0.001 0.006 0.002 0.009 0.003z"></path>
</svg>
