<!-- Generated by IcoMoon.io -->
<svg version="1.1" xmlns="http://www.w3.org/2000/svg" width="31" height="32" viewBox="0 0 31 32">
<title>sorcery</title>
<path d="M14.749 1.691c0.020 0.029-0.792 2.018-0.7 2.144 0.983 1.398-0.092 2.548 0.212 3.774 0.726 2.911-0.238 4.476-0.222 6.715 0.010 1.423 0.217 2.771 0.443 4.132 0.232 1.383-0.024 2.215 0 3.604 0.031 1.917 0.5 3.537 0.267 5.424-0.11 0.868-0.353 1.67-0.242 2.568 0.085 0.666 0.307 1.352 0.297 1.948-0.004-0.061-0.004-0.111 0.010-0.167 0.632 0.156 0.495-1.665 0.576-2.2 0.186-1.196 0.757-2.406 0.599-3.628-0.212-1.634-0.978-2.326-0.236-4.828 0.273-0.913-0.257-1.655-0.344-2.24-0.121-0.833 0.101-2.14 0.010-2.967-0.191-1.706 0.514-2.453 0.156-4.102-0.318-1.453 0-2.24 0-4.168 0-1.352 0.146-2.275 0.116-3.643-0.010-0.696-0.207-2.599-0.601-3.057-0.242 0.368-0.071 1.030-0.344 0.691z"></path>
<path d="M8.473 24.547c-0.262 0.238-0.651 0.222-0.908 0.42-0.328 0.242-0.328 0.504-0.434 0.867 1.064 0.187 0.167 2.024 0.625 2.694 0.314 0.455 0.47 0.222 0.823 0.288 0.51 0.101 0.484 0.227 0.842 0.455 0.415 0.262 0.909 0.176 1.292 0.488 0.232-0.262 0.526-0.387 0.767-0.655 0.207-0.227 0.378-0.495 0.601-0.717 0.288-0.288 0.731-0.489 0.969-0.807 0.363-0.489 0.045-0.666-0.076-1.191-0.115-0.479-0.090-0.924-0.337-1.372-0.363-0.677-1.792-1.307-2.614-1.071-0.050 0.011-0.090 0.288-0.191 0.349-0.111 0.066-0.469 0.135-0.606 0.177-0.318 0.116-0.681 0.287-0.752 0.075z"></path>
<path d="M22.58 26.757c0.035-0.040 0.080-0.080 0.116-0.122-0.036 0.041-0.081 0.081-0.116 0.122 0.903-0.868 1.196-1.292 0.191-2.054-0.217-0.167-0.549-0.337-0.771-0.434-0.106-0.050-0.267 0.026-0.399-0.040-0.227-0.111-0.348-0.353-0.595-0.434-0.696-0.231-1.533 0.101-2.073 0.419-0.606 0.359-1.257 0.399-1.469 1.217-0.162 0.606 0.191 1.125 0.096 1.58-0.116 0.499-0.595 0.686-0.162 1.261 0.359 0.495 1.297 0.575 1.837 0.767 0.566 0.206 1.070 0.222 1.665-0.111 0.616-0.343 1.090-2.356 1.68-2.165z"></path>
<path d="M2.271 26c0.359 0.193 0.314-0.252 0.484-0.448 0.333-0.389 0.793-0.601 1.252-0.783 0.924-0.368 1.842-1.009 2.66-1.569 0.384-0.262 0.787-0.545 1.195-0.752 0.222-0.12 0.727-0.363 1.005-0.337 0.287 0.026 0.348 0.282 0.625 0.287 0.444 0.011 2.351-1.332 2.568-0.818 0.344-0.045 0.717-0.056 1.066-0.125 0.257-0.051 0.58-0.278 0.842-0.278 0.167 0.015 0.162 0.182 0.278 0.191 0.873 0.081 1.741-0.029 2.629-0.106 0.156 0.404 1.983 0 2.417 0.029 1.040 0.070 2.245 0.408 3.023 1.191 0.479 0.479 0.59 0.384 1.276 0.63 0.843 0.302 1.696 0.641 2.569 0.929 0.413 0.135 0.832 0.267 1.245 0.398 0.359 0.106 0.535 0.333 0.767 0.444 0.248 0.111 0.736 0.101 0.802 0.413 0.944-0.66-2.764-2.861-3.168-3.198-1.019-0.858-2.507-1.559-3.769-1.927-0.636-0.187-1.215-0.208-1.847-0.333-0.811-0.162-1.533-0.561-2.361-0.712-0.62-0.106-1.226-0.127-1.851-0.182-0.802-0.064-1.529 0.076-2.326 0.051-1.408-0.051-2.517-0.151-3.88 0.248-0.712 0.212-1.554 0.297-2.21 0.636-0.45 0.233-0.747 0.611-1.12 0.893-1.045 0.793-2.074 1.413-3.022 2.311-0.635 0.596-1.17 1.066-1.443 1.887-0.161 0.475-0.081 0.969-0.288 1.418 0.267 0.212 0.585-0.167 0.878-0.302 0.005-0.061-0.005-0.111-0.293-0.086z"></path>
<path d="M10.108 7.363c-0.092 0.146 0.116 0.125 0.207 0.196 0.177 0.135 0.273 0.328 0.353 0.509 0.167 0.384 0.465 0.753 0.717 1.090 0.127 0.156 0.257 0.318 0.349 0.484 0.056 0.092 0.165 0.298 0.156 0.415-0.015 0.115-0.137 0.141-0.137 0.252-0.010 0.186 0.611 0.964 0.368 1.049 0.020 0.142 0.026 0.293 0.050 0.434 0.031 0.111 0.132 0.238 0.127 0.349 0 0.071-0.080 0.061-0.085 0.111-0.041 0.363 0.009 0.712 0.040 1.080-0.187 0.061-0.005 0.813-0.020 0.988-0.035 0.429-0.191 0.918-0.559 1.241-0.222 0.203-0.177 0.243-0.298 0.526-0.141 0.342-0.292 0.696-0.429 1.054-0.066 0.172-0.136 0.338-0.196 0.514-0.045 0.147-0.151 0.212-0.201 0.314-0.056 0.101-0.050 0.297-0.198 0.327 0.303 0.389 1.332-1.139 1.489-1.306 0.398-0.419 0.726-1.035 0.903-1.554 0.085-0.259 0.101-0.495 0.162-0.752 0.075-0.333 0.262-0.632 0.333-0.969 0.056-0.259 0.065-0.505 0.090-0.762 0.030-0.328-0.031-0.627-0.015-0.949 0.026-0.575 0.076-1.033-0.101-1.589-0.101-0.293-0.136-0.63-0.292-0.908-0.102-0.177-0.278-0.303-0.409-0.455-0.363-0.424-0.641-0.842-1.054-1.226-0.278-0.262-0.49-0.479-0.873-0.59-0.217-0.066-0.444-0.026-0.651-0.111-0.101 0.106 0.076 0.238 0.136 0.358 0.026 0 0.046-0.007 0.041-0.12z"></path>
<path d="M20.103 17.826c0.085-0.146-0.116-0.125-0.207-0.196-0.177-0.132-0.273-0.323-0.358-0.51-0.167-0.378-0.46-0.757-0.717-1.089-0.121-0.152-0.248-0.319-0.344-0.484-0.056-0.092-0.167-0.293-0.151-0.409 0.010-0.122 0.127-0.141 0.132-0.262 0.004-0.177-0.606-0.953-0.369-1.045-0.019-0.141-0.024-0.297-0.056-0.434-0.019-0.106-0.125-0.237-0.125-0.348 0.005-0.071 0.080-0.066 0.085-0.111 0.045-0.363-0.010-0.712-0.035-1.080 0.186-0.066 0.005-0.807 0.019-0.989 0.041-0.424 0.198-0.917 0.561-1.24 0.222-0.198 0.182-0.238 0.293-0.521 0.146-0.348 0.302-0.701 0.438-1.054 0.061-0.177 0.127-0.343 0.192-0.515 0.050-0.146 0.151-0.222 0.201-0.318 0.056-0.101 0.050-0.302 0.198-0.328-0.303-0.384-1.333 1.141-1.489 1.302-0.398 0.429-0.726 1.040-0.898 1.554-0.090 0.262-0.101 0.5-0.162 0.757-0.076 0.333-0.267 0.63-0.333 0.969-0.056 0.253-0.066 0.51-0.096 0.762-0.031 0.328 0.030 1.655 0.019 1.983-0.030 0.571-0.075 0 0.102 0.555 0.096 0.292 0.136 0.635 0.282 0.908 0.111 0.182 0.283 0.297 0.415 0.455 0.363 0.424 0.646 0.842 1.054 1.231 0.278 0.257 0.49 0.474 0.873 0.59 0.217 0.056 0.444 0.026 0.656 0.106 0.096-0.106-0.076-0.238-0.142-0.359-0.030-0.007-0.050 0-0.040 0.122z"></path>
</svg>
