<!-- Generated by IcoMoon.io -->
<svg version="1.1" xmlns="http://www.w3.org/2000/svg" width="32" height="32" viewBox="0 0 32 32">
<title>special_cards</title>
<path fill="#394852" d="M14.225 3.309c-1.485-0.398-3.033 0.494-3.431 1.978l-4.656 17.387c-0.398 1.485 0.493 3.030 1.978 3.428l9.659 2.587c1.485 0.398 3.033-0.494 3.431-1.978l4.656-17.387c0.398-1.485-0.494-3.030-1.978-3.428zM13.809 4.853l9.659 2.588c0.649 0.174 1.024 0.823 0.85 1.472l-4.659 17.384c-0.174 0.649-0.819 1.024-1.469 0.85l-9.659-2.587c-0.649-0.174-1.024-0.823-0.85-1.472l4.659-17.384c0.174-0.649 0.819-1.024 1.469-0.85z"></path>
<path fill="#394852" d="M17.25 11.341l-2.463 2.194-3.506-0.113 1.534 3.059-1.091 3.103 3.412-0.366 2.772 2.022 0.609-3.231 2.856-1.881-3.094-1.656zM16.494 14.159l0.469 1.422 1.288 0.691-1.178 0.775-0.266 1.409-1.225-0.894-1.509 0.163 0.478-1.356-0.634-1.259 1.459 0.047z"></path>
</svg>
