<!-- Generated by IcoMoon.io -->
<svg version="1.1" xmlns="http://www.w3.org/2000/svg" width="33" height="32" viewBox="0 0 33 32">
<title>spiders</title>
<path d="M18.249 9.556c0.066-0.001 0.114-0.013 0.176-0.034 0.081-0.029 0.139-0.070 0.206-0.12 0.1-0.076 0.211-0.131 0.302-0.218 0.064-0.061 0.142-0.104 0.205-0.163 0.054-0.049 0.086-0.123 0.134-0.18 0.057-0.067 0.137-0.137 0.173-0.219 0.022-0.050 0.034-0.108 0.053-0.158 0.051-0.139 0.111-0.252 0.188-0.377 0.059-0.098 0.126-0.188 0.177-0.292 0.027-0.054 0.067-0.105 0.091-0.161 0.016-0.041 0.025-0.090 0.037-0.131 0.048-0.181 0.048-0.363 0.085-0.543 0.020-0.102 0.051-0.2 0.102-0.289 0.062-0.108 0.124-0.225 0.194-0.329 0.068-0.101 0.167-0.173 0.258-0.253 0.086-0.074 0.145-0.155 0.243-0.214 0.113-0.067 0.219-0.134 0.326-0.209 0.123-0.086 0.262-0.139 0.391-0.215 0.106-0.063 0.215-0.118 0.328-0.17 0.086-0.040 0.157-0.067 0.224-0.134 0.106-0.104 0.249-0.171 0.362-0.268 0.115-0.1 0.255-0.185 0.386-0.264 0.118-0.072 0.24-0.086 0.377-0.102 0.231-0.026 0.468-0.029 0.701-0.034 0.51-0.010 1.021-0.001 1.532-0.001 0.293 0 0.586-0.003 0.879-0.001 0.094 0.001 0.181 0.023 0.271 0.049 0.162 0.048 0.328 0.080 0.487 0.132 0.223 0.073 0.435 0.194 0.641 0.302 0.234 0.125 0.473 0.249 0.698 0.387 0.152 0.094 0.319 0.157 0.484 0.224-0.062-0.003-0.125-0.002-0.187-0.002-0.316 0.001-0.631-0.010-0.947-0.016-0.605-0.013-1.21-0.003-1.816-0.003-0.271 0-0.541 0-0.812 0-0.202 0-0.388 0.020-0.588 0.049-0.099 0.013-0.186 0.047-0.277 0.082-0.115 0.044-0.188 0.131-0.269 0.221-0.111 0.12-0.223 0.225-0.35 0.328-0.15 0.12-0.282 0.218-0.389 0.378-0.163 0.242-0.397 0.387-0.65 0.526-0.264 0.145-0.537 0.245-0.831 0.314-0.059 0.013-0.063 0.013-0.096 0.052-0.047 0.057-0.082 0.13-0.13 0.19-0.133 0.165-0.219 0.36-0.341 0.532-0.091 0.128-0.2 0.234-0.298 0.354-0.078 0.096-0.15 0.187-0.238 0.276-0.070 0.070-0.135 0.162-0.163 0.259-0.025 0.090-0.006 0.197-0.013 0.289-0.016 0.274-0.043 0.519-0.24 0.726-0.059 0.062-0.131 0.11-0.196 0.167-0.059 0.050-0.096 0.106-0.147 0.161-0.070 0.072-0.142 0.154-0.218 0.218-0.085 0.071-0.161 0.157-0.247 0.225-0.048 0.038-0.104 0.052-0.152 0.086-0.025 0.020-0.047 0.074-0.085 0.067-0.013-0.042 0.002-0.085-0.001-0.128-0.006-0.081-0.030-0.196-0.068-0.269-0.019-0.023-0.035-0.047-0.052-0.072-0.023-0.041-0.037-0.084-0.044-0.129-0.018-0.057-0.059-0.081-0.084-0.134-0.025-0.054-0.023-0.11-0.063-0.158-0.046-0.054-0.125-0.073-0.181-0.114-0.162-0.116-0.254-0.31-0.535-0.487z"></path>
<path d="M19.897 11.516c0.113 0 0.228 0.010 0.339-0.002 0.317-0.033 0.635-0.157 0.917-0.299 0.453-0.228 0.866-0.516 1.343-0.698 0.206-0.078 0.389-0.201 0.587-0.301 0.317-0.162 0.658-0.248 1.008-0.305 0.301-0.049 0.625-0.023 0.93-0.023h0.512c0.044 0 0.13-0.016 0.171 0.002-0.147 0.104-0.345 0.161-0.505 0.239-0.145 0.071-0.281 0.159-0.427 0.228-0.17 0.078-0.316 0.191-0.486 0.273-0.1 0.048-0.205 0.076-0.303 0.127-0.049 0.026-0.105 0.040-0.154 0.067-0.052 0.029-0.096 0.058-0.154 0.076-0.205 0.059-0.438 0.092-0.618 0.211-0.094 0.062-0.153 0.163-0.238 0.238-0.171 0.151-0.372 0.245-0.569 0.355-0.096 0.054-0.182 0.121-0.274 0.18-0.070 0.044-0.143 0.085-0.209 0.137-0.027 0.023-0.029 0.033-0.042 0.062-0.022 0.052-0.048 0.111-0.077 0.164-0.047 0.087-0.116 0.154-0.183 0.226-0.084 0.091-0.22 0.139-0.334 0.187-0.089 0.037-0.178 0.071-0.269 0.099-0.025 0.007-0.153 0.023-0.168 0.070 0.016 0.048 0.086 0.047 0.128 0.056 0.173 0.041 0.338 0.111 0.511 0.152 0.211 0.049 0.427 0.074 0.639 0.125 0.137 0.033 0.269 0.077 0.406 0.108 0.168 0.039 0.338 0.063 0.507 0.094 0.462 0.080 0.89 0.259 1.342 0.369 0.341 0.083 0.675 0.162 1.027 0.183 0.148 0.010 0.296 0.001 0.443 0.023 0.126 0.020 0.225 0.071 0.33 0.138 0.163 0.102 0.311 0.226 0.459 0.348 0.183 0.152 0.373 0.287 0.531 0.464 0.201 0.226 0.429 0.422 0.653 0.625 0.231 0.21 0.503 0.409 0.673 0.675 0.081 0.128 0.129 0.24 0.135 0.393 0.004 0.123 0.019 0.228 0.056 0.345 0.042 0.131 0.078 0.264 0.1 0.402 0.021 0.129 0.023 0.257 0.062 0.383 0.053 0.165 0.095 0.333 0.133 0.502 0.073 0.328 0.161 0.646 0.247 0.97 0.063 0.234 0.166 0.459 0.219 0.694 0.044 0.196 0.052 0.4 0.085 0.597 0.027 0.151 0.064 0.3 0.090 0.449 0.020 0.12 0.010 0.242 0.010 0.362 0.001 0.176-0.001 0.348-0.024 0.522-0.037 0.291-0.113 0.574-0.142 0.866-0.039 0.388-0.052 0.778-0.124 1.162-0.067 0.354-0.185 0.688-0.329 1.018-0.059 0.138-0.105 0.277-0.159 0.416-0.019 0.051-0.020 0.087-0.027 0.139-0.009 0.097-0.035 0.195-0.049 0.291-0.034 0.215-0.113 0.388-0.234 0.57-0.1 0.152-0.229 0.285-0.345 0.424-0.105 0.128-0.207 0.259-0.31 0.388-0.099 0.124-0.195 0.254-0.302 0.368-0.118 0.124-0.245 0.234-0.372 0.349-0.199 0.182-0.367 0.382-0.536 0.591-0.292 0.355-0.674 0.659-1.067 0.896-0.207 0.125-0.419 0.244-0.634 0.357-0.092 0.047-0.188 0.099-0.29 0.127-0.011-0.048 0.007-0.097 0.020-0.144 0.11-0.402 0.31-0.759 0.511-1.123 0.235-0.428 0.495-0.833 0.765-1.238 0.209-0.311 0.412-0.616 0.645-0.908 0.138-0.169 0.29-0.355 0.365-0.564 0.073-0.204 0.168-0.392 0.23-0.601 0.124-0.425 0.253-0.846 0.359-1.275 0.040-0.159 0.082-0.315 0.13-0.47 0.015-0.048 0.059-0.154 0.067-0.219 0.006-0.049 0.002-0.095 0.013-0.145 0.014-0.070 0.035-0.139 0.057-0.207 0.015-0.049 0.047-0.108 0.043-0.161-0.004-0.033-0.017-0.053-0.030-0.081-0.039-0.080-0.068-0.161-0.097-0.244-0.134-0.383-0.254-0.77-0.329-1.169-0.068-0.369-0.076-0.74-0.096-1.114-0.015-0.255-0.048-0.508-0.089-0.763-0.052-0.326-0.071-0.66-0.143-0.983-0.032-0.144-0.070-0.286-0.091-0.431-0.029-0.195-0.048-0.392-0.081-0.586-0.030-0.195-0.070-0.392-0.148-0.574-0.015-0.038-0.024-0.052-0.056-0.083-0.134-0.135-0.303-0.236-0.463-0.339-0.32-0.206-0.664-0.381-1.008-0.543-0.266-0.125-0.541-0.238-0.812-0.35-0.186-0.077-0.362-0.165-0.554-0.221-0.204-0.059-0.359-0.188-0.53-0.309-0.154-0.109-0.305-0.206-0.47-0.295-0.11-0.059-0.215-0.129-0.326-0.186-0.027-0.013-0.048-0.033-0.075-0.039-0.046-0.010-0.109 0.016-0.15 0.029-0.139 0.043-0.276 0.076-0.42 0.092-0.186 0.023-0.367 0.023-0.553 0-0.23-0.026-0.451-0.086-0.678-0.13-0.161-0.033-0.311-0.054-0.473-0.056-0.046-0.001-0.043 0.002-0.070-0.033-0.022-0.029-0.030-0.059-0.042-0.092-0.037-0.1-0.064-0.209-0.089-0.313-0.037-0.154-0.039-0.302-0.057-0.457-0.002-0.023-0.018-0.044-0.020-0.066-0.006-0.067 0.028-0.128 0.057-0.186 0.061-0.123 0.137-0.23 0.166-0.367 0.024-0.115 0.029-0.239 0.019-0.357-0.010-0.128-0.071-0.216-0.113-0.333-0.034-0.095-0.052-0.215-0.066-0.315-0.010-0.073 0.013-0.134 0.046-0.311z"></path>
<path d="M13.235 9.852c-0.044-0.039-0.097-0.066-0.142-0.106-0.066-0.058-0.105-0.13-0.154-0.205-0.135-0.199-0.287-0.386-0.421-0.584-0.1-0.145-0.2-0.279-0.32-0.409-0.135-0.144-0.298-0.245-0.455-0.364-0.172-0.13-0.357-0.249-0.544-0.355-0.129-0.073-0.273-0.080-0.403-0.145-0.134-0.067-0.279-0.128-0.397-0.222-0.123-0.097-0.238-0.201-0.363-0.296-0.157-0.118-0.326-0.219-0.498-0.314-0.271-0.149-0.572-0.111-0.869-0.128-0.132-0.006-0.262-0.023-0.387-0.063-0.092-0.029-0.163-0.078-0.248-0.125-0.052-0.029-0.11-0.044-0.159-0.077-0.042-0.029-0.073-0.063-0.116-0.088-0.114-0.068-0.215-0.155-0.333-0.218-0.215-0.114-0.436-0.202-0.672-0.268-0.109-0.033-0.219-0.074-0.331-0.090-0.025-0.003-0.052 0.001-0.072-0.016-0.058 0.039-0.106 0.105-0.153 0.155-0.168 0.181-0.341 0.354-0.531 0.511-0.216 0.18-0.425 0.344-0.677 0.473-0.209 0.108-0.424 0.21-0.64 0.302-0.066 0.029-0.056 0.043-0.070 0.106-0.023 0.113-0.075 0.228-0.114 0.335-0.1 0.261-0.205 0.521-0.305 0.782-0.1 0.263-0.228 0.511-0.334 0.77-0.164 0.403-0.309 0.832-0.371 1.265-0.038 0.271-0.044 0.548-0.051 0.822-0.005 0.242-0.040 0.48-0.046 0.723-0.011 0.521-0.001 1.045-0.001 1.567v0.445c0 0.049-0.014 0.124 0.004 0.171 0.032-0.038 0.044-0.118 0.057-0.162 0.032-0.147 0.072-0.291 0.12-0.433 0.076-0.215 0.162-0.425 0.259-0.631 0.121-0.297 0.199-0.608 0.304-0.911 0.092-0.261 0.187-0.521 0.277-0.781 0.113-0.328 0.188-0.654 0.267-0.99 0.046-0.228 0.102-0.451 0.171-0.674 0.061-0.168 0.124-0.334 0.188-0.499 0.077-0.209 0.17-0.4 0.277-0.594 0.030-0.054 0.082-0.185 0.149-0.221 0.033-0.016 0.078-0.020 0.114-0.033 0.104-0.057 0.209-0.115 0.312-0.172 0.238-0.132 0.479-0.257 0.725-0.376 0.115-0.049 0.23-0.104 0.341-0.162 0.078-0.048 0.156-0.096 0.231-0.147 0.068-0.039 0.142-0.077 0.211-0.114 0.048-0.026 0.148-0.086 0.205-0.068 0.022 0.006 0.042 0.029 0.063 0.039 0.13 0.061 0.268 0.108 0.398 0.164 0.282 0.121 0.551 0.244 0.856 0.292 0.272 0.042 0.54 0.052 0.814 0.063 0.177 0.006 0.345 0.039 0.52 0.062 0.043 0.003 0.133 0.006 0.173 0.033 0.022 0.033 0.035 0.067 0.042 0.105 0.013 0.046 0.029 0.087 0.051 0.128 0.091 0.188 0.157 0.384 0.268 0.561 0.109 0.145 0.206 0.299 0.292 0.458 0.089 0.182 0.175 0.364 0.262 0.548 0.144 0.285 0.338 0.546 0.469 0.837 0.046 0.104 0.068 0.221 0.139 0.313 0.035 0.046 0.067 0.071 0.126 0.076 0.143 0.013 0.298-0.066 0.43-0.108 0.095-0.029 0.19-0.058 0.283-0.094 0.025-0.010 0.051-0.016 0.077-0.023 0.047-0.029 0.048-0.085 0.077-0.131 0.035-0.053 0.076-0.096 0.105-0.154 0.059-0.115 0.086-0.243 0.135-0.362 0.014-0.029 0.073-0.098 0.072-0.133l0.445 0.067c-0.048-0.016-0.097-0.092-0.137-0.127z"></path>
<path d="M11.845 12.29c-0.191 0.023-0.391 0.003-0.582 0.007-0.393 0.002-0.773-0.094-1.167-0.091-0.087 0-0.175-0.001-0.261-0.001-0.175 0.002-0.348 0.037-0.519 0.067-0.111 0.020-0.223 0.038-0.331 0.070-0.144 0.043-0.273 0.118-0.411 0.177-0.202 0.087-0.411 0.154-0.598 0.269-0.092 0.057-0.185 0.111-0.279 0.162-0.029 0.016-0.073 0.036-0.099 0.063-0.014 0.016-0.030 0.049-0.044 0.066-0.052 0.066-0.113 0.123-0.168 0.185-0.152 0.169-0.31 0.328-0.467 0.492-0.14 0.148-0.25 0.316-0.373 0.478-0.087 0.115-0.164 0.25-0.261 0.358-0.034 0.036-0.076 0.063-0.109 0.101-0.253 0.297-0.472 0.626-0.734 0.917-0.224 0.252-0.455 0.496-0.658 0.766-0.092 0.123-0.176 0.252-0.268 0.373-0.071 0.091-0.15 0.175-0.21 0.272-0.083 0.135-0.134 0.266-0.17 0.419-0.047 0.2-0.071 0.405-0.104 0.607-0.057 0.339-0.107 0.682-0.15 1.023-0.014 0.11-0.035 0.219-0.052 0.328-0.014 0.090-0.005 0.181-0.020 0.268-0.024 0.14-0.019 0.279-0.018 0.424 0.001 0.295 0.009 0.587-0.025 0.88-0.061 0.527-0.156 1.051-0.223 1.577-0.067 0.54-0.129 1.075-0.149 1.618-0.011 0.33-0.013 0.666-0.071 0.991-0.032 0.175-0.072 0.362-0.071 0.539 0.002 0.161 0.051 0.324 0.087 0.479 0.077 0.333 0.166 0.663 0.229 0.999 0.075 0.393 0.134 0.792 0.191 1.187 0.023 0.155 0.029 0.323 0.059 0.478 0.019 0.096 0.059 0.185 0.082 0.278 0.018 0.072 0.028 0.149 0.046 0.219 0.039 0.155 0.166 0.283 0.248 0.419-0.011-0.070-0.027-0.148-0.020-0.215 0.008-0.084 0.014-0.178 0.039-0.258 0.020-0.062 0.028-0.121 0.023-0.187-0.001-0.029-0.013-0.040-0.018-0.067-0.010-0.073-0.005-0.148-0.005-0.221 0-0.216 0-0.432 0-0.649 0-0.277 0.001-0.553 0-0.828 0-0.257-0.006-0.515 0.042-0.769 0.075-0.393 0.283-0.741 0.402-1.119 0.121-0.391 0.194-0.812 0.288-1.208 0.15-0.625 0.359-1.26 0.401-1.903 0.023-0.345 0.009-0.698 0.001-1.043-0.004-0.216 0.024-0.367 0.083-0.582 0.126-0.451 0.245-0.912 0.412-1.349 0.063-0.145 0.12-0.293 0.17-0.444 0.024-0.121 0.048-0.243 0.071-0.364 0.038-0.152 0.083-0.3 0.113-0.454 0.038-0.207 0.089-0.417 0.185-0.606 0.085-0.152 0.183-0.295 0.293-0.43 0.162-0.204 0.323-0.409 0.484-0.613 0.221-0.288 0.412-0.601 0.751-0.764 0.376-0.18 0.802-0.222 1.181-0.393 0.3-0.134 0.541-0.338 0.811-0.519 0.187-0.128 0.383-0.246 0.534-0.42 0.287-0.33 0.568-0.697 0.935-0.943 0.070-0.047 0.12-0.098 0.153-0.173 0.047-0.106 0.096-0.206 0.153-0.307 0.023-0.039 0.080-0.202 0.133-0.204l0.223-0.446c-0.066-0.001-0.124 0.010-0.19 0.016z"></path>
<path d="M19.808 14.923c0.032-0.010 0.047 0.016 0.070 0.029 0.077 0.047 0.15 0.095 0.226 0.143 0.296 0.186 0.594 0.369 0.892 0.557 0.261 0.163 0.516 0.329 0.755 0.524 0.22 0.18 0.417 0.382 0.655 0.54 0.197 0.13 0.398 0.258 0.592 0.395 0.111 0.078 0.233 0.139 0.331 0.23 0.020 0.020 0.033 0.029 0.042 0.052 0.010 0.026 0.009 0.076 0.015 0.101 0.029 0.133 0.054 0.264 0.081 0.397 0.081 0.391 0.2 0.771 0.281 1.162 0.072 0.349 0.116 0.697 0.248 1.031 0.072 0.182 0.139 0.383 0.239 0.553 0.080 0.134 0.156 0.265 0.23 0.403 0.096 0.178 0.201 0.349 0.288 0.532 0.053 0.113 0.097 0.226 0.14 0.341 0.025 0.064 0.056 0.135 0.061 0.205 0.013 0.144-0.002 0.297-0.019 0.44-0.071 0.569-0.319 1.090-0.46 1.641-0.080 0.314-0.176 0.627-0.285 0.928-0.077 0.216-0.253 0.416-0.381 0.602-0.145 0.212-0.288 0.425-0.429 0.64-0.092 0.143-0.192 0.288-0.268 0.443-0.049 0.101-0.085 0.207-0.126 0.313-0.080 0.2-0.162 0.403-0.253 0.598-0.104 0.221-0.215 0.435-0.345 0.641-0.039 0.064-0.081 0.127-0.115 0.194-0.020 0.042-0.033 0.088-0.059 0.125-0.025 0.037-0.063 0.061-0.090 0.098-0.056 0.078-0.11 0.161-0.168 0.24-0.124 0.173-0.239 0.334-0.391 0.484-0.092 0.091-0.197 0.166-0.286 0.261-0.090 0.099-0.205 0.187-0.331 0.234-0.015-0.029 0.004-0.073 0.013-0.104 0.040-0.123 0.116-0.238 0.183-0.348 0.095-0.155 0.2-0.305 0.3-0.456 0.147-0.221 0.272-0.453 0.403-0.683 0.13-0.228 0.247-0.464 0.331-0.712 0.11-0.32 0.277-0.612 0.364-0.941 0.037-0.142 0.090-0.271 0.14-0.407 0.068-0.181 0.1-0.376 0.159-0.559 0.059-0.185 0.11-0.367 0.152-0.556 0.043-0.199 0.105-0.392 0.154-0.589 0.076-0.299 0.1-0.606 0.145-0.908 0.009-0.057 0.027-0.113 0.032-0.169 0.005-0.048-0.001-0.094 0.007-0.14 0.014-0.078 0.037-0.182 0.019-0.263-0.007-0.029-0.028-0.044-0.046-0.068-0.044-0.062-0.075-0.142-0.105-0.211-0.092-0.219-0.166-0.449-0.23-0.678-0.076-0.273-0.111-0.55-0.149-0.831-0.033-0.236-0.084-0.464-0.139-0.697-0.042-0.175-0.057-0.353-0.102-0.527-0.092-0.348-0.196-0.693-0.298-1.038-0.039-0.135-0.077-0.271-0.119-0.405-0.025-0.084-0.039-0.2-0.085-0.274-0.039-0.066-0.109-0.067-0.175-0.102-0.123-0.063-0.229-0.149-0.336-0.234-0.116-0.092-0.249-0.168-0.347-0.282-0.080-0.094-0.15-0.195-0.233-0.287-0.108-0.123-0.216-0.242-0.31-0.376-0.124-0.181-0.279-0.334-0.425-0.497-0.11-0.124-0.2-0.259-0.296-0.393-0.056-0.077-0.111-0.161-0.172-0.235-0.090-0.111-0.243-0.172-0.371-0.23-0.048-0.023-0.13-0.038-0.144-0.094-0.013-0.056 0.038-0.129 0.063-0.173 0.105-0.18 0.239-0.338 0.474-0.607z"></path>
<path d="M15.53 28.5c-0.099-0.151-0.212-0.289-0.311-0.44-0.125-0.191-0.259-0.378-0.389-0.565-0.114-0.163-0.242-0.319-0.352-0.486-0.039-0.059-0.082-0.11-0.125-0.167-0.051-0.066-0.082-0.137-0.139-0.201-0.13-0.147-0.253-0.293-0.364-0.456-0.158-0.234-0.316-0.458-0.497-0.677-0.149-0.181-0.253-0.384-0.384-0.577-0.261-0.381-0.532-0.755-0.8-1.129-0.094-0.13-0.2-0.255-0.266-0.402-0.038-0.088-0.056-0.185-0.080-0.277-0.075-0.285-0.175-0.563-0.234-0.851-0.071-0.334-0.106-0.682-0.154-1.019-0.037-0.259-0.090-0.515-0.132-0.774-0.049-0.302-0.025-0.617-0.024-0.922v-0.422c0-0.043-0.009-0.092-0.001-0.134 0.008-0.049 0.044-0.098 0.064-0.143 0.153-0.35 0.328-0.688 0.486-1.036 0.11-0.239 0.242-0.467 0.331-0.716 0.066-0.18 0.134-0.36 0.21-0.536 0.057-0.129 0.137-0.23 0.221-0.341 0.032-0.042 0.097-0.099 0.094-0.158-0.002-0.029-0.030-0.065-0.042-0.094-0.019-0.046-0.027-0.077-0.028-0.129-0.006-0.161 0.014-0.319-0.032-0.477-0.023-0.072-0.046-0.145-0.067-0.219-0.038-0.129-0.111-0.161-0.229-0.206-0.064-0.026-0.126-0.029-0.187-0.067-0.029-0.016-0.051-0.038-0.086-0.043l-0.401-0.046c-0.205 0.111-0.398 0.281-0.556 0.448-0.191 0.201-0.381 0.412-0.546 0.634-0.078 0.105-0.171 0.205-0.244 0.314-0.292 0.43-0.422 0.94-0.561 1.434-0.089 0.314-0.167 0.63-0.25 0.945-0.072 0.268-0.158 0.534-0.231 0.802-0.080 0.286-0.183 0.555-0.307 0.826-0.033 0.073-0.016 0.151-0.006 0.235 0.046 0.382 0.199 0.737 0.266 1.114 0.077 0.44 0.21 0.87 0.319 1.301 0.107 0.432 0.274 0.85 0.453 1.257 0.1 0.228 0.258 0.472 0.264 0.728 0.001 0.020-0.009 0.049 0.002 0.070 0.001 0.002 0.027 0.016 0.028 0.016 0.024 0.029 0.046 0.054 0.067 0.083 0.11 0.149 0.229 0.286 0.35 0.425 0.084 0.097 0.169 0.191 0.261 0.281 0.152 0.148 0.324 0.271 0.482 0.414 0.255 0.23 0.512 0.459 0.765 0.694 0.162 0.149 0.352 0.259 0.532 0.383 0.169 0.118 0.334 0.24 0.512 0.344 0.333 0.194 0.665 0.387 0.995 0.583 0.132 0.078 0.269 0.137 0.407 0.202 0.18 0.086 0.339 0.194 0.498 0.314 0.302 0.23 0.655 0.438 0.89 0.741 0.009 0.013 0.015 0.023 0.024 0.037-0.066-0.144-0.116-0.303-0.205-0.433-0.107-0.155-0.186-0.325-0.29-0.483z"></path>
<path d="M11.34 11.589c-0.008-0.072-0.010-0.148-0.044-0.214-0.030-0.058-0.075-0.109-0.102-0.169-0.061-0.131-0.106-0.271-0.171-0.403-0.068-0.143-0.153-0.283-0.239-0.417-0.067-0.102-0.157-0.187-0.219-0.293-0.075-0.13-0.154-0.263-0.24-0.387-0.044-0.063-0.092-0.133-0.118-0.206-0.013-0.034-0.015-0.072-0.043-0.099l-0.378-0.023c-0.085 0.033-0.177 0.034-0.262 0.067-0.11 0.042-0.182 0.109-0.257 0.201-0.077 0.095-0.186 0.219-0.225 0.336-0.028 0.085-0.011 0.158-0.018 0.244-0.018 0.196-0.042 0.389-0.1 0.577-0.084 0.274-0.067 0.567-0.010 0.846 0.010 0.044 0.020 0.088 0.029 0.133 0.018 0.066 0.039 0.13 0.063 0.195 0.030 0.039 0.033 0.033 0.084 0.029 0.078-0.003 0.158-0.035 0.24-0.046 0.259-0.033 0.517-0.046 0.779-0.044 0.191 0.001 0.373-0.023 0.563-0.039 0.161-0.016 0.32-0.046 0.478-0.083 0.049-0.013 0.115-0.016 0.161-0.033 0.059-0.023 0.034-0.12 0.029-0.172z"></path>
<path d="M13.416 9.734c0.010-0.064-0.039-0.144-0.071-0.2-0.070-0.123-0.191-0.222-0.282-0.33-0.062-0.074-0.12-0.152-0.183-0.225-0.126-0.148-0.247-0.287-0.354-0.449-0.049-0.074-0.076-0.080-0.039-0.153 0.058-0.121 0.113-0.218 0.197-0.323 0.071-0.087 0.109-0.191 0.187-0.272 0.066-0.068 0.144-0.14 0.221-0.197 0.107-0.080 0.209-0.115 0.338-0.147 0.095-0.023 0.182-0.068 0.277-0.090 0.196-0.046 0.42-0.063 0.621-0.064 0.187-0.002 0.372-0.023 0.559-0.023 0.347 0.001 0.703-0.029 1.046 0.016 0.178 0.023 0.352 0.071 0.531 0.091 0.15 0.016 0.292 0.035 0.44 0.066 0.278 0.056 0.549 0.145 0.822 0.222 0.131 0.038 0.261 0.071 0.388 0.116 0.046 0.016 0.091 0.033 0.137 0.046 0.051 0.016 0.1 0.042 0.149 0.056 0.087 0.029 0.168 0.037 0.253 0.078 0.051 0.023 0.097 0.047 0.144 0.077 0.018 0.010 0.063 0.023 0.073 0.038 0.010 0.013-0.004 0.026 0.001 0.039 0.016 0.038 0.024 0.068 0.024 0.11 0.001 0.152-0.104 0.295-0.161 0.429-0.048 0.113-0.133 0.19-0.209 0.282-0.056 0.068-0.12 0.131-0.194 0.183-0.062 0.043-0.137 0.062-0.202 0.095-0.091 0.046-0.173 0.116-0.255 0.177-0.058 0.043-0.133 0.094-0.21 0.085-0.030-0.003-0.056-0.016-0.086-0.023-0.054-0.013-0.121-0.002-0.176-0.002-0.186 0.001-0.373 0-0.559 0h-1.207c-0.349 0-0.704-0.023-1.050 0.039-0.12 0.023-0.221 0.044-0.333 0.095s-0.218 0.086-0.335 0.124c-0.085 0.026-0.173 0.049-0.259 0.071-0.051 0.013-0.128 0.061-0.245-0.039z"></path>
<path d="M13.282 7.017c-0.067 0.065-0.162 0.061-0.244 0.087-0.161 0.052-0.312 0.151-0.464 0.224-0.087 0.043-0.176 0.115-0.249 0.177-0.032 0.029-0.064 0.094-0.111 0.095-0.038 0-0.086-0.049-0.113-0.071-0.043-0.035-0.092-0.071-0.132-0.113-0.102-0.106-0.138-0.272-0.201-0.403-0.072-0.149-0.18-0.259-0.266-0.398-0.067-0.108-0.126-0.219-0.195-0.325-0.027-0.041-0.048-0.086-0.072-0.127-0.042-0.067-0.092-0.138-0.14-0.2-0.071-0.090-0.147-0.165-0.205-0.262-0.072-0.119-0.147-0.244-0.229-0.357-0.030-0.041-0.054-0.061-0.091-0.092-0.063-0.054-0.115-0.058-0.197-0.082-0.105-0.029-0.199-0.084-0.303-0.115-0.134-0.039-0.272-0.071-0.405-0.115-0.096-0.033-0.18-0.085-0.274-0.123-0.153-0.061-0.317-0.075-0.473-0.123-0.087-0.026-0.172-0.063-0.259-0.091-0.153-0.047-0.318-0.043-0.476-0.054-0.086-0.003-0.166-0.020-0.249-0.029-0.118-0.013-0.247 0-0.365 0-0.254 0-0.515-0.016-0.768 0.003-0.129 0.010-0.253 0.043-0.381 0.058-0.129 0.016-0.266 0.023-0.389 0.059-0.116 0.034-0.216 0.105-0.324 0.157-0.143 0.068-0.291 0.132-0.438 0.187-0.044 0.016-0.133 0.074-0.183 0.068-0.004-0.033 0.052-0.086 0.071-0.105 0.072-0.053 0.149-0.096 0.233-0.127 0.119-0.053 0.239-0.099 0.363-0.138 0.281-0.091 0.568-0.155 0.847-0.248 0.329-0.108 0.672-0.194 1.008-0.273 0.135-0.033 0.258-0.090 0.397-0.105 0.056-0.006 0.102-0.020 0.155-0.029 0.028-0.003 0.061 0.010 0.089 0.002 0.043-0.010 0.047-0.023 0.102-0.023 0.149-0.010 0.303 0 0.454 0 0.242 0 0.495-0.020 0.735 0.001 0.080 0.006 0.173 0.023 0.25 0.049 0.023 0.010 0.044 0.023 0.067 0.034 0.030 0.003 0.061 0.013 0.090 0.026 0.084 0.049 0.164 0.111 0.248 0.162 0.086 0.053 0.175 0.104 0.263 0.152 0.052 0.026 0.105 0.052 0.157 0.077l0.153 0.1c0.064 0.033 0.128 0.066 0.188 0.102 0.086 0.059 0.169 0.12 0.253 0.182 0.082 0.050 0.169 0.094 0.254 0.141 0.101 0.057 0.252 0.11 0.326 0.198 0.181 0.216 0.302 0.495 0.407 0.754 0.105 0.258 0.205 0.544 0.395 0.759 0.027 0.029 0.059 0.044 0.090 0.068 0.037 0.033 0.066 0.090 0.111 0.11 0.023 0.013 0.063 0.013 0.089 0.020 0.039 0.013 0.062 0.013 0.401 0.072z"></path>
<path d="M18.067 11.223c-0.028 0.162-0.221 0.257-0.373 0.248-0.078-0.003-0.161-0.057-0.228-0.099-0.085-0.053-0.109-0.158-0.096-0.253 0.008-0.052 0.033-0.084 0.056-0.129 0.022-0.043 0.033-0.090 0.066-0.128 0.059-0.068 0.125-0.070 0.228-0.053 0-0.003 0.001-0.010 0.002-0.013 0.047 0.010 0.091 0.026 0.133 0.054 0.052 0.035 0.105 0.053 0.144 0.1 0.058 0.066 0.084 0.183 0.068 0.273zM17.305 12.224c-0.011 0.088-0.070 0.147-0.139 0.192-0.038 0.026-0.072 0.041-0.118 0.052-0.034 0.010-0.059 0.013-0.096 0.013-0.029 0.001-0.049 0.013-0.077 0.020-0.095 0.016-0.223-0.013-0.297-0.063-0.042-0.029-0.068-0.064-0.104-0.1s-0.073-0.068-0.092-0.119c-0.029-0.084-0.061-0.185-0.024-0.269 0.008-0.016 0.015-0.029 0.025-0.044 0.015-0.029 0.032-0.035 0.052-0.058 0.023-0.026 0.024-0.039 0.059-0.054 0.016-0.007 0.051-0.026 0.016-0.071 0.108-0.056 0.258-0.033 0.379-0.033 0.048 0 0.111-0.010 0.158 0.001 0.047 0.013 0.104 0.039 0.14 0.068 0.038 0.029 0.057 0.067 0.084 0.106 0.005 0.010 0.025 0.033 0.029 0.043 0.004 0.013 0.001 0.020 0.004 0.029 0.001 0.007 0.011 0.033 0.013 0.037 0.018 0.084-0.001 0.173-0.013 0.253zM16.271 11.483c-0.030 0.016-0.063 0.046-0.094 0.053-0.035 0.010-0.076 0.003-0.113 0.003-0.066 0-0.153 0.016-0.216 0-0.013-0.002-0.018-0.013-0.032-0.016-0.018-0.003-0.032-0.001-0.051-0.013-0.033-0.020-0.039-0.054-0.049-0.087-0.023-0.076-0.070-0.141-0.104-0.215-0.018-0.042-0.015-0.077 0.009-0.116 0.023-0.035 0.057-0.102 0.138-0.082 0.018-0.023 0.056-0.026 0.081-0.035 0.044-0.016 0.078-0.013 0.125-0.013 0.082 0 0.148-0.002 0.223 0.033 0.066 0.029 0.138 0.098 0.166 0.166 0.011 0.026 0.015 0.059 0.027 0.090 0.008 0.016 0.015 0.020 0.015 0.042s-0.010 0.026-0.015 0.043c-0.023 0.075-0.037 0.109-0.11 0.148zM15.713 12.285c-0.019 0.048-0.028 0.106-0.061 0.148-0.029 0.035-0.064 0.074-0.1 0.102-0.061 0.049-0.128 0.059-0.2 0.084-0.066 0.023-0.142 0.013-0.21 0.013-0.066 0-0.125 0.010-0.182-0.020-0.038-0.020-0.091-0.041-0.116-0.078-0.028-0.040-0.029-0.074-0.044-0.116-0.006-0.016-0.023-0.033-0.027-0.048-0.004-0.020 0.001-0.047 0.001-0.067 0-0.048-0.005-0.096 0.008-0.14 0.016-0.053 0.038-0.105 0.063-0.154 0.022-0.041 0.035-0.085 0.062-0.125 0.011-0.020 0.033-0.029 0.046-0.047 0.006-0.010 0.009-0.023 0.015-0.029 0.014-0.016 0.032-0.020 0.051-0.033 0.010-0.007 0.025-0.026 0.038-0.033 0.014-0.007 0.034-0.002 0.049-0.003 0.030-0.007 0.048-0.013-0.018-0.047 0.001-0.003 0.002-0.010 0.004-0.013 0.116-0.016 0.23-0.034 0.344 0.001 0.106 0.034 0.194 0.077 0.244 0.178 0.046 0.091 0.053 0.181 0.053 0.281 0 0.057-0.001 0.096-0.020 0.151zM14.608 10.883c-0.040-0.010-0.106-0.062-0.123-0.1-0.020-0.044-0.008-0.113-0.008-0.162-0.001-0.116 0.059-0.232 0.181-0.252l-0.016-0.033c0.028 0 0.049-0.002 0.075 0.010 0.024 0.013 0.044 0.033 0.067 0.047 0.078 0.051 0.092 0.119 0.106 0.209 0.010 0.072-0.037 0.163-0.082 0.216-0.039 0.047-0.137 0.081-0.2 0.066zM15.453 10.461c-0.001-0.074 0.027-0.135 0.078-0.191 0.042-0.044 0.096-0.033 0.153-0.033l-0.066-0.066c0.030 0 0.068-0.007 0.097-0.002 0.047 0.010 0.1 0.048 0.135 0.078 0.070 0.061 0.114 0.162 0.115 0.253 0 0.048-0.024 0.121-0.070 0.148-0.039 0.023-0.135 0.002-0.18 0.003-0.054 0-0.101-0.013-0.154-0.016-0.051-0.003-0.049-0.010-0.081-0.046-0.035-0.042-0.028-0.072-0.029-0.128zM16.677 10.322c0-0.061 0.011-0.131 0.066-0.169 0.053-0.039 0.119-0.029 0.182-0.029l-0.049-0.049c0.027 0.003 0.049 0.023 0.072 0.034 0.052 0.023 0.101 0.040 0.143 0.081 0.066 0.064 0.085 0.143 0.084 0.235-0.002 0.075-0.016 0.143-0.092 0.171-0.068 0.026-0.161 0.003-0.23-0.007-0.057-0.010-0.124-0.026-0.154-0.080-0.033-0.056-0.020-0.124-0.020-0.186zM14.279 11.774c-0.038 0.088-0.091 0.182-0.201 0.186-0.056 0.002-0.114-0.001-0.169-0.001-0.052 0.001-0.102 0.003-0.143-0.026-0.022-0.016-0.054-0.033-0.070-0.054-0.023-0.029-0.044-0.111-0.047-0.148-0.006-0.085 0.002-0.149 0.051-0.221 0.043-0.066 0.102-0.116 0.182-0.128l0.049-0.049c0.015-0.067 0.152-0.029 0.192-0.016 0.034 0.010 0.104 0.033 0.129 0.059 0.029 0.029 0.038 0.085 0.047 0.123 0.022 0.088 0.018 0.192-0.020 0.278zM19.606 12.515c-0.028-0.233-0.121-0.45-0.238-0.65-0.077-0.129-0.142-0.259-0.231-0.381-0.058-0.080-0.129-0.144-0.19-0.221-0.048-0.061-0.056-0.128-0.068-0.204-0.011-0.073-0.046-0.144-0.052-0.219-0.005-0.057 0.008-0.116 0.002-0.173-0.014-0.153-0.062-0.354-0.177-0.462-0.075-0.068-0.149-0.115-0.245-0.149-0.143-0.051-0.282-0.115-0.43-0.153-0.129-0.033-0.264-0.041-0.395-0.071-0.037-0.007-0.075-0.026-0.113-0.023-0.077-0.054-0.133-0.068-0.183-0.084-0.089-0.026-0.176-0.016-0.264-0.033-0.066-0.013-0.12-0.016-0.187-0.016-0.066-0.002-0.125-0.023-0.19-0.023-0.185-0.007-0.371 0-0.555 0-0.14 0-0.283-0.007-0.424 0.003-0.15 0.013-0.286 0.078-0.432 0.104-0.205 0.033-0.42 0.033-0.627 0.053-0.12 0.013-0.239 0.020-0.357 0.049-0.11 0.029-0.2 0.074-0.298 0.128-0.119 0.067-0.209 0.151-0.298 0.249-0.048 0.052-0.102 0.094-0.135 0.158-0.022 0.040-0.025 0.078-0.038 0.121-0.043 0.134-0.126 0.243-0.148 0.387-0.020 0.129-0.049 0.269-0.094 0.392-0.028 0.080-0.078 0.154-0.113 0.233-0.018 0.040-0.039 0.073-0.061 0.109-0.063 0.101-0.149 0.196-0.229 0.285-0.085 0.093-0.135 0.222-0.166 0.34-0.051 0.2-0.102 0.409-0.101 0.615 0 0.064-0.006 0.121 0.020 0.181 0.015 0.033 0.030 0.063 0.046 0.095 0.040 0.088 0.097 0.182 0.15 0.262 0.082 0.124 0.199 0.291 0.36 0.291 0.144 0 0.25-0.078 0.377-0.135 0.034-0.016 0.076-0.034 0.116-0.023 0.054 0.016 0.043 0.059 0.043 0.108 0.004 0.177 0.032 0.372 0.068 0.545 0.029 0.139 0.029 0.282 0.066 0.42 0.054 0.196 0.053 0.405 0.111 0.599 0.035 0.12 0.067 0.273 0.138 0.379 0.061 0.091 0.135 0.161 0.22 0.228 0.086 0.067 0.145 0.162 0.245 0.214 0.056 0.029 0.116 0.059 0.173 0.087 0.029-0.048-0.018-0.153-0.029-0.205-0.025-0.133-0.043-0.267-0.077-0.398-0.033-0.131-0.054-0.244-0.047-0.381 0.002-0.038 0.013-0.066 0.020-0.102 0.014-0.062 0.006-0.134 0.014-0.198 0.008-0.061 0.006-0.121 0.013-0.182 0.006-0.063 0.030-0.127 0.043-0.19 0.027-0.125 0.034-0.265 0.071-0.388 0.037-0.118 0.11-0.225 0.152-0.34 0.040-0.111 0.105-0.173 0.201-0.239 0.040-0.029 0.101-0.042 0.134-0.080 0.024 0.016 0.016 0.033 0.022 0.057 0.006 0.033 0.013 0.070 0.019 0.105 0.020 0.092 0.057 0.147 0.115 0.22 0.056 0.068 0.124 0.119 0.201 0.167 0.027 0.020 0.058 0.035 0.091 0.046 0.028 0.007 0.052 0.020 0.072 0.041 0.034-0.001 0.028 0.003 0.037-0.029 0.013-0.042 0-0.111 0-0.157-0.001-0.080 0.027-0.148 0.047-0.225 0.015-0.057 0.035-0.102 0.097-0.118 0.025-0.007 0.049 0.001 0.076-0.001 0.053-0.003 0.104-0.020 0.158-0.023 0.068-0.003 0.135-0.016 0.204-0.023 0.063-0.003 0.081-0.034 0.135-0.047 0.025-0.007 0.061 0.001 0.086 0.001 0.080 0 0.159 0 0.239 0 0.094-0.001 0.181 0.023 0.276 0.023 0.066-0.001 0.13 0 0.196 0 0.105-0.001 0.171 0.118 0.224 0.195 0.044 0.066 0.1 0.105 0.134 0.183 0.028 0.066 0.054 0.147 0.071 0.216 0.078-0.095 0.119-0.255 0.15-0.37 0.019-0.068 0.052-0.13 0.064-0.2 0.005-0.033 0.013-0.1 0.064-0.088 0.018 0.048 0.11 0.094 0.145 0.129 0.046 0.046 0.085 0.105 0.121 0.157 0.1 0.142 0.11 0.368 0.095 0.535-0.005 0.063-0.022 0.116-0.023 0.182-0.002 0.087-0.002 0.162-0.015 0.248-0.013 0.078-0.028 0.144-0.053 0.219-0.019 0.058-0.014 0.092-0.023 0.152-0.013 0.070-0.061 0.13-0.082 0.197-0.020 0.061-0.037 0.123-0.059 0.183-0.028 0.072-0.102 0.162-0.078 0.243 0.046 0.010 0.095-0.042 0.13-0.064 0.046-0.029 0.091-0.049 0.138-0.074 0.078-0.040 0.138-0.082 0.196-0.148 0.109-0.124 0.2-0.261 0.281-0.405 0.082-0.144 0.133-0.296 0.202-0.446 0.051-0.108 0.078-0.205 0.104-0.32 0.019-0.090 0.061-0.166 0.063-0.259 0.002-0.108-0.001-0.216-0.001-0.325 0-0.042 0.008-0.090 0.001-0.131-0.005-0.023-0.019-0.038-0.024-0.063-0.009-0.034-0.008-0.065-0.022-0.101-0.011-0.029-0.024-0.057-0.024-0.088 0-0.071 0.039-0.095 0.101-0.11 0.085-0.020 0.177-0.013 0.257-0.046 0.086-0.037 0.080-0.087 0.111-0.166 0.023-0.057 0.028-0.113 0.043-0.167 0.023-0.078 0.053-0.134 0.044-0.216z"></path>
</svg>
