<!-- Generated by IcoMoon.io -->
<svg version="1.1" xmlns="http://www.w3.org/2000/svg" width="32" height="32" viewBox="0 0 32 32">
<title>spreading_corruption</title>
<path d="M16.090 15.699c-0.243 0.198-0.383 0.399-0.475 0.693-0.034 0.109-0.014 0.221 0.008 0.324 0.021 0.103 0.027 0.221 0.083 0.313 0.030 0.048 0.075 0.075 0.113 0.116 0.048 0.049 0.075 0.117 0.137 0.151 0.095 0.052 0.221 0.041 0.324 0.058 0.129 0.020 0.256 0.009 0.382-0.020 0.058-0.014 0.106-0.041 0.157-0.058 0.044-0.014 0.1-0.007 0.141-0.027 0.044-0.020 0.091-0.057 0.126-0.091 0.065-0.066 0.157-0.147 0.198-0.231 0.024-0.049 0.027-0.105 0.054-0.154 0.030-0.052 0.072-0.091 0.096-0.147 0.038-0.089 0.061-0.274 0.031-0.371-0.018-0.061-0.086-0.113-0.113-0.175-0.042-0.103-0.154-0.231-0.233-0.308-0.107-0.106-0.263-0.184-0.417-0.185-0.164-0.003-0.349-0.044-0.498 0.035-0.041 0.021-0.079 0.048-0.115 0.076z"></path>
<path d="M15.488 12.41c-0.079 0.255-0.201 0.485-0.349 0.656-0.109 0.126-0.214 0.222-0.356 0.308-0.147 0.091-0.31 0.107-0.431 0.238-0.106 0.113-0.208 0.364-0.307 0.505-0.182 0.262-0.427 0.593-0.491 0.911-0.061 0.303 0.045 0.629 0.066 0.931 0.023 0.31 0.054 0.557 0.201 0.822 0.25 0.454 0.588 0.963 1.113 1.136 0.683 0.225 1.344 0.32 2.030 0.098 0.365-0.117 0.639-0.18 0.91-0.419-0.175 0.844-1.6 1.167-2.311 0.938-0.458-0.147-1.021-0.236-1.42-0.516-0.433-0.307-0.798-0.772-1.055-1.219-0.198-0.348-0.382-0.929-0.272-1.327 0.078-0.277 0.158-0.458 0.184-0.771 0.025-0.308 0.068-0.617 0.211-0.895 0.246-0.479 0.815-0.672 1.174-1.052 0.385-0.407 0.658-0.813 0.327-1.324-0.297-0.458-0.876-0.669-1.412-0.581-0.371 0.062-0.495 0.277-0.645 0.601 0.025-0.467 0.281-0.942 0.748-1.069 0.778-0.212 1.211-0.226 1.81 0.335 0.424 0.399 0.46 1.11 0.276 1.696z"></path>
<path d="M18.67 13.91c0.215 0.26 0.498 0.386 0.703 0.678 0.204 0.29 0.427 0.521 0.584 0.842 0.28 0.576 0.388 1.199 0.356 1.85-0.031 0.636-0.023 1.211-0.282 1.803-0.226 0.519-0.611 0.878-0.98 1.3-0.283 0.324-0.74 0.721-0.837 1.158-0.081 0.356-0.024 1.065 0.082 1.41 0.263 0.861 1.499 0.342 2.018 0.055-0.166 0.092-0.652 0.035-0.839-0.013-0.468-0.119-1.018-0.355-0.881-0.997 0.112-0.522 0.504-1.020 0.87-1.39 0.181-0.184 0.41-0.279 0.593-0.438 0.181-0.156 0.222-0.382 0.378-0.562 0.188-0.216 0.379-0.3 0.481-0.587 0.082-0.229 0.091-0.488 0.132-0.723 0.141-0.803 0.362-1.704-0.004-2.492-0.154-0.33-0.368-0.668-0.577-0.965-0.287-0.41-0.675-0.918-1.115-1.177-0.352-0.209-1.057-0.379-1.437-0.147 0.386 0.147 0.659 0.315 0.755 0.395z"></path>
<path d="M17.882 12.333c-0.536 0.16-1.050 0.385-1.516 0.7-0.562 0.38-1.263 1.018-1.487 1.666-0.143 0.414-0.39 1.174 0.191 1.355 0.017-0.983 0.808-1.344 1.281-2.106 0.204-0.328 0.362-0.597 0.695-0.825 0.314-0.216 0.71-0.32 1.079-0.382 0.861-0.146 1.646-0.33 2.494-0.008 0.591 0.223 1.048 0.641 1.598 0.948 0.318 0.177 0.668 0.262 0.925 0.535 0.505 0.533 0.735 1.061 0.733 1.805 0 0.303 0.042 0.59 0.059 0.887 0.031 0.546-0.006 1.047-0.205 1.555-0.144 0.368-0.284 0.808-0.617 1.057-0.206 0.154-0.621 0.215-0.76 0.441 0.474 0.081 0.755 0.095 1.141-0.272 0.424-0.402 0.716-1.074 0.844-1.638 0.116-0.504 0.296-1.102 0.27-1.624-0.013-0.263-0.057-0.513-0.11-0.774-0.096-0.47-0.024-0.894-0.263-1.337-0.211-0.392-0.669-0.666-1.025-0.917-0.482-0.338-0.905-0.76-1.412-1.064-0.567-0.341-1.058-0.373-1.704-0.345-0.74 0.034-1.497 0.129-2.212 0.342z"></path>
<path d="M3.777 19.76c-0.158 0.665 0.315 1.682 0.775 2.136 0.62 0.611 1.218 1.289 2.021 1.67 0.31 0.147 0.516 0.221 0.876 0.232 0.379 0.013 0.731 0.14 1.139 0.109 0.301-0.023 0.922 0.035 1.127-0.216-0.451 1.122-3.040 1.308-3.863 0.676-0.293-0.225-0.508-0.554-0.779-0.786-0.366-0.314-0.525-0.724-0.826-1.095-0.436-0.539-0.842-1.154-0.996-1.84-0.167-0.744 0.086-1.383 0.379-2.055 0.091 0.245 0.291 1.226 0.147 1.17z"></path>
<path d="M18.718 18.152c0.083-0.629 0.463-1.252 0.226-1.898-0.113-0.311-0.301-0.614-0.54-0.844-0.122-0.116-0.257-0.219-0.413-0.283-0.051-0.020-0.365-0.055-0.338-0.037 0.182 0.13 0.403 0.392 0.56 0.574 0.109 0.124 0.209 0.257 0.257 0.423 0.252 0.87 0.009 2.14-0.673 2.761-0.125 0.113-0.252 0.229-0.383 0.341-0.284 0.243-0.584 0.474-0.9 0.654-0.239 0.136-0.554 0.221-0.823 0.263-0.917 0.143-1.676 0.372-2.632 0.228-0.936-0.141-1.836-0.484-2.692-0.888-0.451-0.212-0.963-0.554-1.246-0.98-0.287-0.43-0.407-0.989-0.559-1.46-0.344 0.482-0.050 1.167 0.255 1.593 0.433 0.608 0.939 1.216 1.515 1.696 0.488 0.406 1.342 0.539 1.952 0.573 0.563 0.033 1.151 0.061 1.713 0.009 0.669-0.062 1.313-0.235 1.987-0.27 0.547-0.030 1.013-0.351 1.444-0.679 0.53-0.405 1.068-0.925 1.242-1.584l0.001 0.040c0.023-0.075 0.037-0.151 0.047-0.229z"></path>
<path d="M24.631 21.385c-0.055 0.064-0.112 0.129-0.168 0.194-0.983 1.12-2.412 1.982-3.958 1.836-0.422-0.040-0.842 0.102-1.263 0.088-0.457-0.017-0.454-0.215-0.67-0.542 0.109 0.166 0.323 0.231 0.58 0.236 0.605 0.013 1.458-0.307 1.791-0.422 0.646-0.221 1.321-0.511 1.901-0.873 0.515-0.323 0.949-0.752 1.413-1.13 0.494-0.4 0.979-0.895 1.188-1.515 0.226-0.673 0.308-1.383 0.354-2.091 0.040-0.604-0.044-1.293 0.139-1.873 0.259-0.826 0.918-1.614 1.668-2.040 0.27-0.154 0.644-0.327 0.96-0.335 0.317-0.010 0.562 0.195 0.842 0.307 0.67 0.269 0.919 1.064 0.894 1.736-0.013 0.349-0.085 0.591-0.368 0.764-0.233 0.144-0.627 0.468-0.918 0.414 0.226-0.322 0.67-0.649 0.738-1.052 0.059-0.347-0.12-0.825-0.297-1.113-0.154-0.252-0.11-0.369-0.392-0.39-0.347-0.027-0.987 0.065-1.265 0.279-0.931 0.721-1.124 2.208-1.342 3.293-0.168 0.849-0.41 1.615-0.699 2.43-0.41 1.161-1.376 2.2-2.429 2.822-0.458 0.272-0.969 0.745-1.477 0.866-0.547 0.13-1.143 0.117-1.651 0.117h0.095z"></path>
<path d="M14.093 8.161c0.045 0.082 0.085 0.17 0.115 0.233 0.017 0.035 0.102 0.447 0.059 0.407-0.356-0.339-0.806-0.668-1.314-0.529-0.519 0.14-1.187 0.293-1.646 0.569-0.225 0.134-0.341 0.355-0.496 0.562-0.339 0.451-0.58 0.976-0.689 1.53-0.228 1.165-0.317 2.414-0.024 3.573 0.249 0.987 0.754 1.765 1.366 2.557 0.485 0.629 1.092 1.25 1.839 1.536-0.324 0.11-1.065 0.044-1.373-0.107-0.467-0.229-0.925-0.731-1.272-1.108-0.536-0.583-0.909-1.383-1.222-2.1-0.332-0.765-0.648-1.439-0.42-2.281 0.243-0.908 0.434-1.829 0.678-2.737 0.163-0.608 0.225-1.39 0.782-1.775 0.656-0.453 1.504-0.825 2.322-0.738 0.379 0.041 0.878-0.083 1.17 0.222 0.044 0.045 0.086 0.115 0.126 0.187z"></path>
<path d="M16.714 10.935c-0.033 0.15-0.075 0.298-0.139 0.443-0.187 0.42-0.488 0.81-0.836 1.11-0.424 0.364-0.979 1.004-1.614 0.922 0.092-0.306 0.562-0.44 0.782-0.644 0.262-0.242 0.487-0.604 0.707-0.867 0.315-0.375 0.46-0.881 0.523-1.371 0.045-0.344 0.034-0.76-0.016-1.099-0.331-2.253-3.026-4.618-5.396-3.567-0.625 0.277-0.878 0.694-1.317 1.165-0.249-0.833 0.386-1.573 1.167-1.721 0.529-0.1 1.146-0.123 1.655-0.286 0.422-0.134 0.352-0.11 0.736 0.107 0.199 0.112 0.468 0.139 0.687 0.185 0.416 0.086 0.85 0.14 1.228 0.304 0.365 0.16 0.542 0.385 0.827 0.646 0.372 0.339 0.383 0.654 0.583 1.092 0.14 0.308 0.328 0.57 0.444 0.912 0.307 0.898 0.174 1.772-0.023 2.666z"></path>
<path d="M20.075 20.075c-0.276 0.331-0.782 0.539-1.055 0.823-0.545 0.563-0.601 1.497-0.892 2.197-0.494 1.18-1.414 2.123-2.669 2.457-0.273 0.074-0.537 0.233-0.822 0.267-0.41 0.048-0.973 0.014-1.382-0.051-0.692-0.11-1.303-0.475-1.926-0.772-1.14-0.543-2.624-0.636-3.62 0.256-0.545 0.487-0.945 1.014-1.059 1.744-0.105 0.676 0.393 1.021 0.679 1.553-0.345 0.020-0.776 0-1.051-0.223-0.389-0.314-0.345-1.102-0.297-1.566 0.074-0.71 0.827-1.32 1.293-1.815 0.27-0.289 0.69-0.726 1.051-0.894 0.198-0.092 0.528-0.099 0.741-0.144 0.276-0.059 0.533-0.19 0.809-0.222 0.945-0.11 2.153 0.009 2.878 0.672 0.185 0.168 0.215 0.239 0.47 0.297 0.188 0.042 0.436 0.074 0.632 0.055 0.528-0.047 1.092-0.413 1.581-0.612 0.371-0.15 0.859-0.263 1.167-0.519 0.317-0.262 0.636-0.645 0.881-0.973 0.378-0.504 0.654-1.048 1.033-1.538 0.433-0.56 0.897-1.465 1.748-1.427-0.016 0.17-0.086 0.311-0.19 0.436z"></path>
<path d="M20.723 10.13c0.948-0.253 2.052-0.498 3.007-0.191 0.769 0.248 1.676 0.815 2.509 0.75 0.389-0.031 0.775-0.294 1.069-0.53 0.437-0.351 1.035-0.54 1.441-0.938 0.603-0.59 0.491-1.437 0.291-2.156-0.044-0.163-0.033-0.366-0.11-0.522-0.048-0.093-0.16-0.12-0.215-0.201-0.072-0.105-0.058-0.182-0.107-0.3-0.133-0.313-0.279-0.505-0.211-0.87 0.093-0.498 0.313-0.888 0.789-1.085 0.263-0.107 0.454-0.14 0.666 0.057 0.243 0.223 0.195 0.478 0.308 0.733 0.211-0.167 0.147-0.774 0.004-0.965-0.204-0.274-0.979-0.581-1.303-0.494-1.235 0.331-1.502 2.085-1.099 3.091 0.238 0.594 0.488 1.040 0.184 1.678-0.257 0.542-0.703 0.975-1.273 1.165-0.731 0.246-1.283-0.011-1.972-0.205-1.042-0.294-2.202-0.181-3.249 0.025-0.573 0.112-1.099 0.31-1.649 0.478-0.58 0.177-1.030 0.281-1.472 0.744-0.294 0.306-0.303 0.731-0.554 1.023 0.965-0.552 1.874-1.001 2.945-1.287z"></path>
<path d="M17.833 11.304c0.181-0.345 0.39-0.612 0.506-0.997 0.136-0.455 0.262-0.878 0.345-1.349 0.079-0.455 0.099-0.925 0.028-1.383-0.068-0.433-0.277-0.789-0.396-1.204-0.201-0.693-0.371-1.248-0.859-1.816-0.936-1.095-2.376-1.768-3.813-1.818-0.719-0.024-1.556 0.233-2.229 0.448-0.446 0.141-0.915 0.27-1.356 0.468-0.904 0.409-1.737 1.014-2.375 1.778-0.307 0.365-0.581 0.741-0.661 1.202-0.091 0.536-0.342 1.047-0.392 1.59-0.041 0.464 0.12 0.925 0.229 1.372 0.211 0.859 0.034 1.41-0.505 2.096-1.025 1.307-3.253 1.617-3.948-0.153-0.221-0.562 0.15-1.13 0.583-1.457-0.013 0.573-0.134 1.24 0.444 1.574 0.646 0.375 1.18 0.307 1.789-0.123 0.342-0.239 0.603-0.574 0.786-0.941 0.184-0.368 0.134-0.553 0.050-0.925-0.144-0.632-0.255-1.301-0.284-1.952-0.016-0.372 0.006-0.56 0.182-0.9 0.122-0.235 0.351-0.431 0.434-0.683 0.085-0.255 0.093-0.492 0.214-0.75 0.242-0.522 0.552-1.030 0.996-1.405 1.075-0.905 2.277-1.276 3.587-1.733 0.552-0.192 1.249-0.273 1.833-0.242 0.392 0.021 0.683 0.158 1.044 0.262 0.33 0.096 0.699 0.048 1.038 0.134 0.506 0.13 0.98 0.255 1.402 0.603 0.233 0.19 0.426 0.426 0.662 0.614 0.194 0.157 0.482 0.221 0.648 0.402 0.603 0.652 0.938 1.274 1.249 2.123 0.28 0.764 0.539 1.392 0.528 2.222-0.011 0.868-0.365 1.484-0.792 2.202-0.253 0.426-0.685 0.53-0.997 0.874-0.049-0.269 0.252-0.53 0.382-0.751z"></path>
<path d="M5.058 15.896c-1.086-0.569-3.054-0.127-3.038 1.364 0.003 0.26 0.011 1.044 0.173 1.171-0.079-1.109 0.979-2.317 2.147-1.904 0.771 0.272 1.194 0.809 1.379 1.577 0.161 0.669 0.16 1.42 0.675 1.942 0.573 0.584 1.115 1.25 1.847 1.637 0.307 0.163 0.713 0.153 1.050 0.214 0.253 0.044 0.73 0.201 0.914-0.025-0.277 0.091-0.663-0.132-0.9-0.269-0.478-0.277-0.847-0.641-1.211-1.064-0.642-0.747-1.154-1.478-1.625-2.337-0.245-0.447-0.156-0.955-0.427-1.385-0.239-0.378-0.581-0.71-0.983-0.921z"></path>
<path d="M27.778 17.729c-0.182 0.205-0.181 0.583-0.239 0.84-0.122 0.529-0.29 1.045-0.501 1.545-0.686 1.629-1.549 4.3-3.692 4.422-0.496 0.028-0.925 0.19-1.375 0.375-0.379 0.157-0.825 0.184-1.228 0.279-0.385 0.091-0.794 0.096-1.183 0.166-0.61 0.11-1.24 0.71-1.581 1.212-0.471 0.695-0.13 1.85 0.438 2.4 0.276 0.266 0.786 0.301 1.109 0.472 0.382 0.202 0.689 0.482 1.154 0.464 0.342-0.011 0.728-0.017 1.052-0.123 0.566-0.185 1.192-0.361 1.378-1.003 0.15-0.516 0.25-1.151 0.054-1.662-0.192-0.495-0.588-0.723-1.069-0.791 0.236-0.024 0.518 0.918 0.549 1.15 0.066 0.505-0.307 0.956-0.678 1.249-0.622 0.495-2.308 0.349-2.915-0.144-0.247-0.201-0.46-0.603-0.45-0.922 0.010-0.318 0.085-0.87 0.345-1.091 0.146-0.123 0.289-0.096 0.455-0.182 0.209-0.11 0.325-0.298 0.57-0.356 0.522-0.123 1.058-0.115 1.573-0.236 0.487-0.113 0.952-0.298 1.458-0.282 0.525 0.018 0.955-0.219 1.429-0.438 0.652-0.301 1.454-0.665 1.924-1.233 0.477-0.577 0.498-1.45 0.782-2.126 0.236-0.559 0.441-1.123 0.679-1.68 0.195-0.457 0.232-0.935 0.342-1.423 0.086-0.383 0.15-0.83-0.014-1.185-0.137-0.294-0.18-0.888-0.43-1.095 0.091 0.56 0.105 1.239 0.062 1.4z"></path>
<path d="M20.532 25.884c-0.313 0.173-0.629 0.16-0.975 0.167-0.347 0.007-0.635 0.143-0.962 0.279-0.342 0.144-0.614 0.409-0.966 0.546-0.195 0.075-0.403 0.107-0.587 0.219-0.219 0.13-0.359 0.352-0.562 0.504-0.181 0.136-0.403 0.208-0.591 0.332-0.201 0.134-0.283 0.328-0.426 0.505-0.419 0.518-1.062 0.885-1.702 1.081-0.707 0.214-1.281 0.546-2.038 0.477-0.678-0.064-1.338-0.051-1.883-0.545-0.243-0.221-0.433-0.44-0.539-0.757-0.19-0.564-0.283-0.98-0.079-1.564 0.195-0.562 0.747-1.037 1.369-0.949 0.356 0.049 1.477 0.878 1.103 1.342-0.003 0.003-0.567-0.669-0.656-0.731-0.301-0.204-0.86-0.372-1.14-0.044-0.144 0.167-0.141 0.584-0.161 0.796-0.054 0.593 0.436 1.317 0.965 1.6 0.364 0.194 0.877 0.139 1.266 0.040 0.506-0.13 0.984-0.187 1.467-0.422 0.395-0.192 0.866-0.48 1.177-0.792 0.202-0.204 0.389-0.468 0.636-0.646 0.501-0.358 1.078-0.605 1.587-0.969 0.383-0.274 0.846-0.393 1.269-0.586 0.379-0.174 0.71-0.335 1.122-0.389 0.728-0.095 1.373-0.291 2.123-0.252 0.103 0.383-0.782 0.629-0.972 0.873-0.038-0.006-0.009-0.025 0.154-0.115z"></path>
<path d="M20.421 8.273c0.066-0.321 0.117-0.61 0.347-0.894 0.151-0.19 0.359-0.315 0.52-0.498 0.403-0.454 0.762-0.826 0.769-1.474 0.011-0.948-0.638-2.265-1.607-2.501-0.436-0.106-0.812 0.058-1.229 0.12 0.512-0.552 1.348-0.847 2.074-0.525 0.938 0.417 1.252 1.461 1.472 2.368 0.093 0.385 0.147 0.846 0.031 1.233-0.117 0.386-0.424 0.716-0.622 1.055-0.192 0.331-0.48 0.553-0.835 0.697-0.266 0.107-0.758 0.15-0.921 0.417z"></path>
</svg>
