<!-- Generated by IcoMoon.io -->
<svg version="1.1" xmlns="http://www.w3.org/2000/svg" width="33" height="32" viewBox="0 0 33 32">
<title>star-outline1</title>
<path d="M20.916 22.944c0.363 0.505 0.424 1.166 0.16 1.729s-0.813 0.938-1.433 0.981c-0.572 0.040-1.127 0.060-1.667 0.060h-3.038c-0.504 0-1.041-0.020-1.609-0.060-0.621-0.043-1.169-0.419-1.433-0.983-0.209-0.445-0.214-0.952-0.027-1.394-0.302 0.382-0.757 0.622-1.255 0.648-0.622 0.032-1.213-0.275-1.543-0.804-0.529-0.847-1.058-1.675-1.586-2.484-0.017-0.025-0.032-0.051-0.048-0.077l-1.49-2.569c-0.321-0.553-0.307-1.238 0.035-1.778s0.956-0.845 1.593-0.791l2.223 0.188c0.054-0.023 0.107-0.046 0.16-0.068-0.172-0.049-0.385-0.089-0.649-0.108-0.042-0.003-0.084-0.008-0.126-0.014-0.378-0.057-0.934-0.093-1.695-0.093-0.613 0-1.18-0.328-1.486-0.859s-0.305-1.186 0.003-1.716c0.502-0.866 1.005-1.713 1.507-2.542l0.012-0.019c0.525-0.841 1.032-1.681 1.519-2.521 0.291-0.502 0.816-0.822 1.396-0.852s1.135 0.236 1.475 0.706c0.179 0.248 0.345 0.48 0.496 0.697-0.082-0.169-0.171-0.354-0.27-0.555-0.261-0.531-0.229-1.16 0.084-1.662s0.863-0.808 1.455-0.808h0.76c0.338-0.037 0.678-0.056 1.017-0.056 0.739 0 1.461 0.019 2.167 0.056h2.075c0.589 0 1.137 0.302 1.451 0.801s0.35 1.123 0.095 1.654c-0.108 0.225-0.221 0.45-0.339 0.673 0.107-0.16 0.222-0.333 0.346-0.52 0.319-0.48 0.858-0.768 1.434-0.766s1.113 0.294 1.429 0.777c0.557 0.852 1.074 1.724 1.552 2.615 0.483 0.831 0.984 1.663 1.504 2.496 0.308 0.493 0.345 1.108 0.099 1.634-0.236 0.506-0.704 0.864-1.251 0.962 0.429 0.108 0.808 0.379 1.046 0.769 0.338 0.554 0.335 1.252-0.009 1.802-0.52 0.832-1.022 1.664-1.504 2.496-0.473 0.882-0.985 1.763-1.534 2.642-0.333 0.533-0.932 0.841-1.56 0.802s-1.184-0.418-1.449-0.989l-0.571-1.23c0.031 0.114 0.064 0.228 0.097 0.343 0.103 0.322 0.235 0.578 0.383 0.785zM12.557 22.248c-0.183 0.208-0.323 0.406-0.427 0.591l0.427-0.591zM14.938 21.878l-1.49 2.066c0.535 0.037 1.032 0.056 1.49 0.056h3.038c0.497 0 1.013-0.019 1.548-0.056-0.268-0.372-0.478-0.8-0.631-1.284-0.153-0.521-0.287-1.042-0.401-1.564-0.076-0.558-0.134-1.098-0.172-1.619s-0.057-1.005-0.057-1.452c0.535 0.298 1.070 0.614 1.605 0.949l1.605 1.005 1.089 2.345c0.535-0.856 1.032-1.712 1.49-2.569 0.497-0.856 1.013-1.712 1.548-2.569-0.879 0.074-1.834-0.093-2.866-0.503s-1.93-0.819-2.694-1.229c0.802-0.484 1.395-0.819 1.777-1.005 0.42-0.186 0.764-0.298 1.032-0.335 0.306-0.075 0.65-0.112 1.032-0.112 0.42 0 1.032-0.056 1.834-0.168-0.535-0.856-1.051-1.712-1.548-2.569-0.459-0.856-0.955-1.694-1.49-2.513-0.42 0.633-0.745 1.117-0.974 1.452-0.191 0.298-0.401 0.558-0.631 0.782-0.268 0.261-0.592 0.521-0.974 0.782-0.382 0.223-0.994 0.596-1.834 1.117v-2.569c0-0.633 0.172-1.21 0.516-1.731 0.344-0.558 0.65-1.117 0.917-1.675h-2.121c-0.688-0.037-1.395-0.056-2.121-0.056-0.306 0-0.611 0.019-0.917 0.056h-0.86c0.42 0.856 0.707 1.47 0.86 1.843 0.191 0.335 0.306 0.651 0.344 0.949 0.076 0.261 0.115 0.596 0.115 1.005s0.038 1.098 0.115 2.066c-0.726-0.372-1.299-0.689-1.72-0.949-0.382-0.261-0.726-0.521-1.032-0.782-0.268-0.298-0.535-0.633-0.803-1.005-0.229-0.372-0.573-0.875-1.032-1.508-0.497 0.856-1.013 1.712-1.548 2.569-0.497 0.819-0.994 1.657-1.49 2.513 0.803 0 1.452 0.037 1.949 0.112 0.497 0.037 0.936 0.13 1.318 0.279 0.42 0.149 0.841 0.354 1.261 0.614 0.459 0.223 1.013 0.521 1.662 0.893-0.573 0.335-1.166 0.67-1.777 1.005-0.573 0.298-1.185 0.577-1.834 0.838l-2.637-0.223 1.49 2.569c0.535 0.819 1.070 1.657 1.605 2.513 0.382-0.782 1.051-1.526 2.006-2.234s1.815-1.284 2.58-1.731l-0.172 3.63z"></path>
</svg>
