<!-- Generated by IcoMoon.io -->
<svg version="1.1" xmlns="http://www.w3.org/2000/svg" width="33" height="32" viewBox="0 0 33 32">
<title>starfall</title>
<path d="M16.445 29.643c-0.123-0.213-0.268-0.473-0.322-0.579s-0.246-0.398-0.427-0.649c-0.181-0.251-0.498-0.773-0.705-1.159-0.388-0.724-0.763-1.212-1.044-1.357-0.106-0.055-0.196-0.177-0.265-0.359-0.157-0.418-0.613-1.162-0.941-1.536-0.331-0.377-0.44-0.672-0.356-0.964 0.108-0.378 0.309-0.567 0.706-0.662 0.136-0.033 0.159-0.017 0.192 0.134 0.021 0.094 0.139 0.327 0.262 0.518s0.349 0.603 0.5 0.914c0.152 0.312 0.33 0.658 0.396 0.769s0.196 0.398 0.288 0.637c0.143 0.37 0.457 0.981 0.766 1.493 0.145 0.24 0.418 0.366 0.755 0.347 0.248-0.014 0.311 0.002 0.337 0.084 0.018 0.056 0.055 0.101 0.084 0.101 0.084 0 0.738-1.148 1.093-1.916 0.147-0.318 0.322-0.53 1.042-1.257 0.697-0.704 1.116-1.181 1.375-1.566 0.030-0.044 0.305 0.17 0.367 0.286 0.053 0.099 0.019 0.202-0.206 0.622-0.307 0.573-0.704 1.178-1.177 1.797-0.609 0.797-0.775 1.078-1.323 2.236-0.687 1.455-0.785 1.723-0.745 2.038 0.034 0.259 0.014 0.287-0.257 0.365-0.166 0.048-0.179 0.037-0.396-0.337zM15.974 21.708c-0.111-0.027-0.343-0.078-0.516-0.114-0.442-0.091-1.371-0.521-1.824-0.844-0.411-0.293-1.023-0.939-1.348-1.421-0.317-0.47-0.764-1.442-0.837-1.821-0.085-0.439-0.085-1.57 0.001-2.026 0.095-0.505 0.993-2.27 1.357-2.669 0.516-0.564 1.319-1.056 1.928-1.179 0.156-0.032 0.417-0.084 0.579-0.117 0.168-0.034 0.867-0.051 1.62-0.041 1.262 0.017 1.342 0.025 1.675 0.163 1.001 0.415 1.888 1.218 2.368 2.142 0.598 1.151 0.767 1.981 0.711 3.513-0.026 0.706-0.048 0.845-0.208 1.27-0.24 0.638-0.318 0.783-0.677 1.259-0.541 0.719-1.045 1.113-1.927 1.509-0.315 0.141-0.699 0.283-0.855 0.314-0.391 0.079-1.801 0.122-2.048 0.062zM18.339 20.141c0.84-0.34 1.828-1.332 2.272-2.281 0.173-0.37 0.181-0.417 0.154-0.92-0.035-0.644-0.141-0.919-0.474-1.227-0.206-0.191-0.264-0.292-0.318-0.554-0.12-0.578-0.358-0.98-0.91-1.541-0.383-0.388-0.611-0.568-0.904-0.71l-0.392-0.19-0.911 0.032c-0.829 0.029-0.953 0.047-1.373 0.205-0.254 0.096-0.538 0.191-0.63 0.212-0.189 0.043-0.583 0.3-0.758 0.494-0.064 0.071-0.21 0.177-0.325 0.236-0.25 0.127-0.492 0.401-0.637 0.72-0.082 0.18-0.106 0.378-0.107 0.886-0.001 0.36 0.023 0.764 0.052 0.897 0.162 0.743 0.192 0.923 0.232 1.375 0.056 0.636 0.256 1.057 0.728 1.53 0.254 0.254 0.448 0.388 0.723 0.499 0.207 0.083 0.506 0.204 0.666 0.269 0.646 0.264 0.839 0.297 1.649 0.281 0.736-0.014 0.809-0.027 1.265-0.211zM15.349 19.377c-0.042-0.042-0.069-0.247-0.069-0.522 0-0.442-0.139-1.096-0.294-1.385-0.040-0.075-0.095-0.234-0.121-0.354s-0.073-0.328-0.103-0.463c-0.079-0.353-0.069-0.985 0.025-1.513 0.067-0.378 0.131-0.533 0.372-0.897 0.477-0.723 0.456-0.701 0.674-0.701 0.235 0 0.241 0.035 0.084 0.449-0.064 0.167-0.116 0.406-0.116 0.531s-0.041 0.388-0.092 0.585c-0.084 0.329-0.084 0.429 0.004 1.206 0.053 0.466 0.146 1.001 0.208 1.189 0.154 0.471 0.141 0.752-0.065 1.393-0.154 0.48-0.193 0.55-0.307 0.55-0.072 0-0.162-0.031-0.2-0.069zM17.314 18.94c-0.069-0.355-0.171-1.086-0.171-1.23-0-0.048-0.020-0.534-0.044-1.081-0.055-1.257 0.002-1.581 0.34-1.958 0.188-0.209 0.272-0.26 0.426-0.26 0.106 0 0.192 0.007 0.192 0.014s-0.039 0.236-0.087 0.506c-0.099 0.562-0.111 1.367-0.026 1.707 0.032 0.127 0.081 0.518 0.109 0.868 0.048 0.603 0.044 0.655-0.090 0.984-0.174 0.429-0.403 0.782-0.507 0.782-0.049 0-0.102-0.124-0.143-0.333zM22.702 20.632c-0.137-0.097-0.303-0.374-0.304-0.503-0-0.055 0.084-0.070 0.311-0.056 0.399 0.025 0.692-0.12 1.164-0.573 0.436-0.418 0.928-0.718 1.42-0.865 0.208-0.062 0.439-0.169 0.513-0.238 0.149-0.139 0.295-0.448 0.295-0.624 0-0.106 0.030-0.112 0.391-0.083 0.345 0.028 0.414 0.016 0.587-0.105 0.108-0.075 0.244-0.225 0.301-0.333 0.102-0.191 0.101-0.201-0.008-0.34-0.125-0.159-0.252-0.565-0.202-0.646 0.048-0.078-0.238-0.259-0.693-0.437-0.748-0.293-2.192-1.039-2.762-1.427-0.473-0.321-0.705-0.407-1.051-0.388l-0.296 0.016-0.073-0.221c-0.089-0.271-0.017-0.594 0.186-0.83l0.138-0.16 0.511 0.25c0.281 0.138 0.759 0.39 1.062 0.56s0.694 0.363 0.868 0.429c0.174 0.065 0.499 0.226 0.722 0.357s0.633 0.329 0.912 0.441c0.279 0.112 0.506 0.225 0.506 0.251 0 0.082 0.611 0.351 0.854 0.375 0.128 0.013 0.489 0.151 0.803 0.307s0.647 0.303 0.741 0.325c0.24 0.057 0.589 0.427 0.663 0.702 0.16 0.595-0.38 1.203-0.969 1.090-0.112-0.021-0.288 0.049-0.664 0.266-0.282 0.162-0.698 0.37-0.926 0.46s-0.661 0.311-0.964 0.488c-0.302 0.178-0.59 0.324-0.639 0.324-0.169 0.001-1.11 0.357-1.475 0.558-0.344 0.189-1.42 0.635-1.677 0.695-0.064 0.015-0.174-0.015-0.246-0.066zM10.042 20.379c-0.064-0.022-0.363-0.159-0.666-0.305-0.58-0.28-1.124-0.494-1.721-0.677-0.199-0.061-0.693-0.306-1.1-0.544-0.686-0.402-1.451-0.737-1.683-0.737-0.054 0-0.255-0.076-0.445-0.169s-0.451-0.185-0.578-0.206c-0.457-0.074-0.813-0.163-0.972-0.244-0.17-0.086-0.388-0.39-0.388-0.542-0-0.049 0.215-0.23 0.477-0.401s0.821-0.548 1.241-0.837c0.42-0.289 0.876-0.597 1.013-0.685s0.376-0.251 0.531-0.362c0.255-0.182 0.319-0.201 0.673-0.201 0.215 0 0.496-0.037 0.624-0.082 0.241-0.085 0.876-0.462 1.229-0.73 0.178-0.135 1.038-0.403 1.292-0.403 0.134 0 0.042 0.285-0.128 0.392-0.194 0.123-0.585 0.404-1.291 0.929-0.396 0.294-0.581 0.472-0.63 0.604-0.075 0.202-0.54 0.56-1.379 1.063-0.446 0.267-0.46 0.282-0.365 0.387 0.054 0.060 0.168 0.145 0.253 0.189 0.093 0.048 0.183 0.165 0.225 0.295 0.104 0.315 0.538 0.744 1.066 1.055 0.478 0.281 1.219 0.584 1.428 0.584 0.106 0 0.653 0.515 1.254 1.181 0.106 0.117 0.268 0.228 0.36 0.246 0.143 0.029 0.16 0.050 0.11 0.142-0.059 0.11-0.217 0.131-0.43 0.057zM13.457 9.692c-0.281-0.096-0.468-0.3-0.548-0.597-0.050-0.185-0.037-0.295 0.076-0.651 0.075-0.236 0.205-0.558 0.289-0.717s0.153-0.315 0.153-0.348c0-0.033 0.152-0.333 0.337-0.666s0.442-0.802 0.57-1.040c0.128-0.239 0.454-0.825 0.724-1.302s0.669-1.213 0.887-1.633c0.443-0.858 0.428-0.849 0.925-0.564 0.427 0.244 0.642 0.579 0.93 1.446 0.554 1.669 0.65 1.884 1.221 2.758 0.397 0.606 0.653 1.231 0.835 2.034 0.155 0.685 0.161 0.754 0.080 0.911-0.136 0.263-0.606 0.505-0.838 0.431-0.112-0.036-0.386-0.657-0.458-1.042-0.030-0.159-0.15-0.537-0.266-0.839s-0.25-0.693-0.296-0.868c-0.046-0.175-0.137-0.422-0.202-0.55-0.151-0.296-0.598-0.759-0.867-0.899-0.158-0.082-0.242-0.186-0.347-0.428-0.076-0.176-0.153-0.321-0.171-0.322s-0.116 0.167-0.218 0.372-0.261 0.427-0.353 0.492c-0.11 0.078-0.302 0.384-0.557 0.885-0.214 0.421-0.446 0.857-0.515 0.969s-0.174 0.332-0.233 0.49c-0.117 0.312-0.826 1.694-0.889 1.733-0.022 0.013-0.143-0.011-0.271-0.055z"></path>
</svg>
