<!-- Generated by IcoMoon.io -->
<svg version="1.1" xmlns="http://www.w3.org/2000/svg" width="32" height="32" viewBox="0 0 32 32">
<title>stella</title>
<path d="M24.139 16.514c-0.631 0.298-1.28 0.649-1.868 1.019-0.278 0.174-0.59 0.27-0.861 0.458-0.261 0.181-0.482 0.41-0.697 0.644-0.035-0.061-0.143-0.068-0.174 0.019-0.2 0.581 0.338 1.383 0.578 1.905 0.186 0.407 0.452 0.762 0.645 1.167 0.245 0.511 0.414 1.037 0.604 1.569 0.287 0.811 0.725 1.562 1.004 2.374 0.132 0.381 0.261 0.762 0.358 1.155 0.065 0.268 0.261 0.628 0.304 0.934-0.177-0.212-0.278-0.541-0.41-0.748-0.214-0.337-0.506-0.614-0.723-0.946-0.425-0.659-0.931-1.285-1.326-1.96-0.367-0.628-0.857-1.16-1.216-1.79-0.322-0.569-0.604-1.235-1.016-1.762l-0.005-0.005c-0.059-0.094-0.12-0.184-0.185-0.268-0.217-0.285-0.515-0.297-0.861-0.377-0.972-0.221-1.955-0.327-2.948-0.407-0.515-0.040-1.047-0.082-1.553-0.202-0.531-0.127-1.042-0.32-1.578-0.433l-0.127-0.024c-0.303-0.105-0.607-0.205-0.915-0.28l-0.113-0.030c-0.118-0.066-0.238-0.132-0.367-0.162-0.085-0.019-0.162-0.024-0.238-0.015-0.099-0.018-0.191-0.028-0.268-0.018-0.247 0.030-0.491 0.308-0.687 0.454l-0.155 0.113c-0.384 0.16-0.645 0.468-1.002 0.673-0.522 0.304-1.047 0.584-1.555 0.917-0.224 0.146-0.459 0.28-0.701 0.402l-0.057 0.028c-0.103 0.054-0.209 0.104-0.315 0.151-0.154 0.070-0.311 0.132-0.467 0.194-0.464 0.178-0.941 0.32-1.413 0.427 0.056-0.073 0.294-0.325 0.313-0.343 0.198-0.186 0.391-0.391 0.574-0.593 0.372-0.417 0.645-0.903 1.087-1.254 0.727-0.576 1.353-1.242 2.035-1.868 0.282-0.256 0.541-0.578 0.783-0.868 0.176-0.211 0.543-0.604 0.59-0.894 0.010-0.059 0.003-0.125-0.012-0.191 0.082-0.066 0.073-0.167 0.068-0.292-0.014-0.421-0.118-0.83-0.115-1.263 0.002-0.494-0.064-1.007-0.219-1.475-0.018-0.059-0.047-0.247-0.089-0.264l-0.033-0.141c1.226 0.311 2.536 0.365 3.783 0.577 0.657 0.111 1.303 0.301 1.96 0.393 0.774 0.108 1.534 0.146 2.301 0.325 0.718 0.169 1.471 0.181 2.195 0.325 0.673 0.134 1.332 0.245 2.016 0.275 0.739 0.035 1.428 0.207 2.151 0.334 0.59 0.104 1.188 0.026 1.779 0.153 0.108 0.024 0.195-0.141 0.080-0.193l-0.024-0.008v-0.002l-0.007-0.002c-0.83-0.376-1.727-0.494-2.607-0.713-0.97-0.242-1.96-0.402-2.934-0.635-1.868-0.449-3.839-0.298-5.717-0.698-0.95-0.203-1.882-0.459-2.832-0.661-0.294-0.062-0.763-0.254-1.12-0.257l0.057-0.037c0.414-0.226 0.811-0.523 1.23-0.755 0.466-0.259 0.929-0.523 1.383-0.805 0.852-0.524 1.753-0.99 2.557-1.588 0.837-0.624 1.668-1.266 2.487-1.917 0.36-0.285 0.744-0.541 1.075-0.861 0.167-0.162 0.301-0.374 0.527-0.306 0.225 0.071 0.265 0.379 0.369 0.591l0.092 0.017c0.066 0.096 0.123 0.172 0.144 0.198 0.353 0.423 0.628 0.906 0.976 1.324 0.698 0.837 1.393 1.685 2.155 2.465 0.774 0.795 1.553 1.555 2.388 2.289 0.428 0.376 0.809 0.781 1.266 1.129 0.49 0.37 0.844 0.777 1.263 1.2-0.993 0.962-2.447 1.533-3.668 2.115zM29.117 13.753c-0.047-0.103-0.216-0.207-0.348-0.285-0.092-0.085-0.188-0.165-0.24-0.218-0.074-0.078-0.628-0.565-0.71-0.579l-0.031-0.024-0.005-0.005c-0.56-0.548-1.256-1.014-1.832-1.52-0.817-0.717-1.616-1.567-2.301-2.416-0.744-0.922-1.457-1.929-2.101-2.924-0.308-0.478-0.563-0.99-0.871-1.47-0.263-0.414-0.428-0.877-0.706-1.282l-0.075-0.031c-0.384 0.153-0.704 0.478-1.023 0.732-0.577 0.463-1.16 0.905-1.772 1.322-0.932 0.633-1.901 1.183-2.788 1.879-1.021 0.807-2 1.705-3.096 2.414-0.527 0.341-1.076 0.6-1.631 0.882-0.249 0.127-0.442 0.285-0.591 0.497v-0.007l-0.064-0.007c-0.025 0.082-0.070 0.132-0.136 0.185l-0.111 0.092-0.002 0.002v0.002l-0.002 0.021-0.012 0.005c-0.339 0.221-0.555 0.292-0.788 0.64-0.233 0.343-0.32 0.658-0.45 1.044-0.362 1.077-1.049 2.025-1.513 3.056-0.468 1.037-0.866 2.089-1.372 3.11-0.421 0.854-0.826 1.744-1.299 2.574l-0.002 0.002-0.054 0.054c-0.045 0.048-0.125 0.082-0.158 0.139v0.002l-0.017 0.024c0.052 0.618 0.358 0.647 0.887 0.896 0.704 0.334 1.343 0.504 2.124 0.6 1.557 0.195 3.053 0.635 4.557 1.080 1.609 0.477 3.106 1.326 4.694 1.884 1.555 0.544 3.176 0.859 4.745 1.346 0.8 0.249 1.562 0.494 2.343 0.797 0.391 0.153 0.786 0.287 1.179 0.433 0.32 0.122 0.657 0.308 1.003 0.301 0.080-0.002 0.136-0.101 0.092-0.165 0.059-0.127 0.106-0.257 0.148-0.391l0.009-0.017c0.185-0.32 0.367-0.658 0.513-1 0.285-0.668 0.524-1.364 0.739-2.061 0.56-1.823 1.068-3.642 1.534-5.49 0.245-0.967 0.494-1.934 0.724-2.905 0.174-0.734 0.36-1.475 0.513-2.211 0.068-0.175 0.136-0.346 0.195-0.532 0.045-0.141 0.165-0.334 0.099-0.478z"></path>
</svg>
