<!-- Generated by IcoMoon.io -->
<svg version="1.1" xmlns="http://www.w3.org/2000/svg" width="24" height="32" viewBox="0 0 24 32">
<title>strange_happenings</title>
<path d="M6.254 30.99c-0.138-0.033-0.265-0.138-0.329-0.274-0.035-0.075-0.040-0.097-0.040-0.192 0-0.124 0.025-0.192 0.101-0.276 0.098-0.109 0.253-0.153 0.539-0.153l0.184-0-0.001-0.123c-0-0.068 0.006-0.156 0.015-0.196 0.013-0.057 0.013-0.17 0.002-0.531-0.039-1.342-0.045-1.748-0.045-3.307-0-1.605 0.006-1.974 0.045-2.82 0.010-0.225 0.009-0.414-0.006-0.872-0.092-2.755-0.117-5.74-0.070-8.48 0.010-0.606 0.009-1.185-0.003-2.426-0.020-1.958-0.020-4.315-0-4.88 0.014-0.403 0.014-0.409-0.013-0.518-0.023-0.093-0.028-0.146-0.028-0.332-0-0.239 0.014-0.316 0.090-0.497 0.098-0.233 0.334-0.486 0.566-0.605l0.049-0.025-0.008-0.172c-0.004-0.095-0.023-0.34-0.041-0.545-0.041-0.462-0.046-0.858-0.013-1.065 0.072-0.453 0.273-0.74 0.635-0.907 0.061-0.028 0.206-0.099 0.322-0.157 0.552-0.278 1.102-0.464 1.779-0.6 0.266-0.053 0.278-0.053 0.279-0.001 0 0.014 0.005 0.013 0.024-0.004 0.023-0.020 0.024-0.016 0.052 0.121 0.119 0.6 0.299 1.115 0.803 2.29 0.116 0.271 0.253 0.596 0.304 0.723 0.089 0.223 0.093 0.236 0.113 0.411 0.029 0.257 0.045 0.567 0.045 0.888 0.001 0.398 0.021 0.943 0.044 1.157 0.031 0.294 0.091 0.594 0.157 0.786 0.014 0.041 0.045 0.154 0.070 0.253 0.142 0.576 0.305 1.053 0.746 2.188 0.267 0.687 0.39 1.019 0.499 1.345 0.248 0.745 0.386 1.376 0.431 1.977 0.014 0.189 0.019 0.215 0.082 0.406 0.091 0.278 0.158 0.529 0.321 1.204 0.281 1.16 0.374 1.426 0.745 2.135 0.149 0.283 0.263 0.642 0.322 1.015 0.055 0.341 0.059 0.428 0.070 1.543 0.006 0.598 0.014 1.106 0.018 1.131s0.012 0.104 0.020 0.177c0.007 0.073 0.025 0.204 0.039 0.291 0.021 0.129 0.033 0.17 0.068 0.227 0.29 0.481 0.529 1.089 0.821 2.091 0.168 0.578 0.285 0.957 0.351 1.146 0.049 0.138 0.078 0.193 0.208 0.398 0.568 0.894 0.97 1.806 1.271 2.884 0.167 0.6 0.334 1.488 0.343 1.825 0.004 0.157 0.019 0.224 0.134 0.59 0.102 0.326 0.129 0.44 0.13 0.56 0.001 0.112-0.021 0.169-0.077 0.195-0.077 0.035-2.516-0.001-3.712-0.056-0.313-0.014-0.567-0.016-1.263-0.006-2.755 0.036-3.348 0.041-4.308 0.034-0.98-0.007-1.54-0.019-2.146-0.046-0.248-0.011-0.252-0.011-0.316 0.019-0.138 0.063-0.294 0.084-0.416 0.055zM14.949 26.076v-1.175l-1.317 0.007c-1.297 0.007-2.026 0.020-2.486 0.044-0.318 0.017-0.351 0.017-0.516 0.006l-0.144-0.010 0.008 0.207c0.006 0.174 0.009 0.717 0.006 1.534-0 0.143 0.027 0.428 0.042 0.443 0.021 0.021 2.729 0.101 3.761 0.11 0.163 0.002 0.375 0.004 0.471 0.006l0.174 0.003zM16.611 27.234c0-0.001-0.004-0.295-0.010-0.652-0.008-0.534-0.014-0.657-0.029-0.689-0.010-0.021-0.056-0.092-0.102-0.158-0.157-0.227-0.262-0.477-0.307-0.73-0.013-0.072-0.026-0.133-0.029-0.136s-0.113 0-0.245 0.007-0.266 0.012-0.298 0.012l-0.059 0-0.006 0.167c-0.003 0.092-0.013 0.213-0.021 0.268-0.021 0.139-0.009 0.411 0.038 0.859 0.058 0.559 0.062 0.803 0.017 1.029l-0.006 0.033 0.528-0.005c0.291-0.003 0.529-0.006 0.529-0.006zM10.017 26.907c-0.004-0.113-0.014-0.561-0.021-0.995s-0.014-0.825-0.016-0.869l-0.002-0.079-0.442-0.004c-0.433-0.004-0.504-0.010-0.638-0.052-0.020-0.006-0.023 0.008-0.029 0.148-0.004 0.085-0.012 0.184-0.019 0.218-0.025 0.125-0.016 0.475 0.024 0.91 0.026 0.275 0.039 0.495 0.039 0.646l0.001 0.229 0.077 0.007c0.043 0.004 0.234 0.014 0.425 0.021s0.356 0.015 0.366 0.018c0.010 0.002 0.069 0.005 0.131 0.006l0.112 0.001-0.007-0.205zM14.083 24.428c0.285-0.010 0.599-0.022 0.698-0.027l0.18-0.008v-0.824c0-0.453 0.004-0.918 0.008-1.033l0.008-0.209-0.188-0.008c-1.015-0.045-2.441-0.084-3.8-0.102l-0.529-0.007 0.008 0.976c0.004 0.537 0.012 1.032 0.016 1.101l0.007 0.124 0.216-0.009c0.37-0.016 1.198-0.013 1.366 0.005 0.083 0.009 0.223 0.021 0.31 0.026 0.272 0.017 1.159 0.014 1.699-0.005zM9.969 23.824c-0.002-0.328-0.001-0.824 0.003-1.102l0.006-0.505-0.562 0.005c-0.309 0.003-0.562 0.005-0.563 0.006-0.006 0.017 0.018 2.159 0.025 2.165 0.014 0.014 0.276 0.024 0.7 0.026l0.395 0.002zM16.005 24.387c-0.003-0.012-0.041-0.143-0.083-0.29-0.117-0.409-0.236-0.773-0.352-1.071l-0.059-0.152-0.003 0.221c-0.002 0.122 0.001 0.463 0.006 0.758l0.009 0.537 0.171 0.007c0.341 0.014 0.318 0.014 0.311-0.010zM14.926 21.794c-0.115-0.497-0.135-0.692-0.153-1.453-0.007-0.288-0.016-0.594-0.020-0.68l-0.008-0.155-0.242 0.008c-0.234 0.008-1.296-0.004-2.926-0.033-0.59-0.010-0.813-0.018-0.884-0.032-0.052-0.010-0.131-0.022-0.176-0.027l-0.081-0.008 0.009 1.161c0.005 0.639 0.011 1.162 0.012 1.164 0.005 0.006 1.004 0.040 1.561 0.054 0.807 0.020 0.78 0.020 1.889 0.019 0.903-0 1.023-0.003 1.019-0.019zM9.043 21.721c0.127-0.023 0.487-0.028 0.772-0.011l0.165 0.010 0.008-0.44c0.004-0.242 0.008-0.756 0.008-1.142v-0.703l-0.281 0.029c-0.293 0.031-0.695 0.043-0.817 0.025l-0.068-0.010 0.008 0.351c0.004 0.193 0.008 0.706 0.008 1.139l0 0.788 0.041-0.008c0.023-0.005 0.092-0.018 0.155-0.029zM14.547 19.042c0.074-0.005 0.139-0.013 0.143-0.017s0.001-0.042-0.006-0.084c-0.011-0.063-0.010-0.096 0.008-0.188 0.032-0.16 0.032-0.639-0.001-0.818-0.051-0.282-0.135-0.566-0.273-0.923l-0.078-0.203-0.539-0.008c-0.297-0.005-1.177-0.008-1.957-0.008h-1.418l0 0.951c0 0.523 0.004 1.032 0.008 1.132l0.008 0.182 1.283-0.008c0.754-0.005 1.338-0.003 1.416 0.004 0.146 0.013 1.19 0.006 1.405-0.009zM9.997 17.921v-1.131l-1.156 0.007-0.003 1.109c-0.002 0.881 0 1.11 0.013 1.114 0.018 0.006 0.67 0.027 0.954 0.030l0.193 0.002zM9.231 16.333c0.127-0.012 0.224-0.011 0.436 0.001 0.15 0.009 0.283 0.017 0.296 0.018 0.022 0.002 0.023-0.018 0.022-0.471-0.001-0.261-0.005-0.776-0.009-1.145l-0.008-0.672-0.519-0.006c-0.286-0.003-0.534-0.010-0.552-0.015l-0.033-0.009-0.008 0.427c-0.004 0.235-0.008 0.769-0.008 1.187l-0 0.759 0.111-0.030c0.061-0.016 0.184-0.036 0.274-0.045zM11.064 16.37c0.343-0.069 1.627-0.091 2.727-0.046 0.187 0.008 0.341 0.012 0.344 0.009s-0.029-0.095-0.071-0.206c-0.096-0.254-0.182-0.538-0.201-0.669-0.042-0.284-0.124-0.533-0.343-1.048l-0.154-0.362-0.197 0.010c-0.108 0.005-0.77 0.010-1.47 0.010h-1.273v2.334l0.268-0.006c0.173-0.004 0.304-0.013 0.37-0.026zM13.218 13.635c0-0.006-0.012-0.061-0.026-0.123-0.034-0.147-0.046-0.437-0.025-0.571 0.018-0.115 0.053-0.234 0.097-0.333l0.031-0.071-0.082-0.169c-0.045-0.093-0.105-0.233-0.134-0.312-0.047-0.128-0.161-0.514-0.184-0.619l-0.009-0.041-0.192 0c-0.105 0-0.28-0.005-0.387-0.012-0.281-0.018-0.949-0.016-1.438 0.005-0.232 0.010-0.424 0.021-0.428 0.025s-0.009 0.484-0.013 1.067l-0.006 1.060 0.119 0.007c0.065 0.004 0.346 0.011 0.624 0.014 0.72 0.010 1.852 0.055 1.908 0.075 0.025 0.009 0.145 0.006 0.145-0.004zM9.952 12.852c-0.005-0.373-0.013-0.845-0.017-1.049l-0.008-0.37-1.023-0.002-0.008 0.314c-0.004 0.173-0.012 0.636-0.018 1.029l-0.010 0.715 0.195 0.010c0.107 0.005 0.271 0.014 0.365 0.019s0.252 0.010 0.352 0.011l0.181 0.002-0.009-0.679zM9.611 10.91l0.312-0.009-0.008-0.412c-0.004-0.227-0.014-0.674-0.020-0.993s-0.012-0.637-0.012-0.704l-0-0.123-0.186 0.001c-0.196 0.001-0.249 0.007-0.382 0.045-0.057 0.016-0.125 0.023-0.222 0.024l-0.14 0-0.008 0.682c-0.005 0.375-0.014 0.866-0.021 1.091s-0.010 0.413-0.007 0.417 0.090 0.004 0.194-0 0.33-0.012 0.502-0.017zM12.771 10.894c-0.004-0.012-0.024-0.091-0.045-0.175-0.055-0.221-0.13-0.457-0.197-0.624-0.097-0.242-0.185-0.397-0.392-0.689-0.064-0.090-0.236-0.442-0.3-0.613l-0.054-0.145h-0.658c-0.362 0-0.661 0.003-0.664 0.006s-0.009 0.508-0.014 1.121l-0.008 1.115 0.553 0.002c0.304 0.001 0.766 0.006 1.026 0.010s0.538 0.010 0.617 0.011c0.131 0.002 0.142 0.001 0.136-0.020zM11.645 8.14c-0.044-0.17-0.102-0.564-0.177-1.184-0.049-0.403-0.094-0.738-0.127-0.939l-0.007-0.042-0.426 0.008c-0.234 0.005-0.433 0.010-0.441 0.013-0.012 0.004-0.016 0.23-0.016 1.073v1.068l0.085 0.001c0.047 0.001 0.25 0.008 0.452 0.017s0.434 0.017 0.516 0.018l0.15 0.002-0.009-0.035zM9.87 8.080c0-0.017 0.009-0.084 0.020-0.148 0.029-0.165 0.017-0.501-0.033-0.97-0.041-0.382-0.054-0.716-0.034-0.886l0.009-0.084-0.155-0.009c-0.196-0.011-0.535-0.041-0.655-0.058-0.050-0.007-0.094-0.011-0.097-0.008s-0.001 0.486 0.004 1.073l0.009 1.068 0.058 0.007c0.032 0.004 0.22 0.013 0.418 0.021s0.366 0.016 0.373 0.018c0.007 0.002 0.028 0.005 0.047 0.005 0.029 0.001 0.035-0.004 0.035-0.031zM9.946 4.38c0.325-0.033 0.595-0.052 0.925-0.066 0.109-0.005 0.199-0.012 0.199-0.016s-0.022-0.090-0.049-0.191c-0.063-0.233-0.144-0.478-0.229-0.692l-0.066-0.168-0.976 0.004c-0.537 0.002-0.98 0.007-0.984 0.011-0.026 0.026-0.036 0.168-0.032 0.435 0.003 0.16 0.004 0.38 0.004 0.488l-0.001 0.198 0.159 0.014c0.088 0.008 0.182 0.017 0.21 0.019 0.121 0.011 0.555-0.007 0.84-0.036z"></path>
</svg>
