<!-- Generated by IcoMoon.io -->
<svg version="1.1" xmlns="http://www.w3.org/2000/svg" width="32" height="32" viewBox="0 0 32 32">
<title>striking_fear</title>
<path d="M12.864 15.487c0 0.135-0.063 0.22-0.186 0.245-0.198 0.042-0.309-0.038-0.309-0.245 0-0.123 0.060-0.191 0.186-0.221 0.199-0.080 0.309-0.012 0.309 0.221zM12.538 22.19c0.31 0.22 0.648 0.478 1.034 0.783 0.076 0.118 0.245 0.3 0.507 0.52 0.124-0.042 0.186-0.098 0.186-0.152 0.013-0.275 0.047-0.55 0.077-0.821 0.016-0.411-0.030-0.673-0.124-0.796-0.262-0.304-0.677-0.44-1.265-0.398-0.291-0.012-0.787 0.093-0.787 0.313 0 0.068 0.063 0.153 0.203 0.25-0.029 0.105 0.030 0.203 0.169 0.3zM11.583 15.719c0 0.301 0.173 0.631 0.511 0.99 0.288 0.301 0.614 0.517 0.952 0.67 0.14 0.067 0.339 0.096 0.619 0.080 0.338-0.025 0.52-0.038 0.537-0.038 0.169 0.067 0.449 0.147 0.846 0.233 0.986 0.038 2.065-0.644 3.237-2.057 0.093-0.109 0.14-0.233 0.14-0.355 0-0.275-0.186-0.588-0.555-0.948-0.14-0.178-0.309-0.368-0.511-0.575-0.644-0.313-1.308-0.466-2.002-0.466-1.032 0-1.845 0.342-2.433 1.041 0 0.067 0 0.165-0.013 0.275 0.199 0 0.275 0.084 0.246 0.262-0.077 0.106-0.169 0.161-0.293 0.161-0.063 0-0.249-0.039-0.355-0.039-0.245 0-0.495 0.111-0.753 0.326-0.111 0.127-0.173 0.275-0.173 0.44zM10.829 13.802l0.847-0.661c0.216-0.147 0.554-0.3 1.019-0.465 0.135-0.122 0.368-0.258 0.677-0.398 0.813-0.042 1.972-0.111 3.479-0.208 0.064 0 0.419 0.182 0.601 0.237 0.554 0.148 1.049 0.466 1.464 0.944 0.386 0.44 0.618 0.919 0.711 1.439 0.042 0.191 0.030 0.495-0.063 0.893l-0.275 1.203c-0.186 0.495-0.508 0.868-0.974 1.113-0.524 0.165-1.417 0.479-2.678 0.961-0.169 0.067-0.262 0.207-0.262 0.398 0-0.031 0.047 0.178 0.122 0.613 0.029 0.195 0.186 0.288 0.462 0.306 0.203-0.018 0.402-0.018 0.618-0.018 0.368 0.018 0.846-0.148 1.418-0.491 0.169-0.097 0.367-0.111 0.6-0.025 0.259 0.106 0.386 0.271 0.386 0.492 0 0.012-0.093 0.275-0.28 0.766-0.076 0.031-0.182 0.058-0.322 0.084-0.169-0.025-0.385-0.018-0.664 0.055-0.060-0.073-0.216-0.098-0.444-0.098-0.805 0-1.418 0.178-1.867 0.533-0.060 0.055-0.076 0.178-0.047 0.373 0.047 0.275 0.064 0.411 0.064 0.411-0.017 0.507 0.105 0.769 0.367 0.795 0.077-0.097 0.217-0.207 0.403-0.342 0.169-0.068 0.414-0.275 0.769-0.619 0.356-0.329 0.601-0.491 0.77-0.491 0.17 0 0.322 0.122 0.449 0.381-0.68 0.753-1.574 1.836-2.683 3.237-0.017 0.148-0.060 0.368-0.122 0.655-0.229 0.563-0.339 1.029-0.339 1.397 0 0.073 0.029 0.373 0.093 0.919 0.017 0.373-0.14 0.808-0.495 0.808-0.047 0-0.093-0.012-0.153-0.038-0.355-0.153-0.309-0.495-0.355-0.808-0.109-0.111-0.245-0.304-0.415-0.593 0-0.055 0.17-0.411 0.217-0.52 0.076-0.271 0.089-0.492 0.042-0.657-0.322-1.028-0.724-1.688-1.198-1.989l-0.186-0.436c-0.029-0.042-0.524-0.415-1.477-1.126-0.402-0.288-0.605-0.588-0.605-0.906 0-0.178 0.063-0.355 0.203-0.521l0.076-0.575c0.030-0.080 0.093-0.148 0.199-0.203 0.186-0.084 0.618-0.098 1.295-0.042 0.030 0 0.17-0.055 0.402-0.166 0.233-0.109 0.386-0.165 0.479-0.178 0.169 0.068 0.431 0.122 0.77 0.166 0-0.153 0.135-0.563 0.135-0.767 0-0.347-0.124-0.592-1.109-0.905l-1.003-0.288c-0.66-0.342-1.168-1.003-1.535-1.976-0.275-0.741-0.386-1.3-0.31-1.702 0.077-0.296 0.322-0.626 0.724-0.969z"></path>
<path d="M24.067 11.877c0.004 0.24-0.051 0.456-0.060 0.689-0.008 0.119 0.068 0.304-0.122 0.267-0.089-0.021-0.173-0.114-0.229-0.169-0.085-0.089-0.105-0.144-0.216-0.216-0.153-0.106-0.25-0.224-0.406-0.326-0.317-0.203-0.66-0.393-0.944-0.635-0.14-0.122-0.262-0.22-0.191-0.415 0.055-0.143 0.229-0.216 0.339-0.325 0.063-0.068 0.114-0.119 0.194-0.179 0.173-0.127 0.343-0.258 0.517-0.389 0.148-0.106 0.36-0.203 0.482-0.33 0.047-0.042 0.047-0.105 0.085-0.147 0.106-0.115 0.322-0.009 0.406 0.067 0.093 0.080 0.060 0.153 0.089 0.25 0.035 0.118 0.055 0.249 0.060 0.364 0.029 0.495-0.004 0.998-0.004 1.494zM19.822 9.265c-0.156-0.122-0.342-0.229-0.486-0.364-0.047-0.038-0.122-0.080-0.11-0.147 0.106-0.025 0.242-0.009 0.352-0.009 0.135 0.003 0.241-0.018 0.376-0.042 0.173-0.031 0.355 0 0.529-0.009 0.225-0.009 0.445-0.089 0.661-0.135 0.284-0.055 0.55-0.064 0.833-0.093 0.191-0.021 0.377-0.064 0.559-0.118 0.127-0.038 0.262-0.089 0.393-0.081 0.14 0.009 0.131 0.068 0.089 0.17-0.067 0.144-0.114 0.249-0.271 0.329-0.267 0.132-0.524 0.313-0.757 0.488-0.224 0.169-0.419 0.36-0.664 0.503-0.211 0.128-0.424 0.255-0.631 0.381-0.28-0.3-0.537-0.613-0.872-0.872zM28.934 5.007c-0.025-0.042-0.063-0.111-0.105-0.14-0.047-0.031-0.115-0.034-0.17-0.055-0.109-0.047-0.232-0.072-0.355-0.093-0.067-0.012-0.14 0.012-0.203 0-0.047-0.012-0.077-0.047-0.131-0.055-0.073 0.093-0.148 0.186-0.224 0.275-0.086 0.093-0.166 0.182-0.242 0.275-0.034 0.042-0.076 0.127-0.118 0.165-0.064 0.051-0.144 0.102-0.212 0.14-0.093 0.055-0.203 0.084-0.3 0.135-0.22 0.111-0.424 0.25-0.631 0.377-0.36 0.22-0.757 0.431-1.202 0.482-0.148 0.018-0.268 0.035-0.403 0.093-0.156 0.064-0.287 0.14-0.456 0.182-0.242 0.051-0.483 0.060-0.72 0.144-0.109 0.034-0.232 0.076-0.351 0.106-0.025 0-0.047 0.003-0.072 0.003-0.042 0.003-0.085 0.006-0.127 0.006l0.016 0.012c-0.254 0.021-0.495-0.009-0.753 0.038-0.398 0.068-0.795 0.195-1.164 0.335-0.284 0.114-0.499 0.198-0.813 0.233-0.309 0.034-0.622 0.063-0.932 0.109-0.178 0.025-0.355 0.089-0.537 0.098-0.165 0.009-0.329-0.003-0.499-0.003-0.085 0-0.249-0.025-0.334 0-0.098 0.031-0.064 0.009-0.089 0.106-0.026 0.102 0.029 0.245 0.058 0.338 0.115 0.364 0.33 0.712 0.559 1.029 0.131 0.182 0.296 0.347 0.466 0.499 0.135 0.122 0.262 0.262 0.406 0.372 0.194 0.153 0.236 0.377 0.198 0.601-0.025 0.156-0.118 0.242-0.249 0.335-0.44 0.317-0.813 0.698-1.257 1.002-0.368 0.255-0.657 0.555-0.978 0.847 0.204-0.012 0.441 0.118 0.559 0.24 0.102 0.111 0.207 0.212 0.322 0.322 0.080 0.080 0.156 0.22 0.271 0.25 0.334-0.343 0.791-0.606 1.177-0.898 0.271-0.207 0.495-0.449 0.77-0.651 0.072-0.051 0.156-0.122 0.241-0.161 0.064-0.025 0.166-0.006 0.233-0.006 0.157 0 0.313 0.003 0.457 0.072 0.042 0.025 0.073 0.051 0.106 0.084 0.241 0.229 0.457 0.47 0.728 0.668 0.14 0.106 0.258 0.191 0.411 0.275 0.131 0.068 0.207 0.166 0.321 0.259 0.11 0.092 0.246 0.127 0.364 0.203 0.060 0.042 0.098 0.093 0.166 0.127 0.144 0.072 0.173-0.021 0.317-0.009 0.067 0.009 0.122 0.042 0.194 0.047 0.144 0.009 0.263 0.025 0.406 0.042 0.186 0.021 0.55 0.055 0.745 0.003 0.051-0.296-0.013-0.605 0.042-0.906 0.098-0.511 0.089-1.032 0.165-1.553 0.060-0.424 0.089-0.859 0.14-1.287 0.047-0.406-0.013-0.82 0.038-1.226 0.047-0.081 0.093-0.161 0.135-0.246 0.102-0.182 0.166-0.377 0.271-0.555 0.267-0.469 0.665-0.926 1.105-1.27 0.368-0.283 0.757-0.529 1.146-0.791 0.161-0.111 0.301-0.242 0.462-0.347 0.11-0.072 0.229-0.132 0.343-0.199 0.101-0.060 0.317-0.16 0.351-0.279 0.016-0.072-0.026-0.144-0.064-0.203z"></path>
<path d="M8.108 10.836c-0.077 0.105-0.335 0.364-0.492 0.22-0.021-0.021-0.042-0.288-0.050-0.33-0.035-0.135 0.004-0.271-0.013-0.402-0.017-0.097-0.055-0.131-0.093-0.216-0.042-0.097-0.034-0.191-0.060-0.288-0.131-0.424-0.275-0.85-0.411-1.274-0.096-0.287-0.203-0.537-0.245-0.837-0.004-0.038-0.013-0.072-0.017-0.111 0.042 0.060 0.106 0.111 0.161 0.144 0.050 0.031 0.101 0.031 0.156 0.047 0.038 0.009 0.055 0 0.089 0.021 0.026 0.006 0.076 0.084 0.093 0.101 0.148 0.14 0.3 0.275 0.449 0.415 0.131 0.127 0.25 0.262 0.364 0.402 0.199 0.237 0.499 0.449 0.757 0.635 0.051 0.038 0.115 0.072 0.153 0.119 0.153 0.178 0.127 0.605-0.115 0.706-0.156 0.067-0.258 0.109-0.376 0.229-0.127 0.131-0.242 0.275-0.351 0.419zM13.39 12.634c-0.148-0.242-0.317-0.47-0.492-0.694-0.478-0.609-1.053-1.206-1.692-1.685-0.3-0.232-0.339-0.757-0.118-1.032 0.050-0.063 0.101-0.122 0.14-0.194 0.050-0.093 0.059-0.204 0.118-0.288 0.122-0.178 0.326-0.186 0.334-0.424 0.004-0.186-0.072-0.207-0.207-0.334-0.109-0.102-0.229-0.072-0.38-0.072-0.081 0-0.174 0.009-0.259 0-0.080-0.006-0.144-0.047-0.229-0.051-0.127-0.003-0.376-0.034-0.478 0.031-0.064 0.038-0.068 0.102-0.089 0.16-0.042 0.119-0.122 0.22-0.173 0.335-0.064 0.16-0.135 0.342-0.161 0.524-0.198-0.135-0.393-0.275-0.575-0.427-0.216-0.195-0.322-0.419-0.47-0.652-0.096-0.152-0.194-0.304-0.304-0.453-0.034-0.047-0.055-0.076-0.114-0.098-0.073-0.025-0.081 0.003-0.106-0.054-0.047-0.106 0.022-0.466 0.165-0.499 0.073-0.021 0.153 0.054 0.212 0.089 0.325 0.182 0.782 0.224 1.155 0.279 0.122 0.018 0.233 0.064 0.322 0.135 0.017-0.003 0.038-0.003 0.055-0.003 0.144 0.015 0.275 0.050 0.427 0.050 0.135 0 0.28-0.012 0.415-0.006s0.254 0.054 0.381 0.093c0.194 0.058 0.372 0.174 0.571 0.24 0.254 0.093 0.533 0.042 0.711-0.152 0.089-0.093 0.148-0.208 0.237-0.306 0.089-0.093 0.098-0.178 0.051-0.296-0.060-0.153-0.173-0.284-0.347-0.33-0.191-0.058-0.399-0.067-0.588-0.118-0.322-0.080-0.648-0.153-0.97-0.229-0.529-0.131-1.075-0.297-1.616-0.368-0.186-0.025-0.381-0.038-0.559-0.097-0.198-0.072-0.372-0.165-0.584-0.207-0.144-0.031-0.287-0.055-0.436-0.072-0.119-0.012-0.322 0.012-0.432-0.031-0.072-0.025-0.047-0.009-0.096-0.072-0.064-0.081-0.128-0.157-0.217-0.22-0.105-0.072-0.236-0.144-0.355-0.195-0.135-0.064-0.28-0.080-0.418-0.144-0.208-0.093-0.432-0.191-0.619-0.304-0.135-0.084-0.258-0.153-0.411-0.208-0.173-0.058-0.342-0.118-0.406-0.279-0.025-0.051-0.025-0.115-0.059-0.166-0.030-0.051-0.093-0.084-0.131-0.131-0.068-0.072-0.119-0.153-0.204-0.211-0.207-0.14-0.482-0.186-0.694-0.326-0.169-0.106-0.449-0.233-0.588-0.047-0.114 0.144-0.109 0.258-0.105 0.436 0.004 0.131 0.047 0.271 0.182 0.343 0.042 0.022 0.098 0.025 0.14 0.051 0.14 0.101 0.14 0.309 0.254 0.431 0.114 0.118 0.165 0.271 0.293 0.377 0.089 0.080 0.207 0.152 0.309 0.216 0.093 0.055 0.211 0.080 0.296 0.144 0.098 0.067 0.191 0.191 0.271 0.275 0.102 0.114 0.195 0.245 0.293 0.364 0.012 0.072 0.034 0.147 0.063 0.224 0.042 0.109 0.144 0.542 0.106 0.313 0.060 0.236 0.169 0.473 0.233 0.711 0.152 0.593 0.258 1.194 0.415 1.786 0.063 0.25 0.169 0.492 0.224 0.75 0.076 0.36 0.156 0.706 0.245 1.066 0.102 0.393 0.153 0.826 0.322 1.198 0.034 0.072 0.085 0.14 0.111 0.216 0.034 0.102 0.008 0.203 0.025 0.304 0.022 0.106 0.111 0.165 0.153 0.258 0.029 0.072 0.063 0.135 0.105 0.204 0.098 0.135 0.373 0.14 0.521 0.060 0.156-0.089 0.224-0.259 0.364-0.368 0.173-0.14 0.338-0.288 0.507-0.432 0.212-0.174 0.441-0.329 0.665-0.486 0.186-0.127 0.423-0.249 0.491-0.466 0.047-0.152 0.063-0.334 0.28-0.376 0.118-0.025 0.19 0.063 0.275 0.118 0.093 0.060 0.203 0.106 0.283 0.182 0.055 0.051 0.098 0.111 0.148 0.169 0.173 0.216 0.386 0.402 0.517 0.648 0.072 0.131 0.122 0.275 0.19 0.411 0.093 0.173 0.17 0.304 0.39 0.338 0.055 0.009 0.118 0 0.165 0.025 0.127 0.060 0.093 0.233 0.093 0.338 0 0.148 0.029 0.33-0.013 0.475-0.008 0.034-0.085 0.122-0.080 0.152 0.009 0.077 0.178 0.012 0.233-0.003 0.076-0.025 0.118-0.097 0.191-0.128 0.059-0.021 0.098-0.015 0.156-0.025 0.415-0.047 0.757-0.296 1.105-0.486 0.016-0.106-0.077-0.191-0.127-0.271z"></path>
</svg>
