<!-- Generated by IcoMoon.io -->
<svg version="1.1" xmlns="http://www.w3.org/2000/svg" width="32" height="32" viewBox="0 0 32 32">
<title>supplies</title>
<path d="M24 4.733c-1.422 0-4.076 0.696-6.423 2.397-0.592 0.014-1.197 0.119-2.392 0.177-1.271 0.061-3.156 0.062-6.123-0.184v0.006c-0.017-0-0.031-0.009-0.048-0.009-3.353 0-6.141 2.088-6.816 5.45-0.689 3.437 1.407 7.83 5.686 8.686 3.349 0.67 7.072 1.28 9.331 5.053l0.348 0.583 0.536-0.417c4.226-3.298 8.957-5.974 11.734-10.141l-0.998-0.666c-2.465 3.697-6.842 6.318-11.020 9.52-2.564-3.7-6.541-4.478-9.697-5.109-3.566-0.713-5.3-4.501-4.744-7.273 0.571-2.847 2.765-4.486 5.639-4.486 2.794 0 5.003 2.205 5.003 4.989 0 1.161-0.519 2.148-1.45 2.886-0.925 0.733-2.27 1.195-3.869 1.202-1.022-0.094-1.682-0.532-2.136-1.161-0.458-0.634-0.684-1.482-0.684-2.306 0-0.798 0.269-1.588 0.781-2.162s1.259-0.963 2.355-0.963c1.096 0 1.65 0.367 2.011 0.847s0.502 1.137 0.502 1.658c0 0.841-0.911 1.883-2.513 1.883v1.2c2.134 0 3.713-1.44 3.713-3.083 0-0.721-0.169-1.618-0.742-2.38s-1.575-1.325-2.97-1.325c-1.395 0-2.517 0.542-3.25 1.364s-1.086 1.896-1.086 2.961c0 1.039 0.273 2.124 0.912 3.009s1.671 1.544 3.025 1.661l0.027 0.002h0.025c1.845 0 3.466-0.531 4.645-1.466s1.905-2.295 1.905-3.827c0-2.036-1.044-3.753-2.559-4.88 0.787 0.009 2.039 0.103 2.586 0.077 1.185-0.057 1.772-0.144 2.22-0.166 0.682 0.724 1.334 1.676 1.658 2.702 0.334 1.058 0.31 2.134-0.255 3.169-0.146 0.072-1.214 0.608-3.056 1.222l0.38 1.137c2.038-0.679 3.413-1.366 3.413-1.366l0.156-0.078 0.089-0.148c0.845-1.405 0.844-2.95 0.419-4.297-0.339-1.073-0.954-1.989-1.617-2.772 2.041-1.342 4.4-1.975 5.352-1.975 0.602 0 1.119 0.255 1.572 0.717s0.816 1.137 1.016 1.892c0.391 1.481 0.119 3.192-0.956 4.25-0.551 0.254-0.993 0.326-1.545 0.345-0.589 0.020-1.303-0.001-2.217 0.205l0.262 1.172c0.768-0.172 1.355-0.155 1.997-0.177s1.347-0.099 2.139-0.494l0.078-0.037 0.064-0.059c1.537-1.432 1.827-3.655 1.337-5.511-0.245-0.928-0.686-1.78-1.317-2.425s-1.475-1.078-2.43-1.078zM22.733 16v0.733h-0.733v1.2h0.733v0.734h1.2v-0.734h0.734v-1.2h-0.734v-0.733h-1.2zM17.4 18v1.4h-1.4v1.2h1.4v1.4h1.2v-1.4h1.4v-1.2h-1.4v-1.4h-1.2z"></path>
</svg>
