<!-- Generated by IcoMoon.io -->
<svg version="1.1" xmlns="http://www.w3.org/2000/svg" width="32" height="32" viewBox="0 0 32 32">
<title>survivor1</title>
<path d="M31.696 12.003c-0.098 0.605-0.295 1.129-0.586 1.579-0.292 0.437-0.6 0.802-0.919 1.092-0.379 0.338-0.797 0.643-1.266 0.896 0.16 0 0.319 0.018 0.464 0.050 0.155 0.038 0.29 0.066 0.389 0.1 0.108 0.047 0.206 0.094 0.29 0.145-0.262 0.403-0.529 0.703-0.802 0.895-0.262 0.197-0.52 0.342-0.778 0.436-0.31 0.098-0.6 0.14-0.872 0.122 0.155 0.084 0.314 0.197 0.46 0.342s0.258 0.29 0.342 0.436c0.108 0.164 0.216 0.337 0.314 0.534-0.145 0.038-0.342 0.061-0.581 0.071-0.244 0.019-0.488 0.019-0.732 0-0.276 0-0.566-0.010-0.871-0.047 0.145 0.047 0.266 0.121 0.365 0.22 0.108 0.085 0.198 0.155 0.268 0.216 0.061 0.084 0.103 0.169 0.122 0.268-0.164 0.182-0.366 0.328-0.61 0.436-0.244 0.098-0.482 0.164-0.727 0.197-0.281 0.084-0.571 0.122-0.876 0.122 0.131 0.131 0.224 0.253 0.295 0.36 0.056 0.118 0.118 0.216 0.169 0.292 0.027 0.116 0.037 0.22 0.024 0.318-0.263 0.047-0.487 0.071-0.679 0.071-0.184-0.010-0.352-0.037-0.511-0.071-0.164-0.052-0.31-0.112-0.436-0.197 0.108 0.145 0.136 0.268 0.074 0.366-0.037 0.047-0.074 0.098-0.121 0.145-0.488 0-0.826-0.047-1.022-0.145-0.094-0.061-0.169-0.122-0.216-0.169 0 0.164-0.014 0.258-0.024 0.29l-0.027 0.024c-0.436 0-0.768-0.061-0.994-0.192-0.131-0.080-0.229-0.16-0.29-0.244 0.047 0.182 0.056 0.29 0.024 0.337-0.020 0.052-0.038 0.084-0.047 0.098-0.23 0-0.432-0.024-0.61-0.076-0.164-0.047-0.3-0.102-0.413-0.168-0.131-0.061-0.234-0.145-0.314-0.244 0.034 0.098 0.038 0.182 0.024 0.244-0.020 0.052-0.024 0.094-0.024 0.121-0.017 0.066-0.024 0.108-0.024 0.122-0.244-0.014-0.455-0.061-0.634-0.145-0.182-0.080-0.332-0.16-0.458-0.244-0.145-0.098-0.282-0.206-0.39-0.337 0 0.328-0.060 0.623-0.168 0.895-0.118 0.262-0.244 0.478-0.389 0.655-0.164 0.211-0.338 0.4-0.535 0.558 0 0.244 0.056 0.521 0.169 0.826 0.131 0.31 0.3 0.623 0.511 0.947 0.206 0.31 0.436 0.619 0.679 0.923 0.244 0.31 0.492 0.582 0.755 0.826 0.173 0.192 0.352 0.398 0.529 0.605 0.197 0.197 0.366 0.389 0.511 0.581 0.197 0.206 0.371 0.413 0.534 0.61-0.389 0.145-0.702 0.182-0.947 0.122-0.244-0.071-0.421-0.113-0.534-0.122 0.179 0.497 0.281 0.924 0.319 1.261 0.010 0.206 0.024 0.394 0.024 0.558-0.244-0.047-0.455-0.122-0.632-0.221-0.164-0.084-0.29-0.169-0.389-0.263-0.145-0.089-0.268-0.192-0.361-0.318-0.098 0.515-0.216 0.905-0.342 1.166-0.113 0.253-0.235 0.445-0.366 0.582-0.145 0.145-0.3 0.22-0.46 0.22-0.017-0.215-0.042-0.431-0.070-0.656-0.020-0.215-0.027-0.384-0.027-0.51-0.047 0.253-0.116 0.497-0.215 0.726-0.085 0.244-0.184 0.445-0.292 0.61-0.136 0.206-0.281 0.389-0.436 0.534-0.15-0.197-0.239-0.413-0.268-0.656-0.017-0.244-0.027-0.473-0.027-0.679 0-0.244 0.014-0.497 0.052-0.755-0.066 0.371-0.182 0.708-0.342 0.998-0.145 0.29-0.29 0.534-0.437 0.727-0.182 0.224-0.379 0.416-0.604 0.581-0.137-0.31-0.235-0.605-0.292-0.895-0.070-0.282-0.121-0.511-0.173-0.703-0.034-0.244-0.047-0.482-0.047-0.708 0 0.206-0.037 0.398-0.098 0.563-0.047 0.155-0.094 0.29-0.145 0.384-0.085 0.131-0.164 0.234-0.244 0.319-0.146-0.329-0.211-0.647-0.193-0.947 0.014-0.292 0.061-0.558 0.145-0.802 0.080-0.282 0.193-0.548 0.343-0.802-0.098 0.145-0.244 0.271-0.442 0.389-0.192 0.108-0.384 0.206-0.581 0.29-0.211 0.061-0.436 0.127-0.679 0.192 0-0.178 0.034-0.384 0.098-0.628 0.060-0.23 0.131-0.464 0.215-0.703l-0.116 0.094c-0.137 0.061-0.287 0.122-0.464 0.174-0.145 0.028-0.314 0.032-0.511 0.023-0.178 0-0.379-0.052-0.605-0.145 0.192-0.197 0.376-0.403 0.558-0.61 0.145-0.192 0.314-0.384 0.511-0.581 0.192-0.206 0.374-0.413 0.558-0.605 0.244-0.244 0.46-0.516 0.656-0.826 0.206-0.304 0.389-0.613 0.534-0.923 0.155-0.324 0.272-0.637 0.337-0.947 0.080-0.305 0.122-0.582 0.122-0.826-0.136-0.158-0.244-0.347-0.342-0.558-0.094-0.178-0.179-0.394-0.24-0.655-0.052-0.272-0.074-0.568-0.074-0.895-0.098 0.131-0.229 0.239-0.389 0.337-0.132 0.084-0.29 0.163-0.484 0.244-0.182 0.084-0.389 0.131-0.632 0.145-0.020-0.014-0.024-0.056-0.024-0.122-0.017-0.079-0.017-0.202 0-0.365-0.098 0.098-0.21 0.182-0.337 0.244-0.116 0.066-0.258 0.121-0.413 0.168-0.15 0.052-0.328 0.076-0.534 0.076-0.037-0.014-0.061-0.047-0.074-0.098-0.047-0.047-0.042-0.155 0.024-0.337-0.094 0.084-0.206 0.163-0.314 0.244-0.229 0.131-0.544 0.192-0.947 0.192l-0.024-0.024c-0.037-0.052-0.042-0.145-0.024-0.29-0.065 0.047-0.158 0.108-0.266 0.169-0.085 0.037-0.206 0.066-0.366 0.098-0.164 0.032-0.374 0.047-0.628 0.047-0.071-0.047-0.118-0.098-0.15-0.145-0.085-0.108-0.066-0.23 0.052-0.366-0.118 0.085-0.258 0.145-0.413 0.197-0.145 0.034-0.314 0.061-0.511 0.071-0.182 0-0.389-0.024-0.628-0.071-0.020-0.098-0.014-0.202 0.024-0.318 0.027-0.076 0.071-0.174 0.122-0.292 0.060-0.107 0.155-0.229 0.29-0.36-0.29 0-0.577-0.038-0.853-0.122-0.239-0.032-0.502-0.098-0.774-0.197-0.262-0.108-0.463-0.253-0.608-0.436 0.014-0.098 0.060-0.184 0.145-0.268 0.052-0.061 0.121-0.131 0.22-0.216 0.108-0.098 0.248-0.173 0.413-0.22-0.31 0.037-0.595 0.047-0.848 0.047-0.244 0.019-0.478 0.019-0.703 0-0.229-0.010-0.413-0.032-0.558-0.071 0.061-0.197 0.15-0.37 0.268-0.534 0.094-0.145 0.206-0.29 0.337-0.436 0.145-0.145 0.305-0.258 0.487-0.342-0.308 0.018-0.608-0.024-0.9-0.122-0.262-0.094-0.534-0.239-0.824-0.436-0.29-0.192-0.558-0.492-0.802-0.895 0.098-0.052 0.206-0.098 0.342-0.145 0.108-0.034 0.229-0.061 0.361-0.1 0.145-0.032 0.318-0.050 0.511-0.050-0.474-0.253-0.892-0.558-1.261-0.896-0.329-0.29-0.642-0.655-0.947-1.092-0.31-0.45-0.511-0.974-0.605-1.579 0.337 0.216 0.797 0.413 1.382 0.61 0.484 0.145 1.121 0.286 1.918 0.412 0.787 0.132 1.771 0.206 2.934 0.221 0.324 0.032 0.656 0.032 0.994 0 0.277 0 0.572-0.010 0.9-0.028 0.319-0.010 0.642-0.034 0.971-0.071h0.169c0.050 0 0.107 0.019 0.197 0.047 0.094 0.019 0.215 0.052 0.36 0.098 0.179 0.066 0.403 0.164 0.68 0.29 0.29 0.132 0.61 0.263 0.947 0.389 0.352 0.132 0.716 0.245 1.092 0.338 0.389 0.098 0.787 0.145 1.214 0.145 0-0.337 0.027-0.684 0.098-1.040 0.027-0.305 0.094-0.643 0.192-1.022 0.098-0.371 0.229-0.74 0.413-1.116 0.107-0.544 0.229-1.055 0.365-1.528 0.108-0.389 0.24-0.75 0.39-1.092 0.145-0.337 0.313-0.558 0.505-0.656 0.16 0.098 0.319 0.319 0.464 0.656 0.155 0.342 0.295 0.703 0.413 1.092 0.126 0.473 0.253 0.984 0.384 1.528 0.16 0.376 0.295 0.745 0.389 1.116 0.113 0.379 0.184 0.718 0.221 1.022 0.061 0.356 0.098 0.703 0.098 1.040 0.398 0 0.797-0.047 1.186-0.145 0.39-0.094 0.755-0.206 1.092-0.338 0.352-0.126 0.661-0.257 0.924-0.389 0.272-0.126 0.516-0.224 0.726-0.29 0.272-0.098 0.464-0.145 0.558-0.145h0.174c0.271 0.037 0.581 0.061 0.918 0.071 0.343 0.018 0.643 0.028 0.924 0.028 0.337 0.032 0.666 0.032 0.994 0 1.168-0.014 2.137-0.089 2.911-0.221 0.792-0.126 1.434-0.266 1.918-0.412 0.566-0.197 1.026-0.394 1.387-0.61z"></path>
</svg>
