<!-- Generated by IcoMoon.io -->
<svg version="1.1" xmlns="http://www.w3.org/2000/svg" width="32" height="32" viewBox="0 0 32 32">
<title>tap_circle</title>
<path d="M15.685 0.003l0.008 0.421c0.554-0.011 1.109 0.007 1.66 0.055l0.036-0.419c-0.567-0.049-1.136-0.068-1.705-0.057zM13.984 0.126c-0.565 0.071-1.125 0.172-1.679 0.303l0.097 0.41c0.539-0.127 1.085-0.226 1.634-0.295l-0.053-0.418zM19.079 0.296l-0.080 0.413c0.544 0.106 1.082 0.241 1.611 0.405l0.125-0.402c-0.544-0.168-1.097-0.307-1.655-0.416zM10.668 0.91c-0.536 0.19-1.063 0.408-1.576 0.654l0.182 0.38c0.499-0.24 1.012-0.452 1.534-0.636l-0.141-0.397zM22.334 1.303l-0.167 0.387c0.509 0.219 1.006 0.466 1.488 0.739l0.207-0.366c-0.495-0.28-1.006-0.534-1.528-0.759zM7.596 2.382c-0.484 0.299-0.952 0.624-1.401 0.973l0.258 0.333c0.438-0.34 0.893-0.657 1.364-0.948l-0.221-0.358zM25.3 2.979l-0.245 0.343c0.451 0.322 0.884 0.669 1.298 1.037l0.28-0.315c-0.425-0.378-0.87-0.734-1.333-1.065zM4.905 4.472c-0.41 0.394-0.799 0.811-1.164 1.246l0.323 0.271c0.356-0.424 0.735-0.829 1.134-1.213l-0.292-0.303zM27.845 5.243l-0.312 0.283c0.373 0.41 0.723 0.839 1.050 1.287l0.34-0.248c-0.336-0.459-0.696-0.901-1.079-1.322zM2.715 7.081c-0.318 0.472-0.61 0.961-0.875 1.464l0.372 0.197c0.258-0.49 0.543-0.966 0.852-1.426l-0.349-0.235zM29.856 7.993l-0.364 0.211c0.278 0.479 0.529 0.974 0.754 1.48l0.385-0.171c-0.231-0.52-0.489-1.027-0.775-1.52zM1.125 10.095c-0.21 0.529-0.391 1.069-0.544 1.617l0.405 0.113c0.148-0.534 0.325-1.059 0.53-1.574l-0.391-0.156zM31.238 11.107l-0.401 0.129c0.169 0.527 0.31 1.064 0.421 1.607l0.412-0.085c-0.115-0.557-0.259-1.108-0.433-1.65zM0.214 13.377c-0.093 0.561-0.155 1.128-0.188 1.696l0.421 0.024c0.032-0.553 0.092-1.104 0.183-1.651l-0.416-0.069zM31.925 14.444l-0.419 0.040c0.049 0.503 0.073 1.009 0.073 1.515-0 0.554-0.029 1.108-0.087 1.659l0.419 0.044c0.060-0.566 0.090-1.134 0.090-1.703-0-0.519-0.025-1.038-0.075-1.556zM0.439 16.759l-0.421 0.020c0.027 0.568 0.084 1.135 0.172 1.697l0.416-0.065c-0.085-0.547-0.141-1.099-0.167-1.653zM31.229 19.299c-0.117 0.541-0.263 1.077-0.437 1.602l0.4 0.132c0.179-0.54 0.329-1.090 0.449-1.646l-0.412-0.089zM0.949 20.036l-0.407 0.109c0.147 0.55 0.324 1.091 0.529 1.622l0.393-0.152c-0.2-0.517-0.372-1.044-0.515-1.579zM30.186 22.448c-0.229 0.504-0.486 0.996-0.768 1.472l0.363 0.214c0.29-0.49 0.553-0.994 0.789-1.512l-0.383-0.174zM2.145 23.13l-0.374 0.193c0.261 0.506 0.548 0.998 0.861 1.472l0.352-0.232c-0.305-0.462-0.585-0.941-0.839-1.433zM28.498 25.303c-0.331 0.444-0.686 0.871-1.062 1.277l0.309 0.286c0.387-0.417 0.751-0.856 1.091-1.312l-0.338-0.252zM3.97 25.9l-0.325 0.268c0.362 0.439 0.747 0.859 1.153 1.257l0.294-0.301c-0.396-0.388-0.77-0.797-1.123-1.224zM26.244 27.738c-0.417 0.364-0.854 0.707-1.307 1.025l0.242 0.345c0.466-0.327 0.914-0.678 1.342-1.052l-0.277-0.317zM6.339 28.222l-0.261 0.33c0.446 0.353 0.911 0.682 1.392 0.986l0.225-0.356c-0.468-0.296-0.921-0.616-1.355-0.96zM23.528 29.643c-0.485 0.268-0.984 0.51-1.494 0.724l0.163 0.388c0.525-0.22 1.037-0.469 1.535-0.744l-0.204-0.368zM9.144 29.993l-0.186 0.378c0.511 0.251 1.035 0.474 1.57 0.669l0.144-0.396c-0.52-0.189-1.031-0.406-1.528-0.651zM20.471 30.928c-0.531 0.159-1.070 0.289-1.615 0.39l0.077 0.414c0.559-0.104 1.113-0.237 1.658-0.401l-0.12-0.403zM12.261 31.127l-0.101 0.409c0.552 0.136 1.112 0.243 1.676 0.319l0.056-0.417c-0.549-0.074-1.094-0.177-1.632-0.31zM17.209 31.533c-0.552 0.042-1.107 0.055-1.661 0.039l-0.012 0.421c0.569 0.016 1.138 0.003 1.705-0.041l-0.032-0.42z"></path>
</svg>
