<!-- Generated by IcoMoon.io -->
<svg version="1.1" xmlns="http://www.w3.org/2000/svg" width="19" height="32" viewBox="0 0 19 32">
<title>tarot_inverted1</title>
<path d="M12.13 17.329l-0.241 0.108 0.028 0.262 0.351 3.264-2.804-2.096-2.804 2.096 0.379-3.527-3.198-1.438 3.198-1.438-0.379-3.527 2.804 2.096 2.804-2.096-0.379 3.527 3.198 1.438zM16.088 0.364h-13.267c-1.36 0-2.457 1.131-2.457 2.501v26.272c0 1.37 1.097 2.501 2.457 2.501h13.267c1.36 0 2.457-1.131 2.457-2.501v-26.272c0-1.37-1.097-2.501-2.457-2.501z"></path>
</svg>
