<!-- Generated by IcoMoon.io -->
<svg version="1.1" xmlns="http://www.w3.org/2000/svg" width="32" height="32" viewBox="0 0 32 32">
<title>telegram</title>
<path d="M10.151 19.825l-4.395-1.465c-2.261-0.754-2.285-3.944-0.035-4.731l17.744-6.21 0.661 1.888-17.744 6.21c-0.45 0.158-0.445 0.796 0.007 0.946l4.395 1.465c0.138 0.046 0.288 0.030 0.413-0.044l5.316-3.156c0.527-0.313 1.046 0.415 0.578 0.812l-3.914 3.312c-0.087 0.073-0.145 0.173-0.167 0.282-0.007 0.032-0.010 0.066-0.010 0.099v3.561c0 0.445 0.539 0.669 0.854 0.354l1.83-1.83c0.18-0.18 0.467-0.196 0.666-0.037l4.042 3.234c0.284 0.228 0.709 0.084 0.797-0.269l3.586-14.345c0.096-0.386-0.275-0.725-0.65-0.593l-0.661-1.888c1.878-0.657 3.734 1.036 3.251 2.966l-3.586 14.345c-0.442 1.767-2.565 2.484-3.987 1.346l-2.994-2.395-0.881 0.881c-1.575 1.575-4.268 0.459-4.268-1.768v-2.84c-0.285 0.007-0.573-0.035-0.849-0.128z"></path>
</svg>
