<!-- Generated by IcoMoon.io -->
<svg version="1.1" xmlns="http://www.w3.org/2000/svg" width="32" height="32" viewBox="0 0 32 32">
<title>temporal_hunters</title>
<path d="M15.244 27.765c-0.344-0.777-0.703-1.911-0.798-2.52-0.166-1.062-0.15-1.088 0.396-0.628 0.744 0.626 1.619 0.929 1.619 0.561 0-0.16 0.202-0.29 0.45-0.29s0.445 0.169 0.44 0.375c-0.013 0.496-1.048 3.482-1.292 3.725-0.105 0.105-0.472-0.445-0.815-1.222zM24.182 24.267c-0.618-0.326-1.124-0.815-1.124-1.086s-0.085-0.407-0.189-0.303c-0.104 0.104-0.47 0.039-0.813-0.145l-0.624-0.334 0.664-0.245c0.463-0.171 0.666-0.498 0.673-1.080 0.009-0.803 0.025-0.812 0.436-0.235 0.235 0.33 0.619 0.802 0.855 1.049 0.525 0.551 1.696 2.465 1.697 2.773 0.002 0.341-0.341 0.255-1.573-0.395zM7.466 24.129c0-0.612 0.843-2.24 1.161-2.24 0.281 0 1.238 0.998 1.238 1.292 0 0.107-0.54 0.471-1.199 0.807-1.030 0.525-1.199 0.545-1.199 0.141zM14.362 23.275c0-0.739-0.766-1.619-1.11-1.276-0.108 0.108 0.064 0.394 0.382 0.637 0.5 0.382 0.518 0.481 0.128 0.742-0.745 0.499-1.198 0.353-1.518-0.488-0.207-0.544-0.205-0.897 0.007-1.109 0.214-0.214 0.060-0.571-0.495-1.15-0.457-0.477-0.636-0.84-0.415-0.84 0.296 0 0.337-0.342 0.169-1.424-0.122-0.783-0.241-1.627-0.265-1.874s-0.219-0.762-0.433-1.144c-0.324-0.576-0.546-0.66-1.306-0.493-0.635 0.139-0.853 0.099-0.711-0.131 0.113-0.183 0.062-0.332-0.112-0.332s-0.318 0.21-0.318 0.467c0 0.257-0.106 0.402-0.235 0.322-0.36-0.223-0.049-2.588 0.341-2.593 0.189-0.002 0.626-0.080 0.972-0.173 0.494-0.133 0.71 0.029 1.011 0.754 0.441 1.065 0.895 1.19 1.125 0.31 0.109-0.415 0.364-0.584 0.796-0.525 0.552 0.076 0.624-0.043 0.542-0.891-0.052-0.538-0.278-1.331-0.501-1.762-0.419-0.808-0.222-1.935 0.373-2.133 0.176-0.059 0.601 0.196 0.946 0.566l0.626 0.672 0.005-1.031c0.003-0.776 0.077-0.92 0.295-0.581 0.16 0.247 0.293 0.891 0.295 1.431 0.003 0.742-0.168 1.059-0.701 1.303-0.597 0.272-0.676 0.468-0.514 1.268 0.148 0.728 0.368 0.967 0.956 1.036 0.695 0.082 0.752 0.008 0.63-0.821-0.096-0.657 0.005-0.964 0.363-1.102 0.645-0.247 0.853-0.014 0.89 0.999 0.020 0.558 0.215 0.861 0.598 0.935 0.44 0.084 0.532-0.025 0.412-0.488-0.086-0.328-0.044-0.778 0.093-1 0.157-0.254 0.047-0.627-0.298-1.008-0.697-0.769-0.993-2.253-0.45-2.253 0.215 0 0.474 0.135 0.576 0.301s0.53 0.215 0.949 0.109c0.854-0.214 1.287 0.225 1.294 1.314 0.003 0.456-0.174 0.675-0.545 0.675-0.302 0-0.629 0.079-0.725 0.175-0.31 0.31 0.45 2.051 1.205 2.762 0.604 0.569 0.697 0.869 0.537 1.724-0.153 0.818-0.097 1.035 0.269 1.035 0.526 0 0.556-0.29 0.192-1.858l-0.257-1.108 0.714 0.468c0.707 0.463 0.98 1.698 0.449 2.027-0.294 0.181-0.565 1.451-0.725 3.394-0.099 1.196-0.058 1.274 0.668 1.276l0.773 0.002-0.892 0.465c-0.491 0.256-1.132 0.403-1.424 0.326-0.621-0.162-0.62-0.166-0.241 0.832 0.16 0.422 0.213 0.97 0.118 1.219-0.238 0.62-1.51 0.571-1.884-0.072-0.273-0.469-0.307-0.453-0.315 0.15-0.006 0.386-0.196 0.675-0.445 0.675-0.5 0-0.432-1.338 0.121-2.371 0.185-0.345 0.23-0.641 0.1-0.657s0.101-0.123 0.512-0.238c0.411-0.114 0.915-0.539 1.12-0.945l0.373-0.737 0.005 0.807c0.002 0.444 0.148 0.896 0.324 1.004 0.523 0.323 0.705-0.115 0.347-0.837-0.42-0.849-0.748-2.965-0.715-4.606 0.016-0.776-0.146-1.403-0.42-1.63-0.589-0.489-0.923-0.127-0.431 0.465 0.52 0.627 0.114 0.965-0.613 0.511-0.733-0.458-0.817 0.119-0.146 1.006 0.563 0.745 0.589 1.931 0.042 1.931-0.23 0-0.495-0.202-0.59-0.45-0.251-0.653-0.791-0.551-0.791 0.15 0 0.776-0.503 0.776-0.75 0-0.226-0.713-0.75-0.8-0.75-0.125 0 0.963-0.75 0.186-0.773-0.801-0.013-0.563-0.186-1.327-0.385-1.698-0.471-0.88 0.077-0.886 0.692-0.008l0.467 0.666v-0.799c0-0.993-0.338-1.218-1.287-0.858-0.586 0.223-0.707 0.438-0.59 1.052 0.176 0.92-0.361 1.032-0.822 0.172-0.456-0.852-0.844-0.742-0.666 0.189 0.083 0.434 0.402 0.854 0.708 0.934s0.557 0.243 0.557 0.363c0 0.285-0.816 2.993-0.948 3.145-0.218 0.251 1.381 1.665 1.882 1.665 0.292 0 0.74 0.3 0.997 0.666 0.6 0.857 0.61 2.032 0.017 2.032-0.274 0-0.45-0.279-0.45-0.713zM19.078 21.108c-0.1-0.1-0.358-0.11-0.575-0.024-0.239 0.096-0.168 0.167 0.181 0.181 0.316 0.013 0.493-0.058 0.393-0.157zM9.86 13.869c-0.002-0.124-0.135-0.427-0.295-0.675-0.235-0.364-0.291-0.321-0.295 0.225-0.002 0.371 0.13 0.675 0.295 0.675s0.298-0.101 0.295-0.225zM13.463 9.896c0-0.165-0.143-0.3-0.317-0.3s-0.234 0.135-0.132 0.3c0.102 0.165 0.245 0.3 0.318 0.3s0.132-0.135 0.132-0.3zM18.353 9.442c-0.671-0.491-0.909-0.317-0.402 0.294 0.207 0.25 0.504 0.375 0.66 0.278s0.040-0.354-0.258-0.572zM9.768 22.247c-0.537-0.593-0.688-1.857-0.223-1.857 0.154 0 0.374 0.304 0.49 0.675s0.36 0.77 0.542 0.887c0.235 0.15 0.238 0.306 0.012 0.532s-0.466 0.157-0.822-0.236zM15.91 21.125c-0.191-0.42-0.348-1.044-0.348-1.386 0-0.519 0.075-0.56 0.45-0.249 0.366 0.304 0.45 0.289 0.45-0.078 0-0.754-1.116-0.833-1.618-0.115-0.448 0.641-0.449 0.641-0.465-0.147-0.013-0.662 0.117-0.792 0.809-0.802 0.454-0.007 1.273-0.065 1.821-0.129 0.746-0.087 1.104 0.037 1.421 0.49 0.603 0.861 0.028 1.352-0.754 0.644-0.589-0.533-0.598-0.524-0.556 0.605 0.024 0.648-0.11 1.198-0.309 1.264-0.194 0.065-0.276 0.241-0.183 0.392s0.048 0.274-0.1 0.274c-0.148 0-0.426-0.344-0.617-0.764zM13.635 20.414c-0.288-0.319-0.472-0.825-0.408-1.126 0.092-0.433 0.227-0.339 0.648 0.455 0.622 1.173 0.506 1.496-0.24 0.671zM8.784 19.481c-0.462-0.175-0.678-0.587-0.805-1.533-0.159-1.187 0.019-2.017 0.28-1.305 0.324 0.883 1.416 2.349 1.522 2.042 0.068-0.196-0.104-0.702-0.38-1.124-0.409-0.625-0.424-0.768-0.079-0.768 0.667 0 1.144 0.645 1.144 1.549 0 0.969-0.763 1.487-1.681 1.14zM22.346 19.332c-0.324-0.844-0.208-1.53 0.343-2.029 0.56-0.507 1.063-0.362 1.349 0.388 0.108 0.284 0.18 0.178 0.195-0.285 0.014-0.449 0.129-0.624 0.295-0.45 0.149 0.157 0.182 0.825 0.072 1.484-0.179 1.071-0.3 1.209-1.133 1.29-0.646 0.063-0.991-0.059-1.121-0.399zM23.431 18.744c-0.078-0.41-0.262-0.672-0.409-0.581-0.151 0.093-0.131 0.417 0.045 0.746 0.42 0.784 0.535 0.732 0.364-0.165zM26.009 16.341c-0.061-0.77-0.017-1.458 0.097-1.528 0.186-0.115 1.086 0.218 3.169 1.171 0.832 0.381 0.453 0.959-0.793 1.208-0.472 0.094-1.196 0.257-1.61 0.36-0.713 0.179-0.758 0.115-0.864-1.211zM4.468 16.72c-0.907-0.348-1.708-0.679-1.779-0.735-0.337-0.265 0.687-0.796 2.232-1.155 1.647-0.383 1.7-0.376 1.551 0.196-0.085 0.326-0.041 0.991 0.099 1.479 0.306 1.067 0.157 1.082-2.103 0.215zM24.37 15.157c-0.132-0.343-0.284-0.363-0.716-0.093-0.423 0.264-0.662 0.249-1.041-0.066-0.406-0.337-0.456-0.744-0.289-2.308 0.144-1.347 0.093-2.031-0.174-2.354-0.578-0.696-0.079-0.911 0.629-0.271 0.464 0.42 0.581 0.788 0.453 1.426-0.138 0.69-0.053 0.891 0.429 1.017 0.331 0.086 0.659 0.445 0.729 0.796s0.206 1.010 0.302 1.463c0.183 0.867-0.037 1.133-0.323 0.389zM23.439 13.774c-0.106-0.404-0.264-0.517-0.456-0.326-0.31 0.31-0.066 0.945 0.363 0.945 0.14 0 0.181-0.279 0.092-0.619zM8.441 10.069c-1.619-2.437-1.691-2.976-0.296-2.196 1.232 0.689 1.681 1.177 1.504 1.637-0.134 0.35-0.030 0.41 0.445 0.259 0.343-0.109 0.711-0.049 0.825 0.135 0.128 0.206-0.005 0.296-0.35 0.237-0.452-0.078-0.547 0.085-0.511 0.879 0.024 0.536-0.043 0.973-0.15 0.971s-0.768-0.867-1.468-1.922zM23.234 9.745c-0.484-0.739-0.475-0.759 0.561-1.253 1.331-0.635 1.602-0.367 0.97 0.958-0.593 1.243-0.874 1.297-1.531 0.295zM16.681 7.168c-0.373-0.409-0.749-0.524-1.274-0.392-0.578 0.145-0.745 0.071-0.745-0.33 0-0.709 0.991-3.446 1.248-3.446 0.114 0 0.469 0.708 0.787 1.574 1.131 3.073 1.126 3.844-0.016 2.594z"></path>
</svg>
