<!-- Generated by IcoMoon.io -->
<svg version="1.1" xmlns="http://www.w3.org/2000/svg" width="32" height="32" viewBox="0 0 32 32">
<title>temporal_flux</title>
<path d="M15.2 28.113c-0.355-0.207-2.065-0.663-2.483-0.663-0.197 0-0.549-0.116-0.781-0.259s-0.88-0.394-1.439-0.558c-1.706-0.502-2.995-1.404-3.869-2.704-0.227-0.338-0.654-0.86-0.949-1.16-1.255-1.279-1.943-3.187-2.053-5.689-0.073-1.679-0.054-1.862 0.409-3.88 0.267-1.165 0.602-2.424 0.744-2.798 0.318-0.837 1.622-2.8 2.261-3.402 0.26-0.245 0.787-0.901 1.173-1.459 0.682-0.987 0.994-1.277 1.36-1.266 0.098 0.002-0.011 0.171-0.243 0.373s-0.799 0.901-1.261 1.553c-0.461 0.652-0.887 1.186-0.946 1.186-0.123 0-0.193 0.144-1.192 2.44-1.152 2.649-1.534 4.179-1.534 6.141 0 1.54 0.287 3.38 0.695 4.446 0.26 0.68 2.124 1.496 4.321 1.891 0.783 0.141 1.636 0.319 1.897 0.396 0.83 0.245 3.28 0.171 4.372-0.131 1.32-0.366 1.646-0.351 1.931 0.085 0.341 0.521 0.53 0.453-3.32 1.195-1.37 0.264-1.879 0.306-2.656 0.219-1.821-0.203-3.483-0.652-4.726-1.278-0.504-0.254-0.811-0.354-0.71-0.233 0.874 1.054 1.792 1.995 2.159 2.214 0.244 0.146 0.596 0.406 0.782 0.579 0.328 0.304 1.742 0.878 2.164 0.878 0.114 0 0.385 0.153 0.602 0.339s0.461 0.341 0.542 0.343c2.401 0.069 3.052 0.114 3.334 0.232 0.749 0.314 1.486 0.472 1.95 0.417 0.269-0.031 0.49-0.016 0.49 0.035 0 0.211-0.395 0.365-1.314 0.511-1.178 0.188-1.394 0.189-1.709 0.009zM21.040 27.159c-0.031-0.094 0.029-0.54 0.133-0.991 0.202-0.867 0.154-1.812-0.1-1.969-0.184-0.114 0.060-0.346 0.471-0.447 0.21-0.052 0.189-0.071-0.094-0.082-0.201-0.009-0.536-0.174-0.746-0.368l-0.38-0.352 0.391 0.284c0.513 0.373 0.83 0.359 1.701-0.076 0.646-0.322 0.764-0.451 1.111-1.217 0.456-1.005 0.507-1.963 0.17-3.146-0.303-1.061-0.637-1.56-1.369-2.045-0.598-0.396-1.53-0.577-1.53-0.296 0 0.149 0.479 0.283 1.024 0.285 0.288 0.001 0.543 0.136 0.839 0.442 0.57 0.591 0.713 1.024 0.713 2.165 0 0.842-0.058 1.064-0.462 1.787-0.531 0.948-1.109 1.436-1.701 1.436-0.524 0-0.515-0.132 0.032-0.476 0.715-0.45 1.108-1.322 1.099-2.439-0.013-1.63-0.737-2.615-1.816-2.47-0.642 0.086-0.748-0-0.439-0.36l0.238-0.277-0.407 0.25c-0.716 0.44-1.023 0.798-1.449 1.691-0.38 0.797-0.41 0.958-0.343 1.85 0.047 0.623 0.178 1.168 0.361 1.502 0.2 0.366 0.263 0.422 0.209 0.186-0.043-0.186 0.136 0.026 0.397 0.473 0.486 0.829 0.473 1.242-0.029 0.87-1.464-1.085-1.663-1.267-1.734-1.593-0.043-0.198-0.099-0.428-0.124-0.512-0.044-0.147 0.27-2.673 0.403-3.249 0.095-0.408 1.361-2.008 1.757-2.22 0.384-0.205 0.475 0.106-0.781-2.683-0.411-0.914-0.821-1.89-0.911-2.169-0.301-0.94-1.352-2.713-2.111-3.564-1.127-1.263-2.731-2.708-3.179-2.864-0.5-0.174-0.513-0.383-0.024-0.381 0.499 0.002 2.291 0.995 3.306 1.831 0.819 0.674 2.607 2.933 3.539 4.471 0.271 0.447 0.619 1.225 0.772 1.728s0.401 1.309 0.55 1.791c0.344 1.11 0.341 1.158-0.068 1.158-0.186 0-0.339 0.065-0.339 0.144s0.051 0.112 0.113 0.074c0.364-0.225 2.787 0.821 3.459 1.493 0.68 0.68 0.834 1.107 0.824 2.289-0.011 1.337-0.501 2.75-1.341 3.864-0.453 0.601-0.594 0.93-0.718 1.677-0.093 0.559-0.292 1.138-0.5 1.452-0.19 0.287-0.346 0.575-0.346 0.64s-0.116 0.222-0.257 0.35c-0.191 0.173-0.272 0.189-0.314 0.060zM24.732 18.469c0.001-0.201 0.192-0.439 0.557-0.697 0.305-0.216 0.645-0.609 0.756-0.874s0.408-0.734 0.66-1.041 0.612-0.908 0.801-1.334c0.289-0.653 0.329-0.896 0.256-1.549-0.163-1.451-1.2-3.655-2.555-5.431-1-1.311-3.012-2.913-4.273-3.404-1.072-0.417-0.509-0.537 0.813-0.174 1.33 0.365 3.767 2.299 5.034 3.996 1.212 1.622 1.92 4.138 1.938 6.881 0.009 1.367-0.228 2.711-0.477 2.711-0.062 0-0.13-0.503-0.152-1.118l-0.039-1.118-0.46 0.811c-0.638 1.126-1.185 1.774-1.895 2.244-0.726 0.481-0.968 0.505-0.964 0.097z"></path>
</svg>
