<!-- Generated by IcoMoon.io -->
<svg version="1.1" xmlns="http://www.w3.org/2000/svg" width="32" height="32" viewBox="0 0 32 32">
<title>tempest_in_a_teapot</title>
<path d="M15.924 29.575c-0.358-0.431 0.077-0.908 0.827-0.908 0.318 0 0.579-0.101 0.579-0.224 0-0.155-0.726-0.208-2.364-0.171-1.3 0.030-3.193 0.040-4.207 0.023l-1.844-0.031-1.476-0.987c-1.724-1.153-3.12-2.772-4.094-4.746-0.949-1.925-1.315-3.493-1.315-5.632 0-2.152 0.364-3.698 1.343-5.702 0.526-1.077 0.662-1.538 0.5-1.7-0.327-0.327-0.271-1.66 0.083-1.954 0.167-0.139 0.794-0.27 1.393-0.291 0.816-0.029 1.256-0.166 1.757-0.548 0.996-0.759 2.99-1.718 4.374-2.103 0.696-0.194 1.223-0.453 1.223-0.602 0-0.144 0.281-0.582 0.624-0.973 0.53-0.603 0.753-0.711 1.474-0.711 0.914 0 1.426 0.381 1.999 1.489 0.241 0.467 0.586 0.674 1.714 1.032 1.47 0.466 3.025 1.271 3.784 1.958 0.244 0.221 0.793 0.431 1.221 0.467 1.010 0.086 1.856 0.412 1.856 0.717 0 0.133 0.205 0.049 0.455-0.187 1.159-1.088 2.63-1.204 3.618-0.284 0.75 0.698 0.712 1.157-0.34 4.197-0.491 1.419-1 3.011-1.131 3.539s-0.317 1.008-0.414 1.068c-0.097 0.060-0.178 0.488-0.18 0.952s-0.138 1.477-0.302 2.251-0.298 1.431-0.298 1.458c0 0.028 0.556 0.050 1.235 0.050h1.235l-0.114 1.107c-0.204 1.98-1.653 4.379-3.225 5.338l-0.567 0.346 0.598 0.426c0.329 0.234 0.765 0.427 0.97 0.429 0.571 0.005 0.921 0.307 0.841 0.725-0.069 0.358-0.378 0.381-5.826 0.432-4.939 0.046-5.789 0.010-6.006-0.251zM17.832 27.46c-0.068-0.111-0.218-0.201-0.332-0.201s-0.445-0.186-0.734-0.414c-0.453-0.357-0.697-0.396-1.763-0.281-1.472 0.158-2.305-0.179-2.912-1.175-0.492-0.807-0.501-1.659-0.027-2.543 0.372-0.694 1.443-1.421 2.093-1.421 0.195 0 0.355-0.091 0.355-0.201 0-0.129 2.008-0.201 5.62-0.201 3.091 0 5.667-0.076 5.725-0.168s0.187-0.539 0.289-0.992l0.185-0.823-0.688 0.668c-0.689 0.669-1.904 1.114-3.043 1.114-1.355 0-2.855-1.402-3.385-3.163-0.616-2.048 0.459-4.378 3.037-6.581 0.611-0.522 1.11-1.032 1.11-1.134 0-0.108-1.904-0.186-4.547-0.186-3.56 0-4.525 0.055-4.441 0.251 0.058 0.138 0.359 0.84 0.668 1.559 0.745 1.733 0.777 3.808 0.084 5.385-0.437 0.994-1.922 2.593-3.163 3.406-1.579 1.035-1.32 4.873 0.449 6.647l0.652 0.654h2.446c1.579 0 2.402-0.071 2.322-0.201zM15.31 25.653c0.352-0.188 0.347-0.248-0.109-1.358-0.263-0.638-0.479-1.319-0.482-1.513-0.005-0.399-0.79-0.484-1.41-0.152-0.568 0.304-0.878 1.437-0.575 2.102 0.42 0.921 1.712 1.383 2.576 0.921zM24.024 19.633c0.492-0.211 1.070-0.641 1.284-0.956 0.681-1.002 3.286-8.042 3.286-8.881 0-0.122-0.314-0.28-0.697-0.352s-0.802-0.257-0.93-0.411c-0.128-0.154-0.361-0.281-0.517-0.281-0.348 0-4.043 3.472-5.23 4.913-1.88 2.284-1.603 4.962 0.619 5.97 1.025 0.466 1.094 0.466 2.185-0.002zM21.352 7.1c0-0.246-2.867-1.512-3.923-1.732-2.173-0.453-2.895-0.46-3.322-0.032-0.433 0.433-0.555 1.721-0.176 1.848 0.418 0.139 7.421 0.060 7.421-0.084z"></path>
</svg>
