<!-- Generated by IcoMoon.io -->
<svg version="1.1" xmlns="http://www.w3.org/2000/svg" width="33" height="32" viewBox="0 0 33 32">
<title>tenuous_allies</title>
<path d="M9.341 26.955c-0.078-0.126-0.424-0.212-1.052-0.262-0.743-0.059-0.855-0.090-1.594-0.438-0.273-0.129-0.732-0.321-1.020-0.427s-0.676-0.253-0.863-0.327c-0.187-0.074-0.576-0.212-0.863-0.307-0.494-0.163-0.649-0.222-1.151-0.44-0.297-0.129-0.462-0.187-0.981-0.344l-0.458-0.139v-3.452c0-1.898 0.018-3.442 0.039-3.429 0.166 0.094 0.805 0.353 1.216 0.491 0.238 0.080 1.646 0.694 2.451 1.068 0.24 0.112 0.45 0.203 0.466 0.203s0.279 0.138 0.583 0.307c0.305 0.169 0.684 0.337 0.842 0.373 0.321 0.074 0.525 0.167 0.76 0.345 0.090 0.069 0.186 0.103 0.222 0.081 0.035-0.022 0.131-0.18 0.215-0.351 0.27-0.557 1.060-1.492 2.26-2.674 0.848-0.835 1.091-1.124 1.358-1.613 0.094-0.173 0.211-0.373 0.259-0.445s0.15-0.307 0.226-0.523c0.075-0.216 0.211-0.528 0.301-0.693 0.149-0.274 0.179-0.301 0.338-0.301 0.126 0 0.216-0.043 0.323-0.157 0.082-0.086 0.174-0.157 0.205-0.157s0.112-0.059 0.179-0.131c0.068-0.072 0.17-0.131 0.227-0.131s0.201-0.1 0.318-0.222c0.254-0.264 0.461-0.405 0.593-0.405 0.167 0 0.588-0.515 0.588-0.72 0-0.052 0.047-0.128 0.105-0.169 0.092-0.066 0.105-0.135 0.105-0.555 0-0.362 0.019-0.495 0.079-0.544 0.043-0.036 0.079-0.087 0.079-0.115s0.082-0.136 0.183-0.242c0.101-0.106 0.183-0.221 0.183-0.257s0.048-0.148 0.105-0.25c0.112-0.199 0.151-0.811 0.052-0.811-0.065 0-0.072-1.185-0.007-1.225 0.025-0.015 0.059-0.161 0.075-0.324s0.055-0.322 0.086-0.352c0.030-0.030 0.055-0.109 0.055-0.176s0.024-0.12 0.052-0.12c0.029 0 0.052-0.047 0.052-0.105s0.024-0.105 0.052-0.105c0.073 0 0.066-0.242-0.011-0.364-0.051-0.082-0.047-0.119 0.026-0.2 0.049-0.054 0.090-0.132 0.091-0.173 0.003-0.115 0.162-0.297 0.192-0.218 0.014 0.036 0.104 0.065 0.2 0.065s0.19 0.024 0.208 0.052c0.042 0.069 1.109 0.069 1.151 0 0.018-0.029 0.090-0.052 0.16-0.052s0.128-0.024 0.128-0.052c0-0.029 0.041-0.053 0.092-0.054s0.137-0.036 0.193-0.079 0.168-0.077 0.25-0.077c0.106 0 0.162-0.034 0.194-0.118l0.045-0.118 0.051 0.131c0.028 0.072 0.15 0.249 0.27 0.392 0.26 0.312 0.402 0.601 0.477 0.978 0.031 0.153 0.123 0.49 0.206 0.749 0.322 1.007 0.322 1.011 0.301 1.674-0.011 0.345-0.073 0.979-0.139 1.408-0.109 0.713-0.178 0.92-0.305 0.92-0.063 0-0.38 0.333-0.38 0.399 0 0.030-0.059 0.086-0.131 0.124-0.079 0.042-0.131 0.116-0.131 0.186 0 0.064-0.035 0.13-0.079 0.146-0.049 0.019-0.079 0.099-0.079 0.215 0 0.119-0.025 0.185-0.069 0.185-0.129 0-0.402 0.387-0.402 0.57 0 0.087-0.118 0.368-0.266 0.633-0.024 0.043-0.106 0.201-0.182 0.351s-0.171 0.3-0.211 0.333c-0.040 0.034-0.073 0.104-0.073 0.158s-0.047 0.181-0.105 0.283c-0.058 0.102-0.105 0.242-0.105 0.309s-0.035 0.152-0.079 0.188c-0.043 0.036-0.079 0.087-0.079 0.113s-0.059 0.112-0.131 0.189c-0.072 0.078-0.131 0.183-0.131 0.235s-0.041 0.109-0.092 0.128c-0.112 0.043-0.222 0.147-0.222 0.212 0 0.026-0.050 0.093-0.111 0.148s-0.131 0.147-0.157 0.204c-0.025 0.058-0.066 0.14-0.091 0.183-0.135 0.238-0.165 0.329-0.165 0.49 0 0.098-0.036 0.262-0.079 0.366s-0.105 0.313-0.137 0.464c-0.032 0.151-0.101 0.37-0.153 0.485s-0.132 0.327-0.178 0.471c-0.082 0.256-0.151 0.432-0.244 0.614-0.025 0.050-0.046 0.126-0.046 0.17s-0.078 0.167-0.174 0.275c-0.096 0.108-0.227 0.308-0.292 0.444-0.078 0.164-0.307 0.428-0.682 0.785-0.391 0.372-0.658 0.682-0.868 1.008-0.304 0.47-0.552 0.759-0.651 0.759-0.029 0-0.053 0.020-0.053 0.044s-0.065 0.115-0.144 0.2c-0.162 0.175-0.253 0.306-0.322 0.464-0.026 0.059-0.085 0.138-0.131 0.177s-0.084 0.099-0.084 0.135c0 0.036-0.077 0.133-0.171 0.216s-0.215 0.22-0.269 0.304c-0.054 0.084-0.167 0.212-0.252 0.283s-0.175 0.185-0.201 0.253c-0.026 0.068-0.089 0.139-0.139 0.157-0.122 0.045-0.485 0.393-0.485 0.466-0 0.031-0.047 0.1-0.105 0.152s-0.105 0.122-0.105 0.155c0 0.134-0.439 0.443-0.64 0.451-0.065 0.003-0.236 0.073-0.38 0.157s-0.303 0.167-0.353 0.184c-0.050 0.018-0.092 0.053-0.092 0.079 0 0.060-0.090 0.060-0.127 0zM23.935 25.276c-0.173-0.023-0.879-0.047-1.57-0.052s-1.459-0.026-1.707-0.045c-0.248-0.019-0.648-0.022-0.889-0.007-0.607 0.038-0.854-0.006-1.044-0.188-0.086-0.083-0.171-0.21-0.188-0.283s-0.148-0.317-0.291-0.543c-0.439-0.693-0.474-0.803-0.431-1.374 0.060-0.805-0.125-2.053-0.555-3.738-0.070-0.273-0.101-0.574-0.101-0.97 0-0.513 0.011-0.581 0.105-0.649 0.058-0.041 0.105-0.125 0.105-0.186s0.059-0.165 0.131-0.233c0.072-0.068 0.131-0.154 0.131-0.192s0.024-0.069 0.052-0.069c0.029 0 0.052-0.032 0.052-0.071s0.082-0.151 0.183-0.249c0.1-0.098 0.183-0.202 0.183-0.233s0.082-0.134 0.181-0.23 0.195-0.242 0.213-0.324c0.018-0.082 0.054-0.162 0.081-0.178s0.048-0.083 0.048-0.147c0-0.131 0.111-0.399 0.166-0.399 0.019-0 0.050-0.069 0.069-0.154s0.069-0.182 0.111-0.218c0.043-0.036 0.124-0.165 0.18-0.288s0.126-0.238 0.154-0.256c0.029-0.018 0.052-0.098 0.052-0.178s0.044-0.186 0.098-0.235c0.054-0.049 0.111-0.185 0.127-0.303 0.020-0.151 0.084-0.27 0.216-0.406 0.103-0.105 0.187-0.22 0.187-0.256 0-0.093 0.11-0.275 0.281-0.464 0.082-0.091 0.177-0.219 0.209-0.284s0.085-0.126 0.116-0.136c0.031-0.010 0.193 0.187 0.36 0.438s0.46 0.623 0.652 0.825c0.276 0.293 0.389 0.466 0.549 0.84 0.332 0.779 0.54 1.159 0.788 1.438 0.13 0.146 0.28 0.353 0.335 0.461 0.165 0.323 0.41 1.114 0.45 1.45 0.040 0.339 0.101 0.497 0.192 0.497 0.082 0 1.195-0.65 1.692-0.988 0.595-0.405 1.164-0.655 1.857-0.815 1-0.231 1.202-0.29 1.91-0.562 0.79-0.303 0.841-0.332 1.311-0.749 0.373-0.331 0.617-0.524 0.769-0.607 0.087-0.048 0.092 0.192 0.092 4.704v4.755l-0.301 0.066c-0.274 0.060-0.812 0.236-1.591 0.52-0.163 0.059-0.528 0.157-0.811 0.218s-0.586 0.131-0.672 0.158c-0.825 0.255-1.504 0.414-1.779 0.417-0.086 0.001-0.287 0.049-0.445 0.108-0.833 0.307-1.034 0.364-1.353 0.383-0.191 0.012-0.489 0.003-0.662-0.021zM14.131 12.141c-0.258-0.117-1.025-0.86-1.105-1.071-0.029-0.076-0.052-0.184-0.052-0.241s-0.118-0.271-0.262-0.476c-0.144-0.205-0.262-0.395-0.262-0.423s-0.097-0.265-0.215-0.528c-0.118-0.263-0.273-0.637-0.343-0.832s-0.197-0.466-0.281-0.602c-0.199-0.322-0.462-1.057-0.503-1.406-0.033-0.283 0.061-0.593 0.208-0.684 0.037-0.022 0.12-0.117 0.185-0.211s0.152-0.17 0.194-0.17c0.041 0 0.075-0.024 0.075-0.052s0.028-0.052 0.063-0.052c0.034 0 0.123-0.058 0.196-0.128 0.134-0.128 0.134-0.128 1.363-0.133 1.3-0.005 1.782 0.037 2.248 0.197 0.247 0.085 0.302 0.13 0.404 0.329 0.145 0.284 0.15 0.413 0.023 0.638-0.054 0.096-0.115 0.25-0.135 0.341s-0.058 0.179-0.085 0.196c-0.027 0.016-0.048 0.145-0.048 0.285s-0.024 0.27-0.052 0.288c-0.029 0.018-0.052 0.087-0.052 0.154s-0.035 0.136-0.079 0.152c-0.046 0.018-0.079 0.096-0.079 0.189 0 0.088-0.024 0.206-0.052 0.263s-0.076 0.151-0.105 0.208c-0.029 0.057-0.052 0.173-0.052 0.259s-0.024 0.169-0.052 0.187c-0.029 0.018-0.052 0.107-0.053 0.199s-0.075 0.449-0.166 0.795c-0.139 0.528-0.17 0.758-0.196 1.45-0.027 0.741-0.041 0.83-0.135 0.901-0.142 0.107-0.322 0.1-0.595-0.024z"></path>
</svg>
