<!-- Generated by IcoMoon.io -->
<svg version="1.1" xmlns="http://www.w3.org/2000/svg" width="32" height="32" viewBox="0 0 32 32">
<title>the_boogeyman</title>
<path d="M13.709 28.986c-0.848-0.073-1.445-0.211-2.419-0.563-2.873-1.037-3.183-1.168-4.091-1.735-0.455-0.284-0.672-0.487-1.13-1.060-0.312-0.39-0.612-0.789-0.666-0.887-0.562-1.023-1.018-1.916-1.188-2.329-0.114-0.276-0.32-0.771-0.459-1.101-0.244-0.58-0.556-1.573-0.655-2.088-0.055-0.287-0.338-1.278-0.469-1.642-0.086-0.239-0.081-0.251 0.236-0.55 0.391-0.37 0.767-0.472 1.052-0.287 0.102 0.066 0.388 0.22 0.634 0.342s0.589 0.345 0.762 0.497c0.808 0.711 2.529 1.576 3.764 1.892 0.214 0.055 0.472 0.13 0.573 0.167 0.708 0.261 3.14 0.779 4.27 0.91 2.033 0.236 6.608 0.287 7.415 0.083 0.256-0.065 0.663-0.152 0.903-0.193 0.397-0.068 1.588-0.44 2.035-0.635 0.099-0.043 0.485-0.195 0.86-0.338s0.777-0.319 0.896-0.391c0.118-0.072 0.439-0.215 0.712-0.318s0.596-0.262 0.717-0.353c0.212-0.161 1.764-0.928 1.797-0.889 0.009 0.011-0.078 0.245-0.194 0.521-0.266 0.636-0.401 1.079-0.535 1.756-0.058 0.296-0.166 0.795-0.238 1.111-0.144 0.625-0.86 2.415-1.269 3.173-0.465 0.861-1.385 2.189-1.706 2.463-0.211 0.18-1.037 0.755-1.254 0.872-1.224 0.666-2.029 0.951-2.96 1.051-0.402 0.043-1.005 0.124-1.34 0.18s-0.964 0.12-1.397 0.143c-0.434 0.023-1.095 0.074-1.469 0.115-0.639 0.069-2.715 0.122-3.189 0.082zM18.295 27.152c1.167-0.047 2.988-0.352 3.652-0.611 0.746-0.291 2.25-1.417 2.867-2.146 0.564-0.666 1.327-2.231 1.327-2.721 0-0.294-0.33-0.66-0.595-0.66-0.097 0-0.436 0.132-0.753 0.293-0.558 0.283-1.182 0.433-2.45 0.59-0.695 0.086-1.421 0.197-1.935 0.297-0.296 0.057-0.715 0.124-0.932 0.15s-0.417 0.060-0.446 0.078c-0.163 0.1-3.843 0.013-4.857-0.116-0.296-0.037-1.037-0.087-1.648-0.111-1.289-0.049-1.635-0.1-2.91-0.427-0.696-0.178-1.176-0.358-1.855-0.694-0.858-0.425-0.924-0.472-1.045-0.754-0.154-0.359-0.351-0.48-0.783-0.479-0.373 0.001-0.747 0.173-0.869 0.401-0.145 0.271-0.092 0.733 0.137 1.183 0.269 0.53 1.504 2.069 2.113 2.634 0.396 0.368 1.603 1.216 2.454 1.724 0.136 0.081 0.32 0.212 0.41 0.291 0.232 0.204 0.713 0.503 1.009 0.626 0.248 0.104 1.733 0.446 2.163 0.499 0.279 0.034 3.74 0.001 4.944-0.048zM15.028 17.754c-0.404-0.129-0.953-0.6-1.15-0.987-0.126-0.247-0.147-0.416-0.143-1.158 0.006-1.012 0.077-1.268 0.548-1.977 0.417-0.628 0.714-0.786 1.475-0.786 0.295 0 0.728 0.050 0.963 0.11 0.359 0.092 0.482 0.169 0.771 0.484 0.189 0.206 0.404 0.503 0.478 0.66 0.185 0.396 0.361 1.302 0.357 1.842-0.003 0.394-0.030 0.482-0.215 0.699-0.117 0.136-0.212 0.283-0.212 0.326 0 0.134-0.449 0.508-0.824 0.685-0.452 0.214-1.532 0.268-2.049 0.102zM16.485 16.741c0.388-0.198 0.512-0.606 0.424-1.398-0.045-0.403-0.033-0.501 0.075-0.635 0.174-0.216 0.166-0.649-0.018-0.883-0.252-0.321-0.834-0.389-1.291-0.153-0.292 0.151-0.697 0.644-0.776 0.943-0.093 0.354-0.094 1.13-0.001 1.476 0.189 0.709 0.901 1 1.587 0.65zM27.646 16.678c0-0.050 0.803-0.402 0.837-0.368 0.025 0.025-0.728 0.405-0.804 0.405-0.019 0-0.034-0.017-0.034-0.037zM8.963 15.652c-0.080-0.109-0.235-0.374-0.343-0.588s-0.302-0.508-0.43-0.65c-0.128-0.143-0.323-0.417-0.434-0.609s-0.302-0.511-0.425-0.708c-0.124-0.197-0.494-0.81-0.821-1.361s-0.738-1.222-0.912-1.49c-0.212-0.327-0.302-0.532-0.272-0.625 0.024-0.076 0.191-0.338 0.371-0.582 0.488-0.663 0.959-1.508 1.752-3.143 0.392-0.808 0.782-1.598 0.866-1.756s0.252-0.47 0.372-0.695c0.12-0.224 0.278-0.424 0.351-0.443 0.214-0.056 1.199 0.942 1.753 1.776 0.65 0.979 1.296 2.271 1.937 3.875 0.199 0.496 0.26 1.050 0.234 2.125-0.006 0.273-0.083 0.385-0.968 1.422-0.862 1.009-1.54 1.851-2.197 2.73l-0.687 0.919zM9.777 12.923c0.124-0.075 0.475-0.47 0.781-0.878s0.649-0.847 0.761-0.976c0.268-0.309 0.431-0.704 0.429-1.034-0.001-0.154-0.136-0.577-0.321-1.003-0.588-1.357-0.745-1.809-0.796-2.287s-0.126-0.661-0.488-1.199c-0.464-0.688-1.028-0.575-1.335 0.265-0.182 0.499-1.030 2.254-1.454 3.010-0.386 0.688-0.403 1.066-0.075 1.707 0.125 0.243 0.262 0.465 0.306 0.492 0.118 0.073 0.566 0.793 0.831 1.337 0.256 0.525 0.471 0.695 0.884 0.699 0.138 0.001 0.352-0.059 0.476-0.134zM8.446 9.764c0-0.098 0.050-0.244 0.11-0.322 0.105-0.136 0.107-0.133 0.060 0.072-0.077 0.332-0.17 0.468-0.17 0.251zM22.437 15.678c-0.257-0.112-0.448-0.437-0.71-1.205-0.094-0.276-0.293-0.648-0.457-0.854-0.313-0.393-0.904-1.565-1.113-2.206-0.099-0.305-0.244-0.513-0.636-0.918-0.462-0.477-0.506-0.549-0.5-0.808 0.007-0.278 0.328-0.866 0.689-1.263 0.079-0.087 0.244-0.316 0.367-0.509s0.501-0.767 0.84-1.275c0.339-0.508 0.688-1.053 0.774-1.21 0.666-1.217 1.44-2.4 1.57-2.4 0.109 0 0.515 0.404 0.515 0.512 0 0.037 0.306 0.472 0.681 0.966s0.681 0.936 0.681 0.982c0 0.046 0.097 0.277 0.215 0.514s0.215 0.469 0.215 0.517c0 0.048 0.092 0.193 0.204 0.322s0.341 0.509 0.51 0.844c0.169 0.335 0.372 0.7 0.45 0.811s0.187 0.348 0.241 0.527c0.109 0.361 0.094 0.41-0.289 0.955-0.125 0.177-0.289 0.446-0.366 0.596s-0.304 0.473-0.503 0.717c-0.2 0.244-0.442 0.577-0.537 0.742s-0.3 0.503-0.454 0.752c-0.154 0.249-0.415 0.712-0.58 1.028-0.275 0.526-0.664 1.135-1.109 1.736-0.188 0.255-0.34 0.282-0.696 0.127zM23.172 12.741c0.21-0.088 0.292-0.195 0.508-0.663 0.464-1.007 0.737-1.556 0.954-1.92 0.416-0.696 0.446-0.769 0.411-0.995-0.038-0.246-0.535-1.686-0.622-1.8-0.030-0.039-0.076-0.168-0.103-0.287-0.114-0.501-0.424-1.19-0.596-1.325-0.101-0.079-0.278-0.144-0.395-0.144-0.284 0-0.662 0.382-0.768 0.777-0.094 0.349-0.379 0.91-0.57 1.12-0.072 0.079-0.168 0.216-0.212 0.302-0.098 0.191-0.798 1.171-1.047 1.468-0.245 0.291-0.234 0.588 0.030 0.852 0.115 0.115 0.273 0.209 0.351 0.209 0.144 0 0.228 0.129 0.228 0.348 0 0.162 0.429 1.050 0.75 1.551 0.161 0.252 0.343 0.439 0.488 0.502 0.292 0.127 0.293 0.127 0.594 0.001z"></path>
</svg>
