<!-- Generated by IcoMoon.io -->
<svg version="1.1" xmlns="http://www.w3.org/2000/svg" width="33" height="32" viewBox="0 0 33 32">
<title>the_tatterdemalion</title>
<path d="M15.812 24.989c-0.856-0.119-2.981-0.669-3.366-0.871l-0.176-0.092 0.286-0.074c0.694-0.179 3.126-1.046 4.31-1.537 0.751-0.311 1.207-0.49 1.948-0.763 0.868-0.32 4.7-2.303 5.33-2.758 0.311-0.225 0.366-0.226 0.466-0.009 0.105 0.227 0.102 0.268-0.048 0.578-0.070 0.145-0.128 0.287-0.128 0.315s-0.115 0.223-0.255 0.434-0.255 0.418-0.255 0.459c-0 0.042-0.053 0.114-0.118 0.16s-0.187 0.188-0.271 0.315c-0.085 0.127-0.283 0.396-0.441 0.598s-0.331 0.447-0.383 0.545c-0.133 0.248-0.693 0.827-0.995 1.029-0.138 0.092-0.38 0.289-0.538 0.437-0.615 0.575-1.885 1.029-3.194 1.143-0.925 0.080-1.942 0.123-2.172 0.091zM2.399 24.866c-0.257-0.039-0.668-0.161-0.703-0.208-0.018-0.024-0.12-0.105-0.227-0.18-0.139-0.097-0.22-0.228-0.283-0.46-0.049-0.178-0.112-0.324-0.141-0.324s-0.052-0.115-0.052-0.256c0-0.141 0.023-0.256 0.052-0.256s0.089-0.146 0.135-0.324c0.097-0.38 0.226-0.654 0.358-0.763 0.052-0.043 0.094-0.103 0.094-0.134 0-0.092 0.566-0.806 0.67-0.846 0.053-0.020 0.097-0.088 0.097-0.15 0-0.127 1.756-1.871 1.884-1.871 0.045 0 0.129-0.072 0.186-0.16s0.141-0.16 0.185-0.16c0.044 0 0.223-0.146 0.398-0.324s0.4-0.368 0.501-0.421c0.101-0.053 0.345-0.225 0.543-0.382 1.071-0.851 1.24-0.938 1.752-0.902 0.314 0.022 0.402 0.057 0.575 0.23 0.18 0.18 0.205 0.246 0.205 0.55 0 0.293-0.028 0.375-0.182 0.536-0.103 0.108-0.302 0.22-0.459 0.26-0.153 0.038-0.296 0.1-0.319 0.136s-0.153 0.137-0.29 0.223c-0.137 0.086-0.364 0.308-0.505 0.492-0.573 0.75-0.649 0.858-0.798 1.134-0.404 0.749-0.435 0.841-0.399 1.177 0.054 0.507 0.204 0.795 0.479 0.92 0.316 0.143 2.365 0.136 2.895-0.011 0.189-0.052 0.485-0.114 0.657-0.137s0.359-0.067 0.415-0.097c0.056-0.030 0.318-0.115 0.581-0.189s0.537-0.16 0.607-0.191c0.070-0.031 0.386-0.121 0.703-0.2s0.604-0.163 0.639-0.189c0.035-0.025 0.308-0.097 0.607-0.159s0.658-0.163 0.798-0.223c0.141-0.060 0.514-0.173 0.83-0.251s0.665-0.182 0.776-0.231c0.111-0.050 0.23-0.090 0.266-0.090s0.204-0.063 0.374-0.14c0.17-0.077 0.337-0.145 0.373-0.15s0.107-0.027 0.16-0.048c0.053-0.021 0.297-0.086 0.543-0.144s0.477-0.143 0.513-0.188c0.036-0.045 0.194-0.118 0.351-0.16s0.4-0.13 0.541-0.194c0.141-0.064 0.361-0.148 0.491-0.188s0.302-0.124 0.383-0.187c0.081-0.063 0.291-0.186 0.467-0.274 0.621-0.309 1.090-0.592 1.458-0.879 0.205-0.16 0.492-0.352 0.639-0.427s0.398-0.253 0.559-0.395c0.161-0.142 0.37-0.278 0.464-0.302s0.222-0.104 0.283-0.18c0.062-0.075 0.212-0.191 0.334-0.257s0.309-0.199 0.414-0.296c0.105-0.096 0.365-0.301 0.576-0.454s0.63-0.485 0.931-0.736c0.301-0.251 0.647-0.511 0.77-0.576 0.279-0.15 0.63-0.504 0.63-0.636 0-0.055 0.084-0.207 0.187-0.337 0.301-0.38 0.398-0.69 0.341-1.088-0.043-0.299-0.077-0.359-0.258-0.46-0.115-0.064-0.23-0.111-0.255-0.104s-0.117-0.026-0.203-0.073c-0.208-0.115-2.634-0.063-2.782 0.059-0.053 0.044-0.096 0.056-0.096 0.027s-0.034-0.018-0.077 0.024c-0.096 0.096-0.434 0.101-0.434 0.006 0-0.039-0.040-0.055-0.089-0.037s-0.155-0.036-0.235-0.121c-0.080-0.085-0.178-0.155-0.218-0.155-0.092 0-0.381-0.31-0.447-0.479-0.111-0.284-0.021-0.608 0.237-0.847 0.104-0.097 0.321-0.176 0.657-0.241 0.276-0.053 0.586-0.138 0.688-0.189s0.636-0.156 1.186-0.234c0.549-0.077 1.019-0.17 1.043-0.206 0.028-0.042 0.815-0.075 2.175-0.092l2.131-0.027 0.38 0.168c0.55 0.244 0.558 0.25 0.71 0.523 0.146 0.262 0.207 1.024 0.093 1.147-0.031 0.033-0.090 0.167-0.131 0.297s-0.189 0.378-0.327 0.552c-0.138 0.174-0.252 0.341-0.252 0.371s-0.057 0.091-0.127 0.135c-0.070 0.044-0.17 0.182-0.223 0.309-0.107 0.255-0.711 0.878-1.439 1.484-0.263 0.219-0.522 0.438-0.575 0.486s-0.278 0.227-0.502 0.397c-0.223 0.17-0.525 0.402-0.671 0.516s-0.301 0.207-0.345 0.208c-0.044 0.001-0.080 0.031-0.080 0.067s-0.13 0.148-0.289 0.248c-0.159 0.101-0.41 0.289-0.559 0.418-0.544 0.474-0.967 0.801-1.033 0.801-0.037 0-0.149 0.086-0.249 0.192s-0.225 0.192-0.279 0.192c-0.054 0-0.4 0.189-0.768 0.42-1.531 0.961-4.571 2.535-5.797 3.001-0.492 0.187-1.254 0.488-1.693 0.67-0.909 0.375-3.305 1.235-3.641 1.306-0.123 0.026-0.252 0.069-0.287 0.095s-0.33 0.112-0.655 0.191c-0.325 0.079-0.591 0.166-0.591 0.193s-0.093 0.067-0.208 0.089c-0.306 0.059-0.905 0.249-0.942 0.298-0.018 0.023-0.104 0.057-0.192 0.076-0.342 0.071-1.252 0.315-1.373 0.369-0.166 0.073-0.874 0.234-1.26 0.286-0.166 0.023-0.319 0.068-0.339 0.101s-0.143 0.061-0.273 0.061c-0.13 0.001-0.466 0.043-0.747 0.094-0.472 0.085-3.2 0.126-3.673 0.055zM10.127 21.394c0-0.035-0.052-0.064-0.117-0.064-0.143 0-0.394-0.257-0.394-0.403 0-0.059-0.024-0.108-0.054-0.108s-0.119-0.273-0.198-0.607c-0.079-0.334-0.173-0.607-0.208-0.607s-0.048-0.042-0.028-0.094c0.020-0.052 0.009-0.111-0.025-0.132s-0.062-0.144-0.062-0.274c-0.001-0.13-0.042-0.408-0.091-0.619s-0.11-0.564-0.135-0.784c-0.025-0.22-0.070-0.416-0.101-0.435-0.072-0.045-0.072-1.72 0-1.864 0.031-0.061 0.132-0.426 0.225-0.811s0.192-0.715 0.22-0.735c0.028-0.019 0.117-0.215 0.198-0.435s0.18-0.422 0.22-0.447c0.039-0.026 0.126-0.155 0.194-0.287s0.218-0.352 0.335-0.489c0.117-0.137 0.213-0.264 0.213-0.282 0-0.048 0.809-0.873 0.856-0.873 0.022 0 0.273-0.201 0.558-0.447s0.564-0.448 0.622-0.448c0.057-0.001 0.169-0.069 0.248-0.153s0.223-0.171 0.319-0.195c0.097-0.024 0.233-0.097 0.303-0.162 0.121-0.112 1.010-0.383 1.258-0.383 0.064 0 0.116-0.025 0.116-0.056 0-0.18 2.862-0.283 3.41-0.123 0.145 0.042 0.277 0.093 0.295 0.112s0.19 0.090 0.383 0.156c0.193 0.066 0.495 0.213 0.671 0.326s0.381 0.226 0.457 0.249c0.076 0.024 0.154 0.085 0.174 0.136s0.064 0.093 0.099 0.093c0.035 0 0.248 0.129 0.474 0.287s0.443 0.287 0.482 0.287c0.039 0 0.071 0.030 0.071 0.068s0.029 0.050 0.064 0.028c0.035-0.022 0.064-0.009 0.064 0.028s0.041 0.068 0.090 0.068c0.122 0 1.28 1.235 1.405 1.498 0.055 0.115 0.143 0.245 0.196 0.29s0.097 0.116 0.097 0.159c0 0.043 0.055 0.128 0.121 0.188s0.139 0.204 0.161 0.319c0.027 0.146 0.179 0.349 0.501 0.671 0.447 0.447 0.462 0.472 0.462 0.772 0 0.256-0.033 0.344-0.188 0.506-0.103 0.108-0.224 0.196-0.269 0.196s-0.176 0.081-0.291 0.181c-0.115 0.1-0.397 0.306-0.625 0.458s-0.438 0.315-0.466 0.362c-0.028 0.047-0.091 0.085-0.141 0.085-0.103 0-0.613 0.332-0.733 0.477-0.045 0.054-0.135 0.098-0.2 0.098s-0.155 0.057-0.199 0.128c-0.044 0.070-0.127 0.128-0.184 0.128s-0.14 0.042-0.183 0.094c-0.043 0.052-0.176 0.112-0.295 0.135s-0.217 0.066-0.217 0.098c0 0.031-0.044 0.057-0.097 0.057-0.099 0-1.027 0.413-1.436 0.639-0.123 0.068-0.353 0.183-0.511 0.255s-0.374 0.177-0.479 0.233c-0.105 0.056-0.307 0.158-0.447 0.227s-0.301 0.149-0.356 0.177c-0.055 0.029-0.328 0.115-0.607 0.193s-0.593 0.18-0.698 0.229c-0.367 0.169-1.008 0.346-1.25 0.346-0.134 0-0.259 0.025-0.278 0.056s-0.229 0.092-0.467 0.136c-0.238 0.044-0.518 0.125-0.624 0.18s-0.206 0.102-0.224 0.104c-0.018 0.002-0.061 0.021-0.096 0.042s-0.337 0.091-0.671 0.155c-0.334 0.064-0.639 0.154-0.678 0.2s-0.111 0.084-0.16 0.085c-0.049 0-0.258 0.087-0.465 0.192-0.383 0.194-0.614 0.242-0.614 0.127zM18.666 16.35c0.504-0.158 1.126-0.472 1.295-0.652 0.146-0.157 0.17-0.371 0.054-0.487-0.122-0.122-0.353-0.090-0.617 0.085-0.372 0.246-1.196 0.541-1.511 0.541-0.21 0-0.303 0.033-0.372 0.132-0.3 0.428 0.333 0.638 1.151 0.381zM16.82 15.546c0.15-0.105 0.192-0.373 0.070-0.448-0.13-0.081-0.031-0.92 0.157-1.332 0.204-0.447 0.215-0.647 0.040-0.741-0.189-0.101-0.352-0.025-0.517 0.244-0.29 0.471-0.328 0.614-0.359 1.363-0.029 0.694-0.022 0.752 0.105 0.878 0.161 0.161 0.311 0.171 0.504 0.036zM18.824 15.215c0.269-0.158 0.437-0.46 0.437-0.783 0-0.739-0.875-1.197-1.439-0.753-0.484 0.381-0.454 1.392 0.048 1.619 0.254 0.114 0.683 0.077 0.954-0.082zM20.352 14.487c0.13-0.243 0.012-0.629-0.365-1.189-0.3-0.446-0.416-0.562-0.753-0.751-0.342-0.191-0.459-0.223-0.814-0.223-0.329 0-0.438 0.026-0.527 0.123-0.23 0.254 0.029 0.516 0.512 0.516 0.314 0 0.685 0.259 1.018 0.711 0.157 0.214 0.286 0.417 0.286 0.452s0.046 0.161 0.103 0.28c0.082 0.172 0.141 0.217 0.285 0.217 0.121 0 0.207-0.046 0.255-0.136z"></path>
</svg>
