<!-- Generated by IcoMoon.io -->
<svg version="1.1" xmlns="http://www.w3.org/2000/svg" width="36" height="32" viewBox="0 0 36 32">
<title>the_miskatonic_museum</title>
<path d="M21.975 8.403c-0.763-0.5-1.466-0.903-2.192-1.54-0.461-0.403-0.805-1.087-1.213-1.592-0.288-0.060-0.575-0.109-0.856-0.058-0.191 0.036-0.371 0.111-0.541 0.209-0.227 0.328-0.437 0.715-0.633 0.973-0.524 0.691-1.105 1.217-1.735 1.569-0.567 0.318-3.191 2.751-4.321 2.992-0.014 0.023-0.055 0.389 0 0.678 0.474-0.133 0.919-0.050 1.346-0.3 0.906-0.53 1.682-1.314 2.584-1.902 0.509-0.331 1.079-0.625 1.611-0.952 0 0 0-0.002 0.002-0.002 0.275-0.491 0.745-0.819 1.144-1.198 0.091-0.203 0.188-0.398 0.318-0.524 0.416-0.39 0.654 0.096 0.965 0.464 0.1-0.083 0.25-0.112 0.355-0.027 0.247 0.201 0.408 0.456 0.569 0.723 0.101 0.056 0.206 0.109 0.31 0.156 0.893 0.408 1.413 0.851 2.242 1.478 0.79 0.594 1.812 0.79 2.575 1.669 0.43 0.495 0.536 1.105 0.904 1.757-0.721-2.522-1.924-3.583-3.434-4.571z"></path>
<path d="M26.107 8c-0.398-0.413-0.726-0.896-1.026-1.394-0.098-0.161-0.046-0.318 0.061-0.411-0.060-0.098-0.114-0.198-0.161-0.307-0.009-0.014-0.023-0.023-0.032-0.036-0.84-0.495-0.899-1.735-0.956-2.788-0.161-0.589-0.382-0.821-1.158-1.161-0.524-0.228-1.078-0.114-1.629-0.067-0.286 0.215-0.681 0.215-1.034 0.111-0.145-0.041-0.214-0.157-0.222-0.28-0.716-0.222-1.344-0.247-2.090 0.087-0.407 0.182-0.818 0.328-1.245 0.395-0.023 0.014-0.046 0.027-0.076 0.036-0.557 0.175-1.084 0.223-1.56-0.182-0.003-0.003-0.005-0.005-0.009-0.009-0.593-0.119-1.569-0.241-1.855 0.082-0.498 0.561-1.23 2.47-1.5 3.447-0.201 0.732-0.053 1.394-0.194 2.146-0.135 0.707-0.557 1.301-0.989 1.853-0.133 0.168-0.191 0.456-0.164 0.731 0.053 0.479 0.386 2.544 0.204 1.227-0.101-1.261 0.71-2.475 1.357-3.317 0.559-0.728 0.572-2.522 0.864-3.623 0.761-2.873 2.992-1.304 4.325-1.64 1.627-0.408 2.668-0.433 4.189 0.018 0.498 0.148 0.829 0.064 1.095 0.198 0.874 0.225 1.195 1.163 0.896 2.025-0.002 0.002-0.002 0.002-0.003 0.003 0.311 1.015 0.615 1.8 1.311 2.571 0.925 1.022 1.181 1.299 1.383 3.175 0.133 1.23-0.911 1.984-1.010 3.153 0.36-0.834 1.405-2.819 1.503-3.839 0.069-0.726-0.056-1.502-0.279-2.207z"></path>
<path d="M15.627 8.137c-1.417 0.351-0.837 4.727-0.469 6.153 0.499 1.943 1.049 3.566 1.977 5.027-1.28-1.566-2.655-3.606-3.19-6.246-0.153-0.752-0.573-2.136-0.472-2.967 0.183-1.491 1.137-0.679 2.154-1.967z"></path>
<path d="M20.123 8.071c-0.368 1.473 0.612 3.842 0.445 5.639-0.161 1.739-0.692 3.122-1.158 4.605-0.127 0.104-0.358 0.977-0.389 1.002 1.825-1.723 2.579-7.168 2.33-10.393-0.083-0.041-0.17-0.050-1.229-0.853z"></path>
<path d="M22.549 16.47c-0.753 0.832-0.699 1.137-1.023 2.178-0.267 0.855-0.605 1.598-0.874 2.43-0.339 1.055-0.146 2.571-0.683 3.464-0.516 0.861-0.988-0.451-1.76-0.453-0.559 0-1.558 1.625-1.955 1.298-0.559-0.461-0.234-2.523-0.374-3.5-0.177-1.216-0.561-2.043-1.208-2.726-0.806-0.851-0.988-1.205-1.534-2.384-0.687-1.482-1.566-4.362-2.653-5.144-0.002 0.071-0.005 0.142-0.009 0.214 0.198 0.532 0.198 1.349 0.297 2.021 0.005 0.009 0.009 0.014 0.014 0.023 0.191 0.392 0.451 0.742 0.626 1.145 0.005 0.009 0.005 0.018 0.009 0.027 0.018 0.018 0.041 0.032 0.058 0.048 0.036 0.023 0.071 0.056 0.1 0.1 0.336 0.508 0.652 0.944 0.896 1.521 0.267 0.63 0.408 1.283 0.851 1.796 0.233 0.271 0.088 0.45 0.167 0.731 0.090 0.315 0.349 0.651 0.538 0.904 0.087 0.116 0.164 0.225 0.236 0.328 0.172 0.111 0.325 0.255 0.448 0.445 0.249 0.387 0.304 0.855 0.252 1.307 0.060 0.418 0.085 0.916 0.124 1.592 0.009 0.154 0.014 0.323 0.018 0.498 0.124 0.243 0.148 0.533 0.148 0.837 0 0.104-0.036 0.185-0.093 0.241 0.027 0.259 0.43 1.902 0.954 1.315 0.066-0.072 0.095-0.172 0.143-0.257 0.153-0.271 0.405-0.283 0.622-0.448 0.262-0.201 0.424-0.511 0.707-0.687 0.183-0.114 0.411-0.165 0.609-0.082 0.109 0.046 0.201 0.132 0.289 0.215 0.182 0.17 0.365 0.344 0.483 0.567 0.046 0.087 0.085 0.185 0.156 0.247 0.403 0.347 0.914 0.189 1.179-0.209 0.214-0.325 0.369-0.72 0.506-1.084 0.164-0.433 0.067-0.843 0.117-1.286 0.051-0.464 0.262-0.83 0.482-1.225 0.116-0.638 0.185-1.134 0.273-1.622-0.056-0.287-0.027-0.581 0.137-0.861 0.023-0.032 0.046-0.061 0.071-0.083 0.046-0.169 0.091-0.344 0.151-0.533 0.23-0.736 0.448-1.494 0.795-2.18 0.153-0.305 0.332-0.647 0.596-0.863 0.223-0.182 0.535-0.259 0.734-0.476 0.246-0.27 0.244-0.605 0.376-0.938 0.080-0.198 0.835-1.963 0.869-1.943-0.789-0.389-1.993 2.536-2.86 3.495z"></path>
<path d="M18.58 24.508c0.182-1.293 0.487-2.852 0.326-4.157 0.387 1.579 0.54 2.734 0.557 4.664-0.246-0.041-0.609-0.061-0.875-0.151 0.027-0.146 0.051-0.813-0.009-0.357z"></path>
<path d="M17.251 20.354c-0.273 1.735-0.533 2.867-0.496 4.838 0.287-0.032 0.567-0.116 0.766-0.381-0.177-1.144-0.371-3.474-0.27-4.457z"></path>
<path d="M13.883 2.938c-0.472-0.048-0.781 0.379-0.882 0.962-0.060 0.353-0.149 1.050 0 1.322 0.389 0.217 1.046 0.604 1.449 0.13 0.18-0.212 0.316-0.789 0.308-1.142-0.014-0.54-0.3-0.622-0.403-1.020-0.103-0.077-0.058 0.009-0.121-0.121-0.198-0.023-0.402-0.041-0.557-0.191 0.265-0.724 1.065-0.050 1.254 0.427 0.284 0.712 0.159 1.404-0.143 2.014-0.585 1.182-2.186 1.116-2.271-0.605-0.018-0.369 0.121-0.941 0.281-1.205 0.243-0.398 0.856-0.549 1.084-0.572z"></path>
<path d="M21.991 3.084c-0.49 0.496-1.148 0.957-0.599 1.955 0.239 0.433 0.71 0.843 1.118 0.646 0.461-0.22 0.822-0.959 0.666-1.633-0.095-0.411-0.546-0.922-0.814-0.965 0.541 0.046 0.819 0.426 0.968 1.124 0.148 0.694 0.297 1.394-0.278 1.762-0.53 0.341-1.296 0.384-1.68-0.304-0.191-0.344-0.808-1.349-0.646-1.868 0.083-0.265 0.569-0.552 0.752-0.649 0.283-0.149 0.779-0.14 0.512-0.067z"></path>
<path d="M22.105 24.71c-0.311-0.164-0.508 1.156-0.85 1.267 0.339-0.055 0.67 0.066 1.007-0.060 0.387-0.143 0.684-0.406 1.123-0.471 0.813-0.117 1.592-0.112 2.417-0.214 0.581-0.071 0.53-0.353 0.602-0.946 0.032-0.239 0-0.498 0.079-0.739 0.111-0.334 0.366-0.557 0.463-0.89 0.109-0.379 0.185-1.050 0.074-1.394 0.231 0.207 0.806 0.403 1.131 0.551 0.522 0.239 0.959 0.442 1.482 0.586 0.023 0.336 0.954 0.623 1.225 0.84 0.353 0.279 0.599 0.562 0.891 0.88 0.716-0.485-1.677-1.685-1.98-1.849-0.837-0.456-1.654-0.969-2.453-1.454 0.418-0.23 0.737-0.84 1.164-1.166 0.53-0.405 0.845-1.025 1.404-1.375 0.761-0.475 1.725-0.819 2.56-1.046 0.483-0.133 1.285-0.21 1.701-0.491-0.564-0.156-1.195-0.027-1.765 0.083-0.605 0.117-1.335 0.252-1.91 0.511-0.755 0.339-1.641 0.75-2.205 1.407-0.297 0.347-0.808 0.914-1.005 1.331-0.128-0.673-0.347-1.442-0.352-2.136-0.003-0.654 0.217-1.251 0.128-1.903-0.633-0.26 0.252-2.070 0.424-2.441 0.284-0.614 0.649-1.595 1.327-1.677-0.088 0.411 0.125 0.93 0.271 1.307 0.121 0.311 0.279 0.62 0.403 0.925 0.204 0.504 0.459 0.628 0.869 0.956 0.631 0.506 1.063 0.74 1.839 1.007 0.318 0.107 1.057 0.503 1.33 0.164-0.433-0.112-0.784-0.247-1.197-0.414-0.809-0.329-1.722-0.382-2.183-1.306-0.374-0.747-0.771-2.088-0.782-2.905-0.009-0.516 0.361-0.936 0.435-1.471 0.063-0.451 0.046-0.917 0.27-1.307 0.199-0.346 0.559-0.572 0.818-0.88 0.183-0.217 0.332-0.448 0.557-0.61-0.501-0.074-1.153 0.805-1.409 1.206-0.416 0.66-0.956 1.217-1.351 1.894-0.353 0.604-0.811 1.013-1.243 1.543-0.41 0.504-0.504 1.261-0.752 1.873-0.279 0.692-0.646 1.372-0.753 2.119-0.101 0.712-0.003 1.73 0.138 2.445 0.189 0.969 0.618 1.894 0.588 2.886-0.036 1.14-0.981 2.067-0.87 3.232 0.005-0.365-0.288-0.451-0.471-0.705-0.036 0.271 0.148 0.557-0.079 0.756-0.018 0.014-0.482-0.009-0.549 0.003-0.243 0.046-0.453 0.204-0.686 0.276-0.551 0.17-1.614 0.304-1.878-0.199z"></path>
<path d="M30.469 20.184c0.191-0.214 0.561-0.302 0.854-0.474 0.366-0.217 0.695-0.626 1.030-0.904 0.422-0.35 0.885-0.874 1.348-1.089 0.018 0.612-0.663 1.195-0.8 1.82-0.138 0.639-0.032 1.171-0.027 1.788 0.014 0.84 0.087 1.625 0.122 2.477 0.018 0.368-0.143 0.782-0.1 1.132 0.027 0.214 0.231 0.475 0.278 0.703-1.034-1.555-0.8-3.978-0.98-5.808-0.299 0.225-0.96 0.368-1.328 0.408-0.252 0.027-0.491-0.128-0.687 0.074 0.063 0.009 0.053 0.032 0.289-0.127z"></path>
<path d="M26.415 25.015c0.552 0.241 1.108 0.851 1.571 1.269 0.493 0.448 0.787 0.422 1.503 0.275 0.983-0.202 2.96-1.161 3.898-0.344-0.466-0.046-1.245-0.186-1.553 0.283-0.716-0.027-1.404 0.495-2.030 0.806-0.325 0.162-0.477 0.382-0.763 0.594-0.365 0.273-0.601 0.239-0.87 0.659-0.193 0.297-0.418 0.652-0.572 0.962-0.159 0.32-0.199 0.726-0.39 1.036-0.207 0.336-0.355 0.557-0.533 0.907-0.124 0.243-0.212 0.549-0.493 0.246 0.032 0.119 0.046 0.196 0.109 0.292-0.077-0.382-0.472-1.208-0.71-1.531-0.209-0.286-0.631-0.511-0.903-0.755-0.295-0.268-0.422-0.485-0.647-0.803-0.448-0.638-1.182-0.962-1.878-1.089-0.707-0.13-1.507-0.554-2.183-0.487 0.31-0.090 0.85-0.334 1.197-0.331 0.39 0.003 0.877 0.18 1.275 0.241 1.208 0.182 2.453 0.93 3.118 2.061 0.273 0.463 0.292 1.235 0.71 1.56-0.231-0.792-0.352-1.772-0.447-2.649-0.061-0.554-0.307-1.071-0.26-1.625 0.036-0.426 0.023-0.816 0.119-1.23 0.454 0.21 0.427 1.915 0.532 2.424 0.1 0.48 0.196 0.967 0.271 1.437 0.051 0.323 0.233 0.663 0.223 0.972 0.255-0.61 0.57-1.163 0.951-1.691 0.188-0.259 0.501-0.642 0.413-1.023-0.083-0.368-0.684-0.893-0.916-1.203-0.291-0.39-0.578-0.784-0.793-1.214 0.063-0.002 0.114 0.009 0.051-0.048z"></path>
<path d="M13.833 24.71c0.311-0.164 0.508 1.156 0.85 1.267-0.339-0.055-0.67 0.066-1.007-0.060-0.387-0.143-0.684-0.406-1.123-0.471-0.813-0.117-1.592-0.112-2.417-0.214-0.581-0.071-0.53-0.353-0.602-0.946-0.032-0.239 0-0.498-0.079-0.739-0.111-0.334-0.366-0.557-0.463-0.89-0.109-0.379-0.185-1.050-0.074-1.394-0.231 0.207-0.806 0.403-1.131 0.551-0.522 0.239-0.959 0.442-1.482 0.586-0.023 0.336-0.954 0.623-1.225 0.84-0.353 0.279-0.599 0.562-0.891 0.88-0.716-0.485 1.677-1.685 1.98-1.849 0.837-0.456 1.654-0.969 2.453-1.454-0.418-0.23-0.737-0.84-1.164-1.166-0.53-0.405-0.845-1.025-1.404-1.375-0.761-0.475-1.725-0.819-2.56-1.046-0.483-0.133-1.285-0.21-1.701-0.491 0.564-0.156 1.195-0.027 1.765 0.083 0.606 0.117 1.335 0.252 1.91 0.511 0.755 0.339 1.641 0.75 2.205 1.407 0.297 0.347 0.808 0.914 1.005 1.331 0.128-0.673 0.347-1.442 0.351-2.136 0.003-0.654-0.217-1.251-0.128-1.903 0.633-0.26-0.252-2.070-0.424-2.441-0.284-0.614-0.649-1.595-1.327-1.677 0.088 0.411-0.125 0.93-0.271 1.307-0.121 0.311-0.279 0.62-0.403 0.925-0.204 0.504-0.459 0.628-0.869 0.956-0.631 0.506-1.063 0.74-1.839 1.007-0.318 0.107-1.057 0.503-1.33 0.164 0.434-0.112 0.784-0.247 1.196-0.414 0.809-0.329 1.722-0.382 2.183-1.306 0.374-0.747 0.771-2.088 0.782-2.905 0.009-0.516-0.361-0.936-0.435-1.471-0.063-0.451-0.046-0.917-0.27-1.307-0.199-0.346-0.559-0.572-0.817-0.88-0.183-0.217-0.332-0.448-0.557-0.61 0.501-0.074 1.153 0.805 1.409 1.206 0.416 0.66 0.956 1.217 1.351 1.894 0.353 0.604 0.811 1.013 1.243 1.543 0.41 0.504 0.504 1.261 0.752 1.873 0.28 0.692 0.646 1.372 0.753 2.119 0.101 0.712 0.003 1.73-0.138 2.445-0.189 0.969-0.618 1.894-0.588 2.886 0.036 1.14 0.98 2.067 0.87 3.232-0.005-0.365 0.288-0.451 0.471-0.705 0.036 0.271-0.148 0.557 0.079 0.756 0.018 0.014 0.482-0.009 0.549 0.003 0.243 0.046 0.453 0.204 0.686 0.276 0.551 0.17 1.614 0.304 1.878-0.199z"></path>
<path d="M5.468 20.184c-0.191-0.214-0.561-0.302-0.854-0.474-0.366-0.217-0.695-0.626-1.030-0.904-0.422-0.35-0.885-0.874-1.348-1.089-0.018 0.612 0.663 1.195 0.8 1.82 0.138 0.639 0.032 1.171 0.027 1.788-0.014 0.84-0.087 1.625-0.122 2.477-0.018 0.368 0.143 0.782 0.1 1.132-0.027 0.214-0.231 0.475-0.278 0.703 1.034-1.555 0.8-3.978 0.98-5.808 0.299 0.225 0.96 0.368 1.328 0.408 0.252 0.027 0.491-0.128 0.687 0.074-0.063 0.009-0.053 0.032-0.289-0.127z"></path>
<path d="M9.522 25.015c-0.553 0.241-1.108 0.851-1.571 1.269-0.493 0.448-0.785 0.422-1.503 0.275-0.983-0.202-2.96-1.161-3.898-0.344 0.466-0.046 1.245-0.186 1.553 0.283 0.716-0.027 1.404 0.495 2.030 0.806 0.325 0.162 0.477 0.382 0.763 0.594 0.365 0.273 0.601 0.239 0.87 0.659 0.193 0.297 0.417 0.652 0.572 0.962 0.159 0.32 0.199 0.726 0.39 1.036 0.207 0.336 0.355 0.557 0.533 0.907 0.124 0.243 0.212 0.549 0.493 0.246-0.032 0.119-0.046 0.196-0.109 0.292 0.077-0.382 0.472-1.208 0.71-1.531 0.209-0.286 0.631-0.511 0.903-0.755 0.295-0.268 0.422-0.485 0.647-0.803 0.448-0.638 1.182-0.962 1.878-1.089 0.707-0.13 1.507-0.554 2.183-0.487-0.31-0.090-0.85-0.334-1.197-0.331-0.39 0.003-0.877 0.18-1.275 0.241-1.208 0.182-2.453 0.93-3.118 2.061-0.273 0.463-0.292 1.235-0.71 1.56 0.231-0.792 0.352-1.772 0.447-2.649 0.061-0.554 0.307-1.071 0.26-1.625-0.036-0.426-0.023-0.816-0.119-1.23-0.454 0.21-0.427 1.915-0.532 2.424-0.1 0.48-0.196 0.967-0.271 1.437-0.051 0.323-0.233 0.663-0.223 0.972-0.255-0.61-0.57-1.163-0.951-1.691-0.188-0.259-0.501-0.642-0.413-1.023 0.083-0.368 0.684-0.893 0.916-1.203 0.291-0.39 0.578-0.784 0.793-1.214-0.063-0.002-0.114 0.009-0.051-0.048z"></path>
</svg>
