<!-- Generated by IcoMoon.io -->
<svg version="1.1" xmlns="http://www.w3.org/2000/svg" width="32" height="32" viewBox="0 0 32 32">
<title>the_devourers_cult</title>
<path d="M15.8 2.25c-0.159-0.006-0.311 0.432-0.351 0.557-0.127 0.396-0.071 0.871-0.134 1.286-0.078 0.499-0.171 0.975-0.172 1.477-0.001 0.415-0.17 0.769-0.154 1.189 0.034 0.952-0.215 1.933-0.262 2.885-0.050 0.961-0.159 1.946-0.166 2.908-0.004 0.581 0.078 1.125 0.167 1.693 0.039 0.243 0.026 0.486 0.064 0.729 0.051 0.31 0.168 0.591 0.198 0.903 0.045 0.47 0.216 0.937 0.197 1.414-0.013 0.306-0.105 0.581-0.093 0.889 0.010 0.297 0.059 0.592 0.062 0.891 0.005 0.436 0.037 0.879 0.007 1.308-0.040 0.547 0.064 1.042 0.144 1.588 0.076 0.524-0.138 0.994-0.073 1.535 0.018 0.148 0.121 0.718-0.034 0.803-0.082-0.135-0.27-0.28-0.374-0.405-0.15-0.177-0.26-0.276-0.366-0.495-0.206-0.416-0.45-0.657-0.738-1.013-0.366-0.456-0.724-0.948-1.139-1.361-0.377-0.374-0.446-0.959-0.794-1.348-0.204 0.050-0.276 0.645-0.342 0.835-0.121 0.356 0.085 0.654 0.022 1.033-0.067 0.393-0.095 0.83-0.075 1.23 0.008 0.17 0.479 0.166 0.563 0.299 0.526-0.257-0.128-1.119 0.573-0.271 0.648 0.781 1.059 1.722 1.516 2.636 0.36 0.716 0.72 1.433 1.078 2.149 0.121 0.24 0.243 0.479 0.361 0.722 0.118 0.242 0.27 0.386 0.419 0.595 0.161 0.224 0.249 0.752 0.527 0.838 0.055-0.246 0.001-0.524 0.028-0.779 0.045-0.393 0.040-0.769 0.075-1.16 0.069-0.771 0.051-1.559 0.135-2.324 0.072-0.652 0.008-1.331 0.046-1.994 0.022-0.401 0.123-0.797 0.028-1.209-0.046-0.197-0.114-0.333-0.125-0.533-0.013-0.242 0.055-0.49 0.039-0.738-0.036-0.537-0.086-1.094-0.050-1.631 0.019-0.285 0.139-0.531 0.093-0.825-0.037-0.242-0.054-0.432-0.056-0.677-0.010-0.744-0.090-1.504-0.193-2.239-0.034-0.233-0.086-0.45-0.129-0.68-0.060-0.324-0.004-0.612-0.015-0.946-0.013-0.315-0.018-0.626-0.014-0.939 0.001-0.163-0.086-0.608 0.051-0.685 0.26 0.273 0.369 0.727 0.554 1.059 0.279 0.5 0.707 0.914 0.975 1.412 0.077 0.145 0.126 0.273 0.227 0.401 0.022 0.028 0.116 0.046 0.157 0.096 0.139 0.171 0.203 0.44 0.31 0.636 0.188 0.348 0.443 0.61 0.623 0.978 0.068 0.141 0.112 0.375 0.293 0.342 0.139-0.024 0.218-0.307 0.258-0.416 0.107-0.289 0.199-0.578 0.311-0.866 0.291-0.757 0.149-0.402 0.157-1.249-0.192 0.518-0.253-0.308-0.495 0.19-0.253-0.029-0.52-0.852-0.639-1.090-0.175-0.346-0.455-0.747-0.536-1.124-0.073-0.347-0.172-0.726-0.298-1.072-0.058-0.157-0.159-0.266-0.195-0.433-0.042-0.189-0.042-0.292-0.136-0.474-0.168-0.322-0.326-0.652-0.491-0.978-0.161-0.319-0.211-0.613-0.334-0.942-0.216-0.568-0.406-1.148-0.613-1.718-0.154-0.429-0.163-0.878-0.373-1.271-0.060-0.474 0.155-0.851 0.257-1.1 0.137-0.335 0.233-0.688 0.107-1.045-0.163-0.465-0.668-0.97-0.666-1.475z"></path>
<path d="M17.635 7.848c0.37-0.056 0.902 0.256 1.218 0.425 0.631 0.337 1.23 0.718 1.861 1.049 0.517 0.271 0.983 0.541 1.465 0.869 0.384 0.263 0.528 0.54 0.794 0.889 0.27 0.353 0.499 0.6 0.603 1.076 0.099 0.449 0.132 0.841 0.172 1.298 0.068 0.769 0.781 1.428 0.911 2.149 0.031 0.18-0.008 0.359 0.019 0.536 0.028 0.172 0.135 0.235 0.171 0.392 0.081 0.353 0.023 1.020-0.027 1.382-0.027 0.198-0.114 0.375-0.185 0.564-0.036 0.096 0.024 0.19-0.032 0.288-0.037 0.063-0.143 0.083-0.18 0.145-0.101 0.168-0.069 0.317-0.155 0.491-0.022 0.046-0.161 0.076-0.199 0.126-0.096 0.123-0.148 0.262-0.233 0.395-0.188 0.294 0 0.586-0.213 0.864-0.225 0.294-0.545 0.924-0.545 0.924l-0.572 0.679c0 0-2.389 2.378-3.061 2.729-0.438 0.229-0.83 0.528-1.283 0.708-0.168 0.066-0.306 0.095-0.499 0.146-0.136 0.039-0.518 0.13-0.644 0.204 0.236-0.144 0.514-0.053 0.771-0.112 0.217-0.049 0.433-0.099 0.657-0.148 0.317-0.072 0.477-0.126 0.82-0.112 0.301 0.012 0.401-0.083 0.649-0.153 0.882-0.251 1.81-0.247 2.556-0.851 0.423-0.341 0.77-0.713 1.010-1.18 0.179-0.35 0.428-0.549 0.711-0.834 0.658-0.668 1.112-1.478 1.757-2.15 0.706-0.733 0.978-2.085 1.171-3.088 0.082-0.432 0.035-1.011 0.027-1.45-0.008-0.368-0.269-0.487-0.333-0.814-0.048-0.24 0.022-0.563 0.026-0.808 0.021-1.137-0.316-2.102-0.97-3.050-0.497-0.721-1.002-1.621-1.671-2.205-0.429-0.375-0.961-0.45-1.469-0.672-0.173-0.078-0.325-0.24-0.514-0.298-0.343-0.105-0.735-0.139-1.087-0.253-0.397-0.127-0.628-0.253-1.038-0.265-0.274-0.007-0.546-0.011-0.819-0.015-0.269-0.005-0.559 0.023-0.822-0.012-0.293-0.039-0.476-0.166-0.784-0.207-0.008-0.045-0.015-0.090-0.033 0.35z"></path>
<path d="M13.782 7.785c0.030 0.012 0.060 0.023 0.090 0.033-0.231 0.266-0.697 0.488-0.982 0.579-0.18 0.057-0.411 0.143-0.6 0.181-0.091 0.018-0.185-0.024-0.276-0.011-0.167 0.026-0.22 0.118-0.359 0.148-0.258 0.058-0.474 0.066-0.724 0.14-0.221 0.066-0.339 0.098-0.541 0.198-0.129 0.063-0.271 0.069-0.411 0.153-0.158 0.095-0.324 0.216-0.486 0.294-0.342 0.166-0.673 0.396-0.905 0.758-0.189 0.297-0.312 0.69-0.464 1.013-0.186 0.398-0.406 0.838-0.54 1.244-0.152 0.464-0.423 0.885-0.542 1.366-0.1 0.406-0.234 0.814-0.297 1.244-0.037 0.249 0.055 0.527 0.019 0.776-0.042 0.288-0.144 0.472-0.137 0.776 0.004 0.222 0.055 0.572 0.012 0.784-0.036 0.177-0.121 0.258-0.143 0.455-0.055 0.499 0.012 1.053 0.014 1.556 0.005 0.981 0.332 1.57 0.966 2.243 0.215 0.226 0.416 0.469 0.63 0.689 0.33 0.339 0.621 0.614 0.943 0.93 0.308 0.302 0.627 0.568 0.931 0.887 0.287 0.302 0.73 0.77 1.091 0.932 0.384 0.173 0.762 0.27 1.167 0.368 0.048 0.012 0.089 0.107 0.161 0.127 0.125 0.033 0.29-0.030 0.418-0.015 0.195 0.023 0.488 0.13 0.639 0.279-0.296 0.149-0.887-0.362-1.18-0.434-0.104-0.027-0.229 0.018-0.335-0.002-0.091-0.018-0.107-0.119-0.211-0.149-0.293-0.078-0.532 0.049-0.824-0.099-0.198-0.099-0.434-0.275-0.627-0.333-0.235-0.073-0.512-0.082-0.745-0.162-0.361-0.119-0.684-0.284-0.983-0.578-0.315-0.31-0.708-0.501-1.068-0.77-0.32-0.239-0.578-0.613-0.781-0.968-0.226-0.393-0.479-0.742-0.574-1.172-0.103-0.469-0.254-1.008-0.431-1.448-0.068-0.168-0.209-0.497-0.247-0.661-0.035-0.152 0.004-0.293-0.026-0.439-0.022-0.105-0.1-0.112-0.116-0.18-0.109-0.478-0.329-0.942-0.416-1.395-0.090-0.463-0.062-1.038-0.044-1.518 0.012-0.357 0.204-0.582 0.273-0.92 0.082-0.416 0.135-0.865 0.226-1.289 0.112-0.527 0.253-1.040 0.432-1.514 0.181-0.481 0.368-1.026 0.634-1.451 0.202-0.324 0.599-0.609 0.875-0.857 0.378-0.338 0.821-0.545 1.191-0.9 0.442-0.423 1.058-0.682 1.605-0.907 0.409-0.167 0.928-0.436 1.382-0.432 0.544 0.006 1.089-0.007 1.633-0.012 0.273-0.001 0.545-0.001 0.816-0.005 0.12-0.002 0.299-0.042 0.416-0.011 0.168 0.045 0.191 0.23-0.549 0.477z"></path>
</svg>
