<!-- Generated by IcoMoon.io -->
<svg version="1.1" xmlns="http://www.w3.org/2000/svg" width="33" height="32" viewBox="0 0 33 32">
<title>the_crash</title>
<path d="M16.005 15.653c-0.465 0-0.843-0.376-0.843-0.838 0-0.465 0.378-0.84 0.843-0.84s0.843 0.376 0.843 0.84c0 0.462-0.378 0.838-0.843 0.838zM24.147 13.036c-2.408 0-4.542 0.669-5.863 1.002-0.077-0.045-0.16-0.085-0.242-0.12-0.153-0.066-0.314-0.113-0.462-0.183-0.143-0.249-0.345-0.458-0.584-0.613-0.11-0.232-0.183-0.493-0.268-0.746 0.364-1.314 1.054-3.455 1.054-5.879 0-1.636-0.561-3.143-0.742-4.356-0.007 0.019-0.014 0.035-0.019 0.054 0-0.054 0-0.106 0.002-0.157-0.002-0.014-0.005-0.026-0.007-0.037-0.106 0.329-0.164 0.676-0.169 1.023-0.049-0.272-0.15-0.533-0.298-0.765-0.077 0.559-0.101 1.122-0.070 1.685-0.002-0.291-0.084-0.58-0.235-0.829-0.019 0.261-0.035 0.521-0.054 0.782-0.031-0.124-0.063-0.249-0.094-0.371l0.014 4.067c-0.031-0.246-0.061-0.495-0.092-0.744-0.026 0.286-0.054 0.573-0.080 0.859-0.263-0.962-0.34-1.976-0.228-2.967-0.134 0.331-0.216 0.683-0.242 1.040-0.012-0.915-0.023-1.828-0.033-2.744-0.153 0.453-0.242 0.927-0.27 1.406 0.005 0.153 0.002 0.307-0.009 0.462-0.002-0.155 0-0.31 0.009-0.462-0.007-0.145-0.019-0.289-0.040-0.432-0.089 0.493-0.136 0.99-0.141 1.49 0.026 0.176 0.028 0.352 0.012 0.528-0.009-0.176-0.012-0.352-0.012-0.528-0.007-0.054-0.017-0.108-0.028-0.164 0.047 0.221-0.305 0.85-0.399 1.056-0.035-0.075-0.070-0.155-0.106-0.235-0.002 0.113-0.002 0.225-0.002 0.338 0 1.314 0.061 2.631 0.23 3.934 0.066 0.5 0.192 0.99 0.256 1.488 0.054 0.444-0.019 0.911-0.096 1.366-0.009 0.009-0.019 0.017-0.028 0.026-0.035 0.033-0.070 0.066-0.103 0.101-0.12 0.122-0.221 0.263-0.303 0.415-0.307 0.009-0.615 0.012-0.922 0.005-1.331-0.326-3.363-0.535-5.645-0.535-1.343 0-2.598 0.073-3.675 0.197 0.026 0.019 0.052 0.035 0.073 0.054-0.181 0.176-0.57 0.143-0.814 0.176 0.042 0.005 0.084 0.009 0.127 0.014-0.415 0.033-0.826 0.099-1.228 0.216 0.594 0.075 1.19 0.15 1.784 0.228-0.11 0-0.223 0-0.333 0.002 0.469 0.026 0.934 0.131 1.366 0.317-0.554-0.012-1.108 0.012-1.657 0.073 0.066 0.021 0.134 0.042 0.2 0.063-0.253 0-0.507 0.002-0.76 0.002 0.103 0.033 0.209 0.063 0.314 0.094 0.138 0.108 0.314 0.164 0.491 0.162 0.207 0.136 0.458 0.204 0.704 0.19-0.181 0-0.359 0.002-0.54 0.002 0.068 0.035 0.143 0.061 0.221 0.075 0.077 0 0.153 0 0.228 0.005-0.075 0.009-0.153 0.007-0.228-0.005-0.225 0-0.451 0.021-0.671 0.063 0.106 0.070 0.232 0.113 0.361 0.117-0.563 0.059-1.136-0.005-1.673-0.178-0.277 0.15-0.669-0.007-0.972 0.129 1.105 0.514 3.683 1.324 6.684 1.324 2.364 0 4.457-0.674 5.783-1.019 0.3 0.063 0.655-0.070 0.89 0.127 0.117 0.101 0.164 0.261 0.204 0.408 0.085 0.307 0.167 0.615 0.251 0.922-0.314 1.324-0.969 3.387-0.969 5.706 0 3.997 1.054 7.238 1.796 7.238s1.57-3.241 1.57-7.238c0-2.044-0.312-3.884-0.62-5.199 0.028-0.289 0.066-0.575 0.124-0.857 0.038-0.183 0.084-0.369 0.181-0.528 0.028-0.045 0.061-0.089 0.108-0.113 0.068-0.035 0.153-0.019 0.228-0.031 0.113-0.019 0.202-0.094 0.272-0.185 0.406-0.014 0.812-0.054 1.218-0.103 1.321 0.258 3.194 0.42 5.271 0.42 4.009 0 7.259-0.598 7.259-1.34 0-0.739-3.251-1.791-7.259-1.791z"></path>
</svg>
