<!-- Generated by IcoMoon.io -->
<svg version="1.1" xmlns="http://www.w3.org/2000/svg" width="32" height="32" viewBox="0 0 32 32">
<title>the_devourer_below</title>
<path d="M7.859 23.269c-0.014 0.003-0.037 0.010-0.055 0.013-0.26 0.082-0.529 0.223-0.779 0.346-0.165 0.082-0.332 0.155-0.497 0.251-0.218 0.122-0.242 0.342-0.314 0.551-0.037 0.119-0.1 0.219-0.193 0.306-0.091 0.091-0.214 0.146-0.295 0.246-0.064 0.077-0.092 0.196-0.092 0.292 0 0.137-0.013 0.287 0 0.419 0.019 0.105 0.047 0.21 0.064 0.315 0.019 0.096 0.005 0.196 0.019 0.296 0.027 0.122 0.118 0.282 0.168 0.405 0.041 0.105 0.088 0.196 0.165 0.279 0.182 0.201 0.314 0.433 0.492 0.638 0.127 0.137 0.264 0.254 0.401 0.378 0.104 0.1 0.2 0.223 0.309 0.337 0.1 0.096 0.191 0.196 0.315 0.264 0.155 0.096 0.333 0.16 0.496 0.246 0.347 0.174 0.688 0.301 1.049 0.442 0.314 0.124 0.615 0.246 0.939 0.337 0.282 0.083 0.555 0.174 0.816 0.32 0.168 0.1 0.347 0.191 0.533 0.268 0.237 0.086 0.483 0.169 0.715 0.279 0.21 0.099 0.42 0.146 0.648 0.187 0.333 0.068 0.66 0.137 0.985 0.218 0.345 0.091 0.665 0.091 1.024 0.091 0.361 0 0.734 0.020 1.104-0.003 0.328-0.023 0.665-0.082 0.993-0.141 0.292-0.046 0.561-0.154 0.848-0.223 0.301-0.069 0.602-0.086 0.902-0.169 0.315-0.096 0.638-0.209 0.975-0.25 0.282-0.026 0.543-0.1 0.817-0.188 0.369-0.113 0.751-0.182 1.117-0.305 0.305-0.11 0.601-0.241 0.893-0.375 0.237-0.108 0.474-0.196 0.702-0.337 0.287-0.187 0.555-0.41 0.806-0.642 0.401-0.361 0.811-0.721 1.145-1.145 0.319-0.397 0.592-0.839 0.646-1.349 0.023-0.201 0.041-0.406 0.046-0.602 0.014-0.182 0.105-0.364 0.050-0.551-0.031-0.1-0.105-0.205-0.168-0.288-0.055-0.091-0.141-0.154-0.21-0.237-0.064-0.072-0.096-0.163-0.165-0.232-0.068-0.072-0.163-0.122-0.254-0.173-0.141-0.091-0.229-0.21-0.351-0.315-0.114-0.082-0.251-0.132-0.369-0.21-0.096-0.054-0.179-0.137-0.274-0.191-0.082-0.046-0.155-0.063-0.227-0.113-0.21-0.141-0.438-0.11-0.698-0.11h-0.464c-0.091 0-0.224-0.013-0.306 0.010 0 0.072 0.077 0.077 0.141 0.105 0.114 0.054 0.196 0.113 0.301 0.173 0.077 0.046 0.168 0.082 0.241 0.141 0.069 0.050 0.11 0.114 0.173 0.164 0.055 0.041 0.124 0.063 0.188 0.096 0.113 0.068 0.209 0.155 0.323 0.214 0.165 0.1 0.268 0.174 0.397 0.301 0.122 0.128 0.305 0.196 0.424 0.324 0.155 0.182 0.155 0.474 0.155 0.683 0 0.256-0.086 0.461-0.174 0.698-0.077 0.219-0.154 0.466-0.292 0.665-0.104 0.15-0.204 0.174-0.383 0.256-0.232 0.096-0.419 0.224-0.66 0.301-0.27 0.073-0.547 0.122-0.811 0.187-0.27 0.060-0.533 0.073-0.803 0.124-0.31 0.063-0.624 0.132-0.935 0.201-1.763 0.378-3.613 0.897-5.459 0.747-0.242-0.017-0.488-0.050-0.729-0.086-0.256-0.041-0.506-0.023-0.767-0.026-0.237-0.003-0.483-0.041-0.715-0.086-0.205-0.046-0.419-0.036-0.62-0.096-0.124-0.033-0.227-0.1-0.347-0.141-0.397-0.137-0.83-0.050-1.236-0.141-0.278-0.064-0.551-0.15-0.83-0.21-0.177-0.041-0.337-0.104-0.501-0.177-0.174-0.077-0.356-0.114-0.533-0.173-0.187-0.064-0.329-0.164-0.525-0.205-0.204-0.046-0.369-0.16-0.551-0.27-0.182-0.096-0.328-0.214-0.474-0.359-0.096-0.105-0.242-0.246-0.31-0.37-0.146-0.278-0.119-0.624-0.045-0.921 0.045-0.177 0.041-0.424 0.122-0.588 0.037-0.055 0.083-0.082 0.128-0.122 0.127-0.105 0.196-0.278 0.287-0.419 0.118-0.192 0.273-0.192 0.474-0.279 0.187-0.082 0.337-0.191 0.511-0.301-0.033-0.1-0.15-0.072-0.242-0.072-0.15 0-0.26 0.036-0.397 0.082z"></path>
<path d="M8.984 24.317c0.004-0.037 0.013-0.069 0.022-0.105 0.091-0.337 0.196-0.679 0.265-1.026 0.058-0.278 0.063-0.565 0.058-0.853 0-0.104 0-0.196 0.050-0.292 0.1-0.187 0.033-0.342 0.028-0.555 0-0.296-0.028-0.533-0.141-0.811-0.078-0.205-0.201-0.342-0.329-0.52-0.2-0.259-0.405-0.501-0.624-0.747-0.159-0.179-0.323-0.356-0.505-0.516-0.279-0.232-0.579-0.359-0.912-0.501-0.424-0.183-0.802-0.429-1.189-0.679-0.315-0.205-0.607-0.466-0.856-0.757-0.233-0.264-0.442-0.543-0.588-0.866-0.078-0.177-0.11-0.361-0.178-0.538-0.045-0.132-0.113-0.251-0.151-0.383-0.259-0.807-0.209-1.695-0.046-2.52 0.119-0.616 0.356-1.322 0.82-1.764 0.083-0.073 0.142-0.173 0.229-0.251 0.082-0.064 0.16-0.122 0.237-0.191 0.168-0.146 0.369-0.256 0.488-0.447-0.036 0.096-0.132 0.174-0.187 0.265-0.169 0.314-0.256 0.665-0.428 0.975-0.059 0.1-0.128 0.182-0.165 0.287-0.064 0.141-0.077 0.282-0.082 0.428-0.009 0.21-0.037 0.419-0.078 0.624-0.086 0.415-0.050 0.87 0.041 1.286 0.042 0.209 0.141 0.397 0.224 0.588 0.11 0.214 0.177 0.442 0.314 0.646 0.306 0.447 0.707 0.925 1.181 1.208 0.196 0.124 0.414 0.233 0.624 0.342 0.124 0.069 0.256 0.119 0.378 0.188 0.1 0.054 0.188 0.137 0.292 0.187 0.155 0.077 0.334 0.182 0.497 0.246 0.232 0.086 0.492 0.096 0.702 0.246 0.082 0.058 0.146 0.127 0.223 0.177 0.119 0.069 0.256 0.114 0.37 0.187 0.118 0.073 0.214 0.164 0.319 0.256 0.191 0.182 0.397 0.31 0.547 0.533 0.091 0.132 0.177 0.268 0.264 0.401 0.078 0.122 0.174 0.223 0.256 0.337 0.119 0.182 0.173 0.383 0.242 0.583 0.086 0.237 0.205 0.447 0.219 0.711 0 0.078-0.014 0.164 0 0.246 0.013 0.114 0.072 0.223 0.096 0.337 0.072 0.397-0.037 0.789 0 1.185 0.027 0.351 0.022 0.701 0.022 1.057-0.009 0.31 0.069 0.583 0.114 0.884 0.036 0.241 0.096 0.483 0.123 0.72 0.033 0.21-0.005 0.419 0.005 0.629 0.014 0.114 0.046 0.256 0.082 0.369 0.014 0.069 0.097 0.205 0.028 0.256-0.023 0.020-0.073-0.003-0.105 0-0.046 0.013-0.059 0.041-0.1 0.064-0.11 0.050-0.232 0-0.351 0.026-0.063 0.013-0.104 0.055-0.159 0.073-0.055 0.013-0.119 0.003-0.179 0.003-0.105 0-0.187-0.003-0.287-0.033-0.237-0.054-0.46-0.177-0.693-0.246-0.227-0.068-0.46-0.082-0.692-0.132-0.124-0.033-0.183-0.113-0.296-0.16-0.059-0.026-0.1-0.036-0.15-0.072-0.050-0.041-0.127-0.091-0.165-0.146-0.050-0.055-0.041-0.132-0.041-0.21 0-0.068 0.005-0.118 0.023-0.187 0.018-0.072 0.018-0.15 0.046-0.218 0.108-0.274 0.177-0.547 0.251-0.83z"></path>
<path d="M20.068 25.566c-0.188-0.273-0.31-0.593-0.429-0.898-0.127-0.319-0.333-0.587-0.46-0.902-0.174-0.397-0.365-0.784-0.461-1.212-0.091-0.383-0.046-0.789-0.046-1.181 0-0.337 0.023-0.665 0.041-0.998 0.005-0.196 0.055-0.361 0.114-0.543 0.055-0.187 0.091-0.373 0.141-0.561 0.055-0.187 0.128-0.378 0.21-0.56 0.082-0.201 0.227-0.365 0.314-0.56 0.27-0.602 0.753-1.076 1.341-1.359 0.218-0.104 0.442-0.168 0.665-0.254 0.16-0.064 0.306-0.137 0.466-0.196 0.163-0.064 0.328-0.033 0.491-0.11 0.142-0.073 0.274-0.182 0.42-0.232 0.1-0.036 0.196-0.041 0.287-0.073 0.141-0.055 0.268-0.132 0.414-0.201 0.201-0.091 0.466-0.123 0.684-0.077 0.074 0.010 0.151 0.036 0.229 0.050 0.309 0.050 0.642 0.020 0.947 0.096 0.174 0.046 0.333 0.046 0.497 0.137 0.223 0.119 0.359 0.301 0.552 0.456 0.177 0.146 0.345 0.287 0.51 0.447 0.105 0.096 0.205 0.196 0.306 0.305 0.063 0.073 0.132 0.146 0.201 0.224 0.091 0.105 0.187 0.214 0.278 0.323 0.182 0.215 0.268 0.433 0.342 0.702 0.055 0.204 0.059 0.369 0.059 0.574-0.005 0.16 0.018 0.323-0.009 0.483-0.023 0.118-0.046 0.232-0.064 0.351-0.014 0.077 0.005 0.163-0.022 0.237-0.028 0.096-0.1 0.177-0.138 0.273-0.050 0.15-0.054 0.392-0.177 0.506-0.019-0.083-0.009-0.179-0.009-0.27 0-0.191 0.014-0.392-0.005-0.583-0.046-0.51-0.305-1.043-0.579-1.471-0.1-0.164-0.218-0.315-0.323-0.475-0.141-0.214-0.256-0.46-0.474-0.606-0.205-0.132-0.438-0.182-0.648-0.315-0.242-0.15-0.488-0.278-0.775-0.301-0.332-0.026-0.61 0.064-0.93 0.142-0.264 0.068-0.538 0.132-0.798 0.232-0.209 0.082-0.419 0.177-0.632 0.255-0.516 0.195-0.967 0.66-1.264 1.112-0.237 0.378-0.446 0.779-0.62 1.189-0.068 0.164-0.168 0.324-0.218 0.492-0.059 0.182-0.041 0.369-0.041 0.552-0.005 0.214 0.050 0.419 0.096 0.629 0.036 0.163 0.072 0.319 0.137 0.469 0.155 0.37 0.309 0.734 0.51 1.080 0.178 0.323 0.466 0.488 0.72 0.729 0.165 0.155 0.329 0.273 0.447 0.464 0.1 0.155 0.105 0.351 0.128 0.525 0.027 0.182 0.118 0.391 0.077 0.583-0.050 0.237-0.361 0.391-0.543 0.533-0.137 0.108-0.268 0.214-0.428 0.282-0.21 0.091-0.433 0.077-0.648 0.15-0.122 0.046-0.141 0.058-0.209-0.060-0.069-0.119-0.165-0.146-0.279-0.215-0.1-0.063-0.196-0.137-0.278-0.223-0.046-0.050-0.082-0.1-0.118-0.15z"></path>
<path d="M18.030 25.343c-0.027-0.055-0.046-0.119-0.068-0.174-0.114-0.251-0.301-0.464-0.474-0.67-0.229-0.265-0.429-0.519-0.607-0.82-0.364-0.583-0.798-1.176-1.030-1.833-0.246-0.706-0.378-1.481-0.442-2.224-0.027-0.383-0.063-0.765-0.063-1.148 0-0.406 0.036-0.798 0.041-1.198 0.022-0.712 0.223-1.327 0.524-1.965 0.127-0.278 0.251-0.529 0.424-0.775 0.083-0.11 0.155-0.205 0.191-0.328 0.105-0.292 0.356-0.52 0.511-0.775 0.474-0.743 0.957-1.472 1.358-2.256 0.387-0.756 0.743-1.509 0.811-2.365 0.023-0.324 0.033-0.625-0.1-0.925-0.146-0.301-0.246-0.602-0.359-0.917-0.215-0.587-0.42-1.194-0.83-1.691-0.215-0.259-0.433-0.524-0.662-0.775-0.2-0.218-0.428-0.419-0.67-0.593-0.314-0.218-0.674-0.345-1.038-0.45-0.296-0.088-0.583-0.138-0.853-0.292-0.201-0.114-0.373-0.124-0.61-0.124-0.37 0-0.721 0-1.085-0.026-0.21-0.020-0.415-0.013-0.624-0.013-0.128 0-0.282-0.023-0.406 0.013-0.205 0.060-0.246 0.246-0.401 0.359-0.058 0.042-0.127 0.060-0.191 0.088 0.1 0.026 0.187 0.026 0.292 0.046 0.179 0.033 0.342 0.1 0.525 0.132 0.227 0.033 0.455 0.082 0.674 0.122 0.1 0.020 0.196 0.050 0.292 0.064 0.182 0.026 0.342 0 0.515 0.055 0.132 0.036 0.182 0.096 0.296 0.16 0.086 0.050 0.177 0.086 0.265 0.122 0.264 0.114 0.519 0.274 0.751 0.433 0.21 0.137 0.442 0.187 0.652 0.32 0.113 0.058 0.227 0.122 0.328 0.209 0.082 0.060 0.136 0.141 0.21 0.21 0.072 0.069 0.173 0.1 0.25 0.164 0.078 0.063 0.142 0.137 0.21 0.204 0.132 0.128 0.296 0.26 0.378 0.425 0.124 0.237 0.205 0.514 0.246 0.784 0.019 0.118 0.041 0.214 0.041 0.333-0.008 0.173 0.047 0.323 0.047 0.497-0.009 0.146-0.019 0.3 0.004 0.446 0.023 0.119 0.033 0.219 0.033 0.342 0 0.164-0.046 0.265-0.1 0.411-0.050 0.127-0.019 0.264-0.086 0.392-0.074 0.15-0.096 0.314-0.191 0.455-0.050 0.088-0.119 0.155-0.165 0.238-0.059 0.118-0.059 0.241-0.082 0.364-0.014 0.119-0.059 0.251-0.105 0.365-0.074 0.199-0.201 0.369-0.306 0.555-0.196 0.323-0.361 0.657-0.569 0.961-0.279 0.411-0.607 0.779-0.898 1.176-0.242 0.332-0.492 0.67-0.729 1.012-0.359 0.516-0.715 1.030-0.998 1.591-0.31 0.596-0.324 1.271-0.497 1.909-0.165 0.607-0.091 1.262-0.091 1.888 0 0.651 0.055 1.294 0.114 1.941 0.046 0.51 0.058 1.048 0.173 1.549 0.141 0.593 0.414 1.157 0.72 1.686 0.105 0.187 0.274 0.333 0.342 0.543 0.055 0.168 0.105 0.351 0.155 0.529 0.077 0.241 0.082 0.511 0.21 0.739 0.063 0.105 0.15 0.201 0.264 0.246 0.114 0.046 0.191 0.105 0.292 0.173 0.069 0.046 0.114 0.060 0.191 0.083 0.059-0.003 0.11 0.013 0.155 0.054 0.041 0.037 0.086 0.069 0.136 0.078 0.114 0.023 0.279-0.003 0.392-0.003h0.602c0.246 0 0.488 0.010 0.734 0 0.127-0.003 0.259-0.064 0.392-0.091 0.104-0.026 0.237-0.069 0.347-0.114 0.063-0.033 0.127-0.068 0.191-0.118 0.077-0.042 0.159-0.073 0.241-0.105 0.108-0.050 0.204-0.119 0.309-0.179 0.133-0.082 0.241-0.036 0.383-0.063 0.046-0.124-0.008-0.292-0.091-0.387-0.105-0.128-0.214-0.251-0.305-0.397-0.073-0.119-0.138-0.256-0.233-0.365-0.072-0.082-0.163-0.15-0.227-0.259-0.005-0.010-0.009-0.026-0.023-0.046z"></path>
</svg>
