<!-- Generated by IcoMoon.io -->
<svg version="1.1" xmlns="http://www.w3.org/2000/svg" width="32" height="32" viewBox="0 0 32 32">
<title>the_witching_hour</title>
<path d="M16 27.818c-6.527 0-11.818-5.292-11.818-11.818 0-6.527 5.29-11.819 11.818-11.819 1.163 0 2.286 0.171 3.349 0.485-4.895 1.445-8.47 5.97-8.47 11.334 0 5.363 3.575 9.89 8.47 11.333-1.062 0.313-2.185 0.485-3.349 0.485zM21.541 4.239c-1.681-0.794-3.559-1.239-5.541-1.239-7.18 0-12.999 5.821-12.999 13.001s5.82 12.999 12.999 12.999c1.982 0 3.86-0.446 5.541-1.239 4.408-2.080 7.459-6.563 7.459-11.76s-3.051-9.681-7.459-11.761z"></path>
</svg>
