<!-- Generated by IcoMoon.io -->
<svg version="1.1" xmlns="http://www.w3.org/2000/svg" width="32" height="32" viewBox="0 0 32 32">
<title>the_pallid_mask</title>
<path d="M28.447 14.747c-0.007 0.007-0.016 0.015-0.022 0.022-0.025 0.044-0.049 0.090-0.076 0.134-0.081 0.119-0.194 0.186-0.343 0.18-0.088-0.001-0.176-0.003-0.264-0.007-0.105-0.007-0.158-0.062-0.173-0.166-0.004-0.037-0.005-0.074-0.004-0.109 0.018-0.274-0.018-0.542-0.071-0.809-0.039-0.201-0.063-0.404-0.080-0.609-0.024-0.271-0.043-0.541-0.068-0.811-0.012-0.142-0.037-0.283-0.091-0.416-0.041-0.1-0.067-0.202-0.059-0.311 0.003-0.063-0.016-0.122-0.045-0.179-0.122-0.234-0.231-0.474-0.334-0.718-0.033-0.080-0.080-0.155-0.138-0.222-0.035-0.042-0.071-0.085-0.106-0.126-0.058-0.067-0.109-0.139-0.148-0.218-0.085-0.167-0.186-0.323-0.306-0.467-0.168-0.204-0.326-0.416-0.49-0.622-0.068-0.085-0.144-0.167-0.219-0.247-0.063-0.067-0.119-0.138-0.162-0.221-0.062-0.125-0.139-0.24-0.221-0.353-0.328-0.461-0.713-0.864-1.17-1.201-0.11-0.080-0.23-0.143-0.354-0.193-0.102-0.042-0.206-0.081-0.309-0.115-0.156-0.053-0.294-0.133-0.414-0.246-0.122-0.117-0.26-0.216-0.407-0.297-0.323-0.182-0.626-0.394-0.92-0.62-0.041-0.030-0.081-0.062-0.122-0.093-0.084-0.067-0.177-0.115-0.278-0.152-0.566-0.201-1.13-0.404-1.696-0.605-0.121-0.042-0.24-0.087-0.356-0.144-0.159-0.079-0.33-0.118-0.503-0.15-0.116-0.022-0.231-0.042-0.345-0.066-0.064-0.015-0.129-0.030-0.189-0.055-0.088-0.037-0.179-0.047-0.269-0.043-0.114 0.004-0.228 0.011-0.341 0.015-0.099 0.004-0.197 0.007-0.297 0.007-0.278-0.007-0.557-0.022-0.832-0.060-0.196-0.026-0.393-0.055-0.586-0.090-0.197-0.037-0.394-0.050-0.591-0.054-0.231-0.004-0.462-0.001-0.693-0.001-0.259 0-0.509 0.041-0.75 0.143-0.060 0.026-0.123 0.047-0.184 0.073-0.196 0.085-0.402 0.138-0.612 0.172-0.163 0.026-0.326 0.053-0.488 0.079-0.068 0.011-0.139 0.015-0.206 0.026-0.064 0.015-0.129 0.030-0.19 0.054-0.1 0.037-0.198 0.075-0.295 0.117-0.181 0.077-0.362 0.157-0.544 0.239-0.119 0.054-0.238 0.112-0.357 0.168-0.056 0.026-0.114 0.046-0.179 0.050-0.081 0.004-0.159 0.026-0.232 0.064-0.080 0.039-0.162 0.083-0.24 0.129-0.337 0.194-0.676 0.386-1.028 0.549-0.147 0.068-0.277 0.162-0.395 0.274-0.101 0.096-0.205 0.189-0.306 0.285-0.042 0.041-0.081 0.084-0.118 0.129-0.080 0.097-0.164 0.189-0.256 0.272-0.117 0.102-0.217 0.218-0.306 0.345-0.051 0.071-0.11 0.137-0.167 0.204-0.037 0.046-0.076 0.089-0.114 0.135-0.075 0.089-0.15 0.179-0.222 0.271-0.049 0.064-0.097 0.13-0.137 0.199-0.062 0.109-0.117 0.219-0.179 0.329-0.063 0.113-0.095 0.235-0.114 0.363-0.039 0.246-0.064 0.494-0.164 0.727-0.039 0.091-0.060 0.188-0.056 0.289 0.004 0.089-0.017 0.175-0.053 0.256-0.030 0.075-0.062 0.15-0.101 0.219-0.126 0.221-0.211 0.458-0.289 0.698-0.050 0.159-0.108 0.313-0.16 0.467-0.022 0.073-0.042 0.149-0.058 0.223-0.039 0.191-0.074 0.381-0.112 0.572-0.001 0.007-0.003 0.015-0.004 0.022-0.070 0.257-0.138 0.516-0.21 0.773-0.021 0.074-0.047 0.147-0.085 0.214-0.055 0.097-0.088 0.201-0.11 0.309-0.009 0.046-0.017 0.093-0.030 0.139-0.032 0.117-0.046 0.236-0.046 0.358-0.001 0.064-0.016 0.13-0.024 0.196-0.008 0.050-0.018 0.101-0.018 0.152 0.001 0.053-0.007 0.101-0.022 0.151-0.008 0.026-0.012 0.057-0.020 0.084-0.012 0.047-0.021 0.095-0.039 0.137-0.050 0.108-0.089 0.218-0.11 0.333-0.007 0.046-0.028 0.083-0.054 0.118-0.024 0.030-0.049 0.053-0.087 0.062-0.060 0.015-0.117 0.046-0.18 0.048-0.023 0-0.053 0.015-0.068 0.030-0.051 0.055-0.117 0.063-0.181 0.045-0.121-0.030-0.244-0.050-0.366-0.070-0.079-0.011-0.15-0.037-0.207-0.093-0.013-0.015-0.032-0.019-0.046-0.030v-0.221c0.041-0.026 0.038-0.067 0.043-0.106 0.020-0.172 0.043-0.343 0.060-0.513 0.020-0.175 0.038-0.351 0.049-0.525 0.007-0.115 0.028-0.226 0.080-0.328 0.098-0.193 0.167-0.398 0.221-0.607 0.055-0.206 0.119-0.408 0.154-0.618 0.018-0.115 0.039-0.231 0.062-0.346 0.033-0.169 0.080-0.333 0.137-0.496 0.168-0.481 0.305-0.972 0.448-1.46 0.089-0.299 0.152-0.609 0.222-0.916 0.043-0.189 0.083-0.379 0.173-0.553 0.104-0.194 0.205-0.39 0.31-0.583 0.1-0.18 0.214-0.351 0.339-0.512 0.138-0.177 0.274-0.353 0.416-0.526 0.162-0.199 0.306-0.411 0.402-0.653 0.077-0.198 0.201-0.364 0.36-0.504 0.123-0.109 0.248-0.218 0.377-0.322 0.14-0.113 0.295-0.202 0.463-0.268 0.116-0.047 0.228-0.1 0.343-0.15 0.122-0.051 0.242-0.105 0.364-0.152 0.11-0.043 0.217-0.090 0.316-0.152 0.222-0.137 0.446-0.268 0.668-0.403 0.097-0.060 0.2-0.104 0.312-0.129 0.077-0.019 0.155-0.046 0.23-0.075 0.143-0.055 0.284-0.118 0.427-0.172 0.249-0.093 0.504-0.177 0.75-0.284 0.207-0.092 0.416-0.18 0.625-0.266 0.062-0.026 0.126-0.043 0.188-0.062 0.060-0.019 0.118-0.037 0.168-0.077 0.033-0.030 0.072-0.051 0.113-0.067 0.106-0.042 0.213-0.083 0.32-0.113 0.169-0.050 0.344-0.077 0.517-0.101 0.192-0.026 0.385-0.057 0.576-0.075 0.242-0.022 0.483-0.034 0.725-0.053 0.035-0.001 0.071-0.011 0.106-0.019h0.55c0.033 0.007 0.064 0.019 0.096 0.019 0.19 0.015 0.379 0.022 0.57 0.034 0.121 0.007 0.243 0.007 0.364 0.022 0.261 0.026 0.521 0.077 0.777 0.135 0.414 0.093 0.827 0.193 1.25 0.239 0.302 0.034 0.6 0.095 0.895 0.168 0.223 0.058 0.449 0.106 0.663 0.196 0.034 0.015 0.070 0.022 0.105 0.026 0.228 0.044 0.446 0.117 0.658 0.209 0.081 0.037 0.163 0.068 0.244 0.101 0.288 0.114 0.554 0.265 0.81 0.439 0.151 0.104 0.305 0.202 0.457 0.303 0.106 0.072 0.215 0.14 0.318 0.219 0.285 0.219 0.592 0.404 0.91 0.572 0.138 0.075 0.278 0.146 0.417 0.221 0.23 0.124 0.442 0.272 0.638 0.445 0.327 0.296 0.634 0.609 0.932 0.932 0.256 0.274 0.477 0.576 0.689 0.884 0.102 0.147 0.206 0.296 0.328 0.427 0.148 0.159 0.273 0.335 0.378 0.524 0.020 0.037 0.043 0.068 0.063 0.104 0.039 0.071 0.091 0.133 0.154 0.185 0.042 0.034 0.080 0.075 0.117 0.115 0.244 0.268 0.433 0.571 0.571 0.906 0.055 0.133 0.1 0.268 0.119 0.41 0.012 0.099 0.034 0.196 0.084 0.284 0.112 0.193 0.193 0.403 0.27 0.612 0.046 0.127 0.096 0.253 0.102 0.391 0.001 0.019 0.012 0.034 0.018 0.051v1.1c-0.026 0.030-0.018 0.070-0.021 0.104-0.004 0.088 0.001 0.177-0.007 0.264-0.028 0.253-0.009 0.504 0.008 0.758 0.003 0.026 0.013 0.055 0.020 0.084z"></path>
<path d="M17.757 28.999c-0.063-0.030-0.129-0.022-0.194-0.026-0.133-0.004-0.14-0.015-0.129-0.15 0.008-0.077 0.009-0.154 0.010-0.23 0.003-0.096-0.001-0.192 0.005-0.288 0.020-0.26 0.009-0.52-0.026-0.779-0.021-0.167-0.060-0.329-0.092-0.496-0.008-0.046-0.021-0.092-0.028-0.14-0.025-0.168-0.083-0.326-0.164-0.474-0.269-0.496-0.557-0.982-0.899-1.432-0.295-0.389-0.654-0.712-1.050-0.995-0.277-0.198-0.569-0.371-0.868-0.536-0.277-0.151-0.555-0.299-0.831-0.452-0.071-0.038-0.139-0.080-0.206-0.124-0.054-0.034-0.095-0.079-0.122-0.138-0.020-0.042-0.049-0.083-0.079-0.118-0.045-0.050-0.079-0.106-0.097-0.169-0.033-0.108-0.097-0.189-0.181-0.258-0.108-0.084-0.2-0.181-0.286-0.289-0.055-0.068-0.112-0.134-0.171-0.201-0.19-0.213-0.33-0.457-0.417-0.729-0.068-0.209-0.129-0.42-0.165-0.637-0.016-0.083-0.025-0.167-0.032-0.249-0.014-0.206-0.028-0.41-0.042-0.616-0.008-0.133 0.008-0.263 0.025-0.394 0.039-0.313 0.087-0.624 0.126-0.936 0.050-0.41 0.164-0.803 0.306-1.188 0.037-0.105 0.095-0.198 0.169-0.279 0.119-0.126 0.227-0.261 0.324-0.403 0.175-0.251 0.385-0.469 0.621-0.664 0.336-0.277 0.671-0.557 1.019-0.821 0.399-0.303 0.742-0.664 1.042-1.065 0.168-0.223 0.332-0.448 0.499-0.671 0.037-0.050 0.075-0.1 0.114-0.147 0.042-0.051 0.081-0.102 0.092-0.172 0.007-0.049 0.043-0.074 0.092-0.079 0.022-0.003 0.045-0.003 0.066-0.003 0.077 0 0.154 0.003 0.231 0 0.056 0 0.108 0.007 0.158 0.037 0.059 0.034 0.122 0.063 0.188 0.097 0 0.026-0.003 0.054 0.001 0.077 0.001 0.022 0.004 0.046 0.016 0.063 0.046 0.067 0.043 0.144 0.055 0.224-0.113 0.105-0.177 0.24-0.234 0.379-0.025 0.060-0.063 0.117-0.102 0.169-0.168 0.223-0.306 0.465-0.423 0.718-0.034 0.077-0.077 0.15-0.118 0.223-0.122 0.218-0.285 0.399-0.491 0.54-0.112 0.076-0.228 0.149-0.339 0.223-0.126 0.085-0.251 0.168-0.372 0.256-0.135 0.099-0.248 0.218-0.339 0.357-0.054 0.081-0.118 0.15-0.192 0.211-0.076 0.063-0.155 0.122-0.232 0.185-0.137 0.11-0.276 0.218-0.41 0.332-0.092 0.077-0.175 0.167-0.247 0.265-0.079 0.108-0.138 0.224-0.163 0.357-0.020 0.108-0.056 0.211-0.1 0.313-0.038 0.084-0.070 0.169-0.108 0.253-0.131 0.297-0.198 0.61-0.251 0.93-0.022 0.142-0.033 0.285-0.020 0.428 0.009 0.109 0.033 0.217 0.050 0.324 0.013 0.087 0.029 0.174 0.035 0.261 0.010 0.122 0.039 0.239 0.092 0.349 0.021 0.046 0.046 0.092 0.070 0.137 0.071 0.144 0.148 0.286 0.217 0.432 0.077 0.163 0.171 0.315 0.297 0.446 0.076 0.076 0.134 0.164 0.181 0.26 0.028 0.059 0.068 0.113 0.109 0.164 0.085 0.109 0.175 0.217 0.263 0.324 0.028 0.034 0.054 0.070 0.083 0.104 0.098 0.119 0.221 0.201 0.372 0.239 0.029 0.007 0.056 0.015 0.085 0.022 0.151 0.038 0.29 0.101 0.419 0.189 0.147 0.102 0.297 0.202 0.439 0.313 0.098 0.075 0.188 0.164 0.274 0.253 0.211 0.218 0.417 0.441 0.629 0.66 0.099 0.104 0.202 0.202 0.305 0.302 0.050 0.048 0.101 0.095 0.152 0.143 0.155 0.142 0.281 0.307 0.385 0.49 0.067 0.118 0.14 0.232 0.213 0.348 0.068 0.108 0.129 0.221 0.177 0.34 0.1 0.239 0.201 0.479 0.306 0.717 0.144 0.329 0.246 0.674 0.295 1.031 0.013 0.084 0.022 0.167 0.026 0.252 0.008 0.282 0.010 0.563-0.009 0.846-0.010 0.15-0.021 0.301-0.030 0.45-0.003 0.037-0.008 0.072-0.012 0.109-0.012 0.084-0.047 0.154-0.119 0.199z"></path>
<path d="M21.78 26.206c-0.005 0.157-0.012 0.314-0.017 0.473-0.004 0.115-0.038 0.223-0.091 0.324-0.017 0.030-0.032 0.059-0.049 0.087-0.055 0.092-0.095 0.191-0.126 0.293-0.022 0.074-0.047 0.144-0.071 0.218-0.018 0.057-0.054 0.081-0.114 0.080-0.133-0.003-0.265 0-0.395 0-0.028 0-0.053 0-0.079-0.004-0.053-0.011-0.083-0.043-0.087-0.1-0.003-0.042-0.003-0.088 0.007-0.13 0.034-0.202 0.053-0.407 0.067-0.612 0.005-0.080 0.005-0.162 0.001-0.242-0.018-0.26-0.035-0.519-0.059-0.779-0.021-0.238-0.070-0.47-0.165-0.691-0.117-0.269-0.228-0.54-0.343-0.809-0.079-0.189-0.189-0.354-0.331-0.502-0.096-0.101-0.189-0.205-0.273-0.315-0.156-0.209-0.344-0.381-0.558-0.526-0.168-0.115-0.341-0.229-0.513-0.339-0.080-0.051-0.165-0.093-0.249-0.137-0.417-0.214-0.836-0.425-1.254-0.639-0.109-0.054-0.209-0.124-0.301-0.199-0.189-0.152-0.37-0.313-0.541-0.483-0.146-0.147-0.272-0.307-0.376-0.487-0.051-0.092-0.105-0.184-0.16-0.276-0.11-0.182-0.201-0.373-0.289-0.567-0.11-0.239-0.226-0.477-0.344-0.712-0.059-0.118-0.096-0.238-0.085-0.369 0.016-0.193 0.028-0.387 0.047-0.58 0.007-0.068 0.023-0.138 0.047-0.202 0.102-0.284 0.211-0.563 0.36-0.825 0.087-0.155 0.186-0.298 0.305-0.429 0.045-0.049 0.089-0.097 0.133-0.147 0.126-0.139 0.24-0.288 0.337-0.448 0.184-0.301 0.403-0.575 0.633-0.843 0.502-0.584 0.999-1.171 1.498-1.757 0.066-0.077 0.13-0.159 0.194-0.238 0.056-0.068 0.126-0.083 0.205-0.045 0.009 0.004 0.020 0.007 0.029 0.019 0.072 0.066 0.164 0.093 0.253 0.126 0.017 0.007 0.035 0.011 0.051 0.019 0.095 0.042 0.122 0.143 0.062 0.229-0.017 0.022-0.041 0.042-0.059 0.064-0.034 0.038-0.035 0.066-0.008 0.11 0.007 0.011 0.016 0.022 0.025 0.034 0.047 0.055 0.043 0.114 0.016 0.176-0.009 0.019-0.021 0.038-0.034 0.055-0.056 0.081-0.109 0.166-0.169 0.244-0.051 0.067-0.106 0.131-0.165 0.191-0.119 0.119-0.242 0.234-0.365 0.351-0.158 0.149-0.299 0.311-0.424 0.488-0.376 0.523-0.696 1.077-0.965 1.659-0.116 0.249-0.175 0.513-0.202 0.784-0.032 0.307-0.017 0.614-0.008 0.923 0.012 0.343 0.119 0.66 0.231 0.979 0.038 0.11 0.105 0.209 0.181 0.298 0.056 0.063 0.113 0.126 0.175 0.182 0.217 0.198 0.449 0.378 0.714 0.507 0.156 0.076 0.299 0.171 0.431 0.284 0.126 0.108 0.261 0.201 0.402 0.289 0.15 0.093 0.298 0.186 0.444 0.284 0.206 0.134 0.398 0.288 0.572 0.461 0.183 0.18 0.37 0.356 0.569 0.517 0.144 0.118 0.263 0.257 0.356 0.417 0.14 0.24 0.281 0.481 0.421 0.721 0.106 0.186 0.171 0.387 0.219 0.596 0.042 0.189 0.076 0.379 0.116 0.57 0.045 0.222 0.093 0.445 0.134 0.667 0.018 0.093 0.028 0.189 0.030 0.284 0.005 0.143 0.001 0.286 0.001 0.429h0.004z"></path>
<path d="M10.545 15.76c-0.081 0.060-0.163 0.088-0.255 0.088-0.083-0.001-0.167 0.001-0.249 0.019-0.043 0.007-0.089 0.007-0.131 0.001-0.059-0.004-0.117-0.015-0.175-0.022-0.025-0.004-0.050-0.011-0.074-0.022-0.041-0.019-0.067-0.046-0.063-0.093 0.003-0.030 0-0.058 0.003-0.087 0.018-0.205 0.038-0.408 0.055-0.614 0.005-0.054 0.016-0.108 0.039-0.157 0.097-0.204 0.147-0.423 0.186-0.642 0.030-0.18 0.070-0.358 0.123-0.534 0.125-0.406 0.249-0.811 0.322-1.23 0.017-0.102 0.054-0.198 0.098-0.29 0.129-0.269 0.285-0.52 0.477-0.748 0.034-0.039 0.064-0.081 0.096-0.121 0.074-0.093 0.138-0.192 0.18-0.302 0.049-0.126 0.129-0.23 0.23-0.316 0.053-0.046 0.105-0.092 0.159-0.135 0.073-0.060 0.155-0.112 0.242-0.15 0.155-0.068 0.31-0.134 0.463-0.202 0.043-0.019 0.085-0.042 0.126-0.067 0.119-0.071 0.236-0.147 0.356-0.217 0.045-0.026 0.091-0.051 0.139-0.064 0.081-0.022 0.16-0.050 0.238-0.088 0.001-0.001 0.005-0.003 0.009-0.004 0.31-0.113 0.612-0.243 0.915-0.374 0.080-0.034 0.162-0.064 0.239-0.106 0.13-0.070 0.276-0.093 0.42-0.118 0.301-0.055 0.603-0.081 0.906-0.102 0.080-0.004 0.162 0 0.242 0.003 0.095 0.003 0.192 0.015 0.285 0.011 0.247-0.004 0.49 0.034 0.731 0.079 0.219 0.043 0.439 0.081 0.66 0.105 0.285 0.026 0.566 0.079 0.839 0.167 0.021 0.007 0.042 0.011 0.064 0.019 0.364 0.072 0.7 0.211 1.011 0.41 0.169 0.109 0.339 0.217 0.512 0.32 0.123 0.072 0.251 0.138 0.377 0.204 0.075 0.039 0.152 0.073 0.228 0.11 0.135 0.067 0.263 0.146 0.378 0.244 0.26 0.223 0.519 0.452 0.738 0.721 0.054 0.068 0.108 0.139 0.163 0.207 0.066 0.079 0.129 0.159 0.198 0.234 0.076 0.080 0.147 0.166 0.203 0.259 0.041 0.067 0.091 0.122 0.148 0.175 0.185 0.168 0.319 0.371 0.406 0.607 0.008 0.019 0.017 0.042 0.018 0.063 0.017 0.112 0.066 0.207 0.119 0.304 0.045 0.079 0.080 0.165 0.113 0.249 0.087 0.213 0.091 0.435 0.083 0.66-0.005 0.113-0.013 0.226-0.017 0.34-0.003 0.129-0.005 0.256 0.021 0.383 0.005 0.026 0.003 0.051 0.008 0.077 0.028 0.149-0.080 0.278-0.232 0.305-0.091 0.015-0.183 0.022-0.274 0.026-0.070 0.004-0.088-0.011-0.11-0.080-0.001-0.003 0-0.007-0.003-0.011-0.051-0.090-0.068-0.189-0.076-0.291-0.001-0.026-0.007-0.051-0.013-0.076-0.055-0.167-0.099-0.339-0.167-0.5-0.059-0.139-0.096-0.283-0.114-0.432-0.005-0.047-0.015-0.096-0.028-0.14-0.047-0.146-0.096-0.293-0.151-0.435-0.030-0.079-0.075-0.152-0.121-0.222-0.070-0.106-0.146-0.21-0.223-0.314-0.091-0.124-0.205-0.229-0.312-0.338-0.067-0.068-0.129-0.14-0.193-0.211-0.050-0.053-0.1-0.106-0.148-0.162-0.056-0.063-0.114-0.125-0.165-0.191-0.248-0.315-0.523-0.604-0.855-0.835-0.059-0.041-0.122-0.079-0.185-0.115-0.096-0.055-0.192-0.109-0.285-0.166-0.11-0.068-0.218-0.137-0.337-0.186-0.046-0.019-0.091-0.047-0.133-0.075-0.19-0.125-0.402-0.194-0.624-0.232-0.142-0.022-0.282-0.034-0.425-0.045-0.242-0.019-0.48-0.053-0.713-0.124-0.206-0.064-0.415-0.121-0.626-0.167-0.135-0.030-0.274-0.047-0.412-0.057-0.33-0.022-0.659-0.037-0.989-0.026-0.345 0.015-0.688 0.034-1.025 0.108-0.050 0.011-0.102 0.015-0.152 0.026-0.043 0.007-0.087 0.019-0.127 0.034-0.215 0.084-0.428 0.173-0.633 0.28-0.15 0.077-0.291 0.168-0.419 0.281-0.010 0.011-0.022 0.019-0.034 0.026-0.257 0.184-0.479 0.408-0.706 0.626-0.196 0.189-0.337 0.414-0.45 0.658-0.012 0.026-0.020 0.057-0.022 0.085-0.009 0.097-0.047 0.184-0.105 0.263-0.010 0.015-0.020 0.030-0.032 0.045-0.106 0.129-0.176 0.276-0.234 0.432-0.041 0.11-0.088 0.218-0.14 0.322-0.076 0.15-0.146 0.303-0.192 0.467-0.013 0.048-0.032 0.097-0.051 0.144-0.113 0.278-0.201 0.565-0.264 0.859-0.039 0.182-0.056 0.369-0.081 0.554-0.022 0.16-0.021 0.322-0.020 0.483v0.159z"></path>
<path d="M22.445 10.727c0.030-0.011 0.047 0.015 0.064 0.030 0.030 0.026 0.055 0.059 0.084 0.087 0.085 0.083 0.18 0.124 0.301 0.084 0.051-0.019 0.106-0.019 0.162-0.030 0.102-0.019 0.196-0.057 0.289-0.102 0.037-0.019 0.066-0.048 0.083-0.085 0.080-0.197 0.18-0.386 0.219-0.596 0.012-0.064 0.020-0.13 0.009-0.192-0.045-0.022-0.085-0.015-0.125-0.015-0.114 0-0.227 0.003-0.34 0.004-0.104 0-0.203-0.019-0.302-0.055-0.041-0.015-0.083-0.022-0.125-0.037-0.055-0.019-0.114-0.034-0.165-0.055-0.053-0.022-0.104-0.037-0.16-0.037-0.139 0.003-0.278 0.004-0.417 0.003-0.062 0-0.123-0.007-0.185-0.015-0.089-0.011-0.175-0.019-0.256 0.030-0.013 0.007-0.028 0.011-0.042 0.015-0.055 0.019-0.066 0.015-0.096-0.037-0.015-0.026-0.032-0.041-0.055-0.050-0.037-0.019-0.075-0.030-0.113-0.045-0.041-0.015-0.062-0.047-0.072-0.089-0.016-0.060-0.004-0.117 0.022-0.171 0.012-0.022 0.038-0.047 0.063-0.057 0.109-0.042 0.222-0.070 0.343-0.055 0.113 0.015 0.226 0.019 0.34 0.022 0.009 0 0.020-0.007 0.034-0.011 0.001-0.037 0.003-0.072 0.004-0.108 0.004-0.115 0.028-0.226 0.087-0.326 0.038-0.063 0.084-0.119 0.143-0.165 0.056-0.045 0.113-0.093 0.163-0.144 0.119-0.125 0.26-0.188 0.431-0.186 0.056 0 0.11-0.001 0.165 0.007 0.091 0.007 0.155 0.054 0.192 0.14 0.038 0.088 0.053 0.176 0.041 0.268-0.001 0.015-0.009 0.026-0.015 0.044-0.016 0.004-0.029 0.007-0.043 0.007-0.068 0.015-0.068 0.015-0.072 0.083-0.003 0.057-0.012 0.068-0.062 0.066-0.059-0.003-0.118-0.007-0.176-0.019-0.055-0.011-0.102-0.034-0.118-0.099-0.012-0.047-0.049-0.058-0.093-0.057-0.053 0.003-0.092 0.026-0.121 0.067-0.1 0.142-0.171 0.291-0.121 0.478 0.102 0.051 0.218 0.067 0.335 0.062 0.1-0.004 0.197-0.022 0.29-0.055 0.080-0.030 0.162-0.046 0.247-0.047 0.102-0.001 0.205-0.011 0.301-0.051 0.024-0.011 0.050-0.015 0.075-0.019 0.034-0.004 0.066 0 0.095 0.019 0.021 0.015 0.042 0.030 0.066 0.039 0.022 0.007 0.049 0.015 0.079 0.022 0.018 0.073 0.076 0.089 0.142 0.088 0.056 0 0.112 0.001 0.165-0.004 0.072-0.011 0.138-0.001 0.2 0.038 0.009 0.007 0.020 0.007 0.032 0.015 0.021 0.043 0.015 0.092 0.012 0.14-0.004 0.080 0 0.16 0.035 0.235 0.005 0.015 0.004 0.026 0.005 0.045-0.075 0.007-0.148 0.011-0.221 0.022-0.071 0.015-0.14 0.034-0.21 0.050-0.020 0.039-0.009 0.076-0.012 0.113-0.007 0.125-0.008 0.249-0.018 0.373-0.007 0.11-0.035 0.217-0.087 0.316-0.047 0.092-0.108 0.173-0.201 0.227-0.046 0.026-0.079 0.064-0.106 0.108-0.034 0.055-0.083 0.093-0.138 0.122-0.066 0.034-0.129 0.070-0.193 0.105-0.083 0.047-0.172 0.063-0.265 0.054-0.066-0.007-0.13-0.019-0.196-0.030-0.085-0.015-0.172-0.030-0.259-0.046-0.025-0.004-0.050-0.011-0.072-0.022-0.037-0.019-0.056-0.049-0.060-0.087-0.003-0.022-0.003-0.043-0.001-0.066 0.007-0.117 0.005-0.235-0.009-0.352 0-0.004 0.005-0.011 0.008-0.019z"></path>
<path d="M10.216 9.88c0.001-0.047-0.010-0.092-0.066-0.119-0.020-0.007-0.034-0.038-0.042-0.062-0.018-0.053-0.041-0.102-0.076-0.146-0.038-0.050-0.045-0.106-0.032-0.167 0.009-0.046 0.018-0.093 0.025-0.139 0.010-0.071-0.008-0.133-0.062-0.18-0.066-0.059-0.133-0.114-0.201-0.171-0.026-0.022-0.059-0.026-0.092-0.026-0.077 0.001-0.155 0.004-0.231 0.007-0.047 0.001-0.096-0.003-0.139-0.022-0.067-0.030-0.105-0.079-0.101-0.155 0.003-0.030 0.004-0.066 0.014-0.097 0.021-0.077 0.047-0.152 0.071-0.23 0.005-0.015 0.010-0.030 0.020-0.038 0.066-0.064 0.131-0.127 0.198-0.191 0.010-0.011 0.024-0.015 0.039-0.022 0.047 0.045 0.080 0.097 0.098 0.157 0.022 0.079 0.072 0.133 0.138 0.177 0.063 0.043 0.125 0.090 0.186 0.135 0.076 0.055 0.163 0.084 0.252 0.108 0.095 0.026 0.189 0.053 0.285 0.079 0.050 0.011 0.101 0.019 0.151 0.030 0.017 0.003 0.037 0.007 0.054 0.011 0.009 0.004 0.017 0.015 0.029 0.022 0 0.070-0.063 0.092-0.102 0.134 0.005 0.049 0.020 0.095 0.050 0.131 0.026 0.034 0.034 0.072 0.033 0.113 0 0.159 0.003 0.316-0.004 0.473-0.004 0.142-0.051 0.274-0.123 0.395-0.105 0.172-0.219 0.339-0.376 0.47-0.051 0.045-0.085 0.099-0.118 0.157-0.049 0.089-0.104 0.177-0.155 0.265-0.058 0.097-0.118 0.193-0.171 0.293-0.035 0.067-0.077 0.125-0.137 0.169-0.026 0.022-0.053 0.041-0.079 0.060-0.071 0.055-0.134 0.114-0.186 0.186-0.021 0.030-0.046 0.057-0.075 0.079-0.041 0.030-0.084 0.026-0.119-0.007-0.039-0.043-0.084-0.080-0.135-0.11-0.009-0.007-0.018-0.015-0.025-0.022-0.070-0.091-0.164-0.156-0.252-0.229-0.005-0.004-0.010-0.007-0.016-0.015-0.102-0.113-0.21-0.224-0.309-0.343-0.035-0.043-0.056-0.101-0.083-0.154-0.020-0.039-0.034-0.081-0.056-0.119-0.037-0.063-0.097-0.087-0.168-0.076-0.046 0.007-0.092 0.026-0.137 0.038-0.043 0.011-0.085 0.026-0.129 0.026-0.068 0.004-0.104-0.042-0.081-0.106 0.028-0.087 0.047-0.176 0.118-0.244 0.017-0.019 0.022-0.053 0.029-0.080 0.013-0.047 0.012-0.048 0.047-0.093 0.051 0.004 0.101 0.004 0.151 0.015 0.038 0.007 0.079 0.019 0.114 0.034 0.073 0.034 0.146 0.068 0.219 0.102s0.14 0.077 0.201 0.133c0.085 0.080 0.172 0.16 0.276 0.217 0.050 0.026 0.085 0.070 0.109 0.121 0.047 0.101 0.126 0.156 0.231 0.184 0.045 0.015 0.088 0.038 0.13 0.060 0.122 0.068 0.193 0.007 0.205-0.112 0.007-0.050-0.001-0.101-0.001-0.152 0-0.045 0-0.087 0-0.134 0.101-0.034 0.15-0.109 0.189-0.193 0.068-0.155 0.167-0.293 0.257-0.435 0.042-0.067 0.102-0.124 0.158-0.188z"></path>
<path d="M12.801 6.494c-0.030 0.037-0.055 0.066-0.083 0.096-0.037 0.042-0.083 0.068-0.137 0.087-0.171 0.057-0.339 0.118-0.508 0.179-0.026 0.011-0.054 0.022-0.079 0.038-0.056 0.034-0.112 0.068-0.179 0.079-0.081 0.015-0.122 0.119-0.067 0.192 0.022 0.030 0.047 0.055 0.074 0.081 0.043 0.041 0.076 0.087 0.102 0.142 0.021 0.041 0.046 0.083 0.077 0.118 0.068 0.077 0.126 0.16 0.172 0.253 0.014 0.030 0.033 0.058 0.047 0.087 0.055 0.102 0.134 0.182 0.238 0.238 0.013 0.007 0.026 0.015 0.038 0.022 0.079 0.039 0.122 0.106 0.131 0.191 0.013 0.113 0.018 0.227 0.021 0.339 0.003 0.071-0.029 0.11-0.097 0.13-0.067 0.019-0.135 0.030-0.204 0.044-0.025 0.007-0.050 0.011-0.075 0.015-0.075 0.015-0.139 0.041-0.185 0.104-0.050-0.019-0.084-0.053-0.113-0.090-0.072-0.096-0.146-0.193-0.211-0.293-0.058-0.087-0.091-0.184-0.102-0.289-0.004-0.046-0.013-0.093-0.025-0.139-0.030-0.113-0.088-0.21-0.181-0.282-0.163-0.126-0.269-0.297-0.378-0.467-0.045-0.070-0.060-0.147-0.055-0.231 0.008-0.115 0.038-0.223 0.088-0.326 0.039-0.079 0.097-0.138 0.179-0.173 0.032-0.015 0.066-0.030 0.1-0.046 0.077-0.034 0.148-0.077 0.217-0.129 0.046-0.034 0.095-0.068 0.144-0.097 0.026-0.015 0.025-0.041 0.042-0.060 0.017-0.003 0.035-0.004 0.053-0.004 0.062-0.001 0.113-0.022 0.159-0.066 0.077-0.068 0.16-0.127 0.257-0.164 0.035-0.015 0.062-0.042 0.072-0.079 0.022-0.068 0.066-0.122 0.123-0.166 0.056-0.044 0.096-0.099 0.11-0.171 0-0.007 0.001-0.015 0.004-0.022 0.026-0.079 0.049-0.088 0.13-0.063 0.032 0.007 0.064 0.011 0.096 0.019 0.039 0.011 0.079 0.022 0.116 0.037 0.043 0.019 0.075 0.050 0.084 0.095 0.026 0.134 0.118 0.224 0.205 0.32 0.007 0.007 0.013 0.015 0.024 0.022 0.072 0.060 0.060 0.093-0.012 0.144-0.067 0.046-0.143 0.072-0.221 0.093-0.047 0.015-0.093 0.022-0.138 0.038-0.064 0.022-0.075 0.041-0.066 0.105 0.001 0.015 0.007 0.030 0.012 0.051z"></path>
<path d="M6.237 13.37c0.023 0.037 0.034 0.053 0.054 0.079 0.026-0.114 0.060-0.218 0.074-0.326 0.005-0.034 0.012-0.066 0.020-0.097 0.017-0.068 0.059-0.115 0.123-0.146 0.183-0.088 0.353-0.193 0.523-0.303 0.053-0.034 0.106-0.066 0.162-0.093 0.077-0.041 0.162-0.067 0.252-0.072 0.104-0.004 0.202-0.026 0.298-0.067 0.060-0.026 0.125-0.038 0.193-0.030 0.066 0.007 0.131 0.004 0.197-0.007 0.046-0.011 0.085-0.001 0.123 0.030 0.068 0.055 0.15 0.090 0.228 0.129 0.062 0.030 0.123 0.063 0.184 0.097 0.096 0.057 0.137 0.142 0.122 0.251-0.007 0.047-0.016 0.095-0.029 0.139-0.016 0.054-0.020 0.1 0.029 0.139 0.039 0.034 0.039 0.075 0.021 0.119-0.017 0.045-0.030 0.089-0.029 0.139 0.001 0.038-0.034 0.066-0.067 0.049-0.116-0.054-0.238-0.034-0.357-0.030-0.043 0.001-0.088 0-0.131-0.003-0.014 0-0.029-0.007-0.038-0.007-0.030-0.037-0.020-0.074-0.024-0.109-0.009-0.075-0.028-0.143-0.079-0.201-0.039-0.046-0.087-0.076-0.142-0.099-0.312-0.126-0.714 0.022-0.884 0.29-0.047 0.074-0.101 0.143-0.156 0.211-0.095 0.114-0.151 0.242-0.154 0.391 0 0.066-0.005 0.131-0.010 0.197-0.003 0.042 0.012 0.068 0.049 0.089 0.152 0.097 0.32 0.138 0.5 0.14 0.030 0 0.059-0.001 0.089 0 0.146 0.007 0.215 0.137 0.144 0.266-0.043 0.079-0.102 0.142-0.184 0.185-0.085 0.046-0.084 0.047-0.129 0.127-0.043 0.019-0.091 0.015-0.138 0.007-0.087-0.015-0.173-0.026-0.261-0.039-0.032-0.007-0.064-0.015-0.096-0.026-0.087-0.026-0.173-0.055-0.261-0.084-0.017-0.004-0.034-0.011-0.051-0.019-0.062-0.022-0.105-0.068-0.114-0.135-0.007-0.054-0.026-0.096-0.072-0.13-0.055-0.041-0.064-0.105-0.064-0.167 0.001-0.121 0.010-0.243 0.017-0.364 0.001-0.026 0.009-0.058 0.020-0.084 0.033-0.084 0.041-0.169 0.029-0.259-0.005-0.037-0.003-0.073 0-0.11 0.001-0.019 0.009-0.034 0.020-0.064z"></path>
<path d="M19.882 6.656c0.064-0.019 0.096-0.070 0.116-0.133 0.013-0.042 0.024-0.085 0.043-0.124 0.033-0.070 0.080-0.088 0.154-0.068 0.080 0.022 0.148 0.062 0.194 0.134s0.104 0.134 0.163 0.193c0.032 0.030 0.059 0.064 0.085 0.1 0.033 0.042 0.067 0.077 0.127 0.074 0.007 0 0.015 0.003 0.021 0.004 0.034 0.011 0.054 0.038 0.049 0.076-0.003 0.026-0.009 0.050-0.020 0.074-0.021 0.050-0.049 0.099-0.074 0.147-0.033 0.066-0.071 0.129-0.1 0.196-0.032 0.070-0.077 0.112-0.156 0.118-0.039 0.003-0.079 0.015-0.119 0.019-0.059 0.004-0.105 0.034-0.135 0.083-0.030 0.054-0.060 0.109-0.084 0.167-0.012 0.030-0.013 0.063-0.015 0.096-0.003 0.047 0.020 0.085 0.062 0.108 0.020 0.011 0.039 0.019 0.059 0.030 0.033 0.019 0.053 0.051 0.055 0.089 0.009 0.115-0.001 0.227-0.045 0.336-0.022 0.057-0.056 0.101-0.118 0.121-0.054 0.015-0.087 0.051-0.108 0.102-0.053 0.129-0.131 0.244-0.214 0.357-0.041 0.057-0.080 0.114-0.119 0.171-0.010 0.015-0.021 0.030-0.034 0.043-0.025 0.026-0.062 0.030-0.089 0.004-0.032-0.030-0.059-0.064-0.088-0.099-0.029-0.030-0.054-0.070-0.085-0.1-0.053-0.047-0.116-0.075-0.188-0.084-0.099-0.011-0.158-0.062-0.165-0.185-0.013-0.194-0.009-0.387 0.066-0.572 0.054-0.134 0.116-0.262 0.2-0.378 0.023-0.034 0.046-0.068 0.070-0.098 0.163-0.198 0.28-0.421 0.365-0.66 0.039-0.11 0.083-0.219 0.129-0.341z"></path>
<path d="M15.949 6.435c0.025 0.004 0.046 0.011 0.068 0.015 0.226 0.019 0.453 0.037 0.68 0.004 0.075-0.011 0.151-0.026 0.224-0.047 0.045-0.011 0.085-0.039 0.129-0.060 0.016-0.007 0.030-0.015 0.038-0.019 0.075 0.026 0.14 0.048 0.205 0.068 0.091 0.026 0.144 0.085 0.148 0.181 0.004 0.063 0.007 0.125 0.007 0.186 0.001 0.022-0.003 0.045-0.009 0.066-0.015 0.041-0.042 0.068-0.089 0.071-0.035 0.001-0.072 0.003-0.109 0.001-0.106-0.004-0.21-0.001-0.31 0.051-0.028 0.015-0.064 0.015-0.097 0.015-0.088-0.007-0.144 0.034-0.183 0.11-0.059 0.113-0.11 0.126-0.223 0.076-0.067-0.030-0.138-0.049-0.209-0.066-0.114-0.026-0.226-0.064-0.34-0.097-0.026 0.011-0.030 0.038-0.034 0.062-0.008 0.058-0.017 0.117-0.020 0.175-0.003 0.077-0.021 0.152-0.042 0.226-0.070 0.226-0.137 0.454-0.205 0.683-0.001 0.003-0.004 0.004-0.010 0.011-0.058-0.034-0.118-0.070-0.176-0.106-0.056-0.037-0.113-0.066-0.176-0.089-0.097-0.034-0.112-0.059-0.106-0.163 0.003-0.043 0.009-0.088 0.014-0.131 0.007-0.080 0.021-0.16 0.018-0.24-0.005-0.217 0.024-0.429 0.076-0.641 0.045-0.177 0.081-0.357 0.113-0.537 0.014-0.085 0.014-0.176 0.014-0.263 0.003-0.139 0.001-0.139 0.072-0.266 0.030-0.054 0.053-0.112 0.083-0.165 0.018-0.037 0.041-0.071 0.068-0.099 0.035-0.037 0.075-0.071 0.097-0.117 0.007-0.007 0.014-0.019 0.022-0.022 0.033-0.030 0.084-0.026 0.104 0.015 0.014 0.030 0.025 0.062 0.032 0.093 0.017 0.099 0.013 0.197 0.009 0.296-0.005 0.11-0.009 0.219-0.008 0.329 0.001 0.142 0.037 0.276 0.123 0.4z"></path>
<path d="M23.892 13.267c0.012-0.304 0.108-0.559 0.295-0.779 0.050-0.058 0.106-0.113 0.164-0.163 0.054-0.048 0.096-0.11 0.164-0.142 0.009-0.004 0.016-0.019 0.020-0.026 0.045-0.072 0.106-0.131 0.169-0.188 0.018-0.015 0.039-0.034 0.051-0.054 0.053-0.083 0.138-0.133 0.2-0.205 0.018-0.019 0.049-0.034 0.076-0.039 0.072-0.019 0.126 0.011 0.14 0.084 0.029 0.142 0.035 0.28-0.068 0.406-0.1 0.122-0.214 0.221-0.357 0.284-0.058 0.026-0.097 0.059-0.114 0.121-0.008 0.026-0.026 0.053-0.041 0.079-0.047 0.077-0.059 0.163-0.051 0.252 0.001 0.011 0.004 0.022 0.004 0.034 0.028 0.152 0.041 0.304 0.030 0.46-0.003 0.019 0 0.037 0 0.054 0 0.073 0.026 0.137 0.072 0.192 0.045 0.054 0.088 0.106 0.127 0.166 0.080 0.129 0.186 0.119 0.288 0.041 0.032-0.026 0.060-0.053 0.091-0.080 0.095-0.083 0.203-0.092 0.319-0.055 0.051 0.019 0.099 0.048 0.144 0.076 0.039 0.026 0.049 0.048 0.026 0.095-0.038 0.083-0.079 0.164-0.125 0.243-0.029 0.051-0.059 0.1-0.067 0.16-0.013 0.077-0.058 0.133-0.119 0.177-0.085 0.062-0.179 0.101-0.284 0.112-0.074 0.007-0.143 0.026-0.207 0.066-0.066 0.041-0.13 0.039-0.198 0.011-0.077-0.034-0.156-0.064-0.235-0.096-0.076-0.030-0.14-0.079-0.192-0.142-0.051-0.062-0.1-0.126-0.148-0.191-0.034-0.045-0.060-0.095-0.060-0.151-0.009-0.217-0.064-0.425-0.097-0.639-0.008-0.058-0.012-0.115-0.017-0.159z"></path>
<path d="M7.844 8.976c-0.014-0.090-0.025-0.177-0.041-0.264-0.014-0.088 0.008-0.168 0.045-0.244 0.013-0.030 0.033-0.057 0.068-0.075 0.051 0.026 0.102 0.050 0.154 0.076 0.064 0.030 0.13 0.051 0.201 0.050 0.049-0.001 0.095 0.015 0.137 0.039 0.093 0.057 0.188 0.113 0.28 0.172 0.059 0.038 0.106 0.089 0.142 0.151 0.034 0.057 0.070 0.112 0.134 0.139 0.013 0.007 0.029 0.026 0.032 0.041 0.009 0.053 0.049 0.072 0.089 0.089 0.033 0.015 0.070 0.022 0.104 0.034 0.047 0.015 0.085 0.039 0.114 0.081 0.024 0.037 0.053 0.068 0.083 0.102 0.049 0.057 0.077 0.122 0.088 0.197 0.007 0.051-0.007 0.089-0.049 0.125-0.070 0.058-0.137 0.121-0.198 0.188-0.033 0.034-0.054 0.077-0.080 0.118-0.022 0.034-0.041 0.070-0.067 0.1-0.035 0.043-0.081 0.057-0.138 0.038-0.072-0.026-0.119-0.068-0.138-0.143-0.007-0.030-0.013-0.064-0.017-0.097-0.003-0.030-0.001-0.058-0.003-0.088-0.007-0.202-0.097-0.358-0.265-0.467-0.097-0.066-0.2-0.121-0.303-0.176-0.095-0.050-0.19-0.093-0.286-0.14-0.029-0.015-0.058-0.030-0.084-0.045z"></path>
<path d="M12.902 7.091c-0.004-0.007-0.005-0.015-0.009-0.019-0.046-0.066-0.046-0.066 0.018-0.113 0.022-0.015 0.038-0.042 0.051-0.067 0.020-0.039 0.045-0.063 0.092-0.066 0.053-0.004 0.095-0.026 0.113-0.085 0.022-0.066 0.080-0.095 0.144-0.104 0.080-0.007 0.162-0.007 0.242-0.011 0.043-0.001 0.076 0.019 0.093 0.062 0.008 0.019 0.016 0.034 0.021 0.050 0.017 0.050 0.038 0.095 0.074 0.134 0.046 0.051 0.043 0.106 0.010 0.162-0.017 0.030-0.037 0.055-0.054 0.083-0.071 0.106-0.083 0.217-0.021 0.331 0.064 0.117 0.034 0.227-0.026 0.332-0.028 0.049-0.072 0.075-0.126 0.076-0.037 0.001-0.073 0-0.109-0.004-0.039-0.004-0.070-0.022-0.095-0.051-0.046-0.057-0.096-0.11-0.137-0.171-0.030-0.045-0.049-0.099-0.070-0.149-0.020-0.046-0.047-0.084-0.097-0.098-0.039-0.011-0.074-0.030-0.096-0.067-0.025-0.042-0.034-0.089-0.032-0.138 0.001-0.030 0.007-0.057 0.012-0.085z"></path>
<path d="M25.337 13.316c-0.021 0.004-0.045 0.015-0.067 0.019-0.028 0.004-0.050-0.019-0.055-0.043-0.003-0.015-0.003-0.030-0.003-0.043 0.004-0.119-0.022-0.234-0.049-0.346-0.012-0.054-0.021-0.109-0.020-0.163 0.001-0.085 0.039-0.122 0.123-0.118 0.101 0.004 0.197-0.015 0.289-0.053 0.105-0.045 0.214-0.048 0.324-0.057 0.096-0.007 0.186-0.030 0.274-0.068 0.054-0.022 0.112-0.034 0.165-0.055 0.041-0.015 0.080-0.037 0.118-0.057 0.051-0.026 0.085-0.022 0.113 0.022 0.032 0.054 0.066 0.104 0.105 0.154 0.042 0.054 0.041 0.131 0.045 0.199 0.001 0.015-0.015 0.037-0.029 0.042-0.035 0.015-0.075 0.030-0.114 0.037-0.023 0.007-0.050 0.004-0.076 0.004-0.074-0.004-0.137 0.022-0.193 0.064-0.028 0.019-0.051 0.043-0.080 0.058-0.043 0.022-0.088 0.041-0.133 0.050-0.134 0.022-0.268 0.042-0.404 0.026-0.089-0.011-0.155 0.026-0.215 0.085-0.084 0.085-0.1 0.112-0.119 0.244z"></path>
<path d="M18.522 7.305c0.017-0.034 0.029-0.071 0.054-0.096 0.042-0.042 0.042-0.089 0.041-0.142-0.001-0.015-0.001-0.030-0.003-0.045-0.008-0.080 0.022-0.142 0.091-0.186 0.051-0.034 0.101-0.072 0.122-0.135 0.004-0.007 0.012-0.019 0.021-0.026 0.064-0.041 0.087-0.105 0.112-0.171 0.018-0.047 0.045-0.093 0.074-0.133 0.054-0.075 0.119-0.139 0.193-0.194 0.023-0.015 0.050-0.030 0.080-0.046 0.009 0.019 0.018 0.026 0.020 0.041 0.025 0.125 0.049 0.251 0.071 0.377 0.007 0.037 0.004 0.072 0.001 0.11-0.004 0.060-0.029 0.112-0.074 0.154-0.017 0.015-0.033 0.030-0.050 0.045-0.085 0.067-0.129 0.156-0.138 0.264-0.004 0.062-0.013 0.125-0.010 0.186 0.003 0.079-0.034 0.122-0.101 0.151-0.114 0.050-0.234 0.063-0.356 0.047-0.066-0.007-0.114-0.045-0.125-0.117-0.004-0.026-0.013-0.050-0.022-0.085z"></path>
<path d="M26.104 13.426c0.126-0.037 0.255-0.030 0.382 0.015 0.001 0.015 0.008 0.034 0.008 0.050 0.008 0.243 0.008 0.483-0.045 0.722-0.016 0.071-0.016 0.144-0.022 0.218-0.001 0.015-0.004 0.026-0.007 0.045-0.043 0.015-0.081-0.007-0.117-0.019-0.067-0.019-0.129-0.015-0.192 0.019-0.025 0.015-0.053 0.022-0.081 0.030-0.010 0.003-0.021-0.003-0.035-0.004-0.025-0.048-0.012-0.1-0.007-0.149 0.008-0.080 0.020-0.16 0.029-0.24 0.008-0.076 0.018-0.152 0.022-0.229 0.007-0.084 0.010-0.168 0.009-0.252-0.001-0.071 0.004-0.139 0.055-0.205z"></path>
<path d="M16.696 5.792c0.008-0.043 0.012-0.071 0.021-0.099 0.008-0.026 0.022-0.054 0.034-0.080 0.053-0.11 0.054-0.115 0.020-0.23 0.016-0.037 0.041-0.066 0.084-0.051 0.105 0.037 0.21 0.015 0.315 0.015 0.055 0 0.109-0.001 0.164 0.004 0.089 0.011 0.129 0.053 0.143 0.14 0.004 0.034 0.008 0.066 0.003 0.099-0.010 0.087-0.028 0.173-0.043 0.259-0.005 0.026-0.013 0.050-0.025 0.072-0.017 0.034-0.049 0.043-0.083 0.034-0.008-0.001-0.016-0.003-0.021-0.007-0.109-0.074-0.24-0.083-0.357-0.134-0.042-0.019-0.093-0.019-0.14-0.022-0.032-0.004-0.064-0.001-0.114-0.001z"></path>
<path d="M8.21 14.215c-0.005-0.030-0.009-0.055-0.014-0.084 0.055 0.015 0.104 0.026 0.152 0.038 0.014 0.003 0.032 0.007 0.039 0.019 0.033 0.039 0.073 0.054 0.123 0.059 0.062 0.004 0.098 0.046 0.117 0.102 0.053 0.152-0.076 0.358-0.211 0.363-0.087 0.003-0.175 0.019-0.261 0.007-0.152-0.011-0.211-0.105-0.163-0.251 0.032-0.099 0.096-0.171 0.18-0.229 0.012-0.007 0.024-0.015 0.038-0.026z"></path>
</svg>
