<!-- Generated by IcoMoon.io -->
<svg version="1.1" xmlns="http://www.w3.org/2000/svg" width="35" height="32" viewBox="0 0 35 32">
<title>the_unspeakable_oath</title>
<path d="M8.728 8.95c0.179-0.071 0.351-0.152 0.515-0.252 0.281-0.17 0.588-0.26 0.868-0.427 0.245-0.143 0.521-0.223 0.778-0.344 0.123-0.058 0.217-0.152 0.335-0.213 0.18-0.092 0.372-0.093 0.538-0.229 0.093-0.075 0.16-0.16 0.266-0.22 0.099-0.056 0.195-0.112 0.291-0.17 0.090-0.051 0.156-0.106 0.235-0.17 0.080-0.062 0.128-0.064 0.21-0.103 0.1-0.053 0.155-0.134 0.266-0.174 0.106-0.042 0.173-0.098 0.257-0.179 0.112-0.108 0.164-0.248 0.238-0.383 0.241-0.44 0.566-0.929 0.933-1.274 0.21-0.193 0.529-0.343 0.672-0.597 0.056-0.099 0.075-0.216 0.136-0.312 0.182 0.025 0.255 0.148 0.422 0.221 0.263 0.118 0.462 0.275 0.647 0.502 0.238 0.293 0.453 0.583 0.688 0.877 0.066 0.084 0.154 0.137 0.22 0.22 0.084 0.103 0.143 0.217 0.232 0.319 0.115 0.133 0.248 0.22 0.36 0.35 0.143 0.171 0.301 0.322 0.449 0.483 0.068 0.074 0.105 0.161 0.167 0.233 0.049 0.056 0.193 0.182 0.133 0.282-0.028 0.047-0.239 0.074-0.295 0.086-0.115 0.021-0.213-0.001-0.331 0.029-0.176 0.046-0.332 0.115-0.495 0.193-0.244 0.117-0.483 0.171-0.709 0.332-0.514 0.369-1.161 0.521-1.692 0.865-0.248 0.164-0.566 0.288-0.787 0.483-0.244 0.214-0.505 0.381-0.771 0.569-0.294 0.208-0.589 0.414-0.885 0.617-0.387 0.269-0.778 0.515-1.105 0.857-0.284 0.298-0.517 0.642-0.744 0.985-0.071 0.106-0.157 0.193-0.219 0.309-0.049 0.087-0.090 0.202-0.156 0.275-0.097 0.105-0.183 0.065-0.287 0.004-0.136-0.078-0.279-0.177-0.39-0.291-0.143-0.149-0.253-0.334-0.393-0.486-0.204-0.227-0.422-0.444-0.613-0.679-0.301-0.368-0.523-0.793-0.84-1.149-0.124-0.142-0.244-0.288-0.365-0.433-0.049-0.058-0.093-0.12-0.136-0.183-0.036-0.053-0.151-0.171-0.155-0.235-0.009-0.117 0.374-0.247 0.505-0.289 0.174-0.056 0.356-0.092 0.532-0.14 0.16-0.047 0.319-0.101 0.474-0.161z"></path>
<path d="M12.47 9.915c-0.041 0.017-0.084 0.038-0.127 0.058-0.124 0.056-0.281 0.086-0.413 0.129-0.097 0.029-0.186 0.124-0.285 0.131 0.016 0.148 0.298 0.149 0.406 0.177 0.199 0.049 0.413 0.051 0.604 0.129 0.164 0.064 0.323 0.17 0.47 0.267 0.242 0.16 0.464 0.359 0.687 0.543 0.671 0.546 1.269 1.183 1.84 1.831 0.944 1.068 1.722 2.252 2.592 3.377 0.313 0.405 0.62 0.811 0.929 1.215 0.284 0.366 0.498 0.795 0.812 1.134 0.177 0.19 0.381 0.334 0.579 0.501 0.059 0.050 0.128 0.148 0.21 0.142 0.080-0.165 0.328-0.309 0.47-0.422 0.114-0.090 0.254-0.152 0.357-0.254 0.066-0.064 0.124-0.14 0.127-0.229 0.003-0.16-0.099-0.417-0.137-0.564-0.349-1.387-1.868-2.109-2.756-3.107-0.317-0.357-0.549-0.774-0.86-1.136-0.393-0.455-0.737-0.926-1.062-1.434-0.353-0.545-0.721-1.082-1.146-1.573-0.217-0.251-0.453-0.481-0.669-0.732-0.106-0.124-0.183-0.236-0.205-0.399-0.034-0.223 0.009-0.447 0.005-0.669-0.003-0.232-0.059-0.478 0.015-0.704 0.158 0.029-0.044 0.131-0.086 0.155-0.139 0.080-0.219 0.224-0.354 0.301-0.099 0.056-0.19 0.067-0.287 0.145-0.074 0.059-0.131 0.145-0.213 0.192-0.087 0.050-0.18 0.069-0.266 0.124-0.111 0.072-0.213 0.162-0.318 0.239-0.143 0.103-0.298 0.188-0.467 0.249-0.156 0.061-0.303 0.118-0.452 0.183z"></path>
<path d="M24.076 18.914c-0.118-0.101-0.214-0.224-0.335-0.326-0.117-0.096-0.25-0.16-0.365-0.263s-0.213-0.216-0.344-0.3c-0.167-0.106-0.289-0.226-0.415-0.378-0.115-0.137-0.244-0.279-0.384-0.393-0.103-0.086-0.224-0.139-0.329-0.224-0.161-0.127-0.313-0.272-0.47-0.403-0.123-0.105-0.158-0.102-0.297-0.072-0.127 0.025-0.21 0.092-0.331 0.121-0.165 0.043-0.304 0.117-0.471 0.149-0.063 0.013-0.126 0.025-0.188 0.042-0.065 0.013-0.111-0.008-0.165-0.008-0.126-0.003-0.148 0.079-0.205 0.18 0.010 0.001 0.022 0.003 0.033 0.004l-0.167 0.79c0.012 0.072-0.049 0.142-0.072 0.207-0.066 0.179-0.12 0.334-0.235 0.474-0.071 0.087-0.186 0.254-0.165 0.387 0.010 0.072 0.063 0.143 0.103 0.205 0.14 0.22 0.267 0.449 0.418 0.662 0.648 0.904 1.409 1.716 2.076 2.601 0.303 0.402 0.573 0.836 0.896 1.22 0.298 0.355 0.638 0.601 0.976 0.907 0.294 0.266 0.555 0.564 0.857 0.823 0.261 0.227 0.508 0.474 0.753 0.719 0.136 0.134 0.244 0.267 0.394 0.39 0.1 0.079 0.205 0.157 0.309 0.236 0.198 0.152 0.419 0.286 0.61 0.446 0.099 0.084 0.177 0.189 0.275 0.276 0.099 0.084 0.199 0.162 0.292 0.252 0.205 0.195 0.437 0.36 0.647 0.554 0.151 0.137 0.297 0.273 0.446 0.411 0.090 0.080 0.167 0.083 0.263 0.146 0.071 0.046 0.143 0.096 0.214 0.126 0.117 0.049 0.185 0 0.295 0.004s0.222 0.017 0.331 0.025c0.195 0.017 0.428-0.064 0.605-0.106 0.258-0.061 0.347-0.401 0.323-0.663-0.019-0.257 0.012-0.521-0.031-0.775-0.041-0.239-0.174-0.501-0.258-0.738-0.106-0.3-0.19-0.611-0.365-0.888-0.095-0.146-0.165-0.296-0.276-0.431-0.161-0.199-0.334-0.405-0.505-0.595-0.117-0.131-0.255-0.236-0.368-0.375-0.216-0.273-0.436-0.546-0.657-0.818-0.115-0.142-0.248-0.257-0.371-0.39-0.211-0.224-0.4-0.476-0.603-0.71-0.329-0.375-0.573-0.79-0.852-1.198-0.269-0.393-0.603-0.746-0.88-1.136-0.109-0.152-0.224-0.294-0.354-0.428-0.168-0.176-0.297-0.342-0.442-0.538-0.068-0.092-0.134-0.126-0.217-0.195z"></path>
<path d="M4.393 19.601c0.016 0.512 0.087 1.029 0.201 1.53 0.192 0.851 0.369 1.67 0.694 2.484 0.257 0.639 0.707 1.193 1.108 1.75 0.208 0.288 0.474 0.483 0.734 0.721 0.179 0.167 0.378 0.332 0.583 0.465 0.227 0.146 0.515 0.236 0.774 0.319 0.214 0.070 0.326 0.001 0.499-0.123 0.086-0.061 0.090-0.133 0.155-0.211 0.046-0.051 0.117-0.075 0.162-0.131 0.062-0.071 0.074-0.173 0.136-0.245 0.161-0.192 0.416-0.304 0.591-0.489-0.19 0.017-0.222-0.047-0.369-0.154-0.074-0.055-0.099-0.101-0.162-0.16-0.066-0.062-0.154-0.092-0.224-0.154-0.219-0.196-0.445-0.355-0.628-0.585-0.111-0.137-0.183-0.276-0.266-0.428-0.1-0.188-0.244-0.341-0.344-0.527-0.202-0.377-0.546-0.687-0.8-1.028-0.124-0.162-0.261-0.318-0.369-0.492-0.109-0.179-0.18-0.372-0.301-0.545-0.103-0.148-0.14-0.254-0.183-0.427-0.041-0.161-0.13-0.261-0.204-0.402-0.12-0.226-0.146-0.486-0.222-0.728-0.080-0.263-0.089-0.53-0.143-0.793-0.019-0.083-0.013-0.157-0.016-0.241-0.008-0.115-0.055-0.198-0.066-0.31-0.016-0.157 0.025-0.164-0.099-0.233-0.069-0.034-0.092-0.038-0.176-0.034-0.195 0.008-0.353 0.017-0.536-0.053-0.092-0.038-0.354-0.189-0.443-0.133-0.028 0.021-0.058 0.236-0.059 0.263-0.009 0.126 0.009 0.26 0.013 0.386 0.003 0.193 0.063 0.356 0.066 0.545 0.001 0.145 0.008 0.29-0.105 0.164z"></path>
<path d="M6.17 21.838c-0.006-0.013-0.013-0.021-0.021-0.029-0.13-0.201-0.245-0.4-0.384-0.597-0.077-0.108-0.196-0.193-0.258-0.309 0.128 0.112 0.445 0.093 0.603 0.115 0.247 0.034 0.529 0.013 0.777-0.004 0.198-0.017 0.388-0.065 0.583-0.102 0.162-0.029 0.338-0.013 0.49-0.071 0.552-0.217 1.068-0.515 1.601-0.778 0.443-0.217 0.893-0.428 1.316-0.682 0.61-0.369 1.338-0.665 1.865-1.147 0.168-0.155 0.424-0.263 0.639-0.124 0.090 0.058 0.154 0.152 0.211 0.239 0.038 0.054 0.077 0.114 0.112 0.171 0.053 0.090 0.090 0.188 0.143 0.278 0.069 0.114 0.196 0.211 0.235 0.342 0.021 0.067-0.008 0.155 0.003 0.224 0.015 0.099 0.074 0.12 0.010 0.202-0.071 0.092-0.276 0.167-0.372 0.213-0.189 0.090-0.383 0.173-0.566 0.273-0.474 0.251-1.010 0.353-1.489 0.605-0.266 0.14-0.508 0.311-0.759 0.477-0.244 0.16-0.504 0.283-0.743 0.449-0.344 0.239-0.681 0.487-1.041 0.697-0.27 0.158-0.473 0.306-0.685 0.539-0.096 0.106-0.136 0.233-0.213 0.344-0.096 0.134-0.208 0.304-0.244 0.474-0.043 0.199 0.114 0.369 0.052 0.557-0.036-0.008-0.112-0.164-0.154-0.208-0.111-0.127-0.251-0.252-0.378-0.36-0.278-0.242-0.521-0.501-0.713-0.817-0.204-0.334-0.412-0.644-0.622-0.969z"></path>
<path d="M29.988 8.944c-0.146 0.099-0.323 0.134-0.458 0.23-0.105 0.074-0.145 0.183-0.235 0.267-0.235 0.217-0.607 0.387-0.89 0.546-0.477 0.263-0.964 0.51-1.444 0.762-0.601 0.316-1.23 0.592-1.818 0.927-0.508 0.291-0.992 0.563-1.52 0.817l-4.043 2.177c-0.462 0.242-0.926 0.474-1.394 0.697-0.453 0.195-0.901 0.409-1.338 0.641-0.639 0.363-1.258 0.769-1.893 1.142-1.14 0.663-2.28 1.331-3.399 2.025-0.343 0.211-0.675 0.456-1.031 0.641-0.086 0.043-0.176 0.081-0.226 0.146 0.078-0.208-0.062-0.087-0.158-0.021-0.165 0.114-0.326 0.235-0.496 0.344-0.16 0.102-0.419 0.219-0.532 0.365 0.121 0.137 0.149 0.319 0.266 0.459 0.075 0.092 0.245 0.252 0.402 0.272 0.142 0.017 0.126-0.029 0.251-0.12 0.084-0.061 0.222-0.105 0.319-0.134 0.484-0.157 1.022-0.377 1.474-0.632 0.422-0.241 0.817-0.505 1.242-0.737 0.4-0.22 0.765-0.504 1.142-0.753 0.419-0.276 0.851-0.539 1.279-0.802 0.796-0.484 1.598-0.973 2.41-1.434 0.459-0.261 0.916-0.539 1.381-0.79 0.47-0.252 0.944-0.489 1.39-0.78 0.862-0.564 1.704-1.121 2.592-1.652 0.738-0.445 1.446-0.91 2.171-1.369 0.771-0.489 1.626-0.874 2.391-1.372 0.388-0.252 0.774-0.506 1.156-0.766 0.154-0.102 0.461-0.26 0.572-0.391 0.093-0.112 0.053-0.139 0.219-0.236 0.115-0.069 0.19-0.139 0.282-0.233 0.12-0.123 0.446-0.341 0.397-0.474-0.158 0.008-0.328 0.154-0.458 0.241z"></path>
</svg>
