<!-- Generated by IcoMoon.io -->
<svg version="1.1" xmlns="http://www.w3.org/2000/svg" width="33" height="32" viewBox="0 0 33 32">
<title>the_last_king</title>
<path d="M15.16 15.386c-0.122 0.207-0.088 0.396-0.079 0.638 0.013 0.171 0.022 0.355 0.039 0.535 0.013 0.158 0 0.339 0.035 0.493 0.019 0.079 0.026 0.136 0.026 0.219 0.010 0.202 0 0.417 0 0.624v1.238c0 0.546 0.013 1.094-0.032 1.639-0.040 0.461-0.010 0.945-0.010 1.406v0.597c0 0.247-0.019 0.484 0.040 0.721 0.035 0.132 0.079 0.251 0.088 0.382 0 0.18 0.039 0.355 0.039 0.535-0.010 0.181-0.114 0.334-0.145 0.519-0.039 0.233-0.088 0.47-0.136 0.703-0.022 0.115 0.032 0.251 0.048 0.361 0.039 0.215 0.019 0.434 0.039 0.65 0.019 0.166 0.057 0.334 0.101 0.487 0.026 0.097 0.083 0.181 0.088 0.281 0.010 0.154 0 0.308-0.003 0.453 0 0.106-0.074 0.247-0.044 0.342 0.022 0.080 0.062 0.048 0.136 0.032 0.216-0.062 0.44-0.026 0.659-0.066 0.128-0.016 0.228-0.079 0.352-0.083 0.074-0.010 0.118 0.010 0.158-0.057 0.032-0.061-0.003-0.15-0.003-0.215 0.013-0.168 0.065-0.286 0-0.449-0.057-0.141-0.053-0.281-0.097-0.43-0.066-0.216-0.053-0.435-0.053-0.668 0.010-0.168-0.032-0.325-0.039-0.497 0-0.197-0.041-0.39-0.041-0.588 0-0.255-0.039-0.496-0.039-0.747 0-0.185-0.022-0.378 0.032-0.562 0.013-0.066 0.048-0.119 0.065-0.185 0.035-0.141-0.010-0.304-0.016-0.444-0.003-0.245 0-0.492 0-0.738v-0.36c0-0.189 0.039-0.361 0.039-0.546 0-0.373-0.044-0.786 0.035-1.146 0.083-0.413-0.136-0.839 0.019-1.24 0.044-0.136 0.079-0.21 0.065-0.355 0-0.079-0.032-0.154-0.039-0.233-0.010-0.101 0-0.216 0-0.316 0-0.185 0.013-0.373 0.026-0.558 0.006-0.158-0.010-0.334 0.039-0.488 0.022-0.092 0.079-0.163 0.109-0.255 0.019-0.053 0.032-0.1 0.036-0.153 0.013-0.228-0.026-0.458-0.022-0.691 0.003-0.158 0.106-0.364-0.013-0.514-0.056-0.074-0.215-0.039-0.316-0.035-0.185 0.010-0.343 0-0.528-0.032-0.101-0.022-0.202-0.039-0.303-0.071-0.062-0.016-0.211-0.101-0.357-0.136z"></path>
<path d="M20.776 28.879c-0.053-0.032-0.128-0.039-0.189-0.070-0.382-0.145-0.783-0.251-1.156-0.422-0.413-0.194-0.804-0.295-1.256-0.308-0.254-0.003-0.501 0.026-0.751 0.019-0.233-0.003-0.466-0.013-0.694-0.019-0.435-0.013-1.002-0.118-1.411 0.080-0.163 0.079-0.339 0.079-0.514 0.1-0.118 0.019-0.233 0.053-0.355 0.036-0.092-0.013-0.163-0.044-0.26-0.044-0.092-0.010-0.18-0.010-0.272-0.013-0.11 0-0.228-0.022-0.33-0.013-0.127 0.019-0.237 0.035-0.373 0.035-0.373-0.003-0.756 0.053-1.095 0.216-0.109 0.044-0.206 0.106-0.312 0.158-0.074 0.036-0.154 0.057-0.228 0.080-0.295 0.092-0.571 0.215-0.871 0.29-0.056 0.016-0.171 0.006-0.21 0.061-0.062 0.080 0.035 0.277 0.106 0.33 0.228 0.177 0.632 0.080 0.879 0.080 0.606 0.003 1.195 0.013 1.801-0.057 0.313-0.035 0.62-0.057 0.936-0.062 0.33 0 0.651 0.032 0.981 0.039 0.531 0.010 1.059 0.032 1.595 0.039 0.443 0 0.895 0.026 1.335-0.013 0.413-0.039 0.821 0 1.235-0.026 0.386-0.032 0.773 0 1.164-0.016 0.065-0.010 0.145-0.010 0.206-0.032 0.133-0.048 0.308-0.254 0.194-0.382-0.061-0.061-0.185-0.118-0.272-0.136 0.035 0.022 0.079 0.036 0.119 0.048z"></path>
<path d="M27.722 6.089c-0.039 0.061-0.109 0.123-0.162 0.171-0.097 0.088-0.219 0.202-0.321 0.281-0.119 0.092-0.228 0.194-0.348 0.281-0.044 0.035-0.074 0.074-0.114 0.114-0.041 0.040-0.080 0.071-0.137 0.101-0.228 0.154-0.483 0.277-0.738 0.391-0.298 0.132-0.602 0.277-0.887 0.44-0.21 0.123-0.408 0.268-0.637 0.364-0.264 0.106-0.502 0.254-0.751 0.39-0.194 0.106-0.334 0.246-0.514 0.366-0.382 0.263-0.747 0.579-1.069 0.913-0.136 0.141-0.219 0.308-0.377 0.435-0.097 0.070-0.211 0.123-0.308 0.202-0.101 0.096-0.194 0.197-0.299 0.281-0.364 0.281-0.747 0.505-1.137 0.747-0.141 0.092-0.304 0.158-0.435 0.277-0.062 0.053-0.162 0.127-0.215 0.189-0.041 0.056-0.062 0.136-0.092 0.197-0.032 0.080-0.053 0.158-0.106 0.22-0.053 0.070-0.115 0.088-0.18 0.132-0.154 0.115-0.26 0.281-0.413 0.399-0.198 0.154-0.391 0.299-0.607 0.435-0.105 0.062-0.18 0.158-0.277 0.233-0.061 0.044-0.136 0.079-0.197 0.119-0.141 0.097-0.251 0.237-0.396 0.33-0.070 0.035-0.136 0.061-0.189 0.118-0.088 0.097-0.166 0.215-0.242 0.321-0.106 0.141-0.351 0.269-0.519 0.269-0.079 0-0.171 0.016-0.242-0.032-0.039-0.022-0.039-0.057-0.070-0.083-0.039-0.022-0.088-0.026-0.127-0.057-0.085-0.053-0.141-0.154-0.225-0.21-0.109-0.071-0.228-0.11-0.33-0.211-0.215-0.224-0.381-0.479-0.575-0.716-0.039-0.044-0.083-0.079-0.124-0.123-0.065-0.079-0.105-0.194-0.153-0.277-0.163-0.272-0.361-0.496-0.585-0.725-0.224-0.224-0.492-0.408-0.733-0.606-0.154-0.123-0.295-0.215-0.413-0.373-0.181-0.228-0.37-0.439-0.606-0.615-0.194-0.141-0.378-0.298-0.55-0.461-0.122-0.127-0.263-0.224-0.382-0.351-0.092-0.101-0.171-0.219-0.268-0.325-0.158-0.163-0.339-0.308-0.519-0.453-0.378-0.298-0.724-0.641-1.173-0.83-0.145-0.057-0.254-0.154-0.382-0.233-0.1-0.062-0.21-0.092-0.307-0.162-0.127-0.097-0.215-0.221-0.343-0.317-0.118-0.092-0.254-0.158-0.369-0.254-0.202-0.163-0.303-0.422-0.475-0.615-0.194-0.228-0.351-0.484-0.584-0.668 0.118-0.003-0.172-0.044-0.145-0.194 0.013-0.074 0.106-0.123 0.158-0.153 0.075-0.045 0.092-0.048 0.189-0.048 0.119 0 0.22-0.010 0.33 0.032 0.15 0.053 0.269 0.145 0.422 0.175 0.088 0.022 0.177 0.013 0.26 0.022 0.057 0.013 0.092 0.035 0.141 0.048 0.070 0.016 0.162 0 0.233 0h0.584c0.299 0 0.624-0.039 0.928 0.003 0.197 0.032 0.386 0.035 0.593 0.032 0.202 0 0.399 0.044 0.606 0.044 0.263-0.010 0.532 0.019 0.795 0.044 0.255 0.026 0.509 0.101 0.765 0.115 0.39 0.016 0.786-0.019 1.182 0.016 0.672 0.062 1.344-0.022 2.016-0.016h1.864c0.519 0 1.050-0.075 1.559-0.211 0.532-0.136 1.064-0.247 1.618-0.299 0.364-0.035 0.738 0.026 1.099-0.016 0.188-0.022 0.351-0.026 0.535-0.026 0.286 0 0.562 0.032 0.839 0.040 0.277 0.003 0.549 0.022 0.827 0.039 0.201 0.010 0.381 0.083 0.588 0.079 0.255-0.010 0.492 0.039 0.738 0.039h0.571c0.272 0 0.562-0.016 0.839-0.053 0.198-0.016 0.391-0.074 0.593-0.065 0.141 0 0.269-0.010 0.396 0.039 0.048 0.013 0.15 0.013 0.166 0.070 0.003 0.040-0.065 0.189-0.088 0.23zM28.861 5.468c-0.026-0.136-0.106-0.083-0.215-0.097-0.128-0.010-0.242-0.083-0.369-0.106-0.092-0.022-0.202-0.016-0.299-0.016-0.514-0.003-1.024-0.022-1.538-0.045-0.98-0.035-1.964-0.088-2.94-0.056-0.483 0.013-0.962 0.013-1.445 0.039-0.395 0.044-0.786 0.088-1.181 0.136-0.366 0.026-0.739 0.048-1.113 0.062-1.199 0.061-2.403 0.083-3.603 0.118-1.046 0.022-2.079 0.035-3.119-0.062-0.519-0.044-1.046-0.114-1.569-0.132-0.373-0.010-0.756 0.019-1.129 0.022-0.496 0.010-0.993-0.022-1.489-0.010-0.528 0.010-1.054 0.026-1.582 0.039-0.484 0.010-0.972 0.022-1.459 0.032-0.106 0-0.168-0.006-0.272-0.032-0.128-0.022-0.22-0.019-0.251 0.097-0.010 0.010-0.010 0.022-0.010 0.039-0.010 0.083-0.061 0.141-0.044 0.237 0.013 0.066 0.057 0.106 0.092 0.168 0.088 0.171 0.053 0.369 0.18 0.526 0.106 0.141 0.255 0.211 0.373 0.33 0.089 0.080 0.145 0.18 0.237 0.26 0.158 0.127 0.247 0.316 0.378 0.479 0.163 0.197 0.373 0.346 0.558 0.531 0.11 0.101 0.202 0.207 0.322 0.295 0.083 0.057 0.171 0.132 0.245 0.198 0.141 0.141 0.295 0.272 0.466 0.386 0.295 0.185 0.555 0.414 0.853 0.594 0.357 0.219 0.567 0.628 0.866 0.918 0.242 0.224 0.399 0.519 0.628 0.769 0.224 0.246 0.466 0.457 0.751 0.65 0.348 0.228 0.65 0.496 0.949 0.791 0.136 0.136 0.242 0.304 0.364 0.457 0.115 0.15 0.242 0.286 0.361 0.417 0.268 0.308 0.487 0.638 0.786 0.919 0.228 0.21 0.452 0.417 0.672 0.628 0.154 0.141 0.37 0.29 0.479 0.462 0.053 0.092 0.092 0.132 0.172 0.21 0.114 0.106 0.158 0.194 0.325 0.194 0.127 0 0.254-0.019 0.378 0 0.105 0.019 0.197 0.035 0.307 0.026 0.202-0.003 0.576 0.062 0.733-0.088 0.062-0.065 0.097-0.145 0.163-0.206 0.101-0.097 0.219-0.177 0.33-0.264 0.448-0.364 0.86-0.751 1.3-1.116 0.378-0.312 0.791-0.632 1.12-1.002 0.168-0.185 0.339-0.381 0.532-0.553 0.342-0.294 0.632-0.632 1.006-0.904 0.237-0.177 0.506-0.317 0.751-0.479 0.132-0.088 0.251-0.207 0.391-0.272 0.079-0.036 0.136-0.057 0.198-0.115 0.132-0.11 0.29-0.175 0.417-0.277 0.154-0.119 0.303-0.219 0.466-0.316 0.065-0.044 0.123-0.062 0.198-0.092 0.132-0.048 0.242-0.145 0.351-0.237 0.224-0.18 0.47-0.387 0.638-0.624 0.189-0.255 0.452-0.408 0.703-0.602 0.303-0.237 0.597-0.47 0.927-0.673 0.312-0.198 0.593-0.408 0.878-0.646 0.382-0.334 0.729-0.708 1.076-1.072 0.215-0.228 0.422-0.461 0.62-0.694 0.065-0.080 0.106-0.133 0.083-0.242z"></path>
<path d="M18.394 8.277c0.013 0 0.026 0.003 0.036 0-0.128-0.097-0.080-0.048-0.036 0z"></path>
<path d="M18.939 10.917c-0.035 0.133-0.119 0.246-0.194 0.348-0.145 0.233-0.295 0.457-0.435 0.703-0.158 0.268-0.312 0.544-0.492 0.8-0.128 0.185-0.317 0.272-0.502 0.382-0.185 0.106-0.316 0.166-0.526 0.158-0.163-0.013-0.339-0.026-0.497-0.047-0.114-0.022-0.206-0.080-0.312-0.119-0.168-0.062-0.352-0.066-0.514-0.123-0.106-0.039-0.175-0.085-0.286-0.115-0.136-0.026-0.215-0.065-0.321-0.154-0.11-0.083-0.26-0.171-0.352-0.281-0.118-0.141-0.136-0.337-0.272-0.478-0.088-0.092-0.224-0.133-0.295-0.237-0.079-0.106-0.118-0.237-0.185-0.352-0.061-0.114-0.074-0.206-0.079-0.33 0-0.259-0.022-0.593 0.079-0.835 0.101-0.246 0.26-0.505 0.435-0.69 0.106-0.11 0.194-0.237 0.307-0.343 0.119-0.11 0.246-0.202 0.37-0.303 0.105-0.093 0.192-0.124 0.312-0.172 0.166-0.062 0.303-0.162 0.47-0.215 0.18-0.057 0.364-0.124 0.549-0.15 0.233-0.035 0.479 0.039 0.69 0.123 0.15 0.057 0.308 0.101 0.449 0.168 0.233 0.106 0.44 0.281 0.655 0.413-0.019-0.122 0.198 0.013 0.355 0.11 0.22 0.136 0.369 0.422 0.435 0.667 0.039 0.141 0.062 0.264 0.119 0.4 0.047 0.114 0.039 0.215 0.039 0.339-0.003 0.105 0.016 0.228-0.003 0.333zM19.573 10.434c-0.016-0.154-0.079-0.304-0.105-0.453-0.032-0.153 0.016-0.325-0.057-0.47-0.053-0.109-0.141-0.236-0.228-0.333-0.048-0.057-0.11-0.097-0.163-0.158-0.039-0.044-0.062-0.11-0.114-0.15-0.071-0.062-0.124-0.127-0.189-0.198-0.057-0.061-0.089-0.127-0.137-0.197-0.048-0.057-0.109-0.089-0.149-0.15-0.010-0.019-0.022-0.035-0.036-0.048-0.070-0.003-0.118-0.066-0.162-0.119-0.124-0.127-0.272-0.254-0.417-0.351-0.216-0.132-0.431-0.216-0.686-0.242-0.33-0.035-0.628-0.106-0.966-0.062-0.228 0.036-0.435 0.088-0.632 0.194-0.216 0.106-0.453 0.141-0.664 0.255-0.136 0.065-0.26 0.158-0.4 0.21-0.092 0.039-0.166 0.066-0.25 0.115-0.177 0.109-0.339 0.233-0.497 0.355-0.15 0.11-0.298 0.198-0.395 0.357-0.092 0.158-0.198 0.277-0.255 0.461-0.115 0.364-0.132 0.773-0.189 1.151-0.048 0.343-0.101 0.629-0.010 0.958 0.044 0.175 0.101 0.316 0.18 0.479 0.106 0.219 0.185 0.351 0.4 0.47 0.189 0.109 0.355 0.192 0.487 0.364 0.057 0.070 0.085 0.166 0.145 0.228 0.066 0.057 0.119 0.057 0.194 0.079 0.33 0.097 0.562 0.413 0.905 0.488 0.097 0.022 0.194 0.022 0.29 0.044 0.101 0.022 0.198 0.079 0.286 0.127 0.162 0.066 0.334 0.119 0.487 0.198 0.132 0.062 0.237 0.066 0.387 0.048 0.145-0.019 0.312-0.022 0.452-0.066 0.321-0.109 0.62-0.294 0.91-0.457 0.074-0.048 0.158-0.066 0.224-0.11 0.088-0.052 0.136-0.123 0.207-0.192 0.18-0.168 0.382-0.299 0.519-0.519 0.141-0.23 0.206-0.47 0.316-0.708 0.097-0.202 0.185-0.387 0.198-0.611 0.016-0.334 0.153-0.65 0.114-0.989z"></path>
<path d="M15.397 10.227h-0.224c-0.048 0.010-0.088 0.022-0.127 0.035-0.048 0.019-0.11 0.019-0.127 0.080-0.022 0.061-0.080 0.097-0.124 0.15-0.092 0.092-0.194 0.171-0.246 0.289-0.039 0.097-0.065 0.33-0.026 0.44 0.062 0.132 0.237 0.228 0.316 0.36 0.083 0.154 0.216 0.225 0.364 0.317 0.106 0.056 0.186 0.158 0.286 0.202 0.128 0.066 0.322-0.044 0.453-0.105 0.101-0.045 0.153-0.133 0.224-0.216 0.066-0.074 0.136-0.122 0.198-0.184 0.079-0.079 0.224-0.215 0.25-0.33 0.022-0.118 0.013-0.299-0.061-0.391-0.053-0.065-0.154-0.105-0.216-0.175-0.061-0.074-0.114-0.158-0.162-0.237-0.075-0.097-0.097-0.145-0.216-0.171-0.056-0.003-0.118-0.010-0.175-0.013-0.057 0-0.11-0.016-0.158-0.035-0.022-0.003-0.035-0.003-0.052 0-0.044 0-0.089-0.013-0.137-0.013z"></path>
<path d="M15.895 7.723c0.065-0.003 0.105-0.036 0.166-0.040 0.168-0.013 0.299-0.035 0.461-0.079 0.172-0.039 0.391-0.118 0.567-0.074 0.132 0.039 0.233 0.127 0.373 0.15 0.132 0.022 0.269 0.003 0.4 0.003 0.145 0 0.325 0.040 0.452-0.044 0.233-0.141 0.352-0.386 0.493-0.611 0.206-0.33 0.413-0.703 0.413-1.098-0.003-0.154-0.003-0.295-0.003-0.44 0.003-0.303 0.171-0.492 0.36-0.699 0.088-0.083 0.132-0.101 0.251-0.136 0.215-0.057 0.417-0.145 0.632-0.198 0.177-0.039 0.352-0.044 0.528-0.079 0.198-0.039 0.391-0.083 0.597-0.097 0.308-0.013 0.488-0.162 0.721-0.339 0.154-0.114 0.242-0.254 0.36-0.395 0.115-0.136 0.29-0.233 0.431-0.339 0.11-0.092 0.175-0.062 0.308-0.123 0.185-0.092 0.36-0.216 0.57-0.255 0.177-0.039 0.339-0.071 0.51-0.132 0.237-0.083 0.493-0.092 0.739-0.132 0.153-0.013 0.298-0.026 0.461-0.022 0.15 0 0.307-0.057 0.457-0.044 0.115 0.003 0.202 0.115 0.312 0.145 0.172 0.053 0.373-0.032 0.497 0.136 0.097 0.127 0.166 0.215 0.295 0.316 0.097 0.075 0.088 0.198 0.18 0.29 0.224 0.242 0.553 0.339 0.786 0.571 0.115 0.114 0.251 0.162 0.378 0.251 0.154 0.096 0.11 0.263 0.198 0.399 0.053 0.083 0.136 0.132 0.194 0.215 0 0.040 0.022 0.075 0.056 0.092 0.039 0.013 0.080 0.032 0.115 0.048 0.065 0.062 0.088 0.189 0.15 0.26 0.065 0.070 0.127 0.136 0.197 0.189 0.106 0.083 0.207 0.219 0.33 0.272 0.202 0.079 0.444-0.013 0.651 0.048 0.132 0.035 0.233 0.062 0.369 0.039 0.145-0.016 0.277-0.070 0.422-0.070 0.245-0.010 0.448 0.158 0.681 0.206 0.035 0.088-0.079 0.237-0.122 0.299-0.080 0.118-0.163 0.21-0.308 0.21-0.122-0.003-0.233-0.016-0.316-0.123-0.062-0.088-0.053-0.171-0.162-0.198-0.057-0.022-0.172 0-0.237 0-0.080 0.003-0.133 0.026-0.207 0.057-0.074 0.022-0.141 0.010-0.215 0.032-0.124 0.036-0.255 0.154-0.366 0.225-0.109 0.065-0.228 0.123-0.355 0.127-0.032 0-0.127 0.016-0.154-0.003-0.022-0.032 0-0.115-0.013-0.15-0.106-0.003-0.128-0.101-0.185-0.175-0.089-0.101-0.177-0.185-0.237-0.304-0.041-0.074-0.071-0.153-0.119-0.215-0.039-0.044-0.079-0.062-0.118-0.106-0.128-0.145-0.154-0.373-0.255-0.531-0.132-0.194-0.325-0.295-0.461-0.479-0.168-0.207-0.281-0.396-0.532-0.532-0.15-0.088-0.325-0.127-0.492-0.206-0.106-0.048-0.202-0.115-0.304-0.172-0.079-0.039-0.15-0.101-0.233-0.141-0.171-0.079-0.417-0.057-0.593-0.013-0.119 0.036-0.219 0.089-0.348 0.11-0.123 0.022-0.228 0.044-0.346 0.083-0.145 0.044-0.308 0.071-0.453 0.092-0.303 0.057-0.588 0.141-0.892 0.202-0.558 0.115-0.957 0.567-1.384 0.918-0.106 0.092-0.216 0.186-0.339 0.269-0.092 0.061-0.194 0.079-0.29 0.132-0.242 0.118-0.47 0.316-0.69 0.475-0.194 0.136-0.378 0.321-0.553 0.487-0.216 0.202-0.47 0.339-0.694 0.532-0.15 0.123-0.207 0.233-0.233 0.431-0.036 0.246-0.057 0.519-0.136 0.756-0.154 0.492-0.585 0.948-0.449 1.498 0.039 0.18 0.101 0.334 0.097 0.523 0 0.127 0.003 0.254 0 0.381 0.022-0.175-0.141-0.364-0.215-0.517-0.044-0.11-0.115-0.177-0.177-0.269-0.065-0.101-0.105-0.206-0.197-0.286-0.097-0.079-0.119-0.118-0.168-0.233-0.048-0.097-0.127-0.171-0.185-0.259-0.053-0.092-0.088-0.119-0.185-0.158-0.118-0.057-0.215-0.15-0.334-0.206-0.114-0.057-0.237-0.085-0.351-0.145-0.106-0.057-0.207-0.136-0.322-0.189-0.079-0.044-0.149-0.044-0.228-0.066-0.079-0.022-0.162-0.062-0.245-0.083-0.11-0.026-0.198-0.032-0.295-0.083-0.075-0.044-0.127-0.071-0.216-0.066-0.1 0-0.219 0.053-0.312 0.092-0.044 0.013-0.202 0.136 0.066-0.21z"></path>
<path d="M18.193 8.671c-0.026 0.119-0.044 0.207-0.039 0.325 0 0.048 0.013 0.119-0.003 0.168-0.022 0.092-0.092 0.114-0.075 0.219 0.026 0.242 0.272 0.304 0.413 0.461 0.15 0.158 0.194 0.366 0.317 0.532 0.035 0.044 0.061 0.066 0.092 0.118 0.022 0.040 0.016 0.085 0.065 0.115 0.080 0.044 0.136-0.010 0.172-0.074 0.061-0.133 0.074-0.317 0.026-0.458-0.032-0.114-0.044-0.189-0.057-0.303-0.003-0.083-0.032-0.207-0.065-0.281-0.039-0.079-0.092-0.115-0.154-0.171-0.057-0.057-0.101-0.137-0.136-0.207-0.032-0.079-0.145-0.452-0.553-0.444z"></path>
<path d="M17.52 8.593h-0.281c-0.118 0-0.334-0.039-0.452 0-0.075 0.022-0.071 0.101-0.119 0.158-0.013 0.013-0.074 0.035-0.092 0.053-0.057 0.035-0.092 0.074-0.158 0.074-0.003 0.039-0.003 0.066-0.036 0.101-0.039-0.075 0.013-0.172-0.006-0.251-0.032-0.097-0.097-0.035-0.194-0.062 0-0.022-0.010-0.044-0.013-0.065-0.127-0.048-0.198 0.040-0.312 0.083-0.071 0.035-0.119 0.013-0.198 0.026-0.057 0.006-0.097 0.070-0.141 0.079-0.080 0.013-0.124-0.124-0.198-0.15-0.022-0.013-0.053 0.003-0.074-0.010-0.026-0.003-0.048-0.022-0.066-0.026-0.062-0.022-0.118-0.019-0.175-0.053 0.123 0.013 0.33-0.088 0.439-0.141 0.15-0.062 0.273-0.163 0.426-0.219 0.124-0.053 0.251-0.154 0.378-0.189 0.115-0.022 0.251-0.003 0.357-0.003 0.254 0 0.501-0.036 0.729 0.079 0.039 0.022 0.092 0.035 0.132 0.071 0.036 0.022 0.057 0.065 0.101 0.083 0.057 0.022 0.312-0.039-0.044 0.36z"></path>
</svg>
