<!-- Generated by IcoMoon.io -->
<svg version="1.1" xmlns="http://www.w3.org/2000/svg" width="33" height="32" viewBox="0 0 33 32">
<title>the_search_for_kadath</title>
<path d="M30.883 30.002c-0.068-0.051-0.13-0.112-0.196-0.163-0.218-0.171-0.438-0.341-0.657-0.509-0.229-0.175-0.447-0.363-0.672-0.541-0.242-0.191-0.515-0.351-0.745-0.555-0.232-0.205-0.485-0.387-0.712-0.595-0.247-0.225-0.504-0.433-0.777-0.624-0.272-0.193-0.544-0.367-0.792-0.592-0.265-0.237-0.545-0.457-0.827-0.674-0.258-0.199-0.508-0.41-0.774-0.599-0.283-0.2-0.53-0.444-0.803-0.658-0.046-0.036-0.091-0.071-0.137-0.106-0.014-0.032-0.028-0.066-0.041-0.098-0.148-0.32-0.345-0.619-0.457-0.954-0.055-0.164-0.112-0.315-0.186-0.471-0.009-0.018 0.004-0.041-0.021-0.051-0.022-0.007-0.037 0.004-0.039 0.028-0.141-0.214-0.142-0.207-0.144-0.199-0.047 0.004-0.115 0.021-0.134 0.075-0.010 0.028 0.015 0.066 0.021 0.094 0.012 0.066 0.012 0.131 0.031 0.196 0.073 0.265 0.149 0.53 0.229 0.794-0.171-0.135-0.341-0.272-0.511-0.41-0.469-0.385-0.93-0.78-1.416-1.146-0.464-0.349-0.911-0.716-1.367-1.075-0.301-0.237-0.627-0.46-0.954-0.661-0.009-0.004-0.018-0.011-0.028-0.018-0.047-0.127-0.090-0.255-0.127-0.385-0.044-0.159-0.086-0.319-0.137-0.475-0.014-0.043-0.028-0.044-0.026-0.101l-0.084-0.612c-0.044 0.001-0.087-0.014-0.116-0.048 0.012 0.151 0.073 0.295 0.115 0.44 0.037 0.129 0.072 0.257 0.113 0.384 0.083 0.259 0.164 0.522 0.239 0.784-0.226-0.135-0.464-0.247-0.689-0.382-0.135-0.082-0.264-0.171-0.399-0.25-0.128-0.073-0.266-0.131-0.398-0.199-0.255-0.133-0.513-0.256-0.767-0.388-0.305-0.16-0.601-0.341-0.893-0.527-0.028-0.080-0.057-0.16-0.082-0.241-0.068-0.229-0.116-0.461-0.17-0.694-0.025-0.102-0.040-0.264-0.119-0.344-0.001 0.007-0.004 0.014-0.005 0.018-0.006 0.082-0.174-0.097-0.253-0.116-0.008 0.103 0.003 0.213 0.001 0.316 0 0.106-0.006 0.206 0.026 0.308 0.033 0.105 0.058 0.213 0.095 0.315 0.018 0.051 0.039 0.099 0.058 0.148-0.069-0.045-0.138-0.091-0.207-0.137-0.175-0.115-0.341-0.2-0.531-0.286-0.117-0.054-0.229-0.065-0.351-0.101-0.374-0.113-0.747-0.229-1.121-0.343-0.243-0.073-0.456-0.145-0.712-0.16-0.236-0.014-0.465-0.062-0.699-0.097-0.269-0.040-0.533-0.109-0.801-0.162-0.276-0.054-0.558-0.077-0.835-0.117-0.518-0.075-1.024-0.129-1.547-0.126-0.643 0.003-1.298-0.028-1.934 0.069 0.046-0.032 0.036-0.066-0.094-0.152-0.029-0.042-0.084-0.064-0.124-0.083-0.164-0.079-0.317-0.156-0.473-0.254-0.182-0.115-0.375-0.211-0.555-0.327-0.181-0.116-0.352-0.244-0.525-0.37-0.385-0.282-0.788-0.548-1.155-0.85-0.279-0.23-0.551-0.471-0.826-0.704-0.268-0.226-0.549-0.432-0.813-0.664-0.077-0.069-0.141-0.146-0.21-0.221-0.062-0.066-0.144-0.126-0.208-0.193 0.036 0.032 0.050 0.067 0.070 0.11 0.076 0.157 0.197 0.283 0.3 0.424 0.116 0.163 0.195 0.346 0.311 0.509 0.161 0.228 0.323 0.449 0.475 0.683 0.155 0.24 0.313 0.476 0.465 0.718 0.144 0.229 0.32 0.422 0.504 0.62 0.301 0.323 0.605 0.642 0.918 0.952 0.054 0.048 0.103 0.099 0.149 0.154 0.018 0.028 0.036 0.056 0.058 0.083 0.047 0.032 0.025 0.018 0.062 0.004 0.032-0.014 0.032-0.028 0.073-0.036 0.088-0.018 0.16-0.028 0.25-0.062 0.211-0.081 0.432-0.112 0.657-0.134-0.076 0.042-0.149 0.087-0.226 0.129-0.091 0.048-0.161 0.070-0.262 0.067-0.034-0.001-0.072-0.004-0.106 0.003-0.015 0.061 0.001 0.129-0.010 0.192-0.017 0.088-0.025 0.175-0.036 0.265-0.033 0.269-0.014 0.547-0.014 0.817 0 0.11-0.005 0.222-0.003 0.334 0.004 0.141 0.050 0.278 0.057 0.42 0.019 0.358 0.004 0.715 0.034 1.073 0.015 0.171 0.050 0.34 0.065 0.512 0.012 0.123 0.015 0.247 0.028 0.37 0.025 0.243 0.031 0.487 0.055 0.732 0.029 0.289 0.137 0.554 0.231 0.825 0.083 0.243 0.157 0.489 0.243 0.73 0.091 0.261 0.23 0.502 0.346 0.754 0.12 0.259 0.236 0.522 0.333 0.791 0.112 0.309 0.378 0.573 0.589 0.82 0.229 0.27 0.491 0.532 0.692 0.824 0.084 0.124 0.189 0.23 0.276 0.353 0.066 0.094 0.123 0.195 0.189 0.289 0.17 0.24 0.327 0.487 0.509 0.721 0.178 0.228 0.378 0.442 0.574 0.654 0.193 0.21 0.425 0.388 0.64 0.573 0.28 0.241 0.563 0.46 0.868 0.664 0.225 0.151 0.454 0.287 0.672 0.444 0.021 0.014 0.041 0.032 0.062 0.047-0.006-0.011-0.014-0.021-0.021-0.032-0.218-0.356-0.544-0.636-0.806-0.961-0.127-0.157-0.261-0.309-0.38-0.474-0.097-0.135-0.182-0.276-0.291-0.403-0.289-0.334-0.493-0.732-0.77-1.074-0.475-0.585-1.017-1.107-1.47-1.71-0.213-0.282-0.416-0.573-0.607-0.87-0.103-0.16-0.24-0.304-0.323-0.475-0.094-0.192-0.192-0.382-0.286-0.574-0.081-0.17-0.146-0.346-0.229-0.515-0.070-0.145-0.084-0.286-0.123-0.439-0.076-0.302-0.126-0.605-0.181-0.911-0.034-0.192-0.065-0.378-0.115-0.567-0.050-0.191-0.119-0.375-0.138-0.573-0.012-0.134-0.061-0.257-0.077-0.388-0.017-0.118-0.005-0.241-0.005-0.359v-0.451c0-0.141 0.012-0.286-0.015-0.425-0.036-0.181-0.083-0.373-0.068-0.558 0.014-0.175 0.232-0.298 0.319-0.444 0.053-0.090 0.069-0.261 0.179-0.301 0.066-0.025 0.162-0.004 0.229-0.004 0.126-0.001 0.247-0.032 0.374-0.028 0.219 0.001 0.439 0.003 0.659 0.001 0.121-0.001 0.236 0.014 0.356 0.025 0.133 0.011 0.269 0.003 0.403 0.003 0.255-0.001 0.508 0.018 0.762 0.048 0.163 0.018 0.327 0.028 0.49 0.048 0.17 0.021 0.326 0.066 0.493 0.109 0.161 0.043 0.327 0.069 0.493 0.099 0.206 0.039 0.404 0.093 0.609 0.141 0.415 0.097 0.838 0.196 1.244 0.328 0.276 0.090 0.552 0.208 0.819 0.319 0.102 0.043 0.199 0.092 0.304 0.131 0.119 0.044 0.243 0.072 0.36 0.118 0.424 0.162 0.842 0.348 1.231 0.58 0.278 0.163 0.571 0.291 0.86 0.429 0.197 0.627 0.364 1.26 0.533 1.895 0.088 0.331 0.207 0.651 0.273 0.99 0.051 0.264 0.133 0.509 0.16 0.777 0.022 0.221 0.064 0.428 0.062 0.652 0 0.116 0.015 0.186-0.052 0.282-0.044 0.061-0.088 0.113-0.116 0.185-0.025 0.067-0.032 0.145-0.052 0.214-0.030 0.103-0.086 0.192-0.090 0.302-0.005 0.108 0.025 0.217 0.044 0.322 0.117 0.616 0.308 1.204 0.519 1.792 0.081 0.228 0.131 0.468 0.225 0.69 0.116 0.277 0.253 0.545 0.359 0.827 0.153 0.403 0.341 0.799 0.533 1.184 0.052 0.104 0.122 0.255 0.247 0.279 0.103 0.018 0.226 0.001 0.331 0.001 0.137 0 0.275-0.001 0.413 0 0.081 0 0.215 0.018 0.28-0.040 0.040-0.036 0.057-0.087 0.061-0.134 0.011-0.159-0.023-0.335-0.054-0.491-0.081-0.411-0.195-0.816-0.309-1.219-0.11-0.392-0.186-0.792-0.264-1.191-0.028-0.135-0.068-0.268-0.094-0.403-0.029-0.148-0.036-0.295-0.052-0.443-0.029-0.27-0.102-0.534-0.167-0.796-0.075-0.297-0.214-0.56-0.315-0.846-0.057-0.159-0.175-0.278-0.266-0.416-0.025-0.037-0.058-0.109-0.101-0.138-0.014-0.007-0.043-0.001-0.054-0.007-0.126-0.064-0.203-0.222-0.275-0.344-0.022-0.039-0.046-0.073-0.070-0.113-0.059-0.093-0.058-0.186-0.066-0.289-0.001-0.028-0.015-0.055-0.025-0.083-0.052-0.146-0.113-0.289-0.163-0.436-0.11-0.322-0.226-0.625-0.37-0.933-0.235-0.507-0.355-1.052-0.541-1.576-0.031-0.087-0.064-0.171-0.095-0.257 0.255 0.153 0.493 0.333 0.747 0.489 0.222 0.137 0.428 0.297 0.639 0.451 0.456 0.33 0.928 0.628 1.409 0.918 0.093 0.055 0.179 0.119 0.267 0.181 0.045 0.184 0.091 0.367 0.148 0.548 0.079 0.257 0.159 0.513 0.239 0.77 0.079 0.248 0.185 0.491 0.235 0.75 0.040 0.211 0.127 0.4 0.184 0.606 0.036 0.132 0.029 0.273 0.026 0.408-0.001 0.071 0 0.127-0.028 0.192-0.023 0.056-0.043 0.091-0.052 0.157-0.022 0.135 0 0.27 0.017 0.404 0.019 0.171 0.023 0.346 0.037 0.519 0.044 0.541 0.236 1.055 0.391 1.571 0.102 0.334 0.21 0.668 0.311 1.004 0.097 0.323 0.171 0.656 0.295 0.972 0.054 0.134 0.097 0.276 0.226 0.353 0.084 0.050 0.207 0.036 0.304 0.032 0.135-0.004 0.265-0.028 0.402-0.028 0.163 0 0.331-0.018 0.468-0.113 0.040-0.028 0.068-0.062 0.105-0.090 0.022-0.018 0.033-0.004 0.047-0.028 0.010-0.018-0.052-0.204-0.061-0.24-0.012-0.051-0.011-0.087-0.012-0.143-0.005-0.146-0.044-0.294-0.081-0.436-0.077-0.294-0.171-0.584-0.251-0.878-0.092-0.337-0.211-0.67-0.32-1.001-0.137-0.414-0.276-0.834-0.436-1.24-0.091-0.232-0.193-0.456-0.251-0.7-0.022-0.092-0.044-0.202-0.073-0.284-0.021-0.056-0.047-0.105-0.076-0.159-0.045-0.086-0.072-0.162-0.102-0.251-0.017-0.047-0.047-0.070-0.076-0.11-0.059-0.079-0.097-0.157-0.137-0.25-0.059-0.138-0.108-0.248-0.181-0.377-0.044-0.079-0.079-0.157-0.113-0.241-0.036-0.086-0.054-0.195-0.095-0.276-0.048-0.093-0.123-0.177-0.174-0.269-0.075-0.134-0.135-0.272-0.192-0.414-0.050-0.127-0.106-0.251-0.164-0.374 0.102 0.070 0.206 0.141 0.313 0.204 0.468 0.279 0.941 0.549 1.409 0.828 0.367 0.221 0.758 0.417 1.097 0.681 0.139 0.108 0.268 0.21 0.425 0.291 0.16 0.083 0.315 0.172 0.471 0.262 0.021 0.053 0.041 0.105 0.062 0.157 0.059 0.152 0.134 0.297 0.191 0.45 0.055 0.153 0.099 0.312 0.153 0.467 0.050 0.142 0.175 0.369 0.126 0.526-0.028 0.087-0.098 0.166-0.15 0.237-0.082 0.11-0.032 0.241 0.014 0.36 0.043 0.112 0.090 0.222 0.126 0.335 0.039 0.124 0.054 0.251 0.086 0.375 0.081 0.306 0.201 0.605 0.265 0.915 0.064 0.306 0.151 0.61 0.244 0.908 0.034 0.113 0.073 0.32 0.204 0.373 0.047 0.018 0.142 0.004 0.189 0.004 0.080-0.001 0.161 0 0.242 0 0.101 0 0.213 0.014 0.312-0.004 0.077-0.014 0.15-0.050 0.222-0.080 0.046-0.018 0.084-0.061 0.123-0.079 0.023-0.011 0.043 0.003 0.066-0.011-0.023-0.106-0.015-0.21-0.017-0.316-0.003-0.146-0.032-0.291-0.068-0.431-0.047-0.18-0.075-0.396-0.075-0.581 0.001-0.102-0.012-0.162-0.052-0.259-0.069-0.175-0.097-0.37-0.173-0.542-0.047-0.108-0.128-0.202-0.185-0.305-0.040-0.075-0.076-0.151-0.116-0.224-0.105-0.195-0.255-0.355-0.374-0.54-0.029-0.044-0.055-0.109-0.091-0.151-0.015-0.018-0.032-0.018-0.046-0.039-0.021-0.032-0.026-0.086-0.039-0.116-0.123-0.315-0.269-0.623-0.411-0.932 0.048 0.032 0.099 0.062 0.148 0.097 0.195 0.14 0.388 0.282 0.584 0.421 0.395 0.286 0.816 0.527 1.204 0.821 0.349 0.268 0.711 0.515 1.068 0.772 0.171 0.121 0.338 0.248 0.509 0.37 0.144 0.101 0.283 0.219 0.429 0.313 0.268 0.171 0.56 0.302 0.841 0.449 0.258 0.134 0.491 0.3 0.74 0.449 0.122 0.073 0.259 0.126 0.391 0.178 0.12 0.045 0.217 0.116 0.327 0.178 0.086 0.048 0.175 0.069 0.254 0.131 0.028 0.021 0.048 0.050 0.084 0.056-0.006-0.032-0.093-0.067-0.119-0.088z"></path>
<path d="M26.731 15.081c0.014-0.193 0.022-0.389 0.040-0.582 0.018-0.195 0.064-0.385 0.092-0.577 0.041-0.272 0.112-0.53 0.181-0.796 0.064-0.24 0.108-0.485 0.166-0.726 0.128-0.541 0.324-1.060 0.502-1.586 0.2-0.587 0.375-1.176 0.605-1.752 0.156-0.392 0.407-0.705 0.69-1.012 0.022-0.025 0.041-0.050 0.064-0.075-0.112 0.025-0.224 0.050-0.334 0.079-0.5 0.129-0.943 0.364-1.407 0.571-0.162 0.251-0.345 0.487-0.507 0.739-0.199 0.311-0.356 0.635-0.53 0.961-0.061 0.113-0.138 0.217-0.196 0.331-0.069 0.137-0.099 0.297-0.14 0.444-0.062 0.23-0.152 0.45-0.219 0.678-0.079 0.269-0.113 0.549-0.162 0.825-0.050 0.278-0.103 0.544-0.112 0.827-0.019 0.551-0.048 1.1-0.036 1.651 0.005 0.262 0.032 0.522 0.030 0.783-0.001 0.243 0.003 0.483 0.020 0.726 0.070 1.085 0.276 2.152 0.508 3.211 0.065 0.29 0.12 0.584 0.225 0.861 0.087 0.232 0.152 0.467 0.214 0.707 0.099 0.382 0.219 0.787 0.371 1.151 0.17 0.406 0.334 0.814 0.497 1.223 0.086 0.215 0.213 0.411 0.282 0.634 0.055 0.175 0.116 0.344 0.177 0.515 0.117 0.331 0.197 0.672 0.325 0.999 0.055 0.141 0.101 0.286 0.161 0.424 0.081 0.185 0.191 0.358 0.275 0.541 0.095 0.21 0.184 0.417 0.302 0.613 0.113 0.188 0.236 0.369 0.356 0.552 0.099 0.153 0.189 0.313 0.3 0.461 0.028 0.036 0.068 0.099 0.11 0.124-0.010-0.101-0.084-0.197-0.11-0.295-0.029-0.113-0.083-0.206-0.124-0.315-0.097-0.258-0.188-0.518-0.3-0.77-0.264-0.598-0.486-1.224-0.681-1.848-0.083-0.264-0.153-0.532-0.243-0.792-0.057-0.164-0.137-0.316-0.172-0.486-0.034-0.162-0.077-0.317-0.124-0.475-0.051-0.175-0.095-0.346-0.163-0.516-0.052-0.131-0.099-0.262-0.139-0.399-0.115-0.389-0.226-0.776-0.316-1.173-0.094-0.413-0.215-0.817-0.284-1.237-0.032-0.202-0.047-0.403-0.073-0.605-0.032-0.244-0.076-0.487-0.097-0.734-0.037-0.44-0.073-0.886-0.072-1.329 0.001-0.418 0.001-0.838 0-1.256 0-0.432 0.019-0.864 0.048-1.293z"></path>
<path d="M31.2 6.749c-0.421 0.059-0.838 0.105-1.245 0.222-0.004 0.004-0.010 0.007-0.014 0.014-0.207 0.069-0.42 0.129-0.628 0.191-0.258 0.076-0.522 0.137-0.779 0.214-0.251 0.076-0.496 0.168-0.751 0.233-0.271 0.070-0.547 0.124-0.817 0.199-0.306 0.086-0.612 0.181-0.917 0.275-0.233 0.072-0.469 0.131-0.705 0.195-0.253 0.066-0.493 0.171-0.741 0.248-0.707 0.217-1.389 0.471-2.073 0.747-0.052 0.021-0.106 0.040-0.159 0.059l0.729-0.584c0-0.156-0.010-0.315 0.006-0.469 0.022-0.24 0.069-0.489 0.109-0.726 0.044-0.254 0.133-0.479 0.217-0.721 0.065-0.182 0.141-0.362 0.193-0.548 0.047-0.164 0.070-0.333 0.122-0.496 0.051-0.173 0.11-0.349 0.182-0.515 0.040-0.091 0.112-0.177 0.138-0.273-0.090-0.053-0.149 0.061-0.21 0.109-0.173 0.135-0.353 0.225-0.559 0.302-0.075 0.028-0.077 0.014-0.086 0.081-0.004 0.025 0.009 0.058 0.001 0.083-0.015 0.072-0.065 0.153-0.090 0.224-0.058 0.164-0.115 0.32-0.152 0.491-0.142 0.645-0.297 1.288-0.427 1.935-0.061 0.309-0.186 0.599-0.254 0.905-0.008 0.047-0.018 0.093-0.033 0.138-0.011 0.011-0.018 0.021-0.022 0.036-0.003 0.028 0.008 0.050 0.017 0.072-0.213 0.079-0.427 0.153-0.635 0.241-0.355 0.149-0.703 0.304-1.069 0.428-0.693 0.235-1.354 0.53-2.018 0.834-0.581 0.265-1.155 0.555-1.721 0.849-0.451 0.235-0.907 0.458-1.357 0.694-0.286 0.149-0.578 0.289-0.86 0.443-0.25 0.137-0.476 0.313-0.729 0.444-0.188 0.098-0.352 0.232-0.534 0.341-0.186 0.11-0.328 0.276-0.509 0.396-0.15 0.099-0.305 0.197-0.46 0.293-0.142 0.090-0.273 0.195-0.418 0.282-0.197 0.118-0.4 0.232-0.585 0.369-0.045 0.032-0.072 0.039-0.080 0.086-0.003 0.014 0.018 0.036 0.021 0.047 0.014 0.051 0.008 0.109 0.008 0.162-0.001 0.105-0.031 0.259 0.005 0.362 0.034-0.004 0.061-0.054 0.083-0.079 0.061-0.073 0.11-0.14 0.164-0.218 0.037-0.048 0.083-0.090 0.135-0.123 0.055-0.048 0.103-0.101 0.145-0.16 0.080-0.097 0.173-0.181 0.269-0.259 0.156-0.129 0.351-0.216 0.53-0.305 0.233-0.118 0.471-0.224 0.711-0.327 0.279-0.119 0.543-0.269 0.82-0.393 0.179-0.081 0.364-0.145 0.537-0.243 0.121-0.084 0.246-0.164 0.37-0.244 0.115-0.062 0.231-0.123 0.348-0.181 0.313-0.16 0.624-0.319 0.921-0.507 0.312-0.197 0.646-0.345 0.972-0.519 0.247-0.131 0.497-0.261 0.745-0.391 0.559-0.294 1.136-0.547 1.71-0.81 0.554-0.253 1.102-0.5 1.67-0.716 0.233-0.090 0.468-0.18 0.708-0.253 0.315-0.094 0.623-0.2 0.935-0.301 0.601-0.197 1.207-0.388 1.811-0.576 0.596-0.185 1.186-0.391 1.777-0.596 0.322-0.113 0.649-0.211 0.966-0.337 0.237-0.094 0.479-0.157 0.721-0.236 0.353-0.113 0.704-0.228 1.055-0.345 0.228-0.099 0.458-0.192 0.709-0.257 0.282-0.073 0.566-0.131 0.85-0.186 0.015-0.018 0.031-0.040 0.046-0.059 0.073-0.098 0.142-0.196 0.203-0.29-0.006 0.001-0.014 0.001-0.021 0.003z"></path>
<path d="M15.817 22.165c-0.101-0.058-0.189-0.132-0.286-0.199-0.164-0.116-0.338-0.217-0.5-0.34-0.109-0.081-0.189-0.182-0.308-0.251-0.153-0.090-0.3-0.193-0.453-0.286-0.213-0.129-0.442-0.232-0.674-0.322-0.345-0.135-0.674-0.305-1.019-0.442-0.284-0.113-0.571-0.228-0.864-0.322-0.126-0.040-0.257-0.070-0.38-0.119-0.105-0.043-0.204-0.091-0.312-0.129-0.295-0.103-0.599-0.186-0.894-0.29-0.374-0.131-0.755-0.269-1.157-0.276-0.214-0.003-0.429 0.003-0.643 0.003-0.072 0-0.182-0.018-0.253 0.004-0.061 0.018-0.057 0.050-0.057 0.105 0.021-0.25-0.126-0.273-0.304-0.222-0.128 0.036-0.261 0.045-0.393 0.064-0.123 0.018-0.239 0.021-0.362 0.021-0.061 0-0.13-0.014-0.189 0.001-0.031 0.113 0.019 0.222 0.025 0.333 0.004 0.086-0.006 0.13 0.081 0.14 0.12 0.011 0.242-0.011 0.362 0.007 0.204 0.025 0.41 0.036 0.616 0.050 0.16 0.011 0.322 0.025 0.479 0.048 0.115 0.018 0.228-0.004 0.342 0.014 0.048 0.007 0.094 0.021 0.145 0.025 0.385 0.014 0.743 0.105 1.11 0.215 0.409 0.123 0.835 0.152 1.249 0.244 0.351 0.079 0.685 0.224 1.009 0.374 0.149 0.069 0.291 0.151 0.44 0.219 0.090 0.043 0.17 0.087 0.254 0.142 0.206 0.132 0.424 0.236 0.625 0.375 0.378 0.261 0.769 0.49 1.169 0.716 0.197 0.112 0.384 0.24 0.581 0.353 0.141 0.080 0.284 0.155 0.416 0.253 0.032 0.025 0.113 0.145 0.159 0.107 0.014-0.011 0.012-0.101 0.018-0.121 0.011-0.045 0.028-0.099 0.076-0.12 0.041-0.018 0.098 0.014 0.135-0.003 0.086-0.039-0.019-0.152-0.051-0.197-0.048-0.072-0.127-0.134-0.195-0.172z"></path>
<path d="M9.402 21.9c0.16 0.021 0.319 0.036 0.476 0.072 0.199 0.047 0.391 0.116 0.587 0.172 0.221 0.064 0.446 0.116 0.664 0.191 0.156 0.054 0.3 0.123 0.447 0.192 0.188 0.086 0.381 0.157 0.567 0.247 0.447 0.213 0.857 0.48 1.285 0.73 0.247 0.143 0.511 0.251 0.758 0.395 0.225 0.13 0.451 0.257 0.667 0.403 0.195 0.131 0.381 0.272 0.578 0.4 0.11 0.073 0.201 0.164 0.309 0.241 0.034 0.018 0.066 0.041 0.095 0.067 0.008 0.014 0.014 0.025 0.023 0.036 0.040 0.011 0.039-0.007 0.062-0.037 0.044-0.057 0.072-0.129 0.099-0.195 0.025-0.064 0.068-0.123 0.073-0.192 0.005-0.003 0.011-0.001 0.017-0.003-0.048-0.025-0.090-0.071-0.131-0.104-0.072-0.058-0.149-0.123-0.228-0.172-0.092-0.058-0.188-0.119-0.283-0.172-0.246-0.142-0.486-0.297-0.722-0.454-0.269-0.178-0.563-0.317-0.842-0.482-0.816-0.483-1.667-0.879-2.526-1.28-0.432-0.202-0.87-0.4-1.313-0.576-0.164-0.065-0.289-0.095-0.46-0.099-0.3 0.043-0.328 0.080-0.366 0.109-0.005 0.003-0.012 0.004-0.019 0.011-0.015 0.025-0.001 0.069-0.003 0.099-0.003 0.109-0.022 0.236-0.077 0.333 0.069 0.053 0.179 0.058 0.261 0.069z"></path>
<path d="M23.866 28.834c-0.012-0.025-0.023-0.032-0.041-0.050-0.084-0.082-0.206-0.135-0.302-0.202-0.313-0.211-0.588-0.478-0.877-0.721-0.003-0.003-0.185-0.204-0.186-0.098-0.311 0.090-0.311 0.116-0.323 0.145 0.258 0.244 0.476 0.526 0.739 0.767 0.232 0.214 0.497 0.399 0.745 0.592 0.043 0.036 0.097 0.124 0.168 0.077 0.079-0.053 0.061-0.189 0.062-0.265 0-0.077 0.051-0.174 0.015-0.247z"></path>
<path d="M16.699 28.784c-0.018-0.073-0.075-0.098-0.137-0.13-0.059-0.032-0.106-0.064-0.166-0.086-0.193-0.075-0.364-0.203-0.526-0.33-0.264-0.208-0.524-0.42-0.792-0.624-0.311-0.236-0.625-0.475-0.95-0.693-0.283-0.191-0.57-0.373-0.841-0.581-0.309-0.24-0.624-0.484-0.955-0.696-0.346-0.219-0.71-0.396-1.084-0.563-0.391-0.174-0.788-0.327-1.182-0.496-0.236-0.101-0.468-0.203-0.711-0.286-0.152-0.052-0.315-0.112-0.476-0.124-0.105-0.007-0.214-0.004-0.319-0.001-0.041 0.001-0.086-0.004-0.068 0.055-0.131-0.077-0.327-0.037-0.519-0.058 0.048 0.014 0.088 0.194 0.097 0.239 0.015 0.086-0.010 0.177 0.009 0.261 0.077 0.025 0.164-0.018 0.242-0.032 0.159-0.028 0.326-0.032 0.486-0.004 0.497 0.084 0.954 0.262 1.426 0.431 0.406 0.143 0.796 0.309 1.164 0.533 0.193 0.118 0.392 0.224 0.584 0.341 0.248 0.151 0.512 0.27 0.75 0.438 0.088 0.064 0.175 0.113 0.272 0.164 0.149 0.079 0.277 0.192 0.413 0.294 0.201 0.152 0.418 0.282 0.614 0.442 0.181 0.145 0.37 0.283 0.554 0.427 0.243 0.193 0.457 0.421 0.711 0.602 0.219 0.156 0.438 0.319 0.646 0.49 0.101 0.083 0.195 0.178 0.304 0.251 0.065 0.044 0.144 0.072 0.206 0.118 0.072 0.053 0.127 0.123 0.192 0.182 0.058 0.055 0.119 0.086 0.185 0.13 0.025 0.018 0.064 0.054 0.090 0.036-0.028-0.178-0.186-0.312-0.213-0.496-0.011-0.075 0.015-0.159-0.004-0.232z"></path>
<path d="M12.416 15.051c-0.059-0.021-0.156 0.050-0.214 0.070-0.059 0.018-0.112 0.051-0.17 0.075-0.044 0.018-0.081 0.018-0.123 0.028-0.040 0.011-0.077 0.039-0.108 0.059-0.043 0.032-0.048 0.087-0.073 0.134-0.018 0.032-0.044 0.064-0.061 0.099-0.029 0.054-0.034 0.116-0.062 0.171-0.028 0.054-0.058 0.105-0.072 0.164-0.012 0.053-0.017 0.108-0.028 0.161-0.018 0.086-0.033 0.153-0.034 0.242-0.001 0.073-0.019 0.145-0.022 0.218-0.004 0.131-0.014 0.284 0.012 0.414 0.014 0.069 0.041 0.13 0.068 0.192 0.033 0.077 0.054 0.082 0.075-0.014 0.014-0.064 0.025-0.107 0.025-0.174 0-0.021-0.005-0.047-0.001-0.067 0.005-0.032 0.025-0.051 0.036-0.081 0.053-0.148 0.115-0.291 0.167-0.44 0.055-0.156 0.109-0.313 0.181-0.464 0.050-0.102 0.116-0.196 0.166-0.298 0.032-0.062 0.051-0.131 0.079-0.195 0.004-0.007 0.010-0.025 0.018-0.044l-0.133 0.752c0.046-0.208 0.091-0.418 0.139-0.627 0.014-0.064 0.029-0.127 0.050-0.188-0.011 0.004-0.023 0.011-0.034 0.014 0.014-0.025 0.029-0.044 0.045-0.047 0-0.001 0-0.003 0.001-0.004 0.021-0.053 0.054-0.105 0.073-0.152z"></path>
</svg>
