<!-- Generated by IcoMoon.io -->
<svg version="1.1" xmlns="http://www.w3.org/2000/svg" width="33" height="32" viewBox="0 0 33 32">
<title>the_circle_undone</title>
<path d="M27.964 20.969c-1.719 1.117-4.423-0.525-5.882-1.428-0.915-0.568-1.692-1.285-2.406-2.069 0.468-0.267 0.938-0.532 1.412-0.786 1.177-0.63 2.737-0.993 4.072-0.94 0.493 0.020 1.241-0.029 1.678 0.209 0.013 0.008 0.024 0.017 0.037 0.025 0.179 0.049 0.352 0.12 0.511 0.211 0.365 0.211 0.647 0.516 0.863 0.876 0.114 0.191 0.189 0.395 0.259 0.602 0.016 0.008 0.031 0.018 0.047 0.026 0.43 1.171 0.43 2.611-0.591 3.274zM30.512 19.926c-0.145-1.974-1.249-4.054-2.746-5.316-0.114-0.097-0.244-0.174-0.372-0.215-0.114-0.086-0.231-0.165-0.358-0.224-0.214-0.098-0.456-0.172-0.695-0.237-0.709-0.285-1.516-0.317-2.272-0.348-1.959-0.079-3.709 0.705-5.386 1.603 0.127 0.631-0.009 1.243-0.926 1.854-0.535 0.267-0.357 0.851-0.030 1.517 0.29-0.154 0.578-0.312 0.865-0.474 0.917 1.067 1.907 2.090 3.032 2.9 1.611 1.159 3.797 2.372 5.832 2.506 2.133 0.141 3.2-1.606 3.056-3.566z"></path>
<path d="M8.792 16.647c-1.142 0.199-2.276 0.232-3.271-0.471-0.983-0.695-1.639-1.801-1.437-3.002 0.226-1.341 0.698-2.041 2.037-2.405 1.312-0.356 2.379-0.37 3.693 0.046 1.893 0.599 3.172 1.696 4.558 2.972-1.691 1.278-3.43 2.485-5.58 2.86zM15.275 14.58c0.818-0.737 0.864-1.362 0.647-1.968-0.189 0.14-0.376 0.281-0.563 0.422-1.601-1.519-3.187-3.058-5.304-3.817-2.095-0.751-4.23-1.105-6.318-0.092-1.516 0.736-1.969 3.195-1.404 4.659 0.721 1.866 2.297 3.724 4.163 4.516 1.888 0.801 4.116 0.487 5.95-0.362 1.084-0.502 2.069-1.152 3.019-1.852-0.42-0.611-0.681-1.163-0.191-1.505z"></path>
<path d="M15.899 18.555c0.124 0.041 0.171 0.14 0.26 0.235 0.336 0.357 0.714 0.089 0.982-0.221-0.094-0.118-0.188-0.237-0.28-0.356 0 0 0 0 0 0-0.006-0.015-0.018-0.028-0.036-0.041-0.001-0.004-0.004-0.009-0.006-0.014-0.024-0.030-0.048-0.061-0.072-0.092-0.028-0.030-0.056-0.058-0.072-0.074-0.121-0.124-0.243-0.18-0.409-0.191-0.168-0.011-0.335 0.035-0.482 0.117-0.089 0.049-0.179 0.106-0.26 0.171 0.010 0.046 0.023 0.091 0.035 0.137 0.121 0.1 0.23 0.216 0.339 0.327z"></path>
<path d="M16.586 14.865c-0.127-0.030-0.183-0.124-0.28-0.211-0.367-0.326-0.719-0.025-0.959 0.306 0.105 0.109 0.208 0.22 0.311 0.33 0 0 0 0 0-0 0.008 0.014 0.020 0.027 0.039 0.038 0.001 0.004 0.005 0.009 0.007 0.013 0.027 0.028 0.053 0.057 0.080 0.085 0.030 0.028 0.061 0.053 0.077 0.067 0.132 0.113 0.258 0.158 0.424 0.154 0.168-0.004 0.331-0.064 0.471-0.158 0.084-0.057 0.169-0.121 0.243-0.194-0.014-0.045-0.031-0.089-0.047-0.133-0.129-0.089-0.248-0.195-0.366-0.297z"></path>
<path d="M18.227 16.141c-0.003-0.061 0.033-0.098 0.060-0.152 0.101-0.207-0.079-0.327-0.259-0.394-0.036 0.061-0.073 0.121-0.11 0.182h0c-0.006 0.005-0.009 0.012-0.012 0.022-0.001 0.001-0.004 0.004-0.005 0.005-0.009 0.015-0.019 0.031-0.029 0.046-0.009 0.017-0.016 0.034-0.021 0.044-0.034 0.074-0.038 0.136-0.015 0.21 0.023 0.075 0.071 0.141 0.131 0.192 0.036 0.030 0.076 0.061 0.118 0.085 0.018-0.012 0.036-0.025 0.054-0.038 0.024-0.069 0.057-0.136 0.087-0.202z"></path>
<path d="M15.604 17.561c-0.003-0.061 0.033-0.098 0.060-0.152 0.101-0.206-0.079-0.327-0.259-0.393-0.036 0.061-0.073 0.121-0.11 0.181h0c-0.005 0.005-0.009 0.012-0.012 0.022-0.001 0.001-0.004 0.004-0.005 0.005-0.010 0.015-0.019 0.031-0.028 0.047-0.009 0.017-0.016 0.034-0.020 0.044-0.035 0.074-0.039 0.136-0.016 0.21s0.071 0.14 0.131 0.191c0.036 0.030 0.076 0.061 0.118 0.085 0.018-0.012 0.036-0.025 0.054-0.038 0.024-0.069 0.057-0.136 0.087-0.202z"></path>
<path d="M14.163 19.23c0.058 0.018 0.081 0.065 0.123 0.109 0.159 0.165 0.334 0.038 0.459-0.108-0.045-0.055-0.089-0.11-0.133-0.165h-0c-0.002-0.006-0.008-0.013-0.017-0.018 0-0.002-0.002-0.005-0.003-0.006-0.011-0.015-0.023-0.029-0.033-0.043-0.014-0.014-0.027-0.027-0.034-0.034-0.057-0.057-0.114-0.083-0.192-0.087-0.079-0.004-0.157 0.018-0.225 0.057-0.042 0.023-0.083 0.050-0.121 0.081 0.005 0.021 0.011 0.042 0.017 0.064 0.057 0.046 0.109 0.1 0.16 0.151z"></path>
<path d="M16.737 13.293c-0.125 0.034-0.22-0.023-0.346-0.053-0.478-0.112-0.645 0.32-0.698 0.726 0.143 0.046 0.287 0.094 0.43 0.142v0c0.013 0.009 0.030 0.013 0.052 0.014 0.002 0.002 0.008 0.006 0.012 0.008 0.037 0.013 0.074 0.025 0.111 0.038 0.039 0.010 0.078 0.017 0.1 0.022 0.193 0.041 0.338 0.010 0.506-0.104 0.112-0.075 0.201-0.18 0.264-0.299 0.049-0.092 0.097-0.193 0.131-0.297-0.032-0.045-0.046-0.064-0.077-0.109-0.163-0.015-0.326-0.054-0.484-0.089z"></path>
<path d="M17.523 12.702c-0.054-0.114-0.294-0.107-0.503-0.149-0.789-0.16 0.064-0.75 0.977-1.243 0.268 0.033 0.538 0.066 0.81 0.097l-0.001 0.001c0.035-0.002 0.065 0.002 0.090 0.015 0.011-0.002 0.022-0.002 0.034-0.002 0.069 0.008 0.14 0.015 0.209 0.024 0.066 0.013 0.127 0.028 0.162 0.036 0.285 0.063 0.377 0.174 0.319 0.372-0.057 0.195-0.259 0.404-0.552 0.631-0.149 0.116-0.315 0.237-0.494 0.353-0.116 0.017-0.228 0.030-0.342 0.045-0.209-0.075-0.466-0.126-0.711-0.18z"></path>
<path d="M16.93 17.233c0.020-0.038 0.142 0 0.255-0.028 0.457-0.116 0.772-1.868-0.609-0.494-0.139-0.001-0.279-0.004-0.421-0.006 0 0 0 0 0.001 0-0.018-0.002-0.035-0.002-0.047 0-0.005-0-0.012-0.002-0.018-0.002-0.036-0-0.073-0.001-0.109-0.002-0.034 0.001-0.065 0.004-0.083 0.005-0.146 0.008-0.186 0.043-0.14 0.118 0.045 0.072 0.167 0.157 0.338 0.254 0.091 0.051 0.191 0.104 0.3 0.157 0.058 0.009 0.113 0.018 0.171 0.027 0.105-0.015 0.237-0.021 0.362-0.029z"></path>
<path d="M20.158 10.902c-0.031 0-0.048-0.089-0.105-0.15-0.23-0.246-1.436 0.159-0.1 0.551 0.047 0.088 0.094 0.176 0.14 0.266 0-0 0-0 0-0 0.005 0.012 0.011 0.022 0.016 0.029 0.001 0.004 0.004 0.008 0.005 0.012 0.012 0.023 0.024 0.046 0.036 0.069 0.012 0.021 0.025 0.039 0.031 0.050 0.056 0.088 0.091 0.101 0.122 0.047 0.030-0.053 0.041-0.158 0.042-0.3 0-0.069 0-0.145-0.004-0.224-0.014-0.041-0.035-0.102-0.048-0.142-0.045-0.060-0.091-0.136-0.136-0.209z"></path>
<path d="M15.062 18.335c-0.031 0-0.048-0.090-0.105-0.15-0.23-0.246-1.436 0.159-0.1 0.551 0.047 0.088 0.094 0.176 0.14 0.265v0c0.005 0.012 0.010 0.022 0.016 0.029 0.001 0.004 0.004 0.008 0.005 0.012 0.012 0.023 0.024 0.046 0.036 0.069 0.013 0.020 0.025 0.039 0.031 0.050 0.056 0.089 0.091 0.102 0.122 0.048s0.041-0.158 0.042-0.3c0-0.069 0-0.145-0.004-0.225-0.014-0.041-0.035-0.102-0.049-0.142-0.044-0.060-0.091-0.136-0.136-0.209z"></path>
</svg>
