<!-- Generated by IcoMoon.io -->
<svg version="1.1" xmlns="http://www.w3.org/2000/svg" width="32" height="32" viewBox="0 0 32 32">
<title>the_afternoon_war</title>
<path d="M12.649 30.948c-0.151-0.038-0.403-0.135-0.56-0.216-0.164-0.084-0.376-0.146-0.497-0.146-0.421 0-1.649-0.499-2.015-0.818-0.199-0.174-1.871-1.012-2.251-1.129-0.146-0.045-0.356-0.149-0.466-0.232s-0.318-0.236-0.462-0.342c-0.145-0.105-0.394-0.309-0.554-0.452s-0.317-0.26-0.348-0.26c-0.031 0-0.223-0.166-0.427-0.37s-0.444-0.434-0.532-0.513c-0.089-0.079-0.258-0.247-0.376-0.374-0.197-0.211-0.219-0.266-0.261-0.651-0.11-1-0.112-1.143-0.023-1.45 0.048-0.166 0.088-0.417 0.088-0.557 0-0.299 0.083-0.477 0.384-0.825 0.122-0.141 0.273-0.358 0.336-0.484s0.254-0.378 0.423-0.562c0.308-0.334 0.657-0.743 0.717-0.84 0.018-0.028 0.215-0.142 0.439-0.253 1.060-0.524 1.738-1.161 2.211-2.079l0.283-0.548v-1.547l-0.253-0.487c-0.139-0.268-0.271-0.548-0.294-0.624s-0.073-0.211-0.112-0.301c-0.039-0.090-0.135-0.418-0.213-0.728s-0.189-0.656-0.246-0.769c-0.116-0.228-0.093-0.499 0.080-0.931l0.092-0.229 0.391-0.002c0.219-0.001 0.512-0.044 0.665-0.096 0.234-0.080 0.277-0.116 0.292-0.251l0.018-0.158-0.195 0.121c-0.166 0.103-0.241 0.115-0.498 0.083-0.167-0.021-0.316-0.060-0.333-0.086s-0.074-0.048-0.128-0.048c-0.085 0-0.093-0.033-0.060-0.246 0.046-0.303 0.16-0.434 0.548-0.63 0.414-0.208 0.595-0.238 0.987-0.161 0.305 0.060 0.334 0.077 0.302 0.182-0.065 0.215-0.144 0.771-0.174 1.222-0.037 0.554 0.028 0.773 0.511 1.715 0.222 0.434 0.427 0.755 0.558 0.877 0.261 0.241 0.487 0.542 0.71 0.944 0.167 0.302 0.174 0.339 0.174 0.937 0 0.677 0.034 0.575-0.406 1.214-0.135 0.196-0.149 0.257-0.13 0.575 0.018 0.295 0.055 0.408 0.217 0.657 0.255 0.392 0.363 0.484 0.678 0.579 0.348 0.105 1.345 0.103 1.701-0.003 0.256-0.076 0.49-0.262 0.606-0.481 0.033-0.063 0.043 0.080 0.029 0.417-0.014 0.318 0.001 0.557 0.039 0.628 0.069 0.129 0.558 0.394 0.727 0.394 0.060 0 0.1-0.018 0.088-0.041-0.223-0.432-0.321-1.060-0.19-1.211 0.043-0.050 0.092-0.23 0.109-0.401 0.024-0.246 0.013-0.317-0.052-0.342-0.177-0.068-0.314-0.024-0.482 0.154l-0.175 0.185 0.031-0.172c0.068-0.37 0.552-0.841 0.552-0.536 0 0.056 0.043 0.14 0.096 0.188 0.089 0.080 0.106 0.077 0.221-0.042 0.217-0.225 0.797-0.459 1.232-0.496 0.369-0.032 1.513 0.042 1.867 0.12 0.153 0.034 0.156 0.030 0.12-0.151-0.12-0.603-0.228-0.651-1.47-0.651h-0.943l-0.274 0.186c-0.151 0.102-0.33 0.203-0.398 0.223-0.121 0.036-0.123 0.028-0.124-0.419-0.001-0.442-0.008-0.468-0.246-0.863-0.135-0.224-0.286-0.52-0.335-0.657s-0.15-0.386-0.224-0.552c-0.108-0.245-0.618-1.729-0.619-1.8-0-0.049 0.443 0.049 0.74 0.164 0.309 0.12 0.402 0.128 1.561 0.129 0.935 0.001 1.365-0.022 1.781-0.095 1.734-0.305 2.026-0.422 2.749-1.103 0.334-0.315 0.542-0.56 0.621-0.733 0.065-0.143 0.166-0.349 0.224-0.458s0.105-0.262 0.105-0.339c0-0.077 0.062-0.311 0.137-0.52 0.11-0.306 0.137-0.482 0.137-0.909 0-0.463-0.017-0.562-0.14-0.788-0.343-0.634-0.512-0.873-0.917-1.297-0.574-0.6-0.663-0.688-0.7-0.688-0.020 0-0.105-0.105-0.19-0.233s-0.199-0.265-0.254-0.304c-0.086-0.061-0.101-0.151-0.101-0.632 0-0.626 0.102-1.109 0.289-1.371l0.122-0.171 0.032 0.521c0.042 0.674 0.218 1.071 0.597 1.342 0.207 0.148 0.27 0.164 0.649 0.164 0.415 0 0.424 0.003 0.749 0.252 0.181 0.139 0.412 0.295 0.514 0.348 0.193 0.1 1.398 1.256 1.506 1.446 0.034 0.060 0.142 0.223 0.24 0.363s0.178 0.264 0.178 0.276c0 0.046 0.33 0.508 0.409 0.574 0.046 0.038 0.084 0.095 0.084 0.127 0 0.080 0.431 0.951 0.602 1.217 0.176 0.274 0.33 0.608 0.33 0.717 0 0.046 0.099 0.315 0.219 0.598s0.219 0.574 0.219 0.647c0 0.073 0.073 0.269 0.162 0.435 0.194 0.363 0.388 0.907 0.444 1.246 0.023 0.136 0.078 0.357 0.124 0.493s0.133 0.419 0.195 0.63c0.212 0.729 0.234 0.793 0.286 0.825 0.137 0.085 0.464 1.12 0.545 1.723 0.026 0.196 0.049 1.046 0.050 1.89 0.002 1.494-0.001 1.544-0.134 1.937-0.075 0.221-0.137 0.505-0.136 0.63 0 0.216-0.226 1.065-0.331 1.241-0.027 0.045-0.232 0.44-0.455 0.877-0.865 1.692-1.259 2.443-1.351 2.575-0.052 0.075-0.112 0.19-0.132 0.254-0.049 0.158-0.451 0.518-1.457 1.308-0.136 0.106-0.333 0.263-0.438 0.348s-0.268 0.194-0.361 0.242c-0.093 0.048-0.269 0.169-0.391 0.269s-0.293 0.224-0.379 0.277c-0.086 0.053-0.268 0.17-0.404 0.26s-0.32 0.193-0.41 0.229c-0.090 0.036-0.324 0.148-0.52 0.25-0.593 0.306-0.811 0.35-2.055 0.407-1.927 0.089-6.2 0.105-6.52 0.025zM10.734 28.424c0.157-0.157 0.167-0.298 0.048-0.648-0.15-0.439 0.006-1.847 0.272-2.461 0.124-0.286 0.52-0.801 0.647-0.842 0.059-0.019 0.185-0.101 0.281-0.184 0.265-0.228 1.024-0.607 1.217-0.607 0.041 0 0.292-0.101 0.557-0.223l0.482-0.223 0.26-0.503c0.265-0.512 0.331-0.732 0.397-1.337 0.021-0.188 0.041-0.358 0.046-0.377s-0.111-0.073-0.258-0.12c-0.223-0.071-0.307-0.074-0.521-0.017-0.14 0.037-0.328 0.116-0.419 0.174s-0.288 0.167-0.438 0.241c-0.151 0.074-0.397 0.223-0.548 0.33s-0.336 0.237-0.411 0.288c-0.075 0.050-0.233 0.167-0.351 0.259s-0.392 0.29-0.609 0.441c-1.074 0.745-1.039 0.713-1.413 1.279-0.686 1.040-0.661 0.955-0.66 2.288l0.001 1.157 0.248 0.432c0.408 0.71 0.861 0.963 1.17 0.654zM22.441 26.685c0.41-0.21 0.593-0.389 0.847-0.827 0.137-0.235 0.386-0.605 0.554-0.822 0.919-1.187 1.436-2.291 1.435-3.064-0-0.479-0.036-0.555-0.545-1.159-0.721-0.856-1.138-1.148-2.085-1.461-0.653-0.216-0.709-0.225-1.205-0.201-0.286 0.014-0.787 0.056-1.112 0.094-0.449 0.052-0.666 0.053-0.899 0.006-0.509-0.102-0.817-0.082-0.916 0.060-0.097 0.139-0.112 0.513-0.029 0.731 0.052 0.138 0.072 0.145 0.288 0.11 0.127-0.020 0.404-0.059 0.615-0.087s0.568-0.076 0.794-0.108c0.447-0.064 1.409-0.021 1.52 0.067 0.038 0.030 0.069 0.103 0.069 0.161 0 0.253 1.128 1.228 1.61 1.393 0.142 0.048 0.321 0.166 0.414 0.272 0.090 0.103 0.19 0.187 0.221 0.187s0.056 0.12 0.056 0.266c0 0.204-0.038 0.321-0.163 0.507-0.090 0.133-0.164 0.259-0.164 0.282s-0.124 0.213-0.273 0.423-0.311 0.463-0.357 0.562c-0.114 0.242-0.312 0.56-0.427 0.687-0.052 0.057-0.094 0.134-0.094 0.17 0 0.152-0.292 0.623-0.574 0.929-0.325 0.351-0.56 0.476-1.010 0.536-0.497 0.066-0.443 0.193 0.133 0.316 0.582 0.124 1.020 0.114 1.3-0.030zM20.61 26.082c0.036-0.036 0.066-0.185 0.066-0.331 0-0.36 0.101-0.568 0.432-0.889 0.326-0.316 0.356-0.478 0.138-0.738-0.257-0.306-0.645-0.199-0.941 0.259-0.175 0.271-0.177 0.279-0.177 0.961 0 0.598 0.013 0.696 0.096 0.744 0.131 0.076 0.307 0.073 0.386-0.007zM17.385 22.021c0.107-0.070 0.3-0.194 0.43-0.276 0.241-0.152 0.449-0.427 0.45-0.593 0-0.139-0.113-0.362-0.202-0.396-0.043-0.016-0.144 0.018-0.225 0.078-0.304 0.221-1.222 0.382-1.573 0.276-0.362-0.11-0.684-0.153-0.684-0.093 0 0.030 0.059 0.156 0.13 0.279s0.148 0.329 0.169 0.457c0.021 0.128 0.043 0.233 0.048 0.234s0.107 0.036 0.228 0.080 0.403 0.080 0.627 0.081c0.338 0.002 0.442-0.020 0.603-0.125zM17.083 20.478c0.366-0.087 0.453-0.16 0.656-0.548 0.165-0.316 0.195-0.81 0.063-1.063-0.151-0.292-0.328-0.36-0.934-0.361-0.528-0.001-0.557 0.006-0.798 0.175-0.313 0.219-0.38 0.366-0.379 0.827 0.001 0.374 0.129 0.77 0.281 0.867 0.288 0.185 0.633 0.218 1.111 0.103zM15.114 12.7c-0.151-0.037-0.359-0.112-0.463-0.166-0.158-0.082-0.278-0.093-0.717-0.069l-0.528 0.029-0.215-0.282c-0.464-0.608-0.524-0.727-0.568-1.123-0.023-0.209-0.061-0.41-0.084-0.447s-0.062-0.305-0.087-0.595c-0.025-0.29-0.075-0.737-0.113-0.993-0.128-0.871-0.073-2.591 0.085-2.697 0.033-0.022 0.245-0.041 0.471-0.042s0.546-0.038 0.712-0.082c0.166-0.044 0.514-0.081 0.773-0.082l0.472-0.001 0.035 0.644c0.083 1.539 0.296 2.352 0.799 3.054 0.251 0.35 1.401 1.375 1.748 1.558 0.070 0.037 0.222 0.152 0.337 0.256 0.339 0.306 0.789 0.459 1.355 0.461 0.517 0.002 0.522 0.037 0.029 0.198-0.36 0.117-0.83 0.215-1.767 0.37-0.616 0.102-1.875 0.106-2.274 0.008zM12.514 5.031c0.055-0.153 0.153-0.414 0.218-0.58s0.138-0.412 0.161-0.548c0.12-0.692 0.312-1.295 0.499-1.568 0.088-0.128 0.16-0.256 0.16-0.286 0-0.101 0.818-0.817 1.066-0.934 0.202-0.095 0.351-0.117 0.804-0.117 0.532 0 1.233 0.087 1.323 0.164 0.023 0.020-0.272 0.355-0.657 0.745-0.691 0.699-0.703 0.715-0.918 1.256-0.12 0.301-0.244 0.72-0.275 0.931l-0.058 0.384-0.218 0.064c-0.56 0.166-0.955 0.295-1.231 0.403-0.166 0.065-0.453 0.173-0.638 0.24l-0.336 0.122z"></path>
</svg>
