<!-- Generated by IcoMoon.io -->
<svg version="1.1" xmlns="http://www.w3.org/2000/svg" width="32" height="32" viewBox="0 0 32 32">
<title>the_secret_name</title>
<path d="M18.326 28.089c0.022-0.004 0.045-0.008 0.066-0.012 0.040-0.082 0.013-0.183 0.013-0.27-0.004-0.224 0.018-0.444 0.042-0.667 0.093-0.886-0.040-1.723-0.301-2.576-0.314-1.024-0.779-2.235-0.602-3.326 0.061-0.37 0.203-0.733 0.23-1.108 0.022-0.344-0.011-0.651 0.052-0.992 0.071-0.386 0.187-0.764 0.247-1.151 0.054-0.359 0.032-0.765 0.021-1.13-0.011-0.372-0.217-0.669-0.308-1.020-0.078-0.308-0.086-0.573-0.092-0.886-0.007-0.335-0.053-0.66-0.224-0.95-0.121-0.203-0.194-0.405-0.241-0.649-0.053-0.279-0.031-0.564-0.078-0.847-0.017-0.096-0.063-0.344-0.024-0.433 0.054-0.121 0.173-0.093 0.266-0.020 0.153 0.121 0.176 0.488 0.217 0.665 0.025 0.105 0.22 0.921 0.403 0.561 0.088-0.174 0.078-0.454 0.038-0.64-0.015-0.069-0.022-0.184-0.056-0.246-0.052-0.1-0.18-0.114-0.221-0.202-0.086-0.18-0.007-0.62-0.003-0.829 0.001-0.19-0.025-0.169-0.102-0.315-0.061-0.118-0.118-0.348-0.142-0.482-0.019-0.113 0.057-0.3-0.007-0.404-0.082-0.131-0.261-0.064-0.387-0.072-0.157-0.008-0.276-0.084-0.439-0.082-0.21 0.001-0.183 0.049-0.287 0.191-0.1 0.138-0.263 0.32-0.404 0.428-0.238 0.181-0.571 0.41-0.861 0.479-0.369 0.089-0.744-0.064-1.117-0.061-0.131 0-0.263 0.003-0.396 0-0.255-0.004-0.199 0.040-0.297 0.244-0.045 0.093-0.15 0.18-0.174 0.282-0.032 0.13-0.008 0.294-0.007 0.431 0.001 0.318-0.135 0.475 0.015 0.797 0.026 0.056 0.107 0.099 0.13 0.158 0.038 0.093 0.014 0.205 0.014 0.303-0.001 0.191 0.014 0.282-0.079 0.437-0.213 0.358-0.021 0.848 0.004 1.251 0.034 0.553-0.138 1.229 0.039 1.754 0.047 0.142 0.148 0.255 0.184 0.403 0.031 0.121 0.013 0.251 0.011 0.375-0.003 0.29 0.029 0.589-0.015 0.876-0.043 0.273-0.155 0.541-0.208 0.812-0.056 0.284-0.028 0.619-0.017 0.906 0.008 0.246 0.106 0.444 0.184 0.68 0.079 0.237 0.056 0.458 0.056 0.713 0 0.174-0.039 0.4 0.013 0.57 0.054 0.183 0.202 0.277 0.228 0.475 0.029 0.223-0.006 0.467-0.001 0.692 0.007 0.32-0.145 0.461-0.273 0.741-0.106 0.233-0.128 0.387-0.125 0.648 0.003 0.217-0.038 0.365-0.102 0.573-0.064 0.209-0.038 0.475-0.217 0.627-0.067 0.058-0.123 0.047-0.156 0.123-0.038 0.090-0.004 0.246-0.003 0.346 0.001 0.208 0.026 0.435-0.057 0.63-0.056 0.127-0.086 0.185-0.12 0.326-0.077 0.319-0.269 0.581-0.183 0.917 0.043 0.169 0.111 0.299 0.114 0.471 0 0.061-0.071 0.040-0.064 0.121 0.006 0.060 0.149 0.193 0.191 0.246 0.107 0.138 0.123 0.164 0.118 0.355-0.006 0.216-0.032 0.277 0.198 0.28 0.255 0.004 0.386-0.1 0.56-0.28 0.092-0.095 0.301-0.391 0.472-0.274 0.095 0.063 0.102 0.258 0.16 0.358 0.099 0.164 0.22 0.117 0.401 0.116 0.153 0 0.327-0.024 0.478-0.003 0.167 0.024 0.315 0.124 0.479 0.156 0.15 0.028 0.322 0.004 0.478 0.008 0.181 0.001 0.305-0.060 0.478-0.084 0.064-0.008 0.134 0.008 0.198 0.004 0.113-0.004 0.176-0.055 0.28-0.075 0.146-0.028 0.325-0.012 0.477-0.008 0.284 0.008 0.361 0.164 0.599 0.276 0.086 0.040 0.15 0.024 0.235 0.039 0.135 0.024 0.262 0.169 0.386 0.163 0.242-0.467 0.022-1.191-0.124-1.661-0.059-0.185-0.156-0.346-0.199-0.539-0.050-0.221-0.081-0.446-0.113-0.67-0.109-0.775-0.29-1.538-0.425-2.307z"></path>
<path d="M16.652 7.379c-0.011-0.195 0.032-0.405 0.004-0.598-0.047-0.327-0.202-0.63-0.361-0.915-0.063-0.111-0.176-0.273-0.203-0.394-0.052-0.221 0.086-0.423 0.084-0.642-0.003-0.206-0.014-0.364-0.061-0.557-0.050-0.201-0.107-0.401-0.157-0.595-0.11-0.425-0.339-0.733-0.617-1.077-0.127-0.158-0.276-0.286-0.421-0.421-0.078-0.072-0.181-0.116-0.263-0.18 0.067 0.097 0.124 0.244 0.166 0.32 0.086 0.155 0.192 0.288 0.281 0.44 0.192 0.326 0.195 0.613 0.196 0.993 0.001 0.249-0.034 0.44-0.088 0.677-0.034 0.139-0.099 0.246-0.153 0.378-0.057 0.138-0.049 0.241-0.085 0.376-0.092 0.351-0.343 0.719-0.662 0.924-0.311 0.198-0.398 0.353-0.545 0.694-0.146 0.34-0.137 0.67-0.139 1.055-0.001 0.193 0.014 0.379 0.095 0.557 0.038 0.084 0.106 0.163 0.146 0.244 0.034 0.067 0.056 0.149 0.095 0.214 0.159 0.27 0.344 0.545 0.543 0.788l0.057 0.074c-0.036-0.241-0.057-0.486-0.047-0.73 0.007-0.141 0.022-0.283 0.059-0.421 0.017-0.068 0.053-0.134 0.070-0.202 0.093-0.385-0.032-1.005 0.573-1.003 0.114 0.001 0.244-0.032 0.325 0.043 0.032 0.028 0.125 0.245 0.138 0.293 0.047 0.174 0.063 0.524 0.022 0.704-0.018 0.081-0.093 0.156-0.124 0.234-0.042 0.106-0.040 0.201-0.039 0.32 0 0.11-0.029 0.255-0.003 0.361 0.022 0.092 0.109 0.174 0.082 0.276 0.038-0.24 0.29-0.217 0.463-0.337 0.042-0.028 0.148-0.11 0.177-0.139 0.056-0.056 0.066-0.085 0.116-0.16 0.199-0.305 0.362-0.635 0.36-0.996 0-0.219-0.070-0.391-0.081-0.598z"></path>
<path d="M15.399 10.704c-0.006 0-0.011-0.001-0.018-0.003 0.031 0.028 0.054 0.16 0.047 0.203 0.001-0.134 0-0.266 0-0.398 0-0.056 0.015-0.137 0.003-0.192-0.007-0.028-0.026-0.028-0.034-0.057-0.008-0.032 0.007-0.071 0.003-0.106-0.007-0.053-0.025-0.11-0.038-0.164-0.014-0.057-0.028-0.126-0.053-0.18-0.046-0.102-0.067-0.202-0.093-0.311-0.004-0.020-0.022-0.020-0.028-0.045-0.007-0.028 0-0.057-0.006-0.085-0.004-0.020-0.019-0.039-0.024-0.066-0.004-0.028 0-0.061 0-0.090 0-0.047-0.006-0.098 0.007-0.142 0.014-0.045 0.064-0.089 0.077-0.134 0.031-0.1-0.036-0.199 0.066-0.261 0.096-0.059 0.141-0.152 0.114-0.269-0.013-0.050-0.021-0.118-0.045-0.159-0.025-0.042-0.081-0.093-0.121-0.12-0.081-0.055-0.188-0.084-0.269-0.016-0.075 0.066-0.097 0.163-0.097 0.262 0.001 0.049 0.001 0.099 0 0.149 0 0.071 0.031 0.107 0.031 0.18-0.003 0.233-0.102 0.429-0.118 0.655-0.013 0.153-0.067 0.325-0.024 0.482 0.034 0.121 0.084 0.259 0.106 0.387 0.010 0.061 0.028 0.118 0.038 0.178 0.011 0.068 0.029 0.138 0.028 0.209 0 0.053 0.015 0.13 0.003 0.18-0.013 0.053-0.068 0.102-0.011 0.158 0.018 0.016 0.019 0.012 0.038 0.020 0.014 0.008 0.072 0.028 0.089 0.032 0.070 0.016 0.141-0.016 0.203-0.039 0.017-0.004 0.011-0.020 0.035-0.024 0.042-0.008 0.067 0.016 0.1-0.020 0.045-0.043 0.021-0.159-0.008-0.217z"></path>
</svg>
