<!-- Generated by IcoMoon.io -->
<svg version="1.1" xmlns="http://www.w3.org/2000/svg" width="33" height="32" viewBox="0 0 33 32">
<title>the_warning</title>
<path d="M16.883 28.967c-0.027-0.018-0.094-0.077-0.149-0.13-0.125-0.122-0.229-0.192-0.387-0.26-0.17-0.074-0.247-0.129-0.305-0.219-0.016-0.025-0.098-0.099-0.182-0.163s-0.185-0.144-0.225-0.177l-0.072-0.059-0.008-0.086c-0.005-0.047-0.012-0.103-0.016-0.123l-0.007-0.038-0.013 0.031c-0.013 0.031-0.013 0.031-0.025-0.013-0.014-0.051-0.029-0.757-0.028-1.322 0-0.212-0.002-0.386-0.004-0.386s-0.079 0.038-0.17 0.085c-0.091 0.047-0.25 0.124-0.354 0.172s-0.28 0.137-0.391 0.198c-0.111 0.061-0.207 0.11-0.211 0.11s-0.086 0.036-0.18 0.080c-0.165 0.077-0.256 0.109-0.356 0.126-0.026 0.004-0.11 0.041-0.188 0.081-0.166 0.085-0.266 0.111-0.371 0.095-0.064-0.010-0.159-0.013-0.482-0.018-0.112-0.002-0.119-0.007-0.223-0.167-0.098-0.151-0.098-0.153 0.012-0.225 0.056-0.036 0.059-0.041 0.042-0.061s-0.016-0.023 0.013-0.043c0.032-0.021 0.071-0.031 0.332-0.089 0.181-0.040 0.244-0.066 0.647-0.266 0.193-0.096 0.394-0.188 0.446-0.205 0.203-0.065 0.299-0.105 0.396-0.168 0.055-0.036 0.17-0.102 0.255-0.147 0.192-0.101 0.323-0.185 0.6-0.385l0.216-0.156 0.007-0.116c0.004-0.064 0.010-0.173 0.014-0.242l0.007-0.126-0.104-0.070c-0.606-0.407-0.759-0.503-0.96-0.6-0.117-0.057-0.333-0.164-0.481-0.237l-0.269-0.134-0.158 0.001c-0.087 0-0.243 0.002-0.347 0.004-0.223 0.005-0.262-0.004-0.268-0.056-0.006-0.049 0.022-0.203 0.040-0.222 0.008-0.008 0.033-0.052 0.055-0.097 0.048-0.098 0.117-0.183 0.202-0.25 0.034-0.027 0.087-0.079 0.117-0.114 0.084-0.099 0.184-0.169 0.277-0.192 0.347-0.086 0.66-0.094 0.907-0.022 0.258 0.075 0.825 0.318 1.001 0.43 0.038 0.024 0.075 0.047 0.083 0.052 0.010 0.006 0.012-0.078 0.008-0.308-0.004-0.233-0.001-0.379 0.014-0.549 0.011-0.128 0.026-0.36 0.033-0.516 0.014-0.325 0.028-0.5 0.065-0.784 0.023-0.174 0.025-0.229 0.015-0.408-0.006-0.114-0.011-0.447-0.012-0.741s-0.005-0.715-0.009-0.936c-0.005-0.221-0.014-0.863-0.021-1.426s-0.016-1.144-0.020-1.291l-0.008-0.267h-0.153c-0.084 0-0.215 0.006-0.291 0.014l-0.137 0.014-0.177 0.125c-0.207 0.146-0.244 0.176-0.52 0.433-0.114 0.106-0.292 0.262-0.396 0.347s-0.285 0.24-0.402 0.344c-0.117 0.104-0.281 0.243-0.364 0.31-0.192 0.154-0.283 0.236-0.596 0.535-0.25 0.239-0.393 0.36-0.704 0.593-0.187 0.14-0.267 0.208-0.427 0.357-0.171 0.159-0.43 0.35-0.64 0.471-0.223 0.128-0.283 0.171-0.522 0.374-0.104 0.088-0.395 0.325-0.647 0.527-0.395 0.316-0.716 0.593-0.846 0.732l-0.036 0.038 0.050 0.014c0.229 0.062 0.339 0.078 0.568 0.082 0.128 0.002 0.249 0.010 0.27 0.016l0.038 0.012-0.126 0.041 0.057-0.007c0.293-0.034 0.327-0.033 0.365 0.021 0.036 0.051 0.15 0.29 0.15 0.316s-0.088 0.073-0.195 0.105c-0.041 0.012-0.086 0.029-0.1 0.038-0.024 0.016-0.217 0.067-0.282 0.075-0.017 0.002-0.074 0.010-0.126 0.017s-0.185 0.012-0.295 0.011c-0.161-0.002-0.218 0.002-0.289 0.021-0.079 0.021-0.136 0.023-0.573 0.021l-0.485-0.002-0.1 0.072-0.009 0.752c-0.005 0.414-0.010 0.758-0.010 0.765s0.004 0.143 0.009 0.301c0.008 0.245 0.006 0.313-0.013 0.448-0.026 0.187-0.019 0.18-0.199 0.199-0.063 0.007-0.138 0.018-0.165 0.025-0.097 0.024-0.183 0.011-0.21-0.030-0.005-0.008-0.009-0.029-0.009-0.048s-0.008-0.065-0.018-0.103c-0.050-0.191-0.062-0.4-0.081-1.362l-0.008-0.381-0.119 0.091c-0.066 0.050-0.201 0.157-0.301 0.237-0.313 0.25-0.518 0.383-0.873 0.562-0.157 0.080-0.204 0.11-0.283 0.185-0.12 0.114-0.239 0.198-0.355 0.252-0.181 0.084-0.318 0.142-0.367 0.156-0.112 0.032-0.394 0.064-0.572 0.064-0.123 0-0.229 0.008-0.327 0.025-0.115 0.020-0.2 0.025-0.415 0.024-0.148-0-0.29-0.006-0.315-0.012-0.067-0.017-0.136-0.068-0.298-0.222-0.088-0.083-0.172-0.176-0.209-0.231-0.083-0.123-0.195-0.348-0.23-0.457-0.095-0.304-0.12-0.502-0.11-0.891 0.007-0.279 0.018-0.349 0.074-0.474 0.017-0.037 0.034-0.090 0.039-0.117 0.006-0.035 0.024-0.064 0.061-0.099 0.029-0.027 0.074-0.070 0.1-0.095s0.072-0.082 0.102-0.127c0.094-0.142 0.26-0.278 0.36-0.295 0.038-0.006 0.054-0.018 0.075-0.053 0.024-0.041 0.030-0.044 0.073-0.038 0.026 0.004 0.079 0.019 0.119 0.034 0.063 0.024 0.072 0.031 0.072 0.061-0 0.057-0.033 0.19-0.087 0.357l-0.052 0.16 0.008 0.311c0.008 0.317 0.040 0.634 0.074 0.728 0.032 0.089 0.129 0.304 0.165 0.364 0.060 0.104 0.163 0.201 0.243 0.23 0.039 0.014 0.133 0.061 0.209 0.104l0.138 0.078 0.32-0.005c0.471-0.007 0.531-0.027 0.779-0.259 0.074-0.069 0.213-0.181 0.309-0.248s0.229-0.171 0.294-0.23c0.066-0.059 0.156-0.134 0.2-0.167s0.125-0.099 0.179-0.149c0.098-0.090 0.206-0.164 0.22-0.15 0.007 0.007 0.378-0.239 0.448-0.298l0.036-0.030-0.055-0.006c-0.030-0.003-0.31-0.005-0.623-0.005-0.424 0.001-0.567-0.003-0.563-0.014 0.012-0.032-0.025-0.056-0.1-0.063-0.089-0.008-0.147-0.043-0.213-0.127-0.054-0.069-0.058-0.119-0.014-0.183 0.026-0.038 0.028-0.047 0.013-0.060-0.029-0.024-0.021-0.051 0.048-0.17 0.045-0.077 0.103-0.15 0.185-0.233 0.135-0.136 0.223-0.188 0.335-0.197 0.058-0.005 0.073-0.001 0.099 0.023 0.024 0.023 0.031 0.041 0.031 0.090v0.061h0.072c0.040 0 0.16 0.009 0.267 0.020 0.19 0.019 0.432 0.018 0.742-0.003l0.108-0.007 0.034-0.152c0.031-0.142 0.095-0.527 0.121-0.73 0.033-0.261 0.067-0.368 0.19-0.603 0.087-0.167 0.151-0.259 0.218-0.311 0.080-0.063 0.134-0.046 0.266 0.084 0.095 0.094 0.104 0.107 0.052 0.080-0.038-0.020-0.023-0.006 0.054 0.052 0.036 0.027 0.085 0.056 0.108 0.063s0.042 0.021 0.042 0.029c0 0.008-0.026 0.040-0.057 0.071s-0.085 0.103-0.118 0.16c-0.052 0.089-0.062 0.116-0.070 0.195-0.011 0.117-0.054 0.363-0.099 0.562-0.010 0.045-0.022 0.121-0.027 0.17-0.012 0.122-0.031 0.282-0.040 0.323-0.014 0.073 0.041 0.038 0.23-0.143 0.218-0.208 0.352-0.318 0.625-0.513 0.111-0.079 0.286-0.209 0.389-0.29s0.301-0.23 0.44-0.333c0.413-0.306 0.565-0.431 1.087-0.892 0.142-0.125 0.328-0.287 0.415-0.359 0.219-0.184 1.123-0.904 1.35-1.076 0.104-0.078 0.188-0.148 0.188-0.154 0-0.025 0.104-0.146 0.2-0.231 0.128-0.114 0.22-0.179 0.434-0.307 0.093-0.056 0.249-0.164 0.345-0.241s0.266-0.201 0.377-0.276c0.111-0.075 0.212-0.149 0.226-0.164l0.025-0.028-0.232 0.007c-0.835 0.024-1.574 0.033-1.878 0.024-0.187-0.006-0.36-0.008-0.386-0.005-0.087 0.011-1.688-0.052-1.875-0.074-0.062-0.007-0.271-0.015-0.465-0.017-0.874-0.010-1.145-0.024-1.514-0.077-0.114-0.016-0.526-0.044-0.538-0.036-0.007 0.005 0.038 0.071 0.081 0.12 0.068 0.077 0.16 0.223 0.25 0.394 0.047 0.090 0.122 0.224 0.167 0.299 0.135 0.227 0.285 0.561 0.361 0.807 0.026 0.083 0.064 0.201 0.085 0.264 0.042 0.125 0.049 0.228 0.018 0.275-0.021 0.032-0.143 0.065-0.165 0.044-0.007-0.006-0.053-0.012-0.104-0.012-0.073 0-0.092 0.004-0.092 0.019 0 0.010-0.006 0.019-0.013 0.019s-0.016-0.008-0.020-0.019c-0.004-0.010-0.020-0.019-0.035-0.019-0.020 0-0.053-0.034-0.122-0.126-0.122-0.163-0.243-0.379-0.325-0.584-0.091-0.225-0.119-0.275-0.269-0.484-0.209-0.29-0.332-0.462-0.418-0.587-0.044-0.064-0.086-0.116-0.092-0.116-0.016 0-0.429 0.625-0.568 0.86-0.061 0.104-0.179 0.327-0.261 0.496-0.271 0.557-0.343 0.685-0.439 0.771-0.066 0.060-0.104 0.068-0.162 0.036-0.025-0.014-0.064-0.029-0.087-0.034-0.052-0.011-0.073-0.043-0.090-0.14-0.012-0.065-0.010-0.097 0.012-0.207 0.014-0.072 0.025-0.156 0.025-0.188s0.005-0.088 0.012-0.126c0.006-0.037 0.018-0.122 0.026-0.187 0.017-0.142 0.041-0.202 0.258-0.66 0.185-0.39 0.192-0.407 0.276-0.675l0.066-0.21h-0.102c-0.056 0-0.148-0.006-0.203-0.013-0.091-0.011-0.12-0.009-0.295 0.024-0.303 0.058-0.444 0.068-0.773 0.058l-0.291-0.009-0.138 0.039c-0.198 0.056-0.315 0.076-0.448 0.076h-0.116l-0.029-0.055c-0.021-0.039-0.039-0.057-0.063-0.062-0.041-0.008-0.051-0.041-0.055-0.167-0.002-0.081 0-0.091 0.025-0.102 0.015-0.007 0.037-0.038 0.050-0.072 0.022-0.058 0.022-0.060-0-0.077-0.013-0.009-0.033-0.017-0.045-0.017-0.085 0 0.149-0.129 0.278-0.153 0.045-0.008 0.096-0.025 0.113-0.036 0.111-0.073 0.384-0.147 0.666-0.181 0.093-0.011 0.22-0.026 0.283-0.034s0.194-0.033 0.292-0.056c0.256-0.061 0.385-0.080 0.596-0.089 0.102-0.004 0.185-0.010 0.185-0.014s-0.019-0.030-0.043-0.058c-0.024-0.029-0.054-0.072-0.067-0.095s-0.038-0.066-0.053-0.094c-0.016-0.028-0.061-0.090-0.1-0.138-0.082-0.102-0.241-0.325-0.265-0.371-0.009-0.017-0.036-0.055-0.061-0.083s-0.054-0.071-0.066-0.094c-0.011-0.023-0.044-0.090-0.072-0.149s-0.055-0.133-0.060-0.166l-0.008-0.059 0.11-0.136c0.061-0.075 0.116-0.148 0.123-0.163 0.016-0.035 0.066-0.046 0.151-0.035 0.159 0.021 0.283 0.146 0.525 0.53 0.055 0.088 0.141 0.21 0.19 0.273 0.114 0.146 0.437 0.535 0.444 0.535 0.003 0 0.038-0.049 0.078-0.11s0.188-0.274 0.33-0.474c0.269-0.382 0.348-0.512 0.49-0.807 0.118-0.246 0.213-0.398 0.347-0.554l0.036-0.042 0.094 0.034c0.106 0.038 0.334 0.149 0.367 0.179 0.012 0.011 0.022 0.030 0.022 0.042 0 0.043-0.078 0.268-0.135 0.388-0.048 0.101-0.056 0.13-0.054 0.189 0.002 0.086-0.049 0.236-0.132 0.382-0.080 0.142-0.114 0.216-0.236 0.509-0.059 0.142-0.136 0.319-0.171 0.394s-0.064 0.143-0.064 0.152c0 0.012 0.073 0.018 0.292 0.024 0.161 0.005 0.371 0.015 0.468 0.023 0.102 0.008 0.462 0.015 0.854 0.016 0.373 0.001 0.805 0.008 0.961 0.017s0.531 0.024 0.835 0.035c0.304 0.011 0.595 0.026 0.647 0.033s0.313 0.015 0.59 0.016c0.48 0.002 0.54 0.006 0.785 0.049 0.062 0.011 0.198 0.026 0.301 0.033s0.245 0.019 0.314 0.025c0.069 0.007 0.306 0.012 0.527 0.012s0.492 0.006 0.603 0.014c0.111 0.007 0.271 0.012 0.355 0.009l0.154-0.004-0.030-0.044c-0.016-0.024-0.049-0.081-0.073-0.126-0.037-0.069-0.061-0.095-0.162-0.171-0.065-0.049-0.144-0.116-0.174-0.147l-0.056-0.058 0.057-0.102-0.174-0.184c-0.096-0.101-0.218-0.221-0.273-0.266-0.378-0.317-0.492-0.425-1.089-1.037-0.278-0.285-0.445-0.491-0.566-0.695-0.128-0.216-0.171-0.272-0.65-0.848-0.127-0.153-0.274-0.323-0.326-0.378-0.116-0.123-0.3-0.353-0.398-0.496-0.295-0.431-0.425-0.581-0.919-1.058-0.098-0.095-0.222-0.229-0.275-0.298s-0.101-0.126-0.105-0.126c-0.010 0-0.064 0.167-0.114 0.352-0.040 0.149-0.162 0.5-0.202 0.579-0.012 0.025-0.038 0.092-0.057 0.151-0.043 0.135-0.052 0.152-0.143 0.273s-0.138 0.149-0.266 0.16l-0.092 0.008-0.085-0.096c-0.084-0.096-0.085-0.097-0.085-0.17 0-0.067-0.003-0.074-0.028-0.078-0.045-0.006-0.056-0.093-0.032-0.265 0.019-0.133 0.038-0.2 0.157-0.549 0.054-0.159 0.185-0.676 0.174-0.687-0.004-0.004-0.040-0.001-0.080 0.007s-0.132 0.017-0.205 0.021c-0.072 0.004-0.171 0.016-0.22 0.026-0.183 0.039-0.239 0.043-0.722 0.049-0.553 0.007-0.556 0.007-0.898-0.090-0.083-0.023-0.181-0.049-0.219-0.057-0.088-0.019-0.215-0.076-0.289-0.13-0.032-0.023-0.079-0.051-0.105-0.062-0.048-0.020-0.208-0.169-0.232-0.215-0.047-0.092-0.039-0.268 0.014-0.315 0.027-0.024 0.028-0.029 0.012-0.060-0.012-0.022-0.014-0.041-0.006-0.054 0.015-0.027 0.181-0.16 0.252-0.202l0.055-0.032 0.052 0.026c0.029 0.014 0.099 0.063 0.156 0.108 0.1 0.079 0.106 0.082 0.176 0.083 0.040 0 0.113 0.005 0.162 0.011s0.159 0.006 0.245 0.001c0.25-0.014 1.368-0.013 1.502 0.002 0.066 0.007 0.122 0.011 0.125 0.009s-0.049-0.071-0.113-0.152c-0.146-0.183-0.225-0.306-0.338-0.523-0.072-0.139-0.105-0.188-0.183-0.27-0.053-0.055-0.153-0.177-0.222-0.27s-0.168-0.215-0.218-0.27c-0.123-0.135-0.411-0.491-0.531-0.657-0.054-0.074-0.133-0.183-0.177-0.241-0.115-0.155-0.135-0.188-0.229-0.389-0.056-0.121-0.115-0.222-0.174-0.302-0.049-0.066-0.099-0.14-0.113-0.165-0.021-0.040-0.030-0.046-0.068-0.044-0.032 0.001-0.050-0.007-0.068-0.029-0.036-0.044-0.022-0.116 0.048-0.251 0.045-0.087 0.088-0.144 0.192-0.255 0.161-0.172 0.195-0.201 0.27-0.234 0.032-0.014 0.102-0.060 0.155-0.104s0.157-0.122 0.229-0.175c0.162-0.117 0.745-0.469 0.845-0.51 0.088-0.036 0.239-0.054 0.531-0.063 0.325-0.010 0.477 0.017 0.694 0.127 0.243 0.122 0.489 0.33 0.558 0.471 0.036 0.074 0.049 0.192 0.016 0.148-0.028-0.037-0.030-0.025-0.006 0.044 0.030 0.087 0.029 0.169-0.002 0.286-0.028 0.103-0.094 0.235-0.129 0.257-0.017 0.010-0.052 0.002-0.156-0.035-0.074-0.027-0.166-0.053-0.205-0.059s-0.117-0.026-0.174-0.044c-0.133-0.042-0.492-0.196-0.558-0.24-0.049-0.033-0.053-0.033-0.202-0.026-0.181 0.008-0.287 0.030-0.447 0.091-0.066 0.025-0.198 0.076-0.295 0.112-0.163 0.062-0.319 0.127-0.33 0.138-0.003 0.003 0.015 0.032 0.038 0.066s0.064 0.101 0.090 0.151c0.026 0.050 0.088 0.136 0.142 0.195 0.158 0.174 0.268 0.32 0.411 0.545 0.196 0.307 0.291 0.438 0.442 0.606 0.289 0.321 0.513 0.622 0.723 0.969 0.092 0.152 0.11 0.176 0.116 0.151 0.004-0.016 0.026-0.109 0.050-0.206 0.043-0.179 0.066-0.314 0.102-0.596 0.011-0.091 0.033-0.194 0.052-0.245 0.018-0.049 0.045-0.145 0.061-0.214 0.037-0.16 0.079-0.276 0.133-0.365l0.042-0.070 0.058 0.008c0.064 0.008 0.224 0.055 0.309 0.089l0.053 0.021-0.003 0.159c-0.002 0.087 0.004 0.235 0.013 0.329 0.021 0.216 0.023 0.658 0.005 0.829-0.008 0.072-0.023 0.251-0.034 0.396s-0.031 0.339-0.044 0.431c-0.014 0.092-0.025 0.175-0.025 0.186 0 0.022 0.004 0.021 0.255-0.054 0.102-0.031 0.23-0.064 0.283-0.074 0.127-0.025 0.345-0.025 0.486 0 0.284 0.050 0.515 0.082 0.655 0.088 0.207 0.010 0.259 0.029 0.41 0.143 0.050 0.038 0.096 0.061 0.148 0.073 0.093 0.022 0.13 0.045 0.151 0.097 0.009 0.022 0.035 0.061 0.058 0.087s0.042 0.052 0.042 0.058c0 0.018-0.094 0.154-0.151 0.219-0.047 0.054-0.057 0.059-0.108 0.059-0.031 0-0.117-0.014-0.19-0.030s-0.168-0.034-0.209-0.039c-0.041-0.005-0.096-0.014-0.122-0.020-0.034-0.009-0.069-0.006-0.132 0.009-0.047 0.011-0.15 0.023-0.23 0.027s-0.15 0.011-0.157 0.016c-0.020 0.015-0.193 0.072-0.302 0.099-0.108 0.027-0.342 0.064-0.406 0.064-0.022 0-0.039 0.005-0.039 0.010s0.025 0.043 0.056 0.083c0.031 0.040 0.161 0.22 0.289 0.401 0.268 0.379 0.284 0.399 0.633 0.811 0.144 0.17 0.373 0.451 0.509 0.625 0.212 0.271 0.277 0.344 0.451 0.509 0.397 0.375 0.566 0.56 0.829 0.911 0.092 0.123 0.204 0.271 0.247 0.328 0.146 0.193 0.476 0.556 0.944 1.037 0.249 0.256 0.387 0.416 0.488 0.566 0.035 0.051 0.11 0.143 0.168 0.204s0.14 0.159 0.184 0.218c0.065 0.087 0.29 0.336 0.315 0.349 0.004 0.002 0.007-0.53 0.007-1.181l0.001-1.184 0.034-0.22c0.031-0.203 0.033-0.246 0.031-0.553-0.003-0.289 0-0.35 0.022-0.465 0.024-0.126 0.025-0.19 0.028-1.338 0.004-1.953 0.010-2.747 0.021-2.817 0.010-0.063 0.009-0.066-0.017-0.066-0.032 0-0.055-0.045-0.079-0.155-0.015-0.069-0.021-0.077-0.098-0.137-0.045-0.035-0.119-0.097-0.165-0.137l-0.083-0.073-0.143 0.089c-0.079 0.049-0.242 0.152-0.363 0.23-0.765 0.49-1.163 0.66-1.547 0.66h-0.125l-0.032-0.072c-0.046-0.103-0.093-0.254-0.096-0.305-0.002-0.039 0.003-0.046 0.048-0.071 0.028-0.015 0.165-0.068 0.306-0.117 0.374-0.131 0.468-0.182 0.928-0.515 0.109-0.079 0.273-0.192 0.363-0.252l0.165-0.108-0.21-0.225c-0.115-0.124-0.24-0.251-0.278-0.283-0.112-0.094-0.338-0.268-0.434-0.334-0.337-0.231-0.456-0.318-0.571-0.417-0.165-0.141-0.288-0.274-0.35-0.378l-0.049-0.082 0.024-0.034c0.013-0.018 0.069-0.072 0.124-0.119l0.1-0.086-0.050-0.098 0.116-0.118c0.064-0.065 0.137-0.133 0.163-0.151l0.047-0.033 0.127 0.065c0.297 0.152 0.804 0.574 1.481 1.231 0.196 0.19 0.389 0.375 0.428 0.411l0.072 0.065 0.008-0.204c0.005-0.112 0.014-0.365 0.021-0.562 0.013-0.374 0.027-0.526 0.058-0.639 0.018-0.064 0.020-0.067 0.053-0.058 0.067 0.019 0.216-0.001 0.216-0.029 0-0.010 0.007-0.041 0.015-0.067l0.015-0.049h0.129c0.097 0 0.134 0.005 0.148 0.019 0.018 0.018 0.046 0.121 0.046 0.17 0 0.013 0.006 0.027 0.013 0.032 0.031 0.019 0.067 0.12 0.079 0.22 0.007 0.059 0.014 0.251 0.016 0.427 0.002 0.232 0.009 0.345 0.023 0.408 0.011 0.048 0.020 0.109 0.020 0.136 0.001 0.053-0.009 0.053 0.12 0.010 0.035-0.011 0.142-0.071 0.239-0.133 0.249-0.159 0.545-0.306 0.749-0.371 0.092-0.030 0.228-0.080 0.3-0.113s0.163-0.071 0.201-0.085c0.123-0.046 0.337-0.153 0.38-0.189 0.085-0.073 0.157-0.116 0.247-0.147 0.051-0.018 0.132-0.052 0.18-0.076 0.104-0.051 0.126-0.046 0.196 0.045 0.043 0.056 0.052 0.061 0.092 0.044 0.027-0.011 0.094 0.078 0.106 0.14 0.015 0.078-0.012 0.113-0.132 0.173-0.059 0.030-0.131 0.061-0.158 0.070-0.052 0.016-0.185 0.094-0.314 0.183-0.085 0.059-0.165 0.101-0.28 0.148-0.044 0.018-0.14 0.069-0.213 0.114s-0.196 0.105-0.273 0.133c-0.076 0.028-0.196 0.085-0.267 0.127s-0.218 0.121-0.327 0.177c-0.109 0.056-0.266 0.144-0.349 0.195s-0.227 0.134-0.32 0.184l-0.169 0.090-0.036 0.234 0.209 0.209c0.307 0.309 0.43 0.457 0.671 0.813 0.113 0.167 0.17 0.239 0.217 0.274 0.115 0.088 0.259 0.264 0.339 0.413 0.020 0.038 0.051 0.090 0.069 0.116 0.048 0.071 0.043 0.108-0.022 0.138-0.040 0.019-0.052 0.031-0.049 0.051 0.002 0.015-0.015 0.050-0.041 0.082-0.029 0.037-0.044 0.069-0.044 0.096-0 0.047-0.062 0.134-0.125 0.177-0.049 0.033-0.119 0.037-0.185 0.010-0.025-0.010-0.048-0.019-0.051-0.019s-0.003 0.008 0.001 0.019c0.010 0.026-0.012 0.024-0.039-0.003-0.012-0.012-0.036-0.028-0.053-0.036-0.040-0.018-0.353-0.315-0.449-0.426-0.040-0.046-0.125-0.136-0.19-0.199-0.116-0.114-0.224-0.241-0.321-0.378-0.027-0.038-0.054-0.070-0.060-0.070s-0.011 0.058-0.011 0.129c-0 0.071-0.002 0.649-0.005 1.284l-0.004 1.156 0.078 0.502 0.002 0.816c0.002 0.682 0.005 0.844 0.023 0.986 0.027 0.217 0.038 0.666 0.023 0.98-0.006 0.135-0.007 0.296-0.002 0.358 0.009 0.11 0.042 0.492 0.059 0.687l0.009 0.097 0.119-0.077c0.066-0.042 0.168-0.106 0.227-0.141 0.134-0.081 0.444-0.315 0.716-0.541 0.205-0.171 0.605-0.474 0.906-0.686 0.085-0.060 0.231-0.174 0.325-0.253 0.431-0.366 0.579-0.481 1.162-0.9 0.643-0.463 0.746-0.544 1.143-0.909 0.319-0.293 0.574-0.501 0.886-0.723 0.121-0.086 0.249-0.183 0.285-0.215s0.119-0.102 0.186-0.155c0.067-0.053 0.238-0.21 0.381-0.35 0.261-0.254 0.474-0.444 0.743-0.661 0.165-0.133 0.337-0.28 0.338-0.289 0-0.003-0.164-0.006-0.367-0.006-0.284 0-0.396 0.005-0.493 0.022-0.142 0.024-0.642 0.029-1.067 0.010-0.23-0.010-0.244-0.012-0.38-0.058-0.119-0.040-0.149-0.055-0.186-0.096l-0.044-0.049 0.008-0.109c0.014-0.189 0.023-0.201 0.371-0.513 0.196-0.175 0.281-0.245 0.404-0.329 0.086-0.059 0.102-0.066 0.141-0.058 0.026 0.005 0.041 0.014 0.036 0.022s-0 0.010 0.014 0.005c0.036-0.014 0.058 0.013 0.042 0.049-0.008 0.017-0.019 0.030-0.025 0.030s-0.008 0.005-0.005 0.011c0.004 0.006-0.008 0.024-0.026 0.041s-0.054 0.062-0.081 0.102c-0.027 0.039-0.080 0.105-0.119 0.147l-0.070 0.075 0.085-0.025c0.149-0.043 0.41-0.059 1.046-0.063 0.819-0.005 0.834-0.006 0.955-0.033l0.107-0.024-0.001-0.144c-0.001-0.126-0.006-0.159-0.040-0.263-0.050-0.153-0.074-0.247-0.091-0.364-0.007-0.052-0.028-0.161-0.046-0.244-0.031-0.14-0.032-0.157-0.018-0.267l0.014-0.117-0.081-0.072 0.043-0.072c0.141-0.233 0.432-0.478 0.633-0.533 0.045-0.012 0.058-0.010 0.144 0.031 0.052 0.025 0.107 0.056 0.123 0.071 0.031 0.029 0.058 0.112 0.079 0.239 0.019 0.121 0.050 0.58 0.050 0.745 0 0.117 0.056 0.693 0.068 0.705 0.008 0.008 0.38-0.28 0.555-0.428 0.195-0.166 0.497-0.4 0.719-0.559 0.081-0.057 0.192-0.145 0.247-0.196 0.131-0.119 0.281-0.237 0.386-0.305 0.046-0.030 0.087-0.060 0.091-0.066 0.012-0.020-0.050-0.112-0.101-0.15-0.027-0.020-0.090-0.075-0.139-0.123-0.568-0.549-0.592-0.566-0.895-0.651-0.263-0.073-0.442-0.159-0.442-0.211 0-0.036 0.126-0.288 0.184-0.366l0.045-0.061 0.061 0.008c0.051 0.007 0.062 0.005 0.068-0.014 0.011-0.033 0.094-0.054 0.219-0.054 0.087 0 0.115-0.004 0.128-0.020s0.030-0.018 0.067-0.013c0.031 0.004 0.076-0 0.113-0.012 0.034-0.010 0.075-0.019 0.092-0.019s0.072-0.030 0.125-0.069c0.052-0.038 0.125-0.083 0.163-0.101 0.092-0.043 0.226-0.072 0.259-0.054 0.019 0.010 0.028 0.008 0.040-0.009 0.014-0.020 0.018-0.018 0.044 0.018 0.016 0.022 0.060 0.055 0.099 0.075 0.050 0.025 0.071 0.042 0.071 0.059 0 0.015 0.009 0.024 0.023 0.024 0.035 0 0.046 0.032 0.064 0.185 0.012 0.106 0.026 0.164 0.057 0.233 0.022 0.050 0.059 0.149 0.082 0.22 0.057 0.172 0.067 0.195 0.172 0.382 0.050 0.088 0.129 0.246 0.177 0.349s0.101 0.214 0.12 0.245c0.018 0.031 0.043 0.082 0.054 0.113l0.021 0.056-0.165 0.053c-0.091 0.029-0.172 0.051-0.181 0.048-0.016-0.006-0.141 0.079-0.141 0.096 0 0.005-0.061 0.055-0.135 0.112-0.094 0.072-0.267 0.237-0.568 0.543-0.238 0.242-0.542 0.536-0.676 0.653s-0.24 0.216-0.237 0.219c0.003 0.003 0.047-0 0.098-0.007s0.174-0.022 0.274-0.033c0.1-0.011 0.23-0.032 0.289-0.047 0.153-0.038 0.507-0.034 0.482 0.005-0.005 0.008 0.002 0.009 0.022 0.002 0.086-0.031 0.427 0.006 0.526 0.057 0.038 0.019 0.044 0.029 0.043 0.065-0.001 0.023-0.025 0.093-0.055 0.155s-0.055 0.118-0.056 0.125c-0.006 0.030-0.098 0.158-0.123 0.171-0.018 0.009-0.059 0.012-0.116 0.007-0.049-0.004-0.114-0.002-0.145 0.005s-0.144 0.029-0.252 0.049c-0.107 0.020-0.28 0.056-0.383 0.080-0.41 0.096-0.617 0.127-0.973 0.146-0.128 0.007-0.256 0.013-0.285 0.013h-0.052l0.007 0.072c0.004 0.040 0.018 0.12 0.031 0.179s0.027 0.155 0.031 0.213c0.004 0.059 0.021 0.168 0.038 0.244 0.023 0.101 0.031 0.167 0.029 0.251-0.001 0.063-0.001 0.189 0 0.28 0.002 0.143-0.001 0.172-0.022 0.213-0.029 0.057-0.054 0.081-0.122 0.115-0.052 0.026-0.138 0.103-0.361 0.325-0.14 0.14-0.168 0.153-0.283 0.138-0.069-0.009-0.091-0.031-0.127-0.127-0.056-0.149-0.132-0.82-0.143-1.259l-0.003-0.116-0.085 0.057c-0.047 0.031-0.137 0.088-0.201 0.127-0.085 0.051-0.159 0.111-0.273 0.223-0.271 0.265-0.383 0.365-0.612 0.549-0.313 0.251-0.363 0.295-0.681 0.595-0.312 0.295-0.405 0.377-0.647 0.571-0.256 0.206-0.512 0.422-0.708 0.598-0.473 0.426-1.068 0.862-1.769 1.297-0.122 0.076-0.294 0.197-0.396 0.28-0.231 0.187-0.527 0.411-0.663 0.5-0.186 0.122-0.417 0.294-0.654 0.484-0.052 0.041-0.178 0.133-0.282 0.204-0.181 0.124-0.285 0.212-0.733 0.625l-0.177 0.163 0.006 0.151 0.17 0.015c0.093 0.008 0.288 0.021 0.433 0.029 0.402 0.021 0.584 0.055 0.584 0.107 0 0.039 0.497 0.022 0.992-0.033 0.4-0.044 0.444-0.048 0.678-0.062 0.301-0.018 0.549-0.040 1.262-0.113 0.493-0.050 0.614-0.064 1.030-0.119 0.291-0.038 0.553-0.064 0.823-0.081 0.218-0.014 0.418-0.028 0.446-0.032 0.145-0.019 0.57-0.046 0.891-0.057 0.368-0.012 0.465-0.023 0.837-0.087 0.114-0.020 0.295-0.045 0.402-0.056 0.238-0.025 0.484-0.052 0.685-0.075 0.083-0.010 0.219-0.021 0.301-0.026 0.181-0.010 0.287-0.023 0.498-0.063 0.087-0.017 0.282-0.050 0.433-0.075 0.243-0.040 0.606-0.113 0.618-0.126 0.011-0.011-0.024-0.041-0.207-0.177-0.244-0.182-0.411-0.341-0.569-0.544-0.196-0.251-0.319-0.449-0.466-0.748-0.165-0.336-0.215-0.455-0.252-0.603-0.043-0.169-0.040-0.42 0.004-0.421 0.043-0.001 0.051-0.020 0.034-0.089-0.015-0.064-0.015-0.067 0.014-0.091 0.042-0.035 0.266-0.14 0.382-0.179l0.097-0.033 0.075 0.073c0.147 0.144 0.325 0.452 0.475 0.821 0.098 0.241 0.14 0.295 0.37 0.475 0.176 0.137 0.39 0.317 0.586 0.492l0.154 0.137 0.087-0.166c0.3-0.573 0.575-1.012 0.8-1.276 0.069-0.081 0.224-0.208 0.298-0.244l0.054-0.026 0.104 0.072c0.057 0.039 0.126 0.091 0.154 0.114l0.050 0.043-0.023 0.073c-0.028 0.090-0.093 0.214-0.203 0.383-0.088 0.136-0.205 0.365-0.269 0.528-0.073 0.185-0.27 0.563-0.432 0.826-0.038 0.062-0.054 0.099-0.046 0.108 0.006 0.008 0.035 0.024 0.063 0.037 0.050 0.023 0.053 0.023 0.141-0.003 0.050-0.014 0.147-0.033 0.216-0.041s0.161-0.023 0.204-0.033c0.043-0.010 0.084-0.015 0.090-0.011 0.027 0.017 0.121 0.355 0.135 0.484l0.008 0.076-0.040 0.008c-0.022 0.004-0.042 0.012-0.045 0.017s0.058 0.065 0.135 0.133c0.249 0.22 0.399 0.378 0.495 0.52 0.044 0.066 0.173 0.311 0.224 0.425 0.031 0.071 0.033 0.081 0.016 0.091-0.017 0.009-0.019 0.028-0.013 0.11 0.005 0.080 0.002 0.114-0.021 0.181-0.015 0.045-0.038 0.092-0.052 0.104s-0.025 0.019-0.025 0.015c0-0.004-0.041 0.004-0.091 0.017-0.101 0.026-0.199 0.031-0.236 0.011-0.017-0.009-0.032-0.009-0.049 0-0.021 0.011-0.033 0.004-0.084-0.053-0.12-0.133-0.342-0.348-0.392-0.38-0.028-0.018-0.143-0.085-0.255-0.15-0.406-0.233-0.467-0.272-0.687-0.437-0.072-0.054-0.132-0.097-0.134-0.095s-0.035 0.113-0.074 0.248c-0.128 0.442-0.218 0.687-0.364 0.999-0.033 0.069-0.084 0.188-0.115 0.264-0.057 0.139-0.172 0.379-0.194 0.401-0.006 0.007-0.012 0.031-0.012 0.054s-0.006 0.067-0.014 0.096l-0.014 0.054-0.247 0.006c-0.16 0.004-0.253 0.002-0.263-0.007-0.009-0.007-0.048-0.017-0.086-0.023s-0.076-0.015-0.083-0.023c-0.023-0.023-0.014-0.134 0.015-0.183 0.015-0.025 0.027-0.058 0.027-0.074 0-0.061 0.051-0.223 0.107-0.341 0.032-0.068 0.098-0.242 0.147-0.388s0.1-0.288 0.114-0.315c0.045-0.089 0.244-0.643 0.233-0.652-0.002-0.002-0.055 0.006-0.118 0.019s-0.215 0.035-0.339 0.049c-0.124 0.014-0.345 0.046-0.49 0.069s-0.357 0.049-0.471 0.057c-0.212 0.014-0.377 0.033-0.653 0.076-0.086 0.013-0.267 0.036-0.402 0.051s-0.338 0.043-0.452 0.063c-0.314 0.055-0.467 0.072-0.81 0.094-0.173 0.011-0.427 0.031-0.565 0.044s-0.37 0.030-0.515 0.037c-0.443 0.022-0.675 0.038-0.742 0.051-0.075 0.015-0.154 0.023-0.713 0.074-0.233 0.021-0.541 0.053-0.684 0.070-0.316 0.039-0.665 0.065-1.009 0.075-0.412 0.012-0.713 0.031-0.809 0.049-0.237 0.046-0.323 0.051-0.815 0.047-0.268-0.002-0.487-0.001-0.487 0.002 0 0.017 0.229 0.192 0.44 0.335 0.133 0.090 0.319 0.222 0.413 0.292s0.211 0.156 0.259 0.19c0.101 0.071 0.265 0.217 0.509 0.451 0.093 0.090 0.249 0.226 0.345 0.303s0.216 0.177 0.266 0.223c0.139 0.128 0.265 0.224 0.381 0.291 0.195 0.113 0.456 0.292 0.653 0.448 0.107 0.085 0.285 0.225 0.396 0.311 0.294 0.23 0.52 0.43 0.691 0.613 0.328 0.351 0.749 0.769 1.175 1.167 0.423 0.395 0.542 0.519 0.684 0.709 0.034 0.045 0.161 0.183 0.283 0.308 0.172 0.175 0.253 0.269 0.357 0.415 0.095 0.133 0.183 0.237 0.3 0.355 0.091 0.092 0.169 0.166 0.175 0.166s0.010-0.015 0.010-0.032c0-0.066 0.078-0.582 0.107-0.709 0.034-0.15 0.108-0.395 0.131-0.439 0.009-0.016 0.021-0.070 0.026-0.119 0.015-0.133 0.028-0.154 0.105-0.169 0.199-0.040 0.413-0.051 0.431-0.022 0.006 0.009 0.036 0.024 0.068 0.033 0.069 0.019 0.143 0.088 0.162 0.152 0.028 0.093 0.028 0.383 0 0.648s-0.045 0.351-0.094 0.475c-0.028 0.071-0.056 0.2-0.101 0.471-0.011 0.066-0.023 0.132-0.027 0.148l-0.007 0.028h0.241c0.268 0 0.388-0.014 0.491-0.057 0.137-0.057 0.412-0.112 0.617-0.124 0.053-0.003 0.113-0.014 0.134-0.025 0.051-0.026 0.138-0.025 0.247 0.003 0.111 0.029 0.144 0.047 0.144 0.078 0 0.019 0.009 0.025 0.035 0.025 0.029 0 0.047 0.016 0.099 0.085 0.080 0.106 0.154 0.229 0.154 0.256 0 0.032-0.090 0.106-0.19 0.156-0.154 0.077-0.428 0.16-0.759 0.228-0.021 0.004-0.041 0.013-0.045 0.019-0.008 0.013-0.419 0.163-0.546 0.2-0.048 0.014-0.096 0.028-0.105 0.031-0.011 0.004 0.036 0.061 0.132 0.159 0.082 0.085 0.232 0.253 0.333 0.374 0.195 0.233 0.275 0.318 0.43 0.456l0.096 0.086 0.093-0.083c0.070-0.063 0.13-0.137 0.241-0.299 0.081-0.119 0.188-0.27 0.238-0.335s0.132-0.176 0.184-0.245c0.052-0.069 0.159-0.227 0.238-0.35 0.232-0.362 0.471-0.647 0.565-0.674 0.024-0.007 0.082-0.012 0.128-0.012 0.079 0 0.088 0.003 0.131 0.042 0.041 0.038 0.047 0.050 0.052 0.119l0.006 0.077 0.085-0.128c0.047-0.071 0.096-0.139 0.11-0.151 0.025-0.022 0.028-0.022 0.105 0.017 0.107 0.054 0.149 0.085 0.149 0.11-0 0.037-0.116 0.25-0.201 0.369-0.045 0.063-0.166 0.206-0.27 0.316-0.182 0.194-0.586 0.64-0.742 0.819-0.096 0.111-0.358 0.444-0.502 0.64-0.061 0.083-0.135 0.179-0.164 0.213-0.047 0.056-0.108 0.166-0.111 0.201-0.001 0.007-0.024 0.034-0.052 0.059l-0.051 0.046-0.040-0.025c-0.055-0.034-0.059-0.031-0.029 0.019l0.025 0.043-0.092-0.005c-0.142-0.008-0.196-0.031-0.408-0.178-0.122-0.084-0.193-0.174-0.215-0.276-0.012-0.051-0.023-0.069-0.054-0.087-0.19-0.109-0.312-0.206-0.498-0.395-0.157-0.16-0.22-0.215-0.327-0.283-0.073-0.047-0.17-0.11-0.217-0.141s-0.087-0.055-0.089-0.052c-0.002 0.003-0.016 0.104-0.032 0.225-0.020 0.152-0.032 0.334-0.039 0.59-0.006 0.204-0.015 0.447-0.019 0.54-0.006 0.125-0.003 0.213 0.012 0.335 0.022 0.177 0.027 0.425 0.010 0.436-0.006 0.004-0.018-0.009-0.027-0.027-0.017-0.034-0.017-0.034-0.022-0.005-0.003 0.016 0.002 0.037 0.010 0.047 0.044 0.053-0.075 0.197-0.22 0.269-0.080 0.039-0.084 0.040-0.107 0.019-0.026-0.024-0.034-0.008-0.009 0.017 0.030 0.030-0.016 0.016-0.069-0.021-0.076-0.053-0.155-0.138-0.177-0.191-0.027-0.064-0.053-0.252-0.076-0.551-0.011-0.142-0.028-0.306-0.038-0.364-0.035-0.206-0.041-0.338-0.039-0.952l0.002-0.619-0.276 0c-0.176 0-0.381 0.009-0.565 0.026-0.234 0.021-0.519 0.034-0.889 0.040-0.019 0-0.029 0.005-0.020 0.010 0.016 0.010-0.058 0.036-0.208 0.073-0.073 0.018-0.168 0.027-0.352 0.033-0.138 0.005-0.277 0.014-0.308 0.021s-0.111 0.012-0.177 0.012c-0.216-0.001-0.344-0.064-0.45-0.221-0.075-0.11-0.082-0.182-0.026-0.242l0.026-0.028-0.038-0.013c-0.033-0.012-0.038-0.020-0.038-0.057 0-0.047 0.044-0.233 0.064-0.27 0.024-0.045 0.234-0.090 0.489-0.105 0.147-0.008 0.468-0.047 0.622-0.075 0.218-0.040 0.435-0.058 0.917-0.077 0.276-0.011 0.565-0.023 0.641-0.028l0.138-0.008-0.142-0.154c-0.078-0.085-0.18-0.186-0.225-0.226-0.222-0.193-0.436-0.398-0.851-0.814-0.302-0.303-0.504-0.495-0.609-0.578-0.395-0.313-0.631-0.521-0.874-0.77-0.299-0.306-0.253-0.26-0.734-0.735-0.441-0.434-0.498-0.487-0.772-0.702-0.215-0.169-0.414-0.337-0.654-0.549-0.082-0.073-0.228-0.202-0.325-0.288s-0.279-0.25-0.403-0.366c-0.124-0.115-0.275-0.252-0.334-0.303s-0.189-0.169-0.289-0.261c-0.1-0.093-0.269-0.233-0.376-0.313-0.267-0.198-0.417-0.323-0.656-0.544-0.282-0.26-0.476-0.416-0.495-0.396-0.014 0.014 0.021 1.94 0.039 2.144 0.044 0.494 0.047 0.601 0.046 1.627-0.001 0.756 0.003 1.167 0.018 1.545 0.013 0.323 0.019 0.707 0.016 1.030-0.004 0.49-0.003 0.521 0.023 0.634 0.032 0.143 0.055 0.379 0.054 0.581l-0 0.147 0.070 0.055c0.13 0.102 0.092 0.114 0.396-0.127 0.279-0.221 0.557-0.414 0.708-0.49 0.102-0.052 0.228-0.143 0.355-0.259 0.123-0.112 0.22-0.176 0.388-0.255 0.202-0.095 0.197-0.095 0.268-0.024l0.060 0.059 0.054-0.039c0.048-0.035 0.063-0.039 0.145-0.039 0.078 0 0.097 0.004 0.127 0.030 0.034 0.029 0.035 0.032 0.021 0.097-0.011 0.055-0.010 0.072 0.005 0.095 0.017 0.026 0.016 0.032-0.020 0.077-0.044 0.055-0.111 0.113-0.316 0.272-0.079 0.062-0.232 0.197-0.339 0.301-0.27 0.262-0.44 0.397-0.826 0.654-0.092 0.061-0.166 0.114-0.166 0.119s0.018 0.018 0.041 0.031c0.066 0.038 0.636 0.407 0.725 0.47 0.115 0.080 0.252 0.193 0.377 0.308 0.059 0.054 0.141 0.125 0.182 0.156s0.126 0.1 0.188 0.153c0.062 0.053 0.167 0.135 0.232 0.184 0.133 0.098 0.226 0.195 0.27 0.28 0.016 0.031 0.047 0.068 0.069 0.082 0.055 0.035 0.139 0.15 0.159 0.217s0.022 0.191 0.004 0.257c-0.044 0.16-0.25 0.244-0.76 0.31-0.587 0.077-0.814 0.037-1.065-0.188-0.054-0.048-0.157-0.128-0.229-0.177-0.193-0.131-0.264-0.195-0.417-0.373-0.123-0.143-0.38-0.386-0.614-0.581l-0.079-0.065-0 0.054c-0 0.097-0.025 0.227-0.063 0.339-0.038 0.11-0.038 0.11-0.018 0.183 0.030 0.107 0.038 0.433 0.015 0.566l-0.018 0.104 0.042 0.079c0.054 0.101 0.077 0.191 0.088 0.344 0.008 0.112 0.013 0.13 0.056 0.205 0.057 0.098 0.095 0.206 0.114 0.329 0.008 0.050 0.033 0.172 0.057 0.27s0.053 0.248 0.067 0.333c0.014 0.085 0.033 0.186 0.044 0.224s0.019 0.086 0.019 0.107c0 0.021 0.011 0.066 0.024 0.101s0.026 0.102 0.028 0.151c0.004 0.081 0.003 0.088-0.022 0.092-0.014 0.002-0.048 0.026-0.075 0.053s-0.055 0.050-0.063 0.050c-0.008 0-0.037-0.015-0.063-0.033zM16.815 28.585c0-0.007-0.006-0.013-0.013-0.013s-0.010 0.006-0.006 0.013c0.004 0.007 0.010 0.013 0.013 0.013s0.006-0.006 0.006-0.013zM25.344 26.344c0-0.023-0.021-0.036-0.038-0.025-0.009 0.006-0.009 0.014 0.002 0.026 0.019 0.023 0.037 0.023 0.037-0zM4.844 13.35c0-0.006 0.015-0.024 0.034-0.041l0.034-0.030-0.028 0.041c-0.028 0.041-0.039 0.049-0.039 0.030z"></path>
</svg>
