<!-- Generated by IcoMoon.io -->
<svg version="1.1" xmlns="http://www.w3.org/2000/svg" width="32" height="32" viewBox="0 0 32 32">
<title>the_wages_of_sin</title>
<path d="M16.912 6.845c0-0.014 0-0.028 0-0.040 0.007 0.024-0.001 0.048-0.007 0.074-0.024 0.108-0.107 0.259-0.161 0.35-0.189 0.324-0.492 0.57-0.715 0.869-0.149 0.202-0.306 0.354-0.523 0.48-0.145 0.086-0.297 0.179-0.451 0.251-0.126 0.059-0.212 0.151-0.318 0.241-0.092 0.077-0.177 0.141-0.243 0.242-0.069 0.102-0.108 0.181-0.102 0.307 0.007 0.145 0.035 0.35 0.158 0.44 0.059 0.040 0.125 0.074 0.184 0.116 0.085 0.059 0.163 0.095 0.265 0.095 0.258 0.001 0.472-0.134 0.661-0.297 0.081-0.070 0.167-0.129 0.251-0.195 0.105-0.084 0.179-0.199 0.28-0.286 0.071-0.061 0.153-0.103 0.225-0.162 0.096-0.080 0.163-0.181 0.244-0.274 0.161-0.187 0.325-0.326 0.393-0.576 0.037-0.137 0.065-0.266 0.12-0.399 0.036-0.085 0.080-0.194 0.082-0.287 0.001-0.096-0.028-0.192-0.028-0.289-0.001-0.067 0.014-0.141-0.021-0.204-0.024-0.050-0.077-0.088-0.114-0.129s-0.123-0.203-0.179-0.188c-0.003 0.028-0.003 0.054-0.001-0.136z"></path>
<path d="M17.057 8.881c0.010 0.064-0.066 0.145-0.097 0.195-0.173 0.281-0.395 0.519-0.636 0.747-0.198 0.187-0.42 0.346-0.636 0.512-0.176 0.136-0.351 0.26-0.549 0.363-0.155 0.081-0.246 0.232-0.377 0.344-0.103 0.088-0.27 0.222-0.316 0.36-0.017 0.052-0.007 0.109-0.010 0.162s-0.040 0.13-0.017 0.182c0.061 0.137 0.407 0.096 0.512 0.091 0.216-0.014 0.419-0.055 0.629-0.105 0.096-0.021 0.193-0.037 0.286-0.070 0.133-0.048 0.215-0.144 0.306-0.244 0.158-0.172 0.345-0.322 0.475-0.516 0.072-0.105 0.129-0.219 0.206-0.321 0.048-0.064 0.103-0.123 0.15-0.189 0.111-0.156 0.231-0.295 0.293-0.478 0.058-0.171 0.079-0.352 0.074-0.532-0.002-0.076-0.017-0.318-0.104-0.355-0.074-0.031-0.241 0.017-0.189-0.146z"></path>
<path d="M17.408 13.167c0.151-0.007 0.114 0.227 0.109 0.352-0.014 0.289-0.114 0.56-0.272 0.802-0.047 0.072-0.097 0.142-0.14 0.217-0.045 0.080-0.081 0.17-0.137 0.243-0.107 0.141-0.279 0.215-0.416 0.323-0.188 0.149-0.355 0.322-0.577 0.421-0.214 0.097-0.452 0.167-0.685 0.188-0.15 0.014-0.305 0.001-0.456 0.003-0.035 0.001-0.114 0.014-0.137-0.017-0.044-0.058 0.047-0.237 0.066-0.297 0.044-0.135 0.077-0.274 0.123-0.41 0.046-0.133 0.14-0.256 0.241-0.351 0.071-0.066 0.157-0.116 0.238-0.171 0.122-0.084 0.239-0.171 0.362-0.252 0.321-0.209 0.652-0.402 0.969-0.614 0.207-0.139 0.409-0.339 0.646-0.425 0.024-0.010 0.047-0.014 0.066-0.014z"></path>
<path d="M17.226 10.917c0.010 0.048-0.021 0.048-0.047 0.070-0.052 0.045-0.093 0.104-0.139 0.157-0.085 0.1-0.17 0.198-0.26 0.292-0.095 0.097-0.199 0.221-0.306 0.305-0.085 0.068-0.166 0.080-0.268 0.102-0.096 0.021-0.165 0.063-0.241 0.122-0.158 0.12-0.334 0.174-0.507 0.268-0.15 0.082-0.306 0.157-0.44 0.265-0.074 0.060-0.165 0.113-0.228 0.182-0.049 0.053-0.061 0.116-0.074 0.183-0.048 0.248-0.097 0.503-0.087 0.757 0.007 0.193 0.086 0.295 0.276 0.34 0.058 0.014 0.103 0.021 0.161 0.003 0.129-0.031 0.258-0.081 0.387-0.12 0.119-0.035 0.228-0.086 0.332-0.155s0.189-0.156 0.295-0.222c0.196-0.122 0.407-0.23 0.58-0.386 0.149-0.134 0.163-0.318 0.279-0.469 0.114-0.15 0.29-0.248 0.388-0.41 0.071-0.117 0.088-0.297 0.095-0.432 0.007-0.152-0.035-0.357-0.097-0.495-0.072-0.153-0.147-0.193-0.098-0.357z"></path>
<path d="M17.226 14.868c0.017 0.056-0.086 0.133-0.114 0.168-0.037 0.044-0.065 0.104-0.108 0.144-0.050 0.045-0.123 0.061-0.178 0.102-0.059 0.044-0.122 0.080-0.181 0.123-0.064 0.045-0.111 0.113-0.172 0.162-0.039 0.031-0.080 0.076-0.122 0.103-0.047 0.031-0.093 0.053-0.14 0.090-0.118 0.097-0.247 0.135-0.222 0.322 0.010 0.079 0.074 0.152 0.145 0.195 0.125 0.076 0.265 0.097 0.387 0.183 0.122 0.087 0.228 0.177 0.37 0.227 0.13 0.047 0.246 0.156 0.388 0.171 0.166 0.017 0.249-0.031 0.282-0.207 0.031-0.173 0.065-0.346 0.102-0.519 0.017-0.076 0.039-0.157 0.047-0.235 0.007-0.076-0.014-0.155-0.028-0.228-0.014-0.065-0.039-0.108-0.067-0.167-0.031-0.064-0.044-0.135-0.072-0.199-0.042-0.090-0.105-0.279-0.212-0.309-0.064-0.021-0.187-0.014-0.241 0.024 0.017-0.017 0.028-0.035 0.137-0.149z"></path>
<path d="M15.966 7.523c-0.007 0.083-0.045 0.144-0.071 0.223-0.040 0.119-0.122 0.2-0.202 0.297-0.084 0.103-0.184 0.214-0.333 0.211-0.174-0.002-0.253-0.206-0.292-0.344-0.052-0.174-0.056-0.368-0.049-0.549 0.003-0.118 0.035-0.235 0.044-0.352 0.007-0.079 0.014-0.152 0.028-0.23 0.047-0.22 0.075-0.441 0.103-0.663 0.014-0.093 0.017-0.183 0.055-0.27 0.035-0.079 0.087-0.147 0.14-0.215 0.060-0.077 0.119-0.244 0.209-0.287 0.047-0.021 0.227-0.014 0.27 0.010 0.039 0.024 0.055 0.067 0.071 0.108 0.039 0.097 0.080 0.205 0.093 0.308 0.021 0.175 0.028 0.349 0.028 0.526 0 0.168 0.010 0.338-0.017 0.502-0.017 0.098-0.003 0.194-0.024 0.291-0.017 0.085-0.002 0.173-0.017 0.26-0.024 0.132-0.049 0.238-0.101 0.363 0.003 0 0.010 0.001 0.064-0.193z"></path>
<path d="M14.73 6.845c0.036 0.060 0.049 0.088 0.049 0.158-0.002 0.158-0.001 0.317-0.001 0.474 0.001 0.108-0.002 0.207-0.017 0.314-0.014 0.096 0.007 0.172 0.017 0.266 0.003 0.042 0 0.084 0.007 0.126 0.003 0.031 0.021 0.059 0.021 0.091-0.002 0.069-0.052 0.097-0.101 0.135-0.056 0.042-0.142 0.119-0.22 0.080-0.059-0.028-0.117-0.118-0.145-0.171-0.039-0.075-0.060-0.156-0.107-0.226-0.054-0.082-0.103-0.149-0.135-0.243-0.054-0.165-0.155-0.359-0.074-0.535 0.060-0.134 0.194-0.269 0.306-0.361 0.059-0.049 0.122-0.058 0.182-0.090 0.024-0.014 0.043-0.038 0.069-0.053 0.096-0.054 0.252-0.098 0.149 0.035z"></path>
<path d="M16.354 6.312c0.021-0.024 0.039-0.024 0.053-0.003-0.038 0.123-0.054 0.231-0.054 0.362 0 0.077-0.007 0.167 0.021 0.241 0.028 0.072 0.077 0.082 0.149 0.082 0.142-0.001 0.211-0.128 0.316-0.21 0.129-0.103 0.254-0.155 0.41-0.205 0.079-0.024 0.167-0.037 0.242-0.072 0.058-0.028 0.091-0.070 0.158-0.076 0.13-0.010 0.286-0.003 0.413 0.024 0.071 0.017 0.126 0.055 0.192 0.085 0.060 0.028 0.124 0.042 0.186 0.065 0.13 0.053 0.249 0.061 0.389 0.028 0.048-0.010 0.079-0.024 0.118-0.053 0.045-0.035 0.104-0.064 0.144-0.103 0.052-0.049 0.059-0.135 0.070-0.202 0.017-0.104 0.031-0.209 0.031-0.314 0-0.112-0.003-0.215-0.021-0.323-0.003-0.024 0.003-0.058-0.003-0.079-0.017-0.056-0.097-0.070-0.15-0.074-0.084-0.003-0.167 0.007-0.249 0-0.109-0.007-0.216-0.039-0.325-0.047-0.101-0.007-0.206-0.010-0.306 0.014-0.108 0.024-0.2 0.093-0.303 0.133-0.084 0.031-0.17 0.050-0.253 0.076-0.064 0.021-0.107 0.066-0.166 0.095-0.134 0.064-0.279 0.031-0.416 0.081-0.137 0.052-0.269 0.067-0.415 0.088-0.095 0.014-0.183 0.070-0.266 0.118-0.085 0.049-0.084 0.106-0.085 0.197 0 0.066 0 0.113 0.028 0.174 0.017 0.038 0.044 0.15 0.093 0.152 0.021-0.024 0.028-0.053-0.001-0.256z"></path>
<path d="M15.651 16.297c0.105 0.037 0.175 0.207 0.209 0.303 0.065 0.195 0.021 0.414-0.080 0.59-0.059 0.102-0.142 0.174-0.216 0.264-0.077 0.095-0.104 0.211-0.155 0.319-0.079 0.166-0.216 0.313-0.277 0.488-0.024 0.070-0.035 0.134-0.069 0.202-0.031 0.061-0.058 0.124-0.089 0.184-0.068 0.129-0.134 0.256-0.207 0.379-0.060 0.103-0.119 0.236-0.157 0.349-0.058 0.173-0.146 0.331-0.193 0.507-0.024 0.096-0.052 0.153-0.107 0.235-0.043 0.060-0.079 0.107-0.098 0.179-0.017 0.071-0.024 0.13-0.068 0.193-0.079 0.113-0.096 0.223-0.12 0.355-0.017 0.092-0.070 0.161-0.114 0.241-0.058 0.102-0.084 0.216-0.135 0.322-0.056 0.117-0.129 0.223-0.17 0.347-0.014 0.047-0.024 0.095-0.036 0.141-0.028 0.105-0.087 0.194-0.125 0.295-0.044 0.116-0.070 0.236-0.093 0.357-0.028 0.147-0.074 0.29-0.1 0.437-0.028 0.166-0.058 0.333-0.071 0.501-0.014 0.153-0.048 0.289-0.048 0.443 0 0.136-0.021 0.261-0.055 0.392-0.042 0.163-0.037 0.316-0.042 0.481-0.002 0.117-0.035 0.22-0.048 0.334-0.007 0.069-0.001 0.139-0.001 0.209 0.001 0.131-0.010 0.261-0.017 0.393-0.010 0.149-0.028 0.298-0.031 0.448-0.007 0.171 0.028 0.33 0.045 0.499 0.010 0.108 0.021 0.189 0.056 0.292 0.049 0.14 0.117 0.263 0.19 0.392 0.134 0.232 0.26 0.477 0.43 0.687 0.098 0.122 0.211 0.23 0.293 0.363 0.089 0.146 0.174 0.237 0.321 0.326 0.082 0.050 0.149 0.12 0.23 0.172 0.084 0.055 0.178 0.060 0.275 0.076 0.129 0.021 0.256 0.028 0.386 0.031 0.061 0 0.129 0.007 0.189-0.003 0.072-0.014 0.129-0.055 0.195-0.081 0.119-0.043 0.256-0.042 0.378-0.072 0.125-0.031 0.253-0.061 0.382-0.064 0.146-0.003 0.284 0.003 0.429-0.021 0.177-0.028 0.35-0.067 0.521-0.123 0.295-0.095 0.597-0.163 0.857-0.338 0.256-0.171 0.454-0.368 0.575-0.653 0.102-0.241 0.171-0.486 0.187-0.748 0.010-0.189-0.007-0.376 0.014-0.565 0.017-0.161 0.017-0.326 0.014-0.49-0.003-0.157-0.043-0.309-0.050-0.465-0.003-0.134-0.038-0.256-0.059-0.387-0.024-0.153-0.014-0.312-0.014-0.467 0-0.196 0-0.394 0-0.591 0-0.102 0.014-0.209-0.007-0.309-0.048-0.253-0.122-0.507-0.183-0.758-0.039-0.156-0.074-0.309-0.126-0.461-0.077-0.228-0.179-0.445-0.263-0.669-0.097-0.264-0.212-0.519-0.354-0.763-0.072-0.126-0.14-0.257-0.222-0.376-0.1-0.144-0.199-0.282-0.276-0.44-0.13-0.263-0.307-0.491-0.418-0.763-0.049-0.119-0.098-0.237-0.14-0.359-0.036-0.107-0.112-0.226-0.12-0.338-0.003-0.067-0.003-0.119-0.028-0.184-0.044-0.113-0.102-0.22-0.146-0.333-0.058-0.153-0.021-0.363-0.021-0.523-0.001-0.187 0.044-0.384 0.157-0.537 0.047-0.064 0.136-0.108 0.219-0.097 0.101 0.014 0.166 0.186 0.206 0.268 0.031 0.064 0.060 0.12 0.070 0.192 0.014 0.088 0.040 0.166 0.061 0.254 0.044 0.194 0.085 0.361 0.186 0.538 0.093 0.165 0.186 0.323 0.287 0.483 0.198 0.309 0.343 0.641 0.491 0.975 0.063 0.14 0.144 0.277 0.189 0.425 0.045 0.145 0.095 0.241 0.19 0.36 0.067 0.086 0.113 0.178 0.162 0.275 0.028 0.059 0.049 0.12 0.072 0.182 0.043 0.112 0.095 0.219 0.144 0.328 0.183 0.403 0.413 0.782 0.582 1.19 0.17 0.413 0.322 0.809 0.4 1.249 0.037 0.2 0.084 0.398 0.105 0.601 0.021 0.186 0.014 0.37 0.017 0.555 0.001 0.133-0.024 0.248-0.043 0.378-0.024 0.176-0.017 0.357-0.053 0.532-0.028 0.133-0.069 0.251-0.081 0.389-0.014 0.157-0.017 0.319-0.045 0.475-0.024 0.134-0.085 0.259-0.118 0.392-0.044 0.172-0.067 0.35-0.109 0.523-0.031 0.139-0.092 0.252-0.151 0.378-0.069 0.142-0.122 0.289-0.176 0.437-0.049 0.134-0.113 0.253-0.199 0.366-0.109 0.142-0.174 0.309-0.274 0.458-0.158 0.237-0.377 0.489-0.652 0.581-0.151 0.052-0.316 0.112-0.473 0.135-0.082 0.014-0.173 0.003-0.257 0.003-0.123-0.003-0.231 0.007-0.351 0.017-0.264 0.028-0.54 0.003-0.806 0.007-0.137 0.001-0.273-0.021-0.41-0.024-0.158-0.003-0.308 0.017-0.462-0.028-0.133-0.038-0.249-0.046-0.386-0.042-0.155 0.003-0.292-0.040-0.445-0.049-0.139-0.007-0.284 0.021-0.419-0.017-0.162-0.043-0.3-0.074-0.468-0.081-0.119-0.003-0.237-0.003-0.338-0.074-0.096-0.069-0.174-0.161-0.264-0.237-0.095-0.081-0.211-0.122-0.296-0.212-0.097-0.104-0.174-0.242-0.236-0.368-0.089-0.183-0.184-0.354-0.253-0.547-0.081-0.231-0.158-0.453-0.194-0.695-0.017-0.129-0.066-0.247-0.069-0.379-0.002-0.165 0.002-0.33 0.002-0.494 0-0.174-0.017-0.357 0.003-0.532 0.021-0.196 0.061-0.387 0.069-0.587 0.007-0.161 0.024-0.323 0.047-0.484 0.024-0.168 0.072-0.337 0.095-0.506 0.024-0.199-0.001-0.404-0.017-0.602-0.014-0.183 0.010-0.341 0.058-0.518 0.038-0.147 0.096-0.289 0.133-0.435 0.048-0.188 0.089-0.376 0.141-0.562 0.043-0.163 0.069-0.323 0.124-0.484 0.069-0.206 0.101-0.431 0.184-0.631 0.059-0.145 0.145-0.274 0.228-0.405 0.072-0.116 0.135-0.22 0.223-0.322 0.203-0.237 0.361-0.528 0.48-0.814 0.084-0.202 0.163-0.404 0.251-0.603 0.038-0.087 0.081-0.172 0.12-0.258 0.070-0.153 0.072-0.337 0.114-0.5 0.028-0.119 0.037-0.241 0.064-0.361 0.031-0.142 0.077-0.265 0.093-0.411 0.014-0.133 0.045-0.251 0.071-0.379 0.024-0.123 0.017-0.248 0.042-0.372 0.036-0.174 0.095-0.379 0.188-0.533 0.096-0.156 0.279-0.243 0.456-0.263 0.141-0.014 0.281-0.014 0.414 0.038 0.178 0.069 0.215 0.258 0.296 0.418z"></path>
<path d="M14.913 6.431c-0.054-0.042-0.024-0.151-0.024-0.206-0.003-0.118-0.035-0.23-0.028-0.349 0.002-0.063 0.010-0.129 0.031-0.189 0.028-0.085 0.095-0.114 0.147-0.175 0.010-0.014 0.024-0.050 0.028-0.060 0.028-0.047 0.063-0.066 0.101-0.104 0.060-0.061 0.109-0.134 0.165-0.2 0.122-0.146 0.316-0.205 0.391-0.4 0.017-0.045 0.021-0.1 0.028-0.147 0.014-0.058 0.036-0.113 0.049-0.171 0.024-0.097 0.003-0.215 0.003-0.316 0-0.095-0.001-0.188 0-0.282 0-0.091-0.024-0.172-0.028-0.261-0.002-0.077 0.007-0.155 0.002-0.231-0.007-0.088-0.048-0.175-0.069-0.261-0.031-0.132-0.035-0.259-0.038-0.394-0.002-0.085-0.031-0.204-0.072-0.28-0.017-0.035-0.055-0.079-0.085-0.1-0.021-0.014-0.047-0.014-0.065-0.031-0.028-0.024-0.045-0.069-0.068-0.101-0.035-0.045-0.076-0.113-0.133-0.133-0.021-0.007-0.042-0.001-0.065-0.007-0.024-0.007-0.043-0.031-0.071-0.031-0.084 0.001-0.114 0.174-0.133 0.238-0.047 0.165-0.055 0.33-0.079 0.497-0.028 0.195-0.044 0.391-0.047 0.587-0.002 0.103 0.028 0.2 0.028 0.305-0.001 0.091 0 0.182 0 0.272 0 0.144-0.021 0.275-0.024 0.418-0.002 0.063-0.014 0.13-0.035 0.19-0.024 0.088-0.084 0.157-0.126 0.236-0.017 0.036-0.031 0.074-0.050 0.108-0.037 0.067-0.103 0.109-0.128 0.182-0.014 0.039-0.017 0.082-0.031 0.123-0.028 0.082-0.017 0.149-0.031 0.236-0.014 0.108-0.050 0.214-0.068 0.322-0.014 0.087-0.007 0.179-0.007 0.268 0.001 0.086 0.014 0.19 0.053 0.266 0.007 0.017 0.024 0.035 0.035 0.050 0.017 0.035 0.021 0.091 0.045 0.117 0.028 0.031 0.101 0.017 0.147 0.017 0.108 0.001 0.212-0.003 0.248 0z"></path>
</svg>
