<!-- Generated by IcoMoon.io -->
<svg version="1.1" xmlns="http://www.w3.org/2000/svg" width="33" height="32" viewBox="0 0 33 32">
<title>the_great_seal</title>
<path d="M21.66 2c-0.026 0.095 0.055 0.145 0.069 0.229 0.016 0.092-0.003 0.15 0.031 0.237 0.021 0.055 0.079 0.119 0.095 0.171 0.021 0.082-0.003 0.171 0.003 0.256 0.008 0.177 0.042 0.375 0.079 0.546 0.055 0.243 0.156 0.451 0.179 0.699 0.016 0.163 0.016 0.317 0.013 0.48-0.005 0.359 0.040 0.741-0.019 1.095-0.031 0.198-0.071 0.393-0.103 0.591-0.024 0.15 0.005 0.298-0.026 0.446-0.069 0.332-0.127 0.646-0.158 0.984-0.029 0.332-0.016 0.673-0.074 1.002-0.047 0.258-0.142 0.496-0.163 0.76-0.024 0.311 0.037 0.63 0.010 0.942-0.016 0.198-0.074 0.364-0.074 0.57 0.005 0.559-0.013 1.079-0.058 1.63-0.008 0.108-0.013 0.203 0.005 0.309 0.061 0.319 0.129 0.586 0.127 0.918-0.008 0.57-0.003 1.142-0.003 1.712 0 1.052-0.074 2.102-0.071 3.152 0.005 1.227 0.042 2.461 0.008 3.685-0.013 0.477-0.142 0.939-0.137 1.416 0.005 0.754 0.005 1.509 0 2.263-0.005 0.747 0.129 1.493 0.071 2.242-0.029 0.351-0.248 0.696-0.406 1-0.108 0.206-0.048 0.425-0.071 0.665 0.092-0.332 0.14-0.612 0.14-0.95v-2.709c0-0.393 0.047-0.823 0.003-1.211-0.050-0.425-0.174-0.828-0.24-1.25-0.021-0.169-0.034-0.335-0.040-0.504-0.055-0.129-0.105-0.258-0.153-0.39-0.156-0.425-0.319-0.884-0.411-1.329-0.095-0.467-0.034-1.013-0.029-1.488 0.010-0.67 0.206-1.306 0.203-1.976 0-0.319 0.040-0.662 0.008-0.979-0.026-0.132-0.064-0.258-0.111-0.382-0.040-0.211-0.050-0.422-0.034-0.636 0.008-0.533-0.021-1.068 0.003-1.601 0.024-0.525 0.124-1.042 0.243-1.554 0.158-0.683 0.295-1.361 0.477-2.034 0.182-0.675 0.211-1.335 0.214-2.026 0.003-0.588 0.076-1.166 0.121-1.752 0.047-0.607-0.005-1.219 0.010-1.828 0.019-0.728 0.214-1.446 0.203-2.176-0.005-0.206 0.045-0.345 0.1-0.538 0.047-0.163 0.055-0.311 0.156-0.459-0.124-0.124-0.367 0.124-0.496 0.163-0.174 0.053-0.72 0.135-0.807 0.338 0.016 0.024 0.031 0.047 0.58-0.198-0.076 0.013-0.129 0.095-0.187 0.142-0.229 0.198-0.525 0.353-0.805 0.464-0.119 0.045-0.264 0.079-0.377 0.135-0.19 0.090-0.346 0.301-0.493 0.454-0.245 0.251-0.462 0.48-0.731 0.704-0.111 0.092-0.229 0.179-0.34 0.274-0.253 0.214-0.298 0.369-0.401 0.662-0.074 0.214-0.185 0.361-0.406 0.456-0.311 0.135-0.565 0.224-0.815 0.467-0.095 0.095-0.169 0.214-0.24 0.33-0.074 0.124-0.071 0.2-0.119 0.348-0.053 0.169-0.174 0.348-0.261 0.499-0.19 0.338-0.377 0.686-0.607 1-0.235 0.322-0.528 0.601-0.757 0.928-0.29 0.411-0.472 0.863-0.725 1.295-0.266 0.446-0.567 0.873-0.834 1.322-0.227 0.38-0.456 0.773-0.741 1.113-0.116 0.135-0.243 0.256-0.324 0.419-0.034 0.071-0.047 0.166-0.103 0.229-0.084 0.095-0.243 0.195-0.345 0.261-0.39 0.253-0.754 0.504-1.113 0.799-0.232 0.193-0.464 0.414-0.665 0.636-0.145 0.161-0.203 0.314-0.287 0.52-0.153 0.375-0.34 0.67-0.623 0.947-0.237 0.229-0.499 0.401-0.762 0.596-0.385 0.285-0.673 0.675-0.987 1.031-0.338 0.39-0.778 0.725-1.074 1.15-0.142 0.206-0.277 0.411-0.427 0.612-0.19 0.261-0.338 0.501-0.58 0.715-0.322 0.29-0.559 0.688-0.789 1.050-0.074 0.119-0.179 0.214-0.264 0.324-0.066 0.087-0.082 0.129-0.124 0.237 0.153 0.079 0.541-0.229 0.662-0.324 0.222-0.169 0.367-0.411 0.496-0.652 0.108-0.195 0.222-0.464 0.382-0.617 0.179-0.169 0.459-0.266 0.67-0.385 0.098-0.055 0.206-0.108 0.309-0.161 0.185-0.095 0.404-0.119 0.58-0.219 0.219-0.119 0.414-0.282 0.644-0.398 0.277-0.142 0.499-0.34 0.778-0.485 0.251-0.129 0.528-0.261 0.757-0.425 0.269-0.193 0.48-0.528 0.686-0.786 0.282-0.356 0.509-0.741 0.736-1.134 0.24-0.422 0.601-0.765 0.928-1.121 0.29-0.319 0.533-0.681 0.828-0.992 0.224-0.237 0.401-0.456 0.578-0.731 0.208-0.319 0.419-0.644 0.623-0.968 0.135-0.219 0.295-0.451 0.38-0.694 0.040-0.116 0.087-0.216 0.132-0.33 0.045-0.124 0.040-0.251 0.069-0.369 0.071-0.28 0.156-0.533 0.319-0.775 0.324-0.477 0.649-0.963 0.997-1.422 0.203-0.269 0.448-0.499 0.649-0.773 0.332-0.456 0.688-0.91 1.005-1.38 0.156-0.235 0.298-0.456 0.477-0.675 0.306-0.377 0.67-0.696 1.005-1.050 0.224-0.237 0.462-0.462 0.707-0.681 0.288-0.256 0.377-0.295 0.535-0.551 0.055-0.090 0.113-0.148 0.198-0.216 0.266-0.216 0.522-0.43 0.754-0.686 0.069-0.076 0.148-0.15 0.214-0.229 0.031-0.034 0.055-0.090 0.082-0.116 0.243-0.264 0.525-0.567 0.728-0.881z"></path>
<path d="M3.603 6.26c0.029 0.037 0.061 0.071 0.092 0.103 0.359 0.375 0.786 0.496 1.277 0.62 0.343 0.074 0.686 0.142 1.031 0.208 0.121 0 0.232 0.026 0.335 0.082-0.092 0.506 0.29 1.055 0.512 1.475 0.121 0.232 0.258 0.446 0.406 0.662 0.129 0.198 0.266 0.393 0.406 0.586 0.024 0.042 0.058 0.066 0.098 0.076 0.045 0.074 0.069 0.185 0.121 0.266 0.098 0.145 0.301 0.317 0.438 0.422 0.285 0.222 0.636 0.367 0.96 0.522 0.541 0.261 1.092 0.509 1.67 0.675-0.076 0.174 0.034 0.322 0.103 0.475 0.256 0.562 0.583 1.134 1.021 1.583 0.198 0.206 0.425 0.353 0.681 0.48 0.148 0.071 0.301 0.098 0.448 0.156 0.317 0.127 0.652 0.285 0.952 0.454 0.116 0.066 0.277 0.14 0.327 0.28 0.026 0.074-0.003 0.185 0.021 0.264 0.042 0.148 0.193 0.222 0.235 0.356 0.019 0.050-0.008 0.171-0.008 0.224-0.013 0.433 0.092 0.815 0.361 1.166 0.132 0.174 0.229 0.285 0.425 0.39 0.108 0.058 0.108 0.058 0.169 0.169 0.153 0.274 0.398 0.48 0.554 0.754 0.232 0.414 0.504 0.81 0.765 1.203 0.227 0.338 0.475 0.67 0.67 1.031 0.169 0.319 0.411 0.636 0.528 0.971 0.061 0.174 0.169 0.269 0.274 0.422 0.15 0.222 0.285 0.499 0.375 0.747 0.113 0.314 0.29 0.593 0.422 0.894 0.135 0.306 0.351 0.551 0.517 0.828 0.264 0.438 0.388 0.91 0.538 1.39 0.119 0.38 0.103 0.781 0.285 1.142 0.029 0.061 0.090 0.111 0.111 0.169 0.031 0.087 0.029 0.169 0.071 0.261 0.082 0.174 0.2 0.317 0.266 0.499 0.076 0.206 0.074 0.472 0.177 0.659-0.235 0.121-0.211-0.235-0.303-0.33-0.087-0.090-0.187-0.053-0.298-0.071-0.208-0.037-0.419-0.15-0.53-0.335-0.182-0.311-0.322-0.659-0.456-0.994-0.232-0.575-0.324-1.176-0.57-1.749-0.153-0.361-0.311-0.678-0.554-0.987-0.163-0.208-0.319-0.364-0.396-0.615-0.116-0.382-0.288-0.654-0.525-0.976-0.14-0.185-0.264-0.404-0.44-0.554-0.248-0.211-0.451-0.361-0.63-0.628-0.612-0.905-1.182-1.849-1.904-2.675-0.2-0.227-0.43-0.456-0.609-0.691-0.105-0.137-0.166-0.335-0.237-0.501-0.182-0.411-0.427-0.815-0.704-1.176-0.309-0.404-0.797-0.923-1.271-1.1-0.174-0.066-0.335-0.161-0.506-0.224-0.33-0.116-0.575-0.356-0.855-0.564-0.39-0.293-0.623-0.675-0.952-1.023-0.314-0.332-0.62-0.665-0.923-1.010-0.179-0.206-0.406-0.356-0.567-0.578-0.177-0.243-0.314-0.52-0.499-0.754-0.343-0.438-0.789-0.889-1.266-1.184-0.295-0.185-0.604-0.353-0.902-0.538-0.266-0.166-0.166-0.161-0.237-0.396-0.055-0.185-0.153-0.359-0.222-0.538-0.108-0.272-0.258-0.646-0.525-0.789-0.29-0.161-0.649-0.090-0.952-0.216-0.282-0.116-0.44-0.269-0.485-0.554-0.034-0.206-0.076-0.419-0.124-0.623-0.040-0.171-0.258-0.385-0.119-0.538 0.135-0.148 0.422-0.216 0.591-0.106 0.135 0.087 0.235 0.227 0.34 0.353z"></path>
<path d="M4.662 22.464c0.026-0.185 0.227-0.496 0.364-0.636 0.145-0.145 0.208-0.129 0.388-0.161 0.15-0.026 0.235-0.074 0.401-0.069 0.198 0.005 0.388 0.003 0.575-0.069 0.237-0.090 0.443-0.253 0.683-0.343 0.208-0.076 0.409 0.010 0.63 0.010 0.324 0 0.541-0.116 0.847-0.19 0.177-0.040 0.372 0.031 0.543-0.013 0.1-0.026 0.177-0.116 0.269-0.166 0.161-0.087 0.319-0.076 0.491-0.113 0.092-0.021 0.232-0.066 0.353-0.082 0.245-0.029 0.493-0.053 0.725-0.137 0.129-0.045 0.227-0.098 0.364-0.1 0.127-0.003 0.187-0.003 0.298-0.053 0.303-0.137 0.628-0.348 0.87-0.572 0.15-0.142 0.2-0.335 0.335-0.477 0.166-0.174 0.562-0.111 0.775-0.142 0.604-0.082 1.176-0.33 1.696-0.644 0.44-0.266 0.95-0.33 1.44-0.472 0.203-0.061 0.39-0.116 0.575-0.219 0.258-0.142 0.409-0.324 0.588-0.554 0.272-0.353 0.607-0.662 0.931-0.968 0.174-0.163 0.356-0.322 0.522-0.491 0.174-0.177 0.311-0.388 0.491-0.554 0.261-0.245 0.522-0.235 0.841-0.351 0.179-0.066 0.33-0.084 0.514-0.111 0.483-0.074 0.931-0.193 1.427-0.193 0.657 0.003 1.322-0.042 1.86-0.448 0.145-0.108 0.285-0.224 0.43-0.332 0.148-0.111 0.33-0.198 0.454-0.335-0.145 0.203-0.187 0.409-0.245 0.638 0.356-0.232 0.794-0.272 1.176-0.44 0.401-0.182 0.802-0.367 1.213-0.527 0.488-0.195 0.989-0.388 1.519-0.414 0.251-0.013 0.483-0.050 0.731-0.084 0.311-0.045 0.702-0.061 0.994-0.187 0.211-0.090 0.467-0.108 0.683-0.229 0.174-0.098 0.322-0.229 0.506-0.303 0.132-0.053 0.2-0.082 0.288-0.198 0.047 0.034 0.108 0.451 0.040 0.522-0.024 0.024-0.182 0.029-0.224 0.040-0.245 0.069-0.464 0.24-0.715 0.311-0.135 0.037-0.256 0.058-0.372 0.153-0.074 0.087-0.156 0.171-0.243 0.248-0.105 0.040-0.214 0.064-0.324 0.074-0.121 0.029-0.203 0.084-0.309 0.145-0.348 0.195-0.749 0.29-1.116 0.443-0.161 0.074-0.322 0.137-0.491 0.19-0.124 0.013-0.245 0.031-0.367 0.058-0.34 0.098-0.615 0.322-0.96 0.411-0.396 0.1-0.987-0.058-1.308 0.269-0.19 0.193-0.443 0.345-0.688 0.48-0.193 0.105-0.38 0.2-0.57 0.319-0.485 0.301-0.915 0.675-1.406 0.965-0.042-0.034-0.137-0.15-0.187-0.163-0.193-0.047-0.425 0.327-0.583 0.411-0.214 0.111-0.43 0.116-0.659 0.121-0.14 0.003-0.2 0.019-0.335 0.066-0.219 0.076-0.382 0.069-0.625 0.066-0.098 0-0.208-0.019-0.303 0.010-0.166 0.050-0.306 0.261-0.483 0.269-0.098 0.003-0.105-0.082-0.185-0.087-0.092-0.008-0.145 0.095-0.203 0.142-0.076 0.061-0.158 0.076-0.24 0.124-0.171 0.137-0.343 0.277-0.514 0.419-0.235 0.2-0.491 0.375-0.765 0.52-0.111 0.019-0.19-0.008-0.301 0.019-0.198 0.053-0.488 0.274-0.657 0.404-0.029 0.024-0.047 0.053-0.055 0.087-0.108 0.074-0.219 0.142-0.33 0.208-0.348 0.227-0.66 0.551-1.023 0.741-0.092-0.303-0.39-0.005-0.533 0.066-0.069 0.034-0.422 0.024-0.396 0.021-0.24 0-0.477 0.024-0.71 0.076-0.132 0.071-0.261 0.142-0.393 0.214-0.39 0.224-0.712 0.657-1.15 0.775-0.2 0.055-0.367 0.161-0.578 0.193-0.514 0.074-1.018 0.243-1.527 0.361-0.504 0.119-0.994 0.206-1.498 0.285-0.401 0.064-0.812 0.074-1.216 0.084-0.435 0.013-0.791 0.092-1.211 0.211-0.464 0.135-0.91 0.324-1.395 0.322-0.113 0-0.269-0.029-0.38-0.003-0.092 0.021-0.158 0.092-0.061 0.137z"></path>
<path d="M4.529 5.999c0.016 0.003 0.034 0.005 0.050 0.010 0.064 0.372 0.646 0.324 0.915 0.322 0.245 0 0.491-0.003 0.733 0 0.282 0.003 0.446 0.251 0.601 0.464 0.166 0.227 0.301 0.47 0.456 0.702 0.069 0.103 0.148 0.258 0.245 0.335 0.066 0.050 0.179 0.066 0.264 0.1 0.106 0.040 0.2 0.042 0.301 0.071 0.113 0.034 0.195 0.111 0.314 0.129 0.158 0.026 0.19-0.024 0.253 0.132 0.037 0.084 0.047 0.179 0.090 0.261 0.082 0.148 0.264 0.256 0.348 0.409 0.066 0.119 0.082 0.269 0.179 0.38 0.2-0.098 0.266-0.185 0.499-0.182 0.44 0.003 0.815 0.019 1.248 0.164 0.195 0.066 0.264 0.158 0.385 0.303 0.127 0.15 0.258 0.179 0.456 0.237 0.164 0.048 0.322 0.029 0.491 0.029 0.158 0 0.34 0.024 0.499 0.003 0.15-0.021 0.287-0.055 0.438-0.069 0.14-0.010 0.356-0.034 0.488-0.066 0.135-0.031 0.253-0.148 0.375-0.216 0.174-0.1 0.332-0.214 0.509-0.306 0.216-0.111 0.535-0.235 0.773-0.108 0.161 0.087 0.248 0.385 0.388 0.52 0.129 0.124 0.301 0.229 0.462 0.311 0.578 0.306 1.337 0.459 1.962 0.224 0.322-0.121 0.615-0.306 0.931-0.435 0.224-0.090 0.464-0.061 0.702-0.058 0.301 0.003 0.588-0.010 0.886-0.053 0.103-0.013 0.195-0.037 0.295 0.005 0.264 0.111 0.501 0.425 0.733 0.588 0.211 0.148 0.435 0.243 0.609 0.433 0.129 0.14 0.258 0.208 0.425 0.295 0.161 0.084 0.298 0.24 0.464 0.306 0.135 0.053 0.229 0.031 0.364 0.105 0.251 0.137 0.564 0.166 0.836 0.248 0.52 0.153 1.079 0.029 1.609 0.087 0.319 0.034 0.691 0.108 1.013 0.064 0.253-0.037 0.417-0.319 0.644-0.411 0.195-0.082 0.506-0.129 0.715-0.14 0.166-0.005 0.314 0.042 0.47 0.098 0.187 0.064 0.338 0.169 0.517 0.245 0.15 0.069 0.266 0.064 0.43 0.064 0.411-0.005 0.934 0.303 1.343 0.066-0.037-0.050-0.071-0.050-0.129-0.076-0.193-0.087-0.369-0.15-0.546-0.28-0.098-0.074-0.185-0.153-0.301-0.193-0.216-0.071-0.435-0.071-0.646-0.169-0.092-0.040-0.182-0.090-0.272-0.132-0.351-0.171-0.707-0.377-1.081-0.491-0.177-0.055-0.322-0.050-0.504-0.053-0.419 0-0.754-0.343-1.174-0.401-0.443-0.058-0.931-0.005-1.377-0.005s-0.852-0.111-1.261-0.277c-0.248-0.103-0.446-0.309-0.702-0.409-0.224-0.092-0.456-0.164-0.683-0.251-0.477-0.185-1.076-0.166-1.577-0.045-0.182 0.042-0.293 0.031-0.477 0.045-0.417 0.024-0.823 0.069-1.24 0.069-0.2 0-0.435 0.031-0.636 0.005-0.092-0.013-0.145-0.064-0.229-0.074-0.171-0.024-0.367 0.003-0.538 0.003-0.195 0-0.414 0.024-0.609 0.003-0.216-0.026-0.28-0.187-0.462-0.261-0.135-0.055-0.309 0.021-0.446-0.003-0.092-0.016-0.098-0.029-0.198-0.087-0.15-0.087-0.216-0.082-0.359-0.119-0.098-0.024-0.251-0.087-0.332-0.148-0.135-0.103-0.135-0.179-0.306-0.251-0.211-0.087-0.396-0.108-0.601-0.179-0.177-0.064-0.295-0.145-0.485-0.156-0.361-0.019-0.659 0.064-1.010 0.135-0.554 0.113-1.329 0.987-1.841 0.401-0.156-0.174-0.274-0.319-0.493-0.417-0.382-0.171-0.725-0.414-1.071-0.644-0.076-0.053-0.132-0.135-0.2-0.195-0.074-0.064-0.158-0.111-0.251-0.14-0.116-0.064-0.219-0.145-0.306-0.248-0.127-0.098-0.079-0.074-0.211-0.1-0.343-0.066-0.725 0.050-1.079-0.003-0.665-0.103-1.316-0.33-1.968-0.47-0.198-0.042-0.364-0.113-0.567-0.119-0.311-0.010-0.625 0-0.538 0.066z"></path>
</svg>
