<!-- Generated by IcoMoon.io -->
<svg version="1.1" xmlns="http://www.w3.org/2000/svg" width="32" height="32" viewBox="0 0 32 32">
<title>the_crown</title>
<path d="M15.729 30.602l-0.391-0.398-0.045-0.541c-0.066-0.793-0.128-0.881-0.182-0.258l-0.046 0.532-0.581-0.581-0.075-0.689c-0.078-0.714-0.095-0.708-0.195 0.068l-0.040 0.312-0.555-0.56-0.080-0.7c-0.070-0.615-0.085-0.669-0.127-0.445-0.026 0.14-0.049 0.376-0.051 0.525s-0.026 0.27-0.054 0.27-0.157-0.109-0.287-0.242c-0.201-0.205-0.265-0.347-0.421-0.929l-0.184-0.686 0.334-0.518c0.442-0.685 0.522-0.836 0.409-0.768-0.047 0.028-0.484 0.306-0.972 0.617l-0.886 0.565-3.164-3.164 0.227-0.478c0.325-0.685 0.563-1.921 0.525-2.723l-0.029-0.598-1.289-1.272v-2.154l0.328-0.639c0.542-1.055 1.317-2.016 2.197-2.724 2.564-2.062 5.936-2.674 9.076-1.646 2.335 0.764 4.185 2.306 5.245 4.37l0.328 0.639v2.154l-1.289 1.272-0.029 0.598c-0.039 0.802 0.199 2.037 0.525 2.723l0.227 0.478-3.164 3.164-0.886-0.565c-0.487-0.311-0.924-0.588-0.972-0.617-0.113-0.068-0.033 0.083 0.409 0.768l0.334 0.518-0.184 0.686c-0.156 0.582-0.22 0.723-0.421 0.929-0.13 0.133-0.259 0.242-0.287 0.242s-0.052-0.122-0.054-0.27c-0.002-0.149-0.025-0.385-0.051-0.525-0.042-0.224-0.057-0.169-0.127 0.445l-0.080 0.7-0.555 0.56-0.040-0.312c-0.099-0.776-0.117-0.782-0.194-0.070l-0.075 0.687-0.56 0.572-0.043-0.274c-0.024-0.15-0.048-0.402-0.053-0.56-0.015-0.415-0.095-0.115-0.153 0.573l-0.046 0.54-0.391 0.398c-0.215 0.219-0.407 0.398-0.427 0.398s-0.212-0.179-0.427-0.398zM16.063 25.371c0.025-0.298 0.067-0.542 0.094-0.542s0.069 0.244 0.094 0.542c0.025 0.298 0.064 0.612 0.087 0.697l0.042 0.155 0.254-0.116c0.529-0.241 0.712-0.628 0.558-1.182-0.11-0.393-0.955-2.131-1.037-2.131-0.084 0-0.868 1.607-1.015 2.079-0.186 0.602-0.022 0.978 0.54 1.234l0.254 0.116 0.042-0.155c0.023-0.085 0.062-0.399 0.087-0.697zM14.502 22.679c0.404-0.159 0.573-0.302 0.989-0.843 0.334-0.435 0.302-0.451-0.303-0.147-0.165 0.083-0.332 0.151-0.371 0.151s-1.041-0.472-2.227-1.050c-1.185-0.577-2.186-1.050-2.223-1.050s-0.153 0.179-0.256 0.398c-0.155 0.327-0.188 0.48-0.188 0.861-0 0.27 0.040 0.559 0.096 0.694 0.053 0.127 0.089 0.237 0.079 0.246s-0.217 0.072-0.462 0.142c-0.248 0.070-0.403 0.142-0.35 0.162 0.080 0.030 2.292 0.485 2.799 0.576 0.087 0.016 0.588 0.022 1.113 0.013 0.803-0.013 1.010-0.037 1.304-0.153zM21.659 22.542c0.7-0.146 1.315-0.281 1.368-0.299s-0.105-0.093-0.35-0.166c-0.245-0.073-0.451-0.135-0.458-0.139s0.027-0.121 0.077-0.259c0.049-0.139 0.091-0.452 0.093-0.697 0.002-0.365-0.031-0.517-0.185-0.843-0.103-0.219-0.22-0.398-0.26-0.398s-1.042 0.472-2.227 1.050c-1.185 0.577-2.186 1.050-2.223 1.050s-0.203-0.068-0.368-0.151c-0.605-0.304-0.638-0.288-0.303 0.147 0.398 0.517 0.523 0.632 0.847 0.779 0.442 0.2 0.758 0.238 1.764 0.215 0.82-0.019 1.133-0.060 2.226-0.288zM19.878 17.641c1.872-0.245 3.445-0.445 3.497-0.445 0.059 0 0.132-0.133 0.199-0.363 0.135-0.464 0.091-1.188-0.1-1.672-0.605-1.525-2.577-2.804-5.248-3.403-0.411-0.092-0.758-0.156-0.772-0.143s0.304 0.594 0.707 1.289c0.515 0.89 0.708 1.277 0.652 1.308-0.044 0.024-0.523 0.165-1.065 0.314s-1.009 0.291-1.037 0.315c-0.028 0.025 0.41 0.484 0.974 1.022l1.025 0.977-1.229 0.619c-0.676 0.341-1.178 0.621-1.117 0.623s1.643-0.197 3.515-0.442zM10.912 10.016c-0.050-0.32-0.799-6.984-0.799-7.11 0-0.056 0.933 1.021 2.073 2.394s2.095 2.471 2.122 2.441c0.027-0.030 0.372-1.055 0.768-2.277 0.664-2.051 0.711-2.228 0.607-2.29-0.287-0.171-0.442-0.332-0.551-0.571-0.155-0.341-0.151-0.634 0.014-0.975 0.405-0.836 1.615-0.836 2.020 0 0.285 0.59 0.081 1.178-0.537 1.546-0.104 0.062-0.057 0.239 0.607 2.29 0.396 1.223 0.742 2.248 0.768 2.278s0.982-1.068 2.122-2.441c1.14-1.373 2.073-2.444 2.073-2.381 0 0.133-0.746 6.753-0.8 7.1l-0.037 0.234-0.52-0.223c-2.439-1.045-5.428-1.228-7.991-0.491-0.299 0.086-0.85 0.28-1.224 0.431l-0.68 0.275z"></path>
</svg>
