<!-- Generated by IcoMoon.io -->
<svg version="1.1" xmlns="http://www.w3.org/2000/svg" width="32" height="32" viewBox="0 0 32 32">
<title>the_avatar_of_darkness</title>
<path d="M17.648 28.427c-0.208-0.402-0.752-0.864-1.408-1.197-1.249-0.633-1.493-0.561-2.634 0.771-0.594 0.694-0.848 0.848-1.209 0.734-0.488-0.155-0.715-0.601-0.945-1.863-0.135-0.737-0.091-0.827 0.645-1.327l0.789-0.536-0.791-0.377c-0.786-0.375-0.791-0.386-0.728-1.56 0.079-1.487 0.449-1.713 2.848-1.743l1.714-0.021-1.771-0.4c-0.974-0.22-1.865-0.458-1.981-0.53-0.13-0.080-0.084-0.374 0.12-0.767 0.181-0.351 0.43-0.576 0.552-0.5s0.851 0.070 1.621-0.013c1.637-0.175 1.562-0.487-0.164-0.681-1.358-0.153-1.697-0.365-1.697-1.062 0-0.47 0.087-0.51 1.125-0.522 1.528-0.017 2.907-0.277 2.574-0.485-0.145-0.091-1.076-0.223-2.068-0.293-1.644-0.116-1.825-0.174-2.042-0.649-0.358-0.786-0.101-0.976 1.133-0.835 0.604 0.069 1.436 0.049 1.848-0.043 0.733-0.164 0.72-0.174-0.643-0.433-0.766-0.146-1.666-0.353-2-0.459-0.482-0.154-0.584-0.133-0.494 0.102 0.062 0.163-0.081 0.543-0.319 0.845-0.344 0.437-0.548 0.52-1 0.407-0.565-0.142-0.566-0.14-0.21 0.403 0.298 0.455 0.311 0.609 0.080 0.925-0.213 0.292-0.443 0.347-0.992 0.237l-0.714-0.143 0.943 1.004-0.45 0.407c-0.279 0.253-0.687 0.382-1.074 0.341-0.614-0.064-0.845 0.234-0.397 0.511 0.357 0.221-0.43 0.955-1.024 0.955-0.283 0-0.464 0.083-0.401 0.184 0.216 0.349-0.392 1.313-0.756 1.199-0.305-0.096-0.319-0.005-0.117 0.753 0.173 0.647 0.166 0.925-0.028 1.119-0.201 0.201-0.262 0.143-0.275-0.267-0.017-0.519-0.019-0.518-0.232 0.064-0.118 0.324-0.301 0.589-0.406 0.589-0.109 0-0.103-0.231 0.013-0.535 0.249-0.655-0.089-0.73-0.478-0.107-0.147 0.236-0.352 0.428-0.455 0.428s-0.032-0.238 0.159-0.528c0.501-0.765 0.429-0.846-0.297-0.329-0.774 0.551-0.868 0.208-0.107-0.39 0.645-0.508 0.691-0.771 0.107-0.619-0.236 0.062-0.428 0.049-0.427-0.029 0.002-0.21 1.639-1.104 2.022-1.104 0.183 0 0.332-0.115 0.332-0.255s0.336-0.598 0.747-1.017c1.591-1.626 2.688-3.057 3.13-4.084 0.253-0.589 0.527-1.070 0.609-1.070s0.282-0.488 0.444-1.085c0.162-0.597 0.369-1.13 0.46-1.186s0.529 0.082 0.975 0.306 1.196 0.469 1.667 0.544l0.857 0.136-1.178-0.62c-0.648-0.341-1.353-0.813-1.567-1.050-0.376-0.417-0.374-0.44 0.074-0.754 0.403-0.282 0.555-0.285 1.185-0.022 0.398 0.166 1.184 0.291 1.747 0.277s0.832-0.073 0.596-0.133c-0.236-0.059-0.669-0.2-0.964-0.313l-0.536-0.205 0.489-0.398c0.401-0.327 0.603-0.358 1.127-0.176 0.351 0.122 0.798 0.161 0.993 0.086 0.546-0.209 0.050-0.556-0.843-0.59-0.631-0.024-0.797-0.126-0.905-0.556-0.073-0.29-0.103-0.549-0.068-0.577s0.245-0.148 0.467-0.267c0.351-0.189 0.302-0.236-0.375-0.363-0.642-0.12-0.778-0.237-0.778-0.668 0-0.378 0.148-0.559 0.536-0.656 0.602-0.151 0.695-0.409 0.214-0.594-0.491-0.189-0.388-0.527 0.375-1.232 0.758-0.7 1.468-0.72 2.459-0.070 0.63 0.413 0.446 0.737-0.419 0.737-0.812 0-0.654 0.212 0.304 0.408 0.889 0.182 1.054 0.8 0.356 1.336-0.277 0.213-0.408 0.392-0.29 0.396s0.348 0.092 0.511 0.196c0.24 0.152 0.188 0.329-0.268 0.927-0.881 1.154-0.717 1.728 0.625 2.189l0.825 0.284-0.74 0.451c-0.407 0.248-0.903 0.451-1.102 0.452-0.634 0.001-0.658 0.428-0.025 0.462 1.089 0.058 1.865-0.067 2.301-0.373 0.237-0.166 0.534-0.302 0.661-0.302 0.329 0 0.799 1.42 0.638 1.929-0.077 0.241-0.038 0.428 0.089 0.428 0.123 0 0.428 0.4 0.677 0.888 0.354 0.694 0.405 0.994 0.232 1.373-0.188 0.413-0.151 0.504 0.248 0.613 0.492 0.135 1.646 1.635 1.646 2.138 0 0.161 0.177 0.34 0.392 0.396s0.674 0.538 1.017 1.071c0.344 0.533 1.035 1.23 1.535 1.549s0.91 0.67 0.91 0.78c0 0.11-0.265 0.313-0.589 0.452l-0.589 0.253 0.667 0.075c0.388 0.044 0.92 0.339 1.272 0.706 0.693 0.723 0.534 0.838-0.278 0.2-0.704-0.554-0.818-0.423-0.376 0.431 0.482 0.931 0.236 1.078-0.309 0.185l-0.439-0.72-0.034 1.499-0.289-0.75c-0.263-0.683-0.292-0.702-0.326-0.214-0.029 0.42-0.104 0.328-0.347-0.428-0.222-0.692-0.246-1.069-0.086-1.336 0.307-0.511 0.284-0.592-0.168-0.592-0.491 0-1.323-0.865-1.323-1.375 0-0.253-0.109-0.342-0.321-0.261-0.526 0.202-1.821-1.085-1.821-1.809 0-0.476-0.12-0.646-0.527-0.748-0.569-0.143-1.401-1.352-1.401-2.037 0-0.233-0.144-0.478-0.319-0.545s-0.431-0.495-0.567-0.95c-0.201-0.669-0.191-0.897 0.052-1.191 0.273-0.331 0.258-0.341-0.168-0.114-0.257 0.137-0.707 0.249-1 0.249s-0.685 0.059-0.871 0.13c-0.651 0.25-0.331 0.513 0.625 0.513 0.926 0 0.964 0.025 0.964 0.636 0 0.472-0.148 0.713-0.575 0.937l-0.575 0.301 0.49 0.156c0.417 0.132 0.47 0.257 0.358 0.83-0.073 0.371-0.29 0.792-0.483 0.936-0.276 0.206-0.296 0.326-0.095 0.568 0.14 0.169 0.34 0.605 0.445 0.969 0.16 0.557 0.118 0.712-0.266 0.981-0.451 0.316-0.449 0.321 0.223 0.556 0.527 0.184 0.709 0.396 0.812 0.946 0.217 1.154 0.061 1.49-0.746 1.609l-0.727 0.107 0.783 0.371c0.772 0.366 0.783 0.389 0.783 1.648 0 1.049-0.079 1.332-0.444 1.588-0.374 0.262-0.403 0.376-0.185 0.727 0.183 0.293 0.198 0.599 0.052 1.040-0.287 0.86-0.822 0.905-1.236 0.103zM16.292 24.832c0.328-0.095 0.333-0.154 0.049-0.588-0.399-0.609-0.218-1.098 0.515-1.39 0.514-0.205 0.485-0.217-0.286-0.121-0.471 0.059-1.227 0.108-1.679 0.109l-0.822 0.002 0.555 0.659c0.305 0.363 0.555 0.903 0.555 1.201 0 0.432 0.076 0.511 0.375 0.388 0.206-0.085 0.539-0.202 0.74-0.26z"></path>
</svg>
