<!-- Generated by IcoMoon.io -->
<svg version="1.1" xmlns="http://www.w3.org/2000/svg" width="31" height="32" viewBox="0 0 31 32">
<title>the_doom_of_eztli</title>
<path d="M14.13 29.078c-0.451-0.814-1.104-1.838-1.452-2.276s-0.701-1.046-0.784-1.352c-0.084-0.306-0.186-1.803-0.228-3.325l-0.075-2.768-0.541-0.573c-0.819-0.868-1.862-2.501-1.866-2.925-0.002-0.19-1.297-1.88-2.274-2.968l-0.491-0.547 0.454-1.283c0.25-0.705 0.845-2.035 1.323-2.954 1.034-1.989 1.487-2.889 1.872-3.72 0.161-0.348 0.603-0.848 1.014-1.146 0.4-0.291 1-0.821 1.332-1.178s0.672-0.607 0.756-0.555c0.289 0.179 0.154 1.077-0.239 1.593-0.215 0.282-0.568 0.913-0.785 1.403s-0.618 1.216-0.893 1.615c-0.275 0.399-0.641 1.064-0.813 1.476s-0.485 1.108-0.694 1.546c-0.689 1.442-1.197 2.74-1.197 3.055 0 0.171 0.251 0.663 0.557 1.093s0.557 0.878 0.557 0.994c0 0.116 1.020 1.215 2.266 2.442l2.266 2.231 0.186 3.127c0.102 1.72 0.299 4.304 0.436 5.742s0.224 2.641 0.191 2.674c-0.033 0.032-0.428-0.607-0.879-1.421zM16.117 28.433c-0.056-0.634-0.177-1.905-0.269-2.824s-0.143-2.823-0.114-4.232l0.054-2.561 0.796-0.8c1.452-1.46 2.538-2.778 3.262-3.959 0.394-0.642 1.092-1.562 1.551-2.045s0.835-0.991 0.835-1.13c0-0.305-1.714-3.447-2.581-4.732-0.342-0.507-0.945-1.318-1.34-1.802-0.479-0.588-0.794-1.176-0.948-1.766-0.262-1.005-0.204-1.176 0.255-0.76 0.176 0.159 0.362 0.248 0.414 0.196 0.143-0.143 2.32 2.543 3.833 4.729 0.934 1.35 2.466 4.364 2.333 4.592-0.061 0.104-0.451 0.548-0.868 0.985-1.198 1.259-2.549 2.93-3.347 4.138-1.352 2.050-1.303 1.847-1.38 5.614-0.067 3.24-0.086 3.409-0.441 3.898-0.375 0.517-1.098 1.921-1.553 3.018-0.136 0.328-0.28 0.597-0.319 0.597s-0.117-0.519-0.173-1.154zM14.012 13.396c-0.517-0.766-1.147-1.879-1.399-2.475l-0.459-1.083 0.347-0.668c0.686-1.321 1.23-2.19 1.777-2.839 0.306-0.364 0.581-0.722 0.61-0.796 0.134-0.34 0.536-0.074 0.816 0.541 0.4 0.878 1.039 2.569 1.282 3.396 0.176 0.599 0.159 0.703-0.214 1.294-0.508 0.805-1.146 2.31-1.39 3.28-0.103 0.408-0.241 0.742-0.308 0.742s-0.544-0.627-1.061-1.392z"></path>
</svg>
