<!-- Generated by IcoMoon.io -->
<svg version="1.1" xmlns="http://www.w3.org/2000/svg" width="32" height="32" viewBox="0 0 32 32">
<title>the_machine_in_yellow</title>
<path d="M26.868 27.916c-0.232-0.101-0.356-0.276-0.452-0.641-0.062-0.234-0.054-0.301 0.061-0.539 0.141-0.29 0.594-0.662 1.004-0.823 0.217-0.085 0.248-0.082 0.526 0.060 0.352 0.18 0.511 0.45 0.512 0.869 0 0.343-0.082 0.584-0.267 0.786-0.311 0.339-0.957 0.474-1.384 0.288zM4.941 27.837c-0.156-0.078-0.248-0.188-0.335-0.4-0.153-0.373-0.081-0.654 0.273-1.056 0.696-0.79 1.736-0.53 1.73 0.433-0.002 0.301-0.185 0.703-0.396 0.869-0.16 0.125-0.641 0.263-0.921 0.263-0.075-0-0.233-0.049-0.352-0.108zM10.015 27.837c-0.469-0.234-0.562-0.897-0.208-1.475 0.14-0.229 0.246-0.324 0.429-0.388 0.23-0.080 0.272-0.073 0.769 0.124 0.463 0.183 0.54 0.236 0.639 0.44 0.147 0.302 0.064 0.576-0.292 0.964-0.408 0.444-0.883 0.563-1.338 0.336zM22.021 27.814c-0.228-0.090-0.593-0.501-0.681-0.767-0.101-0.305-0.002-0.647 0.247-0.856 0.34-0.286 1.376-0.39 1.795-0.18 0.444 0.222 0.549 0.823 0.229 1.308-0.268 0.406-1.134 0.675-1.59 0.496zM15.536 27.546c-0.236-0.107-0.443-0.499-0.445-0.842-0.001-0.12 0.061-0.342 0.138-0.493 0.12-0.236 0.191-0.295 0.511-0.422 0.427-0.169 0.902-0.165 1.171 0.011 0.089 0.058 0.247 0.286 0.351 0.506 0.167 0.353 0.181 0.425 0.121 0.608-0.038 0.114-0.131 0.266-0.208 0.338-0.317 0.298-1.258 0.466-1.639 0.293zM18.968 24.501c-0.022-0.022-0.73-0.062-1.573-0.089s-2.159-0.081-2.925-0.12c-0.938-0.048-2.613-0.059-5.137-0.033-2.059 0.022-3.827 0.037-3.928 0.035-0.153-0.004-0.592-0.14-1.1-0.342-0.256-0.102-0.125-0.175 0.634-0.352 0.289-0.067 0.799-0.174 1.133-0.236 0.36-0.068 0.699-0.172 0.835-0.257l0.229-0.143 2.997-0.018c1.648-0.010 3.625 0.013 4.394 0.051 3.367 0.165 4.613 0.204 6.503 0.205 2.596 0.001 4.135-0.045 4.342-0.131 0.103-0.043 0.373-0.055 0.724-0.032 0.308 0.020 0.763 0.006 1.011-0.032s0.73-0.076 1.070-0.086l0.619-0.018 0.113 0.232c0.096 0.196 0.102 0.266 0.041 0.451-0.127 0.386-0.236 0.417-1.756 0.504-0.753 0.043-1.438 0.094-1.523 0.114-0.174 0.040-0.687 0.104-1.949 0.243-0.88 0.096-4.669 0.142-4.754 0.057zM18.259 22.282c-0.342-0.148-0.387-0.353-0.453-2.067-0.032-0.837-0.054-2.622-0.048-3.967s-0.009-2.517-0.034-2.606c-0.121-0.44 0.36-0.881 0.802-0.735 0.189 0.062 0.214 0.1 0.279 0.421 0.039 0.194 0.173 0.589 0.298 0.878l0.226 0.526-0.004 2.321c-0.002 1.276-0.030 2.879-0.062 3.561-0.065 1.38-0.103 1.51-0.494 1.673-0.253 0.106-0.254 0.106-0.51-0.006zM12.256 21.787c-0.344-0.149-0.395-0.373-0.325-1.406 0.033-0.486 0.092-1.176 0.132-1.533 0.047-0.427 0.061-1.363 0.040-2.732-0.037-2.481-0.036-2.488 0.541-2.752 0.302-0.138 0.368-0.148 0.561-0.085 0.29 0.096 0.4 0.281 0.465 0.786 0.030 0.231 0.1 0.573 0.156 0.76 0.152 0.507 0.093 1.683-0.127 2.538-0.267 1.033-0.276 1.097-0.464 3.151-0.085 0.927-0.166 1.153-0.461 1.276-0.26 0.109-0.261 0.109-0.517-0.003zM25.084 18.785c-0.306-0.204-0.671-0.415-0.811-0.469-0.287-0.11-0.515-0.364-1.032-1.145-0.634-0.958-1.257-2.486-1.651-4.049-0.481-1.907-0.494-2.041-0.496-5.121l-0.002-2.646h-10.657l0.036 0.294c0.020 0.162 0.054 1.145 0.076 2.186 0.047 2.163 0.033 2.294-0.385 3.678-0.506 1.674-0.751 2.343-1.091 2.971-0.384 0.709-1.099 1.822-1.254 1.95-0.057 0.048-0.231 0.255-0.386 0.461-0.39 0.518-0.619 0.736-0.943 0.9-0.153 0.078-0.428 0.236-0.61 0.353s-0.349 0.195-0.369 0.174c-0.021-0.021-0.068-0.154-0.106-0.298s-0.087-0.317-0.11-0.386c-0.046-0.137-0.003-0.202 0.607-0.92 1.35-1.587 1.976-2.485 2.497-3.581 0.202-0.425 0.388-0.839 0.412-0.92s0.066-0.175 0.091-0.209c0.127-0.171 0.38-1.117 0.431-1.609 0.117-1.147 0.194-1.743 0.267-2.073 0.044-0.2 0.076-0.816 0.076-1.494 0.001-1.312 0.005-1.3-0.539-1.576-0.28-0.142-0.345-0.148-1.578-0.149-0.707-0-1.746 0.031-2.307 0.071s-1.211 0.051-1.443 0.026c-0.358-0.038-0.431-0.067-0.487-0.189-0.109-0.24 0.106-0.6 0.414-0.694 0.684-0.208 4.824-0.271 5.57-0.084 0.235 0.059 0.863 0.068 2.599 0.038 2.17-0.038 2.952-0.072 4.827-0.215 1.042-0.079 4.912-0.081 5.632-0.003 0.306 0.033 0.905 0.090 1.331 0.125s0.923 0.091 1.106 0.123c0.183 0.032 0.921 0.087 1.64 0.121 1.901 0.091 2.069 0.111 2.112 0.248 0.020 0.063-0.006 0.215-0.057 0.338-0.166 0.397-0.221 0.405-2.951 0.405-1.608 0-2.502-0.023-2.655-0.069-0.278-0.083-0.507 0.006-0.706 0.275-0.125 0.17-0.129 0.235-0.116 2.011 0.014 1.93 0.065 2.483 0.38 4.126 0.033 0.17 0.091 0.49 0.129 0.712s0.098 0.564 0.133 0.762c0.069 0.39 0.323 1.082 0.756 2.055 0.472 1.060 0.843 1.628 1.547 2.362 0.709 0.739 1.031 1.099 1.032 1.152 0.001 0.064-0.288 0.353-0.352 0.353-0.027-0-0.3-0.167-0.606-0.372zM12.181 11.189c-0.257-0.129-0.433-0.445-0.433-0.781-0-0.309 0.392-1.201 0.609-1.385 0.090-0.076 0.3-0.184 0.466-0.24 0.448-0.149 0.692-0.056 1.084 0.413 0.347 0.416 0.432 0.687 0.324 1.046-0.121 0.405-0.272 0.529-0.972 0.8-0.746 0.289-0.782 0.294-1.078 0.146zM18.048 11.124c-0.125-0.065-0.33-0.135-0.455-0.155-0.357-0.058-0.508-0.193-0.614-0.549-0.166-0.559-0.1-0.873 0.282-1.348 0.348-0.433 1.15-0.611 1.521-0.338 0.228 0.168 0.381 0.628 0.426 1.28 0.029 0.421 0.016 0.547-0.077 0.722-0.231 0.435-0.682 0.597-1.083 0.388z"></path>
</svg>
