<!-- Generated by IcoMoon.io -->
<svg version="1.1" xmlns="http://www.w3.org/2000/svg" width="32" height="32" viewBox="0 0 32 32">
<title>threatening_evil</title>
<path d="M10.958 27.272v0-0.009c-0.001-0.181-0.048-0.322-0.051-0.453-0.005-0.12-0.005-0.238-0.033-0.375-0.067-0.309-0.191-0.543-0.434-0.751h-0.001c-0.17-0.148-0.365-0.252-0.593-0.304-0.155-0.033-0.293-0.038-0.409-0.067v0c-0.115-0.028-0.232-0.063-0.369-0.071v0c-0.033-0.002-0.064-0.002-0.095-0.002-0.237 0-0.457 0.038-0.673 0.067-0.228 0.033-0.527 0.009-0.795 0.155-0.268 0.15-0.441 0.375-0.54 0.622-0.101 0.248-0.135 0.521-0.135 0.785v0.388l0.228-0.308c0.098-0.131 0.16-0.206 0.205-0.254 0.047-0.049 0.069-0.071 0.099-0.106v0c0.107-0.12 0.207-0.244 0.316-0.327 0.096-0.077 0.264-0.139 0.383-0.139v0h0.003c0.058-0.003 0.156 0.033 0.272 0.048 0.117 0.009 0.226 0.014 0.327 0.028v0c0.166 0.019 0.343 0.042 0.465 0.106 0.186 0.095 0.311 0.236 0.393 0.407s0.119 0.375 0.119 0.581c0 0.12-0.014 0.24-0.033 0.356-0.024 0.122-0.038 0.218-0.064 0.293-0.024 0.077-0.059 0.136-0.135 0.205-0.111 0.103-0.308 0.138-0.503 0.152-0.047 0.005-0.091 0.005-0.136 0.005-0.266 0-0.493-0.066-0.783-0.146-0.191-0.055-0.332-0.146-0.476-0.261-0.143-0.115-0.285-0.255-0.471-0.386l-0.066-0.047-0.069 0.042c-0.061 0.033-0.095 0.088-0.111 0.136-0.019 0.048-0.019 0.095-0.019 0.139 0.002 0.074 0.014 0.141 0.024 0.191 0.033 0.128 0.066 0.258 0.098 0.393 0.028 0.123 0.053 0.24 0.107 0.354s0.144 0.219 0.277 0.298c0.141 0.085 0.314 0.164 0.487 0.197v0c0.232 0.042 0.453 0.033 0.647 0.072v0c0.107 0.019 0.212 0.038 0.33 0.042v0h0.019c0.168-0.002 0.298-0.042 0.425-0.055l0.051-0.002c0.047 0 0.096 0.005 0.155 0.005 0.038 0 0.077-0.002 0.12-0.009 0.311-0.056 0.614-0.165 0.863-0.348 0.25-0.181 0.445-0.439 0.53-0.774 0.047-0.181 0.053-0.359 0.053-0.529 0-0.098-0.002-0.194-0.002-0.287v-0.055z"></path>
<path d="M6.476 22.593v0l-0.002 0.002zM7.124 23.138c0.055-0.071 0.114-0.146 0.16-0.242 0.090-0.191 0.13-0.381 0.18-0.559 0.038-0.147 0.125-0.327 0.127-0.537 0-0.024 0-0.049-0.003-0.077-0.028-0.237-0.139-0.431-0.288-0.577-0.147-0.146-0.332-0.25-0.521-0.328l-0.352-0.146 0.196 0.328c0.063 0.104 0.096 0.17 0.117 0.213 0.019 0.047 0.028 0.067 0.047 0.101 0.055 0.112 0.111 0.214 0.135 0.311 0.009 0.033 0.019 0.079 0.019 0.124 0 0.059-0.009 0.122-0.028 0.163-0.009 0.033-0.064 0.093-0.112 0.176v0c-0.042 0.079-0.075 0.154-0.114 0.218v0.002c-0.064 0.111-0.128 0.224-0.202 0.285-0.125 0.107-0.264 0.149-0.416 0.149-0.208 0.002-0.437-0.087-0.623-0.208-0.079-0.053-0.141-0.090-0.184-0.127s-0.069-0.074-0.095-0.142c-0.009-0.028-0.019-0.064-0.019-0.103 0-0.080 0.024-0.178 0.056-0.272 0.075-0.231 0.196-0.381 0.36-0.591 0.090-0.114 0.191-0.183 0.311-0.248s0.26-0.125 0.408-0.218l0.067-0.042-0.009-0.079c-0.005-0.056-0.033-0.101-0.066-0.128-0.047-0.042-0.093-0.064-0.138-0.080-0.047-0.014-0.085-0.024-0.117-0.028v0.002c-0.101-0.014-0.2-0.028-0.303-0.048v0.002c-0.083-0.014-0.162-0.028-0.248-0.028-0.111-0.002-0.232 0.028-0.343 0.114v0c-0.101 0.075-0.208 0.174-0.285 0.29-0.101 0.154-0.158 0.311-0.24 0.431-0.047 0.069-0.090 0.138-0.127 0.222-0.055 0.128-0.064 0.238-0.093 0.328-0.014 0.053-0.063 0.12-0.090 0.234-0.028 0.128-0.047 0.261-0.047 0.392-0.002 0.349 0.12 0.702 0.434 0.937 0.196 0.146 0.412 0.21 0.599 0.292v0c0.135 0.057 0.252 0.066 0.341 0.101 0.083 0.028 0.168 0.066 0.277 0.085v0c0.079 0.014 0.154 0.024 0.226 0.024 0.15 0 0.294-0.038 0.444-0.111 0.155-0.079 0.292-0.188 0.396-0.335 0.072-0.103 0.112-0.197 0.165-0.264v-0.002z"></path>
<path d="M9.057 16.716l0.028-0.075 0.009-0.053 0.028 0.338c0.005 0.075 0.005 0.125 0.005 0.16 0 0.051-0.003 0.067-0.003 0.104v0.079c0 0.063-0.002 0.12-0.009 0.168-0.009 0.056-0.056 0.139-0.096 0.173v0c-0.009 0.014-0.066 0.038-0.131 0.080v0c-0.057 0.038-0.104 0.079-0.15 0.109v0c-0.080 0.056-0.16 0.107-0.222 0.124-0.038 0.009-0.074 0.014-0.109 0.014-0.106 0-0.208-0.042-0.303-0.112s-0.178-0.17-0.238-0.276c-0.033-0.055-0.059-0.098-0.075-0.131-0.014-0.033-0.024-0.057-0.024-0.093l0.002-0.033c0.005-0.063 0.067-0.144 0.144-0.222 0.125-0.128 0.252-0.187 0.434-0.274 0.093-0.047 0.179-0.057 0.282-0.063 0.101-0.003 0.216 0.003 0.352-0.009l0.079-0.009zM9.113 17.442v-0.002zM7.33 18.283v0c0.079 0.089 0.154 0.135 0.199 0.184 0.047 0.048 0.095 0.103 0.165 0.154 0.147 0.111 0.304 0.173 0.493 0.17h0.009c0.136 0 0.271-0.028 0.396-0.098v0c0.087-0.048 0.146-0.098 0.2-0.123 0.061-0.028 0.127-0.063 0.194-0.115v0c0.128-0.101 0.221-0.22 0.312-0.324 0.080-0.095 0.226-0.198 0.294-0.384 0.028-0.083 0.042-0.166 0.042-0.248-0.002-0.264-0.138-0.487-0.293-0.666l-0.253-0.287 0.001 0.024c-0.005-0.074-0.042-0.119-0.067-0.152-0.033-0.033-0.064-0.061-0.091-0.079h0.002c-0.064-0.042-0.125-0.087-0.189-0.133-0.049-0.038-0.098-0.071-0.157-0.101-0.058-0.028-0.13-0.053-0.207-0.053-0.028 0-0.059 0.003-0.090 0.009-0.096 0.019-0.205 0.048-0.301 0.104-0.123 0.074-0.216 0.16-0.306 0.213-0.055 0.028-0.109 0.064-0.165 0.112-0.085 0.072-0.128 0.144-0.176 0.194-0.019 0.024-0.079 0.056-0.139 0.13h-0.001c-0.157 0.196-0.272 0.434-0.274 0.692 0 0.123 0.028 0.252 0.089 0.373 0.088 0.17 0.215 0.288 0.312 0.404z"></path>
<path d="M17.285 28.583c-0.055-0.114-0.133-0.224-0.194-0.336-0.354-0.65-1.025-1.094-1.745-1.238-0.21-0.042-0.428-0.080-0.641-0.093-0.261-0.014-0.513 0.033-0.771 0.047-0.466 0.024-0.953 0.103-1.283 0.471-0.213 0.237-0.336 0.615-0.336 0.932 0 0.055 0 0.12 0.005 0.189l-0.074-0.236c-0.009 0.17-0.099 0.319-0.106 0.49-0.009 0.228 0.077 0.389 0.189 0.582 0.162 0.282 0.418 0.598 0.74 0.708 0.028-0.293-0.028-0.597 0.024-0.886s0.091-0.575 0.288-0.817c0.223-0.272 0.458-0.423 0.82-0.418 0.341 0.005 0.682-0.033 1.006 0.093 0.276 0.109 0.519 0.327 0.7 0.553 0.19 0.239 0.268 0.412 0.296 0.719 0.019 0.165 0.051 0.351 0.053 0.519 0 0.13-0.042 0.256-0.042 0.388 0 0.097 0.009 0.178-0.024 0.269-0.028 0.079-0.085 0.119-0.122 0.186-0.033 0.056-0.038 0.112-0.080 0.158-0.056 0.063-0.17 0.082-0.248 0.109-0.139 0.048-0.277 0.091-0.423 0.12-0.296 0.059-0.726 0.079-1.016-0.033-0.157-0.063-0.274-0.219-0.442-0.256-0.047 0.061 0.057 0.298 0.095 0.373 0.065 0.138 0.179 0.226 0.325 0.28 0.064 0.024 0.139 0.050 0.205 0.061 0.047-0.002 0.093-0.003 0.139-0.005 0.024 0.003 0.047 0.019 0.055 0.038 0.243 0.055 0.5 0.107 0.746 0.158 0.304 0.063 0.577 0.038 0.883-0.014 0.184-0.028 0.465-0.107 0.593-0.244 0.179-0.194 0.262-0.428 0.394-0.654 0.131-0.228 0.173-0.498 0.184-0.759 0.019-0.392 0.019-0.778-0.101-1.15-0.033-0.103-0.047-0.21-0.093-0.308z"></path>
<path d="M23.123 25.087c-0.184-0.112-0.376-0.224-0.575-0.306-0.24-0.098-0.497-0.125-0.746-0.194-0.45-0.123-0.942-0.189-1.389 0.112-0.29 0.194-0.546 0.57-0.663 0.92-0.019 0.061-0.042 0.131-0.066 0.208l0.019-0.282c-0.071 0.184-0.212 0.319-0.28 0.506-0.093 0.248-0.069 0.452-0.033 0.7 0.051 0.359 0.178 0.79 0.442 1.012 0.136-0.312 0.192-0.666 0.348-0.966 0.157-0.301 0.3-0.604 0.575-0.807 0.311-0.229 0.589-0.32 0.932-0.198 0.322 0.112 0.659 0.176 0.92 0.42 0.221 0.206 0.373 0.524 0.461 0.83 0.091 0.322 0.101 0.538 0.019 0.886-0.047 0.186-0.080 0.402-0.141 0.586-0.048 0.144-0.133 0.271-0.183 0.413-0.038 0.107-0.058 0.198-0.123 0.29-0.053 0.075-0.123 0.103-0.183 0.164-0.051 0.053-0.077 0.112-0.135 0.149-0.077 0.051-0.191 0.038-0.276 0.042-0.15 0.009-0.296 0.009-0.445-0.002-0.302-0.028-0.718-0.142-0.95-0.359-0.128-0.119-0.181-0.328-0.327-0.421-0.066 0.051-0.055 0.344-0.048 0.439 0.014 0.173 0.088 0.308 0.206 0.412 0.051 0.047 0.114 0.099 0.171 0.133 0.047 0.014 0.090 0.024 0.135 0.038 0.024 0.009 0.038 0.033 0.038 0.061 0.212 0.136 0.434 0.277 0.65 0.412 0.266 0.165 0.532 0.221 0.841 0.266 0.186 0.024 0.481 0.028 0.652-0.082 0.242-0.155 0.407-0.386 0.614-0.593 0.208-0.21 0.348-0.493 0.455-0.777 0.158-0.428 0.304-0.849 0.327-1.298 0.005-0.122 0.033-0.246 0.024-0.367-0.009-0.144-0.042-0.29-0.059-0.432-0.098-0.827-0.57-1.528-1.2-1.915z"></path>
<path d="M28.982 19.268c-0.12-0.94-0.678-1.741-1.411-2.187-0.214-0.13-0.441-0.258-0.671-0.352-0.28-0.114-0.578-0.147-0.868-0.228-0.525-0.144-1.097-0.224-1.615 0.114-0.335 0.218-0.628 0.642-0.759 1.038-0.024 0.069-0.050 0.15-0.074 0.237l0.019-0.322c-0.080 0.208-0.242 0.361-0.32 0.572-0.106 0.282-0.077 0.514-0.033 0.795 0.061 0.41 0.213 0.9 0.522 1.155 0.155-0.352 0.218-0.755 0.396-1.093 0.179-0.341 0.34-0.684 0.658-0.913 0.36-0.256 0.684-0.357 1.081-0.216 0.375 0.131 0.767 0.207 1.073 0.487 0.26 0.236 0.437 0.598 0.543 0.947 0.111 0.367 0.123 0.612 0.028 1.006-0.050 0.21-0.088 0.455-0.157 0.665-0.055 0.162-0.152 0.304-0.21 0.468-0.042 0.12-0.064 0.224-0.139 0.327-0.061 0.087-0.142 0.115-0.212 0.186-0.058 0.057-0.088 0.125-0.154 0.168-0.088 0.056-0.221 0.038-0.32 0.042-0.173 0.009-0.344 0.009-0.516-0.005-0.352-0.038-0.836-0.17-1.108-0.417-0.149-0.136-0.212-0.375-0.385-0.482-0.074 0.058-0.059 0.391-0.050 0.5 0.019 0.196 0.104 0.348 0.244 0.468 0.061 0.053 0.133 0.115 0.2 0.154 0.053 0.014 0.104 0.028 0.157 0.047 0.028 0.014 0.042 0.038 0.042 0.071 0.248 0.156 0.506 0.317 0.759 0.473 0.309 0.191 0.622 0.256 0.98 0.309 0.214 0.033 0.559 0.038 0.756-0.085 0.279-0.174 0.469-0.436 0.706-0.668 0.242-0.236 0.401-0.558 0.521-0.878 0.181-0.484 0.346-0.963 0.367-1.471 0.005-0.139 0.038-0.279 0.024-0.418-0.014-0.162-0.053-0.328-0.074-0.49z"></path>
<path d="M29.777 11.692c-0.028-0.532-0.077-1.054-0.297-1.541-0.059-0.133-0.093-0.277-0.17-0.402-0.093-0.147-0.214-0.285-0.316-0.428-0.578-0.828-1.572-1.336-2.589-1.431-0.296-0.028-0.604-0.049-0.902-0.033-0.364 0.019-0.706 0.115-1.062 0.168-0.646 0.095-1.309 0.272-1.717 0.816-0.262 0.352-0.383 0.88-0.34 1.307 0.005 0.075 0.019 0.164 0.033 0.254l-0.135-0.308c0.009 0.23-0.095 0.444-0.080 0.678 0.019 0.309 0.16 0.514 0.341 0.759 0.263 0.357 0.662 0.751 1.121 0.854 0.003-0.399-0.119-0.804-0.085-1.2 0.033-0.397 0.048-0.791 0.29-1.144 0.272-0.4 0.578-0.636 1.081-0.679 0.474-0.042 0.94-0.143 1.408-0.019 0.397 0.109 0.766 0.369 1.046 0.65 0.296 0.295 0.426 0.519 0.509 0.931 0.047 0.221 0.119 0.466 0.142 0.694 0.019 0.176-0.019 0.352-0.005 0.53 0.009 0.131 0.033 0.239 0.003 0.369-0.024 0.107-0.101 0.171-0.144 0.266-0.038 0.082-0.038 0.157-0.090 0.226-0.070 0.093-0.222 0.135-0.328 0.182-0.188 0.085-0.375 0.16-0.572 0.221-0.402 0.122-0.996 0.208-1.413 0.096-0.228-0.063-0.412-0.26-0.65-0.284-0.055 0.088 0.122 0.394 0.183 0.49 0.111 0.176 0.28 0.282 0.49 0.333 0.091 0.019 0.2 0.048 0.292 0.055 0.066-0.009 0.13-0.019 0.194-0.024 0.038 0 0.063 0.019 0.080 0.047 0.348 0.038 0.708 0.075 1.059 0.111 0.431 0.042 0.803-0.033 1.222-0.141 0.252-0.066 0.631-0.212 0.788-0.412 0.224-0.287 0.309-0.615 0.46-0.939 0.152-0.327 0.173-0.699 0.152-1.053z"></path>
<path d="M13.434 7.4l-0.327-0.2c0.16 0.208 0.202 0.476 0.367 0.684 0.218 0.279 0.485 0.376 0.814 0.487 0.477 0.162 1.107 0.268 1.604 0.064-0.258-0.373-0.636-0.671-0.862-1.062-0.228-0.394-0.471-0.771-0.476-1.258-0.005-0.549 0.125-0.969 0.567-1.338 0.415-0.348 0.783-0.746 1.304-0.932 0.441-0.157 0.953-0.154 1.399-0.075 0.468 0.083 0.735 0.208 1.083 0.537 0.184 0.176 0.413 0.359 0.583 0.554 0.133 0.152 0.212 0.343 0.341 0.498 0.096 0.115 0.188 0.2 0.242 0.343 0.047 0.117 0.019 0.226 0.038 0.343 0.019 0.098 0.067 0.17 0.064 0.269-0.005 0.13-0.12 0.27-0.189 0.384-0.119 0.2-0.244 0.392-0.388 0.577-0.298 0.376-0.795 0.844-1.256 1.011-0.253 0.090-0.553 0.028-0.791 0.158 0.005 0.117 0.368 0.288 0.488 0.34 0.22 0.091 0.445 0.080 0.674-0.009 0.099-0.038 0.22-0.085 0.309-0.139 0.055-0.049 0.109-0.099 0.164-0.15 0.033-0.024 0.069-0.024 0.106-0.009 0.348-0.191 0.708-0.391 1.059-0.588 0.429-0.24 0.727-0.553 1.049-0.928 0.191-0.224 0.45-0.607 0.466-0.897 0.024-0.413-0.114-0.775-0.184-1.174-0.070-0.404-0.293-0.764-0.543-1.081-0.375-0.476-0.758-0.932-1.28-1.245-0.141-0.085-0.268-0.197-0.421-0.264-0.181-0.077-0.386-0.125-0.572-0.194-1.080-0.396-2.336-0.222-3.347 0.352-0.295 0.168-0.596 0.348-0.865 0.554-0.328 0.252-0.583 0.569-0.881 0.851-0.54 0.508-1.045 1.105-1.070 1.877-0.019 0.5 0.214 1.070 0.535 1.443 0.055 0.064 0.122 0.139 0.196 0.216z"></path>
<path d="M12.704 20.608c0.082 0 0.16-0.002 0.234-0.002 0.009 0 0.019 0 0.024 0 0.002 0.057 0.014 0.115 0.038 0.165 0.042 0.087 0.114 0.139 0.171 0.171 0.059 0.033 0.112 0.055 0.157 0.077h0.002c0.101 0.049 0.23 0.085 0.373 0.087 0.109-0.002 0.238-0.019 0.343-0.13 0.067-0.074 0.106-0.155 0.135-0.232s0.047-0.149 0.061-0.206l0.003-0.005c0.009-0.019 0.038-0.074 0.042-0.127 0.003-0.024 0.003-0.048 0.003-0.069 0-0.038-0.002-0.066-0.003-0.087-0.002-0.042-0.005-0.090-0.019-0.138s-0.033-0.095-0.063-0.136v-0.002c-0.033-0.051-0.069-0.096-0.111-0.136-0.064-0.058-0.146-0.095-0.22-0.109s-0.141-0.014-0.215-0.014h-0.041c-0.056 0-0.111 0-0.165 0-0.024 0-0.048 0-0.072 0h-0.003c-0.066 0-0.122 0.009-0.17 0.019s-0.088 0.019-0.13 0.028h-0.002c-0.024 0.005-0.051 0.009-0.083 0.019-0.047 0.009-0.114 0.033-0.171 0.091-0.059 0.058-0.085 0.133-0.098 0.207-0.009 0.056-0.014 0.109-0.014 0.16 0 0.003 0 0.005 0.002 0.009h-0.005v0.359z"></path>
<path d="M14.698 23.927v0c0.111-0.033 0.268-0.055 0.391-0.168 0.042-0.038 0.064-0.080 0.087-0.119 0.024-0.038 0.038-0.072 0.053-0.091 0.15-0.23 0.332-0.465 0.538-0.622 0.244-0.189 0.581-0.325 0.812-0.638 0.139-0.194 0.236-0.399 0.354-0.572 0.055-0.079 0.131-0.158 0.213-0.248 0.080-0.090 0.164-0.188 0.219-0.311 0.082-0.186 0.067-0.38 0.071-0.532v-0.049c0-0.344-0.042-0.684-0.056-1.012-0.019-0.434-0.165-0.836-0.295-1.222-0.028-0.074-0.047-0.173-0.083-0.274v-0.002c-0.109-0.279-0.341-0.452-0.525-0.607-0.061-0.049-0.133-0.091-0.197-0.135s-0.12-0.083-0.138-0.107v0l-0.009-0.028c-0.005-0.014-0.009-0.028-0.028-0.059v0c-0.173-0.239-0.397-0.404-0.646-0.514-0.373-0.168-0.796-0.226-1.21-0.264-0.412-0.038-0.814-0.056-1.134-0.131h-0.002c-0.019-0.003-0.065-0.019-0.119-0.038-0.055-0.019-0.112-0.033-0.178-0.033-0.033 0-0.074 0.003-0.117 0.028v0c-0.033 0.019-0.042 0.038-0.049 0.049-0.014 0.024-0.019 0.042-0.024 0.058-0.019 0.063-0.028 0.142-0.038 0.229s-0.019 0.171-0.019 0.234l0.002 0.042 0.009 0.047c0.019 0.074 0.066 0.133 0.119 0.174 0.077 0.063 0.165 0.093 0.248 0.117s0.164 0.033 0.22 0.047c0.112 0.024 0.224 0.038 0.325 0.056s0.188 0.048 0.248 0.093c0.098 0.069 0.208 0.194 0.36 0.274 0.064 0.033 0.12 0.051 0.166 0.069 0.047 0.019 0.082 0.038 0.128 0.069 0.112 0.080 0.216 0.184 0.332 0.29 0.028 0.024 0.066 0.050 0.111 0.072 0.047 0.024 0.091 0.042 0.16 0.047 0.003 0 0.009-0.002 0.014-0.003 0.124 0.13 0.247 0.263 0.399 0.385v0c0.256 0.205 0.513 0.399 0.695 0.636 0.115 0.149 0.176 0.298 0.211 0.458 0.038 0.16 0.042 0.333 0.042 0.521 0 0.091-0.001 0.186-0.001 0.284 0 0.048 0 0.098 0 0.146 0 0.053 0 0.106 0.001 0.158v0.019c0 0.061-0.005 0.095-0.019 0.13-0.009 0.033-0.028 0.077-0.058 0.139-0.066 0.141-0.106 0.243-0.194 0.333-0.053 0.055-0.107 0.099-0.168 0.154-0.059 0.055-0.122 0.117-0.176 0.204-0.072 0.111-0.162 0.228-0.252 0.311-0.085 0.080-0.208 0.149-0.322 0.266-0.155 0.165-0.253 0.332-0.397 0.429-0.21 0.149-0.53 0.245-0.806 0.293v0c-0.232 0.042-0.479 0.024-0.75 0.069-0.125 0.019-0.256 0.024-0.399 0.048v0c-0.109 0.019-0.182 0.038-0.252 0.038-0.028 0-0.053-0.003-0.082-0.009-0.099-0.019-0.192-0.028-0.272-0.042-0.080-0.019-0.144-0.038-0.196-0.079l-0.033-0.038c-0.019-0.019-0.042-0.048-0.082-0.072-0.055-0.033-0.109-0.042-0.147-0.047s-0.063-0.005-0.080-0.009c-0.055-0.014-0.155-0.063-0.242-0.119-0.088-0.055-0.166-0.125-0.182-0.152-0.047-0.071-0.077-0.141-0.12-0.22s-0.093-0.164-0.176-0.244v0c-0.071-0.069-0.109-0.104-0.131-0.157-0.019-0.051-0.033-0.125-0.042-0.208-0.009-0.082-0.014-0.171-0.033-0.26-0.033-0.166-0.061-0.359-0.061-0.538 0-0.096 0.009-0.189 0.024-0.272 0.019-0.099 0.033-0.205 0.065-0.287 0.014-0.042 0.033-0.075 0.050-0.099 0.019-0.024 0.038-0.038 0.063-0.051v0c0.074-0.033 0.143-0.066 0.216-0.104 0.152-0.079 0.279-0.176 0.401-0.232v0c0.146-0.069 0.287-0.096 0.445-0.096 0.048 0 0.098 0.003 0.149 0.009l0.57 0.053-0.495-0.288c-0.277-0.162-0.623-0.23-0.953-0.232-0.122 0-0.24 0.009-0.354 0.028-0.192 0.033-0.311 0.101-0.45 0.165v0c-0.038 0.019-0.066 0.028-0.106 0.047-0.038 0.019-0.083 0.048-0.122 0.090-0.090 0.096-0.182 0.208-0.237 0.349-0.047 0.117-0.117 0.253-0.156 0.405-0.067 0.269-0.088 0.561-0.122 0.814-0.028 0.202-0.053 0.396-0.053 0.607l0.002 0.066c0.003 0.149 0.028 0.293 0.058 0.426 0.019 0.090 0.019 0.21 0.051 0.337 0.033 0.138 0.103 0.248 0.186 0.333 0.125 0.131 0.279 0.208 0.425 0.279 0.147 0.069 0.287 0.131 0.392 0.213 0.308 0.236 0.705 0.32 1.022 0.428 0.229 0.077 0.476 0.173 0.731 0.226 0.123 0.024 0.253 0.033 0.386 0.033 0.192 0 0.386-0.019 0.548-0.033 0.444-0.042 0.859-0.138 1.28-0.248z"></path>
<path d="M14.194 27c0.063 0.014 0.164 0.055 0.277 0.057l0.024-0.002c0.028 0.019 0.066 0.047 0.115 0.080l0.202 0.146v-0.248c0-0.156-0.009-0.298-0.042-0.455-0.014-0.075-0.019-0.157-0.019-0.242 0-0.138 0.014-0.284 0.014-0.433v-0.047c-0.009-0.279-0.109-0.505-0.138-0.721-0.028-0.197-0.066-0.38-0.192-0.569-0.115-0.171-0.202-0.416-0.423-0.589v0c-0.085-0.067-0.188-0.117-0.311-0.122-0.028-0.001-0.075-0.005-0.122-0.005-0.024 0-0.049 0-0.077 0.005-0.053 0.009-0.088 0.028-0.109 0.038l-0.024 0.009h-0.005l-0.376-0.055 0.269 0.269c0.009 0.009 0.033 0.047 0.056 0.088 0.024 0.042 0.047 0.093 0.080 0.141 0.019 0.028 0.038 0.047 0.048 0.059l0.019 0.024c0.019 0.024 0.028 0.095 0.051 0.173 0.090 0.285 0.2 0.574 0.224 0.843 0.019 0.214 0.079 0.409 0.099 0.591 0.003 0.024 0.005 0.053 0.005 0.080 0 0.066-0.005 0.139-0.005 0.221 0 0.047 0.002 0.098 0.009 0.152l0.003 0.019 0.009 0.019c0.014 0.033 0.024 0.064 0.028 0.098-0.002 0.042-0.003 0.083-0.005 0.123l-0.002 0.024 0.009 0.024c0.019 0.053 0.050 0.107 0.112 0.148 0.028 0.019 0.038 0.019 0.058 0.028 0.051 0.019 0.115 0.033 0.138 0.038z"></path>
<path d="M20.198 24.953l-0.059-0.141c-0.127-0.21-0.329-0.354-0.484-0.538-0.067-0.079-0.098-0.178-0.17-0.253-0.093-0.096-0.208-0.186-0.306-0.277-0.421-0.399-0.881-0.735-1.336-1.104-0.362-0.293-0.758-0.503-1.184-0.687-0.628 0.304-0.61 0.383-0.583 0.481 0.051 0.181 0.174 0.25 0.295 0.388 0.098 0.112 0.228 0.188 0.336 0.292 0.111 0.106 0.22 0.205 0.337 0.302 0.268 0.221 0.514 0.441 0.809 0.623 0.269 0.168 0.532 0.37 0.763 0.595 0.219 0.214 0.46 0.383 0.703 0.567 0.168 0.128 0.388 0.285 0.589 0.354 0.122 0.042 0.125-0.024 0.164-0.135 0.042-0.123 0.051-0.237 0.085-0.356 0.009-0.042 0.047-0.053 0.042-0.109z"></path>
<path d="M20.23 17.813c-0.181 0.024-0.362 0.005-0.541 0.033-0.208 0.033-0.417 0.064-0.627 0.082-0.264 0.024-0.524 0.009-0.79 0.038s-0.589 0.072-0.844 0.158c-0.125 0.042-0.509 0.131-0.537 0.292 0.098 0.101-0.009 0.5 0.242 0.533 0.2 0.028 0.42-0.033 0.618-0.050 0.341-0.028 0.676-0.099 1.017-0.097 0.944 0.005 1.879 0.051 2.811 0.191 0.344 0.051 0.689 0.091 1.033 0.149 0.213 0.038 0.429 0.051 0.642 0.085 0.103 0.019 0.213 0.063 0.316 0.056 0.033-0.253 0-0.556-0.071-0.799-0.053-0.181-0.188-0.184-0.364-0.214-0.599-0.104-1.134-0.493-1.761-0.484-0.381 0.005-0.77-0.028-1.147 0.024z"></path>
<path d="M21.074 11.461c-0.183 0.087-0.364 0.171-0.545 0.261-0.45 0.228-0.897 0.451-1.338 0.694-0.211 0.116-0.405 0.247-0.589 0.402-0.163 0.138-0.303 0.301-0.471 0.433-0.22 0.17-0.442 0.319-0.644 0.511-0.186 0.178-0.396 0.308-0.593 0.469-0.21 0.175-0.333 0.413-0.505 0.623-0.12 0.149-0.236 0.292-0.34 0.453-0.187 0.292-0.301 0.578-0.3 0.924-0.069 0.162 0.095 0.168 0.266 0.119 0.166-0.050 0.198-0.077 0.224-0.239 0.014-0.082 0.028-0.191 0.064-0.264 0.028-0.061 0.088-0.115 0.13-0.166 0.127-0.158 0.245-0.319 0.381-0.468 0.204-0.224 0.439-0.429 0.692-0.597 0.476-0.319 0.923-0.679 1.413-0.976 0.407-0.248 0.77-0.548 1.169-0.807 0.364-0.237 0.75-0.389 1.126-0.596 0.133-0.075 0.27-0.123 0.416-0.168 0.168-0.053 0.287-0.133 0.441-0.214 0.229-0.122 0.485-0.212 0.723-0.32 0.090-0.042 0.266-0.051 0.264-0.166-0.003-0.3-0.46-0.316-0.652-0.317-0.301-0.002-0.593 0.075-0.875 0.172-0.16 0.055-0.306 0.168-0.46 0.24z"></path>
<path d="M13.318 16.366c0.061-0.218 0.038-0.445 0.038-0.671-0.002-0.3 0.050-0.588 0.048-0.889-0.002-0.391 0.028-0.782 0.059-1.173 0.019-0.264 0.014-0.543 0.063-0.804 0.042-0.226 0.127-0.449 0.192-0.668 0.115-0.384 0.306-0.767 0.524-1.101 0.207-0.319 0.349-0.666 0.535-0.998 0.154-0.271 0.378-0.503 0.514-0.78 0.101-0.205 0.143-0.397 0.207-0.612 0.033-0.115 0.067-0.204-0.009-0.298-0.088-0.111-0.218-0.165-0.344-0.207-0.188-0.063-0.383-0.098-0.585-0.075-0.106 0.009-0.207 0.051-0.309 0.074-0.164 0.038-0.242 0.063-0.333 0.218-0.119 0.197-0.277 0.386-0.349 0.607-0.204 0.623-0.325 1.277-0.482 1.916-0.072 0.296-0.111 0.602-0.156 0.903-0.080 0.551-0.16 1.102-0.226 1.657-0.088 0.74-0.074 1.482-0.077 2.225-0.001 0.22 0.005 0.42 0.038 0.633 0.002 0.019 0.003 0.028 0.005 0.047 0.055 0 0.106 0.003 0.136 0.003 0.168 0.002 0.338 0.019 0.506-0.005z"></path>
<path d="M10.73 23.556c-0.12 0-0.219 0.019-0.328 0.072-0.17 0.087-0.372 0.317-0.461 0.487-0.141 0.266-0.221 0.561-0.335 0.833-0.065 0.157-0.226 0.396-0.087 0.545 0.171 0.183 0.466 0.014 0.679 0 0.202-0.014 0.495-0.064 0.657-0.206 0.079-0.069 0.082-0.183 0.106-0.28 0.050-0.204 0.104-0.404 0.158-0.606 0.042-0.155 0.069-0.319 0.155-0.458 0.066-0.103 0.152-0.213 0.171-0.338-0.451 0.019-0.596-0.048-0.716-0.048z"></path>
<path d="M7.896 21.786c-0.103 0.028-0.196 0.024-0.303 0.024-0.091 0-0.187-0.028-0.226 0.071-0.024 0.056-0.003 0.158-0.003 0.22 0 0.138-0.042 0.343 0.077 0.439 0.117 0.095 0.433 0.061 0.567 0.048 0.109-0.009 0.205-0.048 0.316-0.051 0.069-0.002 0.158 0.019 0.222-0.003 0.141-0.047 0.279-0.226 0.317-0.36 0.038-0.139-0.003-0.309-0.061-0.458-0.178 0.002-0.354 0.005-0.533 0.038-0.128 0.019-0.248 0.002-0.373 0.038z"></path>
<path d="M9.074 18.056c-0.038 0.009-0.264 0.042-0.296 0.083-0.038 0.042-0.009 0.206-0.009 0.253 0.002 0.166 0.042 0.396 0.107 0.55 0.088 0.204 0.157 0.426 0.282 0.609 0.042 0.064 0.051 0.071 0.123 0.079 0.080 0.009 0.181-0.047 0.266-0.048 0.042-0.002 0.107 0.019 0.147 0.005 0.050-0.019 0.061-0.059 0.101-0.089 0.075-0.055 0.117-0.033 0.135-0.156l0.194-0.096c0.019-0.142-0.122-0.306-0.197-0.415-0.13-0.184-0.237-0.372-0.384-0.541-0.147-0.172-0.232-0.298-0.469-0.232z"></path>
</svg>
