<!-- Generated by IcoMoon.io -->
<svg version="1.1" xmlns="http://www.w3.org/2000/svg" width="32" height="32" viewBox="0 0 32 32">
<title>threads_of_fate</title>
<path d="M26.574 26.704c-0.008-0.052-0.010-0.116-0.023-0.163-0.010-0.038-0.027-0.055-0.037-0.092-0.025-0.078-0.037-0.19-0.060-0.278-0.023-0.103-0.057-0.193-0.087-0.289-0.098-0.32-0.185-0.687-0.323-0.99-0.065-0.141-0.153-0.24-0.231-0.368-0.057-0.098-0.113-0.173-0.183-0.251-0.065-0.072-0.125-0.17-0.193-0.235-0.078-0.075-0.155-0.121-0.233-0.215-0.117-0.138-0.243-0.265-0.374-0.374-0.076-0.065-0.081-0.023-0.103 0.062-0.050 0.183-0.146 0.313-0.215 0.479-0.066 0.153-0.13 0.333-0.178 0.509-0.033 0.125 0.023 0.13 0.087 0.211 0.193 0.253 0.381 0.473 0.546 0.732 0.043 0.067 0.091 0.11 0.135 0.168 0.065 0.081 0.118 0.186 0.171 0.286 0.055 0.103 0.097 0.225 0.145 0.334 0.062 0.143 0.125 0.271 0.176 0.421 0.14 0.401 0.198 0.883 0.221 1.386 0.008 0.171 0.011 0.321-0.023 0.524 0.097 0.201 0.235 0.085 0.378-0.14 0.135-0.213 0.311-0.489 0.411-0.785 0.065-0.19 0.048-0.414 0.038-0.571-0.006-0.138-0.023-0.241-0.045-0.363z"></path>
<path d="M26.323 21.39c-0.113-0.068-0.209-0.126-0.323-0.173-0.1-0.038-0.19-0.058-0.291-0.095-0.040-0.013-0.085-0.030-0.128-0.053-0.038-0.018-0.075-0.040-0.113-0.062-0.040-0.011-0.038-0.027-0.056 0.001-0.037 0.058 0.025 0.201 0.018 0.281-0.010 0.136-0.043 0.268 0.018 0.451 0.033 0.103 0.063 0.198 0.12 0.31 0.023 0.048 0.062 0.105 0.080 0.15 0.041 0.013 0.101 0.060 0.145 0.088 0.063 0.037 0.125 0.083 0.186 0.12 0.043 0.027 0.082 0.035 0.122 0.060 0.121 0.072 0.253 0.213 0.373 0.301 0.16 0.115 0.306 0.228 0.454 0.366 0.173 0.161 0.329 0.344 0.492 0.504 0.203 0.133 0.36 0.383 0.519 0.587 0.098 0.126 0.196 0.235 0.283 0.376 0.166 0.268 0.325 0.536 0.444 0.844 0.045 0.118 0.070 0.223 0.098 0.353 0.010 0.050 0 0.070 0.025 0.103 0.028 0.107 0.055 0.068 0.096-0.008 0.068-0.125 0.14-0.26 0.19-0.421 0.066-0.21 0.090-0.454 0.131-0.689-0.047-0.358-0.153-0.503-0.265-0.705-0.21-0.383-0.464-0.742-0.739-1.096-0.088-0.115-0.18-0.235-0.276-0.343-0.113-0.123-0.228-0.216-0.351-0.32-0.223-0.193-0.454-0.426-0.705-0.586-0.178-0.116-0.358-0.231-0.547-0.344z"></path>
<path d="M14.995 11.127c0.11 0.045 0.211 0.105 0.325 0.148 0.072 0.028 0.151 0.053 0.218 0.093 0.045 0.025 0.098 0.050 0.141 0.078 0.040 0.025 0.068 0.057 0.113 0.078 0.047 0.025 0.105 0.047 0.15 0.076 0.062 0.043 0.13 0.080 0.195 0.125 0.14 0.096 0.268 0.229 0.391 0.339 0.353 0.318 0.579 0.69 0.747 1.048 0.050 0.101 0.085 0.205 0.12 0.306 0.128 0.353-0.286 0.747 0.268 0.747-0.554 0.208-0.428 0.569-0.521 0.877-0.053 0.183-0.126 0.363-0.176 0.546-0.032 0.118-0.103 0.221-0.14 0.338-0.022 0.070-0.032 0.143-0.050 0.215-0.022 0.080-0.022 0.165-0.037 0.244-0.018 0.102-0.065 0.193-0.070 0.298-0.003 0.113-0.006 0.221-0.023 0.333-0.010 0.068-0.020 0.135-0.022 0.205v0.023c0.013 0.005 0.027 0.009 0.038 0.013 0.439 0.143 0.873 0.301 1.309 0.444 0.005-0.087 0.010-0.173 0.027-0.258 0.013-0.075 0.040-0.148 0.055-0.223 0.020-0.092 0.014-0.185 0.032-0.276 0.022-0.118 0.070-0.225 0.068-0.348 0-0.062-0.003-0.116 0.006-0.178 0.027-0.15-0.018-0.323-0.025-0.479-0.003-0.096-0.030-0.195-0.033-0.291-0.003-0.101 0.011-0.203 0.014-0.303 0.002-0.168-0.030-0.336-0.018-0.504 0.014-0.236 0.075-0.464 0.101-0.697 0.032-0.269 0-0.561 0-0.834 0-0.085-0.008-0.14-0.027-0.215-0.020-0.075-0.014-0.155-0.023-0.238-0.017-0.132-0.088-0.296-0.151-0.413-0.057-0.108-0.165-0.196-0.23-0.3-0.073-0.113-0.135-0.233-0.203-0.348-0.125-0.208-0.289-0.424-0.499-0.564-0.441-0.296-0.937-0.492-1.381-0.782-0.093-0.062-0.19-0.126-0.288-0.175-0.136-0.070-0.286-0.097-0.422-0.161-0.161-0.078-0.325-0.161-0.496-0.206-0.13-0.032-0.251-0.085-0.383-0.105-0.136-0.025-0.674-0.195-0.594 0.11 0.018 0.065 0.048 0.086 0.058 0.158 0.008 0.068-0.002 0.148-0.002 0.218s-0.022 0.22-0.003 0.281c0.035 0.122 0.248 0.12 0.366 0.146 0.16 0.038 0.308 0.118 0.467 0.173 0.198 0.067 0.404 0.15 0.606 0.235z"></path>
<path d="M10.001 9.679c0.176 0.070 0.326 0.1 0.533 0.095 0.266-0.006 0.487 0.095 0.742 0.15 0.068 0.017 0.138 0.020 0.208 0.028 0.057-0.136 0.255-0.547 0.13-0.682-0.052-0.057-0.135-0.050-0.201-0.075-0.055-0.022-0.1-0.058-0.15-0.086-0.16-0.090-0.339-0.1-0.511-0.153-0.19-0.060-0.361-0.092-0.541-0.161-0.151-0.062-0.346-0.138-0.446-0.281-0.065-0.093-0.062-0.213-0.203-0.14-0.066 0.035-0.093 0.116-0.118 0.178-0.030 0.073-0.052 0.15-0.081 0.23-0.011 0.030-0.048 0.093-0.057 0.118-0.013 0.053 0.003 0.102-0.008 0.153-0.020 0.085-0.058 0.11-0.057 0.215 0.002 0.143-0.038 0.188 0.107 0.215 0.193 0.035 0.383 0.082 0.567 0.161 0.030 0.013 0.060 0.027 0.086 0.037z"></path>
<path d="M18.285 20.053c-0.138-0.175-0.273-0.349-0.351-0.532-0.020-0.047-0.035-0.095-0.052-0.143-0.083-0.011-0.166-0.028-0.258-0.043-0.296-0.052-0.582-0.106-0.878-0.185 0.097 0.171 0.205 0.339 0.343 0.507 0.145 0.171 0.316 0.338 0.479 0.506 0.070 0.072 0.15 0.141 0.218 0.215 0.093 0.101 0.173 0.205 0.275 0.303 0.228 0.218 0.503 0.419 0.709 0.641 0.403 0.338 0.81 0.634 1.218 0.938 0.173 0.128 0.358 0.236 0.506 0.389 0.226 0.115 0.459 0.273 0.684 0.393 0.166 0.090 0.346 0.151 0.516 0.215 0.13 0.048 0.265 0.087 0.394 0.085 0.111-0.001 0.218 0.034 0.326 0.063 0.12-0.146 0.185-0.161 0.21-0.233 0.023-0.063 0.033-0.148 0.033-0.215 0.002-0.055 0.010-0.137-0.005-0.191-0.033-0.146-0.228-0.185-0.344-0.24-0.388-0.18-0.745-0.454-1.135-0.679-0.246-0.145-0.512-0.298-0.785-0.406-0.093-0.037-0.18-0.071-0.275-0.111-0.090-0.040-0.181-0.053-0.273-0.080-0.115-0.033-0.211-0.095-0.318-0.146-0.073-0.033-0.148-0.058-0.218-0.097-0.181-0.093-0.32-0.235-0.461-0.361-0.213-0.193-0.393-0.384-0.557-0.592z"></path>
<path d="M10.677 4.044c-0.195-0.108-0.398-0.208-0.587-0.323-0.286-0.171-0.521-0.3-0.83-0.416-0.584-0.218-1.181-0.408-1.788-0.554-0.904-0.218-1.784-0.532-2.687-0.742-0.193-0.045-0.383-0.168-0.576-0.193-0.097-0.011-0.136-0.008-0.228-0.052-0.072-0.032-0.108-0.052-0.19-0.053-0.233-0.009-0.448-0.106-0.684-0.156 0.128 0.201 0.376 0.354 0.564 0.496 0.181 0.135 0.348 0.32 0.554 0.421 0.256 0.123 0.469 0.303 0.74 0.413 0.229 0.092 0.452 0.22 0.675 0.326 0.173 0.080 0.358 0.128 0.527 0.213 0.135 0.068 0.256 0.131 0.403 0.205 0.338 0.166 0.684 0.216 1.030 0.351 0.097 0.038 0.191 0.025 0.285 0.052 0.025 0.006 0.062 0.040 0.075 0.043 0.082 0.018 0.126 0.045 0.2 0.067 0.201 0.060 0.411 0.136 0.619 0.188 0.176 0.045 0.335 0.138 0.506 0.203 0.123 0.048 0.25 0.133 0.369 0.195 0.289 0.151 0.566 0.321 0.824 0.521 0.266 0.205 0.544 0.444 0.764 0.727 0.121 0.158 0.201 0.343 0.279 0.526 0.1 0.243 0.205 0.479 0.298 0.729 0.136 0.364 0.356 0.815 0.353 1.21 0 0.125-0.040 0.245-0.057 0.368-0.008 0.080-0.006 0.16 0 0.241 0.011 0.143 0.052 0.283 0.060 0.428 0.008 0.216-0.060 0.431-0.14 0.631 0.028 0.003 0.055 0.006 0.082 0.009-0.011 0.033-0.023 0.070-0.035 0.103-0.088 0.243-0.198 0.479-0.24 0.734-0.057 0.126-0.107 0.241-0.15 0.368-0.066 0.188-0.121 0.381-0.183 0.567-0.043 0.123-0.107 0.231-0.133 0.361-0.022 0.098-0.035 0.195-0.073 0.283-0.027 0.058-0.060 0.111-0.082 0.168-0.013 0.033-0.020 0.068-0.027 0.105 0.22 0.103 0.451 0.18 0.677 0.288 0.186 0.090 0.376 0.201 0.569 0.28 0.090 0.035 0.183 0.062 0.275 0.093 0.108 0.042 0.208 0.092 0.316 0.136 0.11 0.045 0.22 0.086 0.331 0.125-0.006-0.033-0.014-0.065-0.023-0.098-0.035-0.128-0.072-0.255-0.13-0.386-0.1-0.223-0.101-0.466-0.105-0.684-0.005-0.23-0.006-0.459-0.014-0.697-0.008-0.215-0.011-0.439 0.005-0.654 0.014-0.18 0.063-0.348 0.063-0.534 0.002-0.107 0.005-0.211 0.011-0.32 0.006 0.001 0.017 0.003 0.023 0.006 0.011-0.105 0.023-0.211 0.030-0.318 0.005-0.075 0.013-0.153 0.020-0.229 0.033-0.326 0.073-0.714-0.065-1.021-0.148-0.336-0.081-0.664-0.156-1.013-0.030-0.133-0.098-0.245-0.14-0.374-0.032-0.096-0.045-0.196-0.078-0.294-0.065-0.186-0.151-0.419-0.165-0.616-0.014-0.251-0.090-0.473-0.153-0.712-0.095-0.361-0.3-0.607-0.572-0.86-0.158-0.146-0.351-0.304-0.539-0.403-0.191-0.098-0.335-0.258-0.511-0.366-0.060-0.037-0.123-0.073-0.186-0.108z"></path>
<path d="M12.407 17.502c0.161 0.12 0.349 0.226 0.542 0.325 0.434 0.221 0.94 0.359 1.401 0.547 0.133 0.055 0.296 0.105 0.439 0.133 0.073 0.014 0.133 0.022 0.201 0.047 0.048 0.017 0.093 0.033 0.146 0.048 0.429 0.108 0.87 0.193 1.304 0.283-0.037-0.076-0.072-0.151-0.103-0.228-0.050-0.12-0.088-0.238-0.111-0.358-0.002-0.006-0.002-0.014-0.003-0.020 0.032 0.115 0.073 0.23 0.126 0.344 0.037 0.081 0.076 0.163 0.12 0.244 0.211 0.047 0.421 0.093 0.631 0.141 0.261 0.001 0.442 0.047 0.631 0.065 0.045 0.005 0.090 0.008 0.135 0.009 0.141 0.001 0.279 0.003 0.424 0.018 0.183 0.073 0.416 0.097 0.599 0.175 0.072 0.031 0.141 0.068 0.216 0.1 0.097 0.037 0.205 0.053 0.298 0.095 0.080 0.035 0.145 0.073 0.226 0.105 0.115 0.042 0.221 0.097 0.329 0.146 0.135 0.058 0.271 0.102 0.403 0.17 0.111 0.056 0.223 0.115 0.338 0.168 0.314 0.146 0.647 0.288 0.963 0.416 0.461 0.186 0.912 0.381 1.351 0.564 0.122 0.050 0.241 0.105 0.359 0.153 0.042 0.017 0.077 0.017 0.095 0.057-0.042-0.221-0.030-0.304-0.027-0.341 0.010-0.118 0.003-0.233-0.030-0.351-0.030-0.107-0.083-0.195-0.145-0.293-0.078-0.13-0.138-0.256-0.196-0.389-0.050-0.115-0.145-0.19-0.275-0.25-0.201-0.097-0.401-0.183-0.601-0.291-0.286-0.151-0.571-0.313-0.872-0.453-0.326-0.146-0.666-0.265-1.017-0.373-0.125-0.038-0.231-0.101-0.358-0.138-0.058-0.017-0.116-0.027-0.175-0.043-0.161-0.046-0.313-0.113-0.479-0.155-0.137-0.034-0.276-0.055-0.411-0.092-0.143-0.041-0.241-0.083-0.383-0.090-0.087-0.005-0.176-0.037-0.263-0.060-0.195-0.052-0.389-0.103-0.584-0.165-0.033-0.009-0.068-0.023-0.103-0.034-0.453-0.146-0.904-0.303-1.361-0.446-0.013-0.005-0.025-0.009-0.040-0.014 0 0.032 0 0.063-0.002 0.093-0.113-0.038-0.225-0.076-0.341-0.108-0.128-0.033-0.255-0.065-0.381-0.1-0.261-0.073-0.509-0.17-0.762-0.256-0.148-0.050-0.316-0.081-0.444-0.158-0.188-0.113-0.428-0.205-0.507-0.373-0.037-0.078-0.053-0.155-0.075-0.233-0.028-0.108-0.085-0.211-0.103-0.323-0.008-0.047-0.011-0.092-0.018-0.138-0.113-0.014-0.226-0.030-0.341-0.040-0.072-0.006-0.145-0.005-0.218-0.011-0.093-0.006-0.185-0.030-0.278-0.043-0.191-0.027-0.369-0.025-0.567-0.115-0.208 0.023-0.381-0.037-0.567-0.072-0.148-0.027-0.294-0.056-0.436-0.096 0.027 0.143 0.050 0.288 0.13 0.426 0.058 0.097 0.132 0.19 0.195 0.286 0.080 0.118 0.133 0.245 0.21 0.364 0.166 0.251 0.291 0.506 0.433 0.76 0.043 0.078 0.081 0.17 0.158 0.24 0.050 0.045 0.117 0.083 0.173 0.125z"></path>
<path d="M8.642 13.765c0.103 0.090 0.228 0.166 0.341 0.248 0.211 0.155 0.428 0.306 0.67 0.423 0.225 0.106 0.458 0.193 0.689 0.288 0.025 0.008 0.053 0.017 0.078 0.025-0.011-0.050-0.023-0.101-0.040-0.155-0.003-0.011-0.006-0.023-0.010-0.033 0.181 0.053 0.353 0.108 0.544 0.155 0.241 0.058 0.476 0.116 0.71 0.183 0.203 0.055 0.409 0.095 0.622 0.143 0.158 0.037 0.31 0.080 0.474 0.111 0.125 0.025 0.255 0.043 0.383 0.068 0.198 0.037 0.394 0.080 0.592 0.121 0.005-0.014 0.017-0.028 0.022-0.041 0.006 0.001 0.013 0.001 0.020 0.003 0.111 0.020 0.223 0.043 0.333 0.060 0.14 0.020 0.264 0.023 0.406 0.062 0.325 0.092 0.636 0.11 0.963 0.173 0.14 0.027 0.276 0.067 0.413 0.11 0.042 0.013 0.083 0.018 0.12 0.034 0.062-0.042 0.12-0.15 0.155-0.201 0.057-0.083 0.11-0.15 0.138-0.243 0.018-0.060 0.053-0.115 0.040-0.183-0.002-0.011 0.008-0.020 0.002-0.031-0.013-0.025-0.060-0.067-0.085-0.090-0.101-0.1-0.276-0.123-0.418-0.157-0.329-0.081-0.655-0.178-0.977-0.284-0.198-0.067-0.398-0.131-0.594-0.198 0.002-0.006 0.002-0.011 0.002-0.017-0.2-0.058-0.396-0.115-0.586-0.178-0.186-0.062-0.356-0.126-0.551-0.185-0.163-0.050-0.333-0.095-0.492-0.148-0.339-0.111-0.65-0.255-0.967-0.379-0.386-0.155-0.802-0.288-1.175-0.446-0.030 0.022-0.055 0.045-0.082 0.067-0.321-0.15-0.639-0.283-0.925-0.499-0.141-0.151-0.401-0.298-0.509-0.498-0.136-0.25-0.191-0.519-0.283-0.787-0.062-0.185-0.097-0.388-0.125-0.584-0.032-0.206-0.006-0.423-0.003-0.636 0.010-0.479 0.136-0.957 0.333-1.406 0.116-0.266 0.289-0.522 0.344-0.81 0.022-0.11 0.033-0.206 0.086-0.306 0.083-0.155 0.198-0.291 0.283-0.448 0.088-0.166 0.193-0.323 0.306-0.474 0.068-0.093 0.11-0.183 0.186-0.269 0.088-0.102 0.078-0.133 0.082-0.27 0.003-0.268-0.225-0.358-0.433-0.461-0.191-0.095-0.344-0.101-0.472 0.095-0.048 0.068-0.082 0.178-0.12 0.255-0.027 0.050-0.037 0.113-0.057 0.166-0.011 0.035-0.040 0.103-0.047 0.138-0.045 0.178-0.138 0.333-0.208 0.509-0.040 0.1-0.048 0.165-0.065 0.268-0.017 0.105-0.091 0.185-0.107 0.291-0.014 0.108-0.018 0.17-0.073 0.275-0.121 0.228-0.244 0.456-0.354 0.689-0.065 0.138-0.123 0.278-0.183 0.413-0.090 0.198-0.153 0.406-0.245 0.597-0.1 0.391-0.21 0.754-0.279 1.125-0.078 0.418-0.095 0.812-0.065 1.218 0.017 0.216 0.035 0.431 0.060 0.641 0.14 0.416 0.421 0.81 0.759 1.131 0.118 0.115 0.245 0.225 0.371 0.334z"></path>
<path d="M22.975 16.656c-0.1-0.047-0.203-0.078-0.308-0.12-0.215-0.082-0.426-0.155-0.652-0.221-0.275-0.076-0.546-0.122-0.827-0.173-0.132-0.022-0.263-0.050-0.394-0.072-0.113-0.020-0.216-0.053-0.326-0.078-0.226-0.048-0.433-0.125-0.656-0.176-0.293-0.068-0.624-0.19-0.917-0.163-0.151 0.011-0.23 0.072-0.298 0.146-0.042 0.047-0.107 0.086-0.115 0.145-0.008 0.045 0.002 0.11 0.028 0.157 0.035 0.060 0.116 0.073 0.181 0.113 0.002 0.001 0.003 0.003 0.005 0.005-0.037 0.009-0.063 0.025-0.037 0.057 0.048 0.052 0.143 0.055 0.213 0.076 0.168 0.052 0.328 0.135 0.492 0.193 0.421 0.145 0.839 0.285 1.265 0.426 0.401 0.076 0.779 0.215 1.143 0.361 0.153 0.060 0.269 0.151 0.403 0.236 0.168 0.106 0.336 0.223 0.506 0.319 0.068 0.083 0.166 0.14 0.235 0.215 0.16 0.173 0.151 0.406 0.471 0.512-0.108 0.775 0.476 1.426 0.577 2.218 0.018 0.319 0.005 0.624-0.038 0.963-0.085 0.178-0.098 0.371-0.173 0.552-0.111 0.261-0.298 0.526-0.348 0.819-0.040 0.238-0.268 0.463-0.426 0.634-0.178 0.19-0.399 0.378-0.471 0.669-0.078 0.308-0.075 0.582-0.095 0.918-0.018 0.291 0.048 0.541 0.071 0.832 0.006 0.071 0 0.126 0.011 0.2 0.017 0.093 0.058 0.168 0.062 0.269 0.003 0.157 0.037 0.3 0.017 0.471-0.038 0.334-0.058 0.711-0.23 1.032-0.072 0.138-0.18 0.263-0.268 0.384-0.138 0.19-0.25 0.418-0.389 0.609-0.075 0.101-0.128 0.216-0.2 0.321-0.038 0.058-0.076 0.088-0.113 0.15-0.058 0.098-0.118 0.308-0.183 0.186 0.125 0.008 0.195 0.153 0.27 0.25 0.052 0.067 0.141 0.046 0.191 0.115 0.032 0.048 0.067 0.088 0.095 0.135 0.027 0.038 0.043 0.193 0.11 0.153 0.028-0.014 0.115-0.161 0.14-0.2 0.055-0.075 0.076-0.107 0.135-0.173 0.143-0.17 0.286-0.336 0.429-0.514 0.122-0.15 0.185-0.308 0.278-0.478 0.22-0.388 0.353-0.9 0.428-1.303 0.080-0.428 0.115-0.83 0.123-1.213 0.006-0.296-0.023-0.597-0.011-0.882 0.003-0.055-0.008-0.115-0.006-0.175 0.003-0.078 0.011-0.138 0.020-0.213 0.011-0.116 0.020-0.166 0.062-0.279 0.103-0.288 0.243-0.566 0.313-0.855 0.088-0.368 0.22-0.576 0.404-0.902 0.055-0.1 0.097-0.203 0.15-0.301 0.111-0.203 0.238-0.383 0.305-0.607 0.050-0.166 0.131-0.313 0.183-0.472 0.058-0.183 0.11-0.369 0.153-0.552 0.038-0.166 0.080-0.326 0.115-0.488 0.018-0.081 0.023-0.163 0.035-0.243 0.018-0.12 0.052-0.228 0.058-0.348 0.003-0.113-0.003-0.221-0.017-0.329-0.010-0.308-0.048-0.616-0.093-0.915-0.038-0.243-0.117-0.492-0.12-0.724-0.065-0.235-0.304-0.492-0.519-0.682-0.19-0.166-0.368-0.341-0.587-0.486-0.196-0.13-0.388-0.279-0.614-0.378-0.085-0.037-0.16-0.087-0.245-0.126z"></path>
<path d="M8 7.538c-0.1 0.126-0.158 0.226-0.229 0.366-0.038 0.070-0.058 0.156-0.095 0.231s-0.085 0.128-0.108 0.215c-0.025 0.086 0.005 0.141-0.108 0.122-0.035-0.003-0.122-0.065-0.158-0.083-0.096-0.043-0.195-0.082-0.289-0.125-0.338-0.158-0.602-0.431-0.877-0.672-0.171-0.151-0.348-0.299-0.507-0.464-0.206-0.213-0.431-0.449-0.589-0.699-0.097-0.156-0.116-0.346-0.206-0.506-0.101-0.18-0.12-0.353-0.19-0.544-0.033-0.090-0.097-0.178-0.123-0.27-0.052-0.168-0.123-0.351-0.136-0.539-0.008-0.111 0.003-0.186-0.040-0.283-0.045-0.101-0.053-0.145-0.065-0.256-0.008-0.085-0.038-0.16-0.060-0.243-0.025-0.088-0.056-0.18-0.090-0.256-0.038-0.088-0.050-0.158-0.080-0.245-0.020-0.062-0.12-0.138-0.088-0.206 0.097 0.050 0.203 0.025 0.304 0.045 0.063 0.013 0.143 0.055 0.201 0.095 0.101 0.070 0.198 0.193 0.283 0.284 0.113 0.12 0.21 0.276 0.298 0.414 0.065 0.105 0.073 0.228 0.133 0.329 0.040 0.070 0.1 0.128 0.136 0.203 0.151 0.294 0.328 0.577 0.496 0.863 0.15 0.253 0.349 0.461 0.516 0.701 0.107 0.15 0.19 0.313 0.298 0.459 0.068 0.093 0.141 0.18 0.221 0.263 0.118 0.123 0.248 0.22 0.393 0.313 0.183 0.12 0.414 0.374 0.642 0.391 0.003 0.013 0.006 0.028 0.118 0.097z"></path>
<path d="M11.076 3.653c0-0.105 0.013-0.221 0.002-0.326-0.006-0.052-0.035-0.082-0.043-0.118-0.011-0.050 0.002-0.103-0.010-0.153-0.010-0.047-0.048-0.057-0.058-0.1-0.013-0.052 0.005-0.115 0.003-0.166-0.005-0.11-0.047-0.246-0.081-0.351-0.058-0.183-0.186-0.344-0.298-0.491-0.065-0.085-0.1-0.188-0.186-0.26-0.045-0.037-0.306-0.196-0.346-0.188-0.030 0.065 0.032 0.122 0.050 0.181 0.006 0.030-0.003 0.073 0.002 0.105s0.037 0.033 0.045 0.063c0.033 0.145 0.005 0.333 0.005 0.482 0 0.145 0.018 0.306-0.013 0.446-0.003 0.018-0.037 0.037-0.043 0.063-0.011 0.045 0.013 0.095 0.005 0.14-0.013 0.060-0.043 0.115-0.070 0.175-0.123 0.255 0.246 0.384 0.443 0.456 0.128 0.048 0.289 0.151 0.436 0.1 0.14-0.050 0.158-0.256 0.16-0.058z"></path>
</svg>
