<!-- Generated by IcoMoon.io -->
<svg version="1.1" xmlns="http://www.w3.org/2000/svg" width="32" height="32" viewBox="0 0 32 32">
<title>token_-4_sealed</title>
<path d="M12.762 18.167c-0.147 0.131-0.233 0.29-0.257 0.478 0 0.196 0.106 0.311 0.319 0.343h4.205c0.098 0 0.172 0.004 0.221 0.012 0.074 0 0.11 0.098 0.11 0.294-0.008 0.409-0.037 0.67-0.086 0.785s-0.11 0.192-0.184 0.233c-0.025 0.008-0.061 0.025-0.11 0.049l-0.147 0.074c-0.106 0.049-0.225 0.196-0.356 0.441 0 0.033 0.020 0.065 0.061 0.098 0.057 0.041 0.106 0.061 0.147 0.061 0.196-0.025 0.429-0.049 0.699-0.074s0.499-0.037 0.687-0.037c0.196 0 0.409 0.012 0.637 0.037 0.237 0.025 0.445 0.049 0.625 0.074 0.131 0 0.196-0.053 0.196-0.159-0.008-0.163-0.037-0.262-0.086-0.294-0.049-0.041-0.11-0.090-0.184-0.147-0.074-0.065-0.147-0.176-0.221-0.331-0.074-0.163-0.135-0.437-0.184-0.821 0-0.057 0.020-0.127 0.061-0.208 0.049-0.090 0.139-0.135 0.27-0.135h0.368c0.229 0 0.343-0.11 0.343-0.331v-0.38c0-0.212-0.114-0.319-0.343-0.319h-0.441c-0.204 0-0.319-0.049-0.343-0.147s-0.037-0.204-0.037-0.319c-0.008-0.139-0.012-0.372-0.012-0.699 0-0.36 0.004-0.642 0.012-0.846l0.074-4.781c-0.016 0-0.037-0.061-0.061-0.184-0.025-0.147-0.11-0.225-0.257-0.233-0.278 0.008-0.49 0.151-0.637 0.429-0.744 1.21-1.561 2.395-2.452 3.555-0.801 1.046-1.696 2.19-2.685 3.433zM16.98 13.754c0.025-0.041 0.086-0.114 0.184-0.221 0.016-0.033 0.037-0.049 0.061-0.049 0.049 0 0.074 0.102 0.074 0.306-0.008 0.237-0.012 0.601-0.012 1.091v1.091c0.016 0.343 0.029 0.633 0.037 0.87 0.008 0.18 0.012 0.429 0.012 0.748 0 0.221-0.061 0.331-0.184 0.331h-0.233l-2.648 0.061c-0.016 0-0.037 0.004-0.061 0.012h-0.037c-0.082 0-0.123-0.025-0.123-0.074 0-0.074 0.025-0.139 0.074-0.196 0.441-0.654 0.919-1.304 1.434-1.949 0.507-0.637 0.989-1.304 1.447-1.998z"></path>
<path d="M9.093 16.928c-0.003 0-0.005 0.001-0.008 0.001-0.036 0.003-0.072-0.011-0.096-0.038-0.032-0.036-0.039-0.088-0.017-0.131l0.347-0.676c0.016-0.031 0.044-0.055 0.077-0.066 0.012-0.004 0.025-0.006 0.038-0.007 0.006-0 0.011 0 0.016 0 0.092 0.004 0.979 0.046 1.559 0.044s1.469-0.048 1.561-0.053c0.005-0 0.010-0.001 0.016-0 0.028 0.001 0.054 0.013 0.073 0.034 0.009 0.010 0.016 0.021 0.014 0.035-0.014 0.094-0.178 0.433-0.243 0.564-0.017 0.034-0.045 0.062-0.080 0.078-0.021 0.010-0.045 0.015-0.068 0.016-0.002 0-0.004 0-0.006 0-0.058-0-0.901-0.001-1.47 0.032-0.636 0.036-1.643 0.159-1.712 0.168z"></path>
</svg>
