<!-- Generated by IcoMoon.io -->
<svg version="1.1" xmlns="http://www.w3.org/2000/svg" width="32" height="32" viewBox="0 0 32 32">
<title>token_-7_sealed</title>
<path d="M19.259 11.386c-0.262 0.016-0.65 0.025-1.165 0.025-0.131 0-0.327-0.004-0.588-0.012s-0.458-0.012-0.588-0.012c-1.046-0.049-1.827-0.086-2.342-0.11h-0.074c-0.114 0-0.249 0.045-0.405 0.135s-0.249 0.2-0.282 0.331c-0.090 0.311-0.204 0.605-0.343 0.883-0.172 0.335-0.335 0.625-0.49 0.87-0.041 0.049-0.061 0.118-0.061 0.208 0 0.049 0.008 0.086 0.025 0.11 0.049 0.090 0.131 0.135 0.245 0.135 0.294 0 0.515-0.151 0.662-0.454 0.245-0.433 0.809-0.678 1.692-0.736 0.262-0.025 0.629-0.037 1.103-0.037 0.401 0 0.797 0.020 1.189 0.061 0.163 0 0.245 0.057 0.245 0.172 0 0.033-0.012 0.074-0.037 0.123-0.531 1.046-1.238 2.411-2.121 4.095-0.744 1.414-1.328 2.807-1.753 4.181v0.025c-0.008 0.016-0.012 0.029-0.012 0.037 0 0.041 0.012 0.086 0.037 0.135 0.025 0.057 0.082 0.086 0.172 0.086 0.245-0.041 0.474-0.061 0.687-0.061 0.196 0 0.425 0.020 0.687 0.061 0.016 0 0.037 0.004 0.061 0.012h0.037c0.163 0 0.262-0.098 0.294-0.294 0.327-1.741 0.813-3.416 1.459-5.026 0.605-1.52 1.287-3.069 2.047-4.646 0.025-0.041 0.037-0.090 0.037-0.147 0-0.098-0.069-0.147-0.208-0.147-0.106 0-0.18 0.004-0.221 0.012z"></path>
<path d="M9.924 16.928c-0.003 0-0.005 0.001-0.008 0.001-0.036 0.003-0.072-0.011-0.096-0.038-0.032-0.036-0.039-0.088-0.017-0.131l0.347-0.676c0.016-0.031 0.044-0.055 0.077-0.066 0.012-0.004 0.025-0.006 0.038-0.007 0.006-0 0.011 0 0.016 0 0.092 0.004 0.979 0.046 1.559 0.044s1.469-0.048 1.561-0.053c0.005-0 0.010-0.001 0.016-0 0.028 0.001 0.054 0.013 0.073 0.034 0.009 0.010 0.016 0.021 0.014 0.035-0.014 0.094-0.178 0.433-0.243 0.564-0.017 0.034-0.045 0.062-0.080 0.078-0.021 0.010-0.045 0.015-0.068 0.016-0.002 0-0.004 0-0.006 0-0.058-0-0.901-0.001-1.47 0.032-0.636 0.036-1.643 0.159-1.712 0.168z"></path>
</svg>
