<!-- Generated by IcoMoon.io -->
<svg version="1.1" xmlns="http://www.w3.org/2000/svg" width="32" height="32" viewBox="0 0 32 32">
<title>token_elder_thing_sealed</title>
<path d="M12.578 16.623c0.012 0 0.019 0 0.031 0.006s0.018 0.006 0.031 0.006c-0.093 0.32-0.191 0.744-0.29 1.279s-0.142 1.113-0.123 1.746c-0.019 0.018-0.043 0.031-0.068 0.031 0 0.012-0.006 0.012-0.012 0.012-0.018 0.018-0.037 0.031-0.049 0.037s-0.031 0.012-0.049 0.018c-0.019 0.018-0.037 0.031-0.049 0.043s-0.031 0.018-0.049 0.031c-0.018 0.018-0.049 0.037-0.086 0.055-0.031 0.018-0.062 0.043-0.093 0.061-0.031 0.025-0.062 0.049-0.093 0.080l-0.056 0.031c-0.031 0.031-0.062 0.055-0.093 0.086s-0.062 0.061-0.093 0.098c-0.037 0.018-0.086 0.055-0.142 0.111-0.012 0.018-0.019 0.031-0.019 0.037-0.006 0.006-0.012 0.018-0.018 0.037l-0.043 0.043h-0.012v-0.012c-0.012 0-0.012-0.006-0.012-0.012 0-0.049-0.006-0.086-0.012-0.111v-0.031c-0.019-0.055-0.031-0.105-0.031-0.141-0.012-0.012-0.012-0.031-0.012-0.055-0.018-0.037-0.031-0.074-0.043-0.111s-0.025-0.074-0.043-0.111c-0.012-0.037-0.019-0.068-0.031-0.098s-0.018-0.061-0.031-0.098c-0.012 0-0.012-0.006-0.012-0.012-0.018-0.031-0.037-0.061-0.049-0.092s-0.031-0.061-0.049-0.092c-0.019-0.031-0.037-0.055-0.049-0.086s-0.031-0.055-0.049-0.086-0.086-0.123-0.142-0.197v-0.012c-0.031-0.031-0.056-0.055-0.080-0.086s-0.049-0.049-0.080-0.068c-0.074-0.068-0.148-0.123-0.21-0.172l-0.043-0.043c-0.012 0-0.018-0.006-0.031-0.012-0.031-0.018-0.062-0.037-0.093-0.055s-0.062-0.037-0.093-0.055c-0.012 0-0.019-0.006-0.031-0.012-0.018 0-0.031-0.012-0.031-0.043v-0.043c0-0.037 0-0.068 0.006-0.098s0.006-0.055 0.006-0.086c0.012-0.031 0.012-0.068 0.012-0.111v-0.068c-0.012-0.031-0.012-0.055-0.006-0.080s0.006-0.049 0.006-0.080c0.012-0.031 0.012-0.068 0.012-0.111 0-0.092-0.006-0.16-0.012-0.197v-0.197c0.012-0.018 0.012-0.049 0.012-0.098-0.012-0.074-0.012-0.154 0-0.24 0-0.049-0.006-0.080-0.012-0.098 0-0.049-0.006-0.086-0.012-0.111v-0.24c-0.012-0.018-0.012-0.043-0.012-0.068-0.012-0.031-0.012-0.055-0.012-0.086s-0.006-0.061-0.012-0.098v-0.098c0-0.031 0-0.061-0.006-0.092s-0.006-0.068-0.006-0.105c-0.012-0.037-0.018-0.074-0.018-0.111-0.006-0.037-0.012-0.080-0.019-0.129-0.012-0.031-0.018-0.055-0.018-0.080-0.006-0.025-0.006-0.049-0.006-0.080v-0.074c-0.012-0.018-0.012-0.037-0.012-0.055s-0.006-0.037-0.012-0.055c0-0.037-0.006-0.068-0.012-0.086 0-0.031-0.006-0.049-0.012-0.055 0-0.012 0.006-0.012 0.012-0.012l0.043 0.043c0.031 0.018 0.068 0.055 0.13 0.111l0.056 0.055 0.068 0.055c0.037 0.037 0.086 0.074 0.142 0.111 0.019 0.018 0.049 0.037 0.086 0.055 0.031 0.018 0.062 0.043 0.093 0.068 0.031 0.031 0.068 0.049 0.105 0.068 0.037 0.031 0.074 0.055 0.111 0.080s0.074 0.043 0.111 0.061c0.037 0.018 0.074 0.037 0.105 0.049s0.068 0.031 0.105 0.049c0.012 0.012 0.019 0.012 0.019 0.012 0.006 0 0.012 0.006 0.018 0.012 0.018 0 0.037 0 0.049 0.006s0.031 0.006 0.049 0.006c0.012 0 0.018 0 0.031 0.006s0.018 0.006 0.031 0.006l0.056 0.031c0.056 0.018 0.099 0.031 0.13 0.031 0.031 0.012 0.062 0.018 0.093 0.031s0.068 0.018 0.105 0.031c0.018 0.012 0.037 0.012 0.049 0.012s0.031 0.006 0.049 0.012h0.012c0.031 0 0.068 0.012 0.13 0.031 0.018 0 0.031 0.006 0.031 0.012 0.018 0.012 0.037 0.012 0.056 0.012s0.037 0.006 0.056 0.012h0.056c0.031 0 0.062 0.012 0.099 0.031h0.031c0.031 0.018 0.056 0.031 0.086 0.031s0.056 0.006 0.086 0.012h0.043c0.012 0.012 0.025 0.012 0.043 0.012h0.056c0.018 0 0.037 0 0.062 0.006s0.043 0.006 0.062 0.006c0.012 0 0.018 0 0.018 0.006-0.006 0.018 0.006 0.025 0.012 0.025zM19.227 15.24l-0.031 0.012c-0.049 0.012-0.117 0.031-0.21 0.068-0.018 0.018-0.037 0.031-0.056 0.031-0.018 0.018-0.049 0.037-0.086 0.055-0.018 0.018-0.037 0.031-0.056 0.031h-0.012c-0.018 0.012-0.037 0.018-0.049 0.018-0.012 0.006-0.031 0.012-0.049 0.018h-0.123c-0.018 0-0.043 0.012-0.068 0.031-0.019 0.018-0.043 0.037-0.062 0.049-0.025 0.012-0.043 0.031-0.062 0.049-0.056 0.049-0.111 0.098-0.154 0.154-0.018 0.018-0.031 0.031-0.031 0.043-0.012 0.018-0.012 0.037-0.012 0.055s-0.006 0.037-0.012 0.055v0.043c0.019 0.018 0.037 0.055 0.056 0.111 0.012 0.012 0.012 0.018 0.012 0.018 0 0.006 0.006 0.012 0.012 0.018 0.018 0.018 0.031 0.031 0.037 0.043s0.018 0.025 0.037 0.043c0 0.012 0 0.018 0.006 0.031s0.006 0.018 0.006 0.031c0.012 0.018 0.012 0.031 0.012 0.043s0.006 0.025 0.012 0.043c0 0.012 0.012 0.043 0.031 0.098 0.018 0.037 0.031 0.074 0.043 0.111s0.025 0.074 0.043 0.111c0 0.012 0 0.018 0.006 0.031s0.006 0.018 0.006 0.031v0.111c0 0.018 0 0.031 0.006 0.037s0.006 0.012 0.006 0.018 0.006 0.012 0.012 0.012c0.012 0.018 0.018 0.037 0.018 0.055 0.006 0.018 0.012 0.037 0.018 0.055 0.012 0.018 0.025 0.055 0.043 0.111 0 0.018 0 0.037 0.006 0.049s0.006 0.031 0.006 0.049 0.006 0.068 0.012 0.086v0.012c0 0.049 0.006 0.086 0.012 0.111 0 0.049 0.006 0.086 0.012 0.111h0.012c0.019 0.055 0.031 0.092 0.031 0.111 0.018 0.037 0.031 0.068 0.031 0.098 0.012 0.018 0.012 0.049 0.012 0.086v0.154c0.012 0.037 0.031 0.074 0.056 0.111v0.209c0.019 0.092 0.037 0.166 0.056 0.209v0.055c0.019 0.037 0.025 0.068 0.012 0.098v0.117c0 0.012 0.006 0.031 0.012 0.068 0.012 0.012 0.012 0.025 0.012 0.043 0.012 0.018 0.012 0.049 0.012 0.098 0 0.018-0.006 0.031-0.012 0.043v0.129c-0.012 0.086-0.012 0.166 0 0.24v0.154c0.018 0.037 0.018 0.068 0 0.098v0.676c0 0.018-0.012 0.037-0.031 0.055s-0.031 0.031-0.043 0.037c-0.012 0.006-0.025 0.018-0.043 0.037-0.018 0.012-0.037 0.025-0.056 0.043-0.012 0.012-0.018 0.018-0.018 0.031-0.006 0.012-0.018 0.018-0.037 0.031-0.012 0.031-0.031 0.049-0.056 0.055-0.012 0.012-0.043 0.031-0.099 0.068-0.019 0.018-0.031 0.031-0.031 0.043-0.018 0.012-0.037 0.031-0.056 0.068l-0.043 0.055-0.056 0.055c-0.037 0.018-0.086 0.055-0.142 0.111-0.018 0.018-0.031 0.031-0.043 0.037s-0.019 0.018-0.031 0.037c-0.012 0.012-0.018 0.018-0.018 0.031-0.006 0.012-0.012 0.018-0.019 0.031-0.037 0.037-0.074 0.086-0.111 0.141-0.012 0.012-0.019 0.018-0.019 0.031-0.006 0.012-0.018 0.018-0.037 0.031s-0.043 0.031-0.068 0.055l-0.173 0.172c-0.019 0.012-0.037 0.018-0.049 0.031s-0.031 0.018-0.049 0.031c0 0.012-0.012 0.025-0.031 0.043-0.019 0.037-0.037 0.068-0.056 0.086-0.019 0.037-0.037 0.061-0.056 0.068-0.012 0-0.012 0.006-0.012 0.012-0.037 0.018-0.056 0.031-0.056 0.037s-0.019 0.025-0.056 0.061c-0.037 0.049-0.062 0.068-0.062 0.068-0.006 0-0.031 0.025-0.080 0.068l-0.012 0.012c-0.018 0.012-0.031 0.018-0.037 0.031s-0.019 0.025-0.037 0.043l-0.043 0.043c0 0.018-0.012 0.031-0.043 0.043-0.019 0.012-0.043 0.031-0.068 0.055-0.012 0.012-0.019 0.012-0.019 0.012-0.006 0-0.012 0.006-0.018 0.012-0.037 0.037-0.062 0.068-0.068 0.086-0.037 0.037-0.068 0.061-0.086 0.068-0.012 0.018-0.019 0.031-0.031 0.037s-0.025 0.018-0.043 0.037l-0.043 0.043c-0.031 0.031-0.049 0.049-0.056 0.068-0.037 0.037-0.068 0.068-0.086 0.098-0.056 0.055-0.105 0.099-0.142 0.129l-0.043 0.043c-0.018 0.012-0.031 0.018-0.037 0.031s-0.019 0.025-0.037 0.043c-0.037 0.018-0.062 0.037-0.068 0.055l-0.043 0.043-0.13 0.172c-0.018 0.018-0.031 0.031-0.031 0.043-0.019 0-0.031 0.012-0.031 0.031h-0.031c-0.012-0.012-0.019-0.018-0.031-0.018-0.012-0.006-0.018-0.018-0.031-0.037l-0.012-0.012c-0.037-0.049-0.074-0.086-0.105-0.123-0.031-0.031-0.068-0.074-0.105-0.123l-0.043-0.043c-0.049-0.012-0.080-0.031-0.099-0.055-0.056-0.037-0.093-0.068-0.111-0.098 0-0.012-0.006-0.012-0.012-0.012l-0.13-0.172-0.173-0.172c-0.012-0.018-0.018-0.031-0.031-0.037s-0.018-0.012-0.031-0.018c-0.049-0.018-0.074-0.043-0.086-0.068-0.018-0.012-0.031-0.018-0.037-0.031s-0.019-0.025-0.037-0.043c-0.012-0.018-0.025-0.037-0.043-0.055-0.037-0.031-0.068-0.055-0.099-0.086s-0.056-0.055-0.086-0.086c-0.037-0.037-0.062-0.068-0.068-0.086l-0.068-0.068c-0.012-0.012-0.018-0.018-0.018-0.031-0.006-0.012-0.018-0.018-0.037-0.031-0.012-0.012-0.018-0.018-0.031-0.018-0.012-0.006-0.025-0.018-0.043-0.037-0.012-0.012-0.018-0.012-0.018-0.012-0.006 0-0.012-0.006-0.019-0.012-0.012-0.018-0.018-0.031-0.031-0.043s-0.018-0.025-0.031-0.043l-0.043-0.043c-0.018-0.012-0.031-0.018-0.043-0.031s-0.025-0.018-0.043-0.031c-0.018-0.018-0.037-0.037-0.056-0.049s-0.037-0.031-0.056-0.049c-0.012-0.012-0.018-0.018-0.018-0.031-0.006-0.012-0.012-0.018-0.018-0.031-0.037-0.037-0.062-0.068-0.068-0.086-0.018-0.018-0.037-0.031-0.056-0.043-0.012-0.018-0.031-0.037-0.068-0.055-0.012-0.018-0.018-0.031-0.031-0.037s-0.018-0.012-0.031-0.018c-0.012-0.018-0.018-0.031-0.031-0.043s-0.018-0.025-0.031-0.043l-0.043-0.043c-0.012 0-0.012 0-0.012-0.006s-0.006-0.006-0.012-0.006c-0.031-0.031-0.043-0.043-0.049-0.043s-0.018-0.018-0.037-0.055l-0.043-0.086-0.043-0.043c-0.018-0.012-0.037-0.018-0.056-0.031s-0.037-0.025-0.056-0.043c-0.031-0.012-0.049-0.031-0.056-0.055l-0.086-0.086c-0.012-0.018-0.019-0.031-0.031-0.043s-0.018-0.025-0.031-0.043c-0.012-0.018-0.025-0.037-0.043-0.055-0.012-0.012-0.012-0.025-0.012-0.043v-0.012c0-0.012 0-0.018-0.006-0.031s-0.006-0.018-0.006-0.031c0-0.074-0.006-0.129-0.012-0.172-0.012-0.037-0.012-0.092-0.012-0.154 0-0.018 0-0.031-0.006-0.043s-0.006-0.025-0.006-0.043c0-0.018 0-0.031 0.006-0.037s0.006-0.018 0.006-0.037v0.006-0.086c-0.012-0.018-0.012-0.049-0.012-0.086-0.012-0.031-0.018-0.061-0.018-0.092-0.006-0.031-0.012-0.061-0.019-0.092v-0.098c0-0.031 0-0.055 0.006-0.086s0.006-0.055 0.006-0.086c0.018-0.055 0.031-0.105 0.031-0.141v-0.031c0.012-0.031 0.012-0.074 0.012-0.141-0.012-0.018-0.012-0.049-0.012-0.098v-0.191c0.012-0.031 0.025-0.080 0.043-0.154 0.012-0.018 0.012-0.037 0.012-0.049s0.006-0.031 0.012-0.049v-0.252c0.012-0.018 0.012-0.031 0.012-0.043s0.006-0.025 0.012-0.043c0-0.031 0.006-0.049 0.012-0.055 0.018-0.055 0.031-0.105 0.043-0.141 0.018-0.055 0.031-0.098 0.031-0.129 0.012-0.031 0.025-0.080 0.043-0.154 0.012-0.012 0.012-0.025 0.012-0.043s0-0.031-0.006-0.043c-0.006-0.012-0.006-0.025-0.006-0.043v-0.086c0.012-0.012 0.012-0.018 0.012-0.018 0-0.006 0.006-0.012 0.012-0.018 0.019-0.037 0.031-0.061 0.043-0.068v-0.043c0-0.012 0.006-0.018 0.012-0.031v-0.074c0-0.031 0.012-0.061 0.031-0.098l0.012-0.012 0.086-0.209c0.012-0.012 0.012-0.025 0.012-0.043 0-0.055 0.006-0.098 0.012-0.129 0-0.018 0.006-0.037 0.012-0.055 0.018-0.037 0.037-0.068 0.056-0.086l0.012-0.031v-0.043c0-0.031 0.006-0.049 0.012-0.055v-0.068c0.012-0.018 0.018-0.031 0.018-0.037 0.006-0.006 0.012-0.018 0.019-0.037 0.037-0.074 0.068-0.135 0.086-0.184 0.031-0.031 0.043-0.061 0.043-0.098 0.018-0.049 0.031-0.086 0.043-0.123 0.012-0.031 0.019-0.074 0.031-0.123 0-0.012 0.012-0.025 0.031-0.043 0.019-0.037 0.037-0.068 0.056-0.086 0-0.018 0.006-0.031 0.012-0.031v-0.006l-0.012-0.012c-0.049-0.049-0.086-0.092-0.123-0.129-0.031-0.037-0.068-0.080-0.105-0.129-0.012-0.012-0.025-0.012-0.043-0.012l-0.012-0.012c-0.037-0.012-0.074-0.018-0.105-0.031s-0.068-0.018-0.105-0.031c-0.018-0.012-0.037-0.018-0.049-0.018-0.012-0.006-0.031-0.012-0.049-0.018-0.012-0.012-0.019-0.012-0.031-0.012-0.056-0.037-0.099-0.062-0.13-0.068-0.012 0-0.012 0-0.012-0.006s-0.006-0.006-0.012-0.006c-0.031-0.018-0.043-0.031-0.049-0.031s-0.018-0.012-0.037-0.031c-0.031-0.018-0.056-0.037-0.080-0.055s-0.049-0.037-0.080-0.055c-0.031-0.018-0.068-0.049-0.111-0.098l-0.056-0.055c-0.018-0.012-0.031-0.012-0.043-0.012s-0.025-0.006-0.043-0.012h-0.031c-0.018-0.012-0.031-0.018-0.037-0.018-0.006-0.006-0.019-0.012-0.037-0.018-0.037-0.018-0.068-0.037-0.086-0.055-0.012 0-0.012 0-0.012-0.006s-0.006-0.006-0.012-0.006c-0.018-0.018-0.031-0.031-0.031-0.043-0.031-0.031-0.062-0.068-0.099-0.129-0.018-0.031-0.043-0.062-0.080-0.092-0.031-0.031-0.062-0.068-0.093-0.105l-0.043-0.043c-0.056-0.037-0.093-0.062-0.099-0.068-0.012-0.012-0.018-0.012-0.018-0.012-0.006 0-0.012-0.006-0.019-0.012-0.012-0.031-0.031-0.062-0.068-0.098l-0.043-0.043c-0.019-0.012-0.031-0.018-0.043-0.031s-0.025-0.018-0.043-0.031c-0.012 0-0.025-0.012-0.043-0.031s-0.031-0.031-0.037-0.043c-0.006-0.012-0.019-0.025-0.037-0.043-0.012-0.018-0.031-0.043-0.056-0.068l-0.043-0.068-0.068-0.043c-0.037-0.018-0.074-0.037-0.105-0.062s-0.068-0.043-0.105-0.062c-0.018-0.018-0.043-0.037-0.062-0.049-0.025-0.012-0.043-0.031-0.062-0.049 0-0.012 0-0.012-0.006-0.012s-0.006-0.006-0.006-0.012c-0.019-0.018-0.031-0.037-0.043-0.049s-0.025-0.031-0.043-0.049c-0.012-0.012-0.012-0.025-0.012-0.043-0.018-0.049-0.031-0.092-0.043-0.129s-0.019-0.080-0.031-0.129l-0.012-0.031v-0.068c0.018-0.037 0.031-0.074 0.037-0.105s0.018-0.068 0.037-0.105c0-0.031 0.006-0.049 0.012-0.055 0-0.012 0.006-0.018 0.012-0.031l0.043-0.086c0.018-0.018 0.049-0.037 0.099-0.055 0-0.012 0.006-0.012 0.012-0.012 0.012-0.012 0.025-0.012 0.043-0.012 0.031-0.012 0.062-0.012 0.099-0.012 0.012 0 0.018-0.006 0.031-0.012 0.056-0.018 0.093-0.031 0.111-0.031 0-0.012 0.012-0.012 0.031-0.012h0.012c0.031 0 0.049 0.006 0.056 0.012 0.049 0.012 0.086 0.018 0.123 0.031 0.031 0.012 0.068 0.018 0.105 0.031h0.031c0.012 0.012 0.019 0.012 0.019 0.012 0.006 0 0.012 0.006 0.018 0.012h0.012c0.018 0.018 0.037 0.037 0.049 0.049s0.031 0.031 0.049 0.049c0.018 0.031 0.037 0.068 0.056 0.129 0.012 0.012 0.012 0.018 0.012 0.031 0.012 0.037 0.025 0.086 0.043 0.141v0.086c0 0.012 0 0.018-0.006 0.018-0.006 0.006-0.006 0.012-0.006 0.018v0.062c0 0.006 0.012 0.018 0.031 0.049l0.068 0.068c0 0.012 0.012 0.025 0.031 0.043 0.031 0.031 0.068 0.062 0.13 0.098 0.031 0.018 0.056 0.031 0.080 0.043s0.043 0.018 0.062 0.031c0.049 0.018 0.093 0.043 0.142 0.062 0.049 0.025 0.093 0.043 0.142 0.062h0.012c0.018 0.018 0.031 0.031 0.043 0.031l0.068 0.068c0.012 0.012 0.018 0.012 0.018 0.012 0.006 0 0.012 0.006 0.018 0.012 0 0.012 0.012 0.012 0.031 0.012l0.383 0.086c0.018 0.012 0.031 0.012 0.043 0.012s0.025 0.006 0.043 0.012c0.019 0 0.037 0 0.062 0.006s0.043 0.006 0.062 0.006h0.099c0.012 0 0.018 0.006 0.031 0.012 0.031 0.012 0.056 0.018 0.080 0.031s0.043 0.018 0.062 0.031l0.031 0.031c0.031 0.018 0.062 0.049 0.099 0.086 0.018 0.018 0.031 0.031 0.031 0.043 0.019 0.018 0.031 0.037 0.037 0.049s0.018 0.031 0.037 0.049c0 0.012 0.012 0.025 0.031 0.043 0.037 0.037 0.062 0.068 0.068 0.086 0.019 0.018 0.031 0.031 0.043 0.031 0 0.018 0.012 0.031 0.031 0.031l0.185 0.184c0.019 0 0.037 0.012 0.056 0.031l0.173 0.129c0 0.012 0.006 0.012 0.012 0.012l0.043 0.043c0.018 0.012 0.037 0.018 0.049 0.031s0.031 0.018 0.049 0.031l0.099 0.098c0.012 0 0.012 0 0.012 0.006s0.006 0.006 0.012 0.006c0.037 0.018 0.068 0.031 0.099 0.043 0.012 0 0.025 0.012 0.043 0.031 0.018 0.012 0.031 0.018 0.043 0.031s0.025 0.018 0.043 0.031c0.019 0.018 0.031 0.018 0.031 0 0.012 0 0.012-0.006 0.012-0.012 0.012 0 0.012-0.006 0.012-0.012-0.012 0-0.012-0.006-0.012-0.012-0.018-0.031-0.037-0.055-0.056-0.080s-0.037-0.049-0.056-0.080l-0.043-0.043c-0.031-0.031-0.049-0.049-0.056-0.068-0.012-0.018-0.019-0.037-0.019-0.049-0.006-0.012-0.018-0.031-0.037-0.049l-0.031-0.031c-0.018-0.012-0.037-0.018-0.049-0.031s-0.031-0.018-0.049-0.031c-0.012-0.012-0.018-0.018-0.031-0.018-0.012-0.006-0.018-0.018-0.031-0.037-0.031-0.031-0.056-0.055-0.086-0.086s-0.049-0.062-0.068-0.098c-0.018-0.018-0.037-0.037-0.049-0.049s-0.031-0.031-0.049-0.049l-0.056-0.055-0.043-0.068c-0.018-0.037-0.031-0.062-0.037-0.062-0.006-0.006-0.018-0.018-0.049-0.049-0.012-0.012-0.018-0.018-0.018-0.031-0.006-0.012-0.018-0.025-0.037-0.043-0.012-0.012-0.012-0.018-0.012-0.031s-0.006-0.025-0.012-0.043l-0.043-0.086c-0.018-0.037-0.037-0.074-0.049-0.105s-0.031-0.068-0.049-0.105l-0.043-0.086c0-0.031-0.006-0.049-0.012-0.068 0-0.018-0.012-0.049-0.031-0.086-0.037-0.068-0.068-0.129-0.099-0.191s-0.062-0.123-0.099-0.191v-0.012c0-0.012 0-0.012-0.006-0.012s-0.006-0.006-0.006-0.012v-0.043c0.012-0.068 0.012-0.129 0.006-0.184s-0.006-0.117-0.006-0.184v-0.068c0.012-0.031 0.012-0.068 0.012-0.111v-0.031c-0.012 0-0.012 0-0.012-0.006s-0.006-0.006-0.012-0.006c-0.012-0.012-0.019-0.018-0.019-0.031-0.006-0.012-0.012-0.018-0.018-0.031-0.012 0-0.025-0.025-0.043-0.068-0.012-0.018-0.012-0.031-0.012-0.043s-0.006-0.018-0.012-0.031c-0.012-0.012-0.012-0.018-0.012-0.018 0-0.006-0.006-0.012-0.012-0.018-0.031-0.031-0.049-0.049-0.056-0.068-0.012 0-0.018-0.006-0.031-0.012v-0.012c-0.012-0.031-0.012-0.068-0.012-0.111-0.012-0.012-0.012-0.031-0.012-0.055v-0.068c0-0.049-0.006-0.080-0.012-0.098v-0.031c-0.012-0.037-0.012-0.062-0.012-0.062 0-0.006 0.012-0.018 0.031-0.049 0.037-0.055 0.086-0.123 0.142-0.197l0.012-0.012c0.037-0.055 0.068-0.092 0.099-0.111 0-0.012 0.012-0.012 0.031-0.012v-0.012l0.296-0.086h0.031c0.037 0.012 0.086 0.025 0.142 0.043 0.012 0 0.025 0.012 0.043 0.031 0.037 0.018 0.068 0.043 0.099 0.068 0.012 0 0.025 0.012 0.043 0.031 0.049 0.055 0.080 0.092 0.093 0.111s0.037 0.062 0.080 0.129c0.012 0.012 0.012 0.025 0.012 0.043v0.197c-0.018 0.049-0.031 0.092-0.037 0.141s-0.019 0.092-0.037 0.141c0 0.031-0.012 0.062-0.031 0.098 0 0.018-0.006 0.031-0.012 0.043l0.012 0.012c0.012 0.018 0.025 0.037 0.043 0.055 0.037 0.031 0.086 0.080 0.142 0.154l0.031 0.031c0.012 0.018 0.018 0.043 0.031 0.061 0.012 0.025 0.019 0.049 0.031 0.080 0 0.012 0 0.018 0.006 0.018 0.006 0.006 0.006 0.012 0.006 0.018 0.012 0.018 0.012 0.031 0.012 0.037s0.006 0.018 0.012 0.037c0.018 0.055 0.037 0.105 0.056 0.141v0.012c0.037 0.074 0.068 0.135 0.086 0.184 0 0.012 0 0.018 0.006 0.018 0.006 0.006 0.006 0.018 0.006 0.037 0.012 0 0.012 0 0.012 0.006s0.006 0.006 0.012 0.006l0.031 0.031 0.086 0.043c0.018 0.018 0.031 0.031 0.031 0.043 0.018 0.018 0.031 0.031 0.037 0.043s0.018 0.025 0.037 0.043c0.012 0.012 0.012 0.018 0.012 0.031s0.012 0.012 0.031 0.012l0.117 0.117c0.012 0.018 0.018 0.037 0.018 0.055 0.006 0.018 0.012 0.037 0.018 0.055 0 0.012 0.012 0.025 0.031 0.043 0.049 0.037 0.080 0.061 0.093 0.068 0.012 0.012 0.043 0.031 0.093 0.068 0.018 0.012 0.043 0.031 0.068 0.055 0.037 0.018 0.068 0.043 0.099 0.062 0.031 0.025 0.062 0.043 0.099 0.062 0.019 0.018 0.049 0.037 0.086 0.055l0.086 0.043c0.037 0.018 0.062 0.031 0.068 0.031 0.037 0.018 0.068 0.031 0.099 0.043h0.056c0.068 0 0.111-0.006 0.142-0.012h0.031c0.031 0 0.049-0.006 0.056-0.012 0.037-0.012 0.074-0.025 0.111-0.043l0.086-0.043c0.018-0.037 0.031-0.062 0.043-0.068 0.018-0.037 0.031-0.055 0.037-0.055s0.025-0.012 0.062-0.031c0.012-0.012 0.018-0.012 0.031-0.012s0.018-0.006 0.031-0.012c0.012 0 0.025-0.012 0.043-0.031 0.031-0.037 0.062-0.074 0.093-0.111s0.062-0.080 0.093-0.129c0.018-0.018 0.031-0.037 0.043-0.055s0.018-0.037 0.031-0.055c0.018-0.018 0.031-0.031 0.037-0.031s0.018-0.012 0.037-0.031c0.018-0.012 0.031-0.018 0.043-0.031s0.025-0.018 0.043-0.031c0.018 0 0.031-0.012 0.031-0.031 0.012-0.018 0.018-0.031 0.031-0.037s0.018-0.018 0.031-0.037c0.012-0.018 0.018-0.031 0.031-0.043s0.018-0.025 0.031-0.043c0.037-0.037 0.062-0.068 0.068-0.086 0.012-0.018 0.019-0.037 0.031-0.049s0.018-0.031 0.031-0.049c0.019-0.055 0.031-0.092 0.031-0.098 0.018-0.055 0.031-0.092 0.031-0.111 0.037-0.055 0.062-0.092 0.068-0.098l0.012-0.012c0.018-0.037 0.031-0.062 0.031-0.068l0.012-0.012c0.019-0.037 0.031-0.074 0.043-0.111s0.025-0.074 0.043-0.111c0-0.018 0-0.031 0.006-0.043s0.006-0.025 0.006-0.043c0.018-0.055 0.031-0.092 0.031-0.111 0.012-0.018 0.012-0.043 0.012-0.068 0-0.018 0-0.037 0.006-0.055s0.006-0.037 0.006-0.055c0-0.018 0-0.031 0.006-0.043s0.006-0.025 0.006-0.043c0.018-0.037 0.031-0.068 0.031-0.098v-0.031c-0.012-0.018-0.031-0.043-0.056-0.068-0.012-0.018-0.019-0.031-0.031-0.043s-0.018-0.025-0.031-0.043c-0.031-0.049-0.062-0.098-0.099-0.154-0.012-0.012-0.012-0.018-0.012-0.018 0-0.006-0.006-0.012-0.012-0.018v-0.221c0.012-0.018 0.012-0.037 0.012-0.049s0.006-0.031 0.012-0.049c0.012-0.018 0.018-0.037 0.031-0.055s0.019-0.037 0.031-0.055l0.031-0.031c0.019-0.018 0.031-0.031 0.043-0.037s0.025-0.018 0.043-0.037l0.031-0.031h0.012c0.037-0.018 0.068-0.037 0.099-0.055s0.056-0.037 0.086-0.055c0.018 0 0.031-0.006 0.031-0.012h0.043l0.031-0.012h0.056c0.049 0 0.093-0.006 0.142-0.012 0.019 0 0.031 0 0.037-0.006s0.018-0.006 0.037-0.006c0.018-0.012 0.031-0.012 0.037-0.006s0.012 0.006 0.019 0.006l0.13 0.043c0.012 0 0.018 0 0.018 0.006 0.006 0.006 0.018 0.006 0.037 0.006 0.031 0.037 0.068 0.062 0.111 0.068 0.019 0.018 0.037 0.037 0.049 0.055s0.031 0.037 0.049 0.055h0.012c0.019 0.018 0.031 0.043 0.031 0.068 0.018 0.018 0.031 0.043 0.031 0.068 0.019 0.018 0.031 0.037 0.031 0.055v-0.006 0.129c-0.012 0.018-0.012 0.037-0.012 0.055s-0.006 0.037-0.012 0.055c-0.012 0.049-0.012 0.074-0.012 0.086s-0.012 0.025-0.031 0.043c-0.019 0.018-0.031 0.043-0.037 0.062-0.006 0.025-0.018 0.049-0.037 0.080 0 0.012 0 0.018-0.006 0.018-0.006 0.006-0.006 0.012-0.006 0.018 0 0.012 0 0.012-0.006 0.012s-0.006 0.006-0.006 0.012c-0.018 0.018-0.031 0.037-0.037 0.049s-0.018 0.031-0.037 0.049c-0.012 0.012-0.018 0.012-0.031 0.012-0.037 0.018-0.062 0.031-0.068 0.031-0.012 0.012-0.018 0.012-0.031 0.012l-0.031 0.031v0.012c0 0.018 0 0.031-0.006 0.043s-0.006 0.025-0.006 0.043c0 0.018 0 0.037-0.006 0.055s0 0.037 0.006 0.055v0.141c-0.012 0.031-0.012 0.055-0.012 0.086s-0.006 0.049-0.012 0.068-0.025 0.086-0.043 0.141c0 0.018 0 0.031-0.006 0.043s-0.006 0.018-0.006 0.031c-0.012 0.018-0.019 0.037-0.019 0.055-0.006 0.018-0.012 0.037-0.018 0.055 0 0.012 0 0.018-0.006 0.018-0.006 0.006-0.006 0.012-0.006 0.018v0.098l-0.043 0.295c0 0.031-0.006 0.049-0.012 0.068 0 0.012 0 0.018-0.006 0.018-0.006 0.006-0.006 0.012-0.006 0.018l-0.043 0.086c-0.018 0.037-0.031 0.068-0.043 0.098 0 0.031-0.006 0.049-0.012 0.068 0 0.018-0.006 0.031-0.012 0.043l-0.012 0.012c-0.019 0.031-0.043 0.049-0.068 0.068-0.012 0.012-0.012 0.018-0.012 0.018 0 0.006-0.006 0.012-0.012 0.018l-0.012 0.031c0 0.012 0 0.018-0.006 0.018-0.006 0.006-0.006 0.018-0.006 0.037 0 0.012 0 0.018-0.006 0.031s-0.006 0.018-0.006 0.031l-0.117 0.086c-0.037 0.037-0.068 0.062-0.086 0.068-0.018 0.018-0.031 0.031-0.031 0.037s-0.006 0.018-0.012 0.037l-0.043 0.086c-0.012 0.018-0.018 0.031-0.018 0.037-0.006 0.006-0.012 0.018-0.019 0.037-0.049 0.086-0.099 0.16-0.154 0.227l-0.13 0.129c-0.019 0.018-0.031 0.031-0.031 0.043-0.012 0.018-0.018 0.037-0.031 0.049s-0.019 0.031-0.031 0.049c-0.012 0.012-0.018 0.018-0.018 0.031-0.006 0.012-0.012 0.018-0.018 0.031l-0.012 0.012c-0.012 0.018-0.031 0.043-0.056 0.068 0 0.037-0.006 0.068-0.012 0.086 0 0.018 0 0.043-0.006 0.062-0.006 0.025-0.006 0.043-0.006 0.062-0.012 0.012-0.012 0.018-0.012 0.031h0.012c0.012 0 0.018-0.006 0.031-0.012 0.037-0.037 0.068-0.068 0.099-0.086 0.019-0.018 0.037-0.031 0.056-0.031l0.031-0.031c0.037-0.018 0.062-0.031 0.062-0.037 0.006-0.006 0.018-0.025 0.049-0.062 0.049-0.031 0.074-0.062 0.086-0.098l0.031-0.031c0.012-0.031 0.031-0.049 0.056-0.055 0.037-0.037 0.062-0.062 0.080-0.068 0.012-0.012 0.043-0.025 0.093-0.043 0.018-0.018 0.037-0.031 0.056-0.031 0.037-0.018 0.074-0.031 0.111-0.043s0.074-0.025 0.111-0.043c0.018-0.012 0.031-0.012 0.043-0.012s0.025-0.006 0.043-0.012c0.049-0.012 0.086-0.018 0.123-0.031 0.031-0.012 0.068-0.025 0.105-0.043l0.056-0.031c0.018-0.012 0.037-0.018 0.049-0.031s0.031-0.018 0.049-0.031c0.012-0.012 0.025-0.012 0.043-0.012h0.099c0.019 0 0.031 0 0.043-0.006s0.019-0.006 0.031-0.006l0.056-0.031c0.037-0.018 0.074-0.031 0.111-0.037s0.074-0.012 0.111-0.018c0.012 0 0.018 0 0.018-0.006 0.006-0.006 0.012-0.006 0.019-0.006h0.068c0.018-0.012 0.031-0.012 0.037-0.012s0.019-0.012 0.037-0.031c0.019-0.018 0.031-0.031 0.043-0.037s0.025-0.018 0.043-0.037c0.012 0 0.012 0 0.012-0.006s0.006-0.006 0.012-0.006c0.018 0 0.037 0 0.049-0.006s0.031-0.006 0.049-0.006c0.019-0.012 0.037-0.012 0.062-0.012s0.043-0.006 0.062-0.012c0.019-0.012 0.056-0.025 0.111-0.043 0.019-0.012 0.037-0.018 0.056-0.031s0.037-0.018 0.056-0.031c0.012-0.012 0.031-0.025 0.068-0.043 0.049-0.018 0.086-0.037 0.123-0.055 0.031-0.018 0.068-0.043 0.105-0.068l0.086-0.043c0.056-0.018 0.093-0.031 0.111-0.031 0.012-0.012 0.019-0.012 0.019-0.012 0.006 0 0.012-0.006 0.018-0.012 0.018-0.018 0.037-0.037 0.062-0.049s0.043-0.031 0.062-0.049l0.012-0.031v-0.068c0-0.068 0.006-0.117 0.012-0.154v-0.111c0-0.018 0.006-0.031 0.012-0.043v-0.018c0.012-0.018 0.018-0.043 0.018-0.068 0.006-0.031 0.018-0.049 0.037-0.068 0.037-0.055 0.062-0.098 0.068-0.129 0.012-0.012 0.012-0.018 0.012-0.018 0-0.006 0.006-0.012 0.012-0.018 0.018-0.018 0.037-0.031 0.055-0.043s0.037-0.025 0.056-0.043c0.012 0 0.018 0 0.018-0.006 0.006-0.006 0.012-0.006 0.018-0.006 0.031-0.012 0.062-0.018 0.093-0.031s0.062-0.018 0.092-0.031c0.037-0.018 0.068-0.031 0.099-0.031 0.012-0.012 0.031-0.012 0.068-0.012 0.018 0.012 0.031 0.012 0.043 0.012s0.025 0.006 0.043 0.012h0.031c0.012 0 0.018 0 0.018 0.006 0.006 0.006 0.012 0.006 0.018 0.006 0.018 0.012 0.037 0.018 0.062 0.031s0.043 0.018 0.062 0.031c0.012 0 0.019 0 0.019 0.006 0.006 0.006 0.012 0.006 0.018 0.006 0.037 0.055 0.068 0.092 0.086 0.111 0.012 0.012 0.012 0.018 0.012 0.018 0 0.006 0.006 0.012 0.012 0.018 0 0.012 0.012 0.031 0.031 0.068 0.012 0.018 0.018 0.037 0.031 0.055s0.018 0.037 0.031 0.055c0.012 0.012 0.025 0.031 0.043 0.068 0.012 0.012 0.012 0.018 0.012 0.031v0.111c0 0.037-0.006 0.074-0.012 0.111v0.031c0 0.031 0 0.055-0.006 0.080s-0.006 0.043-0.006 0.062c-0.012 0.018-0.012 0.031-0.012 0.037s-0.006 0.018-0.012 0.037c0 0.018-0.012 0.037-0.031 0.055-0.018 0.037-0.037 0.074-0.055 0.105s-0.037 0.062-0.055 0.092l-0.031 0.031c-0.018 0.018-0.037 0.031-0.049 0.037s-0.031 0.018-0.049 0.037c-0.012 0-0.019 0.006-0.031 0.012-0.031 0.012-0.062 0.025-0.099 0.043-0.018 0-0.031 0-0.037 0.006s-0.018 0.006-0.037 0.006h-0.068c-0.012 0-0.018 0.006-0.031 0.012h-0.012c-0.037 0.031-0.086 0.062-0.142 0.098-0.018 0.018-0.043 0.037-0.062 0.049-0.025 0.012-0.043 0.031-0.062 0.049l-0.043 0.043c-0.018 0.037-0.043 0.068-0.068 0.098-0.018 0.018-0.037 0.031-0.055 0.043-0.018 0.018-0.031 0.031-0.043 0.037s-0.025 0.018-0.043 0.037c-0.018 0-0.031 0.012-0.031 0.031l-0.043 0.086c-0.012 0.018-0.025 0.037-0.043 0.055-0.012 0.018-0.019 0.031-0.031 0.043s-0.018 0.025-0.031 0.043c-0.012 0.012-0.019 0.012-0.019 0.012-0.006 0-0.012 0.006-0.018 0.012-0.049 0.018-0.086 0.031-0.123 0.043-0.031 0.012-0.074 0.025-0.123 0.043-0.018 0.012-0.037 0.018-0.049 0.018-0.012 0.006-0.031 0.018-0.049 0.037-0.018 0.012-0.037 0.018-0.049 0.018-0.012 0.006-0.031 0.012-0.049 0.018l-0.086 0.086c-0.018 0.018-0.037 0.031-0.049 0.043s-0.031 0.025-0.049 0.043c-0.037 0.018-0.068 0.037-0.086 0.055-0.037 0.018-0.068 0.031-0.086 0.031l-0.173 0.086-0.043 0.031-0.117 0.117c-0.018 0.012-0.037 0.018-0.049 0.018-0.012 0.006-0.031 0.012-0.049 0.018-0.018 0-0.043 0.012-0.068 0.043-0.018 0.012-0.031 0.018-0.037 0.018-0.006 0.006-0.018 0.012-0.037 0.018 0.043 0.031 0.025 0.043 0.006 0.043zM22.036 15.449c-0.012 0.018-0.012 0.049-0.012 0.098-0.018 0.055-0.031 0.092-0.031 0.111-0.018 0.055-0.031 0.111-0.031 0.154 0 0.031 0 0.062-0.006 0.092s-0.006 0.062-0.006 0.092c-0.012 0.037-0.018 0.068-0.018 0.098-0.006 0.031-0.012 0.061-0.018 0.098 0 0.012 0 0.018-0.006 0.031s-0.006 0.025-0.006 0.043v0.043c0 0.092-0.006 0.16-0.012 0.197v0.043c-0.012 0.037-0.012 0.074-0.012 0.105s-0.006 0.068-0.012 0.105v0.111c0 0.037-0.006 0.074-0.012 0.111v0.197c0 0.055-0.006 0.098-0.012 0.129v0.467c0.012 0.049 0.012 0.111 0.012 0.197v0.031c-0.012 0.037-0.012 0.074-0.006 0.105s0.006 0.061 0.006 0.092 0.006 0.049 0.012 0.055v0.043c0.012 0.037 0.012 0.098 0.012 0.184v0.068c0 0.018-0.006 0.031-0.012 0.031l-0.012 0.012c-0.037 0.018-0.062 0.031-0.068 0.031-0.018 0.012-0.037 0.018-0.049 0.031s-0.031 0.018-0.049 0.031-0.074 0.043-0.105 0.068c-0.031 0.031-0.062 0.049-0.093 0.068-0.018 0.012-0.037 0.025-0.055 0.043l-0.228 0.227c-0.019 0.018-0.031 0.037-0.043 0.055s-0.025 0.037-0.043 0.055c-0.012 0.012-0.012 0.018-0.012 0.018 0 0.006-0.006 0.012-0.012 0.018-0.018 0.037-0.043 0.074-0.068 0.111-0.031 0.037-0.049 0.080-0.068 0.129l-0.031 0.055c-0.037 0.123-0.093 0.252-0.154 0.393-0.018 0.037-0.031 0.068-0.031 0.086-0.012 0.049-0.018 0.086-0.031 0.123-0.012 0.031-0.025 0.074-0.043 0.123 0 0.018 0 0.037-0.006 0.055s-0.006 0.037-0.006 0.055c0 0.031-0.006 0.049-0.012 0.068 0 0.012-0.006 0.012-0.012 0.012 0-0.012-0.006-0.012-0.012-0.012-0.012-0.012-0.018-0.018-0.018-0.031-0.006-0.012-0.012-0.018-0.018-0.031l-0.228-0.227c-0.018-0.018-0.037-0.031-0.049-0.043s-0.031-0.025-0.049-0.043c-0.018-0.018-0.056-0.049-0.111-0.086-0.031-0.018-0.056-0.037-0.080-0.055s-0.043-0.037-0.062-0.055c-0.037-0.018-0.062-0.031-0.062-0.037-0.006-0.006-0.018-0.018-0.049-0.037l-0.259-0.129c-0.037-0.43-0.080-0.818-0.123-1.15s-0.086-0.621-0.13-0.867c-0.043-0.246-0.086-0.449-0.136-0.621s-0.093-0.307-0.13-0.412h0.056c0.031-0.012 0.068-0.012 0.13-0.012 0.018-0.012 0.037-0.012 0.056-0.012s0.037-0.006 0.056-0.012 0.068-0.012 0.099-0.012c0.031 0 0.062-0.006 0.099-0.012 0.031-0.012 0.056-0.012 0.080-0.012s0.049-0.006 0.080-0.012c0.074-0.018 0.136-0.031 0.185-0.043 0.019-0.012 0.043-0.012 0.068-0.012 0.037-0.012 0.074-0.018 0.111-0.031s0.074-0.018 0.111-0.031c0.037 0 0.086-0.012 0.142-0.031 0.019 0 0.031 0 0.037-0.006s0.019-0.006 0.037-0.006c0.012-0.012 0.025-0.012 0.043-0.012 0.019-0.012 0.043-0.018 0.068-0.018 0.031-0.006 0.049-0.012 0.068-0.018h0.012c0.018-0.012 0.037-0.012 0.056-0.012s0.037-0.012 0.056-0.031c0.049-0.018 0.111-0.037 0.185-0.055 0.037-0.012 0.074-0.031 0.111-0.055 0.031-0.018 0.062-0.037 0.093-0.055s0.062-0.037 0.093-0.055c0.037-0.018 0.068-0.037 0.086-0.055 0.018-0.012 0.049-0.031 0.086-0.068 0.031-0.018 0.062-0.037 0.099-0.055 0.018-0.018 0.049-0.037 0.086-0.055 0-0.012 0.012-0.025 0.031-0.043s0.055-0.049 0.111-0.086c0.049-0.037 0.093-0.074 0.13-0.105s0.080-0.074 0.13-0.123c0.012-0.012 0.012-0.018 0.012-0.018 0-0.006 0.012-0.012 0.031-0.018h0.012v0.025z"></path>
</svg>
