<!-- Generated by IcoMoon.io -->
<svg version="1.1" xmlns="http://www.w3.org/2000/svg" width="32" height="32" viewBox="0 0 32 32">
<title>token_elder_sign_sealed</title>
<path d="M10.624 13.797c0.035 0.035 0.063 0.062 0.097 0.097s0.063 0.055 0.097 0.076c0.063 0.062 0.111 0.104 0.146 0.124 0.056 0.055 0.104 0.104 0.153 0.145s0.097 0.090 0.153 0.145c0.083 0.083 0.167 0.152 0.25 0.208 0.076 0.055 0.16 0.124 0.25 0.207 0.056 0.055 0.111 0.097 0.181 0.124 0.069 0.035 0.132 0.076 0.181 0.124 0.097 0.076 0.132 0.173 0.111 0.284-0.014 0.021-0.021 0.069-0.035 0.138s-0.014 0.111-0.014 0.138c-0.014 0.041-0.021 0.083-0.035 0.118s-0.021 0.076-0.035 0.118h-0.035c-0.014 0-0.028-0.014-0.049-0.035-0.264-0.18-0.521-0.367-0.771-0.553-0.25-0.194-0.493-0.394-0.722-0.623-0.458-0.415-0.847-0.858-1.181-1.335-0.326-0.463-0.583-0.982-0.764-1.542-0.021-0.062-0.035-0.104-0.035-0.124-0.014-0.014-0.007-0.021 0.007-0.035s0.035-0.014 0.056-0.014c0.063 0.021 0.111 0.041 0.146 0.062 0.014 0.014 0.021 0.014 0.035 0.014 0.118 0.097 0.243 0.18 0.382 0.256s0.285 0.145 0.431 0.207c0.097 0.041 0.194 0.076 0.285 0.111s0.194 0.062 0.306 0.097c0.278 0.083 0.549 0.166 0.82 0.235 0.271 0.076 0.542 0.152 0.82 0.235 0.194 0.055 0.382 0.104 0.583 0.145 0.194 0.042 0.396 0.076 0.597 0.097 0.104 0.021 0.215 0.035 0.319 0.048s0.215 0.021 0.333 0.035l0.382 0.048c0.125 0.021 0.25 0.035 0.375 0.048s0.243 0.028 0.361 0.048c0.063 0.014 0.125 0.021 0.194 0.021 0.063 0.007 0.125 0.007 0.194 0.007 0.056 0.014 0.104 0.014 0.16 0.014s0.104 0.007 0.16 0.014 0.215 0.021 0.319 0.021c0.104 0.007 0.215 0.007 0.319 0.007 0.063 0.014 0.132 0.021 0.201 0.021 0.069 0.007 0.139 0.007 0.201 0.007 0.042 0 0.097 0.014 0.16 0.035 0.056 0.014 0.104 0.041 0.16 0.097s0.104 0.104 0.146 0.159c0.042 0.055 0.090 0.104 0.146 0.159l-0.014 0.035c-0.021 0-0.035 0-0.049 0.007s-0.028 0.007-0.049 0.007c-0.319 0-0.639 0-0.965 0.007s-0.646 0-0.965-0.021c-0.125 0-0.257 0-0.382-0.007s-0.257-0.014-0.382-0.021c-0.083-0.014-0.167-0.021-0.25-0.021-0.076-0.007-0.16-0.014-0.25-0.021-0.056-0.014-0.104-0.014-0.16-0.014s-0.104-0.007-0.16-0.014c-0.264-0.035-0.528-0.069-0.785-0.111s-0.507-0.097-0.764-0.159c-0.118-0.021-0.229-0.048-0.326-0.076-0.104-0.035-0.208-0.062-0.326-0.097-0.021 0-0.042 0-0.063-0.007s-0.042-0.007-0.063-0.007l-0.014 0.014v0.014l0.063 0.035c0.118 0.042 0.236 0.083 0.361 0.124s0.243 0.083 0.361 0.124c0.035 0.021 0.069 0.035 0.104 0.048s0.076 0.028 0.118 0.048v0.014c0 0.014-0.007 0.014-0.014 0.014-0.076 0-0.146 0-0.208-0.007s-0.125-0.014-0.194-0.021l-0.576-0.048c-0.021 0-0.035 0.007-0.049 0.014h-0.014v0.014l0.097 0.048c0.021 0.021 0.056 0.042 0.097 0.062 0.014 0.014 0.014 0.021 0.014 0.035l-0.014 0.014c-0.125 0.021-0.243 0.014-0.354-0.014-0.056-0.021-0.104-0.035-0.16-0.048s-0.104-0.028-0.16-0.048h-0.063c-0.021 0.007-0.007 0.028 0.014 0.048zM15.535 18.445c-0.014 0.014-0.021 0.021-0.021 0.035-0.007 0.014-0.014 0.021-0.021 0.035-0.125 0.18-0.257 0.353-0.382 0.519s-0.257 0.332-0.382 0.498c-0.076 0.083-0.146 0.173-0.208 0.27s-0.125 0.187-0.194 0.27c-0.125 0.201-0.243 0.408-0.34 0.609-0.104 0.208-0.188 0.422-0.264 0.643-0.104 0.297-0.174 0.615-0.208 0.954-0.021 0.097-0.035 0.194-0.035 0.284v0.27c0 0.021-0.007 0.035-0.014 0.048h-0.014c0-0.014-0.007-0.014-0.014-0.014-0.014 0-0.014-0.007-0.014-0.014-0.056-0.076-0.104-0.145-0.153-0.214s-0.097-0.138-0.153-0.214c-0.021-0.041-0.042-0.076-0.063-0.097h-0.014v0.014c0 0.014 0 0.021-0.007 0.035s0 0.028 0.007 0.048l0.097 0.477 0.063 0.291c0.021 0.104 0.042 0.201 0.063 0.311 0.014 0.021 0.014 0.055 0.014 0.111 0 0.014 0 0.014-0.007 0.014s-0.007-0.007-0.007-0.014c-0.021 0-0.035-0.007-0.049-0.014-0.021-0.035-0.049-0.062-0.076-0.090-0.035-0.028-0.056-0.055-0.076-0.090-0.056-0.062-0.104-0.132-0.146-0.201s-0.083-0.138-0.125-0.214-0.167-0.304-0.236-0.47c-0.076-0.166-0.146-0.325-0.208-0.484-0.174-0.436-0.306-0.899-0.396-1.397-0.056-0.256-0.083-0.505-0.097-0.747v-0.145c0-0.014 0.014-0.014 0.035-0.014v0.014c0.014 0.021 0.028 0.062 0.049 0.125 0.021 0.076 0.042 0.145 0.069 0.221s0.049 0.152 0.069 0.235c0 0.014 0.014 0.048 0.035 0.111l0.014 0.014c0.021 0.021 0.035 0.014 0.035-0.035 0-0.055-0.007-0.090-0.014-0.111-0.014-0.097-0.021-0.194-0.035-0.284-0.014-0.097-0.014-0.194-0.014-0.284-0.014-0.145-0.021-0.291-0.021-0.422-0.007-0.131-0.007-0.27-0.007-0.422 0.014-0.159 0.021-0.318 0.021-0.477 0.007-0.159 0.014-0.311 0.021-0.463l0.049-0.526c0.014-0.055 0.014-0.111 0.014-0.173s0.007-0.125 0.014-0.173c0.021-0.166 0.042-0.339 0.063-0.505s0.042-0.346 0.063-0.526c0.021-0.145 0.042-0.304 0.063-0.463s0.042-0.311 0.063-0.463c0.035-0.18 0.063-0.36 0.090-0.546s0.056-0.367 0.090-0.546c0-0.021 0.007-0.035 0.014-0.048 0-0.041 0.021-0.062 0.063-0.062 0.021 0.014 0.042 0.014 0.069 0.014s0.049 0.007 0.069 0.014c0.056 0.014 0.125 0.021 0.208 0.021 0.083 0.007 0.153 0.014 0.208 0.021 0.042 0.014 0.056 0.035 0.049 0.076-0.021 0.083-0.035 0.159-0.049 0.228s-0.028 0.145-0.049 0.228c-0.056 0.339-0.090 0.712-0.104 1.121s-0.014 0.775 0.007 1.107c0 0.104 0.007 0.207 0.014 0.311 0.014 0.104 0.021 0.207 0.035 0.325 0 0.083 0 0.166 0.007 0.235 0.007 0.076 0.014 0.152 0.021 0.235 0.014 0.083 0.021 0.159 0.021 0.228 0.007 0.069 0.014 0.138 0.021 0.214 0.014 0.097 0.021 0.194 0.035 0.291 0.014 0.104 0.021 0.201 0.035 0.291 0 0.014 0 0.014-0.007 0.014s-0.007 0.007-0.007 0.014l-0.035-0.014c-0.021-0.014-0.049-0.035-0.076-0.062l-0.028 0.028v0.014c0.021 0.062 0.042 0.125 0.056 0.18s0.035 0.118 0.056 0.18c0.021 0.021 0.042 0.021 0.063 0 0.014-0.021 0.035-0.048 0.063-0.076 0.076-0.104 0.146-0.207 0.215-0.304s0.146-0.194 0.229-0.304c0.118-0.138 0.229-0.277 0.333-0.415s0.215-0.277 0.333-0.415l0.097-0.076c0.021-0.021 0.069 0.007 0.139 0.076 0.069 0.076 0.111 0.125 0.139 0.145 0.104 0.083 0.215 0.159 0.319 0.228s0.215 0.145 0.319 0.228c0 0.069 0.014 0.083 0.035 0.111zM12.854 12.76c0.014-0.055 0.021-0.104 0.035-0.159s0.028-0.104 0.049-0.159c0.014-0.055 0.021-0.111 0.035-0.166s0.028-0.111 0.049-0.166l0.097-0.332c0.021-0.055 0.035-0.104 0.042-0.159s0.021-0.104 0.042-0.159l0.097-0.332c0.021-0.055 0.035-0.111 0.042-0.166s0.021-0.111 0.042-0.166l0.097-0.332c0.021-0.055 0.035-0.104 0.042-0.159s0.021-0.104 0.042-0.159l0.194-0.664c0.014-0.097 0.035-0.201 0.076-0.318 0.021 0 0.035 0 0.042 0.007s0.014 0.007 0.021 0.007c0.021 0.021 0.035 0.014 0.035-0.035v-0.124c0.014-0.055 0.014-0.131 0.014-0.235 0-0.014 0-0.021 0.007-0.021 0.007-0.007 0.007-0.014 0.007-0.021l0.014-0.014h0.014c0.014 0.014 0.021 0.014 0.035 0.014 0.021 0.062 0.035 0.104 0.049 0.124 0.063 0.138 0.132 0.27 0.201 0.408 0.069 0.131 0.139 0.27 0.201 0.408 0.083 0.145 0.174 0.297 0.271 0.443s0.194 0.29 0.306 0.429c0.243 0.297 0.507 0.553 0.785 0.761 0.021 0.021 0.042 0.035 0.063 0.048 0.014 0.014 0.014 0.021 0.014 0.035-0.014 0.014-0.028 0.014-0.049 0.014h-0.125c-0.014 0-0.014 0.007-0.014 0.014v0.007c0.021 0.014 0.035 0.021 0.042 0.035s0.021 0.021 0.042 0.035c0.326 0.242 0.639 0.484 0.924 0.733 0.34 0.277 0.667 0.56 0.972 0.851s0.611 0.595 0.91 0.913c0.021 0.035 0.042 0.062 0.069 0.090s0.049 0.055 0.069 0.090c0.021 0.021 0.021 0.042 0 0.062-0.035 0.035-0.063 0.062-0.097 0.097s-0.076 0.055-0.125 0.076c-0.035 0.021-0.063 0.021-0.097 0-0.021-0.021-0.042-0.035-0.056-0.048s-0.035-0.021-0.056-0.035c-0.042-0.035-0.076-0.062-0.111-0.097s-0.069-0.055-0.111-0.076c-0.083-0.062-0.167-0.124-0.236-0.18-0.076-0.055-0.153-0.111-0.236-0.166s-0.167-0.104-0.236-0.152c-0.076-0.048-0.153-0.097-0.236-0.152-0.097-0.076-0.194-0.145-0.285-0.207-0.097-0.062-0.194-0.131-0.285-0.207-0.063-0.055-0.125-0.104-0.194-0.152-0.063-0.048-0.125-0.097-0.194-0.152-0.097-0.062-0.188-0.124-0.278-0.18s-0.181-0.118-0.264-0.18h-0.014v0.014l0.097 0.145c0.014 0.021 0.021 0.041 0.035 0.055s0.021 0.035 0.035 0.055v0.014h-0.014c-0.021 0-0.035-0.007-0.035-0.014-0.076-0.041-0.146-0.083-0.215-0.118s-0.139-0.083-0.215-0.138c-0.16-0.083-0.319-0.207-0.479-0.367-0.021-0.014-0.035-0.021-0.042-0.021-0.007-0.007-0.021-0.014-0.042-0.021-0.021 0.021-0.021 0.042 0 0.062 0.021 0.055 0.035 0.111 0.049 0.173s0.028 0.124 0.049 0.173v0.014h-0.035c-0.014 0-0.028-0.014-0.049-0.035l-0.194-0.145c-0.083-0.062-0.146-0.111-0.174-0.138-0.035-0.028-0.076-0.069-0.125-0.118l-0.111-0.111-0.063-0.035c-0.021-0.014-0.056-0.007-0.097 0.014-0.014 0.014-0.028 0.035-0.049 0.076-0.014 0.021-0.021 0.041-0.035 0.062s-0.021 0.042-0.035 0.062c-0.035 0.083-0.063 0.173-0.097 0.27s-0.063 0.187-0.097 0.27c-0.021 0.055-0.035 0.090-0.035 0.118s-0.014 0.069-0.035 0.118c-0.021 0.041-0.049 0.055-0.076 0.035-0.063-0.014-0.167-0.028-0.306-0.048s-0.236-0.035-0.306-0.048c-0.056-0.014-0.076-0.028-0.090-0.041zM14.882 16.605c-0.118 0-0.229-0.007-0.34-0.014-0.111-0.014-0.229-0.028-0.34-0.048-0.118-0.021-0.229-0.055-0.333-0.104s-0.215-0.097-0.319-0.152c-0.021-0.021-0.042-0.035-0.063-0.041s-0.042-0.021-0.063-0.041c-0.021-0.021-0.042-0.042-0.063-0.062s-0.042-0.041-0.063-0.062c-0.16-0.201-0.167-0.477-0.014-0.823 0.042-0.083 0.090-0.159 0.146-0.221s0.139-0.138 0.257-0.221c0.083-0.055 0.167-0.104 0.257-0.145 0.083-0.041 0.167-0.076 0.257-0.111 0.063-0.021 0.125-0.041 0.194-0.055 0.063-0.014 0.125-0.035 0.174-0.055 0.035-0.014 0.069-0.014 0.104-0.014h0.118c0 0.021-0.007 0.035-0.014 0.035-0.014 0.021-0.035 0.048-0.063 0.076-0.056 0.055-0.111 0.138-0.167 0.256s-0.111 0.201-0.153 0.256c-0.021 0.035-0.042 0.097-0.062 0.194s-0.035 0.194-0.035 0.284c0.021 0.214 0.083 0.367 0.181 0.463 0.104 0.097 0.181 0.159 0.229 0.194l0.236 0.145 0.097 0.048c0.035 0.021 0.049 0.041 0.049 0.062 0.014 0.035 0.028 0.048 0.049 0.048 0.035 0.014 0.063 0.014 0.090 0.014s0.056 0.007 0.090 0.014c0.021 0.014 0.035 0.014 0.042 0.014s0.021 0.007 0.042 0.014v0.014c-0.056 0.021-0.132 0.035-0.236 0.035-0.083 0-0.167 0.007-0.285 0.007zM18.292 17.892c0.021-0.014 0.035-0.014 0.042-0.007s0.021 0.007 0.042 0.007c0.063 0 0.132 0.007 0.201 0.014 0.069 0.014 0.139 0.021 0.201 0.035 0.215 0.035 0.417 0.076 0.611 0.125 0.194 0.055 0.396 0.111 0.597 0.173 0.014 0.014 0.035 0.014 0.076 0.014h0.035c0-0.021 0-0.035-0.007-0.041s-0.007-0.014-0.007-0.021c-0.104-0.242-0.208-0.484-0.306-0.719s-0.194-0.477-0.306-0.719c-0.056-0.118-0.090-0.201-0.111-0.263-0.021-0.055-0.042-0.111-0.056-0.159s-0.035-0.097-0.063-0.152c-0.028-0.055-0.069-0.131-0.139-0.235 0-0.014 0.014-0.028 0.042-0.048s0.056-0.041 0.097-0.069c0.035-0.028 0.069-0.048 0.104-0.069s0.049-0.035 0.049-0.048c0.021-0.021 0.049-0.035 0.090-0.048 0.035-0.014 0.069-0.028 0.090-0.048s0.049-0.042 0.076-0.062c0.035-0.021 0.056-0.041 0.076-0.062 0.021 0 0.042 0.014 0.063 0.035 0.076 0.083 0.146 0.166 0.222 0.235 0.076 0.076 0.146 0.152 0.222 0.235 0.215 0.242 0.417 0.498 0.625 0.768 0.201 0.27 0.396 0.54 0.576 0.816 0.181 0.256 0.354 0.512 0.507 0.782 0.16 0.263 0.313 0.533 0.465 0.809l0.813 1.48c0.021 0.041 0.035 0.069 0.035 0.076 0 0.021-0.007 0.035-0.014 0.035h-0.146c-0.042 0-0.090-0.014-0.146-0.035-0.125-0.035-0.257-0.069-0.389-0.104s-0.264-0.076-0.389-0.118c-0.243-0.062-0.486-0.131-0.715-0.201-0.236-0.069-0.465-0.138-0.701-0.214s-0.465-0.152-0.695-0.228-0.451-0.166-0.681-0.263c-0.215-0.083-0.431-0.166-0.646-0.249-0.215-0.076-0.431-0.159-0.646-0.249-0.424-0.166-0.84-0.339-1.25-0.505s-0.82-0.353-1.222-0.553c-0.264-0.125-0.521-0.256-0.771-0.387s-0.5-0.27-0.757-0.422c-0.083-0.055-0.174-0.104-0.271-0.152s-0.188-0.097-0.271-0.152c-0.021-0.021-0.042-0.035-0.063-0.048s-0.042-0.028-0.063-0.048c-0.083-0.062-0.111-0.145-0.076-0.235 0-0.021-0-0.035 0.007-0.048s0.007-0.021 0.007-0.035c0.014-0.021 0.035-0.035 0.063-0.035l0.097 0.048c0.194 0.083 0.354 0.152 0.479 0.201s0.25 0.090 0.361 0.138c0.111 0.042 0.229 0.090 0.361 0.138 0.125 0.048 0.285 0.118 0.479 0.214 0.215 0.097 0.424 0.18 0.639 0.256s0.431 0.138 0.653 0.194c0.146 0.042 0.306 0.083 0.465 0.118s0.313 0.076 0.465 0.118l0.014-0.014v-0.014l-0.076-0.076v-0.035h0.069l0.035 0.014c0.083 0.021 0.167 0.048 0.257 0.069 0.083 0.028 0.167 0.048 0.257 0.069 0.042 0.014 0.083 0.021 0.125 0.035s0.090 0.021 0.146 0.035c0.021 0.014 0.056 0.014 0.111 0.014v-0.035c0-0.014-0.007-0.021-0.014-0.021-0.049-0.014-0.056-0.028-0.056-0.048h0.014zM15.424 14.067c0.014-0.021 0.035-0.028 0.063-0.014 0.021 0 0.042 0.014 0.063 0.035 0.097 0.062 0.194 0.131 0.285 0.207 0.097 0.076 0.187 0.152 0.271 0.235 0.063 0.055 0.118 0.111 0.167 0.18s0.097 0.138 0.153 0.214c0.056 0.083 0.076 0.187 0.076 0.304 0 0.145-0.028 0.311-0.076 0.491-0.014 0.021-0.021 0.048-0.035 0.076-0.014 0.035-0.021 0.062-0.035 0.097-0.014 0.042-0.028 0.097-0.049 0.159-0.021 0.083-0.007 0.18 0.049 0.284 0.021 0.055 0.056 0.111 0.111 0.173 0.014 0.014 0.014 0.021 0.014 0.035v0.014c-0.014 0.014-0.021 0.014-0.035 0.014-0.278 0.021-0.549-0.021-0.82-0.138s-0.5-0.27-0.681-0.47c-0.104-0.104-0.16-0.249-0.16-0.429 0-0.104 0.007-0.187 0.014-0.235 0.063-0.235 0.167-0.443 0.306-0.623 0.014 0 0.021-0.007 0.035-0.014 0 0.014 0 0.014 0.007 0.014s0.007 0.007 0.007 0.014v0.062c0.014 0.055 0.014 0.097 0.014 0.138 0 0.035 0.007 0.083 0.014 0.138 0.014 0.118 0.056 0.214 0.146 0.284 0.035 0.035 0.049 0.035 0.049 0 0.014-0.014 0.014-0.021 0.014-0.035 0.056-0.118 0.090-0.235 0.118-0.36s0.042-0.249 0.042-0.373c0-0.18-0.042-0.332-0.125-0.463 0.014-0.007 0.014-0.014 0-0.014zM19.778 13.687c-0.076-0.014-0.16-0.014-0.264-0.007s-0.181 0.007-0.25 0.007c-0.042 0.014-0.083 0.014-0.118 0.014s-0.076 0.007-0.118 0.014c-0.118 0-0.215-0.035-0.285-0.097l-0.146-0.145c-0.014 0-0.014-0.014-0.014-0.048 0.056 0 0.104 0 0.16-0.007s0.104-0.014 0.16-0.021c0.056-0.014 0.097-0.014 0.139-0.014 0.035 0 0.076-0.007 0.118-0.014 0.014 0 0.014-0.007 0.014-0.014v-0.014c-0.021-0.014-0.042-0.021-0.063-0.035s-0.042-0.028-0.063-0.048v-0.028c0.021-0.014 0.042-0.014 0.069-0.014s0.049-0.007 0.069-0.014c0.139-0.021 0.278-0.042 0.417-0.062s0.278-0.042 0.417-0.062c0.104-0.021 0.215-0.041 0.32-0.055s0.215-0.035 0.333-0.055l0.285-0.048c0.042 0 0.056-0.021 0.035-0.062l-0.035-0.035c0-0.021 0.014-0.035 0.049-0.035 0.042-0.021 0.084-0.035 0.118-0.041s0.076-0.021 0.118-0.041c0.306-0.083 0.618-0.166 0.924-0.256 0.306-0.083 0.618-0.166 0.924-0.256 0.021 0 0.062-0.014 0.125-0.035l0.014 0.014v0.021l-0.035 0.035c-0.243 0.221-0.486 0.45-0.736 0.678-0.243 0.228-0.493 0.45-0.75 0.678-0.236 0.201-0.472 0.394-0.708 0.581s-0.479 0.367-0.722 0.546c-0.215 0.145-0.431 0.304-0.653 0.463s-0.445 0.311-0.653 0.463c-0.215 0.145-0.424 0.304-0.632 0.463s-0.417 0.318-0.632 0.477c-0.16 0.125-0.319 0.263-0.472 0.394-0.153 0.138-0.306 0.284-0.451 0.429-0.021 0.014-0.049 0.035-0.076 0.062-0.118 0.083-0.236 0.083-0.354 0-0.035-0.035-0.049-0.076-0.049-0.125 0.014-0.021 0.021-0.041 0.021-0.062 0.007-0.021 0.014-0.042 0.021-0.062l0.076-0.076c0.118-0.145 0.236-0.291 0.361-0.422s0.25-0.27 0.389-0.408c0.056-0.055 0.111-0.111 0.167-0.166s0.118-0.111 0.181-0.166c0.319-0.318 0.646-0.602 0.972-0.858 0.083-0.076 0.167-0.145 0.257-0.214 0.083-0.069 0.167-0.138 0.257-0.214 0.063-0.055 0.125-0.111 0.181-0.166s0.111-0.124 0.167-0.201c0.042-0.097 0.104-0.173 0.194-0.235 0.035-0.035 0.069-0.076 0.111-0.145l0.097-0.194v-0.062zM16.347 14.524c0.014-0.014 0.014-0.021 0.014-0.021 0-0.007 0.007-0.014 0.014-0.021 0.063-0.042 0.125-0.062 0.194-0.062 0.042-0.021 0.083-0.035 0.125-0.035h0.125c0.042 0 0.083 0 0.118-0.007s0.076-0.007 0.118-0.007c0.035 0 0.035-0.021 0.014-0.062l-0.014-0.035v-0.035c0-0.021 0.007-0.035 0.014-0.035h0.014c0.257-0.035 0.5 0.007 0.736 0.111l0.146 0.097c0.042 0.035 0.076 0.069 0.111 0.111 0.056 0.076 0.076 0.194 0.063 0.36s-0.042 0.29-0.097 0.373c-0.042 0.062-0.076 0.104-0.111 0.124-0.056 0.055-0.111 0.104-0.167 0.145s-0.111 0.083-0.167 0.124c-0.083 0.062-0.167 0.124-0.25 0.18-0.076 0.055-0.16 0.111-0.25 0.166-0.076 0.042-0.146 0.069-0.208 0.090-0.063 0.014-0.132 0.035-0.208 0.055h-0.014c-0.014-0.014-0.035-0.014-0.063-0.007-0.035 0.007-0.049 0-0.049-0.007l0.097-0.097c0.056-0.062 0.125-0.138 0.208-0.221s0.153-0.152 0.208-0.207c0.021-0.021 0.042-0.069 0.069-0.152 0.028-0.076 0.042-0.138 0.056-0.166 0.035-0.097 0.028-0.194-0.014-0.304-0.056-0.097-0.118-0.166-0.194-0.207-0.118-0.097-0.243-0.159-0.382-0.194-0.042-0.014-0.083-0.021-0.125-0.035-0.028 0-0.076-0.007-0.132-0.021z"></path>
</svg>
