<!-- Generated by IcoMoon.io -->
<svg version="1.1" xmlns="http://www.w3.org/2000/svg" width="32" height="32" viewBox="0 0 32 32">
<title>token_-3_sealed</title>
<path d="M19.787 11.373c-0.817 0.049-1.647 0.074-2.489 0.074-0.482 0-0.924-0.004-1.324-0.012-0.392-0.016-0.789-0.041-1.189-0.074-0.090 0-0.159 0.037-0.208 0.11-0.049 0.082-0.086 0.147-0.11 0.196-0.278 0.523-0.584 0.977-0.919 1.361-0.082 0.082-0.135 0.2-0.159 0.356 0 0.155 0.053 0.233 0.159 0.233 0.278 0 0.507-0.147 0.687-0.441 0.196-0.27 0.654-0.441 1.373-0.515 0.262-0.033 0.629-0.049 1.103-0.049 0.27 0 0.527 0.012 0.772 0.037 0.090 0.008 0.151 0.020 0.184 0.037l0.012 0.025c0 0.033-0.037 0.098-0.11 0.196-0.327 0.376-0.65 0.719-0.969 1.030-0.376 0.368-0.723 0.687-1.042 0.956-0.123 0.106-0.184 0.237-0.184 0.392 0 0.123 0.049 0.184 0.147 0.184 0.172 0 0.311-0.029 0.417-0.086 0.147-0.065 0.294-0.098 0.441-0.098 0.67 0 1.226 0.27 1.667 0.809 0.351 0.45 0.527 0.952 0.527 1.508 0 0.131-0.012 0.27-0.037 0.417-0.008 0.703-0.241 1.336-0.699 1.9-0.45 0.564-1.038 0.846-1.765 0.846-0.515 0-0.96-0.192-1.336-0.576-0.368-0.384-0.552-0.805-0.552-1.263v-0.147c-0.008-0.065-0.012-0.106-0.012-0.123 0-0.294 0.061-0.527 0.184-0.699 0.090-0.139 0.241-0.262 0.454-0.368 0.221-0.114 0.331-0.237 0.331-0.368v-0.11c0-0.065-0.020-0.11-0.061-0.135-0.049-0.033-0.11-0.053-0.184-0.061-0.074-0.016-0.184-0.025-0.331-0.025-0.213 0.008-0.396 0.053-0.552 0.135-0.866 0.368-1.3 1.005-1.3 1.913 0 0.654 0.311 1.263 0.932 1.827 0.629 0.564 1.414 0.846 2.354 0.846 0.45 0 0.932-0.106 1.447-0.319 0.499-0.204 0.956-0.486 1.373-0.846 0.409-0.351 0.756-0.756 1.042-1.214s0.433-0.924 0.441-1.398c0-0.499-0.045-0.936-0.135-1.312s-0.229-0.727-0.417-1.054c-0.392-0.678-0.977-1.124-1.753-1.336-0.123-0.025-0.184-0.078-0.184-0.159 0.016-0.074 0.041-0.135 0.074-0.184 0.278-0.327 0.56-0.629 0.846-0.907l0.037-0.037c0.409-0.392 0.715-0.682 0.919-0.87 0.114-0.123 0.176-0.249 0.184-0.38 0-0.131-0.049-0.196-0.147-0.196z"></path>
<path d="M10.132 16.097c-0.003 0-0.005 0.001-0.008 0.001-0.036 0.003-0.072-0.011-0.096-0.038-0.032-0.036-0.039-0.088-0.017-0.131l0.347-0.676c0.016-0.031 0.044-0.055 0.077-0.066 0.012-0.004 0.025-0.006 0.038-0.007 0.006-0 0.011 0 0.016 0 0.092 0.004 0.979 0.046 1.559 0.044s1.469-0.048 1.561-0.053c0.005-0 0.010-0.001 0.016-0 0.028 0.001 0.054 0.013 0.073 0.034 0.009 0.010 0.016 0.021 0.014 0.035-0.014 0.094-0.178 0.433-0.243 0.564-0.017 0.034-0.045 0.062-0.080 0.078-0.021 0.010-0.045 0.015-0.068 0.016-0.002 0-0.004 0-0.006 0-0.058-0-0.901-0.001-1.47 0.031-0.636 0.036-1.643 0.159-1.712 0.168z"></path>
</svg>
