<!-- Generated by IcoMoon.io -->
<svg version="1.1" xmlns="http://www.w3.org/2000/svg" width="32" height="32" viewBox="0 0 32 32">
<title>token_tablet_overlay</title>
<path d="M15.905 4.063l-0.4 0.4c0 0.295 0.021 0.569 0.021 0.864l0.4-0.4c0-0.295-0.021-0.589-0.021-0.863zM16.116 4.063c0 0.295-0 0.568-0.021 0.863l0.4 0.4c0.021-0.295 0.021-0.59 0.021-0.864l-0.4-0.4zM15.316 4.632l-0.379 0.379 0.058 0.755c0.030-0.005 0.060-0.011 0.086-0.016l0.298-0.297-0.063-0.821zM16.705 4.632l-0.056 0.731c0.063-0.014 0.142-0.024 0.234-0.021 0.060-0.005 0.118-0.007 0.176-0.006l0.025-0.325-0.379-0.379zM17.232 5.158c-0.009 0.060-0.015 0.118-0.023 0.176 0.007-0.001 0 0.005-0.001 0.006-0 0.003-0.001 0.005-0.001 0.008 0.064-0.022 0.128-0.029 0.185-0.031l-0.008-0.008c-0 0-0 0-0 0l-0.152-0.152zM14.789 5.179l-0.358 0.358c0.016 0.093 0.027 0.191 0.039 0.287 0.015-0.003 0.033-0.008 0.046-0.010 0.109-0.022 0.225-0.027 0.355-0.030-0.027-0.207-0.049-0.408-0.082-0.605zM14.284 5.684l-0.337 0.337c0.002 0.013 0.006 0.027 0.008 0.041 0.051-0.030 0.095-0.056 0.145-0.096l0.046-0.037 0.055-0.023c0.045-0.019 0.084-0.030 0.124-0.042-0.013-0.060-0.025-0.121-0.041-0.179zM13.863 6.105l-0.074 0.074c0.023-0.019 0.041-0.033 0.077-0.060-0.001-0.005-0.002-0.009-0.002-0.014zM17.514 6.123c-0.004 0.001-0.007 0.002-0.012 0.004 0.004-0.001 0.007-0.001 0.011-0.002 0-0.001 0-0.001 0-0.002zM17.51 6.142c-0.007 0.003-0.044-0-0.065 0.003-0.037 0.013-0.071 0.022-0.103 0.029l0.142 0.142c0.009-0.056 0.018-0.116 0.027-0.174-0-0-0.001 0-0.001 0zM17.634 6.154l-0.044 0.267 0.337 0.337c0.032-0.19 0.075-0.38 0.104-0.57-0.010 0-0.029-0.001-0.037-0.001l-0.020 0-0.020-0.002c-0.097-0.007-0.205-0.016-0.319-0.031zM18.164 6.19c-0.054 0.214-0.096 0.441-0.153 0.653l0.337 0.316c0-0.021 0.021-0.063 0.021-0.084 0.042-0.211 0.105-0.4 0.147-0.611l-0.272-0.272c-0.031-0.001-0.051-0-0.079-0.001zM18.642 6.568c-0.063 0.189-0.105 0.358-0.169 0.548-0.021 0.063-0.021 0.105-0.042 0.147l0.294 0.295c0.042-0.105 0.063-0.231 0.105-0.337 0.021-0.126 0.064-0.232 0.127-0.337l-0.316-0.316zM13.163 6.785l-0.058 0.058c0.001 0.004 0.002 0.007 0.003 0.011 0.008-0.010 0.017-0.019 0.024-0.030 0.010-0.014 0.020-0.026 0.030-0.039zM13 6.926l-0.316 0.316c0.010 0.020 0.015 0.035 0.020 0.050 0.045-0.035 0.069-0.058 0.075-0.066l0.011-0.016 0.013-0.015c0.059-0.068 0.118-0.127 0.179-0.187 0-0 0-0.001 0.001-0.001 0.011-0.013 0.019-0.025 0.030-0.037-0.005-0.015-0.008-0.026-0.014-0.043zM19.021 6.947c-0.042 0.105-0.063 0.19-0.105 0.295l-0.126 0.379 0.197 0.183c0.002-0.001 0.003-0.001 0.005-0.001 0.032-0.007 0.075-0.004 0.125 0.002 0.053-0.153 0.106-0.299 0.158-0.457 0.021-0.021 0.021-0.063 0.042-0.105l-0.295-0.295zM12.621 7.326l-0.097 0.114c0.035-0.031 0.071-0.059 0.107-0.087-0.004-0.009-0.009-0.018-0.009-0.026zM19.421 7.326c0 0.021-0.021 0.042-0.021 0.063-0.064 0.143-0.117 0.287-0.175 0.431 0.156 0.024 0.276 0.043 0.36 0.056 0.049-0.113 0.101-0.226 0.152-0.339 0-0.021 0.021-0.042 0.021-0.063h-0.19l-0.147-0.147zM7.653 7.453c0.611 0.674 1.242 1.326 1.853 1.958 0.168 0.168 0.336 0.342 0.505 0.516 0.037 0.002 0.074 0.005 0.11 0.011h0c0.073 0.011 0.132 0.039 0.177 0.064 0.036 0.016 0.066 0.033 0.085 0.046 0.037 0.026 0.035 0.026 0.021 0.016l0.013 0.009 0.012 0.010c0.010 0.008 0.030 0.021 0.073 0.046 0.025 0.015 0.060 0.037 0.098 0.063 0.010 0.003 0.019 0.008 0.028 0.012l0.057-0.057c-0.295-0.316-0.59-0.652-0.905-0.989-0.526-0.568-1.053-1.116-1.579-1.705h-0.547zM23.021 7.453c-0 0.001-0.001 0.001-0.002 0.002 0.011 0.022 0.022 0.041 0.032 0.065 0.084 0.184 0.043 0.306 0.037 0.343l-0.008 0.052-0.021 0.049c-0.020 0.046-0.026 0.067-0.032 0.106l-0.002 0.017c0.181-0.212 0.357-0.414 0.543-0.632h-0.547zM8.474 7.474c0.463 0.547 0.926 1.074 1.389 1.621l0.884 1.011 0.252-0.252c-0.274-0.337-0.568-0.674-0.842-1.011-0.4-0.463-0.779-0.905-1.137-1.368h-0.547zM9.211 7.474c0.337 0.442 0.674 0.884 1.011 1.305 0.274 0.358 0.547 0.695 0.821 1.032l0.239-0.239c-0.016-0.028-0.029-0.056-0.040-0.086l-0.704-0.938-0.821-1.074h-0.505zM11.147 7.474c0.084 0.147 0.19 0.316 0.274 0.484 0.050 0.093 0.103 0.186 0.155 0.278 0.049-0.049 0.102-0.090 0.157-0.123 0.046-0.034 0.093-0.067 0.139-0.101-0.038-0.074-0.076-0.146-0.114-0.222-0.063-0.105-0.105-0.211-0.168-0.316h-0.442zM11.716 7.474c0.042 0.105 0.084 0.19 0.126 0.274 0.037 0.068 0.070 0.14 0.105 0.21 0.053-0.039 0.106-0.077 0.16-0.116 0.057-0.041 0.108-0.085 0.155-0.129-0.020-0.045-0.042-0.088-0.061-0.134-0.021-0.042-0.042-0.063-0.063-0.105h-0.421zM12.263 7.474c0 0.021 0.021 0.042 0.021 0.063 0.015 0.034 0.031 0.070 0.046 0.105 0.006-0.007 0.014-0.014 0.021-0.021l-0.014 0.017c0.047-0.061 0.097-0.114 0.15-0.164h-0.224zM19.863 7.474c-0.021 0.042-0.021 0.063-0.042 0.126-0.043 0.094-0.090 0.189-0.137 0.285 0.061 0.002 0.12-0.001 0.17-0.013 0.056-0.017 0.138-0.020 0.245-0.006 0.019-0.039 0.040-0.079 0.058-0.118 0.042-0.084 0.084-0.19 0.126-0.274h-0.421zM21.021 7.474c-0.126 0.189-0.232 0.358-0.337 0.547-0.007 0.010-0.013 0.022-0.019 0.032 0.061 0.027 0.121 0.053 0.19 0.078 0.054 0.020 0.107 0.046 0.162 0.074 0.161-0.244 0.305-0.488 0.468-0.732h-0.463zM21.632 7.474c-0.184 0.265-0.367 0.512-0.531 0.776 0.003 0.002 0.006 0.003 0.010 0.005 0.094 0.059 0.216 0.132 0.326 0.198 0.215-0.327 0.444-0.638 0.657-0.947-0.007-0.010-0.013-0.023-0.019-0.032h-0.442zM23.821 7.474c-0.324 0.324-0.639 0.656-0.952 0.99-0.018 0.041-0.036 0.080-0.058 0.131l-0 0.001c-0.013 0.032-0.036 0.099-0.065 0.171-0.035 0.164-0.102 0.315-0.196 0.444 0.024 0.028 0.047 0.057 0.070 0.089 0.014-0.006 0.022-0.011 0.039-0.016 0-0 0 0 0 0 0.584-0.603 1.166-1.207 1.731-1.81h-0.568zM9.884 7.495c0.253 0.337 0.484 0.674 0.716 1.011 0.197 0.287 0.408 0.573 0.609 0.86-0.003-0.026-0.005-0.056-0.010-0.079-0.010-0.035-0.033-0.068-0.035-0.097-0.005-0.077 0.005-0.114 0.007-0.128l0.011-0.068 0.032-0.061c0.001-0.002 0.009-0.020 0.015-0.058l0.004-0.026 0.007-0.025c0.004-0.013 0.009-0.025 0.013-0.037-0.114-0.169-0.229-0.338-0.338-0.512-0.168-0.274-0.358-0.527-0.547-0.779h-0.484zM10.537 7.495c0.147 0.232 0.316 0.484 0.463 0.737 0.096 0.154 0.193 0.303 0.289 0.453 0.022-0.054 0.046-0.107 0.072-0.158l0.021-0.041 0.030-0.035c0.035-0.041 0.044-0.056 0.045-0.058v-0c0.015-0.028 0.033-0.054 0.052-0.080-0.058-0.097-0.115-0.194-0.173-0.291-0.105-0.189-0.232-0.358-0.337-0.526h-0.463zM20.41 7.495c-0.063 0.105-0.105 0.211-0.168 0.316-0.016 0.030-0.032 0.062-0.049 0.093 0.076 0.036 0.152 0.053 0.236 0.059l0.019 0.003c0.026 0.023 0.054 0.027 0.074 0.030 0.010 0.002 0.026 0.010 0.039 0.016 0.006-0.011 0.012-0.021 0.018-0.032 0.105-0.168 0.19-0.337 0.274-0.484h-0.442zM7.484 7.621v0.548c0.568 0.547 1.137 1.074 1.705 1.6 0.098 0.092 0.192 0.179 0.288 0.268l0.012-0.022 0.168-0.047c0.075-0.021 0.149-0.033 0.221-0.039-0.147-0.145-0.292-0.29-0.437-0.435-0.653-0.611-1.305-1.242-1.958-1.874zM24.537 7.621c-0.575 0.557-1.151 1.099-1.726 1.652 0.012 0.001 0.022-0 0.034 0.002l0.090 0.014 0.076 0.050c0.061 0.040 0.122 0.078 0.19 0.129 0.452-0.419 0.902-0.838 1.337-1.257v-0.59zM22.183 7.661l-0.651 0.851c0.069 0.042 0.123 0.076 0.197 0.12 0.047 0.030 0.074 0.045 0.112 0.067 0.027-0.035 0.054-0.068 0.081-0.103 0.002-0.007 0.005-0.013 0.006-0.020l0.008-0.051 0.020-0.048c0.017-0.039 0.037-0.111 0.080-0.212v-0l0-0c0.026-0.062 0.061-0.153 0.114-0.255l0.004-0.007 0.004-0.007c0.030-0.052 0.040-0.077 0.049-0.11l-0.011 0.050c0.009-0.055 0.030-0.104 0.046-0.157-0.004-0.007-0.004-0.009-0.009-0.018-0.017-0.030-0.033-0.067-0.050-0.1zM7.463 8.463v0.526c0.442 0.379 0.905 0.779 1.368 1.158 0.137 0.12 0.274 0.234 0.411 0.348 0.006-0.013 0.011-0.020 0.017-0.035l0.003-0.008c0.046-0.102 0.091-0.197 0.141-0.286l0.018-0.031c-0.105-0.094-0.209-0.188-0.316-0.282-0.526-0.463-1.074-0.927-1.642-1.39zM24.516 8.463c-0.419 0.354-0.827 0.708-1.239 1.063l0.080 0.069 0.013 0.041 0.055 0.028 0.031 0.134-0.030-0.024c0.013 0.009 0.020 0.029 0.033 0.039l0.009 0.041c-0.014-0.061-0.005-0.037-0.002-0.031 0.015 0.012 0.029 0.025 0.044 0.037 0.34-0.285 0.674-0.572 1.005-0.871v-0.526zM7.463 9.2v0.505l1.074 0.821 0.498 0.373c0.026-0.090 0.070-0.186 0.141-0.27 0.010-0.018 0.021-0.042 0.030-0.062-0.139-0.111-0.278-0.223-0.417-0.336-0.442-0.358-0.863-0.695-1.326-1.032zM24.537 9.242c-0.312 0.238-0.621 0.475-0.926 0.713 0.078 0.080 0.149 0.171 0.202 0.279l0.007 0.015 0.027 0.004 0.69-0.527v-0.484zM7.484 9.895v0.484c0.253 0.189 0.526 0.358 0.8 0.547 0.216 0.149 0.425 0.288 0.635 0.424 0.017-0.079 0.047-0.156 0.088-0.224 0.002-0.012 0.002-0.028 0.001-0.050l-0.002-0.042 0.007-0.042c0.001-0.008 0.005-0.018 0.006-0.026-0.168-0.121-0.336-0.241-0.503-0.357-0.337-0.232-0.694-0.484-1.031-0.716zM24.516 9.916c-0.207 0.155-0.414 0.302-0.621 0.446l0.044 0.155c0.026 0.092 0.046 0.167 0.066 0.242 0.176-0.124 0.35-0.246 0.532-0.359h-0.021v-0.484zM22.831 10.325c-0.005 0.039-0.023 0.088-0.058 0.148 0.033-0.028 0.067-0.055 0.1-0.083-0.013-0.023-0.025-0.048-0.042-0.066zM22.949 10.471c-0.086 0.068-0.173 0.136-0.259 0.205-0.011 0.021-0.023 0.041-0.038 0.061-0.050 0.090-0.094 0.165-0.1 0.179-0.046 0.108-0.095 0.183-0.128 0.242-0.015 0.027-0.028 0.045-0.042 0.069l0.071 0.077 0.684-0.513c-0.009-0.016-0.019-0.033-0.025-0.046-0.020-0.045-0.038-0.093-0.058-0.146-0.030-0.061-0.064-0.098-0.105-0.129zM24.516 10.526c-0.156 0.099-0.322 0.206-0.491 0.312 0.019 0.067 0.035 0.132 0.046 0.187 0.034 0.104 0.076 0.199 0.060 0.17l-0.031-0.049c0.024 0.033 0.036 0.061 0.048 0.089 0.128-0.075 0.254-0.149 0.389-0.224h-0.021v-0.484zM7.484 10.547v0.463c0.189 0.105 0.358 0.232 0.547 0.337 0.291 0.174 0.565 0.332 0.852 0.504 0.007-0.033 0.013-0.065 0.022-0.1 0.005-0.018 0.010-0.056 0.003-0.12-0.010-0.064-0.012-0.132-0.004-0.201-0.216-0.136-0.434-0.277-0.663-0.42-0.253-0.147-0.505-0.316-0.758-0.463zM23.163 10.874c-0.223 0.159-0.446 0.32-0.669 0.474l0.253 0.252c0.173-0.108 0.346-0.222 0.516-0.336l-0.004-0.011-0.005-0.022c-0.016-0.077-0.029-0.138-0.046-0.19l-0.003-0.009-0.003-0.009c-0.013-0.047-0.027-0.099-0.041-0.15zM7.484 11.137v0.463c0.105 0.063 0.211 0.105 0.316 0.169 0.274 0.147 0.568 0.295 0.842 0.442l0.215-0.215c0.004-0.028 0.009-0.056 0.014-0.085-0.299-0.178-0.581-0.34-0.882-0.5-0.168-0.084-0.337-0.189-0.505-0.273zM24.537 11.158c-0.107 0.061-0.226 0.131-0.347 0.199l0.028 0.037 0.021 0.057c0.035 0.097 0.062 0.182 0.089 0.266 0.066-0.038 0.137-0.073 0.21-0.117v-0.442zM23.278 11.309c-0.161 0.104-0.322 0.208-0.488 0.312l0.14 0.14c0.026-0.018 0.046-0.030 0.063-0.028 0.059 0.037 0.101 0.063 0.141 0.089 0.093-0.051 0.186-0.105 0.279-0.158-0.007-0.020-0.013-0.040-0.018-0.061l-0.005-0.010c-0.054-0.1-0.078-0.179-0.111-0.284zM23.382 11.531l0.004 0.032c0.002 0.014 0.004 0.024 0.008 0.035-0.005-0.022-0.010-0.045-0.012-0.067zM7.484 11.705c0.006 0.003 0.014 0.007 0.021 0.010v-0.010h-0.021zM7.505 11.715v0.411c0.021 0.021 0.063 0.042 0.105 0.063 0.232 0.126 0.484 0.232 0.716 0.337l0.252-0.274c-0.274-0.147-0.547-0.295-0.821-0.421-0.078-0.039-0.172-0.078-0.252-0.116zM24.537 11.705c-0.071 0.029-0.127 0.057-0.186 0.086 0.030 0.095 0.057 0.188 0.087 0.283 0.017 0.041 0.030 0.071 0.041 0.090 0.002 0.004 0.004 0.008 0.006 0.012 0.016-0.008 0.031-0.018 0.052-0.029v-0.442zM23.456 11.769c-0.077 0.045-0.154 0.090-0.232 0.133 0.018 0.045 0.037 0.080 0.060 0.092 0.012 0.049 0.053 0.102 0.131 0.17 0.007 0.005 0.014 0.012 0.021 0.017 0.045-0.023 0.088-0.045 0.132-0.068-0.008-0.026-0.019-0.062-0.026-0.085-0.028-0.087-0.056-0.171-0.087-0.259zM23.587 12.169c-0.033 0.017-0.068 0.033-0.1 0.050 0.077 0.065 0.144 0.146 0.196 0.248 0.010 0.024 0.015 0.034 0.023 0.054 0.003-0.001 0.006-0.003 0.009-0.004-0.026-0.052-0.047-0.1-0.061-0.135l-0.006-0.015-0.005-0.016c-0.023-0.071-0.038-0.123-0.056-0.183zM7.484 12.232v0.232l-0.148 0.105c0.021 0 0.042 0.021 0.063 0.021 0.189 0.084 0.379 0.147 0.568 0.232l0.274-0.274c-0.232-0.084-0.463-0.19-0.695-0.295-0.021 0-0.042-0.021-0.063-0.021zM24.558 12.252c-0.010 0-0.019 0.005-0.029 0.010 0.012 0.025 0.021 0.046 0.029 0.067v-0.077zM24.617 12.522c0.007 0.036 0.009 0.072 0.012 0.109 0.019-0 0.039-0.002 0.076-0.021l-0.088-0.088zM7.274 12.674l-0.316 0.316c0.105 0.042 0.189 0.063 0.294 0.105l0.379 0.127 0.295-0.295c-0.189-0.063-0.379-0.126-0.547-0.19-0.042-0.021-0.084-0.042-0.105-0.063zM24.748 12.674c-0.042 0.021-0.063 0.021-0.105 0.042-0.003 0.001-0.005 0.002-0.008 0.003 0 0.014 0.003 0.028 0.003 0.042 0.010 0.102 0.007 0.201 0.001 0.244v0.002c-0.001 0.007-0.001 0.022 0 0.061 0.004 0.024 0.006 0.043 0.009 0.067l0.122-0.041c0.105-0.042 0.189-0.063 0.273-0.126l-0.294-0.295zM6.874 13.095l-0.316 0.316c0.168 0.042 0.358 0.105 0.547 0.148 0.063 0.021 0.105 0.021 0.147 0.042l0.295-0.295c-0.105-0.042-0.231-0.063-0.337-0.105s-0.231-0.084-0.337-0.105zM25.147 13.095c-0.105 0.042-0.232 0.063-0.337 0.105-0.047 0.019-0.098 0.032-0.149 0.046 0.001 0.010 0.004 0.025 0.005 0.035 0.010 0.109 0.008 0.184 0.012 0.226l0 0.002 0.090 0.090c0.042-0.021 0.105-0.021 0.147-0.042 0.189-0.063 0.358-0.105 0.547-0.148l-0.316-0.316zM6.453 13.495l-0.337 0.337c0.232 0.063 0.484 0.105 0.715 0.169l0.337-0.316-0.084-0.021c-0.211-0.063-0.421-0.105-0.632-0.169zM25.568 13.516c-0.211 0.042-0.421 0.105-0.632 0.148-0.021 0-0.063 0.021-0.084 0.021l0.316 0.316c0.253-0.063 0.484-0.126 0.737-0.147l-0.337-0.337zM25.989 13.937c-0.232 0.042-0.484 0.105-0.737 0.148l0.337 0.337c0.253-0.042 0.505-0.084 0.737-0.147l-0.337-0.337zM5.989 13.958l-0.337 0.337 0.758 0.126 0.337-0.337c-0.253-0.042-0.485-0.084-0.758-0.126zM5.505 14.421l-0.358 0.358c0.274 0.042 0.526 0.063 0.8 0.105l0.358-0.358c-0.253-0.021-0.505-0.063-0.8-0.105zM26.474 14.421c-0.253 0.042-0.526 0.063-0.779 0.105l0.358 0.358c0.253-0.042 0.526-0.084 0.779-0.105l-0.358-0.358zM27 14.926l-0.821 0.063 0.379 0.379 0.821-0.063-0.379-0.379zM5.021 14.947l-0.379 0.379 0.821 0.063 0.379-0.379-0.821-0.063zM27.547 15.495c-0.295 0-0.568 0.021-0.863 0.021l0.4 0.4c0.295 0 0.589-0.021 0.863-0.021l-0.4-0.4zM4.453 15.516l-0.4 0.4c0.295 0 0.568 0.021 0.863 0.021l0.4-0.4c-0.295-0.021-0.568-0.021-0.863-0.021zM4.937 16.084c-0.295 0.021-0.568 0.021-0.863 0.021l0.4 0.4c0.295 0 0.568-0.021 0.863-0.021l-0.4-0.4zM27.084 16.084l-0.4 0.4c0.295 0.021 0.589 0.021 0.863 0.021l0.4-0.4c-0.295 0-0.568-0.021-0.863-0.021zM5.484 16.632l-0.821 0.063 0.379 0.379 0.821-0.063-0.379-0.379zM26.558 16.632l-0.379 0.379 0.821 0.063 0.379-0.379-0.821-0.063zM26.053 17.116l-0.358 0.358c0.253 0.042 0.526 0.084 0.8 0.105l0.358-0.358c-0.274-0.042-0.526-0.063-0.8-0.105zM5.968 17.137c-0.253 0.021-0.526 0.063-0.779 0.105l0.358 0.358c0.253-0.042 0.527-0.063 0.779-0.105l-0.358-0.358zM6.432 17.579c-0.253 0.042-0.505 0.105-0.737 0.147l0.337 0.337c0.232-0.042 0.484-0.105 0.737-0.148l-0.337-0.337zM25.59 17.579l-0.337 0.337c0.253 0.042 0.506 0.105 0.758 0.126l0.337-0.337-0.758-0.126zM6.853 18c-0.232 0.063-0.484 0.126-0.737 0.147l0.337 0.337c0.211-0.042 0.4-0.105 0.611-0.148 0.042 0 0.063-0.021 0.105-0.021l-0.316-0.316zM25.169 18l-0.316 0.337c0.021 0 0.063 0.021 0.084 0.021 0.211 0.042 0.421 0.105 0.611 0.148l0.337-0.337c-0.232-0.063-0.484-0.105-0.715-0.169zM24.768 18.4l-0.009 0.009c-0.005 0.040-0.013 0.079-0.023 0.117-0.001 0.009-0.001 0.018-0.002 0.026-0.004 0.027 0.001 0.056 0.006 0.085 0.015 0.030 0.020 0.059 0.035 0.090 0.004 0.018 0.003 0.041 0.002 0.063 0.010 0.004 0.022 0.006 0.032 0.010 0.105 0.042 0.232 0.063 0.337 0.105l0.316-0.316c-0.189-0.042-0.358-0.105-0.547-0.148-0.042-0.021-0.105-0.021-0.147-0.042zM7.274 18.421c-0.063 0.021-0.105 0.021-0.169 0.042-0.189 0.042-0.358 0.084-0.526 0.148l0.316 0.316c0.105-0.042 0.211-0.063 0.316-0.105 0.126-0.021 0.231-0.063 0.358-0.105l-0.294-0.295zM7.632 18.8c-0.126 0.042-0.274 0.084-0.4 0.126-0.084 0.021-0.168 0.063-0.252 0.105l0.316 0.316c0.021-0.021 0.063-0.021 0.084-0.042 0.168-0.063 0.358-0.147 0.547-0.211l-0.295-0.294zM24.769 18.884c-0.003 0.019-0.004 0.033-0.007 0.055l-0.023 0.146c-0.010 0.066-0.014 0.137-0.019 0.206 0.011 0.001 0.021-0.001 0.028-0.008l0.294-0.295c-0.084-0.042-0.189-0.063-0.273-0.105zM7.989 19.137c-0.189 0.084-0.4 0.147-0.589 0.232-0.021 0.021-0.042 0.021-0.042 0.021l0.127 0.126v0.232c0.021 0 0.042-0.021 0.063-0.021 0.216-0.098 0.449-0.196 0.667-0.294 0.002-0.021 0.003-0.043 0.006-0.063l-0.231-0.232zM8.205 19.55c-0.206 0.093-0.405 0.193-0.616 0.281-0.042 0-0.063 0.021-0.105 0.042v0.442c0.105-0.042 0.189-0.084 0.273-0.126 0.131-0.071 0.267-0.136 0.403-0.201 0.001-0.071 0.007-0.138 0.022-0.198l0.007-0.026 0.010-0.026c0.005-0.012 0.004-0.016 0.005-0.018l-0.001-0.026c-0.001-0.049 0-0.096 0.002-0.143zM8.164 20.055c-0.128 0.066-0.254 0.132-0.386 0.197-0.084 0.063-0.189 0.105-0.294 0.169h-0.021v0.442c0.147-0.084 0.316-0.189 0.484-0.273 0.080-0.043 0.161-0.089 0.241-0.134-0-0.009-0-0.013-0.001-0.022-0.012-0.062-0.021-0.132-0.015-0.218-0.006-0.054-0.007-0.107-0.009-0.16zM8.192 20.577l-0.161 0.096c-0.189 0.126-0.358 0.232-0.547 0.337h0.021v0.442c0.237-0.138 0.456-0.294 0.69-0.434-0.001-0.006-0-0.004-0.005-0.022l-0.009-0.032-0.004-0.034c-0.012-0.103-0.025-0.218 0.015-0.353zM24.537 21.080c-0.013 0.027-0.020 0.055-0.026 0.090 0.020 0.059 0.013 0.104-0.013 0.147-0.016 0.025-0.032 0.054-0.048 0.081 0.029 0.018 0.057 0.037 0.086 0.054v-0.373zM8.178 21.162c-0.233 0.146-0.456 0.294-0.693 0.458v0.526c0.24-0.18 0.479-0.348 0.719-0.514-0.004-0.039-0.007-0.079-0.007-0.118 0.001-0.058-0.001-0.106-0.002-0.113-0.012-0.074-0.023-0.148-0.018-0.241zM22.559 21.48c-0.102-0.003-0.211 0.015-0.336 0.062l0.692 0.606c0.547 0.463 1.074 0.927 1.621 1.39v-0.526c-0.463-0.4-0.905-0.779-1.368-1.158-0.135-0.118-0.269-0.231-0.404-0.343-0.068-0.014-0.137-0.028-0.206-0.030zM24.367 21.487c-0.008 0-0.013 0.004-0.023 0.002-0.108 0.023-0.339 0.056-0.57 0.080 0.254 0.184 0.509 0.362 0.764 0.537h0.021v-0.484c-0.065-0.045-0.127-0.089-0.191-0.134zM22.048 21.541c-0.048-0.008-0.099 0.003-0.132 0.026-0.087-0.014-0.193-0.008-0.3-0.004 0.335 0.314 0.649 0.628 0.963 0.942 0.653 0.611 1.305 1.242 1.958 1.852v-0.568c-0.547-0.526-1.116-1.053-1.684-1.579-0.244-0.214-0.479-0.437-0.718-0.656-0.025-0.004-0.047-0.007-0.088-0.014zM22.963 21.551c0.090 0.072 0.179 0.144 0.269 0.217 0.442 0.337 0.863 0.674 1.305 1.053v-0.505l-0.956-0.731c-0.174 0.014-0.336 0.022-0.412 0.010s-0.141-0.028-0.206-0.043zM21.59 21.6l-0.253 0.253c0.295 0.337 0.611 0.652 0.905 0.989 0.526 0.568 1.053 1.116 1.6 1.684h0.568c-0.632-0.653-1.242-1.305-1.873-1.958-0.316-0.316-0.632-0.653-0.947-0.968zM8.221 21.741c-0.246 0.181-0.491 0.366-0.736 0.553h-0.021v0.505c0.248-0.189 0.496-0.378 0.74-0.567 0-0.038 0.001-0.076 0.004-0.111-0.013-0.105-0.006-0.196 0.015-0.278 0.003-0.008 0.003-0.015 0.006-0.023-0.001-0.020-0.001-0.036-0.002-0.061-0.001-0.006-0.003-0.013-0.005-0.019zM21.274 21.895l-0.253 0.252c0.274 0.337 0.568 0.674 0.842 1.011 0.379 0.463 0.758 0.905 1.137 1.368h0.547c-0.463-0.547-0.926-1.074-1.389-1.621l-0.884-1.011zM20.958 22.211l-0.232 0.232 0.758 1.011c0.274 0.358 0.547 0.716 0.779 1.095h0.505c-0.337-0.442-0.674-0.884-1.011-1.305-0.253-0.358-0.526-0.695-0.8-1.032zM8.208 22.409c-0.24 0.201-0.479 0.401-0.724 0.602v0.547c0.258-0.218 0.51-0.436 0.762-0.654-0.005-0.023-0.005-0.043-0.013-0.068-0.011-0.088-0.010-0.154 0.007-0.204l-0.005-0.021c-0.014-0.069-0.022-0.135-0.028-0.202zM20.684 22.484l-0.252 0.252c0.211 0.337 0.442 0.652 0.653 0.989 0.189 0.274 0.358 0.527 0.547 0.779h0.484c-0.253-0.337-0.484-0.674-0.716-1.011s-0.484-0.673-0.716-1.010zM20.368 22.8l-0.252 0.252c0.189 0.295 0.358 0.611 0.547 0.926 0.126 0.189 0.232 0.358 0.337 0.547h0.463c-0.147-0.232-0.316-0.484-0.463-0.737-0.211-0.337-0.421-0.652-0.632-0.989zM8.244 23.091c-0.256 0.24-0.51 0.479-0.759 0.719h-0.021v0.547c0.277-0.251 0.545-0.503 0.813-0.756-0.008-0.041-0.014-0.084-0.014-0.127 0-0.065-0.001-0.122-0.005-0.16-0.016-0.087-0.024-0.163-0.015-0.217 0.001-0.002 0.001-0.005 0.002-0.007zM20.053 23.116l-0.252 0.252c0.147 0.274 0.295 0.568 0.442 0.842 0.063 0.105 0.126 0.211 0.168 0.316h0.442c-0.084-0.147-0.19-0.316-0.274-0.484-0.168-0.316-0.358-0.61-0.526-0.926zM19.758 23.41l-0.273 0.274c0.105 0.253 0.232 0.484 0.337 0.737 0.021 0.042 0.021 0.063 0.063 0.105h0.421c-0.042-0.105-0.084-0.19-0.126-0.274-0.147-0.295-0.274-0.568-0.421-0.842zM19.421 23.768l-0.274 0.273c0.084 0.189 0.148 0.379 0.232 0.569 0 0.021 0.021 0.042 0.021 0.063l0.147-0.126h0.211c0-0.021-0.021-0.042-0.021-0.063-0.105-0.253-0.211-0.484-0.316-0.716zM8.301 23.821c-0.219 0.229-0.439 0.459-0.649 0.684h0.547c0.030-0.031 0.059-0.063 0.089-0.094-0.009-0.055-0.015-0.112-0.018-0.178-0.005-0.094 0.011-0.194 0.028-0.304 0.004-0.028 0.005-0.064 0.003-0.108zM19.084 24.084l-0.092 0.092c-0.004 0.011-0.006 0.021-0.011 0.032l-0.018 0.042-0.027 0.037c0.006-0.008-0.026 0.045-0.053 0.089l-0.025 0.158c-0.002 0.015-0.001 0.029-0.003 0.044l0.060 0.179c0.042 0.105 0.063 0.19 0.126 0.274l0.295-0.295c-0.021-0.042-0.021-0.063-0.042-0.105-0.084-0.189-0.147-0.358-0.211-0.547zM18.873 24.999c0 0.061 0 0.122-0.001 0.182l0.044-0.044c-0.017-0.043-0.030-0.091-0.043-0.138zM14.037 26.069l0.268 0.268 0.024-0.146-0.009-0.012c0.007-0.045-0.009-0.067-0.057-0.074-0.109-0.017-0.17-0.027-0.226-0.035zM17.171 26.144c-0.005-0-0.007 0-0.012 0 0.023 0.224 0.057 0.457 0.093 0.676l0.358-0.358c-0.014-0.085-0.024-0.174-0.035-0.262-0.003-0-0.005-0.001-0.008-0.001l-0.287-0.045c-0.043-0.007-0.080-0.010-0.109-0.011zM17.021 26.147l-0.379 0.379 0.063 0.821 0.379-0.379-0.063-0.821zM15.018 26.197c-0.039 0.264-0.060 0.528-0.060 0.792l0.379 0.379 0.063-0.821-0.339-0.338c-0.003-0-0.006 0-0.009-0l-0.029-0.004c-0.002-0.003-0.004-0.004-0.006-0.007zM14.873 26.208c-0.031 0.017-0.066 0.028-0.099 0.023-0.102-0.016-0.207-0.014-0.313-0.006-0.011 0.086-0.022 0.171-0.029 0.26l0.358 0.358c0.033-0.217 0.056-0.423 0.083-0.634zM17.715 26.222c0.008 0.031 0.013 0.064 0.021 0.094l0.092-0.092c-0.031 0.004-0.068 0.003-0.113-0.002zM15.526 26.674c0 0.295-0.021 0.59-0.021 0.863l0.4 0.4c0-0.295 0.021-0.568 0.021-0.863l-0.4-0.4zM16.495 26.674l-0.4 0.4c0.021 0.295 0.021 0.568 0.021 0.863l0.4-0.4c0-0.295-0.021-0.569-0.021-0.863z"></path>
</svg>
