<!-- Generated by IcoMoon.io -->
<svg version="1.1" xmlns="http://www.w3.org/2000/svg" width="32" height="32" viewBox="0 0 32 32">
<title>token_curse_sealed</title>
<path d="M13.709 19.816c0.395-2.439 3.268-3.557 5.458-3.83-1.63 0.964-3.796 3.672-2.589 6.154-3.867 0.963-7.926-3.525-6.867-7.238 0 1.513 1.798 4.589 3.998 4.914zM16.4 6.52c-0.689 1.639-1.453 3.636-0.6 4.985 0.466 0.736 1.857 1.082 3.078 1.404-1.705 0.418-3.369 1.299-4.643 2.502-0.872-2.605-0.921-6.596 2.165-8.892zM22.486 13.112c1.321 2.754-0.647 6.448-2.029 8.758 0.267-1.319 1.508-6.157-0.119-6.805-2.276 0-4.432 0.915-6.451 1.885 2.29-2.228 5.35-3.846 8.599-3.846z"></path>
</svg>
