<!-- Generated by IcoMoon.io -->
<svg version="1.1" xmlns="http://www.w3.org/2000/svg" width="32" height="32" viewBox="0 0 32 32">
<title>token_frost_overlay</title>
<path d="M15.905 4.063l-0.4 0.4c0 0.295 0.021 0.569 0.021 0.864l0.4-0.4c0-0.295-0.021-0.589-0.021-0.863zM16.116 4.063c0 0.295-0 0.568-0.021 0.863l0.4 0.4c0.021-0.295 0.021-0.59 0.021-0.864l-0.4-0.4zM15.316 4.632l-0.379 0.379 0.063 0.821 0.379-0.379-0.063-0.821zM16.705 4.632l-0.063 0.821 0.379 0.379 0.063-0.821-0.379-0.379zM17.232 5.158c-0.042 0.274-0.063 0.526-0.105 0.8l0.358 0.358c0.042-0.253 0.084-0.526 0.105-0.8l-0.358-0.358zM14.789 5.179l-0.358 0.358c0.042 0.253 0.063 0.526 0.105 0.779l0.358-0.358c-0.042-0.274-0.063-0.527-0.105-0.779zM17.716 5.663l-0.126 0.758 0.332 0.332c0.002-0.001 0.004-0.002 0.006-0.003 0.042-0.25 0.104-0.5 0.125-0.75l-0.337-0.337zM14.284 5.684l-0.337 0.337c0.042 0.232 0.105 0.484 0.147 0.737l0.337-0.337c-0.042-0.253-0.084-0.505-0.148-0.737zM13.863 6.105l-0.337 0.337c0.042 0.211 0.105 0.4 0.147 0.611 0 0.042 0.021 0.063 0.021 0.105l0.316-0.316c-0.063-0.253-0.105-0.484-0.148-0.737zM18.179 6.126c-0.049 0.179-0.087 0.369-0.13 0.554 0.041-0.029 0.091-0.058 0.311-0.058 0 0 0.059 0.007 0.114 0.015 0.014-0.058 0.030-0.114 0.042-0.174l-0.337-0.337zM13.421 6.526l-0.316 0.316c0.042 0.126 0.063 0.231 0.105 0.337 0.003 0.010 0.005 0.018 0.008 0.027h0.382c-0.010-0.038-0.016-0.080-0.032-0.111-0.063-0.189-0.105-0.358-0.147-0.568zM18.642 6.568c-0.012 0.037-0.022 0.072-0.033 0.108 0.013 0.006 0.032 0.012 0.042 0.017 0.056 0.029 0.087 0.054 0.111 0.073 0.048 0.039 0.067 0.062 0.083 0.081 0.032 0.038 0.045 0.058 0.058 0.077 0.008 0.012 0.012 0.021 0.019 0.032 0.012-0.024 0.021-0.049 0.036-0.073l-0.316-0.316zM13 6.926l-0.28 0.28h0.379c-0.037-0.079-0.059-0.161-0.099-0.28zM19.021 6.947c-0.016 0.040-0.028 0.077-0.040 0.113l0.089 0.173 0.003 0.393c0.039-0.009 0.076-0.018 0.114-0.027 0.029-0.082 0.058-0.165 0.087-0.252 0.021-0.021 0.021-0.063 0.042-0.105l-0.295-0.295zM19.421 7.326c0 0.021-0.021 0.042-0.021 0.063-0.026 0.059-0.049 0.118-0.072 0.178 0.057-0.011 0.109-0.018 0.146-0.013l0.239 0.036c0.008-0.018 0.016-0.036 0.024-0.053 0-0.021 0.021-0.042 0.021-0.063h-0.19l-0.147-0.147zM12.57 7.386l-0.075 0.088h-0.232c0 0.021 0.021 0.042 0.021 0.063 0.095 0.21 0.191 0.435 0.286 0.648v-0.799zM7.653 7.453c0.607 0.67 1.235 1.319 1.843 1.947 0.002-0.014 0.003-0.017 0.004-0.025 0.004-0.029 0.007-0.055 0.010-0.079 0.002-0.012 0.003-0.022 0.007-0.040 0.002-0.009 0.003-0.017 0.009-0.042 0.003-0.013 0.005-0.026 0.021-0.070 0.008-0.022 0.055-0.113 0.055-0.114s0.018-0.021 0.028-0.033c-0.476-0.511-0.953-1.011-1.429-1.545h-0.547zM23.021 7.453c-0.4 0.463-0.779 0.905-1.158 1.368-0.16 0.183-0.314 0.367-0.465 0.55 0.030-0.015 0.060-0.032 0.086-0.045 0.191-0.097 0.305-0.159 0.447-0.244 0.1-0.060 0.251-0.121 0.371-0.155 0.415-0.476 0.832-0.965 1.266-1.474h-0.547zM8.474 7.474c0.41 0.484 0.82 0.954 1.23 1.435 0.003-0.003 0.014-0.016 0.014-0.016s0.151-0.101 0.151-0.101c0 0 0.13 0.005 0.255 0.010-0.387-0.448-0.755-0.878-1.102-1.328h-0.547zM9.211 7.474c0.337 0.442 0.674 0.884 1.011 1.305 0.007 0.009 0.014 0.018 0.021 0.028 0.098 0.004 0.213 0.008 0.213 0.008 0.005 0.003 0.010 0.006 0.016 0.009 0.013 0.008 0.032 0.018 0.056 0.032 0.047 0.027 0.115 0.066 0.199 0.114 0.058 0.033 0.154 0.088 0.225 0.13l-0.414-0.552c-0.274-0.358-0.547-0.716-0.821-1.074h-0.505zM11.147 7.474c0.084 0.147 0.19 0.316 0.274 0.484 0.168 0.316 0.358 0.632 0.526 0.947l0.252-0.253c-0.147-0.295-0.295-0.568-0.442-0.863-0.063-0.105-0.105-0.211-0.168-0.316h-0.442zM11.716 7.474c0.042 0.105 0.084 0.19 0.126 0.274 0.147 0.274 0.274 0.568 0.421 0.842l0.274-0.274c-0.105-0.253-0.232-0.484-0.337-0.737-0.021-0.042-0.042-0.063-0.063-0.105h-0.421zM19.863 7.474c-0.021 0.042-0.021 0.063-0.042 0.126-0.001 0.002-0.002 0.004-0.003 0.006l0.262 0.039v0.26c0.026-0.053 0.054-0.106 0.078-0.158 0.042-0.084 0.084-0.19 0.126-0.274h-0.421zM21.021 7.474c-0.126 0.189-0.232 0.358-0.337 0.547-0.189 0.295-0.358 0.611-0.547 0.926l0.232 0.274c0.211-0.337 0.421-0.653 0.632-0.99 0.168-0.253 0.316-0.505 0.484-0.758h-0.463zM21.632 7.474c-0.189 0.274-0.379 0.526-0.547 0.8-0.211 0.337-0.442 0.652-0.653 0.989l0.252 0.252c0.232-0.337 0.484-0.673 0.716-1.010 0.232-0.358 0.484-0.695 0.716-1.032h-0.484zM22.326 7.474c-0.274 0.358-0.547 0.716-0.821 1.074l-0.758 1.011 0.104 0.104c0.059-0.032 0.179-0.097 0.267-0.145 0.033-0.018 0.079-0.041 0.12-0.063 0.177-0.225 0.357-0.45 0.54-0.676 0.337-0.442 0.674-0.863 1.053-1.305h-0.505zM23.821 7.474c-0.462 0.462-0.909 0.94-1.354 1.42 0.007-0.001 0.004-0.001 0.012-0.002 0.061-0.007 0.247-0.034 0.454 0.107 0.491-0.508 0.98-1.017 1.456-1.525h-0.568zM9.884 7.495c0.253 0.337 0.484 0.674 0.716 1.011 0.152 0.221 0.311 0.442 0.469 0.662 0.105 0.061 0.188 0.108 0.308 0.177l0.069 0.040 0.122-0.122c-0.211-0.337-0.442-0.652-0.653-0.989-0.168-0.274-0.358-0.527-0.547-0.779h-0.484zM10.537 7.495c0.147 0.232 0.316 0.484 0.463 0.737 0.211 0.337 0.421 0.653 0.632 0.99l0.252-0.253c-0.168-0.316-0.358-0.632-0.547-0.947-0.105-0.189-0.232-0.358-0.337-0.526h-0.463zM20.41 7.495c-0.063 0.105-0.105 0.211-0.168 0.316-0.054 0.101-0.108 0.205-0.162 0.31v0.739c0.178-0.298 0.339-0.58 0.499-0.88 0.105-0.168 0.19-0.337 0.274-0.484h-0.442zM7.484 7.621v0.548c0.568 0.547 1.137 1.074 1.705 1.6 0.090 0.084 0.176 0.164 0.264 0.246 0.001-0.239-0.008-0.334 0.021-0.488-0.011-0.011-0.021-0.021-0.032-0.032-0.653-0.611-1.305-1.242-1.958-1.874zM24.537 7.621c-0.505 0.488-1.009 0.966-1.514 1.449 0.158 0.148 0.179 0.3 0.19 0.353 0.004 0.019 0.003 0.017 0.005 0.028 0.446-0.414 0.89-0.827 1.32-1.241v-0.59zM7.463 8.463v0.526c0.442 0.379 0.905 0.779 1.368 1.158 0.073 0.064 0.147 0.125 0.22 0.187 0.019-0.007 0.055-0.019 0.055-0.019s0.127-0.003 0.127-0.003c0 0 0.087 0.012 0.109 0.018 0.044 0.011 0.059 0.018 0.072 0.023 0.021 0.008 0.027 0.011 0.035 0.015l0.002-0.205c-0.115-0.103-0.229-0.207-0.347-0.31-0.526-0.463-1.074-0.927-1.642-1.39zM24.516 8.463c-0.433 0.367-0.855 0.734-1.283 1.1 0.009 0.077 0.007 0.118 0.008 0.193 0.001 0.084 0.001 0.198 0 0.33 0.437-0.359 0.856-0.719 1.275-1.097v-0.526zM10.384 8.779c0 0 0.026 0.011 0.032 0.014 0.012 0.006 0.015 0.008 0.019 0.009 0.007 0.004 0.009 0.005 0.011 0.006 0.004 0.002 0.007 0.004 0.009 0.005-0.001-0-0.071-0.035-0.071-0.035zM7.463 9.2v0.505c0.358 0.274 0.716 0.547 1.074 0.821 0.037 0.028 0.074 0.055 0.111 0.083 0.004-0.006 0.005-0.009 0.012-0.019s0.015-0.023 0.035-0.047c0.010-0.012 0.022-0.027 0.044-0.048s0.115-0.091 0.116-0.092c0 0 0.053-0.019 0.103-0.036-0.056-0.045-0.112-0.090-0.168-0.136-0.442-0.358-0.863-0.695-1.326-1.032zM24.537 9.242c-0.439 0.335-0.878 0.669-1.297 1.003l-0.002 0.471c0.075-0.056 0.15-0.113 0.225-0.169 0.358-0.274 0.716-0.547 1.074-0.821v-0.484zM7.484 9.895v0.484c0.253 0.189 0.526 0.358 0.8 0.547 0.061 0.042 0.119 0.081 0.179 0.121-0.004-0.016-0.011-0.035 0.055-0.181 0.021-0.047 0.044-0.096 0.066-0.139 0.009-0.018 0.017-0.034 0.025-0.050-0.031-0.022-0.062-0.045-0.094-0.067-0.337-0.232-0.694-0.484-1.031-0.716zM24.516 9.916c-0.337 0.253-0.673 0.484-1.010 0.716-0.089 0.061-0.179 0.126-0.268 0.19l-0.001 0.12-0.318 0.166c0.116 0.047 0.226 0.101 0.337 0.162 0.164-0.109 0.326-0.219 0.482-0.323 0.274-0.189 0.526-0.379 0.8-0.547h-0.021v-0.484zM24.516 10.526c-0.232 0.147-0.484 0.316-0.737 0.463-0.164 0.102-0.322 0.204-0.481 0.307 0.091 0.052 0.183 0.105 0.282 0.168 0.043 0.027 0.156 0.087 0.066 0.042 0.009 0.005 0.013 0.008 0.021 0.012 0.107-0.064 0.215-0.127 0.322-0.191 0.189-0.105 0.358-0.211 0.548-0.316h-0.021v-0.484zM7.484 10.547v0.463c0.189 0.105 0.358 0.232 0.547 0.337 0.146 0.088 0.288 0.171 0.429 0.254-0.001-0.054-0.003-0.153-0.003-0.197-0.001-0.091-0-0.159 0-0.213 0-0.015 0.001-0.028 0.001-0.042-0.073-0.046-0.143-0.092-0.218-0.138-0.253-0.147-0.505-0.316-0.758-0.463zM7.484 11.137v0.463c0.105 0.063 0.211 0.105 0.316 0.169 0.217 0.117 0.445 0.233 0.668 0.35-0.003-0.188-0.005-0.316-0.006-0.448-0.156-0.089-0.311-0.175-0.472-0.261-0.168-0.084-0.337-0.189-0.505-0.273zM24.537 11.158c-0.147 0.084-0.316 0.19-0.484 0.274-0.092 0.049-0.179 0.101-0.268 0.153 0.104 0.071 0.126 0.128 0.17 0.218 0.011 0.013 0.022 0.026 0.032 0.039 0.008 0.010 0.015 0.016 0.032 0.042 0.074-0.038 0.147-0.076 0.224-0.115 0.084-0.063 0.19-0.105 0.295-0.169v-0.442zM7.484 11.705c0.006 0.003 0.014 0.007 0.021 0.010v-0.010h-0.021zM7.505 11.715v0.411c0.021 0.021 0.063 0.042 0.105 0.063 0.232 0.126 0.484 0.232 0.716 0.337l0.147-0.16c-0.002-0.048-0.003-0.089-0.005-0.157-0-0.007-0-0.008-0-0.015-0.237-0.127-0.474-0.253-0.711-0.363-0.078-0.039-0.172-0.078-0.252-0.116zM24.537 11.705c-0.105 0.042-0.19 0.084-0.274 0.126-0.073 0.037-0.142 0.070-0.213 0.104 0.033 0.058 0.046 0.125 0.058 0.191l0.277-0.094 0.151 0.077v-0.405zM23.151 11.736l-0.001 0c0.007-0.004-0.008 0.005-0.011 0.007 0.004-0.002 0.007-0.005 0.012-0.007zM7.484 12.232v0.232l-0.148 0.105c0.021 0 0.042 0.021 0.063 0.021 0.091 0.040 0.181 0.075 0.272 0.111 0.002-0.001 0.006-0.003 0.008-0.005 0.045-0.026 0.083-0.049 0.112-0.065 0.014-0.008 0.026-0.015 0.038-0.021 0.006-0.003 0.011-0.006 0.019-0.011s-0.050 0.010 0.091-0.041h0l0-0c0-0 0.179-0.036 0.179-0.036s0.034 0.001 0.062 0.002c-0.211-0.080-0.423-0.175-0.634-0.271-0.021 0-0.042-0.021-0.063-0.021zM7.274 12.674l-0.316 0.316c0.050 0.020 0.094 0.035 0.139 0.050 0.079-0.047 0.164-0.097 0.257-0.152 0.061-0.036 0.112-0.066 0.17-0.1-0.047-0.017-0.101-0.033-0.145-0.050-0.042-0.021-0.084-0.042-0.105-0.063zM6.874 13.095l-0.316 0.316c0.038 0.010 0.080 0.023 0.12 0.034 0.028-0.073 0.060-0.156 0.060-0.156s0.049-0.049 0.061-0.060c0.025-0.021 0.034-0.027 0.042-0.033 0.016-0.011 0.021-0.014 0.026-0.018 0.010-0.007 0.015-0.010 0.021-0.013 0.011-0.007 0.022-0.014 0.036-0.022 0.010-0.006 0.027-0.016 0.040-0.024-0.030-0.008-0.062-0.018-0.090-0.024zM6.453 13.495l-0.337 0.337c0.166 0.045 0.341 0.082 0.513 0.121-0.006-0.018-0.030-0.088-0.030-0.088s-0.019-0.16-0.020-0.163c0-0 0.032-0.083 0.060-0.156-0.062-0.016-0.124-0.031-0.187-0.050zM25.701 13.648l-0.039 0.050c-0.076 0.099-0.129 0.143-0.193 0.195-0.020 0.016-0.045 0.033-0.068 0.049 0.167-0.040 0.331-0.076 0.504-0.090l-0.204-0.204zM25.989 13.937c-0.232 0.042-0.484 0.105-0.737 0.148l0.337 0.337c0.253-0.042 0.505-0.084 0.737-0.147l-0.337-0.337zM5.989 13.958l-0.337 0.337c0.253 0.042 0.505 0.084 0.758 0.126l0.314-0.313c-0.008-0.010-0.015-0.015-0.026-0.032-0.234-0.039-0.453-0.079-0.708-0.118zM5.505 14.421l-0.358 0.358c0.274 0.042 0.526 0.063 0.8 0.105l0.358-0.358c-0.253-0.021-0.505-0.063-0.8-0.105zM26.474 14.421c-0.253 0.042-0.526 0.063-0.779 0.105l0.358 0.358c0.253-0.042 0.526-0.084 0.779-0.105l-0.358-0.358zM27 14.926c-0.274 0.021-0.547 0.042-0.821 0.063l0.379 0.379c0.274-0.021 0.547-0.042 0.821-0.063l-0.379-0.379zM5.021 14.947l-0.379 0.379 0.821 0.063 0.379-0.379c-0.274-0.021-0.547-0.042-0.821-0.063zM27.547 15.495c-0.295 0-0.568 0.021-0.863 0.021l0.4 0.4c0.295 0 0.589-0.021 0.863-0.021l-0.4-0.4zM4.453 15.516l-0.4 0.4c0.295 0 0.568 0.021 0.863 0.021l0.4-0.4c-0.295-0.021-0.568-0.021-0.863-0.021zM4.937 16.084c-0.295 0.021-0.568 0.021-0.863 0.021l0.4 0.4c0.295 0 0.568-0.021 0.863-0.021l-0.4-0.4zM27.084 16.084l-0.4 0.4c0.295 0.021 0.589 0.021 0.863 0.021l0.4-0.4c-0.295 0-0.568-0.021-0.863-0.021zM5.484 16.632c-0.274 0.021-0.547 0.042-0.821 0.063l0.379 0.379c0.274-0.021 0.547-0.042 0.821-0.063l-0.379-0.379zM26.558 16.632l-0.379 0.379c0.274 0.021 0.547 0.042 0.821 0.063l0.379-0.379c-0.274-0.021-0.547-0.042-0.821-0.063zM26.053 17.116l-0.358 0.358c0.253 0.042 0.526 0.084 0.8 0.105l0.358-0.358c-0.274-0.042-0.526-0.063-0.8-0.105zM5.968 17.137c-0.253 0.021-0.526 0.063-0.779 0.105l0.358 0.358c0.253-0.042 0.527-0.063 0.779-0.105l-0.358-0.358zM6.432 17.579c-0.253 0.042-0.505 0.105-0.737 0.147l0.337 0.337c0.232-0.042 0.484-0.105 0.737-0.148l-0.337-0.337zM25.59 17.579l-0.337 0.337c0.253 0.042 0.506 0.105 0.758 0.126l0.337-0.337-0.758-0.126zM6.853 18c-0.232 0.063-0.484 0.126-0.737 0.147l0.337 0.337c0.122-0.024 0.238-0.055 0.355-0.086v-0.121c0-0.082 0.023-0.172 0.061-0.262l-0.016-0.016zM25.169 18l-0.316 0.337c0.021 0 0.063 0.021 0.084 0.021 0.211 0.042 0.421 0.106 0.611 0.148l0.337-0.337c-0.232-0.063-0.484-0.105-0.715-0.169zM24.968 18.456l0.299 0.297-0.201 0.127c0.027 0.008 0.056 0.015 0.081 0.026l0.316-0.316c-0.171-0.038-0.327-0.092-0.495-0.134zM6.808 18.537c-0.077 0.022-0.153 0.045-0.229 0.073l0.316 0.316c0.064-0.026 0.128-0.044 0.192-0.064l-0.279-0.16v-0.165zM7.211 18.934c-0.077 0.022-0.154 0.059-0.231 0.098l0.316 0.316c0.021-0.021 0.063-0.021 0.084-0.042 0.090-0.034 0.186-0.073 0.285-0.113-0.049-0.028-0.083-0.046-0.146-0.082l-0.308-0.177zM24.949 18.954l-0.426 0.267c0.040 0.014 0.078 0.029 0.119 0.042 0.042 0.021 0.084 0.042 0.105 0.021l0.294-0.295c-0.029-0.014-0.061-0.025-0.093-0.036zM7.74 19.235c-0.115 0.043-0.23 0.085-0.34 0.134-0.021 0.021-0.042 0.021-0.042 0.021l0.127 0.126v0.232c0.021 0 0.042-0.021 0.063-0.021 0.202-0.092 0.418-0.183 0.624-0.275l0.003-0.053c-0.045-0.012-0.142-0.016-0.16-0.023-0.033-0.012-0.051-0.021-0.069-0.030-0.036-0.017-0.069-0.034-0.108-0.055-0.024-0.013-0.069-0.039-0.097-0.055zM24.41 19.291c-0.026 0.016-0.053 0.032-0.077 0.046-0.014 0.008-0.028 0.016-0.042 0.023 0.070 0.078 0.149 0.155 0.178 0.21l0 0.001 0.068 0.13v-0.164l0.126-0.148c-0.021 0-0.042-0.021-0.063-0.021-0.063-0.028-0.127-0.052-0.19-0.077zM8.164 19.569c-0.191 0.088-0.378 0.18-0.574 0.262-0.042 0-0.063 0.021-0.105 0.042v0.442c0.105-0.042 0.189-0.084 0.273-0.126 0.13-0.070 0.264-0.135 0.398-0.199 0.002-0.149 0.003-0.333 0.008-0.421zM8.155 20.060c-0.124 0.064-0.248 0.129-0.376 0.193-0.084 0.063-0.189 0.105-0.294 0.169h-0.021v0.442c0.147-0.084 0.316-0.189 0.484-0.273 0.067-0.036 0.135-0.075 0.202-0.112 0.001-0.067 0-0.099 0.001-0.187 0.001-0.105 0.003-0.143 0.004-0.231zM24.537 20.252l-0.015 0.015c0.005 0.002 0.011 0.005 0.015 0.007v-0.022zM24.434 20.351l-0.088 0.085c-0.132 0.127-0.159 0.126-0.229 0.169 0.125 0.073 0.261 0.155 0.399 0.225v-0.43c-0.025-0.018-0.054-0.033-0.081-0.049zM24.516 20.831v0.012h0.021c-0.007-0.004-0.014-0.008-0.021-0.012zM9.115 20.357c0.013 0.008 0.011 0.013 0.023 0.021 0-0.001-0-0.003 0-0.004-0.007-0.005-0.021-0.016-0.021-0.016l-0.002-0.001zM9.15 20.384c-0 0-0.002 0.003-0.002 0.004 0.007 0.005 0.010 0.009 0.015 0.014 0.002-0.001 0.004-0.002 0.005-0.003-0.005-0.004-0.011-0.008-0.019-0.014zM8.149 20.603l-0.117 0.070c-0.189 0.126-0.358 0.232-0.547 0.337h0.021v0.442c0.228-0.133 0.44-0.282 0.665-0.418-0.005-0.024-0.011-0.050-0.013-0.063-0.005-0.039-0.006-0.058-0.007-0.078-0.002-0.040-0.003-0.078-0.003-0.129-0-0.035 0.001-0.115 0.001-0.162zM24.014 20.667c-0.053 0.032-0.103 0.063-0.16 0.096-0.075 0.043-0.149 0.083-0.219 0.121 0.055 0.035 0.109 0.070 0.166 0.106 0.253 0.147 0.484 0.316 0.737 0.463v-0.484c-0.181-0.101-0.344-0.201-0.523-0.302zM23.544 20.933c-0.054 0.030-0.101 0.056-0.209 0.092l-0.059 0.019 0.068 0.039 0.111 0.22c0.005 0.011 0.012 0.032 0.018 0.049 0.018 0.012 0.035 0.025 0.053 0.037 0.337 0.253 0.674 0.484 1.011 0.716h0.021v-0.484c-0.274-0.189-0.526-0.379-0.8-0.547-0.073-0.046-0.143-0.094-0.214-0.141zM8.204 21.146c-0.243 0.152-0.473 0.305-0.719 0.475v0.526c0.309-0.232 0.618-0.446 0.928-0.658l-0.082-0.11v-0c-0.030-0.040-0.055-0.077-0.081-0.127-0.013-0.024-0.030-0.058-0.046-0.106zM9.991 21.159c-0.030 0.019-0.058 0.038-0.1 0.063-0.16 0.096-0.302 0.178-0.417 0.243s-0.167 0.1-0.295 0.151h-0l-0.032 0.013c-0.098 0.082-0.195 0.165-0.293 0.245-0.463 0.379-0.905 0.758-1.368 1.137v0.547c0.547-0.463 1.074-0.926 1.621-1.389l0.914-0.8c-0.003-0.062-0.004-0.125-0.006-0.187l-0.023-0.023zM8.224 21.185c0.010 0.030 0.034 0.061 0.064 0.099-0.031-0.040-0.050-0.072-0.064-0.099zM10.026 21.445c-0.288 0.256-0.566 0.513-0.858 0.787-0.568 0.526-1.137 1.053-1.684 1.579h-0.021v0.547c0.674-0.611 1.305-1.221 1.958-1.852 0.223-0.223 0.455-0.447 0.685-0.67-0.018-0.040-0.028-0.072-0.035-0.095-0.023-0.077-0.025-0.109-0.032-0.156-0.007-0.043-0.009-0.092-0.012-0.14zM23.523 21.54c0.015 0.072 0.029 0.146 0.029 0.185v0.002c0-0.006 0.005 0.149 0.012 0.255v0.001c0.001 0.016 0.001 0.030 0.002 0.047 0.323 0.253 0.643 0.509 0.972 0.792v-0.505l-1.014-0.776zM8.466 21.562c-0.327 0.234-0.654 0.483-0.982 0.733h-0.021v0.505c0.442-0.337 0.884-0.674 1.305-1.011 0.008-0.007 0.017-0.013 0.025-0.020l-0.133 0.053-0.194-0.261zM10.149 21.91c-0.215 0.221-0.429 0.443-0.643 0.658-0.632 0.653-1.263 1.305-1.853 1.937h0.547c0.526-0.547 1.053-1.116 1.579-1.684 0.207-0.221 0.422-0.455 0.635-0.69-0.117-0.059-0.211-0.138-0.249-0.193-0.008-0.012-0.009-0.017-0.016-0.028zM10.993 22.156c-0.035 0.015-0.086 0.031-0.196 0.050l-0.010 0.002c-0.094 0.014-0.191-0.003-0.281-0.036l-0.642 0.734c-0.484 0.526-0.947 1.074-1.41 1.621h0.547c0.4-0.463 0.779-0.905 1.158-1.368 0.271-0.334 0.563-0.668 0.835-1.002zM23.572 22.189c0.002 0.050 0.006 0.108 0.006 0.151v0.001c0 0.088-0.025 0.231-0.051 0.331 0.335 0.289 0.669 0.578 1.011 0.866v-0.526c-0.327-0.282-0.645-0.553-0.965-0.822zM11.042 22.19c-0.274 0.337-0.547 0.695-0.821 1.032-0.337 0.442-0.674 0.863-0.99 1.305h0.505c0.253-0.358 0.526-0.716 0.8-1.074l0.758-1.011-0.253-0.252zM20.889 22.28l-0.162 0.162 0.758 1.011c0.274 0.358 0.547 0.716 0.779 1.095h0.505c-0.337-0.442-0.674-0.884-1.011-1.305-0.204-0.289-0.423-0.564-0.643-0.836l-0.226-0.126zM20.684 22.484l-0.252 0.252c0.211 0.337 0.442 0.652 0.653 0.989 0.189 0.274 0.358 0.527 0.547 0.779h0.484c-0.253-0.337-0.484-0.674-0.716-1.011s-0.484-0.673-0.716-1.010zM11.316 22.505c-0.232 0.337-0.484 0.673-0.716 1.010s-0.463 0.674-0.716 1.032h0.484c0.189-0.274 0.379-0.526 0.547-0.8 0.211-0.337 0.442-0.653 0.653-0.99l-0.252-0.252zM21.341 22.532c0.176 0.209 0.352 0.418 0.522 0.626 0.379 0.463 0.758 0.905 1.137 1.368h0.547c-0.42-0.496-0.84-0.977-1.26-1.47-0.015-0.008-0.022-0.012-0.038-0.021-0.187-0.103-0.443-0.245-0.724-0.401l-0.184-0.102zM11.632 22.8c-0.211 0.337-0.421 0.652-0.632 0.989-0.147 0.253-0.316 0.484-0.484 0.758h0.463c0.126-0.189 0.232-0.358 0.337-0.547l0.568-0.947-0.252-0.252zM20.368 22.8l-0.252 0.252c0.189 0.295 0.358 0.611 0.547 0.926 0.126 0.189 0.232 0.358 0.337 0.547h0.463c-0.147-0.232-0.316-0.484-0.463-0.737-0.211-0.337-0.421-0.652-0.632-0.989zM23.488 22.8c-0.015 0.051-0.031 0.1-0.081 0.179-0.025 0.040-0.056 0.090-0.141 0.16-0.003 0.002-0.007 0.005-0.010 0.007 0.427 0.406 0.854 0.813 1.281 1.212v-0.568c-0.343-0.33-0.695-0.66-1.049-0.989zM11.947 23.095c-0.168 0.316-0.358 0.632-0.526 0.947-0.105 0.147-0.189 0.316-0.252 0.505h0.442c0.063-0.105 0.105-0.211 0.168-0.316 0.147-0.295 0.295-0.568 0.442-0.863l-0.274-0.274zM20.053 23.116l-0.252 0.252c0.147 0.274 0.295 0.568 0.442 0.842 0.063 0.105 0.126 0.211 0.168 0.316h0.442c-0.084-0.147-0.19-0.316-0.274-0.484-0.168-0.316-0.358-0.61-0.526-0.926zM23.151 23.21c-0.105 0.054-0.252 0.098-0.433 0.056l-0.002-0-0.002-0.001c-0 0-0.079-0.024-0.092-0.030-0.009-0.004-0.012-0.005-0.017-0.007 0.407 0.433 0.816 0.861 1.238 1.299h0.568c-0.425-0.439-0.841-0.878-1.259-1.317zM12.263 23.41c-0.147 0.274-0.274 0.568-0.421 0.842-0.042 0.105-0.084 0.19-0.126 0.274h0.421c0.021-0.042 0.042-0.063 0.063-0.105 0.105-0.253 0.232-0.484 0.337-0.737l-0.274-0.274zM19.758 23.41l-0.273 0.274c0.105 0.253 0.232 0.484 0.337 0.737 0.021 0.042 0.021 0.063 0.063 0.105h0.421c-0.042-0.105-0.084-0.19-0.126-0.274-0.147-0.295-0.274-0.568-0.421-0.842zM12.6 23.748c-0.105 0.232-0.211 0.484-0.316 0.715 0 0.021-0.021 0.042-0.021 0.063h0.211l0.147 0.147c0-0.021 0.021-0.042 0.021-0.063 0.084-0.211 0.147-0.4 0.232-0.59l-0.274-0.273zM19.421 23.768l-0.090 0.090v0.236l-0.116 0.115c0.053 0.134 0.104 0.268 0.164 0.401 0 0.021 0.021 0.042 0.021 0.063l0.147-0.126h0.211c0-0.021-0.021-0.042-0.021-0.063-0.105-0.253-0.211-0.484-0.316-0.716zM12.906 24.138c-0.068 0.159-0.125 0.309-0.18 0.473-0.021 0.042-0.021 0.063-0.042 0.105l0.316 0.316c0.030-0.060 0.051-0.13 0.075-0.196v-0c-0-0-0.050-0.080-0.058-0.095s-0.011-0.022-0.013-0.028c-0.005-0.012-0.008-0.018-0.009-0.023-0.004-0.009-0.005-0.014-0.007-0.018-0.003-0.009-0.006-0.016-0.009-0.025-0.006-0.016-0.012-0.036-0.019-0.057-0.012-0.037-0.045-0.162-0.051-0.249-0.005-0.064-0.003-0.13-0.003-0.203zM19.152 24.273l-0.070 0.070c-0.022 0.022-0.050 0.057-0.138 0.119-0.027 0.019-0.066 0.038-0.108 0.056l0.080 0.24c0.042 0.105 0.063 0.19 0.126 0.274l0.295-0.295c-0.021-0.042-0.021-0.063-0.042-0.105-0.055-0.124-0.1-0.241-0.143-0.359zM18.734 24.555c-0.049 0.015-0.1 0.024-0.15 0.029l-0.174 0.174c0.021 0.042 0.021 0.105 0.042 0.148 0.063 0.168 0.105 0.358 0.147 0.547l0.316-0.316c-0.042-0.105-0.063-0.232-0.105-0.337-0.031-0.076-0.052-0.162-0.076-0.245zM18.326 24.842l-0.316 0.316c0.063 0.232 0.126 0.484 0.147 0.737l0.337-0.337c-0.042-0.211-0.105-0.421-0.147-0.632 0-0.021-0.021-0.063-0.021-0.084zM13.16 24.91c-0.022 0.075-0.047 0.149-0.075 0.206l0.316 0.316c0.027-0.12 0.060-0.232 0.093-0.346-0.007-0.001-0.010-0.001-0.018-0.002-0.039-0.007-0.153-0.048-0.153-0.048s-0.096-0.074-0.162-0.126zM13.876 25.032c-0.023 0.009-0.045 0.017-0.072 0.026-0.018 0.006-0.036 0.012-0.077 0.021-0.020 0.004-0.044 0.011-0.105 0.014-0.001 0-0.002-0-0.002 0-0.033 0.149-0.067 0.301-0.115 0.444l0.337 0.337c0.063-0.232 0.105-0.484 0.169-0.716l-0.134-0.126zM14.095 25.242c-0.042 0.253-0.105 0.505-0.126 0.758l0.337 0.337 0.127-0.758-0.337-0.337zM17.926 25.242l-0.337 0.337c0.042 0.253 0.084 0.505 0.147 0.737l0.337-0.337c-0.042-0.232-0.105-0.484-0.147-0.737zM14.537 25.684c-0.042 0.274-0.084 0.526-0.105 0.8l0.358 0.358c0.042-0.274 0.063-0.526 0.105-0.8l-0.358-0.358zM17.505 25.684l-0.358 0.358c0.021 0.253 0.063 0.527 0.105 0.779l0.358-0.358c-0.042-0.253-0.063-0.526-0.105-0.779zM17.021 26.147l-0.379 0.379 0.063 0.821 0.379-0.379-0.063-0.821zM15.021 26.169c-0.042 0.274-0.063 0.547-0.063 0.821l0.379 0.379 0.063-0.821-0.379-0.379zM15.526 26.674c0 0.295-0.021 0.59-0.021 0.863l0.4 0.4c0-0.295 0.021-0.568 0.021-0.863l-0.4-0.4zM16.495 26.674l-0.4 0.4c0.021 0.295 0.021 0.568 0.021 0.863l0.4-0.4c0-0.295-0.021-0.569-0.021-0.863z"></path>
</svg>
