<!-- Generated by IcoMoon.io -->
<svg version="1.1" xmlns="http://www.w3.org/2000/svg" width="32" height="32" viewBox="0 0 32 32">
<title>token_elder_thing_overlay</title>
<path d="M15.905 4.063l-0.4 0.4c0 0.295 0.021 0.569 0.021 0.864l0.4-0.4c0-0.295-0.021-0.589-0.021-0.863zM16.116 4.063c0 0.295-0 0.568-0.021 0.863l0.4 0.4c0.021-0.295 0.021-0.59 0.021-0.864l-0.4-0.4zM15.316 4.632l-0.379 0.379 0.063 0.821 0.379-0.379-0.063-0.821zM16.705 4.632l-0.063 0.821 0.379 0.379 0.063-0.821-0.379-0.379zM17.232 5.158c-0.042 0.274-0.063 0.526-0.105 0.8l0.358 0.358c0.042-0.253 0.084-0.526 0.105-0.8l-0.358-0.358zM14.789 5.179l-0.358 0.358c0.042 0.253 0.063 0.526 0.105 0.779l0.358-0.358c-0.042-0.274-0.063-0.527-0.105-0.779zM17.716 5.663l-0.126 0.758 0.337 0.337c0.042-0.253 0.105-0.505 0.126-0.758l-0.337-0.337zM14.284 5.684l-0.337 0.337c0.028 0.154 0.064 0.318 0.098 0.485 0 0 0 0 0 0 0.038 0.057 0.068 0.11 0.116 0.185l0.271-0.271c-0.042-0.253-0.084-0.505-0.148-0.737zM13.863 6.105l-0.093 0.093c0.039 0.031 0.059 0.052 0.073 0.066l0.009 0.009 0.008 0.009c0.017 0.019 0.028 0.032 0.043 0.049-0.013-0.074-0.027-0.148-0.040-0.224zM18.179 6.126c-0.063 0.232-0.105 0.484-0.168 0.716l0.337 0.316c0-0.021 0.021-0.063 0.021-0.084 0.042-0.211 0.105-0.4 0.147-0.611l-0.337-0.337zM14.123 6.651c0.012 0.012 0.022 0.031 0.033 0.046l0.002-0.002-0.035-0.044zM18.598 6.713c-0.041 0.134-0.078 0.264-0.124 0.403-0.021 0.063-0.021 0.105-0.042 0.147l0.294 0.295c0.042-0.105 0.063-0.231 0.105-0.337 0.001-0.007 0.004-0.012 0.005-0.019-0.041-0.065-0.081-0.129-0.127-0.198l0.053 0.064c-0.019-0.019-0.036-0.049-0.054-0.074l-0.11-0.109v-0.173zM18.899 7.292l-0.109 0.329 0.116 0.108c0-0.041-0.003-0.081 0.023-0.159l-0 0c-0.017 0.050-0.012 0.074-0.012 0.044 0-0.027 0.005-0.128 0.049-0.234-0.001-0.001-0-0.001-0.001-0.002-0.020 0.059-0.028 0.121-0.028 0.097v-0.099l0.010-0.021c-0.023-0.028-0.033-0.042-0.048-0.063zM7.653 7.453c0.242 0.267 0.488 0.528 0.734 0.789l0.012-0.004c0.044-0.014 0.114-0.021 0.152-0.035 0.019-0.008 0.044-0.034 0.059-0.038 0.11-0.031 0.137-0.018 0.152-0.018h0.020c0.019 0 0.038 0.001 0.057 0.003-0.213-0.229-0.426-0.458-0.639-0.696h-0.547zM23.021 7.453c-0.4 0.463-0.779 0.905-1.158 1.368-0.295 0.337-0.568 0.673-0.842 1.010l0.253 0.253c0.295-0.316 0.589-0.653 0.884-0.99 0.463-0.526 0.926-1.073 1.41-1.642h-0.547zM8.474 7.474c0.21 0.249 0.421 0.492 0.631 0.736 0.030 0.007 0.060 0.014 0.098 0.027l0.011 0.004 0.011 0.005c-0.006-0.002 0.047 0.014 0.070 0.020h0.167l0.040 0.040h0.039l0.203 0.202c0.020 0.020 0.050 0.050 0.080 0.079l0.037 0.037 0.027 0.045c0.039 0.064 0.083 0.163 0.12 0.276 0.008 0.017 0.020 0.022 0.026 0.041s0.001 0.017 0.005 0.033c0.027 0.082 0.044 0.151 0.067 0.22l0.022 0.065v0.096l0.364 0.416c0.001 0 0.002 0.001 0.002 0.001 0.108 0.042 0.179 0.080 0.217 0.094l0.021 0.008 0.020 0.010c0.043 0.021 0.081 0.036 0.12 0.052l0.127-0.127c-0.274-0.337-0.568-0.674-0.842-1.011-0.4-0.463-0.779-0.905-1.137-1.368h-0.547zM9.211 7.474c0.337 0.442 0.674 0.884 1.011 1.305 0.274 0.358 0.547 0.695 0.821 1.032l0.253-0.252-0.758-1.011-0.821-1.074h-0.505zM11.147 7.474c0.084 0.147 0.19 0.316 0.274 0.484 0.168 0.316 0.358 0.632 0.526 0.947l0.065-0.065c-0.003-0.070-0.004-0.138-0.004-0.204v-0.19l0.004-0.009c-0.019-0.024-0.044-0.051-0.054-0.068-0.034-0.056-0.048-0.092-0.065-0.132l0.037 0.068c-0.027-0.041-0.023-0.071-0.037-0.123-0.006-0.008-0.012-0.015-0.017-0.023 0.001 0.001 0.001 0.005 0.002 0.006 0.010 0.020-0.001 0-0.011-0.019-0.003-0.005-0.008-0.009-0.011-0.014l-0.217-0.108v-0.227c-0.012-0.061-0.008-0.108-0.008-0.153-0.004-0.014-0.022-0.035-0.024-0.046-0.009-0.056-0.007-0.080-0.007-0.101-0.004-0.007-0.007-0.015-0.011-0.022h-0.442zM21.132 7.474c-0.007 0.004-0.013 0.010-0.020 0.014 0.019-0.007 0.036-0.010 0.053-0.014h-0.033zM21.228 7.474c-0.027 0.041-0.057 0.080-0.098 0.121-0.029 0.029-0.091 0.069-0.159 0.099l0.003 0.010v0.378l-0.020 0.051c0 0.004 0-0.002 0 0.006 0 0.090-0.021 0.171-0.034 0.215 0.026-0.042 0.053-0.082 0.079-0.124 0.168-0.253 0.316-0.505 0.484-0.758h-0.256zM21.632 7.474c-0.189 0.274-0.379 0.526-0.547 0.8-0.077 0.123-0.158 0.242-0.239 0.362v0.089l-0.039 0.058-0.012 0.037c-0.007 0.020-0.013 0.039-0.020 0.059-0.002 0.013 0.002 0.004-0.002 0.021-0.001 0.002-0.005 0.008-0.006 0.010v0.114l-0.069 0.474c0.228-0.331 0.476-0.662 0.704-0.993 0.232-0.358 0.484-0.695 0.716-1.032h-0.484zM22.326 7.474l-0.821 1.074-0.758 1.011 0.232 0.232c0.253-0.337 0.526-0.674 0.8-1.011 0.337-0.442 0.674-0.863 1.053-1.305h-0.505zM23.821 7.474c-0.547 0.547-1.074 1.116-1.6 1.684-0.295 0.337-0.611 0.652-0.905 0.989l0.252 0.253c0.316-0.337 0.632-0.653 0.947-0.968 0.632-0.653 1.263-1.305 1.874-1.958h-0.568zM9.884 7.495c0.253 0.337 0.484 0.674 0.716 1.011s0.484 0.673 0.716 1.010l0.252-0.252c-0.211-0.337-0.442-0.652-0.653-0.989-0.168-0.274-0.358-0.527-0.547-0.779h-0.484zM10.537 7.495c0.147 0.232 0.316 0.484 0.463 0.737 0.211 0.337 0.421 0.653 0.632 0.99l0.252-0.253c-0.168-0.316-0.358-0.632-0.547-0.947-0.105-0.189-0.232-0.358-0.337-0.526h-0.463zM20.995 7.514c-0.004 0.006-0.008 0.012-0.012 0.018 0.004-0.002 0.008-0.004 0.012-0.004v-0.014zM20.995 7.535c-0.003-0-0.011 0.001-0.015 0.001-0.001 0.002-0.002 0.004-0.004 0.006-0.002 0.029-0.009 0.059-0.021 0.102l0.001 0.005 0.004-0.004c0.002-0.016 0.015-0.064 0.015-0.051 0 0.006-0.006 0.033-0.006 0.042l0.026-0.026v-0.075zM7.484 7.621v0.548c0.11 0.106 0.219 0.207 0.329 0.312 0.048-0.036 0.099-0.060 0.149-0.085l-0.007 0.003c0.005-0.005 0.013-0.005 0.018-0.010l0-0c0.013-0.012 0.017-0.030 0.032-0.040 0.041-0.027 0.037-0.009 0.069-0.021 0.004-0.001 0.006-0.004 0.010-0.006l-0.002 0.004c0.005-0.002 0.007-0.002 0.011-0.003 0.026-0.013 0.050-0.029 0.073-0.042-0.228-0.22-0.455-0.439-0.683-0.66zM24.537 7.621c-0.653 0.632-1.305 1.242-1.958 1.874-0.337 0.316-0.653 0.632-0.968 0.947l0.081 0.081c0.002-0.001 0.002-0 0.011-0.010l0.123-0.123h0.084c0.082-0.023 0.125-0.020 0.13-0.020 0.017 0-0.038 0.016-0.063 0.020h0.023c0.017-0.005 0.030-0.007 0.046-0.011 0.049-0.019 0.088-0.023 0.126-0.025 0.008-0.001 0.024-0.004 0.028-0.004l-0.005 0.002c0.012-0 0.028-0.003 0.038-0.003l-0.010 0.005c0.011-0.003 0.021-0.006 0.032-0.011 0.204-0.186 0.405-0.373 0.598-0.553 0.201-0.186 0.4-0.371 0.6-0.557v-0.067l0.036-0.054 0.002-0.011c0.019-0.094 0.073-0.196 0.126-0.267 0.048-0.074 0.061-0.137 0.044-0.053l0.026-0.124 0.071-0.071c0.003-0.004 0.005-0.017 0.007-0.020 0.031-0.040 0.047-0.054 0.051-0.058l0.001-0.001c0.063-0.063 0.124-0.102 0.154-0.122s0.029-0.021 0.026-0.017l0.123-0.123h0.107c0.061-0.022 0.115-0.038 0.12-0.039 0.095-0.038 0.145-0.048 0.15-0.050l-0.032 0.014c0.018-0.009 0.047-0.017 0.074-0.025v-0.525zM11.839 8.001c0 0.003 0.002 0.006 0.002 0.009l0.001 0c-0-0.001-0.003-0.009-0.003-0.009zM11.872 8.139c0.001 0.002 0.001 0.007 0.002 0.009v0c0.001 0.002 0.001 0.007 0.002 0.009l0.002 0.002c0 0 0 0.001 0 0.001 0.002 0.003 0.001 0 0.002 0.003l0.013 0.018c-0-0.002-0.001-0.002-0.001-0.004 0.003 0.003 0.014 0.015 0.011 0.013-0.003-0.003-0.009-0.015-0.013-0.018-0.003-0.011-0.006-0.017-0.008-0.027 0-0-0.015-0.008-0.009-0.005l-0.002-0.001zM24.352 8.225l-0.104 0.020h0.027c0.009-0.001 0.020-0.003 0.021-0.002 0.023-0.008 0.054-0.018 0.056-0.018zM24.296 8.243c-0.003 0.001-0.003 0.001-0.006 0.002h0.003c0.003 0 0.004-0.001 0.003-0.002zM24.289 8.245h-0.015c-0.012 0.001-0.026 0.002-0.062 0.011-0.026 0.007-0.076 0.047-0.12 0.073 0.071-0.040 0.144-0.066 0.197-0.084zM9.319 8.285c0.032 0 0.033 0.015 0.060 0.020h0.062c-0.008-0.002-0.013-0.006-0.021-0.008-0.031-0.008-0.1-0.012-0.1-0.012zM11.98 8.32l0.015 0.062 0.012 0.008c-0.009-0.024-0.018-0.047-0.027-0.069zM7.463 8.463v0.526c0.022 0.019 0.046 0.039 0.068 0.058 0.008-0.019 0.015-0.037 0.022-0.056 0.003-0.023 0.002-0.045 0.008-0.070 0.004-0.015 0.028-0.042 0.032-0.059 0.009-0.027 0.012-0.066 0.020-0.082 0.021-0.041 0.021-0.040 0.014-0.025l0.055-0.111c-0.074-0.061-0.145-0.121-0.22-0.182zM23.752 8.6c-0.013 0.016-0.024 0.026-0.038 0.055-0.003 0.006-0.005 0.016-0.008 0.023 0.015-0.031 0.032-0.057 0.046-0.077zM20.823 8.688c-0.003 0.009-0.003 0.016-0.007 0.025v0.003c0.003-0.011 0.004-0.014 0.007-0.028zM23.688 8.723c-0.001 0.004-0.003 0.007-0.005 0.012-0 0.001-0 0.002-0 0.003 0.001-0.006 0.003-0.010 0.005-0.015zM20.66 9.086c-0.007 0.007-0.005 0.012-0.012 0.020l0.005-0.002c0.006-0.006 0.002-0.011 0.008-0.018zM7.463 9.2v0.042l0.005-0.010c0.005-0.009 0.005-0.013 0.008-0.022-0.005-0.003-0.009-0.007-0.013-0.010zM23.433 9.391c-0.179 0.154-0.356 0.308-0.538 0.461-0.139 0.13-0.284 0.26-0.43 0.39 0.053-0.033 0.079-0.044 0.060-0.031l-0.064 0.052c0.069-0.069 0.142-0.109 0.219-0.148l0.020-0.010 0.021-0.008c0.054-0.020 0.093-0.040 0.146-0.066 0.036-0.022 0.083-0.053 0.137-0.089l0.022-0.014 0.19-0.095 0.028-0.009c0.036-0.012 0.096-0.016 0.124-0.028 0.009-0.005 0.013-0.011 0.022-0.016 0.001-0.001 0.003-0.001 0.005-0.002 0.007-0.006 0.016-0.012 0.024-0.018 0.003-0.103 0.011-0.2 0.021-0.262l-0.006 0.070v-0.178zM20.696 9.47c0 0.014-0.002 0.022-0.004 0.033 0-0.001 0.001-0.001 0.001-0.002l0.002-0.032zM10.127 9.538c0 0.001-0 0.002-0 0.003l0.033 0.033c-0.011-0.012-0.022-0.024-0.033-0.036zM23.526 9.68c-0.011 0.005-0.013 0.007-0.018 0.010l-0.004 0.006c0.011-0.006 0.010-0.010 0.021-0.016zM10.003 9.821c-0.006 0.007-0.004 0.012-0.011 0.019l0.004-0.002c0.006-0.006 0.002-0.011 0.007-0.017zM7.484 9.895v0.484c0.253 0.189 0.526 0.358 0.8 0.547 0.119 0.082 0.233 0.158 0.348 0.236l-0.011-0.018c-0.008-0.012-0.022-0.030-0.037-0.045l-0.033-0.032-0.044-0.069-0.014-0.009c-0.058-0.029-0.135-0.065-0.223-0.136-0.002-0.001-0.035-0.022-0.095-0.052l-0.061-0.030-0.049-0.048c0.003 0.003-0.024-0.019-0.035-0.027-0.086-0.051-0.138-0.106-0.164-0.132l-0.124-0.123v-0.035c-0.010-0.012-0.037-0.042-0.035-0.040-0.060-0.059-0.115-0.162-0.132-0.238-0.005-0.020-0.001-0.019-0.003-0.035-0.023-0.067-0.045-0.135-0.057-0.171-0.001-0.003-0.001-0.004-0.002-0.007-0.009-0.006-0.019-0.013-0.028-0.020zM21.839 10.431c-0.011 0.005 0.002-0.003-0.011 0.003-0.004 0.002-0.004 0.009-0.008 0.011 0.006-0.004 0.013-0.011 0.019-0.014zM21.741 10.494c-0.030 0.015-0.042 0.024-0.049 0.029l0.001 0.001c0.013-0.009 0.023-0.018 0.047-0.030zM7.484 10.547v0.463c0.189 0.105 0.358 0.232 0.547 0.337 0.316 0.189 0.611 0.358 0.926 0.547l0.189-0.205-0.026-0.026-0.032-0.081c-0.002-0.005 0.011 0.009-0.016-0.017l-0.055-0.055c-0.010-0.007-0.025-0.020-0.036-0.028-0.050-0.021-0.087-0.048-0.11-0.066-0.018-0.014-0.021-0.019-0.032-0.029-0.195-0.124-0.392-0.25-0.597-0.378-0.253-0.147-0.505-0.316-0.758-0.463zM21.8 10.558c-0.036 0-0.044 0.008-0.059 0.015l0.003 0.002c0.020-0.005 0.054-0.017 0.056-0.017zM8.024 10.622c0.015 0.007 0.032 0.032 0.044 0.035 0.076 0.017 0.088 0.010 0.086 0.010-0.036 0-0.084-0.030-0.13-0.044zM7.484 11.137v0.463c0.105 0.063 0.211 0.105 0.316 0.169 0.274 0.147 0.568 0.295 0.842 0.442l0.273-0.274c-0.316-0.189-0.611-0.358-0.926-0.526-0.168-0.084-0.337-0.189-0.505-0.273zM7.484 11.705c0.006 0.003 0.014 0.007 0.021 0.010v-0.010h-0.021zM7.505 11.715v0.411c0.021 0.021 0.063 0.042 0.105 0.063 0.232 0.126 0.484 0.232 0.716 0.337l0.252-0.274c-0.274-0.147-0.547-0.295-0.821-0.421-0.078-0.039-0.172-0.078-0.252-0.116zM24.537 11.705c-0.096 0.039-0.173 0.077-0.25 0.116l-0.007 0.014-0.001 0.001-0.051 0.102-0.015 0.022c-0.014 0.020-0.042 0.059-0.077 0.102-0.011 0.019-0.034 0.061-0.095 0.121 0.030-0.030 0.035-0.043 0.003 0.005l-0.023 0.035-0.030 0.029c-0.019 0.019-0.048 0.035-0.073 0.053l-0.050 0.050-0.086 0.032c-0.068 0.025-0.119 0.042-0.168 0.058l0.081 0.081c0.253-0.105 0.484-0.232 0.737-0.337 0.042 0 0.063-0.021 0.105-0.042v-0.442zM7.484 12.232v0.232l-0.148 0.105c0.021 0 0.042 0.021 0.063 0.021 0.189 0.084 0.379 0.147 0.568 0.232l0.274-0.274c-0.232-0.084-0.463-0.19-0.695-0.295-0.021 0-0.042-0.021-0.063-0.021zM24.558 12.252c-0.021 0-0.042 0.021-0.063 0.021-0.253 0.105-0.484 0.211-0.716 0.316l0.274 0.273c0.189-0.084 0.379-0.147 0.568-0.232 0.021 0 0.042 0 0.084-0.021l-0.147-0.148v-0.211zM7.274 12.674l-0.316 0.316c0.105 0.042 0.189 0.063 0.294 0.105l0.379 0.127 0.295-0.295c-0.189-0.063-0.379-0.126-0.547-0.19-0.042-0.021-0.084-0.042-0.105-0.063zM24.748 12.674c-0.042 0.021-0.063 0.021-0.105 0.042-0.189 0.084-0.358 0.147-0.548 0.211l0.295 0.295 0.379-0.127c0.105-0.042 0.189-0.063 0.273-0.126l-0.294-0.295zM6.874 13.095l-0.298 0.298c0.016 0.012 0.030 0.024 0.044 0.035 0.153 0.041 0.318 0.093 0.485 0.13 0.063 0.021 0.105 0.021 0.147 0.042l0.295-0.295c-0.105-0.042-0.231-0.063-0.337-0.105s-0.231-0.084-0.337-0.105zM25.147 13.095c-0.105 0.042-0.232 0.063-0.337 0.105s-0.232 0.063-0.337 0.105l0.295 0.295c0.042-0.021 0.105-0.021 0.147-0.042 0.189-0.063 0.358-0.105 0.547-0.148l-0.316-0.316zM25.438 13.546c-0.167 0.039-0.334 0.084-0.502 0.117-0.021 0-0.063 0.021-0.084 0.021l0.183 0.183c0.051-0.047 0.111-0.094 0.19-0.148 0.066-0.049 0.129-0.102 0.192-0.155 0.004-0.003 0.015-0.015 0.019-0.018zM6.79 13.585l0.070 0.070 0.109 0.090 0.015 0.015c0.009 0.009 0.040 0.030 0.057 0.044l0.127-0.118-0.084-0.021c-0.098-0.029-0.196-0.054-0.294-0.079zM5.843 14.104l-0.191 0.191 0.211 0.035c-0.007-0.057-0.015-0.12-0.015-0.153v-0.055c-0.001-0.006-0.004-0.012-0.005-0.018zM26.268 14.216c-0.002 0.011-0.010 0.044-0.010 0.040 0 0.009-0 0.023-0 0.034 0.022-0.006 0.046-0.010 0.068-0.016l-0.058-0.058zM5.505 14.421l-0.358 0.358c0.274 0.042 0.526 0.063 0.8 0.105l0.001-0.001c0-0.019-0-0.041-0-0.057-0.012-0.061-0.030-0.12-0.030-0.183l0.006 0.069c-0.010-0.058-0.019-0.124-0.028-0.194-0.004-0.014-0.009-0.027-0.013-0.042-0.121-0.017-0.244-0.036-0.378-0.055zM26.474 14.421c-0.074 0.012-0.152 0.021-0.229 0.031-0.002 0.012-0.002 0.022-0.005 0.035v0.002c0-0.002-0.002 0.017-0.002 0.065v0.069l-0.022 0.065c-0.011 0.032-0.008 0.031-0.008 0.025v0.042l-0.008 0.042c-0.005 0.022-0.009 0.045-0.013 0.067 0.214-0.034 0.435-0.067 0.644-0.084l-0.358-0.358zM27 14.926l-0.821 0.063 0.379 0.379 0.821-0.063-0.379-0.379zM5.021 14.947l-0.379 0.379 0.821 0.063 0.379-0.379-0.821-0.063zM27.547 15.495c-0.295 0-0.568 0.021-0.863 0.021l0.4 0.4c0.295 0 0.589-0.021 0.863-0.021l-0.4-0.4zM4.453 15.516l-0.4 0.4c0.295 0 0.568 0.021 0.863 0.021l0.4-0.4c-0.295-0.021-0.568-0.021-0.863-0.021zM4.937 16.084c-0.295 0.021-0.568 0.021-0.863 0.021l0.4 0.4c0.295 0 0.568-0.021 0.863-0.021l-0.4-0.4zM27.084 16.084l-0.4 0.4c0.295 0.021 0.589 0.021 0.863 0.021l0.4-0.4c-0.295 0-0.568-0.021-0.863-0.021zM5.484 16.632l-0.821 0.063 0.379 0.379 0.821-0.063-0.379-0.379zM26.558 16.632l-0.379 0.379 0.821 0.063 0.379-0.379-0.821-0.063zM26.059 17.117v0.27c0.009 0.051 0.016 0.099 0.018 0.146 0.137 0.019 0.277 0.036 0.417 0.046l0.358-0.358c-0.271-0.042-0.523-0.063-0.794-0.104zM5.968 17.137c-0.253 0.021-0.526 0.063-0.779 0.105l0.358 0.358c0.168-0.028 0.343-0.048 0.517-0.070-0.003-0.084-0.008-0.15-0.011-0.167l-0.006-0.035v-0.112l-0.079-0.079zM6.065 17.651c-0.127 0.027-0.251 0.054-0.37 0.076l0.337 0.337c0.004-0.001 0.008-0.002 0.011-0.002-0.012-0.088-0.010-0.178 0.007-0.244-0.006 0.025-0.002 0.023-0.002-0.027v-0.081l0.016-0.041c0-0.002 0.001-0.013 0.001-0.017zM26.079 17.66c-0 0.027 0 0.053 0 0.080v0.118l-0.016 0.048c0.005 0.032 0.005 0.053 0.006 0.078l0.278-0.278-0.269-0.045zM7.484 20.262v0.053c0.008-0.003 0.014-0.007 0.022-0.010-0.007-0.013-0.014-0.028-0.022-0.044zM7.551 20.385c-0.022 0.012-0.044 0.023-0.066 0.036h-0.021v0.442c0.083-0.047 0.173-0.101 0.265-0.154-0.029-0.049-0.069-0.111-0.105-0.201-0.002-0.005-0.020-0.039-0.050-0.088-0.004-0.007-0.015-0.023-0.023-0.035zM7.672 20.5l0.043 0.154 0.004 0.003c-0.018-0.066-0.047-0.154-0.047-0.157zM24.516 20.516c-0.030 0.088-0.062 0.175-0.096 0.262 0.032 0.018 0.064 0.036 0.096 0.053v-0.315zM24.516 20.831v0.012h0.021c-0.007-0.004-0.014-0.008-0.021-0.012zM7.72 20.672l0.010 0.036c0-0 0.001-0 0.001-0-0.002-0.009-0.009-0.028-0.011-0.036zM7.774 20.84c-0.095 0.059-0.189 0.115-0.289 0.171h0.021v0.442c0.137-0.080 0.268-0.165 0.399-0.25-0.007-0.017-0.016-0.039-0.021-0.052v-0c-0.020-0.060-0.034-0.097-0.047-0.123l-0.014-0.027-0.009-0.028c-0.028-0.084-0.038-0.125-0.040-0.132zM24.378 20.877c-0.026 0.063-0.051 0.126-0.079 0.189l-0.005 0.010-0.005 0.010c-0.015 0.029-0.012 0.042-0.009 0.016l-0.009 0.037c-0.010 0.038-0.018 0.081-0.030 0.128 0.097 0.063 0.194 0.126 0.295 0.185v-0.484c-0.055-0.031-0.106-0.061-0.159-0.092zM22.158 21.011l-0.252 0.252 1.010 0.884c0.547 0.463 1.074 0.927 1.621 1.39v-0.526c-0.337-0.291-0.666-0.571-0.997-0.848h-0.277v-0.231c-0.032-0.026-0.063-0.053-0.095-0.079-0.337-0.295-0.674-0.568-1.011-0.842zM9.926 21.094c-0.013 0.008-0.022 0.011-0.026 0.011-0.057 0.046-0.108 0.071-0.158 0.096-0.012 0.008-0.059 0.039-0.107 0.070-0.046 0.036-0.080 0.065-0.109 0.093l-0.042 0.041-0.096 0.053c-0.038 0.035-0.081 0.074-0.101 0.094-0.050 0.050-0.089 0.089-0.124 0.131l-0.057 0.068-0.079 0.039c0.002-0.001-0.022 0.019-0.025 0.021v0.015l-0.068 0.068-0.015 0.044-0.264 0.263h-0.199c-0.323 0.269-0.644 0.539-0.973 0.808v0.547c0.547-0.463 1.074-0.926 1.621-1.389l1.011-0.884-0.19-0.19zM21.863 21.305l-0.252 0.253c0.337 0.316 0.653 0.632 0.968 0.947 0.653 0.611 1.305 1.242 1.958 1.852v-0.568c-0.547-0.526-1.116-1.053-1.684-1.579-0.337-0.295-0.653-0.611-0.99-0.905zM7.94 21.314c-0.15 0.098-0.3 0.199-0.456 0.307v0.526c0.181-0.135 0.361-0.264 0.542-0.391-0.002-0.004-0.005-0.015-0.005-0.015 0-0.044-0.005-0.069-0.007-0.076l-0.013-0.050v-0.079c-0.015-0.049-0.025-0.103-0.032-0.162-0.005-0.018-0.027-0.043-0.029-0.058-0-0.001 0-0.001 0-0.002zM10.158 21.326c-0.337 0.295-0.652 0.589-0.989 0.905-0.568 0.526-1.137 1.053-1.684 1.579h-0.021v0.547c0.674-0.611 1.305-1.221 1.958-1.852 0.316-0.316 0.653-0.632 0.968-0.947l-0.232-0.232zM24.211 21.377l-0.001 0.003-0.005 0.011c-0.005 0.013-0.029 0.085-0.057 0.163-0.004 0.036 0.002 0.051-0.014 0.099 0.012-0.040 0.011-0.068 0.011-0.041 0 0.082-0.017 0.154-0.030 0.201 0.141 0.098 0.282 0.196 0.422 0.292h0.021v-0.484c-0.119-0.082-0.233-0.164-0.347-0.244zM10.453 21.6c-0.316 0.316-0.632 0.653-0.947 0.968-0.632 0.653-1.263 1.305-1.853 1.937h0.547c0.526-0.547 1.053-1.116 1.579-1.684 0.295-0.316 0.611-0.653 0.905-0.99l-0.232-0.232zM21.59 21.6l-0.253 0.253c0.295 0.337 0.611 0.652 0.905 0.989 0.526 0.568 1.053 1.116 1.6 1.684h0.568c-0.632-0.653-1.242-1.305-1.873-1.958-0.316-0.316-0.632-0.653-0.947-0.968zM23.236 21.766l0.002 0.007c0.001 0 0.001 0.001 0.002 0.001-0.001-0.003-0.002-0.006-0.003-0.009zM8.041 21.872c-0.186 0.139-0.371 0.281-0.557 0.423h-0.021v0.505c0.262-0.199 0.522-0.399 0.779-0.598h-0.201v-0.33zM10.748 21.895l-0.884 1.011c-0.484 0.526-0.947 1.074-1.41 1.621h0.547c0.4-0.463 0.779-0.905 1.158-1.368 0.274-0.337 0.568-0.674 0.842-1.011l-0.252-0.252zM21.274 21.895l-0.253 0.252c0.274 0.337 0.568 0.674 0.842 1.011 0.379 0.463 0.758 0.905 1.137 1.368h0.547c-0.463-0.547-0.926-1.074-1.389-1.621l-0.884-1.011zM24.055 21.947c-0.030 0.054-0.069 0.106-0.125 0.143-0.093 0.061-0.152 0.071-0.194 0.072 0.265 0.211 0.53 0.426 0.801 0.658v-0.505l-0.482-0.368zM11.042 22.19c-0.274 0.337-0.547 0.695-0.821 1.032-0.337 0.442-0.674 0.863-0.99 1.305h0.505c0.253-0.358 0.526-0.716 0.8-1.074l0.758-1.011-0.253-0.252zM20.958 22.211l-0.232 0.232 0.758 1.011c0.274 0.358 0.547 0.716 0.779 1.095h0.505c-0.337-0.442-0.674-0.884-1.011-1.305-0.253-0.358-0.526-0.695-0.8-1.032zM20.684 22.484l-0.252 0.252c0.211 0.337 0.442 0.652 0.653 0.989 0.189 0.274 0.358 0.527 0.547 0.779h0.484c-0.253-0.337-0.484-0.674-0.716-1.011s-0.484-0.673-0.716-1.010zM11.316 22.505c-0.232 0.337-0.484 0.673-0.716 1.010s-0.463 0.674-0.716 1.032h0.484c0.189-0.274 0.379-0.526 0.547-0.8 0.211-0.337 0.442-0.653 0.653-0.99l-0.252-0.252zM11.632 22.8c-0.211 0.337-0.421 0.652-0.632 0.989-0.147 0.253-0.316 0.484-0.484 0.758h0.463c0.126-0.189 0.232-0.358 0.337-0.547l0.568-0.947-0.252-0.252zM20.368 22.8l-0.252 0.252c0.189 0.295 0.358 0.611 0.547 0.926 0.126 0.189 0.232 0.358 0.337 0.547h0.463c-0.147-0.232-0.316-0.484-0.463-0.737-0.211-0.337-0.421-0.652-0.632-0.989zM11.947 23.095c-0.168 0.316-0.358 0.632-0.526 0.947-0.105 0.147-0.189 0.316-0.252 0.505h0.442c0.063-0.105 0.105-0.211 0.168-0.316 0.147-0.295 0.295-0.568 0.442-0.863l-0.098-0.098-0.002-0.001-0.002-0.002-0.173-0.173zM20.053 23.116l-0.252 0.252c0.147 0.274 0.295 0.568 0.442 0.842 0.063 0.105 0.126 0.211 0.168 0.316h0.442c-0.084-0.147-0.19-0.316-0.274-0.484-0.168-0.316-0.358-0.61-0.526-0.926zM12.263 23.41c-0.147 0.274-0.274 0.568-0.421 0.842-0.042 0.105-0.084 0.19-0.126 0.274h0.421c0.021-0.042 0.042-0.063 0.063-0.105 0.105-0.253 0.232-0.484 0.337-0.737l-0.274-0.274zM19.758 23.41l-0.273 0.274c0.105 0.253 0.232 0.484 0.337 0.737 0.021 0.042 0.021 0.063 0.063 0.105h0.421c-0.042-0.105-0.084-0.19-0.126-0.274-0.147-0.295-0.274-0.568-0.421-0.842zM12.6 23.748c-0.105 0.232-0.211 0.484-0.316 0.715 0 0.021-0.021 0.042-0.021 0.063h0.211l0.147 0.147c0-0.021 0.021-0.042 0.021-0.063 0.084-0.211 0.147-0.4 0.232-0.59l-0.274-0.273zM19.421 23.768l-0.274 0.273c0.084 0.189 0.148 0.379 0.232 0.569 0 0.021 0.021 0.042 0.021 0.063l0.147-0.126h0.211c0-0.021-0.021-0.042-0.021-0.063-0.105-0.253-0.211-0.484-0.316-0.716zM12.937 24.063c-0.084 0.189-0.147 0.358-0.211 0.547-0.021 0.042-0.021 0.063-0.042 0.105l0.316 0.316c0.042-0.084 0.063-0.19 0.105-0.274l0.126-0.379-0.295-0.316zM19.084 24.084l-0.295 0.295 0.126 0.379c0.042 0.105 0.063 0.19 0.126 0.274l0.295-0.295c-0.021-0.042-0.021-0.063-0.042-0.105-0.084-0.189-0.147-0.358-0.211-0.547zM13.295 24.442c-0.042 0.126-0.063 0.232-0.105 0.358-0.021 0.105-0.063 0.232-0.105 0.316l0.316 0.316c0.042-0.189 0.105-0.358 0.147-0.548 0.021-0.042 0.021-0.105 0.042-0.147l-0.295-0.295zM18.705 24.463l-0.295 0.295c0.021 0.042 0.021 0.105 0.042 0.148 0.063 0.168 0.105 0.358 0.147 0.547l0.316-0.316c-0.042-0.105-0.063-0.232-0.105-0.337s-0.063-0.232-0.105-0.337zM13.674 24.842c0 0.042-0.021 0.063-0.021 0.105-0.042 0.189-0.084 0.4-0.147 0.59l0.337 0.337c0.063-0.232 0.105-0.484 0.169-0.716l-0.337-0.316zM18.326 24.842l-0.316 0.316c0.063 0.232 0.126 0.484 0.147 0.737l0.337-0.337c-0.042-0.211-0.105-0.421-0.147-0.632 0-0.021-0.021-0.063-0.021-0.084zM14.095 25.242c-0.042 0.253-0.105 0.505-0.126 0.758l0.337 0.337 0.127-0.758-0.337-0.337zM17.926 25.242l-0.337 0.337c0.042 0.253 0.084 0.505 0.147 0.737l0.337-0.337c-0.042-0.232-0.105-0.484-0.147-0.737zM14.537 25.684c-0.042 0.274-0.084 0.526-0.105 0.8l0.358 0.358c0.042-0.274 0.063-0.526 0.105-0.8l-0.008-0.008h-0.025l-0.078-0.103-0.247-0.247zM17.505 25.684l-0.358 0.358c0.021 0.253 0.063 0.527 0.105 0.779l0.358-0.358c-0.042-0.253-0.063-0.526-0.105-0.779zM17.021 26.147l-0.379 0.379 0.063 0.821 0.379-0.379-0.063-0.821zM15.021 26.169c-0.042 0.274-0.063 0.547-0.063 0.821l0.379 0.379 0.063-0.821-0.379-0.379zM15.526 26.674c0 0.295-0.021 0.59-0.021 0.863l0.4 0.4c0-0.295 0.021-0.568 0.021-0.863l-0.4-0.4zM16.495 26.674l-0.015 0.015v0.14h-0.050v0.049h-0.139l-0.196 0.196c0.021 0.295 0.021 0.568 0.021 0.863l0.4-0.4c0-0.295-0.021-0.569-0.021-0.863z"></path>
</svg>
