<!-- Generated by IcoMoon.io -->
<svg version="1.1" xmlns="http://www.w3.org/2000/svg" width="32" height="32" viewBox="0 0 32 32">
<title>token_frost_highlight</title>
<path d="M16 2.755l-3.877 3.877h-5.492v5.492l-3.877 3.877 3.877 3.877v5.492h5.492l3.877 3.877 3.877-3.877h5.492v-5.492l3.877-3.877-3.877-3.877v-5.492h-5.492l-3.877-3.877zM16 3.053l3.789 3.789h5.368v5.368l3.789 3.789-3.789 3.789v5.368h-5.368l-3.789 3.789-3.789-3.789h-5.368v-5.368l-3.789-3.789 3.789-3.789v-5.368h5.368l3.789-3.789z"></path>
<path d="M15.242 24.708c-0.012-0.070-0.014-0.149-0.014-0.416 0-0.181 0.004-0.357 0.009-0.39s0.011-0.081 0.014-0.105c0.005-0.041 0.008-0.046 0.047-0.072 0.023-0.015 0.045-0.027 0.049-0.027s0.019-0.010 0.035-0.022c0.016-0.012 0.034-0.022 0.039-0.022 0.015 0 0.141-0.066 0.17-0.089l0.024-0.020-0.005-0.961-0.109 0.061c-0.174 0.096-0.705 0.423-0.823 0.506-0.059 0.042-0.12 0.079-0.136 0.081l-0.029 0.005v0.367c0 0.324-0.002 0.369-0.014 0.387-0.023 0.032-0.092 0.072-0.385 0.22-0.151 0.077-0.297 0.153-0.325 0.169-0.042 0.025-0.2 0.086-0.205 0.079-0.001-0.001-0.012-0.033-0.025-0.072-0.023-0.069-0.023-0.073-0.023-0.327-0-0.141-0.006-0.353-0.013-0.47-0.016-0.267-0.017-0.809-0.001-0.853 0.009-0.026 0.038-0.047 0.222-0.161 0.116-0.072 0.585-0.364 1.041-0.649l0.83-0.517v-1.906l-0.020 0.010c-0.011 0.006-0.075 0.042-0.143 0.081s-0.153 0.085-0.189 0.103c-0.036 0.018-0.101 0.058-0.145 0.090s-0.107 0.074-0.141 0.095c-0.034 0.020-0.092 0.057-0.128 0.082s-0.069 0.045-0.073 0.045c-0.004 0-0.026 0.012-0.047 0.027l-0.039 0.027v0.405c0 0.437-0.004 0.487-0.047 0.533-0.049 0.052-1.114 0.654-1.158 0.654-0.011 0-0.055-0.064-0.055-0.080 0-0.006-0.011-0.022-0.024-0.036l-0.024-0.025-0.005-0.864 0.055-0.055c0.044-0.044 0.061-0.055 0.082-0.055 0.018 0 0.051-0.016 0.099-0.048l0.073-0.048 0-0.919 0.068-0.043c0.038-0.024 0.203-0.126 0.368-0.227s0.434-0.268 0.599-0.371c0.483-0.302 0.817-0.502 0.857-0.513l0.037-0.011-0.001-0.489-0.481-0.274c-0.265-0.151-0.488-0.274-0.495-0.274s-0.085 0.044-0.172 0.097c-0.087 0.053-0.202 0.119-0.255 0.147s-0.206 0.112-0.339 0.187c-0.133 0.075-0.337 0.189-0.454 0.253s-0.323 0.182-0.46 0.262c-0.137 0.080-0.283 0.165-0.326 0.187s-0.1 0.055-0.127 0.072l-0.049 0.031-0.006 0.218c-0.006 0.223-0.014 0.351-0.036 0.606-0.022 0.244-0.032 0.436-0.040 0.762-0.010 0.388-0.016 0.439-0.065 0.519-0.029 0.047-0.045 0.064-0.080 0.083-0.024 0.013-0.139 0.077-0.256 0.143s-0.263 0.146-0.326 0.18c-0.303 0.161-0.522 0.287-0.68 0.388-0.068 0.043-0.228 0.115-0.275 0.123-0.010 0.001-0.016-0.022-0.029-0.098-0.031-0.192-0.034-0.242-0.034-0.589l-0-0.349 0.048-0.043c0.066-0.059 0.098-0.082 0.114-0.082 0.008 0 0.027-0.012 0.043-0.026s0.051-0.034 0.077-0.044c0.026-0.010 0.142-0.074 0.256-0.141 0.244-0.144 0.228-0.122 0.228-0.308 0-0.067 0.006-0.189 0.013-0.273s0.013-0.226 0.013-0.316l0-0.164-0.024 0.013c-0.013 0.007-0.383 0.218-0.822 0.469l-0.797 0.456-0.006 0.208c-0.003 0.114-0.009 0.223-0.013 0.24-0.007 0.031-0.016 0.037-0.192 0.143-0.313 0.187-0.552 0.321-0.622 0.349l-0.067 0.027-0.041-0.055c-0.023-0.031-0.041-0.064-0.041-0.077s-0.005-0.025-0.010-0.028c-0.008-0.005-0.008-0.157-0.004-0.599 0.004-0.326 0.009-0.638 0.012-0.692l0.006-0.099 0.4-0.224c0.22-0.123 0.432-0.237 0.471-0.253 0.061-0.024 0.304-0.17 0.304-0.183 0-0.002-0.064-0.037-0.143-0.076-0.088-0.044-0.175-0.096-0.227-0.134-0.046-0.034-0.113-0.076-0.15-0.094s-0.109-0.057-0.161-0.089c-0.052-0.032-0.105-0.061-0.118-0.064s-0.040-0.017-0.059-0.030l-0.036-0.025-0.128 0.072c-0.223 0.125-0.286 0.162-0.304 0.179-0.010 0.009-0.032 0.021-0.048 0.026s-0.045 0.021-0.064 0.036c-0.042 0.032-0.259 0.137-0.289 0.139-0.015 0.001-0.147-0.070-0.416-0.224l-0.394-0.226v-0.059c0-0.089 0.036-0.155 0.098-0.181 0.014-0.006 0.026-0.017 0.026-0.025 0-0.009 0.068-0.050 0.203-0.122 0.111-0.059 0.261-0.144 0.332-0.189s0.135-0.082 0.142-0.082c0.007 0 0.026-0.011 0.044-0.025 0.031-0.024 0.118-0.079 0.167-0.105 0.013-0.007 0.039-0.025 0.058-0.042s0.059-0.037 0.090-0.046c0.050-0.015 0.109-0.048 0.17-0.094 0.028-0.021 0.181-0.097 0.195-0.097 0.006 0 0.023-0.012 0.039-0.027l0.028-0.027 0.038 0.026c0.021 0.014 0.092 0.052 0.157 0.083s0.163 0.082 0.216 0.111c0.053 0.029 0.141 0.073 0.194 0.097 0.116 0.052 0.223 0.11 0.483 0.258 0.107 0.061 0.238 0.134 0.291 0.162s0.134 0.074 0.181 0.102c0.046 0.028 0.089 0.051 0.095 0.051s0.011 0.006 0.011 0.013c0 0.007 0.006 0.013 0.013 0.013s0.072 0.029 0.143 0.064l0.13 0.064 0.041-0.014c0.023-0.008 0.052-0.024 0.066-0.037 0.038-0.035 0.145-0.103 0.267-0.17 0.186-0.102 0.37-0.207 0.37-0.212 0-0.007-0.257-0.154-0.277-0.159-0.010-0.002-0.105-0.059-0.211-0.126-0.4-0.252-0.762-0.464-0.932-0.548-0.203-0.1-0.4-0.208-0.435-0.238-0.020-0.017-0.088-0.062-0.152-0.101s-0.115-0.072-0.113-0.076c0.002-0.005 0.67-0.391 0.921-0.531l0.046-0.026 0.104 0.065c0.174 0.108 0.536 0.322 0.698 0.412 0.084 0.047 0.197 0.115 0.251 0.152 0.141 0.097 0.288 0.186 0.496 0.302 0.212 0.117 0.334 0.189 0.421 0.248 0.034 0.023 0.079 0.048 0.1 0.055l0.038 0.013 0.091-0.052c0.050-0.029 0.099-0.052 0.108-0.052s0.052-0.021 0.095-0.046c0.143-0.085 0.2-0.116 0.378-0.208 0.097-0.050 0.229-0.122 0.292-0.16s0.156-0.090 0.206-0.116c0.049-0.026 0.115-0.066 0.146-0.090s0.072-0.048 0.089-0.054l0.033-0.011v-1.121l-0.201-0.124c-0.111-0.068-0.204-0.124-0.208-0.124s-0.087 0.045-0.184 0.1c-0.097 0.055-0.183 0.1-0.19 0.1s-0.122 0.057-0.255 0.126c-0.133 0.069-0.247 0.126-0.255 0.126-0.028 0-0.146 0.061-0.244 0.126-0.104 0.070-0.212 0.126-0.24 0.126-0.009 0-0.029 0.006-0.044 0.014s-0.069 0.031-0.119 0.052l-0.091 0.037-0.451-0.263c-0.428-0.25-0.69-0.399-0.768-0.439-0.031-0.016-0.040-0.027-0.074-0.102l-0.039-0.084 0.039-0.039c0.047-0.048 0.075-0.064 0.413-0.243 0.148-0.078 0.3-0.16 0.339-0.182s0.075-0.040 0.082-0.040c0.020 0 0.094 0.041 0.134 0.074 0.041 0.034 0.153 0.101 0.241 0.145 0.030 0.015 0.071 0.038 0.092 0.052s0.041 0.025 0.047 0.025c0.006 0 0.027-0.011 0.047-0.025 0.048-0.032 0.112-0.064 0.196-0.097 0.086-0.034 0.296-0.149 0.288-0.157-0.004-0.003-0.333-0.199-0.732-0.434l-0.726-0.428-0.049 0.013c-0.027 0.007-0.063 0.023-0.081 0.036-0.095 0.069-0.248 0.164-0.336 0.208-0.055 0.028-0.226 0.131-0.378 0.229-0.247 0.159-0.433 0.271-0.633 0.38-0.036 0.019-0.124 0.074-0.196 0.12s-0.138 0.085-0.146 0.085c-0.008 0-0.047 0.021-0.086 0.047s-0.084 0.054-0.099 0.062l-0.028 0.016-0.224-0.135c-0.123-0.074-0.245-0.146-0.271-0.159s-0.108-0.062-0.181-0.108c-0.182-0.116-0.254-0.158-0.459-0.267-0.097-0.052-0.275-0.152-0.396-0.224s-0.234-0.137-0.252-0.145c-0.033-0.014-0.193-0.124-0.193-0.132 0-0.004 0.925-0.55 0.942-0.556 0.004-0.001 0.066 0.032 0.138 0.075s0.214 0.122 0.316 0.176c0.102 0.054 0.205 0.113 0.229 0.131s0.113 0.070 0.197 0.116l0.153 0.084 0.047-0.032c0.026-0.018 0.068-0.049 0.094-0.069s0.141-0.093 0.255-0.163c0.168-0.102 0.49-0.323 0.565-0.387 0.014-0.012 0.003-0.021-0.137-0.106-0.158-0.097-0.394-0.227-0.703-0.388-0.099-0.052-0.185-0.098-0.191-0.102-0.008-0.006-0.012-0.087-0.015-0.288-0.012-0.716-0.015-1.055-0.007-1.072 0.033-0.072 0.087-0.181 0.091-0.184 0.006-0.004 0.573 0.312 0.606 0.337 0.012 0.009 0.026 0.016 0.032 0.016s0.016 0.006 0.021 0.013c0.006 0.007 0.038 0.023 0.072 0.036 0.041 0.016 0.078 0.039 0.114 0.071l0.053 0.047v0.22c0 0.168 0.003 0.221 0.011 0.225 0.006 0.002 0.039 0.025 0.073 0.050 0.075 0.055 0.125 0.084 0.361 0.209 0.102 0.054 0.202 0.11 0.224 0.124s0.094 0.053 0.161 0.086l0.122 0.061-0.005-0.172c-0.003-0.095-0.008-0.309-0.012-0.477-0.004-0.176-0.011-0.31-0.016-0.318s-0.011-0.114-0.013-0.248l-0.004-0.235-0.905-0.538 0.004-0.397c0.003-0.307 0.007-0.41 0.018-0.454 0.007-0.031 0.018-0.097 0.024-0.146s0.012-0.089 0.013-0.089c0.001 0 0.416 0.239 0.922 0.53l0.92 0.53 0.006 0.038c0.004 0.021 0.029 0.608 0.056 1.305s0.052 1.272 0.055 1.278c0.003 0.006 0.198 0.122 0.433 0.259l0.427 0.248 0.005-1.087 0.046-0.010c0.025-0.006 0.071-0.012 0.101-0.015 0.049-0.004 0.059-0.002 0.088 0.017 0.018 0.012 0.061 0.037 0.095 0.055s0.119 0.065 0.189 0.104c0.070 0.039 0.154 0.082 0.185 0.096s0.105 0.054 0.164 0.090l0.107 0.065 0.006 0.14c0.017 0.419 0.023 0.609 0.023 0.846l0 0.262 0.328 0.187c0.18 0.103 0.335 0.187 0.343 0.187s0.232-0.123 0.496-0.274l0.48-0.274-0.001-1.707-0.169-0.118c-0.418-0.291-1.054-0.697-1.093-0.697-0.017 0-0.055-0.018-0.106-0.050-0.196-0.122-0.427-0.271-0.688-0.447-0.155-0.104-0.294-0.195-0.309-0.203-0.019-0.010-0.030-0.024-0.037-0.048-0.008-0.026-0.010-0.385-0.010-1.433v-1.399h0.253l0.137 0.090c0.075 0.049 0.198 0.12 0.272 0.158 0.191 0.096 0.287 0.152 0.298 0.177 0.007 0.014 0.010 0.302 0.010 0.952v0.931l0.037 0.025c0.021 0.014 0.059 0.036 0.086 0.049s0.078 0.047 0.115 0.076c0.036 0.028 0.086 0.062 0.11 0.075 0.070 0.037 0.18 0.11 0.242 0.161 0.031 0.026 0.069 0.051 0.084 0.056 0.030 0.010 0.434 0.258 0.634 0.388l0.132 0.086 0.002-0.711c0.002-0.669 0.001-0.712-0.013-0.723-0.009-0.006-0.063-0.036-0.121-0.065s-0.163-0.091-0.233-0.138c-0.161-0.106-0.225-0.144-0.267-0.157l-0.033-0.011 0.005-2.076 0.023-0.044c0.026-0.048 0.052-0.075 0.113-0.115l0.040-0.026 0.819 0.456 0.005 1.248 0.026 0.018c0.014 0.010 0.069 0.039 0.121 0.065s0.145 0.079 0.205 0.12c0.060 0.040 0.157 0.103 0.213 0.138l0.104 0.065 0.004 2.032 0.138-0.076c0.076-0.042 0.169-0.099 0.206-0.126s0.147-0.089 0.242-0.136c0.096-0.048 0.186-0.097 0.201-0.109l0.027-0.023 0-0.202c0-0.111 0.006-0.337 0.013-0.502 0.009-0.216 0.013-0.569 0.013-1.25l0-0.95 0.037-0.035c0.052-0.049 0.281-0.187 0.328-0.199 0.015-0.003 0.032-0.011 0.040-0.017s0.041-0.026 0.075-0.044c0.034-0.018 0.11-0.064 0.168-0.102 0.093-0.060 0.207-0.112 0.246-0.112 0.005 0 0.026 0.030 0.045 0.067l0.035 0.067 0.009 1.232 0.292-0.172c0.161-0.094 0.336-0.196 0.39-0.226 0.109-0.061 0.124-0.063 0.249-0.044l0.068 0.010v0.994l-0.020 0.012c-0.079 0.050-0.152 0.091-0.283 0.159-0.173 0.091-0.266 0.149-0.353 0.219-0.067 0.055-0.098 0.072-0.187 0.105-0.033 0.012-0.083 0.037-0.111 0.055l-0.050 0.032-0.003 0.688c-0.002 0.541-0.005 0.694-0.014 0.714-0.012 0.028-0.11 0.107-0.182 0.148-0.024 0.014-0.059 0.036-0.078 0.051s-0.081 0.053-0.139 0.086c-0.058 0.033-0.178 0.107-0.267 0.164s-0.167 0.104-0.173 0.104c-0.006 0-0.036 0.015-0.065 0.034s-0.101 0.060-0.159 0.093c-0.058 0.032-0.177 0.105-0.264 0.16-0.236 0.151-0.405 0.253-0.42 0.253-0.007 0-0.024 0.011-0.037 0.024l-0.024 0.024 0 1.628 0.103 0.066c0.154 0.099 0.51 0.297 0.716 0.4 0.041 0.020 0.091 0.048 0.112 0.062s0.041 0.025 0.047 0.025c0.006 0 0.027-0.011 0.047-0.025s0.080-0.047 0.134-0.075c0.185-0.097 0.721-0.408 0.987-0.573l0.088-0.055 0.005-0.666-0.289 0.144c-0.159 0.079-0.306 0.154-0.328 0.166-0.034 0.019-0.19 0.065-0.22 0.065-0.007 0-0.009-0.16-0.009-0.531v-0.531l0.033-0.011c0.018-0.006 0.073-0.035 0.121-0.065s0.176-0.1 0.284-0.156c0.219-0.113 0.38-0.205 0.421-0.24 0.037-0.032 0.235-0.144 0.458-0.259 0.102-0.053 0.206-0.109 0.232-0.124 0.028-0.017 0.070-0.033 0.105-0.040 0.032-0.006 0.066-0.014 0.074-0.017 0.013-0.005 0.022 0.008 0.053 0.071l0.038 0.077 0.006 0.549c0.003 0.302 0.010 0.594 0.015 0.649s0.009 0.156 0.009 0.224c0 0.068 0.003 0.124 0.005 0.124s0.072-0.039 0.155-0.087c0.083-0.048 0.154-0.087 0.158-0.087s0.043-0.025 0.085-0.056c0.042-0.031 0.127-0.082 0.188-0.113s0.138-0.077 0.172-0.101c0.034-0.025 0.066-0.047 0.072-0.049 0.009-0.003 0.011-0.234 0.011-1.113v-1.109l0.068-0.043c0.099-0.062 0.246-0.147 0.372-0.216 0.061-0.033 0.184-0.099 0.273-0.148s0.246-0.131 0.348-0.183c0.199-0.101 0.331-0.173 0.485-0.265 0.118-0.070 0.136-0.077 0.244-0.096 0.099-0.017 0.088-0.025 0.103 0.077 0.007 0.043 0.009 0.214 0.007 0.509l-0.003 0.444-0.921 0.48v0.346c0 0.253 0.003 0.352 0.011 0.37 0.007 0.015 0.013 0.088 0.016 0.187l0.005 0.163 0.365-0.187c0.201-0.103 0.384-0.193 0.405-0.201s0.052-0.025 0.068-0.040l0.028-0.027 0.064 0.024c0.111 0.042 0.367 0.181 0.596 0.325 0.050 0.032 0.104 0.063 0.119 0.071s0.036 0.030 0.047 0.051c0.011 0.021 0.035 0.056 0.054 0.078s0.037 0.046 0.041 0.052c0.004 0.007-0.019 0.023-0.071 0.049-0.043 0.021-0.099 0.057-0.126 0.079s-0.092 0.062-0.145 0.089-0.135 0.073-0.181 0.101c-0.254 0.159-0.374 0.231-0.529 0.316-0.095 0.052-0.177 0.099-0.184 0.105-0.010 0.009 0.010 0.024 0.109 0.082 0.067 0.039 0.161 0.090 0.21 0.113s0.156 0.080 0.238 0.126 0.171 0.092 0.197 0.102l0.048 0.018 0.027-0.026c0.015-0.014 0.217-0.128 0.449-0.253 0.267-0.144 0.45-0.248 0.498-0.284 0.083-0.062 0.169-0.109 0.242-0.134l0.047-0.016 0.132 0.068c0.412 0.211 0.58 0.311 0.669 0.396l0.073 0.070-0.048 0.062c-0.044 0.057-0.148 0.143-0.174 0.143-0.005 0-0.050 0.025-0.099 0.055s-0.149 0.088-0.221 0.128c-0.073 0.040-0.188 0.107-0.256 0.148s-0.215 0.128-0.326 0.191c-0.112 0.063-0.236 0.137-0.278 0.163-0.108 0.068-0.408 0.239-0.509 0.289-0.198 0.098-0.232 0.104-0.336 0.058-0.036-0.016-0.435-0.226-0.885-0.466s-0.823-0.437-0.829-0.437-0.113 0.056-0.238 0.125c-0.126 0.069-0.446 0.244-0.713 0.39-0.395 0.216-0.663 0.373-0.712 0.417-0.004 0.004 0.046 0.035 0.11 0.070s0.138 0.077 0.164 0.093c0.052 0.033 0.155 0.085 0.186 0.094 0.011 0.004 0.035 0.016 0.052 0.027s0.038 0.021 0.046 0.021c0.008 0 0.034 0.012 0.058 0.027 0.043 0.027 0.044 0.027 0.070 0.012 0.015-0.009 0.069-0.038 0.121-0.066s0.111-0.061 0.132-0.075c0.021-0.014 0.158-0.093 0.305-0.176l0.267-0.15 0.302 0.156c0.166 0.086 0.397 0.204 0.513 0.262 0.311 0.155 0.472 0.243 0.586 0.319 0.056 0.037 0.104 0.070 0.108 0.073s-0.023 0.028-0.059 0.056c-0.038 0.030-0.066 0.058-0.066 0.067 0 0.034-0.103 0.1-0.259 0.164-0.023 0.010-0.044 0.025-0.047 0.033s-0.025 0.026-0.050 0.039c-0.025 0.013-0.086 0.048-0.135 0.079-0.158 0.098-0.215 0.119-0.309 0.119-0.076 0-0.105-0.010-0.183-0.061-0.080-0.053-0.244-0.139-0.265-0.139-0.009-0-0.038-0.011-0.064-0.025l-0.047-0.024-0.848 0.483-0.022-0.015c-0.012-0.008-0.058-0.034-0.101-0.057s-0.174-0.093-0.291-0.157c-0.116-0.063-0.283-0.152-0.37-0.196s-0.208-0.107-0.269-0.14c-0.061-0.032-0.199-0.104-0.307-0.16s-0.229-0.121-0.267-0.146l-0.070-0.044-0.032 0.018c-0.018 0.010-0.128 0.073-0.244 0.139l-0.211 0.121-0.005 1.116 0.038 0.025c0.021 0.014 0.234 0.133 0.474 0.265 0.446 0.245 0.726 0.404 0.91 0.517 0.126 0.077 0.159 0.089 0.211 0.074 0.021-0.006 0.113-0.053 0.205-0.105 0.273-0.153 0.391-0.214 0.683-0.356 0.153-0.074 0.431-0.218 0.619-0.321s0.347-0.188 0.354-0.191 0.059 0.024 0.117 0.060c0.057 0.035 0.164 0.097 0.236 0.137s0.259 0.144 0.414 0.231c0.155 0.087 0.336 0.187 0.401 0.222 0.117 0.063 0.176 0.11 0.176 0.141 0 0.009 0.018 0.044 0.039 0.079l0.039 0.063-0.103 0.055c-0.057 0.030-0.139 0.072-0.183 0.093s-0.096 0.048-0.115 0.060c-0.019 0.012-0.070 0.037-0.113 0.056s-0.135 0.065-0.203 0.101c-0.068 0.037-0.142 0.073-0.165 0.081l-0.043 0.014-0.143-0.082c-0.159-0.092-0.203-0.115-0.235-0.122-0.012-0.003-0.048-0.021-0.079-0.040l-0.057-0.034-0.027 0.017c-0.015 0.009-0.131 0.068-0.258 0.129s-0.258 0.13-0.291 0.151c-0.033 0.021-0.112 0.065-0.176 0.096s-0.117 0.061-0.117 0.064c0 0.011 0.229 0.155 0.304 0.192 0.171 0.084 0.85 0.458 0.972 0.535l0.055 0.035 0.033-0.022c0.053-0.034 0.105-0.059 0.212-0.099 0.068-0.026 0.225-0.106 0.496-0.253 0.218-0.119 0.411-0.225 0.429-0.236 0.060-0.036 0.094-0.048 0.142-0.053 0.038-0.003 0.049-0.001 0.055 0.010 0.004 0.008 0.016 0.014 0.026 0.014s0.060 0.027 0.112 0.060c0.144 0.091 0.264 0.161 0.403 0.234 0.12 0.063 0.131 0.072 0.228 0.167l0.102 0.101-0.136 0.085c-0.075 0.047-0.148 0.089-0.161 0.093s-0.041 0.017-0.060 0.028c-0.019 0.012-0.066 0.036-0.105 0.054s-0.088 0.044-0.11 0.057c-0.022 0.014-0.076 0.040-0.121 0.058s-0.083 0.039-0.085 0.047c-0.002 0.007-0.023 0.020-0.047 0.028s-0.067 0.029-0.096 0.047c-0.029 0.018-0.105 0.061-0.17 0.097s-0.116 0.066-0.115 0.067c0.001 0.001 0.157 0.090 0.346 0.196s0.372 0.214 0.406 0.24c0.056 0.041 0.067 0.055 0.103 0.124l0.041 0.078-0.041 0.040c-0.075 0.072-0.655 0.406-0.773 0.445l-0.062 0.020-0.256-0.143c-0.14-0.079-0.293-0.159-0.34-0.178-0.060-0.024-0.104-0.050-0.149-0.087-0.035-0.029-0.089-0.063-0.12-0.077-0.046-0.021-0.191-0.099-0.38-0.206l-0.037-0.021 0 1.198 1.075 0.607 0.026 0.051c0.024 0.046 0.026 0.059 0.027 0.136 0 0.047 0.006 0.179 0.013 0.294s0.013 0.259 0.013 0.319c0 0.102-0.002 0.115-0.025 0.174-0.014 0.035-0.031 0.081-0.037 0.101-0.007 0.022-0.016 0.036-0.022 0.035s-0.469-0.257-1.029-0.569l-1.018-0.566-0.001-0.401c-0-0.22-0.005-0.456-0.010-0.523s-0.012-0.42-0.015-0.784l-0.006-0.662-0.035-0.023c-0.019-0.013-0.113-0.063-0.207-0.113-0.334-0.174-0.581-0.316-0.901-0.52-0.168-0.107-0.408-0.236-0.418-0.226-0.002 0.002 0.002 0.071 0.010 0.152 0.010 0.103 0.014 0.241 0.014 0.457 0 0.252 0.002 0.316 0.013 0.346 0.007 0.020 0.013 0.065 0.013 0.099l0 0.062 0.227 0.141c0.125 0.078 0.234 0.146 0.242 0.152 0.014 0.010 0.019 0.052 0.042 0.303 0.017 0.191 0.026 0.347 0.026 0.453 0 0.157-0.001 0.163-0.027 0.241l-0.027 0.080-0.074-0.025c-0.121-0.040-0.425-0.203-0.78-0.418-0.109-0.066-0.276-0.163-0.37-0.216s-0.186-0.108-0.204-0.123l-0.032-0.027-0.006-0.216c-0.006-0.213-0.024-0.512-0.041-0.69-0.005-0.050-0.009-0.272-0.009-0.492-0-0.276-0.004-0.449-0.013-0.557-0.007-0.086-0.013-0.193-0.013-0.236l-0-0.080-0.042-0.026c-0.023-0.014-0.066-0.039-0.095-0.055s-0.1-0.058-0.158-0.094c-0.058-0.036-0.139-0.081-0.181-0.1s-0.090-0.044-0.108-0.056l-0.033-0.021-0.126 0.078c-0.069 0.043-0.183 0.11-0.254 0.15-0.3 0.169-0.381 0.215-0.487 0.282l-0.112 0.071v2.138l0.037 0.025c0.021 0.014 0.099 0.055 0.174 0.090 0.343 0.163 0.66 0.346 0.905 0.524 0.091 0.066 0.276 0.176 0.495 0.294 0.104 0.056 0.211 0.124 0.37 0.235 0.024 0.017 0.050 0.041 0.056 0.054s0.019 0.032 0.026 0.043c0.012 0.017 0.014 0.149 0.014 1.274v1.254l-0.064 0.063c-0.085 0.085-0.087 0.085-0.273-0.009-0.284-0.144-0.43-0.228-0.617-0.356l-0.042-0.028-0-1.702-0.029-0.021c-0.047-0.035-0.321-0.188-0.412-0.23-0.046-0.021-0.105-0.053-0.132-0.071s-0.086-0.051-0.132-0.074-0.104-0.056-0.128-0.074c-0.040-0.030-0.234-0.14-0.246-0.14-0.003 0-0.005 0.367-0.005 0.817 0 1.037-0.021 2.071-0.043 2.096-0.026 0.029-0.17 0.119-0.266 0.164-0.051 0.024-0.118 0.060-0.15 0.079s-0.136 0.081-0.231 0.138c-0.096 0.057-0.202 0.124-0.235 0.149-0.085 0.064-0.223 0.137-0.259 0.137-0.016 0-0.062 0.006-0.103 0.013s-0.075 0.013-0.076 0.013c-0 0-0.007-0.039-0.015-0.087zM16.164 17.001c0.030-0.018 0.108-0.061 0.174-0.095s0.202-0.108 0.304-0.165c0.102-0.057 0.229-0.127 0.282-0.155s0.116-0.062 0.139-0.077l0.042-0.026v-1.126l-0.496-0.289c-0.273-0.159-0.499-0.289-0.503-0.289s-0.225 0.13-0.491 0.289l-0.484 0.289 0.005 1.131 0.122 0.073c0.067 0.040 0.198 0.113 0.291 0.161 0.224 0.117 0.382 0.204 0.473 0.262 0.041 0.026 0.078 0.048 0.082 0.049s0.032-0.014 0.062-0.033z"></path>
<path d="M15.242 24.708c-0.012-0.070-0.014-0.149-0.014-0.416 0-0.181 0.004-0.357 0.009-0.39s0.011-0.081 0.014-0.105c0.005-0.041 0.008-0.046 0.047-0.072 0.023-0.015 0.045-0.027 0.049-0.027s0.019-0.010 0.035-0.022c0.016-0.012 0.034-0.022 0.039-0.022 0.015 0 0.141-0.066 0.17-0.089l0.024-0.020-0.005-0.961-0.109 0.061c-0.174 0.096-0.705 0.423-0.823 0.506-0.059 0.042-0.12 0.079-0.136 0.081l-0.029 0.005v0.367c0 0.324-0.002 0.369-0.014 0.387-0.023 0.032-0.092 0.072-0.385 0.22-0.151 0.077-0.297 0.153-0.325 0.169-0.042 0.025-0.2 0.086-0.205 0.079-0.001-0.001-0.012-0.033-0.025-0.072-0.023-0.069-0.023-0.073-0.023-0.327-0-0.141-0.006-0.353-0.013-0.47-0.016-0.267-0.017-0.809-0.001-0.853 0.009-0.026 0.038-0.047 0.222-0.161 0.116-0.072 0.585-0.364 1.041-0.649l0.83-0.517v-1.906l-0.020 0.010c-0.011 0.006-0.075 0.042-0.143 0.081s-0.153 0.085-0.189 0.103c-0.036 0.018-0.101 0.058-0.145 0.090s-0.107 0.074-0.141 0.095c-0.034 0.020-0.092 0.057-0.128 0.082s-0.069 0.045-0.073 0.045c-0.004 0-0.026 0.012-0.047 0.027l-0.039 0.027v0.405c0 0.437-0.004 0.487-0.047 0.533-0.049 0.052-1.114 0.654-1.158 0.654-0.011 0-0.055-0.064-0.055-0.080 0-0.006-0.011-0.022-0.024-0.036l-0.024-0.025-0.005-0.864 0.055-0.055c0.044-0.044 0.061-0.055 0.082-0.055 0.018 0 0.051-0.016 0.099-0.048l0.073-0.048 0-0.919 0.068-0.043c0.038-0.024 0.203-0.126 0.368-0.227s0.434-0.268 0.599-0.371c0.483-0.302 0.817-0.502 0.857-0.513l0.037-0.011-0.001-0.489-0.481-0.274c-0.265-0.151-0.488-0.274-0.495-0.274s-0.085 0.044-0.172 0.097c-0.087 0.053-0.202 0.119-0.255 0.147s-0.206 0.112-0.339 0.187c-0.133 0.075-0.337 0.189-0.454 0.253s-0.323 0.182-0.46 0.262c-0.137 0.080-0.283 0.165-0.326 0.187s-0.1 0.055-0.127 0.072l-0.049 0.031-0.006 0.218c-0.006 0.223-0.014 0.351-0.036 0.606-0.022 0.244-0.032 0.436-0.040 0.762-0.010 0.388-0.016 0.439-0.065 0.519-0.029 0.047-0.045 0.064-0.080 0.083-0.024 0.013-0.139 0.077-0.256 0.143s-0.263 0.146-0.326 0.18c-0.303 0.161-0.522 0.287-0.68 0.388-0.068 0.043-0.228 0.115-0.275 0.123-0.010 0.001-0.016-0.022-0.029-0.098-0.031-0.192-0.034-0.242-0.034-0.589l-0-0.349 0.048-0.043c0.066-0.059 0.098-0.082 0.114-0.082 0.008 0 0.027-0.012 0.043-0.026s0.051-0.034 0.077-0.044c0.026-0.010 0.142-0.074 0.256-0.141 0.244-0.144 0.228-0.122 0.228-0.308 0-0.067 0.006-0.189 0.013-0.273s0.013-0.226 0.013-0.316l0-0.164-0.024 0.013c-0.013 0.007-0.383 0.218-0.822 0.469l-0.797 0.456-0.006 0.208c-0.003 0.114-0.009 0.223-0.013 0.24-0.007 0.031-0.016 0.037-0.192 0.143-0.313 0.187-0.552 0.321-0.622 0.349l-0.067 0.027-0.041-0.055c-0.023-0.031-0.041-0.064-0.041-0.077s-0.005-0.025-0.010-0.028c-0.008-0.005-0.008-0.157-0.004-0.599 0.004-0.326 0.009-0.638 0.012-0.692l0.006-0.099 0.4-0.224c0.22-0.123 0.432-0.237 0.471-0.253 0.061-0.024 0.304-0.17 0.304-0.183 0-0.002-0.064-0.037-0.143-0.076-0.088-0.044-0.175-0.096-0.227-0.134-0.046-0.034-0.113-0.076-0.15-0.094s-0.109-0.057-0.161-0.089c-0.052-0.032-0.105-0.061-0.118-0.064s-0.040-0.017-0.059-0.030l-0.036-0.025-0.128 0.072c-0.223 0.125-0.286 0.162-0.304 0.179-0.010 0.009-0.032 0.021-0.048 0.026s-0.045 0.021-0.064 0.036c-0.042 0.032-0.259 0.137-0.289 0.139-0.015 0.001-0.147-0.070-0.416-0.224l-0.394-0.226v-0.059c0-0.089 0.036-0.155 0.098-0.181 0.014-0.006 0.026-0.017 0.026-0.025 0-0.009 0.068-0.050 0.203-0.122 0.111-0.059 0.261-0.144 0.332-0.189s0.135-0.082 0.142-0.082c0.007 0 0.026-0.011 0.044-0.025 0.031-0.024 0.118-0.079 0.167-0.105 0.013-0.007 0.039-0.025 0.058-0.042s0.059-0.037 0.090-0.046c0.050-0.015 0.109-0.048 0.17-0.094 0.028-0.021 0.181-0.097 0.195-0.097 0.006 0 0.023-0.012 0.039-0.027l0.028-0.027 0.038 0.026c0.021 0.014 0.092 0.052 0.157 0.083s0.163 0.082 0.216 0.111c0.053 0.029 0.141 0.073 0.194 0.097 0.116 0.052 0.223 0.11 0.483 0.258 0.107 0.061 0.238 0.134 0.291 0.162s0.134 0.074 0.181 0.102c0.046 0.028 0.089 0.051 0.095 0.051s0.011 0.006 0.011 0.013c0 0.007 0.006 0.013 0.013 0.013s0.072 0.029 0.143 0.064l0.13 0.064 0.041-0.014c0.023-0.008 0.052-0.024 0.066-0.037 0.038-0.035 0.145-0.103 0.267-0.17 0.186-0.102 0.37-0.207 0.37-0.212 0-0.007-0.257-0.154-0.277-0.159-0.010-0.002-0.105-0.059-0.211-0.126-0.4-0.252-0.762-0.464-0.932-0.548-0.203-0.1-0.4-0.208-0.435-0.238-0.020-0.017-0.088-0.062-0.152-0.101s-0.115-0.072-0.113-0.076c0.002-0.005 0.67-0.391 0.921-0.531l0.046-0.026 0.104 0.065c0.174 0.108 0.536 0.322 0.698 0.412 0.084 0.047 0.197 0.115 0.251 0.152 0.141 0.097 0.288 0.186 0.496 0.302 0.212 0.117 0.334 0.189 0.421 0.248 0.034 0.023 0.079 0.048 0.1 0.055l0.038 0.013 0.091-0.052c0.050-0.029 0.099-0.052 0.108-0.052s0.052-0.021 0.095-0.046c0.143-0.085 0.2-0.116 0.378-0.208 0.097-0.050 0.229-0.122 0.292-0.16s0.156-0.090 0.206-0.116c0.049-0.026 0.115-0.066 0.146-0.090s0.072-0.048 0.089-0.054l0.033-0.011v-1.121l-0.201-0.124c-0.111-0.068-0.204-0.124-0.208-0.124s-0.087 0.045-0.184 0.1c-0.097 0.055-0.183 0.1-0.19 0.1s-0.122 0.057-0.255 0.126c-0.133 0.069-0.247 0.126-0.255 0.126-0.028 0-0.146 0.061-0.244 0.126-0.104 0.070-0.212 0.126-0.24 0.126-0.009 0-0.029 0.006-0.044 0.014s-0.069 0.031-0.119 0.052l-0.091 0.037-0.451-0.263c-0.428-0.25-0.69-0.399-0.768-0.439-0.031-0.016-0.040-0.027-0.074-0.102l-0.039-0.084 0.039-0.039c0.047-0.048 0.075-0.064 0.413-0.243 0.148-0.078 0.3-0.16 0.339-0.182s0.075-0.040 0.082-0.040c0.020 0 0.094 0.041 0.134 0.074 0.041 0.034 0.153 0.101 0.241 0.145 0.030 0.015 0.071 0.038 0.092 0.052s0.041 0.025 0.047 0.025c0.006 0 0.027-0.011 0.047-0.025 0.048-0.032 0.112-0.064 0.196-0.097 0.086-0.034 0.296-0.149 0.288-0.157-0.004-0.003-0.333-0.199-0.732-0.434l-0.726-0.428-0.049 0.013c-0.027 0.007-0.063 0.023-0.081 0.036-0.095 0.069-0.248 0.164-0.336 0.208-0.055 0.028-0.226 0.131-0.378 0.229-0.247 0.159-0.433 0.271-0.633 0.38-0.036 0.019-0.124 0.074-0.196 0.12s-0.138 0.085-0.146 0.085c-0.008 0-0.047 0.021-0.086 0.047s-0.084 0.054-0.099 0.062l-0.028 0.016-0.224-0.135c-0.123-0.074-0.245-0.146-0.271-0.159s-0.108-0.062-0.181-0.108c-0.182-0.116-0.254-0.158-0.459-0.267-0.097-0.052-0.275-0.152-0.396-0.224s-0.234-0.137-0.252-0.145c-0.033-0.014-0.193-0.124-0.193-0.132 0-0.004 0.925-0.55 0.942-0.556 0.004-0.001 0.066 0.032 0.138 0.075s0.214 0.122 0.316 0.176c0.102 0.054 0.205 0.113 0.229 0.131s0.113 0.070 0.197 0.116l0.153 0.084 0.047-0.032c0.026-0.018 0.068-0.049 0.094-0.069s0.141-0.093 0.255-0.163c0.168-0.102 0.49-0.323 0.565-0.387 0.014-0.012 0.003-0.021-0.137-0.106-0.158-0.097-0.394-0.227-0.703-0.388-0.099-0.052-0.185-0.098-0.191-0.102-0.008-0.006-0.012-0.087-0.015-0.288-0.012-0.716-0.015-1.055-0.007-1.072 0.033-0.072 0.087-0.181 0.091-0.184 0.006-0.004 0.573 0.312 0.606 0.337 0.012 0.009 0.026 0.016 0.032 0.016s0.016 0.006 0.021 0.013c0.006 0.007 0.038 0.023 0.072 0.036 0.041 0.016 0.078 0.039 0.114 0.071l0.053 0.047v0.22c0 0.168 0.003 0.221 0.011 0.225 0.006 0.002 0.039 0.025 0.073 0.050 0.075 0.055 0.125 0.084 0.361 0.209 0.102 0.054 0.202 0.11 0.224 0.124s0.094 0.053 0.161 0.086l0.122 0.061-0.005-0.172c-0.003-0.095-0.008-0.309-0.012-0.477-0.004-0.176-0.011-0.31-0.016-0.318s-0.011-0.114-0.013-0.248l-0.004-0.235-0.905-0.538 0.004-0.397c0.003-0.307 0.007-0.41 0.018-0.454 0.007-0.031 0.018-0.097 0.024-0.146s0.012-0.089 0.013-0.089c0.001 0 0.416 0.239 0.922 0.53l0.92 0.53 0.006 0.038c0.004 0.021 0.029 0.608 0.056 1.305s0.052 1.272 0.055 1.278c0.003 0.006 0.198 0.122 0.433 0.259l0.427 0.248 0.005-1.087 0.046-0.010c0.025-0.006 0.071-0.012 0.101-0.015 0.049-0.004 0.059-0.002 0.088 0.017 0.018 0.012 0.061 0.037 0.095 0.055s0.119 0.065 0.189 0.104c0.070 0.039 0.154 0.082 0.185 0.096s0.105 0.054 0.164 0.090l0.107 0.065 0.006 0.14c0.017 0.419 0.023 0.609 0.023 0.846l0 0.262 0.328 0.187c0.18 0.103 0.335 0.187 0.343 0.187s0.232-0.123 0.496-0.274l0.48-0.274-0.001-1.707-0.169-0.118c-0.418-0.291-1.054-0.697-1.093-0.697-0.017 0-0.055-0.018-0.106-0.050-0.196-0.122-0.427-0.271-0.688-0.447-0.155-0.104-0.294-0.195-0.309-0.203-0.019-0.010-0.030-0.024-0.037-0.048-0.008-0.026-0.010-0.385-0.010-1.433v-1.399h0.253l0.137 0.090c0.075 0.049 0.198 0.12 0.272 0.158 0.191 0.096 0.287 0.152 0.298 0.177 0.007 0.014 0.010 0.302 0.010 0.952v0.931l0.037 0.025c0.021 0.014 0.059 0.036 0.086 0.049s0.078 0.047 0.115 0.076c0.036 0.028 0.086 0.062 0.11 0.075 0.070 0.037 0.18 0.11 0.242 0.161 0.031 0.026 0.069 0.051 0.084 0.056 0.030 0.010 0.434 0.258 0.634 0.388l0.132 0.086 0.002-0.711c0.002-0.669 0.001-0.712-0.013-0.723-0.009-0.006-0.063-0.036-0.121-0.065s-0.163-0.091-0.233-0.138c-0.161-0.106-0.225-0.144-0.267-0.157l-0.033-0.011 0.005-2.076 0.023-0.044c0.026-0.048 0.052-0.075 0.113-0.115l0.040-0.026 0.819 0.456 0.005 1.248 0.026 0.018c0.014 0.010 0.069 0.039 0.121 0.065s0.145 0.079 0.205 0.12c0.060 0.040 0.157 0.103 0.213 0.138l0.104 0.065 0.004 2.032 0.138-0.076c0.076-0.042 0.169-0.099 0.206-0.126s0.147-0.089 0.242-0.136c0.096-0.048 0.186-0.097 0.201-0.109l0.027-0.023 0-0.202c0-0.111 0.006-0.337 0.013-0.502 0.009-0.216 0.013-0.569 0.013-1.25l0-0.95 0.037-0.035c0.052-0.049 0.281-0.187 0.328-0.199 0.015-0.003 0.032-0.011 0.040-0.017s0.041-0.026 0.075-0.044c0.034-0.018 0.11-0.064 0.168-0.102 0.093-0.060 0.207-0.112 0.246-0.112 0.005 0 0.026 0.030 0.045 0.067l0.035 0.067 0.009 1.232 0.292-0.172c0.161-0.094 0.336-0.196 0.39-0.226 0.109-0.061 0.124-0.063 0.249-0.044l0.068 0.010v0.994l-0.020 0.012c-0.079 0.050-0.152 0.091-0.283 0.159-0.173 0.091-0.266 0.149-0.353 0.219-0.067 0.055-0.098 0.072-0.187 0.105-0.033 0.012-0.083 0.037-0.111 0.055l-0.050 0.032-0.003 0.688c-0.002 0.541-0.005 0.694-0.014 0.714-0.012 0.028-0.11 0.107-0.182 0.148-0.024 0.014-0.059 0.036-0.078 0.051s-0.081 0.053-0.139 0.086c-0.058 0.033-0.178 0.107-0.267 0.164s-0.167 0.104-0.173 0.104c-0.006 0-0.036 0.015-0.065 0.034s-0.101 0.060-0.159 0.093c-0.058 0.032-0.177 0.105-0.264 0.16-0.236 0.151-0.405 0.253-0.42 0.253-0.007 0-0.024 0.011-0.037 0.024l-0.024 0.024 0 1.628 0.103 0.066c0.154 0.099 0.51 0.297 0.716 0.4 0.041 0.020 0.091 0.048 0.112 0.062s0.041 0.025 0.047 0.025c0.006 0 0.027-0.011 0.047-0.025s0.080-0.047 0.134-0.075c0.185-0.097 0.721-0.408 0.987-0.573l0.088-0.055 0.005-0.666-0.289 0.144c-0.159 0.079-0.306 0.154-0.328 0.166-0.034 0.019-0.19 0.065-0.22 0.065-0.007 0-0.009-0.16-0.009-0.531v-0.531l0.033-0.011c0.018-0.006 0.073-0.035 0.121-0.065s0.176-0.1 0.284-0.156c0.219-0.113 0.38-0.205 0.421-0.24 0.037-0.032 0.235-0.144 0.458-0.259 0.102-0.053 0.206-0.109 0.232-0.124 0.028-0.017 0.070-0.033 0.105-0.040 0.032-0.006 0.066-0.014 0.074-0.017 0.013-0.005 0.022 0.008 0.053 0.071l0.038 0.077 0.006 0.549c0.003 0.302 0.010 0.594 0.015 0.649s0.009 0.156 0.009 0.224c0 0.068 0.003 0.124 0.005 0.124s0.072-0.039 0.155-0.087c0.083-0.048 0.154-0.087 0.158-0.087s0.043-0.025 0.085-0.056c0.042-0.031 0.127-0.082 0.188-0.113s0.138-0.077 0.172-0.101c0.034-0.025 0.066-0.047 0.072-0.049 0.009-0.003 0.011-0.234 0.011-1.113v-1.109l0.068-0.043c0.099-0.062 0.246-0.147 0.372-0.216 0.061-0.033 0.184-0.099 0.273-0.148s0.246-0.131 0.348-0.183c0.199-0.101 0.331-0.173 0.485-0.265 0.118-0.070 0.136-0.077 0.244-0.096 0.099-0.017 0.088-0.025 0.103 0.077 0.007 0.043 0.009 0.214 0.007 0.509l-0.003 0.444-0.921 0.48v0.346c0 0.253 0.003 0.352 0.011 0.37 0.007 0.015 0.013 0.088 0.016 0.187l0.005 0.163 0.365-0.187c0.201-0.103 0.384-0.193 0.405-0.201s0.052-0.025 0.068-0.040l0.028-0.027 0.064 0.024c0.111 0.042 0.367 0.181 0.596 0.325 0.050 0.032 0.104 0.063 0.119 0.071s0.036 0.030 0.047 0.051c0.011 0.021 0.035 0.056 0.054 0.078s0.037 0.046 0.041 0.052c0.004 0.007-0.019 0.023-0.071 0.049-0.043 0.021-0.099 0.057-0.126 0.079s-0.092 0.062-0.145 0.089-0.135 0.073-0.181 0.101c-0.254 0.159-0.374 0.231-0.529 0.316-0.095 0.052-0.177 0.099-0.184 0.105-0.010 0.009 0.010 0.024 0.109 0.082 0.067 0.039 0.161 0.090 0.21 0.113s0.156 0.080 0.238 0.126 0.171 0.092 0.197 0.102l0.048 0.018 0.027-0.026c0.015-0.014 0.217-0.128 0.449-0.253 0.267-0.144 0.45-0.248 0.498-0.284 0.083-0.062 0.169-0.109 0.242-0.134l0.047-0.016 0.132 0.068c0.412 0.211 0.58 0.311 0.669 0.396l0.073 0.070-0.048 0.062c-0.044 0.057-0.148 0.143-0.174 0.143-0.005 0-0.050 0.025-0.099 0.055s-0.149 0.088-0.221 0.128c-0.073 0.040-0.188 0.107-0.256 0.148s-0.215 0.128-0.326 0.191c-0.112 0.063-0.236 0.137-0.278 0.163-0.108 0.068-0.408 0.239-0.509 0.289-0.198 0.098-0.232 0.104-0.336 0.058-0.036-0.016-0.435-0.226-0.885-0.466s-0.823-0.437-0.829-0.437-0.113 0.056-0.238 0.125c-0.126 0.069-0.446 0.244-0.713 0.39-0.395 0.216-0.663 0.373-0.712 0.417-0.004 0.004 0.046 0.035 0.11 0.070s0.138 0.077 0.164 0.093c0.052 0.033 0.155 0.085 0.186 0.094 0.011 0.004 0.035 0.016 0.052 0.027s0.038 0.021 0.046 0.021c0.008 0 0.034 0.012 0.058 0.027 0.043 0.027 0.044 0.027 0.070 0.012 0.015-0.009 0.069-0.038 0.121-0.066s0.111-0.061 0.132-0.075c0.021-0.014 0.158-0.093 0.305-0.176l0.267-0.15 0.302 0.156c0.166 0.086 0.397 0.204 0.513 0.262 0.311 0.155 0.472 0.243 0.586 0.319 0.056 0.037 0.104 0.070 0.108 0.073s-0.023 0.028-0.059 0.056c-0.038 0.030-0.066 0.058-0.066 0.067 0 0.034-0.103 0.1-0.259 0.164-0.023 0.010-0.044 0.025-0.047 0.033s-0.025 0.026-0.050 0.039c-0.025 0.013-0.086 0.048-0.135 0.079-0.158 0.098-0.215 0.119-0.309 0.119-0.076 0-0.105-0.010-0.183-0.061-0.080-0.053-0.244-0.139-0.265-0.139-0.009-0-0.038-0.011-0.064-0.025l-0.047-0.024-0.848 0.483-0.022-0.015c-0.012-0.008-0.058-0.034-0.101-0.057s-0.174-0.093-0.291-0.157c-0.116-0.063-0.283-0.152-0.37-0.196s-0.208-0.107-0.269-0.14c-0.061-0.032-0.199-0.104-0.307-0.16s-0.229-0.121-0.267-0.146l-0.070-0.044-0.032 0.018c-0.018 0.010-0.128 0.073-0.244 0.139l-0.211 0.121-0.005 1.116 0.038 0.025c0.021 0.014 0.234 0.133 0.474 0.265 0.446 0.245 0.726 0.404 0.91 0.517 0.126 0.077 0.159 0.089 0.211 0.074 0.021-0.006 0.113-0.053 0.205-0.105 0.273-0.153 0.391-0.214 0.683-0.356 0.153-0.074 0.431-0.218 0.619-0.321s0.347-0.188 0.354-0.191 0.059 0.024 0.117 0.060c0.057 0.035 0.164 0.097 0.236 0.137s0.259 0.144 0.414 0.231c0.155 0.087 0.336 0.187 0.401 0.222 0.117 0.063 0.176 0.11 0.176 0.141 0 0.009 0.018 0.044 0.039 0.079l0.039 0.063-0.103 0.055c-0.057 0.030-0.139 0.072-0.183 0.093s-0.096 0.048-0.115 0.060c-0.019 0.012-0.070 0.037-0.113 0.056s-0.135 0.065-0.203 0.101c-0.068 0.037-0.142 0.073-0.165 0.081l-0.043 0.014-0.143-0.082c-0.159-0.092-0.203-0.115-0.235-0.122-0.012-0.003-0.048-0.021-0.079-0.040l-0.057-0.034-0.027 0.017c-0.015 0.009-0.131 0.068-0.258 0.129s-0.258 0.13-0.291 0.151c-0.033 0.021-0.112 0.065-0.176 0.096s-0.117 0.061-0.117 0.064c0 0.011 0.229 0.155 0.304 0.192 0.171 0.084 0.85 0.458 0.972 0.535l0.055 0.035 0.033-0.022c0.053-0.034 0.105-0.059 0.212-0.099 0.068-0.026 0.225-0.106 0.496-0.253 0.218-0.119 0.411-0.225 0.429-0.236 0.060-0.036 0.094-0.048 0.142-0.053 0.038-0.003 0.049-0.001 0.055 0.010 0.004 0.008 0.016 0.014 0.026 0.014s0.060 0.027 0.112 0.060c0.144 0.091 0.264 0.161 0.403 0.234 0.12 0.063 0.131 0.072 0.228 0.167l0.102 0.101-0.136 0.085c-0.075 0.047-0.148 0.089-0.161 0.093s-0.041 0.017-0.060 0.028c-0.019 0.012-0.066 0.036-0.105 0.054s-0.088 0.044-0.11 0.057c-0.022 0.014-0.076 0.040-0.121 0.058s-0.083 0.039-0.085 0.047c-0.002 0.007-0.023 0.020-0.047 0.028s-0.067 0.029-0.096 0.047c-0.029 0.018-0.105 0.061-0.17 0.097s-0.116 0.066-0.115 0.067c0.001 0.001 0.157 0.090 0.346 0.196s0.372 0.214 0.406 0.24c0.056 0.041 0.067 0.055 0.103 0.124l0.041 0.078-0.041 0.040c-0.075 0.072-0.655 0.406-0.773 0.445l-0.062 0.020-0.256-0.143c-0.14-0.079-0.293-0.159-0.34-0.178-0.060-0.024-0.104-0.050-0.149-0.087-0.035-0.029-0.089-0.063-0.12-0.077-0.046-0.021-0.191-0.099-0.38-0.206l-0.037-0.021 0 1.198 1.075 0.607 0.026 0.051c0.024 0.046 0.026 0.059 0.027 0.136 0 0.047 0.006 0.179 0.013 0.294s0.013 0.259 0.013 0.319c0 0.102-0.002 0.115-0.025 0.174-0.014 0.035-0.031 0.081-0.037 0.101-0.007 0.022-0.016 0.036-0.022 0.035s-0.469-0.257-1.029-0.569l-1.018-0.566-0.001-0.401c-0-0.22-0.005-0.456-0.010-0.523s-0.012-0.42-0.015-0.784l-0.006-0.662-0.035-0.023c-0.019-0.013-0.113-0.063-0.207-0.113-0.334-0.174-0.581-0.316-0.901-0.52-0.168-0.107-0.408-0.236-0.418-0.226-0.002 0.002 0.002 0.071 0.010 0.152 0.010 0.103 0.014 0.241 0.014 0.457 0 0.252 0.002 0.316 0.013 0.346 0.007 0.020 0.013 0.065 0.013 0.099l0 0.062 0.227 0.141c0.125 0.078 0.234 0.146 0.242 0.152 0.014 0.010 0.019 0.052 0.042 0.303 0.017 0.191 0.026 0.347 0.026 0.453 0 0.157-0.001 0.163-0.027 0.241l-0.027 0.080-0.074-0.025c-0.121-0.040-0.425-0.203-0.78-0.418-0.109-0.066-0.276-0.163-0.37-0.216s-0.186-0.108-0.204-0.123l-0.032-0.027-0.006-0.216c-0.006-0.213-0.024-0.512-0.041-0.69-0.005-0.050-0.009-0.272-0.009-0.492-0-0.276-0.004-0.449-0.013-0.557-0.007-0.086-0.013-0.193-0.013-0.236l-0-0.080-0.042-0.026c-0.023-0.014-0.066-0.039-0.095-0.055s-0.1-0.058-0.158-0.094c-0.058-0.036-0.139-0.081-0.181-0.1s-0.090-0.044-0.108-0.056l-0.033-0.021-0.126 0.078c-0.069 0.043-0.183 0.11-0.254 0.15-0.3 0.169-0.381 0.215-0.487 0.282l-0.112 0.071v2.138l0.037 0.025c0.021 0.014 0.099 0.055 0.174 0.090 0.343 0.163 0.66 0.346 0.905 0.524 0.091 0.066 0.276 0.176 0.495 0.294 0.104 0.056 0.211 0.124 0.37 0.235 0.024 0.017 0.050 0.041 0.056 0.054s0.019 0.032 0.026 0.043c0.012 0.017 0.014 0.149 0.014 1.274v1.254l-0.064 0.063c-0.085 0.085-0.087 0.085-0.273-0.009-0.284-0.144-0.43-0.228-0.617-0.356l-0.042-0.028-0-1.702-0.029-0.021c-0.047-0.035-0.321-0.188-0.412-0.23-0.046-0.021-0.105-0.053-0.132-0.071s-0.086-0.051-0.132-0.074-0.104-0.056-0.128-0.074c-0.040-0.030-0.234-0.14-0.246-0.14-0.003 0-0.005 0.367-0.005 0.817 0 1.037-0.021 2.071-0.043 2.096-0.026 0.029-0.17 0.119-0.266 0.164-0.051 0.024-0.118 0.060-0.15 0.079s-0.136 0.081-0.231 0.138c-0.096 0.057-0.202 0.124-0.235 0.149-0.085 0.064-0.223 0.137-0.259 0.137-0.016 0-0.062 0.006-0.103 0.013s-0.075 0.013-0.076 0.013c-0 0-0.007-0.039-0.015-0.087zM16.164 17.001c0.030-0.018 0.108-0.061 0.174-0.095s0.202-0.108 0.304-0.165c0.102-0.057 0.229-0.127 0.282-0.155s0.116-0.062 0.139-0.077l0.042-0.026v-1.126l-0.496-0.289c-0.273-0.159-0.499-0.289-0.503-0.289s-0.225 0.13-0.491 0.289l-0.484 0.289 0.005 1.131 0.122 0.073c0.067 0.040 0.198 0.113 0.291 0.161 0.224 0.117 0.382 0.204 0.473 0.262 0.041 0.026 0.078 0.048 0.082 0.049s0.032-0.014 0.062-0.033z"></path>
</svg>
