<!-- Generated by IcoMoon.io -->
<svg version="1.1" xmlns="http://www.w3.org/2000/svg" width="32" height="32" viewBox="0 0 32 32">
<title>token_elder_thing_highlight</title>
<path d="M20.362 5.523c-0.010 0.001-0.022 0.006-0.037 0.016-0.030 0-0.050-0-0.060 0.010s-0.030 0.010-0.060 0.010c-0.080 0.010-0.15 0.020-0.229 0.020h-0.090l-0.050 0.020h-0.070c0 0.010-0.020 0.020-0.050 0.020-0.050 0.030-0.090 0.060-0.139 0.090s-0.1 0.059-0.16 0.089h-0.020l-0.050 0.050c-0.030 0.030-0.050 0.050-0.070 0.060s-0.040 0.030-0.070 0.060l-0.050 0.049c-0.020 0.030-0.030 0.060-0.050 0.090s-0.030 0.059-0.050 0.089c-0.010 0.030-0.020 0.059-0.020 0.079s-0 0.050-0.020 0.079v0.357c0.010 0.010 0.020 0.020 0.020 0.030 0 0-0 0.010 0.020 0.030 0.060 0.089 0.11 0.169 0.16 0.248 0.020 0.030 0.030 0.050 0.050 0.069s0.030 0.040 0.050 0.069c0.040 0.040 0.070 0.079 0.090 0.109v0.050c0 0.050-0.020 0.099-0.050 0.159 0 0.030 0 0.050-0.010 0.069s-0.010 0.040-0.010 0.069c0 0.030 0 0.060-0.010 0.090s-0.010 0.059-0.010 0.089c0 0.040 0 0.080-0.020 0.109 0 0.030-0.020 0.089-0.050 0.178 0 0.030-0 0.050-0.010 0.069s-0.010 0.040-0.010 0.069c-0.030 0.060-0.050 0.119-0.070 0.179s-0.040 0.119-0.070 0.178l-0.020 0.020c0 0.010-0.020 0.049-0.050 0.109l-0.020 0.020c-0.010 0.010-0.050 0.069-0.11 0.159 0 0.030-0.020 0.090-0.050 0.179 0 0.010-0.020 0.069-0.050 0.159-0.020 0.030-0.030 0.059-0.050 0.079s-0.030 0.050-0.050 0.079c-0.010 0.030-0.050 0.079-0.11 0.139-0.020 0.030-0.030 0.050-0.050 0.069s-0.030 0.040-0.050 0.069c-0.020 0.030-0.030 0.050-0.050 0.060s-0.030 0.030-0.050 0.060c0 0.030-0.020 0.050-0.050 0.050-0.030 0.020-0.050 0.029-0.070 0.049s-0.040 0.030-0.070 0.050c-0.030 0.030-0.050 0.050-0.060 0.050s-0.030 0.020-0.060 0.050c-0.020 0.030-0.030 0.059-0.050 0.089s-0.040 0.059-0.070 0.089c-0.050 0.079-0.1 0.149-0.15 0.208s-0.099 0.119-0.149 0.179c-0.030 0.030-0.050 0.049-0.070 0.049-0.020 0.010-0.030 0.020-0.050 0.020s-0.030-0-0.050 0.020c-0.060 0.030-0.090 0.050-0.1 0.050s-0.030 0.030-0.060 0.089c-0.020 0.010-0.040 0.050-0.070 0.109l-0.139 0.069c-0.060 0.030-0.12 0.050-0.18 0.069-0.010 0.010-0.040 0.020-0.090 0.020h-0.050c-0.050 0.010-0.12 0.020-0.229 0.020h-0.090c-0.050-0.020-0.1-0.040-0.16-0.069-0.010 0-0.050-0.020-0.11-0.049l-0.139-0.070c-0.060-0.030-0.11-0.059-0.139-0.089-0.060-0.030-0.11-0.059-0.16-0.099-0.050-0.030-0.1-0.070-0.16-0.1-0.040-0.040-0.080-0.069-0.11-0.089-0.080-0.060-0.13-0.090-0.15-0.109-0.020-0.010-0.069-0.049-0.149-0.109-0.030-0.030-0.050-0.050-0.050-0.069-0.010-0.030-0.020-0.059-0.030-0.089 0-0.030-0.010-0.060-0.030-0.090l-0.050-0.049-0.139-0.139c-0.030 0-0.050 0-0.050-0.020s0-0.030-0.020-0.050c-0.030-0.030-0.050-0.050-0.060-0.069s-0.030-0.040-0.060-0.069c0-0.020-0.020-0.040-0.050-0.069l-0.14-0.069-0.050-0.049c-0.010 0-0.020 0-0.020-0.010s-0-0.010-0.020-0.010c0-0.030 0-0.049-0.010-0.059-0.010 0-0.010-0.010-0.010-0.030-0.030-0.079-0.080-0.179-0.14-0.298v-0.020c-0.030-0.060-0.060-0.139-0.090-0.229-0.010-0.030-0.020-0.050-0.020-0.060s0-0.030-0.020-0.060c0-0.010 0-0.020-0.010-0.030-0.010 0-0.010-0.010-0.010-0.030-0.020-0.050-0.030-0.089-0.050-0.129-0.020-0.030-0.030-0.070-0.050-0.1l-0.050-0.049c-0.090-0.119-0.17-0.199-0.229-0.248-0.030-0.030-0.050-0.059-0.069-0.089l-0.020-0.020c0.010-0.020 0.020-0.040 0.020-0.069 0.030-0.060 0.050-0.109 0.050-0.159 0.030-0.079 0.050-0.149 0.060-0.228s0.030-0.149 0.060-0.229v-0.317c0-0.030-0-0.050-0.020-0.069-0.070-0.109-0.11-0.179-0.13-0.208s-0.070-0.090-0.15-0.179c-0.030-0.030-0.050-0.050-0.069-0.050-0.050-0.040-0.1-0.079-0.16-0.109-0.030-0.030-0.050-0.050-0.070-0.050-0.090-0.030-0.17-0.050-0.229-0.069h-0.050l-0.478 0.139v0.020c-0.030 0-0.050 0-0.050 0.020-0.050 0.030-0.1 0.089-0.16 0.178l-0.020 0.020c-0.090 0.119-0.17 0.228-0.229 0.317-0.030 0.050-0.050 0.069-0.050 0.079 0 0 0 0.040 0.020 0.099v0.050c0.010 0.030 0.020 0.079 0.020 0.159v0.109c0 0.040 0 0.070 0.020 0.090 0 0.069-0 0.129 0.020 0.178v0.020c0.020 0.010 0.030 0.020 0.050 0.020 0.010 0.030 0.040 0.059 0.090 0.109 0.010 0.010 0.020 0.020 0.020 0.030 0 0-0 0.010 0.020 0.030 0.010 0.020 0.020 0.030 0.020 0.050s-0 0.040 0.020 0.069c0.030 0.069 0.050 0.109 0.070 0.109 0.010 0.020 0.020 0.030 0.030 0.049 0 0.020 0.010 0.030 0.030 0.050 0.010 0 0.020-0 0.020 0.010s0 0.010 0.020 0.010v0.050c0 0.069-0 0.129-0.020 0.179v0.109c0 0.109-0 0.209 0.010 0.298s0.010 0.188-0.010 0.298v0.069c0 0.010-0 0.020 0.010 0.020s0.010 0 0.010 0.020v0.020c0.060 0.109 0.11 0.208 0.16 0.308s0.099 0.199 0.159 0.308c0.030 0.060 0.050 0.109 0.050 0.139 0.010 0.030 0.020 0.059 0.020 0.109l0.070 0.139c0.030 0.060 0.060 0.119 0.080 0.169s0.050 0.109 0.080 0.169l0.069 0.139c0.010 0.030 0.020 0.050 0.020 0.069s-0 0.030 0.020 0.050c0.030 0.030 0.050 0.050 0.060 0.069 0 0.020 0.010 0.030 0.030 0.050 0.050 0.050 0.070 0.069 0.080 0.079 0.010 0 0.030 0.040 0.060 0.099l0.070 0.109 0.090 0.089c0.030 0.030 0.060 0.059 0.080 0.079s0.050 0.050 0.080 0.080c0.030 0.060 0.060 0.109 0.109 0.159s0.090 0.089 0.14 0.139c0.020 0.030 0.030 0.050 0.050 0.060 0.020 0 0.030 0.010 0.050 0.030 0.030 0.020 0.060 0.030 0.080 0.050s0.050 0.030 0.080 0.050l0.050 0.049c0.030 0.030 0.050 0.060 0.060 0.080 0 0.020 0.010 0.050 0.030 0.079 0.010 0.030 0.040 0.059 0.090 0.109l0.069 0.069c0.030 0.050 0.060 0.089 0.090 0.129s0.060 0.079 0.090 0.129c0 0.010-0 0.020 0.020 0.020 0 0.010 0 0.020-0.020 0.020 0 0.010-0 0.020-0.020 0.020 0 0.030-0.020 0.030-0.050 0-0.030-0.020-0.050-0.030-0.070-0.050s-0.040-0.030-0.069-0.050c-0.030-0.030-0.050-0.049-0.070-0.049-0.050-0.020-0.1-0.040-0.16-0.069-0.010 0-0.020 0-0.020-0.010s-0-0.010-0.020-0.010l-0.020-0.020-0.14-0.139c-0.030-0.020-0.060-0.030-0.080-0.050s-0.050-0.029-0.080-0.049l-0.069-0.069c-0.010 0-0.020-0-0.020-0.020l-0.279-0.208c-0.030-0.030-0.060-0.049-0.090-0.049l-0.299-0.298c-0.030 0-0.050-0.020-0.050-0.049-0.020 0-0.040-0.020-0.070-0.050-0.010-0.030-0.050-0.079-0.11-0.139-0.030-0.030-0.050-0.050-0.050-0.069-0.030-0.030-0.050-0.059-0.060-0.079s-0.030-0.050-0.060-0.079c0-0.020-0.020-0.040-0.050-0.069-0.060-0.060-0.11-0.109-0.16-0.139l-0.050-0.050c-0.030-0.020-0.060-0.030-0.1-0.050s-0.080-0.030-0.13-0.050c-0.020-0.010-0.030-0.020-0.050-0.020h-0.16c-0.030 0-0.060 0-0.1-0.010s-0.070-0.010-0.1-0.010c-0.030-0.010-0.050-0.020-0.069-0.020s-0.040 0-0.070-0.020l-0.618-0.139c-0.030 0-0.050 0-0.050-0.020-0.010-0.010-0.020-0.020-0.030-0.020 0 0-0.010-0-0.030-0.020l-0.11-0.109c-0.020 0-0.040-0.020-0.069-0.050h-0.020c-0.080-0.030-0.149-0.059-0.229-0.099-0.080-0.030-0.15-0.070-0.229-0.1-0.030-0.020-0.060-0.030-0.1-0.050s-0.080-0.040-0.13-0.069c-0.1-0.060-0.159-0.109-0.209-0.159-0.030-0.030-0.050-0.050-0.050-0.069l-0.11-0.109c-0.030-0.050-0.050-0.069-0.050-0.079v-0.099c0-0.010-0-0.020 0.010-0.030 0.010 0 0.010-0.010 0.010-0.030v-0.139c-0.030-0.089-0.050-0.169-0.070-0.228 0-0.020 0-0.030-0.020-0.050-0.030-0.099-0.060-0.159-0.090-0.208-0.030-0.030-0.060-0.059-0.080-0.079l-0.080-0.079h-0.020c-0.010-0.010-0.020-0.020-0.030-0.020 0 0-0.010 0-0.030-0.020h-0.050c-0.060-0.020-0.12-0.030-0.169-0.050-0.060-0.020-0.12-0.030-0.199-0.049-0.010-0.010-0.040-0.020-0.090-0.020h-0.020c-0.030 0-0.050 0-0.050 0.020-0.030 0-0.090 0.020-0.179 0.049-0.020 0.010-0.030 0.020-0.050 0.020-0.060 0-0.11-0-0.16 0.020-0.030 0-0.050-0-0.070 0.020-0.010 0-0.020-0-0.020 0.020-0.080 0.030-0.13 0.060-0.16 0.090l-0.070 0.139c-0.010 0.020-0.020 0.030-0.020 0.050-0.010 0.010-0.020 0.040-0.020 0.089-0.030 0.060-0.050 0.119-0.060 0.169s-0.030 0.109-0.060 0.169v0.109l0.020 0.050c0.020 0.079 0.030 0.149 0.050 0.208s0.040 0.129 0.070 0.208c0 0.030-0 0.050 0.020 0.069 0.030 0.030 0.050 0.059 0.070 0.079s0.040 0.050 0.069 0.079c0 0.010 0 0.020 0.010 0.020s0.010-0 0.010 0.020c0.030 0.030 0.060 0.059 0.1 0.079 0.030 0.020 0.070 0.050 0.1 0.079 0.060 0.030 0.12 0.060 0.169 0.1s0.11 0.069 0.169 0.099l0.11 0.069 0.069 0.109c0.040 0.040 0.070 0.079 0.090 0.109 0.030 0.030 0.050 0.050 0.060 0.069s0.030 0.040 0.060 0.069c0.030 0.030 0.050 0.050 0.069 0.050 0.030 0.020 0.050 0.030 0.070 0.050s0.040 0.030 0.070 0.050l0.069 0.069c0.060 0.060 0.090 0.109 0.11 0.159 0.010 0.010 0.020 0.020 0.030 0.020 0 0 0.010-0 0.030 0.020 0.010 0.010 0.069 0.050 0.159 0.109l0.070 0.069c0.050 0.060 0.1 0.119 0.15 0.169 0.060 0.050 0.1 0.1 0.13 0.149 0.060 0.099 0.11 0.159 0.16 0.208 0 0.020 0.020 0.040 0.050 0.069 0.010 0 0.020-0 0.020 0.010s-0 0.010 0.020 0.010c0.030 0.030 0.080 0.059 0.139 0.089 0.030 0.010 0.050 0.020 0.060 0.030 0.010 0 0.030 0.010 0.060 0.030h0.050c0.030 0.010 0.050 0.020 0.069 0.020s0.040 0 0.070 0.020l0.090 0.089c0.070 0.079 0.13 0.129 0.18 0.159s0.090 0.060 0.13 0.090c0.040 0.030 0.080 0.059 0.13 0.089 0.030 0.030 0.050 0.050 0.060 0.050s0.030 0.020 0.080 0.049c0.010 0 0.020-0 0.020 0.010s-0 0.010 0.020 0.010c0.050 0.010 0.12 0.049 0.209 0.109 0.020 0 0.030 0 0.050 0.020 0.030 0.010 0.060 0.020 0.080 0.030 0.020 0 0.049 0.010 0.079 0.030 0.060 0.020 0.12 0.030 0.17 0.050s0.11 0.030 0.169 0.050l0.020 0.020c0.030 0 0.050-0 0.070 0.020 0.060 0.079 0.12 0.149 0.169 0.208 0.060 0.060 0.12 0.129 0.199 0.208l0.020 0.020v0.010c-0.010 0-0.020 0.020-0.020 0.050-0.030 0.030-0.060 0.079-0.090 0.139-0.030 0.030-0.050 0.050-0.050 0.069-0.020 0.079-0.030 0.149-0.050 0.199-0.020 0.060-0.040 0.119-0.069 0.198 0 0.060-0.020 0.11-0.070 0.159-0.030 0.079-0.080 0.179-0.139 0.298-0.010 0.030-0.020 0.050-0.030 0.060 0 0.010-0.010 0.030-0.030 0.060v0.109c-0.010 0.010-0.020 0.040-0.020 0.090v0.069l-0.020 0.049c-0.030 0.030-0.060 0.079-0.090 0.139-0.010 0.030-0.020 0.060-0.020 0.090-0.010 0.050-0.020 0.119-0.020 0.208 0 0.030-0 0.050-0.020 0.069l-0.139 0.338-0.020 0.020c-0.030 0.060-0.050 0.109-0.050 0.159v0.119c-0.010 0.020-0.020 0.030-0.020 0.050v0.070c-0.020 0.010-0.040 0.049-0.070 0.109-0.010 0.010-0.020 0.020-0.020 0.030 0 0-0 0.010-0.020 0.030v0.139c0 0.030-0 0.050 0.010 0.070s0.010 0.040 0.010 0.070c0 0.030-0 0.050-0.020 0.070-0.030 0.119-0.050 0.199-0.070 0.248 0 0.050-0.020 0.119-0.050 0.208-0.020 0.060-0.040 0.139-0.069 0.228-0.010 0.010-0.020 0.040-0.020 0.089-0.010 0.030-0.020 0.050-0.020 0.070s-0 0.040-0.020 0.070v0.407c-0.010 0.030-0.020 0.060-0.020 0.080s-0 0.050-0.020 0.079c-0.030 0.119-0.050 0.198-0.070 0.248v0.308c0 0.079 0 0.129 0.020 0.159 0 0.109-0 0.179-0.020 0.228v0.050c0 0.060-0.020 0.139-0.050 0.228 0 0.050 0 0.089-0.010 0.139s-0.010 0.089-0.010 0.139v0.159c0.010 0.050 0.020 0.099 0.030 0.149 0 0.050 0.010 0.099 0.030 0.149 0 0.060 0 0.109 0.020 0.139v0.129c0 0.030-0 0.050-0.010 0.060s-0.010 0.030-0.010 0.060c0 0.030-0 0.050 0.010 0.070s0.010 0.040 0.010 0.070c0 0.099-0 0.188 0.020 0.248 0.010 0.069 0.020 0.159 0.020 0.278 0 0.020-0 0.030 0.010 0.050s0.010 0.030 0.010 0.050v0.020c0 0.030 0 0.050 0.020 0.070 0.030 0.030 0.050 0.060 0.069 0.090s0.030 0.050 0.050 0.070 0.030 0.039 0.050 0.069l0.139 0.139c0.010 0.040 0.040 0.070 0.090 0.090 0.030 0.030 0.060 0.049 0.090 0.070s0.060 0.030 0.090 0.049l0.069 0.070 0.070 0.139c0.030 0.060 0.050 0.089 0.060 0.089s0.030 0.020 0.080 0.070c0.010 0 0.020-0 0.020 0.010s-0 0.010 0.020 0.010l0.070 0.070c0.020 0.030 0.030 0.049 0.050 0.070s0.030 0.040 0.050 0.070c0.020 0.010 0.030 0.020 0.050 0.030s0.030 0.030 0.050 0.060c0.060 0.030 0.090 0.060 0.11 0.090 0.030 0.020 0.060 0.040 0.090 0.070 0.010 0.030 0.050 0.079 0.11 0.139 0.010 0.020 0.020 0.030 0.030 0.050 0 0.020 0.010 0.029 0.030 0.049 0.030 0.030 0.060 0.060 0.090 0.079s0.060 0.050 0.090 0.080c0.030 0.020 0.050 0.030 0.070 0.049s0.040 0.030 0.070 0.050l0.070 0.070c0.020 0.030 0.030 0.050 0.050 0.070s0.030 0.040 0.050 0.070c0.010 0.010 0.020 0.020 0.030 0.020 0 0 0.010 0 0.030 0.020 0.030 0.030 0.050 0.050 0.070 0.060 0.020 0 0.030 0.010 0.050 0.030 0.030 0.020 0.050 0.030 0.060 0.050 0 0.020 0.010 0.030 0.030 0.050l0.012 0.012c-0.033-0.866 0.109-2.475 0.878-4.399-0.349 2.172-0.189 4.258-0.038 5.234 0.016 0.009 0.027 0.018 0.045 0.027 0.020 0.010 0.030 0.030 0.050 0.060l0.279 0.278 0.209 0.278c0.010 0 0.020-0 0.020 0.020 0.030 0.050 0.090 0.1 0.179 0.159 0.030 0.040 0.080 0.069 0.16 0.089l0.070 0.070c0.060 0.080 0.12 0.149 0.169 0.199 0.050 0.059 0.11 0.119 0.169 0.199l0.020 0.020c0.020 0.030 0.030 0.050 0.050 0.060 0.020 0 0.030 0.010 0.050 0.030h0.050c0-0.030 0.020-0.049 0.050-0.049 0-0.020 0.020-0.040 0.050-0.070l0.209-0.278 0.070-0.070c0.010-0.030 0.050-0.060 0.109-0.089 0.030-0.030 0.050-0.050 0.060-0.070s0.030-0.030 0.060-0.049l0.070-0.070c0.060-0.050 0.14-0.119 0.229-0.209 0.030-0.049 0.080-0.099 0.139-0.159 0.010-0.030 0.040-0.060 0.090-0.109l0.070-0.070c0.030-0.030 0.050-0.049 0.070-0.059 0.011-0.005 0.019-0.015 0.027-0.026 0.072-0.655 0.124-1.693-0.048-2.555 0.323 0.681 0.484 1.565 0.548 2.101 0.005-0.008 0.012-0.017 0.012-0.027l0.070-0.070c0.030-0.030 0.050-0.050 0.060-0.070s0.030-0.030 0.060-0.050l0.020-0.020c0.080-0.069 0.12-0.109 0.13-0.109 0 0 0.040-0.030 0.099-0.109 0.060-0.060 0.090-0.089 0.090-0.099s0.030-0.030 0.090-0.060c0-0.010-0-0.020 0.020-0.020 0.030-0.010 0.060-0.050 0.090-0.109 0.030-0.030 0.060-0.079 0.090-0.139 0.030-0.030 0.050-0.049 0.050-0.070 0.030-0.020 0.060-0.030 0.080-0.050s0.050-0.030 0.080-0.050l0.279-0.278c0.040-0.040 0.079-0.070 0.109-0.090s0.050-0.030 0.060-0.050c0-0.020 0.010-0.030 0.030-0.049 0.060-0.089 0.119-0.169 0.179-0.229 0.010-0.020 0.020-0.030 0.030-0.050 0-0.020 0.010-0.029 0.030-0.049 0.020-0.030 0.030-0.050 0.050-0.060s0.040-0.030 0.070-0.060c0.090-0.089 0.17-0.149 0.229-0.178l0.090-0.090 0.070-0.089c0.030-0.060 0.060-0.090 0.090-0.109 0-0.020 0.020-0.040 0.050-0.070 0.090-0.060 0.14-0.089 0.16-0.109 0.040-0.010 0.070-0.040 0.090-0.089 0.030-0.020 0.050-0.030 0.060-0.050 0-0.020 0.010-0.030 0.030-0.050 0.030-0.030 0.060-0.049 0.090-0.070 0.030-0.030 0.050-0.050 0.070-0.060s0.040-0.030 0.070-0.060c0.030-0.030 0.050-0.060 0.050-0.089v-1.092c0.030-0.050 0.030-0.099 0-0.159v-0.248c-0.020-0.119-0.020-0.248 0-0.387v-0.208c0.010-0.020 0.020-0.040 0.020-0.070 0-0.079-0-0.129-0.020-0.159 0-0.030 0-0.050-0.020-0.070-0.010-0.060-0.020-0.089-0.020-0.109v-0.189c0.020-0.050 0.010-0.099-0.020-0.159v-0.090c-0.030-0.070-0.060-0.189-0.090-0.338v-0.338c-0.040-0.060-0.070-0.119-0.090-0.178v-0.248c0-0.060 0-0.109-0.020-0.139 0-0.050-0.020-0.099-0.050-0.159 0-0.030-0.020-0.090-0.050-0.179h-0.020c-0.010-0.040-0.020-0.099-0.020-0.178-0.010-0.040-0.020-0.099-0.020-0.179v-0.020c-0.010-0.030-0.020-0.079-0.020-0.139 0-0.030-0-0.059-0.010-0.079s-0.010-0.050-0.010-0.079c-0.030-0.089-0.050-0.149-0.070-0.179-0.010-0.030-0.020-0.059-0.030-0.089 0-0.030-0.010-0.060-0.030-0.090-0.010 0-0.020 0-0.020-0.020 0-0.010 0-0.020-0.010-0.030s-0.010-0.030-0.010-0.060v-0.179c0-0.020 0-0.030-0.010-0.050s-0.010-0.030-0.010-0.049c-0.030-0.060-0.050-0.119-0.070-0.179s-0.040-0.119-0.070-0.178c-0.030-0.089-0.050-0.139-0.050-0.159-0.010-0.030-0.020-0.050-0.020-0.069s0-0.040-0.020-0.069c0-0.020 0-0.030-0.010-0.050s-0.010-0.030-0.010-0.049c-0.030-0.030-0.050-0.050-0.060-0.069s-0.030-0.040-0.060-0.069c-0.010-0.010-0.020-0.020-0.020-0.030 0 0 0-0.010-0.020-0.030-0.030-0.089-0.060-0.149-0.090-0.179v-0.069c0.010-0.030 0.020-0.059 0.020-0.089s-0-0.059 0.020-0.089c0-0.020 0.020-0.040 0.050-0.069 0.070-0.089 0.159-0.169 0.249-0.248 0.030-0.030 0.060-0.059 0.099-0.079 0.030-0.020 0.070-0.050 0.099-0.079 0.040-0.030 0.080-0.050 0.11-0.050h0.199c0.030-0.010 0.060-0.020 0.080-0.030 0.020 0 0.050-0.010 0.080-0.030h0.020c0.030 0 0.060-0.020 0.090-0.050 0.060-0.030 0.109-0.059 0.139-0.089 0.030 0 0.060-0.020 0.090-0.050 0.15-0.060 0.259-0.089 0.339-0.109l0.050-0.020c0.030 0 0.059-0.020-0.010-0.069 0.030-0.010 0.050-0.020 0.060-0.030 0.010 0 0.030-0.010 0.060-0.030 0.040-0.050 0.080-0.069 0.11-0.069 0.030-0.010 0.060-0.020 0.080-0.030 0.020 0 0.050-0.010 0.080-0.030l0.050-0.050 0.139-0.139 0.070-0.050 0.279-0.139c0.030 0 0.080-0.020 0.139-0.049 0.030-0.030 0.080-0.060 0.14-0.090 0.030-0.030 0.060-0.050 0.080-0.069s0.050-0.040 0.080-0.069l0.139-0.139c0.030-0.010 0.060-0.020 0.080-0.030 0.020 0 0.050-0.010 0.080-0.030 0.030-0.030 0.060-0.049 0.080-0.059 0.020 0 0.050-0.010 0.080-0.030 0.080-0.030 0.15-0.050 0.199-0.069 0.060-0.020 0.12-0.040 0.199-0.069 0.010-0.010 0.020-0.020 0.030-0.020 0 0 0.010-0 0.030-0.020 0.020-0.030 0.030-0.050 0.050-0.069s0.030-0.040 0.050-0.069c0.030-0.030 0.049-0.059 0.070-0.089l0.070-0.139c0-0.030 0.020-0.050 0.050-0.050 0.030-0.030 0.050-0.049 0.070-0.059s0.040-0.030 0.070-0.060c0.030-0.020 0.060-0.040 0.090-0.069 0.040-0.050 0.079-0.1 0.109-0.159l0.070-0.069c0.030-0.030 0.060-0.059 0.1-0.079 0.030-0.020 0.070-0.050 0.099-0.079 0.090-0.060 0.17-0.109 0.229-0.159h0.020c0.020-0.010 0.030-0.020 0.050-0.020h0.11c0.030 0 0.050 0 0.060-0.010s0.030-0.010 0.060-0.010c0.060-0.030 0.11-0.050 0.16-0.069 0.020-0.010 0.030-0.020 0.050-0.020 0.030-0.030 0.060-0.050 0.080-0.060s0.050-0.030 0.080-0.060l0.050-0.050 0.090-0.149c0.030-0.050 0.060-0.109 0.090-0.169 0.030-0.030 0.050-0.059 0.050-0.089 0.010-0.030 0.020-0.050 0.020-0.060s0-0.030 0.020-0.060c0-0.030-0-0.060 0.010-0.1s0.010-0.079 0.010-0.129v-0.049c0.010-0.060 0.020-0.119 0.020-0.179v-0.178c0-0.020-0-0.030-0.020-0.050-0.030-0.060-0.050-0.090-0.070-0.109-0.020-0.030-0.030-0.059-0.050-0.089s-0.030-0.059-0.050-0.089-0.050-0.090-0.050-0.109c-0.010-0.010-0.020-0.020-0.020-0.030 0 0-0-0.010-0.020-0.030-0.030-0.030-0.080-0.089-0.14-0.178-0.010 0-0.020-0-0.030-0.010 0-0.010-0.010-0.010-0.030-0.010-0.030-0.020-0.060-0.030-0.099-0.049s-0.070-0.030-0.1-0.050c-0.010 0-0.020 0-0.030-0.010 0-0.010-0.010-0.010-0.030-0.010h-0.050c-0.030-0.010-0.050-0.020-0.070-0.020s-0.040 0-0.070-0.020c-0.060 0-0.090-0-0.11 0.020-0.050 0-0.099 0.020-0.159 0.050-0.050 0.020-0.1 0.030-0.15 0.050s-0.1 0.030-0.15 0.049c-0.010 0-0.020 0-0.030 0.010 0 0.010-0.010 0.010-0.030 0.010-0.030 0.030-0.060 0.050-0.090 0.069s-0.060 0.040-0.090 0.069c-0.010 0.010-0.020 0.020-0.020 0.030 0 0 0 0.010-0.020 0.030-0.010 0.050-0.050 0.119-0.11 0.208-0.030 0.030-0.050 0.059-0.060 0.109 0 0.040-0.010 0.080-0.030 0.109v0.030c-0.010 0.020-0.020 0.040-0.020 0.069v0.179c-0.010 0.060-0.020 0.139-0.020 0.248v0.109l-0.020 0.050c-0.030 0.030-0.060 0.059-0.099 0.079s-0.070 0.050-0.1 0.079c-0.010 0.010-0.020 0.020-0.030 0.020 0 0-0.010 0-0.030 0.020-0.030 0-0.090 0.020-0.18 0.049l-0.139 0.069c-0.060 0.040-0.119 0.080-0.169 0.109-0.060 0.030-0.12 0.059-0.199 0.089-0.060 0.030-0.090 0.050-0.11 0.069-0.030 0.020-0.060 0.030-0.090 0.050s-0.060 0.030-0.090 0.050c-0.090 0.030-0.149 0.050-0.179 0.069-0.030 0.010-0.060 0.020-0.1 0.020s-0.070-0-0.099 0.020c-0.030 0-0.060-0-0.080 0.010s-0.050 0.010-0.080 0.010c-0.010 0-0.020-0-0.020 0.010s0 0.010-0.020 0.010c-0.030 0.030-0.050 0.050-0.070 0.060s-0.040 0.030-0.070 0.060-0.050 0.049-0.060 0.049-0.030 0-0.060 0.020h-0.11c-0.010 0-0.020-0-0.030 0.010 0 0.010-0.010 0.010-0.030 0.010-0.060 0.010-0.12 0.020-0.18 0.030s-0.119 0.030-0.179 0.060l-0.090 0.050c-0.020 0-0.030-0-0.050 0.010s-0.040 0.010-0.070 0.010h-0.159c-0.030 0-0.050 0-0.070 0.020-0.030 0.020-0.060 0.030-0.080 0.049s-0.050 0.030-0.080 0.050l-0.090 0.050c-0.060 0.030-0.12 0.050-0.169 0.069-0.060 0.020-0.12 0.030-0.199 0.049-0.030 0.010-0.050 0.020-0.070 0.020s-0.040-0-0.070 0.020c-0.060 0.030-0.119 0.050-0.179 0.069s-0.119 0.040-0.179 0.069c-0.030 0-0.060 0.020-0.090 0.050-0.080 0.030-0.129 0.050-0.149 0.069-0.030 0.010-0.070 0.049-0.13 0.109-0.040 0.010-0.070 0.040-0.090 0.090l-0.050 0.049c-0.020 0.060-0.060 0.11-0.139 0.159-0.050 0.060-0.070 0.089-0.080 0.099 0 0.010-0.040 0.030-0.1 0.060l-0.050 0.050c-0.030 0-0.060 0.020-0.090 0.049-0.050 0.030-0.1 0.079-0.16 0.139-0.020 0.010-0.030 0.020-0.050 0.020h-0.020c0-0.020 0-0.030 0.020-0.050 0-0.030-0-0.059 0.010-0.099 0.010-0.030 0.010-0.070 0.010-0.1 0.010-0.030 0.020-0.079 0.020-0.139 0.040-0.040 0.070-0.079 0.090-0.109l0.020-0.020c0.010-0.020 0.020-0.030 0.030-0.049 0-0.020 0.010-0.030 0.030-0.050 0.020-0.030 0.030-0.059 0.050-0.079s0.030-0.050 0.050-0.080c0-0.020 0.020-0.040 0.050-0.069l0.209-0.208c0.090-0.109 0.169-0.228 0.249-0.367 0.010-0.030 0.020-0.050 0.030-0.060 0-0.010 0.010-0.030 0.030-0.060l0.070-0.139c0.010-0.030 0.020-0.050 0.020-0.060s0.020-0.029 0.050-0.059c0.030-0.010 0.080-0.050 0.139-0.109l0.19-0.139c0-0.020-0-0.030 0.010-0.050s0.010-0.030 0.010-0.049-0-0.050 0.010-0.060c0.010 0 0.010-0.010 0.010-0.030l0.020-0.049c0.010-0.010 0.020-0.020 0.020-0.030 0 0-0-0.010 0.020-0.030 0.040-0.030 0.080-0.060 0.11-0.109l0.020-0.020c0.010-0.020 0.020-0.040 0.020-0.069 0.010-0.030 0.020-0.060 0.020-0.109 0.020-0.050 0.040-0.099 0.070-0.159l0.070-0.139c0-0.010-0-0.020 0.010-0.030 0.010 0 0.010-0.010 0.010-0.030 0.010-0.030 0.020-0.060 0.020-0.109l0.070-0.476v-0.159c0-0.010 0-0.020 0.010-0.030 0.010 0 0.010-0.010 0.010-0.030 0.010-0.030 0.020-0.059 0.030-0.089 0-0.030 0.010-0.059 0.030-0.089 0-0.020 0-0.030 0.010-0.050s0.010-0.040 0.010-0.069c0.030-0.089 0.050-0.169 0.070-0.228 0.010-0.030 0.020-0.060 0.020-0.109s-0-0.089 0.020-0.139v-0.228c-0.010-0.030-0.020-0.060-0.010-0.090s0.010-0.059 0.010-0.089c0-0.030 0-0.050 0.010-0.069s0.010-0.040 0.010-0.069v-0.020l0.050-0.050c0.020 0 0.030 0 0.050-0.020 0.010 0 0.050-0.020 0.11-0.050 0.020 0 0.030 0 0.050-0.020 0.030-0.030 0.050-0.059 0.060-0.079s0.030-0.050 0.060-0.079c0-0.010-0-0.020 0.010-0.020s0.010 0 0.010-0.020c0-0.010-0-0.020 0.010-0.030 0.010 0 0.010-0.010 0.010-0.030 0.030-0.050 0.050-0.089 0.060-0.129 0.010-0.030 0.030-0.069 0.060-0.099s0.050-0.050 0.050-0.069 0-0.060 0.020-0.139c0.010-0.030 0.020-0.060 0.020-0.090s-0-0.059 0.020-0.089v-0.199c0-0.030-0.020-0.059-0.050-0.089 0-0.040-0.020-0.080-0.050-0.109 0-0.040-0.020-0.079-0.050-0.109h-0.020c-0.030-0.030-0.060-0.060-0.080-0.090s-0.050-0.059-0.080-0.089c-0.070-0.010-0.13-0.049-0.18-0.109-0.030 0-0.050-0-0.060-0.010 0-0.010-0.010-0.010-0.030-0.010l-0.209-0.069c-0.010 0-0.020 0-0.030-0.010-0.005-0.005-0.012-0.007-0.022-0.006zM6.209 13.63c-0.010 0-0.020-0-0.020 0.020 0.010 0.010 0.020 0.040 0.020 0.089 0.010 0.030 0.020 0.079 0.020 0.139 0.010 0.030 0.020 0.060 0.020 0.090s0 0.059 0.020 0.089v0.119c0 0.050-0 0.089 0.010 0.129 0 0.040 0.010 0.079 0.030 0.129 0.010 0.079 0.020 0.149 0.030 0.208 0 0.060 0.010 0.119 0.030 0.178 0 0.060-0 0.119 0.010 0.169s0.010 0.099 0.010 0.149v0.159c0.010 0.060 0.020 0.109 0.020 0.159s0 0.089 0.020 0.139c0 0.040-0 0.080 0.020 0.109v0.387c0.010 0.040 0.020 0.099 0.020 0.178 0.010 0.030 0.020 0.080 0.020 0.159-0.020 0.139-0.020 0.268 0 0.387 0 0.079 0 0.129-0.020 0.159v0.318c0.010 0.060 0.020 0.169 0.020 0.318 0 0.070 0 0.129-0.020 0.178 0 0.050-0 0.089-0.010 0.129s-0.010 0.079 0.010 0.129v0.109c0 0.070-0 0.129-0.020 0.178 0 0.050 0 0.089-0.010 0.139s-0.010 0.1-0.010 0.159v0.070c0 0.050 0.020 0.070 0.050 0.070 0.020 0.010 0.030 0.020 0.050 0.020 0.050 0.030 0.1 0.059 0.15 0.089s0.099 0.059 0.149 0.089c0.020 0.010 0.030 0.020 0.050 0.020l0.069 0.070c0.1 0.079 0.22 0.169 0.339 0.278 0.050 0.030 0.090 0.059 0.13 0.109s0.080 0.089 0.13 0.139v0.020c0.090 0.119 0.169 0.228 0.229 0.317 0.030 0.050 0.060 0.089 0.080 0.139s0.050 0.089 0.080 0.139c0.030 0.050 0.060 0.1 0.080 0.149s0.050 0.099 0.080 0.149c0 0.010 0 0.020 0.020 0.020 0.020 0.060 0.030 0.109 0.050 0.159s0.030 0.1 0.050 0.159c0.030 0.060 0.050 0.119 0.070 0.178s0.040 0.119 0.070 0.179c0 0.040-0 0.069 0.020 0.089 0 0.060 0.020 0.139 0.050 0.228v0.050c0.010 0.040 0.020 0.099 0.020 0.179 0 0.010-0 0.020 0.020 0.020v0.020h0.020l0.069-0.070c0.010-0.030 0.020-0.049 0.030-0.059 0-0.010 0.010-0.030 0.030-0.060 0.090-0.089 0.169-0.149 0.229-0.179 0.050-0.060 0.1-0.109 0.15-0.159s0.1-0.089 0.15-0.139l0.090-0.050c0.050-0.050 0.1-0.089 0.15-0.129 0.050-0.030 0.099-0.069 0.149-0.099 0.060-0.030 0.11-0.060 0.14-0.090 0.030-0.020 0.060-0.029 0.080-0.049s0.050-0.040 0.080-0.070c0.030-0.010 0.060-0.020 0.080-0.030s0.049-0.030 0.079-0.060c0.010 0 0.020 0 0.020-0.020 0.040 0 0.080-0.020 0.11-0.050-0.022-0.758 0.011-1.466 0.094-2.134-0.421-0.119-1.216-0.313-1.95-0.304 0.868-0.331 1.664-0.258 2.027-0.197 0.010-0.061 0.018-0.125 0.029-0.185 0.159-0.864 0.319-1.549 0.468-2.065-0.020 0-0.030 0-0.050-0.010s-0.030-0.010-0.050-0.010c-0.010 0-0.030-0.010-0.020-0.040 0-0.010-0.010-0.010-0.030-0.010-0.030 0-0.060 0-0.1-0.010s-0.070-0.010-0.1-0.010h-0.090c-0.030 0-0.050 0-0.069-0.020h-0.070c-0.050-0.010-0.090-0.020-0.14-0.020s-0.090-0.020-0.139-0.049h-0.050c-0.060-0.030-0.11-0.050-0.16-0.050h-0.090c-0.030-0.010-0.060-0.020-0.090-0.020s-0.060-0-0.090-0.020c0-0.010-0.020-0.020-0.050-0.020-0.1-0.030-0.159-0.050-0.209-0.050h-0.020c-0.030-0.010-0.060-0.020-0.080-0.020s-0.050 0-0.080-0.020-0.12-0.030-0.17-0.050-0.099-0.030-0.149-0.050c-0.050 0-0.12-0.020-0.209-0.049l-0.090-0.050c-0.020 0-0.030 0-0.050-0.010s-0.030-0.010-0.050-0.010-0.060-0-0.080-0.010-0.050-0.010-0.080-0.010c-0.010-0.010-0.020-0.020-0.030-0.020 0 0-0.010 0-0.030-0.020-0.060-0.030-0.12-0.059-0.169-0.079s-0.11-0.050-0.17-0.080c-0.060-0.030-0.119-0.059-0.179-0.099s-0.119-0.079-0.179-0.129c-0.060-0.030-0.12-0.059-0.169-0.109-0.050-0.040-0.1-0.080-0.15-0.109-0.060-0.030-0.109-0.059-0.139-0.089-0.090-0.060-0.17-0.119-0.229-0.179l-0.11-0.089-0.090-0.090c-0.1-0.089-0.159-0.149-0.209-0.178l-0.070-0.069zM25.967 13.63c-0.030 0.010-0.050 0.020-0.050 0.030 0 0 0 0.010-0.020 0.030-0.080 0.079-0.149 0.149-0.209 0.199s-0.13 0.109-0.209 0.169c-0.090 0.060-0.149 0.109-0.179 0.139s-0.050 0.050-0.050 0.069c-0.060 0.030-0.11 0.059-0.139 0.089-0.060 0.030-0.11 0.060-0.16 0.090-0.060 0.060-0.11 0.089-0.14 0.109-0.030 0.030-0.080 0.060-0.139 0.090-0.050 0.030-0.1 0.059-0.15 0.089s-0.099 0.059-0.149 0.089c-0.060 0.040-0.12 0.069-0.18 0.089-0.12 0.030-0.219 0.060-0.299 0.090-0.030 0.030-0.060 0.049-0.090 0.049s-0.060 0-0.090 0.020h-0.020c-0.030 0.010-0.060 0.020-0.11 0.030-0.040 0-0.079 0.010-0.109 0.030-0.030 0-0.050-0-0.070 0.020-0.030 0-0.050-0-0.060 0.010s-0.030 0.010-0.060 0.010c-0.090 0.030-0.169 0.050-0.229 0.050-0.060 0.020-0.12 0.030-0.18 0.050s-0.119 0.030-0.179 0.049c-0.040 0-0.080 0-0.11 0.020-0.080 0.020-0.179 0.040-0.299 0.069-0.050 0.010-0.090 0.020-0.13 0.020s-0.080-0-0.13 0.020c-0.060 0.010-0.11 0.020-0.16 0.020s-0.1-0-0.16 0.020c-0.030 0.010-0.060 0.020-0.090 0.020s-0.060-0-0.090 0.020c-0.1 0-0.159 0-0.209 0.020h-0.090c0.060 0.169 0.13 0.387 0.209 0.665s0.15 0.606 0.22 1.003c0.034 0.192 0.067 0.402 0.101 0.627 0.348-0.062 1.164-0.148 2.055 0.192-0.752-0.009-1.573 0.196-1.984 0.313 0.012 0.091 0.025 0.173 0.037 0.268 0.070 0.536 0.139 1.162 0.199 1.857l0.419 0.208c0.050 0.030 0.070 0.050 0.080 0.060 0 0.010 0.040 0.030 0.099 0.060 0.030 0.030 0.060 0.059 0.1 0.089s0.080 0.060 0.13 0.090 0.149 0.109 0.179 0.139c0.030 0.030 0.060 0.050 0.080 0.070s0.050 0.040 0.080 0.070l0.369 0.367c0.010 0.020 0.020 0.030 0.030 0.050 0 0.020 0.010 0.030 0.030 0.050 0.010 0 0.020-0 0.020 0.020 0.010 0 0.020 0 0.020-0.020 0.010-0.030 0.020-0.060 0.020-0.109 0-0.030-0-0.060 0.010-0.090s0.010-0.059 0.010-0.089c0.030-0.079 0.050-0.149 0.070-0.199 0.020-0.060 0.030-0.119 0.050-0.199 0-0.030 0.020-0.079 0.050-0.139 0.1-0.228 0.189-0.437 0.249-0.635l0.050-0.089c0.030-0.079 0.060-0.149 0.109-0.208 0.040-0.060 0.080-0.119 0.11-0.179 0.010-0.010 0.020-0.020 0.020-0.030 0 0-0-0.010 0.020-0.030 0.030-0.030 0.050-0.059 0.070-0.089s0.040-0.059 0.070-0.089l0.050-0.050 0.319-0.317c0.030-0.030 0.060-0.050 0.090-0.070 0.050-0.030 0.1-0.059 0.15-0.109 0.050-0.040 0.11-0.080 0.169-0.109 0.030-0.020 0.060-0.029 0.080-0.049s0.049-0.030 0.079-0.050c0.010 0 0.050-0.020 0.11-0.050l0.020-0.020c0.010 0 0.020-0.020 0.020-0.050v-0.109c0-0.139 0-0.239-0.020-0.298v-0.070c-0.010-0.010-0.020-0.040-0.020-0.089s0-0.099-0.010-0.149c-0.010-0.050-0.010-0.109 0.010-0.169v-0.049c0-0.139 0-0.238-0.020-0.318v-0.755c0.010-0.050 0.020-0.119 0.020-0.208v-0.318c0.010-0.060 0.020-0.119 0.020-0.178v-0.179c0.010-0.060 0.020-0.119 0.020-0.169s-0-0.109 0.020-0.169v-0.069c0.010-0.060 0.020-0.169 0.020-0.317v-0.069c0-0.030-0-0.050 0.010-0.069s0.010-0.030 0.010-0.050c0.010-0.060 0.020-0.109 0.030-0.159 0-0.050 0.010-0.1 0.030-0.159 0-0.050-0-0.099 0.010-0.149s0.010-0.099 0.010-0.149c0-0.069 0.020-0.159 0.050-0.248 0-0.030 0.020-0.089 0.050-0.178 0-0.079 0-0.129 0.020-0.159h0.030v-0.039h-0.020z"></path>
</svg>
