<!-- Generated by IcoMoon.io -->
<svg version="1.1" xmlns="http://www.w3.org/2000/svg" width="32" height="32" viewBox="0 0 32 32">
<title>token_cultist_highlight</title>
<path d="M15.472 14.988c-0.043 0.004-0.080 0.014-0.111 0.030-0.063 0.094-0.115 0.219-0.167 0.386-0.031 0.083-0.063 0.156-0.094 0.219s-0.063 0.135-0.094 0.218c-0.052 0.094-0.104 0.177-0.167 0.24-0.063 0.115-0.157 0.167-0.261 0.167h-0.073c-0.146-0.021-0.283-0.010-0.419 0.021s-0.272 0.063-0.397 0.094c-0.157 0.062-0.314 0.104-0.47 0.135-0.157 0.021-0.303 0.052-0.471 0.083-0.188 0-0.334 0.021-0.428 0.073-0.052 0.031-0.126 0.104-0.241 0.219-0.115 0.083-0.178 0.177-0.188 0.292-0.031 0.094-0.042 0.167-0.032 0.219s0.032 0.115 0.063 0.188c0.063 0.177 0.157 0.354 0.293 0.531 0.084 0.208 0.167 0.427 0.261 0.646s0.188 0.458 0.293 0.718c0.052 0.094 0.094 0.177 0.146 0.25s0.094 0.167 0.146 0.302c0.052 0.146 0.146 0.281 0.293 0.406 0.031 0.031 0.094 0.083 0.188 0.146 0.063 0.062 0.125 0.125 0.178 0.177s0.105 0.125 0.157 0.208c0.031 0.031 0.052 0.063 0.063 0.094s0.032 0.063 0.063 0.094c0.063 0.083 0.126 0.156 0.188 0.229s0.136 0.146 0.22 0.229c0.094 0.083 0.167 0.146 0.22 0.208 0.052 0.052 0.136 0.104 0.261 0.156 0.178 0.052 0.387 0.104 0.617 0.135 0.094 0.021 0.188 0.021 0.272 0.021h0.251c0.272 0 0.512-0.062 0.722-0.188 0.052-0.031 0.083-0.063 0.115-0.083s0.063-0.052 0.094-0.083c0-0.177 0.042-0.333 0.115-0.479 0-0.021-0-0.021 0.010-0.021s0.011-0.010 0.011-0.021c0.031-0.083 0.021-0.156-0.021-0.218-0.021-0.021-0.031-0.031-0.031-0.052-0.010-0.021-0.021-0.031-0.032-0.052-0.031-0.063-0.031-0.094 0-0.094 0.063-0.052 0.126-0.083 0.188-0.094 0.094-0.031 0.188-0.073 0.262-0.135 0.084-0.052 0.157-0.114 0.241-0.177 0.115-0.115 0.209-0.25 0.293-0.406 0.021-0.031 0.021-0.063 0.021-0.094s0.011-0.063 0.021-0.094c0.031-0.062 0.052-0.125 0.073-0.177s0.042-0.125 0.073-0.208c0.031-0.177 0.084-0.344 0.146-0.5s0.146-0.312 0.241-0.458c0.031-0.052 0.063-0.094 0.094-0.136s0.062-0.083 0.094-0.135c0.052-0.062 0.095-0.125 0.147-0.177s0.083-0.115 0.115-0.177c0.052-0.052 0.084-0.104 0.115-0.167 0.021-0.021 0.021-0.052 0.021-0.115 0-0.094-0.032-0.198-0.084-0.313s-0.146-0.219-0.272-0.313c-0.063-0.062-0.178-0.125-0.335-0.187-0.146-0.052-0.282-0.094-0.418-0.146s-0.282-0.083-0.439-0.115c-0.084-0.021-0.157-0.031-0.22-0.031-0.063-0.010-0.136-0.031-0.22-0.063-0.094-0.021-0.167-0.031-0.209-0.063-0.042-0.021-0.104-0.052-0.178-0.083-0.293-0.094-0.491-0.292-0.627-0.594-0.021-0.052-0.031-0.094-0.052-0.135s-0.031-0.083-0.052-0.135c-0.021-0.052-0.021-0.094-0.021-0.146s-0.011-0.094-0.021-0.146c0-0.062-0.084-0.094-0.241-0.094-0.031-0.021-0.084-0.021-0.146-0.021-0.058-0.010-0.107-0.013-0.15-0.009zM14.598 17.538h0.021v0.061c0.021 0.009 0.047 0.012 0.094 0.012 0.021 0 0.032-0 0.032 0.010 0.010 0.010 0.021 0.011 0.031 0.011 0.125 0 0.23 0.052 0.314 0.167 0.126 0.146 0.324 0.198 0.575 0.167 0.094-0.031 0.157-0.073 0.188-0.114 0.031-0.021 0.052-0.031 0.063-0.052s0.032-0.031 0.063-0.052c0.052-0.083 0.115-0.104 0.188-0.073 0.084 0.021 0.147 0.021 0.209 0.021h0.178c0.084-0.031 0.105-0.011 0.073 0.073 0 0.146-0.042 0.281-0.115 0.406-0.021 0.062-0.063 0.135-0.146 0.219-0.146 0.115-0.251 0.239-0.324 0.375s-0.136 0.292-0.178 0.469v0.146c0 0.052 0.021 0.083 0.073 0.094 0.052 0 0.105 0.021 0.167 0.052 0.115 0.031 0.219 0.063 0.324 0.083s0.209 0.052 0.324 0.083c0.094 0.031 0.157 0.052 0.167 0.052 0 0.021 0.011 0.021 0.021 0.021-0.021 0.021-0.031 0.021-0.052 0.021-0.084 0-0.157-0-0.23-0.011s-0.147-0.010-0.23-0.010h-0.491c-0.073 0-0.147 0.011-0.23 0.021-0.084 0.031-0.157 0.031-0.22 0-0.084-0.021-0.157-0.021-0.23-0.021s-0.147-0.011-0.23-0.021h-0.481c0.021-0.021 0.032-0.021 0.053-0.021 0-0.031 0.042-0.063 0.136-0.104 0.084-0.042 0.199-0.073 0.324-0.104 0.052 0 0.115-0.021 0.22-0.052 0.063 0 0.094-0.031 0.094-0.093 0.021-0.156-0.021-0.323-0.115-0.479-0.031-0.052-0.073-0.093-0.115-0.146-0.052-0.052-0.084-0.094-0.115-0.146-0.126-0.156-0.261-0.333-0.387-0.531-0.021-0.083-0.021-0.219-0.021-0.427v-0.043c-0.007-0.003-0.015-0.004-0.021-0.009v-0.052zM15.487 20.277h0.533v0.010c0.063 0.062 0.126 0.115 0.178 0.167s0.115 0.104 0.178 0.167c0.021 0.021 0.021 0.031 0.021 0.031 0 0.010 0.011 0.021 0.021 0.031 0 0.031-0.021 0.063-0.052 0.094-0.052 0.021-0.115 0.021-0.22 0.021-0.031 0-0.073 0-0.105-0.010-0.042-0.010-0.073-0.010-0.104-0.010-0.115-0.021-0.22-0.021-0.335 0-0.115 0-0.199 0.010-0.261 0.021-0.094 0-0.167-0.010-0.22-0.021-0.063-0.021-0.157-0.052-0.293-0.115-0.052-0.052-0.052-0.073 0-0.073 0.063-0.031 0.105-0.052 0.115-0.073 0.146-0.052 0.293-0.115 0.429-0.219 0.031-0.021 0.073-0.021 0.115-0.021z"></path>
<path d="M11.148 11.202c-0.64 3.369-2.401 6.818-3.201 8.121 4.702-3.609 5.402-9.625 7.402-9.826s2.483 2.406 3.701 4.712c0.9 1.704 2.467 3.142 3.401 3.509-0.433-1.003-1.541-3.85-2.501-7.219-1.2-4.211-3.401-4.712-4.001-4.813s-4.001 2.106-4.802 5.514z"></path>
<path d="M8.416 24.632c-0.8 0-1.601-0.601-2.101-1.604 1.801 1.303 3.401 0.896 4.802 0.401 1.908-0.675 3.801-0.802 4.201 0.602-0.2-0.1-1.646-0.545-2.801-0.1-1.3 0.501-3.301 0.702-4.101 0.702z"></path>
<path d="M20.713 24.317c-2.556-0.849-4.453-0.588-4.753-0.287 0.217-0.544 1.137-1.36 3.823-0.301 3.395 1.338 4.703 0.033 5.27-0.301-0.4 0.568-1.86 1.712-4.34 0.889z"></path>
</svg>
