<!-- Generated by IcoMoon.io -->
<svg version="1.1" xmlns="http://www.w3.org/2000/svg" width="32" height="32" viewBox="0 0 32 32">
<title>token_elder_thing_fill</title>
<path d="M16 3.053l-2.836 2.836c-0.002-0.001-0.012-0.003-0.014-0.004l-0.065-0.021h-0.178l-0.84 0.244v0.156c-0.041 0.049-0.104 0.094-0.138 0.144l0.053-0.064-0.041 0.041-0.018 0.024c-0.092 0.122-0.175 0.235-0.243 0.337l-0.005 0.008-0.005 0.009c-0.006 0.011-0.009 0.014-0.020 0.030-0.005 0.008-0.013 0.018-0.030 0.046-0.001 0.001-0.002 0.003-0.002 0.005h-4.776v5.368l-3.789 3.789 3.789 3.789v5.368h5.368l3.789 3.789 3.789-3.789h5.368v-5.368l0.652-0.652c0.012-0.006 0.023-0.011 0.036-0.017l0.060-0.030 0.051-0.050c0.009-0.007 0.019-0.015 0.026-0.021 0.055-0.055 0.078-0.101 0.096-0.141 0.002-0.004 0.002-0.007 0.003-0.011l2.866-2.866-2.539-2.539v-0.251h-0.251l-0.999-0.999v-1.028h0.061l0.088-0.044c0.035-0.018 0.067-0.030 0.104-0.045h0.091l0.121-0.121c0.057-0.031 0.107-0.067 0.161-0.121l0.087-0.086 0.027-0.044c0.030-0.050 0.060-0.099 0.090-0.149 0.035-0.058 0.061-0.111 0.086-0.162 0.039-0.047 0.065-0.116 0.086-0.204l0.013-0.019-0.007 0.042c0-0.001 0.001-0.004 0.008-0.021 0.001-0.003 0.004-0.029 0.006-0.032l0.047-0.070v-0.128c0-0.013-0-0.012-0-0.011 0.022-0.096 0.020-0.17 0.020-0.218v-0.035c0.009-0.055 0.020-0.111 0.020-0.194v-0.178c0-0.010 0.005-0.071-0.025-0.159-0.010-0.030-0.026-0.055-0.040-0.080v-0c-0.008-0.014-0.015-0.029-0.023-0.042-0.033-0.061-0.069-0.12-0.124-0.176l0.051 0.063c0.017 0.025 0.006-0.005-0.050-0.089h0c0.009 0.014-0.017-0.030-0.028-0.051v-0.001l0.005 0.008c-0.003-0.005-0.002-0.005-0.005-0.009v-0.088l-0.111-0.109c-0.018-0.024-0.034-0.053-0.053-0.072l-0.001-0.001c0.002 0.002-0.039-0.043-0.086-0.114l-0.125-0.187h-0.148c-0.012-0.005-0.044-0.023-0.049-0.025h-0l-0-0c-0.065-0.032-0.078-0.039-0.054-0.023l-0.106-0.070h-0.052c-0.003-0.001-0.008-0.006-0.010-0.006-0.040-0.010-0.058-0.011-0.076-0.013v-1.255h-3.586c0.007-0.031 0.011-0.064 0.011-0.102 0-0.020-0.005 0.011 0.007-0.036l-0.009 0.030c0.005-0.016 0.014-0.082 0.024-0.128l0.037-0.056v-0.336h-0.002c-0.003-0.13-0.043-0.213-0.090-0.278-0.013-0.033-0.028-0.062-0.046-0.090-0.031-0.090-0.076-0.169-0.135-0.229l-0.123-0.123h-0.008c-0.015-0.015-0.038-0.045-0.049-0.056l-0.099-0.099-0.079-0.011-0.102-0.122h-0.152c-0.003-0.001-0.008-0.006-0.010-0.006-0.018-0.004-0.009-0-0.022-0.002l-0.243-0.081h-0.019c-0.056-0.013-0.11-0.018-0.154-0.013-0.019 0.002-0.024 0.012-0.041 0.016-0.012 0.001-0.014-0.001-0.034 0.002-0.006 0.001-0.024 0.014-0.032 0.016h-0.024l-0.026 0.003c-0.084 0.010-0.133 0.017-0.178 0.017h-0.17l-0.050 0.020h-0.41v0.178c-0.013 0.008-0.025 0.014-0.037 0.021h-0.085l-0.173 0.172c-0.013 0.013-0.019 0.016-0.019 0.015-0.071 0.044-0.096 0.081-0.12 0.104l-0.079 0.079-0.023 0.035c-0.016 0.024-0.021 0.034-0.030 0.049l-2.778-2.778zM20.202 5.139c-0.020 0.003-0.053 0.030-0.081 0.039-0.006 0.004-0.019 0.005-0.024 0.009 0.031-0.010 0.079-0.045 0.093-0.046 0.026-0.003 0.020-0.002 0.012-0.001zM20.050 5.203c-0.019 0.007-0.039 0.018-0.063 0.039 0.025-0.021 0.044-0.032 0.063-0.039zM20.92 5.305c0.013 0.010 0.018 0.003 0.031 0.016l0.002 0.004c-0.012-0.012-0.020-0.010-0.032-0.020zM20.091 5.829c0.002 0.002 0.003 0 0.005 0.002-0.001-0.001-0.003-0-0.005-0.002 0 0 0-0 0-0zM20.562 5.848c-0.058 0.057-0.092 0.054-0.136 0.067l-0.003-0.001c0.048-0.018 0.085-0.013 0.139-0.066zM20.413 5.919c0.001 0.001 0.002 0.001 0.002 0.002-0.006 0.002-0.013 0.008-0.018 0.009-0.001-0.001-0.002-0.001-0.003-0.002 0.006-0.002 0.012-0.007 0.019-0.009zM20.367 5.941c0.001 0 0.003 0.002 0.004 0.002-0.004 0.001-0.013 0.008-0.016 0.008l-0.006-0.001c0.005-0.001 0.013-0.007 0.018-0.009zM20.335 5.956l0.005 0.002c-0 0-0.001 0-0.001 0-0.026 0.003-0.019 0.002-0.012 0.001 0.002-0 0.005-0.003 0.007-0.003zM20.327 5.96h0.019l0.187 0.062c0.034 0.025 0.070 0.043 0.11 0.063 0.023 0.031 0.040 0.048 0.058 0.067v0.049l0.050 0.050v0.059l0.050 0.050v0.063l0.015-0.049 0.003 0.003c-0.006 0.046-0.038 0.122-0.038 0.134 0-0.065 0.012-0.075 0.001-0.043l-0.005 0.015-0.004 0.015c-0.012 0.047-0.009 0.062-0.014 0.102-0.041 0.059-0.088 0.12-0.107 0.174l-0.005 0.016-0.001 0.003c-0.001 0.003-0.005 0.011-0.015 0.028l-0.013 0.021h-0.83l-0.349-0.349v-0.12c0.002-0.006 0.025-0.042 0.018-0.033 0.040-0.059 0.035-0.058 0.035-0.063l0.012-0.011c0.005-0.005-0.011 0.006-0.007 0.003-0.001 0 0.012-0.021 0.009-0.016 0.020-0.013 0.030-0.022 0.043-0.033h-0.033l0.088-0.044c0.003-0.002 0.004-0.003 0.007-0.004 0.006-0.007 0.027-0.020 0.032-0.025l-0.016 0.016c0.064-0.033 0.121-0.065 0.164-0.091 0.039-0.024 0.054-0.034 0.077-0.050h0.046l0.050-0.020h0.009c0.106 0 0.188-0.012 0.26-0.021 0.015 0 0.024 0.001 0.059-0.003 0.006-0.001 0.024-0.014 0.032-0.016zM20.454 5.963c0.010 0.005 0.017 0.009 0.026 0.013 0.004 0.004 0.008 0.007 0.013 0.011-0.012-0.004-0.026-0.017-0.039-0.024zM20.871 6.19c-0.007 0.010-0.001 0.014-0.007 0.024h-0l0.007-0.024zM20.861 6.224h0.001c-0.005 0.010-0.002 0.014-0.007 0.024l-0.001-0.001 0.007-0.023zM19.507 6.252l-0.016 0.020c0.004-0.001 0.024-0.012-0.025 0.012 0.027-0.014 0.022-0.019 0.041-0.032zM19.46 6.274c0 0.081-0.001 0.048-0.001 0.037v0c-0-0.006-0.004 0.027-0.001 0.017l-0.018 0.037v-0.011l-0.009 0.030-0.006 0.013c0.005-0.040 0.036-0.115 0.036-0.123zM20.839 6.298l0.002 0.002c-0.002 0.008-0.003 0.012-0.005 0.020-0.001-0.001-0.001-0.003-0.002-0.004l0.005-0.018zM19.427 6.395l-0.020 0.065-0.001-0.001c0.005-0.017 0.013-0.036 0.016-0.055 0.003-0.005 0.002-0.005 0.005-0.009zM20.949 6.695c0.012-0 0.014 0.001 0.013 0.001-0.035 0-0.083 0.030-0.129 0.044 0.015-0.006 0.032-0.032 0.044-0.034 0.038-0.008 0.060-0.011 0.072-0.011zM20.66 6.831c-0.003 0.004-0.003 0.008-0.004 0.011h-0.002l0.001-0.002 0-0.001c0.002-0.003 0.003-0.005 0.005-0.008zM25.671 8.336c0.009 0.007 0.016 0.002 0.023 0.010l0.002 0.006c-0.009-0.010-0.016-0.008-0.026-0.016zM25.167 8.865c0 0.048 0.020 0.054 0.030 0.089l-0.021-0.011c-0.005-0.033-0.009-0.078-0.009-0.078zM25.185 8.979c0.011 0.005 0.014 0.006 0.025 0.010 0.001 0.003 0.002 0.007 0.003 0.010-0.009-0.004-0.017-0.011-0.027-0.016-0-0.002-0.001-0.003-0.002-0.005zM25.158 9.002l0.018 0.012c0.020 0.025 0.041 0.055 0.060 0.076 0.003 0.005 0.006 0.027 0.008 0.032 0.016 0.032 0.026 0.049 0.037 0.070l0.012 0.024 0.015 0.022c-0.017-0.025-0.007 0.005 0.050 0.089-0.017-0.025-0.006 0.005 0.050 0.089l0.018 0.027v0.076c0 0.013-0.004 0.050-0.014 0.108l-0.006 0.035v0.085c0 0.050-0.004 0.052 0.002 0.028-0.015 0.060-0.014 0.098-0.015 0.138l-0.008 0.008c0 0 0.002-0.013 0.002-0.012s-0.004 0.012-0.006 0.016l-0.010 0.010-0.031 0.061c-0.030 0.060-0.057 0.112-0.074 0.14-0.021 0.035-0.042 0.070-0.063 0.105l-0.013 0.013c0.001-0.001 0.008-0.005 0.009-0.006-0.001 0.001-0.002 0.003-0.002 0.004-0.014 0.008-0.027 0.019-0.039 0.029v-1.28zM25.204 9.033l0.021 0.014c0.004 0.008 0.005 0.029 0.009 0.035-0.009-0.013-0.016-0.017-0.025-0.035-0.002-0.004-0.003-0.010-0.005-0.014zM26.189 10.096l-0.003 0.017c-0.003 0.015-0.006 0.019-0.010 0.036 0.002-0.021 0.013-0.030 0.013-0.053zM25.222 10.235c-0.004 0.002-0.006 0.006-0.010 0.007l0.002-0.002c0.004-0.002-0-0.001 0.007-0.005l0.001-0zM25.225 11.157c-0.030 0.012-0.049 0.015-0.067 0.018v-0.001c0.021-0.004 0.042-0.007 0.067-0.016z"></path>
</svg>
