<!-- Generated by IcoMoon.io -->
<svg version="1.1" xmlns="http://www.w3.org/2000/svg" width="32" height="32" viewBox="0 0 32 32">
<title>token_tablet_sealed</title>
<path d="M15.996 21.633l-0.031-0.031c0-0.031-0.012-0.043-0.043-0.043h-0.179c-0.031 0-0.062 0.006-0.080 0.012-0.012 0.012-0.019 0.012-0.031 0.012s-0.025 0.006-0.043 0.012c-0.031 0-0.049 0.012-0.056 0.031-0.012 0.018-0.031 0.037-0.068 0.055-0.018 0-0.043 0-0.068 0.006-0.031 0.006-0.049 0.006-0.068 0.006-0.031 0.012-0.056 0.012-0.086 0.012s-0.056 0.006-0.086 0.012c-0.018 0-0.037-0.012-0.056-0.031l-0.043-0.043c-0.086-0.018-0.154-0.018-0.198 0-0.018 0.012-0.031 0.018-0.037 0.031s-0.018 0.025-0.037 0.043c-0.012 0.012-0.018 0.012-0.031 0.012-0.019 0.012-0.043 0.012-0.062 0.012-0.025 0-0.043 0.006-0.062 0.012-0.031 0.012-0.062 0.012-0.093 0.012s-0.074 0.006-0.123 0.012h-0.086c-0.105-0.031-0.191-0.031-0.272-0.012l-0.012-0.012c-0.018-0.018-0.037-0.049-0.056-0.086-0.031-0.068-0.080-0.092-0.154-0.068-0.019 0-0.037 0.012-0.056 0.031-0.037 0.018-0.068 0.043-0.099 0.068-0.018 0.018-0.043 0.031-0.068 0.031-0.018 0-0.031 0.012-0.043 0.031 0 0.037-0.018 0.049-0.056 0.031h-0.043c-0.031-0.031-0.062-0.043-0.093-0.049s-0.068-0.012-0.105-0.018l-0.031 0.012c0 0.031-0.012 0.043-0.031 0.043-0.037 0.012-0.086 0.012-0.142 0.012-0.037 0.012-0.068 0.018-0.093 0.018-0.025 0.006-0.062 0.006-0.105 0.006 0 0.012-0.006 0.012-0.018 0.006s-0.019-0.012-0.019-0.018v-0.074c0-0.012-0.012-0.012-0.043-0.012-0.049 0-0.074 0.006-0.086 0.012 0 0.018-0.006 0.031-0.012 0.043-0.012 0.012-0.018 0.025-0.031 0.043-0.012 0.037-0.031 0.055-0.068 0.055l-0.012-0.012c0.012-0.031 0.012-0.049 0.012-0.068s0.006-0.037 0.012-0.055c0-0.012-0.006-0.018-0.012-0.031-0.012-0.012-0.018-0.012-0.031 0-0.031 0-0.049 0.012-0.068 0.031-0.012 0-0.025 0.012-0.043 0.031-0.012 0.018-0.018 0.043-0.031 0.068-0.012 0.031-0.019 0.049-0.031 0.068s-0.031 0.031-0.056 0.031h-0.123c-0.012 0-0.012-0.006-0.012-0.012v-0.098c0.031-0.092 0.012-0.191-0.056-0.283 0-0.012-0.012-0.025-0.031-0.043-0.019-0.037-0.031-0.068-0.031-0.099-0.012-0.018-0.012-0.043-0.012-0.068 0-0.031-0.006-0.055-0.012-0.086-0.012-0.018-0.012-0.043-0.012-0.061 0-0.025-0.012-0.049-0.031-0.080-0.018-0.049-0.031-0.098-0.043-0.16s-0.012-0.129-0.012-0.203c0-0.037-0.012-0.092-0.031-0.172-0.019-0.037-0.031-0.080-0.037-0.123s-0.012-0.080-0.018-0.105c-0.019-0.055-0.031-0.105-0.031-0.141 0.012-0.049 0-0.105-0.031-0.172-0.019-0.068-0.025-0.117-0.012-0.154 0-0.037-0.012-0.092-0.031-0.172-0.018-0.037-0.031-0.068-0.031-0.098-0.031-0.086-0.037-0.16-0.031-0.227 0.012-0.055 0.012-0.105 0-0.141-0.012-0.068-0.018-0.129-0.018-0.184-0.006-0.055-0.006-0.111-0.006-0.154 0-0.037-0.006-0.068-0.012-0.086-0.012-0.111-0.037-0.234-0.086-0.369 0-0.055 0.012-0.092 0.031-0.111 0.012-0.068 0.012-0.129 0-0.184 0-0.018-0.006-0.037-0.012-0.055-0.012-0.018-0.012-0.037-0.012-0.055v-0.086c-0.018-0.049-0.031-0.111-0.043-0.197s-0.006-0.166 0.012-0.24c0.012-0.018 0.012-0.037 0.006-0.049s-0.006-0.031-0.006-0.049c-0.031-0.049-0.043-0.098-0.049-0.148s-0.006-0.098-0.006-0.148c-0.019-0.037-0.031-0.074-0.031-0.105s-0.006-0.068-0.012-0.105v-0.129c0.012-0.037 0.012-0.086 0-0.141-0.012-0.037-0.019-0.074-0.031-0.111s-0.012-0.080-0.012-0.129c-0.012-0.049-0.018-0.111-0.018-0.184-0.006-0.074-0.018-0.129-0.037-0.172-0.012-0.049-0.012-0.098-0.012-0.148v-0.148c-0.012-0.037-0.012-0.074-0.012-0.111v-0.129c0-0.049 0-0.092 0.006-0.141s0-0.092-0.006-0.141c-0.031-0.055-0.031-0.111 0-0.172 0.012-0.037 0.012-0.080 0-0.129-0.019-0.037-0.031-0.080-0.031-0.123s0.012-0.117 0.031-0.221c0.018-0.031 0.018-0.062 0-0.098-0.037-0.086-0.037-0.154 0-0.209 0-0.018 0-0.031 0.006-0.037s0.006-0.018 0.006-0.037c0-0.068 0-0.129 0.006-0.184s0-0.117-0.018-0.184c-0.031-0.074-0.025-0.135 0.012-0.184 0.012-0.055 0.012-0.111 0-0.172 0-0.055 0.012-0.098 0.043-0.129 0.018-0.049 0.037-0.105 0.056-0.178 0.018-0.068 0.037-0.129 0.056-0.178 0.068-0.031 0.13-0.043 0.185-0.043 0.018 0 0.031 0.006 0.043 0.012 0.012 0 0.019 0.006 0.031 0.012 0.031 0.018 0.062 0.031 0.093 0.043s0.062 0.025 0.093 0.043c0.049 0 0.093 0.018 0.142 0.049s0.093 0.074 0.142 0.123c0.049 0.055 0.111 0.092 0.198 0.111 0.049 0.018 0.093 0.037 0.13 0.055s0.080 0.037 0.13 0.055c0.049 0.018 0.093 0.031 0.136 0.043s0.093 0.018 0.148 0.031c0.031 0.012 0.056 0.018 0.080 0.031s0.043 0.018 0.062 0.031c0.105 0.068 0.198 0.111 0.284 0.129 0.068 0.031 0.13 0.055 0.185 0.086s0.111 0.068 0.173 0.111c0.031 0.031 0.068 0.043 0.13 0.043 0.037 0 0.086 0.018 0.142 0.055 0.037 0.049 0.093 0.074 0.173 0.086 0.018 0.012 0.043 0.018 0.068 0.018 0.031 0.006 0.068 0.018 0.111 0.037 0.068 0.049 0.123 0.080 0.173 0.105s0.093 0.043 0.142 0.062c0.105 0.055 0.191 0.117 0.272 0.184 0.037 0.037 0.074 0.092 0.111 0.154 0.037 0.068 0.080 0.111 0.13 0.129l0.086 0.043c0.018 0.018 0.043 0.037 0.068 0.049s0.049 0.031 0.068 0.049c0.049 0.049 0.093 0.074 0.142 0.086 0.056 0.018 0.093 0.031 0.099 0.031 0.049 0.018 0.111 0.037 0.185 0.055s0.13 0.049 0.154 0.086c0.018 0.018 0.049 0.037 0.086 0.055 0.093 0.037 0.167 0.074 0.21 0.111 0.018 0.018 0.037 0.031 0.056 0.037s0.037 0.012 0.056 0.018 0.068 0.018 0.093 0.037c0.025 0.012 0.043 0.031 0.062 0.049s0.037 0.031 0.056 0.043c0.019 0.012 0.037 0.025 0.056 0.043 0.031 0.018 0.056 0.037 0.086 0.049s0.056 0.025 0.086 0.037c0.056 0.031 0.099 0.062 0.13 0.098 0.012 0.031 0.031 0.049 0.056 0.055 0.056 0.074 0.117 0.129 0.185 0.172 0.037 0.037 0.093 0.092 0.173 0.172 0.074 0.074 0.123 0.135 0.142 0.184 0.018 0.037 0.037 0.068 0.056 0.098s0.043 0.055 0.068 0.086c0.037 0.031 0.068 0.061 0.093 0.098s0.043 0.074 0.062 0.111c0.018 0.031 0.037 0.055 0.056 0.086s0.037 0.055 0.056 0.086c0.031 0.037 0.049 0.074 0.056 0.111 0.019 0.092 0.049 0.154 0.086 0.184 0.037 0.037 0.056 0.074 0.056 0.111s0.006 0.068 0.018 0.098c0.012 0.031 0.031 0.055 0.049 0.086 0.068 0.178 0.099 0.326 0.099 0.437 0 0.074 0.025 0.16 0.068 0.252 0.018 0.049 0.031 0.092 0.043 0.135s0.019 0.086 0.031 0.135c0.012 0.049 0.018 0.092 0.031 0.135s0.012 0.086 0.012 0.135c0 0.018 0.012 0.055 0.031 0.111 0.012 0.055 0.025 0.129 0.043 0.209 0 0.037 0 0.068 0.006 0.098s0.006 0.061 0.006 0.098c0 0.049 0 0.092 0.006 0.129s0.012 0.074 0.018 0.111c0.012 0.018 0.012 0.043 0.012 0.068 0 0.031 0.006 0.055 0.012 0.086 0 0.031 0.012 0.080 0.031 0.154 0.012 0.031 0.012 0.068 0.012 0.129v0.129c0 0.086 0.012 0.16 0.043 0.227 0.018 0.105 0.031 0.203 0.043 0.301s0.006 0.203-0.012 0.32v0.031c0 0.074-0.006 0.123-0.012 0.148-0.012 0.025-0.025 0.061-0.043 0.105l-0.043 0.086c-0.018 0.031-0.037 0.043-0.056 0.043h-0.154c-0.056 0.012-0.111 0-0.154-0.031-0.018-0.012-0.049-0.012-0.086-0.012-0.037 0.012-0.093 0.012-0.173 0.012h-0.185c-0.056 0-0.093 0.006-0.111 0.012-0.037 0.012-0.093 0.012-0.173 0.012h-0.296c-0.049 0-0.068 0.018-0.068 0.055l-0.031 0.031c-0.019 0.018-0.031 0.031-0.043 0.031-0.068 0.012-0.13 0.018-0.185 0.037-0.056 0.012-0.117 0.031-0.185 0.049-0.012 0-0.025-0.012-0.043-0.031v-0.055c-0.012 0-0.012 0-0.012-0.006s-0.006-0.006-0.012-0.006c-0.031 0-0.049 0.012-0.056 0.031-0.012 0.012-0.018 0.018-0.018 0.031-0.006 0.012-0.012 0.018-0.019 0.031 0 0.018-0.012 0.031-0.031 0.031s-0.037 0-0.056 0.006c-0.018 0.006-0.037 0.006-0.056 0.006h-0.018c-0.019-0.018-0.031-0.031-0.043-0.031l-0.043 0.043c-0.018 0.018-0.043 0.031-0.068 0.031-0.086 0-0.173 0.018-0.259 0.043zM17.527 15.368c-0.037-0.018-0.093-0.037-0.173-0.049-0.074-0.012-0.13-0.031-0.173-0.049-0.086-0.055-0.173-0.117-0.259-0.178-0.093-0.062-0.173-0.129-0.247-0.203-0.018-0.018-0.043-0.037-0.062-0.055-0.025-0.018-0.049-0.037-0.080-0.055-0.031-0.086-0.056-0.141-0.086-0.16-0.031-0.025-0.062-0.043-0.099-0.062-0.019-0.012-0.037-0.018-0.056-0.031s-0.037-0.025-0.056-0.043c-0.037-0.049-0.080-0.086-0.13-0.111-0.049-0.031-0.086-0.068-0.111-0.111-0.018-0.018-0.043-0.031-0.068-0.043-0.031-0.012-0.086-0.025-0.173-0.043-0.056-0.018-0.105-0.037-0.142-0.055-0.074-0.055-0.142-0.092-0.198-0.098-0.123-0.037-0.247-0.092-0.37-0.172-0.031-0.018-0.056-0.031-0.080-0.043s-0.049-0.025-0.080-0.043c-0.074-0.018-0.142-0.049-0.191-0.092s-0.099-0.086-0.148-0.135c-0.056-0.068-0.154-0.123-0.296-0.172-0.049-0.031-0.074-0.068-0.086-0.129-0.018-0.049-0.043-0.086-0.062-0.111-0.025-0.031-0.043-0.055-0.062-0.086-0.037-0.031-0.074-0.049-0.111-0.068-0.068-0.012-0.117-0.043-0.154-0.098-0.031-0.031-0.068-0.061-0.13-0.098-0.049-0.012-0.086-0.031-0.111-0.068-0.037-0.031-0.074-0.055-0.105-0.080s-0.068-0.049-0.105-0.080c-0.049-0.031-0.093-0.062-0.142-0.092s-0.099-0.062-0.154-0.092c-0.012-0.012-0.018-0.018-0.031-0.018-0.012-0.006-0.018-0.018-0.031-0.037-0.049-0.031-0.099-0.055-0.148-0.080s-0.099-0.043-0.148-0.062c-0.031-0.012-0.049-0.031-0.056-0.055-0.019-0.037-0.031-0.068-0.031-0.086-0.012-0.012-0.012-0.025-0.012-0.043 0.012-0.037 0.018-0.080 0.018-0.129 0.006-0.049 0.019-0.098 0.037-0.154 0.018-0.031 0.037-0.061 0.049-0.098s0.037-0.068 0.080-0.098c0.074-0.074 0.148-0.148 0.222-0.221 0.068-0.068 0.13-0.141 0.179-0.221 0.037-0.068 0.086-0.129 0.142-0.184 0.049-0.049 0.086-0.092 0.111-0.141 0.031-0.049 0.062-0.092 0.099-0.141 0.031-0.049 0.062-0.098 0.093-0.16s0.068-0.123 0.105-0.178c0.018-0.018 0.031-0.037 0.043-0.055s0.025-0.037 0.043-0.055c0.031-0.031 0.056-0.061 0.086-0.092s0.056-0.062 0.086-0.092c0.037-0.031 0.086-0.068 0.142-0.129 0.049-0.031 0.099-0.049 0.148-0.068s0.13-0.037 0.235-0.055c0.056-0.018 0.111-0.037 0.161-0.055s0.105-0.037 0.161-0.055c0.074-0.049 0.148-0.074 0.228-0.086 0.037-0.018 0.074-0.037 0.111-0.049s0.074-0.037 0.111-0.062c0.056-0.031 0.111-0.055 0.173-0.086 0.056-0.031 0.111-0.049 0.173-0.068 0.037-0.018 0.068-0.031 0.099-0.031 0.031-0.012 0.080-0.018 0.154-0.018 0.074-0.006 0.13-0.018 0.154-0.037 0.018-0.012 0.031-0.012 0.043-0.012s0.025-0.006 0.043-0.012c0.018 0 0.037 0 0.056-0.006s0.037-0.006 0.056-0.006c0.074 0 0.148-0.006 0.222-0.012 0.068-0.012 0.142-0.018 0.222-0.031h0.111c0.111 0.018 0.222 0 0.327-0.055 0.031-0.012 0.074-0.012 0.142-0.012h0.253c0.056 0 0.111-0.012 0.154-0.031 0.037-0.018 0.093-0.031 0.173-0.031 0.068 0.031 0.13 0.037 0.198 0.031h0.012c0.018 0.012 0.037 0.012 0.049 0.012s0.031 0.006 0.049 0.012c0.056 0.018 0.111 0.031 0.173 0.043 0.056 0.012 0.111 0.031 0.173 0.055 0.123 0.055 0.265 0.117 0.426 0.184 0.068 0.031 0.123 0.049 0.161 0.068 0.043 0.018 0.080 0.037 0.123 0.055l0.173 0.086c0.086 0.049 0.167 0.123 0.241 0.227 0.018 0.031 0.037 0.055 0.062 0.086s0.043 0.055 0.062 0.086c0.012 0.018 0.012 0.043 0.012 0.068-0.012 0.049-0.018 0.092-0.018 0.141-0.006 0.049-0.019 0.092-0.037 0.141-0.018 0.055-0.031 0.111-0.043 0.16s-0.018 0.098-0.031 0.148c0 0.092-0.025 0.178-0.068 0.252-0.031 0.074-0.056 0.154-0.086 0.234s-0.068 0.16-0.111 0.234c-0.012 0.018-0.019 0.043-0.019 0.068-0.006 0.031-0.012 0.049-0.018 0.068-0.018 0.037-0.031 0.074-0.037 0.105s-0.018 0.074-0.037 0.123c-0.037 0.191-0.086 0.35-0.142 0.492-0.012 0.018-0.018 0.043-0.031 0.068-0.012 0.031-0.025 0.049-0.043 0.068-0.056 0.049-0.086 0.092-0.086 0.129 0 0.049-0.037 0.111-0.111 0.184-0.018 0.018-0.037 0.037-0.049 0.049s-0.025 0.031-0.037 0.049c-0.019 0.037-0.037 0.086-0.056 0.141-0.019 0.049-0.043 0.092-0.068 0.141-0.037 0.055-0.068 0.111-0.086 0.154-0.018 0.055-0.037 0.111-0.049 0.172-0.012 0.055-0.025 0.105-0.037 0.141-0.012 0.031-0.012 0.068-0.012 0.129-0.012 0.049-0.018 0.098-0.031 0.148s-0.025 0.098-0.043 0.148c-0.012 0.012-0.025 0.049-0.043 0.111-0.019 0.055-0.037 0.092-0.056 0.111-0.056 0.074-0.093 0.135-0.099 0.184-0.012 0.018-0.018 0.037-0.031 0.049s-0.018 0.031-0.031 0.049c-0.049 0.055-0.093 0.141-0.13 0.246-0.037 0.111-0.080 0.203-0.13 0.277-0.018 0.031-0.037 0.062-0.056 0.092s-0.043 0.062-0.068 0.092c-0.056 0.068-0.099 0.148-0.13 0.24-0.012 0.012-0.019 0.018-0.019 0.031-0.006 0.018-0.018 0.025-0.025 0.037zM20.151 11.273c0.018 0.037 0.037 0.062 0.056 0.068 0.012 0.031 0.043 0.062 0.099 0.098 0.074 0.037 0.142 0.092 0.198 0.172 0.049 0.086 0.074 0.129 0.086 0.129 0.031 0.068 0.056 0.123 0.080 0.178 0.025 0.049 0.043 0.098 0.062 0.148 0.037 0.074 0.068 0.129 0.086 0.154 0.018 0.018 0.031 0.043 0.037 0.061 0.006 0.025 0.018 0.043 0.037 0.062 0.037 0.068 0.068 0.129 0.099 0.191s0.062 0.129 0.099 0.203c0.018 0.031 0.037 0.062 0.062 0.092s0.043 0.062 0.062 0.092c0.031 0.049 0.049 0.105 0.055 0.172 0.012 0.031 0.012 0.062 0.012 0.098s0.006 0.068 0.012 0.098c0.018 0.049 0.031 0.098 0.043 0.148s0.018 0.098 0.031 0.148c0.012 0.055 0.019 0.111 0.019 0.16 0.006 0.049 0.012 0.105 0.018 0.16 0 0.055 0.012 0.129 0.031 0.227 0.018 0.074 0.037 0.148 0.062 0.221 0.025 0.068 0.043 0.141 0.062 0.221 0.019 0.129 0.043 0.24 0.068 0.332 0.031 0.092 0.049 0.172 0.068 0.246v0.043c0.049 0.111 0.068 0.215 0.068 0.314 0 0.018 0.006 0.037 0.012 0.055 0.012 0.018 0.018 0.037 0.031 0.055 0.012 0.031 0.012 0.074 0.012 0.141v0.098c0 0.068 0.006 0.135 0.012 0.209 0.012 0.074 0.018 0.178 0.031 0.314 0.012 0.037 0.012 0.074 0.012 0.105s0.012 0.068 0.031 0.105v0.068c0.018 0.055 0.018 0.123 0 0.197 0 0.055 0.006 0.098 0.012 0.129 0 0.055-0.006 0.098-0.012 0.129 0 0.018-0.006 0.043-0.012 0.061-0.012 0.025-0.012 0.049-0.012 0.080 0.019 0.037 0.019 0.068 0.006 0.098s-0.025 0.061-0.037 0.098c0 0.018-0.012 0.031-0.043 0.031-0.031 0.012-0.056 0.012-0.086 0.012s-0.049 0.006-0.068 0.012c-0.018-0.018-0.031-0.031-0.031-0.043 0-0.049-0.031-0.055-0.099-0.031-0.012 0.012-0.043 0.031-0.099 0.068-0.049 0.031-0.080 0.037-0.099 0.031-0.031 0-0.049 0.006-0.068 0.012-0.018 0.012-0.037 0.025-0.056 0.043-0.037 0.055-0.080 0.086-0.123 0.086s-0.080-0.012-0.123-0.031c-0.031 0-0.049-0.018-0.068-0.055-0.018-0.031-0.049-0.043-0.099-0.043-0.037 0.012-0.105 0.012-0.198 0.012-0.031 0-0.049 0.031-0.056 0.086 0 0.037-0.031 0.074-0.086 0.111h-0.080c-0.031 0-0.062 0.012-0.080 0.031-0.049 0-0.093-0.031-0.13-0.086-0.018-0.031-0.031-0.031-0.043 0-0.012 0.037-0.025 0.074-0.043 0.111-0.018 0.012-0.049 0.012-0.086 0.012-0.093 0.031-0.173 0.006-0.228-0.068-0.031-0.055-0.056-0.055-0.086 0-0.018 0.055-0.049 0.098-0.099 0.129-0.037 0.037-0.068 0.061-0.086 0.068-0.012 0.012-0.018 0.012-0.018 0.012-0.006 0-0.012 0.006-0.019 0.012-0.037 0-0.062-0.012-0.068-0.031 0-0.018-0.018-0.031-0.056-0.031l-0.031 0.012c-0.018 0.037-0.037 0.068-0.056 0.086-0.056 0.018-0.099 0.031-0.13 0.031 0-0.012 0-0.018-0.006-0.018-0.006-0.006-0.006-0.012-0.006-0.018 0.012-0.018 0.012-0.037 0.012-0.061s0.006-0.043 0.012-0.061c0-0.037-0.006-0.061-0.012-0.068-0.031-0.086-0.049-0.16-0.062-0.227s-0.031-0.123-0.049-0.172c-0.018-0.068-0.062-0.123-0.13-0.172-0.086-0.105-0.148-0.203-0.191-0.301s-0.086-0.203-0.136-0.301c-0.018-0.037-0.031-0.061-0.031-0.068-0.018-0.074-0.037-0.129-0.056-0.172-0.018-0.018-0.031-0.049-0.043-0.086s-0.012-0.098-0.012-0.184c0-0.049-0.012-0.092-0.031-0.129-0.031-0.055-0.043-0.117-0.049-0.178s0-0.123 0.006-0.178c0.012-0.092 0.037-0.184 0.086-0.271 0.019-0.068 0.043-0.129 0.068-0.184 0.031-0.055 0.056-0.111 0.086-0.172 0.074-0.111 0.13-0.289 0.154-0.535 0-0.068 0.031-0.129 0.086-0.184 0.068-0.049 0.111-0.098 0.142-0.154 0.018-0.049 0.037-0.092 0.062-0.141s0.049-0.092 0.080-0.141c0.049-0.068 0.068-0.123 0.068-0.172 0.018-0.055 0.037-0.105 0.056-0.141 0.012-0.031 0.018-0.055 0.031-0.086s0.012-0.055 0.012-0.086c0.012-0.055 0.019-0.129 0.037-0.209 0.012-0.086 0.031-0.148 0.049-0.197 0.018-0.037 0.031-0.074 0.043-0.105s0.019-0.074 0.031-0.123 0.049-0.184 0.086-0.271c0.012-0.018 0.019-0.037 0.019-0.049 0.006-0.012 0.012-0.031 0.018-0.049 0.018-0.049 0.037-0.092 0.056-0.135s0.037-0.086 0.056-0.135c0.018-0.049 0.037-0.092 0.049-0.141s0.037-0.105 0.062-0.172c0.012-0.018 0.019-0.043 0.019-0.068 0.006-0.031 0.018-0.062 0.037-0.098 0.012-0.018 0.012-0.043 0.012-0.068s0.006-0.049 0.012-0.068c0.018-0.049 0.037-0.092 0.056-0.129s0.037-0.080 0.056-0.129c0.018-0.018 0.031-0.031 0.043-0.031 0.068 0.031 0.105 0.043 0.154 0.074z"></path>
</svg>
