<!-- Generated by IcoMoon.io -->
<svg version="1.1" xmlns="http://www.w3.org/2000/svg" width="32" height="32" viewBox="0 0 32 32">
<title>token_tablet_highlight</title>
<path d="M17.483 5.725c-0.029 0.005-0.049 0.011-0.067 0.008s-0.037-0.006-0.067 0.008c-0.041 0.022-0.126 0.027-0.237 0.019-0.11-0.017-0.185-0.019-0.233-0.008-0.046-0.007-0.095 0.004-0.154 0.023-0.096 0.013-0.182 0.028-0.272 0.060-0.099 0.031-0.187 0.054-0.276 0.087-0.061 0.028-0.121 0.056-0.179 0.065s-0.117 0.029-0.176 0.047c-0.122-0-0.237 0.019-0.359 0.075-0.087 0.014-0.173 0.029-0.251 0.045s-0.164 0.030-0.251 0.045c-0.16 0.003-0.283 0.012-0.361 0.028s-0.155 0.032-0.235 0.066c-0.097 0.078-0.178 0.122-0.241 0.159-0.053 0.038-0.097 0.078-0.15 0.117s-0.096 0.078-0.149 0.116c-0.032 0.023-0.054 0.048-0.077 0.072s-0.045 0.049-0.077 0.072c-0.068 0.073-0.137 0.156-0.197 0.24s-0.117 0.15-0.174 0.215c-0.066 0.064-0.122 0.121-0.179 0.187-0.048 0.067-0.113 0.122-0.198 0.184-0.095 0.069-0.183 0.149-0.253 0.241-0.092 0.107-0.2 0.202-0.317 0.287-0.127 0.092-0.254 0.185-0.381 0.277-0.071 0.036-0.115 0.075-0.142 0.127s-0.061 0.093-0.096 0.134c-0.040 0.078-0.070 0.148-0.091 0.22-0.011 0.073-0.030 0.135-0.057 0.187-0.004 0.027-0.007 0.046 0.008 0.067-0.004 0.027 0.007 0.076 0.026 0.135 0.003 0.038 0.027 0.070 0.069 0.095 0.069 0.039 0.138 0.078 0.206 0.125s0.135 0.096 0.201 0.153c0.014 0.030 0.020 0.050 0.037 0.062 0.018 0.003 0.026 0.013 0.042 0.035 0.075 0.058 0.142 0.115 0.208 0.172s0.123 0.113 0.189 0.17c0.048 0.054 0.097 0.099 0.137 0.143 0.019 0.021 0.043 0.046 0.065 0.068 0.112-0.221 0.23-0.458 0.264-0.674 0.003-0.021-0.001-0.042-0.010-0.060-0.096-0.187-0.098-0.214-0.097-0.322 0.001-0.040 0.023-0.076 0.058-0.097 0.219-0.132 0.419-0.379 0.508-0.586-0.144 0.397-0.213 0.516-0.329 0.621-0.035 0.032-0.048 0.082-0.027 0.125 0.049 0.1 0.105 0.192 0.143 0.249 0.016 0.024 0.023 0.055 0.016 0.083-0.045 0.185-0.16 0.533-0.353 0.833 0.016 0.009 0.030 0.020 0.049 0.028 0.083 0.069 0.131 0.123 0.169 0.176 0.042 0.091 0.108 0.148 0.206 0.182 0.051 0.036 0.101 0.072 0.149 0.126 0.020 0.050 0.042 0.091 0.072 0.142 0.022 0.041 0.050 0.101 0.066 0.178 0.004 0.094 0.032 0.155 0.098 0.212 0.199 0.106 0.333 0.21 0.399 0.324 0.062 0.084 0.125 0.16 0.188 0.235s0.157 0.136 0.262 0.181c0.041 0.034 0.075 0.059 0.109 0.083s0.067 0.048 0.109 0.082c0.165 0.147 0.335 0.258 0.509 0.341 0.081 0.022 0.173 0.092 0.27 0.192 0.051 0.036 0.119 0.075 0.197 0.115 0.124 0.047 0.203 0.079 0.246 0.104 0.034 0.024 0.068 0.048 0.091 0.079 0.027 0.070 0.073 0.133 0.139 0.19 0.068 0.048 0.123 0.113 0.167 0.194 0.023 0.032 0.048 0.054 0.072 0.077s0.051 0.036 0.076 0.058 0.092 0.070 0.132 0.114c0.041 0.034 0.065 0.122 0.091 0.257 0.041 0.034 0.074 0.068 0.106 0.101 0.023 0.032 0.055 0.065 0.079 0.097 0.093 0.127 0.196 0.245 0.319 0.358 0.114 0.111 0.228 0.222 0.343 0.324 0.060 0.037 0.138 0.078 0.245 0.113 0.116 0.037 0.194 0.077 0.245 0.113 0.012-0.017 0.031-0.023 0.045-0.049 0.003-0.018 0.014-0.026 0.035-0.041 0.067-0.13 0.149-0.238 0.248-0.326 0.044-0.040 0.088-0.080 0.122-0.121l0.104-0.124c0.090-0.098 0.176-0.225 0.257-0.38 0.051-0.094 0.104-0.174 0.158-0.239l-0.787-0.117c0.226-0.022 0.675-0.093 1.055-0.222 0.033-0.043 0.075-0.089 0.126-0.138 0.032-0.023 0.068-0.074 0.108-0.151 0.042-0.087 0.068-0.138 0.090-0.154 0.039-0.069 0.069-0.139 0.098-0.209s0.050-0.142 0.080-0.212c0.014-0.091 0.023-0.146 0.048-0.188 0.027-0.052 0.056-0.122 0.088-0.201 0.033-0.088 0.073-0.166 0.113-0.244 0.037-0.059 0.096-0.135 0.164-0.208 0.048-0.067 0.094-0.125 0.133-0.194 0.040-0.078 0.079-0.147 0.115-0.197 0.023-0.024 0.045-0.049 0.067-0.064s0.053-0.039 0.085-0.062c0.127-0.092 0.196-0.175 0.207-0.248 0.009-0.055 0.064-0.111 0.158-0.171 0.032-0.023 0.054-0.047 0.079-0.090 0.024-0.034 0.039-0.069 0.062-0.093 0.115-0.197 0.225-0.422 0.324-0.696 0.039-0.069 0.067-0.13 0.083-0.174s0.043-0.096 0.079-0.146c0.013-0.026 0.027-0.052 0.043-0.096 0.006-0.036 0.021-0.072 0.043-0.096 0.081-0.099 0.154-0.209 0.219-0.32s0.12-0.224 0.183-0.326c0.081-0.099 0.138-0.221 0.159-0.358 0.030-0.070 0.050-0.141 0.080-0.211s0.061-0.149 0.101-0.227c0.039-0.069 0.067-0.13 0.088-0.201 0.012-0.073 0.031-0.136 0.060-0.206 0.006-0.036 0.011-0.073-0.003-0.103-0.020-0.050-0.042-0.091-0.072-0.142s-0.051-0.092-0.072-0.142c-0.085-0.172-0.187-0.3-0.304-0.393l-0.236-0.168c-0.060-0.037-0.11-0.073-0.17-0.111-0.051-0.036-0.129-0.076-0.222-0.137-0.222-0.138-0.419-0.262-0.589-0.373-0.086-0.051-0.164-0.091-0.243-0.122-0.089-0.033-0.168-0.063-0.246-0.104-0.026-0.013-0.052-0.027-0.070-0.030s-0.046-0.008-0.071-0.030l-0.018-0.003c-0.102-0.007-0.192-0.030-0.286-0.091-0.093-0.014-0.16-0.011-0.215-0.002 0.103 0.261 0.076 0.562 0.041 0.704l-0.29 0.41c0.134 0.155 0.351 0.559 0.145 0.932 0-0.463-0.335-0.814-0.502-0.932 0.067-0.085 0.232-0.285 0.357-0.41 0-0.193-0.137-0.493-0.261-0.722l-0.149-0.023c-0.101-0.016-0.165-0.026-0.213-0.015-0.168 0.058-0.337 0.059-0.498 0.006l-0.165-0.026c-0.122-0-0.233-0.008-0.336-0.006-0.111-0.008-0.223-0.016-0.333-0.033-0.027-0.004-0.055-0.009-0.084-0.004s-0.056 0.001-0.083-0.004zM16.658 6.83c0.505-0.014 1.193 0.056 1.266 0.132 0.144 0.147 0.192 0.821 0.088 0.932-0.089 0.094-0.502-0.263-0.909-0.466-0.452-0.225-0.986-0.239-0.986-0.466 0-0.085 0.238-0.123 0.541-0.132zM15.079 8.266c0.222 0.027 0.576 0.218 1.123 0.319 0.739 0.136 1.683-0.077 1.683 0 0 0.22-1.054 0.97-1.829 0.837-0.189-0.032-0.052 0.444-0.136 0.924-0.092 0.524-0.475 1.192-0.658 1.138-0.222-0.065 0.094-0.842 0-1.498-0.101-0.706-0.462-1.607-0.364-1.683 0.047-0.037 0.107-0.046 0.181-0.037zM22.78 9.691c-0.018-0.003-0.039 0.012-0.071 0.035-0.039 0.069-0.076 0.128-0.112 0.178s-0.073 0.11-0.112 0.179c-0.013 0.026-0.028 0.061-0.034 0.097s-0.012 0.073-0.034 0.097c-0.036 0.050-0.061 0.093-0.078 0.137-0.006 0.036-0.021 0.072-0.043 0.096-0.052 0.095-0.101 0.171-0.131 0.241s-0.067 0.13-0.106 0.198c-0.039 0.069-0.076 0.128-0.114 0.188-0.033 0.052-0.066 0.106-0.099 0.164 0.229-0.005 0.512 0.018 0.761 0.132 0.114 0.063 0.346 0.026 0.447 0-0.057 0.035-0.226 0.134-0.447 0.25-0.011 0.116-0.1 0.276-0.143 0.342v-0.421c-0.138-0.099-0.483-0.102-0.743-0.084-0.061 0.103-0.116 0.211-0.157 0.323-0.030 0.070-0.049 0.132-0.074 0.175s-0.052 0.095-0.088 0.145c-0.039 0.069-0.081 0.155-0.119 0.28-0.046 0.114-0.072 0.222-0.103 0.301-0.007 0.046-0.013 0.082-0.039 0.125s-0.040 0.078-0.065 0.12c-0.036 0.050-0.075 0.119-0.115 0.197-0.011 0.073-0.052 0.15-0.141 0.239-0.057 0.066-0.104 0.124-0.152 0.191s-0.086 0.127-0.125 0.195c-0.059 0.075-0.134 0.138-0.246 0.195-0.095 0.069-0.155 0.153-0.171 0.254-0.094 0.359-0.217 0.61-0.353 0.757-0.060 0.084-0.11 0.16-0.168 0.235-0.049 0.076-0.1 0.162-0.143 0.258-0.093 0.116-0.151 0.247-0.191 0.381-0.022 0.081-0.045 0.17-0.051 0.263s-0.001 0.187 0.032 0.276c0.019 0.059 0.027 0.126 0.016 0.199-0.020 0.128-0.034 0.219-0.024 0.276s0.021 0.106 0.044 0.138c0.017 0.068 0.032 0.154 0.043 0.268-0.001 0.009 0.011 0.048 0.030 0.107 0.050 0.157 0.090 0.322 0.132 0.478s0.11 0.316 0.214 0.491c0.089 0.089 0.14 0.181 0.152 0.285 0.016 0.077 0.031 0.163 0.033 0.266s0.013 0.217 0.039 0.352c0.008 0.011 0.011 0.049 0.002 0.103-0.013 0.026-0.027 0.052-0.032 0.088s-0.010 0.064-0.032 0.088c-0.001 0.009-0.003 0.018 0.005 0.029 0.009 0.001 0.008 0.011 0.005 0.029 0.046 0.007 0.113-0.001 0.199-0.016 0.032-0.023 0.066-0.064 0.102-0.115l0.049-0.011c0.055 0.009 0.080 0.031 0.075 0.058 0.005 0.029 0.039 0.053 0.094 0.061 0.011-0.008 0.021-0.015 0.030-0.014 0 0 0.009 0.002 0.030-0.014 0.029-0.005 0.080-0.035 0.144-0.081 0.080-0.034 0.136-0.090 0.176-0.168 0.059-0.075 0.095-0.069 0.128 0.020 0.065 0.122 0.178 0.177 0.323 0.153 0.055 0.009 0.1 0.016 0.131 0.002 0.036-0.050 0.063-0.102 0.090-0.154 0.025-0.043 0.044-0.040 0.064 0.010 0.042 0.091 0.099 0.146 0.172 0.157 0.032-0.023 0.081-0.034 0.126-0.027 0.055 0.009 0.091 0.014 0.119 0.018 0.091-0.042 0.146-0.089 0.154-0.144 0.022-0.081 0.057-0.122 0.102-0.115 0.137 0.021 0.238 0.037 0.296 0.028 0.073 0.011 0.116 0.037 0.137 0.087 0.019 0.059 0.042 0.090 0.088 0.097 0.060 0.037 0.112 0.064 0.176 0.074s0.136-0.026 0.203-0.099c0.032-0.023 0.062-0.037 0.093-0.051 0.029-0.005 0.058-0.010 0.103-0.002 0.026 0.013 0.074 0.012 0.154-0.023 0.091-0.042 0.141-0.062 0.162-0.077 0.106-0.021 0.151-0.004 0.139 0.069-0.003 0.018 0.013 0.039 0.036 0.071 0.029-0.005 0.058-0.010 0.104-0.002s0.082 0.013 0.131 0.002c0.046 0.007 0.067-0.008 0.071-0.035 0.027-0.052 0.053-0.095 0.078-0.137s0.032-0.088 0.014-0.147c0.007-0.046 0.013-0.082 0.037-0.116 0.013-0.026 0.028-0.061 0.032-0.088 0.016-0.044 0.036-0.107 0.049-0.189-0.002-0.047-0.001-0.112 0.012-0.194 0.044-0.105 0.060-0.206 0.046-0.292l0.016-0.1c-0.019-0.059-0.028-0.117-0.021-0.162s0.016-0.1 0.006-0.157c0.013-0.203 0.028-0.36 0.027-0.472 0.008-0.111 0.014-0.213 0.030-0.313l0.023-0.146c0.016-0.1 0.026-0.164 0.014-0.213-0.014-0.030-0.019-0.059-0.033-0.089-0.005-0.029-0.010-0.057-0.006-0.085 0.023-0.146 0.020-0.305-0.028-0.481l0.010-0.064c-0.010-0.114-0.020-0.236-0.044-0.38-0.015-0.142-0.026-0.313-0.023-0.508-0.009-0.123-0.019-0.237-0.040-0.343-0.020-0.115-0.030-0.229-0.040-0.343-0.005-0.15-0.006-0.262 0.007-0.344 0.004-0.083 0.007-0.167 0.009-0.241 0.012-0.073 0.015-0.156 0.010-0.241-0.007-0.076-0.005-0.15-0.012-0.226s-0.014-0.152-0.030-0.229c-0.002-0.047-0.004-0.094 0.005-0.148s0.016-0.1 0.005-0.149c0.007-0.102-0.008-0.188-0.043-0.268-0.020-0.050-0.040-0.1-0.070-0.151s-0.050-0.101-0.070-0.151c-0.038-0.118-0.068-0.225-0.099-0.324s-0.063-0.197-0.102-0.306c-0.023-0.032-0.037-0.062-0.041-0.1-0.005-0.029-0.018-0.068-0.041-0.1-0.022-0.041-0.055-0.13-0.093-0.248-0.016-0.077-0.032-0.155-0.057-0.233-0.024-0.088-0.048-0.175-0.078-0.283-0.018-0.003-0.045-0.072-0.098-0.211-0.064-0.131-0.152-0.23-0.253-0.301-0.074-0.068-0.113-0.12-0.124-0.169-0.026-0.013-0.048-0.054-0.067-0.113-0.066-0.057-0.118-0.084-0.212-0.145zM20.159 9.837c0.025 0 0.040 0.003 0.044 0.009 0.066 0.1-0.326 0.911-0.452 0.979-0.136 0.073-2.008 0.018-2.156-0.225-0.051-0.083-0.25-0.522-0.132-0.679 0.057-0.077 0.652 0.078 1.297 0.065 0.595-0.012 1.228-0.15 1.4-0.15zM9.922 10.347c-0.047 0.003-0.098 0.011-0.152 0.026-0.039 0.069-0.081 0.156-0.124 0.252-0.045 0.105-0.085 0.183-0.123 0.251-0.053 0.038-0.081 0.1-0.094 0.182 0.004 0.094-0.009 0.176-0.040 0.255-0.066 0.064-0.090 0.154-0.061 0.271 0.012 0.105 0.007 0.197-0.015 0.278s-0.036 0.172-0.052 0.272c-0.004 0.027-0.007 0.045-0.018 0.053s-0.013 0.026-0.018 0.053c-0.068 0.073-0.084 0.173-0.049 0.31 0.019 0.059 0.012 0.105-0.023 0.146-0.052 0.151-0.087 0.257-0.097 0.321s-0.002 0.131 0.017 0.19c0.007 0.076-0.003 0.139-0.030 0.191-0.060 0.084-0.073 0.166-0.040 0.255-0.002 0.074-0.003 0.139-0.023 0.211s-0.031 0.136-0.042 0.208c-0.011 0.073-0.021 0.136-0.030 0.191s-0.017 0.109-0.007 0.167c-0.011 0.073-0.023 0.146-0.034 0.219s-0.023 0.146-0.016 0.222c0.017 0.068 0.023 0.153 0.015 0.264-0.003 0.016-0.003 0.029-0.005 0.045 0.541-0.084 1.209-0.174 1.577-0.174 0-0.216 0.265-0.409 0.265-0.704 0.336-0.055 0.78-0.241 1.536-0.433 0 0.101-1.279 0.569-1.279 0.569l-0.335 0.728c0 0-1.379 0.214-1.786 0.425 0.001 0.005-0 0.011 0 0.016 0.010 0.058 0.010 0.114 0.020 0.171 0.005 0.085-0.006 0.158-0.032 0.21l-0.030 0.192c0.001 0.056 0.001 0.112-0.006 0.158s0.003 0.103 0.022 0.162c-0.011 0.073-0.023 0.146-0.025 0.22s0.005 0.15 0.039 0.23c-0.004 0.027-0.009 0.055-0.002 0.074s0.002 0.047-0.021 0.072c-0.045 0.105-0.072 0.222-0.074 0.353s0.002 0.225 0.018 0.302l-0.020 0.127c-0.004 0.027-0.009 0.055 0.005 0.085 0.005 0.029 0.010 0.058 0.005 0.085 0.005 0.085-0.009 0.176-0.043 0.273-0.032 0.023-0.058 0.075-0.071 0.157 0.042 0.212 0.050 0.4 0.042 0.567 0.005 0.029 0.007 0.076-0.002 0.131-0.010 0.064-0.023 0.146-0.026 0.229-0.013 0.082-0.018 0.175-0.015 0.278 0.010 0.058-0.002 0.131-0.033 0.21-0.025 0.099-0.033 0.21-0.007 0.345-0.007 0.046 0.004 0.094 0.023 0.153 0.009 0.123 0.014 0.208 0.006 0.262-0.027 0.052-0.029 0.126-0.017 0.231 0.030 0.107 0.035 0.192 0.006 0.262-0.009 0.055-0.001 0.131 0.013 0.217 0.003 0.038 0.004 0.094 0.003 0.159s0.007 0.132 0.026 0.191c0.009 0.123 0.014 0.208 0.006 0.262-0.017 0.109-0.033 0.21-0.029 0.304s0.011 0.169 0.027 0.247c0.020 0.050 0.033 0.089 0.027 0.126-0.004 0.027-0.010 0.064 0.004 0.094 0.002 0.047 0.005 0.085-0.002 0.131-0.006 0.036-0.012 0.073 0.002 0.103-0.007 0.046 0.004 0.094 0.023 0.153 0.023 0.032 0.039 0.053 0.036 0.071 0.079 0.152 0.084 0.302 0.017 0.432l-0.016 0.1-0.007 0.046c-0.001 0.009-0.003 0.018 0.015 0.021l0.183 0.028c0.037 0.006 0.067-0.008 0.089-0.032s0.036-0.051 0.062-0.093c0.024-0.033 0.039-0.069 0.061-0.093 0.032-0.023 0.053-0.038 0.071-0.036 0.032-0.023 0.062-0.037 0.108-0.030 0.021-0.015 0.031-0.014 0.046 0.007 0.006 0.020 0.014 0.030 0.011 0.049-0.013 0.026-0.027 0.052-0.031 0.079s-0.008 0.054-0.034 0.097l0.015 0.021c0.055 0.009 0.087-0.014 0.114-0.066 0.023-0.025 0.035-0.041 0.056-0.057 0.012-0.017 0.024-0.034 0.028-0.061 0.020-0.006 0.057-0.010 0.131 0.002 0.046 0.007 0.064 0.010 0.061 0.028l-0.007 0.045-0.010 0.064c-0.001 0.009 0.007 0.020 0.023 0.032s0.026 0.013 0.029-0.005c0.064 0.010 0.119 0.019 0.157 0.015 0.037 0.006 0.084 0.004 0.141-0.006 0.082 0.013 0.156 0.024 0.213 0.014 0.027 0.004 0.049-0.011 0.056-0.056l0.049-0.011c0.053 0.018 0.107 0.035 0.151 0.052s0.087 0.041 0.126 0.094l0.064 0.010c0.051 0.036 0.081 0.022 0.090-0.032 0.023-0.024 0.044-0.040 0.071-0.036 0.037 0.006 0.076-0.007 0.108-0.030 0.051-0.029 0.103-0.059 0.162-0.078 0.032-0.023 0.062-0.037 0.090-0.032 0.116-0.019 0.183 0.029 0.213 0.136 0.019 0.059 0.039 0.109 0.063 0.14l0.016 0.021c0.123-0.009 0.251 0.011 0.4 0.081l0.128 0.020c0.075 0.002 0.14 0.003 0.186 0.010s0.092 0.014 0.14 0.003c0.029-0.005 0.058-0.010 0.094-0.004 0.027 0.004 0.064 0.010 0.095-0.004 0.018 0.003 0.027 0.004 0.049-0.011 0.032-0.023 0.053-0.038 0.065-0.055s0.032-0.023 0.062-0.037c0.068-0.017 0.169-0.002 0.293 0.046l0.054 0.074c0.023 0.032 0.048 0.054 0.075 0.058 0.047-0.002 0.085-0.005 0.131 0.002s0.083 0.013 0.131 0.002c0.027 0.004 0.055 0.008 0.102 0.007 0.038-0.003 0.075 0.002 0.102 0.007 0.059-0.019 0.091-0.042 0.114-0.066 0.013-0.026 0.043-0.040 0.089-0.033 0.029-0.005 0.049-0.011 0.067-0.008s0.027 0.005 0.049-0.011c0.029-0.005 0.076-0.007 0.122 0 0.055 0.009 0.137 0.022 0.265 0.042 0.046 0.007 0.061 0.028 0.054 0.074l0.039 0.053c0.134-0.016 0.266-0.024 0.394-0.004 0.037 0.006 0.076-0.007 0.108-0.030l0.074-0.053c0.018 0.003 0.034 0.024 0.057 0.055l0.027 0.004c0.027 0.004 0.055 0.009 0.084 0.004s0.056-0 0.084 0.004c0.027 0.004 0.049-0.011 0.053-0.039 0.012-0.017 0.023-0.024 0.035-0.041 0.003-0.018 0.013-0.026 0.035-0.041 0.013-0.026 0.044-0.040 0.090-0.033 0.009 0.001 0.018 0.003 0.017 0.012s-0.001 0.009 0.017 0.012l-0.013 0.082c0.023 0.032 0.039 0.053 0.057 0.055 0.105-0.012 0.201-0.025 0.286-0.030 0.087-0.014 0.18-0.009 0.283-0.012 0.018 0.003 0.039-0.013 0.071-0.036l0.053-0.039c0.009-0.055 0.040-0.078 0.113-0.066l0.439 0.069c0.054 0.008 0.099 0.015 0.139 0.019 0.205-0.292 0.386-0.698 0.366-0.942-0.22-0.23-0.285-0.296-0.351-0.355 0.158-0.342 0.757-0.954 0.704-1.401 0.132 0.151-0.303 1.204-0.395 1.283 0.204 0.119 0.257 0.355 0.395 0.368 0.038 0.118-0.079 0.719-0.163 1.099l0.006 0.001c0.119 0.019 0.201 0.031 0.259 0.022 0.055 0.009 0.101 0.016 0.125 0.039 0.057 0.056 0.136 0.086 0.222 0.081l0.229 0.036c0.027 0.004 0.058-0.010 0.092-0.051l0.084-0.118c0.037-0.059 0.064-0.111 0.088-0.145 0.015-0.035 0.036-0.106 0.053-0.216l0.007-0.046c0.055-0.169 0.088-0.323 0.093-0.471s0.009-0.297 0.006-0.456c-0.030-0.108-0.031-0.22-0.011-0.347l0.030-0.192c0.014-0.091 0.023-0.146 0.012-0.194-0.010-0.114-0.017-0.189-0.010-0.235-0.002-0.047-0.006-0.085 0.002-0.13 0.006-0.037 0.012-0.073-0.002-0.103-0.001-0.056-0.001-0.112-0.002-0.168s0.010-0.12 0.021-0.193c0.009-0.055 0.016-0.1 0.014-0.148s0.005-0.093 0.014-0.147c-0.009-0.123-0.010-0.235-0.016-0.32-0.015-0.086-0.024-0.144-0.020-0.171 0.011-0.073 0.021-0.137 0.013-0.204s-0.008-0.132-0.014-0.208c-0.007-0.076-0.006-0.141-0.014-0.208s-0.016-0.133-0.032-0.211c-0.043-0.147-0.059-0.28-0.042-0.39 0.026-0.164 0.014-0.39-0.045-0.67-0.020-0.050-0.042-0.091-0.053-0.139s-0.013-0.095-0.005-0.15c0.009-0.055-0.010-0.114-0.057-0.177-0.048-0.054-0.079-0.153-0.086-0.294-0.001-0.056-0.020-0.115-0.057-0.177-0.020-0.050-0.042-0.091-0.062-0.141s-0.042-0.091-0.063-0.141c-0.019-0.059-0.038-0.118-0.066-0.178s-0.067-0.113-0.115-0.167c-0.029-0.051-0.060-0.094-0.081-0.143s-0.041-0.1-0.060-0.159c-0.016-0.077-0.075-0.18-0.168-0.306-0.1-0.137-0.17-0.232-0.216-0.295-0.091-0.080-0.17-0.176-0.235-0.299-0.035-0.015-0.058-0.046-0.070-0.095-0.037-0.062-0.094-0.118-0.169-0.176-0.043-0.025-0.077-0.049-0.12-0.075s-0.075-0.058-0.117-0.093c-0.023-0.032-0.048-0.054-0.072-0.077s-0.049-0.045-0.072-0.076c-0.023-0.032-0.046-0.063-0.080-0.087-0.032-0.033-0.077-0.049-0.129-0.076-0.026-0.013-0.052-0.027-0.078-0.040s-0.050-0.036-0.074-0.068c-0.056-0.065-0.157-0.136-0.286-0.213-0.051-0.036-0.092-0.070-0.115-0.102-0.028-0.060-0.103-0.119-0.209-0.164s-0.193-0.086-0.262-0.125c-0.009-0.001-0.061-0.028-0.139-0.068-0.070-0.030-0.129-0.076-0.19-0.161-0.023-0.032-0.055-0.064-0.089-0.088s-0.066-0.057-0.090-0.089l-0.118-0.084c-0.069-0.039-0.123-0.112-0.162-0.221-0.041-0.1-0.083-0.19-0.129-0.254-0.103-0.119-0.217-0.23-0.36-0.337-0.069-0.039-0.129-0.076-0.196-0.124s-0.143-0.107-0.232-0.195c-0.060-0.037-0.112-0.064-0.156-0.080-0.037-0.006-0.072-0.021-0.096-0.043-0.116-0.037-0.193-0.086-0.236-0.168-0.074-0.068-0.143-0.107-0.198-0.115-0.092-0.014-0.144-0.041-0.182-0.094-0.082-0.078-0.155-0.145-0.231-0.204s-0.161-0.109-0.255-0.171c-0.124-0.047-0.251-0.133-0.391-0.257-0.025-0.023-0.051-0.036-0.084-0.060s-0.069-0.039-0.112-0.065c-0.080-0.031-0.151-0.052-0.213-0.080s-0.123-0.057-0.192-0.095c-0.069-0.039-0.129-0.076-0.179-0.112s-0.11-0.073-0.179-0.112c-0.124-0.047-0.207-0.116-0.267-0.21-0.062-0.084-0.116-0.158-0.182-0.215s-0.126-0.094-0.199-0.106c-0.041-0.034-0.085-0.060-0.127-0.086s-0.086-0.051-0.127-0.085c-0.017-0.012-0.025-0.023-0.043-0.025-0.017-0.012-0.034-0.024-0.061-0.028-0.041-0.006-0.085-0.009-0.132-0.006zM17.523 11.477c0.304-0.010 0.623 0.431 0.546 0.523-0.082 0.099-0.891 0.296-1.023 0.542s-0.189-0.807 0.417-1.057c0.020-0.005 0.040-0.008 0.060-0.008zM10.844 11.986c0.342 0 1.075 0.137 1.396 0.198v0.358l-0.972-0.167c-0.162 0.16-0.062 0.56-0.141 0.897-0.159 0.112-0.686 0.38-0.93 0.501l-0.27-0.373c0.147-0.083 0.606-0.237 0.697-0.349 0.115-0.14 0.075-0.622 0.219-1.067zM22.872 12.649c0.007 0.001 0.013 0.005 0.019 0.010 0.464 0.429 0.479 1.068 0.59 1.641 0.040 0.207-0.439 0.449-0.447 0.239-0.023-0.648-0.13-0.858-0.353-1.266-0.122-0.222 0.088-0.642 0.191-0.624zM22.208 14.501c0.744 0.554-0.165 2.076 0.387 2.796 0.617 0.14 0.98 0.373 1.198 0.746-0.563-0.093-0.716-0.273-1.585-0.273-0.738 0-1.914 0.187-1.972 0-0.021-0.069 0-0.335 0-0.472 0.653 0.14 1.043 0.125 1.496-0.062-0.184-0.686 0.051-0.933-0.089-1.486-0.326 0.304-0.565 0.697-1.23 0.697-0.109-0.378-0.291-1.526 0.432-1.526 0 0.233-0.091 0.467 0 0.829 0.728-0.33 0.797-0.692 1.362-1.249zM14.686 14.904c0.447 0.823 1.732 1.665 2.289 2.133-0.312 0.691-0.87 1.334-0.87 1.923 0.823 0.102 1.462 0 2.199-0.247 0.050 0.205-0.191 0.525-0.671 1.026-0.686 0-1.527-0.069-2.185-0.317 0-0.736 0.286-0.878 0.658-1.694-0.472-0.384-1.13-0.691-1.578-1.252-0.208 0.447-0.316 0.868-0.316 0.868l-0.5-0.232c0.086-0.613 0.5-2.209 0.974-2.209zM11.308 15.39c0.152-0.001 0.32 0.049 0.411 0.124 0.083 0.068-0.069 0.784-0.592 1.359-0.556-0.082-0.217-1.304-0.053-1.421 0.059-0.042 0.143-0.061 0.234-0.062zM10.579 17.897c0 0 0.29 0.105 0.548 0.395-0.193 0.368-0.977 1.43-0.93 1.882s1.589 1.537 2.461 1.303c0.474-0.46 0.908-1.211 1.066-1.605 0-0.314-0.209-0.675-0.307-0.761-0.301 0-0.443 0-0.825 0.050-0.044 0.23 0 0.494 0.066 0.814-0.355 0.115-0.553 0.092-0.553 0.092s-0.141-0.681 0.134-1.248c0.432-0.107 1.026-0.135 1.537-0.101 0.158 0.224 0.5 0.798 0.566 1.022 0 0.842-0.996 2.447-1.868 3.145-0.961-0.289-3.171-1.329-3.171-2.074 0-0.542 1.276-2.913 1.276-2.913zM15.083 20.318c0.106 0.011 0.208 0.047 0.275 0.101 0.026 0.158 0.142 2.133 0.195 2.449-0.159 0.228-0.447 0.401-0.763 0.316-0.209-0.397-0.096-1.984 0-2.818 0.079-0.046 0.188-0.059 0.294-0.048z"></path>
</svg>
