<!-- Generated by IcoMoon.io -->
<svg version="1.1" xmlns="http://www.w3.org/2000/svg" width="32" height="32" viewBox="0 0 32 32">
<title>token_-4_highlight</title>
<path d="M12.72 18.196c-0.149 0.133-0.236 0.294-0.261 0.484 0 0.199 0.108 0.315 0.323 0.348h4.26c0.099 0 0.174 0.004 0.224 0.012 0.075 0 0.112 0.099 0.112 0.298-0.008 0.414-0.037 0.679-0.087 0.795s-0.112 0.195-0.186 0.236c-0.025 0.008-0.062 0.025-0.112 0.050l-0.149 0.075c-0.108 0.050-0.228 0.199-0.36 0.447 0 0.033 0.021 0.066 0.062 0.099 0.058 0.041 0.108 0.062 0.149 0.062 0.199-0.025 0.435-0.050 0.708-0.075s0.505-0.037 0.696-0.037c0.199 0 0.414 0.012 0.646 0.037 0.24 0.025 0.451 0.050 0.633 0.075 0.132 0 0.199-0.054 0.199-0.161-0.008-0.166-0.037-0.265-0.087-0.298-0.050-0.041-0.112-0.091-0.186-0.149-0.075-0.066-0.149-0.178-0.224-0.335-0.075-0.166-0.137-0.443-0.186-0.832 0-0.058 0.021-0.128 0.062-0.211 0.050-0.091 0.141-0.137 0.273-0.137h0.373c0.232 0 0.348-0.112 0.348-0.335v-0.385c0-0.215-0.116-0.323-0.348-0.323h-0.447c-0.207 0-0.323-0.050-0.348-0.149s-0.037-0.207-0.037-0.323c-0.008-0.141-0.012-0.377-0.012-0.708 0-0.364 0.004-0.65 0.012-0.857l0.075-4.844c-0.017 0-0.037-0.062-0.062-0.186-0.025-0.149-0.112-0.228-0.261-0.236-0.282 0.008-0.497 0.153-0.646 0.435-0.754 1.226-1.582 2.426-2.484 3.602-0.812 1.060-1.718 2.219-2.72 3.478zM16.993 13.724c0.025-0.041 0.087-0.116 0.186-0.224 0.017-0.033 0.037-0.050 0.062-0.050 0.050 0 0.075 0.104 0.075 0.311-0.008 0.24-0.012 0.609-0.012 1.105v1.105c0.017 0.348 0.029 0.642 0.037 0.882 0.008 0.182 0.012 0.435 0.012 0.758 0 0.224-0.062 0.335-0.186 0.335h-0.236l-2.683 0.062c-0.017 0-0.037 0.004-0.062 0.012h-0.037c-0.083 0-0.124-0.025-0.124-0.075 0-0.075 0.025-0.141 0.075-0.199 0.447-0.662 0.932-1.321 1.453-1.975 0.513-0.646 1.002-1.321 1.466-2.025z"></path>
<path d="M9.002 16.94c-0.003 0-0.005 0.001-0.008 0.001-0.037 0.003-0.073-0.011-0.097-0.039-0.033-0.037-0.040-0.090-0.017-0.133l0.351-0.685c0.016-0.032 0.044-0.056 0.078-0.067 0.013-0.004 0.026-0.007 0.039-0.007 0.006-0 0.011 0 0.016 0 0.093 0.004 0.992 0.047 1.58 0.045s1.488-0.048 1.581-0.053c0.006-0 0.011-0.001 0.016-0 0.028 0.001 0.055 0.013 0.074 0.034 0.009 0.010 0.016 0.022 0.015 0.035-0.014 0.096-0.18 0.438-0.247 0.572-0.017 0.035-0.046 0.063-0.081 0.079-0.022 0.010-0.045 0.016-0.069 0.016-0.002 0-0.004 0-0.007 0-0.058-0-0.913-0.001-1.49 0.032-0.644 0.036-1.664 0.162-1.735 0.17z"></path>
<path d="M12.546 15.896c-0.012-0.001-0.021 0-0.026 0-0.092 0.005-0.993 0.052-1.576 0.053s-1.482-0.041-1.575-0.045c-0.005-0-0.014-0.001-0.025-0-0.024 0.001-0.046 0.005-0.069 0.012-0.060 0.020-0.11 0.063-0.139 0.119l-0.351 0.685c-0.042 0.082-0.029 0.183 0.032 0.252 0.046 0.052 0.115 0.079 0.184 0.073 0.006-0 0.010-0.001 0.013-0.001 0.070-0.009 1.091-0.133 1.728-0.169 0.57-0.032 1.426-0.032 1.484-0.032h0c0.002 0 0.005 0 0.008 0h0.001c0.038-0.001 0.076-0.010 0.111-0.026 0.056-0.026 0.103-0.071 0.131-0.128 0.033-0.067 0.092-0.187 0.145-0.303 0.026-0.058 0.051-0.116 0.071-0.166s0.035-0.089 0.041-0.134v-0c0.008-0.058-0.023-0.101-0.042-0.122-0.038-0.041-0.091-0.065-0.146-0.067h-0zM12.508 16.108c-0.005 0.014-0.004 0.017-0.011 0.035-0.018 0.045-0.041 0.1-0.066 0.156-0.051 0.112-0.109 0.23-0.141 0.296-0.007 0.013-0.018 0.024-0.032 0.030-0.009 0.004-0.018 0.006-0.027 0.006-0.001 0-0.002 0-0.004 0-0.059-0-0.914-0.001-1.496 0.032-0.651 0.037-1.67 0.162-1.742 0.171h-0c-0.003 0-0.003 0-0.002 0h-0c-0.004 0-0.008-0.001-0.011-0.005-0.004-0.004-0.005-0.009-0.002-0.014l0.351-0.685c0.004-0.007 0.010-0.013 0.018-0.015 0.003-0.001 0.006-0.002 0.009-0.002 0 0 0.002 0 0.007 0h0c0.093 0.004 0.992 0.047 1.585 0.045 0.585-0.002 1.45-0.047 1.564-0.053z"></path>
</svg>
