<!-- Generated by IcoMoon.io -->
<svg version="1.1" xmlns="http://www.w3.org/2000/svg" width="32" height="32" viewBox="0 0 32 32">
<title>token_elder_sign_fill</title>
<path d="M12.583 5.684c-0.571 0.793-0.612 1.897-0.954 2.821-0.3 1.066-0.603 2.132-0.882 3.204-1.862-0.511-3.838-0.839-5.467-1.932-1.408 0.088-0.16 1.831 0.173 2.533 1.108 1.783 2.716 3.208 4.485 4.315-0.069 0.794-0.419 2.523-0.075 2.604-0.635 0.505 0.113 1.753-0.48 2.454-0.187 1.060 0.227 2.257 0.562 3.301 0.492 0.935 0.785 2.424 1.917 2.698 0.477-0.744 0.599-1.852 0.737-2.844 0.306-1.538 1.286-2.796 2.233-3.993 0.449-1.297 1.518-0.513 2.341-0.149 2.828 1.155 5.702 2.246 8.684 2.923 0.62 0.274 0.937-0.882 0.263-0.62 0.579-0.517-0.743-1.559-0.884-2.264-0.573 0.464 0.387-0.396-0.343-0.603-0.993-1.692-2.126-3.319-3.522-4.705 1.837-1.23 3.495-2.701 5.094-4.221-0.070-1.409-1.85-0.017-2.652-0.062-1.082 0.308-2.087 0.855-3.245 0.827-0.935 0.369-1.951 0.699-2.605-0.354-0.794-0.798-1.81-1.361-2.424-2.327-1.167-0.889-1.895-2.231-2.41-3.586-0.182-0.005-0.363-0.032-0.545-0.020zM12.872 7.193c0.45 1.235 1.576 2.090 2.174 3.146 1.067 0.743 2.093 1.583 2.999 2.522-1.145-0.597-2.024-1.815-3.324-1.987-0.585-0.535-1.338-0.528-2.019-0.688-0.445 0.154-0.97 2.177-0.929 0.834 0.118-0.357 0.518-0.788-0.035-1.014 0.776 0.072 0.519-1.548 0.932-2.095 0.068-0.239 0.136-0.478 0.201-0.717zM5.737 11.028c1.638 0.775 3.431 1.154 5.184 1.567 0.824 0.151 2.495 0.284 2.804 0.377-1.663-0.067-3.324-0.35-4.921-0.784-0.605 0.123-0.334 0.919-1.125 0.701-0.456 1.023 1.094 1.473 1.623 2.127 0.497 0.299 0.616 0.63 0.032 0.178-1.475-1.107-2.836-2.46-3.597-4.167zM12.991 11.164c0.398 0.817 2.56 0.718 2.408 1.106-0.444-0.28-1.582 0.105-1.39 0.023-0.017-0.429-1.079-0.454-1.098 0.009-0.114-0.426-0.278-0.745 0.080-1.138zM12.738 11.817l-0.005 0.056zM24.555 11.821c-1.962 1.89-4.319 3.286-6.469 4.941 0.995-1.040 2.337-1.764 3.142-2.966-0.443-0.247 0.659-0.176 0.073-0.664-0.161-0.807 1.81-0.416 2.443-1.091 0.259-0.109 0.531-0.192 0.812-0.219zM16.225 12.092l-0.129 0.168zM19.954 12.37l0.079 0.121zM18.543 13.307c-0.206 0.26-0.207 0.261 0 0zM20.283 13.591c-0.259 0.838-0.547-0.18 0 0zM9.379 13.605c0.732-0.334 1.429 0.567 0.693 0.918-0.264-0.105-1.147-0.6-0.693-0.918zM12.211 13.704c0.465 0.047 1.979 0.053 0.637 0.309-0.705 0.102-0.628 1.188-0.73 0.133 0.032-0.147 0.074-0.292 0.094-0.442zM19.614 13.852l-0.055 0.033zM16.111 13.858c-0.178 0.292-0.322-0.272 0 0zM17.228 13.94l0.004 0.029zM11.185 13.983c0.028 0.538 0.757 0.261 0.074 0.454-0.348 1.096-0.109 2.353-0.151 3.509 0.404 1.157-0.38 2.618 0.481 3.473 1.116 0.036 1.21-1.628 2.086-1.967 1.553 0.47-0.389 1.666-0.697 2.471-0.592 0.917-1.167 1.96-1.195 3.057-0.831 0.369-1.123-0.101-1.257-0.934-0.254-0.874 0.167-1.801-0.069-2.728-0.042-2.465 0.336-4.91 0.728-7.336zM18.996 14.068l-0.015 0.018zM14.44 14.138l0.103 0.015zM17.592 14.303c1.14-0.334 0.472 1.62 0.271 1.069 0.112-0.398-0.42-0.691-0.271-1.069zM15.427 14.595c0.685 0.095 0.427 1.608 0.656 1.466-0.463-0.182-0.319 1.169-1.099 0.495-0.472-0.264-0.978-1.083-0.15-0.634 0.481-0.228 0.523-0.863 0.593-1.327zM19.158 14.624c0.226-0.094-0.060 0.215 0 0zM13.002 14.884c-0.81 0.579 0.869 2.473-0.558 1.72-0.757-0.597-0.24-1.515 0.558-1.72zM16.759 14.982c0.522 0.292-0.168 1.124 0.035 0.179zM14.751 15.396l-0.017 0.023zM20.322 16.191l0.015 0.022zM21.002 16.261c1.11 1.116 2.002 2.422 2.839 3.748 0.583-0.489-0.345 0.361 0.329 0.553 0.236 0.61 1.234 1.784 0.944 2.032-0.471-0.286-1.615-0.395-1.557-0.31-0.917-0.692-2.645-0.857-3.831-1.477-1.523-0.613-3.069-1.186-4.541-1.914 0.887 0.25 1.77 0.573 2.693 0.673 1.091 0.128 2.219-0.025 3.277 0.439 1.548 0.429 0.375-1.454 0.117-2.12-0.049-0.457-0.97-1.428-0.27-1.624zM19.755 16.566c0.325 0.73 0.995 1.932 0.959 2.433-0.879-0.368-1.828-0.132-2.701-0.412-0.545-0.074-0.896-0.036-0.272-0.465 0.638-0.56 1.34-1.040 2.014-1.555zM15.221 17.539c1.021-0.231 0.598 0.999-0.132 0.396-0.834-0.139-0.391-0.288 0.132-0.396zM14.68 17.617c0.172-0.061 0.033 0.063 0 0zM13.31 17.674c0.011 0.002-0.149 0.327 0 0zM12.148 17.754c-0.188 0.286-0.205 0.312 0 0zM11.971 18.139c0.793 0.196 1.289 0.915 0.464 1.461-0.617 0.813-0.322-1.273-0.464-1.461zM19.232 18.761c0.097 0.074 0.079 0.060 0 0zM19.372 19.078c0.073 0.068-0.088 0.061 0 0zM21.596 19.524c-0.045 0.107-0.074-0.046 0 0zM10.995 25.612c-0.251 0.106-0.335 0.141 0 0zM11.736 27.104l-0.202 0.137z"></path>
</svg>
