<!-- Generated by IcoMoon.io -->
<svg version="1.1" xmlns="http://www.w3.org/2000/svg" width="32" height="32" viewBox="0 0 32 32">
<title>token_-2_sealed</title>
<path d="M19.712 17.984c-0.253 0-0.437 0.119-0.552 0.356-0.327 0.556-0.838 0.879-1.532 0.969-0.687 0.082-1.504 0.131-2.452 0.147-0.065 0-0.114-0.016-0.147-0.049-0.016 0-0.025-0.016-0.025-0.049s0.025-0.086 0.074-0.159c0.36-0.482 0.825-0.899 1.398-1.25 0.58-0.36 1.144-0.727 1.692-1.103s1.018-0.797 1.41-1.263c0.384-0.433 0.576-0.993 0.576-1.68 0-0.458-0.094-0.944-0.282-1.459h-0.012c-0.237-0.548-0.633-1.001-1.189-1.361-0.564-0.368-1.226-0.552-1.986-0.552-0.973 0-1.81 0.257-2.513 0.772-0.695 0.515-1.042 1.177-1.042 1.986 0.025 0.973 0.421 1.704 1.189 2.194 0.065 0.033 0.114 0.057 0.147 0.074 0.025 0.008 0.061 0.029 0.11 0.061 0.196 0.082 0.417 0.123 0.662 0.123 0.785 0 1.291-0.237 1.52-0.711 0.016-0.033 0.029-0.061 0.037-0.086h0.012c0.008-0.025 0.012-0.057 0.012-0.098 0-0.229-0.102-0.343-0.306-0.343-0.082 0-0.155 0.033-0.221 0.098-0.262 0.229-0.58 0.343-0.956 0.343-0.155 0-0.306-0.049-0.454-0.147-0.155-0.098-0.266-0.2-0.331-0.306h-0.012c-0.163-0.286-0.245-0.629-0.245-1.030 0-0.458 0.188-0.875 0.564-1.251s0.805-0.564 1.287-0.564c0.286 0 0.503 0.012 0.65 0.037 0.139 0.025 0.335 0.131 0.588 0.319 0.278 0.188 0.47 0.409 0.576 0.662 0.204 0.36 0.306 0.797 0.306 1.312-0.033 0.343-0.127 0.666-0.282 0.969-0.163 0.327-0.327 0.605-0.49 0.834-0.188 0.221-0.372 0.413-0.552 0.576-0.229 0.212-0.429 0.38-0.601 0.503-0.163 0.098-0.294 0.184-0.392 0.257l-0.012 0.012c-0.695 0.482-1.234 0.977-1.618 1.483s-0.727 1.116-1.030 1.827c-0.016 0.016-0.025 0.045-0.025 0.086 0 0.033 0.016 0.082 0.049 0.147 0.049 0.082 0.106 0.123 0.172 0.123 0.834-0.065 1.622-0.102 2.366-0.11 0.531 0 1.001 0.008 1.41 0.025 0.417 0.008 0.854 0.029 1.312 0.061 0.212 0 0.347-0.086 0.405-0.257 0.065-0.147 0.123-0.315 0.172-0.503 0.057-0.229 0.11-0.396 0.159-0.503 0.065-0.172 0.159-0.347 0.282-0.527 0.114-0.163 0.212-0.347 0.294-0.552 0.025-0.033 0.037-0.086 0.037-0.159 0-0.065-0.008-0.114-0.025-0.147-0.033-0.106-0.102-0.159-0.208-0.159z"></path>
<path d="M9.301 17.136c-0.003 0-0.005 0.001-0.008 0.001-0.036 0.003-0.072-0.011-0.096-0.038-0.032-0.036-0.039-0.088-0.017-0.131l0.347-0.676c0.016-0.031 0.044-0.055 0.077-0.066 0.012-0.004 0.025-0.006 0.038-0.007 0.006-0 0.011 0 0.016 0 0.092 0.004 0.979 0.046 1.559 0.044s1.469-0.048 1.561-0.053c0.005-0 0.010-0.001 0.016-0 0.028 0.001 0.054 0.013 0.073 0.034 0.009 0.010 0.016 0.021 0.014 0.035-0.014 0.094-0.178 0.433-0.243 0.564-0.017 0.034-0.045 0.062-0.080 0.078-0.021 0.010-0.045 0.015-0.068 0.016-0.002 0-0.004 0-0.006 0-0.058-0-0.901-0.001-1.47 0.032-0.636 0.036-1.643 0.159-1.712 0.168z"></path>
</svg>
