<!-- Generated by IcoMoon.io -->
<svg version="1.1" xmlns="http://www.w3.org/2000/svg" width="32" height="32" viewBox="0 0 32 32">
<title>token_-5_highlight</title>
<path d="M14.159 10.768c-0.033 0-0.058-0.004-0.075-0.012s-0.037-0.012-0.062-0.012l-0.050-0.012c-0.041 0-0.083 0.021-0.124 0.062s-0.062 0.095-0.062 0.161c0.017 0.331 0.041 0.667 0.075 1.006 0.033 0.298 0.050 0.633 0.050 1.006s-0.017 0.708-0.050 1.006c-0.033 0.34-0.058 0.667-0.075 0.981-0.008 0.108-0.012 0.273-0.012 0.497 0 0.232 0.116 0.348 0.348 0.348 0.066 0 0.166-0.054 0.298-0.161 0.091-0.091 0.315-0.244 0.671-0.46 0.248-0.149 0.53-0.224 0.845-0.224 0.141 0 0.286 0.012 0.435 0.037 0.604 0.091 1.101 0.368 1.491 0.832 0.406 0.48 0.613 1.11 0.621 1.888 0 0.82-0.199 1.453-0.596 1.9-0.406 0.464-0.907 0.741-1.503 0.832-0.075 0.008-0.186 0.012-0.335 0.012-0.505 0-0.936-0.17-1.292-0.509-0.348-0.34-0.522-0.749-0.522-1.23 0-0.754 0.344-1.226 1.031-1.416h0.012c0.141-0.017 0.211-0.112 0.211-0.286 0-0.19-0.091-0.286-0.273-0.286-0.050 0-0.099-0.004-0.149-0.012h-0.137c-0.547 0-1.006 0.149-1.379 0.447-0.431 0.348-0.654 0.898-0.671 1.652 0 0.894 0.331 1.528 0.994 1.9 0.679 0.381 1.499 0.571 2.459 0.571 1.019 0 1.925-0.385 2.72-1.155 0.745-0.72 1.118-1.561 1.118-2.521v-0.112c-0.008-0.058-0.012-0.091-0.012-0.099 0-1.192-0.36-2.136-1.081-2.832-0.737-0.72-1.623-1.085-2.658-1.093-0.522 0.025-1.019 0.12-1.491 0.286-0.033 0.017-0.079 0.025-0.137 0.025-0.083 0-0.124-0.046-0.124-0.137 0.017-0.050 0.025-0.149 0.025-0.298v-0.795c-0.008-0.025-0.012-0.079-0.012-0.161s0.075-0.124 0.224-0.124c0.306-0.025 0.762-0.037 1.366-0.037 0.538 0 1.13 0.021 1.776 0.062 0.050 0.017 0.087 0.025 0.112 0.025h0.012c0.108 0 0.203-0.004 0.286-0.012 0.124-0.017 0.228-0.108 0.311-0.273 0.157-0.331 0.385-0.662 0.683-0.994 0.058-0.066 0.087-0.132 0.087-0.199 0-0.033-0.012-0.062-0.037-0.087-0.050-0.075-0.145-0.112-0.286-0.112-0.099 0.033-0.182 0.079-0.248 0.137-0.058 0.050-0.141 0.087-0.248 0.112-0.397 0.058-0.849 0.087-1.354 0.087-0.083 0-0.215-0.004-0.397-0.012-0.19-0.008-0.331-0.012-0.422-0.012-0.596-0.041-1.366-0.099-2.31-0.174v0.012z"></path>
<path d="M9.002 16.94c-0.003 0-0.005 0.001-0.008 0.001-0.037 0.003-0.073-0.011-0.097-0.039-0.033-0.037-0.040-0.090-0.017-0.133l0.351-0.685c0.016-0.032 0.044-0.056 0.078-0.067 0.013-0.004 0.026-0.007 0.039-0.007 0.006-0 0.011 0 0.016 0 0.093 0.004 0.992 0.047 1.58 0.045s1.488-0.048 1.581-0.053c0.006-0 0.011-0.001 0.016-0 0.028 0.001 0.055 0.013 0.074 0.034 0.009 0.010 0.016 0.022 0.015 0.035-0.014 0.096-0.18 0.438-0.247 0.572-0.017 0.035-0.046 0.063-0.081 0.079-0.022 0.010-0.045 0.016-0.069 0.016-0.002 0-0.004 0-0.007 0-0.058-0-0.913-0.001-1.49 0.032-0.644 0.036-1.664 0.162-1.735 0.17z"></path>
<path d="M12.546 15.896c-0.012-0.001-0.021 0-0.026 0-0.092 0.005-0.993 0.052-1.576 0.053s-1.482-0.041-1.575-0.045c-0.005-0-0.014-0.001-0.025-0-0.024 0.001-0.046 0.005-0.069 0.012-0.060 0.020-0.11 0.063-0.139 0.119l-0.351 0.685c-0.042 0.082-0.029 0.183 0.032 0.252 0.046 0.052 0.115 0.079 0.184 0.073 0.006-0 0.010-0.001 0.013-0.001 0.070-0.009 1.091-0.133 1.728-0.169 0.57-0.032 1.426-0.032 1.484-0.032h0c0.002 0 0.005 0 0.008 0h0.001c0.038-0.001 0.076-0.010 0.111-0.026 0.056-0.026 0.103-0.071 0.131-0.128 0.033-0.067 0.092-0.187 0.145-0.303 0.026-0.058 0.051-0.116 0.071-0.166s0.035-0.089 0.041-0.134v-0c0.008-0.058-0.023-0.101-0.042-0.122-0.038-0.041-0.091-0.065-0.146-0.067h-0zM12.508 16.108c-0.005 0.014-0.004 0.017-0.011 0.035-0.018 0.045-0.041 0.1-0.066 0.156-0.051 0.112-0.109 0.23-0.141 0.296-0.007 0.013-0.018 0.024-0.032 0.030-0.009 0.004-0.018 0.006-0.027 0.006-0.001 0-0.002 0-0.004 0-0.059-0-0.914-0.001-1.496 0.032-0.651 0.037-1.67 0.162-1.742 0.171h-0c-0.003 0-0.003 0-0.002 0h-0c-0.004 0-0.008-0.001-0.011-0.005-0.004-0.004-0.005-0.009-0.002-0.014l0.351-0.685c0.004-0.007 0.010-0.013 0.018-0.015 0.003-0.001 0.006-0.002 0.009-0.002 0 0 0.002 0 0.007 0h0c0.093 0.004 0.992 0.047 1.585 0.045 0.585-0.002 1.45-0.047 1.564-0.053z"></path>
</svg>
