<!-- Generated by IcoMoon.io -->
<svg version="1.1" xmlns="http://www.w3.org/2000/svg" width="32" height="32" viewBox="0 0 32 32">
<title>token_skull_overlay</title>
<path d="M15.905 4.063l-0.4 0.4c0 0.295 0.021 0.569 0.021 0.864l0.4-0.4c0-0.295-0.021-0.589-0.021-0.863zM16.116 4.063c0 0.295-0 0.568-0.021 0.863l0.4 0.4c0.021-0.295 0.021-0.59 0.021-0.864zM15.316 4.632l-0.379 0.379 0.063 0.821 0.379-0.379zM16.705 4.632l-0.063 0.821 0.379 0.379 0.063-0.821zM17.232 5.158c-0.042 0.274-0.063 0.526-0.105 0.8l0.358 0.358c0.042-0.253 0.084-0.526 0.105-0.8zM14.789 5.179l-0.358 0.358c0.042 0.253 0.063 0.526 0.105 0.779l0.358-0.358c-0.042-0.274-0.063-0.527-0.105-0.779zM17.716 5.663l-0.126 0.758 0.337 0.337c0.042-0.253 0.105-0.505 0.126-0.758zM14.284 5.684l-0.337 0.337c0.042 0.232 0.105 0.484 0.147 0.737l0.337-0.337c-0.042-0.253-0.084-0.505-0.148-0.737zM13.863 6.105l-0.337 0.337c0.038 0.191 0.092 0.365 0.133 0.553 0.090-0.027 0.182-0.053 0.277-0.079l0.074-0.074c-0.063-0.253-0.105-0.484-0.148-0.737zM18.179 6.126c-0.063 0.232-0.105 0.484-0.168 0.716l0.123 0.115c0.082 0.028 0.162 0.058 0.242 0.089 0.042-0.199 0.1-0.382 0.14-0.583zM13.421 6.526l-0.316 0.316c0.037 0.11 0.059 0.203 0.091 0.295 0.077-0.024 0.151-0.047 0.255-0.078 0.031-0.010 0.065-0.020 0.097-0.030-0.052-0.163-0.091-0.317-0.128-0.502zM18.642 6.568c-0.060 0.179-0.102 0.34-0.159 0.517 0.117 0.047 0.23 0.1 0.343 0.153 0.002-0.005 0.003-0.011 0.005-0.016 0.021-0.126 0.064-0.232 0.127-0.337zM13 6.926l-0.316 0.316c0.016 0.031 0.021 0.053 0.031 0.079 0.016-0.008 0.037-0.020 0.053-0.028 0.104-0.052 0.209-0.088 0.317-0.122-0.029-0.069-0.051-0.142-0.085-0.245zM19.021 6.947c-0.042 0.105-0.063 0.19-0.105 0.295l-0.010 0.031c0.002 0.001 0.004 0.002 0.006 0.002 0.112 0.054 0.221 0.114 0.326 0.177 0.012-0.035 0.024-0.069 0.036-0.105 0.021-0.021 0.021-0.063 0.042-0.105zM12.621 7.326l-0.070 0.082c0.030-0.017 0.055-0.030 0.083-0.044-0.006-0.013-0.013-0.025-0.013-0.038zM19.421 7.326c0 0.021-0.021 0.042-0.021 0.063-0.019 0.043-0.035 0.086-0.053 0.13 0.105 0.067 0.205 0.14 0.3 0.217 0.030-0.066 0.059-0.133 0.089-0.199 0-0.021 0.021-0.042 0.021-0.063h-0.19zM7.653 7.453c0.611 0.674 1.242 1.326 1.853 1.958 0.212 0.212 0.425 0.433 0.637 0.652 0.035-0.126 0.079-0.247 0.134-0.361-0.164-0.182-0.324-0.358-0.498-0.544-0.526-0.568-1.053-1.116-1.579-1.705zM23.021 7.453c-0.4 0.463-0.779 0.905-1.158 1.368-0.225 0.257-0.436 0.514-0.646 0.771 0.008 0.013 0.017 0.027 0.025 0.039l0.007 0.011 0.007 0.012c0.052 0.093 0.097 0.193 0.136 0.299 0.255-0.278 0.51-0.567 0.766-0.859 0.463-0.526 0.926-1.073 1.41-1.642zM8.474 7.474c0.463 0.547 0.926 1.074 1.389 1.621l0.458 0.523c0.015-0.028 0.029-0.057 0.046-0.085 0.047-0.088 0.101-0.171 0.157-0.252-0.124-0.147-0.247-0.293-0.366-0.44-0.4-0.463-0.779-0.905-1.137-1.368zM9.211 7.474c0.337 0.442 0.674 0.884 1.011 1.305 0.116 0.151 0.232 0.298 0.347 0.443 0.027-0.037 0.053-0.074 0.082-0.11 0.050-0.062 0.11-0.121 0.175-0.18l-0.289-0.385-0.821-1.074zM11.147 7.474c0.084 0.147 0.19 0.316 0.274 0.484 0.041 0.076 0.085 0.153 0.127 0.229 0.016-0.015 0.030-0.033 0.046-0.048 0.075-0.075 0.154-0.144 0.234-0.214-0.023-0.046-0.047-0.090-0.070-0.136-0.063-0.105-0.105-0.211-0.168-0.316zM11.716 7.474c0.042 0.105 0.084 0.19 0.126 0.274 0.020 0.037 0.038 0.076 0.057 0.114 0.104-0.087 0.21-0.169 0.319-0.244-0.006-0.013-0.012-0.025-0.018-0.038-0.021-0.042-0.042-0.063-0.063-0.105zM12.263 7.474c0 0.021 0.021 0.042 0.021 0.063 0.004 0.009 0.008 0.020 0.013 0.029 0.050-0.033 0.099-0.063 0.146-0.093zM19.863 7.474c-0.021 0.042-0.021 0.063-0.042 0.126-0.030 0.066-0.064 0.133-0.096 0.199 0.096 0.088 0.186 0.182 0.269 0.28 0.056-0.111 0.113-0.221 0.164-0.331 0.042-0.084 0.084-0.19 0.126-0.274zM21.021 7.474c-0.126 0.189-0.232 0.358-0.337 0.547-0.113 0.176-0.22 0.36-0.327 0.546 0.045 0.057 0.093 0.111 0.142 0.16 0.037 0.037 0.075 0.074 0.112 0.112 0.129-0.201 0.259-0.401 0.388-0.608 0.168-0.253 0.316-0.505 0.484-0.758zM21.632 7.474c-0.189 0.274-0.379 0.526-0.547 0.8-0.133 0.213-0.273 0.419-0.412 0.625 0.066 0.066 0.132 0.132 0.197 0.196l0.009 0.009 0.008 0.009c0.016 0.018 0.030 0.037 0.045 0.056 0.158-0.221 0.318-0.442 0.47-0.663 0.232-0.358 0.484-0.695 0.716-1.032zM22.326 7.474l-0.821 1.074-0.518 0.692c0.038 0.051 0.073 0.102 0.105 0.153s0.059 0.094 0.088 0.14c0.195-0.251 0.396-0.502 0.599-0.752 0.337-0.442 0.674-0.863 1.053-1.305zM23.821 7.474c-0.547 0.547-1.074 1.116-1.6 1.684-0.261 0.298-0.537 0.582-0.802 0.876 0.028 0.084 0.053 0.171 0.074 0.261 0.003 0.014 0.006 0.025 0.009 0.039l0.066 0.066c0.316-0.337 0.632-0.653 0.947-0.968 0.632-0.653 1.263-1.305 1.874-1.958zM9.884 7.495c0.253 0.337 0.484 0.674 0.716 1.011 0.089 0.129 0.182 0.258 0.274 0.387 0.058-0.049 0.117-0.098 0.181-0.145 0.031-0.040 0.064-0.078 0.096-0.117-0.079-0.118-0.159-0.235-0.235-0.356-0.168-0.274-0.358-0.527-0.547-0.779zM10.537 7.495c0.147 0.232 0.316 0.484 0.463 0.737 0.070 0.111 0.139 0.219 0.209 0.328 0.086-0.103 0.176-0.203 0.27-0.299-0.047-0.080-0.094-0.159-0.142-0.239-0.105-0.189-0.232-0.358-0.337-0.526zM20.41 7.495c-0.063 0.105-0.105 0.211-0.168 0.316-0.061 0.113-0.122 0.231-0.183 0.349 0.063 0.079 0.123 0.159 0.178 0.243l0.002 0.003c0.019 0.028 0.039 0.054 0.059 0.081 0.096-0.167 0.189-0.334 0.281-0.507 0.105-0.168 0.19-0.337 0.274-0.484zM7.484 7.621v0.548c0.568 0.547 1.137 1.074 1.705 1.6 0.291 0.272 0.567 0.528 0.853 0.783 0.012-0.068 0.025-0.154 0.046-0.261 0.008-0.044 0.019-0.086 0.030-0.129-0.229-0.222-0.454-0.444-0.676-0.666-0.653-0.611-1.305-1.242-1.958-1.874zM24.537 7.621c-0.653 0.632-1.305 1.242-1.958 1.874-0.337 0.316-0.653 0.632-0.968 0.947l0.252 0.253c0.337-0.295 0.674-0.611 0.99-0.905 0.568-0.526 1.137-1.053 1.684-1.579zM7.463 8.463v0.526c0.442 0.379 0.905 0.779 1.368 1.158 0.337 0.295 0.674 0.568 1.011 0.842l0.144-0.144 0.003-0.011c0.012-0.047 0.022-0.107 0.032-0.164-0.309-0.273-0.604-0.545-0.915-0.818-0.526-0.463-1.074-0.927-1.642-1.39zM24.516 8.463c-0.547 0.463-1.074 0.927-1.621 1.39-0.316 0.295-0.652 0.589-0.989 0.884l0.252 0.252c0.337-0.295 0.674-0.568 1.011-0.842 0.463-0.379 0.905-0.758 1.347-1.158zM7.463 9.2v0.505l1.074 0.821 1.010 0.758 0.253-0.252c-0.337-0.253-0.674-0.526-1.011-0.8-0.442-0.358-0.863-0.695-1.326-1.032zM24.537 9.242c-0.442 0.337-0.884 0.673-1.305 1.010-0.337 0.253-0.673 0.526-1.010 0.8l0.232 0.252 1.010-0.758 1.074-0.821zM7.484 9.895v0.484c0.253 0.189 0.526 0.358 0.8 0.547 0.337 0.232 0.653 0.442 0.99 0.653l0.252-0.252c-0.337-0.232-0.674-0.484-1.011-0.716s-0.694-0.484-1.031-0.716zM24.516 9.916c-0.337 0.253-0.673 0.484-1.010 0.716s-0.674 0.484-1.011 0.716l0.253 0.252c0.337-0.211 0.674-0.442 0.989-0.653 0.274-0.189 0.526-0.379 0.8-0.547h-0.021zM24.516 10.526c-0.232 0.147-0.484 0.316-0.737 0.463-0.337 0.211-0.652 0.421-0.989 0.632l0.252 0.253c0.316-0.168 0.632-0.358 0.947-0.547 0.189-0.105 0.358-0.211 0.548-0.316h-0.021zM7.484 10.547v0.463c0.189 0.105 0.358 0.232 0.547 0.337 0.316 0.189 0.611 0.358 0.926 0.547l0.252-0.274c-0.316-0.189-0.631-0.4-0.968-0.61-0.253-0.147-0.505-0.316-0.758-0.463zM7.484 11.137v0.463c0.105 0.063 0.211 0.105 0.316 0.169 0.274 0.147 0.568 0.295 0.842 0.442l0.273-0.274c-0.316-0.189-0.611-0.358-0.926-0.526-0.168-0.084-0.337-0.189-0.505-0.273zM24.537 11.158c-0.147 0.084-0.316 0.19-0.484 0.274-0.316 0.168-0.611 0.358-0.926 0.526l0.253 0.252c0.295-0.147 0.568-0.295 0.863-0.442 0.084-0.063 0.19-0.105 0.295-0.169zM7.484 11.705c0.006 0.003 0.014 0.007 0.021 0.010v-0.010zM7.505 11.715v0.411c0.021 0.021 0.063 0.042 0.105 0.063 0.232 0.126 0.484 0.232 0.716 0.337l0.252-0.274c-0.274-0.147-0.547-0.295-0.821-0.421-0.078-0.039-0.172-0.078-0.252-0.116zM24.537 11.705c-0.105 0.042-0.19 0.084-0.274 0.126-0.295 0.147-0.568 0.274-0.842 0.421l0.274 0.274c0.253-0.105 0.484-0.232 0.737-0.337 0.042 0 0.063-0.021 0.105-0.042zM7.484 12.232v0.232l-0.148 0.105c0.021 0 0.042 0.021 0.063 0.021 0.189 0.084 0.379 0.147 0.568 0.232l0.274-0.274c-0.232-0.084-0.463-0.19-0.695-0.295-0.021 0-0.042-0.021-0.063-0.021zM24.558 12.252c-0.021 0-0.042 0.021-0.063 0.021-0.253 0.105-0.484 0.211-0.716 0.316l0.274 0.273c0.189-0.084 0.379-0.147 0.568-0.232 0.021 0 0.042 0 0.084-0.021l-0.147-0.148zM7.274 12.674l-0.316 0.316c0.105 0.042 0.189 0.063 0.294 0.105l0.379 0.127 0.295-0.295c-0.189-0.063-0.379-0.126-0.547-0.19-0.042-0.021-0.084-0.042-0.105-0.063zM24.748 12.674c-0.042 0.021-0.063 0.021-0.105 0.042-0.189 0.084-0.358 0.147-0.548 0.211l0.295 0.295 0.379-0.127c0.105-0.042 0.189-0.063 0.273-0.126zM6.874 13.095l-0.316 0.316c0.168 0.042 0.358 0.105 0.547 0.148 0.063 0.021 0.105 0.021 0.147 0.042l0.295-0.295c-0.105-0.042-0.231-0.063-0.337-0.105s-0.231-0.084-0.337-0.105zM25.147 13.095c-0.105 0.042-0.232 0.063-0.337 0.105s-0.232 0.063-0.337 0.105l0.295 0.295c0.042-0.021 0.105-0.021 0.147-0.042 0.189-0.063 0.358-0.105 0.547-0.148zM6.453 13.495l-0.337 0.337c0.232 0.063 0.484 0.105 0.715 0.169l0.337-0.316-0.084-0.021c-0.211-0.063-0.421-0.105-0.632-0.169zM25.568 13.516c-0.211 0.042-0.421 0.105-0.632 0.148-0.021 0-0.063 0.021-0.084 0.021l0.316 0.316c0.253-0.063 0.484-0.126 0.737-0.147zM25.989 13.937c-0.232 0.042-0.484 0.105-0.737 0.148l0.337 0.337c0.253-0.042 0.505-0.084 0.737-0.147zM5.989 13.958l-0.337 0.337 0.758 0.126 0.337-0.337c-0.253-0.042-0.485-0.084-0.758-0.126zM5.505 14.421l-0.358 0.358c0.274 0.042 0.526 0.063 0.8 0.105l0.358-0.358c-0.253-0.021-0.505-0.063-0.8-0.105zM26.474 14.421c-0.253 0.042-0.526 0.063-0.779 0.105l0.358 0.358c0.253-0.042 0.526-0.084 0.779-0.105zM27 14.926l-0.821 0.063 0.379 0.379 0.821-0.063zM5.021 14.947l-0.379 0.379 0.821 0.063 0.379-0.379zM27.547 15.495c-0.295 0-0.568 0.021-0.863 0.021l0.4 0.4c0.295 0 0.589-0.021 0.863-0.021zM4.453 15.516l-0.4 0.4c0.295 0 0.568 0.021 0.863 0.021l0.4-0.4c-0.295-0.021-0.568-0.021-0.863-0.021zM4.937 16.084c-0.295 0.021-0.568 0.021-0.863 0.021l0.4 0.4c0.295 0 0.568-0.021 0.863-0.021zM27.084 16.084l-0.4 0.4c0.295 0.021 0.589 0.021 0.863 0.021l0.4-0.4c-0.295 0-0.568-0.021-0.863-0.021zM5.484 16.632l-0.821 0.063 0.379 0.379 0.821-0.063zM26.558 16.632l-0.379 0.379 0.821 0.063 0.379-0.379zM26.053 17.116l-0.358 0.358c0.253 0.042 0.526 0.084 0.8 0.105l0.358-0.358c-0.274-0.042-0.526-0.063-0.8-0.105zM5.968 17.137c-0.253 0.021-0.526 0.063-0.779 0.105l0.358 0.358c0.253-0.042 0.527-0.063 0.779-0.105zM6.432 17.579c-0.253 0.042-0.505 0.105-0.737 0.147l0.337 0.337c0.232-0.042 0.484-0.105 0.737-0.148zM25.59 17.579l-0.337 0.337c0.253 0.042 0.506 0.105 0.758 0.126l0.337-0.337zM6.853 18c-0.232 0.063-0.484 0.126-0.737 0.147l0.337 0.337c0.211-0.042 0.4-0.105 0.611-0.148 0.042 0 0.063-0.021 0.105-0.021zM25.169 18l-0.316 0.337c0.021 0 0.063 0.021 0.084 0.021 0.211 0.042 0.421 0.105 0.611 0.148l0.337-0.337c-0.232-0.063-0.484-0.105-0.715-0.169zM24.768 18.4l-0.295 0.295c0.105 0.042 0.232 0.063 0.337 0.105s0.232 0.063 0.337 0.105l0.316-0.316c-0.189-0.042-0.358-0.105-0.547-0.148-0.042-0.021-0.105-0.021-0.147-0.042zM7.274 18.421c-0.063 0.021-0.105 0.021-0.169 0.042-0.189 0.042-0.358 0.084-0.526 0.148l0.316 0.316c0.105-0.042 0.211-0.063 0.316-0.105 0.126-0.021 0.231-0.063 0.358-0.105zM24.389 18.758l-0.295 0.295c0.189 0.084 0.358 0.147 0.548 0.211 0.042 0.021 0.084 0.042 0.105 0.021l0.294-0.295c-0.084-0.042-0.189-0.063-0.273-0.105zM7.632 18.8c-0.126 0.042-0.274 0.084-0.4 0.126-0.084 0.021-0.168 0.063-0.252 0.105l0.316 0.316c0.021-0.021 0.063-0.021 0.084-0.042 0.168-0.063 0.358-0.147 0.547-0.211zM7.989 19.137c-0.189 0.084-0.4 0.147-0.589 0.232-0.021 0.021-0.042 0.021-0.042 0.021l0.127 0.126v0.232c0.021 0 0.042-0.021 0.063-0.021 0.232-0.105 0.484-0.211 0.716-0.316zM24.032 19.137l-0.274 0.273c0.232 0.105 0.484 0.211 0.716 0.316 0.021 0 0.042 0.021 0.063 0.021v-0.211l0.126-0.148c-0.021 0-0.042-0.021-0.063-0.021-0.189-0.084-0.379-0.147-0.568-0.232zM23.716 19.474l-0.274 0.274c0.274 0.126 0.547 0.273 0.821 0.4 0.105 0.042 0.19 0.085 0.274 0.127v-0.421c-0.042-0.021-0.063-0.021-0.105-0.042-0.232-0.126-0.484-0.232-0.716-0.337zM8.326 19.495c-0.253 0.105-0.484 0.232-0.737 0.337-0.042 0-0.063 0.021-0.105 0.042v0.442c0.105-0.042 0.189-0.084 0.273-0.126 0.274-0.147 0.568-0.274 0.842-0.421zM23.379 19.789l-0.253 0.252c0.316 0.189 0.611 0.358 0.926 0.526 0.141 0.081 0.302 0.18 0.463 0.262v-0.43c-0.084-0.063-0.189-0.105-0.294-0.169-0.274-0.147-0.568-0.295-0.842-0.442zM24.516 20.831v0.012h0.021c-0.007-0.004-0.014-0.008-0.021-0.012zM8.642 19.81c-0.295 0.147-0.569 0.295-0.864 0.442-0.084 0.063-0.189 0.105-0.294 0.169h-0.021v0.442c0.147-0.084 0.316-0.189 0.484-0.273 0.316-0.168 0.632-0.358 0.947-0.526zM8.979 20.105l-0.947 0.568c-0.189 0.126-0.358 0.232-0.547 0.337h0.021v0.442c0.253-0.147 0.484-0.316 0.737-0.463 0.337-0.211 0.652-0.421 0.989-0.632zM23.063 20.105l-0.253 0.252c0.337 0.211 0.653 0.421 0.99 0.632 0.253 0.147 0.484 0.316 0.737 0.463v-0.484c-0.189-0.105-0.358-0.211-0.548-0.316-0.316-0.189-0.61-0.358-0.926-0.547zM22.768 20.421l-0.253 0.252c0.337 0.232 0.674 0.484 1.011 0.716 0.337 0.253 0.674 0.484 1.011 0.716h0.021v-0.484c-0.274-0.189-0.526-0.379-0.8-0.547-0.337-0.211-0.652-0.442-0.989-0.653zM9.274 20.442c-0.316 0.211-0.653 0.442-0.99 0.653-0.274 0.168-0.526 0.337-0.8 0.526v0.526c0.337-0.253 0.673-0.484 1.010-0.715 0.358-0.253 0.695-0.484 1.032-0.737zM9.568 20.737c-0.337 0.253-0.673 0.505-1.010 0.758-0.358 0.253-0.716 0.526-1.074 0.8h-0.021v0.505c0.442-0.337 0.884-0.674 1.306-1.011 0.337-0.274 0.695-0.547 1.032-0.821zM22.453 20.737l-0.232 0.232c0.337 0.253 0.673 0.526 1.010 0.8 0.442 0.337 0.863 0.674 1.305 1.053v-0.505l-1.074-0.821c-0.337-0.253-0.673-0.505-1.010-0.758zM22.158 21.011l-0.252 0.252 1.010 0.884c0.547 0.463 1.074 0.927 1.621 1.39v-0.526c-0.463-0.4-0.905-0.779-1.368-1.158-0.337-0.295-0.674-0.568-1.011-0.842zM9.863 21.032c-0.337 0.274-0.673 0.568-1.010 0.842-0.463 0.379-0.905 0.758-1.368 1.137v0.547c0.547-0.463 1.074-0.926 1.621-1.389l1.011-0.884zM21.863 21.305l-0.252 0.253c0.337 0.316 0.653 0.632 0.968 0.947 0.653 0.611 1.305 1.242 1.958 1.852v-0.568c-0.547-0.526-1.116-1.053-1.684-1.579-0.337-0.295-0.653-0.611-0.99-0.905zM10.158 21.326c-0.337 0.295-0.652 0.589-0.989 0.905-0.568 0.526-1.137 1.053-1.684 1.579h-0.021v0.547c0.674-0.611 1.305-1.221 1.958-1.852 0.316-0.316 0.653-0.632 0.968-0.947zM10.453 21.6c-0.316 0.316-0.632 0.653-0.947 0.968-0.632 0.653-1.263 1.305-1.853 1.937h0.547c0.526-0.547 1.053-1.116 1.579-1.684 0.295-0.316 0.611-0.653 0.905-0.99zM21.59 21.6l-0.253 0.253c0.295 0.337 0.611 0.652 0.905 0.989 0.526 0.568 1.053 1.116 1.6 1.684h0.568c-0.632-0.653-1.242-1.305-1.873-1.958-0.316-0.316-0.632-0.653-0.947-0.968zM10.748 21.895l-0.884 1.011c-0.484 0.526-0.947 1.074-1.41 1.621h0.547c0.4-0.463 0.779-0.905 1.158-1.368 0.274-0.337 0.568-0.674 0.842-1.011zM21.274 21.895l-0.253 0.252c0.274 0.337 0.568 0.674 0.842 1.011 0.379 0.463 0.758 0.905 1.137 1.368h0.547c-0.463-0.547-0.926-1.074-1.389-1.621zM11.042 22.19c-0.274 0.337-0.547 0.695-0.821 1.032-0.337 0.442-0.674 0.863-0.99 1.305h0.505c0.253-0.358 0.526-0.716 0.8-1.074l0.758-1.011zM20.958 22.211l-0.232 0.232 0.758 1.011c0.274 0.358 0.547 0.716 0.779 1.095h0.505c-0.337-0.442-0.674-0.884-1.011-1.305-0.253-0.358-0.526-0.695-0.8-1.032zM20.684 22.484l-0.252 0.252c0.211 0.337 0.442 0.652 0.653 0.989 0.189 0.274 0.358 0.527 0.547 0.779h0.484c-0.253-0.337-0.484-0.674-0.716-1.011s-0.484-0.673-0.716-1.010zM11.316 22.505c-0.232 0.337-0.484 0.673-0.716 1.010s-0.463 0.674-0.716 1.032h0.484c0.189-0.274 0.379-0.526 0.547-0.8 0.211-0.337 0.442-0.653 0.653-0.99zM11.632 22.8c-0.211 0.337-0.421 0.652-0.632 0.989-0.147 0.253-0.316 0.484-0.484 0.758h0.463c0.126-0.189 0.232-0.358 0.337-0.547l0.568-0.947zM20.368 22.8l-0.252 0.252c0.189 0.295 0.358 0.611 0.547 0.926 0.126 0.189 0.232 0.358 0.337 0.547h0.463c-0.147-0.232-0.316-0.484-0.463-0.737-0.211-0.337-0.421-0.652-0.632-0.989zM11.947 23.095c-0.168 0.316-0.358 0.632-0.526 0.947-0.105 0.147-0.189 0.316-0.252 0.505h0.442c0.063-0.105 0.105-0.211 0.168-0.316 0.147-0.295 0.295-0.568 0.442-0.863zM20.053 23.116l-0.252 0.252c0.147 0.274 0.295 0.568 0.442 0.842 0.063 0.105 0.126 0.211 0.168 0.316h0.442c-0.084-0.147-0.19-0.316-0.274-0.484-0.168-0.316-0.358-0.61-0.526-0.926zM12.263 23.41c-0.147 0.274-0.274 0.568-0.421 0.842-0.042 0.105-0.084 0.19-0.126 0.274h0.421c0.021-0.042 0.042-0.063 0.063-0.105 0.105-0.253 0.232-0.484 0.337-0.737zM19.758 23.41l-0.273 0.274c0.105 0.253 0.232 0.484 0.337 0.737 0.021 0.042 0.021 0.063 0.063 0.105h0.421c-0.042-0.105-0.084-0.19-0.126-0.274-0.147-0.295-0.274-0.568-0.421-0.842zM12.6 23.748c-0.105 0.232-0.211 0.484-0.316 0.715 0 0.021-0.021 0.042-0.021 0.063h0.211l0.147 0.147c0-0.021 0.021-0.042 0.021-0.063 0.084-0.211 0.147-0.4 0.232-0.59zM19.421 23.768l-0.274 0.273c0.084 0.189 0.148 0.379 0.232 0.569 0 0.021 0.021 0.042 0.021 0.063l0.147-0.126h0.211c0-0.021-0.021-0.042-0.021-0.063-0.105-0.253-0.211-0.484-0.316-0.716zM12.937 24.063c-0.084 0.189-0.147 0.358-0.211 0.547-0.021 0.042-0.021 0.063-0.042 0.105l0.316 0.316c0.042-0.084 0.063-0.19 0.105-0.274l0.126-0.379zM19.084 24.084l-0.295 0.295 0.126 0.379c0.042 0.105 0.063 0.19 0.126 0.274l0.295-0.295c-0.021-0.042-0.021-0.063-0.042-0.105-0.084-0.189-0.147-0.358-0.211-0.547zM13.295 24.442c-0.042 0.126-0.063 0.232-0.105 0.358-0.021 0.105-0.063 0.232-0.105 0.316l0.316 0.316c0.042-0.189 0.105-0.358 0.147-0.548 0.021-0.042 0.021-0.105 0.042-0.147zM18.705 24.463l-0.295 0.295c0.021 0.042 0.021 0.105 0.042 0.148 0.063 0.168 0.105 0.358 0.147 0.547l0.316-0.316c-0.042-0.105-0.063-0.232-0.105-0.337s-0.063-0.232-0.105-0.337zM13.674 24.842c0 0.042-0.021 0.063-0.021 0.105-0.042 0.189-0.084 0.4-0.147 0.59l0.337 0.337c0.063-0.232 0.105-0.484 0.169-0.716zM18.326 24.842l-0.316 0.316c0.063 0.232 0.126 0.484 0.147 0.737l0.337-0.337c-0.042-0.211-0.105-0.421-0.147-0.632 0-0.021-0.021-0.063-0.021-0.084zM14.095 25.242c-0.042 0.253-0.105 0.505-0.126 0.758l0.337 0.337 0.127-0.758zM17.926 25.242l-0.337 0.337c0.042 0.253 0.084 0.505 0.147 0.737l0.337-0.337c-0.042-0.232-0.105-0.484-0.147-0.737zM14.537 25.684c-0.042 0.274-0.084 0.526-0.105 0.8l0.358 0.358c0.042-0.274 0.063-0.526 0.105-0.8zM17.505 25.684l-0.358 0.358c0.021 0.253 0.063 0.527 0.105 0.779l0.358-0.358c-0.042-0.253-0.063-0.526-0.105-0.779zM17.021 26.147l-0.379 0.379 0.063 0.821 0.379-0.379zM15.021 26.169c-0.042 0.274-0.063 0.547-0.063 0.821l0.379 0.379 0.063-0.821zM15.526 26.674c0 0.295-0.021 0.59-0.021 0.863l0.4 0.4c0-0.295 0.021-0.568 0.021-0.863zM16.495 26.674l-0.4 0.4c0.021 0.295 0.021 0.568 0.021 0.863l0.4-0.4c0-0.295-0.021-0.569-0.021-0.863z"></path>
</svg>
