<!-- Generated by IcoMoon.io -->
<svg version="1.1" xmlns="http://www.w3.org/2000/svg" width="32" height="32" viewBox="0 0 32 32">
<title>token_-5_sealed</title>
<path d="M14.183 10.836c-0.033 0-0.057-0.004-0.074-0.012s-0.037-0.012-0.061-0.012l-0.049-0.012c-0.041 0-0.082 0.020-0.123 0.061s-0.061 0.094-0.061 0.159c0.016 0.327 0.041 0.658 0.074 0.993 0.033 0.294 0.049 0.625 0.049 0.993s-0.016 0.699-0.049 0.993c-0.033 0.335-0.057 0.658-0.074 0.969-0.008 0.106-0.012 0.27-0.012 0.49 0 0.229 0.114 0.343 0.343 0.343 0.065 0 0.163-0.053 0.294-0.159 0.090-0.090 0.311-0.241 0.662-0.454 0.245-0.147 0.523-0.221 0.834-0.221 0.139 0 0.282 0.012 0.429 0.037 0.597 0.090 1.087 0.364 1.471 0.821 0.4 0.474 0.605 1.095 0.613 1.863 0 0.809-0.196 1.434-0.588 1.876-0.401 0.458-0.895 0.732-1.483 0.821-0.074 0.008-0.184 0.012-0.331 0.012-0.499 0-0.924-0.168-1.275-0.503-0.343-0.335-0.515-0.74-0.515-1.214 0-0.744 0.339-1.21 1.018-1.398h0.012c0.139-0.016 0.208-0.11 0.208-0.282 0-0.188-0.090-0.282-0.27-0.282-0.049 0-0.098-0.004-0.147-0.012h-0.135c-0.539 0-0.993 0.147-1.361 0.441-0.425 0.343-0.646 0.887-0.662 1.631 0 0.883 0.327 1.508 0.981 1.876 0.67 0.376 1.479 0.564 2.427 0.564 1.005 0 1.9-0.38 2.685-1.14 0.736-0.711 1.103-1.541 1.103-2.489v-0.11c-0.008-0.057-0.012-0.090-0.012-0.098 0-1.177-0.356-2.109-1.067-2.795-0.727-0.711-1.602-1.071-2.624-1.079-0.515 0.025-1.005 0.118-1.471 0.282-0.033 0.016-0.078 0.025-0.135 0.025-0.082 0-0.123-0.045-0.123-0.135 0.016-0.049 0.025-0.147 0.025-0.294v-0.785c-0.008-0.025-0.012-0.078-0.012-0.159s0.074-0.123 0.221-0.123c0.302-0.025 0.752-0.037 1.349-0.037 0.531 0 1.116 0.020 1.753 0.061 0.049 0.016 0.086 0.025 0.11 0.025h0.012c0.106 0 0.2-0.004 0.282-0.012 0.123-0.016 0.225-0.106 0.306-0.27 0.155-0.327 0.38-0.654 0.674-0.981 0.057-0.065 0.086-0.131 0.086-0.196 0-0.033-0.012-0.061-0.037-0.086-0.049-0.074-0.143-0.11-0.282-0.11-0.098 0.033-0.18 0.078-0.245 0.135-0.057 0.049-0.139 0.086-0.245 0.11-0.392 0.057-0.838 0.086-1.336 0.086-0.082 0-0.212-0.004-0.392-0.012-0.188-0.008-0.327-0.012-0.417-0.012-0.588-0.041-1.349-0.098-2.28-0.172v0.012z"></path>
<path d="M9.093 16.928c-0.003 0-0.005 0.001-0.008 0.001-0.036 0.003-0.072-0.011-0.096-0.038-0.032-0.036-0.039-0.088-0.017-0.131l0.347-0.676c0.016-0.031 0.044-0.055 0.077-0.066 0.012-0.004 0.025-0.006 0.038-0.007 0.006-0 0.011 0 0.016 0 0.092 0.004 0.979 0.046 1.559 0.044s1.469-0.048 1.561-0.053c0.005-0 0.010-0.001 0.016-0 0.028 0.001 0.054 0.013 0.073 0.034 0.009 0.010 0.016 0.021 0.014 0.035-0.014 0.094-0.178 0.433-0.243 0.564-0.017 0.034-0.045 0.062-0.080 0.078-0.021 0.010-0.045 0.015-0.068 0.016-0.002 0-0.004 0-0.006 0-0.058-0-0.901-0.001-1.47 0.032-0.636 0.036-1.643 0.159-1.712 0.168z"></path>
</svg>
