<!-- Generated by IcoMoon.io -->
<svg version="1.1" xmlns="http://www.w3.org/2000/svg" width="32" height="32" viewBox="0 0 32 32">
<title>token_bless_sealed</title>
<path d="M8.488 15.366c0.068 0 0.127 0.034 0.187 0.093 0.059 0.068 0.102 0.135 0.127 0.211 0.042 0.093 0.068 0.194 0.093 0.313-0.025 0.127-0.059 0.237-0.093 0.33-0.025 0.076-0.068 0.152-0.127 0.211-0.059 0.068-0.119 0.093-0.187 0.093-0.119 0-0.229-0.034-0.331-0.093-0.102-0.068-0.195-0.135-0.272-0.211-0.093-0.093-0.17-0.203-0.238-0.33 0.068-0.118 0.144-0.22 0.238-0.313 0.076-0.076 0.17-0.152 0.272-0.211s0.212-0.093 0.331-0.093zM10.219 16.363c-0.144 0.017-0.263 0.042-0.373 0.093-0.102 0.051-0.195 0.135-0.263 0.254s-0.11 0.287-0.11 0.507c-0.127-0.068-0.238-0.127-0.331-0.178s-0.17-0.11-0.238-0.178c-0.068-0.068-0.093-0.144-0.093-0.237 0.051 0 0.102-0.017 0.153-0.059 0.042-0.025 0.076-0.076 0.11-0.144s0.059-0.178 0.085-0.321v-0.211c-0.025-0.144-0.059-0.245-0.085-0.321-0.034-0.068-0.068-0.118-0.11-0.144-0.051-0.042-0.102-0.059-0.153-0.059 0-0.076 0.034-0.152 0.093-0.22 0.068-0.068 0.144-0.135 0.238-0.186s0.204-0.11 0.331-0.178c0 0.22 0.034 0.389 0.11 0.507 0.068 0.118 0.161 0.203 0.263 0.254s0.229 0.085 0.373 0.093c0.373-0.025 0.705-0.051 0.985-0.076s0.518-0.051 0.713-0.076c-0.042 0.042-0.076 0.085-0.119 0.135-0.068 0.093-0.119 0.211-0.153 0.347-0.025 0.025-0.025 0.042 0 0.059 0.042 0.169 0.093 0.287 0.153 0.372 0.042 0.051 0.076 0.093 0.119 0.118-0.195-0.025-0.433-0.051-0.713-0.076s-0.611-0.051-0.985-0.076zM21.9 16.905c0.195 0.025 0.314 0.101 0.373 0.22 0.051 0.127 0.068 0.287 0.059 0.499-0.026 0.194-0.068 0.347-0.119 0.465s-0.11 0.211-0.178 0.271c-0.068 0.076-0.144 0.127-0.238 0.152-0.025-0.287-0.068-0.499-0.136-0.642s-0.127-0.245-0.195-0.313c-0.068-0.068-0.136-0.085-0.212-0.059s-0.144 0.068-0.195 0.135c-0.119 0.194-0.297 0.423-0.535 0.676-0.238 0.262-0.594 0.431-1.061 0.524-0.178 0.042-0.365 0.059-0.543 0.059 0 0.194-0.017 0.372-0.059 0.541-0.093 0.465-0.263 0.82-0.526 1.057s-0.484 0.414-0.679 0.532c-0.068 0.051-0.11 0.118-0.136 0.195s-0.008 0.152 0.059 0.211c0.068 0.068 0.17 0.127 0.314 0.195s0.357 0.11 0.645 0.135c-0.025 0.093-0.076 0.169-0.153 0.237-0.068 0.068-0.161 0.127-0.28 0.186-0.127 0.059-0.28 0.093-0.458 0.11-0.212 0.017-0.373-0.009-0.501-0.059s-0.195-0.177-0.221-0.372c-0.051-0.101-0.076-0.237-0.076-0.406s0.017-0.347 0.042-0.524c0.025-0.203 0.059-0.423 0.093-0.642 0.238-0.237 0.407-0.456 0.526-0.659 0.102-0.178 0.153-0.363 0.136-0.541s-0.153-0.321-0.433-0.431c-0.051 0.017-0.093 0.034-0.136 0.059s-0.068 0.051-0.093 0.068c-0.025 0.017-0.051 0.034-0.076 0.051-0.093 0.017-0.178 0.025-0.272 0.042-0.076 0.017-0.17 0.025-0.272 0.025-0.102 0.008-0.212 0.008-0.331 0.008-0.127 0-0.246 0-0.348-0.008s-0.195-0.017-0.272-0.025c-0.093-0.017-0.178-0.025-0.272-0.042-0.051-0.025-0.119-0.068-0.195-0.118l-0.119-0.059c-0.289 0.101-0.433 0.245-0.441 0.431-0.008 0.178 0.042 0.363 0.144 0.541 0.119 0.211 0.289 0.431 0.526 0.659 0.042 0.22 0.068 0.431 0.093 0.642 0.025 0.177 0.034 0.355 0.025 0.524s-0.025 0.304-0.068 0.406c-0.025 0.195-0.093 0.313-0.212 0.372-0.119 0.051-0.289 0.068-0.509 0.059-0.195-0.017-0.348-0.051-0.467-0.11s-0.212-0.118-0.272-0.186c-0.076-0.068-0.127-0.144-0.153-0.237 0.289-0.025 0.501-0.068 0.645-0.135s0.246-0.127 0.314-0.195c0.068-0.068 0.085-0.135 0.059-0.211s-0.068-0.144-0.136-0.195c-0.195-0.118-0.424-0.296-0.679-0.532-0.263-0.237-0.433-0.592-0.526-1.057-0.042-0.169-0.059-0.347-0.059-0.541-0.195 0-0.373-0.017-0.543-0.059-0.467-0.093-0.823-0.262-1.061-0.524s-0.416-0.482-0.535-0.676c-0.042-0.068-0.102-0.11-0.187-0.135s-0.161-0.008-0.221 0.059c-0.068 0.068-0.127 0.169-0.195 0.313s-0.11 0.355-0.136 0.642c-0.093-0.025-0.17-0.076-0.238-0.152-0.068-0.068-0.127-0.152-0.187-0.271s-0.093-0.271-0.11-0.465c-0.017-0.203 0.008-0.372 0.059-0.499s0.178-0.194 0.373-0.22c0.102-0.042 0.238-0.059 0.407-0.068s0.348 0 0.526 0.025c0.204 0.025 0.424 0.059 0.645 0.093 0.238 0.237 0.458 0.406 0.662 0.524 0.178 0.101 0.365 0.152 0.543 0.144s0.323-0.152 0.433-0.44l-0.059-0.118c-0.051-0.076-0.093-0.144-0.119-0.194-0.017-0.093-0.025-0.178-0.042-0.271-0.017-0.076-0.017-0.169-0.017-0.271v-0.676c0-0.101 0.008-0.194 0.017-0.271 0.017-0.093 0.025-0.178 0.042-0.271 0.017-0.025 0.025-0.051 0.051-0.076 0.017-0.025 0.042-0.059 0.068-0.093 0.025-0.042 0.042-0.085 0.059-0.135-0.102-0.271-0.246-0.414-0.433-0.431-0.178-0.017-0.365 0.034-0.543 0.135-0.212 0.118-0.433 0.287-0.662 0.524-0.221 0.042-0.433 0.068-0.645 0.093-0.178 0.025-0.357 0.042-0.526 0.042s-0.306-0.025-0.407-0.076c-0.195-0.025-0.323-0.101-0.373-0.22-0.051-0.127-0.068-0.287-0.059-0.499 0.017-0.178 0.051-0.33 0.11-0.457s0.119-0.22 0.187-0.279c0.068-0.076 0.144-0.127 0.238-0.152 0.025 0.287 0.068 0.499 0.136 0.643s0.127 0.245 0.195 0.313c0.068 0.068 0.136 0.085 0.221 0.059s0.144-0.068 0.187-0.135c0.119-0.194 0.297-0.423 0.535-0.676 0.238-0.262 0.594-0.431 1.061-0.524 0.17-0.042 0.348-0.059 0.543-0.059 0-0.178 0.017-0.364 0.059-0.541 0.093-0.465 0.263-0.82 0.526-1.057s0.484-0.414 0.679-0.533c0.068-0.051 0.11-0.118 0.136-0.194s0.008-0.152-0.059-0.211c-0.068-0.068-0.17-0.127-0.314-0.194s-0.357-0.11-0.645-0.135c0.025-0.093 0.076-0.169 0.153-0.237 0.068-0.068 0.153-0.127 0.272-0.178s0.272-0.093 0.467-0.118c0.221-0.017 0.39 0.008 0.509 0.059s0.187 0.178 0.212 0.372c0.042 0.101 0.059 0.237 0.068 0.406s0 0.347-0.025 0.524c-0.025 0.211-0.059 0.423-0.093 0.643-0.238 0.237-0.407 0.457-0.526 0.659-0.102 0.178-0.153 0.364-0.144 0.541s0.153 0.321 0.441 0.431l0.119-0.059c0.025-0.025 0.059-0.042 0.093-0.059 0.042-0.017 0.068-0.034 0.093-0.059 0.093-0.017 0.178-0.025 0.272-0.042 0.076-0.017 0.17-0.025 0.272-0.025 0.102-0.008 0.221-0.008 0.348-0.008 0.119 0 0.229 0 0.331 0.008s0.195 0.017 0.272 0.025c0.093 0.017 0.178 0.025 0.272 0.042 0.042 0.042 0.093 0.076 0.178 0.118 0.042 0.025 0.085 0.042 0.136 0.059 0.272-0.101 0.416-0.245 0.433-0.431 0.017-0.178-0.034-0.364-0.136-0.541-0.119-0.203-0.289-0.431-0.526-0.659-0.042-0.22-0.068-0.431-0.093-0.643-0.025-0.178-0.042-0.355-0.042-0.524s0.025-0.304 0.076-0.406c0.025-0.194 0.102-0.313 0.221-0.372 0.127-0.051 0.289-0.068 0.501-0.059 0.178 0.025 0.331 0.068 0.458 0.118s0.221 0.11 0.28 0.178c0.076 0.068 0.127 0.144 0.153 0.237-0.289 0.025-0.501 0.068-0.645 0.135s-0.246 0.127-0.314 0.194c-0.068 0.068-0.085 0.135-0.059 0.211s0.068 0.144 0.136 0.194c0.195 0.118 0.424 0.296 0.679 0.533 0.263 0.237 0.433 0.592 0.526 1.057 0.042 0.178 0.059 0.364 0.059 0.541 0.178 0 0.365 0.017 0.543 0.059 0.467 0.093 0.823 0.262 1.061 0.524s0.416 0.482 0.535 0.676c0.051 0.068 0.119 0.11 0.195 0.135s0.153 0.008 0.212-0.059c0.068-0.068 0.127-0.169 0.195-0.313s0.11-0.355 0.136-0.643c0.093 0.025 0.17 0.076 0.238 0.152 0.068 0.068 0.127 0.161 0.178 0.279 0.051 0.127 0.093 0.279 0.119 0.457 0.017 0.211-0.009 0.372-0.059 0.499s-0.178 0.194-0.373 0.22c-0.102 0.051-0.238 0.076-0.407 0.076s-0.348-0.017-0.526-0.042c-0.212-0.025-0.424-0.059-0.645-0.093-0.238-0.237-0.458-0.406-0.662-0.524-0.178-0.101-0.365-0.152-0.543-0.135s-0.323 0.152-0.433 0.431c0.017 0.051 0.034 0.093 0.059 0.135 0.042 0.076 0.076 0.135 0.119 0.178 0.017 0.093 0.025 0.178 0.042 0.271 0.017 0.076 0.025 0.169 0.025 0.271 0.008 0.101 0.008 0.211 0.008 0.33 0 0.127 0 0.245-0.008 0.347s-0.017 0.194-0.025 0.271c-0.017 0.093-0.025 0.178-0.042 0.271-0.025 0.025-0.042 0.059-0.059 0.093-0.017 0.042-0.034 0.068-0.059 0.093l-0.059 0.118c0.102 0.287 0.246 0.431 0.433 0.44 0.178 0.008 0.365-0.042 0.543-0.144 0.204-0.118 0.433-0.287 0.662-0.524 0.221-0.042 0.433-0.068 0.645-0.093 0.178-0.025 0.357-0.034 0.526-0.025 0.161 0.008 0.297 0.025 0.407 0.068zM17.468 17.463c0.221-0.144 0.399-0.296 0.526-0.457s0.229-0.321 0.289-0.473c0.068-0.169 0.102-0.347 0.119-0.541-0.017-0.178-0.051-0.355-0.119-0.524-0.068-0.144-0.161-0.296-0.289-0.465s-0.306-0.321-0.526-0.465c-0.144-0.22-0.297-0.397-0.467-0.524s-0.323-0.228-0.467-0.287c-0.17-0.068-0.348-0.101-0.526-0.118-0.195 0.017-0.373 0.051-0.543 0.118-0.153 0.068-0.314 0.161-0.475 0.287s-0.314 0.304-0.458 0.524c-0.238 0.144-0.416 0.296-0.535 0.465-0.127 0.169-0.221 0.321-0.28 0.465-0.068 0.169-0.102 0.347-0.119 0.524 0.017 0.194 0.051 0.372 0.119 0.541 0.068 0.152 0.161 0.313 0.28 0.473 0.127 0.161 0.306 0.313 0.535 0.457 0.144 0.237 0.297 0.414 0.458 0.533 0.161 0.127 0.323 0.22 0.475 0.279 0.17 0.068 0.348 0.101 0.543 0.118 0.178-0.017 0.357-0.051 0.526-0.118 0.144-0.068 0.297-0.161 0.467-0.279s0.323-0.296 0.467-0.533zM15.601 10.226c-0.017-0.127-0.042-0.245-0.093-0.347-0.051-0.093-0.136-0.178-0.255-0.254s-0.289-0.118-0.509-0.118c0.051-0.118 0.11-0.228 0.178-0.33 0.068-0.076 0.127-0.152 0.195-0.22s0.136-0.11 0.212-0.11c0 0.051 0.017 0.101 0.059 0.152 0.025 0.042 0.076 0.076 0.144 0.118s0.178 0.068 0.323 0.076h0.289c0.144-0.017 0.246-0.042 0.323-0.076 0.068-0.042 0.119-0.076 0.144-0.118 0.042-0.051 0.059-0.101 0.059-0.152 0.068 0 0.136 0.034 0.204 0.11 0.068 0.068 0.136 0.144 0.204 0.22 0.068 0.101 0.127 0.211 0.178 0.33-0.221 0-0.39 0.042-0.509 0.118s-0.204 0.161-0.255 0.254c-0.051 0.101-0.085 0.22-0.093 0.347 0.025 0.372 0.051 0.702 0.076 0.989s0.051 0.524 0.076 0.719c-0.042-0.025-0.085-0.059-0.136-0.093-0.042-0.025-0.085-0.051-0.144-0.085s-0.127-0.059-0.204-0.085c-0.051-0.042-0.093-0.042-0.136 0-0.144 0.042-0.263 0.093-0.373 0.178-0.051 0.042-0.093 0.068-0.119 0.093 0.025-0.194 0.051-0.431 0.085-0.719 0.042-0.296 0.059-0.626 0.076-0.998zM16.399 21.774c0.017 0.144 0.042 0.262 0.093 0.372 0.051 0.093 0.136 0.169 0.255 0.245 0.119 0.068 0.289 0.11 0.509 0.11-0.051 0.127-0.11 0.237-0.178 0.33s-0.136 0.169-0.204 0.237c-0.068 0.068-0.136 0.093-0.204 0.093 0-0.051-0.017-0.102-0.059-0.152-0.025-0.042-0.076-0.076-0.144-0.11s-0.178-0.059-0.323-0.084h-0.289c-0.144 0.025-0.246 0.051-0.323 0.084-0.068 0.034-0.119 0.068-0.144 0.11-0.042 0.051-0.059 0.101-0.059 0.152-0.076 0-0.153-0.034-0.212-0.093-0.068-0.068-0.127-0.144-0.195-0.237s-0.127-0.203-0.178-0.33c0.221 0 0.39-0.034 0.509-0.11 0.119-0.068 0.204-0.152 0.255-0.245 0.051-0.101 0.085-0.228 0.093-0.372-0.017-0.372-0.034-0.701-0.068-0.989s-0.059-0.524-0.085-0.719c0.025 0.042 0.068 0.076 0.119 0.118 0.076 0.068 0.204 0.118 0.373 0.152 0.042 0.051 0.085 0.051 0.136 0 0.144-0.042 0.263-0.093 0.348-0.152 0.051-0.042 0.093-0.076 0.136-0.118-0.025 0.194-0.051 0.431-0.076 0.719-0.034 0.288-0.059 0.617-0.085 0.989zM16.008 8.924c-0.127-0.025-0.238-0.059-0.331-0.093-0.076-0.025-0.153-0.068-0.212-0.118-0.068-0.051-0.093-0.118-0.093-0.194 0-0.118 0.034-0.22 0.093-0.321 0.068-0.093 0.136-0.186 0.212-0.262 0.093-0.093 0.204-0.178 0.331-0.254 0.119 0.076 0.221 0.161 0.314 0.254 0.076 0.076 0.153 0.169 0.212 0.262 0.068 0.093 0.093 0.203 0.093 0.321 0 0.076-0.034 0.144-0.093 0.194-0.068 0.051-0.136 0.093-0.212 0.118-0.093 0.034-0.195 0.068-0.314 0.093zM16.008 23.076c0.119 0.025 0.221 0.059 0.314 0.093 0.076 0.025 0.153 0.068 0.212 0.127 0.068 0.059 0.093 0.118 0.093 0.186 0 0.118-0.034 0.228-0.093 0.33-0.068 0.101-0.136 0.195-0.212 0.271-0.093 0.093-0.195 0.169-0.314 0.237-0.127-0.068-0.238-0.144-0.331-0.237-0.076-0.076-0.153-0.169-0.212-0.271-0.068-0.101-0.093-0.211-0.093-0.33 0-0.068 0.034-0.127 0.093-0.186 0.068-0.059 0.136-0.102 0.212-0.127 0.093-0.034 0.204-0.068 0.331-0.093zM22.833 16.144c0.017 0.144 0.043 0.245 0.076 0.321 0.042 0.068 0.076 0.118 0.119 0.144 0.051 0.042 0.102 0.059 0.153 0.059 0 0.076-0.034 0.152-0.11 0.211-0.068 0.068-0.144 0.127-0.221 0.194-0.093 0.068-0.195 0.127-0.314 0.178 0-0.22-0.042-0.389-0.119-0.507s-0.161-0.203-0.255-0.254c-0.119-0.051-0.238-0.085-0.373-0.093-0.374 0.025-0.705 0.051-0.993 0.076s-0.526 0.051-0.722 0.076c0.025-0.025 0.059-0.068 0.093-0.118 0.076-0.101 0.136-0.228 0.178-0.372 0.042-0.042 0.042-0.085 0-0.135-0.025-0.076-0.059-0.144-0.085-0.203-0.034-0.059-0.059-0.11-0.085-0.144-0.042-0.051-0.068-0.093-0.093-0.135 0.195 0.025 0.433 0.051 0.722 0.076s0.62 0.051 0.993 0.076c0.127-0.017 0.255-0.042 0.374-0.093 0.093-0.051 0.178-0.135 0.255-0.254s0.119-0.287 0.119-0.507c0.119 0.051 0.221 0.11 0.314 0.178 0.076 0.068 0.153 0.135 0.221 0.203s0.11 0.135 0.11 0.203c-0.051 0-0.102 0.017-0.153 0.059-0.043 0.025-0.076 0.076-0.119 0.144s-0.068 0.178-0.076 0.321v0.296zM23.512 15.366c0.119 0 0.221 0.034 0.323 0.093 0.093 0.068 0.187 0.135 0.263 0.211 0.093 0.093 0.178 0.194 0.255 0.313-0.076 0.127-0.161 0.237-0.255 0.33-0.076 0.076-0.17 0.152-0.263 0.211-0.093 0.068-0.204 0.093-0.323 0.093-0.076 0-0.144-0.034-0.195-0.093-0.051-0.068-0.093-0.135-0.119-0.211-0.042-0.093-0.068-0.203-0.093-0.33 0.025-0.118 0.059-0.22 0.093-0.313 0.025-0.076 0.068-0.152 0.119-0.211s0.119-0.093 0.195-0.093z"></path>
</svg>
