<!-- Generated by IcoMoon.io -->
<svg version="1.1" xmlns="http://www.w3.org/2000/svg" width="32" height="32" viewBox="0 0 32 32">
<title>token_0_highlight</title>
<path d="M15.815 11.077c-0.919 0-1.813 0.509-2.683 1.528s-1.304 2.24-1.304 3.664c0 1.433 0.422 2.658 1.267 3.677s1.755 1.528 2.733 1.528c0.985 0 1.9-0.468 2.745-1.404 0.845-0.927 1.271-2.194 1.279-3.801 0-1.598-0.435-2.857-1.304-3.776-0.878-0.944-1.78-1.416-2.708-1.416zM15.79 11.847c0.737 0 1.296 0.41 1.677 1.23 0.331 0.687 0.497 1.569 0.497 2.646v0.273c-0.008 0.108-0.012 0.203-0.012 0.286-0.075 1.333-0.298 2.397-0.671 3.192s-0.869 1.217-1.491 1.267c-0.638 0-1.168-0.422-1.59-1.267-0.381-0.811-0.571-1.735-0.571-2.77 0-0.025 0.004-0.091 0.012-0.199v-0.224c0.050-1.226 0.236-2.273 0.559-3.143s0.849-1.308 1.577-1.317z"></path>
</svg>
