<!-- Generated by IcoMoon.io -->
<svg version="1.1" xmlns="http://www.w3.org/2000/svg" width="32" height="32" viewBox="0 0 32 32">
<title>token_skull_sealed</title>
<path d="M21.011 19.618c0.014 0.118-0.014 0.242-0.076 0.38-0.035 0.035-0.069 0.076-0.111 0.145-0.035 0.041-0.070 0.083-0.104 0.118s-0.069 0.076-0.104 0.118c-0.035 0.021-0.063 0.055-0.097 0.097-0.056 0.076-0.125 0.083-0.208 0.035-0.021-0.021-0.049-0.035-0.076-0.048-0.035-0.014-0.056-0.028-0.076-0.048-0.056-0.021-0.097-0.035-0.125-0.048-0.035-0.014-0.069-0.021-0.111-0.035-0.194-0.104-0.403-0.166-0.639-0.194h-0.556c-0.194 0-0.41 0.007-0.653 0.014-0.174 0-0.319 0.021-0.445 0.062-0.035 0-0.063 0.007-0.090 0.014-0.028 0.014-0.056 0.028-0.090 0.048-0.042 0.014-0.076 0.048-0.097 0.111-0.014 0.055-0.021 0.104-0.035 0.159s-0.021 0.104-0.035 0.159c-0.035 0.118-0.035 0.214 0 0.304 0.014 0.042 0.021 0.076 0.035 0.111s0.021 0.069 0.035 0.111c0.021 0.021 0.035 0.035 0.049 0.035 0.056-0.014 0.104-0.021 0.16-0.021 0.056-0.007 0.104-0.007 0.16-0.007 0.035-0.014 0.056 0.007 0.076 0.048s0.042 0.076 0.063 0.111c0 0.014 0.014 0.028 0.035 0.048 0.021 0.055 0.042 0.055 0.063 0.014 0.014 0 0.028-0.014 0.049-0.035l0.035-0.014c0.035-0.021 0.056-0.014 0.076 0.035 0 0.035 0 0.062 0.007 0.097s0.007 0.062 0.007 0.097 0.021 0.138 0.063 0.221c0.056 0.083 0.090 0.187 0.111 0.304s0.042 0.235 0.063 0.367c0.035 0.055 0 0.097-0.097 0.124-0.014 0.014-0.021 0.021-0.042 0.021-0.014 0.007-0.028 0.014-0.042 0.021-0.021 0.014-0.042 0.035-0.063 0.076 0 0.035-0.014 0.055-0.035 0.062-0.056 0.042-0.104 0.083-0.146 0.118s-0.090 0.069-0.146 0.104c-0.021 0.021-0.035 0.035-0.049 0.035-0.021 0.021-0.042 0.014-0.063-0.014-0.021-0.021-0.035-0.041-0.035-0.062-0.021-0.055-0.035-0.104-0.042-0.159s-0.014-0.104-0.021-0.159c0-0.042 0-0.076-0.007-0.111s-0.014-0.076-0.021-0.124c0-0.014-0.007-0.014-0.014-0.014h-0.028c-0.021 0.083-0.035 0.138-0.035 0.159-0.021 0.118-0.014 0.214 0.014 0.304 0.014 0.035 0.014 0.069 0.014 0.104v0.104c0 0.097-0.035 0.166-0.097 0.208-0.014 0-0.021 0-0.021 0.007-0.007 0.007-0.014 0.007-0.021 0.007-0.042 0.021-0.083 0.042-0.118 0.062s-0.076 0.042-0.118 0.062c-0.014 0-0.021 0-0.021 0.007-0.007 0.007-0.014 0.007-0.021 0.007-0.076 0.021-0.111-0.007-0.111-0.076-0.014-0.021-0.014-0.055-0.014-0.097 0-0.021 0-0.042 0.007-0.055s0.007-0.035 0.007-0.055c0-0.035-0.014-0.055-0.035-0.076 0-0.042-0.014-0.048-0.049-0.014-0.021 0.014-0.042 0.035-0.063 0.076-0.076 0.021-0.118 0.041-0.125 0.069-0.014 0.028-0.014 0.048-0.014 0.069 0.076 0.035 0.118 0.062 0.125 0.097 0.014 0.035 0.014 0.062 0.014 0.097 0 0.021-0.028 0.042-0.090 0.062-0.056 0.021-0.097 0.035-0.118 0.048-0.056 0.042-0.118 0.069-0.194 0.076-0.076 0.014-0.139 0.007-0.194-0.014-0.056-0.035-0.097-0.076-0.125-0.125-0.021-0.062-0.035-0.117-0.035-0.159 0-0.055 0-0.104 0.007-0.145s0.007-0.083 0.007-0.124c0.014-0.055 0.014-0.111 0.014-0.166v-0.166c-0.014-0.055-0.021-0.111-0.021-0.173-0.007-0.062-0.021-0.132-0.042-0.208-0.021 0-0.035-0.007-0.049-0.014-0.021 0.083-0.042 0.159-0.056 0.228s-0.035 0.138-0.056 0.201c-0.014 0.055-0.021 0.104-0.021 0.145-0.007 0.042-0.007 0.090-0.007 0.145 0 0.042-0 0.076 0.007 0.111s0.014 0.069 0.021 0.111c0.014 0.035 0.014 0.062 0.014 0.090s0.007 0.055 0.014 0.090c0 0.042-0.007 0.069-0.014 0.076-0.021 0.042-0.042 0.076-0.063 0.097-0.104 0.042-0.201 0.055-0.285 0.035-0.076-0.014-0.125-0.062-0.146-0.159-0.021-0.083-0.035-0.145-0.035-0.194v-0.124c0-0.014 0-0.021-0.007-0.021-0.007-0.007-0.007-0.014-0.007-0.021-0.021 0.021-0.035 0.035-0.035 0.048s-0.007 0.028-0.014 0.048c-0.021 0.062-0.042 0.118-0.063 0.159 0 0.021-0.014 0.041-0.035 0.062-0.014 0.021-0.035 0.035-0.063 0.035-0.125-0.021-0.222-0.048-0.278-0.076-0.056-0.035-0.111-0.076-0.153-0.125-0.042-0.041-0.063-0.111-0.063-0.207 0-0.118 0-0.228 0.007-0.332s0.021-0.214 0.042-0.332l-0.035-0.014v0.014c-0.056 0.097-0.104 0.187-0.146 0.277s-0.076 0.187-0.097 0.291c-0.014 0.021-0.014 0.041-0.014 0.069s-0.007 0.048-0.014 0.069c0 0.014-0 0.021-0.007 0.021-0.007 0.007-0.007 0.014-0.007 0.021-0.021 0.042-0.049 0.055-0.076 0.035-0.056-0.021-0.111-0.076-0.174-0.159-0.076-0.118-0.118-0.235-0.125-0.367-0.035-0.173-0.028-0.339 0.014-0.505 0.021-0.062 0.035-0.124 0.049-0.18s0.021-0.111 0.035-0.166c0.035-0.221 0.139-0.422 0.319-0.602 0.021-0.021 0.042-0.042 0.063-0.055s0.042-0.035 0.063-0.055c0.021-0.014 0.056-0.035 0.097-0.076 0.042-0.035 0.063-0.083 0.063-0.159 0-0.021 0-0.035 0.007-0.042s0.007-0.021 0.007-0.041c-0.021-0.125-0.007-0.263 0.049-0.415 0.021-0.062 0.021-0.104 0-0.118s-0.056-0.035-0.111-0.055c-0.035-0.014-0.063-0.014-0.090-0.014s-0.056-0.007-0.090-0.014c-0.035-0.014-0.063-0.014-0.097-0.014s-0.063-0.014-0.097-0.035c-0.083-0.021-0.174-0.035-0.257-0.048s-0.174-0.021-0.257-0.035c-0.083 0-0.188 0-0.306-0.007s-0.236 0-0.354 0.021c-0.042 0.014-0.083 0.014-0.125 0.014s-0.083 0.007-0.125 0.014c-0.083 0.021-0.167 0.042-0.236 0.055-0.076 0.014-0.146 0.041-0.222 0.069-0.076 0.041-0.146 0.069-0.222 0.076-0.035 0.021-0.097 0.041-0.194 0.062-0.125 0.035-0.257 0-0.382-0.097l-0.014-0.014c-0.083-0.083-0.16-0.166-0.222-0.256-0.063-0.083-0.125-0.173-0.174-0.27-0.063-0.097-0.111-0.194-0.146-0.304-0.035-0.125-0.028-0.249 0.014-0.367 0.014-0.035 0.021-0.062 0.035-0.097s0.028-0.076 0.049-0.125c0.021-0.062 0.042-0.118 0.063-0.159s0.042-0.083 0.063-0.125c0.083-0.118 0.118-0.263 0.097-0.443-0.014-0.083-0.021-0.159-0.035-0.228s-0.028-0.138-0.049-0.214c-0.014-0.042-0.021-0.083-0.021-0.125-0.007-0.041-0.014-0.083-0.021-0.125-0.021-0.194-0.035-0.36-0.042-0.498-0.007-0.145 0-0.277 0.021-0.408 0.021-0.166 0.049-0.339 0.076-0.505 0.035-0.166 0.056-0.367 0.076-0.588 0.014-0.076 0.021-0.145 0.035-0.208s0.014-0.124 0.014-0.194c0-0.055 0-0.104 0.007-0.152s0.007-0.097 0.007-0.152c0-0.145-0.007-0.304-0.014-0.463-0.014-0.159-0.035-0.346-0.063-0.553-0.021-0.104-0.042-0.18-0.063-0.221 0-0.014-0.007-0.014-0.014-0.014l-0.014 0.014v0.761c0 0.041-0.007 0.090-0.014 0.145-0.021 0.055-0.035 0.104-0.042 0.145s-0.021 0.090-0.042 0.145c-0.021 0.042-0.035 0.076-0.049 0.111s-0.028 0.069-0.049 0.111c-0.042 0.097-0.069 0.194-0.090 0.284-0.014 0.097-0.028 0.194-0.042 0.284 0 0.104 0 0.18 0.007 0.228s0 0.090-0.021 0.138c0 0.014-0.007 0.014-0.014 0.014-0.014-0.014-0.014-0.021-0.014-0.035-0.021-0.118-0.042-0.242-0.056-0.373s-0.028-0.249-0.042-0.36c-0.021-0.166-0.035-0.339-0.042-0.498-0.007-0.166 0-0.332 0.007-0.498 0.014-0.145 0.021-0.277 0.021-0.38 0.007-0.104 0.014-0.201 0.021-0.284 0.021-0.118 0.042-0.228 0.056-0.332s0.035-0.214 0.056-0.332c0.021-0.083 0.035-0.166 0.049-0.249 0.014-0.076 0.028-0.173 0.049-0.277 0.042-0.221 0.111-0.415 0.208-0.574 0.063-0.118 0.139-0.228 0.229-0.339s0.208-0.221 0.361-0.325c0.146-0.194 0.306-0.373 0.479-0.54 0.167-0.166 0.347-0.318 0.528-0.443 0.097-0.062 0.181-0.118 0.25-0.159s0.139-0.076 0.208-0.111c0.069-0.035 0.146-0.062 0.236-0.090s0.201-0.062 0.34-0.104c0.194-0.062 0.396-0.124 0.604-0.173 0.215-0.055 0.451-0.097 0.715-0.124 0.201-0.062 0.41-0.097 0.625-0.097 0.063-0.014 0.125-0.021 0.194-0.021 0.063-0.007 0.125 0 0.194 0.007 0.097 0.014 0.194 0.014 0.292 0.014 0.104 0 0.229 0.007 0.389 0.014 0.167 0.035 0.34 0.069 0.5 0.111 0.167 0.041 0.326 0.090 0.486 0.145 0.257 0.083 0.507 0.187 0.75 0.304s0.465 0.256 0.653 0.415c0.16 0.145 0.299 0.311 0.417 0.491 0.083 0.124 0.181 0.249 0.292 0.36s0.229 0.228 0.34 0.339c0.056 0.062 0.104 0.131 0.153 0.207s0.090 0.145 0.139 0.221c0.076 0.138 0.139 0.304 0.18 0.491 0.049 0.194 0.090 0.36 0.118 0.505 0.035 0.221 0.049 0.443 0.049 0.664v0.664c-0.014 0.083-0.021 0.173-0.021 0.256-0.007 0.083-0.014 0.173-0.021 0.256l-0.049 0.38c-0.014 0.062-0.014 0.124-0.014 0.18s-0.007 0.111-0.014 0.166c-0.014 0.256-0.035 0.443-0.062 0.574 0 0.076-0.014 0.166-0.035 0.27 0 0.021-0.014 0.055-0.035 0.097h-0.028c-0.021-0.041-0.035-0.076-0.049-0.111s-0.014-0.069-0.014-0.104c0-0.035-0.007-0.076-0.014-0.118-0.014-0.055-0.014-0.111-0.014-0.18s-0.007-0.159-0.014-0.277c0-0.097-0.014-0.187-0.049-0.27-0.021-0.083-0.035-0.166-0.049-0.256-0.014-0.083-0.021-0.166-0.035-0.256v-0.588c-0.014 0.014-0.021 0.014-0.035 0.014 0 0.021-0 0.035-0.007 0.048s-0.007 0.028-0.007 0.048c-0.021 0.118-0.035 0.235-0.049 0.36s-0.028 0.249-0.049 0.373c-0.014 0.118-0.021 0.235-0.042 0.36-0.014 0.124-0.021 0.27-0.021 0.45 0.021 0.097 0.042 0.187 0.056 0.277s0.049 0.18 0.104 0.263c0.056 0.083 0.104 0.173 0.146 0.263s0.083 0.18 0.125 0.263c0.042 0.062 0.063 0.125 0.063 0.173 0.014 0.041 0.021 0.090 0.035 0.138s0.028 0.131 0.049 0.249c0.021 0.062 0.042 0.131 0.069 0.201s0.049 0.138 0.069 0.201c0.056 0.221 0.063 0.429 0.035 0.622l-0.049 0.38c-0.021 0.145-0.028 0.263-0.014 0.353 0.014 0.083 0.028 0.166 0.048 0.235 0 0.021 0 0.041 0.007 0.055s0.007 0.035 0.007 0.055c0.028-0.014 0.028 0.028 0.028 0.076zM14.795 18.774c0.056-0.041 0.104-0.083 0.153-0.118s0.118-0.076 0.215-0.118c0.021-0.042 0.042-0.076 0.069-0.111s0.049-0.062 0.069-0.097c0.021-0.014 0.049-0.014 0.076 0 0.042 0.021 0.076 0.048 0.111 0.076 0.035 0.035 0.063 0.055 0.097 0.076 0.014 0.014 0.028 0.014 0.049 0.014 0.014 0 0.014-0.014 0.014-0.035 0-0.097-0.007-0.166-0.014-0.207-0.014-0.055-0.021-0.104-0.042-0.152-0.014-0.048-0.035-0.097-0.056-0.152-0.021-0.076-0.021-0.152 0-0.235 0.035-0.055 0.042-0.104 0.035-0.159v-0.138c0-0.048-0.007-0.118-0.014-0.214 0-0.021-0.007-0.035-0.021-0.041s-0.028 0-0.042 0.007l-0.035 0.035c-0.014 0.083-0.021 0.138-0.042 0.159-0.014 0.021-0.035 0.028-0.056 0.014s-0.056-0.014-0.097-0.014c0-0.083 0-0.131-0.007-0.145s-0.007-0.021-0.007-0.035c-0.035-0.076-0.076-0.138-0.125-0.194-0.056-0.055-0.146-0.104-0.285-0.145-0.125-0.076-0.264-0.131-0.396-0.173-0.139-0.041-0.285-0.076-0.431-0.097-0.083-0.021-0.139-0.028-0.167-0.014s-0.076 0.035-0.153 0.076c-0.014-0.014-0.021-0.014-0.021-0.014-0.007 0-0.014-0.007-0.021-0.014-0.076-0.055-0.194-0.048-0.368 0.014h-0.014c-0.014 0-0.014 0.007-0.014 0.014-0.118 0.055-0.215 0.076-0.285 0.062-0.021 0-0.035 0-0.049-0.007s-0.028-0.007-0.049-0.007c-0.035-0.014-0.090-0.014-0.174-0.014-0.118 0-0.215 0.021-0.306 0.062-0.021 0.014-0.035 0.014-0.049 0.014s-0.028 0.007-0.049 0.014c-0.042 0.021-0.076 0.028-0.111 0.014l-0.035-0.014h-0.028c-0.042 0-0.063 0.014-0.063 0.048 0 0.097-0.014 0.159-0.049 0.194-0.021 0.035-0.035 0.069-0.042 0.118s0 0.118 0.007 0.214c0.014 0.055 0.007 0.125-0.014 0.207-0.014 0.055-0.021 0.104-0.021 0.152-0.007 0.048-0.014 0.097-0.021 0.152v0.111c0.021 0.235 0.069 0.45 0.146 0.65 0.014 0.062 0.035 0.125 0.076 0.173 0.056 0.118 0.111 0.207 0.174 0.277s0.132 0.125 0.208 0.166c0.042 0.021 0.097 0.062 0.16 0.125 0.014 0.055 0.035 0.090 0.063 0.111 0.021 0.021 0.035 0.035 0.049 0.035 0.021 0.021 0.042 0.028 0.063 0.021s0.042-0.021 0.063-0.041l0.049-0.097c0.076-0.097 0.174-0.145 0.306-0.145h0.382c0.056 0.014 0.111 0.014 0.174 0.007s0.125-0.007 0.174-0.007c0.16-0.021 0.306-0.062 0.431-0.125 0.063-0.035 0.125-0.083 0.181-0.152 0.063-0.028 0.118-0.104 0.174-0.18zM17.024 20.558c0.014-0.055 0.021-0.097 0.021-0.138 0.007-0.035 0.007-0.076 0.007-0.118-0.014-0.021-0.014-0.055-0.014-0.111-0.021-0.055-0.035-0.104-0.049-0.152s-0.021-0.097-0.035-0.152c-0.021-0.062-0.056-0.125-0.097-0.18s-0.118-0.111-0.222-0.166c-0.042-0.055-0.076-0.104-0.104-0.152s-0.056-0.097-0.090-0.152c-0.021-0.035-0.035-0.062-0.049-0.090s-0.028-0.062-0.049-0.104c-0.021-0.118-0.056-0.194-0.097-0.235-0.076-0.055-0.146-0.062-0.208-0.035-0.174 0.118-0.285 0.277-0.333 0.477-0.014 0.055-0.035 0.131-0.076 0.235-0.056 0.125-0.111 0.249-0.167 0.36s-0.125 0.228-0.201 0.339c-0.042 0.062-0.076 0.145-0.111 0.256-0.181 0.242-0.174 0.443 0.014 0.588 0.035 0.083 0.076 0.166 0.125 0.256 0.035 0.062 0.076 0.111 0.146 0.145 0.035 0.021 0.063 0.042 0.097 0.062s0.063 0.041 0.097 0.062c0.042 0.021 0.076 0.035 0.111 0.035 0.063 0.021 0.111 0.007 0.146-0.048 0.014-0.014 0.028-0.035 0.049-0.076 0.014-0.021 0.014-0.035 0.014-0.048s0.007-0.028 0.014-0.048c0.014-0.076 0.049-0.131 0.111-0.173s0.118-0.035 0.16 0.035c0.021 0.021 0.035 0.035 0.042 0.048s0.021 0.028 0.042 0.048c0.056 0.055 0.111 0.062 0.174 0.035 0.076-0.021 0.16-0.055 0.257-0.104s0.153-0.111 0.174-0.201c0-0.021 0-0.035 0.007-0.048s0.007-0.028 0.007-0.048c0.014-0.041 0.021-0.083 0.021-0.124 0.007-0.041 0.021-0.097 0.042-0.159 0.014-0.048 0.021-0.090 0.028-0.118zM20.552 18.331v-0.104c0-0.035 0.007-0.083 0.014-0.138-0.014-0.041-0.014-0.083-0.014-0.125v-0.145c0-0.062-0.014-0.125-0.049-0.194-0.042-0.083-0.090-0.187-0.146-0.304s-0.125-0.214-0.208-0.284c-0.035-0.021-0.063-0.035-0.090-0.048s-0.069-0.028-0.118-0.048c-0.104-0.055-0.208-0.104-0.306-0.145s-0.194-0.090-0.285-0.145c-0.035-0.035-0.063-0.048-0.097-0.048-0.063-0.042-0.146-0.042-0.257 0-0.014 0.014-0.021 0.021-0.035 0.021-0.014 0.007-0.021 0.014-0.035 0.021-0.021 0-0.042 0.014-0.063 0.035-0.083 0.035-0.167 0.048-0.236 0.048-0.042 0-0.111-0.014-0.208-0.048-0.063-0.014-0.125-0.035-0.174-0.062-0.056-0.021-0.090-0.014-0.111 0.035-0.021 0.041-0.035 0.069-0.035 0.076-0.021 0.055-0.056 0.076-0.097 0.076-0.076 0-0.146 0.028-0.222 0.076-0.035 0.021-0.063 0.035-0.090 0.042s-0.056 0.021-0.090 0.041c-0.083 0.041-0.16 0.055-0.222 0.048-0.056 0-0.125 0.014-0.208 0.035-0.014 0.014-0.021 0.014-0.021 0.014-0.007 0-0.014 0.007-0.021 0.014-0.042 0-0.049 0.028-0.014 0.076 0.021 0.014 0.035 0.021 0.042 0.021 0.007 0.007 0.021 0.014 0.042 0.021 0.021 0.083 0.035 0.138 0.035 0.159v0.062c0.014 0.104-0.014 0.214-0.076 0.318-0.021 0.021-0.042 0.048-0.056 0.076-0.014 0.035-0.035 0.055-0.056 0.076-0.035 0.055-0.063 0.104-0.090 0.159s-0.049 0.104-0.069 0.159v0.035h0.035c0.042-0.021 0.069-0.035 0.076-0.035 0.035 0 0.049 0.007 0.049 0.014 0.014 0.055 0.049 0.125 0.111 0.207 0.056 0.076 0.111 0.145 0.174 0.207s0.132 0.138 0.208 0.221c0.042 0.083 0.090 0.152 0.146 0.207l0.194 0.097c0.236 0.097 0.521 0.173 0.861 0.235 0.104 0.014 0.215 0.014 0.319 0 0.16-0.014 0.319-0.055 0.479-0.145 0.139-0.055 0.278-0.138 0.424-0.249s0.292-0.228 0.438-0.339c0.063-0.055 0.104-0.097 0.111-0.125 0.014-0.035 0.028-0.090 0.049-0.173v-0.028z"></path>
</svg>
