<!-- Generated by IcoMoon.io -->
<svg version="1.1" xmlns="http://www.w3.org/2000/svg" width="32" height="32" viewBox="0 0 32 32">
<title>token_-3_highlight</title>
<path d="M19.836 11.313c-0.828 0.050-1.669 0.075-2.521 0.075-0.489 0-0.936-0.004-1.341-0.012-0.397-0.017-0.799-0.041-1.205-0.075-0.091 0-0.161 0.037-0.211 0.112-0.050 0.083-0.087 0.149-0.112 0.199-0.282 0.53-0.592 0.99-0.932 1.379-0.083 0.083-0.137 0.203-0.161 0.36 0 0.157 0.054 0.236 0.161 0.236 0.282 0 0.513-0.149 0.696-0.447 0.199-0.273 0.662-0.447 1.391-0.522 0.265-0.033 0.638-0.050 1.118-0.050 0.273 0 0.534 0.012 0.783 0.037 0.091 0.008 0.153 0.021 0.186 0.037l0.012 0.025c0 0.033-0.037 0.099-0.112 0.199-0.331 0.381-0.658 0.729-0.981 1.043-0.381 0.373-0.733 0.696-1.056 0.969-0.124 0.108-0.186 0.24-0.186 0.397 0 0.124 0.050 0.186 0.149 0.186 0.174 0 0.315-0.029 0.422-0.087 0.149-0.066 0.298-0.099 0.447-0.099 0.679 0 1.242 0.273 1.689 0.82 0.356 0.455 0.534 0.965 0.534 1.528 0 0.133-0.012 0.273-0.037 0.422-0.008 0.712-0.244 1.354-0.708 1.925-0.455 0.571-1.052 0.857-1.789 0.857-0.522 0-0.973-0.195-1.354-0.584-0.373-0.389-0.559-0.816-0.559-1.279v-0.149c-0.008-0.066-0.012-0.108-0.012-0.124 0-0.298 0.062-0.534 0.186-0.708 0.091-0.141 0.244-0.265 0.46-0.373 0.224-0.116 0.335-0.24 0.335-0.373v-0.112c0-0.066-0.021-0.112-0.062-0.137-0.050-0.033-0.112-0.054-0.186-0.062-0.075-0.017-0.186-0.025-0.335-0.025-0.215 0.008-0.402 0.054-0.559 0.137-0.878 0.373-1.317 1.019-1.317 1.938 0 0.662 0.315 1.279 0.944 1.851 0.638 0.571 1.433 0.857 2.385 0.857 0.455 0 0.944-0.108 1.466-0.323 0.505-0.207 0.969-0.493 1.391-0.857 0.414-0.356 0.766-0.766 1.056-1.23s0.439-0.936 0.447-1.416c0-0.505-0.046-0.948-0.137-1.329s-0.232-0.737-0.422-1.068c-0.397-0.687-0.99-1.139-1.776-1.354-0.124-0.025-0.186-0.079-0.186-0.161 0.017-0.075 0.041-0.137 0.075-0.186 0.282-0.331 0.567-0.638 0.857-0.919l0.037-0.037c0.414-0.397 0.725-0.691 0.932-0.882 0.116-0.124 0.178-0.253 0.186-0.385 0-0.132-0.050-0.199-0.149-0.199z"></path>
<path d="M10.055 16.098c-0.003 0-0.005 0.001-0.008 0.001-0.037 0.003-0.073-0.011-0.097-0.039-0.033-0.037-0.040-0.090-0.017-0.133l0.351-0.685c0.016-0.032 0.044-0.056 0.078-0.067 0.013-0.004 0.026-0.007 0.039-0.007 0.006-0 0.011 0 0.016 0 0.093 0.004 0.992 0.047 1.58 0.045s1.488-0.048 1.581-0.053c0.006-0 0.011-0.001 0.016-0 0.028 0.001 0.055 0.013 0.074 0.034 0.009 0.010 0.016 0.022 0.015 0.035-0.014 0.096-0.18 0.438-0.247 0.572-0.017 0.035-0.046 0.063-0.081 0.079-0.022 0.010-0.045 0.016-0.069 0.016-0.002 0-0.004 0-0.007 0-0.058-0-0.913-0.001-1.49 0.032-0.644 0.036-1.664 0.162-1.735 0.17z"></path>
<path d="M13.598 15.054c-0.012-0.001-0.021 0-0.026 0-0.092 0.005-0.993 0.052-1.576 0.053s-1.482-0.041-1.575-0.045c-0.005-0-0.014-0.001-0.025-0-0.024 0.001-0.046 0.005-0.069 0.012-0.060 0.020-0.11 0.063-0.139 0.119l-0.351 0.685c-0.042 0.082-0.029 0.183 0.032 0.252 0.046 0.052 0.115 0.079 0.184 0.073 0.006-0 0.010-0.001 0.013-0.001 0.070-0.009 1.091-0.133 1.728-0.169 0.57-0.032 1.426-0.032 1.484-0.032h0c0.002 0 0.005 0 0.008 0h0.001c0.038-0.001 0.076-0.010 0.111-0.026 0.056-0.026 0.103-0.071 0.131-0.128 0.033-0.067 0.092-0.187 0.145-0.303 0.026-0.058 0.051-0.116 0.071-0.166s0.035-0.089 0.041-0.134v-0c0.008-0.058-0.023-0.101-0.042-0.122-0.038-0.041-0.091-0.065-0.146-0.067h-0zM13.561 15.266c-0.005 0.014-0.004 0.017-0.011 0.035-0.018 0.045-0.041 0.1-0.066 0.156-0.051 0.112-0.109 0.23-0.141 0.296-0.007 0.013-0.018 0.024-0.032 0.030-0.009 0.004-0.018 0.006-0.027 0.006-0.001 0-0.002 0-0.004 0-0.059-0-0.914-0.001-1.496 0.032-0.651 0.037-1.67 0.162-1.742 0.171h-0c-0.003 0-0.003 0-0.002 0h-0c-0.004 0-0.008-0.001-0.011-0.005-0.004-0.004-0.005-0.009-0.002-0.014l0.351-0.685c0.004-0.007 0.010-0.013 0.018-0.015 0.003-0.001 0.006-0.002 0.009-0.002 0 0 0.002 0 0.007 0h0c0.093 0.004 0.992 0.047 1.585 0.045 0.585-0.002 1.45-0.047 1.564-0.053z"></path>
</svg>
