<!-- Generated by IcoMoon.io -->
<svg version="1.1" xmlns="http://www.w3.org/2000/svg" width="35" height="32" viewBox="0 0 35 32">
<title>tokyo</title>
<path d="M7.934 26.97l-0.086-0.027-0.004-0.283c-0.002-0.156 0.002-0.399 0.009-0.542 0.029-0.581 0.064-1.153 0.077-1.258 0.009-0.069 0.016-0.401 0.019-0.869l0.005-0.758 0.036-0.056c0.052-0.082 0.083-0.157 0.098-0.241 0.026-0.146 0.064-0.61 0.075-0.919 0.013-0.331 0.025-0.485 0.057-0.709 0.011-0.075 0.024-0.172 0.030-0.216s0.010-0.166 0.009-0.271c-0.001-0.105 0.008-0.282 0.020-0.394 0.041-0.402 0.045-0.472 0.063-1.128 0.020-0.733 0.024-0.787 0.093-1.35 0.006-0.051 0.017-0.484 0.023-0.962s0.017-0.992 0.024-1.141c0.007-0.149 0.016-0.374 0.020-0.499s0.016-0.353 0.027-0.506c0.011-0.153 0.021-0.447 0.023-0.654 0.003-0.37 0.032-1.085 0.056-1.4 0.007-0.088 0.016-0.271 0.020-0.407l0.008-0.247-0.030-0.034c-0.017-0.020-0.050-0.039-0.079-0.046-0.095-0.022-1.574-0.041-2.949-0.038-1.012 0.002-1.397-0.001-1.436-0.011-0.029-0.008-0.070-0.032-0.092-0.054-0.070-0.070-0.073-0.114-0.050-0.723 0.026-0.676 0.027-0.683 0.063-0.725l0.029-0.033 0.446 0.004c0.245 0.002 0.497 0.008 0.559 0.014 0.066 0.006 0.334 0.006 0.637-0.001 0.288-0.006 0.776-0.016 1.083-0.022s0.562-0.014 0.566-0.018c0.004-0.004-0.009-0.027-0.028-0.052-0.187-0.233-0.185-0.294 0.011-0.327 0.094-0.016 0.162-0.014 0.761 0.019 0.436 0.024 0.517 0.024 0.554-0.002 0.028-0.019 0.028-0.025 0.020-0.12-0.013-0.141-0.009-0.318 0.012-0.657 0.010-0.162 0.022-0.349 0.026-0.417 0.011-0.173 0.008-0.176-0.187-0.192-0.081-0.007-0.517-0.023-0.968-0.037-1.769-0.054-1.996-0.061-2.491-0.073-0.745-0.019-1.030-0.033-1.116-0.055-0.12-0.031-0.247-0.1-0.326-0.177-0.147-0.144-0.195-0.3-0.371-1.21-0.051-0.262-0.074-0.332-0.121-0.357-0.037-0.020-0.326-0.064-0.534-0.081-0.294-0.024-0.349-0.059-0.411-0.264-0.099-0.324-0.347-0.888-0.451-1.024-0.053-0.069-0.061-0.087-0.061-0.136 0-0.054 0.003-0.058 0.075-0.11 0.041-0.030 0.105-0.082 0.141-0.115 0.067-0.061 0.067-0.061 0.138-0.056 0.039 0.003 0.14 0.026 0.225 0.051s0.31 0.084 0.499 0.131c0.715 0.177 0.809 0.195 1.097 0.217 0.136 0.010 0.255 0.021 0.265 0.024s0.132 0.020 0.271 0.037c0.139 0.017 0.361 0.045 0.493 0.063 0.596 0.079 0.917 0.116 1.498 0.173 0.108 0.011 0.389 0.047 0.623 0.080 0.508 0.072 0.735 0.095 1.024 0.105 0.119 0.004 0.305 0.016 0.413 0.025 0.632 0.057 0.797 0.067 1.202 0.067 0.326 0 0.434 0.005 0.512 0.020 0.081 0.016 0.251 0.021 0.943 0.029 0.465 0.005 0.931 0.016 1.036 0.023 0.178 0.012 0.414 0.021 1.332 0.051 0.2 0.007 0.58 0.021 0.845 0.032 0.278 0.011 0.56 0.016 0.668 0.012 0.103-0.004 0.297-0.002 0.432 0.005s0.45 0.016 0.701 0.019c0.738 0.010 3.065 0.005 3.293-0.008 0.115-0.006 0.581-0.011 1.036-0.012 0.624-0 0.89-0.005 1.085-0.020 0.165-0.012 0.56-0.023 1.091-0.029 0.526-0.007 0.935-0.018 1.11-0.030 0.153-0.011 0.397-0.028 0.543-0.038s0.371-0.019 0.499-0.019c0.129-0 0.284-0.006 0.345-0.012s0.167-0.017 0.234-0.024c0.399-0.042 0.578-0.053 1.061-0.062 0.391-0.008 0.561-0.015 0.647-0.030 0.186-0.031 0.296-0.042 0.592-0.056 0.313-0.015 0.586-0.044 1.017-0.106 0.163-0.023 0.371-0.053 0.462-0.066s0.266-0.030 0.388-0.037c0.444-0.028 0.588-0.045 1.307-0.154 0.108-0.016 0.369-0.055 0.58-0.086 0.421-0.062 0.497-0.077 0.664-0.13 0.229-0.073 0.913-0.239 1.001-0.243l0.086-0.004 0.216 0.187v0.085c0 0.084-0.001 0.086-0.081 0.209-0.091 0.139-0.164 0.32-0.331 0.822-0.083 0.249-0.101 0.293-0.143 0.341-0.072 0.082-0.113 0.093-0.436 0.12-0.362 0.030-0.381 0.033-0.419 0.063-0.051 0.040-0.068 0.086-0.124 0.348-0.156 0.725-0.224 1.001-0.26 1.068-0.030 0.056-0.039 0.062-0.225 0.151-0.256 0.123-0.319 0.143-0.545 0.169-0.301 0.035-0.251 0.033-2.325 0.098-0.722 0.023-1.231 0.040-1.846 0.061-0.239 0.008-0.271 0.012-0.294 0.033-0.026 0.023-0.026 0.030-0.019 0.246 0.009 0.274 0.042 0.896 0.052 0.96 0.011 0.073 0.040 0.119 0.090 0.14 0.049 0.021 0.063 0.020 0.582-0.015 0.677-0.046 0.712-0.047 0.761-0.023 0.070 0.035 0.075 0.052 0.037 0.13-0.018 0.037-0.069 0.115-0.113 0.174s-0.080 0.109-0.080 0.112c0 0.020 0.264 0.024 1.572 0.026 0.807 0.001 1.529 0.007 1.605 0.012 0.112 0.008 0.144 0.015 0.171 0.037l0.033 0.026-0.002 0.376c-0.003 0.598-0.017 0.936-0.041 0.981-0.041 0.078 0.118 0.073-2.254 0.079-2.041 0.006-2.167 0.007-2.198 0.028-0.018 0.012-0.037 0.037-0.042 0.055s-0.002 0.286 0.006 0.595c0.025 0.961 0.062 2.259 0.076 2.639 0.007 0.2 0.024 0.666 0.038 1.036s0.027 0.728 0.031 0.795c0.003 0.068 0.017 0.381 0.030 0.697 0.022 0.514 0.076 1.652 0.092 1.924 0.003 0.058 0.015 0.291 0.025 0.518s0.024 0.505 0.031 0.617c0.007 0.112 0.024 0.384 0.038 0.604s0.027 0.426 0.030 0.456c0.003 0.030 0.017 0.194 0.030 0.364 0.036 0.437 0.043 0.486 0.094 0.608 0.118 0.285 0.114 0.269 0.121 0.433 0.004 0.085 0.018 0.495 0.032 0.913s0.027 0.833 0.031 0.925c0.013 0.336 0.043 1.11 0.051 1.34 0.010 0.269-0.001 0.325-0.074 0.378-0.076 0.056-0.088 0.057-0.793 0.057s-0.759-0.003-1.084-0.063c-0.267-0.049-0.614-0.159-0.643-0.203-0.027-0.040-0.039-0.146-0.047-0.406-0.008-0.238-0.046-0.836-0.068-1.061-0.056-0.568-0.055-0.56-0.055-1.159-0-0.326 0.002-0.903 0.006-1.282 0.004-0.491 0.002-0.733-0.009-0.839-0.008-0.081-0.029-0.386-0.046-0.676-0.034-0.574-0.032-0.657 0.021-0.909 0.036-0.17 0.046-0.517 0.016-0.586-0.012-0.027-0.029-0.113-0.039-0.191-0.020-0.16-0.020-0.14-0.009-0.339 0.006-0.11 0.002-0.187-0.014-0.302-0.023-0.162-0.025-0.345-0.035-2.762-0.002-0.471-0.008-1.060-0.014-1.307-0.011-0.478-0.005-0.597 0.044-0.928 0.032-0.216 0.036-0.527 0.008-0.652-0.016-0.073-0.016-0.085 0.001-0.117 0.024-0.044 0.026-0.189 0.005-0.338-0.008-0.058-0.021-0.241-0.029-0.407-0.015-0.328-0.024-0.387-0.063-0.408-0.018-0.010-1.877-0.017-6.732-0.024-3.688-0.006-6.733-0.014-6.766-0.019s-0.083-0.002-0.112 0.006c-0.098 0.026-0.089-0.269-0.086 3.017 0.002 2.119-0.001 3.114-0.013 3.545-0.009 0.329-0.024 1.039-0.034 1.578s-0.024 1.197-0.032 1.461c-0.015 0.501-0.010 1.124 0.012 1.714 0.013 0.345 0.007 0.747-0.023 1.634-0.007 0.214-0.017 0.683-0.022 1.042-0.008 0.588-0.011 0.658-0.030 0.694-0.041 0.075-0.071 0.084-0.668 0.189-0.081 0.014-0.215 0.040-0.296 0.058-0.148 0.032-0.148 0.032-0.839 0.035-0.684 0.003-0.691 0.003-0.777-0.024zM10.158 23.135c-0.006-0.006-0.091-0.015-0.283-0.032-0.437-0.038-0.916-0.047-1.246-0.025-0.224 0.015-0.259 0.021-0.259 0.044 0 0.016 0.12 0.018 0.896 0.018 0.493 0 0.894-0.002 0.891-0.005zM26.775 23.109c0.004-0.010 0-0.022-0.008-0.025s-0.412-0.004-0.897-0.003c-0.828 0.003-0.882 0.005-0.886 0.025s0.045 0.022 0.889 0.022c0.793 0 0.894-0.002 0.901-0.019zM20 11.967c0.11-0.009 0.23-0.008 0.419 0.002 0.219 0.012 0.32 0.011 0.58-0.004 0.403-0.024 2.117-0.021 2.392 0.003 0.339 0.030 1.024-0.016 1.024-0.070 0-0.015-0.992-0.017-6.844-0.017-6.185 0-6.844 0.002-6.844 0.019 0 0.011 0.025 0.030 0.059 0.045 0.057 0.025 0.065 0.026 0.305 0.012 0.136-0.008 0.574-0.018 0.974-0.022 0.608-0.007 0.795-0.004 1.135 0.014 0.305 0.016 0.461 0.019 0.623 0.011 0.119-0.006 0.28-0.008 0.358-0.004s0.361 0.003 0.629-0.002c0.941-0.016 2.055-0.015 2.22 0.002 0.159 0.016 0.44 0.011 0.709-0.012 0.317-0.027 1.506-0.012 1.742 0.023 0.101 0.015 0.341 0.015 0.521 0zM12.342 10.523c0.125-0.010 0.792-0.013 2.233-0.011 2.279 0.003 2.116 0.009 2.143-0.076 0.011-0.036 0.020-0.168 0.046-0.7 0.004-0.088-0-0.22-0.012-0.349-0.011-0.114-0.019-0.267-0.019-0.342 0-0.122-0.003-0.138-0.028-0.167-0.052-0.061 0.171-0.055-3.24-0.087-1.055-0.010-2.089-0.023-2.298-0.030-0.414-0.012-0.448-0.009-0.492 0.050-0.022 0.030-0.024 0.065-0.030 0.598-0.005 0.413-0.003 0.58 0.008 0.619 0.027 0.099-0.004 0.095 0.722 0.102l0.642 0.006 0.039 0.028c0.048 0.034 0.058 0.062 0.040 0.109-0.019 0.049-0.044 0.075-0.113 0.112-0.033 0.018-0.059 0.037-0.059 0.043 0 0.022 0.038 0.083 0.059 0.095 0.028 0.016 0.141 0.016 0.361-0.001zM23.096 10.518c0.020-0.010 0.036-0.022 0.036-0.026s-0.017-0.032-0.038-0.062c-0.021-0.031-0.051-0.078-0.067-0.106-0.026-0.046-0.027-0.054-0.012-0.083 0.028-0.053 0.071-0.072 0.231-0.1 0.194-0.034 0.551-0.036 0.799-0.005 0.204 0.026 0.318 0.029 0.354 0.009 0.015-0.008 0.037-0.032 0.048-0.053 0.018-0.035 0.019-0.103 0.015-0.638-0.006-0.634-0.008-0.656-0.064-0.675-0.032-0.011-0.183-0.009-0.969 0.015-1.027 0.031-1.86 0.043-3.511 0.051l-1.569 0.008v0.784c0 0.867-0.005 0.811 0.081 0.865l0.044 0.027 0.378-0.011c0.44-0.013 0.533-0.013 1.802 0.003 0.526 0.007 1.282 0.013 1.681 0.014 0.629 0.002 0.73-0 0.762-0.017zM24.365 10.304c0-0.006-0.029-0.013-0.065-0.016l-0.065-0.004 0.043-0.014c0.034-0.011-0.077-0.014-0.515-0.015-0.488-0.001-0.558 0.001-0.558 0.017s0.064 0.019 0.496 0.020c0.413 0.001 0.577 0.007 0.654 0.021 0.005 0.001 0.009-0.003 0.009-0.010zM8.635 10.282c0.004-0.011 0.004-0.025-0.002-0.030-0.018-0.018-0.516-0.072-0.836-0.091-0.176-0.010-0.353-0.022-0.392-0.026l-0.071-0.007v0.071l0.373 0.029c0.345 0.027 0.872 0.069 0.905 0.073 0.008 0.001 0.018-0.008 0.022-0.019zM11.741 10.294c-0.076-0.002-0.139-0.009-0.139-0.015s0.054-0.013 0.12-0.016c0.066-0.002-0.133-0.005-0.442-0.007s-0.565 0.001-0.569 0.005c-0.004 0.004-0.004 0.015-0.001 0.025 0.006 0.015 0.099 0.017 0.588 0.015 0.32-0.001 0.519-0.004 0.443-0.007zM26.998 10.254c0.075-0.006 0.272-0.017 0.438-0.025 0.362-0.017 0.358-0.016 0.358-0.056v-0.031h-0.165c-0.183 0-0.359 0.012-0.735 0.050-0.443 0.045-0.412 0.040-0.417 0.066-0.004 0.022 0.004 0.023 0.191 0.015 0.107-0.005 0.257-0.014 0.331-0.019zM17.734 8.269c0.017-0.013 0.038-0.041 0.046-0.062 0.013-0.032 0.022-0.037 0.061-0.037 0.025 0 0.055-0.007 0.067-0.016 0.046-0.034 0.102-0.355 0.080-0.456s-0.113-0.19-0.217-0.212c-0.031-0.006-0.046-0.020-0.066-0.058l-0.026-0.050-0.133 0.006c-0.171 0.008-0.221 0.032-0.337 0.16l-0.085 0.094-0.027 0.332 0.044 0.060c0.024 0.033 0.080 0.095 0.124 0.138l0.079 0.078 0.103 0.012c0.057 0.006 0.12 0.016 0.14 0.022 0.062 0.018 0.113 0.014 0.145-0.011zM25.475 8.247c0.030-0.010 0.099-0.040 0.152-0.067 0.096-0.048 0.097-0.049 0.089-0.090-0.006-0.030-0-0.055 0.018-0.091 0.016-0.031 0.029-0.084 0.033-0.142 0.007-0.097-0.006-0.147-0.078-0.293-0.054-0.109-0.142-0.171-0.242-0.171-0.037 0-0.057-0.008-0.078-0.031-0.034-0.037-0.088-0.040-0.13-0.008-0.048 0.037-0.1 0.060-0.159 0.070-0.084 0.014-0.097 0.024-0.101 0.083-0.003 0.046-0.009 0.054-0.045 0.070-0.040 0.017-0.041 0.020-0.033 0.071 0.007 0.045 0.003 0.059-0.024 0.094-0.039 0.051-0.039 0.066-0.001 0.139 0.017 0.032 0.031 0.071 0.031 0.086s0.006 0.042 0.013 0.058c0.016 0.035 0.206 0.165 0.32 0.218 0.087 0.041 0.121 0.041 0.234 0.004zM9.874 8.141c0.029-0.029 0.073-0.071 0.096-0.093 0.093-0.091 0.121-0.191 0.102-0.368-0.013-0.121-0.015-0.126-0.049-0.14-0.029-0.012-0.034-0.020-0.028-0.048 0.016-0.078-0.148-0.154-0.361-0.169l-0.11-0.007-0.327 0.243 0.003 0.167c0.003 0.15 0.006 0.173 0.036 0.236 0.056 0.12 0.163 0.204 0.296 0.232 0.030 0.006 0.107 0.009 0.171 0.005l0.117-0.006zM16.69 6.471c0.111-0.019 0.247-0.022 1.442-0.024 1.34-0.003 1.852-0.012 2.599-0.046 0.229-0.011 0.45-0.019 0.49-0.019 0.057 0 0.074-0.004 0.074-0.018s-0.018-0.018-0.086-0.018c-0.049 0-0.086-0.005-0.086-0.012 0-0.015 0.033-0.015 0.224-0.001 0.083 0.006 0.46 0.018 0.836 0.025l0.684 0.014 0.469-0.038c0.258-0.021 0.574-0.047 0.703-0.057 0.174-0.014 0.394-0.019 0.859-0.018 0.498 0.001 0.651-0.002 0.752-0.017 0.070-0.010 0.369-0.030 0.664-0.043 0.976-0.045 1.164-0.058 1.733-0.117 0.428-0.045 0.583-0.065 0.777-0.102 0.158-0.030 0.203-0.033 0.518-0.035 0.325-0.003 0.357-0.005 0.549-0.040 0.112-0.021 0.281-0.052 0.376-0.069 0.531-0.098 1.313-0.21 1.585-0.228 0.33-0.022 0.48-0.047 1.116-0.187 0.336-0.074 0.357-0.084 0.268-0.126-0.068-0.032-0.157-0.037-0.262-0.013-0.087 0.019-0.244 0.038-0.192 0.023 0.013-0.004 0.088-0.025 0.167-0.047 0.131-0.037 0.143-0.043 0.143-0.070s-0.005-0.030-0.086-0.033c-0.066-0.003-0.107 0.004-0.176 0.027-0.103 0.035-0.765 0.175-1.050 0.223-0.722 0.119-1.55 0.24-1.986 0.29-0.119 0.013-0.263 0.030-0.321 0.037s-0.202 0.021-0.321 0.031c-0.119 0.010-0.274 0.024-0.345 0.031s-0.268 0.024-0.438 0.037c-0.17 0.013-0.48 0.038-0.691 0.056-1.952 0.16-2.462 0.193-3.595 0.234-0.426 0.015-0.876 0.038-0.986 0.050-0.017 0.002-0.041 0.004-0.052 0.004s-0.022 0.007-0.022 0.013c0 0.007 0.056 0.012 0.142 0.012 0.078 0 0.142 0.005 0.142 0.011 0 0.017-0.047 0.024-0.167 0.025-0.061 0-0.289 0.006-0.506 0.013s-0.592 0.018-0.832 0.025c-0.241 0.007-0.502 0.015-0.58 0.018s-0.444 0.014-0.814 0.025c-0.37 0.010-0.8 0.024-0.956 0.030s-0.288 0.008-0.293 0.005c-0.033-0.020 0.022-0.026 0.271-0.033 0.154-0.004 0.483-0.014 0.731-0.020 0.707-0.020 0.806-0.025 0.79-0.041-0.011-0.011-0.653-0.014-2.495-0.014-1.666-0-2.665-0.005-3.042-0.015-0.309-0.008-0.925-0.024-1.369-0.034s-0.985-0.024-1.202-0.031c-0.217-0.007-0.686-0.021-1.042-0.031s-0.797-0.024-0.98-0.031c-0.183-0.007-0.58-0.021-0.882-0.031s-0.585-0.021-0.629-0.025c-0.044-0.003-0.186-0.012-0.314-0.019-0.738-0.039-1.727-0.135-3.373-0.326-0.153-0.018-0.397-0.046-0.543-0.062-0.938-0.106-1.398-0.176-2.214-0.337-0.691-0.136-0.702-0.138-0.784-0.135-0.070 0.003-0.080 0.007-0.083 0.030-0.003 0.024 0.014 0.030 0.21 0.078 0.117 0.029 0.216 0.056 0.22 0.059 0.011 0.012-0.131-0.009-0.24-0.035s-0.309-0.035-0.329-0.015c-0.039 0.039 0.071 0.066 0.872 0.213 0.311 0.057 0.586 0.111 0.635 0.123 0.067 0.017 0.383 0.070 0.561 0.093 0.088 0.012 0.244 0.037 0.345 0.057 0.352 0.069 0.475 0.083 0.842 0.096 0.249 0.009 0.402 0.020 0.514 0.038 0.088 0.014 0.194 0.031 0.234 0.037s0.21 0.017 0.376 0.025c0.291 0.013 0.722 0.052 1.282 0.117 0.146 0.017 0.396 0.044 0.555 0.061s0.395 0.041 0.524 0.055c0.129 0.014 0.31 0.025 0.403 0.025 0.152 0 0.591 0.031 0.88 0.062 0.372 0.040 0.361 0.040 0.492 0.018 0.094-0.016 0.19-0.021 0.39-0.019 0.146 0.001 0.287 0.004 0.314 0.007s0.219 0.012 0.425 0.019c0.361 0.013 0.744 0.034 1.073 0.061 0.344 0.028 0.72 0.038 1.406 0.038 0.815 0 1.964 0.037 2.276 0.073 0.147 0.017 0.305 0.014 0.431-0.008zM16.769 6.334c0-0.012 2.152-0.032 2.171-0.020 0.007 0.004 0.012 0.013 0.012 0.019s-0.418 0.012-1.091 0.012c-0.6 0-1.091-0.005-1.091-0.010zM15.117 6.314c0.144-0.016 0.715-0.010 0.715 0.008 0 0.006-0.19 0.010-0.422 0.009-0.396-0.002-0.414-0.003-0.293-0.016zM22.627 6.318c-0.294-0.015-0.289-0.020 0.022-0.022 0.236-0.001 0.274 0.001 0.274 0.017 0 0.021 0.019 0.020-0.296 0.005zM14.364 6.306c-0.425-0.016-0.431-0.019-0.039-0.021 0.285-0.002 0.361 0.001 0.357 0.013-0.007 0.020 0.005 0.020-0.318 0.008zM23.48 6.226c0.004-0.022 0.037-0.024 0.633-0.037 0.731-0.016 1.050-0.031 2.107-0.095 0.201-0.012 0.246-0.012 0.251 0.001 0.003 0.009 0.004 0.019 0.001 0.021s-0.219 0.014-0.479 0.024c-0.261 0.010-0.527 0.022-0.591 0.025s-0.406 0.018-0.758 0.031c-0.75 0.028-0.897 0.034-1.052 0.044-0.108 0.007-0.115 0.006-0.111-0.016zM11.198 6.212c0.195-0.002 0.514-0.002 0.709 0s0.035 0.003-0.355 0.003c-0.39 0-0.55-0.002-0.355-0.003zM6.91 5.937c-0.108-0.012-0.21-0.023-0.225-0.023s-0.028-0.005-0.028-0.010 0.071-0.003 0.157 0.005c0.086 0.008 0.2 0.019 0.253 0.024s0.096 0.014 0.096 0.019c0 0.013-0.012 0.013-0.253-0.015zM28.903 5.851c0-0.007 0.047-0.012 0.12-0.011 0.115 0.002 0.117 0.002 0.046 0.011-0.109 0.014-0.167 0.013-0.167-0.001zM29.619 5.778c0-0.013 0.026-0.018 0.203-0.038 0.068-0.008 0.136-0.016 0.151-0.019 0.019-0.004 0.028 0 0.028 0.013 0 0.010-0.005 0.019-0.010 0.019-0.019 0-0.28 0.025-0.326 0.031-0.026 0.003-0.046 0.001-0.046-0.006zM30.359 5.716c0-0.019-0.002-0.018 0.986-0.167 0.159-0.024 0.339-0.052 0.4-0.062 0.126-0.021 0.155-0.023 0.155-0.008 0 0.006-0.079 0.022-0.176 0.037s-0.265 0.041-0.373 0.058c-0.288 0.045-0.557 0.087-0.746 0.116-0.092 0.014-0.184 0.028-0.207 0.032-0.024 0.004-0.040 0.002-0.040-0.006z"></path>
</svg>
