<!-- Generated by IcoMoon.io -->
<svg version="1.1" xmlns="http://www.w3.org/2000/svg" width="33" height="32" viewBox="0 0 33 32">
<title>tomb_of_dead_dreams</title>
<path d="M1.594 29.943c-0.206-0.127-0.188-0.335 0.081-0.964 0.189-0.441 1.299-3.913 2.466-7.716s2.412-7.857 2.766-9.010c0.354-1.152 0.709-2.171 0.789-2.263s4.002-0.216 8.715-0.276c6.902-0.088 8.638-0.055 8.917 0.167 0.216 0.172 1.226 3.366 2.685 8.487 1.286 4.516 2.619 8.939 2.962 9.829s0.547 1.695 0.454 1.788c-0.171 0.171-5.199-1.37-5.633-1.726-0.273-0.225-0.288-0.326-1.231-8.255-0.397-3.342-0.778-6.477-0.846-6.967l-0.124-0.89h-6.992c-6.48 0-7 0.027-7.095 0.367-0.128 0.457-0.568 3.129-1.405 8.538-0.357 2.305-0.759 4.849-0.895 5.653l-0.246 1.462-2.552 0.968c-1.469 0.557-2.663 0.899-2.814 0.806zM4.828 27.374l1.114-0.712 1.107-5.423c0.609-2.983 1.315-6.413 1.569-7.623l0.462-2.2 7.533 0.073c4.143 0.040 7.597 0.134 7.676 0.21s0.5 3.139 0.936 6.809c0.436 3.67 0.829 6.564 0.873 6.433 0.109-0.328-1.44-13.28-1.608-13.45-0.074-0.074-3.599-0.174-7.833-0.223-6.847-0.078-7.709-0.051-7.797 0.24-0.054 0.18-0.77 3.627-1.592 7.661s-1.556 7.392-1.632 7.463c-0.436 0.407-2.129 1.236-2.129 1.042 0-0.203 2.196-7.541 4.317-14.424l0.726-2.357h8.15c7.581 0 8.158 0.026 8.26 0.367 1.042 3.47 4.737 16.405 4.737 16.582 0 0.261-0.422 0.189-2.2-0.377-1.018-0.324-1.051-0.36-1.173-1.276l-0.126-0.943-0.028 0.838c-0.016 0.461 0.041 0.945 0.126 1.077 0.163 0.252 2.876 1.123 3.499 1.123 0.216 0 0.323-0.113 0.261-0.275-0.058-0.151-1.215-4.111-2.572-8.8l-2.466-8.525h-8.216c-6.328 0-8.261 0.060-8.413 0.262-0.15 0.2-2.683 8.431-5.232 17.004-0.149 0.501 0.153 0.398 1.671-0.573zM9.445 24.563c0.072-1.469 0.183-4.274 0.247-6.234s0.166-4.060 0.228-4.668l0.113-1.106 5.73 0.116 0.11 14.562h-6.56zM14.789 25.716c-0.028-0.615-0.040-0.626-0.117-0.118-0.047 0.31-0.245 0.605-0.44 0.657-0.251 0.066-0.217 0.1 0.117 0.118 0.403 0.021 0.467-0.074 0.44-0.657zM12.725 26.042c-0.173-0.062-0.432-0.261-0.576-0.443-0.238-0.3-0.262-0.299-0.262 0.010 0 0.187-0.212 0.381-0.471 0.431s0 0.096 0.576 0.103c0.576 0.007 0.906-0.039 0.733-0.1zM13.676 24.944c-0.076-0.123-0.321-0.223-0.545-0.223-0.263 0-0.407-0.144-0.407-0.407 0-0.224-0.11-0.475-0.245-0.558-0.167-0.103-0.2-0.035-0.105 0.214 0.077 0.201 0.14 0.5 0.14 0.663s0.183 0.297 0.407 0.297c0.224 0 0.469 0.101 0.545 0.223s0.185 0.176 0.243 0.119c0.058-0.058 0.043-0.205-0.033-0.328zM11.077 24.302c0.138 0 0.191-0.061 0.117-0.135-0.204-0.204-0.775 0.349-0.76 0.736 0.009 0.231 0.075 0.189 0.203-0.13 0.104-0.259 0.303-0.471 0.441-0.471zM11.062 21.602c-0.122-0.229-0.223-0.705-0.223-1.058s-0.081-0.642-0.181-0.642c-0.204 0-0.122 0.713 0.242 2.095 0.176 0.668 0.268 0.808 0.316 0.482 0.037-0.253-0.032-0.648-0.155-0.877zM14.329 22.452c-0.431-0.476-0.443-0.85-0.032-1.008 0.453-0.174 0.387-1.202-0.105-1.647-0.511-0.462-0.536-0.733-0.070-0.733 0.192 0 0.293-0.056 0.225-0.124s-0.319-0.062-0.559 0.014c-0.43 0.137-0.429 0.145 0.089 0.825 0.605 0.794 0.645 1.080 0.209 1.515-0.422 0.422-0.397 1.053 0.052 1.315 0.534 0.311 0.58 0.274 0.19-0.157zM12.568 21.229c-0.144-0.058-0.38-0.058-0.524 0s-0.026 0.106 0.262 0.106c0.288 0 0.406-0.048 0.262-0.106zM12.463 20.176c-0.202-0.053-0.532-0.053-0.733 0s-0.037 0.096 0.367 0.096c0.403 0 0.568-0.043 0.367-0.096zM11.428 19.124c-0.422-0.064-0.585-0.228-0.65-0.65-0.078-0.509-0.089-0.498-0.117 0.117-0.030 0.641 0.009 0.679 0.65 0.65 0.615-0.028 0.626-0.040 0.117-0.117zM13.032 18.016c0.177 0 0.32-0.165 0.318-0.367-0.002-0.221-0.064-0.277-0.157-0.142-0.085 0.124-0.319 0.286-0.521 0.36-0.209 0.077-0.361 0.34-0.353 0.613l0.013 0.478 0.19-0.471c0.104-0.259 0.334-0.471 0.511-0.471zM14.393 17.063c-0.202-0.244-0.187-0.304 0.075-0.304 0.18 0 0.386-0.094 0.457-0.209 0.181-0.292-0.163-0.262-0.593 0.053-0.31 0.227-0.323 0.341-0.092 0.835 0.181 0.39 0.289 0.47 0.336 0.251 0.038-0.177-0.044-0.459-0.183-0.626zM11.873 15.501c-0-0.288-0.145-0.76-0.322-1.048-0.209-0.341-0.269-0.377-0.172-0.105 0.29 0.816 0.337 1.524 0.11 1.664-0.126 0.078-0.23 0.296-0.23 0.484 0 0.287 0.050 0.276 0.308-0.065 0.169-0.224 0.307-0.642 0.307-0.931zM14.611 14.768c0-0.384-0.112-0.524-0.419-0.524-0.231 0-0.419 0.091-0.419 0.203s0.141 0.149 0.314 0.082c0.195-0.075 0.314 0.001 0.314 0.199 0 0.176-0.118 0.367-0.262 0.425-0.156 0.063-0.114 0.112 0.105 0.122 0.256 0.012 0.367-0.142 0.367-0.507zM13.35 14.075c-0.003-0.301-0.033-0.308-0.199-0.045-0.167 0.264-0.29 0.24-0.835-0.163-0.352-0.26-0.638-0.399-0.637-0.309 0.004 0.232 1.327 1.073 1.516 0.963 0.086-0.050 0.156-0.251 0.154-0.446zM16.546 19.954l0.055-7.281 5.727-0.116 0.115 1.315c0.063 0.723 0.167 2.918 0.23 4.877s0.174 4.67 0.246 6.024l0.131 2.462h-6.56zM18.825 25.633c0.139 0.305 0.335 0.554 0.436 0.554s0.086-0.182-0.034-0.405c-0.321-0.599-0.285-0.642 0.524-0.642 0.667 0 0.719 0.040 0.524 0.405-0.334 0.623-0.257 0.793 0.117 0.259 0.318-0.454 0.36-0.461 0.89-0.14 0.497 0.301 0.489 0.28-0.072-0.197-0.899-0.764-2.58-0.766-3.343-0.003-0.746 0.746-0.67 0.933 0.086 0.209l0.619-0.593 0.252 0.554zM18.487 23.673c0.209-0.231 0.304-0.419 0.213-0.419s-0.292 0.165-0.445 0.367c-0.257 0.338-0.279 0.339-0.285 0.012-0.004-0.195-0.087-0.404-0.186-0.465s-0.135 0.122-0.080 0.407c0.12 0.627 0.286 0.648 0.783 0.098zM20.001 23.253c0.026-0.46-0.034-0.837-0.134-0.837-0.193 0-0.422 1.412-0.256 1.578 0.24 0.24 0.346 0.039 0.39-0.741zM21.929 23.202c-0.014-0.438-0.026-0.442-0.175-0.062-0.159 0.407-0.162 0.407-0.398 0-0.258-0.445-0.328-0.331-0.123 0.202 0.194 0.505 0.713 0.401 0.696-0.14zM18.603 20.552c-0.339-0.633-0.265-1.246 0.198-1.642 0.231-0.197 0.419-0.436 0.419-0.53 0-0.25-0.968 0.73-1.1 1.113-0.062 0.179 0.016 0.556 0.172 0.838s0.304 0.938 0.328 1.456l0.044 0.943 0.080-0.883c0.044-0.485-0.020-1.069-0.141-1.296zM20.687 21.263c0-0.308-0.12-0.524-0.292-0.524-0.426 0-0.57-0.557-0.22-0.848 0.378-0.313 0.374-0.781-0.012-1.456-0.36-0.631-0.409-0.438-0.075 0.296 0.195 0.429 0.171 0.629-0.134 1.095-0.363 0.554-0.361 0.579 0.075 0.933 0.247 0.2 0.448 0.513 0.448 0.696s0.047 0.333 0.105 0.333c0.058 0 0.105-0.236 0.105-0.524zM21.488 18.235c0.037-0.38-0.030-0.789-0.15-0.909-0.15-0.15-0.178 0.027-0.089 0.571 0.090 0.555 0.041 0.849-0.165 0.993-0.244 0.17-0.24 0.19 0.022 0.12 0.179-0.048 0.343-0.382 0.382-0.776zM17.769 18.139c-0.194-0.234-0.148-0.363 0.224-0.624 0.258-0.181 0.413-0.384 0.345-0.452s-0.315 0.082-0.548 0.332c-0.416 0.447-0.41 1.039 0.012 1.039 0.129 0 0.116-0.117-0.032-0.295zM19.583 14.604c-0.044-0.486-0.079-0.036-0.079 1.002s0.037 1.435 0.080 0.884 0.043-1.399-0.001-1.886zM18.12 16.010c-0.735-0.399-0.761-1.181-0.062-1.88 0.335-0.335 0.412-0.514 0.221-0.514-0.42 0-0.945 0.834-0.945 1.501 0 0.547 0.649 1.233 1.147 1.214 0.118-0.005-0.044-0.149-0.361-0.321zM21.274 15.878c0.359-0.359 0.311-1.545-0.078-1.934-0.358-0.358-1.137-0.45-1.137-0.134 0 0.108 0.259 0.225 0.576 0.262 0.458 0.053 0.59 0.189 0.644 0.661 0.040 0.352-0.080 0.758-0.294 0.995-0.39 0.431-0.128 0.566 0.289 0.149zM3.759 16.288c-0.127-0.154-0.567-1.062-0.976-2.018-0.681-1.591-0.744-1.911-0.745-3.763-0.001-1.787 0.077-2.218 0.661-3.67 0.531-1.319 0.833-1.771 1.52-2.274 0.809-0.592 0.94-0.621 2.303-0.511 1.836 0.148 3.254 0.849 4.827 2.386 0.974 0.951 1.343 1.174 2.074 1.257 1.095 0.123 1.451-0.224 1.358-1.323-0.080-0.949-0.596-1.364-1.215-0.977-0.576 0.36-0.672 0.329-0.594-0.19 0.095-0.641 0.612-0.889 1.503-0.722 0.912 0.171 1.673 1.2 1.906 2.577 0.294 1.738-0.726 2.468-3.244 2.322-1.722-0.1-2.45-0.418-4.065-1.778-1.032-0.869-1.918-0.916-2.827-0.151-0.513 0.432-0.645 0.706-0.645 1.345 0 1.073 0.174 1.465 0.651 1.465 0.535 0 0.507 0.338-0.237 2.933-0.816 2.844-1.585 3.899-2.256 3.091zM27.219 13.982c-0.113-0.375-0.373-1.361-0.578-2.192l-0.373-1.511 0.562-0.442c0.63-0.496 0.781-1.646 0.271-2.069-0.461-0.382-1.948-0.036-3.361 0.783-1.202 0.696-1.37 0.735-3.069 0.709-0.989-0.015-2.049-0.123-2.357-0.241-0.694-0.264-1.396-1.377-1.396-2.214 0-0.843 1.229-2.2 1.992-2.2 0.775 0 1.359 0.363 1.359 0.846 0 0.436-0.306 0.554-0.524 0.202-0.212-0.343-0.913-0.238-1.131 0.17-0.356 0.665 0.179 1.391 1.080 1.466 0.633 0.053 1.060-0.119 2.3-0.924 2.56-1.662 4.724-2.006 6.611-1.049 1.731 0.878 1.826 1.079 1.826 3.869 0 2.412-0.008 2.452-0.716 3.592-0.994 1.6-1.269 1.886-1.815 1.886-0.354 0-0.527-0.173-0.68-0.681z"></path>
</svg>
