<!-- Generated by IcoMoon.io -->
<svg version="1.1" xmlns="http://www.w3.org/2000/svg" width="32" height="32" viewBox="0 0 32 32">
<title>torches</title>
<path d="M21.742 2.594l-1.156 0.941c-1.541 1.254-2.538 2.251-3.127 3.536-0.489 1.066-0.638 2.371-0.688 4.002-0.172-0.093-0.349-0.087-0.512-0.278-0.385-0.451-0.766-1.32-0.766-3.086v-1.338l-1 0.889c-2.558 2.278-2.953 4.718-2.619 6.506s1.345 2.978 1.345 2.978l0.917-0.772c0 0-0.81-0.972-1.083-2.428-0.231-1.233-0.032-2.784 1.406-4.47 0.162 1.096 0.44 1.977 0.887 2.5 0.626 0.733 1.42 0.938 1.825 1.041l0.748 0.191v-0.772c0-2.135 0.155-3.428 0.628-4.461 0.357-0.779 1.026-1.499 1.919-2.308 0.081 1.817 0.593 3.267 1.273 4.38 0.852 1.393 1.658 2.475 1.658 4.242 0 1.348-0.654 2.414-1.538 3.175-0.409 0.352-0.87 0.61-1.317 0.805 0.672-1.064 0.693-2.185 0.433-3.067-0.264-0.897-0.761-1.57-1.134-1.95l-0.856 0.841c0.233 0.238 0.648 0.801 0.839 1.448s0.202 1.353-0.305 2.127c-0.599 0.914-1.028 1.472-1.445 1.775s-0.852 0.427-1.695 0.427h-0.352l-0.172 0.306c-0.793 1.413-2.902 5.233-6.82 8.773-0.564-0.352-1.039-0.739-1.436-1.098 1.818-1.57 5.744-4.768 8.088-8.942l-1.045-0.587c-2.343 4.173-6.71 7.63-8.377 9.114l-0.47 0.419 0.442 0.45c0.447 0.455 1.493 1.413 2.584 1.969l0.361 0.183 0.305-0.266c4.187-3.652 6.376-7.601 7.248-9.161 0.801-0.045 1.487-0.209 2.045-0.616 0.189-0.138 0.342-0.438 0.511-0.613 1.081-0.042 2.309-0.529 3.352-1.427 1.089-0.938 1.955-2.343 1.955-4.084 0-2.14-1.015-3.53-1.833-4.867s-1.493-2.623-1.208-4.945l0.183-1.48zM19.423 25.627v2.47h1.2v-2.47h-1.2z"></path>
</svg>
