<!-- Generated by IcoMoon.io -->
<svg version="1.1" xmlns="http://www.w3.org/2000/svg" width="32" height="32" viewBox="0 0 32 32">
<title>trauma</title>
<path fill="#394852" d="M13.606 5.703l-1.484 0.594c0.934 2.326 0.507 4.168-0.575 5.25s-2.924 1.509-5.25 0.575l-0.594 1.484c2.772 1.114 5.388 0.659 6.975-0.928s2.042-4.203 0.928-6.975zM18.394 5.703c-1.114 2.772-0.659 5.388 0.928 6.975s4.203 2.042 6.975 0.928l-0.594-1.484c-2.326 0.934-4.168 0.507-5.25-0.575s-1.509-2.924-0.575-5.25zM9.634 17.847c-1.199-0.173-2.545-0.010-3.931 0.547l0.594 1.484c2.326-0.934 4.168-0.507 5.25 0.575s1.509 2.924 0.575 5.25l1.484 0.594c1.114-2.772 0.659-5.388-0.928-6.975-0.793-0.793-1.845-1.302-3.044-1.475zM22.366 17.847c-1.199 0.173-2.25 0.682-3.044 1.475-1.587 1.587-2.042 4.203-0.928 6.975l1.484-0.594c-0.934-2.326-0.507-4.168 0.575-5.25s2.924-1.509 5.25-0.575l0.594-1.484c-1.386-0.557-2.732-0.72-3.931-0.547z"></path>
</svg>
