<!-- Generated by IcoMoon.io -->
<svg version="1.1" xmlns="http://www.w3.org/2000/svg" width="32" height="32" viewBox="0 0 32 32">
<title>triangle</title>
<path d="M15.964 0.016c-8.372 0.020-15.231 6.473-15.895 14.677l-0.004 0.057c-0.031 0.374-0.049 0.81-0.049 1.25 0 8.168 6.126 14.904 14.034 15.866l0.077 0.008c0.562 0.070 1.213 0.11 1.873 0.11 7.948 0 14.541-5.801 15.776-13.399l0.012-0.092 0.196-2.492c0 0 0-0 0-0 0-8.607-6.804-15.626-15.327-15.97l-0.031-0.001c-0.186-0.008-0.405-0.012-0.625-0.012-0.013 0-0.026 0-0.039 0h0.002zM16.159 7.059c3.090 5.228 6.179 10.457 9.268 15.685h-18.537c3.090-5.228 6.179-10.457 9.268-15.685z"></path>
</svg>
