<!-- Generated by IcoMoon.io -->
<svg version="1.1" xmlns="http://www.w3.org/2000/svg" width="32" height="32" viewBox="0 0 32 32">
<title>tsk</title>
<path d="M26.911 12.113c2.984 1.192 4.277 4.718 3.863 7.729-0.184 1.803-0.633 3.6-1.69 5.101-0.182 0.652-1.466 2.223-1.286 0.632 0.371-2.694 1.683-5.296 1.211-8.071-0.218-2.063-1.836-3.806-3.867-4.211-1.825-0.49-3.714 0.19-5.323 1.035-0.6 0.628-0.963 1.056-1.065 1.844-0.763 0.129-0.456 0.577-1.065 0.984-0.552-0.143-0.231 1.014-1.065 0.779 0.194 0.682-0.783 0.62-0.778 0.942 0.082 0.646-0.951 0.362-0.778 0.903-0.487 0.438-0.79 0.509-1.065 1.147-0.675-0.105-0.281 0.924-1.065 0.819-0.045 0.425-0.822 0.685-0.9 1.024-0.286 0.57-0.85 0.383-0.942 1.066-0.766-0.063-0.444 0.79-1.105 0.902-0.398-0.008-0.351 1.086-1.107 0.738-0.211 0.417 0.004 1.563-0.255 2.201-0.68 1.567-2.575 2.564-4.254 2.267-1.677-0.389-3.137-2.062-2.716-3.843 0.253-1.752 1.879-3.372 3.735-3.047 0.626 0.246 0.512-0.914 1.235-0.858 0.057-0.742 0.933-0.336 0.942-0.984 0.776-0.077 0.634-0.948 1.475-0.902 0.117-0.808 0.955-0.585 1.23-1.312 0.51 0.084 0.656-0.901 1.188-0.779 0.238-0.696 0.912-0.476 1.188-1.189 0.416-0.028 0.881-0.677 1.23-0.86 0.036-0.619 0.954-0.248 0.86-0.821 0.719-0.2 0.709-0.716 1.393-0.984 0.832 0.096 1.413-0.928 2.121-1.371 0.908-0.449 1.194-1.849 0.339-2.523-1.182-1.094-2.977-0.6-4.349-0.196-1.904 0.576-3.591 1.655-5.315 2.604-0.612 0.143-2.87 1.43-2.521 0.154 2.093-2.251 4.957-3.676 7.865-4.572 1.988-0.586 4.565-0.61 5.918 1.231 0.431 0.472 0.465 1.604 0.962 0.548 0.905-1.402 2.13-3.026 1.672-4.793-0.348-1.789-2.393-1.907-3.749-1.227-2.282 0.731-4.471 1.913-6.907 2.012-0.843-0.653 1.372-1.38 1.866-1.838 2.049-1.065 4.273-1.815 6.524-2.328 1.644-0.361 3.11 0.881 3.699 2.33 1.099 2.237-0.25 4.652-1.481 6.517-0.596 0.692-0.851 1.061 0.277 0.73 1.242-0.242 3.092 0.364 3.851 0.469zM6.621 27.321c0.823-0.838 0.297-1.406-0.368-1.886-0.579 0.020-0.875-0.74-1.269-0.861-1.429-0.182-2.394 2.193-1.14 3.015 0.867 0.824 2.045 0.545 2.777-0.268z"></path>
</svg>
