<!-- Generated by IcoMoon.io -->
<svg version="1.1" xmlns="http://www.w3.org/2000/svg" width="32" height="32" viewBox="0 0 32 32">
<title>tskc</title>
<path d="M16.606 0.563c-1.035 0.594-5.108 2.884-5.7 3.204-1.746 0.944-1.826 1.005-2.526 1.913-0.357 0.464-0.754 0.995-0.882 1.18-0.329 0.476-0.641 1.321-0.739 1.997-0.046 0.318-0.167 0.983-0.27 1.479-0.257 1.239-0.27 3.047-0.030 4.177 0.222 1.043 0.556 2.055 0.857 2.597 0.141 0.253 0.326 0.691 0.413 0.974 0.187 0.614-0.039 0.414 2.853 2.522 0.338 0.246 0.796 0.51 1.018 0.585 0.358 0.122 0.454 0.127 0.852 0.049 1.26-0.248 1.769-0.524 3.073-1.665 0.278-0.243 0.643-0.525 0.812-0.626 0.506-0.302 0.491-0.319-1.028-1.107-0.476-0.247-0.876-0.476-0.889-0.51s0.085-0.077 0.217-0.098c0.132-0.021 0.548-0.086 0.925-0.146 0.182-0.037 0.631-0.102 1.083-0.16l0.234-0.025c0.673-0.082 0.849-0.127 0.849-0.217 0-0.128-1.144-0.511-1.721-0.576-0.33-0.038-0.703-0.099-0.829-0.136-0.897-0.267-1.133-0.361-1.488-0.59-0.472-0.305-0.619-0.547-0.611-0.999 0.008-0.464 0.245-0.878 0.729-1.272 1.046-0.852 2.382-1.218 3.827-1.049 1.832 0.215 3.039 1.662 3.414 4.095 0.159 1.032-0.189 2.217-1.024 3.488-0.446 0.679-1.766 1.972-2.76 2.705-1.382 1.019-3.103 1.757-4.625 1.982-0.278 0.041-0.688 0.111-0.912 0.156-0.31 0.062-0.474 0.060-0.686-0.006-0.322-0.101-1.372-0.714-1.794-1.047-0.159-0.125-0.337-0.246-0.397-0.268-0.236-0.088-1.794-1.314-2.625-2.067-1.521-1.378-1.792-1.693-2.059-2.393-0.556-1.458-0.764-3.027-0.657-4.948 0.040-0.712 0.12-1.506 0.178-1.764s0.107-0.579 0.108-0.712c0.002-0.206-0.014-0.23-0.104-0.155-0.22 0.182-0.904 1.713-1.114 2.492-0.343 1.272-0.389 1.733-0.352 3.511 0.038 1.862 0.192 2.88 0.643 4.266 0.074 0.228 0.135 0.45 0.135 0.492 0 0.2 0.542 1.216 0.779 1.463 0.868 0.899 2.52 1.95 4.309 2.742 1.333 0.59 1.3 0.585 2.226 0.371 0.443-0.102 1.097-0.263 1.455-0.358s0.974-0.241 1.371-0.325c0.984-0.196 1.422-0.296 1.858-0.399l-0.559 0.111c0.318-0.074 0.74-0.157 0.938-0.184s0.649-0.129 1.001-0.226c0.352-0.097 0.657-0.16 0.678-0.139s-0.007 0.101-0.063 0.178c-0.205 0.286-1.844 2.283-2.15 2.62-0.175 0.192-0.298 0.369-0.274 0.393 0.060 0.060 0.903-0.421 1.325-0.756 0.192-0.153 1.162-1.001 2.154-1.885 2.212-1.971 2.802-2.605 3.664-3.935 0.143-0.222 0.334-0.408 0.494-0.483 0.32-0.151 0.586-0.459 0.854-0.989 0.38-0.754 0.519-1.339 0.562-2.36 0.046-1.106-0.034-1.754-0.383-3.122-0.136-0.53-0.247-0.977-0.247-0.992s0.115-0.028 0.255-0.028c0.273 0 0.426 0.124 0.71 0.576 0.087 0.138 0.335 0.374 0.553 0.524 0.771 0.532 0.864 0.624 0.864 0.858 0 0.309-0.237 1.217-0.649 2.484-0.194 0.597-0.448 1.475-0.565 1.951s-0.351 1.189-0.52 1.584c-0.169 0.396-0.494 1.255-0.722 1.91s-0.486 1.347-0.572 1.537c-0.087 0.19-0.146 0.379-0.133 0.42s0.244-0.17 0.512-0.469c0.268-0.298 0.8-0.778 1.183-1.065l0.696-0.523 0.84-1.736c0.462-0.955 0.883-1.842 0.935-1.971s0.137-0.235 0.19-0.235c0.053 0 0.28 0.235 0.505 0.523l0.41 0.523-0.043 0.469c-0.024 0.258-0.141 0.745-0.26 1.083s-0.217 0.678-0.219 0.758c-0.001 0.079-0.134 0.615-0.295 1.191s-0.381 1.405-0.49 1.843c-0.222 0.896-0.616 1.695-1.334 2.704-0.53 0.745-2.093 2.331-2.663 2.703-0.265 0.173-0.415 0.32-0.415 0.408 0 0.161 0.054 0.172 0.211 0.043 0.063-0.052 0.406-0.268 0.764-0.481 1.799-1.073 2.846-1.859 3.473-2.611 0.374-0.448 0.863-1.414 1.147-2.264 0.145-0.436 0.484-1.263 0.753-1.839 0.512-1.097 0.698-1.605 0.933-2.562 0.336-1.368 0.397-1.949 0.392-3.753-0.004-1.543-0.026-1.858-0.201-2.887-0.505-2.962-1.765-5.44-3.569-7.017-0.731-0.639-1.643-1.192-3.8-2.305-0.986-0.509-1.748-0.953-1.999-1.165-0.435-0.367-1.082-0.718-1.692-0.917-0.31-0.101-0.578-0.117-1.516-0.091-1.064 0.030-1.181 0.047-1.788 0.267-0.876 0.318-2.094 0.904-2.905 1.399-0.367 0.224-0.668 0.378-0.668 0.342s0.348-0.384 0.772-0.774 1.035-0.952 1.356-1.25c0.321-0.298 1.198-1.093 1.948-1.768 1.908-1.716 1.959-1.764 1.876-1.766-0.041-0.001-0.333 0.147-0.649 0.329zM15.673 6.364c-0.070 0.077-0.246 0.203-0.39 0.279s-0.52 0.277-0.833 0.447c-0.464 0.25-0.673 0.318-1.119 0.364-0.302 0.031-0.759 0.080-1.017 0.109-0.421 0.048-0.46 0.042-0.375-0.060 0.157-0.19 1.373-0.683 2.362-0.958 0.515-0.143 0.968-0.272 1.008-0.286s0.166-0.028 0.282-0.031c0.203-0.005 0.206-0.001 0.082 0.135zM19.35 7.743c0.238 0.045 0.846 0.241 1.351 0.435 0.532 0.206 1.035 0.354 1.198 0.354 0.405 0 0.534 0.173 0.511 0.679-0.023 0.488 0.097 0.646 0.714 0.941 0.389 0.178 0.56 0.263 0.73 0.348l-0.21-0.096c0.078 0.040 0.12 0.228 0.151 0.667 0.023 0.336 0.069 0.655 0.102 0.707 0.045 0.074 0.019 0.084-0.115 0.044-0.096-0.028-0.369-0.079-0.607-0.112-0.729-0.102-0.813-0.135-2.562-0.987-1.458-0.71-1.797-0.847-2.418-0.974-0.951-0.196-2.042-0.171-2.424 0.054-0.168 0.099-0.333 0.139-0.482 0.118-0.124-0.018-0.494 0.003-0.821 0.047-0.746 0.1-1.524 0.467-1.933 0.91-0.516 0.559-0.645 0.906-1.152 3.084-0.243 1.041-0.45 1.543-0.82 1.982l-0.255 0.304-0.297-0.423c-1.317-1.878-1.122-3.757 0.569-5.488 0.651-0.666 1.242-1.092 2.187-1.578 1.042-0.535 2.541-0.98 3.695-1.097 0.717-0.073 2.309-0.029 2.887 0.080zM20.942 12.368c-3.099-1.855-2.892-1.721-2.684-1.588l3.32 1.992c0.254 0.161 0.269 0.187 0.166 0.29s-0.135 0.096-0.352-0.072c-0.437-0.341-0.961-0.841-0.884-0.844 0.042-0.002 0.237 0.099 0.433 0.224zM25.404 12.556c0.061 0.189 0.259 0.928 0.44 1.642s0.412 1.591 0.515 1.949c0.258 0.901 0.272 0.974 0.187 0.974-0.078 0-0.124-0.111-0.585-1.421-0.318-0.903-0.459-1.486-0.648-2.675-0.135-0.852-0.097-1.048 0.091-0.469zM10.745 16.51c0.278 0.189 0.347 0.322 0.167 0.322-0.12 0-0.547-0.343-0.547-0.439 0-0.106 0.094-0.077 0.38 0.117zM12.421 18.636c0.059 0.095-0.283 0.248-0.428 0.193-0.062-0.024-0.113-0.093-0.113-0.154 0-0.127 0.466-0.16 0.541-0.039zM21.943 18.967c0.032 0.126-0.014 0.318-0.14 0.593-0.257 0.562-0.327 0.913-0.232 1.165 0.069 0.183 0.039 0.288-0.257 0.9-0.252 0.521-0.369 0.693-0.474 0.693-0.131 0-0.125-0.043 0.101-0.74 0.132-0.407 0.361-1.178 0.507-1.714s0.28-0.999 0.297-1.029c0.062-0.109 0.152-0.049 0.197 0.132z"></path>
</svg>
