<!-- Generated by IcoMoon.io -->
<svg version="1.1" xmlns="http://www.w3.org/2000/svg" width="32" height="32" viewBox="0 0 32 32">
<title>tunguska</title>
<path d="M14.002 24.983c-0.018-0.022-0.032-0.164-0.048-0.479-0.018-0.367-0.038-0.509-0.101-0.728-0.113-0.389-0.337-0.651-0.639-0.748-0.194-0.062-0.356-0.088-1.585-0.248-0.916-0.12-1.096-0.125-1.818-0.059-0.482 0.044-0.62 0.044-0.783-0.005-0.22-0.065-0.35-0.15-0.605-0.396-0.098-0.094-0.215-0.196-0.26-0.226-0.186-0.124-0.384-0.202-0.621-0.246-0.201-0.037-0.347-0.079-0.426-0.121-0.102-0.054-0.194-0.151-0.257-0.269-0.107-0.201-0.245-0.336-0.432-0.421-0.115-0.053-0.503-0.181-0.548-0.181-0.024 0-0.068-0.003-0.098-0.007-0.050-0.007-0.055-0.010-0.055-0.040v-0.033l-0.192 0.065c-0.173 0.059-0.199 0.064-0.27 0.060-0.060-0.004-0.099-0.015-0.165-0.048-0.097-0.049-0.14-0.078-0.122-0.086 0.084-0.034 0.402-0.215 0.405-0.23 0.003-0.017-0.015-0.020-0.16-0.024-0.162-0.004-0.164-0.004-0.255-0.049-0.050-0.025-0.095-0.053-0.098-0.063-0.012-0.032 0.040-0.070 0.116-0.084 0.070-0.013 0.126-0.045 0.108-0.062-0.017-0.015-0.302-0.116-0.399-0.141-0.233-0.060-0.539-0.058-0.92 0.007-0.229 0.039-0.386 0.082-0.642 0.178-0.435 0.162-0.495 0.174-0.86 0.175-0.273 0.001-0.274 0.001-0.304-0.028s-0.030-0.029-0.010-0.063c0.012-0.021 0.097-0.086 0.215-0.165 0.33-0.221 0.501-0.356 0.686-0.54 0.174-0.173 0.384-0.42 0.417-0.491 0.058-0.122-0.021-0.261-0.156-0.274-0.049-0.005-0.098 0.007-0.299 0.071-0.419 0.134-0.6 0.162-1.053 0.162-0.209 0-0.256-0.007-0.256-0.041s0.064-0.064 0.239-0.112c0.24-0.066 0.581-0.172 0.707-0.22 0.325-0.124 0.525-0.288 0.673-0.552 0.057-0.102 0.11-0.162 0.182-0.203 0.026-0.015 0.175-0.079 0.331-0.142 0.498-0.201 0.58-0.248 0.707-0.402 0.141-0.171 0.174-0.288 0.11-0.397-0.059-0.1-0.214-0.213-0.377-0.274-0.191-0.072-0.577-0.145-0.824-0.156-0.137-0.006-0.195-0.002-0.443 0.032-0.275 0.038-0.666 0.025-0.95-0.030-0.193-0.038-0.308-0.075-0.466-0.153-0.206-0.101-0.486-0.317-0.507-0.392-0.007-0.024-0.002-0.026 0.079-0.032 0.047-0.004 0.24-0.012 0.428-0.019 0.472-0.017 0.718-0.052 0.968-0.135 0.304-0.102 0.546-0.272 0.702-0.492 0.129-0.183 0.154-0.275 0.106-0.387-0.045-0.105-0.125-0.146-0.377-0.196-0.1-0.020-0.157-0.041-0.172-0.065-0.009-0.014 0.026-0.058 0.047-0.058 0.007 0 0.072-0.026 0.145-0.057 0.216-0.093 0.338-0.184 0.598-0.442 0.299-0.297 0.398-0.431 0.456-0.616 0.076-0.243 0.091-0.265 0.32-0.49 0.096-0.094 0.18-0.186 0.187-0.203 0.010-0.027 0.008-0.035-0.019-0.056-0.017-0.013-0.041-0.024-0.054-0.024-0.059 0-0.235 0.052-0.285 0.083-0.062 0.040-0.107 0.044-0.158 0.014-0.031-0.018-0.044-0.019-0.103-0.006-0.065 0.014-0.088 0.012-0.088-0.008 0-0.005 0.059-0.075 0.131-0.156 0.076-0.085 0.124-0.148 0.115-0.15s-0.070 0.020-0.135 0.049c-0.115 0.050-0.145 0.054-0.145 0.015 0-0.013 0.121-0.157 0.164-0.193 0.029-0.025 0.030-0.026 0.008-0.050-0.020-0.022-0.021-0.028-0.004-0.069 0.010-0.024 0.066-0.109 0.126-0.187s0.108-0.147 0.108-0.151c0-0.004-0.045 0.016-0.1 0.047-0.101 0.055-0.117 0.054-0.080-0.002 0.019-0.028 0.019-0.032 0-0.045s-0.015-0.019 0.024-0.056c0.024-0.023 0.115-0.088 0.201-0.145 0.098-0.064 0.153-0.107 0.146-0.114s-0.068 0.003-0.162 0.027c-0.212 0.053-0.215 0.038-0.021-0.105 0.082-0.061 0.156-0.114 0.165-0.117 0.016-0.007 0.021-0.039 0.006-0.039-0.005 0-0.059 0.016-0.12 0.035-0.107 0.034-0.13 0.034-0.13-0.002-0-0.004 0.066-0.062 0.147-0.129s0.145-0.125 0.142-0.129c-0.003-0.004-0.038-0.004-0.079 0.001-0.126 0.015-0.125-0.002 0.008-0.072 0.055-0.029 0.1-0.056 0.1-0.060s-0.030-0.011-0.068-0.016l-0.068-0.008 0.201-0.185-0.099-0.008 0.064-0.108c0.069-0.117 0.11-0.159 0.146-0.149 0.027 0.007 0.119 0.143 0.118 0.176-0 0.013-0.008 0.033-0.017 0.045-0.019 0.025-0.012 0.037 0.085 0.157 0.028 0.034 0.050 0.065 0.050 0.068s-0.017 0.006-0.038 0.006c-0.037 0-0.079 0.017-0.068 0.027 0.003 0.003 0.055 0.038 0.115 0.078 0.102 0.068 0.133 0.099 0.117 0.115-0.004 0.004-0.040 0.009-0.081 0.012-0.117 0.009-0.117 0.009-0.034 0.092l0.075 0.075-0.046 0.008c-0.025 0.005-0.050 0.011-0.056 0.014s0.031 0.030 0.080 0.060c0.122 0.074 0.119 0.090-0.013 0.080-0.122-0.010-0.124-0.013 0.040 0.12 0.119 0.096 0.121 0.107 0.030 0.109-0.053 0.001-0.048 0.019 0.018 0.061 0.049 0.032 0.064 0.036 0.124 0.031 0.058-0.004 0.080-0.013 0.151-0.061 0.046-0.031 0.083-0.061 0.083-0.066s-0.027-0.013-0.059-0.018c-0.032-0.004-0.059-0.012-0.059-0.018s0.020-0.027 0.044-0.048c0.131-0.114 0.224-0.209 0.217-0.221-0.006-0.009-0.056 0.005-0.16 0.046-0.162 0.063-0.192 0.064-0.159 0.004 0.021-0.040 0.135-0.155 0.297-0.303 0.083-0.076 0.124-0.121 0.12-0.132-0.005-0.014-0.030-0.005-0.117 0.040l-0.111 0.057 0-0.054c0-0.053 0.010-0.076 0.069-0.154l0.028-0.037-0.050 0.008c-0.048 0.008-0.049 0.007-0.041-0.020 0.019-0.060 0.048-0.102 0.127-0.184l0.082-0.085-0.066 0.007c-0.036 0.004-0.066 0.004-0.066 0.001 0-0.005 0.129-0.116 0.205-0.177 0.039-0.031 0.015-0.038-0.051-0.016-0.033 0.011-0.063 0.018-0.065 0.015-0.009-0.009 0.051-0.124 0.081-0.155 0.034-0.034 0.038-0.052 0.018-0.096-0.012-0.026-0.008-0.038 0.024-0.092 0.021-0.034 0.047-0.075 0.059-0.091l0.021-0.028 0.042 0.076c0.032 0.057 0.040 0.085 0.036 0.117-0.005 0.042 0.002 0.056 0.083 0.158 0.045 0.057 0.036 0.084-0.025 0.073l-0.044-0.008 0.068 0.069c0.037 0.038 0.068 0.072 0.068 0.076s-0.024 0.011-0.053 0.015c-0.029 0.004-0.053 0.012-0.053 0.017s0.030 0.029 0.067 0.054l0.067 0.045-0.063 0.051 0.083 0.062c0.089 0.067 0.104 0.097 0.048 0.097-0.019 0-0.043 0.003-0.053 0.007-0.016 0.006-0.015 0.012 0.006 0.042 0.014 0.019 0.022 0.038 0.019 0.041s-0.038 0.001-0.077-0.005c-0.098-0.015-0.101 0.006-0.009 0.060 0.040 0.024 0.088 0.059 0.107 0.079 0.033 0.035 0.034 0.036 0.011 0.053-0.052 0.039-0.095 0.053-0.133 0.042s-0.037-0.011-0.018 0.018c0.025 0.039 0.117 0.098 0.167 0.107 0.066 0.012 0.183-0.002 0.236-0.029 0.052-0.027 0.137-0.095 0.128-0.104-0.003-0.003-0.067 0.006-0.143 0.020-0.202 0.037-0.2 0.025 0.018-0.095 0.213-0.117 0.217-0.128 0.034-0.094-0.147 0.028-0.148 0.028-0.157 0.006-0.005-0.012 0.039-0.046 0.149-0.114 0.086-0.053 0.158-0.098 0.16-0.1s0.001-0.008-0.003-0.015c-0.005-0.007-0.032-0.001-0.073 0.017-0.106 0.047-0.232 0.078-0.243 0.061-0.016-0.024-0.013-0.028 0.076-0.093 0.142-0.105 0.293-0.235 0.287-0.246-0.004-0.006-0.050 0.010-0.104 0.035s-0.101 0.042-0.104 0.038c-0.004-0.004-0.011-0.029-0.014-0.055-0.007-0.046-0.004-0.051 0.095-0.169 0.071-0.085 0.098-0.126 0.089-0.134s-0.042 0.013-0.112 0.072c-0.095 0.080-0.126 0.098-0.126 0.072 0-0.006 0.041-0.094 0.091-0.194 0.087-0.174 0.090-0.184 0.071-0.205s-0.017-0.024 0.045-0.069c0.036-0.025 0.065-0.051 0.065-0.057s-0.029-0.007-0.065-0.003c-0.036 0.004-0.065 0.004-0.065 0s0.040-0.065 0.088-0.134c0.048-0.070 0.085-0.13 0.081-0.134s-0.026 0.006-0.049 0.022c-0.053 0.036-0.061 0.036-0.061 0.002 0-0.051 0.024-0.112 0.076-0.193s0.052-0.082 0.028-0.1l-0.024-0.019 0.032-0.075c0.027-0.065 0.030-0.081 0.020-0.122-0.013-0.052 0.007-0.133 0.064-0.263l0.030-0.068 0.042 0.070c0.052 0.086 0.065 0.138 0.050 0.196-0.010 0.036-0.008 0.052 0.012 0.091 0.029 0.056 0.030 0.072 0.006 0.072-0.028 0-0.022 0.016 0.035 0.093l0.053 0.072h-0.047c-0.026 0-0.047 0.003-0.047 0.007s0.035 0.052 0.077 0.106c0.083 0.106 0.083 0.124 0.001 0.101-0.023-0.006-0.044-0.009-0.048-0.005-0.005 0.005 0.022 0.045 0.116 0.168 0.011 0.014 0.005 0.015-0.037 0.009-0.029-0.005-0.050-0.003-0.050 0.003s0.022 0.030 0.048 0.052l0.048 0.041-0.078 0.040 0.035 0.030c0.096 0.081 0.112 0.098 0.106 0.108-0.004 0.006-0.041 0.014-0.083 0.018s-0.080 0.013-0.083 0.019c-0.004 0.006 0.039 0.033 0.094 0.061s0.101 0.054 0.101 0.058c0 0.004-0.035 0.023-0.077 0.041s-0.073 0.037-0.068 0.041c0.005 0.005 0.070 0.028 0.145 0.053s0.141 0.049 0.146 0.054c0.006 0.006 0.002 0.023-0.011 0.042-0.021 0.032-0.021 0.033 0.016 0.063 0.020 0.017 0.037 0.040 0.037 0.050 0 0.016-0.014 0.018-0.112 0.012-0.063-0.004-0.112-0.002-0.112 0.004s0.027 0.032 0.059 0.058 0.058 0.051 0.058 0.056-0.036 0.009-0.079 0.009l-0.080 0 0.051 0.046c0.028 0.025 0.070 0.052 0.094 0.060 0.128 0.041 0.168 0.060 0.168 0.081 0 0.017-0.013 0.023-0.062 0.029-0.034 0.004-0.082 0.007-0.106 0.008s-0.044 0.005-0.044 0.012c0 0.014 0.068 0.050 0.158 0.083 0.035 0.013 0.087 0.040 0.116 0.059 0.065 0.044 0.114 0.045 0.163 0.005 0.020-0.017 0.036-0.035 0.036-0.041s-0.026-0.011-0.058-0.011c-0.139 0-0.127-0.033 0.035-0.095 0.072-0.028 0.133-0.055 0.136-0.060s-0.047-0.010-0.111-0.010c-0.184 0-0.173-0.016 0.095-0.129 0.124-0.052 0.23-0.095 0.235-0.095s0.010-0.008 0.010-0.018c0-0.022-0.021-0.022-0.23-0s-0.195 0.023-0.195-0.012c0-0.036 0.059-0.078 0.159-0.112 0.074-0.025 0.178-0.081 0.169-0.090-0.003-0.003-0.040 0.001-0.083 0.008-0.135 0.023-0.13 0.009 0.024-0.070 0.136-0.070 0.17-0.096 0.125-0.096-0.011 0-0.075 0.016-0.142 0.037s-0.126 0.034-0.129 0.031c-0.010-0.010 0.038-0.095 0.074-0.13 0.018-0.018 0.069-0.055 0.113-0.081s0.086-0.056 0.095-0.066c0.016-0.019 0.005-0.019-0.112 0.004-0.024 0.005-0.032 0.002-0.032-0.012 0-0.011 0.046-0.042 0.118-0.079 0.065-0.033 0.118-0.065 0.118-0.071s-0.040-0.011-0.088-0.011c-0.053 0-0.088-0.005-0.088-0.012 0-0.020 0.058-0.128 0.096-0.181 0.031-0.043 0.035-0.055 0.028-0.104-0.007-0.052-0.004-0.059 0.052-0.133l0.059-0.078h-0.142l0.048-0.071c0.069-0.102 0.117-0.153 0.142-0.153 0.015 0 0.045 0.033 0.089 0.1 0.063 0.094 0.066 0.102 0.047 0.122-0.029 0.032-0.024 0.059 0.020 0.113 0.065 0.080 0.065 0.082 0.009 0.072-0.074-0.013-0.063 0.016 0.039 0.103 0.094 0.080 0.094 0.088 0.001 0.092-0.111 0.005-0.109 0.011 0.030 0.1 0.071 0.045 0.129 0.090 0.129 0.099 0 0.013-0.018 0.015-0.095 0.009-0.075-0.006-0.094-0.005-0.091 0.007 0.003 0.008 0.066 0.053 0.14 0.101s0.137 0.092 0.139 0.099c0.003 0.010-0.024 0.011-0.101 0.005-0.084-0.007-0.115-0.005-0.15 0.010-0.025 0.010-0.042 0.025-0.040 0.033 0.006 0.018 0.393 0.162 0.438 0.163 0.047 0.001 0.091-0.025 0.135-0.080s0.047-0.065 0.018-0.057c-0.049 0.014-0.168 0.021-0.168 0.010 0-0.006 0.045-0.056 0.1-0.11 0.097-0.094 0.124-0.138 0.080-0.125-0.011 0.003-0.067 0.010-0.124 0.014-0.152 0.012-0.141-0.007 0.076-0.135 0.198-0.117 0.196-0.108 0.034-0.131-0.048-0.007-0.090-0.015-0.093-0.018s0.051-0.065 0.119-0.138c0.238-0.256 0.25-0.269 0.236-0.283-0.009-0.009-0.057 0.019-0.164 0.094-0.085 0.060-0.156 0.102-0.162 0.096s0.005-0.044 0.026-0.093c0.033-0.073 0.036-0.091 0.030-0.151-0.007-0.065-0.005-0.070 0.034-0.117 0.025-0.030 0.044-0.068 0.049-0.097 0.007-0.047 0.031-0.073 0.149-0.165 0.040-0.032 0.024-0.041-0.043-0.027-0.031 0.007-0.058 0.011-0.060 0.009s0.029-0.045 0.068-0.095c0.093-0.12 0.093-0.127 0-0.095-0.073 0.026-0.075 0.023-0.039-0.038 0.026-0.045 0.032-0.069 0.031-0.122-0.001-0.059 0.003-0.072 0.039-0.117 0.041-0.052 0.049-0.071 0.029-0.071-0.025 0-0.026-0.052-0.003-0.105 0.013-0.030 0.041-0.096 0.062-0.147l0.037-0.092 0.029 0.069c0.054 0.129 0.055 0.133 0.040 0.182-0.017 0.056-0.011 0.068 0.069 0.146 0.033 0.032 0.060 0.062 0.060 0.067s-0.021 0.012-0.047 0.016c-0.026 0.004-0.047 0.011-0.047 0.016s0.037 0.028 0.083 0.052c0.045 0.024 0.082 0.049 0.082 0.055s-0.019 0.014-0.041 0.018c-0.023 0.004-0.041 0.011-0.041 0.016s0.025 0.034 0.056 0.066l0.056 0.058-0.041-0.007c-0.023-0.004-0.059-0.010-0.080-0.015-0.024-0.005-0.038-0.004-0.038 0.004s0.043 0.051 0.095 0.098c0.093 0.084 0.095 0.086 0.071 0.105s-0.024 0.020 0.058 0.121c0.078 0.097 0.095 0.127 0.073 0.127-0.005 0-0.040-0.010-0.076-0.023-0.044-0.015-0.069-0.019-0.074-0.011-0.010 0.016 0.090 0.117 0.169 0.172 0.104 0.072 0.073 0.092-0.068 0.045-0.053-0.018-0.099-0.029-0.103-0.024s0.032 0.047 0.080 0.096c0.071 0.071 0.084 0.091 0.070 0.1-0.055 0.034-0.054 0.032-0.026 0.069 0.014 0.020 0.026 0.038 0.026 0.042 0 0.014-0.044 0.005-0.132-0.026-0.072-0.025-0.095-0.029-0.106-0.018s-0.011 0.021-0.001 0.044c0.010 0.022 0.059 0.052 0.188 0.115 0.2 0.099 0.219 0.121 0.098 0.121-0.042 0-0.111-0.004-0.153-0.009-0.072-0.008-0.075-0.008-0.053 0.010 0.013 0.011 0.072 0.042 0.131 0.070 0.152 0.071 0.244 0.159 0.185 0.175-0.011 0.003-0.058 0.015-0.103 0.026s-0.087 0.024-0.092 0.029c-0.017 0.015 0.051 0.049 0.195 0.095 0.078 0.025 0.149 0.046 0.157 0.046s0.071-0.040 0.14-0.089c0.085-0.061 0.125-0.097 0.125-0.112 0-0.013-0.002-0.023-0.004-0.023s-0.045 0.013-0.095 0.030c-0.050 0.016-0.095 0.030-0.102 0.030-0.024 0-0.009-0.040 0.039-0.104 0.028-0.037 0.070-0.094 0.095-0.128l0.044-0.061-0.056 0.017c-0.101 0.030-0.093 0.003 0.034-0.119 0.063-0.061 0.115-0.113 0.115-0.117s-0.044 0.012-0.097 0.034c-0.053 0.023-0.101 0.041-0.107 0.041s0.020-0.038 0.056-0.084c0.036-0.046 0.066-0.088 0.066-0.093s-0.017-0.013-0.038-0.017l-0.038-0.008 0.198-0.199-0.14-0.007 0.081-0.059c0.074-0.054 0.078-0.060 0.053-0.067-0.015-0.004-0.046-0.009-0.069-0.009l-0.041-0.002 0.098-0.091c0.054-0.050 0.097-0.095 0.097-0.1s-0.025-0.005-0.056-0.001l-0.056 0.008 0.022-0.034c0.024-0.038 0.173-0.256 0.18-0.264s0.060 0.045 0.185 0.181l0.108 0.117-0.074-0.005c-0.040-0.003-0.074-0.003-0.074-0.001s0.044 0.058 0.097 0.122c0.054 0.065 0.099 0.123 0.101 0.129s-0.009 0.009-0.027 0.005c-0.017-0.004-0.045-0.009-0.063-0.013-0.030-0.006-0.031-0.005-0.014 0.015 0.086 0.103 0.176 0.215 0.176 0.221 0 0.016-0.051 0.005-0.144-0.028-0.101-0.037-0.133-0.043-0.126-0.024 0.002 0.006 0.082 0.083 0.178 0.172s0.174 0.164 0.174 0.169c-0.001 0.042-0.026 0.039-0.239-0.028-0.046-0.014-0.015 0.022 0.103 0.121 0.068 0.057 0.124 0.113 0.124 0.124 0 0.016-0.018 0.021-0.1 0.028-0.055 0.005-0.1 0.012-0.1 0.017 0 0.018 0.143 0.144 0.182 0.16 0.054 0.023 0.085 0.022 0.145-0.006 0.045-0.021 0.163-0.117 0.154-0.126-0.002-0.002-0.055 0.014-0.118 0.037s-0.114 0.037-0.114 0.031c0-0.030 0.092-0.111 0.176-0.154 0.154-0.080 0.147-0.102-0.018-0.055-0.072 0.020-0.118 0.028-0.125 0.021-0.012-0.012 0.113-0.128 0.266-0.246 0.049-0.038 0.085-0.073 0.082-0.079-0.013-0.022-0.129 0.003-0.22 0.046-0.076 0.036-0.095 0.041-0.103 0.028-0.015-0.024-0.010-0.033 0.096-0.17 0.090-0.116 0.094-0.124 0.065-0.124-0.017 0-0.030-0.005-0.030-0.010 0-0.008 0.16-0.153 0.234-0.211 0.037-0.029-0-0.031-0.1-0.005-0.059 0.015-0.106 0.022-0.112 0.016s0.047-0.067 0.126-0.144c0.075-0.073 0.134-0.136 0.131-0.139s-0.033 0.003-0.066 0.014c-0.033 0.011-0.063 0.018-0.065 0.015s0.033-0.059 0.078-0.125l0.083-0.12h-0.111l0.078-0.083c0.043-0.045 0.081-0.097 0.085-0.115 0.032-0.148 0.057-0.226 0.085-0.27 0.018-0.028 0.036-0.052 0.041-0.052 0.009-0 0.151 0.183 0.151 0.194 0 0.004-0.022 0.007-0.048 0.007h-0.048l0.029 0.038c0.016 0.021 0.051 0.085 0.079 0.142s0.068 0.122 0.091 0.145c0.023 0.022 0.038 0.044 0.034 0.049s-0.044-0.003-0.087-0.018c-0.045-0.015-0.083-0.021-0.089-0.015-0.009 0.009 0.129 0.114 0.254 0.195 0.018 0.012 0.033 0.028 0.033 0.037 0 0.020 0 0.020-0.051-0.001-0.046-0.019-0.079-0.023-0.078-0.009 0 0.005 0.045 0.043 0.1 0.086l0.1 0.077-0.094 0.003c-0.052 0.002-0.094 0.008-0.094 0.013s0.067 0.054 0.148 0.108c0.081 0.054 0.146 0.104 0.144 0.111-0.008 0.025-0.044 0.020-0.204-0.028-0.089-0.027-0.163-0.047-0.166-0.044s0.027 0.024 0.066 0.048c0.179 0.111 0.455 0.348 0.431 0.371-0.010 0.010-0.225-0.020-0.358-0.050-0.027-0.006-0.029-0.005-0.011 0.008 0.011 0.008 0.077 0.049 0.146 0.092 0.128 0.078 0.288 0.217 0.288 0.251 0 0.037-0.021 0.030-0.121-0.039-0.056-0.039-0.105-0.070-0.11-0.070s-0.006 0.016-0.003 0.035l0.005 0.035h-0.069c-0.059 0-0.069 0.003-0.069 0.022 0 0.024 0.106 0.060 0.382 0.132 0.151 0.039 0.188 0.039 0.25-0.004 0.146-0.101 0.475-0.353 0.487-0.373 0.027-0.045 0.003-0.047-0.063-0.005l-0.065 0.041v-0.101l-0.086 0.085c-0.047 0.047-0.092 0.085-0.099 0.085s-0.022-0.008-0.032-0.018c-0.017-0.017-0.025-0.013-0.084 0.043-0.036 0.034-0.068 0.059-0.072 0.055-0.009-0.009 0.059-0.142 0.113-0.221 0.069-0.101 0.133-0.168 0.233-0.243 0.050-0.038 0.097-0.074 0.104-0.079 0.024-0.022-0.121-0-0.17 0.025-0.027 0.014-0.053 0.026-0.056 0.026s-0.004-0.023 0.001-0.050l0.008-0.050-0.054 0.053c-0.059 0.058-0.071 0.046-0.031-0.033 0.032-0.062 0.077-0.103 0.172-0.158 0.16-0.091 0.242-0.151 0.273-0.199 0.017-0.026 0.029-0.050 0.026-0.053s-0.082 0.019-0.176 0.047c-0.094 0.029-0.179 0.053-0.19 0.053-0.016 0-0.034-0.022-0.034-0.041 0-0.002 0.046-0.054 0.102-0.114l0.102-0.11-0.135-0.012 0.078-0.064c0.043-0.035 0.078-0.068 0.078-0.072s-0.024-0.012-0.053-0.016c-0.029-0.004-0.053-0.012-0.053-0.016s0.050-0.048 0.112-0.097c0.062-0.049 0.107-0.090 0.102-0.092s-0.044-0.007-0.085-0.012l-0.074-0.008 0.149-0.105-0.103-0.034 0.066-0.063c0.036-0.035 0.062-0.065 0.058-0.068s-0.025-0.008-0.046-0.013c-0.021-0.005-0.038-0.011-0.038-0.014s0.021-0.033 0.047-0.067l0.047-0.061-0.041-0.004c-0.023-0.002-0.041-0.006-0.041-0.009s0.027-0.041 0.059-0.084c0.033-0.043 0.059-0.085 0.059-0.092 0-0.010-0.016-0.013-0.053-0.009-0.029 0.003-0.053 0.003-0.053 0s0.029-0.058 0.065-0.121c0.036-0.063 0.063-0.118 0.060-0.121s-0.023 0-0.044 0.008c-0.065 0.023-0.064-0.002 0.002-0.099 0.034-0.050 0.057-0.095 0.051-0.101s-0.024-0.011-0.041-0.014l-0.031-0.004 0.089-0.186c0.049-0.102 0.092-0.186 0.097-0.186 0.010 0 0.178 0.38 0.171 0.387-0.003 0.003-0.027-0.003-0.053-0.014s-0.048-0.015-0.048-0.010c0 0.022 0.053 0.091 0.131 0.173 0.047 0.049 0.079 0.089 0.072 0.089s-0.037-0.011-0.067-0.024c-0.098-0.042-0.098-0.028-0.003 0.068 0.050 0.051 0.091 0.099 0.091 0.107 0 0.012-0.018 0.014-0.071 0.012-0.044-0.002-0.071 0.001-0.071 0.008s0.042 0.047 0.094 0.088c0.13 0.105 0.129 0.134-0.003 0.091-0.043-0.014-0.082-0.021-0.087-0.016s0.045 0.061 0.112 0.123c0.107 0.101 0.141 0.144 0.112 0.143-0.005-0-0.055-0.010-0.112-0.022-0.097-0.020-0.115-0.020-0.115-0.001 0 0.005 0.058 0.044 0.13 0.088 0.144 0.088 0.151 0.099 0.095 0.163l-0.035 0.040 0.082 0.081c0.045 0.045 0.082 0.086 0.082 0.092s-0.013 0.008-0.030 0.005c-0.016-0.003-0.029-0.002-0.029 0.002s0.026 0.047 0.059 0.095c0.032 0.048 0.057 0.090 0.054 0.092-0.004 0.004-0.163-0.041-0.228-0.065-0.011-0.004 0.012 0.017 0.052 0.047 0.127 0.095 0.216 0.23 0.263 0.4 0.013 0.047 0.024 0.093 0.024 0.101s-0.055-0.030-0.123-0.085c-0.115-0.094-0.149-0.114-0.149-0.090 0 0.018 0.266 0.359 0.298 0.384l0.031 0.023 0.066-0.040c0.108-0.066 0.195-0.139 0.195-0.164 0-0.036-0.037-0.029-0.098 0.018-0.030 0.023-0.058 0.041-0.062 0.041s-0.005-0.019-0.001-0.041c0.007-0.045 0.001-0.050-0.034-0.024-0.037 0.028-0.044 0.021-0.037-0.038 0.006-0.053 0.013-0.062 0.132-0.174 0.069-0.065 0.125-0.123 0.125-0.129s-0.051-0.007-0.118-0.002c-0.083 0.006-0.118 0.004-0.118-0.005 0-0.028 0.061-0.103 0.126-0.154 0.070-0.056 0.085-0.086 0.063-0.129-0.013-0.024-0.014-0.024-0.064 0.017-0.057 0.047-0.066 0.050-0.066 0.023s0.053-0.097 0.126-0.165c0.043-0.040 0.061-0.066 0.057-0.078-0.006-0.017-0.015-0.016-0.083 0.006-0.048 0.016-0.080 0.021-0.087 0.013s0.017-0.048 0.064-0.112l0.075-0.1-0.070-0.019 0.042-0.074c0.023-0.041 0.038-0.078 0.034-0.082s-0.026 0.001-0.049 0.010c-0.069 0.029-0.066 0.002 0.009-0.080l0.071-0.078-0.035-0.012c-0.020-0.007-0.035-0.016-0.035-0.020s0.016-0.031 0.035-0.059c0.020-0.028 0.035-0.054 0.035-0.057s-0.017-0.001-0.038 0.005c-0.021 0.006-0.040 0.009-0.042 0.006-0.007-0.007 0.153-0.349 0.163-0.349 0.005 0 0.057 0.069 0.115 0.153 0.11 0.159 0.112 0.166 0.028 0.142-0.065-0.019-0.056 0.008 0.029 0.087l0.081 0.076-0.038 0.008c-0.021 0.004-0.038 0.011-0.038 0.015s0.034 0.026 0.076 0.048c0.079 0.043 0.088 0.059 0.030 0.059-0.019 0-0.037 0.004-0.040 0.010s0.026 0.041 0.064 0.079c0.063 0.062 0.086 0.1 0.061 0.1-0.005-0-0.037-0.008-0.071-0.017-0.069-0.018-0.093-0.006-0.041 0.022 0.019 0.010 0.064 0.042 0.101 0.072 0.059 0.048 0.067 0.060 0.067 0.097 0 0.030 0.010 0.054 0.035 0.082 0.035 0.040 0.077 0.111 0.066 0.111-0.003 0-0.046-0.016-0.095-0.035-0.159-0.063-0.153-0.044 0.025 0.077 0.075 0.051 0.14 0.1 0.143 0.109s-0.003 0.025-0.014 0.038c-0.018 0.020-0.018 0.025 0.007 0.076 0.014 0.030 0.023 0.058 0.018 0.062s-0.034-0.016-0.065-0.045c-0.079-0.074-0.109-0.089-0.123-0.063-0.009 0.015-0.021 0.018-0.051 0.013-0.022-0.004-0.040-0.003-0.040 0.002 0 0.018 0.111 0.117 0.213 0.189 0.056 0.040 0.124 0.096 0.151 0.126 0.048 0.052 0.107 0.159 0.108 0.193 0 0.009-0.042-0.019-0.094-0.062s-0.097-0.073-0.1-0.067c-0.004 0.006 0.014 0.037 0.040 0.068 0.044 0.053 0.059 0.087 0.038 0.087-0.005-0-0.051-0.035-0.103-0.077s-0.098-0.077-0.102-0.077c-0.005 0-0.019 0.014-0.032 0.030l-0.024 0.030 0.138 0.092c0.164 0.11 0.265 0.199 0.326 0.288 0.068 0.099 0.042 0.102-0.072 0.008-0.056-0.046-0.106-0.083-0.113-0.083s-0.030 0.016-0.052 0.035c-0.044 0.039-0.091 0.045-0.129 0.019-0.021-0.015-0.028-0.014-0.062 0.007-0.021 0.013-0.034 0.029-0.029 0.034s0.055 0.029 0.11 0.052c0.055 0.024 0.161 0.075 0.236 0.115 0.128 0.068 0.141 0.073 0.23 0.077 0.108 0.005 0.225-0.020 0.283-0.060l0.035-0.025-0.041-0.008c-0.022-0.005-0.084-0.012-0.137-0.016s-0.102-0.012-0.11-0.017c-0.009-0.005 0.045-0.042 0.14-0.096 0.085-0.048 0.154-0.094 0.154-0.102 0-0.021-0.018-0.019-0.112 0.014-0.101 0.036-0.164 0.037-0.215 0.006-0.021-0.013-0.038-0.026-0.038-0.029s0.033-0.023 0.074-0.043c0.041-0.020 0.076-0.039 0.079-0.042s-0.010-0.021-0.029-0.040c-0.039-0.040-0.043-0.034 0.066-0.096 0.036-0.021 0.086-0.051 0.112-0.068l0.047-0.030-0.26-0.012 0.186-0.14c0.102-0.077 0.186-0.147 0.186-0.156s-0.003-0.017-0.006-0.017c-0.003 0-0.059 0.021-0.124 0.047s-0.121 0.047-0.124 0.047c-0.014 0-0.004-0.030 0.019-0.054s0.023-0.029 0.009-0.052c-0.014-0.024-0.012-0.029 0.038-0.069 0.087-0.070 0.163-0.151 0.189-0.204 0.014-0.027 0.023-0.051 0.021-0.052s-0.041 0.012-0.086 0.030c-0.087 0.035-0.124 0.042-0.124 0.024 0-0.006 0.056-0.076 0.126-0.154 0.093-0.106 0.122-0.146 0.112-0.156s-0.024-0.008-0.056 0.007c-0.024 0.011-0.044 0.019-0.046 0.017s0.043-0.099 0.099-0.216l0.102-0.212 0.088 0.153c0.048 0.084 0.090 0.157 0.092 0.162s-0.016 0.009-0.041 0.009h-0.045l0.046 0.047c0.025 0.026 0.044 0.049 0.041 0.052s-0.017 0.011-0.032 0.019c-0.027 0.014-0.026 0.015 0.043 0.068 0.040 0.031 0.068 0.061 0.065 0.069s-0.032 0.019-0.064 0.023-0.058 0.014-0.058 0.021c0 0.034 0.065 0.116 0.124 0.157 0.090 0.062 0.109 0.102 0.072 0.153-0.016 0.022-0.019 0.021-0.106-0.015-0.049-0.021-0.095-0.038-0.102-0.038-0.036 0 0.006 0.042 0.148 0.146s0.186 0.15 0.144 0.149c-0.008-0-0.057-0.011-0.109-0.023s-0.097-0.020-0.1-0.016c-0.006 0.006 0.040 0.051 0.129 0.124l0.052 0.043-0.049 0.008c-0.027 0.005-0.049 0.012-0.049 0.017s0.072 0.042 0.16 0.084c0.088 0.041 0.163 0.079 0.166 0.085 0.017 0.027-0.017 0.028-0.122 0.003-0.063-0.015-0.127-0.028-0.142-0.028-0.041-0.001-0.032 0.032 0.012 0.041 0.021 0.004 0.104 0.034 0.184 0.066 0.174 0.070 0.262 0.083 0.354 0.052 0.033-0.011 0.063-0.024 0.066-0.029s-0.055-0.045-0.13-0.088c-0.074-0.044-0.135-0.084-0.135-0.089 0-0.025 0.040-0.034 0.177-0.041 0.157-0.008 0.213-0.016 0.212-0.028-0-0.004-0.076-0.032-0.168-0.062-0.225-0.072-0.229-0.088-0.024-0.097 0.153-0.006 0.34-0.047 0.34-0.074 0-0.007-0.073-0.019-0.162-0.029-0.101-0.010-0.162-0.022-0.162-0.030s0.049-0.031 0.109-0.053c0.241-0.088 0.292-0.109 0.286-0.118-0.003-0.005-0.085 0.011-0.182 0.035-0.166 0.042-0.189 0.045-0.189 0.023 0-0.005 0.114-0.108 0.254-0.229 0.226-0.196 0.272-0.242 0.247-0.242-0.004 0-0.095 0.049-0.201 0.108-0.229 0.128-0.255 0.128-0.153 0.001 0.096-0.119 0.089-0.124-0.053-0.043-0.052 0.030-0.098 0.051-0.101 0.048-0.010-0.010 0.068-0.115 0.143-0.195 0.039-0.041 0.125-0.119 0.19-0.173 0.183-0.151 0.196-0.174 0.090-0.148-0.033 0.008-0.064 0.012-0.070 0.010s0.023-0.047 0.065-0.098c0.090-0.112 0.145-0.222 0.182-0.363 0.038-0.147 0.052-0.141 0.115 0.048 0.027 0.083 0.050 0.157 0.050 0.165s-0.014 0.018-0.031 0.022c-0.031 0.008-0.030 0.009 0.042 0.074l0.073 0.066-0.020 0.039c-0.019 0.038-0.019 0.041 0.016 0.115 0.020 0.042 0.033 0.076 0.030 0.076s-0.033-0.019-0.067-0.041c-0.061-0.041-0.091-0.051-0.091-0.031 0 0.006 0.057 0.065 0.127 0.131 0.136 0.129 0.135 0.125 0.018 0.098-0.038-0.009-0.033 0.010 0.012 0.041 0.071 0.050 0.082 0.060 0.075 0.072-0.004 0.007-0.044-0.003-0.097-0.024-0.049-0.019-0.093-0.032-0.096-0.029-0.016 0.016 0.13 0.135 0.225 0.182 0.056 0.028 0.102 0.053 0.102 0.055s-0.026 0.010-0.058 0.017c-0.043 0.009-0.083 0.008-0.156-0.004-0.054-0.009-0.101-0.013-0.105-0.010-0.013 0.012 0.069 0.064 0.155 0.1 0.049 0.020 0.103 0.047 0.118 0.059 0.028 0.022 0.027 0.022-0.081 0.022-0.060 0-0.109 0.005-0.109 0.011s0.069 0.034 0.153 0.062c0.084 0.028 0.149 0.054 0.145 0.058s-0.035 0.017-0.067 0.029l-0.058 0.022 0.27 0.128-0.041 0.018c-0.035 0.015-0.055 0.016-0.136 0.003-0.173-0.027-0.172-0.017 0.008 0.093 0.111 0.068 0.159 0.104 0.155 0.115-0.008 0.021-0.019 0.021-0.181-0.007-0.075-0.013-0.137-0.024-0.139-0.024s-0.003 0.007-0.003 0.015c0 0.009 0.042 0.026 0.103 0.043 0.057 0.015 0.108 0.032 0.113 0.036s-0.005 0.018-0.022 0.029l-0.031 0.021 0.040 0.041c0.043 0.045 0.092 0.075 0.123 0.075 0.027 0 0.1-0.036 0.1-0.049 0-0.006-0.013-0.011-0.028-0.011-0.040 0-0.104-0.024-0.099-0.038 0.002-0.006 0.059-0.035 0.127-0.064s0.125-0.054 0.127-0.056c0.002-0.002-0.040-0.021-0.094-0.043s-0.103-0.043-0.108-0.048c-0.006-0.005 0.034-0.031 0.088-0.058l0.098-0.049-0.055-0.047c-0.030-0.026-0.055-0.051-0.055-0.057s0.034-0.024 0.077-0.042c0.042-0.018 0.077-0.038 0.077-0.046s-0.036-0.024-0.080-0.037l-0.080-0.024 0.088-0.045c0.049-0.025 0.090-0.047 0.092-0.048s-0.005-0.018-0.016-0.035c-0.020-0.030-0.019-0.032 0.002-0.047 0.081-0.057 0.158-0.123 0.149-0.129-0.006-0.004-0.049 0.004-0.095 0.015-0.054 0.014-0.087 0.018-0.092 0.010-0.004-0.007 0.020-0.039 0.053-0.073s0.060-0.065 0.060-0.069c0-0.004-0.022-0-0.049 0.009s-0.052 0.015-0.055 0.011c-0.003-0.003 0.019-0.032 0.049-0.065 0.044-0.047 0.055-0.067 0.055-0.101 0-0.032 0.009-0.052 0.036-0.078 0.041-0.041 0.037-0.057-0.013-0.057-0.047 0-0.044-0.016 0.013-0.069 0.050-0.047 0.055-0.063 0.035-0.114-0.010-0.025-0.006-0.045 0.019-0.101 0.017-0.038 0.035-0.070 0.039-0.070s0.020 0.016 0.034 0.035c0.071 0.096 0.085 0.123 0.085 0.168 0 0.049 0.021 0.092 0.091 0.184 0.022 0.029 0.039 0.055 0.039 0.059s-0.027 0.005-0.059 0.003c-0.032-0.002-0.059 0.001-0.059 0.007s0.040 0.057 0.088 0.112c0.049 0.056 0.088 0.104 0.088 0.108s-0.029 0.007-0.065 0.007c-0.064 0-0.065 0.001-0.065 0.034 0 0.052 0.040 0.093 0.113 0.115 0.035 0.011 0.064 0.023 0.064 0.027-0.001 0.024-0.029 0.035-0.118 0.044l-0.1 0.010 0.031 0.032c0.017 0.018 0.061 0.040 0.097 0.051 0.065 0.019 0.126 0.057 0.126 0.078 0 0.006-0.040 0.011-0.088 0.011s-0.088 0.004-0.088 0.009c0 0.005 0.034 0.030 0.077 0.056s0.077 0.051 0.077 0.056c0 0.005-0.040 0.009-0.088 0.009s-0.088 0.005-0.088 0.011c0 0.010 0.178 0.084 0.202 0.084 0.006 0 0.011 0.007 0.011 0.016 0 0.019-0.025 0.031-0.066 0.031-0.016 0-0.029 0.005-0.029 0.010 0 0.017 0.138 0.143 0.171 0.155 0.049 0.019 0.1 0.014 0.143-0.013 0.022-0.014 0.040-0.029 0.040-0.033s-0.029-0.018-0.065-0.029c-0.036-0.011-0.065-0.027-0.065-0.036s0.053-0.035 0.126-0.061c0.159-0.058 0.172-0.079 0.045-0.074-0.053 0.002-0.093-0.001-0.095-0.008s0.060-0.051 0.138-0.099 0.141-0.094 0.141-0.102c0-0.011-0.021-0.009-0.083 0.007-0.045 0.012-0.114 0.025-0.153 0.030-0.059 0.007-0.071 0.005-0.071-0.010 0-0.010 0.069-0.072 0.153-0.139s0.151-0.125 0.147-0.131c-0.003-0.005-0.013-0.008-0.020-0.005-0.041 0.013-0.162 0.018-0.162 0.007 0-0.007 0.053-0.052 0.118-0.101s0.118-0.095 0.118-0.102c0-0.008-0.018-0.010-0.053-0.005-0.030 0.005-0.053 0.003-0.053-0.003s0.016-0.031 0.036-0.056 0.033-0.047 0.031-0.050c-0.003-0.003-0.024 0.003-0.047 0.013-0.026 0.011-0.045 0.013-0.049 0.006s0.036-0.070 0.088-0.141 0.095-0.132 0.095-0.134c0-0.003-0.019-0.011-0.041-0.018s-0.041-0.019-0.041-0.025c0-0.006 0.014-0.032 0.031-0.058 0.022-0.033 0.047-0.117 0.089-0.292 0.070-0.297 0.068-0.289 0.083-0.279 0.020 0.012 0.088 0.17 0.102 0.235 0.007 0.033 0.016 0.123 0.020 0.201 0.008 0.15 0.023 0.199 0.085 0.291 0.019 0.028 0.038 0.060 0.042 0.072 0.007 0.020 0.003 0.021-0.042 0.014-0.028-0.004-0.059-0.010-0.071-0.014-0.017-0.005-0.013 0.010 0.020 0.075 0.022 0.044 0.044 0.095 0.048 0.113 0.007 0.028 0.004 0.033-0.020 0.033-0.066 0-0.065 0.009 0.030 0.239 0.049 0.12 0.090 0.222 0.090 0.226s-0.047-0.027-0.105-0.069c-0.058-0.042-0.11-0.077-0.117-0.077s0 0.023 0.016 0.050c0.015 0.028 0.040 0.082 0.054 0.121 0.029 0.078 0.062 0.133 0.099 0.159 0.022 0.016 0.018 0.018-0.058 0.024-0.045 0.003-0.084 0.012-0.086 0.019s0.031 0.042 0.073 0.077c0.043 0.035 0.093 0.087 0.112 0.116 0.034 0.051 0.057 0.125 0.043 0.139-0.004 0.004-0.048-0.001-0.099-0.011l-0.092-0.018 0.039 0.033c0.067 0.056 0.181 0.076 0.256 0.044 0.027-0.012 0.038-0.026 0.048-0.067 0.011-0.044 0.021-0.057 0.062-0.080 0.027-0.015 0.050-0.032 0.050-0.038s-0.027-0.014-0.059-0.018c-0.032-0.004-0.059-0.011-0.059-0.014s0.025-0.029 0.056-0.056l0.056-0.049-0.045-0.021c-0.024-0.012-0.042-0.027-0.039-0.034s0.014-0.040 0.024-0.073c0.010-0.033 0.029-0.070 0.042-0.081 0.032-0.029 0.029-0.037-0.015-0.046l-0.038-0.008 0.047-0.031c0.062-0.041 0.061-0.040 0.041-0.052-0.049-0.029-0.049-0.029-0.021-0.089 0.022-0.050 0.026-0.076 0.024-0.182-0.002-0.134 0.026-0.262 0.059-0.269 0.023-0.005 0.135 0.328 0.129 0.385-0.005 0.049 0.017 0.221 0.041 0.315 0.016 0.063 0.016 0.077-0 0.13l-0.018 0.059 0.060 0.061c0.033 0.033 0.055 0.063 0.050 0.067s-0.031 0.010-0.057 0.015c-0.068 0.012-0.069 0.015-0.027 0.050 0.055 0.045 0.066 0.061 0.074 0.112 0.009 0.049 0.040 0.071 0.082 0.055 0.020-0.007 0.024-0.020 0.024-0.090 0.001-0.106 0.037-0.255 0.061-0.25 0.010 0.002 0.038 0.055 0.065 0.122 0.038 0.094 0.049 0.141 0.057 0.23 0.005 0.062 0.016 0.143 0.025 0.18 0.012 0.054 0.013 0.076 0.001 0.108-0.014 0.037-0.012 0.043 0.015 0.070 0.037 0.037 0.038 0.082 0.005 0.136l-0.024 0.040 0.133 0.134-0.135 0.030 0.061 0.056c0.048 0.044 0.061 0.064 0.061 0.092 0 0.030 0.006 0.038 0.036 0.049 0.040 0.014 0.052 0.011 0.18-0.048 0.044-0.020 0.080-0.041 0.080-0.047s-0.028-0.007-0.066-0.003c-0.036 0.005-0.074 0.009-0.084 0.010-0.043 0.003-0.020-0.026 0.062-0.081 0.116-0.078 0.119-0.099 0.009-0.078-0.028 0.005-0.050 0.007-0.050 0.003s0.043-0.050 0.096-0.103c0.053-0.053 0.094-0.102 0.092-0.109s-0.034 0.008-0.072 0.035c-0.037 0.027-0.073 0.046-0.079 0.044s0.039-0.073 0.1-0.157c0.061-0.084 0.111-0.157 0.111-0.162s-0.034-0.009-0.076-0.009c-0.042 0-0.077-0.005-0.077-0.010s0.029-0.026 0.065-0.044c0.082-0.043 0.084-0.063 0.006-0.063-0.032 0-0.059-0.005-0.059-0.011s0.024-0.028 0.053-0.049c0.049-0.035 0.066-0.058 0.044-0.058-0.005-0-0.017-0.005-0.026-0.011-0.014-0.009-0.009-0.018 0.029-0.051 0.048-0.041 0.049-0.068 0.004-0.068-0.056 0 0.007-0.172 0.081-0.221 0.024-0.016 0.027-0.013 0.064 0.052 0.021 0.038 0.056 0.092 0.078 0.12 0.046 0.061 0.052 0.116 0.016 0.149-0.032 0.029-0.030 0.040 0.014 0.085s0.038 0.061-0.013 0.040c-0.019-0.008-0.040-0.013-0.046-0.010s0.017 0.079 0.051 0.169l0.061 0.165-0.064 0.012 0.027 0.091c0.048 0.161 0.068 0.195 0.121 0.211 0.086 0.026 0.087 0.023 0.078-0.181-0.004-0.104-0.003-0.222 0.005-0.28 0.014-0.116 0.048-0.272 0.059-0.271 0.004 0 0.042 0.078 0.084 0.172 0.077 0.173 0.078 0.179 0.034 0.196-0.010 0.004 0.021 0.192 0.040 0.237 0.021 0.051 0.059 0.072 0.107 0.056 0.060-0.020 0.099-0.061 0.12-0.124 0.017-0.053 0.017-0.059-0.001-0.072s-0.018-0.017 0.005-0.048c0.044-0.062 0.064-0.147 0.073-0.302 0.005-0.083 0.013-0.154 0.018-0.159 0.015-0.015 0.111 0.096 0.124 0.145 0.007 0.025 0.013 0.079 0.013 0.12 0 0.064 0.004 0.078 0.033 0.111l0.033 0.037 0.025-0.041c0.032-0.051 0.060-0.254 0.070-0.496 0.008-0.199 0.020-0.223 0.067-0.13 0.030 0.060 0.057 0.196 0.080 0.406 0.012 0.113 0.018 0.135 0.042 0.156 0.025 0.022 0.027 0.030 0.020 0.097-0.010 0.096 0 0.13 0.045 0.158l0.037 0.022-0.043 0.008c-0.024 0.004-0.043 0.011-0.043 0.016s0.031 0.035 0.068 0.069l0.068 0.061-0.068 0c-0.037 0-0.068 0.004-0.067 0.009s0.022 0.030 0.047 0.056l0.047 0.047-0.035 0.004c-0.047 0.005-0.045 0.017 0.013 0.054 0.048 0.032 0.049 0.036 0.027 0.096-0.003 0.007 0.011 0.036 0.031 0.065 0.034 0.050 0.047 0.106 0.026 0.106-0.006 0-0.033-0.008-0.061-0.018-0.035-0.012-0.055-0.014-0.063-0.006-0.014 0.014-0.019 0.009 0.096 0.1 0.070 0.056 0.083 0.072 0.074 0.088-0.018 0.034-0.042 0.048-0.097 0.058l-0.051 0.009 0.177 0.093-0.086 0.006c-0.082 0.006-0.085 0.007-0.070 0.029 0.009 0.012 0.051 0.039 0.092 0.059 0.056 0.027 0.080 0.046 0.093 0.075 0.024 0.051 0.085 0.072 0.154 0.051 0.054-0.016 0.13-0.058 0.13-0.072 0-0.005-0.032-0.013-0.072-0.018l-0.072-0.008 0.066-0.044c0.065-0.043 0.066-0.044 0.046-0.071-0.029-0.041-0.025-0.123 0.008-0.168l0.027-0.037-0.11 0.017 0.048-0.095c0.026-0.052 0.048-0.098 0.048-0.101s-0.023-0.006-0.050-0.007l-0.050-0 0.043-0.038c0.041-0.036 0.042-0.039 0.021-0.053-0.028-0.017-0.029-0.046-0.004-0.074 0.010-0.011 0.026-0.058 0.036-0.104 0.016-0.075 0.015-0.086-0.002-0.112-0.019-0.029-0.018-0.030 0.032-0.066 0.064-0.046 0.091-0.042 0.124 0.017 0.023 0.041 0.024 0.049 0.009 0.066-0.022 0.025-0.022 0.052 0.001 0.071 0.017 0.014 0.052 0.073 0.052 0.087 0 0.004-0.021 0.007-0.047 0.007s-0.049 0.005-0.053 0.011c-0.004 0.006 0.023 0.035 0.058 0.066s0.065 0.060 0.065 0.065c0 0.005-0.016 0.015-0.035 0.022s-0.035 0.014-0.035 0.017c0 0.003 0.040 0.036 0.088 0.074s0.086 0.071 0.084 0.073c-0.002 0.002-0.033-0.001-0.067-0.007s-0.064-0.010-0.066-0.009c-0.001 0.001 0.040 0.059 0.091 0.129s0.092 0.126 0.090 0.126c-0.002 0-0.035-0.014-0.072-0.030s-0.073-0.028-0.080-0.026c-0.007 0.002 0.018 0.034 0.055 0.071 0.056 0.055 0.066 0.070 0.056 0.088s-0.002 0.031 0.042 0.076l0.054 0.055-0.034 0.007c-0.019 0.004-0.044 0.011-0.056 0.016-0.020 0.008-0.019 0.011 0.011 0.030 0.061 0.040 0.119 0.037 0.245-0.012 0.063-0.025 0.114-0.049 0.114-0.053s-0.025-0.012-0.056-0.016c-0.092-0.014-0.157-0.062-0.141-0.104 0.003-0.008 0.064-0.045 0.137-0.083s0.131-0.076 0.131-0.084c0-0.017-0.037-0.029-0.092-0.029-0.047-0-0.047-0.007-0.007-0.049 0.030-0.031 0.031-0.034 0.011-0.056s-0.019-0.025 0.010-0.083c0.017-0.033 0.044-0.072 0.060-0.086 0.032-0.028 0.038-0.056 0.012-0.056-0.034 0-0.032-0.026 0.004-0.064 0.020-0.021 0.037-0.042 0.037-0.046s-0.019-0.008-0.041-0.008c-0.048 0-0.051-0.012-0.017-0.060 0.020-0.028 0.023-0.044 0.016-0.088-0.007-0.050-0.005-0.057 0.028-0.092l0.036-0.038-0.017-0.065c-0.022-0.083-0.021-0.145 0.002-0.257 0.020-0.098 0.062-0.199 0.076-0.184 0.018 0.019 0.035 0.095 0.052 0.223 0.020 0.153 0.036 0.197 0.095 0.262l0.043 0.048-0.098 0.019 0.084 0.106-0.041 0.004c-0.049 0.004-0.052 0.023-0.012 0.061 0.034 0.032 0.038 0.061 0.012 0.087-0.024 0.024-0.024 0.025 0.031 0.050l0.049 0.022-0.032 0.028c-0.018 0.015-0.030 0.030-0.028 0.032s0.030 0.015 0.060 0.029c0.031 0.013 0.056 0.027 0.056 0.030s-0.022 0.018-0.050 0.032l-0.050 0.025 0.044 0.038c0.051 0.044 0.057 0.068 0.015 0.059-0.016-0.003-0.043-0.009-0.059-0.012-0.043-0.009-0.027 0.019 0.036 0.064 0.045 0.032 0.052 0.044 0.052 0.079 0 0.023-0.009 0.054-0.019 0.070-0.019 0.029-0.018 0.029 0.032 0.052 0.049 0.022 0.053 0.022 0.086 0.003 0.061-0.036 0.063-0.051 0.023-0.143l-0.037-0.083 0.048-0.040c0.044-0.036 0.048-0.044 0.047-0.092-0.001-0.044 0.005-0.060 0.040-0.099 0.024-0.028 0.045-0.042 0.051-0.035 0.011 0.012 0.096 0.229 0.096 0.244 0 0.005-0.008 0.009-0.017 0.009-0.034 0-0.027 0.021 0.048 0.147 0.042 0.070 0.075 0.129 0.073 0.132s-0.034-0.005-0.071-0.015c-0.037-0.010-0.072-0.015-0.076-0.010s0.031 0.044 0.080 0.088c0.168 0.151 0.177 0.161 0.166 0.178-0.009 0.014-0.021 0.014-0.072 0.002-0.034-0.008-0.064-0.012-0.067-0.009s0.036 0.038 0.088 0.078c0.107 0.081 0.11 0.085 0.096 0.107-0.008 0.013-0.023 0.013-0.083 0.002-0.040-0.008-0.077-0.011-0.081-0.007-0.010 0.010 0.059 0.068 0.137 0.115 0.045 0.027 0.062 0.045 0.062 0.063 0 0.014-0.005 0.029-0.011 0.033s-0.008 0.017-0.005 0.030c0.006 0.022 0 0.024-0.086 0.024h-0.092l0.029 0.031c0.083 0.089 0.207 0.143 0.283 0.123 0.038-0.010 0.129-0.090 0.129-0.113 0-0.004-0.024-0.004-0.053 0.001-0.065 0.010-0.067-0.001-0.018-0.075 0.039-0.058 0.041-0.063 0.022-0.097-0.011-0.020-0.004-0.037 0.041-0.105l0.054-0.081-0.105-0.007 0.038-0.058c0.037-0.057 0.038-0.062 0.045-0.224 0.005-0.13 0.011-0.176 0.029-0.21 0.012-0.024 0.027-0.044 0.032-0.044 0.019 0 0.056 0.076 0.063 0.13 0.015 0.11 0.042 0.196 0.076 0.238l0.035 0.043-0.042-0.012c-0.023-0.006-0.044-0.010-0.046-0.008s0.033 0.053 0.078 0.114c0.045 0.061 0.082 0.115 0.082 0.121s-0.027 0.011-0.060 0.011c-0.041 0-0.059 0.004-0.055 0.014 0.003 0.008 0.050 0.046 0.106 0.086s0.102 0.075 0.103 0.079c0 0.004-0.013 0.013-0.030 0.021l-0.031 0.014 0.054 0.051c0.030 0.028 0.054 0.059 0.054 0.070 0 0.030-0.049 0.036-0.119 0.015-0.034-0.010-0.065-0.016-0.068-0.013-0.015 0.014 0.067 0.094 0.158 0.154s0.124 0.092 0.109 0.106c-0.003 0.003-0.053-0.003-0.111-0.012s-0.113-0.017-0.122-0.018c-0.038-0 0.066 0.083 0.14 0.113 0.193 0.078 0.245 0.111 0.219 0.137-0.003 0.004-0.065-0.007-0.138-0.022-0.124-0.027-0.163-0.029-0.162-0.007 0 0.005 0.074 0.049 0.165 0.098 0.167 0.090 0.207 0.127 0.121 0.114-0.024-0.004-0.096-0.010-0.159-0.015-0.11-0.008-0.115-0.007-0.115 0.015 0 0.019 0.035 0.038 0.189 0.104 0.104 0.044 0.195 0.087 0.202 0.095 0.013 0.016 0.003 0.020-0.137 0.053-0.032 0.008-0.063 0.018-0.069 0.023s0.013 0.025 0.040 0.045c0.047 0.034 0.128 0.066 0.244 0.096 0.053 0.014 0.059 0.026 0.037 0.076-0.011 0.024-0.010 0.035 0.007 0.060 0.041 0.062 0.121 0.068 0.19 0.013l0.035-0.028-0.047-0.008c-0.102-0.017-0.102-0.024 0.002-0.072 0.071-0.032 0.095-0.049 0.090-0.061-0.005-0.014-0.021-0.016-0.076-0.010-0.040 0.005-0.069 0.003-0.069-0.003s0.048-0.042 0.106-0.080c0.108-0.070 0.136-0.106 0.074-0.095-0.018 0.003-0.055 0.010-0.083 0.014l-0.050 0.008 0.007-0.075c0.011-0.122 0.028-0.178 0.072-0.231 0.028-0.035 0.036-0.052 0.026-0.055-0.009-0.003-0.031-0.009-0.049-0.015l-0.034-0.010 0.131-0.101-0.034-0.084c-0.019-0.046-0.034-0.087-0.034-0.091s0.022-0.023 0.048-0.043c0.044-0.032 0.047-0.039 0.040-0.075-0.006-0.033-0-0.051 0.036-0.105 0.024-0.036 0.047-0.060 0.053-0.055 0.011 0.012 0.106 0.239 0.106 0.254 0 0.005-0.013 0.010-0.029 0.010-0.048 0-0.045 0.020 0.011 0.067 0.043 0.036 0.053 0.050 0.047 0.072-0.005 0.021 0.005 0.042 0.042 0.086 0.027 0.032 0.044 0.058 0.038 0.058s-0.042-0.011-0.080-0.024c-0.040-0.014-0.073-0.019-0.079-0.013s0.044 0.059 0.12 0.126c0.072 0.064 0.131 0.123 0.131 0.131 0 0.027-0.024 0.030-0.084 0.010-0.033-0.011-0.062-0.017-0.066-0.014s0.042 0.044 0.101 0.090c0.072 0.056 0.105 0.090 0.1 0.101-0.008 0.022-0.029 0.022-0.11-0-0.036-0.010-0.066-0.018-0.068-0.018s-0.003 0.008-0.003 0.017 0.051 0.052 0.113 0.093c0.062 0.042 0.108 0.079 0.102 0.083s-0.014 0.022-0.018 0.041c-0.007 0.033-0.010 0.034-0.085 0.040-0.043 0.004-0.084 0.012-0.090 0.018-0.016 0.016 0.112 0.102 0.2 0.134 0.101 0.037 0.121 0.064 0.121 0.164 0 0.106-0.022 0.158-0.076 0.184-0.049 0.024-0.051 0.030-0.015 0.055 0.073 0.051 0.073 0.051 0.052 0.084-0.026 0.039-0.025 0.046 0.012 0.089 0.046 0.055 0.117 0.085 0.353 0.152 0.302 0.086 0.407 0.107 0.56 0.116 0.123 0.007 0.137 0.010 0.168 0.038 0.018 0.017 0.104 0.154 0.19 0.305 0.184 0.322 0.236 0.397 0.33 0.474 0.076 0.062 0.107 0.081 0.733 0.445 0.331 0.192 0.427 0.253 0.441 0.28 0.027 0.053 0.009 0.063-0.083 0.046-0.096-0.018-0.328-0.092-0.562-0.179-0.274-0.103-0.373-0.146-0.634-0.278-0.263-0.133-0.32-0.149-0.436-0.123-0.137 0.031-0.286 0.173-0.297 0.282-0.004 0.046 0.002 0.068 0.033 0.126 0.055 0.103 0.122 0.2 0.212 0.307 0.301 0.357 0.907 0.681 1.64 0.878 0.429 0.115 0.982 0.202 1.281 0.202 0.074 0 0.148 0.018 0.148 0.036 0 0.005-0.023 0.020-0.050 0.033-0.041 0.020-0.092 0.026-0.292 0.037-0.374 0.021-0.472 0.050-0.552 0.17-0.050 0.074-0.066 0.137-0.059 0.232 0.007 0.096 0.043 0.174 0.111 0.242 0.061 0.061 0.135 0.092 0.283 0.117 0.119 0.021 0.138 0.036 0.091 0.074-0.108 0.088-0.398 0.192-0.7 0.251-0.101 0.020-0.306 0.059-0.457 0.088-0.18 0.035-0.296 0.063-0.338 0.083-0.085 0.040-0.154 0.117-0.178 0.196s-0.023 0.1 0.004 0.209c0.036 0.145 0.051 0.268 0.042 0.361-0.010 0.104 0.007 0.149 0.097 0.266 0.111 0.145 0.116 0.177 0.045 0.31-0.109 0.207-0.147 0.385-0.178 0.841-0.004 0.058-0.023 0.248-0.042 0.422-0.039 0.356-0.035 0.34-0.188 0.676-0.053 0.117-0.125 0.277-0.159 0.356-0.112 0.259-0.192 0.347-0.467 0.517-0.409 0.252-0.843 0.446-1.218 0.544-0.258 0.067-0.36 0.077-0.795 0.078-0.722 0.002-1.37 0.019-1.48 0.039-0.211 0.039-0.412 0.123-0.517 0.215-0.050 0.044-0.074 0.079-0.121 0.177-0.093 0.194-0.107 0.2-0.459 0.191-0.287-0.007-0.361-0.018-0.875-0.132-0.375-0.083-0.603-0.143-1.251-0.329-0.975-0.279-1.366-0.382-1.491-0.393-0.171-0.015-0.313 0.030-0.488 0.152-0.086 0.060-0.092 0.062-0.168 0.062-0.043 0-0.144-0.010-0.224-0.022-0.202-0.031-0.396-0.023-0.528 0.021-0.193 0.065-0.366 0.175-0.496 0.316-0.093 0.1-0.168 0.219-0.313 0.494-0.188 0.357-0.372 0.615-0.468 0.655-0.023 0.010-0.044 0.018-0.046 0.018s-0.011-0.025-0.021-0.056c-0.011-0.034-0.020-0.125-0.024-0.233-0.004-0.123-0.013-0.205-0.030-0.268-0.074-0.284-0.3-0.589-0.562-0.763-0.052-0.034-0.164-0.096-0.248-0.138-0.258-0.126-0.431-0.172-0.643-0.172-0.199 0-0.292 0.025-0.376 0.101-0.091 0.082-0.127 0.195-0.232 0.726-0.072 0.364-0.092 0.437-0.154 0.555-0.144 0.273-0.368 0.441-0.663 0.496-0.219 0.041-0.349 0.089-0.506 0.189-0.063 0.040-0.078 0.043-0.098 0.019zM22.12 20.46c0.029-0.030 0.049-0.057 0.046-0.060-0.008-0.008-0.196 0.080-0.196 0.092 0 0.009 0.032 0.018 0.076 0.021 0.013 0.001 0.045-0.022 0.075-0.053zM17.984 20.448c0.049-0.018 0.246-0.122 0.285-0.151 0.059-0.044-0.014-0.030-0.242 0.046-0.136 0.045-0.247 0.088-0.247 0.095 0 0.015 0.033 0.047 0.059 0.055 0.010 0.003 0.036-0.002 0.059-0.011s0.062-0.025 0.087-0.034zM23.201 20.301l0.060-0.060-0.029-0.022c-0.016-0.012-0.026-0.024-0.023-0.027s0.060-0.046 0.127-0.096c0.116-0.087 0.154-0.135 0.094-0.121-0.063 0.015-0.115 0.022-0.115 0.015 0-0.004 0.027-0.046 0.060-0.093l0.060-0.085-0.074-0.022 0.149-0.151-0.044 0.008c-0.039 0.007-0.044 0.005-0.044-0.015 0-0.054 0.040-0.152 0.076-0.189l0.039-0.039-0.081-0.015 0.037-0.038c0.023-0.024 0.032-0.041 0.024-0.046-0.025-0.015-0.013-0.056 0.028-0.094 0.037-0.035 0.040-0.042 0.030-0.077-0.006-0.021-0.008-0.047-0.004-0.058 0.008-0.023 0.075-0.097 0.087-0.097 0.014 0 0.152 0.168 0.146 0.178-0.011 0.017 0.053 0.194 0.095 0.263 0.023 0.038 0.040 0.071 0.038 0.073s-0.038-0.006-0.080-0.019c-0.090-0.027-0.082-0.026-0.082-0.010 0 0.007 0.053 0.064 0.119 0.126 0.132 0.124 0.138 0.146 0.034 0.122s-0.104-0.018-0.005 0.073l0.094 0.087-0.041 0.009c-0.023 0.005-0.054 0.014-0.070 0.020l-0.028 0.011 0.028 0.031c0.041 0.045 0.129 0.098 0.161 0.098 0.043 0 0.091-0.030 0.133-0.082l0.038-0.048-0.082 0.030c-0.093 0.033-0.097 0.034-0.097 0.018 0-0.006 0.040-0.039 0.088-0.073s0.085-0.065 0.080-0.070c-0.005-0.005-0.037-0.003-0.072 0.003s-0.066 0.009-0.069 0.006c-0.003-0.003 0.012-0.021 0.033-0.039 0.131-0.109 0.2-0.171 0.2-0.181 0-0.017-0.038-0.013-0.124 0.013-0.059 0.018-0.083 0.021-0.093 0.011s0.003-0.027 0.049-0.067c0.071-0.061 0.106-0.117 0.086-0.137-0.022-0.022-0.014-0.036 0.052-0.091 0.035-0.029 0.060-0.057 0.055-0.062s-0.040-0.005-0.077 0.001l-0.068 0.011 0.195-0.196-0.085-0.016 0.042-0.055c0.036-0.048 0.041-0.061 0.036-0.105-0.003-0.029 0.001-0.058 0.009-0.071s0.040-0.081 0.071-0.154c0.033-0.077 0.063-0.133 0.073-0.133 0.025 0 0.061 0.068 0.070 0.134 0.008 0.059 0.039 0.132 0.087 0.202 0.013 0.020 0.024 0.038 0.024 0.042s-0.022 0.004-0.048 0.002l-0.048-0.005 0.229 0.292-0.124 0.012 0.105 0.070c0.079 0.053 0.099 0.071 0.082 0.075-0.013 0.002-0.044 0.009-0.068 0.016l-0.045 0.011 0.068 0.061c0.155 0.14 0.163 0.148 0.151 0.161-0.008 0.008-0.037 0.008-0.091-0-0.043-0.007-0.094-0.011-0.112-0.009-0.030 0.003-0.021 0.012 0.091 0.091 0.068 0.048 0.137 0.098 0.153 0.111l0.029 0.023-0.123-0.008c-0.111-0.007-0.121-0.006-0.107 0.011 0.037 0.044 0.109 0.069 0.202 0.070 0.111 0 0.136-0.015 0.204-0.128 0.077-0.128 0.162-0.232 0.249-0.306 0.045-0.038 0.084-0.074 0.086-0.081 0.003-0.007-0.015-0.009-0.047-0.006-0.149 0.019-0.187 0.020-0.187 0.008 0-0.026 0.091-0.103 0.173-0.145 0.083-0.043 0.17-0.123 0.17-0.155 0-0.013-0.020-0.011-0.103 0.012-0.169 0.047-0.18 0.037-0.085-0.077l0.060-0.072-0.060-0.027 0.071-0.085-0.030-0.011c-0.016-0.006-0.030-0.015-0.030-0.019s0.032-0.033 0.071-0.065c0.039-0.031 0.071-0.061 0.071-0.067s-0.019-0.010-0.041-0.010c-0.047 0-0.052-0.011-0.019-0.040 0.022-0.020 0.026-0.040 0.048-0.239 0.006-0.053 0.019-0.112 0.029-0.131 0.017-0.033 0.017-0.037-0.004-0.056-0.022-0.020-0.022-0.022 0-0.086 0.027-0.079 0.028-0.086 0.005-0.086-0.026 0-0.022-0.032 0.011-0.075 0.025-0.033 0.028-0.046 0.022-0.104-0.006-0.061-0.003-0.073 0.039-0.15 0.025-0.046 0.049-0.084 0.052-0.084 0.005-0 0.037 0.073 0.101 0.231 0.003 0.007-0.008 0.020-0.024 0.028l-0.029 0.016 0.129 0.144-0.035 0.004c-0.020 0.002-0.035 0.007-0.035 0.010s0.017 0.028 0.038 0.054c0.036 0.045 0.036 0.048 0.016 0.063-0.012 0.009-0.027 0.018-0.035 0.022s0.015 0.032 0.049 0.063c0.034 0.032 0.062 0.062 0.062 0.067s-0.027 0.005-0.059 0.001c-0.032-0.004-0.059-0.004-0.059 0.002s0.036 0.045 0.079 0.089c0.043 0.044 0.077 0.082 0.073 0.085s-0.027 0.001-0.052-0.005c-0.060-0.014-0.1-0.014-0.1-0.001 0 0.006 0.023 0.025 0.050 0.043 0.123 0.080 0.125 0.082 0.111 0.135-0.012 0.045-0.010 0.053 0.050 0.167 0.034 0.066 0.060 0.121 0.058 0.124s-0.038-0.006-0.079-0.019c-0.041-0.013-0.077-0.022-0.078-0.020-0.009 0.009 0.153 0.139 0.174 0.139 0.013 0 0.038-0.009 0.055-0.019 0.046-0.028 0.264-0.285 0.255-0.301-0.005-0.008-0.024-0.010-0.048-0.006-0.022 0.004-0.040 0.005-0.040 0.002s0.016-0.039 0.035-0.080c0.046-0.097 0.054-0.14 0.032-0.183-0.015-0.031-0.015-0.037 0.005-0.069 0.017-0.027 0.022-0.059 0.022-0.137 0-0.090 0.004-0.11 0.036-0.174 0.020-0.040 0.043-0.073 0.051-0.073 0.025 0 0.066 0.088 0.066 0.141 0 0.056 0.014 0.087 0.058 0.132 0.017 0.017 0.040 0.045 0.052 0.062s0.026 0.029 0.031 0.026c0.023-0.014 0.094-0.185 0.112-0.266 0.064-0.299 0.064-0.647 0-0.982-0.069-0.362-0.216-0.756-0.412-1.102-0.49-0.865-1.269-1.553-2.391-2.114-0.96-0.48-2.070-0.832-3.181-1.008-0.31-0.049-0.353-0.055-0.555-0.076-0.097-0.010-0.193-0.021-0.212-0.024-0.106-0.015-0.497-0.041-1.21-0.083-0.408-0.024-0.659-0.041-0.708-0.048-0.023-0.003-0.177-0.019-0.342-0.035s-0.349-0.034-0.407-0.041c-0.106-0.012-0.486-0.044-0.903-0.076-0.741-0.057-1.239-0.051-2.219 0.028-0.144 0.012-0.584 0.043-1.080 0.078-0.499 0.034-0.789 0.040-1.731 0.033-0.908-0.007-0.962-0.006-1.25 0.019-0.305 0.026-0.382 0.035-0.785 0.089-0.677 0.090-1.638 0.333-2.237 0.565-0.357 0.138-0.983 0.437-1.195 0.572-0.449 0.284-0.795 0.639-0.975 1.002-0.113 0.227-0.15 0.4-0.139 0.642 0.011 0.23 0.058 0.414 0.161 0.632 0.071 0.15 0.097 0.162 0.199 0.088 0.041-0.029 0.049-0.042 0.043-0.062-0.025-0.089-0.025-0.088 0.036-0.115l0.058-0.025-0.056-0.024c-0.031-0.013-0.056-0.027-0.056-0.031s0.027-0.025 0.059-0.046c0.032-0.021 0.059-0.044 0.059-0.050s-0.021-0.012-0.047-0.012c-0.044 0-0.047-0.002-0.047-0.033 0-0.045 0.028-0.081 0.086-0.111l0.049-0.025-0.062-0.030c-0.034-0.017-0.062-0.034-0.062-0.038s0.027-0.020 0.060-0.035c0.072-0.034 0.078-0.042 0.054-0.069-0.017-0.019-0.013-0.030 0.058-0.146 0.050-0.081 0.083-0.123 0.093-0.12 0.017 0.007 0.039 0.161 0.053 0.375 0.008 0.126 0.009 0.129 0.047 0.161l0.038 0.032-0.125 0.052 0.142 0.128-0.041 0.002c-0.023 0.001-0.054 0.005-0.070 0.010-0.028 0.008-0.027 0.009 0.026 0.047 0.051 0.037 0.054 0.041 0.041 0.069-0.012 0.026-0.010 0.033 0.022 0.059 0.097 0.082 0.159 0.148 0.159 0.169s-0.005 0.023-0.044 0.016c-0.024-0.004-0.055-0.010-0.068-0.014-0.028-0.007-0.017 0.006 0.116 0.147l0.081 0.085-0.048 0.046c-0.051 0.048-0.064 0.099-0.033 0.131 0.012 0.013 0.004 0.015-0.041 0.011-0.031-0.002-0.055-0.001-0.053 0.003s0.058 0.054 0.124 0.11c0.067 0.056 0.118 0.107 0.115 0.113s-0.060-0.008-0.126-0.030c-0.135-0.045-0.139-0.046-0.139-0.026 0 0.008 0.039 0.040 0.086 0.070 0.202 0.132 0.229 0.156 0.258 0.234 0.029 0.079 0.078 0.13 0.124 0.13 0.036 0 0.072-0.018 0.22-0.109 0.119-0.073 0.144-0.101 0.077-0.087-0.021 0.004-0.066 0.011-0.1 0.015l-0.063 0.007 0-0.040c0-0.076 0.062-0.139 0.165-0.17 0.058-0.017 0.106-0.045 0.106-0.061 0-0.012-0.020-0.016-0.083-0.016-0.058 0-0.083-0.004-0.082-0.015 0-0.008 0.037-0.038 0.083-0.066s0.082-0.056 0.082-0.062c0-0.006-0.025-0.011-0.056-0.011-0.085-0-0.092-0.013-0.032-0.051 0.042-0.027 0.052-0.040 0.052-0.067 0-0.025 0.008-0.038 0.033-0.051 0.060-0.031 0.074-0.094 0.048-0.22-0.012-0.059-0.011-0.072 0.009-0.112 0.012-0.025 0.039-0.057 0.058-0.072l0.036-0.027 0.056 0.083c0.050 0.074 0.056 0.090 0.056 0.148 0 0.056 0.006 0.073 0.041 0.121 0.023 0.031 0.041 0.060 0.041 0.065s-0.023 0.005-0.052 0.001c-0.084-0.013-0.076 0.013 0.035 0.124 0.055 0.054 0.099 0.105 0.099 0.112 0 0.009-0.025 0.012-0.083 0.007-0.045-0.003-0.083-0.003-0.083 0s0.056 0.048 0.124 0.099c0.068 0.051 0.124 0.095 0.124 0.099s-0.005 0.013-0.010 0.022c-0.008 0.012-0.028 0.010-0.101-0.010-0.148-0.041-0.14-0.026 0.067 0.121 0.148 0.105 0.151 0.128 0.014 0.106-0.106-0.017-0.108-0.001-0.008 0.091 0.047 0.043 0.086 0.082 0.086 0.086s-0.024 0.014-0.054 0.022c-0.073 0.020-0.067 0.047 0.016 0.070 0.058 0.015 0.066 0.015 0.1-0.005 0.103-0.060 0.249-0.205 0.228-0.227-0.003-0.003-0.043 0.011-0.090 0.031-0.080 0.034-0.106 0.037-0.106 0.012 0-0.006 0.045-0.059 0.101-0.118 0.117-0.124 0.155-0.195 0.17-0.321 0.011-0.094 0.061-0.222 0.087-0.222 0.010 0 0.040 0.070 0.083 0.196l0.066 0.196-0.041-0.008c-0.065-0.012-0.050 0.015 0.056 0.099l0.095 0.076-0.040 0.016c-0.022 0.009-0.042 0.018-0.044 0.020s0.023 0.047 0.056 0.1c0.033 0.053 0.060 0.101 0.060 0.106s-0.045-0.014-0.099-0.042c-0.070-0.036-0.102-0.048-0.108-0.038-0.005 0.008-0.001 0.020 0.009 0.027 0.083 0.062 0.293 0.238 0.293 0.246 0 0.012-0.006 0.012-0.086-0.007-0.037-0.009-0.071-0.011-0.074-0.006-0.006 0.009 0.101 0.085 0.142 0.101 0.010 0.004 0.018 0.016 0.018 0.028 0 0.020-0.013 0.017-0.13-0.025s-0.129-0.044-0.117-0.023c0.021 0.040 0.142 0.128 0.243 0.177 0.052 0.026 0.102 0.047 0.109 0.047 0.015 0 0.019 0.043 0.005 0.051-0.005 0.003-0.088-0.002-0.186-0.010s-0.179-0.014-0.181-0.011c-0.011 0.011 0.104 0.078 0.173 0.101 0.043 0.014 0.108 0.040 0.144 0.057l0.065 0.031-0.139 0.003c-0.1 0.002-0.139 0.007-0.139 0.018 0 0.009 0.076 0.036 0.189 0.067 0.104 0.029 0.189 0.056 0.189 0.060s-0.026 0.019-0.059 0.034l-0.059 0.027 0.138 0.081c0.076 0.045 0.167 0.095 0.201 0.112 0.061 0.030 0.064 0.031 0.104 0.011 0.049-0.023 0.045-0.031-0.043-0.091-0.033-0.022-0.059-0.043-0.059-0.046s0.048-0.025 0.106-0.047c0.058-0.023 0.104-0.046 0.102-0.053s-0.042-0.022-0.088-0.036c-0.046-0.013-0.087-0.027-0.090-0.030s0.041-0.032 0.099-0.064c0.099-0.054 0.127-0.077 0.090-0.077-0.009 0-0.025-0.007-0.036-0.015-0.019-0.014-0.012-0.023 0.078-0.097 0.133-0.111 0.132-0.119-0.013-0.075-0.041 0.013-0.082 0.023-0.092 0.023-0.034 0-0.014-0.036 0.057-0.098 0.041-0.036 0.070-0.069 0.065-0.074s-0.036 0-0.068 0.012c-0.033 0.012-0.061 0.019-0.064 0.016s0.029-0.047 0.071-0.099c0.074-0.091 0.086-0.112 0.067-0.112-0.005 0-0.019-0.007-0.030-0.015-0.019-0.014-0.015-0.019 0.038-0.056 0.067-0.045 0.065-0.071-0.006-0.071-0.022 0-0.040-0.004-0.040-0.010s0.030-0.036 0.067-0.067l0.067-0.058-0.031-0.011c-0.025-0.009-0.030-0.016-0.024-0.038 0.010-0.041 0.073-0.219 0.079-0.226 0.003-0.003 0.044 0.048 0.091 0.114 0.081 0.114 0.084 0.12 0.065 0.142s-0.018 0.026 0.020 0.102c0.031 0.063 0.050 0.085 0.085 0.104 0.025 0.013 0.050 0.033 0.057 0.044 0.010 0.019 0.004 0.021-0.078 0.021-0.090 0-0.115 0.014-0.061 0.035 0.028 0.011 0.043 0.027 0.13 0.144 0.046 0.062 0.042 0.069-0.047 0.069-0.054 0-0.067 0.014-0.031 0.035 0.056 0.032 0.058 0.035 0.027 0.059-0.036 0.028-0.031 0.033 0.047 0.054 0.063 0.017 0.106 0.046 0.106 0.071 0 0.015-0.117 0.041-0.186 0.041-0.041 0-0.057 0.015-0.035 0.032 0.008 0.006 0.074 0.035 0.147 0.063 0.099 0.039 0.133 0.057 0.133 0.073 0 0.018-0.013 0.021-0.112 0.021-0.062 0-0.112 0.005-0.112 0.011s0.043 0.033 0.094 0.060c0.124 0.065 0.124 0.081-0.003 0.086-0.054 0.002-0.096 0.009-0.095 0.015s0.061 0.030 0.133 0.052c0.077 0.024 0.131 0.047 0.131 0.056s-0.026 0.018-0.074 0.023l-0.074 0.008 0.082 0.075c0.149 0.136 0.223 0.151 0.317 0.063l0.049-0.046-0.059 0.007c-0.049 0.006-0.065 0.002-0.092-0.019-0.018-0.014-0.033-0.030-0.033-0.036s0.065-0.035 0.145-0.066c0.079-0.031 0.15-0.060 0.156-0.066 0.025-0.022-0.014-0.030-0.099-0.020-0.139 0.017-0.145 0.011-0.046-0.051 0.097-0.061 0.252-0.186 0.243-0.195-0.003-0.003-0.055 0.008-0.116 0.024-0.154 0.042-0.234 0.051-0.234 0.028 0-0.010 0.080-0.083 0.177-0.163 0.161-0.132 0.194-0.165 0.168-0.164-0.014 0-0.16 0.023-0.19 0.030-0.055 0.013-0.019-0.028 0.12-0.137 0.152-0.119 0.163-0.143 0.051-0.114-0.037 0.010-0.067 0.014-0.067 0.011s0.022-0.035 0.048-0.071c0.027-0.035 0.045-0.067 0.042-0.070s-0.026 0.005-0.049 0.019c-0.094 0.055-0.087 0.029 0.042-0.158 0.113-0.165 0.112-0.159 0.031-0.177l-0.034-0.007 0.030-0.027c0.053-0.049 0.069-0.097 0.079-0.241 0.008-0.113 0.019-0.163 0.058-0.278 0.026-0.078 0.048-0.152 0.048-0.165 0-0.024 0-0.024 0.018-0.001 0.032 0.041 0.096 0.186 0.118 0.264l0.021 0.075-0.057 0.043 0.026 0.028c0.033 0.035 0.033 0.052 0.003 0.059-0.013 0.003-0.027 0.015-0.031 0.025-0.008 0.022-0.002 0.035 0.123 0.247 0.053 0.089 0.096 0.167 0.096 0.173s-0.031 0.001-0.068-0.011c-0.067-0.021-0.068-0.021-0.072 0.002-0.002 0.013 0.011 0.042 0.030 0.065 0.065 0.082 0.076 0.103 0.069 0.139-0.010 0.053-0.022 0.059-0.077 0.037-0.053-0.021-0.053-0.022 0.002 0.060 0.019 0.028 0.041 0.084 0.050 0.128 0.011 0.054 0.035 0.109 0.077 0.177 0.1 0.164 0.082 0.178-0.077 0.059-0.064-0.048-0.121-0.083-0.127-0.078s0.020 0.054 0.056 0.108c0.036 0.054 0.066 0.102 0.066 0.107s-0.011 0.012-0.024 0.016c-0.013 0.004-0.024 0.012-0.024 0.018s0.040 0.035 0.089 0.066c0.049 0.031 0.087 0.061 0.085 0.069s-0.045 0.016-0.103 0.019c-0.056 0.003-0.1 0.011-0.103 0.019s0.021 0.033 0.052 0.058c0.145 0.116 0.215 0.211 0.216 0.292 0 0.038 0.005 0.037-0.094 0.015-0.115-0.025-0.132-0.023-0.082 0.010 0.101 0.069 0.2 0.079 0.295 0.031 0.059-0.030 0.063-0.038 0.036-0.073l-0.022-0.028 0.081-0.045c0.045-0.025 0.081-0.049 0.081-0.054 0-0.016-0.033-0.024-0.095-0.024-0.032 0-0.058-0.004-0.058-0.009s0.036-0.036 0.079-0.068l0.079-0.058-0.058-0.016c-0.108-0.029-0.108-0.029-0.053-0.067l0.049-0.034-0.064-0.051 0.073-0.039c0.094-0.050 0.095-0.071 0.005-0.072l-0.068-0 0.126-0.113-0.040-0.016c-0.022-0.009-0.042-0.018-0.045-0.020s0.021-0.031 0.053-0.063l0.058-0.059h-0.044c-0.024 0-0.044-0.003-0.044-0.007s0.013-0.023 0.030-0.042c0.035-0.041 0.036-0.053 0.011-0.115-0.018-0.044-0.017-0.053 0.005-0.139 0.055-0.216 0.072-0.208 0.151 0.073 0.011 0.039 0.033 0.089 0.048 0.112 0.032 0.047 0.036 0.103 0.011 0.137s-0.022 0.057 0.022 0.154c0.039 0.085 0.040 0.088 0.018 0.1s-0.022 0.014 0.007 0.070c0.034 0.068 0.036 0.086 0.011 0.154l-0.018 0.051 0.068 0.068c0.079 0.080 0.076 0.094-0.029 0.104l-0.067 0.006 0.059 0.037c0.093 0.058 0.104 0.071 0.095 0.114-0.006 0.032-0.002 0.040 0.025 0.057 0.055 0.032 0.169-0.003 0.257-0.079l0.035-0.031-0.041 0.006c-0.023 0.004-0.064 0.010-0.092 0.014-0.040 0.006-0.050 0.004-0.050-0.010 0-0.010 0.015-0.027 0.033-0.038 0.082-0.052 0.191-0.141 0.183-0.149-0.005-0.005-0.038-0.001-0.074 0.008s-0.069 0.017-0.074 0.017c-0.024 0 0-0.034 0.093-0.13 0.056-0.058 0.098-0.11 0.094-0.117s-0.038 0.009-0.078 0.037c-0.039 0.027-0.074 0.045-0.079 0.040s0.046-0.088 0.112-0.185l0.12-0.177h-0.094c-0.052 0-0.094-0.004-0.094-0.009s0.035-0.030 0.077-0.055c0.043-0.025 0.075-0.051 0.073-0.059s-0.038-0.016-0.080-0.019l-0.076-0.006 0.087-0.058c0.090-0.061 0.092-0.074 0.014-0.077-0.027-0.001-0.023-0.007 0.041-0.065l0.071-0.064-0.037-0c-0.067-0.001-0.075-0.009-0.067-0.069 0.009-0.072 0.027-0.103 0.090-0.166l0.053-0.052 0.017 0.028c0.027 0.044 0.118 0.196 0.148 0.247 0.025 0.042 0.026 0.048 0.010 0.080-0.010 0.019-0.026 0.041-0.036 0.049-0.016 0.014-0.013 0.022 0.030 0.073 0.027 0.032 0.046 0.061 0.043 0.064s-0.031-0.002-0.063-0.012c-0.032-0.009-0.059-0.016-0.061-0.013s0.036 0.090 0.085 0.195c0.049 0.105 0.089 0.197 0.089 0.203s-0.009 0.009-0.021 0.006c-0.1-0.030-0.107-0.021-0.038 0.046 0.026 0.025 0.047 0.050 0.047 0.056s-0.016 0.009-0.035 0.009c-0.052 0-0.052 0.016 0.001 0.048 0.056 0.034 0.072 0.059 0.063 0.098-0.005 0.022 0.001 0.035 0.030 0.059 0.043 0.036 0.081 0.040 0.118 0.010l0.026-0.021-0.020-0.12c-0.018-0.105-0.018-0.147-0.007-0.33 0.014-0.222 0.024-0.281 0.058-0.323 0.021-0.026 0.022-0.025 0.106 0.161 0.047 0.103 0.085 0.191 0.085 0.196s-0.016 0.009-0.035 0.009h-0.035l0.035 0.103c0.021 0.063 0.034 0.121 0.032 0.15l-0.003 0.047 0.064 0.017c0.063 0.017 0.065 0.017 0.127-0.016 0.069-0.036 0.075-0.046 0.040-0.068-0.013-0.008-0.024-0.018-0.024-0.023s0.025-0.022 0.055-0.040l0.055-0.032-0.043-0.022c-0.024-0.012-0.043-0.026-0.043-0.031s0.019-0.024 0.043-0.043c0.040-0.032 0.042-0.037 0.036-0.086-0.004-0.029 0.001-0.109 0.010-0.178s0.018-0.145 0.018-0.169c0-0.062 0.010-0.082 0.042-0.082 0.023 0 0.037 0.017 0.077 0.095 0.050 0.095 0.095 0.145 0.127 0.139 0.026-0.005 0.061-0.058 0.074-0.111 0.024-0.104 0.047-0.282 0.047-0.378 0-0.089 0.002-0.101 0.020-0.097 0.014 0.003 0.030 0.037 0.053 0.116 0.060 0.204 0.061 0.205 0.097 0.223l0.034 0.016-0.027 0.020c-0.027 0.020-0.027 0.020-0.005 0.058s0.022 0.038-0.005 0.058l-0.027 0.020 0.036 0.027c0.045 0.033 0.045 0.045 0 0.055-0.042 0.009-0.046 0.026-0.008 0.040 0.044 0.017 0.058 0.044 0.064 0.128 0.003 0.044 0.011 0.087 0.018 0.095 0.008 0.011 0.005 0.022-0.010 0.040-0.022 0.024-0.022 0.025 0 0.038 0.012 0.007 0.039 0.028 0.059 0.045l0.036 0.032-0.056 0c-0.031 0-0.056 0.005-0.056 0.012s0.025 0.028 0.056 0.049c0.067 0.045 0.073 0.054 0.074 0.095l0 0.031-0.059-0.016c-0.033-0.009-0.062-0.011-0.066-0.005s0.018 0.028 0.049 0.049 0.067 0.048 0.080 0.060c0.024 0.021 0.023 0.021-0.044 0.014-0.092-0.010-0.086 0.010 0.020 0.066l0.079 0.042-0.058 0.058 0.057 0.1c0.031 0.055 0.056 0.102 0.054 0.104s-0.043-0.007-0.091-0.021c-0.103-0.029-0.104-0.029-0.104-0.009 0 0.009 0.050 0.052 0.112 0.095 0.119 0.085 0.122 0.091 0.067 0.141-0.018 0.016-0.039 0.021-0.087 0.018-0.1-0.006-0.080 0.021 0.055 0.077l0.118 0.049-0.103 0.003c-0.089 0.003-0.103 0.006-0.103 0.024 0 0.014 0.030 0.035 0.096 0.067 0.062 0.030 0.108 0.062 0.13 0.090 0.045 0.056 0.107 0.086 0.16 0.076 0.039-0.007 0.145-0.091 0.145-0.114 0-0.006-0.032-0.010-0.071-0.010s-0.071-0.004-0.071-0.009c0-0.005 0.036-0.032 0.080-0.061l0.079-0.053-0.062-0.018c-0.066-0.019-0.076-0.030-0.039-0.042 0.012-0.004 0.029-0.016 0.038-0.026 0.013-0.016 0.011-0.022-0.013-0.042s-0.027-0.025-0.011-0.037c0.063-0.048 0.083-0.067 0.076-0.077-0.005-0.007-0.021-0.006-0.045 0.004-0.099 0.041-0.098 0.043-0.033-0.087 0.033-0.065 0.060-0.122 0.060-0.126s-0.025-0.004-0.055 0.001l-0.055 0.008 0.026-0.036c0.014-0.020 0.037-0.044 0.051-0.054 0.027-0.019 0.029-0.016-0.034-0.036-0.017-0.006-0.017-0.009 0.004-0.032 0.018-0.019 0.026-0.049 0.031-0.113 0.005-0.065 0.013-0.094 0.031-0.113 0.027-0.029 0.021-0.042-0.019-0.042-0.039 0-0.036-0.037 0.005-0.067 0.043-0.032 0.104-0.063 0.124-0.063 0.009 0 0.028 0.025 0.042 0.055 0.024 0.049 0.025 0.056 0.008 0.075-0.026 0.029-0.023 0.051 0.012 0.084 0.023 0.021 0.064 0.092 0.064 0.11 0 0.001-0.027-0-0.059-0.003-0.081-0.006-0.077 0.013 0.019 0.091 0.043 0.035 0.074 0.067 0.070 0.071s-0.027 0.013-0.050 0.020l-0.043 0.012 0.103 0.080c0.057 0.044 0.1 0.085 0.097 0.090s-0.039-0.001-0.079-0.013c-0.083-0.026-0.103-0.019-0.052 0.018 0.019 0.014 0.051 0.040 0.071 0.057 0.032 0.028 0.035 0.034 0.021 0.057-0.019 0.031-0.012 0.043 0.037 0.065 0.068 0.031 0.118 0.089 0.076 0.089-0.008 0-0.052-0.019-0.097-0.041-0.055-0.027-0.086-0.037-0.094-0.029s-0.005 0.017 0.007 0.027c0.010 0.008 0.054 0.044 0.098 0.079l0.079 0.065-0.086 0.036 0.096 0.062c0.053 0.034 0.092 0.067 0.088 0.074s-0.037 0.012-0.074 0.012c-0.083 0-0.071 0.018 0.024 0.036 0.114 0.021 0.282-0.025 0.345-0.095 0.017-0.019 0.013-0.020-0.063-0.015-0.078 0.006-0.083 0.005-0.125-0.033-0.024-0.021-0.052-0.053-0.061-0.071-0.019-0.037-0.008-0.047 0.052-0.047 0.052 0 0.144-0.053 0.213-0.124l0.065-0.065h-0.079c-0.092 0-0.101-0.014-0.038-0.059 0.022-0.016 0.041-0.033 0.041-0.036s-0.018-0.017-0.041-0.029c-0.023-0.012-0.041-0.025-0.041-0.029s0.025-0.025 0.056-0.047l0.056-0.040-0.032-0.011c-0.018-0.006-0.032-0.014-0.032-0.018s0.024-0.022 0.053-0.040c0.029-0.018 0.053-0.038 0.053-0.044s-0.022-0.015-0.050-0.020l-0.050-0.010 0.055-0.045c0.070-0.058 0.071-0.076 0.003-0.080l-0.053-0.004 0.095-0.124h-0.042c-0.023 0-0.042-0.002-0.042-0.005s0.027-0.049 0.060-0.102l0.060-0.097-0.031-0.032c-0.033-0.034-0.039-0.070-0.016-0.094 0.010-0.010 0.015-0.059 0.016-0.153 0.001-0.114 0.005-0.15 0.027-0.206 0.015-0.037 0.031-0.070 0.037-0.074s0.020 0.008 0.033 0.026c0.017 0.024 0.030 0.085 0.049 0.221 0.026 0.188 0.027 0.189 0.081 0.271 0.083 0.125 0.080 0.117 0.045 0.108-0.017-0.004-0.045-0.011-0.063-0.015-0.029-0.007-0.027-0.003 0.030 0.068 0.034 0.041 0.061 0.079 0.061 0.084s-0.024 0.009-0.054 0.009h-0.054l0.042 0.040c0.048 0.045 0.050 0.053 0.024 0.103l-0.018 0.035 0.056 0.025c0.061 0.027 0.061 0.024-0.013 0.074-0.021 0.014-0.015 0.018 0.065 0.045 0.115 0.038 0.121 0.060 0.022 0.080l-0.073 0.015 0.055 0.047c0.030 0.026 0.055 0.052 0.055 0.058s-0.028 0.008-0.068 0.003c-0.064-0.007-0.067-0.007-0.051 0.013 0.023 0.028 0.115 0.073 0.168 0.082 0.061 0.011 0.14-0.012 0.194-0.056l0.045-0.037-0.117-0.012 0.1-0.066c0.184-0.122 0.215-0.191 0.053-0.117-0.044 0.020-0.082 0.034-0.085 0.031s0.007-0.041 0.021-0.084c0.028-0.085 0.024-0.099-0.032-0.099-0.052-0-0.037-0.023 0.067-0.102 0.063-0.048 0.102-0.085 0.095-0.091s-0.053-0-0.115 0.015c-0.057 0.014-0.108 0.025-0.113 0.025-0.030 0 0.007-0.046 0.121-0.152 0.071-0.067 0.127-0.126 0.123-0.132s-0.034 0-0.068 0.013c-0.034 0.013-0.065 0.023-0.070 0.023-0.020 0-0.006-0.035 0.038-0.099 0.051-0.073 0.057-0.090 0.030-0.090s-0.023-0.014 0.041-0.142c0.033-0.065 0.055-0.118 0.050-0.118s-0.026 0.005-0.047 0.011c-0.037 0.011-0.053-0.001-0.025-0.018 0.007-0.004 0.023-0.031 0.036-0.059 0.019-0.044 0.022-0.076 0.020-0.238-0.003-0.168-0-0.193 0.022-0.246 0.031-0.074 0.056-0.081 0.072-0.021 0.007 0.025 0.029 0.102 0.049 0.172s0.035 0.131 0.031 0.137c-0.003 0.005 0.020 0.030 0.053 0.054s0.058 0.052 0.058 0.061c0 0.020 0.002 0.020-0.059-0.001-0.112-0.040-0.109-0.017 0.008 0.066l0.090 0.064-0.043 0.004c-0.024 0.002-0.043 0.007-0.043 0.012s0.027 0.023 0.060 0.042c0.033 0.018 0.058 0.040 0.055 0.047s-0.039 0.019-0.080 0.026l-0.076 0.012 0.134 0.093c0.13 0.090 0.146 0.112 0.082 0.113-0.042 0-0.017 0.037 0.055 0.082 0.041 0.025 0.060 0.067 0.047 0.1-0.009 0.025-0.017 0.024-0.129-0.011-0.052-0.016-0.095-0.029-0.096-0.029s-0.005 0.008-0.008 0.017c-0.005 0.013 0.043 0.052 0.164 0.138 0.094 0.066 0.171 0.127 0.171 0.136 0 0.020-0.051 0.019-0.171-0.003-0.125-0.023-0.131-0.023-0.111 0.001 0.034 0.041 0.124 0.091 0.242 0.135 0.141 0.052 0.196 0.086 0.186 0.113-0.005 0.013-0.016 0.016-0.037 0.011-0.042-0.011-0.277-0.053-0.295-0.053-0.049-0.001 0.009 0.042 0.177 0.131 0.105 0.056 0.194 0.108 0.196 0.117 0.004 0.013-0.020 0.014-0.126 0.008-0.072-0.004-0.154-0.011-0.183-0.015-0.046-0.006-0.052-0.004-0.058 0.018-0.008 0.031-0.020 0.024 0.242 0.131 0.115 0.047 0.21 0.090 0.21 0.095s-0.019 0.021-0.043 0.036c-0.039 0.024-0.052 0.026-0.161 0.019l-0.119-0.007 0.038 0.040c0.052 0.054 0.139 0.094 0.297 0.137 0.074 0.020 0.136 0.038 0.138 0.041 0.011 0.011-0.037 0.063-0.079 0.087-0.053 0.030-0.090 0.032-0.131 0.008-0.041-0.023-0.056-0.022-0.065 0.006-0.009 0.030-0.027 0.030-0.058 0.001-0.013-0.012-0.037-0.026-0.052-0.031l-0.027-0.008 0.024 0.046c0.065 0.127 0.248 0.196 0.424 0.161 0.032-0.006 0.035-0.010 0.025-0.035-0.013-0.033-0.007-0.037 0.11-0.075 0.062-0.020 0.080-0.031 0.080-0.049 0-0.020-0.009-0.023-0.088-0.023-0.049 0-0.088-0.004-0.088-0.009s0.051-0.034 0.113-0.065c0.067-0.034 0.111-0.062 0.108-0.070-0.006-0.016-0.019-0.016-0.119-0.004-0.048 0.006-0.067 0.005-0.061-0.004 0.004-0.007 0.063-0.050 0.131-0.097 0.17-0.116 0.165-0.135-0.024-0.087-0.032 0.008-0.061 0.013-0.063 0.011s0.002-0.015 0.009-0.028c0.007-0.013 0.013-0.043 0.013-0.066 0-0.025 0.007-0.045 0.016-0.049 0.013-0.005 0.015-0.023 0.010-0.076-0.007-0.081 0.008-0.112 0.073-0.153 0.023-0.014 0.042-0.031 0.042-0.037s-0.032-0.011-0.071-0.011c-0.039 0-0.071-0.004-0.070-0.009s0.043-0.043 0.095-0.086l0.095-0.077-0.042-0.007c-0.055-0.009-0.060-0.016-0.037-0.048 0.026-0.038 0.024-0.053-0.011-0.062-0.042-0.011-0.037-0.035 0.019-0.089 0.042-0.041 0.048-0.052 0.045-0.093-0.003-0.039 0.005-0.059 0.047-0.119 0.028-0.040 0.052-0.072 0.055-0.072s0.021 0.023 0.041 0.052c0.028 0.040 0.036 0.065 0.036 0.109 0 0.049 0.006 0.062 0.044 0.101l0.044 0.045h-0.056c-0.031 0-0.056 0.005-0.056 0.010s0.032 0.035 0.071 0.066c0.039 0.031 0.071 0.060 0.071 0.066s-0.011 0.014-0.024 0.018c-0.035 0.011-0.030 0.022 0.038 0.081 0.034 0.029 0.058 0.057 0.053 0.062s-0.048-0.003-0.096-0.017c-0.048-0.014-0.091-0.025-0.095-0.025-0.022 0 0.054 0.081 0.128 0.135 0.046 0.034 0.096 0.075 0.11 0.091 0.030 0.032 0.068 0.116 0.053 0.116-0.006 0-0.041-0.011-0.079-0.024s-0.071-0.024-0.074-0.024c-0.015 0 0.033 0.044 0.086 0.077 0.032 0.021 0.071 0.051 0.085 0.066 0.026 0.029 0.056 0.092 0.047 0.101-0.005 0.005-0.049-0.006-0.152-0.037-0.097-0.030-0.069 0.009 0.081 0.108 0.121 0.080 0.134 0.093 0.116 0.106-0.011 0.008-0.026 0.017-0.033 0.020-0.009 0.003-0.009 0.009 0.002 0.020 0.023 0.024 0.018 0.029-0.035 0.030-0.028 0.001-0.075 0.006-0.106 0.010-0.098 0.016-0.077 0.037 0.151 0.151 0.114 0.057 0.207 0.108 0.207 0.113s-0.008 0.017-0.018 0.025c-0.025 0.021-0.022 0.056 0.007 0.071 0.021 0.011 0.032 0.006 0.080-0.039 0.031-0.029 0.094-0.074 0.141-0.102s0.105-0.070 0.129-0.093l0.043-0.043-0.045-0.011c-0.055-0.013-0.122 0.005-0.17 0.046-0.031 0.026-0.036 0.027-0.050 0.010-0.012-0.015-0.028-0.017-0.070-0.012-0.056 0.007-0.106-0.013-0.091-0.036 0.004-0.006 0.082-0.061 0.173-0.122s0.166-0.116 0.166-0.122c0-0.006-0.042-0.007-0.099-0.002-0.081 0.007-0.106 0.005-0.137-0.011-0.021-0.011-0.033-0.024-0.028-0.030s0.074-0.044 0.151-0.085 0.143-0.081 0.145-0.088c0.003-0.008-0.031-0.019-0.085-0.027-0.059-0.009-0.089-0.020-0.089-0.030 0-0.009 0.062-0.060 0.138-0.113s0.132-0.1 0.124-0.103c-0.008-0.003-0.051 0.004-0.096 0.014s-0.088 0.019-0.096 0.019c-0.022 0 0.021-0.042 0.127-0.125 0.053-0.041 0.099-0.085 0.102-0.098 0.010-0.036-0.036-0.036-0.112 0.002-0.082 0.040-0.088 0.041-0.065 0.006 0.015-0.023 0.015-0.031 0.002-0.056-0.022-0.039-0.022-0.040 0.017-0.085s0.065-0.091 0.057-0.1c-0.003-0.003-0.026 0.005-0.051 0.017-0.123 0.062-0.129 0.040-0.020-0.070 0.094-0.095 0.090-0.125-0.011-0.086-0.013 0.005-0.005-0.026 0.026-0.109 0.053-0.14 0.066-0.166 0.104-0.206s0.027-0.060-0.021-0.043c-0.046 0.016-0.052 0.009-0.023-0.029s0.030-0.050-0-0.072c-0.023-0.016-0.023-0.018 0.025-0.056s0.049-0.040 0.026-0.058c-0.023-0.018-0.023-0.020 0.016-0.089 0.036-0.065 0.039-0.079 0.039-0.174 0-0.092 0.003-0.103 0.021-0.103 0.017 0 0.041 0.051 0.113 0.239 0.051 0.131 0.095 0.245 0.098 0.253 0.004 0.009-0.011 0.015-0.042 0.018l-0.048 0.004 0.119 0.136h-0.048c-0.059 0-0.061 0.011-0.006 0.041 0.050 0.027 0.102 0.084 0.134 0.147 0.031 0.061 0.12 0.299 0.114 0.305-0.003 0.003-0.061-0.025-0.129-0.061-0.18-0.096-0.174-0.067 0.022 0.107l0.158 0.14-0.044 0.014c-0.024 0.008-0.067 0.020-0.096 0.027l-0.052 0.013 0.143 0.067c0.079 0.037 0.142 0.072 0.14 0.079s-0.042 0.016-0.088 0.022c-0.047 0.006-0.085 0.015-0.085 0.020s0.040 0.041 0.089 0.079c0.087 0.067 0.088 0.069 0.056 0.076-0.018 0.004-0.050 0.008-0.071 0.009-0.061 0.002-0.051 0.039 0.020 0.072 0.073 0.034 0.086 0.031 0.27-0.062 0.107-0.054 0.145-0.079 0.145-0.095 0-0.020-0.008-0.021-0.121-0.014-0.067 0.005-0.118 0.006-0.115 0.002s0.048-0.039 0.1-0.080c0.12-0.094 0.116-0.090 0.108-0.103-0.004-0.006-0.031-0.007-0.063-0.002-0.031 0.005-0.060 0.005-0.065 0.001s0.029-0.039 0.074-0.077c0.045-0.038 0.082-0.076 0.082-0.085 0-0.011-0.018-0.017-0.055-0.020l-0.055-0.004 0.123-0.148h-0.036c-0.043 0-0.046-0.014-0.012-0.057 0.021-0.026 0.023-0.041 0.017-0.094-0.008-0.062-0.004-0.074 0.054-0.16 0.012-0.017 0.084 0.023 0.134 0.074l0.045 0.046-0.029 0.011c-0.016 0.006-0.034 0.013-0.042 0.015s0.025 0.077 0.080 0.181c0.051 0.097 0.093 0.178 0.093 0.179s-0.027 0.011-0.059 0.022c-0.032 0.011-0.059 0.024-0.059 0.030s0.043 0.025 0.094 0.043c0.052 0.018 0.094 0.037 0.094 0.041s-0.020 0.011-0.044 0.016c-0.024 0.005-0.049 0.011-0.054 0.015s0.043 0.035 0.108 0.070c0.101 0.054 0.117 0.067 0.112 0.088-0.005 0.019-0.013 0.023-0.037 0.018-0.017-0.003-0.060-0.007-0.096-0.009-0.093-0.004-0.085 0.021 0.020 0.060 0.047 0.017 0.088 0.035 0.093 0.039s-0.011 0.012-0.035 0.016c-0.023 0.004-0.045 0.012-0.049 0.018s0.047 0.027 0.112 0.048c0.086 0.028 0.118 0.044 0.118 0.058 0 0.015-0.017 0.021-0.080 0.027-0.044 0.004-0.105 0.008-0.135 0.008s-0.063 0.003-0.074 0.007c-0.047 0.018-0.011 0.039 0.144 0.081 0.236 0.065 0.249 0.076 0.106 0.094-0.037 0.005-0.068 0.013-0.068 0.019 0 0.010 0.146 0.059 0.175 0.059 0.035 0 0.008 0.031-0.041 0.047-0.030 0.010-0.055 0.023-0.056 0.029s0.021 0.018 0.049 0.028c0.049 0.016 0.052 0.016 0.113-0.019 0.034-0.019 0.099-0.061 0.144-0.093l0.082-0.057-0.189-0.012 0.112-0.075c0.117-0.078 0.142-0.108 0.090-0.108-0.064 0-0.070-0.011-0.030-0.060 0.040-0.051 0.039-0.052-0.068-0.032-0.054 0.010-0.079 0.010-0.088 0.001s-0.006-0.015 0.012-0.021c0.026-0.008 0.028-0.013 0.030-0.076 0.001-0.023 0.009-0.044 0.019-0.049s0.056-0.026 0.103-0.048 0.086-0.042 0.086-0.046c0-0.004-0.024-0.016-0.053-0.028s-0.053-0.025-0.053-0.029c0-0.004 0.029-0.028 0.065-0.052s0.065-0.050 0.065-0.056c0-0.006-0.024-0.011-0.053-0.011s-0.053-0.002-0.053-0.003c0-0.002 0.011-0.024 0.024-0.050s0.024-0.063 0.024-0.084c0-0.021 0.005-0.052 0.012-0.068 0.010-0.026 0.008-0.030-0.012-0.030-0.029 0-0.029-0.001 0.006-0.071 0.016-0.032 0.029-0.062 0.029-0.066s-0.016-0.004-0.037-0c-0.035 0.007-0.036 0.006-0.029-0.025 0.012-0.050 0.039-0.084 0.071-0.093 0.048-0.012 0.031-0.042-0.033-0.058l-0.032-0.008 0.029-0.035c0.016-0.019 0.030-0.044 0.031-0.055s0.003-0.083 0.006-0.161c0.005-0.157 0.016-0.211 0.043-0.216 0.030-0.006 0.102 0.18 0.122 0.311 0.016 0.105 0.040 0.172 0.088 0.241 0.011 0.016 0.024 0.045 0.029 0.064 0.007 0.032 0.006 0.034-0.029 0.029-0.070-0.010-0.065 0.018 0.016 0.094 0.075 0.070 0.082 0.085 0.041 0.085-0.012 0-0.024 0.005-0.027 0.011s0.041 0.092 0.1 0.191c0.058 0.099 0.106 0.185 0.106 0.19 0 0.017-0.016 0.010-0.094-0.038-0.11-0.068-0.116-0.040-0.013 0.059 0.085 0.081 0.11 0.125 0.082 0.144-0.014 0.009-0.079 0.008-0.128-0.004-0.010-0.002-0.020 0.001-0.022 0.007s0.061 0.053 0.142 0.104c0.193 0.121 0.2 0.146 0.034 0.108-0.145-0.033-0.149-0.017-0.015 0.051 0.066 0.034 0.123 0.067 0.128 0.073 0.005 0.008-0.029 0.012-0.099 0.012-0.066 0-0.107 0.005-0.107 0.012s0.053 0.037 0.118 0.067 0.118 0.060 0.118 0.066-0.040 0.009-0.109 0.004c-0.101-0.007-0.107-0.006-0.086 0.011 0.056 0.044 0.131 0.067 0.237 0.072 0.135 0.007 0.223-0.016 0.286-0.074l0.043-0.040-0.115-0c-0.063-0-0.115-0.005-0.115-0.011s0.042-0.038 0.094-0.072c0.052-0.034 0.091-0.067 0.087-0.073s-0.045-0.010-0.091-0.008c-0.050 0.002-0.085-0.002-0.088-0.010s0.041-0.046 0.097-0.087 0.101-0.079 0.101-0.084c0-0.005-0.057-0.009-0.127-0.009h-0.127l0.126-0.086c0.069-0.047 0.126-0.088 0.127-0.092 0.001-0.012-0.148-0.059-0.188-0.059l-0.041-0.001 0.047-0.038c0.026-0.021 0.062-0.053 0.081-0.071 0.032-0.031 0.033-0.034 0.015-0.055s-0.017-0.024 0.018-0.059c0.028-0.028 0.034-0.041 0.024-0.051-0.019-0.019-0.017-0.059 0.004-0.086 0.023-0.031 0.022-0.038-0.006-0.047-0.035-0.011-0.030-0.056 0.013-0.116 0.029-0.041 0.038-0.068 0.043-0.13 0.007-0.084 0.027-0.108 0.055-0.064 0.024 0.038 0.149 0.278 0.149 0.285 0 0.003-0.023 0.007-0.050 0.009l-0.050 0.004 0.058 0.041c0.032 0.023 0.069 0.051 0.083 0.062 0.025 0.020 0.025 0.021 0.002 0.038s-0.020 0.021 0.050 0.092c0.075 0.076 0.086 0.101 0.056 0.126-0.015 0.013-0.012 0.021 0.025 0.062 0.034 0.038 0.041 0.053 0.034 0.078-0.004 0.017-0.009 0.033-0.011 0.035s-0.039-0.009-0.082-0.025c-0.047-0.017-0.081-0.024-0.086-0.017-0.010 0.016 0.001 0.025 0.183 0.165 0.154 0.119 0.191 0.154 0.176 0.169-0.004 0.004-0.060-0.003-0.124-0.016s-0.118-0.022-0.121-0.019c-0.013 0.013 0.017 0.043 0.103 0.107 0.052 0.038 0.095 0.074 0.096 0.078s-0.015 0.013-0.035 0.020c-0.020 0.007-0.035 0.017-0.035 0.022s0.040 0.030 0.088 0.055c0.064 0.033 0.096 0.043 0.118 0.038 0.031-0.008 0.113-0.073 0.113-0.090 0-0.006-0.020-0.012-0.043-0.014l-0.043-0.004 0.185-0.196-0.073 0.008c-0.088 0.010-0.092-0-0.023-0.059 0.041-0.035 0.047-0.045 0.032-0.054-0.010-0.006-0.022-0.011-0.026-0.011-0.019-0-0.007-0.028 0.033-0.076l0.041-0.051-0.044-0.007c-0.024-0.004-0.063-0.008-0.086-0.008l-0.041-0.001 0.094-0.088c0.052-0.048 0.089-0.088 0.082-0.088s-0.022-0.007-0.034-0.016c-0.020-0.015-0.020-0.018 0.010-0.076 0.021-0.042 0.031-0.079 0.031-0.122 0-0.044 0.008-0.076 0.030-0.113 0.042-0.071 0.072-0.069 0.134 0.009 0.045 0.057 0.054 0.077 0.049 0.115-0.003 0.025 0.030 0.068 0.076 0.096 0.023 0.014 0.042 0.030 0.042 0.035s-0.016 0.016-0.035 0.024c-0.036 0.015-0.047 0.035-0.021 0.036 0.008 0 0.041 0.013 0.074 0.027l0.059 0.027-0.047 0.015c-0.026 0.008-0.055 0.017-0.064 0.020s0.031 0.037 0.103 0.085c0.087 0.058 0.117 0.084 0.11 0.095-0.008 0.013-0.024 0.013-0.086 0.002-0.094-0.016-0.092-0.016-0.092 0.002 0 0.008 0.049 0.042 0.109 0.076 0.192 0.108 0.195 0.117 0.028 0.102-0.165-0.015-0.161 0.004 0.022 0.090 0.151 0.072 0.18 0.097 0.167 0.149-0.007 0.028-0.007 0.028-0.067 0.010-0.033-0.010-0.063-0.015-0.067-0.011s0.034 0.048 0.085 0.099c0.101 0.1 0.12 0.128 0.131 0.193 0.006 0.032 0.018 0.050 0.045 0.068 0.056 0.036 0.076 0.030 0.142-0.036zM21.858 17.664c-0.133-0.039-0.181-0.058-0.197-0.079-0.029-0.037-0.027-0.051 0.009-0.080 0.029-0.023 0.047-0.024 0.231-0.024 0.275 0 0.34 0.020 0.34 0.107 0 0.052-0.035 0.074-0.195 0.125-0.006 0.002-0.091-0.020-0.188-0.048zM16.827 17.373c-0.038-0.027-0.072-0.051-0.076-0.054-0.007-0.007 0.066-0.070 0.11-0.093 0.1-0.054 0.534-0.081 0.791-0.049l0.14 0.018 0.128 0.126-0.045 0.038c-0.025 0.021-0.063 0.044-0.086 0.050-0.024 0.007-0.22 0.012-0.467 0.012l-0.426 0-0.070-0.049zM12.617 16.465c-0.142-0.036-0.209-0.128-0.209-0.286 0-0.067 0.007-0.1 0.030-0.151 0.081-0.175 0.3-0.296 0.507-0.28 0.153 0.012 0.31 0.096 0.382 0.205 0.032 0.048 0.037 0.066 0.037 0.133 0 0.123-0.037 0.17-0.202 0.259-0.188 0.101-0.417 0.151-0.545 0.119zM23.097 16.436c-0.058-0.016-0.149-0.038-0.201-0.048-0.112-0.022-0.172-0.054-0.24-0.128-0.088-0.095-0.056-0.155 0.1-0.185 0.038-0.008 0.073-0.018 0.076-0.024s0.107 0.032 0.23 0.083c0.426 0.177 0.453 0.194 0.406 0.253-0.058 0.074-0.212 0.095-0.372 0.050zM20.812 15.796c-0.121-0.012-0.283-0.045-0.373-0.075-0.141-0.048-0.265-0.147-0.312-0.25-0.045-0.098 0.067-0.154 0.337-0.171 0.065-0.004 0.121-0.011 0.124-0.016 0.006-0.009 0.6 0.121 0.739 0.161 0.096 0.028 0.125 0.058 0.131 0.136 0.007 0.087-0.031 0.158-0.103 0.196-0.049 0.026-0.062 0.027-0.277 0.025-0.124-0.001-0.244-0.004-0.267-0.006zM16.731 14.986c-0.136-0.068-0.016-0.171 0.167-0.144 0.057 0.009 0.113 0.043 0.113 0.070 0 0.009-0.018 0.035-0.040 0.058-0.038 0.040-0.044 0.042-0.115 0.041-0.052-0-0.091-0.008-0.126-0.026zM22.223 14.973c-0.081-0.026-0.267-0.125-0.259-0.138 0.022-0.035 0.169-0.059 0.274-0.045 0.13 0.018 0.215 0.080 0.198 0.146-0.012 0.049-0.118 0.068-0.214 0.037zM11.215 14.395c-0.124-0.024-0.164-0.060-0.139-0.126 0.028-0.075 0.106-0.118 0.213-0.118 0.096 0 0.155 0.017 0.201 0.058l0.037 0.033-0.038 0.067c-0.021 0.037-0.048 0.072-0.059 0.078-0.037 0.020-0.135 0.024-0.214 0.008zM8.894 14.29c-0.052-0.035-0.058-0.043-0.061-0.090-0.004-0.049-0.001-0.055 0.062-0.114 0.058-0.055 0.073-0.063 0.131-0.070 0.085-0.011 0.13 0 0.159 0.037 0.042 0.054 0.025 0.118-0.049 0.188-0.049 0.046-0.082 0.063-0.121 0.063-0.016 0-0.033 0.005-0.037 0.012-0.011 0.018-0.022 0.015-0.084-0.027zM18.953 13.987c-0.133-0.007-0.16-0.015-0.2-0.059-0.023-0.025-0.023-0.025 0.018-0.065 0.035-0.035 0.065-0.047 0.222-0.089 0.143-0.039 0.187-0.047 0.207-0.037 0.014 0.007 0.054 0.016 0.090 0.020s0.101 0.015 0.145 0.025c0.069 0.016 0.085 0.025 0.117 0.066l0.038 0.047-0.109 0.103-0.198-0.002c-0.109-0.001-0.257-0.005-0.328-0.009zM14.255 13.939c-0.214-0.028-0.51-0.080-0.552-0.097-0.041-0.016-0.056-0.043-0.056-0.098 0-0.060 0.039-0.096 0.115-0.106 0.066-0.009 0.169 0.002 0.169 0.019 0 0.006 0.139 0.011 0.312 0.011 0.291 0 0.317 0.002 0.381 0.025 0.165 0.062 0.177 0.169 0.026 0.234-0.083 0.036-0.193 0.039-0.394 0.013zM22.081 20.156c0.019-0.014 0.007-0.019-0.1-0.042-0.067-0.014-0.123-0.024-0.126-0.021s0.014 0.021 0.038 0.042c0.036 0.031 0.051 0.037 0.104 0.037 0.034 0 0.072-0.007 0.084-0.016zM18.988 20.118c0.013-0.009 0.020-0.020 0.016-0.024-0.015-0.015-0.186-0.073-0.186-0.063 0 0.006 0.019 0.032 0.043 0.058 0.046 0.051 0.087 0.060 0.128 0.029zM19.193 19.722c0.020-0.007 0.037-0.017 0.037-0.022s-0.057-0.021-0.127-0.036c-0.070-0.015-0.156-0.034-0.191-0.043-0.088-0.022-0.104-0.021-0.070 0.006 0.107 0.084 0.263 0.126 0.351 0.095zM13.176 18.245c0.014-0.026-0.043-0.103-0.078-0.103-0.025 0-0.078 0.044-0.078 0.065 0 0.007 0.016 0.039 0.036 0.070l0.036 0.057 0.036-0.034c0.020-0.019 0.041-0.043 0.047-0.055zM4.658 12.846c0.122-0.010 0.138-0.019 0.085-0.044-0.062-0.029-0.125-0.025-0.183 0.013-0.054 0.035-0.065 0.057-0.023 0.047 0.015-0.004 0.069-0.010 0.121-0.015zM5.076 12.557l0.040-0.024-0.134-0.046c-0.074-0.026-0.136-0.046-0.138-0.046-0.014 0 0.067 0.089 0.102 0.113 0.051 0.035 0.078 0.036 0.129 0.004zM5.098 12.134c0.045-0.023 0.117-0.091 0.107-0.101-0.004-0.004-0.126 0.036-0.282 0.095-0.015 0.006-0.015 0.008 0 0.018 0.030 0.019 0.128 0.013 0.174-0.011zM6.017 11.931c0.022-0.025 0.022-0.025-0.013-0.053-0.019-0.015-0.068-0.045-0.109-0.065-0.064-0.032-0.080-0.036-0.113-0.026l-0.038 0.011 0.095 0.048c0.064 0.032 0.1 0.058 0.109 0.079 0.017 0.037 0.039 0.039 0.069 0.006zM6.128 11.641c0.058-0.063 0.050-0.074-0.033-0.046-0.092 0.031-0.142 0.025-0.186-0.023-0.037-0.041-0.074-0.051-0.118-0.034-0.040 0.015-0.014 0.042 0.096 0.098 0.149 0.076 0.174 0.076 0.24 0.004zM7.043 11.65c-0.016-0.025-0.221-0.133-0.232-0.122-0.014 0.014 0.039 0.080 0.090 0.111 0.037 0.023 0.155 0.032 0.143 0.011zM24.759 11.648c0.038-0.020 0.091-0.071 0.091-0.089 0-0.021-0.019-0.020-0.104 0.009-0.056 0.019-0.073 0.030-0.073 0.048 0 0.013 0.012 0.028 0.027 0.034 0.035 0.014 0.030 0.014 0.060-0.001zM8.431 10.747c0.029-0.022 0.083-0.051 0.12-0.065 0.121-0.045 0.238-0.108 0.223-0.123-0.024-0.024-0.209 0.033-0.378 0.117-0.087 0.043-0.153 0.082-0.148 0.087 0.009 0.009 0.051 0.018 0.105 0.021 0.014 0.001 0.048-0.016 0.077-0.038zM9.689 10.608c0.015-0.014 0.027-0.032 0.027-0.039s-0.051-0.021-0.118-0.031l-0.118-0.018 0.032 0.034c0.041 0.044 0.097 0.079 0.126 0.079 0.013 0 0.035-0.011 0.050-0.026zM13.928 10.509c0.014-0.010 0.026-0.023 0.026-0.029s-0.049-0.027-0.109-0.048c-0.060-0.021-0.117-0.040-0.126-0.044-0.030-0.012 0.035 0.068 0.085 0.104 0.053 0.039 0.086 0.043 0.124 0.016zM12.857 10.374c0.022-0.012 0.090-0.115 0.081-0.123-0.007-0.006-0.21 0.116-0.211 0.126-0.001 0.013 0.104 0.011 0.13-0.003zM14.029 10.139c0.013-0.013 0.021-0.026 0.018-0.030-0.011-0.011-0.27-0.086-0.27-0.079 0 0.016 0.076 0.099 0.111 0.121 0.044 0.028 0.106 0.022 0.141-0.013zM20.020 10.066c0.020-0.007 0.037-0.017 0.037-0.021s-0.045-0.030-0.1-0.058c-0.055-0.027-0.1-0.045-0.1-0.040 0 0.021 0.073 0.109 0.098 0.12 0.014 0.006 0.027 0.011 0.027 0.011s0.018-0.005 0.038-0.012zM14.057 9.832c0.009-0.005-0.036-0.043-0.118-0.1-0.073-0.051-0.139-0.095-0.148-0.098-0.028-0.011-0.015 0.024 0.032 0.086 0.088 0.117 0.16 0.151 0.233 0.112zM14.19 9.766c0.060-0.031 0.076-0.088 0.037-0.137-0.020-0.025-0.024-0.026-0.043-0.010-0.038 0.032-0.088 0.109-0.088 0.137 0 0.022 0.006 0.028 0.030 0.028 0.017 0 0.046-0.008 0.065-0.018z"></path>
</svg>
