<!-- Generated by IcoMoon.io -->
<svg version="1.1" xmlns="http://www.w3.org/2000/svg" width="32" height="32" viewBox="0 0 32 32">
<title>unbound_power</title>
<path d="M1.499 30.788c0.018-0.116 0.067-0.281 0.109-0.364s0.077-0.203 0.077-0.264c0-0.061 0.102-0.36 0.226-0.664s0.226-0.593 0.227-0.64c0.001-0.104 0.142-0.521 0.248-0.73 0.041-0.082 0.090-0.263 0.109-0.403s0.124-0.521 0.233-0.847c0.109-0.326 0.199-0.662 0.2-0.747s0.036-0.237 0.079-0.339c0.176-0.419 0.263-1.006 0.299-2.007 0.032-0.884 0.051-1.043 0.137-1.121 0.094-0.085 0.12-0.064 0.409 0.324 0.17 0.228 0.466 0.58 0.657 0.782 0.215 0.227 0.437 0.54 0.578 0.819 0.315 0.621 0.609 1.12 1.148 1.949 0.253 0.388 0.536 0.872 0.63 1.073 0.172 0.369 0.683 1.124 0.975 1.441 0.17 0.184 0.725 1.018 0.874 1.312 0.106 0.21 0.14 0.191-0.531 0.301-0.833 0.137-0.755 0.144-0.948-0.090-0.096-0.117-0.284-0.482-0.418-0.811-0.182-0.448-0.419-0.862-0.944-1.644-0.386-0.575-0.833-1.21-0.994-1.412s-0.358-0.466-0.439-0.586l-0.148-0.219-0.063 0.247c-0.096 0.379-0.225 0.715-0.453 1.179-0.114 0.233-0.238 0.592-0.274 0.798-0.071 0.401-0.594 1.772-0.828 2.172-0.089 0.152-0.142 0.329-0.142 0.472v0.23h-1.066zM11.417 30.337l-0.353-0.020-0.001-0.887c-0.001-0.549-0.035-1.081-0.090-1.396-0.049-0.28-0.108-0.915-0.131-1.412-0.034-0.74-0.065-0.96-0.169-1.215-0.421-1.036-0.412-0.996-0.453-1.949-0.021-0.497-0.058-0.945-0.081-0.995-0.055-0.118 0.027-0.14 0.924-0.247 0.388-0.046 0.986-0.163 1.328-0.26 0.782-0.22 1.416-0.345 2.853-0.559 0.171-0.026 0.578-0.116 0.904-0.201s0.733-0.187 0.904-0.226c0.171-0.039 0.412-0.111 0.537-0.159 0.322-0.125 0.795-0.122 0.849 0.006 0.069 0.165 0.148 0.544 0.139 0.664-0.005 0.062-0.014 0.761-0.020 1.554s-0.033 1.741-0.060 2.109c-0.048 0.663 0.008 1.229 0.203 2.072 0.079 0.338 0.149 1.15 0.156 1.79l0.005 0.519-0.297 0.083c-0.163 0.046-0.422 0.101-0.575 0.122s-0.441 0.089-0.639 0.15c-0.585 0.181-0.596 0.173-0.673-0.489-0.036-0.311-0.068-1.026-0.071-1.59-0.004-0.749-0.035-1.204-0.118-1.686-0.134-0.786-0.143-1.56-0.028-2.484 0.111-0.889 0.123-0.821-0.128-0.735-0.117 0.040-0.479 0.101-0.805 0.136s-0.809 0.087-1.073 0.117c-0.264 0.029-0.95 0.069-1.525 0.087s-1.052 0.041-1.060 0.049c-0.053 0.053 0.119 1.133 0.22 1.389 0.098 0.247 0.132 0.489 0.165 1.186 0.023 0.482 0.080 1.035 0.127 1.231s0.103 0.78 0.125 1.299c0.022 0.52 0.074 1.097 0.117 1.284s0.078 0.422 0.079 0.523l0.001 0.184-0.466-0.011c-0.256-0.006-0.625-0.020-0.819-0.031zM22.731 30.266c-0.218-0.059-0.412-0.108-0.432-0.11s0.053-0.251 0.162-0.554 0.218-0.627 0.243-0.72c0.025-0.093 0.070-0.246 0.101-0.339 0.159-0.483 0.237-0.759 0.237-0.838 0-0.049 0.114-0.357 0.254-0.684s0.254-0.642 0.254-0.699c0-0.057 0.035-0.216 0.079-0.354s0.121-0.403 0.174-0.589c0.052-0.186 0.131-0.428 0.175-0.537s0.208-0.655 0.363-1.215c0.365-1.315 0.429-1.525 0.667-2.203 0.109-0.311 0.213-0.692 0.232-0.847 0.032-0.268 0.043-0.282 0.201-0.282 0.145 0 0.192 0.044 0.351 0.326 0.101 0.18 0.308 0.472 0.461 0.65s0.346 0.438 0.43 0.578c0.276 0.458 0.424 0.645 0.761 0.96 0.262 0.245 0.41 0.46 0.705 1.022 0.206 0.391 0.374 0.75 0.374 0.797s0.068 0.185 0.15 0.306c0.083 0.121 0.182 0.321 0.221 0.446s0.158 0.417 0.265 0.65c0.107 0.233 0.212 0.5 0.234 0.593 0.048 0.202 0.298 0.846 0.405 1.045 0.042 0.078 0.114 0.256 0.161 0.395 0.18 0.54 0.266 0.753 0.449 1.119 0.104 0.208 0.208 0.439 0.231 0.513 0.040 0.129 0.033 0.133-0.176 0.099-0.12-0.019-0.574-0.058-1.009-0.086-0.503-0.032-0.849-0.082-0.951-0.135-0.151-0.080-0.378-0.542-0.741-1.508-0.282-0.751-1.6-3.211-1.671-3.119-0.017 0.022-0.066 0.142-0.107 0.266s-0.143 0.328-0.225 0.452c-0.082 0.124-0.182 0.365-0.221 0.535s-0.327 0.806-0.639 1.412c-0.651 1.263-0.813 1.679-0.868 2.229-0.022 0.215-0.052 0.425-0.068 0.466-0.043 0.112-0.757 0.090-1.231-0.038zM9.663 19.358c-0.323-0.219-0.398-0.245-0.819-0.281-0.598-0.052-0.661-0.080-0.661-0.3 0-0.098-0.049-0.33-0.109-0.517s-0.138-0.466-0.172-0.621c-0.035-0.155-0.125-0.403-0.202-0.55-0.126-0.243-0.139-0.333-0.139-0.993 0-0.819 0.085-1.207 0.335-1.532 0.144-0.187 0.265-0.467 0.495-1.147 0.086-0.254 0.105-0.271 0.402-0.357 0.356-0.103 0.643-0.357 1.536-1.356 0.805-0.9 2.345-2.496 2.765-2.865 1.121-0.986 1.165-1.041 1.249-1.554 0.033-0.202 0.129-0.442 0.265-0.66 0.208-0.335 0.213-0.355 0.232-0.973 0.017-0.552 0.004-0.665-0.104-0.904-0.268-0.594-0.338-0.876-0.339-1.37-0.001-0.361-0.030-0.549-0.113-0.732-0.134-0.295-0.138-0.384-0.027-0.649 0.047-0.112 0.085-0.29 0.085-0.395s0.038-0.285 0.086-0.397c0.083-0.198 0.094-0.205 0.381-0.204 0.493 0.001 0.55 0.033 0.55 0.306 0 0.233 0.197 0.634 0.508 1.036 0.364 0.47 0.396 0.558 0.396 1.088 0 0.511 0.006 0.536 0.375 1.468 0.043 0.109 0.103 0.335 0.134 0.502 0.076 0.414 0.072 2.698-0.006 3.061-0.078 0.362-0.352 0.685-0.663 0.778-0.297 0.089-0.648 0.48-0.892 0.995l-0.196 0.413-0.288 0.038c-0.381 0.051-0.522 0.131-0.892 0.513-0.171 0.176-0.425 0.399-0.565 0.495s-0.407 0.313-0.593 0.481c-0.186 0.168-0.47 0.39-0.629 0.493-0.464 0.299-1.413 1.275-1.461 1.503-0.022 0.105-0.086 0.306-0.142 0.446-0.097 0.244-0.207 0.72-0.331 1.441-0.032 0.186-0.098 0.463-0.145 0.614l-0.087 0.275 0.482-0.025c0.265-0.014 0.496-0.004 0.512 0.022 0.062 0.101 0.478 0.272 0.662 0.272 0.117 0 0.397-0.103 0.712-0.262 0.589-0.297 0.94-0.366 1.141-0.225 0.102 0.072 0.272 0.091 0.782 0.091 0.575-0 0.687-0.017 0.954-0.141 0.18-0.084 0.404-0.141 0.554-0.141 0.138 0 0.326-0.038 0.416-0.085s0.312-0.109 0.492-0.139c0.721-0.118 1.308-0.248 1.697-0.376 0.226-0.074 0.503-0.134 0.617-0.134 0.218 0 0.685-0.121 1.064-0.275 0.298-0.121 0.695-0.489 0.831-0.771 0.060-0.124 0.171-0.339 0.246-0.478 0.189-0.348 0.186-0.817-0.008-1.337-0.080-0.213-0.207-0.453-0.282-0.532-0.161-0.169-0.178-0.248-0.038-0.176 0.054 0.028 0.277 0.065 0.494 0.083 0.603 0.049 0.856 0.188 1.158 0.638 0.14 0.208 0.374 0.479 0.521 0.603 0.161 0.136 0.293 0.306 0.333 0.43 0.037 0.113 0.114 0.293 0.172 0.402 0.116 0.219 0.134 0.34 0.048 0.34-0.031 0-0.199 0.286-0.373 0.636s-0.377 0.75-0.45 0.89c-0.073 0.14-0.147 0.323-0.164 0.408-0.022 0.108-0.11 0.199-0.299 0.307-0.147 0.085-0.34 0.213-0.427 0.285-0.145 0.118-0.217 0.131-0.763 0.131-0.781 0-0.936 0.059-2.015 0.766-0.155 0.102-0.384 0.228-0.508 0.281s-0.315 0.135-0.424 0.182c-0.373 0.161-0.763 0.239-1.204 0.239-0.341 0-0.508 0.031-0.734 0.133-0.64 0.289-0.865 0.323-2.312 0.355-1.005 0.022-1.439 0.053-1.625 0.116-0.167 0.056-0.576 0.095-1.186 0.114l-0.932 0.029z"></path>
</svg>
