<!-- Generated by IcoMoon.io -->
<svg version="1.1" xmlns="http://www.w3.org/2000/svg" width="32" height="32" viewBox="0 0 32 32">
<title>undo</title>
<path fill="#394852" d="M18 9.506c-1.938 0-3.903 0.686-5.378 2.156s-2.422 3.706-2.422 6.644v1.866l-2.656-2.453-1.088 1.178 4 3.691 0.544-0.587 0.544 0.587 4-3.691-1.088-1.178-2.656 2.453v-1.866c0-2.601 0.804-4.364 1.953-5.509s2.684-1.691 4.247-1.691c1.562 0 3.097 0.545 4.247 1.691s1.953 2.909 1.953 5.509h1.6c0-2.938-0.946-5.171-2.422-6.641s-3.441-2.159-5.378-2.159z"></path>
</svg>
