<!-- Generated by IcoMoon.io -->
<svg version="1.1" xmlns="http://www.w3.org/2000/svg" width="32" height="32" viewBox="0 0 32 32">
<title>unnatural_disturbances</title>
<path d="M7.686 15.951c0.319 0.257 0.923 0.522 1.34 0.59s1.193 0.284 1.724 0.482c0.938 0.35 0.947 0.362 0.327 0.434-0.351 0.041-0.867 0.303-1.146 0.582s-0.909 0.599-1.399 0.709l-0.89 0.2 0.911 0.023c0.677 0.017 1.034-0.1 1.388-0.454 0.408-0.408 0.712-0.478 2.106-0.482 1.685-0.006 2.005 0.132 2.512 1.078 0.32 0.597-0.325 2.893-1.019 3.632-0.354 0.377-0.41 0.516-0.17 0.424 0.525-0.201 0.926-0.919 1.232-2.201 0.589-2.473 1.236-0.513 1.506 4.566 0.113 2.123 0.208 4.221 0.211 4.663 0.006 0.788 0.022 0.804 0.828 0.804 0.452 0 0.872-0.050 0.933-0.111s-0.018-0.607-0.175-1.213c-0.157-0.606-0.448-2.246-0.646-3.644-0.285-2.013-0.306-2.641-0.103-3.021 0.141-0.264 0.286-1.075 0.322-1.802 0.083-1.669 0.912-3.432 2.089-4.439 0.54-0.462 0.754-0.768 0.577-0.827-0.361-0.12 0.794-1.679 1.352-1.825 0.356-0.093 0.36-0.13 0.046-0.444s-0.304-0.368 0.115-0.646c0.252-0.167 0.455-0.509 0.451-0.76-0.006-0.413-0.027-0.421-0.225-0.081-0.387 0.665-0.692 0.433-0.553-0.421 0.096-0.59 0.393-1.034 1.145-1.715 1.023-0.926 1.355-1.099 1.355-0.705 0 0.118 0.145 0.214 0.322 0.214s0.322-0.096 0.322-0.214c0-0.118-0.145-0.214-0.322-0.214-0.534 0-0.366-0.858 0.322-1.641 0.354-0.403 0.643-0.826 0.643-0.94 0-0.339-0.432-0.235-0.575 0.138-0.073 0.19-0.359 0.59-0.636 0.889s-0.504 0.661-0.504 0.803c0 0.143-0.506 0.739-1.126 1.326-1.652 1.566-1.762 1.724-1.457 2.093 0.149 0.18 0.183 0.428 0.080 0.59-0.242 0.38-0.928 0.41-0.928 0.041 0-0.164 0.121-0.301 0.268-0.305 0.164-0.004 0.122-0.118-0.107-0.292-0.206-0.157-0.375-0.481-0.375-0.721s-0.145-0.491-0.322-0.559c-0.407-0.156-0.409 0.145-0.006 0.925 0.279 0.539 0.279 0.626 0 0.733-0.353 0.136-0.437 0.778-0.102 0.778 0.269 0 0.276 0.732 0.015 1.593-0.11 0.362-0.32 1.073-0.467 1.58-0.262 0.906-0.533 1.273-0.767 1.039-0.162-0.162 0.575-3.115 0.814-3.262 0.262-0.162 0.242-0.95-0.024-0.95-0.118 0-0.214-0.174-0.214-0.386s-0.084-0.478-0.187-0.59c-0.103-0.112-0.245-0.454-0.317-0.759-0.104-0.443-0.024-0.613 0.394-0.836 0.288-0.154 0.479-0.354 0.424-0.443-0.192-0.31 0.129-0.755 0.817-1.134 0.673-0.371 2.052-2.069 1.68-2.069-0.103 0-0.532 0.422-0.955 0.938s-0.953 0.986-1.179 1.045c-0.375 0.098-0.424-0.060-0.559-1.781-0.095-1.214-0.066-2.042 0.082-2.318 0.278-0.52 0.303-1.529 0.038-1.529-0.38 0-0.552 2.044-0.411 4.87 0.052 1.045-0.014 1.413-0.308 1.708-0.357 0.358-0.375 0.319-0.375-0.814 0-0.654-0.198-1.793-0.44-2.53-0.334-1.019-0.381-1.411-0.196-1.634 0.254-0.306 0.116-0.742-0.234-0.742-0.111 0-0.202 0.392-0.202 0.87 0 0.526-0.085 0.818-0.214 0.738-0.118-0.073-0.214-0.588-0.214-1.144s-0.145-1.218-0.321-1.471c-0.916-1.308-4.429-2.452-5.467-1.78-0.231 0.149-0.010 0.209 0.781 0.211 0.8 0.002 1.138 0.095 1.231 0.338 0.071 0.184 0.231 0.272 0.357 0.194 0.414-0.256 1.226 0.101 2.115 0.93l0.876 0.817v3.272l-1.499-1.488c-0.825-0.818-1.646-1.488-1.825-1.488s-0.515-0.118-0.746-0.263c-0.332-0.207-0.476-0.207-0.683 0s-0.193 0.263 0.068 0.263c0.182 0 0.55 0.426 0.817 0.946s0.813 1.263 1.213 1.65c0.523 0.507 0.726 0.893 0.726 1.379 0 0.371 0.135 0.956 0.3 1.298s0.365 0.864 0.446 1.159c0.128 0.47 0.045 0.43-0.675-0.327-0.451-0.474-1.039-1.14-1.305-1.479-0.388-0.493-0.698-0.637-1.554-0.719-0.712-0.068-1.070-0.022-1.070 0.139 0 0.137 0.356 0.242 0.824 0.242 0.829 0 1.327 0.35 1.602 1.126 0.073 0.206 0.233 0.375 0.354 0.375s0.221 0.113 0.221 0.25c0 0.138 0.144 0.403 0.32 0.59s0.625 0.66 0.997 1.052c0.664 0.699 0.672 0.732 0.416 1.715-0.144 0.551-0.314 1.269-0.379 1.595-0.158 0.796-0.35 0.872-0.931 0.368-0.269-0.233-0.573-0.424-0.676-0.424s-0.276-0.234-0.385-0.52c-0.124-0.326-0.602-0.705-1.281-1.017-0.596-0.273-1.083-0.6-1.083-0.726s-0.193-0.628-0.429-1.117c-0.236-0.488-0.429-1.021-0.429-1.184s-0.069-0.366-0.154-0.451c-0.085-0.085-0.165-0.318-0.178-0.518-0.116-1.813-0.149-1.897-0.311-0.793-0.108 0.741-0.062 1.337 0.15 1.93 0.543 1.52 0.561 1.647 0.255 1.841-0.164 0.104-0.54 0.197-0.835 0.207-0.492 0.017-0.501 0.033-0.107 0.203 0.236 0.101 0.739 0.191 1.117 0.199 0.613 0.013 0.716 0.109 0.945 0.873 0.141 0.472 0.342 0.858 0.447 0.858s0.162 0.164 0.127 0.365c-0.058 0.335 0.256 0.511 1.485 0.834 0.284 0.075 0.616 1.103 0.42 1.3-0.066 0.066-0.392-0.071-0.723-0.306s-1.133-0.497-1.781-0.582c-0.649-0.086-1.324-0.283-1.501-0.438-0.318-0.278-1.501-0.661-1.501-0.486 0 0.050 0.261 0.301 0.581 0.558zM11.261 13.848c0.307 0 0.65 0.211 0.858 0.528 0.671 1.024 0.31 1.281-0.746 0.529-0.76-0.541-0.815-1.057-0.111-1.057zM13.747 5.404c2.112 2.202 2.774 3.54 2.075 4.193-0.219 0.204-0.236 0.437-0.071 0.973 0.119 0.387 0.158 0.762 0.087 0.833-0.251 0.251-0.586-0.162-0.593-0.731-0.004-0.317-0.148-0.764-0.322-0.993s-0.324-0.808-0.336-1.286c-0.030-1.214-0.265-1.942-0.627-1.942-0.169 0-0.534-0.41-0.81-0.911s-0.616-0.919-0.755-0.928c-0.147-0.010-0.127-0.066 0.048-0.136 0.179-0.071 0.705 0.303 1.304 0.928zM13.52 16.412c0.227 0.121 0.611 0.486 0.853 0.812s0.572 0.736 0.732 0.913c0.16 0.177 0.358 0.504 0.438 0.727 0.131 0.362 0.106 0.373-0.232 0.107-0.209-0.164-0.507-0.419-0.663-0.566s-0.37-0.268-0.475-0.268c-0.368 0-1.065-0.944-1.065-1.442 0-0.43 0.060-0.471 0.412-0.283zM14.618 15.088c0.377-1.356 0.586-1.096 0.556 0.69-0.016 0.941-0.058 1.712-0.093 1.713-0.068 0.002-0.665-1.319-0.677-1.499-0.004-0.059 0.092-0.466 0.214-0.903zM15.672 16.213c0.11-0.173 0.243-0.27 0.296-0.214 0.218 0.229 0.785 1.791 0.785 2.164 0 0.691-0.569 0.441-0.915-0.401-0.402-0.98-0.42-1.146-0.165-1.548zM15.684 13.634c0.188-0.286 0.234-0.286 0.421 0 0.115 0.177 0.172 0.466 0.127 0.643s-0.142 0.591-0.216 0.92c-0.073 0.329-0.227 0.54-0.342 0.47-0.27-0.167-0.263-1.617 0.010-2.033zM16.463 6.13c0.018 0 0.241 0.402 0.497 0.893 0.667 1.279 0.737 4.090 0.114 4.55-0.402 0.297-0.436 0.274-0.54-0.366-0.096-0.59-0.159-5.077-0.072-5.077zM17.206 12.043l0.454-0.577 0.308 0.594c0.352 0.678 0.426 2.966 0.109 3.353-0.116 0.142-0.287 0.836-0.38 1.544s-0.21 1.093-0.261 0.858c-0.051-0.236-0.225-0.619-0.388-0.852-0.199-0.285-0.296-1.064-0.296-2.383 0-1.671 0.067-2.045 0.454-2.537zM20.087 13.196c0.274-0.227 0.392-0.216 0.674 0.066 0.312 0.312 0.311 0.371-0.011 0.694-0.194 0.194-0.352 0.442-0.352 0.551s-0.145 0.199-0.322 0.199c-0.434 0-0.426-1.147 0.011-1.51zM7.435 13.848c0.064 0 0.323-0.193 0.576-0.429 0.34-0.316 0.377-0.429 0.141-0.429-0.176 0-0.435 0.116-0.576 0.257-0.266 0.266-0.345 0.6-0.141 0.6zM22.756 14.013c0.413 0 0.582-0.044 0.375-0.098s-0.544-0.054-0.75 0-0.038 0.098 0.375 0.098zM22.513 10.846c0.209-0.413 0.348-0.792 0.309-0.842-0.142-0.184-0.696 0.747-0.692 1.164 0.002 0.311 0.108 0.222 0.383-0.322z"></path>
</svg>
