<!-- Generated by IcoMoon.io -->
<svg version="1.1" xmlns="http://www.w3.org/2000/svg" width="33" height="32" viewBox="0 0 33 32">
<title>unspeakable_fate</title>
<path d="M30.63 15.874c0.003-0.184-0.072-0.373-0.129-0.55-0.128-0.4-0.256-0.795-0.428-1.179-0.148-0.332-0.266-0.699-0.469-0.999-0.216-0.32-0.39-0.664-0.616-0.98-0.107-0.149-0.215-0.296-0.334-0.437-0.158-0.187-0.269-0.361-0.397-0.562-0.19-0.296-0.46-0.537-0.672-0.817-0.157-0.208-0.328-0.395-0.5-0.585-0.19-0.209-0.422-0.404-0.581-0.638-0.083-0.124-0.138-0.208-0.244-0.318-0.076-0.078-0.092-0.199-0.157-0.27-0.067-0.074-0.114-0.085-0.164-0.171-0.037-0.063-0.073-0.133-0.116-0.198-0.236-0.356-0.446-0.732-0.689-1.090-0.26-0.384-0.54-0.731-0.845-1.082-0.145-0.167-0.311-0.297-0.448-0.473-0.102-0.131-0.203-0.263-0.303-0.394-0.309-0.403-0.69-0.673-1.121-0.944-0.929-0.583-1.746-1.309-2.653-1.934-0.289-0.2-0.528-0.429-0.822-0.627-0.299-0.2-0.586-0.413-0.873-0.626-0.168 0.154-0.366 0.252-0.542 0.394-0.161 0.131-0.298 0.289-0.451 0.428-0.457 0.416-0.889 0.789-1.194 1.338-0.104 0.189-0.242 0.449-0.377 0.616-0.075 0.094-0.206 0.151-0.141 0.279 0.018 0.032 0.072 0.057 0.097 0.087 0.078 0.091 0.108 0.161 0.207 0.242 0.167 0.136 0.339 0.322 0.541 0.401 0.196-0.185 0.385-0.346 0.6-0.511 0.206-0.158 0.334-0.389 0.477-0.602 0.093-0.138 0.199-0.267 0.293-0.405 0.087-0.128 0.129-0.261 0.226-0.384 0.168-0.212 0.197-0.12 0.39 0.005 0.056 0.037 0.115 0.060 0.17 0.097 0.082 0.055 0.18 0.105 0.252 0.173 0.032 0.061 0.071 0.118 0.114 0.172 0.037 0.037 0.084 0.057 0.135 0.066 0.105 0.063 0.228 0.12 0.264 0.234 0.047 0.15 0.073 0.295 0.072 0.456-0.003 0.379-0.041 0.748-0.103 1.123-0.027 0.165-0.059 0.33-0.089 0.495-0.018 0.099-0.089 0.281-0.092 0.377-0.003 0.128 0.133 0.184 0.228 0.256 0.202 0.152 0.408 0.283 0.627 0.41 0.44 0.255 0.873 0.478 1.254 0.817 0.421 0.375 0.838 0.746 1.232 1.149 0.228 0.233 0.481 0.429 0.701 0.672 0.546 0.602 0.991 1.289 1.559 1.873 0.548 0.563 1.078 1.112 1.593 1.705 0.201 0.226 0.409 0.446 0.624 0.66 0.202 0.236 0.395 0.479 0.58 0.73 0.268 0.343 0.477 0.681 0.702 1.049 0.196 0.321 0.35 0.656 0.518 0.992 0.25 0.502 0.475 0.967 0.636 1.506 0.226 0.76 0.48 1.495 0.644 2.273 0.15 0.714 0.244 1.435 0.412 2.146-0.005-0.206-0.046-0.404-0.060-0.609-0.032-0.452 0.041-0.919 0.054-1.373 0.018-0.605 0.208-1.195 0.236-1.795 0.014-0.289 0.077-0.573 0.106-0.861 0.027-0.272 0.014-0.543 0.041-0.815 0.027-0.252 0.027-0.499 0.027-0.752 0.002-0.097 0.027-0.213 0.009-0.307-0.003-0.116-0.063-0.166-0.18-0.149-0.233-0.049-0.469-0.076-0.709-0.079z"></path>
<path d="M14.802 4.618c0.072 0.009 0.148 0.153 0.207 0.201 0.060 0.049 0.103 0.101 0.157 0.151 0.139 0.128 0.328 0.236 0.401 0.423 0.083 0.213 0.009 0.583-0.048 0.807-0.052 0.202-0.060 0.39-0.116 0.598-0.085 0.311-0.127 0.636-0.13 0.958-0.001 0.152-0.053 0.287-0.063 0.438-0.014 0.178 0.003 0.362 0.003 0.54v0.97c0 0.433 0.060 0.851 0.059 1.282-0.002 0.525 0.049 1.043 0.057 1.566 0.003 0.233 0.041 0.461 0.055 0.693 0.014 0.271-0.003 0.541 0.018 0.812 0.046 0.561 0.046 1.116 0.046 1.678v0.63c0 0.299 0.041 0.64-0.014 0.936-0.059 0.327-0.046 0.646-0.046 0.98 0 0.707-0.003 1.386-0.125 2.078-0.046 0.257-0.088 0.535-0.164 0.783-0.159 0.522-0.527 1.021-0.885 1.428-0.423 0.483-0.838 1.065-1.378 1.429-0.277 0.186-0.606 0.313-0.909 0.451-0.444 0.202-0.935 0.28-1.397 0.437-0.376 0.128-0.771 0.202-1.143 0.333-0.306 0.108-0.606 0.266-0.905 0.396-0.278 0.121-0.515 0.301-0.79 0.424-0.412 0.186-0.843 0.346-1.261 0.516-0.396 0.162-0.75 0.382-1.133 0.564-0.246 0.117-0.484 0.192-0.714 0.346-0.219 0.147-0.455 0.264-0.699 0.365-0.281 0.116-0.507 0.252-0.756 0.431-0.168 0.12-0.34 0.201-0.48 0.358-0.118 0.132-0.216 0.267-0.311 0.412-0.088 0.136-0.239 0.342-0.373 0.428-0.22 0.14-0.631 0.086-0.778-0.116-0.068-0.093-0.090-0.179-0.1-0.286-0.027-0.276-0.093-0.54-0.055-0.82 0.023-0.166 0.037-0.36 0.12-0.508 0.109-0.197 0.253-0.366 0.387-0.545 0.423-0.568 1.012-0.765 1.631-1.057 0.429-0.203 0.851-0.404 1.29-0.582 0.493-0.199 0.948-0.441 1.452-0.615 0.301-0.103 0.6-0.222 0.894-0.344 0.272-0.112 0.494-0.26 0.755-0.39 0.565-0.281 1.182-0.467 1.765-0.707 0.297-0.122 0.598-0.246 0.908-0.332 0.733-0.203 1.449-0.631 2.033-1.112 0.62-0.51 0.988-1.265 1.234-2.013 0.090-0.274 0.109-0.575 0.189-0.854 0.106-0.368 0.156-0.766 0.176-1.148 0.027-0.51 0.111-1.010 0.119-1.524 0.009-0.631 0.027-1.274-0.046-1.901-0.141-1.212-0.199-2.432-0.339-3.644-0.191-1.661-0.258-3.324-0.1-4.987 0.037-0.378 0.051-0.695 0.423-0.896 0.149-0.081 0.28-0.146 0.436-0.2 0.097-0.032 0.46-0.171 0.443-0.267z"></path>
<path d="M12.984 18.453c0.071 0.014 0.206 0.198 0.23 0.269 0.037 0.105 0.002 0.264 0.005 0.376 0.003 0.15-0.014 0.172-0.152 0.227-0.132 0.053-0.236 0.065-0.376 0.066-0.139 0.001-0.25-0.048-0.386-0.057-0.167-0.009-0.345-0.087-0.508-0.132-0.376-0.103-0.725-0.261-1.097-0.383-0.532-0.174-1.068-0.37-1.516-0.72-0.204-0.159-0.304-0.291-0.365-0.545-0.041-0.18-0.118-0.452-0.059-0.635 0.032-0.098 0.127-0.198 0.208-0.255 0.046-0.032 0.099-0.060 0.147-0.088 0.098-0.058 0.092-0.050 0.202-0.032 0.491 0.090 0.993 0.357 1.44 0.581 0.381 0.192 0.827 0.369 1.16 0.635 0.128 0.102 0.212 0.253 0.307 0.383 0.075 0.103 0.215 0.236 0.76 0.308z"></path>
<path d="M5.305 27.657c0.254 0.092 0.447 0.291 0.688 0.412 0.253 0.127 0.526 0.22 0.779 0.349 0.346 0.175 0.68 0.378 1.010 0.573 0.26 0.154 0.434 0.32 0.455 0.631 0.009 0.117 0.087 0.203 0.061 0.324-0.014 0.072-0.055 0.118-0.064 0.196-0.009 0.095-0.001 0.175-0.027 0.271-0.037 0.141-0.032 0.272-0.074 0.41-0.061 0.203-0.134 0.177-0.336 0.176-0.398-0.001-0.862-0.067-1.199-0.291-0.237-0.158-0.516-0.236-0.762-0.382-0.122-0.072-0.243-0.102-0.37-0.158-0.124-0.055-0.224-0.166-0.335-0.239-0.159-0.103-0.307-0.231-0.441-0.367-0.067-0.069-0.137-0.135-0.204-0.204-0.105-0.108-0.159-0.236-0.249-0.356-0.091-0.121-0.27-0.295-0.223-0.469 0.041-0.152 0.144-0.283 0.264-0.382 0.159-0.131 0.247-0.172 0.441-0.206 0.096-0.018 0.176-0.037 0.271-0.051 0.090-0.009 0.156-0.058 0.245-0.072 0.003-0.018 0.009-0.032 0.070-0.165z"></path>
</svg>
