<!-- Generated by IcoMoon.io -->
<svg version="1.1" xmlns="http://www.w3.org/2000/svg" width="21" height="32" viewBox="0 0 21 32">
<title>venice1</title>
<path d="M14.401 4.25c-1.501-0.914-2.338-2.154-2.795-3.199-0.245-0.559-0.69-1.011-1.059-1.051-0.368 0.039-0.792 0.492-1.037 1.051-0.458 1.045-1.316 2.285-2.817 3.199s-1.763 1.632-1.829 2.481c-0.065 0.849 0.653 1.305 0.653 1.305s2.154-0.737 5.029-0.737c2.874 0 5.028 0.737 5.028 0.737s0.72-0.456 0.655-1.305c-0.066-0.849-0.328-1.567-1.829-2.481z"></path>
<path d="M10.547 7.552c-2.177 0-3.937 0.422-4.664 0.627-0.042 0.111-0.072 0.228-0.072 0.353 0 0.572 0.467 1.039 1.037 1.039h7.399c0.57 0 1.037-0.467 1.037-1.039 0-0.125-0.031-0.242-0.072-0.353-0.727-0.205-2.487-0.627-4.664-0.627z"></path>
<path d="M13.218 14.277c0 0-3.646 0.36-5.342 2.419v-3.458c0 0 1.912-2.354 5.342-2.174zM13.218 21.339c0 0-3.646 0.362-5.342 2.419v-3.458c0 0 1.912-2.354 5.342-2.174zM13.218 28.377c0 0-3.646 0.36-5.342 2.419v-3.459c0 0 1.912-2.353 5.342-2.173zM7.552 32h5.991v-22.030h-5.991z"></path>
</svg>
