<!-- Generated by IcoMoon.io -->
<svg version="1.1" xmlns="http://www.w3.org/2000/svg" width="32" height="32" viewBox="0 0 32 32">
<title>venice</title>
<path d="M10.080 25.982c-0.449-0.081-0.871-0.276-1.265-0.587-0.139-0.11-0.545-0.514-0.577-0.575-0.018-0.034-0.020-0.050-0.011-0.085 0.010-0.041 0.016-0.045 0.108-0.082 0.346-0.137 0.868-0.385 1.196-0.569 1.724-0.964 3.151-2.436 4.324-4.46 0.375-0.646 0.748-1.398 1.043-2.098 0.544-1.294 0.963-2.717 1.225-4.158 0.016-0.090 0.036-0.18 0.044-0.2l0.015-0.036 0.014 0.068c0.008 0.038 0.040 0.202 0.071 0.366 0.463 2.389 1.249 4.465 2.406 6.357 0.771 1.259 1.652 2.298 2.657 3.131 0.776 0.643 1.698 1.196 2.624 1.573 0.162 0.066 0.166 0.070 0.166 0.15 0 0.037-0.057 0.107-0.238 0.294-0.49 0.505-1.020 0.804-1.607 0.906-0.129 0.022-0.202 0.023-6.117 0.022-5.151-0.001-5.999-0.003-6.078-0.017zM22.838 25.558c0.021-0.021-0.053-0.059-0.896-0.448-1.303-0.602-1.771-0.835-2.362-1.181-0.885-0.517-1.629-1.074-2.266-1.696-0.323-0.315-0.506-0.521-0.967-1.089-0.085-0.105-0.158-0.19-0.161-0.191s-0.013 0.137-0.021 0.306c-0.023 0.477-0 0.65 0.102 0.778 0.159 0.201 0.741 0.694 1.231 1.043 1.32 0.941 2.802 1.658 4.835 2.336 0.412 0.138 0.489 0.159 0.507 0.141zM23.087 25.201c-0.022-0.018-0.125-0.070-0.229-0.116-2.783-1.226-4.796-3.003-6.109-5.395-0.131-0.239-0.344-0.667-0.437-0.879-0.059-0.133-0.114-0.236-0.128-0.237-0.017-0.001-0.022 0.14-0.021 0.645 0 0.7 0.004 0.719 0.172 0.97 0.759 1.133 1.664 2.108 2.707 2.918 1.034 0.802 2.217 1.457 3.536 1.957 0.327 0.124 0.465 0.17 0.509 0.17l0.040 0-0.039-0.033zM23.258 24.879c-0.022-0.018-0.099-0.060-0.172-0.093-0.332-0.15-0.745-0.368-1.099-0.58-1.589-0.954-2.958-2.369-4.043-4.18-0.638-1.064-1.179-2.279-1.593-3.57-0.081-0.251-0.116-0.355-0.145-0.418l-0.025-0.057-0.010 0.069c-0.005 0.038-0.008 0.416-0.006 0.841 0.004 0.754 0.005 0.775 0.029 0.869 0.029 0.11 0.031 0.114 0.43 0.842 0.535 0.974 0.765 1.368 1.065 1.82 0.463 0.699 0.94 1.289 1.511 1.87 1.091 1.109 2.353 1.951 3.796 2.533 0.181 0.073 0.224 0.087 0.273 0.088 0.028 0.001 0.027-0-0.011-0.033zM24.042 24.368c-0.124-0.052-0.51-0.292-0.995-0.618-0.417-0.28-0.453-0.317-0.217-0.22 0.177 0.072 0.295 0.103 0.4 0.105 0.212 0.003 0.326-0.091 0.384-0.319 0.040-0.158 0.043-0.147-0.17-0.788-0.106-0.321-0.189-0.585-0.183-0.588s0.012-0.002 0.014 0c0.006 0.008 0.874 1.719 0.957 1.887 0.082 0.166 0.082 0.167 0.088 0.283 0.007 0.13-0.009 0.195-0.060 0.243-0.038 0.035-0.149 0.043-0.217 0.014zM8.079 24.327c-0.011-0.039-0.030-0.206-0.030-0.27 0-0.067 0.008-0.089 0.099-0.286 0.254-0.548 0.772-1.587 0.846-1.696 0.042-0.063 0.078-0.112 0.080-0.111s-0.014 0.050-0.035 0.106c-0.060 0.159-0.214 0.783-0.258 1.045-0.041 0.241-0.026 0.329 0.068 0.417 0.068 0.064 0.171 0.099 0.288 0.099 0.069 0 0.106-0.010 0.299-0.081 0.121-0.044 0.23-0.079 0.243-0.077 0.024 0.003-0.178 0.147-0.697 0.495-0.4 0.268-0.533 0.348-0.601 0.361-0.089 0.017-0.297 0.015-0.302-0.003zM2.255 21.423l-0.34-0.006-0.040-0.032c-0.022-0.018-0.049-0.048-0.060-0.069-0.018-0.035-0.020-0.27-0.022-3.808-0.002-4.532-0.010-5.018-0.092-6.008-0.011-0.128-0.015-0.25-0.010-0.307 0.031-0.385 0.192-0.648 0.498-0.813 0.12-0.065 0.238-0.101 0.669-0.206 0.208-0.051 0.821-0.201 1.362-0.334s1.108-0.271 1.259-0.308c0.151-0.037 0.635-0.155 1.076-0.263s0.904-0.221 1.030-0.252c0.126-0.031 0.589-0.144 1.030-0.252s1.128-0.276 1.528-0.373c0.4-0.098 1.095-0.268 1.545-0.378s0.911-0.223 1.024-0.25c0.113-0.028 0.385-0.094 0.605-0.148s0.446-0.109 0.504-0.122c0.105-0.024 0.198-0.065 0.231-0.102 0.016-0.018 0.016-0.028-0.006-0.113-0.038-0.148-0.112-0.349-0.136-0.367-0.012-0.009-0.031-0.023-0.042-0.029-0.019-0.011-0.017-0.015 0.019-0.036 0.037-0.023 0.753-0.302 1.739-0.679 0.531-0.203 0.499-0.198 0.738-0.108 0.939 0.354 2.046 0.784 2.080 0.808 0.040 0.029 0.040 0.038-0.001 0.055-0.033 0.014-0.125 0.119-0.172 0.195-0.036 0.059-0.032 0.137 0.009 0.225 0.018 0.039 0.045 0.079 0.060 0.088s0.204 0.061 0.421 0.115c0.217 0.053 0.91 0.224 1.539 0.379 1.261 0.311 1.29 0.318 2.935 0.721 1.040 0.255 1.452 0.355 3.021 0.738 0.465 0.113 2.614 0.635 2.858 0.693 0.81 0.194 0.925 0.225 0.987 0.257 0.186 0.099 0.37 0.319 0.47 0.56 0.081 0.196 0.101 0.379 0.065 0.585-0.053 0.294-0.054 0.333-0.065 1.909-0.006 0.828-0.016 2.944-0.023 4.702-0.011 2.716-0.015 3.202-0.029 3.228-0.009 0.017-0.034 0.047-0.056 0.066l-0.040 0.035-0.656 0.008c-0.361 0.005-1.702 0.006-2.98 0.004-2.179-0.004-2.326-0.005-2.354-0.024-0.017-0.011-0.045-0.039-0.062-0.062l-0.032-0.042-0.002-2.604c-0.002-2.556-0.002-2.606-0.025-2.707-0.028-0.126-0.084-0.261-0.152-0.367-0.135-0.209-0.538-0.651-0.83-0.912-0.53-0.473-1.125-0.863-1.909-1.25-2.708-1.339-5.375-1.688-7.954-1.041-1.049 0.263-2.108 0.7-3.119 1.287-0.537 0.312-1.166 0.732-1.436 0.959-0.329 0.278-0.865 0.886-0.973 1.106-0.059 0.12-0.1 0.242-0.127 0.375-0.030 0.15-0.037 0.628-0.046 3.001-0.007 1.861-0.010 2.191-0.024 2.218-0.035 0.069 0.138 0.065-2.621 0.062-1.39-0.001-2.68-0.005-2.867-0.009zM30.225 13.968l0.043-0.039 0.004-0.419c0.003-0.354 0.006-0.419 0.020-0.419s0.016-0.051 0.016-0.329c-0-0.383-0.014-0.64-0.040-0.759-0.072-0.326-0.334-0.572-0.679-0.635-0.090-0.017-0.12-0.017-0.202-0.006-0.435 0.061-0.723 0.284-0.817 0.633-0.045 0.166-0.073 0.557-0.088 1.194l-0.008 0.355 0.036 0.030c0.045 0.038 0.040 0.037 0.843 0.237 0.371 0.093 0.696 0.174 0.721 0.18 0.082 0.021 0.106 0.018 0.152-0.024zM2.869 13.817c0.366-0.092 0.707-0.183 0.757-0.202 0.067-0.026 0.106-0.049 0.145-0.088 0.090-0.089 0.090-0.085 0.075-0.825-0.009-0.421-0.021-0.544-0.072-0.696-0.076-0.228-0.217-0.407-0.425-0.536-0.136-0.085-0.224-0.11-0.398-0.116-0.188-0.006-0.302 0.018-0.474 0.102-0.102 0.050-0.133 0.072-0.218 0.157-0.17 0.171-0.191 0.238-0.207 0.671-0.010 0.29-0.006 0.614 0.018 1.404l0.008 0.26 0.035 0.017c0.020 0.010 0.047 0.018 0.062 0.018s0.326-0.075 0.692-0.167zM28.123 13.438l0.046-0.043 0.012-0.566c0.015-0.746 0.009-1.285-0.018-1.379-0.060-0.215-0.217-0.396-0.436-0.504-0.183-0.090-0.346-0.115-0.521-0.080-0.36 0.073-0.667 0.355-0.709 0.653-0.020 0.14-0.035 0.355-0.052 0.75-0.021 0.464-0.023 0.711-0.008 0.74 0.006 0.012 0.027 0.036 0.046 0.054 0.029 0.027 0.077 0.044 0.313 0.106 0.212 0.056 1.054 0.267 1.217 0.305 0.049 0.012 0.065 0.006 0.11-0.035zM4.796 13.332c0.279-0.069 0.626-0.157 0.772-0.195 0.252-0.066 0.268-0.072 0.305-0.111l0.039-0.041-0.008-0.373c-0.012-0.588-0.028-0.918-0.048-1.016-0.051-0.245-0.178-0.442-0.383-0.593-0.157-0.116-0.282-0.158-0.463-0.158-0.354-0-0.697 0.208-0.813 0.494-0.047 0.116-0.055 0.268-0.047 0.963 0.004 0.343 0.010 0.729 0.014 0.858l0.007 0.235 0.034 0.032c0.019 0.017 0.045 0.032 0.058 0.032s0.253-0.057 0.531-0.126zM26.069 12.926l0.034-0.027 0.003-0.404c0.003-0.352 0.006-0.406 0.021-0.414s0.017-0.064 0.010-0.515c-0.006-0.351-0.013-0.531-0.024-0.591-0.044-0.234-0.224-0.456-0.466-0.572-0.293-0.14-0.575-0.118-0.855 0.070-0.165 0.111-0.304 0.284-0.341 0.428-0.019 0.071-0.045 0.477-0.058 0.887-0.006 0.205-0.014 0.449-0.017 0.543l-0.005 0.171 0.039 0.037c0.026 0.025 0.063 0.043 0.111 0.055 0.096 0.025 1.272 0.319 1.389 0.347 0.103 0.025 0.114 0.024 0.161-0.014zM6.519 12.896c0.239-0.057 0.943-0.234 1.18-0.297 0.258-0.069 0.258-0.070 0.258-0.379-0.001-0.41-0.021-1.019-0.038-1.119-0.043-0.256-0.158-0.455-0.353-0.611-0.18-0.144-0.302-0.184-0.53-0.175-0.173 0.007-0.253 0.028-0.412 0.109-0.082 0.042-0.124 0.074-0.207 0.156-0.115 0.115-0.163 0.195-0.193 0.329-0.023 0.1-0.026 0.455-0.013 1.308l0.010 0.652 0.039 0.037c0.021 0.020 0.044 0.037 0.050 0.037s0.1-0.021 0.208-0.047zM24.014 12.408l0.035-0.031 0.007-0.432c0.004-0.238 0.012-0.432 0.017-0.432 0.017 0 0.011-0.612-0.007-0.738-0.070-0.489-0.182-0.7-0.435-0.825-0.149-0.073-0.225-0.090-0.395-0.089-0.124 0.001-0.156 0.005-0.24 0.032-0.303 0.098-0.529 0.31-0.589 0.553-0.009 0.036-0.022 0.169-0.029 0.295-0.013 0.233-0.035 0.944-0.035 1.136-0 0.104 0.001 0.107 0.037 0.145 0.043 0.045 0.105 0.063 0.964 0.274 0.271 0.067 0.508 0.126 0.526 0.131 0.066 0.020 0.106 0.014 0.143-0.019zM8.633 12.364c0.436-0.104 0.98-0.244 1.064-0.274 0.166-0.060 0.221-0.113 0.26-0.251 0.024-0.085 0.031-0.436 0.016-0.772-0.022-0.481-0.036-0.569-0.116-0.739-0.137-0.29-0.398-0.468-0.71-0.483-0.143-0.007-0.244 0.008-0.365 0.055-0.234 0.091-0.408 0.268-0.49 0.502l-0.031 0.087 0.003 0.835c0.002 0.46 0.007 0.884 0.011 0.944 0.008 0.107 0.009 0.109 0.047 0.134 0.022 0.015 0.049 0.024 0.063 0.021s0.125-0.029 0.247-0.058zM21.98 11.902l0.039-0.034 0.010-0.598c0.006-0.329 0.010-0.722 0.010-0.873-0-0.249-0.003-0.284-0.027-0.378-0.087-0.336-0.276-0.536-0.591-0.625-0.072-0.020-0.12-0.026-0.229-0.026-0.16 0-0.241 0.018-0.378 0.085-0.236 0.115-0.399 0.304-0.429 0.499-0.014 0.091-0.045 0.731-0.056 1.16-0.010 0.385-0.008 0.396 0.057 0.43 0.031 0.016 1.504 0.392 1.54 0.394 0.008 0 0.031-0.015 0.052-0.033zM10.495 11.895c0.159-0.036 0.985-0.245 1.080-0.273 0.32-0.093 0.388-0.157 0.411-0.385 0.015-0.141 0.015-0.785 0-0.985-0.013-0.184-0.047-0.315-0.117-0.45-0.037-0.071-0.072-0.116-0.157-0.201-0.116-0.115-0.193-0.168-0.318-0.215-0.070-0.027-0.093-0.030-0.249-0.030-0.149-0-0.183 0.003-0.258 0.026-0.193 0.060-0.355 0.17-0.454 0.308-0.128 0.179-0.135 0.24-0.135 1.334l-0 0.834 0.032 0.028c0.038 0.032 0.060 0.034 0.165 0.010zM19.942 11.384c0.017-0.012 0.034-0.033 0.037-0.047 0.013-0.065 0.018-0.282 0.019-0.889 0.001-0.574-0.001-0.673-0.018-0.778-0.037-0.227-0.128-0.455-0.224-0.565-0.1-0.113-0.266-0.198-0.446-0.226-0.101-0.016-0.284-0.007-0.383 0.018-0.256 0.066-0.494 0.296-0.572 0.555-0.023 0.077-0.039 0.518-0.040 1.108-0.001 0.498-0.021 0.457 0.269 0.534 0.453 0.121 1.284 0.323 1.304 0.318 0.013-0.004 0.037-0.016 0.054-0.029zM12.942 11.284c0.227-0.056 0.487-0.115 0.578-0.131 0.307-0.052 0.419-0.104 0.477-0.221 0.029-0.059 0.033-0.080 0.036-0.205 0.002-0.077-0.002-0.192-0.009-0.258s-0.018-0.283-0.023-0.484c-0.011-0.415-0.028-0.533-0.097-0.675-0.101-0.209-0.323-0.389-0.549-0.446-0.269-0.068-0.669 0.067-0.842 0.284-0.086 0.108-0.148 0.259-0.172 0.42-0.014 0.093-0.017 1.353-0.003 1.617l0.007 0.146 0.040 0.035c0.052 0.046 0.040 0.048 0.558-0.081zM17.131 10.133c0.017-0.013 0.042-0.038 0.055-0.055 0.023-0.031 0.024-0.047 0.027-0.537 0.002-0.278 0.008-0.511 0.014-0.518s0.008-0.254 0.006-0.567c-0.004-0.52-0.006-0.56-0.028-0.65-0.045-0.178-0.143-0.356-0.27-0.492-0.294-0.315-0.716-0.417-1.156-0.279-0.364 0.114-0.619 0.373-0.717 0.73-0.024 0.086-0.026 0.119-0.030 0.578-0.003 0.268 0.002 0.759 0.009 1.093 0.014 0.602 0.014 0.607 0.040 0.647 0.055 0.085-0.009 0.080 1.061 0.077 0.947-0.003 0.958-0.003 0.989-0.027z"></path>
</svg>
