<!-- Generated by IcoMoon.io -->
<svg version="1.1" xmlns="http://www.w3.org/2000/svg" width="32" height="32" viewBox="0 0 32 32">
<title>venomous_hate</title>
<path d="M9.162 27.424c-1.083-0.827-2.167-1.86-2.408-2.296s-0.693-0.997-1.005-1.246c-0.312-0.249-0.454-0.746-0.316-1.105 0.187-0.488 0.038-0.629-0.593-0.56-0.618 0.068-0.953-0.229-1.253-1.111-0.226-0.662-0.678-1.401-1.006-1.643-0.801-0.59-0.325-2.437 0.712-2.766 1.393-0.442 2.254 0.419 2.783 2.781 0.533 2.381 0.656 2.498 1.745 1.671 0.865-0.656 0.898-1.046 0.090-1.046-0.877 0-1.46-1.781-0.989-3.020 0.568-1.494 1.479-1.657 2.439-0.437 0.976 1.241 2.678 1.383 4.994 0.415l1.517-0.634-0.966-0.482c-0.531-0.265-1.202-0.973-1.49-1.573s-0.649-1.090-0.803-1.088c-0.153 0.002-0.582 0.725-0.951 1.605s-0.86 1.601-1.089 1.601c-0.7 0-1.315-1.589-1.058-2.732 0.513-2.278 5.495-6.6 8.472-7.35 1.826-0.46 2.218-0.896 1.169-1.298-0.869-0.333-0.74-1.358 0.237-1.881 1.766-0.945 4.384 1.161 4.371 3.516-0.008 1.404-0.311 1.877-2.003 3.126-1.727 1.274-4.111 1.366-4.934 0.19-0.708-1.011-1.511-0.731-2.447 0.852-0.868 1.47-0.73 1.703 0.601 1.013 1.686-0.875 3.572-0.134 3.572 1.403 0 1.007-1.277 0.979-2.207-0.049-0.965-1.066-1.404-1.012-1.404 0.172 0 0.57 0.431 1.313 1.039 1.791l1.039 0.817 1.204-0.888c1.021-0.754 1.172-1.086 0.993-2.192-0.196-1.21-0.13-1.304 0.91-1.304 1.45 0 4.57-2.374 5.237-3.985 0.652-1.574 1.718-1.593 3.252-0.058 1.348 1.348 1.544 3.102 0.533 4.784-0.642 1.069-3.831 3.673-4.498 3.673-0.557 0-2.844 1.21-3.114 1.648-0.134 0.216-0.030 0.65 0.23 0.963 0.385 0.464 0.118 0.795-1.448 1.788-1.057 0.67-2.136 1.218-2.399 1.218s-1.685 0.565-3.16 1.255c-1.858 0.87-2.81 1.127-3.1 0.837-0.605-0.605-0.119-1.151 1.27-1.429 1.463-0.293 1.615-1.065 0.209-1.065-0.552 0-1.003 0.181-1.003 0.401s-0.421 0.401-0.936 0.401c-1.953 0-1.651 0.991 1.246 4.088 0.993 1.062 1.646 1.925 1.45 1.917-0.782-0.029-3.61-2.307-4.487-3.614-1.025-1.527-1.687-1.959-1.687-1.101 0 0.305 0.903 1.568 2.006 2.806 2.883 3.234 2.672 3.687-0.565 1.218zM5.308 19.401c-0.003-0.166-0.181-0.572-0.395-0.903-0.315-0.487-0.39-0.429-0.395 0.301-0.003 0.497 0.174 0.903 0.395 0.903s0.398-0.136 0.395-0.301zM18.848 19.46c-0.133-0.133-0.479-0.148-0.769-0.032-0.32 0.128-0.225 0.223 0.242 0.242 0.423 0.017 0.66-0.077 0.527-0.211z"></path>
</svg>
