<!-- Generated by IcoMoon.io -->
<svg version="1.1" xmlns="http://www.w3.org/2000/svg" width="32" height="32" viewBox="0 0 32 32">
<title>vile_experiments</title>
<path d="M23.889 4.618c-0.028-0.052-0.041-0.115-0.073-0.166-0.069-0.114-0.25-0.236-0.355-0.32-0.265-0.209-0.587-0.393-0.894-0.538-0.221-0.104-0.445-0.199-0.668-0.297-0.24-0.107-0.502-0.126-0.754-0.17-0.28-0.048-0.578-0.118-0.862-0.133-0.182-0.009-0.36-0.043-0.541-0.053-0.207-0.012-0.414 0.019-0.62-0.002-0.181-0.018-0.391-0.035-0.567-0.076-0.166-0.040-0.31-0.128-0.47-0.184-0.171-0.059-0.294-0.103-0.452-0.193-0.227-0.129-0.521-0.21-0.769-0.299-0.335-0.12-0.741-0.188-1.099-0.186-0.545 0.003-1.085-0.012-1.628 0.040-0.212 0.020-0.423 0.031-0.636 0.064-0.237 0.036-0.6 0.042-0.816 0.141-0.176 0.081-0.334 0.232-0.505 0.326-0.245 0.134-0.446 0.217-0.632 0.422-0.303 0.335-0.765 0.625-1.167 0.833-0.224 0.115-0.464 0.17-0.687 0.293-0.242 0.134-0.488 0.258-0.729 0.391-0.461 0.254-0.902 0.485-1.402 0.657-0.165 0.057-0.317 0.132-0.473 0.204-0.173 0.081-0.37 0.133-0.529 0.242-0.246 0.169-0.554 0.312-0.766 0.521-0.098 0.097-0.203 0.267-0.272 0.386-0.075 0.13-0.033 0.278-0.068 0.422-0.048 0.198-0.127 0.412-0.193 0.605-0.073 0.212-0.131 0.426-0.215 0.635-0.092 0.229-0.258 0.375-0.376 0.587-0.156 0.279-0.336 0.559-0.463 0.849-0.175 0.399-0.265 0.793-0.335 1.22-0.079 0.479-0.116 1.016-0.064 1.502 0.042 0.402 0.233 0.789 0.453 1.126 0.282 0.43 0.528 0.898 0.844 1.308 0.068 0.090 0.143 0.219 0.234 0.287 0.079 0.059 0.207 0.108 0.295 0.161 0.152 0.092 0.267 0.065 0.439 0.081 0.165 0.016 0.317 0.079 0.479 0.1 0.531 0.069 1.068 0.152 1.602 0.075 0.607-0.089 1.352-0.266 1.94-0.023 0.577 0.237 0.976 0.688 1.623 0.775 0.45 0.061 0.939 0.010 1.392 0.010 0.162 0 0.324 0.005 0.486 0 0.158-0.005 0.233-0.060 0.379-0.14 0.182-0.1 0.408-0.174 0.615-0.212 0.144-0.027 0.275 0 0.414-0.026 0.148-0.026 0.277-0.041 0.428-0.040 0.317 0.001 0.748 0.076 1.041-0.064 0.226-0.108 0.203-0.262 0.2-0.48-0.001-0.124-0.028-0.23-0.056-0.351-0.034-0.145-0.083-0.19-0.209-0.308-0.157-0.146-0.324-0.3-0.495-0.428-0.086-0.064-0.089-0.079-0.134-0.171-0.131-0.273-0.164-0.576-0.236-0.869-0.136-0.544-0.167-1.039 0.134-1.542 0.199-0.334 0.514-0.604 0.77-0.898 0.075-0.087 0.193-0.249 0.329-0.226 0.032 0.076-0.010 0.090-0.050 0.157-0.143 0.245-0.3 0.47-0.402 0.738-0.103 0.27-0.163 0.674-0.022 0.941 0.219 0.413 0.511 0.815 0.533 1.286 0.008 0.176-0.016 0.354-0.008 0.53 0.010 0.198 0.095 0.357 0.181 0.53 0.092 0.186 0.154 0.386 0.255 0.569 0.346 0.623 0.936 1.009 1.619 1.216 0.38 0.115 0.836 0.049 1.233 0.049 0.225 0 0.43-0.003 0.652-0.041 0.101-0.018 0.2-0.005 0.3-0.023 0.068-0.013 0.097-0.049 0.183-0.042 0.114 0.009 0.219 0.048 0.325 0.092 0.154 0.065 0.168 0.137 0.266 0.263 0.142 0.184 0.326 0.321 0.487 0.481 0.091 0.091 0.165 0.188 0.277 0.265 0.111 0.076 0.262 0.134 0.379 0.196 0.053 0.028 0.095 0.024 0.15 0.060 0.049 0.033 0.092 0.094 0.135 0.135 0.145 0.14 0.134 0.209 0.134 0.403-0.001 0.535-0.126 1.051-0.236 1.576-0.078 0.374-0.068 0.946-0.518 1.071-0.169 0.048-0.246 0.149-0.374 0.271-0.159 0.152-0.336 0.311-0.478 0.476-0.182 0.21-0.288 0.476-0.331 0.743-0.022 0.14-0.069 0.275-0.095 0.414-0.048 0.258-0.039 0.525-0.117 0.777-0.099 0.316-0.213 0.567-0.441 0.813-0.33 0.358-0.773 0.526-1.169 0.798-0.2 0.137-0.366 0.303-0.579 0.422-0.348 0.195-0.741 0.279-1.1 0.445-0.159 0.074-0.332 0.168-0.479 0.262-0.11 0.070-0.175 0.169-0.275 0.249-0.229 0.183-0.32 0.417-0.428 0.687-0.095 0.24-0.174 0.502-0.325 0.715-0.032 0.044-0.081 0.078-0.11 0.125-0.070 0.108-0.087 0.221-0.168 0.328-0.238 0.312-0.522 0.58-0.788 0.869-0.226 0.244-0.501 0.428-0.731 0.664-0.11-0.204 0.424-0.552 0.52-0.639 0.443-0.397 0.946-0.685 1.424-1.034 0.424-0.309 0.82-0.869 1.411-0.879 0.215-0.005 0.45 0.033 0.661-0.007 0.384-0.076 0.772-0.238 1.12-0.41 0.2-0.1 0.411-0.185 0.607-0.291 0.295-0.158 0.552-0.38 0.841-0.55 0.204-0.119 0.403-0.278 0.523-0.477 0.111-0.184 0.206-0.385 0.32-0.569 0.092-0.145 0.198-0.279 0.283-0.43 0.163-0.291 0.303-0.589 0.492-0.869 0.335-0.494 0.662-0.97 1.093-1.389 0.228-0.223 0.488-0.381 0.752-0.558 0.141-0.094 0.299-0.208 0.419-0.321 0.098-0.093 0.128-0.25 0.173-0.369 0.062-0.168 0.148-0.33 0.193-0.504 0.094-0.36 0.182-0.737 0.163-1.111-0.014-0.316-0.086-0.636-0.121-0.95-0.015-0.131 0.018-0.355-0.076-0.453-0.013 0.203 0.193 0.491 0.317 0.638 0.177 0.209 0.258 0.449 0.401 0.679 0.101 0.162 0.242 0.259 0.35 0.408 0.149 0.203 0.156 0.366 0.161 0.605 0.003 0.168 0.053 0.35 0.040 0.514-0.022 0.269-0.127 0.513-0.225 0.762-0.156 0.402-0.328 0.807-0.568 1.169-0.196 0.294-0.343 0.602-0.451 0.938-0.051 0.159 0.012 0.357-0.065 0.504 0.044-0.026 0.073-0.062 0.104-0.1 0.24-0.279 0.388-0.63 0.632-0.911 0.244-0.279 0.586-0.45 0.691-0.812 0.175-0.597 0.431-1.168 0.56-1.78 0.092-0.439 0.224-0.913 0.208-1.366-0.024-0.672-0.309-1.326-0.499-1.964-0.089-0.296-0.031-0.487 0.037-0.778 0.055-0.23 0.125-0.435 0.266-0.63 0.066-0.091 0.15-0.152 0.211-0.246 0.26-0.404 0.355-0.9 0.443-1.36 0.177-0.936 0.284-1.881 0.489-2.811 0.061-0.278 0.108-0.581 0.12-0.865 0.017-0.393-0.211-0.66-0.387-1.004-0.25-0.488-0.309-1.033-0.419-1.565-0.087-0.42-0.273-0.698-0.521-1.049-0.193-0.274-0.346-0.573-0.648-0.741-0.211-0.117-0.391-0.271-0.593-0.401-0.111-0.072-0.247-0.115-0.349-0.201-0.24-0.207-0.37-0.531-0.576-0.768-0.262-0.301-0.586-0.359-0.963-0.439-0.134-0.028-0.265-0.085-0.4-0.107-0.114-0.018-0.194-0.012 0.060 0.109z"></path>
</svg>
