<!-- Generated by IcoMoon.io -->
<svg version="1.1" xmlns="http://www.w3.org/2000/svg" width="32" height="32" viewBox="0 0 32 32">
<title>voiceover</title>
<path fill="#394852" d="M16.469 3.353l-0.938 1.294c7.531 5.453 7.505 18.042 0.047 22.672l0.844 1.363c8.541-5.302 8.516-19.195 0.047-25.328zM12.453 8.306l-0.906 1.319c4.287 2.957 4.287 10.621 0 13.578l0.906 1.319c5.313-3.664 5.313-12.552 0-16.216zM8.453 13.272l-0.906 1.319c0.961 0.662 1.236 1.576 1.156 2.478s-0.61 1.705-1.072 1.944l0.738 1.422c1.138-0.589 1.807-1.851 1.928-3.225s-0.404-2.945-1.844-3.938z"></path>
</svg>
