<!-- Generated by IcoMoon.io -->
<svg version="1.1" xmlns="http://www.w3.org/2000/svg" width="33" height="32" viewBox="0 0 33 32">
<title>war_of_the_outer_gods</title>
<path d="M29.341 8.544c-0.065-0.266-0.163-0.506-0.296-0.749-0.128-0.234-0.427-0.408-0.637-0.572-0.516-0.405-1.043-0.697-1.642-0.959-0.509-0.222-1.053-0.277-1.603-0.29-0.178-0.125-0.354-0.243-0.536-0.354-0.236-0.141-0.487-0.257-0.728-0.383-0.173-0.089-0.34-0.201-0.509-0.291-0.215-0.114-0.482-0.15-0.719-0.215-0.358-0.098-0.703-0.204-1.069-0.261-0.299-0.048-0.619-0.018-0.922-0.017-0.075 0-0.15-0.003-0.225-0.010l0.051 0.010c-0.419-0.036-1.037-0.028-1.468-0.178-0.097-0.032-0.18-0.081-0.277-0.104-0.104-0.023-0.243 0.001-0.352-0.012-0.172-0.020-0.338-0.054-0.511-0.058-1.031-0.019-2.066-0.002-3.097 0.003-0.4 0.003-0.787 0.008-1.183-0.047-0.307-0.044-0.609-0.12-0.918-0.152-0.257-0.027-0.513 0-0.772-0.022s-0.517-0.075-0.773-0.111c-0.301-0.042-0.714-0.49-0.966-0.68-0.164-0.124-0.377-0.484-0.468-0.617-0.104-0.155-0.207-0.309-0.292-0.477 0.090 0.604 0.191 1.619 0.166 2.233-0.017 0.401-0.125 0.658-0.297 1.011-0.215 0.444-0.43 0.862-0.724 1.263-0.284 0.385-0.721 0.644-1.070 0.972-0.315 0.296-0.639 0.576-0.973 0.852-0.277 0.23-0.544 0.423-0.767 0.706-0.194 0.245-0.345 0.484-0.463 0.777-0.124 0.309-0.272 0.601-0.41 0.903-0.102 0.223-0.153 0.466-0.239 0.696-0.163 0.438-0.239 0.959-0.275 1.421-0.054 0.69-0.286 1.358-0.28 2.053 0.007 0.763-0.039 1.538 0.036 2.298 0.060 0.608 0.136 1.218 0.227 1.82 0.077 0.517 0.115 1.032 0.239 1.54 0.036 0.147 0.081 0.293 0.133 0.437-0.040 0.221-0.098 0.438-0.162 0.66-0.069 0.238-0.222 0.419-0.338 0.631-0.088 0.161-0.174 0.261-0.271 0.412-0.115 0.179-0.28 0.303-0.405 0.473-0.077 0.104-0.118 0.263-0.198 0.352 0.095 0.012 0.133-0.046 0.198-0.059 0.088-0.018 0.171-0.017 0.263-0.017 0.167 0.001 0.358-0.026 0.522 0.007 0.329 0.066 0.604 0.157 0.897 0.342 0.162 0.101 0.306 0.239 0.459 0.35 0.12 0.087 0.226 0.147 0.333 0.259 0.091 0.094 0.135 0.207 0.221 0.298 0.125 0.133 0.303 0.199 0.422 0.346 0.070 0.085 0.254 0.241 0.275 0.346l-0.185-0.518c0.493 0.724 0.992 1.409 1.593 2.047 0.549 0.581 1.31 1.037 2.018 1.388 0.48 0.239 0.987 0.404 1.473 0.627 0.217 0.101 0.414 0.222 0.637 0.307 0.231 0.086 0.471 0.147 0.705 0.231 0.317 0.115 0.647 0.187 0.971 0.28 0.22 0.063 0.448 0.172 0.673 0.214 0.361 0.068 0.795 0.034 1.159 0.005 0.716-0.058 1.373-0.205 2.046-0.46 0.502-0.19 0.898-0.448 1.364-0.705 0.134-0.074 0.277-0.126 0.414-0.195 0.259-0.134 0.422-0.328 0.641-0.513 0.378-0.32 0.808-0.593 1.214-0.875 0.209-0.145 0.372-0.336 0.579-0.481 0.619-0.434 1.24-0.869 1.879-1.273 0.236-0.149 0.677-0.346 0.954-0.368 0.119-0.012 0.257 0.003 0.376 0.021 0.174 0.026 0.431 0.163 0.606 0.11-0.093-0.345-0.234-0.671-0.342-1.010-0.092-0.288-0.134-0.609-0.191-0.908-0.051-0.272 0.018-0.522 0.074-0.787 0.101-0.485 0.193-0.876 0.434-1.316 0.328-0.594 0.69-1.202 0.854-1.868 0.076-0.302 0.086-0.652 0.084-0.962-0.001-0.336 0.033-0.692-0.005-1.026-0.018-0.161-0.063-0.308-0.066-0.47-0.001-0.088 0.007-0.166-0.013-0.254-0.044-0.207-0.029-0.415-0.069-0.625-0.079-0.414-0.079-0.832-0.12-1.25-0.027-0.26-0.114-0.539-0.209-0.783-0.126-0.324-0.248-0.685-0.433-0.978-0.5-0.797-1.405-1.21-2.214-1.63 0.227 0.243 0.385 0.572 0.574 0.847 0.16 0.232 0.324 0.437 0.387 0.717 0.029 0.133 0.059 0.238 0.115 0.361 0.145 0.313 0.379 0.588 0.475 0.922 0.053 0.179 0.054 0.358 0.115 0.536 0.046 0.135 0.109 0.257 0.137 0.395 0.059 0.284 0.076 0.555 0.075 0.844 0 0.239 0.038 0.508-0.032 0.736-0.084 0.27-0.16 0.543-0.248 0.811-0.079 0.237-0.099 0.468-0.15 0.708-0.038 0.185-0.146 0.357-0.196 0.539-0.038 0.139-0.072 0.234-0.14 0.365-0.15 0.292-0.274 0.615-0.414 0.914-0.273 0.582-0.416 1.294-0.844 1.793-0.312 0.365-0.719 0.647-1.059 0.986-0.193 0.193-0.356 0.405-0.538 0.606-0.158 0.174-0.232 0.259-0.443 0.373-0.25 0.137-0.486 0.325-0.718 0.491-0.214 0.153-0.444 0.28-0.627 0.455-0.102 0.098-0.207 0.204-0.333 0.275-0.491 0.281-0.991 0.541-1.509 0.768-0.147 0.065-0.287 0.070-0.431 0.147-0.153 0.083-0.309 0.168-0.449 0.271-0.182 0.133-0.383 0.176-0.605 0.275-0.395 0.176-0.858 0.279-1.29 0.276-0.204-0.001-0.408-0.002-0.611 0-0.21 0.002-0.401-0.055-0.61-0.070-0.168-0.012-0.338-0.038-0.502-0.068-0.097-0.017-0.184-0.064-0.282-0.075-0.090-0.010-0.183 0.017-0.272 0.007-0.5-0.045-1.090-0.177-1.531-0.42-0.236-0.129-0.468-0.259-0.684-0.42-0.119-0.087-0.27-0.166-0.366-0.276-0.114-0.134-0.217-0.254-0.341-0.378-0.079-0.079-0.137-0.178-0.217-0.258-0.081-0.082-0.215-0.144-0.281-0.234-0.101-0.139-0.149-0.303-0.214-0.452-0.065-0.147-0.211-0.271-0.285-0.419-0.201-0.396-0.401-0.824-0.669-1.186-0.234-0.318-0.287-0.718-0.405-1.091-0.053-0.166-0.099-0.325-0.139-0.487-0.357-0.477-0.616-1.029-0.843-1.576-0.229-0.551-0.417-1.121-0.572-1.698-0.096-0.064-0.183-0.141-0.254-0.237-0.060-0.081-0.124-0.182-0.141-0.275-0.005-0.027-0.007-0.098-0.017-0.124-0.005-0.013-0.052-0.144-0.054-0.155-0.053-0.253-0.019-0.555-0.017-0.819 0.002-0.142-0.044-0.212-0.070-0.341-0.031-0.151 0.001-0.336 0.001-0.495 0-0.161 0.002-0.323 0-0.485-0.001-0.134 0.047-0.166 0.072-0.275 0.032-0.133-0.038-0.292-0.007-0.425 0.015-0.063 0.061-0.069 0.076-0.131 0.017-0.063-0.008-0.147-0.005-0.212 0.015-0.308 0.205-0.547 0.266-0.853 0.059-0.297 0.125-0.565 0.292-0.835 0.108-0.177 0.23-0.344 0.331-0.522 0.102-0.177 0.238-0.326 0.347-0.506 0.080-0.131 0.19-0.223 0.28-0.347 0.031-0.043 0.054-0.098 0.082-0.136 0.034-0.047 0.092-0.084 0.125-0.135 0.314-0.475 0.686-0.897 1.054-1.324 0.080-0.092 0.183-0.129 0.269-0.209 0.034-0.033 0.059-0.086 0.097-0.12 0.088-0.082 0.177-0.16 0.26-0.243 0.099-0.098 0.227-0.207 0.349-0.28 0.125-0.076 0.247-0.177 0.369-0.249 0.155-0.091 0.36-0.153 0.523-0.242 0.104-0.057 0.225-0.093 0.344-0.135 0.231-0.082 0.48-0.088 0.703-0.172 0.076-0.028 0.135-0.076 0.215-0.092 0.092-0.020 0.18 0.024 0.274-0.008 0.007-0.038 0.013-0.076 0.021-0.114 0.217-0.043 0.433-0.126 0.646-0.189 0.185-0.055 0.333-0.155 0.527-0.173 0.314-0.028 0.627-0.163 0.935-0.21 0.329-0.050 0.665 0.017 0.975 0.074 0.243 0.047 0.475 0.163 0.701 0.276 0.484 0.242 0.945 0.616 1.265 1.047 0.376 0.504 0.754 1.006 1.111 1.526 0.13 0.19 0.232 0.382 0.338 0.576-0.074 0.35-0.053 0.706-0.052 1.078 0 0.396 0.010 0.79 0.102 1.178 0.065 0.275 0.158 0.562 0.178 0.84 0.012 0.19 0.028 0.328 0.086 0.511 0.037 0.112 0.018 0.222 0.045 0.327 0.027 0.103 0.106 0.18 0.146 0.279 0.044 0.103 0.060 0.245 0.134 0.335 0.071 0.086 0.185 0.144 0.266 0.222 0.069 0.068 0.141 0.141 0.217 0.205 0.162 0.135 0.369 0.166 0.541 0.284 0.070 0.049 0.123 0.103 0.205 0.144-0.112-0.088-0.072-0.772-0.048-0.916 0.053-0.307 0.18-0.616 0.247-0.9 0.018-0.077 0.142-0.325 0.096-0.404-0.054-0.091-0.309-0.117-0.408-0.153-0.254-0.092-0.423-0.245-0.419-0.52 0.005-0.206-0.058-0.374-0.054-0.551 0.060 0.082 0.119 0.167 0.182 0.245 0.003-0.351 0.151-0.691 0.385-0.977-0.168-0.514-0.036-1.122 0.464-1.637 0.153-0.158 0.315-0.287 0.482-0.389 0.115-0.211 0.365-0.296 0.565-0.417 0.275-0.166 0.565-0.277 0.856-0.071 0.048 0.033 0.084 0.079 0.117 0.126 0.028 0.001 0.055 0 0.082 0-0.104-0.502 0.039-0.997 0.622-1.366 0.203-0.129 0.442-0.195 0.69-0.212l0.071 0.206c0.258 0 0.594-0.031 0.919-0.012 0.125 0.060 0.242 0.131 0.346 0.212-0.017-0.058-0.031-0.117-0.045-0.177 0.249 0.049 0.473 0.146 0.621 0.336 0.119 0.152 0.212 0.301 0.298 0.474 0.092 0.189 0.131 0.34 0.365 0.349 0.198 0.007 0.311-0.012 0.488 0.086 0.124 0.068 0.233 0.167 0.344 0.257 0.285 0.233 0.562 0.571 0.746 0.887 0.183-0.114 0.336-0.464 0.372-0.675 0.042-0.248-0.017-0.534-0.071-0.765z"></path>
<path d="M21.852 17.065c-0.346-0.063-0.646-0.182-0.997-0.177-0.355 0.007-0.598-0.115-0.927-0.18-0.167-0.034-0.339-0.059-0.512-0.106-0.771-0.205-1.567-0.531-2.223-0.941-0.242-0.151-0.468-0.54-0.558-0.781-0.083-0.217-0.076-0.47-0.153-0.7-0.129-0.379-0.152-0.813-0.19-1.204-0.060-0.605-0.166-1.197-0.274-1.796-0.087-0.481-0.098-0.972-0.205-1.45-0.128-0.568-0.237-1.081-0.237-1.657 0 0.504 0.058 1.030-0.019 1.531-0.068 0.452-0.244 0.876-0.287 1.327-0.037 0.38-0.26 0.761-0.317 1.146-0.055 0.377-0.123 0.788-0.231 1.157-0.088 0.299-0.182 0.658-0.312 0.941-0.056 0.121-0.103 0.104-0.184 0.191-0.075 0.080-0.137 0.259-0.228 0.317-0.41 0.263-1.054-0.442-1.313-0.572-0.071 0.204 0.007 0.395 0.065 0.585 0.052 0.168 0.021 0.352 0.023 0.525 0.002 0.368-0.133 0.857-0.568 1.054-0.227 0.103-0.551 0.101-0.803 0.151-0.347 0.071-0.752 0.020-1.108 0.020-0.455 0-0.912 0.002-1.367 0-0.207 0-0.406-0.010-0.611 0.020-0.225 0.032-0.639 0.015-0.822 0.129 0.25 0.245 1.009 0.228 1.333 0.285 0.523 0.089 1.032 0.221 1.555 0.311 0.632 0.11 1.203 0.383 1.748 0.662 0.432 0.22 0.757 0.338 1.002 0.746 0.174 0.291 0.287 0.577 0.369 0.912 0.298 1.22 0.643 2.438 0.838 3.679 0.065 0.409 0.219 0.824 0.303 1.234 0.065 0.32 0.144 0.632 0.236 0.946 0.081 0.275 0.051 0.53 0.071 0.805 0.021 0.292 0.152 0.576 0.42-0.188 0.174-0.129 0.103-0.392 0.104-0.568 0-0.273-0.042-0.566 0.022-0.833 0.086-0.36 0.081-0.692 0.081-1.065 0-0.247-0.008-0.495-0.003-0.741 0.005-0.234 0.087-0.439 0.113-0.668 0.059-0.503-0.005-1.037-0.005-1.545v-0.533c0.038-0.109 0.096-0.209 0.177-0.296 0.031-0.033 0.066-0.066 0.094-0.099 0.022-0.026 0.036-0.056 0.063-0.080 0.050-0.047 0.125-0.071 0.184-0.109 0.059-0.039 0.121-0.066 0.191-0.082 0.039-0.010 0.074-0.015 0.112-0.028 0.031-0.012 0.046-0.023 0.080-0.024 0.047-0.002 0.093 0.001 0.139 0.001 0.048 0 0.118-0.012 0.163-0.001 0.020 0.003 0.024 0.021 0.044 0.024 0.022 0.007 0.049-0.007 0.071-0.001 0.045 0.007 0.098 0.033 0.139 0.047 0.036 0.012 0.066 0.018 0.099 0.041s0.066 0.052 0.101 0.074c-0.13-0.206-0.266-0.487-0.171-0.735 0.028-0.072 0.085-0.108 0.134-0.166 0.055-0.064 0.102-0.126 0.161-0.187 0.092-0.091 0.188-0.171 0.29-0.247 0.161-0.119 0.34-0.227 0.518-0.315 0.022-0.012 0.026-0.010 0.055-0.021 0.037-0.013 0.055-0.048 0.088-0.063 0.024-0.010 0.055-0.005 0.081-0.013 0.017-0.007 0.034-0.017 0.050-0.026 0.027-0.002 0.054-0.007 0.076-0.008 0.356-0.048 0.712-0.115 1.072-0.134 0.214-0.010 0.356-0.063 0.556-0.089 0.167-0.022 0.345 0.017 0.514-0.002 0.254-0.029 0.476-0.086 0.736-0.082 0.404 0.007 0.846-0.053 1.218-0.195-0.19-0.114-0.638-0.109-0.864-0.15z"></path>
</svg>
