<!-- Generated by IcoMoon.io -->
<svg version="1.1" xmlns="http://www.w3.org/2000/svg" width="32" height="32" viewBox="0 0 32 32">
<title>warning-bold</title>
<path d="M16 4.897c-1.147 0-2.293 0.55-2.929 1.656l-7.759 13.5c-1.272 2.213 0.376 5.089 2.929 5.089h15.518c2.553 0 4.2-2.876 2.929-5.089l-7.759-13.5c-0.636-1.107-1.781-1.656-2.929-1.656zM16 7.103c0.361 0 0.72 0.2 0.946 0.594l7.759 13.5c0.452 0.787-0.051 1.661-0.946 1.661h-15.518c-0.895 0-1.398-0.874-0.946-1.661l7.759-13.5c0.226-0.393 0.585-0.594 0.946-0.594zM14.857 10.5v6.75h2.286v-6.75z"></path>
<path d="M16 17.857c-1.17 0-2.143 0.973-2.143 2.143s0.973 2.143 2.143 2.143c1.17 0 2.143-0.973 2.143-2.143s-0.973-2.143-2.143-2.143zM16 19.857c0.065 0 0.143 0.077 0.143 0.143s-0.077 0.143-0.143 0.143c-0.065 0-0.143-0.077-0.143-0.143s0.077-0.143 0.143-0.143z"></path>
</svg>
