<!-- Generated by IcoMoon.io -->
<svg version="1.1" xmlns="http://www.w3.org/2000/svg" width="32" height="32" viewBox="0 0 32 32">
<title>warped_reality</title>
<path d="M16.119 28.038c-1.618-0.296-3.839-1.253-4.924-2.122l-0.761-0.61-0.832 0.817c-0.955 0.937-1.114 0.99-1.114 0.37 0-0.636 19.137-19.771 19.773-19.771 0.619 0 0.565 0.16-0.376 1.119l-0.821 0.837 0.516 0.613c0.981 1.165 1.93 3.41 2.253 5.326 0.275 1.629 0.275 2.001 0.007 3.594-0.855 5.074-4.637 8.943-9.606 9.828-1.843 0.329-2.309 0.328-4.114-0.001zM21.38 26.535c3.701-1.069 6.777-4.674 7.31-8.569 0.365-2.669-0.212-5.223-1.681-7.436-0.716-1.079-0.721-1.082-1.111-0.692s-0.389 0.395 0.242 1.331c0.94 1.393 1.407 2.796 1.521 4.572 0.186 2.898-0.717 5.419-2.626 7.328-2.088 2.088-4.493 3.003-7.43 2.829-1.877-0.112-3.239-0.556-4.671-1.523-0.938-0.633-0.94-0.634-1.335-0.238s-0.395 0.396 0.836 1.191c2.683 1.734 5.708 2.142 8.945 1.207zM19.61 24.953c4.555-0.864 7.902-5.414 7.144-9.713-0.385-2.184-1.702-4.548-2.236-4.014-0.153 0.153 0.003 0.653 0.55 1.759 0.725 1.467 0.764 1.641 0.764 3.438 0 1.716-0.059 2.018-0.629 3.222-0.347 0.733-1.040 1.739-1.546 2.245s-1.512 1.199-2.245 1.546c-1.204 0.57-1.506 0.629-3.222 0.629-1.797 0-1.972-0.039-3.438-0.764-1.106-0.546-1.606-0.703-1.759-0.55-0.66 0.66 2.777 2.287 5.032 2.382 0.285 0.012 0.998-0.069 1.585-0.181zM20.777 22.916c1.542-0.568 3.348-2.398 3.949-4.004 0.583-1.557 0.593-3.379 0.028-4.856-0.538-1.405-0.894-1.868-1.313-1.708-0.305 0.117-0.304 0.163 0.008 0.639 0.505 0.771 1.094 2.622 1.094 3.44 0 2.457-1.949 5.11-4.35 5.919-0.703 0.237-1.603 0.431-2.001 0.431-0.803 0-2.664-0.586-3.408-1.073-0.489-0.32-0.747-0.251-0.747 0.2 0 0.355 1.963 1.27 3.102 1.445 1.237 0.191 2.278 0.067 3.637-0.433zM20.493 21.609c1.183-0.537 2.172-1.49 2.749-2.646 0.413-0.829 0.508-1.303 0.505-2.518-0.004-1.461-0.437-2.941-0.952-3.26-0.428-0.264-0.429 0.295-0.003 1.112 1.047 2.009 0.262 4.938-1.673 6.237-0.516 0.347-1.425 0.739-2.020 0.872-0.975 0.218-1.205 0.199-2.327-0.191-1.546-0.538-1.707-0.567-1.763-0.32-0.025 0.109 0.346 0.399 0.823 0.644 1.134 0.582 3.459 0.618 4.662 0.071zM20.615 20.288c1.902-1.337 2.631-3.515 1.855-5.545-0.372-0.974-0.843-1.24-0.602-0.34 0.080 0.3 0.185 1.169 0.232 1.933 0.079 1.278 0.039 1.461-0.509 2.32-0.847 1.326-1.853 1.802-3.562 1.683-0.724-0.050-1.561-0.157-1.861-0.237-0.816-0.218-0.672 0.201 0.198 0.574 0.498 0.214 1.182 0.3 2.073 0.263 1.104-0.046 1.472-0.156 2.175-0.65zM20.198 19.551c1.152-0.776 1.57-1.604 1.57-3.109 0-0.829-0.105-1.464-0.282-1.705-0.25-0.341-0.271-0.204-0.185 1.201 0.111 1.81-0.195 2.546-1.365 3.286-0.556 0.351-0.868 0.395-2.232 0.311-1.405-0.086-1.542-0.065-1.201 0.185 0.241 0.177 0.877 0.282 1.705 0.282 1.045 0 1.46-0.094 1.989-0.451zM3.731 25.195c0-0.088 0.312-0.462 0.694-0.832s0.694-0.788 0.694-0.929c0-0.141-0.3-0.65-0.667-1.13-0.944-1.237-1.837-3.518-2.109-5.385-0.697-4.798 2.018-9.851 6.445-11.994 2.293-1.11 4.514-1.499 6.726-1.177 1.925 0.28 4.126 1.159 5.516 2.203l1.023 0.769 0.807-0.792c0.929-0.912 1.089-0.963 1.089-0.345 0 0.636-19.137 19.771-19.773 19.771-0.245 0-0.445-0.072-0.445-0.159zM6.76 21.71c-0.073-0.122-0.38-0.565-0.683-0.985-1.366-1.9-1.912-5.165-1.276-7.644 1.081-4.216 4.874-7.152 9.237-7.152 2.187 0 4.542 0.816 5.895 2.042 0.428 0.388 0.458 0.39 0.838 0.046 0.5-0.452 0.418-0.571-1.044-1.515-1.733-1.12-3.402-1.585-5.689-1.585-2.29 0-3.97 0.469-5.663 1.58-3.179 2.086-4.864 5.133-4.893 8.848-0.020 2.548 0.569 4.407 2.029 6.41 0.602 0.826 0.642 0.847 1.005 0.519 0.208-0.188 0.318-0.441 0.244-0.563zM8.023 20.688c0.064-0.168-0.024-0.46-0.195-0.65s-0.562-0.878-0.866-1.529c-0.485-1.036-0.554-1.419-0.554-3.067 0-1.704 0.060-2.009 0.629-3.211 0.8-1.69 2.101-2.99 3.791-3.791 1.202-0.569 1.507-0.629 3.211-0.629 1.647 0 2.031 0.069 3.067 0.554 0.651 0.305 1.339 0.695 1.529 0.866 0.375 0.339 0.955 0.232 0.953-0.176-0.003-0.623-2.881-1.996-4.68-2.232-3.276-0.431-7.141 1.772-8.607 4.904-1.115 2.382-1.204 4.449-0.29 6.746 0.812 2.042 1.703 3.021 2.013 2.214zM9.083 19.551c0-0.139-0.138-0.451-0.307-0.692-0.469-0.67-1.080-2.597-1.080-3.408 0-2.457 1.949-5.11 4.35-5.919 0.703-0.237 1.603-0.431 2.001-0.431 0.803 0 2.528 0.548 3.498 1.112 0.347 0.202 0.693 0.306 0.768 0.231 0.293-0.293-0.131-0.729-1.236-1.272-1.61-0.79-3.814-0.892-5.515-0.254-1.648 0.618-3.431 2.401-4.048 4.048-0.761 2.032-0.538 4.336 0.596 6.173 0.408 0.66 0.974 0.9 0.974 0.413zM9.961 18.835c0.060-0.097-0.135-0.61-0.434-1.14-0.438-0.778-0.542-1.211-0.54-2.252 0.004-2.349 1.452-4.193 3.834-4.885 1.246-0.362 2.605-0.17 3.76 0.533 0.617 0.375 1.025 0.374 1.025-0.002 0-0.093-0.463-0.4-1.030-0.682-1.462-0.729-3.61-0.731-5.067-0.004-2.005 0.999-3.010 2.682-3.017 5.052-0.003 1.219 0.091 1.689 0.509 2.527 0.5 1.003 0.737 1.214 0.96 0.854zM10.661 17.97c-0.004-0.136-0.135-0.471-0.29-0.743-0.164-0.286-0.286-1.044-0.29-1.795-0.006-1.105 0.080-1.437 0.577-2.221 0.779-1.228 1.784-1.735 3.422-1.726 0.705 0.004 1.462 0.13 1.742 0.29 0.572 0.327 0.991 0.377 0.991 0.117 0-0.099-0.406-0.377-0.902-0.617-0.723-0.35-1.154-0.421-2.176-0.355-1.499 0.095-2.591 0.743-3.547 2.104-0.817 1.162-0.951 2.981-0.317 4.292 0.417 0.861 0.806 1.183 0.791 0.654zM11.158 17.177c-0.083-0.245-0.186-0.981-0.229-1.635-0.091-1.384 0.307-2.22 1.373-2.884 0.513-0.319 0.891-0.386 1.835-0.324 0.654 0.043 1.39 0.146 1.635 0.229 0.257 0.087 0.446 0.071 0.446-0.038 0-0.359-1.012-0.65-2.26-0.65-2.197 0-3.489 1.292-3.489 3.489 0 1.247 0.291 2.26 0.65 2.26 0.109 0 0.125-0.189 0.038-0.446z"></path>
</svg>
