<!-- Generated by IcoMoon.io -->
<svg version="1.1" xmlns="http://www.w3.org/2000/svg" width="32" height="32" viewBox="0 0 32 32">
<title>weaver_of_the_cosmos</title>
<path d="M5.134 21.807c0.013-0.006 0.026-0.013 0.038-0.016-0.043 0.032-0.087 0.067-0.129 0.102 0.029-0.029 0.059-0.062 0.092-0.085zM5.479 21.352c0.088-0.173 0.199-0.331 0.296-0.5 0.067-0.118 0.12-0.245 0.183-0.365 0.096-0.183 0.204-0.36 0.301-0.542 0.026-0.049 0.052-0.098 0.078-0.147-0.022 0.048-0.045 0.098-0.067 0.147-0.117 0.254-0.227 0.512-0.354 0.76-0.046 0.091-0.112 0.191-0.148 0.287-0.006 0.019-0.016 0.033-0.016 0.055 0.006-0.010 0.016-0.013 0.029-0.016 0.081 0.084 0.126-0.038 0.177-0.126 0.060-0.102 0.108-0.208 0.151-0.318 0.048-0.125 0.076-0.267 0.154-0.38 0.059-0.085 0.122-0.163 0.172-0.254 0.050-0.092 0.096-0.189 0.154-0.277 0.113-0.171 0.224-0.341 0.333-0.514 0.090-0.138 0.151-0.291 0.231-0.432-0.006 0.029-0.016 0.059-0.022 0.087-0.078 0.275-0.177 0.544-0.251 0.82-0.072 0.267-0.134 0.536-0.222 0.799-0.070 0.218-0.165 0.424-0.25 0.635-0.109 0.050-0.219 0.099-0.329 0.148-0.277 0.125-0.524 0.3-0.773 0.473 0 0.001 0 0.001-0.001 0.001 0.013-0.029 0.016-0.060 0.036-0.098 0.042-0.083 0.096-0.159 0.138-0.244zM8.393 16.529c0.077-0.141 0.132-0.294 0.203-0.438 0.052-0.107 0.111-0.209 0.167-0.314 0.067 0.143 0.134 0.287 0.206 0.429 0.222 0.446 0.45 0.882 0.695 1.315 0.013 0.092 0.029 0.184 0.045 0.276-0.061 0.080-0.121 0.161-0.177 0.244-0.121 0.183-0.229 0.372-0.355 0.551-0.203 0.289-0.412 0.569-0.602 0.866-0.085 0.133-0.162 0.269-0.238 0.406-0.060 0.106-0.131 0.207-0.173 0.32-0.010 0.022-0.013 0.042-0.016 0.064-0.133 0.057-0.263 0.125-0.396 0.182-0.191 0.082-0.378 0.171-0.564 0.263 0-0.128 0-0.253 0.022-0.383 0.033-0.197 0.052-0.395 0.088-0.592 0.042-0.233 0.056-0.473 0.087-0.708 0.038-0.283 0.077-0.566 0.108-0.85 0.010-0.016 0.019-0.032 0.029-0.047 0.105-0.178 0.202-0.363 0.294-0.546 0.112-0.222 0.204-0.458 0.34-0.666 0.081-0.122 0.167-0.242 0.238-0.371zM7.193 14.266c-0.076-0.298-0.125-0.6-0.204-0.897-0.122-0.457-0.325-0.881-0.504-1.317-0.077-0.185-0.154-0.373-0.227-0.561-0.066-0.172-0.146-0.332-0.188-0.513-0.010-0.036-0.016-0.073-0.026-0.111 0.060 0.032 0.12 0.066 0.182 0.098 0.179 0.096 0.338 0.222 0.519 0.316 0.204 0.108 0.416 0.199 0.614 0.32 0.213 0.128 0.434 0.233 0.659 0.337 0.111 0.052 0.222 0.103 0.332 0.154 0.022 0.088 0.054 0.175 0.072 0.265 0.022 0.109 0.010 0.215 0.019 0.325 0.029 0.293 0.186 0.591 0.276 0.868 0.065 0.198 0.151 0.396 0.206 0.596-0.141 0.077-0.28 0.146-0.446 0.139-0.077-0.002-0.132-0.032-0.196-0.062-0.010-0.013-0.019-0.022-0.026-0.032-0.013-0.016-0.071-0.111-0.107-0.109-0.026 0.001-0.033 0.022-0.033 0.052-0.088-0.056-0.167-0.123-0.223-0.219-0.067-0.116-0.168-0.213-0.227-0.333-0.076-0.156-0.147-0.316-0.229-0.469-0.207-0.383-0.434-0.765-0.59-1.172-0.074-0.193-0.156-0.361-0.26-0.538-0.032-0.056-0.075-0.173-0.131-0.219 0.002 0.036-0.006 0.082 0 0.116 0.016 0.070 0.072 0.134 0.102 0.199 0.109 0.246 0.194 0.5 0.276 0.758 0.055 0.173 0.111 0.348 0.16 0.523 0.049 0.173 0.075 0.351 0.113 0.527 0.050 0.22 0.117 0.433 0.154 0.657 0.036 0.22 0.029 0.447 0.022 0.67-0.032-0.122-0.065-0.243-0.096-0.366zM9.73 12.674c0.161 0.066 0.315 0.141 0.469 0.218-0.040 0.054-0.076 0.116-0.091 0.138-0.078 0.112-0.179 0.209-0.279 0.302-0.065 0.061-0.121 0.122-0.191 0.179-0.052 0.042-0.12 0.081-0.168 0.127-0.033 0.032-0.057 0.073-0.092 0.104-0.072 0.067-0.136 0.137-0.214 0.198-0.059 0.045-0.096 0.102-0.151 0.147-0.022-0.082-0.043-0.164-0.046-0.262-0.006-0.214-0.019-0.426-0.066-0.636-0.052-0.233-0.133-0.458-0.178-0.693-0.016-0.084-0.022-0.169-0.046-0.25 0.056 0.026 0.111 0.051 0.167 0.077 0.288 0.132 0.591 0.231 0.885 0.351zM21.509 13.536c-0.070 0.159-0.146 0.317-0.206 0.482-0.049 0.141-0.082 0.285-0.134 0.426-0.081 0.222-0.175 0.44-0.266 0.658-0.002-0.239-0.001-0.478 0.041-0.712 0.026-0.136 0.075-0.265 0.125-0.393 0.046-0.122 0.082-0.245 0.127-0.366 0.029-0.075 0.077-0.132 0.112-0.199 0.013-0.022 0.032-0.043 0.022-0.075 0.006-0.029 0.010-0.051 0.013-0.075 0.036-0.013 0.072-0.019 0.108-0.032 0.060-0.019 0.121-0.040 0.182-0.059-0.032 0.117-0.076 0.231-0.126 0.344zM22.302 18.724c0.122 0.174 0.255 0.334 0.391 0.499 0.245 0.301 0.523 0.567 0.809 0.826 0.019 0.062 0.042 0.126 0.066 0.183 0.003 0.010 0.006 0.019 0.013 0.029-0.013-0.006-0.022-0.013-0.033-0.019-0.144-0.075-0.28-0.163-0.426-0.236-0.126-0.065-0.26-0.114-0.387-0.18-0.059-0.029-0.117-0.056-0.177-0.083-0.036-0.054-0.072-0.108-0.101-0.165-0.055-0.107-0.096-0.222-0.148-0.329-0.131-0.265-0.227-0.538-0.359-0.802-0.067-0.133-0.123-0.272-0.199-0.402-0.013-0.022-0.029-0.047-0.045-0.072 0.022 0.022 0.042 0.047 0.062 0.071 0.183 0.22 0.371 0.443 0.535 0.68zM24.037 20.53c0.003 0 0.006 0 0.010 0 0.006 0.003 0.013 0.013 0.016 0.016l-0.029-0.016zM10.964 13.27c0.095 0.239 0.217 0.469 0.314 0.708 0.065 0.16 0.126 0.324 0.185 0.486-0.029 0.165-0.082 0.324-0.091 0.493-0.006 0.102-0.040 0.204-0.082 0.305-0.109 0.164-0.217 0.331-0.321 0.497-0.18 0.283-0.332 0.584-0.51 0.869-0.080 0.127-0.157 0.256-0.235 0.384-0.049-0.116-0.103-0.23-0.161-0.345-0.099-0.198-0.224-0.376-0.344-0.561-0.002-0.003-0.003-0.006-0.006-0.013-0.029-0.084-0.065-0.167-0.093-0.251-0.047-0.141-0.077-0.287-0.122-0.429-0.026-0.081-0.050-0.15-0.088-0.223-0.010-0.019-0.019-0.050-0.038-0.052-0.003 0.033-0.026 0.052-0.032 0.083-0.003 0.035 0.001 0.078 0.001 0.113 0 0.073 0.013 0.143 0.019 0.214-0.060-0.091-0.118-0.182-0.183-0.269-0.029-0.038-0.057-0.073-0.086-0.109 0.047-0.086 0.095-0.172 0.144-0.256 0.092-0.157 0.154-0.324 0.24-0.482 0.059-0.106 0.147-0.199 0.212-0.3 0.051-0.078 0.098-0.158 0.142-0.24 0.077-0.148 0.147-0.304 0.229-0.449 0.095-0.164 0.163-0.332 0.238-0.505 0.222 0.113 0.443 0.228 0.67 0.331zM20.178 15.125c-0.147-0.073-0.244-0.186-0.347-0.315-0.162-0.204-0.37-0.382-0.491-0.615-0.044-0.082-0.093-0.174-0.168-0.229 0.032 0.050 0.040 0.106 0.059 0.161 0.022 0.060 0.047 0.117 0.063 0.178 0.047 0.18 0.032 0.371 0.032 0.556 0 0.242 0.040 0.518-0.050 0.747-0.046 0.117-0.083 0.236-0.113 0.358-0.013 0.046-0.019 0.095-0.029 0.142-0.087-0.081-0.177-0.162-0.26-0.245-0.222-0.224-0.452-0.432-0.702-0.622-0.038-0.029-0.073-0.059-0.109-0.087 0.013-0.013 0.022-0.029 0.035-0.041 0.107-0.136 0.188-0.286 0.297-0.419 0.098-0.12 0.191-0.241 0.28-0.367 0.111-0.154 0.214-0.315 0.32-0.474 0.217-0.029 0.431-0.067 0.64-0.125 0.513-0.138 1.034-0.254 1.544-0.399-0.013 0.026-0.029 0.054-0.045 0.081-0.122 0.218-0.279 0.41-0.367 0.646-0.063 0.171-0.137 0.331-0.193 0.505-0.044 0.134-0.113 0.269-0.168 0.399-0.022 0.056-0.062 0.121-0.102 0.165-0.044 0.049-0.062 0.032-0.125 0zM12.799 17.517c0.051 0.088 0.099 0.179 0.148 0.267-0.016 0.122-0.029 0.244-0.049 0.366 0.003-0.003 0.003-0.006 0.010-0.013 0.054-0.047 0.12-0.085 0.162-0.144 0.026 0.041 0.052 0.081 0.080 0.121 0.078 0.109 0.154 0.224 0.225 0.341-0.409 0.066-0.846 0.081-1.243 0.21 0.016-0.082 0.032-0.163 0.051-0.243 0.075-0.297 0.143-0.595 0.192-0.897 0.019-0.114 0.022-0.228 0.033-0.342 0.006-0.076 0.022-0.151 0.040-0.225 0.114 0.188 0.244 0.366 0.352 0.557zM12.695 15.292c-0.019-0.043-0.041-0.086-0.062-0.128 0.188-0.121 0.387-0.227 0.584-0.331 0.141-0.075 0.286-0.129 0.436-0.182 0.141-0.049 0.262-0.125 0.393-0.191 0.12-0.059 0.254-0.078 0.375-0.134 0.105-0.049 0.21-0.116 0.312-0.172 0.050-0.029 0.099-0.050 0.147-0.075h0.082c0 0.002 0.001 0.006 0.001 0.006 0.029 0.142 0.046 0.285 0.078 0.427 0.033 0.148 0.078 0.294 0.123 0.438-0.078 0.063-0.142 0.14-0.204 0.218-0.184 0.231-0.355 0.472-0.497 0.73-0.165 0.3-0.304 0.61-0.473 0.906-0.219-0.255-0.437-0.506-0.632-0.782-0.114-0.161-0.227-0.324-0.347-0.478-0.069-0.088-0.108-0.196-0.175-0.28-0.016 0.049 0 0.106 0.013 0.154 0.022 0.080 0.029 0.158 0.051 0.236 0.019 0.082 0.026 0.165 0.038 0.248-0.073-0.209-0.152-0.416-0.241-0.614zM11.77 13.793c-0.013-0.029-0.029-0.057-0.042-0.086-0.035-0.065-0.077-0.122-0.121-0.18 0.049 0.016 0.097 0.037 0.146 0.054 0.209 0.070 0.428 0.108 0.64 0.172 0.397 0.122 0.816 0.207 1.228 0.262 0.34 0.047 0.698 0.067 1.042 0.066 0.029-0.001 0.060 0 0.090 0-0.022 0.010-0.045 0.016-0.063 0.026-0.078 0.026-0.147 0.040-0.227 0.055-0.101 0.019-0.192 0.062-0.287 0.095-0.116 0.038-0.224 0.067-0.334 0.126-0.087 0.047-0.174 0.087-0.269 0.121-0.121 0.042-0.246 0.055-0.367 0.092-0.076 0.022-0.143 0.056-0.223 0.062-0.174 0.013-0.347-0.081-0.48-0.186-0.143-0.112-0.315-0.191-0.443-0.322-0.041-0.042-0.086-0.085-0.13-0.128-0.052-0.076-0.106-0.152-0.159-0.227zM17.284 14.506c-0.167-0.146-0.336-0.287-0.504-0.429 0.143-0.002 0.286-0.006 0.431-0.022 0.314-0.029 0.626-0.062 0.938-0.102 0.188-0.022 0.378-0.043 0.57-0.067-0.154 0.168-0.33 0.32-0.499 0.467-0.183 0.161-0.373 0.316-0.563 0.47-0.126-0.103-0.25-0.209-0.373-0.317zM16.887 15.464c-0.263 0.26-0.546 0.512-0.767 0.809-0.059-0.259-0.112-0.52-0.178-0.778-0.043-0.173-0.108-0.335-0.174-0.5-0.059-0.146-0.099-0.296-0.165-0.438-0.075-0.161-0.146-0.321-0.224-0.479 0.309 0 0.617 0 0.926 0 0.070 0 0.141 0 0.21 0 0.167 0.213 0.346 0.419 0.519 0.627 0.103 0.125 0.204 0.25 0.306 0.375-0.156 0.123-0.312 0.244-0.453 0.384zM18.573 16.485c0.087 0.086 0.171 0.177 0.254 0.266-0.032 0.049-0.065 0.096-0.106 0.141-0.219 0.234-0.391 0.536-0.536 0.82-0.073 0.142-0.109 0.298-0.165 0.446-0.013 0.035-0.056 0.105-0.051 0.142 0.006 0.052 0.022 0.042 0.074 0.044 0.113 0.002 0.142-0.072 0.207-0.157 0.042-0.056 0.106-0.109 0.137-0.171 0.026-0.050 0.035-0.072 0.077-0.112 0.047-0.045 0.070-0.090 0.099-0.149 0.045-0.095 0.092-0.156 0.157-0.236 0.073-0.095 0.125-0.193 0.208-0.28 0.065-0.067 0.097-0.138 0.152-0.21 0.003 0.003 0.013 0.003 0.016 0.010-0.003-0.003-0.010-0.010-0.013-0.013 0.062-0.080 0.152-0.136 0.218-0.213 0.066-0.075 0.108-0.118 0.203-0.159 0.054-0.026 0.105-0.051 0.156-0.075-0.054 0.258-0.118 0.514-0.177 0.772-0.060 0.263-0.086 0.534-0.144 0.798-0.039 0.169-0.081 0.342-0.101 0.515-0.469-0.060-0.933-0.153-1.399-0.229-0.057-0.010-0.114-0.016-0.172-0.022-0.003-0.090-0.016-0.179-0.026-0.269-0.032-0.25-0.063-0.505-0.138-0.747-0.107-0.341-0.121-0.702-0.206-1.048-0.016-0.060-0.033-0.118-0.051-0.177 0.065-0.080 0.127-0.161 0.186-0.246 0.090-0.133 0.189-0.258 0.29-0.382 0.271 0.327 0.549 0.642 0.851 0.943zM21.566 18.514c0.052 0.162 0.106 0.32 0.142 0.488 0.029 0.13 0.049 0.263 0.080 0.393-0.26-0.113-0.531-0.196-0.796-0.297-0.337-0.128-0.665-0.271-1.024-0.329-0.073-0.013-0.147-0.026-0.22-0.040 0.013-0.256 0.006-0.514 0.006-0.772 0-0.224-0.013-0.453 0.013-0.676 0.029-0.248 0.016-0.501 0.013-0.751 0.047-0.016 0.096-0.026 0.149-0.022 0.109 0.006 0.239 0.022 0.327 0.092 0.070 0.057 0.162 0.133 0.22 0.203 0.026 0.032 0.038 0.067 0.059 0.102 0.029 0.044 0.059 0.065 0.092 0.101 0.052 0.060 0.078 0.136 0.128 0.199 0.033 0.042 0.072 0.082 0.097 0.132 0.022 0.046 0.033 0.101 0.060 0.146 0.063 0.114 0.149 0.223 0.222 0.332 0.052 0.080 0.093 0.164 0.149 0.243 0.057 0.082 0.117 0.165 0.169 0.25 0.038 0.062 0.071 0.123 0.108 0.183 0.001 0.006 0.003 0.013 0.006 0.022zM13.49 17.767c0 0.003-0.002 0.006-0.003 0.010 0-0.002-0.001-0.006-0.002-0.010zM15.434 16.373c0.095 0.413 0.25 0.802 0.386 1.202 0.082 0.246 0.159 0.491 0.235 0.739-0.084-0.006-0.169-0.016-0.252-0.019-0.283-0.019-0.578-0.016-0.86 0-0.163 0.010-0.32 0.022-0.483 0.022-0.111-0.001-0.219 0.006-0.329 0.022-0.112 0.016-0.22 0.044-0.332 0.063-0.006 0.001-0.013 0.001-0.019 0.001 0.069-0.095 0.126-0.201 0.175-0.301 0.045-0.093 0.096-0.184 0.148-0.274 0.191 0.039 0.372 0.091 0.56 0.156 0.099 0.035 0.23 0.103 0.337 0.107 0.060 0.002 0.070-0.013 0.042-0.059-0.022-0.039-0.067-0.084-0.096-0.121-0.033-0.041-0.081-0.071-0.112-0.112-0.013-0.019-0.016-0.042-0.029-0.061-0.022-0.038-0.057-0.047-0.090-0.073-0.054-0.044-0.088-0.093-0.132-0.147-0.055-0.065-0.106-0.133-0.158-0.199 0.054-0.084 0.107-0.171 0.157-0.256 0.299-0.514 0.433-1.089 0.631-1.644 0.013-0.035 0.029-0.070 0.042-0.103 0.073 0.348 0.097 0.707 0.177 1.055zM16.696 18.346c-0.002-0.016-0.003-0.029-0.006-0.040-0.019-0.117-0.095-0.231-0.138-0.342-0.097-0.248-0.153-0.509-0.21-0.769 0.078-0.103 0.186-0.188 0.271-0.283 0.116-0.127 0.223-0.26 0.334-0.391 0.055 0.395 0.162 0.776 0.271 1.161 0.067 0.235 0.151 0.464 0.229 0.697l0.002 0.003c-0.25-0.022-0.502-0.033-0.753-0.038zM9.193 19.869c-0.022 0.010-0.046 0.016-0.070 0.022 0.029-0.051 0.061-0.102 0.097-0.149 0.126-0.172 0.287-0.312 0.415-0.485 0.098-0.134 0.178-0.277 0.26-0.42 0.013 0.055 0.019 0.111 0.033 0.165 0.019 0.081 0.040 0.162 0.067 0.242 0.083 0.154 0.125 0.067 0.201 0.013 0.063-0.045 0.141-0.083 0.212-0.116 0.116-0.054 0.251-0.133 0.38-0.123-0.046-0.036-0.042-0.103-0.070-0.149-0.062-0.106-0.138-0.2-0.196-0.31-0.077-0.144-0.114-0.302-0.173-0.457 0.196-0.325 0.36-0.659 0.534-0.998 0.108-0.21 0.224-0.419 0.336-0.628 0.178-0.254 0.351-0.516 0.56-0.746 0.033-0.036 0.070-0.065 0.105-0.096 0.105 0.29 0.215 0.579 0.336 0.862-0.006 0.108-0.019 0.215-0.042 0.314-0.132 0.531-0.259 1.064-0.365 1.602-0.026 0.131-0.048 0.264-0.072 0.396-0.164 0.062-0.329 0.123-0.484 0.203-0.248 0.126-0.506 0.225-0.763 0.332-0.273 0.114-0.536 0.248-0.81 0.358-0.16 0.066-0.328 0.108-0.49 0.168zM3.28 23.834c0.231-0.136 0.48-0.238 0.708-0.378 0.174-0.108 0.35-0.22 0.521-0.334 0.146-0.097 0.29-0.204 0.419-0.324 0.112-0.102 0.222-0.195 0.345-0.286 0.113-0.084 0.254-0.139 0.376-0.212 0.295-0.175 0.608-0.328 0.926-0.458 0.338-0.139 0.662-0.309 0.998-0.452 0.424-0.179 0.816-0.431 1.246-0.595 0.234-0.090 0.449-0.179 0.672-0.295 0.193-0.099 0.386-0.201 0.591-0.273 0.3-0.104 0.627-0.172 0.936-0.243 0.191-0.042 0.377-0.096 0.568-0.132 0.291-0.055 0.587-0.133 0.882-0.161 0.175-0.016 0.353 0.010 0.53-0.006 0.185-0.019 0.371-0.045 0.555-0.070 0.285-0.040 0.56-0.087 0.84-0.147 0.246-0.051 0.489-0.055 0.74-0.055 0.177 0 0.351-0.003 0.528 0.016 0.121 0.013 0.24 0.036 0.362 0.038 0.184 0.001 0.369-0.002 0.555-0.001 0.229 0 0.453 0.006 0.682 0.019 0.128 0.006 0.256 0.003 0.384 0.010 0.16 0.010 0.32 0.040 0.479 0.057 0.847 0.091 1.669 0.299 2.498 0.491 0.171 0.041 0.346 0.069 0.516 0.111 0.137 0.033 0.273 0.078 0.41 0.111 0.142 0.035 0.286 0.045 0.428 0.078 0.111 0.026 0.22 0.026 0.332 0.047 0.286 0.057 0.566 0.146 0.845 0.231 0.493 0.152 0.977 0.342 1.464 0.517 0.62 0.222 1.237 0.473 1.837 0.747 0.51 0.234 1.025 0.474 1.505 0.77 0.338 0.209 0.653 0.455 0.989 0.671 0.123 0.080 0.25 0.152 0.372 0.231 0.065 0.042 0.129 0.090 0.201 0.121 0.032 0.013 0.144 0.060 0.188 0.051 0.019-0.113 0.075-0.123 0.141-0.127 0.019-0.001 0.036 0.003 0.054-0.002-0.044-0.077-0.184-0.117-0.258-0.157-0.215-0.113-0.427-0.23-0.646-0.336-0.347-0.167-0.702-0.312-1.047-0.484-0.315-0.158-0.625-0.33-0.941-0.487-0.325-0.162-0.632-0.356-0.959-0.514-0.53-0.256-1.044-0.553-1.56-0.832-0.044-0.026-0.087-0.051-0.131-0.076-0.016-0.029-0.056-0.056-0.074-0.072-0.040-0.042-0.078-0.086-0.117-0.128 0.013-0.006 0.019-0.016 0.022-0.041 0.006-0.044-0.036-0.102-0.052-0.14-0.059-0.134-0.091-0.276-0.126-0.418-0.094-0.387-0.193-0.774-0.291-1.16 0.054 0.052 0.108 0.105 0.165 0.157 0.129 0.122 0.252 0.25 0.383 0.37-0.066-0.105-0.131-0.209-0.203-0.31-0.106-0.149-0.195-0.296-0.28-0.458-0.088-0.172-0.205-0.325-0.291-0.497-0.032-0.066-0.052-0.14-0.083-0.206-0.038-0.082-0.088-0.157-0.125-0.239-0.065-0.151-0.093-0.315-0.146-0.47-0.056-0.162-0.132-0.34-0.162-0.509-0.026-0.146-0.035-0.293-0.057-0.438-0.022-0.151-0.019-0.305-0.033-0.455-0.016-0.165-0.010-0.337 0.003-0.501 0.022-0.25 0.074-0.485 0.164-0.719 0.052-0.134 0.096-0.264 0.18-0.381 0.239-0.326 0.548-0.584 0.834-0.866 0.077-0.076 0.157-0.136 0.246-0.194 0.106-0.069 0.195-0.153 0.301-0.22 0.225-0.144 0.458-0.275 0.676-0.432 0.106-0.077 0.219-0.129 0.331-0.196 0.113-0.069 0.212-0.152 0.335-0.206 0.136-0.061 0.253-0.126 0.367-0.22 0.082-0.069 0.159-0.144 0.246-0.207 0.197-0.141 0.398-0.28 0.62-0.377 0.159-0.070 0.314-0.136 0.467-0.219 0.109-0.059 0.233-0.093 0.34-0.156 0.046-0.026 0.078-0.073 0.131-0.090 0.013-0.003 0.059-0.019 0.088-0.029-0.081 0.006-0.158 0.026-0.239 0.046-0.096 0.029-0.179 0.062-0.255 0.126-0.098 0.082-0.214 0.121-0.33 0.172-0.218 0.093-0.424 0.201-0.637 0.308-0.129 0.063-0.27 0.096-0.392 0.173-0.121 0.077-0.235 0.162-0.362 0.229-0.245 0.127-0.468 0.28-0.707 0.419-0.157 0.092-0.326 0.158-0.482 0.254-0.177 0.108-0.362 0.2-0.538 0.309-0.267 0.164-0.487 0.361-0.688 0.6-0.153 0.182-0.382 0.276-0.55 0.439-0.099 0.096-0.193 0.195-0.296 0.286-0.095 0.082-0.194 0.153-0.27 0.252-0.085 0.112-0.171 0.23-0.246 0.348-0.072 0.108-0.090 0.233-0.123 0.357-0.067 0.248-0.076 0.493-0.075 0.749 0 0.116-0.003 0.233-0.002 0.348 0.003 0.112 0.051 0.215 0.070 0.325 0.022 0.121 0.075 0.208 0.132 0.314 0.080 0.147 0.144 0.301 0.225 0.448 0.077 0.138 0.173 0.26 0.276 0.376 0.006 0.029 0.016 0.056 0.022 0.084 0.083 0.315 0.159 0.624 0.266 0.932 0.092 0.266 0.171 0.536 0.255 0.804 0.026 0.085 0.062 0.167 0.096 0.249-0.066-0.077-0.131-0.154-0.2-0.229-0.097-0.102-0.198-0.201-0.29-0.309-0.111-0.127-0.208-0.264-0.316-0.393-0.142-0.168-0.308-0.314-0.451-0.482-0.116-0.138-0.227-0.28-0.35-0.412-0.105-0.112-0.213-0.22-0.323-0.327-0.037-0.083-0.076-0.165-0.111-0.25-0.016-0.049-0.035-0.097-0.055-0.146-0.066-0.162-0.132-0.322-0.164-0.495-0.039-0.208-0.103-0.4-0.158-0.604-0.026-0.098-0.040-0.196-0.047-0.294 0.090-0.148 0.183-0.295 0.27-0.439 0.163-0.271 0.285-0.56 0.446-0.831 0.098-0.167 0.203-0.329 0.297-0.498 0.086-0.154 0.21-0.31 0.275-0.476 0.047-0.121 0.077-0.25 0.122-0.372 0.016-0.049 0.036-0.099 0.055-0.149 0.36-0.127 0.716-0.264 1.065-0.417 0.38-0.165 0.753-0.341 1.12-0.533 0.376-0.195 0.745-0.406 1.124-0.598 0.373-0.191 0.772-0.33 1.159-0.489 0.080-0.032 0.157-0.067 0.236-0.101-0.047 0.016-0.093 0.032-0.141 0.047-0.291 0.092-0.578 0.196-0.866 0.295-0.262 0.087-0.531 0.189-0.782 0.302-0.106 0.049-0.219 0.081-0.326 0.128-0.075 0.033-0.147 0.072-0.224 0.098-0.149 0.052-0.301 0.091-0.452 0.136-0.092 0.029-0.178 0.067-0.273 0.090-0.097 0.022-0.193 0.043-0.287 0.075-0.193 0.063-0.396 0.091-0.592 0.144-0.443 0.12-0.882 0.254-1.332 0.357-0.14 0.032-0.273 0.083-0.411 0.121-0.125 0.033-0.254 0.049-0.381 0.067-0.242 0.036-0.478 0.095-0.721 0.127-0.331 0.045-0.665 0.069-0.996 0.112-0.256 0.033-0.513 0.070-0.77 0.095-0.993 0.097-1.994 0.060-2.978-0.109-0.341-0.059-0.682-0.116-1.025-0.162-0.185-0.026-0.371-0.035-0.553-0.075-0.167-0.036-0.327-0.045-0.494-0.073-0.212-0.036-0.426-0.075-0.635-0.127-0.432-0.107-0.861-0.224-1.294-0.328-0.293-0.069-0.586-0.125-0.877-0.196-0.132-0.032-0.269-0.052-0.396-0.106-0.106-0.045-0.209-0.101-0.316-0.148-0.262-0.113-0.529-0.212-0.784-0.342-0.302-0.154-0.607-0.301-0.908-0.458-0.235-0.123-0.489-0.214-0.721-0.344-0.397-0.223-0.794-0.439-1.182-0.676-0.139-0.083-0.289-0.148-0.428-0.231-0.072-0.042-0.142-0.086-0.217-0.125-0.178-0.092-0.366-0.183-0.554-0.255-0.196-0.076-0.402-0.118-0.592-0.209-0.101-0.047-0.198-0.102-0.3-0.146-0.111-0.046-0.229-0.075-0.34-0.123-0.24-0.106-0.484-0.222-0.708-0.362-0.2-0.127-0.382-0.279-0.584-0.407-0.154-0.097-0.298-0.21-0.45-0.311-0.062-0.041-0.125-0.082-0.186-0.125-0.022-0.016-0.055-0.049-0.081-0.054 0.125 0.125 0.251 0.244 0.384 0.357 0.169 0.143 0.347 0.311 0.534 0.431 0.331 0.213 0.63 0.458 0.938 0.701 0.199 0.154 0.406 0.296 0.594 0.464 0.045 0.039 0.086 0.078 0.128 0.118 0.016 0.039 0.032 0.076 0.047 0.108 0.062 0.139 0.136 0.274 0.196 0.414 0.046 0.108 0.086 0.219 0.136 0.325 0.091 0.188 0.202 0.366 0.29 0.555 0.081 0.171 0.164 0.34 0.245 0.51 0.183 0.38 0.362 0.753 0.563 1.123 0.18 0.332 0.319 0.686 0.5 1.018 0.156 0.283 0.326 0.559 0.454 0.854 0.105 0.241 0.229 0.47 0.342 0.706-0.026 0.992-0.138 1.978-0.354 2.947-0.042 0.073-0.086 0.147-0.134 0.218-0.122 0.175-0.269 0.331-0.396 0.503-0.137 0.185-0.254 0.383-0.375 0.579-0.121 0.197-0.253 0.383-0.381 0.575-0.169 0.255-0.305 0.53-0.448 0.8-0.162 0.304-0.329 0.606-0.487 0.912-0.056 0.109-0.159 0.234-0.177 0.357-0.006 0.059-0.010 0.133 0.076 0.103 0.022-0.006 0.022-0.022 0.040-0.032 0.032-0.019 0.066-0.026 0.102-0.038 0.006-0.002 0.013-0.003 0.019-0.010-0.039 0.029-0.077 0.056-0.116 0.084-0.144 0.109-0.293 0.227-0.427 0.346-0.056 0.051-0.118 0.092-0.172 0.147-0.042 0.044-0.083 0.091-0.132 0.127-0.125 0.093-0.208 0.218-0.318 0.326-0.222 0.214-0.458 0.412-0.678 0.627-0.113 0.109-0.238 0.209-0.33 0.338-0.081 0.113-0.178 0.22-0.277 0.319-0.029 0.029-0.060 0.060-0.088 0.088 0.134-0.085 0.265-0.177 0.399-0.263 0.218-0.137 0.433-0.275 0.655-0.404z"></path>
<path d="M28.48 10.264c0.196-0.097 0.398-0.177 0.591-0.275 0.299-0.153 0.593-0.3 0.904-0.428 0.035-0.013 0.070-0.026 0.103-0.040-0.137 0.010-0.267 0.041-0.398 0.095-0.186 0.075-0.367 0.178-0.546 0.27-0.363 0.186-0.724 0.358-1.101 0.515-0.318 0.132-0.635 0.27-0.953 0.404 0.308-0.099 0.612-0.203 0.912-0.324 0.165-0.067 0.329-0.138 0.489-0.218z"></path>
<path d="M24.815 19.945c0.194 0.21 0.422 0.389 0.638 0.574 0.182 0.153 0.348 0.325 0.542 0.462 0.239 0.167 0.467 0.34 0.663 0.556 0.099 0.108 0.199 0.209 0.311 0.304 0.159 0.137 0.325 0.265 0.484 0.402 0.041 0.036 0.086 0.096 0.144 0.108 0.002-0.016-0.003-0.032-0.022-0.041-0.076-0.118-0.077-0.109-0.078-0.102-0.054 0.010-0.105-0.055-0.136-0.085-0.052-0.052-0.103-0.107-0.156-0.158-0.173-0.165-0.384-0.28-0.555-0.452-0.158-0.159-0.312-0.324-0.486-0.465-0.163-0.133-0.316-0.255-0.448-0.421-0.18-0.228-0.384-0.462-0.599-0.661-0.258-0.239-0.565-0.419-0.826-0.655-0.006-0.006-0.013-0.013-0.019-0.019 0.042 0.066 0.083 0.133 0.132 0.196 0.123 0.163 0.273 0.309 0.411 0.458z"></path>
</svg>
