<!-- Generated by IcoMoon.io -->
<svg version="1.1" xmlns="http://www.w3.org/2000/svg" width="33" height="32" viewBox="0 0 33 32">
<title>where_doom_awaits</title>
<path d="M12.88 18.796c-0.615 1.217-2.038 1.67-2.552 2.906-0.58 1.392 0.096 2.851-1.035 4.081-0.625 0.687-1.655 0.797-2.346 1.398-0.521 0.455-0.868 1.337-1.368 1.812-1.090 1.033-1.977 1.321-3.088 1.236 0.005 0.045 0.010 0.096 0.015 0.146 0.196 0.227 0.404 0.439 0.611 0.646 0.585-0.005 1.15 0.071 1.7 0.227 0.535-0.116 1.014-0.217 1.373-0.243-0.127-1.932 1.906-1.326 2.986-2.007 1.040-0.651 1.922-1.711 2.194-3.128 0.288-1.498 0.050-2.659 0.656-4.168 0.389-0.964 1.069-1.68 0.852-2.906z"></path>
<path d="M29.207 30.42c-0.358-0.953-0.778-2.552-1.524-3.148-0.646-0.515-1.745-0.047-2.432-0.727-0.847-0.832-0.847-2.739-1.295-3.819-0.812-1.958-2.705-2.422-2.781-4.748-0.474 0.505-1.13 0.656-1.75 0.585 1.316 1.015 1.609 2.366 2.224 3.88 0.455 1.121 0.626 2.548 1.135 3.573 0.807 1.625 2.498 1.321 3.623 2.543 0.847 0.923 1.009 2.613 2.8 1.861z"></path>
<path d="M1.579 13.534c1.559 0.015 4.658 2.729 5.838 3.496 1.271 0.823 4.314 2.538 3.976 4.541 0.227-0.021 0.227 0.085-0.545 0.035-1.16-1.71-1.932-2.517-3.738-2.665-1.13-0.090-1.802 0.132-2.786-0.62-1.726-1.321-4.636-3.854-1.977-5.59 2.543-1.66 5.823 0.121 8.491 0.267 1.434 0.075 2.8-0.465 4.137-0.424 1.5 0.045 2.453 0.595 3.951 0.413 1.943-0.242 3.936-0.353 5.823 0.217 2.154 0.641 4.41 0.616 6.665 0.847 0.201 3.719-11.13 0.147-12.921-0.030-2.972-0.288-5.606 0.045-8.581 0.207-2.892 0.156-5.762-0.413-8.668-0.413z"></path>
<path d="M20.287 18.942c1.044-0.398 1.68 0.227 2.608 0.161 1.236-0.080 2.578-0.943 3.744-1.403 1.175-0.464 3.703-1.075 4.101-2.618-2.351-0.196-3.859 0.641-5.953 1.312-1.432 0.459-2.916 1.998-4.5 2.547z"></path>
<path d="M11.533 20.582c2.347 0 4.083-0.54 6.307-0.828 0.812-0.106 2.654 0.682 3.316 0.182 1.498-1.13-3.538-1.392-3.861-1.413-1.715-0.101-3.87-0.030-5.762 2.059z"></path>
<path d="M6.998 5.8c0.807-0.571 1.12-1.509 1.821-2.215 0.887-0.903 1.68-1.115 2.916-1.559 1.922-0.682 3.536-1.226 5.721-0.954 1.135 0.142 1.024 0.061 1.842 0.526 0.741 0.424 0.948 1.089 1.872 1.302 1.246 0.292 2.038-0.253 3.149 0.67 0.964 0.802 2.432 3.33 2.276 4.576-0.515-0.564-1.328-0.828-2.12-0.736-0.056-1.71-3.279-2.675-4.571-3.244-1.918-0.852-4.238-1.423-6.368-1.009-1.821 0.358-2.986 1.125-4.278 2.265-0.843 0.741-2.14 2.714-3.321 2.719-0.464-1.644 1.444-1.68 1.060-2.34z"></path>
<path d="M15.343 21.975c0.070 1.892-2.003 4.37-2.736 6.090-0.802 1.897-1.705 2.382-2.991 3.936 5.46-0.182 5.307-6.034 6.614-9.808-0.267 0.021-0.217-0.096-0.887-0.217z"></path>
<path d="M18.456 22.162c-0.212 0.065-0.309 0.212-0.55 0.207-0.958 2.774 1.312 8.35 3.522 9.036 0.085-0.172 0.004-0.449 0.014-0.635 0.081 0.056 0.142 0.353 0.273 0.267-0.13-1.035-0.731-1.231-1.125-1.968-0.368-0.701-0.509-1.564-0.741-2.366-0.505-1.72-1.212-3.647-1.392-4.54z"></path>
</svg>
