<!-- Generated by IcoMoon.io -->
<svg version="1.1" xmlns="http://www.w3.org/2000/svg" width="39" height="32" viewBox="0 0 39 32">
<title>whippoorwills</title>
<path d="M3.635 9.909c-0.077 0.073 0.091 0.021 0.197-0.048 0.292-0.163 0.572-0.461 0.846-0.677 0.374-0.273 0.514-0.648 0.825-1.003 0.203-0.235 0.241-0.481 0.524-0.672 0.586-0.413 1.282-0.509 1.863-0.97 0.897-0.701 1.748-1.114 2.703-1.71 1.037-0.633 2.627-1.335 3.793-1.527 1.114-0.192 2.257-0.317 3.375-0.562 1.191-0.254 2.103-0.283 3.304-0.197 1.023 0.073 1.771 0.441 2.766 0.581 0.321 0.043 0.667 0.177 0.955 0.326 0.336 0.188 0.398 0.37 0.763 0.504 0.524 0.193 1.080 0.375 1.537 0.75 0.763 0.615 1.723 1.071 2.363 1.862 0.322 0.395 0.010 0.567 0.292 0.922 0.284 0.347 0.874 0.76 1.239 1.009-0.086 0.374 0.418 0.499 0.557 0.758 0.091 0.177 0.048 0.418 0.163 0.61-0.403 0.287-0.797-0.524-1.013-0.801-0.495-0.654-1.206-1.143-1.791-1.662-0.75-0.663-1.431-1.421-2.415-1.781-1.455-0.524-2.823-1.191-4.327-1.619-1.162-0.331-2.439-0.484-3.648-0.461-0.538 0.014-1.080-0.028-1.614-0.028-0.489 0-1.325-0.154-1.771 0.116-0.096 0.058-0.106 0.245-0.211 0.326-0.307 0.216-0.73 0.254-1.076 0.342-0.884 0.216-1.887 0.283-2.703 0.773-0.274 0.162-0.461 0.427-0.715 0.605-0.433 0.307-0.971 0.428-1.422 0.72-0.643 0.431-0.854 1.157-1.541 1.454-0.615 0.265-1.123 0.49-1.646 0.932-0.322 0.274-0.327 0.586-0.72 0.778-0.317 0.149-0.548 0.235-0.707 0.567-0.154 0.327-0.134 0.816-0.517 0.902-0.289 0.063-0.707 0.231-0.596-0.124 0.043-0.245 0.106-0.486 0.091-0.725 0.125-0.11 0.332-0.178 0.279-0.269z"></path>
<path d="M32.079 10.149c-0.216-0.096-0.975 0.476-1.234 0.634-0.615 0.38-1.158 0.801-1.839 0.922-0.975 0.168-2.007 0.504-2.934 0.859-0.811 0.307-1.407 0.778-2.128 1.201-0.388 0.23-0.882 0.23-1.267 0.476-0.35 0.225-0.524 0.671 0.058 0.676 0.173-0.298 0.836-0.547 1.162-0.749 0.519-0.317 1.052-0.476 1.551-0.691 0.37-0.154 0.821-0.423 1.196-0.586 0.595-0.254 1.262-0.336 1.91-0.538 1.858-0.58 3.952-0.278 5.695 0.538 0.803 0.38 1.383 0.95 1.614 1.695 0.114-0.586 0.124-0.801-0.145-1.315-0.202-0.365-0.25-0.725-0.431-1.067-0.494-0.96-1.436-1.579-2.232-2.050-0.312-0.177-0.994-0.653-0.975-0.007z"></path>
<path d="M30.552 12.54c-0.451 0.25-0.431 1.282-0.365 1.733 0.068 0.436 0.015 0.821 0.044 1.262 0.043 0.538 0.312 0.947 0.519 1.436 0.446 1.028 0.882 2.055 1.305 3.059 0.499 1.195 1.066 2.285 1.229 3.567 0.091 0.739 0.514 1.469 0.476 2.232-0.019 0.38-0.284 0.639-0.322 1.014-0.413 0.071-0.514 0.24-0.634-0.216-0.109-0.428 0.097-0.903 0.030-1.312-0.188-1.094-0.6-2.194-0.798-3.322-0.215-1.205-0.374-2.199-1.041-3.231-0.312-0.474-0.697-0.874-0.927-1.421-0.259-0.595-0.854-1.411-0.763-2.073 0.043-0.322 0.297-0.659 0.384-0.985 0.068-0.25 0.043-0.562 0.096-0.783 0.077-0.302 0.36-0.841 0.768-0.96z"></path>
<path d="M23.47 14.442c0.302 0.307 0.451 0.667 0.575 1.094 0.193 0.634 0.332 1.042 0.654 1.624 0.35 0.615 0.575 1.358 0.935 1.983 0.284 0.494 0.481 0.658 0.567 1.219 0.053 0.327 0.073 0.667 0.015 0.902 0.187-1.041-0.398-1.579-0.735-2.472-0.139-0.365-0.192-0.634-0.422-0.956-0.183-0.263-0.385-0.489-0.505-0.792-0.22-0.562-0.154-1.171-0.379-1.71-0.111-0.254-0.337-0.431-0.456-0.677-0.096-0.192-0.068-0.393-0.197-0.504 0.056 0.068 0.124 0.028-0.053 0.289z"></path>
<path d="M23.989 14.024c0.34-0.068 0.859 0.989 1.076 1.297 0.436 0.595 0.686 1.084 0.917 1.814 0.225 0.745 0.681 1.138 0.749 1.944 0.048 0.572 0.292 1.234 0.192 1.815 0.125-0.687 0.231-1.268 0.082-1.959-0.159-0.778-0.707-1.368-0.97-2.093-0.241-0.672-0.567-1.148-0.932-1.758-0.289-0.466-0.548-0.902-0.831-1.358-0.096 0.014-0.192 0.071-0.283 0.298z"></path>
<path d="M24.665 13.539c0.385 0.010 1.196 1.407 1.402 1.786 0.35 0.639 0.841 1.181 1.224 1.796 0.269 0.438 0.451 0.702 0.538 1.186 0.048 0.298 0.101 0.753 0.21 1.028 0.183 0.446 0.601 0.826 0.735 1.302-0.283-1.264-0.687-2.68-1.431-3.755-0.461-0.667-1.118-1.302-1.31-2.103-0.135-0.557-0.37-1.345-1.032-1.393 0.139-0.014 0.278 0 0.413 0.039z"></path>
<path d="M25.933 13.001c0.139 0.537 0.869 0.897 1.137 1.398 0.403 0.744 0.682 1.339 1.268 1.968 0.177 0.187 0.245 0.201 0.384 0.403 0.091 0.121 0.183 0.327 0.269 0.471 0.159 0.259 0.269 0.547 0.427 0.793 0.312 0.494 0.697 1.008 0.922 1.565-0.038-0.287-0.014-0.605-0.104-0.884-0.159-0.494-0.601-0.849-0.846-1.292-0.312-0.565-0.489-1.267-0.902-1.8-0.447-0.562-0.841-1.037-1.234-1.647-0.211-0.337-0.663-0.927-1.32-0.975z"></path>
<path d="M30.043 15.997c-0.043-0.427-0.519-0.796-0.753-1.123-0.264-0.379-0.499-0.835-0.816-1.176-0.388-0.427-0.907-0.696-1.388-0.993 0.667 0.461 1.118 1.267 1.705 1.849 0.398 0.393 0.778 1.205 1.253 1.444z"></path>
<path d="M26.98 12.612c0.284 0.092 0.486 0.236 0.763 0.37 0.077 0.043 0.159 0.082 0.236 0.116-0.37-0.279-0.755-0.528-1.153-0.701z"></path>
<path d="M30.475 14.672c-0.428-0.528-0.735-1.219-1.282-1.608-0.408-0.289-0.816-0.457-1.249-0.654 0.5 0.37 0.97 0.808 1.412 1.196 0.436 0.38 0.572 0.826 0.965 1.292 0.379 0.451 0.922 0.806 1.34 1.205 0.393 0.38 0.797 0.755 1.195 1.123-0.149-0.159-0.297-0.331-0.456-0.494-0.653-0.687-1.353-1.354-1.925-2.060z"></path>
<path d="M29.611 12.344c-0.101-0.096-0.193-0.188-0.284-0.294l0.025 0.135c-0.178-0.091-0.38-0.149-0.605-0.14 0.24 0.039 0.441 0.135 0.628 0.251l0.019 0.124c0.116 0.216 0.297 0.355 0.436 0.562 0.236 0.327 0.413 0.71 0.697 1.013 0.269 0.289 0.58 0.567 0.879 0.841 0.23 0.216 0.355 0.499 0.58 0.682-0.014-0.5-0.509-0.894-0.849-1.206-0.38-0.34-0.494-0.653-0.768-1.080-0.111-0.163-0.226-0.326-0.345-0.479 0.076 0.061 0.167 0.114 0.259 0.177-0.13-0.106-0.259-0.216-0.39-0.322-0.091-0.101-0.187-0.187-0.288-0.263z"></path>
<path d="M36.372 16.069c-0.763-0.446-1.579-0.682-2.372-1.085-0.768-0.398-1.623-0.744-2.363-1.2-0.451-0.279-0.859-0.567-1.31-0.836-0.015-0.014-0.030-0.014-0.043-0.021 0.336 0.254 0.691 0.499 1.023 0.735 0.567 0.428 1.205 0.922 1.824 1.219 0.894 0.433 1.854 0.692 2.756 1.1 0.12 0.048 0.259 0.109 0.413 0.182 0.025-0.038 0.038-0.068 0.073-0.096z"></path>
<path d="M3.247 21.289c-0.049 0.010 0.023 0.25 0.177 0.375 0.292 0.265 0.725 0.061 1.008 0.307 0.198 0.162 0.327 0.739 0.553 0.95 0.34 0.322 0.701 0.337 1.132 0.428 0.528 0.11 0.884 0.264 1.201 0.864 0.25 0.476 0.332 0.96 0.672 1.335 0.476 0.532 1.196 0.844 1.814 1.037 0.221 0.066 0.447 0.024 0.615 0.196 0.221 0.22 0.36 0.643 0.697 0.844 0.466 0.279 2.64 1.72 3.101 1.042 0.461 1.305 2.022 1.527 2.914 1.829 1.123 0.385 2.453 0.745 3.654 0.581 0.547-0.082 1.056-0.567 1.561-0.672 0.542-0.11 1.391 0.307 1.963 0.37 0.624 0.058 1.066 0.024 1.685-0.245 0.25-0.11 0.524-0.274 0.76-0.15-0.294 0.385-0.682 0.509-1.024 0.576-0.724 0.125-1.421 0.337-2.151 0.393-0.273 0.021-0.83 0.241-1.061 0.106-0.139-0.086-0.116-0.469-0.259-0.499-0.167-0.038-0.297 0.259-0.456 0.37-0.643 0.428-1.363 0.504-2.031 0.567-0.927 0.091-2.315 0.293-3.083-0.327-0.355-0.283-0.451-0.474-0.874-0.527-0.509-0.048-1.186-0.021-1.637-0.375-0.302-0.245-0.393-0.71-0.72-0.851-0.379-0.158-0.907 0.058-1.32-0.043-0.393-0.101-0.753-0.365-1.123-0.557-0.428-0.225-1.627-0.585-1.479-1.589-0.413-0.418-1.239-0.11-1.738-0.34-0.534-0.245-1.277-0.61-1.537-1.378-0.135-0.395-0.077-0.894-0.347-1.176-0.268-0.269-0.792-0.245-1.114-0.476-0.408-0.302-0.648-0.524-0.801-1.056-0.034-0.125 0.066-0.307 0.015-0.466-0.058-0.149-0.264-0.241-0.357-0.317-0.686-0.61-1.627-1.244-1.444-2.64 0.124 0.658 0.835 1.637 1.032 1.512z"></path>
<path d="M21.4 9.324c0.048 0.061 0.091 0.124 0.134 0.192 0.019 0.035 0.044 0.071 0.068 0.11 0.134 0.101 0.269 0.202 0.398 0.207 0.005-0.024 0.010-0.043 0.019-0.068-0.125-0.317-0.12-0.783-0.279-1.114-0.129-0.279-0.869-1.115-1.219-0.927-0.509 0.273 0.292 0.768 0.442 0.932 0.154 0.177 0.302 0.417 0.436 0.667z"></path>
<path d="M19.816 8.498c0.221-0.519-0.744-0.98-1.090-1.239-0.25-0.183-1.123-0.692-1.262-0.202 0.471 0.269 0.994 0.423 1.469 0.686 0.365 0.216 0.519 0.495 0.884 0.755z"></path>
<path d="M17.957 8.272c0.519-0.648-3.337-1.637-4.172-1.166 0.62 0.519 1.411 0.355 2.141 0.413 0.696 0.058 1.35 0.355 2.031 0.753z"></path>
<path d="M13.469 8.916c0.010-0.035-0.096-0.058 0.010-0.159-0.202 0.066-0.649 0.265-0.528 0.552 0.144 0.35 0.874-0.068 1.071-0.149 0.581-0.231 1.186-0.428 1.811-0.514 0.317-0.048 0.72-0.010 0.98-0.096-0.922-0.159-2.214-0.298-3.342 0.365z"></path>
<path d="M18.136 12.045c0.048 0.303-0.874 0.251-1.057 0-0.096-0.134-0.615-0.643 0-0.777 0.063-0.149 0.567 0.22 0.572 0.053 0.12 0.124 0.438 0.427 0.486 0.724zM21.703 12.68c0.015-0.25 0.101-0.715 0.058-0.941-0.068-0.326-0.494-0.676-0.701-0.912-0.596-0.701-1.128-1.353-2.055-1.579-0.297-0.071-1.254-0.202-1.018 0.144-0.677-0.211-1.028 0.024-1.632 0.284-0.476 0.202-0.879 0.23-1.158 0.796-0.269 0.534-0.62 1.619-0.312 2.128 0.38 0.648 0.798 1.594 1.412 1.819 1.003 0.375 1.613 0.433 2.381 0.494 0.768 0.058 1.105-0.109 1.767-0.517 0.572-0.355 1.214-0.994 1.257-1.715z"></path>
</svg>
