<!-- Generated by IcoMoon.io -->
<svg version="1.1" xmlns="http://www.w3.org/2000/svg" width="32" height="32" viewBox="0 0 32 32">
<title>wild1</title>
<path d="M15.988 2.5c-1.379-0.005-2.817 0.127-4.346 0.386-3.381 1.119-4.689 2.401-5.57 4.359-1 2.762-0.484 5.616 2.122 7.141 1.989 1.298 4.705 0.716 5.489 0.53 1.89-0.973 1.55-2.205 1.766-3.59-0.041-0.645 0.15-1.119 0.716-1.376 0.551-0.191 0.212-0.543-0.174-0.505-0.413-0.052-0.681-0.032-0.989 0.123-1.381 0.475-2.567 1.413-3.921 0.619-1.149-0.871-1.53-2.128-0.737-3.498 1.376-1.987 3.283-1.84 4.257-1.958 2.493-0.047 3.7 0.72 4.652 1.906 0.737 1.138 0.913 2.349 0.995 3.314 0.253 2.087-0.247 2.988-1.216 3.807-2.709 2.53-3.782 2.581-5.404 5.076-0.943 2.051-0.408 3.668 1.268 4.138 2.442 0.257 3.59-0.835 4.358-1.748l0-0c0.319-0.453 0.551-1.355-0.438-0.401-0.5 0.144-0.871 0.376-1.659 0.33-2.004-0.299-0.396-1.886-0.165-2.154 2.154-1.665 4.591-2.643 6.843-4.081 2.782-1.957 2.839-3.936 2.314-6.564-0.835-3.54-2.948-4.319-5.070-5.138-1.64-0.478-3.315-0.71-5.088-0.716zM15.599 24.725c-0.739 0.015-1.468 0.567-2.092 1.487h-0c-0.299 1.195-0.572 2.401 0.077 3.823 1.314 2.406 3.273 1.463 4.060-0.077 0.567-1.624 0.253-2.989-0.128-3.906-0.604-0.937-1.265-1.341-1.917-1.328z"></path>
</svg>
