<!-- Generated by IcoMoon.io -->
<svg version="1.1" xmlns="http://www.w3.org/2000/svg" width="32" height="32" viewBox="0 0 32 32">
<title>wild_snark_chase</title>
<path d="M3.492 29.839c-1.266-0.524-1.857-2.126-1.254-3.397 0.334-0.705 1.341-1.395 2.034-1.395 0.282 0 2.651 2.315 2.651 2.59 0 0.069-0.135 0.448-0.299 0.843-0.502 1.201-1.971 1.839-3.131 1.359zM5.858 26.15c-1.301-1.241-1.543-1.978-0.691-2.1 0.235-0.034 1.75-1.39 3.365-3.015 2.278-2.29 2.952-3.093 3.003-3.576 0.114-1.080 0.689-0.906 2.288 0.694 1.507 1.507 1.682 2.001 0.716 2.017-0.439 0.007-1.231 0.68-3.66 3.104-1.705 1.702-3.095 3.148-3.088 3.214 0.040 0.383-0.075 0.609-0.365 0.72-0.218 0.084-0.745-0.272-1.569-1.058zM13.967 17.841l-1.881-1.838 0.069-1.78c0.069-1.773 0.077-1.795 1.993-5.679 1.058-2.145 1.923-4.117 1.923-4.383 0-1.328 0.612-0.852 6.601 5.138 4.459 4.459 5.86 5.98 5.758 6.247-0.075 0.195-0.328 0.354-0.563 0.354s-2.067 0.819-4.072 1.819l-3.645 1.819-4.301 0.142zM22.933 8.999c-5.973-6.111-6.54-6.84-5.445-6.995 0.371-0.053 0.941 0.385 2.505 1.921 1.923 1.889 2.043 1.971 2.386 1.628 0.255-0.255 0.695-0.361 1.494-0.361 0.991 0 1.213 0.081 1.783 0.65 0.841 0.841 1.028 2.166 0.437 3.092l-0.398 0.624 2.155 2.221c1.185 1.221 2.155 2.314 2.155 2.428 0 0.288-0.601 0.862-0.898 0.858-0.135-0.002-2.912-2.731-6.171-6.065z"></path>
</svg>
