<!-- Generated by IcoMoon.io -->
<svg version="1.1" xmlns="http://www.w3.org/2000/svg" width="33" height="32" viewBox="0 0 33 32">
<title>wild_beasts</title>
<path d="M18.661 23.981c-0.098-0.023-0.276-0.102-0.396-0.176s-0.276-0.127-0.348-0.118c-0.181 0.024-0.284-0.247-0.345-0.914-0.034-0.375-0.093-0.63-0.198-0.858-0.188-0.41-0.233-0.649-0.159-0.844 0.044-0.117 0.036-0.212-0.033-0.397-0.069-0.182-0.095-0.478-0.104-1.179-0.013-0.951-0.096-1.45-0.404-2.413-0.216-0.674-0.632-0.716-1.224-0.124-0.131 0.131-0.2 0.153-0.482 0.152-0.376-0.001-0.856-0.115-1.047-0.248-0.166-0.116-0.459-0.117-0.68-0.003-0.13 0.067-0.19 0.073-0.25 0.024-0.043-0.036-0.137-0.056-0.209-0.046-0.184 0.026-0.306 0.314-0.405 0.955-0.046 0.297-0.15 0.795-0.233 1.107-0.201 0.761-0.253 1.524-0.122 1.8 0.13 0.273 0.435 0.622 0.836 0.956l0.331 0.276 0.469-0.030c0.55-0.035 0.789 0.059 0.961 0.38 0.135 0.253 0.138 0.557 0.004 0.598-0.055 0.017-0.141 0.053-0.192 0.079s-0.191 0.065-0.312 0.086c-0.121 0.020-0.402 0.073-0.623 0.116-0.524 0.103-0.864 0.023-1.252-0.295-0.151-0.124-0.426-0.313-0.611-0.421-0.196-0.114-0.669-0.521-1.134-0.977-0.781-0.764-0.797-0.786-0.795-1.022 0.001-0.133 0.035-0.394 0.075-0.58 0.077-0.36 0.057-1.098-0.044-1.591-0.075-0.37-0.081-1.425-0.008-1.561 0.046-0.085 0.018-0.147-0.144-0.318-0.171-0.182-0.243-0.216-0.497-0.236l-0.296-0.024-0.795 0.739c-1.36 1.265-3.51 3.53-3.777 3.979-0.309 0.521-0.469 1.028-0.436 1.389 0.022 0.245 0.057 0.307 0.284 0.511 0.294 0.264 0.381 0.411 0.38 0.64-0.001 0.216-0.054 0.285-0.255 0.333-0.093 0.022-0.204 0.067-0.245 0.1s-0.33 0.066-0.641 0.075c-0.498 0.014-0.579 0.002-0.677-0.096-0.061-0.061-0.111-0.176-0.111-0.254s-0.067-0.244-0.148-0.367c-0.113-0.171-0.141-0.268-0.115-0.41 0.027-0.151 0.245-1.811 0.403-3.059l0.033-0.262-0.256-0.098c-0.384-0.146-0.503-0.329-0.468-0.716 0.033-0.371 0.305-0.95 0.529-1.126 0.288-0.227 0.793-0.277 1.116-0.11 0.252 0.13-0.019 0.558-0.355 0.558-0.211 0-0.677 0.317-0.681 0.463-0 0.020 0.090 0.091 0.201 0.156 0.613 0.362 0.868-0.084 1.611-2.823 0.402-1.481 0.51-1.964 0.538-2.394 0.019-0.297 0.077-0.844 0.13-1.215 0.087-0.613 0.116-0.707 0.315-1.005 0.389-0.582 1.308-1.153 2.257-1.402 0.234-0.061 0.609-0.177 0.834-0.257 0.768-0.273 1.157-0.321 2.594-0.321 1.068 0 1.415-0.020 1.748-0.099 0.348-0.083 0.718-0.099 2.289-0.103 1.644-0.004 1.966-0.020 2.633-0.128 0.961-0.157 1.136-0.205 1.374-0.377 0.106-0.077 0.308-0.211 0.449-0.298l0.255-0.159 1.334 0.017c1.43 0.018 1.82 0.074 2.241 0.318 0.182 0.105 0.255 0.121 0.357 0.074 0.092-0.042 0.196-0.037 0.369 0.018 0.132 0.042 0.461 0.080 0.731 0.085 0.415 0.008 0.545 0.035 0.852 0.181 0.199 0.094 0.461 0.251 0.582 0.349s0.267 0.178 0.324 0.178c0.123 0 0.505-0.321 0.505-0.424 0-0.039 0.053-0.139 0.118-0.221 0.255-0.324 0.747-0.074 0.826 0.419 0.040 0.252 0.224 0.501 0.972 1.324 0.66 0.726 0.888 1.161 0.977 1.868 0.054 0.429 0.272 0.94 0.619 1.45 0.335 0.493 0.347 0.594 0.1 0.819-0.112 0.102-0.338 0.317-0.503 0.477-0.306 0.297-0.574 0.417-0.937 0.418-0.229 0-0.386 0.15-0.465 0.442-0.085 0.315-0.243 0.438-0.565 0.438-0.402 0-0.547-0.128-0.836-0.738-0.138-0.291-0.291-0.544-0.341-0.563-0.060-0.023-0.161 0.043-0.302 0.197-0.181 0.198-0.256 0.237-0.523 0.274s-0.672 0.234-0.672 0.327c0 0.016 0.083 0.148 0.184 0.294s0.851 1.377 1.667 2.735l1.483 2.469 0.406 0.15c0.462 0.171 0.762 0.379 0.919 0.637 0.136 0.222 0.137 0.355 0.005 0.6-0.26 0.485-1.002 0.526-1.577 0.088-0.102-0.077-0.238-0.141-0.304-0.141-0.339 0-0.747-0.369-0.973-0.881-0.065-0.147-0.178-0.288-0.266-0.335-0.223-0.117-0.432-0.356-0.648-0.743-0.183-0.329-0.213-0.353-0.841-0.684-1.144-0.603-2.029-1.276-2.359-1.794-0.072-0.114-0.24-0.28-0.372-0.369s-0.349-0.326-0.484-0.531c-0.369-0.56-0.476-0.685-0.635-0.746-0.222-0.084-0.39-0.013-0.555 0.235-0.184 0.279-0.604 0.495-1.073 0.554-0.317 0.039-0.346 0.056-0.438 0.245-0.126 0.258-0.249 1.086-0.327 2.208-0.034 0.483-0.087 0.994-0.119 1.135-0.084 0.374-0.011 0.899 0.146 1.046 0.159 0.149 0.257 0.333 0.257 0.48 0 0.078 0.060 0.133 0.195 0.177 0.383 0.126 0.696 0.604 0.728 1.109l0.014 0.225-0.284 0.047c-0.316 0.052-0.557 0.060-0.937 0.030-0.14-0.011-0.319-0.004-0.397 0.015s-0.222 0.017-0.32-0.006zM29.146 12.537c0.062-0.074 0.060-0.098-0.007-0.141-0.045-0.028-0.11-0.052-0.146-0.052-0.093-0.001-0.207 0.154-0.165 0.224 0.055 0.088 0.233 0.072 0.317-0.030z"></path>
</svg>
