<!-- Generated by IcoMoon.io -->
<svg version="1.1" xmlns="http://www.w3.org/2000/svg" width="32" height="32" viewBox="0 0 32 32">
<title>willpower1</title>
<path d="M13.718 31.75c3.292-2.253 5.33-5.208 10.019-6.715-0.579-1.475-0.709-0.358-0.987-3.266-0.205-2.060 3.051-3.99 3.047-8.334-0.004-2.665-0.275-5.754-2.301-7.352-2.859-2.253-7.568-2.259-10.882-0.934-1.384 0.552-2.794 2.15-2.918 3.078-0.113 0.853-0.048 1.244-0.343 1.823-0.295 0.585-1.041 1.604-0.627 2.27 0.166 0.273 0.826 0.498 0.644 0.67-0.745 0.692-1.137 1.286-2.022 2.429-0.36 0.461-1.153 1.642-1.142 2.194 0.023 0.697 2.172 0.906 1.963 1.052-0.284 0.198-0.618 0.321-0.548 0.89 0.059 0.445 0.264 0.762 0.585 0.681-0.982 4.172 0.675 4.623 2.307 4.119 1.635-0.504 1.624 0.155 1.877-0.301 0.279 0.070-0.917 1.432-0.107 1.845 0.574 0.494 0.735 0.338 0.777 1.013-0.016 1.524 0.075 1.33 0.66 4.838z"></path>
</svg>
