<!-- Generated by IcoMoon.io -->
<svg version="1.1" xmlns="http://www.w3.org/2000/svg" width="31" height="32" viewBox="0 0 31 32">
<title>witch_cult</title>
<path d="M15.050 28.796c-0.142-0.142-0.204-1.058-0.204-3.033 0-2.297 0.047-2.868 0.252-3.038 0.139-0.115 0.368-0.165 0.509-0.111 0.215 0.083 0.257 0.571 0.257 3.038 0 2.78-0.086 3.347-0.509 3.347-0.056 0-0.193-0.092-0.305-0.204zM12.854 26.852c-0.337-0.136-0.297-4.059 0.042-4.19 0.658-0.252 0.763 0.024 0.763 1.996 0 2.097-0.135 2.464-0.806 2.193zM17.335 26.852c-0.062-0.062-0.113-1.008-0.113-2.102 0-1.68 0.043-2.006 0.276-2.095 0.59-0.226 0.742 0.203 0.742 2.092 0 1.183-0.071 1.882-0.204 2.015-0.225 0.225-0.527 0.264-0.701 0.090zM5.093 22.010c-0.485-0.278-0.752-0.669-0.758-1.112-0.005-0.391 9.602-16.989 10.178-17.583 0.407-0.42 1.278-0.42 1.687 0 0.574 0.59 10.182 17.19 10.177 17.583-0.006 0.458-0.283 0.85-0.789 1.12-0.523 0.279-20.007 0.272-20.494-0.008zM25.336 20.866c-0.031-0.089-0.858-1.531-1.838-3.205l-1.781-3.044-0.731 0.673c-0.402 0.37-1.356 0.97-2.12 1.334-2.554 1.215-4.674 1.234-7.044 0.065-0.684-0.337-1.594-0.949-2.022-1.36s-0.792-0.728-0.808-0.705c-0.223 0.319-3.644 6.241-3.644 6.309 0 0.052 4.51 0.094 10.022 0.094 6.25 0 10.001-0.061 9.966-0.161zM16.782 15.609c0.433-0.433 0.525-0.66 0.525-1.298 0-0.676-0.079-0.846-0.634-1.354-0.746-0.684-1.449-0.757-2.297-0.241-0.87 0.531-1.13 1.581-0.63 2.548 0.584 1.128 2.081 1.298 3.035 0.344zM14.944 14.824c-0.147-0.147-0.267-0.37-0.267-0.497 0-0.287 0.463-0.763 0.742-0.763 0.319 0 0.616 0.367 0.616 0.763 0 0.698-0.611 0.976-1.091 0.497zM12.713 15.642c-0.278-0.615-0.276-2.027 0.003-2.567 0.15-0.291 0.223-0.529 0.162-0.529-0.172 0-1.267 0.684-1.983 1.238-0.627 0.486-0.636 0.508-0.339 0.837 0.313 0.348 1.887 1.313 2.146 1.315 0.080 0.001 0.085-0.132 0.011-0.295zM19.949 14.76l0.513-0.433-1.111-0.749c-0.611-0.412-1.15-0.711-1.197-0.664s0 0.332 0.105 0.633c0.18 0.517 0.144 1.107-0.124 2.036l-0.118 0.407 0.709-0.399c0.39-0.219 0.94-0.593 1.223-0.832zM20.468 12.504c-2.792-4.869-4.925-8.354-5.113-8.354-0.195 0-5.403 8.594-5.421 8.947-0.004 0.069 0.322-0.125 0.724-0.431 1.658-1.265 3.83-1.824 5.754-1.481 1.225 0.219 3.076 1.051 3.948 1.776 0.28 0.232 0.534 0.425 0.564 0.428s-0.175-0.395-0.456-0.884zM5.36 11.813c-0.786-0.581-1.457-1.141-1.492-1.245-0.091-0.273 0.452-0.762 0.687-0.619 0.109 0.067 0.832 0.574 1.607 1.127 1.099 0.785 1.397 1.085 1.357 1.365-0.091 0.635-0.682 0.463-2.159-0.628zM23.222 12.297c-0.157-0.409-0.041-0.537 1.463-1.608 1.496-1.066 1.926-1.219 2.106-0.751 0.144 0.374-0.075 0.603-1.606 1.682-1.354 0.954-1.797 1.107-1.962 0.677zM5.889 9.388c-1.837-1.319-2.248-1.69-2.205-1.988 0.035-0.243 0.169-0.363 0.398-0.357 0.374 0.010 4.581 2.907 4.728 3.256 0.138 0.327-0.074 0.721-0.385 0.716-0.153-0.003-1.295-0.735-2.536-1.626zM21.866 10.434c-0.052-0.136-0.048-0.321 0.008-0.412 0.226-0.366 4.445-3.303 4.762-3.315 0.252-0.009 0.339 0.096 0.339 0.409 0 0.346-0.392 0.704-2.184 1.993-2.149 1.546-2.738 1.813-2.925 1.325zM8 8.103c-1.139-0.808-1.468-1.13-1.43-1.398 0.090-0.625 0.618-0.478 2.079 0.577 1.603 1.157 1.662 1.219 1.515 1.601-0.179 0.467-0.641 0.301-2.165-0.78zM20.72 8.726c-0.398-0.398-0.195-0.663 1.369-1.782 1.48-1.059 1.964-1.193 2.054-0.568 0.040 0.278-0.261 0.58-1.357 1.363-1.863 1.33-1.768 1.285-2.066 0.987z"></path>
</svg>
