<!-- Generated by IcoMoon.io -->
<svg version="1.1" xmlns="http://www.w3.org/2000/svg" width="32" height="32" viewBox="0 0 32 32">
<title>witchwork</title>
<path d="M31.25 8.657c-0.085 0.019-0.168 0.029-0.251 0.056-0.232 0.075-0.453 0.181-0.681 0.262-0.541 0.191-1.092 0.408-1.576 0.709-0.227 0.14-0.458 0.272-0.688 0.409-0.112 0.067-0.226 0.133-0.318 0.226-0.173 0.179-0.359 0.341-0.491 0.552-0.085 0.135-0.153 0.266-0.259 0.389-0.117 0.137-0.228 0.277-0.349 0.412-0.132 0.145-0.256 0.298-0.388 0.444-0.067 0.073-0.139 0.14-0.211 0.209-0.083 0.080-0.152 0.168-0.228 0.253-0.106 0.121-0.219 0.24-0.326 0.36-0.088 0.098-0.156 0.204-0.235 0.308-0.091 0.122-0.153 0.259-0.225 0.394-0.095 0.176-0.183 0.356-0.271 0.535-0.127 0.259-0.232 0.517-0.297 0.797-0.088 0.381-0.153 0.764-0.219 1.149-0.024 0.16-0.052 0.31-0.062 0.473-0.014 0.223-0.029 0.445-0.038 0.668-0.010 0.269-0.014 0.54-0.050 0.805-0.005 0.050 0.005 0.093 0.005 0.142 0 0.14-0.043 0.287-0.057 0.427-0.019 0.215 0.014 0.425 0.038 0.639 0.038 0.284 0.122 0.566 0.209 0.84 0.075 0.244 0.23 0.455 0.336 0.686 0.109 0.234 0.212 0.465 0.337 0.691 0.246 0.44 0.416 0.909 0.712 1.325 0.201 0.28 0.451 0.535 0.72 0.756 0.251 0.207 0.531 0.365 0.812 0.531 0.176 0.106 0.362 0.201 0.543 0.301 0.169 0.096 0.333 0.204 0.502 0.301 0.205 0.119 0.43 0.192 0.649 0.285 0.297 0.125 0.6 0.232 0.898 0.35 0.223 0.088 0.429 0.21 0.652 0.295 0.075 0.029 0.153 0.048 0.226 0.078 0.029 0.014 0.057 0.029 0.089 0.029-0.114-0.144-0.152-0.331-0.248-0.486-0.117-0.189-0.28-0.349-0.412-0.53-0.118-0.16-0.219-0.331-0.339-0.491-0.196-0.256-0.388-0.5-0.551-0.779-0.166-0.284-0.32-0.579-0.463-0.875-0.1-0.207-0.189-0.417-0.28-0.626-0.072-0.163-0.156-0.318-0.234-0.478-0.116-0.234-0.233-0.473-0.344-0.71-0.029-0.060-0.054-0.122-0.077-0.186-0.029-0.059-0.064-0.116-0.1-0.173-0.1-0.192-0.134-0.417-0.212-0.619-0.213-0.549-0.323-1.131-0.336-1.718-0.005-0.226 0.034-0.453 0.048-0.68 0.014-0.199 0.043-0.396 0.068-0.593 0.019-0.168 0.055-0.339 0.050-0.508-0.010-0.266 0.038-0.53 0.062-0.794 0.019-0.274 0.049-0.546 0.091-0.817 0.043-0.238 0.101-0.473 0.175-0.704 0.043-0.158 0.096-0.313 0.158-0.465 0.052-0.106 0.103-0.212 0.153-0.32 0.052-0.125 0.085-0.257 0.148-0.38 0.127-0.248 0.314-0.451 0.479-0.675 0.091-0.125 0.173-0.256 0.243-0.394 0.085-0.145 0.178-0.285 0.277-0.421 0.090-0.133 0.17-0.262 0.248-0.401 0.316-0.567 0.818-1.017 1.265-1.486 0.148-0.156 0.251-0.342 0.391-0.504 0.096-0.111 0.19-0.222 0.274-0.342 0.024-0.034 0.062-0.114 0.108-0.129 0.038-0.014 0.057 0 0.091-0.034z"></path>
<path d="M1.899 25.662c0.085-0.019 0.169-0.024 0.254-0.054 0.234-0.075 0.458-0.178 0.689-0.259 0.546-0.188 1.103-0.401 1.596-0.701 0.23-0.14 0.464-0.27 0.696-0.406 0.112-0.067 0.23-0.134 0.321-0.226 0.176-0.178 0.365-0.337 0.499-0.549 0.087-0.137 0.158-0.266 0.266-0.388 0.119-0.137 0.232-0.277 0.354-0.412 0.133-0.145 0.261-0.297 0.394-0.442 0.068-0.074 0.142-0.14 0.213-0.209 0.083-0.078 0.155-0.166 0.232-0.251 0.109-0.121 0.223-0.239 0.333-0.358 0.089-0.098 0.16-0.204 0.238-0.308 0.093-0.122 0.156-0.259 0.23-0.393 0.096-0.178 0.186-0.357 0.277-0.536 0.13-0.259 0.238-0.515 0.305-0.797 0.091-0.38 0.16-0.763 0.226-1.149 0.029-0.16 0.056-0.31 0.065-0.473 0.014-0.223 0.034-0.446 0.043-0.672 0.014-0.267 0.019-0.538 0.057-0.805 0.005-0.051-0.005-0.091-0.005-0.142 0-0.14 0.048-0.287 0.060-0.427 0.019-0.217-0.010-0.427-0.038-0.642-0.038-0.284-0.119-0.567-0.204-0.841-0.075-0.246-0.23-0.458-0.336-0.69-0.108-0.236-0.211-0.467-0.336-0.694-0.245-0.443-0.414-0.914-0.711-1.332-0.199-0.284-0.452-0.539-0.72-0.764-0.253-0.209-0.536-0.367-0.817-0.536-0.178-0.108-0.365-0.202-0.546-0.305-0.171-0.098-0.334-0.207-0.504-0.305-0.209-0.121-0.435-0.196-0.655-0.29-0.298-0.127-0.603-0.236-0.905-0.356-0.223-0.089-0.43-0.213-0.655-0.3-0.075-0.029-0.155-0.049-0.228-0.080-0.029-0.014-0.055-0.029-0.089-0.034 0.114 0.145 0.152 0.333 0.246 0.489 0.117 0.191 0.28 0.352 0.414 0.533 0.117 0.161 0.218 0.333 0.339 0.494 0.194 0.257 0.388 0.504 0.551 0.782 0.167 0.287 0.32 0.583 0.461 0.88 0.098 0.209 0.188 0.421 0.28 0.631 0.070 0.163 0.153 0.318 0.232 0.479 0.116 0.236 0.233 0.474 0.344 0.714 0.029 0.060 0.054 0.122 0.077 0.186 0.029 0.059 0.064 0.118 0.1 0.174 0.098 0.194 0.132 0.419 0.209 0.621 0.213 0.553 0.319 1.136 0.329 1.724 0.003 0.228-0.034 0.455-0.052 0.681-0.014 0.199-0.048 0.396-0.073 0.593-0.024 0.168-0.059 0.339-0.056 0.508 0.005 0.267-0.038 0.531-0.067 0.797-0.019 0.272-0.054 0.544-0.096 0.817-0.048 0.238-0.108 0.474-0.181 0.706-0.048 0.156-0.1 0.313-0.163 0.464-0.054 0.106-0.106 0.212-0.158 0.318-0.052 0.127-0.086 0.257-0.152 0.38-0.129 0.247-0.321 0.45-0.487 0.673-0.093 0.125-0.176 0.256-0.247 0.393-0.087 0.145-0.181 0.285-0.282 0.422-0.093 0.132-0.175 0.261-0.253 0.401-0.324 0.566-0.833 1.014-1.286 1.48-0.15 0.155-0.256 0.341-0.4 0.504-0.098 0.111-0.192 0.22-0.278 0.341-0.024 0.034-0.062 0.114-0.108 0.129-0.043 0.014-0.058 0-0.095 0.034z"></path>
<path d="M22.422 16.869c-0.024 0.091-0.048 0.181-0.073 0.267-0.075 0.251-0.147 0.497-0.212 0.751-0.038 0.142-0.064 0.293-0.104 0.432-0.038 0.137-0.106 0.275-0.16 0.406-0.024 0.058-0.048 0.117-0.068 0.176-0.583 0.973-1.527 1.726-2.645 2.148-0.983 0.372-2.158 0.756-3.219 0.613-0.106-0.014-0.209-0.038-0.31-0.060-0.139 0.019-0.277 0.038-0.417 0.048-1.068 0.072-2.146-0.218-3.028-0.828-1.112-0.768-1.641-1.868-1.866-3.069-0.005-0.106-0.002-0.212 0-0.316 0-0.109-0.019-0.213-0.024-0.321-0.005-0.201-0.014-0.415 0-0.616 0.005-0.064 0.024-0.121 0.024-0.186 0-0.081 0-0.155 0.010-0.236 0.029-0.2 0.019-0.408 0.034-0.61 0.019-0.199 0.095-0.391 0.176-0.57 0.103-0.225 0.24-0.429 0.305-0.67 0.059-0.215 0.091-0.442 0.117-0.663 0.029-0.24 0.024-0.484 0.038-0.725 0.005-0.111 0.002-0.222 0.029-0.329 0.019-0.087 0.065-0.194 0.129-0.257 0.133-0.133 0.276-0.261 0.44-0.358 0.124-0.073 0.23-0.156 0.342-0.246 0.077-0.062 0.161-0.109 0.233-0.178 0.068-0.065 0.132-0.135 0.199-0.202 0.058-0.058 0.127-0.109 0.182-0.171 0.005-0.005 0.010-0.010 0.014-0.019 0.306-0.155 0.623-0.29 0.929-0.407 0.336-0.127 0.676-0.245 1.020-0.349 0.217-0.054 0.435-0.101 0.653-0.147 0.139-0.029 0.276-0.068 0.412-0.104 0.043-0.010 0.085-0.019 0.127-0.029 0.3-0.050 0.6-0.081 0.905-0.106 0.058-0.005 0.116-0.019 0.173-0.034 0.057-0.024 0.118-0.043 0.179-0.038 0.057 0.002 0.116 0.010 0.173 0.014 0.029 0.005 0.058 0.014 0.088 0.019 0.284 0.067 0.576 0.093 0.861 0.156 0.014 0.005 0.024 0.010 0.043 0.014 0.264 0.085 0.497 0.293 0.732 0.44 0.246 0.153 0.481 0.326 0.729 0.476 0.212 0.129 0.427 0.254 0.632 0.394 0.184 0.127 0.383 0.246 0.556 0.394 0.156 0.188 0.301 0.383 0.437 0.585 0.103 0.202 0.188 0.414 0.279 0.624 0.14 0.324 0.295 0.641 0.443 0.963 0.1 0.217 0.194 0.438 0.266 0.668 0.186 0.738 0.261 1.504 0.22 2.259zM24 16.183c-0.010-0.114 0.029-0.235 0.034-0.349 0.005-0.176-0.038-0.347-0.083-0.521-0.055-0.232-0.161-0.46-0.267-0.683-0.024-0.049-0.050-0.096-0.081-0.142-0.515-2.173-1.967-4.264-4.233-4.811-0.043-0.010-0.087-0.019-0.129-0.024-0.102-0.058-0.205-0.117-0.31-0.174-0.212-0.116-0.422-0.209-0.652-0.259-0.311-0.067-0.624-0.111-0.939-0.153-0.144-0.019-0.38-0.034-0.525-0.038-0.137 0-0.272 0-0.408 0.003-0.218 0.005-0.438 0.019-0.657-0.003-0.038-0.005-0.075 0.010-0.116 0.014-0.114 0.010-0.235-0.029-0.349-0.034-0.176-0.005-0.347 0.038-0.522 0.083-0.232 0.057-0.46 0.163-0.683 0.267-0.005 0.005-0.014 0.010-0.019 0.014-0.381 0.005-0.76 0.038-1.12 0.147-0.634 0.189-1.161 0.595-1.661 1.012-0.549 0.456-1.079 0.944-1.472 1.545-0.375 0.572-0.582 1.242-0.611 1.923-0.014 0.024-0.029 0.049-0.043 0.073-0.117 0.213-0.21 0.422-0.259 0.652-0.068 0.311-0.111 0.624-0.153 0.939-0.019 0.145-0.034 0.381-0.034 0.526-0.002 0.135-0.002 0.271 0.002 0.408 0.005 0.218 0.019 0.438-0.003 0.655-0.003 0.043 0.014 0.075 0.019 0.116 0.010 0.114-0.029 0.234-0.034 0.349-0.005 0.178 0.038 0.347 0.083 0.522 0.056 0.232 0.161 0.461 0.267 0.683 0.075 0.158 0.199 0.3 0.312 0.446 0.199 0.976 0.552 1.918 1.154 2.72 0.781 1.040 1.931 1.811 3.229 1.954 0.019 0.010 0.038 0.024 0.058 0.034 0.212 0.117 0.422 0.209 0.652 0.259 0.312 0.068 0.624 0.111 0.939 0.153 0.144 0.019 0.381 0.034 0.526 0.034 0.135 0 0.271 0.002 0.406-0.002 0.218-0.005 0.438-0.019 0.657 0.003 0.043 0.003 0.075-0.014 0.116-0.019 0.114-0.010 0.235 0.029 0.349 0.034 0.176 0.005 0.347-0.038 0.522-0.083 0.232-0.055 0.46-0.161 0.683-0.267 0.010-0.003 0.019-0.010 0.029-0.019 0.458-0.106 0.905-0.277 1.336-0.471 0.792-0.357 1.623-0.758 2.239-1.385 0.676-0.686 1.082-1.612 1.169-2.566 0.051-0.091 0.103-0.182 0.153-0.274 0.117-0.213 0.209-0.423 0.259-0.654 0.068-0.311 0.111-0.624 0.153-0.939 0.019-0.144 0.034-0.38 0.034-0.525 0-0.137 0.002-0.272-0.002-0.408-0.005-0.218-0.019-0.438 0.003-0.657 0.003-0.038-0.014-0.075-0.019-0.116z"></path>
</svg>
