<!-- Generated by IcoMoon.io -->
<svg version="1.1" xmlns="http://www.w3.org/2000/svg" width="32" height="32" viewBox="0 0 32 32">
<title>without_a_trace</title>
<path d="M17.11 6.537c-0.148 0-0.296 0.003-0.445 0.006-0.139 0.001-0.279 0.004-0.418 0.004-0.625 0-1.193 0.101-1.741 0.2l-0.231 0.041c-0.17 0.030-0.345 0.054-0.531 0.077-0.463 0.059-0.942 0.121-1.432 0.3-0.504 0.184-0.938 0.458-1.321 0.699-0.149 0.094-0.292 0.184-0.431 0.265-0.158 0.092-0.334 0.176-0.521 0.268-0.389 0.186-0.828 0.399-1.221 0.73-0.393 0.33-0.673 0.725-0.92 1.075-0.123 0.173-0.237 0.335-0.355 0.475-0.104 0.124-0.215 0.248-0.334 0.379-0.304 0.335-0.648 0.716-0.916 1.178-0.32 0.552-0.648 1.154-0.885 1.803-0.272 0.745-0.445 1.362-0.546 1.94-0.093 0.537-0.083 1.055-0.072 1.558 0.003 0.149 0.006 0.299 0.006 0.448 0 0.696 0.111 1.334 0.22 1.951l0.006 0.028c0.104 0.596 0.273 1.204 0.531 1.914 0.214 0.585 0.459 1.21 0.81 1.816 0.079 0.138 0.158 0.283 0.239 0.437 0.227 0.425 0.462 0.863 0.806 1.273 0.479 0.57 0.941 1.041 1.411 1.435 0.456 0.385 0.954 0.666 1.432 0.939 0.086 0.049 0.172 0.097 0.256 0.146 0.082 0.048 0.162 0.094 0.244 0.142 0.477 0.282 0.973 0.572 1.544 0.779 0.68 0.248 1.334 0.428 1.945 0.535 0.206 0.035 0.424 0.054 0.668 0.054 0.256 0 0.501-0.020 0.738-0.038 0.213-0.017 0.414-0.032 0.601-0.032h0.33c0.528 0 1.092-0.008 1.658-0.107 0.568-0.1 1.275-0.224 1.947-0.468 0.651-0.237 1.248-0.563 1.796-0.882l0.18-0.103c0.501-0.289 1.021-0.587 1.5-0.989 0.538-0.454 0.999-0.985 1.389-1.448 0.416-0.496 0.801-1.048 1.144-1.642 0.316-0.544 0.597-1.155 0.838-1.817 0.228-0.625 0.442-1.244 0.562-1.925 0.089-0.504 0.063-0.979 0.039-1.437-0.010-0.197-0.020-0.382-0.020-0.562 0-0.176 0.008-0.356 0.017-0.547 0.021-0.463 0.042-0.942-0.047-1.451-0.128-0.734-0.293-1.37-0.501-1.945-0.241-0.659-0.57-1.249-0.887-1.799-0.303-0.523-0.683-1.055-1.163-1.627-0.514-0.611-0.944-1.052-1.396-1.432-0.521-0.438-1.073-0.825-1.637-1.152-0.523-0.303-1.063-0.496-1.586-0.683-0.086-0.031-0.172-0.061-0.256-0.093-0.146-0.052-0.293-0.111-0.439-0.169-0.432-0.172-0.923-0.368-1.463-0.462-0.42-0.073-0.83-0.083-1.139-0.083zM17.11 7.504c0.33 0 0.655 0.013 0.973 0.069 0.608 0.106 1.171 0.38 1.738 0.587 0.579 0.211 1.163 0.4 1.689 0.704 0.531 0.307 1.034 0.663 1.5 1.056 0.468 0.393 0.883 0.845 1.278 1.314 0.392 0.466 0.759 0.958 1.066 1.489 0.304 0.525 0.606 1.068 0.816 1.645 0.207 0.568 0.352 1.172 0.458 1.78 0.104 0.593 0.015 1.209 0.015 1.831s0.099 1.239-0.006 1.832c-0.107 0.608-0.311 1.193-0.517 1.761-0.211 0.579-0.462 1.138-0.766 1.665-0.307 0.53-0.658 1.037-1.049 1.503-0.393 0.469-0.801 0.937-1.269 1.33-0.466 0.392-1.011 0.69-1.542 0.997-0.525 0.303-1.066 0.599-1.644 0.808-0.569 0.207-1.173 0.317-1.782 0.424-0.487 0.086-0.985 0.093-1.492 0.093-0.108 0-0.218 0-0.33 0-0.449 0-0.9 0.070-1.34 0.070-0.17 0-0.337-0.011-0.501-0.039-0.608-0.107-1.213-0.285-1.782-0.49-0.578-0.211-1.107-0.546-1.633-0.849-0.531-0.307-1.086-0.599-1.552-0.992-0.468-0.393-0.9-0.848-1.293-1.316-0.392-0.468-0.642-1.042-0.949-1.573-0.303-0.525-0.527-1.083-0.737-1.662-0.207-0.568-0.382-1.141-0.487-1.749-0.104-0.593-0.211-1.19-0.211-1.813s-0.052-1.248 0.052-1.84c0.107-0.608 0.296-1.207 0.503-1.775 0.21-0.579 0.508-1.124 0.813-1.649 0.307-0.531 0.761-0.952 1.154-1.42s0.687-1.038 1.156-1.431c0.466-0.392 1.073-0.593 1.604-0.9 0.525-0.304 1.020-0.682 1.599-0.892 0.568-0.207 1.19-0.227 1.799-0.334 0.593-0.104 1.185-0.227 1.806-0.227 0.289 0 0.578-0.010 0.863-0.010z"></path>
<path d="M16.285 13.669c-2.327 0-4.213 1.886-4.213 4.213s1.886 4.214 4.213 4.214c2.327 0 4.213-1.887 4.213-4.214s-1.886-4.213-4.213-4.213zM16.285 14.394c1.924 0 3.489 1.565 3.489 3.488 0 1.924-1.565 3.489-3.489 3.489s-3.489-1.565-3.489-3.489c0-1.923 1.565-3.488 3.489-3.488z"></path>
<path d="M16.246 4.592c-1.479 0-2.678 1.199-2.678 2.678s1.199 2.678 2.678 2.678c1.479 0 2.678-1.199 2.678-2.678s-1.199-2.678-2.678-2.678zM16.246 5.075c1.21 0 2.195 0.985 2.195 2.194s-0.985 2.194-2.195 2.194c-1.21 0-2.194-0.985-2.194-2.194s0.985-2.194 2.194-2.194z"></path>
<path d="M6.988 20.631c-1.479 0-2.678 1.199-2.678 2.678s1.199 2.678 2.678 2.678c1.479 0 2.678-1.199 2.678-2.678s-1.199-2.678-2.678-2.678zM6.988 21.114c1.21 0 2.194 0.985 2.194 2.195s-0.985 2.195-2.194 2.195c-1.21 0-2.194-0.985-2.194-2.195s0.985-2.195 2.194-2.195z"></path>
<path d="M25.509 20.658c-1.479 0-2.678 1.199-2.678 2.678s1.199 2.678 2.678 2.678c1.479 0 2.678-1.199 2.678-2.678s-1.199-2.678-2.678-2.678zM25.509 21.141c1.21 0 2.195 0.985 2.195 2.195s-0.985 2.195-2.195 2.195c-1.21 0-2.195-0.985-2.195-2.195s0.985-2.195 2.195-2.195z"></path>
<path d="M16.249 7.367l-0.832 1.366-0.807 1.476-0.792 1.486-0.81 1.476-1.037 1.345-0.752 1.51-0.756 1.507-0.89 1.43-1.027 1.352-0.796 1.486-0.704 1.475 1.627-0.007 1.683 0.065 1.683-0.068 1.683 0.114 1.683-0.030 1.683-0.197 1.683 0.008 1.683 0.296 1.683-0.092 1.686-0.149 1.669 0.083-0.763-1.485-0.873-1.438-0.941-1.4-0.921-1.411-0.642-1.573-0.748-1.511-1.118-1.299-0.742-1.514-0.675-1.556-0.931-1.41zM16.304 9.631l0.699 1.059 0.632 1.459 0.011 0.025 0.013 0.025 0.742 1.514 0.068 0.139 0.101 0.118 1.020 1.182 0.659 1.337 0.627 1.534 0.044 0.106 0.993 1.523 0.925 1.376 0.613 1.009-1.399 0.124-1.525 0.083-1.647-0.289-0.103-0.001-1.756-0.008-0.073 0.008-1.624 0.19-1.572 0.028-1.697-0.116-0.065 0.003-1.635 0.066-1.379-0.054 0.59-1.101 1.003-1.321 0.030-0.048 0.89-1.43 0.028-0.047 0.025-0.049 0.759-1.511 0.699-1.404 1.023-1.325 0.045-0.083 0.817-1.489 0.787-1.48z"></path>
<path d="M16.265 0.999l-1.338 2.162-0.010 0.020-0.77 1.528-0.938 1.431-0.007 0.013-0.008 0.014-0.866 1.524-0.794 1.52-0.93 1.442-0.020 0.034-0.816 1.52-0.9 1.503-0.797 1.528-0.879 1.47-0.958 1.472-0.011 0.024-0.772 1.532-0.925 1.458-0.006 0.011-0.852 1.514-0.882 1.485-1.302 2.282 2.609-0.018 1.728 0.037 1.742 0.018h1.755l1.721-0.049 1.772 0.048 1.718-0.127 1.7-0.001 1.762 0.125 3.465-0.056 1.73 0.017 1.758 0.041 1.738-0.065 1.718-0.037 2.585 0.075-0.397-0.737-0.834-1.548-0.017-0.028-0.924-1.471-0.892-1.468-0.82-1.517-0.003-0.007-0.004-0.006-0.87-1.502-0.897-1.478-0.779-1.531-0.011-0.021-0.013-0.020-0.925-1.454-0.841-1.503-0.007-0.010-0.006-0.010-0.91-1.455-0.78-1.531-0.011-0.020-0.011-0.018-0.931-1.468-0.887-1.479-0.856-1.5-0.828-1.524-0.004-0.004-0.856-1.487zM16.251 1.941l0.856 1.486 0.831 1.528 0.862 1.507 0.893 1.489 0.931 1.468 0.79 1.549 0.921 1.472 0.848 1.516 0.934 1.465 0.787 1.548 0.901 1.485 0.872 1.502 0.825 1.528 0.901 1.485 0.924 1.471 0.835 1.548-1.762-0.051-1.738 0.037-1.737 0.065-1.735-0.041-1.737-0.017-3.472 0.056-1.737-0.125-1.735 0.001-1.735 0.128-1.737-0.049-1.735 0.049h-1.737l-1.735-0.018-1.737-0.037-1.776 0.013 0.882-1.547 0.887-1.494 0.852-1.514 0.93-1.468 0.783-1.554 0.948-1.456 0.89-1.492 0.804-1.54 0.893-1.489 0.82-1.53 0.942-1.461 0.804-1.54 0.859-1.51 0.951-1.455 0.783-1.552z"></path>
<path d="M11.607 30.287l1.848-0.266h0.034l1.841 0.127 1.842 0.051c0.92 0.030 2.773 0.031 3.693 0.003l-0.248 0.459-0.938-1.617-0.787-1.672-0.89-1.616-0.976-1.579-0.886-1.635 0.21-0.12 0.945 1.592 1.037 1.541 0.965 1.6c-0.004-0.025 0.899 1.738 0.848 1.633l0.721 1.414 0.021 0.604c-1.655 0.116-3.923 0.154-5.581 0.163l-1.861-0.055c0.165-0.003-1.854 0.087-1.818 0.087l-0.013-0.425z"></path>
<path d="M28.663 15.679c-0.455-0.811-0.992-2.169-1.4-3.003-0.345-0.568-1.054-1.725-1.379-2.421-0.351-0.738-0.951-1.724-1.363-2.438l0.527-0.018-0.897 1.665-0.017 0.030-1.076 1.514 0.013-0.021-0.913 1.633c0.015-0.015-1.068 1.594-1.025 1.533l-0.892 1.63-0.214-0.111 0.828-1.663 0.007-0.011c0 0.007 0.996-1.631 0.963-1.571l0.841-1.654 0.013-0.021 1.017-1.556c-0.079 0.144 0.831-1.702 0.814-1.671l0.361-0.252 0.921 1.42c0.518 0.78 0.9 1.637 1.421 2.41l0.762 1.165 0.014 0.025 0.899 1.614 0.825 1.386-0.582 0.548z"></path>
<path d="M7.988 7.722l-0.869 1.809 0.028-0.049-0.852 1.651c-0.507 0.8-1.542 2.351-2.071 3.137 0.065-0.12-0.913 1.642-0.9 1.617 0 0-0.269-0.444-0.269-0.444 1.12 0.011 2.359 0.025 3.485 0.054 1.12 0.001 2.361-0.048 3.488-0.007 0.777 0.006 1.551 0.061 2.325 0.090l-0.006 0.241c-1.116-0.011-2.356-0.011-3.479 0.028-1.117 0.051-2.359 0.138-3.485 0.137-0.776 0.013-1.818 0.168-2.592 0.187v-0.569l0.848-1.676 0.014-0.024c0.489-0.785 1.454-2.375 1.924-3.171-0.093 0.18 0.786-1.679 0.766-1.645l0.028-0.049 0.993-1.569 0.39 0.079z"></path>
</svg>
