<!-- Generated by IcoMoon.io -->
<svg version="1.1" xmlns="http://www.w3.org/2000/svg" width="32" height="32" viewBox="0 0 32 32">
<title>wonderland_banes</title>
<path d="M13.381 29.862c-3.576-0.665-6.556-3.414-7.508-6.926-0.308-1.135-0.308-3.595 0-4.732 1.083-4.001 4.68-6.899 8.805-7.094 1.402-0.066 3.522 0.469 4.935 1.246 1.056 0.581 1.242 0.626 1.57 0.387 0.437-0.319 1.352-0.355 1.879-0.073 0.471 0.252 2.565 3.96 2.565 4.541 0 0.239-0.289 0.723-0.642 1.076-0.605 0.604-0.638 0.711-0.576 1.843 0.231 4.193-2.596 8.202-6.66 9.443-1.184 0.362-3.245 0.498-4.369 0.289zM24.625 14.493c-0.267-0.637-0.273-0.831-0.043-1.395 0.246-0.602 0.319-0.644 0.903-0.521 0.878 0.185 1.001 0.352 0.85 1.156-0.084 0.448-0.334 0.842-0.697 1.101-0.311 0.222-0.597 0.402-0.635 0.401s-0.208-0.335-0.379-0.742zM25.45 12.102c-0.342-0.096-0.542-0.366-0.722-0.974l-0.248-0.841 1.556-0.794 0.289 0.693c0.159 0.381 0.289 1.006 0.289 1.39 0 0.74-0.153 0.809-1.165 0.526zM12.112 9.327c-0.612-0.639-0.562-0.864 0.29-1.305 0.476-0.246 0.655-0.255 1.024-0.048 0.246 0.138 0.476 0.264 0.51 0.281s-0.046 0.394-0.179 0.839c-0.299 1-0.838 1.076-1.646 0.233zM14.129 9.795c-0.182-0.182 0.347-1.703 0.648-1.865 0.155-0.084 0.483-0.213 0.727-0.288 0.407-0.125 0.444-0.073 0.441 0.618-0.004 0.925-0.146 1.164-0.853 1.433-0.624 0.237-0.809 0.257-0.964 0.102zM23.57 9.259l-0.501-0.639 1.168-1.171 0.695 0.673c0.581 0.563 0.907 1.188 0.62 1.188-0.041 0-0.391 0.132-0.778 0.294-0.697 0.291-0.707 0.288-1.204-0.346zM16.346 8.669c0.006-0.982 0.227-1.307 1.088-1.6 0.469-0.16 0.905-0.239 0.968-0.176s0.114 0.478 0.114 0.922c0 0.769-0.038 0.82-0.787 1.053-1.126 0.351-1.386 0.314-1.383-0.199zM19.040 7.893c-0.278-1.036-0.168-1.29 0.612-1.419 1.451-0.24 1.478-0.225 1.128 0.614-0.376 0.901-0.448 0.975-1.101 1.136-0.427 0.105-0.538 0.048-0.639-0.332zM21.331 8.184c-0.244-0.047-0.444-0.121-0.444-0.164 0-0.059 0.495-1.199 0.706-1.627 0.065-0.131 2.069 0.403 2.178 0.58 0.171 0.277-1.12 1.338-1.6 1.315-0.217-0.010-0.595-0.057-0.839-0.104zM11.134 7.986c-0.154-0.154-0.156-1.395-0.005-1.962 0.099-0.37 0.217-0.41 0.935-0.318 0.452 0.058 0.841 0.119 0.865 0.137s-0.011 0.366-0.077 0.773c-0.098 0.603-0.257 0.81-0.858 1.117-0.406 0.207-0.794 0.321-0.861 0.253zM12.048 5.218c-0.804-0.1-0.798-0.349 0.033-1.319l0.66-0.771 1.205 1.344-0.415 0.444c-0.228 0.244-0.511 0.43-0.628 0.413s-0.501-0.067-0.854-0.111zM13.697 3.493c-0.48-0.63-0.494-0.696-0.172-0.862 0.72-0.369 1.493-0.46 1.661-0.196 0.303 0.477 0.186 1.322-0.212 1.535-0.58 0.311-0.713 0.261-1.277-0.478zM15.751 2.891c0-0.801 0.046-0.889 0.463-0.889 0.47 0 1.117 0.544 1.117 0.94 0 0.379-0.603 0.838-1.1 0.838-0.437 0-0.48-0.079-0.48-0.889z"></path>
</svg>
