<!-- Generated by IcoMoon.io -->
<svg version="1.1" xmlns="http://www.w3.org/2000/svg" width="32" height="32" viewBox="0 0 32 32">
<title>world</title>
<path fill="#394852" d="M16 3.2c-4.446 0-8.373 2.273-10.666 5.722-1.348 2.027-2.134 4.465-2.134 7.078s0.787 5.051 2.134 7.078c2.293 3.449 6.219 5.722 10.666 5.722s8.373-2.273 10.666-5.722c1.348-2.027 2.134-4.465 2.134-7.078s-0.787-5.051-2.134-7.078c-2.293-3.449-6.219-5.722-10.666-5.722zM16 4.8c0 0 0.826-0.028 1.925 0.816 1.007 0.773 2.147 2.487 2.781 5.644-1.385 0.491-2.915 0.941-4.706 0.941-1.736 0-3.23-0.375-4.581-0.841 0.534-2.548 1.291-4.438 2.147-5.294 0.629-0.629 1.223-0.912 1.678-1.072 0.269-0.019 0.482-0.194 0.756-0.194zM11.903 5.844c-0.848 1.076-1.501 2.738-1.988 4.922-1.545-0.711-2.195-1.17-2.641-1.519 1.203-1.547 2.784-2.657 4.628-3.403zM20.134 5.853c1.815 0.741 3.364 1.843 4.556 3.362-0.352 0.281-1.188 0.791-2.512 1.459-0.483-2.194-1.196-3.737-2.044-4.822zM25.653 10.478c0.94 1.638 1.547 3.494 1.547 5.522 0 2.010-0.6 3.849-1.525 5.478-0.544-0.429-1.434-1.036-3.369-1.869 0.172-1.195 0.494-2.072 0.494-3.609 0-1.405-0.112-2.594-0.256-3.709 1.739-0.815 2.664-1.456 3.109-1.813zM6.328 10.522c0.545 0.429 1.433 1.034 3.366 1.866-0.172 1.196-0.494 2.074-0.494 3.613 0 1.537 0.322 2.414 0.494 3.609-1.934 0.833-2.825 1.44-3.369 1.869-0.925-1.629-1.525-3.468-1.525-5.478s0.603-3.849 1.528-5.478zM20.981 12.806c0.113 0.972 0.219 1.968 0.219 3.194 0 1.325-0.273 1.989-0.403 3.016-1.425-0.46-2.998-0.816-4.797-0.816s-3.372 0.356-4.797 0.816c-0.13-1.027-0.403-1.69-0.403-3.016s0.273-1.989 0.403-3.016c1.425 0.46 2.998 0.816 4.797 0.816 1.914 0 3.501-0.49 4.981-0.994zM16 19.8c1.736 0 3.23 0.375 4.581 0.841-0.534 2.548-1.291 4.438-2.147 5.294-0.629 0.629-1.223 0.912-1.678 1.072-0.269 0.019-0.482 0.194-0.756 0.194s-0.487-0.174-0.756-0.194c-0.456-0.16-1.050-0.443-1.678-1.072-0.856-0.856-1.613-2.746-2.147-5.294 1.351-0.465 2.845-0.841 4.581-0.841zM9.916 21.234c0.487 2.183 1.139 3.846 1.988 4.922-1.845-0.746-3.425-1.856-4.628-3.403 0.446-0.349 1.095-0.808 2.641-1.519zM22.084 21.234c1.545 0.711 2.195 1.17 2.641 1.519-1.203 1.547-2.784 2.657-4.628 3.403 0.848-1.076 1.501-2.738 1.988-4.922z"></path>
</svg>
