<!-- Generated by IcoMoon.io -->
<svg version="1.1" xmlns="http://www.w3.org/2000/svg" width="33" height="32" viewBox="0 0 33 32">
<title>wotog</title>
<path d="M28.885 26.009c0.038-0.029 0.068-0.054 0.096-0.077 0.019-0.163 0.038-0.326 0.064-0.487 0.094-0.587 0.378-1.412 0.402-2.13-0.211-0.516-0.424-1.030-0.606-1.559-0.095-0.275-0.21-0.555-0.326-0.819-0.109-0.25-0.248-0.486-0.342-0.744-0.058-0.159-0.11-0.366-0.209-0.504-0.053-0.074-0.127-0.086-0.212-0.106-0.142-0.033-0.273-0.093-0.416-0.121-0.081-0.016-0.153-0.053-0.233-0.072-0.022-0.005-0.090-0.015-0.115-0.032-0.060-0.043-0.104-0.144-0.137-0.215-0.041-0.090-0.056-0.181-0.082-0.277-0.031-0.111-0.071-0.201-0.084-0.315-0.013-0.105-0.018-0.207-0.044-0.31-0.037-0.15-0.098-0.291-0.132-0.442-0.053-0.237-0.102-0.463-0.199-0.685-0.091-0.21-0.171-0.408-0.219-0.636-0.025-0.117-0.069-0.233-0.112-0.342-0.010-0.025 0.001-0.029-0.020-0.057-0.015-0.021-0.060-0.036-0.080-0.051-0.046-0.033-0.077-0.048-0.128-0.075-0.065-0.035-0.124-0.078-0.19-0.113-0.048-0.026-0.084-0.049-0.119-0.093-0.083-0.106-0.12-0.275-0.171-0.401-0.085-0.207-0.132-0.412-0.188-0.629-0.060-0.234-0.131-0.465-0.191-0.7-0.022-0.087-0.033-0.174-0.051-0.261-0.029-0.141-0.095-0.268-0.14-0.404-0.057-0.173-0.086-0.483-0.284-0.534-0.044-0.011-0.102 0.017-0.128-0.033-0.016-0.031 0.006-0.067 0.005-0.096-0.002-0.058-0.015-0.12-0.025-0.177-0.026-0.157-0.034-0.317-0.069-0.473-0.026-0.113-0.034-0.209-0.042-0.325-0.004-0.064-0.026-0.134-0.005-0.194 0.019-0.056 0.064-0.089 0.085-0.15 0.027-0.081 0.022-0.155 0.014-0.238-0.007-0.068-0.004-0.183-0.026-0.242-0.033-0.088-0.14-0.16-0.211-0.209-0.058-0.040-0.167-0.065-0.208-0.124-0.046-0.067-0.027-0.204-0.027-0.283 0-0.13-0.024-0.252-0.026-0.382-0.002-0.165-0.038-0.326-0.052-0.49-0.005-0.055 0.004-0.103 0.006-0.157 0.003-0.065-0.008-0.124-0.008-0.188-0-0.033 0.010-0.067 0.007-0.1-0.005-0.054-0-0.036-0.032-0.072-0.053-0.058-0.127-0.047-0.196-0.064 0.007-0.090 0.046-0.178 0.064-0.267 0.024-0.118 0.040-0.23 0.069-0.346 0.040-0.157 0.065-0.306 0.119-0.458 0.015-0.043 0.013-0.068 0.020-0.111 0.007-0.042 0.063-0.098 0.061-0.136-0.004-0.051-0.103-0.099-0.136-0.115-0.048-0.024-0.098-0.016-0.096-0.094 0-0.026 0.028-0.112 0.036-0.141 0.024-0.083 0.032-0.169 0.057-0.253 0.023-0.080 0.050-0.153 0.071-0.234-0.050 0.034-0.068 0.103-0.1 0.149-0.084 0.122-0.168 0.237-0.238 0.372-0.048 0.092-0.211 0.388-0.131 0.487 0.014 0.017 0.042 0.025 0.061 0.051 0.020 0.028 0.029 0.056 0.054 0.081 0.040 0.040 0.1 0.082 0.116 0.157 0.014 0.062-0.010 0.164-0.018 0.227-0.018 0.144-0.017 0.287-0.021 0.432-0.004 0.116 0.006 0.262-0.015 0.375-0.018 0.1-0.090 0.166-0.096 0.266-0.004 0.056-0.019 0.118 0 0.168 0.029 0.079 0.121 0.094 0.143 0.178 0.020 0.074-0.014 0.177-0.008 0.256 0.014 0.181 0.013 0.363 0.022 0.544 0.008 0.142 0.013 0.29 0.017 0.431 0.003 0.1-0.022 0.171 0.067 0.228 0.044 0.028 0.093 0.050 0.127 0.087 0.077 0.081 0.041 0.166 0.034 0.272-0.008 0.122 0.002 0.245-0.006 0.367-0.008 0.125-0.019 0.246-0.017 0.372 0.005 0.271-0.007 0.541-0 0.812 0.002 0.087-0.009 0.287 0.036 0.365 0.036 0.061 0.123 0.047 0.179 0.073s0.136 0.065 0.156 0.131c0.018 0.059-0.005 0.168-0.012 0.227-0.019 0.182-0.048 0.357-0.046 0.541 0.002 0.146-0.027 0.287-0.034 0.431-0.009 0.175 0.027 0.349 0.020 0.525-0.009 0.246-0.025 0.535 0.029 0.776 0.022 0.101-0.024 0.198 0.052 0.258 0.057 0.046 0.124 0.062 0.184 0.102 0.11 0.075 0.211 0.195 0.24 0.334 0.031 0.154 0.050 0.31 0.061 0.468 0.009 0.13-0.010 0.261 0.007 0.39 0.021 0.158 0.045 0.311 0.060 0.471 0.027 0.275 0.079 0.55 0.119 0.823 0.028 0.188 0.032 0.38 0.059 0.567 0.010 0.068 0.009 0.065 0.069 0.084 0.095 0.031 0.193 0.050 0.288 0.080 0.108 0.034 0.16 0.036 0.219 0.147 0.088 0.165 0.061 0.359 0.1 0.543 0.048 0.226 0.107 0.445 0.147 0.674 0.043 0.244 0.097 0.492 0.164 0.729 0.114 0.406 0.269 0.822 0.323 1.246 0.023 0.175 0.016 0.411 0.086 0.571 0.158-0.012 0.313 0.073 0.473 0.074 0.114 0 0.202 0.021 0.301 0.087 0.059 0.039 0.082 0.079 0.118 0.143 0.134 0.237 0.24 0.469 0.34 0.727 0.145 0.375 0.301 0.747 0.435 1.126 0.123 0.348 0.216 0.708 0.308 1.068 0.165-0.302 0.407-0.552 0.666-0.751z"></path>
<path d="M9.575 23.399c0.094-0.31 0.077-0.669 0.036-0.993-0.024-0.187-0.077-0.377-0.076-0.564 0.001-0.235 0.044-0.464 0.026-0.702-0.031-0.407-0.011-0.798-0.005-1.203 0.002-0.153 0.038-0.307 0.030-0.46-0.006-0.128-0.038-0.261-0.059-0.389-0.017-0.104 0.007-0.198-0.002-0.299-0.005-0.061-0.033-0.106-0.028-0.169 0.005-0.054 0.009-0.128 0.028-0.181 0.020-0.057 0.054-0.079 0.079-0.131 0.043-0.092 0.051-0.219 0.124-0.294 0.079-0.082 0.21-0.076 0.322-0.076 0.153-0 0.22 0.005 0.243-0.117 0.028-0.154-0.029-0.246-0.042-0.4-0.030-0.347-0.005-0.684-0.040-1.034-0.022-0.222-0.107-0.46-0.105-0.68 0.001-0.101 0.093-0.185 0.137-0.277 0.087-0.18 0.007-0.412 0.165-0.559 0.074-0.069 0.209-0.087 0.242-0.171 0.024-0.061-0.027-0.179-0.037-0.245-0.030-0.195-0.058-0.392-0.057-0.586 0.001-0.379 0.023-0.766 0.101-1.136 0.023-0.108 0.085-0.136 0.176-0.198 0.096-0.066 0.115-0.157 0.185-0.236 0.057-0.066 0.107-0.082 0.125-0.169 0.026-0.122-0.010-0.208-0.036-0.331-0.049-0.229-0.062-0.558 0.028-0.773 0.041-0.099 0.101-0.223 0.235-0.239 0.119-0.013 0.297 0.010 0.415-0.028 0.133-0.043 0.093-0.224 0.086-0.322-0.012-0.157-0.032-0.408 0.131-0.507 0.132-0.081 0.238-0.032 0.224-0.209-0.006-0.074-0.054-0.149-0.064-0.223-0.013-0.101-0.003-0.21-0.008-0.313-0.008-0.186 0.011-0.316 0.214-0.387 0.083-0.029 0.223-0.097 0.318-0.175 0.012-0.003 0.025-0.005 0.040-0.014 0.206-0.11 0.393-0.297 0.55-0.477 0.091-0.104 0.172-0.223 0.272-0.315 0.127-0.117 0.268-0.21 0.389-0.337 0.207-0.217 0.426-0.402 0.646-0.6 0.083-0.075 0.181-0.135 0.261-0.215 0.066-0.067 0.124-0.147 0.185-0.22 0.049-0.059 0.11-0.095 0.16-0.149 0.030-0.032 0.043-0.068 0.080-0.097 0.031-0.025 0.073-0.059 0.109-0.077 0.039-0.019 0.065-0.014 0.103-0.029 0.067-0.026 0.139-0.085 0.211-0.089 0.077-0.005 0.128 0.059 0.175 0.111 0.064 0.070 0.089 0.103 0.164 0.053 0.095-0.064 0.121-0.136 0.198-0.218 0.175-0.186 0.367-0.342 0.541-0.532 0.111-0.121 0.204-0.278 0.323-0.386 0.055-0.050 0.138-0.049 0.206-0.074 0.133-0.049 0.225-0.202 0.37-0.202 0.068-0 0.133 0.053 0.193 0.026 0.043-0.019 0.086-0.101 0.117-0.139 0.092-0.111 0.187-0.221 0.292-0.317 0.205-0.188 0.423-0.37 0.655-0.518 0.067-0.043 0.109-0.029 0.18-0.018 0.075 0.012 0.132-0.025 0.204-0.033 0.059-0.006 0.089 0.008 0.143-0.026 0.077-0.049 0.108-0.108 0.163-0.181 0.104-0.136 0.276-0.306 0.429-0.371 0.070-0.030 0.163-0.064 0.226-0.010 0.057 0.048 0.119 0.142 0.188 0.177 0.078 0.040 0.16-0.068 0.209-0.12 0.080-0.083 0.207-0.217 0.328-0.192 0.099 0.021 0.116 0.094 0.206-0.001 0.038-0.040 0.058-0.099 0.094-0.14 0.049-0.056 0.112-0.106 0.166-0.159 0.097-0.096 0.175-0.152 0.297-0.094 0.077 0.036 0.261 0.090 0.336 0.041 0.045-0.030 0.058-0.122 0.088-0.164 0.041-0.057 0.093-0.104 0.135-0.163 0.052-0.074 0.115-0.141 0.169-0.212 0.039-0.051 0.095-0.073 0.135-0.124-0.056-0.057-0.273 0.037-0.331 0.045-0.247 0.038-0.49 0.095-0.737 0.138-0.508 0.088-1.014 0.178-1.516 0.305-0.124 0.031-0.24 0.085-0.36 0.132-0.176 0.069-0.358 0.115-0.534 0.185-0.281 0.111-0.57 0.184-0.852 0.29-0.138 0.052-0.275 0.094-0.415 0.135-0.223 0.066-0.428 0.195-0.648 0.273-0.257 0.091-0.494 0.198-0.738 0.323-0.181 0.093-0.364 0.188-0.553 0.26-0.77 0.292-1.567 0.496-2.339 0.78-0.365 0.134-0.711 0.322-1.063 0.492-0.489 0.235-0.943 0.513-1.403 0.808-0.21 0.134-0.423 0.272-0.616 0.436-0.139 0.118-0.258 0.258-0.388 0.388-0.194 0.192-0.282 0.416-0.423 0.652-0.030 0.050-0.081 0.104-0.055 0.164 0.040 0.031 0.143 0.059 0.114 0.103-4.124 6.376-6.283 12.551-6.23 12.624 0.15 0.191-0.258 2.952-0.153 3.178 0.011 0.024 0.98 0.93 1.608 1.452 0.051 0.13 0.107 0.261 0.157 0.403 0.027 0.076 0.035 0.177 0.135 0.206 0.081-0.012 0.163-0.019 0.247-0.020 0.141-0.009 0.283-0.008 0.427 0.004 0.391 0.023 0.788 0.083 1.171 0.184 0.053 0.014 0.345 0.166 1.169-0.023 0.014-0.091 0.019-0.164 0.006-0.258-0.032-0.234-0.014-0.459-0.019-0.691-0.007-0.295 0.013-0.562 0.057-0.853 0.018-0.118 0.012-0.215 0.101-0.298 0.072-0.068 0.123-0.075 0.222-0.106 0.218-0.067 0.447-0.133 0.669-0.195 0.126-0.035 0.205-0.013 0.242-0.135z"></path>
<path d="M24.221 18.305c-0.041-0.206-0.071-0.416-0.169-0.598-0.029-0.053-0.042-0.104-0.095-0.102-0.039 0.002-0.105 0.063-0.154 0.107-0.119-0.145-0.166 0.013-0.247 0.138-0.085 0.131-0.206 0.27-0.352 0.306-0.496 0.121-1.066 0.048-1.576 0.048h-4.153c-0.719 0-1.433-0.022-2.149-0.048-0.39-0.014-0.766-0.142-1.157-0.153-0.337-0.009-0.695-0.095-1.026-0.166-0.327-0.070-0.658-0.131-0.99-0.138-0.159-0.004-0.308-0.038-0.465-0.065-0.103-0.017-0.264-0.086-0.367-0.081 0.149 0.064 0.312 0.086 0.463 0.146 0.105 0.041 0.233 0.011 0.327 0.056 0.027 0.028 0.055 0.056 0.084 0.083 0.046 0.011 0.093 0.018 0.14 0.021 0.080 0.021 0.149 0.065 0.229 0.084 0.263 0.066 0.539 0.095 0.806 0.145 0.2 0.037 0.41 0.031 0.6 0.114 0.118 0.051 0.233 0.070 0.356 0.1 0.333 0.082 0.667 0.171 1.001 0.244 0.145 0.032 0.293 0.040 0.439 0.073 0.125 0.028 0.252 0.069 0.378 0.084 0.33 0.039 0.663 0.044 0.992 0.094 0.11 0.017 0.221 0.017 0.333 0.014 0.117 0.020 0.235 0.035 0.352 0.044 0.253 0.019 0.512 0.075 0.765 0.062 0.006-0 0.011-0.001 0.017-0.001-0.005-0.002-0.011-0.004-0.016-0.005 0.010 0.001 0.020 0.003 0.030 0.004-0.004 0-0.009 0.001-0.013 0.001 0.006 0.002 0.012 0.004 0.018 0.006 0.303 0.097 0.623 0.208 0.937 0.233 0.261 0.021 0.52 0.061 0.781 0.089 0.167 0.018 0.34 0.005 0.511-0.009-0.003-0.001-0.005-0.002-0.008-0.002-0.125-0.042-0.245-0.091-0.369-0.128 0.252 0.024 0.504 0.054 0.755 0.089-0.045 0.010-0.089 0.020-0.136 0.022-0.080 0.005-0.161 0.012-0.243 0.019 0.368 0.122 0.774 0.133 1.152 0.19 0.312 0.047 0.619 0.088 0.935 0.095 0.223 0.005 0.439 0.043 0.662 0.034 0.059-0.003 0.117-0.006 0.176-0.008 0.055 0.010 0.111 0.020 0.168 0.022 0.118 0.004 0.459 0.064 0.53-0.052-0.003-0.006-0.006-0.012-0.008-0.017 0.057-0.001 0.113 0.021 0.162 0.010-0.19-0.336-0.206-0.415-0.231-0.5-0.067-0.235-0.125-0.467-0.174-0.707z"></path>
<path d="M23.873 14.593c-0.015-0.118-0.017-0.255-0.060-0.364-0.058-0.147-0.108-0.056-0.187 0.043-0.059 0.073-0.119 0.148-0.168 0.231-0.050 0.086-0.078 0.189-0.137 0.269-0.129 0.178-0.318 0.337-0.492 0.455-0.158 0.106-0.358 0.173-0.543 0.193-0.154 0.017-0.311-0.016-0.464-0.025s-0.304-0.011-0.455-0.043c-0.213-0.045-0.425-0.143-0.637-0.201-0.13-0.036-0.251-0.084-0.375-0.143-0.302-0.144-0.613-0.275-0.919-0.41-0.685-0.303-1.37-0.657-2.088-0.853-0.824-0.225-1.674-0.285-2.514-0.388-0.236-0.029-0.469-0.056-0.707-0.068-0.142-0.007-0.278-0.014-0.418-0.051-0.079-0.021-0.421-0.156-0.49-0.044 0.018 0.045 0.101 0.076 0.137 0.11 0.041 0.039 0.075 0.078 0.121 0.109 0.132 0.090 0.283 0.142 0.425 0.209 0.554 0.26 1.174 0.298 1.764 0.375 0.498 0.065 0.977 0.253 1.458 0.402 0.279 0.086 0.563 0.16 0.838 0.26 0.406 0.148 0.786 0.357 1.197 0.492 0.305 0.1 0.612 0.249 0.927 0.306 0.259 0.047 0.498 0.131 0.762 0.154 0.176 0.015 0.342 0.081 0.517 0.107 0.179 0.027 0.359 0.023 0.538 0.041 0.14 0.014 0.283 0.046 0.418 0.090 0.111 0.036 0.229 0.054 0.338 0.096 0.094 0.036 0.149 0.072 0.246 0.087 0.093 0.015 0.157 0.067 0.245 0.102 0.103 0.041 0.214 0.053 0.32 0.082 0.082 0.022 0.158 0.056 0.235 0.093 0.032 0.015 0.051 0.049 0.090 0.015 0.132-0.657 0.186-0.92 0.168-1.179-0.013-0.18-0.066-0.37-0.088-0.55z"></path>
<path d="M18.694 10.894c-0.3-0.102-0.596-0.199-0.877-0.356-0.121-0.068-0.239-0.145-0.357-0.221 0.009 0.004 0.018 0.009 0.027 0.013 0.137 0.057 0.271 0.11 0.401 0.183 0.217 0.122 0.454 0.179 0.676 0.288 0.092 0.045 0.184 0.094 0.276 0.14-0.048-0.016-0.097-0.031-0.145-0.048zM23.225 11.475c-0.054 0.066-0.084 0.152-0.14 0.219-0.060 0.071-0.096 0.148-0.142 0.218 0.007-0.044 0.017-0.089 0.034-0.133 0.026-0.071 0.045-0.159 0.077-0.234-0.030 0.063-0.054 0.119-0.123 0.175-0.055 0.044-0.111 0.082-0.179 0.1-0.126 0.034-0.277 0.012-0.406 0.012-0.166-0-0.31-0.008-0.473-0.039-0.243-0.045-0.485-0.096-0.729-0.139-0.27-0.048-0.524-0.142-0.788-0.225-0.195-0.061-0.389-0.123-0.583-0.184-0.128-0.048-0.257-0.092-0.381-0.152-0.341-0.165-0.677-0.354-1.024-0.499-0.25-0.104-0.504-0.151-0.745-0.286-0.12-0.067-0.228-0.111-0.361-0.14-0.034-0.008-0.066-0.018-0.099-0.028-0.184-0.102-0.365-0.203-0.561-0.282-0.545-0.221-1.065-0.529-1.604-0.77-0.466-0.208-0.935-0.474-1.428-0.588 0.037 0.055 0.114 0.058 0.166 0.088 0.084 0.049 0.15 0.125 0.231 0.178 0.096 0.062 0.205 0.085 0.307 0.129 0.113 0.049 0.181 0.115 0.278 0.191 0.373 0.291 0.793 0.533 1.209 0.733 0.302 0.146 0.61 0.265 0.91 0.419 0.292 0.15 0.602 0.226 0.872 0.422 0.207 0.15 0.436 0.246 0.652 0.38 0.173 0.107 0.348 0.211 0.525 0.31 0.729 0.407 1.515 0.64 2.255 0.998 0.172 0.084 0.328 0.194 0.507 0.267 0.205 0.085 0.425 0.105 0.629 0.2 0.157 0.073 0.302 0.158 0.461 0.228 0.077 0.034 0.18 0.124 0.263 0.096 0.027-0.080 0.008-0.165 0.040-0.25 0.005-0.014 0.012-0.026 0.018-0.040 0.076 0.048 0.155 0.079 0.186 0.021 0.006-0.024 0.007-0.049 0.005-0.074 0.008-0.011 0.017-0.021 0.025-0.032 0.008-0.025 0.022-0.055 0.023-0.085 0.004-0.090-0.007-0.186 0.007-0.281 0.025-0.172 0.072-0.345 0.101-0.515 0.021-0.118 0.069-0.231 0.102-0.346 0.015-0.054 0.012-0.155 0.043-0.196-0.15 0.141-0.155 0.136-0.16 0.131z"></path>
<path d="M22.863 9.532c-0.065-0.004-0.096-0.019-0.156-0.043-0.080-0.031-0.163-0.022-0.243-0.037-0.101-0.018-0.171-0.056-0.278-0.058-0.138-0.003-0.274-0.020-0.413-0.017-0.126 0.002-0.193-0.027-0.304-0.076-0.297-0.129-0.581-0.29-0.872-0.438-0.789-0.401-1.472-1.001-2.18-1.55-0.222-0.172-0.44-0.353-0.673-0.506-0.153-0.101-0.308-0.193-0.462-0.29-0.077-0.048-0.172-0.090-0.263-0.139 0.051 0.042 0.103 0.083 0.155 0.125 0.198 0.158 0.414 0.286 0.61 0.447 0.275 0.226 0.557 0.439 0.838 0.655 0.167 0.128 0.345 0.234 0.513 0.359 0.148 0.11 0.285 0.23 0.435 0.337 0.218 0.156 0.427 0.323 0.642 0.484 0.334 0.25 0.673 0.529 1.029 0.74 0.183 0.109 0.355 0.198 0.521 0.342 0.148 0.129 0.324 0.21 0.487 0.311 0.101 0.062 0.205 0.106 0.3 0.181 0.073 0.058 0.139 0.109 0.223 0.146 0.068 0.030 0.344 0.21 0.421 0.169 0.026-0.108-0.010-0.223-0.009-0.332 0-0.106-0.027-0.211-0.021-0.317 0.008-0.138 0.059-0.269 0.074-0.406 0.005-0.045 0.030-0.133 0.014-0.177-0.267 0.099-0.326 0.093-0.387 0.089z"></path>
<path d="M16.706 6.123c0.025 0.032 0.056 0.058 0.088 0.082-0.025-0.031-0.048-0.061-0.088-0.082z"></path>
<path d="M16.794 6.205c0.010 0.012 0.019 0.024 0.031 0.037 0.052 0.055 0.122 0.098 0.195 0.137-0.044-0.036-0.088-0.073-0.133-0.107-0.030-0.022-0.062-0.043-0.092-0.066z"></path>
<path d="M23.323 6.373c-0.032-0.038-0.168-0.016-0.235-0.022-0.051-0.069-0.184-0.101-0.247-0.144-0.123-0.085-0.244-0.155-0.373-0.242-0.137-0.093-0.275-0.178-0.42-0.253-0.1-0.052-0.166-0.131-0.26-0.19-0.222-0.137-0.39-0.33-0.613-0.47-0.082-0.052-0.171-0.083-0.248-0.145s-0.133-0.147-0.215-0.207c-0.080-0.059-0.15-0.119-0.225-0.187-0.051-0.047-0.199-0.232-0.27-0.214-0.017 0.1 0.217 0.294 0.279 0.364 0.104 0.118 0.231 0.186 0.343 0.291 0.084 0.079 0.152 0.171 0.236 0.253 0.1 0.098 0.21 0.189 0.317 0.279 0.127 0.107 0.27 0.251 0.409 0.332 0.138 0.080 0.281 0.144 0.407 0.248 0.12 0.098 0.226 0.222 0.339 0.33 0.080 0.077 0.18 0.214 0.294 0.228 0.016-0.013 0.027-0.023 0.041-0.035 0.037 0.055 0.075 0.109 0.119 0.149 0.082 0.075 0.082-0.034 0.134-0.094s0.104-0.128 0.168-0.172z"></path>
<path d="M24.309 22.151c-0.088 0.113-0.171 0.163-0.28 0.25-0.761 0.613-1.7 0.872-2.637 0.859-0.262-0.004-0.519 0.048-0.78 0.055-0.241 0.006-0.479-0.016-0.719 0.009-0.539 0.056-1.079 0.039-1.621 0.039-0.461 0-0.912 0.015-1.371 0.050-0.52 0.040-1.034 0.050-1.556 0.050h-3.011c-0.47 0-0.94-0.002-1.411 0.001-0.027 0-0.111 0.001-0.205-0.003 0.087 0.031 0.173 0.064 0.257 0.090 0.304 0.096 0.608 0.168 0.918 0.226 0.315 0.059 0.604 0.194 0.924 0.23 0.386 0.043 0.764 0.11 1.141 0.213 0.261 0.072 0.507 0.149 0.776 0.177 0.364 0.038 0.725 0.124 1.090 0.129 0.673 0.010 1.347-0.003 2.020-0.003h1.829c0.279 0 0.579 0.033 0.856-0.009 0.42-0.064 0.845-0.116 1.264-0.19 0.248-0.044 0.494-0.087 0.741-0.129 0.026 0.003 0.052 0.003 0.078 0.005 0.178 0.018 0.364 0.056 0.543 0.059 0.087 0.001 0.171-0.016 0.258-0.014 0.089 0.002 0.176 0.017 0.265 0.012 0.117-0.006 0.234-0.002 0.351-0.007 0.216-0.011 0.431-0.033 0.646-0.059 0.135-0.016 0.272-0.016 0.407-0.034 0.173-0.024 0.34-0.080 0.511-0.104 0.139-0.020 0.293-0.024 0.432-0.030 0.054-0.003 0.094 0.022 0.149-0.006-0.243-0.559-0.413-0.806-0.519-1.075-0.062-0.158-0.118-0.295-0.163-0.459-0.023-0.082-0.051-0.162-0.068-0.246-0.011-0.058-0.008-0.11-0.052-0.151-0.046 0.033-0.077 0.075-0.104 0.121-0.041-0.12-0.081-0.24-0.114-0.363-0.021-0.075-0.062-0.141-0.083-0.215-0.019-0.068-0.011-0.142-0.030-0.211-0.032-0.112-0.066-0.218-0.092-0.334-0.041-0.182-0.115-0.342-0.113-0.53-0.005 0.184 0.045 0.342 0.045 0.533 0 0.223-0.038 0.393-0.133 0.593-0.103 0.217-0.299 0.291-0.437 0.471z"></path>
<path d="M10.719 23.462c-0.11-0.039-0.221-0.076-0.328-0.091 0.005 0.063 0.178 0.084 0.328 0.091z"></path>
<path d="M27.373 27.634c-0.033-0.162-0.092-0.314-0.125-0.477-0.030-0.144-0.092-0.26-0.14-0.396-0.046-0.134-0.065-0.277-0.123-0.406-0.056-0.127-0.154-0.317-0.168-0.458-0.084 0.029-0.151 0.223-0.204 0.3-0.039 0.057-0.082 0.11-0.123 0.165-0.041 0.027-0.080 0.057-0.116 0.097-0.126 0.141-0.29 0.192-0.428 0.318-0.254 0.231-0.517 0.475-0.816 0.633-0.179 0.095-0.378 0.146-0.566 0.212-0.228 0.080-0.443 0.185-0.677 0.242-0.415 0.101-0.821 0.267-1.234 0.384-0.524 0.149-1.043 0.315-1.562 0.488-0.247 0.082-0.51 0.169-0.765 0.217-0.152 0.029-0.296 0.034-0.446 0.082-0.178 0.057-0.345 0.126-0.529 0.158-0.349 0.060-0.699 0.127-1.050 0.175-0.412 0.057-0.818 0.173-1.23 0.215-0.125 0.013-0.25 0.031-0.375 0.052-0.107-0.001-0.214-0.002-0.32-0.002-0.618 0-1.25-0.045-1.867 0.009-0.348 0.030-0.692 0.095-1.042 0.096-0.213 0.001-0.425-0.004-0.638-0.004-0.782 0-1.564 0-2.346 0 0.561-0-1.263 0.013-0.709 0.127 0.056 0.012-0.064 0.085-0.007 0.093-0.212 0.012 0.063 0.045-0.151 0.046-0.298 0 1.47-0.061 1.172-0.064-0.21-0.002-0.408 0.045-0.616 0.054 1.447 0.005 2.896 0.019 4.342-0.001 0.156-0.002 0.309-0.026 0.463-0.053 0.729-0.002 1.458-0.006 2.187 0.002 0.642 0.007 1.287-0.098 1.927-0.214 0.060-0.003 0.119-0.006 0.179-0.015 0.333-0.050 0.674 0.018 1.004-0.062 0.379-0.092 0.766-0.065 1.153-0.104 0.227-0.023 0.451-0 0.677-0.007 0.244-0.008 0.472-0.106 0.718-0.109 0.4-0.005 0.799-0.021 1.195-0.086 0.268-0.044 0.56-0.013 0.83-0.010 0.152 0.002 0.288-0.047 0.438-0.054 0.149-0.007 0.302 0.003 0.452 0.003 0.332 0 0.684 0.041 1.010-0.037 0.202-0.048 0.419-0.119 0.623-0.115-0.048-0.071-0.085-0.133-0.117-0.191 0.083 0.013 0.164 0.025 0.253 0.039l0.038-0.009c0.056-0.222-0.055-0.493-0.095-0.708-0.039-0.207-0.034-0.419-0.076-0.626z"></path>
<path d="M23.053 11.545c0.012-0.024 0.024-0.049 0.041-0.076-0.016 0.022-0.029 0.048-0.041 0.076z"></path>
<path d="M18.761 5.773c-0.127-0.087-0.319-0.269-0.478-0.267 0.153 0.183 0.384 0.336 0.573 0.465 0.111 0.076 0.224 0.163 0.33 0.247 0.062 0.049 0.089 0.106 0.143 0.154 0.042 0.037 0.095 0.045 0.138 0.078 0.189 0.143 0.366 0.295 0.543 0.451 0.164 0.145 0.318 0.287 0.497 0.41 0.093 0.065 0.195 0.104 0.295 0.157 0.112 0.061 0.212 0.136 0.32 0.205 0.177 0.113 0.37 0.192 0.546 0.302 0.064 0.040 0.114 0.11 0.178 0.153 0.081 0.055 0.169 0.096 0.256 0.137 0.014 0.014 0.027 0.031 0.042 0.044 0.068 0.057 0.141 0.098 0.207 0.158s0.13 0.134 0.2 0.188c0.063 0.048 0.139 0.079 0.206 0.121 0.033 0.020 0.067 0.039 0.101 0.057 0.012 0.016 0.025 0.030 0.038 0.044 0.112 0.044 0.142-0.054 0.172-0.153 0.019-0.062 0.053-0.21 0.004-0.26-0.027-0.145-0.095-0.177-0.141-0.179-0.004-0.059-0.026-0.108-0.088-0.134-0.18-0.076-0.364-0.127-0.534-0.228-0.191-0.112-0.401-0.211-0.598-0.326-0.248-0.145-0.476-0.328-0.725-0.469-0.169-0.096-0.325-0.22-0.499-0.303-0.147-0.070-0.318-0.148-0.456-0.24-0.164-0.109-0.326-0.212-0.492-0.316-0.124-0.078-0.252-0.142-0.377-0.213-0.136-0.078-0.268-0.191-0.4-0.282z"></path>
<path d="M22.744 7.574c0.037 0.042 0.089 0.099 0.113 0.102 0.029 0.004 0.099-0.060 0.116-0.080 0.020-0.023 0.041-0.076 0.057-0.105 0.019-0.034 0.013-0.061 0.040-0.092 0.020-0.023 0.060-0.040 0.084-0.057-0.094-0.053-0.176-0.094-0.249-0.127-0.040-0.035-0.090-0.059-0.133-0.082-0.108-0.058-0.208-0.155-0.32-0.202-0.153-0.065-0.254-0.185-0.402-0.259-0.202-0.101-0.387-0.224-0.576-0.354-0.24-0.165-0.507-0.284-0.737-0.467-0.201-0.16-0.452-0.299-0.676-0.415-0.165-0.086-0.289-0.2-0.441-0.302-0.079-0.053-0.168-0.078-0.225-0.163 0.068 0.156 0.242 0.279 0.358 0.388 0.13 0.122 0.241 0.288 0.382 0.392 0.095 0.069 0.17 0.106 0.253 0.202 0.047 0.055 0.096 0.123 0.155 0.165 0.079 0.058 0.143 0.083 0.217 0.15 0.047 0.042 0.093 0.074 0.143 0.11 0.129 0.093 0.268 0.188 0.39 0.292 0.051 0.044 0.093 0.096 0.143 0.14 0.081 0.070 0.184 0.099 0.265 0.163 0.086 0.067 0.142 0.146 0.236 0.205 0.092 0.057 0.175 0.109 0.257 0.184 0.090 0.082 0.331 0.356 0.468 0.32-0.015-0.010 0.029-0.057 0.083-0.11z"></path>
<path d="M22.341 5.057c-0.029-0.036-0.059-0.072-0.089-0.107-0.054-0.051-0.111-0.098-0.166-0.147-0.242-0.217-0.501-0.42-0.77-0.591 0.127 0.143 0.27 0.269 0.397 0.41 0.078 0.086 0.185 0.145 0.261 0.229 0.065 0.073 0.099 0.135 0.175 0.201 0.206 0.177 0.399 0.367 0.603 0.546 0.096 0.084 0.198 0.161 0.294 0.245 0.050 0.044 0.099 0.106 0.155 0.145 0.033 0.046 0.065 0.093 0.103 0.134 0.113 0.122 0.128 0.025 0.219-0.066 0.073-0.073 0.141-0.141 0.227-0.202l-0.067-0.25c-0.055 0.039-0.096 0.070-0.157 0.091s-0.094 0.018-0.138 0.003c-0.169-0.112-0.357-0.19-0.526-0.31-0.062-0.045-0.127-0.081-0.192-0.12-0.075-0.046-0.128-0.104-0.201-0.153-0.047-0.008-0.090-0.028-0.128-0.059z"></path>
</svg>
