<!-- Generated by IcoMoon.io -->
<svg version="1.1" xmlns="http://www.w3.org/2000/svg" width="32" height="32" viewBox="0 0 32 32">
<title>wrench</title>
<path fill="#394852" d="M15.641 5.216c-2.028 0.126-3.444 0.928-3.444 0.928l-0.912 0.519 5.256 5.25-0.775 3.866-3.872 0.772-5.256-5.25-0.519 0.916c0 0-0.786 1.395-0.903 3.394s0.452 4.679 2.959 7.184c2.22 2.217 4.73 2.555 6.809 2.669s3.652 0.088 4.747 1.181l1.925 1.922 1.131-1.131-1.925-1.925c-1.629-1.627-3.795-1.537-5.791-1.647s-3.902-0.338-5.766-2.2c-2.199-2.197-2.59-4.324-2.494-5.959 0.056-0.946 0.226-1.094 0.406-1.563l4.15 4.147 5.756-1.15 1.153-5.753-4.156-4.147c0.476-0.186 0.64-0.364 1.619-0.425 1.665-0.103 3.828 0.289 6.056 2.516 1.861 1.859 2.056 3.754 2.131 5.747 0.038 0.996 0.029 1.999 0.203 2.991s0.561 1.99 1.378 2.806l1.925 1.922 1.131-1.131-1.925-1.922c-0.545-0.544-0.795-1.159-0.934-1.95s-0.139-1.739-0.178-2.778c-0.079-2.078-0.377-4.595-2.6-6.816-2.539-2.536-5.26-3.107-7.287-2.981z"></path>
</svg>
