<!-- Generated by IcoMoon.io -->
<svg version="1.1" xmlns="http://www.w3.org/2000/svg" width="32" height="32" viewBox="0 0 32 32">
<title>xp-bold</title>
<path d="M16 3.835l-0.969 1.563-3.107 4.991-7.491 1.853 4.973 5.902-0.558 7.696 7.152-2.906 7.152 2.906-0.558-7.696 4.973-5.902-7.491-1.853zM9.496 5.473l-1.826 1.375 1.857 2.46 1.821-1.375zM22.504 5.473l-1.853 2.46 1.821 1.375 1.857-2.46zM16 8.161l2.625 4.228 4.83 1.192-3.21 3.799 0.357 4.96-4.603-1.875-4.603 1.875 0.357-4.96-3.21-3.799 4.83-1.192zM6.656 17.728l-3 0.942 0.688 2.179 3-0.938zM25.344 17.728l-0.688 2.183 3 0.938 0.688-2.179zM14.857 25.121v3.040h2.286v-3.040z"></path>
</svg>
