<!-- Generated by IcoMoon.io -->
<svg version="1.1" xmlns="http://www.w3.org/2000/svg" width="32" height="32" viewBox="0 0 32 32">
<title>xp</title>
<path fill="#394852" d="M16 4.484l-0.678 1.094-3.181 5.113-7.091 1.75 4.706 5.588-0.525 7.288 6.769-2.753 6.769 2.753-0.525-7.288 4.706-5.588-7.091-1.75zM9.222 5.681l-1.278 0.963 1.856 2.459 1.275-0.963zM22.778 5.681l-1.856 2.459 1.278 0.963 1.856-2.459zM16 7.513l2.844 4.575 5.225 1.291-3.469 4.116 0.387 5.372-4.988-2.028-4.988 2.028 0.387-5.372-3.469-4.116 5.225-1.291zM6.759 18.056l-3 0.938 0.481 1.528 3-0.941zM25.241 18.056l-0.481 1.525 3 0.941 0.481-1.528zM15.2 25.122v3.041h1.6v-3.041z"></path>
</svg>
