<!-- Generated by IcoMoon.io -->
<svg version="1.1" xmlns="http://www.w3.org/2000/svg" width="32" height="32" viewBox="0 0 32 32">
<title>ybor_city</title>
<path d="M20.521 30.962c-0.004-0.021-0.052-0.389-0.107-0.817-0.222-1.724-0.255-2.066-0.339-3.504-0.020-0.341-0.020-1.644 0-2.047 0.092-1.86 0.184-2.626 0.545-4.562 0.188-1.009 0.233-1.436 0.288-2.776 0.067-1.62 0.075-2.808 0.023-3.504-0.047-0.637-0.149-1.353-0.248-1.743-0.067-0.263-0.209-0.407-0.454-0.458-0.11-0.023-0.176-0.017-0.237 0.024-0.040 0.027-0.058 0.054-0.119 0.181-0.139 0.294-0.173 0.396-0.276 0.84-0.071 0.307-0.123 0.559-0.173 0.85l-0.049 0.277-0.001 0.383c-0.001 0.211-0.005 0.39-0.011 0.399-0.015 0.024-0.029 0.007-0.189-0.22-0.304-0.434-0.423-0.671-0.492-0.981-0.031-0.141-0.064-0.189-0.128-0.189-0.042 0-0.048 0.006-0.152 0.145-0.461 0.617-0.778 1.231-1.064 2.062-0.153 0.443-0.178 0.507-0.217 0.555-0.021 0.025-0.042 0.046-0.046 0.047-0.022 0.001-0.050-0.157-0.109-0.613-0.122-0.943-0.142-1.155-0.142-1.534-0-0.295 0.005-0.374 0.053-0.811 0.039-0.35 0.028-0.392-0.087-0.329-0.034 0.019-0.146 0.090-0.25 0.158-0.291 0.192-0.39 0.302-0.771 0.858-0.098 0.143-0.194 0.275-0.213 0.294l-0.035 0.034-0.013-0.034c-0.007-0.019-0.031-0.127-0.052-0.241-0.038-0.202-0.058-0.271-0.079-0.271-0.018 0-0.093 0.079-0.389 0.413-0.159 0.178-0.308 0.339-0.332 0.357l-0.043 0.033-0.019-0.045c-0.036-0.085-0.044-0.159-0.037-0.316 0.012-0.25 0.058-0.472 0.167-0.802 0.215-0.649 0.541-1.149 1.111-1.705s1.048-0.88 2.007-1.36c0.235-0.118 0.442-0.226 0.459-0.239l0.032-0.025-0.055-0.032c-0.051-0.030-0.071-0.033-0.347-0.055-0.425-0.033-0.694-0.040-0.971-0.024-0.976 0.056-1.68 0.196-2.327 0.461-0.29 0.119-0.48 0.208-1.136 0.535-0.35 0.175-0.673 0.33-0.717 0.345l-0.080 0.027v-0.089c0-0.221 0.179-0.555 0.446-0.832 0.232-0.241 0.462-0.416 0.851-0.65 0.198-0.119 0.308-0.198 0.308-0.221 0-0.011-0.132-0.071-0.155-0.071-0.009-0-0.044-0.013-0.078-0.029-0.129-0.060-0.091-0.136 0.18-0.355 0.561-0.453 1.343-0.724 2.377-0.826 0.553-0.054 0.764-0.080 0.802-0.096l0.041-0.018-0.029-0.019c-0.057-0.038-0.661-0.198-0.924-0.244-0.396-0.069-0.493-0.066-1.831 0.052l-0.236 0.021-0.053-0.057 0.038-0.053c0.146-0.204 0.422-0.411 0.77-0.577 0.304-0.146 0.521-0.212 1.017-0.311 0.375-0.075 0.441-0.098 0.413-0.144-0.022-0.036-0.176-0.157-0.315-0.249-0.36-0.236-0.762-0.387-1.475-0.556-0.671-0.159-1.207-0.243-1.671-0.263-0.131-0.006-0.188-0.013-0.225-0.029-0.028-0.012-0.050-0.027-0.050-0.033s0.016-0.024 0.035-0.040c0.027-0.023 0.104-0.046 0.357-0.107 0.678-0.165 0.806-0.18 1.555-0.193 0.838-0.014 1.294 0.048 1.829 0.247 0.407 0.151 0.696 0.293 1.664 0.815 0.14 0.075 0.268 0.14 0.286 0.145 0.031 0.008 0.032 0.006 0.032-0.040 0-0.088-0.095-0.33-0.201-0.512-0.623-1.069-1.222-1.777-1.826-2.159-0.187-0.118-0.39-0.217-0.68-0.333-0.308-0.123-0.432-0.18-0.432-0.2 0-0.034 0.056-0.059 0.262-0.12 0.237-0.070 0.281-0.086 0.281-0.1 0-0.028-0.104-0.081-0.449-0.23-0.21-0.090-0.401-0.175-0.423-0.188l-0.040-0.023 0.037-0.031c0.048-0.040 0.243-0.101 0.397-0.124 0.234-0.035 0.403-0.021 0.79 0.065 1.285 0.286 2.288 0.757 3.069 1.442 0.171 0.15 0.282 0.278 0.529 0.61 0.175 0.236 0.305 0.389 0.328 0.389 0.018 0 0.046-0.125 0.070-0.319 0.164-1.335 0.616-2.378 1.303-3.003 0.149-0.136 0.243-0.203 0.398-0.282 0.13-0.067 0.139-0.070 0.158-0.050s0.019 0.050-0.012 0.613c-0.059 1.072-0.062 1.529-0.013 1.921 0.037 0.293 0.137 0.904 0.156 0.947 0.022 0.052 0.027 0.053 0.059 0.018s0.063-0.091 0.217-0.388c0.204-0.394 0.371-0.63 0.609-0.86 0.146-0.142 0.273-0.241 0.431-0.338 0.354-0.216 2.28-1.143 2.482-1.194 0.051-0.013 0.171-0.037 0.267-0.053 0.16-0.027 0.222-0.029 0.222-0.008 0 0.019-0.090 0.104-0.336 0.32-0.543 0.474-1.126 1.048-1.267 1.245-0.089 0.125-0.188 0.324-0.236 0.472-0.042 0.128-0.078 0.303-0.068 0.329 0.010 0.027 0.046 0.023 0.222-0.022 0.539-0.138 1.098-0.225 1.65-0.256 0.296-0.017 0.805-0.007 0.862 0.016l0.039 0.016-0.038 0.027c-0.021 0.015-0.273 0.14-0.56 0.277-1.025 0.491-1.243 0.63-2.15 1.37-0.451 0.368-0.47 0.385-0.528 0.47-0.051 0.075-0.090 0.203-0.069 0.225 0.006 0.006 0.044 0.008 0.085 0.005 0.061-0.004 0.117-0.023 0.299-0.101 0.422-0.18 0.88-0.311 1.386-0.398 1.132-0.193 2.232-0.063 3.293 0.388 0.085 0.036 0.167 0.074 0.183 0.085 0.025 0.017 0.027 0.021 0.010 0.030-0.010 0.006-0.193 0.016-0.405 0.021-1 0.028-1.432 0.084-2.138 0.278-0.361 0.099-0.988 0.315-1.026 0.353-0.015 0.015-0.014 0.021 0.012 0.045 0.016 0.015 0.177 0.131 0.358 0.256 0.296 0.205 0.373 0.269 0.373 0.308 0 0.014-0.057 0.010-0.219-0.014-0.459-0.069-0.995-0.065-1.415 0.011-0.417 0.076-0.797 0.205-1.191 0.404-0.154 0.078-0.174 0.092-0.292 0.207l-0.127 0.123 0.139 0.103c0.181 0.134 0.593 0.388 0.675 0.417 0.050 0.017 0.084 0.021 0.145 0.016 0.070-0.006 0.109-0.020 0.289-0.106 0.333-0.159 0.449-0.194 0.669-0.205 0.176-0.008 0.251 0.006 0.556 0.104 0.548 0.176 0.926 0.362 1.45 0.71 0.527 0.351 1.173 0.907 1.411 1.214 0.14 0.181 0.301 0.482 0.324 0.605 0.008 0.043 0.008 0.044-0.022 0.037-0.017-0.004-0.231-0.104-0.477-0.221-1.55-0.742-1.881-0.888-2.295-1.012-0.335-0.1-0.681-0.175-1.097-0.238-0.351-0.052-0.373-0.049-0.359 0.054 0.016 0.119 0.1 0.233 0.222 0.305 0.030 0.017 0.22 0.095 0.424 0.173 0.925 0.354 1.455 0.572 1.683 0.69 0.535 0.278 0.996 0.718 1.415 1.351 0.21 0.317 0.221 0.34 0.257 0.523 0.017 0.090 0.029 0.166 0.026 0.169-0.010 0.010-0.182-0.090-0.362-0.21-0.825-0.55-1.679-0.934-3.236-1.457-0.536-0.18-0.584-0.201-0.725-0.321-0.109-0.092-0.151-0.118-0.236-0.144-0.117-0.036-0.357-0.028-0.357 0.012 0 0.016 0.038 0.054 0.13 0.131 0.454 0.382 0.758 0.763 0.98 1.232 0.306 0.644 0.444 1.288 0.402 1.875-0.022 0.313-0.091 0.664-0.152 0.775l-0.031 0.058-0.040-0.039c-0.022-0.021-0.168-0.238-0.323-0.481-0.282-0.441-0.353-0.535-0.38-0.508-0.009 0.009-0.016 0.112-0.021 0.311-0.013 0.5-0.087 0.876-0.266 1.341-0.096 0.25-0.145 0.35-0.24 0.492-0.119 0.177-0.135 0.185-0.145 0.071-0.038-0.444-0.069-0.647-0.15-0.975-0.163-0.659-0.451-1.32-0.979-2.243-0.282-0.494-0.352-0.675-0.372-0.96l-0.008-0.117-0.068-0.072c-0.037-0.040-0.071-0.069-0.075-0.066s-0.024 0.059-0.045 0.124c-0.036 0.111-0.038 0.127-0.038 0.3-0 0.168 0.004 0.202 0.049 0.425 0.061 0.302 0.097 0.636 0.157 1.475 0.013 0.185 0.040 0.522 0.059 0.749 0.059 0.702 0.064 0.812 0.063 1.257-0.002 0.812-0.049 1.937-0.117 2.737-0.037 0.44-0.075 0.771-0.141 1.233-0.073 0.513-0.081 0.59-0.119 1.209-0.026 0.422-0.068 0.867-0.188 1.97-0.062 0.574-0.072 0.673-0.096 0.956-0.026 0.31-0.035 0.948-0.018 1.215 0.031 0.48 0.036 0.587 0.048 0.962 0.031 0.957 0.060 1.311 0.161 1.982 0.039 0.259 0.12 0.703 0.188 1.029 0.072 0.347 0.142 0.731 0.235 1.29 0.043 0.256 0.081 0.481 0.084 0.498l0.007 0.032h-1.9zM3.041 27.292c-0.058-0.029-0.060-0.048-0.057-0.411 0.004-0.372 0-0.354 0.082-0.413 0.031-0.022 0.2-0.022 8.269-0.022 7.25 0 8.241 0.002 8.271 0.018 0.020 0.011 0.038 0.033 0.046 0.056 0.006 0.021 0.015 0.153 0.019 0.292s0.010 0.292 0.014 0.339c0.007 0.083 0.007 0.086-0.029 0.121l-0.036 0.036-8.275-0c-6.614-0-8.281-0.003-8.304-0.015zM22.29 27.285c-0.019-0.012-0.042-0.030-0.050-0.039-0.016-0.020-0.075-0.67-0.065-0.722 0.003-0.017 0.019-0.042 0.036-0.055 0.029-0.023 0.055-0.023 1.956-0.023 1.878 0 1.927 0.001 1.954 0.023l0.028 0.023 0.003 0.335c0.004 0.378-0.001 0.41-0.067 0.454l-0.040 0.027h-1.86c-1.783 0-1.861-0.001-1.895-0.022zM3.983 26.043c-0.025-0.024-0.025-0.032-0.018-0.211 0.015-0.373-0.029-0.461-0.322-0.655-0.255-0.168-0.42-0.331-0.572-0.564-0.358-0.55-0.503-1.44-0.37-2.28 0.092-0.582 0.28-1.099 0.647-1.776 0.152-0.279 0.398-0.772 0.46-0.919 0.048-0.114 0.079-0.24 0.095-0.381 0.018-0.161 0.017-1.733-0.001-1.817-0.031-0.147-0.143-0.293-0.274-0.357-0.193-0.094-0.436-0.058-0.591 0.089-0.102 0.097-0.149 0.197-0.165 0.353-0.017 0.166-0.092 0.248-0.229 0.248-0.080 0-0.116-0.016-0.181-0.080l-0.056-0.055v-0.251l0.084-0.176c0.046-0.097 0.107-0.211 0.136-0.255 0.1-0.151 0.266-0.274 0.462-0.344 0.099-0.035 0.11-0.037 0.298-0.037 0.172-0 0.205 0.003 0.283 0.027 0.22 0.069 0.408 0.205 0.529 0.381 0.021 0.030 0.062 0.106 0.092 0.169 0.044 0.093 0.063 0.12 0.103 0.146l0.048 0.032 8 0.006c4.4 0.003 8.009 0.010 8.020 0.016 0.032 0.016 0.048 0.083 0.039 0.165-0.023 0.218-0.052 0.278-0.201 0.415-0.123 0.113-0.165 0.183-0.186 0.307-0.025 0.15 0.021 0.287 0.14 0.421 0.087 0.098 0.11 0.149 0.11 0.253 0 0.119-0.041 0.35-0.067 0.369-0.015 0.011-0.125 0.015-0.449 0.015h-0.429l-0.058 0.058 0.006 2.732 0.069 0.171c0.038 0.094 0.11 0.269 0.161 0.389s0.104 0.258 0.117 0.307c0.058 0.207 0.053 0.433-0.013 0.631-0.034 0.103-0.062 0.16-0.16 0.33-0.069 0.119-0.128 0.276-0.158 0.419-0.022 0.101-0.027 0.163-0.027 0.338-0.001 0.2 0.001 0.217 0.024 0.248s0.033 0.034 0.116 0.039c0.082 0.005 0.094 0.009 0.121 0.040 0.029 0.033 0.029 0.038 0.026 0.203-0.003 0.143-0.007 0.172-0.025 0.19-0.020 0.020-0.073 0.022-0.755 0.030-0.404 0.005-1.321 0.005-2.038 0-1.646-0.011-1.521-0.011-1.565 0.007-0.020 0.009-0.043 0.029-0.050 0.045-0.008 0.019-0.013 0.114-0.013 0.262-0 0.205-0.003 0.236-0.022 0.265-0.042 0.063-0.055 0.067-0.226 0.067-0.088 0-0.165-0.004-0.172-0.008-0.035-0.023-0.040-0.066-0.040-0.326 0-0.251-0.001-0.268-0.024-0.29-0.034-0.034-0.129-0.033-0.16 0.001-0.020 0.022-0.022 0.047-0.023 0.268-0 0.231-0.002 0.246-0.027 0.286-0.014 0.023-0.040 0.048-0.056 0.056-0.046 0.021-0.325 0.018-0.354-0.003-0.021-0.015-0.023-0.037-0.029-0.281-0.005-0.228-0.009-0.268-0.027-0.296-0.012-0.018-0.033-0.037-0.047-0.042-0.035-0.013-4.609-0.025-4.665-0.012-0.025 0.006-0.057 0.024-0.071 0.041-0.026 0.030-0.027 0.038-0.027 0.294 0 0.337 0.017 0.314-0.232 0.314-0.165 0-0.179-0.002-0.2-0.025s-0.023-0.049-0.026-0.304c-0.004-0.324-0.003-0.32-0.102-0.32-0.104 0-0.104-0-0.105 0.326-0.001 0.35 0.018 0.323-0.235 0.323-0.098-0-0.185-0.004-0.193-0.009-0.031-0.020-0.041-0.079-0.034-0.197 0.004-0.065 0.003-0.175-0.003-0.246-0.009-0.116-0.013-0.13-0.042-0.159l-0.032-0.032-1.383-0.003c-0.761-0.002-1.405-0-1.433 0.004s-0.062 0.017-0.077 0.029c-0.026 0.021-0.027 0.029-0.033 0.278l-0.006 0.256-0.088 0.081h-0.158c-0.135 0-0.16-0.003-0.176-0.021s-0.019-0.067-0.024-0.301c-0.006-0.327-0.006-0.328-0.108-0.327-0.111 0-0.113 0.008-0.113 0.335 0 0.34 0.019 0.313-0.23 0.313-0.171 0-0.184-0.002-0.208-0.025zM5.351 24.94c0.063-0.013 0.063-0.015 0.064-0.977 0-0.487 0.001-1.013 0.001-1.169 0-0.238-0.003-0.306-0.025-0.425-0.063-0.352-0.178-0.647-0.373-0.95l-0.072-0.112v-0.106c0-0.12 0.025-0.208 0.124-0.437 0.031-0.071 0.092-0.212 0.136-0.313 0.158-0.366 0.209-0.568 0.211-0.838 0.001-0.187-0.018-0.27-0.066-0.296-0.016-0.009-0.172-0.013-0.471-0.014l-0.447-0.001-0.053 0.053v0.734c0 0.404-0.005 0.899-0.011 1.1-0.012 0.404-0.003 0.549 0.047 0.832 0.056 0.312 0.147 0.581 0.298 0.883 0.103 0.205 0.124 0.281 0.116 0.409-0.008 0.122-0.034 0.189-0.151 0.383-0.211 0.352-0.292 0.558-0.318 0.816-0.012 0.117-0 0.295 0.025 0.373 0.025 0.077 0.016 0.076 0.5 0.068 0.24-0.004 0.449-0.010 0.464-0.013zM6.892 24.92c0.023-0.031 0.025-0.048 0.025-0.248-0-0.38-0.056-0.567-0.263-0.885-0.146-0.224-0.218-0.441-0.192-0.581 0.013-0.068 0.104-0.305 0.284-0.737 0.066-0.159 0.131-0.318 0.143-0.353 0.021-0.061 0.022-0.119 0.022-1.395v-1.331l-0.073-0.083h-0.447c-0.427 0-0.448 0.001-0.47 0.023-0.034 0.034-0.040 0.087-0.033 0.317 0.010 0.339 0.052 0.507 0.215 0.852 0.099 0.209 0.147 0.326 0.208 0.507 0.026 0.076 0.034 0.121 0.034 0.19 0 0.086-0.003 0.097-0.066 0.225-0.036 0.074-0.129 0.254-0.206 0.4s-0.149 0.297-0.161 0.336c-0.020 0.067-0.021 0.149-0.021 1.38v1.31l0.027 0.044c0.015 0.024 0.039 0.047 0.053 0.050 0.033 0.008 0.289 0.013 0.626 0.012l0.27-0 0.025-0.033zM8.365 24.947c0.064-0.029 0.062-0.003 0.065-0.843 0.002-0.428-0.001-1.023-0.007-1.321l-0.010-0.543-0.037-0.108c-0.043-0.125-0.133-0.309-0.302-0.617l-0.12-0.218 0-0.1c0-0.1 0.001-0.102 0.12-0.396 0.066-0.163 0.147-0.35 0.18-0.417 0.129-0.256 0.17-0.443 0.171-0.764 0.001-0.199-0.001-0.217-0.024-0.248-0.054-0.073-0.063-0.075-0.527-0.075-0.288 0-0.431 0.004-0.45 0.013-0.016 0.007-0.035 0.027-0.042 0.044-0.011 0.028-0.015 0.522-0.016 2.137-0 0.505 0.074 0.834 0.292 1.286 0.138 0.285 0.165 0.37 0.165 0.515l0 0.108-0.109 0.217c-0.060 0.119-0.154 0.302-0.209 0.406s-0.108 0.22-0.118 0.259c-0.014 0.054-0.018 0.135-0.018 0.346v0.275l0.058 0.058h0.454c0.298 0 0.464-0.004 0.482-0.013zM9.895 24.939c0.032-0.026 0.048-0.12 0.048-0.275 0-0.315-0.082-0.597-0.244-0.838-0.15-0.223-0.219-0.396-0.22-0.548-0-0.109 0.014-0.15 0.265-0.752 0.079-0.19 0.154-0.376 0.166-0.414 0.021-0.065 0.022-0.141 0.022-1.413v-1.345l-0.058-0.058h-0.92l-0.066 0.057 0 0.252c0.001 0.371 0.037 0.526 0.212 0.895 0.134 0.284 0.223 0.523 0.237 0.644 0.015 0.126-0.014 0.2-0.273 0.69-0.067 0.127-0.134 0.267-0.149 0.313l-0.027 0.083-0.004 1.303c-0.002 0.717-0.001 1.321 0.003 1.343s0.018 0.050 0.030 0.063c0.022 0.022 0.043 0.023 0.488 0.023 0.425 0 0.467-0.002 0.49-0.021zM11.412 24.93c0.016-0.016 0.029-0.038 0.030-0.050 0.006-0.18 0.004-2.454-0.003-2.521-0.020-0.2-0.087-0.389-0.204-0.579-0.028-0.045-0.099-0.177-0.159-0.293-0.147-0.288-0.148-0.263 0.015-0.672 0.067-0.17 0.16-0.388 0.205-0.486 0.096-0.205 0.127-0.32 0.144-0.525 0.015-0.179 0.004-0.407-0.020-0.446-0.036-0.058-0.066-0.061-0.522-0.061-0.29 0-0.434 0.004-0.454 0.013-0.057 0.026-0.058 0.037-0.049 0.692 0.006 0.478 0.004 0.69-0.010 0.977-0.027 0.544-0.001 0.883 0.099 1.272 0.061 0.237 0.123 0.405 0.249 0.668 0.115 0.241 0.136 0.316 0.118 0.425-0.017 0.103-0.041 0.156-0.161 0.362-0.262 0.449-0.348 0.727-0.313 1.012 0.008 0.061 0.014 0.13 0.014 0.152 0 0.030 0.008 0.048 0.031 0.066 0.030 0.024 0.044 0.024 0.496 0.024h0.465zM12.917 24.937c0.065-0.052 0.061-0.428-0.008-0.697-0.035-0.138-0.098-0.273-0.205-0.438-0.135-0.208-0.199-0.361-0.21-0.501-0.006-0.078-0.003-0.092 0.054-0.242 0.033-0.088 0.131-0.332 0.218-0.543s0.164-0.404 0.172-0.43c0.009-0.033 0.013-0.447 0.013-1.39l0-1.343-0.058-0.058h-0.454c-0.254 0-0.467 0.005-0.483 0.011-0.051 0.019-0.059 0.073-0.052 0.336 0.010 0.349 0.048 0.507 0.199 0.82 0.088 0.183 0.127 0.276 0.2 0.479 0.053 0.147 0.068 0.257 0.046 0.343-0.016 0.063-0.111 0.258-0.278 0.569-0.061 0.114-0.123 0.24-0.138 0.279l-0.026 0.071-0.004 1.315c-0.002 0.723-0.001 1.333 0.003 1.355s0.018 0.050 0.030 0.062c0.022 0.022 0.043 0.023 0.488 0.023 0.435 0 0.466-0.001 0.492-0.022zM14.323 24.94c0.044-0.012 0.047-0.042 0.045-0.522-0.001-0.257-0.005-0.486-0.008-0.509s0.001-0.24 0.009-0.484c0.025-0.702 0.016-0.934-0.050-1.215-0.057-0.246-0.171-0.516-0.304-0.722-0.077-0.119-0.095-0.184-0.096-0.342-0-0.107 0.112-0.416 0.283-0.776 0.119-0.252 0.144-0.339 0.166-0.588 0.007-0.076 0.009-0.196 0.004-0.267-0.008-0.124-0.009-0.131-0.047-0.171l-0.039-0.042-0.821 0.003-0.054 0.063-0.003 0.976c-0.004 1.337-0.003 1.424 0.020 1.587 0.037 0.261 0.117 0.523 0.228 0.745 0.029 0.058 0.092 0.204 0.141 0.324 0.078 0.193 0.088 0.227 0.088 0.294 0 0.086-0.012 0.115-0.203 0.468-0.059 0.11-0.143 0.272-0.186 0.359l-0.078 0.158-0.007 0.621 0.062 0.062 0.415-0.008c0.228-0.004 0.425-0.011 0.436-0.014zM15.842 24.938c0.022-0.018 0.028-0.039 0.037-0.133 0.020-0.201-0.008-0.462-0.068-0.643-0.041-0.122-0.081-0.201-0.176-0.346-0.152-0.231-0.226-0.432-0.214-0.574 0.007-0.078 0.071-0.249 0.291-0.779 0.073-0.175 0.14-0.345 0.149-0.378 0.013-0.048 0.016-0.309 0.016-1.396l0-1.337-0.058-0.058h-0.454c-0.25 0-0.467 0.005-0.482 0.011-0.053 0.020-0.059 0.062-0.052 0.334 0.009 0.355 0.039 0.485 0.186 0.799 0.044 0.094 0.126 0.286 0.181 0.427 0.14 0.353 0.14 0.347-0.033 0.662-0.147 0.268-0.286 0.549-0.31 0.629-0.020 0.066-0.022 0.146-0.022 1.413v1.343l0.028 0.023c0.026 0.021 0.053 0.023 0.491 0.023 0.429 0 0.465-0.002 0.49-0.021zM17.352 24.938c0.015-0.012 0.029-0.041 0.034-0.068s0.004-0.275-0.001-0.554c-0.007-0.358-0.005-0.623 0.006-0.903 0.026-0.685 0.014-0.919-0.062-1.236-0.063-0.261-0.175-0.519-0.323-0.745-0.088-0.133-0.107-0.185-0.098-0.261 0.008-0.066 0.189-0.526 0.303-0.767 0.127-0.27 0.172-0.449 0.185-0.737 0.010-0.206-0.002-0.307-0.038-0.344l-0.028-0.028h-0.923l-0.034 0.034c-0.022 0.022-0.035 0.047-0.035 0.068-0.006 0.899 0.001 2.541 0.012 2.605 0.019 0.122 0.056 0.246 0.109 0.366 0.098 0.223 0.32 0.77 0.335 0.826 0.036 0.129 0.021 0.182-0.128 0.455-0.062 0.113-0.16 0.298-0.217 0.411l-0.105 0.205-0.007 0.643 0.032 0.025c0.031 0.024 0.041 0.025 0.495 0.025 0.427 0 0.465-0.002 0.489-0.021zM18.863 24.938c0.034-0.028 0.052-0.181 0.041-0.362-0.017-0.297-0.088-0.524-0.225-0.726-0.038-0.056-0.091-0.152-0.217-0.395-0.026-0.051-0.031-0.074-0.031-0.166v-0.107l0.092-0.185c0.214-0.434 0.326-0.81 0.374-1.259 0.016-0.149 0.016-0.308 0.004-1.438l-0.010-0.96-0.028-0.023c-0.026-0.021-0.053-0.023-0.493-0.023-0.447 0-0.466 0.001-0.488 0.023-0.036 0.036-0.039 0.067-0.032 0.328 0.009 0.341 0.052 0.526 0.185 0.793 0.031 0.062 0.107 0.241 0.17 0.398 0.15 0.377 0.15 0.382 0.008 0.639-0.161 0.292-0.334 0.637-0.35 0.699-0.014 0.056-0.016 0.273-0.014 1.402l0.003 1.336 0.028 0.023c0.026 0.021 0.053 0.023 0.491 0.023 0.428 0 0.465-0.002 0.49-0.021zM3.908 24.683c0.031-0.161 0.016-0.317-0.045-0.479-0.037-0.099-0.163-0.35-0.282-0.564-0.052-0.093-0.108-0.198-0.124-0.234-0.048-0.104-0.037-0.155 0.085-0.428 0.289-0.644 0.389-0.978 0.387-1.286-0.003-0.495-0.022-1.097-0.034-1.11-0.018-0.018-0.058 0.042-0.187 0.283-0.247 0.46-0.396 0.832-0.49 1.22-0.083 0.342-0.112 0.623-0.102 0.97 0.021 0.71 0.212 1.232 0.582 1.589 0.055 0.053 0.181 0.143 0.189 0.135 0.002-0.002 0.012-0.045 0.021-0.095zM4.278 23.468c0.053-0.097 0.096-0.181 0.095-0.189-0.002-0.036-0.197-0.474-0.213-0.477-0.009-0.002-0.027 0.003-0.038 0.012-0.026 0.019-0.159 0.335-0.177 0.419-0.016 0.077-0.008 0.105 0.090 0.283 0.072 0.131 0.107 0.168 0.133 0.141 0.007-0.007 0.056-0.092 0.109-0.189zM13.312 23.472c0.068-0.125 0.1-0.195 0.094-0.209-0.004-0.011-0.051-0.123-0.104-0.248-0.086-0.204-0.099-0.226-0.12-0.22-0.013 0.004-0.027 0.011-0.031 0.015-0.016 0.016-0.178 0.418-0.184 0.456-0.005 0.034 0.008 0.067 0.086 0.213 0.085 0.158 0.12 0.203 0.148 0.186 0.005-0.003 0.054-0.090 0.11-0.193zM19.256 23.474l0.105-0.191-0.103-0.242c-0.057-0.133-0.106-0.244-0.111-0.246s-0.019-0-0.032 0.005c-0.018 0.007-0.048 0.066-0.115 0.23-0.050 0.122-0.090 0.234-0.090 0.251 0 0.034 0.146 0.321 0.186 0.364 0.015 0.016 0.033 0.027 0.041 0.025s0.061-0.091 0.119-0.196zM7.269 23.477c0.056-0.102 0.101-0.189 0.101-0.194 0-0.014-0.19-0.464-0.2-0.475-0.038-0.040-0.097 0.055-0.193 0.313-0.058 0.156-0.057 0.18 0.023 0.335 0.077 0.151 0.116 0.205 0.146 0.205 0.016 0 0.049-0.049 0.123-0.185zM10.272 23.511c0.045-0.083 0.091-0.169 0.102-0.192l0.019-0.041-0.085-0.201c-0.047-0.11-0.092-0.218-0.102-0.24-0.023-0.053-0.060-0.047-0.095 0.015-0.056 0.102-0.157 0.371-0.157 0.418 0 0.054 0.031 0.129 0.112 0.272 0.092 0.163 0.099 0.161 0.205-0.032zM16.235 23.474c0.095-0.172 0.102-0.19 0.090-0.221-0.007-0.019-0.053-0.128-0.102-0.244-0.118-0.279-0.121-0.279-0.241 0.009-0.052 0.124-0.075 0.197-0.079 0.244-0.005 0.063-0.001 0.074 0.068 0.208 0.078 0.152 0.107 0.191 0.139 0.191 0.014 0 0.052-0.057 0.124-0.187zM8.702 21.511c0.076-0.118 0.156-0.291 0.156-0.339 0-0.054-0.040-0.172-0.112-0.33-0.093-0.203-0.095-0.202-0.222 0.095l-0.101 0.237 0.060 0.12c0.050 0.1 0.162 0.291 0.17 0.291 0.001 0 0.024-0.033 0.050-0.074zM11.815 21.352c0.036-0.060 0.067-0.126 0.071-0.147 0.007-0.045-0.016-0.114-0.11-0.335-0.065-0.152-0.097-0.198-0.123-0.172-0.006 0.006-0.056 0.116-0.11 0.244l-0.1 0.233 0.040 0.084c0.022 0.046 0.073 0.14 0.113 0.207l0.073 0.123 0.041-0.064c0.022-0.035 0.070-0.113 0.106-0.173zM14.757 21.305c0.051-0.122 0.053-0.144 0.024-0.235-0.028-0.088-0.135-0.336-0.163-0.379l-0.018-0.027-0.029 0.027c-0.041 0.038-0.104 0.177-0.126 0.277-0.022 0.098-0.025 0.289-0.006 0.347 0.007 0.022 0.045 0.092 0.085 0.156l0.072 0.116 0.063-0.098c0.034-0.054 0.079-0.136 0.098-0.183zM17.755 21.362c0.055-0.099 0.069-0.135 0.069-0.176 0-0.064-0.039-0.181-0.117-0.35-0.054-0.118-0.062-0.13-0.091-0.13-0.030 0-0.037 0.012-0.132 0.236l-0.1 0.236 0.066 0.13c0.036 0.072 0.088 0.164 0.114 0.205l0.048 0.075 0.036-0.050c0.020-0.028 0.068-0.106 0.106-0.175zM5.762 21.372c0.053-0.094 0.097-0.177 0.097-0.185s-0.042-0.116-0.095-0.24c-0.090-0.212-0.097-0.225-0.125-0.221-0.035 0.004-0.111 0.122-0.14 0.216-0.026 0.086-0.034 0.218-0.018 0.303 0.025 0.133 0.129 0.314 0.172 0.301 0.007-0.002 0.055-0.080 0.108-0.174zM4.699 18.822c0.038-0.013 0.048-0.023 0.051-0.050 0.006-0.051-0.006-0.085-0.045-0.13-0.041-0.047-0.131-0.089-0.212-0.098-0.051-0.006-0.061-0.003-0.088 0.024s-0.030 0.040-0.030 0.119c0 0.108 0.006 0.124 0.052 0.145 0.045 0.020 0.203 0.015 0.273-0.009zM5.856 18.784c0.258-0.123 0.371-0.425 0.253-0.677-0.048-0.102-0.102-0.167-0.185-0.222-0.313-0.208-0.718-0.026-0.784 0.351-0.037 0.212 0.078 0.442 0.27 0.539 0.099 0.050 0.145 0.060 0.258 0.055 0.082-0.003 0.111-0.011 0.187-0.047zM7.755 18.824c0.028-0.011 0.031-0.017 0.025-0.054-0.009-0.057-0.073-0.154-0.128-0.194l-0.045-0.033-0.445 0.006c-0.245 0.003-0.457 0.008-0.471 0.011-0.043 0.009-0.1 0.066-0.129 0.129-0.030 0.065-0.036 0.131-0.013 0.14 0.030 0.012 1.175 0.008 1.207-0.004zM8.774 18.823c0.088-0.020 0.181-0.073 0.249-0.141 0.328-0.328 0.095-0.885-0.371-0.885-0.228 0-0.423 0.14-0.498 0.358-0.031 0.090-0.028 0.252 0.007 0.341 0.058 0.149 0.181 0.27 0.323 0.315 0.081 0.026 0.208 0.031 0.29 0.012zM10.781 18.814c0.022-0.018 0.025-0.029 0.019-0.062-0.011-0.057-0.087-0.152-0.148-0.184-0.052-0.027-0.054-0.027-0.501-0.027-0.443 0-0.45 0.001-0.497 0.027-0.036 0.020-0.057 0.045-0.086 0.102-0.036 0.070-0.049 0.14-0.030 0.158 0.004 0.004 0.28 0.008 0.612 0.008 0.568 0 0.606-0.001 0.631-0.022zM11.834 18.811c0.149-0.050 0.248-0.14 0.318-0.289 0.036-0.076 0.039-0.090 0.039-0.206s-0.003-0.129-0.039-0.206c-0.050-0.105-0.103-0.17-0.187-0.225-0.284-0.189-0.662-0.067-0.784 0.252-0.107 0.282 0.059 0.602 0.354 0.682 0.085 0.023 0.215 0.019 0.298-0.008zM13.712 18.82c0.016-0.012 0.019-0.024 0.013-0.053-0.011-0.048-0.092-0.173-0.127-0.195-0.022-0.014-0.105-0.018-0.465-0.021l-0.437-0.004-0.042 0.032c-0.046 0.035-0.089 0.112-0.1 0.179-0.014 0.084-0.054 0.078 0.572 0.078 0.45 0 0.569-0.003 0.586-0.016zM14.822 18.784c0.23-0.114 0.344-0.353 0.283-0.591-0.047-0.181-0.17-0.312-0.35-0.373-0.061-0.021-0.095-0.024-0.188-0.021-0.1 0.004-0.123 0.009-0.195 0.045-0.366 0.18-0.402 0.692-0.064 0.909 0.099 0.064 0.178 0.083 0.31 0.079 0.105-0.004 0.123-0.008 0.204-0.048zM16.734 18.81c0.040-0.040-0.024-0.167-0.115-0.23l-0.049-0.034-0.443-0.004c-0.463-0.004-0.501-0.001-0.561 0.047-0.059 0.046-0.113 0.206-0.080 0.238 0.004 0.004 0.283 0.007 0.619 0.005 0.548-0.003 0.613-0.005 0.63-0.023zM17.842 18.784c0.159-0.078 0.263-0.217 0.292-0.389 0.038-0.22-0.086-0.448-0.297-0.549-0.086-0.041-0.093-0.043-0.225-0.043-0.128 0-0.14 0.002-0.216 0.038-0.37 0.175-0.408 0.693-0.066 0.912 0.098 0.063 0.177 0.083 0.309 0.078 0.105-0.004 0.123-0.008 0.204-0.048zM19.749 18.814c0.025-0.020 0.026-0.026 0.013-0.068-0.020-0.065-0.079-0.141-0.138-0.176l-0.051-0.030-0.931 0.007-0.043 0.033c-0.048 0.036-0.084 0.098-0.1 0.171-0.020 0.091-0.062 0.085 0.617 0.085 0.574 0 0.607-0.001 0.633-0.022zM4.637 18.038c0.067-0.049 0.127-0.127 0.127-0.167 0-0.048-0.076-0.074-0.22-0.074-0.066-0-0.129 0.003-0.14 0.007-0.033 0.013-0.043 0.059-0.028 0.141 0.012 0.068 0.018 0.080 0.066 0.121 0.053 0.045 0.054 0.045 0.096 0.029 0.024-0.009 0.068-0.035 0.099-0.058zM10.673 18.069c0.039-0.021 0.083-0.083 0.101-0.144 0.016-0.053 0.016-0.063 0-0.094l-0.018-0.034h-0.599c-0.667 0-0.649-0.002-0.634 0.074 0.010 0.055 0.083 0.153 0.143 0.191l0.047 0.031 0.409-0.003c0.225-0.002 0.412-0 0.416 0.004 0.009 0.009 0.105-0.009 0.135-0.025zM7.643 18.066c0.072-0.036 0.12-0.115 0.122-0.2l0.002-0.063-0.599-0.003c-0.419-0.002-0.607 0.001-0.624 0.010-0.019 0.010-0.023 0.020-0.017 0.049 0.009 0.045 0.065 0.133 0.114 0.18l0.037 0.035 0.338 0.006c0.186 0.003 0.392 0.007 0.457 0.009 0.103 0.002 0.125-0.001 0.171-0.024zM13.578 18.069c0.076-0.039 0.147-0.158 0.139-0.232l-0.004-0.034-0.564-0.003c-0.375-0.002-0.572 0.001-0.587 0.009-0.013 0.007-0.023 0.021-0.023 0.033 0 0.040 0.057 0.142 0.108 0.194l0.051 0.053 0.425-0.002c0.315-0.002 0.433-0.006 0.454-0.017zM16.607 18.066c0.037-0.018 0.060-0.040 0.085-0.085 0.037-0.066 0.057-0.155 0.038-0.174-0.016-0.016-1.213-0.014-1.243 0.002-0.043 0.023-0.022 0.1 0.055 0.195 0.070 0.086 0.060 0.085 0.564 0.085 0.428 0 0.452-0.001 0.5-0.024zM19.596 18.079c0.079-0.020 0.171-0.157 0.162-0.242l-0.004-0.034-0.611-0.003c-0.408-0.002-0.619 0.001-0.634 0.009-0.060 0.032 0.016 0.189 0.121 0.252l0.046 0.028 0.439 0c0.241 0 0.458-0.005 0.482-0.010zM24.024 26.052c-0.021-0.015-0.023-0.037-0.029-0.28-0.007-0.286-0.010-0.303-0.073-0.336-0.034-0.017-0.125-0.020-0.884-0.021l-0.847-0.002-0.029-0.027c-0.016-0.015-0.031-0.040-0.034-0.056s-0.001-0.166 0.004-0.332c0.005-0.167 0.016-0.486 0.023-0.71 0.019-0.587 0.018-0.584 0.111-0.778 0.102-0.213 0.106-0.23 0.071-0.303-0.069-0.145-0.078-0.258-0.041-0.527 0.012-0.092 0.032-0.253 0.042-0.358 0.032-0.306 0.019-0.307 0.146 0.009 0.061 0.151 0.163 0.399 0.228 0.551 0.137 0.321 0.153 0.385 0.123 0.504-0.011 0.043-0.037 0.108-0.059 0.145s-0.063 0.112-0.090 0.167c-0.028 0.055-0.071 0.131-0.096 0.168-0.056 0.082-0.123 0.214-0.152 0.299-0.051 0.147-0.064 0.251-0.065 0.491-0 0.236 0.007 0.283 0.049 0.299 0.009 0.003 0.174 0.003 0.367-0.001 0.345-0.008 0.35-0.008 0.377-0.035l0.027-0.027-0.006-2.714-0.111-0.215c-0.061-0.118-0.163-0.312-0.227-0.429-0.068-0.124-0.122-0.239-0.129-0.274-0.019-0.089 0.001-0.161 0.115-0.419 0.33-0.745 0.369-0.894 0.348-1.329l-0.008-0.171-0.041-0.021c-0.034-0.017-0.074-0.021-0.232-0.021-0.19 0-0.191-0-0.229-0.032l-0.038-0.032 0.008-0.148c0.004-0.081 0.029-0.487 0.055-0.901s0.047-0.761 0.047-0.77c0-0.009 0.013-0.030 0.029-0.046l0.029-0.029h0.902c0.496 0 0.919-0.003 0.939-0.008 0.055-0.011 0.098-0.061 0.135-0.156 0.105-0.267 0.351-0.487 0.639-0.57 0.135-0.039 0.405-0.039 0.54-0 0.389 0.113 0.675 0.468 0.701 0.873 0.008 0.13-0.011 0.195-0.074 0.25-0.046 0.040-0.099 0.054-0.182 0.046-0.112-0.011-0.162-0.075-0.195-0.251-0.039-0.211-0.145-0.364-0.308-0.444-0.068-0.034-0.094-0.040-0.187-0.044-0.087-0.004-0.121 0-0.183 0.021-0.148 0.050-0.271 0.154-0.328 0.278l-0.033 0.071-0.010 0.419c-0.010 0.443-0.004 0.947 0.016 1.251 0.027 0.424 0.071 0.546 0.456 1.274 0.356 0.674 0.485 0.95 0.586 1.257 0.095 0.287 0.172 0.65 0.21 0.985 0.022 0.197 0.019 0.644-0.006 0.826-0.072 0.526-0.239 0.982-0.481 1.312-0.152 0.206-0.412 0.433-0.649 0.564-0.105 0.058-0.136 0.090-0.152 0.16-0.006 0.025-0.011 0.164-0.011 0.309-0 0.335 0.018 0.31-0.228 0.31-0.137 0-0.186-0.004-0.204-0.017-0.021-0.016-0.023-0.035-0.026-0.305-0.004-0.33-0.004-0.329-0.101-0.329-0.114 0-0.123 0.024-0.124 0.332-0.001 0.12-0.001 0.23-0.001 0.245s-0.011 0.037-0.024 0.050c-0.021 0.021-0.039 0.024-0.198 0.024-0.132 0-0.18-0.004-0.198-0.017zM24.667 24.936c0.034-0.034 0.040-0.087 0.033-0.335-0.005-0.173-0.012-0.249-0.031-0.323-0.037-0.148-0.090-0.273-0.163-0.388-0.036-0.057-0.082-0.136-0.101-0.175s-0.058-0.108-0.086-0.153c-0.072-0.118-0.092-0.189-0.086-0.301 0.005-0.087 0.011-0.103 0.118-0.326 0.192-0.396 0.274-0.657 0.335-1.054 0.015-0.102 0.021-0.209 0.021-0.431-0-1.64-0.003-2.051-0.015-2.087-0.007-0.023-0.026-0.045-0.043-0.053-0.021-0.009-0.167-0.014-0.484-0.014h-0.454l-0.028 0.028c-0.071 0.071-0.043 0.577 0.048 0.854 0.016 0.050 0.064 0.163 0.105 0.251s0.122 0.276 0.179 0.419c0.099 0.246 0.104 0.264 0.104 0.348 0 0.102 0.020 0.058-0.236 0.537-0.097 0.182-0.188 0.36-0.203 0.395l-0.027 0.065-0 1.331c-0 1.207 0.002 1.334 0.019 1.364 0.042 0.071 0.039 0.071 0.527 0.071 0.426 0 0.446-0.001 0.468-0.023zM25.291 24.716c0.12-0.088 0.167-0.133 0.255-0.246 0.221-0.283 0.349-0.613 0.402-1.032 0.030-0.24 0.036-0.692 0.012-0.897-0.068-0.586-0.259-1.114-0.669-1.854-0.102-0.183-0.127-0.194-0.128-0.051 0 0.039-0.001 0.35-0.003 0.69-0.003 0.603-0.002 0.623 0.023 0.74 0.030 0.139 0.084 0.297 0.135 0.398 0.049 0.096 0.28 0.661 0.3 0.732 0.035 0.123 0.018 0.194-0.092 0.386-0.252 0.441-0.333 0.636-0.36 0.869-0.011 0.094 0.006 0.332 0.024 0.332 0.006 0 0.051-0.030 0.101-0.066zM25.024 23.529c0.133-0.264 0.135-0.317 0.019-0.557-0.041-0.085-0.083-0.164-0.095-0.177-0.019-0.020-0.023-0.021-0.038-0.006-0.025 0.026-0.196 0.453-0.196 0.49 0 0.018 0.038 0.104 0.084 0.193 0.099 0.189 0.115 0.213 0.133 0.213 0.007 0 0.049-0.070 0.092-0.156zM23.56 21.349c0.047-0.092 0.062-0.133 0.062-0.175 0.001-0.070-0.038-0.188-0.115-0.344-0.052-0.106-0.065-0.124-0.089-0.124-0.026 0-0.038 0.022-0.128 0.235l-0.1 0.235 0.060 0.12c0.033 0.066 0.084 0.158 0.115 0.205l0.055 0.086 0.040-0.059c0.022-0.032 0.067-0.113 0.101-0.179zM24.66 18.822c0.070-0.036 0.053-0.241-0.021-0.269-0.040-0.015-0.118-0.015-0.174 0.001-0.094 0.026-0.2 0.177-0.165 0.235 0.022 0.037 0.12 0.058 0.233 0.051 0.058-0.004 0.116-0.011 0.127-0.017zM23.569 18.813c0.1-0.031 0.166-0.073 0.235-0.148 0.238-0.26 0.16-0.659-0.16-0.817-0.088-0.043-0.092-0.044-0.226-0.044-0.129 0-0.141 0.002-0.216 0.038-0.203 0.096-0.314 0.285-0.301 0.512 0.007 0.126 0.050 0.227 0.135 0.318 0.135 0.144 0.346 0.201 0.534 0.142zM24.647 18.057c0.028-0.034 0.045-0.099 0.045-0.173 0-0.090-0.008-0.093-0.199-0.089-0.2 0.005-0.203 0.006-0.174 0.111 0.047 0.168 0.072 0.19 0.213 0.182 0.078-0.004 0.098-0.010 0.115-0.031zM5.965 16.843l-0.028-0.023-0.009-1.449c-0.009-1.542-0.006-1.674 0.044-2.051 0.078-0.58 0.22-1.059 0.448-1.51 0.382-0.757 0.942-1.305 1.745-1.707 0.341-0.171 0.626-0.261 1.004-0.318 0.158-0.024 0.683-0.021 0.841 0.005 0.737 0.12 1.365 0.435 1.895 0.952 0.707 0.69 1.147 1.58 1.275 2.579 0.038 0.296 0.042 0.495 0.042 1.974 0 1.587 0.002 1.543-0.053 1.564-0.011 0.004-0.26 0.007-0.554 0.007-0.509 0-0.536-0.001-0.562-0.023l-0.028-0.023-0.012-0.783-0.028-0.023c-0.027-0.022-0.063-0.023-1.119-0.023-0.689 0-1.099 0.004-1.112 0.012-0.042 0.022-0.048 0.075-0.048 0.445v0.359l-0.029 0.029c-0.024 0.024-0.040 0.029-0.101 0.029-0.040 0-0.082-0.005-0.094-0.012-0.042-0.022-0.048-0.075-0.048-0.445v-0.359l-0.058-0.058h-1.085c-0.794 0-1.093 0.004-1.115 0.014-0.016 0.007-0.034 0.025-0.038 0.038s-0.009 0.191-0.009 0.394l-0.001 0.37-0.066 0.057h-0.535c-0.509 0-0.536-0.001-0.563-0.023zM9.407 15.645l0.029-0.029v-1.569l-0.031-0.024c-0.031-0.024-0.036-0.024-1.122-0.024-0.699 0-1.098 0.004-1.112 0.012-0.012 0.006-0.027 0.029-0.033 0.050-0.014 0.047-0.011 1.539 0.003 1.57 0.005 0.012 0.021 0.026 0.034 0.032s0.515 0.010 1.114 0.011l1.089 0.001 0.029-0.029zM11.965 15.66c0.016-0.007 0.035-0.026 0.042-0.042 0.009-0.020 0.013-0.256 0.013-0.784 0-0.799-0.001-0.809-0.054-0.829-0.033-0.013-2.188-0.008-2.211 0.004-0.012 0.006-0.027 0.028-0.035 0.049-0.018 0.051-0.018 1.502-0.001 1.553 0.007 0.020 0.024 0.041 0.038 0.048 0.037 0.018 2.167 0.019 2.207 0.001zM9.17 13.666c0.023-0.023-0.045-0.105-0.977-1.173-0.322-0.369-0.348-0.395-0.385-0.395-0.049 0-0.077 0.029-0.182 0.186-0.223 0.337-0.361 0.672-0.436 1.059-0.048 0.247-0.050 0.281-0.020 0.311l0.025 0.025 0.984-0.003c0.541-0.002 0.987-0.006 0.991-0.010zM11.954 13.666c0.017-0.008 0.033-0.026 0.037-0.041 0.016-0.064-0.072-0.463-0.155-0.701-0.11-0.316-0.401-0.824-0.484-0.845-0.015-0.004-0.038 0-0.050 0.009s-0.158 0.172-0.323 0.364-0.451 0.521-0.634 0.732c-0.184 0.211-0.341 0.394-0.349 0.407-0.028 0.043-0.026 0.069 0.006 0.078 0.054 0.015 1.918 0.012 1.952-0.003zM9.436 12.337c0.003-0.576 0.002-1.064-0.002-1.086-0.011-0.058-0.026-0.067-0.108-0.065-0.167 0.004-0.486 0.096-0.712 0.206-0.209 0.102-0.533 0.336-0.553 0.4-0.018 0.058 0.009 0.099 0.263 0.394 0.519 0.603 1.030 1.186 1.055 1.204 0.018 0.013 0.030 0.014 0.038 0.006s0.014-0.357 0.018-1.059zM9.759 13.389c0.018-0.007 0.453-0.503 1.054-1.202 0.336-0.39 0.329-0.368 0.152-0.513-0.313-0.256-0.704-0.43-1.088-0.485-0.108-0.015-0.139-0.007-0.158 0.043-0.016 0.042-0.015 2.062 0.001 2.119 0.013 0.048 0.013 0.047 0.040 0.037z"></path>
</svg>
