<!-- Generated by IcoMoon.io -->
<svg version="1.1" xmlns="http://www.w3.org/2000/svg" width="32" height="32" viewBox="0 0 32 32">
<title>yigs_venom</title>
<path d="M18.081 30.706c0.058-0.064 1.089-0.396 2.291-0.739s2.25-0.719 2.329-0.836c0.079-0.117 0.211-0.326 0.294-0.463 0.125-0.207 0.235-0.184 0.637 0.133 0.268 0.21 0.617 0.383 0.776 0.383 0.302 0 2.883-1.439 3.418-1.906 0.214-0.187 0.309-0.203 0.309-0.054 0 0.26-1.96 2.177-2.83 2.767-0.56 0.38-0.688 0.401-1.293 0.215-0.519-0.159-0.858-0.157-1.488 0.012-0.449 0.12-1.298 0.248-1.887 0.284s-1.429 0.123-1.866 0.193c-0.437 0.070-0.747 0.075-0.689 0.012zM12.926 28.901c-0.236-0.251-0.647-0.587-0.915-0.745-0.421-0.249-0.472-0.366-0.378-0.868 0.12-0.638-0.002-0.701-0.724-0.372-0.425 0.194-0.522 0.144-1.401-0.724-0.857-0.846-0.981-0.913-1.341-0.72-0.309 0.165-0.485 0.165-0.798-0.002-0.432-0.231-2.209-2.166-2.917-3.176l-0.432-0.616 0.616 0.427c0.339 0.235 1.104 0.811 1.701 1.279 0.729 0.571 1.254 0.851 1.597 0.851 0.38 0 0.735 0.227 1.382 0.884 0.807 0.819 0.933 0.884 1.728 0.884 1.175 0 1.472 0.2 1.614 1.091 0.066 0.412 0.271 1.091 0.455 1.508s0.314 0.759 0.288 0.759c-0.026 0-0.24-0.206-0.476-0.457zM15.668 28.877c0.066-0.216 0.419-0.852 0.786-1.414 0.778-1.19 1.652-3.501 1.99-5.262 0.16-0.833 0.235-2.651 0.232-5.566-0.006-4.213-0.018-4.36-0.456-5.478-0.447-1.142-3.067-5.29-3.94-6.24-0.658-0.716-0.603-2.059 0.124-2.999l0.517-0.668 1.35 0.114c0.999 0.084 1.514 0.223 1.978 0.536 0.345 0.232 0.735 0.422 0.866 0.422s0.697 0.49 1.258 1.089c0.992 1.059 1.626 2.32 2.103 4.186 0.182 0.712-0.066 6.181-0.411 9.059-0.262 2.181-0.689 3.326-2.712 7.265-0.771 1.502-3.923 5.741-3.686 4.957zM18.064 29.037c0-0.214 0.335-0.463 0.458-0.34 0.045 0.045-0.040 0.181-0.188 0.304-0.168 0.139-0.269 0.153-0.269 0.036zM14.349 27.647c-0.118-0.371-0.431-1.032-0.694-1.47s-0.626-1.193-0.805-1.679c-0.179-0.486-0.63-1.447-1.002-2.136-0.52-0.964-0.67-1.432-0.649-2.032 0.018-0.543 0.049-0.629 0.101-0.285 0.046 0.303 0.236 0.569 0.489 0.684 0.559 0.255 1.574 2.674 2.568 6.126 0.384 1.334 0.378 1.998-0.009 0.79zM18.947 28.059c0-0.128 0.736-1.827 1.045-2.411 0.093-0.175 0.463-0.281 1.094-0.311 1.495-0.072 1.673-0.158 2.351-1.146 1.956-2.847 2.253-3.222 2.129-2.691-0.067 0.289-0.317 1.002-0.555 1.585s-0.556 1.418-0.708 1.855c-0.332 0.96-0.646 1.237-1.401 1.237-0.54 0-1.019 0.294-1.158 0.709-0.043 0.127-0.246 0.121-0.649-0.019-0.564-0.197-0.618-0.174-1.368 0.561-0.429 0.421-0.781 0.705-0.781 0.63z"></path>
</svg>
