<!-- Generated by IcoMoon.io -->
<svg version="1.1" xmlns="http://www.w3.org/2000/svg" width="35" height="32" viewBox="0 0 35 32">
<title>yog_sothoths_emissaries</title>
<path d="M21.923 7.52c0.048-0.008 0.090 0.023 0.133 0.042 0.106 0.048 0.211 0.091 0.317 0.142 0.122 0.057 0.25 0.099 0.372 0.156 0.202 0.094 0.397 0.202 0.601 0.293 0.516 0.227 0.996 0.5 1.417 0.877 0.336 0.301 0.642 0.61 0.903 0.979 0.205 0.29 0.415 0.582 0.571 0.903 0.077 0.159 0.136 0.329 0.21 0.489 0.082 0.176 0.148 0.329 0.187 0.517 0.032 0.156 0.083 0.306 0.108 0.463 0.028 0.167 0.046 0.333 0.077 0.5 0.032 0.188 0.043 0.37 0.040 0.56-0.001 0.227 0.018 0.451 0.028 0.678 0.017 0.426-0.083 0.858-0.161 1.277-0.090 0.469-0.151 0.943-0.23 1.414-0.033 0.185-0.1 0.363-0.142 0.545-0.042 0.185-0.085 0.369-0.147 0.549-0.046 0.133-0.082 0.27-0.131 0.403-0.073 0.202-0.174 0.387-0.276 0.574-0.087 0.162-0.145 0.333-0.216 0.503-0.082 0.196-0.187 0.383-0.29 0.568-0.211 0.377-0.446 0.721-0.732 1.044-0.13 0.145-0.284 0.261-0.418 0.398-0.102 0.105-0.19 0.216-0.303 0.309-0.301 0.249-0.647 0.471-1.017 0.599-0.221 0.076-0.438 0.119-0.654 0.21-0.244 0.105-0.511 0.171-0.772 0.224-0.228 0.045-0.46 0.080-0.69 0.117-0.128 0.018-0.256 0.034-0.383 0.051-0.201 0.026-0.397 0.077-0.594 0.117-0.236 0.049-0.477 0.092-0.716 0.12-0.27 0.034-0.542 0.031-0.812 0.068-0.505 0.071-1.031 0.065-1.536-0.016-0.462-0.071-0.908-0.201-1.348-0.357-0.211-0.074-0.423-0.14-0.622-0.241-0.213-0.106-0.417-0.236-0.622-0.355-0.19-0.11-0.349-0.254-0.52-0.387-0.16-0.125-0.327-0.241-0.488-0.367-0.422-0.329-0.829-0.695-1.143-1.13-0.479-0.665-0.784-1.44-1.051-2.21-0.151-0.44-0.241-0.898-0.377-1.343-0.056-0.176-0.116-0.349-0.162-0.526-0.031-0.117-0.052-0.236-0.083-0.352-0.028-0.108-0.071-0.214-0.094-0.324-0.037-0.181-0.054-0.37-0.082-0.553-0.028-0.176-0.043-0.352-0.043-0.529 0.001-0.201 0.003-0.4 0.028-0.599 0.025-0.204 0.086-0.394 0.122-0.594 0.063-0.363 0.148-0.724 0.233-1.084 0.073-0.309 0.179-0.588 0.323-0.871 0.076-0.15 0.154-0.298 0.222-0.452 0.082-0.187 0.193-0.344 0.313-0.509 0.242-0.332 0.52-0.684 0.86-0.923 0.324-0.228 0.692-0.389 1.044-0.563 0.242-0.12 0.474-0.27 0.712-0.4 0.117-0.063 0.225-0.144 0.35-0.19 0.12-0.046 0.224-0.111 0.338-0.167 0.133-0.066 0.279-0.094 0.42-0.141s0.267-0.105 0.401-0.165c0.139-0.062 0.298-0.080 0.443-0.125 0.131-0.040 0.267-0.072 0.403-0.105 0.127-0.029 0.261-0.045 0.39-0.052 0.090-0.006 0.207-0.019 0.296 0.001 0.006 0.059 0 0.12 0.001 0.179 0 0.079 0.020 0.091 0.051 0.157s0.026 0.147 0.049 0.216c0.028 0.083 0.048 0.176 0.079 0.258 0.042 0.11 0.15 0.213 0.221 0.304 0.099 0.127 0.134 0.264 0.216 0.397 0.14 0.228 0.281 0.458 0.386 0.706 0.123 0.292 0.276 0.573 0.381 0.871 0.096 0.272 0.13 0.567 0.097 0.852-0.008 0.077-0.023 0.156-0.046 0.228-0.029 0.076-0.057 0.151-0.083 0.229-0.023 0.086-0.035 0.174-0.039 0.264-0.039 0.32-0.258 0.579-0.344 0.885-0.077 0.27-0.248 0.494-0.289 0.777-0.048 0.327-0.026 0.659-0.054 0.988-0.016 0.17-0.042 0.338-0.059 0.508-0.017 0.176-0.013 0.355-0.028 0.531-0.023 0.307 0.014 0.598 0.079 0.897 0.073 0.338 0.161 0.651 0.307 0.965 0.091 0.196 0.211 0.36 0.326 0.542 0.097 0.157 0.192 0.298 0.32 0.432 0.241 0.256 0.458 0.531 0.69 0.795 0.151 0.173 0.275 0.329 0.384 0.531 0.071 0.131 0.142 0.255 0.221 0.381-0.023-0.15 0.048-0.293 0.131-0.415 0.085-0.122 0.191-0.228 0.275-0.352 0.103-0.15 0.204-0.303 0.318-0.446 0.245-0.306 0.363-0.687 0.509-1.047 0.074-0.181 0.156-0.358 0.222-0.542 0.088-0.241 0.116-0.497 0.16-0.749 0.039-0.215 0.046-0.431 0.074-0.647 0.028-0.213 0.022-0.428-0.009-0.641-0.029-0.216-0.085-0.428-0.13-0.639-0.042-0.193-0.066-0.391-0.125-0.579-0.088-0.286-0.137-0.582-0.238-0.864-0.102-0.289-0.253-0.579-0.405-0.846-0.154-0.273-0.364-0.528-0.488-0.817-0.131-0.307-0.312-0.571-0.327-0.917-0.008-0.144-0.008-0.287 0.022-0.428 0.035-0.168 0.114-0.31 0.196-0.458 0.13-0.233 0.242-0.497 0.341-0.744 0.043-0.106 0.116-0.196 0.151-0.306 0.026-0.083 0.039-0.174 0.045-0.261 0.006-0.080 0.033-0.145 0.057-0.221 0.026-0.077 0.036-0.157 0.070-0.233 0.058-0.128 0.123-0.25 0.201-0.37 0.077-0.122 0.196-0.221 0.264-0.347 0.039-0.072 0.057-0.1 0.137-0.111 0.068-0.009 0.107-0.035 0.164-0.065 0.052-0.026 0.142-0.034 0.204-0.014 0.037 0.013 0.057 0.040 0.082 0.066 0.034 0.039 0.059 0.054 0.099 0.085 0.033 0.025 0.062 0.066 0.099 0.083 0.074 0.033 0.233 0.029 0.028-0.128z"></path>
<path d="M13.846 5.835c0-0.131 0.006-0.264 0.003-0.395-0.003-0.113-0.048-0.212-0.083-0.318-0.062-0.187-0.128-0.37-0.201-0.554-0.054-0.137-0.1-0.278-0.201-0.392-0.071-0.080-0.151-0.151-0.233-0.221-0.218-0.187-0.463-0.343-0.716-0.476-0.086-0.045-0.17-0.096-0.258-0.141-0.167-0.087-0.363-0.117-0.543-0.168-0.383-0.108-0.769-0.238-1.125-0.414-0.355-0.173-0.634-0.452-0.922-0.718-0.116-0.105-0.232-0.213-0.35-0.315-0.042-0.036-0.111-0.077-0.136-0.114 0.031 0.014 0.042 0.042 0.060 0.066 0.099 0.12 0.19 0.236 0.28 0.364 0.12 0.168 0.238 0.336 0.375 0.491 0.156 0.176 0.329 0.33 0.502 0.489 0.256 0.239 0.531 0.486 0.744 0.766 0.219 0.285 0.286 0.602 0.364 0.945 0.071 0.304 0.137 0.596 0.341 0.841 0.088 0.105 0.201 0.195 0.301 0.289 0.080 0.077 0.125 0.1 0.233 0.128 0.312 0.080 0.639 0.19 0.965 0.15 0.082-0.010 0.228-0.012 0.289-0.068 0.026-0.026 0.040-0.105 0.312-0.236z"></path>
<path d="M23.324 5.696c0-0.303 0.039-0.601 0.099-0.897 0.114-0.567 0.704-0.888 1.23-1.005 0.25-0.057 0.495-0.077 0.738-0.17 0.292-0.111 0.587-0.293 0.787-0.539 0.105-0.127 0.157-0.309 0.216-0.46 0.079-0.196 0.173-0.389 0.295-0.562 0.079-0.114 0.167-0.219 0.259-0.324 0.051-0.056 0.159-0.151 0.168-0.239-0.019 0.016-0.022 0.034-0.031 0.056-0.043 0.1-0.087 0.205-0.13 0.307-0.179 0.426-0.34 0.854-0.568 1.259-0.173 0.307-0.301 0.622-0.34 0.974-0.026 0.252-0.051 0.528-0.202 0.742-0.157 0.224-0.398 0.384-0.59 0.579-0.222 0.225-0.445 0.435-0.741 0.559-0.317 0.133-0.621 0.031-0.909-0.117-0.215-0.11-0.455-0.262-0.702-0.276z"></path>
<path d="M20.268 5.078c0.032-0.010 0.065-0.052 0.077-0.085 0.040-0.103 0.020-0.157 0.099-0.258 0.114-0.147 0.255-0.222 0.315-0.407 0.066-0.207 0.077-0.451 0.076-0.668-0.001-0.195-0.056-0.344-0.145-0.512-0.111-0.208-0.174-0.394-0.219-0.628-0.056-0.287-0.062-0.56-0.062-0.852 0 0.040 0.003 0.069-0.016 0.103-0.016 0.028-0.037 0.049-0.052 0.080-0.048 0.103-0.077 0.218-0.124 0.324-0.12 0.276-0.241 0.582-0.431 0.82-0.202 0.25-0.411 0.48-0.505 0.795-0.065 0.216-0.125 0.44-0.181 0.661-0.035 0.14-0.063 0.242 0.029 0.363 0.116 0.147 0.309 0.355 0.491 0.423 0.215 0.080 0.346-0.099 0.647-0.157z"></path>
<path d="M17.633 5.191c-0.040-0.006-0.039-0.042-0.056-0.072-0.056-0.113-0.125-0.219-0.179-0.332-0.091-0.188-0.151-0.389-0.233-0.58-0.085-0.195-0.159-0.392-0.227-0.591-0.122-0.358-0.201-0.749-0.423-1.061-0.102-0.144-0.222-0.275-0.344-0.398-0.153-0.155-0.326-0.283-0.448-0.463 0.005 0.087-0.042 0.176-0.049 0.264-0.025 0.306 0.071 0.61 0.043 0.915-0.017 0.178-0.088 0.341-0.1 0.519-0.006 0.099-0.005 0.196-0.003 0.295 0.001 0.23-0.022 0.468 0.040 0.691 0.052 0.192 0.148 0.377 0.272 0.534 0.142 0.181 0.329 0.369 0.547 0.452 0.248 0.096 0.509 0.065 0.767 0.108 0.062 0.012 0.122 0.029 0.185 0.022 0.144-0.019 0.228-0.008 0.208-0.303z"></path>
<path d="M26.214 9.706c0.241-0.006 0.458-0.134 0.682-0.219 0.304-0.116 0.602-0.23 0.897-0.367 0.384-0.181 0.778-0.354 1.111-0.62 0.156-0.125 0.296-0.252 0.415-0.414 0.045-0.060 0.090-0.113 0.159-0.148 0.051-0.025 0.218-0.099 0.273-0.049 0.083 0.074-0.142 0.242-0.165 0.265-0.162 0.162-0.195 0.252-0.245 0.48-0.020 0.171-0.069 0.335-0.147 0.489-0.059 0.085-0.13 0.158-0.213 0.219-0.161 0.13-0.259 0.253-0.349 0.44-0.073 0.153-0.14 0.301-0.279 0.408-0.187 0.142-0.44 0.184-0.662 0.232-0.222 0.046-0.455 0.131-0.685 0.091-0.236-0.043-0.411-0.207-0.59-0.354-0.071-0.059-0.303-0.195-0.335-0.312 0.045 0 0.085 0.083 0.133-0.14z"></path>
<path d="M27.167 12.904c0.159 0.004 0.317 0.014 0.477 0.026 0.293 0.022 0.58 0.091 0.877 0.11 0.287 0.017 0.571 0.037 0.858 0.062 0.542 0.043 1.173-0.034 1.667 0.238 0.052 0.028 0.225 0.105 0.227 0.195 0.003 0.119-0.15 0.222-0.235 0.278-0.182 0.119-0.415 0.127-0.624 0.162-0.392 0.065-0.813 0.153-1.212 0.102-0.465-0.059-0.908-0.236-1.366-0.329-0.147-0.031-0.281-0.082-0.417-0.142-0.063-0.029-0.177-0.065-0.218-0.134-0.031-0.056-0.042-0.161-0.035-0.224 0.063-0.026 0.133-0.042 0-0.343z"></path>
<path d="M25.232 21.625c0-0.016 0-0.033 0-0.048-0.010 0.048 0.029 0.082 0.052 0.117 0.122 0.181 0.23 0.366 0.363 0.539 0.273 0.357 0.641 0.605 0.962 0.914 0.372 0.358 0.676 0.767 1.013 1.158 0.259 0.303 0.548 0.582 0.778 0.911 0.159 0.227 0.292 0.472 0.442 0.707 0.171 0.267 0.352 0.528 0.528 0.792 0.13 0.193 0.256 0.386 0.381 0.582 0.022 0.062 0.058 0.11 0.111 0.142-0.054-0.056-0.125-0.090-0.19-0.13-0.205-0.125-0.406-0.256-0.601-0.397-0.67-0.485-1.331-0.993-1.94-1.551-0.276-0.252-0.553-0.502-0.827-0.753-0.14-0.131-0.286-0.259-0.407-0.406-0.116-0.142-0.218-0.293-0.341-0.428-0.136-0.148-0.281-0.284-0.426-0.421-0.133-0.125-0.349-0.276-0.374-0.466-0.017-0.134-0.056-0.264-0.060-0.4-0.006-0.136 0.025-0.27 0.059-0.401 0.026-0.108 0.046-0.25 0.105-0.346 0.063-0.1 0.156-0.087 0.374-0.114z"></path>
<path d="M26.046 20.11c0.057-0.010 0.119 0.035 0.165 0.060 0.126 0.076 0.253 0.151 0.378 0.227 0.208 0.11 0.417 0.218 0.625 0.324 0.381 0.202 0.766 0.408 1.139 0.624 0.551 0.318 1.074 0.682 1.63 0.994 0.313 0.176 0.636 0.333 0.946 0.514 0.168 0.096 0.34 0.187 0.475 0.326 0.087 0.088 0.201 0.27-0.017 0.241-0.367-0.051-0.741-0.239-1.088-0.363-0.607-0.215-1.189-0.44-1.763-0.733-0.579-0.296-1.148-0.593-1.751-0.837-0.15-0.062-0.296-0.127-0.441-0.198-0.153-0.063-0.298-0.14-0.437-0.228-0.076-0.065-0.159-0.123-0.122-0.225 0.037-0.054 0.065-0.113 0.085-0.174 0.023-0.074 0.045-0.147 0.065-0.221 0.068-0.159 0.185-0.14 0.11-0.33z"></path>
<path d="M27.279 17.363c0.013-0.094 0.32 0.026 0.324 0.028 0.235 0.071 0.468 0.148 0.696 0.239 0.442 0.174 0.894 0.321 1.337 0.494 0.803 0.315 1.561 0.749 2.325 1.145 0.233 0.12 0.466 0.242 0.696 0.366 0.039 0.020 0.21 0.085 0.205 0.136-0.113 0.026-0.247-0.006-0.357-0.023-0.346-0.054-0.688-0.137-1.034-0.195-0.304-0.051-0.608-0.094-0.912-0.14-0.539-0.082-1.071-0.173-1.604-0.289-0.361-0.079-0.725-0.143-1.064-0.299-0.13-0.060-0.248-0.102-0.386-0.139-0.162-0.045-0.293-0.195-0.315-0.363-0.026-0.204 0.099-0.431 0.204-0.596 0.049-0.076 0.119-0.151 0.148-0.236 0.031-0.087 0.018-0.176-0.264-0.128z"></path>
<path d="M28.233 15.26c-0.026-0.082 0.060-0.051 0.103-0.040 0.147 0.042 0.287 0.117 0.431 0.167 0.332 0.114 0.673 0.202 1.010 0.306 0.38 0.119 0.772 0.216 1.148 0.347 0.378 0.133 0.746 0.292 1.11 0.455 0.195 0.087 0.38 0.195 0.576 0.275 0.063 0.026 0.131 0.052 0.201 0.060-0.312 0.054-0.645 0.034-0.959 0.026-0.636-0.017-1.27-0.054-1.903-0.134-0.494-0.063-0.971-0.164-1.459-0.253-0.293-0.056-0.628-0.045-0.909-0.144 0.031-0.060 0.090-0.088 0.090-0.168 0-0.113-0.001-0.195 0.057-0.304 0.123-0.228 0.306-0.432 0.505-0.593z"></path>
<path d="M23.746 22.971c0.042-0.004 0.048-0.034 0.083-0.051 0.028-0.013 0.054-0.003 0.076-0.026-0.045-0.028-0.104 0.005-0.147 0.023-0.479 0.199-1.036 0.21-1.544 0.281-0.642 0.088-1.269 0.259-1.906 0.373-0.79 0.142-1.568 0.201-2.366 0.099-0.369-0.046-0.736-0.108-1.107-0.143-0.343-0.034-0.687-0.042-1.031-0.057-0.638-0.028-1.286-0.1-1.906-0.255-0.522-0.13-1.028-0.34-1.531-0.523-0.196-0.071-0.44-0.145-0.585-0.303 0.040-0.032 0.074 0.020 0.103 0.049 0.136 0.13 0.244 0.242 0.408 0.343 0.576 0.354 1.189 0.651 1.801 0.934 0.616 0.284 1.252 0.454 1.925 0.529 0.815 0.093 1.633 0.211 2.454 0.216 0.77 0.003 1.537 0 2.303-0.094 0.376-0.046 0.755-0.079 1.133-0.122 0.27-0.031 0.56-0.063 0.803-0.199 0.208-0.116 0.358-0.296 0.551-0.431 0.167-0.116 0.306-0.13 0.485-0.201 0.236-0.091 0.193-0.29-0.001-0.443z"></path>
<path d="M11.405 7.81c-0.049 0.014-0.052 0.035-0.091 0.056-0.029 0.017-0.062 0.017-0.085 0.040 0.059 0.005 0.122-0.032 0.17-0.057 0.533-0.263 1.195-0.405 1.794-0.554 0.756-0.192 1.494-0.406 2.262-0.557 0.949-0.187 1.902-0.273 2.876-0.208 0.451 0.029 0.897 0.079 1.346 0.12 0.417 0.039 0.834 0.068 1.25 0.111 0.77 0.080 1.55 0.221 2.275 0.44 0.613 0.182 1.187 0.432 1.754 0.682 0.219 0.096 0.494 0.21 0.638 0.354-0.052 0.010-0.082-0.034-0.113-0.060-0.137-0.122-0.247-0.225-0.426-0.333-0.625-0.381-1.323-0.715-2.038-1.011-0.718-0.298-1.488-0.5-2.314-0.61-1-0.133-2.013-0.238-3.033-0.216-0.954 0.022-1.906 0.090-2.843 0.259-0.46 0.085-0.922 0.17-1.378 0.272-0.327 0.072-0.679 0.157-0.956 0.304-0.239 0.125-0.394 0.279-0.607 0.418-0.184 0.119-0.347 0.165-0.551 0.261-0.264 0.126-0.182 0.244 0.071 0.29z"></path>
<path d="M19.707 12.875c0.048 0.045 0.074 0.045 0.113 0.108 0.122 0.195 0.247 0.389 0.366 0.587 0.31 0.516 0.363 1.175 0.367 1.764 0.003 0.403-0.073 0.781-0.177 1.169-0.071 0.267-0.148 0.519-0.304 0.75-0.111 0.153-0.23 0.298-0.355 0.439-0.090 0.106-0.177 0.213-0.267 0.318-0.054 0.057-0.182 0.215-0.273 0.221-0.008-0.036 0.013-0.070 0.008-0.102-0.009-0.068-0.097-0.142-0.139-0.188-0.096-0.111-0.201-0.216-0.3-0.324-0.299-0.324-0.571-0.673-0.795-1.054-0.199-0.34-0.347-0.672-0.303-1.076 0.042-0.361 0.182-0.724 0.324-1.059 0.15-0.354 0.289-0.769 0.542-1.064 0.103-0.119 0.23-0.196 0.357-0.289 0.136-0.099 0.263-0.208 0.398-0.307 0.124-0.091 0.278-0.17 0.437-0.17 0.005 0.018 0.006 0.035 0.001 0.278z"></path>
<path d="M11.182 9.062c-0.23-0.207-0.562-0.336-0.843-0.451-0.386-0.158-0.784-0.272-1.176-0.409-0.492-0.173-0.974-0.38-1.457-0.579-0.482-0.199-0.946-0.432-1.42-0.645-0.355-0.16-0.708-0.312-1.051-0.495-0.485-0.262-0.985-0.512-1.533-0.614-0.013 0.062 0.139 0.14 0.184 0.178 0.179 0.147 0.346 0.309 0.531 0.451 0.281 0.216 0.58 0.414 0.888 0.591 0.4 0.233 0.824 0.418 1.233 0.631 0.269 0.139 0.499 0.323 0.753 0.483 0.195 0.122 0.395 0.236 0.598 0.346 0.192 0.107 0.392 0.198 0.574 0.321 0.13 0.091 0.227 0.21 0.35 0.309 0.174 0.141 0.364 0.255 0.534 0.401 0.090 0.079 0.174 0.094 0.293 0.065 0.117-0.029 0.233-0.11 0.34-0.162 0.128-0.063 0.316-0.123 0.415-0.228 0.065-0.070 0.1-0.148 0.139-0.233 0.020-0.042 0.052-0.128 0.116-0.127z"></path>
<path d="M9.331 12.539c-0.173 0-0.341-0.029-0.516-0.028-0.306 0.003-0.602-0.012-0.908-0.028-0.619-0.037-1.236-0.029-1.857-0.029-0.556 0.001-1.122 0.034-1.676-0.028-0.425-0.049-0.845-0.13-1.269-0.171-0.281-0.026-0.56-0.043-0.84-0.082-0.13-0.017-0.375-0.106-0.503-0.045 0.022 0.057 0.119 0.080 0.17 0.103 0.179 0.082 0.352 0.161 0.539 0.222 0.421 0.139 0.877 0.201 1.308 0.301 0.261 0.062 0.517 0.13 0.773 0.208 0.82 0.252 1.687 0.299 2.509 0.556 0.292 0.091 0.596 0.178 0.901 0.199 0.139 0.012 0.278 0.025 0.418 0.028 0.062 0.004 0.154 0.017 0.21-0.016 0.060-0.037 0.074-0.096 0.091-0.165 0.040-0.157 0.11-0.281 0.204-0.415 0.185-0.269 0.424-0.602 0.384-0.953-0.045 0-0.080 0.020 0.062 0.341z"></path>
<path d="M9.19 15.595c-0.026 0.042-0.077 0.028-0.119 0.026-0.204-0.004-0.415 0.034-0.613 0.071-0.809 0.154-1.584 0.448-2.382 0.647-0.397 0.1-0.795 0.193-1.189 0.309-0.34 0.099-0.676 0.201-1.022 0.276-0.201 0.043-0.403 0.083-0.604 0.131-0.079 0.019-0.292 0.025-0.321 0.113 0.032 0.057 0.215 0.068 0.267 0.074 0.537 0.071 1.094 0.066 1.636 0.063 0.355 0 0.71-0.003 1.067 0.004 0.317 0.005 0.633 0.025 0.951 0.026 0.389 0.001 0.773-0.001 1.162 0.035 0.102 0.010 0.201 0.016 0.303 0.019 0.159 0.006 0.304 0.037 0.462 0.052 0.15 0.014 0.321 0.042 0.418-0.096 0.083-0.114 0.1-0.252 0.131-0.387 0.035-0.161 0.091-0.317 0.116-0.479 0.029-0.193 0.023-0.392 0.018-0.587-0.001-0.097 0.026-0.284-0.282-0.298z"></path>
<path d="M9.499 19.214c-0.006 0.039-0.048 0.048-0.080 0.060-0.106 0.029-0.214 0.052-0.324 0.068-0.193 0.026-0.383 0.068-0.57 0.127-0.909 0.273-1.686 0.832-2.547 1.223-0.52 0.236-1.054 0.435-1.593 0.624-0.435 0.151-0.857 0.332-1.286 0.497-0.199 0.073-0.397 0.142-0.596 0.212-0.103 0.035-0.202 0.082-0.295 0.137-0.049 0.040-0.077 0.091-0.12 0.134-0.043-0.022-0.127-0.056-0.181-0.054 0.054-0.001 0.068 0.034 0.108 0.052 0.037 0.016 0.087 0.006 0.127 0.006 0.116-0.001 0.232 0.001 0.349-0.006 0.352-0.025 0.723-0.022 1.068-0.083 0.34-0.060 0.645-0.192 0.975-0.278 0.494-0.128 1.008-0.213 1.51-0.299 0.573-0.099 1.141-0.196 1.707-0.33 0.472-0.111 0.925-0.279 1.393-0.404 0.137-0.036 0.278-0.054 0.415-0.087 0.045-0.012 0.117-0.057 0.161-0.052 0.019 0.034 0.028 0.103 0.057 0.127 0.026 0.020 0.125 0.034 0.145 0.039 0.074 0.019 0.23 0.066 0.306 0.029 0.136-0.066 0.034-0.384 0.005-0.482-0.151-0.491-0.556-0.871-0.761-1.337-0.017-0.039-0.057-0.102-0.001-0.123 0.052-0.022 0.111 0.194 0.029 0.202z"></path>
<path d="M10.79 22.747c0.006 0.043 0.026 0.052 0.056 0.090 0.125 0.147 0.249 0.295 0.377 0.44 0.15 0.17 0.316 0.341 0.437 0.536 0.043 0.071 0.106 0.156 0.131 0.236-0.347 0.134-0.715 0.198-1.040 0.39-0.12 0.082-0.238 0.171-0.349 0.266-0.159 0.13-0.33 0.242-0.512 0.338-0.355 0.188-0.741 0.298-1.085 0.508-0.38 0.232-0.749 0.458-1.161 0.631-0.336 0.142-0.67 0.264-0.99 0.442-0.267 0.148-0.525 0.31-0.798 0.451-0.105 0.054-0.236 0.103-0.33 0.181 0.134-0.262 0.415-0.429 0.642-0.6 0.579-0.44 1.141-0.912 1.695-1.382 0.634-0.537 1.286-1.056 1.926-1.585 0.261-0.215 0.488-0.46 0.73-0.693 0.114-0.11 0.225-0.216 0.332-0.334 0.031 0.005 0.049 0.026-0.060 0.087z"></path>
<path d="M14.519 25.384c-0.082-0.108-0.145 0.080-0.182 0.122-0.53 0.59-0.704 1.448-0.934 2.18-0.131 0.42-0.264 0.835-0.469 1.229-0.192 0.369-0.432 0.708-0.625 1.077-0.137 0.264-0.248 0.54-0.373 0.809-0.003 0.005-0.224 0.386-0.176 0.418 0.042-0.080 0.122-0.137 0.184-0.199 0.114-0.114 0.199-0.227 0.279-0.367 0.156-0.272 0.293-0.533 0.503-0.767 0.245-0.275 0.499-0.536 0.732-0.821 0.244-0.3 0.483-0.602 0.752-0.88 0.326-0.34 0.709-0.619 0.993-0.999 0.192-0.258 0.352-0.542 0.57-0.781 0.062-0.069 0.213-0.168 0.255-0.256-0.287-0.090-0.525-0.281-0.783-0.434-0.218-0.128-0.451-0.27-0.701-0.329-0.051-0.013-0.273-0.023-0.3-0.066 0.086 0.022 0.168 0.052 0.276 0.065z"></path>
<path d="M18.445 25.888h-0.267c0.181 0.003 0.363-0.020 0.543-0.034 0.329-0.025 0.656-0.051 0.985-0.052 0.198-0.001 0.398-0.010 0.594 0.026 0.019 0.046-0.1 0.114-0.128 0.136-0.221 0.181-0.374 0.457-0.5 0.71-0.233 0.468-0.37 0.982-0.526 1.477-0.141 0.445-0.293 0.883-0.432 1.328-0.097 0.306-0.192 0.613-0.262 0.928-0.068 0.304-0.1 0.617-0.171 0.922-0.052 0.225-0.105 0.449-0.165 0.671-0.057-0.094-0.035-0.443-0.039-0.5-0.013-0.222-0.034-0.442-0.062-0.662-0.066-0.531-0.14-1.039-0.156-1.575-0.012-0.406-0.013-0.814-0.029-1.22-0.022-0.556-0.102-1.107-0.157-1.661-0.025-0.244-0.062-0.5-0.068-0.746 0.137-0.014 0.3 0.068 0.422 0.111z"></path>
<path d="M23.661 24.962c0.003-0.022-0.005-0.029-0.022-0.026-0.026 0.077-0.009 0.192-0.005 0.27 0.016 0.374 0.108 0.78 0.184 1.141 0.111 0.523 0.249 1.040 0.398 1.554 0.117 0.401 0.201 0.789 0.259 1.204 0.052 0.386 0.117 0.764 0.204 1.144 0.056 0.247 0.12 0.497 0.151 0.749 0.008 0.073 0.042 0.215 0 0.278-0.054-0.073-0.088-0.154-0.103-0.245-0.056-0.239-0.128-0.476-0.216-0.707-0.238-0.63-0.594-1.223-0.908-1.817-0.281-0.529-0.557-1.057-0.857-1.578-0.159-0.278-0.292-0.594-0.495-0.846-0.020-0.023-0.11-0.094-0.11-0.14 0-0.031 0.049-0.124 0.062-0.144 0.1-0.159 0.289-0.275 0.432-0.384 0.202-0.153 0.414-0.247 1.025-0.452z"></path>
</svg>
