<!-- Generated by IcoMoon.io -->
<svg version="1.1" xmlns="http://www.w3.org/2000/svg" width="32" height="32" viewBox="0 0 32 32">
<title>zce</title>
<path d="M28.516 27.959c-0.036-0.023-0.443-0.036-0.904-0.029s-1.088-0.008-1.393-0.033c-0.368-0.031-0.59-0.028-0.658 0.009-0.073 0.039-0.137 0.036-0.223-0.010-0.093-0.050-0.224-0.051-0.576-0.004-0.25 0.033-0.51 0.048-0.578 0.033-0.138-0.032-0.878-0.089-1.159-0.089-0.102-0-0.354 0.001-0.558 0.002s-0.454-0.015-0.554-0.037c-0.1-0.022-0.399-0.019-0.665 0.006s-0.801 0.033-1.19 0.017c-0.389-0.016-0.762-0.008-0.828 0.017-0.142 0.054-0.809 0.066-1.709 0.030-0.351-0.014-0.937-0.035-1.303-0.047-0.712-0.023-1.541-0.070-2.171-0.122-0.215-0.018-0.676-0.002-1.025 0.036-0.526 0.057-0.672 0.057-0.85-0.002-0.191-0.063-0.27-0.058-0.703 0.045-0.44 0.105-0.58 0.113-1.419 0.084-0.512-0.017-1.266-0.038-1.675-0.045s-0.852-0.039-0.984-0.070c-0.402-0.094-1.359-0.135-1.717-0.073-0.757 0.131-1.279 0.16-1.466 0.082-0.218-0.091-0.66-0.096-1.214-0.013-0.35 0.052-0.524 0.046-1.119-0.036-0.407-0.056-0.705-0.122-0.704-0.155 0-0.031 0.081-0.215 0.181-0.409s0.244-0.564 0.322-0.824c0.189-0.629 0.461-1.395 0.663-1.868 0.091-0.212 0.223-0.632 0.295-0.934s0.199-0.703 0.283-0.891c0.084-0.188 0.196-0.474 0.248-0.635s0.185-0.532 0.296-0.824c0.111-0.292 0.302-0.843 0.425-1.223s0.272-0.799 0.332-0.931c0.322-0.713 0.466-1.094 0.572-1.518 0.151-0.603 0.23-0.828 0.426-1.22 0.093-0.185 0.172-0.442 0.189-0.611 0.035-0.355 0.129-0.745 0.18-0.745 0.079 0 0.391 0.553 0.483 0.858 0.053 0.176 0.182 0.444 0.285 0.595 0.212 0.31 0.319 0.583 0.4 1.025 0.070 0.378 0.54 1.374 0.685 1.451 0.059 0.032 0.14 0.044 0.178 0.027 0.094-0.041 0.395-0.456 0.445-0.614 0.022-0.069 0.141-0.294 0.265-0.498 0.354-0.585 0.586-1.079 0.738-1.569 0.077-0.249 0.199-0.561 0.27-0.694s0.204-0.528 0.296-0.877c0.137-0.523 0.226-0.734 0.499-1.194 0.52-0.874 0.594-1.017 0.695-1.329 0.121-0.374 0.359-0.851 0.611-1.223 0.291-0.429 0.619-1.107 0.806-1.664 0.090-0.269 0.249-0.653 0.354-0.852l0.19-0.363 0.119 0.23c0.065 0.126 0.135 0.326 0.154 0.443s0.105 0.35 0.191 0.519c0.086 0.168 0.218 0.538 0.294 0.822s0.193 0.589 0.26 0.678c0.124 0.164 0.254 0.59 0.32 1.053 0.020 0.139 0.077 0.307 0.127 0.372 0.216 0.284 0.649 1.625 0.853 2.645 0.145 0.722 0.219 0.827 0.581 0.817 0.324-0.009 0.396-0.060 0.574-0.412l0.135-0.267 0.158 0.197c0.095 0.118 0.204 0.197 0.273 0.197 0.215-0.001 1.609-0.965 2.211-1.53 0.134-0.125 0.387-0.323 0.562-0.438 0.7-0.462 1.325-0.96 1.461-1.166 0.178-0.269 0.84-0.87 1.107-1.007 0.206-0.105 1.075-0.97 1.075-1.070 0-0.067 0.218-0.371 0.266-0.371 0.018 0 0.077 0.138 0.13 0.306s0.155 0.433 0.226 0.589c0.071 0.156 0.15 0.41 0.175 0.566s0.116 0.423 0.202 0.594c0.143 0.287 0.334 0.831 0.485 1.386 0.034 0.123 0.12 0.294 0.192 0.379 0.184 0.218 0.444 0.821 0.532 1.231 0.152 0.709 0.413 1.224 0.62 1.224 0.171 0 0.741-0.327 0.927-0.532 0.513-0.566 0.749-0.852 0.84-1.015l0.101-0.182 0.040 0.133c0.022 0.073 0.043 0.288 0.046 0.479s0.066 0.609 0.139 0.931c0.196 0.862 0.394 2.057 0.395 2.384 0.001 0.112 0.062 0.355 0.136 0.54 0.139 0.347 0.394 1.691 0.396 2.083 0.001 0.122 0.049 0.373 0.107 0.558s0.106 0.445 0.107 0.576c0.001 0.142 0.041 0.3 0.1 0.389 0.081 0.122 0.094 0.218 0.072 0.523-0.030 0.416 0.109 1.296 0.245 1.561 0.045 0.088 0.1 0.279 0.121 0.425s0.124 0.505 0.229 0.797c0.105 0.292 0.191 0.565 0.191 0.606s0.087 0.293 0.193 0.559c0.106 0.266 0.235 0.621 0.287 0.788l0.094 0.303-0.835-0.005c-0.532-0.003-0.876 0.017-0.948 0.056-0.13 0.069-0.434 0.079-0.532 0.017zM3.723 27.257c0.184-0.098 0.43-0.464 0.4-0.594-0.024-0.105 0.009-0.14 0.229-0.243 0.142-0.066 0.296-0.12 0.342-0.12s0.1-0.024 0.118-0.053c0.018-0.029 0.072-0.053 0.119-0.053s0.143-0.053 0.212-0.117c0.092-0.087 0.178-0.114 0.328-0.103 0.131 0.010 0.233-0.015 0.288-0.070 0.056-0.056 0.13-0.073 0.22-0.051 0.074 0.019 0.135 0.025 0.135 0.015 0-0.068-0.212-0.743-0.264-0.84-0.035-0.065-0.151-0.216-0.259-0.335-0.173-0.191-0.195-0.248-0.195-0.496 0-0.154-0.018-0.298-0.040-0.32-0.071-0.072-0.042-0.169 0.059-0.195 0.054-0.014 0.188-0.161 0.298-0.325 0.119-0.179 0.237-0.299 0.294-0.299 0.053 0 0.109-0.036 0.126-0.080s0.073-0.081 0.125-0.084c0.052-0.002 0.167-0.046 0.254-0.098 0.13-0.076 0.16-0.13 0.163-0.288 0.002-0.125 0.047-0.24 0.124-0.323 0.098-0.104 0.11-0.148 0.063-0.236-0.032-0.059-0.058-0.19-0.058-0.291 0-0.121-0.035-0.208-0.103-0.256-0.101-0.072-0.101-0.076-0.003-0.259 0.055-0.102 0.116-0.222 0.135-0.266s0.060-0.134 0.092-0.2c0.042-0.089 0.042-0.137-0.004-0.182s-0.046-0.080-0.002-0.134c0.045-0.054 0.043-0.104-0.008-0.199-0.042-0.079-0.054-0.194-0.031-0.304 0.020-0.097 0.049-0.278 0.065-0.401s0.062-0.252 0.103-0.286c0.112-0.093 0.090-0.229-0.058-0.358-0.090-0.078-0.133-0.171-0.133-0.285 0-0.093-0.040-0.214-0.090-0.268-0.083-0.092-0.22-0.547-0.305-1.013-0.024-0.131-0.088-0.238-0.186-0.311-0.083-0.061-0.204-0.218-0.269-0.349-0.13-0.261-0.229-0.329-0.342-0.235-0.072 0.059-0.099 0.154-0.184 0.642-0.023 0.132-0.094 0.335-0.158 0.451s-0.116 0.273-0.116 0.347c0 0.074-0.068 0.314-0.15 0.533s-0.193 0.601-0.245 0.85c-0.052 0.249-0.186 0.655-0.299 0.904-0.193 0.425-0.38 1.052-0.477 1.595-0.055 0.309-0.129 0.496-0.27 0.687-0.062 0.085-0.134 0.246-0.158 0.358-0.101 0.466-0.124 0.531-0.239 0.683-0.179 0.239-0.38 0.894-0.449 1.462-0.034 0.278-0.096 0.643-0.139 0.812s-0.092 0.504-0.109 0.745c-0.018 0.241-0.063 0.514-0.101 0.607-0.075 0.184-0.040 0.247 0.163 0.297 0.16 0.039 0.876-0.010 0.985-0.068zM21.218 26.646c0.037-0.044 0.195-0.118 0.351-0.163s0.299-0.105 0.316-0.133c0.044-0.072 0.429-0.262 0.53-0.262 0.138 0 0.438-0.232 0.612-0.472 0.089-0.123 0.215-0.244 0.28-0.27s0.309-0.192 0.543-0.37c0.234-0.178 0.464-0.324 0.511-0.324s0.17-0.058 0.274-0.128c0.103-0.070 0.244-0.145 0.313-0.166s0.225-0.119 0.347-0.218c0.122-0.099 0.259-0.18 0.304-0.18s0.164-0.071 0.263-0.159l0.181-0.159 0.222 0.317c0.122 0.174 0.269 0.35 0.326 0.39s0.119 0.154 0.138 0.254c0.043 0.223 0.217 0.58 0.283 0.58 0.027 0 0.064 0.048 0.082 0.107 0.060 0.187 0.296 0.425 0.424 0.425 0.256 0 0.259-0.025 0.165-1.622-0.019-0.322-0.014-0.705 0.011-0.851l0.045-0.266 0.263 0.267c0.145 0.147 0.305 0.32 0.355 0.385 0.098 0.126 0.328 0.159 0.391 0.057 0.069-0.112 0.026-0.423-0.163-1.171-0.103-0.407-0.187-0.809-0.187-0.894s-0.024-0.218-0.054-0.296c-0.030-0.078-0.078-0.433-0.106-0.788-0.094-1.163-0.151-1.735-0.182-1.833-0.017-0.053-0.053-0.406-0.080-0.784-0.080-1.106-0.283-1.971-0.452-1.924-0.031 0.009-0.144 0.195-0.251 0.413-0.193 0.393-0.195 0.407-0.216 1.168-0.020 0.745-0.091 1.090-0.224 1.090-0.027 0-0.111-0.181-0.188-0.402s-0.215-0.508-0.306-0.638c-0.092-0.13-0.197-0.341-0.234-0.468-0.080-0.275-0.17-0.325-0.329-0.181-0.064 0.058-0.234 0.134-0.378 0.169-0.153 0.037-0.349 0.139-0.475 0.247-0.118 0.101-0.242 0.183-0.276 0.183s-0.242 0.129-0.462 0.287c-0.665 0.477-0.618 0.484-0.615-0.088 0.002-0.355 0.024-0.516 0.081-0.582 0.108-0.124 0.043-1.602-0.076-1.72-0.125-0.125-0.182-0.095-0.52 0.269-0.192 0.207-0.365 0.346-0.429 0.346-0.061 0-0.235 0.129-0.399 0.297-0.277 0.283-0.583 0.498-0.583 0.409 0-0.061 0.462-0.753 0.632-0.946 0.080-0.092 0.232-0.32 0.337-0.508 0.12-0.214 0.281-0.409 0.433-0.522 0.14-0.105 0.274-0.262 0.318-0.373 0.042-0.105 0.2-0.317 0.351-0.471s0.249-0.279 0.218-0.279c-0.031 0-0.099-0.042-0.151-0.093s-0.158-0.126-0.235-0.166c-0.077-0.040-0.155-0.13-0.172-0.199s-0.175-0.272-0.35-0.451c-0.281-0.287-0.319-0.351-0.323-0.545-0.003-0.121-0.021-0.276-0.040-0.345l-0.035-0.125-0.101 0.111c-0.055 0.061-0.129 0.111-0.164 0.111-0.088 0-0.256 0.195-0.22 0.255 0.035 0.056-0.156 0.277-0.24 0.277-0.031 0-0.276 0.222-0.543 0.492-0.402 0.407-0.567 0.533-0.955 0.725-0.258 0.128-0.506 0.29-0.551 0.359s-0.117 0.125-0.16 0.125c-0.133 0-0.549 0.332-0.582 0.465-0.017 0.069-0.043 0.114-0.057 0.1-0.065-0.065-0.828 0.512-0.921 0.696-0.041 0.082-0.153 0.238-0.248 0.347-0.192 0.22-0.255 0.399-0.214 0.615 0.015 0.079 0.009 0.192-0.014 0.251-0.024 0.062-0.008 0.195 0.038 0.319 0.232 0.632 0.322 0.831 0.53 1.177 0.127 0.21 0.229 0.447 0.23 0.532s0.035 0.213 0.078 0.286c0.095 0.165 0.099 0.174 0.211 0.532 0.152 0.486 0.255 0.702 0.51 1.064 0.134 0.19 0.33 0.489 0.437 0.665s0.298 0.427 0.425 0.558c0.252 0.26 0.441 0.532 0.371 0.532-0.024 0-0.225-0.185-0.447-0.412s-0.693-0.706-1.047-1.065c-0.355-0.359-0.645-0.673-0.645-0.697s-0.093-0.108-0.206-0.187c-0.157-0.109-0.214-0.19-0.239-0.34-0.018-0.108-0.105-0.302-0.192-0.431s-0.159-0.28-0.159-0.336c0-0.056-0.063-0.21-0.141-0.342s-0.16-0.34-0.183-0.461c-0.050-0.262-0.458-0.922-0.601-0.97-0.113-0.038-0.191 0.053-0.192 0.226-0.001 0.123-0.087 0.241-0.507 0.695-0.215 0.232-0.303 0.29-0.45 0.298-0.178 0.009-0.186 0.019-0.33 0.435-0.082 0.235-0.135 0.481-0.12 0.551 0.017 0.075-0.003 0.15-0.049 0.186-0.142 0.112-0.403 0.861-0.37 1.063 0.024 0.146 0.006 0.205-0.084 0.282-0.063 0.054-0.158 0.194-0.211 0.311-0.091 0.199-0.125 0.309-0.262 0.851-0.102 0.404-0.349 1.041-0.552 1.426-0.062 0.117-0.096 0.26-0.082 0.337 0.014 0.074 0.006 0.198-0.018 0.275s-0.071 0.249-0.105 0.381c-0.034 0.132-0.109 0.391-0.167 0.576s-0.095 0.348-0.081 0.361c0.014 0.014 0.136-0.003 0.272-0.038 0.205-0.052 0.263-0.049 0.339 0.015 0.050 0.043 0.176 0.116 0.28 0.164 0.163 0.074 0.217 0.076 0.393 0.016 0.112-0.039 0.226-0.109 0.253-0.157s0.095-0.087 0.152-0.087c0.057 0 0.133-0.050 0.17-0.111s0.158-0.158 0.268-0.215c0.111-0.057 0.227-0.16 0.258-0.229 0.076-0.166 0.262-0.244 0.494-0.207 0.116 0.019 0.19 0.009 0.19-0.025 0-0.050 0.407-0.278 0.497-0.278 0.021 0 0.138-0.096 0.26-0.213s0.258-0.213 0.304-0.213c0.045-0 0.16-0.048 0.256-0.106l0.174-0.106-0.035 0.146c-0.059 0.244-0.121 0.385-0.169 0.385-0.072 0-0.169 0.253-0.171 0.441-0.001 0.094-0.049 0.275-0.106 0.402s-0.105 0.266-0.105 0.308c0 0.042-0.038 0.15-0.085 0.24-0.075 0.144-0.075 0.173-0.006 0.242 0.092 0.092 0.366 0.052 0.465-0.069 0.035-0.042 0.105-0.076 0.155-0.076 0.142 0 0.388-0.139 0.558-0.317 0.085-0.089 0.179-0.162 0.21-0.162s0.164-0.108 0.298-0.24c0.189-0.186 0.322-0.262 0.59-0.339 0.309-0.088 0.483-0.164 0.739-0.323 0.044-0.027 0.143-0.063 0.22-0.079s0.252-0.143 0.389-0.281c0.215-0.219 0.241-0.232 0.192-0.104-0.059 0.156-0.499 0.621-0.588 0.621-0.029 0-0.068 0.066-0.088 0.146s-0.106 0.211-0.191 0.291c-0.085 0.080-0.138 0.172-0.118 0.205s0.013 0.111-0.016 0.174c-0.029 0.063-0.084 0.215-0.121 0.339-0.081 0.27-0.046 0.328 0.297 0.489 0.13 0.061 0.237 0.135 0.237 0.163s0.090 0.099 0.199 0.156c0.11 0.057 0.271 0.165 0.359 0.238 0.18 0.151 0.406 0.177 0.506 0.057zM22.627 24.174c0.021-0.073 0.227-0.724 0.456-1.447 0.375-1.181 0.477-1.432 1.002-2.473 0.321-0.637 0.573-1.087 0.56-0.999s-0.073 0.683-0.132 1.322c-0.105 1.133-0.112 1.168-0.273 1.402-0.708 1.029-1.645 2.304-1.614 2.195zM6.822 26.171c0.14-0.071 0.373-0.215 0.519-0.319s0.286-0.19 0.314-0.19c0.027 0 0.224-0.168 0.436-0.372s0.43-0.372 0.484-0.372c0.053 0 0.111-0.036 0.128-0.080s0.075-0.080 0.128-0.080c0.054 0 0.112-0.024 0.13-0.053 0.049-0.079 0.208-0.065 0.408 0.036 0.097 0.049 0.237 0.119 0.31 0.156s0.141 0.117 0.15 0.179c0.029 0.186 0.608 0.694 0.791 0.694 0.056 0 0.132 0.030 0.169 0.066 0.106 0.104 0.229-0.098 0.189-0.311-0.018-0.093-0.004-0.222 0.030-0.285 0.050-0.094 0.044-0.142-0.034-0.258-0.162-0.241-0.232-0.502-0.199-0.735 0.018-0.125 0.006-0.268-0.029-0.332-0.049-0.091-0.045-0.112 0.020-0.112 0.138 0 0.182-0.167 0.124-0.479-0.030-0.161-0.073-0.34-0.096-0.399-0.067-0.168-0.114-0.594-0.129-1.17l-0.014-0.532 0.108 0.328c0.164 0.498 0.452 0.589 0.544 0.17 0.021-0.096 0.082-0.177 0.155-0.205 0.066-0.025 0.161-0.132 0.211-0.237s0.145-0.227 0.212-0.271c0.067-0.044 0.197-0.184 0.289-0.312s0.222-0.248 0.288-0.266c0.138-0.038 0.351-0.347 0.397-0.575 0.024-0.121 0.005-0.173-0.088-0.238-0.097-0.068-0.112-0.113-0.082-0.249 0.020-0.091 0.044-0.274 0.053-0.405s0.034-0.284 0.056-0.339c0.022-0.055 0.014-0.142-0.018-0.193-0.047-0.076-0.034-0.103 0.074-0.152 0.072-0.033 0.179-0.060 0.237-0.060s0.122-0.042 0.141-0.093c0.020-0.051 0.091-0.174 0.158-0.273s0.122-0.237 0.122-0.306c0-0.069 0.032-0.125 0.070-0.125s0.125-0.059 0.193-0.13c0.092-0.098 0.113-0.165 0.087-0.271-0.028-0.113 0.003-0.188 0.155-0.373 0.341-0.417 0.439-0.804 0.237-0.945-0.083-0.058-0.1-0.11-0.074-0.216 0.028-0.112 0.003-0.17-0.13-0.294-0.091-0.085-0.165-0.203-0.165-0.263s-0.050-0.144-0.112-0.187c-0.062-0.044-0.095-0.105-0.075-0.139 0.051-0.083-0.075-0.373-0.162-0.373-0.083 0-0.103-0.031-0.15-0.226-0.027-0.112-0.015-0.146 0.048-0.146 0.107 0 0.064-0.272-0.109-0.691-0.201-0.489-0.298-0.938-0.232-1.082 0.043-0.095 0.036-0.185-0.028-0.375-0.061-0.179-0.070-0.279-0.031-0.35 0.079-0.148 0.065-0.497-0.025-0.615-0.043-0.057-0.079-0.171-0.080-0.253-0.003-0.3-0.146-0.421-0.361-0.306-0.051 0.027-0.134 0.062-0.185 0.078s-0.093 0.063-0.093 0.105c0 0.11-0.297 0.727-0.428 0.888-0.061 0.075-0.135 0.241-0.163 0.367s-0.096 0.292-0.15 0.368c-0.151 0.213-0.874 1.652-0.957 1.905-0.040 0.123-0.13 0.277-0.198 0.342-0.073 0.068-0.125 0.179-0.125 0.265 0 0.095-0.075 0.234-0.213 0.393-0.117 0.135-0.213 0.299-0.213 0.364s-0.038 0.249-0.084 0.409c-0.046 0.16-0.116 0.545-0.156 0.855-0.061 0.477-0.097 0.601-0.235 0.798-0.095 0.136-0.174 0.329-0.19 0.462-0.015 0.126-0.074 0.341-0.13 0.479s-0.118 0.345-0.138 0.462c-0.037 0.22-0.164 0.542-0.353 0.894-0.060 0.112-0.098 0.245-0.084 0.298s-0.006 0.152-0.043 0.222c-0.047 0.089-0.052 0.157-0.015 0.226 0.041 0.076 0.026 0.127-0.064 0.224-0.096 0.102-0.111 0.161-0.081 0.32 0.030 0.162 0.018 0.208-0.074 0.272-0.132 0.092-0.322 0.447-0.322 0.601 0 0.060 0.030 0.156 0.066 0.214 0.055 0.087 0.047 0.144-0.046 0.332-0.061 0.125-0.156 0.322-0.211 0.439s-0.168 0.328-0.253 0.468c-0.117 0.195-0.147 0.298-0.125 0.432 0.016 0.097 0.005 0.201-0.024 0.23-0.083 0.083-0.151 0.453-0.096 0.52 0.144 0.173 0.041 0.511-0.372 1.221-0.085 0.146-0.156 0.305-0.158 0.352s-0.039 0.116-0.083 0.153c-0.084 0.070-0.107 0.16-0.040 0.159 0.022-0 0.154-0.058 0.295-0.129z"></path>
</svg>
