<!-- Generated by IcoMoon.io -->
<svg version="1.1" xmlns="http://www.w3.org/2000/svg" width="32" height="32" viewBox="0 0 32 32">
<title>zcf</title>
<path d="M1.998 29.848c0.002-0.084 0.577-1.977 1.276-4.208l1.272-4.056 2.517-0.121v8.537h-2.535c-1.394 0-2.533-0.068-2.531-0.152zM8.281 25.741v-4.259h7.301v5.335l-0.862 0.785c-0.474 0.432-1.512 1.148-2.306 1.592-1.278 0.714-1.599 0.807-2.789 0.807h-1.344zM18.24 29.341c1.33-1.443 2.614-4.978 2.614-7.199l0-0.659h3.245v8.518h-6.467zM25.316 25.731v-4.269l2.112 0.123 1.272 4.056c0.7 2.231 1.274 4.125 1.276 4.208s-1.046 0.152-2.328 0.152h-2.332zM16.799 23.51v-2.028h0.913c0.692 0 0.913 0.077 0.913 0.317 0 0.359-1.553 3.739-1.718 3.739-0.059 0-0.107-0.913-0.107-2.028zM5.036 20.124c0-0.119 1.258-4.18 2.36-7.616l0.309-0.963h2.401v8.72h-2.535c-1.394 0-2.535-0.064-2.535-0.141zM11.323 15.905v-4.36h9.735l-0.014 3.904c-0.008 2.147-0.085 3.721-0.172 3.498s-0.364-1.042-0.615-1.821c-0.778-2.408-1.84-3.511-3.721-3.863-0.714-0.134-2.009 0.314-2.826 0.976-0.514 0.417-1.161 1.962-1.166 2.785-0.009 1.433 1.469 2.836 2.988 2.836 0.885 0 2.078-1.101 2.078-1.916 0-0.687-0.494-1.647-0.934-1.815-0.838-0.322-1.702 0.542-1.297 1.298 0.285 0.532 0.412 0.514 0.352-0.051-0.038-0.363 0.054-0.456 0.454-0.456 0.369 0 0.556 0.153 0.706 0.579 0.179 0.51 0.136 0.637-0.361 1.065-0.624 0.537-0.875 0.581-1.644 0.288-0.608-0.231-1.33-1.318-1.331-2.005-0.001-0.842 0.815-2.026 1.568-2.274 2.027-0.669 3.666 1.11 3.864 4.195l0.096 1.499h-7.76zM20.887 19.86c0-0.279 0.046-0.393 0.102-0.254s0.056 0.368 0 0.507c-0.056 0.139-0.102 0.025-0.102-0.254zM22.274 15.905v-4.36h1.995l0.309 0.963c1.102 3.436 2.36 7.497 2.36 7.616 0 0.078-1.049 0.141-2.332 0.141h-2.332zM8.084 10.277c0.003-0.028 0.581-1.876 1.283-4.107l1.278-4.056 4.937-0.114v8.327h-3.752c-2.063 0-3.749-0.023-3.746-0.051zM16.799 6.164v-4.164l4.532 0.115 1.278 4.056c0.703 2.231 1.28 4.079 1.283 4.107s-1.591 0.051-3.543 0.051h-3.549z"></path>
</svg>
