<!-- Generated by IcoMoon.io -->
<svg version="1.1" xmlns="http://www.w3.org/2000/svg" width="31" height="32" viewBox="0 0 31 32">
<title>zez</title>
<path d="M18.088 30.976c-0.022-0.022-0.317-0.056-0.654-0.076-0.454-0.026-0.658-0.061-0.784-0.134-0.093-0.054-0.17-0.115-0.17-0.136-0.001-0.063-0.379-0.233-0.595-0.266-0.111-0.017-0.278-0.090-0.373-0.162s-0.233-0.146-0.307-0.165c-0.075-0.019-0.163-0.067-0.197-0.108s-0.116-0.073-0.184-0.073c-0.068 0-0.195-0.071-0.284-0.157s-0.182-0.157-0.208-0.157c-0.026 0-0.062-0.048-0.081-0.107s-0.115-0.188-0.213-0.286c-0.098-0.098-0.179-0.216-0.179-0.261s-0.033-0.134-0.073-0.198c-0.156-0.248-0.2-0.63-0.138-1.172 0.069-0.603 0.216-1.007 0.412-1.133 0.584-0.377 0.731-0.454 0.909-0.485 0.111-0.019 0.276-0.071 0.366-0.116 0.145-0.072 0.17-0.073 0.221-0.003 0.032 0.043 0.116 0.097 0.188 0.119s0.173 0.085 0.225 0.139c0.052 0.054 0.124 0.098 0.161 0.098 0.094 0 0.505 0.36 0.505 0.443 0 0.037 0.035 0.097 0.079 0.133 0.108 0.090 0.109 0.777 0.002 0.92-0.1 0.133-0.101 0.412-0.002 0.495 0.043 0.036 0.079 0.119 0.079 0.184 0 0.221 0.514 0.404 0.869 0.309 0.1-0.027 0.108-0.061 0.092-0.389-0.028-0.555-0.163-1.637-0.225-1.799-0.030-0.080-0.055-0.249-0.055-0.376 0-0.244-0.122-0.561-0.275-0.717-0.050-0.051-0.092-0.124-0.092-0.162s-0.068-0.139-0.152-0.224c-0.084-0.086-0.16-0.214-0.17-0.285-0.018-0.125-0.031-0.129-0.359-0.114-0.187 0.008-0.403 0.040-0.48 0.070-0.247 0.097-1.726-0.057-1.882-0.195-0.049-0.044-0.199-0.074-0.367-0.075-0.166-0.001-0.326-0.034-0.386-0.079-0.056-0.042-0.151-0.077-0.211-0.077s-0.156-0.032-0.213-0.071c-0.057-0.039-0.179-0.085-0.272-0.103s-0.267-0.104-0.388-0.191c-0.121-0.087-0.245-0.159-0.277-0.159-0.088 0-0.345-0.256-0.345-0.344 0-0.043-0.064-0.102-0.142-0.132s-0.285-0.203-0.458-0.386c-0.174-0.182-0.397-0.375-0.496-0.429s-0.223-0.139-0.275-0.189c-0.052-0.050-0.132-0.092-0.176-0.092s-0.106-0.071-0.136-0.157c-0.032-0.092-0.092-0.157-0.144-0.157-0.121 0-0.215-0.103-0.215-0.236 0-0.061-0.059-0.191-0.132-0.289s-0.156-0.274-0.185-0.39c-0.029-0.116-0.080-0.258-0.113-0.316-0.135-0.236-0.194-0.958-0.196-2.409-0.002-1.47 0.061-2.208 0.199-2.346 0.033-0.033 0.059-0.091 0.059-0.13s0.082-0.247 0.183-0.462c0.101-0.215 0.183-0.461 0.183-0.546 0-0.108 0.040-0.181 0.133-0.242 0.073-0.048 0.166-0.166 0.207-0.263s0.128-0.201 0.194-0.232c0.121-0.057 0.359-0.475 0.357-0.628-0.001-0.045 0.070-0.15 0.156-0.232s0.157-0.203 0.157-0.268c0-0.064 0.077-0.219 0.17-0.344s0.217-0.315 0.274-0.423c0.057-0.108 0.181-0.258 0.275-0.333s0.171-0.168 0.171-0.205c0-0.038 0.107-0.16 0.237-0.271 0.207-0.177 0.241-0.235 0.267-0.462 0.022-0.191 0.001-0.342-0.080-0.573-0.061-0.172-0.11-0.356-0.11-0.409s-0.029-0.148-0.064-0.211c-0.067-0.119-0.164-0.491-0.254-0.973-0.029-0.155-0.087-0.331-0.129-0.392s-0.077-0.185-0.077-0.278c0-0.093-0.020-0.181-0.045-0.197s-0.057-0.2-0.070-0.409c-0.014-0.21-0.063-0.456-0.111-0.547-0.075-0.145-0.086-0.42-0.090-2.174-0.002-1.105 0.012-2.11 0.032-2.234 0.060-0.371 0.16-0.61 0.278-0.664 0.061-0.028 0.111-0.079 0.111-0.113 0-0.104 0.28-0.386 0.383-0.386 0.054 0 0.16-0.049 0.236-0.109 0.127-0.1 0.18-0.106 0.631-0.072 0.271 0.020 0.554 0.069 0.63 0.108s0.281 0.072 0.457 0.072c0.176 0 0.388 0.022 0.472 0.049s0.24 0.063 0.349 0.081c0.244 0.041 0.372 0.173 0.567 0.588 0.084 0.178 0.176 0.339 0.205 0.357s0.053 0.073 0.053 0.122c0 0.049 0.047 0.177 0.105 0.285s0.105 0.221 0.105 0.253c0 0.072 0.198 0.245 0.355 0.311 0.066 0.027 0.134 0.091 0.152 0.142s0.070 0.136 0.117 0.19c0.073 0.085 0.084 0.305 0.084 1.676 0 1.375-0.011 1.596-0.086 1.71-0.047 0.072-0.102 0.22-0.121 0.33-0.026 0.145-0.069 0.212-0.163 0.248-0.104 0.040-0.128 0.085-0.129 0.246-0.001 0.109-0.026 0.292-0.056 0.407s-0.076 0.311-0.102 0.435c-0.026 0.124-0.084 0.277-0.128 0.339s-0.080 0.166-0.080 0.229c0 0.112-0.363 0.711-0.471 0.777-0.029 0.018-0.053 0.112-0.053 0.209 0 0.131-0.036 0.202-0.143 0.28-0.135 0.098-0.14 0.115-0.079 0.283 0.036 0.098 0.065 0.251 0.065 0.339s0.033 0.188 0.074 0.221c0.041 0.034 0.085 0.172 0.098 0.308s0.078 0.388 0.143 0.561c0.065 0.173 0.144 0.538 0.177 0.81 0.058 0.495 0.059 0.496 0.225 0.544 0.137 0.039 0.192 0.027 0.308-0.064 0.078-0.061 0.191-0.112 0.252-0.113s0.17-0.036 0.242-0.077c0.104-0.059 0.402-0.075 1.426-0.077 1.314-0.002 1.432 0.012 1.77 0.215 0.043 0.026 0.155 0.082 0.249 0.125 0.111 0.051 0.17 0.116 0.17 0.185s0.051 0.125 0.148 0.158c0.086 0.030 0.21 0.15 0.296 0.285 0.089 0.141 0.187 0.234 0.246 0.234 0.057 0 0.125 0.060 0.161 0.144 0.034 0.079 0.114 0.215 0.178 0.301s0.132 0.251 0.153 0.367c0.021 0.115 0.082 0.322 0.135 0.46s0.098 0.369 0.098 0.514c0 0.145 0.028 0.315 0.063 0.378s0.065 0.268 0.069 0.455c0.004 0.207 0.041 0.406 0.095 0.508 0.049 0.092 0.088 0.249 0.088 0.349s0.065 0.307 0.144 0.461c0.132 0.255 0.146 0.338 0.161 0.96l0.017 0.681-0.161 0.154c-0.124 0.119-0.161 0.199-0.161 0.352 0 0.143-0.042 0.246-0.15 0.37-0.096 0.11-0.163 0.259-0.186 0.414-0.020 0.133-0.078 0.325-0.13 0.427-0.148 0.291-0.473 0.711-0.575 0.743-0.107 0.034-0.29 0.265-0.344 0.435-0.020 0.064-0.078 0.117-0.127 0.117s-0.247 0.153-0.439 0.341c-0.192 0.187-0.385 0.341-0.428 0.341s-0.168 0.061-0.278 0.135c-0.223 0.152-0.235 0.257-0.054 0.501 0.079 0.107 0.118 0.261 0.141 0.555 0.017 0.224 0.061 0.458 0.096 0.521s0.064 0.186 0.064 0.274c0 0.124 0.064 0.222 0.283 0.438 0.268 0.264 0.397 0.52 0.398 0.788 0 0.052 0.081 0.264 0.179 0.471 0.245 0.515 0.307 1.121 0.214 2.073-0.037 0.379-0.064 0.461-0.194 0.602-0.083 0.090-0.26 0.293-0.393 0.452s-0.276 0.308-0.317 0.333c-0.18 0.107-1.365 0.237-1.444 0.158zM15.781 21.224c0.046-0.029 0.034-0.114-0.043-0.327-0.058-0.158-0.122-0.398-0.143-0.532s-0.063-0.276-0.094-0.314c-0.030-0.038-0.069-0.346-0.086-0.683-0.028-0.544-0.049-0.648-0.191-0.928-0.089-0.176-0.159-0.398-0.159-0.502 0-0.165-0.067-0.327-0.3-0.727-0.036-0.061-0.065-0.162-0.065-0.225-0.001-0.115-0.163-0.209-0.259-0.15-0.15 0.093-0.346 0.716-0.414 1.318-0.020 0.176-0.066 0.356-0.102 0.4-0.078 0.094-0.011 0.316 0.145 0.485 0.053 0.058 0.105 0.164 0.114 0.236 0.013 0.098 0.053 0.135 0.162 0.148 0.079 0.009 0.144 0.040 0.144 0.068s0.112 0.158 0.249 0.288l0.249 0.237-0.124 0.101c-0.179 0.147-0.32 0.126-0.554-0.082-0.113-0.101-0.247-0.183-0.298-0.183-0.060 0-0.097-0.048-0.108-0.14-0.012-0.103-0.059-0.153-0.174-0.19-0.271-0.087-0.341-0.183-0.341-0.477-0-0.271-0.126-1.143-0.176-1.225-0.015-0.025-0.042-0.299-0.059-0.609-0.027-0.491-0.018-0.593 0.070-0.782 0.056-0.12 0.117-0.307 0.136-0.417 0.024-0.137 0.070-0.213 0.149-0.243 0.063-0.024 0.186-0.14 0.272-0.256s0.21-0.237 0.275-0.266c0.158-0.073 0.149-0.172-0.039-0.432-0.12-0.166-0.157-0.273-0.157-0.458-0-0.235-0.007-0.245-0.262-0.388-0.2-0.112-0.262-0.177-0.262-0.272 0-0.069-0.020-0.138-0.046-0.153s-0.060-0.122-0.079-0.236c-0.018-0.114-0.055-0.221-0.080-0.237s-0.107 0.073-0.18 0.198c-0.073 0.125-0.17 0.257-0.215 0.295s-0.082 0.121-0.082 0.187c0 0.065-0.032 0.131-0.072 0.147s-0.123 0.134-0.186 0.263c-0.063 0.13-0.148 0.264-0.19 0.299s-0.076 0.086-0.076 0.114c0 0.028-0.174 0.257-0.387 0.509-0.532 0.63-0.616 0.836-0.617 1.505-0.001 0.388 0.021 0.565 0.079 0.655 0.044 0.067 0.096 0.276 0.117 0.463s0.069 0.387 0.108 0.444c0.039 0.057 0.071 0.154 0.071 0.216s0.035 0.142 0.079 0.178c0.050 0.042 0.079 0.157 0.079 0.32 0 0.231 0.021 0.275 0.228 0.478 0.311 0.305 0.804 0.691 0.914 0.714 0.131 0.027 0.221 0.113 0.221 0.209 0 0.124 0.412 0.479 0.556 0.479 0.068 0 0.212 0.036 0.321 0.079s0.304 0.097 0.433 0.119c0.186 0.032 0.239 0.064 0.252 0.153 0.009 0.062 0.056 0.124 0.105 0.137 0.152 0.040 1.028 0.036 1.093-0.005zM18.103 19.766c0.072-0.142 0.18-0.329 0.24-0.415s0.149-0.279 0.197-0.429c0.048-0.15 0.146-0.384 0.218-0.519s0.131-0.298 0.131-0.362c0-0.064 0.033-0.144 0.073-0.178s0.086-0.16 0.102-0.281c0.137-1.056 0.183-1.338 0.231-1.428 0.043-0.080 0.033-0.13-0.045-0.226-0.055-0.068-0.1-0.154-0.1-0.191s-0.127-0.183-0.282-0.325l-0.282-0.258-0.308 0.044c-0.169 0.024-0.596 0.058-0.948 0.075-0.449 0.022-0.659 0.053-0.701 0.104-0.033 0.040-0.115 0.072-0.181 0.072-0.172 0-0.185 0.052-0.073 0.289 0.054 0.115 0.099 0.235 0.1 0.268s0.037 0.088 0.080 0.124c0.043 0.036 0.079 0.115 0.079 0.177s0.036 0.179 0.079 0.262 0.078 0.202 0.078 0.265c0 0.063 0.060 0.196 0.133 0.295s0.165 0.286 0.205 0.416c0.101 0.33 0.228 0.616 0.291 0.655 0.029 0.018 0.053 0.193 0.053 0.39 0 0.213 0.042 0.489 0.105 0.685 0.058 0.18 0.105 0.373 0.105 0.428 0 0.133 0.157 0.367 0.23 0.343 0.032-0.011 0.117-0.136 0.189-0.278zM13.881 4.469c-0.006-0.784-0.023-0.856-0.306-1.226-0.099-0.13-0.181-0.274-0.183-0.321-0.004-0.1-0.129-0.217-0.179-0.167-0.019 0.019-0.034 0.322-0.034 0.674 0 0.769 0.109 1.184 0.393 1.498 0.101 0.112 0.183 0.229 0.183 0.26s0.029 0.047 0.065 0.034c0.049-0.016 0.064-0.211 0.060-0.751z"></path>
</svg>
