<svg xmlns="http://www.w3.org/2000/svg" width="32" height="32" viewBox="0 0 1048.75 1049.46"><style>path{fill:#e5e9f0}@media (prefers-color-scheme:light){path{fill:#2e3440}}</style><path d="M878.92 803.99c.85-21.29-1.42-40.32-7.35-59.47-5.48-17.72-9.89-35.62-18.39-52.28-11.4-22.34-29.97-35.44-53.27-42.83-6.88-2.18-11.32-.68-14.87 6.54-13.86 28.16-31.19 54.29-54.17 75.67-95.77 89.09-226.43 112.76-351.24 47.78-22.11-11.51-42.16-26.25-60.2-43.65-40.54-39.11-67.74-85.82-81.2-140.57-11.04-44.92-12.42-89.88-2.07-135.16 43.26-189.19 221.99-253.35 341.21-227.35 65.89 14.37 123.05 43.83 167.75 95.03 29.12 33.35 49 71.95 61.58 114.38.75 2.54 2.79 6.17 4.84 6.65 25.54 5.91 50.55 12.93 74.18 24.89 24.71 12.5 47.04 28.28 66.4 47.69 19.66 19.7 37.23 41.55 49.36 66.85 4.3 8.97 10.29 10.21 18.38 9.71 2.33-.14 4.69-.05 6.97-.45 14.81-2.6 20.79-3.64 20.96-18.65.29-25.11.97-50.21.97-75.31 0-10.04-3.36-13.53-13.36-15.34-29.14-5.27-58.3-10.4-87.5-15.33-9.41-1.59-13.97-5.54-15.66-14.92-2.76-15.24-4.79-30.68-8.61-45.65-3.41-13.39 1.41-22.94 11.15-30.67 10.07-7.99 20.7-15.29 31.26-22.64 13-9.05 26.3-17.69 39.25-26.81 7.21-5.08 9.28-10.99 5.84-17.89-11.3-22.68-22.8-45.26-34.65-67.65-4.33-8.19-9.79-10.31-18.42-7.69-17.99 5.45-35.79 11.54-53.76 17.09-12.96 4-26.02 7.74-39.13 11.2-6.15 1.62-11.46-.13-16.16-5.03-12.01-12.51-24.52-24.54-36.7-36.89-5.52-5.6-7.44-12.61-4.2-19.76 8.16-17.97 16.76-35.74 25.45-53.46 6.06-12.36 12.59-24.49 18.88-36.74 3.1-6.04 1.44-11.08-3.57-15.15-4.07-3.31-8.15-6.69-12.56-9.52-18.52-11.89-37.17-23.58-55.76-35.36-7.34-4.65-14.48-3.35-20.01 3.46-4.21 5.18-8.62 10.18-12.97 15.24-15.19 17.65-30.6 35.12-45.53 53-10.15 12.16-16.02 14.64-29.41 10.72-14.8-4.33-29.7-8.32-44.39-12.99-8.18-2.61-15.28-6.82-16.26-16.92-1.26-12.96-3.06-25.87-4.37-38.83-1.65-16.35-2.64-32.77-4.66-49.07-1.47-11.82-5.24-15.55-16.99-16.33C561.95 1.93 537.9.84 513.85.08c-10.06-.32-13.97 3.19-16.76 13.08-1.36 4.81-1.9 9.84-2.96 14.75-5.42 25.12-10.77 50.26-16.4 75.34-1.78 7.93-7.46 12.75-15.1 14.7-18.07 4.61-36.21 8.93-54.36 13.22-10.18 2.41-14.39.74-20.06-7.82-14.37-21.72-28.69-43.49-42.96-65.28-8.82-13.46-12.71-14.7-27.05-8.21-19.08 8.63-38.1 17.42-57.27 25.86-17.93 7.89-18.57 8.79-14.65 27.89.43 2.1 1.1 4.16 1.77 6.21 7.81 24.09 16.04 48.05 23.28 72.31 2.67 8.94 1.17 17.61-6.98 24.56-14.46 12.35-28.56 25.15-42.3 38.29-7.29 6.98-14.94 8.6-23.97 4.95-25.9-10.46-51.82-20.88-77.61-31.59-9.02-3.74-17.18-3.08-21.6 4.01a2681.454 2681.454 0 0 0-38.54 63.83c-4.44 7.59-2.88 13.12 3.8 18.87 7.03 6.06 14.19 11.99 21.22 18.06 15.48 13.38 30.9 26.81 46.35 40.22 5.57 4.84 6.41 11.05 4.61 17.68-5.1 18.85-10.74 37.55-15.49 56.48-2.54 10.13-7.82 16.55-18.2 18.57-8.65 1.68-17.28 3.45-25.91 5.24-22.2 4.6-44.43 9.03-66.56 13.97-8.39 1.87-10.46 5.65-10.06 14.62.18 4.03.25 8.06.48 12.09 1.22 20.73 2.15 41.48 3.85 62.17.9 10.96 4.51 14.33 15.25 15.49 26.15 2.84 52.33 5.3 78.5 7.96 13.76 1.4 16.6 4.16 19.65 17.34 3.49 15.12 7.58 30.1 10.98 45.24 2.33 10.33 4.11 20.87-5.63 28.98-7.86 6.54-15.7 13.1-23.62 19.57-15.31 12.49-30.83 24.73-45.96 37.44-7.84 6.59-8.76 11.37-4.55 20.58 2.57 5.62 6.03 10.82 9.18 16.17 9.45 16.06 18.69 32.24 28.5 48.08 5.57 8.99 13.17 10.83 22.87 6.72 25.22-10.69 50.63-20.97 75.56-32.3 10.71-4.87 19.16-2.74 26.77 4.71a861.908 861.908 0 0 1 32.31 33.36c6.63 7.22 10.27 15.07 4.45 25.28-4.31 7.56-6.89 16.14-9.99 24.36-7.65 20.28-14.89 40.72-22.8 60.9-5.14 13.11-3.89 17.91 8.68 24.89 21.16 11.76 42.35 23.46 63.54 35.15 8.58 4.74 14.49 3.53 20.36-4.42 6.91-9.37 13.71-18.82 20.39-28.35 10.93-15.59 21.67-31.32 32.61-46.9 6.75-9.61 14-12.08 25.23-8.95 15.6 4.34 31.2 8.66 46.78 13.06 8.07 2.28 13.42 7.66 14.91 15.77 5.15 28.11 10.19 56.24 14.68 84.46 3.27 20.56 9.54 20.6 25.23 20.76 19.82.2 39.66-1.02 59.49-1.64 16.79-.53 20.19-3.16 22.2-19.64 3.12-25.54 5.67-51.15 8.47-76.72 1.82-16.6 7.81-24.27 23.57-28.07 13.19-3.18 26.2-7.21 39.08-11.49 15.67-5.22 23.05-2.72 33.46 10.5 16.42 20.86 33.3 41.38 50.29 61.78 5.23 6.27 12.38 7.93 18.59 4.34 21.66-12.53 43.15-25.35 64.54-38.33 11.27-6.84 10.88-12 6.42-23.2-10.24-25.71-21.5-51.01-32.45-76.44-7.39-17.15-5.2-23.91 9.96-35.46 11.76-8.96 22.97-18.67 34.1-28.42 6.83-5.98 11.67-7.25 20.24-3.33 3.24 1.49 6.3 3.41 9.31 5.35 7.59 4.88 15.11 9.88 23.41 15.32Z"/><path d="M923.97 630.89c.92-.77 1.42-1 1.63-1.39 12.23-23.01 14.02-47.88 12.8-73.24-.1-2.01-1.08-4.21-2.25-5.92-20.93-30.67-52.24-47.25-84.73-62.2-14.7-6.76-30.28-10.31-46.26-11.59-12.79-1.02-26.01-2.71-38.46-.62-22.54 3.77-45.15 8.62-66.81 15.8-28.27 9.37-55.79 21.1-83.37 32.44-20.54 8.45-40.38 18.62-61.04 26.75-27.76 10.92-56.6 15.64-86.42 10.05-20.65-3.87-40.25-10.25-56.87-23.92-14.24-11.72-23.68-26.56-30.6-43.46-16.51-40.34-10.57-80.04 24.86-108.43 14.41-11.54 31.23-15.96 49.33-10.72 16.11 4.66 26.87 15.44 31.57 33.61.62-2.78 1.07-3.88 1.08-4.99.24-22.01-15.77-42.25-37.33-47.89-32.14-8.41-63.63 10.58-82.8 33.38-15.13 17.99-22.42 39.27-24.92 62.38-4.01 37.05 3.11 71.86 24.03 102.71 26.87 39.63 66.98 57.38 113.03 62.82 43.62 5.16 84.19-6.69 122.76-25.84 45.73-22.7 91.8-44.25 141.78-56.2 34.25-8.19 66.11-2.48 95.36 16.4 16.83 10.86 33.47 22.36 48.61 35.41 14.34 12.36 28.16 25.9 35.02 44.67Z"/><path d="M441.91 300.06c-5.34 17.02-18.31 22.86-33.76 23.96-10.58.75-20.53-1.89-26.66-12.08-.55-.92-2.12-1.22-3.22-1.81-.59 1.33-1.97 2.88-1.66 3.94 2.68 9.25-.66 17.04-5.75 24.28-8.69 12.37-30.84 26.12-46.94 16.72-1.45-.84-4.65 1.31-8.04 2.4 15.34 12.6 18.35 23.88 12.61 42.73-7.01 23.02-20.05 33.58-44.83 35.82-.47 3.02-.97 6.2-1.55 9.96 14.6 1.31 22.45 10.24 26.81 22.43 2.22 6.22 3.84 13.04 3.83 19.59 0 18.62-3.54 35.91-22.67 45.23-1.17.57-2.19 2.96-2.04 4.38.29 2.71 1.47 5.32 2.47 8.59 12.99-5.96 24.5-4.43 34.81 5.14 9.83 9.14 15.88 20.47 18.52 33.34 3.44 16.77 1.39 32.44-13.51 44.1 3.46 3.91 6.33 7.16 9.33 10.55 2.07-2.9 3.29-4.98 4.85-6.74 10.94-12.37 24.38-11.58 38.3-6.81 29.95 10.28 42.21 36.8 28.67 62.5 6.39 2.14 12.69 4.25 19.45 6.51-.4-11.44 3.93-19.93 12.68-24.42 7.86-4.04 16.83-7.11 25.58-8.01 29.99-3.08 50.56 15.74 48.14 43.93 8.31-.73 16.44-1.45 24.94-2.2-7.3-17.18-6.68-24.93 5.42-38.3 14.37-15.89 33.23-22.07 54.36-21.01 9.65.49 19.76 2.12 26.53 9.33 5.02 5.35 7.54 13.04 11.41 20.11 5.92-2.73 13.27-6.13 21.17-9.78-18.21-12.82-16.95-25.71-12.1-37.93 6.69-16.86 26.05-32.83 47.01-33.95 12.45-.67 23.6 6.22 26.99 17.32 2.08 6.8 2.13 14.23 3.1 21.41 9.78-3.14 19.76-6.35 31.63-10.17-11.88-4.67-16.64-12.94-19.22-22.77-2.28-8.71 2.49-20.81 9.73-25.24 21.89-13.36 48.09-12.36 68.72 2.97 9.92 7.38 15.36 17.4 13.08 29.89-1.24 6.76-4.67 13.11-7.14 19.7 6.95 4.23 14.66 8.93 22.62 13.78.87-3.75 1.37-7.02 2.39-10.12 4.39-13.29 24.76-19.66 38.02-9.86 6.81 5.04 13.1 11.03 18.66 17.43 4.05 4.66 6.52 10.68 9.82 16.31 3.66-5.13 7.32-9.44 3.53-16.33-8.36-15.22-17.66-29.91-31.24-40.71-18.14-14.41-36.68-28.57-56.34-40.74-22.28-13.8-47.28-19.85-73.65-15.24-33.23 5.8-64.55 18.02-95.35 31.25-21.94 9.42-43 20.88-64.77 30.74-51.16 23.18-103.63 32.22-158.38 13.19-50.59-17.59-84.51-51.27-98.35-103.48-8.34-31.46-7.99-63.05 3.28-94 13.09-35.96 37.69-60.71 74.69-70.43 46.5-12.22 86.05 21.54 76.12 70.45-2.32 11.4-6.75 22.38-9.83 32.34 28.17-10.72 45.66-44.71 37.76-80.29-19.93-2.26-30.06-19.27-23.18-38.37.73-2.02-.93-4.91-1.71-8.39-16.55 16.12-49.63 4.47-48.24-21.56-2.02-.47-4.1-.95-6.93-1.6Z"/><path d="M575.85 708.22c21.43-1 37.61-7.32 49.36-22.7 8.46-11.07 4.84-23.74-8.14-29.1-21.57-8.91-50.48-1.81-65.49 16.27-9.19 11.07-8.68 27 7.98 31.91 6.12 1.8 12.47 2.8 16.29 3.63Zm201.71-135.35c-4.48 1.46-13.15 3.38-20.98 7.08-9.54 4.52-12.1 15.81-5.61 24.15 13.97 17.93 32.97 24.74 54.6 19.51 13.16-3.18 18-20.02 12.31-30.99-7.53-14.51-21.02-18.35-40.32-19.75Zm105.91 117.31c7.02-.2 13.06-1.83 16.21-9.23 1.67-3.92 4.54-7.32 6.34-11.2 1.04-2.24 1.9-5.19 1.34-7.45-3.21-13.03-8.85-24.95-20.05-32.94-7.11-5.08-14.94-10.24-24.39-5.02-7.91 4.36-10.01 12.27-9.45 20.08.94 13.21 5.05 25.72 13.02 36.63 4.17 5.71 9.66 9.13 16.98 9.14ZM287.02 573.36c1.87 21.05 8.03 35.8 23.22 45.32 11.03 6.92 20.59 3.28 24.92-8.83 6.73-18.83-4.12-47.46-21.54-56.88-7.32-3.96-14.35-3.58-19 3.18-4.09 5.95-5.99 13.42-7.6 17.21Zm191.37 142.92c10.08.33 18.81-2.77 26.47-9.33 6.79-5.83 7.99-12.74 3.06-20.21-11.87-18.02-47.27-22.45-63.25-7.92-6.89 6.27-8 14.3-2.41 21.83 8.98 12.1 22.27 14.65 36.12 15.63Zm200.5-58.66c21.26-.15 35.19-12.79 37.8-34.29 1.57-12.93-5.89-21.43-18.88-20.73-15.74.85-28.63 7.56-36.64 21.39-4.18 7.22-7.19 15.72-2.49 23.8 4.28 7.35 11.8 9.99 20.22 9.84Zm-312-26.69c-15.92.18-22.15 8.44-17.93 23.76 4.91 17.81 27.39 32.91 45.84 30.81 12.82-1.46 18.82-10.55 15.14-22.93-4.98-16.73-25.53-31.84-43.05-31.64Zm-61.31-134.67c-.87-15.48-2.23-25.61-9-34.17-7.16-9.05-17.17-8.9-24.02.43-10.73 14.64-10.66 40.59.16 55.48 6.8 9.36 18.52 9.97 24.22.12 4.65-8.03 6.95-17.41 8.64-21.86Zm18.08-113.8c-1.41-2.79-2.83-10.05-7.1-12.71-3.52-2.18-11.09-.17-15.71 2.22-12.52 6.49-22.62 29.52-20.09 43.28 2.17 11.84 11.01 15.74 21.02 9.18 13.88-9.09 19.97-22.54 21.88-41.98Zm32.66-69.74c-12.24 1.81-22.72 8.78-28.58 21.71-4.29 9.46 1.76 17.13 12.03 15.33 13.67-2.41 23.32-10.38 28.72-23.09 3.69-8.68-.9-14.56-12.17-13.95Zm50.85 4.85c6.91-2.82 14.53-4.61 20.57-8.72 8.21-5.59 6.45-14.25-2.79-17.98-8.2-3.31-16.38-2.43-24.27 1-8.34 3.63-13.17 9.94-12.09 15.05 1.09 5.14 9.09 9.15 18.58 10.65Zm62.03-17.59c-9.11-.35-14.33 4.29-11.61 10.33 3.97 8.84 17.43 14.97 26.64 12.12 5.63-1.74 7.44-5.95 4.38-11.04-4.36-7.24-10.88-11.12-19.41-11.42Zm54.61 55.41c-.7-8.84-3.29-15.1-9.53-19.27-5.5-3.67-10.27-1.36-10.23 5.07.03 7.31 2.79 13.7 8.89 17.95 1.83 1.27 5.2 1.75 7.2.95 1.9-.76 2.94-3.68 3.68-4.7Zm365.51 341.3c-4.4.34-7.27.55-10.84.83.97 3.72 1.7 6.5 2.76 10.57 2.94-4.15 5.07-7.14 8.08-11.39Z"/><path d="M878.92 803.99c-8.29-5.44-15.81-10.44-23.41-15.32-3.01-1.93-6.07-3.86-9.31-5.35-8.57-3.93-13.41-2.65-20.24 3.33-11.13 9.75-22.34 19.46-34.1 28.42-15.16 11.55-17.35 18.31-9.96 35.46 10.95 25.42 22.22 50.72 32.45 76.44 4.46 11.2 4.85 16.36-6.42 23.2-21.39 12.98-42.88 25.8-64.54 38.33-6.21 3.59-13.36 1.93-18.59-4.34-17-20.4-33.87-40.92-50.29-61.78-10.41-13.23-17.79-15.72-33.46-10.5-12.88 4.29-25.89 8.31-39.08 11.49-15.76 3.8-21.75 11.47-23.57 28.07-2.81 25.58-5.35 51.18-8.47 76.72-2.01 16.48-5.41 19.12-22.2 19.64-19.83.62-39.67 1.83-59.49 1.64-15.69-.15-21.96-.2-25.23-20.76-4.49-28.22-9.53-56.36-14.68-84.46-1.49-8.11-6.84-13.49-14.91-15.77-15.58-4.39-31.18-8.72-46.78-13.06-11.23-3.12-18.48-.65-25.23 8.95-10.94 15.58-21.68 31.31-32.61 46.9-6.68 9.53-13.48 18.98-20.39 28.35-5.86 7.95-11.78 9.15-20.36 4.42-21.19-11.7-42.39-23.39-63.54-35.15-12.57-6.99-13.82-11.78-8.68-24.89 7.92-20.18 15.16-40.62 22.8-60.9 3.1-8.22 5.68-16.8 9.99-24.36 5.82-10.21 2.17-18.06-4.45-25.28a861.442 861.442 0 0 0-32.31-33.36c-7.61-7.44-16.06-9.58-26.77-4.71-24.93 11.33-50.34 21.61-75.56 32.3-9.7 4.11-17.3 2.28-22.87-6.72-9.81-15.83-19.05-32.02-28.5-48.08-3.14-5.34-6.61-10.55-9.18-16.17-4.21-9.22-3.3-13.99 4.55-20.58 15.13-12.71 30.64-24.95 45.96-37.44 7.92-6.46 15.77-13.02 23.62-19.57 9.74-8.11 7.95-18.65 5.63-28.98-3.41-15.14-7.49-30.12-10.98-45.24-3.05-13.18-5.89-15.94-19.65-17.34-26.17-2.66-52.35-5.12-78.5-7.96-10.74-1.17-14.34-4.53-15.25-15.49-1.7-20.69-2.63-41.44-3.85-62.17-.24-4.02-.31-8.06-.48-12.09-.4-8.97 1.67-12.75 10.06-14.62 22.12-4.94 44.36-9.37 66.56-13.97 8.63-1.79 17.26-3.56 25.91-5.24 10.37-2.02 15.65-8.43 18.2-18.57 4.75-18.93 10.39-37.64 15.49-56.48 1.79-6.63.96-12.84-4.61-17.68-15.45-13.41-30.88-26.84-46.35-40.22-7.03-6.07-14.18-11.99-21.22-18.06-6.68-5.76-8.25-11.28-3.8-18.87 12.55-21.45 25.39-42.74 38.54-63.83 4.42-7.09 12.58-7.76 21.6-4.01 25.8 10.71 51.72 21.12 77.61 31.59 9.03 3.65 16.68 2.03 23.97-4.95 13.74-13.15 27.84-25.95 42.3-38.29 8.15-6.96 9.65-15.63 6.98-24.56-7.24-24.26-15.46-48.22-23.28-72.31-.66-2.05-1.34-4.11-1.77-6.21-3.92-19.1-3.28-19.99 14.65-27.89 19.17-8.44 38.18-17.23 57.27-25.86 14.34-6.49 18.24-5.25 27.05 8.21 14.27 21.79 28.59 43.56 42.96 65.28 5.66 8.56 9.88 10.23 20.06 7.82 18.15-4.29 36.29-8.61 54.36-13.22 7.64-1.95 13.32-6.77 15.1-14.7 5.63-25.07 10.98-50.21 16.4-75.34 1.06-4.9 1.6-9.94 2.96-14.75 2.79-9.89 6.7-13.4 16.76-13.08 24.05.76 48.1 1.85 72.11 3.45 11.75.78 15.53 4.51 16.99 16.33 2.02 16.3 3.02 32.72 4.66 49.07 1.31 12.96 3.11 25.87 4.37 38.83.98 10.1 8.08 14.31 16.26 16.92 14.69 4.68 29.59 8.66 44.39 12.99 13.39 3.92 19.26 1.44 29.41-10.72 14.93-17.87 30.34-35.34 45.53-53 4.35-5.06 8.77-10.06 12.97-15.24 5.53-6.81 12.67-8.11 20.01-3.46 18.59 11.78 37.24 23.47 55.76 35.36 4.41 2.83 8.48 6.2 12.56 9.52 5.01 4.07 6.67 9.11 3.57 15.15-6.29 12.25-12.81 24.38-18.88 36.74-8.69 17.72-17.3 35.49-25.45 53.46-3.24 7.15-1.33 14.16 4.2 19.76 12.18 12.35 24.68 24.38 36.7 36.89 4.71 4.9 10.01 6.65 16.16 5.03 13.12-3.46 26.17-7.2 39.13-11.2 17.97-5.54 35.76-11.64 53.76-17.09 8.63-2.62 14.09-.49 18.42 7.69 11.85 22.39 23.36 44.97 34.65 67.65 3.44 6.9 1.37 12.81-5.84 17.89-12.95 9.12-26.25 17.76-39.25 26.81-10.56 7.35-21.19 14.65-31.26 22.64-9.74 7.73-14.56 17.28-11.15 30.67 3.82 14.98 5.85 30.41 8.61 45.65 1.7 9.37 6.26 13.33 15.66 14.92 29.2 4.93 58.36 10.06 87.5 15.33 10 1.81 13.36 5.3 13.36 15.34 0 25.1-.68 50.21-.97 75.31-.17 15.01-6.15 16.06-20.96 18.65-2.28.4-4.65.3-6.97.45-8.09.5-14.08-.74-18.38-9.71-12.13-25.3-29.71-47.15-49.36-66.85-19.36-19.4-41.69-35.18-66.4-47.69-23.62-11.95-48.63-18.97-74.18-24.89-2.05-.48-4.09-4.1-4.84-6.65-12.57-42.43-32.46-81.03-61.58-114.38-44.7-51.2-101.86-80.66-167.75-95.03-119.22-26-297.95 38.16-341.21 227.35-10.35 45.28-8.97 90.24 2.07 135.16 13.46 54.75 40.66 101.46 81.2 140.57 18.04 17.4 38.09 32.14 60.2 43.65 124.82 64.98 255.47 41.31 351.24-47.78 22.98-21.38 40.31-47.5 54.17-75.67 3.55-7.21 7.99-8.72 14.87-6.54 23.29 7.39 41.86 20.49 53.27 42.83 8.5 16.66 12.91 34.57 18.39 52.28 5.93 19.15 8.21 38.19 7.35 59.47Z"/><path d="M923.97 630.89c-6.86-18.77-20.67-32.31-35.02-44.67-15.14-13.05-31.78-24.55-48.61-35.41-29.25-18.88-61.11-24.59-95.36-16.4-49.98 11.95-96.05 33.5-141.78 56.2-38.57 19.15-79.14 31-122.76 25.84-46.05-5.44-86.16-23.19-113.03-62.82-20.91-30.85-28.04-65.66-24.03-102.71 2.5-23.12 9.79-44.39 24.92-62.38 19.17-22.8 50.66-41.79 82.8-33.38 21.56 5.64 37.57 25.89 37.33 47.89-.01 1.11-.46 2.21-1.08 4.99-4.7-18.17-15.46-28.95-31.57-33.61-18.1-5.24-34.92-.81-49.33 10.72-35.44 28.39-41.37 68.09-24.86 108.43 6.92 16.9 16.36 31.75 30.6 43.46 16.62 13.67 36.22 20.05 56.87 23.92 29.82 5.59 58.66.87 86.42-10.05 20.66-8.12 40.5-18.3 61.04-26.75 27.58-11.35 55.1-23.08 83.37-32.44 21.66-7.18 44.27-12.03 66.81-15.8 12.45-2.08 25.67-.4 38.46.62 15.98 1.28 31.56 4.83 46.26 11.59 32.5 14.95 63.8 31.53 84.73 62.2 1.16 1.71 2.15 3.9 2.25 5.92 1.22 25.36-.57 50.22-12.8 73.24-.21.39-.71.62-1.63 1.39Z"/><path d="M441.91 300.06c2.83.66 4.91 1.14 6.93 1.6-1.39 26.03 31.69 37.69 48.24 21.56.78 3.49 2.44 6.37 1.71 8.39-6.88 19.1 3.25 36.11 23.18 38.37 7.89 35.58-9.59 69.57-37.76 80.29 3.08-9.96 7.51-20.94 9.83-32.34 9.94-48.9-29.62-82.66-76.12-70.45-37 9.72-61.61 34.47-74.69 70.43-11.26 30.95-11.62 62.54-3.28 94 13.84 52.21 47.76 85.89 98.35 103.48 54.75 19.03 107.22 9.99 158.38-13.19 21.76-9.86 42.83-21.32 64.77-30.74 30.8-13.23 62.12-25.45 95.35-31.25 26.36-4.6 51.36 1.44 73.65 15.24 19.66 12.18 38.2 26.33 56.34 40.74 13.58 10.79 22.88 25.49 31.24 40.71 3.79 6.89.13 11.2-3.53 16.33-3.3-5.63-5.77-11.65-9.82-16.31-5.56-6.4-11.84-12.4-18.66-17.43-13.26-9.8-33.62-3.43-38.02 9.86-1.02 3.1-1.52 6.37-2.39 10.12-7.96-4.85-15.67-9.55-22.62-13.78 2.46-6.58 5.9-12.94 7.14-19.7 2.29-12.49-3.15-22.52-13.08-29.89-20.63-15.33-46.83-16.34-68.72-2.97-7.25 4.42-12.01 16.53-9.73 25.24 2.57 9.83 7.34 18.1 19.22 22.77-11.88 3.82-21.85 7.03-31.63 10.17-.97-7.18-1.02-14.6-3.1-21.41-3.4-11.1-14.55-17.99-26.99-17.32-20.96 1.12-40.32 17.09-47.01 33.95-4.85 12.23-6.12 25.11 12.1 37.93-7.9 3.65-15.25 7.04-21.17 9.78-3.87-7.07-6.39-14.76-11.41-20.11-6.77-7.21-16.88-8.85-26.53-9.33-21.13-1.06-39.98 5.13-54.36 21.01-12.1 13.37-12.71 21.12-5.42 38.3-8.5.75-16.64 1.47-24.94 2.2 2.43-28.19-18.15-47.01-48.14-43.93-8.75.9-17.72 3.97-25.58 8.01-8.75 4.49-13.08 12.97-12.68 24.42-6.76-2.26-13.07-4.37-19.45-6.51 13.54-25.71 1.28-52.23-28.67-62.5-13.92-4.78-27.36-5.57-38.3 6.81-1.56 1.77-2.78 3.84-4.85 6.74-3-3.4-5.87-6.64-9.33-10.55 14.9-11.66 16.95-27.33 13.51-44.1-2.64-12.87-8.69-24.2-18.52-33.34-10.3-9.57-21.82-11.1-34.81-5.14-1-3.27-2.18-5.88-2.47-8.59-.15-1.41.87-3.81 2.04-4.38 19.13-9.33 22.66-26.61 22.67-45.23 0-6.55-1.61-13.37-3.83-19.59-4.36-12.19-12.21-21.12-26.81-22.43.59-3.76 1.08-6.94 1.55-9.96 24.78-2.23 37.82-12.79 44.83-35.82 5.74-18.86 2.73-30.14-12.61-42.73 3.4-1.09 6.59-3.24 8.04-2.4 16.1 9.4 38.25-4.35 46.94-16.72 5.09-7.25 8.43-15.03 5.75-24.28-.31-1.06 1.07-2.62 1.66-3.94 1.1.59 2.67.9 3.22 1.81 6.14 10.19 16.08 12.83 26.66 12.08 15.45-1.1 28.42-6.95 33.76-23.96Z"/><path d="M575.85 708.22c-3.82-.83-10.17-1.83-16.29-3.63-16.66-4.91-17.17-20.84-7.98-31.91 15.01-18.08 43.92-25.18 65.49-16.27 12.98 5.36 16.6 18.04 8.14 29.1-11.75 15.38-27.93 21.7-49.36 22.7Zm201.71-135.35c19.3 1.4 32.79 5.24 40.32 19.75 5.7 10.97.85 27.81-12.31 30.99-21.63 5.23-40.63-1.58-54.6-19.51-6.49-8.33-3.94-19.63 5.61-24.15 7.83-3.71 16.5-5.62 20.98-7.08Zm105.91 117.31c-7.32-.02-12.81-3.44-16.98-9.14-7.97-10.9-12.08-23.41-13.02-36.63-.55-7.81 1.55-15.72 9.45-20.08 9.45-5.21 17.28-.05 24.39 5.02 11.2 7.99 16.84 19.92 20.05 32.94.56 2.26-.3 5.21-1.34 7.45-1.8 3.88-4.67 7.28-6.34 11.2-3.15 7.4-9.2 9.04-16.21 9.23ZM287.02 573.36c1.6-3.79 3.5-11.26 7.6-17.21 4.65-6.76 11.67-7.14 19-3.18 17.43 9.42 28.27 38.05 21.54 56.88-4.33 12.11-13.88 15.75-24.92 8.83-15.19-9.52-21.36-24.28-23.22-45.32Zm191.37 142.92c-13.86-.98-27.15-3.53-36.12-15.63-5.59-7.53-4.48-15.56 2.41-21.83 15.98-14.54 51.37-10.11 63.25 7.92 4.92 7.47 3.73 14.38-3.06 20.21-7.66 6.56-16.39 9.66-26.47 9.33Zm200.5-58.66c-8.42.15-15.94-2.49-20.22-9.84-4.7-8.08-1.69-16.58 2.49-23.8 8.01-13.83 20.9-20.54 36.64-21.39 12.99-.7 20.45 7.81 18.88 20.73-2.61 21.5-16.54 34.14-37.8 34.29Zm-312-26.69c17.53-.19 38.08 14.91 43.05 31.64 3.68 12.38-2.32 21.47-15.14 22.93-18.45 2.1-40.93-13-45.84-30.81-4.23-15.33 2.01-23.59 17.93-23.76Zm-61.31-134.67c-1.69 4.45-4 13.83-8.64 21.86-5.7 9.85-17.42 9.24-24.22-.12-10.82-14.89-10.89-40.84-.16-55.48 6.84-9.34 16.85-9.49 24.02-.43 6.77 8.56 8.14 18.69 9 34.17Zm18.08-113.8c-1.91 19.43-8 32.88-21.88 41.98-10.02 6.56-18.85 2.66-21.02-9.18-2.53-13.77 7.57-36.79 20.09-43.28 4.61-2.39 12.19-4.4 15.71-2.22 4.28 2.65 5.7 9.91 7.1 12.71Zm32.66-69.74c11.27-.61 15.86 5.27 12.17 13.95-5.4 12.7-15.05 20.68-28.72 23.09-10.27 1.81-16.32-5.86-12.03-15.33 5.86-12.93 16.34-19.9 28.58-21.71Zm50.85 4.85c-9.49-1.49-17.5-5.51-18.58-10.65-1.08-5.11 3.76-11.41 12.09-15.05 7.88-3.44 16.06-4.31 24.27-1 9.25 3.73 11.01 12.39 2.79 17.98-6.04 4.11-13.65 5.9-20.57 8.72Zm62.03-17.6c8.53.3 15.05 4.18 19.4 11.42 3.06 5.09 1.24 9.3-4.38 11.04-9.21 2.85-22.66-3.27-26.64-12.12-2.72-6.05 2.5-10.69 11.62-10.34Zm54.61 55.42c-.74 1.03-1.78 3.94-3.68 4.7-2 .8-5.37.32-7.2-.95-6.09-4.25-8.85-10.64-8.89-17.95-.03-6.44 4.74-8.74 10.23-5.07 6.25 4.17 8.83 10.43 9.53 19.27Zm365.51 341.3c-3.01 4.25-5.14 7.25-8.08 11.39-1.07-4.07-1.79-6.85-2.76-10.57 3.57-.27 6.44-.49 10.84-.83Z"/></svg>