<?xml version="1.0" standalone="no"?>
<!DOCTYPE svg PUBLIC "-//W3C//DTD SVG 20010904//EN"
 "http://www.w3.org/TR/2001/REC-SVG-20010904/DTD/svg10.dtd">
<svg version="1.0" xmlns="http://www.w3.org/2000/svg"
 width="700.000000pt" height="700.000000pt" viewBox="0 0 700.000000 700.000000"
 preserveAspectRatio="xMidYMid meet">
<metadata>
Created by potrace 1.14, written by Peter Selinger 2001-2017
</metadata>
<g transform="translate(0.000000,700.000000) scale(0.100000,-0.100000)"
fill="#000000" stroke="none">
<path d="M3348 6971 c-16 -18 -31 -54 -38 -88 -31 -153 -112 -524 -125 -570
-10 -35 -24 -58 -43 -71 -15 -11 -111 -40 -214 -65 -232 -58 -260 -62 -287
-47 -13 6 -101 130 -198 276 -96 145 -184 269 -196 276 -12 6 -33 11 -48 10
-21 0 -293 -118 -497 -214 -89 -42 -91 -79 -13 -315 142 -433 142 -432 116
-484 -10 -19 -27 -43 -40 -54 -12 -11 -44 -40 -71 -64 -27 -24 -89 -80 -137
-125 -108 -99 -140 -118 -187 -111 -20 3 -157 55 -305 116 -149 60 -290 113
-315 116 -39 4 -48 2 -70 -20 -14 -14 -85 -124 -158 -246 -171 -282 -170 -258
-7 -399 156 -136 236 -205 249 -217 6 -6 37 -32 69 -59 97 -82 97 -84 32 -317
-68 -247 -74 -265 -95 -292 -27 -34 -40 -38 -354 -102 -327 -67 -372 -79 -397
-101 -18 -16 -19 -28 -14 -158 3 -78 8 -163 10 -191 2 -27 7 -95 10 -150 10
-155 22 -167 185 -181 47 -4 87 -8 90 -9 3 -1 43 -5 90 -9 47 -4 97 -10 113
-11 15 -2 62 -7 105 -10 91 -8 135 -24 155 -57 20 -31 98 -357 104 -433 4 -51
1 -65 -19 -92 -13 -18 -104 -98 -203 -178 -99 -81 -200 -163 -225 -183 -117
-95 -125 -113 -90 -190 39 -87 265 -455 289 -470 44 -30 90 -17 370 103 150
65 290 119 310 122 23 3 49 -1 67 -10 38 -19 277 -265 298 -306 19 -36 14 -85
-15 -141 -16 -30 -59 -145 -201 -527 -33 -90 -32 -119 5 -153 17 -16 350 -205
475 -269 85 -44 85 -45 421 437 93 134 124 162 177 162 37 0 383 -98 411 -116
46 -29 57 -74 124 -479 11 -66 22 -133 25 -150 16 -96 42 -139 91 -151 41 -11
524 4 561 17 49 17 62 50 77 199 3 30 8 71 10 90 3 19 7 60 10 90 3 30 7 71
10 90 2 19 7 62 10 95 16 171 46 220 152 249 32 9 117 35 189 56 154 47 197
50 242 16 18 -13 105 -113 193 -222 195 -242 231 -281 269 -289 35 -8 22 -14
303 153 268 159 268 159 236 254 -11 35 -67 172 -124 305 -58 133 -109 262
-116 286 -17 68 5 103 120 195 53 42 98 79 101 82 31 34 131 110 152 115 33 8
102 -22 208 -93 41 -28 79 -48 84 -45 10 7 1 172 -15 258 -12 65 -76 284 -109
374 -54 144 -139 256 -244 320 -58 34 -171 79 -193 75 -7 -1 -19 -2 -26 -3 -7
0 -37 -45 -67 -98 -166 -304 -324 -476 -618 -673 -196 -131 -404 -227 -612
-281 -97 -25 -147 -34 -305 -54 -46 -6 -306 -6 -350 0 -16 2 -55 6 -85 10
-167 20 -394 86 -580 169 -215 96 -379 207 -539 366 -176 173 -292 336 -391
544 -89 187 -143 364 -177 577 -20 129 -22 409 -4 534 57 395 219 756 472
1050 77 90 89 102 209 206 144 125 404 274 600 344 330 117 687 147 1001 84
740 -147 1284 -614 1519 -1304 22 -66 44 -123 48 -127 4 -4 64 -23 132 -42
248 -68 390 -130 560 -244 238 -159 417 -350 561 -600 30 -54 66 -103 80 -110
30 -17 151 -10 201 11 20 9 42 25 48 37 13 23 25 549 15 608 -7 39 -37 60
-101 71 -225 38 -593 105 -611 112 -12 4 -29 20 -39 34 -15 23 -67 273 -81
386 -13 107 21 143 342 363 216 149 255 182 255 219 0 11 -57 132 -127 269
-135 263 -156 291 -212 282 -14 -3 -125 -36 -246 -74 -328 -103 -409 -124
-457 -121 -24 1 -307 287 -324 326 -21 51 -7 87 203 504 57 112 103 214 103
226 0 37 -57 82 -293 233 -222 141 -253 155 -296 133 -10 -6 -51 -49 -92 -97
-41 -48 -81 -94 -90 -103 -8 -9 -69 -79 -134 -156 -65 -77 -134 -154 -152
-172 -56 -51 -80 -50 -278 7 -96 28 -190 58 -209 66 -54 26 -68 59 -81 194 -3
36 -8 76 -10 90 -2 14 -7 54 -10 90 -3 36 -8 88 -10 115 -3 28 -7 75 -10 105
-14 145 -25 172 -77 188 -37 12 -152 20 -409 28 l-175 6 -26 -31z"/>
<path d="M2698 5063 c-45 -13 -108 -69 -108 -96 0 -25 31 -56 74 -72 50 -19
83 -13 169 33 48 26 64 53 53 89 -15 46 -110 69 -188 46z"/>
<path d="M2941 4978 c-27 -72 -105 -125 -199 -134 -75 -8 -126 8 -175 55 -43
41 -59 33 -50 -24 10 -64 -59 -172 -141 -220 -64 -37 -128 -50 -180 -35 -24 7
-53 9 -65 5 -20 -6 -19 -9 19 -52 63 -72 73 -146 35 -258 -25 -74 -41 -100
-91 -144 -44 -38 -104 -64 -174 -74 -17 -3 -26 -13 -32 -32 -8 -32 -3 -45 18
-45 25 0 91 -38 113 -66 33 -42 63 -134 65 -204 5 -130 -38 -236 -116 -287
-43 -29 -51 -44 -38 -79 9 -22 14 -25 38 -19 69 18 93 17 147 -10 178 -87 249
-390 121 -518 -33 -33 -33 -37 3 -71 l30 -28 32 36 c43 49 80 67 142 68 118 3
259 -78 309 -176 29 -57 35 -141 13 -205 -9 -29 -15 -54 -14 -55 8 -6 103 -36
114 -36 7 0 15 18 18 40 10 77 52 115 166 150 164 51 319 0 377 -124 15 -32
24 -70 24 -100 l0 -49 82 7 c45 4 83 8 85 10 2 1 -4 24 -13 50 -10 28 -14 63
-11 87 11 84 127 194 250 235 36 13 83 18 152 18 86 0 107 -3 145 -23 52 -27
61 -37 100 -113 l30 -57 67 30 c37 17 69 32 71 33 1 2 -15 21 -37 42 -23 23
-44 56 -50 80 -42 156 152 362 335 357 107 -2 167 -65 180 -186 4 -37 9 -67
11 -67 3 0 50 14 105 31 l100 31 -28 24 c-16 13 -32 23 -35 24 -3 0 -18 22
-32 49 -31 57 -35 116 -11 167 21 44 52 68 122 94 169 64 380 0 451 -135 27
-52 27 -100 -4 -186 -22 -64 -23 -70 -7 -76 9 -4 40 -22 69 -40 29 -18 56 -33
61 -33 6 0 13 16 16 35 20 105 157 156 252 95 50 -33 141 -130 166 -176 25
-48 36 -50 56 -13 17 32 10 56 -44 144 -61 100 -121 165 -246 262 -232 182
-396 276 -533 307 -224 50 -555 -42 -1118 -311 -296 -141 -416 -187 -588 -227
-121 -27 -384 -29 -509 -3 -343 72 -606 259 -740 527 -217 433 -114 985 225
1204 296 191 620 126 710 -143 32 -97 25 -200 -24 -352 -16 -49 -25 -89 -19
-89 27 0 123 76 162 130 71 97 109 250 89 360 -8 40 -12 45 -42 51 -51 11
-104 59 -122 112 -12 38 -14 59 -6 108 13 76 3 88 -47 58 -53 -31 -149 -24
-200 15 -47 36 -67 66 -73 116 -3 22 -9 40 -13 40 -5 0 -15 3 -24 6 -11 4 -19
-2 -25 -18z"/>
<path d="M3073 4985 c-32 -23 -29 -51 10 -90 76 -76 204 -63 183 18 -16 63
-141 110 -193 72z"/>
<path d="M2350 4910 c-108 -32 -202 -156 -162 -216 35 -52 146 -29 220 47 35
36 62 87 62 117 0 22 -24 52 -43 53 -7 0 -21 2 -32 4 -11 1 -31 -1 -45 -5z"/>
<path d="M3369 4747 c-32 -71 67 -191 115 -138 15 16 16 25 6 62 -22 80 -98
127 -121 76z"/>
<path d="M2810 4635 c-200 -48 -381 -209 -463 -411 -13 -33 -28 -78 -32 -100
-5 -21 -10 -46 -12 -54 -36 -157 -18 -398 43 -559 126 -333 398 -545 794 -616
77 -14 325 -14 403 0 198 36 285 68 642 240 310 149 551 241 780 296 126 31
290 31 398 1 113 -32 187 -69 317 -156 243 -165 388 -300 452 -421 34 -66 35
-66 49 -43 52 82 83 233 83 405 l-1 92 -41 55 c-103 136 -255 247 -486 356
-168 80 -318 112 -521 111 -136 -1 -349 -45 -564 -118 -160 -53 -487 -184
-696 -278 -350 -157 -459 -188 -660 -187 -343 1 -606 152 -725 415 -68 151
-91 290 -70 417 38 225 246 432 435 432 143 0 243 -60 300 -182 l26 -55 -4 65
c-8 127 -97 242 -221 284 -66 22 -159 27 -226 11z"/>
<path d="M2011 4517 c-52 -27 -94 -82 -121 -159 -24 -70 -25 -118 -4 -161 20
-39 31 -47 67 -47 112 0 242 217 198 333 -23 61 -69 72 -140 34z"/>
<path d="M1885 3961 c-66 -19 -112 -100 -118 -207 -9 -139 59 -259 146 -256
49 1 81 45 117 155 25 78 -4 217 -56 271 -35 36 -58 46 -89 37z"/>
<path d="M1985 3308 c-14 -13 -36 -49 -49 -81 -22 -56 -23 -61 -9 -125 17 -85
44 -140 89 -185 127 -127 244 -63 232 127 -8 112 -64 214 -148 265 -45 27 -82
27 -115 -1z"/>
<path d="M5112 3158 c-89 -30 -122 -63 -122 -123 0 -43 4 -50 58 -104 77 -78
147 -105 252 -98 85 5 122 19 146 55 108 165 -114 345 -334 270z"/>
<path d="M4580 2971 c-104 -32 -200 -142 -200 -228 0 -142 212 -180 332 -59
89 89 96 254 12 286 -29 12 -108 12 -144 1z"/>
<path d="M5761 2837 c-13 -6 -34 -25 -45 -40 -56 -75 9 -308 105 -379 33 -25
108 -27 143 -5 14 9 41 46 61 81 34 62 36 67 25 108 -45 166 -192 285 -289
235z"/>
<path d="M2363 2771 c-37 -23 -48 -55 -39 -113 9 -55 29 -90 79 -139 102 -102
271 -124 323 -43 52 78 -24 219 -152 284 -68 34 -166 39 -211 11z"/>
<path d="M3885 2636 c-136 -34 -245 -133 -245 -222 0 -34 26 -81 53 -96 31
-16 147 -47 166 -43 9 1 39 6 66 9 128 17 266 122 278 211 5 37 -16 84 -49
108 -56 42 -177 57 -269 33z"/>
<path d="M3047 2518 c-21 -6 -57 -28 -79 -49 -39 -36 -40 -41 -35 -85 10 -94
112 -157 257 -158 96 -1 147 18 194 74 31 37 33 73 7 116 -56 92 -211 137
-344 102z"/>
<path d="M5892 2352 c-29 -3 -32 -6 -26 -30 11 -44 20 -46 44 -7 12 20 21 37
19 38 -2 1 -19 1 -37 -1z"/>
</g>
</svg>
