<svg xmlns="http://www.w3.org/2000/svg" width="344" height="48" fill="none"><path fill="currentColor" d="M87.3 22c-.9.1-1.7.1-2.6.2v.8h2.6zm170.2 8.5q0-.15 0 0M80.7 8.4h1.9v-.8c-.6 0-1.3.1-1.9.1-.1.2 0 .4 0 .7m4.6 21.5c.6.4.9.8 1.2.8.3-.1.5-.6.6-.9 0-.1-.5-.6-.7-.6-.3 0-.6.3-1.1.7m6.9-18.3h-1.6c0 .3.1.9.1.9.5 0 1.1-.1 1.6-.1-.1-.3-.1-.5-.1-.8m173 18.2c.5-.8 1-1.5 1.4-2.3-4.7 2.7-9.7.7-14.1 1.1-.3-.9-.5-1.6-.7-2.3-.3.2-.5.4-.8.6 0 2.4-1.9 1.1-3 1.3 1-.4 2-.9 3-1.3-1.4 0-2.8-.1-4.1.2-1.6.3-3.1 1-4.6 1.4.3-.5.6-1.1.9-1.7H237v.3c1.8.5 3.5.9 5.3 1.4-3.6-.2-7.2-.4-10.9-.6v.1h-6.6c-.1-.6-.2-1.1-.2-1.7-.5.1-.9.2-1.4.4-1.5.4-2.9 1.1-4.4 1.2-1.9.2-3.9 0-5.8-.2-1.3-.1-1.9.2-1.7 1.5.9.1 1.9.1 2.8.2l-.3.6c.7.3 1.5 1.1 2 .9 1-.4 1.7-1.3 2.8-2.2.2 1.1.4 1.9.5 2.8 1.4-.9 2.6-1.6 3.9-2.4 0 1 0 1.8.1 1.8.7.1 1.8.3 2 0 1.2-1.7 2.6-1.8 4.3-1.1l.1.1c2.8-.1 5.6-.2 8.4-.4-.7 2.6.3 3.7 3.2 3.5-.9-.6-1.4-.9-2-1.3 1.1-2 1.1-2 7.7-1.7-.4.7-.8 1.3-1.2 2 2.3-.2 4.6-.3 6.9-.5v-.9h-4c.6-.5 1.2-.6 1.7-.6 2.4.1 4.7.3 7.1.5-.9.2-1.8.4-2.7.7 1.2.4 3.1 2.6 2.8-.7h.1v-.1c2.5-.2 5.1-.4 7.7-.6M91.3 23c0-.3-.1-.6-.1-.9-.5.1-1 .2-1.5.4 0 .2.1.5.2.7.4-.1.9-.2 1.4-.2"/><path fill="currentColor" d="M251.8 26.2q0 .15 0 0 .15.15 0 0m-22.6.9c-.1-.3-.4-.7-.7-.9-.1-.1-.7.4-.7.5 0 .3.3.6.6 1.2.4-.3.9-.6.8-.8m.2 2.8c-.7.2-1.5.5-2.7.8 1.9.8 3.2 1.7 2.7-.8M84.2 2.4c-.5-.1-.9-.3-1.4-.4-.1 0-.2.4-.3.6.5.2.9.4 1.4.6.1-.2.2-.5.3-.8M266.6 38c-.1-.1-.1 0 0 0q-.15 0 0 0 0-.15 0 0m-21.5-4.4c.1-.5.3-1 .4-1.5-.4.3-.8.7-1.3 1 .3.2.6.3.9.5m.4-1.7v.2zl.1.1v-.1c0 .1 0 .1-.1 0m-14-4c0 .1-.1.1 0 0m20.3-1.7c2-.6 4-1.1 6-1.7-.1-.3-.2-.6-.2-.9-3.1-.1-6.2-.8-9.2 2.2 1.3.2 2.4.4 3.4.4m-20.3 1.7c1-.2 1.9-.4 2.9-.6-1.4-.8-2.8-1.7-2.9.6M88 1.9c-.1 0-.6.4-.6.7s.3.6.5 1.2c.4-.5.9-.9.9-1.1-.1-.3-.5-.6-.8-.8m193.7 30.7q0 .15 0 0m-3.2-1.6c-.3 0-.6.3-1.5.9 2 .3 3.4.5 4.7.7h.1-.1c1-.1 1.9-.2 2.6-.3.2.8.5 1.6.7 2.4 1.3-.8 2.5-1.6 3.7-2.3.4.7.8 1.5 1.1 2.2.5-.6 1-1.1 2-2.1.5.4 1.5 1.1 2.7 2 1.3-2.4 2.7-1.9 3.8.1 1.3-.7 2.5-1.2 3.5-2 .3-.2.2-1 .3-1.5h-14.4c-3.1 0-6.2-.1-9.2-.1M101.2 7.7h-6.7v.7c2.2.2 4.4.3 6.7.5zM302.1 31q0-.15 0 0M94.5 22.6c.1.4.4.7.8 1.2.3-.4.7-.7.7-.9-.1-.3-.4-.7-.7-.9-.2 0-.8.5-.8.6"/><path fill="currentColor" d="M285 34.8v-.1s-.1 0-.1.1zM120.1 0H119c.4 0 .8.1 1.1 0m145.3 39.6c.8 1.9-.1 2.6-1.7 3 .7.2 1.5.6 2.2.6.4 0 1.2-.7 1.2-1-.1-1.4-.4-2.7-.6-4.1-.4.5-1.2 1.2-1.1 1.5m38.5-10.2c.7-.1 1.4-.2 2.3-.3-1.8-1.7-1.9-1.7-2.3.3m-24.8-5.5v-.2l-.1-.1c0 .1.1.2.1.3m24.8 5.5h-.1z"/><path fill="currentColor" d="M281.7 35.3c-1.3 1.6-2.7 2.1-4.3.5q-2.55 1.8-5.1 0c.9-.6 3.7 2.1 3-1.6H271h4.5-.1c1.2-.1 2.4-.2 3.9-.3-.7.8-1.2 1.3-1.7 1.9 1.3-.2 2.7-.3 4.1-.5v-2.7h-12v-.3c1-.1 2.1-.4 3-.2 1.7.4 3-.1 4.3-1.3.5-.5 1.4-.6 2.2-.6 2.7-.1 5.5-.2 8.2-.2-4.8-1-9.5-1.9-13.3.5-1.3-.8-2.1-1.3-3.4-2.1 0 0 0-.6-.1-1.5-1.9 1.1-3.6 2-5.3 3 1.6.2 3.3.4 4.7.6-.8.9-1.7 2-2.7 3.2 1.7.3 2.7.5 3.7.7-.6.2-1.3.5-1.9.7 0 .2.1.4.1.6.8.1 1.7.3 2.5.4-1.9.1-4-.3-5 1.9 1.7-.1 3.5-.3 5.2-.3 4.6.1 9.2.5 13.7.4 1 0 1.9-1.5 2.9-2.4-.9-.2-1.7-.4-2.6-.6l-.9-.3c-1.1.2-2.2.4-3.3.5M99.9 33.7c.2.4.5.6.8.9.2-.2.6-.5.6-.7-.1-.4-.4-.6-.8-1.2-.3.4-.7.8-.6 1m-11.2-8.6c.2.1.5-.2 1-.5-.5-.4-.8-.8-1.1-.9-.2 0-.5.4-.7.6.3.3.5.6.8.8m4.4.1c.2-.2.5-.5.5-.7s-.3-.5-.6-1c-.3.4-.7.7-.7.9.2.4.6.6.8.8m7.9-2c0-.3 0-.6.1-.9h-1.8v.9zm.6 18.5c-.1-.4-.2-1.1-.3-1.1-.7.1-1.4.2-2.1.4 0 .3.1.6.2.9.7 0 1.5-.1 2.2-.2m-.8 4.1c.2 0 .6-.5 1.1-.9-.6-.4-1-.7-1.4-.7-.2 0-.8.7-.7.8.2.2.6.6 1 .8m155.9-30.6 2.1.3c.1-.2.1-.4.2-.6-.5-.4-1-.8-1.9-1.4h2.3c2.9 1.8 2.6-1.8 4.1-2.7-.9-.1-1.7-.2-2.7-.4.4-.4.8-.7 1.1-1-1.1 0-3-.2-3 .1-.4 1.8-1.8 1.2-2.8 1.2-3.2.1-6.3 0-9.4 0 1.3.6 2.6 1.1 4.1 1.8.1.3.2 1.2.4 2 .5-.4 1.1-.9 1.7-1.4v2.3c.9-.1 1.8-.2 2.7-.4.4.1.8.1 1.1.2q0-.15 0 0m3.8-3.5c-.3.4-.6 1.1-1 1.8-.4-.3-.8-.6-1.7-1.3 1.4-.3 2.3-.5 2.7-.5m-4.8 3.3c-.9-.9-1.8-1.9-2.7-2.8.6-.1 1.6-.3 2.7-.6z"/><path fill="currentColor" d="M256.7 15.2c-.6.5-1.1 1-1.7 1.5.3.5.6 1 .9 1.4 1.7-.6 1.7-1.6.8-2.9m-13.2 4q0-.15 0 0M64.4 16.6c-.9 0-1.9-.1-2.8-.1v.9c1-.2 1.9-.3 2.9-.4 0-.3 0-.4-.1-.4m13 24.4c.2.3.5.6.9.7.1 0 .4-.4.7-.9-.5-.3-.8-.5-1.2-.5-.1-.1-.5.6-.4.7m211.3-20.8 3.9-2.7c-.1-.2-.2-.4-.2-.6h-10.1c-.1.2-.1.4-.2.6q1.95.15 3.6.3c-1.3 1.1-2.5 2-3.7 3.1-.1.1.1.6.2.9 2.6-.2 5.2-.4 8.4-.7-1-.4-1.4-.6-1.9-.9m-3.5 0c1.3-1 2.4-1.9 4-3-.2 1.4-.4 2.2-.5 3z"/><path fill="currentColor" d="M243.6 22.3c.8.1 1.6.4 1.9.2 2.3-2.1 5.2-1.5 7.8-1.6 1.9 0 4-.4 5.1 1.2 4.3-2.3 9 0 13.2-1.9-1.1-.1-2.1-.2-3.1-.3.1-.8.2-1.7.4-2.5-3 3.9-7 2.5-10.6 2.5v.1c-1.1-.1-2.3-.3-4.3-.6.9-.5 1.5-.9 2.1-1.2-.6-.2-1.2-.4-1.9-.6-.8 1.1-1.7 1.8-2.8 2.2-2.1.7-4.5-.9-6.4.8-.5.5-.8 1-1.4 1.7"/><path fill="currentColor" d="M263.8 18.5c-.1-.2-.2-.3-.3-.5h-5.1c-.1.6-.1 1.2-.2 1.9 1.4-.3 2.9-.6 4.3-.9.4-.1.8-.4 1.3-.5m-7.8-.4q0 .15 0 0m-14.4-8c-.7.1-1.5.1-2.3.2.2.9.7 1.3 1.3 1.3 1 .1 2-.2 2.9.1 1.4.5 2.1-.1 2.7-1.2-1.5-.1-3.1-.2-4.6-.4m1-1.4c-.6 0-1.3.1-2.4.2.8.6 1.1.9 1.4 1.2.4-.3.8-.6 1.1-.8 0-.2-.1-.4-.1-.6m4.1 2c.5-.3 1-.6 1.5-.8-.2-.2-.3-.5-.5-.7-.4-.1-.9-.3-1.4-.4v1.9c.1-.1.2-.1.4 0q-.15-.15 0 0m-181-3.3-1.8-.3c0 .3-.1.6-.1.9.6 0 1.3-.1 1.9-.1zm-3.1 28.4c.3-.2.6-.4.8-.7.1-.1-.3-.5-.9-1.3-.2.6-.5.9-.5 1.2.1.3.4.5.6.8M262.1 9.3q0 .15 0 0M66 44.6c0-.3-.1-.5-.1-.8-.6 0-1.1.1-1.7.1.1.3.2.9.2.9.6 0 1.1-.1 1.6-.2m-6.3-22.8h-5v.5h5zM250.8.9s.1 0 .1-.1h-.1c.1 0 0 .1 0 .1m-168 25.9c0-.3.1-.7.1-1h-1.7s-.1.6 0 .7c.5.1 1 .2 1.6.3M250.5 3l.3-2.1c-.6.4-1.2.8-1.9 1.2.7.4 1.1.7 1.6.9M84.4 33.3c-.7-.2-1.4-.3-2.1-.5v.7h2.2c-.1-.1-.1-.2-.1-.2M250.5 3.1h.1zm53.6 37.3c1 0 2-.1 3 0 .9.1 1.7.5 2.6.8h-.1.5c.1-.7.3-1.4.4-2.1-2.2.2-4.3.4-6.5.6.1.2.1.4.1.7m-56-36.3c1 .5 1.7.1 2.4-1H248c0 .3 0 .7.1 1m2.8-3.3c-.4-.3-.9-.5-1.3-.8h-2s0 .1-.1.1c1.1.3 2.2.5 3.4.7M310.5 39q.15 0 0 0c.1 0 .1 0 .1-.1zm33.5 8c-.6-.1-1.1.2-1 1h1zm-98-33c-1.8.1-3 .2-4.2.3 1.2-.1 2.5 2.5 4.2-.3m3.8-1.3h-4.2v.6h4.2zM80.6 27.6c-.6-.1-1.2-.1-1.7-.2v.8h1.7zm160.6-9.5c-.1-.2-.2-.5-.3-.8-.6.2-1.1.4-1.7.5l.3.9c.5-.2 1.1-.4 1.7-.6M230.1 22c1.3.1 2.4.2 3.5.3-.6.4-1.2.9-1.9 1.3 3.2.9 6.1 1.6 9.1 2.4.1-.4.2-.7.3-1q-1.05-.3-2.4-.6c0-.8.1-1.8-1.8-1.2-.9.3-2.1-.5-3.2-.9h-.1c.8-1.6 1.6-2.1 3.6-1.6 2.4.5 5 .1 7.5 0-.4-.5-.8-.9-1.2-1.4-1.4.2-2.8.6-4.1.4-3.3-.5-6.4-.5-9.3 2.3m15.5-5c.8.1 1.5.2 2.3.3 0-.4.1-.8.1-1.2l-2.4.3zM233 1.4c-.5-.1-1.1-.2-1.6-.3 0 .3-.1.9 0 .9.5.1 1 .1 1.5.2 0-.2.1-.5.1-.8m-3 .2c-1.2-.4-2.1-.7-3.2-1.1.5 2 .5 2 3.2 1.1m1 4.2c.6 0 1.2.1 1.8.1v-1c-.6.1-1.2.1-1.8.2.1.1.1.3 0 .7m20.2 12.3c-.6-.1-1.3-.2-1.9-.4 0 .3-.1.6-.1.8.7 0 1.3.1 2 .1-.1-.1 0-.3 0-.5M235.6 3.8v-.9c-2.3 0-4.7-.1-7 .1-.6 0-1.2 1-1.6 1.7-.2.3.2.9.3 1.3.4-.2 1.1-.3 1.2-.6.6-2 2.1-1.8 3.7-1.7 1.1.2 2.3.1 3.4.1m26.3 30.7c-.8 0-1.5.1-2.3.1v.6c.7.2 1.4.3 2.1.4 0-.3.1-.7.2-1.1m39.6.2c1.1-.1 2.2-.2 4-.3-2.8-1.4-3.8-1.3-4 .3"/><path fill="currentColor" d="M341.5 33.8c.1-.2.1-.4.2-.5h2.4v-1.2h-3.8c1.2-.7 2.4-1.5 3.8-2.3v-1.2c-.2 0-.4 0-.6.1-1.5.3-2.9 1-4.3 1.5-.1-.4 0-1.2-.4-1.5-1.1-.8-7.9.8-9 1.8-1 .9-2.2 1.7-3.3 2.6.2.1.5.4.9.7l.1.1h-2.6c.5-2.2-.8-2.4-3.3-1.3 1.3-1.6 2.1-2.5 3.3-4-1.3-.1-2.1-.2-2.9-.2v-.5h4.6c0-.4 0-.7.1-1h-8.2c1-.8 1.5-1.4 1.9-1.3 4.8.2 9.6.5 14.4.8.1 0 .2.2.3.4-1.4 0-2.8-.1-4.2 0-.9.1-1.8.7-2.7 1 2.5.2 5.1.4 7.6.5 2.7 0 5.5 0 8.3-.1v-3.3h-1.2.1c-.7-.1-1.4-.1-2.1-.2v-1.8c1.1-.1 2.2-.2 3.2-.3v-1h-22.3c-.1-.2-.1-.5-.2-.7.9-.8 1.7-1.6 3-2.9h-7.1c0 .2 0 .3-.1.5h4.8c-2.2 1.1-3.9 1.9-5.7 2.8.1-.5.3-1.1.4-1.7-.7-.2-1.3-.3-2-.5.9-2.5 2.4-2.4 4.7-2.1 3.6.4 7.4-.1 10.4-2.8.7-.6 1.7-.8 2.9-.7-.4.5-.9 1-1.4 1.5 1.3.4 2.3.7 3.3 1h-6.5v.8c1.7.1 3.4.2 5.9.3-1.8.7-2.9 1.1-4 1.6 2.9.2 5.8.3 8.6.5.4 0 .8.2 1.2.3h-.1c.1-.3.2-.6.2-.9-1.5-.2-3-.4-4.6-.6 0-.1-.1-.2-.1-.4h7.5c-.4.4-.8.9-1.3 1.3.7.1 1.8.4 2 .1.1-.1.1-.2.2-.3v-3.2c-.5.3-1 .6-1.5.6-2.5.1-4.9-.1-7.4-.1 3-.2 6-.5 8.9-.7v-.1c-2.9-.4-5.8-.7-8.8-1.1.3-.2.6-.6.9-.6 2.6 0 5.3.1 7.9.2v-1.2H342l.1-.1c-2.3-.2-4.6-.4-6.9-.5v.1-.1h-.1v.1h-11.6v-.3c1.5-.1 3-.2 4.5-.4 0-.2-.1-.4-.1-.6-1.4-.3-2.9-.6-4.3-.8v.1l-.1-.1h-.1l.1.1-1.8.3c-.6-1.8-3.8-2.6-6.8-1.7-.1 0-.1.5-.1.9h2.1V12c1-.3 1.9-.6 3.1-1-1.4 1.7-2.6 3.1-3.9 4.5-.1.1-.6-.2-.9-.2l.1.1c-2.3 1.2-3.8 2.6-1.3 5.3-.9.3-1.7.4-2.5.7 0-.8.1-1.3.1-1.8H309c-.1.2-.1.5-.2.7.4.1.9.2 1.3.2-.1.2-.3.4-.4.6h-10c-.4.5-.7 1-1.1 1.5-1-.6-1.9-1.1-2.9-1.7q-.15.6-.3.9c1.2.3 2.2.6 3.2.8h-10.1v1.8c1.2-.4 2.4-.8 3.5-1.2-.6 1.4-1 2.2-1.4 3.2-1-.1-2-.2-3.1-.4.3-.4.6-.9.9-1.4l-4.8 1.6c1.1-3-1-1.7-2.2-1.7.2-.9.4-1.5.6-2.2-1.6-.4-3.1-.5-3.1 1.8.5.4 1 .8 1.4 1.2 0 .2-.1.5-.1.7h-8.8v1.2h16.8v.6c-.9.2-1.8.4-2.8.6 0 .2.1.5.1.7h3.4c-.7.6-1.1 1-1.5 1.3 1.1.4 2.5 2.2 2.8-.8 0-.2 1.3-.4 2.1-1.1-.7-.1-1.4-.3-2.1-.4v-.6h6.4c2.6 0 5.2-.1 7.8-.2-1.1-.3-2.1-.6-3.1-.9-.3-.5-.5-1.5-.9-1.6-.7-.2-1.6-.2-1.8 1.3-.1.8-1.6.8-3.1.4 2-3.5 5.1-2.2 8.3-2.5-1-.7-1.6-1-2.1-1.4l.3-.6c1.7.9 3.3 1.7 5 2.6.3-.4.6-.7.9-1.1-.7-.3-1.3-.5-2.5-1 4.5.2 8.3.4 12.1.6.1.1.1.2.2.2 3-.2 6-.5 8.8-.8v.9h-7.2c0 .4 0 .8.1 1.1 6.4-1.3 13.1 1.5 19.3-1.3.7.6 1.4 1.1 2.1 1.8-1.8.2-3.5.6-5.3.6-5.5-.2-11-.6-16.5-.9-.8 0-1.5.1-2.6.2.5-.6.9-1.2 1.3-1.7-.1-.1-.1-.2-.2-.2-.7.2-1.5.5-2.2.6-1.4.3-2.7.7-4 1 .4-.4.7-.6.7-.8-.1-.3-.4-.6-.7-.8-.1-.1-.7.3-.7.5 0 .3.3.7.6 1.1-.5.1-.9.2-1.4.2-2.1.2-4.2 0-6.3 0v.9h7.3v.4c-1.9.3-3.9.7-5.8 1.1 1.6.3 3.3.6 5.2.9-2.4.4-3.7 3.4-6.3 1.9-1.2 0-2.5-.1-3.7-.1.6-.1 1.3-.3 2.3-.5-2.1-1.2-2.2-1.2-2.3.5v.1l-.1-.1c-1.1 0-2.1.1-3.1.2v.8c1.7.2 3.5.4 5.3.6l-.1-.1c2.6-.3 5.3-.6 8-1-.3.7-.8 1.7-1.4 3h4.5c-.7.5-1.7.2-2.2.5-.7.5-1.2 1.4-1.7 2.1-.1.2.1.6.2.9.6-.3 1.4-.5 2-.9 1.4-.8 2.6-1.8 4-2.6.2-.1.4 0 .8 0-.3.7-.5 1.2-.7 1.7.1.2.3.4.4.6 1.7-.8 3.4-1.6 5.3-2.5-.4 1.1-.6 1.9-.9 2.7-.5 0-1.4-.1-1.5.1-1.4 2.7-3.7 1.7-5.9 1.8-.7 0-1.4 1.1-2.1 1.8 3-.2 5.9-.5 8.9-.4 3.9.1 7.7.5 11.6.7.5 0 1.1-.5 1.7-.8-1.1-1.7 1.6-.9 1.3-2.4-.7-.1-1.6-.2-2.8-.4 1.7-1.3 2.8-.9 4 .2 1.3 1.3 2.7 2.2 4.9 0-1.7-.1-2.7-.2-3.8-.3 0-.2 0-.3-.1-.5 2-.1 4-.2 6.6-.3-1.3-1.2-1.6-1.4-1.8-1.6m-13.1-20.1c-1.7.1-3.5.2-4.7.3-1.9.7-3.3 1.2-5.5 2 3.3-3.9 6.7-3.1 10.2-2.3m-35.2 10.8c-.8.5-1.6.9-2.4 1.4.8-.4 1.6-.9 2.4-1.4.3-.7.6-1.5.9-2.2.4.3.7.6 1.1.9 0 .6.1 1.3.2 2.5-.9-.2-1.7-.6-2.2-1.2m38.2-1.6v-.4c1-.2 2.1-.4 3.1-.6 0 .2 0 .5.1.8-1.1.1-2.2.1-3.2.2m9.3 3v.8c-1.8-.1-3.7-.2-5.5-.3 1.8-.1 3.6-.3 5.5-.5m-28.9 5.5c1.7-1 2.8-1.7 4-2.4 0-.3-.1-.6-.1-.9-1.1 0-2.2-.1-3.3-.2v-.6c1 0 2 .2 3 .1 1.1 0 2.2-.2 3.5-.3-.6.6-1.1 1-2.1 1.9l3.5.7c-2.2 3-5.2 1.9-8.5 1.7m8.3 5.9c0-.6.1-1.2.2-1.9h4.3c-.6.2-1.3.4-1.9.6 0 .3.1.6.2.8 1-.1 2-.2 3-.4.2.2.4.4.8.9zm5.6-1-1-1c1.6-.2 3.3-.3 4.9-.5v.4c-1.3.3-2.6.7-3.9 1.1m14.5-4.2c-1.8.2-3.5.4-5.3.5.6.3 1.2.6 2.1 1h-9.5c2.5-.3 4.9-.7 7.4-1.1 1.6-1.7 3.4-1.4 5.3-.4q0-.15 0 0"/><path fill="currentColor" d="M301.5 34.7q-.15 0 0 0c-.1-.1-.1 0 0 0m23.5 4.9c0-.1-.6-.2-.7-.2-.2.3-.6.7-.5 1.1.1.5.5.9.7 1.3.2-.4.5-.7.6-1.1 0-.3 0-.7-.1-1.1m-170.2-6c1.1-.1 2.2-.2 3.2-.3-3.4-1.3-6.5-.9-6.4.1 1.1.1 2.2.2 3.2.2M301.3 37c0-.7.1-1.5.1-2.2-1.8.6-1.3 1.4-.1 2.2m3.7-.2-.1.1h.1c-.1 0 0-.1 0-.1m-3.5.3s-.1 0-.1-.1h-.1v.1zm5.7-5.1c-.8-.2-1.5-.3-2.3-.5 0 .3-.1.6-.1 1 .8.1 1.5.2 2.3.2 0-.2 0-.5.1-.7m8.3 3.6c-.6 0-1.2-.1-1.7-.1v1.1h1.7zm-8.5 2.9c.4 0 .9 0 1.3-.1.1 0 .2-.8.1-.9-.4-.2-.9-.4-1.4-.4-.7-.1-1.4-.1-2.1-.1v.1c-1.1 0-2.3 0-3.4.1.9.4 1.8.9 2.8 1.2.8.1 1.8.1 2.7.1m-169.7-9.7c.3.6.6 1.3.8 1.9l1.6-2.4c-1.3.3-1.8.3-2.4.5m17.5 6.7v-1.7c-.4.4-.7.8-1.1 1.3.4.1.7.2 1.1.4m180.1-2.9q-.15 0 0 0m-.1 0q.15 0 0 0"/><path fill="currentColor" d="M154.9 33.7c-.1 0-.1.1-.1.1 0-.1.1-.1.1-.1q-.15-.15 0 0m-2.7-4.5c-.6 0-1.2.1-1.8.1v.6l1.8.3zm-14 1.6c-.1-.1 0-.1 0 0q-.15-.15 0 0-.15 0 0 0m202.1 1.3q-.15-.15 0 0-.15 0 0 0"/><path fill="currentColor" d="m138.1 30.8-3-.6v1.4c1-.4 2-.6 3-.8m7.8 14.6c-.8-.2-1.5-.3-2.3-.5-.1.3-.2.6-.2.9.8.2 1.5.4 2.3.5 0 .1.1-.5.2-.9m3.4.2c.1.3.4.6.7.9.2-.2.5-.4.9-.7-.4-.4-.7-.6-1-.8-.2 0-.7.5-.6.6M305.4 35c-.1.6-.3 1.2-.4 1.8l1.3-1.3c-.3-.2-.6-.3-.9-.5m-41.5.9c-.8.4-1.6.8-2.3 1.3 1.1.3 2.7 1.2 2.3-1.3m-2.3 1.2q-.15 0 0 0c-.1.1-.1 0 0 0q-.15.15 0 0c-.1 0-.1.1 0 0m2.4-1.3h-.1v.1zm2.3-5c-.6-.1-1.1 0-1.7.1 0 .4 0 .7.1 1.1.6 0 1.2-.1 1.8-.1-.1-.4-.1-1-.2-1.1m.5 4.7c.1 0 0-.8-.2-.9-.3-.2-.9-.5-1.2-.3-.5.4-.9 1-1.4 1.5.5.1 1 .2 1.5.1.4 0 .9-.1 1.3-.4"/><path fill="currentColor" d="M261.1 39.4c0 .1.6 0 .9 0 0-.4 0-.9-.1-1.4-.1-.3-.3-.6-.4-.9-.2.3-.4.5-.5.9-.1.5 0 1 .1 1.4m-14.2-3.5c-.1-.1 0-.1 0 0m-2.6 1.4c.8-.5 1.6-1 2.4-1.4-.9.1-1.9.1-2.8.2.1.4.2.8.4 1.2m2.6-1.5 2.7-.6c-.8-.4-1.5-.8-2.2-1.3-.2.6-.4 1.3-.5 1.9m-.1 0-.1.1s.1 0 .1-.1m-109.9-9h-2.4c0 .3 0 .6.1.9.8-.1 1.6-.3 2.4-.4 0-.2 0-.4-.1-.5M262.3 42h-2.1c0 .2 0 .5-.1.7.7.1 1.3.2 2 .3.1-.3.1-.6.2-1m30.3-7.1c-.6.2-1.2.3-1.8.5.1.3.2.6.2.9.6-.1 1.2-.3 1.7-.4.1-.1 0-.6-.1-1m-10.1 6.3c1-.5 1.9-1.3 3.4-2.5-2.6 0-4.6 0-6.6.1-.3 0-.5.8-.8 1.2 1.1-.2 2.2-.3 3.4-.5-.6.7-.9 1.2-1.3 1.6.7.1 1.5.4 1.9.1m-4.1-1.1c.1.1 0 .1 0 0m0 .1c-.7.1-1.3.1-2.4.2 1.7 1.2 1.7 1.2 2.4-.2m10.3.1c1.1-.7 1.9-1.7 2.9-2.6h-.1c-.6-1.3-1.3-1.9-2.5-.5-.4.5-.9 1.1-1.5 1.5-.9.8-1.9 1.6-2.8 2.4.1.2.2.5.3.7 1.2-.5 2.5-.8 3.7-1.5m7.3-4.2c.5.1 1 .1 1.6.1 0-.3 0-.6.1-.9-.6-.1-1.1-.1-1.7-.2 0 .4-.1 1 0 1m-26.6 3.5c.7-.1 1.3-.2 2-.4l-.1-.7c-.7 0-1.3.1-2 .1 0 .4.1.7.1 1m25.6-3.1c-1.1.4-2.2.8-3.4 1.2 1.2.1 2.4.1 3.6.2 0-.5-.1-.9-.2-1.4M274.1 40c.6-.2 1.1-.4 1.7-.6-.1-.3-.3-.9-.4-.9-.6 0-1.1.2-1.7.4.2.3.3.7.4 1.1M135.5.9h-.1zm174.6 12.9q.15 0 0 0M137.7.3V0h-2c-.1.3-.1.5-.2.8.8-.2 1.5-.3 2.2-.5m-3.2 2.1c.3-.5.6-1 .8-1.4-.5.2-1.1.4-1.6.6.4.2.6.5.8.8m2 5.2c.4 0 .9.1 1.4 0 0 0 0-.6.1-.9h-1.5q-.15.45 0 .9m180.5 4c-.1 0-.3.1-.4.1.2 0 .4-.1.6-.1zq.15 0 0 0m-3.1.6q.15 0 0 0m.1.5 2.7-.9c-.9.1-1.8.3-2.7.4zM154.8.2c0 .3.4.6.8 1.1.3-.5.7-.8.7-1.1 0 0 0-.1-.1-.2h-1.3c-.1.1-.1.1-.1.2M169 46.7c.6 0 1.1-.4 1.6-.6-.4-.4-.7-.8-1.1-1.2-.4.3-.9.5-1.2.9 0 .1.5 1 .7.9m141.2-32.9-.1-.1c0 .1.1.1.1.1m-12.9 2.7c-.1-.1 0-.1 0 0q-.15-.15 0 0m-.1 0c-2.7.5-3.6 1.3-3.5 3.1h13.8V19l-6-.3v-2.2c-1.3.7-2.6 1.4-4.1 2.2-.1-.9-.1-1.6-.2-2.2m-7.8-.5c.1-.5.3-.9.4-1.4-.4.2-.9.5-1.4.7.4.3.7.5 1 .7M128.9 0h-1.4c.1.3.4.7.6 1.3.4-.7.7-1 .8-1.3m196.3 8.1c-.6 0-2.5-.4-1.4 1.5l4.5-.9c-1.1-.3-2.1-.7-3.1-.6m-11.4 4.5q.15.15 0 0c0 .1.1.1 0 0m-12.3 3.9q.15 0 0 0 .15-.15 0 0M215.8 0h-.4c0 .1-.1.2-.1.4.1-.2.3-.3.5-.4m6.1 1.2c1.4 1.3 3 1.1 3.4-.5.1-.2 0-.5 0-.8h-1c-.1 0-.1.1-.2.1-.6.5-1.3.8-2.2 1.2m82.8 25.5h-.2zh.2c0-.1-.1-.1-.2 0m-48.6 21.2c-1.2-.6-1.6-.9-1.9-.9-.2 0-.6.6-.5.7l.3.3h1.8c.1 0 .2-.1.3-.1M191 1.6c.7-.1 1.9-.1 1.9-.3.2-.6.5-1 .8-1.3h-1.1c-.5.4-1.1 1-1.6 1.6M288.7 24h-.1zc0 .1-.1.1-.1.1.1 0 .1 0 .1-.1M169.3 41.8c-.2 0-.7.5-.7.8s.4.6.8 1.1c.4-.5.8-.9.8-1.2-.1-.3-.6-.7-.9-.7m-4.1 1.3c.1-.3.3-.6.4-.9-.5-.2-.9-.4-1.4-.5 0 0-.2.5-.4.8.5.2 1 .4 1.4.6m86.3 4h-2.1v.9h.2l1.8-.3c.1-.2.1-.4.1-.6m-90.4-.9v-.9H159v1.1c.7 0 1.4-.1 2.1-.2m12.4 1.5c-.8 0-1.5-.1-2.3-.1v.4h2.3zm108.8-25.8c-.1-.1 0-.1 0 0m60-9.7c.6-.2 1.1-.3 1.7-.5v-.6c-.7-.3-1.3-.7-2-.8-1.2-.2-2.6.3-3.7-.1-1.6-.5-2.3.1-2.9 1.3 2.4.3 4.7.5 6.9.7M168.5 2.9c-.7-1-1.1-1.6-1.5-2.1-.6.5-1.1 1-2.1 1.9 1.4.1 2.3.1 3.6.2m159.8 5.8q-.15 0 0 0M169.7.1c-.8-.2-1.7.4-2.6.6 2.7.2 5.4.5 8.3.7-.2.5-.4 1-.7 1.7.7 0 1.6.1 1.8-.2 1.5-2.3 3.7-1.9 5.8-1.5q.75.15 1.5 0c.1 0 .2-.9.1-.9-.5-.2-1.1-.3-1.6-.3H175V.1h-2.3q-1.2.45-3 0m-2.7.6c.1 0 .1.1 0 0m158.7 30.9c1.3-.8 2.6-1.5 4.1-2.5-.9-.8-1.3-1.2-1.8-1.5-1.1 1-2.1 2-3.2 3 .4.3.7.6.9 1m-63.2 15.8c.3.2.5.4.8.6h1.8c.2-.2.3-.4.5-.8-1.1.1-2.1.2-3.1.2M189.1 6c1 1 5.7 1.2 7.8-.1-1.4-.1-2.3-.1-3.2-.2l.3-.3c-.6-.4-1.3-.8-1.9-1.2-.2 1.8-1.9 1.2-3 1.8M187.8.2c-.2.2-.7.5-.6.7.1.4.4.6.8 1.2.3-.5.7-.8.6-1-.2-.4-.6-.6-.8-.9m-74.7 46.3c-.9.2-1.7.4-2.6.6l-.3.9h1.9c.4-.4.9-.8 1.3-1.1-.2-.2-.3-.3-.3-.4M213.5 8.9c.6.1 1.1.2 1.6.3 0-.3.1-.6.1-.9-.6 0-1.1-.1-1.7-.1.1.2.1.4 0 .7m-26.4-4c.5 0 1 .1 1.5.1 0 0 .1-.6.1-.9-.5 0-1-.1-1.5-.1-.1.3-.1.6-.1.9M210.9 1c-.7-.2-1.4-.3-2-.5-.1.3-.1.6-.2.9h2.2zm.3 2.7c.5.1 1.1 0 1.6 0 0-.3 0-.7.1-1-.6-.1-1.2-.1-1.7-.2 0 .4-.1 1.2 0 1.2m-32.6 5s.7 0 .7-.1c0-.4.1-.9 0-1.4-.1-.3-.4-.5-.6-.8-.1.3-.3.6-.3.9-.1.5 0 1 .2 1.4m6.5-1.7c1.3-.4 2.6-.7 3.9-1-1.4-.1-2.7-.2-4.1-.4.1.5.2.9.2 1.4m16.2-2.9c-1.2.9-2.1 1.6-3.1 2.3v.7h16.1v-.6c-1.3-.2-2.6-.4-3.9-.7-.2 0-.2-.8-.4-1.2-.4.4-.7.8-1.1 1.1-.3.2-.8.3-1.1.3h-5.9c-.3-.7-.4-1.3-.6-1.9m4.2-3.6c-1.1.7-2.2 1.4-3.4 2.1 1.6 1.5 2.5 1.1 3.4-2.1m-26.8 6q-.15 0 0 0m-11.6-2.1q-.15 0 0 0c-.1 0-.2 0 0 0m2.8-.6c-.9.2-1.9.4-2.8.6 1 .1 1.9.2 2.9.3-.1-.3-.1-.6-.1-.9m-7 2.1c-2.4.6-4.7 1.2-7.1 1.8V8h6c.7 1 1.3 2 1.5 2 .8-.3 1.6-.8 2.1-1.4.2-.2-.3-1.1-.6-1.6-.5-.8-1.1-1.5-1.6-2.2-.2.4-.2.8-.3 1.1m-18.1 42-.1.1h.5c-.1 0-.3-.1-.4-.1M165.4.1h-2.2v.7c.7.1 1.4.2 2.1.2.1-.2.1-.5.1-.9"/><path fill="currentColor" d="M181.6 7.6c.2.3.4.9.6.9 2.4.1 4.8.1 7.2.1.1 0 .1-.3.5-.9-2.9-.1-5.6-.1-8.3-.1.5-.5.9-.9 1.5-1.4l-1.2-.9v.1c-1 .4-2.1.7-3.2 1.1.9.3 1.9.7 2.9 1.1m-46.7 39.7c-.2-.3-.5-.5-.8-.8l-.9 1.5h.3c.5-.2.9-.4 1.4-.7m31-40.7c1.1-.1 2.1-.4 3.2-.4 1.3 0 2.5.2 3.8.3V5.4c-.8 0-1.6.1-2.3 0-1.2-.2-2.4-.7-3.5-1h-.1c-.4.5-.8.9-1.2 1.4 0 .3.1.6.1.8m18-2.9c-.6.5-1.3 1-1.9 1.5.8-.2 1.6-.4 2.4-.5-.1-.3-.3-.7-.5-1M182 5.2h-.2c.1.1.1.1.2 0M148.1 40h-1.6v.9c.5 0 1.1 0 1.6.1zm23.6-5.6c.1-3.5-1.8-1.2-2.9-1.1.4.3.7.6 1.6 1.2h-7.2v.7h10.4c-.6-.6-1.9-.7-1.9-.8m-5.4 3.2c.5 0 1-.2 1.5-.4 0-.3-.1-.5-.2-.8-.5.1-1.1.2-1.6.3z"/><path fill="currentColor" d="M168 30.7c-.3.6-.5 1.2-.8 1.9.5.2 1 .5 1.5.7 0-.8.1-1.6.1-2.4-.2-.1-.5-.1-.8-.2M253.7 46s0-.3.1-.5c-.7-.1-1.3-.1-1.9-.2 0 .3-.1.6-.1.9.6 0 1.3-.1 1.9-.2M166 34c.3-.5.7-.9 1-1.4-.6.2-1.2.3-1.8.5.3.3.6.6.8.9m1.2-1.5-.1.1zM152 26.3c0-.6 0-1.2-.1-1.8-.6.5-1.2 1-2.1 1.6.9 0 1.6.1 2.2.2m-7.2 15.9h2.6v-.4c-.9-.2-1.7-.4-2.5-.6 0 .3 0 .6-.1 1m89.4-34.4c1.7 0 3.4.3 5.1.3.4 0 .8-.6 1.2-1-.1-.3-.1-.5-.2-.8-3.5 0-6.9 0-10.4.1-.3 0-.5.9-.8 1.5 1.8 0 3.4-.1 5.1-.1m-79.1 15.3c-.8.2-1.7.4-2.5.7-1.5-.2-2.9-.4-4.4-.5v1.2c1.4-.2 2.9-.4 4.3-.6-.2.2-.4.4-.5.6h3.3c0-.6-.1-1-.2-1.4"/><path fill="currentColor" d="M152.1 24.3h-.1v.1zq-.15.15 0 0m-16-18.7c0-.3-.3-.6-.6-1.1-.4.4-.9.6-.8.7.1.3.4.7.7.9.1 0 .7-.4.7-.5m-1.4 23.2h-1.9v.6c.6.1 1.3.1 1.9.2zm133.2 18.7v.5h2v-.5zM229.1 7.9q.15 0 0 0 0 .15 0 0"/><path fill="currentColor" d="M194.3 10.7h15.2c.2.8.5 1.5.6 1.8 1.3-.8 2.4-1.4 3.6-2.1.4 1.2.7 1.9.7 1.9 1.8-.6 3.2-1.5 4.6-1.5 6.5.1 13 .4 19.6.6-.5-2.6-.5-2.6-2.1-1.5-.2.2-.7 0-1 0h-6.3v-2c-1 .7-2 1.6-3 1.8-1.9.3-4 .1-6.6.1.9-.7 1.3-1 1.7-1.3-1.7-.7-3.2-1.5-3.2 1.2h-23.7c-.1.4-.1.7-.1 1m-49.6 27.4c0 .2-.1.5-.1.7 1.8.1 3.6.2 5.4.4-.3-1.4-2-1.8-5.3-1.1M110.4 47c.1 0 .1.1 0 0q.15 0 0 0m155.2.1c.1 0 .1-.1.2-.2zm-13.9-4.6h-.2c.1 0 .1.1.2 0q0 .15 0 0"/><path fill="currentColor" d="M269.3 47c1.6-.1 3.8 0 3.8-.2.5-3.4 2.4-1.9 4.2-1.5.2.1.8-.3.8-.4 0-.4-.1-.9-.4-1.1-.4-.3-.9-.3-1.7-.4.7-.4 1-.6 1.9-1.2h-8.1v.6l2.1.6c-2.3.4-4.5.4-6.8.3-.5 0-.9-.7-1.4-1.1-.6.4-1.3 1.2-1.9 1.2-2.3 0-4.5-.1-6.8-.4-1.1-.1-2.2-.5-3.3-.8l-.1.1-.1-.1s.1.1.1.2c-3.8-1.8-4.3-1.7-7.7 2h26.7c-.4.7-.7 1.2-1.3 2.2"/><path fill="currentColor" d="m252.7 41.6-1 1c.5 0 .9.1 1.4.1-.1-.4-.3-.8-.4-1.1m13.7 3.7c-.2.5-.4 1.1-.6 1.6l1.3-1.3c-.3 0-.5-.2-.7-.3m-126.6 1.5c-.6.1-1.3.3-1.9.4 0 .2.1.5.2.7h1.1c.3-.1.6-.1.9-.2-.1-.2-.2-.6-.3-.9m30.9-7.8c-5.6-.7-11.2-.9-16.8-1-.5 0-.9.4-1.4.6.2.2.3.4.5.7 1.5.1 2.9.2 4.4.3 4.5.4 8.9.2 13.3-.6M130 40.8c.2-.2.6-.5.6-.7 0-.3-.4-.6-.7-1.1-.4.4-.8.8-.7.9.1.4.5.6.8.9m-21-10.9c.1.3.4.7.6.9.1.1.5-.3.8-.4-.2-.3-.4-.7-.7-1.2-.3.3-.7.6-.7.7m43.8 16.6c1-.1 1.9-.2 2.9-.4 0-.3-.1-.5-.2-.8-1.3-.5-2.4-.6-2.7 1.2m0 .1q0-.15 0 0m-5.1.4c-1 .3-1.9.6-2.9.9.2 0 .4.1.6.1h2.2c.1-.1.2-.1.2-.2.1-.3 0-.6-.1-.8m-38-21c-.3 0-.6.4-.9.6.2.3.4.8.6.8.4 0 .7-.3 1.3-.6-.5-.4-.8-.8-1-.8m11.4 21.9c.1-.6.3-1.2.4-1.8-.4.5-.8.9-1.2 1.4.2.1.5.3.8.4m.5-2h2.9c-1.4-2.1-2.3-1.5-2.9 0m12.8-36.5h1.7v-1c-.6.1-1.1.1-1.7.2zm30.5 38.5-.1.1h.1zm.4-2.3c-.4-.2-.9-.4-1.3-.3-.6.2-1.2.6-1.8.9.6.2 1.3.4 1.9.5.4 0 .9-.1 1.3-.3.1.1 0-.7-.1-.8M159 .9c.5-.2 1.1-.3 1.6-.4-.1-.2-.1-.3-.2-.5h-1c-.2.1-.5.2-.7.3q.3.3.3.6m4.2 47.1c-.5-.7-.8-1.2-1.1-1.7-.1.6-.2 1.2-.3 1.7zm-11.8 0h1l.3-1.2c-.5.4-.9.8-1.3 1.2m1.3-1.5c0 .1 0 .2-.1.2.1 0 .1 0 .1-.2m4.9 1c0-.2-.3-.5-.7-.9-.3.6-.6.9-.6 1.3 0 0 0 .1.1.1h1c0-.2.1-.3.2-.5"/><path fill="currentColor" d="M153.6 42.9c1.2 0 2.6.3 3.5-.3.5-.3.3-1.9.4-3l-3.9 2.4zm-23.8-7.4c-.4 0-.7.4-1.1.6.2.3.5.8.7.8.3 0 .7-.3 1.2-.6-.3-.4-.5-.8-.8-.8m-9-28.3c-.2-.4-.3-.7-.4-1.1-1.4.8-2.7 1.6-4.4 2.5 2.6 1.8 3.4-.7 4.8-1.4m.2 21c-.7.1-1.4.3-2.1.5-.3.1-.6.3-.8.5.4.2.7.4 1 .6.7-.3 1.5-.6 2.2-.9 0 0-.2-.7-.3-.7"/><path fill="currentColor" d="M118.9 30c.1 0 .3-.1.4-.1-.1 0-.1-.1-.2-.1s-.2.1-.2.2m-4.2-1.5c-.6.6-.9 1.6-1.3 2.2 1.8-.6 3.2-1 4.5-1.5-.9-1-1.9-2-3.2-.7m18.2-22c-.2 0-.5.3-.8.4l.8 1.2c.3-.4.6-.7.6-.9 0-.3-.3-.6-.6-.7m-26.4 38.7c-.1-.4-.2-.7-.3-1.1-.6.1-1.1.3-1.7.4.1.3.2.9.3.9.6.1 1.1-.1 1.7-.2m11.2-13.9c.4-.4.8-.9 1.2-1.3-.6.2-1.1.3-1.7.4.1.3.3.6.5.9m.2-29.6c0-.3 0-.5.1-.8-.6-.1-1.1-.2-1.7-.3v1.1c.5.1 1 0 1.6 0m8.4 11.1h5.3v-.7h-5.3zm3.9-5.9c-.5-.3-.8-.6-1-.6-.3.1-.6.5-.9.8.2.2.5.7.7.6.3-.1.6-.5 1.2-.8m-1.7 10c-.7-.6-1.3-1.1-2.1-1.8.3 2.7 2.4 4.6 3.2 3.4 1-1.3 1.4-.5 2.2-.2.6.2 1.3.1 2.4.2-1.8-2.6-3.4-4-5.7-1.6m-18.3 5.4c-.7.1-1.4.2-2.1.2 0 .3 0 .6.1.8h2.1c-.1-.3-.1-.7-.1-1m-1-21.8c-.6 0-1.2.2-1.9.2 0 .3.1.5.1.8.6-.1 1.3-.1 1.9-.2 0-.2-.1-.8-.1-.8m0 23.9h-2.7s0 .6-.1 1c1-.1 1.9-.2 2.9-.3 0-.2-.1-.4-.1-.7m.7-6.3c-.4.4-.8.7-1.2 1.2l.5.7c.4-.3.9-.6 1.3-1q-.3-.6-.6-.9m-6.5 4.3c0 .3 0 .7-.1 1 .6 0 1.1.1 1.7 0 .1 0 .1-.7.1-1.1-.5.1-1.1.1-1.7.1m15.3 20.1c.3 0 .7-.4 1-.6-.3-.4-.5-1.1-.8-1.1-2 0-4 .2-6 .3.1.2.1.4.2.6 1.9.3 3.7.6 5.6.8m-8.3-26.8c-.2-.2-.4-.5-.7-.9-.3.3-.7.5-.8.7 0 .2.4.7.5.7.4 0 .7-.3 1-.5m2.6 20.4c-.2-.3-.5-.5-.8-.8-.2.3-.5.5-.5.8 0 .2.3.5.6.9.3-.4.7-.8.7-.9m6.5 1.8c0-.3-.5-.7-1.3-1.7-.4.7-.8 1.2-.8 1.6s.6.9 1 1c.4 0 1-.5 1.1-.9m-4.7-3.7c.1 0 .1-.3.1-.6h-1.5c-.5-.9-.9-1.5-1.2-2.1-.3.4-.9.8-.8 1 .4 1.8 1.7 2.1 3.4 1.7m-.9-22.2c-1.7-.1-3.4-.2-5.1-.4v.9h5.2c-.1-.1-.1-.3-.1-.5m28.9 2.4c0-.1-.6-.5-.7-.4-.3.2-.5.5-.8.8.2.2.4.4.9.7.2-.4.5-.7.6-1.1m19.6 6.6c.9-.1 1.7-.2 2.5-.4 0-.3 0-.5-.1-.8h-2.5c.1.4.1.8.1 1.2m-.1-9.8-1.5-.6-.3.9c.6.1 1.1.2 1.7.4-.1-.2 0-.5.1-.7m-.8 7.9c.1 0 .5-.4.7-.6-.3-.3-.5-.6-.9-1.1-.3.4-.7.7-.7.9.3.3.6.6.9.8m5.6 6.7-3.3-2.7c-1.2 1-2.4 2-4 3.3h6.9c.1-.3.2-.5.4-.6m-2.7-8.7c0-.4 0-.9-.1-1.3.6-.1 1.3-.2 2-.4 0-.2-.1-.5-.1-.8h-5.5c-.1.3-.2.7-.4 1 1.4.6 2.8 1 4.1 1.5m6.5-1c-.4-.4-.7-.8-1-1.2v1.7c.3-.2.7-.4 1-.5m-21.3 20.3h-3.5v.8c1.2-.1 2.3-.2 3.4-.2.1-.2.1-.4.1-.6M32.2 10.8c0 .2.3.5.5.7.3-.2.6-.4.9-.7-.2-.2-.4-.5-.7-.9-.3.4-.7.6-.7.9m148.4-.1c-1 .3-2 .6-3.2 1 .6.4 1 .7 1.4.9 1.4-.9 2.8-1.8 4.9-3.1-4.6-.2-8.3-.4-12-.5-.2 0-.5 1.1-.8 1.8l9.6-.9c0 .3 0 .5.1.8m-23.4 10.2c-.1 0-.1 0-.1.1 0 0 0-.1.1-.1M41.5 25.7c.9-.6 1.7-1.3 2.6-1.9-.2-.2-.4-.5-.5-.7-.9.7-1.8 1.3-2.7 2q.3.15.6.6M2.3 32c0-.2-.1-.4-.1-.7-.6 0-1.1 0-1.7.1 0 .3.1.6.1.9.6-.1 1.2-.2 1.7-.3m154.8-2.9c-.5-.1-1 0-1.5 0v1h1.6c-.1-.4-.1-1-.1-1m.1-3.8c-.5 0-1.1 0-1.6.1 0 .3 0 .7.1 1 .5-.1 1.1-.1 1.6-.3zm-.5-2.4c.1-.7.2-1.3.4-1.9-.5.5-1 .9-1.5 1.4.4.2.7.4 1.1.5m7 .1c-.9-.6-1.7-1.2-2.5-1.8-.2.4-.4.8-.6 1.1 1 .3 2.1.5 3.1.7m-3.1 11.6c-.6-.2-1.3-.3-1.9-.4 0 .3-.1.7-.1 1.1.7 0 1.3.1 2 .1zm-2.8-19.9h-2.1c0 .3.1.6.1.9.7-.1 1.4-.2 2-.2.1-.3.1-.5 0-.7m1.9 9.8c0-.3.1-.6.1-.9-.5-.1-1-.2-1.5-.2 0 .3-.1.9-.1.9.4.1 1 .1 1.5.2m-.4-5.2c-.6.5-1.3 1-1.9 1.4.8-.1 1.6-.3 2.5-.4-.3-.3-.5-.6-.6-1m92-4.8h-.1s0 .1.1 0q0 .15 0 0M54.8 7c-.5.1-.9.2-1.4.3 0 .2 0 .5.1.7.5-.1 1-.2 1.5-.4-.1-.1-.2-.6-.2-.6m165.6 7.8q0 .15 0 0M53.8 40.9c.9 0 1.8-.1 2.6-.1 0-.3-.1-.6-.1-1-.9.2-1.7.3-2.6.4.1.3.1.5.1.7M225.6 16c-1.5-.2-2.3-.4-2.8-.5-.5-.8-.9-1.4-1.3-2.1-.4.4-.7.9-1.1 1.4 1.3 1.3 2.5 2.9 5.2 1.2m-5.1-4.1c-.6 0-1.1-.1-1.7-.1V13c.6-.1 1.1-.2 1.7-.2zm23 7.2c.8-.1 1.6-.2 2.7-.3-1.9-1.6-1.9-1.6-2.7.3m4.8-3.9c1-.2 1.9-.5 2.9-.7-1-.1-2-.3-3-.4 0 .4 0 .8.1 1.1m-94.9 16c-.1.1.3.5.7.9.4-.4.7-.7.8-1 0-.2-.5-.7-.6-.6-.4.1-.7.4-.9.7m73.3-17.4c-.9.1-1.7.2-2.6.3v.8c.9 0 1.7.1 2.6.1q.15-.6 0-1.2m-6 4.5 1.8-.3c0-.2-.1-.4-.1-.7-.6.1-1.2.2-1.8.2 0 .4 0 .6.1.8m-1.7-1.4c.5-.1 1.1-.3 1.3-.6.2-.4.1-.9.1-1.4-.4.1-.9.1-1.2.3-.3.3-.5.8-.7 1.2 0 .1.4.5.5.5m-45.8-8.3c.8-.1 1.6-.2 2.4-.2 0-.3-.1-.7-.1-1-.8 0-1.6.1-2.4.2.1.3.1.6.1 1m27 11c.8.1 1.5.2 2.3.2 0-.4 0-.7.1-1.1-.8 0-1.6.1-2.4.2zm-23-14.1c-.8.1-1.5.2-2.3.2 0 .3.1.6.1.9.8-.1 1.5-.1 2.3-.2 0-.3-.1-.6-.1-.9"/><path fill="currentColor" d="M169.9 14.7q-.15 0 0 0c1-.2 2.1-.5 3.3-.8.3-1.7-.2-2.9-2.3-3-.6.1-1.3 0-1.8.3-.8.6-1.4 1.4-2.1 2.1.9.4 1.9.9 2.9 1.4m-.9-2.6c.8-.1 1.7-.2 2.5-.2v.6c-.9.1-1.7.1-2.5.2zm-2.1-2.5c.2.3.4.6.5.8 1.1-.7 2.2-1.5 3.5-2.4-3-2.1-2.5 1.4-4 1.6m59.3 16.2c1.2-.3 2.2-1 3.2-1.7.1-.1 0-.9-.3-1.2-.2-.2-1.1 0-1.1.1-.6 2.3-2.8 1.7-4.2 2.4.8.1 1.7.6 2.4.4m-11.7-3c1.6 1 3.3 1.1 4.6 1.9 1.6 1 3 1.3 4.7.6.7-.9 1.4-1.7 2.5-3.1 1-.4 2.8-1.3 4.9-2.2-1.1-.4-1.8-1-2.6-1-1-.1-2-.1-3-.1 1.7-1 2.8-1.7 4.2-2.5-2-1-3.1-.3-4.4 2.5-2-.1-3.9-.1-5.9-.1-.5 0-.9.6-1.4.9.5.3 1.1.9 1.6 1 1 0 2-.3 3-.5 0 .2.1.3.1.5-.6.2-1.3.4-1.9.6v.6c.9.1 1.8.2 2.7.2v.7zm-13-7.7c-.4.4-.8.9-1.2 1.3.2.2.4.3.6.5.4-.4.8-.9 1.2-1.3-.1-.1-.3-.3-.6-.5m-31.7-.3.1.1c0-.1 0-.1-.1-.1.1-.1 0-.1 0 0m-27.2 9.6h-.2v.1c.1-.1.1-.1.2-.1m-2.1 1.9q0 .15 0 0m-1.2 1.3c3.4.2 6.9.4 10.3.5 0-.3 0-.6.1-.9-.5-.1-1-.2-1.5-.2-2.5-.2-5.1-.4-7.6-.7-.5.2-.9.4-1.4.6 0 .3 0 .5.1.7m3.1-3.1c-.7.2-1.3.4-2 .6 0 .4 0 .8.1 1.2.7-.6 2.9.4 1.9-1.8m-24.9 21.4c.6.2 1.3-.2 2-.2-.1-.4-.1-1-.3-1.1-1-.4-2.1-1.2-3.1-1.1-2.2.2-4.4 1-7 1.6.3.5.8 1.2 1.4 1.9 1.5-1.6 4.3-2 7-1.1m-7.1 1.2q0-.15 0 0M143.5 22c0 .3 2.4.6 5.4.6s5.4-.3 5.4-.6-2.4-.6-5.4-.6c-2.9 0-5.4.3-5.4.6m-1.3-18.3c-.4-.3-.7-.6-1-.6-.2 0-.4.4-.7.6.3.2.5.6.9.7.2.1.4-.3.8-.7m-3.8 2h6V5h-5.8c-.1.2-.2.5-.2.7m-2 10.1c-.7 0-1.3.1-2 .2v.6h2zm2.4 1.7h-2.4v.8c.8 0 1.6.1 2.4.2zm-.8 22.8c.3.2.6.7.8.7.3 0 .6-.4 1.1-.8-.5-.4-.9-.8-1.1-.7-.3.1-.5.5-.8.8m2.6 2.3c.7-.1 1.5-.2 2.2-.3v-.5c-.7-.1-1.5-.2-2.2-.3-.1.3 0 .7 0 1.1m-1.7-6.9c-.3 0-.6.4-1 .6.2.3.4.8.7.9s.7-.3 1.3-.5c-.4-.5-.7-.9-1-1m7.2-5h-6.3v.8h6.4c-.1-.3-.1-.6-.1-.8m-3 5.3c-.5.2-1 .4-1.4.6.1.2.1.4.2.7.5-.1 1-.2 1.5-.4zm7.2-1.8h-6.1c.2.4.4 1.1.6 1.1 1.9-.1 3.7-.2 5.5-.4zm-13.7 12.2c.4-.1.6-.5.9-.8-.3-.3-.6-.5-1.1-1-.3.5-.6.9-.6 1.2.1.2.7.6.8.6m10-39.2c-.4-.1-1-.2-1.4-.2 0 .3-.1.6-.2.8l1.5.3c.1-.3.2-.9.1-.9m-8.7 16.3c1.2.7 1.9 1.1 2.5 1.4-.1-.7-.1-1.3-.2-2-.6.1-1.2.3-2.3.6m2.6 1.5q-.15 0 0 0-.15.15 0 0c-.1.1-.1 0 0 0m-1.7 6.7c-1.2.8-2.5 1.5-3.7 2.3.2.4.4.9.7 1.3 1.3-.8 2.5-1.6 3.7-2.4-.2-.4-.5-.8-.7-1.2m5.9-8.8c-.7.5-1.4.9-2.1 1.4l2.7-.3c-.2-.3-.4-.7-.6-1.1m-7.6-1.1c.3.2.6.6.9.6s.6-.4 1.2-.8c-.6-.3-1-.6-1.3-.6-.4 0-.6.5-.8.8M140 8.6c-.5.1-1.1.2-1.6.4 0 .2.1.4.2.7.5 0 1.1-.1 1.6-.1-.1-.4-.1-.8-.2-1m.5 11.9c0-.7-.1-1.3-.2-2-.3 0-.6 0-.9.1 0 .7.1 1.3.1 2 .4 0 .7 0 1-.1m15.2 6.5c-.7.1-1.5.2-2.3.3 0 .3.1.6.2 1 .7-.2 1.5-.3 2.2-.4 0-.4 0-.6-.1-.9m-11.2-7.2v-.7c-1 .6-2.1 1.2-2.9 1.9-.2.2.3 1.1.5 1.8 1-1.2 1.7-2.1 2.4-3M142.6 9c0 .2 0 .5.1.7.8-.1 1.6-.1 2.4-.2 0-.3-.1-.6-.1-.9-.9.1-1.7.3-2.4.4m-4.7 4.9c-.1 0-.6.5-.6.6.1.3.4.6.8 1 .3-.4.8-.9.7-1-.2-.2-.5-.5-.9-.6m.2-12.1c.3.2.6.7 1 .7.3 0 .6-.4 1.2-.8-.6-.3-1-.7-1.3-.7-.4.1-.6.6-.9.8m3 27.6c.5.3.9.6 1 .5.3-.2.4-.6.7-.9-.3-.2-.6-.4-.9-.4-.2.1-.4.4-.8.8m-2.4-4.5h-2.1v.8h2.1zm-1.4-13.5c.4.1.9 0 1.3 0 0-.3 0-.5.1-.8-.5 0-1 0-1.5-.1.1.3.1.9.1.9M147 6c.7 0 1.4.1 2.1.1v-.9c-.7 0-1.5-.1-2.2-.1.1.3.1.6.1.9m4.5 12.9c.3-.4.7-.9 1-1.3-.5.2-1.1.3-1.6.5.3.3.4.6.6.8m1.4-1.5 2.4-.6c-.2-.4-.4-.7-.7-1.1-.5.6-1.1 1.2-1.7 1.7m1 3.6c.5-.2 1.1-.4 1.6-.6-.1-.3-.3-.6-.4-1-.6.2-1.1.3-1.7.5.2.3.3.7.5 1.1m-1.1-3.4.1-.1c-.1 0-.1 0-.1.1m-1.2-14c0-.1-.4-.4-.8-.8-.3.5-.6.8-.6 1.1 0 .1.6.5.7.5.3-.2.6-.5.7-.8m-1.1 10.8c0 .3 0 .7.1 1 .6-.1 1.2-.2 1.8-.2 0-.3-.1-.9-.1-.9-.7 0-1.3.1-1.8.1m-2.4-1.1h1.8v-.9c-.6.1-1.1.1-1.7.2-.1 0-.1.3-.1.7m.6-5.3c1.2 0 2.4.1 3.6.2V7c-1.2.1-2.4.3-3.5.4-.1.2-.2.4-.1.6m3.9 9.6c.1 0 .1 0 .2-.1l-.1-.1c-.1.1-.1.2-.1.2m-1-7.1c-.2 0-.5.3-.7.5.2.3.5.7.8.8.2.1.6-.2 1.1-.5-.6-.4-.9-.7-1.2-.8m-10.7-3.6c0 .3 0 .9.1.9.6.1 1.3 0 1.9 0v-1c-.7.1-1.4.1-2 .1m173 5.8c-1 .3-2 .7-3 1 1-.5 2.1-1 3.1-1.6v.1c.4-.7.8-1.4 1.3-2.3q-5.4 1.05-10.5 2.1c1 .6 2.1.4 3.1.6.8.2 1.5.7 2.2 1.1h.6l-.1.1s.1 0 .1-.1c.5.3 1 .7 2 1.3h-8.5v-.2c2-.4 3.9-.8 5.9-1.2-.5-.2-1-.4-1.6-.4h-10.6c1.4-1.5 2.2-2.4 3.1-3.3-.1-.2-.3-.4-.4-.6-1.5.7-3 1.4-4.5 2.2-.2-1-.4-1.6-.5-2.3-1.5 1-2.8 1.7-4.5 2.8 2.3.1 3.9.2 5.6.3v.8h-14.8c.5 1.3 2.9.5 1.9 2.5.6 0 1.7.2 1.9-.1 1.2-2 2.7-1.9 4.4-.9v-.3h9.1c-2.6.5-2.7.6-1.8 2h4.3l-.1-.1c.8-.1 1.7-.1 2.5-.2 0 .7.1 1.4.1 2.1.7-.3 1.4-.6 2.1-1s1.6-1.2 2-1c2.4 1 4.1.1 5.9-1.3.3-.2.9 0 1.4 0l-.1-.1c0-.3.2-.8 0-1-.5-.3-1-.6-1.6-1 .1 0 .1.1 0 0m-68.6-5.8h-3.2v.8c1.1 0 2.1.1 3.2.1zM232 12.1c.3 1.6.6 3.2 1 4.7 1-.7 2-1.4 3.1-2.2-1.3-1.1-2.3-1.8-3.2-2.6-.3.1-.6.1-.9.1M245.9.3V0h-3.8v.7c1.3-.1 2.6-.3 3.8-.4"/><path fill="currentColor" d="M229.9 17.8c0 .2.1.3.2.4.7 0 1.5-.1 2.2-.1v-.5c-.4-.2-.8-.4-1.2-.4-.5.1-.9.4-1.2.6M236.2 5c0 .3 0 .5.1.9.5 0 .9.1 1.4.1v-.9c-.5-.1-1-.1-1.5-.1m3.6-5H238c0 .1 0 .2-.1.3.7.1 1.3.1 1.9.2zm-1.3 1.3-2.1.3s0 .7.1.7c.7 0 1.4 0 2.1-.1-.1-.4-.1-.6-.1-.9m-25 25.9c.7-.1 1.3-.1 2-.2 0-.3-.1-.6-.1-.8-.7.1-1.3.2-1.9.4zm1.7-8.3c-.3.1-.6.5-.7.8 0 .1.5.6.6.6.4-.1.7-.5 1.1-.9-.4-.2-.8-.6-1-.5m12.3-6.8v.9c.6.1 1.2 0 1.8 0v-.9zm1.5 2.1v.6c.7 0 1.4.1 2 .1 0-.3 0-.7-.1-1-.6.1-1.2.2-1.9.3m-13.1-.4c0 .3.1.6.1 1 .5-.1 1.1-.2 1.6-.4 0-.3-.1-.6-.1-.8-.5.1-1.1.2-1.6.2M344 44.4v-.7h-1.8c0 .2 0 .4.1.7zm-7.9-4.3v.6c1.3.2 2.7.3 4 .4.1.6.1 1.1.2 1.5 1.3-.5 2.5-1 3.8-1.4V40c-.6-.1-1.2-.2-1.7-.2-2.2-.2-4.2.2-6.3.3M324 19.8c2.8.9 4.4.2 5.1-2.1-2.6-1.4-3.1 1.6-5.1 2.1M243.2 2.3c1.3.1 2.6.2 3.8.3-1.4-2-2.6-1.1-3.8-.3m100.6 35c0-.4.1-.8.1-1.2-.8.1-1.5.2-2.2.2v.9c.7 0 1.4 0 2.1.1M255.2.4V0h-2.9v.6c1-.1 1.9-.2 2.9-.2m-130 1.3c.6.1 1.2.2 1.8.2 0-.2.1-.5.2-.8-.6-.2-1.1-.3-1.7-.5-.2.4-.3.8-.3 1.1m118 .6q-.15 0 0 0m0 .1q-.15-.15 0 0c-.1 0-.1-.1 0 0m1 1.6c-.3-.5-.7-1-1-1.6 0 .6.1 1.2.1 1.7.3 0 .6-.1.9-.1m-117.5.5c-.3 0-.9.3-.9.5-.1.3.3.7.6 1.2.4-.5.8-.8.8-1.1.1-.1-.3-.7-.5-.6m71.7 8.9c0 .4.1.7.1 1.1.6 0 1.1-.1 1.7-.1 0-.4 0-1.1-.1-1.1-.5 0-1.1.1-1.7.1m2.6 13c.3.3.6.8.9.8s.7-.4 1.2-.7c-.5-.4-.9-.8-1.2-.8s-.6.5-.9.7m-4.6-7.3c.2.3.5.8.8.9s.7-.2 2-.8c-1-.4-1.4-.7-1.8-.7s-.7.4-1 .6m10.8 9.1c.2.4.5.8.9 1 .2.1.6-.4 1.2-.8-.6-.4-1-.7-1.4-.8-.2 0-.8.6-.7.6m-7.4-7.9-1.2 1.5c.6-.2 1.3-.3 1.9-.5-.3-.4-.5-.7-.7-1m3.2-6.1c1.7.2 3.4.6 5 .7.2 0 .5-.7.9-1.4H203zm5.7 17.6h-1.5v.9c.5-.1 1-.1 1.5-.2.1 0 .1-.7 0-.7m-23.6-5.1c-.2-.6-.4-1.2-.6-1.9-.2.6-.4 1.3-.6 1.9.4.1.8 0 1.2 0m2.3-1.6c-.2-.6-.3-1.1-.5-1.6-.8.5-1.6.9-2.3 1.3.9.1 1.9.2 2.8.3m11.1-3.3c-.1 0-.1 0-.2.1v.1c.2-.1.2-.2.2-.2m-1.8 1.8c1.9.7 2.2-.1 1.7-1.6-1.4.2-2.7.5-4.1.7q1.2.3 2.4.9m-9.7-.2q-.15-.15 0 0m19.9 12.9c-.4.6-.8 1.1-1.3 2 2.8.1 4.9.2 7.7.4-.9.9-1.7 1.5-2.4 2.3-.2.2-.3.7-.1.9.1.2.7.4.9.3.7-.3 1.5-.7 2-1.2.9-.9 1.6-2 2.6-3.2.1.1-.1-.4-.3-.4-2.1 0-4.1.3-6.1.2-1.1-.1-2-.9-3-1.3m2.5-8.9c.6 0 1.2-.1 1.8-.1 0-.3 0-.6-.1-.9-.6 0-1.2.1-1.8.2.1.2.1.5.1.8m.2-6.1c1-.7 1.9-1.3 2.8-2-.9-.3-1.6-.5-2.8-.9zm2.1 11.8c-2.1 0-2.5.3-2 1.8 1.4.3 2.3 0 2-1.8m-.1-12.1c0 .3.1.6.1.9.6-.2 1.2-.3 1.8-.5-.1-.3-.1-.5-.2-.8-.6.2-1.1.3-1.7.4m119.3-.7c-.3-.6-.5-1.2-.7-1.8-.1.6-.3 1.3-.4 1.9.4 0 .8-.1 1.1-.1M209.7 35h-.2v.2c.1-.1.2-.1.2-.2q.15 0 0 0m-2.7 1.2q-.15 0 0 0"/><path fill="currentColor" d="M209.6 35.1c-.8.4-1.7.7-2.6 1.1 1.2.4 2.5 1 2.6-1.1m2.2-10.5c.1.3.2.9.3.9.6-.1 1.1-.2 1.7-.4-.1-.3-.1-.5-.2-.8-.7.1-1.2.2-1.8.3m4.8-8.5c-.2.4-.5.8-.5 1.2s.3.8.4 1.2c.2 0 .3-.1.5-.1v-2.1c-.2-.1-.3-.1-.4-.2m66.2-7.2c-1.3.7-2.6 1.4-4 2.1.5 1 .8 1.7 1.2 2.6 1.2-1.4 2.2-2.6 3.3-3.9-.2-.2-.3-.5-.5-.8m-4.8-3c0-.1-.4-.5-.7-.9-.4.4-.6.8-.9 1.1.3.2.6.6.8.5.3-.1.7-.4.8-.7M274.4.3c-.1 0-.1.6 0 .6.6.1 1.1.1 1.7.2v-1c-.6 0-1.2.1-1.7.2m2.2 16.6c.1.3.3.7.4 1 1.5-.8 2.9-1.7 4.7-2.7-3-2.1-3.4 1.3-5.1 1.7M266.1 1.2c.7-.3 1.3-.6 1.9-.9.1 0 .1-.1.2-.3h-1.1c-.5.1-.9.2-1.3.3 0 .3.2.6.3.9m15.5 17.3h-2.1v1c.7-.1 1.5-.1 2.2-.2-.1-.3-.1-.6-.1-.8M271.4 1.9l1.9 1.9c.1-.6.3-1.1.4-1.7-.5-.1-1.2-.1-2.3-.2"/><path fill="currentColor" d="M273.3 3.8c-1-.1-1.9-.3-2.8-.4v.9c.9 1.1 1.9.4 2.8-.5m-.1-3.8h-2.6c-.1.3-.2.7-.3.9.8-.1 1.9.1 2.4-.4.1-.2.3-.3.5-.5m.9 4.8c.7 0 1.4-.1 2-.2v-.8h-2c-.1.3-.1.7 0 1m5.4 15.1c-.9.5-1.9.9-2.8 1.4 1.1-.1 2.1-.2 3.2-.3-.2-.3-.3-.7-.4-1.1m21-19.6V0H299zm-17.2 1.8h.1c-.1-.1-.1-.1-.1 0"/><path fill="currentColor" d="M279.7 2.7q0 .15 0 0c-.3.7-.6 1.3-.9 2 .7 0 1.3 0 1.9.1.9.1 1.8.3 2.8.4-1.2.5-2.4 1.3-3.6 1.5-2.6.3-5.2.2-7.8.4-.5 0-1 .2-1.4.3-.1 0-.1.6 0 .7.4.1.9.3 1.4.3h6.4v.4c-.7.3-1.3.5-2 .8.1.3.2.6.2.8.6-.1 1.3 0 1.7-.3 1.8-1.2 3.7-1.9 6-1.5 1.9.3 2.6-1 2.6-2.7-1.3-.2-2.5-.4-3.7-.6l2.7-.6c0-.2-.1-.5-.1-.7-1 0-2 .1-3 0-1.1-.2-2.1-.7-3.2-1 1.2.2 2.7 1.4 3.5-.7-1.1 0-2.3.2-3.5.4m5.7 4.6c-.7-.1-1.3-.2-2-.2v-.6c.7.1 1.3.2 2 .3zm-7.7 7.1c.4-.5.6-.8.8-1.1-.3-.2-.7-.5-1-.5-.2 0-.7.5-.6.7 0 .3.4.5.8.9m-3.9 6.9h2.8c-1.9-1.7-2.4-1.7-2.8 0m-.7-8c.4.2 1.1.6 1.3.5 1-.5 1.8-1.3 2.8-1.9-.3-.4-.6-.8-1-1.2-1.1.9-2.1 1.7-3.1 2.6M287.4.2c-.9 0-1.8.1-2.8.1V0h-5.7c-.4.3-.7.5-1.1.8 2 .4 3.7.8 5.5 1.2l.1.1V2c2.3-.6 4.6-1.3 6.9-2h-2.8c-.1.1-.1.1-.1.2m-163.6 27c-.7-.8-1.2-1.4-1.6-1.9-.1.7-.2 1.3-.4 2 .6 0 1.1-.1 2-.1m143.5-11.5c1.8.1 3.5 0 5.3 0v-1c-.6-.1-1.3-.1-1.9-.2-.8-.1-1.6-.1-2.4-.2-.5.1-.9.2-1.4.4.3.4.3 1 .4 1m1.4 9.2c3.2 0 6.4 0 9.6-.1.2 0 .4-.6.6-1h-10.1c-.1.4-.1.8-.1 1.1m24 5.6c.7 0 1.5-.1 2.2-.1v-.7h-2.2zM268 25.2c-.3 0-.7.3-1 .5.3.4.5.8.9 1 .2.1.7-.4 1.2-.7-.5-.4-.7-.8-1.1-.8m6.5 3.4c.3 0 .6-.2 1.1-.5-.5-.4-.7-.7-.9-.7s-.6.3-.7.6c-.1.1.3.6.5.6m19.9-13.4H292v.7l2.4.3zm2.4 12.8h-2.2c0 .2 0 .5.1.7h2.2c-.1-.2-.1-.5-.1-.7m36.6-7.4c1.3-.1 2.7-.2 4-.3v-.7h-4.1c0 .3.1.6.1 1m8.5-.3c-1-.6-1.5-.9-1.9-1.2-.2.4-.4.9-.6 1.3.7 0 1.2 0 2.5-.1m-57.6 2.4c0 .1.4.6.6.6.4 0 .7-.3 1.3-.6-.6-.4-.9-.8-1.2-.8-.2 0-.5.5-.7.8m25.6-5.2c-.7-.1-1.3-.3-1.9-.4-.1.3-.2.7-.2 1 .7.1 1.3.2 2 .3 0-.3 0-.6.1-.9m30.1 1.6q.15 0 0 0m-216.4 2.5c0 .2.4.5.8 1 .4-.5.7-.9.9-1.3-.3-.2-.7-.6-1-.5-.3 0-.7.5-.7.8m155.4 2c0 .1-.1.2-.1.3h.2c-.1-.1-.1-.2-.1-.3m-6.6-12.7c-.9-.1-1.7-.2-1.9-.2-.7-.8-1.3-1.5-1.4-1.5-.9.7-1.7 1.4-2.9 2.4h6.1c.1-.2.1-.5.1-.7m-3.8-2.8V7c-.8 0-1.5.1-2.3.1.1.4.1 1.1.2 1.1.6.1 1.3 0 2.1-.1m-3-2.4c-.5-.3-.9-.6-1.1-.5-.3.1-.5.5-.8.7.2.2.5.6.7.5.3 0 .6-.3 1.2-.7m3.2-3.8c-1.3.6-2.6 1.3-4.1 2.1 3 1.3 4.4.5 4.1-2.1m.4 10.8c-.3.5-.5 1.1-.8 1.6.5-.3 1.1-.6 1.6-.9-.2-.3-.5-.5-.8-.7m2.9 6.8 1.2-1.2c-.3-.3-.5-.6-.8-.9-.4.5-.8.9-1.1 1.4 0 .1.5.5.7.7m-6.6-17.7c-.6-.1-1.2-.2-1.7-.3 0 .4 0 .8-.1 1.1.6 0 1.2-.1 1.8-.1z"/><path fill="currentColor" d="M268.5 14.3s-.1 0-.1.1zM125.2 28c-1.1 1.2-1.7 2.1-2.5 2.9 0 .2-.1.3-.1.4.9-.5 1.8-.9 2.5-1.6.3-.2.1-1 .1-1.7m2.6-6.1c.6.1 1.2.1 1.9.2 0-.3 0-.6.1-1-.6 0-1.3.1-1.9.1-.1.3-.1.5-.1.7m162 25.2q0 .15 0 0m15.6-1.7c2.7 1.3 4.4-1.1 6.6-1.6h.2c-1.3 4.2 2.3 1 3.4 2.2-1.3.7-2.5 1.4-3.7 2.1h3.4c1.3-.8 2.5-1.5 3.6-2.2.1.8.3 1.5.4 2.2h1.7c0-.2-.1-.5-.1-.7l3.6-1.8c.1.1.2.2.2.4l-1.2 1.5c.1.2.3.4.4.6h.3c1.5-.6 3-1.3 4.4-1.9.1.6.3 1.2.4 1.9.6-.2 1.2-.5 1.7-.7.9-.4 1.8-.9 2.8-1.5.1.9.1 1.6.1 2.2 2.1-.8 4.1-1.5 6-2.2.1.2.2.5.2.8l-3 .9c.2.2.4.4.5.7h2.9c.9-.7 1.7-1.6 2.3-2.8h-8c0-.3 0-.6-.1-.8.6-.1 1.3-.2 1.9-.3h-.1c1.1.1 2.2.2 3.3.4-.1-.5-.1-.9-.2-1.4-1 .3-2 .7-3 1 .7-.8 1.5-1.7 2.3-2.6h-5.4c2.2-2.8 5.4-3 8.7-3.2-1.5-.6-3-.4-4.4-.6-1.5-.3-2.4.1-3.7 1.1-1.7 1.4-3.4 3.6-6.2 2.4h.5c.5-.2.9-.6 1.4-.9 0 0-.4-.7-.5-.7-.5.2-1.1.4-1.5.7-.2.2-.2.6-.3.9-.8.2-1.7.4-2.6.6 1.5.3 2.9.6 4.3.8-1.5 2.2-3.6 2.9-6.3 1.8 1-.1 1.9-.3 2.8-.4-1.5-1.5-2.3-.8-3 .4-.7-.4-1.3-.8-1.9-1.1-.5-.2-1.4-.4-1.7-.1-2 1.9-4 2.2-6.6.7 1.8.3 3.8 1.2 5-.6 1.1-1.6 1.9-1.3 3.3-.9.7.2 1.5 0 2.3 0 0-.3 0-.6-.1-1h-2.2c-.4-.9-.6-1.5-.9-2.1-.5.3-1.1.7-1.6 1-1.5.9-2.9 1.8-4.4 2.6l-.3-.6c.7-.5 1.4-1 2-1.6.2-.2.1-1-.1-1.3-.1-.1-1.1-.1-1.1.1-.8 1.9-2.6 1.5-4 1.7.4.4.9.7 1.6 1.3-1.2.1-2.2.1-3.6.2.6-.7.9-1.1 1.3-1.5-2.9-.6-6.2-.3-7.4 1 1.7-.1 3.1-.2 4.5-.2v.7c-1.5-.1-3.1-.2-4.6-.2-.5 0-.9.5-1.4.8.4.3.7.7 1.2.8.4.1.8-.2.8-.2.3 1.1.5 2.1.8 3 .8-.9 1.7-2 2.1-1.8m29.2-2.8v.4c-.7.1-1.4.2-2.1.2v-.6zm-2.3 1.4c0 .1 0 .2.1.4-.8.2-1.6.5-2.4.7 0-.2-.1-.4-.1-.6.8-.2 1.6-.4 2.4-.5m-9.7.4c-.1.1 0 .1 0 0-.1 0-.1.1 0 0m-200.1-6.5c0 .3.4.6.7 1.2.4-.6.8-1 .7-1.2-.1-.3-.5-.6-.9-.7-.1 0-.5.5-.5.7m3-5.1v-.6c-.4-.1-.9-.1-1.3-.2 0 .3-.1.6-.1.8z"/><path fill="currentColor" d="M307.7 47.8c-.9-.8-1.7-1.7-1.9-1.5-.7.5-1.3 1.1-2.1 1.8h7.9c-1.4-3.9-3-.3-3.9-.3m-4.4-.9c-.9-.1-2.5-.6-2.7-.3-1.1 2-2.9 1.3-4.5 1.5h6.2c.4-.4.7-.8 1-1.2M126.4 36c0-.2-.5-.6-.7-.6-.4.1-.6.5-.9.7.2.3.5.6.9 1.1.3-.6.6-.9.7-1.2m7.9-15.9h2.1v-.7h-2.1zm160.2 26c-1.6.4-3.2.7-4.8 1.1-.1.3-.2.6-.2.8h3.5c.5-.4 1.1-.9 1.6-1.3 0-.2 0-.4-.1-.6m-.5-.9c1.9.2 3.3.4 4.8.5.4 0 .8-.4 1.3-.6-.2-.3-.4-.9-.6-1-1.7-.1-3.3-.1-4.9 0-.3 0-.5.8-.6 1.1M127.4 19.6c-.1-.3-.4-.6-.8-1-.3.5-.7.8-.6 1 .1.3.5.6.8.7.1 0 .6-.5.6-.7m162.4 27.6q-.15 0 0 0m7.8-4.8c-.8.2-1.5.3-2.2.4 0 .3 0 .5.1.8.8-.1 1.5-.2 2.3-.2-.1-.4-.1-.7-.2-1M229.9 0h-1.5c.1.2.1.4.2.5.4-.1.9-.3 1.3-.5M127.7 22.9h-2.1v.8c.7.1 1.4.1 2 .2.1-.4.1-.7.1-1m208.4 21.3h.1zm-11.5-2.3h.1c0-.1 0-.1-.1 0m-14.5-.7h.1zM134 24h2.1s0-.6.1-.9h-2.1c-.1.3-.1.6-.1.9m86.2-17.2c.1.4.5.9.7.9 1.6-.1 3.2-.2 4.7-.4 0-.2 0-.3-.1-.5-1.5-.2-3.1-.4-4.7-.6-.1-.1-.6.5-.6.6m-67.4-1.4c.3.4.6 1 1 1.3.2.1.8-.4 1.5-.8-.7-.5-1.1-.9-1.6-1.1-.1-.1-.5.4-.9.6M148.4.9q-.15 0 0 0m4.1 12.5h7.4v-.9h-7.4zm1.2-4.8c-.3 0-.6.5-.8.8.3.3.6.5 1 1 .3-.5.7-.8.7-1.1-.1-.3-.6-.7-.9-.7m-1.4-6c.7 0 1.5.1 2.2.1 0-.4 0-.7.1-1h-2.3zM141.5.7c.6.1 1.3.1 2 .1V.7c1.6 0 3.3.1 4.9.1V.7c.7.1 1.4.4 2 .3s1.1-.6 1.6-.9c-.1-.1-.2-.1-.3-.2h-11.9v.2c.5.2 1.1.5 1.7.6"/><path fill="currentColor" d="M146.5 2.5c.6.1 1.2.1 1.8.2V.9c-.6.3-1.3.7-1.9 1 .1.2.1.4.1.6m-11.7 10c.3.3.6.8 1 .9.2.1.6-.4 1.1-.8-.5-.4-.9-.7-1.2-.7s-.6.4-.9.6M143.5.8c-.5.4-1 .8-2 1.4 2.3.5 2.8.1 2-1.4m12.3 10.4c.2.2.4.6.7.7.2 0 .5-.2 1-.5-.4-.4-.6-.9-.8-.8-.3 0-.6.3-.9.6m60.8-9.4h4.7c-2.1-1.6-3.4-1.3-4.7 0m-.9 5.1c.4.2.9.7 1.2.6.9-.4 1.8-.9 3.2-1.7-1-.7-1.6-1.3-1.7-1.2-.9.7-1.8 1.5-2.7 2.3"/><path fill="currentColor" d="M216.5 2c0-.1.1-.1.1-.2l.1-.1h-.1c-.1.2-.1.3-.1.3m8.9 7v-.5c-.8-.1-1.6-.3-2.4-.4 0 .4-.1.8-.2 1.2.9-.2 1.7-.2 2.6-.3m-9.1-5.1c.1-.6.1-1.2.2-1.8-.4.5-.8 1-1.1 1.5.2 0 .5.2.9.3m17.2 5.8c.1-.3.1-.5.2-.8-.6-.2-1.1-.3-1.7-.4-.1.3-.1.6-.2.8.6.1 1.2.2 1.7.4m-62.7-7.4c.3.3.6.8 1 .9.2.1.6-.5 1-.9-.5-.4-.8-.8-1.1-.8-.3.1-.6.5-.9.8m-4.9 8.7c-.9.6-1.9 1.3-3.1 2.1 2.7.8 3.2.4 3.1-2.1m15.8-8.8c-.8 0-1.5.1-2.3.1V3c.8 0 1.5.1 2.3.1zm-23.9 7.1c.2.4.4.7.8.9.1.1.7-.3.7-.5 0-.4-.3-.7-.6-1.2-.4.3-.9.7-.9.8m15.1-4.5h6.9V4h-6.9zM165 30.3c.6-.1 1.2-.1 1.7-.2v-.6c-.6-.1-1.2-.1-1.8-.1 0 .2.1.5.1.9m20.2-11.4c-.2-.3-.4-.7-.7-1.3-.4.5-.8.7-.9 1 0 .2.3.8.5.7.4.1.7-.2 1.1-.4m4.6-5.8v.8c2.1 1.1 4.2.4 6.2.1 0-.3 0-.6-.1-.9zm3.1-3.3c-.1-.1 0-.1 0 0m1.4 9.4c-.6-.4-1-.7-1.3-1-.2.3-.6.7-.6 1s.5.8.8.8.6-.4 1.1-.8m-8.4-2.6c0 .4 0 .7-.1 1.1.9-.1 1.8-.1 2.6-.2v-.4c-.8-.1-1.6-.3-2.5-.5m4.3 3v-1c-.6 0-1.2.1-1.8.1 0 .3 0 .9.1.9.5.1 1.1 0 1.7 0m2.1-11.9c.2.7.4 1.3.5 2 .3-.6.7-1.2 1.2-2.2-.8.1-1.3.2-1.7.2m102-3.6c-.7 0-1.3-.1-2-.1 0 .4 0 .7.1 1.1.6-.1 1.3-.2 2-.3-.1-.3-.1-.5-.1-.7m-105.2 6.2c1.4.8 2.6.6 3.7-.5-1.3-.4-2.7-1-3.7.5m-1.9 11.3c.1 0 .2-.7.3-1.1-.7-.1-1.4-.2-2-.2-.1.3-.1.6-.2 1 .6.1 1.2.2 1.9.3m-1.9-11.4c.5.1 1.1.3 1.6.3.7 0 1.3-.1 2-.2-1.1-.4-2.2-.8-3.2-1.2-.2.4-.3.8-.4 1.1m-14.4 14.9q0-.15 0 0c-.1 0 0-.1 0 0m12.7-9.6c.2.3.5.6.9.7.2 0 .4-.4.9-.8-.5-.3-.9-.6-1.2-.6-.3-.1-.7.5-.6.7m-16.3 13.2c1-.4 1.9-.8 2.8-1.2-1 0-2.1-.1-3.1-.1.1.4.2.8.3 1.3M183 13.1c-1.4-.2-2.8-.3-4.2-.5h.1c-1 .2-2 .3-3.1.5.1.2.1.5.2.7h7zm-12.9 14.4h.1c0-.1 0-.1-.1 0q.15-.15 0 0M126.8 8.1c-.3 0-.6.4-.9.6.3.4.5.8.9 1 .1.1.6-.4 1-.8-.4-.3-.7-.8-1-.8m52.5 10.1c0 .3-.1.5-.1.8h2.6v-.4c-.9-.1-1.7-.2-2.5-.4m-3.2 2.9h6.3c0-.2.1-.5.1-.7h-6.3c-.1.2-.1.4-.1.7m-4.7-1.9c0-.3-.1-.6-.1-.9h-1.8c0 .4.1 1.1.2 1.1.5-.1 1.1-.2 1.7-.2m8.6 2.7c-3.1 0-6.2-.3-9.2-.3-.4 0-.8.6-1.3.9.4.2.9.6 1.3.6 1.8.1 3.7 0 5.5 0v.7c-1-.1-2-.3-3-.1-.8.1-1.5.7-2.2 1.2 2.2-.2 4.4-.3 6.3-.4 1-.5 1.8-1.2 2.6-1.2 2.3-.1 4.6 0 7 0l6.9.3c.2 0 .3-.6.5-1-.4-.2-.8-.5-1.2-.6-4.5 0-8.8 0-13.2-.1m-9.8 5.5c.2-.8.4-1.6.6-2.3-1.8.3-1.3 1.3-.6 2.3m.7-2.4.1-.1c0 .1-.1.1-.1.1m24.2 22.1c2.6.8 2.3-.5 1.4-2.4-.8 1.3-2.9 1.7-2.8 3.3h1.3c.1-.3.1-.6.1-.9m83.9.5h-2.8v.4h2.8zm-20.2-1.2v-1h-2.3c0 .4.1 1.1.1 1.1.7 0 1.5 0 2.2-.1m-11.2-1.5c-1.1 1.1-2.1 2-3 2.9l.2.2h1.2c1.3-.8 2.7-1.5 4-2.3-.8-.2-1.6-.5-2.4-.8m-4.1 2c-.1-.6-.2-1.2-.3-1.7-1.1.7-2.1 1.5-3.4 2.3.3.2.5.4.8.6h3.1c-.1-.5-.1-.9-.2-1.2m31.3-.1c.9-.1 1.8-.2 2.6-.3v-.4c-.9-.1-1.7-.3-2.5-.4 0 .4 0 .8-.1 1.1m24.8-9.8c-.7.1-1.5.1-2.2.2.1.5.3 1 .4 1.4.7-.3 1.3-.5 2-.8 0-.2-.1-.5-.2-.8m-10.4 5.4q0-.15 0 0 .15-.15 0 0v-.1z"/><path fill="currentColor" d="M289.7 47.2c.6-.7 1.1-1.4 1.7-2.1l1.8-2.1c-.3-.3-.5-.6-.8-.8-1.3.7-2.5 1.3-3.9 2 .3-.7.4-1.3.6-1.8-2.4.1-4.8.2-7.1.4l3.6.6v.4h-4.9v-.6c.5-.1.9-.2 1.4-.3-1-.3-1.9-.6-3-.9-.1 3.2.7 3.7 5 3.2-1.2 1.1-2.1 2-3 2.9h1.8c.7-.4 1.5-.8 2.2-1.2.1.4.1.8.2 1.2h2.5c.6-.4 1.3-.7 1.9-.9q.15 0 0 0m8.2-8.4v-.2c-.1 0-.1 0-.2.1v.2s.1-.1.2-.1"/><path fill="currentColor" d="M297.2 41.6c2.6.6 3.7-.4 5.1-2.2-.7-.3-1.4-.2-2 .1-.8.4-1.5.9-2.4 1.5-.1-1.1-.2-1.6-.3-2.2-1.6.5-3.2 1-4.6 1.5-.3-.4-.7-.9-1-1.4-.4 1.6-3.4.9-2.8 3.3 2.7-.2 5.5-1.2 8-.6M163.3 33c.2 0 .4 0 .6.1.1-.8.2-1.5.4-2.3-.3 0-.5-.1-.8-.1-.1.8-.2 1.6-.2 2.3m9.3 4.4v-.8h-2.3c0 .3 0 .7.1 1 .7 0 1.4-.1 2.2-.2m-.8 4.2c.3-.2.5-.6.6-.9 0-.2-.4-.4-.8-.8-.3.6-.5.9-.6 1.3.1.1.7.4.8.4m13.1 6.4h1.3c-.3-.3-.5-.5-.7-.5-.2.1-.4.3-.6.5m-21.1-20.8c-.6 0-1.1.1-1.7.2.1.3.2.6.2.9.5-.1 1.1-.1 1.6-.2 0-.3 0-.9-.1-.9m-.7 10.3c0-.2.1-.4.1-.6-.6-.1-1.1-.3-1.7-.4 0 .2-.1.7-.1.7.6.1 1.1.2 1.7.3m17.4 9.6c-.3.3-.6.6-1 .9h1.2c0-.3-.1-.6-.2-.9m0-.1v.1c.1 0 .1 0 0-.1m-5.4 1h1.5c-.4-.3-.6-.6-.9-.7-.2 0-.5.4-.6.7m-.3-9.3h-2v.9h2zm-1.9 5.8c0-.2-.1-.4-.1-.6h-1.5c.1.4.1.7.2 1.1.5-.1 1-.3 1.4-.5m57.5-5.2c.5 1 .8 1.5 1.1 2 .5-.5.9-1 1.4-1.6-.6-.1-1.3-.2-2.5-.4m-102.5-9.6c-.2-.1-.5-.3-.8-.4-.3.5-.6 1-.8 1.6 0 0 .4.3.6.4.4-.5.7-1 1-1.6m50.1-1.5c0-.3-.1-.6-.1-.9-.8.1-1.5.3-2.3.4 0 .2.1.5.1.7.8 0 1.6-.1 2.3-.2m-51.5 11.5c-1.5.5-2.6.8-3.5 1.2-.3.1-.5.5-.6.8 0 .2.2.7.3.6.9-.2 1.9-.3 2.6-.7.6-.4.8-1.3 1.2-1.9m70.8-1.5h6.1l-.7-2.1v-2.9c-.9.1-1.8.2-2.6.3-.1.2-.2.3-.2.5-.2.5-.4 1-.7 1.4-.6 1-1.2 1.7-1.9 2.8"/><path fill="currentColor" d="M200 33.6q-.15 0 0 0 0-.15 0 0c.6-.6 1.1-1.2 1.9-2.1h-2.7c.2 1 .4 1.8.6 2.5 0-.1.1-.3.2-.4m-71.7.9c0-.3.1-.5.1-.8h-1.5s-.1.7 0 .7c.5.1 1 .1 1.4.1m.2 7.3c0-.2-.4-.7-.5-.7-.3.1-.7.3-.9.6-.1.1.3.5.5.8.5-.3.9-.4.9-.7m74.9-9.5c0 .2.4.4.7.6.2-.3.6-.6.6-1 0-.1-.4-.4-.8-.8-.2.5-.5.9-.5 1.2m1.3-14.7c0-.3-.3-.5-.5-.8-.3.2-.7.4-.9.7-.1.1.3.5.9 1.5.3-.7.5-1 .5-1.4m-4.1 7.2c-.3-.3-.5-.6-.9-1-.3.4-.7.6-.7.8.1.3.4.8.7.9.2 0 .6-.5.9-.7m-2.3 3.9c1.6.1 3.2.1 4.7.4 1.7.4 1.9-.3 1.7-1.6-2.1.1-4.3.2-6.5.3.1.4.1.7.1.9m6.5-3.2c.1-1.2-1.1-2-1.2-1.2-.1.9.6 2 1 3 0 .1.1.1.2.2 0-.2-.1-.3-.1-.5 0-.5.1-1 .1-1.5m-28.5 11.9c0-.3 0-.5-.1-.8-.6 0-1.2.1-1.8.1 0 .3.1.6.1.9.6-.1 1.2-.1 1.8-.2m20.9-2.5c-.9.1-1.9.2-2.8.2 0 .4.1.8.2 1.2.9-.1 1.9-.2 2.8-.3-.2-.3-.2-.7-.2-1.1m-21-1v-1.1c-.7.1-1.5.1-2.2.2v.7c.7.1 1.4.2 2.2.2m24.7-3.2c.6 0 1.2-.1 1.8-.2v-.6h-1.8zm-6.4 8.2c-.7 1.1-1.2 1.9-1.8 2.8.7.1 1.3.2 2.4.4-.3-1.3-.4-2.1-.6-3.2M130 25.1c0-.2-.5-.6-.7-.5-.3.1-.8.4-.8.7 0 .4.3.8.6 1.5.6-1.1.9-1.4.9-1.7m-.3 4.6c.1 0 .5-.6.4-.8-.1-.3-.5-.6-.9-1.1-.3.6-.6 1.1-.5 1.3.2.4.6.5 1 .6m69.1 3.5c-.3-.2-.9-.3-1.2-.1-.2.2-.4.9-.2 1.1.1.2.7.4 1.1.4s.8-.3 1.2-.5c-.3-.3-.5-.7-.9-.9m6.4 1.6c-.8.4-1.7.9-2.5 1.3 1.1.9 2.1 1 2.5-1.3m-5.5-.7q.15 0 0 0m12.8-2.5c-.2 0-.4.9-.7 1.5 2.1-.2 4.2-.3 6.3-.5-1.9-.7-3.7-1-5.6-1m-4.4 9.2h.3v-.1h-.1c-.1 0-.2 0-.2.1m10.4-5.1c-.6-.3-1.1-.6-1.7-.9.4-.3.7-.4 1.1-.7-2.7-1.3-4.3-.4-5.8 2.2h6.3c.1-.2.1-.4.1-.6m-11.2 11.6h3.2c0-.4 0-.7-.1-1.1-1 .1-2.1.1-3.1.2zm1.1-4.5c0 .3.1.6.1.9.5-.1 1.1-.2 1.6-.2 0-.3-.1-.6-.1-.9-.6.1-1.1.2-1.6.2m9.3-4.2c-.6 1.1-.8 1.7-1.2 2.2-.3.3-.9.4-1.3.6 3.1.1 3.1.1 2.5-2.8m-97-1.9c.3 0 .7-.3 1.3-.6-.6-.4-.9-.8-1.2-.8s-.6.5-.9.8c.4.2.6.6.8.6m91.7 6.7c.1.3.6.6.9.8.2-.3.7-.6.7-.9s-.5-.6-.9-1.1c-.4.5-.8.9-.7 1.2m3.5.3h2.1v-.6h-2.1c.1.1.1.4 0 .6m-1.1 1.2c.1.3.4.7.6.9.1.1.7-.3.7-.4 0-.3-.3-.6-.5-1.1-.4.2-.9.5-.8.6m-8.7-22.7c-.3.4-.7.9-.6 1 .2.3.6.6.9.7.1 0 .7-.5.6-.7-.1-.4-.5-.6-.9-1m6.9 24.4v.9c.6 0 1.2-.1 1.8-.1v-.9c-.6 0-1.2 0-1.8.1m-9.2-.1c.1.4.4.9.6.9.3 0 .7-.4 1.3-.7-.5-.4-.8-.7-1.2-.8-.2 0-.8.5-.7.6m-4.8.5h1.8v-.9c-.6 0-1.3.1-1.9.1.1.3.1.5.1.8m7.2-4.8c.6-.5 1.2-1 1.9-1.4l-2.4.3c.1.3.3.7.5 1.1m.1-9c-.3.1-.7.5-.7.8 0 .4.3.8.7 1.7.6-1.3.9-1.6.8-1.9-.2-.2-.7-.6-.8-.6m2.5-15.8c-.6-.1-1.2-.2-1.8-.2v.9h1.8zm-6.4 25.4h-2.6c0 .3 0 .6.1.9.9-.1 1.7-.2 2.6-.3-.1-.2-.1-.4-.1-.6m-.1 5.2q-.15 0 0 0h.4c-.2 0-.3-.1-.4 0m6.6-8.9c-.1-.1-.6.1-1 .2.1.5.2.9.4 1.3.4 0 .7-.1 1.1-.1-.1-.5-.2-1-.5-1.4m-11.6.2c-.4-.3-.8-.7-1-.6-.3 0-.6.5-.9.8.3.3.7.6 1 1 .2-.4.5-.7.9-1.2m1.2 8.7h.4v-.3c-.1.1-.3.2-.4.3m3.1-9.3c-.6.2-1.1.4-1.7.6.1.3.2.6.3 1 .6-.2 1.1-.4 1.7-.6 0-.3-.1-.6-.3-1M180.7 47c1.1-.1 2.1-.2 3.8-.4-2.3-2.1-3-.6-3.8.4m11.5-8.2h-6.8c.9-.8 1.4-1.2 2.2-1.9-1.1 0-2.2-.3-2.6 0-2.1 2.3-4.5 1.8-6.9 1.1-.6.3-1.2.6-1.7.9.1.2.2.5.2.7h3.4c.2.7.5 1.3.8 2 1.5-2.5 3.7-1.9 5.7-1.9h5.8c-.1-.2-.1-.5-.1-.9"/><path fill="currentColor" d="M185.5 40.4c-.3.1-.5.5-.8.8.3.2.6.6 1 .6.3 0 .6-.4 1.1-.9-.6-.2-1-.5-1.3-.5m2.3 1.9c-.2.5-.3 1-.5 1.5l1.5-.9c-.4-.2-.7-.4-1-.6M187 44c-.6.2-1.2.3-1.8.5.2.3.3.6.5.8zm7.9.4-3 .3c1 .2 1.9.5 2.9.7 0-.3 0-.7.1-1m-3.1.3h.1zm-3.8 2.5c.3-.1.6-.5 1.1-.9-.5-.3-.9-.6-1-.6-.3.2-.6.5-.8.9 0 .1.5.6.7.6m-59.1-14.7c.2.2.4.6.7.6.2 0 .5-.2 1-.5-.4-.4-.7-.9-.8-.8-.3.1-.6.5-.9.7m62.9 12.1c.2-.7.4-1.5.8-2.6-2.9.9-.9 1.8-.8 2.6M178.1 38c1.2-.2 2.4-.3 4.2-.6-2.2-1.4-3.3-.8-4.2.6m9.2 5.8s-.1 0-.1.1l-.1.1c.1 0 .1 0 .2-.1-.1 0-.1 0 0-.1m70.3-9s-.6-.4-.9-.7c-.4.6-.7 1.2-.9 1.4-1.4.2-2.7.4-4 .5l.9-1.5c-.2-.2-.3-.4-.5-.6-.9.4-1.8.8-2.7 1.3.7.3 1.5.6 2.2.9-1.1.1-2.1.2-3.5.3.9 1.3 1.4 2 2 2.9.1-2.9 1.6-2.4 3.1-1.9.9-.2 2-.1 2.8-.5.7-.5 1.1-1.4 1.5-2.1m-86.7-7.1c.2.4.4.7.7 1.1 1.4-.9 2.8-1.7 4.1-2.6-.3-.4-.5-.8-.8-1.2-1.3.9-2.6 1.8-4 2.7"/><path fill="currentColor" d="M254.6 41c.2-.1.5-.9.4-1.2-.4-.9-1-1.6-1.5-2.5-.6.5-1.3 1.1-1.9 1.6.6.2 1.3.3 1.9.5-.1.4-.2.9-.3 1.3.5.2 1 .4 1.4.3m-120.7-3.1-3-.3v1.1c1-.1 2-.2 3-.2zm83.6 8.3c-.2 0-.6.5-.6.7 0 .3.4.6.7 1.1h.1q.6-.75.9-1.2c-.3-.2-.7-.5-1.1-.6m25.8-5.1q.15 0 0 0m3-.9c-1.3-1-2.2-.6-2.9.9h3c-.1-.3-.1-.6-.1-.9M132.4 23.3c-.6-.2-.9-.5-1.2-.5-.2 0-.4.4-.6.6.3.2.6.5.9.6.2.1.4-.3.9-.7m111 17.8c-.2.5-.4.9-.6 1.4.9-.1 1.7-.1 3.2-.3-1.3-.5-2-.8-2.6-1.1m3.3-2.5c0 .3.6.9 1 .9s.7-.6 1.3-1.1c-.6-.4-1.1-.9-1.4-.9-.4.1-.9.7-.9 1.1m6.8-1.3c-.1-.1-.1 0 0 0q-.15-.15 0 0m-71.6-5.2h2.1v-.6c-.7 0-1.4-.1-2.1-.2zm12.6 1.1c-.8 0-1.6.1-2.4.1v.9h2.4zm-2.2 2.9c.1-.3.1-.6.2-.9-.9-.1-1.9-.2-2.8-.3.4 2.1 1.5 1.6 2.6 1.2M181 27.6v.7h2.2v-.7zm8.7 7.2c0 .1-.1.1 0 0m-9.8.1c.3-.6.7-1.1 1-1.7l-.5-.5c-.7.2-1.3.4-2 .6.6.6 1 1.1 1.5 1.6m-.1.1c-1.2-.1-2.4-.3-4.2-.5 1.9 2.3 3 1.1 4.2.5m0-.1c.1.1 0 .1 0 0m-.5-4.4c.7-.1 1.5-.2 2.2-.3v-.6h-2.2q-.15.3 0 .9m10.4 4.3s0-.1-.1-.1c0 0 0 .1.1.1m42.6 2.1c.1-.2.2-.5.2-.8-1.7-1-3.4-2-5.5-3.2 0 0-.2-.6-.3-1.2h-.5c-.2.6-.4 1.3-.6 1.8h-4.3c.4-.5.8-.9 1.1-1.4-.5 0-1.1-.1-1.6-.1.1.4.2.9.3 1.3-.8.2-1.6.4-2.6.6 4.4 4.7 9.5 1.6 13.8 3m-5.5-2.3c.1.2.2.4.2.6-1.2.2-2.4.4-3.5.6 0-.2-.1-.4-.1-.6 1.1-.1 2.3-.3 3.4-.6m-54.5-4.4c0 .1-.1.1 0 0q0 .15 0 0m4.6 16.5h2.2v-1.1c-.8.1-1.5.1-2.3.2.1.3.1.6.1.9m2.8-4.6c-1.3.1-2.5.2-3.7.2v.6c1.2 0 2.5.1 3.7.2z"/><path fill="currentColor" d="M173.1 31.9c-.3-.5-.6-1.1-.8-1.6-.1.6-.2 1.2-.4 1.7.4 0 .8-.1 1.2-.1m15.9 1.3c.2.5.4 1 .7 1.5l.3-1.5zm-8.4 13.9q0-.15 0 0M194.4 25h2.1v-.7h-2.1zm.2 2.9s.1.9.2.9c.6 0 1.3-.1 1.9-.2-.1-.4-.1-.7-.2-1.1-.6.1-1.3.2-1.9.4"/><path fill="currentColor" d="M175.4 29.6h-5.8v.7h2.6c1.1.1 2.1.1 3.2.2zm14.3-3.9c-.8.1-1.6.2-2.4.4v.6c.8.1 1.6.2 2.4.2zm-2.3 5.1c-.4 0-.9.6-1.4.9-.4.4-.7.8-1.2 1.1-1.3.9-2.6 1.7-4.3 2.8 2.6.2 4.9.4 7.2.6.2 0 .5-.5.5-.8s-.3-.7-.6-.8c-.6-.1-1.2 0-2.6 0 1.6-1.1 2.5-2.3 3.5-2.4 2-.2 4.2.1 6.2.2.4 0 .9-.1 1.4-.2.1 0 .1-.6 0-.7-.4-.2-.8-.3-1.2-.4-2-.1-3.9-.2-5.8-.3 1-1.1 1.7-2 2.7-3-2-.2-3.9-.5-5.7-.6-.2 0-.5.6-.7.9.4.3.8.8 1.2.8.7-.1 1.4-.4 2.2-.7v2.6c-.3.1-.9.1-1.4 0m56 7.5c-.8-.1-1.6-.1-2.4-.2 0 .3 0 .5-.1.8.8.1 1.5.3 2.3.4.1-.2.1-.6.2-1M344 3.2h-.7c.2-.2.4-.5.7-.8v-1c-.6.1-1.1.2-1.6.3.3.5.6 1.1.9 1.6h-2.5c0 .1 0 .3.1.4.9.5 1.7.9 2.6 1.4.1 0 .3-.1.4-.1V3.2zm-3.3 6.3c1.1 0 2.2.1 3.3.1v-.7h-1.8c.8-.7 1.3-1.3 1.8-1.7v-2h-.4c-.6.1-1.2.1-1.9.2.4.3.8.6 1.1.8-1.6.7-3 1.4-4.2 2-.6-.7-1.3-1.8-1.7-1.7-2.9.5-6.3-.5-8.6 2.2.7.3 1.5.7 2.2.9 1 .2 2.1.1 3.1.1 2.4-.1 4.7-.2 7.1-.2m-10.2 1.6h2.7v-.8h-2.7c.1.3 0 .6 0 .8M123.1 9.2v-1c-.7.1-1.4.1-2.1.2v.8zm.2-4.6c-.8-.1-1.6-.2-2.5-.3 0 .4-.1.7-.1 1.1.8 0 1.7.1 2.5.1.1-.3.1-.6.1-.9m209.8 1.2c.7 0 1.4.1 2 .1v-1c-.7 0-1.4.1-2.1.2.1.2.1.5.1.7m4.8-2.9c-1 .2-2 .3-3 .5 0 .2 0 .4.1.6h3.1c-.1-.3-.1-.7-.2-1.1M323.5 0H320c-.8.7-1.2 1.1-1.7 1.4 2.4 2.3 3.5.2 4.8-1.1.3-.1.4-.2.4-.3m-8.6 2c.6-.1 1.1-.2 1.7-.3 0-.3-.1-.5-.1-.8-.6 0-1.1.1-1.7.1 0 .3.1.7.1 1m7.9.4c.1.1.1 0 .1 0 0 .1-.1 0-.1 0m-1.7 1.4h3.6c-1-.7-1.5-1-1.8-1.3-.6.3-1.2.5-1.8.7zm-60.7 1.3c-.9.3-1.7.6-2.6.9.9.1 1.8.2 2.8.3 0-.4-.1-.8-.2-1.2M119 3.3c.2.2.4.5.5.8 1.1-.8 2.2-1.6 3.8-2.8-3.1-1.2-3.1 1.3-4.3 2m141.4 4c.7.8 1.2 1.4 1.7 1.9.2-.7.4-1.5.6-2.2-.7.1-1.5.2-2.3.3"/><path fill="currentColor" d="M252 7.1c0-1 .1-1.6-.1-2.1 0-.1-.9-.3-1.2-.1-1 .8-1.9 1.7-3.3 3h3.6V10c2-2.8 4.9-2.1 7.7-2 0-.2 0-.4-.1-.6-.8-.2-1.6-.5-3-.9 1.1-.3 1.6-.4 2.1-.5.5-3 3.4-1.1 5.2-2.2-4.7-2.2-7.4 2-10.9 3.3m58.1-4.9c.4.1 1 .1 1.2-.1.4-.4.6-1.1.8-1.6 1 .2 1.7 0 2.2-.4H312v.6c-.4 0-.9-.2-1.3-.1-.4.2-.8.5-1.1.9-.1 0 .3.6.5.7M118.4 22.4c-.6.1-1.1.2-1.7.4.1.3.1.9.2.9.6 0 1.1-.1 1.7-.2-.1-.4-.2-.7-.2-1.1M261.2 0c.1.4.2.8.2 1.2l1.8-1.2zm-6.6 2.1c0 .3.4.8.7.8s.7-.4 1.2-.7c-.5-.4-.8-.8-1.2-.9-.1 0-.7.5-.7.8m3.1-1c.2 0 .7-.4.7-.6s0-.4-.1-.5h-1.5l-.9.9c.6.1 1.2.2 1.8.2m.8 1.4h2.2v-.8c-.7.1-1.4.1-2.1.2-.1.2-.1.4-.1.6"/><path fill="currentColor" d="M254 3.3c-.5.1-1.1.1-1.6.2.1.3.1.9.2.9.5 0 1-.1 1.5-.2 0-.4 0-.7-.1-.9M343.6 39h.4v-.8h-.4zM121.3 12.7h2c0-.2 0-.4.1-.6-.6-.2-1.3-.3-1.9-.4 0 .3-.1.7-.2 1m.3 11h1.7c0-.2.1-.5.1-.7-.6-.1-1.1-.3-1.7-.4 0 .3 0 .7-.1 1.1M289.4 6c1 2-1.7.7-1.6 2.5.9-.1 1.9-.2 2.8-.4h.1c1.5-.6 3.1-1.1 5.1-1.8 0 0-.2-.7-.4-1.3-1.2.2-2.4.5-3.6.7zm6-1q0-.15 0 0c-.1 0-.1-.1 0 0M122.2 25.3c1 .1 1.9.2 2.9.3-.1-.4-.1-.8-.2-1.2q-1.2.45-2.7.9M300.3 4.2q0 .15 0 0m-10.4 7c-.9 0-1.9-.1-2.8-.2 0 .3 0 .6-.1 1 .9.1 1.9.2 2.8.2 0-.3.1-.6.1-1M318.5.1c.2 0 .3 0 .5-.1h-1.6c.3.1.7.1 1.1.1m-17.8 12.3c1 .1 1.9 0 2.8-.4 1.1-.5 2-1.3 2.8-1.8-2.4-1-2.4-1-5.6 2.2"/><path fill="currentColor" d="M298.7.7c-2.7-1.3-3.4.8-4.3 2.9 1.9-2.3 3.9-2.3 6.1-2-2.1 1.4-3.6 2.4-5 3.4 1.2.4 2.6 1.5 3.2-.8 0-.1 1.1.1 1.7.1.1-.6.1-1.3.3-2.6 1.5.2 3 .6 4.5.5-1.6.7-3.2 1.4-4.7 2.2-.7.7-1.4 1.5-2.1 2.2 0 .2.1.4.1.6 1.1-.2 2.3-.5 3.9-.8.1.1.6.5 1 .9-.6.4-1.1.7-1.6 1.1.6.1 1.1.3 1.7.4.8.1 1.6 0 2.4.1 3.6.5 7.1 1 9.8-2.4.4-.5 1.1-.8 1.8-1.2 0 4.1 2.7 1.5 3.6 2 .9-.7 1.4-1.5 2.1-1.6 1.3-.2 2.7 0 4 0 2.4.4 4.8-.5 7.2-2.1 1.1-.7 2.7-.6 4.1-.9.7-.1 1.5-.2 2.3-.2 0-.3-.1-.5-.1-.8-1-.1-2.1-.2-3.1-.3V.8h5.7V.3h-13.5c-.7.3-1.5.7-2.2 1.3.1-.5.2-.9.4-1.3h-2.5l-1.2.9c-.4.4-.7.9-1 1.4 1.2-.1 2.4-.3 3.6-.3-.8 3.3-3 2.4-4.9 2.5-.8 0-1.6.7-2.5 1.2 0-.7.1-1.6.1-2.4h-2.8c-.8.4-1.4.8-1.9 1.1-.2-.6-.4-1.3-.7-1.9-.5.4-.9.9-1.5 1.3-.3.2-.9.2-1.3.3l-1.8.6c0 .2.1.5.1.8h3.3c-.2.8-.3 1.5-.5 2.1-1.2.1-2.4.2-3.5.3.2-.5.5-.9.7-1.3-.4-.2-.7-.5-1.1-.5h-5.1l-.3-.6c2.2-1.7 4.5-3.5 6.7-5.3h-8.1c-.2.2-.5.4-.7.6-.7-.1-1.8-.1-2.4-.4M327.1 2c1.6.1 2.2 1 1.4 3.2-.7-1.2-1.1-1.9-1.9-3.2zm15.7 22.5q.15 0 0 0M262.2 9.3q-.15 0 0 0c-.1 0-.1-.1 0 0M344 24.2v-1c-.4.4-.7.8-1.1 1.2.4 0 .7-.1 1.1-.2m-53.3-16h-.2z"/><path fill="currentColor" d="M329.1 7.5c-1.1-1-1.7-1.5-2.3-2-.2.6-.4 1.2-.8 2zm-30.5-.1c-2.6.2-5.3.5-7.9.7 2.6.2 5.3.5 7.9.7zM284 11.7c1-.6 2.1-1.3 3.5-2.3-2.5-.2-3.1 1.1-3.5 2.3m-53.1 36c1.4-.3 2.1-.9 2.8-1.2 1.5-.6 1-1.3.5-2.2-.7.2-1.5.3-2.2.4-.4 1-.8 2-1.1 3m3.2-3.5q.15.15 0 0m4.9-6c-.8-.1-1.6-.2-2.4-.2v.9c.8.1 1.5.2 2.3.3 0-.3 0-.7.1-1m-3.2 2.7c.4-.2.8-.5 1.2-.7-.1-.2-.2-.4-.2-.6-.4.1-.9.2-1.4.2.2.4.3.8.4 1.1m4.6.8c-.7-.1-1.5-.1-2.2-.2v1c.7 0 1.5-.1 2.2-.1zM131 46.1c.7-.1 1.5-.2 2.2-.4 0-.3-.1-.6-.1-.9-.8.1-1.5.2-2.2.2 0 .5 0 .8.1 1.1m94.5-.2c-.1-.5-.3-.9-.4-1.4-.4.4-.8.8-1.3 1.2.6.1 1.2.1 1.7.2m6-4.6q-.15 0 0 0m-6.4 3.2c.1-.1.1 0 0 0M117.7 25.7c-.4.4-.6.7-.9 1.1.4.3.7.6 1.1.9.2-.3.7-.6.7-.9-.1-.4-.6-.7-.9-1.1M235 41.4h-3.6c-.5-.1-1-.3-1.4-.2-.6.2-1.1.6-1.6 1 1 .1 1.9.1 2.9.2.6.1 1.2.4 1.8.4.7 0 1.3-.3 2-.4 0-.4-.1-.7-.1-1m2.4-5.4c-.1-.1-.1 0 0 0q-.15 0 0 0m5.1-5.6-1.5.6c0 .2.1.4.2.6.5-.1 1-.2 1.5-.2 0-.4-.1-.7-.2-1m-18 10.7c-.2.1-.3.1-.5.2.4 1 .7 2.1 1.1 3.1 1-.2 1.9-.5 2.8-.6-1.2-1-2.3-1.9-3.4-2.7m41.6-16.6c-.1-.4-.4-.6-.6-1-.3.2-.8.4-.8.7s.4.6.7 1.1c.3-.4.7-.7.7-.8"/><path fill="currentColor" d="m241.5 36-3.6-.3c1.9-.3 3.7-.6 5.6-.9v-.6c-1.9-.1-3.7-.2-5.9-.3.1.6.2 1.2.2 1.8h-.1c-.2.1-.4.2-.5.2 1.4 1.5 2.7 1.6 4.3.1M118.8 12.4c-.2-.4-.6-.7-1-.8-.2 0-.6.4-1.1.8.6.4 1 .8 1.4.9.2 0 .8-.8.7-.9m115 23.4q.15 0 0 0c.6-.5 1.2-1 2.3-1.9-1.8.1-2.9.2-4.6.3 1.2.8 1.8 1.2 2.3 1.6"/><path fill="currentColor" d="M237.3 36c-1.1 0-2.2-.1-3.3-.1 1 1.6 2.1 1.9 3.3.1m-4.4-5.7v1.1c.9-.1 1.7-.2 2.6-.4 0-.2-.1-.4-.1-.6-.9 0-1.7 0-2.5-.1m1 5.6q0-.15 0 0h-.1zM117.5 18.4c-.2.4-.6.9-.5.9.2.3.6.4 1 .6.2-.3.4-.6.4-.8-.1-.2-.5-.3-.9-.7m4.1 13.5c-.5 0-1.1-.1-1.6-.1-.1 0-.1.6-.2.9.6.1 1.1.2 1.7.2.1-.3.1-.7.1-1m89.5-2.4c.1 0 .1-.1.2-.1l-.1-.1s0 .1-.1.2m48 11.8c-1.7.3-3 .6-4.2.8 1.4.9 2.9 2.2 4.2-.8m-48.5-10.1c.2-.6.3-1.2.5-1.7-.4.4-.9.7-1.3 1.1.3.2.6.4.8.6m44.4 1.2c-.5 0-1 .1-1.5.2-.1 0 0 .6 0 .9.6-.1 1.1-.1 1.7-.2-.1-.3-.1-.6-.2-.9m1.3 6.1c.2.4.3.8.6 1 .1.1.6-.2 1.1-.4-.4-.5-.6-.9-.9-1.1-.2 0-.6.4-.8.5m-6.1-6.1h-1.5c0 .2 0 .4-.1.7l1.5.3c.1-.3.1-.7.1-1m10-4.4c1.3-.3 2.5-1.4 3.7-2.1 0-.2-.1-.4-.2-.6-2.5.7-5.1 1.5-8.4 2.4 2.1.2 3.6.6 4.9.3m3.4-6.4c-.7.1-1.3.2-2 .3 0 .2.1.5.2.7.6-.1 1.3-.1 1.9-.2 0-.2 0-.5-.1-.8m-51 1.3-2.7-.6c0 .4-.1.8-.2 1.1.9 0 1.9.1 2.8.1.1-.1.1-.3.1-.6m31.2.7c-.6-.2-1.2-.4-1.8-.5-.1.3-.2.6-.3 1 .7.1 1.3.1 2 .2 0-.3.1-.5.1-.7m3.7-.2c-1.1.6-2.2 1.3-3.6 2.1.3.6.7 1.4 1.1 2.1 1.2-1.5 2.1-2.8 3-4-.2 0-.3-.1-.5-.2m-8.3 21.3c-1.7 1-3.2 1.9-4.7 2.8 3 .9 4 .4 4.7-2.8m-4.9-6.9c-.6-.1-1.2 0-1.7 0v1h1.8c-.1-.4 0-1-.1-1m57.2-35.4h-6.8v.7h6.8zM231.1 32c-.4.1-.7.4-1 .6.2.2.4.7.6.7.3 0 .7-.2 1.3-.5-.5-.5-.7-.8-.9-.8m-1.2 6.4c.1 0-.2-.7-.3-1.1-.7.3-1.3.6-1.9.9.2.3.4.6.5 1 .6-.3 1.2-.5 1.7-.8m-10 .5c.4 0 .9-.4 1.5-.8-.6-.4-.9-.9-1.2-.8-.4.1-.7.5-1.1.8.3.3.6.9.8.8M223 47c-.2-.3-.4-.6-.5-.9-.9.6-1.7 1.1-2.6 1.7-.1.1-.2.1-.3.2h1.6c.7-.4 1.2-.7 1.8-1m18.7-3.9c-2.1 0-4.2-.1-6.2 0-.4 0-.8.6-1.2 1h7.5c-.1-.3-.1-.6-.1-1m.4-3c-.8-.1-1.5-.2-2.3-.3 0 .3 0 .6-.1.8.8 0 1.5.1 2.3.2.1-.2.1-.4.1-.7m-22 3.4c.9.4 2 .1 3 .1 0-.2-.1-.3-.2-.6-.6-.1-1.2-.3-1.3-.3q1.2-.9 2.7-2.1c-.5-.6-.9-1.2-1.4-1.7-1.1.8-2.4 1.4-3.4 2.4-.3.3.1 2 .6 2.2m11.9 1.2c.7-1.5.4-2.4-1.3-1.4-1.2.7-1.9 2.2-3 3-.9.6-1.7 1.1-2.6 1.7h2.1c1.5-1.3 3.3-2.1 4.8-3.3"/></svg>