<svg xmlns="http://www.w3.org/2000/svg" width="360" height="49" fill="none"><path fill="currentColor" d="M360 16.845c-1.969 2.144-3.985 4.198-6.118 6.053-4.339-3.9-8.215-8.277-12.038-12.526l.056-.068c2.518-3.007 4.532-6.57 6.149-10.304H360zM346.66 0c-1.519 3.435-3.377 6.69-5.66 9.435-3.034-3.359-6.056-6.6-9.267-9.435zm7.355 32.93c.616 3.88 1.658 9.367 3.27 15.07h-6.235c1.624-5.729 2.505-11.198 2.965-15.07M360 34.85V48h-1.389c-2.461-8.616-3.629-16.847-3.985-19.688A115 115 0 0 0 360 34.85m-6.804-6.564c-.2 2.767-.975 10.993-3.482 19.714h-15.049c6.568-5.65 13.77-13.09 18.531-19.714M360 23.903v3.506c-.763-.612-1.522-1.23-2.298-1.827A43 43 0 0 0 360 23.903m-22.724-10.907c4.232 4.685 8.435 9.157 13.168 12.586-7.017 4.909-16.723 14.025-23.337 22.418h-1.788c.781-7.499 3.448-24.777 11.957-35.004m-30.998-2.72.08.108c-3.845 4.392-7.609 8.84-11.834 12.514-4.339-3.9-8.215-8.277-12.038-12.526l.056-.068c2.518-3.007 4.532-6.57 6.149-10.304h12.094c1.513 3.788 3.327 7.359 5.493 10.276m.922-.853c-1.962-2.67-3.63-5.936-5.046-9.423h14.314c-3.317 2.831-6.33 6.09-9.268 9.423M287.302 0c-1.519 3.435-3.377 6.69-5.66 9.435-3.034-3.359-6.056-6.6-9.267-9.435zm7.354 32.93c.617 3.88 1.659 9.367 3.271 15.07h-6.235c1.624-5.729 2.505-11.198 2.964-15.07m.612-4.618c5.153 6.78 11.594 13.518 18.73 19.688h-14.745c-2.461-8.616-3.629-16.847-3.985-19.688m-1.429-.026c-.201 2.767-.976 10.993-3.483 19.714h-15.049c6.568-5.65 13.77-13.09 18.532-19.714"/><path fill="currentColor" d="m336.432 12.059-.057.068c-8.226 9.827-11.124 25.566-12.114 33.905-1.342-8.454-4.676-24.523-11.621-33.877l-.08-.108c3.689-4.215 7.315-8.462 11.334-12.047h.994c4.136 3.783 7.869 7.975 11.544 12.059"/><path fill="currentColor" d="M298.344 25.582c5.029-3.393 9.27-7.917 13.374-12.574 7.158 9.739 10.435 27.357 11.567 34.992h-1.732c-6.403-7.904-14.437-15.664-23.209-22.418m-20.426-12.586c4.232 4.685 8.435 9.157 13.168 12.586-7.017 4.909-16.723 14.025-23.337 22.418h-1.788c.781-7.499 3.448-24.777 11.957-35.004m-30.998-2.72.08.108c-3.845 4.392-7.609 8.84-11.834 12.514-4.339-3.9-8.215-8.277-12.038-12.526l.056-.068c2.518-3.007 4.532-6.57 6.149-10.304h12.094c1.513 3.788 3.327 7.359 5.493 10.276m.922-.853c-1.962-2.67-3.631-5.936-5.046-9.423h14.314c-3.317 2.831-6.33 6.09-9.268 9.423M227.944 0c-1.519 3.435-3.377 6.69-5.66 9.435-3.034-3.359-6.056-6.6-9.267-9.435zm7.355 32.93c.616 3.88 1.658 9.367 3.27 15.07h-6.235c1.624-5.729 2.505-11.198 2.965-15.07m.611-4.618c5.153 6.78 11.594 13.518 18.73 19.688h-14.745c-2.461-8.616-3.629-16.847-3.985-19.688m-1.43-.026c-.2 2.767-.975 10.993-3.482 19.714h-15.049c6.567-5.65 13.77-13.09 18.531-19.714"/><path fill="currentColor" d="m277.074 12.059-.057.068c-8.226 9.827-11.124 25.566-12.114 33.905-1.341-8.454-4.675-24.523-11.621-33.877l-.08-.108c3.689-4.215 7.315-8.462 11.334-12.047h.994c4.136 3.783 7.869 7.975 11.544 12.059"/><path fill="currentColor" d="M238.986 25.582c5.029-3.393 9.27-7.917 13.373-12.574 7.159 9.739 10.436 27.357 11.568 34.992h-1.732c-6.403-7.904-14.437-15.664-23.209-22.418M218.56 12.996c4.231 4.685 8.435 9.157 13.168 12.586-7.017 4.909-16.723 14.025-23.337 22.418h-1.788c.781-7.499 3.448-24.777 11.957-35.004m-30.998-2.72.08.108c-3.845 4.392-7.609 8.84-11.834 12.514-4.339-3.9-8.215-8.277-12.038-12.526l.056-.068c2.518-3.007 4.532-6.57 6.149-10.304h12.094c1.513 3.788 3.327 7.359 5.493 10.276m.922-.853c-1.962-2.67-3.631-5.936-5.046-9.423h14.314c-3.317 2.831-6.33 6.09-9.268 9.423M168.586 0c-1.519 3.435-3.377 6.69-5.66 9.435-3.034-3.359-6.056-6.6-9.267-9.435zm7.355 32.93c.615 3.88 1.658 9.367 3.27 15.07h-6.235c1.624-5.729 2.505-11.198 2.965-15.07m.611-4.618c5.153 6.78 11.594 13.518 18.73 19.688h-14.745c-2.461-8.616-3.629-16.847-3.985-19.688m-1.43-.026c-.2 2.767-.975 10.993-3.482 19.714h-15.049c6.567-5.65 13.77-13.09 18.531-19.714"/><path fill="currentColor" d="m217.716 12.059-.057.068c-8.226 9.827-11.124 25.566-12.114 33.905-1.341-8.454-4.675-24.523-11.621-33.877l-.08-.108c3.689-4.215 7.315-8.462 11.334-12.047h.994c4.136 3.783 7.869 7.975 11.544 12.059"/><path fill="currentColor" d="M179.628 25.582c5.029-3.393 9.27-7.917 13.373-12.574 7.159 9.739 10.435 27.357 11.568 34.992h-1.732c-6.403-7.904-14.437-15.664-23.209-22.418m-20.426-12.586c4.231 4.685 8.435 9.157 13.168 12.586-7.017 4.909-16.723 14.025-23.337 22.418h-1.788c.781-7.499 3.448-24.777 11.957-35.004m-30.998-2.72.08.108c-3.844 4.392-7.609 8.84-11.835 12.514-4.338-3.9-8.214-8.277-12.037-12.526l.056-.068C106.986 7.297 109 3.734 110.617 0h12.094c1.513 3.788 3.327 7.359 5.493 10.276m.922-.853c-1.962-2.67-3.631-5.936-5.046-9.423h14.314c-3.317 2.831-6.33 6.09-9.268 9.423M109.228 0c-1.519 3.435-3.377 6.69-5.66 9.435-3.034-3.359-6.056-6.6-9.267-9.435zm7.355 32.93c.615 3.88 1.658 9.367 3.27 15.07h-6.235c1.624-5.729 2.505-11.198 2.965-15.07m.611-4.618c5.154 6.78 11.594 13.518 18.73 19.688h-14.745c-2.461-8.616-3.629-16.847-3.985-19.688m-1.43-.026c-.2 2.767-.975 10.993-3.482 19.714h-15.05c6.568-5.65 13.771-13.09 18.532-19.714"/><path fill="currentColor" d="m158.358 12.059-.057.068c-8.226 9.827-11.124 25.566-12.114 33.905-1.341-8.454-4.675-24.523-11.621-33.877l-.08-.108C138.175 7.832 141.801 3.585 145.82 0h.994c4.136 3.783 7.869 7.975 11.544 12.059"/><path fill="currentColor" d="M120.27 25.582c5.029-3.393 9.27-7.917 13.373-12.574 7.159 9.739 10.435 27.357 11.568 34.992h-1.732c-6.403-7.904-14.437-15.664-23.209-22.418M99.844 12.996c4.231 4.685 8.435 9.157 13.168 12.586C105.995 30.491 96.289 39.607 89.675 48h-1.788c.78-7.499 3.448-24.777 11.957-35.004m-30.998-2.72.08.108c-3.844 4.392-7.61 8.84-11.835 12.514-4.338-3.9-8.214-8.277-12.037-12.526l.056-.068C47.628 7.297 49.642 3.734 51.26 0h12.093c1.512 3.788 3.327 7.359 5.493 10.276m.922-.853c-1.963-2.67-3.63-5.936-5.046-9.423h14.314c-3.317 2.831-6.33 6.09-9.268 9.423M49.87 0c-1.518 3.435-3.377 6.69-5.66 9.435-3.034-3.359-6.056-6.6-9.267-9.435zm7.355 32.93c.615 3.88 1.658 9.367 3.27 15.07H54.26c1.624-5.729 2.505-11.198 2.965-15.07m.611-4.618C62.99 35.092 69.43 41.83 76.566 48H61.82c-2.461-8.616-3.629-16.847-3.985-19.688m-1.429-.026c-.2 2.767-.975 10.993-3.482 19.714h-15.05c6.568-5.65 13.771-13.09 18.532-19.714"/><path fill="currentColor" d="m99 12.059-.056.068c-8.228 9.827-11.125 25.566-12.115 33.905-1.341-8.454-4.675-24.523-11.62-33.877l-.081-.108C78.817 7.832 82.442 3.585 86.462 0h.994C91.592 3.783 95.326 7.975 99 12.059"/><path fill="currentColor" d="M60.912 25.582c5.03-3.393 9.27-7.917 13.373-12.574C81.445 22.747 84.72 40.365 85.853 48h-1.732c-6.403-7.904-14.437-15.664-23.209-22.418M40.486 12.996c4.231 4.685 8.435 9.157 13.168 12.586C46.637 30.491 36.931 39.607 30.317 48h-1.788c.781-7.499 3.448-24.777 11.957-35.004m-30.998-2.72.08.108C6.428 13.97 3.328 17.57 0 20.78V0h3.995c1.512 3.788 3.327 7.359 5.493 10.276m.922-.853C8.447 6.753 6.78 3.487 5.364 0h14.314c-3.317 2.831-6.33 6.09-9.268 9.423M0 43.65c.342 1.422.72 2.876 1.137 4.35H0zm0-5.986v-7.428C4.88 36.363 10.748 42.415 17.207 48H2.463A127 127 0 0 1 0 37.664"/><path fill="currentColor" d="m39.642 12.059-.056.068C31.359 21.954 28.46 37.693 27.47 46.032c-1.341-8.454-4.675-24.523-11.62-33.877l-.081-.108C19.459 7.832 23.084 3.585 27.104 0h.994c4.136 3.783 7.87 7.975 11.544 12.059"/><path fill="currentColor" d="M1.555 25.582c5.028-3.393 9.269-7.917 13.372-12.574C22.087 22.747 25.362 40.365 26.495 48h-1.732C18.36 40.096 10.325 32.336 1.555 25.582"/></svg>