<svg xmlns="http://www.w3.org/2000/svg" width="360" height="48" fill="none"><path fill="currentColor" d="M96.6 44.2c-.6-1.8-1.1-3.7-2.8-7.1s-2.4-5.2-3.1-6.9-1.4-3.5-3.1-6.9-2.8-5-4-6.5c-1.1-1.5-2.3-3.1-3.9-6.4-1.6-3.4-2.2-5.2-2.8-7-.3-1-.6-2-1.2-3.4h-.6c.6 1.4.9 2.5 1.2 3.5.6 1.8 1.1 3.7 2.8 7.1s2.8 5 4 6.5c1.1 1.5 2.3 3.1 3.9 6.4 1.7 3.4 2.4 5.2 3.1 6.9s1.4 3.5 3.1 6.9c1.6 3.4 2.2 5.2 2.8 7 .3 1.1.7 2.2 1.3 3.6h.6c-.6-1.4-.9-2.6-1.3-3.7m261.5-6.3c-2.5 2.8-4 4-5.5 5.2-1.4 1.1-2.8 2.3-5.1 4.8h.7c2.1-2.3 3.5-3.4 4.8-4.4 1.5-1.2 3-2.4 5.5-5.3q.9-1.05 1.5-1.8v-.9c-.5.8-1.1 1.6-1.9 2.4m-2.3 8.2c-.7.6-1.4 1.1-2.3 1.9h.8c.7-.6 1.2-1 1.8-1.5 1.1-.9 2.3-1.8 3.8-3.3v-.7c-1.7 1.7-2.9 2.7-4.1 3.6m-57-31.5c-1.8 3.4-2.4 5.2-2.9 7.1-.6 1.8-1.1 3.7-2.9 7s-2.8 5-3.8 6.5c-1 1.6-2 3.2-3.8 6.6-1.7 3.3-2.9 4.8-4 6.3h.7c1-1.4 2.2-3 3.8-6.1 1.8-3.3 2.8-5 3.8-6.5 1-1.6 2-3.2 3.8-6.6s2.4-5.2 2.9-7.1c.6-1.8 1.1-3.7 2.9-7s2.9-4.9 4-6.4 2.3-3.1 4.1-6.4c.4-.7.7-1.4 1-2h-.6q-.3.75-.9 1.8c-1.8 3.3-2.9 4.9-4 6.4-1.1 1.4-2.3 3-4.1 6.4M80.4 1.6c.5 1.8 1.1 3.7 2.7 7.1s2.8 5 3.9 6.6c1.1 1.5 2.2 3.1 3.8 6.5s2.3 5.2 3 6.9 1.4 3.5 3 7c1.6 3.4 2.1 5.3 2.7 7.1.4 1.4.9 2.9 1.8 5.2h.6c-1-2.3-1.4-3.8-1.9-5.3-.5-1.8-1.1-3.7-2.7-7.1s-2.3-5.2-3-6.9-1.4-3.5-3-7c-1.6-3.4-2.8-5-3.9-6.6-1.1-1.5-2.2-3.1-3.8-6.5s-2.1-5.3-2.7-7.1c-.1-.5-.3-1-.5-1.5h-.6c.2.6.4 1.1.6 1.6m17.8 8.9c1 1.6 2.1 3.2 3.5 6.7s2 5.3 2.6 7.1 1.2 3.6 2.6 7.1 1.9 5.4 2.3 7.2.9 3.7 2.3 7.3c.3.8.6 1.5.8 2.1h.6c-.2-.7-.5-1.5-.9-2.3-1.4-3.5-1.9-5.4-2.3-7.2s-.9-3.7-2.3-7.3c-1.4-3.5-2-5.3-2.6-7.1s-1.2-3.6-2.6-7.1-2.5-5.2-3.5-6.8-2.1-3.2-3.5-6.7c-.6-1.4-1-2.6-1.3-3.5h-.6c.3 1 .8 2.2 1.4 3.7 1.4 3.6 2.4 5.2 3.5 6.8m-3.8 1.6c1 1.6 2.1 3.2 3.6 6.6 1.5 3.5 2.1 5.3 2.7 7 .6 1.8 1.2 3.6 2.7 7.1s1.9 5.3 2.4 7.1 1 3.7 2.4 7.2c.1.3.2.5.3.8h.6c-.1-.3-.3-.7-.4-1-1.5-3.5-1.9-5.3-2.4-7.1s-1-3.7-2.4-7.2c-1.5-3.5-2.1-5.3-2.7-7-.6-1.8-1.2-3.6-2.7-7.1s-2.6-5.1-3.6-6.7-2.1-3.2-3.6-6.6c-1-2.2-1.5-3.8-1.9-5.1h-.6c.4 1.4.9 3 1.9 5.4 1.5 3.4 2.6 5 3.7 6.6m160.7 16.2c-1.2 3.6-2.1 5.3-3 6.9-.9 1.7-1.8 3.4-3 7-1 2.8-1.8 4.4-2.5 5.8h.6c.7-1.3 1.5-3 2.4-5.6 1.2-3.6 2.1-5.3 3-6.9.9-1.7 1.8-3.4 3-7s2-5.3 2.7-7 1.5-3.5 2.7-7.1 1.5-5.5 1.8-7.4c.3-1.8.5-3.6 1.6-6.9h-.6c-1.1 3.2-1.3 5.1-1.6 6.8-.3 1.9-.5 3.8-1.8 7.3-1.2 3.6-2 5.3-2.7 7.1-.7 1.6-1.4 3.4-2.6 7M98.6 2.2C99.9 5.7 101 7.4 102 9s2 3.3 3.4 6.8 1.9 5.4 2.5 7.1c.6 1.8 1.1 3.6 2.5 7.2 1.3 3.5 1.8 5.4 2.2 7.2s.8 3.8 2.2 7.3c.5 1.3.9 2.4 1.1 3.4h.5q-.45-1.5-1.2-3.6c-1.3-3.5-1.8-5.4-2.2-7.2s-.8-3.8-2.2-7.3-1.9-5.4-2.5-7.1c-.6-1.8-1.1-3.6-2.5-7.2s-2.4-5.2-3.4-6.8-2-3.3-3.4-6.8c-.3-.7-.5-1.4-.7-2h-.6c.3.7.6 1.4.9 2.2m169.9 23.1c-.8 1.7-1.7 3.4-3.1 6.9S263 37.4 262 39s-2 3.3-3.4 6.8c-.3.8-.6 1.5-.9 2.2h.6c.3-.6.6-1.2.9-2 1.4-3.5 2.4-5.2 3.4-6.8s2-3.3 3.4-6.8 2.3-5.2 3.1-6.9 1.7-3.4 3.1-6.9 1.8-5.5 2.2-7.3.7-3.8 2.1-7.2c.7-1.7 1.3-3 1.8-4h-.6c-.5 1-1.1 2.2-1.7 3.8-1.4 3.5-1.8 5.5-2.2 7.3s-.7 3.8-2.1 7.2c-1.6 3.5-2.4 5.2-3.2 6.9m90.3 3.2c-.8 1.8-1.6 3.6-4 6.4-2.5 2.8-3.9 4.1-5.4 5.3-1.4 1.2-2.9 2.5-5.4 5.4-.8.9-1.4 1.7-1.9 2.4h.7c.5-.6 1-1.3 1.7-2 2.5-2.8 3.9-4.1 5.4-5.3 1.4-1.2 2.9-2.5 5.4-5.4s3.3-4.8 4.1-6.6c.2-.5.5-1.1.8-1.6V26c-.7.9-1.1 1.7-1.4 2.5M310.9 3.9c-1.8 3.3-3 4.8-4.1 6.3-1.2 1.5-2.4 3-4.2 6.4-1.8 3.3-2.5 5.2-3.1 7s-1.2 3.6-3 6.9-2.9 4.9-3.9 6.5-2.1 3.2-3.9 6.5c-1.1 2.1-2 3.4-2.8 4.5h.6c.7-1.1 1.6-2.4 2.6-4.3 1.8-3.3 2.9-4.9 3.9-6.5s2.1-3.2 3.9-6.5 2.5-5.2 3.1-7 1.2-3.6 3-6.9 3-4.8 4.1-6.3c1.2-1.5 2.4-3 4.2-6.4.9-1.7 1.5-3 1.9-4.2h-.6c-.3 1.2-.9 2.5-1.7 4M68.6 7.4c.6 1.8 1.3 3.6 3.1 7s3 4.9 4.2 6.4 2.4 3 4.2 6.3 2.6 5.1 3.3 6.8c.8 1.7 1.6 3.5 3.3 6.8 1.8 3.3 2.4 5.1 3 6.9 0 .1.1.3.1.4h.6c-.1-.2-.1-.4-.2-.6-.6-1.8-1.3-3.6-3.1-7-1.8-3.3-2.6-5.1-3.3-6.8-.8-1.7-1.6-3.5-3.3-6.8-1.8-3.4-3-4.9-4.2-6.4s-2.4-3-4.2-6.3-2.4-5.1-3-6.9-1.3-3.6-3.1-7c0 0 0-.1-.1-.2h-.6c.1.2.2.3.3.5 1.8 3.4 2.4 5.2 3 6.9M.5 48h.8c-.5-.4-.9-.8-1.3-1.2v.7zm10.7-9.1c-2.6-2.8-4.4-3.8-6.1-4.8-1.5-.8-3-1.7-5.1-3.8v.7c1.9 1.9 3.4 2.7 4.8 3.5 1.7 1 3.4 1.9 6 4.7s3.7 4.3 4.7 5.9c.6.9 1.2 1.8 2.1 2.9h.7c-1-1.3-1.7-2.2-2.3-3.2-1.1-1.6-2.2-3.2-4.8-5.9m-9.7-1.2c1.7.9 3.4 1.9 6 4.6 2.6 2.6 3.7 4.2 4.7 5.7h.6c0-.1-.1-.1-.1-.2-1.1-1.5-2.2-3.1-4.9-5.9-2.7-2.7-4.4-3.7-6.2-4.7-.6-.3-1.1-.6-1.7-1v.6c.6.4 1.1.7 1.6.9M0 41.3v.7c1.2.7 2.6 1.7 4.3 3.5 1 1 1.8 1.8 2.4 2.6h.7c-.7-.8-1.6-1.8-2.8-3-1.8-2-3.3-3-4.6-3.8m359.2-22.4c-2.5 2.9-3.2 4.8-4 6.6-.7 1.8-1.5 3.6-3.9 6.5s-3.9 4.2-5.3 5.4-2.9 2.5-5.3 5.4c-1.9 2.2-2.9 3.8-3.7 5.1h.6c.8-1.3 1.7-2.7 3.5-4.8 2.4-2.9 3.9-4.2 5.3-5.4s2.9-2.5 5.3-5.4c2.5-2.9 3.2-4.8 4-6.6.7-1.8 1.5-3.6 3.9-6.5.1-.1.2-.3.4-.4V18c-.2.3-.5.6-.8.9m-340 23c-1-1.6-2.1-3.2-4.7-6C12 33 10.2 32 8.5 31s-3.4-2-5.9-4.8C1.6 25 .7 24.1 0 23.3v.8c.6.7 1.4 1.5 2.2 2.5 2.6 2.8 4.3 3.9 6 4.9s3.4 2 5.9 4.8 3.6 4.4 4.6 6c1 1.5 2.1 3.1 4.5 5.8h.7l-.1-.1c-2.5-2.9-3.6-4.6-4.6-6.1M321.5 1.4c-.5 1.9-.9 3.8-2.8 7s-3.2 4.7-4.4 6.2-2.5 3-4.4 6.2c-2 3.3-2.6 5.1-3.3 6.9-.6 1.8-1.3 3.6-3.3 6.8-1.9 3.2-3 4.8-4.1 6.3s-2.2 3.1-4.1 6.4c-.2.3-.3.5-.5.8h.6c.1-.2.2-.3.3-.5 1.9-3.2 3-4.8 4.1-6.3s2.2-3.1 4.1-6.4c2-3.3 2.6-5.1 3.3-6.9.6-1.8 1.3-3.6 3.3-6.8 1.9-3.2 3.2-4.7 4.4-6.1 1.2-1.5 2.5-3 4.4-6.2 2-3.3 2.4-5.3 2.9-7.2.1-.5.2-1 .4-1.5h-.6c-.1.4-.2.9-.3 1.3m-11 28.6c.7-1.8 1.4-3.6 3.4-6.7 2-3.2 3.3-4.7 4.5-6.1s2.5-2.9 4.5-6.1 2.5-5.2 3-7.1c.3-1.2.6-2.4 1.3-4h-.6c-.7 1.5-1 2.7-1.3 3.8-.5 1.9-1 3.8-3 7s-3.3 4.7-4.5 6.1-2.5 2.9-4.5 6.1-2.7 5.1-3.4 6.8c-.7 1.8-1.4 3.6-3.4 6.8s-3.1 4.8-4.2 6.3c-1 1.3-1.9 2.7-3.5 5.1h.6c1.5-2.3 2.4-3.6 3.3-4.8 1.1-1.5 2.2-3.1 4.2-6.3 2.2-3.2 2.9-5.1 3.6-6.9m45.1-14.1c-2.4 3-3.2 4.9-3.9 6.7s-1.4 3.6-3.8 6.6c-2.4 2.9-3.8 4.2-5.2 5.5s-2.8 2.6-5.2 5.5c-2.4 3-3.3 4.7-4.2 6.4-.3.5-.5.9-.8 1.5h.6c.2-.4.4-.8.7-1.2.9-1.7 1.8-3.4 4.2-6.3s3.8-4.2 5.2-5.5 2.8-2.6 5.2-5.5c2.4-3 3.2-4.9 3.9-6.7s1.4-3.6 3.8-6.6c1.9-2.4 3.1-3.8 4-5.1v-.9c-1.2 1.4-2.3 2.9-4.5 5.6M212.4 33.4c-.5 3.7-1.2 5.6-1.8 7.3-.6 1.8-1.3 3.6-1.8 7.2h.5c.5-3.5 1.1-5.3 1.7-7.1s1.3-3.7 1.8-7.4 1.1-5.6 1.6-7.4 1.1-3.7 1.6-7.4.9-5.6 1.3-7.4.8-3.7 1.3-7.5c.2-1.5.3-2.8.4-3.8h-.5c-.1 1-.2 2.2-.4 3.7-.5 3.7-.9 5.6-1.3 7.4s-.8 3.7-1.3 7.5c-.5 3.7-1.1 5.6-1.6 7.4-.4 1.9-1 3.8-1.5 7.5m-69-28.2c.7 3.7 1 5.6 1.2 7.4.2 1.9.5 3.8 1.2 7.5s.8 5.6.9 7.5.2 3.8.9 7.6c.7 3.7.7 5.6.7 7.5 0 1.5 0 3 .3 5.3h.5c-.3-2.3-.3-3.9-.3-5.3 0-1.9 0-3.9-.7-7.6s-.8-5.6-.9-7.5-.2-3.8-.9-7.6c-.7-3.7-1-5.6-1.2-7.4-.2-1.9-.5-3.8-1.2-7.5-.4-2.2-.9-3.8-1.3-5.1h-.6c.5 1.3 1 2.9 1.4 5.2m-6.3 9c.3 1.8.6 3.7 1.5 7.4.8 3.7 1 5.6 1.1 7.5s.3 3.8 1.1 7.5.9 5.6 1 7.5c0 1.2.1 2.3.3 3.9h.5c-.2-1.6-.3-2.8-.3-3.9-.1-1.9-.1-3.9-1-7.6-.8-3.7-1-5.6-1.1-7.5s-.3-3.8-1.1-7.5-1.2-5.6-1.5-7.4-.6-3.7-1.5-7.4c-.8-3.3-1.5-5.1-2.1-6.6h-.6c.7 1.6 1.4 3.4 2.2 6.8.9 3.5 1.2 5.4 1.5 7.3m22.6-3.9c.1 1.9.2 3.8.7 7.6.5 3.7.4 5.7.3 7.5-.1 1.9-.1 3.8.4 7.6.5 3.7.3 5.7.2 7.5-.1 1.9-.3 3.8.2 7.4h.5c-.4-3.6-.3-5.6-.2-7.4.1-1.9.3-3.9-.2-7.6s-.4-5.7-.3-7.5c.1-1.9.1-3.8-.4-7.6-.5-3.7-.6-5.7-.7-7.5-.1-1.9-.2-3.8-.7-7.5-.1-1-.3-1.9-.4-2.7h-.5c.2.8.3 1.7.4 2.8.5 3.6.6 5.6.7 7.4m61.4 16.8c-.6 1.8-1.2 3.6-1.9 7.4-.7 3.7-1.4 5.5-2 7.3-.6 1.6-1.3 3.2-1.8 6.2h.5c.6-2.9 1.2-4.5 1.8-6 .7-1.8 1.4-3.6 2.1-7.4.7-3.7 1.3-5.5 1.9-7.3s1.2-3.6 1.9-7.4c.7-3.7 1.1-5.6 1.6-7.4.4-1.8.9-3.7 1.6-7.4.4-2.2.5-3.8.6-5.1h-.5c-.1 1.3-.2 2.9-.6 5-.7 3.7-1.1 5.6-1.6 7.4-.4 1.8-.9 3.7-1.6 7.4-.8 3.7-1.4 5.6-2 7.3M186.5 8.8c-.1 1.9-.3 3.8-.3 7.6s-.3 5.7-.6 7.5c-.3 1.9-.6 3.8-.6 7.6s-.4 5.7-.7 7.5c-.4 1.9-.8 3.8-.8 7.6v1.3h.5v-1.3c0-3.8.4-5.7.7-7.5.4-1.9.8-3.8.8-7.6s.3-5.7.6-7.5c.3-1.9.6-3.8.6-7.6s.1-5.7.3-7.5c.1-1.9.3-3.8.3-7.6V0h-.5v1.3c-.1 3.8-.2 5.7-.3 7.5m-30.6 2c.1 1.9.3 3.8.8 7.5s.5 5.7.5 7.5c0 1.9 0 3.8.5 7.6.5 3.7.4 5.7.3 7.5s-.2 3.7.2 7h.5c-.4-3.3-.3-5.2-.2-7 .1-1.9.2-3.9-.3-7.6s-.5-5.7-.5-7.5c0-1.9 0-3.8-.5-7.6-.5-3.7-.7-5.6-.8-7.5s-.3-3.8-.8-7.5c-.2-1.3-.4-2.3-.6-3.2h-.5q.3 1.35.6 3.3c.6 3.7.7 5.6.8 7.5M64.8 9.5c.7 1.8 1.3 3.6 3.2 6.9 1.8 3.3 3.1 4.8 4.3 6.3 1.2 1.4 2.4 2.9 4.3 6.2 1.8 3.3 2.6 5 3.4 6.7s1.6 3.4 3.5 6.7c1.4 2.5 2.1 4.2 2.7 5.6h.6c-.6-1.5-1.3-3.2-2.8-5.8-1.8-3.3-2.6-5-3.4-6.7S79 32 77.1 28.7c-1.8-3.3-3.1-4.8-4.3-6.3-1.2-1.4-2.4-2.9-4.3-6.2-1.8-3.3-2.5-5.1-3.1-6.9-.7-1.8-1.3-3.6-3.2-6.9q-.75-1.35-1.5-2.4H60c.5.7 1.1 1.6 1.7 2.6 1.8 3.3 2.5 5.2 3.1 6.9m74.7-3.6c.8 3.7 1.1 5.6 1.3 7.4.3 1.8.5 3.8 1.3 7.5s.9 5.6 1 7.5.2 3.8 1 7.6c.8 3.7.8 5.6.8 7.5 0 1.3 0 2.7.3 4.6h.5c-.3-2-.3-3.3-.3-4.7 0-1.9-.1-3.9-.8-7.6-.8-3.7-.9-5.6-1-7.5s-.2-3.8-1-7.6c-.8-3.7-1.1-5.6-1.3-7.4-.3-1.8-.5-3.8-1.3-7.5-.6-2.7-1.1-4.4-1.7-5.8h-.6c.7 1.5 1.2 3.2 1.8 6M163 2.4c.4 3.8.5 5.7.5 7.5.1 1.9.1 3.8.5 7.6.4 3.7.3 5.7.2 7.5-.1 1.9-.2 3.8.2 7.6.4 3.7.2 5.7 0 7.5-.2 1.9-.4 3.9 0 7.7v.2h.5v-.2c-.4-3.7-.2-5.7 0-7.5.2-1.9.4-3.9 0-7.7-.4-3.7-.3-5.7-.2-7.5.1-1.9.2-3.8-.2-7.6-.4-3.7-.5-5.7-.5-7.5-.1-1.9-.1-3.8-.5-7.6-.1-.9-.2-1.6-.3-2.3h-.5c.1.6.2 1.4.3 2.3m12 6.7c0 1.9-.1 3.8.1 7.6s0 5.7-.2 7.5c-.2 1.9-.4 3.8-.2 7.6.2 3.7-.1 5.7-.4 7.5-.3 1.9-.6 3.8-.4 7.6 0 .4 0 .7.1 1h.5c0-.3 0-.7-.1-1-.2-3.7.1-5.7.4-7.5.3-1.9.6-3.8.4-7.6s0-5.7.2-7.5c.2-1.9.4-3.8.2-7.6s-.2-5.7-.1-7.5c0-1.9.1-3.8-.1-7.6 0-.5-.1-1-.1-1.5h-.5c0 .5.1 1 .1 1.5.1 3.7.1 5.6.1 7.5m-3.8.2c0 1.9 0 3.8.3 7.6s.1 5.7 0 7.5c-.2 1.9-.3 3.8 0 7.6.3 3.7 0 5.7-.2 7.5-.2 1.9-.5 3.9-.2 7.6 0 .3 0 .5.1.8h.5c0-.3 0-.5-.1-.8-.3-3.7 0-5.7.2-7.5.2-1.9.5-3.8.2-7.6s-.1-5.7 0-7.5c.2-1.9.3-3.8 0-7.6s-.3-5.7-.3-7.5c0-1.9 0-3.8-.3-7.6 0-.6-.1-1.2-.2-1.7h-.5c.1.5.1 1.1.2 1.7.3 3.7.3 5.6.3 7.5m-47 .3c1 3.6 1.4 5.5 1.8 7.3s.8 3.7 1.8 7.4c1 3.6 1.3 5.5 1.5 7.4s.5 3.8 1.5 7.5c1 3.6 1.2 5.5 1.4 7.4 0 .5.1.9.1 1.4h.5c-.1-.5-.1-1-.1-1.4-.2-1.9-.3-3.9-1.4-7.5-1-3.6-1.3-5.5-1.5-7.4s-.5-3.8-1.5-7.5c-1-3.6-1.4-5.5-1.8-7.3s-.8-3.7-1.8-7.4-1.9-5.4-2.8-7.1c-.4-.7-.7-1.5-1.1-2.4h-.6c.4 1 .8 1.8 1.2 2.6.8 1.7 1.7 3.4 2.8 7m120.3 15.3c-1 3.6-1.8 5.4-2.6 7.1s-1.6 3.5-2.7 7.1c-1 3.6-1.9 5.3-2.8 7-.3.6-.6 1.2-.9 1.9h.6c.3-.6.5-1.1.8-1.6.9-1.7 1.8-3.4 2.8-7.1 1-3.6 1.8-5.4 2.6-7.1s1.6-3.5 2.7-7.1c1-3.6 1.7-5.4 2.3-7.2s1.3-3.6 2.3-7.2c1-3.7 1.2-5.6 1.4-7.5.1-1 .2-1.9.4-3.2h-.5c-.2 1.2-.3 2.2-.4 3.1-.2 1.9-.3 3.8-1.4 7.4-1 3.6-1.7 5.4-2.3 7.2s-1.2 3.6-2.3 7.2M128 8.6c1 3.6 1.3 5.5 1.7 7.4.4 1.8.7 3.7 1.7 7.4 1 3.6 1.2 5.6 1.4 7.4.2 1.9.4 3.8 1.4 7.5 1 3.6 1.1 5.6 1.2 7.4 0 .7.1 1.5.2 2.3h.5c-.1-.9-.2-1.6-.2-2.3-.1-1.9-.3-3.9-1.2-7.5-1-3.6-1.2-5.6-1.4-7.4-.2-1.9-.4-3.8-1.4-7.5-1-3.6-1.3-5.5-1.7-7.3s-.7-3.7-1.7-7.4-1.8-5.4-2.7-7.2c-.2-.4-.4-.9-.6-1.3h-.6c.2.5.5 1.1.7 1.5.9 1.6 1.7 3.4 2.7 7m-67 3c.7 1.8 1.4 3.6 3.3 6.9s3.2 4.8 4.4 6.2 2.5 2.9 4.4 6.1c1.9 3.3 2.7 5 3.6 6.7.8 1.7 1.7 3.4 3.6 6.7.9 1.5 1.5 2.7 2 3.8h.6c-.5-1.1-1.2-2.4-2.1-4-1.9-3.3-2.7-5-3.6-6.7-.8-1.7-1.7-3.4-3.6-6.7s-3.2-4.8-4.4-6.2-2.5-2.9-4.4-6.1c-1.9-3.3-2.6-5.1-3.3-6.8-.7-1.8-1.4-3.6-3.3-6.9C56.9 2.4 55.9 1 54.9 0h-.7c1.1 1.1 2.3 2.4 3.6 4.8 1.8 3.3 2.5 5.1 3.2 6.8m16.5 34.2c-1.9-3.2-2.8-4.9-3.7-6.6s-1.7-3.4-3.7-6.6c-2-3.3-3.3-4.7-4.5-6.1-1.3-1.4-2.5-2.9-4.5-6.1-1.9-3.2-2.7-5-3.4-6.7s-1.5-3.6-3.4-6.8c-2-3.3-3.5-4.6-5-5.9-.3-.3-.7-.6-1-.9h-.8c.5.5.9.9 1.4 1.3 1.4 1.3 2.9 2.6 4.9 5.8 1.9 3.2 2.7 5 3.4 6.7s1.5 3.6 3.4 6.8c2 3.3 3.3 4.7 4.5 6.1 1.3 1.4 2.5 2.9 4.5 6.1 1.9 3.2 2.8 4.9 3.7 6.6s1.7 3.4 3.7 6.6c.4.7.8 1.3 1.1 1.9h.6c-.3-.7-.7-1.4-1.2-2.2m158.3-31c-.5 1.8-1.1 3.6-2 7.3-.8 3.7-1.6 5.5-2.3 7.2-.7 1.8-1.4 3.6-2.3 7.3-.8 3.7-1.6 5.4-2.4 7.1-.5 1.2-1.1 2.4-1.7 4.3h.6c.5-1.7 1.1-2.9 1.6-4.1.8-1.7 1.6-3.5 2.4-7.2s1.6-5.5 2.3-7.2c.7-1.8 1.4-3.6 2.3-7.3.8-3.7 1.4-5.5 1.9-7.3s1.1-3.6 1.9-7.3c.9-3.7.9-5.7 1-7.6h-.5c-.1 1.9-.1 3.8-1 7.5-.8 3.6-1.3 5.5-1.8 7.3m-11.2 13c-.6 1.8-1.3 3.6-2 7.4-.7 3.7-1.5 5.5-2.2 7.2-.6 1.5-1.2 3-1.8 5.6h.5c.6-2.5 1.2-4 1.8-5.4.7-1.8 1.5-3.6 2.2-7.3s1.4-5.5 2-7.3 1.3-3.6 2-7.4c.7-3.7 1.2-5.6 1.7-7.4s1-3.7 1.7-7.4c.5-2.6.7-4.4.7-5.9h-.5c0 1.5-.2 3.2-.7 5.8-.7 3.7-1.2 5.6-1.7 7.4s-1 3.7-1.7 7.4-1.4 5.5-2 7.3M120.3 10.7c1.1 3.6 1.5 5.5 2 7.3.4 1.8.9 3.7 2 7.3s1.4 5.5 1.7 7.4.6 3.8 1.7 7.4 1.3 5.5 1.5 7.4v.5h.5c0-.2 0-.3-.1-.5-.2-1.9-.4-3.9-1.5-7.5s-1.4-5.5-1.7-7.4-.6-3.8-1.7-7.4-1.5-5.5-2-7.3c-.4-1.8-.9-3.7-2-7.3s-2-5.4-2.9-7.1c-.5-1-1.1-2.1-1.7-3.5h-.6c.6 1.6 1.2 2.7 1.8 3.8 1 1.6 2 3.4 3 6.9M3.4 5.6c2.4 3 3.6 4.4 4.8 5.8s2.4 2.9 4.8 5.8c2.4 3 4.1 4.1 5.7 5.2s3.3 2.2 5.6 5.1c2.4 2.9 3.3 4.6 4.3 6.2s1.9 3.3 4.3 6.3 3.9 4.2 5.4 5.5c.9.7 1.7 1.5 2.8 2.5h.7c-1.2-1.3-2.2-2.1-3.2-3-1.4-1.2-2.9-2.5-5.3-5.4S30 35 29 33.4s-1.9-3.3-4.3-6.3-4.1-4.1-5.7-5.2-3.3-2.2-5.6-5.1C11 13.9 9.8 12.4 8.6 11 7.4 9.7 6.2 8.2 3.8 5.3 2 3.1 1.2 1.5.7 0H.1c.6 1.6 1.4 3.3 3.3 5.6m60.7 39.7c-.9-1.6-1.9-3.3-4-6.4-2.1-3.2-3.5-4.5-4.9-5.9-1.3-1.3-2.7-2.7-4.8-5.8s-2.9-4.9-3.7-6.6-1.6-3.5-3.8-6.6c-2.1-3.2-3.7-4.4-5.3-5.7-1.5-1.2-3.1-2.4-5.2-5.5-.7-1.1-1.3-2-1.9-2.8H30c.6.8 1.3 1.8 2.1 3.1 2.1 3.2 3.7 4.4 5.3 5.7 1.5 1.2 3.1 2.4 5.2 5.5s2.9 4.9 3.7 6.6 1.6 3.5 3.8 6.6c2.1 3.2 3.5 4.6 4.9 5.9 1.3 1.3 2.7 2.7 4.8 5.8s3.1 4.8 4 6.4c.4.7.9 1.5 1.4 2.4h.6c-.7-1-1.2-1.9-1.7-2.7M314.8 6.1c-1.9 3.3-3.1 4.8-4.3 6.2-1.2 1.5-2.4 3-4.3 6.3s-2.6 5.2-3.2 7-1.3 3.6-3.1 6.9c-1.9 3.3-3 4.9-4 6.4-1 1.6-2.1 3.2-4 6.4-.6 1.1-1.2 1.9-1.6 2.7h.6q.6-1.05 1.5-2.4c1.9-3.3 3-4.9 4-6.4 1-1.6 2.1-3.2 4-6.4 1.9-3.3 2.5-5.2 3.2-7 .6-1.8 1.3-3.6 3.1-6.9 1.9-3.3 3.1-4.8 4.3-6.2 1.2-1.5 2.4-3 4.3-6.3 1.6-2.8 2.2-4.7 2.6-6.4h-.5c-.5 1.6-1.1 3.4-2.6 6.1m-295-3.6c1.1 1.5 2.3 3 4.5 6.1s3.9 4.3 5.5 5.5c1.5 1.1 3.2 2.3 5.3 5.4 2.2 3 3.1 4.8 4 6.4.9 1.7 1.8 3.4 4 6.5s3.7 4.4 5.1 5.7 2.8 2.6 5 5.7c1.4 1.9 2.3 3.2 3 4.3h.6c-.8-1.2-1.7-2.6-3.2-4.6-2.2-3.1-3.7-4.4-5.1-5.7s-2.8-2.6-5-5.7c-2.2-3-3.1-4.8-4-6.4-.9-1.7-1.8-3.4-4-6.5s-3.9-4.3-5.5-5.5c-1.5-1.1-3.2-2.3-5.3-5.4-2.2-3.1-3.4-4.6-4.5-6.1-.5-.7-1-1.3-1.6-2.2h-.7c.7 1 1.3 1.7 1.9 2.5m127.5 2c.7 3.7.9 5.6 1.1 7.5s.4 3.8 1.1 7.5.7 5.6.7 7.5.1 3.8.7 7.6c.7 3.7.6 5.6.6 7.5 0 1.6-.1 3.3.3 5.9h.5c-.4-2.7-.4-4.3-.3-5.9 0-1.9.1-3.9-.6-7.6s-.7-5.6-.7-7.5-.1-3.8-.7-7.6c-.7-3.7-.9-5.6-1.1-7.5s-.4-3.8-1.1-7.5c-.3-1.9-.7-3.2-1-4.4h-.6c.4 1.2.8 2.6 1.1 4.5M36 .4c2.1 3.2 3.6 4.5 5.2 5.8 1.5 1.2 3 2.5 5.1 5.6 2 3.2 2.8 4.9 3.6 6.6s1.6 3.5 3.7 6.7 3.4 4.6 4.8 6c1.3 1.4 2.6 2.8 4.7 5.9 2.1 3.2 3 4.8 3.9 6.5.7 1.3 1.4 2.5 2.7 4.5h.6c-1.3-2.1-2.1-3.5-2.8-4.8-.9-1.6-1.9-3.3-3.9-6.5-2.1-3.2-3.4-4.6-4.8-6-1.5-1.3-2.8-2.7-4.8-5.9s-2.8-4.9-3.6-6.6-1.6-3.5-3.7-6.7S43 7 41.5 5.8s-3-2.5-5.1-5.6l-.1-.1h-.6c.1 0 .2.2.3.3m186.2 3.9c-.6 3.7-1 5.6-1.4 7.4s-.8 3.7-1.4 7.4-1.2 5.6-1.7 7.3c-.6 1.8-1.2 3.7-1.8 7.4s-1.3 5.5-1.9 7.3c-.6 1.7-1.3 3.4-1.8 6.8h.5c.6-3.2 1.2-4.9 1.8-6.6.7-1.8 1.3-3.6 1.9-7.4.6-3.7 1.2-5.6 1.7-7.3.6-1.8 1.2-3.7 1.8-7.4s1-5.6 1.4-7.4.8-3.7 1.4-7.4c.3-1.8.4-3.2.5-4.4h-.5c-.1 1.2-.2 2.5-.5 4.3m-71-.5c.6 3.7.8 5.6.9 7.5.2 1.9.3 3.8.9 7.5s.6 5.7.6 7.5c0 1.9 0 3.8.6 7.6.6 3.7.5 5.7.4 7.5-.1 1.7-.1 3.5.3 6.5h.5c-.4-3-.4-4.8-.3-6.5.1-1.9.2-3.9-.4-7.6s-.6-5.6-.6-7.5 0-3.8-.6-7.6c-.6-3.7-.8-5.6-.9-7.5-.2-1.9-.3-3.8-.9-7.5-.2-1.5-.4-2.7-.7-3.7h-.5c.2 1 .5 2.3.7 3.8M20.5 11.4c2.3 3.1 4 4.2 5.6 5.4 1.6 1.1 3.2 2.3 5.4 5.3 2.3 3 3.2 4.7 4.1 6.4s1.8 3.4 4.1 6.4 3.7 4.4 5.2 5.6c1.4 1.3 2.8 2.6 5.1 5.6.6.7 1 1.4 1.5 2h.7c-.5-.7-1-1.4-1.7-2.3-2.3-3-3.7-4.4-5.2-5.6-1.4-1.3-2.8-2.6-5.1-5.6s-3.2-4.7-4.1-6.4-1.8-3.4-4.1-6.4c-2.3-3.1-4-4.2-5.6-5.4-1.6-1.1-3.2-2.3-5.4-5.3-2.3-3-3.5-4.5-4.6-6-1-1.3-2.1-2.6-3.9-5.1h-.7c2 2.6 3.1 4 4.2 5.4 1 1.5 2.2 3 4.5 6M242.7 1c-.1 1.9-.2 3.8-1.1 7.5s-1.5 5.5-2.1 7.3-1.2 3.6-2.1 7.3-1.7 5.4-2.4 7.2c-.7 1.7-1.5 3.5-2.4 7.2-.9 3.6-1.7 5.4-2.5 7.1-.5 1-1 2.1-1.5 3.5h.6c.5-1.3.9-2.3 1.4-3.3.8-1.7 1.7-3.5 2.6-7.2s1.7-5.4 2.4-7.2c.7-1.7 1.5-3.5 2.4-7.2s1.5-5.5 2.1-7.3 1.2-3.6 2.1-7.3 1-5.7 1.1-7.6c0-.3 0-.7.1-1h-.5c-.2.3-.2.6-.2 1M33.5 11.3c1.5 1.2 3.1 2.4 5.3 5.5s3 4.8 3.8 6.5 1.7 3.4 3.9 6.6c2.2 3.1 3.6 4.5 5 5.8 1.3 1.3 2.7 2.7 4.9 5.7 2.2 3.1 3.2 4.7 4.1 6.3.1.1.1.2.2.3h.6l-.3-.6c-1-1.6-2-3.2-4.1-6.3-2.2-3.1-3.6-4.5-5-5.8-1.3-1.3-2.7-2.7-4.9-5.7-2.2-3.1-3-4.8-3.8-6.5s-1.7-3.4-3.9-6.6c-2.2-3.1-3.8-4.4-5.4-5.6-1.5-1.2-3.1-2.4-5.3-5.5-1.8-2.6-2.9-4.1-3.9-5.5H24c1 1.4 2.1 2.9 4.1 5.8 2.3 3.2 3.9 4.4 5.4 5.6m211.9-1.9c-1 3.6-1.6 5.5-2.2 7.2-.6 1.8-1.2 3.6-2.2 7.3-1 3.6-1.8 5.4-2.5 7.1-.8 1.7-1.5 3.5-2.5 7.2-1 3.6-1.8 5.4-2.7 7.1q-.6 1.2-1.2 2.7h.6c.4-.9.8-1.7 1.1-2.5.8-1.7 1.7-3.5 2.7-7.2 1-3.6 1.8-5.4 2.5-7.1.8-1.7 1.5-3.5 2.5-7.2 1-3.6 1.6-5.5 2.2-7.2.6-1.8 1.2-3.6 2.2-7.3s1.1-5.6 1.3-7.5c0-.6.1-1.3.2-2h-.5c-.1.7-.1 1.4-.2 2-.2 1.9-.4 3.8-1.3 7.4M232 13.9c-.5 1.8-1 3.7-1.8 7.4s-1.5 5.5-2.1 7.2c-.7 1.8-1.4 3.6-2.1 7.3-.8 3.7-1.5 5.5-2.3 7.2-.6 1.3-1.2 2.7-1.8 5h.5c.6-2.1 1.2-3.5 1.7-4.8.8-1.8 1.5-3.6 2.3-7.3s1.5-5.5 2.1-7.2c.7-1.8 1.4-3.6 2.1-7.3.8-3.7 1.3-5.5 1.8-7.3s1-3.7 1.8-7.4c.7-3.1.8-5 .9-6.7h-.5c0 1.6-.2 3.5-.8 6.6-.7 3.7-1.3 5.5-1.8 7.3M129.3.5c.8 1.7 1.6 3.5 2.5 7.1.9 3.7 1.3 5.5 1.6 7.4.3 1.8.7 3.7 1.6 7.4s1.1 5.6 1.3 7.4c.2 1.9.4 3.8 1.3 7.5.9 3.6 1 5.6 1.1 7.5 0 1 .1 1.9.2 3.1h.5c-.2-1.2-.2-2.2-.3-3.2-.1-1.9-.2-3.9-1.1-7.6s-1.1-5.6-1.3-7.4c-.2-1.9-.4-3.8-1.3-7.5s-1.3-5.5-1.6-7.4c-.3-1.8-.7-3.7-1.6-7.4s-1.7-5.5-2.5-7.2c0-.1-.1-.2-.1-.3h-.6q.15.45.3.6m-122 2c2.3 3 3.6 4.5 4.7 5.9 1.2 1.4 2.4 2.9 4.7 5.9 2.4 3 4 4.2 5.7 5.3 1.6 1.1 3.2 2.2 5.5 5.2s3.3 4.6 4.2 6.3c.9 1.6 1.9 3.4 4.2 6.3 2.3 3 3.8 4.3 5.3 5.6 1.3 1.2 2.7 2.4 4.9 5.1h.7c-2.3-2.9-3.8-4.2-5.2-5.5-1.4-1.2-2.9-2.5-5.2-5.5s-3.3-4.6-4.2-6.3c-.9-1.6-1.9-3.4-4.2-6.3-2.4-3-4-4.2-5.6-5.3S19.6 17 17.3 14s-3.5-4.5-4.7-5.9c-1.3-1.5-2.6-3-4.9-6Q6.8 1.05 6.2 0h-.6c.4.7 1 1.6 1.7 2.5m183.4-1.1c-.1 3.8-.2 5.7-.4 7.5-.2 1.9-.3 3.8-.4 7.6s-.4 5.7-.7 7.5c-.3 1.9-.6 3.8-.7 7.6s-.5 5.7-.9 7.5c-.4 1.9-.8 3.8-.9 7.6V48h.5v-1.3c.1-3.8.5-5.7.9-7.5.4-1.9.8-3.8.9-7.6s.4-5.7.7-7.5c.3-1.9.6-3.8.7-7.6s.2-5.7.4-7.5c.2-1.9.3-3.8.4-7.6V0h-.5zm3.9.1c-.1 3.8-.3 5.7-.5 7.5-.2 1.9-.4 3.8-.5 7.6s-.5 5.7-.8 7.5c-.4 1.9-.7 3.8-.8 7.6s-.6 5.6-1 7.5-.9 3.8-1 7.6v1.3h.5v-1.3c.1-3.8.6-5.6 1-7.5s.9-3.8 1-7.6.5-5.7.8-7.5c.3-1.9.7-3.8.8-7.6s.3-5.7.5-7.5c.2-1.9.4-3.8.5-7.6V0h-.5q.15.75 0 1.5m-11.8-.2c.1 3.8 0 5.7-.1 7.5-.1 1.9-.2 3.8-.1 7.6s-.2 5.7-.4 7.5c-.3 1.9-.5 3.8-.4 7.6s-.3 5.7-.6 7.5c-.3 1.9-.7 3.8-.6 7.6v1.3h.5v-1.3c-.1-3.8.3-5.7.6-7.5.3-1.9.7-3.8.6-7.6s.2-5.7.4-7.5c.3-1.9.5-3.8.4-7.6s0-5.7.1-7.5c.1-1.9.2-3.8.1-7.6V0h-.5c-.1.4 0 .8 0 1.3m-4 .1c.1 3.8.1 5.7 0 7.5-.1 1.9-.1 3.8 0 7.6s-.1 5.7-.3 7.5c-.2 1.9-.4 3.8-.3 7.6s-.2 5.7-.5 7.5c-.3 1.9-.6 3.8-.5 7.6v1.2h.5v-1.2c-.1-3.8.2-5.7.5-7.5.3-1.9.6-3.8.5-7.6s.1-5.7.3-7.5c.2-1.9.4-3.8.3-7.6s-.1-5.7 0-7.5c.1-1.9.1-3.8 0-7.6 0-.5 0-.9-.1-1.4h-.5c.1.4.1.9.1 1.4M167 2c.3 3.8.4 5.7.4 7.5 0 1.9.1 3.8.4 7.6.3 3.7.2 5.7.1 7.5-.1 1.9-.2 3.8.1 7.6.3 3.7.1 5.7-.1 7.5-.2 1.9-.4 3.9-.1 7.6v.5h.5c0-.2 0-.4-.1-.6-.3-3.7-.1-5.7.1-7.5.2-1.9.4-3.9.1-7.7-.3-3.7-.2-5.7-.1-7.5.1-1.9.2-3.8-.1-7.6s-.4-5.7-.4-7.5c0-1.9-.1-3.8-.4-7.6-.1-.7-.1-1.4-.2-2h-.5c.1.8.2 1.5.3 2.2m42 31c-.5 3.7-1.1 5.6-1.7 7.4s-1.2 3.7-1.7 7.5v.2h.5V48c.5-3.7 1.1-5.6 1.7-7.4s1.2-3.7 1.7-7.5c.5-3.7 1-5.6 1.5-7.4s1-3.7 1.5-7.5c.5-3.7.8-5.6 1.2-7.5.4-1.8.7-3.7 1.2-7.5.2-1.3.2-2.3.3-3.2h-.5c0 .9-.1 1.9-.3 3.2-.5 3.7-.8 5.6-1.2 7.5-.4 1.8-.7 3.7-1.2 7.5-.5 3.7-1 5.6-1.5 7.4-.5 1.7-1 3.6-1.5 7.4m-3.4-23.2c-.3 1.8-.6 3.8-.9 7.5s-.8 5.6-1.2 7.4-.9 3.7-1.2 7.5c-.3 3.7-.9 5.6-1.4 7.4s-1.1 3.7-1.4 7.5c0 .3 0 .5-.1.8h.5c0-.2 0-.5.1-.7.3-3.7.9-5.6 1.4-7.4s1.1-3.7 1.4-7.5c.3-3.7.8-5.6 1.2-7.4s.9-3.7 1.2-7.5.6-5.7.9-7.5.6-3.8.9-7.5c.1-.9.1-1.6.1-2.3h-.5c0 .7-.1 1.4-.1 2.3-.3 3.7-.6 5.6-.9 7.4m3.8.4c-.3 1.8-.6 3.7-1 7.5-.4 3.7-.9 5.6-1.4 7.4s-1 3.7-1.4 7.5c-.4 3.7-1 5.6-1.5 7.4-.6 1.8-1.2 3.7-1.5 7.5 0 .2 0 .3-.1.5h.5v-.5c.4-3.7 1-5.6 1.5-7.4.6-1.8 1.2-3.7 1.5-7.5.4-3.7.9-5.6 1.4-7.4s1-3.7 1.4-7.5c.4-3.7.7-5.6 1-7.5.3-1.8.6-3.7 1-7.5.1-1.1.2-2 .2-2.8h-.5c0 .8-.1 1.7-.2 2.7-.3 3.9-.6 5.8-.9 7.6m-16.3 36.6c0 .4 0 .8-.1 1.2h.5c0-.4 0-.7.1-1.1.2-3.7.7-5.6 1.1-7.5.5-1.9 1-3.8 1.2-7.6s.6-5.7 1-7.5c.4-1.9.8-3.8 1-7.6s.4-5.7.6-7.5c.2-1.9.5-3.8.6-7.6 0-.6 0-1.2.1-1.7h-.5c0 .5 0 1.1-.1 1.7-.2 3.8-.4 5.7-.6 7.5-.2 1.9-.5 3.8-.6 7.5-.2 3.8-.6 5.6-1 7.5s-.8 3.8-1 7.6c-.2 3.7-.7 5.6-1.1 7.5-.6 1.9-1 3.8-1.2 7.6m8.7-37.3c-.3 1.8-.5 3.8-.8 7.5-.3 3.8-.7 5.6-1.1 7.5-.4 1.8-.8 3.8-1.1 7.5s-.8 5.6-1.3 7.4-1 3.7-1.3 7.5c0 .4 0 .7-.1 1h.5c0-.3 0-.6.1-1 .3-3.7.8-5.6 1.3-7.4s1-3.7 1.3-7.5.7-5.6 1.1-7.5c.4-1.8.8-3.8 1.1-7.5.3-3.8.5-5.7.8-7.5s.5-3.8.8-7.5c.1-.7.1-1.4.1-2h-.5c0 .6 0 1.2-.1 2-.3 3.7-.6 5.6-.8 7.5M268 .8c-1.3 3.6-1.6 5.5-1.9 7.4s-.6 3.8-1.9 7.3-2.1 5.3-2.8 7c-.8 1.7-1.5 3.5-2.8 7s-2.2 5.2-3.1 6.9-1.8 3.4-3.1 6.9c-.8 2.1-1.4 3.5-2 4.6h.6c.6-1.1 1.2-2.5 1.9-4.4 1.3-3.5 2.2-5.2 3.1-6.9s1.8-3.4 3.1-6.9 2.1-5.3 2.8-7c.8-1.7 1.5-3.5 2.8-7 1.3-3.6 1.6-5.5 1.9-7.4s.6-3.8 1.9-7.3c.1-.4.3-.7.4-1h-.6c-.1.3-.2.5-.3.8M45.1 3.7c1.5 1.3 3 2.5 5 5.7s2.8 5 3.5 6.7 1.5 3.5 3.5 6.8c2 3.2 3.4 4.7 4.6 6.1 1.3 1.4 2.6 2.8 4.6 6s2.9 4.9 3.8 6.5 1.8 3.3 3.8 6.6h.6c-.1-.1-.1-.2-.2-.3-2-3.2-2.9-4.9-3.8-6.5s-1.8-3.3-3.8-6.6c-2-3.2-3.4-4.7-4.6-6.1-1.3-1.4-2.6-2.8-4.6-6s-2.8-5-3.5-6.7-1.5-3.5-3.5-6.8c-2-3.2-3.6-4.6-5.1-5.8-1-.9-2.1-1.8-3.3-3.3h-.7c1.4 1.8 2.6 2.7 3.7 3.7M287.3.4c-1 1.6-2.1 3.2-3.6 6.7s-2 5.4-2.4 7.2-.9 3.7-2.4 7.2c-1.5 3.4-2.4 5.1-3.3 6.8-.9 1.6-1.8 3.4-3.3 6.8s-2.6 5.1-3.6 6.6-2 3.1-3.4 6.2h.6c1.4-2.9 2.3-4.5 3.3-5.9 1-1.6 2.1-3.2 3.6-6.7 1.5-3.4 2.4-5.1 3.3-6.8.9-1.6 1.8-3.4 3.3-6.8 1.5-3.5 2-5.4 2.4-7.2s.9-3.7 2.4-7.2c1.5-3.4 2.6-5.1 3.6-6.6.2-.2.3-.5.5-.7h-.6c-.2.1-.3.3-.4.4M75.4 12.5c1.7 3.4 2.9 4.9 4.1 6.5 1.2 1.5 2.3 3 4 6.4s2.5 5.1 3.2 6.8 1.5 3.5 3.2 6.9 2.3 5.2 2.9 7c.2.6.4 1.3.7 2h.6c-.3-.8-.5-1.5-.8-2.2-.6-1.8-1.2-3.6-2.9-7s-2.5-5.1-3.2-6.8-1.5-3.5-3.2-6.9-2.9-4.9-4.1-6.5c-1.2-1.5-2.3-3-4-6.4s-2.3-5.2-2.9-7c-.5-1.5-1-3-2.1-5.3h-.6c1.1 2.4 1.7 4 2.2 5.4.6 1.8 1.2 3.7 2.9 7.1M86.9 7c1.5 3.5 2.7 5.1 3.8 6.7 1.1 1.5 2.2 3.1 3.7 6.6 1.5 3.4 2.2 5.2 2.8 7s1.3 3.6 2.9 7c1.5 3.4 2 5.3 2.5 7.1.5 1.7 1 3.5 2.3 6.6h.6c-1.4-3.2-1.9-5-2.4-6.8s-1-3.7-2.6-7.2c-1.5-3.4-2.2-5.2-2.8-7s-1.3-3.6-2.8-7c-1.5-3.5-2.7-5.1-3.8-6.7-1.1-1.5-2.2-3.1-3.7-6.6-1.4-3.3-2-5.1-2.5-6.8h-.5c.4 1.9 1 3.8 2.5 7.1m204.3-4.7c-1 1.6-2.1 3.2-3.7 6.6s-2.1 5.4-2.6 7.2-.9 3.7-2.5 7.1-2.5 5.1-3.4 6.7-1.8 3.3-3.4 6.8c-1.6 3.4-2.7 5-3.7 6.6-.8 1.2-1.7 2.5-2.8 4.7h.6c1-2 1.9-3.2 2.6-4.4 1-1.6 2.1-3.2 3.7-6.6s2.5-5.1 3.4-6.7 1.8-3.3 3.4-6.8c1.6-3.4 2.1-5.4 2.6-7.2s.9-3.7 2.5-7.1 2.7-5 3.7-6.6c.5-.8 1-1.6 1.6-2.6h-.6c-.4.9-.9 1.6-1.4 2.3m.1 8.4c-1.7 3.4-2.2 5.3-2.7 7.2-.5 1.8-1 3.7-2.6 7.1-1.7 3.4-2.6 5.1-3.5 6.7s-1.9 3.3-3.5 6.7-2.7 5-3.8 6.5c-.6.9-1.3 1.9-2.1 3.2h.6c.7-1.2 1.3-2 1.9-2.9 1.1-1.6 2.2-3.2 3.9-6.6s2.6-5.1 3.5-6.7 1.9-3.3 3.5-6.7c1.7-3.4 2.2-5.3 2.7-7.2.5-1.8 1-3.7 2.6-7.1s2.7-5 3.8-6.5c.8-1.2 1.7-2.4 2.8-4.4h-.6c-1 1.9-1.8 3-2.6 4.1-1.1 1.6-2.2 3.2-3.9 6.6m56.8 9c-.7 1.8-1.4 3.7-3.7 6.6-2.3 3-3.7 4.3-5.1 5.6s-2.8 2.6-5.1 5.6-3.2 4.8-4.1 6.4c-.6 1.2-1.2 2.4-2.3 4h.6c1-1.5 1.6-2.7 2.2-3.8.9-1.7 1.7-3.4 4.1-6.4 2.3-3 3.7-4.3 5.1-5.6s2.8-2.6 5.1-5.6c2.4-3 3.1-4.9 3.8-6.8.7-1.8 1.4-3.7 3.7-6.6 2.3-3 3.5-4.5 4.6-6 .9-1.1 1.7-2.3 3.2-4.2v-.7c-1.7 2.2-2.6 3.5-3.6 4.7-1.1 1.5-2.3 3-4.6 6-2.5 3.1-3.2 5-3.9 6.8m-30.7 14.8c.7-1.7 1.5-3.5 3.6-6.6s3.4-4.5 4.7-5.9 2.6-2.8 4.7-6 2.7-5.1 3.3-7c.5-1.8 1.1-3.8 3.2-6.9.5-.8 1-1.5 1.4-2.2h-.6c-.4.6-.8 1.2-1.2 1.9-2.1 3.2-2.7 5.1-3.3 7-.5 1.8-1.1 3.8-3.2 6.9s-3.4 4.5-4.7 5.9-2.6 2.8-4.7 6-2.9 5-3.7 6.7c-.7 1.7-1.5 3.5-3.6 6.6s-3.3 4.6-4.4 6.1c-.2.3-.5.6-.7.9h.7c.2-.2.3-.4.5-.6 1.1-1.5 2.3-3 4.4-6.1 2-3.1 2.8-4.9 3.6-6.7M30.2 42.3c-2.4-2.9-3.4-4.5-4.4-6.1s-2-3.3-4.4-6.2c-2.5-2.9-4.2-4-5.8-5.1-1.6-1-3.3-2.1-5.7-5S6.2 15.6 5 14.2c-1.4-1.4-2.6-2.8-5-5.6v.8c2.1 2.5 3.3 3.9 4.5 5.2C5.7 16 7 17.4 9.4 20.3c2.5 2.9 4.2 4 5.8 5.1 1.6 1 3.3 2.1 5.7 5s3.4 4.5 4.4 6.1 2 3.3 4.4 6.2 3.9 4.1 5.4 5.3h.9c-.2-.1-.3-.2-.5-.4-1.4-1.2-2.9-2.4-5.3-5.3m299.1-36c-.5 1.9-1.1 3.8-3.1 6.9-2 3.2-3.3 4.6-4.6 6s-2.6 2.9-4.6 6.1c-2.1 3.2-2.8 5-3.5 6.8-.7 1.7-1.4 3.5-3.5 6.7s-3.2 4.7-4.3 6.2c-.7.9-1.3 1.8-2.2 3.1h.6c.8-1.1 1.4-1.9 2-2.7 1.1-1.5 2.3-3 4.3-6.2 2.1-3.2 2.8-5 3.5-6.8.7-1.7 1.4-3.5 3.5-6.7 2-3.2 3.3-4.6 4.6-6s2.6-2.9 4.6-6.1c2.1-3.2 2.6-5.2 3.2-7.1.5-1.8 1-3.6 2.8-6.5h-.6c-1.7 2.8-2.2 4.6-2.7 6.3m-34.2 6.3c-1.7 3.4-2.3 5.3-2.8 7.1s-1.1 3.7-2.8 7c-1.7 3.4-2.7 5-3.6 6.6-1 1.6-1.9 3.3-3.7 6.6-1.7 3.4-2.8 4.9-3.9 6.4-.4.5-.7 1-1.1 1.6h.6c.3-.4.6-.9.9-1.3 1.1-1.5 2.2-3.1 4-6.5 1.7-3.4 2.7-5 3.6-6.6 1-1.6 1.9-3.3 3.7-6.6 1.7-3.4 2.3-5.3 2.8-7.1s1.1-3.7 2.8-7c1.7-3.4 2.8-4.9 3.9-6.4s2.2-3.1 3.9-6.4h-.6c-1.6 3.1-2.7 4.6-3.8 6.1s-2.2 3.1-3.9 6.5m-15.3-7.1c-1.5 3.5-1.9 5.4-2.3 7.3-.4 1.8-.8 3.7-2.3 7.2s-2.3 5.2-3.2 6.8c-.8 1.7-1.7 3.4-3.2 6.9s-2.5 5.1-3.5 6.7-2 3.3-3.5 6.8c-.1.3-.3.6-.4.9h.6c.1-.2.2-.4.3-.7 1.5-3.5 2.5-5.1 3.5-6.7s2-3.3 3.5-6.8 2.3-5.2 3.2-6.8c.8-1.7 1.7-3.4 3.2-6.9s1.9-5.4 2.3-7.3c.4-1.8.8-3.7 2.3-7.2 1.2-2.7 2-4.3 2.8-5.7h-.6c-.8 1.3-1.6 2.9-2.7 5.5m-25.3-1.2c-.2 1.9-.4 3.8-1.5 7.4s-1.8 5.4-2.4 7.1c-.7 1.7-1.3 3.5-2.5 7.2-1.1 3.6-1.9 5.3-2.7 7s-1.7 3.5-2.8 7.1-2 5.3-2.9 7c-.2.3-.3.6-.5.9h.6c.1-.2.2-.5.4-.7.9-1.7 1.8-3.4 2.9-7.1 1.1-3.6 1.9-5.3 2.7-7s1.7-3.5 2.8-7.1 1.8-5.4 2.4-7.1c.7-1.7 1.3-3.5 2.5-7.2 1.1-3.6 1.3-5.6 1.5-7.5.1-1.3.3-2.5.7-4.3h-.5c-.5 1.8-.6 3-.7 4.3M113.6 5c.9 1.6 1.8 3.4 3 6.9 1.2 3.6 1.6 5.4 2.1 7.2s.9 3.7 2.1 7.3 1.5 5.5 1.8 7.3c.3 1.9.6 3.8 1.8 7.4 1 3.2 1.3 5.1 1.5 6.8h.5c-.2-1.8-.5-3.7-1.6-7-1.2-3.6-1.5-5.5-1.8-7.3-.3-1.9-.6-3.8-1.8-7.4s-1.6-5.4-2.1-7.2-.9-3.7-2.1-7.3-2.1-5.3-3-7c-.7-1.3-1.4-2.6-2.2-4.7h-.6c.9 2.3 1.6 3.7 2.4 5m144.8.5c-.2 1.9-.5 3.8-1.6 7.4-1.2 3.6-1.9 5.4-2.6 7.1s-1.4 3.5-2.6 7.1-2 5.3-2.9 7c-.8 1.7-1.7 3.4-2.9 7-1.1 3.5-2.1 5.2-3 6.9h.6c.9-1.6 1.8-3.3 2.9-6.7 1.2-3.6 2-5.3 2.9-7 .8-1.7 1.7-3.4 2.9-7s1.9-5.4 2.6-7.1 1.4-3.5 2.6-7.1 1.4-5.6 1.7-7.5c.2-1.5.4-3.1 1.1-5.6h-.5c-.8 2.4-1 4-1.2 5.5M102.5.7c1.3 3.6 2.3 5.3 3.3 6.9s2 3.3 3.2 6.8c1.3 3.5 1.8 5.4 2.3 7.2s1.1 3.6 2.4 7.2c1.3 3.5 1.7 5.4 2 7.3.4 1.9.8 3.8 2.1 7.3.7 1.9 1.1 3.4 1.4 4.6h.5c-.3-1.3-.7-2.8-1.4-4.8-1.3-3.5-1.7-5.4-2-7.3-.4-1.9-.8-3.8-2.1-7.3s-1.8-5.4-2.3-7.2-1.1-3.6-2.4-7.2-2.3-5.3-3.3-6.9-2-3.3-3.2-6.8c-.1-.2-.1-.4-.2-.5h-.6c.2.2.2.5.3.7m245.6 9.4c-2.3 3.1-3 5-3.6 6.8s-1.3 3.7-3.6 6.7-3.6 4.4-5 5.7-2.8 2.7-5 5.7c-2.3 3-3.2 4.8-4 6.5s-1.7 3.4-3.9 6.4c0 0 0 .1-.1.1h.7c2.2-2.9 3-4.6 3.8-6.3s1.7-3.4 3.9-6.4c2.3-3 3.6-4.4 5-5.7s2.8-2.7 5-5.7c2.3-3.1 3-5 3.6-6.8s1.3-3.7 3.6-6.7 3.4-4.6 4.5-6.1c.8-1.2 1.7-2.4 3.1-4.3h-.7c-1.3 1.7-2.1 2.9-2.9 4-1 1.5-2.2 3.1-4.4 6.1m-235.3 3c1.2 3.6 1.7 5.4 2.2 7.2s1 3.7 2.2 7.2c1.2 3.6 1.6 5.5 1.9 7.3.3 1.9.7 3.8 1.9 7.4.9 2.6 1.3 4.3 1.5 5.7h.5c-.2-1.5-.6-3.3-1.5-5.9-1.2-3.6-1.6-5.5-1.9-7.3-.3-1.9-.7-3.8-1.9-7.4s-1.7-5.4-2.2-7.2-1-3.7-2.2-7.2c-1.2-3.6-2.2-5.3-3.2-7-.9-1.5-1.7-3-2.8-6h-.6c1.1 3.1 2 4.7 2.9 6.3 1 1.7 2 3.4 3.2 6.9m231.4-5.8c-2.2 3.1-2.9 5-3.5 6.9-.6 1.8-1.2 3.7-3.4 6.7s-3.6 4.4-4.9 5.7-2.7 2.7-4.9 5.8-3.1 4.9-3.9 6.6-1.6 3.5-3.8 6.5c-.7 1-1.3 1.8-1.8 2.5h.7c.5-.6 1-1.3 1.6-2.1 2.2-3.1 3.1-4.9 3.9-6.6s1.6-3.5 3.8-6.5 3.6-4.4 4.9-5.7 2.7-2.7 4.9-5.8 2.9-5 3.5-6.9c.6-1.8 1.2-3.7 3.4-6.7 2.2-3.1 3.3-4.6 4.4-6.2.3-.5.6-.9 1-1.4h-.6c-.3.4-.5.8-.8 1.1-1.2 1.4-2.3 3-4.5 6.1M26.9 45.1c-2.5-2.8-3.5-4.5-4.5-6.1s-2.1-3.2-4.5-6.1c-2.5-2.9-4.2-3.9-5.9-5-1.6-1-3.3-2.1-5.8-4.9-2.5-2.9-3.8-4.3-5-5.7q-.6-.45-1.2-1.2v.8c.3.3.5.6.8.8 1.3 1.4 2.5 2.8 5 5.6 2.5 2.9 4.2 4 5.9 5 1.6 1 3.3 2.1 5.8 4.9s3.5 4.5 4.5 6.1 2.1 3.2 4.5 6.1c.9 1.1 1.7 1.9 2.4 2.6h.8c-.8-.8-1.7-1.7-2.8-2.9M340.4 4.5c-2.2 3.1-2.8 5.1-3.4 6.9s-1.2 3.7-3.3 6.8c-2.2 3.1-3.5 4.5-4.8 5.8-1.3 1.4-2.7 2.8-4.8 5.9-2.2 3.1-3 4.9-3.8 6.6s-1.6 3.5-3.7 6.6c-1.6 2.2-2.6 3.6-3.5 4.8h.7c.9-1.1 1.9-2.4 3.3-4.5 2.2-3.1 3-4.9 3.8-6.6s1.6-3.5 3.7-6.6c2.2-3.1 3.5-4.5 4.8-5.8 1.3-1.4 2.7-2.8 4.8-5.9 2.2-3.1 2.8-5.1 3.4-6.9s1.2-3.7 3.3-6.8c1.5-2.2 2.5-3.6 3.3-4.8h-.6c-.9 1.1-1.8 2.5-3.2 4.5M272 2.3c-1.4 3.6-1.7 5.5-2.1 7.4-.3 1.9-.7 3.8-2 7.3-1.4 3.5-2.2 5.3-2.9 6.9-.8 1.7-1.6 3.4-2.9 7-1.3 3.5-2.3 5.2-3.2 6.8s-1.9 3.3-3.3 6.9c-.5 1.4-1 2.5-1.5 3.4h.6c.4-.9.9-1.9 1.4-3.2 1.3-3.5 2.3-5.2 3.2-6.8s1.9-3.3 3.3-6.9c1.4-3.5 2.2-5.3 2.9-6.9.8-1.7 1.6-3.4 3-7s1.7-5.5 2-7.4.7-3.8 2-7.3c.4-1 .7-1.8 1-2.5h-.6c-.3.7-.6 1.4-.9 2.3"/></svg>