<svg xmlns="http://www.w3.org/2000/svg" width="360" height="48" fill="none"><path fill="currentColor" d="M325.7 47.4c.9.3 1.6.7 2.2 1.3h1.6c-1.1-.9-2.2-1.7-3.8-1.3m-26.8 1.1q.15-.15 0 0c0-.1.1-.1 0 0"/><path fill="currentColor" d="M299 48.4c2.1-1.2 4.1-2.3 6.4-3.5-2.8.2-4.9 1.3-6.4 3.5m12.6-19.6v-.1zq-.15-.15 0 0-.15 0 0 0"/><path fill="currentColor" d="M355 48.5c.1-.3.3-.6.5-.9s.3-.5.3-.5c-.7-.4-1.4-.6-1.6-1.1-2-4.6-5.2-8.2-8.4-11.8-3.5-3.9-7.8-7-12.2-10-2.2-1.4-4.5-2.7-6.4-4.4-3.3-2.9-5.9-6.3-8.1-10.1-1.7-3-2.7-6-2.9-9.1h-3V2c-.2 4.4-1.8 8.3-4.4 11.7-4.9 6.3-11.1 11.2-17.7 15.7-5.2 3.6-9.9 7.6-12.8 13.5-.8 1.6-1.4 3.3-2.1 5-.1.3-.2.5-.4.8h1.7c.4-.9.9-1.9 1.6-2.7.2-.2.7-.3 1.5-.5.5-3.1 2-6.3 5.1-8.6-1.8 3-3.7 5.9-3.2 9.6.2-.6.3-1.2.5-1.8.4-1.7.6-3.5 2.4-4.7 1.2-.8 1.9-2.7 2.5-4.2 1-2.3 2.8-3.6 4.6-5.1 1.1-.9 2.1-1.8 3.2-2.7l.3.3c-.6 1-1.1 2-1.7 3.1-1.6 2.7-2.5 5.5-2.4 8.6.1 1.8.2 3.5.1 5.3 0 .4-.3.8-.7 1.6-.8-1.8-1.4-3.1-2-4.4-.2 0-.3 0-.5.1.1.7 0 1.5.3 2.1.8 1.9 2.1 3.2 3.9 4.1h2c.1-.2.2-.6.1-1-.2-1.2-.3-2.5-.9-3.6-2.2-4.1-1.4-11.6 2.6-15 1.6-1.3 2.4-3.6 3.8-5.3.8-1.1 1.4-2.8 3.4-2.2.1 0 .5-.4.6-.7.9-1.2 1.8-2.5 2.8-3.7.5-.5 1.2-.8 1.9-1.1.2-.6.1-1.4.5-1.8 1-1 2.3-1.8 3.3-2.9.8-.8 1.2-1.9 2-3.1 1.2 2 2.2 3.9 3.5 6 .1-.7.2-1.1.4-1.8 1.9 2.7 3.7 5.1 5.4 7.6 1 1.4 1.8 3.1 3.8 3.6.8.2 1.4 1 2.1 1.5s1 1.9 2.4.9c.1-.1.9.4 1.2.7 1.4 1.3 2.6 3 4.2 4 2.8 1.8 4.9 4.1 6.8 6.7.9 1.2 1.8 2.4 2.7 3.5 1.7 2 2.4 4.8 2.4 7.8h1.5c-.2-.9-.5-1.7-.7-2.6.5.2.9.3 1 .5.2.7.4 1.4.7 2.1zq0 .15 0 0m-56.2.1q.15 0 0 0"/><path fill="currentColor" d="M310.5 34.9c.8-1.6 1.6-3.1 2.5-4.7l-.2-.2c-.6.6-1.2 1.3-1.8 2-.1-.1-.2-.1-.4-.2.3-1 .6-1.9.9-2.9-1.3 1.5-2.5 3.1-2.2 5.3.1.9.5 1.7 1.7 1.6 1.4-.2 2.7-1.5 2.6-3.3-.9.9-1.8 1.9-2.6 2.8-.2-.2-.3-.3-.5-.4m-184-2.6c2.1-1.6 4.2-3.3 6.3-5 .5.3.9.5 1.3.8 1.7-2.4 3.4-4.7 5.1-7l-.3-.3c-.3.1-.6.2-.8.4-3.6 2.7-7.2 5.4-10.7 8.2-.8.6-1.1 1.8-1.7 2.7-.1-1.1-.2-2.3-.3-3.4-.1-.8-.6-1.8-.4-2.4.7-1.6 1.8-3.1 2.7-4.5-.1-.2-.4-.7-.7-1.1-.8 0-1.6-.1-2.1-.1-.1-1.3-.3-2.4-.3-3.5 0-.4.3-.8.5-1.2-.1 0-.2.1-.2.1-.2-2.4-.4-4.8-.6-7.1-.7.3-1.2.6-1.8.8.2-.3.4-.5.6-.8-.6-.4-1.3-.7-2.2-1.3.3-.2.7-.6 1.1-.9.1.1.2.3.3.4.2.2.4.6.5.5.3-.1.8-.3.8-.5.3-1.1.5-2.3.8-3.5.3.1.7.2 1.5.5.2-1.2.4-2.4.5-3.5h-4.3c.2.2.3.4.5.6 1.3.8 1.2 2 .9 3-.1.4-1.3.5-2 .6-.6.1-1.2 0-1.8.1-.3.1-.8.3-.9.5-.6.9 1.2 4.4 2.3 4.6 2.1.4 2.5 1.1 1.3 3 1.8 3.2 1.8 3.2-.6 4.1 2-.1 2 .7 1.8 2.1-.2 2 0 4.1 0 6.1 0 .6-.2 1.2-.6 1.7-.5.6-1 1.2.1 1.6 1.4.5 1.2 1.3.5 2.2-1.6 2.1-3.1 4.2-4.9 6.1-2.1 2.1-3.8 4.1-2.6 7.5 2.8-2.2 3-6.3 6.2-8-.6 1.2-1.4 2.3-2 3.5s-.9 2.5-1.4 4.1c1.5-2.1 2.6-3.8 3.8-5.5.6-.8.7-2 2.2-1.9.1 0 .4-.6.5-.9.1-1.1.1-2.3.1-3.4.4 0 .8.1 1 0m.5 16.3c-.3-.4-.7-.8-1-1.1 0 .4-.1.8-.1 1.1zM312.4 26h-1.6c-.4-1.2-.7-2.3-1.1-3.4-.2.6-.5 1.1-.7 1.6-.6 2.3 0 3 2.3 2.8.1 0 .2.1.3.2 0 .4 0 .9-.1 1.3.9-.6 1.4-1.4.9-2.5m-201.8 1.3c-.6.7-1.2 1.4-1.6 1.9-.8-.1-1.5-.4-2.1-.2-1.9.4-3.9-.4-4.9-2.1-.3-.4-.2-1.1-.3-1.6.2-.1.3-.1.5-.2.3.7.7 1.5 1.1 2.5 1.3-2-.9-2.8-.9-4.2-1.3 1.2-1.6 2.6-1.2 4.2.9 3 3.3 2.9 5.9 2.5-.6 1.9-1.1 3.5.3 4.7 1.2-2.5 2.4-4.9 3.5-7.3 0-.1-.2-.1-.3-.2"/><path fill="currentColor" d="M130.9 16.9c.2-.5.2-1.1.5-1.4s.9-.2 1.3-.5c.8-.5 1.5-.7 1.6.7.7-1.2 1.2-2.2 1.7-3.2 1.4 1.2 1.4 1.2 4.3-1.2-3.4-.5-3.4-.5-3.3-1.5.8-.3 1.5-.6 2.2-.9.5-.3 1-.8 1.5-.9 2.3-.6 3.6-2.5 5-4 .9-1 1.9-2 2.5-3.3h-3.4c-1.5 2.9-4 5-7.4 6.3-1.7.6-2.8 1.8-3.2 3.5-.2 1.1-.8 1.3-1.7 1.6-1.3.4-2.6.9-3.7 1.6-.5.2-.7 1.4-1 1.3-1.3-.2-1.6.5-1.5 1.5 0 .7.2 1.5.3 2.2l-.1.1.3 1.8c1.1-.6 2.3-1 3.3-1.7.6-.3.6-1.3.8-2m-20.1 21.6c-.2-.9-.4-1.5-.6-2.4-.4.9-.8 1.7-1.2 2.7.8-.1 1.3-.2 1.8-.3m214.9-13c-.1-.7-.9-1.3-1.5-2v2.4h-.4c-.1-1.2-.1-2.4-.2-3.7h-.3v6.4c.5-.2 1.3-.2 1.5-.5.5-.8 1-1.7.9-2.6m-15.9-2.9q-.15 0 0 0c.4.4.9.8 1.3 1.2.3.4.6.8.9 1.3.2-.6.6-1.1.6-1.7 0-.5-.4-1-.5-1.5-.1-.4-.2-1 0-1.4.3-.8.9-1.4 1.3-2.1-.4-.5-.8-1-1.4-1.7 0 1 .2 1.8 0 2.4-.6 1.2-1.5 2.3-2.2 3.5m-2.5 6.7c0-2.2-.9-3.8-.2-5.7.8-2.1 1.2-4.2 3-5.9.9-.8 1.1-2.4 1.4-3-.4.3-1.2.8-2 1.4-.3.6-.6 1.3-1 1.8-1.9 2.1-3.6 4.2-2.9 7.4.2.9-.3 1.9-.6 3.2.5.2 1.3.4 2.3.8m16.4 12.1c-.9-.5-1.6-1.3-2.8-2.4-.1 1-.4 2-.1 2.7s1.3 1.5 1.8 1.5c1.3-.1 2.6-.9 4-1.2 1.6-.4 2.4-1.4 3-2.8.2-.4.3-.8.5-1.2h.4c.2.5.3 1.1.5 1.5s.7.8 1 1.2c.3-.3.8-.6 1-1 1.2-2.8 1.9-5.7.5-8.7-.2-.3-.3-.9-.2-1.1 1.1-1.5-.5-1.6-1.2-2.3 0 1.5.3 3 .6 4.4.1.6.1 1.1 0 1.7-.1.7-.3 1.4-.7 1.9s-1.1.9-1.7 1.3c-.2-.5-.4-1-.4-1.5-.1-1.7 0-3.4 0-5.1-.3 1.4-.2 2.8-.4 4.2-.1.5-1 .9-1.5 1.3-.4-.6-.9-1.2-1.1-1.9-.2-.8-.2-1.7-.4-2.7-1 1.1-1.7 1.8-2.4 2.6-.4.4-.7.8-1 1.3.5.4 1 .9 1.5 1.2.4.2.8.2 1.2.2.1 1.1.1 2.1.2 3.1 0 .6.1 1.2.2 1.8-1-.1-1.9.2-2.5 0m-8.5 3.2c-.5-1.3-.6-2.6-.7-3.8-.1-1.9-.2-2-2.2-1.4.3-1.2.6-2.3.9-3.4-.2 0-.4-.1-.6-.1-.3 1.8-.7 3.5-.9 5.3 0 .2.5.6.8.8.3.1.7.1 1.1.1.1 1 0 2 .3 2.9.1.5.7 1.3 1 1.3.5 0 1.3-.5 1.5-1 .4-.9.5-2 .7-3 3.3-1.5.9-4.3 1.2-6.5 1.2 0 2.2 0 2.1-1.6-.1-1.2.1-2.4-1-3.1-.2.1-.4.1-.5.2.1.8.1 1.6.2 2.7-.4-.4-.6-.7-.8-.9-.4-.4-.9-.8-1.3-1.2-.2.7-.5 1.5-.6 2.2 0 .5.5 1.1.4 1.6-.2 1.7-.6 3.3-.9 5-.3 1.3-.5 2.6-.7 3.9m-11-18.7c-.2 0-.4-.1-.7-.1-.2 1-.3 2.1-.5 3.1h.4c.2-1 .5-2 .8-3m20.4 19c1.2.2 2.3.5 3.5.7 0-.2.1-.4.1-.6-1.2-.2-2.3-.4-3.5-.6 0 .3 0 .4-.1.5m-8-28.7c.9 1.6-.1 3.9 2.1 5.1.8.4.9 2.1 1.1 3.3.1.3-.3.8-.6 1.1-.2.3-.6.4-.9.6.2.3.4.8.7.8.4.1 1-.1 1.3-.3 1.1-1.1 1-3.1-.2-5-1.1-1.9-2.3-3.8-3.5-5.6m.8 11.8c.4.8.7 1.6 1.1 2.4.2-.1.4-.2.7-.3-.4-.8-.7-1.6-1.1-2.4-.3.1-.5.2-.7.3m11.7 18.1c.7.9 1.4 1.7 2.1 2.5h1.3c-.7-.8-1.5-1.5-2.2-2.3-.9-.7-1-.7-1.2-.2m10-12.8c-.1.1-.3.1-.4.2.2.7.1 1.6.5 2 .6.8 1.6 1.2 2.4 1.8-.8-1.1-1.6-2.5-2.5-4m8 15.3h.6c0-.6.1-1.1.1-1.7-.2 0-.4 0-.6-.1 0 .7 0 1.3-.1 1.8m-11.2-9c-2 3-1.8 4.7.5 8.2 3-1.7 5.2-6.1 3.5-8.2-1.2 1.7-2.1 3.6-2.5 5.7h-.6c-.5-1.3-.9-2.7-1.4-4 .5-.1.9-.3 1.6-.5-.5-.5-.8-.9-1.1-1.2m6.3 3.8c-1.2 1.8-2.1 3.5-3.1 5.3h1.7c.5-1.8 1-3.6 1.4-5.3m-71.1-16.1q0-.15 0 0m6.5 9.7c-1.2.5-1.6 1.3-1.2 2.6.8-.1 1.5-.2 2.3-.3-.4-.9-.8-1.6-1.1-2.3m-17.9-21.9c2.5 1.5 4.3 0 6.1-1.2-2 .4-4 .8-6.1 1.2m11.1 20.3c.3-1 .7-2 1-3.1.3-1 1.7-1.7.6-3-.2.4-.4.8-.5.9-1.1-.3-2.1-.5-3.6-.9.7.9 1.1 1.4 1.6 2-.6 2.8-.4 3.5.9 4.1m10.1-10.3c-.3-.5-.8-.8-1.2-1.2-.2.1-.3.2-.4.3.2.5.4 1.1.7 1.5.1.2.6.2.9.3-.1-.3.1-.7 0-.9"/><path fill="currentColor" d="M267.1 31.1c.4.1.9 0 1.3-.1.1-.2.1-.3.2-.5-.7-.7-1.4-1.4-2.1-2.2.3 0 .8.1 1.4 0 1.1-.2 2.6.4 3.3-1.1-2.2.4-4.1 0-5.1-2.3-.1-.3-1.1-.5-1.1-.4-1.8 2.7-.6 5.8 2.1 6.6"/><path fill="currentColor" d="M272.3 26c-.4.5-.8.8-1.2 1.2 2 .2 1.5-1.6 2-2.3-.7-.7-1.3-1.2-2-1.8-.6.3-1.4.8-2.6 1.4 1.5.6 2.5 1 3.8 1.5m28.9-.3c-.3 1.7-.6 3.5-1 5.2.1 0 .3 0 .4.1l1.2-5.1c-.2-.1-.4-.2-.6-.2m-15.6-5.9c-.8-.2-1.6-.4-2.4-.7-.3-.1-.6-.4-.9-.7.3-.2.6-.4.9-.5s.6-.1 1-.1c-.3-.3-.8-.5-.8-.7.1-1.5-1.1-2.1-1.9-3-.2-.3-.3-.7-.6-.9-.5-.5-1-1.1-1.6-1.3-1.1-.4-1.2-.3-.8-1.6 1.5.3 2.9.6 4.4.8-1-.9-2.1-1.7-3.3-2-1.1-.4-2.3-.4-3.4-.5v-.5c.7-.3 1.3-.6 2-.9-.1-1.3-1.1-2.2-2.4-2.2.2.5.3.9.5 1.5h-1.2c.1.6.2 1 .3 1.7-1.1-.3-2.1-.5-3-.8-.5.3-1 .6-1.6.9-1.7.7-3.3 1.3-5 2-1.2.5-2.5 1.1-3.4-.5-1.5.6-2.9 1.3-4.5 2 .1.1.3.3.4.2 2.4-.2 4.7-.3 7.2.1.9.2 2.2-.3 2.8-.9 1.3-1.3 2-1.5 3.6-.2-.8.9-1.6 1.9-2.4 2.7-.9.9-1.9 1.7-2.8 2.5 1.1 0 2.5.4 3.2-.2 1.3-1.2 2.4-2.8 3.3-4.3.6-1 1-1.9 2.3-.9.3-.4.5-.7.9-1.3.4 1.2 1.1 2 .3 3.2-.3.4.1 1.7.5 2.2.4.4 1.4.4 2.1.4.9 0 1.8-.2 3-.3-.6 1.4-1.2 2.3-1.4 3.2-.1.6.3 1.7.6 1.8 1.5.2 3 .2 4.5.3-.5-.1-.5-.3-.4-.5m-19.7-2.1c.6.1 1 .2 1.6.4-1 .8-1.8 1.5-2.7 2.1.1.2.1.4.2.5 1.6-.3 3.1-.5 4.7-.8.1-.2.1-.5.2-.7-1.2-1-2.3-2-3.5-3-.2.5-.3 1-.5 1.5m-8.8-15.6c-1.8 2.4-4.3 3.4-6.7 3-2.3-.4-4.3-2-6.4-3 1.2 1.3 2.5 2.4 4 3.3 1.3.7 2.8 1.4 4.3 1.5 1.2.1 1.6.5 1.8 1.5.1.7.3 1.5.7 1.9.5.4 1.4.3 2.1.4 0-.4 0-.9.1-1.3.5-1.3-.8-2.7.3-4 1-1 .7-2.1-.2-3.3m-174 6.4c2.1 2.4 2.2 2.4 5.1.3-3-2.2-6.7-3.1-9.1-6.2-.5-.6-.8-1.3-1.2-2h-1.3c.4.9.9 1.7 1.4 2.5 1.5 2 3.5 3.6 5.1 5.4"/><path fill="currentColor" d="M271.1 17.2h-.8c-.1.6-.1 1.3-.2 1.9h1.3c-.1-.6-.2-1.3-.3-1.9M45.4.6v.3c.1-.1.1-.2.1-.3zm311.9 1.5c-.1-.5-.2-1-.3-1.4h-.4c.1.8.2 1.7.4 2.7.8-.5 1.3-.8 2-1.2.1 1 .1 1.9.2 2.7.3-.3.5-.6.7-.9V.6h-.9c-.4.3-.9.7-1.7 1.5M28.8 1.8c-.3-.4-.5-.8-.7-1.2H28c.3.4.5.8.8 1.2m29.9.6C55 3.5 51.3 5.2 48.5.9c-1.6 1.3-2.2 2.5-1.5 3.3 1.1 1.2.9 2.1 0 3 1 .2 2 .5 2.9.5 1 0 2.3-.1 2.2-1.4-1-.6-1.7-1.1-2.6-1.6 3.1-1.5 6.8.7 9.2-2.3M46.9 7.3q.15 0 0 0c0-.1 0-.1-.1-.1zM81.3.6h-1.1c.8 1.2 1.7 2.7 3.6 2.4-.9-.7-1.9-1.4-2.5-2.4M95 10.7c2.4 1 4.3.3 6.1-1.7 1.2-1.3 1.8-2.5 1.7-4.1-1.7-.7-3.1-.8-4.5.5-.7.6-1.7 1.1-2.6 1.4-.8.3-1.7.4-2.5.6-.1-.2-.2-.3-.3-.5.5-.8 1.1-1.7 1.6-2.5.5-1 .6-1.9-.4-2.9-1.5 1-2.5 2.8-4.7 2.8-2 .1-3.9 0-5.6-1.2.2.5.2 1.1.5 1.3 1.6.7 3.3 1.3 5 1.8.2.1.7-.7 1.2-1.2.3.3 1.1.9 1 1.3 0 .5-.9.9-1.3 1.2.9.6 2 1.2 3.1 1.9.2-.5.3-.9.5-1.3.1.3.2.4.2.6 1.3-.3 2.5-.7 3.8-1 .6-.1 1.1 0 1.7 0-.2.5-.4 1.3-.8 1.6-1.2.6-2.5 1-3.7 1.4m189.3 19.4c.3-.3.3-1.1.2-1.7 0-.2-.8-.5-1.1-.4-1.6.6-3.1.4-4.6-.5-.1-.1-.3.1-.5.2.8 1.5 3.3.8 3.5 2.7-2.3 1.3-3.7 0-5-1.7-.1.1-.2.3-.3.4 1.1 2 2.2 4 3.3 6.1 1.2-.9 1.3-1.3.8-3.4.3-.1.5-.2.7-.2 1.5.3 2.2-.7 3-1.5m1.2-22.5c1.9 1.2 4 1.7 6.3 1.4.3 0 .7-.6.8-.6 1.7 1.2 2.8-.2 4.2-.6-1.1-.7-2-1.3-3-1.9.1-.1.2-.3.3-.4.7-.2 1.4-.4 2.1-.5-1.7-.8-3.2-1.3-3.8-3.7-.8 1.2-1.8 1.9-1.8 2.7-.1 1 .6 2.1 1 3.2 0 0 0 .1-.1.1-1.3.6-2.4.2-3.5-.7-2.2-1.6-4.9-1.7-6.3-.3 1.4 1.5 1 5.2 4.7 3.8l-.8.2c-.5-.6-.8-.9-1.2-1.3.2-.5.5-1.1.7-1.7 0 .2.3.2.4.3M272.3 39c.7.4 1.4.6 1.8 1.1.5.5.8 1.2 1.2 1.8.2 0 .3 0 .5-.1.2-.7.3-1.5.5-2.2-.8-.4-1.6-.9-2.5-1.4-.3.2-.9.5-1.5.8M311 .6h-3.3c-.2.6-.5 1.2-.8 1.7-1.6 2.6-4 4.4-7 5.5-1.6.6-2.8 1.7-2.8 3.7 0 .3-.6.8-1.1.9-1.5.6-3 1-4.4 1.7-2.7 1.3-3.2 2.8-2.1 5.5-3.5 3.3-3.9 4.7-2.2 6.7 1.2-1.3 2.4-2.5 3.6-3.8-1.1 0-.9-.7-.3-1.5.5-.7 1.1-1.7 1.8-1.9 1.7-.5 1.7-1.6 1.6-2.7q1.8-.75 3.3-1.5c1.1-.5 2.2-1 3.3-1.6 1-.5 1.9-1.2 2.8-1.7-1.3-.2-2.4-.3-3.5-.4-.1-.2-.1-.4-.2-.6 2.4-2 5.6-3 7.6-5.4.3-.4 1.1-.4 1.7-.5-.1 0-.3-.1-.4-.1.2-.6.3-1.3.8-1.8.9-.6 1.3-1.4 1.6-2.2m28.3 21.3c1.1 1.4 1.9 2.5 2.8 3.6 1.4-2 .9-4.7-1-5.8-.6-.3-1.2-1-1.3-1.6-.3-3-2.2-5-5.2-5.4l-2.7-.3c.4-2.7 0-3.4-2.5-4.3-.2-.1-.4-.1-.6-.2-3.5-1.6-6.2-3.9-7.6-7.4h-1.3c.9 2.4 2.7 4.3 4.3 6.4.8 1.1 2 1.8 2.9 2.9 1.4 1.7 3.3 2.7 4.4 4.7.6 1.2 2.8 1.7 4.4 2.5-.2.3-.5.6-.8 1 2.4.9 4.1 2.7 4.2 3.9m20.7 4.2v-1.9c-.4.7-.7 1.2-1 1.9zm0 8.9v-3.9c-.3-.1-.6-.3-.9-.5-.9-.7-1.7-1.6-2.8-2.6 1.4 2.5 2.5 4.8 3.7 7m-9 .3c1.2-2.5 2.5-5 3.7-7.6-.1-.1-.2-.1-.3-.2-.7.8-1.4 1.7-1.8 2.1-1.4.1-2.5.3-3.5.3-.5 0-1-.2-1.5-.4.3-.3.6-.8 1.1-1 .8-.3 1.7-.4 2.5-.6 2.2-.6 2.7-2.3 1.2-4-.2-.3-.4-.6-.6-1-.7.5-1.4.9-2.5 1.6 1.3.5 2.2.9 3.7 1.5-1.1.6-1.7 1.2-2.5 1.3-2.6.5-3.7-1.5-4.9-3.6-.9 1.7-1.4 3-.9 4.7.9 2.9 3.4 2.4 5.6 2.5-.5 3.5-.4 3.7.7 4.4M92.9 44.6c-.4.3-.8.7-.9 1.1-.1.3.4 1.1.6 1 .5-.1 1.1-.3 1.5-.7 2.2-2.1 2.5-4.9 2.4-7.8q0-.15-.3-.3c-.2.2-.4.4-.4.5.4 2.1-1.6 3.4-1.9 5.2 0 .5-.7.7-1 1m-1.6-.3c.5-1.7 1-3.1 1.4-4.6.1-.2-.4-.6-.6-1-1.2 1.8-1.8 3.4-.8 5.6m6.9.3c-.3-.1-.6-.2-.9-.4-.6 1.5-1.3 2.9-1.9 4.4h1.5c.6-1.3.8-2.7 1.3-4m-41.8 4H58c.1-.4.3-.8.4-1.2-.7.5-1.4.9-2 1.2m25.2-2.7c-.1.2-.1.4-.2.5 1 .4 2.1.8 3.2 1.2.1-.2.1-.4.2-.6-1.1-.3-2.2-.7-3.2-1.1m-13.8-7c.5-1.2 1-2.3 1.5-3.4-2.5 2.2-2.2 5 .4 5.8.1 1 .1 2 .4 2.9.4 1.2 1.3 1.3 1.9.3s.9-2.2 1.3-3.4c1.5-.1 1.5-1.5 1.4-2.7s-.6-2.4-.9-3.6c2.4-.1 2.9-.6 2.3-2.9-.5-1.8-1.4-3.4-2.1-5.1-.2.1-.3.1-.4.2 0 1.7 1.9 3.2.7 5.2-.4-.7-.7-1.2-1-1.8-.2.2-.4.3-.6.4-.6 2 .1 3.9.6 5.8-2.3 1.6-1.3 4.5-2.3 6.8-.9-1.6.6-5-3.2-4.5m13.3 1.8c-.9-.1-1.8-.8-2.7-1.3-.4-.3-.7-.9-1.1-1.4-1.2 2.6-.1 4.6 2.4 4 1.9-.4 3.5-1.7 5.2-2.8.4-.3.6-1.1.7-1.8.2-1 .1-2 .2-3.5-.6 1-1 1.6-1.4 2.1-.2.2-.6.4-.8.6-.1-.3-.3-.7-.3-1 0-.4.2-.8.2-1.2-.3.1-.4.2-.6.3s-.4.1-.6.2c.1-1.7.3-3.2.4-4.8-1.3 1.3-2.4 2.3-3.7 3.5.4 1.1 1.2 1.9 2.6 1.6.2 1.3.2 2.4.6 3.4.4 1.4.2 2.2-1.1 2.1m1-15.5c.1-.2 0-.6-.2-.7s-.7-.1-.9 0c-.7.8-1.4 1.7-2.1 2.6.2.1.4.3.5.5 1.6-.2 2.1-1.4 2.7-2.4m-10.9-8.3v7l.1-.1v-7c0 .1-.1.1-.1.1m2.1-1.3c-.1.1-.3.2-.4.2.4 2 1.3 3.8 2.5 5.5.5.7.2 2.1.3 3.2 0 0-.2.1-.3.2-.2.4-.3.8-.5 1.2.5 0 1.5.2 1.6 0 .4-.8.9-1.9.6-2.5-1.2-2.7-2.5-5.2-3.8-7.8m9 28.6c1.4.6 2.8 1.3 4.3 1.9l.3-.6c-1.5-.6-2.9-1.2-4.4-1.7-.1.1-.1.2-.2.4m4.3-7.6c.2.7.4 1.4.6 2.3.3-.2.4-.3.6-.4 2-.8 2.4-1.8 1.7-3.8-.2-.6 0-1.4.2-2 .4-1.2.4-1.3-.5-1.7-.7 1.9-1.4 3.8-2.1 5.6zm-19.7-3.9c.3-.5.6-1 .8-1.2-.5-.6-.9-1.2-1.4-1.9-.3 1-.9 2.1-.9 3.1 0 .7.7 1.7 1.3 2 1.1.4 3-1.6 3.1-3-1.1-.1-1.4 2-2.9 1m21.5-3.2c.2.2.5.4.7.6-.2-1.5.4-1.6 1.3-1.1v-.5c-.6-.1-1.1-.3-1.6-.4-.2.4-.3.9-.4 1.4m-19.6-4c0-.2 0-.4-.1-.7-1.5.5-2.4.3-2.3-1.5 0-.4-.4-.8-.7-1.6-.6 1.7-1.3 3.2 0 4.2.6.5 2-.2 3.1-.4m18.6 21.6c.1.5.2 1 .3 1.6h1.5c-.4-.6-.9-1.1-1.3-1.7-.1 0-.3 0-.5.1m-9.3 1.5h.2l-.1-.1c0 .1 0 .1-.1.1m28.7 0h.8c-.1-.4-.3-.8-.4-1.2-.1.5-.2.9-.4 1.2m-83.8 0h.5c0-.5-.1-1-.3-1.3 0 .5-.1.9-.2 1.3M6.4 35.9c.5 1.3 1 2.5 1.5 3.8h.8c.4-2.4.9-4.9 1.1-7.4.1-1.6-.2-3.3-.5-4.9-.1-.4-.8-.8-1.2-1.2-.1.1-.3.2-.4.2.9 3.4 1.9 6.8-1.3 9.5m9.8 11.5c1.1-1 1.6-2.4 1.4-4.4-1.1 1.9-2.2 3.4-2.9 5.1-.1.2-.1.3-.2.5h1.7zm-16-6.1c1.8-.8 3.3-2 5.2-3.1-.6-.4-.8-.5-1-.6 1.3-1.6 1.2-1.8-1.1-2.3.2-.3.3-.6.5-.9-1.7.2-2.4 1.6-1.7 3.4.3.7 1 1.5-.1 1.9-.6.2-1.3.2-2 0v1.6zm12.7 4.4c1.3-.5 3.3-3.9 3.2-5.5-1.6.1-2.2.9-2.3 2.3 0 .5-.4 1-.6 1.5-.3-.4-.6-.9-1-1.3-.4-.5-.9-.9-1.3-1.3-.2.2-.3.3-.5.4.4 1.1.8 2.2 1.3 3.3.2.5.9.7 1.2.6M0 32.3V34c.4.2.8.4 1.1.3.7-.2 1.2-.7 2.1-1.2-.8-.1-1.4-.1-1.6-.1.3-.8.7-1.6 1.1-2.4-.9.5-1.9 1.1-2.7 1.7m3-2.6c-.1.3-.2.5-.4.8.2-.1.3-.2.5-.3 0-.1 0-.3-.1-.5M.3 24.4l-.3-.6v2.8c1.3-.4 2-1.6 1.6-2.9-.4.2-.8.5-1.3.7m45.3 23.1c-1-1.3-1.7-2.6-1.7-4.3 0-.3-.1-.7-.2-1.3-1.2 3.5-.9 5.4.9 6.8h1.7c-.1-.5-.4-.9-.7-1.2m7.4-7.8c.1-.1.2-.1.4-.2-.2.4-.3.8-.5 1.1.1.1.2.1.3.2.7-.7 1.3-1.5 2.2-2.4.6 2.1 1.5 3.5 3.5 3.6 1.7.1 3.4.1 5-.2.7-.1 1.3-1 1.7-1.6.2-.2-.3-.9-.5-1.4-.4.4-.8.8-1.3 1.1-.8.4-1.6.8-2.4.8-.4 0-1.1-.9-1.2-1.4-.4-1.3-.5-2.6-.7-4 0-.3.5-.6.7-1-.5-.9-.9-1.9-1.4-2.8-.2.1-.3.1-.5.2.3 2.8.6 5.7.8 8.5-.1.1-.2.2-.3.2-1.5-1.9-3-3.7-4.5-5.6.2 2.1-1.6.6-2.1 1.4.4.3.8.6 1.4 1-.7.1-1.1.2-1.9.3.5.9.9 1.6 1.3 2.2m7-14.5c.8 1.2 1.1 2.9 3.3 2.7-1.7-6.1 2-10.3 4.7-15-.4.1-.6.2-.8.4-1.4 1.8-2.8 3.5-4.1 5.3-.6.8-1.1 1.7-1.2 2.6-.1 1.5-.6 2.6-1.8 3.4 1.5-.7 1.7-.6 1.5 1.7-.6-.3-1.1-.7-1.6-1.1M40.7 47c0 .5 0 1.1.1 1.7h.9c-.3-.6-.6-1.2-1-1.7m17-23.1c-.4 1.2-.7 2.5-1.1 3.7.1 0 .2.1.4.1l1.2-3.6c-.2-.1-.3-.2-.5-.2M8.2 48.6h1.6c-1-1-2-1.9-3.1-2.9.5 1 1 2 1.5 2.9m30.4-7.5c-.1 1.7-.3 3.3-.4 5h.4c.2-1.6.5-3.3.7-4.9-.2 0-.5-.1-.7-.1M6.1 48.6h1.4c-.7-.5-1.5-1-2.2-1.5.2.6.4 1.1.8 1.5m-3.8-5.2c1 .4 2 .9 2.9 1.3.1-.2.2-.4.2-.6-1-.4-2-.7-3.1-1.1.1.2.1.3 0 .4m55.3 2.3c-.1-.1-.2-.3-.3-.4-1.7.6-2.6 2-3.6 3.3h.9c1-.9 2-1.9 3-2.9m68.4 1.8c-1.3-1.9-1.5-4.2-1-6.2.3-1.4 0-2.3-.3-3.3-.4 2.1-1 4.3-1.2 6.5-.1 1.4.2 2.8.4 4.1h.9c.4-.4.8-.8 1.2-1.1M21 8.2c1.2-.8 1.5-2 1-3-.3-.6-1.5-1.2-2.3-1.2-.9 0-1.7.8-2.6 1.2-1.4.6-2.9 1.2-4.4 1.5-.9.2-2-.2-3-.4 1.1.8 2.1 1.7 3.2 2.5.7-1.2 4.1-2 6.1-1.5-.3 2.8-2.9 2.2-4.7 3.1h5.3c-.1-.2-.2-.3-.3-.5.6-.6 1.1-1.3 1.7-1.7M8.1 13.1c.5.1 1 .3 1.3.7 1.2 1.2 2.3 2.6 3.6 3.7 1.4 1.2 2.9 2.2 3.6 4.1.3.8.8 1.5 1.3 2.6.4-.8.6-1.1.6-1.4 0-1.8-.8-3.3-2.1-4.6-.5-.5-1-1.2-1-1.8-.2-2.8-1.3-4.2-4-4.8-1.2-.3-2.4-.4-3.5-.6.5-2.6.2-3-2.1-4C4.5 6.3 3.3 5.6 2 4.9 1.3 4.5.7 4 0 3.6v1c.5.7 1.1 1.4 1.7 1.9C3.2 7.8 3.8 10 6 10.6c.2.1.6.6.6.8-.5 1.5.6 1.5 1.5 1.7m274.4 35c-.2 0-.4.1-.7.1 0 .2.1.3.1.5h.6z"/><path fill="currentColor" d="M2.2 20.7c.2.3.6.5 1 .7.8.4 1.8.6 2.3 1.2 1.1 1.3 2.5 2 3.9 3 3.1 2 6 4.5 8.7 7 2.1 2 3.2 4.9 5.5 6.9.2.2.1.6.2 1.1-1.4-.1-2.7-.1-3.9-.2 0 .2-.1.3-.1.5.7.2 1.4.4 2 .4 2.5-.1 3.7.7 4 3.3.1 1.3.2 2.7.1 4.1h1.5c-.2-1.2-.5-2.4-.7-3.9 1 .7 1.7 2.1 2.3 3.9h4.4c.4-1.2.9-2.3 1.5-3.4.5-1 .8-1 1.6-.5 1.5-1.3.8-2.9.6-4 .6-.6 1-1 1.3-1.4.8-1 1.5-2.2 2.4-3.1.4-.4 1.2-.4 1.8-.6 1.5-1.3 2.8-3.1 4.3-4.6s3.3-2.8 4.9-4.2c.1.1.2.3.3.4-.7 1.2-1.4 2.3-2 3.5-1.3 2.8-2.8 5.8-1.9 9 .4 1.6 0 2.9.2 4.4 0 .3-.3.7-.4 1-.7-.4-1.3-.7-1.8-1 .9 2.4 2.6 3.4 4.9 4 .5-1.5.7-2.6-.1-3.9-3-5-2.6-10 .8-14.8 1.8-2.5 3.7-5 5.6-7.4.4-.6 1-1.3 1.6-1.4 1.9-.3 2.7-1.9 3.8-3.2 1.6-1.9 3.1-4 4.9-5.7 1.5-1.3 2.8-2.5 3.5-4.3 0-.1.2 0 .5-.1.9 1.8 1.7 3.5 2.6 5.4.5-.4.8-.6 1.1-.9 1.7 2.4 3.4 4.7 5 7.1 1.1 1.5 1.9 3.2 4 3.8 1.4.4 2.7 1.1 4 1.6-.2.1-.6.5-.9.8 1.2.8 2.5 1.4 3.5 2.4 1.4 1.3 2.6.4 4.1.3-.2-.5-.3-.7-.4-.8-1.4-1-2.8-2-4.2-2.9-2.1-1.4-4.4-2.5-6.3-4.1-3.6-3.2-6.5-6.9-9-11.1C73.8 6 73 3.3 72.8.6h-3.2C69.3 4.4 68.1 8 66 11.1c-3.7 5.5-8.7 9.9-14.1 13.7-5 3.6-10 6.9-14.1 11.6-1.7 2-3.2 4.1-4 6.7-.5 1.7-1.3 3.4-2 5-.2 0-.4 0-.6-.1-.7-1.9-1.3-3.8-2-5.8.9-.1 1.4-.2 1.9-.3-.5-.4-1.1-.4-1.6-.6-.6-.2-1.3-.4-1.7-.9-1.4-1.8-2.7-3.7-4.1-5.5-.6-.8-1.5-1.4-2.3-2.2-2.3-2.3-4.3-4.9-6.9-7-2.5-2-5.5-3.5-8.2-5.4-2.2-1.5-4.5-3-6.1-5.2-.1-.1-.2-.3-.3-.4v2.7c.8 1.2 1.6 2.3 2.3 3.3m305 14.8c-1.3-1.6-2.4-3.1-3.6-4.6.2 1 .5 2 .9 2.8.5 1 .3 1.5-.8 1.7 1.3.7 2.4 1.4 3.5.1M126 47.4q0 .15 0 0M11.5 5.2c.7.1 2-.2 2.2-.6.5-.9 1.1-2.1 0-3.3-.6.5-1.1.9-1.7 1.3s-1.1.7-1.7.9c-1.8.7-2 1.4-.7 2.8.3-1 .8-1.4 1.9-1.1M242.1.6h-2.9c.4.9.9 1.7 1.7 2.5.4.4.8.8 1 1.3.3 1.1.9 1.1 1.7.7-.3-.5-.7-1-1-1.4-1.1-1-1.7-2.1-.5-3.1m46.3 40.7c.2-.7.1-1.5.2-2.2-.2 0-.5-.1-.7-.1-.2.7-.4 1.4-.5 2.2-.1.6.2 1.4-.1 1.9-1.1 2-.2 3.8.4 5.5h1.9c-1.8-2.2-2.2-4.6-1.2-7.3"/><path fill="currentColor" d="M29.6 23.4c-1.3-.9-2.5-2-4.1-.1 1 .5 1.9.9 3 1.4-.3.4-.7.8-1 1.2 1.8.1 1.5-1.6 2.1-2.5M110 44.5c-.9-2.6-2.1-4.9-4.2-6.7-1-.9-2.1-1.8-2.7-2.9-1.6-3-4.6-4.5-6.8-6.9-.1-.1-.3 0-.5.1.1.4.2.7.3 1-.7 0-1.3-.1-1.9-.1-.1.2-.2.4-.2.5 3.1 2.1 5.3 4.9 7.7 7.7 2.4 2.9 4.3 6.1 5.3 9.8.1-.1.2-.1.4-.2v-1c.1-.1.2-.1.3-.2.6 1 1.3 1.9 1.6 3v.1h2.5c0-.2-.1-.4-.2-.6-.4-1.3-1.2-2.4-1.6-3.6M60.1 34.3c1 .8 2 1.3 3.2 0-1.1-1.2-2.2-2.4-3.2-3.6.2.9.6 1.6.8 2.4.1.4-.5.9-.8 1.2M99 24.6c0-1.1.1-2-.1-2.8 0-.2-.8-.3-1.3-.4-1.1 1.6-1 1.9 1.4 3.2M35.6 47.4c-.1.4-.1.8-.2 1.3h.7c0-1.3 0-2.5.2-3.8-.2.8-.6 1.6-.7 2.5m260.5-14.9c-.1 1.9-.3 3.7-.4 5.6.6 0 1 .1 1.9.1-2.3 1.3-1.3 2.6-.6 4.2.8-1.1 1.4-2 2.2-3.1.3.8.3 1.4.7 1.7.7.7 1.6 1.9 2.4 1.9 1.6.1 3.1-.1 4.7.3.6.1 1.5-.4 2-.8 1.3-1.2 1.1-2.1-.4-2.8-.3.4-.5.8-.8 1.1-.6.8-1.5 1.6-2.5.9-.6-.4-.8-1.5-1-2.3-.3-1-.6-2-.7-3-.1-.3.2-.7.3-1.1-.2-.9 0-2-1.7-2.5.3 3.1.6 5.9.9 8.7-.1.1-.3.1-.4.2-1.3-1.9-2.5-3.7-3.7-5.5-.6.3-1.2.5-1.7.8-.2-.6-.5-1.3-.5-1.9-.1-.9 0-1.7 0-2.6-.4.2-.6.1-.7.1M62 6.1c1.7-1.7 3.3-3.6 4.8-5.4h-3.1c-1.6 2.6-4 4.8-7.3 6-1.1.4-2.4 1.6-2.7 2.6-.4 1.6-1 2.4-2.8 2.4.1.6.2 1.1.3 1.9-.8-.3-1.3-.6-2.3-1-2.5.9-4.7 3.1-3.1 6-3.4 3.3-3.9 4.8-2.7 6l3.6-3c-1.1-2.5 1.6-.5 2-1.3-.4-.2-.7-.4-1-.6.9-1.3 3.2-1.6 2.4-3.9-.1-.2.5-.6.8-.8 2.8-1 5.5-2 8-3.7.3-.2.5-.6.8-.8-.1-.2-.1-.3-.2-.5-1.4 1.6-2.2.3-3.6-.4 1.3-.8 2.4-1.3 3.5-2 .9-.4 1.9-.8 2.6-1.5m4.4 14.3c.2.2.4.3.7.5.6-.9 1.2-1.9 1.8-2.8-.2-.1-.4-.2-.5-.3-.7.8-1.3 1.7-2 2.6m-27.8 9.8c1.6-.1 2.6-2.4 1.9-4-.7.4-1.4.9-2.2 1.1-.7.2-1.6 0-2.4 0v.3c.9.3 1.8.6 2.9.9-1.7 1.7-2.2 1.7-5.9-.6 1.1 2.1 2.1 4 3.3 6.3.3-.9.7-1.5.6-2-.1-1.4.2-1.9 1.8-2M27.5 26q-.15-.15 0 0-.15 0 0 0M44.4 8.8c.5-.7.8-1.3 1.8-.9.1 0 .4-.4.6-.6-2.7-1.5-5.2-3.7-8.9-2.3.5 1.3 1 2.6 1.6 4.1-2.4.1-4.3-2.8-6.9-1.2.5 3.2 2.1 5.5 5.5 6.3-.5 1.1-1 2-1.3 3-.1.5.1 1.5.3 1.6 1.3.3 2.6.3 3.9.5 0-.2.1-.3.1-.4-.3-.2-.5-.3-.8-.4-1.7-.7-1.8-.9-1-2.6.2-.4 0-1.3-.3-1.6-1.2-1.3-2.6-2.4-3.8-3.6-.4-.4-.6-.9-.9-1.4 2.1.2 3.9.5 5.6.6 1.2.1 1.7.4 1.4 1.6 1.8-.1 2.3-1.6 3.1-2.7"/><path fill="currentColor" d="M26.8 33.8c1.3-2.5 2.5-4.9 3.8-7.4-.1-.1-.3-.1-.4-.2-.7 1-1.3 2-2.1 3.1-.8-2.4-2.7 0-3.9-1-.1-.5-.2-1.1-.3-1.6 1.3 0 2.8.9 3.6-.8-2.6.4-4.8.1-5.7-3-1.3 1.5-1.3 2.9-.9 4.4.8 2.9 3.5 2 5.6 2.4-.4 1.6-1.1 3 .3 4.1m20-26.6c0 .1.1.1.1.1zM90 14.9c.3.2.8.3.8.6.6 1.9 2.1 2.8 3.6 3.7.4.2 1.2.5 1.2.9.2 1.2 1 1.3 1.9 1.4.9-.9.9-1.9-.3-2.3-1.5-.6-1.3-2-1.9-3-.3-.5-.2-1.2-.5-1.7-1.3-2-5.4-3.4-7.6-2.5-.3.1-.6.4-.6.7 0 .2.3.6.5.7.3.2.7.1 1.1.2-.1.2-.1.3-.2.4.7.2 1.4.5 2 .9m142.9 5.8c.5 1.7.9 3.4 1.3 4.6.2-.7.5-2.1.9-3.7-.1-.2-.5-.7-.9-1.1-.5.1-1 .2-1.3.2m-92 5c-.3.6-.6 1.2-.8 1.7.6-.3 1.1-.5 2-.9-.4-.2-.8-.5-1.2-.8m-1.3 10.4c.6-.7.9-1.1 1.2-1.6-.4-.8 0-2.1-1.6-2.3.1 1.2.2 2.4.4 3.9m1.2-1.6q.15.15 0 0 .15 0 0 0m-2.2 14.1h.8c0-.2.1-.3.1-.5-.4.2-.6.4-.9.5m-2.5-9.5c.2.5.3.9.5 1.2.9.9 1.8 2.3 2.8 2.3 1.5.1 2.9-.2 4.4.4 1.1.4 2.9-1 3.1-2 .1-1-.4-1.7-1.6-1.8-.2.5-.2 1-.5 1.1-.7.4-1.6.9-2.4.9-.4 0-.9-1-1.1-1.6-.3-.9-.4-2-.6-3-1.2.2-1.9.5-1 1.9.4.6.3 1.7.4 2.5-1.2-.8-1.9-2.2-3-2.6-1.2-.5-2.8-.1-4.4-.1.4 1.3.7 2.4 1.1 3.9 1-1.3 1.6-2.1 2.3-3.1m9.1-24.3v.1l.1-.1z"/><path fill="currentColor" d="M144.3 34.9c-1.2-1.4-2.4-2.9-3.6-4.3-.1 0-.1 0-.2.1.5 1.3 1 2.6 1.7 4.1-.7-.1-1-.2-1.3-.2 1.5 1.4 2.4 1.5 3.4.3m13.5-1.2c-.1-.5 0-1.1-.2-1.6-.7-1.5-1.4-3-2.2-4.5l-.6.3c.4.9.9 1.7 1.2 2.6.4 1 .2 2-1.2 1.9-.1-.4-.2-.8-.3-1.3-.2 0-.5.1-.7.1.2 1.6.3 3.2.5 4.9.3.2.7.3 1 .4 0-.2-.1-.3-.1-.5.5-.3.9-.7 1.4-.8q1.5-.15 1.2-1.5M144.3 19c-1.6 1.6-1.6 2-.5 3.7.2-.2.5-.4.7-.7.7-1.5 1.4-2.9 2.1-4.4.1-.2.1-.6.1-.8-.1-.1-.2-.1-.4-.2-.6.8-1.2 1.7-2 2.4m19.3 27.5c-.1.2-.3.3-.4.5.4.3.9.6 1.3 1l.6.6h2.4zM35.8 22.8c-.1.8-.2 1.3-.3 1.9h2.1c-.7-.8-1.2-1.3-1.8-1.9m105.5-1.5c1.3-1.7 2.5-3.4 3.7-5.1.2-.3.1-.8.2-1.2-1.4 1.1-2.8 2.2-4.1 3.5-1.5 1.3-1.4 1.4.2 2.8"/><path fill="currentColor" d="M143 23.6c0 1.1 0 2.2-.2 3.3-.3 1.5.5 1.6 1.7 1.5-.2-2-.4-3.8-.6-5.7-.9-.2-.9.3-.9.9m19.9 20.9c5.4 2.5 5.7 2.7 5.3 4.1h2.3c-2.5-3.1-5.4-4.6-7.6-4.1m-32.7-11.8c.2.1.4.2.7.3.7-1.3 1.4-2.7 2.1-4-.2-.1-.5-.2-.7-.4-.7 1.4-1.4 2.8-2.1 4.1m22.9-13.8c-1.3.1-.9.7-.9 1.2h2.2c0-.2 0-.5-.1-.7.8.3 1.6.8 1.6 1.3.2 1.4 1.1 1.6 2.2 1.8-1.2-2.1-2.5-4.2-3.9-6.6-.2 1.4.6 3-1.1 3m-2.9 17.7c-.1-.1-.1-.4-.1-.6-.2 0-.3 0-.5-.1-.3 1.6-.7 3.2-.9 4.8 0 .2.6.7 1 .8.3.1.7 0 1.2 0 0 1.6-.3 3.1 1.1 4.1 2.1-.7 2.4-2.3 2-4 2.5-.9 2.8-3 1-4.6-.3-.3-.5-.7-.8-1-.6 2.7-1.3 5.4-2 8.4-.2-.5-.3-.6-.3-.7-.5-2.3.8-5.1-1.7-7.1m7.5-10.3c.5-.6.7-1.5.8-2.3.1-.4-.2-.9-.4-1.4-.7 1-1.4 2.1-2.2 3.3.4.1 1.5.7 1.8.4m-11.2 7.3c.2.6.9 1.5 1.5 1.6 1.2.2 2.8-1.7 3.1-3-.9.5-1.7 1-2.6 1.5-.1-.1-.2-.3-.3-.4.7-1.3 1.4-2.7 2.1-4-.1 0-.2-.1-.2-.1-.6.7-1.2 1.4-2.2 2.6.1-1 .1-1.7.2-2.3-1.2 1.1-2 2.5-1.6 4.1m2.8-7.6c-1.8-.4-1.8-2.1-2.8-3.3-.2 1.2-.4 2.5-.1 3.6.1.4 1.5.3 2.5.5-.2.7-.5 1.6-.7 2.5.5-.7 1-1.4 1.4-2.2.1-.3-.1-1.1-.3-1.1m24.8 10.7c-.7 3.5-3.5 6.9-.2 10.7a8 8 0 0 0 3.9-4c.5-1.3 1-2.7-.2-4.1-1.1 2.2-2 4.2-2.9 6.2-.2-.1-.5-.1-.7-.2-.8-2.8.3-5.7.1-8.6m-13.6-8.6c2.1-.3 3.3-1.9 2.6-3.4-.5.2-1.1.5-1.7.8-.2-1.5-.4-2.7-.6-4.4v3.7c-.1 1.1-.3 2.2-.3 3.3m16.1 4.6c-.1.8-.2 1.4-.3 2.2.7.1 1.2.2 2.1.3-.6-1-1.2-1.7-1.8-2.5m-9.6 5.8c.3-1.5.4-3 .4-4.5 0-1.8-.1-3.7-.2-5.5h-.6c.1.9.2 1.8.2 2.7 0 1.2.2 2.7-.3 3.7-1 1.5-.9 3-.8 4.6.4-.3 1.2-.6 1.3-1m-1.4 1.1q0-.15 0 0m-7.4 1.8c.4.6 1.1 1.2 1.8 1.4 2.2.4 3.7-1.3 5.6-2 .1-.1 0-.7 0-1.1h-1.7c.1.1.2.2.2.3-.4.4-.8 1.1-1.3 1.2-2.1.6-3-1.2-4.1-2.6-.8.9-1.1 1.7-.5 2.8m4-5.6c1 .3 1.2.7.9 1.7-.1.3 0 .6 0 1.1 2.3-.3 2.1-2 1.7-3.7-.4-1.3-.6-2.7-.9-4-1.1 1-2.4 2.3-3.9 3.7.8.4 1.4 1 2.2 1.2m17.9 6.6c-.2 0-.4-.1-.5-.1-.3 1-.5 2-.9 2.9-.5 1-1.2 1.9-1.7 2.8l-.3.6h2.1c.4-2 .9-4.1 1.3-6.2m78.8-3c-.9.4.5 2.4-1.4 1.9-.1 1.4-.2 2.8-.3 4.3-.6-.1-1-.2-1.8-.3.1-2.5.2-5 .4-7.5-2 3.4-3.1 6.6-.2 10.1 2.8-1.3 3.5-4.5 5-6.3-.6-2.1-1.2-4-1.8-5.8l.6-.3c.4.8.9 1.6 1.3 2.4.2-.1.3-.2.5-.4-1-1.2-2-2.5-2.9-3.8.2 1.6.4 3.1.6 4.7.1.4.1.9 0 1M145.4 14.8v-.1s-.1.1-.2.1zm82.4 10.4c-.1.6.3 1.7.7 1.8 1 .3 2 .1 3.2.1v-1.4c-.7.1-1.3.1-2.2.2.1-1.3.1-2.5.2-3.7-1.8.2-1.6 1.8-1.9 3m-45.4 16.5c-.2.6-.4 1.3-.5 1.9-.1 1.1.8 1.2 1.5 1.5-.2-1.1-.4-2.2-.5-3.3-.2 0-.4 0-.5-.1m75.9-8.1q.15 0 0 0M34.9 37.5c-.4-.3-.9-.6-1.3-.9-.3.5-.7 1.1-1 1.6.7-.1 1.5-.2 2.2-.3 0-.1.1-.2.1-.4m78.2 10.9c.4-.4.9-.8 1.2-1.2.2-.3.2-.7.3-1-.4.1-.9.2-1 .4-.4.5-.5 1.1-.8 1.7.1 0 .2 0 .3.1m145.2-14.8v.1c.1 0 0 0 0-.1m99.9-23.2q1.05.15 1.8.3V9.5l-2.1-.6c-1.1-.2-1.5.4-1.2 1.6.6 2 1.6 3.6 3.3 4.4v-2.2c-.4-.4-.8-.7-1.1-1.1-.3-.3-.5-.7-.7-1.2m-1 35.9c-.3.6-.4 1.3-.8 1.8-.1.2-.3.3-.5.5h1.9c.3-.8.7-1.6 1.1-2.4.2-.3.6-.5 1-.8v-4.3c-.9 1.8-1.8 3.5-2.7 5.2M22.1 10.6c.9-.3 1.9-.2 2.7-1.5 1-1.7 2.5 0 4.1.3-2.5 2.1-4.7 4-7 5.9.6.4 1.3.9 2 1.4-.7.6-1.5 1.3-2.2 2l.3.6c1-.2 2-.3 2.9-.6 1.1-.3 1.1-1 .4-1.7-.6-.6-1.2-1.1-2.2-2 3.6-.2 5.4-2.1 6.2-5 .3-.7.7-2 .3-2.5s-1.8-.7-2.6-.4c-2.2.7-4.3 1.6-6.5 2.5v.7c.6.1 1.2.4 1.6.3"/><path fill="currentColor" d="M274.7 48c-1.4-3.9-3.5-7.4-6.4-10.5-1.9-2-3.7-4-5.7-5.8-1.9-1.8-3.8-3.5-5.8-5.1-1.2-.9-2.7-1.3-3.9-2.2-1.7-1.2-3.1-2.7-4.9-3.7-1.2-.7-1.4-1.3-1.1-2.5v-.6c-.1-.1-.2-.1-.3-.2-.2.4-.3.8-.5 1.2-.1-.1-.3-.2-.4-.3 0-.7.1-1.5.1-2.3 2 1.3 3.8 2.5 5.7 3.6q.3-.75.3-1.2c1.1 1.7 2.1 3.3 3.1 4.9.1 0 .2-.1.3-.1-.1-.5-.2-1-.3-1.2.9-.3 1.6-.6 2.4-.9-.3-.5-.5-1-1-2 .6.4 1.3.6 1.3.8-.2 1.5 1.2 1.9 1.9 2.8s1.2 2.1 1.8 3.1c1.5-1.2 1.7-1.8.9-4 .4-.1.8-.2 1.5-.5-.8-.5-1.3-.8-1.9-1.1-1.3-.7-3.1-1-2.6-3.2.1-.4-.3-1-.6-1.5-1.2-2.2-3.1-3.2-5.6-3.1-.6 0-1.2-.3-1.7-.5-.3-.2-.5-.5-.8-.8-.2.4-.5.7-.6 1.1-.2.4-.3.8-.3.8.3 1 .6 1.6.8 2.2-.7-.1-1.3-.1-2-.3-1.5-.3-3-.6-4.5-1.2-1.4-.5-3-1-4-2-1.1-1-1.7-2.6-2.5-4-.3-.5-.3-1-.3-1.1 1.1-.3 2.1-.3 2.8-.7.6-.4-.3-3-1.1-3.3-.2-.1-.7-.2-.8-.1-2.4 2.3-2 .1-2.2-1.3 0-.1-.1-.2-.1-.3s-.1-.2-.1-.3h-3.1c0 .7.1 1.5-.1 2.2-.5 2.1-1.3 4-1.9 6.1-.6 1.9-3.4 2.5-3.1 4.9 0 .1-.2.2-.3.4-4.3 5.4-9.6 9.7-15.3 13.5-4.5 3-8.5 6.5-12.1 10.5-.9 1-1.6 2.3-2.5 3.5-.5-.6-.8-1.2-1.2-1.7h-.4c.7 1.9.3 3.4-1.3 4.3q.15 1.2.3 2.1c-.5.1-.9.2-.9.2-.3-.6-.5-1.1-.8-1.5-.7-.8-1.6-1.5-2.1-2.4-1.2-2.2-2.3-4.5-5.4-4.7.4-.2.8-.5 1.4-.8-.5-.6-1-1.1-1.5-1.7-.4.3-.6.5-.9.8-.2-1-.2-2.1-.7-2.6-2-2-4.1-4-6.4-5.7-3.4-2.5-7-4.8-10.4-7.2.2 1.2.1 2.8.8 3.5 1.4 1.3 1.6 3 2.1 4.6.3.8.1 1.9.5 2.5.7 1 .2 1.6-.1 2.4-.2.5-.3 1.1-.5 1.7.2.1.3.2.5.3-.5.2-1 .5-1.6.7.3 1.7-.2 3.8 1.7 5.2.6-2.1 1.4-4.1 1.6-6.1.1-2-.5-4-.7-6.2.1 0 .4-.1.8-.2-.7-.9-1.3-1.7-1.9-2.5.1-.1.3-.2.4-.4.4.3.9.6 1.3.9 2.2 1.7 4.5 3.4 6.7 5.2 1.1.9 2 2 2.9 3 .6.7 1.1 1.4 2.2 1.3.3 0 1.1.5 1.1.8-.2 1.8 1 3.1 1.6 4.6.6 1.3.2 2-1.1 2.3v-1.9c-.2 0-.4 0-.5-.1-.1.6-.2 1.2-.4 1.7l-.6 1.2v.2c-.3.5-.6 1-1 1.5-.1-.1-.2-.3-.4-.6.2.8-1.6 1.7-.4 2.5h5c-.3-1.5-2.3-3.1.4-4.6 1.3 1.6.3 3.1-.2 4.6h14.3c0-.8 0-1.6-.1-2.3-.2-1.3-1.4-1.3-3.2-.1.1-.5.1-1 .1-1 1.5-.3 1.5-1.7 1.9-2.8.9-2.4 2.4-4.3 4.1-6 .1.1.2.1.4.2-.5.8-1 1.6-1.5 2.5s-1 1.8-1.3 2.8c-.3.9-.5 1.9-.5 3 1.3-1.6.5-4.4 3.5-5.4-.1 1.1-.1 1.9-.1 2.8v.2c.9 1.8.3 3.6.3 5.5 0 .2.1.4.2.6h3.5c-1-1.1-1.8-2.3-1.7-4 0-.5.3-1.1.6-1.6.7 2.9 2.3 4.6 4.8 5.6h1.6c-.1-2.5-.5-4.5-1.4-6.7-1.6-3.9-.5-7.9 1.9-11.4 1.9-2.8 4.1-5.5 6.3-8.1.5-.7 1.2-1.6 2.4-.8 1.9-2.4 3.9-4.9 5.8-7.5.2.1.3.2.5.2-.1.4-.1.8-.3 1.1-.9 1.2-1.9 2.4-2.9 3.5-1.4 1.5-2 3.2-1.6 5.2.1.4-.1.8-.1.7-.7.1-1.6.1-1.6.3-.4 1.4-1 3-.7 4.3.3 1.9 1.3 3.7 2 5.6-.4 0-.7-.1-1-.1 1.2 1.3 1.9 1.3 3.1-.1-3.5-3.7-4.3-5.5-3.7-7.8 1.1.6 2.2 1.3 3.4 1.9 0-1.9-.1-3.5 0-4.9.2-1.5.3-3.1 1.8-4 .6.6 1.3 1.2 1.9 1.8.8.1 1.7.2 2.7.4-.5-1.1-1-2.2-1.4-3.1-1.1.1-2.1.2-3.2.3-.1-.2-.2-.3-.2-.5.8-1.2 1.5-2.4 2.4-3.5.2-.3 1.1-.4 1.4-.2 1 .8 2 1.7 2.8 2.5.1-.5.3-1.4.6-2.5-.6-.3-1.4-.6-2.2-.9.3-.5.6-1 .9-1.6l-1.4-.7c1-.5 1.7-.9 2.6-1.3-1.4-.8-1.4-1.8-.2-3 .6 1.3 1.3 2.3 1.5 3.5.1.5-.8 1.2-1.4 1.9 1.1.1 1 2.8 3.3 1.2.3.5.6 1.1.9 1.6.3-.3.6-.7 1-1.2 1.1 1.5 2.1 2.9 3.2 4.3.8 1 1.5 2 2.4 2.8.6.6 1.4 1.1 2.2 1.5 2.3 1.2 3.2 3.3 3.7 5.6.2.9.5 1.8.6 2.7 0 .8-.2 1.5-.4 2.3-.1.4-.4.8-.3 1.1.4 1.4-1.2 1-1.5 1.7l-1.2-.9c-1.7-.7-1.7-.7-1.9-2.7-.9.7-1.8 1.5-2.8 2.3l-.3-.3c.2-.4.3-.8.6-1.5-.8.1-1.4.2-2.1.2.4 1.3.8 2 2.1 2 .3 0 .9.4 1 .7.2 1.2.3 2.4.4 3.5.1.9-1.2 1.6-2.1 1-1.1-.6-2-1.6-3-2.5-.8.7-.8 1.7-.4 2.7.4 1.1 1.4 1.9 2.4 1.5 2-.7 3.9-1.8 5.8-2.8.4-.2.4-.9.6-1.4.2-.4.4-.7.7-1.3.8 1.6 1.4 2.9 2.1 4.4 1.4-3.8 3.3-7.3 1.4-11.2 1.1.3 2.2.4 3.2.8.5.2.8.7 1.2 1.1.4.3.8.7 1.1 1 .1-.5.1-1 .2-1.8.7.4 1.4.7 1.9 1.1 3.7 3.3 6.9 7.2 8.6 11.9.4 1.2.5 2.6.5 3.9h1.2c-.1-.5-.2-.9-.3-1.4v-.9c1.4.4 1.7 1.3 1.9 2.3h2.6c-.4-.3-.5-.5-.5-.7m-23-34.7c.1 1.8.9 2.5 2.5 2.3-1.8 1.4-2.2 1.4-3.9-.4.4-.5.8-1.1 1.4-1.9m-39.9 20.3c-1.4 2.5-1.3 5.2-1.1 8 .1 1.2-.1 2.5-.2 3.7-.2.1-.5.1-.8.2-.4-.6-.8-1.2-1.1-1.8-.3-.5-.3-1.1-.6-1.6-.9-1.4-.7-2.4.8-3.6-1.3.2-2.5.5-4 .7 1.4-5.6 6-8.2 9.9-11.3-.9 1.9-1.9 3.8-2.9 5.7m-81.1 13.9c.2.4.4.7.6 1.1l1.4-1.4c-.8-.2-1.3-.4-1.5-.5.3-.9.8-1.6.6-2.2-.6-2-1.4-3.9-2.1-5.8-.1-.2-.2-.5-.3-.8l-.6.3v8.6c-.7-1.1-1.1-1.7-1.5-2.4-.3 2.1 1.6 3.5 3.4 3.1m36-27c-.6-.2-1.3-.4-1.7-.9-3.2-3.3-6.2-6.7-8.5-10.8-1.5-2.7-2.3-5.4-2.5-8.2h-3.3c0 1.3 0 2.7-.1 4-.3.4-.8.7-.9 1.1-.9 2.9-2.1 5.6-4.1 7.9-.2.2-.2.6-.2 1l1.5-.9c.4-.3.6-.7.9-1 1.3-1.6 3.8-2 4.2-4.5 0-.3.3-.5.6-.9 1.2 2.2 2.3 4.3 3.3 6.5.1 0 .2-.1.3-.1 0-.4 0-.9-.1-1.3 2 2.3 3.8 4.7 5.6 7.1 1.1 1.5 1.9 3.4 4.1 3.5.4-.9.6-1.7.9-2.5M151.9 5.4c-.4-.3-.8-.5-1.2-.8.5-.4.9-.8 1.4-1.2.2.1.3.2.5.2-.3.6-.5 1.2-.7 1.8"/><path fill="currentColor" d="M248.5 36.1c.6-1.2.9-2.4.7-3.7h-.4c-.2 1.2-.3 2.4-.3 3.7m-.5 10.6c-.9.4-1.8.7-2.4.9.4.3 1 .6 1.5.9h1.6c-.7-.2-1.2-.7-.7-1.8m-2.4-15.9c-.7 1-1.2 1.8-1.8 2.6 1.8.2 2-.1 1.8-2.6M32 40.3c.1-.7.3-1.3.5-2h-2c.3.7.7 1.4 1 2zm190.1-17.8c-3 3.7-3.5 7.6-2.6 12.2.2-2.4.1-4.4.5-6.2.5-2 1.3-3.8 2.1-6m20.2-.3c-.2.4-.4 1.1-.7 1.7-.7-.5-1.5-.8-2-1.4-1-1.4-1.8-2.9-2.7-4.5-.7 1.8-.7 1.8.7 3.5.3 1.2.6 2.3 1 3.8-.4.3-.8.7-1.2 1 .3.2.7.7 1 .7.5-.1 1.1-.4 1.5-.7.4-.4.5-1 .8-1.6 1.8.8 2.1 2.1 1.4 3.9 1.9-.1 2.8-1.3 3.1-2.5.2-.7-.6-1.8-1.2-2.6-.5-.6-1.3-1-1.7-1.3m-3.6 3c0-.1.1-.1 0 0m-7.9 5.5c-.2.4-.5.9-.9 1.7-.1-1.3-.2-2.2-.3-3.1h-.5c-.3 1.3-.8 2.6-.9 3.9-.2 1.9 1.5 3.4 2.8 2.5.9-.6 1.5-1.8 2.2-2.7l-.3-.3c-.8.4-1.7.8-2.5 1.2-.1-.1-.1-.3-.2-.4.4-.8.7-1.7 1.1-2.5-.2-.2-.3-.2-.5-.3m-89.3 14c-2.8.4-4.7 2.1-6.3 4h.9c1.5-1.8 3.7-2.7 5.4-4"/><path fill="currentColor" d="M215.4 30.8c-1.4 3.8-1.1 7.5.1 11.8.9-1.3 1.6-2.1 2.4-3.2.4.9.7 1.8 1.2 2.5 1.7 2.3 4.3.2 6.4 1.4.5.3 1.8-.5 2.6-1 .4-.3.6-1.1.6-1.7 0-.3-.8-1-.9-.9-.5.2-.8.8-1.2 1-.7.4-1.6.9-2.4.9-1.1 0-1.2-1-1.3-1.9-.1-1.1-.3-2.3-.6-3.3-.2-.8 0-1.1.7-1.2-.5-.9-1.1-1.8-1.6-2.8-.2.1-.3.1-.5.2.2 2.9.5 5.8.7 9.1l-3.4-3.4c.1-.1.2-.1.4-.2-.3-.8-.6-1.6-.8-2.4-.2 0-.3-.1-.5-.1l-1.5 3c-.3-1.5-.5-2.8-.4-4.2 0-1.2.3-2.4.5-3.6zm29.9 14.3c.5.2.9.4 1.3.6.2.1.3.1.5.2.3.3.6.6 1 .9.5.2 1.1.4 1.6.6s.9.4 1.4.6c-2.4-2.7-3.9-3.5-5.8-2.9m21.9 3.5c0-1-.2-2-.5-2.7v2.7zm-6.8 0c.4-1.6.8-3.2 1.1-4.7-1.2 1.6-2.1 3.1-3 4.7zm4.5-2.1h.7c-.1-.6.1-1.4-.2-1.9s-1.1-.6-1.7-.9c-.1 1.1-.1 2.3-.2 3.5h.3c.1-.7.2-1.4.5-2.5.2.9.4 1.4.6 1.8"/><path fill="currentColor" d="M250.6 48.6h1.2c-.2-.3-.5-.6-.7-.8-.2.3-.4.5-.5.8M237.4 34l-.6-1.8c-.3.9-.6 1.3-.7 1.8-.2 1.3 0 2.8-.6 3.8-.8 1.5-.9 3.1-1 4.7 0 .4 0 .9-.2 1.3-.1.3-.6.4-.8.6V41c-.1-2.1-.1-2.1-2.4-1.7.3-.5.3-1.1.6-1.2.4-.2.9-.1 1.7-.1-.7-.2-1.1-.3-1.5-.5v-1.9c-2.4 5-2.3 5.9.7 6.9 0 .7-.2 1.4 0 2.1s.8 1.2 1.2 1.8c.6-.5 1.4-.9 1.7-1.5.3-.7.2-1.7.3-2.4 3.5-1.6 1.3-4.3 1.5-6.5 2.2-.6 2.6-1.1 2-3.3-.5-1.7-1.4-3.3-2.1-4.9-.2.1-.4.1-.6.2.2.6.3 1.1.4 1.7.3 1.3.6 2.5.9 3.8.1 0-.3.2-.5.5m-14.6 11.5c-.1-.1-.2-.3-.3-.4q-3.3.75-5.1 3.6h.4c1.7-1.1 3.3-2.2 5-3.2m-2.1 3.1h.7c-.2 0-.3-.1-.5-.1 0 0-.1.1-.2.1M249.3 31c-.5-1.9-1-3.8-1.5-5.6-.1 0-.3.1-.4.1.5 1.9.9 3.7 1.4 5.6.1 0 .3 0 .5-.1M176 10.3c-.5 1.3.1 1.4 1.2 1.4 2.6-.1 5.3-.1 7.9-.1.3 0 .5.2 1 .4-.1-1-.1-1.9-.2-2.9-1.4.4-2.6.8-3.8 1.2.3-.6 1-.7 1.2-1.1.5-1.1 1.1-2.2 1.2-3.4 0-.3-1.7-1.1-2.5-1-1.2.2-2.3 1.1-3.5 1.7L174.9 8c2-4.5 2-4.5.7-6-2.1 1.8-2.3 3.8-.7 8 1.8-.6 3.4-1.8 5.4-1.3-1.4.6-2.1 3.2-4.3 1.6"/><path fill="currentColor" d="M188.4 8.4c-2 .4-2.2.7-1 2.7l1.2-1.5c.6.3 1.2.5 2.1.9-.9.7-1.6 1.2-2.3 1.8-.6.5-1.4 1-1.7 1.7-.4.8-.8 1.4-1.7 1.5-.8.1-1.3.5-.8 1.3.2.4.6.6 1 .8.2-.5.4-.9.7-1.6 4.2-.9 6.2-3.3 6.2-8.2-1.3.2-2.5.4-3.7.6m-21-7.8h-1.1c.4.2.7.3 1.1.3zM186 20.2c.8-.2 1.4-.3 2.5-.5-.6-.9-1.1-1.6-1.9-2.7-.3 1.4-.4 2.2-.6 3.2M169.7 6.4c.9.7 1.9 1.4 3.2 2.2.1-1.8.2-3.1.4-4.9-1.2.6-2.2 1.1-3.2 1.7-.3.2-.5.9-.4 1m21.4 20.4c.2-.7.5-1.4.7-2.1-.1 0-.2.1-.4.1-.8-1.6-1.5-3.1-2.4-4.9-.4 1.6-.6 3-1 4.6.3.3.9 1 1.4 1.6.4-.3.7-.5 1.2-.9v1.6zm4.8-25.4c-.2-.2-.4-.3-.4-.4-.6.3-.9.3-1.1.5-.2.3-.4.6-.6 1 .1.1.2.2.4.3 1-.4 2.1-.7 3.3-1.2.1.6.2 1.2.3 2.1.7-.7 1.1-1.3 1.7-1.8s.5-.9.2-1.3h-3.1c-.3.3-.5.5-.7.8M142.2.6h-1c-1.5 1.3-3.1 2.6-4.7 3.9 2.2-.2 4.8-2.1 5.7-3.9M182 14.4l-3.9.6v.4c1.3-.2 2.7-.3 4-.5 0-.2-.1-.4-.1-.5m17.8 11c-.5-.6-1-1.1-1.7-1.9-.1 2.2.2 2.5 1.7 1.9m-16-5c1.6.1 1.8-.2 1.3-1.7-1.4-.2-2.7-.3-4.1-.5.2 2 .2 2 2.8 2.2m165.7-6.3c-1.1 1-2.3 1.7-3.4 2.5 4.7-.3 6.9-1.7 7.8-6.8.2-.8-.1-1.3-1-1.3-2.4-.1-4.5.3-6.4 1.9-.6.5-1.7.4-2.6.6-.1-.2-.1-.4-.2-.6l1.5-.9c1.1-.8 1.7-2 1.1-3.2-.6-1-1.8-1.3-3-.7s-2.3 1.3-3.4 1.9c-.9.5-1.9 1-3.2.3 1.8-1.6 2.5-3.3 1.4-5.6-.3.2-.4.2-.5.4-3.9 4.8-10.4 3-12.8-1.5-.1-.2-.2-.3-.3-.5h-1.1c.1.2.2.4.4.6 1.5 2.2 3.6 3.8 6.2 5.1 1.6.8 4.5-.7 4.8 2.5l.1.1c.8.5 1.6 1.1 2.4 1.6V10c1.1-.3 2.1-.7 3.2-.9.5-.1 1 .3 1.6.4-.3.5-.6 1-1 1.5-.1.2-.5.1-.7.2v.6c2.5.2 5.1.4 7.5.6 1.7-3 2.1-3.2 4.6-1.3-1.1 1-2 2.1-3 3m-144.2 5.7c-.9-.3-1.7-.5-2.7-.8-.1.1-.4.3-.7.5-.4-.5-.7-.9-1-1.3 1.4-1.8 1.3-2.7-.5-4.1-1.1-.9-2.2-1.8-3.2-2.8-.3-.3-.3-.9-.6-1.5 3 1 5.7 1 8.3.7-.8-.8-1.4-1.4-2.2-2.1.7-.2 1.2-.5 1.7-.6s1 .1 1.6.1c-.1-2.1-.6-2.6-2.6-2.7h-2c-1.3 0-1.5.7-1 1.7.4.9.9 1.8 1.5 3.1-2.7-.6-4.7-2.8-7.5-1.4.4 2 1 3.9 2.8 5 2.3 1.4 2.4 1.4 1.8 3.9-.2.8-.6 2.1.8 2.2 1.8.2 3.6 0 5.5 0zm2.3-14.9c.2-1.5.6-2.8.9-4.2h-4.8c1.3 1.3 2.5 2.7 3.9 4.2m-19.1 1.4c1.5-2 0-3.8-.1-5.7h-.5q.15 2.85.6 5.7M136.4.6h-.5V1c.2-.1.3-.2.5-.4M180.7 2c.2-.3.4-1 .6-1 .7 0 1.1-.2 1.3-.4h-4.9c.3 1.1 1 2.1 1.9 3.1.4-.6.8-1.1 1.1-1.7m12.8 37.2c-.6-.6-1.3-1.1-2.3-1.8-.2.7-.4 1.3-.4 1.8 0 .2.7.3 1.4.6.4.5 1 1.2 2 2.4.4-1.4.7-2.2 1-3.1.6.1 1.3.2 2 .2.1-.2.2-.3.2-.4-.5-.5-1-.9-1.7-1.6.4-.3 1-.7 1.5-1.2.2-.2.3-.8.2-1s-.6-.4-.9-.4c-.9-.1-1.8 0-2.7 0-.9.3-1.1 1.4 0 1.5 1.4.2 1.2.9 1.2 1.8 0 .4.2.8.3 1.2-.6.5-1.1.6-1.8 0m13.9-31.1c1.1 1 2.5.1 3.5.4 2 .6 3.3-.3 4.8-1.1-.8-.3-1.6-.4-2.4-.5-1-.2-1.7-1.3-1.6-1.9 1 .1 1.9.1 3.2.2-1.6-1.4-2.7-2.3-4.1-3.5-.4.4-1.3.9-1.3 1.6-.1 1.2.3 2.5.5 3.9h-3.2c.3.4.4.7.6.9m10 6.7c1.1-.4 2.1-1.2 3.3-1.8-.3-.2-.8-.5-1.3-.8-2.6-1.1-5 .1-7.3.9-1.2.4-2.4 1.3-3.4 2.4-.9 1-1.3 2-.9 2.6.9 1.4.1 1.8-.8 2.4-1.9 1.4-2.3 4.2-1.5 4.9 1.3-1.2 2.5-2.3 3.8-3.5-.2-.1-.4-.1-.7-.2.8-.8 1.5-2.1 2.1-2.1 2 0 2-1 1.8-2.4 0-.4.1-.9.1-1 1-.5 1.8-.9 2.7-1.3 0-.1-.1-.2-.2-.3.8.2 1.6.4 2.3.2m-17.2 16.1c-.1 0-.1 0-.2.1.1 0 .2 0 .2-.1"/><path fill="currentColor" d="M199.4 33.3c.1-.8-.2-1.8.7-2.3-2.1.6-3.1-1.3-4.8-2.2-.6.8-1.2 1.6-2 2.7.1 0-.3.1-.8.2.2-1.6.3-3 .5-4.5-.2 0-.3-.1-.5-.1-.3.4-.5.9-.9 1.1-.3.2-1.1.3-1.2.2-.8-1.3-1.9-1.2-3.2-1.2-.5 0-1.1-.3-1.4-.6-.8-.8-1.5-1.8-2.2-2.7-1.9 2.2-1.6 5.4.3 6.1.3-1 .7-2 1.1-3.2 1 1.5 1 1.5 4.2 1.4-.2 1.4-.5 1.5-2.7.8.3.4-.1.9-1.2 1.8h3.2c-1.3 4.2-.7 3.7.9 4.8.3-1.6.2-3.3 1.9-4.3.2.2.4.4.4.6s-.2.4-.2.6c0 .3 0 .7.1 1 .1.1.5.2.7.2 1 0 2.1-.1 3.3-.2-.3-.4-.6-.9-.9-1.3.3-.4.6-.8 1.1-1.5.9 1.6 1.6 3.1 2.7 5 .5-1.2.9-1.7.9-2.4m10.1-11.5c-.1.1-.2.1-.2.2.3.1.5.2.7.3zm36.2-13.2c1-.1 2-.2 3.2-.3-2-1.2-3.7-2.2-5.4-3.2-.1.5-.1 1-.2 1.2 1 1 1.7 1.7 2.4 2.3m-25-1.9c-.9.5-2 .6-3 .8-.3.4-.8.9-1 1.6-.2.4 0 1 .1 1.5 1.1-.4 2.4-.5 3.2-1.1s1.2-.8 1.8.1c.1.2.6.4.8.3.2-.2.4-.5.5-.9.2-.4.3-1.3.5-1.3 1.4-.2 1.8-1.3 2.5-2.2 1.1-1.3 2.4-2.4 3.5-3.6.3-.3.4-1 .3-1.3h-3c-1.4 2.8-3.7 4.6-6.2 6.1m-18 23.4c.5-1 1.1-1.9.2-3.2-1.7 1.6-3.7 1.6-5.8.3 1.3 2.4 3.5 1.2 5 1.8-.7.8-1.3 1.4-1.8 2 .9.1 1.8.2 2.4-.9m-22.8-4.7c1.3-2.4.6-4.9-1.3-6.2-.6-.4-1.2-1.1-1.3-1.7-.4-3.9-2.7-5.1-5.2-5.3-.8 0-1.6-.1-2.5-.2.2-1.8.3-3.4-1.8-3.8-.2.6-.6 1.2-.5 1.7.3 1.3.4 2.9 1.3 3.8 1.3 1.3 3.2 2 5 3-.3.4-.6.7-.9 1.1 4 1 5.3 4.4 7.2 7.6M127 8.3c2.1-.3 4.2-.5 6.3-.8V7c-1-.6-1.9-1.3-3.2-2.1 1.2-.2 2.1-.3 3-.5-1.6-1.1-2.9-2-4.2-3-2 2.4-2.4 1.5.1 4.9-.7.6-1.5 1.1-2.3 1.6.2.2.3.3.3.4m95.4-5.8c1.1-.2 1.8-.8 1.8-1.9H222c.1.5.2 1.4.4 1.9m-6 2c.2.3.3.5.4.7.2.4.3.8.4 1.2.4-.3.7-.7 1.1-1s.8-.5 1.2-.7c.4-.3.9-.6 1.3-.9-.1-.2-.2-.3-.2-.4-.6.2-1.3.4-1.9.6s-1.3.3-2.3.5M87.8 1.1c-.1-.2-.1-.3-.2-.5h-2.1c.8.4 1.5.6 2.3.5m78.4 6.4c-.7-.9-2.1-1.3-3.2-1.9-.4-.2-1-.1-1.4-.2.2.4.3.9.6 1.2.6.8 1.3 1.5 2 2.3.5.7 1 1.4 1.6 2.1.3-.1.6-.2.9-.4-.2-1 .1-2.4-.5-3.1m2.6-2c-2.8-1.1-5.1-2.7-6.7-4.9h-.8c1.7 2.9 4.9 5.2 7.5 4.9m-9.8-3c1 .5 1.2-.2 1.2-.6-.6-.4-1-.8-1.3-1.3h-1.2c.3 1 .8 1.7 1.3 1.9M7.2.7 6.9.6c.1.1.2.1.3.1M60.3.6c-.2.3-.3.6-.5.9.2-.3.5-.6.7-.9zM45.4 3.9V1c-.3-.1-.5-.2-.7-.4h-2.6C43 1.8 44 3 45 4.1c.1 0 .3-.1.4-.2m62.5 10.2c1-1.3 1.8-3 2.4-4.5.6-1.6 0-2.5-1.7-2.1-2.7.7-5.4 1.7-8 2.7v.6c.4.3.8.8 1.1.7 1.1-.3 2.1-.8 3.1-1.2.7-.3 1.4-.8 2.1-1.1.6-.2 1.2-.3 1.8-.4.3-.1.6-.1.9-.1 0 .3.2.7 0 .9-.8.9-1.7 1.7-2.6 2.4-.2.2-.8.4-.8.5.3 1.9-1.8 1.7-2.4 2.8 1.7.3 3.2 0 4.1-1.2M18.1 2.4c.3-.5.4-1.2.7-1.7h-2.4c.3.7.8 1.3 1.4 1.9.1-.1.3-.1.3-.2M35.2.9c.1.6.2 1.1.2 1.6 1-.6 1.8-1 2.8-1.6.1.5.2.9.2 1.2h.5c.1-.5.2-1 .3-1.6h-5.5c-.2.3-.3.5-.5.7.1.1.1.2.2.3q.9-.15 1.8-.6"/><path fill="currentColor" d="M103.9 15.2c-.1 0-.1-.1 0 0M26.1.6H26c0 .1.1.1.1 0q0 .15 0 0m95.4 26.3c-1.7.3-3.3.7-5 1 0 .1-.1.2-.1.3 1.2.2 2.5.3 3.7.5-.5.6-.9 1.1-1.3 1.7-.1.2-.1.3-.2.5-1.6-.7-3.3-1.3-4.9-2 .9 1.8 1.9 3.7 3 5.8 1.6-.9 1-2.1.7-3.3 4.2-1.7 4.9-2.5 4.1-4.5m-2-17.2c-1.3-.6-2.6-1.2-3.9-1.7-.3-.1-.7-.2-1-.1-.5.3-1.4.7-1.3 1.1 0 2.4 1.9 4.6 4.2 5.3.3.1.7.2 1 .4-.4.9-.9 1.7-1.1 2.5-.2.6-.2 1.4.1 1.8.3.3 1.1.2 1.7.3.2-1.3 0-2.3.4-2.9.8-1.2.1-1.8-.6-2.4-1.1-1-2.3-2-3.4-3-.4-.4-.6-.9-1-1.6 1.9.3 3.3.6 4.7.9.2-.2.2-.4.2-.6M7.6 4.5l-6-3c2.3 2.8 4.6 3.9 6 3m93.9 15.1c.1.2.1.4.2.6 1.6-.3 3.3-.6 4.9-.9.1-.2.1-.4.2-.6-.8-.7-1.6-1.4-2.3-2.2-.3-.3-.4-.9-.6-1.3-.5.1-1.1.3-1.9.5.9.8 1.5 1.3 2.3 2.1h-4.1v.2c.8.2 1.7.4 2.9.7-.9.5-1.2.7-1.6.9m15.1 3.8c-.2.6-.4 1.2-.7 2.2.9-.2 1.5-.3 2.3-.5-.7-.6-1.1-1.1-1.6-1.7m-2.8-21.2c.6-.3 1.2-.6 1.9-.9.3.6.5 1.1.7 1.7.7-.7 1.4-1.3 2.3-2.2-.1 0-.2-.1-.3-.2h-3.8c-.4.4-.7.9-1.1 1.3zm-7.2 4c1.2-2.1 1.2-3.6 0-5zm3.5 18.4c-.8-.9-1.3-1.6-1.8-2.3-.6.4-1.3.9-2.1 1.4.9 1.4 2.2 1 3.9.9M97.4 2.4c.1.2.5.6.7.6.3-.2.9-.5.9-.9.1-.6.2-1.2.6-1.5h-2.8zm258.5 39.1c.2 0 .5-.6.8-.9.4-.5.9-.9 1.2-1.3.2-.3.3-.7.4-1.1-.4 0-.9-.2-1.2 0-.4.3-.6.9-1 1.4-.9-.5-1.8-1-2.7-1.6-.2.3-.4.7-.4.6.8.9 1.3 1.5 1.8 2 .3.4.6.9 1.1.9m-95-37.6c2-.1.4-3.4 2.8-2.9V.6h-4.5c.6 1.1 1.2 2.2 1.7 3.3m3.1 5.8c1.3-.3 2.4-1.8 1.8-3.3-.2-.6-1.6-1.4-2.2-1.3-1.6.5-3 1.5-4.6 2.3.1.1.1.3.2.4.6-.1 1.2-.3 1.7-.3.5.1 1.3.3 1.5.7.2.3-.1 1-.2 1.5.6 0 1.2.1 1.8 0m-13.3-7.6c-.2-.5-.3-1-.5-1.4h-2.8c1 .6 2.1 1.2 3.3 1.4m-7-.7c0-.2 0-.5-.1-.7h-1.5c.6.2 1.1.4 1.6.7m18.5 8.4q0-.15 0 0m6.3-9.1 1.2 1.8c.4-1.2 1-.6 1.7-.2.5.3 1 .7 1.5 1 .1-.2.1-.3.2-.5-.6-.7-1.2-1.6-1.9-2.2h-2.6c0 .1 0 .1-.1.1m73.1 3.5c.5-.6.8-1.2 1.2-1.8.2-.4.5-.7.9-1s1.2-.6 1.1-.8h-5c.5 1.2 1.3 2.4 1.8 3.6m-65.9-1.5c.6.2 1.4.4 2.4.7.1-.4.2-.9.4-1.3.1 0 .2.1.4.1 0 .7-.1 1.5-.1 2.5 1-1.2 1.8-2.1 2.7-3.1-.3-.4-.7-.8-1-1h-2.3c-.9.8-1.7 1.5-2.5 2.1m23-.7c.5-.5 1-.9 1.5-1.4h-1.3c-.1.4-.2.9-.2 1.4m45.9 18.6c1.9.3 4 .8 5.4-1.3-1-1-1.6-2.4-3.3-1.8-.1 0-.1.2-.2.4l1.2.3c0 .2 0 .4.1.6-1.5.2-3.1.3-5 .5.6.4 1.1 1.2 1.8 1.3M331.5 2.2c-.2-.6-.6-1.1-.7-1.6h-3.1c1.1.9 2.4 1.4 3.8 1.6M349 .8c.6 1 1 1.6 1.3 2.3.1-.8.2-1.6.4-2.4h-1.1c-.2 0-.4 0-.6.1M115.9 38.3c-.5-.4-1-.8-1.7-1.3-.3.3-.7.8-1.4 1.6 1.3.1 2.1.1 2.9.1.1-.1.1-.2.2-.4M288.3 4.7c.1.1.3.1.4.1.5-1.4.9-2.8 1-4.1h-1.5c-.1.4-.3.8-.5 1.3-.2-.4-.4-.9-.6-1.3h-2.6c.1.3.3.5.5.7 1.3 1 2.2 2.3 3.3 3.3m17-4.1h-.7c-.6.8-1.2 1.6-1.8 2.6 1.5-.5 2.1-1.5 2.5-2.6m-3.4 3.1c-1.4.4-2.8.7-4.5 1.2 3.1.5 3.8.3 4.5-1.2"/></svg>