<svg xmlns="http://www.w3.org/2000/svg" width="360" height="48" fill="none"><path fill="currentColor" d="m111.4 21-3-4.9-5.4 32.1-.1.1h1.9l6.6-27.2zM102 5.1 99.1.3l-2.8 4.8L98 48.3h2.2l1.7-43.2zM86.9 21h-.1l6.6 27.2v.1h1.9l-5.5-32.2zm28.5 6.8-2.8-4.8-7.1 25.3h2.3l7.6-20.4zm-8.3-13.9-3.7-6.3-2.8 40.7h1.8zM85.6 23l-2.8 4.8 7.6 20.4v.1h2.3l-7-25zm-40.3-6.9-3 4.9 6.6 27.2v.1h1.9l-5.5-31.9zm1.3-2.3v.1l4.7 34.3v.1h1.8L50.3 7.6zm16 .1-3.7-6.3-2.8 40.7h1.8zm8.3 13.9L68.1 23 61 48.1v.2h2.3l7.6-20.4zm-32.6 0 7.6 20.4v.1h2.3L41.1 23zM77 32.9 95.3.2l.1-.2h-4.9L79.1 27.3 89.1.2l.1-.2H86l-7.5 26.5L84.9.2V0h-2.5L78 25.4 81.5 0H79l-1.7 24.1 1-24.1h-2.9l1 24.1L74.7.2V0h-2.5l3.5 25.4L71.4.2V0h-2.6l6.4 26.5L67.8.1l-.1-.1h-3.2l10.1 27.3L63.2 0h-4.9l18.4 32.9zm-5-3.2-7.8 18.4-.1.2h3.6L75.1 35zm79.6-15.8-3.7-6.3-2.8 40.7h1.8zm-5.1-8.8L143.6.3l-2.8 4.8 1.8 43.2h2.1zm13.4 22.7-2.8-4.8-7.1 25.3h2.3l7.6-20.4zM94.8 7.6l-3.7 6.2v.1l4.7 34.3v.1h1.8L94.8 8zM130.1 23l-2.8 4.8 7.6 20.4v.1h2.4l-7.1-25zm30.9 6.7-7.8 18.4v.2h3.5l7.5-13.3zM66.9 21l-3-4.9-5.5 32.1v.1h1.9l6.5-27.2zm68.7-7.2v.1l4.7 34.3v.1h1.8l-2.8-40.7zm20.3 7.2-2.9-4.9-5.5 32.1-.1.1h1.9l6.6-27.2zm-21.6-4.9-2.9 4.9 6.5 27.2v.1h1.9l-5.5-31.9zm-12.8 16.8L139.8.2l.1-.2H135l-11.4 27.3L133.7.2V0h-3.2L123 26.5 129.4.2V0h-2.5l-4.4 25.4L126 0h-2.5l-1.7 24.1 1-24.1h-2.9l1 24.1L119.2.2V0h-2.5l3.5 25.4L115.9.2V0h-2.6l6.4 26.5L112.3.1V0H109l10.2 27.3L107.7 0h-4.9l18.5 32.9zm-5-3.2-7.8 18.4v.2h3.5l7.5-13.3zm-82.4 5.2-.1.1 7.5 13.3H45l-7.8-18.6zM309.4 21l6.6 27.2v.1h1.9l-5.6-32.2zm8-13.4-3.7 6.2v.1l4.7 34.3v.1h1.8L317.4 8zm-13.1 22.1-3.1 5.2-.1.1 7.5 13.2v.1h3.5l-7.7-18.4zm-.7 18.6h1.5l-1.4-2.3zm1.8-20.5 7.5 20.4.1.1h2.3L308.2 23zM334 21l-3-4.9-5.5 32.1v.1h1.9l6.5-27.2zm-4.3-7.1L326 7.6l-2.8 40.6v.1h1.8zm14.2 24.9-2.8 4.7v.1l.2 4.7h5.3l.2-4.7L344 39zm-5.9-11-2.8-4.8-7.2 25.3h2.4l7.6-20.4zM324.5 5.1 321.7.3l-2.8 4.8h-.1l1.8 43.2h2.2zM342.2 35l-3.1-5.3-7.9 18.6h3.6zm15.4-35-11.4 27.3 10-27.1.1-.2h-3.2l-7.5 26.5L352 .2V0h-2.6l-4.3 25.4L348.6 0h-2.5l-1.7 24.1 1-23.9V0h-2.9l1 24.1L341.8.2V0h-2.5l3.5 25.4L338.5.2l-.1-.2h-2.5l6.4 26.5L334.9.1l-.1-.1h-3.2l10.1 27.3L330.3 0h-4.9l18.4 32.9h.2l16.1-28.6V0zm-9.5 48.3h1.5l-1.3-2.3zm-225-13.4v.1l7.4 13.3h3.6l-7.9-18.6zM57.4 5.1 54.6.3l-2.8 4.8h-.1l1.8 43.1v.1h2.2zm68.1 43.2h1.5l-1.3-2.3zm44.5 0h1.5l-1.3-2.3zm45.3-18.6-3.2 5.2v.1l7.4 13.2.1.1h3.5l-7.7-18.4zm-47.7 5.2v.1l7.5 13.3h3.5l-7.9-18.6zm46.9 13.4h1.5l-1.3-2.3zm-178 0H38L36.6 46zm42.1-13.4v.1L86 48.3h3.6l-7.9-18.6zM81 48.3h1.5L81.2 46zm178.1 0h1.5l-1.4-2.3zm.7-18.6-3.1 5.2-.1.1 7.5 13.2v.1h3.5l-7.7-18.4zm39.7 3.2L317.9.2l.1-.2h-4.9l-11.5 27.3L311.7.2l.1-.2h-3.3l-7.4 26.5L307.4.2l.1-.2h-2.6l-4.3 25.4L304.1 0h-2.5l-1.7 24.1 1-23.9V0H298l.9 24.1L297.3.2V0h-2.5l3.5 25.4L294 .2l-.1-.2h-2.5l6.4 26.5L290.3.1V0h-3.2l10.1 27.3L285.8 0h-4.9l18.4 32.9zm-133.5 0L184.3.2l.1-.2h-4.9l-11.4 27.3L178.2.2V0H175l-7.4 26.5L173.9.2V0h-2.5L167 25.4 170.5 0H168l-1.6 24.1 1-24.1h-3l1 24.1L163.7.2V0h-2.5l3.5 25.4L160.4.2V0h-2.6l6.4 26.5L156.8.1V0h-3.3l10.2 27.3L152.2 0h-4.9l18.5 32.9zM26.4 27.8 23.6 23l-7.2 25.3h2.4l7.6-20.4zm-8.3-13.9-3.7-6.3-2.8 40.7h1.8zm4.3 7.1-3-4.9-5.5 32.1v.1h1.9l6.5-27.2zm5.1 8.7-7.8 18.4-.1.2h3.6L30.6 35zM5.8 7.6l-3.7 6.2v.1l4.7 34.3v.1h1.8L5.8 8zm262 8.5-2.9 4.9 6.6 27.2v.1h1.8l-5.4-31.9zM.7 16.1l-.8 1.4v12.1l4.5 18.6v.1h1.9L.8 16.4zm12.2-11L10.1.3 7.3 5.1h-.1L9 48.3h2.1zM297.7 35l-3.1-5.3-7.8 18.4-.1.2h3.5zM272.9 7.6l-3.7 6.2-.1.1 4.8 34.3v.1h1.8L272.9 8zm-12.1 20.2 7.6 20.4.1.1h2.3L263.7 23zM32.4 32.9 50.8.2l.1-.2H46L34.6 27.3 44.6.2l.1-.2h-3.2L34 26.5 40.4.2V0h-2.6l-4.3 25.4L37 0h-2.5l-1.7 24.1 1-24.1h-2.9l1 24.2-1.7-24V0h-2.5l3.5 25.4L26.9.2l-.1-.2h-2.5l6.4 26.5L23.3.1l-.1-.1H20l10.1 27.3L18.7 0h-4.9l18.4 32.9zM-.1 48.3h.6l-.6-1.5zm0-4 1.5 4h2.3L-.1 34.6zm26.8 4h1.5L28 46zM1.5 0-.1 3.8v7.9L6.4 0zm336.8 48.3h1.5l-.2-2.3zm-86.2-4.7.2 4.7h5.3l.2-4.7-2.9-4.8zm-2.8 4.7h1.5l-.2-2.3zm44.5 0h1.5l-.2-2.3zm63.1-32.2-3 4.9 6.2 25.7V35.2zm-8.1 13.6-3.1 5.2v.1l7.4 13.2v.1h3.5l-7.7-18.4zm9.4-15.8 1.7 12.3h.2V10.6l-1.9 3.2zm-8.3 13.9 7.6 20.4v.1h2.3L352.7 23zm-53.3 15.8.2 4.7h5.3l.2-4.7-2.9-4.8zm-180.9 4.7h1.5l-.1-2.3zM74 43.5v.1l.2 4.7h5.3l.2-4.7-2.8-4.8zm-2.8 4.8h1.5l-.2-2.3zm-41.7-4.8v.1l.2 4.7H35l.2-4.7-2.9-4.8zm180.9-4.7-2.8 4.7v.1l.1 4.7h5.3l.2-4.7-2.7-4.6zm-91.9 4.7v.1l.2 4.7h5.3l.2-4.7-2.8-4.8zm44.6 0-.1.1.2 4.7h5.3l.2-4.7-2.8-4.8zm41.7 4.8h1.4l-.1-2.3zm-44.6 0h1.5l-.1-2.3zm50.3-15.4L228.9.2l.1-.2h-4.9l-11.5 27.3L222.7.2V0h-3.2l-7.4 26.5L218.4.2V0h-2.5l-4.4 25.4L215 0h-2.5l-1.6 24.1 1-23.9V0h-3l1 24.1L208.2.2V0h-2.4l3.4 25.4L204.9.2V0h-2.6l6.4 26.5L201.3.1V0H198l10.2 27.3L196.7 0h-4.9l18.5 32.9zM183.8 7.6l-3.7 6.2v.1l4.7 34.3v.1h1.9L183.9 8zM208.7 35l-3.2-5.3-7.7 18.4-.1.2h3.5zm-36.9-7.2 7.6 20.4v.1h2.4L174.7 23zm28.6-6.8-2.9-4.9-5.5 32.1v.1h1.8l6.6-27.2zm-21.6-4.9-2.9 4.9 6.5 27.2.1.1h1.8l-5.4-31.9zM280 5.1 277.2.3l-2.9 4.8 1.8 43.1v.1h2.1zm-89 0L188.1.3l-2.8 4.8 1.8 43.1v.1h2.1zm13.5 22.7-2.9-4.8-7.1 25.1v.2h2.4l7.5-20.4zm-8.3-13.9-3.8-6.3-2.8 40.6v.1h1.8zm89 0-3.7-6.3-2.8 40.6-.1.1h1.9zm8.3 13.9-2.9-4.8-7 25.1-.1.2h2.4l7.6-20.4zM244.9 21l-2.9-4.9-5.5 32.1v.1h1.8l6.6-27.2zm44.5 0-2.9-4.9-5.5 32.1v.1h1.9l6.5-27.2zM235.5 5.1 232.7.3l-2.9 4.8 1.8 43.2h2.1zm5.2 8.8L237 7.6l-2.9 40.6v.1h1.8zm8.3 13.9-2.9-4.8-7.1 25.3h2.4l7.6-20.4zM220.4 21l6.5 27.2.1.1h1.8l-5.5-32.2zm-4.1 6.8 7.6 20.4v.1h2.4L219.2 23zm36.9 7.2-3.2-5.3-7.7 18.4-.1.2h3.5zm1.8-2.1L273.4.2l.1-.2h-4.9l-11.5 27.3L267.2.2l.1-.2H264l-7.4 26.5L262.9.2l.1-.2h-2.6l-4.3 25.4L259.5 0h-2.4l-1.7 24.1 1-23.9V0h-3l1 24.1L252.8.2V0h-2.5l3.5 25.4L249.4.2V0h-2.5l6.3 26.5L245.8.1V0h-3.2l10.1 27.3L241.3 0h-5l18.5 32.9zM228.3 7.6l-3.6 6.2-.1.1 4.7 34.3.1.1h1.8L228.4 8z"/></svg>