<svg xmlns="http://www.w3.org/2000/svg" width="360" height="48" fill="none"><g fill="#000" clip-path="url(#a)"><path d="M29.09.39c-.46.859.58 1.119.989 1.623.098.122.218.224.328.334.698.7.866 1.455.262 2.308a4 4 0 0 0-.398.717c-.188.442-.361.946.142 1.263.48.302.985.129 1.407-.218.447-.369.486-.893.412-1.4-.169-1.164-.289-2.323-.002-3.332C32.212.97 32.222.305 31.727 0h-2.308a1.2 1.2 0 0 0-.329.391m9.623 25.869c1.212.61 2.036 1.423 2.178 2.828.075.741.54.903 1.177.66q1.266-.479 2.51-1.008c.488-.21.93-.56.949-1.11.062-1.823 1.335-2.35 2.785-2.655 1.688-.356 3.282-.71 3.808-2.752.175-.676.815-1.344 1.676-1.234.817.104 1.206.81 1.492 1.517.153.38.037.765-.05 1.154-.236 1.055.04 1.283 1.084.943.856-.279 1.707-.584 2.577-.805.643-.163 1.324-.2 1.924-.513.666-.348 1.09-.87.646-1.615-.424-.71-1.086-.89-1.81-.405-.355.238-.636.588-.992.824-.778.514-1.534.22-1.671-.685-.087-.574-.074-1.194.235-1.704.477-.788 2.833-1.395 1.558-2.658-.445-.44-.937-.369-1.34.072-.651.717-.88 1.615-1.852 1.996a2.74 2.74 0 0 1-2.432-.23c-.568-.362-.888-.125-1.344.185-1.46.995-3.285 1.474-4.298 3.099-.068.11-.272.162-.421.19-.916.17-1.494.784-2.06 1.459-.426.507-.919.964-1.423 1.393-.352.3-.793.636-1.26.257-.41-.332-.249-.826-.042-1.194 1.03-1.826.51-3.414-.572-5.023-.548-.815-1.466-1.484-1.628-2.505-.196-1.228-.666-2.33-1.188-3.425-.378-.795-.468-1.556.04-2.343.212-.325.39-.74.014-1.072-.37-.325-.853-.29-1.207-.027-.762.563-1.5 1.24-1.642 2.205-.127.866-.403 1.45-1.242 1.795-.602.247-.988.841-.68 1.438.544 1.054 1.048 2.15 1.837 3.052.123.14.263.25.41.343.555.347 1.232.458 1.632 1.08.28.434.637 1.218.658 1.744.032.808-.208 1.267-.606 1.694-1.28 1.37-1.156 2.166.57 3.035m-1.685-10.08c-.652-.015-.856-.469-.84-1.038.013-.51.182-.996.787-.946.685.058.941.607 1.063 1.196-.087.615-.503.8-1.01.789m300.914 28.505c.704-.062 1.166-.509 1.11-1.236-.057-.71-.56-1.062-1.271-1.118-.721.115-1.133.545-1.079 1.263.053.71.5 1.157 1.24 1.091m-81.75-19.879c-.555.02-.832.405-.78.947.046.485.358.751.866.777.503-.084.727-.415.704-.899-.025-.482-.282-.844-.79-.825m-63.246 22.916a.7.7 0 0 0-.069.277h5.194c-.58-.892-.81-.913-2.406-.377-.931.313-1.846-.055-2.719.1m8.395-1.988c-.031-.82-.536-1.368-1.345-1.536-.523-.107-.983.123-1.003.695-.032.916.647 1.237 1.393 1.441.455-.011.978-.016.955-.6m-12.204-10.697c.336-.795.029-1.39-.801-1.628a9.2 9.2 0 0 1-2.033-.867c-.762-.432-1.281-.094-1.316.932-.036.42.236.81.735 1.067.589.305 1.179.607 1.763.92.686.368 1.313.375 1.652-.424M24.67 2.353c.034.758.48 1.258 1.23 1.325.728.064 1.052-.454 1.07-1.109.024-.791-.435-1.206-1.241-1.31-.642.056-1.093.368-1.06 1.094m195.792 45.45c1.304-.795 2.7-1.444 3.885-2.42.513-.424.986-.892 1.301-1.5.482-.936-.078-1.47-.737-1.966-.713-.535-1.123-.122-1.515.467-.327.49-.725.978-1.266 1.204-1.493.621-1.942 2.088-2.739 3.264-.346.512-.169.977.542 1.136.167-.055.367-.086.529-.185m13.159-13.775c.591.03.988-.294.997-.904.009-.692-.465-.928-1.098-.967-.568.07-1.13.24-1.077.95.049.649.598.89 1.178.92m85.783 13.863c.365.025.535-.259.707-.522.809-1.235.385-2.707-1.193-3.958-.689 1.212-.709 2.4-.11 3.847.119.29.219.608.596.633M150.394.017c.455.1.881.334 1.338.427 1.603.326 2.179 1.416 1.506 2.917-.096.214-.243.404-.344.616-.194.403-.338.841.032 1.201.403.392.82.137 1.162-.127.835-.648 1.767-1.187 2.439-2.023.841-1.05.616-1.982-.603-2.518-.328-.144-.666-.292-.896-.507h-4.705q.036.005.071.014M289.713 48c.065-1.084.206-2.188.611-3.459-.685.605-1.169.927-1.76 1.041-.976.188-1.414.752-1.253 1.755q.054.36-.013.663zm-10.011-21.74c1.212.61 2.036 1.423 2.178 2.828.075.741.54.903 1.177.66q1.266-.479 2.509-1.008c.489-.21.931-.56.95-1.11.062-1.823 1.335-2.35 2.785-2.655 1.688-.356 3.282-.71 3.808-2.752.175-.676.815-1.344 1.676-1.234.817.104 1.205.81 1.492 1.517.153.38.037.765-.05 1.154-.237 1.055.039 1.283 1.084.943.856-.279 1.707-.584 2.577-.805.643-.163 1.324-.2 1.924-.513.666-.348 1.091-.87.646-1.615-.424-.71-1.086-.89-1.81-.405-.355.238-.636.588-.993.824-.777.514-1.533.22-1.67-.685-.087-.574-.074-1.194.235-1.704.477-.788 2.833-1.395 1.558-2.658-.445-.44-.938-.369-1.339.072-.652.717-.881 1.615-1.853 1.996a2.74 2.74 0 0 1-2.432-.23c-.568-.362-.888-.125-1.344.185-1.46.995-3.285 1.474-4.298 3.099-.068.11-.272.162-.421.19-.916.17-1.494.784-2.061 1.459-.425.507-.918.964-1.422 1.393-.353.3-.793.636-1.26.257-.409-.332-.249-.826-.042-1.194 1.03-1.826.51-3.414-.572-5.023-.548-.815-1.466-1.484-1.628-2.505-.196-1.228-.666-2.33-1.188-3.425-.378-.795-.468-1.556.041-2.343.211-.325.389-.74.013-1.072-.37-.325-.853-.29-1.207-.027-.761.563-1.5 1.24-1.642 2.205-.127.866-.403 1.45-1.242 1.795-.602.247-.988.841-.68 1.438.544 1.054 1.048 2.15 1.837 3.052.123.14.263.25.411.343.555.347 1.231.458 1.631 1.08.281.434.638 1.218.658 1.744.032.808-.208 1.267-.606 1.694-1.282 1.37-1.157 2.166.57 3.035m-1.687-10.08c-.652-.015-.855-.469-.84-1.038.013-.51.183-.996.788-.946.687.058.941.607 1.062 1.196-.086.615-.503.8-1.01.789M48.725 48c.065-1.084.207-2.188.611-3.459-.685.605-1.169.927-1.76 1.041-.976.188-1.413.752-1.253 1.755q.056.36-.013.663zm140.696-8.436c1.078-.072 2.026.165 2.769.989.325.36.685.357 1.055.124 1.031-.65 2.078-1.188 3.314-1.426.87-.168 1.177-1.006 1.07-1.863-.107-.854-.834-.668-1.394-.687-1.633-.053-3.056.44-4.313 1.525-.739.637-1.597.936-2.249-.213-.094-.166-.252-.3-.395-.433-.263-.246-.553-.481-.939-.32-.429.181-.474.584-.493 1.02.055.973.662 1.345 1.575 1.284m76.236-37.211c.035.758.48 1.258 1.23 1.325.728.064 1.052-.454 1.071-1.109.023-.791-.435-1.206-1.242-1.31-.641.056-1.092.368-1.059 1.094M270.078.39c-.461.859.58 1.119.989 1.623.098.122.218.224.328.334.698.7.865 1.455.261 2.308-.157.221-.29.467-.397.717-.188.442-.362.946.141 1.263.48.302.986.129 1.408-.218.447-.369.486-.893.412-1.4-.169-1.164-.289-2.323-.003-3.332C273.2.97 273.21.305 272.714 0h-2.308a1.2 1.2 0 0 0-.328.391m-67.368.845c.617.273 1.049-.11 1.415-.55a2.5 2.5 0 0 0 .403-.686h-2.398c-.065.506.031.993.58 1.236m3.019.32c-.02.839.41 1.39 1.29 1.537.725-.054 1.414-.198 1.57-1.068.134-.753-.64-1.545-1.517-1.576-.764-.027-1.323.285-1.343 1.107M190.338.908c-.623.466-1.207 1.03-1.475 1.792-.219.622.064.978.574.987 1.122-.035 2.146-1.024 2.11-1.882-.032-.78-.682-1.293-1.209-.897m36.112 15.796c-.176.024-.539.029-.871.131-.51.156-.765.54-.327.958.168.16.32.336.48.503.247.259.461.503.684.787.261.333.52.672.794.997.583.692 1.561.478 1.78-.3a1.7 1.7 0 0 0 .04-.647c-.14-1.182-1.347-2.464-2.58-2.43m-6.401-7.538c-.117-.09-.274-.128-.384-.177-.244.031-.425.086-.49.309-.088.303.052.55.263.725.687.568 1.39 1.115 2.09 1.667.28.22.603.477.915.126.299-.339.063-.68-.21-.91-.711-.6-1.448-1.169-2.184-1.74m-16.556-4.647c-.628-.025-.867.41-.897 1.019.084.688.365 1.267 1.173 1.315.685.04 1.155-.336 1.107-1.04-.053-.797-.584-1.262-1.383-1.294"/><path d="M234.624 11.424c.002.875.178 1.671 1.013 2.103.866.447 1.587.088 2.219-.548.105-.106.245-.18.481-.35a11.8 11.8 0 0 1 1.609 4.226c.08.472.166.97.164 1.45-.001.4.025.814.008 1.217-.016.376-.029.757.06 1.124.12.5.415.834.81 1.061v.003c1.157.657 3.175.379 4.251.507.841.101 1.513-.563 2.109-1.146.581-.57 1.214-.896 2-.44.795.462 1.28 1.213.961 2.07-.659 1.765-.059 3.486-.026 5.222.02.996.484 1.73 1.552 1.926.883.164 1.458.714 1.876 1.472.966 1.753 2.281 3.173 4.002 4.212.776.469.775.975.097 1.574-1.039.92-2.031 1.785-3.502.72-.462-.334-1.062-.254-1.529.165-.317.285-.473.652-.312 1.06.23.584.669.982 1.309 1.043.424.04.866-.087 1.286-.034.646.083 1.096.467 1.133 1.15.037.648-.452.862-.982.969-.422.087-.853.194-1.276.185-.954-.02-1.746.282-2.473.903-.783.67-1.486.431-1.693-.582-.163-.8-.329-1.662.045-2.432.415-.857.203-1.567-.211-2.333-.936-1.74-.889-1.97.607-3.136.765-.596 1.226-1.23.603-2.19-.623-.958-1.302-1.1-2.408-.43-.902.546-1.721 1.238-2.91.98-.438-.096-.753.235-.792.686-.087 1.022-.604 1.851-1.122 2.687q-.061.1-.11.208c-.367.756-.494 1.525.138 2.19.653.686 1.36.348 2.046-.004 1.244-.636 1.189-.608 1.698.682.477 1.209.004 2.23-.422 3.278-.763 1.878-.647 2.37.879 3.658.561.473 1.12.947 1.629 1.471h2.001c-.387-.306-.679-.753-.84-1.325-.226-.812-.124-1.614.49-2.184.557-.516 1.187-.034 1.762.158.257.085.49.246.73.377 1.12.614 1.374.526 1.697-.73.27-1.053.896-1.615 1.978-1.68.626-.037 1.255-.133 1.877-.109 1.194.046 1.924.71 1.986 1.887.042.782.283 1.342.971 1.738.552.316.724.883.843 1.482.026.133.063.268.115.388h1.188c.071-.221.003-.497-.086-.759-.645-1.883-.422-2.507 1.351-3.477.785-.43 1.184-1.009 1.042-1.902-.081-.51-.223-1.029-.749-1.257-.552-.24-.888.183-1.191.53-.725.835-1.495.778-2.42.318-1.531-.76-2.301-1.951-2.353-3.636.012-1.008.497-1.466 1.503-1.234 1.175.27 2.413.354 3.466 1.056.576.384 1.189.334 1.78-.016.594-.351 1.24-.537 1.918-.419 1.351.236 2.675.535 4.033-.056.498-.217.982.096 1.308.56.483.686.909 1.433.915 2.264.017 2.198 1.424 3.477 2.953 4.688.552.438 1.159.798 1.546 1.42.26.42.63.566 1.103.287.436-.259.832-.217 1.113.24.312.508.105.898-.331 1.205q-.126.089-.233.188h2.491c.343-.762 1.048-1.383 1.843-1.815.757-.41 1.166-.953 1.234-1.84.064-.822.428-1.587.782-2.333.451-.946 1.178-1.423 2.265-1.316.861.084 1.886.241 2.207-.812.336-1.105-.807-1.363-1.441-1.876-.275-.222-.655-.493-.966-.3-1.508.937-1.873-.636-2.743-1.166.902.2 1.706.259 2.524-.299.777-.53 1.334-1.067 1.157-2.093-.076-.442.149-.84.353-1.222.207-.388.409-.813.282-1.236-.295-.976-.708-1.91.128-2.854.204-.23-.029-.602-.271-.828-.356-.331-.791-.4-1.2-.184-.656.345-1.298.728-1.908 1.15-.484.336-.487.869-.362 1.39.173.723.384 1.44.555 2.164.156.66.042 1.247-.558 1.665-.601.42-1.255.568-1.859.103-1.429-1.099-2.796-1.287-4.23.005-.383.346-.997.483-1.38-.005-.396-.503.134-.839.422-1.19.312-.383.866-.769.496-1.3-.321-.461-.867-.078-1.317-.023-1.783.218-3.565.354-5.234 1.184-.801.4-1.503-.206-1.97-.898-.532-.79-.442-1.586.201-2.26.813-.853 1.613-1.712 2.208-2.74.376-.647.831-1.303.386-2.075-.315-.546-.898-.575-1.463-.533-.941.07-1.295.736-1.579 1.517-.677 1.855-.672 3.852-1.237 5.732-.2.664.183 1.29.504 1.888.462.86.201 1.328-.75 1.419-1.587.152-2.221-.499-1.967-2.054.134-.822-.241-1.471-.71-2.046-.919-1.128-1.043-2.318-.485-3.63.504-1.187.443-2.235-.568-3.213-.766-.742-.558-1.133.506-1.35 1.315-.267 2.39-.974 3.215-2.009 1.071-1.344 2.145-1.58 3.662-.695.574.334 1.09.798 1.774.89.913.123.975-.4.796-1.152-.145-.608-.213-1.564-.869-1.83-.907-.37-1.938-.58-2.868-.942-1.368-.532-2.383-.256-3.308.873-.849 1.038-2.134 1.78-2.827 2.908-.321.522-.934.529-1.484.249-.246-.126-.48-.298-.485-.615-.002-.283.219-.396.443-.48.624-.234 1.224-.75 1.085-1.488-.156-.83-1.119-.806-1.795-.782-1.509.056-2.091-.41-1.99-1.892.119-1.731.15-3.377-.944-4.873-.256-.35-.248-.896-.344-1.356-.151-.74.031-1.33.798-1.615.749-.28 1.412-.132 1.888.517.527.718.739 1.526.646 2.44-.133 1.286.346 1.683 1.555 1.396 3.113-.743 6.231-1.454 9.39-1.985 1.501-.251 2.303-.916 1.992-1.66-.493-1.18-1.557-.613-2.37-.519-1.002.116-1.919.672-2.966.684-.724.008-1.166-.245-1.378-.985-.311-1.08-.97-1.24-1.908-.529-1.601 1.214-3.161 1.214-4.399-.356-1.328-1.684-2.759-3.31-3.852-5.176-.334-.57-.536-1.15-.592-1.744h-2.204q.02.498.021 1.003c.018 2.406-.768 3.348-3.691 4.015-1.52.346-3.104.432-4.665.585-.8.078-1.253.366-1.162 1.246.038.36-.024.747-.449.854-.431.11-.6-.269-.817-.54-.364-.456-.459-.916-.344-1.524.213-1.12.362-2.286-.975-2.947-.215-.107-.377-.4-.477-.643-.136-.332-.181-.721.21-.933.338-.184.605.05.822.278.157.167.289.373.386.583.598 1.29.909 1.337 1.983.358.807-.737 1.599-1.491 2.276-2.335h-5.038l-.015.016c-.373.442-.721.384-1.085.004l-.02-.02h-10.497q.047.13.116.26c.315.588.832.798 1.636.723l.076-.01c.683-.077 1.514-.482 1.954.261.44.739-.24 1.481-.432 2.208-.165.625-.757.607-1.263.314a22.8 22.8 0 0 1-4.836-3.756h-2.117c.305.394.497.877.588 1.436.155.946-.469 1.63-1.348 1.388-1.218-.337-2.191.07-3.039.798-2.226 1.91-3.71 1.143-5.349-1.642-.361-.614-.605-1.298-.851-1.98h-3.018c.441.345.763.787.756 1.373-.029 2.121 1.531 3.341 2.681 4.792.137.174.383.36.585.369 1.655.07 2.187 1.247 2.619 2.56.166.504.519.904 1.012 1.093 1.047.402 1.321 1.145 1.296 2.223-.035 1.448.847 1.987 2.135 1.357.92-.45 1.351-.038 1.575.75.423 1.486 1.358 2.542 2.643 3.318.473.286 1.035.565 1.541.185.485-.364.096-.871-.008-1.305-.17-.705-.131-1.397.024-2.097.234-1.064-.25-1.65-1.272-1.85a6 6 0 0 0-.818-.09c-1.982-.11-1.997-.105-2.245-2.135-.079-.654-.448-.857-1.024-.883-.893-.04-1.695-.313-2.337-.961-.5-.505-.786-1.089-.548-1.81.233-.705.757-1.15 1.476-1.165 1.177-.023 2.131-.391 2.867-1.338.149-.19.484-.373.71-.347 1.787.208 3.62.321 4.877 1.915.75.951.708 1.951.276 2.993-.344.795-.692 1.58-.691 2.474m49.111 25.029c1.343.562 1.805 1.358 1.801 3.76-.08 1.149-.707 2.344-1.781 3.28-.766.667-2.037.644-2.796-.15-.954-.997-2.067-1.799-3.055-2.747-.76-.728-.823-1.564-.133-2.29 1.461-1.541 3.541-2.868 5.964-1.853m-7.831-2.068c.638.018 1.491.04 1.455.94-.038.937-.854 1.187-1.646 1.3-.59-.034-1.201-.103-1.175-.834.029-.815.458-1.432 1.366-1.406m-17.252-29.66c.331-.42.769-.534 1.247-.31.6.282.833.783.733 1.44-.107.713-.931 2.008-1.772 2.735-.884-1.062-.962-2.907-.208-3.864m-19.569 2.199c1.014-1.09 1.35-2.328.508-3.762-.325-.553-.82-1.38-.05-1.915.387-.27.912-.361 1.447-.347a4.9 4.9 0 0 1 1.556.311c.809.31.86 1.036.643 1.79-.201.702.004 1.294.429 1.866 1.025 1.385.983 1.64-.266 2.862-.291.286-.732.487-.722 1.163 1.186-.023 1.935.628 2.556 1.633.469.76 1.842.839 2.508.01 1.802-2.244 4.137-2.508 6.755-2.397 1.756.074 2.968.697 3.337 2.402.326 1.506.941 2.729 2.098 3.81 1.096 1.021 1.506 2.34.593 3.626-.765 1.075-1.768 1.573-2.024 3.006-.073.412-.021.803.393 1.014.392.2.766.109 1.084-.183.261-.239.495-.506.761-.737.479-.418.998-.544 1.409.053.377.55.355 1.11-.23 1.55a1.2 1.2 0 0 1-.204.118c-.613.295-1.474.381-1.384 1.342.095 1.005.504 1.895 1.323 2.534.314.244.694.415 1.094.21.406-.207.291-.593.255-.94-.009-.078-.025-.156-.028-.234-.02-.629-.097-1.292.583-1.66.308-.167.633-.074.852.189.463.552.473 1.273.12 1.767-.98 1.37-.406 2.297.672 3.184.545.45.615 1.053.474 1.715-.241 1.135-.656 2.268.102 3.559-1.899.08-3.626.422-4.991-1.032-1.639-1.746-3.627-2.963-5.769-3.982-1.939-.922-2.984-3.776-2.103-5.737.379-.841.218-1.576-.117-2.37-.536-1.264-.305-1.616 1.049-1.735 1.015-.088 2.037-.111 3.045-.24.589-.075 1.077-.335 1.264-.946.225-.737-.424-1.317-.951-1.735-.5-.396-1.037-.563-1.62-.17-.489.328-.959.683-1.459.993-1.055.654-2.058.113-2.1-1.136-.027-.831.315-1.513.908-2.093.451-.442.967-.933.529-1.624-.434-.684-1.133-.617-1.798-.388-.922.32-1.824.42-2.747.002-.37-.168-.782-.217-1.051.196-.247.379-.137.782.106 1.102.257.336.563.663.912.897.877.591 1.462 1.327 1.31 2.437-.159 1.168-1.771 1.95-2.783 2.105-1.187.182-2.427.012-3.59-.237-.608-.13-.9-.585-1.142-1.147-.417-.976-.823-2.684-.339-3.696.426-.891-.114-2.222-.698-2.919-.18-.214-.382-.407-.604-.507v-.003a.75.75 0 0 0-.719.05c-.63.366-.965 1.06-1.654 1.355-.519-1.782-.985-3.42.468-4.98M115.034 33.476c.802.15 1.61.22 2.384.529.379.15.827.062.791-.52-.038-.61-2.323-2.446-3.1-2.423-.58.048-.921.474-.992 1.127-.076.685.248 1.162.917 1.287m-5.304-13.049c-.773.055-1.367.417-1.424 1.267-.049.731 1.035 1.763 1.801 1.727.843-.039 1.22-.585 1.317-1.267-.018-.934-.87-1.785-1.694-1.727m2.919-2.867c.389-.067.833-.038.916-.547.057-.341-1.292-1.454-1.699-1.409-.467.052-.692.387-.668.805.051.906.727 1.081 1.451 1.15"/><path d="M107.827 42.329c-.446.165-.944.26-1.206.68-.99 1.586-2.234 3.033-2.751 4.884l-.034.107h3.314a10 10 0 0 0 .661-1.905c.646-2.698 2.533-3.221 4.824-1.601.128.091.25.19.38.277.659.441 1.267.288 1.834-.177.608-.499.497-1.078.18-1.691-.634-1.227-1.374-1.558-2.806-1.243-.552.121-1.481.366-1.221-.532.325-1.116-.211-1.587-.843-2.18-.551-.515-1.003-1.108-1.227-1.84-.238-.778-.172-1.528.587-1.97 1.087-.635 1.03-1.454.527-2.4-.221-.414-.462-.819-.686-1.234-.685-1.271-.441-2.22.76-3.026.616-.413 1.305-.48 2.02-.512 1.459-.065 1.86-.553 1.767-2.419-1.428.848-2.787.8-4.18.343-.292-.097-.736.004-1.015.173-1.214.734-2.493.798-3.861.622-1.169-.15-1.617.543-1.019 1.595.543.952.554 1.817.09 2.786-.541 1.13.072 1.923 1.323 1.755.424-.056.827-.263 1.251-.32.906-.125 1.377.44 1.651 1.194.266.731-.206 1.06-.783 1.349a5.5 5.5 0 0 0-1.173.764c-1.184 1.044-1.128 1.545.172 2.441.676.467 1.505.68 2.084 1.307.991 1.07.734 2.272-.62 2.773m35.325-6.82c.914.035 1.162-.7 1.196-1.435.034-.7-.182-1.451-1.019-1.432-.844.018-1.063.784-1.185 1.492.06.685.221 1.346 1.008 1.375m-20.015 5.481c-.383.012-.517.314-.525.66-.005.357.138.641.537.615.364-.024.534-.287.544-.651-.03-.346-.171-.635-.556-.623m9.202 6.917c.673-.043 1.039-.53 1.006-1.193-.032-.623-.331-1.19-1.025-1.194-.733-.005-.898.609-.973 1.214.057.633.232 1.22.992 1.172m-12.032-1.14c.8-.074 1.446.598 2.233-.043.377-.308.626-.742.02-1.006-.803-.351-1.453-.491-2.256-.062-.806.43-1.261.767-2.196.379-1.278-.532-1.724-.252-1.872 1.146-.03.283-.001.556.064.82h2.762c.226-.51.666-1.18 1.245-1.234m9.576-11.801c.399-.047.593-.321.612-.717-.077-.407-.326-.615-.729-.584-.39.03-.672.247-.659.66.013.471.322.692.776.64m33.127 10.123c1.046-.305.906-1.148.759-1.922a12 12 0 0 0-.542-1.91c-.241-.654-.746-1-1.467-.901-.698.094-1.127.514-1.256 1.204-.063.342-.061.698-.095 1.159.033.28.027.68.131 1.049.246.863 1.581 1.58 2.47 1.32m-20.884-5.861c.453-.066.981-.147 1.003-.739.014-.404-.337-.562-.749-.576-.454.062-.751.35-.827.805-.065.402.22.56.573.51"/><path d="M98.74 31.19c.16.593.39 1.194 1.126 1.14.873-.066 1.752-.298 2.158-1.18.295-.639.007-1.246-.501-1.685-.473-.407-1.037-.711-1.502-1.126-1.282-1.143-.831-3.786.789-4.3 1.123-.358 1.685-.96 1.837-2.128.143-1.101.564-2.366 1.584-2.954 1.17-.675 2.561-.207 3.522-1.363.248-.298.572-.6.358-1.033-.185-.376-.589-.378-.933-.349-1.644.133-3.584.112-4.772 1.459-.492.558-.837 1.157-1.376 1.712-.49.503-.756 1.02-.499 1.726.291.798.148 1.52-.763 1.789-.618.184-1.584-.796-1.588-1.58-.002-.34.121-.689.22-1.024.11-.382.21-.76.09-1.154-.336-1.11-1.422-.161-1.594.524-.213.846-.71 1.186-1.563.926-.668-.204-1.323-.04-1.979.058-.306.046-.663.047-.741.444-.067.336.126.6.35.833.323.339.744.39 1.183.425 1.606.136 2.311.83 2.479 2.407.134 1.268-.338 1.861-1.879 2.355-1.127.362-1.503.982-1.257 2.142.112.536.258 1.07.445 1.584.245.675.705.877 1.234.31.694-.742 1.335-1.533 1.968-2.328.256-.322.33-.898.89-.77.671.155.395.737.41 1.175-.071.682.134 1.321.304 1.964M80.716 2.369c.18 1.376 1.146 2.08 2.31 2.587.371.161.763.235 1.09-.106.306-.318.37-.717.189-1.092-.583-1.199-.898-2.5-1.329-3.76h-4.08c1.01.498 1.67 1.215 1.82 2.37"/><path d="M112.282 37.315c-.318.48-.519 1.077-.126 1.54.552.651 1.398 1.072 2.204.773 1.422-.53 2.881-.627 4.349-.849 1.48-.222 2.727-1.202 3.75-2.251.393-.404.671-1.109 1.382-.893.656.198.536.88.597 1.412.095.848.676 1.306 1.36 1.646 1.027.51 1.91 1.217 2.828 1.89.753.552.801 1.068.275 1.763-.378.499-.72 1.025-1.084 1.534-.214.299-.386.612-.198.975.198.382.57.36.927.334 1.431-.106 2.238-.727 2.6-2.084.285-1.062.992-1.255 1.896-.951.681.228 1.323.381 2.061.272 1.633-.245 2.856.686 2.98 2.368.093 1.253.542 1.904 1.857 1.847.34-.014.696.114 1.028.227.841.288 1.184.574 1.162 1.133h5.156a1 1 0 0 1-.27-.373c-.207-.484-.136-.939.272-1.282 1.036-.87 2.153-1.47 3.538-.813 1.166.552 2.221.444 3.335-.243 1.158-.712 2.067-.131 1.93 1.201-.067.655.111 1.122.492 1.51h2.723l-.001-.18c.021-1.716-.086-3.384-1.505-4.637-.24-.212-.306-.543-.264-.871.263-2.07.923-3.948 2.532-5.39 1.143-1.024 2.413-1.878 3.668-2.752.695-.485 1.315-.359 2.056.08 1.344.795 2.19 2.118 3.428 3.01.346.248.505.62.263 1.031-.245.42-.66.596-1.11.466a4.34 4.34 0 0 0-2.321-.023c-.55.138-.994.407-.78 1.059.196.6.699.688 1.253.519.222-.068.455-.153.642-.286.955-.68 1.657-.424 2.436.4 1.314 1.389 2.236 1.103 3.099-.593.563-1.105.368-1.766-.324-2.802-1.542-2.308-3.799-3.925-5.424-6.142-1.118-1.526-2.71-1.26-3.577.4-.261.5-.654.7-1.169.872-2.249.745-4.21 1.894-5.34 4.108-.445.872-2.87 1.587-3.692 1.02-.96-.665-1.92-1.151-3.145-1.09-.89.044-1.033-.7-1.054-1.402-.023-.788.461-1.01 1.158-.943.67.067 1.318.002 1.51-.768.213-.85-.431-1.198-1.068-1.444-.79-.306-1.447-.695-1.87-1.497-.499-.944-.896-1.768.34-2.46a.92.92 0 0 0 .414-1.04c-.432-1.427-.187-2.884-.263-4.325-.024-.468-.031-1.023-.624-1.126-.575-.1-.812.4-1.004.827-.272.607-.469 1.249-.74 1.856-.353.789-.97 1.227-1.857 1.176-.911-.052-1.55-.465-1.814-1.393a26 26 0 0 0-.679-2.005c-.187-.492-.471-.96-1.077-.932-.682.03-.882.597-1.004 1.138-.185.81-.305 1.673.102 2.423.707 1.298.226 2.224-.721 3.115-.52.49-1.064.915-1.723 1.204-.862.38-1.556.355-2.11-.551-.427-.7-1.121-1.093-1.951-1.174-.845-.082-1.422-.503-1.906-1.203-1.171-1.696-2.734-1.579-3.769.235-1 1.755-2.746 1.736-4.087.21-1.441-1.642-1.685-3.544-1.76-5.547-.036-.974.607-1.596 1.266-2.25.919-.914 2.001-.938 3.064-.232.764.51 1.781 1.427 2.731 1.52.997.095 1.721-.53.783-1.287-.474-.383-1.812-.485-1.695-1.31.101-.712.685-1.148 1.346-1.333.917-.257 1.992.535 2.293 1.38.204.575-.205.77-.162 1.286.041.499.603.798 1.038.89.269.056.529.15.799.194 1.782.295 2.428 1.02 2.541 2.87.026.431.001.872.091 1.288.16.755.601 1.194 1.436.966.833-.229 1.146-.921.821-1.732-.233-.58-.429-1.176-.682-1.747-.429-.973-.01-1.305.921-1.292q.411.007.823-.003c.701-.019.938-.555.518-1.085-.51-.642-1.002-.976-.379-1.829.373-.51-.326-1.166-1.136-.923-1.407.425-2.721.04-4.058-.227-.905-.18-1.689-.623-2.353-1.266-1.003-.974-.904-1.752.298-2.412.24-.131.501-.224.746-.348.244-.125.576-.208.701-.414.836-1.381 1.159-2.972 1.706-4.471.152-.416-.374-.831-.857-.983-.539-.169-.984.075-1.156.55-.484 1.338-1.3 2.267-2.698 2.699-.446.139-.689.652-.812 1.108-.337 1.242-1.137 1.64-2.377 1.579-.641-.034-1.304-.305-1.954-.035-.214.67.307.72.682.879.744.316 1.241.848 1.29 1.67.038.62-.478.836-.949 1.06-.779.37-1.341.027-1.888-.503-.448-.435-.881-.973-1.43-1.201-1.499-.625-2.079-1.898-2.268-3.427-.14-1.129-.811-3.166 1.116-3.025.678.05 1.569.424 1.903-.391.382-.933-.696-1.172-1.194-1.64-.965-.913-1.607-.277-2.417.296-.739.52-1.444.182-1.749-.635-.395-1.056-1.165-1.854-1.677-2.822-.404-.762-.465-1.395.389-1.897q.067-.04.129-.08h-5.512c-.194 1.279-.906 1.977-1.976 2.04-1.303.077-2.409-.676-2.793-1.902q-.021-.069-.036-.138h-4.51a3 3 0 0 1-.351.397c-1.465 1.386-3.168 1.353-4.957.913-.373-.09-.722-.316-1.18-.22-.343.61.092 1.021.413 1.431.481.616.945 1.264 1.517 1.787.867.793 1.678 1.576 2.217 2.67.351.712 1.298.615 1.745-.1.585-.934.751-1.916-.091-2.81-.788-.836-.68-1.473.289-2.081.557-.351.995-.89 1.549-1.25.705-.457 1.344-.385 1.712.491.655 1.552 1.691 2.716 3.329 3.273.351.12.646.321.643.743-.003.44-.246.784-.635.91-1.325.434-2.24 1.768-3.9 1.553-.833-.107-1.376.646-1.431 1.56-.014.236-.016.472-.032.706-.12 1.85-1.277 2.645-2.952 1.916-1.016-.44-1.544-.212-1.834.824-.255.903-.824 1.697-.954 2.65-.048.35-.133.725.2.978.342.26.693.105.968-.129.581-.494 1.221-.637 1.969-.526.891.131 1.519-.293 1.888-1.088.579-1.249 1.561-2.044 2.818-2.518.684-.257 1.259-.618 1.63-1.272.216-.378.496-.826 1-.59.603.281 1.466.31 1.607 1.183.091.56-.059 1.098-.578 1.448-.258.173-.563.295-.78.507-.278.273-.285.639-.091.979.212.374.568.478.899.238 1.344-.968 2.659-.149 3.962.07.709.118 1.334 1.647.969 2.371-.308.608-.032 1.266.299 1.88.147.272.305.537.426.784.549 1.107.083 1.748-.705 2.598-.733.79-.793 1.645-.416 2.813.994-.787 2.029-1.357 2.975-2.027.649-.456.219-1.156-.245-1.626-.779-.786-.502-1.5.133-2.154.864-.892 1.972-.607 2.379.573q.257.75.027 1.505c-.28.93-.682 1.82-.195 2.84.214.446-.278.792-.629 1.02-.49.32-1.043.54-1.549.837-1.107.65-1.288 1.815-.448 2.779.919 1.055 1.898.899 2.409-.392.145-.364.241-.747.396-1.107.707-1.642 2.934-.332 3.616.687.882 1.316.328 2.95-.52 4.127-1.37 1.904-3.356 2.88-5.014 4.462-.516.491-1.159.64-1.86.448a76 76 0 0 1-1.471-.42c-.848-.254-1.569-.096-2.071.665m37.85 3.496c.818-.967 1.947-1.588 3.182-1.897.872-.218 2.596 1.072 2.873 2.042.722 2.512.006 3.385-2.696 3.244-.469.03-.946.012-1.402.099-.841.16-1.707.32-2.184-.597-.504-.976-.48-2.055.227-2.89m-11.93-1.409c1.013-1.045 1.241-2.176.918-3.558-.196-.83-.18-1.711-.237-2.57-.207-3.026 1.443-4.7 4.587-4.533.313 0 .745-.022 1.175.004.919.054 1.54.496 1.795 1.415.209.756.391 1.523.674 2.252.409 1.052.438 1.996-.2 3.012-.581.926-.279 1.397.764 1.484.533.045 1.163-.113 1.382.592.222.716.12 1.407-.386 1.986-.177.202-.399.45-.638.5-1.552.328-1.961 1.469-2.162 2.83-.079.535-.293 1.056-.504 1.56-.345.827-.997 1.212-1.883 1.05-.902-.165-1.714-.575-1.76-1.606-.047-1.035-.581-1.425-1.489-1.644-.561-.136-1.056-.53-1.614-.685-1.359-.379-1.281-1.204-.422-2.089m-12.867-7.204c.937-.993 1.979-1.889 2.999-2.8.49-.436 1.091-.508 1.626-.108 1.776 1.328 3.893 2.172 5.383 3.914.75.876 1.158 1.837 1.286 2.843-.192 1.442-.306 2.783-1.677 3.549-.584.325-1.12.416-1.599-.095-.595-.636-1.357-.894-2.162-1.106-.809-.214-1.532-.59-2.092-1.237-.368-.425-.803-.756-1.381-.824-.819-.097-1.448-.56-2.071-1.042-1.19-.923-1.347-1.996-.312-3.094m-3.298-14.66c-.66.745-2.15.776-2.919.2-.247-.184-.507-.407-.647-.672-.652-1.225-1.642-1.955-3.002-2.222-.701-.138-.866-.648-.899-1.314-.097-1.971-.236-2.058-2.145-2.312-.652-.087-1.504-.009-1.721-.905-.179-.739.627-2.597 1.293-2.866 1.094-.442 1.61-.952.941-2.19-.361-.669.675-2.36 1.441-2.559.854-.221 1.276.36 1.437 1.033.229.97.558 1.766 1.585 2.144.575.21.422.764.343 1.535-.074.716.41 1.93.592 2.639.249.962.604 1.901 1.236 2.682.906 1.118 3.9 3.187 2.465 4.807"/><path d="M162.077 27.724c-.055-.334-.33-.417-.629-.376-.363.049-.672-.028-1.007-.201-1.251-.646-2.086-.192-2.45 1.467 1.265-.077 2.424-.13 3.578-.226.349-.029.57-.293.508-.664m-4.202-3.584c.532-.126.977-.444 1.06-.988.248-1.649.242-3.31.413-4.966.129-1.247 1.107-1.868 2.182-2.36 1.765-.806 2.3-2.47 1.337-4.156-.208-.364-.493-.614-.934-.601-.501.016-.861.32-.9.776-.17 2.033-1.538 2.707-3.275 3.116-2.487.585-1.628 3.283-1.873 5.12-.364 2.742-1.738 4.88-3.806 6.638-.766.65-.737 1.165.072 1.808a4.25 4.25 0 0 0 1.685.802c.548.13 1.029.356 1.399.8.337.406.73.788 1.302.485.559-.295.824-.792.766-1.399-.27-.276-.555-.218-.821-.244-1.12-.111-1.418-.494-1.254-1.623.229-1.604.955-2.801 2.647-3.207M123.303 1.108c.023.768 1.412 1.863 2.32 1.745 1.056-.139 1.048-1.05 1.075-1.807.012-.34-.084-.705-.244-1.046h-2.976c-.12.353-.186.736-.175 1.108M139.19 14.45c.44.36 1.051.245 1.258-.154.744-1.436 1.63-1.93 3.264-1.246.765.32 1.554-.336 1.774-1.306.209-.926.098-1.727-.813-2.23-.377-.208-.765-.4-1.164-.562-.892-.362-1.372-1.01-1.443-1.964-.086-1.168-.495-2.18-1.241-3.11-.794-.989-.57-1.534.653-1.811a30 30 0 0 1 3.006-.55c1.275-.156 2.152.976 1.765 2.212-.201.638-.788 1.33.133 1.844.595.334 1.692-.272 2.087-1.128.711-1.542.936-3.052-.389-4.445h-7.494l-.261.056c-.428.1-.812.071-1.13-.056h-3.954c.014.887.393 1.736 1.202 2.24 2.057 1.282 2.955 2.875 2.541 5.265-.074.422.159.924.328 1.357.598 1.533.761 3.035-.152 4.516-.214.346-.344.766.03 1.073m28.202 29.755c.059-.482-.212-.883-.707-.909-.724-.036-1.018.503-1.112 1.122-.071.467.215.72.718.767.558-.08 1.024-.347 1.101-.98M129.499 2.019c.692.968.965 2.454 2.497 2.269.731.016 1.256-.104 1.548-.665.29-.555.16-1.091-.237-1.52-.575-.622-.815-1.328-.882-2.102h-2.649c-.481.626-.799 1.287-.277 2.018m-1.909 3.57c.029.63.465.923 1.001 1.09.402-.022.575-.252.562-.603-.021-.62-.325-1.025-.977-1.054-.355-.016-.604.207-.586.567m35.534 20.409c.795.08 1.554-.622 1.571-1.386.02-.851-.925-2.06-1.629-2.003-.95.078-1.122.806-1.196 1.619.101.794.165 1.659 1.254 1.77M183.849 48h3.724a.66.66 0 0 1-.191-.351c-.1-.443.145-.78.483-.998 1.007-.644 1.984-1.56 3.286-.58.061.046.149.104.213.092 1.036-.185 1.601-1.029 2.264-1.701.458-.462.395-1.095.02-1.632-.245-.35-.556-.657-.828-.992-.419-.516-.865-.485-1.302-.051a45 45 0 0 0-1.462 1.53c-1.554 1.691-4.306 1.819-6.015.272-1.029-.93-1.418-.855-2.116.406-.543.982-3.07 1.613-4.013 1.006-.445-.286-.535-.748-.626-1.215-.175-.888-.377-1.75-.942-2.506-.73-.976-.201-2.11 1.04-2.29.718-.102 1.408.077 2.06.367a5.2 5.2 0 0 0 2.166.45c.986 0 1.659-.32 1.88-1.366.158-.74.643-1.335.986-1.996.335-.648.569-1.387-.083-1.945-.683-.584-1.404-.261-2.046.19-.36.254-.6.607-.779 1.013-.689 1.562-1.642 2.003-3.262 1.465a6.8 6.8 0 0 1-2.848-1.815c-.234-.249-.44-.554-.906-.609-.476 1.102-.847 2.167-.235 3.349.48.923.474 1.973.629 2.971.12.776-.392 1.311-.991 1.75-.635.464-1.142 1.04-.872 1.885.278.872 1.021 1.172 1.862 1.14 1.31-.05 2.176.406 2.504 1.768q.055.224.145.393h2.337c1.325-.688 2.626-.442 3.918 0m-11.8-1.476c-.002-.815-.379-1.241-1.076-1.253-1.073.035-1.747.801-1.727 1.826.006.313.106.628.263.904h2.207c.204-.413.333-.936.333-1.477m-75.095-1.838c.704-.062 1.167-.509 1.11-1.236-.056-.71-.56-1.062-1.27-1.118-.721.115-1.133.545-1.08 1.263.054.71.5 1.157 1.24 1.091"/><path d="M170.427 29.536c.032 1.256.996 2.444 2.197 2.74.527.13.835-.09 1.011-.548.269-.698.269-1.374-.189-2.013-.215-.3-.645-.611-.247-1.007.36-.359.725.013 1.068.16 2.811 1.213 5.88 1.236 8.813 1.892.985.221.912-.825 1.068-1.361.384-.058.503.1.608.265.508.8 1.068.756 1.747.183 1.596-1.346 1.918-1.303 3.184.241.599.73 1.234 1.426 2.074 1.892.788.436 1.218 1.204 1.744 1.883.677.873 1.44 1.178 2.407.426.214-.167.481-.264.709-.418.535-.358 1.12-.752 1.727-.33.674.47 1.066 1.237.882 2.046-.205.91.098 1.621.527 2.33.31.51.579 1.01.583 1.633.004.702.503 1.056 1.084 1.24 1.656.52 2.387 1.813 2.855 3.328.394 1.273.684 2.583 1.142 3.831q.012.026.02.051h5.186c-.374-.555-.957-.86-1.552-1.195-1.214-.68-2.087-1.65-2.149-3.15-.023-.572-.253-1.062-.655-1.47-.027-.027-.065-.053-.078-.086-.724-1.94-1.984-3.314-3.921-4.174-.721-.32-.847-1.367-1.197-2.107-.182-.384 0-.72.376-.86.986-.362 1.863-1.047 2.966-1.062.654-.009 1.208-.217 1.741-.595.841-.596 1.665-.499 2.463.159-.168.624-.6.696-.919.897-.645.405-1.003.937-.567 1.664.412.686.987.416 1.544.147 2.438-1.18 4.182-.074 4.275 2.692.013.39-.195.998.471.987.559-.008.764-.541.756-1.029-.032-1.69.565-3.238 1.081-4.792.521-1.575 1.686-1.812 2.88-.7.587.545.588 1.166.274 1.82-.315.66-.479 1.313-.265 2.042.164.563-.135.989-.531 1.343a4.44 4.44 0 0 0-1.4 2.393c-.224.983-.853 1.489-1.849 1.721-1.835.43-2.481 1.55-2.034 3.418.157.66.258 1.294.067 1.935h2.963c-.001-.031.002-.06-.001-.093-.115-1.823.644-3.278 1.988-4.447.648-.564 1.052-1.175 1.145-2.084.175-1.733 1.75-2.475 3.288-1.636.468.255.893.628 1.443.611.3-.377.102-.67-.041-.928-.438-.793-.425-1.584-.003-2.36.426-.782.318-1.39-.242-2.133-1.527-2.026-3.42-3.227-6.002-3.435-2.097-.17-3.313-3.204-2.098-4.996 1.835-2.707 4.192-3.547 7.362-2.622 1.118.327 1.679 1.065 1.644 2.396-.033 1.249.167 2.138 1.713 2.218.853.045 2.211 2.408 1.957 3.199-.217.68-.737.824-1.292.423-.438-.315-.791-.753-1.166-1.15-.399-.422-.849-.805-1.431-.454-.679.41-1.281.964-1.336 1.825-.039.617.448.866.967 1.015.356.101.708.261.801.626.459 1.805 1.915 3.033 2.656 4.676.642 1.422 1.974 1.672 3.344 1.768.406.027.795-.108.977-.519.21-.473-.046-.828-.361-1.149-.312-.316-.71-.485-1.117-.63-.669-.238-1.308-.538-1.877-.964-.463-.345-.791-.775-.664-1.402.114-.563.506-.848 1.029-1.016.447-.143.909-.274 1.311-.506 1.119-.641 1.328-1.377.799-2.55-.209-.466-.399-.938-.611-1.402-.396-.864-.243-1.61.484-2.217 1.333-1.114 2.454-2.479 4.454-2.603 1.094-.068 1.88-1.21 2.993-1.544.331-.1.912-2.497.778-2.84-.343-.877-1.789-1.153-2.339-.325-.925 1.395-2.438 2.071-3.571 3.206-1.02 1.022-4.189.682-5.184-.523a6.2 6.2 0 0 0-2.403-1.817c-.737-.316-1.227-.961-1.815-1.477-.915-.8-1.71-.527-1.898.67-.1.638-.298 1.147-.942 1.348-.684.212-1.45.423-1.951-.258-.476-.647.072-1.186.472-1.653.521-.604 1.008-1.244 1.346-1.967a2.6 2.6 0 0 1 .22-.389 2.6 2.6 0 0 1 .568-.584c.455-.345.994-.556 1.527-.747-.3-.95-.951-1.139-1.692-1.019-1.203.196-2.074-.273-2.957-1.059-1.603-1.426-3.21-2.903-5.474-3.247-.483-.074-.704-.476-.852-.893-.487-1.366-.649-2.73-.082-4.134.698-1.728 1.458-2.231 3.331-2.092.38.027.833.199 1.057-.25.226-.453-.22-.688-.444-.99-.509-.693-1.087-1.352-1.489-2.103a1.65 1.65 0 0 1-.201-.773h-1.456c.513.595.296 1.508-.622 1.881-2.283.927-2.626 2.65-2.451 4.758.072.871-.332 1.516-1.165 1.847-.741.295-1.156.868-1.51 1.562-.89 1.742-3.827 1.838-4.784.114-.601-1.082-1.187-2.098-2.299-2.737-.378-.218-.592-.647-.669-1.077-.16-.901-.513-1.702-.977-2.494-.559-.957-.26-1.958.366-2.753.284-.363.472-.727.578-1.101h-4.133c.25 1.112.462 2.234.648 3.36.246 1.482-.316 2.779-1.06 4.001-.392.645-1.011.694-1.655.404-.714-.321-1.398-.72-2.127-.999-.954-.364-1.496-.006-1.652 1.007-.048.31-.036.63-.104.935-.201.91-.073 1.654.936 1.977.996.32 1.945.412 2.596-.648.351-.576.76-1.103 1.302-1.503.936-.693 1.708-.602 2.38.323.416.574.986.756 1.623.802.921.067 1.496.394 1.372 1.457-.09.766.404 1.048 1.078 1.081.828.04 1.647.143 2.42.441 1.655.639 1.941 1.955.55 2.992-.814.607-1.794 1.557-1.381 2.69.154.42.589.664.502 1.174-.067.395-.4.648-.766.694-1.046.128-1.807.758-2.564 1.357-.718.568-1.251.509-1.795-.18-.205-.26-.367-.686-.818-.48-.393.179-.546.57-.53.978.011.303.06.65.219.894.545.843.499 1.696.203 2.595-.268.81-.283 1.623.14 2.396.197.36.47.647.922.614.402-.029.655-.315.753-.66.353-1.23.932-2.316 1.843-3.23.26-.26.266-.658.183-1.008-.243-1.017.178-1.517 1.166-1.772 1.421-.365 2.703-.335 3.801.79.448.457 1.064.666 1.649.882.957.356 1.888.726 2.727 1.343.894.656 1.949.43 2.965.324.771-.083 1.711-.308 1.907.783.179.997-.549 1.519-1.425 1.698-1.017.208-1.79.692-2.423 1.516-.82 1.067-1.995 1.444-3.259 1.139-1.314-.317-2.321-.055-3.33.854-1.321 1.192-2.966 1.273-4.642.918-1.188-.253-2.367-.545-3.557-.795-1.417-.3-2.383-1.093-2.913-2.458-.688-1.775-.825-1.814-2.512-.967-.262.131-.512.264-.743.01-.277-.304-.286-.8-.024-.966 1.354-.858 1.854-2.034 1.582-3.59-.02-.114.126-.309.244-.385.71-.453 1.234-1.103 1.573-1.869.709-1.607.63-3.282 1.743-4.756.607-.805 1.04-1.642 1.065-2.678.016-.648.468-1.04.977-1.383.464-.312.978-.687.584-1.327-.378-.611-.977-.908-1.72-.678-.508.158-.879.513-1.18.935-.656.925-1.231 1.894-2.435 2.276-.584.187-.576.753-.344 1.295.499 1.158.324 2.348-.293 3.423-.529.92-1.166 1.46-1.168 2.623-.001 1.133-.438 2.068-1.634 2.45-.573.181-.914.614-1.12 1.135-.584 1.476-1.795 1.905-3.229 2.172-2.266.422-4.574.383-6.843.765-2.132.358-3.71-1.769-2.639-4.064.545-1.166 1.25-2.285 2.226-3.138.763-.667 1.699-1.066 2.656-1.385 1.104-.369 1.924.118 2.559 1.006 1.239 1.727 3.3 1.764 5.018 2.5.399.17.75-.162.859-.601.149-.609.141-1.392-.451-1.564-1.96-.571-3.057-2.635-5.106-2.966-.841-.136-1.1-.757-.666-1.5.589-1.012.76-2.116.982-3.237.269-1.35 1.012-2.486 2.269-3.133 1.259-.648 1.746-1.963 2.659-2.905.353-.363-.221-2.548-.617-2.88-.383-.32-.725-.074-1.092.054-.989.347-1.505 1.32-2.568 1.983.078-2.315-1.161-2.822-3.012-2.477a.37.37 0 0 1-.23-.038c-1.689-.968-3.47-1.539-5.454-1.545-.668-.001-1.085-.595-1.227-1.276h-3.632c.097.89 1.191.629 1.742 1.048.755.575 1.003 1.282.64 2.162-.441 1.071-2.022 2.071-3.2 2.054-2.671-.04-4.151-2.375-3.068-4.84q.099-.224.176-.424h-3.535c-.056.961.022 1.859.482 2.732.491.933.124 1.603-.801 1.96-.883.343-1.827.563-2.765.46-1.516-.166-2.332.623-2.923 1.858-.73 1.524-1.453 1.685-2.754.526-.865-.772-1.891-.625-2.889-.693-.278-.018-.526.158-.606.466-.08.305.062.536.284.72.12.098.259.177.398.245 1.977.974 2.344 1.677 2.04 3.933-.167 1.244-.838 1.795-2.035 1.399-1.189-.393-2.047-.143-2.806.787-.194.237-.457.497-.734.571-1.353.363-2.395 1.208-3.479 2.03-.402.304-1.116.71-1.202 1.26-.109.687.76 1.271 1.296 1.511 1.426.637 2.366-.923 3.156-1.869.7-.836 1.083-.54 1.573.23.193.305.441.804.838.888 1.03.218 1.543-.784 1.733-1.587.495-2.099 2.101-3.044 3.929-3.662 1.084-.367 1.685-.959 1.645-2.109-.026-.73.272-1.175.97-1.412.724-.246 1.266-.74 1.734-1.351.426-.557.92-1.073 1.441-1.544 2.003-1.813 4.827-.946 5.476 1.672.144.583.393 1.1.718 1.599 1.292 1.975 1.26 3.442-.097 5.304-.444.608-1.061 1.373-1.006 2.169.059.851.591 1.572 1.101 2.211.798.999 1.129 2.132 1.044 3.4-.017.27.001.557.263.74.925-.325 1.577-1.342 1.449-2.448-.089-.781.071-1.458.409-2.148.331-.678.953-1.045.966-1.845.011-.732.036-1.562-.184-2.272-.164-.536.168-.74.693-.83 1.615-.272 1.482-.467 1.263-2.115-.346-2.575-.899-5.297 1.433-7.431 1.745-1.597 3.632-1.561 5.264.157.786.828 1.705 1.548 1.023 2.91-.136.271-.002.695.055 1.042.172 1.049-.081 1.942-.896 2.655a4.06 4.06 0 0 0-1.364 2.4c-.222 1.194-1.146 1.863-2.134 2.363-1.147.582-1.455 1.33-2.053 2.384-.503.885-.934 1.927-2.052 2.13-1.662.304-2.044 1.16-1.184 2.552.38.614.458 1.189.288 1.893-.279 1.21-.665 2.416-.632 3.69m55.348-4.626c.827.102 1.294.657 1.428 1.433.112.645-.326 1.106-.943 1.054-.824-.07-1.292-.721-1.425-1.481-.102-.584.331-.907.94-1.006m-12.534-3.197c-.734.406-1.896.668-3.184.717-.49.053-.945-.036-1.305-.39-.753-.742-1.482-1.537-1.977-2.479-.365-.695-.597-1.438-.763-2.204-.15-.692-.497-1.312-.403-2.043.176-1.365 1.39-2.319 2.068-3.436.168-.276.523-.46.825-.627.246-.136.539-.131.759.103.215.23.218.51.075.761-.151.27-.365.505-.542.762-.504.734-.309 1.25.51 1.535.256.09.535.16.803.16 1.432-.006 2.634.649 3.485 1.785.422.564.644 1.08.807 1.747.17.698.641 1.282.374 2.03-.256.718-.884 1.22-1.532 1.579m-1.825 9.734c.552-.65 1.104-.524 1.416.262.263.665.403 1.38-.12 1.993-.571.667-1.357.755-2.142.544-.469-.126-.893-.428-1.562-.763 1.087-.63 1.776-1.292 2.408-2.036M171.481 6.95c-.091.755-.632 1.164-1.381 1.158-.591-.004-.948-.389-.914-.987.043-.793.618-1.002 1.289-1.042.566.043 1.085.208 1.006.871M78.415 47.89c.366.025.535-.259.707-.522.81-1.235.386-2.707-1.192-3.958-.69 1.212-.71 2.4-.11 3.847.118.29.218.608.595.633"/><path d="M228.417 47.883c-.082.037-.166.08-.25.118h16.749q.023-.19.044-.381c.125-1.107-.32-1.465-1.378-1.146-.675.204-1.321.498-2.039.546q-.285.019-.554-.009c-1.043-.1-1.905-.686-2.474-1.615-.59-.964-1.473-1.612-2.308-2.323-2.398-2.043-2.334-2.741.342-4.273a5 5 0 0 1 2.347-.656c1.714-.067 2.454-1.457 1.545-2.897-.321-.507-.284-.948-.027-1.43.402-.758.381-1.526-.041-2.25-.599-1.028-.211-1.983.172-2.929.081-.198.245-.34.444-.439v-.003c.379-.185.889-.207 1.23-.12.608.156 1.127.604 1.488 1.104.87 1.203 1.665 1.112 2.924.266.481-.323.794-.77.701-1.389-.097-.65-.499-1.143-1.12-1.212-1.413-.158-2.474-.876-3.464-1.82a2.86 2.86 0 0 0-1.759-.787 3.8 3.8 0 0 0-1.004.046c-.775.136-1.064.458-.982 1.265.168 1.633-.03 1.85-1.637 1.917-.96.04-1.295.57-1.074 1.393.356 1.32.581 2.683 1.244 3.911.752 1.393-.075 3.26-1.641 3.605-1.035.228-1.922.639-2.658 1.397-1.028 1.062-1.146 1.717-.473 3.026.268.52.369 1.051.175 1.59-.357.992.073 1.489.995 1.716 1.228.302 1.994 1.195 2.721 2.134.25.324.4.693.156 1.087a.916.916 0 0 1-1.025.423c-1.416-.352-2.692-1.047-3.931-1.787-.475-.283-.482-.843-.357-1.386.34-1.463-1.066-1.652-1.776-2.315-.598-.56-1.394-.51-2.1-.146-.614.316-.53.805-.125 1.263.518.588 1.073 1.144 1.576 1.747 1.008 1.207.791 2.091-.656 2.759M102.294 36.788c1.227-.04 2.066-.75 2.002-1.685-.035-.512-.278-.795-.808-.798-.853-.006-2.055 1.05-2.056 1.812-.002.593.372.707.862.671m-2.046 8.853c-1.019-.026-2.109 1.181-2.124 2.359h3.943c-.205-.426-.372-.874-.547-1.315-.234-.587-.575-1.026-1.272-1.044M59.22 47.93q-.099.038-.194.07h4.559a2 2 0 0 1-.174-.081c-1.402-.75-2.793-.535-4.19.012m37.171-37.859c.376-.119.924-.187.903-.798-.017-.507-.478-.564-.883-.532-.442.036-.907.16-.92.702-.013.502.4.606.9.628m-7.158 18.363c-.899-.04-2.187.925-2.129 1.69.103 1.339 1.226.719 1.85.925.837-.01 1.815.476 2.081-.757.16-.731-.95-1.82-1.802-1.858"/><path d="M35.445 3.023c.932 1.125 1.493 2.38 1.687 3.819.128.956.83 1.269 1.576 1.786 1.218.845 2.711 1.058 3.836 1.98.776.637 1.15 1.471.916 2.51-.084.376-.215.807.223 1.057.367.21.669-.064.974-.232.069-.037.136-.08.203-.117 2.152-1.198 2.074-1.35 3.791.609.607.692 1.402 1.118 2.135 1.641.69.493 1.292 1.109 1.92 1.661 1.498-1.05 1.995-2.973 1.219-4.856-.28-.675-.414-1.253.128-1.841.583-.632 1.158-.218 1.72.004.876.346 1.74.7 2.675.879 2.127.409 3.935 2.474 3.489 4.7-.29 1.44.254 2.8 1.913 2.328 1.64-.465 1.988-.322 2.713 1.237.626 1.346.968 2.818 1.91 4.024.297.381.144.832-.222 1.157-.354.315-.731.252-1.072-.011a4.6 4.6 0 0 0-1.907-.879c-.71-.145-1.334.03-1.77.64-.298.415-.423 1.155-.033 1.263 1.169.328 1.747 1.687 3.106 1.625 1.094-.05 2.085.31 2.925 1.036.755.655 1.61.763 2.532.444 1.83-.633 3.153.445 4.493 1.37.458.316.611.925.552 1.493-.188 1.796-.481 3.525-2.573 4.182-.692.218-.956.804-.728 1.515.228.708.473 1.415.778 2.092.345.77.183 1.342-.466 1.855-.497.393-1.009.745-1.59.994-1.38.59-1.975.397-2.724-.879-.08-.136-.14-.283-.23-.41-.394-.57-.69-1.357-1.521-1.29-.593.05-.62.745-.776 1.206-.28.824-.096 1.56.618 2.097.578.435 1.286.57 1.969.746 1.237.318 2.237 1.024 3.28 1.806-.597.81-1.322.587-1.978.471-.632-.11-1.265-.241-1.837.089-1.304.75-2.77.867-4.19 1.172h9.812a1.1 1.1 0 0 1-.145-.262c-.169-.471-.15-.892.088-1.35.65-1.248.945-2.57.564-3.963-.194-.712.017-1.21.623-1.6.578-.374 1.131-.531 1.71-.008.552.5.98.256 1.385-.231 1.558-1.875 3.83-2.962 5.346-4.913.662-.85 1.717-.71 2.622.071.652.562 1.27 1.162 1.89 1.76 1.953 1.88 1.282 5.051-1.25 5.968-.366.131-.744.286-1.045.521-1.175.925-2.425 1.564-3.987 1.384-.389-.045-.814.063-.948.524-.124.425.218.626.494.844.447.35 1.064.648 1.033 1.255h1.17a1 1 0 0 1 .067-.086c.407-.422.818-.884 1.476-.85.357.018.538.301.594.636q.024.15.029.298h3.882c-.142-.747-.482-1.389-1.181-1.913-.458-.344-.244-1.623.254-1.89.708-.38.992.142 1.222.67.163.374.302.786.819.617.474-.155.717-.585.572-1.029-.601-1.851.172-3.562.486-5.314.237-1.324.53-1.465 1.74-.984.524.208 1.074.206 1.608.31.496.097 1.119.13 1.438.443 1.376 1.344 3.498 1.55 4.689 3.17.406.554 1.072.63 1.716.355.506-.216.84-.596.814-1.178-.035-.74-.526-1.125-1.173-1.298-1.318-.353-2.11-1.205-3.073-2.19-1.489-1.521-2.968-3.354-5.249-3.967-.634-.17-1.082-.03-1.402.513-.217.372-.365.782-.582 1.155-.512.883-1.08 1.02-1.785.327a5.96 5.96 0 0 0-2.278-1.4c-.836-.291-1.521-.803-1.933-1.624-.223-.443-.54-.932-1.071-.623-1.194.696-2.44.765-3.749.587-.095-.013-.207.093-.292.135-.207.365.026.621.182.881.435.727.43 1.438-.163 2.052-.606.628-1.379.921-2.249.732-.731-.16-.957-.79-.728-1.375.6-1.543.597-3.097.347-4.685-.018-.111-.01-.257.049-.346 1.043-1.569.659-3.401.943-5.11.106-.634.368-1.019 1.035-1.048 1.17-.052 2.086-.664 2.896-1.414.628-.58 1.326-.894 2.138-.736 1.558.3 2.926-.364 4.353-.739.575-.151.92-.51 1.06-1.084.112-.458.199-1.163.508-1.539.386-.468 1.024-.33 1.57-.167 1.092.325 2.153-.74 1.92-1.951-.182-.944-.757-1.628-1.556-2.12-.661-.408-.93-.941-.966-1.74-.06-1.287-.337-2.557-.306-3.86.017-.745-.37-1.255-1.123-1.456-.39-.104-.72-.318-.94-.666-.238-.379-.24-.759.129-1.05.43-.343.885-.306 1.275.073.388.378.7.922 1.361.702.649-.214 1.525-.176 1.772-.965.241-.775-.513-1.16-.967-1.613-.328-.33-.704-.648-1.117-.851-1.265-.623-2.506-1.236-2.794-2.801h-.893c-.383 1.279-1.183 2.312-1.896 3.405-.46.706-.139 1.257.739 1.436.49.1 1.13.216 1.026.89-.097.625-.72.557-1.23.642-1.41.233-2.792.136-4.188-.107-.937-.163-2.051.75-2.191 1.701s.585 1.485 1.602 1.164c.593-.188 1.212-.879 1.726-.599 1.259.684 2.452.798 3.841.499.62-.133.88.712.906 1.308.061 1.39.605 2.45 1.752 3.283.866.63.834 1.758-.035 2.401-.637.472-.997 1.068-1.297 1.765-.456 1.052-1.209 1.566-2.355 1.643-1.354.09-2.14-1.009-2.053-2.246.039-.56.175-1.116.501-1.552.974-1.302.674-2.76.601-4.196-.02-.391-.21-.68-.61-.76-.458-.09-.858.064-1.169.405-.558.613-.7 1.392-.803 2.172-.117.882-.382 1.675-1.073 2.288-.813.722-.712 2.084-.593 3.055.158 1.295.027 2.228-1.058 3.133-.84.701-1.331.674-1.843-.286-.276-.516-.432-1.104-.94-1.466-.38-.268-.791-.385-1.197-.088-.376.275-.417.719-.219 1.064 1.156 2.013.08 3.827-.536 5.636-.555 1.63-2.402 2.002-3.743.885-.24-.2-.436-.451-.655-.675-1.651-1.7-1.679-2.22-.21-4.143.358-.467.752-.911.939-1.485.138-.426.194-.858-.17-1.206-.349-.334-.784-.349-1.212-.214-.257.08-.501.22-.733.364-.878.547-1.476 1.003-2.14.017-.702-1.042-1.074-1.996-1.13-3.253-.04-.92.087-1.838.198-2.749.129-1.055 1.332-1.75 2.71-1.857.837-.065 1.63.233 2.45.247.49.009 1.114.146 1.32-.478.177-.534-.293-.86-.663-1.14-.978-.742-1.756-1.813-3.184-1.827-.47-.005-.761-.428-.647-.94.162-.722.484-1.368 1.322-1.458.936-.1 1.756.236 2.172 1.094.749 1.542 1.89 2.571 3.53 3.051a.5.5 0 0 1 .108.05c.797.462 1.734 1.038 1.626 1.975-.115.984-1.243 1.218-2.103 1.406-1.996.437-2.074.467-2.064 2.483.004.759-.87 2.684.371 2.857 1.213.17 1.133-1.121 1.245-1.909.19-1.337 1.18-1.96 2.458-1.56 1.227.385 1.93.064 1.88-1.171-.08-1.902.22-3.966-1.384-5.508-.282-.27-.525-.688-.857-.78-2.365-.648-3.479-2.823-5.215-4.228-1.26-1.02-1.192-1.74-.141-2.997.535-.64 1.113-1.122 1.72-1.443H44.779c.206.526.723.766 1.233.959.916.345 1.843.666 2.753 1.024.629.247 1.142.081 1.628-.33.779-.664 1.58-.6 2.367-.027.81.591 1.82.935 2.29 1.953.203.442.697.468 1.138.452a3.3 3.3 0 0 1 2.19.711c1.075.827 2.293 1.18 3.636 1.088.923-.063 1.604.243 1.97 1.138q.471 1.14 1.61.633c.634-.283 1.285-.307 1.955-.117 1.555.44 1.887 1.179 1.07 2.58-.549.943-.891 2.02-1.754 2.766-.454.393-.935.71-1.575.751a2.6 2.6 0 0 1-2.14-1.263c-1.735-2.849-4.474-3.89-7.546-4.395a4.1 4.1 0 0 1-1.828-.762c-.729-.542-1.396-.35-1.79.369-.544 1-.917 2.098-.421 3.24.282.649.303 1.214-.203 1.729-.516.524-1.13.511-1.732.188-2.181-1.173-4.174-2.613-6.013-4.267-.72-.649-1.176-1.46-1.258-2.452-.094-1.113-.698-1.558-1.812-1.496-1.683.094-1.92-.098-2.314-1.78-.194-.827-.497-1.566-1.145-2.137a1.6 1.6 0 0 1-.423-.556H33.79c.304.42.567.874.757 1.383.217.593.506 1.18.898 1.653m28.49 1.052c-.765-.618-1.557-.614-2.436-.443-.717.139-1.468.303-2.05-.518.706-.763 1.534-1.186 2.507-.891.914.277 1.68.086 2.481-.305.704-.344 1.42-.67 2.158-.932 1.21-.433 2.397-.352 3.483.393.828.568 1.397 1.266 1.07 2.371-.309 1.037-.884 1.613-2.057 1.756-1.956.243-3.66-.217-5.157-1.43"/><path d="M91.496 26.648c.196-.422.117-.855-.136-1.23-.58-.855-1.451-1.138-2.43-1.18-.698.049-1.397.162-1.543.977-.142.784.496 1.075 1.082 1.325.612.26 1.23.517 1.908.545.434.019.896.043 1.119-.437M95.902 0H94.17l.275.075c.977.275 1.279.36 1.458-.075M46.959 6.707c.617.023 1.075-.322 1.04-.984-.046-.874-.641-1.26-1.435-1.379-.68.06-1.196.336-1.127 1.062.083.865.71 1.27 1.522 1.301m149.45 11.902c.037.657.107 1.296.231 1.264 1.059-.267 1.546-1.283 1.846-2.273.218-.724.023-1.383-.811-1.534-.841-.151-1.234.428-1.298 1.164-.009.092-.004.746.032 1.379m8.709 7.799c.03-.659-1.381-1.786-2.24-1.776-.824.01-1.352.354-1.349 1.353.309.707-.228 1.951 1.138 2.185.682.119 2.425-1.198 2.451-1.762m-24.147-4.88c-.705.166-1.35.499-1.517 1.266-.088.405.322.454.691.467.682-.123 1.351-.341 1.43-1.217.034-.376-.24-.603-.604-.516M126.767 47.07c-.26.27-.518.593-.641.931h1.899a7 7 0 0 1-.324-.703c-.173-.449-.572-.6-.934-.227m81.078-6.414c.056.824.66 1.082 1.388 1.146.622-.078 1.282-.257 1.255-.977-.035-.903-.817-1.197-1.583-1.266-.713-.064-1.109.396-1.06 1.097m140.969 1.672c-.445.165-.944.26-1.205.68-.99 1.586-2.234 3.033-2.752 4.884l-.033.107h3.314c.277-.59.495-1.22.66-1.905.646-2.698 2.534-3.221 4.824-1.601.129.091.25.19.38.277.659.441 1.268.288 1.834-.177.609-.499.497-1.078.181-1.691-.634-1.227-1.374-1.558-2.807-1.243-.552.121-1.481.366-1.221-.532.325-1.116-.211-1.587-.842-2.18-.551-.515-1.003-1.108-1.227-1.84-.239-.778-.172-1.528.586-1.97 1.087-.635 1.031-1.454.528-2.4-.221-.414-.463-.819-.687-1.234-.685-1.271-.44-2.22.761-3.026.615-.413 1.305-.48 2.02-.512 1.458-.065 1.86-.553 1.766-2.419-1.428.848-2.786.8-4.179.343-.292-.097-.736.004-1.015.173-1.214.734-2.493.798-3.862.622-1.169-.15-1.617.543-1.018 1.595.543.952.553 1.817.089 2.786-.54 1.13.072 1.923 1.324 1.755.423-.056.827-.263 1.25-.32.906-.125 1.377.44 1.652 1.194.266.731-.207 1.06-.783 1.349a5.5 5.5 0 0 0-1.174.764c-1.183 1.044-1.127 1.545.172 2.441.676.467 1.506.68 2.084 1.307.991 1.07.734 2.272-.62 2.773m-199.717 5.636-.128.036h1.111c-.256-.128-.58-.145-.983-.036M58.552 36.658c-.073-.733-.712-.877-1.328-.864-.521.011-1.124.127-1.037.82.088.704.724.842 1.33.917.543-.071 1.103-.214 1.035-.873m22.326-8.775c.063.833.686 1.146 1.316 1.254.992-.01 2.073-1.023 2.076-1.87.003-.8-.45-1.23-1.227-1.262-.747-.03-2.216 1.214-2.165 1.878M18.532 46.361c-.756.01-1.633.88-1.695 1.639h2.475c.091-.279.14-.593.129-.93-.016-.326-.259-.718-.91-.709m14.191.269c-.747.11-.912.669-.851 1.312.001.02.007.04.009.06h2.477c-.333-.804-1.042-1.46-1.635-1.372m-1.504-7.718c-.555-.049-.558.454-.655.813-.25.914-.828 1.584-1.539 2.169-1.899 1.56-2.662 3.846-3.68 5.941q-.039.082-.07.165h2.597c-.132-.752.159-1.544.863-2.356.52-.598 1.131-1.072 1.765-1.539 1.431-1.052 2.04-2.92 1.467-4.369-.144-.365-.296-.785-.748-.824M15.205 24.807c-.555.02-.832.405-.78.947.046.485.358.751.865.777.503-.084.727-.415.704-.899-.025-.482-.282-.844-.79-.825M3.971 47.618c.125-1.107-.32-1.465-1.378-1.146-.675.204-1.321.499-2.04.547q-.284.018-.553-.01v.992h3.927zM1.23 28.073c.608.156 1.127.604 1.488 1.104.87 1.203 1.665 1.112 2.924.266.481-.323.793-.77.701-1.389-.097-.65-.499-1.143-1.12-1.212-1.413-.158-2.474-.876-3.464-1.82A2.85 2.85 0 0 0 0 24.235v3.96c.379-.187.889-.21 1.23-.122m.533 13.57c.045-.685-.575-.723-1.02-.875-.286-.02-.56-.01-.743.117v1.05c.192.205.493.303.812.338.466.053.916-.107.951-.63"/><path d="M6.362 21.073c.58-.57 1.214-.896 2-.44.795.461 1.28 1.213.961 2.07-.659 1.765-.06 3.486-.026 5.221.02.996.484 1.73 1.552 1.927.883.163 1.458.714 1.876 1.471.965 1.753 2.28 3.174 4.002 4.213.776.468.774.974.097 1.574-1.04.919-2.03 1.785-3.502.72-.463-.334-1.062-.255-1.53.164-.316.285-.472.652-.311 1.06.23.585.669.982 1.309 1.043.424.04.866-.087 1.286-.033.646.082 1.096.467 1.133 1.15.036.648-.452.862-.982.969-.422.086-.853.193-1.277.184-.953-.02-1.745.282-2.472.904-.784.67-1.486.43-1.693-.583-.163-.8-.328-1.662.045-2.432.415-.857.203-1.567-.21-2.333-.937-1.74-.89-1.97.606-3.136.765-.595 1.226-1.23.603-2.19-.623-.957-1.302-1.099-2.408-.43-.902.547-1.721 1.239-2.91.98-.438-.095-.753.236-.792.687-.087 1.021-.605 1.85-1.122 2.686a2 2 0 0 0-.11.208c-.367.756-.494 1.525.137 2.19.654.686 1.36.348 2.047-.003 1.244-.636 1.19-.608 1.698.682.477 1.208.004 2.229-.422 3.278-.763 1.877-.647 2.37.879 3.658.56.472 1.12.946 1.628 1.47h2.002c-.387-.306-.68-.752-.84-1.324-.227-.813-.124-1.615.49-2.184.557-.516 1.187-.035 1.762.157.257.086.49.246.73.378 1.12.614 1.374.526 1.696-.73.27-1.054.896-1.616 1.979-1.68.626-.037 1.254-.134 1.877-.11 1.194.047 1.924.71 1.986 1.888.042.782.283 1.341.971 1.737.552.317.724.883.843 1.483.026.133.063.267.115.387h1.188c.071-.22.003-.497-.086-.758-.645-1.884-.422-2.508 1.35-3.478.786-.429 1.185-1.008 1.043-1.901-.081-.51-.223-1.03-.749-1.258-.552-.24-.889.184-1.19.53-.726.836-1.496.778-2.421.319-1.53-.76-2.301-1.951-2.353-3.637.011-1.007.497-1.465 1.503-1.234 1.175.27 2.412.354 3.465 1.057.577.384 1.19.333 1.781-.016.594-.352 1.24-.538 1.918-.42 1.351.236 2.675.535 4.033-.056.497-.217.982.097 1.308.56.483.686.91 1.433.915 2.264.017 2.198 1.425 3.477 2.953 4.688.552.438 1.159.798 1.546 1.421.26.42.63.565 1.103.286.436-.259.832-.217 1.112.24.313.509.106.9-.33 1.206q-.126.087-.233.187h2.491c.343-.761 1.048-1.383 1.843-1.815.757-.41 1.166-.952 1.234-1.84.064-.822.428-1.586.782-2.332.451-.947 1.178-1.424 2.265-1.317.861.084 1.886.242 2.206-.812.337-1.104-.806-1.363-1.44-1.876-.275-.221-.655-.493-.966-.3-1.508.937-1.873-.635-2.743-1.165.902.2 1.706.258 2.524-.3.777-.53 1.334-1.066 1.157-2.092-.076-.442.149-.84.353-1.223.206-.387.409-.812.282-1.236-.295-.975-.709-1.909.128-2.854.204-.23-.029-.601-.271-.828-.356-.33-.791-.399-1.2-.183-.656.345-1.298.728-1.908 1.15-.484.335-.487.868-.362 1.389.173.724.384 1.44.555 2.165.156.66.041 1.247-.558 1.665-.602.419-1.255.568-1.859.102-1.43-1.098-2.796-1.286-4.23.006-.383.345-.997.483-1.38-.006-.396-.503.134-.838.422-1.19.312-.382.866-.768.496-1.3-.321-.46-.867-.078-1.317-.023-1.783.218-3.564.354-5.234 1.185-.801.399-1.504-.207-1.97-.899-.532-.79-.442-1.585.2-2.259.814-.854 1.613-1.712 2.209-2.74.376-.647.83-1.303.386-2.075-.315-.547-.898-.575-1.463-.534-.94.071-1.295.736-1.58 1.518-.676 1.854-.671 3.852-1.236 5.732-.2.663.183 1.289.504 1.887.462.86.2 1.328-.75 1.42-1.587.151-2.221-.5-1.967-2.054.134-.823-.24-1.471-.71-2.047-.919-1.127-1.043-2.318-.487-3.629.505-1.188.444-2.235-.568-3.214-.766-.741-.558-1.133.506-1.35 1.315-.267 2.39-.974 3.216-2.009 1.07-1.343 2.144-1.58 3.662-.695.574.334 1.09.798 1.773.89.914.123.976-.4.796-1.151-.144-.609-.212-1.564-.868-1.831-.908-.37-1.938-.58-2.869-.941-1.367-.532-2.383-.256-3.308.873-.848 1.037-2.133 1.779-2.827 2.908-.32.521-.933.528-1.484.248-.246-.126-.48-.298-.484-.614-.003-.283.218-.396.442-.48.624-.234 1.224-.75 1.085-1.489-.156-.829-1.118-.806-1.794-.781-1.51.056-2.092-.41-1.99-1.892.118-1.732.15-3.378-.944-4.873-.256-.35-.249-.896-.344-1.356-.152-.74.03-1.33.797-1.616.75-.279 1.413-.131 1.888.518.527.718.74 1.526.646 2.44-.133 1.285.347 1.683 1.555 1.395 3.113-.743 6.232-1.454 9.39-1.984 1.501-.251 2.303-.916 1.992-1.66-.492-1.181-1.556-.613-2.37-.52-1.001.116-1.919.673-2.965.684-.724.009-1.167-.244-1.379-.984-.31-1.08-.97-1.24-1.908-.529-1.6 1.214-3.16 1.214-4.399-.357-1.328-1.684-2.759-3.31-3.851-5.175-.334-.571-.537-1.15-.593-1.745h-2.204c.015.333.019.667.022 1.003.017 2.407-.769 3.349-3.691 4.015-1.52.347-3.104.432-4.665.585-.8.078-1.253.366-1.162 1.246.037.36-.025.747-.45.854-.43.11-.6-.268-.816-.54-.364-.455-.46-.915-.344-1.523.212-1.12.361-2.287-.976-2.947-.215-.107-.377-.4-.477-.643-.135-.333-.18-.722.21-.934.338-.183.606.05.822.279.158.166.29.373.386.582.598 1.291.91 1.337 1.983.359.8-.743 1.59-1.497 2.266-2.34H4.996l-.014.016C4.609.458 4.26.4 3.896.02L3.876 0H0v.899a4.9 4.9 0 0 1 1.556.31c.81.311.86 1.037.644 1.79-.201.702.004 1.295.429 1.867 1.024 1.385.983 1.64-.266 2.862-.292.286-.733.487-.723 1.163 1.187-.023 1.935.627 2.557 1.633.468.759 1.841.838 2.507.009 1.804-2.243 4.14-2.506 6.757-2.396 1.755.073 2.968.696 3.337 2.402.326 1.505.94 2.728 2.098 3.81 1.095 1.02 1.506 2.339.593 3.625-.765 1.075-1.768 1.574-2.024 3.006-.073.412-.021.804.393 1.015.392.2.766.108 1.084-.184.26-.238.494-.506.76-.737.48-.418 1-.543 1.41.054.377.549.355 1.11-.23 1.55a1.2 1.2 0 0 1-.204.117c-.613.295-1.474.382-1.384 1.343.095 1.004.504 1.895 1.323 2.534.314.244.694.414 1.094.209.406-.207.29-.593.255-.94-.009-.077-.025-.155-.028-.233-.02-.63-.097-1.292.583-1.661.307-.166.633-.074.852.19.463.551.473 1.273.12 1.767-.98 1.37-.406 2.296.672 3.184.545.45.614 1.053.474 1.715-.241 1.135-.656 2.268.101 3.558-1.899.081-3.626.422-4.99-1.032-1.639-1.746-3.627-2.962-5.77-3.981-1.939-.922-2.984-3.777-2.102-5.738.379-.84.218-1.575-.117-2.369-.536-1.264-.305-1.617 1.05-1.735 1.014-.088 2.036-.112 3.044-.24.588-.075 1.077-.335 1.263-.947.226-.737-.423-1.316-.95-1.734-.5-.396-1.037-.564-1.62-.17-.49.328-.959.683-1.459.992-1.055.655-2.058.113-2.1-1.136-.027-.83.315-1.513.908-2.092.45-.443.967-.934.529-1.625-.434-.683-1.133-.617-1.798-.387-.922.32-1.824.42-2.747.001-.37-.167-.782-.216-1.051.197-.247.379-.137.782.106 1.101.257.337.563.664.911.898.878.59 1.463 1.326 1.311 2.436-.159 1.168-1.772 1.95-2.783 2.106-1.187.182-2.427.012-3.59-.237-.609-.13-.9-.585-1.142-1.147-.417-.976-.824-2.684-.34-3.696.427-.892-.114-2.223-.697-2.92-.181-.209-.383-.401-.606-.5V21.71c1.158.658 3.175.379 4.252.507.842.102 1.514-.562 2.11-1.144m36.386 15.38c1.342.562 1.805 1.358 1.8 3.76-.08 1.15-.706 2.344-1.78 3.28-.766.667-2.038.644-2.797-.15-.953-.997-2.066-1.799-3.055-2.747-.76-.728-.822-1.564-.133-2.29 1.461-1.541 3.541-2.868 5.965-1.853m-7.832-2.068c.639.018 1.492.04 1.455.94-.037.937-.854 1.187-1.644 1.3-.59-.033-1.201-.103-1.175-.834.027-.815.456-1.432 1.364-1.406M19.645 5.855c-.107.714-.931 2.008-1.772 2.735-.885-1.062-.963-2.907-.208-3.864.33-.42.769-.535 1.247-.31.6.281.83.782.733 1.439M73.003 32.64c-.025-.334-.263-.766-.961-.769-.91-.003-2.19 1.13-2.182 1.953.007.774.45 1.111 1.195 1.11 1.152-.002 1.981-.853 1.948-2.294m-3.645 5.077c-.037-.824-.613-1.091-1.334-1.195-.82.06-1.448.415-1.498 1.3-.045.77.36 1.368 1.144 1.53.646.136 1.72-.934 1.688-1.635m16.311 2.691c-.01-.618-.405-.916-.999-.892-.54.022-.88.34-.896.89-.019.608.324.927.997.975.497-.09.906-.358.898-.973M44.994 16.736c.027.79.621 1.09 1.36 1.205.62-.05 1.144-.298 1.15-1.016.007-.841-.607-1.109-1.325-1.139-.642-.026-1.212.2-1.186.95M241.8 42.276c.465.05.916-.11.951-.634.045-.684-.575-.722-1.021-.874-.286-.02-.56-.01-.742.117v-.007c-.148.104-.235.279-.209.535a.9.9 0 0 0 .209.511v.013c.192.204.492.304.812.339M55.853 31.072c2.169.03 3.611 1.652 5.233 2.794.543.383.468 6.03.032 6.607-.674.895-1.102 1.885-1.43 2.938-.206.66-.532 1.194-1.332 1.31-.47.068-.86.348-.737.935.49.269.81.019 1.088-.256a1.67 1.67 0 0 1 1.379-.511c.669.05 1.237-.203 1.688-.68q1.253-1.32 2.462-2.68c.39-.442.575-1.025.262-1.528-.639-1.025-.519-2.18-.746-3.275-.32-1.544.088-2.701 1.388-3.553.768-.504.966-1.192.712-2.039-.192-.637-.403-1.269-.608-1.903-.132-.405-.372-.707-.83-.708-.68-.005-1.198-.253-1.585-.828-.272-.404-.727-.445-1.167-.392-1.355.166-2.73.234-3.922 1.064-.857.597-1.83.641-2.818.334-.938-.292-1.854-.258-2.747.163-.366.172-.785.399-.76.815.069 1.24-.183 2.464-.275 3.758.892-.026 1.306-.593 1.783-1.02.844-.754 1.826-1.36 2.93-1.345"/><path d="M57.604 48c-.362-.218-.59-.67-.687-1.372-.096-.679-.595-.98-.976-1.407-.848-.954-.802-1.441.214-2.17.972-.696 1.029-1.482.166-2.334-.974-.963-2.211-1.156-3.068-.476-1.178.932-1.599 2.539-.953 3.656.294.509.654.987.885 1.522.42.967.38 1.83-.088 2.58zm61.307-6.907c-.816.119-1.1.953-1.107 1.727-.006.603.363 1.12.999 1.091.886-.04 1.043-.799 1.198-1.517-.189-.598-.345-1.41-1.09-1.3m234.359-3.779c-.318.48-.519 1.077-.126 1.54.552.651 1.397 1.072 2.204.773 1.422-.53 2.88-.627 4.348-.849q.154-.023.305-.057v-3.235c-.455.354-.906.723-1.334 1.13-.515.492-1.159.64-1.859.448a74 74 0 0 1-1.472-.419c-.844-.25-1.565-.092-2.066.67m-15.89-27.244c.375-.119.923-.187.903-.798-.017-.507-.478-.564-.883-.532-.442.036-.908.16-.921.702-.013.502.401.606.901.628"/><path d="M276.433 3.023c.932 1.125 1.492 2.38 1.688 3.819.128.956.831 1.269 1.576 1.786 1.219.845 2.711 1.058 3.836 1.98.776.637 1.15 1.471.916 2.51-.084.376-.215.807.223 1.057.367.21.669-.064.974-.232.069-.037.136-.08.203-.117 2.152-1.198 2.074-1.35 3.791.609.607.692 1.402 1.118 2.135 1.641.689.493 1.292 1.109 1.92 1.661 1.498-1.05 1.995-2.973 1.219-4.856-.279-.675-.414-1.253.128-1.841.583-.632 1.158-.218 1.72.004.876.346 1.74.7 2.675.879 2.128.409 3.936 2.474 3.489 4.7-.289 1.44.254 2.8 1.913 2.328 1.641-.465 1.988-.322 2.713 1.237.626 1.346.968 2.818 1.909 4.024.298.381.145.832-.221 1.157-.354.315-.731.252-1.072-.011a4.6 4.6 0 0 0-1.907-.879c-.709-.145-1.333.03-1.77.64-.298.415-.423 1.155-.033 1.263 1.169.328 1.747 1.687 3.106 1.625 1.094-.05 2.085.31 2.925 1.036.756.655 1.61.763 2.532.444 1.829-.633 3.153.445 4.493 1.37.459.316.611.925.552 1.493-.188 1.796-.481 3.525-2.573 4.182-.692.218-.956.804-.728 1.515.228.708.473 1.415.778 2.092.345.77.183 1.342-.466 1.855-.497.393-1.009.745-1.59.994-1.38.59-1.975.397-2.724-.879-.079-.136-.14-.283-.23-.41-.394-.57-.69-1.357-1.521-1.29-.593.05-.62.745-.776 1.206-.279.824-.096 1.56.618 2.097.578.435 1.286.57 1.969.746 1.237.318 2.237 1.024 3.28 1.806-.597.81-1.322.587-1.978.471-.632-.11-1.265-.241-1.837.089-1.304.75-2.771.867-4.19 1.172h9.812a1.1 1.1 0 0 1-.145-.262c-.169-.471-.15-.892.088-1.35.651-1.248.945-2.57.564-3.963-.194-.712.017-1.21.623-1.6.578-.374 1.131-.531 1.709-.008.553.5.98.256 1.385-.231 1.558-1.875 3.83-2.962 5.346-4.913.662-.85 1.717-.71 2.621.071.652.562 1.271 1.162 1.891 1.76 1.952 1.88 1.282 5.051-1.25 5.968-.366.131-.745.286-1.045.521-1.175.925-2.425 1.564-3.988 1.384-.388-.045-.813.063-.948.524-.124.425.219.626.495.844.446.35 1.063.648 1.033 1.255h1.169a1 1 0 0 1 .068-.086c.406-.422.818-.884 1.476-.85.356.018.537.301.594.636q.024.15.028.298h3.882c-.141-.747-.481-1.389-1.181-1.913-.458-.344-.244-1.623.255-1.89.708-.38.991.142 1.221.67.163.374.302.786.819.617.474-.155.717-.585.573-1.029-.601-1.851.172-3.562.485-5.314.237-1.324.531-1.465 1.74-.984.525.208 1.074.206 1.609.31.496.097 1.118.13 1.438.443 1.376 1.344 3.497 1.55 4.688 3.17.406.554 1.072.63 1.717.355.506-.216.84-.596.814-1.178-.035-.74-.526-1.125-1.174-1.298-1.318-.353-2.11-1.205-3.072-2.19-1.489-1.521-2.969-3.354-5.249-3.967-.635-.17-1.083-.03-1.402.513-.217.372-.366.782-.581 1.155-.512.883-1.08 1.02-1.785.327a5.95 5.95 0 0 0-2.278-1.4c-.836-.291-1.521-.803-1.933-1.624-.223-.443-.539-.932-1.071-.623-1.194.696-2.44.765-3.749.587-.095-.013-.207.093-.292.135-.207.365.026.621.182.881.435.727.429 1.438-.163 2.052-.606.628-1.379.921-2.249.732-.731-.16-.957-.79-.728-1.375.601-1.543.597-3.097.347-4.685-.018-.111-.011-.257.049-.346 1.043-1.569.659-3.401.943-5.11.106-.634.368-1.019 1.035-1.048 1.171-.052 2.086-.664 2.896-1.414.628-.58 1.326-.894 2.138-.736 1.558.3 2.926-.364 4.353-.739.575-.151.92-.51 1.061-1.084.111-.458.198-1.163.507-1.539.386-.468 1.024-.33 1.569-.167 1.093.325 2.154-.74 1.921-1.951-.182-.944-.757-1.628-1.557-2.12-.66-.408-.929-.941-.965-1.74-.059-1.287-.337-2.557-.306-3.86.017-.745-.37-1.255-1.123-1.456-.39-.104-.72-.318-.94-.666-.238-.379-.239-.759.129-1.05.431-.343.884-.306 1.275.073.388.378.699.922 1.361.702.649-.214 1.525-.176 1.772-.965.241-.775-.513-1.16-.967-1.613-.328-.33-.704-.648-1.117-.851-1.265-.623-2.506-1.236-2.794-2.801h-.893c-.383 1.279-1.183 2.312-1.896 3.405-.461.706-.139 1.257.739 1.436.49.1 1.13.216 1.026.89-.097.625-.72.557-1.23.642-1.409.233-2.792.136-4.188-.107-.937-.163-2.051.75-2.191 1.701s.585 1.485 1.602 1.164c.593-.188 1.212-.879 1.726-.599 1.259.684 2.453.798 3.841.499.62-.133.88.712.906 1.308.061 1.39.605 2.45 1.752 3.283.866.63.834 1.758-.035 2.401-.637.472-.997 1.068-1.297 1.765-.456 1.052-1.209 1.566-2.355 1.643-1.354.09-2.14-1.009-2.055-2.246.039-.56.175-1.116.502-1.552.974-1.302.673-2.76.601-4.196-.02-.391-.21-.68-.61-.76-.458-.09-.858.064-1.169.405-.558.613-.701 1.392-.804 2.172-.117.882-.381 1.675-1.072 2.288-.814.722-.712 2.084-.594 3.055.159 1.295.028 2.228-1.058 3.133-.839.701-1.331.674-1.842-.286-.276-.516-.433-1.104-.941-1.466-.379-.268-.791-.385-1.197-.088-.376.275-.416.719-.218 1.064 1.156 2.013.079 3.827-.536 5.636-.555 1.63-2.402 2.002-3.743.885-.24-.2-.437-.451-.655-.675-1.652-1.7-1.679-2.22-.21-4.143.357-.467.752-.911.938-1.485.139-.426.194-.858-.17-1.206-.348-.334-.783-.349-1.213-.214-.257.08-.501.22-.732.364-.879.547-1.477 1.003-2.141.017-.702-1.042-1.074-1.996-1.13-3.253-.04-.92.087-1.838.198-2.749.129-1.055 1.333-1.75 2.71-1.857.837-.065 1.63.233 2.451.247.488.009 1.113.146 1.319-.478.177-.534-.293-.86-.663-1.14-.978-.742-1.756-1.813-3.184-1.827-.469-.005-.761-.428-.647-.94.162-.722.484-1.368 1.322-1.458.937-.1 1.756.236 2.172 1.094.749 1.542 1.889 2.571 3.531 3.051.038.01.072.03.107.05.798.462 1.734 1.038 1.626 1.975-.114.984-1.243 1.218-2.103 1.406-1.996.437-2.074.467-2.064 2.483.005.759-.87 2.684.372 2.857 1.212.17 1.133-1.121 1.244-1.909.189-1.337 1.181-1.96 2.458-1.56 1.227.385 1.931.064 1.88-1.171-.079-1.902.22-3.966-1.384-5.508-.282-.27-.525-.688-.857-.78-2.363-.648-3.479-2.823-5.214-4.228-1.261-1.02-1.193-1.74-.142-2.997.535-.64 1.113-1.122 1.72-1.443h-30.27c.205.526.723.766 1.233.959.916.345 1.843.666 2.753 1.024.629.247 1.142.081 1.627-.33.779-.664 1.581-.6 2.367-.027.81.591 1.82.935 2.29 1.953.203.442.698.468 1.139.452a3.3 3.3 0 0 1 2.19.711c1.074.827 2.293 1.18 3.635 1.088.924-.063 1.604.243 1.971 1.138q.471 1.14 1.61.633c.633-.283 1.285-.307 1.954-.117 1.555.44 1.888 1.179 1.071 2.58-.549.943-.892 2.02-1.754 2.766-.454.393-.935.71-1.576.751a2.6 2.6 0 0 1-2.14-1.263c-1.734-2.849-4.473-3.89-7.545-4.395a4.14 4.14 0 0 1-1.829-.762c-.728-.542-1.396-.35-1.789.369-.545 1-.917 2.098-.422 3.24.282.649.304 1.214-.202 1.729-.516.524-1.13.511-1.733.188-2.181-1.173-4.174-2.613-6.012-4.267-.721-.649-1.176-1.46-1.259-2.452-.094-1.113-.698-1.558-1.812-1.496-1.682.094-1.919-.098-2.314-1.78-.193-.827-.497-1.566-1.144-2.137a1.6 1.6 0 0 1-.424-.556h-2.874c.303.42.566.874.757 1.383.217.593.506 1.18.898 1.653m28.489 1.052c-.765-.618-1.557-.614-2.435-.443-.717.139-1.469.303-2.051-.518.707-.763 1.535-1.186 2.507-.891.915.277 1.681.086 2.482-.305.704-.344 1.42-.67 2.157-.932 1.211-.433 2.398-.352 3.483.393.828.568 1.398 1.266 1.07 2.371-.308 1.037-.883 1.613-2.057 1.756-1.955.243-3.659-.217-5.156-1.43m51.099 29.4c.802.15 1.61.22 2.385.529.379.15.827.062.79-.52-.037-.61-2.322-2.446-3.1-2.423-.579.048-.92.474-.991 1.127-.077.685.247 1.162.916 1.287M300.208 47.93q-.1.038-.194.07h4.558a2 2 0 0 1-.173-.081c-1.402-.75-2.794-.535-4.191.012"/><path d="M343.282 36.788c1.227-.04 2.065-.75 2.002-1.685-.035-.512-.278-.795-.808-.798-.853-.006-2.055 1.05-2.057 1.812-.001.593.373.707.863.671m15.511 6.032c-.006.603.363 1.12.999 1.091q.111-.006.208-.027v-2.8a1 1 0 0 0-.101.008c-.817.12-1.098.954-1.106 1.728m-17.557 2.821c-1.019-.026-2.109 1.181-2.125 2.359h3.944c-.205-.426-.373-.874-.548-1.315-.234-.587-.575-1.026-1.271-1.044M336.89 0h-1.733l.275.075c.977.275 1.279.36 1.458-.075m-15.186 2.369c.179 1.376 1.146 2.08 2.309 2.587.37.161.763.235 1.091-.106.305-.318.37-.717.188-1.092-.583-1.199-.898-2.5-1.328-3.76h-4.08c1.009.498 1.669 1.215 1.82 2.37m36.523 23.692c-1.107.65-1.288 1.815-.448 2.78.816.937 1.679.916 2.221-.005V25.07a4 4 0 0 1-.224.153c-.49.32-1.042.54-1.549.837M360 46.196c-.263.028-.549-.016-.903-.163-1.278-.532-1.724-.252-1.872 1.146-.03.283-.001.556.064.82H360zM339.728 31.19c.159.593.389 1.194 1.126 1.14.873-.066 1.752-.298 2.158-1.18.295-.639.007-1.246-.502-1.685-.472-.407-1.036-.711-1.501-1.126-1.282-1.143-.831-3.786.789-4.3 1.123-.358 1.685-.96 1.837-2.128.143-1.101.563-2.366 1.584-2.954 1.17-.675 2.56-.207 3.522-1.363.248-.298.572-.6.358-1.033-.185-.376-.59-.378-.934-.349-1.643.133-3.584.112-4.772 1.459-.491.558-.837 1.157-1.376 1.712-.49.503-.755 1.02-.498 1.726.29.798.147 1.52-.763 1.789-.619.184-1.584-.796-1.589-1.58-.001-.34.122-.689.22-1.024.111-.382.211-.76.091-1.154-.337-1.11-1.422-.161-1.594.524-.214.846-.711 1.186-1.564.926-.667-.204-1.322-.04-1.978.058-.307.046-.663.047-.742.444-.066.336.126.6.35.833.324.339.745.39 1.184.425 1.605.136 2.311.83 2.478 2.407.135 1.268-.338 1.861-1.878 2.355-1.128.362-1.503.982-1.258 2.142.113.536.259 1.07.445 1.584.246.675.706.877 1.235.31.693-.742 1.335-1.533 1.968-2.328.256-.322.33-.898.889-.77.672.155.396.737.41 1.175-.071.682.135 1.321.305 1.964"/><path d="M355.725 17.016c-.308.608-.032 1.266.299 1.88.146.272.305.536.427.784.549 1.107.082 1.748-.706 2.598-.732.79-.793 1.645-.416 2.812.994-.786 2.029-1.357 2.976-2.026.649-.456.218-1.156-.246-1.626-.779-.786-.501-1.5.133-2.154.588-.607 1.291-.668 1.807-.274v-1.355c-.214-.168-.422-.364-.544-.593-.652-1.225-1.642-1.955-3.001-2.223-.701-.137-.866-.647-.899-1.313-.097-1.971-.236-2.058-2.145-2.313-.652-.086-1.505-.008-1.721-.904-.179-.739.627-2.597 1.293-2.866 1.094-.442 1.61-.953.941-2.19-.361-.669.675-2.361 1.441-2.56.854-.22 1.276.36 1.436 1.034.23.97.558 1.766 1.586 2.143.575.211.422.765.342 1.535-.073.717.411 1.931.593 2.64.163.63.374 1.252.678 1.826v-7.44c-.418-.882-1.07-1.603-1.521-2.454-.404-.762-.465-1.395.389-1.896q.067-.04.129-.081h-5.512c-.194 1.279-.906 1.977-1.976 2.04-1.304.077-2.409-.676-2.794-1.901q-.02-.07-.036-.139h-4.509a3 3 0 0 1-.351.397c-1.465 1.386-3.168 1.353-4.957.914-.373-.091-.723-.317-1.181-.221-.342.611.093 1.021.414 1.432.481.616.945 1.263 1.517 1.786.867.794 1.677 1.577 2.216 2.671.351.711 1.297.614 1.744-.1.585-.935.751-1.916-.091-2.81-.788-.836-.679-1.473.289-2.082.558-.351.996-.89 1.549-1.25.705-.457 1.344-.384 1.713.491.654 1.553 1.691 2.716 3.327 3.274.351.12.646.32.643.743-.003.439-.246.783-.635.91-1.325.434-2.24 1.768-3.9 1.552-.833-.107-1.376.646-1.431 1.561-.014.236-.016.471-.032.705-.12 1.85-1.277 2.645-2.952 1.917-1.016-.441-1.544-.213-1.834.824-.255.903-.824 1.696-.954 2.649-.048.35-.133.725.201.978.342.26.693.106.968-.129.581-.494 1.221-.637 1.97-.526.89.132 1.519-.293 1.887-1.088.58-1.248 1.561-2.043 2.818-2.517.684-.258 1.259-.619 1.631-1.272.215-.379.495-.827 1-.591.602.281 1.465.31 1.607 1.183.091.561-.059 1.099-.578 1.448-.259.174-.564.295-.781.508-.277.273-.284.639-.091.978.213.374.568.478.899.239 1.344-.969 2.659-.15 3.963.069.708.12 1.334 1.649.968 2.373"/><path d="M353.637 17.56c.389-.067.832-.038.916-.547.056-.341-1.292-1.454-1.7-1.409-.466.052-.692.387-.667.805.05.906.727 1.081 1.451 1.15m-2.92 2.868c-.773.055-1.367.417-1.423 1.267-.049.731 1.036 1.763 1.801 1.727.842-.039 1.219-.585 1.316-1.267-.017-.934-.87-1.785-1.694-1.727m-62.77-13.72c.617.023 1.075-.322 1.04-.984-.046-.874-.642-1.26-1.435-1.379-.681.06-1.195.336-1.127 1.062.082.865.709 1.27 1.522 1.301m8.893 24.365c2.17.03 3.612 1.652 5.233 2.794.544.383.469 6.03.032 6.607-.673.895-1.101 1.885-1.43 2.938-.207.66-.532 1.194-1.333 1.31-.47.068-.86.348-.737.935.49.269.811.019 1.088-.256.39-.387.836-.552 1.379-.511.669.05 1.237-.203 1.688-.68.834-.881 1.658-1.772 2.463-2.68.39-.442.575-1.025.261-1.528-.639-1.025-.519-2.18-.746-3.275-.32-1.544.089-2.701 1.388-3.553.769-.504.967-1.192.712-2.039-.192-.637-.403-1.269-.608-1.903-.132-.405-.372-.707-.83-.708-.679-.005-1.198-.253-1.585-.828-.272-.404-.727-.445-1.166-.392-1.356.166-2.73.234-3.923 1.064-.857.597-1.831.641-2.818.334-.938-.292-1.853-.258-2.747.163-.366.172-.785.399-.76.815.069 1.24-.182 2.464-.275 3.758.892-.026 1.307-.593 1.783-1.02.846-.754 1.827-1.36 2.931-1.345M215.087 8.575c-.012.676.426.95 1.111.962.66-.152 1.415-.358 1.421-1.223.005-.805-.664-1.136-1.378-1.1-.787.04-1.141.623-1.154 1.36"/><path d="M298.592 48c-.363-.218-.59-.67-.688-1.372-.095-.679-.594-.98-.976-1.407-.848-.954-.802-1.441.214-2.17.973-.696 1.029-1.482.167-2.334-.975-.963-2.212-1.156-3.069-.476-1.177.932-1.598 2.539-.952 3.656.293.509.653.987.884 1.522.42.967.381 1.83-.088 2.58zm.948-11.342c-.074-.733-.712-.877-1.328-.864-.522.011-1.125.127-1.038.82.088.704.724.842 1.331.917.542-.071 1.103-.214 1.035-.873m-25.83 9.972c-.747.11-.912.669-.851 1.312.001.02.007.04.008.06h2.477c-.332-.804-1.042-1.46-1.634-1.372M185.956 1.817c.11.336.287.688.705.693.473.008.694-.358.789-.747A7.5 7.5 0 0 0 187.69 0h-2.129q.077.334.14.673c.073.383.135.774.255 1.144m73.563 44.544c-.755.01-1.633.88-1.695 1.639h2.476a2.7 2.7 0 0 0 .128-.93c-.015-.326-.258-.718-.909-.709M181.257.685c.445.006.72-.253.8-.68V0h-1.21a1 1 0 0 0-.039.149c-.056.315.126.532.449.536m90.948 38.227c-.555-.049-.558.454-.654.813-.25.914-.829 1.584-1.541 2.169-1.899 1.56-2.662 3.846-3.679 5.941q-.04.082-.071.165h2.597c-.132-.752.159-1.544.863-2.356.52-.598 1.131-1.072 1.766-1.539 1.43-1.052 2.039-2.92 1.466-4.369-.143-.365-.294-.785-.747-.824m13.776-22.176c.028.79.621 1.09 1.36 1.205.621-.05 1.144-.298 1.15-1.016.007-.841-.607-1.109-1.325-1.139-.642-.026-1.211.2-1.185.95m35.884 11.147c.064.833.687 1.146 1.317 1.254.991-.01 2.072-1.023 2.075-1.87.003-.8-.449-1.23-1.227-1.262-.747-.03-2.215 1.214-2.165 1.878m10.618-1.235c.197-.422.117-.855-.135-1.23-.58-.855-1.451-1.138-2.431-1.18-.697.049-1.396.162-1.542.977-.142.784.495 1.075 1.082 1.325.611.26 1.23.517 1.908.545.433.019.896.043 1.118-.437m-2.261 1.787c-.899-.04-2.187.925-2.129 1.69.102 1.339 1.225.719 1.85.925.837-.01 1.815.476 2.081-.757.159-.731-.95-1.82-1.802-1.858m-3.566 11.973c-.01-.618-.404-.916-.998-.892-.541.022-.881.34-.896.89-.019.608.323.927.997.975.497-.09.906-.358.897-.973m-12.665-7.768c-.025-.334-.263-.766-.962-.769-.91-.003-2.189 1.13-2.182 1.953.007.774.45 1.111 1.195 1.11 1.152-.002 1.982-.853 1.949-2.294m-3.645 5.077c-.038-.824-.613-1.091-1.334-1.195-.821.06-1.448.415-1.499 1.3-.045.77.36 1.368 1.145 1.53.646.136 1.719-.934 1.688-1.635"/></g><defs><clipPath id="a"><path fill="#fff" d="M0 0h360v48H0z"/></clipPath></defs></svg>