<svg xmlns="http://www.w3.org/2000/svg" width="360" height="48" fill="none"><path fill="#000" d="M103.6 18.7c.1 0 .2-.1.2-.1-.1-.1-.1-.2-.2-.2s-.1.1-.2.1c.1.1.1.2.2.2m158 5.4c1.7.1 3.5.2 5.2.2-.6-1.4-.1-2 1.4-2 1.3 0 2.6-.1 3.9-.1.4 0 .7.1 1.1.3 1.3.7 2.6 1.4 3.9 2 .3.1.9 0 1.2-.2 1.6-.8 2-2.4 2.8-4.4-2.4.5-4.4.9-6.4 1.4.1-.2.2-.4.3-.5l-1.5-1.8c.6-.9 1.1-1.7 1.7-2.6-.1-.1-.2-.2-.4-.3-.9.8-1.8 1.7-2.8 2.5-.5.5-1 1.2-1.6 1.4-2.4.9-4.8 1.5-7.2 2.4-.7.3-1.4.7-2.1 1.1.4.2.4.4.5.6m12-5-.6 1.2c-.1-.1-.3-.2-.4-.3.3-.3.7-.6 1-.9m-10.3-.1c-.1 0-.1 0-.2.1 0 0 .1.1.1 0zm-1.1-4.5v.1l.1-.1zM178.5 1h-.1v.1h.1zM266 16.1h-.1s-.1.1 0 .1l.1.1z"/><path fill="#000" d="M266.8 24.3c-.9.4-1.8.7-2.7 1.1.1.1.1.3.2.4l7.8-1.8c0-.2-.1-.3-.1-.5-1.8.2-3.6-.4-5.2.8M105 10.5c.5.2.4 1.5.5 2.3.2.1.3.1.5.2.3-.7.9-1.4.8-2.1-.1-.6-.7-1.4-1.3-1.6-1-.3-2.1-.4-3.1-.3-.6.1-1.2.6-1.8 1 .6.3 1.2.8 1.9.8.8 0 1.8-.6 2.5-.3M177.2.9c.1-.3.3-.5.4-.8h-1.5c-.9 1.2-1.8 1.9-3.2 2-.6 0-1.3.5-1.9.9-.7.5-1.2 1.1-1.8 1.6-.8.6-1.7 1.2-2.6 1.7 1.5-.1 2.8-.4 4-.8.3-.1.6-.4.9-.6.9-.6 1.8-1.5 2.8-1.8 1.3-.4 2.3-.9 2.9-2.2m91 14.7c1.6-.4 3 1.6 4.7.5-1.4-.9-2.9-1.9-4.7-.5m-164.6-2.7c0-.3-.2-.8-.5-.9s-.8 0-1 .2c-.8.8-.3 2.6.8 3.1.3-.8.6-1.6.7-2.4m174.3-5.1c-.6-.2-1.2-.6-1.8-.6-.5 0-1 .6-1.5 1 .9.3 1.8.7 2.7.9.1 0 .4-.8.6-1.3M178 4.1c.1.1.3.2.4.3 0 0 .2-.2.3-.4-.2-.1-.3-.2-.4-.2-.1.1-.2.3-.3.3m90.9 13c.1.1.1.2.2.4.2-.1.3-.2.4-.3-.1-.1-.1-.3-.2-.3s-.2.1-.4.2m-166 3.6v-.1l-.1-.1-.1.1c.1 0 .1.1.2.1m163.5-7.2c-.1 0-.1.1-.2.1l.1.1c.1 0 .1-.1.2-.1 0-.1-.1-.1-.1-.1m2.1.6c.2-.1.3-.3.4-.4-.1-.1-.3-.3-.4-.2-.2 0-.3.2-.6.4.4.1.6.2.6.2m3.1-6.5c-.1 0-.2.1-.2.1l.1.1c.1 0 .1 0 .1-.1.1 0 0 0 0-.1m-2.4 1.6c-.4 0-.7.5-1 .8.4.2.8.6 1.2.7.8.1 1.7 0 2.8 0 .1-.2.2-.8.4-1.5-1.4 0-2.4-.1-3.4 0m14.1 17.7c.2-.3.9-.7.9-1 0-1.6 1.2-1.8 2.3-2.1 1.7-.6 3.5-1 5.2-1.5 2.4-.7 4.7-1.4 7-2.1.7-.2 1.5 0 2.2.1s1.4.3 2.1.5c0-.7 0-1.3-.2-2-.5-1.9-.6-2-3.3-1.5-.5.1-.7 1.1-1.3 2-.6-.3-1.6-.7-2.5-1.2-.3-.2-.7-.5-.9-.4-2 .4-4 .7-5.9 1.4-1.7.6-4.1.6-4.1 3.3.5 0 1 .1 1.5.1-2 1.4-4.5 1.2-6.3 2.7 1.2.7 2.1 1.1 3.3 1.7m-10.8-13.1c.6.6 1 1.2 1.6 1.4s1.3 0 2-.2c.2 0 .4-.8.2-.9-.6-.7-1.3-1.4-2.1-1.8-.3-.2-1.1.9-1.7 1.5M54.3.1h-4.6c.1.4.1.8-.3 1.3-.7.8-.6 1.3.3 1.8.3.2.6.5.7.8.6 1.4 1.1 2.4 3.1 2 1.6-.4 2.3-.5 2.6-2.3-.2 0-.3-.1-.5-.1-2.2.2-2.3 0-1.6-2.1.1-.4.2-.9.3-1.4M93 4.4c-.3.4-.6.8-.9 1.1.2.2.4.4.5.6.3-.4.6-.7 1-1.1zm-2.1 18.7-.2-.2-.1.1c0 .1.1.2.1.2s.1 0 .2-.1m-8.6-5c.5-.3 1.2-.6 1.5-1 .5-.7.8-1.5 1.2-2.4-1.8-.2-4.4.8-5.4-2.3l-.6.3v2c.1 2 .2 3.9.4 5.9.1.6.5 1.2.9 1.6.2.2 1.1 0 1.1-.1.2-.6.4-1.5.1-1.8-1.1-1.3-.1-1.7.8-2.2M80.8 24c0 .2.1.4.2.5 0 0 .3-.1.5-.2-.2-.2-.2-.4-.4-.5zm20.3-4.6c0 .1.1.2.2.4.2-.1.3-.2.4-.3 0-.1-.2-.3-.2-.3-.2 0-.4.1-.4.2M88.8.5l-.3-.3s.1 0 .1-.1h-8.4c-.3.7-.7 1.4-1 2.2-.2.4-.3.8-.4 1.2l1.2.3c.4.1.9.1 1.6.1-.6.6-1 1-1.2 1.4s-.2 1.2.1 1.4c1 .9.7 1.6 0 2.4-.5.5-.9 1-1.3 1.4 1.5.8 3 1.6 4.4 2.3.3.1.9.2 1 .1 1.3-1.5 2.6-3 4.1-4.6.1 0 .5.1.8.2.4-.7.6-1.3.9-1.8C92 3.9 92 1.8 90.2.1H89c-.1.2-.2.3-.2.4m-5.2 4.9c-.1-.2-.2-.3-.2-.5.3-.2.6-.3 1-.5.1.2.2.3.2.5-.3.2-.7.3-1 .5m4.4-.2c-.3-.3-.6-.7-1.1-1.2.6-.5 1-1.1 1.2-1 .4.1 1 .8.9 1-.1.4-.6.8-1 1.2M76 3.8c-.7.1-1.3.7-1.9 1.1.8.8 1.6 1.7 2.4 2.5.4-.6.8-1.2 1.1-1.8-.1-1.1-.4-2-1.6-1.8m22.6 4.9-.1.1.1.1zm-1.9 6.2c.8-1.6-.2-2.6-1.2-3.5-1-1-4.3-.9-5.5 0 .9 1 3.3-.9 3.4 1.9.1 1.4 1.6 2.8-.7 4.3 3.1.8 3.3-1.2 4-2.7M94.1 22v-.1s-.1-.1-.1 0l-.1.1c.1-.1.1 0 .2 0m-5.6-2.5c1.5-1 2.1-2.5 2.2-4.2.1-1.2-.6-1.8-1.9-1.7-1.4.1-2.4 1.5-2.4 3.7 0 .1 0 .8-.4 1-1.7 1.2-1.7 2.6-.8 4.3.3.5 0 1.2.2 1.8.2.4.6 1.1.9 1.1.5 0 1.2-.5 1.3-.9.2-.9.3-1.9 0-2.7-.3-1.2 0-1.8.9-2.4M190.1 7.2v.1h.1v-.1zM98.7 13v-.1l-.1.1zM48.5.7V.2h-1c.3.1.6.3 1 .5m-1.3 7.1c-.4.2-.9.7-1 1.1-.1.2.6 1 .9 1 .4 0 .9-.5 1.6-1-.8-.6-1.3-1.2-1.5-1.1m139.9 7.3c.5-1.7 1.9-2.1 2.7-1.5 1.5 1 2.3.4 3.3-.5-1.2-.7-1.3-1.3 0-2.1s2.6-1.5 3.9-2.4c.4-.3.5-.9.8-1.6-.6 0-.7-.1-.8 0-2.9 2.4-6.1 4.5-9.7 5.8-1 .3-1.1 1.2-.2 2.3M74.4 11.6c-1.1-.1-2.3-.2-3.4-.2-.8 0-1.6.1-2.4.1-.4 0-.9-.1-1.3-.2 0 .5-.2 1.3.1 1.5.9.9 2.2 2.4 3.1 2.2 1.6-.3 3-1.7 4.6-2.6-.4-.4-.5-.8-.7-.8m2.7 7 .2-.2c-.1-.1-.2-.1-.2-.2v.3c-.1 0 0 .1 0 .1m-10.7 4.3c.2 0 .3-.1.5-.1-.1-.4-.1-.7-.2-1.1-.2 0-.3.1-.5.1.1.4.1.8.2 1.1m1-8.1c-.2-.3-.5-.5-.7-.8-.2.1-.3.3-.4.4.3.2.5.4.8.7zm4 7.7c-.7-.3-1.5-.6-2.2-.8-.1.2-.2.5-.3.7.8.3 1.5.5 2.3.8.1-.2.1-.5.2-.7m-1.8-3.7c-.6-.4-.9-.8-1.2-.7s-.6.5-.9.8c.3.3.6.7 1 .8.2 0 .5-.5 1.1-.9m-1.5 5.5c-.1-.2-.1-.4-.2-.6-.5.2-1 .3-1.5.5 0 .2.1.3.1.5.6-.2 1.1-.3 1.6-.4m229.6 15c-.3.6-.7 1.2-.8 1.9 0 .3.7.9 1.1.9 1.1.1 2.3 0 3.2-1.5-1.5.2-3.1 1.2-2.9-1.3-.2-.1-.4 0-.6 0M182.2 14.1c-.5.7-1 1.3-1.5 2 .3.2.5.4.8.5.5-.7.9-1.4 1.3-2-.2-.2-.4-.4-.6-.5M296 29c-1.1 0-2.1.3-3.1.5 0 .3.1.5.1.8 1.3-.1 2.5-.1 3.8-.1-.3-.4-.5-1.2-.8-1.2m.5 5.9c-.3-.3-.7-.6-.9-.8.4-1 .8-1.9 1.1-2.8-2.6 1.3-3.3 4-4.6 6.3 1.6-.9 3-1.8 4.4-2.7M179 24.1c.4.1.9.3 1.2.2 1.1-.2 2.2-.6 3.4-.9-.2-1.1-.6-1.4-1.8-1-.7.2-1.5.5-2.1.8-.3.2-.4.6-.7.9M302.5 38c1.1.4 2.1.3 2.6-1.1-1.1-.2-2.2-.4-3.7-.6.4.8.6 1.6 1.1 1.7m-139.2-4.8c0-.2-.1-.4-.3-.9-.4.6-.6.8-.5.9 0 .1.3.3.4.3.2.1.4-.1.4-.3m-5.7 6.3c-.3 0-.5.1-.8.1 0 .1 0 .3.1.4.3-.1.5-.2.8-.2-.1-.1-.1-.2-.1-.3m98.9-10.2v.1h.1zm40.3 2q0-.15 0 0m0-.1q0 .15 0 0m-49.7 9.7c.4.1.9.4 1.3.3 3.4-.8 7.1-.6 10.1-2.7.6.5 1.2.8 1.7 1.2.2-.1.3-.2.5-.3-.2-1.4-.4-2.8-.7-4.2-.1-.5-.6-.9-1-1.3-.3.4-.7.8-.9 1.2s-.1 1-.3 1.4c-.3.6-.8 1.3-1.3 1.4-1.6.5-3.3.8-4.9 1.2l-4.5 1.2zm19.6-7.1c-.9.3-1.4 1.7-2.3 2.9h3.8c0 .1.1.3.1.4-.8.4-1.6.8-2.5 1.2 1 1 1.9 1 2.8.3 2.2-1.5 3.3-3.7 4.5-6.2h-3.9c.3.8.6 1.6.8 2.3-.2 0-.4.1-.5.1-.9-.3-2.1-1.2-2.8-1m-82.2-19v.2l.1-.1zm116.9 9.8c-.4.5-.9.9-1.3 1.4-1.1 1.4-2.2 2.8-3.3 4.3v1c1.7-2.1 3.4-4.1 5.1-6.2zm-.2 7.8c-.7.3-1.4.7-2 1.1.1.1.1.3.2.4.8-.2 1.5-.3 2.3-.6.2-.1.2-.4.4-.6-.3-.1-.7-.4-.9-.3m-150 6.1c.5-.3 1.1-.6 1.6-.9.3-.2.7-.3 1-.4.5-.2 1-.5 1.4-.7-.1-.2-.1-.4-.2-.6h-3.1c.3-.6.5-1 .7-1.5-1.7-.5-2.4.7-2.6 1.7-.1.7.7 1.6 1.2 2.4m-.7-6.7-.2-.2c-.1 0-.2.1-.2.2l.2.2c.1 0 .2-.1.2-.2m3.6 9.4c.1 0 .2-.1.3-.1l-.1-.2c-.1 0-.2.1-.3.1 0 0 .1.1.1.2m-1.5-9.7-.3.3s.1.1.2.3c.1-.1.2-.2.2-.3.1-.2-.1-.3-.1-.3m-1.4 9.9c.1.1.3.2.4.3 0 0 .2-.2.3-.4-.2-.1-.3-.2-.4-.2-.2.1-.2.2-.3.3m153.2-11.3h-.1v.2s.1 0 .1-.1c.1 0 .1 0 0-.1M164.8 46.8c.3-1.7.2-3.4.2-5.3.1-.1.6-.2.7-.4.3-.7.4-1.4.6-2.1-.6 0-1.2-.2-1.7 0-1.2.3-1.9.2-2.2-1.2-.1-.4-.7-.6-1.1-.9-.3.9-.5 1.7-.8 2.6.6.2 1.2.3 1.7.5s1.5.7 1.4.8c-.3 1.3-.6 2.8-2 3.5.1-.6.3-1.1.5-1.7.3-1.2-.3-1.9-1.5-1.6-1.1.3-2.4 2-2.5 2.9.6.5 1.4.9 1.4 1.3 0 .7-.4 1.5-.6 2.3-.5-.4-1.1-.7-1.6-1.1-.4-.3-.8-.8-1.2-1.1-1-.8-4.8.1-5.3 1.2-.1.3.2.7.3 1.1.1.1.1.3.2.4h12.2c.6-.3 1.2-.7 1.3-1.2m-10.1 1.1s-.2-.2-.3-.2v-.3c.3 0 .5 0 .8.1-.2.1-.3.3-.5.4m138.1-.3c.2.1.5.2.7.2.2-.1.4-.3.6-.5-.1-.1-.1-.2-.2-.3l-1.2.3c.1 0 .1.2.1.3m-42.3-12.7-.1-.1-.1.1zm54.7-2.8c-.1-.1-.2-.2-.2-.1-.1 0-.1.1-.2.2.1.1.2.2.2.1.1 0 .2-.2.2-.2m-155.4 9.4c0-.2-.1-.3-.1-.5-.4 0-.9.1-1.3.1v.7c.5-.1.9-.2 1.4-.3m-1-8.6c-.2 0-.3 0-.4.1 0 .5.1.9.2 1.4.2 0 .3 0 .5-.1-.2-.5-.2-.9-.3-1.4m143.5 8.6c.3-.1.6-.1.9-.2 0-.1 0-.2-.1-.2-.3.1-.6.1-.9.2 0 .1 0 .1.1.2m23.2-14c-.1-.1-.1-.2-.2-.2s-.2.1-.2.1c.1.1.1.2.2.2 0 .1.1 0 .2-.1m-.4 13.2c-.1.1.4.6.6.9.2.1.5.3.8.4.2-.5.6-1 .5-1.4 0-.3-.5-.6-.9-.9-.3.2-.8.6-1 1m1.3-4.8s-.1 0-.1.1.1.1.1.2c0 0 .1 0 .1-.1 0 0-.1-.1-.1-.2m-15.7-7.2c.7.1 1.6.4 2.1.2 1.5-.8 3-1 4.5-.2 0 0 .1-.2.3-.4-.6-.5-1.2-1.5-1.7-1.4-1.8.2-3.6.8-5.4 1.2.2.2.2.4.2.6m13.3 6.2c.1.1.2.1.3.2.1-.1.1-.2.2-.2l-.2-.2c-.1.1-.2.2-.3.2m-178.3-.1c.6-.4 1.7-.8 1.7-1.2 0-.7-.7-1.4-1.1-2-.2.9-1.8 1.6-.6 3.2m178.6 2.9h2.3V37c-.8 0-1.5.1-2.3.1zm-181 7.5c1-.5 2.1-1 2.5.7 0 .1 1.1.1 1.1 0 .5-1.8 2-1.9 3.3-2.2.7-.2 1.4-.6 2.1-.9-.1-.2-.2-.4-.2-.6-1.4.3-2.8.6-4.3.9-.5.1-1.3.1-1.5-.2-.2-.4-.3-1.2 0-1.7.4-.7 1-1.3 1.6-1.9 1.1-.9.8-1.6-.1-2.3-.9 1.1-1.8 2-2.4 3-.9 1.6-3.5 2.5-2.1 5.2m178.3-17.4h.1v-.1zm-3.6-7.6c-.1 0-.2.2-.3.3.1 0 .2.1.3.2l.3-.3c-.1-.1-.2-.2-.3-.2m3.3 22.9c.5-.2.8-1 1-1.6.1-.2-.4-.8-.6-.8-1.3 0-2.7.1-4.2.1 1.1 2.7 2 3.2 3.8 2.3m-2.7-5.8c-.1-.1-.1-.1-.3-.2-.1.1-.2.2-.2.3l.2.2zm5.4-4.7c.2-.1.3-.6.4-.9-.4-.1-.9-.5-1.1-.4-.8.3-1.5.8-2.5 1.4 1.2 1.1 2.2.3 3.2-.1M187.9 4.5l3.9-.6c.9-.1 1.8-.5 2.7-.4 1.4.1 2.5-.3 2.9-1.6.3-.9.8-1.4 1.4-1.8h-7v.1c0 .1-.2.2-.3.2-.1-.1-.2-.2-.2-.3H188c.5.3 1.1.7 1.7 1.1-1.3.6-2.6 1.5-1.8 3.3m7.1 7.3c-.8.5-1.3.9-1.8 1.3.8.3 1.8.9 1.8-1.3m46 9.8h.1l-.1-.1zm-97.4 16.9c-.1.1-.2.1-.2.2s.1.2.1.2c.1 0 .2-.1.3-.1-.1-.1-.2-.2-.2-.3m97.8-10c.1 0 .2-.1.4-.2-.1-.1-.2-.2-.3-.2-.1.1-.2.2-.3.2 0 .1.1.2.2.2m-2.9-8.1.3.3.2-.2c0-.1-.1-.1-.2-.2-.2 0-.3.1-.3.1m1.8 16c-.6.1-1.3.2-1.9.3 0 .1 0 .2.1.4.6-.1 1.3-.1 2-.2-.1-.2-.2-.4-.2-.5m2.1-11.5c-.8.4-1.6.8-2.3 1.4-.1.1.2.7.4 1.1.9-.8 1.5-1.4 2.2-2-.1-.2-.2-.4-.3-.5m-136.9 4.4-.1-.1v.1zm148.1 2.9c0-.1-.1-.2-.1-.3-.9-.2-1.7-.5-2.5-.5-.6 0-1.2.3-1.7.7-.2.2-.2.7-.3 1 .6.1 1.2.3 1.7.2 1-.3 2-.7 2.9-1.1"/><path fill="#000" d="M142.9 23.5c.1 1 .2 2 .4 2.9.1.3.8.9.9.8 1.3-.8 3.4 0 4.3-1.9.2-.4.9-.6 1.4-.8 1.5-.7 3-1.4 4.5-2 .6-.2 1.3 0 1.9 0-.4.5-.6 1.1-1.1 1.5-1.7 1.5-3.5 2.9-5.1 4.4-.3.3-.4 1.2-.2 1.6s1 .6 1.5.6c.6 0 1.2-.5 1.9-.6.8-.1 1.7-.1 2.9-.2-.3.7-.4.8-.5 1-.2.7-.4 1.4-.6 2 .7.1 1.5.6 2.1.4 1.7-.7 3.3-1.6 4.9-2.5.3-.2.4-.7.6-1-.1-.1-.2-.2-.2-.3-.7.3-1.3.6-2 .9-2 .9-3 .5-3.7-2 .3 0 .7-.1.9 0 1.2.8 1.9.2 2.8-.7.7-.7 1.7-1 2.6-1.6.5-.3 1-.7 1.5-1.1-.7-.3-1.3-.7-2-.7-.4 0-.8.5-1.3.7-2.1 1-4.3 1.8-7.1 1.3.7-.6 1.1-1 1.6-1.4.6-.4 1.4-.7 2-1.2 1.4-1.2 3.1-2.1 3.8-4 .1-.3.6-.6.9-.6 1.3-.3 2.6-.6 3.9-.8.2-.4.4-1.5.6-1.5 1.3 0 .8 1 1 1.8.2.6.8 1.2 1.2 1.7.8-1 1.4-1.7 2-2.5-.1-.8-.1-1.8.3-2.2.8-.7 1.9-1.7 3-.1.2.3 1.1.3 1.5.1 1.2-.6 2.3-1.4 3.5-2.1 1-.6 1.1-1.2.2-1.9-.2-.2-.5-.4-.7-.6 2.5-1.8 5-3.5 7.4-5.3.5-.3.9-.7 1.3-1.1-.6-.2-1.2-.4-1.9-.7l-.4.4c-.1-1-.3-2-.4-3-1.5.8-1.4.8-1.3 2 0 .4-.2.9-.5 1.3-.9 1-2 1.2-3.2.3-1 1.2-1.8 2.5-3 3.4-1.9 1.5-4.5 1.7-6.5 3.3-1 .8-2.9.6-4.4.8-.4.1-.9.2-1.1.5-1.5 2.3-4 2.7-6.3 3.5-.4.2-1 .2-1.4 0-.3-.1-.6-.6-.8-.8.3-.2.6-.4.9-.5.9-.4 1.8-.7 2.7-1.1-.1-.3-.1-.5-.2-.8-.6 0-1.1-.1-1.7 0-.7.2-1.4.7-2 .7-2-.3-2.6 1.7-4.1 2.3-.2.1-.3.9-.3 1.3.1 1.8-.3 2.4-2 2.4-1.5 0-2 .8-2.3 2.1h1.5c-1 .5-1.9.9-2.9 1.4-.8-1.9-.8-3.6.1-5.2.1-.2 0-.7-.1-.9-.9-1.2-1.6-2.3.1-3.7-1.2-.1-2.2-.2-3.1 0s-1.7.7-2.5 1c.7.4 1.5.8 2.2 1.3.6.4 1.1.8 1.6 1.2l-1.3 1.3c-.2.2-.4.2-.5.3 0 .4.2.9.1 1.1-.8.9-.8 1.7.1 2.6.3.3.1.8.1 1.2m34.7-12.3c.1.2.1.3.2.5-.5.2-.9.4-1.4.5-.1-.2-.2-.3-.2-.5.5-.2.9-.3 1.4-.5m-8.1 4.6c.1 0 .2.2.3.3-.2.1-.3.2-.4.2s-.2-.2-.2-.3c0 0 .2-.2.3-.2m-4-.9.2.2-.2.2-.2-.2s.2-.1.2-.2m-10.8 1.2c.1 0 .2.1.2.2s-.1.2-.2.2-.2-.1-.2-.2c.1 0 .1-.2.2-.2m-4.5 5.1c.1.2.2.3.2.4-.4.1-.8.2-1.1.3.3-.2.6-.5.9-.7m-4.6 3.7c.1 0 .2.1.2.2-.1.1-.1.2-.2.3-.1-.1-.2-.2-.3-.2.2-.1.2-.3.3-.3m-9.8-7.9c1.3-.2 2.4-1.2 3.6-1.9-.1-.2-.2-.5-.3-.7-1.2.3-2.5.6-4.1 1-.3.2-.9.6-1.5 1.1 0-.8.1-1.3-.1-1.8 0-.2-.8-.3-1-.1-.5.4-1.1 1.1-1 1.5.4 1.6 1.1 3.2 1.7 4.8.4-.3.5-.5.5-.7-.1-1.8.2-2.9 2.2-3.2m188.5 29.4c.2-.1.4-.3.6-.4-.1-.1-.1-.2-.2-.3-.2.2-.4.3-.6.5.1 0 .2.1.2.2m17.2-.9c-.2-.2-.3-.3-.4-.3s-.2.2-.3.2c.1.1.1.2.2.2s.3-.1.5-.1m-5.3-.6c0-.1-.1-.1-.1-.2-.1 0-.2.1-.3.1.1.1.1.2.2.3.1-.1.2-.1.2-.2m1.2 1.1c-.1-.1-.5-.2-.6-.1-.2.2-.4.5-.3.7.3.5.7 1 1 1.5h2.5c-.8-.7-1.7-1.4-2.6-2.1m10.9 1.1c-1.6.1-3.2.5-4.7.2-1.3-.2-2.1-.1-2.5.8h6.4c.2-.3.5-.7.8-1m1-2.4q0 .15 0 0m-5.3 1.6c-.1-.1-.2-.3-.3-.3s-.3.2-.3.3.2.2.3.4c.2-.2.4-.3.3-.4m-9.5-4.6c-.4-.4-.7-.9-1.1-1.3-.2.2-.4.3-.6.5.4.4.8.8 1.3 1.2.2-.1.3-.2.4-.4m-7.1-6.8.6-.3c-.1-.1-.1-.2-.2-.3-.2.1-.3.3-.5.4.1.1.1.1.1.2m7.4 12.3c-.2.1-.3.1-.5.2.1.2.2.5.3.7h.6c-.1-.3-.3-.6-.4-.9m-7.6-14.3c.1-.1.2-.2.3-.4-.2-.1-.3-.3-.4-.2-.1 0-.2.2-.3.2.1.1.3.2.4.4m2.5 2.7c.2.5.2 1 .5 1.4.2.3.7.5 1 .7.1-.4.5-1.1.3-1.3-1.1-1.4-.5-2.5.7-3.9-2.5.3-3.1 1.2-2.5 3.1m4.4 10.2.1-.1-.1-.1c0 .1-.1.1-.1.2zm-6.8-18.4 1.8-2.1c-2.4.2-2.7.6-1.8 2.1m28.3 14.1c-.6.4-1.1.9-1.7 1.3.8-.1 1.7 0 1.7-1.3M42.9 9.6c.4.2 1.1 0 1.6 0-.3-1-.5-2.1-1.1-2.9-.3-.3-1.6.3-2.7.6 1 1.2 1.5 1.9 2.2 2.3m1.7 5.3c-.8.9-1.5 1.7-2.3 2.5.5.1 1.3.3 2.3.6-1.6 1.2-1.1 2.1-.1 2.9.8.6 1.5 1.3 2.3 1.9.1 0 .2 0 .4-.1-.9-2.7-1.8-5.3-2.6-7.8m309.3 27.9c-.2.1-.3.2-.5.3.2-.1.4-.2.5-.3M297.8 7.9l.1.1v-.1zm-254 14.5.1.1v-.1zm243.6-8.6c-.2.7-.1 1.7-.5 1.9-2 1-4 1.7-6.2.3-1.5-.9-3.1-.7-3.6.3l1.6 1.6c-.6.5-1.1 1-1.9 1.8 3.4-.6 6.5-1.2 9.5-1.8.1 0 .3-.2.4-.3 2.8-2.2 6-2.5 9.3-2 .6.1 1.3.3 1.9.2.8-.1 1.5-.6 2.2-.8-.6-.2-1.2-.5-2.1-.9.8-.5 1.5-.9 2.2-1.3-.1-.6-.1-1.2-.2-1.8-.9.4-1.8.8-2.7 1.1-1.4.5-3.1.5-4.2 1.4-1.9 1.5-3.8 1.5-5.7.3m8.8-6c-.1 0-.2.1-.2.2s.1.1.2.2c.1-.1.2-.2.2-.3-.1 0-.1-.1-.2-.1M41 26.1c.1.2.1.3.3.5l.4-.2c-.1-.2-.2-.4-.3-.4-.1-.1-.3 0-.4.1m263-14.5c1.1-.4 2.2-.5 3.3-.9.6-.2 1-.8 1.4-1.3-.1-.2-.3-.3-.4-.5-.5.2-1 .4-1.6.6-1.9.6-3.8 1.1-5.7 1.6.2.8.4 1.6.6 2.1 1-.6 1.6-1.3 2.4-1.6M44.1 26c.5 1 1.3 1.1 2 .3.5-.5.8-1.4.7-2-.1-.4-1.1-.7-1.7-.8-.7-.1-1.5 0-2.4 0 .6 1 1 1.8 1.4 2.5m309.3 17.1c-.9.6-1.8 1.2-2.7 1.9-.6.4-1.1.8-1.5-.2-.3.8-.6 1.5-.9 2.3 1.8-1.4 3.4-2.7 5.1-4M50.8 12.5c.1-.4.5-.7.8-1 1-.7 2.1-1.3 3.1-1.8.4.4.7.8 1.1 1.2.4-.4.8-.9 1.1-1.3.9-1.2 1.8-2.4 2.5-3.4 1 .1 1.6.2 2.1.3 0-.6.1-1.2.1-2.2.7.4 1.2.9 1.9 1.1s1.4 0 2.1 0c-1.8-1.7-2-2.3-.8-3.5.7-.6 1.5-1.2 2.3-1.7H65c-.5.3-1.2.5-1.5.9-1.9 2.3-4.2 3.8-7 4.6-.4.1-.8.6-1.1 1s-.4.9-.7 1.2c-2.6 2.2-5.2 4.3-8.4 5.6-.3.1-.8.6-.8.9 0 .4.4 1.1.7 1.1 1.1.2 1 .9 1.2 1.7.1.6.7 1.1 1.1 1.7 0-1.3-.3-2.8.1-3 1.5-.7 1.9-1.9 2.2-3.4M48 20.2l.3-.3c-.2-.2-.4-.3-.6-.5l-.2.2c.2.2.4.4.5.6m307.6 8c-.7.8-1.5 1.6-2.2 2.4.1.1.3.2.4.3 1.6-.4 2.3-1.4 1.8-2.7m-5-25.6h.1c0-.1 0-.2-.1-.2h-.2c.2.1.2.1.2.2m-.7-1.7-.9.3c.3 0 .6 0 1-.1-.1-.1-.1-.2-.1-.2m.3 4.2c-.2-.1-.4-.2-.5-.3-.1 0-.2.2-.2.3l.2.2c.1 0 .2-.1.5-.2M320 36.8c.1.3.5.5.9.8-.4.2-.6.2-.7.3-.4.8-.7 1.7-1 2.5.6-.1 1.3-.1 1.8-.2 1.2-.4 2.2-1 3.4-1.3s2.5-.2 3.7-.6c1.5-.4 1.6-1 .4-2-.8.6-1.6 1.3-2.4 1.9.1-1 .4-1.9.1-2.2-.6-.8-1.5-1.8-2.3-1.8-1.3 0-2.6.8-3.8 1.3-.2.2-.2.9-.1 1.3m3.1-.9s.1 0 .1.1-.1.2-.1.2c-.1 0-.1-.1-.1-.1 0-.1 0-.2.1-.2M318.2 20c0 .5-.1 1-.1 1.5 1.5-.3 1.9-1.1 1.7-2.2-.2-.9-.8-1.4-1.9-.9.2.6.3 1.1.3 1.6m-6-5.2c.1.2.2.3.2.5 1.5-.3 3-.5 4.5-1 1-.3.9-1.2.5-1.6-1.3.4-2.2.7-3.2 1.1-.7.3-1.3.7-2 1m3.8-9.3h.1v-.1zm2.6 11.5c-.1 0-.2.1-.3.1.1.1.2.2.2.3.1-.1.2-.1.2-.2s0-.2-.1-.2m33.8-8.9c.1-.4.1-.7.2-1.1-.2 0-.3-.1-.5-.1-.1.4-.2.7-.3 1.1.2 0 .4 0 .6.1"/><path fill="#000" d="M360 23.2c-.8-.1-1.2-.2-1.5-.1-1.2.3-2.1.4-2.5-1.2-.1-.3-1-.5-1.6-.6-.5-.1-1 .3-1.4.2-1.6-.4-2 .5-2.2 1.7-.8-2.4-.6-3 1.6-4.4 1.7-1.1 3.5-2.1 5.3-3.2-.5-.2-.7-.4-1-.5.7-.6 1.1-1 1.6-1.4-.1-.1-.2-.3-.2-.4-.9.2-1.8.5-2.7.7v-.4c-.6-.1-1.1-.2-1.8-.4.1-.2.2-.3.3-.5.2-.5.5-1 .7-1.5 0-.1-.8-.6-1.1-.5-.6.2-1.3.5-1.5.9-.4.8-.4 1.7-.6 2.5-.1.5-.3 1-.5 1.5-.2 0-.4-.1-.5-.1v-5.2c-.9-.1-1.9-.2-2.9-.3-.6-1.1-.1-1.5.9-1.6.5 0 1 .2 1.4 0 .4-.1.7-.5.9-.8.1-.1 0-.6-.2-.7l-3-1.5c-.2.4-.4.8-.5 1.1-1-.4-1.9-.8-3-1.3-.3-.8.4-1.6 1.3-1.6 1.8-.1 2.7-1.3 3.7-2.5-.4.1-.9.1-1.3.3-2.8 1-5.5 2.5-8.7 1.8-.2 0-.5.1-.6.2-.7.6-1.3 1.2-2 1.9-2.3-3.3 2-2.5 2.7-3.9-.9-1.6-2.2-1.5-3.6-1.2-.3.1-.6.4-1.1.7.6.3.9.4 1.4.6-.3.5-.6.9-.7 1.4-.3 1.5-1.4 1.1-2.4 1-.4 0-.7-.3-1-.5.4-.6.8-1.2 1.2-1.7.1-.1.1-.2.1-.4-.5-.2-1.1-.4-2.2-.8.7-.2 1.2-.3 1.8-.5h-3c-.1.4-.3.9-.4 1.3h-.5c-.1-.4-.2-.8-.3-1.3h-10.8c-.3.2-.8.3-1.7.4-.1 0-.1.2-.3.4.8.7 1.6.8 2.6.6 1.2-.2 1.7.4 1.4 1.4-.1.4 0 .9.1 1.4.5-.2 1.1-.4 1.5-.7.2-.2.3-.6.5-1.2.5.7.8 1.2 1.2 1.7l.9 1.2c-.5.2-1.1.4-1.6.4-1.1 0-2.2-.2-3.3-.2-.3 0-.7.5-.8.8s.3.6.5.9c.3-.2.6-.4.7-.5.9.2 1.6.4 2.4.7.6.2 1.6.7 1.6 1-.1 1.9 1.2 2.5 2.5 3.2.5-.5.9-1 1.5-1.7.6 1.4.3 2.3-.8 2.7-1.3.5-1.3 1.2-.8 2.3.5 1 .7 2.1 1.1 3.5.3 0 1 0 2.1-.1-2.2-1.6-.9-3.2-.1-3.8 2-1.5 3.4.3 4.8 1.8.4-3.1 1-3.2 3.5-2.8.3 0 .7.3.9.2.6-.3 1.4-.6 1.7-1.1.2-.3-.3-1.1-.5-1.7.4-.2 1.2-.6 1.3-.5 1.5 1.7 2.1.7 2.6-1.5.7.9 1.5 1.6 1.4 2-.4 2.2.8 2.4 2.4 2.4 1.3.1 2.1 1.5 1.4 2.4-1.8 2.4-3.7 4.7-5.7 7-.3.4-1 .5-1.5.7 1.1-1.4 2.2-2.7 3.3-4.1 1.4-1.8 1.3-2.6-.3-4.2-1.1-1-1.8-.8-2.2.6-1.6-.1-3.3-.2-4.9-.4s-2.4.2-2.6 1.8c-.5 3.2-3.2 3.9-6.2 4.1-.5 0-.9.3-1.4.4.2.4.2 1.1.5 1.2.4.2 1 0 1.4-.2.6-.2 1-.6 1.6-1l.3.3c-.6 1-1.1 2-1.7 3 .5.4.9.8 1.4 1.2l-.3.3c-.4-.1-.9-.2-1.4-.3.3 1.3.4 1.3 2 1.1 1.9-.3 2.8.2 3.5 2.1-1.1.3-2.2.5-3.5.8 1.1.6 1.9 1 2.7 1.3.5.2 1.5.3 1.8.1 1.1-1.1 2-.6 3.4-.2-1.9 2.1-4.8 1.5-6.9 3.2.7.2 1.1.3 1.5.5-1.1 2.4.4 2.7 3.7 3.2-.1.2-.4.3-.6.4-.9.6-2.7 1.2-.3 2.3.1 0 .1.3.2.4.5 1 1.2.9 2 .4.4-.3.9-.6 1.7-1.1-.2 1-.3 1.4-.4 1.9.1.1.2.2.4.3.8-.6 1.5-1.1 2.3-1.7.2.4.4.8.6 1.1 1.1-.3 2.1-.6 3.4-1-.8 1.3-1.3 2.1-1.8 2.9 1.5-.8 2.9-1.7 3.2-3.4.9.4 1.8.8 3 1.3-.5.8-.9 1.5-1.3 2.2 2.2-.8 3.3-2.5 4.1-4.5-.5.1-.8.5-1.3.7s-1 .1-1.5.2c.1-.5.2-.9.4-1.4.2-.4.7-.9.6-1.3-.2-1 .2-1.5 1-1.9s1.5-.8 2.2-1.2c-.1-.1-.1-.2-.2-.4-.6.1-1.2.2-2.2.5.4-1 .7-1.6 1.1-2.5-1.3.8-2.4 1.5-3.4 2.2.2.3.4.7.6 1.1-.5.3-1 .6-1.5.8-2.5.4-5.1.9-7.6 1.3-.4-.4-.7-1.2-1.1-1.3-1.6-.4-1.6-1.4-1.4-2.7.7 0 1.7-.2 1.9 0 1.3 2 3.2.9 4.8.9.6 0 1.3-.2 1.9-.3V33c.5.2.8.3 1.2.4-.3-2 .1-2.5 1.8-2.3.3 0 .9-.2.9-.2 0-.5-.1-1-.2-1.5 0-1.3.5-1.9 1.8-2.1 1.8-.4 3.6-1.2 5.4-1.8-.3-.5-.6-.9-.9-1.3 1 0 1.5-.3 2.4-1M320.6.9c-.1 0-.2 0-.3-.1.1-.1.1-.2.1-.3.1.1.2.1.2.2.1 0 .1.2 0 .2m8.4 3.6s0 .1.1.1c-.1 0-.1.1-.2.1l-.1-.1s.1 0 .2-.1m-5.1.9c.4-.7.7-1.5 1.1-2.2h.4c.1.4.4 1.1.2 1.3-.5.4-1.1.6-1.7.9m5.2 8c-.3-1.5-.5-2.8-.7-4-3.5.1-3.5.1-3.4-1.2 1.8.7 3.4.4 4-1.9 1.7 1.5-.6 4.1 2.1 4.9-.8.8-1.3 1.4-2 2.2m2.6-6.8c0-.2-.1-.3-.1-.5.4-.1.9-.3 1.3-.4.1.2.1.4.2.6-.5.1-1 .2-1.4.3m4.2 6.4c-.4-.5-.6-.8-.8-1.1.4-.2.7-.6 1.1-.6.3 0 .6.4 1 .6-.4.3-.8.6-1.3 1.1m-1-3.4c-.1.1-.7-.2-.7-.4 0-.4 0-1.1.3-1.3 1.1-.6 2.3-1.1 3.5-1.6.1.2.3.4.4.6-1.3 1-2.4 1.9-3.5 2.7m4.5 1.6c-.1.1-.1 0 0 0m0-.1c-.1.1-.2.1 0 0m2.3-3.7c-.3-.6-.7-1.3-1-1.9.2-.1.4-.2.5-.3.3.7.6 1.3 1 2-.1 0-.3.1-.5.2m3 .2c.3.6.5 1.1.8 1.7-1.7-.2-1.8-.3-.8-1.7m-11.4 17.9c-.1-.1-.2-.2-.2-.3.1 0 .2-.1.2-.1.1 0 .1.1.2.2-.1 0-.2.1-.2.2m16 11.4c.9 1.5-.1 2.2-1.1 3-1-1.6.3-2.2 1.1-3M348 40c-.1.4-.2.8-.3 1.1-.3-.1-.6-.3-1.3-.5.8-.3 1.2-.5 1.6-.6m-2.6-1.1c0 .3.1.6.1.9-.6.1-1.3.2-1.9.2 0-.2-.1-.5-.1-.7.6-.1 1.2-.3 1.9-.4m-3.4 1c-.1 0-.1.1-.1 0 0 0 0-.1-.1-.1.1.1.2.1.2.1m6.4-19.3.9 1.5-.6.3c-.3-.5-.5-1-.8-1.6.2 0 .4-.1.5-.2m-4.7 4.2.1.1c-.1 0-.1.1-.2.1v-.1s.1 0 .1-.1m-1.4 2.5c-.1 0-.1 0-.1-.1 0 0 .1 0 .1.1m1.7-10.4c.2.1.6.5 1.6 1.1-1.4.6-2.4 1-3.4 1.4 0-.1-.1-.2-.1-.3.5-.6 1.1-1.3 1.9-2.2m-6.9-.3q1.65.3 3 .6c.1.2.1.4.2.6-.9.4-1.9.9-3.2 1.4zm3 4.8c0 .1.1.2.1.2 0 .1-.2.1-.2.2l-.2-.2c.1-.1.2-.2.3-.2m-.4-1.7c-.1-.1-.1-.2-.2-.3.1 0 .2-.1.2-.1.1.1.2.2.1.2.1.1 0 .2-.1.2m-.6 8.4c-.1-.2-.1-.4-.2-.6.5-.1 1-.3 1.5-.4.1.2.1.4.2.5-.5.2-1 .3-1.5.5m1.3 3.9c-.2-.8-.3-1.6-.5-2.4.2-.1.4-.1.6-.2.2.8.4 1.6.5 2.5-.2 0-.4.1-.6.1m-2.7-6.2c1.3-.8 2.5-1.5 3.7-2.2-.2 2.3-1.4 3-3.7 2.2m3.9 4.5c.1-.6 1-.9 1.9-1.6.3 1.4.4 2.3.6 3.2-.9-.8-3 .4-2.5-1.6m3.7-.2c-.1 0-.1-.1-.2-.1l.1-.1s.1 0 .1.1zm.1-1.4v-.1c.1 0 .1.1.2.1zm.3-6c.1-.2.3-.4.5-.5.1 0 .4.2.4.3 0 .2-.2.4-.4.7-.2-.2-.5-.4-.5-.5m.9 7.3c-.1-.1-.1-.2-.2-.4.6-.2 1.1-.5 1.7-.7 0 .1.1.2.1.3-.5.3-1 .5-1.6.8m3.2-1.4h.1l-.1.1zm.1 1.7v-.7c.6.1 1.1.2 1.7.4-.5.1-1.1.2-1.7.3m1.3-5.5c-.7 1-1.5.9-2.7 0 .8-.5 1.5-1 2.2-1.4.7-.2 1.4-.4 2.5-.7-.9.8-1.5 1.4-2 2.1M324 26.3c.2.3.5.5.8.6.2.1.5 0 .8 0 0-.3 0-.7-.2-.9s-.6-.3-1-.3c-.2 0-.5.5-.4.6m1.5.7q0-.15 0 0m-.1 2.9c1.4-1 0-2 .1-2.9-.6.9-1.3 1.8-.1 2.9"/><path fill="#000" d="M324.7 16.1q0 .15 0 0c.1.1.2.1.2 0V16c-.1.1-.1.1-.2.1m-218.5 4.7c0-.2-.5-.6-.5-.6-.3.2-.6.4-.7.7-.1.2.3.5.6.9.2-.5.5-.7.6-1m217.6 9.8c0 .1.1.1.2.2 0-.1.1-.2.1-.3s-.2-.1-.2-.2c-.1.1-.1.2-.1.3m2.7-6.9c-.1-.2-.3-.4-.5-.5s-.4.1-.8.2c.6.4.8.6 1 .7.1 0 .4-.3.3-.4m-2.3-9.9h-.3v.2h.3zM322 9.6c-.1 0-.2.1-.2.2l.3.3c.1-.1.1-.2.2-.2-.2-.2-.2-.3-.3-.3m0 2.3h.1v-.1zm-2.7-2.4v.2h.1v-.2c0 .1 0 0-.1 0m3 23c.2-.6.3-1.3.5-1.9-.2 0-.3-.1-.5-.1-.2.6-.4 1.3-.5 1.9.1 0 .3.1.5.1m-3-19.3c.5-.2 1-.3 1.5-.5-.1-.2-.1-.3-.2-.5-.5.2-.9.4-1.4.6 0 .1.1.3.1.4m4.7 5.1c.1-.1.2-.1.3-.2-.1-.3-.2-.5-.4-.8-.1.1-.2.1-.3.2.1.3.3.6.4.8m-.8 5.3c.6.1 1 .1 1.4.2.1-.2.1-.4.2-.6-.4-.1-.7-.3-1.1-.3-.2 0-.3.4-.5.7M99.8 47.1l-.1.1c.1 0 .1.1.2.1 0 0 0-.1.1-.1-.1 0-.1-.1-.2-.1m-27.6 1c.6-.2 1-.4 1.1-.5-1.2-.3-2.5-.7-3.9-1.1.2.4.3.8.4 1.1 0 .2-.1.3-.1.5zm28.2-3.5c0 .1-.1.2-.1.2 0 .1.2.1.2.1 0-.1.1-.2.1-.2s-.1 0-.2-.1m-29.9-4.9c-.1 0-.2-.2-.2-.1-.1 0-.1.1-.2.2.1.1.2.2.2.1.1 0 .2-.1.2-.2m40.3 6.3c-.3-.2-.5-.4-.7-.5-.1 0-.4.3-.4.4 0 .2.2.5.4.5.1.1.3-.2.7-.4m-2.9-3-.1-.1-.2.2h.1c.1 0 .2 0 .2-.1m-1.4 3.7c-.1 0-.2.2-.3.3l.3.3c.1-.2.2-.3.3-.4 0-.1-.2-.2-.3-.2m-42.6 1.4h5.3c-3.2-1.2-6.4-1.9-9.9-1.2l.6 1.2h3c.4-.1.7 0 1 0m.5-4.4c0 .1.2.2.2.3.1-.1.2-.2.4-.3-.2-.1-.3-.2-.4-.2s-.2.2-.2.2m1-14.1-.1.1c.1.1.2.1.2.1s0-.1.1-.1c0 0-.1 0-.2-.1m-2-1.3c.1.1.2.4.4.4s.3-.1.7-.3c-.3-.2-.4-.4-.6-.4s-.3.2-.5.3m-4.6 13.9c.7.4 1.3.8 2 1.1.2-.3.3-.6.5-.9l-2.1-.9c-.1.2-.2.4-.4.7m3.1-3.3c-.3-.3-.9-.3-1.3-.4-.6-.1-1.3-.1-1.9-.3-1.8-.6-3.1.6-2.9 2.3h5.5c.4 0 .8-.2 1.2-.3-.3-.4-.3-1-.6-1.3m.1-8.2c0 .2-.1.3-.1.5.4.5.8.9 1.2 1.4.2 0 .4-.1.6-.1 0-.6.1-1.3-.2-1.7-.2-.3-1-.1-1.5-.1m60.3-3.7c.1.1.3.2.4.2.2 0 .3-.2.6-.4-.4-.2-.6-.3-.7-.3-.1.1-.2.3-.3.5M68.9 39.5c-1.7-.9-2.9-1.1-4.5 0 1.6.9 2.8.8 4.5 0m54.7-17.2c.6.9 1.8 1.2 2.7.2.7-.8 1.3-1.3 2.4-1.3.4 0 .8-.9 1.2-1.4-.5-.2-.9-.5-1.4-.7q-.15-.15-.6-.3c.7-.9.4-1.5-.4-1.7.7-.9 1.3-1.9 2-2.7.4-.5 1.1-1 1.7-1.1 1.6 0 1.9-.9 1.8-2.4-1.4.7-2.9 1.1-3.8 2.1-1.4 1.5-2.3.7-3.3-.1-1-.7-1-1.3.1-1.9l2.7-1.2c.8-.4 1-1.4.3-1.7-1.2-.4-2.7-.8-3.8-.4s-2.1.6-2.9 0c-1.4-.9-2.3-.7-2.8.9-.4-.3-.7-.6-1.1-.9V12h.3c.2-.6.4-1.2.7-1.9.8.4 1.4.8 2.3 1.3-.8.2-1.3.4-2.3.7.9.5 1.3.8 1.8.9 1.3.4 1.5 1.1.8 2.2-.3.4-.3.9-.5 1.4.5.1 1 .1 1.6.2.7.2 1.3.4 2 .6v.5c-.5.1-.9.3-1.4.4v1.6c-1.7.6-3.4 1.1-5 1.6.1.2.1.4.2.6.9-.2 1.8-.3 2.6-.6.8-.1 1.4-.3 2.1.8m2.6-3.1c0 .2.1.3.1.5-.4.1-.7.1-1.1.2 0-.2 0-.3-.1-.5.3-.1.7-.1 1.1-.2m-1.6-5.1v-.4c.3 0 .6.1.9.1v.4c-.3-.1-.6-.1-.9-.1m3.7 20.8c.3.3.8.7 1.1.6.4-.2.9-.6 1-1.1.5-1.7 2-3 3.9-3 .7 0 1.4.1 2.1.1.2-.4.4-.9.8-1.7.5 1.2.9 1.9 1.2 2.7.4 1.1 1.1 1.4 2.2.9 1-.4 2.1-.6 3.5-1-.4-.3-.8-.9-1.3-1.2-.9-.6-1.1-1.1-.5-2 .3-.5.5-1.1.5-1.6-.2-1.3-.6-2.5-1-3.8-.5-2-.9-2.2-3.1-1.8-.1.9-.1 1.9-.2 2.9-.9-.4-1.7-.7-2.3-1 .2-.5.4-.9.6-1.4-.5-.2-1.1-.4-1.6-.6-.2-.1-.4 0-.6.1-2 .5-4.1 1-6.1 1.5-1.2.3-1.7 1.1-1.1 2.2.3.6.8 1 1.3 1.7.2-1.1.3-2 .5-3 .8.7 1.2 1.1 1.9 1.7.2-.6.3-1.2.5-1.4.6-.4 1.3-.6 1.9-1 .2.6.8 1.4.6 1.8-.4.8-1.1 1.7-1.9 2-2 .7-4.2 1.1-6.3 1.6-.4.1-.7.5-1.1.7.2.3.4.7.7.8 1 .5 2.1.9 3.4 1.4-.9.6-1.5 1-1.9 1.4.5.6.8 1.1 1.3 1.5m12.8-7.9.1.1s0 .1-.1.1-.1-.1-.2-.1c.2 0 .2-.1.2-.1m-8.2 1.4c1.9-1 3.9-1.7 5.9-2.5 0 .1.1.2.1.3l-2.1 2.7c-2-.5-2-.5-3.6 1.6-.9-.6-1-1.7-.3-2.1m-4 2.4c-.1-.3-.1-.5-.2-.8.8-.2 1.5-.3 2.3-.5.1.3.1.5.2.8-.8.2-1.5.3-2.3.5m-11.7-3.5c.1.2.3.3.4.3s.4-.2.4-.3c0-.2-.2-.3-.4-.5-.2.3-.4.4-.4.5m2.8.9s.1 0 .1-.1V28c-.1 0-.2.1-.1.2-.1-.1-.1 0 0 0m.6-3.2c.3 0 .6-.3 1.2-.6-.6-.3-.9-.6-1.2-.5-.2 0-.5.3-.7.5.2.2.4.6.7.6m1.3 14c-.6.2-1.1.4-1.7.6 0 .2.1.3.1.5.6-.2 1.2-.3 1.7-.5 0-.2-.1-.4-.1-.6m-4.7 4.9h-.1l.1.1zm.6-4c-.6.4-1.3.7-1.8 1.1 0 0 .3.5.4.7l1.8-1.2c-.2-.2-.3-.4-.4-.6m6.8.5.1.1v-.1zm-4.4 5.3c1.1-.6 2.2-1.2 3.5-1.9-2-.8-3.2-.3-3.8 1.4.1.2.2.4.3.5m1.5 2.4c1.3-.4 2.5-1.1 2.9-1.8-2 .6-4.1.5-6.1 1.8zm-6.7-1.4c-.1-.3-.4-.6-.7-.9-.2.2-.7.5-.7.7 0 .3.3.7.7 1.3.4-.6.8-.9.7-1.1m-3.7-5c.1.3.2.6.2.9.7-.2 1.5-.5 2.2-.7-.1-.2-.1-.5-.2-.7-.7.2-1.5.3-2.2.5M312.5 2.2c.2.7.4 1.3.6 2 .2-.1.5-.1.7-.2-.2-.7-.4-1.3-.6-2-.3 0-.5.1-.7.2m1.6 3.1.2.2s0-.1.1-.1l-.1-.1c-.1-.1-.2-.1-.2 0m-.2-5c-.1 0-.2.2-.2.2l.3.3c.1-.1.2-.2.3-.4-.1 0-.3-.1-.4-.1m.6 18.9-.7-.1c-.1.6-.2 1.2-.2 1.8.3 0 .6.1.9.1zM54.9 32.9c1 2.6 1 2.6 3.2 1.8.6-.2 1.3-.2 1.9-.3q.75-.15 1.5-.6c.2-.1.3-.6.3-.8 0-.1-.4-.4-.6-.4-1.8.2-1.9-.7-1.5-2.1.3-1-.2-1.4-1.2-1.3-1.7.2-2.2 1.5-3 2.7.6.5 1.1.9 1.6 1.3-.1.2-.2.3-.3.5-.5-.3-1.1-.5-1.9-.8m254.9-10.8c.5-.3 1.4-.9 2.7-1.6-2.2.1-2.7.6-2.7 1.6M311 6.5c0 .1-.1.2-.1.3.2.1.5.2.7.2 0-.1.1-.2.1-.3-.2-.1-.5-.1-.7-.2m-1.6 19.4c-.4.2-.7.6-1.1.9.4.2.8.7 1 .6 1.4-.7 2.8-.9 4.3.5.1-3.2 3-1.8 4.2-3.1-.6-.8-1-1.6-1.6-2.2-.4-.4-1.1-.6-1.6-.6-.3 0-.6.6-.8 1-.3.5-.5 1.1-1 1.4-1.1.6-2.3 1-3.4 1.5m-8.3-14.8c1.6-1.5 3-3.2 4.8-4.3 1.1-.6 1.4-1.1 1.2-2.7-1.3 1.2-2.1 2.4-3.3 3s-2.8.6-4.4.8c.7.4 1.3.9 2 1.3-.4.7-.8 1.2-1.2 1.8.3.1.6.1.9.1m9.5-1.5c.8-.1 1.5-.2 2.3-.3 0 0 0-.1.1-.4h-2.5c0 .2.1.5.1.7M310 14c0 .1-.1.1-.1.2h.1l.1-.1zm-5.8 3.7c-.3.3-.2.9-.3 1.4.2 0 .4.1.5.1l5.7-3c-1.8-1-4.1-.4-5.9 1.5m9-.6-.1-.1c0 .1-.1.1-.1.2l.1.1c0-.1.1-.1.1-.2M174.7 5h.2v-.2c-.1 0-.1 0-.1.1-.1 0-.1.1-.1.1m152.6 42.4c.3.1.5.2.8.3l-.6-.6c-.1.1-.1.2-.2.3M51.5 38.7c.6.4 1.3.7 1.9 1.1.1-.3.4-.9.4-.9-.6-.4-1.2-.7-1.8-1-.2.3-.4.5-.5.8m-1.1 4.4c.2.9.3 1.7.5 2.6.3-.1.5-.1.8-.2-.2-.9-.3-1.7-.5-2.6-.3.1-.5.1-.8.2m1.8-.1c.2-.1.5-.2.7-.3-.2-.4-.5-.8-.7-1.3l-.6.3c.3.4.4.8.6 1.3m2.1 3.8c.3-.5.6-.8.5-1-.2-.4-.5-.7-.8-1.1-.2.2-.6.4-.6.5.2.5.5.9.9 1.6m265.4-1.6s-.1 0-.1.1.1.1.1.2c0 0 .1 0 .1-.1s-.1-.2-.1-.2m-4.5-28.9c-.2.1-.4.2-.5.3.3.5.6.9 1 1.4.2-.1.3-.1.5-.2-.3-.5-.6-1-1-1.5M329 42.4c-.7.3-1.4.7-2.1 1.1.8-.1 1.6-.1 2.4-.2-.1-.4-.2-.6-.3-.9m-12.1-26.2h.1v-.1zm10 27.2h-.1zh-.2c.1.1.1.1.2 0m.9-1.4c.3-.1.6-.3 1-.4-.2-.3-.3-.8-.5-.9-.4-.2-.9-.4-1.4-.4-1.4 0-2.8.1-4.2.2-.3 0-.7.2-1 .3 0 .2-.1.5-.1.8 1.2.3 2.3.7 3.5.9.9 0 1.8-.3 2.7-.5m-6.4 2.6c0 .2.6.6.8.5 1.5-.5 3-1.1 4.5-1.6-.5 0-1 0-1.5.1-.9.2-1.9.9-2.7-.4-.1-.1-.8 0-.8.1-.2.3-.3.8-.3 1.3M8.7 19.7c.3.3.5.7.7 1 .2-.1.4-.3.5-.4-.3-.3-.5-.6-.8-1-.1.1-.2.3-.4.4m105.6-13c-.1.1-.2.3-.2.4s.2.2.3.3c.1-.2.2-.4.2-.5 0 0-.2-.1-.3-.2m.1-2c-.1 0-.3.2-.3.3s.1.2.2.4c.2-.1.3-.2.4-.3-.1-.1-.2-.3-.3-.4M109 9.9c.4.4.7 1 1.1 1 1.1.1 2.3-.1 3.4-.3.2 0 .5-.7.5-1-.1-.3-.6-.5-.6-.6-1.3.1-2.2.1-3.1.2-.5.1-.9.5-1.3.7m7.9-6-.1.1h.1zm-1.7-1.1c-1.5-.6-2.6-1.1-4.2-1.7.6 1.7 2.3 2.3 4.2 1.7m-.6 23.3c0-.6 0-1.2-.2-1.7-.2-.7-.7-1.3-1-1.9-.1-.2-.2-.3-.2-.5-.4.5-1.2 1-1.3 1.5-.1.9.2 1.9.6 2.7.3.3 1.4 0 2.1-.1m-2.8-10.2c-.4.3-.8.6-1.2 1 0 0 .3.5.3.4.4-.2.9-.5 1.3-.8-.1-.2-.2-.4-.4-.6m-1.2-1.1c0 .1.1.2.1.2.1 0 .2-.1.2-.1l-.1-.2s-.1 0-.2.1M108.4 31c1-.3 1.9-.8 2.9-1.3-.1-.2-.1-.3-.2-.5-1 0-1.9-.1-2.9 0-.3 0-.6.5-1 .7.5.5 1 1.2 1.2 1.1m6.5-16.6c.4-.2 1-.3 1.2-.7.4-.7.6-1.5.8-2.3.1-.7 0-1.5 0-2.6-2.2 1.6-1.8 3.5-2 5.6m-12.4-7.1c.5-.3 1.5-.7 2-1.4.2-.3-.5-1.4-.9-2-.8-1-1.1-1.9.3-2.7.3-.2.5-.6.6-1.1h-2.9c-.7 1.2-1.3 2.5-1.7 3.8-.3 1.4 1 3.4 2.6 3.4m-2 8.1c0-.2-.1-.4-.1-.6-.5.1-1 .2-1.5.2 0 .2.1.4.1.7zM99.1 2.6c.1 0 .1.1.2.1v-.1l-.1-.1c0 .1-.1.1-.1.1m6.8 15.8.1.1c0-.1.1-.1.1-.2h-.1c-.1 0-.1.1-.1.1m-.8 8.5c-.1-.1-.1-.2-.2-.2-.1.1-.2.1-.2.2s.1.2.2.2c0-.1.1-.1.2-.2m3.2-8.9h.1v-.1zm-.4 8.6c.1.3-.1.6-.2 1.4 1-.7 1.6-1.1 2.3-1.7-.5-.4-.8-.6-1.2-.9.3-.5.5-.9.8-1.6-.9-.2-1.6-.6-2.3-.5-.5.1-.8.7-1.3 1.1.4.3.8.5 1.1.9.4.4.7.9.8 1.3m5 3.1c1.1.3 1.9.5 3 .8-.9-2.2-1.3-2.3-3-.8M103.6 48h-.4v.1h.4zm206.2-2.3c-.5.1-1.1.3-1.6.7-.6.5-1.1 1.1-1.7 1.7l-.1.1h6.1c.4-1.1.7-2.1 1-3-1.4.2-2.5.3-3.7.5m5.3 1.1c3.1.1 3.7-.6 2.7-3.1-1.9.1-1.8 1.9-2.7 3.1M76.6 47.9c-.2.1-.4.1-.6.2h.7c-.1 0-.1-.1-.1-.2m.9-1.6c-.8.2-1.7.5-2.5.7.1.2.1.4.2.6.8-.3 1.7-.5 2.5-.8-.1-.2-.1-.4-.2-.5M75.4.1c-.1.1-.2.3-.3.4.2.2.3.4.5.6.6-.3 1.3-.6 1.9-.8.5-.1 1-.2 1.6-.3h-3.7zm228.8 15.3c1.4.6 2.3-.8 3.6-.8 0-.2-.1-.4-.1-.6-1.2.3-2.4.5-3.6.8 0 .1 0 .4.1.6m12.2 13.4c-.1-.1-.1-.2-.2-.2s-.2.1-.2.2c.1.1.1.2.2.2s.2-.1.2-.2m-.5 1.7c.1.2.2.3.3.5.4-.3.7-.6 1.1-1-.1-.1-.2-.2-.3-.4-.4.3-.7.6-1.1.9M103 42.5c-.1.1-.3.2-.4.4.5.5.8 1.3 1.4 1.4.7.1 1.4-.3 2.1-.5 0-.2-.1-.3-.1-.4zm16-36.3c.1 0 .1-.2.2-.2-.1 0-.2-.1-.2-.1-.1 0-.1.2-.1.2-.1.1 0 .2.1.1m1-1.4c2.7 1.7 6.2 1.7 8.5-.1-1-.2-1.9-.3-2.7-.5.6-.8 1.1-1.4 1.6-2-.6-.2-1.3-.4-2-.6.3-.5.7-1 1-1.5H124c0 .3-.1.6-.2.6-2.3.6-1.8 3.3-3.8 4.1m3.6-1.5c-.1-.1-.3-.2-.3-.3s.1-.2.2-.4c.1.1.2.2.4.3-.1.2-.2.3-.3.4M107.7.2c.6.2 1.1.6 1.7.6 1.1 0 2.1-.3 3.2-.4.7-.1 1.4-.1 2.1-.2zm199.6 11.9c0 .1-.1.1-.1.2h.1l.1-.1s-.1 0-.1-.1M126.9 40.4c0 .2.1.3.1.5 1.8-1.3 3.5-2.5 5.4-3.9-2.3-.9-5.1-.3-7 1.5.6.8 1.1 1.3 1.5 1.9m-10.8-24.6c-.4.5-.9 1-1.1 1.6-.1.3.4.8.9 1.7.6-1 1.1-1.5 1.2-2.1 0-.3-.7-.8-1-1.2m21.3 32.1c-.1-.1-.4 0-.6 0-.2.1-.4.1-.6.2h1.4zm-10.2-3.7c-.4.5-.6 1.1-1.1 2.2 1.3-.2 2.2-.3 3.1-.6.5-.2.9-.7 1.3-1-.7-.4-1.4-.9-2.2-1.2-.3 0-.9.3-1.1.6"/><path fill="#000" d="M126.9 27v.1h.2c0-.1 0-.1-.1-.1 0-.1-.1 0-.1 0m20.7-13.4h.2v-.1h-.2zm.9-2.1c-.3-.2-.4-.4-.6-.5-.1 0-.4.1-.4.2 0 .2.1.5.2.5.2.1.5 0 .8-.2m-6.1 36.6.2.1v-.1c-.1 0-.1-.1-.2 0m-.2-36.2c.8 1 1.8.6 2.7.3 1.2-.3 1.4-1.3 1.3-2.4 0-1-.6-1.4-1.6-1.5-.3 0-.7-.2-.9-.3.7-1.6 1.3-3.1 1.9-4.5.1-.3.5-.5.9-.6 1.6-.7 3.2-1.3 4.8-2-1.6.4-2.3 0-2.6-.8H141c-.3.1-.6.1-1 .2-.7.2-1.5.3-2.1.8-1.3 1-.4 2.3-.3 3.5 0 .2 1.2.1 1.8.2s1.3.1 1.6.5c.4.7.5 1.5.6 2.3 0 .1-.5.3-.7.5-.1-.3-.4-.6-.4-.9 0-.4.1-.8.2-1.7-1.7 1.1-1.8 2.4-1.6 3.7.1 1.1.7 1.7 2 1.7.3 0 .8.6 1.1 1m2.4-1.3c.1-.1.3.1.6.2-.2.2-.4.5-.5.5s-.4-.2-.4-.3.2-.3.3-.4m5.1 8.1c.2-.1.4-.1.5-.2-.2-.4-.3-.8-.5-1.2-.1 0-.3.1-.4.1.1.5.3.9.4 1.3m-.4 28.1c-.7-1.3-1.8-1.4-2.8-.4l-1.7 1.7h5c-.2-.4-.3-.9-.5-1.3m-4-18.1c.1-.2.2-.3.3-.4-.1-.1-.2-.2-.3-.2s-.3.2-.3.3zm1.8 8.8h-.1v.1zm-2.8 4.1c-.1.3.6.8 1.1 1.4.6-.6 1-1 1.4-1.3-.5-.4-.9-1-1.4-1.2-.2-.1-1 .6-1.1 1.1m2.3-11.1c-.5.1-.9.5-1.3.8.3.3.7.7 1 .7.4 0 .9-.3 1.8-.7-.8-.4-1.2-.8-1.5-.8M229.4.3c.1 0 .1-.1.2-.1h-.3c.1 0 .1.1.1.1m23.2-.2H249c.2.1.5.2.8.3.7.3 1.2 1.1 2 2 .3-.7.6-1.5.8-2.3m-14.2 27.2s-.2-.4-.2-.6c-.4.2-.8.4-1.3.6l.3.6zm-99.6-7.2c.2.1.7-.4 1.4-.8-.7-.5-1.1-1-1.6-1.1-.3-.1-.7.4-1.1.7.5.3.9.9 1.3 1.2m107.7 4.5c1.7-.5 3.3-.9 5-1.4-.1-.3-.2-.6-.3-.8-1.7.5-3.3 1-4.9 1.6 0 .2.1.4.2.6M137.9 10.8l-.1.1c.1 0 .2.1.2.1v-.1c0-.1-.1-.1-.1-.1m-6.4-1.9c.2-.2.6-.5.7-.8.4-1.2 1.1-1.4 2.3-1.4s1.5.6 1.6 1.6c0 .2.3.6.6.7.2 0 .7-.3.7-.5-.3-1.3-.5-2.5-1.1-3.7-.1-.2-1.5.2-2.3.4-.5.1-1 .1-1.5.1.2-.5.3-1.1.6-1.5s.7-.8 1.1-1.2c-.2-.1-.3-.2-.5-.3-.5.1-1.1.3-1.6.3s-1.5-.4-1.5-.3c-.3.6-.6 1.4-.5 2.1.1 1.2.4 2.4.7 3.5.1.4.5.7.7 1m2.9 1.3.3.3.2-.2c0-.1-.1-.1-.2-.2s-.2 0-.3.1m124.9 3.3c.2-.7.3-1.5.5-2.4-1.6.2-1.8 1.1-1.9 2 0 .4.3.7.5 1.1.3-.2.8-.4.9-.7M72 3.7c-.3.3-.7.6-.8.9s.2.7.5 1.5c.5-.7.9-1 .9-1.3 0-.4-.4-.8-.6-1.1m.2 5.3v-.1s-.1 0-.1-.1V9zm184.4-7.6c.9 0 2.2-.1 2.7-1.2h-6c1.2.5 2.2 1.2 3.3 1.2m1.1 1.5c.4.3.8.9 1.1.9.6-.1 1-.6 1.6-.9l-1.2-1.2c-.6.4-1 .8-1.5 1.2M67.9 6.3c.4.3 1.5.4 1.7.2 1-1.3-.1-2.1-1.1-3-.2.9-2.1 1.6-.6 2.8m190.2 11.6c.3-.2.7-.3 1-.5-.1-.2-.2-.3-.2-.5-.3.2-.7.3-1 .5.1.2.2.3.2.5M75.2 23.4c.3-.6.6-1.1.9-1.7-.2-.1-.4-.3-.6-.4l-.9 1.5c0 .1.4.4.6.6m.4-4.7c-.6-.3-1.1-.7-1.2-.6-.5.5-1 1-1.4 1.6.3.2.7.7.8.6.6-.4 1.1-.9 1.8-1.6m182.9 9.2q0 .15 0 0m.9.5c-.3-.1-.6-.3-.9-.4.2.2.4.5.5.7.2-.1.3-.2.4-.3M78.5 21.5c-.2-.4-.4-.7-.6-1.1-.1.1-.3.1-.4.2.2.4.3.7.5 1.1.2 0 .3-.1.5-.2m229.4 22.7c-.6-.3-1.1-.7-1.7-1-.1 0-.4.4-.5.7.6.3 1.2.7 1.8 1 .2-.3.3-.5.4-.7m-1.8 2.5c.1 0 .2.1.2.1.1 0 .1-.1.2-.2-.1-.1-.2-.2-.2-.1-.1 0-.1.1-.2.2m-4.9-2.2c-1.1-.6-2.5.3-2.9 1.7.5.2 1.1.4 1.7.6-.1.6-.1 1 .1 1.3h1.3c.2-.8.4-1.4.4-2 0-.5-.2-1.4-.6-1.6m-44.8-23.8c-.3.2-.6.5-.8.7.1.1.2.2.2.3.3-.2.6-.5.9-.7zm2.2 4.5c.5.2.9.4 1.4.7-2 1.2-2.4 1.1-3.4-.9-.3.6-.5 1.1-.7 1.7-1.6-1.5-1.9.5-2.7 1-.4-.3-.9-.8-1-.7-1.7 1.4-3.9-.3-5.8 1.5-1.7 1.5-4.6 1.7-7 2.4-.7.2-1.5.4-2.6.6 1 1.2 1.9 1.1 2.8.6 1.1-.5 2.2-.9 3.4-1.2 2.7-.6 5.3-1.2 8-1.8 2.5-.5 5-.9 7.5-1.4 1.3-.6 2.7-1.2 4.1-1.8-3.2-1.8-3.2-1.8-4-.7M255 2.5l-.1.1c.1 0 .1.1.2.1l.1-.1c-.1 0-.1 0-.2-.1M340.7.1h-.9c.1.2.2.4.3.7.2-.2.4-.4.6-.7M1.3 29.5c.3-.1.7-.1 1-.2 0-.2-.1-.6-.1-.6-.3 0-.6.1-1 .1.1.3.1.5.1.7M2.5 3.7c.9.2 1.4.3 1.9.4s1 .1 1.5.1c-.5-2-.7-2.1-3.4-.5m6.6 10.1c.6-2-.7-3.4-1.4-5.2-1.9 2.8-1.2 4.9 1.4 5.2m-2.2-9q0 .15 0 0m-1-.6c-.4.3-.9.5-1.1.9s-.1.9-.1 1.4c.6 0 1.3.2 1.7 0 .4-.3.3-1 .5-1.6-.3-.3-.7-.5-1-.7m-5-2.7s-.1 0-.1.1v.1c.1 0 .1-.1.2-.1zm9.6 21.3c-.2-.3-.3-.5-.5-.8l-.3.3c.2.2.4.5.6.7zM2.2 36.3c-.2.2-.3.3-.4.5-.4.7-.7 1.4-1.1 2.1 1 .3 2 .7 3 .9.1 0 .7-1.3.6-2-.2-1.6-.6-3.1-.9-4.6-.1-.5-.4-1.2-.8-1.4-.6-.3-1.4-.2-2.1-.3 0 .6 0 1.2.2 1.7.5 1 1.1 2.1 1.5 3.1m10.6 11.5c.2-.1.5-.2.7-.4-.1-.1-.2-.3-.2-.4-.2.2-.5.3-.7.5 0 .1.1.2.2.3M10.5 15c-.9-.2-1.5-.3-2.1-.1s-1 .7-1.5 1.1c.7.8 1.4 1.8 2.3 2.4.5.3 1.3.1 2 0 0 0 .1-.6 0-.6-.5-.2-1.1-.2-1.6-.4s-.9-.6-1.4-1c.4-.2.8-.5 1.2-.7.5-.2.8-.4 1.1-.7m.5 32.3-.1-.1-.1.1zM.9 8.5c.7.1 1.4.3 2 .5l.4-.4C3 8 2.7 7.5 2.4 7c-.5.3-1.1.7-1.6 1 0 .2 0 .3.1.5m9.6 36.7c.1 0 .2 0 .3-.1v-.3c-.1 0-.2 0-.3.1zM2.6 1.9h-.1V2h.1zm354.6 38.8c0-.1 0-.2.1-.2h-.1c0 .1 0 .2-.1.2zm-.1-10.2-.1.1c0 .1.1.2.1.2.1-.1.2-.1.2-.2 0 0-.1-.1-.2-.1m-.3 4.4c.4-.2.8-.3 1.2-.4-.1-.1-.1-.3-.2-.4-.4.1-.8.2-1.2.4.2.1.2.2.2.4m-4 3.6c.1 0 .2-.1.2-.1 0-.1-.1-.2-.1-.3-.1 0-.2.1-.2.1 0 .1.1.3.1.3m-3.3 9.5-.1.1h.1s0-.1.1-.1zm-2.9-32.8.1.1.1-.1zm-15.9 3c0 .2-.1.4-.1.6.5 0 .9.1 1.4.1 0-.2 0-.3.1-.5-.5 0-.9-.1-1.4-.2m12.8-5.3c0-.2-.1-.4-.1-.6-.9.1-1.8.3-2.7.4v.6c.8 0 1.6-.1 2.4-.1.3 0 .4-.2.4-.3M41.5 42c.2 0 .4-.1.6-.1-.1-.3-.2-.7-.3-1-.2 0-.3.1-.5.1.1.3.1.6.2 1M16 27.4c0-.1-.1-.2-.1-.3-.1.1-.2.1-.2.2s.1.2.1.3c.1-.1.2-.1.2-.2m9.4 13.1c-.1-.2-.2-.4-.4-.6 0 0-.4.2-.4.3 0 .2.2.4.4.7.2-.1.4-.3.4-.4"/><path fill="#000" d="M35.5 47c.1.1.3.2.4.2v.9h4.9c-.3-.9-1.1-1.6-2.4-2.2-.6-.3-1.1-.8-1.7-1.2.1-.7.3-1.4.4-2.2 0-.9-.1-1.9-.1-2.8.2 0 .5-.1.8-.1.2 1.2.4 2.3.5 3.5.1 1 .2 1.6 1.5 1.9 1.8.4 3.8 1 4.3 3h2.4s-.1 0-.1-.1c-.3-.2-.8-.8-.7-.9.2-.4.7-1.1 1.1-1.1 1.7-.1 1.8-1.2 2-2.4.1-.9.6-1.7.7-2.5.1-.9 0-1.9-.2-2.8-.2-.6-.5-1.3-.9-1.8-.3-.4-.7-.9-1.1-.9s-.9.4-1.2.8c-.7.8-1.3 1.7-2 2.6.7 1.5 0 3.2-.9 4.8-.2.4-1.3.6-1.8.5-.6-.2-1.5-1-1.4-1.4.4-1.6 1-3.1 1.7-4.6.6-1.6 1.4-3.2 2-4.8.1-.4-.4-1.2-.8-1.4-.3-.2-1.1.1-1.4.5-.5.7-.9 1.5-1.2 2.3-.6 1.3-1.2 2.7-2.6 3.3-1.5-2.5.5-3.7 2.1-5-1.2-.2-2.1-.4-2.7-.5-.3-1.9-.5-3.4-.8-4.9.8 1.9 2.2 2.1 4.1 1-.1-.7-.2-1.5-.5-2.2-.5-1-.2-1.4.8-1.9.5-.2 1-.9 1-1.3-.4-2.8-1.7-3.3-3.9-1.7-2.2 1.7-3.7 1.3-4.4-1.3-.6-2.4-2.9-4.2-2.2-6.9 0-.1-.1-.2-.1-.3L26.9.2H8.4c.1.5.1 1 .2 1.6.9.3.5.9-.3 1.6-.5.4-.9 1-1.3 1.5V5c1.3-.2 2 .5 2.4 1.7.1.4.5.9.9 1.1 1.3.7 1.3 1.7.9 2.9-.1.3.1.9.3 1.2.7 1 1.8 1.9 2 3 .3 1.6 1.1 1.8 2.3 1.9 2.3.2 2.7.6 3.2 2.7.2.9-1.1 2.6-2.1 2.7-.1-.4-.2-.9-.3-1.3-.1 0-.2-.1-.4-.1-.3.6-.6 1.2-.7 1.6-.7.2-1.3.3-2.1.5 0 0 0-.2-.2-.3-.4-.5-.8-.9-1.2-1.3-.1.5-.1 1.2-.4 1.6-.7 1.2-.6 2 .1 3.4.8 1.6.7 2.2 2.8 2.2 0-.5-.1-1-.1-1.5-.1-.5-.2-1-.3-1.4.8-.1 1.8-.5 2.4-.2 1.2.7 2.2 1.7 3.3 2.7-1.1.6-1.3 2.9-3.4 2.9-.4-.6-.7-1-1-1.5 0 .2-.1.4-.1.5-.8.1-1.6.2-2.4.2.4.6.8 1.3 1.2 1.9-.1.5-.6 1.2-.5 1.8.4 1.6.9 3.2 1.6 4.7.2.4.7.8 1.1.8.3 0 .9-.5 1-.9.3-1.4 1.3-1.7 2.4-1.4.9.2 1.8.9 2.6 1.4.4-.5.8-1.2 1.3-1.6 1.3-1 1.5-2.8.5-4-.3-.4-.8-.6-1.3-.9 2-1.6 4.6-2.3 7.5-2.4-.5 1.1-.9 2.1-1.5 3.4.8 0 1.3-.1 1.9-.1 0 1.6-.8 1.7-1.9 1.4-1.5-.4-2.6.2-3 1.5-.3.9-.8 1.8-1.3 2.7 1.7.8 2.1 1.6 1.5 3.6-.2 0-.4-.1-.6-.1-1.8-.6-1.9-.5-1.8 1.4 0 .4-.1.9-.3 1-1.4.7-.7 1.5-.2 2.3.4-.2.7-.5 1.4-.9.1.9.4 1.6.7 2.4h9.4c.4-.4.6-.8.9-1.2m3.8-24.6c.1 0 .1.1.1.2-.1 0-.2.1-.2.1-.1 0-.1-.1-.1-.2.1-.1.2-.1.2-.1m-1.8 3.1c.1.2.3.4.3.6l-.3.2c-.2-.1-.3-.3-.4-.4 0-.1.2-.3.4-.4M9.8 5.3c-.2-.2-.3-.3-.3-.4s.2-.2.3-.3c.1.1.2.2.2.4 0 .1-.1.2-.2.3M17.1.7c-.1 0-.2-.2-.3-.2.1-.1.1-.2.2-.2s.3.1.5.1c-.2.2-.3.3-.4.3m11.1 11.8c-.3.1-.4.1-.4.1-.2-.3-.3-.6-.4-.9.2-.1.3-.1.4-.2.1.4.2.7.4 1M25.9 8h1.5c0 .1-.1.2-.1.3-.5 0-.9-.1-1.4-.1zm.4 2.7-.1.1s-.1 0-.1-.1.1-.1.1-.2c0 .1.1.1.1.2m-6.2-7.5c.1.2.1.3.2.5 0 0-.1.1-.1 0-.1-.1-.2-.3-.3-.4 0 0 .1 0 .2-.1m.1 31.6c-.2.6-1 1-1.5 1.4-.6-.7-1.2-1.4-2-2.4.7-.7 1-1.3 1.5-1.4.8-.2 2.2 1.4 2 2.4m.5-23.3-.6-1.2c.2-.1.4-.2.6-.2.2.4.3.9.4 1.3.2-.1-.3.1-.4.1m.3-3.9c.3-2.3-.6-4.6 2.2-6.3 0 1 .1 1.7 0 2.5s-.3 1.6-.5 2.4c.2.1.3.2.4.2-.6.3-1.2.7-2.1 1.2m3 .1c.2.1.4.1.6.2-.3 1.3-.6 2.7-1 4.4-1.5-2.1-.7-3.4.4-4.6m.6 17.2c.1 1.4.2 2.5.3 3.9-1.4-1-1.5-2.8-.3-3.9m.8-9.2c.1-.4.4-1 .8-1.2.2-.1.7.4 1.4.8-.6.5-1 .9-1.5 1-.1.1-.8-.5-.7-.6m1.1 12.2c-.1-.3-.1-.6-.2-.9.8-.1 1.6-.2 2.4-.4 0 .2.1.5.1.7-.7.3-1.5.5-2.3.6M29 14.2c-.1 0-.2-.1-.4-.2.1-.1.2-.3.3-.3s.2.1.5.2c-.2.2-.3.3-.4.3M28.1 42c-.2-.8-.5-1.6-.7-2.4.2-.1.4-.1.6-.2.3.8.6 1.6 1 2.4-.3 0-.6.1-.9.2m2.8-5.5c-.1-.2-.3-.4-.2-.5s.3-.2.4-.3c.1.1.1.2.3.4-.2.2-.4.3-.5.4m.1-16.6c-.1 0-.2-.3-.2-.3 0-.1.2-.2.3-.2s.1.2.2.4c-.1.1-.2.2-.3.1m1 14.4c-.2-.2-.3-.4-.3-.4 0-.2.2-.3.3-.5.1.1.4.3.4.4-.1.1-.3.3-.4.5m3.2-9.7c1.4.7.7 2 .7 3.1-.4-1-.9-1.9-1.3-2.8zM20.4 46.3h.1l-.1-.1z"/><path fill="#000" d="M11.7 15.7h.1l-.1-.1zM2.3 43.4c.1.2.2.3.3.5.4-.3.9-.5 1.3-.8-.1-.2-.2-.3-.3-.5-.5.3-.9.5-1.3.8m35.5-7.7c.1 0 .2-.1.3-.1-.1-.1-.1-.2-.2-.2 0 0-.1 0-.1.1-.1 0 0 .1 0 .2M15.1 17.8c-.2.6-.4 1.3-.6 1.9l.9.3c.3-.6.5-1.2.8-1.8-.4-.2-.7-.3-1.1-.4M42.7 2.6c.6-1.4 1.1-1.6 2.3-.7.4.3.9.7 1.3 1.1.8.7.8 1.2-.3 1.6-.5.2-.8.7-1.3 1.1 3.5-.3 4.1-1.7 2.2-4.1-.3-.4-.8-.8-1.1-1.2-.1-.1-.1-.2-.1-.2H40c.5 1.1 1.2 2.2 2.1 3.2.3-.3.5-.5.6-.8m15.4 14.7c.3-.4.3-1 .4-1.5-.6.1-1.6 0-1.9.3-.9 1-1.5 2.3-2.5 3.9.8-.2 1.4-.2 1.8-.5.8-.7 1.6-1.4 2.2-2.2m1.9-.9s-.1 0-.1.1v.1h.1zm-6.4.6c-.1 0-.4.1-.4.2 0 .2.1.4.2.5s.4-.1.7-.2c-.2-.3-.3-.5-.5-.5m10.2 2.8v-.1l-.1-.1v.2zM53.5 33.5c-1.5.7-2.7 1.2-3.9 1.7.1.2.1.3.1.5 2.8.4 3.2.2 3.8-2.2M82 35.3c-.3.3-.5.6-.8.9l.4.4.6-.9c.1-.1 0-.2-.2-.4m2.1-.6v.1l.1-.1zM1.8 12.5v2.4c0 .9-.2 1.8 0 2.6.2 1.7 1 3 3.2 3-.7.6-1.1 1-1.7 1.5.6.3 1 .5 1.3.6-.1 2.2-.5 4.3-.2 6.3.3 2.7-.2 5.9 3 7.3-.4.6-1.2 1.3-1.1 1.5.6 1.3 1.2 3.1 2.3 3.6 1.3.6 2.1 1.2 2.6 2.4.1.3.4.6.7.6 1.7.3 2.9 1.2 3.7 2.7.1.2.6.2 1 .3 0-.4.2-.9 0-1.1-.5-.8-1.1-1.5-1.5-2 .2-.7.3-1.3.4-1.8-.5-.1-1-.1-1.5-.2-.7-.1-1.3-.3-2-.4.2-.5.4-.7.6-.7 2.3-.5 2.3-.6 1.5-2.8-1.2-3.2-2.4-6.5-3.6-9.7-.8-2-1.5-4.2-2.5-6.3-.4-1-1.4-1.7-2.2-2.5-.2-.3-.5-.5-.9-.9.7-.3 1.2-.5 1.6-.6.1-.8.3-1.5.4-2.3-1.1-1.6-2.1-3.2-3.2-4.9-.8.6-1.5 1.1-1.9 1.4m8.4 26.9c.2.3.5.5.6.8 0 .2-.3.4-.7.8-.3-.4-.7-.7-.6-1 0-.2.4-.4.7-.6m-2-13.9c0 .2.1.5.1.7 0 0-.2.1-.4.1 0-.2-.1-.5-.1-.7.1 0 .2 0 .4-.1m-1.5-3.1c.3.4.6.7 1 1.1-.3.2-.5.3-.7.5-.3-.4-.6-.8-.8-1.1zm-.4 5.7c.9.3 1.7.7 2.9 1.3-1.3.1-2.2.3-3.1.2-.3 0-.6-.6-.8-.9.3-.2.7-.6 1-.6m97.6 8-.9-1.5c-.2.1-.4.2-.5.4.3.5.6.9.9 1.4.2 0 .3-.2.5-.3M60.2 21.7c.5-.2.8-.6 1.5-1.1-.7-.5-1.2-1-1.3-.9-.4.3-.8.8-1 1.3-.1.1.6.8.8.7M33.7 9c0 .1.2.2.2.3.1-.1.2-.2.4-.3-.2-.1-.3-.2-.5-.2.1 0-.1.1-.1.2m-3.5-.1c.2.5.7 1 1 1.4.1-.1.2-.2.4-.3.2-1.8.3-3.6.5-5.5 1.1.3 2 .5 3 .7.1-.2.1-.3.2-.5-1.4-1.3-2-2.9-2.6-4.6h-2.9q.6 1.2 1.5 2.1l-.6.6c-.5-.4-1-.8-1.5-1.3-.4-.4-.8-.9-1.2-1.4h-.6c.4 1.4.8 2.7 1.2 4.1.5 1.6 1 3.1 1.6 4.7M289.9.1H283c.3.9.6 1.8 1 2.7-.2.1-.5.2-.7.2-.3-1-.7-1.9-1-2.9h-20.8c.9.6 1.9 1.2 2.8 1.8-.9.7-1.8 1.1-2.1 1.7-.4.7 2.1 2.7 3.2 2.6-.1-.5-.3-.9-.5-1.8 1.4.2 2.6.4 3.8.4.9 0 2.1-.1 2.8-.6.3-.2-.1-1.6-.3-2.5 0-.2-.1-.4-.2-.7 1.2-.2 2.1-.6 2.5 1.1.2.8 1.4 1.4 2.3 1.8.2.1 1-.7 1.4-1.1.9-1 1.7-.6 2.6-.5v.4c-.6.2-1.1.3-1.8.5.5 1.5-.3 2.1-1.7 2.3.6.8 1.2 1.5 1.7 2.2l.1.1c.4-.5.9-.9 1.2-1.5.3-.5.5-1.1.8-1.7.5.9.7 1.8 1.2 2 1.1.3 1.1-.7 1.4-1.5.2-.4.9-.8 1.2-.7.5.1 1 .7 1.2.8-.7.8-1.2 1.4-1.6 2 .1.2.3.5.4.7 1.4-.2 2.7-.3 4.1-.6 2-.4 2-.7.8-2.3.3-.3.6-.5 1.1-.9-.7-.4-1.2-.7-2.3-1.3 1.9-.4 2.3-1.5 2.3-2.7m-21.6 2.6c-.1 0-.1-.1-.2-.1l.1-.1.1.1zm18.2 2.4c-.1 0-.2-.1-.2-.1s0-.1.1-.1c.1.1.2.1.2.1zm1-4.3h-1.1V.2c.3.1.7.1 1.1.2zM282 11.9c-1.6.8-2.7 1.3-4 2 1.6.6 2.7.1 4-2M37.8 18.4c2.1-.8 2.4-1.8 1.1-3.7-.5-.8-1.1-1.6-1.7-2.4-.7-1-.4-1.8.7-1.9 1.8-.2 1.8-1.2 1.4-2.5-.5-.3-1.1-.6-1.7-1-.2.7-.4 1.2-.6 1.8-1.3-.4-1.8.3-2.2 1.3-.3.8-1 1.5-1.7 2.1-1.4 1.4-1.6 3.4-.4 4.9 1.6 2 2.7 2.2 5.1 1.4M33.6.3c.5 1.2 1.3 1.4 2.4.7.5-.3 1.1-.4 2-.7V.2h-4.5s.1 0 .1.1M39 5c-.2 0-.3.1-.5.1.3.9.5 1.8.8 2.7.7-1.1.1-2-.3-2.8"/><path fill="#000" d="M54.8 25.9c1 .1 1.9.8 2.8 1.4 1 .7 1.9 1.2 3.1 0 .4-.4 1.3-.6 2-.5 2 .3 4.1.7 6.1 1.1 1.7.4 2.3 2.3 1.3 3.7-.2.3-.4.7-.7 1.3.7 0 1.2 0 1.7-.1s1-.2 1.4-.3c.5-.1 1.5-.2 1.6 0 .2.6.4 1.5.1 2-.6 1.6-.4 3.3.8 4.5.5.5 1.1 1.2 1.7.3.7-.9-.3-1-.8-1.4-.3-.3-.6-.7-.9-1.1.4-.2.8-.5 1.2-.8.9-.7 2.1-1.4 2.8-2.3.6-.8.6-2.1 1-3.1.2-.5.7-1.3.8-1.2.6.2 1.3.5 1.7 1s.5 1.3.7 2c.5 1.2 1.5 1.6 2.7 1.4.7-.1 1.4-.5 2.1-.7-.1-.2-.1-.3-.2-.5-.5-.2-1.1-.4-1.7-.6.3-1.1 1-2.1 1.9-1.4 1.5 1.2 2.9 2.1 4.9 1.8 1-.1 2 .1 3 .2.4.1.7.4 1.1.6-.2.3-.4.9-.7 1-1.6.7-3.2 1.4-4.8 2-1.1.4-2.4.6-3.5 1.1-.8.3-1.6.8-2.3 1.4-.4.2-.6.7-.7.9-1.1-.6-2-1-2.9-1.5-.2 1.2-.3 2-.4 2.8l-1.8-1.8c-.6.9-1.4 2-2.5 3.7 1.8-.2 3.2-.2 4.5-.5 1.4-.3 2.8-1.2 4.2-1.2 1.9 0 3.5-.2 4.6-1.9.8.9 1.5 1.6 2.4 2.7-4.6 1.4-9 2.8-13.5 4.3.1.2.2.5.2.8 1.9-.5 3.8-.9 5.7-1.5 2-.7 4-1.2 6.4-.8-.5 1.1-.9 1.9-1.2 2.8-.1.2-.1.5-.1.7h3.1c1-.7 1.3-1.9 1.1-3.4.6.4 1.1.9 1.6 1.4.7.7 1.4 1.1 2.3.4s.2-1.3-.3-2c-.3-.4-.5-1-.7-1.5 1.1-.3 2-.6 2.9-.9 1-.3 2-.8 3-1.1 3.2-.9 6.3-1.9 9.5-2.5 2.7-.5 5.2-2.6 8.2-.9l.4-.2V36c1.1.2 2 .5 2.7.6.6-1.1 1-1.9 1.6-2.9-.5-.1-.9-.2-1.2-.1-1.2.5-2.3 1.1-3.4 1.5-1 .3-2.1.3-3.2.3-.1 0-.4-.8-.3-.8.9-.5 1.7-1 2.7-1.3 1.5-.4 2.8-.8 3.6-2.3-1.1-.6-2-1.1-3.3-1.8 0 1.5.4 2.9-1.4 3-1.2.1-2.1 1.6-3.5.6-.1-.1-1.1.5-1.2.9-.2.8 0 1.6-.2 2.4-.1.4-.4.7-.6 1.1-.2-.4-.7-.7-.7-1.1-.1-2-.6-2.5-2.7-2.2-1.8.2-3.5-.2-5-1.2.2-.5.3-1 .5-1.5-.1-.2-.3-.3-.4-.5-.6.4-1.2.8-1.8 1.3-1.1.8-2.1.6-2.9-.4-.6-.8-1.9-1.5-.7-2.8.6-.6 1.6-.9 1-2.1-.4-.8-.3-2-.9-2.4-1.4-1.1-1.5-2.2-.9-3.7.1-.3-.2-1-.5-1.2s-1-.1-1.3.2c-.6.6-1.3 1.3-1.6 2.1-.8 2.6-2.2 5.2-.4 7.9-2.1.9-2.7.7-3.5-1.1-.2-.4-.2-1-.4-1.4-.2-.3-.6-.7-.9-.6-1.1.3-2.2.8-3.6 1.2.8.2 1.3.4 1.8.6 0 .2.1.3.1.5-.7.2-1.4.5-2.1.4-1.5-.1-2.9-.2-4.4-.5-.7-.1-1.4-.6-1.9-1.1-.9-.9-1.6-1.9-2.4-2.8.1-.1.5-.4.9-.8-1.4-.8-1.7-.7-2.5.5-.6.9-1.2 1.9-1.9 3-.5-.7-.7-1.1-1-1.5-2.5 1.1-4.9.7-7.3.1-.7-.2-1.7 0-2.2-.4-1.8-1.5-3.9-1.4-6-1.1-1.3.2-2.6.2-3.9.1-1.9-.1-3.8-.3-5.5-.5.9.8 1.8 1.5 2.6 2.1 1-.1 2.1-.6 3.2-.4m40.9 15-2.1-1.8c0-.2.1-.4.1-.6.5 0 1.3-.2 1.5 0 .5.5.7 1.3 1 2-.2.2-.3.3-.5.4m3-2.9c1.8-.2 2.3-1.3 2.4-2.8.2-1.7 1.2-2.3 2.7-1.4.6.3 1 .8 1.6 1.2.4.2 1 .6 1.1.5 1.4-1.1 2.1-.4 2.9.7.2.3 1 .1 1.8.1-.4.6-.8.9-1 1.3-.6 1-1.1 1.4-1.8 0-.8-1.6-1.8-.5-3-.1.7.4 1.1.7 1.4.9-.1.2-.1.5-.2.5-.4.2-.9.3-1.3.4-.1 0-.3-.3-.5-.4-.5-.3-1.1-.6-1.6-.8-.1.6-.2 1.2-.4 2.1-.1 0-.8.1-1-.1-.8-1.2-1.8-.9-2.9-.6-.4.1-1-.4-1.5-.6.6-.3 1-.8 1.3-.9m-1-2.3c.1.2.1.4.2.6-.6.2-1.2.3-1.8.5 0-.2-.1-.4-.2-.6.6-.2 1.2-.3 1.8-.5m-6.3-6.2c0 .1.1.2.1.3-.1.1-.2.1-.2.1 0-.1-.1-.2-.1-.2 0-.1.1-.2.2-.2m-6.1.9.2.2c-.1 0-.1.1-.2.2-.1-.1-.2-.2-.1-.2-.1-.1 0-.1.1-.2M74 28.2c.2.1.5.2.7.3-.2.6-.5 1.3-.7 2-.2-.1-.4-.1-.6-.2zM317.1 3.6c0 .1.2.3.4.5l.5-.5c0-.2-.2-.3-.3-.5-.3.2-.5.3-.6.5m-.5 3.4c.1.1.2.2.4.3.1-.3.2-.5.4-.8-.1 0-.2-.1-.3-.2-.2.3-.4.5-.5.7m3.6 26.6c-2.1.2-2.5.6-2.5 2.3.9-.7 1.6-1.4 2.5-2.3M50.3 48.1c-.1-.2-.2-.5-.4-.8-.2.3-.3.5-.5.8zm265-45.2c-.1.1-.3.3-.3.4s.2.3.4.6c.2-.3.4-.5.3-.6 0-.2-.3-.3-.4-.4M236.6.6c-.3.4-.9.8-.9 1.3-.1 1 .5 1.3 1.9.9-.4-.8-.7-1.5-1-2.2m68.4.9c-.9-.6-1.7-.9-2.2-1.4h-6.6c0 .3.2.7.6 1.1.3-.4.5-.6.5-.7 1.4.4 2.6.7 3.9 1.1.1.2.1.3.2.5-1.1.4-2.3 1.2-3.4 1.1s-2.2-1.1-3.3-1.7c.1-.5.1-1 .1-1.4h-3.7c0 .6.1 1.2.1 1.9.8.1 1.4.1 2 .2-.6.7-1.8 1-2 1.6-.3.8.2 1.8.3 2.7 0 .3-.3.7-.4 1.1-.1.3-.1.8.1 1.1.5.6 3.1.1 3.4-.7.6-1.4 1.6-2 3.1-2.1.7-.2 1.3-.5 2.2-.8 1.6 1.2 3 1.5 4 .6.4-.4.4-1.1.5-1.7 1.2-1.8 2.5-1.3 3.9.7-.1-1.2-.2-1.8-.2-2.5 1.9-.1 2.6 1.1 3.2 2.9.2-.9.3-1.2.3-1.5.1-1.2 0-2.3-.6-3.3h-6.5c.2.2.3.7.5 1.2m17.7 12.6s0 .1.1.1c0 0 .1 0 .1-.1 0 0 0-.1-.1-.1zm-2.9.8c.2.2.5.7.7.6.3 0 .6-.3 1.2-.7-.5-.4-.9-.8-1.1-.7s-.5.5-.8.8m-.1 9.4c-.1.3.4.9.7 1.4.2-.1.3-.1.4-.2.2-.6.3-1.2.5-1.8-.1-.1-.2-.2-.3-.4-.5.5-1.2.6-1.3 1m.8 3.6c-.6.1-1.2.2-1.8.2 0 .3.1.5.1.8.6-.1 1.2-.2 1.8-.2 0-.3-.1-.5-.1-.8m8.6 20.2h.3c0-.1 0-.2.1-.2-.4 0-.8-.1-1.2-.1.3.1.6.2.8.3m2-6c-.1-.1-.2-.3-.3-.3s-.2.1-.4.2c.1.2.3.4.3.4.1 0 .3-.2.4-.3m-2.9 5.7h.1s-.1-.1-.1 0m-8.1-15.4s.1 0 .1-.1v-.2c-.1 0-.1.1-.2.1 0 .2 0 .2.1.2m1.4-5.3V27s-.1 0-.1.1v.1c0-.1.1-.1.1-.1m-.4-8.6c-.1.1-.2.2-.2.3s.2.2.3.4c.1-.2.2-.3.2-.4-.1-.2-.2-.2-.3-.3M220.6 35.3c-.2.2-.3.4-.4.6.1.1.2.1.2.2.1-.2.3-.4.4-.6zm15.5 2.2V37h-2.4c0 .2 0 .5.1.7.7 0 1.5-.1 2.3-.2m-6.9 7.5c1-.4 1.9-.8 2.9-1 1.6-.3 2.7-1.2 2.9-2.9-1.8.4-5.5 2.8-5.8 3.9m4.5-4.8c.1-.1.2-.1.2-.2-.1 0-.1-.1-.2-.1l-.1.1c0 .1.1.1.1.2m-1.4-34.5c-.4.5-.8.9-1.1 1.4.2.1.3.3.5.4.4-.5.8-.9 1.2-1.4-.2-.1-.4-.2-.6-.4m3.6 34.4c-.3.3-.6.7-.8 1 .4-.2.7-.5 1.1-.7zm-16 1.1q0-.15 0 0m-.1-1q.15 0 0 0m15.3.9c-.1.1-.1 0 0 0m-30-21.1c-.4-.2-.7-.5-1.1-.7-.1.2-.2.3-.3.4.3.3.7.5 1 .8.1-.2.2-.4.4-.5m.1-4.3c.2-.1.3-.2.5-.3-.6-2-1.1-4.1-1.8-6-.4-1-1.4-.9-2.4 0 .6.1 1 .1 1.5.2.1.2.1.3.2.4-1.3.9-2.7 1.8-4 2.7 1.9 1 4 2 6 3m-1.4-13.9c.1-.6.1-1.2.3-1.7h-1.8c.3.5.7 1 1 1.3 0 .2.1.2.5.4m-41 10.5c-.1-.1-.3-.1-.4-.2-.2.3-.4.7-.5 1 .2.1.3.2.5.2.1-.3.2-.6.4-1m55.3 27.4c.8.2 1.3.3 1.8.5-.1-.5-.2-1.1-.4-2-.7.6-1 1-1.4 1.5m-28.7-3.2c0 .1.1.3.1.4 1.9-.4 3.7-.8 5.6-1.2 1.7-.4 3.3-.8 4.8 1.2.1-2.7 1.9-2.1 3.4-2.4 1.3-.3 2.4-.7 2.6 1 1.3-.6 2.4-1.1 3.6-1.5 1.9-.6 3.8-1.2 5.7-1.5 2.8-.5 5.6-.4 8.4-1.6s5.9-1.4 8.9-2c.9-.2 1.9-.5 2.8-.8 0-.2-.1-.4-.1-.5-.7.1-1.5.2-2.2.3-1.9.3-3.9.8-5.8 1-3.6.3-7.3.2-10.9.9-1.8.3-3 .5-3.7-1.3h-.4c-.2.5-.4 1-.9 2.2-.9-1.1-1.5-1.9-2.1-2.7-1.2.7-2.3 1.3-4 2.3 1.7.3 2.9.5 4.2.7v.6c-1.1.6-2.4 1.4-3.6.5-1.4-.9-2.3-.4-3.3.4-.6.5-1.6 1.1-2.3.9-4.5-.9-7.3 2.1-10.8 3.1m14.7-10.4-.1-.1v.1zm-3.5-11.6c-.1 0-.3 0-.4.1v.3h.4zM162.9.1h-1.5c.1.2.3.5.5.8.4-.3.7-.5 1-.8m36.3 23.4c.6-.3 1.3-.7 1.9-1-.1-.1-.1-.3-.2-.4-.6.3-1.3.6-1.9.9.1.2.2.4.2.5m-25.9 6.2.6.3c.3-.6.6-1.2 1-2.2-1.8.3-1.9 1-1.6 1.9m-6 6.3.1.1V36zm-1.2 11.2c0 .3.7.9 1 .8 2.2-.2 4.4-.6 6.7-1 .2 0 .4-.2.4-.3.4-1.7 1-.7 1.8-.3.8.3 1.7 0 2.6 0-.1-.9-.1-1.8-.3-2.6-.1-.4-.6-.7-1-1.2 1.3-.7 2.5-1.3 3.6-2-.1-.2-.2-.3-.2-.5-1.9.6-3.9 1.3-5.5 1.8-.1 1-.1 1.6-.1 2.1-.6-.1-1.4 0-1.8-.3-1.2-1.1-1.4.1-1.9.8-1.8-.6-3.4 0-4.7 1.1-.4.3-.6 1-.6 1.6m3-1.3c0 .2.1.4.1.6-.6.1-1.3.2-1.9.3 0-.2-.1-.4-.1-.6.6-.1 1.3-.2 1.9-.3m8.4-12c0-.1-.1-.2-.2-.3-.1.1-.3.2-.3.3s.1.2.2.4c.1-.2.2-.3.3-.4m4.7-4.1c.2-.1.3-.2.5-.3-.3-.2-.5-.4-.8-.5.1.3.2.6.3.8m0 14.5.9-.6c-.1-.2-.2-.4-.3-.5-.3.2-.5.5-.8.7 0 .1.1.2.2.4m80-1.9c0-.2-.2-.4-.4-.8-.2.4-.4.7-.5.9 0 .1.3.3.5.5.2-.2.4-.4.4-.6m8.5-2c-.5.4-1.2 1.7-1.1 1.8.9.8 2 2.1 2.9 2 1.3-.2 2.9-.9 3.3-2.8-.8-.4-1.7-.5-2.1-1-1.2-1.1-2.2-.7-3 0m-9.6-6.3.1.1V34zm-7.2 13.5s0-.1-.1-.1h-.1c0 .1.1.2.1.2s.1 0 .1-.1m-26.7-1.2h.1v-.2s-.1 0-.1-.1q.15.15 0 .3m.1-1.9h.1l-.1-.1zm45.9-8.6v.5h8.6c-.4-.8-.7-1.5-1.2-2.5-2 2.6-5 1-7.4 2m4.6 5.3c.8-.5 1.5-1 2.3-1.5-.1-.2-.2-.5-.4-.7-.8.4-1.7.8-2.4 1.2-.1.1-.2.5-.1.7 0 .2.4.3.6.3m-41.7-8.1c-.6.1-1.3.1-1.9.3-2.6 1-5.1 2.1-7.7 3.2-.2.1-.5.2-.8.1-1.8-.5-3.2.3-4.4 1.6-.6.6-1 1.3-1.4 1.9 0 .3 0 .6.1 1 2.1-.3 4-.9 5.7-2.3 1.1-.9 1.6-.4 2 .7.1.4.1.9.3 1.1.5.3 1.1.5 1.6.4.4-.1.7-.6 1-.9-.4-.3-.8-.6-1.1-.8-.1-.1-.2-.2-.3-.4.8-.4 1.5-.8 2.6-1.3-.7-.3-1.1-.5-1.6-.7 0-.2.1-.4.1-.6 2-.9 4.1-1.8 6.1-2.7q-.3-.45-.3-.6m-53.5.8c-.1 0-.2.1-.2.2l.2.2.2-.2c0-.1-.2-.3-.2-.2m42.4-9.8c.1-.2.3-.5.4-.7-.4-.2-.9-.4-1.3-.6-.1 0-.3.5-.4.7.4.2.8.4 1.3.6m.3-7.3c-1.3-.3-2.3.2-3.1 1.1.1.1.1.3.2.4 1-.3 2.1-.6 3.1-.9 0-.2-.1-.4-.2-.6m.8 4.9-.1-.1v.1zm-8.8-1.3h.1v-.1zm-.5 4.4c.5.1 1.3-.4 1.7-.9s.6-1.3 1-2.5c-1.9.7-3.6 1.3-5.7 2.1 1.2.5 2.1 1.1 3 1.3m-1.3-3.7c-.4.2-.8.3-1.2.5l.3.6 1.2-.6c-.1-.2-.2-.4-.3-.5m5.5-10.3c0-.9-.2-1.7-.4-2.6-.7.4-1.5.8-2.2 1.2 0 0 0 .1-.1.2.4.3.7.6 1.3 1.1-.6.4-1.1.7-1.8 1.1-.6-1.5-1-2.8-1.6-4-.4-.7-1.2-1.3-2-1.5-1-.4-2.2-.4-3.4-.5-.3 1.6.2 2 2.1 1.7.5-.1 1.1.3 1.6.4-.5.5-.8 1.1-1.4 1.4-.5.3-1.2.4-2.2.7.9.7 1.4 1.1 1.9 1.5-.3.4-.5.7-1 1.3 1.5.3 2.7.5 3.9.7v.5c-.8.1-1.6.2-2.3.4-.9.3-1.5.9-1.2 1.7 1.6.2 3 .3 4.5.4.6 0 1.5.1 1.6-.2.3-.5.3-1.3.2-2-.1-.5-.4-1-.7-1.5.2-.1.3-.2.4-.3.3.3.7.6 1 .9.3.2.5.4.8.6.2-.3.6-.7.6-1 .4-.6.4-1.4.4-2.2m-69.3-1.7-.1-.1v.1zm68.4 10.2c.1 0 .3-.1.5-.2-.2-.1-.3-.3-.4-.3s-.3.1-.4.2zm2.7 2.6s0 .1.1.1c.1-.1.1-.1.2-.1-.1 0-.2-.1-.3 0M157.2 10c.1.3.5.5.7.7.2-.2.5-.5.5-.7 0-.3-.3-.6-.6-1-.4.5-.7.8-.6 1m-1 1.2c-1-.5-2-1.1-3.2-1.7-.2.1-.8.5-1.3 1-.2.3-.4 1-.3 1.2.8.8 4.2.3 4.8-.5m10.9-7.1c-1.6-.4-3.2-.7-5-1.1.5 1.4.8 2.4 1.4 3.8.7-.8 1.1-1.4 1.6-2-.1-.1-.2-.2-.2-.4h2.2zM153.3.8c.5 0 1 .1 1.5.1 1.1 0 2.3.1 3.4 0 .6 0 1.2-.3 1.8-.4 0-.1-.1-.2-.1-.4h-5.6c-.4.2-.7.4-1 .7m-2.7 13.7c.1.1.3.2.4.4.3-.3.6-.6.8-.9l-.4-.4c-.2.3-.5.6-.8.9m80.6 8.5c-.2-.4-.3-.9-.5-1.3l-.6.3c.2.4.4.9.6 1.3.1-.1.3-.2.5-.3m-3.1-14.5c-.4.7-.3 1.8-.2 2.6 0 .3.6.7.9.7s.8-.5.9-.8c.3-.9.5-1.9.8-3.4-1.1.3-2.2.4-2.4.9m1.1-6.4c0 .1.2.1.2.2.1-.1.1-.2.1-.2-.1 0-.2-.1-.3-.2.1 0 0 .1 0 .2m-15.5.7c0 .1.1.2.2.4.2-.1.3-.2.4-.3l-.2-.4c-.2.1-.4.1-.4.3m-.4-2.7H212c-.9.4-1.3 1-1.4 1.8 1.6.4 1.7.4 2.7-1.8m3.7 1.6h-.1v.1zm3.4 4.4c-.3.1-.6.1-.8.2 0 .1 0 .2.1.3.3-.1.6-.1.8-.2-.1-.1-.1-.2-.1-.3M215.5.3c.3.2.9.2 1.3.2.1 0 .1-.1.2-.3h-1.6s.1 0 .1.1m-5 20-.1-.1v.2zm8.4-20c.1.1.2.2.2.3l.4-.4h-.5s-.1 0-.1.1m5.7 9c.1.2.2.3.3.5.1-.1.2-.2.4-.3-.1-.2-.2-.3-.3-.4s-.3.2-.4.2M223.1 3c-.1.2-.2.4-.2.6.1.4.1 1 .3 1.2.5.3 1.1.3 1.7.4.1-.4.1-.9.2-1.3.1-.6.1-1.2.2-1.7.1-.9-.9-1.9-1.8-1.5-1.2.5-2.4 1.1-3.7 1.7.7 1.8 2.2-.3 3.3.6m-14.4-.6c-1.6.4-2.8.8-4.5 1.3 1.7.8 3.5.2 4.5-1.3m-.9 15.2.6.6c.5-.5.9-1 1.4-1.5l-.6-.6c-.5.6-.9 1.1-1.4 1.5m-1.2-3.3c.2-.2.4-.3.5-.4-.3-.3-.5-.6-.8-.9-.2.1-.3.2-.4.3.3.4.5.7.7 1m10.5-8.9c.1-.1.3-.2.3-.3s-.1-.2-.2-.4c-.2.1-.4.2-.4.3.1.1.2.3.3.4m-8.9 4.4c-.1.2-.3.4-.4.6.6.4 1.2.9 1.7 1.3.1-.3.4-.7.4-.8-.5-.4-1.1-.7-1.7-1.1M205 7.4v-.2h-.2v.1c0 .1.1.1.2.1m13.9-3.3c0-.1-.1-.1-.1-.2l-.1.1s0 .1.1.1c0 .1.1.1.1 0m-12.6-2.3c-.2-.1-.3-.3-.3-.3-.1 0-.3.2-.3.3s.2.3.2.3c.1 0 .2-.2.4-.3m.2 45.8c-.2-.1-.4-.1-.5-.1s-.2.2-.2.2c.1.1.2.3.3.3zm-30.6-30.1h2.7c0-.2 0-.3.1-.5H176c-.1.2-.1.3-.1.5m-4.6 11.8c.1-.2.1-.5.2-.7-.4-.1-.9-.2-1.3-.3 0 0-.1.4-.2.7.4.1.9.2 1.3.3m4.1 10c.4-.3.7-.6 1.1-1l-.5-.5c-.4.2-.7.6-1 .9.2.2.3.4.4.6m-4-19c-.4.6-.7 1.3-1.2 2.5 2.2-.3 4-.5 5.7-.7-1.3-1-2.5-1.6-3.7-2.1-.2-.1-.7.1-.8.3m-7.1 2.2c.1.1.2.3.4.4.8-.8 1.5-1.6 2.3-2.4l-.6-.6c-.7.9-1.4 1.8-2.1 2.6m6 15c.4-.6.8-1.3 1.3-1.8.5-.6 1.1-1.1 1.8-1.7-1.3-.2-1.3-.2-3.3 1.2-1.4.9-1.4 1.1.2 2.3m-5.3-4.4-.1.1h.1zm1.5-9.5c.1.2.2.5.2.7.9-.4 1.7-.7 2.6-1.1-.1-.2-.1-.3-.2-.5-.9.3-1.7.6-2.6.9m-2.3 5.7.6.3c.1-.4.3-.8.4-1.1-.2-.1-.5-.2-.6-.1-.2.2-.3.5-.4.9m12.3-2.3c.1.3.2.6.3.8.6-.2 1.3-.4 1.8-.7.1 0-.2-.7-.3-1.1-.6.4-1.2.7-1.8 1m22.3 15.2q0-.15 0 0m0-.1q.15-.15 0 0m0 0c0-.1 0-.2 0 0m-21.2-10.2 1.8.3c0-.2.1-.4.1-.7l-1.8-.3c0 .3 0 .5-.1.7m-2.8 16.2h.9c-.1-.1-.1-.2-.2-.3-.2.1-.4.2-.7.3m29.4-.4c.1-.8.3-1.7.8-2.3.7-1 1.6-1.8 2.4-2.6-.1-.2-.3-.3-.4-.5-1 .6-1.9 1.2-2.9 1.7-1.1.6-2.1 1.3-3.3 1.4-1.2.2-2.4-.2-4-.5-.2-.5-.2-1.2.9-1.3 1-.1 1.2-.6 1-1.5-.6.1-1.3.2-1.8.2-.4-.5-.6-1.1-1-1.2-1.4-.3-2.8-.6-4.1.3-.3.2-.9.6-.8.9.1.4.5.9.9 1.1 1.1.5 2.3.8 3.7 1.3-.7.6-1.2 1.1-1.7 1.6-1.9-1.3-2.7-1-2.9 1.1 0 .3-.1.5-.2.7h13.3c0-.1 0-.3.1-.4m-6.3-.4h-.1s0-.1-.1-.1c.1 0 .2 0 .2-.1zm-26-15.4c.2-.2.5-.3.7-.5-.1-.1-.1-.2-.2-.3-.2.2-.5.3-.7.5 0 .1.1.2.2.3m91.7 12.2c.2.1.3.2.5.2.1-.3.2-.6.4-.9-.1 0-.2-.1-.4-.2-.2.3-.3.6-.5.9m-13.3-.3c.1.1.2.2.2.3.1-.1.2-.1.2-.2-.1-.1-.1-.2-.2-.2 0 0-.1.1-.2.1m8.9-13.2c.1.2.2.4.2.6 1.5-.6 3.1-1.1 4.7-1.7-1-.5-1.7-.9-2.4-1.2-.7.7-1.6 1.5-2.5 2.3m15.8-3.8c-1.2-.1-2.3.1-3.5.2v.3c1.2.4 2.5.8 4.1 1.3-.1-.6-.3-1.7-.6-1.8m-23.2 21.3c0-.2-.1-.4-.1-.5-.4.1-.8.1-1.1.2 0 .1.1.3.1.4h1c0-.1 0-.1.1-.1m-4.3-2.4h-.1l.1.1zm-24.7 1.2c-.1.4-.4.9-.2 1.1 0 0 0 .1.1.1h2.2c-.4-.3-.7-.6-1.1-.9-.4-.1-.7-.2-1-.3m62-17.1c-2.6 1-5.4 1.4-8.2 1.4-.5 0-1.2.4-1.6.8-.3.3-.3.8-.4 1.3.4.1.8.3 1.2.2 1.2-.2 2.4-.6 3.7-.8 1.6-.4 3.3-.7 4.9-1.2.6-.2 1-.8 1.4-1.3-.1-.2-.2-.3-.4-.4-.2 0-.4-.1-.6 0m2.6.6c.1.3.1.5.2.8.8-.2 1.5-.4 2.3-.7-.1-.2-.1-.4-.2-.7-.7.3-1.5.5-2.3.6m-.6 16.4c-1.5.3-2.8.8-4.2 1.4h2.2c.7-.1 1.4-1 2-1.4m0-9.7c-.2-.4-.5-.8-.8-1.1-.3.3-.6.6-1 .9-.2.2-.4.4-.6.5-.5.3-.9.5-1.4.7.1.2.1.4.2.6 1.2-.1 2.4-.2 3.7-.3-.1-.5 0-1-.1-1.3m-2.8 5.8c2.4-.4 4.6-.8 7-1.3-2.6-2-4.9-1.7-7 1.3m1.6-9.7h1.7v-.7c-.6 0-1.2.1-1.7.1zm1.4 13.5h-.1c-.1.1 0 .1.1 0q-.15 0 0 0m-.9-21.1c.1.4.7.7 1 1 .2-.4.6-.7.7-1.1 0-.3-.3-.6-.7-1.2-.5.6-1.1 1-1 1.3m3.7 19.4c-.9.6-1.9 1.2-2.8 1.8 1-.4 2.1-.7 3.1-1.1-.1-.3-.2-.5-.3-.7m-.8-8c.2.2.5.6.7.7.2 0 .5-.4.9-.7-.4-.3-.7-.7-.8-.6-.3.1-.5.4-.8.6m-74.7 5.4c1.2-.5 1.3-1.9.7-2.6-1.8.1-3.3.1-4.8.3-.6.1-1.2.5-1.6.9-.2.2.1 1.1.2 1.1.6.1 1.2-.1 1.8-.2.1 0 .2-.1.3-.2.9-.7 1.7-.9 2.4.4.1.2.8.4 1 .3m2.9-6.4c-.3.1-.6.3-1 .4 0 .1.1.2.1.4.3-.1.6-.2 1-.2 0-.2 0-.4-.1-.6m14.9-2.9c-.1-.3-.2-.6-.4-.9-.7.3-1.4.6-2.2 1 .1.2.3.6.4.6.7-.2 1.4-.4 2.2-.7m-14.3 8.6c.1.2.1.3.2.5.6-.3 1.2-.7 1.8-1-.7.2-1.4.4-2 .5m7.5.5c-2.3 1.5-4.5 3-6.8 4.5-.3.4-.6.7-1 1.2.2.1.3.1.4.2h2.2c.2-1.5.9-2.1 2.2-2.3.6-.1 1.3-.1 1.9-.3 1.6-.5 1.9-2.3 1.1-3.3m-56.8-31.9c.1.2.2.4.4.4.1 0 .3-.2.6-.4-.4-.2-.5-.3-.7-.3-.1 0-.4.2-.3.3m58.9 22.8v.2h.1v-.1c0-.1-.1-.1-.1-.1M219.5 44s0-.1.1-.1c-.1 0-.1-.1-.2-.1 0 0 0 .1-.1.1.1 0 .1.1.2.1m-3-4.5c.1-.1.2-.1.2-.2v-.1c-.1.1-.2.1-.2.2z"/><path fill="#000" d="M216.3 46.6c.8.1 1.5.1 2.2.2-.6-1.3-1.2-1.4-2.2-.2M184.9 40c.4 0 .7-.1 1.1-.1 0-.2-.1-.4-.1-.6-.4.1-.7.2-1.1.2 0 .2 0 .3.1.5m28.9 6.8s.1 0 .1-.1-.1-.1-.1-.2l-.1.1c0 .1.1.1.1.2m22.8-1c0 .1.1.1.1.2.1-.1.2-.1.2-.2-.1 0-.1-.1-.2-.1s-.1.1-.1.1m-29.6-.1c.7-.1 1.5-.3 2.2-.4-.1-.3-.1-.5-.2-.8-.7.1-1.5.3-2.2.4.1.2.1.5.2.8m3.8-1c.4-.4.9-.7 1.3-1.1-.2-.3-.5-.6-.8-.8l-1.2 1.2c.2.3.4.5.7.7m-2 2.6c.1.2.3.4.5.7.3-.2.5-.4.7-.5-.2-.2-.3-.5-.5-.5-.3-.1-.5.2-.7.3m-27.9-20.1c-.3.9.1 1.4 1 1.7-.1-.6-.3-1.3-.4-1.9-.2.1-.4.1-.6.2m5.7 2.3v-.1l-.1.1zm-.7-6.8c.4-.2.8-.5 1.3-.7-.1-.1-.2-.3-.2-.4-.4.2-.9.4-1.3.6 0 .2.1.3.2.5m11.2.1c0 .1.1.1.1.2 0 0 .1 0 .1-.1s-.1-.2-.1-.2zm-11.2 5.4c.1 0 .3-.1.5-.3-.2-.1-.3-.2-.5-.2-.1 0-.2.1-.2.2 0 .2.1.3.2.3m11.8-4-.2-.2c-.1.1-.1.2-.2.2.1 0 .2.2.2.1.1.1.1-.1.2-.1m-12.4 13.2c.2.1.4.3.4.2.1-.1.2-.3.3-.4-.1-.1-.3-.2-.4-.2-.1.1-.2.3-.3.4m50.2-15.7c-.3-.3-.5-.6-.7-.5-.3 0-.5.3-.8.4.2.2.3.6.6.6s.5-.3.9-.5M186 43.2c-.2-.1-.3-.2-.4-.3-.1 0-.2.1-.2.2s.1.3.2.3zm.2 3.2c-.1-.5-.2-.9-.2-1.4-.2 0-.4.1-.6.1.1.5.2 1 .3 1.4.2-.1.3-.1.5-.1m7.8-7.2c.6-.1 1.3-.2 1.9-.3-.1-.2-.1-.4-.1-.7-.6.1-1.2.3-1.9.4 0 .2.1.4.1.6m4-.2c.9-.1 1.8-.2 2.8-.4 0-.2-.1-.4-.1-.7-.9.1-1.8.2-2.8.4.1.3.1.5.1.7m5.6-1c-.4 1.2-.7 2-1.1 3.2.9-.2 1.7-.2 2.3-.6.3-.2.6-1.2.4-1.5-.3-.5-1.1-.7-1.6-1.1m-6.6-8.6c-.1 0-.2.1-.3.1 0 .1.1.2.1.2.1 0 .2-.1.2-.1zm-5 10.1V39h-2.3v.5zm-2.4 7.7c-.1-.1-.1-.2-.1-.2-.1.1-.2.1-.2.2s.1.2.1.2c0-.1.1-.2.2-.2m-1.6-4c.5.1.9.1 1.4.2 0-.2 0-.4.1-.6-.5-.1-.9-.1-1.4-.2-.1.2-.1.4-.1.6m3.8-24c-1 .5-2 .9-2.9 1.4.1.2.2.4.2.5l3-1.2c-.1-.3-.2-.5-.3-.7"/></svg>