<!-- Generated by IcoMoon.io -->
<svg version="1.1" xmlns="http://www.w3.org/2000/svg" width="32" height="32" viewBox="0 0 32 32">
<title>a_light_in_the_fog</title>
<path d="M21.151 30.578c0.004-0.779-0.173-1.536-0.203-2.315-0.007-0.199-0.013-0.404-0.049-0.6-0.020-0.117-0.064-0.228-0.089-0.345-0.062-0.295-0.105-0.614-0.107-0.918 0-0.209-0.026-0.407-0.039-0.614-0.006-0.097-0.024-0.154-0.116-0.094-0.070 0.046-0.136 0.102-0.219 0.145-0.209 0.109-0.348 0.223-0.508 0.394-0.265 0.282-0.581 0.437-0.918 0.62-0.278 0.152-0.543 0.312-0.828 0.451-0.415 0.202-0.833 0.397-1.24 0.613-0.318 0.169-0.613 0.368-0.925 0.544-0.304 0.172-0.561 0.384-0.848 0.58-0.342 0.232-0.722 0.435-1.093 0.616-0.23 0.112-0.438 0.15-0.684 0.213-0.378 0.097-0.749 0.153-1.137 0.205-0.216 0.029-0.43 0.064-0.644 0.103-0.1 0.019-0.242 0.016-0.328 0.072 0.047 0.014 0.095 0.005 0.143 0.009 0.169 0.012 0.349 0.083 0.515 0.119 0.573 0.122 1.157 0.216 1.738 0.286 0.607 0.075 1.204 0.169 1.809 0.256 0.659 0.096 1.319 0.067 1.982 0.067 0.6 0 1.206 0.030 1.804 0.008 0.483-0.019 0.974-0.172 1.419-0.351 0.228-0.090 0.551-0.166 0.564-0.062z"></path>
<path d="M19.853 22.102c0-0.475 0-0.949 0-1.425 0-0.185 0.004-0.369 0.003-0.554-0.003-0.192-0.041-0.38-0.046-0.573-0.006-0.225-0.033-0.444-0.040-0.669-0.010-0.279 0.036-0.543-0.1-0.796-0.027-0.050-0.049-0.090-0.084-0.139-0.089-0.119-0.080-0.117-0.172 0.003-0.165 0.215-0.369 0.427-0.554 0.624-0.1 0.107-0.188 0.218-0.276 0.334-0.097 0.13-0.222 0.232-0.339 0.342-0.325 0.308-0.61 0.656-0.932 0.965-0.337 0.322-0.737 0.56-1.161 0.749-0.432 0.192-0.845 0.425-1.251 0.669-0.371 0.222-0.715 0.493-1.115 0.653-0.225 0.089-0.428 0.208-0.664 0.266-0.139 0.034-0.271 0.069-0.407 0.116-0.269 0.092-0.523 0.156-0.803 0.209-0.122 0.023-0.255 0.036-0.371 0.083-0.013 0.099 0.001 0.209 0.001 0.306 0.003 0.391-0.016 0.773-0.082 1.158-0.056 0.322-0.083 0.621-0.083 0.949-0.005 0.126-0.003 0.253 0.008 0.379 0.020 0.072 0.041 0.145 0.067 0.215 0.017 0.093-0.029 0.212 0.087 0.236 0.026-0.008 0.049-0.017 0.070-0.031 0.13-0.033 0.261-0.063 0.391-0.089 0.418-0.1 0.783-0.249 1.158-0.453 0.355-0.193 0.74-0.312 1.081-0.53 0.42-0.266 0.833-0.55 1.271-0.786 0.332-0.179 0.679-0.324 1.017-0.488 0.314-0.153 0.626-0.317 0.932-0.483 0.206-0.112 0.372-0.229 0.56-0.37 0.226-0.169 0.491-0.25 0.739-0.378 0.127-0.067 0.222-0.165 0.326-0.262 0.129-0.117 0.213-0.288 0.315-0.428 0.049-0.069 0.206-0.228 0.454 0.195z"></path>
<path d="M19.204 14.883c-0.183 0.036-0.157-0.318-0.172-0.434-0.029-0.222-0.069-0.441-0.073-0.664-0.004-0.251-0.007-0.471-0.054-0.717-0.031-0.162-0.054-0.322-0.064-0.488-0.010-0.146-0.053-0.278-0.082-0.42-0.031-0.149-0.067-0.305-0.084-0.455-0.007-0.067 0.020-0.166-0.044-0.216-0.073 0.047-0.155 0.065-0.228 0.109-0.1 0.062-0.189 0.162-0.282 0.235-0.096 0.074-0.195 0.142-0.291 0.216-0.16 0.126-0.325 0.246-0.494 0.359-0.233 0.156-0.49 0.259-0.73 0.4-0.309 0.18-0.59 0.407-0.899 0.59-0.296 0.176-0.616 0.315-0.918 0.483-0.335 0.186-0.702 0.313-1.048 0.477-0.321 0.149-0.664 0.326-1.011 0.404-0.159 0.036-0.281 0.077-0.427 0.14-0.067 0.028-0.15 0.030-0.198 0.087-0.067 0.079-0.039 0.206-0.037 0.299 0.001 0.251-0.040 0.497-0.044 0.747-0.004 0.295 0.014 0.59-0.001 0.883-0.007 0.145-0.039 0.271-0.037 0.417 0.001 0.233 0.007 0.468 0.001 0.702-0.003 0.106-0.077 0.276-0.039 0.374 0.037 0.012 0.067 0.006 0.105-0.001 0.137-0.027 0.278-0.099 0.414-0.135 0.316-0.084 0.619-0.242 0.915-0.381 0.401-0.191 0.757-0.45 1.144-0.666 0.377-0.209 0.733-0.451 1.1-0.676 0.292-0.179 0.6-0.331 0.896-0.501 0.193-0.112 0.408-0.199 0.596-0.319 0.093-0.059 0.179-0.132 0.271-0.193 0.155-0.1 0.322-0.181 0.475-0.281 0.119-0.079 0.23-0.169 0.351-0.246 0.175-0.113 0.424-0.161 0.991-0.127z"></path>
<path d="M18.068 9.61c0-0.147-0.007-0.296-0.001-0.444 0.003-0.11 0.011-0.222 0.029-0.331 0.017-0.104 0.077-0.202 0.089-0.302 0.011-0.082-0.030-0.336-0.132-0.344-0.044-0.003-0.115 0.067-0.15 0.090-0.089 0.057-0.176 0.103-0.278 0.132-0.127 0.037-0.259 0.072-0.39 0.094-0.146 0.026-0.296 0.056-0.444 0.070-0.175 0.019-0.354 0.005-0.527 0.037-0.189 0.034-0.369 0.090-0.564 0.106-0.382 0.029-0.75 0.125-1.127 0.195-0.294 0.054-0.591 0.066-0.885 0.113-0.262 0.041-0.501 0.056-0.765 0.056-0.046 0-0.362-0.039-0.407 0.006-0.036 0.037-0.004 0.212-0.004 0.259-0.001 0.249 0 0.498 0 0.749 0 0.458 0.016 0.918-0.031 1.375-0.007 0.064-0.017 0.127-0.007 0.193 0.266-0.080 0.52-0.158 0.77-0.284 0.322-0.163 0.633-0.341 0.965-0.483 0.285-0.122 0.564-0.245 0.846-0.372 0.483-0.218 0.987-0.402 1.459-0.642 0.322-0.162 0.664-0.273 1.554-0.275z"></path>
<path d="M16.089 7.826c0.031 0.006 0.043-0.011 0.072-0.019 0.072-0.020 0.145-0.043 0.216-0.062 0.271-0.070 0.543-0.097 0.816-0.133 0.467-0.063 0.944-0.030 1.412-0.030 0.165 0 0.329-0.002 0.493 0 0.060 0 0.122 0.009 0.18 0.003 0.039-0.005 0.069-0.033 0.105-0.040 0.057-0.012 0.083 0.025 0.099-0.062 0.010-0.056 0.008-0.211-0.003-0.261-0.059-0.023-0.129-0.006-0.189-0.006-0.132 0-0.262 0-0.394 0-0.379 0-0.76 0-1.141 0-0.351 0-0.702-0.043-1.052-0.042-0.548 0.003-1.097 0.001-1.647 0.001h-1.763c-0.578 0-1.164 0.049-1.738-0.056-0.090-0.017-0.182-0.053-0.271-0.069-0.027-0.005-0.057 0.014-0.083 0.005-0.087-0.026-0.19-0.083-0.285-0.046-0.116 0.046-0.066 0.445 0.034 0.523 0.037 0.029 0.097 0.009 0.137 0.008 0.095-0.003 0.185 0.019 0.279 0.033 0.147 0.022 0.296 0.006 0.445 0.006 0.228 0.003 0.453 0.049 0.68 0.043 0.153-0.003 0.296 0.009 0.448 0.042 0.198 0.042 0.391 0.034 0.59 0.047 0.269 0.019 0.531 0.079 0.803 0.075 0.158-0.003 0.306 0.015 0.462 0.031 0.312 0.033 0.631 0.009 0.945 0.009 0.082 0 0.137 0.008 0.348 0z"></path>
<path d="M17.136 6.852c-0.059-0.052-0.060-0.162-0.080-0.235-0.066-0.239-0.069-0.473-0.092-0.719-0.026-0.265-0.060-0.528-0.009-0.792 0.046-0.242 0.133-0.471 0.192-0.709 0.069-0.283 0.096-0.578 0.143-0.866 0.019-0.116-0.014-0.182-0.030-0.292-0.011-0.090 0.017-0.192-0.001-0.281-0.014-0.072-0.069-0.123-0.034-0.199 0.083 0.023 0.103 0.136 0.163 0.19 0.084 0.077 0.179 0.034 0.276 0.049s0.049 0.002 0.079 0.079c0.033 0.086 0.040 0.165 0.044 0.259 0.016 0.385-0.003 0.776-0.003 1.161 0 0.421 0.001 0.84 0 1.261 0 0.14-0.019 0.312 0.010 0.455 0.006 0.028 0.033 0.079 0.034 0.106 0.001 0.239-0.185 0.418-0.693 0.531z"></path>
<path d="M13.648 6.731c-0.074-0.009-0.095-0.149-0.11-0.208-0.072-0.258-0.139-0.5-0.166-0.766-0.031-0.314-0.060-0.624-0.047-0.939 0.011-0.264 0.103-0.488 0.143-0.743 0.053-0.336 0.073-0.786-0.216-1.031-0.069-0.059-0.123-0.042-0.206-0.053-0.074-0.011-0.155-0.036-0.229-0.056-0.050-0.014-0.186-0.097-0.229-0.095-0.092 0.006-0.073 0.097-0.082 0.171-0.029 0.229-0.072 0.448-0.079 0.68-0.005 0.223 0.005 0.448 0.004 0.672 0 0.427 0 0.852 0 1.279v0.656c0 0.113-0.017 0.242 0 0.354 0.013 0.086 0.022 0.083 0.116 0.082 0.179-0.003 0.352-0.049 1.101-0.002z"></path>
<path d="M18.15 2.675h-1.791c-0.409 0-0.819 0-1.229 0.001-0.379 0.002-0.756-0.044-1.136-0.043-0.5 0.003-1.001-0.002-1.501 0.001-0.265 0.002-0.525-0.021-0.789-0.052-0.137-0.017-0.273-0.031-0.412-0.031-0.072 0-0.165 0.020-0.233-0.005 0.050-0.119 0.186-0.162 0.292-0.211 0.153-0.073 0.304-0.152 0.461-0.216 0.109-0.044 0.226-0.067 0.334-0.114 0.087-0.039 0.165-0.095 0.258-0.125 0.105-0.033 0.221-0.040 0.326-0.060 0.193-0.034 0.365-0.099 0.551-0.16 0.192-0.065 0.385-0.116 0.576-0.183 0.146-0.052 0.296-0.080 0.427-0.16 0.102-0.063 0.21-0.109 0.309-0.176 0.059-0.040 0.125-0.070 0.192-0.089 0.265-0.069 0.576-0.054 0.851-0.042 0.117 0.006 0.149 0.052 0.215 0.152 0.073 0.107 0.145 0.221 0.228 0.321 0.103 0.126 0.213 0.172 0.341 0.259 0.105 0.073 0.188 0.169 0.289 0.246 0.105 0.080 0.218 0.123 0.339 0.169 0.229 0.087 0.453 0.2 0.687 0.275 0.232 0.075 0.462 0.14 0.704 0.172 0.082 0.012 0.294 0.015 0.319 0.11z"></path>
</svg>
