<!-- Generated by IcoMoon.io -->
<svg version="1.1" xmlns="http://www.w3.org/2000/svg" width="32" height="32" viewBox="0 0 32 32">
<title>a_phantom_of_truth</title>
<path d="M16.37 15.062c-0.041 0.077-0.123 0.058-0.212 0.056-0.166-0.001-0.333 0.001-0.5 0.001-0.093 0-0.348 0.032-0.384-0.036-0.027-0.053 0.004-0.184 0.004-0.24 0-0.070 0.010-0.144-0.004-0.215-0.017-0.076-0.070-0.154-0.046-0.236 0.022-0.073 0.048-0.058 0.145-0.056 0.077 0.001 0.164-0.008 0.24-0.001 0.067 0.008 0.1 0.028 0.163 0.042 0.147 0.028 0.348-0.003 0.501-0.003l0.048 0.078c0 0.15 0.046 0.285 0.048 0.431 0.001 0.050 0.022 0.132-0.001 0.178zM17.668 4.254c-0.131-0.192-0.251-0.393-0.391-0.584-0.125-0.167-0.182-0.359-0.32-0.516-0.15-0.17-0.299-0.344-0.452-0.511-0.147-0.157-0.248-0.362-0.462-0.434-0.119-0.042-0.261-0.117-0.386-0.13-0.039-0.003-0.077-0.001-0.115 0.012-0.052 0.020-0.048 0.032-0.086 0.058-0.001 0.001-0.003 0.003-0.007 0.004 0.011-0.008-0.138 0.088-0.107 0.008-0.105 0.268 0.001 0.491 0 0.759-0.003 0.276 0.007 0.551 0.010 0.825 0.001 0.164 0.037 0.365-0.013 0.522-0.022 0.073-0.052 0.118-0.058 0.197-0.013 0.218-0.022 0.436-0.043 0.654-0.043 0.442-0.104 0.885-0.122 1.33-0.017 0.417 0.014 0.835-0.008 1.253-0.017 0.346-0.069 0.703-0.125 1.050-0.035 0.208-0.058 0.417-0.046 0.627 0.008 0.181 0.125 0.337 0.128 0.518 0.001 0.175-0.049 0.345-0.088 0.516-0.039 0.175-0.048 0.354-0.072 0.532-0.029 0.223-0.128 0.42-0.195 0.633-0.097 0.3-0.065 0.624-0.073 0.932-0.010 0.37-0.024 0.744-0.042 1.114-0.014 0.25-0.072 0.491-0.102 0.738-0.034 0.253 0.025 0.512-0.038 0.759-0.027 0.104-0.032 0.201-0.034 0.307-0.007 0.263-0.016 0.526 0 0.789 0.016 0.24 0.086 0.48 0.161 0.71 0.070 0.215 0.093 0.436 0.189 0.644 0.083 0.177 0.215 0.33 0.32 0.497 0.093 0.149 0.116 0.316 0.227 0.456 0.1 0.126 0.217 0.241 0.288 0.382 0.050 0.101 0.201 0.263 0.208 0.376 0.091-0.016 0.088-0.13 0.129-0.188 0.046-0.066 0.115-0.117 0.159-0.191 0.069-0.112 0.121-0.229 0.185-0.342 0.101-0.178 0.227-0.348 0.319-0.528 0.084-0.171 0.149-0.345 0.23-0.518 0.070-0.147 0.035-0.288 0.126-0.427 0.22-0.331 0.161-0.702 0.157-1.061-0.001-0.205 0.053-0.393 0.063-0.595s-0.004-0.41-0.004-0.613v-2.060c0-0.185 0.001-0.373 0.001-0.56 0-0.157-0.028-0.335 0.016-0.488 0.028-0.095 0.104-0.173 0.133-0.266 0.053-0.16 0.019-0.342 0.018-0.504-0.004-0.429-0.010-0.859 0-1.287 0.011-0.522 0.227-1.019 0.309-1.535 0.1-0.64-0.007-1.287 0.052-1.929 0.031-0.327 0.032-0.644 0.042-0.971 0.010-0.342 0.126-0.658-0.081-0.965z"></path>
<path d="M21.319 15.251c-0.004 0.050-0.016 0.097-0.016 0.15 0 0.028-0.007 0.056-0.014 0.086-0.001 0.016 0.003 0.032-0.001 0.045-0.007 0.020-0.013 0.008-0.014 0.036-0.013 0.083 0.041 0.206-0.095 0.24-0.123 0.028-0.324-0.003-0.453-0.003-0.080 0-0.191 0.020-0.268 0.003-0.065-0.016-0.104-0.036-0.181-0.048-0.003-0.059 0.041-0.125 0.045-0.189 0.004-0.079 0-0.159-0.001-0.239 0-0.076-0.037-0.216 0.043-0.274 0.045-0.032 0.115-0.036 0.171-0.036 0.080 0 0.163 0.001 0.243 0.016 0.109 0.024 0.234 0.008 0.348 0.008 0.038 0 0.154 0.016 0.178-0.008 0.029 0.016 0.016 0.067 0.016 0.093 0 0.040 0.003 0.080 0 0.118zM22.283 9.622c-0.008-0.228-0.063-0.449-0.060-0.678 0.001-0.194-0.001-0.39 0-0.584 0.001-0.385-0.058-0.761-0.058-1.144 0-0.154-0.001-0.311-0.001-0.466 0-0.056 0.024-0.201-0.004-0.257-0.011-0.024-0.053-0.024-0.063-0.048-0.039-0.093 0.017-0.208-0.050-0.292-0.028-0.036-0.077-0.053-0.115-0.077-0.131-0.087-0.264-0.185-0.376-0.293-0.24-0.233-0.467-0.457-0.711-0.682-0.202-0.188-0.386-0.53-0.702-0.512-0.38 0.024-0.194 0.843-0.157 1.003l0.041-0.254c-0.014 0.292 0.017 0.596 0.017 0.877v2.196c0 0.556 0.032 1.121-0.004 1.677-0.032 0.497-0.126 0.991-0.163 1.486-0.038 0.476-0.010 0.922-0.116 1.393-0.093 0.41-0.178 0.797-0.175 1.214 0.001 0.293-0.041 0.605 0.013 0.895 0.046 0.248 0.010 0.501 0.058 0.747 0.069 0.358 0.007 0.716 0.041 1.076 0.034 0.351 0.201 0.671 0.303 1.006 0.022 0.074 0.073 0.143 0.091 0.218 0.016 0.066 0 0.123 0.008 0.189 0.016 0.133 0.093 0.255 0.118 0.386 0.032 0.157 0.094 0.209 0.202 0.344 0.087 0.109 0.091 0.271 0.199 0.366 0.109-0.115 0.174-0.21 0.258-0.338 0.046-0.070 0.105-0.105 0.153-0.178 0.094-0.138 0.226-0.22 0.279-0.375 0.088-0.25 0.173-0.5 0.283-0.742 0.122-0.264 0.276-0.511 0.29-0.803 0.022-0.418-0.037-0.838 0.024-1.256 0.032-0.223 0.119-0.441 0.143-0.664 0.028-0.261 0.055-0.537 0.062-0.798 0.018-0.585-0.006-1.158 0.072-1.743 0.072-0.547 0.1-1.096 0.1-1.645 0-0.415 0.017-0.832 0.003-1.246z"></path>
<path d="M25.511 16.72c-0.215 0.003-0.408 0.036-0.62 0.040-0.229 0.001-0.195-0.036-0.195-0.164 0-0.142 0.069-0.255 0.066-0.396 0-0.103-0.007-0.173 0.065-0.261l0.195 0.077c0.115-0.020 0.262 0.064 0.365 0.076 0.060 0.004 0.173-0.012 0.227 0 0.098 0.024 0.042 0.046 0.059 0.101 0.016 0.050 0.052 0.093 0.069 0.144 0.022 0.063-0.004 0.143-0.003 0.209 0.003 0.126 0 0.173-0.227 0.175zM26.418 9.652c-0.007-0.111-0.034-0.272-0.091-0.372-0.038-0.060-0.1-0.105-0.154-0.15-0.18-0.149-0.307-0.403-0.41-0.612-0.081-0.164-0.216-0.297-0.305-0.457-0.050-0.097-0.088-0.209-0.133-0.311-0.024-0.053-0.019-0.061-0.050-0.101-0.050-0.064-0.168-0.142-0.234-0.188-0.062-0.042-0.128-0.070-0.202-0.083-0.173-0.028-0.142 0.020-0.227 0.171-0.129 0.226-0.219 0.425-0.215 0.679 0.003 0.316 0.001 0.631 0.001 0.949 0 0.397-0.001 0.793-0.001 1.19 0.001 0.391-0.031 0.772-0.056 1.16v0.016c-0.021 0.303-0.091 0.598-0.115 0.899-0.019 0.253-0.045 0.505-0.063 0.759-0.024 0.311-0.058 0.629-0.133 0.936-0.038 0.159-0.067 0.327-0.045 0.488 0.014 0.099 0.073 0.156 0.122 0.245 0.060 0.108 0.021 0.236 0.010 0.351-0.049 0.441-0.006 0.902-0.006 1.344 0 0.631-0.062 1.292 0.274 1.878 0.123 0.213 0.171 0.445 0.25 0.666 0.029 0.083 0.077 0.299 0.208 0.319 0.048-0.053 0.063-0.125 0.112-0.178 0.074-0.077 0.184-0.123 0.253-0.215 0.095-0.123 0.198-0.229 0.281-0.358 0.129-0.202 0.275-0.397 0.405-0.599 0.143-0.22 0.326-0.533 0.297-0.783-0.035-0.309-0.014-0.624-0.014-0.933 0-0.605-0.066-1.238 0.028-1.838 0.166-1.052-0.119-2.14 0.072-3.191 0.076-0.421 0.108-0.848 0.142-1.273 0.010-0.136 0.008-0.271 0.001-0.407z"></path>
<path d="M11.533 15.285c-0.006 0.024-0.011 0.042-0.010 0.067 0.006 0.060 0.017 0.122 0 0.183-0.018 0.060-0.052 0.079-0.050 0.154 0.003 0.082 0.032 0.138-0.069 0.159-0.076 0.016-0.185-0.003-0.264-0.003-0.174 0.001-0.295-0.067-0.467-0.084-0.016-0.066-0.035-0.142-0.055-0.208-0.016-0.045-0.042-0.074-0.052-0.12-0.014-0.066 0.043-0.13 0.052-0.194 0.008-0.058-0.041-0.185 0.050-0.226 0.024-0.012 0.074-0.003 0.098-0.003 0.125 0 0.253 0.004 0.375 0.032 0.041 0.008 0.080 0.004 0.119 0.008 0.037 0.008 0.069 0.016 0.105 0.012 0.031 0 0.080-0.004 0.108 0 0.022 0.004 0.035 0.012 0.060 0.016 0.011 0.032 0.003 0.076 0.003 0.109 0 0.032 0.003 0.066-0.004 0.098zM12.287 4.861c-0.088 0.097-0.143 0.224-0.222 0.331-0.128 0.175-0.274 0.369-0.443 0.509-0.090 0.074-0.187 0.14-0.275 0.22-0.076 0.067-0.119 0.156-0.191 0.224-0.042 0.040-0.091 0.062-0.135 0.099-0.073 0.061-0.105 0.142-0.17 0.208-0.069 0.069-0.154 0.112-0.226 0.184-0.073 0.077-0.146 0.139-0.225 0.205-0.056 0.046-0.109 0.084-0.167 0.13-0.138 0.107-0.088 0.302-0.098 0.459-0.014 0.224-0.014 0.449-0.008 0.674 0.003 0.093-0.034 0.17-0.039 0.266-0.008 0.117-0.056 0.229-0.062 0.348-0.024 0.516-0.055 1.027-0.055 1.548 0 0.452-0.004 0.905 0.001 1.358 0 0.22-0.037 0.429-0.055 0.648-0.018 0.237-0.004 0.477-0.004 0.716 0 0.415 0.004 0.832-0.001 1.247-0.003 0.154 0.055 0.296 0.062 0.45 0.008 0.18 0.006 0.337 0.041 0.511 0.060 0.289 0.014 0.616 0.014 0.911 0 0.321-0.084 0.669 0.088 0.965 0.076 0.129 0.104 0.275 0.182 0.407 0.119 0.205 0.227 0.425 0.334 0.636 0.087 0.174 0.203 0.324 0.3 0.491 0.122 0.209 0.196 0.431 0.401 0.595 0.080 0.066 0.073 0.101 0.173 0.040 0.143-0.091 0.185-0.328 0.227-0.463 0.112-0.368 0.223-0.73 0.316-1.1 0.065-0.261 0.18-0.502 0.174-0.772-0.003-0.168-0.076-0.314-0.118-0.476-0.059-0.236-0.013-0.487-0.013-0.727-0.001-0.279-0.006-0.56 0.045-0.836 0.081-0.455 0.011-0.975 0.011-1.433 0.001-0.29 0.024-0.592-0.010-0.881-0.029-0.177-0.062-0.354-0.094-0.53-0.018-0.3-0.045-0.596 0.069-0.885 0.045-0.109 0.080-0.213 0.093-0.328 0.073-0.699 0.062-1.423 0.058-2.124-0.001-0.582 0.175-1.135 0.275-1.708 0.080-0.473 0.128-0.939 0.128-1.417 0-0.274 0-0.55 0.058-0.777-0.164 0-0.324-0.049-0.439 0.079z"></path>
<path d="M7.336 16.722c-0.034 0.053-0.069 0.036-0.15 0.036-0.156 0.004-0.348-0.024-0.498-0.001-0.142 0.020-0.241 0.058-0.397 0.036-0.042-0.093 0.011-0.195-0.021-0.29-0.018-0.052-0.028-0.099-0.035-0.149-0.003 0.004-0.006 0.008-0.011 0.012v-0.118c0.001 0.040 0.006 0.072 0.011 0.105 0.027-0.040 0.041-0.056 0.049-0.104 0.006-0.032-0.025-0.093-0.006-0.12 0.041-0.059 0.189-0.004 0.283 0.008 0.053 0.008 0.084 0.028 0.159 0.032 0.066 0.001 0.136 0 0.203 0 0.135-0.001 0.209 0.036 0.342 0.043 0.019 0.052-0.006 0.098 0.004 0.149 0.013 0.070 0.060 0.129 0.063 0.199 0.003 0.040 0.024 0.126 0.003 0.159zM8.149 8.302c0.011-0.13 0.069-0.254 0.074-0.385 0.008-0.197-0.208-0.26-0.345-0.153-0.081 0.064-0.126 0.187-0.185 0.269-0.174 0.244-0.432 0.431-0.654 0.636-0.029 0.028-0.060 0.056-0.087 0.086-0.233 0.233-0.452 0.522-0.696 0.727-0.080 0.064-0.105 0.146-0.154 0.233-0.083 0.149-0.234 0.28-0.241 0.448-0.008 0.184-0.011 0.368-0.011 0.552 0.001 0.146 0.038 0.335 0.003 0.478-0.011 0.052-0.041 0.079-0.062 0.125-0.045 0.097-0.042 0.209-0.043 0.314-0.003 0.189 0.018 0.376 0.018 0.565 0 0.257-0.010 0.516-0.001 0.773 0.006 0.187 0.052 0.359 0.051 0.546-0.004 0.509 0.017 1.006 0.046 1.51 0.032 0.535-0.159 1.065-0.168 1.6-0.004 0.229-0.079 0.428-0.119 0.648-0.019 0.114 0.032 0.135 0.115 0.209 0.159 0.142 0.202 0.309 0.288 0.48 0.108 0.22 0.218 0.405 0.274 0.64 0.043 0.177 0.129 0.341 0.174 0.516 0.024 0.094 0.093 0.194 0.067 0.292 0.097-0.174 0.23-0.33 0.407-0.455 0.087-0.063 0.166-0.097 0.229-0.183 0.087-0.119 0.112-0.266 0.195-0.39 0.135-0.204 0.196-0.403 0.265-0.63 0.053-0.184 0.129-0.373 0.171-0.553 0.091-0.391 0.095-0.863 0.051-1.268-0.073-0.661-0.052-1.326-0.052-1.99 0-0.502-0.027-1.009-0.003-1.51 0.010-0.218 0.046-0.432 0.060-0.65 0.019-0.31 0.024-0.631 0.067-0.939 0.067-0.474 0.253-0.933 0.279-1.414 0.013-0.224-0.003-0.452-0.001-0.675 0-0.15-0.024-0.303-0.010-0.453z"></path>
<path d="M27.037 18.415c0.121 0.163 0.076 0.5 0.079 0.695 0.003 0.293-0.025 0.619-0.083 0.905-0.114 0.561-0.303 1.106-0.57 1.605-0.063 0.118-0.131 0.241-0.232 0.328-0.115 0.101-0.262 0.132-0.39 0.21-0.188 0.115-0.319 0.317-0.483 0.469-0.184 0.17-0.386 0.316-0.584 0.466-0.328 0.247-0.636 0.518-0.981 0.737-0.331 0.21-0.686 0.373-1.022 0.58-0.234 0.147-0.469 0.306-0.709 0.445-0.224 0.128-0.45 0.269-0.7 0.314-0.528 0.093-1.083 0.003-1.593-0.143-0.192-0.056-0.384-0.090-0.564-0.183-0.15-0.079-0.314-0.108-0.459-0.204-0.286-0.189-0.459-0.48-0.704-0.718-0.122-0.117-0.265-0.23-0.4-0.331-0.093-0.072-0.248-0.13-0.331-0.219-0.049-0.053-0.052-0.125-0.084-0.187-0.133-0.264-0.331-0.505-0.533-0.718-0.365-0.381-0.756-0.773-1.278-0.909-0.386-0.101-0.742-0.098-1.141-0.099-0.459-0.001-0.906 0.083-1.364 0.105-0.275 0.012-0.516 0.080-0.786 0.149-0.229 0.058-0.445 0.076-0.676 0.098-0.133 0.012-0.244 0.056-0.383 0.053-0.219-0.004-0.377 0.105-0.549 0.228-0.119 0.084-0.248 0.144-0.372 0.219-0.323 0.197-0.585 0.491-0.648 0.871-0.043 0.255-0.086 0.495-0.191 0.732-0.14 0.32-0.335 0.61-0.425 0.953-0.104 0.401-0.083 0.881 0.035 1.267 0.154 0.501 0.498 0.855 0.866 1.145 0.178 0.142 0.295 0.204 0.509 0.16 0.254-0.050 0.523 0.012 0.777 0.032 0.216 0.020 0.405 0.098 0.622 0.118 0.128 0.012 0.486 0.128 0.596 0.012-0.039-0.090-0.060-0.222-0.055-0.321 0.007-0.14-0.013-0.255-0.016-0.393-0.001-0.136 0.029-0.146-0.088-0.127-0.073 0.012-0.146 0.032-0.227 0.004-0.055-0.020-0.114-0.061-0.175-0.084-0.090-0.036-0.152-0.061-0.25-0.070-0.055-0.004-0.088-0.008-0.143-0.001-0.019 0.004-0.035 0.045-0.065 0.046-0.072 0.003-0.13-0.062-0.198-0.083-0.125-0.042-0.237-0.108-0.34-0.192-0.142-0.118-0.265-0.258-0.404-0.38-0.105-0.091-0.208-0.189-0.285-0.308-0.118-0.181-0.133-0.375-0.1-0.584 0.042-0.265 0.088-0.596 0.206-0.835 0.153-0.309 0.387-0.544 0.665-0.741 0.145-0.101 0.333-0.192 0.493-0.266 0.281-0.13 0.582-0.274 0.831-0.448 0.227-0.163 0.505-0.143 0.772-0.147 0.143-0.001 0.225 0.055 0.375 0.052 0.192-0.003 0.351 0.058 0.537 0.088 0.281 0.046 0.57 0.114 0.839 0.215 0.26 0.099 0.448 0.275 0.641 0.471 0.257 0.258 0.488 0.544 0.732 0.815 0.115 0.128 0.253 0.237 0.358 0.376 0.105 0.14 0.159 0.314 0.267 0.449 0.066 0.082 0.149 0.123 0.237 0.175 0.055 0.032 0.107 0.064 0.159 0.103 0.269 0.199 0.561 0.356 0.836 0.55 0.333 0.236 0.654 0.34 1.038 0.427 0.352 0.082 0.69 0.032 1.047-0.008 0.567-0.066 1.139-0.159 1.703-0.26 0.312-0.056 0.624-0.138 0.935-0.21 0.462-0.109 0.895-0.334 1.327-0.556 0.324-0.164 0.631-0.376 0.925-0.603 0.37-0.285 0.728-0.612 1.11-0.874 0.393-0.271 0.718-0.627 1.059-0.978 0.356-0.366 0.584-0.827 0.724-1.35 0.076-0.28 0.133-0.567 0.195-0.85 0.045-0.206 0.093-0.431 0.111-0.641 0.016-0.198 0.038-0.396 0.053-0.592 0.018-0.215-0.021-0.429-0.034-0.643-0.021-0.429 0.028-0.856-0.046-1.284-0.024-0.139-0.065-0.192-0.154-0.279-0.041-0.042-0.152-0.219-0.212-0.209-0.053 0.008-0.086 0.119-0.112 0.163-0.056 0.087-0.118 0.135-0.18 0.21-0.1 0.125-0.177 0.303-0.232 0.46-0.042 0.115-0.072 0.229-0.108 0.346-0.034 0.114-0.139 0.282-0.004 0.178z"></path>
<path d="M7.779 24.24c-0.006-0.072-0.049-0.102-0.081-0.156-0.063-0.104-0.111-0.229-0.157-0.346-0.152-0.38-0.184-1.030-0.013-1.43 0.159-0.366 0.448-0.601 0.693-0.855 0.223-0.23 0.446-0.452 0.676-0.667 0.508-0.47 1.059-0.95 1.64-1.233 0.422-0.206 0.819-0.34 1.264-0.404 0.297-0.042 0.594-0.122 0.891-0.18 0.319-0.062 0.638-0.095 0.956-0.185 0.683-0.197 1.386-0.323 2.080-0.427 0.483-0.073 0.937-0.043 1.416-0.004 0.591 0.048 1.169 0.13 1.661 0.551 0.087 0.074 0.188 0.091 0.281 0.156 0.088 0.061 0.164 0.13 0.255 0.181 0.198 0.108 0.397 0.197 0.592 0.317 0.251 0.154 0.536 0.261 0.747 0.5 0.152 0.168 0.286 0.328 0.417 0.522 0.1 0.147 0.255 0.219 0.333 0.391 0.053 0.119 0.070 0.264 0.079 0.398 0.007 0.083 0.008 0.165 0 0.247-0.011 0.123-0.049 0.241-0.074 0.362-0.034 0.173-0.032 0.345-0.052 0.519-0.024 0.202-0.107 0.248-0.22 0.385-0.146 0.178-0.307 0.288-0.484 0.408-0.087 0.058-0.167 0.164-0.269 0.192-0.072 0.020-0.135 0.020-0.206 0.048-0.15 0.053-0.299 0.118-0.443 0.188-0.050 0.024-0.097 0.053-0.153 0.055-0.145 0.004-0.293-0.117-0.42-0.185-0.079-0.042-0.175-0.040-0.262-0.062-0.16-0.041-0.272-0.192-0.427-0.261-0.095-0.043-0.108-0.101-0.18-0.188-0.053-0.067-0.109-0.099-0.159-0.173-0.121-0.174-0.247-0.393-0.324-0.598-0.031-0.080-0.077-0.206-0.049-0.299 0.027-0.086 0.192-0.161 0.261-0.216 0.060-0.049 0.174-0.2 0.251-0.188 0.038 0.197-0.008 0.418 0.091 0.599 0.107 0.192 0.257 0.34 0.442 0.4 0.133 0.043 0.241 0.136 0.377 0.184 0.157 0.055 0.306 0.058 0.47 0.056 0.126-0.001 0.31-0.024 0.375-0.184 0.027-0.064 0.016-0.104 0.007-0.17-0.025-0.17-0.031-0.338-0.056-0.508-0.018-0.128 0.018-0.257-0.042-0.372-0.042-0.083-0.126-0.111-0.175-0.18-0.067-0.098-0.066-0.205-0.087-0.325-0.028-0.152-0.135-0.185-0.219-0.279-0.358-0.397-0.904-0.609-1.347-0.846-0.286-0.152-0.578-0.253-0.883-0.321-0.175-0.040-0.351-0.073-0.53-0.091-0.288-0.028-0.551 0.032-0.838 0.062-0.446 0.049-0.892 0.004-1.34 0.070-0.32 0.046-0.637 0.117-0.958 0.168-0.362 0.058-0.745 0.167-1.095 0.328-0.347 0.157-0.711 0.3-1.073 0.376-0.399 0.083-0.754 0.209-1.116 0.453-0.3 0.201-0.596 0.376-0.874 0.631-0.105 0.097-0.171 0.167-0.248 0.308-0.098 0.18-0.227 0.295-0.345 0.448-0.168 0.216-0.435 0.484-0.512 0.783-0.070 0.276-0.073 0.644-0.045 0.922 0.019 0.21 0.043 0.425 0.053 0.634 0.004 0.102 0.074 0.352-0.014 0.427-0.097 0.082-0.389-0.073-0.449-0.164-0.091-0.135-0.196-0.33-0.257-0.487-0.066-0.17-0.074-0.295-0.083-0.484-0.013-0.272-0.109-0.445 0.007-0.716z"></path>
<path d="M11.913 25.255c0.342 0.016 0.676-0.062 1.019 0.003 0.254 0.046 0.494 0.174 0.731 0.275 0.297 0.127 0.472 0.366 0.732 0.54 0.226 0.15 0.344 0.4 0.529 0.592 0.067 0.072 0.108 0.157 0.164 0.237 0.094 0.133 0.206 0.255 0.303 0.387 0.296 0.401 0.622 0.798 1.022 1.097 0.094 0.072 0.201 0.115 0.295 0.185 0.079 0.062 0.157 0.164 0.255 0.197 0.050 0.016 0.1 0.004 0.15 0.012 0.073 0.012 0.126 0.048 0.198 0.063 0.282 0.061 0.612 0.024 0.86-0.115 0.192-0.108 0.39-0.149 0.592-0.227 0.059-0.024 0.104-0.062 0.168-0.084 0.049-0.020 0.161-0.020 0.206-0.050 0.15-0.103-0.039-0.413-0.081-0.56-0.043-0.165-0.014-0.21-0.191-0.216-0.135-0.001-0.232-0.003-0.365 0.036-0.34 0.099-0.776 0.041-1.096-0.099-0.17-0.074-0.331-0.127-0.491-0.223-0.128-0.076-0.26-0.15-0.38-0.229s-0.208-0.21-0.313-0.308c-0.161-0.15-0.299-0.309-0.422-0.491-0.050-0.074-0.121-0.126-0.17-0.197-0.046-0.064-0.066-0.143-0.112-0.209-0.081-0.117-0.161-0.232-0.237-0.352-0.087-0.138-0.194-0.26-0.3-0.382-0.116-0.133-0.223-0.292-0.376-0.387-0.24-0.149-0.414-0.295-0.688-0.382-0.304-0.097-0.616-0.237-0.932-0.285-0.159-0.024-0.331-0.012-0.493-0.020-0.152-0.008-0.327-0.041-0.476-0.008-0.091 0.020-0.171 0.050-0.254 0.080-0.104 0.040-0.136-0.001-0.159 0.142-0.034 0.202-0.013 0.417 0.022 0.608 0.027 0.138 0.022 0.285 0.070 0.413 0.063 0.163 0.1 0.201 0.217-0.041z"></path>
<path d="M23.442 18.62c0.022 0.095-0.073 0.144-0.129 0.205-0.128 0.136-0.21 0.279-0.248 0.457-0.107 0.484 0.010 1.012 0.1 1.487 0.050 0.272 0.199 0.502 0.331 0.742 0.048 0.087 0.067 0.189 0.157 0.243 0.072 0.042 0.213 0.080 0.292 0.097 0.15 0.036 0.327 0.008 0.481 0.012 0.091 0.001 0.279-0.080 0.323-0.024 0.042 0.053 0.001 0.257 0.003 0.327 0.001 0.156-0.048 0.191-0.199 0.204-0.109 0.008-0.196 0.024-0.295 0.076-0.074 0.036-0.109 0.076-0.188 0.074-0.091-0.001-0.22-0.036-0.316-0.048-0.105-0.012-0.181-0.055-0.274-0.103-0.387-0.199-0.654-0.469-0.864-0.857-0.111-0.204-0.208-0.411-0.328-0.609-0.065-0.104-0.15-0.195-0.198-0.31-0.046-0.117-0.049-0.24-0.069-0.364-0.043-0.255-0.045-0.472 0.006-0.723 0.031-0.157 0.039-0.354 0.152-0.48 0.177-0.205 0.471-0.303 0.664-0.498 0.1-0.102 0.191-0.21 0.248-0.346 0.077 0.103 0.17 0.164 0.227 0.285 0.046 0.093 0.070 0.142 0.125 0.215 0.045 0.061 0.090 0.111 0-0.062z"></path>
<path d="M7.767 20.433c0.008-0.046 0.070-0.066 0.104-0.098 0.185-0.18 0.159-0.485 0.014-0.69-0.065-0.088-0.119-0.175-0.223-0.24-0.069-0.042-0.133-0.052-0.205-0.076-0.058-0.016-0.108-0.056-0.171-0.055-0.097 0-0.164 0.088-0.254 0.109-0.086 0.020-0.167 0.016-0.254 0.048-0.095 0.032-0.189 0.024-0.281 0.049-0.062 0.016-0.086 0.048-0.145 0.078-0.088 0.046-0.153 0.061-0.239 0.125-0.091 0.067-0.181 0.125-0.267 0.202-0.23 0.205-0.399 0.493-0.525 0.775-0.276 0.609-0.087 1.468 0.22 2.005 0.059 0.101 0.095 0.195 0.175 0.278 0.060 0.066 0.142 0.154 0.001 0.191-0.241 0.066-0.557-0.132-0.728-0.258-0.202-0.15-0.33-0.342-0.429-0.558-0.088-0.189-0.234-0.365-0.274-0.571-0.043-0.234-0.111-0.477-0.135-0.714-0.024-0.228-0.143-0.512-0.053-0.73 0.091-0.222 0.199-0.4 0.362-0.581 0.18-0.204 0.372-0.391 0.539-0.603 0.072-0.091 0.133-0.138 0.234-0.192 0.145-0.079 0.257-0.198 0.4-0.276 0.067-0.036 0.14-0.049 0.208-0.087 0.163-0.091 0.283-0.21 0.465-0.276 0.196-0.070 0.352-0.154 0.568-0.157 0.227-0.001 0.417 0.008 0.638 0.050 0.202 0.040 0.399 0.053 0.516 0.229 0.098 0.149 0.203 0.284 0.29 0.438 0.034 0.058 0.076 0.087 0.122 0.136 0.052 0.053 0.072 0.114 0.097 0.18 0.059 0.15 0.056 0.282 0.056 0.439 0 0.111 0.022 0.247 0.001 0.356-0.016 0.083-0.093 0.161-0.145 0.226-0.105 0.136-0.223 0.296-0.403 0.349-0.056 0.016-0.086 0.040-0.13 0.059-0.062 0.028-0.079 0.032-0.153 0.049-0.111 0.024-0.196 0.14-0.219-0.008-0.017-0.108 0.046-0.139 0.121-0.209 0.065-0.061 0.209-0.104 0.098 0.008z"></path>
</svg>
