<!-- Generated by IcoMoon.io -->
<svg version="1.1" xmlns="http://www.w3.org/2000/svg" width="32" height="32" viewBox="0 0 32 32">
<title>a_thousand_shapes_of_horror</title>
<path d="M7.488 25.839c-0.189-0.245-0.397-0.479-0.575-0.732-0.189-0.268-0.373-0.547-0.543-0.828-0.286-0.473-0.487-0.978-0.746-1.462-0.146-0.273-0.27-0.544-0.391-0.828-0.125-0.291-0.262-0.575-0.373-0.871-0.11-0.292-0.22-0.582-0.335-0.872-0.107-0.272-0.161-0.554-0.244-0.831-0.075-0.25-0.12-0.493-0.158-0.747-0.046-0.304-0.112-0.605-0.151-0.911-0.030-0.243-0.003-0.479-0.003-0.72 0.001-0.25-0.001-0.501 0.013-0.75 0.013-0.235 0.045-0.466 0.080-0.696 0.039-0.256 0.139-0.488 0.185-0.741 0.046-0.25 0.082-0.483 0.161-0.722 0.069-0.206 0.129-0.418 0.184-0.628 0.121-0.469 0.29-0.907 0.457-1.355 0.138-0.369 0.271-0.745 0.451-1.092 0.11-0.211 0.268-0.4 0.404-0.593 0.151-0.217 0.294-0.434 0.48-0.622 0.322-0.325 0.626-0.669 0.93-1.012 0.381-0.428 0.808-0.816 1.209-1.225 0.369-0.377 0.81-0.713 1.261-0.99 0.249-0.153 0.513-0.285 0.764-0.437 0.29-0.175 0.591-0.323 0.899-0.469 0.503-0.239 1.008-0.49 1.536-0.681 0.276-0.098 0.564-0.177 0.852-0.248 0.359-0.087 0.713-0.201 1.078-0.266 0.557-0.1 1.128-0.17 1.7-0.184 0.287-0.007 0.571-0.043 0.86-0.049 0.306-0.003 0.605 0.033 0.912 0.063 0.253 0.023 0.503 0.050 0.755 0.087 0.233 0.036 0.457 0.112 0.683 0.187 0.22 0.073 0.418 0.183 0.627 0.285 0.296 0.146 0.597 0.279 0.889 0.436 0.436 0.234 0.877 0.451 1.312 0.687 0.443 0.241 0.861 0.531 1.261 0.842 0.285 0.221 0.571 0.442 0.852 0.668 0.225 0.179 0.419 0.397 0.622 0.601 0.382 0.383 0.765 0.766 1.146 1.149 0.46 0.461 0.902 0.931 1.287 1.456 0.493 0.669 0.954 1.359 1.346 2.088-0.097-0.37-0.221-0.732-0.409-1.083-0.402-0.754-0.879-1.465-1.386-2.155-0.395-0.535-0.846-1.014-1.314-1.485-0.39-0.391-0.779-0.782-1.169-1.173-0.207-0.208-0.406-0.432-0.636-0.614-0.286-0.23-0.579-0.456-0.869-0.681-0.409-0.318-0.834-0.613-1.286-0.858-0.443-0.241-0.894-0.464-1.338-0.702-0.298-0.161-0.605-0.295-0.908-0.445-0.212-0.105-0.415-0.216-0.64-0.29-0.23-0.077-0.46-0.155-0.696-0.19-0.258-0.038-0.513-0.067-0.77-0.091-0.314-0.030-0.618-0.068-0.931-0.062-0.294 0.007-0.584 0.041-0.877 0.049-0.584 0.016-1.166 0.087-1.734 0.188-0.373 0.066-0.734 0.183-1.1 0.272-0.294 0.072-0.588 0.152-0.87 0.253-0.539 0.194-1.054 0.451-1.568 0.695-0.313 0.148-0.622 0.299-0.917 0.479-0.256 0.154-0.525 0.289-0.779 0.444-0.46 0.283-0.909 0.626-1.287 1.010-0.409 0.418-0.846 0.814-1.234 1.25-0.31 0.35-0.619 0.701-0.949 1.033-0.189 0.19-0.336 0.413-0.49 0.633-0.137 0.197-0.299 0.389-0.41 0.604-0.185 0.355-0.321 0.738-0.461 1.115-0.171 0.458-0.344 0.904-0.466 1.383-0.056 0.214-0.119 0.43-0.188 0.641-0.082 0.244-0.118 0.481-0.164 0.737-0.047 0.257-0.149 0.494-0.19 0.755-0.037 0.235-0.069 0.471-0.082 0.71-0.013 0.254-0.010 0.51-0.013 0.765-0.001 0.247-0.030 0.488 0.003 0.736 0.038 0.31 0.106 0.619 0.153 0.928 0.039 0.259 0.084 0.508 0.161 0.763 0.085 0.283 0.141 0.571 0.25 0.848 0.116 0.296 0.229 0.593 0.341 0.892 0.114 0.302 0.253 0.591 0.381 0.888 0.124 0.29 0.249 0.567 0.398 0.846 0.266 0.493 0.47 1.010 0.761 1.493 0.174 0.286 0.361 0.57 0.553 0.844 0.181 0.258 0.395 0.497 0.587 0.746 0.395 0.511 0.815 1.015 1.272 1.471 0.349 0.347 0.693 0.692 1.054 1.024-0.072-0.072-0.143-0.142-0.214-0.213-0.448-0.448-0.86-0.941-1.247-1.442z"></path>
<path d="M28.496 18.013c-0.023-0.144-0.061-0.283-0.091-0.425-0.023-0.107-0.033-0.216-0.054-0.323-0.023-0.112-0.058-0.222-0.086-0.332-0.036-0.147-0.060-0.294-0.102-0.439-0.151-0.519-0.325-1.029-0.489-1.544-0.075-0.231-0.179-0.45-0.25-0.683-0.056-0.185-0.139-0.361-0.198-0.547-0.043-0.137-0.111-0.259-0.167-0.389-0.033-0.074-0.060-0.148-0.098-0.218-0.066-0.121-0.17-0.31-0.286-0.383-0.030 0.041-0.003 0.123 0.003 0.168 0.026 0.135 0.078 0.266 0.119 0.397 0.046 0.151 0.083 0.302 0.129 0.453 0.060 0.192 0.138 0.378 0.214 0.562 0.25 0.601 0.462 1.227 0.529 1.879 0.054 0.524 0.102 1.045 0.097 1.571 0.001 0.001 0.001 0.002 0.001 0.003v0c0.026 0.203 0.020 0.402 0.010 0.608 0 0.002 0 0.007 0 0.007 0.026 0 0.055 0 0.082 0-0.016 0.104-0.033 0.192-0.037 0.222-0.036 0.295-0.076 0.59-0.125 0.884-0.058 0.347-0.158 0.649-0.309 0.971-0.164 0.35-0.249 0.722-0.427 1.068-0.061 0.119-0.132 0.231-0.204 0.342-0.041 0.078-0.083 0.156-0.121 0.235-0.051 0.107-0.095 0.222-0.16 0.322-0.037 0.058-0.083 0.11-0.122 0.166-0.1 0.139-0.17 0.3-0.267 0.443-0.112 0.167-0.25 0.316-0.368 0.479-0.11 0.153-0.231 0.286-0.356 0.426-0.115 0.129-0.226 0.262-0.342 0.391-0.030 0.040-0.060 0.079-0.092 0.119-0.062 0.077-0.12 0.157-0.183 0.234-0.1 0.119-0.217 0.222-0.326 0.331-0.2 0.202-0.401 0.402-0.601 0.604-0.178 0.182-0.372 0.328-0.573 0.48-0.341 0.26-0.722 0.475-1.107 0.667-0.007 0.003-0.016 0.007-0.023 0.010-0.077 0.037-0.152 0.074-0.229 0.11-0.183 0.135-0.375 0.236-0.582 0.33-0.22 0.1-0.432 0.213-0.653 0.313-0.192 0.085-0.387 0.16-0.58 0.241-0.336 0.142-0.686 0.296-1.042 0.373-0.398 0.086-0.794 0.176-1.193 0.258-0.378 0.078-0.761 0.097-1.147 0.077-0.246-0.013-0.494-0.016-0.74-0.038-0.218-0.023-0.437-0.054-0.654-0.083-0.24-0.033-0.473-0.084-0.708-0.142-0.181-0.045-0.355-0.115-0.53-0.18-0.252-0.093-0.469-0.244-0.699-0.379-0.183-0.107-0.364-0.214-0.539-0.335-0.087-0.060-0.165-0.13-0.268-0.161-0.041-0.013-0.075-0.016-0.11-0.042-0.003 0.003-0.010 0.007-0.016 0.010 0.041 0.079 0.291 0.203 0.517 0.336 0.171 0.101 0.344 0.203 0.512 0.308 0.153 0.095 0.302 0.2 0.464 0.281 0.16 0.082 0.332 0.156 0.483 0.254 0.142 0.093 0.287 0.198 0.444 0.266 0.226 0.096 0.483 0.149 0.72 0.207 0.331 0.078 0.676 0.114 1.013 0.151 0.291 0.033 0.581 0.030 0.872 0.055 0.156 0.013 0.31-0.003 0.466-0.001 0.203 0.003 0.409 0.038 0.612 0.016 0.092-0.013 0.18-0.034 0.271-0.054 0.153-0.033 0.309-0.049 0.462-0.079 0.248-0.050 0.493-0.098 0.736-0.168 0.451-0.131 0.908-0.22 1.346-0.39 0.188-0.073 0.368-0.164 0.553-0.24 0.254-0.107 0.509-0.204 0.76-0.319 0.484-0.223 0.971-0.482 1.396-0.805 0.202-0.153 0.395-0.3 0.573-0.482 0.199-0.202 0.401-0.402 0.602-0.603 0.108-0.11 0.226-0.213 0.324-0.332 0.064-0.075 0.121-0.157 0.184-0.234 0.147-0.18 0.281-0.365 0.418-0.553 0.116-0.158 0.23-0.317 0.336-0.481 0.068-0.103 0.146-0.206 0.2-0.316 0.037-0.073 0.066-0.146 0.106-0.217 0.070-0.126 0.134-0.25 0.193-0.382 0.062-0.145 0.143-0.275 0.216-0.413 0.115-0.216 0.222-0.437 0.331-0.657 0.143-0.287 0.282-0.576 0.423-0.865 0.133-0.271 0.268-0.536 0.35-0.828 0.070-0.253 0.153-0.505 0.208-0.76 0.042-0.199 0.060-0.402 0.069-0.605 0.010-0.206 0.016-0.405-0.013-0.609-0.026-0.198-0.052-0.396-0.082-0.593z"></path>
<path d="M19.359 8.808c0.502 0.198 1.004 0.421 1.487 0.653 0.327 0.156 0.662 0.3 0.987 0.458s0.63 0.347 0.937 0.53c0.306 0.183 0.639 0.327 0.946 0.507 0.306 0.18 0.595 0.405 0.874 0.616 0.22 0.166 0.424 0.346 0.618 0.534 0.134 0.129 0.263 0.26 0.387 0.396 0.010 0.023 0.023 0.043 0.033 0.065-0.010-0.038-0.016-0.077-0.026-0.115-0.056-0.226-0.114-0.45-0.181-0.67-0.099-0.189-0.19-0.378-0.28-0.568-0.304-0.333-0.635-0.649-1.005-0.93-0.277-0.212-0.567-0.437-0.874-0.616-0.308-0.18-0.64-0.326-0.946-0.508-0.308-0.181-0.612-0.37-0.937-0.529s-0.66-0.304-0.986-0.46c-0.483-0.231-0.986-0.453-1.488-0.653-0.451-0.177-0.914-0.3-1.386-0.405 0 0.158 0 0.318-0.001 0.476 0.003 0.046 0.013 0.091 0.016 0.137 0.030 0.381 0.030 0.762 0.060 1.144 0.041 0.542 0.116 1.083 0.144 1.626 0.026 0.507 0.056 1.010 0.109 1.519 0.040 0.383 0.091 0.765 0.112 1.149 0.020 0.306 0.042 0.612 0.053 0.918 0.013 0.421-0.023 0.846-0.030 1.267-0.001 0.064-0.069 0.287 0.037 0.305 0.076 0.013 0.178-0.075 0.23-0.095 0.073-0.026 6.060-0.041 6.134-0.051-0.001-0.046-5.913-0.092-5.916-0.138-0.010-0.305-0.033-0.612-0.051-0.917-0.023-0.384-0.074-0.768-0.114-1.151-0.053-0.507-0.080-1.010-0.107-1.518-0.026-0.543-0.105-1.083-0.146-1.626-0.030-0.381-0.030-0.763-0.060-1.144-0.002-0.045-0.010-0.091-0.016-0.135 0-0.16 0.001-0.318 0.001-0.478 0.471 0.106 0.935 0.227 1.386 0.406z"></path>
<path d="M26.451 18.13c0.001-0.007 0.002-0.013 0.003-0.016 0.033-0.199 0.058-0.398 0.084-0.599 0.013-0.095 0.030-0.191 0.041-0.285 0.002-0.030 0.023-0.118 0.037-0.222-0.137 0-0.273 0-0.41 0-1.627 0.001-3.254 0.003-4.881 0.007-1.026 0.002-2.052 0.002-3.078 0.003 0.037 0.121 0.036 0.29 0.037 0.321 0.030 0.54-0.020 1.077-0.058 1.616-0.047 0.673-0.107 1.349-0.134 2.023-0.045 1.068-0.097 2.133-0.181 3.198-0.016 0.201-0.038 0.398-0.060 0.598 0.053 0.6 0.114 1.201 0.181 1.799 0.13-0.003 0.25-0.036 0.358-0.102 0.003-0.001 0.007-0.003 0.013-0.003-0.020-0.189-0.037-0.379-0.054-0.568 0.023-0.199 0.045-0.398 0.060-0.599 0.084-1.065 0.138-2.13 0.181-3.198 0.026-0.674 0.087-1.349 0.134-2.023 0.037-0.538 0.089-1.075 0.058-1.616-0.001-0.030 0.001-0.199-0.036-0.321 2.462-0.003 4.926-0.007 7.39-0.010 0.105 0 0.211 0 0.316 0z"></path>
<path d="M14.119 7.587c-0.392 0.128-0.737 0.318-1.095 0.505-0.376 0.194-0.752 0.37-1.139 0.547-0.391 0.177-0.695 0.37-1.027 0.623-0.515 0.392-1.054 0.786-1.46 1.269-0.509 0.609-1.009 1.303-1.272 2.026-0.126 0.349-0.227 0.704-0.341 1.056-0.116 0.364-0.229 0.724-0.303 1.097-0.095 0.479-0.135 0.954-0.17 1.438-0.001 0.026 0.001 0.065-0.003 0.101 0.149 0 0.298 0 0.447 0 0.016-0.111 0.034-0.222 0.056-0.332 0.074-0.374 0.188-0.733 0.304-1.097 0.112-0.352 0.213-0.709 0.34-1.058 0.263-0.722 0.762-1.416 1.273-2.024 0.406-0.484 0.944-0.879 1.46-1.271 0.332-0.253 0.635-0.444 1.026-0.622 0.387-0.176 0.765-0.352 1.139-0.548 0.358-0.185 0.703-0.377 1.096-0.505 0.41-0.133 0.83-0.258 1.248-0.374 0.336-0.093 0.671-0.16 1.009-0.216 0.010-0.069 0.020-0.138 0.026-0.207 0.001-0.351 0.002-0.702 0.003-1.054-0.464 0.066-0.916 0.144-1.37 0.271-0.418 0.115-0.838 0.24-1.249 0.374z"></path>
<path d="M16.726 17.019c-1.685 0.002-3.369 0.003-5.052 0.007-0.473 0-0.945 0.001-1.416 0.002-0.434 0.050-0.868 0.101-1.31 0.103-0.355 0.002-0.719 0.016-1.068 0.074-0.072 0.013-0.151 0.023-0.225 0.026-0.001 0-0.003 0-0.007 0-0.034 0.001-0.069-0.020-0.102-0.002-0.041 0.020-0.054 0.135-0.056 0.167-0.016 0.271-0.007 0.528 0.043 0.798 0.026 0.149 0.072 0.292 0.118 0.436-0.001-0.078 0-0.156 0.007-0.236 0.001-0.033 0.013-0.147 0.056-0.167 0.033-0.016 0.068 0.003 0.102 0.003 0.075-0.002 0.156-0.013 0.23-0.026 0.347-0.058 0.711-0.073 1.066-0.076 0.443-0.002 6.835-0.101 6.835-0.101l0.796 8.343c0 0-0.013-9.018-0.016-9.351z"></path>
<path d="M16.797 13.556c-0.026-0.373-0.066-0.747-0.084-1.116-0.060-1.227-0.083-2.456-0.087-3.685-0.050-0.026-0.102-0.047-0.157-0.064 0.066 0.072 0.095 0.175 0.047 0.3-0.46 1.213-0.207 2.602-0.207 3.872 0 0.863 0.054 1.752-0.002 2.623 0.095 0.043-7.046 0.383-7.023 0.478 0.079-0.007 7.36-0.273 7.438-0.286 0.003-0.461 0.093-0.912 0.103-1.379-0.007-0.248-0.016-0.496-0.026-0.743z"></path>
</svg>
