<!-- Generated by IcoMoon.io -->
<svg version="1.1" xmlns="http://www.w3.org/2000/svg" width="32" height="32" viewBox="0 0 32 32">
<title>abyssal_gifts</title>
<path d="M12.153 22.501c-0.002 0.006-0.004 0.012-0.006 0.018-0.046-0.002-0.080 0.024-0.114 0.054-0.144 0.121-0.232 0.338-0.318 0.5-0.1 0.184-0.178 0.377-0.269 0.566-0.093 0.191-0.19 0.38-0.273 0.576-0.176 0.414-0.408 0.804-0.586 1.218-0.070 0.164-0.204 0.289-0.298 0.439-0.067 0.107-0.143 0.195-0.246 0.268-0.072 0.051-0.134 0.099-0.217 0.129-0.155 0.057-0.258 0.16-0.386 0.259-0.123 0.098-0.281 0.149-0.426 0.207-0.104 0.042-0.206 0.084-0.312 0.118-0.102 0.031-0.198 0.089-0.306 0.091-0.063 0.001-0.113-0.041-0.175-0.037-0.037 0.002-0.072 0.021-0.107 0.032-0.052 0.016-0.106 0.021-0.161 0.028-0.058 0.008-0.15 0.052-0.206 0.020-0.011-0.053 0.030-0.084 0.056-0.126 0.092-0.15 0.159-0.321 0.215-0.486 0.186-0.542 0.161-1.115 0.225-1.677 0.019-0.172 0.039-0.32 0.092-0.485 0.068-0.209 0.107-0.416 0.193-0.619 0.069-0.164 0.135-0.336 0.187-0.506 0.035-0.11 0.041-0.214 0.055-0.326 0.013-0.096 0.043-0.176 0.077-0.267 0.024-0.065 0.036-0.124 0.043-0.192 0.005-0.046 0.001-0.085 0.022-0.127 0.034-0.066 0.076-0.129 0.11-0.194 0.014-0.028 0.027-0.057 0.038-0.087 0.012-0.035 0.009-0.079 0.022-0.111s0.040-0.057 0.056-0.087c0.007-0.012-0.001-0.028 0.009-0.041 0.009-0.013 0.031-0.015 0.040-0.028 0.018-0.025 0.012-0.077 0.016-0.107 0.014-0.134-0.007-0.295-0.070-0.416-0.042-0.082-0.072-0.194-0.131-0.264-0.023-0.027-0.058-0.047-0.086-0.068-0.059-0.048-0.092-0.102-0.127-0.167-0.092-0.166-0.356-0.266-0.538-0.233-0.102 0.018-0.199 0.068-0.296 0.101-0.126 0.041-0.247 0.069-0.366 0.129-0.137 0.069-0.642 0.379-0.725 0.063-0.019-0.071 0.030-0.112 0.056-0.169 0.028-0.064 0.036-0.127 0.074-0.189 0.031-0.049 0.068-0.094 0.102-0.139 0.131-0.186 0.251-0.376 0.359-0.576 0.039-0.072 0.092-0.133 0.119-0.212 0.037-0.103 0.037-0.238 0.107-0.325 0.027-0.034 0.067-0.051 0.097-0.081 0.040-0.040 0.066-0.091 0.080-0.145 0.021-0.076 0.025-0.174 0.031-0.252 0.010-0.119-0.030-0.211-0.079-0.315-0.041-0.085-0.074-0.175-0.115-0.26-0.056-0.117-0.098-0.258-0.181-0.36-0.038-0.047-0.084-0.075-0.133-0.108-0.054-0.032-0.105-0.068-0.153-0.109-0.037-0.036-0.077-0.068-0.12-0.097-0.105-0.051-0.227-0.017-0.331 0.013-0.171 0.050-0.325 0.107-0.481 0.193-0.043 0.023-0.093 0.068-0.144 0.075-0.095 0.012-0.191-0.092-0.238-0.154-0.061-0.079-0.119-0.177-0.111-0.28 0.009-0.095 0.052-0.189 0.085-0.277 0.076-0.194 0.178-0.369 0.263-0.56 0.082-0.184 0.111-0.393 0.131-0.591 0.008-0.074 0.045-0.185 0.024-0.255-0.083-0.010-0.116-0.121-0.184-0.164-0.050-0.030-0.103-0.030-0.158-0.043-0.037-0.009-0.088-0.033-0.128-0.036-0.073-0.004-0.161 0.036-0.232 0.049-0.076 0.014-0.127 0.042-0.199 0.066-0.060 0.020-0.117 0.016-0.177 0.025-0.047 0.006-0.081 0.018-0.129 0.016-0.080-0.004-0.221 0.007-0.267-0.073-0.045-0.079 0.013-0.136 0.041-0.208 0.066-0.17 0.094-0.318 0.097-0.491 0.002-0.090 0.032-0.158 0.074-0.237 0.070-0.131 0.217-0.312 0.118-0.465-0.054-0.083-0.237-0.099-0.324-0.099-0.109 0.002-0.314 0.041-0.397-0.036-0.192-0.177-0.012-0.519-0.137-0.726-0.077-0.128-0.16-0.103-0.305-0.103-0.112 0.001-0.268 0.039-0.307-0.099-0.033-0.112 0.002-0.292 0.002-0.41 0-0.067 0-0.135 0-0.203 0-0.030 0.005-0.072 0.001-0.103-0.007-0.058-0.030-0.069-0.041-0.112-0.011-0.049-0.031-0.143-0.013-0.194 0.017-0.055 0.060-0.067 0.093-0.111 0.083-0.112 0.073-0.186 0.24-0.192 0.126-0.005 0.254 0 0.382 0 0.129 0 0.328 0.039 0.447-0.010 0.107-0.043 0.21-0.144 0.32-0.192 0.124-0.056 0.164-0.043 0.245 0.081 0.038 0.057 0.032 0.119 0.056 0.174 0.032 0.072 0.080 0.122 0.104 0.204 0.035 0.116 0.077 0.236 0.201 0.253 0.139 0.020 0.241-0.083 0.366-0.123 0.124-0.041 0.228 0.027 0.352 0.012 0.096-0.012 0.163-0.072 0.235-0.13 0.1-0.082 0.174-0.127 0.314-0.129 0.347-0.004 0.271 0.275 0.418 0.491 0.043 0.063 0.115 0.107 0.161 0.17 0.065 0.090 0.066 0.133 0.177 0.179 0.203 0.084 0.402 0.031 0.569-0.122 0.125-0.114 0.176-0.278 0.257-0.42 0.078-0.14 0.217-0.253 0.345-0.349 0.074-0.056 0.18-0.188 0.287-0.137 0.108 0.051 0.080 0.231 0.080 0.329 0 0.063-0.016 0.146-0.002 0.206 0.014 0.057 0.041 0.093 0.054 0.15 0.030 0.128 0.017 0.211 0.15 0.281 0.38 0.203 0.382-0.317 0.397-0.564 0.007-0.115-0.009-0.219-0.043-0.328-0.082-0.275-0.126-0.568-0.223-0.834-0.041-0.113-0.089-0.218-0.119-0.334-0.045-0.172-0.059-0.351-0.091-0.525-0.028-0.161-0.051-0.325-0.090-0.483-0.052-0.215-0.116-0.41-0.124-0.632-0.010-0.275-0.001-0.553-0.060-0.823-0.037-0.163-0.060-0.303-0.046-0.471 0.014-0.172 0.037-0.346 0.055-0.518 0.016-0.149 0.030-0.29 0.082-0.431 0.070-0.188 0.19-0.34 0.317-0.491 0.12-0.143 0.229-0.304 0.362-0.434 0.185-0.179 0.399-0.257 0.639-0.334 0.448-0.141 0.89-0.256 1.361-0.26 0.336-0.003 0.674 0.004 1.009 0.004 0.239 0.001 0.473 0.009 0.71 0.035 0.337 0.035 0.692 0.186 1.029 0.115 0.177-0.038 0.36-0.057 0.541-0.044 0.242 0.017 0.491 0.047 0.733 0.077 0.176 0.021 0.311 0.080 0.468 0.159 0.101 0.050 0.172 0.052 0.274 0.088 0.228 0.077 0.454 0.188 0.669 0.295 0.311 0.155 0.639 0.276 0.949 0.429 0.209 0.104 0.425 0.212 0.628 0.326 0.221 0.123 0.478 0.144 0.698 0.274 0.203 0.12 0.395 0.253 0.599 0.372 0.288 0.167 0.555 0.369 0.829 0.556 0.169 0.114 0.361 0.192 0.527 0.307 0.179 0.123 0.34 0.261 0.532 0.365 0.232 0.126 0.43 0.279 0.65 0.424 0.382 0.251 0.761 0.5 1.134 0.764 0.377 0.267 0.76 0.546 1.122 0.834 0.227 0.181 0.485 0.297 0.714 0.47 0.208 0.157 0.397 0.329 0.619 0.466 0.207 0.127 0.429 0.307 0.593 0.488 0.322 0.355 0.625 0.734 0.899 1.129 0.168 0.241 0.342 0.539 0.426 0.822 0.105 0.353 0.113 0.762 0.145 1.13 0.042 0.474 0.001 0.958 0.012 1.435 0.008 0.38-0.037 0.732-0.12 1.1-0.103 0.454-0.077 0.913-0.222 1.359-0.062 0.189-0.1 0.391-0.146 0.583-0.070 0.293-0.121 0.595-0.152 0.895-0.055 0.526-0.112 1.052-0.169 1.577-0.021 0.192-0.052 0.366-0.098 0.553-0.054 0.22-0.081 0.485-0.218 0.671-0.134 0.183-0.172 0.367-0.226 0.59-0.043 0.179-0.025 0.379-0.166 0.518-0.035 0.034-0.083 0.054-0.117 0.089-0.052 0.053-0.074 0.132-0.129 0.179-0.094 0.081-0.175 0.089-0.253 0.191-0.065 0.085-0.119 0.179-0.191 0.257-0.082 0.090-0.185 0.132-0.269 0.214-0.094 0.093-0.171 0.217-0.262 0.316-0.18 0.193-0.315 0.421-0.417 0.664-0.050 0.116-0.090 0.234-0.123 0.356-0.047 0.169-0.136 0.199-0.303 0.29-0.058 0.031-0.119 0.054-0.176 0.086-0.066 0.037-0.128 0.078-0.207 0.081-0.201 0.009-0.17-0.282-0.193-0.408-0.031-0.16-0.086-0.307-0.133-0.462-0.043-0.141-0.079-0.264-0.154-0.391 0.003 0.006-0.050-0.102-0.069-0.109-0.022-0.009-0.102 0.035-0.115 0.041-0.063 0.025-0.134 0.044-0.194 0.075-0.066 0.034-0.11 0.099-0.176 0.131-0.067 0.034-0.142 0.037-0.213 0.075-0.171 0.097-0.36 0.157-0.555 0.184-0.18 0.026-0.361 0.024-0.543 0.015-0.095-0.005-0.183 0.011-0.278 0.012-0.128 0.001-0.264-0.012-0.392-0.019-0.124-0.007-0.246-0.023-0.37-0.037-0.221-0.021-0.439-0.015-0.66-0.026-0.321-0.016-0.637-0.124-0.959-0.11-0.126 0.006-0.251 0.017-0.377 0.018-0.254 0.002-0.506-0.032-0.759-0.060-0.341-0.037-0.688-0.053-1.025-0.121-0.313-0.062-0.616-0.169-0.928-0.234-0.258-0.054-0.52-0.093-0.777-0.149-0.285-0.060-0.564-0.128-0.852-0.174-0.398-0.062-0.797-0.134-1.197-0.176-0.135-0.014-0.24-0.040-0.358-0.109-0.173-0.102-0.347-0.211-0.515-0.322-0.195-0.127-0.396-0.257-0.538-0.447-0.060-0.079-0.121-0.183-0.166-0.275-0.039-0.081-0.059-0.163 0.030-0.223 0.128-0.085 0.384 0.031 0.499 0.067 0.101 0.035 0.201 0.068 0.302 0.102 0.261 0.079 0.525 0.137 0.794 0.175 0.441 0.080 0.846 0.197 1.273 0.337 0.829 0.272 1.658 0.547 2.528 0.647 0.124 0.013 0.248 0.026 0.372 0.040 0.188 0.031 0.379 0.046 0.57 0.043 0.191-0.014 0.383-0.058 0.572-0.085 0.261-0.039 0.524-0.047 0.785-0.075 0.223-0.024 0.441-0.063 0.664-0.073 0.231-0.011 0.443-0.038 0.669-0.073 0.199-0.030 0.398-0.039 0.598-0.054 0.339-0.026 0.677-0.084 1.013-0.13 0.138-0.018 0.276-0.008 0.413-0.026 0.095-0.012 0.189-0.035 0.284-0.053 0.113-0.022 0.244-0.024 0.352-0.066 0.14-0.054 0.265-0.183 0.392-0.266 0.053-0.034 0.104-0.068 0.149-0.112 0.105-0.104 0.182-0.238 0.255-0.364 0.122-0.213 0.165-0.427 0.249-0.652 0.1-0.266 0.242-0.49 0.291-0.774 0.035-0.194 0.064-0.411 0.121-0.6 0.069-0.231 0.255-0.421 0.348-0.647 0.162-0.396 0.316-0.82 0.362-1.246 0.024-0.231-0.002-0.458 0.017-0.688 0.013-0.144 0.032-0.287 0.048-0.43 0.042-0.388 0.080-0.775 0.124-1.163 0.032-0.287 0.030-0.575 0.044-0.863 0.023-0.45-0.090-0.822-0.237-1.241-0.17-0.486-0.468-0.938-0.709-1.395-0.254-0.481-0.512-0.947-0.88-1.35-0.307-0.336-0.632-0.668-0.981-0.962-0.229-0.192-0.507-0.311-0.724-0.524-0.239-0.235-0.513-0.426-0.785-0.621-0.273-0.195-0.481-0.459-0.744-0.667-0.214-0.17-0.457-0.303-0.676-0.469-0.216-0.165-0.447-0.307-0.661-0.472-0.207-0.159-0.461-0.334-0.709-0.421-0.168-0.060-0.325-0.15-0.493-0.204-0.222-0.072-0.424-0.131-0.636-0.235-0.191-0.094-0.4-0.141-0.593-0.235-0.131-0.062-0.248-0.131-0.383-0.185-0.166-0.066-0.278-0.192-0.453-0.252-0.226-0.078-0.438-0.181-0.668-0.252-0.198-0.061-0.405-0.149-0.609-0.182-0.16-0.027-0.295-0.039-0.449-0.085-0.149-0.045-0.306-0.039-0.459-0.059-0.113-0.016-0.196-0.068-0.306-0.086-0.32-0.053-0.637-0.075-0.955-0.134-0.219-0.044-0.439-0.075-0.662-0.095-0.285 0.004-0.522 0.122-0.767 0.253-0.242 0.129-0.458 0.258-0.643 0.47-0.218 0.25-0.367 0.558-0.456 0.876-0.179 0.647-0.079 1.276 0.139 1.897 0.091 0.255 0.206 0.503 0.266 0.767 0.025 0.179 0.060 0.356 0.104 0.531 0.061 0.183 0.13 0.363 0.209 0.541 0.135 0.32 0.322 0.608 0.487 0.914 0.075 0.139 0.167 0.294 0.278 0.408 0.098 0.102 0.165 0.122 0.304 0.11 0.246-0.022 0.433-0.137 0.647-0.25 0.121-0.065 0.291-0.161 0.441-0.168 0.188-0.009 0.343 0.184 0.431 0.324 0.053 0.062 0.078 0.133 0.076 0.213-0.035 0.098-0.081 0.189-0.139 0.276-0.033 0.070-0.066 0.14-0.099 0.212-0.053 0.118-0.086 0.242-0.102 0.37 0.004 0.068 0.020 0.098 0.076 0.139 0.121 0.092 0.274 0.146 0.411 0.206 0.236 0.1 0.463 0.214 0.693 0.327 0.27 0.133 0.534 0.277 0.808 0.404 0.194 0.090 0.386 0.174 0.575 0.277 0.294 0.16 0.586 0.329 0.878 0.491 0.404 0.224 0.775 0.498 1.181 0.718 0.389 0.213 0.788 0.395 1.184 0.59 0.222 0.11 0.411 0.243 0.613 0.386 0.193 0.136 0.405 0.242 0.597 0.38 0.124 0.089 0.239 0.184 0.371 0.262 0.095 0.056 0.171 0.118 0.25 0.194 0.281 0.268 0.592 0.527 0.935 0.712 0.124 0.066 0.225 0.14 0.324 0.241 0.073 0.074 0.145 0.145 0.227 0.21 0.105 0.079 0.164 0.176 0.247 0.276 0.065 0.079 0.141 0.142 0.199 0.226 0.038 0.054 0.073 0.106 0.118 0.153 0.036 0.037 0.075 0.063 0.101 0.109 0.035 0.061 0.044 0.136 0.073 0.2 0.053 0.115 0.111 0.203 0.13 0.334 0.020 0.132 0.035 0.294-0.002 0.423-0.031 0.107-0.101 0.149-0.182 0.215-0.135 0.107-0.256 0.224-0.426 0.276-0.098 0.031-0.209 0.040-0.309 0.062-0.199 0.045-0.368 0.099-0.575 0.1-0.247 0.002-0.501-0.026-0.747-0.043-0.276-0.019-0.552-0.040-0.82-0.112-0.119-0.032-0.225-0.065-0.351-0.076-0.185-0.015-0.376-0.011-0.563-0.013-0.791-0.012-1.546-0.299-2.298-0.515-0.549-0.158-1.101-0.313-1.674-0.183-0.253 0.058-0.508 0.135-0.74 0.254-0.124 0.076-0.252 0.145-0.386 0.206-0.089 0.034-0.177 0.068-0.265 0.105-0.128 0.051-0.25 0.115-0.382 0.157-0.156 0.048-0.29 0.084-0.434 0.161-0.158 0.083-0.315 0.17-0.476 0.245-0.094 0.045-0.159 0.058-0.253 0.083-0.056 0.015-0.105 0.040-0.159 0.058-0.044 0.015-0.091 0.014-0.132 0.034-0.061 0.027-0.097 0.064-0.169 0.066-0.020-0.003-0.042-0.005-0.063-0.007-0.102 0.085-0.164 0.197-0.185 0.335z"></path>
</svg>
