<!-- Generated by IcoMoon.io -->
<svg version="1.1" xmlns="http://www.w3.org/2000/svg" width="27" height="32" viewBox="0 0 27 32">
<title>accessory_inverted1</title>
<path d="M1 25.998c0-0.398 0.028-0.74 0.114-1.052s0.171-0.654 0.284-1.024c0.171-0.512 0.37-1.052 0.654-1.564s0.597-0.967 0.996-1.365c0.199-0.256 0.427-0.484 0.654-0.711s0.484-0.398 0.74-0.54c0.256-0.171 0.512-0.284 0.796-0.37s0.569-0.171 0.853-0.228c0.057 0 0.085 0 0.142-0.028 0.057 0 0.085-0.028 0.142-0.028h0.54c0.455 0 0.853 0.057 1.195 0.171s0.711 0.284 1.081 0.484c0.228 0.171 0.427 0.37 0.597 0.597s0.313 0.484 0.455 0.711c0.114 0.171 0.256 0.398 0.398 0.626s0.284 0.484 0.398 0.74c0.284 1.024 0.341 2.048 0.199 3.1-0.057 0.398-0.114 0.74-0.199 1.052s-0.199 0.626-0.398 0.967c-0.114 0.256-0.228 0.512-0.341 0.74s-0.228 0.484-0.37 0.683c-0.199 0.313-0.455 0.597-0.768 0.853s-0.654 0.455-0.996 0.654c-0.512 0.256-1.052 0.37-1.678 0.37-0.057 0-0.085 0-0.142 0.028-0.057 0-0.114 0.028-0.199 0.028-1.024-0.028-1.991-0.313-2.93-0.853-0.256-0.142-0.484-0.313-0.654-0.484s-0.37-0.398-0.569-0.626c-0.54-0.711-0.853-1.479-0.882-2.361-0.057-0.085-0.057-0.171-0.057-0.284-0.057-0.142-0.057-0.228-0.057-0.284zM3.105 0.711c0.171 0.028 0.37 0.028 0.54 0.028s0.341 0 0.512 0c0.057 0 0.114 0.028 0.171 0.114 0.057 0.142 0.057 0.256 0.057 0.37 0.057 0.427 0.085 0.853 0.142 1.308 0.057 0.427 0.114 0.882 0.142 1.337 0.057 0.313 0.085 0.626 0.114 0.91s0.085 0.597 0.114 0.91c0.057 0.341 0.085 0.654 0.114 0.967s0.057 0.626 0.114 0.967c0.057 0.341 0.085 0.654 0.142 0.967s0.085 0.654 0.142 1.052c0.057 0.228 0.085 0.427 0.114 0.626s0.085 0.37 0.114 0.569c0.057 0.341 0.142 0.626 0.199 0.882s0.142 0.484 0.228 0.711c0.057 0.085 0.085 0.171 0.114 0.256s0.057 0.171 0.114 0.284c0.256 0.626 0.683 1.138 1.308 1.508 0.057 0.057 0.114 0.114 0.171 0.171s0.114 0.171 0.171 0.341c0.114 0.057 0.142 0.114 0.057 0.171-0.057 0.057-0.085 0.085-0.114 0.085s-0.057 0.028-0.114 0.085c-0.142 0.171-0.256 0.398-0.37 0.711-0.057 0.142-0.057 0.284-0.057 0.427s-0.029 0.341-0.057 0.597c0 0.057-0.028 0.085-0.057 0.114-0.057 0.028-0.085 0.028-0.142-0.028-0.057 0-0.085 0-0.114-0.028s-0.057-0.028-0.114-0.028c-0.085-0.057-0.171-0.114-0.228-0.171s-0.142-0.171-0.199-0.341c-0.484-0.284-0.91-0.654-1.308-1.052s-0.711-0.91-0.967-1.508c-0.171-0.284-0.284-0.626-0.398-0.996s-0.228-0.711-0.341-1.052c-0.057-0.256-0.142-0.54-0.199-0.882s-0.114-0.626-0.142-0.882c-0.057-0.398-0.085-0.796-0.142-1.195s-0.114-0.796-0.142-1.195c-0.028-0.37-0.057-0.711-0.085-1.024s-0.085-0.626-0.114-0.967c0-0.171 0-0.284-0.028-0.398-0.028-0.341-0.057-0.683-0.085-1.024s-0.085-0.711-0.114-1.081c-0.057-0.199-0.085-0.427-0.114-0.626s-0.057-0.427-0.114-0.654c-0.028-0.114-0.028-0.228-0.057-0.37 0-0.142-0.028-0.256-0.057-0.37-0.057-0.085-0.057-0.228-0.057-0.398 0-0.085 0.057-0.142 0.171-0.142h0.626c0.057-0.028 0.114-0.028 0.171-0.028s0.142 0.028 0.199 0.028v-0.057h-0.028zM6.148 26.283c0.256 0 0.427 0 0.54-0.028 0.37-0.085 0.654-0.228 0.882-0.398s0.427-0.398 0.569-0.654c0.114-0.171 0.228-0.398 0.313-0.654 0.085-0.284 0.171-0.54 0.199-0.796s0.085-0.512 0.142-0.74c0-0.142-0.028-0.228-0.057-0.284 0-0.057-0-0.142-0.028-0.228 0-0.085-0.028-0.171-0.028-0.284-0.057-0.228-0.085-0.427-0.142-0.569-0.057-0.171-0.142-0.313-0.228-0.484s-0.199-0.313-0.313-0.455c-0.114-0.142-0.228-0.284-0.37-0.398s-0.341-0.228-0.569-0.284c-0.54-0.142-1.081-0.085-1.564 0.142-0.142 0.114-0.284 0.228-0.427 0.313-0.142 0.114-0.284 0.199-0.398 0.313-0.199 0.199-0.398 0.427-0.54 0.683-0.484 0.74-0.711 1.508-0.711 2.361 0.028 0.171 0.057 0.37 0.085 0.54s0.085 0.341 0.199 0.484c0.114 0.171 0.256 0.37 0.398 0.54 0.171 0.171 0.341 0.341 0.512 0.455 0.256 0.142 0.512 0.256 0.768 0.313 0.256 0.085 0.512 0.114 0.768 0.114zM9.732 18.688c-0.057 0.142-0.114 0.199-0.171 0.199-0.028 0.028-0.057 0.028-0.057 0.028-0.171 0.057-0.37 0.028-0.597-0.028s-0.37-0.199-0.483-0.398c-0.085-0.114-0.171-0.228-0.228-0.313s-0.114-0.199-0.142-0.313c-0.085-0.171-0.142-0.37-0.142-0.597s0-0.484 0.028-0.768c0.057-0.199 0.085-0.398 0.142-0.626s0.114-0.398 0.228-0.569c0.057-0.114 0.114-0.256 0.199-0.398 0.085-0.171 0.171-0.284 0.284-0.37 0.085-0.057 0.199-0.085 0.284-0.142s0.199-0.085 0.284-0.142c0.313-0.142 0.626-0.114 0.967 0.057 0.142 0.085 0.228 0.171 0.228 0.284 0.028 0.057 0.028 0.114 0.028 0.228s-0.028 0.171-0.057 0.199c-0.028 0-0.057 0.028-0.114 0.057-0.142 0.114-0.256 0.228-0.341 0.37-0.028 0.057-0.028 0.085-0.057 0.085s-0.028 0.028-0.057 0.085c-0.114 0.284-0.199 0.626-0.284 0.967s-0.142 0.683-0.142 0.996c-0.028 0.057-0.028 0.114-0.028 0.171-0.057 0.284 0.057 0.597 0.228 0.939zM12.321 18.347c-0.313 0-0.597 0-0.825-0.028s-0.512-0.028-0.796-0.085c-0.057-0.028-0.114-0.028-0.199-0.028-0.057-0.028-0.114-0.057-0.142-0.142-0.171-0.284-0.228-0.626-0.171-1.024 0.028-0.114 0.057-0.256 0.085-0.398 0.028-0.171 0.085-0.284 0.142-0.398 0.057-0.085 0.114-0.171 0.199-0.228s0.171-0.057 0.199-0.057h0.284c0.085 0 0.171 0 0.227 0.028 0.057 0 0.142 0.028 0.228 0.028 0.142 0.028 0.284 0.028 0.398 0.057s0.284 0 0.398-0.028c1.593-0.057 3.072-0.427 4.437-1.052 0.256-0.256 0.484-0.455 0.711-0.626s0.512-0.341 0.825-0.512c0.455-0.398 0.91-0.796 1.337-1.223 0.455-0.427 0.853-0.882 1.252-1.337 0.313-0.398 0.626-0.768 0.882-1.138 0.284-0.37 0.512-0.796 0.74-1.28 0.142-0.256 0.285-0.54 0.427-0.825 0.142-0.313 0.284-0.626 0.427-0.939 0.341-0.569 0.654-1.195 0.91-1.849 0.028-0.057 0.057-0.142 0.142-0.199 0-0.057 0.028-0.057 0.114 0l0.114 0.114c0.256 0.313 0.484 0.626 0.683 0.967 0.199 0.313 0.398 0.626 0.569 0.91 0.114 0.171 0.114 0.284 0 0.398-0.284 0.626-0.597 1.28-0.91 1.906s-0.654 1.223-0.996 1.764c-0.341 0.512-0.683 1.024-1.052 1.479s-0.768 0.91-1.195 1.308c-0.341 0.284-0.683 0.626-0.996 0.967s-0.683 0.626-1.081 0.882c-0.512 0.398-1.081 0.768-1.707 1.138s-1.28 0.654-1.991 0.882c-0.341 0.114-0.683 0.228-1.052 0.313s-0.768 0.171-1.223 0.199c-0.398 0.028-0.882 0.057-1.394 0.057z"></path>
</svg>
