<!-- Generated by IcoMoon.io -->
<svg version="1.1" xmlns="http://www.w3.org/2000/svg" width="27" height="32" viewBox="0 0 27 32">
<title>accessory</title>
<path d="M3.106 0l-0.004 0.049c-0.038-0.009-0.064-0.021-0.167-0.021-0.057 0-0.262-0.009-0.489 0.104l0.318-0.075h-0.626c-0.175 0-0.403 0.047-0.596 0.215s-0.286 0.437-0.286 0.637c0 0.171-0.083 0.404 0.176 0.793l-0.097-0.222c0.028 0.114 0.035 0.15 0.035 0.197v0.071l0.014 0.069c0.014 0.071 0.008 0.181 0.064 0.403 0.043 0.173 0.070 0.373 0.1 0.582 0.022 0.157 0.059 0.376 0.111 0.597 0.032 0.398 0.087 0.768 0.113 1.068 0.028 0.341 0.056 0.682 0.085 1.024l0.006 0.058 0.014 0.056c0.001 0.005 0.007 0.054 0.007 0.225v0.031l0.003 0.029c0.032 0.384 0.089 0.702 0.114 0.972 0.028 0.309 0.057 0.647 0.085 1.014 0.031 0.43 0.091 0.845 0.147 1.242 0.051 0.359 0.080 0.75 0.139 1.172 0 0.001-0 0.002 0 0.003 0.001 0.007 0.002 0.012 0.003 0.019 0.034 0.294 0.091 0.576 0.144 0.897 0.065 0.392 0.159 0.702 0.207 0.919l0.008 0.036 0.011 0.035c0.114 0.341 0.225 0.676 0.336 1.036 0.111 0.362 0.239 0.736 0.447 1.1 0.278 0.64 0.623 1.225 1.096 1.697 0.376 0.376 0.812 0.728 1.293 1.036 0.071 0.124 0.133 0.277 0.214 0.358 0.141 0.141 0.251 0.201 0.336 0.258l0.179 0.119h0.161c0.026 0.009 0.052 0.036 0.075 0.040 0.043 0.009 0.043 0.003 0.071 0.006 0.041 0.014 0.041 0.040 0.090 0.049 0.147 0.024 0.206-0.020 0.299-0.049 0.029 0.090 0.028 0.199 0.065 0.279 0.042 0.129 0.094 0.239 0.153 0.337-0.216-0.027-0.409-0.093-0.642-0.093h-0.54c-0.083 0-0.113 0.016-0.168 0.029h-0.143l-0.064 0.032-0.049 0.010c-0.329 0.066-0.635 0.158-0.919 0.243-0.33 0.099-0.652 0.246-0.961 0.449-0.285 0.16-0.59 0.358-0.872 0.64-0.21 0.21-0.441 0.448-0.66 0.719-0.455 0.456-0.806 0.969-1.11 1.515-0.319 0.575-0.531 1.158-0.707 1.685l-0.003 0.007-0.003 0.008c-0.121 0.392-0.208 0.744-0.29 1.046-0.109 0.401-0.139 0.808-0.139 1.24 0 0.029 0.040 0.178 0.057 0.285 0 0.114-0.002 0.41 0.176 0.678l-0.119-0.371c0.033 1.036 0.417 1.966 1.026 2.768l0.015 0.019 0.015 0.018c0.199 0.228 0.403 0.463 0.601 0.661 0.227 0.227 0.502 0.429 0.813 0.601 1.025 0.589 2.116 0.911 3.256 0.943h0.019c0.243 0 0.379-0.028 0.199-0.028h0.168l0.125-0.063c0.652-0.019 1.276-0.126 1.846-0.411l0.021-0.010 0.019-0.012c0.341-0.199 0.718-0.416 1.088-0.718 0.36-0.295 0.663-0.631 0.904-1.006 0.198-0.282 0.318-0.56 0.419-0.762 0.124-0.249 0.242-0.512 0.356-0.768l-0.036 0.069c0.235-0.403 0.374-0.787 0.469-1.139 0.099-0.362 0.16-0.731 0.218-1.139v-0.006c0.154-1.138 0.093-2.268-0.218-3.386l-0.014-0.050-0.022-0.049c-0.132-0.296-0.288-0.578-0.444-0.828-0.138-0.221-0.277-0.442-0.399-0.625l-0.011-0.018c-0.126-0.203-0.272-0.469-0.478-0.743-0.124-0.165-0.286-0.292-0.435-0.433 0.049-0.031 0.098-0.044 0.142-0.087l-0.161 0.067c-0.004-0.004-0.008-0.007-0.012-0.011 0.097-0.053 0.234-0.073 0.287-0.133 0.115-0.13 0.167-0.243 0.214-0.36l0.015-0.038h0.078l0.074 0.015c0.374 0.075 0.693 0.074 0.849 0.093 0.3 0.038 0.6 0.035 0.912 0.035 0.538 0 1.039-0.031 1.444-0.060 0.515-0.033 0.956-0.128 1.332-0.215 0.408-0.094 0.771-0.215 1.11-0.328l0.003-0.001c0.753-0.241 1.459-0.547 2.133-0.946 0.629-0.371 1.209-0.75 1.744-1.164 0.426-0.275 0.842-0.591 1.206-0.988 0.298-0.325 0.621-0.647 0.926-0.901l0.015-0.012 0.015-0.014c0.463-0.432 0.88-0.91 1.261-1.379 0.399-0.491 0.75-1.021 1.092-1.533l0.006-0.008 0.004-0.007c0.353-0.559 0.706-1.176 1.031-1.825 0.317-0.633 0.634-1.295 0.922-1.929l-0.144 0.208c0.141-0.141 0.293-0.406 0.293-0.681s-0.107-0.469-0.204-0.615c-0.169-0.281-0.359-0.578-0.547-0.874-0.223-0.382-0.474-0.727-0.746-1.060l-0.024-0.028-0.188-0.188-0.060-0.040c-0.073-0.049-0.086-0.161-0.483-0.161-0.151 0-0.336 0.148-0.485 0.282l0.065-0.121c-0.099 0.066-0.069 0.084-0.128 0.157-0.024 0.027-0.076 0.026-0.092 0.054-0.025 0.044-0.008 0.051-0.022 0.088-0.030 0.058-0.147 0.185-0.142 0.175l-0.014 0.029-0.012 0.029c-0.24 0.614-0.535 1.207-0.857 1.743l-0.021 0.035-0.444 0.975c-0.138 0.275-0.273 0.544-0.4 0.774l-0.012 0.021-0.010 0.022c-0.218 0.464-0.425 0.843-0.66 1.149l-0.011 0.014-0.010 0.015c-0.225 0.325-0.527 0.684-0.846 1.089-0.393 0.449-0.772 0.881-1.189 1.272l-0.008 0.007-0.008 0.008c-0.394 0.394-0.828 0.773-1.271 1.161-0.29 0.161-0.571 0.325-0.815 0.508-0.214 0.16-0.43 0.36-0.653 0.574-1.265 0.57-2.623 0.91-4.094 0.963l-0.075 0.003-0.072 0.018c-0.060 0.015-0.21-0.011-0.053 0.028-0.249-0.062-0.379-0.053-0.432-0.064l-0.068-0.014h-0.071c0.073 0 0.066-0.028-0.228-0.028l0.318 0.075c-0.29-0.145-0.422-0.103-0.51-0.097 0.066-0.147 0.164-0.29 0.164-0.433 0-0.064-0.041-0.198-0.058-0.307-0.023-0.203-0.095-0.411-0.199-0.533-0.119-0.141-0.238-0.218-0.344-0.282l-0.024-0.014-0.025-0.012c-0.469-0.234-1.071-0.299-1.579-0.068l-0.051 0.025-0.049 0.031c0.066-0.044-0.048-0.015-0.285 0.143 0.067-0.044-0.048-0.016-0.285 0.142l-0.015 0.011-0.017 0.012c-0.054 0.041-0.074 0.106-0.121 0.153l-0.207-0.208-0.078-0.044c-0.5-0.296-0.81-0.67-1.013-1.165l-0.010-0.025-0.013-0.024c-0.036-0.071-0.047-0.106-0.075-0.192s-0.080-0.249-0.197-0.425l0.075 0.144c-0.085-0.228-0.156-0.419-0.2-0.615-0.064-0.289-0.14-0.545-0.189-0.829l-0.003-0.015c-0.039-0.261-0.094-0.432-0.111-0.553-0.028-0.199-0.061-0.429-0.128-0.697l0.014 0.071c-0.054-0.375-0.080-0.718-0.146-1.079-0.049-0.272-0.078-0.584-0.14-0.957-0.052-0.31-0.079-0.601-0.107-0.914-0.027-0.297-0.058-0.617-0.114-0.967l-0.007-0.053c-0.033-0.331-0.085-0.635-0.108-0.864-0.026-0.256-0.057-0.564-0.111-0.885l-0.003-0.028c-0.031-0.474-0.088-0.936-0.144-1.358l0.001 0.006c-0.054-0.43-0.082-0.856-0.143-1.314l0.006 0.094c0-0.114-0.002-0.371-0.107-0.635l-0.028-0.068-0.042-0.063c-0.138-0.207-0.469-0.431-0.763-0.431h-0.313v-0.028h-0.739zM3.097 0.093l-0.099 1.194-0.339-0.339c-0.001 0.006-0.008 0.013-0.008 0.019l-0.036-0.054c0.023 0.034-0.003-0.021 0.010 0l-0.175-0.175 0.647-0.646zM2.969 1.46c0.038 0.008 0.063 0.019 0.164 0.019h0.565c0.042 0.353 0.070 0.72 0.122 1.14l0.001 0.003v0.003c0.056 0.423 0.111 0.862 0.138 1.288l0.003 0.042 0.007 0.042c0.049 0.272 0.077 0.565 0.106 0.854 0.033 0.326 0.089 0.632 0.114 0.903l0.003 0.026 0.004 0.026c0.052 0.31 0.079 0.602 0.107 0.915s0.059 0.646 0.121 1.019c0.052 0.31 0.079 0.624 0.143 0.978 0.048 0.264 0.079 0.603 0.139 1.025l0.004 0.036 0.010 0.036c0.047 0.187 0.070 0.355 0.099 0.554 0.039 0.274 0.096 0.444 0.114 0.568l0.003 0.017c0.065 0.392 0.159 0.702 0.207 0.919 0.070 0.316 0.17 0.579 0.256 0.807l0.029 0.076 0.044 0.068c-0.004-0.006 0.003 0.001 0.032 0.086 0.026 0.077 0.072 0.204 0.138 0.342 0.296 0.716 0.814 1.325 1.508 1.764-0.001 0.001-0.001 0.003-0.001 0.004l-0.051-0.040 0.047 0.047c-0.162 0.229-0.299 0.47-0.404 0.758-0.021 0.053-0.006 0.075-0.019 0.125-0.38-0.236-0.741-0.533-1.092-0.883-0.314-0.314-0.585-0.745-0.817-1.285l-0.019-0.044-0.025-0.042c-0.113-0.189-0.217-0.479-0.328-0.839-0.113-0.367-0.224-0.703-0.335-1.033-0.064-0.279-0.138-0.53-0.185-0.808-0.059-0.354-0.113-0.633-0.136-0.843l-0.003-0.022c-0.052-0.365-0.081-0.763-0.143-1.194-0.057-0.398-0.11-0.78-0.136-1.144v-0.004c-0.029-0.373-0.057-0.718-0.086-1.035-0.032-0.355-0.089-0.662-0.114-0.961l0.003 0.058c0-0.171 0.006-0.347-0.050-0.569l0.019 0.112c-0.028-0.341-0.058-0.682-0.086-1.024-0.031-0.377-0.087-0.743-0.112-1.076l-0.006-0.072-0.021-0.068c-0.035-0.122-0.063-0.323-0.093-0.532-0.027-0.19-0.057-0.445-0.128-0.726-0.001-0.006-0.007-0.122-0.050-0.336l0.014 0.139c0-0.087-0.019-0.126-0.029-0.199h0.169l0.038-0.019zM24.582 6.286c0.047 0.072 0.109 0.142 0.153 0.217l0.007 0.011 0.007 0.013c0.166 0.261 0.322 0.509 0.467 0.746-0.267 0.583-0.554 1.187-0.844 1.768-0.301 0.602-0.632 1.179-0.961 1.7-0 0 0 0.001 0 0.001-0.338 0.507-0.666 0.996-1.003 1.411-0.359 0.441-0.737 0.872-1.128 1.236l0.031-0.026c-0.377 0.314-0.738 0.676-1.065 1.033-0.257 0.281-0.577 0.529-0.942 0.764l-0.026 0.018-0.025 0.019c-0.479 0.373-1.022 0.726-1.632 1.086-0.576 0.341-1.178 0.603-1.846 0.817l-0.008 0.003c-0.341 0.114-0.659 0.219-0.988 0.294-0.362 0.084-0.714 0.159-1.107 0.183h-0.007c-0.391 0.028-0.857 0.056-1.343 0.056-0.313 0-0.581-0.004-0.736-0.024-0.256-0.032-0.457-0.040-0.637-0.065-0.039-0.108-0.083-0.205-0.056-0.404 0.028-0.12 0.055-0.244 0.079-0.364l0.001-0.011 0.003-0.011c0.005-0.031 0.026-0.066 0.035-0.089h0.088l0.060 0.029h0.168c-0.18 0-0.016 0.028 0.228 0.028l-0.139-0.014c0.232 0.046 0.387 0.055 0.365 0.050 0.384 0.096 0.575 0.013 0.743-0.029l-0.147 0.021c1.687-0.060 3.263-0.454 4.708-1.117l0.115-0.053 0.090-0.090c0.237-0.237 0.439-0.412 0.636-0.56 0.182-0.137 0.442-0.295 0.739-0.457l0.068-0.037 0.058-0.051c0.453-0.396 0.918-0.802 1.365-1.249 0.484-0.455 0.895-0.926 1.29-1.378l0.012-0.014 0.012-0.015c0.297-0.379 0.611-0.749 0.892-1.151 0.329-0.429 0.575-0.897 0.808-1.393 0.147-0.266 0.288-0.546 0.425-0.819l0.006-0.012 0.432-0.95-0.038 0.071c0.22-0.366 0.395-0.786 0.586-1.19zM7.883 14.535c-0.189 0-0.279 0.075-0.368 0.133 0.004-0.004 0.007-0.009 0.011-0.012 0.051-0.038 0.157-0.121 0.357-0.121zM7.9 14.539c-0.012 0.020-0.011 0.024-0.022 0.043-0.001 0.002-0.003 0.004-0.004 0.006l0.026-0.049zM9.615 14.912c-0.049 0.061-0.109 0.096-0.151 0.167l-0.014 0.024-0.012 0.025c-0.001 0.002-0-0.001-0.001 0.001-0.022 0.034-0.073 0.085-0.083 0.106-0.049 0.099-0.036 0.078-0.029 0.064l-0.012 0.026-0.011 0.026c-0.141 0.353-0.229 0.718-0.314 1.060-0.094 0.377-0.164 0.769-0.164 1.168l0.075-0.318c-0.089 0.179-0.081 0.296-0.082 0.386-0.016 0.095 0.048 0.15 0.049 0.239-0.024-0.033-0.063-0.084-0.076-0.104-0.016-0.024-0.042-0.086-0.043-0.092l-0.019-0.075-0.035-0.071c-0.043-0.086-0.067-0.17-0.067-0.279 0-0.221 0.003-0.443 0.025-0.678 0.051-0.203 0.085-0.387 0.124-0.543 0.050-0.2 0.076-0.268 0.129-0.347l0.025-0.036 0.019-0.040c0.078-0.156 0.124-0.268 0.174-0.35l0.014-0.024 0.012-0.025c0.053-0.105 0.062-0.103 0.069-0.108-0.031 0.028 0.042 0.014 0.257-0.129-0.033 0.022 0.093-0.050 0.143-0.072zM10.951 17.575l0.067 0.022c-0.028-0.014-0.038-0.002-0.065-0.012-0.001-0.003-0-0.007-0.001-0.010zM9.683 18.288c0.010 0.031 0.035 0.026 0.050 0.056 0.014 0.026 0 0.060 0.015 0.085l-0.065-0.14zM7.231 19.335l0.010 0.003c-0.002-0-0.004 0-0.006 0s-0.002-0.002-0.004-0.003zM9.722 19.59c0.003-0.001 0.004 0.001 0.007 0l-0.225 0.036c0 0 0.122-0.011 0.218-0.036zM8.5 20.207c0.102 0.049 0.191 0.078 0.296 0.133 0.16 0.125 0.303 0.261 0.425 0.424 0.131 0.174 0.264 0.412 0.421 0.663l0.011 0.017c0.104 0.155 0.245 0.381 0.387 0.608 0.116 0.185 0.226 0.392 0.318 0.589 0.25 0.918 0.305 1.825 0.176 2.779-0.055 0.386-0.109 0.699-0.181 0.961-0.075 0.274-0.163 0.516-0.326 0.796l-0.019 0.033-0.015 0.036c-0.114 0.256-0.225 0.503-0.328 0.71-0.124 0.249-0.234 0.477-0.313 0.587l-0.011 0.015-0.010 0.017c-0.156 0.245-0.358 0.472-0.618 0.685-0.248 0.203-0.546 0.378-0.874 0.569-0.406 0.201-0.814 0.293-1.35 0.293-0.057 0-0.319 0.033-0.461 0.104l0.318-0.075c-0.276 0-0.247 0.023-0.186 0.026-0.902-0.026-1.741-0.269-2.587-0.757l-0.004-0.003-0.006-0.003c-0.201-0.112-0.382-0.249-0.497-0.364-0.135-0.135-0.32-0.346-0.508-0.561-0.468-0.618-0.71-1.221-0.733-1.946l-0.007-0.203-0.050-0.075v-0.121l-0.051-0.128c-0.020-0.051-0.006 0.038-0.006-0.019 0-0.364 0.028-0.64 0.089-0.865 0.087-0.32 0.169-0.649 0.275-0.993 0.165-0.495 0.35-0.99 0.599-1.438 0.087-0.157 0.199-0.258 0.29-0.399-0.161 0.493-0.257 1.003-0.257 1.532v0.060l0.010 0.057c0.026 0.158 0.054 0.358 0.085 0.542 0.041 0.247 0.131 0.541 0.346 0.81 0.118 0.175 0.253 0.367 0.407 0.551l0.021 0.025 0.022 0.024c0.171 0.171 0.359 0.369 0.621 0.543l0.024 0.017 0.025 0.014c0.281 0.156 0.587 0.29 0.925 0.371 0.333 0.106 0.66 0.146 0.957 0.146 0.254 0 0.434 0.017 0.706-0.050 0.458-0.107 0.841-0.293 1.143-0.519 0.306-0.229 0.56-0.524 0.751-0.863 0.147-0.225 0.278-0.487 0.379-0.79l0.003-0.010 0.003-0.011c0.082-0.272 0.185-0.563 0.225-0.922 0.023-0.204 0.072-0.432 0.125-0.646l0.021-0.085v-0.087c0-0.237-0.059-0.459-0.131-0.601l0.075 0.318c0-0.057 0.008-0.233-0.065-0.453l0.036 0.225c0-0.243-0.028-0.289-0.028-0.285v-0.087l-0.022-0.085c-0.045-0.181-0.063-0.376-0.165-0.642-0.085-0.247-0.19-0.419-0.258-0.557-0.128-0.255-0.279-0.438-0.393-0.581-0.013-0.016-0.039-0.040-0.053-0.057zM6.878 20.712l0.008 0.003c0.106 0.026 0.227 0.094 0.297 0.15 0.061 0.049 0.144 0.144 0.258 0.286s0.189 0.243 0.232 0.329c0.1 0.199 0.162 0.31 0.189 0.39l0.007 0.019 0.008 0.019c0.002 0.005 0.045 0.205 0.106 0.449 0.007 0.051 0.014 0.178 0.014 0.142v0.115l0.036 0.11c-0.016-0.049-0.007-0.054-0.007 0.003v0.167l0.049 0.097c-0.050 0.209-0.103 0.429-0.131 0.681-0.017 0.149-0.083 0.369-0.169 0.657-0.065 0.193-0.155 0.369-0.228 0.478l-0.015 0.025-0.014 0.025c-0.092 0.166-0.229 0.322-0.374 0.431-0.152 0.114-0.336 0.209-0.615 0.274l-0.007 0.001-0.006 0.001c0.049-0.012-0.112 0.008-0.368 0.008-0.203 0-0.377-0.022-0.543-0.078l-0.035-0.011-0.036-0.008c-0.15-0.033-0.339-0.116-0.546-0.228-0.076-0.054-0.209-0.175-0.357-0.322-0.113-0.138-0.238-0.31-0.338-0.458l-0.018-0.026-0.019-0.024c-0.013-0.016-0.037-0.062-0.053-0.157-0.022-0.129-0.045-0.289-0.069-0.442 0.003-0.718 0.177-1.322 0.589-1.953l0.014-0.022 0.013-0.022c0.092-0.166 0.247-0.35 0.422-0.525 0.030-0.030 0.152-0.111 0.339-0.261 0.116-0.076 0.215-0.151 0.308-0.225 0.334-0.152 0.684-0.196 1.058-0.097zM3.533 21.086c-0.006 0.008-0.007 0.018-0.013 0.026-0.004 0.007-0.010 0.011-0.014 0.018l0.026-0.044zM8.082 23.007l0.019 0.038c-0.014-0.028-0.019-0.081-0.019-0.033v-0.004z"></path>
</svg>
