<!-- Generated by IcoMoon.io -->
<svg version="1.1" xmlns="http://www.w3.org/2000/svg" width="32" height="32" viewBox="0 0 32 32">
<title>african_wildlife</title>
<path d="M6.464 29.338c-0.79-2.049-0.684-4.25 0.309-6.421 0.681-1.487 1.875-3.178 2.244-3.178 0.151 0 0.934-0.72 1.738-1.6 1.302-1.424 1.451-1.679 1.356-2.317-0.080-0.537-0.007-0.77 0.29-0.929 0.218-0.117 0.519-0.65 0.669-1.185 0.236-0.843 0.221-1.072-0.111-1.715-0.211-0.408-0.376-1.017-0.366-1.353 0.019-0.674-0.2-0.78-0.604-0.293-0.208 0.251-0.171 0.529 0.178 1.317 0.516 1.167 0.324 2.386-0.44 2.795-0.377 0.202-0.428 0.374-0.305 1.028 0.137 0.731 0.066 0.868-1.020 1.967-0.642 0.65-1.285 1.182-1.429 1.182s-0.569 0.372-0.945 0.828c-0.651 0.788-0.698 0.808-1.004 0.414-0.183-0.236-0.466-0.358-0.66-0.284-0.233 0.089-0.382-0.040-0.476-0.414-0.094-0.375-0.29-0.544-0.629-0.544-0.457 0-0.491-0.096-0.475-1.324l0.018-1.324h1.271c0.931 0 1.271-0.081 1.271-0.303 0-0.331-0.921-0.577-2.179-0.583-1.048-0.004-1.186-0.114-1.882-1.495-0.815-1.615-0.569-2.083 1.704-3.246 1.008-0.516 2.209-1.364 2.89-2.041 0.957-0.951 1.303-1.159 1.931-1.159 0.723 0 0.794-0.070 1.287-1.26 0.292-0.704 0.94-1.677 1.469-2.207 0.905-0.905 1.621-1.218 1.621-0.708 0 0.131 0.326 0.037 0.724-0.209s1.14-0.541 1.65-0.655c0.858-0.193 0.91-0.179 0.711 0.194-0.118 0.221-0.215 0.433-0.215 0.472s0.865 0.034 1.923-0.010c1.748-0.072 1.896-0.047 1.628 0.276-0.162 0.196-0.525 0.356-0.807 0.356s-0.559 0.076-0.616 0.169c-0.057 0.093 0.633 0.132 1.534 0.086 1.752-0.088 3.179 0.088 3.179 0.393 0 0.252-0.538 0.462-1.986 0.773l-1.214 0.261 1.643 0.142c1.184 0.103 2.031 0.334 3.034 0.827 0.765 0.377 1.392 0.775 1.392 0.884 0 0.409-1.022 0.723-2.21 0.68-0.676-0.024-1.472 0.053-1.771 0.172-0.467 0.187-0.39 0.219 0.561 0.232 0.607 0.008 1.483 0.121 1.946 0.249 1.036 0.288 2.463 1.543 3.040 2.674l0.431 0.844-1.936-0.131c-1.065-0.072-2.059-0.168-2.208-0.214-0.525-0.161-5.034 0.339-6.017 0.667-0.864 0.288-0.894 0.317-0.229 0.22 0.42-0.061 2.079-0.175 3.686-0.252 2.474-0.119 3.076-0.081 3.925 0.243 0.969 0.37 2.122 1.515 2.758 2.739 0.247 0.476 0.231 0.506-0.2 0.369-0.258-0.082-2.773-0.233-5.591-0.336s-5.371-0.246-5.674-0.318c-0.303-0.072-0.154 0.023 0.331 0.212 1.318 0.512 4.597 0.988 6.821 0.989l1.966 0.001 1.289 1.289c1.402 1.402 1.647 1.926 0.737 1.58-0.303-0.115-1.867-0.314-3.476-0.442-4.126-0.328-6.301-0.975-8.992-2.678l-0.772-0.489 0.744 0.794c0.894 0.954 2.836 1.941 5.159 2.622 1.669 0.489 1.71 0.518 1.71 1.202 0 0.385 0.065 1.026 0.145 1.424l0.145 0.723-0.972-0.145c-1.391-0.208-4.743-1.928-6.113-3.136-0.643-0.567-1.215-0.985-1.272-0.929-0.247 0.247 1.83 2.225 3.345 3.185 1.363 0.863 1.638 1.132 1.539 1.501-0.066 0.247-0.122 0.723-0.124 1.056-0.004 0.789-0.572 0.8-2.201 0.042-1.582-0.737-3.007-1.924-3.79-3.158-0.447-0.705-0.632-0.868-0.632-0.556 0 0.561 1.056 2.208 1.956 3.052 0.797 0.746 0.8 0.762 0.366 1.802l-0.326 0.781-0.686-0.401c-0.748-0.438-1.866-1.85-2.632-3.325-0.268-0.516-0.538-0.938-0.6-0.938-0.253 0 0.226 1.716 0.713 2.557l0.523 0.902-0.666 0.808c-0.366 0.445-0.737 0.808-0.823 0.808-0.237 0-0.965-1.274-1.51-2.643l-0.485-1.219-0.011 1.169c-0.006 0.648 0.142 1.465 0.332 1.833 0.333 0.645 0.323 0.686-0.366 1.471-0.39 0.444-0.983 1.407-1.317 2.139l-0.608 1.331-0.255-0.662zM4.468 12.402c0.010-0.218-0.251-0.205-0.623 0.031-0.198 0.125-0.245 0.362-0.139 0.697l0.161 0.507 0.296-0.535c0.163-0.294 0.3-0.609 0.304-0.7zM8.227 10.471c0.514-0.722 0.42-0.785-0.626-0.421-0.59 0.206-0.659 0.303-0.467 0.662 0.311 0.581 0.544 0.529 1.092-0.241zM14.581 8.761c0.575-1.52 0.535-3.365-0.073-3.365-0.402 0-2.423 2.058-2.121 2.159 0.135 0.045 0.536-0.124 0.89-0.377s0.701-0.459 0.77-0.459c0.144 0-0.031 1.144-0.312 2.041-0.16 0.51-0.126 0.607 0.213 0.607 0.237 0 0.498-0.25 0.633-0.607z"></path>
</svg>
