<!-- Generated by IcoMoon.io -->
<svg version="1.1" xmlns="http://www.w3.org/2000/svg" width="32" height="32" viewBox="0 0 32 32">
<title>agency_survivors</title>
<path d="M13.926 29.945c-0.112-0.038-0.272-0.071-0.355-0.074s-0.301-0.053-0.482-0.111c-0.298-0.096-0.506-0.111-2.132-0.147-1.496-0.034-1.897-0.059-2.361-0.147-0.307-0.058-0.878-0.14-1.269-0.182-1.227-0.131-1.428-0.166-1.785-0.312-0.284-0.116-0.459-0.148-0.957-0.177-0.717-0.041-0.894-0.071-1.171-0.201-0.114-0.053-0.268-0.097-0.344-0.097s-0.223-0.038-0.327-0.084c-0.104-0.046-0.314-0.098-0.468-0.114l-0.279-0.030 0.018-0.254c0.010-0.14 0.050-0.331 0.089-0.425s0.071-0.306 0.071-0.471c0-0.165 0.034-0.382 0.076-0.482s0.076-0.255 0.076-0.344c0-0.089 0.022-0.183 0.048-0.21 0.112-0.113 0.407-1.12 0.436-1.489 0.033-0.419 0.126-0.872 0.28-1.352 0.054-0.168 0.144-0.533 0.2-0.812s0.128-0.633 0.159-0.787c0.031-0.154 0.086-0.359 0.123-0.457s0.077-0.383 0.090-0.635c0.015-0.297 0.067-0.59 0.149-0.838 0.18-0.543 0.299-1.080 0.343-1.549 0.037-0.397 0.122-0.706 0.306-1.117 0.050-0.112 0.13-0.386 0.178-0.609 0.079-0.366 0.084-0.645 0.052-2.843-0.030-2.094-0.047-2.458-0.117-2.589-0.071-0.132-0.080-0.363-0.068-1.756 0.011-1.324-0-1.652-0.065-1.878-0.103-0.36-0.192-1.678-0.133-1.976 0.025-0.126 0.046-0.434 0.047-0.686 0.002-0.366-0.019-0.496-0.101-0.65-0.092-0.172-0.101-0.27-0.089-0.938l0.014-0.746 0.152-0.076c0.128-0.064 0.477-0.076 2.183-0.077 1.795-0 2.081 0.011 2.462 0.094 0.392 0.086 0.569 0.091 1.929 0.057 1.031-0.026 1.577-0.060 1.752-0.109 0.271-0.076 1.444-0.184 2.031-0.185 0.449-0.001 1.965 0.144 2.234 0.214 0.287 0.075 8.406 0.073 8.682-0.002 0.112-0.030 0.386-0.072 0.609-0.092s0.495-0.075 0.603-0.121c0.255-0.11 0.499-0.107 1.178 0.014 0.305 0.054 0.703 0.113 0.885 0.13s0.486 0.055 0.677 0.084c0.321 0.049 0.345 0.062 0.316 0.162-0.017 0.060-0.064 0.257-0.103 0.439s-0.119 0.547-0.178 0.812c-0.059 0.265-0.12 0.711-0.137 0.99s-0.061 0.632-0.099 0.785c-0.039 0.152-0.070 0.383-0.070 0.512s-0.046 0.368-0.102 0.53c-0.056 0.162-0.102 0.418-0.102 0.569s-0.033 0.338-0.074 0.416c-0.041 0.078-0.099 0.39-0.13 0.692s-0.072 0.574-0.091 0.604c-0.019 0.030-0.050 0.82-0.068 1.755-0.030 1.599-0.040 1.734-0.165 2.253-0.073 0.304-0.133 0.664-0.133 0.799s-0.045 0.379-0.101 0.539c-0.097 0.28-0.145 0.596-0.259 1.714-0.031 0.301-0.041 1.188-0.025 2.175 0.026 1.587 0.022 1.682-0.077 1.968-0.070 0.203-0.117 0.518-0.145 0.973-0.023 0.37-0.064 0.76-0.093 0.867-0.12 0.45-0.107 3.852 0.021 5.118 0.017 0.169-0.002 0.45-0.047 0.685-0.042 0.219-0.104 0.65-0.139 0.957-0.080 0.722-0.096 0.753-0.326 0.657-0.119-0.050-0.47-0.084-1.079-0.106-0.777-0.028-0.937-0.020-1.156 0.055-0.343 0.118-1.031 0.182-2.513 0.236-1.534 0.055-2.236 0.107-2.335 0.173-0.042 0.028-0.499 0.066-1.015 0.084-1.024 0.036-1.98 0.109-2.615 0.199-0.641 0.091-2.344 0.105-2.589 0.022zM19.685 28.213c0.171-0.068 0.36-0.076 1.232-0.051 0.567 0.016 1.282 0.043 1.589 0.059 0.436 0.023 0.631 0.011 0.888-0.056 0.181-0.047 0.604-0.101 0.939-0.12s0.643-0.055 0.685-0.082c0.042-0.026 0.221-0.063 0.399-0.081 0.34-0.035 0.508-0.125 0.69-0.37 0.087-0.118 0.103-0.209 0.098-0.556-0.004-0.228-0.045-0.54-0.092-0.694-0.058-0.19-0.094-0.559-0.115-1.155-0.027-0.784-0.021-0.886 0.057-0.973 0.149-0.164 0.233-0.552 0.233-1.076 0-0.273 0.025-0.561 0.055-0.639s0.074-0.508 0.098-0.955c0.031-0.598 0.076-0.933 0.167-1.269 0.117-0.429 0.124-0.528 0.115-1.631-0.010-1.301-0.017-1.331-0.351-1.537-0.383-0.237-0.568-0.258-2.275-0.258-1.5-0.001-1.629-0.008-1.929-0.108-0.536-0.179-1.558-0.19-2.481-0.028-0.976 0.171-1.472 0.207-2.892 0.208-1.076 0.001-1.216-0.009-1.422-0.099-0.219-0.096-0.4-0.101-4.366-0.128-3.088-0.021-4.176-0.014-4.29 0.030-0.249 0.097-0.708 0.621-0.775 0.885-0.165 0.646-0.266 1.181-0.266 1.407 0 0.195-0.025 0.275-0.109 0.349-0.060 0.053-0.234 0.359-0.386 0.681s-0.331 0.688-0.397 0.816c-0.171 0.33-0.276 0.775-0.276 1.171 0 0.409 0.043 0.535 0.249 0.742 0.086 0.086 0.156 0.187 0.156 0.224s-0.101 0.201-0.224 0.365c-0.192 0.256-0.235 0.36-0.304 0.736-0.044 0.241-0.080 0.505-0.080 0.587 0 0.251-0.212 0.96-0.331 1.103-0.173 0.209-0.246 0.569-0.175 0.864 0.094 0.391 0.371 0.615 1.108 0.896l0.414 0.158 1.129-0.032c1.009-0.028 1.147-0.022 1.299 0.056 0.097 0.050 0.379 0.107 0.66 0.133 0.545 0.051 0.931 0.119 1.284 0.229 0.312 0.097 1.162 0.095 1.486-0.004 0.371-0.113 2.46-0.105 2.746 0.011 0.17 0.068 0.554 0.088 2.361 0.117 1.233 0.020 2.234 0.058 2.335 0.089 0.278 0.083 0.835 0.074 1.063-0.017zM18.876 26.566c-0.126-0.023-0.735-0.043-1.355-0.045-0.726-0.002-1.138-0.023-1.16-0.057-0.069-0.111 0.092-0.566 0.288-0.813l0.199-0.251 0.697 0c0.407 0 0.912-0.035 1.214-0.084 0.481-0.078 0.538-0.078 0.816-0 0.164 0.046 0.366 0.084 0.448 0.084 0.237 0 0.795-0.13 1.060-0.247 0.57-0.252 1.769-0.052 2.142 0.357 0.158 0.174 0.323 0.525 0.323 0.688-0 0.129-0.028 0.15-0.317 0.241s-0.479 0.099-2.12 0.102c-0.991 0.001-1.848 0.017-1.904 0.035s-0.204 0.014-0.33-0.009zM14.51 26.398c-0.212-0.053-2.988-0.077-3.935-0.034-0.379 0.017-0.874-0.053-1.24-0.177-0.124-0.042-0.364-0.076-0.533-0.076-0.183-0-0.463-0.050-0.689-0.122l-0.381-0.121-0.026-1.693c-0.027-1.755-0.041-1.872-0.254-2.1-0.093-0.099-0.093-0.128-0.017-0.838 0.043-0.404 0.097-0.93 0.12-1.167s0.075-0.521 0.116-0.63c0.071-0.188 0.361-0.538 0.446-0.538 0.022 0 0.066-0.079 0.097-0.175s0.104-0.233 0.16-0.305l0.102-0.13h5.935l0.043 0.114c0.024 0.063 0.060 0.286 0.079 0.495s0.135 0.883 0.255 1.498c0.371 1.894 0.355 1.722 0.355 3.732 0 1.739-0.006 1.868-0.101 2.094-0.111 0.264-0.136 0.272-0.533 0.173zM11.692 25.373c0.282-0.102 1.038-0.096 1.454 0.011 0.279 0.072 0.372 0.076 0.539 0.026 0.434-0.13 0.622-0.405 0.622-0.911 0-0.195 0.034-0.363 0.102-0.495 0.113-0.222 0.125-0.408 0.046-0.711-0.11-0.42-0.156-1.007-0.189-2.421-0.032-1.369-0.041-1.465-0.141-1.599-0.058-0.079-0.176-0.191-0.261-0.248-0.212-0.145-0.897-0.243-1.436-0.206-1.18 0.081-1.812 0.091-2.076 0.032-0.467-0.104-1.191 0.085-1.485 0.388-0.166 0.171-0.171 0.19-0.209 0.744-0.080 1.162-0.098 2.196-0.045 2.523 0.030 0.181 0.085 0.725 0.124 1.208 0.058 0.729 0.087 0.901 0.172 1.015 0.141 0.191 0.399 0.357 0.646 0.417 0.114 0.028 0.277 0.075 0.36 0.106 0.55 0.201 1.396 0.258 1.777 0.121zM16.681 23.696c-0.021-0.022-0.038-0.167-0.037-0.323 0.001-0.327 0.131-0.654 0.334-0.842 0.132-0.122 0.16-0.127 0.843-0.127 0.57 0 0.737 0.017 0.868 0.087 0.238 0.128 1.317 0.157 1.659 0.045 0.137-0.045 0.302-0.081 0.366-0.081s0.343-0.056 0.618-0.124l0.501-0.124 0.25 0.099c0.3 0.118 0.516 0.124 0.804 0.023 0.118-0.042 0.238-0.062 0.265-0.045 0.095 0.059 0.192 0.371 0.192 0.617 0 0.415 0.014 0.409-1.168 0.444-1.090 0.032-1.424 0.077-1.737 0.234-0.251 0.126-0.35 0.12-0.664-0.042-0.339-0.174-0.684-0.182-0.992-0.023-0.121 0.063-0.326 0.124-0.457 0.137-0.536 0.052-1.611 0.081-1.646 0.044zM19.054 20.826c-0.207-0.075-0.412-0.093-1.106-0.095-0.763-0.002-0.856-0.012-0.887-0.091-0.055-0.137-0.035-0.495 0.037-0.668l0.065-0.157h0.453c0.249 0 0.618-0.032 0.819-0.072s0.761-0.086 1.244-0.103c0.483-0.018 0.936-0.054 1.007-0.081 0.099-0.038 0.231-0.018 0.564 0.087 0.398 0.124 0.457 0.13 0.694 0.074 0.253-0.060 0.792-0.148 0.792-0.128 0 0.005-0.045 0.109-0.1 0.231s-0.101 0.262-0.102 0.311c-0.001 0.049-0.050 0.164-0.11 0.256-0.106 0.162-0.116 0.166-0.419 0.147-0.195-0.012-0.498 0.022-0.818 0.091-0.279 0.060-0.675 0.131-0.879 0.157s-0.414 0.070-0.466 0.098c-0.14 0.075-0.498 0.050-0.787-0.055zM25.121 15.397c1.213-0.166 1.424-0.245 1.61-0.603 0.129-0.248 0.158-0.704 0.061-0.953-0.082-0.21-0.068-1.117 0.020-1.252 0.186-0.287 0.258-0.661 0.261-1.357 0.003-0.683 0.002-0.691-0.143-0.881-0.258-0.34-0.697-0.429-1.069-0.219-0.299 0.17-0.391 0.37-0.445 0.969-0.033 0.368-0.084 0.599-0.177 0.808-0.124 0.278-0.131 0.338-0.136 1.229-0.006 1.057 0.007 1.026-0.413 0.947-0.414-0.078-0.394-0.015-0.39-1.207 0.003-0.937 0.016-1.1 0.109-1.376 0.058-0.172 0.105-0.339 0.105-0.372s0.089-0.245 0.198-0.471c0.109-0.227 0.213-0.526 0.232-0.666s0.081-0.352 0.138-0.472c0.138-0.29 0.113-0.741-0.052-0.95-0.129-0.164-0.378-0.329-0.497-0.329-0.044 0-0.222-0.092-0.395-0.204-0.395-0.256-0.474-0.446-0.539-1.312-0.053-0.693-0.142-0.937-0.416-1.132-0.228-0.163-0.775-0.17-0.984-0.014-0.355 0.265-0.443 0.599-0.299 1.142 0.116 0.439 0.171 2.714 0.077 3.17-0.035 0.168-0.073 0.385-0.085 0.482-0.025 0.199-0.095 0.366-0.239 0.569-0.109 0.154-0.172 0.44-0.224 1.015-0.034 0.374-0.043 0.395-0.213 0.509-0.098 0.065-0.242 0.238-0.321 0.384l-0.143 0.265h-0.265c-0.245 0-0.289-0.020-0.566-0.254-0.165-0.14-0.318-0.254-0.341-0.254s-0.040-0.069-0.040-0.154c0-0.085-0.034-0.236-0.076-0.336s-0.076-0.19-0.076-0.199c0-0.009 0.086-0.031 0.19-0.049 0.306-0.052 0.36-0.074 0.528-0.215 0.196-0.165 0.397-0.584 0.398-0.827 0.001-0.278 0.196-0.966 0.33-1.165 0.283-0.417 0.33-0.645 0.33-1.603 0-0.689-0.018-0.931-0.079-1.077-0.092-0.219-0.062-0.557 0.070-0.803 0.372-0.691 0.415-0.813 0.415-1.182 0-0.565-0.225-0.9-0.668-0.998-0.077-0.017-0.154-0.076-0.172-0.132-0.063-0.197-0.334-0.448-0.546-0.505-0.284-0.076-0.533-0.027-0.929 0.183l-0.334 0.177h-3.411c-3.222 0-3.431 0.005-3.767 0.099-0.274 0.076-0.403 0.088-0.557 0.052-0.376-0.087-1.704-0.059-2.167 0.046-0.231 0.053-0.554 0.11-0.717 0.128s-0.359 0.065-0.436 0.105c-0.102 0.053-0.39 0.076-1.066 0.088l-0.926 0.016 0.040 0.203c0.022 0.112 0.035 0.323 0.029 0.469-0.006 0.148 0.023 0.348 0.066 0.45 0.1 0.24 0.099 0.768-0.003 1.012-0.063 0.151-0.075 0.314-0.056 0.755 0.029 0.656 0.077 0.907 0.257 1.324 0.108 0.252 0.131 0.387 0.135 0.787 0.002 0.265 0.026 0.597 0.052 0.736 0.095 0.499 0.15 1.028 0.198 1.879 0.054 0.97 0.108 1.363 0.219 1.579 0.055 0.107 0.062 0.183 0.027 0.275-0.075 0.196-0.015 0.485 0.159 0.755 0.148 0.231 0.174 0.248 0.424 0.278 0.146 0.018 0.85 0.032 1.565 0.032 1.006 0 1.355-0.017 1.549-0.075 0.383-0.116 0.768-0.098 1.022 0.047 0.268 0.153 0.677 0.207 0.979 0.129 0.424-0.11 0.553-0.114 0.774-0.024 0.15 0.061 0.385 0.092 0.774 0.101 0.476 0.011 0.624 0.036 1.007 0.171 0.433 0.153 0.477 0.159 1.291 0.159 0.768 0 0.875-0.011 1.213-0.128 0.264-0.091 0.557-0.142 1.019-0.176 0.357-0.026 0.729-0.067 0.826-0.091 0.207-0.050 0.675 0.032 0.864 0.152 0.193 0.121 0.925 0.253 1.918 0.345 0.232 0.021 0.434 0.051 0.449 0.066 0.040 0.040 2.073-0.016 2.455-0.068z"></path>
</svg>
