<!-- Generated by IcoMoon.io -->
<svg version="1.1" xmlns="http://www.w3.org/2000/svg" width="32" height="32" viewBox="0 0 32 32">
<title>agility</title>
<path d="M7.175 31.455c-1.277-0.090-3.059-0.376-3.293-0.529-0.24-0.157-0.345-1.45-0.156-1.912 0.22-0.536 0.671-0.957 1.438-1.341 0.487-0.244 1.662-0.74 2.037-0.861 0.499-0.16 1.176-0.177 1.825-0.045 0.303 0.061 0.632 0.146 0.731 0.187 0.343 0.143 0.282 0.040-0.154-0.263-0.241-0.167-0.439-0.318-0.439-0.335-0-0.016 0.175-0.178 0.389-0.357 0.59-0.494 1.171-1.14 1.348-1.499 0.189-0.383 0.229-0.644 0.328-2.115 0.311-4.627 0.278-4.307 0.477-4.711 0.314-0.637 0.871-1.048 1.422-1.049 0.367-0.001 0.533 0.079 1.197 0.577 1.392 1.043 2.1 1.404 2.917 1.487 0.168 0.016 0.388 0.043 0.489 0.057l0.183 0.024 0.060 0.489c0.106 0.866 0.415 1.579 0.899 2.077 0.316 0.326 0.804 0.627 1.196 0.739 0.972 0.277 1.154 0.322 1.42 0.345 1.17 0.104 2.182-0.716 2.533-2.053 0.051-0.195 0.109-0.372 0.128-0.395 0.059-0.068 0.435 0.717 0.63 1.316 0.166 0.511 0.593 2.037 0.593 2.122 0 0.046-4.367 3.307-4.429 3.307-0.026 0-0.27-0.299-0.544-0.665s-0.514-0.647-0.534-0.625c-0.020 0.024-0.25 0.316-0.511 0.653-1.42 1.828-2.735 3.149-3.898 3.915-1.394 0.917-2.667 1.296-4.919 1.463-0.788 0.059-2.502 0.056-3.365-0.004zM21.103 22.001c-0.177-0.040-0.406-0.121-0.51-0.183-0.323-0.194-0.867-0.656-1.217-1.034-0.639-0.69-0.833-1.183-0.833-2.122 0-0.806 0.068-1.263 0.316-2.113 0.368-1.264 0.621-1.747 1.755-3.352 0.397-0.563 0.571-0.751 1.297-1.408 1.535-1.388 2.212-2.157 2.633-2.988 0.395-0.78 0.524-1.292 0.559-2.22 0.034-0.902-0.078-1.658-0.387-2.603l-0.201-0.618 0.136 0.032c0.28 0.068 0.905 0.473 1.295 0.839 0.902 0.847 1.329 1.751 1.327 2.808-0.001 0.597-0.107 1.056-0.371 1.621-0.112 0.239-0.194 0.444-0.182 0.455 0.050 0.049 0.251-0.132 0.395-0.355l0.156-0.242 0.135 0.105c0.648 0.504 1.016 1.599 0.96 2.851-0.054 1.205-0.425 2.22-1.029 2.815-0.154 0.151-0.176 0.196-0.113 0.221 0.112 0.043 0.488-0.134 0.721-0.338l0.195-0.171-0.037 0.33c-0.020 0.181-0.091 0.536-0.156 0.789-0.501 1.941-1.883 3.365-3.709 3.819l-0.347 0.086-0.243-0.156c-0.705-0.453-1.841-0.521-2.319-0.139l-0.138 0.11 0.755 0c0.924 0 1.173 0.060 1.411 0.338 0.211 0.247 0.294 0.519 0.292 0.965-0.002 0.573-0.155 0.996-0.501 1.378-0.275 0.305-0.555 0.447-0.989 0.504-0.488 0.063-0.665 0.059-1.055-0.024zM14.080 16.489c-0.139-0.238-0.139-0.239-0.105-0.94 0.054-1.086 0.157-1.709 0.469-2.833 0.141-0.509 0.222-0.699 0.448-1.045 0.592-0.909 1.35-2.374 1.934-3.737 0.501-1.17 0.475-1.063 0.432-1.772-0.069-1.144-0.458-2.311-1.067-3.199-0.356-0.519-0.354-0.479-0.016-0.444 1.034 0.107 2.267 1.393 2.779 2.897 0.061 0.179 0.138 0.498 0.171 0.708l0.060 0.383 0.149-0.274 0.149-0.274 0.197 0.222c0.286 0.323 0.586 0.851 0.739 1.306 0.124 0.366 0.134 0.462 0.133 1.238-0.001 0.747-0.016 0.898-0.137 1.349-0.075 0.279-0.128 0.515-0.12 0.524s0.11-0.087 0.226-0.212l0.21-0.228 0.055 0.206c0.093 0.345 0.191 0.968 0.209 1.328l0.017 0.34-0.592 0.67h-0.703c-0.387 0-0.825 0.024-0.974 0.051-0.627 0.119-1.138 0.5-1.451 1.080-0.125 0.231-0.419 0.525-1.594 1.59-0.793 0.719-1.45 1.306-1.461 1.306s-0.082-0.107-0.159-0.238z"></path>
</svg>
