<!-- Generated by IcoMoon.io -->
<svg version="1.1" xmlns="http://www.w3.org/2000/svg" width="32" height="32" viewBox="0 0 32 32">
<title>alice_in_wonderland</title>
<path d="M4.167 16.867v-7.529l0.53-0.495c2.010-1.877 9.274-1.985 11.21-0.166l0.386 0.363 0.85-0.525c1.311-0.81 2.768-1.112 5.285-1.099 2.423 0.013 3.875 0.299 3.967 0.781 0.043 0.225-0.024 0.278-0.259 0.203-0.306-0.097-0.306-0.091 0.001 0.16 0.304 0.249 0.304 0.281 0.015 0.724-0.257 0.393-0.327 0.421-0.457 0.188-0.085-0.151-0.279-0.275-0.431-0.275-0.199 0-0.138 0.129 0.216 0.458l0.494 0.458-0.401 0.325c-0.553 0.448-0.825 0.407-1.030-0.154-0.096-0.264-0.181-0.35-0.188-0.193-0.024 0.491-0.52 0.534-0.64 0.056-0.059-0.236-0.208-0.429-0.331-0.429-0.3 0-0.469-0.477-0.207-0.584 0.114-0.046 0.062-0.091-0.116-0.098-0.254-0.011-0.301 0.074-0.222 0.391 0.083 0.331 0.034 0.402-0.268 0.391-0.203-0.007-0.397 0.065-0.431 0.161-0.034 0.098 0.223 0.165 0.591 0.154 0.528-0.016 0.67 0.050 0.746 0.348 0.053 0.208 0.261 0.392 0.478 0.423 0.328 0.047 0.356 0.107 0.194 0.41-0.139 0.259-0.241 0.303-0.382 0.162-0.276-0.276-0.477-0.238-0.36 0.068 0.173 0.45-0.697 0.323-0.896-0.13-0.123-0.281-0.319-0.391-0.694-0.391-0.287 0-0.624-0.117-0.749-0.261-0.191-0.219-0.197-0.199-0.040 0.125 0.153 0.316 0.283 0.367 0.718 0.28 0.516-0.103 0.53-0.090 0.475 0.483-0.043 0.448-0.146 0.602-0.429 0.643-0.273 0.039-0.366 0.166-0.348 0.478 0.023 0.398 0.285 0.629 0.285 0.251 0-0.348 0.534-0.163 0.722 0.25 0.238 0.522 0.084 0.971-0.373 1.091-0.19 0.050-0.317 0.14-0.282 0.201s-0.074 0.251-0.242 0.424c-0.284 0.291-0.325 0.293-0.593 0.025-0.212-0.212-0.238-0.347-0.099-0.515 0.113-0.136 0.123-0.267 0.026-0.328-0.303-0.187-0.373 0.654-0.082 0.976 0.371 0.41 0.506 0.393 0.95-0.118 0.205-0.236 0.434-0.391 0.509-0.345s0.18 0.012 0.234-0.075c0.162-0.262 1.384 0.104 1.643 0.492 0.131 0.196 0.412 0.357 0.623 0.357 0.59 0 0.66 0.201 0.159 0.461-0.535 0.277-1.045 0.303-1.195 0.061-0.059-0.096-0.279-0.169-0.489-0.163l-0.381 0.011 0.391 0.157c0.537 0.216 0.519 0.666-0.023 0.563-0.228-0.044-0.461-0.003-0.519 0.090s0.135 0.217 0.427 0.275c0.452 0.090 0.515 0.165 0.421 0.5-0.062 0.22-0.048 0.305 0.031 0.194 0.078-0.109 0.455-0.218 0.838-0.242 1.173-0.072 1.208-0.053 0.863 0.484l-0.308 0.478 0.375-0.331c0.373-0.329 0.375-0.329 0.375 0.119 0 0.297-0.118 0.488-0.348 0.56-0.191 0.061-0.348 0.189-0.348 0.284s-0.159 0.123-0.356 0.061c-0.196-0.062-0.469-0.020-0.607 0.095-0.141 0.117-0.441 0.16-0.687 0.098-0.253-0.063-0.437-0.035-0.437 0.068 0 0.252 1.105 0.22 1.364-0.039 0.172-0.172 0.249-0.163 0.38 0.044 0.238 0.376 0.206 0.694-0.070 0.694-0.132 0-0.333 0.113-0.448 0.251-0.179 0.216-0.133 0.222 0.327 0.049 0.301-0.114 0.535-0.328 0.535-0.49 0-0.363 0.302-0.617 0.914-0.771 0.5-0.125 0.621 0.053 0.271 0.402-0.113 0.113-0.162 0.25-0.108 0.304s0.219-0.023 0.367-0.171c0.348-0.348 0.418-0.34 0.642 0.079 0.232 0.434-0.050 1.043-0.484 1.045-0.164 0.001-0.533 0.157-0.82 0.347-0.373 0.247-0.435 0.346-0.217 0.347 0.167 0.001 0.304-0.072 0.304-0.161s0.176-0.188 0.391-0.22c1.039-0.154 2.076 1.251 1.544 2.092-0.115 0.182-0.246 0.14-0.606-0.194-0.253-0.234-0.459-0.51-0.459-0.613s-0.067-0.229-0.149-0.279c-0.082-0.051-0.114 0.092-0.071 0.317s0.012 0.449-0.069 0.498c-0.081 0.049-0.656-0.019-1.277-0.15-3.152-0.665-7.683 0.050-8.598 1.356l-0.272 0.389-0.272-0.389c-0.941-1.344-5.475-2.035-8.651-1.32-1.446 0.326-2.104 0.622-2.774 1.249l-0.478 0.448zM16.665 16.425c-0.048-5.306-0.11-6.819-0.279-6.82-0.17-0-0.217 1.478-0.217 6.812 0 3.747 0.050 6.862 0.111 6.923 0.39 0.39 0.443-0.561 0.385-6.916z"></path>
</svg>
