<!-- Generated by IcoMoon.io -->
<svg version="1.1" xmlns="http://www.w3.org/2000/svg" width="33" height="32" viewBox="0 0 33 32">
<title>all_or_nothing</title>
<path d="M17.202 11.835c0.122 0.315 0.243 0.629 0.376 0.939 0.143 0.356 0.295 0.71 0.454 1.061 0.004 0.013 0.009 0.026 0.017 0.035-0.504 0.043-1.148 0.102-1.874 0.172zM25.369 26.303l-0.283-0.044-0.142-0.022-0.069-0.013-0.030-0.009c-0.092-0.035-0.215-0.119-0.309-0.222-0.099-0.107-0.169-0.222-0.215-0.353l-0.202-0.499c-0.269-0.667-0.565-1.325-0.872-1.978-0.004-0.013-0.013-0.030-0.022-0.043l2.623-5.696c0.266 0.655 0.55 1.302 0.828 1.952 0.586 1.317 1.178 2.631 1.867 3.909 0.131 0.251 0.263 0.502 0.396 0.754l1.041 2.424c0.039 0.088 0.053 0.164 0.053 0.219 0 0.063-0.017 0.093-0.026 0.102s-0.017 0.017-0.063 0.017l-0.026-0.001-3.779-0.367c-0.257-0.043-0.516-0.087-0.773-0.129zM17.444 20.388c-0.129-0.3-0.259-0.598-0.39-0.898-0.291-0.642-0.577-1.287-0.877-1.925 0.123-0.009 0.246-0.022 0.366-0.035 0.792-0.078 1.571-0.183 2.352-0.289zM19.898 27.402c0.043 0.095 0.060 0.175 0.058 0.233 0 0.066-0.017 0.098-0.030 0.111s-0.030 0.026-0.090 0.026l-0.030-0.001-4.073-0.378c-0.277-0.044-0.556-0.088-0.834-0.133l-0.381-0.056-0.23-0.035-0.073-0.009-0.039-0.013c-0.026-0.009-0.055-0.022-0.087-0.035-0.060-0.030-0.123-0.070-0.183-0.119-0.119-0.098-0.221-0.225-0.288-0.353-0.017-0.035-0.030-0.058-0.047-0.098l-0.058-0.134-0.114-0.268c-0.303-0.714-0.635-1.416-0.976-2.115-0.090-0.184-0.184-0.367-0.277-0.55l2.882-5.964 0.116 0.017 0.060 0.009 0.066 0.152c0.305 0.714 0.629 1.419 0.947 2.127 0.25 0.533 0.501 1.067 0.755 1.599 0.419 0.869 0.85 1.734 1.32 2.582 0.145 0.269 0.291 0.538 0.437 0.805zM7.107 15.544c0.391-0.055 0.783-0.108 1.175-0.157 0.017 0.169 0.107 0.301 0.256 0.36 0.003 0 0.004 0.001 0.009 0.003 0.035 0.013 0.076 0.022 0.12 0.026l5.768 0.553c0.134 0.013 0.28-0.022 0.422-0.093 0.066-0.035 0.129-0.076 0.192-0.125 0.157-0.122 0.295-0.283 0.382-0.469l0.39-0.839c0.275-0.017 0.55-0.035 0.824-0.056l1.765-0.151c0.017 0.026 0.030 0.050 0.052 0.075 0.082 0.105 0.207 0.218 0.358 0.28 0.146 0.061 0.3 0.073 0.402 0.078l0.306 0.022 0.611 0.044c0.163 0.013 0.324 0.022 0.487 0.035l4.367 0.566c0.026 0.001 0.049 0.003 0.072 0.003 0.095 0.001 0.186-0.022 0.266-0.067 0.049-0.026 0.093-0.056 0.128-0.096 0.064-0.070 0.101-0.154 0.119-0.242 0.186 0.030 0.372 0.053 0.556 0.085 0.18 0.026 0.358 0.053 0.521 0.11 0.078 0.026 0.163 0.070 0.177 0.117 0.017 0.043-0.030 0.102-0.085 0.151-0.309 0.035-0.62 0.063-0.93 0.090-0.111 0.009-0.221 0.022-0.332 0.030-0.237 0.022-0.473 0.035-0.711 0.055-0.044 0.003-0.088 0.004-0.133 0.009-0.398 0.030-0.795 0.058-1.192 0.084-0.262 0.017-0.522 0.035-0.783 0.053-0.359 0.026-0.717 0.047-1.075 0.075-0.431 0.035-0.862 0.069-1.291 0.113-0.052 0.004-0.104 0.013-0.155 0.017-0.009 0.001-0.022 0.001-0.030 0.003-0.064 0.004-0.127 0.013-0.189 0.022-0.066 0.004-0.129 0.013-0.193 0.022-0.009 0.001-0.017 0.001-0.026 0.003-0.136 0.013-0.271 0.026-0.407 0.043-0.096 0.009-0.19 0.017-0.286 0.030l-2.566 0.282c-0.215 0.026-0.42 0.043-0.629 0.061-0.017 0-0.030 0.001-0.044 0.003-0.046 0.003-0.078 0.013-0.181-0.004l-0.088-0.009-0.234-0.026-0.030-0.004-0.047-0.004-1.207-0.146-2.572-0.308c-0.857-0.098-1.716-0.19-2.578-0.268l-0.201-0.022-0.233-0.022-0.073-0.009-0.784-0.073-0.309-0.030c-0.082-0.009-0.16-0.035-0.19-0.060l-0.026-0.026c-0.003-0.009-0.009-0.022 0.002-0.049 0.009-0.039 0.044-0.092 0.092-0.142zM25.042 14.762l0.073 0.163c0.035 0.084 0.049 0.154 0.052 0.211 0.001 0.009 0.004 0.022 0.004 0.030s-0.003 0.013-0.003 0.022c-0.001 0.017-0.003 0.035-0.009 0.049-0.004 0.026-0.017 0.044-0.022 0.052-0.013 0.013-0.022 0.022-0.073 0.026l-0.026-0.001-4.362-0.566c-0.052-0.009-0.105-0.022-0.158-0.030-0.107-0.022-0.215-0.039-0.321-0.061l-0.601-0.113-0.3-0.055c-0.101-0.017-0.152-0.039-0.189-0.063-0.035-0.022-0.055-0.049-0.088-0.101-0.017-0.030-0.035-0.072-0.055-0.114-0.013-0.026-0.026-0.057-0.035-0.088-0.030-0.081-0.063-0.164-0.096-0.248-0.009-0.017-0.013-0.035-0.022-0.053-0.030-0.076-0.061-0.154-0.092-0.23-0.14-0.356-0.286-0.713-0.44-1.064-0.148-0.355-0.309-0.705-0.469-1.055-0.070-0.155-0.146-0.309-0.219-0.464l2.834-6.090 0.154 0.36c0.297 0.71 0.614 1.41 0.927 2.113 0.641 1.399 1.29 2.796 2.033 4.157 0.142 0.266 0.285 0.533 0.428 0.799zM30.38 26.319l-1.041-2.425c-0.090-0.266-0.18-0.533-0.271-0.799-0.446-1.367-0.991-2.7-1.542-4.029-0.285-0.661-0.563-1.325-0.862-1.981l-0.224-0.492c-0.047-0.107-0.108-0.211-0.177-0.309 0.263-0.035 0.461-0.061 0.569-0.076l0.133-0.017 0.096-0.084c0.298-0.256 0.272-0.504 0.23-0.629-0.127-0.375-0.626-0.469-1.086-0.525l-0.679-0.111c-0.009-0.022-0.009-0.039-0.022-0.060v-0.003l-1.148-2.582c-0.101-0.282-0.201-0.565-0.304-0.847-0.506-1.451-1.107-2.866-1.715-4.277-0.312-0.703-0.62-1.408-0.946-2.106l-0.243-0.524c-0.035-0.076-0.095-0.205-0.161-0.306-0.067-0.105-0.143-0.201-0.228-0.291-0.175-0.176-0.375-0.335-0.673-0.434-0.039-0.013-0.079-0.022-0.119-0.030-0.039-0.004-0.101-0.017-0.12-0.017l-0.457-0.039c-0.813-0.069-1.626-0.134-2.441-0.187-0.407-0.026-0.813-0.052-1.221-0.073l-1.245-0.066c-0.152-0.004-0.358 0.078-0.445 0.225-0.026 0.043-0.044 0.084-0.058 0.125-0.004 0.017-0.009 0.035-0.013 0.053-0.001 0.009-0.004 0.022-0.009 0.035-0.004 0.030-0.009 0.058-0.009 0.088-0.213 0.122-0.408 0.323-0.519 0.56l-5 10.75c-0.816 0.087-1.366 0.145-1.462 0.155l-0.137 0.013-0.104 0.088c-0.414 0.356-0.356 0.696-0.312 0.825 0.044 0.131 0.21 0.443 0.783 0.515l0.525 0.072c-0.009 0.013-0.017 0.022-0.022 0.035l-5.352 11.071c-0.202 0.42-0.063 0.79 0.315 0.825l6.1 0.562c0.378 0.035 0.848-0.279 1.052-0.699l1.947-4.027c0.001 0.004 0.003 0.009 0.004 0.017 0.297 0.716 0.604 1.428 0.939 2.129l0.125 0.263 0.063 0.133c0.022 0.047 0.053 0.11 0.085 0.16 0.134 0.207 0.302 0.379 0.506 0.521 0.102 0.070 0.213 0.133 0.341 0.18 0.063 0.026 0.131 0.044 0.205 0.058 0.035 0.009 0.076 0.009 0.114 0.013l0.079 0.004 0.618 0.022c0.282 0.009 0.562 0.017 0.844 0.026l4.076 0.378c0.026 0.001 0.047 0.003 0.072 0.003 0.154 0.001 0.306-0.053 0.405-0.157 0.017-0.017 0.026-0.035 0.039-0.052l0.069 0.004c0.341 0.035 0.766-0.262 0.95-0.661l1.526-3.315c0.19 0.472 0.387 0.942 0.598 1.407l0.224 0.492c0.095 0.201 0.236 0.391 0.404 0.539 0.172 0.149 0.367 0.285 0.647 0.343 0.035 0.009 0.075 0.009 0.111 0.017l0.075 0.003 0.429 0.013c0.262 0.009 0.524 0.013 0.786 0.022l3.779 0.367c0.026 0.003 0.046 0.004 0.069 0.004 0.146 0.001 0.292-0.055 0.385-0.157 0.095-0.102 0.131-0.231 0.131-0.363 0-0.117-0.030-0.24-0.084-0.367z"></path>
</svg>
