<!-- Generated by IcoMoon.io -->
<svg version="1.1" xmlns="http://www.w3.org/2000/svg" width="27" height="32" viewBox="0 0 27 32">
<title>ally_inverted1</title>
<path d="M13.47 30.659h-6.949c-1.158-0.061-2.316-0.305-3.444-0.731-0.030 0-0.061-0.030-0.122-0.061-0.091-0.061-0.152-0.091-0.152-0.152v-2.53c0-0.274 0-0.518 0-0.792s0-0.518-0.030-0.762c-0.030-0.122-0.030-0.305-0.030-0.549 0-0.488 0.030-0.945 0.061-1.341 0.030-0.427 0.091-0.853 0.213-1.341v-0.091c0.061-0.427 0.244-0.762 0.549-0.945 0.091-0.061 0.152-0.122 0.183-0.183 0.030-0.030 0.030-0.061 0-0.122-0.061-0.152-0.122-0.244-0.183-0.335-0.122-0.183-0.244-0.305-0.366-0.396s-0.244-0.183-0.366-0.244c-0.061-0.061-0.152-0.091-0.213-0.152s-0.152-0.091-0.244-0.152c-0.030 0-0.030-0.030-0.030-0.061s0-0.091 0.030-0.122c0.030-0.061 0.091-0.122 0.183-0.213 0.122-0.122 0.244-0.244 0.396-0.335s0.274-0.244 0.427-0.396c0.183-0.152 0.305-0.274 0.427-0.366s0.244-0.183 0.366-0.305c0.061-0.030 0.122-0.061 0.152-0.152 0.030-0.030 0.030-0.061 0.030-0.122-0.061-0.183-0.152-0.366-0.274-0.518s-0.213-0.366-0.335-0.64c-0.244-0.183-0.488-0.335-0.701-0.427-0.183-0.091-0.396-0.183-0.61-0.244s-0.396-0.152-0.61-0.244c-0.122-0.061-0.244-0.091-0.335-0.122-0.122-0.030-0.213-0.061-0.335-0.122-0.091-0.091-0.122-0.183-0.030-0.244 0-0.030 0.030-0.061 0.061-0.122 0.091-0.091 0.183-0.244 0.274-0.396 0.091-0.183 0.183-0.274 0.274-0.335 0.122-0.061 0.244-0.152 0.335-0.213s0.213-0.122 0.335-0.183c0.549-0.305 1.097-0.488 1.646-0.61 0.305-0.061 0.579-0.152 0.884-0.244s0.61-0.213 0.884-0.335c0.122-0.122 0.152-0.244 0.122-0.366 0-0.061 0-0.091-0.030-0.122s-0.030-0.061-0.030-0.122c-0.061-0.091-0.061-0.152-0.061-0.183-0.061-0.305-0.091-0.549-0.061-0.762v-0.305c0-0.183-0.030-0.366-0.122-0.579-0.122-0.183-0.305-0.274-0.579-0.305-0.091-0.030-0.274-0.030-0.518-0.030-0.274 0-0.549 0-0.823-0.030s-0.579-0.061-0.884-0.061c-0.335-0.030-0.64-0.091-0.914-0.213-0.183-0.061-0.274-0.152-0.213-0.335 0.061-0.091 0.091-0.183 0.152-0.213 0.122-0.244 0.305-0.457 0.549-0.61 0.274-0.183 0.549-0.366 0.792-0.488s0.549-0.274 0.792-0.396c0.152-0.061 0.244-0.091 0.335-0.152 0.183-0.061 0.335-0.122 0.396-0.183 0.183-0.061 0.274-0.213 0.335-0.427 0-0.061 0-0.152 0.030-0.213 0-0.061 0.030-0.122 0.030-0.152 0-0.122 0-0.244 0.030-0.335s0.030-0.183 0.030-0.305c0.030-0.335 0.061-0.67 0.152-1.006 0.061-0.335 0.183-0.64 0.305-0.975 0.061-0.183 0.091-0.396 0.152-0.61s0.122-0.427 0.152-0.61c0.061-0.305 0.122-0.549 0.213-0.792 0.061-0.122 0.091-0.213 0.122-0.274s0.091-0.152 0.122-0.244c0.183-0.183 0.366-0.305 0.488-0.366 0.183-0.091 0.335-0.152 0.427-0.152 0.183-0.030 0.366-0.030 0.518-0.030s0.305 0.061 0.457 0.152c0.061 0.030 0.091 0.030 0.152 0.061s0.122 0.030 0.183 0.061c0.366 0.122 0.701 0.244 0.975 0.335s0.549 0.183 0.823 0.244c0.274 0.061 0.518 0.091 0.731 0.152s0.427 0.091 0.61 0.152c0.244 0.091 0.488 0.213 0.731 0.305s0.549 0.244 0.884 0.396c0.061 0.061 0.091 0.091 0.152 0.122s0.091 0.061 0.152 0.122c0.427 0.305 0.67 0.792 0.792 1.432 0 0.061 0 0.091 0.030 0.152 0 0.061 0 0.122-0.030 0.213 0 0.244 0.030 0.488 0.061 0.701 0.030 0.244 0.091 0.457 0.122 0.64 0.030 0.061 0.122 0.091 0.244 0.152s0.244 0.091 0.305 0.091h0.427c0.305 0 0.64 0.061 0.975 0.213 0.030 0 0.122 0.030 0.335 0.061 0.305 0.091 0.518 0.244 0.67 0.457s0.274 0.457 0.305 0.701v0.305c-0.061 0.183-0.152 0.366-0.335 0.61s-0.427 0.427-0.701 0.579c-0.274 0.152-0.549 0.274-0.792 0.366-0.122 0.061-0.244 0.091-0.335 0.122s-0.213 0.091-0.335 0.122c-0.091 0.061-0.152 0.122-0.152 0.213-0.030 0.183-0.030 0.427-0.030 0.701s0 0.488-0.030 0.701c0 0.183 0.061 0.274 0.213 0.305 0.183 0.061 0.396 0.091 0.579 0.152s0.396 0.122 0.579 0.152c0.335 0.061 0.61 0.122 0.762 0.183s0.183 0.122 0.152 0.244c-0.061 0.152-0.091 0.274-0.122 0.366s-0.061 0.183-0.061 0.244c-0.061 0.091-0.091 0.183-0.122 0.274s-0.091 0.183-0.122 0.305c-0.152 0.152-0.122 0.305 0.061 0.488 0.030 0.030 0.030 0.030 0.030 0.061 0 0 0 0.030 0.030 0.061 0.030 0.061 0 0.122-0.030 0.183-0.030 0.183-0.061 0.305-0.122 0.366s-0.091 0.091-0.152 0.152-0.061 0.183 0.061 0.244c0.061 0.030 0.122 0.061 0.183 0.061 0.061 0.030 0.091 0.061 0.152 0.061 0.183 0.061 0.396 0.152 0.579 0.213s0.396 0.122 0.579 0.183c0.274 0.061 0.488 0.091 0.701 0.152s0.396 0.091 0.579 0.152c0.152 0.061 0.305 0.091 0.488 0.122s0.366 0.091 0.549 0.122c0.183 0.061 0.366 0.122 0.518 0.213s0.305 0.213 0.427 0.427c0.975 0.427 1.585 1.219 1.859 2.347 0.061 0.213 0.091 0.457 0.152 0.67 0.061 0.244 0.091 0.488 0.152 0.792 0.030 0.061 0.030 0.122 0.030 0.183s0 0.122 0.030 0.183c0.061 0.183 0.122 0.366 0.213 0.518 0.366 0.549 0.67 1.158 0.945 1.829 0.183 0.396 0.366 0.792 0.518 1.25 0.152 0.427 0.305 0.853 0.427 1.28 0 0.091 0.030 0.183 0.061 0.305 0.061 0.305 0.152 0.61 0.213 0.853s0.152 0.518 0.274 0.792c0.030 0.061 0.030 0.122 0.030 0.244 0 0.030 0 0.030-0.030 0.061 0 0-0.030 0.030-0.030 0.061-0.030 0.061-0.091 0.122-0.183 0.183-0.579 0.457-1.219 0.853-1.89 1.158s-1.371 0.549-2.072 0.762c-0.396 0.061-0.792 0.152-1.189 0.213s-0.823 0.091-1.219 0.091h-6.522z"></path>
</svg>
