<!-- Generated by IcoMoon.io -->
<svg version="1.1" xmlns="http://www.w3.org/2000/svg" width="36" height="32" viewBox="0 0 36 32">
<title>anchorage</title>
<path d="M1.29 22.562l0.005-2.438-0.031-0.062c-0.017-0.034-0.048-0.077-0.070-0.096-0.034-0.029-0.037-0.036-0.022-0.055 0.020-0.024 0.448-0.345 0.827-0.619 0.146-0.106 0.267-0.203 0.28-0.225 0.019-0.032 0.023-0.072 0.023-0.217v-0.178l0.132-0.009v0.135c0 0.099 0.004 0.135 0.016 0.135 0.009-0 0.074-0.036 0.145-0.079s0.131-0.079 0.135-0.079c0.003 0 0.098 0.068 0.21 0.151s0.21 0.151 0.216 0.151c0.007 0 0.016-0.024 0.021-0.054 0.007-0.041 0.019-0.060 0.050-0.079 0.055-0.033 0.077-0.032 0.113 0.007 0.026 0.028 0.030 0.047 0.032 0.144 0.002 0.101 0.005 0.117 0.041 0.168 0.023 0.034 0.107 0.107 0.204 0.179 0.36 0.267 0.566 0.432 0.573 0.457 0.004 0.014-0.005 0.065-0.020 0.112-0.040 0.124-0.057 0.44-0.048 0.917 0.007 0.395 0.007 0.397 0.043 0.48 0.031 0.073 0.036 0.104 0.042 0.258l0.006 0.174h0.17c0.209 0 0.24-0.011 0.303-0.107 0.081-0.123 0.079-0.116 0.070-0.319-0.009-0.181-0.008-0.188 0.022-0.231 0.017-0.025 0.048-0.057 0.068-0.072 0.036-0.027 0.038-0.027 0.055-0.003 0.010 0.014 0.021 0.031 0.024 0.040s0.023-0.005 0.043-0.028l0.038-0.043 0.085 0.073c0.047 0.040 0.091 0.071 0.098 0.068 0.014-0.005 0.055-0.096 0.128-0.285l0.043-0.112 0.827-0.013-0.003-0.079c-0.002-0.043-0.009-0.144-0.016-0.224-0.019-0.222-0.018-0.24 0.019-0.264 0.024-0.016 0.047-0.019 0.092-0.012l0.060 0.009v0.559l0.056 0.007c0.073 0.010 0.12 0.063 0.148 0.163 0.053 0.194 0.090 0.24 0.192 0.24 0.028 0 0.056 0.009 0.068 0.023 0.024 0.027 0.173 0.274 0.266 0.441 0.035 0.063 0.079 0.126 0.098 0.138 0.030 0.021 0.083 0.023 0.53 0.027l0.496 0.004 0.013 0.049c0.007 0.027 0.025 0.102 0.038 0.167 0.030 0.14 0.088 0.405 0.111 0.505 0.018 0.078 0.025 0.083 0.145 0.1 0.037 0.005 0.077 0.021 0.099 0.039 0.035 0.030 0.036 0.036 0.040 0.18 0.005 0.18 0.006 0.182 0.148 0.182 0.078 0 0.105-0.005 0.119-0.022s0.019-0.12 0.022-0.51c0.002-0.268 0-0.514-0.004-0.546-0.010-0.069-0.066-0.133-0.117-0.133-0.041 0-0.042-0.008-0.007-0.164 0.014-0.065 0.047-0.216 0.073-0.335s0.071-0.33 0.1-0.467c0.030-0.137 0.058-0.268 0.062-0.29l0.008-0.040 0.805-0.007 0.009-0.091c0.005-0.050 0.005-0.134 0-0.188-0.012-0.131-0.005-0.136 0.175-0.136 0.177 0 0.175-0.003 0.175 0.212 0 0.152 0.002 0.162 0.029 0.182 0.026 0.018 0.132 0.020 0.885 0.020s0.859-0.002 0.885-0.020l0.029-0.020v-0.743c0-0.826 0.006-0.769-0.094-0.922l-0.053-0.081 0.158-0.372c0.087-0.205 0.176-0.418 0.2-0.474 0.026-0.064 0.057-0.115 0.083-0.136 0.037-0.031 0.050-0.034 0.134-0.030 0.051 0.002 0.116 0.003 0.144 0.001l0.051-0.003-0.008-0.155c-0.004-0.085-0.012-0.167-0.016-0.181-0.005-0.017 0.002-0.040 0.020-0.063 0.028-0.036 0.029-0.036 0.198-0.036 0.245 0 0.269 0.017 0.231 0.164-0.011 0.043-0.020 0.118-0.020 0.168v0.089h0.763v-0.204c0-0.177 0.003-0.205 0.021-0.213 0.012-0.005 0.031-0.002 0.043 0.005 0.018 0.011 0.022 0.046 0.025 0.205l0.004 0.192 0.073 0.021c0.106 0.031 0.149 0.012 0.212-0.096 0.061-0.104 0.080-0.108 0.5-0.108 0.411 0 0.412 0 0.44 0.093 0.019 0.062 0.078 0.117 0.127 0.118 0.18 0.003 0.255 0.011 0.285 0.031 0.043 0.028 0.071 0.087 0.282 0.582l0.175 0.409-0.060 0.088c-0.074 0.108-0.093 0.174-0.080 0.278 0.005 0.043 0.009 0.131 0.008 0.194l-0.002 0.115h0.060c0.046 0 0.068 0.007 0.092 0.032 0.036 0.036 0.037 0.044 0.020 0.163-0.007 0.050-0.007 0.096 0 0.115 0.012 0.031 0.013 0.032 0.215 0.032h0.203l0.010-0.128c0.020-0.249 0.014-0.447-0.018-0.593-0.033-0.151-0.030-0.191 0.031-0.439 0.017-0.070 0.032-0.142 0.032-0.16 0-0.020 0.014-0.044 0.035-0.060 0.033-0.026 0.050-0.027 0.426-0.027 0.375 0 0.393 0.001 0.426 0.027 0.038 0.030 0.045 0.052 0.102 0.312 0.048 0.22 0.049 0.247 0.013 0.308-0.028 0.047-0.029 0.059-0.025 0.384 0.004 0.375 0.002 0.366 0.105 0.418 0.042 0.022 0.079 0.025 0.28 0.025h0.231v-0.204c0-0.191 0.002-0.204 0.025-0.204 0.045 0 0.053 0.030 0.057 0.218l0.004 0.183 0.207 0.007c0.2 0.006 0.208 0.008 0.238 0.040 0.033 0.034 0.495 1.077 0.495 1.117 0 0.007-0.050 0.044-0.112 0.083l-0.112 0.070 0.007 1.171 0.040 0.004c0.050 0.006 0.068 0.021 0.1 0.083 0.020 0.039 0.025 0.077 0.025 0.176 0 0.108 0.003 0.127 0.023 0.135 0.013 0.005 0.089 0.009 0.169 0.009 0.212 0 0.221-0.011 0.244-0.318 0.016-0.216 0.017-0.209-0.034-0.489-0.018-0.098-0.018-0.124-0.001-0.237 0.011-0.070 0.040-0.2 0.065-0.289 0.056-0.197 0.095-0.372 0.239-1.088 0.075-0.371 0.119-0.564 0.135-0.585 0.035-0.047 0.11-0.069 0.212-0.061 0.119 0.009 0.21-0.007 0.239-0.044 0.028-0.034 0.060-0.141 0.109-0.362 0.019-0.087 0.038-0.168 0.041-0.181 0.006-0.021 0.030-0.023 0.275-0.023h0.269v-0.618h0.605v0.605h0.627l-0.001-0.17c-0.001-0.114 0.004-0.175 0.014-0.186 0.023-0.023 0.121-0.039 0.192-0.030 0.053 0.007 0.066 0.014 0.084 0.048 0.022 0.043 0.028 0.186 0.012 0.282l-0.010 0.056h0.065c0.087 0 0.128 0.033 0.154 0.123 0.011 0.038 0.049 0.21 0.085 0.384s0.087 0.413 0.113 0.533c0.026 0.119 0.059 0.273 0.073 0.342 0.026 0.123 0.053 0.218 0.086 0.297l0.017 0.040 0.116-0.016c0.167-0.024 0.247-0.023 0.269 0.003 0.012 0.014 0.016 0.048 0.014 0.096-0.003 0.054 0.002 0.080 0.016 0.091s0.144 0.015 0.545 0.012c0.596-0.005 0.554 0.003 0.615-0.118 0.036-0.072 0.088-0.116 0.134-0.116 0.022 0 0.050-0.018 0.083-0.054l0.050-0.054 0.022 0.046c0.041 0.086 0.151 0.096 0.231 0.021 0.042-0.039 0.042-0.039 0.034-0.141-0.004-0.056-0.009-0.122-0.011-0.148-0.005-0.066 0.040-0.084 0.198-0.083 0.177 0.001 0.175-0.001 0.165 0.23l-0.008 0.183 0.166-0.004c0.155-0.004 0.168-0.006 0.201-0.037 0.019-0.018 0.041-0.043 0.047-0.056 0.037-0.068 0.042-0.539 0.007-0.661-0.030-0.107-0.028-0.218 0.009-0.399 0.017-0.084 0.035-0.181 0.040-0.215 0.015-0.106-0.001-0.102 0.486-0.106l0.432-0.004 0.031-0.036c0.017-0.020 0.035-0.058 0.040-0.086 0.025-0.145 0.074-0.314 0.098-0.338s0.045-0.027 0.382-0.031l0.355-0.004-0.017-0.196h0.099l-0.018 0.184h0.501l0.007-0.493h0.158l0.007 0.507h0.15c0.159 0 0.205 0.012 0.229 0.057 0.008 0.015 0.038 0.142 0.067 0.282s0.082 0.393 0.118 0.562c0.036 0.17 0.066 0.325 0.066 0.346 0 0.038-0.026 0.070-0.070 0.086-0.059 0.021-0.062 0.064-0.059 0.703l0.003 0.602 0.087 0.004c0.105 0.005 0.103 0.008 0.103-0.196 0-0.184 0.009-0.225 0.045-0.219 0.027 0.004 0.028 0.012 0.031 0.21l0.004 0.206 0.071 0.009c0.039 0.005 0.127 0.005 0.195-0l0.123-0.009 0.046 0.041c0.039 0.034 0.076 0.111 0.236 0.483 0.12 0.281 0.204 0.46 0.23 0.49 0.036 0.042 0.048 0.047 0.121 0.052s0.084 0.003 0.114-0.028c0.033-0.033 0.034-0.036 0.025-0.164-0.008-0.121-0.007-0.132 0.019-0.158 0.016-0.016 0.062-0.035 0.107-0.044 0.12-0.025 0.137-0.049 0.143-0.205 0.006-0.162-0.009-0.208-0.097-0.304-0.040-0.043-0.072-0.082-0.072-0.086 0-0.014 0.105-0.166 0.16-0.231 0.090-0.108 0.095-0.13 0.103-0.469 0.004-0.168 0.011-0.309 0.015-0.313s0.012 0.008 0.018 0.029c0.013 0.052 0.031 0.070 0.074 0.070s0.053-0.012 0.072-0.085c0.017-0.065 0.035-0.064 0.052 0.003 0.019 0.071 0.029 0.083 0.072 0.083 0.049 0 0.079-0.031 0.079-0.083 0-0.035 0.009-0.047 0.055-0.073 0.255-0.146 0.412-0.505 0.348-0.798l-0.020-0.092 0.035-0.048c0.019-0.027 0.204-0.238 0.41-0.47l0.375-0.422 1.151-0.001v-0.5h0.238l-0.003 0.493 0.060 0.004c0.069 0.005 0.054-0.028 0.134 0.297l0.051 0.209 0.145-0.009c0.113-0.007 0.148-0.013 0.161-0.031 0.024-0.032 0.020-0.097-0.010-0.146-0.014-0.024-0.026-0.045-0.026-0.047 0-0.008 0.146-0.010 0.158-0.002 0.008 0.005-0 0.024-0.020 0.048-0.058 0.069-0.045 0.105 0.086 0.241 0.042 0.043 0.13 0.144 0.196 0.224l0.12 0.145-0.053 0.007c-0.055 0.008-0.091 0.033-0.134 0.094-0.025 0.034-0.025 0.098-0.025 2.72l0 2.685h-33.53l0.005-2.438zM8.619 22.519c-0.060-0.009-0.112-0.019-0.115-0.022s-0.035-0.156-0.073-0.34c-0.037-0.184-0.075-0.354-0.085-0.377-0.035-0.085-0.052-0.088-0.569-0.090-0.442-0.002-0.466-0.003-0.5-0.028-0.019-0.014-0.083-0.106-0.141-0.203-0.178-0.297-0.235-0.374-0.3-0.405-0.032-0.015-0.063-0.028-0.071-0.028-0.026 0-0.056-0.047-0.070-0.11-0.017-0.077-0.026-0.096-0.097-0.202-0.035-0.052-0.064-0.082-0.080-0.082-0.024-0-0.024-0.009-0.016-0.181 0.012-0.234 0.019-0.255 0.107-0.313 0.093-0.062 0.203-0.182 0.27-0.295 0.074-0.124 0.292-0.615 0.335-0.756 0.033-0.106 0.035-0.126 0.028-0.275-0.006-0.139-0.016-0.189-0.070-0.378-0.061-0.212-0.062-0.221-0.064-0.408-0.001-0.175 0.001-0.196 0.030-0.253 0.017-0.034 0.053-0.088 0.081-0.119 0.058-0.066 0.302-0.24 0.41-0.293 0.091-0.045 0.158-0.112 0.187-0.192 0.012-0.033 0.044-0.081 0.071-0.106 0.060-0.057 0.213-0.151 0.345-0.212 0.199-0.092 0.331-0.219 0.466-0.448 0.093-0.158 0.155-0.227 0.319-0.354 0.204-0.158 0.252-0.233 0.418-0.662 0.088-0.228 0.329-0.812 0.664-1.612 0.117-0.279 0.216-0.531 0.22-0.562 0.006-0.045 0.001-0.067-0.027-0.115-0.063-0.107-0.073-0.106-0.21 0.028-0.066 0.065-0.193 0.181-0.281 0.259-0.242 0.212-0.36 0.355-0.492 0.597-0.014 0.026-0.048 0.052-0.095 0.075-0.050 0.024-0.095 0.060-0.143 0.114-0.148 0.171-0.204 0.227-0.296 0.296-0.117 0.088-0.208 0.189-0.268 0.295-0.067 0.12-0.107 0.161-0.24 0.243-0.333 0.208-0.565 0.387-0.749 0.579-0.127 0.132-0.724 0.586-1.111 0.845-0.169 0.113-0.346 0.268-0.482 0.423-0.064 0.073-0.168 0.187-0.232 0.255-0.128 0.136-0.217 0.262-0.409 0.582-0.247 0.411-0.287 0.49-0.322 0.651-0.033 0.148-0.047 0.186-0.083 0.228-0.023 0.026-0.037 0.144-0.075 0.605-0.022 0.268-0.032 0.33-0.052 0.311-0.006-0.006-0.126-0.472-0.185-0.719-0.017-0.070-0.060-0.029-0.325 0.307-0.143 0.181-0.273 0.345-0.29 0.365l-0.030 0.036-0.158-0.119c-0.234-0.176-0.216-0.149-0.252-0.376-0.017-0.108-0.028-0.213-0.023-0.235 0.010-0.050-0.003-0.033 0.77-1.001 0.359-0.45 0.69-0.87 0.736-0.935 0.123-0.173 0.271-0.34 0.424-0.474 0.17-0.15 0.155-0.138 0.524-0.426 0.417-0.326 0.811-0.634 1.026-0.802 0.612-0.479 0.923-0.718 1.079-0.827 0.311-0.217 0.338-0.242 0.711-0.647 0.083-0.091 0.412-0.44 0.729-0.776s0.647-0.687 0.73-0.78c0.098-0.108 0.159-0.166 0.173-0.163 0.011 0.003 0.18 0.095 0.375 0.206s0.493 0.279 0.664 0.375c0.17 0.096 0.472 0.267 0.67 0.38 0.23 0.131 0.375 0.205 0.398 0.205s0.053-0.015 0.082-0.043c0.058-0.056 0.955-1.313 1.188-1.666 0.484-0.731 0.468-0.713 1.872-2.199 0.614-0.649 0.947-1.007 1.411-1.514 0.501-0.548 0.612-0.666 0.618-0.658 0.003 0.004 0.074 0.086 0.157 0.184s0.216 0.263 0.295 0.368c0.078 0.105 0.203 0.265 0.276 0.355 0.389 0.481 0.718 0.897 0.766 0.967 0.029 0.043 0.135 0.174 0.234 0.29s0.227 0.276 0.283 0.355c0.203 0.287 0.332 0.415 0.793 0.786 0.155 0.125 0.403 0.328 0.551 0.452 0.257 0.215 0.369 0.307 0.852 0.699 0.118 0.096 0.222 0.174 0.23 0.174s0.225-0.229 0.482-0.507c0.257-0.278 0.471-0.505 0.476-0.506s0.075 0.111 0.156 0.247c0.081 0.136 0.388 0.649 0.683 1.142s0.671 1.122 0.837 1.401c0.203 0.34 0.325 0.531 0.373 0.583 0.084 0.091 0.342 0.272 1.646 1.151 1.036 0.698 1.578 1.058 1.616 1.071 0.024 0.009 0.049 0.008 0.072-0 0.032-0.012 0.279-0.226 0.489-0.423 0.104-0.098 0.14-0.121 0.172-0.108 0.012 0.005 0.2 0.216 0.418 0.47 0.855 0.998 1.864 2.146 2.186 2.487 0.2 0.212 0.218 0.237 0.218 0.293 0 0.101-0.169 0.352-0.273 0.404l-0.043 0.021-0.053-0.105c-0.029-0.058-0.071-0.15-0.092-0.204-0.060-0.151-0.093-0.194-0.316-0.414-0.113-0.112-0.227-0.228-0.252-0.257s-0.074-0.076-0.109-0.104c-0.095-0.077-0.198-0.186-0.294-0.31-0.151-0.195-0.242-0.306-0.366-0.442-0.115-0.126-0.192-0.227-0.497-0.643-0.259-0.354-0.45-0.605-0.464-0.609-0.018-0.006-0.058 0.171-0.058 0.254 0 0.078 0.042 0.284 0.090 0.441 0.066 0.214 0.22 0.595 0.275 0.68 0.075 0.115 0.124 0.24 0.187 0.476 0.088 0.33 0.126 0.423 0.255 0.621 0.13 0.2 0.183 0.327 0.206 0.488 0.010 0.072 0.026 0.115 0.066 0.181 0.061 0.101 0.078 0.153 0.078 0.235-0 0.081-0.012 0.12-0.141 0.467-0.087 0.233-0.123 0.314-0.158 0.353-0.057 0.064-0.076 0.109-0.094 0.23-0.024 0.156-0.075 0.234-0.164 0.248-0.041 0.007-0.059-0-0.139-0.055-0.071-0.049-0.107-0.064-0.158-0.069l-0.067-0.006v-0.559l0.059-0.023c0.091-0.035 0.104-0.070 0.080-0.214-0.030-0.18-0.148-0.799-0.178-0.936-0.089-0.398-0.119-0.453-0.258-0.468-0.043-0.005-0.106-0.012-0.141-0.016l-0.063-0.007-0-0.18c-0-0.215-0.013-0.27-0.068-0.305-0.062-0.038-0.22-0.049-0.294-0.020-0.096 0.037-0.116 0.089-0.122 0.319l-0.005 0.187-0.051 0.009c-0.028 0.005-0.056 0.005-0.062 0.002s-0.012-0.032-0.014-0.062c-0.007-0.127-0.069-0.17-0.241-0.17-0.194 0-0.243 0.028-0.268 0.155l-0.015 0.075-0.251 0.003c-0.245 0.003-0.252 0.003-0.284-0.026s-0.305-0.551-0.668-1.273c-0.096-0.192-0.226-0.472-0.288-0.624-0.128-0.313-0.148-0.34-0.226-0.306-0.060 0.026-0.101 0.072-0.275 0.312-0.198 0.273-0.289 0.43-0.488 0.837-0.092 0.189-0.189 0.376-0.214 0.414s-0.107 0.135-0.181 0.215c-0.128 0.139-0.139 0.154-0.243 0.368-0.114 0.235-0.209 0.478-0.201 0.517 0.006 0.033 0.177 0.157 0.261 0.189 0.040 0.015 0.12 0.036 0.178 0.047 0.184 0.033 0.235 0.047 0.309 0.082 0.092 0.044 0.208 0.151 0.287 0.266 0.034 0.049 0.103 0.125 0.152 0.167 0.219 0.19 0.328 0.395 0.358 0.677l0.009 0.089h-0.061c-0.059 0-0.061-0.001-0.052-0.034 0.005-0.019 0.009-0.077 0.010-0.13 0.002-0.11-0.020-0.154-0.098-0.194-0.039-0.020-0.075-0.023-0.271-0.020-0.287 0.005-0.296 0.010-0.346 0.204l-0.014 0.056h-0.212l-0.092 0.089c-0.051 0.049-0.119 0.124-0.153 0.168-0.074 0.097-0.076 0.098-0.139 0.099-0.043 0-0.049-0.003-0.041-0.023 0.025-0.058 0.033-0.17 0.020-0.257-0.014-0.092-0.106-0.358-0.143-0.418-0.011-0.018-0.092-0.109-0.179-0.202s-0.218-0.253-0.291-0.355c-0.101-0.141-0.142-0.189-0.171-0.198-0.092-0.028-0.124-0.061-0.124-0.132 0-0.029-0.006-0.031-0.103-0.038-0.164-0.011-0.214-0.052-0.194-0.159 0.008-0.043 0.029-0.077 0.225-0.364 0.116-0.171 0.18-0.299 0.205-0.413 0.015-0.068 0.036-0.102 0.162-0.263 0.229-0.294 0.25-0.336 0.264-0.525 0.009-0.12 0.017-0.139 0.211-0.461 0.076-0.126 0.168-0.291 0.206-0.366s0.101-0.183 0.141-0.24c0.084-0.12 0.106-0.174 0.107-0.26 0-0.051 0.009-0.071 0.052-0.123 0.028-0.034 0.067-0.094 0.087-0.132 0.031-0.061 0.036-0.088 0.038-0.2 0.003-0.173-0.004-0.193-0.087-0.246-0.105-0.067-0.584-0.239-0.749-0.269-0.147-0.027-0.274-0.121-0.334-0.249-0.028-0.058-0.040-0.117-0.059-0.291-0.070-0.619-0.060-0.563-0.123-0.692s-0.112-0.306-0.145-0.52c-0.045-0.29-0.089-0.468-0.215-0.856-0.072-0.22-0.143-0.457-0.159-0.526-0.058-0.247-0.166-0.606-0.182-0.605-0.005 0-0.080 0.085-0.167 0.187-0.338 0.399-0.578 0.67-0.774 0.874-0.261 0.272-0.356 0.414-0.509 0.767-0.024 0.054-0.117 0.253-0.207 0.441-0.255 0.531-0.303 0.641-0.386 0.887-0.061 0.181-0.074 0.233-0.062 0.248 0.033 0.040 0.115 0.069 0.192 0.069 0.089 0 0.205-0.051 0.457-0.2 0.187-0.111 0.28-0.157 0.304-0.152 0.013 0.003-0.047 0.093-0.183 0.276-0.24 0.322-0.282 0.374-0.438 0.538-0.080 0.084-0.154 0.182-0.228 0.299-0.080 0.128-0.142 0.208-0.233 0.3-0.068 0.069-0.175 0.195-0.239 0.28s-0.225 0.296-0.36 0.47c-0.135 0.174-0.309 0.399-0.387 0.5-0.111 0.143-0.16 0.221-0.221 0.349-0.15 0.314-0.193 0.447-0.239 0.739-0.012 0.076-0.047 0.202-0.088 0.316-0.138 0.384-0.174 0.537-0.195 0.827-0.008 0.106-0.028 0.255-0.047 0.335s-0.033 0.146-0.033 0.148-0.008 0.003-0.018 0.003c-0.017 0-0.074-0.101-0.074-0.132 0-0.008-0.014-0.028-0.032-0.046-0.031-0.031-0.039-0.032-0.21-0.032h-0.178l-0.001-0.115c-0.001-0.168-0.016-0.24-0.056-0.274-0.070-0.060-0.251-0.056-0.315 0.008-0.036 0.036-0.037 0.039-0.037 0.202v0.166h-0.312l-0.009-0.194c-0.009-0.201 0.003-0.292 0.051-0.385 0.026-0.050 0.025-0.099-0.007-0.299-0.034-0.208-0.085-0.42-0.112-0.461-0.011-0.017-0.052-0.056-0.092-0.086s-0.072-0.061-0.072-0.068c0-0.007 0.015-0.099 0.034-0.204 0.020-0.111 0.038-0.282 0.044-0.408 0.008-0.168 0.017-0.236 0.040-0.303 0.030-0.090 0.104-0.221 0.14-0.252 0.040-0.033 0.059-0.104 0.117-0.444 0.093-0.541 0.109-0.661 0.131-0.995 0.045-0.688 0.068-0.867 0.132-1.020 0.045-0.109 0.062-0.276 0.027-0.276-0.040 0-0.468 0.118-0.556 0.154-0.057 0.023-0.112 0.059-0.164 0.107-0.065 0.060-0.089 0.074-0.145 0.083-0.092 0.014-0.178 0.074-0.297 0.206-0.056 0.062-0.187 0.186-0.291 0.276-0.157 0.136-0.192 0.16-0.207 0.146s-0.012-0.033 0.015-0.107c0.043-0.118 0.049-0.129 0.234-0.442 0.087-0.148 0.19-0.337 0.228-0.421s0.119-0.251 0.181-0.372c0.122-0.241 0.157-0.338 0.185-0.529 0.020-0.133 0.027-0.148 0.135-0.281 0.1-0.124 0.101-0.128 0.109-0.391l0.007-0.237 0.057-0.158c0.090-0.25 0.144-0.43 0.201-0.671 0.052-0.22 0.053-0.23 0.064-0.579 0.006-0.195 0.018-0.464 0.026-0.597l0.014-0.241-0.040-0.096c-0.048-0.116-0.082-0.292-0.125-0.652-0.031-0.261-0.058-0.414-0.14-0.815-0.040-0.197-0.101-0.341-0.135-0.321-0.171 0.1-0.334 0.223-0.467 0.351-0.407 0.396-0.728 0.733-0.845 0.89-0.254 0.338-0.66 0.771-0.957 1.019-0.093 0.078-0.125 0.117-0.223 0.27-0.063 0.098-0.22 0.344-0.35 0.547s-0.245 0.386-0.256 0.408c-0.011 0.022-0.125 0.176-0.253 0.342-0.647 0.842-0.641 0.833-0.73 1.015-0.098 0.2-0.197 0.353-0.35 0.538-0.060 0.072-0.114 0.139-0.121 0.148s-0.018 0.253-0.024 0.579c-0.008 0.386-0.018 0.606-0.032 0.701-0.031 0.211-0.038 0.535-0.020 0.935 0.015 0.34 0.008 0.6-0.020 0.772-0.014 0.089-0.040 0.046-0.070-0.118-0.11-0.597-0.202-1.065-0.219-1.116-0.035-0.107-0.105-0.156-0.184-0.13-0.073 0.024-0.213 0.186-0.3 0.347-0.108 0.199-0.237 0.389-0.36 0.528-0.363 0.411-0.459 0.539-0.636 0.855-0.172 0.307-0.343 0.556-0.621 0.906-0.204 0.257-0.336 0.477-0.428 0.714-0.077 0.198-0.444 0.807-0.572 0.949-0.054 0.059-0.119 0.149-0.146 0.2-0.049 0.093-0.1 0.263-0.1 0.333 0 0.042-0.005 0.044-0.095 0.056-0.074 0.010-0.131 0.053-0.169 0.127-0.026 0.050-0.068 0.243-0.219 0.995-0.083 0.413-0.083 0.427-0.004 0.467 0.090 0.045 0.092 0.052 0.092 0.321 0 0.186-0.004 0.242-0.016 0.24-0.009-0.001-0.066-0.009-0.126-0.019zM16.269 19.616c-0.038-0.123-0.085-0.23-0.119-0.27-0.090-0.106-0.089-0.118 0.020-0.22l0.068-0.064 0.031 0.051c0.054 0.089 0.060 0.128 0.055 0.325-0.005 0.162-0.008 0.187-0.028 0.191-0.012 0.002-0.025-0.003-0.027-0.013zM21.038 18.341c0-0.008 0.014-0.028 0.032-0.046 0.030-0.030 0.043-0.032 0.181-0.036 0.217-0.005 0.354 0.002 0.396 0.018 0.032 0.013 0.062 0.047 0.062 0.070 0 0.004-0.151 0.007-0.335 0.007-0.225 0-0.335-0.005-0.335-0.014zM33.696 17.94c0-0.004 0.030-0.066 0.066-0.138 0.046-0.092 0.073-0.131 0.089-0.131s0.042 0.038 0.085 0.125c0.034 0.069 0.062 0.131 0.062 0.138s-0.061 0.013-0.151 0.013c-0.083 0-0.151-0.003-0.151-0.007z"></path>
</svg>
