<!-- Generated by IcoMoon.io -->
<svg version="1.1" xmlns="http://www.w3.org/2000/svg" width="32" height="32" viewBox="0 0 32 32">
<title>ancient_hunger</title>
<path d="M18.026 28.957c-0.466-0.176-0.529-0.349-0.529-1.439v-1.056l-0.291 0.062c-0.16 0.034-0.625 0.132-1.032 0.218-3.129 0.657-6.494 0.021-8.895-1.682-0.769-0.545-1.989-1.811-2.566-2.661-1.761-2.594-2.777-6.399-2.465-9.233 0.276-2.513 1.2-4.42 3.010-6.217 2.414-2.396 5.693-3.77 9.391-3.934 5.827-0.259 11.119 2.684 13.336 7.416 0.834 1.78 1.048 3.212 0.842 5.642-0.164 1.937-0.058 2.895 0.522 4.736 0.512 1.624 0.595 2.277 0.38 2.995-0.221 0.74-0.671 1.132-1.67 1.453-0.166 0.053-0.185 0.23-0.185 1.688 0 1.52-0.015 1.641-0.223 1.83-0.211 0.191-0.464 0.203-4.844 0.221-2.542 0.011-4.693-0.007-4.78-0.040zM24.168 26.806c0-1.078 0.16-1.377 0.735-1.377 0.493 0 0.641 0.318 0.641 1.374l-0 0.903 1.059-0.073v-1.623c0-1.795 0.053-1.956 0.646-1.956 0.566 0 1.013-0.262 1.148-0.671 0.138-0.418 0.090-0.828-0.227-1.939l-0.216-0.757-0.55-0.069c-2.637-0.329-4.008-3.266-2.322-4.973 0.398-0.403 1.267-0.796 1.935-0.875l0.538-0.064v-0.657c0-0.361-0.096-1.033-0.213-1.494-0.87-3.413-3.846-6.326-7.772-7.608-1.437-0.469-2.518-0.626-4.297-0.624-2.427 0.003-4.206 0.423-6.247 1.476-1.84 0.949-3.641 2.634-4.423 4.138-1.279 2.458-1.417 5.416-0.396 8.468 1.276 3.814 3.504 6.037 6.999 6.985 0.955 0.259 4.164 0.285 4.915 0.040l0.476-0.155-0.476-0.028c-2.566-0.15-3.92-1.231-3.916-3.125 0.001-0.637 0.066-0.923 0.376-1.669 0.206-0.495 0.451-1.091 0.544-1.324 0.108-0.269 0.169-0.733 0.168-1.271-0.002-0.694-0.064-1.010-0.344-1.747-0.466-1.228-0.502-1.514-0.226-1.79 0.301-0.301 0.705-0.286 0.914 0.034 0.092 0.141 0.337 0.724 0.544 1.297 0.289 0.8 0.389 1.262 0.43 1.994 0.057 1.021-0.042 1.419-0.782 3.124-0.22 0.507-0.299 0.861-0.3 1.344-0.002 0.604 0.027 0.685 0.359 1.028 0.582 0.6 1.096 0.732 2.945 0.754 1.121 0.014 1.661 0.060 1.774 0.154 0.133 0.11 0.162 0.442 0.162 1.868v1.734h1.165v-0.9c0-1.021 0.168-1.324 0.735-1.324 0.489 0 0.641 0.32 0.641 1.347v0.877h0.847v-0.877c0-1.013 0.154-1.347 0.621-1.347 0.587 0 0.699 0.199 0.739 1.315l0.037 1.015h0.615zM24.114 24.542c-0.187-0.082-0.405-0.105-0.529-0.056-0.116 0.045-0.442 0.086-0.725 0.090-0.451 0.007-0.559-0.038-0.886-0.365-0.472-0.472-0.466-0.507 0.498-2.7 0.409-0.931 0.743-1.739 0.743-1.796s0.113-0.177 0.25-0.267c0.269-0.176 0.655-0.1 0.883 0.175 0.219 0.265 1.514 3.862 1.514 4.206 0 0.51-0.4 0.862-0.975 0.857-0.25-0.002-0.598-0.067-0.773-0.143zM23.982 23.078c0.16 0.005 0.292-0.011 0.292-0.034s-0.102-0.314-0.227-0.647l-0.227-0.606-0.236 0.469c-0.13 0.258-0.271 0.581-0.313 0.718-0.069 0.224-0.052 0.241 0.171 0.17 0.137-0.043 0.379-0.075 0.54-0.070zM18.42 20.519c-1.577-0.588-2.32-2.338-1.626-3.829 0.913-1.96 4.008-2.559 5.556-1.076 0.555 0.532 0.795 1.087 0.79 1.828-0.008 1.223-0.72 2.22-2.019 2.828-0.828 0.387-2.031 0.498-2.701 0.249zM20.785 19.011c0.663-0.361 1.053-0.963 1.053-1.623 0-0.633-0.577-1.222-1.303-1.331-0.997-0.149-2.118 0.347-2.507 1.11-0.271 0.532-0.269 0.777 0.013 1.359 0.437 0.902 1.599 1.108 2.743 0.485zM27.518 18.891c-0.036-0.218-0.066-0.959-0.067-1.646l-0.001-1.249-0.397 0.072c-0.96 0.174-1.443 0.715-1.373 1.539 0.056 0.651 0.406 1.118 1.071 1.428 0.76 0.354 0.846 0.338 0.767-0.144z"></path>
</svg>
