<!-- Generated by IcoMoon.io -->
<svg version="1.1" xmlns="http://www.w3.org/2000/svg" width="29" height="32" viewBox="0 0 29 32">
<title>arcane_x2</title>
<path d="M20.089 0c-0.463 0-0.902 0.033-1.336 0.1-0.44 0.068-0.85 0.171-1.252 0.305h-0.003l-0.002 0.002c-1.736 0.59-3.157 1.601-4.193 2.997-0.629 0.765-1.072 1.58-1.371 2.443l-0.009 0.024c-0.243 0.79-0.381 1.636-0.429 2.54h-0.729l-0.161 0.082c-0.062 0.031-0.11 0.040-0.208 0.040-0.428 0-0.832 0.076-1.195 0.185-0.318 0.095-0.591 0.188-0.882 0.275l-0.012 0.003-0.010 0.003c-0.78 0.26-1.495 0.586-2.196 0.969-0.713 0.389-1.383 0.859-1.988 1.461-0.393 0.334-0.721 0.69-1.025 1.055-0.332 0.367-0.617 0.747-0.888 1.109l-0.009 0.012c-0.431 0.597-0.753 1.254-1.012 1.952-0.087 0.187-0.085 0.316-0.086 0.406-0.030 0.142-0.090 0.329 0.079 0.632 0.010 0.019 0.035 0.025 0.048 0.043-0.048 0.014-0.089 0.038-0.146 0.070-0.032 0.023-0.056 0.005-0.083 0.033l-0.013 0.013c-0.017 0.014-0.026 0.004-0.043 0.021s-0.006 0.026-0.021 0.043l-0.146 0.146v0.161c-0.004 0.018-0.028 0.048-0.030 0.063l0.027-0.137c-0.019 0.046-0.012 0.095-0.030 0.141-0.001 0.010-0.021 0.040-0.022 0.048-0.008 0.068-0.005 0.078-0.004 0.088-0.182 0.535-0.306 1.078-0.335 1.619l-0.002 0.021v0.019c0 0.152-0.006 0.205-0.007 0.211-0.059 0.238-0.054 0.429-0.054 0.521 0 0.242-0.003 0.574 0.079 0.949 0.001 0.003-0.001 0.005 0 0.007-0.003 0.215-0.021 0.439 0.082 0.747l-0.033-0.147c0.039 0.314 0.103 0.542 0.123 0.685 0.028 0.199 0.062 0.467 0.134 0.762 0.128 0.605 0.29 1.189 0.515 1.801 0.236 0.64 0.541 1.218 0.909 1.753l-0.054-0.091c0.145 0.289 0.306 0.545 0.417 0.738 0.143 0.25 0.329 0.505 0.558 0.74 0.35 0.415 0.777 0.812 1.342 1.252l0.022 0.018 0.024 0.015c0.124 0.083 0.126 0.085 0.097 0.057l0.162 0.164 0.226 0.045c0.081 0.016 0.212-0.017 0.321-0.021 0.056 0.203 0.141 0.41 0.234 0.487 0.121 0.1 0.208 0.134 0.287 0.165l-0.14-0.073c0.318 0.212 0.668 0.4 1.003 0.583l0.002 0.002h0.002c0.842 0.453 1.704 0.786 2.628 0.985 0.915 0.228 1.83 0.326 2.762 0.326 0.517 0 1.040-0.025 1.519-0.144 0.557-0.088 1.087-0.182 1.612-0.344 0.538-0.136 1.065-0.332 1.537-0.568 0.453-0.226 0.903-0.483 1.351-0.771l-0.17 0.082c0.316-0.105 0.517-0.424 0.564-0.509 0.019-0.021 0.028-0.123 0.051-0.153h0.18c0.101 0 0.178-0.035 0.262-0.061h0.144l0.204-0.153c0.187-0.14 0.3-0.259 0.414-0.35h0.002c0.174-0.139 0.326-0.298 0.469-0.469 0.709-0.681 1.297-1.428 1.807-2.256 0.531-0.863 0.919-1.807 1.208-2.771 0.199-0.663 0.301-1.27 0.335-1.817l0.002-0.024v-0.024c0-0.137 0.023-0.32 0.054-0.563 0.042-0.294 0.039-0.566 0.039-0.81 0-0.213 0.005-0.526-0.085-0.885l0.024 0.185c0-0.307-0.036-0.577-0.065-0.845l-0.006-0.042c-0.033-0.197-0.064-0.349-0.092-0.518-0.033-0.196-0.073-0.403-0.15-0.634l-0.021-0.063v-0.134l-0.14-0.14c-0.002-0.004-0.001-0.003-0.003-0.007l-0.022-0.045c0.838-0.296 1.627-0.689 2.318-1.192 0.743-0.54 1.35-1.185 1.875-1.906l0.003-0.002 0.002-0.003c0.505-0.707 0.906-1.511 1.174-2.382 0.266-0.866 0.4-1.764 0.4-2.662 0-0.268-0.019-0.389-0.007-0.472l0.016-0.116-0.019-0.116c-0.017-0.1-0.017-0.283-0.060-0.542-0.062-0.433-0.129-0.847-0.274-1.281l-0.003-0.010-0.004-0.009c-0.117-0.321-0.243-0.705-0.418-1.091l-0.003-0.007-0.003-0.006c-0.728-1.522-1.808-2.736-3.19-3.658l-0.018-0.012c-1.422-0.893-3.011-1.366-4.732-1.366zM18.369 1.176c-0.006 0.001-0.012 0.005-0.018 0.006-0.003 0.001-0.006 0.001-0.009 0.002l0.027-0.007zM20.393 1.936c-0.001 0-0.005 0.001-0.006 0.002-0.022 0.005-0.033 0-0.057 0.006l0.063-0.007zM19.631 1.951l0.095 0.006c-0.019-0.002-0.042 0.005-0.061 0.003-0.019-0.001-0.014-0.009-0.034-0.009zM21.36 3.509c0.2 0.052 0.42 0.119 0.668 0.232h0.002v0.002c0.855 0.386 1.544 0.892 2.107 1.563l0.022 0.025 0.022 0.024c0.152 0.152 0.247 0.348 0.36 0.528h-0.826v-0.031h-0.823v0.031c-0.040 0.003-0.074 0-0.115 0.004l0.083-0.004c-0.243 0-0.455-0.007-0.655-0.024-0.105-0.314-0.211-0.637-0.359-0.963l0.030 0.074c-0.135-0.406-0.288-0.742-0.396-1.036-0.039-0.116-0.081-0.272-0.122-0.426zM18.836 3.567c-0.084 0.28-0.163 0.572-0.259 0.842-0.168 0.477-0.337 0.975-0.49 1.503h-0.804v-0.030h-0.762c-0.305 0-0.583-0.001-0.838-0.027l-0.039-0.004h-0.024c0.016-0.029 0.026-0.056 0.043-0.086 0.124-0.223 0.238-0.379 0.384-0.552 0.38-0.377 0.755-0.675 1.171-0.952 0.405-0.27 0.807-0.47 1.295-0.598l0.024-0.006 0.024-0.007c0.075-0.025 0.182-0.054 0.274-0.082zM25.26 4.277l0.045 0.049c-0.009-0.011-0.022-0.019-0.031-0.030-0.005-0.005-0.008-0.014-0.013-0.019zM26.022 5.405l0.168 0.254c-0.037-0.092-0.108-0.137-0.15-0.223-0.013-0.014-0.003-0.017-0.018-0.031zM25.484 5.821c-0.019 0-0.094 0.025-0.119 0.022 0-0 0.001-0.001 0.002-0.002 0.091-0.028 0.121-0.021 0.118-0.021zM23.716 5.943l0.686 0.685-0.051 0.051-0.317-0.031c-0.091-0.009-0.218-0-0.318-0.009v-0.695zM27.534 6.399l0.012 0.034c-0.002-0.006-0.007-0.013-0.009-0.019-0.002-0.005-0.001-0.010-0.003-0.015zM18.229 6.644l0.283 0.054c-0.065-0.026-0.091-0.008-0.152-0.024-0.039-0.004-0.104-0.030-0.131-0.030zM23.99 6.705c-0.008 0-0.003-0.005 0.067 0.003 0.008 0.001 0.040 0.022 0.051 0.024-0.031-0.002-0.118-0.027-0.118-0.027zM23.99 6.796c0 0-0.084 0.025-0.113 0.027 0.010-0.001 0.039-0.022 0.046-0.022 0.069-0.008 0.075-0.004 0.067-0.004zM21.955 7.371c0.029 0.003 0.051 0 0.079 0.003 0.002 0 0.003 0.002 0.004 0.002l-0.083-0.004zM22.661 7.399c0.002 0 0.004 0 0.006 0l0.004 0.010c0 0-0.003 0.012-0.003 0.012-0.004-0.009-0.004-0.013-0.007-0.022zM23.289 7.406h0.021c-0.011 0.030-0.038 0.045-0.045 0.074l-0.004-0.004c0.001-0.009-0-0 0.002-0.015 0-0.001-0 0 0-0.002 0.001-0.008 0.025-0.042 0.027-0.054zM19.842 8.061c-0.135 0.027-0.099 0.046 0.277 0.046 0.122 0 0.195 0.025 0.094-0.009l0.118 0.039h0.123c-0.001 0 0.081 0.005 0.097 0.009 0.012 0.019 0.011 0.059 0.024 0.079 0.006 0.008 0.019 0.014 0.025 0.022 0.031 0.111 0.054 0.216 0.122 0.387 0.019 0.047 0.057 0.18 0.091 0.296-0.008 0.004-0.021 0.016-0.028 0.019l-0.043 0.021-0.039 0.027c-0.184 0.123-0.312 0.217-0.427 0.304-0.025 0.017-0.099 0.055-0.147 0.083-0.134-0.084-0.274-0.17-0.388-0.252-0.125-0.089-0.23-0.162-0.339-0.238 0.061-0.241 0.149-0.521 0.25-0.818 0.068-0.007 0.116 0 0.192-0.015zM12.388 8.195c-0.002 0.015 0.002 0.030 0 0.045-0.001 0.014-0.008 0.025-0.009 0.039l0.009-0.083zM25.347 8.311l0.019 0.045c0.045 0.102 0.055 0.207 0.028 0.504v0.010c-0.056 0.734-0.198 1.448-0.463 2.082-0.144 0.346-0.486 0.668-0.752 1.003-0.025-0.066-0.039-0.115-0.070-0.188l0.024 0.060c-0.122-0.366-0.249-0.744-0.409-1.159-0.12-0.313-0.219-0.609-0.32-0.911 0.399-0.299 0.797-0.598 1.168-0.871l0.019-0.013c0.267-0.184 0.506-0.374 0.754-0.563zM14.847 8.371c0.223 0.173 0.426 0.352 0.665 0.516 0.428 0.294 0.838 0.596 1.268 0.917-0.141 0.354-0.264 0.703-0.375 1.065-0.119 0.386-0.24 0.746-0.362 1.112l0.042-0.1c-0.041 0.083-0.047 0.15-0.073 0.229-0.035-0.039-0.102-0.106-0.116-0.129l-0.025-0.043-0.033-0.040c-0.205-0.256-0.347-0.498-0.436-0.722l-0.002-0.003-0.002-0.002c-0.252-0.616-0.419-1.232-0.5-1.775l-0.009-0.065-0.021-0.063c-0.021-0.063-0.022-0.094-0.022-0.277v-0.621zM11.311 8.472c-0.008 0 0.021-0.007 0.131 0.015 0.005 0.001 0.012 0.009 0.018 0.010-0.063-0.009-0.149-0.025-0.149-0.025zM21.53 8.805c0.001 0.004 0.009 0.006 0.010 0.010 0.016 0.037 0.011 0.048 0.031 0.089l-0.042-0.1zM13.393 9.622c0.004 0.027 0.019 0.059 0.024 0.086 0.005 0.016 0 0.025 0.006 0.042l-0.030-0.128zM11.021 9.915c0.001 0 0.002 0.001 0.003 0.002l-0.006 0.002c-0.001-0-0.001-0.001-0.002-0.002 0.002-0.001 0.003-0.001 0.004-0.002zM23.168 9.932l-0.002 0.003-0.366 0.152v-0.002c0.143-0.033 0.278-0.074 0.368-0.153zM11.046 9.935h0.012c0.020 0.008 0.039 0.026 0.058 0.031-0.011-0.003-0.017-0.001-0.027-0.004-0.014-0.005-0.028-0.021-0.043-0.027zM10.44 10.046c-0.090 0.295-0.185 0.592-0.262 0.881-0.141 0.45-0.287 0.899-0.412 1.388-0.191 0.573-0.344 1.119-0.515 1.603-0.178 0.505-0.361 1.029-0.519 1.594h-0.246l-0.021 0.002c-0.524 0.029-0.995 0.030-1.482 0.030-0.528-0.029-1.020-0.031-1.524-0.031h-2.557c0.164-0.347 0.306-0.716 0.521-1.013 0.001-0.001 0.001-0.002 0.002-0.003 0.271-0.362 0.531-0.703 0.801-1l0.010-0.012 0.010-0.013c0.291-0.35 0.563-0.646 0.878-0.908l0.027-0.022 0.024-0.024c0.489-0.489 1.033-0.872 1.655-1.211 0.638-0.348 1.263-0.631 1.945-0.859 0.002-0.001 0.003-0.001 0.004-0.002 0.308-0.093 0.578-0.183 0.862-0.268 0.247-0.074 0.513-0.121 0.756-0.121 0.013 0 0.030-0.010 0.043-0.010zM11.595 10.082c0.004 0.027 0.018 0.049 0.022 0.076 0.005 0.016 0.002 0.033 0.007 0.049l-0.030-0.125zM18.955 10.439l-0.003 0.012c0-0-0.003 0.003-0.003 0.003 0.002-0.008 0.004-0.006 0.006-0.015zM11.81 10.792c0.073 0.299 0.16 0.582 0.259 0.863-0.016 0.001-0.082-0.013-0.086-0.013h-0.231l-0.192 0.128c-0.042 0.028-0.046 0.115-0.088 0.156 0.059-0.191 0.107-0.369 0.171-0.574l0.004-0.015 0.004-0.016c0.044-0.164 0.106-0.354 0.158-0.528zM20.205 12.122c0.073 0.024 0.091 0.068 0.188 0.068-0.108 0-0.123-0.037-0.192-0.065 0.001-0.001 0.003-0.002 0.004-0.003zM20.129 12.179c0.468 0.293 0.907 0.584 1.314 0.875 0.204 0.145 0.436 0.322 0.652 0.485-0.097 0.036-0.218 0.086-0.302 0.107l-0.028 0.007-0.028 0.009c-0.226 0.075-0.438 0.122-0.688 0.147l-0.085 0.009-0.080 0.027c-0.293 0.098-0.462 0.113-0.643 0.113-0.7 0-1.287-0.262-1.896-0.475 0.596-0.446 1.194-0.896 1.784-1.305zM14.589 12.765c0.008 0.014 0.017 0.018 0.025 0.031 0.013 0.017 0.019 0.036 0.033 0.054l-0.058-0.085zM24.65 13.826l-0.039 0.037c0.008-0.007 0.010-0.017 0.018-0.024 0.005-0.004 0.017-0.009 0.021-0.013zM25.238 14.518l-0.015 0.013c0.002-0.002 0.003-0.004 0.004-0.006 0.003-0.003 0.007-0.004 0.010-0.007zM14.948 14.543c0.384 0.35 0.825 0.658 1.302 0.939h-0.993l-0.045-0.089v-0.045l-0.046-0.127c-0.079-0.218-0.148-0.45-0.219-0.679zM11.961 14.643c0.087 0.291 0.175 0.579 0.263 0.869h-0.533c0.088-0.296 0.182-0.596 0.269-0.869zM22.219 15.107l-0.057 0.016c0.013-0.003 0.020-0.008 0.033-0.012 0.008-0.002 0.016-0.002 0.024-0.004zM19.698 15.415c0.184 0.013 0.355 0.067 0.543 0.067 0.069 0 0.177-0.038 0.253-0.043l0.351 0.287h-1.458l0.311-0.311zM8.729 15.515c-0.003 0.008 0.004-0.006 0.002 0.002-0.004 0.013-0.008 0.023-0.012 0.036l0.010-0.037zM13.884 16.222c0.004 0.007 0.004 0.021 0.007 0.028l-0.010-0.021c0-0.002 0.003-0.005 0.003-0.007zM13.881 16.232l0.103 0.257 0.112 0.11c0.030 0.030 0.107 0.143 0.35 0.265 0.135 0.067 0.254 0.113 0.491 0.125-0.14 0.030-0.255-0.011-0.415 0.17-0.081 0.092-0.086 0.206-0.121 0.32l0.071 0.094c-0.014-0.025-0.054-0.017-0.070-0.040-0.006-0.007-0.006-0.020-0.012-0.027-0.002 0.006-0.004 0.011-0.006 0.016-0.246-0.35-0.659-0.593-1.046-0.612l0.128-0.128c-0.041 0.041-0.118 0.064-0.189 0.1-0.009-0-0.032-0.001-0.042-0.002 0.191-0.049 0.408-0.098 0.528-0.266 0.112-0.157 0.105-0.267 0.118-0.382zM10.007 16.313c0.044 0.191 0.107 0.36 0.186 0.439 0.087 0.087 0.239 0.153 0.365 0.195l0.022-0.002c-0.003 0-0.008 0.003-0.012 0.003s-0.005-0-0.007 0c0.001 0 0.001 0.001 0.002 0.002-0.173 0.001-0.38 0.024-0.597 0.144-0.178 0.099-0.301 0.299-0.402 0.491l0.021-0.051c-0.042 0.042-0.050 0.075-0.080 0.122-0.009 0.021-0.036 0.032-0.043 0.054l0.185-0.298c-0.105 0.105-0.144 0.175-0.186 0.259-0.009 0.018-0.011 0.069-0.021 0.086-0.004 0.007-0.012 0.016-0.015 0.022-0.012-0.176-0.044-0.379-0.202-0.56-0.090-0.103-0.219-0.103-0.341-0.153-0.018-0.014-0.040-0.018-0.060-0.031h0.174c0.355 0 0.723-0.217 0.932-0.57 0.036-0.054 0.058-0.102 0.080-0.153zM18.338 16.339c0.001 0 0.003-0 0.004 0 0.003 0.001 0.005 0.002 0.007 0.003l-0.012-0.003zM19.141 16.897l0.046 0.004c-0.016-0.004-0.027 0-0.043-0.003-0.001-0-0.002-0.001-0.003-0.002zM22.909 16.899l-0.019 0.007c0.004-0.001 0.008-0.005 0.012-0.006 0.002-0.001 0.005-0.001 0.007-0.002zM2.768 17.036h1.707l-0.039 0.039c-0.057 0.036-0.152 0.037-0.196 0.082-0.131 0.131-0.243 0.311-0.243 0.58 0 0.010 0.016 0.108 0.030 0.19-0.417-0.298-0.838-0.598-1.259-0.891zM20.731 17.284c-0.295 0.207-0.591 0.418-0.887 0.629l0.002-0.174c0 0-0.007-0.154-0.043-0.262-0.016-0.047-0.064-0.097-0.092-0.147 0.091 0.005 0.152 0.010 0.257 0.010 0.186 0 0.404-0.005 0.638-0.034 0.042-0 0.083-0.021 0.125-0.022zM14.356 18.030c0.007 0.027 0.018 0.046 0.025 0.073 0.001 0.002 0.001 0.007 0.002 0.009l-0.027-0.082zM21.903 18.318c0.017 0.092 0.035 0.189 0.051 0.28 0.030 0.272 0.055 0.486 0.055 0.662v0.094l0.022 0.092c0.032 0.128 0.039 0.301 0.039 0.515 0 0.244-0.005 0.461-0.024 0.594v0.006l-0.002 0.007c-0.029 0.236-0.067 0.479-0.067 0.765l0.002-0.048c-0.027 0.429-0.107 0.919-0.274 1.475-0.26 0.865-0.602 1.687-1.046 2.409-0.459 0.746-0.965 1.391-1.585 1.982l-0.036 0.036-0.031 0.037c-0.042-0.135-0.096-0.286-0.129-0.408l-0.004-0.015c-0.103-0.407-0.232-0.758-0.348-1.107l-0.004-0.016-0.006-0.015c-0.244-0.64-0.484-1.271-0.69-1.89-0.208-0.625-0.415-1.277-0.592-1.894-0.007-0.028-0.029-0.111-0.039-0.153 0.841-0.617 1.681-1.234 2.522-1.851 0.726-0.532 1.456-1.044 2.188-1.557zM12.012 18.347c0.213 0 0.39 0.002 0.533 0.022l0.054 0.007h0.054c0.119 0 0.319 0.020 0.54 0.027l0.007 0.013 0.024 0.024c0.027 0.060 0.045 0.19 0.058 0.216l-0.042-0.1c0.126 0.378 0.243 0.703 0.323 0.997l0.006 0.018c0.101 0.336 0.226 0.681 0.348 1.016l0.016 0.042 0.004 0.009-0.004-0.037c0 0.028 0.034 0.062 0.036 0.092-0.005 0.004-0.010 0.007-0.015 0.010-0.016-0.024-0.035-0.063 0.002 0.083l-0.009-0.079c-0.244 0.172-0.492 0.35-0.728 0.5l-0.021 0.013-0.018 0.013c-0.353 0.257-0.671 0.511-1.010 0.789l-0.030 0.024-0.027 0.027c0.029-0.029 0.077-0.051 0.016-0.021-0.029 0.015-0.118 0.087-0.183 0.128-0.004-0.002 0.018-0.002 0.010-0.006l0.198 0.143c-0.043-0.043-0.136-0.088-0.211-0.135-0-0-0.001 0-0.002 0-0.005 0.003-0.008 0.007-0.013 0.010-0.001-0.001-0.002-0.001-0.003-0.002 0.003-0.001 0.020-0.006 0.016-0.009-0.057-0.036-0.089-0.079-0.161-0.103-0.003-0.001-0.003-0-0.006-0.002-0.573-0.444-1.176-0.88-1.78-1.315 0.114-0.352 0.222-0.708 0.327-1.003 0.158-0.442 0.274-0.841 0.432-1.241l0.064-0.064c0.13-0.010 0.273-0.018 0.463-0.018 0.434 0 0.626-0.091 0.731-0.091zM2.024 18.375c0.691 0.483 1.373 0.965 2.074 1.473l-0.009-0.009c0.86 0.645 1.751 1.291 2.644 1.908l-0.106-0.088c0.022 0.022 0.088 0.062 0.128 0.097-0.039 0.107-0.070 0.177-0.109 0.313-0.061 0.213-0.114 0.402-0.193 0.613l-0.007 0.016-0.004 0.018c-0.273 0.848-0.547 1.668-0.821 2.491-0.236 0.709-0.473 1.419-0.71 2.128-0.262-0.229-0.56-0.471-0.725-0.668l-0.022-0.027-0.024-0.024c-0.123-0.123-0.24-0.284-0.335-0.449-0.134-0.234-0.277-0.465-0.377-0.664l-0.024-0.048-0.030-0.043c-0.302-0.44-0.544-0.898-0.735-1.417-0.2-0.543-0.341-1.051-0.457-1.6l-0.003-0.015-0.004-0.013c-0.046-0.186-0.074-0.4-0.106-0.623-0.041-0.284-0.099-0.484-0.121-0.658l-0.009-0.074-0.024-0.071c0.003 0.010-0.022-0.186-0.022-0.43v-0.083l-0.018-0.082c-0.038-0.169-0.043-0.383-0.043-0.627 0-0.091 0.006-0.146 0.007-0.152 0.059-0.238 0.054-0.428 0.054-0.58l-0.002 0.040c0.013-0.245 0.091-0.434 0.131-0.652zM6.807 18.377h0.955c-0.034 0.113-0.061 0.223-0.1 0.339l-0.006 0.019-0.006 0.021c-0.016 0.059-0.043 0.119-0.061 0.179-0.256-0.184-0.508-0.362-0.783-0.558zM16.083 18.377h0.89c-0.243 0.177-0.48 0.34-0.716 0.504-0.040-0.113-0.076-0.226-0.116-0.338-0.023-0.064-0.036-0.107-0.058-0.167zM8.244 19.417c0.020 0.015 0.056 0.022 0.071 0.037l0.007 0.019c-0.027-0.028-0.051-0.034-0.079-0.057zM15.426 20.388c0.037 0.050 0.052 0.098 0.1 0.14-0.006-0.003-0.011-0.003-0.016-0.006l-0.065-0.065-0.010-0.040c-0.001-0.002-0.007-0.026-0.007-0.028zM8.452 20.583l-0.010 0.028-0.010 0.054c-0.058 0.29 0.006 0.612 0.24 0.912h-0.363c-0.003-0.114 0.030-0.226-0.007-0.323-0.075-0.196-0.184-0.324-0.29-0.43-0.016-0.016-0.068-0.046-0.094-0.070-0.018 0.002 0.005 0-0.018 0 0.003 0 0.006-0.001 0.009-0.002 0.001-0 0.005 0 0.006 0-0-0-0.001-0.001-0.002-0.002 0.153-0.003 0.323-0.056 0.403-0.097 0.083-0.042 0.091-0.049 0.076-0.042l0.061-0.030zM15.548 20.632h0.052c0.045 0.027 0.028 0.096 0.080 0.113 0.172 0.057 0.267-0.060 0.412-0.103-0.007 0.005-0.013 0.010-0.019 0.015l-0.048 0.034-0.25 0.252-0.055 0.11c-0.015 0.030-0.060 0.101-0.097 0.247-0.015 0.058 0.025 0.162 0.025 0.246h-0.333l0.036-0.036 0.055-0.11c0.030-0.061 0.141-0.209 0.141-0.524v-0.244zM14.027 20.847c0.037 0.195 0.052 0.4 0.22 0.568l-0.223-0.539c0-0.036 0-0.005 0.003-0.030zM6.921 21.881c0.024 0.015 0.032 0.031 0.057 0.043-0.030-0.015-0.106-0.082-0.045-0.021 0.003 0.003-0.011-0.022-0.012-0.022zM11.923 22.193l0.004 0.002c-0.066 0.043-0.108 0.053-0.179 0.123l0.116-0.095c0.048-0.032 0.044-0.028 0.058-0.030zM13.323 23.223c0.236 0 0.38 0.11 0.421 0.143 0.001 0 0.004 0.010 0.004 0.010-0.094-0.065-0.208-0.153-0.426-0.153zM14.82 23.504c0.114 0.294 0.224 0.589 0.324 0.878-0.259-0.185-0.511-0.373-0.763-0.561 0.065-0.046 0.158-0.108 0.217-0.147 0.078-0.052 0.145-0.115 0.222-0.17zM9.071 23.515c0.071 0.049 0.136 0.091 0.213 0.146 0.104 0.075 0.186 0.127 0.278 0.19-0.27 0.209-0.544 0.427-0.814 0.629 0.007-0.019 0.014-0.040 0.021-0.060 0.112-0.317 0.205-0.606 0.302-0.906zM12.51 23.551c-0.047 0.094-0.118 0.11-0.118 0.266 0 0.186 0.078 0.217 0.138 0.317-0.007-0.004-0.037-0.022-0.036-0.021l0.042 0.034c0.005 0.009 0.008 0.020 0.013 0.028-0.116-0.103-0.252-0.203-0.451-0.24-0.226-0.041-0.501 0.018-0.693 0.146-0.002 0.001-0.002 0.002-0.004 0.003 0.036-0.092 0.107-0.139 0.107-0.253 0-0.12-0.074-0.169-0.113-0.265 0.348 0.141 0.748 0.145 1.115-0.016zM11.917 25.573c0.858 0.621 1.717 1.243 2.548 1.836 0.679 0.485 1.399 1.007 2.101 1.513-0.188 0.107-0.378 0.229-0.565 0.323-0.375 0.187-0.817 0.354-1.247 0.461l-0.021 0.004-0.021 0.007c-0.424 0.132-0.905 0.219-1.476 0.31l-0.034 0.006-0.033 0.007c-0.25 0.062-0.7 0.1-1.156 0.1-0.831 0-1.618-0.086-2.405-0.283l-0.013-0.003-0.012-0.003c-0.777-0.167-1.496-0.441-2.234-0.838l-0.003-0.002c-0.024-0.013-0.040-0.024-0.064-0.037 0.181-0.137 0.359-0.276 0.548-0.414 0.335-0.244 0.661-0.48 1.010-0.713l0.016-0.012 0.018-0.013c0.475-0.357 0.997-0.723 1.53-1.131l-0.018 0.012c0.554-0.4 1.045-0.768 1.531-1.132zM15.735 26.015c0.018 0.081 0.014 0.138 0.045 0.199l-0.046-0.195c0-0.001 0.001-0.003 0.002-0.004zM17.137 26.356c0.099 0.294 0.197 0.57 0.262 0.83l0.002 0.009 0.003 0.007c0.052 0.19 0.118 0.383 0.18 0.576-0.398-0.287-0.8-0.576-1.207-0.871 0.215-0.002 0.507-0.11 0.674-0.31 0.071-0.086 0.055-0.158 0.086-0.243zM6.731 26.696h0.304c0.001 0.001 0.002 0.001 0.003 0.002 0.006 0.005 0.004 0.011 0.010 0.016s0.013 0.002 0.019 0.006c0.056 0.046 0.114 0.097 0.162 0.121 0.101 0.050 0.198 0.057 0.298 0.070-0.199 0.14-0.407 0.283-0.595 0.42-0.178 0.129-0.366 0.28-0.551 0.418 0.117-0.351 0.233-0.701 0.35-1.052zM6.051 28.683l-0.048 0.082c0.021-0.031 0.007-0.031 0.024-0.060 0.004-0.008 0.020-0.014 0.024-0.022z"></path>
</svg>
