<!-- Generated by IcoMoon.io -->
<svg version="1.1" xmlns="http://www.w3.org/2000/svg" width="29" height="32" viewBox="0 0 29 32">
<title>arcane_x2_inverted</title>
<path d="M1.071 19.718c0-0.091 0-0.213 0.030-0.335s0.030-0.244 0.030-0.396c0.030-0.579 0.122-1.128 0.335-1.646 0-0.030 0-0.030 0.030-0.030s0.030 0 0.030-0.030c0.061-0.061 0.122-0.061 0.183-0.061 0.061 0.061 0.122 0.091 0.213 0.152 0.884 0.61 1.737 1.219 2.621 1.859 0.853 0.64 1.737 1.28 2.621 1.89 0.061 0.061 0.091 0.091 0.152 0.122s0.091 0.061 0.152 0.122c0.122 0.122 0.152 0.213 0.122 0.305-0.061 0.183-0.152 0.396-0.213 0.61s-0.122 0.427-0.213 0.67c-0.274 0.853-0.549 1.676-0.823 2.499s-0.549 1.646-0.823 2.469c-0.061 0.183-0.091 0.335-0.152 0.427-0.061 0.122-0.152 0.152-0.305 0.122-0.061-0.061-0.122-0.091-0.213-0.152-0.549-0.427-0.945-0.792-1.25-1.158-0.183-0.183-0.335-0.396-0.457-0.61s-0.274-0.457-0.396-0.701c-0.335-0.488-0.61-1.006-0.823-1.585s-0.366-1.128-0.488-1.707c-0.061-0.244-0.091-0.488-0.122-0.701s-0.091-0.427-0.122-0.67c-0.061-0.183-0.061-0.427-0.061-0.67-0.061-0.274-0.061-0.549-0.061-0.792zM5.46 16.274h-3.505c-0.122 0-0.152-0.061-0.122-0.213 0-0.061 0-0.122 0.030-0.183 0.244-0.67 0.549-1.28 0.945-1.829 0.274-0.366 0.549-0.731 0.853-1.067 0.305-0.366 0.61-0.701 0.975-1.006 0.549-0.549 1.158-0.975 1.829-1.341s1.341-0.67 2.072-0.914c0.305-0.091 0.579-0.183 0.884-0.274s0.64-0.152 0.975-0.152c0.183 0 0.366-0.030 0.549-0.122h0.305c0.030 0.061 0.031 0.061 0.061 0.061 0 0 0.030 0 0.061 0.030s0.030 0.091 0.030 0.183c0 0.061-0.030 0.152-0.061 0.244-0.152 0.488-0.305 0.975-0.427 1.432-0.152 0.488-0.305 0.945-0.427 1.432-0.183 0.549-0.335 1.097-0.518 1.615s-0.366 1.036-0.518 1.585c-0.061 0.183-0.091 0.274-0.152 0.335-0.061 0.122-0.183 0.183-0.305 0.183h-0.488c-0.549 0.030-1.036 0.030-1.524 0.030-0.518-0.030-1.006-0.030-1.524-0.030zM6.77 17.615h1.524c0.061 0 0.091 0 0.122 0.030s0.091 0.030 0.122 0.030 0.152 0.061 0.152 0.183v0.061c-0.091 0.335-0.183 0.67-0.305 1.036-0.091 0.335-0.213 0.67-0.335 0.975-0.061 0.030-0.091 0.061-0.152 0.061s-0.091 0.030-0.122 0c0-0.030-0.030-0.030-0.061-0.030-0.488-0.335-0.975-0.701-1.493-1.067-0.488-0.366-0.975-0.731-1.432-1.097-0.030 0-0.030-0.030-0.030-0.061s0.030-0.061 0.061-0.061c0.061 0 0.091 0 0.122-0.030 0.030 0 0.061-0.030 0.122-0.030h0.488zM12.012 30.903c-0.884 0-1.737-0.091-2.59-0.305-0.853-0.183-1.646-0.488-2.438-0.914-0.335-0.183-0.67-0.366-0.945-0.549-0.152-0.061-0.152-0.122 0-0.213l0.335-0.213c0.335-0.274 0.67-0.518 1.006-0.762s0.67-0.488 1.036-0.731c0.488-0.366 1.006-0.731 1.524-1.128 0.549-0.396 1.036-0.762 1.524-1.128 0.061-0.061 0.091-0.091 0.152-0.122s0.122-0.061 0.213-0.122c0.091-0.061 0.183-0.030 0.244 0.030 0.091 0.061 0.183 0.091 0.213 0.152 0.884 0.64 1.768 1.28 2.621 1.89s1.768 1.28 2.621 1.89c0.091 0.061 0.183 0.152 0.244 0.244 0.061 0 0.061 0.030 0 0.122-0.030 0.061-0.061 0.122-0.152 0.152-0.427 0.274-0.853 0.518-1.28 0.731s-0.914 0.396-1.402 0.518c-0.488 0.152-1.006 0.244-1.585 0.335-0.366 0.091-0.853 0.122-1.341 0.122zM7.471 25.935c0-0.061 0.030-0.152 0.061-0.244 0.183-0.488 0.335-1.006 0.518-1.524s0.335-1.036 0.518-1.554c0.030-0.030 0.061-0.122 0.122-0.244 0.030 0 0.061 0 0.061-0.030h0.030c0.061 0.061 0.183 0.183 0.366 0.305s0.366 0.244 0.579 0.396c0.213 0.152 0.396 0.274 0.579 0.396s0.305 0.213 0.396 0.305c0.061 0.061 0.061 0.122 0 0.183l-0.030 0.030c-0.518 0.427-1.006 0.792-1.493 1.158s-1.006 0.701-1.524 1.067c-0.061 0-0.122-0.030-0.122-0.061-0.030 0-0.030-0.030-0.030-0.061v-0.122zM12.012 17.585c0.213 0 0.427 0 0.64 0.030 0.213 0 0.427 0.030 0.64 0.030s0.396 0.091 0.518 0.305c0.061 0.061 0.091 0.122 0.091 0.183s0.030 0.122 0.061 0.183c0.122 0.366 0.244 0.701 0.335 1.036 0.091 0.305 0.213 0.64 0.335 0.975 0.030 0.061 0.030 0.152 0.061 0.274 0 0.122 0.030 0.213 0.091 0.274 0 0.061-0.030 0.122-0.061 0.183l-0.122 0.122c-0.305 0.213-0.64 0.457-0.975 0.67-0.335 0.244-0.64 0.488-0.975 0.762-0.061 0.061-0.122 0.091-0.183 0.122s-0.122 0.061-0.183 0.122c-0.183 0.122-0.427 0.122-0.67 0-0.061-0.061-0.091-0.061-0.152-0.061-0.701-0.549-1.463-1.097-2.225-1.646-0.061-0.061-0.091-0.183-0.061-0.335 0.152-0.427 0.274-0.884 0.427-1.31s0.274-0.853 0.457-1.31c0.030-0.061 0.030-0.091 0.061-0.122 0-0.030 0.030-0.091 0.061-0.122 0.061-0.183 0.213-0.244 0.396-0.244 0.213-0.030 0.457-0.030 0.701-0.030s0.457-0.091 0.731-0.091zM11.982 16.274h-0.579c-0.183 0-0.366 0-0.549-0.030-0.061 0-0.091 0-0.122-0.030s-0.030-0.061 0-0.061c0-0.091-0-0.183 0.030-0.213 0.183-0.549 0.335-1.128 0.518-1.676s0.366-1.097 0.579-1.676c0-0.061 0.030-0.122 0.122-0.183 0.030 0 0.061 0 0.061 0.030 0.061 0.091 0.091 0.183 0.122 0.244 0.183 0.549 0.335 1.097 0.488 1.615s0.335 1.067 0.488 1.615c0.030 0.030 0.030 0.061 0.030 0.152s-0.031 0.152-0.122 0.152c-0.061 0-0.091 0-0.122 0.030-0.030 0-0.091 0.030-0.122 0.030zM28.043 8.686c0 0.823-0.122 1.646-0.366 2.438s-0.61 1.524-1.067 2.164c-0.488 0.67-1.036 1.25-1.707 1.737s-1.432 0.884-2.255 1.158c-0.67 0.244-1.371 0.366-2.072 0.366-0.183 0.030-0.396 0.030-0.61 0.030s-0.457-0.030-0.701-0.030c-0.183-0.030-0.366-0.061-0.518-0.091s-0.335-0.061-0.488-0.091c-0.122-0.061-0.244-0.091-0.335-0.091s-0.183-0.030-0.305-0.030h-2.621c-0.061 0-0.152-0.030-0.213-0.061s-0.122-0.091-0.152-0.122l-0.061-0.152c-0.030-0.061-0.061-0.152-0.061-0.213-0.030-0.061-0.061-0.152-0.061-0.213-0.122-0.335-0.213-0.67-0.305-0.945-0.091-0.305-0.183-0.579-0.274-0.884-0.061-0.091-0.091-0.183-0.122-0.274s-0.091-0.183-0.213-0.274c-0.091-0.183-0.183-0.366-0.274-0.488s-0.152-0.274-0.244-0.427c-0.305-0.67-0.549-1.432-0.67-2.225-0.061-0.183-0.091-0.427-0.091-0.67s-0.031-0.457-0.031-0.67c0.030-0.914 0.183-1.737 0.427-2.53 0.274-0.792 0.67-1.524 1.25-2.225 0.945-1.28 2.225-2.194 3.84-2.743 0.366-0.122 0.731-0.213 1.128-0.274s0.792-0.091 1.219-0.091c1.585 0 3.017 0.427 4.328 1.25 1.28 0.853 2.255 1.95 2.926 3.352 0.152 0.335 0.274 0.701 0.396 1.036 0.122 0.366 0.183 0.731 0.244 1.158 0.030 0.183 0.030 0.366 0.061 0.549-0.030 0.213 0 0.396 0 0.579zM20.119 15.726v0.030c0.152-0.030 0.305-0.030 0.427-0.030s0.305 0 0.488-0.030c0.396-0.061 0.67-0.091 0.884-0.152 1.036-0.305 1.981-0.823 2.804-1.585 0.731-0.64 1.31-1.402 1.768-2.316 0.427-0.914 0.671-1.859 0.671-2.834v-0.427c0-0.579-0.122-1.158-0.335-1.707-0.183-0.549-0.427-1.128-0.762-1.676s-0.762-1.067-1.28-1.524-1.128-0.823-1.798-1.158c-0.67-0.335-1.463-0.518-2.286-0.579-0.731-0.061-1.463 0-2.164 0.183-1.371 0.305-2.529 0.975-3.505 2.011-1.158 1.25-1.798 2.712-1.89 4.389-0.061 0.366-0.061 0.731 0 1.128s0.122 0.762 0.213 1.128c0.244 0.823 0.67 1.676 1.25 2.499 0.61 0.853 1.432 1.524 2.529 2.072 0.457 0.183 0.914 0.335 1.402 0.457 0.457 0.122 0.945 0.152 1.463 0.152h0.122zM15.121 22.309h0.061c0 0.030-0 0.030 0.030 0.030 0 0 0.031 0.030 0.031 0.061 0.091 0.244 0.152 0.427 0.183 0.549 0.183 0.457 0.366 0.945 0.518 1.402 0.152 0.488 0.305 0.945 0.488 1.371 0 0.061 0 0.091 0.030 0.152 0 0.061 0.030 0.091 0.030 0.152s-0.031 0.122-0.122 0.122h-0.030v-0.061c-0.122-0.030-0.213-0.091-0.305-0.183-0.457-0.305-0.914-0.579-1.31-0.884-0.427-0.305-0.853-0.61-1.28-0.945-0.061-0.061-0.091-0.091-0.122-0.091s-0.061-0.030-0.122-0.091-0.061-0.091 0-0.152l0.122-0.122c0.305-0.183 0.579-0.396 0.853-0.579s0.549-0.396 0.792-0.61c-0.030-0.030 0.030-0.091 0.152-0.122zM14.085 8.472v-0.213c0-0.091 0-0.183 0.031-0.274 0-0.122 0-0.244 0.030-0.396s0.061-0.274 0.122-0.427c0.061-0.091 0.122-0.122 0.183-0.030 0.030 0 0.061 0 0.061 0.030 0.030 0 0.061 0.030 0.061 0.030 0.427 0.366 0.884 0.731 1.371 1.067s0.945 0.67 1.432 1.036c0.061 0.061 0.091 0.091 0.122 0.122l0.061 0.061c0 0 0.031 0.061 0.031 0.152s-0.030 0.183-0.061 0.335c-0.152 0.366-0.274 0.731-0.396 1.128s-0.244 0.762-0.366 1.128c-0.061 0.122-0.091 0.244-0.122 0.396s-0.091 0.305-0.122 0.488c-0.061 0.091-0.091 0.183-0.152 0.244 0 0.061-0.030 0.061-0.122 0-0.061-0.030-0.091-0.030-0.122-0.061-0.030 0-0.091-0.030-0.122-0.061-0.122-0.152-0.244-0.274-0.396-0.427s-0.274-0.274-0.366-0.427c-0.244-0.305-0.427-0.61-0.549-0.914-0.274-0.67-0.457-1.341-0.549-1.95-0.061-0.183-0.061-0.335-0.061-0.518zM16.523 6.644c-0.305 0-0.61 0-0.914-0.030-0.305 0-0.609-0.030-0.914-0.030-0.091 0-0.152-0.061-0.152-0.183 0-0.061-0-0.061 0.030-0.061 0-0.061 0-0.122 0.031-0.152 0.122-0.274 0.244-0.518 0.396-0.792s0.305-0.488 0.488-0.701c0.427-0.427 0.853-0.762 1.31-1.067s0.945-0.549 1.524-0.701c0.183-0.061 0.396-0.122 0.61-0.183s0.457-0.061 0.701-0.030c0.061 0 0.122 0.030 0.183 0.061v0.244c0 0.030-0 0.061-0.031 0.061-0.152 0.549-0.305 1.067-0.488 1.585s-0.366 1.036-0.518 1.585c-0.030 0.061-0.030 0.091-0.061 0.122 0 0.030-0.031 0.091-0.061 0.122-0.061 0.061-0.122 0.122-0.183 0.122s-0.091 0-0.152 0.030c-0.061 0-0.122 0.030-0.152 0.030h-1.646zM17.285 17.615c0.274 0 0.549 0 0.853-0.030 0.305 0 0.609 0 0.884 0.061 0.030 0 0.031 0 0.031 0.030 0.030 0.030 0.030 0.061 0.030 0.061l-0.030 0.030c-0.061 0.061-0.122 0.122-0.183 0.152-0.427 0.305-0.853 0.64-1.31 0.975s-0.884 0.64-1.341 0.945c-0.061 0.061-0.122 0.091-0.213 0.152-0.061 0.061-0.122 0.030-0.122-0.030-0.031-0.061-0.031-0.091-0.061-0.091 0 0-0.030-0.030-0.061-0.091-0.091-0.305-0.213-0.64-0.335-0.975s-0.244-0.64-0.335-0.975c-0.061-0.152-0-0.213 0.183-0.213h0.305zM17.346 7.375c0.122 0 0.274 0 0.427-0.030 0.152 0 0.305 0 0.457 0.061 0.061 0 0.061 0.030 0.061 0.122v0.061c-0.061 0.183-0.091 0.335-0.152 0.488s-0.122 0.335-0.183 0.488c-0.030 0.030-0.061 0.030-0.122 0.030h-0.061c-0.518-0.305-1.006-0.67-1.493-1.036-0.061-0.030-0.061-0.061 0-0.122v-0.030h0.030c0.061-0.030 0.091-0.030 0.152-0.030zM22.831 19.962c0 0.244 0 0.488-0.030 0.701-0.030 0.244-0.061 0.457-0.061 0.67-0.030 0.488-0.122 1.036-0.305 1.646-0.274 0.914-0.64 1.798-1.128 2.59s-1.036 1.493-1.707 2.133c-0.122 0.152-0.244 0.274-0.396 0.396s-0.274 0.244-0.396 0.335c-0.030 0-0.030 0-0.061 0.030 0 0-0.031 0.030-0.091 0.030-0.030-0.030-0.030-0.030-0.030-0.061 0 0-0-0.030-0.031-0.061-0.030-0.061-0.030-0.091-0.061-0.152s-0.030-0.091-0.061-0.152c-0.122-0.366-0.244-0.731-0.335-1.067-0.091-0.366-0.213-0.701-0.335-1.067-0.244-0.64-0.488-1.28-0.701-1.92s-0.427-1.31-0.61-1.95c-0.030-0.122-0.061-0.274-0.122-0.488-0.030-0.061 0-0.122 0.031-0.183l0.122-0.122c0.914-0.67 1.829-1.341 2.743-2.011s1.829-1.31 2.743-1.95c0.061-0.030 0.091-0.030 0.091-0.061s0.030-0.030 0.091-0.061c0.061-0.061 0.122-0.030 0.183 0.030 0.030 0.061 0.030 0.091 0.061 0.122 0 0.030 0.030 0.091 0.061 0.122 0.061 0.183 0.091 0.335 0.122 0.518s0.061 0.335 0.091 0.518c0.030 0.274 0.061 0.518 0.061 0.762 0.061 0.244 0.061 0.488 0.061 0.701zM20.241 14.72c-1.158 0-2.194-0.274-3.17-0.792-0.061-0.030-0.091-0.030-0.091-0.061 0 0-0.030-0.030-0.091-0.061-0.061-0.061-0.061-0.122 0-0.183 0.030 0 0.030 0 0.030-0.030 0 0 0-0.030 0.030-0.030 1.006-0.792 1.981-1.493 2.956-2.164 0.030-0.030 0.031-0.030 0.061-0.030 0 0 0.031 0 0.061-0.030 0.061 0 0.091 0 0.122-0.030s0.061 0 0.122 0.030c0.061 0.061 0.091 0.091 0.122 0.091s0.061 0.030 0.122 0.091c0.488 0.305 0.945 0.61 1.371 0.914s0.853 0.64 1.31 0.975c0.061 0.030 0.091 0.061 0.122 0.061 0.030 0.030 0.061 0.061 0.122 0.061 0.061 0.061 0.061 0.152 0 0.213-0.274 0.183-0.518 0.305-0.762 0.396s-0.457 0.183-0.701 0.244c-0.274 0.091-0.549 0.152-0.853 0.183-0.366 0.122-0.64 0.152-0.884 0.152zM17.986 11.002c0.061-0.122 0.091-0.244 0.122-0.396s0.091-0.274 0.122-0.396c0.061-0.183 0.122-0.213 0.244-0.122 0.122 0.061 0.244 0.152 0.335 0.213s0.183 0.152 0.305 0.213c0.061 0.061 0.091 0.091 0.152 0.091s0.091 0.030 0.152 0.091c0.061 0.030 0.061 0.091 0 0.183-0.061 0.030-0.091 0.061-0.152 0.061-0.061 0.030-0.091 0.061-0.152 0.061-0.213 0.183-0.427 0.366-0.64 0.518s-0.396 0.305-0.61 0.457c-0.061 0.122-0.122 0.122-0.122 0-0.030 0-0.030-0.030-0.030-0.061 0.061-0.244 0.152-0.549 0.274-0.914zM20.119 7.345c0.122 0 0.244 0 0.335 0.030 0.122 0 0.213 0.030 0.335 0.030 0.061 0 0.122 0.030 0.183 0.061l0.152 0.152c0.030 0.061 0.030 0.091 0.061 0.122 0 0.030 0.030 0.091 0.091 0.122 0.061 0.183 0.091 0.335 0.152 0.488s0.091 0.305 0.152 0.488c0.061 0.091 0.061 0.183 0.061 0.244 0.061 0.061 0.031 0.152-0.030 0.213-0.152 0.122-0.305 0.244-0.488 0.335-0.183 0.122-0.305 0.213-0.427 0.305-0.091 0.061-0.244 0.152-0.427 0.244-0.122 0.061-0.244 0.061-0.335 0-0.030 0-0.031 0-0.031-0.030-0.183-0.122-0.396-0.244-0.61-0.396s-0.396-0.274-0.609-0.427c-0.061-0.091-0.122-0.213-0.122-0.335 0-0.030-0-0.061 0.030-0.061 0.091-0.427 0.244-0.884 0.427-1.402 0.061-0.122 0.122-0.183 0.244-0.183 0.152 0 0.274 0 0.427-0.030s0.305 0.030 0.427 0.030zM20.089 6.613h-0.488c-0.061 0-0.122-0.061-0.122-0.152v-0.152c0.061-0.274 0.152-0.549 0.244-0.823l0.274-0.823c0.061-0.061 0.091-0.061 0.122-0.061 0.030-0.030 0.061 0 0.122 0.061v0.030c0.091 0.274 0.183 0.549 0.305 0.853 0.091 0.305 0.183 0.61 0.244 0.884 0 0.091-0.031 0.152-0.122 0.152h-0.579zM23.715 6.613c-0.305 0-0.579 0-0.853 0.030-0.274 0-0.549 0-0.823-0.030-0.244 0-0.396-0.122-0.488-0.335-0.122-0.366-0.244-0.731-0.396-1.067-0.122-0.366-0.274-0.701-0.396-1.036-0.061-0.183-0.122-0.396-0.183-0.64s-0.122-0.457-0.183-0.64c0-0.061 0-0.122 0.031-0.152h0.030c0.030 0 0.031 0 0.031-0.030s0-0.030 0.030-0.030c0.122-0.030 0.244-0.030 0.396-0.030 0.122 0 0.274 0.030 0.457 0.061 0.305 0.061 0.64 0.183 0.975 0.335 0.945 0.427 1.737 1.006 2.377 1.768 0.305 0.305 0.579 0.67 0.762 1.128 0.061 0.061 0.091 0.213 0.152 0.396s0.030 0.244-0.152 0.244c-0.091 0-0.183 0-0.244 0.030-0.061 0-0.183 0.030-0.305 0.030h-1.28v-0.030zM22.557 11.916c0 0.061 0 0.061-0.031 0.061 0 0.030-0.030 0.030-0.122 0.030-0.122-0.061-0.213-0.152-0.305-0.213s-0.183-0.152-0.305-0.213c-0.152-0.122-0.305-0.244-0.427-0.335s-0.305-0.213-0.488-0.335c-0.061-0.061-0.061-0.122 0-0.183 0.305-0.244 0.64-0.457 0.975-0.67 0.030-0.030 0.061 0 0.122 0.030 0.030 0.030 0.031 0.030 0.031 0.061s0 0.030 0.030 0.061l0.274 0.823c0.091 0.274 0.152 0.549 0.244 0.823zM21.948 7.65c-0.061-0.183-0-0.244 0.183-0.244 0.305 0 0.61 0 0.914-0.030s0.61 0 0.914 0.030v0.030c0 0.030-0 0.030 0.030 0.030 0 0 0.031 0 0.031 0.030v0.030c0 0.030-0 0.030-0.031 0.030 0 0-0.030 0-0.030 0.030-0.488 0.366-0.975 0.701-1.493 1.036-0.091 0.061-0.183 0.030-0.213-0.061-0.061-0.122-0.091-0.274-0.152-0.457s-0.091-0.335-0.152-0.457zM26.153 8.93c-0.061 0.792-0.213 1.585-0.518 2.316s-0.823 1.432-1.524 2.042c-0.061 0.061-0.091 0.061-0.152 0.061-0.030 0.030-0.061 0.030-0.091 0.030-0.030-0.030-0.030-0.061-0.030-0.122-0.061-0.213-0.152-0.427-0.213-0.61s-0.122-0.366-0.213-0.579c-0.122-0.366-0.244-0.731-0.396-1.128s-0.274-0.762-0.396-1.128c-0.061-0.091-0.061-0.183-0.061-0.213 0-0.061 0-0.091 0.030-0.122 0.030-0.061 0.061-0.091 0.061-0.091 0.030 0 0.061-0.030 0.061-0.061 0.488-0.366 0.975-0.731 1.432-1.067 0.488-0.335 0.945-0.701 1.432-1.067 0.031-0.030 0.091-0.061 0.183-0.122 0.061 0 0.091 0.030 0.122 0.061 0.061 0.061 0.061 0.122 0.061 0.213 0.061 0.244 0.091 0.488 0.122 0.701 0.122 0.274 0.122 0.549 0.091 0.884z"></path>
</svg>
