<!-- Generated by IcoMoon.io -->
<svg version="1.1" xmlns="http://www.w3.org/2000/svg" width="32" height="32" viewBox="0 0 32 32">
<title>arcane_inverted</title>
<path d="M0.837 15.264c0-0.416 0.032-0.8 0.064-1.184 0.064-0.384 0.128-0.768 0.192-1.152 0.064-0.192 0.096-0.384 0.128-0.512s0.096-0.288 0.128-0.416c0-0.032 0-0.064 0.032-0.064 0.032-0.032 0.032-0.064 0.032-0.128 0.032-0.032 0.064-0.032 0.16 0 0.064 0.032 0.096 0.064 0.16 0.064 0.064 0.032 0.096 0.064 0.16 0.064 0.384 0.256 0.768 0.544 1.12 0.832s0.704 0.576 1.024 0.832c0.928 0.672 1.824 1.312 2.752 1.952 0.896 0.64 1.824 1.28 2.72 1.984 0.128 0.064 0.192 0.128 0.224 0.192 0.064 0.064 0.064 0.096 0.032 0.128 0 0.096-0.032 0.224-0.064 0.384-0.512 1.536-0.992 3.040-1.472 4.48-0.48 1.472-0.96 2.944-1.44 4.48-0.032 0.032-0.032 0.064-0.032 0.064 0 0.032-0.032 0.064-0.064 0.064-0.064 0.064-0.128 0.096-0.224 0.064-0.16-0.064-0.288-0.128-0.448-0.224-0.128-0.096-0.288-0.224-0.416-0.352-0.192-0.192-0.352-0.352-0.544-0.512s-0.352-0.32-0.544-0.512c-0.256-0.288-0.48-0.576-0.672-0.896s-0.384-0.608-0.544-0.928c-0.288-0.448-0.544-0.896-0.8-1.408s-0.48-0.992-0.672-1.44c-0.192-0.64-0.384-1.28-0.512-1.888s-0.256-1.216-0.352-1.792c-0.032-0.416-0.064-0.8-0.128-1.12s-0.032-0.64 0-1.056zM6.853 10.656h-4.256c-0.064 0-0.16 0-0.256 0s-0.192 0-0.32-0.032c-0.064 0-0.096-0.032-0.128-0.128-0.032-0.064-0.032-0.128-0.032-0.192 0.032-0.064 0.032-0.096 0.032-0.128s0-0.096 0.032-0.128c0.224-0.544 0.512-1.152 0.832-1.792 0.192-0.32 0.416-0.64 0.64-0.96s0.448-0.64 0.672-0.992c0.96-1.088 1.984-2.048 3.104-2.816s2.368-1.408 3.776-1.888c0.384-0.128 0.768-0.256 1.184-0.352s0.832-0.192 1.312-0.256c0.256-0.064 0.512-0.096 0.768-0.128s0.576-0.032 0.928-0.032l0.128 0.128v0.32c-0.064 0.128-0.096 0.224-0.128 0.32s-0.064 0.192-0.064 0.32c-0.448 1.184-0.832 2.336-1.216 3.488s-0.768 2.336-1.184 3.52c-0.064 0.192-0.16 0.416-0.224 0.608s-0.128 0.416-0.192 0.608c-0.128 0.32-0.32 0.512-0.608 0.544h-0.576c-0.736 0-1.472 0-2.176 0s-1.376 0-2.048-0.032zM8.709 12.416h2.272c0.192 0 0.32 0 0.384 0.032 0.096 0 0.16 0.096 0.16 0.32-0.16 0.48-0.32 0.96-0.512 1.408s-0.384 0.96-0.576 1.504c0 0.064-0.032 0.096-0.064 0.128-0.064 0.032-0.096 0-0.16-0.032s-0.096-0.032-0.096-0.064c0 0-0.032-0.032-0.096-0.064-0.16-0.096-0.288-0.192-0.448-0.32-0.128-0.096-0.288-0.192-0.448-0.32-0.576-0.448-1.088-0.832-1.568-1.152s-0.992-0.672-1.504-1.024c-0.064-0.064-0.128-0.192-0.128-0.32v-0.064c0.064 0 0.096 0 0.128-0.032s0.064-0.032 0.128-0.032h2.528v0.032zM14.213 30.912l-0.128-0.128c-0.32-0.096-0.608-0.16-0.832-0.192-2.016-0.352-3.84-1.088-5.504-2.144l-0.128-0.128c-0.064-0.064-0.064-0.128 0-0.192 0.064-0.032 0.096-0.064 0.128-0.064 0.032-0.032 0.064-0.064 0.128-0.064 1.248-0.96 2.528-1.888 3.808-2.816s2.56-1.856 3.776-2.816c0.064-0.032 0.192-0.096 0.352-0.192h0.128c0.064 0.032 0.096 0.064 0.16 0.096s0.096 0.096 0.16 0.128c0.832 0.608 1.632 1.216 2.464 1.792s1.6 1.152 2.368 1.76c0.448 0.32 0.928 0.64 1.376 0.992s0.928 0.704 1.376 0.992c0.128 0.064 0.192 0.16 0.224 0.224s0.032 0.096 0 0.128c-0.064 0.032-0.128 0.096-0.224 0.192-0.576 0.416-1.184 0.768-1.76 1.024-0.576 0.288-1.216 0.512-1.92 0.704-0.448 0.16-0.96 0.288-1.6 0.384-0.16 0.032-0.288 0.064-0.448 0.064s-0.288 0.064-0.448 0.128c-0.032 0-0.032 0.032-0.064 0.064 0 0.032-0.032 0.064-0.064 0.064h-3.328zM14.181 21.024v0.128c-0.032 0.064-0.096 0.16-0.224 0.224-0.288 0.192-0.608 0.416-0.992 0.64s-0.704 0.448-0.992 0.704c-0.288 0.256-0.576 0.48-0.896 0.704s-0.64 0.416-0.96 0.64c-0.064 0.064-0.096 0.096-0.128 0.096s-0.096 0.032-0.128 0.064c-0.064 0.064-0.096 0.064-0.128 0-0.064 0-0.064-0.032-0.064-0.128 0-0.064 0.032-0.192 0.064-0.352 0.16-0.576 0.32-1.12 0.48-1.6s0.352-1.024 0.544-1.568c0.064-0.192 0.16-0.416 0.256-0.608s0.16-0.384 0.224-0.608c0.032-0.064 0.064-0.16 0.128-0.256s0.096-0.128 0.16-0.064c0.032 0.064 0.032 0.064 0.064 0.064s0.032 0 0.064 0.032c0.384 0.288 0.8 0.544 1.216 0.832 0.448 0.256 0.832 0.576 1.216 0.896 0.032 0 0.032 0.032 0.032 0.064 0.032 0.032 0.032 0.064 0.064 0.096zM15.717 12.352c0.352 0 0.736 0 1.088 0 0.384 0 0.704 0 0.992 0.032 0.288 0.064 0.48 0.256 0.576 0.608 0.032 0.032 0.032 0.032 0.032 0.064s0 0.032 0.032 0.064c0.032 0.064 0.064 0.16 0.064 0.224 0.032 0.064 0.064 0.16 0.064 0.256 0.128 0.32 0.288 0.704 0.448 1.088s0.288 0.736 0.416 1.088c0.064 0.192 0.096 0.352 0.16 0.544s0.128 0.416 0.16 0.704c0 0.096-0.032 0.16-0.064 0.192-0.096 0.096-0.192 0.16-0.224 0.192-0.16 0.128-0.352 0.256-0.544 0.352-0.224 0.096-0.416 0.224-0.544 0.352-0.192 0.16-0.416 0.32-0.64 0.48s-0.416 0.384-0.64 0.64c-0.192 0.064-0.352 0.096-0.448 0.16s-0.192 0.128-0.256 0.16c-0.192 0.16-0.384 0.192-0.576 0.16-0.064 0-0.16-0.032-0.256-0.064-0.064-0.064-0.128-0.096-0.192-0.128s-0.128-0.064-0.192-0.128c-0.544-0.416-1.024-0.768-1.504-1.12s-0.96-0.64-1.504-0.96l-0.064-0.064c-0.064-0.064-0.096-0.224-0.064-0.448 0.064-0.192 0.16-0.416 0.224-0.64s0.128-0.448 0.224-0.64c0.128-0.448 0.288-0.896 0.448-1.28 0.192-0.384 0.32-0.768 0.448-1.12l0.064-0.224c0.064-0.256 0.192-0.384 0.32-0.416 0.096-0.032 0.224-0.032 0.384-0.032 0.256-0.032 0.544-0.032 0.832-0.032 0.288-0.064 0.544-0.064 0.736-0.064zM15.813 10.56c-0.192-0.032-0.448-0.032-0.736 0s-0.576 0-0.832-0.032c-0.064 0-0.128-0.064-0.128-0.192 0-0.032 0-0.032 0.032-0.064s0.032-0.032 0.032-0.096c0.032-0.064 0.064-0.224 0.128-0.416 0.192-0.672 0.416-1.312 0.672-1.952s0.48-1.312 0.672-1.984c0.064-0.064 0.096-0.16 0.096-0.224s0.032-0.16 0.096-0.224c0-0.096 0.032-0.128 0.128-0.032 0.032 0 0.032 0 0.032 0.032s0 0.032 0.032 0.032c0.032 0.064 0.032 0.096 0.032 0.096s0 0.032 0.032 0.096c0.192 0.576 0.352 1.184 0.544 1.76s0.384 1.184 0.64 1.792c0.064 0.192 0.16 0.416 0.224 0.64s0.128 0.416 0.224 0.64c0 0.032 0 0.064-0.032 0.128s-0.064 0.064-0.064 0.064c-0.064 0-0.096 0-0.16 0.032-0.064 0-0.096 0.032-0.16 0.032h-1.504v-0.128zM24.965 10.656h-3.072c-0.192 0-0.448 0-0.704 0s-0.512 0-0.736-0.032c-0.064 0-0.16 0-0.224-0.032s-0.16-0.032-0.224-0.032c-0.128-0.064-0.224-0.128-0.32-0.224-0.064-0.032-0.128-0.064-0.16-0.16-0.064-0.096-0.096-0.192-0.096-0.288s-0.032-0.16-0.096-0.256c-0.352-0.96-0.672-1.888-0.96-2.816s-0.576-1.856-0.832-2.752c-0.128-0.448-0.288-0.896-0.512-1.376s-0.384-0.928-0.512-1.376c-0.032-0.064-0.032-0.096-0.032-0.128s0-0.096-0.032-0.16c0-0.096 0.032-0.16 0.128-0.16 0.032 0 0.032 0 0.032-0.032s0-0.032 0.032-0.032c0.352 0 0.672 0 0.928 0.032 0.256 0 0.544 0.032 0.8 0.096 0.704 0.096 1.344 0.256 1.952 0.448s1.184 0.416 1.792 0.704c2.048 1.024 3.776 2.304 5.184 3.872 0.32 0.352 0.64 0.736 0.896 1.12s0.544 0.768 0.8 1.152c0.192 0.352 0.352 0.704 0.48 1.024s0.288 0.64 0.416 0.96v0.224c0 0.032-0.032 0.096-0.064 0.192-0.064 0-0.128 0-0.192 0.032h-4.672zM22.085 24.192c-0.064 0.064-0.096 0.064-0.128 0.064-0.064 0-0.128-0.032-0.192-0.064-0.736-0.48-1.44-0.992-2.112-1.472-0.672-0.512-1.344-0.96-1.984-1.408l-0.064-0.16c-0.064-0.064-0.064-0.128 0-0.224 0.032-0.032 0.096-0.096 0.192-0.224 0.352-0.256 0.736-0.512 1.12-0.736 0.384-0.256 0.768-0.48 1.12-0.736 0.064-0.064 0.096-0.064 0.128-0.064 0.096-0.128 0.192-0.128 0.224 0.032 0.032 0.064 0.064 0.16 0.128 0.256 0.576 1.408 1.088 2.88 1.536 4.448 0.032 0.032 0.032 0.16 0.032 0.288zM23.109 12.416h2.56c0.096 0 0.16 0 0.192 0.032 0 0.032 0 0.032 0.032 0.032 0 0 0.032 0 0.032 0.032l-0.032 0.064c-0.064 0.128-0.096 0.224-0.16 0.288s-0.128 0.128-0.16 0.16c-0.672 0.384-1.312 0.768-1.888 1.184-0.608 0.416-1.184 0.864-1.792 1.344l-0.16 0.16c-0.192 0.064-0.288 0.032-0.352-0.128-0.192-0.512-0.384-0.992-0.544-1.472-0.16-0.448-0.32-0.896-0.48-1.344v-0.16c0-0.128 0.032-0.224 0.064-0.256 0.064-0.032 0.16-0.032 0.224-0.032s0.128 0.032 0.16 0.032h2.304v0.064zM30.981 15.808c-0.064 3.168-0.96 6.016-2.688 8.48-0.352 0.576-0.768 1.12-1.216 1.6s-0.928 0.928-1.408 1.376c-0.032 0.064-0.064 0.096-0.128 0.128s-0.096 0.064-0.16 0.128c-0.032 0.064-0.064 0.064-0.128 0.032s-0.096-0.064-0.128-0.064c-0.064-0.064-0.128-0.16-0.128-0.256-0.192-0.576-0.384-1.12-0.544-1.664s-0.352-1.088-0.512-1.632c-0.288-0.896-0.576-1.792-0.896-2.72s-0.608-1.824-0.896-2.72c-0.064-0.192-0.096-0.384-0.16-0.512 0-0.096 0.032-0.192 0.128-0.256 0.064-0.064 0.096-0.096 0.128-0.128s0.096-0.064 0.128-0.128c0.576-0.448 1.152-0.832 1.664-1.216s1.088-0.736 1.664-1.088c0.672-0.544 1.344-1.056 2.016-1.536s1.376-1.024 2.080-1.568c0.064-0.032 0.096-0.064 0.128-0.064 0.032-0.032 0.096-0.064 0.128-0.064 0.128-0.064 0.224-0.064 0.256 0.064 0.064 0.16 0.096 0.32 0.16 0.512s0.096 0.416 0.16 0.672c0.096 0.448 0.192 0.896 0.224 1.376 0.096 0.384 0.128 0.832 0.128 1.248z"></path>
</svg>
