<!-- Generated by IcoMoon.io -->
<svg version="1.1" xmlns="http://www.w3.org/2000/svg" width="32" height="32" viewBox="0 0 32 32">
<title>artificial_intelligence</title>
<path d="M27.271 28.394c-0.765-1.255-0.827-1.923-0.818-8.875 0.011-8.183 0.181-13.718 0.469-15.235 0.061-0.32 0.111-0.674 0.111-0.787 0-0.137 0.061-0.244 0.186-0.326 0.22-0.144 1.009-0.224 1.321-0.133l0.22 0.064 0.051 2.053c0.028 1.129 0.091 5.492 0.141 9.696 0.083 7.013 0.080 7.774-0.034 9.224-0.068 0.869-0.123 1.851-0.122 2.181 0.002 0.743-0.119 1.645-0.272 2.028-0.111 0.278-0.596 0.715-0.793 0.715-0.049 0-0.256-0.273-0.459-0.606zM10.276 28.265c-1.188-0.091-2.598-0.433-3.234-0.785-0.276-0.153-0.373-0.27-0.585-0.709-0.14-0.289-0.426-0.84-0.637-1.224s-0.547-1.161-0.748-1.727c-0.201-0.566-0.531-1.376-0.733-1.801-0.401-0.843-0.881-2.168-1.079-2.977-0.197-0.804-0.251-1.433-0.256-2.949l-0.005-1.406 0.243-0.468c0.245-0.471 0.553-1.007 1.010-1.754 0.28-0.458 1.311-1.809 1.867-2.446 0.204-0.234 0.734-0.695 1.179-1.024s0.959-0.726 1.144-0.88c0.185-0.154 0.363-0.28 0.397-0.28s0.323-0.168 0.643-0.373c0.32-0.205 0.901-0.506 1.293-0.669s0.795-0.355 0.896-0.427c0.314-0.223 0.735-0.294 1.765-0.296 1.393-0.003 2.727-0.119 3.355-0.291l0.536-0.147 0.551 0.548c0.305 0.303 0.574 0.639 0.602 0.753s0.115 0.292 0.193 0.398 0.203 0.487 0.276 0.845c0.349 1.697 0.441 2.092 0.622 2.673 0.479 1.537 0.719 2.446 0.845 3.197 0.075 0.445 0.205 1.222 0.29 1.727 0.206 1.224 0.313 6.198 0.145 6.707-0.056 0.171-0.351 0.648-0.654 1.061-0.582 0.791-1.25 1.795-1.25 1.878 0 0.148-0.926 1.55-1.091 1.652-0.107 0.067-0.262 0.177-0.342 0.245-0.227 0.191-1.258 0.629-1.911 0.812-0.533 0.149-0.774 0.166-2.572 0.181-1.091 0.009-2.332-0.010-2.756-0.042zM13.804 24.774c0.061-0.055 0.207-0.15 0.324-0.211s0.435-0.309 0.705-0.55c0.27-0.242 0.604-0.487 0.742-0.546s0.373-0.227 0.523-0.373c0.15-0.147 0.294-0.267 0.322-0.267 0.11 0 1.348-1.257 1.561-1.584 0.244-0.376 0.238-0.364 0.464-0.878 0.145-0.329 0.211-1.001 0.211-2.138 0-1.401-0.067-1.778-0.441-2.502-0.152-0.294-0.258-0.552-0.236-0.575s0.006-0.115-0.035-0.206c-0.042-0.091-0.146-0.318-0.233-0.504s-0.157-0.392-0.157-0.457c0-0.11-0.285-0.775-0.367-0.857-0.061-0.061-0.281-0.54-0.335-0.732-0.028-0.099-0.097-0.226-0.152-0.281s-0.101-0.146-0.101-0.201c0-0.055-0.159-0.309-0.354-0.564s-0.427-0.613-0.517-0.794c-0.090-0.182-0.286-0.438-0.437-0.569-0.675-0.588-0.987-0.828-1.078-0.828-0.053 0-0.213-0.128-0.355-0.285-0.329-0.364-0.399-0.385-0.73-0.219-0.15 0.075-0.321 0.137-0.38 0.137s-0.118 0.025-0.132 0.055c-0.033 0.074-0.492 0.313-0.6 0.312-0.078-0.001-0.467 0.177-1.813 0.83-0.263 0.127-0.56 0.304-0.662 0.392s-0.392 0.269-0.647 0.401c-0.578 0.301-1.349 0.999-1.556 1.409-0.086 0.171-0.186 0.361-0.222 0.422s-0.183 0.309-0.327 0.553c-0.184 0.31-0.262 0.531-0.262 0.739 0 0.163-0.035 0.331-0.077 0.374s-0.111 0.62-0.152 1.283c-0.041 0.663-0.105 1.216-0.143 1.23-0.086 0.031-0.091 0.578-0.005 0.631 0.035 0.022 0.079 0.53 0.099 1.131 0.025 0.77 0.068 1.155 0.146 1.306 0.236 0.458 0.418 0.89 0.509 1.207 0.052 0.182 0.171 0.476 0.264 0.654s0.169 0.379 0.169 0.448c0 0.069 0.070 0.188 0.155 0.265s0.231 0.289 0.323 0.471c0.092 0.182 0.238 0.394 0.323 0.471s0.155 0.184 0.155 0.239c0 0.054 0.036 0.099 0.081 0.099s0.246 0.149 0.448 0.33c0.202 0.182 0.455 0.378 0.562 0.436 0.71 0.387 0.776 0.405 1.554 0.426 1.45 0.038 2.748-0.020 2.867-0.127zM11.893 20.915c0-0.040-0.062-0.073-0.137-0.073-0.108 0-0.145-0.070-0.174-0.324-0.020-0.178-0.114-0.432-0.208-0.565-0.163-0.229-0.173-0.314-0.202-1.715-0.026-1.245 0.001-1.766 0.17-3.349 0.11-1.031 0.226-1.902 0.257-1.935s0.255-0.079 0.498-0.101l0.442-0.040 0.051 0.232c0.028 0.128 0.159 0.392 0.291 0.588l0.24 0.357 0.045 1.24c0.025 0.682 0.083 1.389 0.129 1.571 0.136 0.537-0.049 2.953-0.255 3.344-0.064 0.121-0.116 0.328-0.117 0.459-0 0.187-0.031 0.239-0.143 0.239-0.078 0-0.163 0.033-0.188 0.073s-0.192 0.073-0.372 0.073c-0.179 0-0.326-0.033-0.326-0.073z"></path>
</svg>
