<!-- Generated by IcoMoon.io -->
<svg version="1.1" xmlns="http://www.w3.org/2000/svg" width="32" height="32" viewBox="0 0 32 32">
<title>assimilating_swarm</title>
<path d="M24.309 7.272c-0.369-0.13-0.688-0.382-1.094-0.358-0.282 0.015-0.509 0.209-0.768 0.3-0.193-0.006-0.387-0.015-0.579-0.053-0.229-0.046-0.499-0.022-0.727 0.035-0.255 0.065-0.511 0.134-0.768 0.198-0.256 0.063-0.4 0.053-0.598 0.236-0.499 0.461-0.736 1.094-0.851 1.757-0.044 0.25-0.021 0.493-0.032 0.745-0.006 0.136-0.006 0.263 0.005 0.402 0.012 0.167-0.009 0.301 0.006 0.462 0.029 0.32 0.128 0.651 0.21 0.964 0.074 0.284 0.185 0.518 0.321 0.771 0.101 0.191 0.239 0.336 0.388 0.503 0.202 0.225 0.424 0.292 0.706 0.376 0.278 0.081 0.537 0.196 0.816 0.275 0.199 0.058 0.476 0.16 0.686 0.164 0.068 0.001 0.117-0.027 0.187-0.011 0.085 0.020 0.145 0.079 0.232 0.103 0.136 0.035 0.278 0.028 0.416 0.074 0.12 0.040 0.162 0.103 0.259 0.169 0.101 0.067 0.185 0.103 0.277 0.2 0.189 0.199 0.314 0.172 0.567 0.248 0.16 0.050 0.307 0.055 0.469 0.092 0.117 0.027 0.218 0.082 0.337 0.103 0.25 0.040 0.503 0.078 0.75 0.151 0.278 0.081 0.6 0.152 0.864 0.277 0.231 0.111 0.382 0.153 0.584-0.016 0.124-0.105 0.239-0.219 0.36-0.329 0.217-0.196 0.311-0.327 0.455-0.572 0.156-0.265 0.309-0.555 0.395-0.854 0.088-0.311 0.134-0.599 0.149-0.928 0.028-0.661-0.123-1.202-0.376-1.798-0.131-0.308-0.287-0.614-0.443-0.91-0.203-0.382-0.56-0.689-0.851-1.009-0.294-0.322-0.56-0.654-0.915-0.906-0.199-0.14-0.368-0.323-0.579-0.443-0.269-0.154-0.567-0.315-0.858-0.417z"></path>
<path d="M25.516 15.592c-0.126-0.048-0.237-0.112-0.358-0.158-0.091-0.035-0.228-0.055-0.302-0.126l-0.050 0.027c-0.461 0.218-0.667 0.195-0.812 0.221-0.169 0.031-0.335 0.074-0.491 0.131-0.16 0.059-0.251 0.166-0.381 0.279-0.158 0.138-0.097 0.238-0.149 0.429-0.075 0.278-0.050 0.665 0.024 0.948 0.093 0.363 0.281 0.692 0.487 1.008 0.066 0.101 0.123 0.101 0.136 0.236 0.012 0.124-0.037 0.183-0.091 0.283-0.020 0.038-0.053 0.097-0.075 0.137-0.028 0.052-0.065 0.137-0.098 0.185-0.108 0.157-0.222 0.247-0.242 0.461-0.013 0.151 0.042 0.294 0.078 0.427 0.045 0.169 0.072 0.309 0.192 0.437 0.106 0.113 0.21 0.23 0.315 0.346 0.119 0.131 0.239 0.263 0.36 0.395 0.092 0.101 0.239 0.344 0.384 0.344-0.031-0.079-0.101-0.125-0.157-0.191-0.051-0.061-0.058-0.117-0.094-0.184-0.057-0.105-0.131-0.197-0.167-0.302-0.072-0.204-0.219-0.459-0.169-0.68 0.058-0.248 0.158-0.473 0.27-0.697 0.068-0.138 0.186-0.187 0.268-0.308 0.086-0.127 0.068-0.233 0.265-0.282-0.064-0.092-0.052-0.262-0.075-0.368-0.031-0.146 0.003-0.324 0.022-0.475 0.021-0.166 0.077-0.32 0.144-0.469 0.052-0.116 0.086-0.309 0.154-0.401 0.067 0.025 0.103 0.164 0.134 0.228 0.060 0.119 0.039 0.111 0.057 0.238 0.011 0.085 0.070 0.176 0.085 0.265 0.015 0.086 0.033 0.174 0.037 0.263 0.002 0.070 0.005 0.167-0.009 0.235-0.007 0.033-0.051 0.059-0.057 0.092s0.013 0.087 0.001 0.118c-0.028 0.075-0.080 0.131-0.108 0.205-0.041 0.112-0.050 0.191-0.163 0.261 0.152-0.020 0.294 0.045 0.45 0.027 0.11-0.012 0.198-0.053 0.294-0.091 0.13-0.052 0.255-0.088 0.331-0.21 0.073-0.117 0.16-0.197 0.239-0.309 0.033-0.046 0.048-0.104 0.1-0.16 0.048-0.054 0.084-0.104 0.125-0.16 0.084-0.113 0.19-0.247 0.257-0.367 0.051-0.090 0.063-0.225 0.084-0.328 0.022-0.098 0.046-0.186 0.071-0.287 0.053-0.221 0.103-0.508 0.025-0.726-0.066-0.186-0.356-0.488-0.528-0.603-0.238-0.158-0.545-0.242-0.812-0.344z"></path>
<path d="M21.825 27.903c0.172-0.17 0.357-0.407 0.48-0.618 0.101-0.176 0.132-0.369 0.206-0.555-0.081 0.1-0.36 0.215-0.476 0.262-0.219 0.087-0.43 0.183-0.654 0.252-0.443 0.139-0.857 0.257-1.323 0.256-0.18 0-0.36-0.016-0.538-0.013-0.138 0.003-0.184-0.024-0.313-0.074-0.142-0.057-0.187-0.077-0.296-0.2-0.093-0.106-0.205-0.176-0.318-0.252-0.107-0.073-0.187-0.103-0.275-0.2-0.088-0.1-0.18-0.198-0.27-0.297-0.179-0.196-0.358-0.393-0.537-0.588-0.226-0.249-0.453-0.496-0.679-0.745-0.237-0.261-0.535-0.511-0.719-0.811-0.075-0.125-0.126-0.217-0.224-0.324-0.166-0.179-0.345-0.325-0.42-0.558-0.052-0.162-0.053-0.272-0.037-0.439 0.015-0.16-0.005-0.321 0.008-0.485 0.018-0.235 0.054-0.469 0.075-0.704 0.024-0.264 0.101-0.502 0.147-0.763 0.064-0.368 0.238-0.659 0.394-0.996 0.073-0.156 0.191-0.283 0.276-0.432 0.024-0.041 0.053-0.075 0.071-0.113-0.014-0.037-0.013-0.073 0.005-0.112 0.042-0.060 0.077-0.124 0.101-0.195 0.070-0.217 0.077-0.476 0.074-0.703-0.001-0.216 0.061-0.419 0.071-0.633 0.011-0.193-0.042-0.383-0.030-0.574 0.012-0.199 0.064-0.357 0.054-0.562-0.008-0.197 0.012-0.39 0.003-0.588-0.008-0.213-0.032-0.45 0.050-0.654 0.073-0.183 0.196-0.384 0.29-0.558 0.218-0.404 0.458-0.776 0.636-1.209 0.091-0.219 0.151-0.432 0.185-0.667 0.024-0.16 0.026-0.352 0.117-0.494 0.071-0.11 0.152-0.133 0.276-0.093 0.133 0.041 0.261 0.287 0.341 0.062 0.020-0.053-0.020-0.119-0.018-0.174 0.005-0.111 0.033-0.167 0.017-0.282-0.032-0.222-0.137-0.403-0.198-0.618-0.059-0.209-0.143-0.4-0.244-0.587-0.031-0.055-0.086-0.14-0.112-0.194-0.034-0.074 0.005-0.138 0.066-0.327-0.204 0.017-0.371 0.015-0.57 0.077-0.341 0.105-0.691 0.16-1.031 0.256-0.328 0.092-0.659 0.219-0.985 0.329-0.104 0.034-0.223 0.065-0.321 0.111-0.165 0.075-0.341 0.107-0.502 0.179-0.124 0.055-0.235 0.105-0.334 0.198-0.139 0.133-0.292 0.202-0.446 0.311-0.354 0.254-0.478 0.689-0.712 1.038-0.164 0.244-0.324 0.488-0.499 0.723-0.198 0.267-0.308 0.566-0.514 0.83-0.22 0.283-0.31 0.643-0.48 0.957-0.216 0.397-0.341 0.844-0.516 1.261-0.166 0.394-0.328 0.79-0.519 1.171-0.085 0.169-0.121 0.355-0.164 0.538-0.047 0.208-0.15 0.382-0.212 0.583-0.204 0.651-0.223 1.348-0.387 2.006-0.058 0.231-0.002 0.428 0.005 0.663 0.005 0.146 0.068 0.206 0.12 0.344 0.047 0.126 0.053 0.251 0.073 0.382 0.040 0.259 0.146 0.481 0.217 0.732 0.079 0.283 0.144 0.564 0.243 0.842 0.176 0.498 0.369 0.98 0.634 1.435 0.091 0.154 0.114 0.318 0.198 0.474 0.131 0.242 0.335 0.448 0.486 0.678 0.114 0.173 0.211 0.309 0.355 0.462 0.213 0.228 0.363 0.485 0.561 0.72 0.264 0.315 0.561 0.607 0.835 0.914 0.23 0.257 0.481 0.483 0.809 0.592 0.605 0.199 1.211 0.43 1.818 0.599 0.091 0.026 0.166 0.092 0.257 0.114 0.067 0.016 0.116-0.013 0.183 0 0.17 0.032 0.321 0.082 0.492 0.097 0.386 0.030 0.702 0.113 1.066-0.078 0.283-0.15 0.435-0.494 0.757-0.584 0.481-0.133 0.999-0.12 1.466-0.357 0.5-0.255 0.953-0.639 1.352-1.034z"></path>
<path d="M17.534 16.467c0.064 0.027 0.108 0.065 0.17 0.098 0.058 0.031 0.127 0.065 0.184 0.099 0.087 0.052 0.138 0.106 0.243 0.145 0.060 0.022 0.203 0.047 0.244 0.098 0.078 0.097-0.061 0.244-0.133 0.346-0.077 0.108-0.349 0.291-0.277 0.453 0.172-0.014 0.346-0.030 0.516-0.040 0.156-0.011 0.406-0.092 0.527 0.046-0.084 0.088-0.11 0.244-0.16 0.353-0.066 0.142-0.118 0.211-0.119 0.369-0.001 0.171 0.035 0.16 0.204 0.129 0.246-0.045 0.462-0.165 0.703-0.23 0.196-0.052 0.211-0.012 0.344 0.136 0.051 0.057 0.196 0.279 0.271 0.282 0.1 0.005 0.254-0.235 0.297-0.303 0.080-0.123 0.138-0.205 0.182-0.348 0.020-0.068 0.063-0.090 0.039-0.162-0.014-0.044-0.108-0.112-0.143-0.149-0.090-0.097-0.23-0.208-0.296-0.321-0.063-0.107-0.093-0.235-0.156-0.351-0.061-0.116-0.17-0.209-0.259-0.307-0.388-0.427-0.849-0.85-1.108-1.338-0.125-0.235-0.256-0.45-0.373-0.693-0.053-0.113-0.077-0.27-0.119-0.397-0.035-0.106-0.124-0.23-0.114-0.345-0.531 0.090-0.371 1.318-0.344 1.487 0.019 0.111 0.059 0.18 0.048 0.296-0.009 0.106-0.044 0.119-0.096 0.209-0.032 0.054-0.031 0.156-0.064 0.21-0.055 0.091-0.162 0.136-0.211 0.231z"></path>
<path d="M23.614 21.662c-0.108-0.119-0.144-0.206-0.219-0.343-0.153-0.279-0.341-0.548-0.505-0.827-0.099-0.169-0.212-0.248-0.287-0.435-0.060-0.152-0.149-0.331-0.239-0.465-0.284-0.421-0.733-0.785-1.302-1.028-0.047 0.13-0.119 0.205-0.202 0.32-0.1 0.138-0.177 0.288-0.291 0.414 0.047 0.088 0.136 0.139 0.191 0.221 0.061 0.090 0.081 0.184 0.151 0.272 0.080 0.1 0.567 0.479 0.425 0.611-0.052 0.048-0.134 0.047-0.197 0.079-0.044 0.022-0.077 0.070-0.123 0.094-0.017 0.008-0.070 0.003-0.094 0.013-0.067 0.026-0.119 0.061-0.191 0.086-0.085 0.028-0.204 0.046-0.276 0.080 0.11 0.225 0.349 0.366 0.565 0.468 0.204 0.097 0.455 0.283 0.697 0.277-0.099 0.074-0.237 0.165-0.244 0.299-0.008 0.18 0.175 0.268 0.327 0.296 0.356 0.065 0.788 0.013 1.106 0.192-0.018 0.113-0.032 0.212-0.058 0.322-0.018 0.078-0.052 0.277-0.032 0.343 0.077 0.263 0.809 0.040 0.975-0.005 0.138-0.039 0.271-0.075 0.387-0.171 0.070-0.057 0.263-0.183 0.281-0.27 0.017-0.091-0.147-0.277-0.206-0.342-0.093-0.103-0.205-0.177-0.317-0.252-0.128-0.087-0.213-0.132-0.321-0.25z"></path>
<path d="M25.32 22.188c0.081-0.013 0.239-0.057 0.308-0.096 0.059-0.034 0.085-0.088 0.147-0.119 0.031-0.016 0.080-0.013 0.12-0.037 0.105-0.061 0.162-0.19 0.277-0.239 0.092-0.040 0.211-0.008 0.29-0.088 0.041-0.041 0.044-0.112 0.074-0.16 0.088-0.144 0.172-0.192 0.191-0.363 0.013-0.119 0.044-0.242 0.047-0.36 0.002-0.077-0.008-0.27-0.125-0.279-0.093-0.007-0.164 0.21-0.19 0.27-0.108 0.245-0.218 0.452-0.42 0.633-0.093 0.084-0.19 0.212-0.296 0.275-0.065 0.038-0.133 0.038-0.196 0.078-0.055 0.035-0.088 0.104-0.144 0.14-0.116 0.077-0.245 0.059-0.374 0.085-0.195 0.040-0.2 0.080-0.338-0.073l0.037 0.238c0.121 0.108 0.433 0.12 0.591 0.096z"></path>
<path d="M24.743 22.802c0.099 0.113 0.218 0.147 0.321 0.25 0.086 0.086 0.118 0.113 0.228 0.153 0.198 0.073 0.337 0.101 0.559 0.068 0.2-0.030 0.525-0.054 0.679-0.197 0.137-0.127 0.388-0.491 0.331-0.692-0.085-0.015-0.101 0.047-0.159 0.084-0.11 0.068-0.179 0.055-0.304 0.088-0.16 0.045-0.362 0.13-0.507 0.215-0.117 0.067-0.121 0.103-0.245 0.125-0.1 0.018-0.225-0.018-0.328-0.014-0.121 0.002-0.288 0.021-0.386-0.072z"></path>
<path d="M16.077 20.585c-0.078 0.099-0.152 0.193-0.23 0.29-0.093 0.116-0.081 0.104 0.018 0.216 0.112 0.128 0.198 0.197 0.329 0.285 0.071 0.047 0.203 0.158 0.241 0.236 0.078 0.162-0.105 0.289-0.117 0.436 0.21 0.065 0.409 0.007 0.613 0.031 0.033 0.022 0.065 0.046 0.097 0.071 0.057 0.011 0.114 0.019 0.171 0.026 0.063 0.031 0.154 0.119 0.17 0.19 0.026 0.119-0.067 0.25-0.070 0.374-0.002 0.2 0.156 0.213 0.348 0.209 0.18-0.005 0.354-0.019 0.538-0.002 0.154 0.013 0.341 0.096 0.496 0.073 0.146-0.021 0.285-0.18 0.393-0.29 0.091-0.092 0.138-0.343 0.238-0.394-0.247-0.037-0.52-0.212-0.737-0.33-0.119-0.066-0.217-0.068-0.317-0.17-0.154-0.156-0.296-0.328-0.443-0.489-0.249-0.272-0.495-0.546-0.745-0.817-0.158-0.172-0.218-0.335-0.376-0.512-0.11 0.171-0.193 0.128-0.278 0.178-0.051 0.031-0.111 0.176-0.164 0.228-0.058 0.057-0.124 0.099-0.173 0.163z"></path>
<path d="M18.911 23.318c0.121 0.045 0.238 0.101 0.322 0.173 0.128 0.111 0.081 0.143 0.072 0.288-0.006 0.086 0.006 0.268 0.101 0.308 0.128 0.053 0.395-0.113 0.525-0.153 0.123-0.037 0.287-0.073 0.414-0.038 0.137 0.039 0.209 0.159 0.308 0.269 0.082 0.090 0.185 0.179 0.257 0.278 0.072 0.1 0.074 0.237 0.192 0.305 0.167-0.098 0.322-0.209 0.499-0.292 0.105-0.050 0.252-0.162 0.356-0.192 0.077-0.024 0.136 0.013 0.211 0.027 0.103 0.019 0.173 0.012 0.282 0.011 0.215-0.003 0.396 0.152 0.44-0.114 0.021-0.13 0.14-0.426 0.037-0.494-0.068-0.046-0.255 0-0.35-0.021-0.096-0.022-0.18-0.077-0.279-0.088-0.126-0.017-0.202 0.007-0.321-0.033-0.177-0.059-0.367-0.106-0.553-0.124-0.552-0.054-1.143-0.337-1.595-0.664-0.206 0.209-0.329 0.304-0.468 0.428-0.126 0.111-0.287 0.143-0.448 0.127z"></path>
<path d="M18.911 23.318c-0.121-0.045-0.248-0.078-0.354-0.1 0.111 0.053 0.232 0.088 0.354 0.1z"></path>
<path d="M18.77 6.852c-0.131 0.082-0.243 0.193-0.376 0.275-0.146 0.090-0.309 0.162-0.453 0.254-0.070 0.045-0.163 0.128-0.248 0.152 0.344 0.024 0.658-0.086 0.972-0.22 0.162-0.068 0.302-0.086 0.469-0.13 0.192-0.051 0.382-0.172 0.559-0.257 0.376-0.18 0.756-0.297 1.154-0.415 0.439-0.13 0.83-0.073 1.275-0.114l1.251 0.107c-0.088-0.031-0.172-0.070-0.228-0.097-0.197-0.096-0.406-0.292-0.553-0.454-0.233-0.257-0.575-0.461-0.856-0.669-0.152-0.112-0.279-0.272-0.436-0.373-0.145-0.093-0.262-0.107-0.359-0.256-0.025 0.032-0.027 0.066-0.013 0.101-0.048-0.028-0.078-0.022-0.098-0.020-0.101 0.013-0.202 0.012-0.302 0.024-0.112 0.014-0.218 0.054-0.329 0.065-0.047 0.005-0.085 0.007-0.126 0.037 0.042 0.026 0.061 0.055 0.112 0.067 0.11 0.024 0.229 0.031 0.341 0.033 0.137 0.003 0.283 0.009 0.417 0.028 0.048 0.007 0.094 0.020 0.143 0.022 0.021 0.001 0.040-0.006 0.061-0.002-0.006-0.008-0.011-0.015-0.017-0.024 0.027 0.025 0.053 0.050 0.067 0.070 0.128 0.173 0.267 0.301 0.426 0.454 0.028 0.028 0.228 0.195 0.225 0.239-0.003 0.065-0.21 0.067-0.266 0.067-0.198 0-0.397-0.087-0.595-0.1-0.142-0.009-0.318 0.025-0.459-0.025-0.151-0.053-0.262-0.235-0.369-0.347-0.134-0.139-0.274-0.208-0.429-0.299-0.2-0.119-0.48-0.389-0.727-0.38 0.006 0.012 0.014 0.024 0.021 0.037-0.027 0.009-0.053 0.020-0.072 0.026-0.091 0.026-0.186 0.019-0.279 0.041-0.113 0.028-0.22 0.078-0.33 0.117-0.053 0.019-0.104 0.042-0.147 0.078 0.028 0.022 0.071 0.009 0.106 0.011 0.035 0.002 0.071 0.011 0.106 0.015 0.105 0.017 0.211 0.020 0.317 0.024 0.15 0.005 0.292 0.027 0.442 0.016 0.022-0.001 0.050-0.006 0.077-0.008 0.045 0.059 0.090 0.117 0.133 0.171 0.087 0.111 0.208 0.211 0.268 0.342 0.105 0.229-0.162 0.18-0.31 0.171-0.164-0.009-0.383 0.072-0.547 0.058-0.087-0.007-0.159-0.053-0.248-0.058-0.104-0.006-0.23 0.032-0.335 0.045-0.21 0.025-0.407 0.106-0.613 0.131-0.219 0.026-0.332-0.118-0.432-0.279-0.055-0.090-0.331-0.483-0.455-0.481l0.006-0.054c-0.035 0.054-0.169 0.082-0.226 0.109-0.104 0.045-0.203 0.103-0.308 0.144-0.097 0.038-0.197 0.061-0.294 0.098-0.081 0.030-0.159 0.068-0.241 0.098-0.063 0.022-0.099 0.048-0.152 0.085 0.063 0.044 0.129 0.027 0.199 0.026 0.064-0.001 0.123 0.027 0.186 0.017 0.062-0.009 0.118-0.042 0.182-0.051 0.132-0.019 0.269-0.040 0.402-0.042 0.066-0.001 0.144 0.003 0.208-0.025l0.027-0.283c0.011 0.047 0.029 0.093 0.039 0.138 0.016 0.074 0.007 0.151 0.016 0.228 0.019 0.159 0.078 0.27 0.163 0.41-0.094 0.080-0.162 0.143-0.271 0.204-0.189 0.106-0.334 0.121-0.533 0.185-0.257 0.082-0.494 0.2-0.749 0.266-0.123 0.032-0.204 0.121-0.335 0.045-0.107-0.064-0.192-0.166-0.303-0.238-0.254-0.164-0.591-0.364-0.903-0.394 0.001 0.006 0.005 0.009 0.006 0.015l-0.007-0.005c-0.034-0.002-0.064 0.039-0.094 0.055-0.040 0.021-0.077 0.041-0.114 0.066-0.078 0.054-0.159 0.103-0.243 0.146-0.218 0.112-0.422 0.296-0.61 0.449-0.062 0.052-0.127 0.112-0.196 0.159-0.025 0.017-0.097 0.038-0.091 0.077 0.084-0.025 0.171-0.037 0.251-0.071 0.068-0.029 0.131-0.052 0.202-0.074 0.105-0.034 0.202-0.094 0.307-0.131 0.072-0.025 0.144-0.051 0.216-0.075 0.192-0.067 0.373-0.156 0.555-0.244 0.022-0.011 0.060-0.032 0.1-0.051 0.038 0.052 0.071 0.109 0.112 0.149 0.153 0.15 0.321 0.163 0.395 0.382-0.132 0.096-0.257 0.16-0.376 0.278-0.125 0.125-0.23 0.15-0.38 0.225-0.276 0.14-0.534 0.309-0.792 0.478-0.138 0.090-0.165 0.090-0.316 0.044-0.221-0.067-0.467-0.087-0.698-0.086-0.166 0-0.318-0.014-0.479-0.031-0.202-0.020-0.423-0.008-0.634-0.022 0.106 0.027 0.228 0.059 0.344 0.099-0.058-0.016-0.114-0.032-0.17-0.038-0.053-0.005-0.1-0.011-0.151 0.007-0.044 0.015-0.087 0.033-0.132 0.046-0.106 0.032-0.205 0.111-0.291 0.182-0.127 0.104-0.231 0.222-0.322 0.358-0.044 0.064-0.078 0.133-0.117 0.199-0.065 0.106-0.095 0.218-0.146 0.331-0.042 0.092-0.084 0.179-0.117 0.275-0.012 0.033-0.039 0.080-0.035 0.116 0.065 0.006 0.16-0.146 0.202-0.186 0.144-0.137 0.272-0.285 0.407-0.429 0.126-0.136 0.251-0.261 0.397-0.373 0.127-0.098 0.243-0.216 0.373-0.307 0.072-0.051 0.153-0.086 0.235-0.118 0.005-0.002 0.009-0.005 0.014-0.007 0.061 0.027 0.119 0.055 0.17 0.090 0.108 0.071 0.177 0.108 0.3 0.159 0.099 0.040 0.099 0.082 0.174 0.137 0.097 0.070 0.171 0.039 0.153 0.192-0.011 0.094-0.070 0.142-0.129 0.203-0.267 0.275-0.498 0.593-0.782 0.853-0.208 0.189-0.426 0.357-0.601 0.572-0.143 0.176-0.281 0.105-0.482 0.084-0.237-0.025-0.515-0.039-0.75 0.011-0.153 0.033-0.325 0.068-0.495 0.085l-0.187-0.020c-0.002 0.009-0.006 0.018-0.009 0.027-0.037-0.001-0.074 0-0.111-0.005-0.003 0.025 0.028 0.054 0.083 0.085-0.026 0.073-0.052 0.146-0.078 0.22-0.035 0.101-0.077 0.189-0.123 0.285-0.081 0.172-0.144 0.353-0.212 0.53-0.038 0.099-0.081 0.196-0.133 0.288-0.020 0.034-0.057 0.073-0.054 0.116 0.077 0 0.164-0.163 0.203-0.211 0.156-0.197 0.279-0.421 0.442-0.612 0.080-0.095 0.166-0.19 0.251-0.283 0.048-0.053 0.097-0.11 0.147-0.16 0.259 0.082 0.529 0.157 0.588 0.19 0.113 0.062 0.119 0.035 0.082 0.171-0.028 0.1-0.101 0.143-0.156 0.224-0.086 0.13-0.138 0.287-0.233 0.417-0.098 0.136-0.215 0.259-0.305 0.401-0.129 0.2-0.216 0.436-0.342 0.627-0.054 0.081-0.092 0.166-0.142 0.255-0.031 0.053-0.116 0.174-0.165 0.209-0.16 0.111-0.487 0.111-0.67 0.133-0.087 0.011-0.337 0-0.508 0.031l-0.040-0.014c-0.006-0.001-0.012-0.001-0.019-0.002-0.007 0.019-0.024 0.032-0.041 0.045-0.026 0.011-0.048 0.025-0.059 0.042 0.001 0.001 0.002 0.002 0.003 0.003v0c-0.039 0.050-0.075 0.129-0.1 0.187-0.085 0.202-0.205 0.384-0.283 0.591-0.053 0.144-0.12 0.309-0.132 0.461 0.024-0.011 0.027-0.032 0.041-0.052 0.032-0.047 0.074-0.091 0.109-0.136 0.064-0.081 0.119-0.163 0.189-0.239 0.162-0.179 0.295-0.364 0.43-0.564 0.015-0.021 0.032-0.042 0.048-0.064 0.014 0.007 0.025 0.014 0.041 0.019 0.105 0.039 0.145 0.080 0.233 0.139 0.053 0.035 0.149 0.041 0.19 0.078 0.106 0.093-0.104 0.479-0.15 0.61-0.065 0.183-0.116 0.313-0.221 0.465-0.141 0.205-0.131 0.501-0.338 0.672-0.123 0.1-0.315 0.127-0.46 0.183-0.189 0.073-0.4 0.117-0.588 0.215-0.091 0.047-0.177 0.119-0.269 0.158-0.106 0.046-0.216 0.047-0.308 0.129 0.064 0.006 0.132 0.006 0.2 0.006-0.009 0.012-0.019 0.025-0.026 0.041-0.037 0.080-0.060 0.17-0.091 0.254-0.079 0.218-0.086 0.452-0.165 0.67-0.074 0.205-0.138 0.413-0.238 0.607-0.079 0.151-0.156 0.296-0.211 0.458-0.014 0.041-0.029 0.084-0.045 0.125 0.031-0.096 0.112-0.183 0.182-0.249 0.051-0.050 0.084-0.114 0.12-0.175 0.096-0.157 0.19-0.32 0.298-0.468 0.094-0.13 0.156-0.259 0.235-0.397 0.065-0.114 0.146-0.223 0.196-0.346 0.068-0.172 0.138-0.346 0.204-0.519 0.082 0.006 0.163 0.018 0.261 0.037 0.163 0.030 0.329 0.034 0.493 0.055 0.136 0.018 0.254 0.093 0.388 0.105 0.106 0.011 0.258-0.042 0.27 0.107 0.006 0.092-0.11 0.292-0.14 0.381-0.096 0.269-0.19 0.538-0.287 0.807-0.098 0.277-0.215 0.544-0.366 0.789-0.006 0.009-0.090 0.11-0.099 0.123-0.033 0.045-0.034 0.074-0.078 0.111-0.152 0.136-0.435 0.187-0.621 0.274-0.399 0.182-0.79 0.238-1.209 0.353-0.127 0.035-0.244 0.082-0.371 0.108-0.064-0.001-0.106 0.001-0.125 0.007-0.012 0.003-0.026 0.007-0.039 0.011-0.091 0.002-0.183-0.003-0.271 0.018-0.097 0.022-0.261 0.068-0.333 0.136 0.12 0.013 0.248-0.032 0.373-0.064-0.046 0.035-0.002 0.074 0.030 0.112 0.020 0.025 0.050 0.041 0.068 0.066 0.018 0.024 0.020 0.053 0.032 0.081 0.038 0.088 0.079 0.17 0.124 0.255 0.060 0.117 0.098 0.245 0.154 0.364 0.075 0.162 0.17 0.32 0.265 0.468 0.040 0.063 0.085 0.132 0.1 0.206 0.003-0.116-0.005-0.229 0.001-0.344 0.008-0.165-0.006-0.325-0.017-0.491-0.012-0.187-0.020-0.375-0.031-0.562-0.003-0.050-0.015-0.113-0.018-0.171 0.024 0.002 0.047 0.002 0.071 0.006 0.356 0.038 0.761 0.063 1.105 0.034 0.091-0.007 0.275-0.014 0.355 0.061 0.106 0.101-0.058 0.355-0.101 0.474-0.086 0.233-0.19 0.468-0.239 0.712-0.032 0.158-0.027 0.323-0.057 0.479-0.020 0.107-0.068 0.202-0.079 0.309-0.012 0.118 0.038 0.224 0.011 0.333 0.134-0.338 0.351-0.611 0.474-0.945 0.064-0.175 0.177-0.308 0.242-0.482 0.057-0.154 0.061-0.35 0.239-0.295 0.112 0.034 0.237 0.233 0.321 0.317 0.109 0.11 0.223 0.238 0.34 0.336 0.001 0.001 0.001 0.001 0.002 0.001-0.046 0.048-0.087 0.1-0.13 0.145-0.114 0.12-0.232 0.239-0.345 0.361-0.088 0.094-0.202 0.17-0.303 0.249-0.050 0.039-0.136 0.111-0.153 0.174 0.030 0.014 0.080-0.012 0.111-0.019 0.111-0.026 0.217-0.048 0.324-0.088 0.119-0.044 0.238-0.088 0.354-0.139 0.159-0.070 0.32-0.121 0.471-0.215 0.047-0.028 0.114-0.032 0.153-0.077 0.014-0.017 0.018-0.033 0.019-0.050 0.019-0.005 0.038-0.015 0.058-0.038 0.046-0.053-0.119-0.54-0.145-0.626-0.065-0.221-0.233-0.404-0.335-0.616-0.173-0.364-0.341-0.732-0.283-1.144 0.054-0.386 0.268-0.797 0.397-1.166 0.058-0.163 0.117-0.325 0.175-0.489 0.016-0.047 0.031-0.159 0.064-0.195 0.099-0.106 0.184 0.024 0.264 0.113 0.151 0.167 0.301 0.331 0.466 0.483 0.159 0.147 0.202 0.349 0.309 0.538 0.027 0.048 0.068 0.117 0.081 0.17 0.033 0.128-0.022 0.139-0.092 0.251-0.124 0.199-0.183 0.473-0.262 0.693-0.070 0.197-0.153 0.35-0.252 0.528-0.042 0.078-0.053 0.169-0.099 0.245-0.058 0.099-0.151 0.136-0.145 0.269 0.126 0.019 0.483-0.736 0.606-0.853 0.1-0.096 0.151-0.16 0.223-0.272 0.086-0.137 0.118-0.277 0.193-0.413 0.057-0.1 0.184-0.184 0.19-0.309 0.003-0.061-0.032-0.086-0.042-0.145-0.022-0.123-0.057-0.173-0.097-0.283-0.045-0.123-0.016-0.229-0.080-0.351-0.264-0.502-0.81-0.802-1.12-1.263-0.18-0.269 0.002-0.604 0.099-0.871 0.059-0.163 0.046-0.305 0.092-0.463 0.057-0.192 0.134-0.376 0.261-0.531 0.19-0.236 0.638-0.044 0.902 0.022 0.225 0.055 0.598 0.054 0.794 0.206 0.081 0.064 0.196 0.262 0.244 0.354 0.163 0.315-0.178 0.662-0.288 0.944-0.048 0.127-0.494 1.167-0.387 1.245 0.246-0.237 0.436-0.513 0.618-0.801 0.174-0.274 0.179-0.573 0.23-0.888 0.020-0.129 0.182-0.374 0.152-0.495-0.019-0.073-0.222-0.165-0.257-0.189-0.147-0.096-0.238-0.187-0.342-0.323-0.263-0.342-0.727-0.557-1.080-0.797-0.112-0.077-0.225-0.149-0.226-0.297-0.001-0.173 0.048-0.383 0.136-0.537 0.129-0.226 0.311-0.4 0.42-0.632 0.123-0.262 0.3-0.5 0.417-0.767 0.13-0.291 0.158-0.402 0.476-0.244 0.322 0.158 0.612 0.409 0.867 0.659 0.216 0.21 0.27 0.383 0.309 0.678 0.035 0.272-0.143 0.455-0.236 0.699-0.078 0.209-0.162 0.422-0.238 0.627-0.042 0.015-0.066 0.045-0.071 0.087 0.030 0.034 0.033 0.070 0.009 0.107-0.039 0.12-0.193 0.149-0.222 0.264 0.257 0.058 0.616-0.483 0.715-0.658 0.134-0.236 0.202-0.537 0.292-0.791 0.143-0.404 0.285-0.707 0.068-1.12-0.079-0.15-0.205-0.268-0.318-0.39-0.087-0.094-0.149-0.233-0.238-0.317-0.106-0.1-0.193-0.119-0.237-0.269-0.158-0.527 0.277-0.731 0.652-1.035 0.198-0.162 0.388-0.348 0.548-0.548 0.080-0.1 0.183-0.423 0.322-0.423 0.151 0.001 0.261 0.317 0.344 0.433 0.137 0.191 0.268 0.283 0.19 0.518-0.080 0.245-0.176 0.487-0.261 0.731-0.070 0.2-0.175 0.36-0.264 0.546-0.053 0.112-0.145 0.256-0.225 0.344-0.041 0.045-0.106 0.071-0.147 0.124-0.052 0.066-0.060 0.138-0.13 0.199 0.185 0.119 0.651-0.082 0.764-0.229 0.113-0.145 0.165-0.337 0.283-0.486 0.088-0.111 0.191-0.193 0.289-0.296 0.268-0.277 0.358-0.659 0.371-1.033 0.009-0.262 0.051-0.473-0.139-0.674-0.125-0.133-0.358-0.369-0.235-0.56 0.093-0.146 0.285-0.173 0.425-0.246 0.16-0.085 0.245-0.239 0.378-0.357 0.075-0.067 0.185-0.156 0.279-0.193 0.085-0.034 0.053-0.081 0.167-0.032 0.070 0.030 0.143 0.149 0.189 0.205 0.058 0.071 0.136 0.151 0.143 0.246 0.019 0.236-0.342 0.479-0.473 0.651-0.103 0.133-0.229 0.344-0.387 0.412 0.383 0.159 0.764-0.167 1.071-0.377 0.124-0.085 0.278-0.187 0.379-0.303 0.084-0.098 0.075-0.132 0.027-0.249-0.077-0.191-0.185-0.367-0.27-0.552-0.034-0.073-0.088-0.152-0.054-0.243 0.045-0.123 0.212-0.228 0.321-0.275 0.198-0.088 0.383-0.176 0.575-0.277 0.22-0.114 0.299-0.279 0.558-0.314 0.301-0.041 0.489 0.020 0.417 0.38-0.016 0.082-0.119 0.153-0.127 0.217-0.005 0.038 0.030 0.050 0.028 0.087-0.002 0.055 0.019 0.087 0.007 0.147-0.018 0.098-0.119 0.239-0.186 0.32-0.098 0.12-0.254 0.21-0.376 0.305-0.1 0.078-0.34 0.147-0.384 0.269 0.179 0.113 0.491-0.094 0.644-0.183 0.151-0.087 0.316-0.158 0.46-0.257 0.248-0.171 0.302-0.317 0.399-0.587 0.075-0.215 0.131-0.454 0.229-0.659 0.133-0.276 0.328-0.239 0.592-0.284 0.274-0.047 0.57-0.111 0.848-0.113 0.4-0.003 0.047 0.274-0.097 0.383-0.134 0.103-0.289 0.158-0.43 0.246z"></path>
<path d="M21.187 5.814c-0.123-0.021-0.243-0.013-0.367-0.035-0.136-0.026-0.275-0.071-0.41-0.093-0.064-0.011-0.162-0.009-0.229-0.041 0.223 0.208 0.48 0.314 0.748 0.404 0.137 0.046 0.238 0.114 0.37 0.18 0.15 0.074 0.328 0.104 0.482 0.15 0.327 0.094 0.632 0.233 0.949 0.382 0.35 0.163 0.591 0.419 0.908 0.641l0.802 0.769c-0.047-0.068-0.088-0.14-0.114-0.187-0.093-0.172-0.154-0.414-0.187-0.599-0.053-0.295-0.2-0.617-0.305-0.906-0.057-0.157-0.078-0.33-0.143-0.482-0.060-0.14-0.132-0.215-0.137-0.364-0.031 0.006-0.045 0.028-0.051 0.058-0.020-0.045-0.044-0.058-0.058-0.067-0.073-0.048-0.14-0.106-0.213-0.154-0.081-0.053-0.17-0.088-0.249-0.143-0.034-0.024-0.061-0.044-0.1-0.047 0.018 0.040 0.019 0.070 0.048 0.105 0.064 0.077 0.142 0.149 0.216 0.212 0.092 0.078 0.187 0.164 0.271 0.252 0.029 0.031 0.055 0.065 0.087 0.093 0.014 0.013 0.029 0.019 0.042 0.034 0-0.009-0.001-0.016-0.001-0.025 0.008 0.032 0.014 0.060 0.016 0.082 0.015 0.182 0.057 0.34 0.101 0.526 0.008 0.034 0.074 0.252 0.054 0.279-0.030 0.039-0.17-0.075-0.208-0.106-0.133-0.111-0.232-0.278-0.361-0.399-0.092-0.085-0.225-0.162-0.299-0.272-0.081-0.118-0.081-0.296-0.108-0.428-0.033-0.163-0.099-0.284-0.166-0.43-0.087-0.189-0.165-0.516-0.337-0.65 0 0.011 0 0.024 0 0.035-0.021-0.009-0.045-0.018-0.059-0.024-0.073-0.035-0.134-0.093-0.206-0.131-0.087-0.046-0.18-0.074-0.27-0.111-0.045-0.018-0.087-0.031-0.132-0.033 0.009 0.031 0.044 0.046 0.067 0.066 0.024 0.021 0.045 0.046 0.066 0.070 0.064 0.070 0.134 0.131 0.204 0.192 0.1 0.087 0.186 0.182 0.292 0.259 0.015 0.012 0.035 0.024 0.054 0.037 0.007 0.063 0.014 0.125 0.020 0.184 0.014 0.119 0.055 0.251 0.041 0.368-0.022 0.205-0.182 0.024-0.279-0.065-0.106-0.098-0.288-0.169-0.394-0.27-0.055-0.054-0.085-0.123-0.143-0.176-0.068-0.062-0.169-0.108-0.244-0.159-0.152-0.101-0.318-0.16-0.469-0.261-0.158-0.106-0.176-0.262-0.177-0.42 0-0.087-0.026-0.493-0.11-0.56l0.026-0.032c-0.046 0.015-0.147-0.042-0.197-0.058-0.088-0.030-0.179-0.048-0.268-0.081-0.080-0.030-0.158-0.071-0.238-0.103-0.066-0.026-0.134-0.045-0.202-0.072-0.052-0.021-0.087-0.025-0.138-0.032 0.025 0.064 0.075 0.090 0.124 0.128 0.044 0.035 0.072 0.086 0.119 0.116 0.046 0.028 0.097 0.039 0.144 0.068 0.097 0.062 0.197 0.126 0.289 0.199 0.045 0.037 0.096 0.083 0.15 0.1l0.134-0.165c-0.012 0.035-0.018 0.077-0.030 0.11-0.020 0.057-0.058 0.101-0.082 0.154-0.053 0.112-0.058 0.215-0.058 0.353-0.097-0.002-0.167 0-0.266-0.022-0.171-0.039-0.276-0.11-0.436-0.18-0.208-0.092-0.416-0.151-0.614-0.25-0.097-0.048-0.187-0.037-0.245-0.16-0.046-0.1-0.063-0.212-0.107-0.321-0.104-0.246-0.25-0.564-0.449-0.757-0.001 0.003-0.001 0.008-0.002 0.013l-0.002-0.006c-0.021-0.021-0.059-0.012-0.086-0.019-0.037-0.009-0.068-0.017-0.105-0.021-0.074-0.011-0.15-0.025-0.224-0.044-0.193-0.051-0.406-0.048-0.595-0.055-0.064-0.002-0.132 0-0.197-0.009-0.024-0.002-0.081-0.029-0.093-0.001 0.066 0.032 0.13 0.072 0.199 0.096 0.058 0.019 0.11 0.040 0.166 0.065 0.085 0.038 0.175 0.054 0.261 0.090 0.059 0.025 0.118 0.048 0.177 0.073 0.158 0.065 0.315 0.108 0.475 0.156 0.019 0.006 0.053 0.013 0.088 0.024 0.003 0.054 0.002 0.108 0.014 0.157 0.042 0.182 0.15 0.284 0.111 0.466-0.129-0.014-0.239-0.042-0.368-0.034-0.136 0.009-0.217-0.034-0.349-0.070-0.243-0.066-0.487-0.103-0.73-0.14-0.131-0.020-0.149-0.035-0.231-0.149-0.121-0.167-0.281-0.317-0.437-0.447-0.112-0.093-0.209-0.187-0.311-0.287-0.127-0.127-0.282-0.244-0.419-0.37 0.061 0.077 0.13 0.164 0.192 0.255-0.033-0.041-0.065-0.084-0.1-0.118-0.033-0.033-0.062-0.064-0.104-0.080-0.037-0.015-0.073-0.028-0.108-0.045-0.085-0.039-0.184-0.045-0.27-0.048-0.129-0.004-0.248 0.012-0.366 0.048-0.055 0.017-0.106 0.040-0.16 0.060-0.086 0.032-0.153 0.087-0.235 0.13-0.066 0.035-0.129 0.067-0.191 0.11-0.021 0.014-0.058 0.030-0.071 0.053 0.041 0.040 0.167-0.002 0.213-0.005 0.152-0.007 0.299-0.030 0.449-0.046 0.14-0.015 0.276-0.025 0.421-0.014 0.126 0.009 0.252-0.001 0.377 0.014 0.070 0.008 0.138 0.031 0.206 0.057 0.005 0.001 0.008 0.002 0.013 0.003 0.031 0.052 0.058 0.103 0.078 0.152 0.045 0.105 0.075 0.169 0.138 0.269 0.050 0.081 0.033 0.108 0.061 0.185 0.037 0.098 0.099 0.12 0.025 0.208-0.046 0.055-0.105 0.052-0.17 0.058-0.292 0.026-0.579 0.099-0.877 0.104-0.217 0.005-0.433-0.011-0.64 0.028-0.167 0.031-0.232-0.092-0.36-0.217-0.15-0.15-0.333-0.315-0.511-0.414-0.117-0.065-0.249-0.14-0.37-0.224l-0.118-0.117c-0.006 0.003-0.012 0.007-0.017 0.011-0.025-0.021-0.052-0.041-0.074-0.065-0.012 0.014-0.002 0.051 0.021 0.1-0.047 0.032-0.094 0.065-0.143 0.097-0.066 0.045-0.13 0.078-0.2 0.113-0.125 0.064-0.241 0.143-0.36 0.218-0.065 0.041-0.134 0.079-0.208 0.108-0.027 0.011-0.068 0.015-0.084 0.042 0.052 0.044 0.178-0.012 0.223-0.021 0.186-0.038 0.362-0.111 0.549-0.142 0.094-0.015 0.19-0.027 0.285-0.039 0.054-0.007 0.11-0.015 0.166-0.019 0.14 0.198 0.292 0.396 0.32 0.45 0.051 0.104 0.065 0.090-0.015 0.154-0.059 0.048-0.126 0.034-0.197 0.055-0.11 0.034-0.21 0.105-0.328 0.136-0.121 0.031-0.251 0.044-0.37 0.084-0.169 0.055-0.324 0.157-0.488 0.208-0.070 0.021-0.13 0.054-0.199 0.082-0.043 0.018-0.15 0.047-0.197 0.041-0.153-0.020-0.375-0.203-0.507-0.291-0.064-0.041-0.228-0.189-0.356-0.265l-0.021-0.032c-0.003-0.003-0.007-0.007-0.012-0.012-0.013 0.007-0.028 0.007-0.046 0.006-0.022-0.008-0.042-0.012-0.058-0.006 0.001 0.001 0.001 0.002 0.002 0.003v0c-0.047 0.011-0.105 0.040-0.145 0.064-0.14 0.080-0.296 0.13-0.433 0.217-0.096 0.061-0.209 0.13-0.278 0.219 0.020 0.007 0.032-0.005 0.050-0.009 0.041-0.013 0.086-0.016 0.129-0.026 0.075-0.017 0.147-0.037 0.225-0.046 0.182-0.024 0.348-0.067 0.521-0.118 0.019-0.005 0.039-0.009 0.059-0.013 0.007 0.012 0.012 0.022 0.020 0.034 0.055 0.084 0.066 0.132 0.101 0.219 0.021 0.053 0.082 0.11 0.097 0.157 0.033 0.118-0.267 0.247-0.351 0.304-0.119 0.079-0.205 0.133-0.34 0.172-0.178 0.051-0.292 0.245-0.504 0.237-0.124-0.005-0.264-0.094-0.386-0.14-0.157-0.060-0.317-0.151-0.485-0.193-0.081-0.021-0.169-0.024-0.248-0.051-0.090-0.030-0.164-0.091-0.259-0.090 0.041 0.039 0.086 0.078 0.133 0.116-0.012 0.002-0.024 0.005-0.034 0.011-0.058 0.032-0.111 0.075-0.165 0.112-0.143 0.094-0.244 0.238-0.386 0.334-0.134 0.088-0.263 0.185-0.41 0.252-0.114 0.052-0.226 0.101-0.329 0.172-0.027 0.019-0.054 0.038-0.081 0.055 0.059-0.044 0.15-0.054 0.224-0.058 0.054-0.002 0.104-0.025 0.152-0.043 0.13-0.046 0.259-0.097 0.394-0.131 0.117-0.030 0.212-0.078 0.321-0.121 0.091-0.037 0.19-0.059 0.274-0.11 0.117-0.072 0.235-0.143 0.35-0.217 0.053 0.051 0.103 0.103 0.162 0.17 0.098 0.111 0.209 0.206 0.31 0.311 0.085 0.087 0.133 0.202 0.218 0.284 0.068 0.066 0.193 0.119 0.139 0.219-0.033 0.062-0.193 0.126-0.25 0.164-0.174 0.118-0.349 0.236-0.524 0.354-0.18 0.121-0.368 0.225-0.571 0.296-0.008 0.003-0.105 0.020-0.117 0.024-0.040 0.009-0.053 0.027-0.098 0.027-0.158 0-0.371-0.125-0.532-0.176-0.343-0.106-0.631-0.29-0.96-0.452-0.101-0.050-0.199-0.085-0.296-0.139-0.042-0.037-0.072-0.059-0.087-0.066-0.009-0.003-0.020-0.009-0.031-0.014-0.062-0.050-0.121-0.105-0.191-0.141-0.074-0.039-0.204-0.103-0.279-0.099 0.075 0.074 0.18 0.117 0.277 0.167-0.045-0.002-0.031 0.046-0.026 0.087 0.003 0.027 0.016 0.054 0.019 0.081 0.002 0.025-0.007 0.045-0.011 0.068-0.011 0.078-0.017 0.153-0.021 0.232-0.007 0.109-0.033 0.211-0.045 0.318-0.014 0.145-0.015 0.298-0.012 0.447 0.001 0.061 0.002 0.132-0.017 0.187 0.050-0.072 0.090-0.149 0.14-0.218 0.074-0.101 0.13-0.211 0.191-0.322 0.068-0.126 0.139-0.25 0.209-0.376 0.018-0.032 0.037-0.079 0.058-0.118 0.015 0.015 0.031 0.028 0.046 0.044 0.225 0.223 0.488 0.466 0.732 0.641 0.064 0.046 0.191 0.144 0.215 0.237 0.031 0.125-0.184 0.193-0.263 0.245-0.153 0.1-0.32 0.191-0.453 0.32-0.086 0.083-0.15 0.191-0.233 0.274-0.058 0.055-0.129 0.088-0.18 0.151-0.057 0.068-0.066 0.165-0.128 0.218 0.23-0.14 0.487-0.192 0.707-0.336 0.114-0.074 0.245-0.096 0.36-0.171 0.101-0.067 0.185-0.189 0.283-0.053 0.061 0.084 0.065 0.281 0.086 0.381 0.028 0.131 0.053 0.277 0.092 0.406 0.001 0 0.001 0 0.001 0.001-0.051 0.005-0.1 0.014-0.146 0.019-0.127 0.013-0.255 0.024-0.382 0.037-0.098 0.011-0.205-0.005-0.305-0.012-0.050-0.002-0.138-0.005-0.176 0.025 0.014 0.027 0.059 0.039 0.082 0.051 0.086 0.046 0.166 0.091 0.255 0.126 0.099 0.038 0.197 0.077 0.297 0.11 0.137 0.045 0.265 0.101 0.406 0.127 0.044 0.007 0.091 0.042 0.134 0.037 0.015-0.002 0.026-0.012 0.033-0.021 0.014 0.007 0.032 0.012 0.054 0.008 0.053-0.008 0.14-0.41 0.158-0.479 0.047-0.178 0.007-0.389 0.026-0.58 0.033-0.329 0.070-0.657 0.277-0.887 0.195-0.215 0.507-0.358 0.745-0.519 0.106-0.072 0.212-0.143 0.318-0.215 0.031-0.021 0.086-0.084 0.123-0.088 0.11-0.012 0.114 0.119 0.132 0.221 0.034 0.191 0.068 0.38 0.117 0.569 0.047 0.183-0.006 0.335-0.012 0.515-0.001 0.045-0.001 0.112-0.014 0.153-0.031 0.1-0.072 0.075-0.165 0.107-0.165 0.058-0.316 0.199-0.46 0.296-0.129 0.086-0.246 0.137-0.387 0.195-0.061 0.025-0.105 0.077-0.167 0.1-0.079 0.031-0.158 0.001-0.208 0.090 0.077 0.082 0.627-0.197 0.758-0.203 0.106-0.005 0.167-0.018 0.262-0.048 0.114-0.038 0.193-0.111 0.299-0.154 0.079-0.032 0.199-0.014 0.255-0.091 0.027-0.037 0.014-0.072 0.031-0.115 0.034-0.090 0.033-0.142 0.051-0.235 0.020-0.103 0.082-0.154 0.088-0.269 0.027-0.467-0.218-0.963-0.239-1.431-0.012-0.271 0.249-0.382 0.423-0.498 0.106-0.071 0.157-0.17 0.252-0.244 0.117-0.091 0.244-0.164 0.393-0.192 0.225-0.044 0.449 0.33 0.6 0.52 0.13 0.162 0.382 0.369 0.452 0.577 0.030 0.085 0.025 0.276 0.020 0.362-0.019 0.291-0.39 0.321-0.58 0.44-0.085 0.053-0.811 0.466-0.771 0.575 0.263-0.013 0.505-0.082 0.745-0.163 0.23-0.078 0.355-0.264 0.519-0.437 0.066-0.070 0.276-0.136 0.305-0.23 0.017-0.055-0.082-0.229-0.097-0.264-0.060-0.143-0.084-0.252-0.099-0.397-0.038-0.364-0.264-0.762-0.403-1.112-0.045-0.112-0.091-0.222-0.032-0.316 0.070-0.111 0.19-0.217 0.311-0.265 0.179-0.072 0.374-0.080 0.542-0.167 0.19-0.098 0.407-0.15 0.595-0.254 0.206-0.112 0.271-0.167 0.422 0.111 0.152 0.282 0.245 0.604 0.316 0.906 0.059 0.255 0.025 0.395-0.070 0.605-0.087 0.193-0.283 0.21-0.445 0.313-0.138 0.090-0.282 0.178-0.417 0.266-0.035-0.014-0.064-0.008-0.084 0.015 0.006 0.039-0.007 0.062-0.038 0.074-0.075 0.054-0.192-0.014-0.258 0.044 0.151 0.18 0.614 0.038 0.752-0.019 0.187-0.074 0.355-0.228 0.521-0.34 0.262-0.177 0.482-0.29 0.505-0.674 0.008-0.139-0.030-0.285-0.055-0.427-0.020-0.109-0.005-0.231-0.031-0.335-0.031-0.124-0.082-0.184-0.051-0.304 0.108-0.425 0.486-0.311 0.863-0.294 0.2 0.008 0.406-0.005 0.595-0.042 0.096-0.018 0.297-0.166 0.391-0.088 0.1 0.085 0.046 0.348 0.055 0.468 0.014 0.198 0.065 0.33-0.084 0.436-0.154 0.111-0.318 0.211-0.475 0.32-0.129 0.088-0.265 0.131-0.402 0.199-0.081 0.041-0.203 0.081-0.292 0.092-0.046 0.006-0.101-0.013-0.151-0.003-0.062 0.013-0.097 0.054-0.169 0.054 0.075 0.179 0.473 0.313 0.61 0.283 0.136-0.028 0.25-0.121 0.39-0.15 0.105-0.022 0.208-0.018 0.316-0.027 0.295-0.026 0.512-0.219 0.673-0.449 0.113-0.162 0.228-0.272 0.182-0.507-0.030-0.156-0.091-0.436 0.071-0.489 0.123-0.040 0.264 0.051 0.388 0.081 0.144 0.037 0.264-0.015 0.402-0.015 0.078 0 0.189 0.006 0.268 0.034 0.071 0.026 0.068-0.021 0.126 0.073 0.034 0.058 0.035 0.175 0.044 0.237 0.009 0.077 0.030 0.172-0.005 0.236-0.084 0.162-0.427 0.114-0.585 0.15-0.124 0.028-0.296 0.091-0.43 0.046 0.193 0.315 0.585 0.322 0.877 0.36 0.118 0.015 0.265 0.037 0.38 0.019 0.097-0.015 0.105-0.041 0.12-0.143 0.026-0.165 0.026-0.337 0.044-0.503 0.007-0.065 0.003-0.146 0.062-0.185 0.080-0.052 0.236-0.025 0.329 0.005 0.17 0.055 0.331 0.104 0.502 0.147 0.196 0.051 0.317-0.009 0.506 0.112 0.219 0.143 0.322 0.288 0.126 0.476-0.045 0.044-0.144 0.031-0.174 0.066-0.019 0.022-0.001 0.048-0.018 0.072-0.024 0.034-0.022 0.066-0.055 0.098-0.052 0.052-0.178 0.085-0.256 0.099-0.116 0.021-0.258-0.009-0.38-0.017-0.099-0.007-0.289-0.097-0.369-0.045 0.074 0.173 0.37 0.216 0.509 0.245 0.138 0.030 0.278 0.075 0.416 0.093 0.237 0.031 0.334-0.033 0.509-0.151 0.139-0.093 0.275-0.215 0.424-0.29 0.203-0.101 0.32 0.032 0.516 0.151 0.204 0.124 0.43 0.248 0.619 0.402 0.271 0.222-0.081 0.202-0.223 0.191-0.132-0.011-0.259-0.062-0.391-0.085z"></path>
<path d="M5.905 21.956c-0.008 0.021-0.018 0.041-0.025 0.064 0.012-0.021 0.020-0.042 0.025-0.064z"></path>
<path d="M23.373 6.502c0.123 0.044 0.255 0.071 0.331 0.028z"></path>
</svg>
