<!-- Generated by IcoMoon.io -->
<svg version="1.1" xmlns="http://www.w3.org/2000/svg" width="33" height="32" viewBox="0 0 33 32">
<title>at_deaths_doorstep</title>
<path d="M22.098 23.518c0-0.287-0.033-0.572-0.020-0.86 0.005-0.133 0.035-0.262 0.042-0.393 0.008-0.186 0.001-0.369-0.023-0.553-0.051-0.402-0.096-0.806-0.142-1.208-0.045-0.416-0.092-0.832-0.147-1.247-0.033-0.252-0.068-0.506-0.080-0.76-0.011-0.237-0.002-0.474-0.002-0.712-0.001-0.994 0-1.99 0-2.984 0-1.022-0.005-2.042 0.049-3.063 0.020-0.393 0.057-0.786 0.061-1.179 0.003-0.411-0.001-0.822-0.001-1.232 0-0.373 0.006-0.745-0.030-1.117-0.041-0.414-0.029-0.83-0.078-1.243-0.047-0.381-0.071-0.765-0.095-1.149-0.018-0.277-0.039-0.557-0.037-0.834 0.001-0.076 0.016-0.156-0.076-0.157-0.035 0-0.068 0.004-0.104 0-0.048-0.005-0.092-0.025-0.138-0.040-0.181-0.058-0.367-0.111-0.554-0.15-0.415-0.085-0.849-0.13-1.274-0.157-0.384-0.024-0.778-0.046-1.164-0.015-0.287 0.023-0.569 0.076-0.856 0.1-0.359 0.029-0.72 0.023-1.079 0.046-0.204 0.013-0.407 0.008-0.611 0.013-0.186 0.005-0.372 0.015-0.558 0.022-0.349 0.010-0.696 0.018-1.045 0.019-0.596 0.001-1.188-0.062-1.78-0.115-0.213-0.019-0.42-0.030-0.634-0.032-0.039 0-0.143-0.019-0.175 0.010-0.042 0.037 0.011 0.105 0.027 0.143 0.111 0.293 0.078 0.65 0.075 0.954-0.002 0.267-0.039 0.522-0.091 0.784-0.054 0.273-0.092 0.549-0.119 0.826-0.061 0.626-0.072 1.256-0.090 1.885-0.011 0.395-0.018 0.788 0.001 1.183 0.025 0.509 0.068 1.015 0.084 1.523 0.029 0.915 0.002 1.831 0.030 2.746 0.024 0.818 0.090 1.637 0.173 2.453 0.071 0.698 0.135 1.397 0.116 2.1-0.014 0.539-0.035 1.074-0.077 1.612-0.033 0.424-0.097 0.846-0.152 1.269-0.024 0.195-0.049 0.39-0.076 0.583-0.023 0.161-0.034 0.328-0.075 0.484-0.022 0.080-0.081 0.116-0.080 0.202 0.003 0.149 0.011 0.301-0.024 0.447 0.035-0.056 0.059-0.121 0.121-0.158 0.101-0.061 0.243-0.044 0.354-0.043 0.28 0.002 0.558-0.015 0.836-0.027 0.436-0.018 0.872-0.011 1.308-0.013 0.502-0.002 1.007-0.029 1.508-0.053 0.476-0.022 0.945-0.072 1.416-0.135 0.791-0.106 1.586-0.233 2.386-0.247 0.511-0.010 1.020 0.005 1.531 0.038 0.158 0.011 0.316 0.027 0.464 0.086 0.077 0.030 0.148 0.075 0.224 0.102 0.133 0.051 0.282-0.013 0.414 0.023 0.001 0.019 0.003 0.037 0.006 0.056 0.006 0.001 0.013 0.002 0.259 0.17z"></path>
<path d="M19.58 24.010c-0.003-0.014-0.002-0.027 0.003-0.039 0.025-0.001 0.046-0.015 0.065-0.019 0.049-0.010 0.106-0.009 0.157-0.001 0.118 0.014 0.235 0.064 0.343 0.11 0.132 0.056 0.256 0.111 0.368 0.199 0.113 0.086 0.224 0.177 0.316 0.283 0.042 0.049 0.081 0.101 0.118 0.154 0.030 0.033 0.056 0.068 0.076 0.108 0.023 0.065 0.021 0.132 0.048 0.196 0.033 0.078 0.062 0.149 0.109 0.22 0.107 0.163 0.229 0.313 0.359 0.459 0.13 0.148 0.277 0.251 0.443 0.356 0.085 0.054 0.173 0.116 0.262 0.164 0.066 0.035 0.142 0.057 0.211 0.087 0.081 0.034 0.161 0.039 0.245 0.059 0.081 0.020 0.151 0.067 0.23 0.089-0.066-0.010-0.139-0.002-0.206-0.002-0.17 0.001-0.315-0.015-0.477-0.067-0.147-0.048-0.291-0.105-0.443-0.13-0.073-0.011-0.147-0.015-0.219-0.032-0.071-0.016-0.125-0.042-0.2-0.044-0.257-0.005-0.478-0.058-0.659-0.248-0.075-0.077-0.144-0.162-0.204-0.25-0.014-0.020-0.039-0.042-0.049-0.064-0.011-0.025-0.009-0.048-0.023-0.076-0.033-0.066-0.071-0.137-0.114-0.196-0.056-0.077-0.115-0.132-0.187-0.192-0.032-0.027-0.053-0.062-0.086-0.089-0.046-0.038-0.106-0.063-0.158-0.095-0.125-0.077-0.259-0.154-0.39-0.221-0.234-0.12-0.503-0.166-0.715-0.328-0.080-0.061-0.199-0.142-0.249-0.229-0.014-0.025-0.048-0.111-0.035-0.138 0.048 0.013 0.086 0.054 0.13 0.077 0.064 0.034 0.127 0.049 0.197 0.068 0.129 0.035 0.254 0.085 0.392 0.062 0.044-0.006 0.1-0.022 0.139-0.042 0.034-0.018 0.062-0.047 0.1-0.058 0.192-0.062 0.371 0.011 0.569 0.078z"></path>
<path d="M12.035 23.889c0.006 0.001 0.011 0.002 0.018 0.004 0.011 0.039 0.009 0.1 0.001 0.14-0.032 0.197-0.144 0.373-0.293 0.502-0.345 0.301-0.891 0.323-1.327 0.288-0.249-0.019-0.492-0.077-0.736-0.121-0.23-0.041-0.46-0.085-0.693-0.104-0.226-0.020-0.463-0.046-0.687-0.002-0.085 0.017-0.166 0.058-0.247 0.086-0.081 0.027-0.125 0.049-0.187 0.105-0.071 0.066-0.151 0.137-0.234 0.188-0.090 0.056-0.19 0.092-0.28 0.151-0.106 0.068-0.207 0.147-0.318 0.21-0.137 0.077-0.266 0.1-0.423 0.099-0.14-0.001-0.29 0.014-0.429-0.004-0.138-0.016-0.295-0.075-0.415-0.142-0.147-0.081-0.281-0.176-0.421-0.267-0.073-0.048-0.152-0.094-0.219-0.151-0.019-0.015-0.054-0.033-0.044-0.062 0.039 0.010 0.075 0.092 0.101 0.127 0.027 0.037 0.064 0.061 0.087 0.1 0.039 0.064 0.085 0.138 0.102 0.211 0.033 0.144 0.106 0.266 0.196 0.387 0.037 0.052 0.094 0.137 0.147 0.173 0.040 0.028 0.102 0.039 0.148 0.059 0.185 0.081 0.374 0.088 0.573 0.088 0.161 0 0.318 0 0.478-0.015 0.186-0.016 0.38-0.015 0.564-0.049 0.144-0.027 0.276-0.077 0.415-0.124 0.176-0.061 0.357-0.11 0.534-0.167 0.119-0.038 0.237-0.087 0.357-0.121 0.152-0.043 0.316-0.056 0.472-0.072 0.202-0.022 0.428-0.032 0.625 0.025 0.053 0.019 0.106 0.039 0.158 0.061 0.063 0.018 0.127 0.033 0.19 0.046 0.086 0.023 0.167 0.061 0.253 0.085 0.271 0.075 0.548 0.072 0.825 0.085 0.314 0.013 0.605 0.052 0.902-0.072 0.205-0.086 0.352-0.276 0.443-0.471 0.076-0.164 0.048-0.319-0.018-0.484-0.077-0.195-0.215-0.369-0.362-0.52-0.087-0.089-0.173-0.181-0.278-0.249-0.018-0.011-0.082-0.058 0.021-0.023z"></path>
<path d="M20.952 23.801c0.001-0.006 0.002-0.011 0.003-0.018 0.037-0.010 0.076-0.008 0.115-0.018 0.127-0.035 0.233-0.054 0.367-0.048 0.204 0.010 0.444 0.078 0.627 0.163 0.102 0.048 0.21 0.085 0.312 0.133 0.132 0.059 0.25 0.144 0.377 0.211 0.084 0.044 0.168 0.087 0.256 0.127 0.128 0.057 0.258 0.083 0.391 0.124 0.097 0.029 0.191 0.067 0.293 0.076 0.097 0.008 0.196 0.001 0.295 0.001 0.381 0.002 0.768-0.095 1.085-0.307 0.273-0.183 0.437-0.495 0.536-0.798 0.061-0.181 0.067-0.342-0.057-0.492-0.040-0.048-0.087-0.096-0.138-0.135-0.057-0.044-0.1-0.048-0.167-0.067-0.073-0.022-0.148-0.016-0.226-0.016 0.034 0 0.072 0.008 0.101-0.009 0.013-0.008 0.014-0.024 0.024-0.033 0.025-0.023 0.044-0.030 0.080-0.037 0.212-0.043 0.472 0.033 0.641 0.157 0.048 0.035 0.096 0.073 0.14 0.114 0.084 0.075 0.187 0.148 0.258 0.234 0.12 0.147 0.142 0.348 0.223 0.512 0.081-0.029 0.101-0.183 0.102-0.248 0-0.084 0.002-0.171-0.001-0.254-0.002-0.037 0.002-0.058-0.035-0.078 0.064 0.043 0.143 0.073 0.207 0.119 0.207 0.147 0.391 0.321 0.528 0.536 0.154 0.242 0.14 0.566-0.002 0.807-0.2 0.34-0.485 0.668-0.887 0.77-0.233 0.058-0.46 0.124-0.696 0.166-0.262 0.047-0.525 0.063-0.789 0.063-0.15 0-0.296 0.001-0.445-0.020-0.142-0.019-0.282-0.047-0.42-0.078-0.247-0.057-0.43-0.163-0.643-0.29-0.063-0.037-0.128-0.068-0.186-0.113-0.070-0.053-0.129-0.106-0.207-0.147-0.046-0.024-0.085-0.061-0.129-0.089-0.080-0.049-0.163-0.094-0.244-0.142-0.19-0.113-0.384-0.22-0.584-0.315-0.187-0.088-0.387-0.154-0.578-0.233-0.157-0.064-0.323-0.137-0.49-0.168-0.085-0.015-0.185 0.005-0.264-0.018 0.006-0.013 0.010-0.025 0.226-0.143z"></path>
<path d="M13.225 25.475h0.057c-0.084 0-0.149-0.035-0.237-0.011-0.084 0.024-0.199 0.109-0.262 0.17-0.053 0.051-0.049 0.104-0.048 0.173 0.004 0.192-0.052 0.385-0.090 0.573-0.037 0.183-0.134 0.382-0.271 0.516-0.049 0.049-0.115 0.094-0.175 0.13-0.091 0.057-0.172 0.057-0.275 0.057-0.153 0-0.238-0.056-0.357-0.147-0.049-0.039-0.092-0.057-0.113-0.114-0.017-0.045-0.036-0.087-0.057-0.132-0.011-0.024-0.034-0.051-0.043-0.072-0.013-0.030 0.003-0.063-0.008-0.092-0.1 0.068-0.175 0.137-0.188 0.263-0.010 0.097-0.066 0.186-0.066 0.285 0.001 0.082 0.057 0.149 0.099 0.218 0.058 0.099 0.089 0.138 0.194 0.187 0.12 0.058 0.223 0.106 0.358 0.106 0.159 0.001 0.316 0.018 0.474 0.022 0.146 0.004 0.277-0.018 0.414-0.067 0.141-0.052 0.287-0.119 0.401-0.219 0.138-0.12 0.241-0.275 0.362-0.411 0.113-0.125 0.209-0.239 0.255-0.401 0.039-0.135 0.11-0.258 0.151-0.393 0.029-0.095 0.024-0.197 0.044-0.295 0.028-0.13 0.096-0.221 0.197-0.304 0.094-0.076 0.173-0.152 0.288-0.197 0.097-0.039 0.185-0.054 0.288-0.053-0.304-0.001-0.606 0-0.908 0-0.091 0-0.181 0-0.272 0-0.079-0.001-0.158-0.010-0.233 0.022-0.201 0.085-0.254 0.339-0.301 0.521z"></path>
<path d="M9.368 3.463c0.002 0.201-0.040 0.398-0.068 0.597-0.018 0.133-0.059 0.262-0.080 0.395-0.022 0.141-0.020 0.28-0.019 0.421 0.001 0.311-0.015 0.625 0.010 0.936 0.030 0.383 0.005 0.765 0.072 1.147 0.077 0.438 0.143 0.887 0.168 1.331 0.011 0.214 0.043 0.428 0.061 0.641 0.033 0.409 0.104 0.811 0.193 1.213 0.11 0.492 0.079 0.996 0.079 1.497 0 0.466 0.018 0.936-0.002 1.403-0.028 0.598-0.080 1.197-0.106 1.796-0.011 0.224-0.029 0.448-0.036 0.671-0.006 0.269-0.001 0.54-0.001 0.81 0.001 0.29-0.023 0.578-0.021 0.867 0 0.237 0.001 0.473 0.001 0.71 0 0.311-0.011 0.624-0.002 0.935 0.008 0.259 0.044 0.515 0.056 0.774 0.025 0.563 0.009 1.13 0.009 1.694 0 0.219-0.003 0.439-0.001 0.658 0.002 0.21 0.029 0.416 0.053 0.624 0.030 0.28 0.002 0.568-0.061 0.841-0.015 0.066-0.009 0.119-0.067 0.162 0.039-0.008 0.073 0.008 0.11 0.014 0.053 0.009 0.105 0.001 0.157 0.008 0.162 0.020 0.3 0.109 0.466 0.096 0.086-0.006 0.175-0.017 0.259-0.034 0.047-0.009 0.095-0.028 0.144-0.027 0.072 0 0.133 0.047 0.205 0.043-0.021-0.015-0.014-0.059-0.016-0.082-0.010-0.063-0.023-0.127-0.033-0.19-0.019-0.12-0.052-0.235-0.067-0.357-0.023-0.181-0.085-0.349-0.085-0.534 0.001-0.209 0.023-0.416 0.021-0.625-0.002-0.367 0.020-0.732 0.037-1.099 0.016-0.38 0.027-0.758 0.025-1.139-0.001-0.506 0.023-1.010 0.021-1.516-0.001-0.423 0.022-0.843 0.020-1.265 0-0.268-0.010-0.539 0.005-0.808 0.019-0.325 0.018-0.651 0.033-0.978 0.013-0.292 0.006-0.586 0.004-0.877-0.001-0.442 0.039-0.881 0.059-1.321 0.015-0.361-0.008-0.719-0.018-1.078-0.009-0.318-0.030-0.634-0.047-0.951-0.009-0.185-0.024-0.371-0.032-0.557-0.009-0.168-0.001-0.337-0.009-0.506-0.014-0.314-0.036-0.627-0.053-0.941-0.017-0.306-0.015-0.614-0.030-0.92-0.015-0.287-0.023-0.574-0.018-0.863 0.005-0.226 0.023-0.449 0.021-0.676 0-0.525-0.001-1.050 0-1.575 0-0.042 0.006-0.087 0.002-0.129-0.005-0.054-0.037-0.085-0.056-0.134-0.030-0.077 0.011-0.090 0.067-0.088l-1.376-1.198c-0.082-0.014-0.056 0.128-0.056 0.183z"></path>
<path d="M23.363 22.675c-0.013-0.196-0.023-0.388-0.047-0.583-0.041-0.319-0.053-0.645-0.071-0.967-0.043-0.745 0.024-1.491 0.030-2.238 0.003-0.39-0.003-0.781-0.002-1.17 0.002-0.396 0.043-0.791 0.075-1.185 0.062-0.771 0.064-1.541 0.099-2.313 0.019-0.438 0.059-0.873 0.059-1.311-0.001-0.349-0.009-0.698-0.021-1.047-0.027-0.754-0.082-1.505-0.111-2.259-0.014-0.38-0.041-0.759-0.056-1.14-0.013-0.307-0.056-0.615-0.062-0.922-0.009-0.507-0.049-1.021-0.116-1.523-0.068-0.506-0.181-1.010-0.282-1.511-0.049-0.239-0.086-0.467-0.084-0.711 0.001-0.124 0-0.247 0-0.371 0.001-0.028 0.003-0.054-0.008-0.076l-0.923 1.032c0.010 0 0.021 0 0.032 0.004 0.015 0.061 0.015 0.132 0.022 0.195 0.009 0.092 0.023 0.185 0.024 0.277 0.001 0.238 0.037 0.472 0.077 0.706 0.029 0.159 0.035 0.32 0.051 0.481 0.020 0.205 0.052 0.409 0.081 0.611 0.026 0.173 0.019 0.348 0.039 0.52 0.020 0.173 0.045 0.347 0.075 0.517 0.061 0.374 0.111 0.758 0.132 1.136 0.017 0.335 0.024 0.669 0.054 1.005 0.037 0.401 0.033 0.808 0.033 1.211v0.884c0 1.374 0.005 2.749 0 4.123-0.001 0.197 0.005 0.392 0.016 0.588 0.011 0.194 0.003 0.388 0.015 0.583 0.013 0.233 0.005 0.466 0.030 0.697 0.020 0.187 0.039 0.372 0.048 0.559 0.020 0.392 0.014 0.783 0.015 1.175 0.001 0.301-0.032 0.598-0.042 0.898-0.005 0.186-0.042 0.369-0.043 0.555-0.001 0.157 0.007 0.311-0.009 0.468-0.020 0.221-0.034 0.445-0.032 0.667 0.003 0.255-0.052 0.5-0.078 0.753-0.005 0.039 0.023 0.219-0.018 0.259 0.021 0.027 0.038 0.045 0.048 0.058 0.019 0.014 0.026 0.029 0 0-0.003-0.004-0.009-0.008-0.014-0.010-0.003 0.038 0.039 0.097 0.072 0.105 0.030 0.005 0.068-0.013 0.097-0.020 0.087-0.025 0.178-0.041 0.266-0.062 0.085-0.022 0.168-0.039 0.252-0.062 0.064-0.016 0.123-0.043 0.191-0.042 0.066 0.001 0.115 0.042 0.178 0.046-0.029-0.044-0.043-0.153-0.051-0.2-0.020-0.128-0.033-0.261-0.042-0.391z"></path>
<path d="M22.671 3.061c-0.010-0.013-0.042-0.024-0.057-0.034-0.045-0.033-0.082-0.025-0.142-0.025-0.25 0-0.502-0.005-0.753 0.004-0.273 0.010-0.545 0.038-0.82 0.037-0.277 0-0.555 0-0.832 0-0.323 0-0.648-0.008-0.97-0.001-0.246 0.004-0.49 0.023-0.736 0.022-0.269-0.001-0.539 0.011-0.808 0.030-0.233 0.016-0.467 0.009-0.701 0.009-0.415 0-0.83 0-1.245 0-0.477 0-0.955 0.001-1.433 0-0.452-0.001-0.903 0.033-1.356 0.040-0.228 0.004-0.454 0.025-0.682 0.037-0.264 0.011-0.531 0.004-0.796 0.004-0.43 0-0.867 0.015-1.294-0.041-0.153-0.019-0.311-0.033-0.46-0.067-0.023-0.005-0.053-0.009-0.075-0.016-0.032-0.013-0.035-0.037-0.061-0.049-0.010-0.004-0.018-0.005-0.027-0.006l1.376 1.198c0.030 0.001 0.065 0.005 0.094 0.009 0.403 0.038 0.817 0.016 1.223 0.016 0.473 0 0.941-0.024 1.412-0.080 0.355-0.043 0.703-0.062 1.063-0.061 0.245 0 0.491-0.001 0.736-0.001 0.319 0 0.638 0.001 0.958 0 0.291-0.001 0.581 0.022 0.873 0.020 0.51-0.001 1.021 0 1.531 0 0.249 0 0.507 0.022 0.754-0.011 0.224-0.029 0.449-0.049 0.676-0.049 0.187 0 0.372 0.015 0.558 0.022 0.119 0.004 0.237 0.008 0.354 0.024 0.143 0.019 0.271 0.037 0.414 0.035 0.071 0 0.142 0.005 0.211 0.001 0.033-0.002 0.064-0.020 0.096-0.023l0.924-1.034c-0.002-0.002-0.001-0.006-0.003-0.009z"></path>
<path d="M17.72 24.373c0.046-0.001 0.094 0.009 0.137-0.008 0.027-0.009 0.048-0.047 0.080-0.057 0.11-0.038 0.259 0 0.353 0.052 0.228 0.127 0.377 0.292 0.552 0.483 0.152 0.164 0.319 0.329 0.443 0.514 0.111 0.166 0.22 0.302 0.272 0.497 0.019 0.075 0.044 0.148 0.064 0.221 0.020 0.077 0.006 0.147 0.015 0.224 0.030 0.269 0.192 0.516 0.273 0.768 0.086 0.269 0.246 0.44 0.459 0.624 0.17 0.147 0.603 0.462 0.844 0.315 0.089-0.054 0.151-0.213 0.19-0.307 0.050-0.12 0.047-0.234 0.043-0.363-0.001-0.109-0.011-0.1-0.099-0.15-0.072-0.041-0.132-0.086-0.215-0.109 0.085-0.092 0.261 0.002 0.349 0.037 0.119 0.044 0.273 0.099 0.345 0.206 0.147 0.219 0.056 0.466 0.089 0.707 0.013 0.082 0.015 0.058 0.091 0.071 0.094 0.015 0.128 0.048 0.232 0.020 0.204-0.056 0.454-0.096 0.619-0.234 0.109-0.090 0.193-0.201 0.254-0.328 0.056-0.114 0.139-0.25 0.175-0.372 0.032-0.111 0.025-0.296-0.071-0.375 0.081 0.084 0.149 0.167 0.216 0.261 0.157 0.218 0.221 0.439 0.286 0.696 0.043 0.173 0.047 0.335 0.046 0.514-0.002 0.22-0.127 0.39-0.237 0.574-0.106 0.178-0.237 0.323-0.387 0.464-0.172 0.162-0.412 0.263-0.624 0.364-0.252 0.119-0.544 0.083-0.816 0.081-0.316-0.002-0.624-0.133-0.903-0.271-0.105-0.051-0.213-0.14-0.309-0.206-0.086-0.058-0.171-0.119-0.235-0.202-0.129-0.166-0.224-0.318-0.302-0.512-0.058-0.145-0.13-0.288-0.201-0.428-0.087-0.176-0.21-0.33-0.263-0.523-0.034-0.123-0.051-0.215-0.128-0.323-0.054-0.075-0.1-0.156-0.153-0.232-0.144-0.21-0.267-0.416-0.442-0.607-0.123-0.133-0.257-0.277-0.4-0.388-0.063-0.049-0.088-0.087-0.14-0.144-0.056-0.058-0.171-0.087-0.207-0.162-0.033-0.070-0.006-0.228-0.003-0.307 0.003-0.155 0.061-0.269 0-0.425-0.062-0.157-0.18-0.311-0.287-0.443-0.064-0.081-0.168-0.124-0.252-0.178-0.146-0.095-0.353-0.196-0.468-0.325 0.182-0.032 0.361 0.056 0.519 0.134 0.135 0.067 0.226 0.068 0.378 0.088 0.161 0.020 0.309 0.069 0.472 0.063z"></path>
<path d="M15.984 24.301c-0.021 0.066-0.083 0.125-0.115 0.19-0.102 0.204-0.183 0.439-0.258 0.657-0.073 0.214-0.059 0.416-0.061 0.638 0 0.059-0.004 0.12-0.002 0.178 0.004 0.115 0.040 0.181 0.077 0.288 0.057 0.172 0.052 0.378 0.067 0.559 0.018 0.221 0.010 0.45-0.049 0.664-0.057 0.201-0.147 0.383-0.235 0.571-0.1 0.211-0.193 0.42-0.326 0.612-0.138 0.199-0.276 0.419-0.471 0.566-0.207 0.155-0.409 0.244-0.653 0.331-0.287 0.105-0.539 0.156-0.85 0.128-0.224-0.019-0.512-0.006-0.707-0.134-0.128-0.085-0.261-0.202-0.374-0.307-0.116-0.106-0.235-0.214-0.238-0.376-0.001-0.072-0.013-0.157 0.002-0.227 0.015-0.067 0.085-0.13 0.13-0.182-0.068 0.008-0.138-0.005-0.205 0.002-0.095 0.010-0.176 0.1-0.268 0.143-0.288 0.133-0.238 0.492-0.237 0.76 0 0.18-0.009 0.325 0.071 0.491 0.099 0.204 0.206 0.358 0.406 0.479 0.211 0.128 0.421 0.215 0.65 0.305 0.319 0.127 0.622 0.263 0.965 0.31 0.258 0.035 0.562 0.108 0.805-0.016 0.199-0.1 0.351-0.278 0.538-0.395 0.104-0.065 0.24-0.095 0.335-0.171 0.109-0.086 0.171-0.211 0.254-0.319 0.17-0.215 0.345-0.412 0.462-0.667 0.147-0.323 0.218-0.678 0.29-1.023 0.052-0.25 0.072-0.528 0.070-0.783-0.001-0.214 0.013-0.43 0.002-0.644-0.009-0.196-0.141-0.362-0.108-0.568 0.032-0.204 0.038-0.41 0.078-0.614 0.038-0.193 0.102-0.384 0.127-0.579 0.037-0.287 0.056-0.576 0.090-0.863 0.011-0.109 0.041-0.352 0.14-0.426-0.11 0.23-0.291 0.435-0.44 0.641-0.077 0.108-0.162 0.195-0.216 0.315-0.066 0.142-0.11 0.246-0.143 0.405z"></path>
</svg>
