<!-- Generated by IcoMoon.io -->
<svg version="1.1" xmlns="http://www.w3.org/2000/svg" width="32" height="32" viewBox="0 0 32 32">
<title>bad_blood</title>
<path d="M28.857 11.792c-0.053-0.111-0.050-0.223-0.082-0.338-0.035-0.125-0.137-0.226-0.167-0.351-0.037-0.156-0.001-0.364-0.001-0.525 0-0.223-0.001-0.444-0.001-0.666 0.001-0.261-0.064-0.51-0.060-0.766 0.001-0.111-0.007-0.223-0.001-0.334 0.007-0.122 0.068-0.235 0.052-0.36-0.025-0.178-0.113-0.374-0.184-0.537-0.098-0.228-0.281-0.37-0.41-0.571-0.042-0.067-0.053-0.121-0.084-0.198-0.050-0.122-0.144-0.22-0.194-0.345-0.072-0.183-0.090-0.385-0.083-0.588-0.334 0.178-0.667 0.356-1 0.534l-1.731 2.423c0.201-0.033 0.374-0.139 0.576-0.121 0.13 0.010 0.25 0.057 0.381 0.064 0.079 0.003 0.159-0.011 0.238-0.004 0.219 0.023 0.291 0.308 0.394 0.482 0.060 0.101 0.139 0.177 0.173 0.292 0.035 0.12 0.022 0.241 0.056 0.36 0.035 0.13 0.071 0.221 0.149 0.313 0.063 0.073 0.125 0.128 0.177 0.216 0.105 0.175 0.298 0.508 0.291 0.728-0.001 0.102-0.033 0.208-0.045 0.314 0.508 0.679 0.531 1.667 0.613 2.502 0.063 0.628 0.086 1.277-0.076 1.896-0.122 0.469-0.553 0.807-0.761 1.203-0.029 0.132-0.019 0.266-0.019 0.402 0 0.102-0.041 0.319 0.012 0.406 0.128 0.204 0.669 0.039 0.825-0.048 0.101-0.057 0.2-0.148 0.232-0.268 0.038-0.145 0.091-0.298 0.125-0.446 0.053-0.221 0.073-0.467 0.122-0.689 0.045-0.208 0.13-0.401 0.207-0.595 0.060-0.155 0.121-0.295 0.189-0.447 0.048-0.107 0.111-0.185 0.14-0.302 0.019-0.076 0.029-0.137 0.057-0.216 0.073-0.207 0.065-0.435 0.106-0.65 0.031-0.166-0.020-0.342 0.010-0.507 0.037-0.192 0.132-0.38 0.169-0.576 0.020-0.098 0.001-0.196 0.019-0.292 0.020-0.111 0.058-0.204 0.057-0.322-0.003-0.425-0.289-0.703-0.467-1.074z"></path>
<path d="M13.396 19.943c0.132-0.694 0.371-1.267 0.698-1.774l-4.241 1.499c0.139-0.023 0.251 0.041 0.38 0.075 0.198 0.053 0.455 0.041 0.631 0.162 0.292 0.2 0.332 0.669 0.356 0.985 0.012 0.158-0.015 0.322 0.010 0.477 0.026 0.152 0.058 0.279 0.057 0.436-0.001 0.132-0.003 0.262 0 0.393 0.001 0.143-0.057 0.288-0.052 0.423 0.003 0.083 0.041 0.186 0.053 0.276 0.015 0.103 0.077 0.198 0.117 0.294 0.042 0.101 0.042 0.177 0.056 0.28 0.016 0.125 0.097 0.22 0.12 0.343 0.027 0.149 0.005 0.323 0.004 0.481 0.046 0.149 0.079 0.304 0.083 0.47 0.018 0.675-0.41 1.059-0.923 1.366-0.019 0.050-0.034 0.103-0.056 0.147-0.065 0.132-0.144 0.272-0.179 0.404-0.034 0.13-0.111 0.348-0.025 0.47 0.069 0.099 0.211 0.148 0.322 0.155 0.31 0.019 0.469-0.125 0.626-0.386 0.145-0.239 0.287-0.473 0.462-0.692 0.023-0.029 0.073-0.044 0.094-0.071 0.016-0.024 0.007-0.069 0.024-0.092 0.027-0.035 0.067-0.056 0.102-0.084 0.137-0.109 0.328-0.198 0.446-0.319 0.094-0.097 0.164-0.269 0.243-0.385 0.082-0.121 0.179-0.234 0.256-0.357 0.064-0.103 0.105-0.228 0.151-0.344 0.038-1.541-0.102-3.126 0.185-4.63z"></path>
<path d="M23.226 6.219c0.163 0.069 0.334 0.029 0.506 0.058 0.109 0.019 0.201 0.038 0.308 0.046 0.189 0.015 0.294 0.129 0.472 0.175 0.092 0.024 0.27 0.022 0.381 0.072 0.046-0.053 0.095-0.103 0.154-0.147 0.126-0.090 0.266-0.109 0.401-0.14l0.404-0.283c0.037-0.056 0.064-0.109 0.083-0.158-0.054 0.004-0.111 0.004-0.179 0.003-0.33-0.004-0.654 0.063-0.988 0.060-0.466-0.001-0.932 0-1.4 0-0.135 0-0.296-0.023-0.425 0.010-0.026 0.12 0.196 0.265 0.285 0.303z"></path>
<path d="M20.751 8.213c0.253 0.084 0.514 0.163 0.772 0.231 0.221 0.057 0.448 0.109 0.66 0.194 0.079 0.033 0.16 0.056 0.242 0.079 0.075-0.067 0.162-0.117 0.265-0.152 0.116-0.041 0.197-0.064 0.268-0.105 0.050-0.114 0.117-0.209 0.215-0.273-0.001-0.011-0.004-0.019-0.004-0.030v-0.102c0.001 0 0.004 0 0.005 0 0.001-0.026 0-0.052 0.004-0.079 0.011-0.065 0.039-0.111 0.079-0.145-0.462 0.050-0.921 0.091-1.388 0.091h-0.492c-0.319 0-0.719-0.072-1.023 0.011 0.099 0.156 0.217 0.22 0.397 0.28z"></path>
<path d="M18.905 10.46c0.185 0.054 0.429 0.019 0.626 0.042 0.084 0.010 0.164-0.001 0.249 0.010 0.052 0.007 0.102 0.028 0.152 0.048 0.037-0.024 0.075-0.049 0.117-0.069 0.129-0.064 0.219-0.095 0.317-0.204 0.068-0.075 0.122-0.143 0.19-0.204-0.076-0.023-0.147-0.041-0.284-0.048-0.275-0.012-0.549-0.027-0.824-0.038-0.333-0.015-0.646-0.095-0.984-0.073-0.091 0.005-0.183 0.012-0.275 0.018-0.044 0.003-0.227-0.013-0.265 0.019-0.268 0.232 0.862 0.465 0.98 0.5z"></path>
<path d="M16.878 11.966c0.155 0.076 0.343 0.163 0.527 0.212 0.137-0.16 0.302-0.228 0.52-0.279 0.169-0.039 0.313-0.118 0.467-0.183l0.226-0.156c-0.107-0.016-0.2-0.057-0.311-0.071-0.265-0.031-0.527-0.105-0.795-0.109-0.355-0.005-0.709 0.001-1.065 0.001-0.139 0-0.371-0.039-0.499 0.008 0.211 0.298 0.618 0.423 0.93 0.576z"></path>
<path d="M14.445 13.167c0.124 0.064 0.202 0.106 0.344 0.147 0.188 0.053 0.328 0.205 0.55 0.223l0.149-0.061c0.092-0.117 0.181-0.241 0.308-0.334 0.072-0.052 0.147-0.087 0.223-0.113-0.287-0.099-0.631-0.152-0.931-0.149-0.26 0.003-0.504-0.011-0.754-0.057-0.075-0.012-0.126-0.022-0.202-0.023-0.171-0.004-0.302 0.046-0.174 0.155 0.117 0.098 0.341 0.139 0.487 0.213z"></path>
<path d="M11.951 14.381c0.196 0.094 0.351 0.226 0.557 0.308 0.034 0.003 0.068 0.010 0.102 0.018 0.030 0.042 0.068 0.075 0.116 0.098 0.058 0.022 0.124 0.007 0.182 0.023 0.090 0.024 0.178 0.102 0.266 0.145 0.098-0.069 0.189-0.144 0.26-0.231 0.116-0.141 0.224-0.264 0.353-0.367-0.11-0.037-0.23-0.071-0.341-0.101-0.268-0.073-0.538-0.046-0.807-0.116-0.363-0.092-0.694-0.178-1.078-0.111-0.069 0.128 0.307 0.293 0.39 0.333z"></path>
<path d="M7.55 17.806c0.105 0.054 0.254 0.054 0.366 0.095 0.294 0.105 0.621 0.045 0.908 0.183 0.14-0.178 0.257-0.378 0.41-0.552 0.057-0.064 0.118-0.122 0.185-0.178-0.037 0.008-0.072 0.019-0.107 0.026-0.17 0.033-0.321 0.007-0.488 0.033-0.361 0.056-0.726 0.184-1.089 0.184-0.125 0-0.478 0.058-0.185 0.209z"></path>
<path d="M7.327 19.673c0.052-0.095 0.113-0.183 0.178-0.269l-0.159-0.308c-0.106 0.048-0.236 0.016-0.349 0.041-0.22 0.045-0.443 0.188-0.667 0.201-0.128 0.007-0.182-0.012-0.314 0.042-0.139 0.057-0.307 0.124-0.429 0.2 0.291 0.079 0.602-0.079 0.9-0.019 0.124 0.026 0.245 0.037 0.372 0.057 0.13 0.019 0.249 0.029 0.379 0.039 0.030 0.003 0.060 0.010 0.090 0.016z"></path>
<path d="M29.564 4.037c-0.405 0.332-0.879 0.641-1.334 0.954-0.416 0.287-0.785 0.584-1.215 0.864-0.867 0.565-1.689 1.167-2.479 1.771-0.319 0.243-0.595 0.438-0.939 0.659-0.334 0.215-0.803 0.523-1.089 0.761-0.281 0.236-0.435 0.485-0.72 0.724-0.171 0.143-0.374 0.268-0.553 0.409-0.408 0.322-0.864 0.624-1.287 0.942-0.352 0.264-0.681 0.525-1.064 0.775-0.709 0.463-1.555 0.864-2.203 1.359-0.538 0.409-1.152 0.785-1.707 1.184-0.554 0.4-0.993 0.783-1.621 1.151-0.48 0.281-0.828 0.504-1.367 0.743-0.299 0.133-0.632 0.246-0.896 0.432-0.42 0.296-0.692 0.646-1.093 0.954-0.235 0.181-0.455 0.336-0.639 0.533-0.208 0.223-0.306 0.424-0.531 0.648-0.621 0.618-1.075 1.257-1.699 1.877-0.491 0.488-0.671 0.919-1.053 1.396-0.184 0.228-0.336 0.423-0.559 0.643-0.25 0.246-0.37 0.496-0.612 0.749s-0.357 0.51-0.511 0.758c-0.135 0.217-0.247 0.434-0.374 0.65-0.253 0.432-0.516 0.864-0.739 1.295-0.162 0.31-0.303 0.599-0.421 0.902-0.057 0.143-0.113 0.296-0.201 0.443-0.049 0.13-0.097 0.26-0.143 0.387 0.186-0.275 0.391-0.55 0.59-0.829 0.135-0.19 0.319-0.356 0.473-0.54 0.099-0.118 0.068-0.223 0.145-0.334 0.065-0.092 0.221-0.202 0.302-0.299 0.128-0.152 0.221-0.319 0.333-0.473 0.197-0.268 0.359-0.526 0.535-0.791 0.13-0.194 0.26-0.442 0.436-0.621 0.227-0.23 0.609-0.446 0.905-0.651 0.825-0.575 1.612-1.135 2.477-1.685 0.353-0.224 0.741-0.417 1.014-0.68 0.064-0.063 0.118-0.137 0.193-0.193 0.164-0.124 0.413-0.246 0.598-0.349 0.326-0.182 0.643-0.378 0.972-0.55 0.447-0.235 0.863-0.507 1.31-0.752 0.321-0.177 0.663-0.355 0.974-0.534 0.299-0.173 0.242-0.326 0.463-0.503 0.139-0.111 0.36-0.219 0.593-0.322 0.121-0.314 0.265-0.636 0.556-0.965 0.217-0.243 0.454-0.371 0.777-0.572 0.322-0.198 0.462-0.394 0.73-0.614 0.612-0.503 1.42-0.981 2.177-1.394 0.117-0.064 0.228-0.106 0.329-0.13 0.031-0.027 0.060-0.053 0.090-0.080 0.024-0.008 0.050-0.015 0.075-0.023 0.077-0.027 0.121-0.060 0.194-0.045 0.069 0.013 0.145 0.079 0.22 0.099 0.044 0.011 0.103 0.007 0.148 0.022 0.341 0.125 0.508 0.531 0.822 0.709 0.181 0.101 0.374 0.254 0.504 0.419 0.16 0.198 0.167 0.416 0.221 0.65 0.027 0.12 0.087 0.238 0.122 0.357 0.045 0.154 0.069 0.283 0.151 0.424 0.033 0.060 0.050 0.114 0.064 0.171 0.427 0.811 0.605 1.829 0.641 2.639 0.050 1.078-0.217 2.049-0.69 3.006-0.228 0.461-0.421 0.954-0.738 1.363-0.151 0.194-0.404 0.347-0.587 0.5-0.027 0.049-0.056 0.095-0.088 0.139-0.099 0.128-0.163 0.171-0.2 0.319-0.053 0.212-0.118 0.398-0.118 0.625 0 0.171 0.011 0.336 0.238 0.332 0.169-0.003 0.401-0.205 0.493-0.33 0.144-0.192 0.254-0.415 0.4-0.609 0.211-0.281 0.473-0.61 0.587-0.944 0.148-0.439 0.387-0.777 0.67-1.136 0.076-0.098 0.143-0.207 0.211-0.294 0.042-0.053 0.101-0.097 0.143-0.152 0.069-0.095 0.179-0.224 0.23-0.328 0.039-0.077 0.053-0.186 0.087-0.27 0.073-0.178 0.030-0.374 0.103-0.563 0.054-0.141 0.069-0.241 0.19-0.341 0.163-0.137 0.333-0.204 0.347-0.435 0.012-0.177-0.001-0.357-0.001-0.535 0-0.2-0.012-0.348-0.073-0.537-0.057-0.177-0.045-0.348-0.045-0.537 0-0.603-0.060-1.189-0.060-1.791 0-0.376 0.109-0.707 0.193-1.083 0.049-0.219 0.083-0.438-0.015-0.647-0.072-0.158-0.058-0.295-0.058-0.478 0-0.099-0.013-0.207 0.010-0.304 0.034-0.141 0.14-0.238 0.114-0.395-0.038-0.226-0.105-0.421-0.213-0.628-0.151-0.287-0.33-0.582-0.385-0.906-0.042-0.261 0.034-0.556 0.073-0.811 0.020-0.137 0.013-0.298 0.046-0.434l-0.054 0.035c0.065-0.197 0.079-0.416 0.136-0.612 0.019-0.067 0.041-0.133 0.065-0.197 0.003-0.007 0.005-0.016 0.008-0.026 0.008-0.024 0.022-0.049 0.033-0.072 0.058-0.122 0.128-0.239 0.201-0.353 0.44-0.241 0.848-0.553 1.223-0.815 0.502-0.351 0.694-0.728 0.761-1.044 0.039-0.181 0.173-0.37 0.217-0.545 0.030-0.121 0.065-0.149 0.217-0.284 0.256-0.224 0.491-0.448 0.723-0.667 0.302-0.285 0.656-0.607 0.894-0.896 0.152-0.183 0.33-0.308 0.525-0.492 0.177-0.166 0.27-0.3 0.405-0.463 0.12-0.147 0.234-0.298 0.352-0.448 0.076-0.097 0.152-0.216 0.268-0.307 0.013-0.011 0.030-0.020 0.045-0.030 0.026-0.046 0.052-0.092 0.076-0.139-0.015 0.012-0.030 0.024-0.045 0.037z"></path>
<path d="M23.978 7.28c0.044-0.012 0.083-0.027 0.124-0.041 0.010-0.167 0.073-0.321 0.101-0.487 0.038-0.23 0.087-0.481 0.077-0.716-0.005-0.13-0.020-0.262-0.033-0.393-0.003-0.041-0.005-0.080-0.030-0.116 0.005 0.050-0.027 0.099-0.045 0.145-0.039 0.095-0.087 0.19-0.102 0.292-0.029 0.178-0.067 0.325-0.137 0.496-0.102 0.249-0.224 0.485-0.336 0.73-0.056 0.124-0.095 0.192-0.095 0.325l0.322-0.129c0.035-0.049 0.086-0.088 0.154-0.107z"></path>
<path d="M21.702 9.166c0.003-0.013 0.005-0.027 0.007-0.037 0.016-0.246 0.004-0.493 0.031-0.737 0.035-0.317 0.052-0.633 0.086-0.949 0.016-0.137 0.038-0.273 0.034-0.412-0.050 0.008-0.129 0.166-0.154 0.211-0.037 0.065-0.073 0.135-0.097 0.205-0.057 0.175-0.099 0.359-0.149 0.537-0.095 0.341-0.196 0.671-0.321 1.002-0.098 0.261-0.171 0.527-0.246 0.795l0.429-0.228c0.079-0.181 0.212-0.307 0.379-0.387z"></path>
<path d="M18.955 11.21c0.042-0.058 0.084-0.117 0.141-0.167 0.054-0.046 0.116-0.080 0.181-0.109-0.044-0.697-0.084-1.393-0.13-2.090 0.011 0.045-0.010 0.065-0.016 0.105s0.001 0.076-0.003 0.117c-0.011 0.082-0.052 0.166-0.095 0.235-0.058 0.092-0.072 0.182-0.095 0.288-0.031 0.148-0.103 0.283-0.14 0.429-0.023 0.098-0.020 0.204-0.034 0.303-0.026 0.192-0.075 0.38-0.084 0.574-0.004 0.098 0.011 0.196 0.016 0.292z"></path>
<path d="M16.361 12.646c0.003-0.082 0.079-0.182 0.106-0.256 0.056-0.151 0.099-0.304 0.162-0.453 0.056-0.13 0.122-0.254 0.17-0.387 0.101-0.287 0.136-0.587 0.311-0.844-0.075 0.366-0.099 0.739-0.137 1.11-0.025 0.232 0.001 0.459-0.041 0.69z"></path>
<path d="M15.014 13.83c-0.015-0.038-0.033-0.076-0.039-0.117-0.015-0.088 0.007-0.149-0.033-0.239-0.097-0.226-0.116-0.408-0.114-0.652 0.003-0.136-0.012-0.269-0.023-0.405-0.005-0.060 0.008-0.182-0.012-0.249-0.118-0.005-0.132 0.606-0.143 0.675-0.034 0.213-0.099 0.432-0.164 0.637-0.050 0.162-0.042 0.311-0.045 0.478l0.238-0.024c0.113-0.031 0.226-0.065 0.336-0.105z"></path>
<path d="M12.482 15.371c0.005-0.254 0.019-0.507 0.023-0.761 0.005-0.261 0.071-0.542 0.121-0.796 0.020-0.103 0.098-0.378 0.001-0.457-0.046 0.034-0.028 0.103-0.037 0.154-0.007 0.043-0.023 0.098-0.039 0.14-0.046 0.11-0.106 0.226-0.13 0.345-0.010 0.049-0.008 0.083-0.027 0.135-0.057 0.151-0.152 0.253-0.243 0.383-0.082 0.114-0.16 0.241-0.2 0.375-0.019 0.067-0.060 0.156-0.069 0.224l0.465 0.326c0.045-0.024 0.090-0.048 0.136-0.068z"></path>
<path d="M8.49 18.396c-0.003-0.039-0.003-0.080-0.010-0.117-0.011-0.065-0.011-0.141-0.026-0.202-0.022-0.098-0.043-0.178-0.060-0.284-0.020-0.132-0.054-0.254-0.080-0.383-0.022-0.121-0.035-0.303-0.094-0.394-0.019 0.041-0.023 0.098-0.035 0.143-0.064 0.234-0.17 0.431-0.209 0.677-0.046 0.3-0.041 0.597-0.061 0.896 0.19-0.107 0.387-0.211 0.575-0.334z"></path>
<path d="M9.929 16.061c0.302 0.159 0.674 0.122 0.949 0.361l0.122-0.065c0.12-0.205 0.265-0.385 0.462-0.53 0.056-0.041 0.117-0.077 0.178-0.113-0.084 0.011-0.171 0.019-0.258 0.023-0.171 0.010-0.318-0.037-0.487-0.034-0.366 0.005-0.745 0.082-1.103 0.031-0.124-0.018-0.481-0.008-0.212 0.182 0.097 0.068 0.245 0.090 0.349 0.144z"></path>
<path d="M9.86 16.953c0.056-0.321 0.073-0.64 0.152-0.959 0.060-0.241 0.183-0.428 0.268-0.655 0.016-0.043 0.026-0.099 0.048-0.139 0.050 0.095 0.048 0.279 0.060 0.4 0.012 0.132 0.037 0.257 0.045 0.39 0.005 0.107 0.022 0.189 0.034 0.288 0.008 0.063 0.003 0.139 0.008 0.204 0.005 0.064-0.001 0.135-0.003 0.2z"></path>
<path d="M6.65 20.318c-0.086-0.065-0.126-0.16-0.155-0.261-0.033-0.113-0.056-0.224-0.090-0.336-0.029-0.092-0.039-0.194-0.045-0.291-0.003-0.075-0.012-0.151 0.008-0.223 0.023-0.090 0.080-0.159 0.116-0.242 0.030-0.071 0.049-0.149 0.072-0.223-0.010 0.129 0.033 0.25 0.079 0.368 0.072 0.188 0.154 0.371 0.221 0.559 0.035 0.094 0.054 0.192 0.095 0.284 0.020 0.046 0.077 0.099-0.302 0.364z"></path>
</svg>
