<!-- Generated by IcoMoon.io -->
<svg version="1.1" xmlns="http://www.w3.org/2000/svg" width="31" height="32" viewBox="0 0 31 32">
<title>bad_luck</title>
<path d="M28.648 25.074c-0.354 0.535-1.948 0.964-2.503 1.321-0.378 0.252-0.63 0.676-1.014 0.898-0.566 0.313-1.327 0.338-1.922 0.535-1.141 0.384-2.196 1.342-3.326 1.686-0.499 0.151-1.014 0.404-1.509 0.495-0.53 0.090-0.978 0.288-1.473 0.495-0.182 0.075-0.505 0.111-0.767 0.181-0.056-1.014-0.196-2.174-0.196-3.017 0-1.947-0.444-3.834-0.444-5.762-0.005-1.952 0.288-3.895 0.222-5.842-0.026-0.696 0.236-1.342 0.288-2.028 0.858-0.46 1.896-0.632 2.674-1.252 0.918-0.727 1.962-0.995 3.083-1.318 1.78-0.519 3.587-1.61 5.252-2.391 0.222-0.106 0.67-0.198 1.085-0.313-0.127 0.71-0.020 1.564-0.020 2.255-0.005 1.726-0.075 3.769 0 5.495 0.056 1.139 0.096 2.366 0.278 3.471 0.167 1.055 0.455 1.993 0.45 3.099-0.005 0.705 0.242 1.403-0.156 1.993zM11.19 29.18c-0.691-0.176-1.236-0.509-1.852-0.832-0.893-0.465-1.745-1.206-2.735-1.448-0.787-0.198-1.519-0.415-2.266-0.807-0.368-0.198-1.316-0.677-1.504-1.045-0.283-0.57 0.156-1.524 0.283-2.084 0.288-1.272 0.45-2.62 0.182-3.896-0.415-1.983-0.566-4.137-0.772-6.165-0.141-1.408 0.45-3.023 0.283-4.415 0.247 0.162 0.54 0.313 0.686 0.393 0.661 0.389 1.63 0.354 1.983 0.894 0.566 0.333 1.216 0.807 1.811 1.094 0.833 0.41 1.646 0.399 2.377 0.918 0.606 0.434 1.172 0.521 1.852 0.778 0.656 0.247 1.302 0.575 1.988 0.747 0.757 0.187 1.589 0.056 1.271 0.934-0.252 0.716-0.252 1.181-0.12 1.952 0.236 1.403-0.052 2.543-0.304 3.922-0.177 0.933-0.313 1.398-0.056 2.346 0.359 1.271 0.696 2.649 0.797 3.966 0.046 0.611-0.282 2.988 0.031 4.345-0.59-0.132-1.055-0.5-1.64-0.696-0.747-0.253-1.549-0.707-2.295-0.899zM4.832 6.631c0.479-0.283 1.014-0.429 1.484-0.691 0.847-0.459 1.66-0.59 2.578-0.893 0.993-0.333 1.599-1.135 2.578-1.439 0.898-0.276 1.861-0.408 2.735-0.771 0.323-0.137 0.57-0.465 0.882-0.576 0.42-0.151 0.248-0.040 0.601 0.208 0.641 0.459 1.54 0.554 2.266 0.927 0.918 0.484 1.569 1.337 2.549 1.736 1.004 0.404 1.882 0.681 2.84 1.257 0.429 0.267 0.807 0.308 1.262 0.509 0.413 0.177 0.721 0.54 1.13 0.747 0.342 0.177 0.797 0.278 1.247 0.309-0.439 0.276-0.884 0.655-1.227 0.812-0.424 0.191-0.787 0.379-1.247 0.509-1.205 0.368-2.37 0.918-3.572 1.342-1.221 0.434-2.795 0.712-3.825 1.509-0.404 0.308-0.918 0.863-1.453 0.863-0.54-0.004-1.267-0.535-1.797-0.712-0.893-0.313-1.705-0.752-2.629-0.974-1.004-0.242-1.347-0.453-2.16-1.054-0.379-0.272-0.822-0.429-1.256-0.641-0.849-0.404-1.661-0.842-2.498-1.267-0.616-0.308-1.281-0.691-1.988-0.867 0.030-0.037 0.050-0.066 0.076-0.106 0.459-0.022 1.033-0.495 1.422-0.738zM29.586 22.248c-0.096-1.135-0.236-2.245-0.384-3.37-0.116-0.929 0.020-1.892-0.146-2.816-0.404-2.255-0.121-4.985-0.141-7.287-0.056-0.075-0.111-0.191-0.192-0.287 0.090-0.061 0.167-0.132 0.198-0.212-0.364-0.212-0.606-0.576-1.066-0.616-1.195-1.257-3.129-1.58-4.757-2.271-1.323-0.57-2.523-1.554-3.764-2.271-0.908-0.535-1.979-0.792-2.837-1.342-0.267-0.181-0.565-0.54-0.813-0.676-0.398-0.222-0.262-0.037-0.701 0.172-0.499 0.237-1.13 0.156-1.644 0.389-0.373 0.165-0.595 0.438-0.924 0.686-0.408 0.308-0.847 0.358-1.302 0.575-0.363 0.167-0.67 0.45-1.024 0.641-0.822 0.455-1.528 0.646-2.457 0.944-0.439 0.141-0.887 0.413-1.316 0.625-0.677 0.328-1.464 0.484-2.099 0.893-0.484 0.309-1.434 0.803-1.807 1.352-0.020 0.004-0.040 0-0.061 0.004 0.005 0.015 0.010 0.037 0.020 0.061-0.031 0.045-0.056 0.090-0.071 0.141 0.035 0.004 0.061 0.015 0.096 0.026 0.010 0.127 0.005 0.267-0.009 0.413l-0.020 0.004c0.010 0.004 0.015 0.015 0.015 0.022-0.092 0.651-0.409 1.413-0.515 1.892-0.217 1.039-0.413 2.089-0.413 3.153 0.005 1.857 0.030 3.8 0.267 5.627 0.217 1.629 0.344 3.249 0.408 4.863 0.026 0.757-0.090 1.429-0.050 2.175 0.58 0.162 0.858 0.297 1.337 0.707 0.364 0.308 0.989 0.988 1.408 1.195 0.253 0.132 0.747 0.022 1.050 0.066 0.453 0.066 0.969 0.172 1.408 0.323 0.53 0.187 0.837 0.515 1.276 0.838 0.62 0.459 1.327 0.559 2.018 0.847 0.783 0.328 1.504 0.696 2.372 0.878 0.661 0.13 2.467 1.599 3.083 1.311 0.010 0.029 0.020 0.051 0.030 0.071 0.682 0.071 1.358-0.54 1.938-0.661 0.813-0.167 1.55-0.665 2.347-0.908 1.478-0.459 2.82-1.569 4.264-2.073 0.665-0.222 1.372-0.399 2.002-0.722 0.5-0.262 0.904-0.989 1.363-1.302 0.5-0.342 1.024-0.066 1.458-0.308 0.257-0.146 0.177-0.378 0.212-0.672 0.127-1.241 0.040-1.861-0.056-3.108z"></path>
<path d="M14.333 8.014c0.448 0.151 1.79 0.216 2.053-0.162 0.217-0.304 0.111-0.915-0.221-1.111-0.555-0.323-1.126-0.051-1.681 0.313-0.807-0.029-0.767 0.752-0.151 0.96z"></path>
<path d="M21.992 19.815c0.005-0.011 0.015-0.015 0.026-0.026 0.005-0.022 0.014-0.041 0.019-0.066z"></path>
<path d="M21.922 19.952l0.075-0.137c-0.035 0.040-0.056 0.076-0.075 0.137z"></path>
<path d="M22.018 19.791c-0.192 0.615-0.884 1.448-0.192 1.851 0.484 0.283 1.444 0.097 1.726-0.368 0.555-0.943-1.089-1.948-1.533-1.483z"></path>
<path d="M8.304 19.084c-0.399 0.018-0.788 0.504-0.757 1.099 0.030 0.455 0.136 0.918 0.636 1.019 0.167 0.041 0.913-0.484 0.974-0.665 0.101-0.288-0.096-0.651-0.203-0.913-0.162-0.399-0.408-0.55-0.65-0.54z"></path>
</svg>
