<!-- Generated by IcoMoon.io -->
<svg version="1.1" xmlns="http://www.w3.org/2000/svg" width="32" height="32" viewBox="0 0 32 32">
<title>barkham_horror</title>
<path d="M24.572 25.97c-0.016-0.044-0.031-0.090-0.051-0.132-0.003-0.927-0.382-1.839-1.077-2.485-0.489-0.749-1.178-1.339-1.905-1.91-0.687-0.541-1.314-1.052-1.832-1.827-0.522-0.782-0.922-1.603-1.625-2.186-1.245-1.034-2.986-1.143-4.31-0.097-0.651 0.515-1.002 1.16-1.399 1.94-0.503 0.988-1.301 1.652-2.033 2.398-0.789 0.804-1.723 1.67-2.229 2.761-1.017 1.486-0.942 3.443 0.655 4.619 1.775 1.308 3.979 1.174 5.63 0.143 0.453 0.187 0.968 0.31 1.556 0.35 1.292 0.089 2.582-0.184 3.616-0.823 1.122 0.629 2.405 0.741 3.687-0.27 0.607-0.478 0.978-1.093 1.152-1.744l0.034 0.001c0.049-0.233 0.082-0.487 0.131-0.74z"></path>
<path d="M14.863 11.239c-0.551-2.444-1.901-6.681-4.944-5.029-1.346 0.731-1.728 2.358-1.969 3.871-0.266 1.668-0.366 3.473 0.434 5.029 0.381 0.741 1.009 1.014 1.605 0.965 0.109 0.108 0.228 0.21 0.363 0.299 1.167 0.773 2.691 0.315 3.605-0.623 1.13-1.16 1.269-2.897 0.905-4.512z"></path>
<path d="M8.434 18.106c-0.519-0.605-0.962-1.244-1.351-1.94-0.62-1.108-1.009-2.418-1.744-3.454-0.164-0.063-0.332-0.115-0.504-0.153-0.067 0.037-0.134 0.074-0.202 0.117-1.285 0.81-1.554 2.327-1.692 3.725-0.152 1.542-0.131 3.19 0.766 4.514 0.427 0.63 1.067 0.809 1.655 0.699 0.115 0.086 0.24 0.165 0.379 0.232 1.208 0.573 2.688-0.009 3.531-0.959 0.109-0.123 0.205-0.251 0.292-0.383-0.102-0.896-0.41-1.557-1.13-2.396z"></path>
<path d="M16.921 11.282c0.642-2.421 2.151-6.605 5.129-4.84 1.318 0.781 1.638 2.421 1.822 3.942 0.202 1.677 0.236 3.485-0.623 5.010-0.409 0.726-1.046 0.975-1.64 0.904-0.113 0.104-0.235 0.201-0.374 0.285-1.195 0.729-2.701 0.213-3.579-0.758-1.086-1.201-1.159-2.942-0.735-4.542z"></path>
<path d="M23.067 17.723c0.541-0.585 1.008-1.207 1.423-1.887 0.661-1.084 1.099-2.379 1.873-3.386 0.166-0.056 0.336-0.102 0.51-0.134 0.065 0.039 0.131 0.079 0.197 0.124 1.254 0.858 1.466 2.385 1.551 3.787 0.094 1.546 0.011 3.192-0.936 4.481-0.45 0.614-1.097 0.768-1.68 0.636-0.119 0.082-0.246 0.156-0.388 0.217-1.229 0.528-2.686-0.11-3.492-1.092-0.104-0.127-0.195-0.259-0.277-0.394 0.135-0.891 0.468-1.541 1.219-2.352z"></path>
<path d="M22.023 3.806c0.003-0.069 0.008-0.138 0.010-0.205 0.003-0.104 0.009-0.21 0.004-0.313-0.008-0.156-0.047-0.299-0.103-0.443-0.035-0.089-0.067-0.181-0.111-0.265-0.008-0.015-0.016-0.030-0.024-0.044-0.011-0.058-0.023-0.115-0.035-0.173-0.043-0.202-0.27-0.371-0.475-0.362-0.088 0.004-0.172 0.026-0.249 0.067-0.095 0.050-0.21 0.185-0.227 0.295-0.009 0.062-0.020 0.124-0.031 0.186-0.029 0.054-0.059 0.107-0.085 0.163-0.019 0.040-0.035 0.081-0.054 0.121-0.032 0.073-0.069 0.146-0.094 0.221-0.021 0.062-0.026 0.127-0.032 0.192-0.008 0.054-0.015 0.109-0.025 0.163-0.010 0.060-0.020 0.123-0.033 0.184-0.085 0.147-0.129 0.312-0.136 0.483-0.019 0.43 0.337 0.809 0.747 0.863 0.395 0.053 0.756-0.167 0.91-0.53 0.082-0.194 0.093-0.403 0.043-0.604z"></path>
<path d="M29.034 10.932l-0.006-0.016c-0.032-0.075-0.063-0.15-0.095-0.225-0.028-0.054-0.067-0.101-0.108-0.146-0.048-0.071-0.101-0.139-0.163-0.199-0.052-0.051-0.107-0.103-0.168-0.145-0.015-0.033-0.029-0.066-0.052-0.096-0.038-0.050-0.075-0.099-0.131-0.132-0.071-0.042-0.153-0.055-0.234-0.044-0.066 0.009-0.121 0.032-0.174 0.072-0.067 0.051-0.097 0.109-0.129 0.186l0.017-0.042c-0.013 0.031-0.028 0.062-0.040 0.094-0.002 0.005-0.004 0.010-0.005 0.015-0.012 0.010-0.025 0.018-0.037 0.029-0.008 0.007-0.017 0.015-0.025 0.022-0.006 0.006-0.014 0.011-0.020 0.016-0.019 0.014-0.036 0.029-0.054 0.044-0.012 0.009-0.023 0.019-0.034 0.028 0.008-0.006 0.017-0.013 0.024-0.019-0.021 0.017-0.043 0.034-0.060 0.055-0.003 0.004-0.006 0.007-0.009 0.011-0.026 0.020-0.051 0.039-0.077 0.059-0.029 0.036-0.057 0.072-0.084 0.108-0.059 0.059-0.1 0.129-0.122 0.21-0.043 0.074-0.065 0.154-0.065 0.24-0.010 0.077-0.021 0.103-0.014 0.163 0.011 0.083 0.022 0.167 0.034 0.25 0.029 0.123 0.085 0.229 0.169 0.32 0.042 0.071 0.098 0.127 0.169 0.169 0.091 0.083 0.198 0.139 0.32 0.168 0.084 0.011 0.167 0.023 0.251 0.034 0.084-0.011 0.167-0.023 0.25-0.034 0.122-0.029 0.23-0.085 0.32-0.168 0.103-0.066 0.183-0.155 0.243-0.264 0.038-0.082 0.085-0.163 0.106-0.251 0.017-0.043 0.023-0.088 0.021-0.135 0.028-0.126 0.023-0.253-0.017-0.379z"></path>
<path d="M11.222 3.647c-0.041-0.096-0.044-0.108-0.088-0.165-0.028-0.037-0.058-0.072-0.086-0.109-0-0.002-0.001-0.003-0.001-0.005 0.025 0.032 0.050 0.065 0.075 0.097-0.006-0.007-0.009-0.012-0.016-0.020l-0.059-0.077c-0.002-0.008-0.004-0.016-0.006-0.024-0.008-0.037-0.020-0.072-0.033-0.106-0.003-0.048-0.007-0.096-0.010-0.144-0.002-0.039-0.003-0.079-0.005-0.119-0.007-0.118-0.034-0.22-0.091-0.324-0.069-0.126-0.198-0.201-0.337-0.22-0.133-0.018-0.296 0.017-0.387 0.127-0.070 0.084-0.131 0.163-0.159 0.273-0.011 0.042-0.018 0.085-0.027 0.127-0.015 0.077-0.030 0.155-0.043 0.233-0.021 0.046-0.042 0.092-0.055 0.142-0.002 0.006-0.003 0.011-0.005 0.017-0.141 0.178-0.259 0.383-0.251 0.616 0.007 0.186 0.033 0.356 0.131 0.517 0.048 0.080 0.096 0.14 0.161 0.196 0.098 0.097 0.213 0.165 0.346 0.202 0.072 0.014 0.144 0.024 0.217 0.029 0.276 0.019 0.523-0.163 0.666-0.382 0.042-0.065 0.068-0.15 0.091-0.224 0.028-0.087 0.039-0.185 0.041-0.276 0-0.016 0.001-0.032 0.001-0.048-0.001-0.116-0.026-0.226-0.071-0.332z"></path>
<path d="M11.141 3.491c-0.006-0.008-0.013-0.017-0.020-0.025 0.005 0.006 0.009 0.012 0.013 0.017z"></path>
<path d="M4.523 10.586c-0.034-0.103-0.091-0.192-0.172-0.268l-0.077-0.059c-0.024-0.078-0.046-0.157-0.064-0.235-0.020-0.082-0.049-0.157-0.086-0.234 0-0.002 0-0.002-0.003-0.014-0.006-0.028-0.015-0.056-0.022-0.083-0.028-0.109-0.127-0.189-0.236-0.204-0.12-0.016-0.215 0.041-0.284 0.136-0.014 0.020-0.029 0.040-0.043 0.060-0.006 0.007-0.013 0.015-0.020 0.022-0.057 0.065-0.105 0.13-0.141 0.208-0.046 0.099-0.085 0.201-0.125 0.302-0.015 0.032-0.039 0.059-0.056 0.090-0.059 0.051-0.111 0.108-0.15 0.179-0.105 0.199-0.143 0.42-0.084 0.641 0.002 0.008 0.004 0.015 0.006 0.023 0.051 0.191 0.203 0.401 0.381 0.495 0.066 0.028 0.132 0.055 0.198 0.083 0.11 0.035 0.22 0.039 0.33 0.015 0.075-0 0.144-0.019 0.209-0.057 0.103-0.033 0.192-0.090 0.267-0.171 0.043-0.056 0.086-0.112 0.129-0.168 0.075-0.129 0.113-0.268 0.113-0.418 0.001-0.008 0.002-0.016 0.002-0.024 0.005-0.115-0.019-0.221-0.072-0.321z"></path>
</svg>
