<!-- Generated by IcoMoon.io -->
<svg version="1.1" xmlns="http://www.w3.org/2000/svg" width="26" height="32" viewBox="0 0 26 32">
<title>beast_thralls</title>
<path d="M17.903 2.817c0.896 0.375 3.229-1.719 2.781-2.797-0.667-0.156-1.839 0.641-2.457 0.953-0.828 0.417-1.344 0.761-1.797 1.579 0.677 0.593 1.421 0.615 2.183 0.068-0.235 0.072-0.475 0.14-0.709 0.197z"></path>
<path d="M20.221 5.344c-1.141 0.307-2.193 0.203-2.823 1.375-0.261 0.473-0.543 1.131-0.439 1.708 1.396 0.12 4.412-0.984 3.953-2.713-0.312-0.364-0.656-0.573-0.692-0.369z"></path>
<path d="M19.956 10.875c-1.063 0.011-2.667 0.781-3.193 1.765-0.631 1.193 0.249 1.213 1.193 0.844 1.145-0.459 2.151-0.473 2.889-1.416 0.177-0.224 0.615-0.751 0.48-1.016-0.297-0.609-1.287 0.099-1.369-0.177z"></path>
<path d="M20.377 15.656c-1.099 0.588-2.287 0.26-2.833 1.631-0.188 0.463-0.208 1.208 0.021 1.724 1.061-0.235 1.848-1.109 2.895-1.428 0.177-0.281 0.663-0.375 0.803-0.697 0.229-0.536-0.36-1.292-0.885-1.229z"></path>
<path d="M6.143 1.656c-1.192-0.271-2.333-1.969-3.651-1.588-0.156 0.047-0.276 0.176-0.292 0.337-0.088 1.089 2.729 2.953 4 2.401 0.245-0.104 0.297-0.405 0.145-0.62-0.004 0-0.004-0.004-0.004-0.004-0.052-0.073-0.109-0.505-0.199-0.527z"></path>
<path d="M6.591 7.979c-0.219-1.385-1.615-1.703-2.683-2.011-0.593-0.167-2.681-0.724-1.661 0.839 0.271 0.423 1.209 0.5 1.609 0.761 0.584 0.385 0.819 0.619 1.437 0.833 0.595 0.208 1.652 0.421 1.297-0.423z"></path>
<path d="M6.768 12.932c-0.932-1.203-3.907-3.339-4.24-0.64 1 0.343 2.057 0.667 3.047 0.989 0.495 0.161 1.355 0.52 1.161-0.265-0.104 0.004-0.219-0.005 0.032-0.084z"></path>
<path d="M6.945 17.115c-0.489-0.183-5.011-2.365-4.344-0.172 0.224 0.744 1.744 0.963 2.271 1.24 0.885 0.468 1.511 1.083 2.125 0.437 0.875-0.923 0.249-1.261-0.052-1.505z"></path>
<path d="M15.351 3.891c-0.031 0.031-0.047 0.057-0.041 0.063-0.047-0.021-0.104 0.015-0.145 0.047-0.432 0.323-3.995 3.192-3.871 3.599-0.38-1.245-1.364-2.172-2.119-3.145-0.464-0.604-1.699-0.969-1.948-1.579 0.244-0.145 0.531-0.245 0.785-0.276-0.020 0.349 1.745 1.229 2.147 1.645 0.317 0.328 0.724 0.715 0.979 1.079 0.204 0.303 0.12 0.588 0.48 0.812 0.875-0.801 1.724-1.509 2.719-2.203 0.432-0.307 1.176-1.188 1.64-0.599 0.021 0.025-0.479 0.411-0.625 0.557z"></path>
<path d="M7.679 8.249c0.595 0.319 1.355 0.328 1.939 0.729 0.572 0.396 0.749 0.912 1.172 1.432 0.52 0.641 1.255 0.912 1.432 1.797-0.229-3.052 2.161-3.771 3.937-5.364 0.208 1.312-1.12 1.739-1.839 2.629-0.864 1.057-2.245 1.98-2.197 3.459-0.975-0.765-1.657-1.588-2.428-2.645-0.563-0.767-1.401-1.089-2.172-1.609 0.089-0.125 0.104-0.167 0.251-0.261 0.219 0.079-0.089 0.095-0.095-0.167z"></path>
<path d="M15.289 12.765c-0.724 0.317-1.053 1.36-1.589 1.885-0.552 0.541-1.26 0.651-1.593 1.349-1.276-0.735-2.609-2.537-4.151-2.693-0.037 0.147-0.037 0.365 0 0.505 0.353 0.235 0.645 0.489 1.031 0.745 0.448 0.301 1.016 0.525 1.396 0.901 0.672 0.671 0.973 1.749 2.057 1.9 0.197-1.063 3.572-3.62 2.849-4.593z"></path>
<path d="M8.94 18.167c0.109 0.891 1.812 1.401 2.552 1.875 0.479 0.312 0.964 0.864 1.161 1.364 0.391-0.776 1.708-2.921 2.735-2.785 0.12 0.859-4.385 5.765-3.376 4.577-0.072-0.036-0.135-0.068-0.223-0.088 0.052-1.808-1.105-2.584-2.344-3.443-0.308-0.213-1.188-0.521-1.125-0.975 0.093-0.719 0.891 0.032 0.62-0.525z"></path>
<path d="M17.773 21.776c-0.095-0.027-0.147 0.036-0.172-0.073 1.339-0.328 3.667-1.563 4.688-2.547 0.76 2.479 2.823 4.245 1.552 7.088-0.589 1.324-1.563 2.672-2.672 3.589-0.912 0.76-2.12 0.989-3.141 1.547 1.677-1.183 3.365-2.912 3.469-5.213 0.099-2.24-2.084-3.808-3.891-4.36-0.011 0.109 0.041 0.131 0.167-0.031z"></path>
<path d="M7.727 22.391c0.093-0.021 0.145 0.041 0.172-0.068-1.339-0.328-3.667-1.563-4.688-2.547-0.76 2.479-2.823 4.244-1.552 7.088 0.588 1.323 1.563 2.672 2.672 3.589 0.911 0.755 2.115 0.989 3.14 1.547-1.677-1.183-3.364-2.912-3.468-5.213-0.104-2.24 2.083-3.813 3.891-4.36 0.009 0.109-0.048 0.131-0.167-0.036z"></path>
<path d="M9.279 24.604c0 2.651 1.724 4.885 2.828 7.005 0.005-1.224-0.349-2.464-0.172-3.688 0.077-0.552 0.359-0.801 0.531-1.317 0.141-0.443 0.052-0.989 0.167-1.437 1.792 1.229 1.516 4.629 2.047 6.443 0.881-1.057 1.204-3.713 1.589-5.193 0.161-0.609 0.281-1.405 0.183-2.083-0.089-0.579-0.548-1.147-0.548-1.751-0.88 0.443-2.057 2.141-3.224 2.281-1.135 0.136-2.52-1.697-3.561-2.109-0.048 0.704-0.287 1.708 0.161 1.849z"></path>
</svg>
