<!-- Generated by IcoMoon.io -->
<svg version="1.1" xmlns="http://www.w3.org/2000/svg" width="32" height="32" viewBox="0 0 32 32">
<title>bermuda</title>
<path d="M14.8 29.966c-1.524-0.146-2.67-0.409-3.859-0.888-0.357-0.144-0.573-0.241-1.012-0.459-1.828-0.906-3.347-2.084-4.557-3.534-1.106-1.325-1.942-2.86-2.524-4.631-0.411-1.253-0.599-2.292-0.656-3.637-0.018-0.42-0.016-0.424 0.181-0.562 0.632-0.441 1.475-0.718 2.502-0.824 0.394-0.040 0.577-0.048 1.194-0.047 0.645 0.001 0.982 0.012 1.506 0.053 2.174 0.167 4.418 0.739 7.024 1.79 1.004 0.405 1.716 0.686 3.118 1.231 2.434 0.946 3.198 1.23 4.082 1.515 0.968 0.312 2.048 0.58 2.659 0.659 0.235 0.030 0.91 0.030 1.165-0 0.409-0.049 0.818-0.133 1.254-0.255 0.786-0.222 1.503-0.503 2.287-0.899 0.138-0.070 0.16-0.076 0.153-0.044-0.131 0.587-0.361 1.319-0.614 1.95-0.526 1.313-1.288 2.588-2.195 3.671-1.445 1.726-3.252 3.057-5.319 3.918-1.178 0.491-2.528 0.833-3.8 0.964-0.515 0.053-0.617 0.057-1.435 0.060l-0.8 0.003-0.353-0.034zM8.086 25.583c0.177-0.026 0.582-0.106 0.749-0.148 0.194-0.048 0.617-0.17 1.259-0.363 2.163-0.65 4.17-1.346 6.037-2.095 1.068-0.428 1.837-0.778 3.805-1.729 0.204-0.099 0.601-0.289 0.882-0.423s0.563-0.27 0.627-0.301l0.115-0.057-0.054-0.028c-0.030-0.015-0.214-0.085-0.409-0.155-0.59-0.212-0.618-0.223-1.165-0.461-0.537-0.233-0.625-0.267-1.395-0.534-0.714-0.247-0.802-0.281-2.894-1.104-0.437-0.172-0.808-0.316-0.826-0.32-0.027-0.007-0.033-0.004-0.037 0.020-0.039 0.194-0.059 0.261-0.086 0.293-0.038 0.045-0.818 0.63-1.168 0.876-0.783 0.55-0.972 0.69-1.265 0.935-0.193 0.162-0.324 0.256-0.653 0.47-0.258 0.168-0.693 0.435-0.708 0.435-0.005 0-0.009-0.008-0.009-0.018s-0.016-0.074-0.035-0.143c-0.039-0.138-0.043-0.209-0.017-0.28 0.023-0.064 0.022-0.097-0.005-0.111-0.037-0.020-0.070-0.015-0.316 0.047-0.129 0.032-0.243 0.059-0.252 0.059s-0.024-0.007-0.031-0.016c-0.025-0.030-0.059-0.313-0.078-0.637-0.021-0.364-0.026-0.383-0.111-0.428-0.051-0.026-0.060-0.027-0.235-0.021-0.1 0.004-0.233 0.013-0.296 0.021-0.227 0.028-0.243 0.005-0.264-0.385-0.008-0.151-0.008-0.154 0.020-0.187 0.023-0.027 0.041-0.034 0.093-0.039 0.063-0.006 0.093-0.019 0.093-0.040 0-0.006-0.050-0.010-0.111-0.010-0.127 0-0.118 0.008-0.13-0.124-0.004-0.045-0.010-0.099-0.014-0.119-0.006-0.033-0.003-0.038 0.027-0.044 0.018-0.004 0.065-0.013 0.103-0.020l0.069-0.013-0.034-0.022c-0.019-0.012-0.051-0.022-0.072-0.022-0.079-0-0.121-0.042-0.121-0.121 0-0.021-0.006-0.079-0.014-0.129-0.013-0.084-0.016-0.091-0.041-0.091-0.032 0-0.034 0.013-0.028 0.177 0.004 0.123-0.012 0.151-0.093 0.161-0.048 0.006-0.070 0.019-0.070 0.041-0 0.004 0.021 0.011 0.047 0.016 0.1 0.017 0.163 0.101 0.164 0.218 0.001 0.076-0.020 0.098-0.117 0.121-0.086 0.021-0.118 0.036-0.118 0.057 0 0.006 0.056 0.010 0.124 0.010 0.097 0 0.124 0.003 0.124 0.016 0 0.009 0.008 0.095 0.019 0.191 0.024 0.229 0.020 0.336-0.016 0.372-0.025 0.025-0.038 0.027-0.197 0.030-0.22 0.005-0.225 0.002-0.254-0.147-0.028-0.143-0.027-0.205 0.004-0.268l0.026-0.053-0.054-0.109c-0.030-0.060-0.058-0.125-0.063-0.145-0.021-0.091-0.071-0.135-0.152-0.135-0.092 0-0.518 0.114-0.622 0.167-0.091 0.046-0.204 0.162-0.259 0.266-0.085 0.162-0.082 0.145-0.090 0.581l-0.006 0.397-0.030 0.030c-0.027 0.027-0.065 0.037-0.317 0.088-0.157 0.032-0.321 0.068-0.364 0.081-0.131 0.040-0.175 0.081-0.434 0.403-0.137 0.17-0.149 0.194-0.179 0.362-0.019 0.104-0.020 0.282-0.003 0.313 0.008 0.014 0.030 0.031 0.049 0.039 0.064 0.026 0.074 0.057 0.087 0.268 0.015 0.232 0.005 0.311-0.058 0.437-0.058 0.117-0.164 0.222-0.311 0.305-0.132 0.075-0.156 0.081-0.229 0.056-0.052-0.018-0.059-0.018-0.086 0-0.028 0.019-0.029 0.022-0.021 0.112 0.010 0.119-0.009 0.181-0.086 0.271-0.048 0.056-0.119 0.195-0.119 0.232 0 0.030 0.046 0.020 0.131-0.027 0.083-0.046 0.094-0.050 0.104-0.032 0.023 0.043 0.398 0.856 0.492 1.067 0.235 0.526 0.366 0.735 0.629 1.004 0.14 0.143 0.266 0.249 0.429 0.359 0.158 0.107 0.263 0.161 0.401 0.207 0.177 0.059 0.318 0.070 0.519 0.041zM6.043 22.354c-0.019-0.030-0.024-0.024 0.088-0.094l0.092-0.057 0.020 0.026c0.011 0.014 0.017 0.030 0.014 0.034-0.007 0.011-0.179 0.116-0.191 0.116-0.005 0-0.015-0.011-0.024-0.025zM6.744 20.417c-0.028-0.007-0.026-0.035 0.006-0.066 0.031-0.030 0.282-0.12 0.309-0.11 0.040 0.015 0.010 0.041-0.129 0.111-0.081 0.040-0.151 0.073-0.156 0.072s-0.018-0.004-0.029-0.007zM24.912 20.26c-0.217-0.015-0.423-0.039-0.776-0.094-1.119-0.172-1.988-0.397-2.83-0.735-0.428-0.172-1.26-0.547-1.352-0.609-0.050-0.034-0.263-0.212-0.264-0.22-0-0.003 0.009-0.018 0.020-0.033l0.021-0.027 0.299 0.105c0.165 0.058 0.355 0.122 0.423 0.143s0.285 0.090 0.482 0.155c1.244 0.407 1.74 0.527 2.935 0.709 0.82 0.125 1.642 0.175 2.418 0.149 0.414-0.014 0.509-0.025 0.977-0.117 0.408-0.080 0.741-0.127 0.754-0.106 0.024 0.038 0.008 0.056-0.116 0.126-0.2 0.112-0.257 0.134-0.65 0.246-0.629 0.18-0.983 0.251-1.465 0.297-0.184 0.017-0.689 0.024-0.877 0.011zM25.294 19.437c-0.313-0.018-0.565-0.051-1.365-0.177-0.451-0.071-0.707-0.12-1.076-0.205-1.169-0.27-2.484-0.735-4.518-1.597-0.667-0.283-1.237-0.535-2.294-1.014-1.503-0.681-2.059-0.92-2.888-1.239-0.962-0.37-1.76-0.638-2.535-0.854-0.631-0.175-0.82-0.213-1.773-0.354-1.112-0.164-1.285-0.171-2.927-0.112-0.604 0.022-1.037 0.086-1.682 0.248-1.040 0.262-1.615 0.49-2.129 0.843-0.113 0.078-0.506 0.365-0.704 0.516-0.089 0.067-0.14 0.091-0.176 0.082-0.042-0.010-0.091-0.053-0.091-0.078 0-0.012 0.043-0.082 0.095-0.155 0.357-0.499 0.757-0.844 1.448-1.248 0.731-0.428 1.405-0.682 2.298-0.868 0.097-0.020 0.269-0.060 0.382-0.088 0.284-0.071 0.455-0.106 0.72-0.147 0.685-0.106 1.123-0.13 1.97-0.107 0.983 0.026 1.545 0.086 2.823 0.301 1.118 0.188 1.787 0.384 3.529 1.036 0.943 0.353 1.431 0.56 2.238 0.951 0.392 0.19 0.888 0.422 1.315 0.616 0.765 0.347 1.308 0.6 1.8 0.842 0.94 0.46 1.062 0.516 1.771 0.805 0.847 0.346 1.259 0.502 1.812 0.687 1.019 0.34 1.798 0.501 2.665 0.552 0.264 0.016 1.397 0.015 1.577-0.001 0.445-0.039 0.947-0.165 1.361-0.341 0.339-0.144 0.723-0.374 0.918-0.547 0.055-0.049 0.082-0.065 0.124-0.071 0.063-0.009 0.074 0.001 0.074 0.072 0 0.036-0.015 0.073-0.061 0.153-0.048 0.083-0.095 0.139-0.215 0.259-0.251 0.252-0.468 0.401-0.871 0.599-0.462 0.227-0.844 0.354-1.365 0.453-0.685 0.13-1.739 0.219-2.247 0.189zM26.142 18.284c-0.454-0.033-0.913-0.11-1.536-0.254-0.998-0.232-1.699-0.455-2.388-0.761-0.146-0.065-0.363-0.16-0.482-0.211s-0.249-0.11-0.288-0.129c-0.064-0.032-0.241-0.157-0.241-0.17 0-0.003 0.005-0.015 0.012-0.027 0.009-0.017 0.021-0.021 0.050-0.017 0.021 0.003 0.1 0.013 0.176 0.022 0.117 0.014 0.163 0.027 0.3 0.082 0.254 0.101 0.421 0.151 0.927 0.279 0.259 0.065 0.553 0.142 0.653 0.17 0.234 0.066 0.485 0.116 0.729 0.146 0.183 0.022 1.051 0.092 1.465 0.117 0.777 0.048 1.421 0.006 2.1-0.135 0.761-0.159 1.496-0.459 2.165-0.887 0.203-0.13 0.291-0.197 0.506-0.384 0.094-0.082 0.261-0.222 0.372-0.312s0.221-0.187 0.245-0.216c0.042-0.051 0.069-0.065 0.082-0.043 0.032 0.051-0.269 0.568-0.546 0.937-0.517 0.69-1.124 1.15-1.892 1.437-0.474 0.177-0.96 0.288-1.484 0.341-0.211 0.021-0.734 0.030-0.923 0.017zM16.924 17.69c-0.036-0.009-0.388-0.146-0.782-0.306-1.819-0.736-2.395-0.942-4.020-1.434-0.289-0.088-0.673-0.207-0.853-0.266-0.57-0.186-0.765-0.234-1.586-0.393-0.252-0.049-0.562-0.109-0.688-0.135-0.877-0.177-1.812-0.264-2.859-0.265-0.538-0.001-0.611 0.005-1.249 0.094-0.752 0.105-0.893 0.133-1.322 0.261-0.724 0.216-1.070 0.357-1.395 0.57-0.157 0.103-0.328 0.202-0.532 0.308-0.101 0.052-0.138 0.066-0.181 0.066h-0.054l0.008-0.055c0.004-0.030 0.014-0.063 0.022-0.072 0.032-0.038 0.358-0.338 0.466-0.428 0.344-0.286 0.805-0.534 1.522-0.817 0.748-0.295 1.117-0.386 2.038-0.499 0.532-0.065 0.67-0.079 0.935-0.093 0.648-0.034 0.942-0.026 1.363 0.033 0.133 0.019 0.34 0.043 0.46 0.053 0.328 0.028 0.581 0.068 1.318 0.207 1.426 0.269 2.485 0.593 3.771 1.155 1.084 0.474 2.028 0.937 2.83 1.388 0.423 0.238 0.499 0.287 0.608 0.388 0.057 0.053 0.142 0.123 0.189 0.155 0.054 0.036 0.085 0.066 0.085 0.079 0 0.025-0.007 0.025-0.094 0.004zM25.453 17.194c-0.331-0.009-0.776-0.048-1.135-0.099-0.587-0.083-1.041-0.176-2.082-0.427-0.903-0.217-0.874-0.211-1.012-0.205-0.159 0.007-0.206 0.029-0.296 0.137-0.038 0.046-0.078 0.084-0.089 0.084s-0.413-0.186-0.894-0.413c-0.481-0.227-1.216-0.574-1.633-0.771-0.487-0.229-0.768-0.368-0.785-0.387-0.035-0.040-0.033-0.088 0.007-0.182 0.086-0.201 0.219-0.384 0.439-0.6 0.094-0.093 0.173-0.182 0.19-0.214 0.016-0.030 0.051-0.076 0.078-0.101 0.064-0.061 0.065-0.11 0.007-0.221-0.050-0.095-0.112-0.32-0.112-0.404 0-0.080 0.021-0.127 0.081-0.182 0.058-0.052 0.347-0.196 0.411-0.205 0.053-0.007 0.108 0.014 0.183 0.072 0.087 0.067 0.096 0.064 0.281-0.090 0.138-0.115 0.162-0.142 0.162-0.182 0-0.049 0.045-0.157 0.091-0.216 0.025-0.032 0.089-0.093 0.142-0.136s0.105-0.088 0.115-0.102c0.024-0.035 0.021-0.121-0.007-0.203-0.013-0.038-0.069-0.218-0.125-0.399-0.1-0.328-0.114-0.364-0.154-0.415l-0.021-0.027-0.043 0.036c-0.024 0.020-0.080 0.087-0.124 0.15-0.883 1.25-2.272 3.205-2.295 3.229-0.047 0.050-0.097 0.044-0.194-0.021l-0.080-0.053 0.11-0.161c0.061-0.089 0.166-0.243 0.234-0.344s0.362-0.532 0.653-0.959c1.483-2.177 1.412-2.068 1.474-2.255 0.017-0.052 0.033-0.081 0.048-0.086 0.032-0.010 0.082-0.074 0.082-0.104 0-0.037-0.126-0.488-0.151-0.537s-0.092-0.089-0.166-0.1c-0.095-0.013-0.117-0.019-0.123-0.037-0.004-0.009 0.010-0.057 0.030-0.107 0.069-0.172 0.115-0.008-0.583-2.098-0.34-1.019-0.63-1.895-0.643-1.946-0.038-0.148-0.037-0.147-0.189-0.204-0.18-0.067-0.227-0.077-0.342-0.072-0.079 0.004-0.114 0.012-0.186 0.044-0.049 0.022-0.11 0.042-0.136 0.045-0.072 0.008-0.118-0.038-0.181-0.182-0.028-0.063-0.085-0.181-0.127-0.262-0.074-0.142-0.076-0.149-0.072-0.219 0.006-0.090 0.042-0.146 0.15-0.236 0.151-0.125 0.342-0.2 0.58-0.228 0.070-0.008 0.126-0.019 0.126-0.025 0-0.040-0.288-0.615-0.415-0.828-0.086-0.144-0.117-0.171-0.201-0.171-0.029 0-0.335 0.032-0.678 0.071s-0.647 0.070-0.674 0.070c-0.027-0-0.071-0.010-0.097-0.022l-0.047-0.021 0.058-0.037c0.032-0.020 0.074-0.040 0.094-0.043 0.040-0.007 0.587-0.071 0.998-0.118 0.147-0.017 0.289-0.037 0.315-0.044l0.047-0.014-0.257-0.471c-0.141-0.259-0.29-0.529-0.33-0.601-0.107-0.191-0.115-0.241-0.049-0.312 0.052-0.055 0.092-0.048 0.159 0.028 0.057 0.065 0.132 0.194 0.489 0.847 0.255 0.467 0.231 0.428 0.279 0.457 0.049 0.031 0.1 0.031 0.326-0.001 0.163-0.022 0.791-0.096 0.971-0.114 0.065-0.006 0.085-0.004 0.127 0.018 0.043 0.022 0.048 0.028 0.037 0.048-0.033 0.061-0.037 0.062-0.717 0.135-0.526 0.056-0.655 0.073-0.664 0.088-0.004 0.007 0.337 0.633 0.512 0.939 0.043 0.076 0.019 0.073 0.542 0.051l0.384-0.017 0.052 0.031c0.037 0.022 0.074 0.062 0.125 0.134 0.311 0.446 0.306 0.437 0.293 0.534-0.004 0.030-0.059 0.136-0.16 0.31-0.085 0.145-0.157 0.272-0.161 0.282s0.010 0.041 0.033 0.074c0.022 0.031 0.195 0.269 0.383 0.529s0.921 1.277 1.627 2.259c0.706 0.982 1.301 1.803 1.32 1.824 0.063 0.067 0.032 0.084 0.602-0.315 0.207-0.145 0.482-0.333 0.612-0.418 0.241-0.159 0.947-0.604 1.007-0.635 0.046-0.024 0.086-0.022 0.131 0.006 0.052 0.032 0.064 0.030 0.145-0.019 0.112-0.068 0.179-0.066 0.272 0.009 0.037 0.030 0.133 0.080 0.152 0.080 0.003 0 0.005-0.020 0.005-0.045 0-0.047 0.030-0.147 0.064-0.211 0.010-0.020 0.055-0.066 0.1-0.102s0.096-0.087 0.115-0.114c0.030-0.044 0.034-0.060 0.036-0.148 0.002-0.091 0.005-0.102 0.035-0.134 0.033-0.034 0.474-0.324 0.769-0.505 0.253-0.155 0.506-0.263 0.652-0.278 0.074-0.008 0.114 0.019 0.141 0.094 0.010 0.027 0.064 0.344 0.119 0.703s0.106 0.675 0.112 0.702c0.012 0.054 0.054 0.133 0.071 0.133 0.015 0 0.115-0.093 0.131-0.123 0.008-0.013 0.017-0.076 0.020-0.138 0.006-0.099 0.010-0.118 0.035-0.144 0.016-0.017 0.040-0.030 0.055-0.030s0.063 0.029 0.107 0.065c0.125 0.101 0.212 0.104 0.347 0.012 0.079-0.054 0.084-0.056 0.147-0.049 0.036 0.004 0.073 0.013 0.082 0.021 0.029 0.024 0.020 0.135-0.026 0.323-0.039 0.159-0.047 0.181-0.086 0.224-0.049 0.054-0.112 0.159-0.195 0.323-0.105 0.21-0.192 0.314-0.332 0.395-0.153 0.089-0.191 0.147-0.174 0.263 0.004 0.030 0.084 0.393 0.177 0.808 0.226 1.011 0.709 3.288 0.863 4.075 0.061 0.313 0.107 0.639 0.166 1.18 0.020 0.183 0.019 0.184-0.254 0.286-0.507 0.189-1.073 0.318-1.652 0.376-0.183 0.018-0.684 0.043-0.794 0.039-0.032-0.001-0.109-0.004-0.171-0.005zM20.704 12.491c0.097-0.019 0.178-0.054 0.189-0.084 0.020-0.053-0.004-0.125-0.163-0.494-0.096-0.224-0.107-0.264-0.089-0.338 0.016-0.065 0.048-0.104 0.335-0.415 0.272-0.295 0.274-0.298 0.283-0.342 0.007-0.036-0.036-0.116-0.062-0.116-0.023 0-0.708 0.842-0.816 1.004-0.071 0.106-0.111 0.228-0.101 0.304 0.004 0.029 0.028 0.099 0.053 0.155s0.055 0.127 0.066 0.158c0.037 0.099 0.124 0.178 0.202 0.184 0.008 0.001 0.053-0.007 0.102-0.016zM21.104 11.994c0.079-0.050 0.15-0.096 0.159-0.104 0.012-0.011-0.016-0.066-0.132-0.264-0.081-0.138-0.15-0.254-0.153-0.257-0.011-0.011-0.098 0.079-0.148 0.152-0.056 0.081-0.065 0.114-0.046 0.172 0.029 0.091 0.157 0.392 0.167 0.392 0.006 0 0.075-0.040 0.154-0.090zM21.551 11.61c0.050-0.125 0.090-0.239 0.090-0.254s-0.057-0.11-0.137-0.226l-0.137-0.198-0.077 0.069c-0.096 0.085-0.131 0.123-0.17 0.182-0.055 0.083-0.049 0.1 0.146 0.426 0.141 0.235 0.137 0.229 0.17 0.229 0.023 0 0.037-0.029 0.116-0.227zM20.39 11.266c0.63-0.696 0.651-0.721 0.651-0.773 0-0.042-0.036-0.1-0.334-0.543-0.306-0.454-1.244-1.841-1.925-2.846-0.152-0.224-0.281-0.404-0.286-0.399-0.012 0.012 0.031 0.173 0.352 1.31 0.146 0.516 0.272 0.981 0.281 1.032 0.022 0.124 0.042 0.159 0.109 0.194 0.048 0.024 0.059 0.037 0.076 0.087 0.037 0.105 0.109 0.199 0.2 0.259 0.112 0.074 0.173 0.134 0.173 0.168 0 0.015-0.019 0.066-0.042 0.112-0.064 0.129-0.064 0.136 0.012 0.357 0.085 0.248 0.118 0.319 0.193 0.406 0.096 0.111 0.101 0.148 0.042 0.301-0.021 0.053-0.021 0.054 0.009 0.129 0.078 0.196 0.213 0.494 0.222 0.491 0.005-0.002 0.125-0.13 0.265-0.286zM23.97 10.459c0.127-0.022 0.177-0.060 0.202-0.153 0.035-0.13-0.079-0.269-0.263-0.322-0.073-0.021-0.104-0.014-0.127 0.028-0.007 0.012-0.018 0.099-0.026 0.194-0.016 0.195-0.010 0.222 0.052 0.248 0.047 0.021 0.064 0.021 0.161 0.004zM17.547 5.482c0-0.022-0.005-0.024-0.037-0.018-0.020 0.004-0.071 0.007-0.112 0.007-0.059 0-0.075 0.004-0.075 0.018s0.020 0.018 0.112 0.018c0.106 0 0.112-0.001 0.112-0.025zM16.646 5.381c0.049-0.057 0.093-0.115 0.096-0.129 0.005-0.018-0.005-0.040-0.031-0.073l-0.038-0.047-0.067 0.052c-0.093 0.072-0.142 0.129-0.142 0.17 0 0.033 0.061 0.131 0.081 0.131 0.006 0 0.051-0.046 0.1-0.103zM16.537 5.17l0.102-0.102-0.059-0.086c-0.083-0.12-0.084-0.121-0.137-0.079-0.105 0.085-0.123 0.167-0.062 0.295 0.019 0.040 0.039 0.074 0.044 0.074s0.055-0.046 0.112-0.102zM17.014 5.155c0.093-0.016 0.093-0.016 0.042-0.097-0.059-0.094-0.133-0.093-0.272 0.006-0.027 0.020-0.050 0.039-0.050 0.044s0.016 0.030 0.035 0.056l0.035 0.048 0.063-0.022c0.034-0.012 0.1-0.028 0.147-0.036zM17.278 5.072c-0.009-0.11-0.043-0.142-0.129-0.119-0.027 0.007-0.052 0.018-0.055 0.024-0.009 0.015 0.048 0.125 0.073 0.141 0.011 0.007 0.042 0.011 0.068 0.009l0.047-0.003zM18.067 5.059c0.067-0.007 0.123-0.015 0.125-0.017 0.005-0.005-0.050-0.081-0.091-0.126-0.035-0.038-0.076-0.041-0.292-0.019-0.163 0.016-0.179 0.030-0.111 0.095 0.093 0.088 0.123 0.094 0.37 0.067zM18.66 5.015c0.024-0.013-0.048-0.112-0.107-0.146-0.037-0.021-0.064-0.027-0.129-0.026-0.083 0.001-0.259 0.034-0.27 0.051-0.003 0.005 0.023 0.040 0.058 0.078l0.064 0.068 0.185-0.008c0.102-0.004 0.192-0.012 0.201-0.017zM16.854 4.978c0.042-0.026 0.083-0.052 0.093-0.058 0.015-0.009 0.015-0.017 0.001-0.060-0.057-0.171-0.159-0.198-0.327-0.084l-0.072 0.049 0.035 0.062c0.020 0.034 0.054 0.079 0.076 0.1 0.056 0.053 0.099 0.051 0.194-0.009zM17.174 4.888l0.045-0.007-0.008-0.060c-0.015-0.114-0.052-0.171-0.111-0.171-0.029-0-0.151 0.029-0.16 0.038-0.003 0.003 0.006 0.037 0.020 0.077 0.039 0.117 0.088 0.145 0.215 0.124zM17.931 4.836c0.051-0.007 0.094-0.015 0.097-0.017 0.013-0.013-0.044-0.123-0.086-0.166-0.065-0.066-0.124-0.081-0.24-0.064-0.128 0.019-0.217 0.047-0.204 0.064 0.006 0.008 0.036 0.047 0.067 0.088s0.073 0.082 0.093 0.091c0.045 0.019 0.151 0.021 0.274 0.004zM18.407 4.799c0.057-0.008 0.104-0.017 0.104-0.021s-0.016-0.034-0.035-0.068c-0.061-0.106-0.135-0.148-0.265-0.148-0.072 0-0.229 0.032-0.229 0.046 0 0.019 0.117 0.163 0.146 0.181 0.043 0.026 0.126 0.029 0.279 0.008z"></path>
</svg>
