<!-- Generated by IcoMoon.io -->
<svg version="1.1" xmlns="http://www.w3.org/2000/svg" width="33" height="32" viewBox="0 0 33 32">
<title>beyond_the_beyond</title>
<path d="M17.147 14.753c-0.403-0.046-0.946 0.217-1.166 0.273-0.537 0.337-0.816 1.441-0.427 1.977 0.559 0.772 2.161 0.479 2.533-0.426 0.292-0.708-0.24-1.744-0.94-1.825z"></path>
<path d="M20.215 16.025c0.103 0.177 0.267 0.436 0.117 0.614-0.061 0.072-0.394 0.174-0.497 0.236-0.2 0.119-0.399 0.239-0.608 0.342-1.129 0.553-2.249 0.81-3.495 0.707-0.271-0.022-0.558-0.126-0.815-0.243-0.348-0.159-0.701-0.257-1.050-0.412-0.528-0.234-0.876-0.385-0.628-1.027 0.156-0.406 0.531-0.618 0.873-0.858 1.129-0.791 2.249-1.158 3.495-1.011 0.271 0.032 0.559 0.181 0.815 0.347 0.348 0.226 0.701 0.367 1.050 0.589 0.291 0.184 0.567 0.417 0.742 0.716zM18.802 13.902c-0.589-0.584-1.399-0.501-2.079-0.495-0.77 0.009-1.46 0.549-2.187 0.918-0.324 0.164-0.656 0.306-0.959 0.554-0.272 0.223-0.481 0.565-0.695 0.837-0.158 0.2-0.529 0.538-0.481 0.823 0.041 0.24 0.32 0.464 0.491 0.615 0.209 0.186 0.421 0.403 0.651 0.568 0.317 0.226 0.671 0.31 0.993 0.533 0.589 0.408 1.399 0.35 2.079 0.345 0.77-0.005 1.46-0.384 2.187-0.641 0.326-0.116 0.656-0.215 0.959-0.388 0.212-0.122 0.448-0.322 0.629-0.483 0.038-0.033 0.425-0.39 0.495-0.453 0.008-0.006 0.011-0.010 0.011-0.009 0.004-0.637-0.684-1.537-1.101-1.964-0.317-0.323-0.671-0.442-0.993-0.76z"></path>
<path d="M20.298 8.146c0.164 1.151 0.604 2.272 1.157 3.334-0.119-0.258-0.233-0.514-0.328-0.767-0.317-0.833-0.599-1.692-0.829-2.567z"></path>
<path d="M19.716 4.426c0.042 1.249 0.259 2.498 0.581 3.719-0.001-0.014-0.005-0.028-0.006-0.042-0.169-1.235-0.159-2.561-0.144-3.892 0.014-1.171 0.146-1.278 0.122-2.347-0.005-0.23-0.013-0.359-0.027-0.444-0.149-0.037-0.296-0.071-0.446-0.103-0.024 0.093-0.053 0.203-0.062 0.534-0.020 0.838-0.046 1.729-0.018 2.575z"></path>
<path d="M20.188 27.556c-0.075-2.545 0.036-5.054 1.626-7.151 0.492-0.648 1.030-1.189 1.367-1.921 0.284-0.614 0.509-1.256 0.539-1.939 0.034-0.788-0.28-1.369-0.571-2.084-0.127-0.309-0.226-0.558-0.394-0.812-0.451-0.684-0.905-1.411-1.301-2.17 0.783 1.673 1.936 3.443 1.605 5.282-0.005 0.024-0.010 0.050-0.015 0.074-0.062 0.309-0.086 0.64-0.184 0.933-0.102 0.301-0.306 0.556-0.45 0.837-0.278 0.545-0.497 0.995-0.861 1.496-0.406 0.557-0.517 1.268-0.918 1.819-0.374 0.517-0.539 1.1-0.664 1.733-0.291 1.484-0.278 3.020-0.249 4.525 0.025 1.343 0.113 1.603 0.197 2.483 0.118-0.025 0.235-0.052 0.352-0.081-0.008-0.070-0.014-0.156-0.019-0.267-0.041-0.918-0.032-1.791-0.060-2.756z"></path>
<path d="M14.364 28.731c0.006-1.142-0.052-2.294-0.201-3.322-0.056-0.384-0.106-0.702-0.215-1.071-0.379-1.28-1.257-2.179-2.034-3.332-0.3-0.444-0.525-0.89-0.716-1.374-0.509-1.292-0.651-2.756-0.515-4.126 0.065-0.668 0.252-1.33 0.479-1.959 0.201-0.552 0.507-1.11 0.778-1.573 0.154-0.264 0.114-0.211 0.12-0.27 0.001-0.023 0.005-0.061-0.050-0.013-0.188 0.239-0.479 0.619-0.659 0.922-0.215 0.365-0.387 0.746-0.533 1.146-0.624 1.711-0.692 3.697-0.027 5.449 0.792 2.088 2.773 3.575 3.184 5.938 0.207 1.198 0.223 2.5 0.167 3.803-0.027 0.604-0.069 1.226-0.099 1.835 0.076 0.013 0.153 0.028 0.23 0.041 0.004-0.184 0.009-0.37 0.019-0.554 0.027-0.521 0.069-0.995 0.071-1.538z"></path>
<path d="M25.243 9.014c0.127 2.398 0.805 4.264 1.161 5.359 0.181 0.556 0.258 1.024 0.244 1.488-0.009 0.329-0.062 0.674-0.079 1.011 0.125-0.011 0.3-0.057 0.387-0.010 0.109-0.206 0.062-0.392 0.086-0.58 0.024-0.183 0.080-0.348 0.061-0.535-0.039-0.393-0.172-0.806-0.245-1.282-0.028-0.178-0.018-0.342-0.098-0.545-0.278-0.707-0.636-1.739-0.835-3.021-0.076-0.495-0.095-1.002-0.122-1.541-0.067-1.444-0.027-3.058-0.046-4.601-0.004-0.231 0.003-0.462 0.013-0.692-0.172-0.131-0.347-0.258-0.524-0.381-0.027 1.78-0.093 3.639-0.003 5.331z"></path>
<path d="M28.539 25.077c-0.060-1.551-0.092-3.060-0.076-4.375 0.006-0.506 0.060-0.973 0.108-1.416 0.128-1.186 0.286-1.819 0.31-2.353 0.011-0.261 0.067-0.488 0.075-0.704 0.005-0.189 0.075-0.371 0.011-0.559-0.037-0.107-0.055-0.090-0.2-0.142-0.056-0.020-0.186-0.064-0.261-0.058 0.075 0.126 0.004 0.271 0.015 0.39 0.013 0.146 0.033 0.289 0.036 0.436 0.014 0.631-0.168 1.363-0.409 2.727-0.28 1.574-0.25 4.313-0.23 6.919 0.215-0.243 0.421-0.493 0.619-0.749 0-0.038 0.003-0.075 0.001-0.114z"></path>
<path d="M6.066 9.864c-0.112 2.331-0.524 4.005-0.768 5.046-0.123 0.528-0.214 0.97-0.259 1.41-0.032 0.31-0.034 0.634 0.069 0.987 0.128 0.015 0.295 0.003 0.404 0.075 0.037-0.203-0.062-0.415-0.062-0.609-0.001-0.191 0.052-0.36 0.055-0.553 0.005-0.406 0.028-0.811 0.21-1.282 0.067-0.174 0.175-0.341 0.22-0.533 0.154-0.664 0.425-1.504 0.511-2.714 0.033-0.465 0.095-0.948 0.135-1.467 0.103-1.388 0.162-2.974 0.093-4.522-0.014-0.295-0.014-0.59-0.014-0.885-0.177 0.158-0.35 0.32-0.519 0.487 0.032 1.561-0.005 3.134-0.074 4.561z"></path>
<path d="M16.108 29.823c-0.029-0.99-0.010 0.261-0.029-0.798-0.022-1.261-0.099-2.511-0.192-3.583-0.072-0.829-0.081-1.694-0.39-2.478-0.305-0.776-0.918-1.522-1.429-2.174-0.16-0.205-0.345-0.47-0.547-0.626-0.223-0.172-0.189-0.071-0.478-0.075 0.248 0.010 0.591 1.283 0.729 1.507 0.519 0.847 1.126 1.646 1.326 2.642 0.207 1.040 0.244 2.099 0.193 3.158-0.076 1.607-0.187 0.89-0.193 2.512-0.001 0.22-0.074 0.707-0.027 1.022 0.334 0.036 0.673 0.058 1.012 0.071 0.019-0.401 0.036-0.849 0.025-1.179z"></path>
<path d="M21.407 13.881c0.089 0.276 0.317 0.566 0.439 0.83 0.277 0.601 0.348 1.238 0.282 1.913-0.036 0.355-0.111 0.703-0.233 1.046-0.013 0.036-0.025 0.071-0.038 0.106-0.123 0.328-0.259 0.638-0.353 0.979-0.098 0.356-0.287 0.59-0.517 0.9-0.479 0.65-0.966 1.296-1.43 1.958-0.456 0.652-0.646 1.579-0.887 2.333-0.42 1.308-0.495 2.722-0.562 4.098-0.034 0.693-0.052 1.419 0.014 2.084 0.126-0.025 0.309-0.127 0.43-0.034 0.064-0.434-0.039-0.838-0.038-1.265 0.001-0.416 0.051-0.819 0.043-1.236-0.015-0.879-0.011-1.714 0.17-2.573 0.067-0.32 0.187-0.633 0.24-0.913 0.183-0.971 0.591-1.828 1.21-2.477 0.515-0.537 0.962-1.324 1.329-1.98 0.403-0.722 0.622-1.646 0.831-2.445 0.305-1.168-0.108-2.383-0.65-3.448-0.093 0.033-0.184 0.079-0.28 0.123z"></path>
<path d="M15.958 1.714c-0.001 1.797-0.070 3.598-0.249 5.373-0.052 0.52-0.197 1.024-0.299 1.542-0.112 0.575-0.065 1.168-0.207 1.739-0.126 0.504-0.375 1.063-0.62 1.527-0.784 1.482-2.661 1.926-3.189 3.571-0.184 0.573-0.149 1.128-0.092 1.719 0.032 0.324 0.085 0.587 0.224 0.887 0.118 0.257 0.407 0.675 0.392 0.943 0.097 0.014 0.216 0.013 0.313-0.001-0.189-0.263-0.373-0.606-0.507-0.912-0.393-0.889-0.383-2.048 0.023-2.931 0.463-1.010 1.756-1.532 2.576-2.235 0.408-0.351 0.792-0.671 1.043-1.163 0.195-0.384 0.289-0.865 0.409-1.277 0.133-0.459 0.189-0.922 0.258-1.386 0.263-1.786 0.266-3.612 0.239-5.421-0.010-0.72 0.028-1.448 0.031-2.149 0.003-0.587 0.022-0.304 0.020-0.544-0.113 0.003-0.226 0.004-0.338 0.009-0.032 0.247-0.025 0.308-0.025 0.707z"></path>
<path d="M10.575 26.606c-0.103-2.014-0.158-3.971-0.684-5.531-0.627-1.86-1.659-2.812-1.809-3.986-0.075-0.596-0.003-1.18 0.206-1.786 0.146-0.428 0.365-0.889 0.507-1.299-0.196 0.042-0.488 0.131-0.615 0.088-0.239 0.268-0.225 0.492-0.332 0.735-0.104 0.235-0.253 0.454-0.294 0.684-0.088 0.484-0.048 0.974-0.085 1.451-0.015 0.179-0.076 0.328-0.014 0.515 0.214 0.648 0.562 1.343 1.093 2.109 0.205 0.295 0.356 0.646 0.487 1.065 0.348 1.12 0.469 2.491 0.622 3.917 0.075 0.697-0.003 1.404-0.006 2.126-0.004 0.634-0.192 1.271-0.084 1.897 0.061 0.357 0.108 0.299 0.432 0.467 0.125 0.065 0.409 0.202 0.58 0.187-0.126-0.38 0.074-0.834 0.069-1.223-0.006-0.472-0.048-0.945-0.072-1.415z"></path>
<path d="M30.255 12.608c-0.003-0.523 0.123-1.090 0.024-1.663-0.057-0.328-0.088-0.273-0.35-0.413-0.1-0.053-0.337-0.165-0.478-0.137 0.125 0.355-0.018 0.792 0.005 1.14 0.028 0.421 0.081 0.821 0.114 1.203 0.144 1.634 0.151 2.334 0.165 2.918 0.010 0.442-0.004 0.809 0.023 1.409 0.019 0.45-0.072 1.007-0.121 1.877-0.024 0.449-0.076 0.985-0.076 1.551 0.001 0.726-0.069 1.463-0.084 2.282 0.188-0.219 0.544-0.042 0.673-0.347 0.142-0.337 0.013-1.741 0.015-2.133 0.009-1.702-0.009-2.807-0.001-3.461 0.005-0.45 0.071-0.732 0.079-1.065 0.009-0.39 0.047-0.848-0.011-1.667-0.028-0.4 0.027-0.898 0.023-1.493z"></path>
<path d="M19.031 20.863c-0.397 0.5-0.769 1.124-1.023 1.697-0.253 0.572-0.439 1.246-0.576 1.858-0.195 0.862-0.317 1.921-0.338 2.989-0.010 0.521-0.060 1.074-0.070 1.619-0.009 0.477-0.076 0.974-0.033 1.429 0.024 0.259 0.038 0.212 0.167 0.305 0.050 0.036 0.17 0.108 0.247 0.075-0.064-0.276 0.019-0.655 0.014-0.956-0.006-0.365-0.024-0.726-0.025-1.090-0.008-1.143 0.061-2.295 0.259-3.421 0.168-0.942 0.351-2.051 0.798-2.903 0.193-0.369 0.459-0.656 0.694-0.998 0.159-0.233 0.378-0.453 0.537-0.69 0.121-0.179 0.173-0.365 0.323-0.562 0.25-0.329 0.373-0.699 0.623-1.023-0.111-0.052-0.235-0.13-0.319-0.198-0.418 0.633-0.804 1.274-1.276 1.87z"></path>
<path d="M8.234 23.997c-0.039-0.587-0.107-1.157-0.182-1.704-0.324-2.341-1.163-3.733-1.411-4.837-0.296-1.316-0.081-2.372 0.643-3.976 0.367-0.812 0.65-2.127 0.814-3.564 0.116-1.016 0.184-2.164 0.141-3.284-0.131-0.017-0.308 0.065-0.408-0.133-0.078 0.66-0.015 1.332-0.055 1.977-0.038 0.626-0.13 1.182-0.178 1.779-0.1 1.254-0.268 2.426-0.629 3.166-0.135 0.277-0.273 0.51-0.352 0.754-0.277 0.848-0.417 1.528-0.383 2.233 0.013 0.271 0.027 0.538 0.075 0.824 0.131 0.768 0.568 1.449 0.973 2.885 0.198 0.701 0.285 1.481 0.37 2.323 0.074 0.739 0.037 1.524 0.114 2.314 0.046 0.45 0.064 0.376 0.221 0.585 0.060 0.079 0.198 0.248 0.28 0.221-0.072-0.489-0.001-1.077-0.033-1.563z"></path>
<path d="M24.86 18.82c0.505-1.391 1.191-2.514 0.819-3.737-0.147-0.487-0.39-1.010-0.678-1.578-0.31-0.618-0.599-1.466-0.918-2.522-0.498-1.644-0.381-5.561-0.417-8.264-0.324-0.17-0.656-0.331-0.994-0.478-0.163 1.982-0.338 5.166-0.149 6.319 0.489 2.966 1.447 4.735 2.036 6.23 0.53 1.343-0.022 2.662-0.417 3.927-0.245 0.782-1.195 2.015-1.17 3.547 0.022 1.278-0.151 2.811-0.132 4.32 0.018 1.274 0.206 2.085 0.367 2.936 0.421-0.203 0.83-0.426 1.228-0.668-0.097-0.796-0.174-1.505-0.17-1.635 0.088-2.559-0.315-5.892 0.595-8.398z"></path>
<path d="M19.46 10.073c-0.44-0.708-0.6-1.442-0.866-2.402-0.164-0.594-0.17-1.128-0.281-1.76-0.093-0.529-0.097-1.037-0.116-1.556-0.025-0.721-0.106-1.465-0.108-2.172-0.001 0.020-0.003 0.042-0.003 0.061-0.15-0.070-0.14-0.117-0.284-0.125 0.008 0 0.107 1.786 0.106 1.892-0.004 1.111 0.179 2.224 0.418 3.282 0.219 0.965 0.334 1.701 0.727 2.408 0.156 0.281 0.338 0.543 0.528 0.763 0.205 0.239 0.395 0.599 0.619 0.974 0.43 0.721 0.567 1.418 0.837 2.212 0.098 0.028 0.217 0.053 0.311 0.070-0.071-0.464-0.117-0.882-0.356-1.332-0.497-0.937-1.044-1.527-1.533-2.315z"></path>
<path d="M12.217 30.348c0.010 0.001 0.019 0.004 0.029 0.005-0.010-0.003-0.019-0.005-0.029-0.008 0 0 0 0.001 0 0.003z"></path>
<path d="M12.903 29.707c-0.033-0.727 0.031-1.47 0.034-2.198 0.008-1.658-0.118-3.265-0.464-4.601-0.314-1.214-1.143-2.043-1.738-3.003-0.422-0.678-0.68-1.385-0.835-2.137-0.228-1.1-0.167-2.221 0.187-3.285 0.351-1.055 1.087-1.912 1.821-2.868 0.699-0.908 1.17-2.234 1.2-3.552 0.028-1.129 0.181-2.477 0.23-3.766 0.060-1.583 0.005-1.816-0.090-2.909-0.325 0.076-0.648 0.16-0.965 0.257-0.008 0.109-0.015 0.217-0.011 0.322 0.022 0.669 0.001-0.267 0.025 0.463 0.060 1.85 0.284 3.882-0.076 5.668-0.322 1.596-0.517 2.924-1.13 3.958-0.561 0.947-1.306 1.71-1.613 2.606-0.27 0.783-0.259 1.582-0.177 2.407 0.086 0.862 0.14 1.627 0.726 2.472 0.679 0.976 1.111 1.774 1.451 3.11 0.613 2.407 0.918 5.209 0.74 7.697 0.010 0.003 0.019 0.005 0.029 0.008 0.275 0.041 0.517 0.13 0.787 0.142-0.191-0.175-0.118-0.542-0.13-0.788z"></path>
<path d="M2.482 13.261c0.047 0.695 0.045 1.182 0.042 1.607-0.004 0.428-0.019 0.749-0.025 1.035-0.005 0.196 0.011 0.37 0.017 0.557 0.008 0.264 0.055 0.544 0.103 0.905 0.053 0.395 0.057 0.873 0.072 1.535 0.006 0.291 0.036 0.627 0.001 0.984-0.011 0.122 0.022 0.311-0.092 0.395 0.159 0.005 0.301-0.037 0.462-0.048-0.051-1.303 0.098-2.183 0.061-2.806-0.022-0.373-0.214-0.661-0.151-0.948 0.053-0.248-0.098-0.488-0.090-0.759 0.008-0.257 0.102-0.548 0.119-0.904 0.020-0.408 0-0.904 0.033-1.55 0.034-0.706 0.111-1.527 0.023-2.43-0.033-0.348-0.041-0.713-0.036-1.087-0.206 0.449-0.389 0.908-0.551 1.378-0.070 0.754-0.029 1.53 0.011 2.136z"></path>
<path d="M27.705 16.406c-0.043 0.003-0.126 0.004-0.181 0 0.022 0.043-0.011 0.103-0.017 0.153-0.010 0.089-0.033 0.181-0.047 0.273-0.039 0.236-0.047 0.496-0.164 0.782-0.104 0.257-0.151 0.512-0.24 0.821-0.081 0.284-0.21 0.568-0.296 0.99-0.075 0.367-0.084 0.756-0.135 1.174-0.055 0.436-0.209 0.908-0.201 1.382 0.009 0.549-0.145 1.082-0.162 1.654-0.028 0.961 0.117 1.976 0.126 2.978 0.092 0.008 0.174 0.039 0.268 0.036-0.069-0.064-0.052-0.211-0.062-0.308-0.027-0.284-0.017-0.572-0.018-0.854-0.004-0.645-0.005-1.271 0.044-1.892 0.046-0.563 0.103-1.114 0.141-1.641 0.028-0.374 0.069-0.731 0.102-1.082 0.047-0.512 0.103-0.995 0.186-1.443 0.081-0.444 0.181-0.725 0.285-1.025 0.098-0.286 0.187-0.566 0.197-0.79 0.009-0.192 0.080-0.383 0.126-0.554 0.062-0.236 0.097-0.448 0.089-0.651-0.024 0-0.042-0.001-0.042-0.003z"></path>
<path d="M9.004 13.195c-0.005 0-0.013 0-0.018 0.001 0.014 0 0.018 0 0.018-0.001z"></path>
<path d="M10.537 3.154c0.004 0.713 0.005 1.406-0.062 2.091-0.061 0.623-0.139 1.232-0.191 1.816-0.037 0.413-0.094 0.809-0.137 1.196-0.065 0.567-0.141 1.101-0.253 1.596-0.112 0.492-0.245 0.802-0.387 1.134-0.135 0.315-0.254 0.626-0.268 0.873-0.013 0.212-0.109 0.422-0.172 0.613-0.084 0.261-0.131 0.495-0.12 0.72 0.032 0 0.057 0.001 0.056 0.003 0.060-0.004 0.172-0.004 0.247 0-0.031-0.048 0.014-0.114 0.022-0.169 0.013-0.098 0.044-0.198 0.065-0.301 0.052-0.262 0.064-0.548 0.223-0.866 0.141-0.282 0.205-0.566 0.325-0.908 0.111-0.313 0.286-0.628 0.403-1.095 0.102-0.407 0.113-0.837 0.183-1.298 0.074-0.482 0.282-1.004 0.272-1.53-0.010-0.606 0.198-1.195 0.22-1.828 0.034-0.976-0.126-2.002-0.163-3.021-0.094 0.041-0.187 0.085-0.281 0.127 0.024 0.282 0.017 0.567 0.018 0.847z"></path>
<path d="M12.602 12.973c-0.009 0.003-0.022 0.004-0.029 0.006 0.020-0.003 0.028-0.005 0.029-0.006z"></path>
<path d="M15.136 3.515c-0.020 0.523-0.042 1.034-0.106 1.559-0.056 0.477-0.126 0.951-0.186 1.399-0.042 0.317-0.098 0.627-0.149 0.923-0.075 0.435-0.16 0.844-0.276 1.228-0.113 0.383-0.239 0.709-0.427 1.041-0.179 0.315-0.406 0.51-0.531 0.838-0.108 0.28-0.31 0.647-0.474 1.003-0.225 0.484-0.402 0.975-0.478 1.475 0.055-0.010 0.095-0.011 0.093-0.008 0.099-0.022 0.285-0.047 0.411-0.053-0.036-0.104 0.060-0.261 0.088-0.381 0.052-0.217 0.13-0.436 0.191-0.648 0.151-0.537 0.258-1.034 0.537-1.541 0.248-0.453 0.367-0.57 0.51-0.889 0.131-0.291 0.272-0.634 0.369-0.992 0.085-0.312 0.109-0.614 0.174-0.965 0.067-0.367 0.209-0.804 0.224-1.184 0.019-0.44 0.15-0.919 0.183-1.387 0.053-0.764-0.005-3.034 0.020-3.879-0.053 0.005-0.109 0.006-0.163 0.013 0.011 0.053 0.005 0.127 0.008 0.181 0.010 0.222-0.008 2.038-0.017 2.268z"></path>
<path d="M17.427 10.786c-0.052-0.511-0.118-1.059-0.168-1.303-0.047-0.223-0.088-0.486-0.137-0.786-0.037-0.211-0.064-0.435-0.097-0.679-0.048-0.356-0.090-0.742-0.122-1.153-0.032-0.408-0.055-0.805-0.067-1.242-0.011-0.416-0.023-0.886-0.055-1.321-0.027-0.373-0.024-0.754-0.028-1.126-0.005-0.509-0.013-1.015-0.032-1.509-0.013-0.005-0.022-0.022-0.010-0.014-0.014 0.001-0.048-0.018-0.070-0.038 0.010 0.108 0.003 0.243 0.004 0.357 0.004 0.207 0.003 0.415 0.006 0.626 0.009 0.535 0.038 1.105 0.034 1.634-0.004 0.472 0.019 0.919 0.038 1.378 0.017 0.422 0.025 0.829 0.048 1.218 0.020 0.339 0.069 0.664 0.098 0.969 0.031 0.32 0.006 0.615 0.065 0.886 0.070 0.314 0.037 0.558 0.086 0.784 0.085 0.38 0.266 1.39 0.311 2.222 0.080 0.011 0.155 0.042 0.236 0.043-0.062-0.056-0.056-0.177-0.070-0.256-0.039-0.234-0.050-0.465-0.072-0.69z"></path>
<path d="M4.412 15.457c-0.037 0-0.050 0-0.043 0.003 0.015-0.001 0.031-0.001 0.043-0.003z"></path>
<path d="M5.18 23.826c-0.034-0.994-0.104-1.947-0.175-2.82-0.072-0.867-0.181-1.583-0.221-2.144-0.038-0.534-0.081-1.004-0.27-1.391-0.16-0.332-0.097-0.612-0.066-0.884 0.043-0.37 0.080-0.725 0.056-1.123-0.069 0-0.126-0.003-0.136-0.005-0.14 0.005-0.395 0.005-0.562-0.001 0.071 0.083-0.020 0.189-0.027 0.275-0.010 0.153-0.048 0.299-0.052 0.442-0.008 0.367 0.153 0.754 0.066 1.191-0.079 0.389 0.052 0.839 0.137 1.457 0.078 0.566 0.081 1.316 0.123 2.15 0.037 0.727 0.23 1.5 0.245 2.319 0.006 0.347-0.046 0.706-0.102 1.069 0.296 0.441 0.617 0.866 0.957 1.273 0.018-0.612 0.046-1.213 0.025-1.809z"></path>
<path d="M27.838 13.024c0.028 0.533-0.042 1.236 0.181 1.718 0.056 0.005 0.103 0.005 0.159 0.001 0.084-1.697-0.311-3.381-0.252-5.083 0.037-1.069 0.172-2.215 0.21-3.344-0.229-0.272-0.469-0.535-0.718-0.791 0.065 0.751 0.16 1.485 0.25 2.247 0.206 1.729 0.080 3.512 0.17 5.252z"></path>
<path d="M6.531 20.681c-0.123-0.476-0.361-1.119-0.646-1.495-0.056 0.025-0.211 0.109-0.254 0.142 0.019 0.327 0.428 0.768 0.556 1.092 0.065 0.168 0.099 0.348 0.126 0.531-0.036 1.94 0.188 3.916 0.261 5.852 0.004 0.106 0.006 0.212 0.009 0.319 0.135 0.122 0.275 0.24 0.413 0.357-0.065-1.040-0.162-2.080-0.206-3.107-0.056-1.278 0.051-2.507-0.258-3.692z"></path>
</svg>
