<!-- Generated by IcoMoon.io -->
<svg version="1.1" xmlns="http://www.w3.org/2000/svg" width="33" height="32" viewBox="0 0 33 32">
<title>black_stars_rise</title>
<path d="M29.128 25.329c-0.003 0.003-0.007 0.004-0.007 0.008-0.019 0.114-0.076 0.218-0.104 0.331-0.006 0.024-0.019 0.046-0.029 0.068-0.007 0.020-0.015 0.039-0.021 0.058-0.004 0.016-0.001 0.035-0.008 0.052-0.037 0.090-0.049 0.183-0.051 0.279 0 0.004-0.006 0.012-0.011 0.024-0.085 0.035-0.172 0.068-0.269 0.068-0.085 0.001-0.168-0.001-0.254 0-0.117 0.001-0.233 0.003-0.349 0.004-0.146 0.003-0.289-0.001-0.43-0.042-0.060-0.016-0.126-0.020-0.189-0.020-0.179 0.004-0.36 0.016-0.539 0.020-0.062 0.001-0.126-0.001-0.189-0.008-0.054-0.008-0.075-0.040-0.060-0.092 0.014-0.046 0.035-0.092 0.055-0.137 0.035-0.074 0.050-0.151 0.053-0.236-0.024-0.003-0.043-0.008-0.062-0.008-0.512 0-1.025-0.001-1.535 0.003-0.144 0.001-0.289 0.020-0.432 0.028-0.222 0.016-0.444 0.024-0.666 0.039-0.347 0.020-0.697 0.035-1.045 0.061-0.425 0.028-0.85 0.071-1.277 0.069-0.13-0.001-0.261 0.012-0.39 0.024-0.261 0.024-0.521 0.042-0.782 0.035-0.18-0.004-0.36-0.016-0.54-0.028-0.242-0.020-0.485-0.032-0.729-0.032-0.507 0-1.015 0-1.523-0.004-0.169-0.003-0.337-0.024-0.505-0.032-0.155-0.008-0.311-0.020-0.466-0.024-0.112-0.004-0.225-0.004-0.337-0.004-0.255 0.004-0.507-0.016-0.761-0.032-0.165-0.008-0.332-0.008-0.498-0.004-0.232 0.004-0.465 0.008-0.697-0.008-0.25-0.020-0.5-0.035-0.75-0.055-0.2-0.016-0.4-0.032-0.6-0.046-0.025-0.001-0.050 0-0.079 0-0.004 0.020-0.010 0.040-0.011 0.061-0.006 0.058-0.007 0.119-0.015 0.178-0.019 0.114-0.049 0.137-0.161 0.136-0.117-0.004-0.232-0.012-0.347-0.035-0.135-0.028-0.272-0.035-0.411-0.032-0.218 0.004-0.436 0.016-0.655 0.020-0.087 0-0.176-0.001-0.264-0.012-0.058-0.008-0.118-0.024-0.171-0.051-0.097-0.048-0.125-0.124-0.092-0.21 0.019-0.051 0.036-0.105 0.054-0.158 0.010-0.028 0.017-0.053 0.028-0.087h-0.123c-1.126 0.001-2.249 0.004-3.375 0.008-0.222 0-0.444-0.001-0.666-0.008-0.099-0.004-0.196-0.020-0.294-0.028s-0.197-0.020-0.296-0.024c-0.215-0.004-0.43-0.004-0.644-0.012-0.135-0.008-0.26 0.024-0.38 0.074-0.010 0.004-0.016 0.012-0.026 0.020v0.085c0.001 0.052 0.006 0.105 0.004 0.158-0.003 0.211-0.122 0.381-0.322 0.45-0.062 0.020-0.129 0.039-0.196 0.039-0.246 0.004-0.493 0.008-0.74 0.003-0.119-0.001-0.237-0.024-0.357-0.040-0.086-0.012-0.124-0.052-0.129-0.14-0.007-0.072-0.022-0.139-0.057-0.201-0.004-0.012-0.021-0.016-0.032-0.020v-0.275c0.006-0.024 0.014-0.046 0.017-0.069 0.015-0.097 0.031-0.194 0.043-0.293 0.017-0.107 0.033-0.215 0.022-0.325 0-0.024-0.003-0.054-0.017-0.068-0.022-0.024-0.026-0.048-0.028-0.076-0.007-0.069-0.013-0.14-0.019-0.21-0.004-0.035-0.013-0.068-0.018-0.102v-0.085c0.011-0.012 0.029-0.020 0.035-0.035 0.022-0.067 0.076-0.1 0.133-0.128 0.121-0.053 0.248-0.065 0.372-0.020 0.089 0.032 0.179 0.039 0.271 0.035 0.099-0.004 0.196 0.004 0.292 0.032 0.065 0.020 0.132 0.028 0.2 0.016 0.062-0.012 0.125 0.003 0.186 0.024 0.061 0.020 0.121 0.035 0.186 0.035 0.081 0 0.143 0.032 0.185 0.104 0.007 0.012 0.014 0.024 0.025 0.040 0.026 0.001 0.053 0.004 0.081 0.003 0.244-0.003 0.487 0.004 0.729 0.024 0.201 0.016 0.401 0.035 0.601 0.051 0.119 0.008 0.239 0.024 0.358 0.028 0.183 0.008 0.367 0.016 0.55 0.020 0.212 0.004 0.422 0.028 0.633 0.050 0.168 0.020 0.336 0.035 0.505 0.035 0.518 0.008 1.037 0.004 1.555-0.024 0.204-0.008 0.407-0.024 0.612-0.040 0.051-0.003 0.104-0.016 0.157-0.020 0.186-0.016 0.373-0.028 0.558-0.042 0.092-0.008 0.183-0.016 0.275-0.024 0.745-0.057 1.494-0.064 2.241-0.063 0.208 0 0.416 0.001 0.623-0.001 0.15-0.001 0.296 0.016 0.443 0.035 0.119 0.016 0.239 0.028 0.358 0.028 0.348 0.003 0.698 0 1.047-0.008 0.321-0.004 0.641 0.008 0.961 0.046 0.329 0.039 0.658 0.074 0.988 0.104 0.34 0.032 0.682 0.055 1.023 0.052 0.224-0.003 0.444 0.008 0.665 0.035 0.133 0.016 0.268 0.020 0.401 0.024 0.54 0 1.080-0.012 1.619-0.032 0.486-0.016 0.972-0.039 1.459-0.020 0.204 0.008 0.408-0.008 0.612-0.039 0.251-0.035 0.503-0.057 0.757-0.075 0.147-0.012 0.294-0.024 0.443-0.035 0.133-0.008 0.267-0.020 0.401-0.028 0.211-0.008 0.422-0.032 0.63-0.061 0.074-0.008 0.149-0.012 0.222-0.020 0.028-0.001 0.054-0.004 0.072-0.032 0.007-0.012 0.028-0.020 0.046-0.024 0.069-0.024 0.142-0.039 0.211-0.065 0.067-0.024 0.135-0.039 0.205-0.039 0.128 0 0.255-0.001 0.38 0 0.036 0 0.072 0 0.107 0.008 0.099 0.024 0.2 0.039 0.301 0.049 0.067 0.008 0.133 0.020 0.198 0.032 0.144 0.032 0.289 0.016 0.432 0.004 0.042-0.003 0.082-0.020 0.122-0.032 0.031-0.008 0.061-0.020 0.093-0.020 0.072-0.004 0.126 0.044 0.139 0.115 0.015 0.083 0.031 0.165 0.046 0.249 0.001 0.008 0.008 0.012 0.013 0.016z"></path>
<path d="M14.927 29.773c-0.065-0.016-0.129-0.032-0.196-0.040-0.162-0.020-0.315-0.069-0.461-0.146-0.176-0.096-0.357-0.183-0.54-0.265-0.071-0.032-0.137-0.072-0.204-0.113-0.058-0.035-0.118-0.043-0.18-0.020-0.171 0.067-0.35 0.082-0.53 0.079-0.149-0.001-0.297-0.003-0.444-0.016-0.21-0.016-0.416-0.008-0.621 0.032-0.185 0.035-0.369 0.063-0.557 0.074-0.207 0.016-0.412 0.053-0.614 0.104-0.193 0.050-0.383 0.044-0.573-0.016-0.104-0.032-0.21-0.061-0.314-0.090-0.072-0.020-0.129-0.055-0.171-0.116-0.014-0.024-0.031-0.047-0.046-0.071-0.078-0.124-0.192-0.197-0.33-0.226-0.058-0.016-0.119-0.024-0.178-0.024-0.29 0-0.58 0.004-0.866 0.046-0.16 0.024-0.318 0.057-0.478 0.085-0.103 0.016-0.203 0.028-0.304 0.044-0.087 0.012-0.175 0.024-0.261 0.035-0.124 0.020-0.247 0.012-0.369 0.004-0.015 0-0.029-0.003-0.043-0.004-0.033-0.008-0.054-0.035-0.049-0.071 0.004-0.028 0.011-0.054 0.018-0.082 0.025-0.079 0.033-0.157 0.022-0.24-0.024-0.158 0.033-0.182 0.164-0.193 0.037-0.004 0.076-0.001 0.115 0.001 0.247 0.024 0.494 0.012 0.74 0.008 0.067 0 0.132-0.020 0.196-0.040 0.096-0.028 0.186-0.067 0.279-0.097 0.112-0.035 0.215-0.086 0.318-0.142s0.205-0.108 0.311-0.16c0.081-0.039 0.157-0.081 0.225-0.137 0.067-0.057 0.139-0.11 0.201-0.171 0.061-0.060 0.112-0.126 0.168-0.19 0.013-0.016 0.025-0.032 0.037-0.048 0.053 0.012 0.083 0.047 0.111 0.085 0.021 0.028 0.040 0.057 0.057 0.089 0.051 0.1 0.128 0.175 0.218 0.239 0.033 0.020 0.065 0.043 0.097 0.064 0.061 0.035 0.117 0.082 0.162 0.136 0.064 0.076 0.144 0.133 0.236 0.172 0.050 0.020 0.097 0.042 0.146 0.064 0.081 0.035 0.157 0.081 0.228 0.132 0.040 0.028 0.082 0.057 0.125 0.079 0.096 0.053 0.19 0.107 0.279 0.172 0.1 0.076 0.21 0.093 0.33 0.067 0.168-0.039 0.337-0.074 0.505-0.108 0.114-0.024 0.229-0.046 0.342-0.074 0.118-0.028 0.229-0.068 0.337-0.121 0.071-0.032 0.142-0.061 0.215-0.089 0.101-0.035 0.19-0.090 0.267-0.166 0.037-0.040 0.085-0.074 0.132-0.104 0.074-0.047 0.132-0.104 0.175-0.181 0.019-0.032 0.040-0.067 0.064-0.097 0.054-0.068 0.107-0.067 0.165 0 0.013 0.016 0.022 0.028 0.031 0.043 0.047 0.076 0.112 0.133 0.186 0.185 0.105 0.072 0.207 0.148 0.312 0.219 0.085 0.057 0.169 0.114 0.257 0.166 0.081 0.050 0.164 0.098 0.226 0.172 0.036 0.042 0.083 0.065 0.135 0.078 0.093 0.024 0.186 0.046 0.279 0.061 0.114 0.020 0.228 0.043 0.336 0.086 0.112 0.044 0.226 0.050 0.344 0.035 0.207-0.024 0.41-0.068 0.614-0.105 0.055-0.012 0.111-0.024 0.167-0.032 0.125-0.012 0.24-0.054 0.35-0.113 0.172-0.093 0.328-0.21 0.468-0.344 0.060-0.057 0.107-0.131 0.154-0.2 0.047-0.071 0.086-0.146 0.132-0.216 0.050-0.078 0.108-0.148 0.182-0.204 0.068-0.051 0.108-0.072 0.189 0.020 0.015 0.016 0.028 0.035 0.036 0.053 0.037 0.072 0.094 0.124 0.158 0.169 0.069 0.046 0.142 0.093 0.211 0.14 0.118 0.078 0.235 0.155 0.351 0.236 0.081 0.057 0.171 0.098 0.262 0.136 0.149 0.061 0.3 0.119 0.45 0.182 0.112 0.047 0.228 0.075 0.349 0.074 0.11 0 0.219 0 0.329 0.003 0.153 0.004 0.301-0.024 0.444-0.082 0.099-0.039 0.197-0.074 0.296-0.114 0.122-0.047 0.248-0.072 0.38-0.082 0.193-0.016 0.385-0.048 0.573-0.089 0.112-0.024 0.214-0.072 0.304-0.143 0.078-0.061 0.151-0.126 0.229-0.187 0.081-0.063 0.162-0.124 0.246-0.185 0.039-0.028 0.082-0.055 0.121-0.085 0.103-0.078 0.179-0.179 0.224-0.301 0.010-0.032 0.017-0.063 0.051-0.085 0.022 0.016 0.047 0.024 0.067 0.044 0.040 0.042 0.082 0.086 0.118 0.133 0.050 0.068 0.096 0.14 0.14 0.211 0.046 0.074 0.104 0.135 0.171 0.186 0.082 0.064 0.161 0.126 0.239 0.194 0.149 0.125 0.308 0.233 0.476 0.332 0.069 0.040 0.147 0.067 0.222 0.096 0.069 0.028 0.14 0.046 0.208 0.075 0.108 0.044 0.219 0.079 0.333 0.104 0.047 0.008 0.092 0.028 0.149 0.048 0.19-0.039 0.378-0.046 0.503-0.020 0.001 0.008 0.008 0.020 0.007 0.028-0.029 0.099-0.069 0.19-0.122 0.281-0.047 0.081-0.118 0.116-0.21 0.119-0.035 0.001-0.071-0.001-0.105-0.001-0.197-0.003-0.394-0.008-0.593-0.012-0.085-0.001-0.168 0.016-0.248 0.044-0.013 0.004-0.026 0.008-0.039 0.016-0.153 0.074-0.305 0.069-0.461 0.001-0.103-0.046-0.214-0.069-0.325-0.086-0.16-0.028-0.307-0.079-0.437-0.176-0.042-0.032-0.090-0.055-0.137-0.079-0.069-0.035-0.143-0.035-0.215-0.008-0.010 0.003-0.021 0.004-0.031 0.008-0.178 0.083-0.358 0.164-0.536 0.251-0.085 0.043-0.171 0.081-0.262 0.105-0.062 0.016-0.121 0.039-0.179 0.063-0.248 0.108-0.503 0.205-0.762 0.283-0.343 0.104-0.687 0.11-1.034 0.028-0.25-0.061-0.5-0.122-0.748-0.187-0.144-0.035-0.29-0.061-0.439-0.055-0.046 0.001-0.092 0-0.137 0-0.078 0-0.154-0.016-0.228-0.042-0.029-0.012-0.061-0.020-0.090-0.032-0.051-0.020-0.096-0.016-0.137 0.024-0.062 0.054-0.137 0.083-0.218 0.103-0.054 0.012-0.105 0.035-0.157 0.061-0.085 0.042-0.172 0.060-0.265 0.055-0.094-0.003-0.192-0.003-0.286-0.004-0.236-0.004-0.471 0.008-0.705 0.047-0.139 0.024-0.28 0.032-0.421 0.040-0.155 0.012-0.311 0.012-0.465 0.024-0.075 0.004-0.155 0.008-0.226 0.042z"></path>
<path d="M17.424 5.032c0.019 0.053 0.026 0.105 0.025 0.164-0.006 0.153-0.003 0.303-0.003 0.454 0 0.028 0.004 0.057 0.008 0.086 0.013 0.083 0.021 0.166 0.036 0.25 0.014 0.075 0.029 0.153 0.053 0.226 0.044 0.143 0.065 0.287 0.060 0.437-0.006 0.163-0.004 0.323-0.026 0.485-0.011 0.078-0.004 0.155 0.008 0.232 0.010 0.069 0.017 0.142 0.014 0.211-0.004 0.103 0.004 0.204 0.022 0.305 0.004 0.032 0.011 0.064 0.008 0.093-0.013 0.14 0.017 0.274 0.037 0.411 0.036 0.226 0.067 0.453 0.075 0.682 0.015 0.321 0.058 0.639 0.126 0.952 0.013 0.053 0.032 0.101 0.081 0.132 0.042 0.024 0.061 0.065 0.075 0.111 0.053 0.168 0.108 0.335 0.155 0.504 0.068 0.246 0.14 0.487 0.239 0.722 0.029 0.066 0.040 0.142 0.062 0.212 0.018 0.053 0.036 0.107 0.061 0.155 0.032 0.064 0.062 0.126 0.072 0.198 0.004 0.028 0.011 0.054 0.018 0.082 0.019 0.089 0.054 0.166 0.132 0.221 0.028 0.020 0.060 0.042 0.060 0.086-0.015 0.028-0.046 0.031-0.072 0.031-0.119 0.008-0.239 0.012-0.355-0.031-0.16-0.063-0.323-0.055-0.489-0.031-0.167 0.024-0.335 0.046-0.503 0.065-0.053 0.004-0.107-0.003-0.16 0-0.083 0.004-0.168 0.012-0.251 0.016-0.043 0.003-0.086 0.008-0.126 0.008-0.061 0.004-0.119 0.008-0.179 0.016-0.028 0-0.057 0.003-0.085-0.001-0.226-0.031-0.455-0.046-0.686-0.035-0.040 0.001-0.083 0-0.126-0.004-0.032-0.003-0.051-0.050-0.029-0.074 0.112-0.114 0.158-0.266 0.229-0.403 0.147-0.279 0.285-0.565 0.425-0.85 0.099-0.204 0.162-0.421 0.232-0.634 0.018-0.054 0.029-0.111 0.032-0.165 0.019-0.258 0.075-0.509 0.139-0.758 0.061-0.233 0.099-0.469 0.121-0.708 0.011-0.129 0.043-0.257 0.071-0.383 0.039-0.178 0.061-0.354 0.079-0.533 0.031-0.316 0.018-0.634 0.014-0.951 0-0.035-0.001-0.071-0.001-0.107-0.003-0.107 0.015-0.21 0.062-0.307 0.039-0.076 0.057-0.16 0.049-0.246-0.014-0.165 0.008-0.331 0.025-0.496 0.004-0.044 0.019-0.089 0.035-0.132 0.024-0.074 0.044-0.147 0.050-0.226 0.004-0.064 0.019-0.125 0.031-0.187 0.011-0.055 0.017-0.11-0.019-0.161-0.035-0.048-0.006-0.086 0.026-0.122z"></path>
<path d="M21.105 21.888c0.025-0.028 0.015-0.060 0.014-0.090-0.006-0.14 0-0.281 0.026-0.419 0.031-0.171 0.036-0.343-0.013-0.514-0.013-0.044-0.014-0.090-0.017-0.136-0.010-0.124-0.019-0.246-0.029-0.369-0.003-0.055-0.010-0.111-0.013-0.166-0.001-0.044-0.010-0.085-0.040-0.118-0.021-0.024-0.031-0.054-0.031-0.087 0.001-0.125-0.065-0.227-0.119-0.334-0.026-0.050-0.074-0.075-0.13-0.075-0.043 0-0.085 0.004-0.126 0.008-0.044 0.003-0.082 0.024-0.112 0.054-0.051 0.057-0.105 0.113-0.158 0.171-0.081 0.089-0.122 0.194-0.135 0.314-0.004 0.035-0.003 0.071-0.007 0.105-0.011 0.081-0.019 0.161-0.039 0.239-0.019 0.079-0.033 0.158-0.029 0.24 0.010 0.204 0.024 0.407 0.035 0.612 0.003 0.052 0.003 0.104 0.004 0.157 0.003 0.060 0.004 0.119 0.010 0.179 0.004 0.057 0.011 0.113 0.019 0.166 0.006 0.042 0.015 0.083 0.028 0.124 0.015 0.044 0.033 0.055 0.079 0.052 0.153-0.008 0.303-0.024 0.444-0.082 0.055-0.024 0.108-0.028 0.165-0.008 0.013 0.004 0.028 0.008 0.040 0.004 0.044-0.004 0.089-0.016 0.133-0.024zM18.81 23.559c-0.017 0.039-0.031 0.072-0.047 0.114-0.028-0.001-0.057 0.004-0.082-0.004-0.16-0.053-0.326-0.053-0.49-0.069-0.081-0.008-0.161-0.012-0.24-0.028-0.081-0.016-0.161-0.020-0.243-0.020-0.112 0.001-0.225 0.004-0.337-0.016-0.051-0.008-0.105-0.012-0.158-0.008-0.149 0.008-0.294-0.008-0.443-0.024-0.049-0.004-0.099-0.003-0.147 0.001-0.099 0.008-0.197 0.016-0.296 0.008-0.087-0.008-0.176-0.008-0.264-0.016-0.046-0.001-0.092-0.004-0.137-0.008-0.065-0.004-0.133-0.008-0.2-0.016-0.019-0.003-0.040-0.008-0.064-0.012-0.024-0.068-0.017-0.133-0.011-0.2 0.010-0.090 0.021-0.182 0.031-0.273 0.019-0.182 0.040-0.364 0.060-0.546 0.004-0.024 0.007-0.048 0.008-0.074 0.008-0.279 0.018-0.557 0.026-0.834 0.006-0.142 0.008-0.283 0.019-0.422 0.010-0.142 0.010-0.283-0.004-0.423-0.014-0.119-0.015-0.239-0.014-0.358 0-0.139 0.003-0.276-0.024-0.412-0.014-0.069-0.031-0.137-0.043-0.207-0.033-0.175-0.029-0.353-0.010-0.526 0.025-0.211 0.031-0.422 0.028-0.633 0-0.028 0.006-0.054 0.007-0.087 0.033-0.001 0.061-0.008 0.087-0.008 0.251 0.008 0.5-0.020 0.75-0.028 0.128-0.004 0.253-0.028 0.371-0.081 0.104-0.046 0.215-0.065 0.33-0.065 0.051 0 0.104-0.008 0.157-0.012 0.211-0.016 0.422-0.028 0.633 0.008 0.054 0.008 0.111 0.001 0.167-0.001 0.053-0.004 0.105-0.012 0.158-0.020 0.067-0.004 0.133-0.008 0.2-0.016 0.014 0 0.032 0 0.040-0.008 0.053-0.053 0.124-0.046 0.189-0.054 0.068-0.008 0.14-0.008 0.211-0.004 0.204 0.008 0.41 0.004 0.612-0.020 0.112-0.016 0.225-0.004 0.337 0.008 0.192 0.024 0.383 0.048 0.576 0.072 0.046 0.008 0.092 0.008 0.137 0.008 0.25 0.012 0.5 0.024 0.75 0.039 0.224 0.012 0.443-0.001 0.662-0.046 0.1-0.024 0.203-0.020 0.311-0.008-0.001 0.020-0.001 0.039-0.004 0.054-0.022 0.1-0.019 0.203-0.014 0.304 0.003 0.042 0.022 0.082 0.036 0.121 0.028 0.074 0.042 0.15 0.047 0.226 0.007 0.125 0.013 0.247 0.028 0.369 0.017 0.142 0.015 0.282 0.014 0.422-0.003 0.311-0.007 0.622-0.008 0.931-0.003 0.462-0.003 0.923-0.007 1.386-0.001 0.226 0.015 0.451 0.067 0.672 0.033 0.146 0.046 0.293 0.051 0.44 0.003 0.055-0.004 0.113-0.014 0.168-0.015 0.090-0.072 0.151-0.157 0.183-0.036 0.016-0.075 0.024-0.112 0.028-0.058 0.008-0.11 0.024-0.155 0.061-0.042 0.035-0.089 0.057-0.14 0.072-0.036 0.012-0.072 0.024-0.108 0.042-0.081 0.035-0.162 0.042-0.247 0.028-0.064-0.008-0.126-0.016-0.19-0.016-0.090 0.001-0.175-0.020-0.255-0.055-0.175-0.082-0.362-0.114-0.553-0.133-0.078-0.008-0.154-0.004-0.23 0.016-0.124 0.032-0.25 0.039-0.378 0.035-0.039 0-0.078-0.001-0.117-0.003-0.172-0.004-0.346-0.004-0.516 0.024-0.103 0.016-0.204 0.008-0.304-0.020-0.093-0.024-0.186-0.035-0.283-0.028-0.017 0.001-0.035 0.004-0.053 0.008z"></path>
<path d="M8.506 21.037c0.021 0.068 0.043 0.125 0.028 0.186-0.026 0.104-0.018 0.21-0.011 0.315 0.006 0.094 0.008 0.192 0.014 0.286 0.001 0.053 0.001 0.104-0.017 0.155-0.011 0.039-0.015 0.078 0.011 0.113 0.035 0.044 0.036 0.097 0.039 0.15 0.003 0.071 0.006 0.142 0.014 0.211 0.018 0.139 0.062 0.168 0.2 0.135 0.075-0.020 0.15-0.039 0.229-0.032 0.054 0.003 0.072-0.024 0.065-0.081-0.004-0.046-0.007-0.092-0.008-0.137-0.004-0.169-0.007-0.339-0.011-0.507-0.004-0.187-0.014-0.373 0.004-0.559 0.006-0.053 0.004-0.107 0.006-0.158 0-0.020-0.006-0.040-0.008-0.064-0.165-0.046-0.333-0.020-0.497-0.032-0.014 0-0.032 0.012-0.057 0.020zM9.067 18.541c-0.021-0.008-0.031-0.016-0.040-0.020-0.157-0.028-0.316-0.016-0.475-0.020-0.032-0.001-0.050 0.028-0.035 0.061 0.025 0.050 0.026 0.102 0.014 0.154-0.022 0.105-0.015 0.21-0.010 0.316 0.006 0.098 0.010 0.196 0.015 0.296 0.001 0.055 0.001 0.111-0.017 0.166-0.011 0.039-0.015 0.078 0.011 0.113 0.032 0.044 0.036 0.097 0.039 0.151 0.003 0.074 0.003 0.147 0.014 0.221 0.022 0.146 0.049 0.172 0.194 0.143 0.083-0.016 0.162-0.046 0.25-0.039 0.036 0.003 0.056-0.024 0.053-0.064-0.004-0.074-0.008-0.147-0.011-0.221-0.006-0.165-0.008-0.332-0.013-0.497-0.003-0.176-0.013-0.351 0.004-0.528 0.008-0.076 0.010-0.154 0.006-0.235zM10.487 17.792c-0.064 0.083-0.053 0.166-0.053 0.251 0.001 0.201 0.006 0.403 0 0.604-0.006 0.136-0.025 0.273-0.044 0.41-0.040 0.258-0.046 0.518-0.018 0.779 0.004 0.039 0.006 0.076 0.008 0.116 0.014 0.129 0.028 0.258 0.039 0.387 0.008 0.089 0.015 0.176 0.017 0.264 0.004 0.247 0.001 0.494 0.004 0.741 0.003 0.24-0.010 0.479-0.024 0.718-0.010 0.14-0.033 0.281-0.065 0.418-0.068 0.281-0.092 0.562-0.075 0.851 0.003 0.028 0.001 0.055 0 0.083 0 0.008-0.004 0.016-0.008 0.028-0.014 0.001-0.029 0.004-0.046 0.004-0.078-0.003-0.154 0.004-0.232 0.016-0.083 0.012-0.168 0.012-0.253 0.008-0.408-0.003-0.818-0.040-1.226-0.028-0.11 0.003-0.219 0.012-0.328 0.020-0.035 0.003-0.069 0.003-0.105 0.004-0.053 0.004-0.106 0.008-0.157 0.016-0.018 0.001-0.035 0.008-0.053 0.004-0.149-0.004-0.294 0.020-0.443 0.028-0.033 0.001-0.068 0.008-0.103 0.016-0.025 0.004-0.049 0.016-0.072 0.020-0.062 0.008-0.104-0.028-0.103-0.089 0.001-0.039 0.010-0.078 0.019-0.115 0.036-0.125 0.057-0.251 0.062-0.383 0.007-0.137 0.031-0.273 0.046-0.41 0.016-0.154 0.037-0.308 0.031-0.464-0.001-0.055 0.011-0.113 0.014-0.168 0.006-0.068 0.011-0.135 0.011-0.2 0.001-0.21-0.001-0.417-0.001-0.625 0-0.142 0.001-0.282 0.003-0.423 0.001-0.105-0.004-0.211-0.016-0.316-0.018-0.147-0.014-0.296-0.001-0.443 0.007-0.078 0.014-0.155 0.015-0.232 0.003-0.085-0.001-0.171 0.001-0.254 0.007-0.214-0.025-0.422-0.072-0.629-0.010-0.039-0.016-0.075-0.029-0.113-0.047-0.15-0.054-0.304-0.056-0.459 0-0.039 0.007-0.078 0.013-0.115 0.010-0.046 0.033-0.083 0.072-0.113 0.115-0.086 0.225-0.181 0.318-0.293 0.039-0.047 0.094-0.082 0.146-0.121 0.042-0.028 0.092-0.040 0.142-0.039 0.169 0.008 0.339 0.008 0.507 0.028 0.226 0.028 0.451 0.072 0.679 0.107 0.192 0.028 0.383 0.054 0.578 0.048 0.043 0 0.085 0.001 0.128 0 0.226-0.008 0.45 0.024 0.673 0.046 0.014 0.001 0.028 0.008 0.058 0.016z"></path>
<path d="M12.472 18.924c0.004 0.003 0.008 0.008 0.008 0.008 0.008-0.001 0.015-0.004 0.024-0.008zM13.659 21.080h0.003v-0.116c0-0.155 0.003-0.31-0.025-0.464-0.021-0.122-0.056-0.24-0.108-0.353-0.035-0.069-0.079-0.132-0.14-0.183-0.067-0.057-0.142-0.067-0.217-0.024-0.067 0.035-0.135 0.076-0.185 0.137s-0.099 0.119-0.143 0.183c-0.083 0.116-0.118 0.247-0.115 0.389 0.003 0.153 0 0.304-0.001 0.454-0.001 0.114-0.001 0.226 0.014 0.339 0.013 0.090 0.014 0.183 0.018 0.275 0.001 0.020 0.001 0.047-0.011 0.058-0.022 0.024-0.019 0.051-0.019 0.079 0.001 0.172 0.003 0.344 0.003 0.518 0 0.020 0 0.042 0.003 0.063 0.008 0.052 0.032 0.076 0.085 0.078 0.056 0.003 0.112-0.003 0.168-0.008 0.067-0.008 0.132-0.016 0.2-0.028 0.153-0.028 0.308-0.020 0.462-0.020 0.008 0 0.015 0.001 0.022 0.001 0.054-0.001 0.069-0.024 0.056-0.072-0.007-0.020-0.018-0.039-0.021-0.061-0.008-0.093-0.018-0.189-0.024-0.283-0.004-0.081 0-0.163 0-0.243-0.001-0.055-0.006-0.113-0.008-0.169-0.004-0.076-0.014-0.154-0.015-0.232-0.003-0.104 0-0.211 0-0.316zM14.828 23.511c-0.054 0.004-0.1 0.008-0.144 0.008-0.142-0.008-0.282 0.012-0.422 0.028-0.111 0.012-0.225 0.024-0.337 0.028-0.362 0.004-0.726 0.004-1.088 0.001-0.151-0.001-0.304-0.012-0.454-0.024-0.146-0.012-0.289-0.004-0.432 0.028-0.13 0.028-0.264 0.042-0.397 0.048-0.039 0.003-0.078 0.001-0.115-0.004-0.074-0.012-0.092-0.039-0.071-0.11 0.022-0.075 0.032-0.151 0.028-0.231-0.003-0.039-0.008-0.076-0.014-0.114-0.011-0.063-0.011-0.125 0.001-0.189 0.011-0.055 0.015-0.113 0.015-0.168 0.010-0.299 0.017-0.6 0.024-0.898 0.003-0.1 0.006-0.198 0.006-0.296v-1.957c0-0.071-0.003-0.14-0.006-0.211-0.006-0.087-0.006-0.176 0.013-0.264 0.026-0.136 0.099-0.2 0.226-0.21 0.025-0.001 0.050-0.004 0.074-0.004 0.103 0.001 0.205-0.008 0.304-0.032 0.094-0.024 0.189-0.028 0.283-0.024 0.039 0.001 0.076 0.003 0.114-0.016 0.042-0.020 0.092-0.016 0.133 0.004 0.032 0.016 0.061 0.012 0.093 0.008 0.087-0.008 0.174-0.020 0.262-0.024 0.186-0.012 0.372-0.020 0.559-0.028 0.046-0.001 0.092-0.003 0.137 0.003 0.112 0.016 0.225 0.016 0.336 0.001 0.075-0.008 0.149-0.008 0.222 0.004 0.094 0.016 0.189 0.024 0.285 0.016 0.035-0.003 0.071-0.001 0.104 0.004 0.074 0.016 0.144 0.032 0.221 0.020 0.036-0.004 0.068 0.016 0.081 0.054 0.006 0.016 0.011 0.032 0.013 0.051 0.010 0.094 0.022 0.189 0.026 0.285 0.006 0.216 0.006 0.436 0.007 0.655 0 0.028-0.003 0.055-0.006 0.083-0.001 0.032-0.010 0.064-0.036 0.085-0.032 0.024-0.040 0.055-0.039 0.094 0.007 0.125 0.011 0.251 0.042 0.376 0.047 0.187 0.069 0.382 0.068 0.575 0 0.153 0.001 0.304 0.004 0.457 0.007 0.225-0.013 0.45-0.047 0.672-0.015 0.087-0.021 0.176-0.032 0.262-0.008 0.082-0.015 0.163-0.028 0.243-0.018 0.133-0.018 0.266-0.013 0.401 0.004 0.076 0.006 0.154 0.008 0.232 0 0.020-0.004 0.042-0.008 0.075z"></path>
<path d="M24.999 19.961c-0.035-0.11-0.033-0.11-0.021-0.219 0.006-0.046 0.008-0.092 0.007-0.137-0.003-0.119-0.008-0.239-0.015-0.358-0.004-0.081-0.013-0.163 0.015-0.24 0.014-0.035 0.011-0.072-0.011-0.101-0.035-0.042-0.035-0.090-0.037-0.139-0.003-0.082-0.008-0.164-0.021-0.243-0.015-0.096-0.039-0.143-0.165-0.119-0.010 0.003-0.021 0.003-0.031 0.004-0.078 0.024-0.157 0.042-0.239 0.035-0.039-0.003-0.055 0.020-0.054 0.061 0 0.050 0.004 0.098 0.006 0.148 0.004 0.137 0.008 0.275 0.011 0.412 0.006 0.243 0.017 0.486-0.007 0.729-0.004 0.048-0.011 0.098 0.006 0.153 0.161 0.050 0.328 0.020 0.491 0.028 0.019 0.001 0.039-0.008 0.065-0.016zM24.432 20.924c0 0.052-0.001 0.102 0 0.15 0.004 0.172 0.011 0.346 0.013 0.516 0.004 0.239 0.015 0.479-0.008 0.718-0.004 0.048-0.011 0.097 0.003 0.148 0.040 0.020 0.082 0.028 0.124 0.028 0.13 0.004 0.261 0.004 0.39 0.004 0.014 0 0.029-0.016 0.043-0.024-0.003-0.016-0.003-0.028-0.007-0.035-0.025-0.050-0.028-0.098-0.017-0.153 0.011-0.058 0.013-0.121 0.013-0.179-0.003-0.126-0.010-0.254-0.017-0.381-0.004-0.078-0.008-0.154 0.017-0.229 0.014-0.040 0.011-0.078-0.014-0.111-0.028-0.035-0.032-0.075-0.035-0.119-0.003-0.087-0.011-0.175-0.019-0.264-0.001-0.024-0.010-0.047-0.018-0.069-0.021-0.055-0.046-0.071-0.104-0.067-0.025 0-0.050 0.004-0.072 0.012-0.076 0.020-0.15 0.042-0.229 0.032-0.019-0.001-0.039 0.012-0.061 0.020zM23.407 23.524c-0.003-0.042-0.006-0.074-0.006-0.104-0.003-0.607-0.004-1.213-0.007-1.82 0-0.158 0.007-0.316 0.022-0.475 0.008-0.081 0.013-0.163 0.013-0.243-0.001-0.139 0.017-0.275 0.036-0.411 0.033-0.224 0.057-0.446 0.074-0.672 0.006-0.085 0.015-0.168 0.022-0.253 0.008-0.133 0.011-0.266 0.022-0.401 0.039-0.489 0.017-0.98 0.022-1.469 0-0.054-0.007-0.108 0.003-0.158 0.010-0.047 0.037-0.090 0.060-0.137 0.035 0.004 0.069 0.012 0.103 0.016 0.161 0.016 0.323 0.032 0.485-0.003 0.028-0.004 0.055-0.008 0.083-0.008 0.075 0.003 0.149 0.004 0.221-0.016 0.039-0.012 0.076-0.001 0.111 0.020 0.061 0.039 0.124 0.069 0.182 0.107 0.036 0.024 0.067 0.053 0.097 0.083 0.039 0.040 0.082 0.075 0.136 0.097 0.025 0.012 0.051 0.024 0.072 0.042 0.064 0.053 0.136 0.087 0.214 0.114 0.092 0.032 0.172 0.079 0.246 0.14 0.040 0.032 0.086 0.061 0.133 0.085 0.126 0.063 0.175 0.105 0.125 0.281-0.037 0.133-0.047 0.269-0.042 0.407 0.001 0.071 0.013 0.142 0.019 0.211 0.006 0.067 0.015 0.133 0.017 0.2 0.006 0.208 0.003 0.415-0.015 0.623-0.010 0.122-0.008 0.247-0.015 0.371-0.004 0.094-0.006 0.19-0.017 0.285-0.022 0.204 0 0.408 0.015 0.612 0.004 0.069 0.015 0.14 0.029 0.21 0.025 0.139 0.029 0.279 0.029 0.421-0.003 0.387-0.006 0.776-0.007 1.163 0 0.024 0 0.050 0.004 0.074 0.022 0.118 0.047 0.236 0.068 0.353 0.008 0.039 0.010 0.076 0.010 0.115 0 0.035-0.019 0.053-0.053 0.053-0.028 0.001-0.055 0-0.085-0.004-0.151-0.035-0.301-0.020-0.448 0.020-0.068 0.020-0.135 0.040-0.201 0.064-0.139 0.051-0.28 0.068-0.426 0.032-0.103-0.024-0.208-0.028-0.314-0.028-0.061 0.001-0.121 0.004-0.18 0.003-0.071-0.004-0.14-0.008-0.21-0.020-0.121-0.016-0.239-0.016-0.357 0.016-0.068 0.016-0.137 0.032-0.21 0.024-0.024-0.003-0.047-0.008-0.081-0.016z"></path>
<path d="M14.821 17.861c-0.037-0.008-0.071-0.016-0.104-0.028-0.072-0.028-0.144-0.028-0.218-0.012-0.035 0.008-0.069 0.012-0.104 0.020-0.050 0.008-0.099 0.016-0.146 0.028-0.064 0.020-0.129 0.028-0.197 0.028-0.092 0-0.182 0.012-0.274 0.016-0.049 0.003-0.1 0.004-0.149 0.008-0.157 0.012-0.316 0.028-0.475 0.035-0.104 0.008-0.211 0.012-0.316 0.012-0.36 0-0.719-0.001-1.079 0-0.060 0-0.121 0.003-0.179 0.004-0.022 0-0.043 0-0.064-0.003-0.010-0.001-0.019-0.008-0.032-0.016-0.018-0.046-0.015-0.094-0.015-0.143 0.003-0.194 0.004-0.387 0.008-0.582 0.001-0.092 0.004-0.183 0.008-0.275 0.003-0.054 0.001-0.105-0.015-0.155-0.067-0.020-0.129-0.040-0.193-0.054-0.042-0.008-0.085-0.016-0.125-0.016-0.153 0.008-0.304 0.016-0.455 0.028-0.149 0.016-0.296 0.008-0.441-0.020-0.017-0.004-0.035-0.008-0.053-0.008-0.090-0.008-0.182-0.016-0.272-0.024-0.033-0.003-0.065-0.020-0.101-0.028 0-0.055 0.040-0.086 0.053-0.129 0.014-0.048 0.053-0.069 0.092-0.094 0.042-0.028 0.079-0.060 0.114-0.093 0.282-0.272 0.562-0.546 0.843-0.818 0.126-0.121 0.233-0.255 0.335-0.397 0.068-0.093 0.135-0.189 0.208-0.292 0.017-0.003 0.044-0.008 0.072-0.008 0.035-0.001 0.069 0.001 0.104 0.001 0.258 0.001 0.516-0.003 0.773 0.020 0.26 0.024 0.521 0.003 0.782-0.004 0.126-0.004 0.254-0.004 0.382-0.004 0.176 0.003 0.351 0.008 0.527 0.012 0.068 0.001 0.133-0.004 0.198-0.024 0.155-0.048 0.312-0.052 0.471-0.016 0.031 0.008 0.061 0.016 0.092 0.028 0.032 0.012 0.062 0.031 0.097 0.042 0.032 0.008 0.068 0.012 0.101 0.020 0.029 0.040 0.018 0.083 0.017 0.125-0.010 0.15-0.022 0.303-0.033 0.453-0.013 0.169-0.017 0.337-0.050 0.505-0.022 0.115-0.019 0.231-0.017 0.348 0.004 0.076 0.004 0.154-0.021 0.229-0.015 0.043-0.014 0.090-0.019 0.136-0.013 0.097-0.024 0.194-0.040 0.293-0.013 0.083-0.025 0.166-0.028 0.251-0.001 0.082-0.011 0.163-0.015 0.242-0.003 0.050-0.003 0.1-0.003 0.149 0.001 0.068-0.006 0.133-0.043 0.208z"></path>
<path d="M16.939 13.842c-0.015-0.003-0.025-0.004-0.036-0.004-0.122-0.008-0.246 0.020-0.368-0.020-0.039-0.012-0.078 0.020-0.082 0.065-0.003 0.044 0 0.092 0.004 0.136 0.003 0.031 0.011 0.063 0.014 0.093 0.028 0.371 0.051 0.74 0.047 1.111-0.004 0.24 0 0.479 0 0.72 0.007-0.001 0.019 0 0.028-0.004 0.058-0.047 0.126-0.053 0.198-0.053 0.085 0.001 0.168-0.016 0.243-0.046 0.024-0.035 0.019-0.071 0.019-0.107 0-0.451 0.001-0.902-0.001-1.354-0.001-0.129-0.013-0.261-0.022-0.392-0.003-0.048-0.014-0.097-0.044-0.146zM18.126 13.846c-0.039-0.012-0.065-0.020-0.093-0.024s-0.055-0.008-0.083-0.008c-0.107-0.003-0.212-0.008-0.318-0.008-0.050-0.001-0.075 0.028-0.055 0.075 0.031 0.075 0.025 0.152 0.015 0.228-0.011 0.092-0.017 0.182-0.013 0.275 0.007 0.172 0.013 0.345 0.018 0.516 0.004 0.075 0.001 0.148-0.017 0.222-0.013 0.047-0.013 0.097 0.013 0.143 0.033 0.057 0.037 0.119 0.039 0.183 0.004 0.114 0.011 0.226 0.019 0.337 0.003 0.035 0.013 0.069 0.024 0.103 0.018 0.053 0.050 0.072 0.105 0.063 0.032-0.004 0.062-0.012 0.092-0.024 0.062-0.024 0.126-0.040 0.196-0.035 0.055 0.004 0.076-0.024 0.075-0.076-0.001-0.046-0.010-0.092-0.010-0.137 0-0.583-0.035-1.169-0.001-1.753 0.001-0.024-0.004-0.048-0.006-0.078zM18.919 13.216c-0.003 0.087-0.008 0.172-0.040 0.251-0.046 0.113-0.058 0.232-0.055 0.353 0.003 0.094 0.004 0.19-0.001 0.284-0.006 0.085-0.019 0.168-0.028 0.251-0.007 0.064-0.015 0.126-0.017 0.19-0.001 0.149-0.006 0.297 0.003 0.444 0.007 0.115 0.022 0.231 0.049 0.344 0.043 0.201 0.062 0.403 0.055 0.609-0.004 0.126 0.010 0.253 0.017 0.379 0.004 0.092 0.010 0.183 0.018 0.275 0.021 0.255 0.044 0.512 0.039 0.771-0.001 0.035-0.004 0.069-0.006 0.108-0.028 0.003-0.051 0.008-0.076 0.008-0.122 0.001-0.247 0.004-0.369 0-0.237-0.008-0.472 0.008-0.707 0.044-0.294 0.040-0.589 0.058-0.884 0.076-0.201 0.012-0.401 0.016-0.601 0.012-0.199-0.003-0.394 0.008-0.598 0.012-0.004-0.012-0.011-0.032-0.013-0.052-0.001-0.366-0.004-0.733-0.003-1.099 0-0.067 0.010-0.133 0.017-0.2 0.004-0.053 0.013-0.105 0.011-0.158-0.008-0.166 0.010-0.331 0.049-0.493 0.026-0.11 0.035-0.222 0.031-0.336-0.011-0.215 0.001-0.429 0.024-0.644 0.007-0.069 0.007-0.14 0.007-0.211-0.001-0.303-0.004-0.605-0.007-0.909-0.001-0.046-0.010-0.092-0.010-0.137 0-0.079 0.036-0.114 0.115-0.121 0.196-0.016 0.393-0.028 0.59-0.043 0.078-0.004 0.154-0.008 0.233-0.004 0.099 0.001 0.196-0.004 0.293-0.028 0.096-0.024 0.194-0.031 0.293-0.028 0.174 0.004 0.346 0.008 0.518-0.016 0.042-0.004 0.085-0.003 0.126-0.004 0.183-0.003 0.366-0.004 0.551-0.008 0.062 0 0.126 0.003 0.19 0.003 0.069-0.001 0.13 0.020 0.187 0.078z"></path>
<path d="M19.916 13.566c0.222 0 0.43-0.004 0.637 0.003 0.108 0.003 0.218 0.024 0.325 0.044 0.139 0.028 0.278 0.042 0.419 0.053 0.124 0.012 0.244 0.028 0.362 0.068 0.101 0.031 0.207 0.040 0.312 0.035 0.169-0.008 0.339-0.016 0.507-0.020 0.169 0 0.339-0.008 0.507-0.028 0.103-0.016 0.204 0.004 0.305 0.020 0.008 0.003 0.018 0.008 0.033 0.016 0.021 0.15 0.093 0.284 0.157 0.421 0.046 0.094 0.087 0.193 0.121 0.292 0.050 0.155 0.13 0.289 0.254 0.396 0.055 0.048 0.111 0.097 0.164 0.149 0.040 0.039 0.081 0.081 0.112 0.125 0.175 0.244 0.344 0.492 0.541 0.718 0.078 0.089 0.129 0.193 0.18 0.299 0.037 0.079 0.081 0.154 0.119 0.235 0.026 0.053 0.049 0.108 0.071 0.164 0.018 0.047 0.037 0.089 0.076 0.125 0.040 0.039 0.075 0.082 0.092 0.144-0.017 0.004-0.032 0.016-0.047 0.016-0.086 0.012-0.169-0.008-0.251-0.024-0.115-0.028-0.23-0.039-0.346-0.039-0.121-0.004-0.24-0.008-0.36-0.020-0.101-0.008-0.203-0.028-0.305-0.028-0.042-0.001-0.082-0.016-0.124-0.024-0.13-0.035-0.262-0.053-0.397-0.052-0.119 0.003-0.239-0.001-0.36 0.001-0.118 0.003-0.212-0.043-0.289-0.129-0.025-0.028-0.049-0.061-0.074-0.090-0.074-0.092-0.144-0.183-0.219-0.272-0.078-0.093-0.164-0.172-0.262-0.243-0.1-0.072-0.19-0.158-0.28-0.242-0.037-0.035-0.065-0.083-0.094-0.128-0.085-0.119-0.168-0.243-0.255-0.362-0.028-0.040-0.061-0.078-0.097-0.11-0.046-0.040-0.089-0.081-0.114-0.139-0.029-0.003-0.057-0.004-0.085-0.004-0.16 0.001-0.318 0.004-0.476 0.008-0.155 0.003-0.31-0.001-0.465-0.020-0.103-0.012-0.211-0.008-0.315-0.008-0.129 0-0.157-0.024-0.157-0.153-0.001-0.092 0-0.183 0-0.275 0.001-0.031 0.006-0.063 0.011-0.094 0.033-0.166 0.053-0.333 0.046-0.504-0.003-0.069 0-0.142 0.004-0.211 0.001-0.035 0.010-0.068 0.015-0.111z"></path>
<path d="M4.683 23.491c0.001-0.172-0.050-0.343-0.035-0.522 0.013-0.132 0.010-0.266 0.003-0.401-0.007-0.131 0.003-0.26 0.018-0.39 0.007-0.052 0.008-0.104 0.013-0.158 0.006-0.063 0.013-0.126 0.018-0.189 0.003-0.049 0.007-0.099 0.007-0.149-0.001-0.214 0.001-0.429-0.006-0.644-0.004-0.169-0.021-0.337-0.032-0.507-0.007-0.098-0.016-0.197-0.024-0.296-0.014-0.225-0.028-0.451-0.040-0.675-0.004-0.071-0.006-0.142-0.004-0.212 0-0.040 0.026-0.061 0.062-0.048 0.101 0.039 0.2 0.024 0.301-0.001 0.158-0.039 0.319-0.057 0.482-0.052 0.219 0.008 0.436-0.020 0.655-0.028 0.039-0.003 0.049-0.035 0.078-0.051 0.039 0.012 0.078 0.028 0.118 0.039 0.056 0.016 0.079 0.054 0.081 0.11 0 0.032 0 0.064 0 0.096-0.008 0.433-0.018 0.866-0.026 1.301-0.001 0.137-0.001 0.275 0 0.412 0.001 0.093 0.003 0.183-0.014 0.275-0.010 0.051-0.011 0.104-0.014 0.158-0.010 0.305-0.021 0.612-0.028 0.919-0.003 0.148-0.004 0.296-0.021 0.444-0.013 0.132-0.004 0.268-0.006 0.401 0 0.008 0 0.020 0.001 0.032 0.016 0.1-0.039 0.158-0.115 0.205-0.037 0.024-0.075 0.032-0.121 0.020-0.094-0.024-0.189-0.020-0.283-0.001-0.085 0.016-0.168 0.020-0.251-0.001-0.028-0.008-0.057-0.012-0.085-0.008-0.124 0.001-0.246-0.008-0.369-0.020-0.058-0.008-0.119-0.003-0.179-0.004-0.078 0-0.108-0.008-0.185-0.054z"></path>
<path d="M28.394 23.563c-0.019 0.004-0.026 0.008-0.033 0.008-0.305 0-0.612 0.035-0.919 0.024-0.099-0.004-0.197-0.001-0.296 0-0.047 0-0.090-0.004-0.133-0.024-0.032-0.016-0.067-0.024-0.101-0.028-0.036-0.008-0.058-0.028-0.064-0.060-0.011-0.046-0.021-0.092-0.021-0.136-0.003-0.137-0.003-0.275 0.001-0.412 0.003-0.124 0.015-0.246 0.019-0.369 0.006-0.137 0.011-0.275 0.008-0.412-0.003-0.181 0.001-0.36 0.021-0.54 0.007-0.051 0.007-0.104 0.007-0.158 0-0.337-0.001-0.676 0-1.015 0.001-0.121 0.008-0.24 0.017-0.36 0.013-0.197 0.008-0.394-0.004-0.591-0.006-0.098-0.006-0.197-0.013-0.296-0.003-0.048 0.013-0.089 0.051-0.128 0.021 0.003 0.046 0.001 0.067 0.008 0.097 0.039 0.198 0.048 0.301 0.039 0.057-0.004 0.114-0.008 0.164 0.028 0.081-0.004 0.111 0.046 0.144 0.11 0.057 0.107 0.121 0.208 0.203 0.297 0.032 0.039 0.061 0.078 0.087 0.118 0.090 0.132 0.187 0.255 0.292 0.376s0.201 0.246 0.303 0.368c0.040 0.047 0.060 0.103 0.061 0.165 0 0.201 0.006 0.401 0.004 0.602-0.003 0.11-0.017 0.218-0.029 0.326-0.015 0.151-0.017 0.304-0.010 0.454 0.013 0.212 0 0.423-0.022 0.634-0.017 0.15-0.032 0.301-0.024 0.453 0.006 0.129-0.006 0.254-0.046 0.376-0.017 0.046-0.024 0.096-0.036 0.144z"></path>
<path d="M20.811 15.489c0.015 0.028 0.029 0.054 0.043 0.076 0.015 0.024 0.031 0.047 0.049 0.069 0.040 0.048 0.082 0.096 0.122 0.144 0.097 0.117 0.193 0.235 0.292 0.35 0.055 0.064 0.114 0.125 0.172 0.186 0.154 0.161 0.294 0.333 0.412 0.522 0.058 0.096 0.129 0.176 0.225 0.235 0.112 0.069 0.186 0.169 0.232 0.293 0.014 0.040 0.029 0.078 0.049 0.128-0.025 0-0.042 0.003-0.055 0.001-0.064-0.004-0.126-0.016-0.19-0.016-0.071-0.003-0.14-0.001-0.211 0.001-0.247 0.008-0.493-0.016-0.737-0.052-0.094-0.016-0.19-0.024-0.285-0.028-0.229-0.004-0.458-0.004-0.687 0.020-0.060 0.008-0.119 0.004-0.179 0.004-0.103 0.001-0.203 0.016-0.301 0.046-0.129 0.035-0.261 0.061-0.389 0.097-0.011 0.003-0.021 0.004-0.032 0.004-0.018 0.001-0.035-0.020-0.029-0.035 0.008-0.024 0.018-0.046 0.029-0.068 0.085-0.166 0.169-0.333 0.275-0.487 0.042-0.060 0.067-0.131 0.096-0.198 0.019-0.042 0.031-0.086 0.044-0.132 0.033-0.114 0.094-0.211 0.179-0.293 0.036-0.035 0.072-0.067 0.11-0.1 0.161-0.148 0.325-0.294 0.486-0.441 0.075-0.071 0.136-0.153 0.182-0.244 0.021-0.039 0.042-0.075 0.1-0.086z"></path>
</svg>
