<!-- Generated by IcoMoon.io -->
<svg version="1.1" xmlns="http://www.w3.org/2000/svg" width="33" height="32" viewBox="0 0 33 32">
<title>bloodthirsty_spirits</title>
<path d="M19.431 28.135l0.192-0.115-0.145 0.171c-0.025-0.025-0.038-0.043-0.047-0.055zM19.427 27.977v0l0.186 0.042h-0.001zM27.528 14.515c0 0.077-0.001 0.153-0.001 0.23 0 0.199-0.021 0.544-0.050 0.74v0c-0.063 0.457-0.123 0.908-0.22 1.351v0c-0.067 0.308-0.192 0.595-0.357 0.896-0.073 0.131-0.148 0.263-0.223 0.398l-0.021 0.038-0.004 0.044c-0.121 1.342-0.693 2.647-1.642 3.612-0.862 0.878-2.048 1.454-3.197 1.971-0.442 0.2-0.893 0.379-1.352 0.521l-0.063 0.021-0.001 0.001-0.042 0.012c-0.151 0.045-0.301 0.087-0.452 0.122l-0.029 0.004-0.057 0.033c-0.321 0.152-0.641 0.298-0.949 0.374-0.24 0.058-0.459 0.116-0.662 0.115h-0.042c-0.115-0.003-0.273-0.048-0.462-0.050-0.021 0-0.045 0.001-0.070 0.003v0c-0.045 0.003-0.080 0.012-0.101 0.017s-0.033 0.004-0.033 0.004c-0.141-0.017-0.278-0.017-0.415-0.017-0.193 0-0.381 0.008-0.565 0.012-0.119 0.003-0.239 0.003-0.359 0.003-0.075 0-0.151 0-0.226 0v0c-0.199 0-0.544-0.021-0.74-0.050-0.457-0.063-0.906-0.125-1.349-0.222-0.308-0.067-0.595-0.192-0.895-0.357v0c-0.025-0.012-0.053-0.029-0.085-0.048l-0.033-0.017-0.038-0.004c-1.821-0.202-3.449-1.287-4.558-2.765-0.852-1.136-1.357-2.478-1.642-3.88l-0.008-0.045-0.025-0.038c-0.169-0.218-0.341-0.418-0.432-0.612-0.153-0.322-0.3-0.645-0.375-0.956-0.060-0.241-0.118-0.459-0.116-0.662v-0.043c0.003-0.114 0.048-0.273 0.050-0.46 0-0.021 0-0.047-0.003-0.071v0c-0.003-0.045-0.013-0.080-0.017-0.101s-0.004-0.029-0.004-0.029c0.013-0.139 0.017-0.277 0.017-0.413 0-0.193-0.008-0.382-0.013-0.567-0.003-0.116-0.003-0.234-0.003-0.354 0-0.077 0-0.155 0-0.233 0.001-0.199 0.021-0.544 0.050-0.74 0.063-0.457 0.125-0.908 0.221-1.349 0.067-0.31 0.192-0.597 0.357-0.896v0c0.017-0.033 0.038-0.068 0.060-0.108l0.021-0.042 0.001-0.047c0.043-0.956 0.331-1.896 0.856-2.697 0.554-0.848 1.308-1.545 2.101-2.204v0c0.726-0.605 1.47-1.175 2.345-1.436 0.498-0.149 1.030-0.196 1.575-0.205l0.053-0.001 0.068-0.042c0.321-0.152 0.641-0.298 0.949-0.372 0.24-0.060 0.457-0.118 0.66-0.116l0.043 0.001c0.115 0.001 0.273 0.047 0.46 0.048 0.021 0 0.047 0 0.071-0.003v0c0.045-0.003 0.078-0.013 0.101-0.017 0.021-0.004 0.029-0.004 0.029-0.004 0.139 0.013 0.278 0.017 0.414 0.017 0.192 0 0.381-0.008 0.564-0.013 0.119-0.003 0.239-0.003 0.359-0.003 0.075 0 0.151 0 0.227 0 0.199 0.001 0.544 0.025 0.739 0.050 0.457 0.063 0.908 0.125 1.349 0.221 0.31 0.067 0.595 0.192 0.896 0.357 0.148 0.081 0.295 0.166 0.445 0.251l0.025 0.017 0.029 0.008c0.071 0.017 0.132 0.025 0.183 0.038v0c1.599 0.388 2.913 1.319 3.926 2.548 1.011 1.229 1.716 2.753 2.082 4.307l0.008 0.038 0.021 0.029c0.043 0.063 0.078 0.123 0.107 0.182v0c0.152 0.322 0.3 0.646 0.375 0.956 0.060 0.241 0.116 0.459 0.116 0.662l-0.001 0.043c-0.001 0.113-0.047 0.273-0.050 0.46 0 0.025 0.001 0.047 0.003 0.071v0c0.004 0.045 0.012 0.080 0.017 0.101s0.004 0.029 0.004 0.029v0c-0.017 0.139-0.017 0.278-0.017 0.413 0 0.193 0.008 0.384 0.012 0.567v0c0.003 0.118 0.004 0.237 0.004 0.357zM29.639 13.965c-0.008-1.166-0.291-2.19-0.666-3.254-0.348-0.981-0.534-2.057-1.028-3.057-0.455-0.915-1.161-1.788-1.96-2.571-0.798-0.783-1.689-1.472-2.516-2.010-1.939-1.26-4.221-1.72-6.454-1.892h-0.001c-0.047-0.003-0.094-0.004-0.139-0.004l-0.008 0.001c-0.094-0.042-0.195-0.073-0.308-0.090-0.394-0.061-0.778-0.089-1.156-0.089-1.822 0.001-3.471 0.653-5.122 1.437-2.081 0.987-3.42 2.29-4.808 4.074-0.58 0.743-1.17 1.535-1.642 2.393s-0.824 1.782-0.917 2.787c-0.017 0.159-0.021 0.317-0.021 0.474 0 0.886 0.213 1.73 0.419 2.552 0.207 0.825 0.408 1.631 0.406 2.439 0 0.173-0.008 0.345-0.029 0.52-0.004 0.055-0.008 0.109-0.008 0.162 0 0.19 0.042 0.364 0.116 0.511 0.060 0.116 0.143 0.212 0.237 0.294 0.013 0.071 0.033 0.143 0.060 0.219v0.001c0.369 0.981 0.727 1.971 1.101 2.957 0.021 0.341 0.033 0.686 0.044 1.030 0.008 0.273 0.017 0.547 0.033 0.822 0.013 0.231 0.008 0.497 0.065 0.767v0c0.025 0.114 0.071 0.229 0.158 0.329 0.084 0.102 0.223 0.186 0.385 0.189v0h0.017l0.021 0.136 0.025-0.141c0.143-0.017 0.268-0.079 0.355-0.168 0.097-0.1 0.159-0.22 0.189-0.349 0.013-0.051 0.017-0.104 0.021-0.155 0.169 0.139 0.344 0.259 0.484 0.384 0.101 0.090 0.183 0.178 0.237 0.269 0.053 0.091 0.083 0.181 0.083 0.297 0 0.038-0.003 0.073-0.008 0.112-0.013 0.077-0.017 0.153-0.017 0.227 0 0.099 0.013 0.195 0.033 0.287 0.004 0.436 0.013 0.871 0.017 1.307 0 0.097 0.047 0.195 0.115 0.251 0.068 0.058 0.148 0.085 0.229 0.085 0.065 0 0.135-0.017 0.196-0.060 0.061-0.042 0.111-0.11 0.132-0.183v0c0.044-0.146 0.075-0.294 0.099-0.443 0.192 0.090 0.396 0.142 0.604 0.143 0.247 0 0.497-0.072 0.702-0.234 0.099-0.080 0.185-0.181 0.254-0.298 0.025 0.042 0.048 0.078 0.070 0.118 0.209 0.393 0.287 0.862 0.365 1.346 0.025 0.168 0.123 0.305 0.244 0.388 0.12 0.084 0.261 0.12 0.399 0.12 0.171 0 0.347-0.055 0.483-0.187v0c0.386-0.378 0.604-0.872 0.639-1.389 0.142 0.051 0.283 0.1 0.426 0.145 0.042 0.234 0.064 0.469 0.064 0.706 0 0.021 0 0.045-0.001 0.068v0.006c0 0.095 0.045 0.196 0.115 0.254s0.151 0.083 0.227 0.083c0.078 0 0.159-0.025 0.227-0.083 0.071-0.058 0.116-0.156 0.116-0.253v-0.006c-0.001-0.175-0.003-0.351-0.004-0.526 0.008 0.001 0.017 0.004 0.029 0.004 0.017 0.008 0.025 0.017 0.033 0.021l0.008 0.017c0.017 0.045 0.033 0.105 0.058 0.176v0c0.004 0.017 0.012 0.038 0.017 0.050 0.008 0.132 0.008 0.273 0.012 0.418 0.004 0.172 0.017 0.351 0.064 0.531 0.044 0.179 0.122 0.358 0.251 0.52 0.061 0.078 0.165 0.122 0.25 0.119 0.096-0.001 0.175-0.038 0.237-0.094s0.112-0.141 0.114-0.249v0-0.003c0-0.168-0.001-0.334-0.003-0.501 0.101-0.021 0.197-0.060 0.281-0.118 0.122-0.085 0.223-0.213 0.264-0.375 0.012-0.044 0.021-0.091 0.029-0.136 0.025 0.017 0.055 0.038 0.083 0.058 0.051 0.042 0.106 0.075 0.162 0.108-0.012 0.118-0.021 0.237-0.021 0.359 0.001 0.668 0.199 1.365 0.547 1.913 0.175 0.276 0.388 0.513 0.639 0.686s0.545 0.279 0.862 0.279c0.142 0 0.288-0.021 0.435-0.064 0.199-0.060 0.367-0.146 0.503-0.257 0.24-0.195 0.374-0.456 0.449-0.723 0.112-0.403 0.111-0.837 0.149-1.229 0.017-0.196 0.044-0.381 0.091-0.541 0.047-0.162 0.112-0.298 0.207-0.411 0.008-0.008 0.021-0.021 0.038-0.038l0.017 0.075c0.021 0.087 0.073 0.155 0.132 0.199 0.061 0.044 0.133 0.070 0.213 0.070l0.050-0.003c0.060-0.008 0.112-0.038 0.161-0.073v0.010l0.186 0.004h0.017l-0.203 0.008v0.004c0.017 0.312 0.004 0.679 0.044 1.047 0.038 0.369 0.121 0.747 0.342 1.075 0.312 0.462 0.808 0.71 1.304 0.71 0.49 0.003 0.984-0.253 1.265-0.761 0.183-0.326 0.23-0.682 0.23-1.020 0-0.29-0.033-0.572-0.060-0.828-0.017-0.125-0.048-0.29-0.078-0.472-0.029-0.179-0.057-0.372-0.057-0.517 0-0.058 0.004-0.108 0.012-0.142s0.017-0.053 0.017-0.053c0.003-0.004 0.017-0.021 0.045-0.042 0.001-0.001 0.003-0.001 0.004-0.003 0.001 0.001 0.003 0.003 0.004 0.003 0.055 0.025 0.122 0.045 0.193 0.047 0.021 0.163 0.042 0.325 0.058 0.489 0.008 0.075 0.038 0.152 0.098 0.217 0.060 0.067 0.158 0.113 0.257 0.112 0.199-0.003 0.352-0.158 0.357-0.357v0.001c0-0.337 0-0.672 0.001-1.007 0.123-0.082 0.241-0.173 0.355-0.276 0.025 0.038 0.053 0.067 0.087 0.089 0.064 0.044 0.136 0.063 0.203 0.063 0.085 0 0.169-0.025 0.239-0.087 0.071-0.060 0.121-0.161 0.121-0.263v0c0.004-0.214 0.008-0.429 0.008-0.643 0.116-0.169 0.247-0.348 0.367-0.496 0.004 0.158 0.012 0.329 0.021 0.496 0.008 0.138 0.017 0.269 0.025 0.379 0.008 0.109 0.017 0.196 0.025 0.254 0.094 0.686 0.319 1.23 0.771 1.767 0.182 0.217 0.447 0.307 0.699 0.307 0.22 0 0.44-0.065 0.624-0.192 0.182-0.125 0.331-0.32 0.371-0.565 0.161-0.963 0.408-1.966 0.487-2.974 0.012-0.153 0.017-0.303 0.017-0.447-0.001-0.454-0.044-0.868-0.044-1.267 0-0.087 0.008-0.171 0.012-0.256 0.197-0.061 0.385-0.165 0.543-0.317 0.205-0.196 0.354-0.47 0.42-0.81 0.46-2.326 0.852-4.767 0.852-7.167 0-0.057 0-0.113 0-0.171z"></path>
</svg>
