<!-- Generated by IcoMoon.io -->
<svg version="1.1" xmlns="http://www.w3.org/2000/svg" width="37" height="32" viewBox="0 0 37 32">
<title>body</title>
<path d="M16.555 0c-0.246 0-0.548 0.084-0.767 0.304s-0.304 0.521-0.304 0.767v0.298c0 0.38-0.053 0.793-0.112 1.205l-0.007 0.052v0.052c0-0.005 0.008-0.026-0.022 0.063s-0.036 0.096-0.032 0.090l-0.017 0.026-0.015 0.026c-0.103 0.185-0.199 0.293-0.35 0.408-0.219 0.136-0.429 0.262-0.542 0.311l-0.020 0.007-0.019 0.010c-0.224 0.112-0.567 0.194-1.076 0.221l-0.063 0.003-0.060 0.013c-0.228 0.051-0.438 0.078-0.676 0.108-0.178 0.022-0.35 0.023-0.57-0.001l-0.035-0.003c-0.542-0.034-1.055 0.045-1.531 0.218-0.766 0.184-1.46 0.586-2.036 1.188-0.255 0.225-0.426 0.46-0.589 0.676l-0.025 0.035-0.022 0.038c-0.21 0.36-0.451 0.782-0.695 1.238-0.197 0.361-0.4 0.795-0.539 1.283-0.117 0.408-0.238 0.799-0.334 1.185-0.060 0.238-0.113 0.452-0.192 0.689-0.084 0.252-0.161 0.446-0.238 0.581l-0.001 0.003-0.003 0.004c-0.16 0.288-0.316 0.603-0.472 0.946-0.151 0.333-0.3 0.695-0.449 1.080-0.221 0.392-0.4 0.799-0.59 1.206-0.203 0.435-0.412 0.851-0.597 1.253l0.031-0.058c-0.149 0.261-0.267 0.531-0.407 0.811-0.158 0.315-0.285 0.581-0.34 0.664-0.086 0.116-0.154 0.218-0.208 0.298 0.004-0.006-0.090 0.096-0.215 0.263-0.014 0.016-0.086 0.086-0.055 0.065l-0.061 0.041-0.052 0.052c-0.076 0.076-0.182 0.191-0.288 0.323-0.127 0.133-0.196 0.244-0.251 0.327-0.013 0.020-0.036 0.041-0.067 0.073-0.147 0.119-0.307 0.253-0.435 0.355l-0.032 0.025-0.029 0.029c-0.114 0.114-0.241 0.218-0.426 0.372l0.142-0.094c-0.163 0.081-0.275 0.195-0.353 0.313-0.017 0.026-0.016 0.079-0.032 0.105-0.030 0.051-0.082 0.116-0.092 0.14-0.020 0.050-0.012 0.029-0.004 0.015l-0.079 0.157v0.282l0.006 0.047c0.055 0.437 0.084 0.81 0.145 1.195 0 0.003 0.001 0.005 0.001 0.007 0.036 0.389 0.13 0.75 0.215 1.090 0 0.001-0 0.001 0 0.001 0.075 0.449 0.216 0.797 0.295 1.033 0.105 0.315 0.23 0.593 0.343 0.875l0.012 0.029 0.064 0.128 0.026 0.039c0.019 0.029 0.037 0.073 0.128 0.179s0.362 0.301 0.64 0.301c0.045 0 0.099 0.004 0.205-0.009s0.31-0.048 0.5-0.238l-0.080 0.068c0.206-0.155 0.436-0.297 0.671-0.465l-0.1 0.060c0.305-0.152 0.546-0.328 0.754-0.477l0.013-0.009 0.012-0.010c0.289-0.225 0.554-0.455 0.814-0.715l0.744-0.744-0.070 0.061c0.316-0.246 0.576-0.508 0.814-0.746 0.304-0.304 0.547-0.659 0.751-1.033l0.007-0.012 0.006-0.012c0.086-0.172 0.21-0.351 0.34-0.545l-0.048 0.063c0.206-0.247 0.337-0.481 0.435-0.628l0.026-0.039 0.020-0.041c0.233-0.465 0.466-0.901 0.663-1.238 0.208-0.357 0.418-0.72 0.605-1.061l0.015-0.025 0.012-0.026c0.272-0.604 0.54-1.233 0.808-1.858 0.169-0.395 0.362-0.711 0.549-1.041 0.009 0.043 0.023 0.076 0.032 0.119 0.091 0.453 0.178 0.862 0.233 1.218l0.007 0.046 0.013 0.045c0.036 0.127 0.066 0.335 0.096 0.573 0.028 0.223 0.060 0.539 0.124 0.923l0.001 0.012 0.003 0.012c0.048 0.242 0.078 0.569 0.145 0.939 0.049 0.269 0.079 0.638 0.109 1.052l0.003 0.026 0.003 0.025c0.054 0.377 0.081 0.79 0.081 1.235 0 0.476-0.001 0.907-0.028 1.286l-0.001 0.026v0.026c0 0.357-0.004 0.603-0.045 0.807-0.058 0.288-0.116 0.55-0.176 0.818l-0.004 0.019-0.003 0.020c-0.019 0.112-0.074 0.315-0.137 0.567-0.042 0.167-0.117 0.344-0.192 0.57l-0.013 0.036-0.007 0.038c-0.062 0.279-0.124 0.582-0.183 0.879-0.061 0.307-0.12 0.635-0.177 0.923l0.013-0.060c-0.134 0.471-0.198 0.898-0.259 1.32-0.059 0.412-0.119 0.799-0.179 1.221-0.027 0.189-0.067 0.364-0.067 0.612l0.015-0.147c-0.052 0.261-0.047 0.431-0.064 0.531l-0.010 0.060v0.789l0.411 0.206c-0.014-0.007-0.023-0.013 0.020 0.013 0.022 0.013 0.149 0.036 0.221 0.064 0.208 0.082 0.472 0.161 0.744 0.106 0.074-0.015 0.121-0.016 0.24-0.016h14.557c0.21 0 0.492-0.096 0.669-0.298s0.224-0.44 0.224-0.624c0-0.149 0.007-0.336-0.051-0.568-0.001-0.004-0.020-0.136-0.042-0.257-0.033-0.468-0.094-0.895-0.151-1.327-0.060-0.452-0.154-0.878-0.27-1.298-0.093-0.591-0.215-1.168-0.334-1.734l-0.004-0.017-0.004-0.019c-0.143-0.542-0.261-1.106-0.414-1.718l-0.016-0.063-0.026-0.058c-0.073-0.165-0.121-0.38-0.147-0.658-0.028-0.341-0.058-0.652-0.086-0.962v-1.084c0-0.387 0.005-0.742 0.047-0.968l-0.010 0.048c0.051-0.204 0.052-0.389 0.052-0.478v-0.263c0.029-0.434 0.061-0.8 0.105-1.020 0.071-0.354 0.1-0.682 0.148-0.923l0.004-0.016 0.001-0.016c0.064-0.418 0.1-0.783 0.141-0.965l0.185-0.831 0.003-0.028c0.051-0.355 0.1-0.615 0.148-0.844 0.049 0.092 0.095 0.206 0.141 0.286 0.327 0.685 0.651 1.361 0.942 2.029 0.311 0.716 0.653 1.37 1 1.938 0.164 0.379 0.313 0.723 0.522 1.036 0.193 0.289 0.381 0.54 0.56 0.778l-0.070-0.113c0.324 0.649 0.69 1.187 1.1 1.631 0.38 0.411 0.803 0.803 1.241 1.212 0.003 0.003 0.006 0.005 0.009 0.007 0.004 0.003 0.007 0.007 0.010 0.010 0.339 0.338 0.715 0.687 1.137 0.968 0.333 0.222 0.697 0.495 1.141 0.781l0.016 0.012 0.397 0.227h0.198c0.045 0 0.091 0.007 0.219-0.015s0.354-0.131 0.456-0.234l0.038-0.038 0.031-0.042c0.137-0.183 0.233-0.376 0.305-0.557 0.079-0.197 0.107-0.3 0.122-0.33l0.028-0.054 0.017-0.055c0.183-0.581 0.34-1.143 0.465-1.738 0.13-0.62 0.192-1.242 0.251-1.901l0.003-0.033v-0.033c0-0.42-0.174-0.574-0.256-0.711l-0.080-0.132-0.125-0.090c-0.346-0.247-0.71-0.607-1.126-1.023l0.078 0.094c-0.188-0.263-0.377-0.451-0.496-0.57-0.113-0.113-0.202-0.204-0.286-0.308-0.107-0.162-0.204-0.311-0.259-0.421l-0.022-0.042-0.025-0.038c-0.024-0.036-0.116-0.251-0.199-0.557l-0.028-0.099-0.052-0.089c-0.16-0.266-0.308-0.563-0.506-0.892-0.145-0.241-0.316-0.607-0.49-1.012l-0.009-0.020-0.010-0.020c-0.186-0.372-0.39-0.752-0.555-1.11-0.18-0.389-0.375-0.81-0.539-1.275l-0.038-0.108-0.068-0.092c-0.078-0.103-0.102-0.139-0.14-0.214l-0.020-0.041-0.025-0.039c-0.074-0.111-0.128-0.189-0.15-0.227-0.063-0.178-0.127-0.341-0.164-0.464l-0.003-0.012c-0.001-0.003-0.003-0.009-0.004-0.012-0.061-0.241-0.121-0.454-0.179-0.656-0.024-0.132-0.050-0.313-0.144-0.548-0.015-0.037-0.051-0.214-0.129-0.452-0.13-0.45-0.288-0.863-0.449-1.217l-0.012-0.025-0.013-0.023c-0.17-0.311-0.352-0.677-0.576-1.061l-0.003-0.004-0.001-0.004c-0.29-0.484-0.596-0.894-0.946-1.244-0.445-0.445-1.012-0.791-1.679-1.058l-0.015-0.006c-0.572-0.214-1.21-0.319-1.878-0.283l0.039-0.001c-0.213 0-0.436-0.031-0.715-0.031-0.137 0-0.324-0.021-0.552-0.071l-0.061-0.013-0.061-0.003c-0.508-0.027-0.852-0.109-1.076-0.221l-0.035-0.017-0.036-0.013c-0.129-0.048-0.324-0.165-0.561-0.321-0.185-0.147-0.244-0.228-0.275-0.32l-0.007-0.020-0.009-0.020c-0.081-0.202-0.125-0.448-0.125-0.647v-0.061l-0.010-0.061c-0.019-0.112-0.019-0.204-0.019-0.353 0-0.119 0.003-0.32-0.045-0.563l0.015 0.145v-0.381l-0.007-0.052c-0.028-0.193-0.085-0.402-0.254-0.602s-0.475-0.334-0.721-0.334h-3.929zM16.962 1.488h3.025l0.006 0.026c0.011 0.055 0.016 0.152 0.016 0.272 0 0.122 0.010 0.303 0.032 0.491 0.002 0.383 0.076 0.778 0.224 1.157 0.149 0.432 0.448 0.769 0.775 1.023l0.022 0.016 0.023 0.015c0.264 0.176 0.532 0.343 0.847 0.469 0.482 0.236 1.019 0.333 1.628 0.366 0.265 0.053 0.521 0.093 0.765 0.093 0.137 0 0.392 0.031 0.715 0.031h0.019l0.020-0.001c0.46-0.024 0.89 0.050 1.269 0.19 0.519 0.209 0.904 0.456 1.172 0.724 0.245 0.245 0.477 0.549 0.722 0.958 0.185 0.318 0.352 0.653 0.532 0.984 0.133 0.293 0.266 0.641 0.372 1.012l0.004 0.015 0.006 0.016c0.036 0.108 0.060 0.287 0.164 0.546 0.015 0.037 0.046 0.178 0.080 0.346l0.006 0.029 0.009 0.029c0.060 0.208 0.116 0.407 0.172 0.631l0.003 0.013 0.004 0.012c0.078 0.272 0.173 0.495 0.217 0.626l0.017 0.049 0.023 0.048c0.104 0.208 0.217 0.349 0.256 0.407l-0.047-0.080c0.062 0.123 0.136 0.226 0.209 0.331 0.184 0.504 0.387 0.955 0.554 1.315 0.192 0.415 0.404 0.809 0.576 1.151l-0.017-0.039c0.184 0.429 0.369 0.836 0.581 1.19 0.155 0.258 0.302 0.548 0.49 0.865 0.080 0.283 0.152 0.557 0.328 0.824 0.108 0.203 0.226 0.387 0.331 0.545l0.017 0.026 0.020 0.025c0.149 0.186 0.294 0.33 0.413 0.449s0.227 0.228 0.337 0.382l0.035 0.051 0.044 0.044c0.359 0.359 0.73 0.701 1.132 1.016-0.053 0.567-0.106 1.090-0.202 1.548-0.113 0.536-0.255 1.047-0.429 1.597l0.045-0.109c-0.028 0.055-0.028 0.072-0.047 0.118-0.238-0.165-0.476-0.331-0.721-0.494-0.286-0.191-0.617-0.488-0.929-0.799l-0.009-0.009-0.010-0.009c-0.447-0.418-0.851-0.796-1.18-1.153-0.305-0.33-0.594-0.744-0.865-1.286l-0.029-0.060-0.041-0.054c-0.179-0.238-0.347-0.464-0.512-0.711-0.129-0.194-0.267-0.484-0.442-0.892l-0.020-0.049-0.028-0.045c-0.308-0.504-0.621-1.101-0.906-1.754-0.305-0.701-0.636-1.394-0.964-2.079l-0.012-0.025-0.015-0.023c-0.119-0.208-0.213-0.378-0.276-0.546l-0.020-0.057-0.031-0.052c-0.093-0.162-0.174-0.35-0.278-0.558-0.060-0.119-0.089-0.209-0.108-0.339l-0.022-0.148-0.077-0.129c-0.056-0.094-0.127-0.198-0.278-0.304s-0.437-0.191-0.686-0.124c-0.179 0.049-0.254 0.134-0.34 0.215h-0.092l-0.042 0.084c-0.001 0.001-0.001 0.002-0.001 0.003l-0.161 0.324c0 0-0.109 0.144-0.109 0.452l0.078-0.333c-0.082 0.163-0.13 0.306-0.16 0.395-0.014 0.042-0.097 0.219-0.097 0.474l0.017-0.161c-0.048 0.217-0.133 0.474-0.203 0.754l-0.003 0.009-0.001 0.010c-0.061 0.276-0.12 0.613-0.179 1.015l-0.179 0.801c-0.079 0.353-0.104 0.705-0.158 1.061-0.065 0.339-0.096 0.657-0.142 0.89-0.074 0.372-0.102 0.777-0.132 1.228l-0.001 0.025v0.323c0 0.089 0.001 0.082-0.007 0.116l-0.006 0.023-0.004 0.025c-0.078 0.429-0.071 0.847-0.071 1.234v1.135l0.003 0.033c0.030 0.327 0.059 0.653 0.089 1.007v0.006c0.034 0.376 0.104 0.757 0.269 1.128l-0.041-0.122c0.142 0.567 0.259 1.124 0.41 1.701 0.119 0.565 0.236 1.118 0.321 1.658l0.006 0.045 0.013 0.042c0.11 0.385 0.191 0.764 0.246 1.174 0.060 0.451 0.116 0.85 0.144 1.262l0.004 0.065 0.016 0.063h-13.894c-0.022 0-0.072 0.008-0.099 0.009l0.010-0.054v-0.073c0-0.049 0.020-0.173 0.052-0.401 0.059-0.412 0.119-0.799 0.179-1.221 0.059-0.412 0.113-0.758 0.217-1.121l0.009-0.029 0.006-0.031c0.061-0.307 0.121-0.633 0.179-0.922 0.057-0.286 0.112-0.566 0.167-0.815 0.048-0.136 0.138-0.349 0.211-0.64 0.056-0.224 0.121-0.438 0.161-0.683l-0.007 0.039c0.060-0.268 0.12-0.542 0.182-0.849 0.078-0.389 0.074-0.738 0.074-1.093 0.029-0.439 0.029-0.885 0.029-1.344 0-0.507-0.031-0.989-0.096-1.445-0.029-0.4-0.056-0.791-0.124-1.16-0.050-0.278-0.080-0.598-0.147-0.942-0.055-0.331-0.083-0.609-0.115-0.862-0.030-0.238-0.060-0.509-0.142-0.798l0.020 0.092c-0.064-0.418-0.156-0.843-0.244-1.283-0.097-0.484-0.225-0.929-0.352-1.31l-0.055-0.166-0.060-0.061c-0.028-0.136-0.039-0.278-0.103-0.406l-0.010-0.019-0.343-0.602h-1.324v0.688c-0.009 0.027-0.037 0.055-0.042 0.079-0.009 0.044-0.003 0.044-0.006 0.073-0.050 0.159-0.105 0.332-0.083 0.288-0.060 0.12-0.106 0.257-0.151 0.395-0.3 0.485-0.605 1.028-0.879 1.669-0.263 0.614-0.524 1.223-0.783 1.801-0.169 0.309-0.37 0.654-0.574 1.004-0.211 0.362-0.445 0.804-0.679 1.269-0.13 0.196-0.234 0.371-0.321 0.475l-0.026 0.031-0.022 0.033c-0.109 0.163-0.281 0.4-0.433 0.705l0.012-0.023c-0.153 0.28-0.325 0.521-0.497 0.693-0.238 0.238-0.456 0.453-0.676 0.624l-0.036 0.028-0.776 0.778c-0.214 0.214-0.425 0.397-0.669 0.587-0.2 0.142-0.372 0.261-0.538 0.344l-0.052 0.026-0.046 0.033c-0.034 0.024-0.093 0.064-0.131 0.090-0.031-0.079-0.077-0.185-0.1-0.256-0.1-0.299-0.196-0.545-0.24-0.81l-0.006-0.029-0.007-0.029c-0.089-0.357-0.167-0.686-0.189-0.929l-0.001-0.028-0.006-0.026c-0.041-0.244-0.073-0.582-0.113-0.935l0.035-0.035v-0.012c0.094-0.078 0.188-0.157 0.286-0.251 0.158-0.127 0.337-0.275 0.477-0.387l0.032-0.026 0.029-0.029c0.059-0.059 0.17-0.168 0.272-0.321 0.060-0.089 0.114-0.153 0.086-0.125l0.036-0.038 0.032-0.042c0.054-0.071 0.11-0.129 0.199-0.218l-0.113 0.093c0.248-0.165 0.321-0.301 0.352-0.331l0.036-0.036 0.032-0.042c0.054-0.071 0.14-0.147 0.263-0.331 0.060-0.089 0.106-0.161 0.183-0.265l0.013-0.016 0.012-0.017c0.183-0.274 0.293-0.544 0.433-0.824 0.158-0.315 0.279-0.583 0.368-0.738l0.016-0.028 0.013-0.029c0.171-0.372 0.381-0.789 0.594-1.247 0.215-0.46 0.389-0.862 0.564-1.161l0.031-0.051 0.020-0.057c0.144-0.375 0.288-0.719 0.43-1.031s0.283-0.593 0.42-0.84l-0.006 0.009c0.161-0.281 0.263-0.565 0.358-0.849 0.1-0.299 0.166-0.561 0.225-0.799 0.082-0.329 0.2-0.711 0.321-1.137 0.098-0.345 0.254-0.686 0.414-0.98l0.003-0.006c0.223-0.417 0.444-0.805 0.644-1.148 0.169-0.225 0.298-0.389 0.366-0.446l0.035-0.028 0.031-0.032c0.42-0.445 0.835-0.681 1.35-0.798l0.051-0.012 0.051-0.019c0.282-0.108 0.579-0.155 0.967-0.131l-0.036-0.003c0.316 0.035 0.62 0.036 0.919-0.001 0.238-0.030 0.506-0.062 0.814-0.131l-0.122 0.016c0.62-0.033 1.166-0.131 1.654-0.374 0.28-0.124 0.526-0.28 0.754-0.423l0.028-0.016 0.025-0.020c0.31-0.233 0.562-0.532 0.753-0.868 0.106-0.17 0.164-0.331 0.192-0.414 0.030-0.090 0.097-0.291 0.097-0.533l-0.007 0.106c0.055-0.386 0.107-0.832 0.116-1.296zM10.244 12.89c0 0.034 0.035 0.062 0.041 0.099l-0.032-0.057-0.019-0.036c0.015 0.030 0.010 0.070 0.010-0.006zM35.124 20.073c-0.003 0.028-0.008 0.048-0.010 0.076l-0.026-0.029c0.081 0.135 0.046 0.087 0.036-0.047z"></path>
</svg>
