<!-- Generated by IcoMoon.io -->
<svg version="1.1" xmlns="http://www.w3.org/2000/svg" width="32" height="32" viewBox="0 0 32 32">
<title>bullet1</title>
<path d="M9.066 23.68q-1.364-0.853-2.7-1.563-1.336-0.739-2.757-1.392-0.54-0.114-0.54-0.455 0-0.028 0-0.057 0.057-0.369 0.398-0.597 1.25-0.597 2.956-1.648 1.677-1.023 3.155-2.046 1.279-0.796 2.671-1.876 1.421-1.080 2.728-1.734 0.512-0.313 0.767-0.313 0.114 0 0.171 0.057 0.227 0.142 0.512 0.284 1.052 0.739 2.217 1.563 1.137 0.824 2.444 1.62 1.648 0.938 3.467 1.876 1.79 0.966 3.496 1.961 0.853 0.568 0.881 0.824 0 0 0 0.028 0 0.256-0.512 0.512-1.023 0.739-2.558 1.535-1.563 0.767-2.956 1.705-0.54 0.313-0.966 0.597-0.398 0.256-0.739 0.483-1.023 0.682-1.677 1.165-0.654 0.512-1.961 1.393-0.625 0.369-1.478 0.398-0.057 0-0.142-0.028-0.966-0.028-1.705-0.512-0.597-0.313-1.080-0.767-0.483-0.426-1.023-0.853-0.682-0.54-1.449-1.108t-1.62-1.052zM15.801 24.931q1.279-0.938 3.808-2.785 0.284-0.199 1.137-0.767 0.853-0.597 1.677-1.165 0.483-0.341 0.995-0.682 0.483-0.341 1.108-0.654-0.028-0.114-0.057-0.313-0.512-0.085-1.762-0.881-1.279-0.796-2.274-1.393-0.966-0.597-2.87-1.79-0.512-0.483-0.938-0.824t-1.023-0.568q-1.25 0.881-3.78 2.615-1.506 1.052-2.472 1.705-0.995 0.682-1.762 1.336-0.256 0.227-0.512 0.455-0.199 0.199-0.199 0.256 0 0 0.028 0 1.137 0.568 2.16 1.165 1.052 0.568 2.046 1.137 1.194 0.767 2.359 1.535t2.33 1.62zM14.38 21.293q-0.369-0.256-0.682-0.455t-0.796-0.455q-0.625-0.369-1.194-0.597-0.597-0.227-1.165-0.568 0.057-0.114 0.256-0.398t0.682-0.512q0.398-0.17 0.682-0.313t0.767-0.37q0.512-0.398 1.563-1.165 0.426-0.284 1.307-0.824 0.682 0.398 1.194 0.739 0.483 0.369 1.137 0.739 0.625 0.341 1.25 0.682 0.597 0.341 1.165 0.625 0.057 0.171 0.114 0.341 0.057 0.085 0.057 0.171 0 0.028-0.028 0.057-0.028 0.142-0.171 0.284-0.114 0.17-0.341 0.256-0.568 0.227-0.853 0.369t-0.881 0.398q-0.142 0.114-0.256 0.199t-0.256 0.199q-0.37 0.341-0.767 0.739-0.369 0.398-0.625 0.54-0.313 0.341-0.597 0.426-0.114 0.057-0.256 0.057-0.114 0-0.199-0.028-0.284-0.199-0.426-0.398-0.17-0.199-0.341-0.341-0.142-0.142-0.227-0.256t-0.114-0.142z"></path>
</svg>
