<!-- Generated by IcoMoon.io -->
<svg version="1.1" xmlns="http://www.w3.org/2000/svg" width="31" height="32" viewBox="0 0 31 32">
<title>by_the_book</title>
<path d="M24.25 24.202c-0.255-0.188-0.468-0.445-0.693-0.67-0.328-0.328-0.716-0.553-1.060-0.858-0.389-0.343-0.805-0.652-1.256-0.892-0.45-0.24-0.879-0.529-1.335-0.754-0.296-0.148-0.537-0.372-0.792-0.593-0.445-0.379-0.818-0.84-1.237-1.25-0.278-0.272-0.576-0.515-0.863-0.777-0.194-0.178-0.357-0.33-0.568-0.476-0.318-0.222-0.65-0.408-0.98-0.608-0.382-0.232-0.754-0.489-1.13-0.736-0.512-0.337-0.871-0.906-1.293-1.358-0.566-0.606-1.227-1.057-1.877-1.55-0.565-0.425-1.217-0.741-1.717-1.258-0.237-0.245-0.453-0.512-0.72-0.725-0.107-0.077-0.212-0.156-0.319-0.234-0.115-0.019-0.188-0.076-0.217-0.168 0.469 0.168 0.976 0.293 1.428 0.514 0.395 0.194 0.794 0.455 1.215 0.571 0.478 0.133 0.955 0.283 1.429 0.425 0.181 0.054 0.359 0.125 0.534 0.194 0.189 0.074 0.328 0.178 0.489 0.308 0.384 0.309 0.846 0.566 1.26 0.832 0.127 0.081 0.262 0.141 0.384 0.231 0.119 0.084 0.235 0.168 0.357 0.247 0.326 0.206 0.637 0.418 0.981 0.589 0.064 0.033 0.128 0.063 0.193 0.094l-0.858-0.756c0.387 0.077 0.733 0.222 1.108 0.343 0.426 0.137 0.871 0.272 1.271 0.479 0.632 0.326 1.281 0.611 1.918 0.92 0.413 0.201 0.822 0.418 1.238 0.609 0.45 0.206 0.92 0.367 1.383 0.534 0.374 0.137 0.761 0.214 1.126 0.367 0.398 0.166 0.807 0.318 1.189 0.524 0.199 0.107 0.37 0.257 0.561 0.379 0.217 0.138 0.443 0.234 0.655 0.384 0.39 0.275 0.774 0.561 1.154 0.856 0.003-0.17 0.010-0.339 0.033-0.512 0.048-0.357 0.105-0.716 0.16-1.072 0.031-0.211 0.082-0.415 0.114-0.626 0.036-0.232 0.068-0.456 0.112-0.683-0.020-0.023-0.035-0.047-0.054-0.066-0.42-0.473-0.97-0.785-1.4-1.251-0.212-0.231-0.418-0.446-0.659-0.642-0.133-0.109-0.278-0.203-0.403-0.323-0.479-0.455-0.953-0.906-1.413-1.38-0.367-0.379-0.828-0.65-1.24-0.97-0.203-0.158-0.418-0.275-0.631-0.413-0.259-0.168-0.491-0.379-0.761-0.532-0.3-0.169-0.627-0.216-0.942-0.339-0.487-0.19-0.968-0.389-1.464-0.55-0.267-0.087-0.54-0.085-0.81-0.173-0.527-0.171-1.037-0.379-1.577-0.502-0.402-0.091-0.785-0.141-1.167-0.324-0.344-0.168-0.659-0.412-0.995-0.599-0.216-0.12-0.428-0.231-0.652-0.333-0.367-0.168-0.729-0.346-1.105-0.494-0.194-0.077-0.389-0.168-0.565-0.287-0.252-0.166-0.45-0.351-0.744-0.438-0.147-0.047-0.301-0.082-0.454-0.087 0.086-0.019 0.166-0.051 0.25-0.072 0.054-0.014 0.095-0.003 0.143-0.005 0.064-0.003 0.122-0.033 0.189-0.042 0.204-0.028 0.415-0.009 0.622-0.037 0.55-0.068 1.126 0.057 1.673 0.117 0.56 0.061 1.123 0.064 1.683 0.125 0.522 0.057 1.047 0.057 1.571 0.094 0.25 0.019 0.504 0.081 0.756 0.081 0.178 0.002 0.351-0.028 0.527 0.005 0.119 0.023 0.207 0.047 0.324 0.048 0.091 0.002 0.163-0.002 0.249 0.028 0.319 0.1 0.613 0.283 0.927 0.403 0.191 0.074 0.38 0.14 0.561 0.24 0.104 0.056 0.209 0.113 0.313 0.169 0.492 0.028 0.985 0.061 1.464 0.201 0.451 0.133 0.912 0.237 1.36 0.385 0.216 0.072 0.538 0.109 0.695 0.301l-0.78 0.047c0.502 0.227 0.991 0.4 1.52 0.552 0.229 0.068 0.43 0.16 0.641 0.275 0.222 0.124 0.469 0.209 0.703 0.306 0.211 0.087 0.43 0.166 0.629 0.283 0.17 0.097 0.321 0.229 0.486 0.333 0.259 0.163 0.532 0.301 0.794 0.455 0.041 0.023 0.081 0.051 0.122 0.077 0.029-0.935 0.015-1.875 0.015-2.812 0-0.738-0.002-1.475 0-2.215 0-0.662-0.077-1.319-0.086-1.981-0.005-0.303-0.026-0.614-0.044-0.915-0.007-0.135-0.038-0.26-0.043-0.397-0.008-0.193-0.035-0.386-0.044-0.576-0.005-0.1-0.026-0.216-0.049-0.313-0.128-0.033-0.26 0.028-0.382 0.068-0.203 0.066-0.394 0.153-0.593 0.234-0.343 0.137-0.706 0.27-1.060 0.371-0.487 0.138-0.993 0.206-1.498 0.214-0.535 0.005-1.059-0.005-1.592-0.057-0.433-0.042-0.85-0.184-1.274-0.278-0.189-0.042-0.369-0.119-0.558-0.158-0.181-0.037-0.357-0.064-0.535-0.119-0.797-0.247-1.612-0.459-2.393-0.764-0.234-0.091-0.52-0.169-0.731-0.319-0.122-0.085-0.219-0.186-0.347-0.259-0.097-0.054-0.201-0.092-0.298-0.147-0.183-0.105-0.344-0.244-0.524-0.351-0.12-0.071-0.254-0.125-0.356-0.225-0.061-0.057-0.109-0.127-0.171-0.183-0.194-0.176-0.422-0.298-0.603-0.491-0.015-0.014-0.028-0.028-0.041-0.037-0.204 0.057-0.303 0.206-0.438 0.375-0.132 0.166-0.275 0.323-0.417 0.479-0.086 0.097-0.135 0.206-0.207 0.309-0.099 0.143-0.235 0.227-0.362 0.336-0.178 0.153-0.347 0.318-0.525 0.471-0.16 0.138-0.334 0.246-0.497 0.379-0.234 0.189-0.433 0.425-0.688 0.585-0.571 0.357-1.322 0.527-1.979 0.588-0.227 0.019-0.42 0.119-0.639 0.189-0.751 0.242-1.5 0.484-2.281 0.583-0.944 0.12-1.874 0.165-2.821 0.163-0.268 0-0.524-0.048-0.789-0.047-0.272 0.002-0.525-0.003-0.792-0.057-0.29-0.057-0.566-0.119-0.861-0.127-0.156-0.003-0.301-0.074-0.454-0.106-0.133-0.028-0.275-0.071-0.397-0.141-0.206-0.122-0.418-0.318-0.639-0.403-0.033 0.094-0.008 0.247-0.008 0.343v0.492c0 0.561-0.026 1.131 0.010 1.691 0.035 0.542 0.031 1.082 0.089 1.624 0.056 0.533 0.031 1.075 0.031 1.614 0 1.024 0 2.048 0 3.073 0 0.636 0.002 1.266 0.064 1.899 0.086 0.871 0.178 1.74 0.259 2.613 0.026 0.285 0.064 0.576 0.069 0.864 0.005 0.209 0.038 0.412 0.044 0.619 0.007 0.211-0.008 0.423-0.003 0.634 0.008 0.389 0.076 0.807 0.156 1.184 0.048 0.224 0.117 0.436 0.155 0.664 0.044 0.275 0.094 0.555 0.166 0.822 0.053 0.191 0.087 0.39 0.153 0.575 0.107 0.306 0.26 0.599 0.39 0.896 0.163 0.367 0.372 0.639 0.609 0.95 0.216 0.285 0.431 0.538 0.711 0.754 0.31 0.242 0.664 0.394 0.998 0.591 0.288 0.173 0.575 0.379 0.838 0.591 0.293 0.235 0.608 0.431 0.901 0.665 0.227 0.183 0.443 0.351 0.678 0.515 0.492 0.344 1 0.66 1.495 0.998 0.708 0.484 1.512 0.823 2.302 1.12 0.367 0.137 0.697 0.347 1.052 0.51 0.468 0.214 0.958 0.374 1.429 0.583 0.3 0.133 0.604 0.249 0.909 0.37 0.17 0.069 0.354 0.123 0.514 0.216 0.194 0.112 0.384 0.235 0.576 0.351 0.178 0.107 0.339 0.247 0.522 0.339 0.086 0.044 0.155 0.051 0.24 0.074 0.15 0.043 0.273 0.168 0.43 0.188 0.268 0.033 0.596-0.175 0.828-0.275 0.37-0.16 0.72-0.361 1.059-0.585 0.086-0.056 0.17-0.114 0.255-0.17-0.056-0.040-0.109-0.081-0.166-0.119-0.453-0.306-0.916-0.642-1.326-1.016-0.268-0.244-0.524-0.476-0.809-0.706-0.201-0.163-0.324-0.26-0.484-0.436-0.435-0.481-0.909-0.909-1.312-1.423-0.221-0.283-0.458-0.555-0.667-0.85-0.148-0.207-0.275-0.435-0.422-0.644-0.28-0.398-0.557-0.795-0.825-1.202-0.341-0.519-0.68-1.024-0.955-1.589-0.14-0.282-0.296-0.548-0.425-0.836-0.086-0.193-0.16-0.387-0.234-0.585-0.102-0.265-0.203-0.529-0.291-0.799-0.053-0.158-0.165-0.366-0.156-0.54l0.122 0.033c-0.086-0.135-0.173-0.27-0.263-0.399-0.229-0.324-0.405-0.655-0.591-1.008-0.435-0.818-0.843-1.655-1.261-2.485-0.55-1.095-1.046-2.215-1.513-3.354 0.035 0.097 0.114 0.179 0.166 0.268 0.094 0.156 0.17 0.324 0.273 0.476 0.161 0.234 0.351 0.428 0.525 0.649 0.219 0.278 0.357 0.627 0.56 0.917 0.081 0.115 0.161 0.219 0.239 0.343 0.087 0.141 0.209 0.287 0.28 0.436 0.156 0.334 0.352 0.629 0.543 0.944 0.171 0.28 0.287 0.601 0.468 0.871 0.519 0.78 1.098 1.577 1.828 2.139 0.611 0.469 1.060 1.133 1.65 1.628 0.148 0.125 0.28 0.278 0.436 0.387 0.142 0.1 0.296 0.179 0.443 0.272 0.58 0.366 1.070 0.855 1.556 1.349 0.265 0.27 0.534 0.481 0.871 0.636 0.24 0.11 0.482 0.216 0.718 0.336 0.51 0.263 1.051 0.438 1.589 0.619 0.613 0.206 1.232 0.387 1.836 0.619 0.306 0.119 0.906 0.193 1.082 0.54l-0.237 0.627c0.046 0.016 0.091 0.036 0.137 0.051 0.176 0.063 0.308 0.117 0.464 0.227 0.234 0.165 0.466 0.331 0.701 0.491 0.362-0.232 0.746-0.459 1.034-0.78 0.188-0.209 0.351-0.435 0.565-0.617 0.12-0.104 0.244-0.201 0.364-0.305 0.137-0.12 0.254-0.267 0.384-0.397 0.178-0.178 0.361-0.346 0.534-0.53 0.044-0.048 0.094-0.089 0.142-0.132-0.194-0.163-0.397-0.316-0.616-0.448-0.219-0.133-0.438-0.268-0.645-0.42z"></path>
<path d="M31.112 15.547c0-0.183 0.043-0.395-0.089-0.53-0.049-0.051-0.115-0.091-0.166-0.14-0.132-0.13-0.25-0.245-0.398-0.352-0.189-0.135-0.349-0.315-0.54-0.448-0.405-0.278-0.797-0.578-1.199-0.861-0.239-0.168-0.469-0.308-0.726-0.44-0.012-0.005-0.021-0.009-0.033-0.014-0.282-0.143-0.573-0.275-0.848-0.428-0.239-0.132-0.494-0.197-0.741-0.305-0.344-0.148-0.711-0.239-1.080-0.274l0.324 0.54 0.066 0.11c0.007 0 0.015 0.002 0.021 0.002 0.112 0.009 0.226 0.153 0.303 0.221 0.128 0.109 0.267 0.199 0.392 0.313 0.211 0.191 0.468 0.313 0.68 0.507 0.132 0.122 0.259 0.219 0.402 0.319 0.112 0.079 0.173 0.19 0.257 0.295 0.051 0.063 0.105 0.117 0.163 0.171 0.081 0.076 0.161 0.152 0.229 0.24 0.117 0.156 0.191 0.296 0.344 0.423 0.492 0.41 0.902 0.84 1.128 1.472 0.112 0.311 0.324 0.58 0.506 0.845 0.156 0.225 0.267 0.489 0.354 0.754 0-0.064 0.041-0.12 0.064-0.176 0.035-0.079 0.051-0.166 0.084-0.245 0.064-0.153 0.166-0.287 0.235-0.438 0.092-0.203 0.161-0.399 0.224-0.606 0.092-0.298 0.043-0.647 0.044-0.955z"></path>
<path d="M25.259 20.718c0.046 0.038 0.097 0.069 0.15 0.1 0.137 0.082 0.26 0.173 0.397 0.254 0.077 0.048 0.145 0.112 0.232 0.147 0.049 0.020 0.087 0.021 0.137 0.051 0.135 0.077 0.259 0.186 0.385 0.273 0.15 0.104 0.319 0.206 0.494 0.298 0.084 0.043 0.168 0.086 0.252 0.122 0.127 0.054 0.221 0.112 0.336 0.181 0.125 0.072 0.245 0.153 0.372 0.224 0.063 0.036 0.161 0.112 0.239 0.096 0.1-0.359 0.127-0.744 0.166-1.115 0.007-0.066 0.016-0.193-0.035-0.26-0.043-0.051-0.16-0.074-0.224-0.1-0.094-0.038-0.189-0.072-0.28-0.119-0.099-0.051-0.181-0.102-0.273-0.161-0.138-0.089-0.278-0.175-0.42-0.257-0.145-0.086-0.293-0.168-0.44-0.252-0.305-0.175-0.608-0.351-0.901-0.538-0.148-0.096-0.298-0.216-0.453-0.306-0.175-0.104-0.374-0.178-0.563-0.257-0.176-0.074-0.361-0.161-0.547-0.219-0.081 0.234-0.114 0.3-0.105 0.339 0.026 0.11 0.079 0.231 0.115 0.341 0.066 0.209 0.147 0.425 0.25 0.627 0.023 0.041 0.043 0.084 0.064 0.127 0.071 0.14 0.14 0.282 0.211 0.422 0.091 0.183 0.229 0.4 0.44 0.512 0.041-0.035 0.005-0.114-0.005-0.16-0.002-0.007-0.002-0.015-0.003-0.021-0.013-0.071-0.015-0.145-0.028-0.216-0.010-0.053-0.051-0.148-0.040-0.203 0.040 0.020 0.048 0.048 0.076 0.071z"></path>
<path d="M20.428 31.353c-0.163-0.125-0.306-0.27-0.463-0.402-0.063-0.053-0.123-0.11-0.186-0.165-0.219-0.193-0.428-0.395-0.627-0.609-0.198-0.211-0.389-0.431-0.563-0.669-0.278-0.372-0.527-0.777-0.789-1.163-0.14-0.204-0.29-0.394-0.445-0.586-0.048-0.059-0.15-0.161-0.175-0.247l-0.892-0.273c-0.168 0-0.316 0.002-0.476 0.056-0.081 0.026-0.138 0.040-0.219 0.053-0.020 0.003-0.048 0.007-0.074 0.010-0.049 0.008-0.1 0.021-0.12 0.058-0.068 0.127 0.133 0.306 0.201 0.366 0.211 0.184 0.422 0.397 0.575 0.631 0.053 0.082 0.068 0.1 0.153 0.179 0.061 0.054 0.109 0.128 0.171 0.181 0.128 0.109 0.217 0.267 0.336 0.403 0.255 0.298 0.594 0.515 0.869 0.794 0.123 0.125 0.27 0.219 0.398 0.339 0.114 0.105 0.199 0.232 0.303 0.344 0.020 0.021 0.040 0.044 0.061 0.064 0.237 0.217 0.473 0.43 0.733 0.614 0.109 0.086 0.216 0.175 0.321 0.265 0.165 0.107 0.341 0.186 0.529 0.237 0.074 0.028 0.158 0.068 0.245 0.1 0.115 0.044 0.234 0.077 0.341 0.051 0.094-0.021 0.184-0.11 0.211-0.207 0.012-0.051 0.008-0.105-0.026-0.151-0.056-0.077-0.338-0.231-0.392-0.273z"></path>
<path d="M24.797 28.957c-0.219-0.138-0.624-0.229-0.917-0.28-0.184-0.031-0.324-0.049-0.344-0.053-0.242-0.044-0.496-0.059-0.734-0.211-0.127-0.079-0.234-0.099-0.361-0.119-0.143-0.021-0.282-0.076-0.422-0.137-0.061-0.028-0.123-0.056-0.186-0.086-0.183-0.087-0.367-0.125-0.548-0.212-0.107-0.051-0.226-0.115-0.341-0.156-0.043-0.016-0.086-0.029-0.127-0.036-0.054-0.010-0.102-0.007-0.158-0.026-0.105-0.036-0.235-0.148-0.338-0.138-0.015 0.38 0.176 0.662 0.37 0.868 0.089 0.094 0.178 0.173 0.25 0.235 0.112 0.097 0.181 0.12 0.295 0.16 0.007 0.002 0.010 0.003 0.015 0.005 0.206 0.071 0.408 0.183 0.538-0.367 0.366 0.188 0.748 0.285 1.107 0.519 0.267 0.173 0.524 0.451 0.794 0.599 0.212 0.119 0.428 0.151 0.641 0.265 0.115 0.061 0.115 0.064 0.207-0.031 0.094-0.097 0.178-0.224 0.262-0.346 0.023-0.035 0.15-0.165 0.153-0.24 0.003-0.081-0.059-0.151-0.156-0.212z"></path>
<path d="M28.343 23.572c-0.217-0.053-0.435-0.089-0.657-0.11-0.061-0.007-0.122-0.016-0.183-0.025-0.221-0.028-0.44-0.064-0.659-0.11-0.025-0.007-0.049-0.012-0.074-0.018-0.441-0.109-0.884-0.211-1.312-0.369l-0.147 0.13-0.499 0.438c0.11 0.247 0.441 0.471 0.627 0.626 0.13 0.107 0.275 0.191 0.4 0.303 0.058 0.053 0.115 0.105 0.171 0.16 0.123 0.115 0.244 0.231 0.384 0.328 0.171 0.119 0.359 0.198 0.545 0.285 0.296 0.14 0.599 0.303 0.919 0.31 0.071 0 0.142-0.003 0.212-0.020 0.14-0.029 0.216-0.035 0.277-0.165 0.005-0.010 0.010-0.020 0.015-0.031 0.069-0.176 0.081-0.366 0.135-0.548 0.092-0.3 0.119-0.581 0.012-0.886-0.046-0.132-0.041-0.247-0.166-0.296z"></path>
</svg>
