<!-- Generated by IcoMoon.io -->
<svg version="1.1" xmlns="http://www.w3.org/2000/svg" width="32" height="32" viewBox="0 0 32 32">
<title>byakhee</title>
<path d="M26.659 8.353c-0.053 0.108-0.141 0.162-0.193 0.016-0.018-0.052-0.031-0.112-0.056-0.16-0.027-0.053-0.070-0.069-0.108-0.112-0.062-0.076-0.11-0.205-0.114-0.296-0.007-0.112 0.058-0.18 0.027-0.293-0.025-0.096-0.082-0.187-0.099-0.296h0.106c-0.020 0.072 0.068 0.103 0.108 0.144 0.065 0.062 0.118 0.139 0.162 0.218 0.040 0.070 0.069 0.152 0.103 0.225 0.032 0.063 0.077 0.131 0.093 0.197 0.021 0.096 0.013 0.273-0.028 0.357zM24.881 8.252c-0.055-0.016 0.021 0.090-0.013 0.13-0.040 0.043-0.183-0.004-0.218-0.020-0.072-0.032-0.12-0.040-0.196-0.053-0.087-0.020-0.183-0.059-0.276-0.094-0.079-0.028-0.162-0.055-0.231-0.108-0.077-0.062-0.142-0.128-0.232-0.18-0.082-0.049-0.153-0.085-0.231-0.144-0.075-0.058-0.153-0.108-0.231-0.159-0.046-0.028-0.158-0.058-0.121-0.126 0.031-0.049 0.143-0.059 0.191-0.066 0.16-0.028 0.315-0.083 0.478-0.106 0.065-0.008 0.117-0.036 0.181-0.040 0.032 0 0.073 0.012 0.107 0.003 0.028-0.008 0.038-0.032 0.068-0.040 0.031-0.008 0.076 0.003 0.11 0.003 0.084 0 0.128-0.004 0.186 0.062 0.044 0.048 0.089 0.106 0.125 0.16 0.040 0.062 0.038 0.125 0.052 0.195 0.008 0.051 0.045 0.125 0.062 0.184 0.034 0.106 0.076 0.319 0.187 0.4 0.016 0.003 0.034 0.012 0.063 0.028-0.022-0.003-0.044-0.012-0.063-0.028zM21.929 8.139c-0.128 0.149-0.29 0.211-0.471 0.276-0.189 0.065-0.388 0.195-0.595 0.141-0.079-0.020-0.141-0.051-0.151-0.131-0.011-0.085 0.020-0.165 0.035-0.242 0.021-0.1 0.077-0.203 0.117-0.294 0.044-0.108 0.075-0.221 0.134-0.319 0.051-0.086 0.104-0.122 0.177-0.178 0.072-0.053 0.138-0.097 0.221-0.131 0.059-0.024 0.090-0.058 0.141-0.093 0.124-0.083 0.276 0.043 0.36 0.134 0.231 0.243 0.252 0.581 0.032 0.837zM20.537 7.196c-0.016 0.055-0.006 0.087-0.037 0.142-0.011 0.020-0.051 0.072-0.062 0.087-0.032 0.047-0.082 0.082-0.115 0.128-0.055 0.079-0.065 0.141-0.143 0.221-0.089 0.087-0.167 0.177-0.27 0.249-0.145 0.101-0.258 0.228-0.421 0.293-0.091 0.032-0.167 0.043-0.263-0.008-0.082-0.043-0.080-0.1-0.077-0.186 0-0.085-0.016-0.181-0.003-0.267 0.014-0.087 0.060-0.166 0.072-0.255 0.027-0.195 0.158-0.415 0.267-0.577 0.103-0.149 0.266-0.29 0.446-0.335 0.073-0.016 0.153-0.004 0.231-0.004 0.077-0.001 0.11 0.024 0.177 0.036 0.077 0.016 0.162-0.008 0.224 0.055 0.026 0.024 0.059 0.083 0.072 0.134 0.007 0.024 0.011 0.043 0.010 0.058-0.010 0.083-0.086 0.152-0.107 0.232zM28.754 9.534c-0.034-0.187-0.040-0.405-0.121-0.582-0.046-0.105-0.103-0.215-0.128-0.325-0.016-0.069-0.006-0.11-0.041-0.174-0.027-0.056-0.065-0.107-0.087-0.166-0.101-0.255-0.333-0.457-0.528-0.651-0.158-0.163-0.332-0.305-0.522-0.432-0.003-0.004-0.008-0.008-0.016-0.012 0.016 0.062-0.032 0.069-0.075 0.058-0.096-0.024-0.153-0.1-0.194-0.179-0.062-0.121-0.108-0.245-0.189-0.353-0.139-0.187-0.267-0.381-0.453-0.526-0.162-0.124-0.311-0.246-0.498-0.329-0.167-0.072-0.336-0.144-0.502-0.211-0.246-0.094-0.492-0.203-0.743-0.267-0.083-0.020-0.174-0.020-0.266-0.016-0.046 0-0.096 0.004-0.139-0.004-0.031-0.008-0.075-0.075-0.090-0.004 0.008-0.028 0.194 0.111 0.205 0.121 0.083 0.066 0.174 0.093 0.27 0.135 0.142 0.062 0.239 0.154 0.31 0.29 0.032 0.061 0.062 0.124 0.104 0.181 0.031 0.043 0.172 0.156 0.137 0.221-0.025 0.048-0.169 0.020-0.211 0.020-0.117 0.008-0.236 0.024-0.355 0.032-0.229 0.016-0.445-0.028-0.673-0.032-0.189-0.008-0.381-0.003-0.571 0-0.2 0.001-0.454-0.032-0.64-0.106-0.082-0.032-0.146-0.062-0.234-0.072-0.099-0.012-0.174-0.062-0.27-0.083-0.118-0.024-0.236-0.008-0.352-0.032-0.070-0.016-0.115-0.028-0.186-0.028-0.19-0.008-0.371 0.003-0.56 0.043-0.146 0.028-0.311 0.090-0.46 0.099-0.146 0.008-0.367-0.053-0.504 0.008-0.046 0.024-0.076 0.059-0.131 0.070-0.087 0.020-0.196 0.001-0.283-0.008-0.224-0.028-0.456-0.083-0.668-0.149-0.075-0.020-0.155-0.059-0.229-0.065-0.073-0.008-0.143-0.003-0.212-0.020-0.134-0.028-0.103 0.246-0.217 0.305-0.131 0.069-0.398-0.036-0.49 0.108-0.017 0.024-0.003 0.069-0.003 0.097-0.003 0.062-0.016 0.121-0.037 0.183-0.087 0.274-0.108 0.563-0.167 0.846-0.031 0.134-0.063 0.262-0.1 0.392-0.031 0.12-0.051 0.242-0.091 0.357-0.011 0.028-0.030 0.041-0.032 0.073 0.086 0.040 0.198-0.089 0.283-0.024 0.008 0.111-0.107 0.159-0.143 0.246-0.022 0.046-0.010 0.104-0.035 0.152-0.017 0.032-0.040 0.059-0.060 0.087-0.055 0.080-0.084 0.173-0.138 0.255-0.069 0.107-0.173 0.165-0.258 0.255-0.083 0.085-0.211 0.447-0.044 0.488 0.090 0.020 0.189-0.024 0.276-0.032 0.118-0.012 0.239-0.003 0.359-0.003h0.705c0.134 0 0.238 0.020 0.371 0.040 0.096 0.016 0.142 0.008 0.142 0.102 0 0.108-0.096 0.191-0.113 0.296-0.025 0.154 0.004 0.345 0.004 0.501v0.374c-0.001 0.065 0.024 0.104 0.031 0.16 0.004 0.063-0.021 0.162-0.032 0.224-0.016 0.079-0.052 0.165-0.090 0.234-0.046 0.082-0.121 0.128-0.177 0.204-0.041 0.058-0.083 0.132-0.137 0.177-0.028 0.020-0.042 0.020-0.070 0.032-0.097 0.051-0.138 0.148-0.21 0.232-0.077 0.096-0.158 0.193-0.239 0.288-0.080 0.093-0.179 0.154-0.267 0.237-0.186 0.168-0.249 0.356-0.302 0.595-0.027 0.122-0.048 0.238-0.086 0.353-0.020 0.063-0.018 0.090 0.028 0.142 0.1 0.112 0.274 0.162 0.416 0.179 0.184 0.020 0.46 0.073 0.601 0.21 0.131 0.125 0.211 0.333 0.359 0.433 0.16 0.115 0.336 0.17 0.53 0.195 0.256 0.032 0.459-0.108 0.706-0.128 0.073-0.008 0.191-0.016 0.258 0.020 0.069 0.036 0.048 0.062 0.076 0.121 0.025 0.056 0.072 0.126 0.122 0.165 0.065 0.053 0.131 0.075 0.205 0.090 0.1 0.020 0.187 0.065 0.286 0.067 0.145 0.008 0.246-0.055 0.378-0.108 0.087-0.036 0.174-0.042 0.262-0.072 0.187-0.062 0.378-0.156 0.581-0.178 0.128-0.016 0.295-0.012 0.419 0.008 0.159 0.028 0.315 0.008 0.469 0.036 0.087 0.016 0.174 0.024 0.256 0.059 0.063 0.028 0.115 0.069 0.187 0.076 0.158 0.020 0.335-0.012 0.488-0.041 0.113-0.024 0.221-0.094 0.332-0.128 0.113-0.040 0.194-0.046 0.311-0.046 0.141 0 0.283 0.001 0.423 0 0.131-0.003 0.235 0.046 0.355 0.094 0.124 0.045 0.253 0.087 0.376 0.135 0.090 0.040 0.139 0.090 0.115 0.189-0.020 0.079-0.070 0.186-0.115 0.263-0.065 0.114-0.201 0.193-0.198 0.336 0.083-0.085 0.198-0.136 0.312-0.174 0.166-0.052 0.302-0.138 0.457-0.215 0.082-0.042 0.174-0.061 0.262-0.096 0.077-0.028 0.125-0.080 0.18-0.141 0.108-0.115 0.187-0.258 0.283-0.383 0.12-0.152 0.262-0.287 0.388-0.435 0.103-0.12 0.191-0.243 0.274-0.378 0.046-0.077 0.115-0.139 0.159-0.217 0.087-0.15 0.128-0.39 0.158-0.564 0.018-0.1 0.075-0.392-0.027-0.471-0.091 0.042-0.159 0.108-0.241 0.176-0.059 0.045-0.121 0.107-0.187 0.043-0.070-0.062-0.049-0.18-0.070-0.26-0.016-0.065-0.028-0.19-0.096-0.215-0.048-0.016-0.104 0.004-0.135 0.032-0.008 0.040-0.024 0.069-0.052 0.097-0.017 0.008-0.038 0.016-0.056 0.024-0.032 0.003-0.056 0.016-0.072 0.041-0.004 0.028-0.018 0.049-0.041 0.067-0.042 0.032-0.096 0.020-0.142 0.024-0.139 0.004-0.115-0.053-0.212-0.125-0.055-0.041-0.121-0.046-0.181-0.077-0.053-0.032-0.084-0.075-0.134-0.106-0.066 0.041-0.091 0.232-0.163 0.232-0.040 0.001-0.052-0.065-0.083-0.083-0.073-0.043-0.066 0.020-0.117 0.036-0.091 0.036-0.177-0.224-0.204-0.297-0.021-0.058-0.049-0.094-0.082-0.142-0.027-0.042-0.030-0.052-0.041-0.111-0.032 0.003-0.124 0.085-0.151 0.107-0.062 0.058-0.107 0.124-0.174 0.176-0.055 0.043-0.103 0.072-0.149 0.128-0.051 0.062-0.115 0.118-0.181 0.049-0.069-0.067-0.021-0.258-0.114-0.277-0.068-0.016-0.194 0.045-0.26 0.059-0.066 0.012-0.135 0.024-0.205 0.020-0.141-0.004-0.228-0.087-0.277-0.215-0.041-0.091-0.046-0.193-0.065-0.291-0.013-0.056-0.007-0.112-0.020-0.166-0.008-0.040-0.037-0.070-0.031-0.114-0.090 0.096-0.118 0.224-0.196 0.323-0.062 0.075-0.159 0.101-0.208 0.195-0.107-0.046-0.236-0.1-0.317-0.19-0.032-0.036-0.053-0.082-0.079-0.124-0.16-0.246-0.286 0.205-0.342 0.166-0.046-0.032-0.055-0.099-0.103-0.135-0.046-0.040-0.075-0.024-0.127-0.040-0.084-0.020-0.166-0.067-0.249-0.099-0.165-0.063-0.355-0.041-0.532-0.041-0.111 0.003-0.205-0.040-0.317-0.036-0.082 0-0.21 0.066-0.286 0.032-0.106-0.046-0.026-0.195 0.006-0.276 0.037-0.094 0.046-0.189 0.080-0.283 0.022-0.062 0.046-0.138 0.076-0.2 0.027-0.061 0.073-0.112 0.099-0.18 0.053-0.146 0.128-0.221 0.224-0.336 0.056-0.070 0.125-0.132 0.187-0.194 0.062-0.061 0.114-0.058 0.196-0.055 0.079 0 0.173-0.016 0.252-0.003 0.084 0.016 0.103 0.052 0.183 0.012 0.1-0.051 0.152-0.059 0.259-0.004 0.114 0.053 0.193 0.072 0.322 0.067 0.063-0.004 0.122-0.045 0.19-0.036 0.037 0.004 0.066 0.028 0.1 0.032 0.031 0.003 0.056 0 0.087-0.004 0.055-0.008 0.082-0.024 0.128 0.012 0.083 0.062 0.183 0.28 0.196 0.383 0-0.003 0.099-0.134 0.108-0.152 0.034-0.066 0.059-0.138 0.096-0.205 0.083-0.146 0.128-0.024 0.243-0.001 0.111 0.016 0.274-0.087 0.355-0.152 0.032-0.024 0.058-0.055 0.096-0.073 0.068-0.036 0.174-0.024 0.234 0.028 0.025 0.020 0.031 0.061 0.066 0.066 0.051 0.016 0.122-0.052 0.155-0.082 0.090-0.086 0.134-0.115 0.258-0.101 0.090 0.012 0.134 0.083 0.214 0.106 0.149 0.046 0.321-0.076 0.452-0.131 0.139-0.058 0.286-0.046 0.436-0.043 0.114 0.003 0.255 0.087 0.35 0.145 0.106 0.063 0.155 0.193 0.245 0.28 0.094 0.094 0.169 0.193 0.236 0.308 0.035 0.059 0.046 0.128 0.075 0.193 0.011 0.024 0.032 0.041 0.038 0.067 0.007 0.036-0.008 0.063 0.006 0.099 0.073-0.087 0.12-0.213 0.179-0.309 0.062-0.106 0.12-0.191 0.167-0.301 0.049-0.108 0.056-0.227 0.080-0.339 0.017-0.075 0.028-0.131 0.028-0.214 0-0.053-0.011-0.118 0.007-0.168 0.166 0.227 0.16 0.515 0.224 0.768 0.034 0.142 0.052 0.283 0.052 0.432 0.003 0.12-0.025 0.273 0.010 0.387 0.075-0.020 0.19-0.191 0.248-0.245 0.042-0.041 0.103-0.080 0.137-0.128 0.037-0.052 0.055-0.131 0.080-0.191 0.073-0.181 0.060-0.38 0.060-0.57 0-0.214 0.010-0.426-0.028-0.633z"></path>
<path d="M17.196 5.83c0.011 0.118 0.022 0.232 0.034 0.349 0.017 0.186-0.011 0.35 0.010 0.535 0.037 0.345-0.106 0.657-0.272 0.95-0.086 0.151-0.16 0.318-0.229 0.477-0.037 0.083-0.069 0.152-0.086 0.238-0.020 0.099-0.007 0.194-0.027 0.29-0.079 0.327-0.31 0.581-0.532 0.823-0.176 0.191-0.353 0.436-0.605 0.53-0.046 0.020-0.165 0.052-0.197 0.008-0.008-0.016-0.028-0.118-0.035-0.139-0.030-0.087-0.041-0.187-0.048-0.287-0.011-0.117 0.028-0.183 0.065-0.29 0.087-0.255 0.207-0.484 0.377-0.699 0.083-0.106 0.152-0.2 0.215-0.319 0.024-0.041 0.052-0.085 0.072-0.128 0.030-0.061 0.034-0.142 0.070-0.195 0.049-0.075 0.114-0.148 0.162-0.229 0.084-0.136 0.174-0.255 0.249-0.397 0.106-0.203 0.242-0.347 0.269-0.582 0.017-0.144-0.027-0.284-0.021-0.429 0.003-0.058 0.010-0.106 0.035-0.159 0.034-0.069 0.046-0.101 0.055-0.18 0.020-0.152 0.063-0.255 0.222-0.267 0.052-0.004 0.129-0.032 0.163 0.004 0.028 0.032 0.021 0.181 0.053 0.097z"></path>
<path d="M15.497 4.014c0.025 0.264 0.090 0.515 0.118 0.782 0.020 0.215-0.013 0.423-0.115 0.618-0.049 0.097-0.121 0.16-0.162 0.263-0.040 0.094-0.114 0.2-0.19 0.269-0.080 0.073-0.136 0.127-0.186 0.229-0.053 0.111-0.072 0.26-0.097 0.38-0.027 0.13-0.037 0.255-0.077 0.377-0.041 0.131-0.038 0.269-0.128 0.377-0.073 0.094-0.179 0.171-0.263 0.26-0.044 0.045-0.082 0.094-0.124 0.141-0.070 0.075-0.159 0.115-0.238 0.183-0.122 0.101-0.239 0.203-0.376 0.286-0.083 0.051-0.183 0.087-0.208 0.193-0.017 0.079 0.006 0.166 0.044 0.235 0.069 0.131 0.187 0.174 0.287 0.269 0.135 0.131 0.279 0.187 0.471 0.115 0.103-0.040 0.181-0.148 0.258-0.227 0.134-0.136 0.298-0.255 0.416-0.411 0.069-0.090 0.082-0.203 0.142-0.301 0.065-0.106 0.141-0.207 0.21-0.311 0.103-0.157 0.25-0.308 0.333-0.481 0.087-0.179 0.152-0.357 0.26-0.523 0.044-0.065 0.115-0.112 0.151-0.177 0.021-0.040 0.024-0.087 0.044-0.13 0.032-0.062 0.080-0.107 0.111-0.174 0.038-0.090 0.103-0.165 0.138-0.258 0.037-0.089 0.065-0.211 0.076-0.308 0.025-0.237-0.077-0.457-0.006-0.687 0.052-0.162 0.013-0.464-0.038-0.626-0.021-0.062-0.052-0.099-0.087-0.149-0.045-0.058-0.072-0.112-0.111-0.173-0.046-0.075-0.134-0.181-0.214-0.218-0.082-0.040-0.383-0.152-0.454-0.062-0.028 0.032 0.008 0.237 0.018 0.28 0.020 0.087 0.053 0.141-0.003-0.041z"></path>
<path d="M13.736 2.935c0.040 0.195 0.12 0.366 0.159 0.56 0.062 0.335 0.114 0.661 0.091 1.003-0.018 0.267-0.052 0.498-0.138 0.757-0.087 0.263-0.159 0.54-0.329 0.772-0.141 0.191-0.228 0.408-0.388 0.582-0.070 0.077-0.148 0.155-0.215 0.229-0.063 0.069-0.165 0.168-0.205 0.242-0.066 0.117-0.041 0.331-0.011 0.45 0.040 0.16 0.149 0.232 0.297 0.318 0.165 0.099 0.249 0.024 0.374-0.101 0.12-0.118 0.176-0.272 0.267-0.405 0.111-0.162 0.232-0.304 0.322-0.478 0.090-0.17 0.158-0.333 0.224-0.511 0.052-0.136 0.136-0.242 0.143-0.391 0.008-0.154 0.055-0.291 0.080-0.443 0.025-0.151 0.022-0.269 0.103-0.414 0.1-0.187 0.342-0.294 0.38-0.515 0.037-0.21-0.025-0.407-0.063-0.608-0.034-0.179-0.053-0.367-0.129-0.533-0.041-0.090-0.051-0.179-0.087-0.269-0.034-0.087-0.053-0.195-0.099-0.277-0.065-0.11-0.166-0.255-0.315-0.229-0.080 0.016-0.124 0.036-0.198 0.008-0.053-0.020-0.080-0.055-0.138-0.066-0.027-0.008-0.136-0.020-0.167-0.012-0.094 0.020-0.051 0.093-0.037 0.158 0.016 0.082 0.030 0.125 0.077 0.193 0.028 0.040 0.031 0.056 0.069 0.091 0.042 0.036 0.104 0.036-0.066-0.112z"></path>
<path d="M11.717 2.583c0.016 0.059 0.097 0.103 0.146 0.141 0.103 0.073 0.201 0.149 0.301 0.227 0.111 0.086 0.165 0.173 0.198 0.308 0.032 0.132 0.090 0.252 0.122 0.383 0.136 0.552 0.072 1.137-0.083 1.694-0.032 0.111-0.030 0.227-0.069 0.336-0.046 0.132-0.145 0.246-0.2 0.374-0.077 0.18-0.167 0.373-0.21 0.561-0.027 0.134-0.080 0.239-0.124 0.369-0.044 0.125-0.024 0.221 0.156 0.204 0.059-0.008 0.167-0.024 0.218-0.048 0.062-0.028 0.129-0.118 0.18-0.169 0.156-0.152 0.269-0.347 0.357-0.533 0.118-0.24 0.264-0.469 0.36-0.719 0.113-0.296 0.113-0.609 0.141-0.913 0.020-0.238 0.046-0.477 0.084-0.713 0.040-0.258-0.035-0.497-0.084-0.749-0.034-0.169-0.038-0.395-0.118-0.547-0.072-0.141-0.231-0.26-0.38-0.329-0.152-0.069-0.295-0.146-0.439-0.221-0.065-0.036-0.131-0.072-0.196-0.103-0.044-0.024-0.106-0.075-0.155-0.087-0.187-0.052-0.215 0.169-0.212 0.284 0 0.061 0.016 0.11 0.011 0.166-0.007 0.062-0.017 0.135 0.024 0.197 0.024-0.001 0.049-0.001 0.075 0 0.004 0.008 0.013 0.020-0.106-0.112z"></path>
<path d="M10.215 2.965c0.013 0.19 0.27 0.367 0.381 0.504 0.148 0.18 0.241 0.359 0.329 0.568 0.191 0.45 0.225 0.896 0.181 1.386-0.013 0.17 0.007 0.352 0.021 0.522 0.014 0.184-0.032 0.39-0.058 0.575-0.016 0.11-0.044 0.231-0.037 0.341 0.001 0.058 0.008 0.101 0.066 0.111 0.056 0.012 0.159-0.045 0.194-0.080 0.066-0.069 0.121-0.193 0.165-0.28 0.115-0.237 0.208-0.478 0.218-0.736 0.008-0.243 0.055-0.497 0.040-0.74-0.016-0.221-0.093-0.449-0.136-0.664-0.059-0.3-0.115-0.597-0.176-0.895-0.027-0.144-0.030-0.319-0.087-0.453-0.048-0.112-0.203-0.169-0.321-0.2-0.122-0.032-0.208-0.062-0.314-0.124-0.104-0.063-0.191-0.108-0.308-0.149-0.113-0.041-0.198 0.012-0.198 0.132 0.003 0.076 0.046 0.076 0.076 0.128 0.035 0.063 0.041 0.218-0.037 0.053z"></path>
<path d="M9.247 3.701c-0.007 0.106 0.18 0.141 0.249 0.198 0.089 0.073 0.146 0.165 0.204 0.259 0.048 0.083 0.101 0.103 0.172 0.168 0.236 0.224 0.318 0.619 0.377 0.916 0.028 0.142 0.079 0.294 0.065 0.439-0.013 0.128-0.011 0.259-0.018 0.383-0.011 0.208 0.037 0.439-0.030 0.639-0.018 0.061-0.040 0.135-0.108 0.168-0.069 0.028-0.258-0.012-0.324-0.032-0.267-0.087-0.17-0.602-0.177-0.784-0.008-0.311-0.055-0.609-0.122-0.913-0.032-0.149-0.124-0.298-0.225-0.421-0.037-0.046-0.084-0.077-0.113-0.131-0.034-0.062-0.052-0.114-0.108-0.168-0.127-0.122-0.319-0.335-0.207-0.512 0.070-0.107 0.117-0.11 0.239-0.15 0.080-0.028 0.040-0.024 0.115-0.016 0.055 0.008 0.17 0.008 0.011-0.043z"></path>
<path d="M8.253 5.237c0.003 0.080 0.076 0.131 0.128 0.189 0.1 0.11 0.191 0.231 0.249 0.366 0.086 0.195 0.135 0.381 0.176 0.592 0.025 0.146 0.093 0.27 0.128 0.414 0.051 0.213 0.174-0.020 0.207-0.128 0.055-0.178 0.058-0.308 0.041-0.49-0.006-0.073 0.017-0.135 0.007-0.21-0.011-0.093-0.048-0.165-0.087-0.252-0.041-0.097-0.093-0.201-0.117-0.301-0.020-0.072-0.014-0.165-0.045-0.234-0.059-0.135-0.155-0.276-0.229-0.409-0.118 0-0.187 0.075-0.29 0.086-0.052 0.008-0.031-0.062-0.106-0.008-0.055 0.042-0.025 0.097-0.016 0.145 0.013 0.087 0.034 0.174 0.051 0.262 0.006 0.036 0.006 0.086 0.022 0.12 0.022 0.058 0.080 0.087-0.12-0.142z"></path>
<path d="M12.074 10.613c-0.357 0.573-0.694 1.157-1.028 1.745-0.121 0.217-0.227 0.44-0.346 0.656-0.127 0.228-0.291 0.428-0.426 0.649-0.099 0.166-0.167 0.343-0.258 0.516-0.090 0.169-0.196 0.318-0.317 0.467-0.084 0.106-0.155 0.203-0.227 0.317-0.079 0.125-0.177 0.234-0.269 0.355-0.155 0.205-0.2 0.386-0.428 0.525-0.048 0.032-0.087 0.063-0.128 0.1-0.121 0.103-0.26 0.218-0.342 0.355-0.121 0.193-0.124 0.454-0.165 0.668-0.041 0.198-0.205 0.323-0.208 0.532-0.007 0.224-0.041 0.476 0.093 0.657 0.077 0.104 0.111 0.207 0.173 0.319 0.045 0.086 0.115 0.142 0.148 0.235 0.062 0.181 0.052 0.312 0.277 0.308 0.224-0.003 0.445 0 0.667 0 0.256 0.003 0.504-0.12 0.753-0.076 0.159 0.028 0.276-0.024 0.355-0.166 0.077-0.146 0.093-0.302 0.193-0.443 0.118-0.169 0.221-0.308 0.411-0.4 0.255-0.124 0.485-0.070 0.753-0.061 0.286 0.012 0.568-0.141 0.692-0.405 0.066-0.138 0.096-0.283 0.203-0.398 0.121-0.131 0.245-0.248 0.363-0.383 0.153-0.184 0.287-0.363 0.505-0.481 0.186-0.1 0.401-0.195 0.561-0.333 0.108-0.093 0.228-0.168 0.264 0.040 0.059-0.072 0.101-0.28 0.19-0.3 0.046 0.104 0.006 0.264-0.016 0.366-0.034 0.154-0.025 0.284-0.107 0.431-0.068 0.112-0.155 0.213-0.222 0.326-0.162 0.27-0.291 0.563-0.446 0.839-0.041 0.079-0.086 0.163-0.106 0.25-0.008 0.040-0.004 0.076-0.013 0.112-0.014 0.073-0.062 0.142-0.079 0.219-0.014 0.062-0.072 0.177-0.065 0.239 0.053 0.001 0.086-0.043 0.122-0.080 0.091-0.085 0.203-0.144 0.301-0.224 0.058-0.049 0.115-0.103 0.184-0.134 0.046-0.020 0.131-0.076 0.179-0.076 0.017 0.036-0.007 0.053-0.018 0.082-0.025 0.075-0.037 0.154-0.069 0.224-0.065 0.131-0.066 0.26-0.091 0.402-0.022 0.12-0.044 0.239-0.062 0.359-0.017 0.11-0.060 0.215-0.063 0.329 0 0.076-0.022 0.122 0.063 0.128 0.077 0.004 0.114-0.045 0.17-0.091 0.090-0.069 0.186-0.126 0.27-0.203 0.056-0.048 0.12-0.141 0.193-0.163 0.028 0.056 0 0.128-0.021 0.177-0.049 0.115-0.066 0.225-0.1 0.343-0.031 0.111-0.096 0.217-0.152 0.314-0.076 0.132-0.134 0.279-0.214 0.407-0.062 0.097-0.124 0.184-0.172 0.293-0.046 0.104-0.097 0.203-0.165 0.296-0.165 0.222-0.321 0.471-0.436 0.725-0.065 0.139-0.115 0.267-0.201 0.394-0.082 0.125-0.151 0.249-0.218 0.377-0.124 0.231-0.262 0.44-0.454 0.618-0.098 0.091-0.224 0.144-0.325 0.234-0.079 0.069-0.139 0.159-0.19 0.255-0.069 0.125-0.122 0.262-0.189 0.39-0.072 0.134-0.151 0.26-0.21 0.4-0.1 0.239-0.319 0.402-0.507 0.573-0.093 0.087-0.187 0.174-0.284 0.257-0.124 0.104-0.258 0.19-0.376 0.301-0.19 0.187-0.393 0.349-0.563 0.557-0.138 0.168-0.235 0.345-0.431 0.453-0.1 0.055-0.215 0.087-0.317 0.142-0.132 0.070-0.241 0.151-0.355 0.246-0.055 0.045-0.101 0.108-0.156 0.152-0.041 0.032-0.082 0.036-0.094 0.089-0.011 0.056 0.014 0.069-0.028 0.118-0.021 0.024-0.056 0.041-0.083 0.059 0.068 0.040 0.17-0.041 0.238-0.052 0.131-0.020 0.264 0 0.395-0.024 0.145-0.024 0.262-0.051 0.398-0.11 0.090-0.043 0.169-0.093 0.258-0.139 0.101-0.052 0.21-0.075 0.303-0.136 0.175-0.115 0.336-0.237 0.521-0.333 0.167-0.096 0.348-0.124 0.525-0.195 0.179-0.072 0.342-0.191 0.487-0.318 0.106-0.091 0.215-0.177 0.324-0.269 0.104-0.085 0.187-0.194 0.28-0.287 0.162-0.17 0.367-0.274 0.537-0.435 0.1-0.096 0.175-0.213 0.272-0.308 0.11-0.111 0.225-0.217 0.348-0.311 0.215-0.165 0.393-0.38 0.567-0.59 0.101-0.121 0.217-0.228 0.326-0.342 0.127-0.135 0.21-0.301 0.322-0.452 0.411-0.547 0.848-1.092 1.327-1.583 0.2-0.208 0.423-0.407 0.606-0.63 0.108-0.128 0.184-0.277 0.26-0.426 0.045-0.093 0.022-0.201 0.055-0.301 0.028-0.091 0.042-0.183 0.065-0.277 0.021-0.087 0.018-0.17 0.037-0.258 0.014-0.065 0.025-0.112 0.022-0.18 0-0.036-0.004-0.080 0.008-0.118 0.072 0.020 0.115 0.16 0.151 0.217 0.065 0.104 0.145 0.2 0.203 0.305 0.037 0.072 0.065 0.165 0.099 0.238 0.034 0.069 0.031 0.131 0.031 0.204-0.003 0.104 0 0.208 0 0.311 0 0.043-0.017 0.115 0.004 0.155 0.060-0.087 0.051-0.228 0.091-0.326 0.212-0.494 0.302-1.104 0.104-1.617-0.051-0.13-0.12-0.264-0.222-0.36-0.068-0.062-0.155-0.097-0.219-0.162-0.103-0.103-0.145-0.242-0.215-0.365-0.069-0.118-0.169-0.224-0.221-0.353-0.149-0.357-0.252-0.734-0.301-1.117-0.038-0.286-0.086-0.53-0.255-0.764-0.082-0.115-0.218-0.125-0.331-0.191-0.117-0.069-0.179-0.207-0.236-0.325-0.098-0.197-0.106-0.424-0.183-0.629-0.077-0.195-0.267-0.341-0.321-0.546-0.034-0.139 0.030-0.259 0.035-0.395 0.004-0.075-0.010-0.136-0.046-0.204-0.167-0.29-0.366 0.149-0.58 0.032-0.060-0.032-0.069-0.117-0.139-0.145-0.083-0.036-0.127-0.003-0.191 0.028-0.153 0.082-0.293 0.187-0.38 0.336-0.198 0.339-0.557 0.56-0.777 0.892-0.218 0.323-0.567 0.582-0.877 0.809-0.174 0.127-0.343 0.267-0.523 0.383-0.134 0.082-0.291 0.132-0.416 0.227-0.052 0.040-0.069 0.079-0.106 0.124-0.136 0.173-0.342 0.318-0.539 0.412-0.083 0.040-0.219 0.076-0.264-0.016-0.076-0.146 0.101-0.381 0.175-0.484 0.196-0.284 0.428-0.501 0.639-0.765 0.176-0.219 0.229-0.506 0.376-0.743 0.121-0.201 0.273-0.347 0.322-0.585 0.117-0.571 0.264-1.157 0.581-1.65 0.181-0.288 0.387-0.559 0.567-0.847 0.044-0.070 0.1-0.191 0.19-0.213 0.087-0.016 0.072 0.032 0.145-0.020 0.058-0.036 0.115-0.253 0.142-0.315 0.035-0.073 0.069-0.146 0.101-0.222 0.080-0.184 0.155-0.373 0.203-0.571 0.018-0.085 0.037-0.149 0.037-0.234-0.003-0.083 0.037-0.168-0.058-0.187-0.073-0.016-0.179-0.001-0.25 0.008-0.059 0.012-0.103 0.036-0.16-0.004-0.032-0.024-0.031-0.059-0.056-0.087-0.052-0.056-0.142-0.032-0.203-0.008-0.063 0.024-0.1 0.069-0.153 0.114-0.106 0.087-0.225 0.162-0.317 0.264-0.159 0.183-0.307 0.398-0.428 0.606-0.082 0.136-0.111 0.276-0.143 0.422-0.011 0.046-0.030 0.072-0.031 0.122-0.007 0.076-0.013 0.132 0.121-0.184z"></path>
<path d="M20.225 19.905c-0.013 0.058-0.026 0.115-0.051 0.168-0.006 0.016 0.228 0.012 0.249 0.008 0.177-0.032 0.333-0.118 0.516-0.102 0.106 0.004 0.193 0.052 0.295 0.077 0.062 0.016 0.121 0.028 0.186 0.020 0.103-0.020 0.177-0.096 0.255-0.16 0.25-0.205 0.57-0.311 0.844-0.483 0.12-0.075 0.201-0.201 0.329-0.264 0.115-0.059 0.207-0.028 0.329-0.052 0.146-0.032 0.234-0.154 0.37-0.213 0.156-0.067 0.335-0.062 0.487-0.139 0.166-0.080 0.274-0.243 0.446-0.317 0.249-0.108 0.54-0.221 0.81-0.264 0.236-0.040 0.442 0.028 0.613 0.2 0.121 0.12 0.242 0.273 0.304 0.438 0.075 0.195 0.087 0.419 0.174 0.609 0.026 0.052 0.062 0.099 0.091 0.146 0.046 0.072 0.073 0.144 0.107 0.221 0.048 0.13 0.103 0.263 0.106 0.401 0.004 0.162 0 0.327 0 0.49 0 0.048 0.030 0.259-0.003 0.299-0.059 0.080-0.139-0.046-0.165-0.096-0.042-0.079-0.041-0.159-0.089-0.232-0.048-0.070-0.080-0.149-0.142-0.214-0.055-0.055-0.055-0.124-0.106-0.177-0.101-0.112-0.097 0.082-0.114 0.154-0.044 0.201-0.103 0.363-0.196 0.547-0.097 0.198-0.11 0.443-0.252 0.615-0.134 0.159-0.215 0.352-0.345 0.516-0.060 0.077-0.107 0.125-0.141 0.219-0.040 0.097-0.101 0.163-0.155 0.253-0.124 0.214-0.222 0.428-0.364 0.628-0.103 0.145-0.201 0.287-0.301 0.429-0.159 0.219-0.325 0.429-0.483 0.647-0.249 0.341-0.495 0.681-0.756 1.016-0.114 0.149-0.218 0.304-0.345 0.447-0.118 0.131-0.252 0.234-0.381 0.355-0.302 0.282-0.63 0.521-0.982 0.732-0.163 0.097-0.322 0.201-0.483 0.294-0.162 0.094-0.331 0.159-0.492 0.246-0.173 0.093-0.335 0.217-0.518 0.293-0.159 0.065-0.297 0.127-0.443 0.218-0.148 0.093-0.301 0.155-0.456 0.228-0.193 0.091-0.366 0.205-0.547 0.315-0.138 0.085-0.262 0.186-0.404 0.264-0.115 0.062-0.218 0.090-0.339 0.134-0.243 0.083-0.466 0.2-0.712 0.279-0.227 0.069-0.452 0.131-0.677 0.194-0.106 0.032-0.212 0.028-0.315 0.052-0.066 0.012-0.145 0.069-0.211 0.049-0.016-0.062 0.101-0.135 0.138-0.174 0.098-0.099 0.193-0.219 0.315-0.291 0.146-0.086 0.265-0.211 0.398-0.314 0.149-0.117 0.317-0.203 0.469-0.317 0.12-0.091 0.228-0.195 0.346-0.293 0.087-0.072 0.174-0.099 0.274-0.142 0.127-0.055 0.242-0.126 0.348-0.217 0.26-0.217 0.566-0.332 0.843-0.522 0.114-0.077 0.229-0.139 0.346-0.214 0.12-0.075 0.219-0.18 0.335-0.259 0.177-0.122 0.388-0.183 0.553-0.315 0.127-0.101 0.243-0.215 0.36-0.325 0.234-0.221 0.477-0.422 0.673-0.68 0.163-0.215 0.312-0.439 0.473-0.654 0.142-0.186 0.326-0.359 0.415-0.574 0.044-0.111 0.070-0.224 0.125-0.329 0.065-0.118 0.137-0.234 0.201-0.352 0.045-0.090 0.1-0.174 0.149-0.264 0.038-0.075 0.053-0.156 0.087-0.229 0.082-0.175 0.197-0.369 0.305-0.526 0.044-0.067 0.097-0.072 0.143-0.126 0.037-0.046 0.027-0.115 0.073-0.156 0.053-0.053 0.12-0.043 0.163-0.114 0.044-0.066 0.040-0.144 0.086-0.211 0.063-0.104 0.174-0.187 0.243-0.294 0.096-0.152 0.229-0.293 0.311-0.453 0.028-0.061 0.211-0.501 0.093-0.511-0.096 0.082-0.124 0.203-0.224 0.283-0.063 0.048-0.152 0.063-0.219 0.124-0.066 0.058-0.12 0.117-0.2 0.154-0.115 0.053-0.225 0.032-0.345 0.049-0.398 0.051-0.495 0.377-0.675 0.67-0.072 0.118-0.211 0.232-0.211 0.386 0.060-0.091 0.072-0.2 0.060-0.305-0.007-0.051-0.035-0.083-0.045-0.118-0.007-0.049 0.003-0.099-0.006-0.149-0.048-0.25-0.34-0.273-0.547-0.298-0.388-0.043-0.76 0.083-1.141 0.136-0.059 0.008-0.12 0.008-0.181 0.004-0.242-0.004-0.397-0.008-0.616 0.11-0.31 0.17-0.567-0.139-0.864-0.162-0.235-0.020-0.336-0.139-0.467-0.311-0.132-0.174-0.11-0.242-0.051-0.439 0.083-0.273 0.311-0.506 0.373-0.801 0.027-0.141 0.030-0.28 0.046-0.423 0.008-0.075 0.037-0.146 0.066-0.214 0.042-0.1 0.114-0.169 0.152-0.274 0.031-0.090 0.037-0.187 0.077-0.28 0.021-0.049 0.049-0.102 0.075-0.152 0.046-0.085 0.106-0.16 0.162-0.237 0.187-0.243 0.376-0.49 0.644-0.646 0.134-0.079 0.25-0.162 0.377-0.249 0.169-0.112 0.352-0.205 0.485-0.349-0.041 0.097-0.028 0.186-0.030 0.287 0 0.080-0.003 0.16-0.007 0.242 0.008 0.055 0.041 0.073 0.099 0.056 0.048-0.008 0.084 0.003 0.113 0.042 0.013 0.066 0.017 0.135 0.010 0.203 0 0.172-0.007 0.338-0.053 0.506-0.083 0.29-0.242 0.57-0.37 0.843-0.093 0.193-0.193 0.388-0.27 0.587-0.016 0.032-0.024 0.062-0.031 0.094z"></path>
<path d="M9.747 8.902c-0.155-0.016-0.373 0.359-0.438 0.457-0.179 0.283-0.37 0.561-0.542 0.851-0.429 0.727-0.678 1.559-0.913 2.371-0.172 0.602-0.321 1.193-0.402 1.819-0.055 0.414-0.113 0.827-0.18 1.238-0.052 0.323-0.048 0.666-0.070 0.995-0.004 0.077-0.007 0.156-0.014 0.234-0.008 0.096-0.049 0.146-0.072 0.235-0.094 0.4 0.090 0.798 0.076 1.192-0.007 0.248 0.098 0.478 0.106 0.718 0.007 0.187-0.2 0.215-0.333 0.135-0.332-0.205-0.543-0.688-0.718-1.026-0.080-0.156-0.17-0.301-0.179-0.48-0.018-0.283 0.048-0.576 0.058-0.858 0.022-0.599 0.003-1.196 0.056-1.794 0.040-0.4 0.238-0.689 0.433-1.023 0.207-0.35 0.356-0.695 0.423-1.103 0.035-0.237 0.038-0.419-0.058-0.629-0.127-0.279-0.207-0.409-0.128-0.723 0.068-0.28 0.143-0.557 0.324-0.784 0.208-0.262 0.497-0.46 0.751-0.663 0.256-0.205 0.522-0.435 0.722-0.699 0.106-0.139 0.19-0.314 0.283-0.466 0.077-0.115 0.129-0.237 0.19-0.36 0.072-0.15 0.096-0.156 0.232-0.195 0.038-0.012 0.113-0.061 0.149-0.043 0.025 0.012 0.055 0.13 0.069 0.163 0.028 0.072 0.063 0.149 0.076 0.231 0.032 0.201-0.073 0.301 0.099 0.208z"></path>
<path d="M6.279 9.204c-0.243 0.609-0.46 1.244-0.727 1.845-0.179 0.402-0.411 0.777-0.584 1.183-0.331 0.781-0.619 1.601-0.744 2.438-0.096 0.618-0.131 1.224-0.131 1.849 0.001 0.315 0.010 0.63 0.001 0.945-0.004 0.287-0.056 0.571-0.059 0.861-0.003 0.467 0.136 0.808 0.335 1.218 0.191 0.39 0.325 0.808 0.536 1.185 0.096 0.166 0.189 0.304 0.258 0.481 0.035 0.087 0.065 0.181 0.115 0.262 0.040 0.059 0.077 0.104 0.108 0.17 0.031 0.069 0.031 0.131 0.094 0.181-0.004-0.091 0.007-0.186-0.007-0.274-0.056-0.388-0.231-0.756-0.318-1.134-0.121-0.523-0.221-1.043-0.329-1.567-0.070-0.345-0.169-0.699-0.196-1.054-0.016-0.234-0.006-0.466-0.006-0.699 0.003-0.463-0.017-0.916 0.059-1.373 0.076-0.442 0.256-0.83 0.471-1.22 0.239-0.429 0.423-0.879 0.696-1.292 0.29-0.439 0.35-0.9 0.476-1.397 0.118-0.476 0.287-0.893 0.273-1.387-0.007-0.205-0.011-0.412 0.044-0.612 0.044-0.152 0.128-0.283 0.193-0.424 0.063-0.145 0.069-0.319 0.148-0.456 0.059-0.107 0.103-0.131 0.093-0.264-0.006-0.11-0.020-0.187-0.131-0.215-0.131-0.028-0.221 0.028-0.308 0.118-0.335 0.346-0.363 0.865-0.36 0.632z"></path>
</svg>
