<!-- Generated by IcoMoon.io -->
<svg version="1.1" xmlns="http://www.w3.org/2000/svg" width="32" height="32" viewBox="0 0 32 32">
<title>call_of_the_plaguebearer</title>
<path d="M14.999 30.956c-0.242-0.049-0.383-0.12-0.544-0.272-0.303-0.286-0.721-0.546-1.062-0.659-0.159-0.053-0.38-0.158-0.491-0.233s-0.301-0.153-0.424-0.172c-0.255-0.041-0.562-0.296-0.562-0.468 0-0.312-0.393-0.907-0.995-1.51-0.163-0.163-1.352-0.793-1.497-0.793-0.116 0-0.698-0.788-0.979-1.326-0.043-0.083-0.204-0.289-0.357-0.459-0.336-0.371-0.354-0.414-0.419-0.996-0.028-0.252-0.066-0.578-0.085-0.725-0.032-0.248-0.007-0.319 0.35-1.003 0.523-1.003 0.645-1.211 0.89-1.51 0.116-0.142 0.257-0.348 0.313-0.459 0.11-0.216 0.344-0.513 0.806-1.024 0.16-0.177 0.387-0.451 0.504-0.609 0.517-0.697 1.188-1.443 1.499-1.665 0.135-0.096 0.31-0.252 0.389-0.346s0.449-0.376 0.823-0.626c0.581-0.39 1.158-0.84 1.367-1.066 0.566-0.613 1.133-1.077 1.604-1.312 0.401-0.2 0.558-0.452 0.537-0.86-0.018-0.349-0.008-0.371 0.687-1.49 0.456-0.733 0.617-1.058 0.672-1.352 0.023-0.123 0.075-0.276 0.117-0.34s0.114-0.283 0.161-0.487c0.047-0.205 0.139-0.524 0.203-0.71 0.094-0.274 0.117-0.483 0.117-1.1 0-0.419 0.028-0.834 0.063-0.922s0.085-0.393 0.113-0.677c0.028-0.284 0.078-0.709 0.113-0.946 0.035-0.243 0.055-0.976 0.044-1.687l-0.018-1.257 0.63-0.252c0.46-0.184 0.762-0.266 1.118-0.304 0.671-0.072 1.846-0.067 2.146 0.008 0.202 0.051 0.28 0.046 0.421-0.027 0.095-0.049 0.285-0.105 0.422-0.125s0.347-0.072 0.466-0.116c0.119-0.045 0.277-0.081 0.351-0.081 0.124 0 0.133 0.020 0.115 0.244-0.011 0.134-0.033 0.54-0.048 0.903s-0.068 0.786-0.116 0.94c-0.049 0.155-0.088 0.468-0.088 0.695s-0.036 0.501-0.081 0.607c-0.101 0.241-0.144 0.745-0.214 2.457-0.102 2.522-0.119 2.688-0.3 2.994-0.089 0.151-0.209 0.495-0.269 0.774-0.148 0.686-0.232 0.938-0.502 1.505-0.128 0.268-0.29 0.638-0.359 0.822s-0.213 0.438-0.319 0.564c-0.169 0.203-0.279 0.478-0.386 0.966-0.034 0.156-0.437 0.374-1.164 0.629-0.195 0.069-0.401 0.176-0.459 0.24-0.153 0.169-0.949 1.348-1.393 2.064-0.092 0.148-0.276 0.342-0.408 0.43-0.508 0.338-1.166 0.707-1.504 0.843-0.46 0.185-1.196 0.6-1.553 0.875-0.483 0.373-1.737 1.655-1.866 1.909-0.17 0.334-0.377 0.977-0.484 1.502-0.066 0.327-0.089 0.797-0.089 1.808v1.366l0.322 0.626c0.177 0.344 0.429 0.752 0.559 0.907 0.317 0.377 0.856 0.725 1.122 0.725 0.112 0 0.294 0.028 0.404 0.062 0.412 0.127 1.029 0.191 1.862 0.194s0.876-0.003 1.392-0.189c0.293-0.105 0.57-0.177 0.616-0.159 0.12 0.046 0.107 0.526-0.023 0.81-0.097 0.213-0.368 0.488-0.813 0.827-0.101 0.077-0.218 0.223-0.26 0.325-0.054 0.129-0.137 0.205-0.275 0.25-0.108 0.036-0.228 0.102-0.266 0.148s-0.162 0.084-0.277 0.084c-0.114 0.001-0.311 0.028-0.437 0.062s-0.448 0.082-0.716 0.108c-0.268 0.026-0.577 0.061-0.688 0.077s-0.348-0.001-0.528-0.038z"></path>
</svg>
