<!-- Generated by IcoMoon.io -->
<svg version="1.1" xmlns="http://www.w3.org/2000/svg" width="32" height="32" viewBox="0 0 32 32">
<title>canteen</title>
<path d="M13.611 3.4c-0.766 0-1.4 0.634-1.4 1.4v3.578l6.609-1.797v2.209h-6.009c-2.219 0-4.626 1.107-6.006 4.43l0.553 0.23-0.566-0.198c-1.586 4.528-0.251 8.855 0.767 10.792l0.528-0.277-0.491 0.339c2.732 3.947 6.477 5.040 9.759 4.305s6.12-3.191 7.341-6.219l0.242-0.6-0.617-0.197c-1.99-0.631-3.882-1.385-4.897-1.905 0.403-0.417 0.857-0.809 1.23-1.227 1.579-1.769 2.675-3.287 3.392-4.45 0.020 0.051 0.054 0.080 0.073 0.131 0.6 1.592 0.815 3.534 0.384 5.175l1.161 0.305c0.513-1.953 0.255-4.104-0.423-5.903s-1.754-3.295-3.186-3.789l-0.519-0.178-0.225 0.498c0 0-1.608 3.489-5.787 7.57-1.644-0.917-4.663-2.512-7.369-4.38 1.225-2.552 2.903-3.253 4.655-3.253h7.209v-5.191c0-0.766-0.634-1.4-1.4-1.4h-5.009zM13.611 4.6h5.009c0.118 0 0.2 0.082 0.2 0.2v0.537l-5.409 1.47v-2.008c0-0.118 0.082-0.2 0.2-0.2zM22.044 11.169c0.464 0.285 0.902 0.767 1.327 1.438-0.456 0.865-1.756 2.782-3.611 4.859-1.972 2.208-4.438 4.494-6.709 5.692l0.559 1.061c1.703-0.898 3.349-2.315 4.903-3.819 1.043 0.594 2.889 1.257 4.773 1.873-1.177 2.387-3.531 4.371-6.192 4.967-2.705 0.606-5.643-0.193-8.075-3.33 1.545-0.811 4.278-2.476 7.038-5.102 4.012-3.818 5.588-6.837 5.988-7.641zM7.769 14.414c2.567 1.738 5.196 3.17 6.8 4.052-2.496 2.233-4.909 3.766-6.188 4.433-0.777-1.754-1.552-5.019-0.612-8.484z"></path>
</svg>
