<!-- Generated by IcoMoon.io -->
<svg version="1.1" xmlns="http://www.w3.org/2000/svg" width="32" height="32" viewBox="0 0 32 32">
<title>card-outline-bold</title>
<path d="M14.313 2.978c-1.664-0.446-3.402 0.56-3.848 2.223l-4.661 17.384c-0.446 1.664 0.56 3.403 2.223 3.848l9.661 2.589c1.663 0.445 3.402-0.56 3.848-2.223l4.661-17.384c0.446-1.664-0.56-3.402-2.223-3.848zM13.723 5.183l9.656 2.589c0.47 0.126 0.733 0.579 0.607 1.049l-4.656 17.388c-0.126 0.47-0.583 0.733-1.054 0.607l-9.656-2.589c-0.47-0.126-0.733-0.579-0.607-1.049l4.661-17.388c0.126-0.47 0.579-0.733 1.049-0.607z"></path>
<path d="M18.107 8.134c-2.197-0.589-4.483 0.732-5.071 2.929s0.732 4.487 2.929 5.076c2.197 0.589 4.483-0.732 5.071-2.929s-0.732-4.487-2.929-5.076zM17.518 10.344c1.004 0.269 1.581 1.268 1.313 2.272s-1.273 1.581-2.277 1.313-1.581-1.269-1.313-2.272c0.269-1.004 1.273-1.581 2.277-1.313z"></path>
<path d="M15.518 17.795c-1.13-0.303-2.322 0.383-2.625 1.513s0.388 2.322 1.518 2.625c1.13 0.303 2.322-0.383 2.625-1.513s-0.388-2.322-1.518-2.625zM15 19.728c0.063 0.017 0.12 0.111 0.103 0.174s-0.111 0.115-0.174 0.098c-0.063-0.017-0.12-0.111-0.103-0.174s0.111-0.115 0.174-0.098z"></path>
</svg>
