<!-- Generated by IcoMoon.io -->
<svg version="1.1" xmlns="http://www.w3.org/2000/svg" width="32" height="32" viewBox="0 0 32 32">
<title>cards</title>
<path d="M25.725 6.508v-0.019l-0.192-0.961-0.074-0.942c-0.015-0.183-0.099-0.345-0.227-0.459l-0.001-0.001-0.747-0.682c-0.056-0.051-0.121-0.094-0.193-0.124l-0.004-0.002h-0.016l-0.942-0.389c-0.078-0.033-0.169-0.052-0.264-0.052-0.031 0-0.062 0.002-0.092 0.006l0.004-0h-0.025l-0.911 0.112-0.95-0.016-0.95 0.047-0.922-0.044-0.95-0.085c-0.018-0.001-0.040-0.002-0.062-0.002s-0.043 0.001-0.064 0.002l0.003-0-0.958 0.077-0.914 0.044-0.933-0.063-0.983-0.041c-0.021-0.002-0.044-0.003-0.068-0.003s-0.048 0.001-0.071 0.003l0.003-0-0.821 0.109-0.821-0.203c-0.055-0.013-0.118-0.021-0.183-0.021s-0.128 0.008-0.189 0.022l0.006-0.001-0.796 0.181-0.799-0.159c-0.039-0.006-0.083-0.010-0.129-0.010s-0.090 0.004-0.133 0.011l0.005-0.001-0.969 0.123c-0.048 0.006-0.092 0.015-0.134 0.029l0.005-0.001-0.911 0.274c-0.137 0.042-0.254 0.115-0.347 0.211l-0 0-0.651 0.682c-0.087 0.092-0.153 0.204-0.19 0.328l-0.002 0.006-0.255 0.906c-0.016 0.054-0.027 0.117-0.030 0.182l-0 0.002-0.060 1.511c-0.030 0.506-0.033 1.018-0.044 1.527v0c0 0.033 0 0.063 0 0.096l0.093 0.988v0.928l-0.079 0.988-0.060 1.018v0.066l0.027 1.018 0.055 1.015v0.085l0.162 0.862-0.197 0.862v0.019c-0.009 0.040-0.015 0.086-0.015 0.134 0 0.014 0 0.027 0.001 0.041l-0-0.002 0.052 0.988v1.010c-0.001 0.011-0.001 0.024-0.001 0.037s0 0.026 0.001 0.039l-0-0.002 0.129 0.942-0.060 0.928v0.022c-0.001 0.007-0.001 0.014-0.001 0.022s0 0.015 0.001 0.023l-0-0.001 0.038 1.002-0.055 0.966v0.027c0 0.030 0 0.057 0 0.088l0.123 0.985 0.063 0.933-0.151 0.931v0.022c-0.004 0.025-0.006 0.054-0.006 0.083s0.002 0.058 0.007 0.087l-0-0.003 0.167 1.005 0.222 0.996v0.027c0.021 0.088 0.063 0.165 0.121 0.228l-0-0 0.701 0.742 0.019 0.019c0.082 0.090 0.198 0.148 0.328 0.153l0.001 0 0.977 0.049 0.972 0.104h0.027c0.017 0.003 0.037 0.004 0.057 0.004s0.040-0.002 0.060-0.004l-0.002 0 0.914-0.181 0.9 0.079 0.977 0.060h0.052l1.21-0.085c0.408-0.025 0.821-0.049 1.213-0.109 0.203-0.022 0.402-0.060 0.602-0.068l1.79-0.107h0.969l0.961 0.090h0.019l0.972-0.063 0.963-0.109 0.963 0.077-0.961-0.183-0.966 0.016-0.961-0.016-0.958-0.167-0.966-0.088-1.245-0.019h-0.613c-0.203 0-0.402 0.022-0.605 0.030-0.405 0.033-0.805 0.030-1.204 0.030h-1.174l-0.955-0.126-0.961-0.137c-0.015-0.003-0.033-0.004-0.051-0.004s-0.035 0.002-0.052 0.004l0.002-0h-0.025l-0.892 0.129-0.933-0.148-0.78-0.079-0.413-0.52-0.159-0.821-0.109-0.876 0.183-0.92c0.002-0.017 0.003-0.037 0.003-0.057s-0.001-0.040-0.003-0.060l0 0.002v-0.022l-0.030-1.029-0.082-0.953 0.090-0.961v-1.021l0.096-0.985c0.002-0.019 0.003-0.041 0.003-0.063s-0.001-0.044-0.003-0.066l0 0.003v-0.027l-0.107-0.953 0.016-0.985-0.027-0.917 0.222-0.917c0.009-0.041 0.013-0.088 0.013-0.137s-0.005-0.096-0.014-0.141l0.001 0.005v-0.005l-0.137-0.958-0.030-0.963v-0.953l0.074-0.972 0.099-0.996c0.001-0.011 0.001-0.024 0.001-0.037s-0-0.026-0.001-0.039l0 0.002v-1.048l0.364 0.192c0.205 0.099 0.411 0.2 0.619 0.296 0.022 0.010 0.049 0.016 0.076 0.016 0.074 0 0.137-0.041 0.17-0.102l0.001-0.001 0.041-0.047c0.115-0.238 0.241-0.473 0.348-0.714l0.328-0.72c0.153-0.359 0.301-0.72 0.443-1.095q0.796 0.339 1.618 0.613h0.036c0.033 0.011 0.071 0.018 0.11 0.018 0.156 0 0.289-0.102 0.335-0.242l0.001-0.003c0.152-0.418 0.312-0.961 0.443-1.516l0.022-0.11c0.068-0.274 0.118-0.547 0.192-0.821s0.123-0.515 0.17-0.775l0.627-0.090 0.884 0.033 0.958 0.057h0.093l0.983-0.057 0.914-0.082 0.917 0.071 0.988 0.025h0.077l0.942-0.066h0.966c0.012 0.001 0.027 0.002 0.041 0.002s0.029-0.001 0.043-0.002l-0.002 0 0.788-0.115 0.649 0.252 0.443 0.383 0.068 0.684v0.019c-0.001 0.009-0.001 0.020-0.001 0.031s0 0.022 0.001 0.033l-0-0.001 0.219 0.903-0.033 0.892-0.104 0.974v0.027c-0.001 0.011-0.002 0.024-0.002 0.037s0.001 0.026 0.002 0.039l-0-0.002 0.036 0.854c-0.194 0.025-0.389 0.055-0.58 0.085l-0.454 0.088c-0.047-0.203-0.090-0.405-0.145-0.605-0.063-0.26-0.142-0.512-0.222-0.764l-0.246-0.755-0.249-0.75v-0.016c-0.057-0.151-0.201-0.257-0.369-0.257-0.051 0-0.1 0.010-0.145 0.028l0.003-0.001h-0.014q-0.821 0.315-1.642 0.654c-0.055-0.14-0.109-0.274-0.167-0.419-0.126-0.308-0.25-0.561-0.388-0.804l0.018 0.035c-0.129-0.252-0.274-0.498-0.4-0.753s-0.274-0.501-0.411-0.747c0.036 0.274 0.082 0.567 0.137 0.848 0.064 0.329 0.136 0.604 0.223 0.873l-0.015-0.052c0.071 0.274 0.17 0.547 0.227 0.821s0.14 0.547 0.213 0.821v0.016c0.048 0.143 0.181 0.245 0.338 0.245 0.040 0 0.078-0.006 0.113-0.018l-0.003 0.001 0.036-0.027c0.339-0.109 0.676-0.227 1.013-0.348 0.205-0.077 0.408-0.159 0.613-0.241l0.137 0.353c0.096 0.249 0.205 0.49 0.315 0.731s0.233 0.476 0.331 0.72 0.222 0.479 0.331 0.72l0.019 0.041c0.032 0.064 0.097 0.108 0.172 0.108 0.029 0 0.056-0.006 0.081-0.018l-0.001 0c0.208-0.096 0.416-0.2 0.624-0.301s0.339-0.178 0.506-0.274v0.115l0.068 0.999 0.027 0.988v1.059l0.085 0.983q-0.047 0.985-0.074 1.968v0.030c-0.001 0.006-0.001 0.013-0.001 0.021s0 0.014 0.001 0.021l-0-0.001 0.104 1.005c0.019 0.66 0.047 1.322 0.082 1.982l-0.022 0.983v0.055l0.12 0.988-0.030 0.972v0.027c-0.001 0.003-0.001 0.007-0.001 0.011s0 0.008 0.001 0.011l-0-0 0.101 0.994-0.038 0.977v0.019c-0.001 0.004-0.001 0.008-0.001 0.012s0 0.009 0.001 0.013l-0-0 0.131 0.974-0.082 0.983v0.016c-0.001 0.004-0.001 0.008-0.001 0.012s0 0.009 0.001 0.013l-0-0 0.137 0.974-0.342 0.859-0.578 0.701-0.879 0.465 0.931-0.38 0.671-0.649c0.001-0.003 0.001-0.006 0.001-0.010s-0-0.007-0.001-0.010l0 0 0.443-0.873c0.003-0.009 0.004-0.019 0.004-0.030s-0.002-0.021-0.004-0.031l0 0.001-0.057-0.985 0.162-0.994c0.001-0.004 0.001-0.009 0.001-0.014s-0-0.010-0.001-0.014l0 0v-0.019l-0.049-0.98 0.148-1.032v-0.041l-0.038-0.974 0.099-0.994v-0.055l-0.060-0.974 0.088-0.988v-0.030c0-0.671 0-1.338 0.022-2.009v-0.033l-0.049-0.961q0.082-0.994 0.178-1.984c0.001-0.007 0.001-0.016 0.001-0.025s-0-0.017-0.001-0.026l0 0.001v-0.025l-0.047-0.974 0.033-1.002v-1.026l-0.030-1.010v-0.936l0.145-0.966v-0.052l0.077-1.007c0.004-0.028 0.006-0.060 0.006-0.093 0-0.025-0.001-0.050-0.004-0.074l0 0.003zM13.309 5.279c-0.127 0.209-0.256 0.458-0.369 0.716l-0.017 0.042c-0.123 0.255-0.227 0.517-0.35 0.766-0.066 0.137-0.126 0.274-0.189 0.413-0.547-0.23-1.095-0.449-1.642-0.651h-0.025c-0.039-0.014-0.083-0.022-0.13-0.022-0.174 0-0.322 0.11-0.378 0.265l-0.001 0.003c-0.175 0.495-0.345 0.996-0.493 1.5l-0.216 0.761c-0.057 0.2-0.107 0.4-0.156 0.599l-0.46-0.088c-0.148-0.025-0.298-0.047-0.446-0.066l-0.090-0.895c0-0.484 0.019-0.966 0.052-1.451l0.068-1.412 0.178-0.619 0.372-0.364 0.649-0.189 0.772-0.101 0.821 0.159c0.049 0.011 0.106 0.017 0.164 0.017s0.115-0.006 0.169-0.018l-0.005 0.001 0.783-0.183 0.78 0.186c0.055 0.013 0.118 0.021 0.183 0.021 0.039 0 0.077-0.003 0.114-0.008l-0.004 0 0.246-0.036c-0.112 0.205-0.249 0.424-0.38 0.651z"></path>
<path d="M12.913 24.537c-0.049-0.142-0.181-0.242-0.337-0.242-0.036 0-0.071 0.005-0.103 0.015l0.003-0.001h-0.033c-0.331 0.096-0.662 0.2-0.994 0.304l-0.608 0.222-0.145-0.35c-0.107-0.238-0.2-0.482-0.301-0.723s-0.208-0.482-0.326-0.72-0.244-0.474-0.364-0.698l-0.019-0.049c-0.032-0.062-0.095-0.104-0.169-0.104-0.028 0-0.055 0.006-0.079 0.017l0.001-0c-0.208 0.093-0.416 0.194-0.627 0.296s-0.413 0.208-0.616 0.326c0.233-0.022 0.463-0.055 0.692-0.090l0.463-0.079c0.052 0.197 0.104 0.394 0.167 0.588 0.082 0.246 0.142 0.501 0.213 0.753s0.145 0.504 0.235 0.75l0.274 0.742c0.056 0.156 0.202 0.265 0.374 0.265 0.046 0 0.091-0.008 0.132-0.022l-0.003 0.001c0.326-0.112 0.646-0.233 0.969-0.353l0.649-0.244c0.066 0.142 0.129 0.274 0.197 0.424 0.12 0.252 0.235 0.506 0.364 0.755s0.257 0.498 0.389 0.747 0.274 0.495 0.424 0.736c-0.095-0.649-0.215-1.209-0.368-1.757l0.023 0.098c-0.129-0.539-0.304-1.076-0.479-1.607z"></path>
<path d="M23.664 22.747c0.233 0.038 0.463 0.077 0.698 0.104-0.203-0.12-0.411-0.23-0.616-0.339s-0.43-0.216-0.63-0.312c-0.027-0.016-0.060-0.026-0.096-0.026-0.081 0-0.149 0.050-0.178 0.12l-0 0.001-0.022 0.041c-0.115 0.238-0.238 0.474-0.348 0.714l-0.337 0.723c-0.109 0.244-0.222 0.484-0.309 0.736l-0.131 0.356c-0.517-0.205-1.043-0.38-1.59-0.561h-0.036c-0.032-0.011-0.070-0.017-0.109-0.017-0.157 0-0.289 0.103-0.334 0.245l-0.001 0.003c-0.085 0.274-0.167 0.534-0.244 0.805s-0.164 0.547-0.235 0.821c-0.070 0.216-0.139 0.492-0.192 0.774l-0.007 0.047c-0.052 0.274-0.099 0.547-0.134 0.846 0.148-0.246 0.274-0.495 0.408-0.747s0.274-0.498 0.391-0.747c0.205-0.383 0.386-0.78 0.547-1.18q0.821 0.328 1.642 0.63h0.014c0.035 0.011 0.075 0.017 0.116 0.017 0.182 0 0.336-0.122 0.384-0.288l0.001-0.003 0.252-0.75c0.071-0.252 0.162-0.501 0.241-0.753s0.153-0.504 0.227-0.758c0.057-0.197 0.107-0.4 0.156-0.599z"></path>
<path d="M19.514 16.799l0.435-0.816 0.353-0.851 0.047-0.92-0.066-0.914-0.296-0.873-0.531-0.75-0.643-0.646-0.761-0.509-0.862-0.328-0.917-0.044-0.922 0.022-0.851 0.361-0.788 0.471-0.654 0.646-0.493 0.78-0.315 0.868-0.077 0.917 0.126 0.909 0.304 0.859 0.49 0.769 0.621 0.671 0.769 0.512 0.873 0.301 0.917 0.093 0.911-0.115 0.876-0.287 0.761-0.517 0.692-0.608z"></path>
<path d="M17.226 21.406l-0.953-0.265-0.961 0.252-0.687 0.712-0.285 0.95 0.265 0.963 0.703 0.706 0.963 0.252 0.955-0.268 0.712-0.69 0.235-0.963-0.241-0.958-0.709-0.69z"></path>
<path d="M19.375 19.558v0c0.274-0.197 0.547-0.389 0.821-0.594l0.038-0.030 0.714-0.81 0.526-0.884v-0.019s0 0 0-0.016l0.312-0.974 0.274-0.983c0-0.339 0.016-0.679 0.030-1.021s-0.016-0.679-0.019-1.021v0l-0.594-1.96c0-0.003 0.001-0.006 0.001-0.010s-0-0.007-0.001-0.010l0 0v-0.019l-0.547-0.862-0.019-0.022-0.684-0.755-0.033-0.025c-0.274-0.205-0.547-0.394-0.821-0.591l-0.019-0.014h-0.027c-0.301-0.151-0.605-0.296-0.909-0.435h-0.022c-0.32-0.115-0.64-0.219-0.961-0.328-0.030-0.011-0.065-0.018-0.101-0.019h-0l-0.238-0.588-0.821-0.326-0.821 0.339-0.235 0.575h-0.044l-0.963 0.345h-0.025l-0.89 0.493h-0.019c-0.287 0.238-0.561 0.438-0.835 0.646v0c-0.219 0.257-0.449 0.504-0.676 0.753v0 0c-0.189 0.274-0.386 0.547-0.583 0.821v0c-0.164 0.296-0.337 0.586-0.512 0.879v0.025c-0.101 0.326-0.211 0.649-0.318 0.974-0.001 0.003-0.001 0.007-0.001 0.011s0 0.008 0.001 0.011l-0-0v0.016l-0.118 1.018v0.033l0.041 1.024c-0.001 0.005-0.001 0.011-0.001 0.016s0 0.011 0.001 0.017l-0-0.001v0.025l0.249 0.988v0.025c0.12 0.32 0.241 0.638 0.367 0.953 0.012 0.027 0.026 0.051 0.044 0.072l-0-0v0.014l0.632 0.821 0.687 0.766c0.019 0.022 0.041 0.041 0.065 0.057l0.001 0.001 0.848 0.547h0.036l0.879 0.553c0.024 0.013 0.051 0.024 0.080 0.030l0.002 0h0.014c0.326 0.082 0.654 0.156 0.983 0.235h0.044c0.334 0.044 0.668 0.090 1.005 0.129v0c0.014 0.003 0.031 0.004 0.048 0.004s0.034-0.002 0.050-0.004l-0.002 0 1.002-0.14h0.060c0.328-0.079 0.657-0.151 0.985-0.235h0.030l0.057-0.025c0.301-0.159 0.602-0.309 0.9-0.474zM18.146 19.284c-0.312 0.057-0.621 0.123-0.933 0.186l-0.939 0.118-0.931-0.118c-0.307-0.071-0.61-0.145-0.917-0.213l-0.846-0.408-0.821-0.487-0.66-0.673-0.627-0.734c-0.131-0.29-0.274-0.58-0.402-0.868l-0.304-0.909-0.131-0.966 0.025-0.985c0.079-0.318 0.156-0.638 0.241-0.955 0.156-0.293 0.309-0.583 0.471-0.873s0.378-0.547 0.572-0.807 0.452-0.476 0.684-0.709c0.274-0.181 0.547-0.361 0.821-0.547l0.909-0.38 0.922-0.216 0.192 0.452 0.821 0.337 0.805-0.339 0.159-0.367c0.296 0.104 0.588 0.211 0.884 0.307s0.594 0.257 0.895 0.378 0.547 0.331 0.821 0.487l0.742 0.624 0.638 0.731 0.405 0.903 0.364 0.947c0.016 0.334 0.030 0.671 0.041 1.007s-0.036 0.671-0.060 1.007l-0.353 0.953-0.416 0.898-0.619 0.758-0.728 0.643c-0.274 0.151-0.567 0.312-0.848 0.468s-0.583 0.244-0.876 0.369z"></path>
</svg>
