<!-- Generated by IcoMoon.io -->
<svg version="1.1" xmlns="http://www.w3.org/2000/svg" width="32" height="32" viewBox="0 0 32 32">
<title>chalk</title>
<path d="M14.477 5.4l-8.677 13.22v5.628l3.323 3.323 5.344-3.563 6.847-13.966-1.548-4.644h-5.289zM15.123 6.6h3.778l1.119 3.356-6.488 13.234-4.256 2.837-2.277-2.277v-4.772l8.123-12.38zM17.084 8.092l-6.806 11.389-2.83 0.738 0.303 1.163 2.639-0.688 1.498 2.422 1.022-0.631-1.542-2.491 6.747-11.286-1.031-0.616zM20.564 22.864l-2.202 4.403h5.505l-3.303-4.403zM24.733 24v1.583h1.2v-1.583h-1.2zM20.769 25.137l0.698 0.93h-1.164l0.466-0.93zM15.4 26.417v1.583h1.2v-1.583h-1.2zM26.067 26.667v1.583h1.2v-1.583h-1.2z"></path>
</svg>
