<!-- Generated by IcoMoon.io -->
<svg version="1.1" xmlns="http://www.w3.org/2000/svg" width="32" height="32" viewBox="0 0 32 32">
<title>chaos_bag</title>
<path d="M13 4.543c-1.137-0.033-2.315 0.159-3.488 0.813l0.977 1.746c1.654-0.921 3.287-0.57 5.27-0.074s4.281 1.166 6.648 0.117l-0.813-1.832c-1.632 0.723-3.334 0.278-5.352-0.227-1.009-0.252-2.105-0.51-3.242-0.543zM11.387 9l-0.277 0.547c-0.649 1.284-2.016 2.232-3.398 3.539s-2.711 3.121-2.711 5.914c0 2.74 1.084 4.908 3.047 6.207s4.649 1.793 7.953 1.793c3.693 0 6.387-0.482 8.273-1.809s2.727-3.505 2.727-6.191c0-2.833-1.496-4.66-2.793-5.957-0.649-0.649-1.249-1.2-1.641-1.695s-0.566-0.875-0.566-1.348h-2c0 1.028 0.45 1.898 0.996 2.59s1.195 1.266 1.797 1.867c1.203 1.203 2.207 2.376 2.207 4.543 0 2.313-0.562 3.635-1.875 4.559s-3.618 1.441-7.125 1.441c-3.096 0-5.41-0.506-6.848-1.457s-2.152-2.283-2.152-4.543c0-2.207 0.868-3.309 2.086-4.461 1.055-0.998 2.332-2.087 3.297-3.539h2.617v6.91h2v-6.629c0.149 0.1 0.291 0.194 0.453 0.523 0.406 0.822 0.746 2.709 0.746 6.105h2c0-3.512-0.259-5.583-0.953-6.988-0.347-0.703-0.851-1.242-1.445-1.547s-1.217-0.375-1.801-0.375h-4.613z"></path>
</svg>
