<!-- Generated by IcoMoon.io -->
<svg version="1.1" xmlns="http://www.w3.org/2000/svg" width="32" height="32" viewBox="0 0 32 32">
<title>checklist</title>
<path fill="#394852" d="M16 3.2c-7.060 0-12.8 5.74-12.8 12.8s5.74 12.8 12.8 12.8c7.060 0 12.8-5.74 12.8-12.8s-5.74-12.8-12.8-12.8zM16 4.8c6.195 0 11.2 5.005 11.2 11.2s-5.005 11.2-11.2 11.2c-6.195 0-11.2-5.005-11.2-11.2s5.005-11.2 11.2-11.2z"></path>
<path fill="#394852" d="M26.319 4.584l-10.363 16.956-6.3-9-1.313 0.919 7 10 1.337-0.044 11-18z"></path>
</svg>
