<!-- Generated by IcoMoon.io -->
<svg version="1.1" xmlns="http://www.w3.org/2000/svg" width="32" height="32" viewBox="0 0 32 32">
<title>check-circle</title>
<path d="M28.733 16c0 7.032-5.701 12.733-12.733 12.733v2.315c8.311 0 15.048-6.737 15.048-15.048zM16 28.733c-7.032 0-12.733-5.701-12.733-12.733h-2.315c0 8.311 6.737 15.048 15.048 15.048zM3.267 16c0-7.032 5.701-12.733 12.733-12.733v-2.315c-8.311 0-15.048 6.737-15.048 15.048zM16 3.267c7.032 0 12.733 5.701 12.733 12.733h2.315c0-8.311-6.737-15.048-15.048-15.048z"></path>
</svg>
