<!-- Generated by IcoMoon.io -->
<svg version="1.1" xmlns="http://www.w3.org/2000/svg" width="32" height="32" viewBox="0 0 32 32">
<title>cheshire_cat</title>
<path d="M14.764 28.588c0-0.224 0.28-0.28 1.399-0.28s1.399 0.056 1.399 0.28c0 0.224-0.28 0.28-1.399 0.28s-1.399-0.056-1.399-0.28zM13.178 27.35c-3.811-0.366-6.888-1.579-8.644-3.409-1.429-1.489-1.608-2.056-1.44-4.568 0.073-1.087 0.191-2.080 0.262-2.208 0.283-0.505 1.427-1.172 2.010-1.172 0.748 0 1.006 0.326 0.323 0.407-0.719 0.086-0.979 0.589-0.628 1.214 0.921 1.641 6.338 3.23 11.009 3.23s10.087-1.589 11.009-3.23c0.351-0.625 0.090-1.128-0.628-1.214-0.683-0.081-0.424-0.407 0.323-0.407 0.583 0 1.728 0.667 2.010 1.172 0.071 0.128 0.189 1.121 0.262 2.208 0.168 2.512-0.010 3.079-1.44 4.568-1.825 1.901-4.82 3.040-9.017 3.429-2.299 0.213-2.999 0.211-5.411-0.021zM14.204 25.696c0-0.41-0.084-0.746-0.187-0.746-0.206 0-0.26 1.171-0.062 1.368 0.218 0.218 0.249 0.141 0.249-0.622zM15.603 25.727c0-0.85-0.362-0.82-0.432 0.035-0.044 0.53 0.006 0.698 0.187 0.638 0.135-0.045 0.246-0.348 0.246-0.673zM16.967 25.742c-0.064-0.771-0.396-0.951-0.492-0.266-0.076 0.538 0.078 0.966 0.347 0.966 0.121 0 0.18-0.283 0.146-0.7zM18.309 25.591c0-0.353-0.084-0.642-0.187-0.642s-0.187 0.341-0.187 0.757c0 0.457 0.074 0.712 0.187 0.642 0.103-0.063 0.187-0.404 0.187-0.757zM12.898 25.613c0-0.353-0.084-0.694-0.187-0.757-0.113-0.070-0.187 0.185-0.187 0.642 0 0.417 0.084 0.757 0.187 0.757s0.187-0.289 0.187-0.642zM19.615 25.498c0-0.457-0.074-0.712-0.187-0.642-0.103 0.063-0.187 0.404-0.187 0.757s0.084 0.642 0.187 0.642c0.103 0 0.187-0.341 0.187-0.757zM11.592 25.427c0-0.353-0.084-0.694-0.187-0.757-0.113-0.070-0.187 0.185-0.187 0.642 0 0.417 0.084 0.757 0.187 0.757s0.187-0.289 0.187-0.642zM20.921 25.311c0-0.457-0.074-0.712-0.187-0.642-0.103 0.063-0.187 0.404-0.187 0.757s0.084 0.642 0.187 0.642c0.103 0 0.187-0.341 0.187-0.757zM10.286 25.043c0-0.456-0.084-0.653-0.28-0.653-0.285 0-0.408 0.93-0.156 1.182 0.279 0.279 0.435 0.089 0.435-0.529zM22.379 24.982c0.043-0.438-0.018-0.592-0.233-0.592-0.21 0-0.292 0.187-0.292 0.669 0 0.843 0.44 0.779 0.525-0.077zM8.98 24.669c0-0.456-0.084-0.653-0.28-0.653s-0.28 0.197-0.28 0.653c0 0.456 0.084 0.653 0.28 0.653s0.28-0.197 0.28-0.653zM23.72 24.669c0-0.456-0.084-0.653-0.28-0.653s-0.28 0.197-0.28 0.653c0 0.456 0.084 0.653 0.28 0.653s0.28-0.197 0.28-0.653zM7.487 24.203c0-0.41-0.084-0.746-0.187-0.746-0.206 0-0.26 1.171-0.062 1.368 0.218 0.218 0.249 0.141 0.249-0.622zM25.026 24.099c0-0.353-0.084-0.642-0.187-0.642s-0.187 0.341-0.187 0.757c0 0.457 0.074 0.712 0.187 0.642 0.103-0.063 0.187-0.404 0.187-0.757zM6.008 22.836c-0.143-0.142-0.2-0.010-0.2 0.459 0 0.858 0.262 1.122 0.34 0.342 0.033-0.331-0.030-0.691-0.14-0.801zM26.332 23.341c0-0.388-0.076-0.606-0.187-0.538-0.103 0.063-0.187 0.409-0.187 0.768 0 0.388 0.076 0.606 0.187 0.538 0.103-0.063 0.187-0.409 0.187-0.768zM15.697 22.886c0-0.695-0.069-0.922-0.28-0.922s-0.28 0.225-0.28 0.902c0 0.496 0.054 0.956 0.119 1.021 0.266 0.266 0.44-0.13 0.44-1.001zM17.003 22.886c0-0.695-0.069-0.922-0.28-0.922s-0.28 0.225-0.28 0.902c0 0.496 0.054 0.956 0.119 1.021 0.266 0.266 0.44-0.13 0.44-1.001zM12.898 22.804c0-0.564-0.084-1.026-0.187-1.026s-0.187 0.462-0.187 1.026c0 0.564 0.084 1.026 0.187 1.026s0.187-0.462 0.187-1.026zM14.204 22.804c0-0.564-0.084-1.026-0.187-1.026s-0.187 0.462-0.187 1.026c0 0.564 0.084 1.026 0.187 1.026s0.187-0.462 0.187-1.026zM18.309 22.804c0-0.564-0.084-1.026-0.187-1.026s-0.187 0.462-0.187 1.026c0 0.564 0.084 1.026 0.187 1.026s0.187-0.462 0.187-1.026zM19.615 22.804c0-0.564-0.084-1.026-0.187-1.026s-0.187 0.462-0.187 1.026c0 0.564 0.084 1.026 0.187 1.026s0.187-0.462 0.187-1.026zM11.592 22.617c0-0.564-0.084-1.026-0.187-1.026s-0.187 0.462-0.187 1.026c0 0.564 0.084 1.026 0.187 1.026s0.187-0.462 0.187-1.026zM20.921 22.617c0-0.564-0.084-1.026-0.187-1.026s-0.187 0.462-0.187 1.026c0 0.564 0.084 1.026 0.187 1.026s0.187-0.462 0.187-1.026zM10.249 22.305c-0.076-1.3-0.523-1.472-0.523-0.201 0 0.505 0.056 0.973 0.124 1.042 0.32 0.32 0.45 0.045 0.398-0.841zM22.378 22.163c0.043-0.744-0.002-0.964-0.187-0.904-0.149 0.049-0.266 0.463-0.301 1.064-0.043 0.744 0.002 0.964 0.187 0.904 0.149-0.049 0.266-0.463 0.301-1.064zM4.875 22.441c0-0.353-0.084-0.694-0.187-0.757-0.113-0.070-0.187 0.185-0.187 0.642 0 0.417 0.084 0.757 0.187 0.757s0.187-0.289 0.187-0.642zM27.638 22.326c0-0.457-0.074-0.712-0.187-0.642-0.103 0.063-0.187 0.404-0.187 0.757s0.084 0.642 0.187 0.642c0.103 0 0.187-0.341 0.187-0.757zM8.943 21.932c-0.081-1.382-0.523-1.447-0.523-0.077 0 0.817 0.062 1.042 0.29 1.042 0.232 0 0.278-0.193 0.233-0.965zM23.72 21.855c0-1.37-0.442-1.305-0.523 0.077-0.045 0.772 0.001 0.965 0.233 0.965 0.227 0 0.29-0.225 0.29-1.042zM7.487 21.404c0-0.622-0.083-1.12-0.187-1.12-0.205 0-0.262 1.915-0.062 2.115 0.226 0.226 0.249 0.134 0.249-0.995zM25.026 21.3c0-0.558-0.084-1.015-0.187-1.015-0.104 0-0.187 0.501-0.187 1.131 0 0.706 0.070 1.087 0.187 1.015 0.103-0.063 0.187-0.572 0.187-1.131zM6.005 19.661c-0.139-0.139-0.197 0.11-0.197 0.835 0 1.342 0.263 1.606 0.337 0.339 0.032-0.537-0.031-1.066-0.14-1.174zM26.332 20.543c0-0.637-0.071-0.982-0.187-0.911-0.103 0.063-0.187 0.577-0.187 1.142 0 0.637 0.071 0.982 0.187 0.911 0.103-0.063 0.187-0.577 0.187-1.142zM4.699 18.729c-0.139-0.139-0.198 0.079-0.198 0.741 0 1.221 0.263 1.485 0.338 0.34 0.032-0.486-0.031-0.972-0.14-1.081zM27.638 19.516c0-0.574-0.072-0.889-0.187-0.818-0.103 0.063-0.187 0.535-0.187 1.048 0 0.574 0.072 0.889 0.187 0.818 0.103-0.063 0.187-0.535 0.187-1.048zM11.499 19.562c0.547-0.228 2.817-0.432 2.604-0.234-0.098 0.091-0.808 0.216-1.578 0.278-0.807 0.065-1.241 0.046-1.026-0.043zM19.242 19.587c-0.462-0.040-0.92-0.152-1.018-0.248-0.205-0.202 2.010-0.019 2.604 0.215 0.413 0.163 0.014 0.171-1.586 0.033zM15.245 18.994c-0.287-0.3-0.723-0.595-0.968-0.657-0.485-0.122-0.604-0.679-0.213-0.991 0.652-0.52 3.608-0.47 4.149 0.070 0.329 0.329 0.185 0.763-0.304 0.918-0.201 0.064-0.616 0.361-0.922 0.66-0.701 0.686-1.085 0.685-1.742-0.001zM8.98 18.419c0-0.218 2.077-0.223 3.452-0.009 0.759 0.118 0.523 0.15-1.26 0.17-1.354 0.015-2.192-0.046-2.192-0.162zM19.895 18.41c1.375-0.214 3.452-0.209 3.452 0.009 0 0.115-0.839 0.177-2.192 0.162-1.783-0.020-2.018-0.052-1.259-0.17zM9.693 17.51c-1.198-0.167-2.241-0.367-2.317-0.444s-0.061-0.138 0.033-0.135c0.615 0.018 5.356 0.733 5.443 0.82 0.164 0.164-0.761 0.093-3.159-0.241zM19.473 17.753c0.142-0.142 5.414-0.842 5.522-0.733 0.148 0.148-0.376 0.251-2.776 0.549-2.573 0.319-2.904 0.342-2.747 0.184zM9.938 16.195c-1.357-0.468-1.977-1.112-1.977-2.053 0-1.299 1.144-2.067 3.077-2.067 1.525 0 2.516 0.313 3.285 1.039 0.506 0.477 0.627 0.733 0.627 1.329 0 1.733-2.517 2.613-5.012 1.752zM13.971 15.2c0.564-0.527 0.529-0.993-0.126-1.647-0.69-0.69-1.004-0.718-0.756-0.067 0.284 0.747 0.217 1.292-0.228 1.858l-0.41 0.521 0.55-0.137c0.302-0.075 0.739-0.313 0.97-0.528zM9.806 14.965c-0.294-0.703-0.205-1.436 0.218-1.786 0.443-0.367 0.29-0.535-0.299-0.33-0.781 0.272-1.325 1.002-1.136 1.523 0.117 0.323 1.181 1.248 1.435 1.248 0.031 0-0.067-0.295-0.217-0.655zM11.665 14.952c0.062-0.162 0.111-0.687 0.107-1.166-0.005-0.806-0.026-0.844-0.28-0.509-0.151 0.199-0.274 0.724-0.274 1.166 0 0.803 0.232 1.067 0.447 0.509zM18.497 16.256c-1.071-0.464-1.494-0.978-1.494-1.812 0-1.41 1.578-2.369 3.899-2.369 1.993 0 3.089 0.741 3.089 2.086 0 0.608-0.113 0.851-0.595 1.282-1.117 0.998-3.545 1.4-4.9 0.813zM19.037 15.262c-0.396-0.536-0.422-1.134-0.082-1.928 0.219-0.512-0.234-0.395-0.848 0.219-0.654 0.654-0.69 1.124-0.126 1.637 0.851 0.774 1.613 0.826 1.055 0.072zM23.293 14.492c0.288-0.579 0.003-1.071-0.885-1.525-0.72-0.368-0.93-0.295-0.513 0.18 0.475 0.541 0.552 1.1 0.25 1.822l-0.285 0.682 0.603-0.352c0.332-0.194 0.705-0.557 0.829-0.807zM20.732 14.547c-0.003-0.867-0.175-1.539-0.392-1.539-0.186 0-0.225 1.491-0.052 1.944 0.204 0.531 0.447 0.31 0.444-0.405zM14.764 11.235c0-0.224 0.28-0.28 1.399-0.28s1.399 0.056 1.399 0.28c0 0.224-0.28 0.28-1.399 0.28s-1.399-0.056-1.399-0.28zM5.429 9.882c-0.014-0.387 1.209-6.577 1.299-6.576 0.151 0.002 5.143 4.333 5.143 4.462 0 0.059-0.169 0.132-0.376 0.162-0.249 0.036-1.007-0.485-2.239-1.538-1.025-0.875-1.911-1.592-1.969-1.593s-0.303 1.069-0.544 2.377c-0.268 1.457-0.549 2.469-0.723 2.612-0.32 0.262-0.584 0.304-0.592 0.093zM13.294 9.854c-0.671-0.425 0.086-0.578 2.869-0.578s3.541 0.152 2.869 0.578c-0.335 0.212-5.404 0.212-5.739 0zM26.492 9.789c-0.174-0.143-0.455-1.156-0.723-2.612-0.241-1.308-0.486-2.378-0.544-2.377s-0.944 0.718-1.969 1.593c-1.123 0.959-1.997 1.57-2.2 1.538-0.185-0.030-0.314-0.138-0.285-0.24 0.055-0.2 4.837-4.382 5.013-4.384 0.090-0.001 1.314 6.189 1.299 6.576-0.008 0.21-0.272 0.169-0.592-0.093zM7.187 8.793c0.381-2.195 0.522-2.689 0.733-2.566 0.64 0.373 2.364 2.002 2.235 2.113-0.082 0.071-0.696 0.322-1.363 0.558s-1.33 0.473-1.472 0.527c-0.207 0.078-0.234-0.051-0.133-0.632zM23.819 8.882c-0.818-0.307-1.509-0.581-1.536-0.608s0.542-0.535 1.265-1.13c0.723-0.594 1.341-1.051 1.374-1.014 0.125 0.138 0.601 3.332 0.495 3.321-0.061-0.006-0.78-0.262-1.598-0.57zM15.083 8.227c-0.073-0.073-0.133-0.245-0.133-0.381 0-0.182 0.329-0.249 1.226-0.249 1.067 0 1.218 0.042 1.164 0.327-0.049 0.256-0.286 0.338-1.094 0.381-0.568 0.030-1.091-0.005-1.164-0.078z"></path>
</svg>
