<!-- Generated by IcoMoon.io -->
<svg version="1.1" xmlns="http://www.w3.org/2000/svg" width="32" height="32" viewBox="0 0 32 32">
<title>chessmen</title>
<path d="M14.957 29.683c-0.067-0.174-0.121-0.399-0.121-0.5 0-0.268 14.752-0.243 14.918 0.025 0.071 0.115 0.020 0.34-0.113 0.5-0.204 0.245-1.377 0.291-7.402 0.291-6.344 0-7.174-0.036-7.282-0.317zM14.878 28.561c-0.422-0.422-0.289-1.536 0.249-2.073 0.27-0.27 0.617-0.491 0.77-0.491 0.737 0 1.172-1.196 0.734-2.015-0.144-0.269-0.141-0.51 0.009-0.791 0.21-0.392 0.378-0.402 5.74-0.35 4.979 0.048 5.546 0.087 5.742 0.399 0.166 0.264 0.132 0.49-0.145 0.96-0.334 0.565-0.338 0.654-0.048 1.095 0.173 0.264 0.623 0.627 0.999 0.805 0.835 0.396 1.27 1.296 0.999 2.067l-0.187 0.532-7.309 0.052c-5.518 0.040-7.368-0.007-7.552-0.19zM2.759 26.264c-0.073-0.073-0.133-0.208-0.133-0.3s2.657-0.167 5.905-0.167c5.356 0 6.566 0.104 5.588 0.479-0.433 0.166-11.193 0.155-11.36-0.012zM2.511 24.91c-0.157-0.625 0.050-0.977 0.914-1.559 0.384-0.259 0.725-0.648 0.758-0.864 0.215-1.426 0.705-2.095 1.537-2.095 0.42 0 0.538-0.152 0.801-1.037 0.169-0.57 0.308-1.696 0.308-2.502v-1.465h3.143l0.124 1.551c0.068 0.853 0.242 1.957 0.388 2.452 0.219 0.746 0.356 0.912 0.8 0.963 0.744 0.087 1.551 1.101 1.551 1.949 0 0.553 0.112 0.738 0.599 0.99 0.774 0.401 1.274 1.164 1.106 1.693-0.127 0.401-0.259 0.41-6.018 0.41h-5.888zM18.338 22.469c-1.38-0.33-1.902-1.194-1.902-3.148 0-2.894 0.836-4.764 2.738-6.126 0.597-0.428 1.547-0.896 2.111-1.040 0.82-0.21 1.067-0.374 1.234-0.816 0.138-0.366 0.353-0.554 0.635-0.554 0.235 0 0.8-0.271 1.257-0.602 0.701-0.508 0.831-0.711 0.831-1.301 0-0.448-0.096-0.699-0.266-0.699-0.178 0-0.238 0.188-0.182 0.568 0.163 1.114-2.031 2.206-2.733 1.36-0.423-0.509-2.616-1.361-3.385-1.315-1.189 0.071-1.413 0.012-1.65-0.431-0.317-0.593-0.066-1.363 0.516-1.585 0.667-0.254 0.624-0.538-0.106-0.698-0.564-0.124-0.6-0.189-0.6-1.082 0-1.201 0.65-1.939 1.54-1.75 2.694 0.571 3.072 0.604 4.058 0.351 0.548-0.14 1.269-0.195 1.602-0.122 0.675 0.148 0.758 0.025 0.296-0.438-0.548-0.548-0.274-0.956 0.688-1.025 0.73-0.052 0.97 0.029 1.45 0.488 0.316 0.303 0.575 0.657 0.575 0.786s0.405 0.39 0.901 0.58c1.442 0.551 1.936 1.678 1.101 2.513-0.312 0.312-0.667 0.4-1.608 0.4-1.381 0-1.652-0.278-1.097-1.126 0.236-0.359 0.261-0.495 0.081-0.435-0.144 0.048-0.411 0.351-0.595 0.674-0.299 0.527-0.302 0.622-0.028 0.937 0.406 0.465 2.556 0.491 3.202 0.039 0.438-0.306 0.445-0.298 0.445 0.491 0 1.151-0.355 1.817-0.983 1.846-0.358 0.016-0.407 0.052-0.157 0.117 0.52 0.135 0.303 0.549-0.327 0.624-0.619 0.073-0.731 0.437-0.135 0.437 0.558 0 0.511 0.595-0.050 0.624-0.339 0.017-0.364 0.046-0.1 0.115 0.486 0.127 0.438 0.44-0.1 0.656-0.345 0.139-0.368 0.184-0.1 0.194 0.503 0.018 0.432 0.593-0.1 0.807l-0.45 0.181 0.462 0.013c0.579 0.016 0.373 0.408-0.224 0.426l-0.439 0.013 0.45 0.181c0.695 0.28 0.571 0.79-0.2 0.818l-0.651 0.024 0.598 0.128c0.867 0.186 0.91 0.776 0.065 0.88l-0.663 0.082 0.667 0.032c0.87 0.042 0.743 0.492-0.183 0.648l-0.685 0.115 0.701 0.085c0.881 0.107 0.946 0.629 0.1 0.81l-0.6 0.128 0.651 0.024c0.788 0.029 0.876 0.416 0.1 0.444-0.542 0.020-0.543 0.022-0.065 0.156 0.62 0.173 0.787 0.625 0.232 0.625-0.229 0-0.417 0.090-0.417 0.2s0.225 0.2 0.5 0.2c0.311 0 0.5 0.113 0.5 0.3 0 0.165-0.135 0.3-0.3 0.3s-0.3 0.090-0.3 0.2c0 0.11 0.171 0.2 0.379 0.2 0.841 0 0.6 1.498-0.344 2.139-0.468 0.318-1.038 0.368-4.539 0.399-2.202 0.020-4.184-0.008-4.404-0.060zM24.271 19.409c0.444-0.359 0.474-0.521 0.493-2.652 0.011-1.248 0.085-2.585 0.165-2.97l0.144-0.701-0.897 1.001c-1.011 1.128-1.634 2.791-1.634 4.361 0 1.341 0.748 1.756 1.729 0.961zM20.045 18.641c0.004-0.716 0.201-1.319 0.796-2.44 0.435-0.819 0.76-1.52 0.723-1.557-0.133-0.133-2.147 1.808-2.416 2.329-0.151 0.292-0.338 0.867-0.415 1.277-0.164 0.876 0.124 1.342 0.831 1.342 0.434 0 0.476-0.085 0.481-0.951zM24.544 7.782c-0.068-0.11-0.214-0.2-0.324-0.2s-0.145 0.090-0.076 0.2c0.068 0.11 0.214 0.2 0.324 0.2s0.145-0.090 0.076-0.2zM24.133 4.962c-0.064-0.104-0.203-0.137-0.307-0.072s-0.137 0.202-0.072 0.307c0.064 0.104 0.203 0.137 0.307 0.072s0.137-0.202 0.072-0.307zM4.498 14.685c-0.185-0.483 0.318-0.898 1.089-0.898h0.711l-0.422-0.45c-0.918-0.98-1.099-2.477-0.453-3.744 0.574-1.125 1.451-1.674 2.836-1.774 1.526-0.11 2.736 0.548 3.354 1.825 0.655 1.353 0.473 2.642-0.536 3.793-0.285 0.325-0.257 0.35 0.4 0.35 0.857 0 1.332 0.448 0.956 0.901-0.372 0.449-7.763 0.446-7.935-0.003z"></path>
</svg>
