<!-- Generated by IcoMoon.io -->
<svg version="1.1" xmlns="http://www.w3.org/2000/svg" width="32" height="32" viewBox="0 0 32 32">
<title>chilling_cold</title>
<path d="M14.635 25.857c-0.025-0.214-0.054-0.434-0.106-0.651-0.037-0.151-0.094-0.293-0.148-0.431-0.048-0.122-0.094-0.236-0.127-0.356-0.029-0.111-0.041-0.227-0.051-0.349-0.004-0.048-0.007-0.098-0.014-0.148-0.021-0.204-0.091-0.4-0.227-0.638-0.075-0.131-0.157-0.257-0.24-0.383-0.12-0.185-0.243-0.374-0.339-0.572s-0.214-0.383-0.327-0.56c-0.1-0.156-0.202-0.315-0.286-0.479-0.034-0.064-0.065-0.132-0.095-0.198-0.047-0.102-0.097-0.207-0.154-0.308-0.044-0.076-0.092-0.149-0.139-0.223-0.051-0.078-0.101-0.154-0.147-0.235-0.047-0.082-0.095-0.163-0.144-0.242-0.051-0.084-0.103-0.168-0.15-0.251l-0.040-0.073c-0.136-0.251-0.276-0.507-0.352-0.767-0.056-0.191-0.133-0.321-0.24-0.412l-0.062-0.053c-0.088-0.070-0.164-0.132-0.215-0.218-0.029-0.056-0.066-0.109-0.103-0.16l-0.038-0.060c-0.144-0.214-0.252-0.454-0.359-0.686-0.147-0.321-0.299-0.651-0.54-0.938-0.040-0.047-0.085-0.090-0.129-0.133-0.065-0.061-0.125-0.12-0.166-0.186-0.040-0.070-0.067-0.151-0.095-0.238-0.016-0.047-0.031-0.095-0.050-0.141-0.068-0.173-0.157-0.331-0.245-0.484-0.047-0.081-0.094-0.161-0.136-0.245l-0.057-0.111c-0.076-0.148-0.153-0.301-0.261-0.444-0.044-0.056-0.073-0.116-0.11-0.173 0.040-0.016 0.078-0.031 0.117-0.047 0.141-0.056 0.283-0.111 0.413-0.173 0.088-0.043 0.17-0.091 0.254-0.138 0.13-0.078 0.254-0.15 0.394-0.191 0.076-0.024 0.155-0.044 0.232-0.063 0.065-0.020 0.129-0.035 0.192-0.053 0.068-0.020 0.135-0.041 0.202-0.065 0.158-0.054 0.323-0.109 0.478-0.116 0.082-0.003 0.163 0 0.24 0.001 0.175 0.004 0.339 0.001 0.503-0.001 0.459-0.008 0.889-0.020 1.309 0.117 0.182 0.060 0.342 0.157 0.513 0.26 0.122 0.075 0.249 0.151 0.386 0.213 0.243 0.11 0.502 0.186 0.749 0.258 0.233 0.068 0.472 0.136 0.695 0.235 0.226 0.098 0.45 0.22 0.666 0.338 0.201 0.11 0.411 0.223 0.623 0.323 0.167 0.075 0.328 0.16 0.491 0.245 0.091 0.047 0.183 0.097 0.277 0.142 0.079 0.041 0.16 0.081 0.24 0.12 0.116 0.056 0.232 0.11 0.344 0.173l0.053 0.027c0.12 0.066 0.248 0.135 0.389 0.185l0.035 0.016c0.129 0.043 0.248 0.082 0.339 0.161 0.032 0.027 0.063 0.063 0.095 0.098 0.075 0.081 0.16 0.172 0.28 0.22 0.185 0.079 0.606-0.016 0.779-0.215 0.094-0.111 0.103-0.243 0.026-0.365-0.038-0.060-0.097-0.095-0.144-0.122-0.015-0.008-0.026-0.016-0.038-0.024-0.025-0.016-0.048-0.039-0.073-0.057-0.041-0.035-0.082-0.069-0.131-0.097-0.043-0.024-0.089-0.043-0.136-0.059-0.035-0.016-0.069-0.027-0.103-0.044-0.091-0.050-0.182-0.123-0.257-0.207-0.066-0.073-0.129-0.15-0.192-0.226-0.169-0.205-0.343-0.416-0.591-0.566-0.126-0.076-0.199-0.151-0.289-0.258-0.054-0.069-0.12-0.126-0.194-0.173-0.296-0.194-0.616-0.364-0.928-0.528l-0.218-0.116c-0.123-0.065-0.255-0.119-0.386-0.176-0.218-0.092-0.425-0.179-0.601-0.31l-0.063-0.051c-0.069-0.054-0.141-0.11-0.227-0.151-0.377-0.194-0.714-0.324-1.029-0.396-0.135-0.031-0.268-0.067-0.403-0.105-0.078-0.024-0.158-0.048-0.239-0.072-0.214-0.070-0.434-0.139-0.664-0.157-0.239-0.020-0.502-0.016-0.771 0.004-0.199 0.020-0.355 0.016-0.531-0.008-0.22-0.031-0.471-0.065-0.717-0.035-0.393 0.048-0.845 0.167-1.34 0.351-0.189 0.069-0.387 0.127-0.578 0.185-0.189 0.054-0.377 0.11-0.56 0.176-0.186 0.068-0.349 0.167-0.506 0.268-0.015-0.027-0.025-0.057-0.040-0.085l-0.109-0.214c-0.114-0.221-0.232-0.45-0.339-0.704-0.028-0.070-0.056-0.138-0.064-0.204-0.001-0.008-0.001-0.024-0.001-0.035 0.001-0.024 0.001-0.059-0.005-0.091-0.018-0.068-0.056-0.131-0.089-0.188-0.015-0.024-0.029-0.044-0.040-0.066l-0.15-0.289c-0.17-0.327-0.37-0.644-0.56-0.952-0.236-0.377-0.481-0.765-0.669-1.173l-0.037-0.075c-0.037-0.073-0.075-0.15-0.101-0.227-0.028-0.076-0.028-0.145-0.032-0.226-0.001-0.040-0.003-0.078-0.005-0.119-0.011-0.132-0.059-0.264-0.1-0.381l-0.021-0.054c-0.038-0.108-0.073-0.189-0.116-0.264-0.022-0.035-0.044-0.070-0.066-0.106-0.047-0.076-0.092-0.147-0.119-0.223-0.043-0.127-0.051-0.27-0.059-0.421-0.012-0.232-0.025-0.471-0.17-0.679-0.021-0.027-0.035-0.057-0.048-0.084-0.016-0.035-0.032-0.067-0.054-0.1v-0.001c-0.010-0.016-0.022-0.027-0.035-0.045-0.014-0.020-0.035-0.031-0.070-0.048-0.004-0.008-0.011-0.024-0.018-0.035-0.019-0.043-0.044-0.101-0.101-0.135-0.071-0.047-0.153-0.041-0.227-0.043-0.019-0.001-0.045-0.001-0.063-0.001 0-0.004 0.001-0.012 0.003-0.020 0.004-0.060-0.036-0.114-0.097-0.123-0.044-0.003-0.085 0.016-0.109 0.048-0.034-0.003-0.084-0.020-0.114-0.024-0.060-0.016-0.104-0.031-0.148-0.024-0.132 0.008-0.221 0.090-0.252 0.226-0.040 0.185 0.011 0.369 0.056 0.531 0.019 0.074 0.038 0.144 0.051 0.211 0.005 0.043 0.007 0.085 0.008 0.128 0.005 0.073 0.010 0.149 0.034 0.233 0.022 0.078 0.045 0.156 0.069 0.233 0.041 0.127 0.078 0.255 0.113 0.383 0.045 0.17 0.085 0.342 0.123 0.513 0.057 0.245 0.116 0.5 0.194 0.749 0.182 0.591 0.424 1.214 0.739 1.906 0.107 0.238 0.202 0.485 0.295 0.724 0.045 0.119 0.091 0.238 0.138 0.358 0.114 0.281 0.257 0.531 0.416 0.808 0.116 0.204 0.205 0.412 0.299 0.63l0.078 0.182c0.079 0.179 0.173 0.35 0.264 0.523-0.016 0.012-0.032 0.024-0.047 0.035l-0.086 0.054c-0.463 0.301-0.902 0.585-1.324 0.93l-0.057 0.046c-0.238 0.192-0.463 0.374-0.666 0.604-0.142 0.158-0.29 0.301-0.446 0.452l-0.043 0.041c-0.059 0.056-0.129 0.125-0.182 0.205-0.072-0.051-0.153-0.076-0.224-0.044-0.114 0.050-0.113 0.191-0.111 0.279-0.004 0.144 0.044 0.24 0.105 0.355 0.062 0.11 0.154 0.183 0.245 0.254 0.023 0.020 0.050 0.040 0.075 0.061 0.151 0.126 0.383 0.254 0.592 0.254h0.024c0.273-0.016 0.478-0.177 0.66-0.324 0.038-0.031 0.076-0.060 0.114-0.090 0.079-0.059 0.16-0.117 0.24-0.176 0.202-0.144 0.409-0.292 0.59-0.462 0.057-0.053 0.094-0.109 0.123-0.161 0.078-0.129 0.182-0.239 0.303-0.371 0.227-0.251 0.474-0.484 0.723-0.711 0.022 0.048 0.048 0.097 0.070 0.144 0.085 0.186 0.17 0.371 0.261 0.554 0.202 0.412 0.434 0.78 0.654 1.114 0.163 0.246 0.325 0.493 0.49 0.737 0.487 0.729 0.991 1.484 1.437 2.245 0.169 0.287 0.327 0.585 0.481 0.874 0.123 0.232 0.248 0.462 0.375 0.689 0.265 0.465 0.56 0.922 0.845 1.365l0.148 0.23c0.040 0.060 0.079 0.122 0.122 0.183 0.103 0.154 0.21 0.312 0.287 0.472 0.018 0.035 0.027 0.066 0.034 0.103 0.008 0.050 0.014 0.101 0.022 0.151 0.015 0.105 0.029 0.215 0.063 0.324l0.018 0.061c0.045 0.144 0.079 0.258 0.084 0.399 0 0.027-0.003 0.056-0.004 0.084-0.003 0.072-0.007 0.154 0.012 0.236 0.018 0.072 0.053 0.135 0.086 0.189 0.014 0.023 0.029 0.050 0.040 0.075 0.126 0.26 0.257 0.513 0.466 0.773 0.072 0.088 0.135 0.183 0.199 0.285 0.086 0.132 0.174 0.27 0.29 0.393 0.069 0.075 0.242 0.261 0.432 0.261 0.028 0 0.056-0.004 0.085-0.016 0.098-0.031 0.132-0.066 0.151-0.157l0.007-0.035c0.005-0.027 0.019-0.063 0.031-0.1 0.014-0.039 0.025-0.076 0.034-0.107 0.056-0.199 0.067-0.465 0.031-0.704l-0.025-0.194z"></path>
<path d="M28.449 15.49c-0.040-0.1-0.116-0.16-0.183-0.214-0.035-0.027-0.067-0.053-0.089-0.079-0.016-0.024-0.031-0.050-0.044-0.075-0.025-0.048-0.056-0.101-0.104-0.15-0.027-0.024-0.059-0.051-0.089-0.075l-0.034-0.027c-0.045-0.035-0.173-0.142-0.348-0.082-0.051 0.020-0.073 0.048-0.092 0.081-0.081 0.079-0.163 0.166-0.235 0.249l-0.048 0.056c-0.182 0.203-0.386 0.432-0.626 0.515-0.333 0.114-0.667 0.277-0.95 0.418-0.33 0.163-0.686 0.274-1.031 0.383-0.189 0.060-0.377 0.119-0.564 0.188-0.13 0.047-0.261 0.097-0.39 0.147-0.144 0.057-0.289 0.113-0.434 0.166-0.227 0.081-0.463 0.145-0.695 0.213 0.053-0.088 0.107-0.177 0.166-0.27l0.038-0.060c0.132-0.209 0.274-0.403 0.406-0.581 0.214-0.289 0.362-0.586 0.468-0.817 0.064-0.139 0.133-0.28 0.202-0.418 0.145-0.293 0.295-0.595 0.406-0.909 0.081-0.226 0.207-0.441 0.328-0.651l0.103-0.179c0.078-0.154 0.155-0.283 0.227-0.389l0.081-0.1c0.059-0.072 0.117-0.145 0.177-0.217 0.433-0.567 0.831-1.144 1.183-1.714l0.038-0.060c0.128-0.208 0.261-0.425 0.43-0.585 0.027-0.024 0.056-0.045 0.087-0.066 0.037-0.024 0.072-0.051 0.107-0.082 0.047-0.045 0.082-0.097 0.111-0.141 0.155-0.248 0.289-0.51 0.415-0.764l0.027-0.050c0.026-0.054 0.061-0.111 0.097-0.168 0.085-0.142 0.174-0.289 0.202-0.443 0.016-0.091-0.006-0.168-0.023-0.239-0.011-0.050-0.023-0.092-0.019-0.129 0.014-0.092 0.123-0.173 0.239-0.257 0.161-0.119 0.345-0.252 0.321-0.48l-0.010-0.1-0.1-0.001c-0.029 0-0.043-0.008-0.079-0.040-0.026-0.020-0.051-0.039-0.084-0.056-0.069-0.040-0.142-0.054-0.207-0.066-0.066-0.016-0.119-0.024-0.163-0.057-0.122-0.1-0.309-0.252-0.535-0.223-0.034 0.004-0.064 0.012-0.095 0.024-0.028 0.008-0.043 0.020-0.064 0.016-0.111 0-0.238-0.045-0.362-0.088-0.092-0.031-0.188-0.067-0.283-0.084-0.384-0.072-0.777-0.079-1.157-0.085-0.107-0.001-0.215-0.001-0.323-0.004-0.705-0.024-1.418-0.092-2.109-0.161l-0.402-0.039c-0.963-0.092-1.94-0.101-2.883-0.109l-0.45-0.004c-0.977-0.016-1.965-0.072-2.925-0.129-0.293-0.020-0.587-0.035-0.878-0.052l-0.531-0.027c-0.705-0.035-1.436-0.073-2.147-0.149-0.236-0.024-0.469-0.054-0.704-0.084-0.589-0.074-1.201-0.15-1.817-0.156-0.217 0-0.436 0.003-0.658 0.008-0.405 0.008-0.823 0.016-1.229-0.020-0.091-0.008-0.158-0.024-0.226-0.050-0.057-0.024-0.11-0.050-0.16-0.076-0.183-0.090-0.358-0.173-0.633-0.091l-0.044 0.024c-0.014 0.016-0.040 0.031-0.064 0.035-0.068-0.016-0.133-0.012-0.192 0.008-0.059 0.016-0.113 0.045-0.166 0.075-0.032 0.020-0.066 0.035-0.098 0.047-0.057 0.020-0.107 0.024-0.167 0.027-0.034 0-0.066 0.003-0.104 0.008l-0.031 0.001c-0.060 0.004-0.126 0.012-0.219 0.1-0.014 0.024-0.031 0.045-0.045 0.070-0.016 0.003-0.032 0.008-0.050 0.012l-0.051 0.016-0.022 0.050c-0.022 0.053-0.022 0.11 0.005 0.157 0.059 0.113 0.223 0.142 0.381 0.173 0.041 0.008 0.095 0.020 0.11 0.024 0.084 0.040 0.161 0.095 0.243 0.154 0.13 0.094 0.268 0.194 0.441 0.236 0.047 0.008 0.094 0.016 0.139 0.024 0.063 0.008 0.116 0.016 0.166 0.039 0.138 0.069 0.265 0.124 0.44 0.164 0.462 0.113 0.94 0.095 1.402 0.079 0.144-0.004 0.289-0.016 0.432-0.008 0.406 0 0.786 0.074 1.191 0.15 0.107 0.020 0.215 0.043 0.325 0.062 0.208 0.035 0.415 0.035 0.619 0.031 0.086 0 0.177-0.001 0.268 0.001 0.276 0.003 0.559 0.024 0.828 0.044l0.144 0.008c0.282 0.020 0.567 0.020 0.843 0.016l0.151-0.001c0.066 0 0.132 0 0.201-0.001 0.198-0.004 0.403-0.008 0.598 0.020 0.091 0.016 0.182 0.031 0.273 0.051 0.126 0.024 0.258 0.053 0.394 0.064 0.23 0.020 0.462 0.003 0.691 0.024l0.207 0.016c0.315 0.024 0.629 0.051 0.944 0.066 0.185 0.008 0.371 0.008 0.557 0.008 0.254 0 0.5-0.003 0.754-0.003 0.521-0.008 1.054-0.001 1.583-0.004 0.471 0 0.93 0.035 1.436 0.073 0.318 0.024 0.641 0.031 0.953 0.035 0.479 0.008 0.978 0.016 1.46 0.101 0.021 0.003 0.041 0.008 0.064 0.016 0.063 0.020 0.136 0.039 0.201 0.024 0.010-0.001 0.019-0.004 0.029-0.008 0.016 0.020 0.031 0.039 0.051 0.057 0.141 0.117 0.312 0.134 0.463 0.148 0.038 0.003 0.078 0.008 0.114 0.012 0.126 0.020 0.226 0.065 0.342 0.117l0.084 0.039c0.066 0.031 0.13 0.047 0.191 0.063l0.087 0.020c0.141 0.035 0.302 0.079 0.462 0.024 0.018-0.004 0.034-0.016 0.051-0.020 0.026-0.016 0.041-0.020 0.054-0.020 0.031 0.008 0.091 0.086 0.116 0.122l0.021 0.027c0.054 0.068 0.079 0.131 0.078 0.197-0.004 0.125-0.034 0.183-0.113 0.222-0.081 0.039-0.17 0.061-0.264 0.088l-0.094 0.024c-0.277 0.084-0.504 0.301-0.694 0.496-0.117 0.119-0.198 0.249-0.274 0.375l-0.064 0.104c-0.056 0.085-0.117 0.166-0.179 0.248-0.066 0.085-0.132 0.172-0.191 0.26-0.085 0.131-0.151 0.267-0.217 0.397l-0.043 0.088c-0.050 0.097-0.103 0.189-0.155 0.281-0.066 0.114-0.134 0.229-0.189 0.351l-0.011 0.024c-0.056 0.119-0.109 0.229-0.189 0.326-0.072 0.085-0.122 0.182-0.169 0.275-0.019 0.040-0.040 0.078-0.060 0.114-0.179 0.322-0.356 0.645-0.532 0.971-0.286 0.525-0.604 1.047-0.912 1.551-0.213 0.349-0.422 0.696-0.628 1.050-0.081 0.138-0.166 0.276-0.251 0.413-0.098 0.157-0.198 0.314-0.287 0.475-0.138 0.245-0.252 0.5-0.361 0.746l-0.045 0.104c-0.022 0.048-0.051 0.094-0.073 0.142-0.089 0.016-0.177 0.039-0.267 0.044-0.276 0.020-0.559 0.027-0.834 0.031l-0.257 0.004c-0.356 0.004-0.691 0.016-1.010-0.109-0.274-0.138-0.55-0.277-0.827-0.422-0.091-0.044-0.179-0.085-0.268-0.126l-0.138-0.063c-0.284-0.129-0.566-0.258-0.849-0.389-0.512-0.235-1.040-0.477-1.565-0.704-0.135-0.059-0.273-0.114-0.409-0.172-0.062-0.024-0.125-0.050-0.186-0.076-0.011-0.031-0.038-0.063-0.082-0.098l-0.031-0.031c-0.044-0.050-0.081-0.085-0.176-0.111-0.131-0.035-0.264-0.031-0.392-0.031h-0.254c-0.16 0-0.32 0.003-0.48 0h-0.014c-0.258 0-0.469 0.065-0.639 0.203-0.085 0.069-0.211 0.17-0.237 0.296-0.010 0.044-0.007 0.090-0.003 0.132l0.001 0.035c0 0.031-0.001 0.059-0.001 0.087-0.001 0.079-0.004 0.16 0.016 0.254 0.014 0.041 0.021 0.085 0.025 0.132-0.001 0.016-0.003 0.031-0.004 0.052l-0.003 0.035 0.014 0.031c0.018 0.057 0.060 0.073 0.094 0.088 0.076 0.035 0.192 0.023 0.292 0.016 0.032-0.003 0.062-0.004 0.085-0.004l0.387-0.001c0.104 0 0.207-0.004 0.306 0.020 0.117 0.023 0.232 0.044 0.35 0.063 0.107 0.016 0.211 0.069 0.32 0.126 0.094 0.048 0.191 0.1 0.299 0.129 0.079 0.023 0.158 0.043 0.236 0.064 0.147 0.035 0.293 0.073 0.438 0.122 0.1 0.031 0.195 0.072 0.296 0.117 0.090 0.041 0.18 0.081 0.276 0.114 0.057 0.020 0.116 0.035 0.177 0.053 0.088 0.027 0.173 0.051 0.245 0.085 0.095 0.047 0.179 0.122 0.267 0.2 0.029 0.027 0.063 0.059 0.095 0.086 0.142 0.116 0.296 0.198 0.443 0.276 0.075 0.040 0.151 0.079 0.224 0.123 0.061 0.035 0.123 0.073 0.182 0.113 0.148 0.092 0.302 0.191 0.477 0.26 0.069 0.027 0.136 0.060 0.204 0.091 0.11 0.051 0.223 0.102 0.343 0.142 0.066 0.023 0.132 0.043 0.196 0.063 0.113 0.035 0.226 0.069 0.339 0.113 0.257 0.094 0.523 0.176 0.842 0.255 0.151 0.039 0.312 0.060 0.482 0.073-0.109 0.188-0.215 0.377-0.324 0.56-0.148 0.248-0.296 0.497-0.438 0.748-0.051 0.090-0.103 0.177-0.155 0.265-0.215 0.365-0.437 0.743-0.573 1.158-0.175 0.537-0.499 1.037-0.811 1.519-0.132 0.208-0.267 0.413-0.389 0.623-0.040 0.064-0.078 0.129-0.117 0.191-0.084 0.135-0.172 0.274-0.242 0.424-0.022 0.041-0.037 0.090-0.054 0.138-0.028 0.075-0.054 0.155-0.095 0.194-0.008 0.008-0.028 0.016-0.047 0.023-0.031 0.008-0.066 0.023-0.104 0.048-0.084 0.060-0.113 0.151-0.136 0.223-0.005 0.016-0.011 0.035-0.018 0.053-0.036 0.085-0.076 0.161-0.126 0.233-0.088 0.136-0.157 0.279-0.22 0.418l-0.032 0.064-0.060 0.122c-0.066 0.129-0.133 0.265-0.173 0.413l-0.016 0.056c-0.026 0.101-0.053 0.197-0.091 0.297l-0.024 0.054c-0.019 0.053-0.041 0.105-0.053 0.161-0.010 0.057-0.008 0.111-0.007 0.163 0 0.035 0 0.066-0.003 0.102-0.004 0.040-0.010 0.076-0.015 0.114-0.010 0.067-0.022 0.138-0.019 0.213 0.001 0.12 0.022 0.154 0.103 0.224 0.072 0.064 0.139 0.088 0.207 0.111 0.019 0.008 0.040 0.016 0.060 0.023 0.040 0.020 0.075 0.023 0.109 0.023 0.081 0 0.135-0.044 0.177-0.079l0.12-0.086c0.079-0.056 0.161-0.113 0.239-0.191 0.026-0.027 0.057-0.053 0.088-0.079 0.067-0.057 0.139-0.119 0.191-0.201 0.015-0.023 0.029-0.050 0.044-0.076 0.023-0.044 0.048-0.086 0.072-0.114 0.006-0.004 0.018-0.008 0.034-0.016 0.019-0.008 0.045-0.020 0.075-0.043 0.038-0.031 0.070-0.069 0.103-0.107 0.021-0.023 0.041-0.048 0.063-0.067 0.014-0.016 0.028-0.020 0.041-0.027 0.045-0.031 0.114-0.070 0.142-0.16 0.014-0.044 0.016-0.085 0.021-0.123 0.001-0.027 0.004-0.059 0.014-0.085 0.015-0.047 0.025-0.094 0.037-0.141 0.015-0.059 0.028-0.116 0.047-0.172 0.043-0.111 0.123-0.222 0.202-0.328l0.072-0.098c0.029-0.043 0.062-0.085 0.094-0.127 0.082-0.111 0.169-0.226 0.23-0.353 0.021-0.043 0.041-0.085 0.060-0.127 0.041-0.092 0.082-0.18 0.132-0.26 0.037-0.057 0.079-0.111 0.12-0.167 0.075-0.097 0.15-0.199 0.207-0.32 0.016-0.035 0.037-0.070 0.054-0.104 0.026-0.046 0.051-0.092 0.072-0.138 0.028-0.067 0.043-0.136 0.056-0.201 0.007-0.035 0.014-0.064 0.022-0.095 0.014-0.050 0.027-0.101 0.037-0.151 0.031-0.122 0.062-0.248 0.106-0.363l0.041-0.103c0.072-0.188 0.141-0.363 0.166-0.572 0.014-0.086 0.019-0.103 0.066-0.186 0.085-0.142 0.151-0.301 0.207-0.438 0.097-0.245 0.233-0.466 0.378-0.704 0.043-0.068 0.084-0.139 0.125-0.208 0.126-0.211 0.274-0.416 0.416-0.614 0.17-0.235 0.343-0.477 0.485-0.734 0.173-0.311 0.387-0.587 0.611-0.871 0.384-0.056 0.726-0.173 1.095-0.314 0.176-0.069 0.365-0.123 0.547-0.175 0.213-0.060 0.433-0.12 0.644-0.213 0.144-0.060 0.283-0.128 0.424-0.195 0.13-0.063 0.262-0.126 0.396-0.185 0.192-0.086 0.393-0.16 0.591-0.23l0.213-0.079c0.547-0.198 1.056-0.425 1.481-0.622 0.064-0.031 0.131-0.056 0.195-0.085 0.166-0.069 0.337-0.141 0.497-0.242 0.16-0.098 0.289-0.222 0.413-0.339l0.038-0.035c0.126-0.119 0.252-0.224 0.387-0.323 0.029-0.020 0.060-0.041 0.091-0.062 0.094-0.060 0.196-0.129 0.265-0.24 0.082-0.135 0.192-0.421 0.109-0.629z"></path>
<path d="M8.311 11.211l0.050-0.003c0.044-0.001 0.085-0.003 0.127-0.003 0.016 0 0.029 0.001 0.051 0 0.204 0 0.388-0.048 0.61-0.157 0.051-0.027 0.101-0.056 0.155-0.088 0.129-0.072 0.263-0.149 0.394-0.158 0.021-0.001 0.066 0.008 0.11 0.027 0.040 0.016 0.078 0.027 0.117 0.035 0.054 0.008 0.1 0.008 0.145 0.004 0.195-0.016 0.424-0.056 0.674-0.123 0.125-0.035 0.248-0.076 0.37-0.119 0.1-0.035 0.199-0.072 0.302-0.101 0.457-0.132 0.889-0.065 1.346 0.008l0.196 0.031c0.381 0.059 0.757 0.123 1.111 0.265 0.136 0.057 0.27 0.131 0.4 0.202 0.097 0.053 0.195 0.107 0.296 0.154 0.069 0.035 0.139 0.065 0.21 0.095 0.063 0.031 0.126 0.057 0.188 0.085 0.148 0.073 0.296 0.147 0.446 0.22 0.164 0.082 0.328 0.164 0.494 0.242 0.119 0.057 0.239 0.12 0.356 0.183 0.201 0.105 0.408 0.214 0.623 0.299l0.114 0.047c0.243 0.098 0.496 0.201 0.754 0.275 0.375 0.11 0.752 0.156 1.107 0.194l0.056 0.004c0.342 0.035 0.689 0.069 1.034 0.069 0.271 0 0.538-0.020 0.802-0.081 0.21-0.048 0.399-0.101 0.588-0.269 0.044-0.039 0.12-0.119 0.123-0.22 0.004-0.098-0.051-0.161-0.087-0.204-0.011-0.016-0.025-0.027-0.032-0.041-0.026-0.043-0.045-0.088-0.066-0.131-0.041-0.090-0.084-0.183-0.158-0.26-0.057-0.057-0.11-0.102-0.23-0.047-0.139 0.051-0.251 0.088-0.394 0.078-0.094 0-0.186 0.001-0.281 0.003-0.302 0.008-0.585 0.016-0.859-0.070-0.232-0.073-0.444-0.186-0.673-0.308l-0.18-0.094c-0.126-0.065-0.254-0.116-0.381-0.167-0.072-0.031-0.145-0.057-0.217-0.090-0.104-0.044-0.211-0.085-0.32-0.126l-0.059-0.024c-0.292-0.113-0.578-0.224-0.841-0.347l-0.113-0.053c-0.078-0.035-0.155-0.073-0.233-0.111-0.054-0.031-0.106-0.063-0.158-0.094-0.116-0.072-0.238-0.145-0.374-0.195-0.32-0.113-0.639-0.214-0.959-0.317l-0.048-0.016c-0.104-0.035-0.21-0.070-0.314-0.107-0.215-0.076-0.44-0.156-0.671-0.207-0.073-0.016-0.145-0.035-0.219-0.051-0.257-0.065-0.521-0.129-0.79-0.136-0.202-0.008-0.411-0.004-0.614-0.003l-0.255 0.001-0.123-0.001c-0.204 0.001-0.424-0.003-0.639 0.031-0.048 0.008-0.095 0.008-0.144 0.008-0.069 0.003-0.139 0.004-0.208 0.020-0.051 0.008-0.101 0.027-0.151 0.043-0.053 0.016-0.106 0.031-0.158 0.041-0.251 0.041-0.5 0.104-0.812 0.199-0.158 0.050-0.303 0.125-0.444 0.199-0.188 0.095-0.362 0.186-0.556 0.214l-0.070 0.008c-0.094 0.012-0.201 0.024-0.299 0.088-0.312 0.194-0.62 0.663-0.561 1.029l0.014 0.076 0.073 0.020c0.070 0.016 0.15 0.024 0.258 0.020z"></path>
</svg>
