<!-- Generated by IcoMoon.io -->
<svg version="1.1" xmlns="http://www.w3.org/2000/svg" width="32" height="32" viewBox="0 0 32 32">
<title>class_seeker</title>
<path fill="#394852" d="M19.9 4.513l-0.8 1.388c3.93 2.269 5.269 7.27 3 11.2s-7.27 5.269-11.2 3l-0.8 1.387c1.299 0.75 2.695 1.098 4.1 1.209v1.503h-4.2v1.6h10v-1.6h-4.2v-1.616c3.087-0.264 6.024-1.804 7.688-4.684 2.701-4.679 1.092-10.686-3.587-13.387zM15 6.2c-2.209 0-4.181 1.059-5.422 2.697-0.863 1.14-1.378 2.566-1.378 4.103 0 3.746 3.054 6.8 6.8 6.8 2.359 0 4.448-1.209 5.666-3.041 0.716-1.077 1.134-2.373 1.134-3.759 0-3.746-3.054-6.8-6.8-6.8zM15 7.8c2.881 0 5.2 2.319 5.2 5.2 0 0.758-0.326 1.397-0.616 2.044l-8.078-5.728c0.931-0.883 2.104-1.516 3.494-1.516zM10.594 10.631l8.156 5.781c-0.95 1.041-2.224 1.788-3.75 1.788-2.881 0-5.2-2.319-5.2-5.2 0-0.892 0.4-1.638 0.794-2.369z"></path>
</svg>
