<!-- Generated by IcoMoon.io -->
<svg version="1.1" xmlns="http://www.w3.org/2000/svg" width="32" height="32" viewBox="0 0 32 32">
<title>class_mystic</title>
<path fill="#394852" d="M15.991 14.2c-3.762 0-7.092 2.706-7.778 6.497l-0.063 0.35 0.213 0.278c1.821 2.387 4.8 3.475 7.628 3.475 2.818 0 5.832-1.072 7.647-3.478l0.212-0.278-0.063-0.347c-0.681-3.759-4-6.497-7.797-6.497zM15.991 15.8c0.761 0 1.545 0.401 2.138 1.038s0.959 1.486 0.959 2.231c0 1.601-1.089 3.144-3.097 3.144-2.006 0-3.097-1.555-3.097-3.144 0-0.754 0.372-1.602 0.969-2.238s1.382-1.031 2.128-1.031zM12.072 17.219c-0.297 0.616-0.778 1.157-0.778 1.85 0 1.325 0.617 2.602 1.619 3.512-1.139-0.413-2.125-1.063-2.916-1.953 0.347-1.367 1.031-2.575 2.075-3.409zM19.919 17.225c1.052 0.84 1.739 2.046 2.084 3.406-0.788 0.894-1.788 1.541-2.938 1.953 1.004-0.91 1.622-2.184 1.622-3.516 0-0.687-0.475-1.229-0.769-1.844z"></path>
<path fill="#394852" d="M16 4.484l-0.678 1.094-12.884 20.722h27.125zM16 7.513l10.684 17.188h-21.369z"></path>
</svg>
