<!-- Generated by IcoMoon.io -->
<svg version="1.1" xmlns="http://www.w3.org/2000/svg" width="24" height="32" viewBox="0 0 24 32">
<title>cleanup_crew</title>
<path d="M9.915 6.577c-0.285 0-0.664-0.090-0.851 0.152-0.341 0.438 0.118 0.46 0.41 0.533 0.481 0.12 0.937 0.184 1.446 0.139 0.574-0.050 1.102-0.24 1.673-0.214 0.395 0.019 0.742 0.066 1.124 0.12 0.347 0.047 0.634 0.071 0.859-0.242 0.544-0.754-1.217-0.562-1.558-0.513-0.68 0.097-1.315 0.155-1.995 0.055-0.279-0.041-0.905-0.22-1.129-0.004 0.024 0.009 0.060-0.003 0.021-0.024z"></path>
<path d="M18.389 26.16c-0.59 0.032-1.163 0.121-1.76 0.093-1.276-0.059-2.559 0.006-3.832 0.007-1.362 0.003-2.724 0.049-4.087 0.061-0.593 0.004-2.721 0.308-2.941-0.475-0.136-0.484-0.052-1.111-0.050-1.61 0-0.609-0.007-1.219-0.018-1.828-0.021-1.244-0.055-2.488-0.055-3.732 0-1.458-0.181-2.933-0.105-4.359 0.021-0.378 0.031-0.75 0.063-1.126 0.016-0.186 0.087-0.652 0.131-0.829 0.043-0.168 0.391-0.416 0.391-0.416l2.519 0.022c0 0 1.453-0.089 2.182-0.087 0.447 0 2.19-0.050 2.646 0.025 0.298 0.050 2.054 0.037 2.638 0.078 0.477 0.034 1.611-0.102 1.959 0.258 0.254 0.264 0.204 0.81 0.196 1.145-0.019 0.937 0 1.877 0 2.815-0.001 0.919 0.029 1.838 0.029 2.759 0 2.408 0.227 4.787 0.091 7.198zM19.225 19.315c0-1.008-0.035-2.024-0.001-3.032 0.040-1.135-0.050-2.243-0.063-3.385-0.010-0.853-0.398-1.983-0.983-2.576-0.39-0.394-0.946-0.487-1.468-0.571-0.54-0.087-1.018-0.242-1.54-0.393-0.654-0.19-0.825-0.646-0.888-1.297-0.077-0.797 0.068-1.586-0.080-2.387 0.186 0.009 0.555-0.263 0.606-0.444 0.221-0.778-1.666-0.584-2.030-0.601-0.817-0.035-1.067-0.071-1.89-0.072-0.454 0-2.159-0.173-2.125 0.589 0.016 0.397 0.398 0.388 0.651 0.556 0.015 0.010 0.028 0.019 0.040 0.029 0.111 0.089-0.043 1.040-0.053 1.186-0.037 0.509-0.066 1.018-0.099 1.527-0.021 0.308-0.106 0.637-0.41 0.779-0.221 0.103-0.595 0.248-0.837 0.305-0.544 0.13-1.924 0.329-2.327 0.75-0.544 0.571-0.757 1.641-0.947 2.381-0.224 0.869-0.27 1.796-0.27 2.69 0 1.021-0.056 2.063-0.001 3.082 0.052 0.986 0.187 1.973 0.232 2.958 0.047 1.055-0.001 2.123-0.001 3.18 0 0.552 0.072 1.099 0.12 1.648 0.040 0.469-0.047 0.937 0.012 1.391 0.158 1.254 0.922 2.17 2.132 2.5 0.539 0.146 1.055 0.354 1.601 0.471 0.789 0.167 1.608 0.229 2.407 0.326 1.263 0.152 2.544 0.103 3.808-0.022 1.148-0.114 2.486-0.36 3.389-1.151 1.217-1.065 0.822-3.178 0.822-4.61 0-0.919-0.058-1.862 0.032-2.775 0.1-1.018 0.164-2.010 0.164-3.034z"></path>
<path d="M11.836 11.209l-1.551 1.394-0.987 1.068-1.089 0.983-1.421 1.715-1.332 1.791-0.391 0.422 1.080 1.838 1.415 1.568 1.129 1.781 1.447 1.537 1.402 1.027 0.643 0.664 1.058-1.278 1.996-1.428 1.748-1.993 0.726-1.712 0.99-1.548-0.732-1.446-1.011-1.279-0.876-1.371-1.13-1.155-1.148-0.804-0.968-1.046zM11.868 11.859l0.629 0.459 0.971 1.049 1.154 0.809 1.061 1.085 0.848 1.325 0.013 0.022 0.016 0.019 0.978 1.239 0.578 1.144-0.834 1.304-0.024 0.035-0.016 0.040-0.694 1.638-1.657 1.887-2.002 1.433-0.041 0.050-0.698 0.843-0.251-0.258-0.030-0.031-0.034-0.025-1.363-0.999-1.384-1.468-1.126-1.776-0.029-0.032-1.38-1.53-0.863-1.47 0.136-0.145 0.018-0.021 0.018-0.022 1.324-1.781 1.39-1.676 1.077-0.974 0.016-0.018 0.971-1.051z"></path>
<path d="M11.508 17.866c0.004 0.032 0.009 0.081 0.015 0.111 0.021 0.102 0.143 0.084 0.252 0.071 0.124-0.013 0.26-0.037 0.384-0.024 0.109 0.012 0.249 0.041 0.258-0.062 0.006-0.066-0.030-0.155-0.044-0.22-0.040-0.177-0.118-0.375-0.249-0.509-0.075-0.078-0.238-0.069-0.313 0.009-0.018 0.018-0.062 0.022-0.077 0.041-0.128 0.158-0.204 0.388-0.226 0.583zM13.192 17.545c0.028 0 0.062 0.001 0.090 0 0.218-0.013 0.331-0.217 0.372-0.41 0.019-0.090-0.004-0.168-0.013-0.26-0.010-0.136 0.022-0.322-0.122-0.372-0.050-0.018-0.112-0.012-0.164-0.027-0.235-0.071-0.509-0.127-0.748-0.050-0.115 0.037-0.245 0.134-0.308 0.233-0.090 0.139-0.072 0.361 0.016 0.485 0.189 0.266 0.544 0.39 0.878 0.4zM10.74 17.559c0.109-0.019 0.23-0.032 0.328-0.059 0.254-0.071 0.382-0.302 0.488-0.534 0.068-0.146 0.028-0.199-0.1-0.304-0.077-0.062-0.099-0.242-0.198-0.263-0.303-0.063-0.621 0.035-0.89 0.165-0.074 0.035-0.171 0.108-0.195 0.18-0.047 0.137-0.032 0.316 0.007 0.453 0.034 0.119 0.145 0.276 0.266 0.319 0.084 0.031 0.208 0.024 0.294 0.043zM14.011 15.511c0.001 0.249-0.038 0.46-0.118 0.688-0.035 0.097 0.083 0.189 0.125 0.283 0.078 0.174 0.156 0.381 0.142 0.573-0.025 0.294-0.285 0.432-0.571 0.564-0.075 0.035-0.136 0.096-0.215 0.124-0.118 0.043-0.246 0.136-0.289 0.248-0.041 0.112-0.071 0.218-0.127 0.325-0.164 0.301-0.418 0.395-0.754 0.499-0.412 0.127-1.068-0.047-1.282-0.559-0.035-0.087-0.179-0.133-0.211-0.221-0.038-0.106-0.016-0.274-0.128-0.319-0.108-0.043-0.267 0.024-0.367-0.032-0.248-0.137-0.314-0.388-0.333-0.649-0.013-0.184 0.046-0.338 0.121-0.506 0.046-0.099-0.047-0.189-0.084-0.292-0.089-0.245-0.171-0.525-0.158-0.785 0.022-0.425 0.331-0.755 0.698-0.999 0.317-0.211 0.692-0.264 1.073-0.333 0.578-0.103 1.082 0.013 1.607 0.242 0.248 0.108 0.496 0.183 0.661 0.39 0.183 0.23 0.224 0.481 0.212 0.763z"></path>
<path d="M10.989 19.928c-0.111-0.044-0.155-0.174-0.255-0.217-0.372-0.161-0.742-0.331-1.111-0.494-0.198-0.087-0.4-0.021-0.626-0.015-0.193 0.006-0.338-0.199-0.496-0.292-0.249-0.148-0.372-0.366-0.269-0.543 0.028-0.049 0.139-0.086 0.202-0.106 0.15-0.050 0.303-0.080 0.39-0.183 0.134-0.159 0.314-0.372 0.544-0.328 0.14 0.027 0.274 0.187 0.32 0.292 0.024 0.053-0.052 0.148-0.034 0.201 0.065 0.187 0.31 0.226 0.499 0.359 0.521 0.367 1.033 0.778 1.725 0.925 0.050 0.010 0.109-0.071 0.161-0.083 0.66-0.139 1.194-0.416 1.701-0.758 0.229-0.153 0.375-0.289 0.449-0.512 0.009-0.028 0.202 0.007 0.212-0.021 0.052-0.143 0.043-0.375 0.236-0.395 0.195-0.021 0.341 0.162 0.456 0.279 0.022 0.022 0.127-0.029 0.146-0.007 0.065 0.078 0.094 0.156 0.21 0.187 0.171 0.047 0.266 0.179 0.285 0.304 0.047 0.319-0.28 0.664-0.71 0.657-0.31-0.004-0.62-0.124-0.884-0.001-0.398 0.184-0.828 0.308-1.235 0.481-0.025 0.010-0.093 0.069-0.127 0.083 0.018 0.007 0.103 0.153 0.114 0.156 0.512 0.152 1.039 0.248 1.552 0.397 0.255 0.074 0.521 0.025 0.795 0.013 0.23-0.009 0.465 0.119 0.505 0.261 0.015 0.058-0.139 0.142-0.134 0.202 0.003 0.049 0.17 0.043 0.193 0.087 0.153 0.291-0.171 0.62-0.589 0.642-0.195 0.009-0.413 0.065-0.593 0.007-0.028-0.010 0.019-0.148 0.007-0.171-0.018-0.034-0.035-0.058-0.046-0.094-0.059-0.21-0.282-0.266-0.537-0.367-0.443-0.179-0.834-0.509-1.309-0.636-0.235-0.063-0.509 0.028-0.747-0.031-0.027-0.006-0.047-0.096-0.075-0.090-0.48 0.112-0.94 0.276-1.391 0.443-0.26 0.094-0.53 0.153-0.782 0.257-0.232 0.096-0.369 0.271-0.404 0.457-0.021 0.115-0.087 0.028-0.22 0.050-0.187 0.031-0.369 0.3-0.562 0.264-0.333-0.061-0.353-0.4-0.226-0.586 0.038-0.055 0.078-0.238 0.066-0.302-0.041-0.208-0.015-0.462 0.283-0.45 0.314 0.013 0.595 0.046 0.885-0.040 0.475-0.142 0.941-0.319 1.416-0.46 0.013-0.004-0.016 0.189 0.007 0.18z"></path>
<path d="M9.214 22.254c0.243 0.027 0.503 0.119 0.736 0.118 0.676-0.001 1.285-0.052 1.961 0.007 0.692 0.061 1.394 0.072 2.088 0.001 0.294-0.031 0.595-0.050 0.897-0.034 0.012 0.090 0.015 0.204 0 0.294-0.46 0.012-0.913 0.094-1.387 0.094-0.543 0-1.083-0.006-1.622-0.029-0.559-0.025-1.116 0.050-1.675 0.065-0.347 0.010-0.909 0.097-1.235 0.012-0.006-0.046-0.037-0.522-0.006-0.527 0.078-0.012 0.159-0.010 0.242-0.001z"></path>
<path d="M10.329 23.311c0.155 0.103 0.803 0.013 1.058 0.001 0.367-0.016 0.661 0.055 1.014 0.061 0.742 0.010 1.445-0.243 2.162-0.208 0.031 0.096 0.066 0.205 0.091 0.292-0.834 0.027-1.697 0.208-2.539 0.277-0.604 0.050-1.217-0.142-1.81-0.034-0.053-0.133-0.041-0.286 0.024-0.407 0.025 0.031 0.030 0 0.001 0.018z"></path>
<path d="M9.413 1.982c0.019 0.518 0.277 1.046 0.342 1.571 0.025 0.196 0.035 0.407 0.041 0.618 0.121-0.007 0.248-0.013 0.388-0.013 0.181 0 0.351 0.007 0.488 0.012 0.086 0.003 0.159 0.006 0.214 0.006 0.574 0 0.881 0.018 1.269 0.040 0.18 0.010 0.381 0.022 0.637 0.032 0.012 0.001 0.025 0.001 0.040 0.001 0.053 0 0.121-0.001 0.201-0.004 0.12-0.003 0.263-0.007 0.416-0.007 0.195 0 0.364 0.007 0.522 0.022 0.078-0.313 0.155-0.634 0.242-0.938 0.094-0.335 0.26-0.615 0.364-0.94 0.142-0.438-0.030-0.364-0.294-0.593-0.333-0.289-0.639-0.571-1.073-0.612-0.57-0.055-1.108-0.199-1.675-0.176-0.514 0.022-0.981 0.071-1.471 0.35-0.227 0.128-0.751 0.254-0.677 0.651 0.004-0.015 0.012-0.021 0.024-0.019z"></path>
</svg>
