<!-- Generated by IcoMoon.io -->
<svg version="1.1" xmlns="http://www.w3.org/2000/svg" width="32" height="32" viewBox="0 0 32 32">
<title>clover</title>
<path d="M16 0c0 0-0 0-0 0-8.837 0-16 7.163-16 16 0 0 0 0 0 0v0c0 8.837 7.163 16 16 16 0 0 0 0 0 0v0c8.837-0 16-7.163 16-16v0c0 0 0-0 0-0 0-8.837-7.163-16-16-16v0zM10.876 5.845h0c2.176 0 4.106 1.051 5.311 2.673l0.013 0.018c1.217-1.381 2.99-2.248 4.965-2.249h0c3.652 0 6.613 2.961 6.613 6.613v0c-0.003 3.177-2.245 5.829-5.233 6.464l-0.043 0.008c0.177 0.57 0.28 1.224 0.28 1.903 0 0.001 0 0.001 0 0.002v-0c-0 3.652-2.961 6.613-6.613 6.613h-0c-3.652-0-6.613-2.961-6.613-6.613v0c0.002-0.816 0.151-1.596 0.422-2.316l-0.015 0.046c-3.237-0.465-5.697-3.218-5.698-6.546v-0c0-3.652 2.961-6.613 6.613-6.613v0z"></path>
</svg>
