<!-- Generated by IcoMoon.io -->
<svg version="1.1" xmlns="http://www.w3.org/2000/svg" width="32" height="32" viewBox="0 0 32 32">
<title>compass</title>
<path d="M13.881 7.361l-1.036 0.603 1.113 1.912-4.798-0.291 2.242 3.848 1.037-0.605-1.114-1.912 4.798 0.292-2.242-3.848zM19.242 19.367c-0.557-0.083-1.107 0.058-1.57 0.328s-0.855 0.678-1.058 1.203c-0.203 0.525-0.178 1.177 0.158 1.753l0.186 0.32 0.37-0.025c1.339-0.086 2.005-0.319 3.033-0.448 0.005 0.11 0.077 0.236 0.036 0.342-0.086 0.222-0.286 0.449-0.542 0.598s-0.554 0.213-0.789 0.178c-0.235-0.035-0.418-0.131-0.586-0.419l-1.038 0.605c0.336 0.576 0.89 0.919 1.447 1.002s1.105-0.058 1.569-0.328c0.464-0.27 0.857-0.678 1.059-1.203s0.178-1.177-0.158-1.753l-0.186-0.32-0.37 0.023c-1.339 0.086-2.005 0.321-3.034 0.45-0.005-0.11-0.077-0.236-0.036-0.342 0.086-0.222 0.287-0.449 0.544-0.598s0.554-0.213 0.789-0.178c0.235 0.035 0.418 0.131 0.586 0.419l1.036-0.605c-0.336-0.576-0.889-0.919-1.445-1.002z"></path>
<path d="M9.625 2.866l-3.333 2.666 0.75 0.938 3.333-2.667-0.75-0.936zM16 4.733c-3.568 0-6.416 1.259-8.342 3.314s-2.925 4.878-2.925 7.953c0 3.075 0.999 5.898 2.925 7.953s4.774 3.314 8.342 3.314c3.568 0 6.416-1.259 8.342-3.314s2.925-4.878 2.925-7.953c0-3.075-0.999-5.898-2.925-7.953s-4.774-3.314-8.342-3.314zM16 5.933c3.289 0 5.774 1.129 7.467 2.934s2.6 4.317 2.6 7.133c0 2.816-0.907 5.327-2.6 7.133s-4.178 2.934-7.467 2.934c-3.289 0-5.774-1.129-7.467-2.934s-2.6-4.317-2.6-7.133c0-2.816 0.907-5.327 2.6-7.133s4.178-2.934 7.467-2.934zM4.597 18.6l-1.194 0.133c0.695 6.259 5.468 11.2 12.597 11.2s11.901-4.941 12.597-11.2l-1.194-0.133c-0.638 5.741-4.818 10.133-11.403 10.133s-10.765-4.392-11.403-10.133z"></path>
<path d="M20.323 7.745l-6.563 6.609 0.425 0.423-0.589-0.116-1.77 9.020 6.564-6.611-0.425-0.422 0.587 0.116 1.77-9.020zM23.667 10.834l-2 1.333 0.666 0.998 2-1.333-0.666-0.998zM18.383 11.403l-0.856 4.359-2.328-1.153 3.184-3.206zM14.623 15.664l2.328 1.153-3.184 3.208 0.856-4.361zM6.667 16.050v1.2h2.666v-1.2h-2.666zM22 16.050v1.2h2.667v-1.2h-2.667zM10.242 18.909l-2 2 0.848 0.848 2-2-0.848-0.848z"></path>
</svg>
