<!-- Generated by IcoMoon.io -->
<svg version="1.1" xmlns="http://www.w3.org/2000/svg" width="32" height="32" viewBox="0 0 32 32">
<title>congress_of_the_keys</title>
<path d="M21.734 21.89c-0.139 0.251-0.431 0.55-0.602 0.805-0.319 0.479-0.871 0.737-1.363 0.999-0.782 0.416-1.535 0.641-2.402 0.562-0.796-0.074-1.59-0.108-2.367-0.293-0.575-0.136-1.102-0.41-1.656-0.604-0.492-0.175-1.109-0.034-1.554-0.261-0.499-0.253-0.895-0.567-1.35-0.949-0.269-0.225-0.487-0.348-0.667-0.659-0.128-0.227-0.139-0.248-0.325-0.385-0.16-0.118-0.23-0.117-0.316-0.308-0.094-0.204-0.053-0.453-0.157-0.66-0.13-0.261-0.309-0.278-0.495-0.479-0.393-0.427-0.4-1.217-0.413-1.76-0.018-0.829-0.191-1.68-0.293-2.509-0.060-0.489-0.147-0.796-0.042-1.29 0.092-0.434 0.197-0.845 0.327-1.266 0.201-0.659 0.537-1.407 0.881-2.004 0.252-0.437 0.691-0.771 1.085-1.070 0.185-0.141 0.466-0.429 0.722-0.486 0.019-0.036 0.062-0.084 0.11-0.126 0.424-0.366 0.974-0.385 1.499-0.384 0.874 0.003 1.713-0.202 2.6-0.141 0.947 0.066 1.905 0.231 2.842 0.382 1.091 0.173 1.952 0.811 2.786 1.488 0.664 0.537 0.981 1.065 1.356 1.841 0.23 0.473 0.631 0.86 0.735 1.373 0.027 0.139-0.006 0.219 0.065 0.345 0.042 0.076 0.18 0.044 0.228 0.118 0.096 0.149 0.112 0.542 0.133 0.727 0.052 0.473 0.052 0.966 0.099 1.434 0.066 0.685 0.183 1.316 0.040 1.999-0.079 0.389-0.249 0.712-0.333 1.101-0.071 0.332-0.206 0.688-0.367 0.997-0.147 0.282-0.369 0.477-0.508 0.769-0.11 0.233-0.173 0.471-0.296 0.694zM24.932 14.737c-0.502-1.386-0.986-2.938-1.91-4.103-0.256-0.322-0.579-0.503-0.884-0.771-0.371-0.325-0.673-0.803-0.963-1.191-0.22-0.293-0.355-0.104-0.605-0.246-0.063-0.036-0.16-0.254-0.264-0.329-0.55-0.4-1.182-0.371-1.866-0.401-0.434-0.019-0.928 0.068-1.342-0.096-0.444-0.178-0.714-0.439-1.221-0.494-1.62-0.181-3.226 0.201-4.791 0.573-0.602 0.142-1.165 0.248-1.654 0.592-0.256 0.181-0.452 0.259-0.424 0.325-0.534-0.074-1.368 0.664-1.603 1.101-0.118 0.219-0.138 0.476-0.259 0.703-0.275 0.512-0.609 0.916-0.74 1.496-0.125 0.552-0.335 1.051-0.492 1.593-0.159 0.547-0.173 1.141-0.215 1.708-0.039 0.494-0.011 0.898 0.133 1.374 0.186 0.615 0.262 1.277 0.261 1.915-0.002 0.529 0.246 0.874 0.403 1.378 0.071 0.23 0.073 0.512 0.178 0.727 0.107 0.222 0.348 0.424 0.5 0.628 0.392 0.529 0.771 1.081 1.334 1.446 0.657 0.427 1.24 1.285 2.009 1.491 0.41 0.11 0.743 0.165 1.125 0.392 0.282 0.167 0.354 0.33 0.562 0.565 0.214 0.24 0.338 0.198 0.631 0.275 0.249 0.065 0.437 0.257 0.68 0.312 0.201 0.045 0.518 0.011 0.725-0.003 1.248-0.087 2.37 0.319 3.636 0.215 0.974-0.079 1.96-0.476 2.862-0.84 0.9-0.364 1.847-0.944 2.503-1.675 0.481-0.534 0.703-1.502 0.834-2.192 0.222-1.153 0.426-2.347 0.575-3.514 0.128-1 0.646-1.951 0.285-2.953z"></path>
<path d="M12.501 1.457c-0.285 0.215-0.479 0.521-0.494 0.971-0.006 0.154 0.070 0.251 0.084 0.385 0.018 0.162-0.078 0.456-0.019 0.594 0.081 0.199 0.648 0.408 0.873 0.478 0.325 0.102 0.74-0.047 0.992-0.151 1.020-0.414 1.157-1.97 0.236-2.571-0.304-0.199-0.456-0.193-0.774-0.107-0.332 0.091-0.649 0.212-0.898 0.4z"></path>
<path d="M19.492 2.072c-0.342 0.165-0.639 0.429-0.808 0.759-0.243 0.481-0.387 1.612 0.173 1.933 0.389 0.223 0.963 0.314 1.4 0.264 1.013-0.113 1.491-1.412 1.221-2.287-0.285-0.916-1.24-1.028-1.986-0.669z"></path>
<path d="M28.223 9.385c-0.147 0.049-0.282 0.128-0.39 0.243-0.355 0.376-0.427 1.083-0.476 1.573-0.044 0.44 0.296 0.588 0.631 0.842 0.215 0.163 0.49 0.453 0.74 0.489 0.332 0.047 0.911-0.121 1.169-0.327 0.278-0.222 0.332-0.537 0.309-0.876-0.023-0.363 0.154-0.895 0.026-1.233-0.096-0.252-0.427-0.466-0.659-0.573-0.379-0.176-0.923-0.28-1.35-0.138z"></path>
<path d="M29.381 15.4c-1.085 0.076-1.839 0.74-1.808 1.862 0.010 0.408 0.285 0.592 0.659 0.775 0.215 0.105 0.481 0.246 0.741 0.257 0.715 0.032 1.575-0.076 1.727-0.902 0.107-0.581-0.123-1.306-0.529-1.732-0.214-0.223-0.38-0.277-0.699-0.265-0.029 0.002-0.060 0.003-0.091 0.005z"></path>
<path d="M27.639 21.362c-0.422 0.049-1.065 1.637-0.928 2.007 0.045 0.126 0.24 0.275 0.316 0.395 0.151 0.241 0.183 0.278 0.397 0.435 0.327 0.241 0.379 0.41 0.851 0.395 0.992-0.029 1.56-0.856 1.433-1.8-0.047-0.351-0.131-0.52-0.403-0.766-0.183-0.165-0.272-0.429-0.481-0.55-0.274-0.159-1.115-0.27-1.185-0.117z"></path>
<path d="M23.073 27.194c-0.389 0.006-0.49-0.21-0.848 0.104-0.384 0.337-0.748 0.91-0.5 1.433 0.066 0.142 0.223 0.238 0.299 0.384 0.091 0.17 0.087 0.34 0.215 0.51 0.236 0.316 0.709 0.455 1.099 0.471 0.363 0.016 0.851-0.099 1.135-0.327 0.287-0.23 0.267-0.431 0.265-0.787 0-0.735-0.215-0.915-0.665-1.413-0.217-0.24-0.196-0.283-0.536-0.306-0.193-0.013-0.414-0.058-0.465-0.068z"></path>
<path d="M16.44 28.143c-0.503 0.026-0.96 0.278-1.101 0.869-0.134 0.562 0.084 1.232 0.474 1.609 0.605 0.586 1.915 0.521 2.227-0.359 0.206-0.578 0.176-1.342-0.337-1.734-0.33-0.254-0.816-0.41-1.264-0.385z"></path>
<path d="M8.962 26.299c-0.079-0.005-0.155-0.008-0.222-0.003-0.327 0.018-0.618 0.311-0.758 0.597-0.144 0.291-0.066 0.649-0.1 0.944-0.023 0.199-0.146 0.445-0.058 0.641 0.024 0.052 0.194 0.154 0.244 0.212 0.141 0.163 0.197 0.377 0.403 0.486 0.309 0.167 0.949 0.005 1.258-0.11 0.397-0.147 0.533-0.497 0.677-0.871 0.327-0.853-0.282-1.748-1.157-1.866-0.086-0.011-0.188-0.023-0.287-0.029z"></path>
<path d="M3.315 21.723c-0.401 0.104-0.745 0.309-0.783 0.759-0.037 0.453 0.045 1.115 0.283 1.514 0.254 0.424 0.571 0.557 1.059 0.533 0.691-0.034 1.245-0.439 1.356-1.148 0.055-0.356-0.042-0.646-0.304-0.877-0.236-0.206-0.544-0.568-0.826-0.707-0.278-0.138-0.44-0.155-0.741-0.084-0.015 0.005-0.029 0.008-0.044 0.011z"></path>
<path d="M2.243 15.039c-0.060 0.003-0.121 0.011-0.185 0.026-0.664 0.155-1.141 0.69-1.059 1.365 0.079 0.644 0.274 1.243 0.973 1.428 0.74 0.196 2.014-0.401 1.747-1.311-0.194-0.669-0.712-1.544-1.476-1.507z"></path>
<path d="M2.501 8.022c-0.049 0.031-0.095 0.065-0.141 0.107-0.356 0.324-0.795 0.981-0.685 1.478 0.138 0.633 0.777 1.013 1.394 1.044 0.321 0.015 0.78-0.236 1.005-0.447 0.442-0.416 0.63-1.3 0.138-1.727-0.466-0.403-1.154-0.804-1.711-0.455z"></path>
<path d="M7.84 3.83c-0.853-0.252-1.391 0.746-1.434 1.468-0.034 0.555 0.309 0.853 0.842 0.898 0.319 0.027 0.565 0.102 0.856 0.134 0.605 0.066 0.949-0.379 1.101-0.868 0.070-0.223 0.23-0.492 0.163-0.733-0.047-0.172-0.233-0.272-0.267-0.494-0.278-0.107-0.389-0.306-0.707-0.372-0.248-0.053-0.484-0.068-0.554-0.034z"></path>
<path d="M25.441 4.94c-0.246 0.045-0.55-0.039-0.777 0.087-0.32 0.181-0.5 0.724-0.419 1.068 0.202 0.864 0.947 1.062 1.698 1.174 0.424 0.063 0.758 0.027 1.123-0.312 0.675-0.63-0.173-1.913-0.877-2.129-0.261-0.079-0.499 0.065-0.748 0.112z"></path>
</svg>
