<!-- Generated by IcoMoon.io -->
<svg version="1.1" xmlns="http://www.w3.org/2000/svg" width="32" height="32" viewBox="0 0 32 32">
<title>consternation_on_the_constellation</title>
<path d="M14.553 3.285c-0.384-1.001 0.103-1.363 1.709-1.271 1.42 0.081 1.535 0.143 1.535 0.818s-0.116 0.736-1.535 0.818c-1.176 0.069-1.576-0.021-1.709-0.365z"></path>
<path d="M14.442 5.167v-0.876h3.502v1.751h-3.502z"></path>
<path d="M11.87 8.45l0.090-1.094h8.464l0.091 1.094 0.090 1.094h-8.826z"></path>
<path d="M10.064 13.047v-2.627h12.258v2.627c0 1.445-0.074 2.627-0.164 2.627s-1.469-0.542-3.065-1.204l-2.9-1.204-2.9 1.204c-1.595 0.662-2.974 1.204-3.065 1.204s-0.164-1.182-0.164-2.627z"></path>
<path d="M16.776 19.238v-4.717l0.657 0.252c2.035 0.781 8.574 3.625 8.783 3.819 0.273 0.255-0.014 0.871-1.463 3.153l-0.984 1.548-0.806-0.574c-1.733-1.234-3.785-1.055-5.383 0.47l-0.803 0.766z"></path>
<path d="M14.764 23.15c-1.393-1.486-3.817-1.687-5.393-0.447l-0.753 0.592-0.984-1.548c-1.451-2.283-1.737-2.899-1.464-3.155 0.135-0.127 2.282-1.090 4.77-2.141l4.524-1.91 0.085 2.318c0.048 1.275 0.048 3.38 0 4.678l-0.085 2.36z"></path>
<path d="M6.415 26.486c-0.321-0.133-0.899-0.581-1.283-0.995s-1.14-0.898-1.678-1.076c-1.044-0.345-1.346-1.242-0.525-1.557 0.63-0.241 2.179 0.469 3.026 1.388 0.476 0.516 1.008 0.767 1.627 0.767s1.151-0.251 1.627-0.767c0.914-0.991 2.252-1.554 3.245-1.364 0.432 0.083 1.307 0.596 1.943 1.141 1.39 1.189 2.326 1.253 3.276 0.223 1.677-1.818 3.702-1.857 5.384-0.101 1.087 1.134 2.384 1.173 3.372 0.101 0.856-0.928 2.398-1.629 3.042-1.382 0.768 0.295 0.403 1.351-0.556 1.605-0.467 0.124-1.258 0.623-1.759 1.108-1.624 1.575-3.395 1.439-5.105-0.392-0.953-1.020-2.033-0.981-3.080 0.112-1.702 1.777-3.856 1.777-5.558 0-1.051-1.097-2.129-1.133-3.080-0.101-0.711 0.771-2.263 1.584-2.96 1.549-0.205-0.014-0.637-0.127-0.958-0.26z"></path>
<path d="M6.964 29.551c-0.213-0.555 0.099-1.035 0.674-1.035 0.252 0 0.959-0.452 1.571-1.005 1.903-1.719 3.743-1.636 5.503 0.247 0.418 0.447 1.025 0.757 1.481 0.757s1.064-0.31 1.481-0.757c1.748-1.871 3.599-1.966 5.468-0.282 0.592 0.534 1.34 1.021 1.661 1.082 0.35 0.069 0.584 0.343 0.584 0.691 0 0.431-0.225 0.601-0.876 0.663-0.665 0.062-1.217-0.201-2.294-1.094-0.78-0.647-1.593-1.177-1.806-1.177s-0.995 0.525-1.737 1.167c-1.074 0.929-1.58 1.167-2.481 1.167s-1.407-0.238-2.481-1.167c-0.742-0.642-1.533-1.167-1.759-1.167s-0.841 0.375-1.369 0.833c-1.731 1.503-3.28 1.965-3.621 1.078z"></path>
</svg>
