<!-- Generated by IcoMoon.io -->
<svg version="1.1" xmlns="http://www.w3.org/2000/svg" width="32" height="32" viewBox="0 0 32 32">
<title>copy</title>
<path fill="#394852" d="M9.316 3.309c-1.485-0.398-3.030 0.494-3.428 1.978l-4.659 17.387c-0.398 1.485 0.493 3.030 1.978 3.428l0.006 0.003 6.591 1.669 0.394-1.55-6.575-1.666c-0.649-0.174-1.024-0.823-0.85-1.472l4.659-17.384c0.174-0.649 0.819-1.024 1.469-0.85l4.831 1.294 0.412-1.544zM19.316 3.309c-1.485-0.398-3.030 0.494-3.428 1.978l1.544 0.416c0.174-0.649 0.819-1.024 1.469-0.85l9.659 2.588c0.649 0.174 1.024 0.823 0.85 1.472l-4.659 17.384c-0.174 0.649-0.819 1.024-1.469 0.85l-9.659-2.587c-0.649-0.174-1.024-0.823-0.85-1.472l-1.544-0.413c-0.398 1.485 0.493 3.030 1.978 3.428l9.659 2.587c1.485 0.398 3.033-0.494 3.431-1.978l4.656-17.387c0.398-1.485-0.494-3.030-1.978-3.428l-4.831-1.294zM16.684 8.553l-1.131 1.131 4.516 4.516h-10.959v1.6h10.959l-4.516 4.516 1.131 1.131 5.881-5.881-0.566-0.566 0.566-0.566z"></path>
</svg>
