<!-- Generated by IcoMoon.io -->
<svg version="1.1" xmlns="http://www.w3.org/2000/svg" width="33" height="32" viewBox="0 0 33 32">
<title>creatures_in_the_ice</title>
<path d="M21.901 4.43c0.15 0.003 0.3 0.008 0.447 0.013 0.019 0 0.037 0.003 0.055 0.003 0.184-0.031 0.368-0.063 0.555-0.087 0.092-0.013 0.187-0.024 0.279-0.034-0.126-0.3-0.297-0.579-0.497-0.868-0.176-0.255-0.405-0.466-0.642-0.665-0.134-0.116-0.271-0.226-0.405-0.342-0.155-0.137-0.289-0.342-0.463-0.45-0.271 0.076-0.147 1.134-0.205 1.673l-0.081-0.005c0 0.097 0 0.195 0.003 0.292-0.084 0.166-0.197 0.316-0.321 0.458 0.413-0.042 0.844-0.021 1.276 0.013z"></path>
<path d="M18.96 9.622c-0.058 0.019-0.118 0.034-0.176 0.050-0.050 0.045-0.103 0.082-0.163 0.113-0.234 0.116-0.51 0.145-0.763 0.069-0.192-0.055-0.355-0.168-0.492-0.308-0.055-0.024-0.108-0.050-0.155-0.082-0.118-0.084-0.21-0.231-0.239-0.371s0.019-0.271 0.131-0.358c0.047-0.108 0.139-0.2 0.242-0.26 0.263-0.152 0.634-0.158 0.897-0.005 0.008 0.003 0.010 0.008 0.016 0.010 0.040-0.005 0.074 0.003 0.11 0.019 0.079 0.034 0.158 0.071 0.229 0.116 0.031 0.019 0.063 0.040 0.095 0.063 0.205 0.087 0.347 0.297 0.395 0.508 0.019 0.079 0.010 0.158-0.016 0.231 0.026 0.082-0.021 0.176-0.11 0.205zM17.14 10.64c-0.003-0.071 0.050-0.142 0.118-0.158 0.342-0.079 0.676 0.016 0.955 0.213 0.16 0.071 0.318 0.181 0.376 0.35 0.071 0.205-0.092 0.4-0.292 0.447-0.539 0.126-1.152-0.292-1.157-0.852zM16.27 11.576c-0.084 0.079-0.184 0.121-0.297 0.134-0.134 0.013-0.268-0.040-0.381-0.103-0.116-0.066-0.226-0.16-0.281-0.279-0.060-0.126-0.069-0.255-0.010-0.381 0.050-0.108 0.16-0.184 0.274-0.216 0.145-0.040 0.302-0.019 0.442 0.026 0.029 0.010 0.053 0.026 0.071 0.047 0.042 0.008 0.084 0.019 0.126 0.037 0.097 0.045 0.166 0.129 0.202 0.226 0.063 0.174-0.010 0.384-0.145 0.508zM13.939 12.42c0.040 0.076 0.021 0.174-0.058 0.221-0.037 0.019-0.074 0.040-0.11 0.055-0.134 0.058-0.279 0.103-0.429 0.084-0.066-0.008-0.129-0.024-0.187-0.050-0.010-0.003-0.021-0.003-0.034-0.005-0.042-0.010-0.079-0.045-0.1-0.084-0.005-0.005-0.013-0.010-0.019-0.016-0.158-0.16-0.202-0.408-0.103-0.607 0.053-0.103 0.152-0.176 0.26-0.21 0.058-0.019 0.121-0.026 0.179-0.024 0.087 0.005 0.176 0.019 0.26 0.042 0.134 0.040 0.279 0.116 0.339 0.247 0.053 0.11 0.050 0.234 0 0.345 0 0 0 0 0 0.003zM10.288 9.802c0.003-0.016 0.005-0.034 0.008-0.050 0.047 0.058 0.095 0.116 0.142 0.174-0.048-0.037-0.097-0.079-0.15-0.124zM31.54 18.027c0-0.471 0.042-0.978-0.013-1.449-0.071-0.597-0.321-1.118-0.502-1.683-0.089-0.276-0.229-0.529-0.429-0.744-0.166-0.179-0.337-0.352-0.5-0.529-0.071-0.076-0.066-0.147-0.126-0.218-0.1-0.126-0.2-0.197-0.289-0.337-0.018-0.026-0.037-0.050-0.055-0.076 0.005-0.005 0.013-0.010 0.021-0.016-0.053-0.076-0.1-0.15-0.15-0.226-0.352-0.234-0.542-0.642-0.644-1.076-0.010-0.040-0.016-0.082-0.026-0.121-0.184-0.387-0.352-0.792-0.431-1.213-0.084 0.037-0.171 0.060-0.263 0.079-0.042 0.031-0.095 0.042-0.147 0.029-0.139 0.019-0.284 0.026-0.421 0.031-0.258 0.008-0.515-0.003-0.771-0.013-0.326 0.105-0.681 0.11-1.018-0.031-0.082-0.037-0.097-0.155-0.058-0.224 0.050-0.082 0.145-0.092 0.226-0.058 0.087 0.037 0.176 0.060 0.263 0.071 0.024-0.053 0.071-0.092 0.145-0.092 0.134 0 0.271 0.005 0.405 0.010 0.3-0.118 0.56-0.352 0.715-0.621 0.092-0.163 0.329-0.048 0.3 0.11 0.058 0.155 0.147 0.289 0.255 0.413 0.097-0.1 0.21-0.184 0.31-0.279 0.063-0.058 0.174-0.069 0.234 0 0.397 0.442 0.442 1.076 0.555 1.628 0.005 0.021 0.010 0.040 0.013 0.058 0.034 0.069 0.068 0.137 0.105 0.205 0.15 0.289 0.316 0.573 0.489 0.85 0.047 0.026 0.097 0.053 0.152 0.071 0.029-0.142 0.032-0.295 0.039-0.418 0.029-0.418 0.118-0.776 0.25-1.173 0.139-0.418 0.103-0.886 0.103-1.32-0.003-0.237 0.037-0.468-0.060-0.689-0.121-0.281-0.31-0.56-0.468-0.821-0.31-0.502-0.852-0.965-1.347-1.289-0.187-0.121-0.381-0.176-0.568-0.271-0.2-0.1-0.35-0.253-0.565-0.35-0.216-0.1-0.253-0.074-0.471-0.118-0.479-0.092-0.944-0.276-1.394-0.452-0.4-0.158-0.765-0.531-1.207-0.568-0.218 0.040-0.439 0.055-0.663 0.060-0.447 0.010-0.91 0.008-1.355-0.029-0.287-0.024-0.571-0.095-0.855-0.139-0.529 0.137-1.047 0.3-1.549 0.468-0.005 0.005-0.010 0.013-0.016 0.021-0.063 0.082-0.060 0.069-0.139 0.113-0.137 0.076-0.245 0.197-0.387 0.279-0.069 0.037-0.129 0.066-0.189 0.097-0.423-0.047-0.847-0.087-1.202 0.2 0-0.005 0.003-0.008 0.005-0.013-0.026-0.010-0.071 0.042-0.121 0.11-0.089 0.079-0.176 0.163-0.26 0.247 0.013 0.040 0.010 0.082-0.021 0.126-0.145 0.197-0.302 0.387-0.465 0.573-0.087 0.008-0.171 0.016-0.237 0.045-0.103 0.048-0.213 0.174-0.3 0.25-0.066 0.055-0.105 0.129-0.163 0.189-0.084 0.087-0.184 0.15-0.266 0.242-0.084 0.095-0.187 0.195-0.258 0.305-0.060 0.095-0.092 0.189-0.163 0.284-0.142 0.192-0.171 0.342-0.181 0.581 0 0.013-0.003 0.029-0.005 0.045-0.045 0.082-0.095 0.16-0.134 0.245-0.042 0.089-0.126 0.097-0.197 0.066-0.113 0.124-0.234 0.245-0.352 0.371-0.139 0.019-0.281 0.034-0.434 0.034-0.208 0-0.505-0.053-0.697 0.013 0.069 0.16 0.431 0.216 0.555 0.4 0.016 0.021 0.031 0.058 0.050 0.097-0.082 0.095-0.155 0.192-0.202 0.287-0.124-0.026-0.239-0.066-0.395-0.126-0.137-0.053-0.289-0.108-0.439-0.121-0.205-0.021-0.373 0.005-0.531 0.105 0.037 0.11-0.087 0.202-0.202 0.181-0.053 0.063-0.1 0.132-0.137 0.202-0.074-0.069-0.134-0.145-0.181-0.229 0.034-0.069 0.074-0.134 0.11-0.202-0.181-0.329-0.274-0.75-0.502-1.041-0.074-0.071-0.147-0.137-0.224-0.205-0.042-0.026-0.082-0.050-0.129-0.071-0.189-0.076-0.4-0.087-0.579-0.195-0.158-0.092-0.318-0.197-0.468-0.3-0.045 0.013-0.087 0.026-0.129 0.040-0.019-0.069-0.037-0.137-0.058-0.202 0 0-0.005-0.024-0.013-0.053-0.024-0.034-0.045-0.074-0.063-0.113-0.010-0.019-0.021-0.040-0.029-0.058-0.060-0.010-0.155-0.005-0.2-0.010-0.281-0.034-0.531-0.113-0.784 0.016-0.118 0.060-0.208 0.163-0.258 0.287-0.019 0.013-0.034 0.026-0.053 0.040-0.231 0.158-0.258 0.36-0.389 0.597-0.003 0.008-0.045 0.055-0.082 0.103-0.108-0.026-0.224-0.095-0.268-0.145-0.126-0.142-0.121-0.463-0.082-0.639 0.026-0.113 0.116-0.208 0.152-0.318 0.058-0.163 0.113-0.373 0.126-0.544 0.019-0.271-0.016-0.544 0.003-0.815-0.15 0.208-0.274 0.468-0.387 0.7-0.042 0.087-0.079 0.171-0.116 0.26-0.045 0.113-0.1 0.218-0.121 0.334-0.013 0.071 0.005 0.174-0.021 0.237-0.042 0.11-0.197 0.258-0.274 0.358-0.116 0.15-0.176 0.26-0.226 0.444-0.055 0.202-0.029 0.376-0.050 0.584-0.029 0.289-0.253 0.558-0.355 0.823-0.037 0.095-0.11 0.189-0.134 0.284-0.029 0.11-0.019 0.171-0.074 0.287-0.069 0.145-0.089 0.263-0.118 0.426-0.053 0.287-0.176 0.547-0.289 0.813-0.139 0.326-0.389 0.629-0.618 0.899-0.208 0.245-0.392 0.51-0.618 0.742-0.21 0.213-0.397 0.413-0.544 0.673-0.092 0.158-0.184 0.297-0.297 0.439-0.184 0.234-0.316 0.429-0.434 0.697-0.005 0.010-0.008 0.021-0.013 0.031-0.124 0.074 1.010-1.315 0.907-1.215-0.3 0.289-0.55 0.658-0.881 0.91-0.031 0.005-0.063 0.010-0.097 0.013-0.034 0.045-0.058 0.092-0.069 0.147-0.034 0.066-0.069 0.124-0.105 0.187-0.208 0.366-0.189 0.826-0.192 1.241-0.013 0.016-0.029 0.031-0.045 0.050-0.168 0.2-0.337 0.444-0.444 0.684-0.147 0.318-0.36 0.584-0.444 0.942-0.050 0.218-0.089 0.329-0.221 0.513-0.205 0.287-0.255 0.631-0.395 0.949-0.055 0.129-0.116 0.242-0.137 0.387-0.021 0.139-0.084 0.213-0.126 0.345-0.060 0.181 0.029 0.347-0.089 0.523 0.063-0.053 0.087-0.11 0.126-0.179 0.089-0.15 0.216-0.271 0.308-0.421 0.126-0.213 0.226-0.434 0.318-0.66 0.139-0.339 0.392-0.608 0.56-0.926 0.184-0.35 0.45-0.587 0.676-0.905 0.229-0.323 0.429-0.636 0.589-0.997 0.152-0.35 0.405-0.626 0.576-0.963 0.187-0.363-0.242 0.337 0 0 0.242-0.334-0.163-0.213 0.139-0.494 0.26-0.242 0.584-0.342 0.839-0.563 0.189-0.16 0.279-0.437 0.442-0.623 0.147-0.166 0.281-0.323 0.455-0.466 0.26-0.21 0.576-0.342 0.818-0.571 0.313-0.302 0.639-0.579 0.957-0.878 0.11-0.105 0.255-0.179 0.366-0.281 0.105-0.1 0.152-0.231 0.205-0.363 0.074-0.187 0.066-0.329 0.066-0.526 0.003-0.239 0.076-0.46 0.116-0.689 0.302 0.168 0.618 0.258 0.918 0.084 0-0.008-0.003-0.016-0.003-0.024 0-0.082 0.076-0.171 0.163-0.16 0.013 0 0.026 0.005 0.040 0.005 0.037-0.053 0.066-0.113 0.089-0.176 0.013 0.005 0.029 0.008 0.050 0.016-0.016-0.005-0.031-0.010-0.047-0.021 0.047 0.010 0.129 0.031 0.195 0.050 0-0.058 0.034-0.1 0.082-0.124-0.045-0.063-0.089-0.129-0.129-0.197-0.103-0.181 0.181-0.345 0.284-0.163 0.339 0.592 0.976 0.96 1.262 1.586 0.031 0.069 0.024 0.142-0.029 0.195 0.050 0.019 0.103 0.034 0.15 0.055-0.126 0.4-0.197 0.826-0.192 1.236 0 0.289-0.034 0.587 0.103 0.855 0.168 0.334 0.568 0.426 0.928 0.434 0.003 0 0.008 0 0.013 0 0.026 0.024 0.058 0.048 0.092 0.069 0.11 0.069 0.276 0.076 0.376 0.15 0.132 0.097 0.1 0.229 0.1 0.387 0.003 0.213 0.079 0.413 0.239 0.565 0.116 0.11 0.253 0.137 0.4 0.139 0.179-0.51 0.331-1.031 0.571-1.523 0.031-0.066 0.069-0.134 0.108-0.202-0.055 0.008-0.113 0.010-0.168-0.005-0.118 0.005-0.237-0.019-0.352-0.047-0.079-0.019-0.113-0.087-0.116-0.158-0.058-0.037-0.079-0.116-0.069-0.179 0.005-0.026 0.013-0.050 0.021-0.076 0-0.003-0.003-0.003-0.005-0.005-0.034-0.063-0.026-0.145 0.026-0.197 0.092-0.089 0.2-0.158 0.323-0.2 0.145-0.053 0.313-0.042 0.458 0.021 0.010-0.003 0.024-0.005 0.037-0.005 0.087-0.008 0.147 0.069 0.155 0.145 0.026 0.026 0.047 0.055 0.069 0.084 0.031 0.019 0.050 0.045 0.060 0.071 0.181-0.147 0.395-0.237 0.642-0.2 0.087-0.389 0.253-0.755 0.571-1.018 0.074-0.063 0.158-0.060 0.231 0 0.355 0.274 0.739 0.505 1.191 0.579 0.155 0.024 0.145 0.208 0.042 0.281 0.005 0.103-0.074 0.21-0.2 0.168-0.376-0.126-0.723-0.31-1.073-0.489-0.116 0.279-0.121 0.584-0.121 0.884 0 0.103-0.105 0.189-0.208 0.158-0.137-0.042-0.258-0.045-0.363-0.021-0.021 0.016-0.045 0.021-0.071 0.024-0.323 0.124-0.515 0.518-0.663 0.85-0.2 0.452-0.352 0.981-0.663 1.383 0.005 0.037 0.003 0.074-0.019 0.103-0.221 0.297-0.531 0.487-0.857 0.65-0.016 0.037-0.031 0.074-0.042 0.113-0.053 0.187-0.074 0.389-0.084 0.587-0.010 0.308-0.124 0.618-0.21 0.91-0.040 0.129-0.118 0.237-0.145 0.366-0.019 0.092-0.024 0.179-0.047 0.274-0.074 0.279-0.192 0.537-0.3 0.807-0.095 0.239-0.116 0.471-0.155 0.726-0.045 0.284-0.142 0.555-0.184 0.836-0.029 0.179-0.010 0.366-0.010 0.547 0 0.397-0.071 0.768-0.071 1.168 0 0.31 0.010 0.6-0.053 0.905-0.058 0.279-0.097 0.555-0.139 0.839-0.026 0.166-0.037 0.318-0.079 0.481-0.034 0.126-0.069 0.258-0.1 0.387-0.034 0.15-0.013 0.308-0.045 0.45-0.019 0.076-0.089 0.113-0.079 0.197 0.103-0.116 0.163-0.281 0.237-0.413 0.089-0.155 0.181-0.295 0.25-0.463 0.089-0.218 0.224-0.471 0.274-0.702 0.042-0.184 0.058-0.331 0.124-0.51 0.045-0.118 0.042-0.247 0.066-0.371 0.040-0.189 0.042-0.381 0.069-0.573 0.026-0.179 0.095-0.355 0.11-0.537 0.021-0.237-0.037-0.468 0.040-0.7 0.079-0.242 0.113-0.473 0.166-0.718 0.082-0.363 0.197-0.723 0.381-1.049 0.158-0.276 0.213-0.589 0.376-0.86 0.166-0.276 0.289-0.576 0.439-0.868 0.071-0.134 0.108-0.289 0.181-0.418 0.063-0.11 0.15-0.184 0.202-0.308 0.132-0.323 0.373-0.56 0.531-0.871 0.105-0.213 0.255-0.429 0.408-0.613 0.189-0.226 0.476-0.281 0.694-0.471 0.087-0.013 0.168-0.037 0.229-0.082 0.129-0.095 0.221-0.258 0.345-0.366 0.197-0.174 0.513-0.15 0.771-0.126 0.079 0.008 0.147 0.034 0.213 0.066 0.003 0.016 0.005 0.034 0.008 0.050 0.026 0.45-0.084 0.918-0.271 1.328-0.103 0.218-0.087 0.405-0.087 0.644 0 0.292-0.008 0.544-0.089 0.828-0.239 0.855-0.121 1.799-0.121 2.683v3.080c0 0.247-0.010 0.473 0.055 0.705 0.069 0.25 0.016 0.587 0.013 0.844-0.010 0.218-0.005 0.437 0.013 0.655 0.021 0.137 0.058 0.271 0.116 0.395 0.021 0.092 0.013 0.171 0.013 0.263-0.005 0.331 0.003 0.665-0.003 0.997-0.003 0.358 0.089 0.689 0.076 1.047-0.008 0.208-0.058 0.416-0.074 0.618-0.005 0.055-0.003 0.097-0.021 0.131 0.413-0.437 0.187-1.144 0.226-1.702 0.008-0.137 0.069-0.21 0.129-0.329 0.079-0.147 0.087-0.276 0.089-0.439 0.003-0.181-0.016-0.366-0.005-0.547 0.010-0.184 0.118-0.258 0.195-0.426 0.192-0.421 0.158-0.899 0.158-1.349 0-0.479 0.003-0.907 0.121-1.376 0.176-0.684 0.158-1.341 0.16-2.044 0-0.547 0.076-1.189-0.037-1.731-0.121-0.579-0.029-1.234-0.034-1.828-0.003-0.276 0.026-0.492 0.121-0.757 0.079-0.226 0.142-0.442 0.158-0.681 0.005-0.097-0.013-0.2-0.003-0.295 0.019-0.155 0.076-0.295 0.113-0.444 0.050 0.029 0.11 0.048 0.2 0.069 0.163 0.034 0.242 0.037 0.387-0.034 0.371-0.181 0.663 0.492 1.052 0.318 0.137-0.060 0.279-0.131 0.389-0.234 0.142-0.137 0.155-1.318 0.297-1.457 0.024-0.024 0.050-0.045 0.076-0.063 0.042 0.076 0.087 1.126 0.139 1.191 0.116 0.145 0.158 0.179 0.345 0.184 0.118 0.005 0.237-0.973 0.355-0.976 0 0.050 0.003 0.1 0.013 0.142 0.019 0.060 0.071 0.108 0.113 0.158 0.124 0.155 0.245 0.329 0.345 0.497 0.234 0.4 0.337 0.857 0.466 1.294 0.039 0.126 0.095 0.263 0.126 0.397 0.039 0.176 0.103 0.329 0.139 0.515 0.095 0.458 0.376 0.894 0.497 1.357 0.16 0.61 0.416 1.27 0.423 1.902 0.008 0.521 0.074 1.039 0.071 1.557-0.005 0.439-0.003 0.881-0.003 1.32 0 0.947 0.024 1.899 0 2.843 0.016-0.131 0.055-0.268 0.063-0.397 0.013-0.176 0.021-0.352 0.055-0.529 0.037-0.208 0.126-0.405 0.166-0.61 0.037-0.195 0.058-0.397 0.082-0.594 0.029-0.237 0.108-0.481 0.129-0.715 0.021-0.218-0.003-0.45-0.003-0.671 0-0.271 0.034-0.51 0.063-0.779 0.047-0.431-0.008-0.881 0.003-1.315 0.013-0.465 0.076-0.952 0.137-1.412 0.053-0.381 0.008-0.794 0.008-1.184 0-0.463 0.063-0.973-0.016-1.428-0.087-0.502-0.189-0.949-0.321-1.441-0.084-0.323-0.352-0.544-0.437-0.871-0.074-0.281-0.084-0.584-0.079-0.886-0.292-0.255-0.584-0.515-0.834-0.81-0.232-0.271-0.408-0.568-0.542-0.886-0.368-0.121-0.718-0.308-1.086-0.429-0.195 0-0.389 0.021-0.579 0.063-0.316 0.302-0.665 0.586-1.113 0.652-0.031 0.005-0.058 0.003-0.087-0.005-0.005 0.005-0.008 0.010-0.013 0.016 0.016 0.050 0.010 0.108-0.040 0.155-0.047 0.050-0.087 0.089-0.092 0.163-0.019 0.171-0.25 0.2-0.313 0.079-0.11-0.005-0.213-0.108-0.134-0.231 0.089-0.134 0.192-0.258 0.302-0.368-0.053-0.071-0.058-0.179 0.037-0.239 0.11-0.071 0.221-0.142 0.334-0.21 0.176-0.208 0.292-0.416 0.224-0.713-0.031-0.129 0.116-0.266 0.239-0.181 0.381 0.253 0.805 0.279 1.239 0.284 0.218-0.024 0.437-0.024 0.639 0.013 0.087 0.008 0.174 0.016 0.258 0.031 0.074 0.013 0.108 0.058 0.116 0.113 0.053 0.034 0.105 0.071 0.15 0.121 0.010 0.005 0.016 0.019 0.024 0.029 0.076 0.087 0.137 0.195 0.176 0.331 0.003 0.008 0 0.013 0.003 0.019 0.010 0.008 0.024 0.016 0.034 0.024 0.021 0.016 0.039 0.037 0.060 0.053 0.063 0.013 0.095 0.053 0.108 0.097 0.516 0.484 0.847 1.118 1.236 1.704 0.079 0.071 0.16 1.362 0.239 1.433 0.024 0 0.050 0.003 0.074 0.005 0.326 0.029 0.647 0.071 0.976 0.069 0.397 0 0.768 0.016 1.147-0.108 0.331-0.108 0.642-0.063 0.96-0.25 0.237-0.142 0.447-0.31 0.658-0.479 0.039-0.003 0.079-0.005 0.121-0.008 0.097 0.116 0.192 0.234 0.287 0.358 0.16 0.208 0.276-0.789 0.421-0.568 0.1 0.152 0.155 0.326 0.253 0.481 0.092 0.152 0.197 0.308 0.279 0.468 0.092 0.187 0.137 0.376 0.25 0.552 0.139 0.216 0.253 0.413 0.384 0.621 0.095 0.15 0.179 0.329 0.221 0.494 0.045 0.187 0.152 0.345 0.226 0.521 0.063 0.142 0.082 0.289 0.11 0.439 0.053 0.255 0.050 0.497 0.087 0.75 0.055 0.381 0.129 0.773 0.126 1.16-0.005 0.565 0.047 1.105 0.124 1.662 0.024 0.181-0.076 1.404 0.068 1.441 0.053-0.095 0.016-0.263 0.021-0.368 0.016-0.289 0.074-0.565 0.121-0.849 0.058-0.318 0.016-0.663 0.016-0.986z"></path>
<path d="M12.259 9.543c0.079 0.092 0.158 0.187 0.229 0.289 0.003-0.005 0.005-0.013 0.010-0.019 0.126-0.187 0.202-0.479 0.384-0.607 0.108-0.076 0.25-0.139 0.368-0.224 0.005 0 0.010 0 0.019 0 0.047 0.045 0.113 0.074 0.197 0.076 0.168 0.113 0.371 0.055 0.558-0.005 0.095 0.005 0.2 0.019 0.284 0.010 0.079-0.008 0.16-0.042 0.242-0.084 0.1-0.003 0.187-0.019 0.284-0.040 0.087-0.592 0.423-1.055 0.892-1.428 0.366-0.289 0.771-0.526 1.144-0.802-0.071-0.040-0.139-0.079-0.2-0.121-0.113-0.082-0.195-0.174-0.334-0.216-0.076-0.021-0.103-0.026-0.16-0.055-0.271-0.139-0.423-0.389-0.75-0.373-0.229 0.010-0.321 0.147-0.502 0.263-0.142 0.092-0.321 0.195-0.5 0.253-0.029-0.045-0.063-0.084-0.118-0.103-0.129-0.040-0.316-0.037-0.494-0.010-0.003-0.037-0.003-0.074-0.008-0.108-0.031-0.192-0.116-0.36-0.079-0.568 0.029-0.15 0.074-0.342 0.137-0.468-0.216-0.129-0.352 0.3-0.202 0.124-0.184 0.21-0.458 0.36-0.673 0.537-0.192 0.16-0.331 0.379-0.484 0.573-0.318 0.41-0.458 0.792-0.589 1.294-0.045 0.168-0.066 0.323-0.124 0.473 0.176 0.4 0.345 0.805 0.487 1.218 0.013 0.047 0.005 0.087-0.016 0.121z"></path>
<path d="M10.37 11.584c0 0.003-0.003 0.005-0.003 0.008-0.216 0.571-0.521 1.034-0.855 1.541-0.097 0.147-0.181 0.26-0.271 0.418-0.053 0.092-0.1 0.171-0.142 0.26-0.040 0.084-0.105 0.158-0.134 0.242-0.031 0.084-0.037 0.179-0.047 0.274-0.024 0.019-0.048 0.034-0.066 0.050-0.132 0.118-0.237 0.247-0.366 0.366-0.066 0.060-0.166 0.097-0.218 0.168-0.045 0.060-0.066 0.171-0.124 0.245-0.076 0.097-0.15 0.152-0.189 0.274-0.069 0.213-0.129 0.395-0.255 0.584-0.263 0.395-0.523 0.789-0.805 1.173-0.121 0.163-0.234 0.295-0.305 0.489-0.060 0.163-0.1 0.331-0.139 0.5-0.079 0.347-0.087 0.663-0.087 1.015 0 0.316-0.069 0.7-0.003 1.005 0.021 0.103 0.063 0.158 0.071 0.271 0.016 0.166 0.060 0.145 0.137 0.274 0.118 0.21 0.142 0.479 0.145 0.713-0.016-0.539 0.226-1.076 0.392-1.578 0.124-0.373 0.103-0.657 0.021-1.023-0.019-0.079-0.029-0.147-0.031-0.216 0.147-0.187 0.25-0.392 0.395-0.568 0.116-0.139 0.131-0.363 0.242-0.531 0.118-0.184 0.224-0.381 0.352-0.558 0.11-0.147 0.226-0.253 0.308-0.418 0.097-0.197 0.231-0.345 0.376-0.51 0.258-0.292 0.418-0.65 0.605-0.986 0.2-0.363 0.481-0.671 0.689-1.023 0.247-0.423 0.6-0.784 0.844-1.213 0.042-0.076 0.079-0.152 0.118-0.229-0.1-0.234-0.218-0.458-0.363-0.668-0.082-0.116-0.179-0.239-0.292-0.347z"></path>
</svg>
