<!-- Generated by IcoMoon.io -->
<svg version="1.1" xmlns="http://www.w3.org/2000/svg" width="28" height="32" viewBox="0 0 28 32">
<title>crimson_conspiracy</title>
<path d="M15.327 8.696c-0.125 0.229-0.182 0.625-0.329 0.809-0.060 0.073-0.673 0.426-0.184 0.513 0.054 0.363-0.057 0.764-0.055 1.132 0 0.382 0.013 0.767 0.031 1.138 0.036 0.736 0.069 1.516 0.029 2.245-0.089 1.621 0.025 3.294 0.029 4.917 0.003 0.74 0.028 1.777-0.044 2.51-0.018 0.178-0.264 0.791-0.396 1.071-0.089 0.192 1.319-0.36 1.548-0.332 0.287 0.036 0.488 0.089 0.78 0.060 0.152-0.015 1.217 0.555 1.183 0.405-0.066-0.297-0.331-0.991-0.361-1.27-0.124-1.109-0.044-2.473-0.044-3.588 0-1.45-0.031-5.428-0.031-6.003 0-0.586-0.095-2.1-0.085-2.285 0.041 0.004 0.098-0.015 0.14-0.009 0.080-0.264-0.009-0.242-0.127-0.404-0.141-0.194-0.268-0.428-0.334-0.685-0.122-0.475-0.019-0.445-0.586-0.464-0.261-0.009-1.090-0.194-1.14 0.204-0.020 0.004-0.070-0.001-0.025 0.035z"></path>
<path d="M17.215 5.14c-0.016 0.172-0.082 0.297-0.16 0.446-0.077 0.147-0.152 0.254-0.283 0.366-0.197 0.17-0.399 0.251-0.653 0.299-0.478 0.087-0.85-0.108-1.195-0.412-0.127-0.112-0.194-0.182-0.248-0.347-0.052-0.16-0.093-0.324-0.102-0.49-0.006-0.122-0.023-0.294 0.020-0.405 0.036-0.095 0.093-0.198 0.138-0.289 0.087-0.172 0.334-0.396 0.516-0.465 0.127-0.048 0.252-0.121 0.389-0.138 0.108-0.015 0.235-0.004 0.344 0 0.222 0.009 0.411 0.105 0.612 0.198 0.221 0.102 0.375 0.313 0.484 0.525 0.082 0.156 0.213 0.458 0.14 0.63 0.001 0.006 0.001 0.035-0.003 0.083zM18.434 4.789c-0.026-0.35-0.052-0.681-0.213-1.004-0.382-0.767-1.010-1.234-1.463-1.357-0.207-0.055-0.484-0.073-0.735-0.073-0.315 0-0.59 0.028-0.64 0.045-0.821 0.299-0.976 0.383-1.558 1.017-0.214 0.235-0.392 0.71-0.434 1.016-0.009 0.066-0.019 0.13-0.028 0.192-0.054 0.359-0.101 0.668 0.001 1.014 0.106 0.361 0.418 0.927 0.716 1.192 0.532 0.475 1.060 0.66 1.88 0.66h0.001c0.611 0 1.567-0.49 1.931-0.815 0.322-0.287 0.608-1.186 0.566-1.603-0.010-0.096-0.017-0.192-0.025-0.286z"></path>
<path d="M18.059 6.864c-0.402 0.359-1.418 0.877-2.097 0.877v0c-0.879 0-1.472-0.21-2.048-0.724-0.34-0.302-0.673-0.914-0.788-1.307-0.118-0.399-0.066-0.751-0.009-1.121l0.026-0.189c0.048-0.351 0.248-0.877 0.498-1.151 0.617-0.672 0.799-0.771 1.656-1.084 0.147-0.052 1.035-0.111 1.526 0.023 0.507 0.137 1.205 0.649 1.621 1.485 0.184 0.369 0.211 0.723 0.239 1.097 0.007 0.092 0.015 0.185 0.023 0.28 0.051 0.496-0.254 1.465-0.647 1.815zM19.731 4.263c-0.14-0.739-0.38-1.332-0.888-1.905-0.337-0.38-0.65-0.599-1.092-0.825-0.443-0.227-0.816-0.417-1.328-0.465-0.141-0.015-0.224-0.013-0.245-0.010-0.514-0.213-1.414 0.172-1.88 0.41-0.627 0.318-1.259 0.764-1.564 1.408-0.277 0.587-0.563 1.14-0.589 1.785-0.013 0.319-0.042 0.688-0.001 1.003 0.052 0.396 0.27 0.764 0.412 1.132 0.207 0.532 0.873 1.248 1.388 1.501 0.268 0.133 0.58 0.3 0.858 0.405 0.332 0.127 0.845 0.077 1.208 0.060 0.497-0.023 0.982-0.143 1.46-0.296 0.49-0.157 0.7-0.353 1.032-0.723 0.908-1.009 1.491-2.090 1.227-3.48z"></path>
<path d="M16.172 25.505c-0.993 0-1.797-0.477-1.797-1.063 0-0.587 0.805-1.064 1.797-1.064s1.797 0.477 1.797 1.064c0 0.586-0.805 1.063-1.797 1.063zM16.172 22.671c-1.938 0-3.511 0.985-3.511 2.201 0 1.214 1.573 2.199 3.511 2.199s3.511-0.985 3.511-2.199c0-1.216-1.573-2.201-3.511-2.201z"></path>
<path d="M23.448 28.307c-0.090-0.421-0.312-0.956-0.635-1.229-0.749-0.628-1.625-0.998-2.396-1.586-0.175-0.136-0.504-0.484-0.627-0.66-0.009-0.012-0.048-0.025-0.114-0.039 0.001 0.026 0.007 0.051 0.007 0.077 0.165 1.277-0.825 2.679-3.412 2.679-2.72 0-3.808-1.468-3.61-2.679 0-0.163 0.031-0.322 0.085-0.475-0.009 0.006-0.020 0.012-0.023 0.017-0.195 0.361-0.837 0.772-1.227 0.93-1.5 0.605-2.905 1.976-2.693 3.547 0.052 0.394 0.166 0.793 0.567 1.003 0.319 0.168 2.574 1.108 4.326 1.108s3.419-0.026 4.132 0.003c0.663 0.026 3.107-0.361 3.625-0.482 0.28-0.066 1.469-0.635 1.75-0.829 0.402-0.28 0.34-0.956 0.246-1.385z"></path>
<path d="M8.536 13.028c-0.058 0.023-0.122 0.028-0.181 0.007-0.138-0.050-0.214-0.163-0.243-0.305-0.025-0.118-0.007-0.348 0.125-0.407 0.361-0.156 0.704 0.544 0.299 0.704zM15.069 11.738c-0.015-0.101-0.096-0.281-0.166-0.343-0.111-0.112-0.484 0.031-0.624 0.066-0.303 0.076-0.611 0.15-0.921 0.185-0.595 0.069-1.178 0.201-1.775 0.277-0.45 0.055-0.92 0.195-1.377 0.198-0.219 0-0.427 0.004-0.638 0.036-0.343 0.051-0.617-0.341-0.976-0.35-0.099-0.003-0.198 0.026-0.289 0.066-0.43 0.188-0.717 0.574-0.602 1.071 0.101 0.431 0.644 0.611 1.026 0.51 0.189-0.050 0.353-0.095 0.496-0.232 0.131-0.127 0.239-0.28 0.427-0.331 0.462-0.127 0.952-0.191 1.431-0.243 0.278-0.031 0.549-0.073 0.828-0.099 0.217-0.020 0.423-0.101 0.638-0.127 0.188-0.022 0.379 0.003 0.57-0.010 0.471-0.032 0.942-0.070 1.409-0.128 0.102-0.012 0.382-0.007 0.461-0.064 0.092-0.064 0.099-0.375 0.083-0.482z"></path>
<path d="M11.491 12.137c0.028-0.947-1.243-0.701-1.842-0.762-0.399-0.041-0.815-0.098-1.121 0.223-0.166 0.172-0.096 0.3 0.077 0.414 0.207 0.136 0.412 0.245 0.615 0.38 0.232 0.155 0.487 0.082 0.746 0.036 0.257-0.045 0.5-0.061 0.759-0.061 0.243 0 0.609-0.082 0.765-0.23z"></path>
<path d="M7.688 21.232c0.144 0.098 0.277 0.127 0.449 0.136 0.777 0.038 1.51 0.111 2.284 0.032 0.439-0.044 0.893-0.095 1.334-0.115 0.254-0.010 0.503-0.012 0.733-0.089-0.149-0.337-0.487-0.582-0.634-0.933-0.156-0.379-0.354-0.812-0.424-1.216-0.069-0.396-0.216-0.775-0.283-1.173-0.060-0.354-0.051-0.745-0.051-1.105 0-0.361 0.016-0.721 0.016-1.083 0-0.255 0.013-0.513 0.001-0.767-0.028-0.563 0.020-1.115-0.034-1.678-0.028-0.293 0.122-0.735-0.289-0.754-0.281-0.013-0.583 0.131-0.832 0.246-0.316 0.147-0.592 0.093-0.885 0.331-0.086 0.070-0.373 0.255-0.319 0.275 0 0.65 0.018 1.299 0.018 1.944 0 0.637 0.054 1.277 0.025 1.905-0.034 0.686-0.274 1.322-0.442 1.989-0.155 0.616-0.294 1.191-0.672 1.727-0.044 0.061-0.098 0.122-0.15 0.187 0.055 0.054 0.109 0.108 0.155 0.138z"></path>
<path d="M12.348 21.462c-0.287 0.076-0.58 0.141-0.874 0.169-0.557 0.055-1.13 0.019-1.685 0.103-0.433 0.066-0.809-0.017-1.24-0.020-0.302-0.003-0.637-0.032-0.923-0.14-0.058-0.022-0.201-0.098-0.306-0.166-0.015 0.035-0.026 0.070-0.032 0.108-0.029 0.175 0.431 0.574 0.503 0.633 0.223 0.185 0.737 0.143 1.013 0.143 0.238-0.001 1.116 0.020 1.334-0.001 0.166-0.016 1.526 0.034 1.765-0.066 0.172-0.070 0.29-0.28 0.426-0.412 0.15-0.147 0.252-0.227 0.22-0.424-0.083 0.039-0.169 0.067-0.2 0.074z"></path>
<path d="M10.068 10.636c-0.101-0.254-0.297-0.328-0.555-0.394-0.278-0.070-0.714-0.015-0.981 0.083-0.446 0.165-0.767 0.375-1.032 0.794-0.159 0.254-0.459 0.826-0.293 1.106 0.042 0.071 0.173 0.12 0.163 0.208-0.010 0.073-0.191 0.134-0.232 0.232-0.077 0.192 0.082 0.529 0.21 0.672-0.283 0.018-0.408 0.141-0.391 0.44 0.019 0.324 0.24 0.439 0.395 0.681-0.153 0.013-0.31-0.173-0.453-0.063-0.069 0.054-0.153 0.293-0.138 0.375 0.032 0.176 0.318 0.347 0.431 0.478 0.099 0.117 0.175 0.319 0.245 0.449-0.203-0.010-0.666-0.245-0.867-0.131-0.332 0.187 0.254 0.5 0.395 0.595 0.108 0.073 0.305 0.194 0.326 0.34 0.032 0.207-0.195 0.153-0.351 0.153-0.184 0-0.962 0.006-0.679 0.313 0.181 0.197 0.821 0.169 0.793 0.541-0.173-0.003-0.361 0.025-0.532 0.052-0.173 0.029-0.408-0.010-0.563 0.082-0.348 0.204 0.341 0.456 0.504 0.557 0.144 0.089 0.276 0.176 0.016 0.201-0.194 0.017-0.405-0.029-0.595 0.013-0.155 0.035-0.313 0.165-0.213 0.318 0.090 0.138 0.326 0.184 0.469 0.255 0.118 0.060 0.262 0.172 0.388 0.182 0.050 0.003 0.243-0.115 0.268-0.169 0.044-0.095-0.076-0.15-0.136-0.207 0.185-0.111 0.468-0.146 0.493-0.408 0.015-0.138-0.064-0.353-0.13-0.471 0.17 0.064 0.388-0.197 0.411-0.343 0.028-0.163-0.082-0.364-0.114-0.517 0.407-0.211 0.477-0.659 0.214-1.022 0.42 0.020 0.488-0.353 0.36-0.596-0.044-0.102-0.312-0.452-0.431-0.478 0.162 0.035 0.299 0.077 0.449-0.020 0.133-0.085 0.414-0.303 0.345-0.49-0.044-0.121-0.36-0.316-0.469-0.389-0.157-0.105-0.245-0.131-0.356-0.286 0.015 0.020 0.466 0.019 0.532 0.015 0.15-0.007 0.316-0.054 0.38-0.204 0.115-0.268-0.2-0.466-0.417-0.519-0.137-0.034-0.407 0.061-0.412-0.168-0.003-0.14 0.201-0.238 0.265-0.364 0.026-0.051 0.109-0.206 0.077-0.259-0.032-0.057-0.117-0.023-0.153-0.052-0.134-0.105-0.074-0.363-0.023-0.526 0.115-0.377 0.337-0.608 0.668-0.796 0.313-0.178 0.491-0.356 0.88-0.274 0.363 0.076 0.359 0.475 0.396 0.762 0.028 0.211 0.063 0.165 0.275 0.137 0.096-0.013 0.192-0.060 0.286-0.063 0.003-0.003 0.007-0.009 0.016-0.016 0-0.29-0.029-0.539-0.137-0.809z"></path>
<path d="M10.189 11.461c-0.012 0.015 0.009 0.006 0.031-0.001-0.010-0.001-0.020 0.001-0.031 0.001z"></path>
<path d="M6.867 19.126c0.004-0.115-0.020-0.147-0.083-0.23l-0.205 0.090c0.007-0.004 0.016-0.009 0.023-0.013-0.007 0.004-0.015 0.003-0.022 0.006-0.001 0.092-0.125 0.176-0.204 0.204-0.108 0.038-0.243 0.019-0.357 0.017-0.146-0.001-0.42-0.103-0.535 0.013-0.066 0.067-0.067 0.157-0.018 0.236 0.136 0.211 0.573 0.153 0.659 0.41 0.070 0.207-0.238 0.048-0.324 0.028-0.128-0.031-0.647-0.051-0.603 0.169 0.038 0.188 0.378 0.291 0.522 0.378 0.085 0.050 0.361 0.175 0.175 0.233-0.117 0.036-0.249 0.025-0.361-0.013-0.114-0.039-0.246-0.141-0.373-0.093-0.217 0.083-0.211 0.251-0.055 0.388 0.090 0.080 0.223 0.093 0.329 0.155 0.087 0.051 0.232 0.117 0.287 0.198-0.052 0.003-0.105 0.045-0.157 0.058-0.101 0.028-0.181 0.010-0.28-0.016-0.124-0.032-0.589-0.214-0.561 0.076 0.015 0.149 0.229 0.252 0.348 0.278 0.102 0.022 0.475 0.070 0.469 0.206-0.007 0.182-0.29 0.063-0.378 0.035-0.128-0.044-0.501-0.118-0.567 0.042-0.124 0.305 0.313 0.361 0.485 0.376 0.051 0.004 0.203 0.061 0.235 0.099 0.055 0.064 0.054 0.119-0.022 0.134 0.012 0.031 0.048 0.044 0.066 0.071 0.020 0.036 0.016 0.079 0.038 0.117 0.031 0.054 0.098 0.099 0.133 0.147 0.003-0.017 0.016-0.029 0.019-0.047 0.099-0.007 0.14-0.119 0.165-0.2 0.041-0.119 0.020-0.216 0.016-0.338-0.006-0.144 0.074-0.048 0.14-0.165 0.089-0.156-0.029-0.345 0.026-0.51 0.221 0.019 0.236-0.351 0.184-0.496-0.034-0.093-0.066-0.108 0.025-0.178 0.076-0.058 0.128-0.106 0.175-0.192 0.038-0.073 0.073-0.147 0.060-0.23-0.010-0.074-0.076-0.141-0.089-0.208-0.022-0.117 0.073-0.095 0.138-0.13 0.074-0.041 0.124-0.138 0.144-0.219 0.020-0.082 0.020-0.178-0.009-0.255-0.025-0.071-0.093-0.146-0.076-0.226 0.117-0.051 0.255-0.112 0.34-0.208 0.057-0.063 0.076-0.112 0.079-0.197z"></path>
<path d="M9.503 26.327c-0.235-0.101-0.509-0.051-0.751-0.007-0.105 0.019-0.173-0.015-0.274-0.031-0.083-0.015-0.162 0.026-0.243 0.032-0.152 0.012-0.299-0.006-0.45 0.022-0.112 0.022-0.203 0.039-0.316 0.036-0.203-0.006-0.411-0.048-0.615 0.019-0.112 0.038-0.118 0.013-0.213-0.057-0.085-0.061-0.179-0.087-0.268-0.136-0.071-0.039-0.051-0.096-0.098-0.138-0.031-0.031-0.055-0.001-0.089-0.019-0.034-0.016-0.022-0.034-0.048-0.055-0.055-0.045-0.019-0.022-0.089-0.035-0.038-0.007-0.054 0.006-0.082-0.017-0.016-0.015-0.025-0.060-0.041-0.080-0.012-0.015-0.042-0.007-0.057-0.026-0.025-0.034-0.015-0.089-0.039-0.124-0.015-0.020-0.051-0.034-0.070-0.052-0.039-0.041-0.085-0.111-0.108-0.153-0.031-0.052-0.022-0.121-0.054-0.169-0.026-0.041-0.070-0.042-0.093-0.096-0.036-0.087-0.023-0.194-0.057-0.287-0.082-0.23-0.074-0.493-0.038-0.733 0.010-0.067 0.003-0.103-0.003-0.165-0.007-0.060 0.004-0.067 0.039-0.128 0.057-0.098 0.007-0.138 0.003-0.239-0.001-0.042 0.010-0.082 0.001-0.127-0.010-0.047-0.034-0.071-0.019-0.118 0.029-0.102 0.172-0.138 0.21-0.246 0.051-0.146-0.114-0.128-0.133-0.238-0.010-0.063 0.125-0.156 0.172-0.189l-0.198-0.165c0.003-0.015-0.004-0.045-0.007-0.060-0.276 0.019-0.522-0.076-0.794-0.020-0.14 0.028-0.363 0.144-0.299 0.321 0.057 0.156 0.233 0.118 0.302 0.254-0.147 0.041-0.265-0.067-0.376 0.103-0.057 0.087-0.031 0.178 0.044 0.24 0.071 0.061 0.221 0.117 0.265 0.208-0.055-0.015-0.16-0.036-0.2-0.032-0.095 0.007-0.16-0.009-0.195 0.073-0.098 0.219 0.131 0.51 0.313 0.611-0.152-0.085-0.392-0.090-0.396 0.121-0.003 0.136 0.083 0.192 0.184 0.259 0.022 0.016 0.089 0.050 0.082 0.093-0.010 0.054-0.069 0.038-0.109 0.050-0.085 0.022-0.128 0.076-0.136 0.165-0.018 0.217 0.337 0.246 0.475 0.318-0.133 0.038-0.367 0.052-0.337 0.254 0.034 0.229 0.337 0.189 0.474 0.281-0.073 0.055-0.105 0.020-0.149 0.133-0.029 0.071-0.035 0.181 0.010 0.252 0.036 0.055 0.159 0.071 0.235 0.076 0.118 0.009 0.189-0.093 0.286-0.147-0.060 0.133-0.391 0.561-0.067 0.552 0.114-0.004 0.182-0.031 0.287-0.077 0.054-0.023 0.098-0.034 0.143-0.071 0.057-0.048 0.082-0.125 0.14-0.175-0.007 0.21-0.153 0.313-0.194 0.504-0.022 0.103 0.010 0.276 0.15 0.249 0.082-0.016 0.138-0.112 0.203-0.159 0.041-0.029 0.085-0.051 0.121-0.090 0.034-0.036 0.055-0.118 0.105-0.122 0.055 0.191-0.105 0.472 0.076 0.627 0.058 0.048 0.111 0.042 0.173 0.017 0.047-0.019 0.103-0.050 0.136-0.085 0.020-0.023 0.042-0.106 0.080-0.101 0.019 0.003 0.074 0.127 0.083 0.143 0.058 0.106 0.114 0.15 0.208 0.224 0.162 0.124 0.286 0.034 0.353-0.136 0.051 0.060 0.2 0.189 0.22 0.255 0.093-0.001 0.232 0.004 0.315-0.050 0.047-0.029 0.098-0.143 0.163-0.14 0.035 0.001 0.090 0.064 0.13 0.074 0.071 0.022 0.12 0.006 0.182-0.023 0.3-0.146 0.71-0.095 0.819 0.268 0.025-0.029 0.044-0.063 0.080-0.058 0.009-0.095 0.176-0.191 0.226-0.281 0.085-0.15 0.138-0.315 0.233-0.462 0.057-0.087 0.114-0.172 0.165-0.261 0.026-0.045 0.080-0.092 0.076-0.146-0.010-0.115-0.159-0.265-0.257-0.308z"></path>
</svg>
