<!-- Generated by IcoMoon.io -->
<svg version="1.1" xmlns="http://www.w3.org/2000/svg" width="32" height="32" viewBox="0 0 32 32">
<title>cross_c</title>
<path fill="#8f0000" d="M24.227 0.611c-0.328 0.069-0.602 0.26-0.778 0.523l-0.003 0.004c-3.602 5.452-6.648 11.182-10.649 16.067-2.348 2.867-5.957 6.702-9.195 7.349-0.568 0.117-0.989 0.613-0.989 1.207 0 0.086 0.009 0.169 0.025 0.25l-0.001-0.008c0.117 0.568 0.613 0.989 1.207 0.989 0.086 0 0.169-0.009 0.25-0.025l-0.008 0.001c4.573-0.915 8.21-5.266 10.615-8.204 4.207-5.138 7.286-10.952 10.8-16.271 0.128-0.191 0.204-0.426 0.204-0.679 0-0.427-0.217-0.803-0.547-1.024l-0.004-0.003c-0.191-0.127-0.425-0.203-0.678-0.203-0.088 0-0.174 0.009-0.257 0.027l0.008-0.001z"></path>
<path fill="#8f0000" d="M9.596 4.659c-0.068-0.013-0.146-0.021-0.227-0.021-0.26 0-0.5 0.080-0.699 0.218l0.004-0.003c-0.325 0.225-0.535 0.595-0.535 1.015 0 0.26 0.081 0.502 0.219 0.7l-0.003-0.004c2.952 4.302 5.607 8.775 8.473 13.232 1.801 2.802 3.726 5.558 5.992 8.095 0.432 0.483 1.058 1.305 1.843 2.042s1.796 1.481 3.127 1.481c0.68 0 1.231-0.551 1.231-1.231v0c0-0.68-0.551-1.231-1.231-1.231v0c-0.332 0-0.86-0.267-1.442-0.814s-1.152-1.281-1.692-1.886c-2.137-2.392-3.989-5.038-5.756-7.787-2.834-4.409-5.502-8.904-8.514-13.293-0.183-0.263-0.459-0.45-0.781-0.512l-0.008-0.001z"></path>
</svg>
