<!-- Generated by IcoMoon.io -->
<svg version="1.1" xmlns="http://www.w3.org/2000/svg" width="32" height="32" viewBox="0 0 32 32">
<title>crumbling_masonry</title>
<path d="M10.528 29.546c-0.749-0.32-1.204-0.661-1.402-1.051-0.305-0.601-0.406-1.962-0.162-2.205 0.21-0.21 1.134 0.759 1.016 1.066-0.069 0.179 0.006 0.223 0.231 0.137 0.19-0.073 0.501 0.025 0.726 0.229 0.369 0.334 0.372 0.372 0.048 0.609-0.312 0.228-0.274 0.295 0.394 0.689 0.473 0.279 0.7 0.541 0.629 0.726-0.141 0.367-0.154 0.366-1.479-0.2zM17.888 29.329c-0.111-0.038-1.31-0.27-2.665-0.515l-2.464-0.445 0.637-0.886c0.35-0.488 0.828-0.935 1.063-0.993s0.542-0.396 0.685-0.75l0.259-0.643 0.242 0.807c0.229 0.765 0.284 0.807 1.041 0.807 0.613 0 0.932 0.135 1.367 0.577 0.312 0.317 0.523 0.692 0.47 0.832s0.026 0.493 0.177 0.784c0.257 0.495 0.246 0.528-0.167 0.513-0.243-0.009-0.533-0.047-0.643-0.086zM16.981 27.212c0-0.111-0.159-0.2-0.353-0.199-0.302 0.003-0.309 0.032-0.051 0.199 0.381 0.246 0.403 0.246 0.403 0zM24.24 28.548c0-0.268 0.136-0.539 0.302-0.602s0.303-0.278 0.304-0.475c0.001-0.198 0.273-0.514 0.605-0.703 0.443-0.252 0.605-0.494 0.607-0.907 0.005-0.762 0.262-1.116 0.832-1.145 0.362-0.018 0.491-0.157 0.54-0.578 0.080-0.698 0.835-0.941 1.522-0.491 0.455 0.298 0.725 1.155 0.731 2.317 0.003 0.544-0.344 0.41-0.604-0.234-0.145-0.359-0.177-0.371-0.188-0.071-0.006 0.199 0.209 0.562 0.48 0.807s0.521 0.714 0.555 1.044c0.061 0.594 0.048 0.602-1.35 0.845-1.925 0.334-1.916 0.335-1.916-0.234 0-0.277 0.087-0.504 0.195-0.504 0.343 0 0.602-0.702 0.377-1.019-0.167-0.236-0.185-0.224-0.092 0.063 0.072 0.223-0.033 0.447-0.283 0.603-0.219 0.137-0.398 0.431-0.398 0.655 0 0.411-0.552 0.74-1.664 0.992-0.486 0.11-0.555 0.066-0.555-0.361zM2.462 27.515c0-0.981 0.229-1.133 0.919-0.611 0.529 0.4 0.694 0.381 0.694-0.078 0-0.213 0.113-0.432 0.252-0.488 0.151-0.061 0.11-0.108-0.101-0.118-0.194-0.009-0.353 0.12-0.353 0.287 0 0.385-0.2 0.382-0.762-0.011-0.517-0.362-0.596-0.896-0.132-0.896 0.218 0 0.279-0.118 0.195-0.382-0.194-0.611 0.437-1.899 1.121-2.29 0.835-0.477 0.935-0.452 1.093 0.268 0.088 0.4 0.409 0.813 0.902 1.16 0.599 0.421 0.795 0.715 0.898 1.345 0.082 0.502 0.366 1.049 0.753 1.448l0.621 0.641-0.681 0.113c-0.89 0.147-4.48 0.52-5.009 0.52-0.353 0-0.411-0.129-0.411-0.907zM11.536 26.809c0-0.249-0.135-0.404-0.353-0.405-0.324-0.001-1.059-0.991-1.059-1.427 0-0.102 0.219-0.185 0.486-0.185 0.412 0 0.508-0.126 0.626-0.826 0.087-0.512 0.056-0.909-0.080-1.046-0.159-0.159-0.144-0.308 0.053-0.535 0.15-0.173 0.328-0.588 0.396-0.92 0.12-0.59 0.115-0.587-0.218 0.101-0.454 0.937-0.429 0.914-0.701 0.642-0.513-0.513-0.554-0.202-0.059 0.447 0.682 0.894 0.537 1.697-0.336 1.872-0.39 0.078-0.556 0.212-0.486 0.393 0.071 0.186-0.054 0.275-0.388 0.275-0.724 0-2.115-0.605-2.115-0.921 0-0.15-0.318-0.525-0.706-0.835-0.928-0.74-0.969-1.522-0.101-1.906 0.333-0.147 0.605-0.321 0.605-0.385 0-0.18-1.2 0.037-1.325 0.239-0.212 0.343-1.134 0.175-1.509-0.275-0.516-0.619-0.485-1.052 0.105-1.439 0.709-0.465 1.006-1.081 0.699-1.451-0.194-0.234-0.171-0.373 0.111-0.685 0.238-0.263 0.324-0.6 0.261-1.027-0.071-0.481 0.024-0.753 0.388-1.117l0.482-0.482h6.235c5.958 0 6.244 0.017 6.444 0.39 0.115 0.215 0.209 0.634 0.209 0.933 0 0.53 0.024 0.541 1.008 0.446 0.701-0.067 1.077-0.014 1.235 0.176 0.303 0.365 0.94 0.345 1.326-0.041 0.487-0.487 1.309-0.28 1.772 0.445 0.369 0.577 1.403 1.056 1.68 0.779 0.055-0.055-0.194-0.16-0.554-0.232s-0.706-0.277-0.769-0.455c-0.36-1.021-1.252-1.298-2.262-0.701-0.532 0.314-0.587 0.307-1.198-0.145l-0.641-0.474 0.462-0.355c0.254-0.195 0.371-0.354 0.26-0.353-0.419 0.004-0.912 0.549-0.789 0.871 0.102 0.266-0.013 0.328-0.601 0.328-0.557 0-0.728-0.082-0.73-0.353-0.002-0.194-0.058-0.557-0.124-0.807l-0.122-0.454h10.331l-0.006 1.966c-0.006 1.75-0.038 1.924-0.295 1.585-0.159-0.21-0.325-0.482-0.369-0.605s-0.136-0.173-0.204-0.111c-0.068 0.062 0.101 0.443 0.376 0.846 0.707 1.041 0.706 3.579-0.002 3.579-0.141 0-0.369-0.136-0.507-0.302-0.173-0.209-0.181-0.302-0.025-0.302 0.124 0 0.216-0.25 0.203-0.555-0.018-0.422-0.047-0.459-0.123-0.151-0.054 0.222-0.193 0.519-0.308 0.66s-0.154 0.312-0.086 0.38c0.157 0.157-0.646 0.781-1.174 0.912-0.344 0.086-0.406-0.004-0.42-0.612-0.009-0.392-0.123-0.748-0.252-0.791-0.366-0.122-0.277-0.39 0.168-0.507 0.423-0.111 0.561-0.829 0.202-1.051-0.111-0.069-0.208-0.369-0.215-0.667l-0.014-0.543-0.226 0.47c-0.17 0.354-0.165 0.568 0.020 0.865 0.297 0.476 0.147 0.782-0.384 0.782-0.496 0-0.491 0.084 0.051 0.816 0.334 0.451 0.385 0.655 0.21 0.831-0.141 0.141-0.188 0.556-0.119 1.060 0.126 0.922-0.271 1.589-1.088 1.827-0.349 0.102-0.459 0.047-0.475-0.235-0.127-2.212-0.375-2.887-1.061-2.887-0.543 0-0.803-0.596-0.598-1.377 0.082-0.315-0.023-0.609-0.337-0.943-0.36-0.383-0.429-0.626-0.329-1.15 0.090-0.471 0.070-0.576-0.071-0.362-0.31 0.473-0.241 0.999 0.207 1.568 0.282 0.359 0.374 0.69 0.294 1.055-0.157 0.716 0.205 1.611 0.652 1.611 0.514 0 0.996 1.148 0.689 1.64-0.272 0.436-0.297 1.171-0.053 1.557 0.105 0.165 0.058 0.503-0.119 0.857-0.29 0.582-0.299 0.584-2.171 0.584-1.528 0-1.902-0.060-2.002-0.319-0.202-0.526-0.146-0.64 0.382-0.772 0.548-0.137 0.671-0.675 0.252-1.101-0.202-0.206-0.158-0.333 0.224-0.645 0.507-0.414 0.261-0.528-0.389-0.18-0.351 0.188-0.39 0.138-0.39-0.496 0-0.694-0.107-0.861-0.907-1.419-0.397-0.277-0.397-0.293-0.028-0.984 0.206-0.387 0.327-0.824 0.268-0.972-0.062-0.156-0.114-0.088-0.123 0.16-0.009 0.236-0.152 0.542-0.318 0.68-0.5 0.415-0.371 1.155 0.252 1.453 0.459 0.219 0.574 0.43 0.665 1.22 0.061 0.525 0.219 1.064 0.353 1.198 0.385 0.385 0.285 0.713-0.261 0.85-0.277 0.070-0.504 0.221-0.504 0.336s-0.091 0.154-0.202 0.085c-0.111-0.069-0.202-0.298-0.202-0.509s-0.181-0.481-0.403-0.6c-0.222-0.119-0.403-0.346-0.403-0.504s-0.159-0.375-0.353-0.481c-0.194-0.106-0.572-0.612-0.839-1.125l-0.486-0.932 0.436-0.305c0.519-0.364 0.534-0.486 0.123-1-0.307-0.384-0.311-0.384-0.2 0.025 0.078 0.286-0.045 0.553-0.394 0.857-0.613 0.533-0.848 0.555-0.97 0.088-0.084-0.32-0.094-0.319-0.116 0.019-0.013 0.213 0.146 0.416 0.373 0.475 0.608 0.159 1.219 1.334 1.041 2.001-0.213 0.798-0.482 0.785-0.929-0.044l-0.392-0.727-0.209 0.611c-0.293 0.855-0.473 0.972-0.8 0.524-0.156-0.214-0.353-0.319-0.438-0.234s-0.057 0.251 0.061 0.37c0.22 0.22 0.124 0.988-0.124 0.988-0.076 0-0.247-0.109-0.38-0.242-0.174-0.174-0.242-0.178-0.242-0.012 0 0.127 0.091 0.286 0.202 0.355 0.6 0.371-0.133 1.311-1.023 1.311-0.456 0-0.591-0.092-0.591-0.403zM7.824 20.154c0.243 0 0.499-0.149 0.569-0.331 0.096-0.25 0.065-0.28-0.13-0.12-0.141 0.116-0.476 0.242-0.745 0.281s-0.529 0.206-0.58 0.372c-0.074 0.244-0.040 0.254 0.176 0.050 0.147-0.139 0.466-0.252 0.709-0.252zM9.52 18.837c0-0.876 0.492-1.152 0.932-0.524 0.166 0.236 0.437 0.43 0.602 0.43s0.591 0.15 0.946 0.334c0.557 0.288 0.61 0.291 0.385 0.020-0.143-0.173-0.506-0.375-0.806-0.451-0.741-0.186-1.051-0.476-1.055-0.986-0.002-0.257-0.063-0.337-0.151-0.2-0.081 0.126-0.33 0.263-0.551 0.305-0.304 0.058-0.432 0.287-0.518 0.931-0.063 0.47-0.040 0.854 0.051 0.854s0.165-0.32 0.165-0.712zM2.584 23.667c-0.067-0.175-0.122-2.217-0.122-4.537v-4.218h3.498l-0.422 0.454c-0.301 0.324-0.391 0.616-0.312 1.019 0.080 0.409-0.013 0.695-0.334 1.037-0.389 0.415-0.411 0.526-0.177 0.91 0.237 0.389 0.213 0.482-0.217 0.835-0.652 0.534-0.926 0.393-0.934-0.481-0.010-1.007-0.222-1.134-0.261-0.155-0.017 0.438 0.059 0.852 0.169 0.92s0.2 0.425 0.2 0.793 0.136 0.782 0.303 0.92c0.435 0.361 0.38 0.674-0.32 1.812-0.659 1.071-0.872 1.209-1.070 0.692zM2.462 7.854v-5.848h12.686l0.059 1.462c0.033 0.804 0.033 3.436 0.001 5.848l-0.058 4.386h-12.689zM16.67 13.449c-0.054-0.142-0.075-2.752-0.045-5.8l0.054-5.543 13.013-0.106-0.107 11.601-6.408 0.053c-5.055 0.042-6.429-0.001-6.507-0.205z"></path>
</svg>
