<!-- Generated by IcoMoon.io -->
<svg version="1.1" xmlns="http://www.w3.org/2000/svg" width="33" height="32" viewBox="0 0 33 32">
<title>cult_of_the_yellow_sign</title>
<path d="M14.735 11.356c0.053 0.009 0.106 0.018 0.159 0.030 0.248 0.041 0.492 0.041 0.74 0.036 0.204 0 0.477 0.085 0.655-0.024 0.053-0.036 0.11-0.105 0.159-0.15 0.090-0.085 0.195-0.13 0.265-0.232 0.041-0.053 0.049-0.118 0.097-0.167 0.041-0.053 0.082-0.053 0.134-0.073 0.036 0.122-0.041 0.284 0.018 0.406 0.029 0.049 0.081 0.074 0.126 0.094 0.049 0.030 0.094 0.057 0.138 0.089 0.041 0.030 0.073 0.036 0.122 0.030 0.018 0 0.199-0.049 0.196-0.066 0.029 0.094 0.003 0.232 0.003 0.329v0.533c0 0.066 0.033 0.22-0.003 0.269-0.053 0.077-0.269 0.077-0.343 0.045-0.122 0.009-0.252 0.021-0.361 0.085-0.061 0.037-0.134 0.118-0.179 0.179-0.045 0.065-0.036 0.143-0.077 0.207-0.009-0.012-0.029-0.030-0.038-0.049-0.006-0.021 0-0.053-0.006-0.069-0.024-0.036-0.126-0.089-0.167-0.098-0.074-0.024-0.155-0.024-0.232-0.036-0.085-0.021-0.179-0.024-0.269-0.049-0.114-0.032-0.237-0.077-0.35-0.036-0.216 0.077-0.378 0.060-0.585-0.021-0.033-0.015-0.074-0.030-0.11-0.024-0.069 0.012-0.113 0.077-0.146 0.134-0.042 0.065-0.078 0.187-0.155 0.211-0.094 0.032-0.235 0.003-0.333 0.003-0.074 0-0.183 0.021-0.249-0.032-0.052-0.037-0.003 0-0.030-0.066-0.009-0.012-0.030-0.061-0.032-0.081-0.030-0.171-0.036-0.313-0.098-0.476-0.045-0.114-0.049-0.211-0.009-0.326 0.036-0.109 0.049-0.199 0.045-0.313-0.003-0.074-0.041-0.216 0.012-0.281 0.049-0.069 0.216-0.073 0.293-0.069 0.024 0 0.049 0.003 0.074 0.012 0.065 0.012 0.126 0.018 0.195 0.018 0.114 0.003 0.228 0.012 0.342 0.030z"></path>
<path d="M13.913 15.576c-0.065 0.061-0.049 0.122-0.049 0.192 0.003 0.097-0.009 0.187 0 0.284 0.003 0.066-0.009 0.081 0.102 0.115 0.118 0.029 0.265 0.045 0.386 0.036 0.032 0 0.061-0.012 0.085-0.021 0.061-0.024 0.11-0.045 0.179-0.049 0.207-0.009 0.415 0.003 0.623 0.003 0.114-0.003 0.223 0 0.342 0.012 0.085 0.018 0.171 0.032 0.252 0.032 0.094 0 0.183 0.021 0.273 0.024 0.061 0.003 0.097 0.006 0.154 0.037 0.053 0.029 0.118 0.049 0.175 0.081 0.049 0.029 0.094 0.073 0.138 0.105 0.029 0.024 0.057 0.038 0.081 0.057 0.021 0.012 0.053 0.061 0.069 0.066 0.038 0.012 0.012 0.003 0.049-0.018 0.029-0.012 0.053-0.041 0.077-0.061 0.066-0.065 0.094-0.146 0.172-0.195 0.029-0.024 0.052-0.045 0.077-0.069 0.036-0.033 0.053-0.021 0.094-0.029 0.045-0.012 0.090-0.069 0.122-0.105 0.073-0.074 0.049-0.13 0.069-0.224 0.021-0.119 0.053-0.245 0.073-0.367 0.012-0.089 0.049-0.228 0.003-0.317-0.093-0.012-0.187-0.018-0.276-0.021-0.029-0.003-0.098 0.009-0.122-0.003-0.033-0.018-0.029-0.045-0.041-0.069-0.018-0.033-0.042-0.036-0.070-0.070-0.041-0.053-0.065-0.122-0.090-0.187-0.021-0.045-0.040-0.151-0.081-0.183-0.090-0.070-0.211 0.081-0.269 0.146-0.073 0.085-0.118 0.183-0.211 0.245-0.057 0.036-0.13 0.065-0.199 0.089-0.167 0.065-0.379 0.032-0.55 0.032-0.22 0-0.443 0-0.663-0.021-0.081-0.006-0.151-0.006-0.224 0.021-0.030 0.009-0.045 0.018-0.077 0.018-0.196 0.015-0.391-0.012-0.582 0-0.13 0.015-0.098 0.048-0.094 0.126v0.284z"></path>
<path d="M17.546 11.393c0.012-0.009 0.021-0.018 0.029-0.021-0.009 0.183-0.003 0.367-0.003 0.549v1.648c0 1.026 0.003 2.051 0 3.073 0 0.321 0.032 0.643 0.053 0.968 0.006 0.13 0.012 0.265 0.015 0.391 0.003 0.164 0.009 0.318-0.029 0.472-0.032 0.138 0 0.245 0.057 0.375 0.029 0.069 0.041 0.134 0.032 0.207-0.012 0.106-0.045 0.188 0.003 0.288 0.036 0.081 0.094 0.171 0.146 0.241 0.029 0.036 0.061 0.045 0.090 0.077 0.045 0.045 0.066 0.102 0.123 0.143 0.097 0.085 0.252 0.175 0.313 0.297 0.045 0.094 0.090 0.171 0.208 0.15-0.22 0.003-0.44-0.006-0.663 0-0.115 0.003-0.228 0.053-0.35 0.057-0.143 0.009-0.281 0.018-0.423 0.049-0.164 0.036-0.326 0.036-0.484 0.069-0.143 0.029-0.265 0.082-0.399 0.119-0.066 0.012-0.11 0.032-0.171 0.065-0.085 0.036-0.175 0.049-0.265 0.077-0.081 0.029-0.183 0.094-0.277 0.057 0.009-0.037 0.13-0.090 0.159-0.114 0.073-0.070 0.109-0.138 0.146-0.228 0.036-0.102 0.049-0.203 0.106-0.293 0.036-0.066 0.085-0.115 0.094-0.188 0.012-0.065 0.029-0.102 0.049-0.162 0.085-0.167 0.15-0.337 0.216-0.512 0.069-0.179 0.085-0.33 0.056-0.518-0.012-0.126-0.056-0.244-0.085-0.366-0.024-0.122-0.012-0.228-0.003-0.35 0.003-0.073 0-0.151-0.006-0.228-0.038-0.504-0.018-1.013-0.018-1.514 0-0.679 0.018-1.334-0.041-2.010-0.012-0.109-0.018-0.216 0.009-0.325 0.041-0.203 0.109-0.374 0.114-0.59 0.018-0.619-0.003-1.242-0.003-1.86 0-0.146-0.009-0.297 0.003-0.44 0.018-0.15 0.036-0.276 0.036-0.427 0-0.179 0.009-0.361 0-0.549 0-0.081-0.021-0.154 0.061-0.179 0.049-0.012 0.13 0.003 0.179 0.003h0.667c0.081 0 0.090-0.018 0.119 0.061 0.097 0.256 0.045 0.639 0.045 0.916 0 0.089 0.015 0.178 0.041 0.272 0.012 0.066 0.015 0.204 0.056 0.249z"></path>
<path d="M16.412 24.609c-0.115-0.021-0.232-0.061-0.343-0.118-0.101-0.045-0.186-0.119-0.264-0.211-0.085-0.119-0.155-0.256-0.224-0.387-0.119-0.204-0.179-0.435-0.294-0.644-0.045-0.081-0.105-0.158-0.158-0.235-0.089-0.13-0.122-0.281-0.179-0.427-0.030-0.090-0.085-0.179-0.085-0.269-0.003-0.045 0.003-0.090 0-0.13-0.003-0.102-0.009-0.204 0.009-0.305 0.036-0.2 0.167-0.346 0.288-0.505 0.094-0.13 0.22-0.272 0.383-0.325 0.069-0.024 0.122-0.069 0.182-0.106 0.053-0.032 0.074-0.032 0.134-0.048 0.041-0.009 0.085-0.033 0.119-0.049 0.041-0.024 0.060-0.053 0.109-0.070 0.077-0.032 0.179-0.053 0.269-0.081 0.167-0.049 0.288-0.126 0.444-0.207 0.093-0.053 0.162-0.118 0.252-0.179 0.216 0.151 0.382 0.354 0.622 0.468 0.138 0.070 0.265 0.045 0.412 0.066 0.122 0.012 0.269 0.118 0.367 0.191 0.122 0.098 0.211 0.204 0.325 0.309 0.045 0.053 0.057 0.115 0.094 0.171 0.024 0.029 0.057 0.049 0.077 0.074 0.018 0.041 0.009 0.065 0.021 0.101 0.021 0.049 0.065 0.085 0.090 0.126 0.048 0.074 0.032 0.164 0.032 0.249 0 0.101 0.036 0.288-0.070 0.353-0.036 0.021-0.069 0.012-0.105 0.018-0.11 0.021-0.171 0.126-0.241 0.203-0.118 0.134-0.195 0.301-0.288 0.448-0.094 0.155-0.22 0.293-0.333 0.427s-0.196 0.249-0.334 0.358c-0.101 0.081-0.223 0.167-0.272 0.293-0.033 0.077-0.053 0.106-0.126 0.162-0.061 0.045-0.127 0.087-0.2 0.115-0.138 0.049-0.284 0.085-0.423 0.138-0.094 0.036-0.192 0.041-0.288 0.029zM17.254 25.385c0.057-0.015 0.106-0.041 0.162-0.053 0.245-0.093 0.566-0.085 0.778-0.244 0.146-0.106 0.223-0.26 0.293-0.415 0.101-0.228 0.272-0.407 0.41-0.61 0.106-0.159 0.241-0.309 0.354-0.465 0.115-0.134 0.252-0.252 0.358-0.391 0.113-0.154 0.113-0.361 0.147-0.541 0.036-0.232 0.203-0.44 0.227-0.672 0.009-0.13 0.033-0.272 0.029-0.402-0.012-0.196-0.126-0.318-0.2-0.493-0.056-0.13-0.085-0.237-0.175-0.346-0.191-0.22-0.423-0.367-0.671-0.501-0.175-0.101-0.354-0.15-0.546-0.231-0.113-0.045-0.231-0.045-0.354-0.053-0.032-0.003-0.419-0.041-0.264 0.106-0.090-0.003-0.179-0.012-0.269-0.021-0.164-0.009-0.314 0.053-0.456 0.126-0.049 0.029-0.101 0.057-0.154 0.077-0.074-0.056-0.143-0.118-0.237-0.15-0.085-0.032-0.179-0.053-0.273-0.085-0.182-0.057-0.361-0.077-0.553-0.090-0.154-0.018-0.313-0.024-0.472-0.037-0.207-0.021-0.395 0.032-0.578 0.138-0.216 0.123-0.374 0.326-0.521 0.521-0.154 0.213-0.313 0.484-0.382 0.741-0.030 0.11-0.069 0.22-0.089 0.33-0.012 0.109-0.015 0.22-0.021 0.325-0.018 0.155-0.057 0.322 0 0.48 0.021 0.070 0.041 0.13 0.045 0.207 0.012 0.204 0.114 0.343 0.227 0.514 0.089 0.146 0.147 0.313 0.228 0.463 0.077 0.13 0.196 0.22 0.252 0.358 0.045 0.097 0.11 0.175 0.155 0.269 0.053 0.101 0.13 0.203 0.199 0.284 0.119 0.151 0.245 0.284 0.395 0.395 0.122 0.094 0.252 0.162 0.375 0.252 0.252 0.199 0.613 0.273 0.931 0.293 0.138 0.012 0.273 0.033 0.412 0 0.077-0.024 0.158-0.052 0.235-0.077z"></path>
<path d="M25.567 18.908c-0.018 0.138-0.045 0.273-0.078 0.407-0.041 0.179-0.126 0.354-0.178 0.529-0.029 0.098-0.066 0.195-0.082 0.301-0.012 0.090-0.003 0.171-0.036 0.26-0.041 0.118-0.105 0.239-0.15 0.362-0.066 0.178-0.085 0.37-0.155 0.553-0.090 0.248-0.15 0.504-0.231 0.76-0.061 0.167-0.081 0.334-0.168 0.493-0.061 0.105-0.081 0.235-0.133 0.337-0.115 0.192-0.2 0.395-0.338 0.553-0.101 0.119-0.056 0.045-0.138 0.066-0.090 0.029-0.090 0.085-0.13 0.167-0.082 0.171-0.22 0.309-0.343 0.459-0.333 0.399-0.671 0.83-1.070 1.172-0.232 0.2-0.468 0.403-0.692 0.615-0.273 0.265-0.561 0.448-0.875 0.663-0.143 0.102-0.273 0.167-0.44 0.207-0.256 0.061-0.5 0.188-0.752 0.26-0.29 0.077-0.558 0.245-0.855 0.305-0.175 0.036-0.382 0.032-0.566 0.049-0.252 0.024-0.455 0.090-0.692-0.021-0.097-0.042-0.175-0.061-0.248-0.13-0.102-0.094-0.188-0.179-0.322-0.237-0.138-0.057-0.284-0.094-0.427-0.13-0.211-0.049-0.399-0.036-0.61 0.003-0.199 0.045-0.378 0.032-0.573-0.045-0.123-0.045-0.237-0.13-0.371-0.147-0.126-0.021-0.26 0.009-0.391-0.041-0.138-0.056-0.273-0.126-0.415-0.187-0.126-0.045-0.211-0.151-0.326-0.224-0.113-0.074-0.244-0.115-0.354-0.196-0.28-0.207-0.606-0.415-0.923-0.561-0.224-0.098-0.403-0.232-0.61-0.354-0.175-0.101-0.367-0.183-0.55-0.272-0.415-0.204-0.858-0.407-1.249-0.659-0.195-0.134-0.395-0.277-0.566-0.444-0.175-0.175-0.301-0.395-0.444-0.594-0.329-0.465-0.545-0.99-0.826-1.481-0.203-0.363-0.338-0.766-0.468-1.163-0.154-0.497-0.346-0.977-0.468-1.477-0.102-0.407-0.252-0.79-0.305-1.212-0.045-0.35-0.073-0.717-0.073-1.071 0-0.35 0.052-0.7 0.077-1.046 0.024-0.26 0.032-0.508 0.098-0.765 0.126-0.48 0.244-0.96 0.435-1.42 0.142-0.342 0.391-0.578 0.581-0.888 0.143-0.239 0.301-0.452 0.463-0.671 0.151-0.216 0.26-0.48 0.465-0.651 0.094-0.082 0.175-0.053 0.28-0.094 0.151-0.061 0.26-0.241 0.375-0.342 0.239-0.224 0.5-0.42 0.769-0.606 0.346-0.237 0.785-0.302 1.151-0.521 0.241-0.147 0.505-0.448 0.815-0.416-0.070-0.030-0.11-0.057-0.183-0.049 0.036-0.045 0.089-0.049 0.134-0.077 0.069-0.040 0.126-0.102 0.179-0.158 0.154-0.147 0.37-0.286 0.553-0.387 0.126-0.066 0.265-0.098 0.391-0.151 0.147-0.061 0.277-0.13 0.435-0.167 0.224-0.053 0.419-0.175 0.639-0.237 0.277-0.073 0.574-0.094 0.858-0.109 0.558-0.030 1.172-0.036 1.685 0.203 0.171 0.077 0.337 0.151 0.508 0.228 0.211 0.098 0.391 0.207 0.63 0.232 0.294 0.032 0.57 0.109 0.843 0.223 0.269 0.11 0.549 0.188 0.814 0.298 0.313 0.133 0.562 0.338 0.847 0.513 0.256 0.154 0.525 0.276 0.777 0.435 0.228 0.134 0.48 0.309 0.667 0.496 0.171 0.171 0.313 0.382 0.469 0.566 0.15 0.179 0.325 0.322 0.476 0.497 0.154 0.175 0.284 0.382 0.406 0.578 0.269 0.41 0.48 0.854 0.684 1.298 0.219 0.483 0.476 0.948 0.683 1.44 0.171 0.403 0.354 0.843 0.399 1.282 0.015 0.207 0.015 0.431 0.069 0.639 0.032 0.138 0.061 0.286 0.109 0.423 0.119 0.305 0.102 0.635 0.090 0.952-0.012 0.192-0.024 0.379-0.052 0.57zM26.784 17.974c-0.090-0.48-0.098-0.969-0.196-1.449-0.138-0.724-0.265-1.456-0.44-2.184-0.142-0.595-0.314-1.197-0.553-1.763-0.239-0.574-0.7-1.054-1.119-1.514-0.448-0.493-0.941-0.948-1.408-1.428-0.22-0.232-0.468-0.435-0.7-0.655-0.248-0.22-0.476-0.459-0.748-0.651-0.253-0.175-0.525-0.322-0.798-0.455-0.297-0.147-0.619-0.318-0.94-0.407-0.314-0.081-0.644-0.106-0.956-0.171-0.358-0.073-0.708-0.171-1.058-0.248-0.854-0.192-1.713-0.305-2.58-0.106-0.577 0.134-1.098 0.382-1.655 0.562-0.346 0.106-0.704 0.207-1.014 0.395-0.073 0.041-0.126 0.057-0.207 0.077-0.204 0.045-0.399 0.143-0.574 0.252-0.224 0.134-0.431 0.29-0.668 0.412-0.15 0.081-0.297 0.147-0.435 0.248-0.265 0.203-0.557 0.277-0.85 0.42-0.196 0.101-0.387 0.199-0.574 0.304-0.191 0.11-0.35 0.147-0.463 0.354-0.122 0.22-0.371 0.363-0.546 0.542-0.284 0.28-0.545 0.602-0.809 0.899-0.228 0.26-0.387 0.525-0.557 0.818-0.329 0.566-0.517 1.197-0.773 1.795-0.237 0.541-0.334 1.123-0.387 1.709-0.061 0.594-0.098 1.183-0.018 1.778 0.085 0.59 0.293 1.131 0.444 1.704 0.186 0.696 0.406 1.376 0.643 2.059 0.199 0.574 0.48 1.123 0.777 1.656 0.138 0.248 0.244 0.521 0.412 0.752 0.195 0.269 0.438 0.533 0.667 0.766 0.387 0.387 0.798 0.777 1.278 1.042 0.566 0.317 1.188 0.598 1.713 0.984 1.054 0.777 2.198 1.457 3.447 1.859 0.366 0.119 0.732 0.22 1.106 0.314 0.286 0.069 0.566 0.098 0.851 0.147 0.288 0.052 0.562 0.113 0.854 0.113 0.378 0 0.704-0.122 1.058-0.228 0.22-0.061 0.435-0.114 0.643-0.191 0.293-0.094 0.533-0.256 0.79-0.412 0.622-0.374 1.249-0.7 1.794-1.184 0.452-0.398 0.9-0.805 1.368-1.188 0.493-0.412 0.98-0.81 1.404-1.298 0.382-0.44 0.667-0.945 0.956-1.445 0.252-0.444 0.521-0.944 0.618-1.449 0.066-0.317 0.094-0.643 0.151-0.96 0.053-0.248 0.101-0.476 0.105-0.728 0.018-0.602 0.057-1.257-0.052-1.847z"></path>
<path d="M15.545 4.317c-0.102 0.171-0.192 0.342-0.183 0.549 0.012 0.26-0.057 0.513 0.122 0.737 0.041 0.053 0.106 0.077 0.147 0.126 0.056 0.057 0.069 0.126 0.133 0.171 0.11 0.073 0.224 0.036 0.334 0.003 0.293-0.077 0.472 0.256 0.777 0.175 0.395-0.102 0.671-0.537 0.724-0.912 0.041-0.329 0.151-0.769-0.13-1.014-0.37-0.317-0.984-0.26-1.432-0.211-0.186 0.018-0.309 0.053-0.41 0.232-0.030 0.049-0.053 0.094-0.081 0.143z"></path>
<path d="M27.48 11.714c-0.098 0.106-0.155 0.293-0.192 0.427-0.090 0.286-0.154 0.615-0.162 0.916-0.003 0.11-0.018 0.245 0.009 0.354 0.024 0.102 0.089 0.151 0.133 0.239 0.042 0.082 0.045 0.168 0.115 0.241 0.118 0.13 0.269 0.147 0.419 0.216 0.143 0.069 0.228 0.154 0.382 0.032 0.134-0.105 0.29-0.276 0.391-0.419 0.094-0.134 0.147-0.297 0.237-0.435 0.081-0.114 0.154-0.203 0.183-0.346 0.021-0.106-0.012-0.183-0.041-0.286-0.038-0.138-0.138-0.244-0.2-0.378-0.041-0.081-0.065-0.162-0.109-0.235-0.036-0.061-0.090-0.089-0.138-0.134-0.069-0.078-0.102-0.159-0.183-0.224-0.109-0.085-0.183-0.070-0.318-0.070-0.268 0-0.459-0.036-0.524 0.102z"></path>
<path d="M4.608 12.048c0.045-0.048 0.105-0.081 0.154-0.13 0.077-0.056 0.138-0.146 0.232-0.182 0.154-0.070 0.374-0.030 0.513 0.060 0.065 0.036 0.109 0.085 0.171 0.126 0.085 0.061 0.179 0.102 0.235 0.2 0.102 0.175 0.061 0.41 0.061 0.606 0 0.235 0.073 0.704-0.228 0.809-0.227 0.077-0.443-0.126-0.655-0.154-0.231-0.024-0.741 0.021-0.842-0.245-0.081-0.216 0.009-0.455 0.109-0.651 0.074-0.134 0.134-0.297 0.228-0.415 0.009-0.003 0.012-0.018 0.018-0.024z"></path>
<path d="M8.408 26.624c-0.106 0.122-0.313 0.182-0.363 0.35-0.041 0.158 0.070 0.235 0.175 0.305 0.159 0.105 0.273 0.272 0.427 0.382 0.346 0.256 0.648 0.451 1.107 0.227 0.301-0.15 0.325-0.337 0.325-0.663 0-0.403-0.175-0.762-0.545-0.948-0.143-0.070-0.313-0.127-0.468-0.098-0.269 0.049-0.802 0.231-0.762 0.594z"></path>
<path d="M23.875 27.079c-0.049 0.138-0.053 0.26-0.053 0.407 0 0.126-0.036 0.325 0.009 0.444 0.061 0.162 0.362 0.398 0.521 0.455 0.109 0.045 0.288 0.018 0.41 0.012 0.126 0 0.273-0.024 0.391-0.085 0.094-0.041 0.147-0.115 0.224-0.183 0.073-0.073 0.175-0.143 0.228-0.232 0.069-0.109 0.081-0.284 0.090-0.41 0.029-0.318-0.021-0.64-0.224-0.892-0.085-0.114-0.162-0.301-0.277-0.382-0.085-0.065-0.235-0.098-0.329-0.126-0.102-0.029-0.228-0.045-0.33-0.012-0.133 0.037-0.199 0.167-0.329 0.216-0.147 0.057-0.314 0.061-0.435 0.175-0.15 0.138-0.188 0.371-0.199 0.566z"></path>
</svg>
