<!-- Generated by IcoMoon.io -->
<svg version="1.1" xmlns="http://www.w3.org/2000/svg" width="34" height="32" viewBox="0 0 34 32">
<title>curse_of_the_rougarou</title>
<path d="M15.851 15.418l0.042 0.035 0.008-0.056zM10.434 19.568c-0.094 0.057-0.084 0.125-0.011 0.188 0.008 0.009 0.046 0 0.054-0.013 0.048-0.073 0.042-0.136-0.043-0.176zM24.719 18.935c-0.226 0.009-0.261 0.088-0.21 0.223 0.136 0.031 0.186-0.045 0.21-0.223zM24.336 11.131c0.003-0.026 0.017-0.056 0.011-0.077-0.065-0.185-0.215-0.284-0.394-0.336-0.009-0.003-0.074 0.091-0.071 0.136 0.009 0.178 0.148 0.252 0.289 0.306 0.045 0.018 0.108-0.018 0.165-0.031zM28.488 13.84c-0.513 0.077-0.745 0.345-0.937 0.705 0.227 0.018 0.435 0.085 0.634-0.046 0.172-0.149 0.198-0.368 0.303-0.659zM22.019 10.613c0.394 0.009 0.722 0.046 1.042 0.149 0.198 0.065 0.425 0.068 0.506-0.213-0.498-0.393-0.99-0.461-1.548 0.065zM23.965 13.764c-0.1-0.636-0.58-0.92-0.99-1.314-0.376 0.316-0.226 0.651-0.223 0.979 0.373 0.195 0.657 0.534 1.212 0.335zM15.469 17.599c-0.233 0.213-0.442 0.52-0.605 0.858-0.104 0.464-0.012 0.906 0.141 1.35 0.215 0.082 0.354-0.026 0.456-0.162-0.068-1.072 0.557-2.030 0.461-3.117-0.47 0.223-0.221 0.653-0.453 1.072zM16.715 9.25c-0.702-0.617-1.481-1.030-2.425-1.036-0.357-0.004-0.663-0.132-0.987-0.237-0.15-0.050-0.314-0.252-0.486-0.018 0.032 0.398 0.452 0.479 0.629 0.765 0.735 1.206 1.885 2.047 2.791 3.102 0.127 0.152 0.329 0.181 0.461-0.094-0.147-0.317-0.3-0.653-0.464-1.010 0.354-0.382 0.433-0.861 0.479-1.475zM25.913 15.155c-0.025-0.054 0.025-0.212-0.125-0.090 0.051 0.022 0.1 0.044 0.152 0.065-0.049 0.473 0.285 0.585 0.773 0.812-0.159-0.544-0.405-0.742-0.799-0.787zM15.594 21.509c0.283-0.309 0.141-0.657 0.135-1.045-0.291 0.373-0.215 0.718-0.11 1.067-0.292 0.116-0.237 0.234 0 0.357-0.046 0.249-0.447 0.348-0.312 0.687 0.459-0.128 0.459-0.128 0.284-0.666 0-0.135 0.002-0.267 0.003-0.399zM4.528 2.766c1.126 0.119 2.064 0.615 2.893 1.423 0.266 0.026 0.551 0.054 0.844 0.165 0.719 0.271 1.478 0.433 2.219 0.64 1.048 0.291 2.063 0.66 3 1.225 0.289 0.173 0.623 0.272 0.937 0.405 0.278 0.116 0.541 0.099 0.846-0.108-0.295-0.608-0.88-0.855-1.393-1.194-0.534-0.354-1.047-0.745-1.685-1.2 1.082-0.090 1.832 0.393 2.633 0.759 0.818 0.376 1.511 0.934 2.214 1.395 0.357-0.064 0.272-0.359 0.402-0.458-0.031-0.501-0.776-0.711-0.39-1.279 0.233-0.056 0.331 0.116 0.461 0.251 0.433 0.458 0.945 0.809 1.502 1.099 0.187 0.097 0.354 0.116 0.513-0.15-0.326-0.872-1.225-1.597-1.039-2.804 1.464 0.761 2.593 1.877 3.931 2.657 0.359-0.452-0.391-0.64-0.139-1.098 0.337 0.323 0.67 0.622 0.977 0.945 0.923 0.976 1.973 1.794 3.082 2.545 0.517 0.348 1.002 0.731 1.109 1.413 0.065 0.398 0.391 0.62 0.629 0.888 0.093 0.275 0.009 0.578 0.192 0.821-0.090 0.162-0.176 0.322-0.266 0.484-0.64 0.064-0.64 0.064-0.863 0.687 0.365-0.188 0.646-0.398 0.84-0.714 0.254 0.198 0.557 0.26 0.875 0.238 0.062 0.501 0.447 0.793 0.462 1.263 0.015 0.437-0.367 0.821-0.102 1.228-0.153 0.22-0.271 0.398-0.388 0.567 0.124 0.237 0.359 0.382 0.391 0.648-0.107 0.566-0.705 0.278-1.007 0.605-0.128 0.366-0.005 0.829-0.22 1.181 0.267 0.758 0.396 1.491 0.393 2.27-0.079 0.21-0.1 0.552-0.267 0.656-0.503 0.308-0.755 0.816-1.135 1.215-0.121 0.125-0.328 0.167-0.518 0.257-0.172-0.277 0.167-0.439 0.093-0.711-0.376 0.003-0.612 0.602-1.075 0.297-0.084-0.237 0.17-0.458 0.060-0.704-0.048-0.022-0.102-0.064-0.152-0.057-0.274 0.026-0.484 0.305-0.878 0.167 0.014-0.286 0.266-0.62 0.018-0.937-0.117 0.065-0.244 0.135-0.402 0.221-0.594-0.359-0.303-1.262-0.943-1.601-0.138 0.668 0.1 1.486-0.776 1.887-0.401-0.357-0.476-0.892-0.871-1.338-0.159 0.733-0.55 1.277-0.84 1.866-0.693 1.401-1.144 2.855-0.433 4.512 0.142-0.537 0.266-1.001 0.387-1.454 0.391 0.053 0.498 0.348 0.7 0.523 0.124 0.303-0.046 0.727 0.418 0.903 0.087-0.035 0.201-0.076 0.32-0.119 0.391 0.124 0.348 0.541 0.517 0.816 0.458-0.193 0.632-0.591 0.781-1.039 0.402 0.071 0.554 0.401 0.733 0.547 0.622 1.78-0.23 2.638-2.182 3.159-1.305 0.232-2.95-0.17-4.608-0.798-0.337 0.149-0.719 0.167-1.14 0.107-0.314-0.786-0.634-1.584-0.97-2.422 0.077-0.388 0.198-0.807 0.176-1.25-0.018-0.401-0.025-0.809 0.176-1.146-0.104-0.207-0.232-0.263-0.509-0.185-0.053 1.022-0.4 2.030-0.413 3.121-0.015 1.072 0.36 2.052 0.58 3.192-0.803-0.357-1.033-1.115-1.587-1.506-0.153-0.748-0.43-1.426-0.762-2.109-0.405 0.207-0.302 0.813-0.844 0.867-0.453-0.453-0.207-1.211-0.603-1.733 0.039-0.045 0.099-0.116 0.198-0.232-0.394-0.543-0.065-1.202-0.19-1.851-0.495-0.127-0.691 0.196-0.881 0.509-0.224 0.37-0.353 0.809-0.847 1.059-0.113-0.288-0.141-0.571-0.071-0.852 0.165-0.691 0.097-1.413 0.469-2.083 0.189-0.345 0.142-0.837 0.359-1.191-0.212-0.297-0.537-0.235-0.82-0.398-0.080-0.687 0.331-1.338 0.264-2.1-0.574-0.013-0.919 0.452-1.378 0.653-0.45 0.199-0.818 0.51-1.263 0.827 0.201-2.015 1.426-3.26 2.961-4.449-0.642-0.056-1.004 0.247-1.42 0.489-0.283-0.649 0.243-0.781 0.532-1.047-0.122-0.366-0.513-0.235-0.614-0.156-0.58 0.447-1.31 0.572-1.904 0.968-0.227 0.153-0.435 0.342-0.64 0.507-0.173-0.060-0.204-0.21-0.162-0.302 0.345-0.772 0.516-1.65 1.305-2.157 0.155-0.1 0.286-0.247 0.408-0.385 0.815-0.919 1.945-1.211 3.048-1.566 0.11-0.035 0.244-0.002 0.399-0.002 0.297 0.455 0.727 0.747 1.22 0.968 0.283 0.125 0.549 0.302 0.741 0.546 0.554 0.702 1.249 1.191 2.092 1.477 0.034 0.398 0.213 0.663 0.626 0.773 0.070-0.653 0.070-0.653-0.651-0.744 0.005-0.453-0.317-0.755-0.58-1.027-0.69-0.707-1.413-1.384-2.177-2.009-0.546-0.45-0.965-0.949-1.146-1.638-0.025-0.088-0.026-0.195-0.079-0.264-1.058-1.43-1.907-3.046-3.564-3.928-0.302-0.162-0.578-0.354-0.82-0.605-0.284-0.291-0.617-0.526-0.999-0.685-0.56-0.229-0.999-0.602-1.307-1.126z"></path>
</svg>
