<!-- Generated by IcoMoon.io -->
<svg version="1.1" xmlns="http://www.w3.org/2000/svg" width="36" height="32" viewBox="0 0 36 32">
<title>curtain_call</title>
<path d="M16.77 10.232c-0.041 0.114-0.154 0.248-0.212 0.357-0.081 0.134-0.192 0.26-0.26 0.399-0.077 0.143-0.094 0.322-0.114 0.484-0.033 0.212 0.006 0.358 0.073 0.566 0.089 0.284 0.158 0.619 0.366 0.85 0.237 0.273 0.725 0.098 1.042 0.143 0.119 0.018 0.224 0.081 0.339 0.106 0.13 0.030 0.284 0.012 0.423 0.012 0.342-0.003 0.741 0.062 1.082-0.003 0.382-0.074 0.538-0.533 0.626-0.86 0.119-0.41 0.151-0.814-0.056-1.2-0.081-0.147-0.183-0.277-0.269-0.423-0.109-0.179-0.179-0.399-0.35-0.538-0.35-0.28-0.753-0.431-1.14-0.643-0.182-0.098-0.492-0.138-0.703-0.077-0.172 0.049-0.294 0.207-0.416 0.325-0.122 0.126-0.248 0.305-0.382 0.42-0.045 0.036-0.057 0.065-0.049 0.081z"></path>
<path d="M17.067 14.639v4.575c0 0.167-0.003 0.338 0 0.5 0.003 0.293-0.069 0.546-0.109 0.834-0.036 0.216-0.098 0.728 0.105 0.884 0.106 0.089 0.237 0.097 0.346 0.186 0.098 0.085 0.183 0.188 0.265 0.286 0.175 0.212 0.378 0.317 0.627 0.403 0.212 0.077 0.309 0.216 0.537 0.195 0.281-0.679 0.395-1.465 0.525-2.182 0.081-0.459 0.030-0.923-0.056-1.375-0.078-0.407-0.045-0.85-0.041-1.262 0.006-0.423 0.154-0.805 0.178-1.221 0.018-0.24-0.006-0.464-0.052-0.7-0.081-0.435-0.224-0.871-0.435-1.262-0.057-0.105-0.13-0.199-0.204-0.297-0.089-0.105-0.122-0.105-0.256-0.105-0.158 0-0.293 0.032-0.451 0.077-0.085 0.030-0.204 0.077-0.277 0.094-0.053 0.012-0.118-0.009-0.167 0.003-0.032 0.012-0.049 0.048-0.073 0.056-0.138 0.033-0.151 0.018-0.228 0.155-0.098 0.186-0.171 0.284-0.232 0.154z"></path>
<path d="M11.988 6.564c0.106 0.009 0.232 0.081 0.333 0.115 0.147 0.044 0.29 0.114 0.44 0.13 0.216 0.032 0.533-0.172 0.493 0.174-0.057 0.379 0.032 0.713-0.114 1.071-0.098 0.244-0.143 0.504-0.253 0.749-0.13 0.293-0.313 0.553-0.41 0.854-0.094 0.265-0.126 0.541-0.179 0.809-0.057 0.26-0.024 0.521-0.065 0.777-0.042 0.208-0.155 0.42-0.237 0.615-0.147 0.35-0.423 0.57-0.639 0.867-0.126 0.175-0.216 0.33-0.375 0.484-0.146 0.138-0.26 0.309-0.378 0.472-0.147 0.196-0.293 0.382-0.468 0.553-0.126 0.123-0.212 0.301-0.342 0.412-0.115 0.085-0.183 0.102-0.265 0.228-0.143 0.235-0.301 0.366-0.501 0.545-0.227 0.196-0.395 0.444-0.618 0.639-0.208 0.179-0.428 0.33-0.619 0.533-0.171 0.171-0.338 0.342-0.538 0.489-0.284 0.199-0.611 0.309-0.895 0.504-0.106 0.070-0.175 0.119-0.293 0.166-0.143 0.053-0.309 0.094-0.44 0.175-0.122 0.070-0.208 0.123-0.338 0.171-0.065 0.030-0.085 0.045-0.15 0.082-0.171 0.109-0.284 0.146-0.423-0.009-0.163-0.188-0.237-0.435-0.399-0.615-0.049-0.062-0.13-0.085-0.162-0.162 0.171-0.102 0.382-0.030 0.488-0.249 0.078-0.162 0.089-0.301 0.22-0.438 0.318-0.338 0.749-0.566 1.165-0.762 0.171-0.081 0.357-0.102 0.528-0.179 0.183-0.081 0.318-0.212 0.476-0.325 0.102-0.074 0.224-0.126 0.309-0.22 0.070-0.074 0.115-0.179 0.179-0.265 0.252-0.322 0.553-0.582 0.79-0.916 0.216-0.305 0.459-0.587 0.671-0.892 0.11-0.15 0.196-0.329 0.313-0.476 0.11-0.142 0.269-0.244 0.375-0.387 0.227-0.288 0.451-0.598 0.611-0.931 0.073-0.159 0.097-0.334 0.146-0.501 0.053-0.175 0.166-0.321 0.2-0.5 0.097-0.517 0.374-0.997 0.419-1.53 0.021-0.24-0.024-0.484-0.024-0.716 0-0.13-0.003-0.273 0.033-0.395 0.012-0.045 0.024-0.089 0.056-0.126 0.089-0.13 0.204-0.26 0.294-0.42 0.073-0.13 0.182-0.26 0.235-0.395-0.003 0.018 0.057-0.158 0.041-0.142 0.041-0.049 0.249-0.070 0.309-0.066z"></path>
<path d="M24.27 6.515c-0.142 0.030-0.248 0.155-0.391 0.179-0.049 0.012-0.118-0.009-0.162 0-0.066 0.024-0.077 0.018-0.114 0.077-0.066 0.102-0.098 0.342-0.11 0.469-0.009 0.15 0.018 0.313 0 0.472-0.021 0.182-0.057 0.35-0.053 0.541 0 0.265 0.003 0.533 0 0.802-0.003 0.354 0.102 0.704 0.309 0.989 0.098 0.143 0.2 0.269 0.277 0.419 0.094 0.192 0.146 0.395 0.248 0.587 0.192 0.358 0.326 0.749 0.529 1.111 0.166 0.305 0.378 0.631 0.627 0.879 0.065 0.062 0.138 0.114 0.195 0.188 0.196 0.235 0.322 0.541 0.513 0.789 0.106 0.045 0.216 0.082 0.326 0.127 0.252 0.109 0.41 0.276 0.611 0.468 0.191 0.179 0.398 0.321 0.528 0.557 0.053 0.138 0.115 0.269 0.175 0.403 0.049 0.081 0.106 0.158 0.179 0.227 0.049 0.094 0.089 0.183 0.138 0.273 0.073 0.081 0.158 0.138 0.26 0.179 0.098 0.049 0.188 0.102 0.269 0.171 0.203 0.179 0.374 0.358 0.553 0.553 0.070 0.081 0.147 0.163 0.216 0.237 0.081 0.085 0.16 0.195 0.245 0.277 0.101 0.088 0.24 0.114 0.313 0.231 0.094 0.143 0.138 0.256 0.277 0.371 0.126 0.101 0.175 0.179 0.354 0.182 0.179 0.012 0.451 0.049 0.619-0.012 0.191-0.070 0.391-0.249 0.573-0.35 0.081-0.049 0.066-0.018 0.098-0.122 0.032-0.119 0.045-0.26 0.066-0.383 0.024-0.146 0.109-0.284 0.126-0.423-0.094 0.003-0.13 0.098-0.228 0.102-0.13 0-0.256-0.11-0.346-0.179-0.44-0.305-0.94-0.574-1.189-1.063-0.114-0.207-0.227-0.391-0.387-0.573-0.26-0.294-0.537-0.606-0.842-0.855-0.456-0.366-0.965-0.549-1.27-1.082-0.115-0.212-0.2-0.427-0.313-0.639-0.143-0.265-0.325-0.456-0.533-0.664-0.244-0.244-0.455-0.521-0.683-0.773-0.179-0.203-0.37-0.407-0.517-0.634-0.171-0.253-0.293-0.525-0.313-0.826-0.021-0.269-0.049-0.497-0.126-0.757-0.081-0.293-0.188-0.574-0.248-0.879-0.062-0.28-0.126-0.562-0.224-0.833-0.098-0.265-0.13-0.794-0.493-0.815-0.030 0-0.052 0.003-0.081 0.003z"></path>
<path d="M7.146 6.74c1.102 0.003 2.197-0.053 3.296-0.061 0.26-0.018 0.513-0.003 0.773 0.030 0.207 0.049 0.419 0.102 0.63 0.158 0.44 0.089 0.9 0.049 1.347 0.053 0.587 0 1.161 0.13 1.754 0.13 0.44 0 0.871-0.109 1.311-0.109 0.224 0.012 0.448 0.044 0.664 0.088 0.162 0.018 0.325 0.021 0.483 0.009 0.089 0.009 0.171 0.062 0.249 0.066 0.097 0.012 0.191-0.049 0.284-0.081 0.179-0.053 0.358-0.041 0.542-0.041 0.606 0 1.2 0.015 1.786 0.182 0.326 0.094 0.668 0.053 1.001 0.053 0.484 0 0.986 0.045 1.466-0.003 0.321-0.032 0.639-0.126 0.952-0.179 0.391-0.061 0.786-0.069 1.176-0.061 0.203 0.009 0.382 0.081 0.566 0.171 0.114 0.057 0.227 0.118 0.342 0.171 0.118 0.032 0.24 0.040 0.354 0.024 0.447 0.003 0.871 0.188 1.318 0.179 0.155 0 0.342-0.030 0.493 0.009 0.171 0.041 0.325 0.126 0.496 0.158 0.024 0.009 0.171 0.037 0.213 0.018 0.081-0.045 0.048-0.118 0.048-0.216-0.006-0.333 0-0.664 0-1.001 0-0.167-0.012-0.329 0.024-0.493 0.030-0.13 0.041-0.395-0.070-0.5-0.065 0.012-0.126 0.041-0.166 0.098-0.109 0.073-0.22 0.122-0.338 0.146-0.265 0.074-0.533 0.057-0.805 0.057-0.737 0.003-1.466-0.256-2.173-0.456-0.354-0.097-0.692-0.244-1.054-0.325-0.378-0.081-0.761-0.154-1.144-0.192-0.789-0.077-1.559 0.018-2.348 0.021-0.931 0.009-1.855 0.098-2.787 0.113-0.627 0.012-1.246 0.143-1.868 0.126-0.249-0.012-0.488-0.081-0.732-0.114-0.346-0.045-0.721-0.021-1.071-0.018-0.309 0.003-0.619 0.062-0.92 0.11-0.37 0.053-0.741 0.199-1.115 0.199-0.452 0-0.891 0.098-1.339 0.119-0.468 0.015-0.944-0.003-1.413-0.003-0.256 0-0.517-0.030-0.761 0.012-0.102 0.018-0.199 0.057-0.297 0.053-0.151-0.018-0.26-0.147-0.412-0.175-0.186-0.032-0.321 0.196-0.427 0.35-0.073 0.118-0.138 0.244-0.22 0.358-0.049 0.065-0.094 0.089-0.109 0.171-0.036 0.191 0.021 0.325-0.085 0.496-0.041 0.057-0.294 0.379 0.085 0.102z"></path>
<path d="M12.591 23.108c0.322 0.018 0.647 0.030 0.961 0.077 0.305 0.045 0.574 0.143 0.879 0.151 0.798 0.030 1.563-0.070 2.357-0.115 0.732-0.041 1.432-0.308 2.169-0.362 0.496-0.036 0.961 0.15 1.444 0.175 0.343 0.015 0.68-0.018 1.014-0.045 0.602-0.045 1.168 0.114 1.762 0.114 0.249 0 0.489-0.049 0.733-0.061 0.154-0.009 0.308 0.006 0.464-0.018 0.374-0.053 0.696-0.13 1.082-0.081 0.407 0.056 0.72-0.024 1.111-0.074 0.241-0.032 0.485-0.065 0.717-0.13 0.162-0.048 0.363-0.114 0.529-0.041 0.052 0.057 0.109 0.11 0.166 0.163 0.077 0.049 0.162 0.073 0.256 0.061 0.228 0.003 0.363-0.036 0.557 0.098 0.11 0.077 0.183 0.126 0.326 0.134 0.065 0.012 0.175-0.032 0.227-0.003 0.143 0.069 0.030 0.419 0.003 0.542-0.009 0.093 0.024 0.207-0.065 0.24-0.040 0-0.089-0.003-0.134-0.012-0.094 0.012-0.166 0.049-0.228 0.126-0.098 0.082-0.192 0.192-0.309 0.232-0.134 0.045-0.325 0.009-0.468 0.009-0.228 0-0.448 0.021-0.679 0.021-0.119 0-0.249 0.009-0.363-0.030-0.069-0.021-0.109-0.053-0.179-0.057-0.098 0-0.216 0.053-0.309 0.070-0.532 0.109-1.078 0.053-1.616 0.053-0.667 0.006-1.318-0.053-1.986-0.106-0.671-0.049-1.347 0.021-2.022-0.021-0.508-0.032-1.014-0.069-1.522-0.045-0.546 0.030-1.087 0.033-1.624 0.062-0.354 0.018-0.692 0.106-1.042 0.114-0.5 0.003-0.993 0.134-1.493 0.2-0.403 0.049-0.802 0.036-1.209 0.045-0.277 0-0.538-0.077-0.811-0.073-0.305 0.012-0.574 0.138-0.875 0.13-0.357-0.012-0.716 0.015-1.074-0.003-0.378-0.030-0.781-0.138-1.155-0.209-0.232-0.045-0.469-0.077-0.696-0.13-0.228-0.061-0.554-0.265-0.781-0.158-0.098 0.049-0.115 0.094-0.237 0.073-0.158-0.032-0.284-0.056-0.448-0.056-0.105 0.006-0.154-0.018-0.248-0.041-0.126-0.033-0.284-0.024-0.415-0.018-0.147 0.012-0.286 0.057-0.431 0.065-0.188 0.003-0.334-0.030-0.505-0.061-0.097-0.018-0.154 0.012-0.203-0.094-0.018-0.036-0.041-0.171-0.049-0.216-0.021-0.126 0.066-0.455 0.122-0.582 0.033-0.069 0.089-0.162 0.163-0.186 0.024-0.012 0.081 0.003 0.118-0.009 0.061-0.018 0.102-0.081 0.162-0.098 0.118-0.036 0.309-0.024 0.427-0.003 0.126 0.018 0.241 0.085 0.367 0.11 0.183 0.024 0.362 0.003 0.549 0.003 0.166-0.003 0.309 0.052 0.464 0.069 0.115 0.018 0.196-0.018 0.305-0.057 0.298-0.114 0.542-0.006 0.86-0.012h0.415c0.203 0 0.407-0.003 0.611 0 0.284 0.003 0.57-0.094 0.85-0.018 0.326 0.094 0.664 0.069 1.005 0.085z"></path>
<path d="M8.167 26.75c-0.049 0-0.101 0.009-0.15 0-0.089-0.003-0.175-0.057-0.265-0.053-0.167 0.018-0.204 0.168-0.252 0.309-0.074 0.179-0.127 0.371-0.143 0.557-0.018 0.196-0.102 0.371-0.098 0.566 0 0.2-0.018 0.346 0.134 0.488 0.188 0.166 0.382 0.346 0.59 0.476 0.269 0.175 0.529 0.13 0.839 0.13 0.212 0 0.399 0 0.602-0.049 0.318-0.073 0.48-0.447 0.619-0.7 0.143-0.244 0.045-0.415-0.009-0.671-0.049-0.232-0.009-0.762-0.293-0.863-0.207-0.070-0.399-0.077-0.587-0.196-0.154-0.094-0.321-0.098-0.468-0.183-0.073-0.048-0.126-0.154-0.203-0.186-0.081-0.032-0.237-0.021-0.33-0.009-0.146 0.009-0.532 0.188 0.012 0.382z"></path>
<path d="M13.792 25.72c-0.273 0-0.521-0.003-0.781 0.061-0.265 0.057-0.399 0.074-0.582 0.294-0.192 0.203-0.367 0.431-0.504 0.675-0.143 0.237-0.277 0.472-0.334 0.745-0.056 0.329 0.012 0.44 0.334 0.549 0.28 0.089 0.415 0.237 0.611 0.448 0.122 0.126 0.272 0.288 0.447 0.322 0.277 0.061 0.696 0.030 0.928-0.13 0.459-0.305 0.619-0.713 0.683-1.238 0.053-0.455 0.012-0.94-0.265-1.306-0.097-0.126-0.142-0.305-0.301-0.366-0.089-0.033-0.313-0.115-0.235-0.053z"></path>
<path d="M22.187 26.669c-0.402 0.098-0.903 0.143-1.196 0.472-0.171 0.196-0.277 0.513-0.378 0.762-0.082 0.207-0.196 0.488-0.217 0.72-0.012 0.13-0.032 0.374 0.009 0.5 0.062 0.147 0.273 0.228 0.416 0.277 0.122 0.036 0.212 0.066 0.297 0.158 0.045 0.053 0.077 0.168 0.13 0.209 0.081 0.052 0.395 0.015 0.484 0.006 0.248-0.006 0.488-0.146 0.716-0.235 0.245-0.106 0.42-0.244 0.598-0.44 0.286-0.309 0.35-0.761 0.334-1.176-0.003-0.342-0.2-0.737-0.44-0.98-0.134-0.13-0.427-0.557-0.753-0.273z"></path>
<path d="M26.599 26.079c-0.003 0.109-0.224 0.061-0.298 0.061-0.175-0.009-0.382-0.015-0.545 0.070-0.171 0.093-0.277 0.321-0.35 0.492-0.126 0.273-0.256 0.651-0.293 0.952-0.077 0.529 0.455 0.839 0.854 1.063 0.228 0.126 0.488 0.288 0.757 0.199 0.252-0.081 0.447-0.244 0.716-0.293 0.57-0.102 1.123-0.293 1.274-0.912 0.089-0.35-0.057-0.504-0.326-0.732-0.146-0.122-0.293-0.265-0.443-0.382-0.253-0.188-0.631-0.163-0.855-0.354-0.089-0.077-0.134-0.118-0.26-0.162-0.138-0.049-0.325-0.232-0.231 0z"></path>
<path d="M17.658 26.079c-0.066 0.093-0.253 0.077-0.35 0.097-0.13 0.033-0.245 0.062-0.35 0.147-0.232 0.195-0.448 0.566-0.424 0.875 0.343 0.073-0.081 0.786-0.006 0.993 0.049 0.138 0.227 0.154 0.357 0.203 0.245 0.094 0.383 0.286 0.595 0.416 0.793 0.492 1.461-0.407 1.672-1.075 0.098-0.308 0.179-0.577 0.062-0.887-0.045-0.114-0.062-0.26-0.143-0.358-0.069-0.081-0.244-0.134-0.342-0.179-0.162-0.069-0.338-0.073-0.493-0.171-0.073-0.049-0.146-0.094-0.224-0.138-0.061-0.036-0.114-0.085-0.178-0.105-0.11-0.041-0.294 0.003-0.175 0.183z"></path>
</svg>
