<!-- Generated by IcoMoon.io -->
<svg version="1.1" xmlns="http://www.w3.org/2000/svg" width="32" height="32" viewBox="0 0 32 32">
<title>dark_rituals</title>
<path d="M18.786 9.574c-0.285 0.030-0.584-0.011-0.872 0.010-0.115 0.008-0.227 0.026-0.338 0.045-0.151-0.034-0.298-0.073-0.456-0.111-0.124-0.029-0.27-0.068-0.407-0.080-0.153-0.014-0.176 0.023-0.215-0.056-0.027-0.052-0.031-0.106-0.062-0.16-0.076-0.131-0.137-0.269-0.199-0.401-0.085-0.184-0.117-0.368-0.173-0.554-0.057-0.192-0.132-0.383-0.19-0.575-0.004-0.014-0.006-0.030-0.010-0.045 0.005-0.154 0.007-0.308-0.001-0.459-0.022-0.414-0.161-0.821-0.188-1.235-0.020-0.294-0.027-0.62 0.008-0.912 0.070-0.575 0.188-1.136 0.377-1.687 0.067-0.192 0.096-0.345 0.095-0.542 0-0.073-0.009-0.149 0.003-0.221 0.010-0.055 0.097-0.176 0.076-0.229-0.032-0.085-0.345-0.037-0.424-0.048-0.199-0.027-0.416-0.092-0.624-0.090-0.006-0.032-0.021-0.062-0.057-0.087 0.001 0.005 0.001 0.011 0.002 0.017l-0.003-0.018c0 0 0 0 0.001 0.001-0.027-0.27-0.108-0.063-0.108-0.012 0 0.040 0 0.080 0 0.119-0.050 0.018-0.071 0.049-0.129 0.081-0.084 0.048-0.191 0.049-0.282 0.085-0.099 0.040-0.187 0.1-0.285 0.139-0.15 0.059-0.322 0.058-0.478 0.105-0.147 0.043-0.294 0.093-0.446 0.112-0.042 0.005-0.128-0.014-0.143 0.030-0.019 0.051 0.080 0.121 0.105 0.162 0.101 0.162 0.147 0.347 0.218 0.519 0.076 0.178 0.196 0.332 0.27 0.509 0.143 0.344 0.258 0.7 0.395 1.046 0.116 0.295 0.307 0.556 0.408 0.86 0.038 0.114 0.076 0.231 0.111 0.348-0.016 0.182-0.011 0.363-0.029 0.546-0.028 0.285-0.074 0.572-0.113 0.858-0.027 0.203-0.061 0.404-0.115 0.606-0.055 0.206-0.145 0.421-0.147 0.628-0.002 0.142 0.002 0.285 0.002 0.426 0 0.052 0.011 0.106 0.002 0.157-0.015 0.083-0.173 0.11-0.312 0.149-0.369 0.103-0.735 0.212-1.088 0.328-0.145 0.048-0.284 0.101-0.421 0.155-0.086-0.001-0.174-0.003-0.253 0.007 0.044 0.014 0.089 0.026 0.134 0.040-0.019 0.007-0.038 0.014-0.057 0.022-0.062 0.025-0.163 0.080-0.246 0.085 0.231-0.020 0.472-0.003 0.708-0.004 0.037 0.008 0.075 0.019 0.113 0.026 0.309 0.058 0.557 0.147 0.845 0.236 0.124 0.038 0.269 0.086 0.407 0.102 0.153 0.018 0.176-0.028 0.215 0.072 0.027 0.068 0.031 0.135 0.062 0.205 0.076 0.167 0.137 0.344 0.199 0.512 0.085 0.234 0.117 0.469 0.173 0.706 0.057 0.245 0.132 0.489 0.19 0.734 0.058 0.244 0.056 0.493 0.109 0.739 0.075 0.346 0.167 0.681 0.208 1.030 0.035 0.302 0.104 0.603 0.141 0.905 0.047 0.371 0.057 0.742 0.079 1.113 0.043 0.693 0.085 1.386 0.095 2.079 0.005 0.314 0.063 0.627 0.057 0.941-0.002 0.087-0.032 0.201 0.056 0.279 0-0.007-0.001-0.014-0.002-0.022 0.001 0.007 0.002 0.016 0.003 0.023 0 0 0-0.001-0.001-0.001 0.027 0.345 0.108 0.080 0.108 0.015 0.001-0.212 0-0.425 0-0.638 0-0.534 0.014-1.059 0.061-1.592 0.051-0.575 0.040-1.151 0.090-1.726 0.029-0.327 0.007-0.652 0.067-0.978 0.062-0.337 0.041-0.673 0.067-1.010 0.027-0.364 0.073-0.731 0.112-1.094 0.027-0.26 0.061-0.517 0.115-0.774 0.055-0.262 0.145-0.536 0.147-0.8 0.002-0.182-0.002-0.363-0.002-0.544 0-0.066-0.011-0.136-0.002-0.201 0.015-0.105 0.173-0.139 0.312-0.189 0.369-0.132 0.735-0.271 1.088-0.419 0.096-0.040 0.188-0.084 0.28-0.128 0.132-0.001 0.272 0.007 0.394-0.007-0.084-0.021-0.173-0.040-0.261-0.059 0.061-0.031 0.123-0.061 0.184-0.093 0.062-0.031 0.163-0.101 0.246-0.108z"></path>
<path d="M12.747 22.426c0.285-0.030 0.584 0.011 0.872-0.010 0.115-0.008 0.227-0.026 0.338-0.045 0.151 0.034 0.298 0.073 0.456 0.111 0.124 0.030 0.269 0.067 0.407 0.080 0.153 0.014 0.176-0.023 0.215 0.056 0.027 0.052 0.031 0.106 0.062 0.16 0.076 0.131 0.137 0.269 0.199 0.401 0.085 0.184 0.117 0.368 0.173 0.554 0.057 0.192 0.132 0.384 0.19 0.575 0.004 0.016 0.006 0.030 0.010 0.045-0.005 0.155-0.007 0.308 0.001 0.459 0.022 0.414 0.161 0.821 0.188 1.235 0.020 0.294 0.027 0.619-0.008 0.912-0.070 0.575-0.188 1.136-0.377 1.687-0.066 0.192-0.096 0.345-0.095 0.542 0 0.073 0.009 0.149-0.003 0.221-0.010 0.055-0.097 0.176-0.076 0.229 0.032 0.085 0.345 0.037 0.424 0.048 0.199 0.027 0.416 0.092 0.624 0.090 0.006 0.032 0.020 0.062 0.057 0.087-0.001-0.005-0.001-0.011-0.002-0.017 0.001 0.007 0.002 0.012 0.003 0.018 0 0-0.001 0-0.001-0.001 0.027 0.27 0.108 0.063 0.108 0.012 0-0.040 0-0.080 0-0.12 0.049-0.018 0.071-0.049 0.129-0.081 0.084-0.048 0.191-0.049 0.282-0.085 0.099-0.040 0.187-0.1 0.285-0.139 0.15-0.059 0.322-0.058 0.478-0.104 0.145-0.044 0.294-0.094 0.446-0.113 0.042-0.005 0.128 0.015 0.143-0.030 0.019-0.051-0.080-0.121-0.106-0.162-0.1-0.161-0.145-0.347-0.217-0.519-0.076-0.178-0.196-0.332-0.27-0.509-0.143-0.344-0.258-0.7-0.395-1.046-0.116-0.295-0.307-0.556-0.409-0.86-0.038-0.114-0.076-0.231-0.111-0.348 0.016-0.182 0.012-0.363 0.029-0.546 0.028-0.285 0.074-0.572 0.113-0.856 0.027-0.204 0.061-0.405 0.115-0.607 0.055-0.206 0.145-0.421 0.147-0.628 0.002-0.142-0.002-0.285-0.002-0.426 0-0.051-0.012-0.106-0.002-0.157 0.015-0.083 0.173-0.11 0.312-0.149 0.369-0.103 0.735-0.212 1.088-0.328 0.145-0.048 0.284-0.101 0.421-0.155 0.086 0.001 0.174 0.003 0.253-0.007-0.044-0.014-0.089-0.026-0.134-0.039 0.019-0.007 0.038-0.015 0.057-0.022 0.062-0.025 0.163-0.080 0.246-0.085-0.231 0.020-0.472 0.003-0.708 0.004-0.037-0.008-0.075-0.019-0.113-0.026-0.309-0.058-0.557-0.147-0.845-0.236-0.124-0.037-0.269-0.086-0.407-0.102-0.153-0.018-0.176 0.029-0.215-0.072-0.027-0.068-0.031-0.135-0.062-0.205-0.076-0.167-0.137-0.343-0.199-0.512-0.085-0.234-0.117-0.469-0.173-0.706-0.057-0.245-0.132-0.488-0.19-0.734-0.058-0.244-0.056-0.493-0.109-0.738-0.075-0.347-0.167-0.682-0.208-1.031-0.035-0.302-0.104-0.603-0.141-0.905-0.047-0.371-0.057-0.742-0.079-1.113-0.043-0.693-0.085-1.386-0.095-2.079-0.005-0.314-0.063-0.627-0.057-0.941 0.002-0.087 0.032-0.201-0.056-0.279 0 0.007 0.001 0.014 0.002 0.022-0.001-0.007-0.002-0.016-0.003-0.023 0 0 0 0.001 0.001 0.001-0.027-0.345-0.108-0.080-0.108-0.014-0.001 0.212 0 0.425 0 0.638 0 0.534-0.014 1.059-0.061 1.592-0.051 0.575-0.040 1.151-0.090 1.727-0.029 0.327-0.007 0.652-0.066 0.978-0.062 0.337-0.041 0.673-0.066 1.010-0.027 0.364-0.073 0.731-0.112 1.093-0.027 0.26-0.061 0.517-0.115 0.774-0.055 0.262-0.145 0.536-0.147 0.801-0.002 0.181 0.002 0.362 0.002 0.544 0 0.064 0.011 0.135 0.002 0.2-0.015 0.105-0.173 0.14-0.312 0.189-0.369 0.132-0.735 0.271-1.088 0.419-0.096 0.040-0.188 0.084-0.28 0.128-0.132 0.001-0.272-0.007-0.394 0.007 0.084 0.021 0.173 0.040 0.261 0.059-0.061 0.031-0.123 0.061-0.184 0.093-0.062 0.031-0.163 0.101-0.246 0.108z"></path>
<path d="M14.238 15.544c-0.054 0.012-0.053-0.014-0.095-0.023-0.065-0.014-0.128-0.022-0.196-0.025-0.315-0.011-0.633 0.001-0.948 0.001h-2.196c-1.24 0-2.48 0-3.72 0-0.236 0-0.492 0.028-0.726-0.011-0.193-0.031-0.361-0.035-0.558-0.035-0.326 0.001-0.654 0-0.98 0h-1.387c-0.102 0-0.292-0.036-0.388-0.004-0.099 0.032-0.128 0.225-0.15 0.331-0.019 0.086-0.008 0.179-0.008 0.267 0 0.081 0.001 0.162 0 0.243-0.001 0.089 0.018 0.113 0.035 0.186 0.035 0.14-0.068 0.545 0.051 0.626 0.073 0.050 0.379-0.057 0.404-0.064 0.257-0.069 0.496-0.131 0.761-0.173 0.263-0.040 0.527-0.093 0.791-0.122 0.337-0.037 0.686-0.010 1.023-0.010h1.151c0.509 0 1.027 0.026 1.536 0.003 0.266-0.011 0.539-0.084 0.803-0.119 0.289-0.036 0.58-0.059 0.855-0.154 0.191-0.067 0.375-0.093 0.572-0.141 0.073-0.018 0.138-0.046 0.208-0.071 0.135-0.049 0.251-0.055 0.391-0.073 0.225-0.028 0.439-0.11 0.666-0.129 0.173-0.014 0.333-0.025 0.504-0.055 0.248-0.045 0.467-0.097 0.711-0.179 0.109-0.037 0.225-0.117 0.336-0.134 0.107-0.016 0.216-0.033 0.553-0.139z"></path>
<path d="M17.58 15.452h10.706c0.138 0 0.276 0.001 0.415 0 0.154 0 0.373-0.047 0.509 0.038-0.012 0.204-0.096 0.394-0.096 0.602 0 0.068-0.002 0.126 0.010 0.193 0.004 0.026 0.059 0.183 0.040 0.224-0.027 0.056-0.042 0.037-0.101 0.042-0.262 0.016-0.529-0.001-0.79-0.001h-1.299c-0.73 0-1.473 0.048-2.195-0.057-0.57-0.083-1.14-0.147-1.709-0.239-0.593-0.098-1.184-0.209-1.786-0.208-0.48 0.001-0.96-0.003-1.44 0.001-0.265 0.003-0.505-0.082-0.764-0.128-0.187-0.032-0.378-0.048-0.566-0.078-0.134-0.022-0.248-0.075-0.376-0.106-0.156-0.038-0.285-0.079-0.429-0.148-0.109-0.051-0.283-0.093-0.129-0.136z"></path>
<path d="M16.664 10.326c0-0.012 0-0.025 0-0.037 0.283-0.057 0.589-0.108 0.876-0.135 0.396-0.038 0.788-0.104 1.185-0.104 0.455 0 0.865 0.115 1.246 0.367 0.121 0.080 0.294 0.153 0.391 0.259 0.049 0.052 0.075 0.133 0.112 0.19 0.046 0.072 0.109 0.124 0.147 0.198 0.133 0.269 0.114 0.629 0.116 0.92 0.002 0.239-0.078 0.457-0.242 0.635-0.17 0.185-0.333 0.287-0.582 0.363-0.194 0.058-0.439 0.072-0.64 0.035-0.127-0.022-0.266-0.064-0.378-0.127-0.109-0.060-0.195-0.171-0.218-0.005-0.028 0.201 0.098 0.411 0.218 0.552 0.075 0.088 0.125 0.139 0.25 0.175 0.175 0.048 0.365 0.058 0.544 0.056 0.339-0.003 0.607-0.036 0.903-0.218 0.133-0.081 0.231-0.187 0.339-0.296 0.13-0.129 0.3-0.246 0.414-0.384 0.191-0.235 0.343-0.579 0.391-0.877 0.043-0.259-0.027-0.527-0.091-0.775-0.082-0.319-0.267-0.596-0.437-0.875-0.073-0.118-0.185-0.28-0.286-0.377-0.119-0.115-0.279-0.17-0.425-0.236-0.346-0.156-0.789-0.174-1.168-0.173-0.19 0.001-0.404 0.023-0.593-0.011-0.223-0.038-0.449-0.088-0.675-0.117-0.199-0.026-0.403-0.010-0.603-0.010-0.324 0-0.652-0.011-0.976-0.001-0.248 0.007-0.491 0.047-0.739 0.047-0.259 0.001-0.512 0.075-0.771 0.093z"></path>
<path d="M15.291 21.54h-0.935c-0.499 0-1.013 0.040-1.506-0.046-0.367-0.062-0.687-0.204-1.002-0.398-0.255-0.158-0.511-0.528-0.612-0.818-0.045-0.131-0.066-0.257-0.064-0.395 0.001-0.14-0.028-0.311 0.001-0.449 0.043-0.198 0.232-0.396 0.398-0.504 0.116-0.076 0.244-0.116 0.381-0.132 0.053-0.007 0.106 0.001 0.157-0.008 0.042-0.010 0.073-0.040 0.115-0.045 0.063-0.008 0.135 0.030 0.194 0.049 0.080 0.025 0.174 0.032 0.248 0.075-0.161-0.287-0.475-0.597-0.795-0.707-0.166-0.057-0.416-0.081-0.587-0.059-0.185 0.024-0.359 0.165-0.494 0.282-0.649 0.558-0.809 1.381-0.809 2.205 0 0.237-0.024 0.44 0.072 0.659 0.112 0.259 0.245 0.439 0.451 0.634 0.342 0.324 0.836 0.37 1.289 0.39 0.263 0.012 0.515 0.047 0.78 0.047 0.18-0.001 0.361 0 0.54 0h1.262z"></path>
<path d="M17.58 5.977c0.679-0.134 1.373-0.16 2.062-0.14 0.771 0.021 1.53 0.192 2.293 0.286 1.184 0.145 2.376 0.769 2.981 1.82 0.252 0.438 0.339 0.927 0.422 1.419 0.086 0.504 0.181 1.023 0.208 1.534 0.012 0.207-0.021 0.415 0.008 0.622 0.040 0.277 0.035 0.545 0.035 0.825 0.001 0.668 0.001 1.336 0 2.004 0 0.386-0.046 0.761-0.046 1.146 0.001 0.383 0 0.765 0 1.148 0 0.366 0.009 0.733 0.001 1.099-0.006 0.295-0.053 0.601-0.095 0.891-0.021 0.14-0.086 0.31-0.133 0.448s-0.102 0.248-0.185 0.366c-0.080 0.113-0.123 0.248-0.205 0.36-0.073 0.1-0.222 0.217-0.324 0.29-0.252 0.182-0.638 0.243-0.934 0.289-0.421 0.066-0.811 0.247-1.241 0.242-0.297-0.003-0.595 0-0.893 0-0.188 0-0.376-0.007-0.564-0.001-0.203 0.004-0.398 0.050-0.601 0.048-0.122-0.001-0.245-0.005-0.367-0.001-0.14 0.004-0.268 0.050-0.41 0.048-0.256-0.003-0.511 0.007-0.767-0.001 0.046-0.010 0.131 0.040 0.178 0.057 0.167 0.061 0.352 0.070 0.525 0.115s0.331 0.037 0.502 0.068c0.216 0.037 0.43 0.084 0.651 0.082 0.95-0.011 1.921 0.074 2.858-0.104 0.477-0.090 0.956-0.091 1.414-0.266 0.202-0.076 0.392-0.095 0.58-0.212 0.229-0.142 0.518-0.299 0.687-0.516 0.235-0.301 0.527-0.643 0.64-1.016 0.145-0.47 0.193-0.971 0.193-1.457 0.001-1.096 0-2.191 0-3.287 0-1.149 0.064-2.311-0.091-3.449-0.081-0.597-0.14-1.166-0.354-1.733-0.227-0.6-0.306-1.227-0.674-1.763-0.173-0.249-0.358-0.488-0.53-0.736-0.13-0.186-0.261-0.351-0.463-0.467-0.518-0.297-1.091-0.408-1.664-0.541-0.548-0.127-1.087-0.323-1.656-0.342-0.654-0.021-1.341-0.033-1.994 0.007-0.564 0.033-1.147 0.155-1.681 0.347-0.137 0.050-0.26 0.114-0.394 0.173-0.142 0.061-0.301 0.089-0.439 0.162-0.114 0.060-0.22 0.264 0.465 0.138z"></path>
<path d="M13.154 27.435c-0.679 0.134-1.373 0.16-2.062 0.14-0.771-0.022-1.53-0.192-2.293-0.286-1.184-0.145-2.376-0.769-2.981-1.82-0.252-0.438-0.339-0.927-0.422-1.419-0.086-0.504-0.181-1.023-0.209-1.534-0.010-0.207 0.022-0.415-0.007-0.622-0.040-0.276-0.035-0.545-0.035-0.825-0.001-0.668-0.001-1.337 0-2.004 0-0.386 0.046-0.761 0.045-1.146 0-0.383 0.001-0.765 0.001-1.148 0-0.366-0.009-0.733-0.001-1.099 0.006-0.295 0.053-0.601 0.095-0.891 0.021-0.14 0.085-0.31 0.132-0.448 0.048-0.138 0.103-0.248 0.186-0.366 0.080-0.113 0.123-0.248 0.204-0.36 0.073-0.1 0.223-0.217 0.324-0.291 0.253-0.181 0.639-0.243 0.936-0.288 0.421-0.065 0.811-0.247 1.241-0.242 0.297 0.003 0.595 0 0.893 0 0.187 0 0.376 0.007 0.564 0.001 0.203-0.004 0.398-0.050 0.601-0.048 0.122 0.001 0.245 0.005 0.367 0.001 0.14-0.004 0.268-0.050 0.41-0.048 0.256 0.003 0.511-0.007 0.767 0.001-0.046 0.010-0.131-0.040-0.178-0.057-0.168-0.061-0.352-0.070-0.525-0.115s-0.331-0.037-0.502-0.068c-0.216-0.037-0.43-0.084-0.651-0.082-0.95 0.011-1.921-0.074-2.858 0.104-0.477 0.090-0.956 0.091-1.414 0.266-0.202 0.076-0.392 0.095-0.58 0.211-0.229 0.143-0.518 0.3-0.687 0.517-0.235 0.301-0.527 0.643-0.64 1.016-0.144 0.47-0.193 0.971-0.194 1.457-0.001 1.096 0 2.191 0 3.287 0 1.149-0.064 2.311 0.091 3.449 0.082 0.597 0.141 1.166 0.355 1.733 0.227 0.6 0.306 1.227 0.674 1.763 0.171 0.249 0.357 0.488 0.53 0.736 0.13 0.186 0.261 0.351 0.463 0.467 0.518 0.297 1.091 0.406 1.664 0.541 0.548 0.127 1.087 0.323 1.656 0.342 0.654 0.021 1.341 0.033 1.994-0.007 0.564-0.033 1.148-0.155 1.681-0.347 0.137-0.050 0.26-0.114 0.394-0.173 0.142-0.061 0.301-0.089 0.439-0.162 0.114-0.060 0.22-0.264-0.465-0.138z"></path>
</svg>
