<!-- Generated by IcoMoon.io -->
<svg version="1.1" xmlns="http://www.w3.org/2000/svg" width="32" height="32" viewBox="0 0 32 32">
<title>dark_veiling</title>
<path d="M15.515 2.225c0.060-0.078 0.122-0.162 0.196-0.2 0.152-0.078 0.696-0.051 0.85-0.001 0.079 0.192 0.255 0.285 0.398 0.422 0.167 0.16 0.256 0.373 0.388 0.557 0.282 0.395 0.595 0.786 0.859 1.193 0.146 0.226 0.401 0.484 0.41 0.759-0.219-0.011-0.419-0.087-0.639-0.087-0.254-0.001-0.508 0.011-0.762 0.012-0.351 0.001-0.674-0.097-1.029-0.097-0.519 0-1.033 0.076-1.552 0.096-0.221 0.008-0.445-0.014-0.664 0.004-0.173 0.014-0.353 0.071-0.527 0.013 0.007-0.146 0.226-0.353 0.317-0.484 0.271-0.386 0.51-0.795 0.796-1.172 0.263-0.344 0.548-0.615 0.864-0.908 0.032-0.029 0.062-0.067 0.093-0.108z"></path>
<path d="M15.866 2.331c0.121-0.26 0.072-0.66 0.117-0.946 0.222 0.15 0.282-0.053 0.332 0.293 0.030 0.214 0.030 0.443 0.053 0.65-0.11-0.053-0.309-0.058-0.502 0.003z"></path>
<path d="M15.924 1.573c-0.155-0.126-0.256-0.356-0.074-0.501 0.168-0.134 0.355-0.071 0.491 0.063 0.41 0.398-0.323 0.737-0.457 0.398z"></path>
<path d="M13.783 4.763c0.003 0.602 0.251 1.21 0.393 1.795 0.141 0.578 0.167 1.178 0.285 1.755 0.071 0.343 0.046 0.821 0.537 0.625-0.026-0.233-0.045-0.477-0.087-0.708-0.058-0.321-0.16-0.639-0.219-0.962-0.064-0.351-0.133-0.699-0.223-1.042-0.058-0.217-0.112-0.435-0.166-0.652-0.051-0.205-0.088-0.452-0.154-0.646-0.045-0.133 0.017-0.099-0.123-0.147-0.021-0.008-0.243 0.020-0.243-0.018z"></path>
<path d="M14.609 4.588c0.038 0.621 0.177 1.244 0.273 1.845 0.093 0.594 0.141 1.215 0.225 1.808 0.050 0.352 0.070 0.847 0.26 0.632-0.025-0.239-0.047-0.49-0.079-0.729-0.043-0.328-0.105-0.656-0.15-0.988-0.047-0.36-0.097-0.719-0.156-1.072-0.037-0.222-0.072-0.445-0.108-0.669-0.034-0.212-0.064-0.464-0.104-0.665-0.026-0.135 0.001-0.101-0.059-0.148-0.011-0.008-0.1 0.026-0.102-0.013z"></path>
<path d="M17.916 4.627c-0.032 0.392-0.159 0.794-0.227 1.184-0.072 0.403-0.156 0.804-0.235 1.205-0.113 0.568-0.302 1.2-0.343 1.762 0.143 0.001 0.282 0.062 0.416 0.109 0.154-0.489 0.246-1.056 0.364-1.563 0.117-0.499 0.129-1.017 0.242-1.511 0.054-0.238 0.16-0.572 0.143-0.815-0.014-0.18-0.026-0.113-0.158-0.176-0.074-0.035-0.214-0.095-0.202-0.194z"></path>
<path d="M17.373 4.37c-0.053 0.403-0.142 0.813-0.209 1.213-0.068 0.414-0.142 0.825-0.213 1.235-0.101 0.582-0.238 1.227-0.311 1.805 0.053 0.007 0.097 0.074 0.142 0.129 0.108-0.498 0.202-1.081 0.3-1.6 0.096-0.511 0.154-1.045 0.248-1.55 0.045-0.244 0.118-0.585 0.138-0.834 0.013-0.188 0.001-0.118-0.041-0.188-0.022-0.039-0.068-0.106-0.054-0.209z"></path>
<path d="M14.099 9.153c0.16 0.025 0.851-0.056 1.029-0.037 0.338 0.035 0.702 0.070 1.042 0.063 0.653-0.012 1.904-0.095 1.904-0.095l0.021-0.586c0 0-0.474 0.014-0.703 0.066-0.263 0.058-0.533 0.068-0.808 0.068-0.597 0-1.188 0.012-1.778 0.046-0.183 0.011-0.703-0.017-0.703-0.017s-0.013 0.297-0.004 0.491z"></path>
<path d="M15.576 8.925c0.039 0.52 0 1.071 0 1.596 0 0.473 0.013 0.947 0.024 1.416 0.323 0.017 0.667 0.016 0.991 0 0.035-0.614 0.021-1.235 0.045-1.847 0.013-0.388 0.11-0.82 0.078-1.201-0.209-0.064-1.177-0.198-1.136 0.035z"></path>
<path d="M15.208 12.068c0 0 0.462 0.088 0.641 0.106 0.406 0.045 0.749 0 1.148-0.051 0.035-0.137-0.018-0.42-0.018-0.42l-0.303 0.001c0 0-0.402 0.037-0.606 0.051-0.294 0.021-0.548-0.078-0.837-0.066-0.025 0.081-0.025 0.378-0.025 0.378z"></path>
<path d="M15.344 11.953c0.084 1.165-0.134 6.324-0.134 7.685 0 3.308-0.377 6.723-0.221 10.017 0.014 0.31-0.183 0.904 0.043 1.169 0.292 0.343 0.964 0.091 1.355 0.066-0.139-0.319 0.024-0.925 0.062-1.284 0.055-0.526-0.074-7.189 0.050-9.93 0.045-0.972-0.041-1.829 0.050-2.795 0.083-0.884 0.205-2.645 0.205-2.645s-0.035-1.535 0.041-2.094c0.045-0.328-0.229-0.306-0.657-0.335-0.455-0.032-0.586-0.129-0.794 0.146z"></path>
<path d="M29.477 26.404c-2.030-0.206-4.175 0.032-6.225-0.034-1.895-0.062-3.647-0.477-5.546-0.448-2.751 0.042-5.492 0.154-8.243 0.187-1.627 0.018-6.916 0.72-7.066 0.929 2.952 0.175 6.105 0.16 9.063-0.005 1.759-0.1 3.363-0.222 5.133-0.083 2.523 0.2 5.070-0.093 7.593 0.075 0.348 0.024 5.288-0.342 5.291-0.62z"></path>
<path d="M12.667 28.524c-0.813 0.043-3.423 0.824-3.487 1.033 1.487 0.131 3.064 0.070 4.535-0.141 0.875-0.125 1.671-0.272 2.563-0.159 1.273 0.162 6.427 0.294 6.408 0.079-0.013-0.141-1.855-0.775-4.132-0.95-2.368-0.181-5.186 0.1-5.887 0.138z"></path>
<path d="M23.691 23.467c-0.185 0.020-0.39 0.022-0.635 0.014-4.593-0.139-9.288 0.899-13.881 0.272-1.407-0.193-3.29-0.909-3.667-2.502-0.314-1.33 1.271-2.237 2.364-2.258 0.69-0.013 1.156 0.294 1.357 0.988 0.154 0.531 0.047 1.327-0.598 1.406 1.28-0.137 1.603-1.561 0.74-2.425-1.158-1.16-3.057-0.499-3.931 0.663-1.001 1.331-0.801 3.161 0.746 3.921 0.687 0.339 1.323 0.732 2.026 1.035 1.063 0.459 2.333 0.282 3.467 0.193 2.247-0.177 4.497-0.294 6.749-0.381 1.083-0.042 2.31-0.244 3.382-0.1 0.842 0.114 1.545 0.398 2.408 0.074 0.657-0.247 1.089-0.591 1.599-1.027 0.397-0.338 1.067-0.854 1.624-0.782 0.727 0.096 0.612 0.918 0.099 1.293 0.321-0.234 0.828-0.164 1.016-0.625 0.177-0.435-0.108-0.771-0.398-1.038-1.088-0.997-2.111 0.096-3.077 0.711-0.566 0.361-0.912 0.519-1.39 0.569z"></path>
<path d="M18.358 17.012c2.189 0.049 4.345 0.313 6.513-0.137 1.211-0.252 2.818-1.047 3.095-2.654 0.231-1.341-1.168-2.182-2.114-2.156-0.598 0.016-0.992 0.342-1.144 1.044-0.116 0.536 0 1.327 0.561 1.38-1.111-0.083-1.435-1.492-0.716-2.393 0.967-1.209 2.63-0.628 3.423 0.498 0.907 1.286 0.791 3.123-0.524 3.948-0.585 0.367-1.122 0.786-1.722 1.119-0.904 0.502-2.009 0.38-2.993 0.338-4.037-0.171-3.077 0.029-7.184 0.079 0.282-0.415-0.037-0.357-0.025-0.883 0.219-0.009 1.561-0.212 2.831-0.184z"></path>
<path d="M14.513 17.153c-1.544 0.279-4.336 0.594-4.563-0.912-0.116-0.77 0.338-1.026 1.033-1.549 0.699-0.526 1.294-2.001 0.083-2.475-0.499-0.196-1.742-0.152-2.073 0.204 0.883 0.042 1.546 0.158 1.709 0.813 0.206 0.829-0.256 1.173-1.062 1.75-0.778 0.557-0.844 1.36-0.357 2.034 0.438 0.604 2.404 0.984 3.342 1.027 0.737 0.033 1.465-0.133 2.198-0.014 0.21 0.034 0.558 0.258 0.749 0.083 0.096-0.088 0.059-0.951 0.121-0.951-0.489 0-0.98-0.068-1.18-0.009z"></path>
<path d="M16.761 19.795c0.566 0.066 1.134 0.147 1.691 0.183 0.933 0.059 2.904 0.159 3.107-1.122 0.121-0.769-0.355-1.025-1.087-1.549-0.733-0.524-1.36-2.001-0.087-2.475 0.526-0.196 1.831-0.152 2.18 0.204-0.928 0.042-1.625 0.158-1.797 0.813-0.217 0.829 0.269 1.175 1.117 1.751 0.817 0.556 0.886 1.358 0.374 2.032-0.459 0.604-2.527 0.984-3.512 1.027-0.775 0.034-1.538-0.133-2.311-0.014-1.005 0.155-5.246 0.307-3.237 2.379-0.737 0.152-1.32-0.23-1.302-0.999 0.014-0.608 0.424-1.173 0.896-1.533 1.206-0.922 2.584-0.858 3.968-0.698z"></path>
</svg>
