<!-- Generated by IcoMoon.io -->
<svg version="1.1" xmlns="http://www.w3.org/2000/svg" width="33" height="32" viewBox="0 0 33 32">
<title>dark_cult</title>
<path d="M19.116 11.518c0.471 0.456 0.579 1.054 0.898 1.525 0.288 0.426 0.457 0.899 0.621 1.36 0.171 0.469 0.533 0.835 0.594 1.375 0.036 0.318 0.143 0.751 0.498 0.985 0.272-0.326 0.468-0.634 0.622-0.972 0.127-0.282 0.261-0.575 0.455-0.808 0.651-0.792 1.241-1.626 1.79-2.487 0.343-0.531 0.676-1.077 0.979-1.847-0.864 0.405-1.62 0.313-2.367 0.342-0.468 0.019-0.967 0.075-1.386 0.265-0.67 0.303-1.32 0.311-2.002 0.146-0.211-0.049-0.41-0.088-0.701 0.117zM12.054 15.991c1.076-1.672 1.952-3.447 2.99-5.206-0.915-0.236-1.785-0.169-2.636-0.166-0.887 0.003-1.759-0.165-2.644-0.145-0.885 0.019-1.75-0.281-2.773-0.208 1.189 0.688 2.065 1.542 2.913 2.547 0.13 1.365 1.293 2.146 2.15 3.179zM13.090 17.158c0.19 0.11 0.262-0.126 0.353-0.096 0.515 0.164 0.983-0.091 1.474-0.137 0.61-0.058 1.208-0.027 1.805 0.114 0.175 0.044 0.332 0.178 0.531 0.127 0.382-0.091 0.782-0.023 1.142 0.041 0.418 0.075 0.828-0.097 1.247 0.059 0.227 0.086 0.523 0.065 0.776-0.045 0.298-0.369 0.126-0.692-0.084-1.019-0.559-0.863-1.232-1.639-1.858-2.45-0.162-0.21-0.323-0.402-0.433-0.654-0.326-0.747-0.957-1.286-1.287-1.969-0.331-0.012-0.472 0.129-0.615 0.301-0.463 0.559-0.74 1.226-0.995 1.881-0.368 0.945-0.915 1.771-1.448 2.618-0.24 0.379-0.618 0.721-0.61 1.229zM16.816 3.608c-0.404-0.204-0.789 0.008-1.179-0.019-1.281-0.1-2.321 0.521-3.384 1.096-0.226 0.123-0.235 0.388-0.491 0.486-0.565 0.22-1.048 0.604-1.607 0.847-0.216 0.093-0.453 0.155-0.649 0.279-0.246 0.156-0.473 0.343-0.694 0.533-0.3 0.262-0.592 0.521-0.928 0.737-0.349 0.223-0.566 0.592-0.751 0.95 0.119 0.113 0.223 0.107 0.329 0.104 1.584-0.071 3.168 0.015 4.752-0.217 1.164-0.172 2.369-0.083 3.567-0.112 0.563 0.385 1.271 0.284 1.885 0.546 0.223 0.094 0.554 0.083 0.78-0.012 0.337-0.145 0.678-0.112 1.011-0.135 0.795-0.048 1.605-0.119 2.387-0.012 0.83 0.112 1.665 0.204 2.493 0.335 0.404 0.064 0.844 0.090 1.293-0.048-0.55-1.019-1.29-1.857-2.131-2.566-0.615-0.517-1.37-0.882-2.093-1.257-0.699-0.365-1.43-0.646-2.217-0.809-0.718-0.151-1.4-0.443-2.060-0.776 0.117-0.236 0.434-0.164 0.552-0.427-0.431-0.086-0.669 0.139-0.866 0.475zM5.666 11.097c-0.252 0.588-0.41 1.194-0.358 1.842 0.010 0.133 0.027 0.277-0.011 0.397-0.304 0.93-0.081 1.853 0.143 2.728 0.345 1.358 0.704 2.726 1.325 3.994 0.462 0.944 0.921 1.887 1.672 2.655 0.591 0.607 1.344 0.935 2.073 1.302 1.015 0.507 2.018 1.041 2.952 1.675 0.704 0.479 1.503 0.568 2.273 0.783 0.026 0.008 0.072-0.065 0.123-0.113-0.011-0.321-0.184-0.589-0.345-0.861-0.362-0.612-0.725-1.225-0.944-1.91-0.168-0.526-0.373-1.024-0.67-1.506-0.896-1.445-1.61-3-2.665-4.357-0.788-1.011-1.481-2.096-2.196-3.161-0.796-1.189-2.007-2.021-2.758-3.243-0.138-0.224-0.343-0.32-0.614-0.226zM26.253 12.97c-1.872 1.798-3.284 3.886-4.052 6.451-0.014 0.008-0.153 0.031-0.194 0.106-0.543 1.016-1.069 2.044-1.607 3.064-0.374 0.711-0.756 1.418-1.15 2.114-0.418 0.74-0.75 1.512-0.957 2.346 0.097 0.045 0.166 0.106 0.235 0.106 1.26-0.027 2.392-0.524 3.525-0.997 0.191-0.083 0.361-0.227 0.52-0.365 0.4-0.345 0.772-0.725 1.186-1.053 1.032-0.814 1.771-1.882 2.577-2.894 0.426-0.534 0.463-1.22 0.721-1.82 0.33-0.775 0.411-1.627 0.721-2.412 0.243-0.624 0.271-1.309 0.23-1.947-0.061-0.888-0.278-1.766-0.488-2.632-0.098-0.413-0.203-0.85-0.612-1.346-0.096 0.599-0.665 0.766-0.676 1.304zM20 19.532c0.253-0.137 0.423-0.31 0.229-0.665-0.366 0.008-0.744-0.035-1.1 0.035-0.82 0.161-1.617 0.027-2.393-0.177-0.585-0.152-1.138-0.426-1.766-0.4-0.097 0.004-0.208-0.049-0.291-0.107-0.379-0.271-0.766-0.232-1.2-0.090 0.541 0.835 1.15 1.571 1.52 2.458 0.275 0.666 0.655 1.299 0.76 2.021 0.151 1.034 0.553 1.968 1.041 2.874 0.038 0.069 0.091 0.126 0.122 0.166 0.243 0 0.421-0.023 0.599-0.214 0.017-0.046 0.043-0.151 0.082-0.246 0.281-0.65 0.281-1.388 0.617-2.023 0.511-0.977 1.022-1.957 1.532-2.933 0.122-0.232 0.31-0.436 0.274-0.725zM27.846 8.622c0.463-0.012 0.937 0.096 1.396-0.13 0.249-0.123 0.51-0.071 0.808 0.019-0.055 0.501-0.463 0.702-0.73 0.993-0.266 0.295-0.66 0.449-0.882 0.786 0.3 1.034 0.498 2.078 0.688 3.124 0.239 1.329 0.413 2.66 0.421 4.012 0.008 1.086-0.294 2.12-0.465 3.177-0.023 0.146-0.145 0.281-0.229 0.416-0.096 0.159-0.236 0.3-0.297 0.471-0.436 1.206-1.339 2.049-2.234 2.898-0.783 0.743-1.624 1.428-2.434 2.14-0.646 0.569-1.459 0.947-2.204 1.401-0.106 0.065-0.166 0.122-0.119 0.258-0.633 0.042-1.155 0.387-1.752 0.524-0.673 0.152-1.315 0.389-1.949 0.117-0.385 0.31-0.327 0.717-0.449 1.171-0.326-0.437-0.456-0.877-0.665-1.293-0.893-0.201-1.771-0.507-2.621-0.857-0.775-0.32-1.542-0.717-2.212-1.213-1.002-0.744-2.091-1.341-3.148-1.986-1.031-0.627-1.85-1.426-2.463-2.473-0.442-0.753-0.847-1.525-1.141-2.337-0.194-0.539-0.418-1.074-0.544-1.645-0.133-0.614-0.382-1.2-0.562-1.804-0.217-0.747-0.365-1.52-0.418-2.298-0.033-0.488 0.072-0.992 0.143-1.485 0.093-0.644 0.165-1.297 0.463-1.892 0.116-0.226 0.058-0.465 0.067-0.733-0.44-0.494-0.99-0.938-1.148-1.698 0.376-0.065 0.688 0.094 1.003 0.194s0.631 0.027 0.967 0.065c0.665-0.84 1.377-1.622 2.094-2.402 0.505-0.552 1.121-0.876 1.749-1.194 0.615-0.313 1.225-0.617 1.81-0.987 0.621-0.395 1.304-0.673 2.005-0.908 0.546-0.184 1.089-0.382 1.627-0.588 0.919-0.35 1.872-0.578 2.844-0.408 1.368 0.239 2.725 0.55 4.076 0.872 0.803 0.189 1.467 0.686 2.099 1.186 1.068 0.844 2.046 1.794 2.987 2.784 0.508 0.537 0.945 1.123 1.416 1.723z"></path>
<path d="M9.44 18.652c0.252 0.184 0.472 0.323 0.691 0.376 0.41 0.814 0.345 1.060-0.471 1.885-0.268 0.1-0.547-0.035-0.84 0.015-0.485 0.077-0.898-0.353-0.935-0.848-0.013-0.155-0.013-0.317 0.004-0.475 0.068-0.644 0.372-0.916 1.032-0.938 0.159-0.004 0.317-0.008 0.518-0.015z"></path>
<path d="M25.184 19.354c0.42 0.691 0.331 1.371-0.067 2.056-0.155 0.054-0.303 0.104-0.52 0.178-0.326-0.195-0.751-0.135-1.134-0.159-0.82-0.602-0.449-1.361 0.072-1.804 0.447-0.384 0.951-0.534 1.648-0.271z"></path>
<path d="M15.581 7.004c-0.056-0.198-0.245-0.266-0.379-0.378 0.010-1.095 0.359-1.957 1.52-2.269 1.212 0.579 1.558 1.404 1.129 2.715-0.358 0.122-0.734 0.248-1.084 0.366-0.447-0.088-0.822-0.288-1.208-0.453z"></path>
</svg>
