<!-- Generated by IcoMoon.io -->
<svg version="1.1" xmlns="http://www.w3.org/2000/svg" width="32" height="32" viewBox="0 0 32 32">
<title>deadly_traps</title>
<path d="M24.891 27.44c-0.541-0.055-1.053-0.143-1.138-0.195s-2.117-0.023-4.516 0.065c-4.561 0.168-6.908 0.037-9.979-0.554-0.62-0.119-1.811-0.285-2.645-0.367-4.4-0.435-0.679-0.695 6.254-0.437 5.606 0.208 4.739 0.203 10.677 0.063 2.523-0.060 4.511-0.052 4.419 0.016s-0.314 0.412-0.492 0.764c-0.269 0.53-0.398 0.639-0.76 0.639-0.24 0-0.526 0.024-0.636 0.053s-0.643 0.008-1.184-0.047zM27.428 22.846c-0.042-0.042-0.983-0.142-2.093-0.223s-2.525-0.21-3.145-0.287c-2.647-0.328-6.746-0.51-9.557-0.424-2.246 0.069-3.205 0.039-4.072-0.127-0.624-0.119-1.827-0.217-2.673-0.217-1.276 0-1.766-0.073-2.87-0.426-0.948-0.303-1.27-0.465-1.118-0.561 0.314-0.197 3.161-0.106 4.726 0.151 3.354 0.552 5.893 0.709 8.722 0.54 7.62-0.455 11.463-0.51 14.364-0.207l0.862 0.090-0.206 0.394c-0.113 0.217-0.206 0.614-0.207 0.883l-0.001 0.489h-1.328c-0.731 0-1.363-0.034-1.404-0.076zM14.226 20.215c0.001-0.207 0.064-0.648 0.141-0.98s0.278-1.55 0.448-2.707 0.443-2.779 0.608-3.607c0.534-2.676 0.752-4.366 0.77-5.959 0.010-0.858 0.063-1.763 0.119-2.012l0.102-0.451 0.111 0.423c0.116 0.441 0.336 1.99 0.858 6.044 0.17 1.323 0.442 2.981 0.604 3.684 0.351 1.527 0.896 4.694 0.896 5.208 0 0.316-0.040 0.345-0.291 0.211-0.633-0.339-3.978-0.093-4.234 0.312-0.097 0.153-0.132 0.108-0.131-0.166zM10.987 20.133c-0.414-0.117-1.041-0.29-1.395-0.385-0.485-0.13-0.624-0.232-0.567-0.417 0.042-0.134 0.146-1.056 0.231-2.049 0.332-3.878 0.476-5.023 0.834-6.637 0.204-0.921 0.414-2.105 0.466-2.632 0.187-1.887 0.346-1.386 0.351 1.105 0.001 1.382 0.069 3.176 0.149 3.985s0.255 2.623 0.391 4.029c0.15 1.556 0.331 2.689 0.461 2.895 0.256 0.404 0.17 0.414-0.921 0.106zM23.39 20.053c-0.622-0.486-1.436-0.543-1.983-0.139l-0.463 0.343 0.083-0.66c0.046-0.363 0.187-1.303 0.313-2.088 0.622-3.861 0.861-5.821 0.95-7.784 0.053-1.18 0.121-2.121 0.151-2.091s0.189 1.197 0.354 2.596 0.438 3.084 0.606 3.745c0.219 0.862 0.332 1.938 0.397 3.797 0.050 1.427 0.065 2.59 0.031 2.586-0.033-0.003-0.231-0.142-0.44-0.305z"></path>
</svg>
