<!-- Generated by IcoMoon.io -->
<svg version="1.1" xmlns="http://www.w3.org/2000/svg" width="33" height="32" viewBox="0 0 33 32">
<title>death_of_the_stars</title>
<path d="M11.552 10.85c-0.038-0.067-0.138-0.245-0.731-0.348-0.126-0.022-0.246-0.022-0.362-0.023-0.119 0-0.232-0.001-0.338-0.025-0.19-0.044-0.381-0.069-0.568-0.095-0.199-0.027-0.405-0.054-0.601-0.104-0.178-0.044-0.345-0.054-0.506-0.064-0.080-0.004-0.162-0.009-0.244-0.018-0.067-0.008-0.111-0.035-0.177-0.074-0.050-0.029-0.106-0.062-0.178-0.091-0.049-0.018-0.089-0.032-0.126-0.045-0.125-0.043-0.125-0.043-0.18-0.199-0.042-0.116-0.062-0.24-0.086-0.372-0.024-0.136-0.049-0.276-0.095-0.425-0.050-0.161-0.061-0.342-0.073-0.535-0.009-0.164-0.021-0.335-0.055-0.51l-0.022-0.12c-0.025-0.136-0.052-0.277-0.099-0.423-0.051-0.175-0.396-1.867-0.393-2.095 0 0 0 0.016-0.006 0.038l-0.408-0.157c-0.445 1.611-0.439 2.172-0.433 2.667v0.043c0.001 0.069 0.002 0.141 0.004 0.214 0.007 0.243 0.014 0.494-0.037 0.695-0.032 0.124-0.084 0.248-0.139 0.381-0.065 0.157-0.132 0.319-0.172 0.496-0.017 0.071-0.028 0.132-0.037 0.184-0.004 0.024-0.009 0.053-0.014 0.074-0.021 0.007-0.062 0.017-0.146 0.028-0.18 0.022-0.343 0.080-0.501 0.136-0.064 0.023-0.128 0.046-0.193 0.067-0.346 0.107-0.676 0.188-0.984 0.242-0.139 0.023-0.255 0.080-0.359 0.131-0.071 0.033-0.136 0.066-0.203 0.086-0.024 0.008-0.065 0.007-0.106 0.006-0.113-0.002-0.285-0.004-0.418 0.171l-0.092 0.12 0.049 0.154c0.11 0.343 0.445 0.394 0.646 0.424 0.038 0.006 0.073 0.012 0.101 0.019 0.034 0.008 0.074 0.024 0.118 0.042 0.065 0.025 0.133 0.052 0.195 0.067 0.084 0.021 0.171 0.057 0.262 0.095 0.092 0.039 0.188 0.079 0.291 0.106 0.185 0.051 0.366 0.104 0.548 0.157 0.144 0.043 0.288 0.084 0.435 0.126 0.101 0.028 0.198 0.039 0.291 0.050 0.119 0.013 0.231 0.025 0.325 0.073 0.032 0.016 0.062 0.034 0.091 0.051 0.045 0.025 0.092 0.053 0.147 0.077 0.010 0.062 0.023 0.118 0.035 0.17 0.022 0.098 0.040 0.184 0.045 0.289 0.009 0.276 0.089 0.576 0.173 0.858 0.141 0.468 0.198 0.832 0.195 1.256-0.001 0.13 0.007 0.274 0.015 0.422 0.010 0.19 0.021 0.385 0.012 0.561l-0.087 1.769 0.502-1.662c0.022-0.072 0.046-0.147 0.071-0.218 0.049-0.148 0.091-0.275 0.106-0.372s0.044-0.195 0.075-0.299c0.034-0.113 0.068-0.23 0.090-0.361 0.013-0.076 0.022-0.148 0.031-0.216 0.022-0.159 0.040-0.297 0.092-0.459 0.074-0.232 0.123-0.465 0.169-0.689 0.055-0.272 0.109-0.527 0.205-0.773 0.025-0.067 0.052-0.144 0.080-0.226 0.066-0.194 0.148-0.436 0.237-0.536 0.023-0.027 0.032-0.031 0.032-0.031 0.008-0.002 0.038-0.002 0.060-0.002 0.028 0 0.059 0 0.094-0.001 0.118-0.007 0.207-0.046 0.284-0.082 0.037-0.016 0.075-0.035 0.119-0.045 0.135-0.036 0.282-0.049 0.438-0.061 0.164-0.013 0.335-0.027 0.502-0.071l0.179-0.049c0.254-0.069 0.518-0.142 0.765-0.145 0.138-0.002 0.275-0.035 0.407-0.065 0.163-0.038 0.317-0.074 0.436-0.047l0.51 0.118-0.294-0.524z"></path>
<path d="M29.74 13.308c-0.061-0.107-0.096-0.218-0.132-0.336-0.068-0.221-0.146-0.47-0.41-0.673-0.082-0.062-0.168-0.097-0.242-0.128-0.050-0.021-0.097-0.040-0.127-0.062-0.015-0.012-0.032-0.035-0.051-0.059-0.054-0.071-0.146-0.188-0.326-0.202l-0.216-0.016-0.014 0.216c-0.006 0.099-0.113 0.258-0.2 0.386-0.059 0.087-0.116 0.17-0.157 0.253-0.055 0.111-0.084 0.238-0.112 0.362-0.055 0.244-0.092 0.361-0.193 0.384l-0.378 0.087 0.407 0.407c0.219 0.219 0.444 0.444 0.731 0.444 0.002 0 0.004 0 0.007 0 0.18-0.002 0.356-0.094 0.534-0.281 0.119-0.125 0.248-0.186 0.399-0.255 0.132-0.062 0.281-0.132 0.43-0.252l0.141-0.114z"></path>
<path d="M24.805 6.139c-0.463 0.029-0.885-0.098-1.334-0.232-0.183-0.054-0.372-0.111-0.568-0.158-0.138-0.032-0.269-0.069-0.399-0.105-0.248-0.068-0.504-0.14-0.789-0.181l-0.038-0.006c-0.314-0.044-0.442-0.086-0.494-0.114 0.002-0.009 0.003-0.020 0.006-0.029 0.009-0.055 0.018-0.118 0.007-0.18-0.014-0.075-0.042-0.136-0.066-0.185-0.012-0.025-0.024-0.050-0.032-0.077-0.039-0.15-0.060-0.312-0.081-0.484-0.017-0.147-0.036-0.297-0.073-0.462-0.059-0.274-0.119-0.546-0.172-0.822-0.007-0.037-0.006-0.081-0.004-0.131 0.001-0.060 0.003-0.127-0.010-0.2-0.006-0.032-0.015-0.064-0.025-0.094-0.020-0.061-0.034-0.102 0.077-0.264l0.282-0.414-0.717 0.146-0.025 0.136c-0.023 0.131-0.075 0.266-0.131 0.409-0.027 0.068-0.053 0.135-0.075 0.202l-0.047 0.133c-0.060 0.171-0.128 0.365-0.178 0.556-0.045 0.173-0.082 0.343-0.119 0.512-0.064 0.298-0.126 0.58-0.225 0.857-0.016 0.045-0.030 0.089-0.044 0.132-0.060 0.188-0.090 0.266-0.214 0.32-0.185 0.082-0.386 0.104-0.599 0.127-0.108 0.013-0.215 0.024-0.323 0.043-0.225 0.039-0.447 0.097-0.661 0.153-0.225 0.058-0.438 0.113-0.654 0.149-0.106 0.017-0.21 0.034-0.316 0.049-0.16 0.024-0.319 0.049-0.48 0.079-0.060 0.012-0.148 0.014-0.24 0.016-0.18 0.006-0.366 0.010-0.517 0.080l-0.15 0.068 0.034 0.156c0.054 0.251 0.401 0.257 0.77 0.262 0.052 0.001 0.095 0.001 0.117 0.003 0.258 0.030 0.52 0.071 0.774 0.109 0.24 0.038 0.48 0.074 0.719 0.103 0.488 0.060 1.006 0.168 1.506 0.313 0.012 0.031 0.023 0.059 0.035 0.086 0.017 0.043 0.032 0.080 0.039 0.113 0.012 0.062 0.013 0.134 0.014 0.21 0.002 0.089 0.004 0.191 0.024 0.294 0.021 0.102 0.040 0.203 0.060 0.305 0.062 0.327 0.126 0.666 0.232 1.003 0.084 0.268 0.185 0.54 0.314 0.854 0.127 0.31 0.146 0.561 0.135 0.888l-0.020 0.55 0.388-0.406c0.261-0.272 0.29-0.597 0.316-0.883 0.007-0.077 0.015-0.157 0.027-0.237 0.034-0.223 0.102-0.439 0.173-0.668 0.050-0.154 0.099-0.314 0.139-0.476l0.040-0.169c0.065-0.26 0.125-0.505 0.155-0.78 0.038-0.359 0.109-0.422 0.123-0.43 0.027-0.015 0.126-0.036 0.178-0.046 0.065-0.014 0.126-0.027 0.17-0.042 0.142-0.047 0.282-0.101 0.422-0.153 0.077-0.029 0.154-0.057 0.23-0.084 0.239-0.087 0.487-0.176 0.737-0.233 0.128-0.029 0.258-0.043 0.394-0.059 0.123-0.013 0.248-0.028 0.376-0.053 0.043-0.008 0.080-0.020 0.117-0.032 0.047-0.015 0.077-0.025 0.125-0.027v0c0.143-0.002 0.274-0.030 0.401-0.055 0.068-0.014 0.138-0.028 0.207-0.037l-0.043-0.406z"></path>
<path d="M12.384 25.378c-0.287-0.284-0.748-0.277-1.193-0.272-0.020 0-0.040 0-0.060 0.001l-0.334-0.668-0.16 0.502c-0.038 0.119-0.127 0.242-0.221 0.369-0.091 0.125-0.185 0.254-0.25 0.401-0.194 0.447-0.158 0.569-0.007 0.92l0.015 0.035c0.014 0.031 0.013 0.038 0.009 0.068-0.012 0.121 0.008 0.229 0.142 0.365 0.134 0.135 0.232 0.157 0.357 0.153 0.032-0.002 0.050-0.002 0.090 0.012 0.267 0.088 0.476 0.151 0.763 0.17 0.082 0.004 0.157 0.009 0.224 0.009 0.335 0 0.495-0.093 0.696-0.512 0.145-0.298 0.176-0.444 0.178-0.816 0.001-0.326-0.080-0.568-0.251-0.736z"></path>
<path d="M29.82 19.384c-0.168-0.147-0.4-0.162-0.586-0.175-0.044-0.002-0.084-0.004-0.121-0.010h-0.001c-0.057-0.007-0.111-0.017-0.164-0.027-0.123-0.023-0.248-0.046-0.406-0.045-0.084 0.001-0.169 0.002-0.254 0.004-0.224 0.006-0.457 0.010-0.672-0.008-0.090-0.007-0.179-0.020-0.269-0.031l-0.112-0.016-0.043 0.002c-0.272-0.025-0.543-0.073-0.806-0.123l-0.207-0.038c-0.158-0.030-0.317-0.060-0.475-0.089l-0.436-0.079c-0.001-0.001-0.003-0.002-0.006-0.003l-0.037-0.021-0.089-0.017c-0.080-0.016-0.16-0.031-0.24-0.043-0.143-0.018-0.285-0.036-0.429-0.052-0.307-0.036-0.599-0.069-0.892-0.125-0.095-0.019-0.185-0.023-0.264-0.028-0.051-0.003-0.102-0.007-0.154-0.014-0.003 0-0.006-0.001-0.009-0.001-0.001-0.019-0.001-0.038-0.001-0.052l-0.001-0.024c-0.001-0.052 0-0.104 0.001-0.156 0.001-0.062 0.002-0.125 0.001-0.187-0.003-0.108-0.027-0.203-0.047-0.288-0.013-0.051-0.025-0.103-0.032-0.157-0.010-0.096-0.010-0.197-0.009-0.302 0-0.103 0.001-0.21-0.009-0.321l-0.003-0.027c-0.051-0.229-0.098-0.528-0.030-0.82l0.149-0.483-0.312 0.113c-0.046-0.254-0.089-0.509-0.132-0.763-0.061-0.361-0.124-0.733-0.198-1.099-0.069-0.344-0.108-0.685-0.149-1.046l-0.014-0.131c-0.045-0.524-0.105-0.765-0.338-0.817l-0.207-0.046-0.083 0.184c-0.095 0.21-0.072 0.474-0.051 0.706 0.007 0.081 0.014 0.158 0.014 0.224l0.001 0.142c0 0.298 0.001 0.58-0.034 0.866-0.092 0.757-0.316 1.484-0.575 2.289-0.035 0.108-0.072 0.216-0.109 0.324-0.079 0.231-0.16 0.47-0.224 0.714-0.028 0.105-0.049 0.213-0.069 0.32-0.040 0.202-0.077 0.394-0.163 0.559-0.025 0.050-0.053 0.101-0.081 0.15-0.097 0.179-0.198 0.364-0.254 0.57-0.004 0.015-0.008 0.030-0.012 0.043-0.161 0.019-0.338 0.010-0.525 0.001-0.107-0.004-0.215-0.009-0.318-0.009h-1.315c-0.158 0-0.317-0.002-0.476-0.004-0.504-0.008-1.024-0.016-1.536 0.055l-0.058 0.008c-0.781 0.11-1.591 0.223-2.37 0.145l-0.058 0.47c0.105 0.012 0.197 0.040 0.303 0.074 0.076 0.023 0.153 0.047 0.235 0.066 0.218 0.050 0.443 0.086 0.66 0.12 0.274 0.043 0.533 0.084 0.779 0.151 0.638 0.174 1.295 0.255 1.93 0.334 0.524 0.064 1.066 0.131 1.581 0.249 0.188 0.044 0.373 0.096 0.559 0.148 0.281 0.079 0.571 0.16 0.872 0.212 0.043 0.008 0.088 0.014 0.134 0.020 0.112 0.015 0.24 0.032 0.302 0.073 0.105 0.071 0.149 0.294 0.173 0.413 0.036 0.181 0.021 0.409 0.007 0.629-0.008 0.123-0.015 0.242-0.015 0.353 0 0.387 0.017 0.694 0.057 0.993 0.008 0.061 0.013 0.121 0.016 0.181 0.008 0.113 0.016 0.231 0.047 0.356 0.023 0.095 0.058 0.179 0.091 0.26 0.028 0.068 0.054 0.133 0.071 0.194 0.117 0.469 0.193 0.962 0.266 1.437 0.054 0.351 0.111 0.716 0.184 1.072 0.068 0.333 0.131 0.659 0.146 0.979l0.101 2.090 0.4-2.059c0.034-0.173 0.062-0.333 0.073-0.528 0.017-0.332 0.084-0.654 0.155-0.996 0.050-0.242 0.102-0.492 0.134-0.746 0.047-0.375 0.117-0.755 0.184-1.122 0.128-0.703 0.261-1.431 0.255-2.174-0.003-0.427-0.002-0.854-0.002-1.281l0.001-0.17c0.104 0.010 0.22 0.004 0.338-0.034l0.022-0.007c0.091-0.029 0.141-0.045 0.217-0.051 0.68-0.047 1.343-0.202 1.985-0.353 0.625-0.146 1.284-0.24 1.921-0.333l0.339-0.051c0.233-0.034 0.462-0.089 0.684-0.141 0.239-0.058 0.466-0.112 0.694-0.141 0.022-0.003 0.046-0.002 0.068-0.002 0.062-0.002 0.155 0 0.248-0.032l0.384-0.133-0.299-0.262z"></path>
<path d="M19.503 18.007c-0.302-0.473-0.467-0.685-0.682-0.875-0.015-0.014-0.027-0.030-0.038-0.046-0.020-0.025-0.040-0.052-0.064-0.075-0.081-0.082-0.177-0.14-0.261-0.191l-0.053-0.032c-0.112-0.069-0.221-0.145-0.329-0.22-0.132-0.091-0.268-0.186-0.411-0.272-0.275-0.162-0.568-0.307-0.849-0.448-0.325-0.163-0.66-0.331-0.963-0.52-0.105-0.067-0.206-0.136-0.305-0.206-0.162-0.113-0.331-0.23-0.519-0.331-0.262-0.141-0.542-0.289-0.832-0.425-0.121-0.058-0.239-0.119-0.358-0.179-0.13-0.067-0.259-0.133-0.392-0.195-0.129-0.060-0.25-0.139-0.378-0.222-0.141-0.092-0.286-0.187-0.452-0.261l-0.098-0.044c-0.117-0.051-0.217-0.096-0.319-0.159-0.143-0.088-0.303-0.169-0.504-0.251-0.077-0.032-0.152-0.069-0.226-0.107-0.098-0.050-0.201-0.101-0.314-0.143-0.282-0.105-0.573-0.188-0.857-0.269l-0.165-0.047c-0.086-0.024-0.178-0.060-0.276-0.097-0.216-0.082-0.46-0.175-0.707-0.18-0.034 0-0.068 0.001-0.103 0.003-0.031 0.002-0.061 0.004-0.077 0.001l-0.563-0.103 0.334 0.413c0.187 0.232 0.502 0.431 0.672 0.529 0.262 0.15 0.533 0.306 0.795 0.488 0.243 0.168 0.509 0.294 0.766 0.415 0.202 0.096 0.393 0.186 0.573 0.295 0.451 0.272 0.897 0.556 1.314 0.823l0.17 0.11c0.388 0.25 0.789 0.507 1.214 0.74 0.213 0.117 0.417 0.252 0.615 0.383 0.279 0.185 0.568 0.377 0.897 0.528 0.184 0.084 0.363 0.171 0.54 0.258 0.44 0.215 0.896 0.436 1.399 0.602 0.522 0.172 1.032 0.371 1.518 0.591l0.66 0.301-0.369-0.578z"></path>
<path d="M27.903 14.518l-0.067-0.223-0.217 0.087c-0.34 0.135-0.605 0.295-0.832 0.503-0.147 0.134-0.32 0.253-0.504 0.379-0.16 0.11-0.325 0.224-0.475 0.35-0.205 0.173-0.378 0.378-0.544 0.575l-0.095 0.111c-0.074 0.086-0.163 0.164-0.258 0.247-0.101 0.089-0.203 0.179-0.295 0.285l-0.064 0.073c-0.12 0.14-0.237 0.274-0.368 0.399-0.012 0.008-0.023 0.017-0.035 0.027-0.034 0.027-0.064 0.057-0.093 0.087-0.035 0.030-0.072 0.059-0.11 0.087-0.098 0.072-0.194 0.143-0.29 0.217l0.245 0.351c0.132-0.083 0.243-0.158 0.32-0.218 0.052-0.040 0.091-0.083 0.126-0.121 0.002-0.001 0.003-0.003 0.006-0.004 0.034-0.030 0.067-0.059 0.099-0.089 0.041-0.027 0.088-0.049 0.14-0.074l0.068-0.032c0.061-0.030 0.11-0.065 0.153-0.095 0.027-0.020 0.053-0.038 0.083-0.055 0.024-0.013 0.049-0.022 0.073-0.034 0.043-0.017 0.086-0.036 0.125-0.059 0.088-0.051 0.178-0.097 0.268-0.144 0.136-0.071 0.276-0.143 0.409-0.228 0.111-0.071 0.197-0.148 0.28-0.223 0.031-0.029 0.064-0.058 0.097-0.087 0.060-0.051 0.133-0.096 0.209-0.143 0.039-0.023 0.077-0.047 0.116-0.073 0.289-0.191 0.502-0.46 0.674-0.677 0.060-0.076 0.14-0.151 0.223-0.231l0.067-0.062c0.121-0.118 0.19-0.212 0.27-0.343 0.014-0.021 0.030-0.043 0.047-0.066 0.083-0.116 0.209-0.288 0.147-0.494z"></path>
<path d="M16.991 7.342l-0.038-0.027-0.045-0.008c-0.136-0.024-0.289-0.053-0.472-0.031-0.338 0.038-0.663 0.172-0.979 0.302-0.149 0.061-0.303 0.125-0.453 0.175-0.257 0.087-0.524 0.151-0.781 0.214l-0.185 0.045c-0.084 0.022-0.171 0.038-0.258 0.054-0.181 0.035-0.371 0.071-0.563 0.148-0.282 0.113-0.559 0.281-0.828 0.443-0.162 0.098-0.329 0.199-0.49 0.283-0.383 0.2-0.833 0.423-1.274 0.564l-0.091 0.029c-0.124 0.039-0.253 0.080-0.383 0.133-0.027 0.010-0.049 0.013-0.094 0.015-0.042 0.003-0.095 0.007-0.154 0.023-0.050 0.014-0.086 0.039-0.151 0.089l-0.020 0.015c-0.004 0.001-0.008 0.003-0.010 0.003-0.014-0.001-0.027-0.003-0.040-0.006l-0.118 0.409c0.051 0.020 0.098 0.028 0.155 0.029 0.073 0.008 0.146 0.012 0.22 0.012 0.215 0 0.431-0.030 0.642-0.060 0.073-0.009 0.144-0.020 0.216-0.029 0.124-0.015 0.246-0.019 0.377-0.023 0.148-0.004 0.301-0.010 0.458-0.032 0.156-0.022 0.312-0.062 0.461-0.103 0.050-0.013 0.098-0.025 0.147-0.037 0.094-0.024 0.186-0.044 0.279-0.065 0.105-0.023 0.209-0.046 0.314-0.073 0.146-0.037 0.268-0.124 0.387-0.207 0.081-0.058 0.158-0.112 0.225-0.138 0.057-0.020 0.119-0.032 0.184-0.045 0.074-0.015 0.158-0.032 0.245-0.064 0.146-0.053 0.286-0.128 0.421-0.202 0.066-0.036 0.132-0.072 0.199-0.104 0.098-0.049 0.201-0.075 0.311-0.104 0.118-0.030 0.239-0.061 0.37-0.123 0.269-0.126 0.534-0.251 0.803-0.384 0.117-0.058 0.225-0.129 0.332-0.2 0.117-0.077 0.228-0.15 0.334-0.194 0.116-0.049 0.18-0.096 0.279-0.203l0.018-0.020c0.069-0.070 0.173-0.178 0.16-0.32-0.007-0.074-0.046-0.141-0.109-0.184z"></path>
<path d="M9.029 16.383c-0.029-0.102-0.075-0.169-0.124-0.24l-0.014-0.020c-0.034-0.049-0.060-0.106-0.088-0.168-0.012-0.025-0.024-0.051-0.036-0.076-0.071-0.143-0.159-0.277-0.245-0.407l-0.074-0.112c-0.016-0.027-0.032-0.052-0.049-0.079-0.017-0.028-0.035-0.054-0.052-0.082-0.029-0.045-0.064-0.077-0.091-0.102-0.010-0.010-0.022-0.021-0.032-0.032l-0.827-0.937 0.451 1.124c0.008 0.020 0.007 0.034-0.002 0.087l-0.006 0.042c-0.024 0.18 0.022 0.339 0.067 0.492 0.022 0.077 0.043 0.15 0.054 0.221 0.012 0.079 0.029 0.157 0.047 0.236 0.030 0.128 0.058 0.25 0.056 0.369-0.002 0.068 0.001 0.135 0.006 0.202 0.002 0.045 0.004 0.090 0.004 0.135 0.002 0.202 0.023 0.403 0.044 0.598 0.016 0.155 0.034 0.316 0.040 0.473 0.006 0.143 0.021 0.284 0.036 0.421 0.008 0.075 0.016 0.15 0.023 0.227 0.004 0.053 0.008 0.105 0.012 0.16 0.010 0.161 0.022 0.327 0.061 0.49 0.033 0.143 0.073 0.285 0.111 0.428 0.020 0.075 0.040 0.149 0.060 0.223 0.016 0.064 0.032 0.127 0.049 0.192 0.022 0.088 0.044 0.176 0.067 0.264 0.037 0.134 0.092 0.247 0.145 0.356 0.016 0.034 0.034 0.068 0.050 0.104 0.027 0.057 0.049 0.114 0.071 0.172 0.025 0.065 0.050 0.13 0.080 0.193l0.030 0.065c0.035 0.071 0.067 0.139 0.087 0.207 0.016 0.051 0.029 0.103 0.042 0.153 0.024 0.099 0.051 0.201 0.094 0.304 0.119 0.282 0.266 0.548 0.407 0.793l0.014 0.024c0.035 0.059 0.071 0.121 0.11 0.177 0.015 0.021 0.035 0.041 0.059 0.062 0.028 0.025 0.051 0.046 0.066 0.088 0.002 0.030 0.010 0.062 0.027 0.094l0.599 1.139-0.193-1.263c-0.003-0.019-0.007-0.036-0.012-0.052 0.001-0.008 0.001-0.016 0.002-0.023 0.001-0.032 0.003-0.071-0.003-0.109-0.064-0.326-0.141-0.65-0.237-1.036-0.032-0.131-0.068-0.259-0.104-0.388-0.066-0.232-0.134-0.473-0.173-0.711-0.029-0.173-0.042-0.347-0.054-0.532-0.013-0.164-0.024-0.333-0.050-0.502-0.035-0.239-0.052-0.49-0.067-0.733-0.016-0.257-0.034-0.521-0.074-0.781-0.060-0.391-0.161-0.774-0.258-1.146l-0.025-0.099c-0.021-0.077-0.040-0.155-0.060-0.232-0.037-0.15-0.075-0.301-0.118-0.449z"></path>
</svg>
