<!-- Generated by IcoMoon.io -->
<svg version="1.1" xmlns="http://www.w3.org/2000/svg" width="32" height="32" viewBox="0 0 32 32">
<title>death_at_sundown</title>
<path d="M9.69 29.937c-1.611-0.231-1.814-0.248-2.645-0.225-0.465 0.013-1.267 0.055-1.784 0.095l-0.938 0.072-0.37-0.178c-0.574-0.277-0.67-0.315-1.093-0.437-0.355-0.103-0.395-0.128-0.395-0.25 0-0.302 0.305-0.713 0.872-1.174 0.195-0.159 0.551-0.489 0.791-0.734l0.436-0.446 0.803-0.254c0.941-0.298 1.272-0.461 1.804-0.891 0.554-0.447 0.87-0.65 1.081-0.694 0.258-0.053 0.911-0.446 1.137-0.683l0.191-0.201-0.030-1.003c-0.047-1.558-0.228-2.036-0.924-2.434-0.6-0.343-1.072-0.662-1.362-0.921-0.189-0.169-0.437-0.326-0.629-0.398-0.665-0.249-0.898-0.396-1.169-0.738-0.144-0.182-0.29-0.42-0.326-0.53-0.089-0.274-0.359-0.635-0.536-0.715-0.080-0.036-0.355-0.283-0.612-0.547s-0.577-0.545-0.712-0.622c-0.145-0.083-0.412-0.342-0.651-0.63-0.224-0.27-0.48-0.521-0.573-0.56-0.198-0.084-0.467-0.409-0.467-0.562 0-0.060-0.023-0.168-0.051-0.241-0.092-0.241-0.277-1.39-0.276-1.712 0-0.174 0.038-0.422 0.083-0.552 0.095-0.274 0.045-0.55-0.135-0.742-0.094-0.1-0.102-0.146-0.057-0.305 0.030-0.103 0.054-0.347 0.055-0.543s0.037-0.458 0.081-0.584c0.044-0.126 0.095-0.335 0.112-0.463s0.064-0.32 0.103-0.425c0.039-0.105 0.187-0.547 0.328-0.982 0.283-0.871 0.461-1.354 0.538-1.459 0.028-0.037 0.11-0.068 0.183-0.068s0.187-0.029 0.252-0.063c0.168-0.089 0.542-0.383 0.621-0.487 0.036-0.048 0.223-0.19 0.416-0.316 0.258-0.168 0.386-0.296 0.486-0.485 0.074-0.141 0.2-0.377 0.279-0.524s0.144-0.312 0.144-0.366c0-0.054 0.085-0.184 0.188-0.287 0.263-0.263 0.639-0.361 1.39-0.361 0.485 0 0.648-0.021 0.81-0.102 0.133-0.067 0.239-0.087 0.311-0.058 0.060 0.024 0.178 0.045 0.263 0.047s0.282 0.088 0.437 0.191c0.192 0.127 0.391 0.205 0.62 0.242 0.185 0.030 0.394 0.085 0.463 0.122s0.285 0.086 0.48 0.108c0.195 0.022 0.489 0.082 0.654 0.133s0.431 0.112 0.592 0.137c0.161 0.025 0.345 0.093 0.409 0.152s0.22 0.159 0.346 0.222c0.184 0.092 0.241 0.157 0.286 0.326 0.068 0.252 0.026 0.515-0.119 0.757-0.058 0.097-0.115 0.177-0.126 0.177s-0.101-0.046-0.2-0.101c-0.099-0.056-0.328-0.13-0.508-0.166s-0.441-0.1-0.58-0.144c-0.189-0.060-0.553-0.079-1.451-0.079-1.179 0-1.201 0.002-1.383 0.132-0.102 0.072-0.399 0.259-0.661 0.415-0.425 0.253-0.49 0.313-0.606 0.564-0.072 0.154-0.147 0.351-0.167 0.436s-0.084 0.258-0.141 0.382c-0.333 0.724-0.343 0.774-0.368 1.827-0.019 0.798-0.008 1.042 0.056 1.2 0.113 0.279 0.406 1.251 0.445 1.478 0.067 0.384 0.238 0.639 0.548 0.814 0.161 0.091 0.399 0.192 0.528 0.225 0.374 0.095 0.463 0.199 0.491 0.573 0.034 0.455 0.378 1.024 0.835 1.383 0.183 0.144 0.467 0.4 0.63 0.569 0.205 0.212 0.376 0.334 0.552 0.392 0.14 0.047 0.288 0.124 0.327 0.173s0.281 0.184 0.536 0.302c0.745 0.344 0.829 0.387 1.16 0.6 0.173 0.112 0.36 0.203 0.417 0.203 0.157 0 0.31 0.167 0.378 0.414 0.047 0.17 0.152 0.304 0.44 0.559 0.253 0.225 0.39 0.39 0.414 0.5 0.020 0.090 0.091 0.231 0.158 0.313 0.4 0.486 0.905 1.433 0.905 1.697 0 0.142 0.125 0.439 0.475 1.129 0.067 0.132 0.080 0.283 0.058 0.7-0.027 0.52-0.025 0.53 0.088 0.5 0.063-0.017 0.404-0.047 0.756-0.067l0.641-0.037v-0.402c0-0.349 0.022-0.441 0.171-0.704 0.101-0.18 0.21-0.494 0.268-0.776 0.126-0.614 0.159-0.712 0.42-1.265 0.121-0.255 0.26-0.578 0.31-0.719s0.179-0.37 0.287-0.511c0.125-0.163 0.229-0.387 0.287-0.617 0.090-0.355 0.096-0.363 0.388-0.51 0.163-0.082 0.43-0.191 0.594-0.243s0.367-0.157 0.452-0.233c0.148-0.134 0.228-0.245 0.934-1.297 0.176-0.263 0.375-0.558 0.442-0.656 0.105-0.155 0.381-0.367 0.765-0.588 0.371-0.214 0.856-0.46 0.906-0.46 0.115 0 1.17-0.623 1.466-0.865 0.501-0.411 1.422-1.384 1.529-1.616 0.377-0.817 0.488-1.476 0.488-2.904v-1.191l-0.278-0.538c-0.504-0.978-0.981-1.403-1.692-1.505-0.221-0.032-0.55-0.086-0.73-0.12s-0.683-0.061-1.118-0.060c-0.752 0.002-0.813 0.011-1.251 0.175-0.253 0.095-0.477 0.173-0.498 0.173-0.076 0-0.108-0.386-0.049-0.604 0.060-0.224 0.45-0.667 0.782-0.887 0.083-0.055 0.189-0.178 0.235-0.273 0.056-0.115 0.168-0.21 0.338-0.285 0.282-0.126 1.081-0.295 1.406-0.297 0.116-0.001 0.318-0.026 0.449-0.056 0.371-0.086 0.86 0.027 1.098 0.252 0.244 0.23 0.778 0.551 0.998 0.6 0.093 0.021 0.257 0.094 0.363 0.163s0.267 0.143 0.357 0.164c0.241 0.055 0.518 0.237 0.519 0.342 0.003 0.242 0.28 0.736 0.63 1.126 0.331 0.369 0.444 0.452 0.967 0.713 0.325 0.163 0.625 0.296 0.665 0.296s0.125 0.067 0.188 0.15c0.193 0.252 0.595 0.887 0.629 0.993 0.018 0.055 0.164 0.242 0.325 0.415 0.303 0.325 0.357 0.459 0.358 0.889 0 0.139 0.036 0.354 0.080 0.478 0.1 0.288 0.074 0.377-0.353 1.192-0.397 0.758-0.452 0.851-0.681 1.144-0.093 0.12-0.224 0.312-0.291 0.428-0.137 0.237-0.36 0.524-0.722 0.93-0.137 0.153-0.332 0.389-0.435 0.524-0.813 1.071-1.941 2.118-2.84 2.637-0.139 0.080-0.458 0.348-0.709 0.596-0.657 0.647-1.287 1.184-1.391 1.184-0.163 0-0.444 0.217-0.539 0.418-0.064 0.135-0.085 0.275-0.066 0.441 0.025 0.225 0.001 0.286-0.33 0.824-0.654 1.062-0.767 1.272-0.833 1.554-0.036 0.154-0.097 0.342-0.135 0.418s-0.106 0.278-0.151 0.45l-0.081 0.312h0.165c0.12 0 0.221 0.058 0.373 0.214 0.166 0.172 0.26 0.221 0.471 0.249 0.145 0.019 0.373 0.060 0.508 0.090s0.416 0.094 0.625 0.14c0.339 0.075 0.45 0.138 1.036 0.582 0.719 0.544 1.069 0.78 1.273 0.858 0.073 0.028 0.198 0.096 0.276 0.15s0.263 0.145 0.41 0.2c0.148 0.056 0.403 0.226 0.573 0.382 0.288 0.265 0.775 0.57 0.912 0.57 0.142 0 0.722 0.309 1.001 0.534 1.021 0.821 1.331 1.211 1.453 1.829 0.043 0.215 0.098 0.44 0.123 0.501 0.057 0.135-0.134 0.379-0.458 0.586-0.206 0.132-0.269 0.141-1.145 0.167-0.607 0.018-1.049 0.059-1.281 0.119-0.317 0.082-0.569 0.087-2.372 0.048-4.663-0.101-7.627-0.045-8.261 0.156-0.286 0.091-1.712 0.146-4.444 0.171-1.935 0.018-2.569 0.006-2.999-0.055zM26.075 2.054c-0.049-0.032-0.056-0.053-0.017-0.054 0.036-0 0.080 0.024 0.099 0.054 0.042 0.068 0.023 0.068-0.082 0z"></path>
</svg>
