<!-- Generated by IcoMoon.io -->
<svg version="1.1" xmlns="http://www.w3.org/2000/svg" width="31" height="32" viewBox="0 0 31 32">
<title>decaying_reality</title>
<path d="M25.375 8.31c0.015-0.011 0.031-0.022 0.046-0.032 0.115 0.057 0.147 0.185 0.205 0.282 0.067 0.109 0.134 0.203 0.188 0.319 0.069 0.15 0.167 0.309 0.211 0.464 0.041 0.147 0.040 0.318 0.061 0.469 0.031 0.213 0.101 0.421 0.114 0.631 0.015 0.256-0.001 0.517-0.001 0.774 0 0.453-0.118 0.913-0.294 1.341-0.13 0.316-0.479 0.654-0.882 0.675-0.111 0.007-0.215-0.014-0.324 0.011-0.108 0.022-0.174 0.046-0.294 0.040-0.215-0.011-0.41-0.076-0.617-0.131-0.325-0.088-0.707-0.184-0.838-0.49-0.052-0.122-0.082-0.335-0.047-0.47 0.028-0.109 0.137-0.254 0.193-0.359 0.097-0.183 0.197-0.317 0.343-0.469 0.119-0.124 0.193-0.275 0.292-0.413 0.172-0.245 0.35-0.493 0.543-0.726 0.239-0.287 0.317-0.6 0.397-0.947 0.064-0.277 0.056-0.542 0.059-0.827 0.001-0.203-0.11-0.397-0.050-0.605 0.080-0.014 0.219 0.135 0.285 0.178 0.099 0.063 0.172 0.126 0.234 0.215 0.056 0.080 0.077 0.193 0.132 0.266 0.042 0.057 0.115 0.111 0.046-0.197z"></path>
<path d="M26.022 13.076c-0.105 0.022-0.164 0.139-0.247 0.194-0.112 0.077-0.242 0.127-0.368 0.174-0.083 0.032-0.146 0.046-0.238 0.047-0.069 0-0.162-0.025-0.204 0.029-0.079 0.099 0.143 0.296 0.191 0.375 0.13 0.213 0.157 0.435 0.161 0.685 0.003 0.13-0.051 0.268-0.11 0.391-0.051 0.104-0.142 0.223-0.178 0.324 0.094 0.043 0.238-0.029 0.319-0.065 0.107-0.049 0.209-0.134 0.293-0.208 0.105-0.094 0.247-0.187 0.324-0.286 0.055-0.071 0.141-0.221 0.166-0.299 0.019-0.062-0.008-0.11 0.006-0.167 0.015-0.057 0.053-0.099 0.066-0.156 0.021-0.104-0.015-0.221-0.062-0.314-0.036-0.072-0.080-0.135-0.131-0.202-0.040-0.051-0.104-0.103-0.136-0.157-0.036-0.063-0.052-0.14 0.15-0.364z"></path>
<path d="M22.905 6.030c0.118-0.025 0.19 0.062 0.272 0.121 0.231 0.168 0.351 0.277 0.433 0.534 0.085 0.267 0.236 0.523 0.3 0.794 0.050 0.207 0.073 0.421 0.1 0.629 0.059 0.463 0.037 0.973 0.016 1.438-0.013 0.281-0.206 0.67-0.399 0.888-0.23 0.259-0.442 0.529-0.725 0.74-0.182 0.134-0.396 0.252-0.613 0.34-0.164 0.065-0.339 0.061-0.512 0.095-0.162 0.032-0.32 0.077-0.481 0.115-0.173 0.042-0.329 0.058-0.508 0.056-0.315-0.004-0.622-0.271-0.883-0.414-0.14-0.077-0.286-0.157-0.408-0.255-0.054-0.049-0.111-0.098-0.168-0.145-0.056-0.046-0.095-0.099-0.118-0.163-0.084-0.063-0.064-0.090-0.189-0.011-0.242 0.158-0.348 0.465-0.584 0.616-0.108 0.069-0.302 0.118-0.424 0.164-0.246 0.095-0.489 0.153-0.758 0.16-0.198 0.004-0.398-0.004-0.597-0.004-0.277 0-0.592 0.039-0.865-0.011-0.143-0.025-0.297-0.083-0.434-0.131-0.066-0.025-0.202-0.122-0.266-0.115-0.155 0.191-0.129 0.485-0.202 0.7-0.085 0.25-0.207 0.455-0.401 0.654-0.177 0.182-0.32 0.304-0.581 0.394-0.237 0.082-0.477 0.163-0.725 0.219-0.251 0.057-0.508 0.107-0.766 0.142-0.247 0.036-0.506 0.029-0.751 0.072-0.031 0.29 0.028 0.583-0.033 0.873-0.061 0.286-0.153 0.642-0.377 0.861-0.319 0.311-0.709 0.532-1.166 0.654-0.119 0.032-0.209 0.039-0.187 0.164 0.024 0.126 0.196 0.262 0.254 0.383 0.153 0.317 0.328 0.618 0.338 0.971 0.004 0.164-0.025 0.324-0.064 0.484-0.015 0.063-0.043 0.1-0.059 0.157-0.019 0.065-0.001 0.168 0.002 0.236 0.004 0.087 0.042 0.105 0.062 0.179 0.047 0.174-0.069 0.396 0.008 0.564 0.091-0.001 0.084 0.042 0.136 0.083 0.134 0.102 0.302 0.177 0.446 0.275 0.205 0.14 0.388 0.284 0.459 0.509 0.075 0.238 0.080 0.449 0.037 0.695-0.026 0.143-0.174 0.373-0.026 0.496 0.097 0.080 0.348 0.104 0.464 0.152 0.118 0.048 0.226 0.104 0.325 0.179 0.312 0.236 0.606 0.421 0.741 0.772 0.099 0.258 0.096 0.612 0.046 0.882-0.014 0.074-0.205 0.35-0.177 0.429 0.014 0.036 0.108 0.072 0.146 0.091 0.307 0.158 0.655 0.22 0.981 0.341 0.12 0.044 0.262 0.098 0.357 0.179 0.054 0.047 0.181 0.15 0.22 0.208 0.141 0.205-0.002 0.514 0.272 0.628 0.187 0.079 0.401 0.088 0.592 0.156 0.162 0.057 0.225 0.174 0.319 0.302 0.082 0.109 0.272 0.323 0.244 0.472-0.011 0.056-0.057 0.082-0.065 0.147-0.036 0.252 0.015 0.517-0.004 0.772-0.015 0.215-0.031 0.466-0.146 0.659-0.131 0.22-0.421 0.27-0.669 0.339-0.275 0.077-0.521 0.071-0.779-0.018-0.263-0.089-0.591-0.065-0.869-0.093-0.501-0.049-0.902-0.197-1.193-0.568-0.114-0.143-0.129-0.255-0.343-0.26-0.325-0.007-0.627-0.007-0.947-0.058-0.309-0.051-0.665-0.214-0.926-0.366-0.28-0.162-0.571-0.24-0.712-0.528-0.079-0.162-0.132-0.353-0.168-0.527-0.030-0.136 0-0.25-0.063-0.383-0.038-0.084-0.057-0.119-0.153-0.156-0.173-0.067-0.344-0.112-0.512-0.197-0.137-0.067-0.296-0.104-0.419-0.191-0.24-0.166-0.46-0.386-0.649-0.596-0.38-0.423-0.623-0.913-0.923-1.376-0.119-0.184-0.229-0.317-0.232-0.538 0-0.062 0.040-0.198-0.004-0.252-0.097-0.126-0.309-0.038-0.39-0.215-0.062-0.137-0.073-0.301-0.129-0.444-0.071-0.178-0.143-0.35-0.195-0.533-0.071-0.25-0.055-0.539-0.044-0.798 0.008-0.184 0.101-0.387 0.239-0.521 0.044-0.044 0.103-0.079 0.107-0.137 0.009-0.087-0.129-0.275-0.179-0.343-0.21-0.277-0.333-0.606-0.49-0.909-0.181-0.346-0.266-0.712-0.262-1.093 0.001-0.183-0.020-0.365 0.032-0.544 0.043-0.147 0.314-0.284 0.377-0.425-0.078-0.014-0.153 0.001-0.202-0.071-0.084-0.121-0.313-0.365-0.357-0.482-0.16-0.423-0.221-0.853-0.043-1.394 0.137-0.419 0.558-0.846 0.925-1.133 0.167-0.13 0.351-0.154 0.529-0.252 0.109-0.061 0.205-0.126 0.326-0.171 0.052-0.018 0.137-0.029 0.169-0.074 0.030-0.040 0.006-0.096-0.002-0.139-0.030-0.162-0.094-0.318-0.124-0.482-0.036-0.193-0.078-0.383-0.116-0.575-0.111-0.552-0.030-1.077 0.252-1.582 0.268-0.481 0.658-0.833 1.26-0.961 0.242-0.052 0.415-0.145 0.647-0.229 0.22-0.079 0.393-0.053 0.61-0.080 0.047-0.16-0.016-0.33 0.002-0.492 0.021-0.182 0.151-0.385 0.241-0.548 0.11-0.197 0.277-0.365 0.44-0.527 0.184-0.184 0.386-0.396 0.618-0.534 0.434-0.26 0.96-0.564 1.493-0.595 0.511-0.029 1-0.157 1.517-0.153 0.114-0.001 0.226-0.001 0.339-0.001 0.064 0.002 0.126 0.014 0.185 0.036 0.134-0.036 0.27-0.27 0.349-0.36 0.305-0.353 0.715-0.509 1.181-0.643 0.268-0.077 0.558-0.125 0.819-0.221 0.223-0.082 0.443-0.169 0.685-0.202 0.301-0.038 0.688 0.004 0.958 0.122 0.071 0.032 0.127 0.084 0.194 0.116 0.164 0.079 0.14 0.049 0.352-0.022 0.404-0.137 0.848-0.232 1.281-0.227 0.497 0.007 1.046 0.095 1.482 0.302 0.244 0.116 0.568 0.157 0.756 0.349 0.125 0.128 0.173 0.281 0.247 0.432 0.056 0.11 0.135 0.205 0.166 0.318 0.051 0.194-0.058 0.282 0.189 0.407 0.080 0.041 0.137 0.054 0.205 0.114 0.050 0.043 0.055 0.091 0.014 0.104z"></path>
<path d="M16.493 26.34c0 0.096-0.017 0.208 0.014 0.299 0.013 0.038 0.040 0.064 0.047 0.114s-0.001 0.106-0.001 0.157c-0.001 0.223-0.044 0.364-0.12 0.571-0.026 0.072-0.092 0.174-0.003 0.209 0.074 0.029 0.273-0.004 0.358-0.004 0.271 0 0.563-0.018 0.796-0.125 0.549-0.25 1.318-0.486 1.58-1.036 0.055-0.114 0.145-0.251 0.155-0.372 0.011-0.145 0.080-0.313 0.059-0.457-0.031-0.214-0.179-0.417-0.31-0.595-0.146-0.007-0.143 0.258-0.176 0.346-0.031 0.084-0.114 0.139-0.178 0.205-0.052 0.053-0.069 0.114-0.114 0.169-0.052 0.065-0.146 0.113-0.212 0.169-0.084 0.072-0.167 0.143-0.25 0.214-0.207 0.169-0.44 0.293-0.705 0.369-0.218 0.062-0.618 0.061-0.941-0.234z"></path>
<path d="M20.199 11.937c0.015 0.085-0.051 0.151-0.061 0.234-0.010 0.077-0.004 0.132-0.027 0.206-0.061 0.197 0.001 0.383-0.125 0.57-0.125 0.185-0.184 0.401-0.314 0.586-0.031 0.042-0.080 0.072-0.11 0.116-0.017 0.025-0.006 0.063-0.024 0.089-0.052 0.083-0.16 0.136-0.205 0.222 0.033 0.058 0.263 0.092 0.338 0.103 0.089 0.014 0.199-0.003 0.289-0.003 0.242 0 0.488-0.018 0.711-0.112 0.084-0.036 0.157-0.124 0.234-0.173 0.096-0.063 0.179-0.131 0.265-0.206 0.14-0.124 0.241-0.26 0.33-0.408 0.070-0.118 0.163-0.24 0.099-0.383-0.056-0.124-0.215-0.248-0.34-0.323-0.162-0.096-0.343-0.152-0.516-0.22-0.079-0.032-0.129-0.029-0.22-0.037-0.12-0.014-0.197-0.056-0.324-0.261z"></path>
<path d="M18.787 12.040c-0.016 0.002-0.032 0.007-0.050 0.007-0.051 0.125-0.010 0.324-0.010 0.458 0 0.218-0.001 0.412-0.051 0.623-0.030 0.127-0.113 0.177-0.172 0.295-0.047 0.092-0.069 0.173-0.129 0.259-0.054 0.079-0.118 0.146-0.178 0.221s-0.113 0.080-0.181 0.136c0.031-0.092-0.059-0.254-0.098-0.34-0.059-0.141-0.1-0.284-0.146-0.429-0.050-0.156-0.143-0.302-0.207-0.451-0.030-0.072-0.062-0.142-0.090-0.213-0.014-0.032-0.090-0.141-0.092-0.164-0.010-0.187 0.422-0.368 0.576-0.442 0.151-0.073 0.717-0.166 0.825 0.038z"></path>
<path d="M15.905 12.507c0.182 0.025 0.4 0.203 0.529 0.309 0.193 0.161 0.287 0.344 0.338 0.57 0.049 0.218 0.134 0.394 0.132 0.617 0 0.183 0.040 0.392-0.057 0.559-0.027-0.083-0.302-0.268-0.371-0.317-0.143-0.101-0.293-0.226-0.454-0.302-0.246-0.116-0.482-0.248-0.735-0.344-0.095-0.036-0.315-0.038-0.317-0.148 0-0.037 0.181-0.241 0.214-0.275 0.181-0.173 0.506-0.309 0.554-0.558 0.016-0.002 0.032-0.007 0.166-0.112z"></path>
</svg>
