<!-- Generated by IcoMoon.io -->
<svg version="1.1" xmlns="http://www.w3.org/2000/svg" width="33" height="32" viewBox="0 0 33 32">
<title>deep_dreams</title>
<path d="M15.864 29.712c-0.244-0.171-0.629-0.735-0.855-1.252s-0.583-1.169-0.792-1.447c-0.209-0.278-0.447-0.964-0.53-1.525-0.097-0.657-0.372-1.274-0.775-1.737-0.487-0.559-0.594-0.848-0.484-1.307 0.196-0.822 0.27-0.916 0.72-0.916 0.218 0 0.518-0.147 0.667-0.327s0.458-0.327 0.687-0.327c0.229 0 0.725-0.337 1.103-0.748 0.55-0.599 0.766-0.706 1.082-0.537 0.217 0.116 0.395 0.339 0.395 0.495s0.294 0.545 0.653 0.865c0.359 0.32 0.653 0.679 0.653 0.798s0.343 0.216 0.762 0.216c0.532 0 0.762 0.099 0.762 0.327 0 0.18 0.147 0.327 0.327 0.327 0.462 0 0.406 0.319-0.176 0.996-0.391 0.454-0.756 0.609-1.638 0.694-0.624 0.060-1.177 0.176-1.227 0.258s0.404 0.085 1.009 0.008l1.102-0.141-0.135 0.985c-0.074 0.541-0.303 1.236-0.509 1.543s-0.589 1.016-0.852 1.576c-0.263 0.559-0.676 1.123-0.917 1.252-0.547 0.293-0.502 0.296-1.033-0.076zM15.339 24.36c-0.419-0.23-1.007-0.411-1.307-0.404-0.486 0.012-0.474 0.030 0.116 0.172 0.364 0.087 0.854 0.27 1.089 0.407s0.526 0.247 0.646 0.246c0.12-0.001-0.125-0.19-0.544-0.42zM12.086 22.231c-0.008-0.152-0.264-0.391-0.569-0.53-0.447-0.204-0.543-0.384-0.49-0.921 0.054-0.557 0.17-0.68 0.699-0.74 0.601-0.069 2.176-1.344 1.66-1.344-0.135 0-0.472 0.245-0.75 0.544s-0.689 0.546-0.915 0.548c-0.6 0.005-0.869 0.247-1.038 0.935-0.124 0.506-0.233 0.587-0.633 0.47-0.722-0.211-1.702-1.446-1.419-1.787 0.125-0.151 0.42-0.274 0.655-0.274 0.275 0 0.516-0.233 0.675-0.653 0.215-0.569 0.354-0.653 1.077-0.653 0.537 0 0.875-0.115 0.956-0.327 0.069-0.18 0.384-0.34 0.701-0.356 0.57-0.029 0.571-0.031 0.043-0.13-0.336-0.063-0.63 0.033-0.797 0.262-0.145 0.199-0.396 0.344-0.557 0.322-1.053-0.144-1.459 0.025-1.599 0.665-0.111 0.503-0.263 0.653-0.663 0.653-0.297 0-0.62 0.187-0.753 0.436-0.327 0.61-1.093 0.544-2.091-0.181-1.602-1.164-1.792-1.851-0.452-1.634 0.559 0.091 0.863-0.008 1.389-0.45 0.37-0.311 0.874-0.566 1.119-0.566s0.597-0.215 0.781-0.478c0.184-0.263 0.648-0.581 1.031-0.708s0.742-0.377 0.799-0.557c0.081-0.257 0.011-0.245-0.328 0.054-0.237 0.21-0.627 0.381-0.868 0.381-0.256 0-0.541 0.226-0.686 0.544-0.174 0.382-0.421 0.544-0.827 0.544-0.342 0-0.792 0.23-1.1 0.563-0.461 0.497-0.628 0.545-1.441 0.408-0.506-0.085-1.136-0.236-1.401-0.336-0.729-0.276-1.646-1.81-1.68-2.812-0.016-0.474-0.149-0.982-0.295-1.129s-0.266-0.639-0.266-1.094c0-0.68 0.077-0.828 0.431-0.828 0.296 0 0.47 0.188 0.554 0.599 0.247 1.208 0.617 1.637 1.678 1.944 0.897 0.26 1.134 0.255 1.839-0.040 0.726-0.303 0.829-0.304 0.996-0.005 0.265 0.473 1.332 0.413 1.798-0.102 0.217-0.24 0.649-0.449 0.959-0.465 0.553-0.029 0.554-0.032 0.046-0.128-0.314-0.059-0.763 0.082-1.135 0.356-0.724 0.536-1.251 0.583-1.425 0.128-0.158-0.411-0.493-0.413-1.309-0.006-1.147 0.572-3.126-0.255-3.126-1.306 0-0.265-0.202-0.739-0.45-1.053s-0.393-0.664-0.323-0.777c0.070-0.113 0.023-0.269-0.104-0.347-0.467-0.289 0.393-1.848 1.019-1.848 0.161 0 0.293 0.186 0.293 0.412s0.135 0.464 0.301 0.528c0.166 0.064 0.392 0.491 0.504 0.949 0.192 0.788 0.245 0.831 0.991 0.787 0.537-0.031 0.821 0.057 0.89 0.277 0.065 0.208 0.087 0.186 0.061-0.063-0.031-0.302-0.208-0.372-0.82-0.325-0.757 0.059-0.785 0.034-0.922-0.825-0.078-0.487-0.287-0.941-0.464-1.009s-0.323-0.304-0.323-0.523c0-0.22-0.098-0.46-0.218-0.534-0.375-0.232-0.239-0.884 0.286-1.378 0.842-0.791 1.238-0.516 1.238 0.858 0 0.353 0.138 0.695 0.307 0.76s0.366 0.354 0.439 0.643c0.085 0.339 0.343 0.576 0.728 0.668 0.903 0.216 1.172 0.525 1.098 1.263-0.059 0.593 0.004 0.679 0.546 0.741 0.588 0.067 1.834-0.528 1.598-0.763-0.063-0.063-0.338 0.043-0.612 0.235-0.832 0.583-1.272 0.455-1.272-0.37 0-0.845-0.328-1.242-1.028-1.242-0.342 0-0.591-0.194-0.771-0.599-0.146-0.329-0.38-0.697-0.52-0.817s-0.321-0.817-0.402-1.549c-0.118-1.073-0.083-1.355 0.178-1.456 0.409-0.157 1.118 0.598 0.897 0.955-0.098 0.158-0.073 0.209 0.062 0.126 0.124-0.077 0.231-0.548 0.238-1.047 0.012-0.882 0.4-1.438 0.755-1.083 0.096 0.096 0.212 0.705 0.256 1.352 0.059 0.854-0.013 1.282-0.262 1.558-0.313 0.348-0.309 0.419 0.046 0.811 0.214 0.237 0.566 0.486 0.782 0.555s0.435 0.341 0.486 0.605l0.093 0.48 0.030-0.482c0.016-0.265-0.142-0.582-0.352-0.704s-0.569-0.369-0.799-0.549c-0.402-0.314-0.403-0.343-0.029-0.757 0.265-0.293 0.345-0.606 0.251-0.982-0.159-0.635 0.261-2.547 0.612-2.785 0.304-0.205 0.389-0.202 0.764 0.036 0.265 0.168 0.261 0.269-0.028 0.711-0.345 0.527-0.392 2.134-0.083 2.828 0.090 0.201 0.449 0.466 0.799 0.588s0.639 0.349 0.643 0.505c0.012 0.493 0.806 1.264 1.3 1.264 0.292 0 0.519 0.168 0.589 0.436 0.063 0.24 0.255 0.436 0.428 0.436s0.251 0.102 0.174 0.227c-0.077 0.125-0.338 0.164-0.579 0.087-0.395-0.125-0.424-0.071-0.291 0.536 0.116 0.528 0.075 0.675-0.189 0.675-0.21 0-0.29 0.123-0.212 0.327 0.069 0.18 0.295 0.327 0.503 0.327s0.49 0.247 0.628 0.549c0.209 0.459 0.349 0.526 0.852 0.405 0.863-0.207 0.873-0.263 0.159-0.833-0.618-0.493-0.629-0.53-0.263-0.934 0.209-0.231 0.315-0.486 0.235-0.566s-0.031-0.146 0.108-0.146c0.323 0 0.326 0.276 0.008 0.595-0.183 0.183-0.037 0.334 0.571 0.588 1.155 0.483 1.207 0.453 1.062-0.608-0.112-0.818-0.063-0.997 0.357-1.291 0.46-0.322 0.485-0.48 0.45-2.826-0.029-1.962 0.031-2.541 0.286-2.753 0.48-0.398 0.851 0.438 0.701 1.574-0.109 0.819-0.099 0.845 0.096 0.256 0.119-0.359 0.205-0.898 0.19-1.198s-0.004-0.618 0.024-0.708c0.092-0.3 0.159-0.597 0.186-0.831 0.015-0.128 0.297-0.201 0.626-0.163 0.488 0.056 0.588 0.166 0.541 0.593-0.032 0.288 0.111 0.71 0.317 0.938 0.306 0.338 0.327 0.491 0.112 0.835-0.144 0.231-0.263 0.571-0.263 0.756s-0.245 0.428-0.544 0.542c-0.299 0.114-0.544 0.341-0.544 0.506s-0.221 0.411-0.49 0.549c-0.437 0.223-0.443 0.244-0.054 0.195 0.24-0.030 0.53-0.269 0.645-0.53s0.384-0.521 0.598-0.577c0.214-0.056 0.447-0.282 0.518-0.503s0.231-0.614 0.354-0.872c0.168-0.353 0.142-0.588-0.105-0.94-0.82-1.17 0.887-2.958 1.788-1.873 0.201 0.243 0.182 0.458-0.089 0.982-0.338 0.654-0.333 0.677 0.204 0.922 0.641 0.292 0.786 1.412 0.212 1.632-0.197 0.076-0.285 0.271-0.21 0.466 0.071 0.185 0.003 0.415-0.151 0.513-0.206 0.131-0.179 0.178 0.102 0.181 0.262 0.002 0.381-0.167 0.381-0.541 0-0.299 0.098-0.545 0.218-0.545s0.218-0.331 0.218-0.736c0-0.509-0.143-0.831-0.465-1.044-0.516-0.342-0.456-0.805 0.216-1.676 0.34-0.441 0.466-0.479 0.87-0.263 0.379 0.203 0.429 0.334 0.251 0.666-0.148 0.276-0.149 0.458-0.003 0.548 0.12 0.074 0.23 0.35 0.244 0.612 0.020 0.384 0.045 0.401 0.127 0.086 0.056-0.215-0.016-0.533-0.159-0.705-0.206-0.248-0.19-0.341 0.078-0.444 0.845-0.324 1.121-0.020 1.304 1.435 0.116 0.925 0.097 1.543-0.054 1.791-0.128 0.208-0.232 0.536-0.232 0.729s-0.294 0.626-0.653 0.962c-0.487 0.455-0.653 0.806-0.653 1.38 0 0.565-0.11 0.804-0.416 0.901-0.229 0.073-0.471 0.275-0.538 0.45-0.075 0.195-0.416 0.318-0.877 0.318-0.572 0-0.789-0.109-0.898-0.451-0.090-0.284-0.263-0.405-0.466-0.327-0.178 0.068-0.508 0.025-0.734-0.096-0.526-0.281-0.297-1.001 0.435-1.369 0.285-0.143 0.557-0.408 0.604-0.587 0.063-0.243 0.006-0.229-0.225 0.054-0.17 0.21-0.415 0.381-0.543 0.381s-0.447 0.299-0.707 0.665c-0.451 0.633-0.455 0.685-0.096 1.082 0.219 0.242 0.328 0.604 0.261 0.862-0.167 0.638 0.59 1.016 1.287 0.643 0.285-0.152 0.517-0.358 0.517-0.458s0.279-0.181 0.62-0.181c0.343 0 0.796-0.194 1.014-0.436 0.217-0.24 0.526-0.436 0.687-0.436 0.191 0 0.293-0.272 0.293-0.779 0-0.575 0.171-0.95 0.653-1.433 0.366-0.366 0.653-0.885 0.653-1.181 0-0.29 0.112-0.528 0.248-0.528 0.169 0 0.211-0.365 0.132-1.143-0.086-0.844-0.033-1.221 0.204-1.44 0.274-0.253 0.438-0.202 1.121 0.35 0.841 0.68 1.049 1.145 0.788 1.756-0.087 0.203-0.176 0.53-0.198 0.727s-0.374 0.663-0.781 1.035c-0.407 0.372-0.639 0.676-0.516 0.676 0.443 0 1.677-1.486 1.537-1.851-0.111-0.29-0.007-0.342 0.57-0.287 0.652 0.063 0.712 0.134 0.777 0.931 0.047 0.571-0.037 0.941-0.247 1.094-0.174 0.128-0.354 0.425-0.399 0.662-0.046 0.241-0.29 0.46-0.554 0.498-0.26 0.037-0.589 0.209-0.732 0.381s-0.474 0.314-0.735 0.314c-0.608 0-0.997 0.393-0.997 1.008 0 0.267-0.258 0.688-0.574 0.937s-0.463 0.451-0.327 0.451c0.44 0 1.118-0.856 1.118-1.412 0-0.414 0.14-0.57 0.599-0.666 0.329-0.069 0.746-0.22 0.926-0.334s0.596-0.314 0.926-0.444c0.341-0.134 0.599-0.403 0.599-0.624 0-0.213 0.147-0.51 0.327-0.659s0.327-0.568 0.327-0.931v-0.66l0.426 0.491c0.234 0.27 0.592 0.926 0.795 1.457 0.313 0.82 0.326 1.046 0.082 1.502-0.158 0.295-0.406 0.537-0.55 0.537s-0.385 0.147-0.534 0.327c-0.149 0.18-0.504 0.327-0.789 0.327-0.33 0-0.518 0.127-0.518 0.35 0 0.222-0.12 0.304-0.327 0.225-0.18-0.069-0.327-0.030-0.327 0.086 0 0.338 0.655 0.243 0.793-0.116 0.069-0.18 0.348-0.327 0.62-0.327s0.621-0.152 0.774-0.337c0.154-0.185 0.485-0.308 0.735-0.272 0.684 0.098 0.749 1.364 0.106 2.049-0.269 0.286-0.671 0.521-0.892 0.521-0.224 0-0.491 0.23-0.6 0.517-0.268 0.705-2.019 1.011-2.629 0.458-0.293-0.265-0.59-0.322-1.097-0.211-0.482 0.106-0.759 0.062-0.902-0.143-0.168-0.239-0.19-0.233-0.116 0.031 0.058 0.209 0.36 0.327 0.833 0.327 0.408 0 0.962 0.126 1.232 0.28 0.329 0.188 0.849 0.232 1.582 0.135 0.908-0.121 1.114-0.232 1.222-0.661 0.091-0.363 0.284-0.516 0.65-0.516 0.504 0 0.618 0.186 0.531 0.871-0.073 0.576-1.104 1.976-1.587 2.155-0.501 0.185-1.962-0.262-2.596-0.795-0.261-0.219-0.644-0.261-1.377-0.151-0.949 0.142-1.067 0.104-1.797-0.583l-0.781-0.735 0.634 0.834c0.626 0.823 0.648 0.832 1.793 0.704 0.959-0.107 1.255-0.054 1.717 0.31 0.307 0.242 0.729 0.439 0.938 0.439s0.501 0.147 0.65 0.326c0.218 0.262 0.201 0.432-0.089 0.874-0.457 0.697-1.281 0.562-2.14-0.349-0.505-0.536-0.764-0.632-1.696-0.632-0.663 0-1.322-0.145-1.658-0.366-0.447-0.293-0.64-0.314-0.97-0.109-0.555 0.347-1.216 0.324-1.358-0.046-0.078-0.204 0.101-0.346 0.548-0.436 0.496-0.099 0.608-0.202 0.444-0.405-0.274-0.339-0.284-1.435-0.014-1.602 0.11-0.068 0.343-0.005 0.517 0.14 0.25 0.207 0.317 0.203 0.317-0.019 0-0.155 0.16-0.459 0.357-0.676 0.334-0.369 0.313-0.439-0.324-1.090-0.625-0.64-0.724-0.673-1.218-0.408-0.457 0.245-0.616 0.236-1.063-0.057-0.468-0.307-0.576-0.309-0.99-0.019-0.456 0.319-0.652 1.172-0.269 1.172 0.107 0 0.426 0.243 0.708 0.541s0.641 0.542 0.798 0.544c0.157 0.002 0.229 0.095 0.16 0.206s0.048 0.246 0.259 0.299c0.211 0.053 0.017 0.059-0.432 0.013-0.694-0.071-0.817-0.020-0.817 0.342 0 0.234-0.103 0.489-0.228 0.566-0.156 0.096-0.148 0.238 0.027 0.448 0.154 0.186 0.168 0.307 0.034 0.307-0.311 0-0.56-0.738-0.28-0.831 0.364-0.121 0.268-0.81-0.168-1.205-0.523-0.474-0.691-0.455-0.691 0.078 0 0.241-0.091 0.609-0.202 0.817s-0.255 0.55-0.32 0.759c-0.065 0.21-0.317 0.381-0.56 0.381-0.505 0-0.544 0.191-0.197 0.954 0.135 0.296 0.183 0.789 0.106 1.095-0.148 0.59-1.405 2.089-1.751 2.089-0.52 0-2.139 0.975-2.306 1.389-0.103 0.254-0.193 0.338-0.201 0.185zM15.926 17.851c-0.056-0.194-0.168-0.511-0.248-0.705s-0.017-0.488 0.141-0.653c0.158-0.165 0.412-0.583 0.565-0.928 0.24-0.541 0.226-0.685-0.099-1.044-0.208-0.229-0.579-0.388-0.825-0.353-0.373 0.053-0.436 0.196-0.379 0.852 0.070 0.806-0.281 1.177-0.892 0.943-0.153-0.059-0.461 0.027-0.684 0.19-0.31 0.226-0.354 0.389-0.187 0.686 0.141 0.251 0.27 0.305 0.365 0.152 0.106-0.171 0.297-0.169 0.684 0.007 0.486 0.221 0.614 0.47 0.601 1.173-0.002 0.134 0.227 0.192 0.528 0.135 0.364-0.070 0.5-0.213 0.43-0.454zM14.087 15.562c0.493-0.374 0.483-0.568-0.028-0.568-0.225 0-0.531-0.147-0.68-0.327-0.377-0.455-0.716-0.408-1.063 0.147-0.259 0.415-0.247 0.51 0.098 0.762 0.498 0.364 1.181 0.358 1.672-0.015zM5.32 15.23c-0.539-0.078-1.314-0.31-1.721-0.515-0.873-0.44-1.078-0.472-0.718-0.113 0.416 0.416 1.603 0.776 2.549 0.773l0.871-0.003-0.98-0.142zM14.128 14.256c-0.096-0.381-0.005-0.608 0.339-0.849 0.571-0.4 0.203-0.722-0.396-0.347-0.546 0.341-1.127 0.102-1.127-0.463 0-0.468-0.759-0.898-1.252-0.71-0.323 0.123-0.37 0.928-0.054 0.928 0.342 0 0.254 0.593-0.109 0.732-0.625 0.24-0.322 0.575 0.52 0.575 0.466 0 1.127 0.146 1.47 0.325 0.791 0.413 0.764 0.421 0.611-0.192zM18.46 11.291c0.372 0 0.582-0.118 0.582-0.327 0-0.18-0.094-0.327-0.209-0.327s-0.329-0.417-0.475-0.926c-0.146-0.509-0.283-0.953-0.305-0.986-0.118-0.183-1.843 0.954-1.843 1.214 0 0.171 0.214 0.691 0.475 1.156 0.429 0.764 0.509 0.814 0.834 0.52 0.198-0.179 0.621-0.325 0.941-0.325zM11.413 10.304c-0.146-0.176-0.358-0.319-0.472-0.319s-0.053 0.154 0.136 0.342c0.188 0.188 0.35 0.458 0.359 0.599 0.012 0.173 0.054 0.166 0.13-0.023 0.062-0.154-0.007-0.423-0.153-0.599zM20.052 22.073c-0.069-0.18-0.364-0.327-0.655-0.327-0.561 0-2.098-1.353-2.098-1.846 0-0.153-0.147-0.4-0.327-0.549s-0.324-0.578-0.32-0.952c0.005-0.568 0.043-0.618 0.229-0.3 0.166 0.286 0.506 0.381 1.357 0.381 0.899 0 1.191 0.091 1.407 0.436 0.176 0.282 0.483 0.424 0.869 0.403l0.597-0.033-0.599-0.091c-0.329-0.050-0.701-0.28-0.824-0.512-0.141-0.263-0.455-0.421-0.837-0.421-0.337 0-0.783-0.189-0.993-0.42-0.366-0.405-0.362-0.416 0.11-0.292 0.413 0.108 0.472 0.058 0.372-0.323-0.151-0.577 0.638-0.833 1.147-0.372 0.416 0.376 1.543 0.421 1.889 0.075 0.179-0.179 0.376-0.15 0.745 0.109 0.305 0.214 0.944 0.352 1.627 0.352 0.95 0 1.178 0.082 1.47 0.528 0.19 0.29 0.545 0.591 0.787 0.668 0.654 0.208 0.537 0.665-0.296 1.156-0.656 0.387-0.774 0.399-1.064 0.108-0.364-0.364-2.554-0.569-2.554-0.239 0 0.115 0.275 0.148 0.616 0.073 0.744-0.163 1.85 0.216 1.727 0.592-0.049 0.149-0.654 0.498-1.346 0.775-1.146 0.46-1.291 0.474-1.635 0.163-0.207-0.188-0.535-0.341-0.728-0.341s-0.504-0.218-0.691-0.484c-0.186-0.266-0.336-0.389-0.332-0.272 0.012 0.36 0.57 0.974 0.888 0.978 0.166 0.002 0.437 0.088 0.601 0.192 0.241 0.152 0.209 0.278-0.163 0.65-0.545 0.545-0.805 0.581-0.976 0.135zM14.33 9.659c-0.069-0.179-0.214-0.271-0.322-0.204-0.339 0.209-1.012-0.12-1.125-0.55-0.067-0.257-0.341-0.438-0.731-0.483-0.451-0.052-0.714-0.263-0.95-0.762-0.18-0.38-0.645-0.844-1.035-1.031s-0.714-0.416-0.721-0.507c-0.007-0.092-0.049-0.559-0.094-1.038s0.053-1.165 0.217-1.525c0.164-0.359 0.35-0.825 0.414-1.035s0.193-0.38 0.286-0.378c0.755 0.015 1.193 1.609 0.696 2.537-0.273 0.51-0.253 0.59 0.242 0.967 0.55 0.419 0.686 0.549 1.356 1.296 0.505 0.563 2.006 0.592 2.24 0.044 0.245-0.576 0.271-1.143 0.052-1.143-0.107 0-0.167 0.172-0.132 0.381 0.1 0.607-0.227 0.926-0.949 0.926-0.513 0-0.914-0.248-1.714-1.061-0.724-0.736-0.975-1.131-0.817-1.288 0.125-0.125 0.19-0.61 0.146-1.078-0.062-0.647 0.032-0.971 0.389-1.352 0.643-0.686 1.032-0.4 0.867 0.637-0.1 0.626-0.038 0.896 0.272 1.176 0.26 0.235 0.366 0.554 0.299 0.903-0.057 0.296-0.015 0.539 0.093 0.539 0.327 0 0.173-1.052-0.216-1.483-0.48-0.53-0.46-0.807 0.095-1.324 0.494-0.46 1.065-0.395 1.065 0.121 0 0.174 0.091 0.26 0.203 0.191 0.119-0.073 0.169 0.306 0.122 0.913-0.069 0.881-0.048 0.95 0.136 0.458 0.237-0.636 0.804-0.965 1.12-0.649 0.285 0.285 0.401 3.505 0.144 3.986-0.118 0.221-0.446 0.402-0.728 0.402-0.55 0-0.896 0.748-0.646 1.398 0.073 0.189 0.069 0.344-0.007 0.344s-0.195-0.146-0.264-0.325zM15.176 9.189c-0.51-0.211-0.274-0.68 0.392-0.777 0.572-0.084 0.655-0.035 0.599 0.354-0.065 0.454-0.484 0.632-0.991 0.423zM6.426 4.412c0.010-0.254 0.062-0.305 0.132-0.132 0.063 0.157 0.055 0.345-0.017 0.418s-0.124-0.056-0.114-0.286z"></path>
</svg>
