<!-- Generated by IcoMoon.io -->
<svg version="1.1" xmlns="http://www.w3.org/2000/svg" width="32" height="32" viewBox="0 0 32 32">
<title>delete</title>
<path fill="#394852" d="M14.225 3.309c-1.485-0.398-3.033 0.494-3.431 1.978l-4.656 17.387c-0.398 1.485 0.493 3.030 1.978 3.428l9.659 2.587c1.485 0.398 3.033-0.494 3.431-1.978l4.656-17.387c0.398-1.485-0.494-3.030-1.978-3.428zM13.809 4.853l9.659 2.588c0.649 0.174 1.024 0.823 0.85 1.472l-4.659 17.384c-0.174 0.649-0.819 1.024-1.469 0.85l-9.659-2.587c-0.649-0.174-1.024-0.823-0.85-1.472l4.659-17.384c0.174-0.649 0.819-1.024 1.469-0.85z"></path>
<path fill="#394852" d="M13.856 10.684l-1.387 0.8 2.438 4.222-4.222 2.438 0.8 1.387 4.222-2.438 2.438 4.222 1.387-0.8-2.438-4.222 4.222-2.438-0.8-1.387-4.222 2.438z"></path>
</svg>
