<!-- Generated by IcoMoon.io -->
<svg version="1.1" xmlns="http://www.w3.org/2000/svg" width="30" height="32" viewBox="0 0 30 32">
<title>delusory_evils</title>
<path d="M26.716 7.427c-0.256-0.062-0.463 0.12-0.569 0.344-0.084 0.178-0.272 0.556 0.098 0.822-0.155-0.037-0.249 0.142-0.316 0.246-0.17 0.263-0.319 0.491-0.648 0.571-0.193 0.047-0.423 0.011-0.622 0.011-0.274 0-0.547 0-0.822 0h-1.901c-0.502 0-1.003 0.003-1.506-0.001-0.202-0.001-0.404 0.006-0.607 0.016-0.054-0.442-0.128-0.884-0.182-1.328-0.081-0.665-0.087-1.318-0.087-1.988 0-0.289-0.021-0.583-0.004-0.872 0.007-0.144 0.040-0.272 0.142-0.38-0.137 0.006-0.075-0.166-0.276-0.261-0.156-0.073-0.321-0.124-0.482-0.205-0.066-0.034-0.127-0.065-0.189-0.104-0.061-0.037-0.186-0.169-0.246-0.18-0.24-0.043-0.051 0.499-0.048 0.652 0.008 0.377 0.2 0.738 0.207 1.128 0.007 0.305 0.080 0.598 0.123 0.902 0.051 0.363 0.015 0.753 0.015 1.119 0 0.532-0.001 1.064-0.003 1.596-0.25 0.021-0.5 0.040-0.752 0.051-0.691 0.029-1.371 0.061-2.064 0.061h-4.246c0.133-0.318 0.246-0.648 0.376-0.951 0.309-0.727 0.489-1.465 0.482-2.261-0.004-0.448-0.001-0.896-0.001-1.342-0.13-0.122-0.188-0.275-0.211-0.415-0.018-0.109 0.003-0.167-0.046-0.276-0.022-0.046-0.055-0.090-0.073-0.138-0.034-0.095-0.041-0.184-0.098-0.274-0.064-0.101-0.144-0.169-0.196-0.279-0.076-0.159-0.13-0.287-0.272-0.398-0.153-0.12-0.475-0.362-0.678-0.278-0.149 0.062-0.181 0.204-0.1 0.336 0.137 0.218 0.394 0.372 0.572 0.547 0.184 0.18 0.392 0.521 0.481 0.76 0.065 0.174 0.039 0.293 0.066 0.467 0.017 0.106 0.064 0.182 0.073 0.29 0.008 0.084-0.001 0.178-0.001 0.263 0 0.169-0.006 0.27-0.051 0.426-0.039 0.128-0.079 0.286-0.090 0.419-0.010 0.095 0.022 0.181-0.007 0.272-0.034 0.104-0.145 0.178-0.185 0.28-0.032 0.081-0.028 0.173-0.061 0.257-0.083 0.22-0.211 0.437-0.311 0.651-0.282 0.603-0.656 1.18-1.146 1.643h-1.176c-1.079 0-2.178 0.062-3.254 0.001-0.395-0.022-0.912-0.209-1.224-0.449-0.192-0.148-0.332-0.341-0.463-0.55-0.080-0.128-0.152-0.26-0.239-0.383-0.115-0.162-0.264-0.279-0.383-0.428-0.133-0.167-0.348-0.48-0.445-0.090-0.058 0.229-0.011 0.542 0.032 0.764 0.050 0.264 0.152 0.444 0.315 0.676 0.112 0.158 0.158 0.316 0.21 0.499 0.102 0.359 0.206 0.738 0.614 0.843 0.249 0.064 0.56 0.014 0.814 0.014h1.412c0.846 0 1.697-0.047 2.533 0.086 0.014 0.003 0.029 0.004 0.043 0.007-0.038 0.026-0.073 0.054-0.111 0.080-0.085 0.055-0.163 0.117-0.246 0.175-0.068 0.048-0.153 0.079-0.221 0.127-0.101 0.075-0.127 0.194-0.224 0.272-0.075 0.061-0.147 0.088-0.222 0.163-0.185 0.181-0.398 0.298-0.59 0.466-0.108 0.094-0.158 0.206-0.286 0.283-0.112 0.066-0.239 0.104-0.354 0.166-0.203 0.115-0.369 0.285-0.564 0.415-0.246 0.163-0.479 0.321-0.709 0.504-0.203 0.162-0.437 0.29-0.658 0.426-0.218 0.134-0.408 0.402-0.586 0.589-0.455 0.477-0.756 0.994-0.982 1.611-0.095 0.26-0.202 0.52-0.275 0.788-0.076 0.278-0.189 0.55-0.218 0.84-0.028 0.274-0.025 0.58-0.008 0.854 0.021 0.362 0.157 0.665 0.282 0.995 0.181 0.478 0.28 0.962 0.554 1.398 0.207 0.329 0.58 0.623 0.905 0.828 0.357 0.225 0.678 0.359 1.083 0.482 0.279 0.085 0.554 0.104 0.84 0.156 0.337 0.062 0.672 0.105 1.016 0.090 0.246-0.011 0.511-0.048 0.753-0.089 0.238-0.039 0.481-0.040 0.718-0.088 0.187-0.037 0.37-0.022 0.546-0.102 0.111-0.051 0.229-0.089 0.345-0.138 0.397-0.173 0.789-0.351 1.118-0.673 0.088-0.088 0.131-0.18 0.204-0.278 0.071-0.093 0.147-0.138 0.2-0.249 0.050-0.1 0.094-0.202 0.149-0.303 0.047-0.088 0.126-0.153 0.174-0.236 0.032-0.055 0.011-0.131 0.026-0.192 0.024-0.090 0.093-0.167 0.112-0.262 0.028-0.14 0.043-0.259 0.091-0.394 0.116-0.33 0.283-0.649 0.267-1.006-0.008-0.162-0.032-0.323-0.068-0.479-0.033-0.147-0.137-0.25-0.175-0.401-0.093-0.362-0.165-0.669-0.39-0.976-0.286-0.388-0.969-0.611-1.412-0.761-0.426-0.144-0.901-0.178-1.35-0.141-0.431 0.036-0.93 0.399-1.19 0.731-0.162 0.207-0.316 0.524-0.312 0.79 0.003 0.297-0.022 0.528 0.135 0.793 0.148 0.25 0.307 0.394 0.553 0.518 0.238 0.117 0.51 0.209 0.796 0.14 0.2-0.048 0.421-0.191 0.631-0.225-0.228-0.193-0.528-0.283-0.738-0.493-0.218-0.217-0.337-0.493-0.26-0.802 0.034-0.135 0.098-0.298 0.175-0.417 0.112-0.174 0.239-0.134 0.434-0.134 0.153 0 0.263 0.010 0.405 0.051 0.124 0.037 0.325 0.008 0.428 0.099 0.058 0.053 0.070 0.12 0.126 0.177 0.077 0.080 0.152 0.112 0.229 0.222 0.065 0.093 0.133 0.188 0.188 0.287 0.138 0.25 0.216 0.565 0.297 0.84 0.106 0.368 0.007 0.724-0.073 1.082-0.106 0.47-0.357 0.784-0.825 0.967-0.305 0.119-0.669 0.141-0.998 0.138-0.5-0.003-0.999-0.001-1.499-0.003-0.618 0-1.126-0.101-1.666-0.413-0.33-0.191-0.536-0.421-0.702-0.759-0.41-0.833-0.173-1.944 0.136-2.779 0.146-0.399 0.322-0.826 0.582-1.165 0.254-0.33 0.484-0.683 0.817-0.94 0.506-0.39 1.046-0.728 1.633-0.98 0.456-0.196 0.871-0.433 1.293-0.691 0.37-0.228 0.695-0.441 0.953-0.795 0.225-0.307 0.515-0.58 0.691-0.911 0.013-0.025 0.028-0.047 0.041-0.072 0.377-0.001 0.757-0.016 1.13-0.016 1.689 0 3.377-0.006 5.067 0 0.417 0.001 0.85 0.036 1.262-0.040 0.094-0.018 0.185-0.034 0.278-0.051 0 0.216 0 0.43 0.001 0.645 0.003 0.333-0.044 0.658-0.069 0.988-0.010 0.135-0.047 0.263-0.083 0.39h-0.087c-0.515 0-1.031-0.001-1.546 0-0.406 0-0.819-0.028-1.224 0.015-0.123 0.013-0.247 0.057-0.372 0.054-0.075 0.54 0.086 0.623 0.341 0.62 0.301-0.003 0.602 0 0.902 0h1.776c0.044 0 0.089 0 0.133 0-0.024 0.526-0.053 1.056-0.048 1.581 0.004 0.412-0.036 0.854-0.117 1.257-0.093 0.463-0.287 0.888-0.351 1.357-0.025 0.181-0.033 0.35-0.066 0.528-0.033 0.188-0.077 0.388-0.089 0.578-0.019 0.294-0.030 0.622 0.072 0.902 0.037 0.105 0.109 0.213 0.058 0.325-0.113-0.065-0.339-0.092-0.467-0.131-0.235-0.069-0.475-0.050-0.717-0.050-0.463 0-0.894 0.021-1.345 0.138-0.33 0.086-0.64 0.158-0.962 0.292-0.175 0.072-0.404 0.145-0.558 0.259-0.12 0.087-0.196 0.229-0.286 0.343-0.218 0.272-0.325 0.658-0.482 0.969-0.26 0.513-0.468 0.934-0.488 1.523-0.018 0.591 0.018 1.306 0.278 1.849 0.091 0.191 0.214 0.267 0.347 0.419 0.131 0.154 0.197 0.345 0.292 0.521 0.088 0.17 0.216 0.322 0.25 0.515 0.028 0.156 0.025 0.329 0.044 0.487 0.030 0.251-0.010 0.59 0.184 0.786 0.141 0.142 0.354 0.177 0.511 0.292 0.12 0.087 0.193 0.225 0.321 0.305 0.084 0.054 0.178 0.073 0.261 0.131 0.051 0.036 0.102 0.104 0.152 0.142 0.169 0.131 0.301 0.185 0.511 0.216 0.428 0.062 0.723 0.069 1.159-0.040 0.402-0.102 0.761-0.235 1.144-0.387 0.225-0.089 0.48-0.119 0.713-0.187 0.253-0.072 0.51-0.124 0.764-0.195 0.235-0.065 0.462-0.173 0.694-0.249 0.857-0.283 1.357-0.963 1.582-1.806 0.080-0.3 0.155-0.954 0.524-1.028 0.437-0.087 0.89-0.169 1.325-0.185 0.209-0.007 0.428-0.051 0.637-0.069 0.25-0.021 0.55-0.124 0.779-0.212 0.28-0.108 0.43-0.228 0.358-0.54-0.246-0.077-0.622-0.010-0.884-0.010h-2.071c-0.232 0-0.591-0.059-0.822 0.011 0.007 0.122-0.083 0.109-0.135 0.192-0.046 0.068-0.048 0.2-0.082 0.279-0.111 0.261-0.301 0.585-0.483 0.814-0.133 0.166-0.25 0.351-0.409 0.495-0.322 0.289-0.604 0.676-0.989 0.887-0.629 0.344-1.351 0.435-2.059 0.427-0.298-0.003-0.561-0.073-0.854-0.14-0.278-0.062-0.58-0.097-0.853-0.188-0.271-0.091-0.543-0.275-0.707-0.507-0.195-0.272-0.466-0.478-0.481-0.839-0.014-0.321-0.008-0.627 0.091-0.93 0.087-0.264 0.209-0.502 0.312-0.757 0.153-0.381 0.18-0.831 0.358-1.201 0.097-0.2 0.285-0.535 0.481-0.615 0.267-0.112 0.586-0.135 0.868-0.191 0.261-0.051 0.49 0.040 0.748 0.065 0.412 0.040 0.842 0.109 1.251 0.178 0.102 0.017 0.34 0.129 0.446 0.086 0.014-0.218-0.138-0.421-0.134-0.654 0.003-0.196 0-0.392 0-0.587 0-0.615 0.065-1.233 0.188-1.835 0.093-0.453 0.089-0.926 0.222-1.371 0.134-0.448 0.199-0.907 0.347-1.347 0.196-0.589 0.278-1.139 0.278-1.755 0-0.383 0.003-0.765-0.006-1.146 1.057-0.003 2.116-0.004 3.173 0.003 0.348 0.001 0.902-0.039 1.11-0.345 0.091-0.136 0.21-0.348 0.213-0.517 0-0.091-0.065-0.155-0.079-0.242-0.013-0.077 0.054-0.222-0.062-0.251-0.131-0.034-0.303 0.254-0.387 0.32-0.13 0.1-0.354 0.192-0.51 0.209-0.271 0.028-0.528 0.077-0.802 0.12-0.475 0.076-0.995 0.016-1.477 0.016h-1.217c-0.010-0.117-0.018-0.233-0.034-0.351-0.037-0.294-0.12-0.596-0.133-0.893-0.007-0.169 0.019-0.333-0.011-0.5-0.025-0.135-0.047-0.256-0.051-0.388 0.126 0 0.252 0.001 0.38-0.004 0.265-0.008 0.524-0.070 0.791-0.075 0.254-0.004 0.51 0 0.764 0.004 0.282 0.004 0.492-0.079 0.763-0.128 0.256-0.046 0.533-0.014 0.791-0.011 0.142 0.003 0.238-0.032 0.374-0.061 0.317-0.068 0.672-0.12 0.992-0.148 0.148-0.013 0.285-0.043 0.433-0.062 0.166-0.021 0.333 0.013 0.496-0.021 0.357-0.072 0.64-0.526 0.755-0.868 0.106-0.315 0.26-0.656 0.292-0.984 0.015-0.153 0.091-0.31 0.072-0.463-0.014-0.117-0.064-0.236-0.086-0.354z"></path>
</svg>
