<!-- Generated by IcoMoon.io -->
<svg version="1.1" xmlns="http://www.w3.org/2000/svg" width="32" height="32" viewBox="0 0 32 32">
<title>descent_into_the_pitch</title>
<path d="M21.611 13.242c-0.018 0.136-0.080 0.271-0.119 0.409-0.057 0.196-0.058 0.391-0.111 0.587-0.047 0.173-0.118 0.344-0.133 0.514-0.041 0.42-0.148 0.838-0.301 1.265-0.074 0.203-0.173 0.405-0.263 0.608-0.115 0.264-0.168 0.526-0.26 0.788-0.067 0.189-0.157 0.378-0.219 0.567-0.091 0.281-0.192 0.562-0.311 0.845-0.080 0.19-0.179 0.379-0.27 0.57-0.116 0.247-0.212 0.494-0.323 0.741-0.011 0.022-0.022 0.045-0.037 0.069-0.048-0.022-0.096-0.041-0.146-0.061-0.196-0.081-0.409-0.144-0.614-0.189-0.146-0.033-0.291-0.067-0.44-0.068-0.187-0.003-0.366 0.046-0.545 0.094-0.007 0.003-0.018 0.003-0.026 0.004 0.139 0.083-0.166 0.011-0.195 0.051 0.026-0.015 0.041-0.056 0.057-0.080 0.037-0.054 0.070-0.107 0.091-0.171 0.018-0.057 0.041-0.141-0.033-0.104-0.029 0.015-0.047 0.029-0.067 0.054-0.018 0.022-0.029 0.057-0.051 0.071s-0.048-0.003-0.071-0.007c-0.065-0.011-0.131-0.011-0.195-0.011-0.026 0.001-0.047 0.001-0.070 0.001 0.070-0.187 0.138-0.374 0.214-0.559 0.267-0.652 0.572-1.284 0.849-1.929 0.087-0.508 0.285-0.944 0.514-1.366 0.033-0.092 0.064-0.186 0.094-0.278 0.089-0.416 0.239-0.838 0.419-1.237 0.179-0.493 0.372-0.979 0.527-1.481 0.011-0.033 0.099-0.266 0.153-0.48 0.099 0.416 0.146 0.317 0.202 0.254 0.186-0.209 0.298-0.463 0.479-0.675 0.097-0.114 0.187-0.23 0.274-0.351-0.078-0.419 0.494-0.594 0.587-0.171 0.092 0.429 0.206 0.851 0.318 1.273 0.022-0.033 0.044-0.064 0.064-0.097 0.001 0.018 0.001 0.033 0.001 0.050 0 0.064 0 0.126 0.001 0.189-0.018 0.104-0.037 0.206-0.048 0.31zM19.116 23.171c-0.015 0.057-0.058 0.075-0.094 0.108-0.033 0.029-0.061 0.068-0.101 0.085-0.029 0.011-0.084 0.004-0.114 0.003-0.054-0.003-0.112-0.080-0.077-0.138 0.026-0.040 0.054-0.084 0.089-0.11 0.015-0.011 0.026-0.007 0.038-0.015 0.015-0.004 0.026 0.011 0.029-0.015 0.001-0.026-0.054-0.050-0.065-0.058-0.033-0.026-0.053-0.044-0.091-0.044-0.029 0-0.050 0-0.074 0.015-0.007-0.026-0.004-0.051 0.004-0.074 0.011-0.018 0.053-0.061 0.054-0.018 0.007-0.007 0.018-0.015 0.026-0.018 0.048-0.029 0.088-0.062 0.145-0.062 0.095 0.001 0.182 0.107 0.212 0.203 0.011 0.037 0.026 0.099 0.015 0.139zM18.591 22.672c-0.018 0.011-0.037 0.015-0.057 0.015-0.029 0.001-0.059-0.001-0.089 0-0.044 0-0.062-0.011-0.096-0.044-0.015-0.015-0.022-0.029-0.029-0.043-0.004-0.015-0.007-0.026-0.015-0.045-0.018-0.074 0.018-0.108 0.071-0.134 0.048-0.026 0.104-0.033 0.155-0.015 0.018-0.037-0.068-0.087-0.091-0.096-0.033-0.015-0.054-0.011-0.087-0.018-0.007-0.001-0.018-0.004-0.029-0.011-0.015-0.004-0.026-0.015-0.040-0.022-0.022 0.015-0.033 0.003-0.044-0.011 0.015-0.001 0.029 0.004 0.044 0.011 0.004-0.003 0.011-0.004 0.018-0.015 0 0.003 0 0.004 0 0.011-0.007-0.044 0.037-0.072 0.087-0.089 0.048-0.015 0.104-0.022 0.125-0.022 0.053 0 0.094 0.018 0.135 0.058 0.037 0.037 0.075 0.059 0.106 0.102 0.026 0.037 0.026 0.058 0.033 0.101 0 0.001 0 0.004 0.001 0.004 0.004 0.033 0.026 0.074 0.007 0.108-0.003 0.007-0.015 0.015-0.018 0.018-0.015 0.022-0.004 0.037-0.029 0.057-0.018 0.015-0.041 0.018-0.059 0.029-0.022 0.011-0.033 0.004-0.054 0.015-0.018 0.004-0.029 0.022-0.047 0.033zM18.148 23.175c-0.061 0.064-0.138 0.098-0.222 0.088-0.059-0.007-0.121-0.080-0.126-0.145-0.001-0.022-0.004-0.067 0-0.089 0.004-0.026 0.037-0.044 0.058-0.058 0.041-0.026 0.089 0.001 0.134-0.015-0.022-0.078-0.151-0.074-0.203-0.102-0.038-0.022-0.050-0.044-0.029-0.087 0.033-0.068 0.088-0.056 0.145-0.056l-0.033 0.074c0.022-0.004 0.044-0.011 0.064-0.018 0.011-0.004 0.015-0.011 0.026-0.015 0.015-0.003 0.033 0 0.046 0 0.058 0 0.106 0.015 0.138 0.072 0.026 0.048 0.065 0.104 0.068 0.16 0.003 0.077-0.011 0.135-0.064 0.189zM14.479 19.597c-0.053-0.029-0.095-0.104-0.126-0.157-0.104-0.178-0.18-0.378-0.26-0.57-0.015-0.040-0.145-0.403-0.178-0.395-0.018 0.151 0.001 0.304 0.004 0.456 0.004 0.168 0.004 0.335 0 0.503-0.003 0.096-0.007 0.192-0.026 0.285-0.004 0.033-0.004 0.071-0.033 0.085-0.033 0.018-0.078-0.018-0.104-0.033-0.138-0.078-0.274-0.149-0.42-0.206-0.062-0.026-0.123-0.044-0.187-0.059-0.022-0.004-0.048-0.022-0.070-0.015 0.083 0.121 0.199 0.209 0.301 0.307 0.026 0.026 0.067 0.061 0.072 0.102 0.007 0.046-0.004 0.033-0.037 0.040-0.083 0.026-0.156 0.056-0.244 0.065-0.033 0.004-0.065 0.007-0.098 0.011-0.007-0.015-0.018-0.033-0.026-0.048-0.105-0.247-0.197-0.493-0.308-0.74-0.087-0.19-0.182-0.381-0.259-0.571-0.114-0.281-0.21-0.564-0.298-0.844-0.058-0.19-0.145-0.378-0.209-0.567-0.088-0.264-0.139-0.526-0.25-0.79-0.084-0.202-0.18-0.405-0.25-0.606-0.148-0.429-0.248-0.845-0.288-1.265-0.015-0.171-0.084-0.342-0.128-0.514-0.051-0.197-0.053-0.391-0.107-0.588-0.038-0.138-0.098-0.271-0.115-0.409-0.026-0.202-0.054-0.398-0.115-0.605 0.007-0.040 0.018-0.080 0.026-0.119 0.088-0.425 0.638-0.25 0.561 0.171 0.084 0.119 0.17 0.237 0.263 0.351 0.173 0.21 0.28 0.464 0.459 0.673 0.053 0.062 0.098 0.162 0.193-0.254 0.051 0.216 0.138 0.45 0.146 0.481 0.148 0.501 0.334 0.989 0.506 1.48 0.172 0.399 0.315 0.821 0.401 1.237 0.029 0.094 0.059 0.186 0.089 0.28 0.219 0.42 0.409 0.857 0.493 1.365 0.202 0.491 0.42 0.976 0.625 1.466-0.003-0.001-0.004 0-0.007-0.003zM13.384 23.241c-0.003 0.041-0.018 0.059-0.041 0.092-0.015 0.026-0.026 0.022-0.048 0.037-0.018 0.011-0.033 0.029-0.053 0.041-0.015 0.007-0.029 0.015-0.046 0.018-0.018 0.003-0.033 0.007-0.048 0.011-0.046 0.011-0.121-0.033-0.134-0.085-0.018-0.064 0.078-0.080 0.119-0.098 0.033-0.015 0.075-0.022 0.033-0.058-0.033-0.026-0.078-0.033-0.118-0.037-0.033-0.004-0.068-0.007-0.098 0.004-0.037 0.015-0.075 0.046-0.112 0.050-0.015-0.018-0.004-0.080 0-0.104 0.011-0.057 0.054-0.065 0.067-0.026-0.004-0.038 0.033-0.046 0.057-0.056 0.062-0.029 0.112-0.056 0.18-0.051 0.056 0.004 0.097 0.011 0.142 0.047 0.033 0.026 0.064 0.065 0.085 0.104s0.018 0.068 0.015 0.112zM12.8 22.955c-0.018 0.018-0.048 0.026-0.071 0.037-0.044 0.018-0.085 0.050-0.132 0.029-0.046-0.022-0.088-0.056-0.115-0.104-0.018-0.029-0.022-0.045 0.004-0.061 0.011-0.004 0.022-0.007 0.033-0.015s0.011-0.015 0.018-0.022c0.015-0.011 0.046-0.033 0.062-0.033 0.018-0.001 0.038 0.026 0.056 0.018-0.003-0.033-0.018-0.053-0.047-0.061-0.018-0.004-0.033-0.004-0.051-0.011-0.022-0.004-0.029-0.001-0.055 0.015-0.026 0.015-0.077 0.038-0.065-0.018 0.007-0.041 0.075-0.071 0.115-0.069 0.033-0.022 0.065-0.048 0.111-0.045 0.071 0.004 0.144 0.055 0.186 0.119 0.011 0.018 0.033 0.062 0.033 0.087 0.003 0.018-0.015 0.072-0.029 0.085-0.007 0.007-0.022 0.007-0.033 0.018s-0.015 0.026-0.026 0.037zM12.654 23.555c-0.022 0.080-0.102 0.152-0.169 0.18-0.029 0.015-0.061 0.018-0.092 0.029-0.033 0.011-0.059 0.007-0.088-0.011-0.018-0.015-0.044-0.045-0.057-0.068-0.015-0.026-0.018-0.048-0.015-0.071 0.015-0.081 0.168-0.131 0.226-0.092-0.007-0.026-0.057-0.050-0.077-0.059-0.040-0.018-0.075-0.050-0.119-0.051-0.038-0.001-0.082 0.037-0.108-0.011-0.065-0.121 0.082-0.183 0.161-0.199l-0.038 0.105c0.018-0.015 0.015-0.033 0.033-0.045 0.022-0.015 0.070-0.040 0.096-0.037 0.037 0.004 0.070 0.033 0.102 0.047 0.033 0.018 0.061 0.033 0.084 0.062 0.043 0.058 0.078 0.144 0.058 0.221zM31.497 26.872c-0.089-0.058-0.182-0.197-0.24-0.288-0.264-0.413-0.4-0.912-0.646-1.338-0.179-0.308-0.307-0.651-0.484-0.963-0.165-0.291-0.363-0.551-0.52-0.849-0.192-0.366-0.371-0.741-0.567-1.105-0.152-0.28-0.313-0.554-0.456-0.839-0.211-0.422-0.41-0.854-0.599-1.29-0.128-0.293-0.278-0.569-0.411-0.861-0.183-0.403-0.334-0.825-0.535-1.219-0.156-0.302-0.321-0.598-0.464-0.908-0.299-0.656-0.557-1.317-0.761-2.017-0.084-0.284-0.21-0.542-0.32-0.814-0.123-0.311-0.203-0.642-0.329-0.95-0.089-0.217-0.195-0.415-0.266-0.641-0.104-0.338-0.209-0.661-0.347-0.983-0.214-0.498-0.375-1.023-0.579-1.527-0.054-0.135-0.111-0.267-0.152-0.408-0.037-0.122-0.053-0.271-0.108-0.385-0.026 0.022-0.041 0.159-0.048 0.192-0.050 0.24-0.062 0.494-0.062 0.74 0 0.169 0.018 0.334-0.003 0.5-0.026 0.203-0.064 0.403-0.098 0.604-0.022 0.136-0.033 0.271-0.047 0.408-0.015 0.135-0.054 0.259-0.058 0.395-0.001 0.071 0.011 0.144 0.004 0.214-0.004 0.094-0.029 0.186-0.044 0.28 0-0.001 0-0.001 0-0.001-0.048-0.368-0.084-0.739-0.141-1.102-0.011-0.065-0.022-0.131-0.033-0.196-0.011-0.089-0.018-0.178-0.029-0.266-0.045-0.43-0.123-0.852-0.165-1.284-0.038-0.388-0.114-0.766-0.183-1.146-0.064-0.351-0.111-0.702-0.193-1.047-0.038-0.157-0.051-0.321-0.095-0.476-0.015-0.058-0.018-0.116-0.037-0.171-0.026-0.089-0.075-0.156-0.085-0.253-0.033 0.003-0.047 0.064-0.057 0.098-0.004 0.018-0.007 0.037-0.015 0.053-0.033-0.193-0.067-0.386-0.089-0.584-0.018-0.141-0.026-0.31-0.061-0.446-0.082-0.015-0.121 0.227-0.135 0.267-0.080 0.224-0.172 0.466-0.277 0.677-0.092 0.186-0.216 0.352-0.317 0.534-0.107 0.19-0.183 0.393-0.27 0.596-0.092 0.22-0.21 0.418-0.312 0.629-0.018 0.040-0.080 0.138-0.092 0.182-0.037 0.121-0.004 0.263 0.026 0.391-0.037 0.044-0.075 0.088-0.108 0.138-0.129 0.192-0.196 0.358-0.363 0.52-0.335 0.324-0.639 0.683-0.962 1.021-0.409 0.43-0.753 0.869-1.084 1.368-0.125 0.187-0.173 0.406-0.226 0.628-0.105 0.445-0.198 0.9-0.325 1.338-0.168 0.575-0.392 1.135-0.584 1.702-0.236 0.699-0.413 1.408-0.621 2.115-0.126 0.429-0.19 0.878-0.286 1.315-0.018 0.077-0.037 0.153-0.053 0.229-0.004 0.004-0.007 0.011-0.015 0.018-0.033 0.054-0.029 0.068-0.091 0.065-0.133-0.004-0.266 0-0.398-0.007-0.068-0.004-0.136-0.011-0.205-0.015-0.018-0.003-0.033-0.004-0.051-0.004-0.047-0.256-0.096-0.511-0.168-0.76-0.2-0.706-0.369-1.415-0.595-2.113-0.183-0.568-0.399-1.128-0.56-1.703-0.122-0.437-0.21-0.893-0.31-1.338-0.051-0.221-0.097-0.439-0.217-0.628-0.317-0.499-0.646-0.937-1.038-1.366-0.308-0.339-0.599-0.699-0.92-1.023-0.159-0.162-0.225-0.328-0.348-0.52-0.033-0.048-0.068-0.092-0.104-0.138 0.029-0.128 0.058-0.27 0.026-0.391-0.015-0.044-0.071-0.141-0.089-0.182-0.097-0.211-0.21-0.409-0.3-0.629-0.081-0.202-0.156-0.406-0.257-0.596-0.096-0.182-0.216-0.348-0.304-0.534-0.101-0.211-0.189-0.452-0.266-0.677-0.015-0.040-0.050-0.281-0.129-0.266-0.033 0.136-0.041 0.304-0.057 0.445-0.022 0.197-0.053 0.391-0.085 0.585-0.004-0.018-0.011-0.037-0.015-0.054-0.007-0.033-0.022-0.095-0.054-0.097-0.007 0.097-0.058 0.162-0.081 0.251-0.015 0.054-0.018 0.114-0.033 0.172-0.043 0.155-0.056 0.318-0.091 0.476-0.080 0.345-0.125 0.694-0.186 1.047-0.067 0.379-0.138 0.757-0.175 1.145-0.040 0.432-0.114 0.854-0.157 1.284-0.007 0.089-0.018 0.178-0.026 0.266-0.011 0.065-0.022 0.131-0.033 0.196-0.054 0.365-0.088 0.734-0.135 1.102-0.007 0.033-0.011 0.064-0.015 0.095-0.022 0.136-0.042 0.272-0.064 0.409-0.007 0.048-0.015 0.098-0.026 0.146-0.029 0.126-0.061 0.253-0.092 0.378 0-0.007 0-0.015 0-0.026 0-0.026-0.015-0.074-0.018-0.102-0.004-0.115 0.022-0.221 0.022-0.332-0.001-0.138-0.048-0.27-0.055-0.406-0.004-0.071 0.007-0.144 0.004-0.214-0.004-0.137-0.043-0.262-0.056-0.395-0.015-0.136-0.022-0.271-0.046-0.408-0.033-0.2-0.069-0.4-0.094-0.604-0.018-0.166-0.001-0.331-0.001-0.5-0.001-0.246-0.015-0.5-0.061-0.74-0.007-0.033-0.018-0.171-0.047-0.192-0.051 0.114-0.067 0.262-0.102 0.385-0.040 0.139-0.094 0.272-0.146 0.408-0.195 0.504-0.35 1.028-0.554 1.527-0.132 0.323-0.233 0.645-0.332 0.982-0.068 0.227-0.169 0.425-0.254 0.641-0.121 0.31-0.198 0.641-0.315 0.952-0.105 0.271-0.227 0.528-0.307 0.814-0.195 0.7-0.44 1.361-0.73 2.017-0.136 0.31-0.294 0.605-0.443 0.908-0.193 0.393-0.337 0.815-0.513 1.219-0.126 0.291-0.271 0.567-0.393 0.861-0.18 0.436-0.371 0.868-0.574 1.29-0.138 0.285-0.29 0.56-0.436 0.839-0.187 0.363-0.359 0.737-0.544 1.105-0.149 0.298-0.339 0.558-0.497 0.849-0.169 0.312-0.291 0.655-0.463 0.963-0.236 0.426-0.366 0.925-0.619 1.337-0.056 0.092-0.145 0.231-0.23 0.288-0.037 0.026-0.061 0.001-0.074 0.062-0.011 0.044 0.041 0.165 0.074 0.195 0.037 0.033 0.116 0.037 0.162 0.043 0.075 0.011 0.081 0.001 0.138-0.048 0.053-0.046 0.072-0.053 0.141-0.046 0.196 0.022 0.388 0.040 0.582 0.084 0.166 0.037 0.321 0.075 0.49 0.055 0.075-0.022 0.151-0.033 0.229-0.026 0.007 0.001 0.018 0.007 0.026 0.011 0.026-0.172 0.051-0.345 0.077-0.518 0.033-0.219 0.043-0.453 0.131-0.652 0.168-0.374 0.334-0.749 0.506-1.121 0.251-0.548 0.466-1.132 0.632-1.724 0.145-0.517 0.288-1.051 0.483-1.547 0.259-0.665 0.534-1.319 0.758-2.001 0.23-0.693 0.521-1.345 0.793-2.015 0.128-0.32 0.244-0.655 0.348-0.986 0.083-0.263 0.148-0.534 0.253-0.785 0.072-0.171 0.172-0.311 0.251-0.474 0.136-0.28 0.214-0.606 0.314-0.905 0.129-0.389 0.323-0.707 0.501-1.062 0.061-0.122 0.16-0.365 0.301-0.4 0.105-0.026 0.146 0.080 0.187 0.173 0.051 0.116 0.116 0.22 0.169 0.338 0.067 0.148 0.131 0.296 0.2 0.442-0.022 0.097-0.048 0.192-0.068 0.289-0.098 0.476-2.396 5.332-2.485 5.812-0.084 0.44-0.139 0.888-0.217 1.329-0.070 0.385-0.146 0.757-0.189 1.148-0.041 0.391-0.078 0.778-0.136 1.163-0.037 0.195-0.072 0.388-0.109 0.581-0.057 0.256-0.121 0.508-0.178 0.764-0.091 0.415-0.175 0.828-0.284 1.237-0.015 0.058-0.026 0.126-0.053 0.18-0.018 0.037-0.048 0.057-0.061 0.099 0.026 0.029 0.091-0.007 0.119-0.015 0.011-0.003 0.022-0.003 0.033-0.004-0.029 0.151-0.061 0.301-0.088 0.454-0.033 0.192-0.053 0.388-0.087 0.581-0.041 0.24-0.084 0.482-0.131 0.719-0.015 0.071-0.033 0.162-0.071 0.219 0.099-0.104 0.114-0.109 0.123-0.128 0.011 0.054 0.037 0.057 0.067 0.082 0.054 0.044 0.096 0.131 0.156 0.156 0.061 0.026 0.142-0.007 0.206 0.003 0.119 0.018 0.227 0.082 0.348 0.085 0.123 0.004 0.236-0.050 0.355-0.084 0.159-0.047 0.317-0.026 0.477-0.033 0.105-0.007 0.207-0.026 0.313-0.026 0.040 0 0.081 0.004 0.121 0 0.001-0.058-0.018-0.122-0.022-0.18-0.015-0.142-0.018-0.287-0.029-0.429-0.026-0.437-0.075-0.878-0.085-1.318-0.007-0.21-0.011-0.422-0.018-0.632 0.029-0.207 0.095-0.403 0.123-0.611 0.054-0.371 0.169-0.72 0.239-1.088 0.085-0.459 0.214-0.903 0.294-1.366 0.075-0.44 0.075-0.893 0.192-1.324 0.050-0.184 0.071-0.374 0.114-0.56 0.037-0.166 0.095-0.329 0.142-0.493 0.074-0.262 0.132-0.533 0.178-0.804 0.043-0.246 0.051-0.493 0.098-0.737 0.051-0.275 2.321-4.92 2.368-5.195 0.054-0.324 0.156-0.635 0.202-0.959 0.004-0.046 0.011-0.091 0.015-0.135-0.004-0.044-0.007-0.089 0.004-0.136v-0.004c0.001-0.056 0.001-0.111 0.001-0.166 0.026 0.074 0.051 0.148 0.065 0.225 0.033 0.183 0.037 0.375 0.114 0.562 0.046 0.109 0.116 0.213 0.152 0.324 0.051 0.162 0.056 0.321 0.080 0.481 0.029 0.203 0.072 0.412 0.132 0.616 0.125 0.43 0.277 0.858 0.354 1.285 0.075 0.42 0.209 0.844 0.324 1.267 0.085 0.315 0.111 0.633 0.139 0.944 0.026 0.257 0.077 0.518 0.155 0.781-0.059 0.018-0.119 0.044-0.178 0.074-0.163 0.084-0.348 0.136-0.46 0.305-0.044 0.065-0.092 0.209-0.173 0.221 0.115-0.007 0.232 0.007 0.345 0.022 0.121 0.015 0.243 0.022 0.363 0.040 0.083 0.015 0.099 0.048 0.168 0.092-0.173 0.062-0.339 0.195-0.477 0.321-0.166 0.153-0.32 0.309-0.436 0.514-0.108 0.19-0.182 0.405-0.263 0.611-0.043 0.111-0.089 0.222-0.132 0.334-0.018 0.051-0.058 0.112-0.065 0.168 0.050-0.011 0.097-0.040 0.144-0.058 0.136-0.051 0.234-0.162 0.355-0.244 0.196-0.133 0.385-0.075 0.597-0.092-0.018 0.015-0.011 0.037-0.015 0.058-0.011 0.047-0.054 0.102-0.082 0.136-0.064 0.075-0.082 0.162-0.123 0.254-0.057 0.135-0.126 0.26-0.169 0.402-0.084 0.277-0.126 0.558-0.173 0.845-0.011 0.051-0.018 0.104-0.018 0.156 0.004 0.029 0.003 0.059-0.001 0.089-0.011 0.037-0.040 0.056-0.033 0.095 0.050-0.022 0.087-0.075 0.119-0.121 0.058-0.080 0.121-0.152 0.187-0.22 0.095-0.098 0.18-0.2 0.266-0.308 0.018-0.022 0.043-0.041 0.044-0.071 0.018 0.011 0.022 0.033 0.018 0.058 0.018 0.054 0.041 0.107 0.065 0.158 0.015 0.037 0.029 0.077 0.041 0.116 0.007 0.029 0.015 0.051 0.015 0.081 0.015 0.112 0.044 0.197 0.084 0.302 0.054 0.146 0.074 0.318 0.146 0.454 0.033 0.067 0.068 0.136 0.105 0.202 0.051 0.087 0.109 0.152 0.145 0.25 0.029 0.084 0.097 0.162 0.151 0.226 0.058 0.068 0.131 0.121 0.2 0.172 0.232 0.171 0.48 0.318 0.758 0.355 0.227 0.029 0.45-0.054 0.676-0.058 0.064 0 0.129-0.003 0.192 0s0.121 0.026 0.18 0.037c0.040 0.007 0.081 0.007 0.121 0 0.029-0.004 0.104-0.015 0.126-0.038 0.026-0.029 0.015-0.033-0.007-0.057-0.033-0.022-0.057-0.047-0.081-0.080-0.022-0.037-0.051-0.068-0.084-0.094-0.057-0.044-0.116-0.074-0.166-0.126-0.037-0.038-0.067-0.065-0.114-0.087-0.138-0.061-0.281-0.165-0.359-0.314-0.026-0.051-0.026-0.112 0.033-0.115 0.046-0.001 0.104 0.047 0.151 0.057 0.067 0.015 0.135 0.022 0.202 0.041 0.033 0.011 0.244 0.112 0.25 0.064-0.057-0.007-0.104-0.073-0.144-0.109-0.077-0.071-0.148-0.146-0.216-0.226-0.078-0.088-0.169-0.152-0.233-0.254-0.037-0.059-0.069-0.119-0.112-0.173-0.015-0.018-0.038-0.033-0.033-0.057 0.168 0.003 0.317 0.116 0.476 0.159 0.064 0.018 0.132 0.041 0.193 0.065 0.050 0.018 0.111 0.044 0.155 0.075 0.022 0.015 0.038 0.062 0.069 0.051 0.026-0.011 0.018-0.041 0.015-0.070 0-0.056 0.011-0.104 0.067-0.112-0.011-0.026-0.011-0.045-0.018-0.077-0.011-0.057-0.054-0.099-0.065-0.159-0.011-0.061-0.018-0.114-0.018-0.176 0-0.041-0.011-0.104 0.004-0.141 0.022 0.026 0.015 0.056 0.040 0.082 0.054 0.057 0.119 0.107 0.18 0.155 0.053 0.041 0.153 0.109 0.183 0.182 0.011 0.026 0.004 0.047 0.004 0.074 0.026-0.029 0.033-0.044 0.070-0.064 0.040-0.022 0.077-0.041 0.122-0.057 0.094-0.029 0.179-0.026 0.275-0.029 0.018 0 0.081 0 0.097-0.022 0.015-0.022 0.001-0.087 0.003-0.111 0.003-0.078 0.029-0.152 0.037-0.23 0.003-0.047 0.004-0.162 0.037-0.193 0.101 0.145 0.136 0.334 0.211 0.494 0.015 0.029 0.018 0.062 0.046 0.084 0.022 0.018 0.058 0.022 0.082 0.029 0.047 0.015 0.072 0.003 0.111-0.029 0.053-0.044 0.116-0.059 0.148-0.132 0.043-0.095 0.053-0.205 0.078-0.305 0.007-0.033 0.018-0.175 0.056-0.184 0.004 0.038 0.004 0.062 0.026 0.096 0.015 0.026 0.038 0.047 0.047 0.080 0.018 0.074 0.001 0.168 0.001 0.246 0 0.058-0.011 0.136 0.026 0.18 0.044 0.054 0.119 0.029 0.171 0.071 0.044 0.037 0.069 0.087 0.102 0.135 0.011 0.015 0.033 0.037 0.026 0.058 0.011-0.011 0.026-0.015 0.033-0.022 0.015-0.011 0.022-0.037 0.033-0.051 0.018-0.029 0.051-0.048 0.071-0.078 0.018-0.033 0.033-0.067 0.054-0.098 0.047-0.064 0.089-0.131 0.128-0.202 0.033-0.062 0.068-0.109 0.109-0.168 0.029-0.041 0.051-0.092 0.084-0.128 0.011 0.044 0.001 0.102 0.001 0.149 0.001 0.064-0.018 0.099-0.033 0.159-0.011 0.044 0 0.089-0.007 0.134-0.007 0.059-0.011 0.118-0.018 0.178-0.015 0.131-0.026 0.257-0.068 0.382-0.022 0.069-0.040 0.148-0.065 0.216-0.011 0.033-0.037 0.058-0.037 0.094 0.053-0.053 0.105-0.105 0.159-0.159 0.048-0.050 0.089-0.109 0.142-0.155 0.081-0.068 0.151-0.153 0.223-0.233 0.037-0.038 0.107-0.126 0.162-0.123 0.011 0.018-0.026 0.075-0.033 0.096-0.018 0.074-0.050 0.142-0.077 0.213-0.029 0.071-0.070 0.132-0.105 0.198-0.037 0.067-0.067 0.134-0.102 0.201-0.038 0.072-0.088 0.139-0.131 0.209-0.022 0.038-0.037 0.074-0.054 0.115-0.022 0.050-0.051 0.089-0.080 0.135-0.029 0.048-0.056 0.099-0.071 0.153-0.007 0.026-0.026 0.050-0.033 0.072 0.022 0.011 0.048 0.004 0.072 0 0.058-0.007 0.122-0.015 0.178-0.037 0.135-0.054 0.25-0.161 0.382-0.229 0.058-0.029 0.107-0.058 0.161-0.095 0.044-0.029 0.091-0.075 0.135-0.095 0.026-0.011 0.042-0.004 0.068-0.004 0.040 0 0.064-0.018 0.098-0.037 0.046-0.026 0.057-0.022 0.105-0.022 0.047-0.001 0.088-0.018 0.131-0.041 0.062-0.033 0.119-0.080 0.179-0.119 0.056-0.037 0.072-0.029 0.131-0.038 0.053-0.011 0.088-0.051 0.132-0.071 0.015-0.004 0.033 0.003 0.044-0.004 0.015-0.011 0.029-0.044 0.038-0.058 0.026-0.037 0.046-0.088 0.078-0.115 0.015-0.011 0.026-0.011 0.040-0.022 0.041-0.037 0.091-0.142 0.121-0.189 0.022-0.038 0.043-0.077 0.061-0.118 0.058-0.123 0.132-0.237 0.179-0.368 0.033-0.089 0.061-0.183 0.084-0.275 0.018-0.065 0.037-0.134 0.040-0.202 0.003-0.104-0.022-0.222-0.001-0.321 0.011-0.059 0.026-0.078 0.007-0.146-0.015-0.053-0.029-0.088-0.026-0.142 0.101-0.029 0.19 0.041 0.28 0.075 0.089 0.037 0.185 0.058 0.273 0.099 0.065 0.033 0.125 0.075 0.187 0.111 0.053 0.029 0.108 0.044 0.159 0.070 0.077 0.037 0.135 0.099 0.196 0.16 0.026 0.026 0.053 0.062 0.087 0.062 0.011-0.022 0.003-0.054 0-0.078-0.007-0.053-0.011-0.105-0.018-0.159-0.015-0.105-0.022-0.209-0.046-0.312-0.068-0.294-0.148-0.584-0.241-0.868-0.011-0.037-0.018-0.077-0.037-0.114-0.007-0.018-0.026-0.040-0.029-0.061-0.015-0.071 0.051-0.033 0.085-0.007 0.057 0.041 0.104 0.098 0.161 0.141 0.040 0.029 0.082 0.053 0.122 0.081 0.044 0.033 0.072 0.072 0.109 0.109-0.126-0.216-0.169-0.484-0.272-0.712-0.054-0.118-0.129-0.23-0.195-0.339-0.065-0.108-0.126-0.221-0.203-0.32-0.015-0.015-0.026-0.033-0.037-0.047 0.074-0.199 0.146-0.398 0.223-0.596 0.142-0.361 0.232-0.729 0.267-1.084 0.029-0.311 0.057-0.629 0.146-0.946 0.119-0.422 0.26-0.846 0.338-1.267 0.080-0.427 0.239-0.855 0.369-1.285 0.061-0.205 0.107-0.412 0.138-0.615 0.026-0.161 0.029-0.32 0.082-0.483 0.037-0.11 0.112-0.214 0.159-0.324 0.029-0.067 0.047-0.135 0.059-0.202 0.398 0.913 2.355 4.765 2.405 5.015 0.048 0.244 0.057 0.491 0.101 0.737 0.048 0.27 0.108 0.542 0.186 0.804 0.050 0.163 0.109 0.327 0.149 0.493 0.044 0.186 0.065 0.374 0.118 0.56 0.121 0.429 0.122 0.882 0.2 1.324 0.082 0.462 0.219 0.906 0.308 1.366 0.071 0.366 0.192 0.717 0.247 1.088 0.033 0.207 0.101 0.403 0.129 0.609-0.007 0.211-0.015 0.423-0.018 0.633-0.011 0.439-0.061 0.879-0.089 1.318-0.011 0.142-0.015 0.287-0.029 0.429-0.004 0.058-0.026 0.122-0.026 0.18 0.043 0.004 0.085 0 0.128 0 0.11 0 0.216 0.018 0.325 0.026 0.168 0.011 0.332-0.011 0.499 0.037 0.123 0.033 0.241 0.088 0.371 0.084 0.125-0.004 0.24-0.067 0.363-0.085 0.065-0.011 0.151 0.022 0.214-0.004 0.062-0.026 0.108-0.111 0.163-0.155 0.033-0.026 0.059-0.029 0.071-0.082 0.007 0.018 0.026 0.026 0.128 0.128-0.040-0.058-0.059-0.148-0.074-0.219-0.050-0.239-0.094-0.48-0.136-0.719-0.037-0.193-0.056-0.389-0.091-0.582-0.029-0.152-0.061-0.302-0.092-0.454 0.011 0.001 0.022 0.003 0.033 0.004 0.029 0.004 0.101 0.041 0.125 0.015-0.015-0.042-0.044-0.062-0.064-0.099-0.026-0.054-0.038-0.122-0.054-0.18-0.115-0.409-0.202-0.822-0.297-1.237-0.059-0.256-0.126-0.508-0.186-0.764-0.038-0.193-0.075-0.388-0.114-0.581-0.061-0.385-0.099-0.773-0.144-1.163s-0.125-0.764-0.196-1.148c-0.082-0.442-0.141-0.889-0.227-1.331-0.094-0.479-2.494-5.335-2.596-5.812-0.062-0.294-0.142-0.584-0.217-0.874 0.047-0.099 0.094-0.197 0.141-0.297 0.054-0.116 0.123-0.22 0.176-0.338 0.042-0.094 0.087-0.2 0.196-0.173 0.148 0.037 0.25 0.278 0.314 0.4 0.187 0.356 0.389 0.673 0.524 1.062 0.104 0.298 0.184 0.626 0.328 0.905 0.082 0.165 0.187 0.304 0.261 0.474 0.111 0.251 0.179 0.523 0.264 0.785 0.109 0.332 0.23 0.666 0.365 0.986 0.283 0.672 0.588 1.322 0.827 2.015 0.234 0.682 0.523 1.338 0.793 2.001 0.203 0.496 0.354 1.030 0.504 1.548 0.173 0.591 0.398 1.176 0.66 1.723 0.179 0.372 0.352 0.747 0.527 1.121 0.094 0.199 0.104 0.433 0.138 0.652 0.026 0.173 0.053 0.347 0.080 0.518 0.011-0.003 0.018-0.007 0.026-0.011 0.081-0.007 0.161 0.001 0.239 0.026 0.176 0.018 0.338-0.018 0.511-0.055 0.203-0.043 0.403-0.062 0.609-0.084 0.070-0.007 0.091 0 0.148 0.047 0.058 0.048 0.064 0.058 0.142 0.047 0.048-0.007 0.131-0.007 0.171-0.043 0.033-0.029 0.087-0.151 0.077-0.195-0.015-0.061-0.040-0.037-0.078-0.061z"></path>
</svg>
