<!-- Generated by IcoMoon.io -->
<svg version="1.1" xmlns="http://www.w3.org/2000/svg" width="32" height="32" viewBox="0 0 32 32">
<title>difficulty</title>
<path fill="#394852" d="M16 7.2c-6.311 0-9.635 3.812-11.181 7.491s-1.503 7.316-1.503 7.316l1.578 0.178c0 0 0.447-1.871 1.703-3.738s3.208-3.647 6.403-3.647c0.941 0 1.52 0.389 2.222 0.65l-3.897 6.122 1.35 0.856 4.128-6.488c0.931 0.664 1.614 1.544 2.125 2.453 1.038 1.846 1.278 3.706 1.278 3.706l0.087 0.7h8.506v-0.8c0 0 0.010-3.638-1.566-7.316s-4.923-7.484-11.234-7.484zM16 8.8c5.689 0 8.342 3.193 9.766 6.516 1.152 2.689 1.318 4.946 1.363 5.884h-5.575c-0.086-0.537-0.217-1.791-1.231-3.594-0.603-1.071-1.479-2.163-2.672-2.994l2.025-3.184-1.35-0.856-2.116 3.325c-0.937-0.399-1.966-0.697-3.209-0.697-3.429 0-5.66 1.848-7.144 3.766 0.168-0.582 0.186-1.057 0.438-1.656 1.396-3.321 4.017-6.509 9.706-6.509z"></path>
</svg>
