<!-- Generated by IcoMoon.io -->
<svg version="1.1" xmlns="http://www.w3.org/2000/svg" width="32" height="32" viewBox="0 0 32 32">
<title>disappearance_at_the_twilight_estate</title>
<path d="M27.369 17.595c-0.004 0.295-0.084 0.599-0.157 0.882-0.039 0.15-0.14 0.424-0.276 0.687-0.18 0.103-0.292 0.166-0.412 0.28-0.222-0.051-0.476-0.046-0.752 0.012-0.105 0.021-0.347 0.144-0.457 0.089-0.169-0.081-0.165-0.313-0.276-0.452-0.136-0.17-0.318-0.25-0.53-0.25-0.365-0.001-0.838 0.328-0.736 0.724 0.029 0.11 0.168 0.090 0.204 0 0.108-0.266 0.367-0.411 0.527-0.143 0.085 0.143 0.077 0.308 0.167 0.456 0.286 0.47 0.611 0.301 0.984 0.445 0.431 0.167 0.086 0.546 0.025 0.902-0.027 0.153-0.016 0.321 0.025 0.487-0.11 0.103-0.26 0.138-0.377 0.234-0.145-0.045-0.297-0.069-0.448-0.067-0.386 0.007-0.7 0.179-0.984 0.431-0.126 0.113-0.237 0.242-0.365 0.354-0.174 0.152-0.084 0.248-0.309 0.102-0.228-0.15-0.124-0.381-0.247-0.595-0.183-0.318-0.66-0.251-0.785-0.606-0.010-0.030-0.059-0.045-0.075-0.010-0.207 0.458-0.156 0.561 0.174 0.899 0.161 0.011 0.233 0.106 0.215 0.285 0.003 0.025 0.007 0.049 0.010 0.074 0.047 0.094 0.078 0.133 0.159 0.211 0.156 0.148 0.401 0.24 0.593 0.328 0.409 0.185 0.79 0.174 1.203 0.122-0.2 0.2-0.42 0.362-0.614 0.422-0.428 0.133-1.105-0.2-1.428 0.24-0.141 0.191-0.166 0.583-0.226 0.795-0.006 0.017-0.010 0.032-0.014 0.049-0.241-0.104-0.47-0.108-0.73-0.079-0.030 0.003-0.051 0.016-0.067 0.032-0.003-0.451 0.131-0.816-0.082-1.274-0.197-0.425-0.367-0.367-0.712-0.588-0.313-0.201-0.087-0.309-0.258-0.65-0.172-0.344-0.643-0.425-0.977-0.53-0.124-0.039-0.214 0.127-0.125 0.217 0.152 0.151 0.383 0.281 0.487 0.469 0.157 0.286-0.017 0.308 0.018 0.617 0.025 0.228 0.163 0.399 0.349 0.517 0.393 0.251 0.634 0.039 0.519 0.783-0.054 0.345-0.28 0.596-0.228 0.961 0.046 0.323 0.255 0.577 0.539 0.73-0.152 0.070-0.307 0.184-0.407 0.262-0.185 0.145-0.353 0.514-0.393 0.861-0.019-0.012-0.039-0.024-0.058-0.038-0.068-0.131-0.173-0.227-0.296-0.289-0.096-0.146-0.138-0.313-0.148-0.503-0.017-0.358-0.034-0.621-0.422-0.742-0.115-0.036-0.22 0.060-0.224 0.171-0.009 0.18 0.134 0.365 0.028 0.495-0.051 0.063-0.262 0.113-0.337 0.16-0.099 0.061-0.194 0.135-0.287 0.209-0.064-0.316-0.259-0.611-0.565-0.847-0.221-0.172-0.537-0.25-0.277-0.469 0.223-0.189 0.47-0.134 0.631-0.431 0.174-0.323 0.040-0.71-0.343-0.733-0.080-0.006-0.144 0.099-0.096 0.167 0.193 0.275-0.56 0.305-0.782 0.407-0.435 0.202-0.737 0.689-0.775 1.166-0.019 0.246 0.055 0.441 0.203 0.633 0.162 0.211 0.433 0.256 0.596 0.423 0.025 0.026 0.047 0.055 0.059 0.055-0.025 0.073-0.1 0.153-0.138 0.198-0.025 0.027-0.046 0.051-0.068 0.074-0.106-0.104-0.215-0.194-0.311-0.259-0.405-0.272-0.866-0.576-1.238-0.899 0.224 0.167-0.17-0.44-0.343-0.534-0.336-0.182-0.674-0.085-0.977 0.074-0.201 0.106-0.227 0.308-0.503 0.252-0.105-0.021-0.199-0.163-0.28-0.268-0.028-0.18-0.065-0.381-0.077-0.364 0.002-0.003 0.787 0.039 0.925 0.003 0.126-0.031 0.243-0.069 0.347-0.156 0.242-0.201 0.282-0.508 0.216-0.809-0.126-0.577-0.692-0.777-1.2-0.549-0.019-0.007-0.039-0.012-0.053-0.004-0.007-0.001-0.009-0.001-0.011-0.001 0 0 0 0 0 0-0.023-0.022-0.057-0.038-0.084-0.049-0.001-0.003 0-0.005-0.001-0.009-0.011-0.053-0.042-0.097-0.067-0.144-0.067-0.128-0.294-0.074-0.281 0.076 0.007 0.079 0.026 0.164 0.089 0.219 0.019 0.017 0.040 0.027 0.061 0.032 0.021 0.128 0.168 0.203 0.309 0.189 0.027 0.025 0.059 0.042 0.090 0.054 0.155 0.053 0.383 0.010 0.505 0.108 0.282 0.229-0.022 0.453-0.24 0.505-0.407 0.098-1.092-0.094-1.263 0.461-0.065 0.211 0.066 0.758-0.267 0.826-0.17 0.035-0.742-0.334-0.841-0.459-0.008-0.010-0.015-0.021-0.021-0.031-0.035-0.304-0.122-0.595-0.242-0.795-0.206-0.337-0.383-0.665-0.356-1.070 0.014-0.198 0.112-0.376 0.105-0.593-0.010-0.322-0.125-0.693 0.1-0.97 0.281-0.346 0.596-0.252 0.884-0.027 0.056 0.044 0.564 0.512 0.119 0.425-0.2-0.039-0.309 0.172-0.189 0.324 0.351 0.441 0.85-0.031 0.872-0.453 0.044-0.856-1.029-1.282-1.711-1.064-0.333 0.106-0.742 0.358-0.922 0.67-0.237 0.412-0.010 0.887-0.098 1.322-0.030 0.147-0.058 0.284-0.078 0.417-0.032 0.038-0.059 0.082-0.075 0.136-0.058 0.21-0.096 0.364-0.098 0.539-0.020-0.008-0.041-0.016-0.063-0.026-0.654-0.292-0.295-0.103-0.445-0.785-0.045-0.203-0.162-0.433-0.306-0.584-0.295-0.311-0.474-0.124-0.395-0.778 0.029-0.245 0.122-0.425 0.315-0.572 0.279-0.21 0.471-0.153 0.699-0.47 0.051-0.072 0.001-0.31 0.069-0.366 0.141-0.115 0.589 0.019 0.77-0.019 0.207-0.044 0.319-0.065 0.396-0.275 0.055-0.145-0.114-0.316-0.26-0.261-0.422 0.161-0.934-0.237-1.351 0.104-0.174 0.142-0.115 0.31-0.227 0.454-0.166 0.213-0.479 0.255-0.654 0.469-0.022 0.028-0.042 0.061-0.063 0.094-0.077-0.002-0.138 0.012-0.227 0.041-0.241 0.081-0.172 0.165-0.335 0.112-0.002-0.013-0.006-0.027-0.009-0.042-0.028-0.077-0.064-0.15-0.106-0.22-0.092-0.128-0.193-0.181-0.332-0.245-0.393-0.178-0.639-0.001-1.027 0.053-0.011-0.008-0.024-0.014-0.035-0.024-0.123-0.094-0.269-0.249-0.304-0.403 0.026-0.049 0.040-0.108 0.042-0.175 0.022-0.019 0.050-0.044 0.076-0.113 0.061-0.164 0.105-0.301 0.129-0.428 0.442 0.307 0.94 0.607 1.5 0.425 0.592-0.192 0.309-0.573 0.53-0.98 0.146-0.272 0.719-0.304 0.927-0.618 0.156-0.237 0.225-0.756 0.129-1.019-0.202-0.547-1.293-0.816-1.221-0.008 0.013 0.146 0.169 0.211 0.281 0.116 0.351-0.296 0.433 0.454 0.241 0.637-0.212 0.203-0.441 0.057-0.677 0.111-0.267 0.059-0.385 0.169-0.498 0.426-0.044 0.1-0.013 0.332-0.086 0.406-0.124 0.13-0.237-0.060-0.463-0.232-0.353-0.268-0.563-0.636-0.788-0.999 0.131-0.595 0.359-1.224 0.998-1.311 0.176-0.025 0.316 0.037 0.462-0.093 0.094-0.082 0.102-0.195 0.111-0.311 0.082-0.1 0.118-0.229 0.071-0.385-0.044-0.145-0.257-0.185-0.334-0.044-0.018 0.032-0.032 0.094-0.047 0.161-0.1-0.038-0.424-0.329-0.438-0.315-0.057-0.089-0.096-0.193-0.173-0.271-0.142-0.146-0.337-0.234-0.515-0.324-0.121-0.059-0.274-0.111-0.422-0.127 0.055-0.588 0.37-1.199 1.115-0.972 0.531 0.162 1.109 0.873 1.729 0.434 0.493-0.348 0.371-1.033-0.079-1.312-0.297-0.185-0.568 0.282-0.274 0.467-0.24 0.467-0.529 0.48-0.867 0.041-0.025-0.027-0.055-0.046-0.088-0.057-0.113-0.048-0.19-0.104-0.307-0.131-0.219-0.050-0.5-0.029-0.736 0.030-0.564-0.175 0.039-1.251-0.072-1.927 0.136-0.225 0.314-0.423 0.564-0.575 0.289-0.175 0.866-0.464 1.198-0.328 0.281 0.115 0.32 0.432 0.535 0.61 0.285 0.239 0.91 0.409 1.273 0.319 0.179-0.043 0.97-0.678 1.084-0.49 0.092 0.151 0.359 0.138 0.399-0.051 0.115-0.576-0.567-0.935-1.072-0.644-0.363 0.209-0.354 0.611-0.855 0.527-0.52-0.088-0.538-0.643-0.887-0.937-0.16-0.134-0.342-0.205-0.535-0.233-0.020-0.545 0.725-0.852 1.192-0.63 0.077 0.036 0.155 0.048 0.229 0.045 0.067 0.030 0.143 0.031 0.218 0.013 0.039 0.053 0.082 0.108 0.144 0.133 0.072 0.029 0.142 0.001 0.217 0.014 0.034 0.005 0.055-0.019 0.050-0.051-0.018-0.128-0.092-0.243-0.149-0.357-0.023-0.046-0.042-0.090-0.060-0.134 0.009-0.081-0.007-0.17-0.054-0.259-0.207-0.394-0.181-0.89-0.103-1.389 0.317 0.828 0.937 1.138 1.796 1.362 0.541 0.142 0.672-0.040 0.739 0.716 0.018 0.192-0.069 0.452-0.008 0.638 0.068 0.205 0.196 0.301 0.406 0.378 0.539 0.2 1.082-0.43 0.635-0.864-0.223-0.218-0.548 0.112-0.34 0.34-0.141 0.135-0.231 0.106-0.272-0.085-0.011-0.125 0-0.248 0.033-0.37 0.035-0.145 0.13-0.246 0.147-0.388 0.051-0.421-0.228-0.865-0.545-1.087-0.38-0.266-0.963-0.279-1.322-0.574-0.019-0.016-0.035-0.032-0.053-0.048 0.002-0.004 0.007-0.007 0.008-0.011 0.1-0.229 0.149-0.527 0.15-0.778 0.034-0.029 0.063-0.060 0.088-0.097-0.082 0.004-0.050-0.014 0.095-0.056 0.069-0.048 0.158-0.106 0.238-0.166 0.195 0.083 0.414 0.1 0.608-0.002 0.045 0.002 0.089 0.003 0.133 0.001-0.007 0.024-0.014 0.050-0.018 0.072-0.037 0.24 0.022 0.5 0.156 0.702 0.146 0.221 0.374 0.352 0.626 0.402 0.134 0.026 0.263-0.028 0.399 0.055 0.128 0.078 0.241 0.509 0.334 0.698 0.046 0.095 0.183 0.082 0.233 0 0.207-0.338 0.111-0.704-0.152-0.988-0.24-0.257-0.716-0.414-0.861-0.731-0.142-0.31 0.069-0.656-0.024-0.97 0.019-0.011 0.038-0.022 0.057-0.035 0.205 0.127 0.429 0.208 0.695 0.157 0.282-0.054 0.651-0.383 0.953-0.473-0.040 0.37 0.017 0.762 0.135 1.095 0.018 0.048 0.051 0.098 0.095 0.134 0.005 0.117 0.035 0.23 0.113 0.333 0.079 0.104 0.138 0.075 0.249 0.141 0.154 0.047 0.298 0.115 0.433 0.203 0.036 0.543-0.075 0.702-0.333 0.479-0.132-0.079-0.271 0.104-0.163 0.213 0.362 0.367 0.962 0.31 1.096-0.274 0.15-0.646-0.738-0.652-0.952-1.049-0.047-0.087-0.067-0.171-0.070-0.251 0-0.009 0-0.018 0-0.028 0.005-0.189 0.121-0.357 0.279-0.519 0.133-0.083 0.289-0.147 0.407-0.256 0.121-0.111 0.198-0.222 0.247-0.335 0.057-0.058 0.107-0.117 0.151-0.177 0.054 0.004 0.106 0.007 0.162 0.011 0.339 0.020 0.305 0.024 0.518 0.205 0.21 0.179 0.313 0.3 0.601 0.361 0.144 0.030 0.309-0.018 0.383-0.155 0.078-0.146 0.318-0.298 0.579-0.43-0.291 0.432-0.152 0.87-0.144 1.374 0 0.004 0 0.008 0 0.012-0.094 0.117-0.224 0.227-0.303 0.347-0.035 0.054-0.064 0.103-0.095 0.149-0.080 0.019-0.169 0.045-0.26 0.099-0.208 0.126-0.257 0.309-0.271 0.537-0.009 0.135 0.109 0.19 0.214 0.168 0.026 0.071 0.059 0.141 0.098 0.203 0.107 0.174 0.361 0.057 0.322-0.136-0.014-0.070-0.108-0.272-0.085-0.352 0.004-0.002 0.008-0.004 0.011-0.007 0.036 0.004 0.189-0.032 0.214-0.042 0.278-0.118 0.584-0.45 0.761-0.688 0.192-0.257 0.070-0.651 0.31-0.855 0.161-0.136 0.431-0.111 0.685-0.114 0.039 0.142 0.069 0.29 0.108 0.396 0.035 0.095 0.126 0.162 0.231 0.132 0.269-0.077 0.506-0.114 0.775-0.031 0.162 0.049 0.303 0.146 0.453 0.221-0.084 0.321-0.359 0.58-0.397 0.92-0.045 0.4 0.165 0.511 0.372 0.81 0.075 0.090 0.153 0.179 0.232 0.266-0.080-0.028-0.154-0.025-0.223 0.010-0.077 0.088-0.193 0.147-0.27 0.25-0.115 0.153-0.145 0.237-0.157 0.424-0.004 0.076 0.131 0.152 0.126 0.213-0.016 0.262-0.175 0.278-0.294 0.479-0.208 0.351-0.249 0.387-0.174 0.826 0.031 0.19 0.356 0.192 0.385 0 0.071-0.463 0.583-0.644 0.654-1.078 0.032-0.192-0.099-0.528-0.15-0.473 0.245-0.271 0.642-0.013 0.872-0.413 0.181-0.313 0.030-0.524-0.128-0.785-0.261-0.43-0.189-0.234-0.106-0.62 0.037-0.173 0.164-0.32 0.202-0.505 0.19 0.267 0.325 0.556 0.522 0.819 0.154 0.206 0.326 0.315 0.589 0.264 0.106-0.020 0.231-0.073 0.319-0.134 0.042-0.031 0.077-0.076 0.113-0.116 0.287 0.27 0.377 0.689 0.789 0.89 0.028 0.014 0.054 0.025 0.080 0.036-0.001 0.002-0.003 0.004-0.004 0.008-0.31 0.098-0.69-0.030-1 0.214-0.432 0.339-0.393 0.918-0.794 1.295-0.086 0.082 0.028 0.236 0.128 0.166 0.211-0.146 0.294-0.274 0.415-0.477-0.003-0.116 0.004-0.232 0.025-0.347 0.23-0.17 0.46-0.34 0.69-0.511 0.157-0.032 0.426 0.153 0.592 0.171 0.149 0.018 0.281 0.001 0.397-0.038 0.165 0.099 0.179 0.346 0.075 0.506-0.214-0.030-0.46 0.038-0.635 0.136-0.167 0.095-0.191 0.387 0 0.476 0.183 0.085 0.412 0.090 0.624 0.032 0.069 0.105 0.11 0.268 0.196 0.377 0.102 0.128 0.202 0.176 0.329 0.269 0.010 0.007 0.018 0.014 0.028 0.022-0.041 0.047-0.082 0.096-0.117 0.152-0.084 0.128-0.137 0.28-0.177 0.43-0.188-0.179-0.41-0.344-0.472-0.383-0.289-0.178-0.677-0.285-1-0.126-0.547 0.267-0.695 1.119-0.247 1.517 0.16 0.142 0.396-0.036 0.296-0.229-0.202-0.386 0.058-0.653 0.433-0.473 0.295 0.142 0.329 0.378 0.506 0.605 0.211 0.271 0.583 0.539 0.931 0.58 0.099 0.012 0.466-0.121 0.759-0.287 0.368 0.276 0.518 0.882 0.261 1.264-0.138 0.205-0.404 0.295-0.583 0.461-0.243 0.228-0.069 0.739 0.291 0.701 0.294-0.030 0.432 0.545 0.596 1.159-0.181-0.040-0.372-0.037-0.536 0.024-0.382 0.142-0.848 1.058-1.274 0.528-0.253-0.317 0.092-0.825-0.217-1.156-0.196-0.211-0.525-0.249-0.764-0.108-0.131 0.078-0.151 0.227-0.094 0.355 0.008 0.017 0.014 0.033 0.022 0.049 0.032 0.075 0.138 0.107 0.212 0.087 0.252-0.070 0.084 0.338 0.082 0.515-0.002 0.222 0.005 0.376 0.122 0.561 0.258 0.411 0.807 0.679 1.256 0.457 0.226-0.11 0.267-0.27 0.436-0.443 0.265-0.269 0.486-0.527 0.818-0.109 0.146 0.183 0.137 0.471 0.134 0.688zM28.858 13.804c-0.224-0.441-0.333-0.887-0.423-1.338 0.109-0.571-0.038-1.139-0.389-1.544-0.242-0.617-0.641-1.212-0.968-1.778-0.352-0.61-0.502-1.265-0.968-1.813-0.323-0.379-0.673-0.708-1.016-1.053-0.365-0.365-0.875-0.712-1.341-0.938-0.674-0.328-1.212-0.904-1.897-1.201-0.219-0.096-0.402-0.053-0.633-0.076-0.126-0.013-0.241-0.045-0.354-0.080 0.035-0.262-0.128-0.568-0.443-0.549-0.599 0.037-1.016-0.16-1.6-0.313-0.745-0.194-1.535-0.048-2.299-0.1-0.706-0.047-1.493-0.019-2.186 0.141-0.358 0.084-0.621 0.241-0.928 0.44-0.422 0.275-0.789 0.342-1.259 0.495-0.29 0.095-0.495 0.249-0.751 0.407-0.329 0.204-0.699 0.271-1.036 0.461-0.616 0.346-1.341 0.692-1.907 1.119-0.45 0.34-0.885 0.876-1.275 1.288-0.267 0.281-0.449 0.589-0.75 0.843-0.238 0.201-0.454 0.346-0.661 0.588-0.843 0.986-1.452 2.155-1.757 3.409-0.174 0.714-0.538 1.396-0.743 2.112-0.238 0.828-0.289 1.678-0.213 2.537 0.123 1.367 0.583 2.786 1.062 4.052 0.257 0.68 0.441 1.18 0.889 1.773 0.497 0.66 1.082 1.183 1.661 1.763 1.117 1.119 2.401 2.485 3.892 3.088 0.781 0.316 1.639 0.58 2.446 0.827 0.862 0.265 1.769 0.25 2.636 0.492 1.155 0.323 2.372 0.024 3.543-0.138 0.776-0.108 1.344-0.457 2.053-0.769 0.439-0.099 0.863-0.277 1.179-0.556 0.196-0.113 0.387-0.24 0.566-0.392 0.521-0.441 1.017-0.909 1.514-1.375 0.454-0.425 0.982-0.764 1.356-1.264 0.387-0.519 0.706-1.046 0.99-1.63 0.119-0.245 0.204-0.606 0.361-0.826 0.172-0.242 0.39-0.352 0.532-0.626 0.287-0.547 0.443-1.23 0.598-1.827 0.183-0.711 0.544-1.359 0.678-2.085 0.229-1.24 0.449-2.373-0.158-3.562z"></path>
<path d="M18.952 11.666c0 1.72-0.635 3.877-2.352 3.877-1.716 0-2.351-2.157-2.351-3.877s0.255-3.369 2.351-3.369c2.098 0 2.352 1.649 2.352 3.369z"></path>
<path d="M18.764 19.943c0 1.72-0.635 3.877-2.352 3.877-1.716 0-2.351-2.157-2.351-3.877s0.255-3.369 2.351-3.369c2.098 0 2.352 1.649 2.352 3.369z"></path>
<path d="M14.060 15.617c0 1.72-0.635 3.877-2.352 3.877-1.716 0-2.351-2.157-2.351-3.877s0.254-3.369 2.351-3.369c2.098 0 2.352 1.649 2.352 3.369z"></path>
<path d="M23.656 15.617c0 1.72-0.635 3.877-2.352 3.877-1.716 0-2.351-2.157-2.351-3.877s0.255-3.369 2.351-3.369c2.098 0 2.352 1.649 2.352 3.369z"></path>
</svg>
