<!-- Generated by IcoMoon.io -->
<svg version="1.1" xmlns="http://www.w3.org/2000/svg" width="32" height="32" viewBox="0 0 32 32">
<title>disappearance_of_elina_harper</title>
<path d="M26.874 25.216l-0.92 0.368-0.992 0.27-0.322 0.043-0.153-0.098-0.774-0.235-0.592-0.572-0.704-0.532-0.089 0.027-0.124-0.205-0.221-0.121-0.075-0.921-0.195-0.869 0.044-0.314-0.027-0.164 0.183-0.636 0.106-0.682 0.227-0.152 0.512-0.646 0.625-0.47 0.72-0.313 0.788 0.013 0.472-0.126 0.971 0.181 0.92 0.372-0.007 0.106 0.647 0.739 0.367 0.528 0.195 0.615 0.078 0.877-0.115 0.868-0.3 0.832-0.532 0.707-0.712 0.512zM20.113 26.006l-0.366-0.647-0.544-0.581-0.579-0.387-0.574-0.424-0.138-0.035-0.477-0.412-0.013 0.003-0.53-0.121-0.186-0.070-0.244-0.089 0.14-0.873 0.013-0.859-0.083-0.868-0.059-0.867 0.041-0.912-0.119-0.961 0.732 0.509 0.731 0.426-0.141 0.353-0.089 0.834-0.2 0.814-0.096 0.831 0.001 0.155 0.709 0.039 0.655 0.265 0.185 0.047 0.447 0.090 0.176-0.223 0.163-0.292-0.078-0.020 0.282-1.023-0.357-0.132-0.276 0.158-0.266 0.81-0.443-0.094 0.007-0.023-0.271-0.062-0.035-0.128-0.044 0.027-0.017-0.092-0.186 0.080 0.123-0.526 0.050-0.309 0.131-0.761 0.108-0.465 0.568 0.252 0.603 0.194 0.782 0.417 0.672 0.545-0.151 0.789-0.145 0.826 0.094 0.473-0.561 0.304-0.53 0.359-0.673-0.304-0.722-0.204-0.773-0.137 0.023 0.062-0.083-0.049-0.068 0.023-0.040 0.203 0.059 0.085-0.020 0.049 0.984 0.238 0.225 0.212 0.422 0.115 0.14 0.083 0.165 0.037-0.017 0.013 0.027 0.007 0.252 0.574 0.211 0.295 0.354 0.443 0.299-0.252-0.355-1.035 0.698-0.417 0.196 0.594 0.333 0.422 0.3 0.793-0.787 0.415-0.764 0.394zM19.011 28.469l0.017 0.15-0.112 0.845-0.515 0.694-0.709 0.483-0.785 0.341-0.857-0.023-0.824-0.020-0.832-0.114-0.748-0.399-0.682-0.643-0.238-0.9-0.088-0.907-0.134-0.297 0.152-0.44v-0.162l0.070-0.86 0.438-0.744 0.552-0.667 0.78-0.369 0.819-0.271 0.844 0.059 0.837 0.096 0.767 0.353 0.762 0.379 0.291 0.792 0.149 0.087 0.227 0.864 0.158 0.884zM11.864 25.243l0.283 0.131-0.336 0.898-0.82-0.51-0.765-0.558 0.402-0.873 0.568-0.749-0.017-0.179 0.409 0.030 0.68 0.133 0.841-0.787 0.566-0.453 0.202 0.056 0.434 0.062 0.461-0.508-0.43-0.217-0.196 0.115-0.145-0.133-0.085-0.193 0.024-0.072-0.399-1.062-0.106-0.036-0.691 0.313-0.736 0.196-0.229 0.323 0.030 0.383 0.049-0.017 0.151 0.372 0.45-0.081-0.147-0.623 0.735-0.292 0.275 0.92-0.136 0.136-0.532 0.442-0.426 0.572-1.119-0.092 0.027-0.807-0.177-0.642-0.074-0.673-0.043-0.209 0.003-0.191-0.035 0.045 0.255-0.094 0.030 0.039 0.066-0.057 0.846-0.462 0.807-0.518 0.642-0.407 0.663-0.372 0.691-0.217 0.584-0.322 0.010 0.716 0.068 0.752-0.539 0.209-0.071 0.062-0.084 0.062 0.003-0.020-0.341 0.314 0.076 0.305 0.807-0.17 0.198-0.096-0.017 0.69 0.074 0.692-0.132 0.872 0.010 0.906-0.842 0.152-0.767 0.285-0.627 0.496-0.581 0.553-0.068 0.074-0.274-0.093-0.681-0.348-0.316 0.399 0.567 0.431zM9.11 18.638l-0.691-0.417-0.771-0.27-0.007-0.144 0.627-0.416 0.608-0.453 0.344-0.238-0.442-0.255-0.753 0.532-0.651 0.597-0.366 0.373-0.886-0.145 0.024-0.722-0.036-0.822 0.637-0.013 1.151-0.173 1.077-0.484 0.714 0.368 1.008 0.575-0.885 0.685 0.007 0.080-0.034-0.035-0.038 0.109-0.090 0.281 0.043-0.063 0.038 0.129 0.154 0.034 0.576-0.488 0.61-0.473 0.14-0.047 0.030-0.040 0.043-0.092 0.010 0.013 0.138-0.030 0.035-0.39-0.038-0.002-0.010-0.027-0.857-0.584-0.893-0.429 0.667-0.819 0.716 0.524 0.784 0.419 0.636 0.38 0.297 0.309 0.539 0.187 0.12-0.003 0.736 0.481 0.783 0.446-0.784 0.515-0.858 0.346-1.022 0.538-0.681-0.446 0.437-0.328 0.747-0.504-0.003-0.007 0.010 0.013 0.024-0.094 0.063-0.085 0.249-0.133-0.12-0.055-0.070-0.050-0.12 0.007-0.193-0.002-0.725 0.499-0.76 0.456-0.351 0.629 0.319 0.322 0.4 0.355-0.601 0.341-0.62 0.357-0.593-0.583-0.597-0.534zM9.911 23.224l-0.283 0.576-0.145 0.672-0.472 0.491-0.501 0.47-0.672 0.124-0.673-0.071-0.629 0.002-0.642 0.088-0.588-0.271-0.616-0.236-0.371-0.576-0.437-0.457-0.293-0.822-0.274-0.835 0.354-0.795 0.186-0.877 0.59-0.672 0.519-0.743 0.912-0.151 0.873-0.279 0.875 0.266 0.902 0.172 0.581 0.716 0.712 0.587 0.102 0.691 0.234 0.638-0.041 0.667-0.204 0.625zM3.983 13.632l-0.164-0.15-0.173-0.173-0.262-1.165 0.007-0.044-0.003-0.284 0.151 0.034 0.030-0.88 0.108-0.705 0.431-0.583 0.048-0.154 0.725-0.491 0.751-0.385 0.807-0.252 0.862-0.013 0.813 0.269 0.811 0.332 0.556 0.681 0.526 0.907-0.027 0.107 0.208 0.191-0.010 1.050 0.056 0.584-0.314 0.738-0.351 0.723-0.645 0.483-0.039 0.12-0.098 0.076-0.248 0.098-0.788 0.252-0.123 0.062-0.112 0.042-0.964 0.043-0.916-0.269-0.552-0.146-0.035 0.007-0.013-0.017-0.663-0.411-0.39-0.676zM11.736 8.158l0.367 0.647 0.543 0.581 0.643 0.433 0.634 0.466 0.708 0.274 0.605 0.426-0.001 0.584 0.1 0.633-0.084 0.056-0.753 0.251-0.802 0.138-0.539 0.639 0.512 0.761 0.632 0.651 0.521-0.47-0.749-1.005 0.464-0.227 0.355-0.178 0.353-0.010 0.134 0.017-0.010 0.783 0.093 0.778-0.078 0.915 0.074 0.977-0.783-0.59-0.784-0.465-0.815-0.31-0.791-0.379-0.13-0.13 0.078-0.059 0.142-0.204 0.446-0.442 0.076-0.045-0.205-0.154-0.124-0.138-0.128 0.079-0.523 0.454-0.256 0.184-0.868-0.486 0.119-0.227 0.349-0.455 0.518-0.504 0.522-0.356 0.524-0.363 0.334-0.29 0.126-0.161-0.152-0.297-0.063-0.119-0.565-0.493-0.236-0.161-0.038-0.020-0.103-0.007-0.017-0.034-0.007 0.007-0.035-0.027-0.351-0.566-0.211-0.205-0.024 0.001-0.173 0.054-0.010 0.050-0.048 0.269 0.116 0.038 0.232 0.681 0.117 0.096-0.007 0.063 0.376 0.129 0.072 0.067 0.269 0.057 0.227 0.404-0.607 0.336-0.598 0.315-0.399 0.354 0.024-0.142-0.102-0.708-0.062-0.703-0.433-0.824-0.338-0.891 0.788-0.485 0.805-0.313zM14.491 3.426l0.766-0.196 0.807-0.173 0.813 0.16 0.747 0.354 0.683 0.468 0.402 0.729 0.091 0.063 0.129 0.102 0.174 0.359 0.239 0.758-0.017 0.439-0.135 0.3-0.271 1.045-0.504 0.907-0.752 0.677 0.044 0.15-0.066-0.030-0.696 0.474-0.84 0.057-0.835-0.079-0.748-0.381-0.382-0.045-0.575-0.712-0.708-0.58 0.027-0.271-0.34-0.712-0.123-0.785 0.133-0.782 0.296-0.727 0.398-0.671 0.522-0.588zM20.071 8.041l0.698 0.501 0.876 0.416-0.38 0.752-0.394 0.661-0.041 0.769-0.229 0.744-0.711 0.297-0.658 0.506-0.824 0.602-0.279 0.258-0.29 0.061 0.040-0.789-0.102-0.775 0.616 0.391 0.039 0.072-0.027-0.129 0.483-0.39-0.614-0.266-0.632-0.264-0.413 0.412 0.017 0.775 0.080 0.769-0.090 0.77 0.098 0.096-0.093 0.11 0.091 0.036 0.010-0.010 0.858-0.452 0.63-0.251 0.588-0.329 0.694-0.407 0.723-0.364 0.165 0.951-0.734 0.419-0.796 0.38-0.695 0.523-0.695 0.539-0.86 0.333-0.793 0.452 0.036-0.913-0.091-0.908 0.038-0.867 0.030-0.867-0.023-0.876 0.038-0.86 0.778-0.209 0.769-0.28 0.386-0.373 0.444 0.465 0.29 0.266 0.007 0.048 0.262 0.112 0.063 0.052 0.14-0.154 0.27-0.301 0.007 0.002 0.608-0.956-0.010-0.227-0.446 0.225-0.271 0.367-0.223 0.253-0.093 0.035-0.291-0.367-0.265-0.195 0.415-0.212 0.346-0.77 0.426-0.658zM23.269 17.9l-0.555 0.751-0.003 0.173-0.546 0.431-0.603 0.42-0.977-0.384 0.587-0.661 0.46-0.965-0.112-0.034 0.010-0.010-0.701-0.203-0.639-0.372-0.102-0.189-0.216-0.243-0.039-0.027-0.125-0.108-0.344 0.304-0.020-0.045 0.020 0.052-0.080-0.045-0.007 0.065-0.325 0.158-0.189 0.257-0.081 0.003 0.576 0.167 0.013 0.107 0.278-0.17 0.119 0.083 0.112 0.061 0.351 0.264 0.007-0.007 0.316 0.075 0.522 0.202-0.47 0.492-0.246 0.592-0.314-0.109-0.742-0.455-0.748-0.442-0.745-0.561-0.814-0.442 0.831-0.415 0.766-0.524 0.78-0.378 0.779-0.386 0.34-0.251 0.213 0.552 0.425 1.081 0.793 0.169 0.778 0.103 0.102-0.003 0.074-0.111 0.052-0.108 0.023-0.169-0.685-0.214-0.433-0.121-0.135-0.446-0.518-1.089 0.472-0.305 0.847 0.763-0.030 0.167 0.783 0.488 0.868 0.313 0.929 0.052 0.152 0.152 0.349-0.119 0.218 0.039 0.123 0.761 0.007 0.84-0.747 0.142-0.769 0.058-0.154-0.877-0.089-0.1-0.31 0.091-0.256 0.359-0.119 0.329-0.089-0.023zM21.764 11.803l0.039-0.102-0.174-0.107 0.155-0.81 0.354-0.741 0.477-0.672 0.727-0.385 0.707-0.347 0.762-0.249 0.29-0.103 0.256 0.049 0.682 0.299 0.646 0.329 0.598 0.42 0.572 0.712 0.023 0.085 0.193 0.147 0.2 0.714 0.164 0.309-0.070 0.942 0.064 0.332-0.049 0.040 0.045 0.024-0.27 0.61-0.242 0.623-0.083-0.039 0.034 0.036-0.3 0.399-0.738 0.531-0.832 0.338-0.878 0.070-0.307 0.067-0.208-0.15-0.381-0.11-0.282-0.027-0.686-0.242-0.602-0.415-0.517-0.615-0.212-0.769-0.179-0.769zM29.428 21.219l-0.377-1.057-0.221-0.054-0.408-0.692-0.535-0.468-0.567-0.429-0.078-0.149-0.013-0.634-0.103-0.652-0.141-1.165 0.038-0.112 0.208-0.007-0.010 0.017 0.174-0.070 0.572-0.661 0.625-0.621 0.278-0.823 0.434-0.726-0.017-0.847 0.111-0.846-0.324-0.785-0.216-0.819-0.584-0.642 0.020-0.087-0.615-0.447-0.541-0.531-0.394-0.151-0.534-0.16-0.725-0.144-0.749-0.003-0.743 0.114-0.659 0.311-0.229 0.084-0.36 0.142-0.3-0.097-0.147-0.062-0.782-0.536-0.893-0.373-0.068-0.243-0.187-0.027 0.094-0.287-0.271-0.824-0.202-0.844-0.412-0.766-0.479-0.724-0.611-0.424-0.605-0.425-0.152 0.017-0.472-0.142 0.023-0.129-0.917-0.217-1.061 0.063-0.049 0.027-0.815 0.28-0.802 0.337-0.793 0.708-0.428 0.47-0.363 0.523 0.001 0.084-0.161 0.213-0.107 0.336h-0.010l0.075 0.034-0.109 0.017-0.017 0.092-0.161 0.649-0.003 0.665-0.080 0.269-0.565 0.35-0.596 0.276-1.112 0.59-0.681-0.34-0.699-0.156-0.194 0.027-0.034 0.037-0.988-0.080-0.607-0.007-1.142 0.346-0.571 0.401-0.646 0.295-0.407 0.511-0.433 0.508-0.19 0.854-0.146 0.85-0.072 0.751 0.159 0.749-0.043 0.28 0.388 0.72 0.362 0.735 0.716 0.47 0.655 0.543 0.213 0.295 0.034 0.664-0.128 0.652 0.017 0.659-0.003 0.676-0.351-0.058-0.628 0.633-0.583 0.67-0.398 0.774-0.3 0.806-0.007 0.85 0.017 0.845 0.226 0.813 0.173 0.842 0.611 0.601 0.611 0.592 0.752 0.423 0.698 0.51 1.17 0.168 0.703-0.32 0.762-0.115 0.726-0.239 0.337-0.302 0.447 0.561 0.486 0.487 0.668 0.152 0.623 0.265-0.067 0.31 0.137 0.873 0.049 0.899 0.608 0.659 0.59 0.659 0.708 0.49 0.663 0.58 0.867 0.116 0.858 0.035 0.862-0.057 0.863-0.092 0.783-0.434 0.756-0.471 0.275-0.434 0.411-0.761 0.32-0.788 0.22-1.16 0.013-0.078 0.017-0.084-0.017-0.040 0.007-0.057-0.038-0.11 0.545-0.333 0.594-0.29 0.524-0.404 0.57-0.334 0.287 0.11 0.794 0.218 0.762 0.327 0.643-0.055 0.443 0.027 1.041-0.169 0.589-0.308 0.61-0.253 0.692-0.57 0.539-0.566 0.085-0.214 0.203-0.694 0.134-0.711 0.145-0.399-0.101-0.788-0.071-0.804z"></path>
</svg>
