<!-- Generated by IcoMoon.io -->
<svg version="1.1" xmlns="http://www.w3.org/2000/svg" width="32" height="32" viewBox="0 0 32 32">
<title>dogs_of_war</title>
<path d="M22.073 13.525c0.167 0.338 0.255 0.708 0.26 0.86 0.009 0.221 0.009 0.413 0 0.586-0.005 0.115-0.026 0.252-0.054 0.401l2.081 0.781 2.447-1.94z"></path>
<path d="M21.447 17.703c-0.043 0.111-0.081 0.223-0.119 0.34-0.045 0.141-0.093 0.287-0.153 0.435-0.25 0.601-1.155 3.349-1.578 4.641 0.035 0.044-0.028 0.035 0.001 0.081 0.026 0.039 0.044 0.081 0.063 0.123l3.084-4.808z"></path>
<path d="M12.871 23.2c0.025-0.038-0.047-0.045-0.019-0.081-0.47-1.297-1.473-4.059-1.724-4.667-0.049-0.119-0.094-0.238-0.14-0.357-0.047-0.123-0.092-0.241-0.141-0.357l-1.202 0.779 3.133 4.882c0.023-0.069 0.053-0.136 0.093-0.198z"></path>
<path d="M10.027 15.302c-0.009-0.173-0.009-0.366 0-0.586 0.005-0.131 0.136-0.733 0.384-1.222l-4.747 0.72 2.447 1.94 1.925-0.759c-0.003-0.030-0.008-0.065-0.009-0.093z"></path>
<path d="M19.169 10.851c-0.354-0.189-1.491-0.157-2.323-0.135-0.223 0.006-0.432 0.012-0.611 0.013-0.18-0.001-0.388-0.006-0.612-0.013-0.83-0.023-1.969-0.054-2.323 0.135-0.329 0.175-0.49 0.665-0.481 1.058 0.012 0.473 0.103 0.819 0.338 1.273 0.076 0.149 0.318 0.398 0.527 0.516 0.419-0.054 2.115-0.102 2.552-0.102s2.133 0.048 2.551 0.102c0.21-0.118 0.45-0.367 0.528-0.516 0.233-0.454 0.325-0.799 0.336-1.273 0.010-0.393-0.153-0.883-0.481-1.058z"></path>
<path d="M21.294 14.875c-0.125-0.212-0.313-0.408-0.692-0.38-0.611 0.041-1.058 0.397-1.367 0.803-0.203 0.268-0.379 0.64-0.495 1.083-0.206 0.899-0.391 1.817-0.633 2.722-0.304 1.25-0.307 1.367-0.805 3.777 0.398-0.094 0.384-0.065 0.605-0.079 0.197-0.008 0.55 0.009 0.748 0.070-0.207-0.003-0.552 0.062-0.732 0.109-0.369 0.085-0.719 0.296-1.116 0.296-0.285 0.006-0.859 0.006-1.143-0.001-0.589-0.022-1.203-0.476-1.848-0.404 0.436-0.166 0.563-0.157 1.35 0.008-0.511-2.473-0.499-2.528-0.802-3.776-0.242-0.904-0.427-1.823-0.633-2.722-0.116-0.442-0.292-0.815-0.495-1.083-0.309-0.406-0.757-0.762-1.367-0.803-0.379-0.027-0.567 0.168-0.692 0.38-0.092-0.257 0.11-0.573 0.263-0.644 0.154-0.070 0.307-0.155 0.563-0.162 0.42-0.012 1.012-0.005 1.445 0.42 0.44 0.433 0.549 1.154 0.549 1.154s0.128 0.437 0.208 0.915c-0.001 0 0.345 1.706 0.472 2.473 0.241 1.29 0.321 1.325 0.631 3.874 0.257 0.050 0.323 0.039 0.454 0.039 0.283-0.005 0.759-0.005 1.043 0 0.135 0.006 0.115 0.019 0.362-0.034 0.301-2.486 0.389-2.588 0.63-3.879 0.127-0.767 0.473-2.473 0.472-2.473 0.080-0.477 0.208-0.915 0.208-0.915s0.109-0.72 0.549-1.154c0.433-0.426 1.024-0.432 1.445-0.42 0.256 0.006 0.409 0.092 0.563 0.162 0.153 0.071 0.354 0.387 0.263 0.644zM17.182 25.188c-0.167-0.224 0.11-0.986 0.229-1.19 0.18-0.305 0.585-0.675 0.956-0.416 0.254 0.176 0.179 0.661 0.111 0.916-0.069 0.256-0.173 0.586-0.424 0.72-0.1 0.053-0.296 0.097-0.481 0.098-0.166 0-0.321-0.035-0.391-0.128zM15.288 25.188c-0.070 0.093-0.225 0.128-0.391 0.128-0.185-0.001-0.382-0.045-0.481-0.098-0.251-0.135-0.356-0.464-0.424-0.72-0.067-0.255-0.142-0.74 0.11-0.916 0.372-0.259 0.777 0.111 0.957 0.416 0.119 0.204 0.396 0.966 0.229 1.19zM20.788 15.916c-0.221 0.299-0.585 0.52-0.948 0.595-0.089 0.018-0.38 0.035-0.454-0.022-0.097-0.075-0.186-0.357-0.018-0.459 0.6-0.367 0.88-1.393 1.512-0.983 0.299 0.193 0.083 0.634-0.092 0.869zM19.205 16.699l0.026-0.013c0.102 0.144 0.272 0.207 0.437 0.241 0.462 0.094 1.034-0.032 1.436-0.277l0.027 0.013c-0.114 0.799-1.656 0.635-1.926 0.036zM11.59 15.047c0.633-0.41 0.911 0.616 1.512 0.983 0.168 0.102 0.079 0.384-0.018 0.459-0.074 0.057-0.365 0.040-0.454 0.022-0.364-0.075-0.727-0.296-0.948-0.595-0.175-0.235-0.391-0.677-0.092-0.869zM11.339 16.663l0.027-0.013c0.402 0.244 0.974 0.371 1.436 0.277 0.164-0.034 0.335-0.097 0.437-0.241l0.027 0.013c-0.272 0.599-1.814 0.763-1.927-0.036zM16.235 16.081c0.398 0 1.122-0.070 1.651-0.159-0.017 0.128-0.032 0.266-0.048 0.41-0.705 0.119-1.588 0.145-1.603 0.145s-0.898-0.026-1.601-0.145c-0.017-0.144-0.032-0.282-0.049-0.41 0.529 0.089 1.252 0.159 1.651 0.159zM30.447 8.472c-0.247 0.47-0.573 1.014-0.921 1.409-0.781 0.883-1.198 1.433-3.368 1.433-0.786 0-1.068 0.005-1.855 0.013-0.898 0.010-1.707 0.021-2.644-0.022 0.087 0.229 0.076 0.493 0.067 0.702l-0.004 0.078c-0.018 0.511-0.164 0.886-0.538 1.381-0.061 0.080-0.169 0.177-0.3 0.273-0.075-0.016-0.313-0.027-0.406-0.030-0.044-0.001-0.092-0.001-0.138-0.003 0.216-0.124 0.414-0.277 0.495-0.384 0.345-0.458 0.473-0.784 0.49-1.246l0.004-0.080c0.012-0.263 0.026-0.59-0.155-0.779-0.109-0.113-0.286-0.171-0.528-0.171-0.195 0-0.499-0.009-0.865-0.023 0.157 0.282 0.226 0.63 0.219 0.924-0.013 0.538-0.116 0.947-0.372 1.46-0.081 0.167-0.263 0.369-0.45 0.52 0.008 0.001 0.016 0.004 0.022 0.005-0.094 0.049-0.189 0.103-0.279 0.173-0.009-0.001-0.019-0.005-0.028-0.006-0.217-0.054-2.123-0.116-2.656-0.116-0.534 0-2.438 0.062-2.656 0.116-0.009 0.001-0.019 0.005-0.028 0.006-0.091-0.070-0.185-0.124-0.281-0.173 0.008-0.001 0.016-0.004 0.023-0.005-0.188-0.151-0.369-0.353-0.45-0.52-0.256-0.514-0.36-0.922-0.372-1.46-0.008-0.292 0.062-0.642 0.219-0.924-0.366 0.014-0.67 0.023-0.865 0.023-0.221 0-0.382 0.056-0.492 0.169-0.211 0.219-0.197 0.62-0.188 0.86 0.017 0.462 0.145 0.788 0.49 1.246 0.082 0.107 0.279 0.26 0.495 0.384-0.048 0.001-0.094 0.001-0.138 0.003-0.093 0.003-0.322 0.014-0.397 0.030-0.131-0.096-0.239-0.193-0.299-0.273-0.375-0.495-0.52-0.871-0.539-1.381-0.006-0.193-0.018-0.511 0.094-0.781-0.947 0.045-1.776 0.034-2.684 0.023-0.786-0.008-1.068-0.013-1.855-0.013-2.171 0-2.587-0.55-3.368-1.433-0.348-0.394-0.674-0.939-0.921-1.409-0.554-1.052-1.175-2.306-1.422-3.473 0 2.328 0.882 5.118 2.004 6.592 1.090 1.432 3.046 1.603 4.686 1.678 1.206 0.054 2.423 0.009 3.628 0.074-0.277 0.42-0.473 1.14-0.481 1.339-0.006 0.185-0.009 0.379 0 0.565 0.030 0.592 0.358 1.587 0.612 2.112 0.158 0.323 0.263 0.651 0.396 0.974 0.257 0.626 1.293 3.476 1.776 4.807-0.053 0.057-0.103 0.119-0.15 0.191-0.252 0.388-0.065 1.056 0.022 1.494 0.082 0.416 0.358 0.792 0.855 1.032 0.155 0.414 0.416 1.143 0.416 1.143s0.151-0.53 0.25-0.937c0.701 0.119 1.619 0.083 1.619 0.083s0.918 0.036 1.619-0.083c0.098 0.406 0.25 0.937 0.25 0.937s0.261-0.73 0.416-1.143c0.497-0.241 0.774-0.616 0.855-1.032 0.087-0.438 0.274-1.106 0.022-1.494-0.053-0.080-0.109-0.149-0.168-0.211 0.438-1.34 1.37-4.164 1.627-4.787 0.132-0.323 0.198-0.651 0.356-0.974 0.254-0.525 0.71-1.876 0.74-2.468 0.009-0.186 0.006-0.379 0-0.565-0.008-0.182-0.144-0.664-0.362-0.986 1.193-0.061 2.397-0.018 3.587-0.071 1.641-0.075 3.597-0.246 4.688-1.678 1.122-1.473 2.002-4.263 2.002-6.592-0.246 1.167-0.867 2.421-1.42 3.473z"></path>
</svg>
