<!-- Generated by IcoMoon.io -->
<svg version="1.1" xmlns="http://www.w3.org/2000/svg" width="32" height="32" viewBox="0 0 32 32">
<title>doomed_expedition</title>
<path d="M15.048 27.809c-1.262-0.464-1.736-1.258-1.736-2.911 0-1.717 0.351-2.256 1.247-1.912 0.406 0.156 0.437 0.352 0.145 0.899-0.527 0.985 0.143 2.165 1.149 2.022 1.156-0.164 1.203-1.777 0.086-2.894-0.49-0.49-0.89-0.961-0.89-1.048 0-0.356 1.122-0.121 1.922 0.403 1.016 0.666 1.083 0.287 0.255-1.449l-0.6-1.259-5.742 0.238-0.004-1.041c-0.003-0.573 0.26-2.174 0.584-3.558l0.589-2.517 1.846-0.052c1.015-0.029 2.024-0.068 2.242-0.087 0.504-0.044 1.222 1.067 0.898 1.39-0.134 0.134-0.831 0.288-1.55 0.343s-1.424 0.109-1.567 0.12c-0.143 0.012-0.26 0.653-0.26 1.426v1.405l2.776-0.082c1.527-0.045 2.942-0.185 3.144-0.31 0.24-0.148-0.031-1.242-0.78-3.145l-1.148-2.918-3.407-0.1c-3.287-0.096-3.403-0.127-3.298-0.863 0.136-0.947 1.802-1.298 5.278-1.112l2.392 0.128 0.855 1.494c3.332 5.822 4.598 8.338 4.377 8.695-0.089 0.144-1.364 0.265-2.832 0.268-2.317 0.005-4.044 0.384-3.528 0.775 0.090 0.068 0.586 0.388 1.102 0.71 0.611 0.382 1.018 1.011 1.166 1.802 0.412 2.196-0.382 3.712-2.522 4.814-1.173 0.604-1.356 0.631-2.187 0.326zM27.778 22.574c-0.861-0.109-1.155-0.499-2.372-3.137-0.764-1.656-2.422-5.099-3.685-7.651l-2.296-4.639-4.283 0.166c-2.356 0.091-4.358 0.242-4.451 0.334-0.312 0.312-4.014 11.533-4.457 13.509-0.218 0.975-1.13 1.401-2.327 1.088-0.566-0.148-0.689-0.39-0.556-1.096 0.436-2.319 3.208-10.563 4.389-13.056 0.724-1.527 1.421-3.114 1.548-3.525 0.22-0.71 0.285-0.721 1.283-0.223 0.76 0.379 1.562 0.461 2.894 0.295 1.695-0.212 3.4-0.232 6.37-0.077 1.273 0.067 1.808 0.853 4.298 6.308 0.697 1.527 2.003 4.327 2.902 6.221 1.749 3.687 2.337 5.336 1.96 5.503-0.129 0.057-0.677 0.048-1.218-0.021z"></path>
</svg>
