<!-- Generated by IcoMoon.io -->
<svg version="1.1" xmlns="http://www.w3.org/2000/svg" width="32" height="32" viewBox="0 0 32 32">
<title>dots</title>
<path fill="#394852" d="M8 13.2c-1.537 0-2.8 1.263-2.8 2.8s1.263 2.8 2.8 2.8 2.8-1.263 2.8-2.8c0-1.537-1.263-2.8-2.8-2.8zM8 14.8c0.672 0 1.2 0.528 1.2 1.2s-0.528 1.2-1.2 1.2-1.2-0.528-1.2-1.2c0-0.672 0.528-1.2 1.2-1.2z"></path>
<path fill="#394852" d="M16 13.2c-1.537 0-2.8 1.263-2.8 2.8s1.263 2.8 2.8 2.8c1.537 0 2.8-1.263 2.8-2.8s-1.263-2.8-2.8-2.8zM16 14.8c0.672 0 1.2 0.528 1.2 1.2s-0.528 1.2-1.2 1.2c-0.672 0-1.2-0.528-1.2-1.2s0.528-1.2 1.2-1.2z"></path>
<path fill="#394852" d="M24 13.2c-1.537 0-2.8 1.263-2.8 2.8s1.263 2.8 2.8 2.8 2.8-1.263 2.8-2.8c0-1.537-1.263-2.8-2.8-2.8zM24 14.8c0.672 0 1.2 0.528 1.2 1.2s-0.528 1.2-1.2 1.2-1.2-0.528-1.2-1.2c0-0.672 0.528-1.2 1.2-1.2z"></path>
</svg>
