<!-- Generated by IcoMoon.io -->
<svg version="1.1" xmlns="http://www.w3.org/2000/svg" width="32" height="32" viewBox="0 0 32 32">
<title>draft</title>
<path fill="#394852" d="M12.92 16c0 0.552-0.919 1-2.053 1s-2.053-0.448-2.053-1c0-0.552 0.919-1 2.053-1s2.053 0.448 2.053 1z"></path>
<path fill="#394852" d="M6.77 18c0.425 0 0.77 0.672 0.77 1.5s-0.345 1.5-0.77 1.5c-0.425 0-0.77-0.672-0.77-1.5s0.345-1.5 0.77-1.5z"></path>
<path fill="#394852" d="M9.080 21.5c0.425 0 0.77 0.672 0.77 1.5s-0.345 1.5-0.77 1.5c-0.425 0-0.77-0.672-0.77-1.5s0.345-1.5 0.77-1.5z"></path>
<path fill="#394852" d="M12.15 25c0.425 0 0.77-0.578 0.77-1.29s-0.345-1.29-0.77-1.29-0.77 0.578-0.77 1.29c0 0.713 0.345 1.29 0.77 1.29z"></path>
<path fill="#394852" d="M15.23 20.58c0.425 0 0.77-0.578 0.77-1.29s-0.345-1.29-0.77-1.29-0.77 0.578-0.77 1.29c0 0.712 0.345 1.29 0.77 1.29z"></path>
<path fill="#394852" d="M13.69 22.775c0.425 0 0.77-0.578 0.77-1.29s-0.345-1.29-0.77-1.29-0.77 0.578-0.77 1.29c0 0.713 0.345 1.29 0.77 1.29z"></path>
<path fill="#394852" d="M19.616 3.413c-0.74-0.198-1.483-0.029-2.097 0.325s-1.133 0.913-1.331 1.653l-1.553 5.797 1.547 0.412 1.553-5.794c0.062-0.23 0.281-0.509 0.584-0.684s0.655-0.227 0.884-0.166l6.762 1.813c0.23 0.061 0.506 0.281 0.681 0.584s0.227 0.655 0.166 0.884l-3.622 13.525c-0.062 0.229-0.284 0.506-0.587 0.681s-0.655 0.227-0.884 0.166l-0.966-0.259-0.413 1.547 0.966 0.259c0.74 0.198 1.483 0.026 2.097-0.328s1.133-0.913 1.331-1.653l3.625-13.522c0.198-0.74 0.026-1.487-0.328-2.1s-0.913-1.133-1.653-1.331zM9.6 11.884l-4.928 2.847c-0.865 0.499-1.4 1.426-1.4 2.425v5.688c0 0.999 0.535 1.925 1.4 2.425l4.928 2.847c0.865 0.5 1.935 0.5 2.8 0l4.928-2.847c0.865-0.5 1.4-1.426 1.4-2.425v-5.688c0-0.999-0.535-1.925-1.4-2.425l-4.928-2.847c-0.865-0.5-1.935-0.5-2.8 0zM10.4 13.269c0.372-0.215 0.828-0.215 1.2 0l4.928 2.847c0.372 0.215 0.6 0.611 0.6 1.041v5.688c0 0.43-0.228 0.826-0.6 1.041l-4.928 2.847c-0.372 0.215-0.828 0.215-1.2 0l-4.928-2.847c-0.372-0.215-0.6-0.611-0.6-1.041v-5.688c0-0.43 0.228-0.826 0.6-1.041z"></path>
</svg>
