<!-- Generated by IcoMoon.io -->
<svg version="1.1" xmlns="http://www.w3.org/2000/svg" width="32" height="32" viewBox="0 0 32 32">
<title>draugar</title>
<path d="M20.503 30.929c-0.405-0.127-1.299-0.635-2.514-1.429-1.903-1.244-2.454-1.544-3.32-1.807-0.255-0.077-0.57-0.194-0.7-0.26-0.503-0.253-0.909-0.827-1.043-1.476-0.088-0.422-0.042-1.171 0.080-1.306 0.136-0.15 0.217-0.137 0.77 0.131 0.537 0.26 0.973 0.345 1.184 0.232 0.116-0.062 0.118-0.078 0.077-0.488-0.083-0.827-0.038-0.946 0.444-1.192 0.322-0.164 0.626-0.183 1.121-0.070 0.846 0.194 1.175 0.153 1.575-0.199 0.421-0.37 1.014-1.418 1.064-1.879l0.017-0.156 0.677-0.113c0.785-0.131 1.211-0.276 1.465-0.499 0.245-0.215 0.33-0.397 0.416-0.891 0.085-0.488 0.178-0.659 0.358-0.659 0.375 0 1.859 0.715 3.568 1.719 0.77 0.452 1.047 0.652 1.784 1.287 0.48 0.413 0.872 0.76 0.872 0.771 0 0.020-0.339-0.128-2.174-0.955-0.637-0.287-1.159-0.503-1.159-0.48 0 0.184 1.203 1.442 2.318 2.423 0.729 0.641 0.709 0.619 0.443 0.504-0.477-0.205-2.163-0.958-2.209-0.986-0.026-0.016-0.029-0-0.008 0.034 0.041 0.067 2.084 1.427 2.592 1.726 0.163 0.096 0.289 0.184 0.278 0.194-0.028 0.028-0.937-0.224-1.695-0.469-0.663-0.215-1.308-0.495-1.706-0.743-0.122-0.076-0.221-0.118-0.221-0.093s0.094 0.323 0.208 0.663c0.114 0.34 0.2 0.626 0.191 0.635-0.027 0.027-0.691-0.429-1.354-0.929-0.339-0.256-0.599-0.434-0.578-0.397 0.176 0.308 0.551 0.764 0.88 1.071 0.407 0.38 0.541 0.449 1.184 0.611 0.192 0.048 0.441 0.147 0.553 0.22 0.188 0.122 0.374 0.355 0.374 0.468 0 0.026-0.146 0.047-0.326 0.046-0.532-0.003-0.902 0.244-1.453 0.968-0.17 0.224-0.336 0.407-0.368 0.407-0.078 0-2.136-1.22-2.085-1.237 0.022-0.007 0.352 0.043 0.735 0.111 0.484 0.086 0.674 0.104 0.625 0.058-0.069-0.065-2.97-2.213-3.326-2.462l-0.182-0.128 0.191 0.175c0.105 0.096 0.555 0.502 1 0.902s0.801 0.736 0.791 0.746c-0.010 0.010-0.293-0.007-0.63-0.039s-0.62-0.048-0.631-0.038c-0.011 0.011 0.719 0.509 1.62 1.108s1.633 1.113 1.624 1.141c-0.029 0.097-0.36 0.286-0.5 0.286-0.076 0-0.329-0.048-0.563-0.107-0.354-0.090-0.471-0.099-0.712-0.054-0.358 0.066-0.773 0.242-0.898 0.38-0.102 0.113-0.127 0.477-0.049 0.732 0.038 0.125 0.030 0.143-0.069 0.143-0.081 0-0.165-0.087-0.305-0.317-0.371-0.61-0.397-0.641-0.571-0.677-0.192-0.039-0.452-0.22-0.807-0.561-0.136-0.131-0.247-0.224-0.247-0.208s0.072 0.188 0.159 0.381c0.188 0.414 0.242 0.774 0.156 1.034-0.052 0.159-0.048 0.218 0.031 0.382 0.129 0.272 0.652 0.809 1.209 1.241 0.258 0.201 0.471 0.382 0.473 0.404 0.006 0.062-0.47 0.039-0.705-0.035zM11.867 24.507c-0.473-0.629-0.789-1.279-0.915-1.878-0.056-0.266-0.149-0.592-0.208-0.725-0.144-0.325-0.609-1.016-0.931-1.384l-0.263-0.3 0.114-0.195c0.173-0.296 0.614-0.715 0.913-0.866 0.346-0.175 0.479-0.177 0.479-0.007 0 0.152 0.098 0.213 0.419 0.261 0.398 0.060 1.019-0.054 1.453-0.267 0.313-0.154 0.52-0.318 1.077-0.857 0.379-0.367 0.743-0.678 0.81-0.691s0.421-0.051 0.787-0.083c1.153-0.101 1.798-0.328 2.326-0.815l0.289-0.267 0.269 0.069c0.411 0.105 1.489 0.594 2.667 1.209 0.993 0.518 1.053 0.558 0.926 0.61-0.237 0.097-0.432 0.333-0.582 0.705-0.080 0.199-0.171 0.361-0.202 0.361s-0.397-0.080-0.812-0.178c-0.415-0.097-0.76-0.172-0.766-0.166s0.271 0.206 0.615 0.446l0.626 0.435-0.166 0.171c-0.224 0.231-0.619 0.393-0.983 0.404-0.338 0.010-0.235 0.064-1.734-0.919-0.508-0.334-0.924-0.585-0.924-0.559s0.021 0.061 0.047 0.077c0.026 0.016 0.356 0.368 0.733 0.783l0.686 0.754-0.083 0.399c-0.165 0.797-0.504 1.297-1.040 1.534-0.199 0.088-0.419 0.122-0.997 0.156-0.408 0.024-0.799 0.058-0.869 0.076-0.106 0.026-0.296-0.098-1.138-0.746-0.556-0.428-1.020-0.771-1.030-0.761s0.063 0.118 0.163 0.241c0.32 0.394 0.871 1.199 0.871 1.273 0 0.103-0.14 0.086-0.492-0.058-0.17-0.070-0.319-0.118-0.33-0.107s0.155 0.227 0.371 0.479l0.391 0.458-0.316 0.288c-0.495 0.451-0.662 0.559-0.719 0.468-0.026-0.042-0.048-0.116-0.049-0.166s-0.058-0.128-0.129-0.174c-0.167-0.109-0.389-0.061-0.565 0.123-0.145 0.152-0.346 0.555-0.348 0.698-0.003 0.202-0.116 0.122-0.44-0.309zM9.703 19.643c-0.001-0.018 0.057-0.32 0.128-0.671 0.096-0.472 0.13-0.805 0.131-1.27 0.001-0.625 0.079-1.128 0.291-1.882l0.088-0.314-0.405-0.772c-0.223-0.424-0.494-0.874-0.602-0.999-0.237-0.274-0.315-0.493-0.327-0.916l-0.009-0.32 0.182-0.067c0.465-0.171 1.197-0.048 1.711 0.286l0.238 0.155 0.066-0.259c0.134-0.526 0.363-0.851 0.743-1.058 0.257-0.14 0.298-0.146 0.774-0.124 0.313 0.015 0.61 0.062 0.787 0.126l0.284 0.102 0.241 1.117c0.326 1.517 0.284 1.389 0.48 1.432 0.518 0.114 1.206 0.51 1.713 0.987 0.486 0.457 0.788 0.651 1.258 0.809l0.407 0.137-0.367 0.346c-0.202 0.19-0.457 0.392-0.567 0.448l-0.2 0.102-0.971-0.648c-0.534-0.356-0.981-0.648-0.993-0.648s0.283 0.299 0.655 0.664l0.676 0.664-0.464 0.058c-1.047 0.13-1.475 0.317-2.018 0.882-0.461 0.478-0.865 0.759-1.348 0.935-0.48 0.175-0.717 0.163-0.773-0.039-0.022-0.079-0.058-0.205-0.079-0.281-0.062-0.219-0.175-0.259-0.444-0.156-0.242 0.092-0.688 0.487-1.068 0.945-0.119 0.143-0.217 0.246-0.218 0.229zM3.887 19.259c-0.072-0.269-0.039-0.818 0.063-1.042 0.147-0.321 0.145-0.326-0.047-0.115-0.127 0.139-0.19 0.269-0.216 0.438-0.020 0.132-0.059 0.301-0.087 0.375-0.044 0.115-0.058 0.122-0.099 0.050-0.026-0.047-0.083-0.22-0.126-0.385-0.094-0.362-0.059-0.462 0.339-0.956 0.253-0.315 0.322-0.433 0.193-0.335-0.036 0.027-0.178 0.114-0.317 0.193-0.215 0.123-0.244 0.129-0.198 0.044 0.117-0.218 0.558-0.654 0.81-0.799l0.265-0.153 1.146 0.033c1.184 0.034 2.216-0.030 2.472-0.152 0.081-0.039 0.159-0.143 0.202-0.271 0.067-0.197 0.051-0.293-0.323-1.901-0.216-0.931-0.421-1.839-0.455-2.018-0.076-0.401-0.044-0.777 0.087-1.018 0.055-0.101 0.498-0.552 0.985-1.003s0.918-0.849 0.957-0.886c0.044-0.041 0.059-0.116 0.040-0.195-0.025-0.098-0.078-0.137-0.225-0.165-0.49-0.092-1.006-0.508-1.267-1.021-0.197-0.386-0.417-1.158-0.414-1.452 0.001-0.13 0.022-0.338 0.046-0.462 0.056-0.287-0.019-0.622-0.175-0.791-0.258-0.278-0.3-0.529-0.157-0.948 0.154-0.453 0.517-0.758 1.66-1.399 0.554-0.31 0.924-0.674 1.040-1.023 0.161-0.486 0.672-0.806 1.391-0.874l0.333-0.031-0.326 0.13c-0.179 0.071-0.43 0.201-0.557 0.289-0.205 0.141-0.234 0.186-0.261 0.406-0.114 0.931-0.305 1.497-0.617 1.832l-0.166 0.179 0.156-0.095c0.413-0.25 0.649-0.593 0.786-1.143 0.173-0.694 0.45-0.857 1.558-0.917 0.81-0.044 1.153-0.135 1.562-0.416 0.133-0.092 0.253-0.156 0.265-0.144 0.044 0.044-0.353 0.514-0.603 0.711-0.141 0.111-0.478 0.287-0.762 0.397-0.483 0.187-0.749 0.364-0.749 0.497 0 0.036 0.036 0.046 0.091 0.024 0.050-0.020 0.236-0.074 0.413-0.121 0.282-0.075 0.376-0.077 0.755-0.017 1.059 0.165 1.234 0.13 1.788-0.358 0.442-0.39 0.724-0.493 1.354-0.494 0.258-0 0.586 0.020 0.729 0.045l0.26 0.046-0.45 0.115c-0.698 0.178-0.976 0.34-1.518 0.884-0.264 0.265-0.595 0.548-0.736 0.63-0.326 0.189-0.234 0.222 0.217 0.077 0.433-0.139 0.633-0.261 0.768-0.466 0.107-0.163 0.62-0.472 0.784-0.472 0.064 0-0.015 0.111-0.256 0.361-0.192 0.198-0.393 0.462-0.448 0.586-0.109 0.247-0.319 0.464-0.679 0.705-0.324 0.217-0.917 0.51-1.198 0.592-0.181 0.053-0.321 0.158-0.61 0.459-0.207 0.215-0.366 0.401-0.353 0.414s0.242-0.108 0.509-0.267c0.557-0.332 0.762-0.42 1.235-0.53 0.477-0.11 0.542-0.097 0.203 0.043-0.428 0.176-0.586 0.307-0.854 0.711-0.288 0.433-0.67 0.781-1.089 0.991-0.354 0.178-0.345 0.184 0.092 0.074 0.647-0.163 1.129-0.348 1.45-0.556 0.417-0.27 0.707-0.403 0.885-0.404s0.212 0.056 0.168 0.291c-0.026 0.138-0.078 0.213-0.193 0.274-0.086 0.047-0.398 0.242-0.692 0.435-0.807 0.529-1.147 0.638-2.225 0.71-0.544 0.037-0.619 0.054-0.79 0.184-0.104 0.079-0.249 0.242-0.323 0.361s-0.193 0.28-0.265 0.357c-0.15 0.161-0.169 0.378-0.045 0.502 0.122 0.122 0.382 0.099 1.047-0.094 0.825-0.238 1.272-0.258 1.96-0.085 0.302 0.076 0.784 0.217 1.071 0.313l0.521 0.176 0.036-0.813c0.020-0.447 0.070-1.255 0.11-1.796 0.063-0.837 0.063-1.008 0.002-1.154-0.040-0.095-0.111-0.194-0.158-0.22-0.15-0.084-0.253-0.744-0.116-0.744 0.037 0 0.147 0.082 0.245 0.182s0.202 0.182 0.234 0.182c0.083 0 0.417-0.362 0.515-0.557 0.14-0.278 0.116-0.328-0.16-0.328h-0.243l0.126-0.135c0.069-0.074 0.192-0.17 0.273-0.212 0.185-0.096 0.271-0.035 0.321 0.23 0.046 0.246 0.129 0.4 0.184 0.343 0.065-0.067 0.154-0.614 0.121-0.74-0.016-0.061-0.012-0.222 0.009-0.359l0.038-0.248 0.121 0.313c0.074 0.192 0.123 0.433 0.126 0.625l0.005 0.313 0.134-0.258c0.115-0.221 0.13-0.304 0.108-0.585-0.030-0.371 0.016-0.384 0.147-0.041 0.112 0.294 0.080 0.751-0.075 1.056-0.14 0.274-0.138 0.335 0.006 0.314 0.092-0.013 0.124-0.063 0.154-0.24 0.041-0.242 0.24-0.636 0.32-0.636s0.007 0.845-0.089 1.030c-0.109 0.21-0.167 0.239-0.762 0.379-0.403 0.095-0.523 0.146-0.662 0.285-0.21 0.21-0.211 0.226-0.016 1.407 0.339 2.057 0.406 3.099 0.224 3.457-0.205 0.402-0.759 0.481-2.051 0.293-0.362-0.053-0.715-0.081-0.785-0.064-0.156 0.039-0.229 0.189-0.276 0.569l-0.036 0.29-0.216-0.079c-0.348-0.128-1.112-0.151-1.435-0.044-0.386 0.128-0.832 0.555-1.022 0.977l-0.147 0.327-0.068-0.156c-0.037-0.086-0.083-0.244-0.102-0.352s-0.055-0.195-0.080-0.195c-0.041 0-0.017 0.336 0.036 0.508 0.025 0.083 0.042 0.085-0.32-0.047-0.437-0.159-1.219-0.168-1.479-0.015-0.156 0.091-0.185 0.138-0.198 0.324-0.040 0.539 0.246 1.319 0.596 1.625l0.187 0.164 0.075 0.788c0.057 0.602 0.062 0.875 0.019 1.155-0.064 0.418-0.27 0.887-0.428 0.971-0.072 0.038-0.538 0.051-1.428 0.039-0.727-0.010-1.322-0.012-1.322-0.003s0.059 0.13 0.13 0.272c0.195 0.384 0.169 0.541-0.194 1.185-0.137 0.242-0.168 0.271-0.212 0.192-0.030-0.053-0.039-0.286-0.022-0.55 0.035-0.541-0.024-0.659-0.407-0.805l-0.234-0.089-0.299 0.198c-0.542 0.36-0.878 0.724-1.028 1.116-0.074 0.193-0.167 0.396-0.207 0.45-0.069 0.094-0.075 0.091-0.114-0.057zM8.604 7.229c0.148-0.077 0.231-0.2 0.174-0.257-0.017-0.017-0.12-0.031-0.23-0.031-0.156 0-0.217 0.029-0.287 0.135-0.075 0.115-0.077 0.142-0.014 0.181 0.104 0.066 0.188 0.060 0.357-0.028zM10.283 6.751c0.052-0.047 0.095-0.116 0.095-0.152 0-0.092-0.285-0.145-0.412-0.076-0.12 0.064-0.225 0.233-0.176 0.282 0.066 0.066 0.401 0.030 0.493-0.053z"></path>
</svg>
