<!-- Generated by IcoMoon.io -->
<svg version="1.1" xmlns="http://www.w3.org/2000/svg" width="32" height="32" viewBox="0 0 32 32">
<title>dream</title>
<path d="M25.006 14.66c-0.147 0.029-0.172 0.077-0.28 0.108-0.144 0.044-0.303 0.083-0.456 0.115-0.061 0.010-0.115 0.016-0.175 0.035-0.077 0.023-0.15 0.044-0.227 0.064-0.073 0.023-0.153 0.023-0.22 0.048-0.025 0.006-0.071 0.013-0.064 0.035 0.041-0.006 0.092 0.016 0.137 0.019 0.077 0.003 0.159 0.019 0.23 0.035 0.067 0.019 0.118 0.041 0.188 0.054 0.073 0.010 0.156 0.032 0.22 0.057 0.131 0.054 0.255 0.124 0.262 0.236 0.003 0.048-0.006 0.099 0.003 0.147 0.006 0.019 0.013 0.035 0.013 0.054-0.003 0.035-0.023 0.071-0.032 0.105-0.016 0.064-0.006 0.131-0.025 0.194-0.019 0.067-0.048 0.134-0.064 0.201-0.029 0.131-0.105 0.255-0.166 0.383-0.038 0.080-0.090 0.153-0.124 0.233-0.019 0.038-0.032 0.077-0.051 0.115-0.023 0.048-0.054 0.090-0.080 0.134-0.029 0.054-0.044 0.115-0.096 0.159-0.029 0.029-0.073 0.044-0.099 0.073-0.236 0.268-0.628 0.462-1.065 0.532-0.239 0.038-0.475 0.092-0.718 0.124-0.083 0.010-0.163 0.013-0.242 0.010-0.019 0.003-0.035 0.003-0.051 0.006-0.071 0.010-0.144 0.010-0.214 0.016-0.214 0.023-0.421 0.013-0.622-0.023-0.044-0.006-0.086-0.023-0.131-0.029s-0.086-0.013-0.128-0.025c-0.041-0.013-0.090-0.016-0.134-0.029-0.044-0.010-0.073-0.029-0.112-0.048-0.090-0.038-0.163-0.086-0.242-0.134-0.044-0.025-0.099-0.044-0.14-0.077-0.032-0.023-0.067-0.048-0.102-0.071-0.071-0.041-0.144-0.080-0.21-0.124-0.032-0.023-0.054-0.051-0.086-0.073-0.035-0.025-0.071-0.048-0.099-0.077-0.025-0.023-0.071-0.054-0.071-0.086 0-0.023 0.023-0.048 0.029-0.073 0.010-0.029 0.019-0.057 0.016-0.086 0 0 0-0.003 0-0.003-0.038-0.032-0.080-0.061-0.131-0.080-0.15-0.058-0.166-0.023-0.297 0.023-0.191 0.064-0.411 0.102-0.603 0.191-0.341 0.163-0.619 0.3-1.014 0.383 0.102-0.105 0.258-0.179 0.37-0.28 0.083-0.077 0.153-0.163 0.239-0.239 0.239-0.214 0.564-0.357 0.784-0.577 0.194-0.194 0.348-0.367 0.581-0.545 0.242-0.185 0.555-0.316 0.82-0.475 0.025-0.016 0.051-0.029 0.073-0.041 0.003 0 0.003 0 0.003 0 0.035 0.006 0.067 0.010 0.099 0.019 0.023 0.006 0.051 0.010 0.073 0.016 0.016 0.003 0.025 0.013 0.041 0.019 0.032 0.013 0.064 0.023 0.092 0.038 0.077 0.044 0.156 0.086 0.23 0.134 0.064 0.038 0.118 0.083 0.185 0.121s0.131 0.073 0.188 0.121c0.099 0.077 0.204 0.15 0.303 0.227 0.044 0.032 0.083 0.064 0.121 0.099 0.019 0.016 0.029 0.032 0.044 0.048 0.016 0.019 0.038 0.032 0.054 0.051 0.077 0.073 0.159 0.15 0.22 0.233 0.057 0.073 0.118 0.147 0.166 0.223 0.044 0.067 0.096 0.128 0.156 0.188 0.044 0.051 0.090 0.099 0.14 0.144 0.048 0.048 0.099 0.099 0.156 0.14 0.048 0.035 0.083 0.073 0.128 0.108 0.029 0.019 0.064 0.038 0.090 0.064-0.013-0.025 0.023-0.071 0.025-0.096 0-0.016-0.013-0.032-0.013-0.048 0.003-0.019 0.006-0.032 0.006-0.051 0-0.016 0.006-0.032 0.003-0.051-0.003-0.023 0-0.038 0.006-0.061 0.003-0.023-0.003-0.038-0.003-0.061 0.003-0.016 0.010-0.032 0.006-0.048-0.006-0.038-0.006-0.071-0.006-0.108 0.003-0.051-0.010-0.099-0.023-0.15-0.013-0.048-0.023-0.096-0.035-0.14-0.006-0.029-0.013-0.054-0.019-0.083-0.006-0.035-0.025-0.061-0.038-0.096-0.016-0.032-0.029-0.067-0.044-0.099-0.010-0.025-0.035-0.044-0.044-0.071-0.019-0.038-0.029-0.080-0.048-0.118-0.010-0.023-0.023-0.048-0.035-0.071-0.010-0.023-0.025-0.044-0.038-0.064-0.029-0.038-0.051-0.083-0.086-0.115-0.041-0.038-0.080-0.077-0.118-0.118-0.048-0.044-0.096-0.090-0.137-0.134-0.048-0.061-0.105-0.115-0.163-0.169-0.023-0.023-0.038-0.048-0.064-0.071-0.025-0.019-0.058-0.029-0.086-0.044-0.067-0.035-0.121-0.083-0.185-0.118-0.073-0.038-0.169-0.064-0.246-0.099-0.064-0.029-0.134-0.044-0.204-0.064 0.421-0.115 0.867-0.194 1.288-0.265 0.415-0.071 0.829-0.137 1.241-0.21 0.22-0.038 0.376-0.019 0.59-0.029 0.194-0.013 0.405-0.128 0.507 0.041-0.092-0.048 0.325-0.144 0.462 0.006-0.092 0.090-0.246 0.083-0.386 0.112zM18.782 21.059c-0.112-0.023-0.227-0.032-0.351-0.032-0.807 0-1.327 0.44-1.566 1.008-0.217 0.051-0.44 0.077-0.67 0.061-0.102-0.010-0.201-0.029-0.293-0.054-0.22-0.612-0.756-1.1-1.601-1.1-0.204 0-0.389 0.029-0.555 0.083-0.086-0.204 0.035-0.469 0.37-0.462 0.781 0.013 1.26 0.191 1.936 0.459 0.462 0.185 0.603-0.023 1.036-0.166 0.408-0.14 0.861-0.159 1.298-0.169 0.284-0.006 0.415 0.188 0.395 0.373zM12.207 16.901c-0.048 0.019-0.092 0.048-0.131 0.080 0 0 0 0.003 0 0.003 0 0.029 0.010 0.057 0.019 0.086 0.006 0.025 0.029 0.051 0.029 0.073 0 0.032-0.044 0.064-0.071 0.086-0.029 0.029-0.064 0.051-0.096 0.077-0.032 0.023-0.054 0.051-0.086 0.073-0.067 0.044-0.14 0.086-0.207 0.128-0.035 0.023-0.071 0.048-0.102 0.073-0.041 0.029-0.096 0.048-0.14 0.077-0.080 0.048-0.153 0.096-0.242 0.137-0.035 0.016-0.067 0.038-0.108 0.048-0.044 0.010-0.092 0.016-0.137 0.029-0.041 0.013-0.080 0.019-0.124 0.029-0.048 0.006-0.086 0.019-0.131 0.029-0.201 0.035-0.408 0.048-0.619 0.025-0.073-0.006-0.147-0.003-0.217-0.013-0.016-0.003-0.032-0.003-0.051-0.006-0.080 0.003-0.159 0.003-0.246-0.010-0.239-0.029-0.478-0.080-0.717-0.115-0.437-0.067-0.829-0.258-1.072-0.529-0.023-0.025-0.067-0.041-0.099-0.071-0.051-0.044-0.067-0.105-0.096-0.156-0.025-0.048-0.061-0.086-0.083-0.134-0.019-0.038-0.032-0.080-0.051-0.118-0.038-0.077-0.086-0.15-0.124-0.23-0.064-0.128-0.144-0.249-0.172-0.383-0.016-0.067-0.048-0.134-0.067-0.201-0.019-0.064-0.010-0.128-0.029-0.191-0.010-0.035-0.029-0.071-0.032-0.105-0.003-0.019 0.006-0.038 0.010-0.054 0.010-0.048 0-0.099 0.003-0.147 0.003-0.112 0.128-0.185 0.258-0.239 0.064-0.025 0.147-0.048 0.22-0.061 0.071-0.013 0.121-0.035 0.188-0.054 0.071-0.019 0.153-0.032 0.23-0.035 0.044-0.003 0.092-0.029 0.137-0.023 0.006-0.023-0.041-0.029-0.064-0.035-0.071-0.025-0.15-0.025-0.223-0.044s-0.15-0.041-0.227-0.064c-0.061-0.016-0.115-0.023-0.175-0.035-0.153-0.029-0.313-0.064-0.459-0.108-0.108-0.032-0.134-0.080-0.28-0.105-0.14-0.029-0.293-0.019-0.386-0.112 0.134-0.15 0.555-0.057 0.462-0.010 0.099-0.169 0.313-0.054 0.507-0.044 0.21 0.010 0.37-0.013 0.59 0.025 0.411 0.067 0.826 0.134 1.241 0.201 0.424 0.067 0.871 0.14 1.295 0.252-0.071 0.023-0.14 0.038-0.204 0.067-0.080 0.035-0.172 0.061-0.246 0.102-0.064 0.035-0.118 0.083-0.182 0.118-0.032 0.016-0.064 0.025-0.086 0.044-0.025 0.023-0.041 0.048-0.064 0.071-0.058 0.054-0.115 0.112-0.163 0.169-0.038 0.048-0.090 0.092-0.134 0.137-0.038 0.041-0.077 0.080-0.118 0.118-0.035 0.035-0.057 0.080-0.083 0.115-0.016 0.019-0.029 0.044-0.038 0.067s-0.025 0.044-0.035 0.071c-0.016 0.038-0.025 0.080-0.044 0.118-0.010 0.025-0.035 0.044-0.044 0.071-0.016 0.032-0.029 0.067-0.041 0.099-0.013 0.035-0.032 0.061-0.038 0.096-0.006 0.029-0.013 0.054-0.019 0.083l-0.032 0.144c-0.013 0.051-0.025 0.096-0.023 0.15 0 0.035 0 0.071-0.006 0.105-0.003 0.019 0.006 0.032 0.006 0.051 0.003 0.019-0.003 0.038 0 0.058 0.006 0.023 0.010 0.038 0.006 0.061-0.003 0.019 0.003 0.035 0.003 0.054 0 0.016 0.006 0.032 0.006 0.048s-0.013 0.032-0.010 0.048c0.003 0.025 0.038 0.071 0.025 0.096 0.023-0.023 0.057-0.044 0.086-0.064 0.048-0.035 0.080-0.073 0.128-0.108 0.057-0.041 0.108-0.092 0.156-0.14s0.092-0.096 0.137-0.147c0.061-0.061 0.112-0.121 0.153-0.188 0.048-0.077 0.108-0.153 0.166-0.227 0.061-0.083 0.14-0.159 0.214-0.233 0.019-0.019 0.041-0.032 0.057-0.051 0.013-0.019 0.025-0.032 0.044-0.048 0.038-0.035 0.077-0.071 0.118-0.102 0.096-0.080 0.201-0.153 0.3-0.23 0.057-0.044 0.121-0.083 0.188-0.121 0.064-0.038 0.121-0.083 0.182-0.124 0.073-0.048 0.153-0.090 0.23-0.134 0.029-0.019 0.061-0.025 0.092-0.038 0.013-0.006 0.025-0.016 0.041-0.023 0.023-0.006 0.048-0.006 0.073-0.016 0.032-0.010 0.064-0.013 0.099-0.019 0 0 0 0 0 0 0.025 0.013 0.051 0.025 0.077 0.038 0.268 0.159 0.581 0.29 0.826 0.472 0.233 0.175 0.389 0.348 0.587 0.542 0.223 0.217 0.548 0.357 0.791 0.571 0.086 0.073 0.156 0.159 0.239 0.236 0.112 0.102 0.271 0.172 0.373 0.277-0.396-0.083-0.673-0.214-1.017-0.373-0.191-0.090-0.411-0.128-0.603-0.188-0.131-0.044-0.147-0.077-0.3-0.019zM29.689 24.656c-0.137-0.245-0.236-0.491-0.45-0.705-0.351-0.344-0.867-0.711-1.343-0.931-0.501-0.236-1.027-0.44-1.54-0.654-0.061-0.029-0.128-0.061-0.194-0.090 0.096-0.15 0.15-0.293 0.22-0.456 0.099-0.22 0.236-0.427 0.338-0.651 0.255-0.558 0.558-1.084 0.871-1.623 0.080-0.14 0.112-0.29 0.163-0.437 0.099-0.293 0.201-0.561 0.255-0.851 0.175-0.456 0.268-0.931 0.284-1.406 0.013-0.032 0.023-0.064 0.029-0.096 0.032-0.144 0.013-0.29 0.013-0.437 0-0.236-0.029-0.418-0.112-0.644-0.013-0.035-0.032-0.067-0.048-0.102-0.108-0.504-0.287-1.005-0.517-1.486 0.010-0.061 0.013-0.124 0.010-0.191-0.010-0.112-0.051-0.166-0.073-0.271-0.048-0.242-0.201-0.504-0.316-0.727-0.108-0.207-0.316-0.456-0.51-0.609-0.073-0.061-0.175-0.105-0.175-0.21 0-0.064 0.080-0.198 0.112-0.268 0.14-0.293 0.437-0.513 0.59-0.807 0.071-0.137 0.172-0.277 0.217-0.418 0.032-0.115 0.096-0.198 0.14-0.306 0.102-0.268-0.054-0.539-0.137-0.781-0.073-0.22-0.15-0.418-0.147-0.651 0.003-0.096-0.013-0.166-0.038-0.249-0.016-0.057-0.080-0.15-0.092-0.201-0.035-0.144-0.064-0.402-0.023-0.548 0.041-0.144 0.14-0.29 0.21-0.434 0.073-0.156 0.156-0.316 0.23-0.469 0.010-0.019 0.019-0.038 0.025-0.057-0.998-0.332-0.855-1.814 0.43-1.814 0.166 0 0.313 0.029 0.443 0.073 0.035-0.105 0.077-0.207 0.115-0.309 0.223-0.638 0.223-1.595-0.708-1.824-0.23-0.057-0.593 0.057-0.816 0.124-0.262 0.080-0.469 0.274-0.67 0.424-0.316 0.236-0.631 0.459-0.957 0.686-0.233 0.166-0.568 0.319-0.756 0.513-0.14 0.14-0.28 0.239-0.459 0.354-0.443 0.287-0.89 0.568-1.371 0.81-0.23 0.115-0.386 0.121-0.647 0.121-0.306 0-0.584-0.023-0.883-0.071l-0.029-0.054h-0.21c-0.309-0.077-0.609-0.194-0.915-0.252-0.217-0.038-0.44-0.003-0.657 0.029-0.277-0.115-0.421-0.376-0.717-0.475-0.3-0.105-0.711-0.061-1.008 0.016-0.22 0.057-0.459 0.156-0.701 0.23-0.153-0.092-0.3-0.194-0.482-0.233-0.23-0.048-0.408 0.073-0.587 0.185-0.182-0.112-0.36-0.233-0.59-0.185-0.182 0.038-0.329 0.14-0.482 0.233-0.242-0.073-0.482-0.172-0.701-0.23-0.297-0.077-0.708-0.121-1.008-0.016-0.297 0.099-0.44 0.36-0.714 0.475-0.22-0.032-0.443-0.067-0.66-0.029-0.306 0.057-0.606 0.175-0.915 0.252h-0.207l-0.032 0.054c-0.297 0.048-0.577 0.071-0.883 0.071-0.261 0-0.418-0.006-0.647-0.121-0.482-0.242-0.928-0.523-1.371-0.81-0.179-0.115-0.316-0.214-0.456-0.354-0.191-0.194-0.526-0.348-0.756-0.513-0.325-0.226-0.644-0.45-0.96-0.686-0.201-0.15-0.408-0.344-0.67-0.424-0.223-0.067-0.587-0.182-0.816-0.124-0.931 0.23-0.931 1.186-0.705 1.824 0.064 0.188 0.153 0.379 0.188 0.574 0.016 0.102 0.029 0.169 0.090 0.261 0.144 0.23 0.137 0.517 0.293 0.734 0.061 0.086 0.147 0.128 0.223 0.194 0.121 0.112 0.153 0.214 0.217 0.344 0.073 0.153 0.159 0.313 0.233 0.469 0.067 0.144 0.166 0.29 0.207 0.434 0.042 0.147 0.013 0.405-0.023 0.548-0.010 0.051-0.077 0.144-0.092 0.201-0.025 0.083-0.038 0.153-0.038 0.249 0.003 0.233-0.073 0.43-0.147 0.651-0.083 0.242-0.239 0.513-0.134 0.781 0.042 0.108 0.105 0.191 0.137 0.306 0.044 0.14 0.147 0.28 0.217 0.418 0.156 0.293 0.45 0.513 0.59 0.807 0.032 0.071 0.112 0.204 0.112 0.268 0 0.105-0.099 0.15-0.175 0.21-0.194 0.153-0.402 0.402-0.507 0.609-0.118 0.223-0.271 0.485-0.319 0.727-0.019 0.105-0.064 0.159-0.073 0.271-0.003 0.067 0 0.131 0.010 0.191-0.23 0.482-0.408 0.982-0.517 1.486-0.016 0.035-0.032 0.067-0.048 0.102-0.083 0.227-0.112 0.408-0.112 0.644 0 0.147-0.019 0.293 0.013 0.437 0.006 0.032 0.019 0.064 0.029 0.096 0.016 0.475 0.108 0.95 0.284 1.406 0.054 0.29 0.156 0.558 0.255 0.851 0.051 0.147 0.083 0.297 0.166 0.437 0.309 0.539 0.612 1.065 0.871 1.623 0.099 0.223 0.236 0.431 0.335 0.651 0.073 0.163 0.124 0.306 0.22 0.456-0.067 0.029-0.134 0.061-0.194 0.090-0.51 0.214-1.040 0.418-1.54 0.654-0.472 0.22-0.992 0.587-1.339 0.931-0.217 0.214-0.316 0.459-0.453 0.705-0.096 0.172-0.227 0.338-0.293 0.52 0.124-0.15 0.338-0.255 0.51-0.36 0.427-0.265 0.816-0.501 1.292-0.711 0.319-0.14 0.615-0.297 0.941-0.424 0.179-0.071 0.364-0.128 0.526-0.223 0.303-0.179 0.638-0.274 0.976-0.389 0.032-0.010 0.057-0.019 0.090-0.029 0.019 0.016 0.038 0.035 0.057 0.054 0.137 0.108 0.274 0.214 0.411 0.316-0.071 0.048-0.137 0.096-0.214 0.147-0.36 0.252-0.676 0.558-1.011 0.836-0.284 0.236-0.615 0.456-0.81 0.756-0.067 0.099-0.172 0.239-0.156 0.36 0.010 0.071-0.023 0.112 0.071 0.134 0.115 0.032 0.523-0.274 0.606-0.316 0.526-0.258 1.017-0.561 1.54-0.82 0.144-0.071 0.313-0.099 0.466-0.166 0.090-0.038 0.156-0.061 0.255-0.077 0.071-0.013 0.137-0.023 0.201-0.035 0.115 0.118 0.23 0.239 0.351 0.354-0.233 0.322-0.504 0.517-0.855 0.737-0.23 0.144-0.475 0.552-0.395 0.794 0.268-0.159 0.472-0.303 0.784-0.402 0.325-0.102 0.628-0.28 0.957-0.36 0.092-0.023 0.191-0.035 0.293-0.041 0.781 0.686 1.62 1.32 2.519 1.897 0.947 0.679 2.031 1.288 3.164 1.617 0.459 0.131 0.896 0.182 1.324 0.175 0.424 0.006 0.864-0.044 1.32-0.175 1.132-0.329 2.216-0.938 3.163-1.617 0.899-0.577 1.741-1.212 2.519-1.897 0.102 0.006 0.201 0.019 0.293 0.041 0.332 0.080 0.631 0.258 0.957 0.36 0.313 0.099 0.52 0.242 0.784 0.402 0.080-0.242-0.166-0.651-0.392-0.794-0.354-0.22-0.622-0.415-0.855-0.737 0.118-0.115 0.233-0.236 0.348-0.354 0.064 0.013 0.131 0.023 0.204 0.035 0.096 0.016 0.163 0.038 0.252 0.077 0.153 0.067 0.322 0.096 0.469 0.166 0.52 0.258 1.011 0.561 1.537 0.82 0.083 0.041 0.491 0.348 0.606 0.316 0.092-0.023 0.061-0.064 0.071-0.134 0.016-0.121-0.090-0.262-0.153-0.36-0.194-0.3-0.529-0.52-0.813-0.756-0.335-0.277-0.651-0.584-1.011-0.836-0.073-0.051-0.144-0.099-0.214-0.147 0.14-0.102 0.277-0.207 0.411-0.316 0.023-0.019 0.041-0.038 0.061-0.054 0.029 0.010 0.054 0.019 0.086 0.029 0.338 0.115 0.673 0.21 0.976 0.389 0.163 0.096 0.348 0.153 0.526 0.223 0.325 0.128 0.622 0.284 0.941 0.424 0.475 0.21 0.864 0.446 1.295 0.711 0.169 0.105 0.383 0.21 0.507 0.36-0.067-0.182-0.198-0.348-0.293-0.52z"></path>
</svg>
