<!-- Generated by IcoMoon.io -->
<svg version="1.1" xmlns="http://www.w3.org/2000/svg" width="33" height="32" viewBox="0 0 33 32">
<title>echoes_of_the_past</title>
<path d="M19.629 25.356c-0.102 0.181-0.167 0.379-0.3 0.543-0.066 0.081-0.17 0.125-0.247 0.198-0.088 0.084-0.164 0.175-0.269 0.239-0.11 0.066-0.358 0.183-0.492 0.175 0-0.094 0.214-0.088 0.274-0.123 0.097-0.057 0.218-0.203 0.29-0.293 0.091-0.11 0.152-0.262 0.199-0.399 0.044-0.126 0.115-0.262 0.126-0.395 0.025-0.287 0.008-0.56-0.101-0.822-0.094-0.227-0.091-0.43-0.275-0.619-0.076-0.080-0.193-0.137-0.17-0.265 0.005-0.051-0.058-0.031-0.127-0.097-0.046-0.044-0.040-0.11-0.104-0.154 0.135-0.003 0.264 0.097 0.403 0.101 0.146 0.008 0.308 0.088 0.41 0.196 0.123 0.131 0.209 0.319 0.271 0.488 0.073 0.196 0.166 0.394 0.189 0.605 0.019 0.199 0.018 0.452-0.077 0.622zM17.602 25.849c-0.095 0.088-0.158 0.204-0.251 0.297-0.11 0.109-0.224 0.215-0.33 0.327-0.126 0.135-0.271 0.249-0.387 0.391-0.064 0.076-0.137 0.152-0.202 0.225-0.040 0.045-0.171 0.18-0.236 0.168-0.065-0.107-0.11-0.228-0.146-0.343-0.025-0.078-0.035-0.163-0.061-0.238-0.025-0.066-0.055-0.098-0.091-0.162-0.061-0.107-0.084-0.177 0.040-0.235 0.123-0.058 0.222-0.139 0.347-0.209 0.093-0.051 0.158-0.119 0.243-0.185 0.123-0.097 0.271-0.145 0.377-0.262 0.109-0.124 0.243-0.244 0.32-0.391 0.159-0.298 0.332-0.608 0.048-0.884-0.106-0.107-0.275-0.315-0.424-0.355-0.101-0.027-0.2-0.023-0.307-0.066-0.115-0.044-0.21-0.107-0.309-0.186-0.093-0.076-0.16-0.123-0.21-0.235-0.028-0.062-0.054-0.048-0.008-0.105 0.015-0.020 0.148-0.090 0.166-0.104 0.146-0.097 0.303-0.173 0.452-0.262 0.113-0.068 0.159-0.083 0.247 0.016 0.099 0.162 0.175 0.319 0.322 0.435 0.053 0.041 0.112 0.073 0.16 0.12 0.116 0.112 0.232 0.232 0.347 0.345 0.151 0.151 0.303 0.322 0.434 0.486 0.099 0.124 0.246 0.262 0.326 0.398 0.062 0.104 0.029 0.115-0.065 0.183-0.106 0.079-0.156 0.148-0.236 0.251-0.162 0.209-0.374 0.402-0.565 0.58zM16.037 20.376c0.037-0.099 0.164-0.123 0.25-0.102 0.087 0.020 0.116 0.052 0.22 0.052 0.2-0.003 0.399 0 0.6 0 0.392 0 0.759-0.027 1.147-0.086 0.199-0.031 0.39-0.073 0.583-0.126 0.072-0.020 0.285-0.012 0.325-0.070-0.015 0.191-0.003 0.388-0.003 0.58 0 0.115 0.051 0.383-0.046 0.46-0.128 0.101-0.319 0.080-0.457 0.044-0.213-0.055-0.492-0.012-0.712-0.012-0.116 0-0.232-0.001-0.349-0.001-0.138 0.003-0.267 0.048-0.405 0.054-0.156 0.008-0.311-0.016-0.467 0.008-0.162 0.023-0.332 0.086-0.495 0.092-0.069 0.001-0.117 0.020-0.145-0.049-0.021-0.051 0.004-0.195 0.004-0.247 0-0.121 0.032-0.289 0.003-0.406-0.018-0.069-0.069-0.117-0.053-0.192zM16.196 18.948c0.013-0.004 0.025-0.004 0.040 0.040-0.016-0.098 0.061-0.201 0.084-0.293 0.043-0.167 0.101-0.282 0.21-0.415 0.081-0.097 0.195-0.144 0.305-0.209 0.099-0.060 0.191-0.144 0.293-0.197 0.238-0.128 0.417-0.125 0.681-0.125 0.189 0 0.423-0.039 0.608-0.003 0.174 0.031 0.293 0.079 0.388 0.232 0.070 0.11 0.159 0.233 0.217 0.354 0.023 0.050 0.061 0.12 0.075 0.17 0.021 0.074 0.005 0.152 0.023 0.227 0.013 0.058 0.039 0.107 0.037 0.185 0 0.063-0.022 0.177 0.028 0.222-0.062 0.088-0.497 0.081-0.6 0.051-0.084-0.023-0.059-0.012-0.073-0.099-0.005-0.040-0.010-0.112-0.001-0.149 0.028-0.137 0.097-0.25 0.043-0.401-0.072-0.196-0.354-0.325-0.536-0.344-0.104-0.008-0.189-0.058-0.297-0.050-0.106 0.008-0.251 0.051-0.349 0.099-0.156 0.079-0.314 0.193-0.381 0.358-0.050 0.12-0.039 0.214-0.059 0.337-0.018 0.107-0.055 0.183-0.051 0.296 0.003 0.177-0.037 0.151-0.199 0.149h-0.298c-0.138 0-0.229 0.050-0.247-0.098-0.015-0.126 0.040-0.22 0.061-0.338zM16.391 8.295c0.202-0.012 0.362-0.256 0.526-0.356 0.044-0.027 0.142-0.105 0.227-0.155-0.075-0.123-0.211-0.215-0.316-0.301-0.128-0.106-0.11-0.246-0.144-0.387-0.015-0.072-0.044-0.087-0.053-0.171-0.008-0.083-0.036-0.142-0.050-0.224 0.028 0.031 0.043 0.048 0.054 0.063-0.015-0.058-0.059-0.109-0.079-0.162-0.028-0.074-0.025-0.137-0.025-0.224 0.001-0.16-0.066-0.349 0.151-0.322 0.105 0.012 0.222 0.124 0.297 0.197 0.062 0.061 0.050 0.097 0.048 0.199-0.001 0.094 0.001 0.162 0.037 0.249 0.048 0.119 0.098 0.279 0.193 0.369 0.153 0.142 0.29 0.293 0.453 0.423 0.112 0.091 0.278 0.174 0.37 0.285 0.124 0.151 0.175 0.347 0.228 0.529 0.018 0.063 0.044 0.113 0.076 0.159 0.093-0.112 0.181-0.227 0.272-0.338 0.040-0.050 0.087-0.124 0.153-0.138l0.098-0.149c0.088 0.104 0.206 0.186 0.325 0.243 0.086 0.040 0.134 0.048 0.117 0.162-0.018 0.109-0.112 0.174-0.18 0.249-0.075 0.083-0.145 0.185-0.207 0.279 0.11 0.076-0.021 0.214-0.050 0.337-0.035 0.137 0.018 0.348-0.152 0.405-0.128 0.044-0.272-0.086-0.398-0.126-0.134-0.043-0.34-0.050-0.45-0.148-0.109-0.098-0.102-0.322-0.18-0.459-0.037-0.065-0.077-0.13-0.126-0.188-0.018-0.020-0.057-0.027-0.076-0.055-0.035-0.048-0.033-0.12-0.058-0.174-0.003-0.004-0.007-0.012-0.010-0.020-0.010 0.039-0.033 0.065-0.090 0.088-0.046 0.020-0.072 0.001-0.113 0.035-0.037 0.027-0.050 0.079-0.082 0.112-0.113 0.123-0.285 0.171-0.392 0.301-0.058 0.070-0.095 0.145-0.173 0.051-0.077-0.097-0.075-0.28-0.134-0.394-0.043-0.081-0.142-0.138-0.091-0.246zM18.563 6.008v-0.050c0.003-0.016 0.005-0.027 0.008-0.042 0.184-0.055 0.462-0.031 0.488 0.188s0.035 0.517-0.079 0.699c-0.090 0.148-0.166 0.144-0.318 0.145-0.091 0-0.225-0.027-0.29-0.097-0.062-0.066-0.058-0.214-0.058-0.3 0.001-0.044-0.008-0.099-0.004-0.142 0.018-0.167 0.116-0.298 0.253-0.402zM19.16 12.893c-0.019 0.117-0.086 0.215-0.14 0.311-0.072 0.123-0.135 0.257-0.199 0.385-0.032 0.063-0.041 0.139-0.084 0.198-0.021 0.031-0.050 0.048-0.069 0.079-0.021 0.031-0.005 0.097-0.054 0.115-0.005 0.001-0.010 0.001-0.014 0.001 0.005 0.016 0.014 0.031 0.023 0.045 0.019 0.024 0.062 0.039 0.077 0.063 0.031 0.054 0.011 0.134 0.011 0.193-0.003 0.215 0.025 0.439-0.039 0.642-0.039 0.123-0.087 0.198-0.158 0.305-0.065 0.097-0.091 0.177-0.192 0.246-0.053 0.035-0.083 0.045-0.128 0.086-0.084 0.072-0.135 0.178-0.217 0.25-0.082 0.066-0.079 0.027-0.159 0.065-0.055 0.024-0.144 0.083-0.204 0.087-0.044 0.004-0.108-0.058-0.141-0.050s-0.068 0.004-0.101-0.008c-0.033-0.027-0.066-0.055-0.099-0.083-0.11-0.047-0.298-0.008-0.42-0.008-0.122 0.001-0.294-0.003-0.326-0.148-0.023-0.107-0.011-0.189-0.094-0.279 0.329 0.175 0.732 0.080 1.056-0.062 0.383-0.168 0.55-0.716 0.383-1.094-0.036-0.081-0.094-0.152-0.13-0.236-0.016-0.043-0.025-0.102-0.037-0.157-0.054 0.003-0.106 0.003-0.158-0.003-0.185-0.020-0.377-0.121-0.546-0.201-0.199-0.094-0.41 0.001-0.613-0.060 0.050-0.102 0.029-0.215 0.093-0.312 0.033-0.051 0.080-0.080 0.097-0.148 0.018-0.079 0.008-0.163 0.028-0.246 0.031-0.128 0.013-0.254 0.036-0.384 0.026-0.149 0.079-0.298 0.126-0.442 0.048-0.144 0.115-0.287 0.112-0.439 0.245 0 0.384-0.024 0.473 0.024 0.12 0.065 0.068 0.142 0.028 0.25-0.036 0.102-0.053 0.21-0.091 0.311-0.019 0.055-0.054 0.099-0.066 0.157-0.013 0.066 0.016 0.135-0.007 0.203-0.037 0.117-0.135 0.157-0.040 0.246 0.066 0.062 0.155 0.043 0.238 0.061 0.031 0.004 0.065 0.035 0.109 0.039 0.050 0.008 0.090-0.004 0.14 0.012 0.036 0.008 0.059 0.031 0.108 0.039 0.047 0.004 0.102-0.001 0.151-0.001 0.215 0 0.366 0.044 0.434-0.196 0.036-0.134 0.073-0.275 0.099-0.412 0.025-0.128-0.010-0.26 0.022-0.384 0.018-0.068 0.055-0.242 0.135-0.253 0.073-0.008 0.233 0.091 0.298 0.119 0.206 0.090 0.43 0.104 0.641 0.144 0.015 0.066-0.058 0.094-0.094 0.137-0.065 0.079-0.109 0.163-0.152 0.254-0.046 0.098-0.11 0.189-0.135 0.294-0.019 0.083 0.004 0.163-0.008 0.246zM20.931 5.955c0.039-0.272 0.159-0.55 0.162-0.825 0.003-0.134-0.062-0.249-0.11-0.377-0.031-0.080-0.025-0.159-0.116-0.22-0.091-0.062-0.251-0.086-0.37-0.12-0.246-0.071-0.49-0.115-0.757-0.144-0.245-0.027-0.503-0.069-0.75-0.081-0.395-0.020-0.765-0.078-1.166-0.072-0.084 0.001-0.167 0.004-0.251 0-0.113-0.008-0.213-0.031-0.319-0.061-0.308-0.081-0.602-0.126-0.933-0.133-0.198-0.004-0.396-0.016-0.595-0.020-0.149-0.003-0.233 0.031-0.361 0.072-0.164 0.053-0.33 0.035-0.496 0.076-0.254 0.063-0.359 0.173-0.304 0.345 0.050 0.162 0.124 0.307 0.156 0.464 0.008 0.040 0.013 0.080 0.014 0.123 0.007 0.308-0.093 0.588-0.163 0.891-0.058 0.253-0.015 0.475 0.047 0.725 0.087 0.344 0.046 0.696 0.034 1.042-0.013 0.402-0.029 0.801-0.039 1.203-0.004 0.112-0.007 0.225-0.008 0.337-0.005 0.274 0.099 0.554 0.057 0.823-0.022 0.133-0.079 0.262-0.087 0.398-0.025 0.329-0.015 0.662-0.024 0.991-0.024 0.877-0.040 1.756-0.072 2.632-0.026 0.694 0.144 1.365 0.233 2.053 0.014 0.218 0.011 0.438-0.008 0.656-0.001 0.209 0.013 0.417 0.043 0.626 0.019 0.319 0.032 0.64 0.051 0.96 0.044 0.771-0.013 1.55-0.104 2.316-0.059 0.496-0.044 0.996-0.057 1.494-0.014 0.486 0.041 1.002-0.055 1.481-0.048 0.227-0.081 0.417-0.041 0.648 0.039 0.21 0.029 0.416 0.022 0.627-0.005 0.173-0.031 0.35-0.018 0.522 0.011 0.145 0.076 0.269 0.069 0.417-0.013 0.298-0.059 0.615-0.029 0.912 0.018 0.185 0.129 0.361 0.138 0.546 0.005 0.097 0.025 0.145 0.053 0.235 0.031 0.099-0.024 0.201 0.005 0.297 0.016 0.058 0.058 0.080 0.094 0.131 0.061 0.087 0.080 0.174 0.123 0.265 0.084 0.178 0.137 0.613 0.471 0.68 0.267 0.054 0.658-0.11 0.92-0.137 0.525-0.054 1.062-0.058 1.592-0.087 0.539-0.031 1.076-0.065 1.616-0.088 0.22-0.008 0.45 0.008 0.671 0.016 0.109 0.001 0.551 0.057 0.626 0.008 0.091-0.057-0.025-0.392-0.033-0.431-0.047-0.264-0.11-0.531-0.133-0.799-0.031-0.345 0.069-0.71-0.003-1.053-0.016-0.076-0.050-0.145-0.053-0.224-0.011-0.256 0.014-0.517 0.021-0.774 0.013-0.517 0.028-1.032 0.041-1.549 0.032-1.159 0.131-2.314 0.17-3.473 0.015-0.442-0.036-0.895-0.046-1.339-0.008-0.42-0.131-0.826-0.113-1.248 0.014-0.348-0.004-0.685-0.040-1.033-0.033-0.334 0.013-0.681 0.022-1.017 0.043-1.612 0.086-3.223 0.128-4.836 0.013-0.439-0.046-0.897-0.115-1.337-0.128-0.822-0.021-1.644 0.068-2.461 0.039-0.359 0.068-0.721 0.12-1.079z"></path>
<path d="M25.662 11.593c0.051 0.020 0.102 0.044 0.151 0.070 0.187 0.097 0.413 0.107 0.593 0.21 0.101 0.070 0.2 0.144 0.297 0.22 0.093 0.048 0.185 0.097 0.276 0.142 0.142 0.090 0.267 0.257 0.348 0.402 0.145 0.254 0.173 0.525 0.204 0.815 0.032 0.296 0.048 0.573 0.048 0.873 0 0.279 0.021 0.569 0.003 0.848-0.014 0.227-0.095 0.456-0.138 0.678-0.026 0.138-0.055 0.232-0.113 0.362-0.061 0.131-0.050 0.319-0.153 0.428-0.122 0.128-0.272 0.054-0.391 0.217-0.18 0.246-0.217 0.578-0.276 0.869-0.059 0.282-0.415 0.55-0.616 0.746-0.398 0.39-0.792 0.782-1.143 1.203-0.3 0.358-0.605 0.68-0.804 1.091-0.126 0.26-0.251 0.521-0.361 0.786-0.128 0.309-0.153 0.602-0.153 0.927 0.001 0.145-0.019 0.301 0.004 0.445 0.062 0.402 0.265 0.637 0.6 0.859 0.264 0.175 0.377 0.464 0.633 0.649 0.271 0.199 0.615 0.303 0.963 0.34 0.171 0.020 0.289-0.004 0.456-0.027 0.213-0.027 0.45 0.035 0.655-0.016 0.11-0.027 0.214-0.102 0.315-0.149 0.166-0.074 0.29-0.146 0.385-0.29 0.146-0.221 0.354-0.55 0.388-0.81 0.025-0.195-0.005-0.412-0.004-0.608 0-0.144-0.037-0.258-0.050-0.391-0.013-0.141-0.032-0.228-0.098-0.362-0.082-0.16-0.093-0.345-0.192-0.497-0.005 0.035-0.001 0.076-0.014 0.11-0.152 0.031-0.322 0.003-0.478 0.027-0.153 0.027-0.515-0.008-0.561 0.154-0.036 0.134 0.050 0.377 0.102 0.489 0.097 0.202 0.195 0.402 0.202 0.624 0.004 0.148 0.026 0.276-0.084 0.394-0.087 0.091-0.163 0.209-0.264 0.289-0.142 0.112-0.488 0.098-0.648 0.031-0.091-0.035-0.11-0.098-0.167-0.165-0.080-0.095-0.198-0.16-0.283-0.253-0.164-0.181-0.199-0.408-0.263-0.623-0.094-0.323-0.187-0.652-0.106-0.987 0.036-0.156 0.082-0.32 0.163-0.467 0.093-0.17 0.261-0.314 0.395-0.46 0.232-0.251 0.459-0.484 0.763-0.674 0.251-0.159 0.456-0.33 0.645-0.546 0.174-0.198 0.325-0.406 0.474-0.616 0.156-0.222 0.355-0.419 0.52-0.636 0.344-0.454 0.572-0.912 0.736-1.433 0.199-0.631 0.426-1.254 0.544-1.9 0.048-0.264 0.053-0.522 0.051-0.787-0.003-0.28 0.028-0.571-0.010-0.848-0.062-0.456-0.258-0.96-0.5-1.37-0.236-0.401-0.558-0.747-0.926-1.031-0.184-0.141-0.372-0.298-0.583-0.399-0.115-0.054-0.233-0.072-0.355-0.099-0.178-0.040-0.34-0.117-0.506-0.195-0.206-0.098-0.41-0.095-0.63-0.142-0.269-0.060-0.536-0.024-0.804-0.075-0.428-0.081-0.866-0.199-1.184-0.517-0.082-0.081-0.16-0.155-0.221-0.251-0.051-0.079-0.14-0.171-0.17-0.257-0.053-0.142-0.005-0.365-0.008-0.517-0.003-0.166 0.083-0.309 0.16-0.455 0.075-0.141 0.185-0.226 0.323-0.296 0.149-0.073 0.243-0.113 0.412-0.11 0.128 0.001 0.267-0.016 0.394-0.001 0.235 0.027 0.106 0.279 0.233 0.413 0.075 0.079 0.192 0.053 0.214-0.039 0.021-0.083 0.015-0.267 0-0.351-0.033-0.191-0.231-0.413-0.377-0.544-0.123-0.11-0.325-0.174-0.478-0.236-0.199-0.079-0.387-0.004-0.587 0.020-0.416 0.055-0.746 0.345-1.002 0.662-0.138 0.172-0.257 0.356-0.336 0.561-0.077 0.201-0.066 0.402-0.106 0.608-0.035 0.173-0.043 0.327-0.040 0.506 0.003 0.218 0.102 0.329 0.189 0.519 0.076 0.17 0.171 0.295 0.307 0.428 0.066 0.065 0.127 0.138 0.198 0.201 0.075 0.066 0.166 0.092 0.247 0.149 0.164 0.115 0.311 0.262 0.495 0.351 0.195 0.094 0.401 0.155 0.598 0.246 0.478 0.22 1.018 0.257 1.499 0.459z"></path>
<path d="M9.83 25.943c0.072 0.041 0.148 0.076 0.228 0.099 0.167 0.050 0.403-0.012 0.571-0.023 0.257-0.016 0.549-0.127 0.772-0.251 0.069-0.039 0.117-0.086 0.173-0.138 0.202-0.191 0.442-0.334 0.631-0.542 0.233-0.256 0.406-0.529 0.59-0.811 0.145-0.224 0.265-0.421 0.37-0.659 0.058-0.134 0.115-0.224 0.141-0.366 0.039-0.195 0.083-0.384 0.129-0.579 0.108-0.473 0.203-1.027 0.062-1.482-0.133-0.431-0.279-0.858-0.588-1.205-0.090-0.098-0.195-0.221-0.318-0.293-0.097-0.057-0.207-0.073-0.301-0.135-0.083-0.055-0.142-0.099-0.236-0.135-0.156-0.058-0.297-0.104-0.463-0.138-0.2-0.044-0.384-0.127-0.584-0.171-0.185-0.040-0.337-0.102-0.488-0.202-0.17-0.112-0.287-0.254-0.478-0.345-0.334-0.162-0.478-0.39-0.573-0.714-0.104-0.349-0.126-0.685-0.148-1.051-0.016-0.272 0.227-0.532 0.381-0.77 0.083-0.127 0.16-0.244 0.256-0.362 0.032-0.039 0.116-0.13 0.105-0.181-0.015-0.065-0.145-0.097-0.2-0.128-0.080-0.048-0.156-0.097-0.238-0.141-0.070-0.039-0.080-0.063-0.163-0.027-0.065 0.027-0.178 0.128-0.245 0.173-0.185 0.12-0.305 0.195-0.434 0.361-0.093 0.119-0.207 0.214-0.311 0.326-0.117 0.124-0.184 0.287-0.257 0.43-0.055 0.104-0.115 0.201-0.138 0.312-0.021 0.105-0.039 0.204-0.028 0.309 0.011 0.127-0.054 0.246-0.044 0.37 0.008 0.113 0.079 0.242 0.111 0.352 0.040 0.139 0.087 0.254 0.152 0.383 0.058 0.116 0.105 0.232 0.177 0.341 0.094 0.144 0.227 0.228 0.366 0.337 0.333 0.26 0.756 0.413 1.1 0.658 0.341 0.24 0.684 0.475 0.974 0.778 0.073 0.079 0.146 0.155 0.231 0.22 0.142 0.11 0.3 0.201 0.448 0.301 0.152 0.105 0.218 0.239 0.309 0.394 0.087 0.149 0.17 0.303 0.267 0.445 0.091 0.131 0.144 0.243 0.191 0.396 0.061 0.198 0.057 0.315-0.004 0.507-0.062 0.196-0.116 0.373-0.211 0.555-0.116 0.221-0.133 0.454-0.298 0.654-0.198 0.236-0.416 0.38-0.687 0.503-0.191 0.087-0.415 0.128-0.616 0.188-0.155 0.047-0.318 0.081-0.466 0.148-0.086 0.039-0.16 0.090-0.256 0.091-0.258 0.004-0.507-0.192-0.578-0.434-0.072-0.246-0.099-0.479-0.051-0.735 0.041-0.227 0.102-0.379 0.216-0.572-0.14 0.121-0.26 0.222-0.381 0.365-0.138 0.166-0.294 0.244-0.296 0.486-0.001 0.244 0.108 0.49 0.178 0.724 0.025 0.081 0.039 0.184 0.081 0.256 0.018 0.031 0.053 0.045 0.073 0.084 0.019 0.035 0.024 0.083 0.034 0.121 0.026 0.092 0.046 0.197 0.095 0.28 0.024 0.040 0.055 0.062 0.075 0.108 0.015 0.039 0.011 0.087 0.032 0.123 0.093 0.165 0.264 0.209 0.406 0.314 0.050 0.039 0.101 0.072 0.155 0.102z"></path>
<path d="M9.262 9.586c0.011 0.047 0.028 0.095 0.037 0.135 0.053 0.218 0.047 0.488 0.134 0.695 0.094 0.222 0.264 0.351 0.485 0.445 0.14 0.060 0.245 0.145 0.399 0.175 0.151 0.031 0.311 0.031 0.464 0.027 0.314-0.016 0.716-0.206 0.859-0.499 0.051-0.105 0.070-0.347 0.011-0.448-0.061-0.107-0.236-0.098-0.276-0.192-0.013-0.027 0.007-0.091 0-0.124-0.008-0.031-0.040-0.041-0.048-0.076-0.021-0.086 0.016-0.157-0.029-0.243 0.097-0.039 0.195 0.016 0.287 0.043 0.113 0.031 0.228 0.040 0.336 0.084 0.222 0.092 0.383 0.182 0.535 0.374 0.22 0.28 0.106 0.741-0.13 1-0.332 0.37-0.829 0.467-1.285 0.573-0.59 0.137-1.29 0.027-1.854-0.182-0.28-0.105-0.598-0.247-0.774-0.508-0.12-0.178-0.177-0.453-0.22-0.663-0.047-0.236-0.087-0.432-0.086-0.677 0.001-0.154-0.025-0.305-0.024-0.459 0-0.063-0.007-0.168 0.032-0.222 0.016-0.027 0.046-0.012 0.064-0.027 0.050-0.051 0.095-0.11 0.123-0.184 0.111-0.298 0.134-0.624 0.254-0.922 0.088-0.221 0.227-0.421 0.337-0.631 0.095-0.178 0.2-0.298 0.372-0.408 0.243-0.159 0.43-0.365 0.687-0.499 0.218-0.116 0.454-0.315 0.696-0.358 0.235-0.043 0.515-0.016 0.757-0.024 0.222-0.008 0.384 0.054 0.6 0.098 0.207 0.045 0.374 0.027 0.56 0.135 0.090 0.051 0.192 0.075 0.279 0.12s0.109 0.117 0.155 0.204c0.024 0.044 0.068 0.094 0.087 0.135 0.055 0.13 0.122 0.265 0.181 0.401 0.072 0.16 0.16 0.33 0.209 0.496 0.031 0.106 0.059 0.348 0.026 0.45-0.043-0.027-0.041-0.102-0.073-0.146-0.059-0.080-0.146-0.144-0.207-0.228-0.126-0.173-0.278-0.264-0.463-0.365-0.188-0.104-0.388-0.249-0.595-0.298-0.159-0.040-0.264-0.165-0.435-0.167-0.231-0.004-0.49 0.016-0.709 0.079-0.511 0.148-1.027 0.551-1.292 1.011-0.184 0.316-0.359 0.659-0.395 1.029-0.016 0.166 0.022 0.282 0.059 0.435 0.008 0.035 0.032 0.135 0.010 0.166-0.026 0.031-0.047-0.003-0.075 0.020-0.041 0.031-0.054 0.027-0.069 0.087-0.011 0.040-0.007 0.086 0.004 0.131z"></path>
<path d="M10.352 14.53c-0.175-0.020-0.333-0.035-0.502-0.099-0.177-0.068-0.355-0.138-0.54-0.174-0.086-0.016-0.182-0.004-0.264-0.024-0.084-0.020-0.164-0.095-0.236-0.139-0.145-0.091-0.294-0.177-0.457-0.229-0.189-0.058-0.362-0.177-0.544-0.258-0.158-0.070-0.268-0.098-0.432-0.131-0.238-0.048-0.478-0.039-0.725-0.039-0.174 0-0.349-0.004-0.524-0.003-0.191 0.003-0.344 0.066-0.508 0.162-0.296 0.171-0.486 0.387-0.712 0.642-0.185 0.21-0.286 0.489-0.416 0.735-0.108 0.203-0.146 0.421-0.199 0.647-0.058 0.257-0.048 0.508-0.048 0.77 0 0.189-0.007 0.326 0.122 0.486 0.083 0.104 0.191 0.183 0.275 0.286 0.095 0.117 0.169 0.253 0.263 0.369 0.053 0.065 0.112 0.128 0.184 0.171 0.048 0.027 0.112 0.040 0.153 0.073-0.12-0.084-0.232-0.275-0.293-0.41-0.088-0.198-0.099-0.427-0.108-0.641-0.005-0.206-0.043-0.434 0.026-0.634 0.050-0.146 0.14-0.269 0.174-0.423 0.053-0.222 0.076-0.432 0.225-0.62 0.232-0.294 0.544-0.575 0.915-0.691 0.196-0.061 0.441-0.043 0.64 0.008 0.098 0.024 0.206 0.039 0.301 0.070 0.141 0.050 0.246 0.175 0.384 0.243 0.196 0.094 0.402 0.213 0.58 0.341 0.091 0.065 0.159 0.166 0.236 0.244 0.105 0.104 0.231 0.128 0.33 0.221 0.225 0.206 0.595 0.271 0.891 0.232 0.108-0.016 0.2-0.070 0.307-0.090 0.156-0.031 0.327-0.012 0.488-0.012 0.137 0 0.274-0.004 0.41-0.001 0.142 0.003 0.28 0.050 0.423 0.050 0.122 0.003 0.239-0.027 0.358-0.045 0.123-0.020 0.282-0.087 0.396-0.138 0.14-0.061 0.307-0.109 0.421-0.212 0.109-0.095 0.202-0.209 0.33-0.298 0.134-0.094 0.352-0.181 0.439-0.323 0.075-0.121 0.047-0.291 0.047-0.427 0-0.107 0.011-0.218 0.003-0.325-0.007-0.094-0.048-0.182-0.055-0.276-0.011-0.177 0.008-0.367-0.119-0.507-0.138-0.154-0.218-0.287-0.41-0.372-0.084-0.039-0.131-0.045-0.222-0.048-0.090-0.003-0.171-0.039-0.256-0.041-0.065-0.001-0.164 0.035-0.231 0.054-0.072 0.020-0.14 0.027-0.213 0.043-0.028 0.008-0.209 0.081-0.224 0.103-0.080 0.121 0.181 0.088 0.238 0.099 0.129 0.027 0.28 0.065 0.399 0.123 0.105 0.050 0.221 0.141 0.297 0.213 0.050 0.047 0.137 0.126 0.175 0.196 0.059 0.112-0.026 0.275-0.099 0.37-0.051 0.068-0.126 0.112-0.177 0.177-0.039 0.047-0.055 0.104-0.094 0.151-0.189 0.228-0.507 0.145-0.753 0.244-0.086 0.031-0.145 0.098-0.225 0.142-0.251 0.141-0.543-0.004-0.804-0.035-0.014 0-0.028-0.003-0.040-0.004z"></path>
<path d="M25.153 20.077c-0.010 0.001-0.021 0.004-0.029 0.004 0.053-0.058 0.066-0.138 0.090-0.213 0.039-0.12 0.088-0.225 0.14-0.34 0.072-0.156 0.087-0.329 0.146-0.49 0.059-0.163 0.128-0.337 0.211-0.497 0.076-0.148 0.155-0.298 0.227-0.448 0.12-0.254 0.213-0.542 0.341-0.793 0.026-0.054 0.051-0.061 0.065-0.119 0.011-0.052-0.001-0.123-0.001-0.177-0.001-0.185 0.011-0.363-0.037-0.546-0.048-0.189-0.095-0.398-0.16-0.582-0.043-0.121-0.135-0.26-0.207-0.369-0.062-0.094-0.144-0.165-0.238-0.225-0.053-0.012-0.098-0.035-0.138-0.070-0.037-0.051-0.079-0.101-0.124-0.145-0.175-0.121-0.435-0.195-0.642-0.192-0.127 0.001-0.258-0.016-0.385 0.008-0.101 0.020-0.198 0.062-0.3 0.081-0.117 0.020-0.203 0.001-0.315 0.053-0.142 0.065-0.269 0.146-0.415 0.204-0.265 0.105-1.004 0.493-0.692 0.881 0.051 0.065 0.101 0.116 0.148 0.185 0.039 0.054 0.094 0.135 0.17 0.123-0.141-0.004-0.239 0.058-0.38 0.050-0.151-0.008-0.329-0.080-0.459-0.16-0.199-0.12-0.249-0.369-0.323-0.573-0.069-0.195-0.12-0.468-0.004-0.656 0.185-0.297 0.535-0.513 0.833-0.678 0.365-0.206 0.741-0.405 1.155-0.5 0.351-0.079 0.703-0.057 1.061-0.060 0.298-0.004 0.659 0.020 0.928 0.155 0.13 0.065 0.26 0.13 0.352 0.246 0.054 0.068 0.087 0.154 0.149 0.215 0.13 0.124 0.261 0.167 0.354 0.329 0.17 0.298 0.338 0.597 0.444 0.92 0.12 0.37 0.169 0.728 0.167 1.119 0 0.235 0.022 0.478-0.001 0.71-0.021 0.191-0.105 0.385-0.159 0.569-0.040 0.145-0.131 0.282-0.199 0.416-0.081 0.16-0.113 0.341-0.233 0.474-0.224 0.247-0.43 0.525-0.696 0.734-0.153 0.117-0.283 0.253-0.431 0.369-0.142 0.11-0.329 0.174-0.504 0.215-0.001-0.008-0.003-0.020-0.005-0.027z"></path>
</svg>
