<!-- Generated by IcoMoon.io -->
<svg version="1.1" xmlns="http://www.w3.org/2000/svg" width="32" height="32" viewBox="0 0 32 32">
<title>elder_thing</title>
<path d="M22.075 3c-2.32 0-2.291 1.751-1.348 2.359-0.313 1.217-0.642 2.4-1.307 3.411-0.477 0.233-0.779 0.785-1.183 1.285-0.857 0.728-1.819 0.779-2.938-0.166-0.683-0.841-1.586-1.501-1.837-2.5 0.045-0.552-0.448-0.671-0.636-0.956 0.937-1.859-0.546-2.426-0.972-2.375-1.45 0.198-1.661 1.933-0.557 2.774-0.313 1.671 0.495 2.314 0.517 2.717 0.268 1.273 2.132 2.741 2.206 3.008 0.546 0.795 0.21 0.562-0.221 0.221-0.575-0.591-1.359-0.853-1.876-1.557-0.552-1.035-1.257-0.763-1.905-1.001-0.456-0.041-0.444 0.029-0.773-0.239-0.45-0.358-1.205-0.603-1.547-0.91-0.262-0.25-0.25-0.221-0.204-0.569-0.115-1.706-2.138-1.364-2.365-0.671-0.712 1.007 0.493 2.201 1.096 2.32 0.614 0.784 2.558 3.071 4.515 3.679 0.489 0.033 0.632 0.546 0.835 0.669l-0 0c-1.143 3.077-2.563 6.664-1.944 10.444 0.033 0.54-0.073 0.734 0.665 1.33l5.833 5.725 6.391-6.334c0.272-0.131 0.313-0.386 0.221-0.722 0.199-4.503-1.131-9.005-1.5-9.278-0.403-0.579 0.319-0.898 0.886-1.279 1.273 0.004 4.298-2.461 4.64-2.416 0.386-0.523 0.755-0.972 1.233-1.301 0.301-0.223 0.125-0.336 0.843-0.268 1.346-0.784 0.971-2.416 0.397-2.899-1.307-0.745-2.598 0.147-2.302 1.79-0.456 0.37-1.962 1.246-3.564 1.445-0.802 0.102-1.592 0.619-1.729 0.704-0.677 0.096-1.092 0.206-1.404 0.892-0.278 0.199-0.483 0.188-0.722 0.608-0.194-0.728 0.456-1.142 0.779-1.551 1.189-1.518 1.911-3.366 2.001-5.669 0.843-0.204 1.485-2.559-0.221-2.723zM2.409 14.172c0.671 2.433 0.728 4.747 0.524 7.003 1.119 1.001 2.359 1.723 2.751 4.401 0.984-1.001 1.694-1.461 2.332-1.768-0.217-3.304 0.466-4.724 0.835-6.805-2.091-0.528-4.133-0.278-6.442-2.831zM29.795 14.189c-2.314 2.547-4.354 2.302-6.447 2.831 0.37 2.075 1.052 3.502 0.835 6.8 0.637 0.307 1.348 0.767 2.332 1.768 0.392-2.678 1.631-3.394 2.751-4.395-0.198-2.263-0.147-4.571 0.53-7.003z"></path>
</svg>
