<!-- Generated by IcoMoon.io -->
<svg version="1.1" xmlns="http://www.w3.org/2000/svg" width="33" height="32" viewBox="0 0 33 32">
<title>eoe_campaign</title>
<path d="M4.692 22.766c0 0-0.005-0.005-0.005-0.005s0 0 0 0c0.005 0 0.005 0.005 0.005 0.005zM30.814 18.376c-0.076 0.131-0.104 0.273-0.191 0.398-0.185 0.273-0.36 0.584-0.611 0.807-0.191 0.175-0.414 0.278-0.622 0.431-0.164 0.121-0.338 0.245-0.523 0.343-0.038 0.022-0.082 0.032-0.12 0.054-0.060 0.039-0.115 0.11-0.169 0.158-0.082 0.076-0.158 0.153-0.234 0.229-0.224 0.235-0.414 0.496-0.633 0.731-0.213 0.224-0.436 0.431-0.665 0.627-0.147 0.125-0.3 0.229-0.453 0.349-0.055 0.049-0.098 0.11-0.158 0.147-0.044 0.028-0.082 0.028-0.125 0.049-0.044 0.028-0.082 0.065-0.125 0.093-0.076 0.043-0.164 0.065-0.24 0.121-0.065 0.043-0.109 0.11-0.164 0.175-0.376 0.414-0.676 0.916-1.123 1.26-0.153 0.121-0.289 0.24-0.453 0.344-0.104 0.065-0.213 0.121-0.316 0.185-0.153 0.087-0.267 0.207-0.398 0.322-0.109 0.093-0.24 0.196-0.36 0.278-0.093 0.060-0.207 0.076-0.316 0.104-0.218 0.049-0.442 0.076-0.654 0.147-0.005 0.065-0.027 0.076-0.060 0.11-0.087-0.011-0.196 0-0.251 0.005-0.016 0.104-0.055 0.131-0.147 0.175-0.185 0.099-0.376 0.202-0.551 0.316-0.196 0.125-0.376 0.256-0.589 0.36-0.169 0.076-0.349 0.121-0.513 0.196-0.393 0.185-0.791 0.382-1.222 0.458-0.256 0.043-0.469 0.093-0.709 0.191-0.093 0.043-0.191 0.076-0.289 0.097-0.071-0.028-0.131-0.065-0.18-0.121-0.109-0.087-0.065-0.043-0.125 0.017-0.098 0.114-0.398 0.11-0.529 0.11-0.213 0-0.414 0-0.622 0.028-0.093 0.011-0.18 0.011-0.273 0.005-0.044 0-0.065-0.017-0.104-0.028-0.098-0.005-0.191-0.011-0.289-0.017-0.093-0.011-0.185-0.022-0.278-0.028-0.12-0.005-0.284 0.032-0.398-0.005 0.005-0.054-0.016-0.082-0.060-0.097-0.033-0.011-0.115-0.005-0.147-0.011-0.213-0.028-0.425-0.076-0.638-0.121-0.109-0.022-0.196-0.032-0.289-0.093-0.071-0.043-0.147-0.049-0.224-0.087-0.251-0.125-0.42-0.409-0.605-0.605s-0.458-0.213-0.709-0.289c-0.305-0.097-0.605-0.235-0.911-0.333-0.18-0.054-0.349-0.054-0.534-0.054-0.534 0.011-1.063-0.043-1.598-0.032-0.338 0.011-0.551-0.169-0.807-0.354-0.289-0.218-0.567-0.447-0.873-0.644-0.125-0.082-0.207-0.185-0.305-0.289-0.125-0.121-0.316-0.213-0.48-0.262-0.136-0.043-0.262-0.054-0.354-0.169-0.076-0.097-0.131-0.175-0.234-0.251-0.131-0.099-0.251-0.251-0.393-0.327-0.12-0.060-0.24-0.076-0.354-0.158-0.142-0.104-0.284-0.289-0.458-0.343-0.033-0.011-0.060 0-0.098-0.017-0.055-0.028-0.12-0.097-0.169-0.169 0.027 0.022 0.060 0.039 0.087 0.060 0.027-0.032 0.044-0.076 0.065-0.11 0.082-0.153 0.185-0.278 0.295-0.409 0.202-0.24 0.404-0.474 0.562-0.742 0.213-0.349 0.371-0.731 0.605-1.053 0.093-0.136 0.169-0.284 0.185-0.447 0.011-0.147 0.131-0.251 0.234-0.344 0.049-0.049 0.131-0.087 0.18-0.136 0.076-0.093 0.093-0.284 0.142-0.393 0.115-0.24 0.278-0.464 0.387-0.709 0.185-0.404 0.267-0.845 0.42-1.26 0.049-0.142 0.093-0.305 0.202-0.414 0.027-0.032 0.065-0.065 0.093-0.093 0.076-0.082 0.131-0.164 0.185-0.251 0.131-0.207 0.284-0.398 0.425-0.6 0.158-0.218 0.327-0.425 0.518-0.622 0.234-0.245 0.48-0.491 0.687-0.758 0.131-0.169 0.245-0.333 0.284-0.551 0.022-0.114 0.038-0.229 0.076-0.338 0.115-0.305 0.382-0.562 0.589-0.807 0.234-0.273 0.524-0.48 0.753-0.758 0.213-0.251 1.783-2.776 2.519-3.883l0.147 0.104c-0.354 0.714-0.911 1.729-0.671 1.418-0.082 0.164-0.213 0.305-0.311 0.453-0.333 0.491-0.584 1.014-0.845 1.543-0.065 0.142-0.115 0.289-0.164 0.436s-0.125 0.284-0.147 0.436c0.109-0.071 0.218-0.229 0.294-0.311 0.24-0.273 0.496-0.518 0.769-0.764 0.164-0.153 0.485-0.829 0.687-0.932 0.044-0.022 1.009-1.020 1.042-1.003-0.071 0.087-0.267 0.769-0.316 0.867-0.142 0.284-0.305 0.436-0.414 0.742-0.038 0.11-0.065 0.573-0.551 1.123-0.169 0.191-0.474 0.66-0.534 0.9-0.049 0.175-0.136 0.327-0.202 0.491-0.055 0.131-0.098 0.273-0.164 0.398-0.049 0.093-0.093 0.169-0.131 0.267-0.033 0.093-0.305 0.633-0.42 0.769 0.153-0.153 0.567-0.616 0.709-0.709 0.267-0.175 0.469-0.425 0.72-0.616 0.202-0.158 0.867-1.271 1.096-1.391 0.022 0.076 0.344-0.42-0.245 1.56-0.071 0.24-0.431 0.218-0.469 0.458-0.027 0.164-0.071 0.311-0.109 0.469-0.044 0.169-0.049 0.344-0.093 0.507-0.065 0.245-0.115 0.485-0.185 0.731-0.049 0.18-0.147 0.327-0.213 0.502s-0.098 0.349-0.158 0.529c-0.033 0.093-0.076 0.185-0.109 0.278-0.022 0.076-0.027 0.158-0.049 0.235-0.022 0.065-0.044 0.131-0.071 0.196 0.087-0.142 0.191-0.267 0.284-0.398 0.071 0.028 0.071 0.087 0.005 0.18-0.087 0.218-0.164 0.442-0.245 0.665-0.125 0.414-0.213 0.84-0.305 1.265-0.055 0.262-0.098 0.529-0.164 0.791-0.049 0.196-0.109 0.387-0.169 0.584-0.071 0.076-0.076 0.136-0.022 0.18 0.305-0.333 0.66-0.616 0.965-0.954 0.098-0.114 0.207-0.218 0.322-0.316 0.289-0.229 0.545-0.474 0.796-0.742 0.207-0.218 0.42-0.425 0.638-0.627 0.234-0.218 0.447-0.458 0.633-0.714 0.011 0.043 0.022 0.082 0.033 0.125 0.055-0.060 0.115-0.099 0.164-0.153 0.049-0.060 0.087-0.125 0.131-0.185 0.109-0.142 0.202-0.3 0.333-0.425 0.115-0.11 0.24-0.245 0.333-0.371 0.071-0.11 0.136-0.218 0.234-0.305 0.142-0.125 0.262-0.267 0.387-0.409 0.12-0.142 0.262-0.245 0.376-0.393 0.136-0.169 0.278-0.333 0.393-0.524 0.044-0.071 0.087-0.153 0.136-0.224 0.038-0.060 0.633-0.654 0.665-0.714 0.142-0.017-0.453 0.922-0.447 0.998 0 0.164-0.071 0.322-0.164 0.453 0.060-0.005 0.098-0.049 0.142-0.093 0.142-0.125 0.289-0.262 0.431-0.387 0.229-0.202 0.48-0.382 0.709-0.584 0.098-0.093 0.185-0.202 0.311-0.267 0.115-0.065 0.24-0.442 0.333-0.54 0.867-0.894 1.483-1.554 1.592-1.521 0.136 0.039-1.134 2.012-1.167 2.083-0.049 0.087-0.005 0.093-0.005 0.185 0 0.11-0.065 0.224-0.076 0.333-0.011 0.114-0.044 0.202-0.071 0.316 0.071 0.039 0.278-0.185 0.294-0.202 0.273-0.251 0.518-0.529 0.807-0.758 0.136-0.104 0.72-0.916 0.878-0.987 0.027 0.076-0.453 0.905-0.453 0.982v0.36c0 0.087 0.016 0.196 0.005 0.284s-0.065 0.169-0.098 0.251c-0.022 0.065-0.055 0.114-0.071 0.18-0.022 0.114-0.087 0.196-0.125 0.305-0.060 0.164-0.093 0.349-0.142 0.518-0.038 0.131-0.093 0.245-0.142 0.371-0.027 0.087-0.044 0.18-0.076 0.267-0.055 0.131-0.136 0.24-0.202 0.36s-0.082 0.251-0.153 0.371c-0.055 0.099-0.082 0.175-0.115 0.284-0.016 0.060-0.071 0.136-0.055 0.196 0.082-0.147 0.191-0.245 0.3-0.376 0.24-0.278 0.474-0.578 0.709-0.862 0.251-0.305 0.496-0.611 0.731-0.927 0.18-0.245 0.376-0.491 0.545-0.747 0.027-0.039 0.055-0.082 0.082-0.121s0.082-0.125 0.12-0.136c0.011 0.158-0.12 0.338-0.153 0.491-0.022 0.087-0.060 0.213 0.027 0.262 0.060 0.039 0.24 0.011 0.289 0.011 0.18-0.005 0.349-0.028 0.513-0.097 0.055-0.028 0.125-0.093 0.185-0.054 0.065 0.039 0.027 0.251 0.038 0.305-0.011 0.043 0.005 0.071 0.044 0.093 0.082 0 0.164-0.005 0.245-0.011 0.125-0.028 0.251-0.071 0.376-0.104 0.12-0.028 0.18-0.071 0.251 0.022 0.153 0.185 0.229 0.442 0.436 0.578 0.262 0.169 0.6 0.104 0.894 0.131 0.044 0.273 0.153 0.529 0.213 0.796 0.005 0.032 0.022 0.071 0.027 0.104 0.005 0.028 0 0.087 0.005 0.104 0.038 0.104 0.24 0 0.294-0.039 0.251-0.186 0.567-0.365 0.862-0.458 0.185-0.060 0.398-0.121 0.594-0.125 0.071-0.005 0.115-0.005 0.164 0.032 0.109 0.076 0.12 0.207 0.142 0.327 0.027 0.175 0.060 0.338 0.060 0.513 0 0.076-0.016 0.48 0.12 0.425 0.044-0.022 0.082-0.087 0.12-0.121 0.060-0.054 0.131-0.097 0.202-0.136 0.18-0.097 0.344-0.114 0.551-0.136 0.055-0.005 0.125 0 0.174-0.017 0.060-0.017 0.055-0.028 0.131-0.028 0.087 0 0.158 0.005 0.234 0.028 0.060 0.022 0.12 0.039 0.169 0.071 0.038 0.022 0.147 0.039 0.169 0.065-0.011-0.099-0.038-0.164-0.038-0.267 0.005-0.065-0.022-0.11-0.033-0.169-0.005-0.028 0.005-0.049 0-0.071 0-0.039-0.022-0.049-0.027-0.076-0.022-0.087-0.011-0.065-0.065-0.131-0.033-0.032-0.055-0.076-0.087-0.104-0.044-0.039-0.087-0.065-0.131-0.097 0.011 0.005 0.016 0.011 0.033 0.017-0.087-0.104-0.196-0.185-0.273-0.289-0.065-0.082-0.115-0.164-0.185-0.24s-0.158-0.147-0.218-0.24c-0.109-0.175-0.131-0.409-0.147-0.611-0.011-0.087-0.016-0.097-0.065-0.164-0.071-0.087-0.185-0.175-0.311-0.202-0.049-0.011-0.098-0.011-0.153-0.005-0.033-0.043-0.076-0.065-0.147-0.082-0.125-0.022-0.224-0.093-0.333-0.125-0.098-0.032-0.169-0.11-0.245-0.175-0.033-0.028-0.044-0.065-0.071-0.093-0.104-0.11-0.229-0.224-0.344-0.327-0.12-0.104 0.033-0.213-0.060-0.333-0.131-0.18-0.256-0.365-0.349-0.567-0.098 0.017-0.213-0.169-0.256-0.24-0.142-0.207-0.344-0.376-0.464-0.6-0.044-0.076-0.060-0.169-0.104-0.245-0.049-0.087-0.098-0.169-0.147-0.256-0.049-0.076-0.082-0.158-0.125-0.229-0.016-0.028-0.044-0.060-0.065-0.076-0.125-0.11-0.267-0.196-0.382-0.316-0.087-0.093-0.174-0.185-0.262-0.273-0.044-0.043-0.055-0.11-0.093-0.153-0.033-0.039-0.055-0.017-0.093-0.032-0.098-0.043-0.207-0.131-0.284-0.202-0.109-0.104-0.087-0.278-0.115-0.42-0.033-0.18-0.065-0.333-0.158-0.491-0.082-0.147-0.398-0.267-0.551-0.322-0.202-0.071-0.234-0.24-0.294-0.42-0.033-0.097-0.082-0.093-0.18-0.076-0.060 0.011-0.082 0.043-0.104-0.054-0.005-0.039 0.005-0.071 0.005-0.11-0.005-0.121-0.071-0.213-0.115-0.316-0.038-0.104-0.055-0.164-0.131-0.251-0.044-0.054-0.104-0.153-0.158-0.191-0.033-0.022-0.065-0.017-0.087-0.039-0.076-0.082-0.033-0.322-0.033-0.425 0-0.093 0.005-0.158-0.033-0.234-0.071-0.131-0.158-0.164-0.262-0.256-0.055-0.049-0.115-0.093-0.158-0.147-0.065-0.076-0.098-0.158-0.136-0.24-0.060-0.11-0.12-0.11-0.24-0.060-0.093 0.032-0.18 0.060-0.267 0.097 0.038-0.065 0.049-0.262-0.005-0.305-0.082 0.065-0.098 0.218-0.153 0.311-0.038 0.065-0.093 0.099-0.142 0.153-0.044 0.043-0.065 0.104-0.098 0.153-0.076 0.104-0.153 0.207-0.234 0.305-0.038 0.039-0.082 0.071-0.115 0.11-0.071 0.082-0.125 0.169-0.202 0.245-0.060 0.065-0.12 0.131-0.174 0.196-0.011-0.032-0.022-0.060-0.060-0.071-0.076 0.164-0.18 0.305-0.294 0.447-0.071 0.093-0.158 0.185-0.235 0.273-0.093 0.11-0.169 0.218-0.262 0.333-0.087 0.11-0.202 0.18-0.294 0.289-0.065 0.071-0.758 0.851-0.813 0.922-0.022 0.022-0.038 0.039-0.060 0.049-0.027 0.039-0.055 0.076-0.071 0.114-0.049 0.076-0.109 0.136-0.158 0.207-0.115 0.164-0.218 0.338-0.316 0.502-0.033 0.054-0.027 0.039-0.044 0.104-0.016 0.071-0.055 0.071-0.098 0.131-0.038 0.049-0.065 0.131-0.093 0.191-0.071 0.121-0.12 0.229-0.207 0.338-0.125 0.153-0.224 0.311-0.36 0.453-0.185 0.191-0.322 0.425-0.502 0.622-0.349 0.376-0.627 0.823-0.943 1.232-0.12 0.164-0.311 0.431-0.409 0.605-0.087 0.164-0.191 0.322-0.278 0.48-0.109 0.224-0.207 0.442-0.349 0.644-0.158 0.24-0.344 0.469-0.496 0.714 0.060-0.125 0.109-0.251 0.158-0.365 0.065-0.142 0.164-0.262 0.234-0.398 0.060-0.11 0.087-0.235 0.164-0.338 0.098-0.136 0.153-0.316 0.207-0.474 0.033-0.076 0.049-0.164 0.087-0.24 0.033-0.082 0.087-0.153 0.125-0.235 0.071-0.158 0.104-0.327 0.202-0.48 0.12-0.175 0.218-0.365 0.294-0.567 0.164-0.409 0.398-0.785 0.551-1.2 0.098-0.24 0.207-0.469 0.338-0.698 0.016-0.028 0.033-0.054 0.049-0.082 0.022 0.017 0.038 0.039 0.060 0.054 0.136-0.169 0.305-0.305 0.425-0.496 0.131-0.207 0.365-0.354 0.464-0.584 0.049-0.121 0.131-0.224 0.207-0.333 0.060-0.093 0.136-0.175 0.191-0.273 0.038-0.076 0.082-0.153 0.131-0.224 0.049-0.054 0.104-0.104 0.164-0.147 0.125-0.121 0.005-0.393 0.158-0.485 0.005-0.005 0.016-0.011 0.022-0.017 0.011-0.017 0.016-0.028 0.022-0.043 0.256-0.387 0.474-0.791 0.687-1.2-0.022-0.136-0.033-0.278-0.076-0.409-0.016-0.060-0.044-0.11-0.071-0.164-0.033-0.076-0.011-0.125-0.027-0.191-0.027-0.099-0.12-0.147-0.174-0.229-0.027-0.043-0.262 0.131-0.284 0.093-0.104-0.153-0.24-0.289-0.338-0.453-0.027-0.054-0.055-0.121-0.087-0.169-0.044-0.065-0.109-0.099-0.153-0.164-0.055-0.082-0.087-0.18-0.153-0.262-0.049-0.071-0.131-0.121-0.185-0.185-0.082-0.11-0.115-0.267-0.234-0.349-0.065-0.049-0.076-0.022-0.142-0.032-0.136-0.022-0.136-0.169-0.207-0.273-0.038-0.049-0.065-0.087-0.093-0.136-0.076-0.11-0.142-0.218-0.207-0.333-0.011-0.060-0.038-0.097-0.087-0.121-0.065 0.071-0.109 0.164-0.196 0.224-0.185-0.125-0.267-0.305-0.376-0.491-0.027-0.043-0.027-0.076-0.044-0.121-0.022-0.049-0.055-0.087-0.065-0.147-0.011-0.065 0-0.104-0.027-0.164-0.033-0.065-0.065 0.344-0.082 0.273-0.038-0.158-0.104-0.322-0.164-0.48-0.082-0.213-0.136-0.442-0.218-0.654-0.033-0.082-0.038-0.185-0.076-0.267-0.033-0.082-0.076-0.142-0.098-0.229-0.022-0.076-0.033-0.125-0.033-0.207 0.001-0.076 0.028-0.202-0.005-0.273-0.038 0.011-0.055 0.158-0.071 0.207-0.038 0.104-0.109 0.191-0.169 0.278-0.087 0.125-0.169 0.251-0.245 0.382-0.147 0.245-0.267 0.502-0.404 0.752-0.022-0.017-0.038-0.039-0.049-0.054-0.011-0.028-0.005-0.076-0.005-0.104-0.011-0.049-0.022-0.087-0.027-0.125 0.005 0.065 0.011 0.175-0.011 0.121-0.033 0.017-0.060 0.065-0.087 0.097-0.098 0.125-0.18-0.185-0.284-0.065-0.18 0.218-0.387 0.398-0.578 0.605-0.142 0.147-0.284 0.3-0.447 0.425-0.267 0.207-0.513 0.447-0.725 0.709-0.104 0.121-0.213 0.24-0.327 0.349-0.142 0.136-0.344 0.251-0.458 0.414-0.049 0.071-0.087 0.175-0.098 0.267-0.022 0.164 0.044 0.354-0.005 0.518-0.055 0.175-0.185 0.365-0.294 0.507-0.109 0.147-0.245 0.278-0.349 0.436-0.038 0.065-0.044 0.131-0.093 0.196-0.065 0.097-0.158 0.175-0.224 0.273-0.284 0.371-0.594 0.736-0.851 1.134-0.065 0.11-0.082 0.235-0.147 0.344-0.044 0.087-0.109 0.169-0.158 0.251-0.109 0.175-0.234 0.344-0.349 0.518-0.153 0.24-0.305 0.48-0.474 0.709-0.142 0.185-0.289 0.365-0.431 0.545-0.142 0.185-0.278 0.371-0.42 0.551 0.022-0.039 0.038-0.082 0.060-0.114 0.044-0.065 0.098-0.131 0.147-0.196 0.147-0.229 0.191-0.54 0.234-0.796 0.082-0.491 0.164-0.971 0.202-1.462 0-0.060 0.005-0.121 0.016-0.175-0.147 0.136-0.289 0.278-0.425 0.431-0.169 0.18-0.327 0.371-0.496 0.545-0.093 0.125-0.191 0.251-0.278 0.371-0.115 0.158-0.234 0.316-0.354 0.464-0.196 0.24-0.485 0.447-0.665 0.709-0.071 0.11-0.049 0.191-0.044 0.322 0.011 0.147-0.011 0.229-0.104 0.349-0.12 0.158-0.262 0.278-0.387 0.425-0.273 0.327-0.513 0.682-0.769 1.025-0.055 0.076-0.12 0.147-0.185 0.218-0.234 0.256-0.447 0.584-0.616 0.883-0.234 0.42-0.365 0.883-0.578 1.314-0.049 0.093-0.104 0.158-0.158 0.24-0.082 0.121-0.147 0.256-0.224 0.376-0.169 0.284-0.344 0.573-0.534 0.84-0.131 0.185-0.262 0.371-0.393 0.551-0.147 0.213-0.256 0.442-0.404 0.654-0.049 0.071-0.093 0.153-0.136 0.235 0.027 0.175 0.049 0.343 0.082 0.518 0.016 0.065 0.033 0.136 0.049 0.207 0.016 0.017 0.027 0.039 0.033 0.065 0.065 0.218 0.136 0.442 0.213 0.665 0.011 0.005 0.022 0.011 0.033 0.017 0.115 0.082 0.229 0.18 0.3 0.3 0.060 0.11 0.104 0.235 0.164 0.343 0.033 0.11 0.060 0.224 0.087 0.338 0 0.054 0.011 0.104 0.055 0.153 0.055 0.060 0.115 0.104 0.158 0.175 0.060 0.093 0.104 0.147 0.185 0.185 0.142 0.207 0.245 0.447 0.365 0.665 0.12 0.224 0.234 0.453 0.344 0.676 0.185 0.175 0.354 0.36 0.256 0.414 0.055-0.060 0.12-0.104 0.202-0.125 0.131-0.065 0.267-0.121 0.404-0.164 0.093 0.028 0.098 0.142 0.104 0.224 0.011 0.114 0 0.24 0 0.354 0 0.087-0.027 0.218 0.005 0.3 0.104 0.028 0.207 0.017 0.311 0.071 0.098 0.054 0.196 0.147 0.295 0.213 0.087 0.054 0.175 0.114 0.273 0.147 0.060 0.022 0.082 0.022 0.12 0.071 0.044 0.060 0.071 0.131 0.104 0.196 0.038 0.071 0.065 0.125 0.131 0.175 0.256 0.191 0.502 0.425 0.643 0.714 0.049 0.099 0.147 0.202 0.245 0.251 0.136 0.076 0.311 0.093 0.458 0.142 0.049 0.017 0.164 0.043 0.196 0.093-0.033 0.087-0.131 0.235-0.055 0.316 0.033 0.043 0.087 0.039 0.131 0.049 0.082 0.011 0.164 0.028 0.24 0.060 0.115 0.043 0.191 0.114 0.294 0.18 0.158 0.097 0.289 0.224 0.485 0.235 0.218 0.017 0.442-0.032 0.66 0.017 0.125 0.032 0.24 0.099 0.36 0.147 0.098 0.043 0.196 0.065 0.284 0.131 0.098 0.071 0.033 0.136 0.18 0.153 0.093 0.011 0.218-0.005 0.289 0.071 0.076 0.082-0.011 0.191 0.142 0.235 0.076 0.022 0.158 0.005 0.24 0.039 0.065 0.022 0.125 0.071 0.169 0.114 0.076 0.082 0.136 0.153 0.229 0.213 0.18 0.121 0.338 0.349 0.545 0.425 0.196 0.065 0.414 0.060 0.616 0.087 0.082 0.011 0.136 0.028 0.196 0.082 0.18 0.153 0.42 0.076 0.643 0.093 0.055 0.005 0.196 0.011 0.218 0.082 0.005 0.032-0.038 0.076-0.033 0.121 0.005 0.071 0.022 0.065 0.082 0.071 0.055 0 0.125-0.028 0.185-0.032 0.087-0.005 0.175-0.005 0.262-0.005 0.262 0.005 0.524 0.028 0.774-0.032 0.158-0.039 0.305-0.104 0.458-0.153 0.082-0.028 0.093-0.022 0.153 0.005 0.071 0.032 0.164 0.054 0.245 0.082 0.115 0.043 0.213 0.114 0.316 0.169 0.12 0.060 0.24 0.022 0.365 0.043 0.082 0.017 0.169 0.028 0.245 0.049 0.104 0.028 0.196 0.097 0.294 0.114 0.065 0.011 0.136-0.011 0.202-0.028 0.174-0.049 0.344-0.125 0.523-0.158 0.202-0.039 0.398 0.005 0.594-0.028 0.338-0.054 0.578-0.322 0.878-0.447 0.005 0.142 0.016 0.235 0.191 0.185 0.158-0.043 0.316-0.11 0.464-0.185 0.071-0.032 0.093-0.017 0.164-0.022 0.055 0 0.115-0.039 0.174-0.043s0.098-0.011 0.164-0.032c0.087-0.028 0.164-0.065 0.256-0.071 0.174-0.011 0.344-0.039 0.518-0.065 0.229-0.043 0.447-0.121 0.671-0.18 0.087-0.022 0.174-0.022 0.262-0.039 0.136-0.028 0.333-0.191 0.42-0.245 0.234-0.153 0.464-0.305 0.693-0.464 0.131-0.093 0.262-0.185 0.387-0.278 0.065-0.049 0.147-0.136 0.234-0.153 0.038-0.005 0.098 0.028 0.136 0.011 0.065-0.028 0.142-0.18 0.18-0.235 0.093-0.114 0.191-0.235 0.289-0.343 0.174-0.191 0.382-0.327 0.573-0.507 0.136-0.125 0.267-0.251 0.414-0.371 0.065-0.054 0.125-0.104 0.18-0.175 0.24-0.294 0.376-0.644 0.638-0.922 0.109-0.121 0.207-0.24 0.322-0.354 0.093-0.093 0.174-0.229 0.278-0.305 0.076-0.054 0.104-0.049 0.158-0.136 0.087-0.136 0.344 0.065 0.436-0.071 0.18-0.262 0.24-0.796 0.485-0.993 0.125-0.097 0.594 0.005 0.693-0.114 0.060-0.071-0.224-0.338-0.164-0.409 0.071-0.082 0.115-0.175 0.174-0.262 0.136-0.207 0.234-0.447 0.398-0.644 0.038-0.054 0.104-0.099 0.142-0.153 0.027-0.049 0.049-0.121 0.071-0.175 0.044-0.097 0.087-0.218 0.147-0.311 0.082-0.131 0.191-0.175 0.311-0.224 0.076-0.142 0.158-0.278 0.234-0.42 0.109-0.196 0.213-0.387 0.349-0.573 0.065-0.093 0.142-0.185 0.207-0.284 0-0.011 0-0.022 0.005-0.032 0.022-0.060 0.044-0.060 0.076-0.099 0.005-0.005 0.005-0.005 0.005-0.011 0.038-0.060 0.071-0.125 0.098-0.191 0.016-0.043 0.044-0.071 0.076-0.087 0.044-0.11 0.049-0.229 0.049-0.354 0-0.147-0.038-0.284-0.038-0.436 0.005-0.054 0.016-0.136 0-0.185z"></path>
</svg>
