<!-- Generated by IcoMoon.io -->
<svg version="1.1" xmlns="http://www.w3.org/2000/svg" width="33" height="32" viewBox="0 0 33 32">
<title>epic_multiplayer</title>
<path d="M15.092 3.053c-0.062 0.096-0.12 0.195-0.172 0.299-0.028 0.058-0.038 0.122-0.075 0.175-0.027 0.040-0.047 0.053-0.063 0.105-0.034 0.112-0.061 0.23-0.092 0.343-0.025 0.090-0.049 0.152-0.039 0.246 0.011 0.092-0.018 0.188-0.028 0.283-0.044 0.394-0.002 0.914 0.208 1.268 0.079 0.132 0.187 0.238 0.303 0.334 0.107 0.089 0.227 0.16 0.292 0.292 0.058 0.118 0.104 0.216 0.216 0.289 0.135 0.088 0.292 0.076 0.439 0.057 0.223-0.029 0.443-0.099 0.662-0.147 0.268-0.061 0.484-0.153 0.686-0.347 0.092-0.089 0.191-0.177 0.275-0.274 0.084-0.095 0.136-0.214 0.214-0.314 0.151-0.196 0.176-0.502 0.186-0.747 0.004-0.112 0.047-0.21 0.080-0.313 0.051-0.163 0.086-0.346 0.059-0.519-0.021-0.13-0.037-0.232-0.010-0.361 0.056-0.267-0.032-0.528-0.234-0.711-0.121-0.11-0.238-0.226-0.356-0.34s-0.257-0.186-0.407-0.232c-0.162-0.050-0.317-0.122-0.478-0.175-0.102-0.033-0.215-0.002-0.317-0.002-0.105 0-0.194-0.013-0.298 0.010-0.11 0.023-0.198 0.106-0.305 0.13-0.027 0.006-0.055 0.002-0.082 0.007-0.088 0.018-0.178 0.084-0.25 0.136-0.1 0.073-0.176 0.182-0.252 0.281-0.055 0.073-0.109 0.148-0.159 0.224z"></path>
<path d="M14.95 9.193c-0.201 0.073-0.065 0.537-0.062 0.711 0.003 0.151-0.027 0.31-0.046 0.461-0.040 0.311-0.083 0.626-0.054 0.941 0.032 0.348 0.169 0.683 0.179 1.033 0.005 0.201-0.057 0.397-0.031 0.595 0.014 0.105 0.038 0.201 0.038 0.309 0.002 0.333-0.022 0.669-0.030 1.003-0.018 0.669-0.026 1.339-0.018 2.009 0.007 0.552 0.032 1.111 0.247 1.627 0.142 0.341 0.281 0.658 0.3 1.033 0.020 0.415-0.044 0.81 0.089 1.209 0.056 0.17 0.127 0.313 0.137 0.496 0.009 0.149-0.005 0.298 0.005 0.447 0.030 0.411 0.070 0.843 0.209 1.233 0.043 0.119 0.091 0.22 0.106 0.347 0.019 0.164-0.006 0.332-0.001 0.496 0.003 0.12 0.027 0.23 0.047 0.347 0.046 0.292-0.063 0.526-0.092 0.803-0.033 0.317 0.124 0.704 0.19 1.014 0.055 0.259 0.126 0.517 0.12 0.781-0.002 0.107 0.013 0.208 0.057 0.305 0.066 0.147 0.138 0.281 0.192 0.434 0.098 0.278 0.128 0.557 0.199 0.839 0.047 0.184 0.090 0.396 0.164 0.571 0.069 0.164 0.173 0.313 0.246 0.472 0.046 0.1 0.053 0.239 0.077 0.351 0.021 0.093 0.058 0.154 0.091 0.241 0.050 0.135 0.009 0.346 0.137 0.448-0.006-0.098-0.011-0.202 0.009-0.296 0.007-0.032 0.036-0.075 0.044-0.118 0.014-0.072-0.019-0.154-0.003-0.225 0.032-0.147 0.101-0.284 0.114-0.441 0.017-0.185-0.056-0.356-0.059-0.539-0.003-0.158-0.045-0.313-0.054-0.471-0.010-0.162 0.012-0.324 0.004-0.485-0.013-0.251-0.080-0.483-0.012-0.733 0.052-0.192 0.142-0.369 0.179-0.566 0.061-0.319 0.067-0.659 0.063-0.982-0.006-0.507-0.029-1.011-0.017-1.519 0.009-0.376 0.127-0.734 0.115-1.114-0.011-0.398-0.062-0.816-0.113-1.213-0.105-0.828-0.099-1.686-0.028-2.513 0.027-0.317 0.109-0.573 0.194-0.874 0.104-0.374 0.121-0.724 0.112-1.111-0.013-0.509-0.082-1.014-0.127-1.521-0.020-0.223-0.063-0.471-0.026-0.693 0.013-0.078 0.029-0.139 0.025-0.221-0.030-0.536-0.055-1.070-0.074-1.608-0.004-0.142-0.013-0.283-0.029-0.425-0.026-0.228-0.050-0.456-0.067-0.684-0.042-0.6 0.019-1.222 0.088-1.818 0.010-0.084 0.042-0.23-0.013-0.307-0.084-0.115-0.222-0.128-0.382-0.084-0.17 0.047-0.278 0.087-0.457 0.086-0.162 0-0.324 0-0.485 0-0.164 0-0.343 0.017-0.504-0.006-0.109-0.015-0.203-0.022-0.315-0.022-0.173 0-0.347 0-0.521 0-0.076 0-0.162-0.006-0.237 0-0.050 0.003-0.187 0.040 0.079-0.055z"></path>
<path d="M11.637 8.871c0.008 0 0.016-0.004 0.025-0.005 0.135-0.022 0.272-0.032 0.407-0.055 0.109-0.019 0.219-0.058 0.318-0.105 0.158-0.075 0.332-0.107 0.499-0.164 0.213-0.073 0.46-0.097 0.642-0.23 0.148-0.109 0.358-0.149 0.533-0.2 0.256-0.073 0.515-0.126 0.768-0.215 0.229-0.081 0.453-0.15 0.691-0.2 0.153-0.032 0.287-0.087 0.432-0.143 0.113-0.044 0.216-0.043 0.336-0.059 0.181-0.023 0.361-0.086 0.536-0.139 0.212-0.063 0.405-0.052 0.619-0.076 0.234-0.026 0.447-0.1 0.686-0.104 0.090-0.001 0.186 0.011 0.277-0.004 0.106-0.017 0.206-0.075 0.316-0.069 0.082 0.004 0.152 0.054 0.235 0.062 0.069 0.006 0.135-0.015 0.2-0.032 0.357-0.092 0.777-0.174 1.076-0.383 0.105-0.073 0.232-0.083 0.353-0.107 0.119-0.024 0.222-0.062 0.333-0.104 0.054-0.021 0.194-0.071 0.263-0.045 0.056 0.022 0.051 0.060 0.072 0.107 0.045 0.1 0.148 0.192 0.17 0.298 0.027 0.136-0.003 0.296 0.010 0.436 0.013 0.148 0.043 0.293 0.057 0.44 0.029 0.299 0.024 0.629-0.039 0.921-0.017 0.079-0.027 0.155-0.026 0.237 0 0.028 0.016 0.084-0.004 0.106-0.025 0.027-0.213 0.006-0.244 0.005-0.173 0-0.336 0.040-0.507 0.061-0.122 0.014-0.242 0.008-0.362 0.034-0.335 0.071-0.654 0.186-0.996 0.234-0.274 0.040-0.548 0.081-0.821 0.123-0.309 0.048-0.621 0.048-0.93 0.091-0.536 0.073-1.055 0.283-1.58 0.411-0.081 0.019-0.162 0.044-0.242 0.070-0.245 0.080-0.495 0.19-0.756 0.203-0.159 0.008-0.314-0.046-0.473-0.036-0.233 0.016-0.417 0.167-0.639 0.224-0.203 0.051-0.412 0.068-0.619 0.105-0.156 0.028-0.306 0.069-0.465 0.073-0.213 0.005-0.415 0.072-0.624 0.061-0.106-0.005-0.206 0.025-0.3 0.072-0.064 0.032-0.145 0.090-0.218 0.102-0.077 0.013-0.131-0.027-0.197-0.061-0.122-0.061-0.261-0.13-0.333-0.25-0.044-0.074-0.014-0.111 0.010-0.194 0.027-0.095 0.021-0.236 0.069-0.321 0.019-0.032 0.040-0.029 0.059-0.062 0.026-0.044 0.030-0.122 0.043-0.172 0.058-0.222 0.124-0.441 0.192-0.661 0.037-0.118 0.031-0.245 0.15-0.279z"></path>
<path d="M6.507 9.836c-0.062 0.096-0.12 0.195-0.172 0.299-0.028 0.058-0.038 0.122-0.075 0.175-0.027 0.040-0.047 0.053-0.063 0.105-0.034 0.112-0.061 0.23-0.092 0.343-0.025 0.090-0.049 0.152-0.039 0.246 0.011 0.092-0.018 0.188-0.028 0.283-0.044 0.394-0.002 0.914 0.208 1.268 0.079 0.132 0.186 0.238 0.303 0.334 0.107 0.089 0.227 0.16 0.292 0.292 0.058 0.118 0.104 0.216 0.216 0.289 0.134 0.088 0.291 0.076 0.438 0.057 0.222-0.029 0.443-0.099 0.662-0.147 0.268-0.061 0.484-0.153 0.686-0.347 0.092-0.089 0.191-0.177 0.275-0.274 0.084-0.095 0.136-0.214 0.214-0.314 0.151-0.196 0.176-0.502 0.186-0.747 0.004-0.112 0.047-0.21 0.080-0.313 0.051-0.163 0.086-0.346 0.059-0.519-0.021-0.13-0.037-0.232-0.010-0.361 0.056-0.267-0.032-0.528-0.234-0.711-0.121-0.11-0.238-0.226-0.356-0.34s-0.257-0.186-0.407-0.232c-0.162-0.050-0.317-0.122-0.478-0.175-0.101-0.033-0.215-0.003-0.317 0-0.105 0-0.194-0.013-0.298 0.010-0.11 0.023-0.198 0.106-0.305 0.13-0.027 0.006-0.054 0.003-0.082 0.007-0.088 0.019-0.178 0.084-0.25 0.136-0.1 0.073-0.176 0.182-0.252 0.281-0.055 0.073-0.109 0.148-0.159 0.224z"></path>
<path d="M6.369 16.023c-0.038 0.003-0.074 0.007-0.11 0.012-0.579 0.076-0.081 0.624 0.076 0.886 0.164 0.272 0.23 0.522 0.275 0.833 0.063 0.426 0.185 0.842 0.217 1.273 0.030 0.404 0.040 0.81 0.062 1.215 0.035 0.623 0.172 1.224 0.221 1.843 0.018 0.22 0.012 0.476 0.117 0.677 0.066 0.128 0.227 0.222 0.311 0.34 0.252 0.353 0.178 0.863 0.171 1.269-0.004 0.245-0.018 0.484 0.062 0.72 0.077 0.227 0.183 0.442 0.26 0.669 0.062 0.18 0.135 0.405 0.163 0.596 0.018 0.133 0.010 0.266 0.037 0.398 0.031 0.147 0.115 0.275 0.141 0.422-0.009-0.104-0.004-0.209-0.004-0.313-0.001-0.132-0.014-0.273 0.009-0.405 0.026-0.146 0.106-0.27 0.156-0.41 0.093-0.265 0.141-0.547 0.205-0.82 0.054-0.226 0.069-0.465 0.071-0.697 0.002-0.183-0.033-0.392 0.002-0.571 0.054-0.266 0.062-0.536 0.099-0.806 0.039-0.293 0.12-0.569 0.203-0.851 0.053-0.179 0.114-0.414 0.122-0.602 0.031-0.602-0.019-1.221-0.019-1.825 0-0.339 0.003-0.671-0.035-1.009-0.026-0.228-0.050-0.456-0.067-0.685-0.042-0.599 0.019-1.222 0.088-1.817 0.010-0.085 0.042-0.23-0.013-0.307-0.084-0.116-0.222-0.129-0.382-0.084-0.17 0.047-0.278 0.087-0.457 0.086-0.162-0.003-0.324 0-0.486 0-0.164 0-0.343 0.016-0.504-0.006-0.304-0.043-0.671-0.061-0.989-0.032z"></path>
<path d="M3.051 15.655c0.008 0 0.016-0.004 0.025-0.005 0.135-0.022 0.272-0.032 0.407-0.055 0.109-0.019 0.219-0.058 0.318-0.105 0.158-0.075 0.332-0.107 0.499-0.164 0.213-0.073 0.46-0.097 0.642-0.23 0.148-0.109 0.358-0.15 0.533-0.2 0.256-0.073 0.515-0.126 0.768-0.215 0.229-0.081 0.453-0.15 0.691-0.2 0.153-0.032 0.287-0.087 0.432-0.143 0.113-0.044 0.216-0.043 0.336-0.059 0.181-0.023 0.361-0.086 0.536-0.139 0.212-0.063 0.405-0.052 0.619-0.076 0.234-0.026 0.447-0.1 0.686-0.104 0.090 0 0.186 0.011 0.277-0.004 0.106-0.017 0.206-0.075 0.316-0.069 0.082 0.004 0.152 0.054 0.235 0.062 0.069 0.006 0.135-0.015 0.2-0.032 0.357-0.092 0.777-0.174 1.076-0.383 0.105-0.073 0.232-0.083 0.353-0.107 0.119-0.024 0.222-0.062 0.333-0.104 0.054-0.021 0.194-0.071 0.263-0.045 0.056 0.022 0.051 0.060 0.072 0.107 0.045 0.1 0.148 0.192 0.17 0.298 0.027 0.136-0.003 0.296 0.010 0.436 0.013 0.148 0.043 0.293 0.057 0.44 0.029 0.299 0.024 0.629-0.039 0.921-0.017 0.079-0.027 0.155-0.026 0.237 0 0.028 0.016 0.084-0.004 0.106-0.025 0.027-0.213 0.006-0.244 0.005-0.173 0-0.336 0.041-0.507 0.061-0.122 0.014-0.242 0.008-0.362 0.034-0.335 0.071-0.654 0.186-0.996 0.234-0.274 0.040-0.548 0.081-0.821 0.123-0.309 0.048-0.621 0.048-0.93 0.092-0.536 0.073-1.054 0.283-1.58 0.411-0.081 0.019-0.162 0.044-0.242 0.070-0.245 0.080-0.495 0.19-0.756 0.203-0.159 0.008-0.314-0.046-0.473-0.036-0.233 0.016-0.417 0.167-0.639 0.224-0.203 0.051-0.412 0.068-0.619 0.105-0.156 0.028-0.306 0.069-0.465 0.073-0.213 0.005-0.415 0.072-0.624 0.061-0.106-0.005-0.206 0.025-0.3 0.072-0.064 0.032-0.145 0.090-0.218 0.102-0.076 0.013-0.131-0.027-0.197-0.061-0.122-0.061-0.261-0.13-0.333-0.25-0.044-0.074-0.014-0.111 0.010-0.194 0.027-0.095 0.021-0.236 0.069-0.321 0.019-0.032 0.040-0.029 0.059-0.062 0.026-0.044 0.030-0.122 0.043-0.172 0.058-0.222 0.124-0.442 0.192-0.661 0.037-0.118 0.031-0.245 0.15-0.279z"></path>
<path d="M26.024 7.92c0.062 0.096 0.12 0.195 0.172 0.299 0.028 0.058 0.038 0.122 0.075 0.175 0.027 0.040 0.047 0.053 0.063 0.105 0.034 0.112 0.061 0.23 0.092 0.343 0.025 0.090 0.049 0.152 0.039 0.246-0.011 0.092 0.018 0.188 0.028 0.283 0.044 0.394 0.002 0.914-0.208 1.268-0.079 0.132-0.187 0.238-0.303 0.334-0.107 0.089-0.227 0.16-0.292 0.292-0.058 0.118-0.104 0.216-0.216 0.289-0.134 0.088-0.291 0.076-0.438 0.057-0.223-0.029-0.443-0.099-0.662-0.147-0.268-0.061-0.484-0.153-0.686-0.347-0.092-0.089-0.191-0.177-0.275-0.274-0.084-0.095-0.136-0.214-0.214-0.314-0.151-0.196-0.176-0.502-0.186-0.747-0.004-0.112-0.047-0.21-0.080-0.313-0.051-0.163-0.086-0.346-0.059-0.519 0.021-0.13 0.037-0.232 0.010-0.361-0.056-0.267 0.032-0.528 0.234-0.711 0.121-0.11 0.238-0.226 0.356-0.34s0.257-0.186 0.407-0.232c0.162-0.050 0.317-0.122 0.478-0.175 0.101-0.033 0.215-0.003 0.317-0.002 0.105 0 0.194-0.013 0.298 0.010 0.11 0.023 0.198 0.106 0.305 0.13 0.027 0.006 0.055 0.002 0.082 0.007 0.088 0.018 0.178 0.084 0.25 0.136 0.1 0.073 0.176 0.182 0.252 0.281 0.055 0.073 0.109 0.148 0.159 0.224z"></path>
<path d="M26.167 14.062c0.223 0.082 0.073 0.609 0.054 0.777-0.041 0.354-0.125 0.691-0.133 1.052-0.003 0.173-0.064 0.292-0.101 0.452-0.029 0.126-0.003 0.255-0.006 0.383-0.006 0.218-0.084 0.412-0.13 0.623-0.044 0.195-0.031 0.397-0.091 0.59-0.040 0.129-0.1 0.234-0.127 0.367-0.063 0.311-0.109 0.643-0.14 0.958-0.058 0.604-0.023 1.212-0.011 1.817 0.013 0.71-0.153 1.353-0.408 2.006-0.105 0.269-0.137 0.543-0.132 0.83 0.004 0.215 0.011 0.421-0.034 0.631-0.022 0.102-0.010 0.192-0.022 0.292-0.011 0.084-0.057 0.157-0.059 0.243-0.002 0.11 0.044 0.374-0.097 0.405-0.013-0.115-0.089-0.213-0.123-0.323-0.041-0.132-0.036-0.249-0.055-0.381-0.022-0.146-0.105-0.262-0.109-0.412-0.003-0.154-0.018-0.288-0.052-0.439-0.109-0.492-0.274-0.971-0.389-1.461-0.069-0.29-0.092-0.556-0.212-0.836-0.11-0.259-0.249-0.554-0.175-0.839 0.040-0.155 0.062-0.281 0.063-0.445 0.006-0.852-0.058-1.707 0.011-2.558 0.035-0.439 0.128-0.859 0.097-1.303-0.022-0.316-0.067-0.629-0.161-0.931-0.091-0.295-0.091-0.653-0.259-0.915-0.052-0.081-0.11-0.148-0.12-0.247-0.008-0.083 0.013-0.175 0.062-0.24 0.207-0.273 0.614-0.010 0.875-0.011 0.162 0 0.324 0 0.485 0 0.164 0 0.343 0.017 0.504-0.006 0.109-0.015 0.203-0.022 0.315-0.022 0.173 0 0.346 0 0.521 0 0.077 0 0.162-0.006 0.237 0 0.050 0.004 0.187 0.040-0.079-0.055z"></path>
<path d="M29.48 13.74c-0.008 0-0.016-0.004-0.025-0.005-0.135-0.022-0.272-0.032-0.407-0.055-0.109-0.019-0.219-0.058-0.318-0.105-0.158-0.075-0.332-0.107-0.499-0.164-0.213-0.073-0.46-0.097-0.642-0.23-0.148-0.109-0.358-0.15-0.533-0.2-0.256-0.073-0.515-0.126-0.768-0.215-0.229-0.081-0.453-0.15-0.691-0.2-0.153-0.032-0.287-0.087-0.432-0.143-0.113-0.044-0.216-0.043-0.336-0.059-0.181-0.023-0.361-0.086-0.536-0.139-0.212-0.063-0.405-0.052-0.619-0.076-0.234-0.026-0.447-0.1-0.686-0.104-0.090 0-0.186 0.011-0.277-0.004-0.106-0.017-0.206-0.075-0.316-0.069-0.082 0.004-0.152 0.054-0.235 0.062-0.069 0.006-0.135-0.015-0.2-0.032-0.357-0.092-0.777-0.174-1.076-0.383-0.105-0.073-0.232-0.083-0.353-0.107-0.119-0.024-0.222-0.062-0.333-0.104-0.054-0.021-0.194-0.071-0.263-0.045-0.056 0.022-0.051 0.060-0.072 0.107-0.045 0.1-0.148 0.192-0.17 0.298-0.027 0.136 0.003 0.296-0.010 0.436-0.013 0.148-0.043 0.293-0.057 0.44-0.029 0.299-0.024 0.629 0.039 0.921 0.017 0.079 0.027 0.155 0.026 0.237 0 0.028-0.016 0.084 0.004 0.106 0.025 0.027 0.213 0.006 0.244 0.005 0.173 0 0.336 0.041 0.507 0.061 0.122 0.014 0.242 0.008 0.362 0.034 0.335 0.071 0.654 0.186 0.996 0.234 0.274 0.040 0.548 0.081 0.821 0.123 0.31 0.048 0.621 0.048 0.93 0.091 0.536 0.073 1.055 0.283 1.58 0.411 0.081 0.019 0.162 0.044 0.242 0.070 0.245 0.080 0.495 0.19 0.756 0.203 0.159 0.008 0.314-0.046 0.473-0.036 0.233 0.016 0.417 0.167 0.639 0.224 0.203 0.051 0.413 0.068 0.619 0.105 0.156 0.028 0.306 0.069 0.465 0.073 0.213 0.005 0.415 0.072 0.624 0.061 0.105-0.005 0.206 0.025 0.3 0.072 0.064 0.032 0.145 0.090 0.218 0.102 0.076 0.013 0.131-0.027 0.197-0.061 0.122-0.061 0.261-0.13 0.333-0.25 0.044-0.074 0.014-0.111-0.010-0.194-0.027-0.095-0.021-0.236-0.069-0.321-0.019-0.032-0.040-0.029-0.059-0.062-0.026-0.044-0.030-0.122-0.043-0.172-0.058-0.222-0.124-0.441-0.192-0.661-0.037-0.118-0.031-0.245-0.15-0.279z"></path>
</svg>
