<!-- Generated by IcoMoon.io -->
<svg version="1.1" xmlns="http://www.w3.org/2000/svg" width="33" height="32" viewBox="0 0 33 32">
<title>eternal_slumber</title>
<path d="M19.288 17.77c0.122 0.086 0.265 0.109 0.39 0.183 0.101 0.060 0.212 0.146 0.334 0.147 0.055 0 0.117-0.021 0.17-0.030 0.078-0.012 0.156-0.051 0.234-0.068 0.131-0.030 0.247-0.116 0.378-0.142 0.061-0.012 0.108-0.033 0.166-0.048 0.082-0.022 0.157-0.024 0.232-0.071 0.109-0.071 0.177-0.193 0.249-0.297 0.084-0.122 0.139-0.266 0.168-0.411 0.025-0.126 0.065-0.236 0.061-0.365-0.005-0.127-0.010-0.268-0.025-0.393-0.005-0.042-0.018-0.082-0.024-0.124s-0.018-0.081-0.024-0.124c-0.011-0.086-0.066-0.175-0.098-0.255-0.016-0.042-0.032-0.053-0.061-0.082-0.012-0.012-0.005-0.028-0.021-0.041-0.014-0.010-0.037-0.006-0.051-0.017-0.024-0.018-0.037-0.054-0.062-0.076s-0.053-0.042-0.080-0.064c-0.046-0.037-0.105-0.076-0.156-0.101-0.034-0.017-0.059-0.030-0.088-0.052-0.009-0.006-0.039-0.031-0.047-0.034-0.031-0.014-0.015-0.006-0.052-0.012-0.030-0.003-0.059-0.014-0.087-0.019-0.052-0.006-0.052-0.014-0.095-0.035-0.029-0.014-0.059-0.012-0.090-0.023-0.013-0.005-0.027-0.015-0.040-0.018-0.030-0.005-0.053 0.009-0.084-0.003s-0.042-0.024-0.058-0.032c-0.197 0.016-0.37 0.089-0.556 0.204-0.092 0.057-0.203 0.087-0.312 0.116 0.061 0.003 0.247 0.026 0.002 0.005l0.004 0.021c-0.033 0.025-0.077 0.025-0.11 0.047-0.036 0.024-0.068 0.047-0.104 0.070-0.113 0.070-0.194 0.167-0.266 0.276-0.024 0.037-0.045 0.085-0.061 0.125-0.023 0.057-0.070 0.116-0.088 0.171-0.038 0.117-0.067 0.247-0.069 0.37-0.002 0.076 0.006 0.153 0.024 0.227 0.015 0.060 0.022 0.124 0.040 0.181 0.052 0.167 0.108 0.327 0.175 0.493 0.043 0.107 0.082 0.232 0.182 0.302zM12.158 15.242c-0.031 0.056-0.042 0.118-0.066 0.177-0.025 0.064-0.040 0.133-0.054 0.201-0.027 0.12-0.035 0.239-0.039 0.362-0.003 0.117-0.032 0.219-0.005 0.335 0.024 0.106 0.052 0.206 0.068 0.315 0.015 0.112 0.027 0.227 0.083 0.328 0.030 0.052 0.059 0.101 0.099 0.145 0.024 0.026 0.052 0.048 0.074 0.077 0.048 0.061 0.061 0.129 0.090 0.199 0.033 0.078 0.104 0.162 0.182 0.193 0.144 0.058 0.23 0.196 0.388 0.219 0.092 0.014 0.165 0.064 0.259 0.054 0.065-0.007 0.128-0.034 0.193-0.044 0.165-0.027 0.352-0.041 0.507-0.104 0.030-0.013 0.066-0.008 0.094-0.019 0.026-0.011 0.034-0.028 0.057-0.042 0.037-0.023 0.071-0.041 0.109-0.064 0.046-0.028 0.097-0.058 0.147-0.081 0.080-0.038 0.152-0.098 0.229-0.146 0.099-0.061 0.175-0.146 0.258-0.227 0.080-0.077 0.141-0.136 0.184-0.24 0.021-0.053 0.041-0.113 0.056-0.167 0.018-0.061 0.007-0.121 0.012-0.185 0.002-0.032 0.011-0.062 0.016-0.094 0.008-0.057-0.006-0.088-0.011-0.14-0.010-0.096-0.010-0.201-0.033-0.296-0.009-0.034-0.027-0.063-0.033-0.098-0.011-0.070-0.003-0.14-0.017-0.21-0.011-0.055-0.028-0.107-0.045-0.159-0.023-0.068-0.027-0.155-0.059-0.217-0.034-0.067-0.118-0.124-0.17-0.177-0.058-0.059-0.134-0.121-0.194-0.187-0.269-0.189-0.551-0.326-0.858-0.46-0.003 0.006-0.008 0.012-0.013 0.015-0.027-0.015-0.039-0.031-0.056-0.045-0.017-0.007-0.035-0.015-0.052-0.024-0.058-0.009-0.117 0.010-0.173 0.014-0.066 0.005-0.132 0.003-0.201 0.014-0.092 0.017-0.155 0.066-0.236 0.113-0.051 0.029-0.106 0.049-0.155 0.081-0.097 0.062-0.165 0.159-0.259 0.22-0.131 0.083-0.298 0.224-0.375 0.364zM27.152 17.414c-0.024-0.226-0.074-0.481-0.159-0.692-0.081-0.201-0.115-0.436-0.251-0.61-0.103-0.13-0.193-0.241-0.34-0.328-0.080-0.046-0.171-0.083-0.255-0.12-0.068-0.031-0.139-0.034-0.207-0.062-0.083-0.036-0.11-0.064-0.203-0.052-0.069 0.008-0.141 0.011-0.211 0.005-0.117-0.010-0.203-0.014-0.319 0.010-0.118 0.024-0.297 0.024-0.396 0.086 0.019 0.031 0.159 0.038 0.19 0.044 0.13 0.024 0.229 0.1 0.343 0.164 0.155 0.086 0.253 0.219 0.346 0.365 0.063 0.1 0.161 0.196 0.21 0.306 0.035 0.076 0.059 0.149 0.098 0.225 0.069 0.13 0.103 0.288 0.132 0.433 0.019 0.095 0.041 0.187 0.041 0.282 0.001 0.119-0.034 0.217-0.089 0.326-0.034 0.071-0.031 0.163-0.058 0.24-0.027 0.080-0.050 0.173-0.089 0.246-0.034 0.065-0.056 0.115-0.077 0.185-0.029 0.1-0.093 0.173-0.14 0.262-0.043 0.082-0.078 0.123-0.138 0.191-0.028 0.032-0.042 0.071-0.070 0.103-0.042 0.049-0.102 0.057-0.153 0.095-0.064 0.049-0.111 0.124-0.167 0.182-0.080 0.083-0.185 0.165-0.279 0.232-0.090 0.062-0.179 0.136-0.271 0.194-0.114 0.071-0.235 0.113-0.348 0.191-0.078 0.052-0.153 0.111-0.223 0.173-0.052 0.046-0.095 0.106-0.151 0.146-0.064 0.048-0.124 0.047-0.195 0.073-0.064 0.024-0.141 0.053-0.196 0.095-0.090 0.070-0.136 0.127-0.248 0.168-0.11 0.042-0.232 0.052-0.347 0.076-0.077 0.015-0.154 0.039-0.232 0.047-0.156 0.016-0.288-0.037-0.441-0.061-0.251-0.040-0.47 0.067-0.715 0.071-0.109 0.002-0.207 0.017-0.314 0.040-0.202 0.043-0.408 0.049-0.611 0.092-0.151 0.032-0.303 0.033-0.455 0.058-0.097 0.015-0.189 0.045-0.286 0.056-0.077 0.009-0.154 0.005-0.231 0.016-0.096 0.015-0.193 0.037-0.287 0.058-0.132 0.030-0.213 0.101-0.332 0.155-0.231 0.103-0.56 0.1-0.805 0.076-0.161-0.016-0.318-0.037-0.481-0.040-0.161-0.003-0.345-0.038-0.504-0.012-0.137 0.023-0.269 0.061-0.409 0.070-0.155 0.011-0.303 0.016-0.455 0.046-0.18 0.034-0.344-0.007-0.523-0.033-0.222-0.031-0.429-0.053-0.648-0.103-0.355-0.080-0.75-0.141-1.111-0.083-0.185 0.029-0.333 0.015-0.515-0.034-0.18-0.051-0.373-0.052-0.545-0.121-0.148-0.059-0.302-0.072-0.453-0.123-0.147-0.050-0.296-0.101-0.448-0.135-0.241-0.053-0.491-0.042-0.733-0.083-0.175-0.029-0.317-0.176-0.462-0.264-0.167-0.1-0.356-0.194-0.532-0.28-0.199-0.098-0.406-0.181-0.607-0.276-0.163-0.077-0.333-0.123-0.503-0.182-0.112-0.039-0.233-0.047-0.344-0.089-0.119-0.045-0.25-0.123-0.353-0.2-0.264-0.195-0.389-0.527-0.66-0.718-0.105-0.073-0.209-0.146-0.314-0.22-0.088-0.061-0.156-0.144-0.235-0.215-0.168-0.15-0.283-0.352-0.38-0.553-0.045-0.093-0.099-0.185-0.125-0.284-0.030-0.118-0.117-0.177-0.18-0.279-0.061-0.1-0.103-0.24-0.132-0.354-0.043-0.173-0.084-0.366-0.105-0.544-0.034-0.279 0.133-0.544 0.165-0.818 0.021-0.177-0.003-0.318 0.093-0.475 0.085-0.135 0.185-0.213 0.291-0.326 0.071-0.076 0.155-0.102 0.243-0.153 0.092-0.052 0.176-0.137 0.249-0.213 0.16-0.165 0.396-0.257 0.62-0.295 0.144-0.024 0.305 0.015 0.447 0.037 0.078 0.012 0.156 0.015 0.231 0.043 0.078 0.030 0.164 0.042 0.238 0.074s0.112 0.094 0.2 0.104c-0.103-0.201-0.259-0.318-0.429-0.464-0.058-0.051-0.107-0.1-0.178-0.132-0.171-0.077-0.327-0.155-0.476-0.268-0.176-0.133-0.381-0.058-0.576-0.019-0.143 0.029-0.269 0.049-0.389 0.137-0.067 0.050-0.106 0.107-0.15 0.176-0.119 0.187-0.35 0.278-0.485 0.458-0.067 0.091-0.135 0.16-0.215 0.241-0.094 0.096-0.162 0.208-0.223 0.327-0.108 0.206-0.229 0.421-0.255 0.656-0.009 0.083-0.003 0.17-0.022 0.251-0.022 0.099-0.052 0.185-0.052 0.288 0 0.119 0.031 0.238 0.042 0.354 0.010 0.102 0.015 0.202 0.021 0.303 0.017 0.304 0.18 0.569 0.314 0.834 0.080 0.157 0.14 0.323 0.224 0.478 0.089 0.163 0.195 0.316 0.276 0.483 0.14 0.288 0.328 0.548 0.487 0.827 0.151 0.264 0.316 0.516 0.502 0.758 0.104 0.135 0.213 0.269 0.362 0.357 0.141 0.085 0.296 0.149 0.445 0.217 0.13 0.059 0.252 0.096 0.389 0.134 0.055 0.016 0.1 0.040 0.146 0.062 0.040 0.144 0.054 0.275 0.082 0.421 0.025 0.133 0.064 0.282 0.118 0.412 0.057 0.138 0.158 0.263 0.229 0.398 0.037 0.071 0.195 0.322 0.29 0.323-0.015-0.108-0.013-0.232 0.007-0.327 0.032-0.149 0.015-0.319 0.045-0.477 0.028-0.148 0.049-0.3 0.080-0.447 0.005 0.003 0.009 0.005 0.014 0.008 0.112 0.061 0.235 0.102 0.355 0.149 0.038 0.188 0.090 0.374 0.144 0.551 0.124 0.408 0.388 0.778 0.727 1.073 0.132 0.116 0.247 0.258 0.342 0.395 0.052-0.082-0.025-0.183-0.027-0.273-0.005-0.231 0.032-0.468 0.046-0.698 0.010-0.167 0.016-0.336 0.024-0.505 0.152 0.055 0.298 0.127 0.451 0.175 0.042 0.147 0.092 0.292 0.161 0.42 0.1 0.186 0.26 0.342 0.365 0.526 0.094 0.166 0.132 0.333 0.247 0.491 0.066 0.091 0.468 0.726 0.61 0.69 0.003-0.063-0.037-0.123-0.049-0.185-0.014-0.081-0.006-0.162-0.023-0.245-0.031-0.156-0.050-0.3-0.052-0.459-0.003-0.277-0.012-0.553-0.018-0.83 0.030 0.005 0.061 0.009 0.090 0.015 0.113 0.020 0.224 0.042 0.336 0.061 0.119 0.19 0.26 0.365 0.39 0.551 0.133 0.193 0.214 0.39 0.321 0.592 0.109 0.204 0.241 0.402 0.364 0.6 0.117 0.188 0.248 0.442 0.453 0.573 0.011-0.11-0.045-0.242-0.071-0.353-0.042-0.182-0.084-0.363-0.126-0.544-0.1-0.431-0.238-0.871-0.283-1.309 0.213 0.011 0.428 0.019 0.642 0.028 0.023 0.275 0.111 0.552 0.224 0.814 0.17 0.394 0.388 0.777 0.727 1.073 0.132 0.116 0.246 0.258 0.342 0.395 0.052-0.082-0.025-0.183-0.027-0.273-0.005-0.23 0.031-0.468 0.045-0.698 0.021-0.323 0.022-0.652 0.058-0.975 0.015-0.127 0.058-0.255 0.106-0.382 0.049 0 0.099 0.001 0.149 0.003 0.219 0.008 0.438-0.012 0.657-0.009 0.003 0.012 0.006 0.024 0.009 0.036 0.124 0.525 0.218 1.038 0.137 1.577-0.016 0.106-0.156 0.784 0.019 0.836 0.118-0.28 0.242-0.554 0.377-0.83 0.232-0.481 0.334-0.996 0.483-1.5 0.015-0.047 0.024-0.094 0.036-0.142 0.218-0.016 0.438-0.012 0.653-0.045l0.009-0.002c0.052 0.21 0.104 0.42 0.147 0.63 0.090 0.439 0.084 0.914 0.088 1.36 0.001 0.11-0.027 0.239 0.034 0.34 0.092-0.066 0.144-0.224 0.181-0.317 0.055-0.137 0.146-0.242 0.203-0.374 0.083-0.189 0.091-0.394 0.196-0.579 0.071-0.086 0.12-0.182 0.147-0.286 0.016-0.166 0.021-0.334 0.014-0.502 0.005-0.177 0.034-0.35 0.065-0.523 0.091-0.033 0.183-0.063 0.279-0.084 0.1-0.021 0.201-0.040 0.302-0.058 0.033 0.133 0.065 0.267 0.093 0.402 0.090 0.439 0.084 0.914 0.087 1.36 0.001 0.11-0.026 0.238 0.035 0.339 0.092-0.065 0.144-0.224 0.181-0.317 0.054-0.136 0.146-0.242 0.203-0.374 0.083-0.188 0.091-0.394 0.196-0.578 0.071-0.087 0.12-0.182 0.147-0.286 0.015-0.167 0.020-0.335 0.013-0.502 0.003-0.112 0.016-0.223 0.034-0.333 0.073-0.017 0.146-0.033 0.222-0.047 0.095-0.018 0.189-0.042 0.283-0.066 0.089 0.178 0.156 0.368 0.234 0.553 0.069 0.16 0.084 0.334 0.152 0.486 0.044 0.098 0.072 0.224 0.077 0.335 0.112-0.002 0.249-0.264 0.279-0.337 0.056-0.14 0.15-0.271 0.19-0.414 0.036-0.133 0.052-0.287 0.054-0.424 0.003-0.134-0.005-0.256 0.005-0.385 0.027-0.003 0.053-0.007 0.081-0.015 0.121-0.029 0.233-0.082 0.348-0.127 0.146-0.058 0.269-0.155 0.405-0.231 0.144-0.081 0.267-0.175 0.4-0.274 0.254-0.19 0.531-0.326 0.797-0.497 0.281-0.18 0.515-0.45 0.734-0.697 0.362-0.405 0.658-0.867 0.841-1.379 0.042-0.117 0.1-0.22 0.109-0.346 0.008-0.097 0.015-0.204 0.005-0.301zM28.049 12.898c0.127 0.338 0.178 0.642 0.256 0.981 0.034 0.143 0.060 0.27 0.118 0.399 0.163 0.364 0.457 0.738 0.472 1.153 0.010 0.278 0.046 0.573 0.119 0.844 0.121 0.449 0.056 0.948 0.061 1.412 0.002 0.187-0.022 0.365-0.241 0.399-0.14 0.022-0.307-0.005-0.417 0.093-0.121 0.107-0.156 0.425-0.173 0.571-0.033 0.294-0.050 0.6-0.066 0.893-0.024 0.443-0.151 0.927-0.337 1.333-0.32 0.7-1.14 0.474-1.665 0.913-0.378 0.317-0.415 0.983-0.628 1.404-0.203 0.402-0.603 0.59-0.917 0.894-0.164 0.16-0.294 0.183-0.505 0.241-0.13 0.035-0.271 0.116-0.359 0.221-0.107 0.128-0.156 0.317-0.234 0.463-0.131 0.244-0.295 0.464-0.447 0.695-0.156 0.236-0.247 0.533-0.523 0.612-0.173 0.049-0.318 0.154-0.489 0.211-0.302 0.1-0.641 0.087-0.957 0.077-0.127-0.003-0.235-0.053-0.361-0.065-0.148-0.013-0.307 0.003-0.457 0.003-0.503 0-1.053-0.072-1.528 0.118-0.187 0.075-0.317 0.212-0.49 0.309-0.107 0.059-0.223 0.093-0.333 0.146s-0.207 0.137-0.33 0.156c-0.112 0.016-0.245-0.005-0.358-0.005-0.167 0-0.337-0.012-0.505-0.005-0.139 0.005-0.217 0.090-0.34 0.123-0.182 0.047-0.468-0.043-0.642-0.073-0.157-0.028-0.301-0.069-0.448-0.131-0.305-0.13-0.58-0.397-0.916-0.398-0.36-0.002-0.715-0.060-1.071-0.111-0.242-0.035-0.407-0.077-0.63-0.191-0.154-0.080-0.27-0.090-0.433-0.133-0.096-0.025-0.148-0.046-0.262-0.046-0.142 0.002-0.284 0-0.426 0-0.154 0-0.33 0.023-0.479-0.014-0.153-0.037-0.269-0.136-0.422-0.183-0.142-0.042-0.248-0.104-0.372-0.179-0.168-0.101-0.323-0.179-0.483-0.287-0.213-0.144-0.378-0.27-0.562-0.453-0.14-0.139-0.231-0.293-0.347-0.439-0.127-0.16-0.277-0.273-0.441-0.401-0.071-0.056-0.139-0.101-0.203-0.167-0.097-0.102-0.165-0.127-0.28-0.201-0.174-0.109-0.363-0.187-0.515-0.335-0.175-0.168-0.316-0.36-0.477-0.54-0.118-0.132-0.231-0.258-0.296-0.422-0.074-0.192-0.121-0.405-0.185-0.601-0.097-0.3-0.217-0.518-0.408-0.773-0.27-0.361-0.528-0.757-0.829-1.093-0.103-0.115-0.268-0.173-0.353-0.3-0.071-0.106-0.096-0.248-0.103-0.373-0.014-0.269 0.034-0.541-0.002-0.809-0.022-0.161-0.101-0.262-0.161-0.402-0.062-0.148-0.085-0.307-0.133-0.459-0.109-0.347-0.302-0.736-0.493-1.050-0.115-0.189-0.295-0.296-0.392-0.493-0.072-0.149-0.141-0.288-0.147-0.458-0.007-0.163 0.038-0.32 0.058-0.48 0.022-0.171 0.024-0.352 0.080-0.517 0.143-0.426 0.554-0.761 0.875-1.051 0.241-0.217 0.691-0.468 0.742-0.812 0.029-0.194-0.071-0.307-0.109-0.467-0.060-0.245 0.229-0.338 0.408-0.445 0.263-0.156 0.596-0.407 0.782-0.655 0.087-0.115 0.045-0.239 0.121-0.349 0.194-0.284 1.194-0.071 1.076-0.528-0.040-0.153-0.163-0.298-0.219-0.434-0.034-0.084-0.016-0.192-0.039-0.282-0.030-0.117-0.086-0.221-0.14-0.328-0.080-0.157-0.393-0.602-0.080-0.705 0.24-0.079 0.535-0.059 0.788-0.059 0.351 0 0.696-0.010 1.043 0.044 0.091 0.014 0.655 0.18 0.713 0.021 0.063-0.175-0.194-0.433-0.268-0.544s-0.12-0.216-0.221-0.312c-0.037-0.035-0.117-0.069-0.145-0.11-0.051-0.077-0.045-0.097-0.007-0.184 0.073-0.166 0.212-0.269 0.394-0.298 0.617-0.098 1.257-0.085 1.875 0.071 0.473 0.119 1 0.126 1.451 0.316 0.080 0.033 0.535 0.343 0.645 0.203 0.050-0.064-0.039-0.11-0.054-0.165-0.028-0.1-0.014-0.205-0.058-0.309-0.079-0.19-0.246-0.429-0.372-0.598-0.137-0.187-0.293-0.353-0.425-0.545-0.147-0.216-0.326-0.344-0.524-0.505-0.102-0.083-0.357-0.24-0.317-0.402 0.044-0.176 0.455-0.166 0.58-0.175 0.149-0.010 0.298-0.003 0.447-0.006 0.551-0.008 1.106 0.19 1.632 0.333 0.468 0.127 0.9 0.323 1.345 0.511 0.514 0.217 1.034 0.456 1.52 0.728 0.259 0.146 0.505 0.318 0.735 0.508 0.061 0.050 0.142 0.166 0.225 0.15 0.144-0.028 0.097-0.264 0.097-0.361 0-0.288 0.024-0.525-0.095-0.788s-0.341-0.494-0.522-0.717c-0.261-0.322-0.519-0.665-0.885-0.873-0.137-0.079-0.491-0.155-0.545-0.323 0.167-0.058 0.391-0.011 0.569-0.012 0.163-0.002 0.298 0.017 0.458 0.058 0.478 0.12 0.909 0.371 1.38 0.51 1.17 0.346 2.207 1.027 3.195 1.722 0.665 0.468 1.447 0.883 1.918 1.57 0.056 0.082 0.187 0.372 0.344 0.237 0.086-0.074-0.055-0.186-0.082-0.273-0.040-0.125-0.052-0.268-0.096-0.387-0.014-0.041-0.066-0.096-0.078-0.133-0.030-0.095-0.013-0.192-0.046-0.291-0.092-0.273-0.314-0.574-0.482-0.805-0.037-0.052-0.136-0.152-0.14-0.219-0.023-0.319 0.537 0.058 0.624 0.122 0.194 0.143 0.422 0.315 0.579 0.497 0.412 0.48 0.86 0.917 1.282 1.388 0.088 0.099 0.193 0.165 0.279 0.251 0.094 0.093 0.19 0.215 0.286 0.315 0.169 0.176 0.308 0.378 0.468 0.563 0.171 0.199 0.348 0.372 0.473 0.605 0.101 0.188 0.201 0.346 0.336 0.512 0.109 0.134 0.248 0.291 0.298 0.462 0.064 0.219 0.104 0.457 0.16 0.679 0.073 0.297 0.177 0.58 0.259 0.873 0.096 0.34 0.141 0.672 0.135 1.026-0.002 0.143-0.009 0.285 0.012 0.428 0.015 0.098 0.015 0.295 0.050 0.393 0.030 0.087 0.113 0.144 0.178 0.208z"></path>
</svg>
