<!-- Generated by IcoMoon.io -->
<svg version="1.1" xmlns="http://www.w3.org/2000/svg" width="33" height="32" viewBox="0 0 33 32">
<title>evil_portents</title>
<path d="M14.281 2.935c0.206 0.044 0.448 0.083 0.659 0.15 0.118 0.039 0.215 0.101 0.316 0.171 0.21 0.132 0.395 0.268 0.628 0.364 0.11 0.044 0.22 0.092 0.322 0.158 0.105 0.062 0.197 0.15 0.298 0.224 0.106 0.088 0.228 0.15 0.339 0.224 0.194 0.137 0.355 0.322 0.505 0.497 0.185 0.215 0.369 0.426 0.558 0.641 0.106 0.124 0.207 0.251 0.308 0.378 0.026 0.032 0.044 0.057 0.083 0.079 0.053 0.032 0.070 0.057 0.097 0.11 0.062 0.132 0.127 0.263 0.185 0.391 0.070 0.136 0.118 0.268 0.15 0.417 0.039 0.171 0.061 0.343 0.105 0.514 0.057 0.237 0.15 0.47 0.247 0.699 0.039 0.092 0.083 0.18 0.119 0.272 0.044 0.101 0.114 0.242 0.127 0.357 0.013 0.158-0.035 0.312-0.019 0.474 0.010 0.189 0.019 0.373 0.019 0.567 0 0.325 0.048 0.655 0.044 0.98 0 0.119 0 0.233 0.019 0.348 0.016 0.083 0.032 0.154 0.032 0.242v0.36c0 0.066 0.003 0.136-0.003 0.207-0.003 0.048-0.022 0.097-0.022 0.145-0.003 0.109-0.013 0.224-0.022 0.337 0 0.080-0.039 0.154-0.057 0.237-0.016 0.085-0.026 0.15-0.070 0.23-0.071 0.127-0.092 0.272-0.124 0.413-0.048 0.206-0.1 0.399-0.192 0.588-0.075 0.141-0.154 0.277-0.225 0.417-0.079 0.145-0.136 0.29-0.21 0.44-0.071 0.141-0.154 0.272-0.233 0.404-0.175 0.281-0.321 0.576-0.466 0.875-0.136 0.268-0.343 0.478-0.546 0.699-0.105 0.105-0.197 0.224-0.303 0.33-0.168 0.166-0.352 0.298-0.549 0.426-0.255 0.171-0.506 0.351-0.765 0.517-0.26 0.158-0.553 0.278-0.839 0.382-0.295 0.115-0.606 0.177-0.915 0.242-0.373 0.079-0.747 0.154-1.125 0.211-0.65 0.101-1.309 0.065-1.969 0.039-0.307-0.013-0.611-0.048-0.909-0.11-0.141-0.032-0.277-0.053-0.414-0.083-0.189-0.039-0.369-0.097-0.563-0.141-0.597-0.127-1.19-0.281-1.766-0.496-0.11-0.041-0.233-0.075-0.343-0.128-0.141-0.070-0.268-0.158-0.399-0.245-0.281-0.198-0.563-0.409-0.791-0.673-0.202-0.237-0.387-0.501-0.629-0.699-0.145-0.124-0.294-0.233-0.408-0.392-0.11-0.15-0.198-0.316-0.295-0.475-0.127-0.202-0.206-0.434-0.339-0.628-0.096-0.145-0.192-0.26-0.245-0.431-0.057-0.175-0.132-0.339-0.163-0.519-0.022-0.132-0.048-0.26-0.053-0.392 0-0.032 0.003-0.061-0.032-0.088 0.013 0.185 0.163 0.382 0.295 0.51 0.109 0.115 0.224 0.224 0.321 0.343 0.127 0.15 0.202 0.321 0.334 0.466 0.141 0.158 0.272 0.325 0.408 0.479 0.163 0.189 0.364 0.321 0.563 0.466 0.251 0.189 0.505 0.395 0.76 0.584 0.079 0.062 0.158 0.106 0.247 0.141 0.118 0.057 0.224 0.141 0.342 0.189 0.088 0.039 0.172 0.062 0.269 0.092 0.105 0.036 0.188 0.092 0.284 0.136 0.080 0.036 0.168 0.053 0.247 0.085 0.106 0.044 0.207 0.101 0.313 0.149 0.21 0.097 0.422 0.137 0.637 0.207 0.066 0.019 0.118 0.035 0.18 0.044 0.185 0.032 0.369 0.053 0.549 0.079 0.304 0.032 0.611 0.003 0.915 0.053 0.175 0.032 0.339 0.053 0.514 0.053h0.448c0.154 0 0.313 0.003 0.466-0.022 0.089-0.022 0.172-0.039 0.26-0.048 0.15-0.019 0.281-0.022 0.422-0.066 0.189-0.057 0.373-0.132 0.567-0.185 0.247-0.079 0.461-0.203 0.69-0.316 0.15-0.080 0.281-0.163 0.392-0.281 0.088-0.097 0.166-0.194 0.263-0.281 0.242-0.216 0.47-0.435 0.694-0.659 0.317-0.325 0.694-0.602 0.963-0.967 0.339-0.457 0.51-1.006 0.764-1.498 0.115-0.21 0.23-0.422 0.322-0.637 0.097-0.228 0.122-0.492 0.144-0.747 0.010-0.11 0-0.224 0-0.339 0.003-0.122 0.041-0.242 0.048-0.364 0.032-0.295 0.022-0.588 0.036-0.883 0.016-0.255 0.048-0.51 0.048-0.765 0-0.307 0.003-0.624 0-0.931 0-0.115-0.022-0.203-0.053-0.316-0.026-0.097-0.026-0.194-0.048-0.29-0.026-0.11-0.079-0.202-0.127-0.304-0.041-0.083-0.071-0.171-0.097-0.259-0.075-0.215-0.168-0.401-0.295-0.593-0.123-0.172-0.263-0.334-0.357-0.528-0.039-0.071-0.074-0.145-0.105-0.224-0.053-0.145-0.071-0.299-0.119-0.444-0.016-0.057-0.044-0.114-0.070-0.171-0.053-0.132-0.080-0.277-0.141-0.409-0.080-0.171-0.158-0.338-0.247-0.505-0.074-0.141-0.198-0.242-0.312-0.347-0.228-0.198-0.493-0.422-0.659-0.682-0.048-0.074-0.097-0.109-0.15-0.171-0.022-0.032-0.074-0.071-0.079-0.101z"></path>
<path d="M13.152 23.717c0.109-0.22 0.233-0.44 0.351-0.655-0.032-0.010-0.065-0.019-0.097-0.036-0.175-0.070-0.325-0.18-0.483-0.281-0.242-0.162-0.409-0.417-0.615-0.614-0.088-0.089-0.228-0.334-0.366-0.339-0.052 0.114 0 0.33 0.022 0.443 0.074 0.369 0.268 0.694 0.374 1.051 0.062 0.215 0.141 0.422 0.312 0.571 0.092 0.083 0.194 0.158 0.304 0.237 0.066-0.133 0.141-0.255 0.198-0.378z"></path>
<path d="M22.942 13.175c0.325 0.1 0.544 0.25 0.804 0.461 0.127 0.109 0.312 0.114 0.434 0.219 0.119 0.11 0.124 0.307 0.233 0.435 0.066 0.079 0.154 0.145 0.23 0.219 0.044 0.044 0.083 0.092 0.114 0.15 0.044 0.088 0.053 0.189 0.075 0.286 0.070 0.281 0.294 0.567 0.501 0.768 0.166 0.158 0.247 0.361 0.325 0.571 0.065-0.109 0.132-0.206 0.224-0.295 0.18-0.166 0.321-0.36 0.461-0.558 0.106-0.149 0.224-0.307 0.299-0.47 0.057-0.132 0.065-0.241 0.097-0.378 0.057-0.259 0.194-0.544 0.339-0.777-0.207-0.15-0.348-0.307-0.603-0.378-0.413-0.122-0.799-0.158-1.181-0.355-0.158-0.083-0.308-0.119-0.484-0.158-0.316-0.074-0.673-0.145-0.971-0.277-0.255-0.11-0.479-0.132-0.747-0.127-0.251 0.010-0.269-0.088-0.47-0.15-0.136-0.044-0.392-0.035-0.532-0.022-0.247 0.022-0.444 0.194-0.673 0.269-0.175 0.053-0.519 0.016-0.628 0.206 0.088 0.013 0.18 0.025 0.268 0.039 0.637 0.092 1.261 0.119 1.885 0.322z"></path>
<path d="M21.746 29.847c-0.026-0.505-0.166-1.042-0.404-1.489-0.141-0.277-0.343-0.51-0.488-0.783-0.141-0.268-0.219-0.526-0.286-0.8-0.272 0.010-0.549 0.026-0.83 0.010-0.373-0.022-0.76 0.039-1.125-0.048-0.443-0.109-0.906-0.228-1.323-0.413-0.263-0.106-0.505-0.247-0.755-0.382-0.207-0.118-0.422-0.237-0.633-0.351-0.351-0.203-0.773-0.26-1.111-0.475-0.132-0.088-0.237-0.207-0.343-0.325-0.154-0.163-0.316-0.308-0.479-0.461-0.127-0.124-0.281-0.203-0.431-0.29-0.039 0.062-0.083 0.114-0.149 0.162-0.085 0.053-0.177 0.101-0.281 0.101-0.062 0-0.115-0.032-0.185-0.026-0.137 0.003-0.37 0.145-0.475 0.233-0.071 0.057-0.132 0.132-0.185 0.215l0.457 0.717c0.092 0.154 0.194 0.295 0.316 0.422 0.304 0.321 0.585 0.615 0.963 0.853 0.259 0.166 0.51 0.347 0.755 0.54 0.251 0.194 0.488 0.444 0.769 0.59 0.33 0.166 0.712 0.21 1.046 0.347 0.528 0.216 1.077 0.382 1.6 0.602 0.334 0.145 0.646 0.352 0.992 0.475 0.246 0.097 0.497 0.154 0.739 0.247 0.466 0.18 0.879 0.312 1.375 0.355 0.159 0.013 0.317 0.041 0.47 0.066v-0.088z"></path>
<path d="M27.393 23.171c-0.124-0.215-0.304-0.364-0.44-0.562-0.123-0.166-0.145-0.337-0.171-0.54-0.035-0.228-0.154-0.426-0.211-0.65-0.145-0.594-0.263-1.161-0.614-1.671-0.045-0.065-0.097-0.122-0.145-0.175-0.225 0.369-0.435 0.738-0.603 1.152-0.289 0.694-0.72 1.248-1.261 1.762-0.132 0.127-0.263 0.272-0.422 0.36-0.056 0.032-0.118 0.044-0.166 0.080-0.158 0.1-0.255 0.289-0.392 0.408-0.364 0.325-0.888 0.484-1.331 0.676-0.158 0.066-0.317 0.128-0.479 0.163 0.057 0.141 0.065 0.299 0.088 0.448 0.032 0.225 0.044 0.458 0.083 0.677 0.026 0.166 0.071 0.281 0.057 0.466-0.022 0.33-0.123 0.708-0.053 1.037 0.022 0.132 0.075 0.268 0.132 0.408 0.624-0.097 1.2-0.281 1.74-0.597 0.281-0.168 0.553-0.334 0.822-0.505 0.272-0.177 0.523-0.387 0.804-0.546 0.764-0.426 1.555-0.773 2.161-1.419 0.189-0.207 0.37-0.484 0.532-0.739-0.044-0.083-0.088-0.162-0.132-0.233z"></path>
<path d="M25.939 17.322c-0.039 0.272-0.026 0.544-0.075 0.809-0.013 0.106-0.044 0.21-0.074 0.307 0.035 0.010 0.071 0.019 0.11 0.036 0.097 0.047 0.194 0.079 0.294 0.118 0.168 0.066 0.281 0.145 0.418 0.247 0.083 0.057 0.21 0.083 0.277 0.162 0.074 0.080 0.079 0.194 0.162 0.277 0.097 0.106 0.233 0.185 0.352 0.264 0.122 0.083 0.158 0.15 0.233 0.263 0.153 0.219 0.39 0.272 0.593 0.426 0.097 0.074 0.166 0.203 0.247 0.29 0.088 0.106 0.194 0.18 0.295 0.254 0.136-0.646 0.18-1.3 0.268-1.964 0.106-0.795 0.039-1.621-0.022-2.421-0.022-0.224-0.083-0.444-0.127-0.664-0.039-0.18-0.066-0.364-0.097-0.544-0.013 0.003-0.019 0.010-0.026 0.016-0.211 0.194-0.475 0.299-0.721 0.435-0.277 0.15-0.505 0.374-0.782 0.523-0.097 0.048-0.203 0.092-0.299 0.145s-0.272 0.109-0.355 0.189c-0.062 0.057-0.088 0.132-0.136 0.194-0.085 0.088-0.168 0.127-0.29 0.127-0.092 0-0.185-0.019-0.277-0.039 0 0.061 0 0.123 0.006 0.18 0.022 0.136 0.045 0.233 0.026 0.369z"></path>
<path d="M24.362 19.063c-0.003-0.127-0.101-0.281-0.158-0.396-0.083-0.18-0.168-0.342-0.263-0.514-0.053-0.097-0.124-0.149-0.141-0.277-0.022-0.101-0.003-0.15 0.123-0.092 0.154 0.075 0.312 0.154 0.47 0.221 0.065 0.032 0.132 0.039 0.189 0.092 0.039 0.035 0.053 0.088 0.092 0.127 0.057 0.053 0.092 0.074 0.132 0.145 0.026 0.053 0.048 0.106 0.088 0.15 0.057 0.056 0.136 0.097 0.175 0.166 0.010 0.026 0.013 0.057 0.036 0.079 0.016 0.026 0.044 0.022 0.053 0.053 0 0.019-0.003 0.053-0.010 0.071-0.010 0.026-0.019 0.044-0.022 0.070-0.016 0.097-0.016 0.299-0.153 0.308-0.045 0-0.089-0.019-0.128-0.026-0.145-0.035-0.268 0.026-0.413 0.053z"></path>
<path d="M28.193 21.712c0.259 0.062 0.544 0.168 0.752 0.339 0.083 0.075 0.136 0.168 0.215 0.242 0.071 0.062 0.132 0.079 0.211 0.119 0.061 0.039 0.105 0.074 0.185 0.1 0.003 0 0.127 0.013 0.136 0.022 0.065 0.057-0.010 0.123-0.010 0.206-0.003 0.093 0.010 0.15-0.010 0.247-0.035 0.132-0.065 0.272-0.097 0.409-0.022 0.118-0.074 0.224-0.114 0.333-0.019 0.044-0.044 0.071-0.062 0.115-0.019 0.039-0.013 0.083-0.026 0.118-0.048 0.092-0.141 0.089-0.237 0.119-0.221 0.079-0.373-0.048-0.581-0.132-0.106-0.039-0.115-0.039-0.145-0.136-0.035-0.11-0.039-0.185-0.101-0.281-0.070-0.11-0.105-0.163-0.105-0.299 0.003-0.106 0.052-0.255 0.022-0.36-0.026-0.080-0.092-0.168-0.123-0.247-0.044-0.115-0.101-0.219-0.18-0.321-0.089-0.124-0.141-0.264-0.23-0.392-0.056-0.074-0.105-0.18-0.166-0.247-0.062-0.056-0.185-0.092-0.136-0.206 0.114-0.010 0.15 0.053 0.242 0.106 0.035 0.026 0.079 0.047 0.123 0.056 0.048 0.013 0.048-0.010 0.083-0.010 0.080-0.003 0.085 0.026 0.154 0.053 0.053 0.022 0.11 0.026 0.158 0.036l0.039 0.006z"></path>
<path d="M27.318 14.835c0.128-0.114 0.273-0.166 0.378-0.307 0.092-0.124 0.154-0.281 0.237-0.417 0.071-0.115 0.145-0.23 0.221-0.352 0.044-0.065 0.114-0.166 0.114-0.254 0.010 0.109 0.203 0.171 0.281 0.21 0.115 0.062 0.211 0.106 0.277 0.215 0.036 0.066 0.053 0.133 0.084 0.198 0.044 0.075 0.149 0.124 0.153 0.22 0.013 0.105-0.061 0.136-0.127 0.189-0.136 0.109-0.286 0.149-0.44 0.224-0.127 0.061-0.242 0.158-0.364 0.224-0.233 0.123-0.448 0.251-0.655 0.404-0.074 0.057-0.175 0.11-0.247 0.177-0.035 0.040-0.044 0.109-0.097 0.118-0.039-0.032-0.026-0.074-0.026-0.115-0.083-0.035-0.207 0.128-0.304 0.128 0.036-0.119 0.185-0.233 0.242-0.348 0.053-0.101 0.088-0.21 0.136-0.312 0.036-0.057 0.044-0.119 0.097-0.172 0.075-0.065 0.185-0.088 0.039-0.032z"></path>
<path d="M21.931 27.975c-0.013 0.079 0.022 0.189 0.032 0.259 0.016 0.154 0.032 0.313 0.053 0.47 0.026 0.145 0.026 0.352 0.201 0.343 0.272 0 0.475-0.219 0.694-0.36 0.089-0.053 0.163-0.092 0.247-0.154 0.101-0.074 0.194-0.079 0.286-0.171 0.083-0.080 0.106-0.128 0.132-0.23 0.019-0.074 0.053-0.192 0-0.201-0.109-0.019-0.202-0.026-0.312-0.035-0.074-0.003-0.166-0.019-0.242-0.048-0.065-0.032-0.114-0.092-0.18-0.137-0.106-0.070-0.233-0.144-0.364-0.141-0.11 0.003-0.185 0.053-0.251 0.137-0.035 0.044-0.039 0.092-0.070 0.144-0.032-0.003-0.071-0.003-0.106-0.006-0.022 0.044-0.019 0.092-0.044 0.136-0.010 0-0.022 0-0.075-0.003z"></path>
</svg>
