<!-- Generated by IcoMoon.io -->
<svg version="1.1" xmlns="http://www.w3.org/2000/svg" width="32" height="32" viewBox="0 0 32 32">
<title>expedition_team</title>
<path d="M16.219 1c0 0.159 0.005 0.249-0.064 0.386-0.073 0.139-0.147 0.274-0.225 0.418-0.112 0.205-0.242 0.393-0.291 0.613-0.034 0.156-0.13 0.274-0.225 0.418-0.469 0.709-0.987 1.371-1.386 2.124-0.108 0.208-0.298 0.381-0.389 0.594-0.076 0.181-0.139 0.384-0.227 0.535-0.029 0.046-0.090 0.108-0.125 0.161-0.037 0.054-0.066 0.095-0.11 0.142-0.127 0.132-0.266 0.249-0.398 0.371-0.122 0.11-0.178 0.269-0.225 0.423s-0.115 0.31-0.186 0.464c-0.217 0.486-0.572 0.787-0.941 1.161-0.183 0.186-0.379 0.43-0.477 0.674-0.086 0.213-0.205 0.396-0.305 0.596-0.059 0.115-0.090 0.252-0.13 0.379-0.108 0.332-0.227 0.662-0.281 1.004-0.051 0.332-0.068 0.64-0.071 0.98-0.002 0.22 0.068 0.413 0.066 0.63 0 0.093-0.017 0.2-0.002 0.293 0.012 0.081 0.051 0.112 0.068 0.186 0.022 0.086 0.022 0.308 0 0.393-0.012 0.051-0.054 0.066-0.068 0.115-0.034 0.115-0.044 0.293-0.059 0.418-0.022 0.188-0.010 0.393-0.005 0.587 0.002 0.144 0.083 0.217 0.115 0.357s0.054 0.257 0.115 0.386c0.039 0.086 0.112 0.149 0.156 0.23 0.066 0.12 0.11 0.254 0.178 0.374 0.147 0.252 0.279 0.494 0.369 0.782 0.088 0.279 0.235 0.584 0.364 0.853 0.181 0.369 0.411 0.628 0.789 0.772 0.098 0.037 0.205 0.044 0.301 0.078 0.093 0.034 0.156 0.1 0.252 0.127 0.193 0.054 0.367 0.137 0.567 0.181 0.31 0.073 0.503 0.254 0.787 0.374 0.117 0.049 0.257 0.044 0.386 0.093 0.142 0.056 0.281 0.044 0.418 0.095 0.166 0.061 0.269 0.095 0.452 0.098 0.134 0.002 0.283 0.044 0.415 0.078 0.186 0.049 0.315 0.117 0.516 0.115 0.193 0 0.386 0.007 0.577 0.002 0.452-0.007 0.88-0.2 1.325-0.195 0.112 0.002 0.342 0.024 0.291-0.161-0.039-0.142-0.303-0.1-0.42-0.127-0.413-0.093-0.899-0.032-1.32-0.032h-0.579c-0.42 0-0.819-0.098-1.224-0.208-0.071-0.020-0.112-0.046-0.188-0.051-0.095-0.007-0.183 0.012-0.276-0.010-0.291-0.073-0.528-0.296-0.723-0.508-0.086-0.093-0.174-0.171-0.259-0.254-0.117-0.117-0.174-0.269-0.261-0.408-0.061-0.095-0.13-0.178-0.2-0.264-0.020-0.020-0.059-0.029-0.073-0.051-0.022-0.029-0.005-0.078-0.022-0.108-0.078-0.137-0.215-0.298-0.31-0.428-0.112-0.152-0.335-0.103-0.472-0.249-0.271-0.291-0.464-0.579-0.569-0.973-0.071-0.271-0.183-0.53-0.315-0.775-0.132-0.247-0.090-0.616-0.127-0.907-0.022-0.183-0.042-0.371-0.105-0.545-0.037-0.103-0.081-0.181-0.093-0.286-0.015-0.147 0.005-0.308 0.005-0.455 0-0.296 0-0.589 0-0.885 0-0.276-0.046-0.584 0.044-0.85 0.061-0.176 0.178-0.327 0.244-0.511 0.1-0.269 0.181-0.535 0.315-0.789 0.132-0.247 0.215-0.53 0.325-0.789 0.078-0.188 0.13-0.43 0.235-0.606 0.139-0.235 0.406-0.44 0.591-0.643 0.403-0.435 0.772-0.892 1.215-1.307 0.254-0.239 0.599-0.296 0.77-0.63 0.073-0.142 0.115-0.293 0.139-0.447 0.056-0.345 0.176-0.633 0.298-0.956 0.071-0.186 0.095-0.279 0.203-0.433 0.13-0.188 0.208-0.398 0.264-0.621 0.027-0.098 0.027-0.217 0.061-0.31 0.027-0.073 0.086-0.13 0.115-0.2 0.117-0.281 0.276-0.562 0.362-0.86 0.076-0.276 0.034-0.601 0.034-0.887 0 0.386 0 0.772 0 1.158 0 0.247 0.059 0.452 0.112 0.687 0.095 0.408 0.213 0.836 0.403 1.212 0.103 0.203 0.23 0.391 0.335 0.591 0.086 0.161 0.215 0.293 0.31 0.45 0.137 0.222 0.244 0.462 0.362 0.696 0.103 0.208 0.205 0.374 0.332 0.565 0.134 0.2 0.222 0.45 0.337 0.665 0.088 0.159 0.166 0.303 0.281 0.442 0.108 0.125 0.271 0.215 0.332 0.371 0.086 0.227 0.090 0.54 0.090 0.784 0.002 0.352 0.13 0.543 0.301 0.828 0.090 0.152 0.078 0.247 0.086 0.411 0.007 0.203 0.103 0.369 0.22 0.528 0.132 0.178 0.301 0.349 0.415 0.538 0.071 0.115 0.093 0.293 0.125 0.42 0.044 0.176-0.032 0.286-0.076 0.459-0.071 0.264-0.022 0.352 0.054 0.591 0.051 0.169 0.061 0.357 0.088 0.535 0.029 0.188-0.037 0.362-0.066 0.55-0.039 0.252-0.105 0.508-0.215 0.736-0.144 0.291-0.21 0.567-0.291 0.877-0.11 0.415-0.183 0.784-0.188 1.212-0.005 0.271-0.078 0.616-0.191 0.858-0.108 0.225-0.198 0.484-0.354 0.684-0.115 0.152-0.235 0.269-0.342 0.437-0.093 0.144-0.134 0.296-0.232 0.435-0.073 0.105-0.13 0.12-0.225 0.195-0.076 0.061-0.142 0.183-0.239 0.215-0.088 0.032-0.247-0.056-0.22 0.103 0.034 0.183 0.391 0.2 0.45 0.349 0.305-0.068 0.589-0.249 0.838-0.435 0.166-0.125 0.227-0.244 0.335-0.413 0.098-0.152 0.21-0.271 0.281-0.435 0.083-0.193 0.159-0.34 0.274-0.516 0.269-0.42 0.45-0.865 0.579-1.347 0.108-0.393 0.342-0.736 0.45-1.124 0.132-0.472 0.218-0.965 0.208-1.454-0.005-0.32 0.066-0.633 0.064-0.956 0-0.2 0-0.398 0-0.599 0-0.095 0.027-0.249-0.005-0.345-0.027-0.083-0.11-0.125-0.127-0.227-0.037-0.227 0.005-0.499 0.005-0.728 0-0.303 0.078-0.652-0.188-0.868-0.071-0.059-0.11-0.017-0.21-0.11-0.12-0.108-0.252-0.288-0.305-0.43-0.090-0.237-0.105-0.496-0.169-0.738-0.029-0.11-0.081-0.208-0.12-0.315-0.071-0.203-0.061-0.42-0.115-0.623-0.054-0.205-0.125-0.437-0.193-0.64-0.044-0.122-0.147-0.252-0.23-0.347-0.174-0.2-0.391-0.403-0.528-0.635-0.21-0.359-0.408-0.574-0.792-0.748-0.137-0.064-0.205-0.081-0.293-0.196-0.093-0.122-0.117-0.169-0.174-0.315-0.059-0.161-0.105-0.315-0.156-0.479-0.11-0.347-0.254-0.648-0.428-0.965-0.105-0.191-0.166-0.379-0.252-0.577-0.073-0.171-0.142-0.227-0.166-0.398-0.049-0.342-0.144-0.689-0.208-1.031-0.032-0.164-0.076-0.313-0.178-0.447-0.039-0.051-0.090-0.105-0.139-0.147-0.039-0.032-0.073-0.029-0.103-0.078-0.042-0.068 0.005-0.137 0.051-0.261z"></path>
<path d="M5.833 4.707c0.103 0.122 0.166 0.188 0.198 0.337 0.034 0.154 0.064 0.303 0.095 0.464 0.049 0.23 0.071 0.457 0.173 0.657 0.076 0.142 0.076 0.291 0.098 0.462 0.095 0.846 0.125 1.686 0.303 2.52 0.049 0.227 0.017 0.484 0.083 0.704 0.059 0.188 0.142 0.384 0.171 0.557 0.007 0.054 0 0.139 0.007 0.205 0.007 0.064 0.012 0.112 0.007 0.178-0.012 0.181-0.044 0.362-0.066 0.54-0.022 0.161 0.034 0.32 0.098 0.467 0.066 0.149 0.112 0.313 0.159 0.477 0.144 0.511 0.066 0.968 0.024 1.493-0.020 0.261-0.015 0.574 0.068 0.824 0.073 0.217 0.098 0.435 0.149 0.652 0.029 0.127 0.093 0.252 0.144 0.374 0.13 0.323 0.252 0.652 0.43 0.951 0.174 0.286 0.359 0.533 0.577 0.794 0.139 0.171 0.318 0.274 0.455 0.442 0.061 0.071 0.117 0.164 0.186 0.225 0.061 0.056 0.112 0.054 0.174 0.098 0.071 0.054 0.215 0.222 0.252 0.303 0.024 0.046 0 0.086 0.022 0.132 0.049 0.11 0.156 0.254 0.225 0.357 0.103 0.159 0.244 0.308 0.371 0.452 0.098 0.11 0.203 0.115 0.318 0.203 0.115 0.083 0.205 0.159 0.337 0.22 0.086 0.042 0.181 0.042 0.269 0.076 0.127 0.051 0.244 0.125 0.376 0.171 0.274 0.098 0.53 0.2 0.784 0.362 0.247 0.159 0.555 0.298 0.828 0.42 0.374 0.166 0.716 0.215 1.097 0.083 0.1-0.034 0.188-0.098 0.283-0.132 0.093-0.034 0.183-0.027 0.274-0.066 0.183-0.083 0.369-0.132 0.55-0.225 0.286-0.144 0.55-0.13 0.843-0.22 0.122-0.037 0.225-0.132 0.357-0.176 0.144-0.049 0.244-0.147 0.381-0.195 0.166-0.061 0.269-0.1 0.408-0.215 0.105-0.088 0.247-0.152 0.369-0.21 0.174-0.081 0.318-0.112 0.472-0.242 0.144-0.125 0.296-0.242 0.44-0.369 0.342-0.296 0.545-0.718 0.89-1 0.088-0.073 0.279-0.203 0.117-0.313-0.12-0.083-0.293 0.117-0.403 0.174-0.374 0.195-0.709 0.555-1.031 0.824l-0.442 0.371c-0.323 0.271-0.689 0.455-1.070 0.628-0.068 0.032-0.117 0.037-0.178 0.083-0.076 0.056-0.132 0.127-0.218 0.169-0.269 0.132-0.594 0.115-0.88 0.076-0.125-0.015-0.244-0.017-0.364-0.027-0.161-0.015-0.305-0.095-0.462-0.147-0.108-0.034-0.213-0.051-0.323-0.071-0.027-0.005-0.064 0.015-0.090 0.007-0.034-0.007-0.054-0.056-0.086-0.068-0.147-0.054-0.357-0.090-0.511-0.127-0.183-0.044-0.325 0.134-0.523 0.11-0.393-0.046-0.728-0.144-1.061-0.379-0.23-0.161-0.481-0.286-0.74-0.391-0.259-0.103-0.464-0.411-0.679-0.613-0.134-0.125-0.271-0.257-0.43-0.349-0.095-0.054-0.178-0.086-0.254-0.159-0.108-0.103-0.196-0.237-0.291-0.352-0.191-0.225-0.379-0.45-0.567-0.674-0.178-0.213-0.411-0.418-0.513-0.682-0.068-0.174-0.076-0.367-0.142-0.55-0.095-0.269-0.205-0.525-0.264-0.806-0.059-0.274-0.178-0.545-0.261-0.811-0.061-0.198-0.176-0.413-0.208-0.616-0.044-0.271 0.027-0.596 0.039-0.872 0.029-0.594 0.017-1.18 0.090-1.784 0.042-0.347 0.266-0.608 0.183-0.978-0.034-0.154-0.1-0.298-0.181-0.433-0.178-0.298-0.271-0.596-0.386-0.924-0.064-0.186-0.105-0.271-0.122-0.459-0.022-0.23-0.095-0.44-0.196-0.645-0.044-0.093-0.12-0.186-0.154-0.279-0.027-0.076-0.017-0.154-0.039-0.227-0.093-0.291-0.149-0.609-0.279-0.892-0.117-0.259-0.359-0.481-0.543-0.701 0.247 0.296 0.499 0.591 0.745 0.887 0.156 0.191 0.335 0.308 0.528 0.455 0.332 0.252 0.701 0.503 1.085 0.67 0.21 0.090 0.428 0.152 0.638 0.237 0.171 0.071 0.354 0.088 0.528 0.147 0.247 0.081 0.486 0.196 0.723 0.301 0.213 0.093 0.398 0.154 0.618 0.218 0.232 0.068 0.459 0.203 0.687 0.293 0.169 0.066 0.32 0.125 0.499 0.156 0.161 0.029 0.347-0.007 0.494 0.073 0.213 0.117 0.415 0.357 0.574 0.543 0.227 0.266 0.447 0.332 0.76 0.44 0.169 0.059 0.22 0.139 0.33 0.261 0.139 0.149 0.318 0.215 0.508 0.261 0.215 0.051 0.457 0.073 0.665 0.144 0.127 0.044 0.259 0.166 0.364 0.242 0.149 0.11 0.161 0.239 0.237 0.401 0.117 0.247 0.21 0.283 0.423 0.42 0.147 0.095 0.276 0.232 0.411 0.352 0.144 0.127 0.205 0.303 0.305 0.464 0.13 0.217 0.244 0.457 0.305 0.701 0.078 0.318 0.203 0.569 0.342 0.86 0.183 0.389 0.364 0.716 0.635 1.048 0.171 0.21 0.337 0.521 0.403 0.78 0.064 0.242 0.161 0.499 0.171 0.753 0.007 0.188-0.007 0.357 0.017 0.555 0.022 0.171 0.088 0.313 0.103 0.484 0.012 0.125-0.022 0.174-0.046 0.293-0.017 0.095 0.007 0.232-0.044 0.318-0.046 0.081-0.225 0.117-0.103 0.22 0.144 0.12 0.425-0.098 0.567-0.020 0.193-0.249 0.291-0.569 0.364-0.875 0.046-0.2 0.017-0.33-0.010-0.53-0.022-0.178-0.012-0.342-0.064-0.513-0.061-0.203-0.095-0.362-0.122-0.572-0.066-0.494-0.213-0.951-0.423-1.405-0.171-0.369-0.21-0.782-0.379-1.149-0.203-0.447-0.452-0.877-0.775-1.249-0.21-0.239-0.354-0.523-0.565-0.772-0.13-0.152-0.257-0.305-0.384-0.457-0.064-0.076-0.139-0.21-0.225-0.261-0.078-0.046-0.166-0.027-0.244-0.093-0.176-0.149-0.318-0.384-0.467-0.56-0.193-0.232-0.359-0.55-0.701-0.545-0.090 0.002-0.093 0.056-0.23 0.051-0.161-0.005-0.379-0.059-0.513-0.132-0.22-0.125-0.396-0.313-0.601-0.457-0.095-0.066-0.195-0.108-0.293-0.166-0.186-0.11-0.318-0.281-0.491-0.403-0.171-0.122-0.376-0.257-0.56-0.364-0.112-0.066-0.271-0.1-0.398-0.12-0.261-0.044-0.56-0.059-0.811-0.149-0.393-0.139-0.682-0.176-1.088-0.064-0.147 0.039-0.208 0.071-0.352 0.039-0.149-0.032-0.196-0.054-0.335-0.132-0.149-0.083-0.283-0.171-0.428-0.264-0.308-0.196-0.608-0.332-0.948-0.464-0.203-0.081-0.371-0.183-0.562-0.279-0.169-0.083-0.257-0.083-0.384-0.2-0.257-0.23-0.555-0.435-0.824-0.655-0.127-0.108-0.259-0.193-0.423-0.23-0.064-0.015-0.137-0.020-0.203-0.022-0.049 0-0.073 0.024-0.13 0.005-0.076-0.024-0.083-0.105-0.127-0.232z"></path>
<path d="M1.012 13.505c0.156 0.027 0.247 0.037 0.369 0.132 0.125 0.095 0.244 0.191 0.371 0.293 0.183 0.144 0.347 0.305 0.555 0.391 0.149 0.061 0.247 0.176 0.371 0.293 0.618 0.587 1.18 1.212 1.852 1.735 0.183 0.142 0.323 0.359 0.516 0.484 0.166 0.108 0.354 0.205 0.489 0.318 0.042 0.037 0.090 0.108 0.137 0.152 0.049 0.044 0.083 0.081 0.12 0.134 0.108 0.147 0.2 0.303 0.298 0.455 0.088 0.139 0.232 0.222 0.376 0.296 0.144 0.071 0.286 0.166 0.428 0.261 0.44 0.301 0.672 0.699 0.978 1.129 0.152 0.213 0.359 0.45 0.582 0.587 0.196 0.12 0.354 0.271 0.533 0.406 0.105 0.078 0.235 0.13 0.352 0.193 0.308 0.164 0.613 0.337 0.941 0.45 0.318 0.11 0.618 0.178 0.953 0.239 0.215 0.042 0.418 0.005 0.633 0.046 0.090 0.017 0.193 0.051 0.286 0.054 0.083 0.002 0.122-0.032 0.196-0.037 0.088-0.005 0.308 0.032 0.386 0.068 0.049 0.022 0.056 0.066 0.103 0.088 0.108 0.054 0.283 0.093 0.401 0.13 0.183 0.056 0.386 0.078 0.577 0.108 0.144 0.022 0.23-0.044 0.374-0.051 0.139-0.007 0.259-0.010 0.398-0.046 0.090-0.024 0.166-0.086 0.254-0.115 0.13-0.042 0.269-0.064 0.398-0.11 0.274-0.103 0.535-0.188 0.836-0.227 0.288-0.039 0.616-0.13 0.902-0.213 0.393-0.112 0.689-0.293 0.897-0.64 0.054-0.090 0.081-0.195 0.132-0.283 0.049-0.086 0.125-0.137 0.166-0.227 0.088-0.181 0.198-0.337 0.279-0.525 0.125-0.293 0.337-0.452 0.503-0.709 0.068-0.108 0.088-0.247 0.159-0.364 0.078-0.132 0.093-0.269 0.166-0.396 0.090-0.154 0.142-0.249 0.176-0.428 0.024-0.134 0.090-0.274 0.149-0.398 0.078-0.171 0.171-0.288 0.203-0.486 0.032-0.191 0.073-0.379 0.103-0.567 0.068-0.445-0.046-0.902 0.037-1.339 0.022-0.11 0.083-0.332-0.11-0.313-0.144 0.012-0.152 0.279-0.198 0.391-0.161 0.391-0.188 0.88-0.259 1.295-0.034 0.188-0.068 0.379-0.103 0.569-0.073 0.415-0.237 0.789-0.415 1.168-0.032 0.068-0.066 0.103-0.086 0.178-0.022 0.090-0.017 0.181-0.056 0.269-0.122 0.274-0.381 0.469-0.626 0.623-0.105 0.068-0.198 0.144-0.296 0.213-0.134 0.093-0.296 0.125-0.447 0.186-0.105 0.044-0.198 0.095-0.293 0.154-0.024 0.015-0.039 0.051-0.064 0.064-0.032 0.015-0.078-0.010-0.11 0.002-0.149 0.051-0.33 0.159-0.474 0.232-0.169 0.083-0.161 0.31-0.327 0.418-0.335 0.218-0.652 0.359-1.058 0.391-0.279 0.024-0.552 0.090-0.819 0.178-0.264 0.086-0.621-0.017-0.914-0.032-0.183-0.010-0.374-0.024-0.555 0.007-0.105 0.020-0.191 0.049-0.298 0.042-0.147-0.010-0.303-0.056-0.447-0.083-0.291-0.051-0.579-0.103-0.87-0.152-0.274-0.049-0.582-0.056-0.831-0.193-0.164-0.090-0.291-0.232-0.459-0.33-0.247-0.144-0.496-0.271-0.723-0.447-0.22-0.174-0.484-0.305-0.721-0.457-0.171-0.11-0.401-0.203-0.555-0.335-0.208-0.181-0.364-0.477-0.53-0.696-0.359-0.472-0.745-0.914-1.078-1.422-0.191-0.291-0.186-0.64-0.486-0.868-0.127-0.095-0.269-0.164-0.418-0.215-0.327-0.115-0.591-0.281-0.89-0.459-0.169-0.103-0.257-0.142-0.391-0.274-0.161-0.161-0.354-0.276-0.562-0.369-0.093-0.042-0.21-0.066-0.298-0.115-0.068-0.039-0.112-0.105-0.176-0.149-0.257-0.164-0.506-0.367-0.784-0.501-0.259-0.125-0.587-0.139-0.868-0.191 0.379 0.068 0.76 0.134 1.141 0.203 0.242 0.042 0.455 0.020 0.696 0.007 0.415-0.022 0.86-0.066 1.261-0.186 0.22-0.066 0.425-0.159 0.64-0.227 0.176-0.056 0.327-0.161 0.499-0.227 0.242-0.095 0.499-0.161 0.748-0.235 0.222-0.066 0.403-0.139 0.613-0.23 0.222-0.098 0.481-0.142 0.714-0.22 0.173-0.056 0.327-0.108 0.484-0.198 0.142-0.083 0.261-0.23 0.425-0.261 0.237-0.046 0.547 0.005 0.787 0.046 0.347 0.059 0.557-0.034 0.868-0.152 0.166-0.064 0.257-0.034 0.42-0.012 0.203 0.027 0.381-0.039 0.557-0.127 0.198-0.098 0.396-0.235 0.601-0.315 0.125-0.049 0.305-0.042 0.437-0.049 0.181-0.012 0.276 0.078 0.437 0.154 0.249 0.115 0.342 0.081 0.594 0.051 0.174-0.022 0.362 0 0.54 0.005 0.193 0.002 0.352 0.098 0.533 0.159 0.239 0.083 0.481 0.193 0.684 0.342 0.264 0.193 0.523 0.303 0.816 0.44 0.391 0.178 0.738 0.313 1.161 0.393 0.266 0.051 0.591 0.183 0.811 0.337 0.203 0.144 0.442 0.279 0.613 0.467 0.127 0.139 0.222 0.279 0.369 0.413 0.125 0.117 0.269 0.183 0.389 0.305 0.090 0.088 0.095 0.147 0.154 0.254 0.046 0.083 0.154 0.171 0.171 0.271 0.015 0.093-0.098 0.235 0.061 0.235 0.188 0 0.264-0.347 0.423-0.379-0.015-0.315-0.142-0.626-0.283-0.904-0.093-0.186-0.2-0.264-0.347-0.401-0.132-0.122-0.23-0.252-0.381-0.352-0.176-0.115-0.305-0.215-0.459-0.357-0.369-0.34-0.775-0.594-1.227-0.806-0.369-0.174-0.665-0.464-1.029-0.638-0.442-0.21-0.912-0.381-1.395-0.457-0.315-0.049-0.611-0.174-0.929-0.23-0.198-0.034-0.393-0.068-0.589-0.103-0.095-0.017-0.242-0.071-0.34-0.056-0.090 0.015-0.144 0.086-0.249 0.086-0.227 0-0.489-0.088-0.714-0.13-0.301-0.051-0.63-0.191-0.89 0.034-0.068 0.059-0.034 0.105-0.144 0.188-0.127 0.098-0.325 0.198-0.477 0.227-0.249 0.046-0.506 0.015-0.755 0.037-0.115 0.010-0.22 0.044-0.332 0.061-0.21 0.034-0.423-0.012-0.633 0.007-0.213 0.017-0.452 0.046-0.662 0.081-0.13 0.020-0.274 0.098-0.384 0.164-0.227 0.137-0.467 0.315-0.716 0.408-0.391 0.144-0.638 0.305-0.875 0.65-0.088 0.125-0.115 0.188-0.244 0.257-0.134 0.071-0.186 0.086-0.34 0.115-0.171 0.032-0.327 0.049-0.501 0.071-0.359 0.049-0.679 0.137-1.024 0.254-0.205 0.068-0.401 0.098-0.611 0.149-0.181 0.042-0.247 0.1-0.42 0.093-0.345-0.012-0.704 0.024-1.051 0.027-0.169 0-0.323 0.017-0.474 0.095-0.056 0.032-0.117 0.073-0.169 0.115-0.037 0.032-0.039 0.066-0.095 0.086-0.073 0.032-0.132-0.027-0.247-0.095z"></path>
<path d="M2.488 24.267c0.137-0.078 0.213-0.13 0.367-0.137 0.159-0.007 0.31-0.010 0.474-0.015 0.235-0.005 0.462 0.012 0.677-0.056 0.152-0.049 0.301-0.024 0.472-0.012 0.85 0.051 1.684 0.169 2.534 0.137 0.232-0.010 0.479 0.068 0.706 0.039 0.198-0.024 0.403-0.071 0.579-0.068 0.056 0 0.139 0.022 0.203 0.024 0.064 0.005 0.115 0.010 0.178 0.027 0.176 0.044 0.347 0.103 0.521 0.159 0.156 0.049 0.32 0.020 0.477-0.017 0.159-0.039 0.327-0.056 0.496-0.073 0.53-0.054 0.965 0.103 1.476 0.235 0.254 0.066 0.562 0.115 0.821 0.076 0.227-0.032 0.445-0.020 0.67-0.032 0.13-0.007 0.264-0.051 0.393-0.078 0.342-0.073 0.687-0.134 1.012-0.259 0.31-0.12 0.587-0.261 0.882-0.43 0.191-0.108 0.323-0.264 0.513-0.371 0.081-0.046 0.183-0.086 0.254-0.144 0.066-0.049 0.073-0.1 0.127-0.152 0.064-0.061 0.257-0.174 0.34-0.198 0.051-0.012 0.086 0.015 0.137 0.002 0.115-0.027 0.274-0.11 0.389-0.159 0.176-0.073 0.347-0.188 0.511-0.286 0.125-0.078 0.147-0.181 0.254-0.281 0.103-0.095 0.193-0.174 0.276-0.291 0.054-0.078 0.071-0.174 0.12-0.252 0.071-0.117 0.166-0.22 0.235-0.342 0.144-0.252 0.288-0.486 0.494-0.709 0.198-0.215 0.389-0.496 0.555-0.743 0.23-0.34 0.34-0.667 0.274-1.068-0.015-0.103-0.064-0.2-0.081-0.301-0.017-0.098 0.007-0.186-0.017-0.281-0.049-0.195-0.066-0.386-0.125-0.582-0.095-0.305-0.034-0.562-0.071-0.868-0.017-0.127-0.090-0.244-0.112-0.381-0.022-0.152-0.103-0.266-0.127-0.411-0.029-0.174-0.051-0.281-0.142-0.44-0.066-0.12-0.105-0.269-0.139-0.401-0.051-0.183-0.056-0.332-0.159-0.503-0.098-0.166-0.186-0.335-0.286-0.499-0.232-0.389-0.613-0.662-0.831-1.051-0.056-0.1-0.149-0.308-0.286-0.169-0.103 0.103 0.064 0.31 0.1 0.425 0.127 0.403 0.423 0.797 0.633 1.161 0.095 0.166 0.193 0.332 0.288 0.501 0.21 0.364 0.325 0.758 0.433 1.163 0.020 0.071 0.015 0.12 0.049 0.191 0.042 0.083 0.103 0.149 0.13 0.242 0.083 0.288 0.010 0.604-0.078 0.88-0.037 0.12-0.059 0.237-0.090 0.352-0.042 0.159-0.147 0.286-0.222 0.43-0.054 0.1-0.090 0.2-0.127 0.305-0.010 0.027 0.002 0.066-0.007 0.090-0.015 0.032-0.066 0.044-0.083 0.073-0.081 0.134-0.149 0.335-0.215 0.481-0.076 0.174 0.078 0.342 0.020 0.533-0.115 0.381-0.269 0.692-0.56 0.98-0.198 0.198-0.364 0.423-0.513 0.66-0.147 0.237-0.486 0.386-0.721 0.565-0.147 0.11-0.301 0.222-0.418 0.364-0.071 0.081-0.115 0.159-0.203 0.222-0.12 0.086-0.266 0.149-0.396 0.225-0.254 0.147-0.508 0.293-0.765 0.44-0.239 0.139-0.481 0.332-0.76 0.386-0.183 0.037-0.371 0.012-0.565 0.044-0.281 0.049-0.552 0.11-0.841 0.122-0.279 0.010-0.567 0.078-0.846 0.115-0.203 0.024-0.437 0.1-0.64 0.098-0.276-0.002-0.584-0.13-0.853-0.191-0.582-0.132-1.161-0.222-1.742-0.398-0.332-0.1-0.552-0.369-0.929-0.352-0.159 0.010-0.31 0.049-0.459 0.105-0.323 0.122-0.633 0.164-0.975 0.22-0.196 0.029-0.286 0.056-0.474 0.042-0.23-0.020-0.452 0.017-0.67 0.078-0.098 0.029-0.203 0.086-0.303 0.103-0.076 0.015-0.152-0.007-0.23 0.002-0.301 0.039-0.623 0.042-0.924 0.117-0.279 0.071-0.54 0.271-0.787 0.413 0.335-0.193 0.67-0.386 1.004-0.579 0.213-0.122 0.362-0.276 0.538-0.442 0.305-0.283 0.618-0.601 0.848-0.953 0.127-0.191 0.222-0.393 0.345-0.587 0.098-0.154 0.147-0.332 0.235-0.494 0.125-0.227 0.279-0.445 0.423-0.66 0.13-0.193 0.22-0.367 0.323-0.572 0.108-0.218 0.276-0.415 0.406-0.626 0.095-0.154 0.181-0.293 0.242-0.464 0.056-0.154 0.051-0.342 0.159-0.472 0.152-0.188 0.423-0.347 0.633-0.472 0.303-0.176 0.406-0.384 0.567-0.672 0.086-0.156 0.174-0.191 0.313-0.281 0.174-0.108 0.266-0.274 0.347-0.455 0.088-0.203 0.152-0.435 0.257-0.628 0.066-0.117 0.208-0.227 0.303-0.318 0.132-0.127 0.264-0.117 0.435-0.164 0.264-0.071 0.315-0.159 0.486-0.342 0.12-0.13 0.279-0.232 0.418-0.345 0.149-0.12 0.332-0.152 0.511-0.22 0.237-0.090 0.491-0.161 0.743-0.178 0.327-0.022 0.596-0.103 0.909-0.188 0.413-0.112 0.767-0.235 1.141-0.445 0.237-0.132 0.572-0.239 0.838-0.261 0.249-0.020 0.518-0.071 0.77-0.037 0.188 0.024 0.349 0.068 0.55 0.078 0.171 0.010 0.325-0.032 0.494-0.017 0.127 0.012 0.166 0.051 0.281 0.098 0.090 0.034 0.23 0.032 0.305 0.098 0.071 0.061 0.076 0.242 0.198 0.139 0.144-0.12-0.022-0.435 0.081-0.562-0.213-0.232-0.511-0.386-0.799-0.508-0.191-0.083-0.323-0.076-0.523-0.086-0.181-0.007-0.34-0.044-0.518-0.024-0.21 0.024-0.374 0.032-0.584 0.022-0.499-0.022-0.973 0.042-1.457 0.171-0.393 0.105-0.806 0.071-1.197 0.174-0.474 0.122-0.943 0.293-1.364 0.547-0.274 0.164-0.577 0.259-0.858 0.42-0.174 0.1-0.347 0.2-0.518 0.301-0.086 0.046-0.23 0.1-0.296 0.176-0.059 0.066-0.054 0.156-0.134 0.225-0.176 0.144-0.433 0.244-0.633 0.359-0.261 0.152-0.604 0.259-0.657 0.596-0.015 0.090 0.039 0.103 0.010 0.237-0.034 0.156-0.122 0.362-0.22 0.481-0.159 0.195-0.376 0.337-0.555 0.513-0.081 0.081-0.139 0.174-0.213 0.261-0.142 0.161-0.332 0.261-0.481 0.411-0.152 0.149-0.318 0.327-0.457 0.489-0.086 0.098-0.147 0.252-0.188 0.371-0.088 0.252-0.154 0.54-0.286 0.775-0.205 0.362-0.291 0.64-0.252 1.061 0.012 0.149 0.032 0.215-0.022 0.352-0.059 0.139-0.088 0.183-0.188 0.305-0.11 0.134-0.218 0.249-0.335 0.376-0.247 0.269-0.435 0.543-0.623 0.853-0.112 0.186-0.244 0.332-0.371 0.506-0.112 0.149-0.127 0.237-0.264 0.345-0.271 0.213-0.523 0.469-0.787 0.694-0.127 0.11-0.237 0.222-0.301 0.379-0.024 0.059-0.044 0.13-0.056 0.195-0.010 0.049 0.010 0.076-0.017 0.127-0.039 0.071-0.12 0.064-0.252 0.086z"></path>
<path d="M11.029 31c0.054-0.149 0.081-0.237 0.193-0.342 0.115-0.105 0.23-0.205 0.354-0.313 0.176-0.156 0.362-0.288 0.481-0.479 0.086-0.134 0.215-0.213 0.354-0.315 0.684-0.506 1.398-0.951 2.028-1.522 0.174-0.156 0.411-0.257 0.567-0.425 0.134-0.144 0.264-0.313 0.398-0.423 0.044-0.037 0.122-0.073 0.174-0.11 0.051-0.039 0.093-0.068 0.152-0.095 0.164-0.081 0.335-0.144 0.501-0.215 0.152-0.061 0.259-0.191 0.354-0.318 0.098-0.132 0.215-0.254 0.332-0.376 0.371-0.381 0.806-0.54 1.283-0.767 0.237-0.112 0.503-0.274 0.677-0.469 0.154-0.174 0.327-0.303 0.491-0.455 0.098-0.090 0.171-0.21 0.254-0.315 0.213-0.274 0.437-0.543 0.606-0.848 0.161-0.293 0.283-0.577 0.401-0.897 0.078-0.205 0.078-0.411 0.154-0.613 0.034-0.088 0.086-0.183 0.103-0.274 0.017-0.081-0.010-0.125 0-0.198 0.007-0.088 0.083-0.298 0.134-0.369 0.029-0.044 0.073-0.044 0.105-0.086 0.071-0.098 0.139-0.261 0.195-0.371 0.086-0.171 0.144-0.369 0.205-0.55 0.046-0.139-0.002-0.232 0.015-0.376 0.017-0.142 0.037-0.259 0.024-0.403-0.007-0.093-0.056-0.176-0.068-0.269-0.020-0.134-0.017-0.276-0.042-0.411-0.051-0.288-0.093-0.56-0.078-0.863 0.015-0.291-0.020-0.628-0.051-0.926-0.042-0.408-0.171-0.728-0.477-0.995-0.078-0.068-0.178-0.112-0.257-0.178-0.073-0.064-0.112-0.147-0.193-0.203-0.164-0.117-0.298-0.254-0.469-0.367-0.269-0.174-0.386-0.408-0.611-0.618-0.093-0.086-0.227-0.13-0.332-0.22-0.112-0.1-0.249-0.137-0.359-0.232-0.137-0.115-0.222-0.181-0.391-0.247-0.127-0.049-0.254-0.137-0.367-0.215-0.154-0.11-0.254-0.22-0.445-0.286-0.181-0.064-0.359-0.137-0.54-0.198-0.425-0.147-0.894-0.112-1.31-0.271-0.108-0.039-0.313-0.139-0.33 0.056-0.012 0.144 0.249 0.196 0.352 0.261 0.357 0.227 0.833 0.337 1.229 0.481 0.181 0.066 0.362 0.132 0.545 0.198 0.396 0.144 0.736 0.371 1.078 0.613 0.061 0.042 0.088 0.083 0.161 0.115 0.086 0.037 0.174 0.049 0.254 0.103 0.249 0.166 0.396 0.457 0.506 0.723 0.049 0.115 0.105 0.22 0.156 0.327 0.071 0.149 0.071 0.313 0.108 0.474 0.022 0.11 0.059 0.21 0.098 0.315 0.010 0.027 0.046 0.049 0.051 0.073 0.010 0.034-0.022 0.076-0.017 0.11 0.027 0.154 0.103 0.352 0.147 0.506 0.054 0.181 0.279 0.213 0.357 0.396 0.156 0.367 0.239 0.704 0.203 1.109-0.027 0.279-0.007 0.56 0.032 0.836s-0.125 0.608-0.191 0.897c-0.042 0.178-0.088 0.364-0.088 0.547 0 0.108 0.015 0.195-0.012 0.301-0.034 0.142-0.108 0.288-0.159 0.425-0.1 0.276-0.2 0.555-0.301 0.831-0.095 0.259-0.156 0.565-0.335 0.784-0.117 0.144-0.279 0.247-0.403 0.396-0.186 0.218-0.354 0.44-0.567 0.633-0.208 0.188-0.384 0.425-0.574 0.631-0.139 0.152-0.269 0.359-0.428 0.489-0.213 0.174-0.53 0.276-0.777 0.401-0.528 0.274-1.029 0.577-1.588 0.816-0.32 0.137-0.662 0.073-0.938 0.327-0.117 0.108-0.208 0.237-0.283 0.374-0.169 0.303-0.381 0.535-0.608 0.797-0.13 0.149-0.181 0.227-0.335 0.337-0.188 0.132-0.335 0.301-0.462 0.491-0.059 0.083-0.1 0.195-0.166 0.271-0.049 0.061-0.122 0.093-0.176 0.149-0.205 0.225-0.45 0.433-0.63 0.687-0.169 0.232-0.239 0.552-0.337 0.821 0.132-0.364 0.261-0.728 0.396-1.090 0.086-0.23 0.1-0.445 0.13-0.684 0.051-0.413 0.086-0.858 0.037-1.276-0.027-0.227-0.083-0.445-0.115-0.67-0.024-0.183-0.1-0.349-0.137-0.53-0.051-0.254-0.073-0.518-0.1-0.777-0.027-0.232-0.066-0.423-0.12-0.645-0.059-0.235-0.056-0.496-0.090-0.74-0.027-0.178-0.051-0.34-0.115-0.511-0.056-0.154-0.181-0.296-0.183-0.464-0.002-0.242 0.1-0.538 0.183-0.767 0.117-0.33 0.064-0.555 0.002-0.88-0.034-0.174 0.010-0.259 0.059-0.415 0.064-0.195 0.029-0.381-0.027-0.572-0.061-0.213-0.164-0.43-0.205-0.648-0.027-0.13 0.012-0.305 0.027-0.437 0.020-0.181 0.127-0.259 0.227-0.406 0.156-0.222 0.142-0.323 0.154-0.574 0.007-0.174 0.064-0.354 0.098-0.533 0.037-0.186 0.159-0.327 0.252-0.496 0.122-0.22 0.271-0.44 0.455-0.613 0.235-0.227 0.391-0.462 0.574-0.728 0.242-0.352 0.435-0.672 0.589-1.075 0.095-0.252 0.283-0.55 0.474-0.738 0.176-0.176 0.349-0.389 0.565-0.523 0.159-0.103 0.313-0.171 0.474-0.293 0.134-0.103 0.225-0.235 0.364-0.33 0.105-0.073 0.164-0.068 0.279-0.108 0.090-0.032 0.195-0.122 0.298-0.12 0.093 0 0.213 0.137 0.242-0.022 0.032-0.183-0.298-0.32-0.301-0.481-0.313-0.042-0.64 0.032-0.938 0.122-0.2 0.059-0.296 0.152-0.457 0.274-0.142 0.108-0.288 0.183-0.413 0.313-0.144 0.154-0.264 0.264-0.433 0.391-0.396 0.303-0.718 0.66-1.004 1.068-0.235 0.332-0.574 0.574-0.806 0.902-0.286 0.398-0.535 0.833-0.694 1.295-0.103 0.303-0.276 0.572-0.386 0.875-0.068 0.188-0.137 0.376-0.205 0.565-0.032 0.090-0.11 0.225-0.112 0.323-0.002 0.090 0.059 0.156 0.042 0.259-0.042 0.225-0.174 0.467-0.252 0.682-0.105 0.286-0.298 0.587-0.122 0.882 0.046 0.076 0.098 0.051 0.161 0.174 0.073 0.142 0.137 0.357 0.139 0.511 0.005 0.252-0.071 0.499-0.093 0.748-0.012 0.115 0.002 0.225 0.002 0.337-0.002 0.215-0.086 0.415-0.105 0.626-0.020 0.213-0.032 0.455-0.034 0.667-0.002 0.132 0.049 0.286 0.095 0.406 0.093 0.249 0.23 0.513 0.276 0.777 0.076 0.411 0.191 0.679 0.489 0.975 0.108 0.105 0.166 0.144 0.21 0.283 0.046 0.144 0.051 0.198 0.054 0.354 0.002 0.174-0.007 0.332-0.015 0.506-0.017 0.362 0.015 0.694 0.071 1.053 0.032 0.215 0.027 0.411 0.039 0.626 0.012 0.186 0.056 0.261 0.020 0.433-0.071 0.337-0.1 0.696-0.156 1.039-0.027 0.166-0.037 0.32 0.012 0.481 0.020 0.064 0.051 0.13 0.083 0.188 0.024 0.042 0.059 0.051 0.068 0.108 0.017 0.078-0.049 0.125-0.137 0.227z"></path>
<path d="M21.549 30.976c-0.054-0.149-0.090-0.232-0.071-0.386 0.020-0.156 0.044-0.305 0.068-0.467 0.034-0.232 0.093-0.455 0.061-0.677-0.020-0.159 0.029-0.301 0.068-0.469 0.2-0.826 0.459-1.628 0.577-2.471 0.029-0.23 0.149-0.459 0.161-0.689 0.010-0.198 0-0.408 0.032-0.582 0.010-0.054 0.046-0.132 0.061-0.195s0.029-0.11 0.056-0.171c0.073-0.166 0.164-0.325 0.247-0.484 0.076-0.147 0.076-0.313 0.066-0.474s0.002-0.332 0.015-0.501c0.039-0.53 0.269-0.934 0.486-1.413 0.11-0.237 0.21-0.533 0.218-0.794 0.007-0.23 0.059-0.442 0.086-0.665 0.015-0.13-0.005-0.269-0.010-0.403-0.012-0.347-0.012-0.699-0.078-1.039-0.066-0.33-0.156-0.626-0.269-0.946-0.073-0.205-0.205-0.364-0.279-0.569-0.029-0.088-0.054-0.193-0.098-0.276-0.037-0.071-0.086-0.088-0.127-0.152-0.049-0.073-0.127-0.281-0.134-0.369-0.007-0.051 0.029-0.081 0.024-0.132-0.007-0.12-0.061-0.291-0.088-0.411-0.044-0.186-0.125-0.376-0.195-0.555-0.054-0.137-0.152-0.176-0.23-0.296s-0.139-0.222-0.239-0.325c-0.066-0.066-0.159-0.1-0.227-0.161-0.103-0.090-0.188-0.2-0.296-0.288-0.225-0.188-0.43-0.371-0.613-0.611-0.178-0.232-0.42-0.469-0.635-0.677-0.293-0.283-0.599-0.45-1.002-0.455-0.105-0.002-0.21 0.027-0.313 0.027-0.098 0-0.181-0.039-0.279-0.029-0.2 0.015-0.391-0.005-0.594 0.020-0.318 0.039-0.56-0.064-0.868-0.081-0.127-0.005-0.257 0.046-0.396 0.044-0.152-0.002-0.279 0.056-0.425 0.054-0.176 0-0.286 0.002-0.457 0.064-0.13 0.044-0.283 0.056-0.418 0.068-0.191 0.017-0.337-0.002-0.525 0.068-0.178 0.068-0.362 0.127-0.54 0.195-0.423 0.161-0.76 0.489-1.18 0.635-0.105 0.037-0.327 0.095-0.215 0.252 0.083 0.12 0.318-0.007 0.437-0.024 0.418-0.054 0.855-0.276 1.251-0.42 0.181-0.066 0.362-0.132 0.543-0.198 0.398-0.144 0.804-0.188 1.222-0.225 0.073-0.005 0.122 0.007 0.195-0.015 0.090-0.027 0.166-0.076 0.261-0.086 0.298-0.032 0.596 0.095 0.853 0.23 0.112 0.056 0.222 0.1 0.332 0.152 0.149 0.068 0.254 0.193 0.384 0.293 0.090 0.068 0.183 0.122 0.281 0.178 0.024 0.012 0.064 0.007 0.086 0.022 0.029 0.022 0.032 0.073 0.059 0.095 0.12 0.1 0.303 0.205 0.437 0.296 0.156 0.103 0.349-0.017 0.528 0.073 0.354 0.178 0.633 0.384 0.865 0.718 0.161 0.232 0.354 0.435 0.565 0.621 0.205 0.186 0.296 0.547 0.428 0.809 0.086 0.164 0.166 0.335 0.286 0.477 0.068 0.081 0.137 0.139 0.183 0.237 0.066 0.132 0.103 0.291 0.154 0.428 0.1 0.276 0.2 0.555 0.301 0.831 0.095 0.261 0.244 0.533 0.249 0.814 0.005 0.188-0.054 0.369-0.056 0.565 0 0.286 0.015 0.565-0.024 0.848-0.039 0.279-0.022 0.574-0.034 0.853-0.010 0.205 0.024 0.45-0.015 0.65-0.051 0.269-0.23 0.552-0.337 0.806-0.23 0.55-0.418 1.105-0.692 1.647-0.159 0.31-0.462 0.479-0.508 0.853-0.022 0.159-0.010 0.315 0.022 0.469 0.066 0.342 0.051 0.655 0.046 1-0.002 0.198 0.007 0.293-0.042 0.477-0.059 0.22-0.061 0.445-0.039 0.672 0.012 0.1 0.051 0.215 0.051 0.315 0 0.078-0.037 0.149-0.042 0.227-0.012 0.303-0.066 0.621-0.042 0.931 0.022 0.286 0.171 0.577 0.269 0.846-0.132-0.364-0.264-0.726-0.396-1.090-0.083-0.232-0.21-0.403-0.342-0.606-0.227-0.352-0.486-0.714-0.792-1.002-0.166-0.156-0.349-0.288-0.516-0.44-0.137-0.125-0.303-0.203-0.447-0.318-0.203-0.161-0.389-0.352-0.577-0.53-0.169-0.161-0.323-0.281-0.506-0.415-0.195-0.144-0.362-0.347-0.545-0.511-0.137-0.12-0.259-0.227-0.415-0.318-0.142-0.083-0.33-0.112-0.44-0.237-0.159-0.183-0.269-0.477-0.352-0.706-0.122-0.33-0.308-0.467-0.565-0.674-0.139-0.112-0.159-0.205-0.222-0.359-0.078-0.188-0.225-0.308-0.389-0.418-0.183-0.125-0.401-0.227-0.574-0.364-0.103-0.083-0.186-0.244-0.259-0.352-0.103-0.152-0.071-0.281-0.086-0.459-0.024-0.271-0.1-0.337-0.254-0.538-0.105-0.139-0.178-0.313-0.266-0.472-0.090-0.166-0.088-0.354-0.125-0.54-0.049-0.249-0.076-0.513-0.049-0.765 0.037-0.323 0.002-0.604-0.027-0.924-0.039-0.428-0.098-0.797-0.239-1.202-0.088-0.257-0.137-0.606-0.112-0.872 0.022-0.247 0.020-0.523 0.098-0.762 0.056-0.181 0.13-0.332 0.174-0.53 0.037-0.166 0.024-0.323 0.068-0.489 0.032-0.122 0.081-0.154 0.144-0.259 0.049-0.083 0.071-0.22 0.149-0.283 0.073-0.059 0.252-0.032 0.174-0.171-0.095-0.164-0.435-0.054-0.543-0.176-0.264 0.169-0.467 0.435-0.638 0.696-0.115 0.174-0.13 0.305-0.174 0.501-0.042 0.176-0.105 0.327-0.115 0.506-0.012 0.21-0.034 0.374-0.081 0.579-0.11 0.486-0.127 0.965-0.086 1.464 0.034 0.406-0.068 0.806-0.037 1.21 0.037 0.489 0.127 0.98 0.303 1.437 0.112 0.298 0.154 0.616 0.264 0.919 0.071 0.188 0.137 0.376 0.205 0.562 0.034 0.093 0.061 0.244 0.122 0.323 0.056 0.071 0.147 0.081 0.198 0.171 0.112 0.198 0.166 0.469 0.247 0.684 0.103 0.286 0.149 0.64 0.472 0.753 0.086 0.029 0.108-0.022 0.235 0.032 0.149 0.059 0.335 0.183 0.435 0.301 0.166 0.191 0.266 0.428 0.411 0.633 0.066 0.095 0.147 0.169 0.22 0.257 0.134 0.166 0.2 0.374 0.32 0.547 0.122 0.174 0.269 0.369 0.403 0.533 0.083 0.1 0.222 0.188 0.335 0.249 0.23 0.13 0.506 0.247 0.711 0.415 0.32 0.266 0.582 0.401 1 0.435 0.152 0.012 0.22 0.002 0.345 0.081 0.127 0.083 0.166 0.117 0.269 0.239 0.112 0.13 0.208 0.257 0.313 0.396 0.22 0.286 0.457 0.521 0.731 0.76 0.164 0.144 0.286 0.298 0.435 0.455 0.127 0.134 0.21 0.164 0.291 0.318 0.161 0.305 0.371 0.599 0.547 0.897 0.086 0.144 0.178 0.271 0.32 0.362 0.056 0.034 0.122 0.066 0.183 0.090 0.046 0.017 0.078 0.002 0.122 0.039 0.064 0.049 0.044 0.127 0.042 0.261z"></path>
<path d="M29.592 23.896c-0.137-0.078-0.22-0.12-0.303-0.249-0.086-0.132-0.161-0.264-0.247-0.403-0.125-0.2-0.222-0.406-0.389-0.557-0.117-0.108-0.171-0.249-0.249-0.403-0.379-0.762-0.694-1.542-1.146-2.263-0.125-0.198-0.181-0.45-0.32-0.633-0.12-0.156-0.261-0.313-0.349-0.464-0.027-0.049-0.049-0.132-0.078-0.191-0.029-0.056-0.049-0.103-0.066-0.166-0.051-0.176-0.086-0.354-0.125-0.53-0.034-0.159-0.142-0.288-0.252-0.406-0.112-0.117-0.213-0.254-0.313-0.391-0.31-0.433-0.393-0.89-0.533-1.398-0.071-0.252-0.183-0.543-0.345-0.748-0.144-0.181-0.239-0.376-0.364-0.562-0.071-0.11-0.174-0.205-0.264-0.303-0.232-0.259-0.459-0.528-0.731-0.745-0.259-0.21-0.518-0.379-0.811-0.552-0.191-0.11-0.393-0.147-0.579-0.257-0.081-0.049-0.166-0.115-0.252-0.149-0.076-0.032-0.125-0.012-0.195-0.034-0.086-0.024-0.279-0.134-0.34-0.196-0.039-0.037-0.032-0.081-0.066-0.117-0.083-0.088-0.235-0.183-0.332-0.259-0.154-0.115-0.337-0.205-0.506-0.298-0.127-0.071-0.23-0.037-0.369-0.081-0.134-0.042-0.247-0.081-0.391-0.093-0.093-0.007-0.183 0.024-0.276 0.022-0.137-0.005-0.274-0.032-0.413-0.032-0.291 0-0.567-0.007-0.863-0.073-0.283-0.064-0.623-0.090-0.921-0.11-0.408-0.029-0.748 0.042-1.061 0.296-0.081 0.066-0.142 0.156-0.22 0.222-0.076 0.061-0.164 0.086-0.235 0.156-0.144 0.139-0.303 0.249-0.442 0.398-0.217 0.235-0.469 0.308-0.716 0.494-0.1 0.078-0.166 0.2-0.274 0.288-0.12 0.095-0.178 0.222-0.291 0.315-0.137 0.112-0.217 0.186-0.31 0.342-0.071 0.117-0.181 0.225-0.276 0.323-0.134 0.134-0.261 0.213-0.359 0.389-0.093 0.166-0.196 0.33-0.288 0.496-0.217 0.396-0.266 0.863-0.494 1.246-0.059 0.098-0.191 0.283-0.005 0.332 0.142 0.037 0.237-0.21 0.32-0.301 0.286-0.313 0.479-0.762 0.689-1.127 0.095-0.169 0.191-0.335 0.288-0.501 0.21-0.367 0.494-0.662 0.792-0.956 0.051-0.054 0.095-0.076 0.139-0.139 0.051-0.078 0.078-0.164 0.147-0.235 0.208-0.215 0.518-0.308 0.799-0.371 0.122-0.027 0.237-0.066 0.352-0.098 0.159-0.042 0.32-0.015 0.484-0.022 0.112-0.005 0.218-0.022 0.327-0.044 0.029-0.005 0.056-0.034 0.081-0.037 0.037-0.002 0.073 0.034 0.108 0.034 0.156 0.002 0.364-0.037 0.523-0.054 0.188-0.022 0.257-0.237 0.452-0.283 0.386-0.090 0.733-0.112 1.127-0.007 0.271 0.076 0.55 0.105 0.831 0.115 0.276 0.010 0.577 0.227 0.848 0.342 0.169 0.073 0.342 0.152 0.523 0.183 0.108 0.017 0.195 0.020 0.293 0.064 0.134 0.059 0.266 0.156 0.393 0.23 0.254 0.147 0.511 0.293 0.765 0.442 0.239 0.137 0.528 0.252 0.714 0.464 0.125 0.139 0.195 0.318 0.32 0.467 0.183 0.22 0.374 0.425 0.525 0.667 0.149 0.237 0.352 0.452 0.523 0.674 0.125 0.164 0.308 0.327 0.406 0.506 0.134 0.239 0.178 0.572 0.261 0.836 0.176 0.567 0.389 1.114 0.525 1.706 0.081 0.34-0.042 0.665 0.161 0.982 0.086 0.132 0.195 0.244 0.318 0.345 0.271 0.218 0.459 0.467 0.679 0.736 0.125 0.154 0.193 0.22 0.274 0.389 0.098 0.208 0.239 0.381 0.403 0.54 0.073 0.073 0.176 0.134 0.239 0.21 0.051 0.061 0.068 0.137 0.117 0.2 0.183 0.242 0.347 0.518 0.565 0.74 0.2 0.205 0.503 0.332 0.75 0.474-0.335-0.193-0.67-0.386-1.004-0.579-0.213-0.125-0.42-0.176-0.65-0.247-0.401-0.122-0.831-0.232-1.251-0.257-0.227-0.012-0.452 0.005-0.679-0.005-0.183-0.007-0.362 0.039-0.545 0.044-0.261 0.007-0.523-0.020-0.784-0.037-0.232-0.015-0.425-0.007-0.655 0.007-0.242 0.015-0.499-0.032-0.745-0.039-0.181-0.005-0.345-0.010-0.523 0.022-0.161 0.029-0.323 0.127-0.489 0.1-0.237-0.039-0.511-0.193-0.723-0.313-0.305-0.174-0.535-0.159-0.868-0.154-0.176 0.002-0.252-0.056-0.398-0.132-0.181-0.095-0.371-0.093-0.567-0.073-0.22 0.024-0.452 0.088-0.672 0.093-0.134 0.002-0.301-0.066-0.428-0.105-0.174-0.049-0.232-0.169-0.359-0.293-0.193-0.193-0.293-0.195-0.54-0.252-0.171-0.039-0.34-0.125-0.508-0.191-0.176-0.068-0.296-0.213-0.442-0.332-0.198-0.159-0.389-0.345-0.528-0.552-0.181-0.271-0.386-0.467-0.616-0.694-0.305-0.301-0.587-0.547-0.956-0.767-0.232-0.137-0.496-0.374-0.648-0.594-0.142-0.205-0.32-0.413-0.415-0.648-0.073-0.176-0.115-0.337-0.208-0.516-0.078-0.152-0.191-0.264-0.261-0.418-0.054-0.115-0.039-0.171-0.056-0.293-0.015-0.095-0.088-0.215-0.068-0.315 0.020-0.090 0.174-0.186 0.022-0.239-0.176-0.064-0.367 0.237-0.525 0.213-0.095 0.301-0.081 0.635-0.044 0.946 0.024 0.205 0.098 0.318 0.191 0.494 0.083 0.161 0.13 0.318 0.237 0.462 0.125 0.169 0.213 0.308 0.31 0.494 0.23 0.445 0.523 0.824 0.877 1.178 0.286 0.288 0.464 0.662 0.748 0.951 0.342 0.349 0.726 0.67 1.156 0.907 0.279 0.154 0.513 0.371 0.794 0.533 0.174 0.1 0.345 0.2 0.518 0.298 0.083 0.049 0.203 0.149 0.301 0.169 0.088 0.017 0.164-0.032 0.261 0.005 0.215 0.078 0.43 0.252 0.628 0.367 0.261 0.152 0.525 0.393 0.846 0.271 0.086-0.032 0.068-0.086 0.2-0.127 0.152-0.049 0.374-0.073 0.525-0.049 0.252 0.039 0.481 0.156 0.723 0.222 0.11 0.029 0.22 0.034 0.332 0.056 0.21 0.039 0.393 0.154 0.596 0.21 0.205 0.056 0.442 0.11 0.65 0.152 0.13 0.024 0.293 0 0.418-0.024 0.261-0.049 0.545-0.137 0.814-0.139 0.415-0.002 0.701-0.068 1.044-0.31 0.122-0.088 0.171-0.137 0.315-0.159 0.152-0.020 0.203-0.017 0.359 0.010 0.171 0.027 0.325 0.066 0.494 0.103 0.354 0.078 0.687 0.105 1.051 0.112 0.218 0.005 0.411 0.046 0.623 0.071 0.186 0.020 0.269-0.010 0.43 0.054 0.32 0.13 0.67 0.22 0.995 0.337 0.159 0.054 0.31 0.093 0.479 0.068 0.064-0.007 0.134-0.027 0.195-0.049 0.049-0.015 0.061-0.046 0.12-0.049 0.081-0.002 0.115 0.071 0.2 0.176z"></path>
<path d="M31.366 13.945c-0.156 0.027-0.244 0.049-0.391 0.002-0.152-0.046-0.296-0.095-0.45-0.149-0.222-0.073-0.43-0.169-0.655-0.178-0.161-0.005-0.293-0.078-0.45-0.147-0.782-0.34-1.525-0.736-2.334-0.997-0.222-0.071-0.428-0.227-0.652-0.279-0.193-0.044-0.401-0.071-0.565-0.132-0.054-0.020-0.125-0.071-0.183-0.095s-0.105-0.046-0.159-0.083c-0.152-0.103-0.291-0.217-0.435-0.327-0.13-0.1-0.293-0.13-0.452-0.149-0.161-0.017-0.327-0.059-0.494-0.1-0.516-0.13-0.87-0.428-1.305-0.726-0.215-0.149-0.489-0.301-0.745-0.352-0.225-0.046-0.425-0.134-0.64-0.198-0.125-0.039-0.266-0.044-0.396-0.064-0.347-0.046-0.692-0.108-1.041-0.1-0.332 0.007-0.64 0.044-0.975 0.1-0.218 0.037-0.396 0.139-0.611 0.174-0.090 0.017-0.2 0.020-0.288 0.049-0.076 0.024-0.103 0.071-0.171 0.1-0.078 0.034-0.298 0.076-0.386 0.068-0.054-0.005-0.076-0.044-0.127-0.049-0.117-0.012-0.296 0.010-0.418 0.017-0.191 0.010-0.391 0.056-0.579 0.095-0.144 0.029-0.2 0.12-0.335 0.176-0.13 0.054-0.239 0.098-0.359 0.178-0.076 0.054-0.127 0.137-0.198 0.196-0.108 0.086-0.232 0.152-0.337 0.242-0.222 0.188-0.437 0.359-0.706 0.499-0.259 0.134-0.535 0.33-0.777 0.506-0.332 0.242-0.547 0.513-0.623 0.912-0.020 0.103-0.007 0.21-0.027 0.31-0.017 0.095-0.068 0.171-0.078 0.269-0.020 0.2-0.071 0.386-0.083 0.589-0.015 0.32-0.161 0.54-0.23 0.841-0.027 0.125 0.002 0.259-0.024 0.396-0.029 0.149 0.005 0.286-0.022 0.428-0.029 0.176-0.046 0.283-0.017 0.462 0.022 0.134 0.007 0.288-0.005 0.425-0.015 0.188-0.061 0.33-0.024 0.528 0.037 0.188 0.061 0.379 0.098 0.567 0.088 0.442 0.352 0.831 0.423 1.271 0.017 0.112 0.037 0.34 0.21 0.257 0.132-0.061 0.046-0.313 0.051-0.435 0.020-0.423-0.122-0.892-0.195-1.305-0.034-0.191-0.068-0.381-0.1-0.569-0.073-0.415-0.049-0.824-0.010-1.241 0.007-0.073 0.027-0.12 0.020-0.195-0.012-0.093-0.046-0.176-0.039-0.274 0.020-0.298 0.198-0.569 0.374-0.799 0.076-0.1 0.137-0.203 0.205-0.301 0.095-0.134 0.235-0.217 0.357-0.327 0.086-0.076 0.154-0.159 0.225-0.244 0.017-0.022 0.020-0.064 0.037-0.081 0.024-0.027 0.078-0.020 0.105-0.042 0.12-0.1 0.254-0.264 0.364-0.379 0.13-0.137 0.044-0.347 0.166-0.506 0.237-0.32 0.489-0.56 0.858-0.731 0.254-0.117 0.489-0.274 0.709-0.445 0.22-0.174 0.589-0.198 0.87-0.283 0.176-0.054 0.359-0.105 0.521-0.198 0.093-0.054 0.161-0.11 0.264-0.139 0.142-0.042 0.303-0.051 0.45-0.078 0.288-0.049 0.579-0.1 0.87-0.152 0.274-0.049 0.567-0.147 0.846-0.103 0.183 0.027 0.354 0.115 0.545 0.152 0.281 0.051 0.557 0.086 0.831 0.174 0.266 0.086 0.56 0.12 0.833 0.181 0.2 0.046 0.447 0.054 0.638 0.127 0.257 0.098 0.503 0.323 0.736 0.472 0.501 0.323 1.014 0.604 1.5 0.968 0.279 0.21 0.393 0.538 0.753 0.65 0.152 0.046 0.31 0.061 0.467 0.059 0.347-0.005 0.652 0.064 0.992 0.127 0.195 0.039 0.288 0.044 0.462 0.125 0.208 0.095 0.428 0.137 0.655 0.154 0.103 0.007 0.22-0.012 0.318 0.005 0.078 0.015 0.142 0.061 0.218 0.078 0.298 0.068 0.601 0.174 0.909 0.205 0.286 0.029 0.599-0.068 0.88-0.12-0.379 0.068-0.76 0.137-1.141 0.203-0.242 0.042-0.433 0.134-0.657 0.23-0.384 0.164-0.787 0.354-1.122 0.606-0.183 0.137-0.345 0.296-0.525 0.433-0.144 0.112-0.249 0.264-0.389 0.384-0.195 0.174-0.413 0.323-0.623 0.477-0.186 0.139-0.332 0.269-0.496 0.425-0.176 0.169-0.406 0.298-0.596 0.45-0.144 0.112-0.271 0.215-0.389 0.354-0.105 0.125-0.166 0.305-0.308 0.391-0.208 0.125-0.516 0.181-0.758 0.225-0.345 0.064-0.511 0.222-0.762 0.44-0.134 0.115-0.23 0.12-0.391 0.154-0.198 0.044-0.345 0.169-0.479 0.31-0.154 0.159-0.293 0.357-0.457 0.503-0.103 0.088-0.274 0.142-0.393 0.193-0.169 0.073-0.288 0.022-0.467 0.005-0.271-0.022-0.349 0.042-0.574 0.156-0.154 0.081-0.34 0.122-0.511 0.181-0.181 0.061-0.364 0.027-0.555 0.029-0.252 0.005-0.516-0.015-0.758-0.086-0.315-0.090-0.596-0.108-0.916-0.134-0.43-0.034-0.804-0.042-1.227 0.027-0.266 0.044-0.618 0.032-0.877-0.039-0.239-0.066-0.511-0.11-0.736-0.227-0.169-0.088-0.305-0.186-0.491-0.264-0.156-0.066-0.315-0.081-0.469-0.152-0.115-0.054-0.139-0.108-0.23-0.188-0.073-0.064-0.205-0.108-0.254-0.198-0.046-0.081 0.012-0.252-0.137-0.198-0.178 0.064-0.13 0.418-0.269 0.501 0.12 0.291 0.347 0.538 0.574 0.753 0.152 0.142 0.281 0.181 0.464 0.257 0.166 0.071 0.303 0.159 0.479 0.2 0.205 0.049 0.362 0.098 0.555 0.181 0.462 0.191 0.931 0.293 1.427 0.337 0.406 0.037 0.784 0.208 1.185 0.247 0.486 0.046 0.987 0.046 1.469-0.049 0.313-0.061 0.631-0.044 0.951-0.103 0.195-0.034 0.393-0.068 0.589-0.103 0.095-0.017 0.252-0.017 0.337-0.066 0.081-0.042 0.105-0.13 0.205-0.164 0.215-0.076 0.489-0.083 0.716-0.122 0.298-0.054 0.657-0.037 0.824-0.337 0.044-0.078-0.002-0.11 0.071-0.225 0.086-0.137 0.239-0.298 0.371-0.376 0.218-0.13 0.469-0.188 0.696-0.293 0.103-0.049 0.191-0.115 0.291-0.171 0.186-0.105 0.401-0.134 0.591-0.222 0.193-0.090 0.411-0.198 0.596-0.303 0.115-0.064 0.222-0.186 0.303-0.286 0.169-0.205 0.33-0.455 0.535-0.628 0.318-0.271 0.494-0.503 0.599-0.912 0.039-0.147 0.044-0.215 0.142-0.323 0.103-0.112 0.144-0.144 0.281-0.225 0.147-0.088 0.291-0.159 0.445-0.239 0.32-0.166 0.591-0.359 0.875-0.587 0.171-0.137 0.345-0.23 0.523-0.349 0.156-0.103 0.198-0.178 0.364-0.232 0.327-0.108 0.655-0.261 0.98-0.384 0.156-0.059 0.296-0.127 0.411-0.252 0.044-0.049 0.086-0.11 0.12-0.166 0.024-0.042 0.015-0.073 0.059-0.112 0.061-0.054 0.134-0.020 0.266 0.005z"></path>
<path d="M26.261 4.521c-0.103 0.122-0.156 0.196-0.298 0.254-0.147 0.061-0.288 0.115-0.44 0.176-0.218 0.086-0.437 0.147-0.616 0.283-0.127 0.098-0.276 0.125-0.44 0.176-0.816 0.239-1.64 0.415-2.429 0.736-0.215 0.088-0.474 0.1-0.677 0.205-0.176 0.090-0.354 0.205-0.521 0.264-0.051 0.017-0.137 0.024-0.2 0.044-0.061 0.020-0.11 0.029-0.174 0.037-0.183 0.020-0.364 0.022-0.545 0.029-0.164 0.007-0.308 0.090-0.442 0.178-0.134 0.090-0.288 0.164-0.44 0.239-0.481 0.23-0.943 0.232-1.469 0.283-0.259 0.024-0.567 0.086-0.797 0.208-0.203 0.11-0.413 0.173-0.618 0.261-0.12 0.051-0.232 0.137-0.345 0.208-0.293 0.183-0.599 0.359-0.86 0.589-0.252 0.22-0.462 0.447-0.684 0.704-0.142 0.169-0.213 0.362-0.354 0.525-0.061 0.071-0.142 0.144-0.191 0.222-0.042 0.071-0.034 0.12-0.066 0.188-0.039 0.078-0.181 0.249-0.252 0.301-0.044 0.032-0.086 0.015-0.13 0.044-0.098 0.066-0.22 0.198-0.31 0.281-0.139 0.132-0.261 0.298-0.381 0.447-0.093 0.115-0.078 0.22-0.144 0.349-0.064 0.125-0.122 0.227-0.159 0.369-0.024 0.090-0.010 0.186-0.027 0.276-0.027 0.134-0.081 0.264-0.103 0.401-0.049 0.286-0.105 0.557-0.222 0.836-0.112 0.269-0.195 0.599-0.269 0.89-0.098 0.396-0.088 0.743 0.108 1.095 0.051 0.093 0.13 0.169 0.181 0.257 0.049 0.086 0.056 0.176 0.112 0.257 0.112 0.166 0.193 0.342 0.315 0.503 0.193 0.257 0.225 0.518 0.364 0.792 0.059 0.112 0.169 0.198 0.235 0.32 0.073 0.134 0.188 0.215 0.261 0.342 0.088 0.154 0.144 0.247 0.281 0.364 0.103 0.090 0.191 0.218 0.271 0.327 0.108 0.156 0.164 0.293 0.32 0.423 0.147 0.12 0.291 0.249 0.44 0.369 0.349 0.283 0.802 0.413 1.139 0.704 0.086 0.073 0.247 0.237 0.327 0.061 0.061-0.132-0.166-0.271-0.239-0.367-0.259-0.335-0.67-0.604-0.992-0.875-0.147-0.122-0.296-0.247-0.442-0.371-0.323-0.271-0.565-0.601-0.804-0.943-0.042-0.061-0.056-0.11-0.112-0.164-0.068-0.064-0.147-0.105-0.205-0.183-0.176-0.242-0.215-0.565-0.227-0.853-0.005-0.127-0.024-0.244-0.034-0.364-0.015-0.161 0.039-0.315 0.061-0.479 0.017-0.112 0.017-0.22 0.015-0.332 0-0.027-0.024-0.059-0.022-0.086 0.002-0.034 0.046-0.064 0.054-0.098 0.027-0.154 0.024-0.364 0.034-0.525 0.012-0.188-0.188-0.293-0.198-0.494-0.022-0.398 0.015-0.743 0.188-1.112 0.12-0.254 0.2-0.523 0.257-0.797 0.059-0.271 0.325-0.528 0.486-0.777 0.1-0.154 0.205-0.31 0.269-0.484 0.037-0.1 0.054-0.188 0.112-0.279 0.083-0.12 0.2-0.232 0.296-0.347 0.191-0.225 0.379-0.45 0.567-0.674 0.178-0.213 0.342-0.477 0.582-0.623 0.161-0.098 0.347-0.139 0.518-0.235 0.249-0.142 0.481-0.293 0.748-0.401 0.259-0.105 0.506-0.269 0.755-0.398 0.183-0.093 0.376-0.244 0.569-0.313 0.259-0.090 0.594-0.076 0.868-0.11 0.589-0.076 1.163-0.191 1.772-0.222 0.347-0.020 0.645 0.159 0.992 0.012 0.147-0.061 0.279-0.152 0.396-0.254 0.261-0.227 0.54-0.371 0.843-0.54 0.171-0.095 0.249-0.152 0.43-0.203 0.222-0.059 0.418-0.169 0.604-0.303 0.083-0.059 0.161-0.149 0.247-0.2 0.068-0.037 0.149-0.042 0.218-0.078 0.269-0.139 0.572-0.252 0.828-0.428 0.237-0.161 0.413-0.437 0.596-0.657-0.247 0.296-0.496 0.594-0.745 0.887-0.159 0.188-0.244 0.384-0.354 0.601-0.191 0.371-0.374 0.777-0.472 1.185-0.051 0.222-0.073 0.447-0.122 0.667-0.039 0.181-0.024 0.364-0.051 0.545-0.039 0.259-0.11 0.513-0.171 0.765-0.054 0.227-0.083 0.42-0.108 0.648-0.027 0.242-0.12 0.486-0.169 0.726-0.037 0.178-0.068 0.337-0.068 0.521 0 0.164 0.068 0.34 0.015 0.499-0.081 0.227-0.279 0.469-0.435 0.657-0.225 0.271-0.249 0.501-0.303 0.828-0.027 0.174-0.098 0.237-0.198 0.369-0.125 0.161-0.156 0.349-0.169 0.547-0.015 0.22 0.005 0.459-0.029 0.677-0.020 0.132-0.117 0.286-0.174 0.403-0.081 0.164-0.208 0.2-0.354 0.303-0.222 0.156-0.242 0.254-0.34 0.486-0.068 0.161-0.183 0.313-0.276 0.467-0.098 0.164-0.261 0.257-0.406 0.381-0.191 0.166-0.406 0.32-0.635 0.423-0.301 0.132-0.525 0.301-0.789 0.486-0.349 0.249-0.64 0.484-0.921 0.809-0.176 0.205-0.455 0.42-0.699 0.533-0.225 0.103-0.462 0.244-0.709 0.298-0.186 0.039-0.354 0.054-0.545 0.112-0.164 0.051-0.293 0.142-0.457 0.186-0.122 0.032-0.176 0.007-0.298 0.005-0.095-0.002-0.227 0.049-0.32 0.012-0.088-0.034-0.154-0.203-0.235-0.064-0.093 0.161 0.171 0.403 0.117 0.557 0.281 0.144 0.613 0.186 0.924 0.205 0.208 0.012 0.33-0.042 0.521-0.1 0.174-0.054 0.335-0.073 0.496-0.156 0.188-0.093 0.34-0.156 0.54-0.218 0.477-0.149 0.902-0.374 1.312-0.66 0.332-0.232 0.733-0.342 1.066-0.572 0.403-0.276 0.787-0.599 1.095-0.98 0.2-0.249 0.455-0.442 0.662-0.692 0.127-0.152 0.257-0.303 0.384-0.457 0.064-0.073 0.181-0.174 0.218-0.266 0.032-0.083-0.002-0.166 0.051-0.257 0.115-0.198 0.32-0.379 0.469-0.555 0.195-0.235 0.479-0.45 0.415-0.787-0.017-0.088-0.073-0.083-0.093-0.217-0.022-0.161-0.007-0.384 0.044-0.528 0.083-0.239 0.237-0.445 0.345-0.672 0.049-0.105 0.071-0.213 0.112-0.32 0.076-0.2 0.222-0.359 0.31-0.55 0.090-0.193 0.188-0.415 0.264-0.616 0.046-0.122 0.049-0.286 0.049-0.413-0.005-0.266-0.042-0.562 0.002-0.826 0.071-0.411 0.056-0.701-0.125-1.083-0.064-0.137-0.105-0.191-0.1-0.337 0.007-0.154 0.020-0.203 0.071-0.352 0.059-0.164 0.12-0.31 0.188-0.469 0.139-0.335 0.222-0.657 0.293-1.014 0.042-0.213 0.115-0.396 0.176-0.604 0.054-0.178 0.037-0.264 0.13-0.411 0.183-0.293 0.332-0.623 0.503-0.924 0.081-0.144 0.144-0.288 0.152-0.457 0.002-0.066-0.002-0.139-0.015-0.203-0.007-0.049-0.034-0.068-0.027-0.127 0.012-0.078 0.090-0.1 0.208-0.166z"></path>
</svg>
