<!-- Generated by IcoMoon.io -->
<svg version="1.1" xmlns="http://www.w3.org/2000/svg" width="33" height="32" viewBox="0 0 33 32">
<title>fatal_mirage</title>
<path d="M10.143 26.573c0.036-0.069 0.026-0.114 0.028-0.202 0.007-0.042 0.005-0.083-0.007-0.123-0.012-0.005-0.021-0.009-0.031-0.014-0.026-0.014-0.040-0.033-0.042-0.062-0.002-0.062 0.002-0.123 0.019-0.183 0.021-0.1 0.057-0.259 0.097-0.356 0.017-0.038 0.036-0.048 0.038-0.090-0.057-0.048-0.104-0.104-0.14-0.176-0.059-0.085-0.116-0.173-0.173-0.259-0.088-0.081-0.133-0.178-0.135-0.292 0.038-0.13 0.071-0.263 0.1-0.396 0.009-0.042 0.050-0.126 0.054-0.176 0.019-0.209 0.074-0.411 0.102-0.622 0.014-0.107 0.040-0.29-0.014-0.392-0.052-0.1-0.159-0.128-0.221-0.225-0.301-0.491-0.052-1.063-0.014-1.588 0.019-0.259-0.007-0.527-0.002-0.788 0.007-0.24-0.040-0.42-0.1-0.657-0.071-0.282-0.121-0.548-0.123-0.84 0-0.368 0.012-0.691 0.112-1.049 0.081-0.28 0.185-0.567 0.13-0.859-0.012-0.062-0.038-0.13-0.048-0.195-0.040-0.28-0.007-0.581-0.007-0.864 0-0.119 0.005-0.24 0-0.358-0.002-0.081-0.019-0.123-0.048-0.192-0.028-0.064-0.028-0.123-0.028-0.204 0.002-0.297-0.005-0.591 0.028-0.887-0.116-0.036-0.195 0.057-0.211-0.104-0.033-0.297 0.033-0.522 0.109-0.802 0.038-0.133 0.095-0.271 0.114-0.406 0.007-0.052 0.007-0.081 0.026-0.138 0.036-0.112 0.062-0.166-0.024-0.263-0.235-0.266-0.553-0.42-0.778-0.705 0.093-0.048 0.211-0.021 0.287-0.093 0.005-0.052 0.026-0.095 0.069-0.13 0.067-0.062 0.121-0.135 0.161-0.221 0.014-0.069-0.002-0.145 0.007-0.214 0.009-0.071 0.042-0.102-0.009-0.149 0.059-0.031 0.128-0.036 0.19-0.052-0.012-0.054-0.040-0.102-0.083-0.138-0.071-0.090-0.119-0.192-0.142-0.309-0.033-0.195 0-0.422 0-0.622 0-0.169-0.009-0.33 0.021-0.494 0.017-0.095 0.052-0.18 0.052-0.275 0.002-0.097-0.009-0.159 0.040-0.247 0.104-0.188 0.271-0.301 0.337-0.517 0.064-0.202 0.076-0.377 0.009-0.579-0.024-0.076-0.038-0.14-0.054-0.214-0.024-0.104-0.021-0.209-0.040-0.311-0.028-0.166-0.15-0.169-0.228-0.287-0.040-0.062-0.040-0.090-0.019-0.164 0.028-0.102 0.028-0.1 0.028-0.233-0.002-0.218 0.045-0.408 0.038-0.622-0.005-0.223-0.081-0.434-0.107-0.655-0.007-0.064 0.007-0.104-0.031-0.133 0.157-0.119 0.344-0.211 0.522-0.29 0.028 0.057 0.052 0.048 0.109 0.050 0.185 0.009 0.375 0.012 0.517 0.154 0.147 0.147 0.422 0.093 0.612 0.090 0.133 0 0.294 0.021 0.422-0.031 0.133-0.054 0.251-0.154 0.382-0.218 0.399-0.195 0.809-0.057 1.222-0.076 0.306-0.012 0.653-0.13 0.961-0.081 0.048 0.007 0.102 0.036 0.152 0.045 0.249 0.048 0.501 0.045 0.752 0.014 0.237-0.031 0.475-0.067 0.712-0.090 0.176-0.019 0.067-0.026 0.126-0.002 0.166 0.067 0.282 0.173 0.475 0.159 0.15-0.007 0.287-0.052 0.437-0.036 0.55 0.064 1.106 0.036 1.659-0.002 0.235-0.019 0.413 0.002 0.643-0.007 0.183-0.007 0.37-0.083 0.532 0.002 0.145 0.076 0.346 0.076 0.503 0.083 0.204 0.007 0.408-0.002 0.61-0.002 0.119 0 0.28-0.024 0.399 0.002-0.054 0.102-0.112 0.206-0.173 0.304 0.204-0.033 0.408-0.028 0.615-0.026 0.071 0 0.142 0 0.214-0.002 0.202-0.005 0.403-0.002 0.608 0.007 0.073 0.057 0.050 0.078 0.157 0.116 0.088 0.033 0.294 0.012 0.332 0.119-0.149 0.23-0.344 0.425-0.415 0.7-0.045 0.176-0.1 0.344-0.1 0.527 0 0.221 0.042 0.437 0.042 0.66-0.002 0.169-0.009 0.337 0.002 0.503 0.017 0.233 0.040 0.46 0.107 0.681 0.059 0.185 0.135 0.434 0.152 0.638 0.007 0.116-0.012 0.235 0.002 0.351 0.009 0.083 0.028 0.161 0.031 0.247 0.007 0.147-0.026 0.323-0.009 0.472 0.019 0.183 0.104 0.351 0.142 0.529 0.028 0.13 0.021 0.23-0.024 0.351-0.038 0.102-0.073 0.18-0.043 0.292 0.052 0.173 0.13 0.344 0.176 0.52 0.042 0.164 0.012 0.339 0.050 0.51 0.040 0.166 0.038 0.299 0.038 0.472-0.002 0.37 0.019 0.743-0.007 1.113-0.024 0.346-0.152 0.74-0.012 1.075 0.064 0.157 0.095 0.332 0.033 0.501-0.059 0.161-0.147 0.306-0.161 0.484-0.012 0.18 0.071 0.261 0.142 0.411 0.052 0.107 0.043 0.214 0.043 0.332 0.005 0.195-0.024 0.43 0.005 0.631 0.009 0.067 0.048 0.116 0.062 0.171 0.040 0.164 0.007 0.356 0.005 0.522 0 0.275 0 0.548 0 0.823 0 0.154-0.040 0.413 0.014 0.56 0.019 0.050 0.071 0.069 0.093 0.13 0.017 0.050 0.005 0.149 0.005 0.185-0.002 0.14-0.002 0.278 0.002 0.418 0.005 0.097 0.028 0.183 0.036 0.278 0.012 0.133-0.009 0.271-0.002 0.403 0.007 0.138-0.024 0.211-0.109 0.327-0.036 0.045-0.114 0.13-0.128 0.195-0.038 0.164 0.123 0.517 0.19 0.65 0.057 0.116 0.050 0.159 0.048 0.301 0 0.251 0 0.503 0 0.752 0.002 0.365 0.121 0.717 0.112 1.084-0.002 0.085 0.012 0.176-0.005 0.259-0.038 0.183-0.159 0.356-0.178 0.551-0.005 0.064 0.024 0.114 0.019 0.171-0.002 0.059-0.026 0.109-0.040 0.164-0.028 0.114-0.007 0.178 0.012 0.287 0.012 0.071 0.007 0.142 0.007 0.218 0 0.026-0.007 0.078 0 0.104 0.007 0.036 0.031 0.036 0.040 0.071 0.005 0.021-0.009 0.045-0.005 0.064 0.007 0.024 0.026 0.050 0.031 0.069 0.033 0.13 0.007 0.294 0.009 0.43-0.050-0.097-0.109-0.183-0.188-0.244-0.112-0.088-0.216-0.142-0.251-0.299-0.012-0.062-0.028-0.074-0.040-0.119-0.076-0.297-0.133-0.634-0.112-0.942 0.009-0.13 0.13-0.299 0.069-0.43-0.112-0.009-0.221 0.002-0.332-0.002 0.028-0.339 0.076-0.662 0.081-1.004 0-0.057 0.014-0.135-0.007-0.19-0.009-0.017-0.021-0.031-0.031-0.048-0.036-0.021-0.048-0.057-0.033-0.104 0.005-0.1-0.012-0.197-0.048-0.29-0.026-0.104-0.069-0.199-0.128-0.287-0.050-0.116-0.057-0.197-0.045-0.318 0.019-0.197 0.033-0.375 0.033-0.57 0-0.197-0.009-0.394 0.019-0.589 0.009-0.071 0.012-0.145 0.026-0.216 0.012-0.033 0.024-0.069 0.038-0.104 0.031-0.095 0.002-0.157-0.088-0.188-0.133-0.088-0.183-0.223-0.152-0.403l0.007-0.365c0 0.009 0.040-0.434-0.083-0.406 0.195-0.19 0.42-0.304 0.581-0.539-0.069-0.054-0.121-0.043-0.147-0.142-0.048-0.171-0.043-0.354-0.097-0.524-0.054-0.173-0.107-0.354-0.166-0.52-0.085-0.237-0.209-0.448-0.254-0.705-0.059-0.332-0.093-0.683 0.005-1.009 0.059-0.199 0.017-0.46 0.017-0.669 0-0.052 0.038-0.377-0.026-0.399-0.057-0.318-0.045-0.643-0.093-0.956-0.014-0.097-0.062-0.185-0.069-0.285-0.007-0.083 0.002-0.173 0.002-0.259 0.002-0.145-0.038-0.32 0.040-0.444 0.088-0.135 0.223-0.282 0.256-0.446 0.019-0.095 0-0.206-0.042-0.29-0.067-0.126-0.123-0.185-0.147-0.325-0.019-0.102-0.033-0.183-0.033-0.287 0.002-0.088 0.028-0.209 0.017-0.29-0.024-0.043-0.048-0.083-0.069-0.126l-0.164-0.304c-0.064-0.142-0.112-0.282-0.119-0.439-0.007-0.169-0.033-0.335-0.036-0.508 0-0.107-0.012-0.216 0.014-0.32 0.038-0.147 0.114-0.275 0.133-0.427 0.017-0.13 0.019-0.278-0.009-0.401-0.033-0.14-0.114-0.263-0.13-0.408-0.005-0.045-0.002-0.085-0.009-0.126-0.054-0.294-0.251-0.532-0.351-0.802-0.064-0.171-0.090-0.349-0.123-0.529-0.014-0.071-0.048-0.166-0.038-0.24 0.012-0.128 0.128-0.273 0.185-0.38-0.085-0.126-0.271-0.223-0.406-0.273-0.057-0.021-0.097-0.007-0.154-0.019-0.073-0.014-0.109-0.076-0.188-0.085-0.145-0.014-0.327-0.021-0.46 0.042-0.109 0.052-0.173 0.152-0.299 0.133-0.088-0.012-0.154-0.050-0.244-0.050-0.088 0.002-0.166 0.026-0.251 0.033-0.114 0.009-0.209-0.057-0.323-0.076-0.197-0.033-0.38 0.059-0.565-0.054-0.145-0.090-0.247-0.223-0.422-0.188-0.062 0.012-0.121 0.028-0.18 0.038-0.097 0.017-0.18 0.067-0.278 0.083-0.102 0.017-0.204 0.043-0.308 0.040-0.218-0.002-0.437-0.019-0.653 0.028-0.123 0.028-0.233 0.104-0.363 0.126-0.235 0.036-0.484 0.045-0.721 0.045h-0.626c-0.192 0.074-0.342 0.095-0.527 0.057-0.135-0.026-0.273 0.042-0.408 0.017-0.045-0.026-0.093-0.043-0.142-0.057-0.197-0.024-0.394-0.031-0.591-0.019-0.209 0.005-0.346 0.019-0.543-0.071-0.123-0.057-0.356-0.223-0.484-0.204-0.012 0.009-0.024 0.019-0.036 0.028-0.036 0.012-0.069 0.014-0.104 0.007-0.069 0.012-0.064 0.017-0.13 0.059-0.095 0.062-0.19 0.083-0.297 0.104-0.083 0.017-0.173 0.050-0.242 0.069-0.090 0.024-0.209 0.024-0.287-0.028-0.074-0.050-0.081-0.097-0.183-0.083-0.069 0.012-0.123 0.052-0.183 0.088 0.002 0.097 0.042 0.223 0.071 0.316 0.026 0.083 0.026 0.138 0.033 0.225 0.012 0.147 0.1 0.287 0.135 0.432 0.038 0.164 0 0.344 0.033 0.503 0.031 0.14 0.002 0.209-0.038 0.337-0.031 0.102-0.024 0.223-0.036 0.332-0.017 0.159 0.005 0.327-0.014 0.484-0.019 0.13-0.081 0.223-0.078 0.363 0.005 0.251 0 0.498 0.038 0.747 0.012 0.088 0.045 0.169 0.064 0.254 0.019 0.081 0.017 0.171 0.028 0.254 0.009 0.059 0.036 0.121 0.019 0.18-0.024 0.076-0.188 0.221-0.228 0.278-0.031 0.040-0.062 0.078-0.074 0.128-0.024 0.112 0.005 0.287 0.005 0.399 0 0.171 0 0.342 0 0.513 0 0.102 0.031 0.273-0.021 0.358 0.040 0.052 0.085 0.102 0.1 0.173-0.005 0.104-0.005 0.209 0.005 0.313 0.012 0.209 0.024 0.415 0.036 0.624 0.019 0.228 0.095 0.46 0.107 0.688 0.002 0.036 0.005 0.090 0 0.123-0.031 0.171-0.128 0.332-0.166 0.501-0.026 0.121-0.028 0.223-0.021 0.342 0.002 0.074 0.019 0.142 0.028 0.216 0.031 0.221 0.009 0.46 0.009 0.681-0.002 0.252-0.002 0.389 0.064 0.626 0.040 0.142 0.052 0.142 0.040 0.263-0.026 0.24-0.071 0.451-0.069 0.695 0 0.23 0.009 0.456 0.028 0.686 0.012 0.119 0.012 0.24 0.009 0.361 0 0.211-0.104 0.384-0.166 0.584-0.071 0.223-0.171 0.477-0.166 0.717 0.005 0.249-0.040 0.501-0.038 0.752 0.002 0.42 0.028 0.838 0.109 1.251 0.038 0.195 0.116 0.394 0.116 0.593 0 0.102 0.009 0.185 0.026 0.285 0.009 0.067 0.019 0.14 0 0.204-0.024 0.088-0.093 0.154-0.107 0.247-0.007 0.036 0.002 0.102 0.002 0.13 0.005 0.313 0.005 0.622-0.028 0.93-0.009 0.095-0.002 0.178-0.002 0.273 0.007 0.268-0.109 0.541-0.195 0.783-0.059 0.166-0.069 0.176-0.069 0.308 0.002 0.14 0 0.28 0 0.418 0 0.036-0.005 0.078 0 0.112 0.007 0.057 0.028 0.093 0.040 0.15 0.014 0.081 0 0.358-0.102 0.37-0.024-0.069-0.052-0.145-0.076-0.218-0.033-0.097-0.002-0.133 0.038-0.211z"></path>
<path d="M24.087 13.329c-0.031-0.161 0.088-0.244 0.204-0.327 0.052-0.038 0.081-0.090 0.142-0.114 0.054-0.019 0.107-0.024 0.164-0.057 0.123-0.071 0.126-0.088 0.263-0.071 0.074 0.007 0.138 0.031 0.206 0.042 0.076 0.012 0.133 0 0.199-0.042 0.021-0.017 0.036-0.038 0.048-0.062 0.026-0.007 0.052-0.012 0.078-0.014 0.399-0.138 0.757 0.161 1.108 0.275 0.145 0.045 0.251 0.078 0.361 0.176 0.107 0.097 0.235 0.178 0.349 0.271 0.102 0.085 0.195 0.145 0.223 0.273 0.017 0.083-0.002 0.166 0.012 0.251 0.076 0.040 0.218-0.097 0.299-0.119 0.074 0.116 0.259 0.147 0.346 0.249 0.043 0.050 0.017 0.076 0.090 0.109 0.152 0.071 0.332 0.119 0.496 0.171 0.145 0.045 0.266 0.13 0.411 0.171 0.225 0.062 0.536 0.104 0.771 0.050 0.069-0.014 0.135-0.052 0.199-0.074 0.069-0.024 0.040 0.007 0.116-0.036 0.093-0.054 0.14-0.093 0.185-0.183 0.078-0.145 0.085-0.292 0.138-0.444 0.064-0.185 0.047-0.403 0.038-0.598-0.012-0.254-0.301-0.24-0.501-0.332-0.074-0.036-0.14-0.076-0.185-0.142-0.043-0.062-0.036-0.085-0.1-0.135-0.024-0.019-0.050-0.028-0.071-0.050 0.116 0.005 0.237-0.007 0.351 0.007 0.221 0.028 0.51 0.059 0.626 0.254 0.135 0.225 0.169 0.486 0.259 0.736 0.038 0.104 0.093 0.206 0.102 0.318 0.007 0.081-0.002 0.169-0.002 0.251 0 0.244-0.009 0.453-0.119 0.686-0.057 0.121-0.278 0.33-0.43 0.356-0.218 0.036-0.458 0.033-0.683 0.033-0.047 0-0.119 0.014-0.164 0.002-0.083-0.019-0.149-0.081-0.235-0.107-0.195-0.059-0.377-0.083-0.57-0.126-0.235-0.050-0.482-0.059-0.719-0.112-0.069-0.014-0.13-0.033-0.197-0.059-0.126-0.043-0.142-0.069-0.235-0.15-0.081-0.071-0.171-0.074-0.28-0.083-0.145-0.014-0.173-0.067-0.304-0.138-0.15-0.083-0.171-0.216-0.306-0.318-0.228-0.176-0.468-0.251-0.745-0.311-0.23-0.048-0.458-0.067-0.662-0.19-0.104-0.064-0.204-0.154-0.344-0.13-0.048 0.007-0.062 0.033-0.104 0.042-0.045 0.009-0.109-0.002-0.154-0.002-0.109 0-0.218 0-0.327 0-0.145 0-0.211 0.021-0.342 0.067-0.040-0.128-0.093-0.211-0.007-0.266z"></path>
<path d="M29.726 17.778c-0.026-0.104-0.009-0.133-0.017-0.233-0.005-0.074-0.024-0.097-0.069-0.161-0.081-0.116-0.109-0.235-0.142-0.375-0.024-0.095-0.059-0.126-0.147-0.183-0.028-0.019-0.064-0.033-0.1-0.048 0.019 0.012 0.033 0.021 0.038 0.028 0.028 0.028 0.064 0.135 0.071 0.176 0.028 0.161-0.036 0.308-0.045 0.463-0.005 0.074-0.026 0.13-0.055 0.197s-0.017 0.133-0.043 0.192c-0.024 0.054-0.107 0.123-0.159 0.157-0.071 0.045-0.154 0.107-0.23 0.142-0.102 0.048-0.204 0.033-0.316 0.031-0.19-0.002-0.38-0.002-0.572 0-0.085 0-0.107-0.012-0.176-0.040-0.090-0.038-0.197-0.021-0.28-0.064-0.059-0.031-0.109-0.093-0.128-0.152-0.045-0.14 0.012-0.247-0.126-0.356-0.059-0.048-0.114-0.088-0.188-0.128-0.097-0.050-0.297-0.043-0.311-0.173-0.116 0-0.204-0.223-0.206-0.308-0.002-0.083-0.009-0.126-0.048-0.195-0.026-0.048-0.059-0.095-0.085-0.142-0.021-0.038-0.024-0.112-0.042-0.145-0.009-0.017-0.007-0.038-0.019-0.054-0.088-0.038-0.176-0.083-0.256-0.13-0.123-0.059-0.237-0.13-0.342-0.211-0.036-0.031-0.062-0.074-0.107-0.093-0.085-0.040-0.422-0.062-0.453-0.067-0.135-0.019-0.657-0.188-0.608 0.1 0.054 0.078-0.1 0.104-0.154 0.116-0.112 0.026-0.116 0.014-0.169 0.138-0.042 0.097-0.048 0.247-0.028 0.351 0.014 0.090 0.071 0.145 0.159 0.197 0.062 0.033 0.13 0.033 0.192 0.067 0.045 0.021 0.059 0.064 0.1 0.083 0.019 0.012 0.048 0.014 0.076 0.014 0.142-0.033 0.292-0.031 0.448 0.021 0.273 0.093 0.463 0.292 0.61 0.524 0.031 0.017 0.064 0.031 0.097 0.048 0.228 0.114 0.425 0.387 0.498 0.61 0.088 0.266 0.361 0.363 0.605 0.503 0.078 0.042 0.152 0.1 0.247 0.119 0.214 0.045 0.458 0.019 0.679 0.040 0.109 0.009 0.135 0.021 0.221-0.038 0.076-0.052 0.147-0.102 0.237-0.128 0.052-0.017 0.133-0.021 0.169-0.067 0.209 0.067 0.515 0.287 0.731 0.171 0.074-0.040 0.154-0.090 0.223-0.147 0.147-0.123 0.278-0.166 0.287-0.351 0.009-0.176-0.026-0.327-0.069-0.498z"></path>
<path d="M27.546 21.501c-0.028-0.059-0.024-0.107-0.057-0.166-0.040-0.067-0.1-0.121-0.138-0.192-0.024-0.045-0.038-0.090-0.078-0.123 0.040 0.078 0.076 0.107 0.081 0.204 0.007 0.107-0.014 0.185-0.048 0.285-0.048 0.142-0.123 0.287-0.128 0.437 0 0.097 0.005 0.109-0.064 0.178-0.021 0.024-0.042 0.048-0.067 0.067-0.054 0.048-0.083 0.050-0.119 0.036-0.090 0.142-0.244 0.244-0.465 0.244-0.427 0-0.612-0.377-0.555-0.702-0.048-0.121-0.026-0.225-0.036-0.356-0.007-0.119-0.048-0.242-0.121-0.342-0.050-0.069-0.119-0.133-0.173-0.195-0.057-0.062-0.069-0.123-0.107-0.19-0.024-0.040-0.054-0.083-0.078-0.121-0.036-0.059-0.033-0.057-0.119-0.090-0.1-0.038-0.254-0.104-0.361-0.112-0.054-0.005-0.28 0.062-0.311 0.090-0.024 0.021-0.033 0.050-0.038 0.081-0.13 0.021-0.275 0.024-0.361 0.138-0.083 0.116-0.019 0.271 0.048 0.389 0.057 0 0.114 0.005 0.169 0.021 0.285 0.083 0.517 0.271 0.645 0.541 0.054 0.114 0.090 0.23 0.116 0.346 0.048 0.036 0.093 0.071 0.135 0.112 0.076 0.078 0.059 0.263 0.1 0.37 0.064 0.178 0.161 0.263 0.308 0.377 0.090 0.067 0.183 0.128 0.28 0.183 0.142 0.081 0.275 0.085 0.441 0.097 0.349 0.024 0.586 0.009 0.89-0.135 0.104-0.048 0.121-0.048 0.15-0.13 0.031-0.1 0.024-0.221 0.042-0.327 0.021-0.126 0.126-0.199 0.13-0.339 0.007-0.138 0.007-0.28 0.002-0.418-0.002-0.126-0.064-0.149-0.116-0.256z"></path>
<path d="M8.6 13.573c0.031-0.161-0.088-0.244-0.204-0.327-0.052-0.038-0.081-0.090-0.142-0.114-0.054-0.019-0.107-0.024-0.164-0.057-0.123-0.071-0.126-0.088-0.263-0.071-0.074 0.007-0.138 0.031-0.206 0.043-0.076 0.012-0.133 0-0.199-0.043-0.021-0.017-0.036-0.038-0.048-0.062-0.026-0.007-0.052-0.012-0.078-0.014-0.399-0.138-0.757 0.161-1.108 0.275-0.145 0.045-0.252 0.078-0.361 0.176-0.107 0.097-0.235 0.178-0.349 0.271-0.102 0.085-0.195 0.145-0.223 0.273-0.017 0.083 0.002 0.166-0.012 0.251-0.076 0.040-0.218-0.097-0.299-0.119-0.074 0.116-0.259 0.147-0.346 0.249-0.040 0.050-0.017 0.076-0.090 0.109-0.152 0.071-0.332 0.119-0.496 0.171-0.145 0.045-0.266 0.13-0.411 0.171-0.225 0.062-0.536 0.104-0.771 0.050-0.069-0.014-0.135-0.052-0.199-0.074-0.069-0.024-0.040 0.007-0.116-0.036-0.093-0.054-0.14-0.093-0.185-0.183-0.076-0.145-0.085-0.292-0.138-0.444-0.064-0.185-0.048-0.403-0.038-0.598 0.012-0.254 0.301-0.24 0.501-0.332 0.057-0.028 0.104-0.062 0.145-0.102-0.081-0.031-0.159-0.074-0.216-0.135-0.019-0.019-0.036-0.042-0.052-0.067-0.192 0.028-0.403 0.078-0.498 0.237-0.135 0.225-0.169 0.486-0.259 0.736-0.038 0.104-0.093 0.206-0.102 0.318-0.007 0.081 0.002 0.169 0.002 0.251 0 0.244 0.009 0.453 0.119 0.686 0.057 0.121 0.278 0.33 0.427 0.356 0.221 0.036 0.46 0.033 0.686 0.033 0.048 0 0.119 0.014 0.164 0.002 0.083-0.019 0.15-0.081 0.235-0.107 0.195-0.059 0.377-0.083 0.57-0.126 0.235-0.050 0.482-0.059 0.719-0.112 0.069-0.014 0.13-0.033 0.197-0.059 0.126-0.042 0.142-0.069 0.235-0.149 0.081-0.071 0.171-0.074 0.28-0.083 0.145-0.014 0.173-0.064 0.304-0.138 0.15-0.083 0.171-0.216 0.306-0.318 0.071-0.054 0.145-0.097 0.221-0.135 0.048-0.083 0.116-0.157 0.204-0.206 0.32-0.178 0.693-0.235 1.054-0.24 0.017 0 0.033 0.005 0.048 0.005 0.067-0.038 0.138-0.069 0.225-0.054 0.048 0.007 0.062 0.033 0.104 0.043 0.045 0.009 0.109-0.002 0.154-0.002 0.109 0 0.218 0 0.327 0 0.145 0 0.211 0.021 0.342 0.067 0.040-0.128 0.093-0.211 0.007-0.266z"></path>
<path d="M8.121 16.252c0.048-0.287-0.472-0.119-0.608-0.1-0.031 0.005-0.368 0.026-0.453 0.064-0.045 0.021-0.074 0.064-0.107 0.095-0.107 0.081-0.221 0.152-0.342 0.211-0.083 0.048-0.169 0.090-0.256 0.128-0.012 0.019-0.009 0.040-0.019 0.057-0.021 0.033-0.024 0.107-0.042 0.145-0.026 0.048-0.059 0.095-0.085 0.142-0.038 0.069-0.045 0.112-0.048 0.192-0.002 0.088-0.090 0.311-0.209 0.311-0.012 0.13-0.211 0.123-0.308 0.173-0.074 0.040-0.128 0.081-0.19 0.128-0.138 0.107-0.078 0.216-0.123 0.356-0.019 0.059-0.071 0.121-0.13 0.152-0.081 0.042-0.188 0.026-0.278 0.064-0.069 0.028-0.093 0.040-0.178 0.040-0.19-0.002-0.38-0.002-0.572 0-0.112 0.002-0.214 0.017-0.313-0.031-0.076-0.036-0.159-0.097-0.23-0.142-0.052-0.033-0.135-0.102-0.159-0.157-0.028-0.059-0.017-0.128-0.043-0.192-0.028-0.067-0.050-0.126-0.054-0.197-0.009-0.154-0.074-0.301-0.045-0.463 0.007-0.040 0.042-0.147 0.069-0.176 0.026-0.026 0.195-0.114 0.225-0.116-0.067 0.059-0.204 0.081-0.285 0.135-0.088 0.057-0.126 0.088-0.147 0.183-0.033 0.138-0.062 0.256-0.145 0.375-0.045 0.064-0.062 0.088-0.067 0.161-0.007 0.097 0.009 0.128-0.017 0.233-0.043 0.171-0.078 0.323-0.069 0.498 0.009 0.185 0.14 0.228 0.287 0.351 0.069 0.057 0.15 0.107 0.223 0.147 0.216 0.116 0.522-0.104 0.731-0.173 0.033 0.048 0.116 0.052 0.169 0.067 0.090 0.028 0.161 0.078 0.237 0.13 0.085 0.059 0.112 0.048 0.221 0.038 0.221-0.021 0.463 0.005 0.679-0.040 0.095-0.019 0.169-0.076 0.247-0.119 0.244-0.14 0.517-0.24 0.605-0.505 0.074-0.221 0.271-0.494 0.498-0.608 0.169-0.088 0.33-0.128 0.479-0.254 0.161-0.138 0.306-0.342 0.534-0.349 0.059 0 0.161 0.026 0.218-0.005 0.040-0.021 0.054-0.062 0.1-0.085 0.059-0.031 0.13-0.031 0.19-0.064 0.090-0.052 0.145-0.107 0.161-0.197 0.017-0.104 0.012-0.254-0.028-0.351-0.052-0.123-0.057-0.112-0.171-0.138-0.052-0.012-0.209-0.038-0.152-0.116z"></path>
<path d="M8.045 20.763c0 0-0.002 0-0.002 0-0.002-0.005-0.002-0.009 0.002 0zM8.377 21.3c0.026-0.012 0.052-0.019 0.076-0.026 0.059-0.116 0.104-0.254 0.028-0.356-0.083-0.114-0.23-0.119-0.361-0.14-0.002-0.031-0.012-0.059-0.036-0.081-0.033-0.028-0.256-0.095-0.311-0.090-0.107 0.007-0.263 0.074-0.363 0.112-0.085 0.033-0.081 0.031-0.119 0.090-0.024 0.038-0.054 0.081-0.078 0.121-0.038 0.067-0.050 0.128-0.104 0.19s-0.123 0.126-0.176 0.197c-0.074 0.1-0.114 0.221-0.121 0.342-0.007 0.135 0.019 0.244-0.042 0.373-0.050 0.109-0.078 0.1-0.199 0.097-0.147-0.002-0.176 0.026-0.282 0.1-0.052 0.038-0.104 0.062-0.169 0.081-0.104 0.028-0.183 0.071-0.278 0.119s-0.114 0.085-0.202 0.007c-0.024-0.019-0.045-0.042-0.069-0.067-0.069-0.069-0.062-0.081-0.064-0.178-0.002-0.149-0.081-0.294-0.128-0.437-0.033-0.1-0.052-0.178-0.048-0.285 0.007-0.097 0.043-0.126 0.081-0.204-0.038 0.033-0.054 0.081-0.078 0.123-0.038 0.071-0.095 0.126-0.135 0.192-0.036 0.059-0.028 0.107-0.059 0.166-0.050 0.107-0.114 0.13-0.116 0.256-0.002 0.138-0.005 0.282 0.002 0.418 0.007 0.14 0.112 0.214 0.133 0.342 0.017 0.104 0.009 0.225 0.042 0.327 0.026 0.083 0.045 0.081 0.15 0.128 0.301 0.145 0.541 0.159 0.888 0.135 0.169-0.012 0.301-0.017 0.444-0.097 0.097-0.054 0.19-0.116 0.278-0.183 0.116-0.090 0.199-0.164 0.263-0.275 0.078-0.638 0.572-1.248 1.153-1.497z"></path>
</svg>
