<!-- Generated by IcoMoon.io -->
<svg version="1.1" xmlns="http://www.w3.org/2000/svg" width="31" height="32" viewBox="0 0 31 32">
<title>filter</title>
<path fill="#394852" d="M4 5.2l-0.616 1.313 9.816 11.778v8.709l0.234 0.566 4 4 1.366-0.566v-12.709l9.816-11.778-0.616-1.313zM5.709 6.8h20.581l-8.906 10.688-0.184 0.512v11.069l-2.4-2.4v-8.669l-0.184-0.512zM13.494 9.363c-1.016-0.113-2.152 0.165-3.059 1.072l1.131 1.131c0.593-0.593 1.082-0.69 1.753-0.616s1.491 0.409 2.366 0.784c0.875 0.375 1.806 0.79 2.822 0.903s2.152-0.165 3.059-1.072l-1.131-1.131c-0.593 0.593-1.082 0.69-1.753 0.616s-1.491-0.409-2.366-0.784c-0.875-0.375-1.806-0.79-2.822-0.903z"></path>
</svg>
