<!-- Generated by IcoMoon.io -->
<svg version="1.1" xmlns="http://www.w3.org/2000/svg" width="32" height="32" viewBox="0 0 32 32">
<title>finish</title>
<path fill="#394852" d="M11.672 4.703c-2.6 0.26-5.374 1.021-6.925 1.537l-0.737 0.247 6.225 20.744 1.531-0.462-5.753-19.178c1.524-0.471 3.693-1.081 5.816-1.294 1.2-0.12 2.324-0.11 3.116 0.075s1.156 0.46 1.297 0.881l-0.025-0.097c0.842 4.209 2.003 7.041 2.509 8.369-1.045-0.311-2.17-0.429-3.3-0.322-1.85 0.176-3.64 0.691-4.678 1.037l0.506 1.519c0.962-0.321 2.672-0.805 4.322-0.962 1.543-0.147 2.905 0.079 3.656 0.678-0.268 0.25-0.831 0.608-1.406 0.959-0.584 0.357-1.165 0.679-1.606 1.166-0.221 0.243-0.477 0.61-0.403 1.113s0.463 0.82 0.828 1.003c1.853 0.926 4.233 0.269 6.337-0.566 1.052-0.417 2.035-0.908 2.831-1.366s1.373-0.839 1.753-1.219l0.406-0.406-0.256-0.516c-1.451-2.902-1.916-8.75-1.916-10.644l-1.553-0.269c-0.117 0.329-0.468 0.964-1.019 1.478s-1.28 0.931-2.278 0.994l0.1 1.594c1.402-0.089 2.506-0.705 3.272-1.419 0.027-0.025 0.024-0.050 0.050-0.075 0.147 2.481 0.572 5.673 1.722 8.363-0.242 0.188-0.523 0.412-1.078 0.731-0.731 0.42-1.656 0.881-2.625 1.266-1.691 0.671-3.397 0.909-4.484 0.663 0.241-0.173 0.405-0.313 0.753-0.525 0.58-0.354 1.208-0.718 1.697-1.184 0.244-0.233 0.484-0.497 0.587-0.916 0.079-0.318-0.109-0.659-0.288-0.962l0.087-0.034c0 0-1.98-4.96-2.959-9.859l-0.009-0.050-0.016-0.047c-0.36-1.079-1.37-1.679-2.453-1.931s-2.334-0.242-3.634-0.112z"></path>
</svg>
