<!-- Generated by IcoMoon.io -->
<svg version="1.1" xmlns="http://www.w3.org/2000/svg" width="33" height="32" viewBox="0 0 33 32">
<title>fog_over_innsmouth</title>
<path d="M12.162 10.658c-0.085-0.494-0.593-0.571-1.018-0.617-0.797-0.087-1.868 0.029-2.609 0.495-0.102 0.029-0.204 0.073-0.315 0.143-0.278 0.174-0.541 0.425-0.694 0.719-0.084 0.164-0.095 0.29-0.043 0.393 0.018 0.099 0.070 0.194 0.185 0.278 0.371 0.27 0.914 0.222 1.344 0.227 0.033 0 0.087-0.025 0.143-0.066 0.015 0 0.029-0.001 0.044-0.001 0.185-0.129 0.361-0.281 0.481-0.462-0.090 0.015-0.181 0.022-0.268 0.025-0.2 0.061-0.438 0.066-0.603 0.015-0.137-0.042-0.246-0.154-0.232-0.305 0.007-0.081 0.049-0.147 0.105-0.202 0.207-0.284 0.68-0.403 0.988-0.48 0.427-0.108 0.951-0.213 1.388-0.097 0.259 0.067 0.485 0.32 0.306 0.571-0.001 0.011 0.001 0.018-0.001 0.029-0.182 0.568-0.919 1.051-1.431 1.301-0.367 0.181-0.873 0.403-1.287 0.27-0.011 0.004-0.018 0.007-0.029 0.011-0.007 0.001-0.018 0.001-0.025 0.003-0.608 0.033-1.066-0.28-1.655-0.335-1.018-0.095-1.922 0.705-2.948 0.726-0.087 0.001-0.346 0.4-0.223 0.435 1.079 0.303 2.154-0.715 3.12 0.007 0.179 0.133 0.363 0.227 0.548 0.284 0.022-0.018 0.048-0.029 0.084-0.025 0.203 0.018 0.401 0.018 0.597 0.003 0.602-0.138 1.176-0.348 1.728-0.638 0.502-0.347 1.016-0.754 1.42-1.195 0.136-0.113 0.259-0.23 0.36-0.341 0.255-0.283 0.611-0.769 0.541-1.171z"></path>
<path d="M28.011 19.029c0.797-0.473 1.518-1.248 2.31-2.266 0.085-0.11 0.445-0.708 0.246-0.834 0.165-0.392 0.218-0.832 0.098-1.15-0.044-0.231-0.197-0.424-0.504-0.543-0.576 0.069-1.136 0.202-1.686 0.437-0.123 0.053-0.245 0.112-0.366 0.169-0.768 0.392-1.451 0.909-2.171 1.382-0.627 0.411-1.328 0.697-2.089 0.669-0.312-0.015-0.6-0.087-0.881-0.185-0.299-0.018-0.588-0.106-0.867-0.224-0.144-0.029-0.29-0.066-0.431-0.111-0.122-0.025-0.242-0.060-0.358-0.105-0.129-0.033-0.256-0.074-0.381-0.125-0.191-0.078-0.651-0.258-0.646-0.526 0.001-0.043 0.025-0.094 0.066-0.113 0.259-0.123 0.607-0.070 0.936-0.033 1.079-0.051 2.108-0.277 3.113-0.692 0.033-0.015 0.063-0.015 0.087-0.001 0.262-0.094 0.533-0.215 0.772-0.413 0.413-0.189 0.804-0.455 1.077-0.814 0.015-0.022 0.056-0.079 0.101-0.151 0.424-0.351 0.655-0.796 0.063-1.122-0.74-0.41-2.056-0.248-2.843-0.189-0.6 0.043-1.167 0.13-1.711 0.302-0.281 0.060-0.562 0.126-0.842 0.187-0.018 0.004-0.036 0.004-0.053 0.001-0.242 0.088-0.474 0.196-0.681 0.322-0.22 0.134-0.512 0.334-0.588 0.597-0.081 0.281 0.109 0.363 0.341 0.463 0.334 0.145 0.796 0.27 1.195 0.21 0.011 0.004 0.022 0.011 0.036 0.015s0.025 0.003 0.039 0.004c0.253-0.029 0.589-0.074 0.87-0.186 0.129-0.099 0.242-0.222 0.347-0.354-0.041 0.004-0.080 0.007-0.119 0.011-0.319 0.118-0.712 0.133-0.937-0.015-0.036-0.022-0.059-0.062-0.063-0.104-0.025-0.079-0.007-0.176 0.063-0.283 0.154-0.231 0.491-0.369 0.831-0.452 0.327-0.039 0.658-0.066 0.999-0.067 0.168 0 0.336-0.001 0.504-0.003 0.28 0.051 0.543 0.15 0.684 0.334 0.126 0.162 0.115 0.319 0.038 0.456-0.033 0.455-1.016 0.827-1.332 0.911-0.757 0.203-1.516 0.313-2.3 0.224-0.076-0.007-0.155-0.018-0.236-0.025-0.63-0.018-1.263-0.25-1.834-0.494-1.205-0.512-2.205-1.108-3.562-1.074-0.609 0.015-1.196 0.151-1.794 0.246-0.194-0.015-0.429 0.052-0.589 0.079-0.059 0.011-0.115 0.025-0.171 0.040-0.084 0.007-0.168 0.015-0.253 0.015-0.011 0-0.022-0.001-0.033 0.001-0.048-0.015-0.090-0.029-0.128-0.054-0.042-0.126 0.073-0.267 0.21-0.376 0.060-0.080 0.178-0.169 0.246-0.234 0.336-0.176 0.69-0.317 1.083-0.407 0.585-0.134 1.184-0.176 1.782-0.179 0.116-0.001 0.234-0.001 0.351 0.003 0.168 0.003 0.336 0.007 0.504 0.015 0.025 0.001 0.045 0.011 0.063 0.018 0.295 0.029 0.597 0.070 0.909 0.123 0.803 0.14 1.603 0.253 2.406 0.059 0.728-0.176 1.409-0.574 2.127-0.782 0.051-0.001 0.101 0.003 0.151 0.004 0.144-0.036 0.292-0.059 0.442-0.076 0.316-0.060 0.648-0.080 0.929-0.107 0.372-0.036 0.75-0.064 1.128-0.067-0.054-0.022-0.11-0.042-0.165-0.063-0.809-0.299-1.733-0.417-2.592-0.343-0.411 0.036-1.126 0.266-1.775 0.306-0.011-0.003-0.018-0.004-0.029-0.004-1.26-0.119-2.187-0.918-3.408-1.111-1.122-0.179-2.248 0.186-3.234 0.699-0.015 0.007-0.087 0.088-0.036 0.081 0.168-0.025 0.334-0.048 0.502-0.069 0.456-0.112 0.939-0.161 1.405-0.168 0.041 0 0.081 0 0.122 0.001 0.105 0.015 0.21 0.029 0.313 0.054 0.018 0.007 0.039 0.015 0.057 0.022 0.018 0.003 0.038 0.007 0.057 0.011 0.029 0.011 0.059 0.015 0.088 0.025 0.071 0.025 0.196 0.082 0.285 0.144 0.271 0.091 0.53 0.242 0.413 0.469-0.105 0.202-0.474 0.111-0.638 0.099-0.687-0.045-1.353-0.003-2.026 0.147-0.732 0.164-1.441 0.399-2.103 0.751-0.379 0.203-0.771 0.571-1.186 0.705-0.185 0.115-0.373 0.222-0.565 0.322-0.4 0.23-0.813 0.414-1.24 0.562-0.066 0.025-0.131 0.053-0.197 0.080-0.916 0.213-1.821 0.512-2.629 0.979-0.505 0.292-1.879 1.151-1.584 1.921 0.175 0.452 0.644 0.53 1.164 0.462 0.505 0.011 1.147-0.186 1.459-0.268 1.807-0.474 3.402-0.284 5.229-0.194 1.105 0.298 2.17-0.25 3.258-0.485 0.015-0.022 0.036-0.039 0.069-0.046 0.471-0.106 2.284-0.015 1.662-0.855-0.329-0.443-0.919-0.729-1.537-0.915-0.018-0.001-0.033 0-0.051-0.001-0.092-0.029-0.183-0.054-0.273-0.070-0.074-0.029-0.151-0.052-0.232-0.072-0.036-0.007-0.071-0.015-0.106-0.022-0.442-0.085-0.941-0.067-1.288-0.062-0.209 0.004-0.418 0.015-0.625 0.036-0.534-0.029-1.178 0.222-1.516 0.558-0.218 0.217-0.367 0.543-0.041 0.733 0.325 0.19 0.774 0.307 1.149 0.312 0.029 0 0.070-0.015 0.115-0.038 0.015 0.003 0.029 0.007 0.048 0.004 0.107-0.015 0.26-0.129 0.277-0.242 0.025-0.157-0.186-0.12-0.28-0.116-0.088 0.004-0.178-0.004-0.256-0.048-0.007-0.004-0.015-0.011-0.025-0.018-0.038-0.138 0.022-0.29 0.129-0.379 0.099-0.112 0.25-0.191 0.385-0.213 0.018-0.001 0.029 0 0.043 0.001 0.616-0.196 1.426-0.113 2.017 0.11 0.088 0.033 0.23 0.082 0.355 0.151 0.029 0.011 0.056 0.018 0.082 0.029 0.082 0.036 0.176 0.113 0.246 0.202 0 0.011 0.001 0.018 0.001 0.029 0.033 0.036 0.054 0.073 0.060 0.11 0.042 0.11 0.029 0.234-0.118 0.27-0.015 0.003-0.025 0.004-0.041 0.007-0.004 0.003-0.011 0.007-0.015 0.011-0.015 0.004-0.029 0.011-0.043 0.018-0.007-0.003-0.018-0.004-0.025-0.011-0.104 0.022-0.207 0.043-0.298 0.067-0.262 0.069-0.516 0.159-0.776 0.234-0.029 0.007-0.059 0.015-0.090 0.022-0.288 0.098-0.579 0.182-0.887 0.214-0.94 0.298-4.018-0.102-4.243-0.86-0.045-0.046-0.085-0.099-0.116-0.162-0.044-0.084-0.061-0.161-0.063-0.232 0.181-0.323 0.48-0.502 0.783-0.68 0.67-0.253 1.371-0.434 2.079-0.527 0.729-0.097 1.539-0.155 2.308-0.063 1.288 0.104 2.413 0.579 3.314 1.444 0.306 0.207 0.611 0.42 0.919 0.644 0.053 0.039 0.131 0.090 0.217 0.151 0.094 0.038 0.187 0.084 0.28 0.134 0.151 0.084 0.315 0.145 0.473 0.214 0.166 0.048 0.355 0.067 0.501 0.166 0.239 0.164 0.221 0.446-0.018 0.603-0.264 0.175-0.67 0.191-0.978 0.203-0.178 0.007-0.396 0.015-0.589-0.036-0.049-0.004-0.099-0.011-0.151-0.018-0.004-0.004-0.015-0.007-0.018-0.015-0.192-0.025-0.382-0.066-0.575-0.115-0.466-0.118-0.992-0.193-1.448-0.352-0.154-0.007-0.305-0.004-0.455 0.003-0.051 0.015-0.101 0.022-0.151 0.039-0.043 0.015-0.080 0.004-0.108-0.015-0.641 0.073-1.273 0.266-2.006 0.491-1.067 0.327-2.082-0.119-3.118-0.363-1.112 0.011-2.138 0.467-3.159 0.905-0.452 0.193-0.908 0.392-1.388 0.504-0.415 0.098-0.838 0.099-1.259 0.148 1.375 0.138 2.64-0.52 4.002-0.655 1.536-0.153 2.855 0.912 4.396 0.439 0.844-0.259 1.686-0.788 2.556-0.835 0.312-0.018 0.611 0.039 0.908 0.127 0.025 0.003 0.046 0.003 0.070 0.004 0.036 0.004 0.064 0.022 0.085 0.043 0.488 0.164 0.968 0.395 1.473 0.509 1.020 0.229 2.104 0.029 3.12-0.409 0.168-0.127 0.34-0.2 0.515-0.239 0.025-0.015 0.051-0.025 0.074-0.038 0.025 0.004 0.048 0.007 0.072 0.015 0.361-0.045 0.739 0.025 1.133 0.038 0.929 0.029 1.82-0.418 2.644-0.788 0.171-0.077 0.46-0.218 0.748-0.294 0.116-0.069 0.241-0.123 0.368-0.172 0.153-0.061 0.309-0.112 0.466-0.162 0.051 0.004 0.099 0.022 0.143 0.053 0.138 0.102 0.12 0.255 0.057 0.397-0.040 0.094-0.101 0.185-0.157 0.277-0.046 0.048-0.095 0.094-0.146 0.137-0.078 0.136-0.203 0.259-0.294 0.344-1.042 0.979-2.771 1.389-4.12 1.683-1.028 0.224-2.293 0.518-3.394 0.306-0.22-0.042-0.445-0.157-0.655-0.232-0.209-0.073-0.418-0.138-0.627-0.21-0.217-0.074-0.428-0.169-0.628-0.283-0.196-0.11-0.365-0.271-0.565-0.374-0.332-0.171-0.702-0.228-1.073-0.22-0.263 0.038-0.523 0.108-0.768 0.187-0.834 0.406-1.589 1.072-2.525 1.217-0.469 0.073-0.806-0.029-1.182-0.298-0.803-0.575-1.547-0.685-2.447-0.252-0.997 0.81-1.991 1.656-3.205 2.115-0.705 0.267-1.455 0.395-2.209 0.409-0.653 0.015-1.104-0.109-1.585-0.42-0.003 0.003-0.004 0.004-0.004 0.011 1.333 1.056 3.029 1.168 4.702 1.093 0.831-0.036 1.663-0.112 2.494-0.033 0.786 0.074 1.556 0.261 2.34 0.344 0.12-0.007 0.239-0.022 0.358-0.041 0.947-0.155 1.781-0.709 2.461-1.368 0.204-0.199 0.485-0.319 0.742-0.439 0.127-0.060 0.256-0.12 0.385-0.175 0.122-0.052 0.246-0.099 0.378-0.118 0.154-0.018 0.4-0.015 0.508 0.116 0.007 0.004 0.018 0.011 0.025 0.015 0.078 0.061 0.116 0.153 0.108 0.24 0.039-0.018 0.080-0.039 0.118-0.060 0.11-0.061 0.215-0.13 0.319-0.203 0.018-0.022 0.039-0.052 0.059-0.080 0.119-0.090 0.249-0.204 0.301-0.35 0.029-0.080 0.025-0.175-0.025-0.245-0.053-0.076-0.15-0.106-0.24-0.127-0.488-0.115-0.985-0.069-1.458 0.087-0.477 0.157-0.965 0.388-1.385 0.662-0.206 0.134-0.382 0.304-0.586 0.439-0.206 0.136-0.427 0.248-0.662 0.323-0.12 0.039-0.243 0.069-0.369 0.088-0.8 0.126-1.606-0.126-2.417-0.21-0.836-0.033-1.668-0.007-2.486 0.333-0.007-0.049 0.004-0.102 0.054-0.138 0.716-0.519 1.403-1.009 2.342-0.911 0.383 0.040 0.74 0.19 1.116 0.268 0.292 0.061 0.589 0.070 0.884 0.045 0.029-0.011 0.057-0.022 0.087-0.033 0.036-0.003 0.073-0.001 0.109-0.004 0.694-0.262 1.381-0.604 2.12-0.827 0.011-0.003 0.022-0.007 0.033-0.011 0.557-0.311 1.203-0.685 1.865-0.621 0.332 0.033 0.639 0.166 0.961 0.239 0.333 0.076 0.666 0.155 0.988 0.274 0.101 0.036 0.203 0.071 0.304 0.106 0.082 0.029 0.192 0.045 0.253 0.109 0.033 0.036 0.049 0.080 0.060 0.125 0.015 0.060 0.018 0.123 0.003 0.182-0.022 0.080-0.084 0.145-0.155 0.187-0.101 0.060-0.217 0.076-0.329 0.104-0.123 0.029-0.245 0.066-0.366 0.098-0.285 0.077-0.576 0.147-0.859 0.235-0.137 0.044-0.271 0.092-0.407 0.138-0.125 0.042-0.281 0.115-0.413 0.115-0.113 0.018-0.231 0.015-0.343 0.038-0.127 0.029-0.249 0.081-0.371 0.131-0.284 0.115-0.551 0.264-0.813 0.422-0.367 0.222-0.687 0.511-1.062 0.723-0.099 0.057-0.201 0.109-0.303 0.158-0.256 0.175-0.532 0.322-0.852 0.428-0.369 0.123-0.988 0.291-1.43 0.169-0.561-0.025-1.129-0.236-1.698-0.274-0.859-0.057-1.757 0.176-2.58 0.604 0.111-0.025 0.221-0.049 0.326-0.072 0 0.004 0.001 0.007 0.011 0.007 0.414-0.018 0.825-0.077 1.241-0.071 0.537 0.007 0.967 0.175 1.46 0.358 0.276 0.102 0.561 0.179 0.848 0.227 0.029 0.007 0.057 0.018 0.085 0.029 0.41 0.119 0.837 0.179 1.256 0.153 0.522 0.094 1.22-0.294 1.634-0.485 0.494-0.227 0.986-0.394 1.484-0.539 0.056-0.004 0.112-0.015 0.168-0.018 0.718-0.059 1.442-0.092 2.161-0.074 0.778 0.022 1.54 0.204 2.301 0.439 0.275 0.085 0.579 0.14 0.852 0.283 0.299 0.049 0.586 0.148 0.782 0.388 0.053 0.066 0.049 0.204 0.001 0.273-0.288 0.411-0.662 0.588-1.034 0.788-0.624 0.334-1.252 0.659-1.904 0.855-0.592 0.178-1.172 0.221-1.775 0.219-0.326-0.001-0.691 0.036-0.971-0.252-0.057-0.060-0.079-0.191-0.046-0.277 0.015-0.159 0.151-0.287 0.274-0.389 0.395-0.329 1.094-0.697 1.631-0.617 0.434 0.066 0.367 0.512-0.004 0.62-0.029 0.007-0.066 0.015-0.101 0.018-0.003 0.001-0.003 0.004-0.004 0.004-0.078 0.057-0.151 0.112-0.222 0.168-0.053 0.057-0.092 0.119-0.109 0.176 0.001 0.022-0.003 0.042-0.007 0.063 0.003 0.049 0.033 0.089 0.095 0.116 0.011-0.001 0.022-0.003 0.029-0.003 0.389 0.036 0.888-0.264 1.249-0.424 0.036-0.015 0.108-0.078 0.186-0.165 0.294-0.141 0.543-0.334 0.641-0.588 0.316-0.823-0.841-0.94-1.389-0.96-1.335-0.045-2.571 0.424-3.788 0.916-0.779 0.316-1.586 0.666-2.431 0.761-0.316 0.036-0.624 0.022-0.932-0.007-0.561-0.182-1.118-0.381-1.686-0.533-0.466-0.126-0.964-0.236-1.451-0.219-0.069-0.033-0.144-0.051-0.221-0.066-0.116 0.015-0.236 0.015-0.355 0.007-0.229-0.004-0.455 0.004-0.683 0.029-0.087 0.015-0.171 0.029-0.25 0.041-0.518 0.085-1.025 0.228-1.502 0.449-0.147 0.069-0.301 0.151-0.434 0.258-0.255 0.145-0.484 0.343-0.671 0.643-0.059 0.159-0.072 0.339-0.015 0.537 0.025 0.081 0.063 0.151 0.109 0.215 0.485 0.386 1.481 0.565 1.938 0.673 0.741 0.176 2.256 0.473 2.936-0.049 1.090-0.835-0.877-1.167-1.585-0.912 0.193-0.029 0.427 0.057 0.555 0.203 0.076 0.087 0.129 0.214 0.106 0.313 0.004 0.001 0.011 0.001 0.018 0.003-0.011 0.022-0.029 0.039-0.043 0.057-0.018 0.022-0.038 0.042-0.067 0.057-0.060 0.042-0.134 0.074-0.21 0.087-0.126 0.022-0.28 0.015-0.432-0.015-0.193 0.004-0.388-0.040-0.576-0.106-0.133-0.046-0.287-0.091-0.389-0.186-0.199-0.094-0.43-0.231-0.431-0.439-0.001-0.309 0.429-0.389 0.655-0.441 0.638-0.144 1.648-0.305 2.289 0.044 0.334 0.077 0.66 0.207 0.967 0.393 0.362 0.122 0.727 0.243 1.095 0.348 0.14 0.015 0.28 0.029 0.42 0.033 0.492 0.129 1.011 0.174 1.526 0.225-0.029 0.004-0.061 0.011-0.092 0.015 0.537 0.022 1.073 0.094 1.609 0.222 0.648 0.085 1.298 0.173 1.95 0.148 0.157-0.007 0.526-0.081 0.83-0.060 0.182-0.029 0.364-0.036 0.523-0.011 0.071 0.011 0.147 0.036 0.204 0.072 0.073 0.011 0.153 0.082 0.118 0.164-0.098 0.238-0.326 0.378-0.572 0.483-0.133 0.116-0.323 0.209-0.529 0.267-0.209 0.119-0.509 0.178-0.634 0.199-0.245 0.042-0.492 0.045-0.739 0.022-0.183-0.001-0.344-0.015-0.436-0.018-1.128-0.056-2.194-0.453-3.301-0.613-0.084-0.004-0.161-0.007-0.24-0.011-0.4 0.076-0.8 0.164-1.2 0.242-0.007 0.001-0.015 0.004-0.022 0.004-0.029 0.004-0.057 0.011-0.087 0.015-0.508 0.095-1.018 0.168-1.542 0.153-0.663-0.018-1.332-0.171-1.994-0.061-0.038 0.015-0.077 0.025-0.113 0.042-0.274 0.078-0.543 0.182-0.802 0.316-0.466 0.242-0.862 0.599-1.339 0.821-0.073 0.033-0.144 0.060-0.215 0.085-0.119 0.057-0.239 0.109-0.368 0.144-0.134 0.038-0.26 0.053-0.382 0.056-0.095 0.025-0.193 0.038-0.304 0.033-0.022-0.001-0.101-0.015-0.199-0.022-0.025 0-0.051 0.004-0.076 0.004-0.063-0.001-0.12-0.011-0.179-0.018-0.095 0.001-0.183 0.015-0.239 0.043l-0.046 0.127c0.004 0.004 0.007 0.011 0.015 0.018 0.011 0.015 0.018 0.029 0.022 0.044 0.025 0.011 0.051 0.022 0.077 0.029 0.415 0.196 0.985 0.246 1.421 0.238 0.732 0.059 1.49-0.159 2.234-0.105 0.417 0.029 0.982 0.263 1.444 0.234 0.004 0 0.007-0.001 0.015-0.001 0.551-0.069 1.101-0.049 1.647 0.081 0.080 0.018 0.165 0.041 0.246 0.067 0.015-0.015 0.025-0.029 0.033-0.042-0.2-0.137-0.52-0.298-0.557-0.313-0.367-0.147-0.736-0.154-1.114-0.236-0.215-0.048-0.547-0.165-0.596-0.383-0.108-0.178-0.025-0.382 0.168-0.463 0.011-0.018 0.022-0.033 0.036-0.049 0.439-0.071 0.888-0.052 1.33 0.022 0.204 0.036 0.408 0.081 0.611 0.136 1.185 0.084 2.087 0.708 3.139 1.217 0.827 0.401 1.571 0.249 2.436 0.182 0.415-0.033 0.789 0.063 1.144 0.235 0.455 0.102 0.905 0.179 1.368-0.022 0.048-0.022 0.181-0.202 0.232-0.333-0.387 0.060-0.83 0.004-1.080-0.067-0.406-0.118-0.774-0.259-1.203-0.28-0.323-0.018-0.646 0.025-0.968 0.003-0.469-0.036-0.907-0.186-1.318-0.399-0.248-0.084-0.49-0.183-0.63-0.287-0.001-0.029-0.003-0.054-0.011-0.078-0.004-0.018-0.015-0.036-0.025-0.052 0.166-0.118 0.525-0.049 0.666-0.033 0.378 0.039 0.748 0.106 1.109 0.22 0.523 0.092 1.227 0.292 1.803 0.173 0.687 0.003 1.358-0.207 1.996-0.602 0.887-0.548 1.649-1.581 2.631-1.778 0.718-0.143 1.428 0.288 2.152 0.098 0.83-0.218 1.54-0.729 2.343-1 1.195-0.544 2.476-0.811 3.525 0.069-0.057-0.392-0.224-0.698-0.446-0.929-0.41-0.277-0.956-0.373-1.224-0.39-0.52-0.033-1.045 0.089-1.56 0.178-0.004 0.001-0.004-0.001-0.011-0.001-0.66 0.249-1.312 0.544-1.985 0.719-0.011 0.003-0.018-0.001-0.025-0.003-0.375 0.161-0.75 0.212-0.995-0.066-0.467-0.533 0.323-1.227 0.586-1.444 0.907-0.751 1.865-1.32 2.914-1.449 0.518-0.131 1.048-0.187 1.591-0.151 0.596 0.039 1.407 0.182 2.173 0.112 0.175-0.049 0.348-0.112 0.516-0.199 0.178-0.091 0.348-0.203 0.518-0.317 0.036-0.068 0.063-0.134 0.074-0.189-1.46 0.379-2.857-0.831-4.331-0.734-1.087 0.071-2.149 0.631-3.22 0.883-0.764 0.179-1.498 0.148-2.256 0.13-0.508-0.015-0.992-0.039-1.483-0.185-0.495-0.147-0.986-0.372-1.386-0.704 0.039 0.004 0.077 0.011 0.115 0.015-0.036-0.004 0.015-0.137 0.022-0.154 0.025-0.076 0.060-0.125 0.126-0.175 0.106-0.081 0.235-0.131 0.358-0.179 0.523-0.2 1.025-0.161 1.483 0.162 0.106 0.076 0.214 0.138 0.323 0.192 0.776 0.187 1.53 0.243 2.367 0.070 0.033-0.004 0.059 0 0.082 0.011 0.49-0.157 0.978-0.348 1.456-0.554-0.036-0.025-0.067-0.070-0.090-0.119-0.541-0.092-1.151 0.029-1.574-0.383-0.025-0.025-0.051-0.057-0.076-0.085 0.974-0.488 1.916-0.744 2.987-0.774 0.964-0.025 1.785-0.176 2.532-0.785z"></path>
<path d="M29.337 6.113c-0.301-0.21-0.797-0.319-1.197-0.36-0.964-0.099-1.939 0.048-2.805 0.467-0.052 0.018-0.105 0.033-0.154 0.054-0.212 0.059-0.411 0.165-0.567 0.332-0.090 0.095-0.158 0.204-0.19 0.316-0.025 0.046-0.040 0.092-0.046 0.137-0.045 0.354 0.409 0.495 0.681 0.54 0.022 0.004 0.052-0.004 0.084-0.015 0.033 0.007 0.064 0.011 0.094 0.007 0.138-0.015 0.276-0.148 0.327-0.27 0.072-0.172-0.089-0.206-0.218-0.245-0.070-0.022-0.179-0.033-0.229-0.090-0.004-0.004-0.004-0.011-0.007-0.015 0.015-0.025 0.029-0.052 0.048-0.077 0.004-0.022 0.011-0.042 0.022-0.061 0.022-0.015 0.045-0.025 0.069-0.036 0.146-0.14 0.35-0.256 0.506-0.311 0.47-0.164 1.28-0.277 1.616 0.203 0.415 0.593-0.148 1.232-0.702 1.476l-0.011 0.015c-0.025 0.007-0.049 0.015-0.073 0.022-0.045 0.015-0.088 0.029-0.131 0.040-0.004 0.003-0.011 0-0.018 0.001-0.077 0.022-0.154 0.045-0.232 0.066-0.081 0.007-0.162 0.018-0.232 0.025-0.344 0.041-0.698 0.064-1.049 0.082-0.090-0.018-0.179-0.029-0.266-0.051-0.68-0.036-1.365-0.25-1.977-0.589-0.344-0.164-0.676-0.361-0.993-0.602-0.15-0.113-0.802-0.487-1.087-0.832-0.352-0.292-0.666-0.67-1.035-0.934-0.152-0.109-0.308-0.194-0.464-0.27-0.53-0.157-1.077-0.208-1.627-0.178-0.011 0.001-0.025 0.004-0.036 0.007-0.396 0.113-0.781 0.26-1.154 0.448-0.234 0.116-0.495 0.296-0.76 0.402-0.228 0.147-0.47 0.271-0.697 0.365-0.448 0.186-0.918 0.302-1.361 0.501-0.155 0.069-0.296 0.155-0.436 0.243-0.143 0.018-0.317 0.185-0.381 0.255-0.085 0.095-0.207 0.256-0.171 0.402 0.025 0.105 0.133 0.151 0.225 0.187 0.12 0.046 0.25 0.061 0.378 0.053 0.171 0.054 0.361 0.076 0.509 0.098 0.056 0.007 0.11 0.015 0.166 0.022 0.186 0.041 0.39 0.059 0.557 0.069 0.011-0.004 0.022-0.007 0.036-0.007 0.099 0 0.197-0.007 0.295-0.011 0.007-0.003 0.015-0.004 0.018-0.007 0.011 0.003 0.022 0.004 0.033 0.004 0.776-0.029 1.529-0.131 2.305-0.227 0.581-0.072 1.055-0.001 1.565 0.109 0-0.001 0-0.004 0-0.007-0.033-0.054-0.066-0.099-0.102-0.14-0.316-0.14-0.603-0.276-0.909-0.365-0.236-0.015-0.476 0.007-0.714 0.036-0.311 0.057-0.621 0.13-0.929 0.189-0.292 0.056-0.648 0.109-0.981 0.088-0.14 0.007-0.281 0.001-0.409-0.018-0.069-0.007-0.153-0.025-0.227-0.053-0.095 0-0.185-0.018-0.242-0.081-0.043-0.046-0.053-0.105-0.041-0.158 0.091-0.051 0.178-0.113 0.277-0.15 0.218-0.078 0.431-0.125 0.623-0.255 0.029-0.007 0.057-0.015 0.084-0.022 0.015-0.004 0.029-0.011 0.043-0.015 0.898-0.301 1.716-0.807 2.727-0.691 0.802 0.092 1.612 0.511 2.105 1.158 0.043 0.033 0.088 0.067 0.131 0.101 0.057 0.042 0.115 0.080 0.171 0.119 0.41 0.203 0.825 0.388 1.251 0.547 0.029 0.001 0.054 0.011 0.074 0.029 0.224 0.081 0.451 0.157 0.681 0.217 0.206 0.048 0.413 0.094 0.622 0.134 0.042 0.007 0.069 0.029 0.082 0.057-0.485-0.011-0.968-0.079-1.447-0.179-0.007 0.001-0.011 0.004-0.018 0.004-0.165 0-0.329-0.001-0.494-0.003-0.883 0.051-1.655 0.52-2.539 0.596-0.953 0.081-1.844-0.283-2.791-0.303-0.853-0.018-1.666 0.15-2.504-0.1-0.253-0.074-0.684-0.178-1.010-0.35-0.022-0.011-0.042-0.018-0.063-0.029-1.511-0.737-2.44 0.778-3.948 0.772-0.049-0.001-0.211 0.21-0.134 0.256 0.537 0.323 0.916 0.291 1.476 0.143 0.873-0.232 1.396-0.214 2.206 0.217 0.147 0.078 0.295 0.134 0.442 0.181 0.67 0.425 1.298 0.479 2.1 0.157 0.65-0.26 1.192-0.621 1.879-0.512 0.045-0.007 0.092-0.011 0.137-0.015 0.96 0.071 1.889 0.283 2.826 0.581 0.942 0.301 2.111 0.485 3.012-0.042 0.043-0.025 0.218-0.218 0.066-0.182-0.968 0.236-1.798-0.015-2.652-0.278 0.246-0.072 0.5-0.153 0.765-0.243 1.157-0.401 2.167 0.178 3.227 0.466 0.465 0.059 0.926 0.062 1.382-0.033 0.508 0.085 1.42-0.365 1.742-0.478 0.894-0.313 1.792-0.66 2.57-1.21 0.39-0.276 0.93-0.68 0.891-1.218-0.029-0.41-0.317-0.596-0.67-0.677z"></path>
<path d="M23.559 4.165c0.645-0.112 1.325 0.004 1.838-0.292 0.084-0.231-0.147-0.438-0.434-0.576-0.018-0.011-0.033-0.025-0.052-0.036-0.536-0.33-1.251-0.28-1.847-0.204-0.34 0.042-0.679 0.113-1.021 0.127-0.501 0.022-0.951-0.103-1.441-0.172-0.042-0.004-0.158 0.080-0.122 0.128 0.187 0.242 0.467 0.348 0.774 0.385 0.066 0.022 0.133 0.045 0.202 0.061 0.036 0.007 0.537 0.101 0.596 0.224-0.379 0.119-0.772 0.208-1.199 0.187-0.711-0.036-1.321-0.45-2.013-0.589-0.792-0.157-1.554 0.166-2.287 0.55-0.046 0.025-0.243 0.32-0.119 0.306 0.022-0.003 0.042-0.001 0.061-0.003 0.095-0.036 0.193-0.063 0.294-0.081 0.001 0 0.003 0 0.004-0.001 0.001 0 0.003 0 0.004 0 0.015-0.001 0.025-0.003 0.038-0.004 0.558-0.168 1.29-0.046 1.798 0.074 0.61 0.145 1.157 0.477 1.763 0.637 0.071 0.018 0.143 0.033 0.215 0.046 0.064 0.007 0.129 0.015 0.191 0.018 0.393 0.022 0.772-0.076 1.143-0.2 0.513-0.257 1.051-0.487 1.613-0.585z"></path>
</svg>
