<!-- Generated by IcoMoon.io -->
<svg version="1.1" xmlns="http://www.w3.org/2000/svg" width="32" height="32" viewBox="0 0 32 32">
<title>fools_mate</title>
<path d="M9.877 29.801c-0.161-0.26 0.254-0.784 0.62-0.784 0.15 0 0.272-0.101 0.272-0.225s0.333-0.597 0.741-1.051c0.407-0.454 0.892-1.109 1.077-1.454l0.337-0.628h6.301l0.589 1.037c0.324 0.57 0.821 1.236 1.105 1.48s0.516 0.522 0.516 0.619c0 0.097 0.186 0.224 0.412 0.284 0.267 0.070 0.388 0.234 0.343 0.467-0.065 0.337-0.448 0.363-6.127 0.412-4.102 0.035-6.1-0.015-6.187-0.157zM12.744 24.983c0-0.337 0.168-0.568 0.543-0.748 0.837-0.401 1.091-1.428 1.115-4.502 0.011-1.467-0.047-2.911-0.131-3.21-0.144-0.515-0.213-0.543-1.333-0.543-0.918 0-1.181-0.066-1.181-0.296 0-0.165 0.176-0.296 0.395-0.296 0.217 0 0.373-0.068 0.346-0.152s0.151-0.367 0.395-0.63c0.244-0.263 0.444-0.55 0.444-0.638s1.18-0.16 2.623-0.16h2.623l0.538 0.613c0.296 0.337 0.538 0.682 0.538 0.767s0.187 0.203 0.415 0.263c0.781 0.204 0.155 0.53-1.019 0.53-0.645 0-1.176 0.067-1.18 0.148s-0.090 0.794-0.192 1.584c-0.217 1.667 0.049 5.118 0.453 5.889 0.145 0.276 0.48 0.611 0.745 0.743 0.266 0.133 0.482 0.414 0.482 0.629 0 0.37-0.167 0.392-3.309 0.443l-3.309 0.054zM13.447 13.232c-0.061-0.099-0.057-0.321 0.009-0.494 0.101-0.264 0.512-0.314 2.562-0.314 2.182 0 2.462 0.039 2.639 0.369 0.109 0.203 0.141 0.425 0.073 0.494-0.197 0.197-5.159 0.145-5.282-0.055zM15.912 12.029l-2.264-0.099-1.828-4.346 1.474-0.126c0.909-0.078 1.539-0.229 1.645-0.395 0.248-0.392 0.214-0.565-0.111-0.565-0.703 0-1.289-0.469-1.414-1.132-0.193-1.027 0.149-1.57 1.087-1.729 0.737-0.124 0.787-0.174 0.688-0.669-0.086-0.429-0.008-0.588 0.394-0.803 0.433-0.232 0.568-0.224 0.999 0.058 0.414 0.271 0.467 0.405 0.318 0.798-0.169 0.444-0.128 0.48 0.679 0.601 0.922 0.138 1.091 0.352 1.091 1.372 0 0.82-0.333 1.24-1.143 1.443-0.602 0.15-0.629 0.191-0.367 0.548 0.222 0.304 0.58 0.403 1.686 0.465 0.772 0.044 1.404 0.104 1.404 0.134 0 0.199-1.788 4.328-1.915 4.423-0.087 0.066-1.178 0.075-2.423 0.021z"></path>
</svg>
