<!-- Generated by IcoMoon.io -->
<svg version="1.1" xmlns="http://www.w3.org/2000/svg" width="33" height="32" viewBox="0 0 33 32">
<title>for_the_greater_good</title>
<path d="M11.094 15.233c-0.005-0.011-0.010-0.022-0.016-0.033 0.021 0.026 0.023 0.069 0.030 0.101 0.043 0.207 0.061 0.42 0.094 0.63 0.026 0.162 0.050 0.323 0.073 0.486 0.009 0.071 0.005 0.188 0.053 0.248 0.076 0.090 0.145 0.022 0.203-0.038 0.098-0.098 0.202-0.159 0.326-0.225 0.136-0.074 0.214-0.17 0.27-0.305 0.040-0.102 0.1-0.231 0.098-0.34-0.001-0.103-0.115-0.219-0.158-0.318-0.027-0.067-0.085-0.219-0.051-0.297 0.018-0.043 0.116-0.065 0.159-0.095 0.068-0.048 0.106-0.099 0.194-0.123 0.091-0.022 0.173-0.040 0.265-0.070 0.097-0.033 0.192-0.022 0.29-0.038 0.073-0.015 0.134-0.055 0.19-0.096 0.070-0.051 0.078-0.116 0.060-0.196-0.012-0.050-0.038-0.096-0.048-0.146-0.017-0.068-0.017-0.138-0.031-0.206-0.009-0.042-0.022-0.112-0.060-0.141-0.123-0.091-0.396 0.044-0.515 0.064-0.253 0.040-0.523 0.004-0.771-0.033-0.090-0.015-0.183-0.018-0.272-0.030-0.065-0.011-0.137-0.040-0.2-0.067-0.181-0.073-0.391-0.044-0.583-0.090-0.121-0.030-0.227-0.086-0.349-0.108-0.138-0.026-0.278-0.040-0.415-0.068-0.153-0.030-0.299-0.026-0.452-0.039-0.151-0.011-0.303-0.042-0.456-0.055-0.412-0.033-0.835-0.011-1.248-0.007-0.198 0-0.394-0.022-0.592-0.037-0.196-0.015-0.39-0.011-0.585-0.011-0.198 0-0.404 0.015-0.601-0.004-0.157-0.015-0.309-0.018-0.467-0.018-0.197 0.001-0.391-0.022-0.587-0.026-0.216-0.003-0.434 0.001-0.651 0.001-0.232 0-0.484 0.022-0.712-0.015-0.124-0.018-0.263-0.089-0.389-0.078-0.007 0.069-0.001 0.128-0.025 0.2-0.074 0.225-0.218 0.439-0.322 0.656-0.108 0.224-0.205 0.452-0.314 0.677-0.030 0.060-0.068 0.123 0.017 0.156 0.136 0.055 0.297-0.001 0.429-0.033 0.206-0.051 0.426-0.12 0.642-0.13 0.141-0.004 0.274 0.011 0.413 0.022 0.109 0.007 0.228-0.015 0.336 0.004-0.063 0.096-0.119 0.194-0.188 0.288-0.134 0.184-0.222 0.376-0.319 0.574-0.048 0.098-0.090 0.193-0.145 0.287-0.044 0.076-0.087 0.159-0.106 0.242-0.010 0.044-0.010 0.089-0.029 0.13-0.167 0.389-0.296 0.788-0.438 1.184-0.067 0.181-0.18 0.386-0.184 0.579-0.001 0.076-0.018 0.15 0.051 0.203 0.145 0.109 0.381 0.094 0.554 0.094 0.183 0 0.359-0.011 0.531-0.070 0.104-0.037 0.076-0.124 0.093-0.214 0.060-0.333 0.138-0.665 0.239-0.988 0.076-0.245 0.149-0.506 0.284-0.729 0.087-0.143 0.177-0.286 0.269-0.426 0.074-0.113 0.117-0.222 0.17-0.346 0.038-0.091 0.070-0.184 0.109-0.274 0.039-0.092 0.1-0.183 0.127-0.278 0.007 0.030 0.013 0.072 0.043 0.090 0.052 0.033 0.236-0.038 0.284-0.050 0.128-0.030 0.257-0.039 0.385-0.062 0.215-0.038 0.423-0.102 0.641-0.119 0.172-0.015 0.347-0.004 0.519-0.004 0.138 0 0.276-0.004 0.415 0.004 0.381 0.030 0.76 0.004 1.141 0.018 0.151 0.004 0.296 0.039 0.446 0.044 0.176 0.007 0.331 0.033 0.499 0.072 0.099 0.022 0.19 0.015 0.291 0.026 0.095 0.007 0.177 0.044 0.27 0.060 0.107 0.018 0.229 0.004 0.338 0.004 0.052 0 0.108 0.007 0.159-0.003 0.064-0.015 0.115-0.073 0.185-0.064-0.034 0.022-0.076 0.026 0.094-0.003z"></path>
<path d="M7.065 12.501c0.113 0.030 0.153 0.030 0.258-0.015 0.096-0.042 0.194-0.090 0.275-0.151 0.168-0.13 0.197-0.404 0.102-0.583-0.072-0.134-0.218-0.253-0.359-0.327-0.227-0.121-0.473-0.084-0.709 0.007-0.090 0.037-0.214 0.042-0.29 0.096-0.081 0.060-0.112 0.188-0.137 0.275-0.038 0.128-0.108 0.301-0.081 0.434 0.048 0.225 0.303 0.278 0.502 0.36 0.048 0.022 0.094 0.052 0.143 0.068 0.085 0.026 0.183 0.038 0.295-0.166z"></path>
<path d="M9.754 12.589c-0.094 0.074 0.026 0.090 0.102 0.107 0.175 0.038 0.317 0.043 0.434-0.096 0.224-0.267 0.222-0.685-0.085-0.906-0.177-0.128-0.542-0.085-0.747-0.039-0.183 0.042-0.271 0.090-0.355 0.24-0.043 0.076-0.089 0.154-0.042 0.237s0.153 0.172 0.22 0.239c0.184 0.186 0.395 0.198 0.644 0.284z"></path>
<path d="M27.338 13.008c-0.109-0.156 0.074-0.141 0.194-0.142 0.274-0.001 0.486 0.039 0.608 0.314 0.23 0.52 0.063 1.21-0.48 1.469-0.316 0.15-0.841-0.050-1.128-0.197-0.254-0.132-0.368-0.245-0.434-0.522-0.034-0.14-0.072-0.286 0.031-0.408 0.102-0.12 0.293-0.231 0.42-0.319 0.348-0.242 0.666-0.188 1.070-0.242z"></path>
<path d="M17.838 12.149c0-0.111-0.016-0.237 0.003-0.348 0.029-0.171 0.107-0.333 0.146-0.502 0.032-0.145 0.046-0.296 0.067-0.443 0.040-0.275 0.093-0.549 0.163-0.819 0.085-0.325 0.186-0.644 0.252-0.974 0.034-0.172 0.059-0.342 0.078-0.515 0.013-0.112 0.046-0.206 0.076-0.313 0.016-0.057 0.026-0.113 0.001-0.167-0.037-0.080-0.155-0.16-0.239-0.167-0.085-0.004-0.157 0.026-0.236 0.052-0.117 0.039-0.232 0.056-0.357 0.059-0.266 0.004-0.531-0.074-0.797-0.065-0.241 0.007-0.443 0.163-0.682 0.188-0.171 0.018-0.344 0-0.516 0.018-0.15 0.015-0.3 0.040-0.451 0.037-0.127-0.004-0.252-0.048-0.377-0.068-0.132-0.022-0.242 0.011-0.372 0.015-0.012 0.042 0.068 0.16 0.076 0.176 0.097 0.194 0.169 0.398 0.259 0.595 0.076 0.166 0.158 0.329 0.219 0.501 0.053 0.151 0.094 0.305 0.142 0.458 0.090 0.286 0.197 0.556 0.309 0.831 0.070 0.175 0.070 0.359 0.127 0.535 0.050 0.158 0.039 0.325 0.083 0.484 0.033 0.116 0.104 0.213 0.125 0.329 0.034 0.007 0.069 0.007 0.099 0.018 0.030 0.007 0.053 0.011 0.087 0.011 0.119 0.007 0.203 0.038 0.322-0.003 0.158-0.054 0.316-0.112 0.482-0.124 0.184-0.011 0.4-0.018 0.578 0.018 0.073 0.015 0.157-0.011 0.227 0.011-0.035 0.081-0.034 0.184-0.061 0.275-0.024 0.073-0.039 0.133-0.040 0.21-0.001 0.089 0.012 0.173-0.013 0.258-0.013 0.043-0.030 0.081-0.037 0.126-0.007 0.051 0.008 0.102 0.001 0.151-0.005 0.037-0.018 0.069-0.052 0.082-0.030 0.011-0.104-0.001-0.136-0.001-0.169 0.001-0.326-0.042-0.494-0.052-0.107-0.007-0.207 0.026-0.314 0.026-0.109 0.001-0.226 0.007-0.335-0.004-0.076-0.007-0.143-0.022-0.219-0.022-0.094 0-0.164-0.050-0.254-0.055-0.017-0.001-0.113-0.011-0.125 0.004-0.026 0.030 0.078 0.16 0.094 0.19 0.066 0.136 0.113 0.253 0.109 0.402 0 0.043 0.023 0.181-0.017 0.202-0.013-0.045-0.047-0.048-0.086-0.051-0.099-0.007-0.197-0.026-0.295-0.039-0.1-0.015-0.215 0.007-0.312-0.015-0.056-0.015-0.153-0.056-0.185-0.111-0.024-0.039-0.020-0.143-0.025-0.181-0.016-0.108-0.027-0.217-0.038-0.326-0.021-0.213-0.056-0.424-0.068-0.638-0.008-0.148 0.001-0.295-0.026-0.441-0.056-0.305-0.209-0.584-0.309-0.876-0.042-0.119-0.066-0.241-0.103-0.363-0.050-0.163-0.098-0.327-0.159-0.488-0.052-0.138-0.125-0.266-0.167-0.408-0.091-0.314-0.189-0.634-0.262-0.953-0.047-0.2-0.103-0.394-0.171-0.587-0.027-0.081-0.074-0.054-0.151-0.065-0.205-0.026-0.4-0.018-0.605 0.001-0.258 0.026-0.484-0.050-0.709-0.172-0.040-0.022-0.078-0.044-0.121-0.055-0.046-0.011-0.059-0.004-0.093-0.044-0.073-0.083-0.139-0.167-0.222-0.24-0.051-0.047-0.113-0.086-0.143-0.151 0.207-0.026 0.382-0.171 0.591-0.2 0.136-0.018 0.276-0.007 0.413-0.022 0.111-0.007 0.222-0.026 0.332-0.039 0.077-0.007 0.172-0.040 0.253-0.026 0.055 0.007 0.125 0.103 0.179 0.076 0.007-0.033-0.031-0.048-0.044-0.074-0.034-0.069-0.026-0.2-0.035-0.269-0.016-0.115-0.053-0.224-0.066-0.339-0.017-0.138-0.033-0.274-0.057-0.411-0.052-0.287-0.134-0.561-0.231-0.836-0.068-0.196-0.15-0.383-0.203-0.583-0.047-0.172-0.085-0.346-0.117-0.52-0.042-0.22-0.081-0.446-0.141-0.661-0.077-0.276-0.186-0.546-0.295-0.812-0.038-0.095-0.081-0.184-0.111-0.282-0.043-0.134-0.134-0.242-0.184-0.376 0.066-0.033 0.166-0.037 0.239-0.060 0.139-0.046 0.276-0.096 0.424-0.102 0.102-0.004 0.203 0.007 0.305 0.001 0.056-0.003 0.146-0.045 0.199-0.030 0.063 0.018 0.034 0.085 0.040 0.154 0.016 0.166 0.064 0.323 0.117 0.48 0.143 0.416 0.254 0.844 0.413 1.254 0.141 0.365 0.219 0.748 0.352 1.116 0.093 0.257 0.193 0.516 0.246 0.785 0.040 0.206 0.087 0.419 0.154 0.618 0.042 0.124 0.091 0.237 0.123 0.365 0.031 0.124 0.076 0.121 0.184 0.16 0.091 0.033 0.177 0.082 0.272 0.106 0.102 0.022 0.22 0.015 0.323 0.007 0.102-0.007 0.192-0.030 0.293-0.018 0.091 0.011 0.181 0.030 0.272 0.042 0.154 0.018 0.342 0.018 0.497-0.001 0.183-0.022 0.365-0.004 0.545-0.033 0.127-0.018 0.242-0.018 0.366 0.018 0.142 0.043 0.256 0.077 0.407 0.074 0.226-0.004 0.451-0.001 0.678-0.001 0.050 0 0.176 0.026 0.207-0.011 0.027-0.033-0.018-0.166-0.022-0.201-0.027-0.248 0.093-0.505 0.158-0.739 0.090-0.327 0.159-0.656 0.231-0.988 0.053-0.245 0.147-0.476 0.224-0.715 0.067-0.201 0.094-0.413 0.116-0.625 0.016-0.15 0.027-0.3 0.051-0.45 0.032-0.213 0.098-0.416 0.14-0.625 0.025-0.119 0.046-0.239 0.069-0.359 0.021-0.102 0.056-0.202 0.067-0.306 0.029-0.007 0.053 0.003 0.073 0.033 0.067 0.056 0.14 0.103 0.218 0.143 0.104 0.054 0.241 0.115 0.36 0.13 0.113 0.018 0.233-0.001 0.348 0 0.067 0.001 0.109 0.011 0.13 0.085 0.042 0.151-0.027 0.363-0.048 0.511-0.035 0.25-0.068 0.502-0.128 0.748-0.065 0.267-0.172 0.522-0.242 0.788-0.047 0.173-0.064 0.348-0.069 0.528-0.014 0.471-0.179 0.904-0.362 1.33-0.048 0.111-0.077 0.23-0.128 0.339-0.026 0.059-0.040 0.132-0.022 0.201 0.099 0.022 0.237 0.004 0.334-0.011 0.1-0.018 0.198-0.048 0.3-0.060 0.125-0.015 0.258 0.015 0.381 0.030 0.169 0.018 0.335 0.018 0.505 0.018 0.082-0.001 0.147 0.022 0.224 0.026 0.027 0.096-0.003 0.223-0.020 0.318-0.024 0.13-0.050 0.262-0.080 0.391-0.021 0.074-0.037 0.149-0.047 0.225-0.003 0.065-0.005 0.13-0.009 0.197-0.007 0.051-0.017 0.119-0.073 0.134-0.048-0.001-0.098-0.004-0.147-0.011-0.082-0.015-0.166-0.018-0.249-0.022-0.134-0.001-0.266 0.007-0.399-0.004-0.143-0.011-0.29-0.007-0.432-0.022-0.094-0.011-0.171-0.030-0.266-0.018-0.094 0.011-0.226 0.030-0.202 0.154 0.010 0.052 0.057 0.096 0.070 0.148 0.027 0.106 0.004 0.239 0.004 0.346 0.001 0.223-0.014 0.447-0.065 0.664-0.1 0.426-0.176 0.858-0.271 1.286-0.044 0.193-0.111 0.381-0.159 0.572-0.038 0.149-0.078 0.295-0.123 0.441-0.069 0.23-0.078 0.46-0.124 0.694-0.034 0.167-0.117 0.304-0.18 0.46-0.12 0.301-0.189 0.626-0.262 0.94-0.064 0.271-0.069 0.553-0.154 0.82-0.048 0.148-0.117 0.289-0.149 0.441-0.035 0.168-0.060 0.352-0.128 0.511-0.012 0.026-0.051 0.145-0.078 0.17-0.042 0.037-0.053 0.011-0.116 0-0.091-0.015-0.188-0.004-0.28-0.004-0.051 0-0.124 0.015-0.173-0.001 0.001-0.043 0.025-0.090 0.034-0.132 0.037-0.154 0.055-0.313 0.085-0.468 0.034-0.166 0.089-0.331 0.106-0.501 0.010-0.096 0.018-0.19 0.035-0.287 0.037-0.202 0.085-0.411 0.15-0.606 0.051-0.153 0.073-0.304 0.102-0.462 0.030-0.166 0.083-0.325 0.115-0.489 0.027-0.146 0.048-0.292 0.077-0.438 0.024-0.124 0.044-0.25 0.065-0.374 0.016-0.086-0.018-0.17-0.025-0.255-0.076 0.089-0.15 0.171-0.231 0.385z"></path>
<path d="M21.826 13.867c0.059 0.007 0.163 0.042 0.23 0.026 0.1-0.026 0.197-0.111 0.288-0.16 0.206-0.113 0.438-0.163 0.648-0.272 0.193-0.101 0.368-0.231 0.553-0.344 0.292-0.18 0.608-0.313 0.898-0.495 0.213-0.132 0.419-0.25 0.645-0.353 0.291-0.133 0.563-0.292 0.773-0.537 0.147-0.171 0.28-0.322 0.458-0.463 0.283-0.227 0.515-0.503 0.772-0.758 0.094-0.093 0.159-0.222 0.265-0.304 0.034-0.026 0.124-0.077 0.171-0.069 0.051 0.007 0.037 0.033 0.043 0.090 0.018 0.176 0.050 0.357 0.086 0.531 0.047 0.22 0.137 0.428 0.209 0.641 0.029 0.085 0.121 0.282 0.111 0.385-0.068 0-0.107 0.015-0.167 0.052-0.158 0.101-0.283 0.242-0.442 0.34-0.080 0.048-0.158 0.071-0.249 0.085-0.133 0.018-0.239 0.061-0.36 0.119-0.115 0.054-0.226 0.112-0.344 0.155-0.096 0.037-0.196 0.062-0.291 0.103-0.090 0.039-0.175 0.085-0.266 0.12-0.102 0.040-0.207 0.054-0.312 0.086-0.155 0.048-0.31 0.12-0.452 0.2-0.123 0.071-0.223 0.168-0.344 0.241-0.065 0.039-0.124 0.065-0.192 0.096-0.082 0.037-0.123 0.082-0.186 0.145-0.188 0.184-0.411 0.374-0.636 0.507-0.214 0.126-0.419 0.262-0.639 0.381-0.185 0.101-0.347 0.223-0.509 0.356-0.072 0.059-0.149 0.106-0.218 0.166-0.081 0.069-0.177 0.154-0.276 0.197-0.025 0.011-0.106 0.015-0.086 0.060 0.014 0.033 0.13 0.039 0.153 0.040 0.202 0.015 0.4 0.055 0.602 0.079 0.306 0.038 0.615 0.022 0.925 0.022 0.429 0.001 0.855-0.030 1.284-0.026 0.206 0.001 0.403 0.052 0.608 0.074 0.227 0.026 0.46 0.051 0.687 0.057 0.394 0.011 0.793-0.030 1.185 0.011 0.23 0.022 0.464 0.081 0.685 0.145 0.235 0.068 0.434 0.2 0.677 0.24 0.069 0.015 0.14 0.015 0.21 0.015 0.043 0.001 0.1 0.015 0.141-0.003 0.132-0.051 0.107-0.276 0.104-0.382-0.005-0.319-0.037-0.634-0.078-0.951-0.048-0.372-0.14-0.734-0.183-1.107-0.061-0.518-0.149-1.011-0.308-1.507-0.125-0.39-0.233-0.791-0.334-1.187-0.046-0.18-0.121-0.346-0.15-0.529-0.009-0.059-0.018-0.12-0.026-0.177-0.003-0.022 0.004-0.078-0.001-0.101-0.039-0.164-0.193-0.293-0.233-0.458 0.091 0.043 0.213 0.007 0.309 0.011 0.138 0.007 0.262 0.074 0.399 0.081 0.098 0.004 0.228 0.022 0.323-0.007 0.077-0.026 0.177-0.168 0.254-0.093 0.063 0.061 0.069 0.188 0.076 0.266 0.018 0.195 0.070 0.391 0.12 0.582 0.12 0.459 0.27 0.911 0.39 1.37 0.060 0.228 0.115 0.459 0.162 0.69 0.060 0.299 0.090 0.601 0.138 0.902 0.070 0.429 0.14 0.85 0.177 1.284 0.012 0.14 0.020 0.278 0.018 0.419-0.003 0.213 0.025 0.422 0.026 0.635 0.003 0.299-0.001 0.597-0.001 0.896 0 0.148 0.012 0.299-0.005 0.446-0.007 0.064-0.004 0.159-0.069 0.181s-0.215-0.048-0.286-0.060c-0.154-0.026-0.306-0.060-0.46-0.085-0.205-0.033-0.402-0.048-0.601-0.111-0.275-0.085-0.527-0.223-0.804-0.295-0.263-0.068-0.528-0.096-0.786-0.185-0.18-0.061-0.352-0.133-0.542-0.153-0.14-0.015-0.28-0.007-0.419-0.022-0.13-0.015-0.252-0.055-0.383-0.045-0.121 0.007-0.239 0.033-0.356 0.065-0.157 0.040-0.313 0.039-0.473 0.038-0.323-0.003-0.659 0.026-0.978-0.015-0.385-0.051-0.774-0.056-1.149-0.159-0.154-0.043-0.31-0.073-0.468-0.096-0.192-0.030-0.386-0.030-0.576-0.061-0.179-0.030-0.352-0.085-0.531-0.12-0.141-0.030-0.287-0.033-0.428-0.061-0.157-0.033-0.31-0.073-0.467-0.099-0.093-0.015-0.189-0.018-0.28-0.037-0.021-0.054 0.046-0.084 0.080-0.109 0.12-0.093 0.25-0.163 0.365-0.264 0.158-0.138 0.283-0.305 0.404-0.475 0.091-0.129 0.19-0.255 0.272-0.391 0.056-0.091 0.107-0.186 0.159-0.282 0.050-0.091 0.078-0.197 0.141-0.282 0.055-0.072 0.128-0.155 0.196-0.211 0.083-0.069 0.213-0.042 0.313-0.042z"></path>
<path d="M15.351 19.777v-0.018c0 0.567-0.035 1.121-0.103 1.686-0.050 0.412-0.085 0.825-0.108 1.24-0.018 0.309-0.056 0.617-0.068 0.927-0.009 0.271-0.010 0.537-0.029 0.808-0.020 0.279-0.027 0.559-0.052 0.838-0.020 0.228-0.046 0.454-0.050 0.682-0.005 0.23-0.014 0.456-0.022 0.685-0.007 0.192-0.003 0.379-0.030 0.569-0.018 0.12-0.038 0.237-0.048 0.359-0.017 0.201-0.007 0.407-0.034 0.608-0.022 0.155-0.080 0.3-0.103 0.455-0.016 0.109-0.020 0.22-0.048 0.327-0.033 0.123-0.044 0.249-0.078 0.372-0.039 0.149-0.025 0.301-0.025 0.454 0 0.056-0.009 0.121 0 0.177 0.009 0.062 0.035 0.057 0.104 0.052 0.142-0.007 0.284-0.12 0.42-0.164 0.183-0.060 0.382-0.123 0.572-0.145 0.034-0.004 0.073 0.007 0.091-0.026 0.007-0.011-0.004-0.137-0.004-0.134-0.001-0.086-0.001-0.171 0.004-0.257 0.016-0.278 0.102-0.537 0.142-0.81 0.033-0.218 0.038-0.462 0.034-0.682-0.003-0.173 0.027-0.344 0.026-0.516 0-0.181 0.001-0.363 0-0.542-0.003-0.175 0.026-0.347 0.026-0.522 0-0.052-0.008-0.117-0.001-0.168 0.009-0.064 0.018-0.047 0.074-0.051 0.136-0.007 0.266-0.030 0.403-0.026 0.073 0.003 0.141 0.011 0.214 0.022 0.115 0.015 0.194-0.026 0.305-0.043 0.171-0.026 0.352 0.022 0.524 0.022 0.082-0.001 0.164-0.001 0.246-0.001 0.061 0.001 0.134 0.015 0.194-0.004 0.050-0.015 0.081-0.055 0.128-0.074 0.043-0.018 0.089-0.022 0.134-0.033 0.103-0.022 0.224-0.069 0.327-0.068 0.080 0.001 0.115 0.030 0.176 0.072 0.052 0.037 0.042 0.015 0.099 0.030 0.051 0.011 0.106 0.057 0.137 0.099 0.029 0.038 0.025 0.061 0.023 0.113-0.001 0.258 0.017 0.49 0.096 0.737 0.082 0.254 0.106 0.522 0.162 0.782 0.034 0.163 0.059 0.33 0.082 0.494 0.031 0.207 0.091 0.411 0.125 0.617 0.030 0.185 0.014 0.368 0.043 0.552 0.009 0.059 0.020 0.399 0.159 0.361 0.017-0.004 0.043-0.037 0.063-0.044 0.104-0.040 0.25 0.015 0.349 0.040 0.207 0.055 0.422 0.073 0.638 0.061 0.067-0.004 0.087-0.033 0.15-0.055 0.074-0.026 0.146-0.022 0.222-0.026 0.050-0.001 0.108 0.011 0.15-0.026 0.057-0.052 0.020-0.143 0-0.202-0.095-0.296-0.231-0.57-0.304-0.875-0.069-0.281-0.113-0.567-0.19-0.845-0.051-0.18-0.107-0.359-0.15-0.541-0.043-0.185-0.096-0.361-0.154-0.542-0.065-0.206-0.107-0.42-0.18-0.625-0.017-0.045-0.043-0.073-0.004-0.102 0.017-0.011 0.123-0.001 0.142 0 0.074 0.003 0.145 0.026 0.218 0.038 0.199 0.038 0.416 0.015 0.618 0.015 0.185 0 0.383 0.022 0.563-0.026 0.076-0.018 0.15-0.043 0.224-0.067 0.059-0.018 0.137-0.030 0.189-0.057 0.068-0.039 0.009-0.061-0.014-0.119-0.070-0.171-0.030-0.395-0.031-0.575-0.001-0.044-0.003-0.087 0.007-0.132 0.005-0.033 0.043-0.121 0.016-0.155-0.024-0.030-0.2-0.007-0.231-0.004-0.158 0.003-0.309 0.060-0.467 0.073-0.085 0.007-0.172-0.004-0.252 0.030-0.056 0.026-0.102 0.045-0.164 0.052-0.12 0.011-0.233 0.026-0.352 0.047-0.113 0.022-0.332 0.001-0.416-0.095-0.038-0.044-0.067-0.121-0.072-0.179-0.021-0.2 0.010-0.387-0.038-0.585-0.042-0.175-0.063-0.351-0.090-0.528-0.018-0.128-0.078-0.25-0.098-0.379-0.017-0.113-0.012-0.23-0.038-0.344-0.017-0.072-0.018-0.125-0.018-0.201 0-0.052-0.001-0.102 0-0.154 0-0.062-0.021-0.101-0.044-0.158-0.103-0.249-0.142-0.507-0.202-0.768-0.035-0.153-0.102-0.292-0.12-0.446-0.024-0.203-0.111-0.378-0.171-0.571-0.021-0.069-0.027-0.126-0.037-0.195-0.024-0.181-0.060-0.365-0.095-0.545-0.025-0.124-0.057-0.247-0.080-0.373-0.025-0.155-0.039-0.313-0.073-0.467-0.102-0.452-0.23-0.897-0.359-1.343-0.032-0.109-0.042-0.223-0.063-0.335-0.020-0.099-0.001-0.202-0.024-0.299-0.046-0.007-0.103 0.044-0.145 0.062-0.086 0.039-0.18 0.064-0.27 0.086-0.080 0.022-0.167 0.033-0.25 0.030-0.091-0.007-0.172-0.084-0.257-0.082-0.027 0.073 0.038 0.265 0.050 0.33 0.029 0.151 0.060 0.301 0.085 0.451 0.042 0.249 0.098 0.494 0.125 0.746 0.021 0.184 0.021 0.363 0.022 0.546 0.003 0.299 0.035 0.595 0.048 0.892 0.007 0.172 0 0.344 0.003 0.516 0.004 0.208 0.042 0.417 0.064 0.625 0.022 0.211 0.027 0.424 0.046 0.636 0.017 0.188 0.050 0.373 0.068 0.559 0.020 0.198 0.027 0.399 0.056 0.596 0.017 0.125 0.051 0.245 0.053 0.37 0.003 0.132-0.007 0.249 0.022 0.378 0.077 0.335 0.151 0.687 0.304 0.997-0.179 0.015-0.349-0.048-0.527-0.054-0.24-0.007-0.495-0.018-0.734 0.007-0.202 0.022-0.385 0.124-0.588 0.15-0.064 0.007-0.081 0.026-0.138 0.052-0.044 0.022-0.093 0.026-0.137 0.044-0.047 0.018-0.089 0.047-0.136 0.067-0.025 0.007-0.055 0.007-0.077 0.018-0.043 0.015-0.052 0.045-0.1 0.052-0.098 0.015-0.128-0.037-0.13-0.121-0.005-0.211 0.009-0.415 0.042-0.623 0.032-0.201 0.027-0.405 0.061-0.606 0.025-0.149 0.048-0.286 0.052-0.438 0.010-0.381 0.053-0.759 0.051-1.14-0.001-0.549 0-1.098 0-1.647 0-0.279-0.016-0.579 0.050-0.845 0.026-0.106 0.031-0.192 0.029-0.309-0.003-0.108-0.012-0.213-0.034-0.318-0.010-0.051-0.009-0.103-0.020-0.153-0.086-0.018-0.198-0.007-0.286-0.004-0.082 0.003-0.163 0.018-0.245 0.026-0.098 0.007-0.189-0.011-0.286-0.018-0.156-0.011-0.303-0.011-0.454 0.033-0.125 0.037-0.228 0.039-0.357 0.038-0.107 0-0.239 0.026-0.342-0.003-0.063-0.018-0.196-0.138-0.241-0.042-0.021 0.043-0.001 0.125-0.004 0.173-0.005 0.136-0.022 0.271-0.030 0.408-0.008 0.142-0.012 0.286-0.025 0.428-0.009 0.095-0.039 0.181-0.047 0.274 0.057 0.007 0.16-0.018 0.207-0.026 0.112-0.018 0.224-0.043 0.336-0.065 0.094-0.018 0.181-0.051 0.271-0.079 0.074-0.022 0.149-0.022 0.223-0.042 0.086-0.018 0.166-0.055 0.252-0.072 0.033-0.007 0.038 0.011 0.055-0.022 0.030-0.059-0.117-0.123-0.005-0.107z"></path>
</svg>
