<!-- Generated by IcoMoon.io -->
<svg version="1.1" xmlns="http://www.w3.org/2000/svg" width="32" height="32" viewBox="0 0 32 32">
<title>fortune_and_folly</title>
<path d="M15.414 28.995c-1.558-0.087-3.076-0.457-4.538-0.99-1.344-0.241-2.761-0.41-4.042-0.848-1.161-0.46-2.614-0.593-3.79-1.238-1.463-0.316-1.258-2.088-1.348-3.251 0.091-1.357-0.339-2.607-0.298-3.941 0.049-1.444 1.714 0.158 2.565 0.158 1.032 0.119 1.876 0.729 2.954 0.739 1.198 0.333 2.352 0.707 3.617 0.785 1.396-0.129 2.746 0.264 4.137 0.285 1.911 0.231 3.845 0.269 5.749 0.498 1.203-0.044 2.077-0.333 3.251-0.535 0.726-0.271 1.732-0.727 2.239-0.989 1.225-0.472 2.457-1.571 2.971-2.822 0.917-0.786 0.678-2.072-0.449-2.663-0.802-0.724-1.585-0.973-2.472-1.658-0.907-0.367-1.933-0.714-2.759-0.905-0.781-0.289-1.725-0.364-2.485-0.458 0.253-0.731-1.479-1.543-0.046-1.495 1.309 0.231 1.936-0.244 2.883 0.699 1.198 0.436 2.589 0.531 3.703 1.196 0.971 0.221 1.778 0.899 2.466 1.664 0.939 0.87 1.579 2.185 0.842 3.381-0.258 1.376-1.399 2.287-2.113 3.413-0.839 0.74-2.14 0.714-3.009 1.258-0.613 0.239-1.89 0.905-1.973 0.645-0.916 0.391-1.822 0.449-2.86 0.822-1.172 0.028-2.502 0.307-3.497 0.517-0.829 0.247-2.637 0.185-3.582-0.456-1.163-0.285-2.34-0.4-3.546-0.454-0.577-0.607-2.024-0.321-3.019-0.684-1.405 0.13-2.35-0.993-3.636-0.768 0.217 0.903 0.266 1.87 0.202 2.825-0.122 0.623 0.784 0.747 1.148 1.081 1.192 0.564 2.508 0.69 3.705 1.219 1.361 0.197 2.607 0.835 4.015 0.727 1.287 0.172 2.603 0.381 3.863 0.086 0.804-0.258 2.014-0.006 3.067-0.252 1.349-0.198 2.798-0.278 4.033-0.877 1.14 0.032 1.34-0.808 2.215-0.849 1.031-0.931 2.325-1.765 2.929-3.038 0.322-0.3 0.561-1.053 1.317-1.269-0.254 1.116-1.138 2.249-1.347 3.381-0.873 0.090-1.035 1.249-1.933 1.488 0.011 0.71-0.96 0.023-1.386 0.741-0.912 0.268-2.085 0.515-2.678 1.025-1.282 0.288-1.694 1.002-3.015 1.049-1.063 0.379-2.163 0.674-3.301 0.718-0.25 0.021-0.5 0.059-0.752 0.039zM14.165 22.623c-0.19-0.446-0.17 0.316 0 0zM24.3 11.657c-0.282-0.204-0.417 0.322 0 0zM16.423 20.337c-1.629-0.661 0.853-1.881 0.466-3.055 0.58 0.268 0.674-1.723 1.007-0.39 0.024 1.091 1.619 2.25 1.201 3.075-0.916 0.018-1.757 0.496-2.674 0.371zM6.457 17.941c-0.573-0.915-2.224-2.551-0.022-2.255 1.248-0.269 2.498 0.195 3.683-0.591 0.677-0.021 2.149-0.731 1.552 0.072-0.231 0.686-1.67 0.123-1.712 1.022-0.998 0.276-1.656 1.214-2.463 1.888-0.452 0.376-0.691 0.649-1.038-0.137zM25.046 16.345c-0.588-0.318-1.679-0.479-2.345-1.152-0.849 0.055-1.442-0.714-0.21-0.597 1.329-0.060 2.706 0.167 3.973 0.032 0.595 0.374-0.103 1.687-0.265 1.409 0.055 0.514-0.789 0.314-1.153 0.308zM2.514 15.362c0.046-0.567 0.048-0.752 0.574-0.849-0.459-0.451 0.727-0.539 0.836-1.168 1.089-0.901 2.023-2.117 3.198-2.829 0.604-0.656 1.413-0.476 2.383-0.679 1.058-0.239 2.062 0.145 3.114 0 0.074 0.502 0.084 1.297-0.51 1.518-1.345 0.391-2.699 0.678-4.109 0.862-0.579 0.169-0.808-0.064-0.887 0.306-0.701 0.48-1.66 0.783-2.225 1.52-0.483 0.428-1.516 1.066-2.203 1.626-0.462 0.416-0.204-0.116-0.171-0.307zM9.283 15.155c0.221-0.368 0.147 0.343 0 0zM16.286 15.144c-1.148-0.426-1.698-1.716-2.227-2.821-0.218-1.318 0.573-2.555 0.768-3.841 0.13-0.64 0.334-2.445 0.11-2.454-0.634 0.257-2.037 0.116-2.984 0.447-1.229 1.268-2.129-0.423-2.015-1.646 0.521-1.513 1.818 0.722 2.9-0.040 0.964-0.028 2.63 0.292 2.32-1.275 0.48-1.591 1.457 0.992 1.998 1.345 0.95 0.659 2.158 0.744 3.195 1.042 0.728 0.008 1.237-0.829 1.784 0.179 0.771 1.314-0.794 1.434-1.586 0.78-0.902-0.197-1.829-0.22-2.747-0.274 0.068 1.053 0.131 2.114 0.147 3.153 0.173 1.4 1.584 2.426 1.086 3.954-0.495 1.025-1.555 1.891-2.749 1.453zM12.046 14.787c-0.263-0.506 0.482 0.213 0 0zM21.402 14.701c0.093-0.504 0.503 0.309 0 0z"></path>
</svg>
