<!-- Generated by IcoMoon.io -->
<svg version="1.1" xmlns="http://www.w3.org/2000/svg" width="36" height="32" viewBox="0 0 36 32">
<title>free</title>
<path d="M36.536 18.655c-1.686-0.136-3.343-0.166-4.984-0.090-1.627 0.083-3.19 0.266-4.711 0.547-1.518 0.265-2.993 0.623-4.404 1.064-1.422 0.447-2.78 0.954-4.073 1.518-0.023-0.646-0.046-1.229-0.059-1.763-0.023-0.547-0.033-1.14-0.033-1.793-1.276 0.57-2.522 1.147-3.738 1.733-1.199 0.57-2.34 1.26-3.433 2.068-0.229-0.768-0.441-1.528-0.64-2.28-0.202-0.746-0.417-1.428-0.636-2.038-2.051 0.998-3.943 2.128-5.683 3.403-1.723 1.262-3.28 2.684-4.679 4.285 0.646-1.382 1.412-2.734 2.31-4.069 0.888-1.339 1.882-2.621 2.976-3.861 1.11-1.229 2.319-2.409 3.618-3.525 1.312-1.13 2.717-2.188 4.222-3.162 0.322 0.838 0.616 1.697 0.881 2.585 0.259 0.875 0.474 1.747 0.64 2.614 1.252-0.746 2.614-1.385 4.073-1.915 1.474-0.523 2.962-1.017 4.466-1.491 0.014 0.733 0.030 1.445 0.030 2.127 0 0.693-0.016 1.309-0.030 1.856 2.287-0.040 4.596 0.143 6.929 0.546 2.323 0.411 4.649 0.958 6.958 1.641z"></path>
</svg>
