<!-- Generated by IcoMoon.io -->
<svg version="1.1" xmlns="http://www.w3.org/2000/svg" width="33" height="32" viewBox="0 0 33 32">
<title>ghouls_of_umrdhoth</title>
<path d="M17.121 26.563c0.001-0.094-0.015-0.175-0.029-0.252-0.012-0.057-0.024-0.116-0.026-0.179-0.003-0.062 0.003-0.129 0.007-0.197 0.008-0.114-0.568-1.619-0.663-1.576l-0.101 0.042c-0.104 0.041 0.132 0.646 0.139 0.687 0.008 0.037-0.399 0.76-0.368 0.795 0.132 0.153 0.131 0.502 0.132 0.628 0.001 0.163-0.072 0.445-0.076 0.607-0.001 0.054-0.014 0.107-0.025 0.164-0.014 0.060-0.026 0.12-0.031 0.183-0.003 0.053-0.010 0.075-0.025 0.114-0.007 0.020-0.015 0.042-0.023 0.069-0.008 0.029-0.015 0.057-0.021 0.082-0.015 0.062-0.025 0.103-0.060 0.148-0.026 0.034-0.051 0.062-0.076 0.091-0.056 0.064-0.114 0.129-0.172 0.229-0.015 0.029-0.040 0.073-0.057 0.095 0-0.001 0-0.001-0.001-0.002-0.019-0.015-0.076-0.087-0.106-0.132-0.047-0.072-0.075-0.158-0.101-0.251-0.038-0.117-0.073-0.238-0.157-0.348-0.084-0.109-0.151-0.229-0.225-0.355-0.042-0.075-0.087-0.151-0.132-0.224-0.041-0.063-0.056-0.141-0.073-0.226-0.018-0.088-0.035-0.178-0.081-0.264-0.016-0.028-0.037-0.048-0.050-0.064-0.007-0.007-0.016-0.018-0.019-0.021-0.007-0.016-0.015-0.053-0.019-0.081-0.005-0.031-0.011-0.060-0.018-0.087-0.015-0.045-0.035-0.091-0.054-0.135-0.024-0.053-0.044-0.103-0.053-0.148-0.021-0.126-0.059-0.246-0.095-0.362-0.026-0.078-0.051-0.157-0.072-0.239-0.014-0.048-0.022-0.1-0.031-0.153-0.015-0.090-0.032-0.182-0.065-0.273-0.019-0.051-0.041-0.101-0.066-0.15-0.021-0.044-0.040-0.085-0.056-0.129-0.070-0.194-0.167-0.373-0.261-0.549-0.12-0.226-0.172-0.452-0.225-0.691-0.029-0.128-0.059-0.263-0.101-0.401-0.042-0.139-0.106-0.257-0.167-0.37-0.048-0.088-0.094-0.173-0.13-0.266-0.022-0.059-0.047-0.117-0.070-0.176-0.050-0.123-0.101-0.252-0.141-0.377-0.051-0.167-0.116-0.333-0.178-0.491l-0.076-0.191c-0.068-0.178-0.122-0.319-0.091-0.493 0.012-0.069 0.044-0.151 0.076-0.232 0.015-0.038 0.029-0.075 0.042-0.112 0.026-0.076 0.029-0.139 0.031-0.195 0-0.035 0.001-0.067 0.008-0.1 0.005-0.025 0.015-0.040 0.021-0.056 0.022-0.047 0.040-0.094 0.040-0.183-0.001-0.059-0.001-0.117-0.001-0.176l0.001-0.089c0-0.063-0.005-0.132-0.010-0.201-0.008-0.131-0.019-0.264 0.004-0.365 0.010-0.050 0.034-0.066 0.122-0.11 0.051-0.026 0.107-0.054 0.163-0.103 0.316-0.277 0.552-0.671 0.765-1.052 0.238-0.423 0.128-0.944 0.008-1.397-0.019-0.076-0.044-0.15-0.068-0.223-0.037-0.112-0.069-0.216-0.090-0.324-0.037-0.217-0.163-0.445-0.269-0.621-0.062-0.101-0.141-0.191-0.214-0.279-0.051-0.060-0.103-0.117-0.148-0.181-0.069-0.095-0.059-0.104 0.050-0.206 0.054-0.050 0.119-0.111 0.169-0.197 0.037-0.060 0.057-0.122 0.078-0.182 0.022-0.062 0.041-0.119 0.073-0.166 0.078-0.114 0.109-0.167 0.113-0.326l0.003-0.069c0.007-0.169 0.015-0.358-0.084-0.522-0.111-0.181-0.132-0.32-0.132-0.558-0.001-0.072-0.001-0.191 0.037-0.229 0.004-0.002 0.018-0.016 0.054-0.014 0.005 0.001 0.022 0.008 0.035 0.016 0.028 0.016 0.065 0.035 0.11 0.043 0.031 0.005 0.060 0.005 0.091 0.005h0.031c0.016 0.016 0.044 0.038 0.081 0.046 0.048 0.012 0.097 0.007 0.138 0.002 0.018-0.001 0.034-0.004 0.047-0.004 0.035 0.002 0.067 0.014 0.106 0.025 0.045 0.015 0.098 0.028 0.166 0.032 0.134 0.007 0.238 0.014 0.357 0.040 0.167 0.034 0.339 0.085 0.503 0.134l0.073 0.022c0.035 0.010 0.073 0.022 0.11 0.035 0.142 0.046 0.307 0.101 0.464 0.091 0.087-0.004 0.157-0.035 0.207-0.091 0.094-0.107 0.081-0.263 0.072-0.399-0.003-0.040-0.006-0.075-0.006-0.109 0-0.029 0.003-0.069 0.007-0.116 0.018-0.233 0.038-0.497-0.119-0.583-0.066-0.035-0.154-0.047-0.241-0.057-0.028-0.004-0.054-0.007-0.078-0.010-0.018-0.018-0.045-0.041-0.084-0.051-0.056-0.011-0.12-0.007-0.178-0.002-0.021 0.002-0.040 0.002-0.056 0.002h-0.136c-0.067 0-0.133 0-0.199 0-0.037 0-0.054-0.005-0.088-0.021-0.028-0.012-0.059-0.024-0.095-0.031-0.048-0.014-0.092-0.005-0.128 0-0.015 0-0.035 0.002-0.042 0.001-0.010-0.001-0.024-0.007-0.041-0.015-0.022-0.012-0.050-0.025-0.084-0.034-0.032-0.007-0.065-0.014-0.095-0.019-0.070-0.015-0.132-0.026-0.191-0.060l-0.050-0.029c-0.059-0.035-0.117-0.069-0.178-0.1-0.054-0.028-0.056-0.029-0.085-0.076l-0.023-0.041c-0.019-0.031-0.034-0.070-0.051-0.11-0.026-0.060-0.051-0.123-0.088-0.172-0.082-0.107-0.188-0.101-0.261-0.098l-0.048 0.002c-0.014 0-0.029-0.002-0.046-0.002-0.047-0.004-0.098-0.008-0.147 0.002-0.034 0.008-0.059 0.028-0.082 0.047-0.014 0.001-0.026 0.001-0.037 0.002-0.057 0.004-0.129 0.008-0.203 0.065-0.056 0.041-0.091 0.1-0.12 0.15-0.019 0.031-0.035 0.060-0.053 0.076-0.031 0.032-0.060 0.048-0.1 0.070-0.026 0.014-0.053 0.028-0.082 0.045-0.054 0.037-0.103 0.079-0.151 0.123-0.037 0.032-0.075 0.068-0.116 0.095-0.053 0.035-0.104 0.075-0.156 0.114l-0.062 0.047c-0.136 0.104-0.242 0.2-0.349 0.311-0.041 0.041-0.117 0.092-0.175 0.128l-0.037 0.025c-0.13 0.085-0.277 0.182-0.337 0.365-0.076 0.241 0.21 0.474 0.464 0.628l0.025 0.014c0.156 0.094 0.368 0.222 0.478 0.357 0.101 0.122 0.119 0.235 0.063 0.362-0.050 0.117-0.198 0.207-0.342 0.295-0.11 0.066-0.208 0.138-0.308 0.211l-0.123 0.087c-0.054 0.038-0.117 0.073-0.182 0.11-0.103 0.059-0.208 0.12-0.295 0.195l-0.151 0.135 0.192 0.066c0.050 0.018 0.097 0.019 0.138 0.021 0.022 0.001 0.041 0.001 0.062 0.005 0.016 0.004 0.029 0.007 0.044 0.012 0.037 0.014 0.084 0.028 0.148 0.031 0.116 0.005 0.27 0.050 0.377 0.107 0.119 0.065 0.333 0.198 0.456 0.367 0.134 0.185 0.25 0.386 0.362 0.634 0.026 0.063 0.044 0.15 0.062 0.235 0.007 0.041 0.015 0.082 0.024 0.12 0.014 0.053 0.029 0.107 0.044 0.163 0.025 0.087 0.048 0.173 0.063 0.257 0.037 0.214-0.060 0.462-0.155 0.678-0.016 0.040-0.032 0.079-0.046 0.116-0.038 0.095-0.068 0.172-0.135 0.246-0.073 0.082-0.097 0.092-0.208 0.12-0.022 0.004-0.040 0.010-0.060 0.016-0.041 0.012-0.076 0.021-0.125 0.021h-0.389c-0.021-0.001-0.044-0.006-0.072-0.016-0.024-0.007-0.047-0.016-0.073-0.022l-0.054-0.011c-0.11-0.020-0.197-0.038-0.296-0.085-0.021-0.010-0.053-0.037-0.082-0.063-0.035-0.031-0.075-0.066-0.122-0.091-0.041-0.169-0.044-0.182-0.047-0.194l-0.014-0.070-0.069-0.020c-0.132-0.040-0.539-0.082-0.679 0.122-0.119 0.17 0 0.465 0.081 0.625 0.089 0.176 0.279 0.511 0.55 0.759 0.185 0.17 0.337 0.387 0.48 0.681 0.185 0.389 0.273 0.766 0.279 1.184 0.001 0.107 0.016 0.207 0.029 0.304 0.010 0.079 0.021 0.156 0.025 0.236 0.003 0.059 0.018 0.106 0.029 0.142 0.004 0.019 0.012 0.040 0.015 0.065 0.008 0.060 0.008 0.12 0.010 0.182 0.001 0.069 0.003 0.138 0.012 0.21 0.018 0.129 0.050 0.252 0.079 0.374 0.029 0.11 0.056 0.214 0.072 0.32 0.005 0.042 0.012 0.087 0.016 0.132 0.015 0.126 0.029 0.255 0.072 0.376 0.057 0.16 0.141 0.335 0.217 0.486 0.025 0.053 0.050 0.107 0.073 0.16 0.042 0.094 0.085 0.192 0.145 0.291 0.169 0.274 0.326 0.534 0.445 0.829 0.050 0.126 0.107 0.249 0.163 0.371 0.084 0.182 0.163 0.352 0.223 0.534 0.068 0.213 0.198 0.393 0.323 0.569 0.1 0.139 0.195 0.271 0.258 0.415 0.016 0.037 0.037 0.076 0.057 0.12 0.040 0.075 0.084 0.163 0.097 0.229 0.014 0.063 0.005 0.158 0 0.244-0.003 0.054-0.005 0.106-0.005 0.153 0.003 0.339 0.101 0.665 0.194 0.979 0.022 0.076 0.047 0.154 0.068 0.23 0.054 0.195 0.208 0.693 0.455 1.062 0.142 0.214 0.32 0.446 0.627 0.467 0.016 0 0.032 0 0.048 0 0.128 0 0.211-0.040 0.313-0.144 0.031-0.031 0.056-0.068 0.079-0.104 0.031-0.047 0.053-0.076 0.075-0.081 0.056-0.014 0.123 0.004 0.195 0.022 0.119 0.032 0.267 0.072 0.402-0.038 0.111-0.091 0.125-0.191 0.133-0.271 0.003-0.019 0.007-0.042 0.012-0.064 0.015-0.059 0.044-0.123 0.075-0.186l0.028-0.060c0.056-0.123 0.069-0.241 0.081-0.354 0.007-0.068 0.014-0.135 0.031-0.201 0.056-0.216 0.114-0.448 0.163-0.687 0.014-0.062 0.026-0.126 0.041-0.192 0.047-0.211 0.095-0.431 0.11-0.638 0.007-0.092 0.004-0.186 0.001-0.279-0.001-0.053-0.003-0.107-0.003-0.16z"></path>
<path d="M21.443 17.978c-0.101-0.109-0.172-0.145-0.33-0.144-0.062 0-0.132 0.004-0.205 0.010-0.169 0.008-0.361 0.020-0.495-0.019-0.034-0.010-0.076-0.032-0.116-0.053-0.034-0.019-0.068-0.035-0.095-0.048-0.109-0.047-0.21-0.114-0.305-0.179-0.138-0.094-0.194-0.274-0.229-0.421-0.007-0.040-0.025-0.082-0.043-0.123l-0.016-0.041c-0.004-0.015-0.010-0.032-0.016-0.050-0.007-0.026-0.016-0.051-0.023-0.072-0.038-0.098-0.062-0.192-0.092-0.307-0.042-0.161-0.041-0.48-0.014-0.644 0.035-0.195 0.163-0.412 0.282-0.6 0.147-0.233 0.299-0.351 0.547-0.497 0.128-0.075 0.22-0.12 0.276-0.135 0.021-0.004 0.046-0.004 0.070-0.004 0.054-0.002 0.136-0.005 0.183-0.078 0.050-0.075 0.016-0.164 0.004-0.192-0.038-0.103-0.113-0.172-0.179-0.233l-0.038-0.037c-0.040-0.038-0.068-0.085-0.098-0.138-0.014-0.025-0.026-0.048-0.042-0.073-0.032-0.050-0.073-0.094-0.113-0.135-0.035-0.037-0.072-0.075-0.088-0.104-0.026-0.047-0.045-0.158-0.050-0.233-0.010-0.191 0.081-0.326 0.197-0.499l0.051-0.078c0.028-0.043 0.065-0.088 0.103-0.134 0.107-0.134 0.227-0.282 0.239-0.453 0.021-0.277-0.219-0.458-0.395-0.591l-0.054-0.040c-0.047-0.037-0.098-0.067-0.151-0.098-0.060-0.037-0.119-0.069-0.16-0.11-0.021-0.019-0.035-0.041-0.051-0.063-0.026-0.035-0.053-0.070-0.087-0.103-0.075-0.068-0.169-0.129-0.251-0.183l-0.134-0.088c-0.066-0.041-0.122-0.076-0.179-0.129-0.138-0.126-0.241-0.154-0.39-0.197-0.022-0.007-0.041-0.019-0.065-0.032-0.047-0.026-0.114-0.068-0.211-0.045-0.051 0.014-0.092 0.048-0.151 0.103-0.010 0.010-0.021 0.019-0.028 0.025-0.065 0.050-0.131 0.088-0.214 0.125-0.192 0.087-0.402 0.156-0.624 0.208-0.070 0.019-0.147 0.032-0.222 0.046-0.164 0.031-0.335 0.062-0.494 0.133-0.21 0.094-0.223 0.311-0.229 0.44-0.004 0.066-0.016 0.122-0.029 0.181-0.006 0.032-0.014 0.066-0.019 0.101-0.007 0.048-0.004 0.092-0.003 0.132 0.003 0.031 0.004 0.057 0.001 0.076-0.004 0.028-0.015 0.056-0.025 0.084-0.028 0.081-0.065 0.179-0.031 0.293 0.065 0.23 0.324 0.208 0.465 0.197 0.031-0.001 0.059-0.004 0.084-0.004 0.081-0.002 0.172 0.004 0.261 0.008 0.21 0.010 0.428 0.022 0.63-0.024 0.142-0.032 0.296-0.106 0.402-0.158 0.035-0.016 0.075-0.042 0.117-0.069 0.053-0.037 0.117-0.079 0.155-0.085 0.043-0.008 0.057 0.002 0.060 0.005 0.051 0.041 0.062 0.214 0.067 0.317 0.003 0.069 0.007 0.13 0.018 0.175 0.022 0.109 0.066 0.201 0.107 0.291 0.021 0.047 0.042 0.094 0.062 0.144 0.003 0.012 0.007 0.038 0.008 0.062 0.006 0.038 0.010 0.079 0.028 0.119 0.023 0.056 0.060 0.095 0.091 0.131 0.022 0.025 0.040 0.044 0.051 0.066 0.026 0.053 0.046 0.104 0.066 0.157 0.024 0.063 0.050 0.125 0.081 0.185 0.037 0.069-0.014 0.158-0.059 0.223-0.034 0.047-0.063 0.060-0.12 0.084-0.038 0.016-0.076 0.034-0.117 0.059-0.076 0.047-0.163 0.132-0.232 0.198l-0.025 0.025c-0.063 0.060-0.113 0.128-0.162 0.195-0.038 0.053-0.078 0.107-0.125 0.154-0.082 0.084-0.125 0.169-0.166 0.249-0.015 0.031-0.032 0.062-0.050 0.094-0.132 0.227-0.236 0.509-0.302 0.81-0.006 0.031-0.015 0.059-0.023 0.085-0.018 0.060-0.035 0.12-0.038 0.199-0.006 0.131 0.014 0.245 0.034 0.357 0.007 0.041 0.015 0.082 0.022 0.123 0.021 0.153 0.057 0.351 0.141 0.527l0.029 0.064c0.050 0.109 0.101 0.222 0.195 0.319l0.048 0.048c0.044 0.045 0.085 0.089 0.126 0.138 0.15 0.176 0.415 0.389 0.647 0.442 0.031 0.006 0.057 0.011 0.079 0.016 0.062 0.012 0.085 0.016 0.148 0.054 0.076 0.044 0.153 0.064 0.222 0.082 0.069 0.019 0.128 0.034 0.176 0.070 0.028 0.021 0.062 0.044 0.1 0.068 0.103 0.068 0.229 0.151 0.229 0.236 0 0.101-0.070 0.242-0.128 0.355l-0.025 0.050c-0.053 0.109-0.072 0.222-0.090 0.33-0.010 0.062-0.021 0.125-0.037 0.185-0.034 0.113-0.073 0.222-0.113 0.332-0.021 0.053-0.040 0.106-0.059 0.158-0.018 0.050-0.046 0.094-0.076 0.142-0.044 0.070-0.094 0.15-0.117 0.255l-0.032 0.151c-0.025 0.116-0.050 0.232-0.078 0.343-0.004 0.019-0.012 0.035-0.018 0.050-0.014 0.034-0.029 0.073-0.035 0.125-0.003 0.031-0.001 0.062 0 0.091 0.003 0.022 0.004 0.041 0.001 0.047-0.004 0.007-0.022 0.026-0.032 0.038-0.022 0.020-0.043 0.044-0.056 0.063-0.063 0.095-0.091 0.183-0.116 0.273-0.006 0.024-0.014 0.048-0.019 0.075-0.021 0.081-0.042 0.173-0.084 0.22-0.008 0.012-0.103 0.095-0.566-0.28-0.040-0.032-0.075-0.066-0.11-0.098-0.068-0.063-0.138-0.129-0.226-0.182-0.178-0.107-0.383-0.142-0.63-0.113-0.088 0.010-0.167 0.037-0.248 0.062-0.044 0.014-0.089 0.028-0.133 0.038-0.092 0.022-0.201 0.018-0.308 0.014-0.104-0.004-0.203-0.004-0.302-0.001-0.101 0.001-0.203 0.002-0.302-0.001-0.087-0.004-0.185-0.031-0.279-0.057-0.045-0.012-0.091-0.025-0.136-0.035-0.292-0.069-0.822-0.019-1.024 0.308l-0.034 0.056c-0.037 0.063-0.057 0.097-0.11 0.139l-0.050 0.040c-0.095 0.078-0.185 0.151-0.246 0.289-0.109 0.242-0.189 0.651-0.116 0.979 0.025 0.107 0.081 0.207 0.135 0.302 0.025 0.043 0.050 0.085 0.069 0.129 0.016 0.031 0.031 0.070 0.044 0.11 0.028 0.075 0.056 0.151 0.094 0.21 0.028 0.043 0.066 0.072 0.1 0.1 0.024 0.018 0.048 0.037 0.056 0.050 0.021 0.029 0.032 0.054 0.044 0.081 0.008 0.022 0.018 0.042 0.034 0.072 0.126 0.248 0.232 0.411 0.387 0.408l0.085-0.002 0.025-0.082c0.032-0.103 0.023-0.216 0.018-0.314-0.003-0.043-0.007-0.085-0.005-0.125 0.001-0.046 0.010-0.070 0.022-0.106 0.007-0.028 0.018-0.056 0.025-0.091 0.029-0.134 0.025-0.358-0.276-0.487 0.007-0.014 0.015-0.026 0.021-0.041 0.022-0.050 0.029-0.092 0.032-0.129 0.003-0.015 0.004-0.031 0.010-0.050 0.019-0.063 0.051-0.133 0.082-0.201l0.021-0.044c0.032-0.070 0.054-0.141 0.076-0.208 0.041-0.136 0.073-0.238 0.178-0.317 0 0.004 0.001 0.008 0.001 0.012 0.012 0.072 0.022 0.094 0.051 0.153 0.019 0.038 0.028 0.070 0.038 0.109 0.005 0.025 0.012 0.051 0.022 0.079 0.054 0.17 0.163 0.241 0.242 0.269 0.142 0.050 0.317 0.019 0.483-0.088 0.113-0.072 0.156-0.106 0.226-0.229l0.018-0.031c0.046-0.078 0.084-0.145 0.122-0.233l0.019-0.045c0.008-0.019 0.022-0.057 0.035-0.081 0.012 0.020 0.019 0.057 0.025 0.082 0.003 0.019 0.006 0.038 0.010 0.054 0.084 0.296 0.285 0.606 0.625 0.596 0.088-0.002 0.117-0.014 0.167-0.048 0.008-0.006 0.019-0.014 0.032-0.022 0.019-0.012 0.040-0.019 0.057-0.026 0.026-0.012 0.053-0.024 0.079-0.038 0.085-0.048 0.139-0.117 0.188-0.179 0.026-0.031 0.048-0.062 0.079-0.088 0.003 0.072-0.014 0.126-0.035 0.201l-0.015 0.056c-0.057 0.216-0.116 0.472-0.116 0.748 0 0.031-0.003 0.064-0.004 0.098-0.006 0.081-0.012 0.17 0.006 0.25 0.010 0.047 0.029 0.081 0.044 0.104 0.008 0.015 0.014 0.022 0.015 0.028 0.004 0.018 0 0.060-0.001 0.089-0.003 0.026-0.004 0.050-0.004 0.073 0 0.056-0.003 0.113-0.004 0.17-0.004 0.194-0.011 0.393 0.034 0.583 0.022 0.098 0.037 0.199 0.051 0.301 0.007 0.048 0.015 0.098 0.022 0.145 0.014 0.085 0.023 0.169 0.034 0.254 0.015 0.12 0.029 0.241 0.051 0.361 0.037 0.183 0.032 0.386 0.029 0.581-0.001 0.067-0.003 0.133-0.003 0.198l-0.001 0.116c0 0.079 0 0.156 0.001 0.235 0 0.073-0.015 0.139-0.031 0.214-0.008 0.038-0.016 0.075-0.022 0.113-0.029 0.17-0.607 0.741-0.7 0.926-0.106 0.211-0.16 1.030-0.1 1.062 0.034 0.018 1.28-1.102 1.357-1.263 0.085-0.175 0.185-0.449 0.213-0.693 0.007-0.060 0.016-0.117 0.026-0.176 0.008-0.045 0.016-0.091 0.023-0.139 0.004-0.029 0.014-0.057 0.023-0.085 0.015-0.040 0.029-0.085 0.037-0.136 0.003-0.040 0.003-0.076 0.001-0.116 0-0.035-0.001-0.066 0.004-0.097 0.057-0.266 0.051-0.537 0.047-0.803 0-0.073-0.001-0.147-0.001-0.22v-1.024c0-0.073-0.004-0.151-0.008-0.23-0.010-0.164-0.019-0.332 0.010-0.465 0.003-0.018 0.010-0.035 0.018-0.053 0.014-0.031 0.029-0.069 0.034-0.117 0.006-0.042 0-0.082-0.003-0.116-0.003-0.018-0.006-0.046-0.004-0.054 0.007-0.022 0.051-0.062 0.081-0.087 0.019-0.018 0.037-0.034 0.051-0.050 0.040-0.038 0.079-0.081 0.117-0.122 0.070-0.078 0.144-0.157 0.22-0.217 0.134-0.104 0.298-0.219 0.464-0.319 0.236-0.142 0.329-0.27 0.446-0.503 0.046-0.091 0.054-0.157 0.065-0.229 0.001-0.019 0.004-0.043 0.008-0.068 0.015-0.094 0.070-0.216 0.119-0.323 0.021-0.045 0.040-0.089 0.057-0.131l0.028-0.068c0.046-0.111 0.090-0.223 0.138-0.33l0.016-0.032c0.037-0.081 0.070-0.156 0.095-0.25 0.011-0.048 0.016-0.095 0.022-0.145 0.006-0.053 0.011-0.1 0.028-0.141 0.123-0.318 0.241-0.662 0.245-1.018 0.001-0.073 0.015-0.141 0.028-0.214 0.010-0.066 0.022-0.129 0.028-0.199 0.011-0.185 0.029-0.333 0.062-0.487 0.019-0.097 0.053-0.185 0.088-0.277 0.057-0.15 0.116-0.304 0.116-0.494v-0.026c0-0.116 0-0.2-0.113-0.321z"></path>
<path d="M19.61 10.195c0.007 0.073 0.204 0.16 0.257 0.228 0.023 0.029 0.026 0.075 0.050 0.109 0.028 0.040 0.076 0.065 0.107 0.103 0.084 0.101 0.176 0.178 0.269 0.27 0.072 0.073 0.142 0.181 0.223 0.242 0.191 0.144 0.423 0.251 0.646 0.348 0.126 0.054 0.238 0.087 0.374 0.091 0.18 0.007 0.164-0.043 0.161-0.213-0.001-0.129 0.047-0.226 0.081-0.348 0.034-0.125 0.044-0.267 0.090-0.389 0.042-0.109 0.114-0.195 0.15-0.308 0.029-0.092 0.076-0.188 0.12-0.279 0.088-0.179 0.217-0.299 0.346-0.452 0.072-0.084 0.128-0.178 0.203-0.257 0.101-0.109 0.142-0.109 0.295-0.107 0.244 0.001 0.434 0.001 0.641 0.107 0.226 0.114 0.399 0.257 0.55 0.47 0.060 0.084 0.090 0.173 0.144 0.257 0.076 0.12 0.207 0.257 0.308 0.358 0.078 0.078 0.157 0.141 0.228 0.23 0.048 0.063 0.103 0.12 0.151 0.185 0.051 0.068 0.098 0.095 0.158 0.157 0.194 0.195 0.358 0.377 0.654 0.376 0.248-0.001 0.497-0.002 0.745 0 0.304 0.002 0.607-0.046 0.857-0.213 0.299-0.201 0.596-0.377 0.855-0.64 0.175-0.179 0.346-0.355 0.511-0.543 0.188-0.213 0.295-0.47 0.428-0.716 0.147-0.27 0.198-0.584 0.246-0.885 0.041-0.241 0.025-0.467 0.044-0.707 0.010-0.107 0.051-0.203 0.057-0.308 0.006-0.088 0-0.179 0-0.267-0.001-0.296 0.040-0.583 0.094-0.874 0.028-0.138 0.003-0.28 0.025-0.421 0.025-0.16 0.044-0.308 0.041-0.471-0.001-0.238 0.053-0.558-0.008-0.788-0.18 0.16-0.299 0.449-0.418 0.653-0.156 0.263-0.304 0.534-0.374 0.832-0.1 0.417-0.27 0.79-0.415 1.189-0.157 0.428-0.289 0.874-0.527 1.266-0.070 0.116-0.172 0.204-0.235 0.324-0.063 0.116-0.131 0.199-0.214 0.298-0.179 0.21-0.26 0.505-0.453 0.701-0.198 0.199-0.47 0.267-0.751 0.235-0.242-0.028-0.556-0.16-0.644-0.403-0.044-0.126-0.022-0.267-0.024-0.401-0.003-0.163 0.069-0.236 0.134-0.374 0.144-0.298 0.357-0.581 0.55-0.857 0.241-0.349 0.396-0.722 0.519-1.13 0.065-0.217 0.088-0.425 0.136-0.643 0.026-0.125-0.003-0.283-0.003-0.412 0-0.084 0.018-0.192-0.012-0.271-0.082 0.002-0.126 0.198-0.16 0.263-0.069 0.13-0.192 0.254-0.28 0.373-0.2 0.273-0.407 0.531-0.606 0.804-0.169 0.235-0.338 0.464-0.506 0.697-0.087 0.119-0.206 0.179-0.308 0.279-0.073 0.070-0.126 0.156-0.213 0.216-0.203 0.139-0.39 0.252-0.643 0.252-0.248 0-0.509-0.134-0.738-0.226-0.079-0.034-0.157-0.101-0.238-0.134-0.050-0.021-0.101-0.028-0.151-0.053-0.021-0.010-0.042-0.048-0.062-0.057-0.032-0.012-0.072 0.001-0.097-0.008-0.070-0.034-0.163-0.101-0.227-0.148-0.072-0.053-0.167-0.141-0.216-0.214-0.157-0.236-0.084-0.574-0.090-0.857-0.003-0.119-0.044-0.214-0.057-0.33-0.016-0.138 0.001-0.291 0.003-0.428 0.001-0.135-0.026-0.229-0.048-0.355-0.021-0.116 0.010-0.224-0.062-0.327 0.037 0.271-0.106 0.568-0.213 0.81-0.103 0.238-0.22 0.481-0.308 0.725-0.062 0.176-0.17 0.323-0.267 0.481-0.117 0.194-0.221 0.384-0.359 0.566-0.269 0.362-0.448 0.79-0.773 1.105-0.197 0.189-0.387 0.392-0.527 0.63-0.065 0.11-0.136 0.277-0.167 0.398-0.015 0.054-0.072 0.197-0.057 0.191z"></path>
<path d="M12.065 10.54c-0.015-0.082-0.144-0.122-0.203-0.176-0.056-0.050-0.095-0.111-0.142-0.169-0.167-0.201-0.276-0.399-0.392-0.628-0.23-0.465-0.343-1.002-0.48-1.491-0.060-0.213-0.208-0.395-0.273-0.602-0.021-0.066-0.010-0.112-0.040-0.172-0.025-0.052-0.066-0.091-0.091-0.145-0.037-0.084-0.087-0.175-0.12-0.257-0.040-0.092-0.053-0.188-0.1-0.289-0.037-0.076-0.072-0.156-0.090-0.238-0.016-0.090 0.012-0.189 0.001-0.28-0.014-0.114-0.051-0.204-0.095-0.311-0.025-0.068-0.015-0.144-0.104-0.158-0.056 0.273-0.254 0.515-0.279 0.795-0.015 0.153-0.072 0.299-0.106 0.443-0.032 0.133-0.054 0.214-0.056 0.359 0 0.126 0.032 0.186 0.056 0.293 0.022 0.104-0.003 0.242-0.001 0.349 0.001 0.197-0.059 0.423-0.213 0.562-0.157 0.144-0.439 0.248-0.644 0.295-0.116 0.028-0.227 0.091-0.346 0.107-0.169 0.024-0.339 0.054-0.506 0.098-0.208 0.057-0.522 0.119-0.754 0.066-0.069-0.018-0.097-0.073-0.158-0.101-0.062-0.029-0.12-0.021-0.183-0.063-0.081-0.057-0.164-0.116-0.245-0.173-0.097-0.066-0.176-0.185-0.245-0.28-0.122-0.17-0.211-0.311-0.264-0.517s-0.051-0.427-0.092-0.638c-0.051-0.273-0.098-0.577-0.094-0.855 0.001-0.126 0-0.25 0-0.376 0.001-0.047 0.029-0.198-0.001-0.238-0.081-0.107-0.183 0.031-0.207 0.113-0.095 0.346-0.166 0.677-0.166 1.051 0 0.364-0.022 0.737-0.001 1.1 0.007 0.129 0.070 0.238 0.103 0.362 0.034 0.132 0.060 0.257 0.106 0.374 0.094 0.233 0.084 0.468-0.112 0.65-0.145 0.132-0.437 0.069-0.599 0.010-0.090-0.035-0.219-0.135-0.285-0.208-0.128-0.142-0.248-0.288-0.361-0.456-0.163-0.242-0.282-0.505-0.404-0.766-0.119-0.255-0.144-0.519-0.232-0.781-0.094-0.274-0.151-0.558-0.205-0.836-0.041-0.207-0.129-0.412-0.151-0.618-0.023-0.207-0.051-0.396-0.051-0.612 0-0.219-0.023-0.424-0.065-0.635-0.111 0.005-0.179 0.5-0.191 0.583-0.076 0.483-0.063 0.96-0.068 1.45-0.004 0.417 0.154 0.804 0.269 1.199 0.113 0.389 0.205 0.767 0.349 1.146 0.207 0.544 0.508 1.054 0.965 1.425 0.314 0.257 0.624 0.561 0.986 0.74 0.382 0.191 0.813 0.141 1.23 0.141 0.085 0 0.185 0.015 0.269 0.002 0.103-0.016 0.194-0.087 0.296-0.106 0.178-0.035 0.352-0.073 0.503-0.178 0.144-0.1 0.294-0.167 0.402-0.307 0.076-0.095 0.181-0.181 0.244-0.282 0.075-0.113 0.088-0.188 0.201-0.27 0.119-0.088 0.233-0.192 0.354-0.26 0.147-0.085 0.455-0.082 0.625-0.048 0.072 0.011 0.214 0.053 0.267 0.106 0.073 0.072 0.076 0.216 0.103 0.311 0.034 0.116 0.047 0.214 0.051 0.335 0.005 0.095 0.046 0.173 0.056 0.267s0.051 0.173 0.054 0.267c0.005 0.112 0.018 0.188 0.059 0.295 0.088 0.229 0.232 0.226 0.406 0.339 0.062-0.075 0.145-0.072 0.233-0.1 0.082-0.025 0.144-0.066 0.222-0.107 0.178-0.090 0.327-0.201 0.499-0.299 0.271-0.156 0.536-0.311 0.506-0.609z"></path>
</svg>
