<!-- Generated by IcoMoon.io -->
<svg version="1.1" xmlns="http://www.w3.org/2000/svg" width="32" height="32" viewBox="0 0 32 32">
<title>glacial_mists</title>
<path d="M20.457 28.758v-0.242h0.58v-0.322h-0.58v-0.483h0.58v-2.417h-1.203v0.494h0.526v0.483h-0.526v0.322h0.526v0.483h-0.526v0.763h-0.559v-0.763h-0.602v-0.483h0.602v-0.322h-0.602v-0.483h0.602v-0.494h-3.072v0.956h2.041v2.707h-0.569v-2.159h-1.472v0.892h0.559v0.483h-0.559v0.322l0.553 0.006 0.006 0.478h-1.698v-0.483h0.591v-0.322h-0.591v-0.483h0.591v-0.892h-1.515v2.191h-0.569v-1.303c0-0.717 0.003-1.333 0.007-1.37l0.007-0.066h2.070v-0.956h-3.083v0.494h0.548v0.483h-0.548v0.322h0.548v0.483h-0.548v0.763h-0.548v-0.763h-0.591v-0.483h0.591v-0.322h-0.591v-0.483h0.591v-0.494h-1.214v2.385h0.559v0.483h-0.559v0.322h0.559v0.483h-1.686v-0.483h0.58v-0.322h-0.58v-0.483h0.58v-1.429c0-0.786 0.001-1.43 0.003-1.431s1.214-0.005 2.693-0.008l2.691-0.006 0.003-4.036c0.001-2.22-0.001-4.036-0.005-4.036-0.010 0-7.597 7.586-7.597 7.596 0 0.014 0.178 0.087 0.266 0.108 0.109 0.027 0.267 0.031 0.357 0.010 0.075-0.017 0.205-0.080 0.237-0.114 0.014-0.014 0.030-0.026 0.036-0.026s0.079 0.068 0.161 0.15l0.15 0.15-0.026 0.028c-0.079 0.084-0.269 0.188-0.424 0.231-0.12 0.033-0.368 0.041-0.51 0.016-0.17-0.030-0.351-0.098-0.504-0.192l-0.069-0.042-0.33 0.329 0.736 0.736-0.328 0.328-0.736-0.736-0.322 0.322 1.326 1.327-1.944 1.944-0.392-0.392 1.552-1.552-0.935-0.934-0.526 0.526 0.381 0.382-0.386 0.387-0.382-0.381-0.252 0.252 0.354 0.355-0.387 0.387-1.171-1.171 0.188-0.188c0.103-0.103 0.193-0.188 0.199-0.188s0.095 0.085 0.199 0.188l0.188 0.188 0.253-0.252-0.354-0.355 0.387-0.386 0.355 0.354 0.526-0.526-0.967-0.967-1.552 1.552-0.392-0.392 1.944-1.944 1.359 1.359 0.322-0.322-0.795-0.795 0.328-0.328 0.795 0.795 0.161-0.161c0.089-0.088 0.161-0.164 0.161-0.168s-0.021-0.042-0.048-0.084c-0.221-0.359-0.27-0.809-0.124-1.152 0.036-0.086 0.132-0.234 0.179-0.279l0.031-0.029 0.309 0.31-0.034 0.039c-0.039 0.044-0.076 0.114-0.105 0.199-0.027 0.079-0.028 0.307-0.001 0.403 0.021 0.075 0.076 0.213 0.101 0.25 0.017 0.026 0.026 0.017 3.818-3.776 2.091-2.091 3.801-3.805 3.801-3.809s-2.24-0.008-4.979-0.008h-4.979v3.308h-2.202v-0.548h1.654l-0.006-1.101-1.649-0.005v-0.548h1.654l-0.006-1.101-1.692-0.005v-0.537h1.697v-1.106h-1.654v-0.548h1.654v-1.096h-1.654v-0.548h0.68c0.374 0 0.87-0.003 1.101-0.007l0.421-0.007v3.312h9.952l-4.173-4.173c-2.295-2.295-4.175-4.173-4.176-4.173-0.010 0-0.090 0.19-0.111 0.263-0.030 0.104-0.035 0.329-0.010 0.419 0.021 0.075 0.071 0.174 0.114 0.226l0.036 0.044-0.272 0.271-0.056-0.067c-0.074-0.088-0.168-0.277-0.198-0.4-0.019-0.078-0.024-0.128-0.024-0.258-0-0.091 0.006-0.189 0.014-0.226 0.037-0.174 0.106-0.352 0.19-0.49l0.039-0.065-0.158-0.159-1.554 1.552-1.878-1.89 0.322-0.322 1.567 1.578 1.231-1.23-0.236-0.237-0.36 0.36c-0.198 0.198-0.365 0.36-0.371 0.36s-0.083-0.072-0.172-0.161l-0.161-0.161 0.73-0.73-0.234-0.234-0.103 0.051c-0.118 0.059-0.256 0.107-0.388 0.136-0.071 0.015-0.135 0.020-0.285 0.019-0.172-0.001-0.205-0.004-0.296-0.028-0.211-0.056-0.361-0.138-0.504-0.273-0.283-0.267-0.38-0.66-0.262-1.066 0.141-0.487 0.614-0.908 1.141-1.017 0.734-0.152 1.377 0.277 1.416 0.946 0.014 0.247-0.066 0.533-0.211 0.746l-0.046 0.067 0.212 0.213 0.714-0.714 0.161 0.161c0.089 0.088 0.161 0.166 0.161 0.172s-0.158 0.169-0.352 0.363l-0.352 0.352 0.112 0.113c0.062 0.062 0.117 0.113 0.123 0.113s0.274-0.263 0.595-0.584l0.584-0.584-1.562-1.572 0.086-0.094c0.047-0.052 0.118-0.125 0.158-0.164l0.072-0.070 1.877 1.891-1.498 1.498 0.164 0.164 0.031-0.022c0.049-0.034 0.217-0.116 0.302-0.146 0.272-0.097 0.605-0.096 0.844 0.004 0.084 0.035 0.206 0.111 0.276 0.171l0.038 0.032-0.271 0.272-0.052-0.039c-0.122-0.093-0.234-0.128-0.413-0.127-0.161 0.001-0.333 0.047-0.449 0.12-0.025 0.016 0.046 0.087 4.141 4.182 2.291 2.291 4.169 4.166 4.174 4.166s0.008-1.581 0.008-3.513v-3.513h-1.386v-0.462h1.386v-0.473h-1.386v-0.462h1.386v-0.473h-1.386v-0.462h1.386v-0.644h-2.374v-2.202l0.553 0.006 0.005 1.649 1.81-0.005 0.005-1.649h0.548v1.654l1.81-0.005 0.005-1.649h0.548v2.202h-2.363v0.644h1.375v0.462h-1.375v0.473h1.375v0.462h-1.375v0.473h1.375v0.462h-1.375v7.041l3.507-3.507c1.929-1.929 3.507-3.51 3.507-3.513s-0.051-0.038-0.113-0.079c-0.193-0.125-0.389-0.209-0.613-0.261-0.115-0.027-0.148-0.030-0.327-0.030-0.17-0-0.212 0.003-0.294 0.024-0.179 0.045-0.316 0.112-0.446 0.218l-0.069 0.056-0.159-0.159c-0.184-0.184-0.18-0.156-0.036-0.267 0.109-0.084 0.153-0.112 0.263-0.167 0.125-0.063 0.288-0.115 0.442-0.141 0.188-0.032 0.5-0.025 0.694 0.016 0.315 0.067 0.622 0.203 0.883 0.392l0.102 0.074 0.105-0.104c0.058-0.057 0.105-0.108 0.105-0.114s-0.192-0.203-0.427-0.438l-0.427-0.427 0.349-0.349 0.427 0.427c0.235 0.235 0.432 0.427 0.438 0.427s0.058-0.048 0.116-0.106l0.105-0.106-0.054-0.101c-0.1-0.187-0.152-0.391-0.152-0.595 0-0.176 0.031-0.306 0.109-0.458 0.040-0.078 0.132-0.203 0.154-0.211 0.006-0.002 0.073 0.059 0.149 0.135l0.139 0.139-0.036 0.041c-0.1 0.114-0.14 0.308-0.103 0.5 0.016 0.081 0.064 0.221 0.082 0.24 0.007 0.007 0.18-0.159 0.494-0.473l0.483-0.483-1.359-1.359 1.552-1.552 0.392 0.392-1.165 1.166 0.967 0.967 1.171-1.171 0.43 0.429-1.171 1.171 0.935 0.934 1.166-1.165 0.392 0.392-1.552 1.552-1.327-1.327-0.978 0.977 0.084 0.040c0.249 0.118 0.526 0.104 0.703-0.036l0.043-0.034 0.283 0.283-0.043 0.037c-0.166 0.144-0.408 0.231-0.644 0.231-0.193 0-0.423-0.063-0.612-0.168l-0.107-0.059-0.216 0.216 0.838 0.838-0.349 0.349-0.838-0.838-0.218 0.218 0.064 0.090c0.305 0.427 0.459 0.905 0.441 1.368-0.015 0.384-0.151 0.738-0.377 0.988l-0.058 0.064-0.322-0.32 0.064-0.076c0.037-0.044 0.086-0.121 0.117-0.184 0.188-0.384 0.163-0.839-0.072-1.309-0.053-0.106-0.163-0.277-0.181-0.283-0.006-0.002-1.589 1.575-3.518 3.504l-3.507 3.507h6.395l-0.021-0.078c-0.049-0.179-0.178-0.383-0.3-0.477-0.102-0.078-0.238-0.133-0.329-0.133h-0.035v-0.443l0.081 0.007c0.302 0.027 0.58 0.192 0.784 0.463 0.105 0.139 0.218 0.404 0.252 0.588l0.013 0.072h0.331v-1.386h0.548v1.386h0.321l0.013-0.062c0.115-0.561 0.543-0.995 1.017-1.030l0.089-0.007v0.444l-0.046 0c-0.059 0-0.17 0.039-0.249 0.086-0.077 0.046-0.203 0.178-0.256 0.269-0.042 0.071-0.1 0.212-0.112 0.268l-0.006 0.031h1.474v-0.961c0-0.528 0.004-0.963 0.008-0.966s0.5-0.002 1.101 0.001l1.093 0.006v0.545h-1.643v1.375h1.558v0.537h-1.558v1.386h1.643v0.548h-2.202v-1.933h-0.736c-0.604 0-0.736 0.003-0.736 0.014 0 0.027 0.051 0.163 0.089 0.238 0.074 0.146 0.207 0.287 0.33 0.349 0.052 0.026 0.135 0.052 0.196 0.060l0.051 0.007v0.438l-0.067-0.006c-0.179-0.017-0.387-0.095-0.524-0.197-0.159-0.119-0.319-0.316-0.403-0.498-0.044-0.096-0.096-0.249-0.107-0.319-0.015-0.089-0.008-0.086-0.183-0.086h-0.155v1.375h-0.548l-0.006-1.37h-0.332l-0.025 0.097c-0.143 0.548-0.542 0.928-1.017 0.968l-0.080 0.007v-0.444h0.035c0.051 0 0.15-0.028 0.215-0.060 0.167-0.084 0.307-0.253 0.389-0.469 0.015-0.040 0.027-0.080 0.027-0.089 0-0.014-0.382-0.016-3.179-0.016-1.749 0-3.179 0.004-3.179 0.008s1.457 1.465 3.239 3.247l3.239 3.239 0.849-0.848 0.355 0.354-0.419 0.419c-0.23 0.23-0.419 0.424-0.419 0.43 0 0.014 0.346 0.36 0.36 0.36 0.006 0 0.199-0.189 0.43-0.419l0.419-0.419 0.354 0.355-0.848 0.848 0.365 0.365 0.849-0.849 0.36 0.36-0.849 0.849 0.55 0.548 1.524-1.535 1.75 1.75-0.392 0.392-1.359-1.359-0.564 0.564c-0.31 0.31-0.564 0.569-0.564 0.575 0 0.020 1.127 1.138 1.137 1.128 0.012-0.014 0.039-0.091 0.061-0.172 0.024-0.092 0.033-0.294 0.017-0.403-0.032-0.217-0.139-0.447-0.286-0.612-0.026-0.029-0.048-0.057-0.048-0.062s0.068-0.075 0.15-0.158l0.15-0.15 0.039 0.037c0.078 0.075 0.209 0.263 0.272 0.392 0.122 0.248 0.166 0.437 0.166 0.709 0 0.321-0.072 0.565-0.244 0.822-0.070 0.105-0.259 0.293-0.366 0.365-0.379 0.253-0.858 0.314-1.313 0.166-0.195-0.063-0.487-0.239-0.605-0.363l-0.037-0.039 0.304-0.304 0.039 0.031c0.17 0.138 0.306 0.216 0.463 0.265 0.239 0.075 0.531 0.063 0.744-0.031l0.061-0.027-1.154-1.154-1.144 1.144 1.359 1.359-0.387 0.386-0.87-0.87c-0.479-0.478-0.87-0.874-0.87-0.88s0.344-0.351 0.764-0.767l0.764-0.757-0.549-0.549-0.422 0.422c-0.232 0.232-0.427 0.422-0.432 0.422-0.014 0-0.349-0.335-0.349-0.349 0-0.006 0.19-0.2 0.422-0.432l0.422-0.422-0.365-0.365-0.854 0.854-0.355-0.354 0.854-0.854-0.37-0.37-0.854 0.854-0.354-0.355 0.854-0.854-6.477-6.477v8.072h2.57c1.413 0 2.624 0.003 2.691 0.007l0.121 0.007v2.886h0.559v0.483h-0.559v0.322h0.559v0.483h-1.686v-0.242zM4.75 5.595c0.090-0.023 0.218-0.074 0.218-0.086 0-0.004-0.212-0.218-0.47-0.477l-0.47-0.47-0.034 0.056c-0.076 0.128-0.111 0.24-0.118 0.384-0.004 0.070-0.001 0.136 0.007 0.175 0.047 0.224 0.249 0.403 0.5 0.442 0.076 0.012 0.281-0.002 0.367-0.024zM5.493 5.001c0.138-0.285 0.109-0.578-0.074-0.76-0.188-0.186-0.518-0.228-0.841-0.107-0.034 0.013-0.062 0.026-0.062 0.030 0 0.010 0.916 0.926 0.926 0.926 0.004 0 0.027-0.040 0.051-0.089zM23.331 9.774c-0.16-0.073-0.196-0.286-0.068-0.406 0.158-0.15 0.417-0.038 0.417 0.179 0 0.101-0.060 0.192-0.152 0.23-0.054 0.022-0.143 0.021-0.196-0.004zM22.267 8.71c-0.16-0.073-0.196-0.286-0.068-0.406 0.158-0.15 0.417-0.038 0.417 0.179 0 0.101-0.060 0.192-0.152 0.23-0.054 0.022-0.143 0.021-0.196-0.004z"></path>
</svg>
