<!-- Generated by IcoMoon.io -->
<svg version="1.1" xmlns="http://www.w3.org/2000/svg" width="31" height="32" viewBox="0 0 31 32">
<title>globetrotting</title>
<path d="M27.412 11.735c0.316 1.166 0.282 2.714-0.043 3.874-0.182 0.647-0.36 1.305-0.653 1.912-0.285 0.59-0.782 0.931-1.105 1.458-0.659 1.075-1.44 1.815-2.564 2.384-0.931 0.47-1.897 0.832-2.877 1.198-0.874 0.326-1.774 0.406-2.699 0.537-0.672 0.095-1.388 0.22-2.042 0.139-0.791-0.096-1.667-0.16-2.435-0.408-0.837-0.27-1.528-0.734-2.284-1.181-1.373-0.811-2.427-2.527-3.058-3.987-0.782-1.808-1.212-3.5-0.942-5.463 0.135-0.976-0.133-2.256 0.304-3.14 0.375-0.756 0.745-1.37 1.332-1.974 0.776-0.798 1.695-1.43 2.516-2.177 0.751-0.682 1.792-1.009 2.726-1.402 0.918-0.387 1.953-0.765 2.969-0.728 0.644 0.024 1.237 0.052 1.872 0.15 1.307 0.203 2.923 0.977 3.988 1.756 1.132 0.828 2.392 1.575 3.161 2.799 0.193 0.306 0.411 0.587 0.613 0.888 0.613 0.923 0.937 2.308 1.224 3.364zM25.937 6.173c-2.514-2.332-5.605-4.383-9.065-4.141-0.798 0.055-1.546 0.249-2.321 0.406-1.986 0.402-3.555 1.061-5.166 2.312-0.357 0.277-0.715 0.565-1.055 0.871-0.224 0.202-0.441 0.412-0.642 0.633-0.934 1.023-1.458 1.894-1.783 3.227-0.341 1.397-0.503 2.757-0.304 4.195 0.322 2.343 1.203 4.918 2.493 6.912 1.551 2.395 3.889 3.414 6.559 3.527 1.689 0.071 3.585 0.027 5.179-0.532 1.117-0.392 2.194-0.885 3.242-1.433 0.519-0.271 1.062-0.537 1.554-0.857 0.694-0.454 1.164-1.231 1.81-1.759 0.835-0.684 1.511-1.965 1.775-2.99 0.31-1.204 0.439-2.456 0.396-3.698-0.083-2.425-0.85-4.981-2.673-6.673z"></path>
<path d="M20.804 22.509c-0.092-0.319-0.274-0.653-0.452-0.979-0.135-0.248-0.263-0.482-0.337-0.685-0.179-0.492-0.344-1-0.504-1.491-0.261-0.802-0.531-1.632-0.871-2.422-0.267-0.62-0.553-1.241-0.831-1.842-0.252-0.546-0.513-1.111-0.758-1.673-0.245-0.564-0.482-1.13-0.719-1.697-0.458-1.096-0.933-2.229-1.461-3.325-0.139-0.291-0.28-0.58-0.421-0.871-0.629-1.29-1.277-2.624-1.79-3.979 0.043-0.016 0.085-0.033 0.123-0.049 0.166-0.067 0.288-0.116 0.411-0.116 0.162 0.004 0.197 0.019 0.205 0.024 0.002 0.004 0.013 0.050 0.024 0.087 0.015 0.052 0.031 0.113 0.058 0.184 0.105 0.288 0.194 0.586 0.282 0.875 0.090 0.303 0.185 0.616 0.298 0.921 0.38 1.029 0.894 2.025 1.393 2.987 0.237 0.46 0.485 0.937 0.712 1.408 0.362 0.752 0.676 1.532 0.982 2.287 0.314 0.774 0.639 1.577 1.016 2.355 0.32 0.662 0.584 1.353 0.85 2.063 0.131 0.349 0.294 0.687 0.452 1.013 0.209 0.432 0.426 0.878 0.559 1.342l0.070 0.245c0.171 0.608 0.334 1.181 0.638 1.747 0.102 0.193 0.222 0.378 0.338 0.558 0.151 0.234 0.297 0.458 0.406 0.696-0.179 0.074-0.458 0.199-0.672 0.337z"></path>
<path d="M7.243 17.727c-0.021-0.080-0.059-0.147-0.092-0.202-0.030-0.052-0.056-0.096-0.064-0.139-0.002-0.010-0.003-0.019-0.004-0.028l0.046-0.031c0.077-0.053 0.181-0.092 0.291-0.133 0.079-0.031 0.159-0.061 0.228-0.096 2.026-1.006 4.119-1.992 6.142-2.947 1.166-0.55 2.333-1.101 3.493-1.658 1.525-0.731 3.106-1.379 4.635-2.007 1.643-0.673 3.342-1.37 4.975-2.171 0.028 0.111 0.080 0.215 0.128 0.31l0.009 0.016c-0.178 0.067-0.271 0.135-0.406 0.231-0.040 0.028-0.085 0.061-0.138 0.098-0.306 0.209-0.66 0.347-1.037 0.492-0.174 0.068-0.35 0.136-0.525 0.212l-1.486 0.653c-3.045 1.335-6.194 2.716-9.223 4.212-1.322 0.653-2.732 1.332-4.193 2.020-0.332 0.156-0.682 0.283-1.022 0.408-0.274 0.099-0.556 0.203-0.834 0.322-0.224 0.096-0.443 0.205-0.657 0.31-0.089 0.043-0.177 0.086-0.266 0.129z"></path>
<path d="M6.179 12.382c0.012-0.076 0.037-0.184 0.055-0.258 0.028-0.119 0.055-0.227 0.064-0.32 0.209-0.114 0.418-0.233 0.627-0.351 0.472-0.267 0.961-0.544 1.456-0.773l1.833-0.847c0.163-0.076 0.313-0.172 0.458-0.265 0.178-0.113 0.346-0.22 0.527-0.286 0.135-0.049 0.263-0.089 0.389-0.126 0.208-0.064 0.423-0.129 0.659-0.237 0.96-0.442 1.853-0.811 2.732-1.129 1.421-0.512 2.824-1.148 4.141-1.756 0.144-0.067 0.288-0.135 0.433-0.203 0.497-0.234 1.012-0.478 1.523-0.662 0.239-0.086 0.484-0.227 0.721-0.363 0.317-0.181 0.645-0.369 0.931-0.409l0.056-0.009c0 0 0.077-0.071 0.092-0.088 0.114 0.147 0.171 0.285 0.162 0.396-0.009 0.104-0.079 0.199-0.209 0.286-0.101 0.068-0.27 0.129-0.433 0.188-0.136 0.049-0.277 0.101-0.396 0.162-0.224 0.113-0.442 0.239-0.653 0.36-0.212 0.123-0.432 0.249-0.653 0.36-0.544 0.276-1.111 0.478-1.658 0.672-0.472 0.168-0.96 0.341-1.443 0.564-2.044 0.945-3.662 1.611-5.243 2.157-0.851 0.294-1.685 0.702-2.49 1.098-0.568 0.279-1.157 0.568-1.74 0.81-0.409 0.169-0.752 0.316-1.111 0.513-0.049 0.027-0.129 0.083-0.225 0.151-0.139 0.099-0.442 0.314-0.605 0.366z"></path>
<path d="M9.513 21.526c-0.047 0-0.108 0-0.171-0.128l0.036-0.015c0.22-0.096 0.415-0.218 0.604-0.337 0.191-0.122 0.374-0.236 0.583-0.326l0.463-0.2c0.46-0.2 0.934-0.406 1.405-0.589 0.484-0.188 0.98-0.363 1.459-0.534 0.927-0.328 1.885-0.669 2.809-1.109 1.646-0.786 3.391-1.479 5.182-2.177 0.731-0.285 1.456-0.614 2.157-0.933 0.911-0.414 1.853-0.841 2.808-1.17 0.061-0.021 0.125-0.042 0.193-0.062 0.222-0.070 0.476-0.148 0.675-0.279 0.076-0.050 0.147-0.128 0.222-0.209 0.055-0.061 0.159-0.174 0.2-0.187 0.043-0.012 0.070-0.013 0.085-0.013 0.046 0.046 0.013 0.279-0.002 0.39-0.015 0.101-0.027 0.194-0.028 0.277-0.233 0.068-0.454 0.184-0.667 0.298-0.139 0.074-0.27 0.144-0.4 0.199-0.252 0.104-0.501 0.222-0.74 0.337-0.208 0.099-0.417 0.199-0.633 0.294-0.329 0.142-0.659 0.291-0.989 0.441-0.93 0.42-1.891 0.854-2.864 1.145-1.087 0.323-2.122 0.794-3.124 1.247-0.61 0.277-1.24 0.564-1.876 0.814-0.872 0.344-1.746 0.676-2.619 1.009-0.719 0.273-1.44 0.547-2.161 0.828-0.351 0.138-0.7 0.28-1.049 0.423-0.35 0.142-0.699 0.286-1.050 0.423-0.19 0.074-0.384 0.145-0.506 0.145z"></path>
<path d="M19.725 22.781c-0.825 0-1.971-0.307-2.349-0.408l-0.034-0.009c-1.434-0.383-2.867-1.23-4.033-2.388-0.578-0.574-1.026-1.127-1.369-1.691-0.193-0.319-0.363-0.629-0.537-0.979-0.47-0.951-0.914-1.844-1.247-2.829-0.218-0.639-0.265-1.256-0.314-1.909-0.021-0.265-0.042-0.535-0.074-0.811-0.083-0.713 0.040-1.476 0.16-2.213 0.286-1.764 0.629-3.109 1.467-4.402 0.079-0.123 0.153-0.254 0.227-0.386 0.147-0.261 0.3-0.534 0.504-0.733 0.122-0.119 0.239-0.181 0.343-0.181 0.076 0.006 0.141 0.037 0.2 0.090-0.501 0.442-0.722 1.112-0.918 1.712-0.151 0.461-0.323 0.908-0.489 1.341-0.265 0.687-0.54 1.399-0.718 2.122-0.2 0.808-0.313 1.718-0.338 2.702-0.007 0.3 0.033 0.593 0.070 0.877 0.021 0.156 0.042 0.309 0.053 0.46 0.049 0.62 0.113 1.234 0.343 1.937 0.177 0.54 0.466 1.037 0.746 1.516 0.136 0.233 0.276 0.473 0.399 0.71 0.681 1.325 1.52 2.137 2.57 2.952 0.495 0.384 2.231 1.651 3.77 1.838 0.027 0.004 0.085 0.013 0.166 0.025 0.408 0.059 1.365 0.2 1.927 0.2 0.067 0 0.151 0 0.237-0.009 0.002 0.083 0.002 0.169-0.010 0.214-0.061 0.218-0.497 0.251-0.75 0.251z"></path>
<path d="M21.433 22.33c-0.037-0.006-0.064-0.013-0.083-0.019 0.010-0.019 0.024-0.040 0.034-0.058 0.024-0.039 0.047-0.077 0.065-0.116 0.145-0.307 0.273-0.607 0.409-0.924l0.037-0.087c0.062-0.147 0.128-0.294 0.193-0.441 0.144-0.322 0.291-0.656 0.418-0.997 0.395-1.068 0.5-2.22 0.587-3.508l0.027-0.389c0.074-1.035 0.144-2.014 0.002-3.088-0.114-0.865-0.282-1.765-0.737-2.484-0.267-0.423-0.571-0.823-0.866-1.212-0.233-0.306-0.473-0.623-0.691-0.945-0.184-0.273-0.383-0.516-0.576-0.753-0.768-0.943-1.74-1.792-2.969-2.593-0.535-0.35-1.135-0.616-1.832-0.813-0.126-0.036-0.268-0.086-0.42-0.139-0.399-0.139-0.851-0.298-1.258-0.298-0.101 0-0.196 0.010-0.283 0.030 0.006-0.050 0.019-0.089 0.042-0.116 0.042-0.050 0.142-0.077 0.295-0.077 0.089 0 0.185 0.009 0.28 0.018 0.463 0.045 0.924 0.104 1.37 0.177 0.719 0.116 1.497 0.298 2.306 0.853 1.104 0.758 2.094 1.845 3.051 2.897l0.24 0.263c0.349 0.383 0.662 0.814 0.88 1.218 1.194 2.21 1.678 4.017 1.617 6.040-0.009 0.249-0.013 0.5-0.019 0.751-0.037 1.731-0.076 3.52-0.859 4.978-0.034 0.062-0.077 0.15-0.129 0.254-0.218 0.438-0.728 1.464-1.080 1.575-0.015 0.004-0.028 0.007-0.039 0.007z"></path>
<path d="M12.114 1.717c-0.31 0.196-0.764 0.378-1.053 0.506-2.263 1-4.416 2.582-5.796 4.684-1.474 2.243-1.485 5.125-1.173 7.731 0.349 2.932 1.304 5.783 3.158 8.070 0.626 0.773 1.385 1.501 2.324 1.854 1.086 0.408 2.315 0.878 3.451 1.093 0.911 0.172 1.87 0.171 2.808 0.145 1.301-0.034 2.473-0.503 3.739-0.749 0.446-0.087 0.921-0.133 1.354-0.233 0.334-0.077 0.767-0.423 1.074-0.445 0.362-0.027 0.599 0.573 0.59 0.977-0.393 0.101-0.745 0.36-1.158 0.463-0.513 0.128-1.047 0.211-1.569 0.306-0.976 0.177-1.945 0.4-2.919 0.587-0.816 0.157-1.593 0.059-2.421 0.016-1.203-0.061-2.384-0.303-3.54-0.632-0.973-0.276-1.715-0.418-2.513-1.126-0.507-0.449-1.004-0.912-1.532-1.347-0.641-0.527-1.099-1.289-1.556-1.991-0.452-0.696-0.905-1.396-1.221-2.176-0.641-1.583-0.927-3.37-1.173-5.061-0.101-0.696-0.049-1.413-0.11-2.111-0.185-2.145 0.607-4.123 1.707-5.934 0.482-0.794 1.023-1.528 1.694-2.167 1.141-1.089 2.231-1.528 3.658-2.131 0.722-0.307 1.807-0.581 2.386-1.052 0.083 0.4 0.276 0.332-0.037 0.598-0.050 0.042-0.108 0.083-0.172 0.123z"></path>
<path d="M16.542 26.463c-0.002 1.049-0.126 2.115-0.095 3.171 0.35 0.125 0.98 0.181 1.241 0.479-0.102-1.201-0.159-2.461-0.136-3.696-0.205 0.214-0.685-0.217-1.010 0.046z"></path>
<path d="M11.037 30.081c-0.036 0.378-0.148 0.356-0.126 0.739 0.558-0.033 1.157-0.050 1.774-0.064 1.259-0.030 2.508 0.163 3.766 0.163 1.336 0 2.704 0.179 4.023-0.002 0.636-0.087 1.557-0.049 2.483 0.086 0.034-0.599 0.089-0.485 0.15-1.066-2.299-0.080-3.751-0.576-6.056-0.678-1.126-0.050-2.293 0.303-3.422 0.303-0.553 0-2.051 0.184-2.584 0.276-0.036 0.265-0.004 0.662-0.007 0.243z"></path>
</svg>
