<!-- Generated by IcoMoon.io -->
<svg version="1.1" xmlns="http://www.w3.org/2000/svg" width="32" height="32" viewBox="0 0 32 32">
<title>golden_circle</title>
<path d="M15.123 28.979c-4.050-0.125-6.734-1.243-8.799-3.664-1.324-1.552-2.413-3.91-3.085-6.681-0.17-0.702-0.228-1.438-0.228-2.918 0-0.935 0.028-1.464 0.089-1.674 0.019-0.065 0.092-0.323 0.163-0.573 1.682-5.931 5.289-9.633 10.088-10.354 0.675-0.101 0.901-0.114 2.025-0.114 0.64 0 1.269 0.014 1.505 0.032 1.791 0.14 3.053 0.369 3.691 0.672 0.279 0.132 1.144 0.619 1.703 0.958 2.604 1.578 4.372 3.226 5.472 5.102 1.401 2.388 1.717 5.201 0.964 8.572-0.327 1.462-0.78 2.77-1.377 3.97-0.691 1.388-1.354 2.324-2.359 3.327-0.909 0.907-1.788 1.537-2.91 2.085-1.598 0.78-3.28 1.178-5.348 1.263-0.646 0.027-0.68 0.027-1.593-0.002zM16.78 28.156c0.048-0.212 0.149-0.342 0.455-0.579 0.070-0.054 0.13-0.1 0.133-0.103s-0.005-0.11-0.020-0.238c-0.027-0.236-0.056-0.33-0.103-0.33-0.014 0-0.094-0.048-0.177-0.107-0.136-0.096-0.169-0.108-0.328-0.117-0.36-0.020-0.78 0.191-1.283 0.647l-0.16 0.145 0.094 0.198c0.1 0.211 0.139 0.421 0.088 0.482-0.033 0.040-0.022 0.050 0.087 0.078 0.081 0.020 0.817 0.058 1.047 0.054l0.137-0.003zM15.139 28.073c-0.024-0.177-0.084-0.368-0.139-0.435-0.043-0.054-0.055-0.056-0.146-0.028-0.055 0.016-0.146 0.070-0.203 0.118s-0.133 0.1-0.17 0.114c-0.053 0.020-0.066 0.042-0.066 0.111 0 0.049 0.018 0.101 0.042 0.121 0.043 0.036 0.43 0.113 0.6 0.12l0.098 0.004zM13.824 28.086c0.101-0.042 0.104-0.047 0.119-0.188 0.021-0.207-0.025-0.599-0.109-0.925-0.319-1.237-1.302-2.811-2.932-4.694-0.448-0.518-0.514-0.579-0.878-0.818-1.34-0.878-4.574-2.322-5.849-2.611-0.284-0.064-0.506-0.079-0.506-0.033 0 0.015 0.127 0.268 0.283 0.563s0.558 1.093 0.894 1.775c0.625 1.269 0.81 1.615 1.269 2.389 0.343 0.577 0.479 0.756 0.864 1.138 1.383 1.371 4.213 3.004 5.868 3.386 0.303 0.070 0.336 0.074 0.62 0.067 0.171-0.004 0.287-0.020 0.357-0.049zM18.133 28.051l0.24-0.044 0.016-0.215c0.017-0.231 0.075-0.44 0.213-0.766 0.048-0.113 0.087-0.22 0.087-0.237s-0.035-0.038-0.077-0.047c-0.104-0.023-0.229-0.153-0.33-0.342-0.097-0.181-0.165-0.236-0.263-0.211-0.1 0.025-0.225 0.162-0.263 0.29-0.047 0.159-0.040 0.488 0.021 0.881 0.059 0.385 0.066 0.561 0.022 0.604-0.051 0.051-0.141 0.034-0.231-0.045l-0.086-0.075-0.157 0.117c-0.117 0.087-0.149 0.123-0.124 0.14 0.048 0.034 0.648 0.001 0.931-0.050zM20.080 27.491c1.478-0.466 1.439-0.449 1.958-0.819 0.966-0.687 3.125-2.609 4.009-3.57 0.403-0.437 0.738-1.018 1.12-1.935 0.368-0.886 0.969-2.655 0.901-2.655-0.118 0-2.313 0.787-3.247 1.164-0.859 0.347-0.889 0.364-1.606 0.935-0.711 0.567-1.114 0.944-1.5 1.403-0.368 0.438-1.064 1.379-1.136 1.535-0.034 0.073-0.209 0.361-0.39 0.639-0.71 1.092-0.948 1.59-1.117 2.344-0.042 0.189-0.152 0.566-0.244 0.839-0.149 0.442-0.172 0.547-0.121 0.547 0.008 0 0.626-0.193 1.373-0.428zM14.727 27.324c0.33-0.099 0.495-0.205 0.706-0.454 0.176-0.207 0.277-0.29 0.428-0.353 0.171-0.071 0.183-0.079 0.201-0.143 0.009-0.034 0.018-0.196 0.020-0.362l0.003-0.301-0.172 0.016c-0.255 0.024-0.522 0.123-0.706 0.263l-0.082 0.062 0.076 0.086c0.093 0.106 0.101 0.216 0.020 0.273-0.080 0.056-0.142 0.049-0.253-0.028l-0.097-0.067-0.061 0.058c-0.061 0.057-0.14 0.246-0.14 0.333 0 0.065-0.107 0.128-0.185 0.109-0.094-0.024-0.126-0.135-0.091-0.325 0.030-0.167 0.077-0.276 0.157-0.362 0.116-0.127-0.080-0.175-0.342-0.085-0.273 0.094-0.263 0.042-0.098 0.539 0.080 0.24 0.172 0.53 0.205 0.646 0.048 0.168 0.068 0.206 0.099 0.192 0.022-0.009 0.163-0.054 0.313-0.099zM17.494 26.37c0.058-0.115 0.138-0.263 0.176-0.331l0.070-0.122-0.099-0.086c-0.195-0.171-0.552-0.255-0.971-0.23-0.144 0.009-0.273 0.023-0.285 0.030s-0.023 0.189-0.023 0.402v0.388l0.373 0.009c0.344 0.008 0.383 0.014 0.499 0.075 0.070 0.036 0.132 0.068 0.14 0.070s0.061-0.090 0.119-0.205zM18.927 25.908c0.148-0.355 0.494-1.071 0.827-1.714 0.244-0.471 0.355-0.653 0.558-0.923 0.14-0.185 0.249-0.341 0.242-0.348s-0.057 0.011-0.111 0.038c-0.252 0.128-1.755 0.734-2.042 0.823-0.214 0.067-0.219 0.070-0.185 0.122 0.079 0.119 0.188 0.155 0.472 0.155h0.265l-0.004 0.085c-0.002 0.051-0.033 0.121-0.079 0.178-0.066 0.082-0.076 0.118-0.085 0.288-0.007 0.138-0.022 0.207-0.052 0.237-0.072 0.072-0.173 0.007-0.283-0.181-0.053-0.090-0.099-0.163-0.103-0.163s-0.061 0.030-0.126 0.067l-0.119 0.067 0.072 0.059c0.040 0.032 0.080 0.059 0.090 0.060 0.021 0.001 0.095 0.137 0.095 0.175 0 0.045-0.079 0.104-0.138 0.104-0.032 0-0.108-0.023-0.169-0.050-0.169-0.076-0.313-0.066-0.519 0.037-0.096 0.048-0.22 0.126-0.274 0.173l-0.099 0.085 0.133 0.016c0.169 0.020 0.352 0.104 0.585 0.268 0.176 0.124 0.281 0.158 0.315 0.104 0.022-0.036 0.274-0.032 0.311 0.005 0.050 0.050 0.035 0.131-0.043 0.223l-0.073 0.088 0.095 0.081c0.061 0.053 0.121 0.141 0.167 0.25l0.072 0.168 0.054-0.174c0.030-0.096 0.097-0.276 0.149-0.402zM14.604 25.727c0.265-0.044 0.806-0.181 1.074-0.273 0.103-0.035 0.214-0.064 0.246-0.064 0.034 0 0.075-0.026 0.098-0.061 0.035-0.053 0.037-0.136 0.020-0.676l-0.020-0.615-0.177-0.031c-0.253-0.044-0.392-0.043-0.392 0.003 0 0.048-0.077 0.12-0.265 0.249-0.323 0.221-0.443 0.372-0.443 0.558 0 0.126-0.073 0.203-0.19 0.203-0.070 0-0.106-0.015-0.132-0.055-0.034-0.051-0.042-0.052-0.105-0.019-0.153 0.079-0.597 0.613-0.573 0.689 0.047 0.148 0.333 0.179 0.861 0.092zM16.858 25.227c0.020-0.027 0.036-0.070 0.036-0.095 0-0.123 0.358-0.404 0.919-0.721l0.253-0.143-0.184-0.172c-0.216-0.202-0.128-0.192-0.95-0.113l-0.582 0.056 0.006 0.328c0.003 0.181 0.013 0.465 0.021 0.632l0.015 0.303 0.215-0.013c0.174-0.010 0.222-0.022 0.251-0.062zM14.327 24.487c0.049-0.033 0.083-0.072 0.075-0.085s-0.108-0.024-0.222-0.024c-0.262-0-0.331-0.032-0.341-0.157-0.012-0.149 0.057-0.178 0.395-0.168 0.256 0.008 0.283 0.014 0.381 0.082l0.106 0.073 0.077-0.073c0.042-0.040 0.1-0.111 0.128-0.156 0.097-0.157 0.008-0.191-0.611-0.232-0.698-0.046-0.917-0.107-1.603-0.45-0.207-0.103-0.404-0.198-0.438-0.211l-0.061-0.023 0.052 0.070c0.028 0.038 0.155 0.2 0.28 0.36 0.518 0.658 0.922 1.276 1.002 1.531l0.042 0.134 0.324-0.306c0.178-0.168 0.365-0.333 0.414-0.366zM15.844 23.565l0.152-0.033v-4.245l-0.265-0.047c-0.543-0.096-1.167-0.356-1.565-0.651-0.244-0.182-0.539-0.492-0.713-0.749-0.074-0.11-0.249-0.421-0.389-0.693l-0.254-0.493-4.439-0.013 0.017 0.070c0.259 1.092 1.082 2.7 2.011 3.931 0.826 1.094 1.75 1.934 2.676 2.431 0.435 0.233 1.021 0.435 1.479 0.509 0.273 0.044 1.056 0.034 1.29-0.017zM16.886 23.441c1.896-0.393 3.283-0.977 4.357-1.834 0.276-0.22 0.776-0.72 0.997-0.996 0.219-0.273 0.55-0.773 0.732-1.103 0.381-0.694 0.742-1.699 0.949-2.647l0.048-0.22-4.677 0.013-0.083 0.215c-0.399 1.032-1.032 1.806-1.769 2.162-0.252 0.122-0.514 0.202-0.74 0.227-0.081 0.009-0.172 0.021-0.204 0.028l-0.057 0.012v2.111c0 1.831 0.005 2.111 0.037 2.111 0.020 0 0.205-0.035 0.411-0.077zM9.464 20.516c-0.207-0.281-0.337-0.489-0.387-0.62-0.028-0.073-0.169-0.411-0.314-0.751s-0.367-0.91-0.493-1.264c-0.126-0.355-0.239-0.655-0.251-0.667-0.040-0.041-0.259 0.46-0.333 0.765-0.016 0.064-0.035 0.265-0.044 0.445l-0.015 0.328-0.074 0.035c-0.051 0.024-0.094 0.028-0.139 0.012-0.058-0.020-0.066-0.039-0.073-0.161-0.004-0.076 0.005-0.205 0.021-0.286s0.023-0.154 0.016-0.161c-0.030-0.030-0.355 0.236-0.563 0.462-0.123 0.134-0.227 0.252-0.231 0.263s0.102 0.062 0.235 0.114c0.19 0.074 0.381 0.186 0.88 0.517 0.722 0.48 1.028 0.664 1.371 0.827 0.131 0.062 0.246 0.125 0.254 0.139 0.026 0.042 0.22 0.175 0.235 0.161 0.007-0.007-0.035-0.079-0.093-0.158zM23.363 20.064c0.293-0.259 0.608-0.464 0.99-0.645 0.478-0.226 0.443-0.202 0.44-0.301-0.001-0.048-0.016-0.154-0.033-0.235-0.053-0.254 0.036-0.585 0.244-0.912l0.047-0.074-0.109-0.191c-0.145-0.255-0.3-0.657-0.39-1.011-0.040-0.159-0.078-0.294-0.083-0.299-0.027-0.027-0.078 0.147-0.217 0.733-0.184 0.78-0.294 1.177-0.444 1.616-0.184 0.537-0.418 1.058-0.608 1.356-0.139 0.218-0.119 0.214 0.164-0.036zM25.819 18.911c0.257-0.084 0.792-0.272 1.188-0.417s0.817-0.3 0.936-0.342c0.118-0.043 0.218-0.080 0.221-0.082 0.012-0.007 0.132-0.801 0.174-1.151 0.064-0.53 0.065-1.55 0.001-1.846-0.025-0.118-0.055-0.225-0.067-0.236-0.016-0.017-0.174 0.019-0.225 0.051-0.005 0.003 0.015 0.040 0.045 0.082 0.075 0.106 0.111 0.22 0.092 0.294-0.030 0.119-0.24 0.066-0.424-0.107l-0.068-0.064-0.223 0.094c-0.4 0.17-0.425 0.182-0.488 0.252-0.054 0.059-0.063 0.093-0.063 0.238 0 0.227 0.044 0.291 0.268 0.391 0.189 0.084 0.213 0.128 0.133 0.241-0.039 0.056-0.037 0.064 0.033 0.164 0.087 0.123 0.084 0.122 0.511 0.056 0.345-0.053 0.415-0.037 0.403 0.091-0.011 0.111-0.106 0.173-0.321 0.206-0.099 0.016-0.18 0.035-0.18 0.044s0.047 0.077 0.103 0.152c0.124 0.165 0.225 0.357 0.225 0.426 0 0.056-0.069 0.103-0.153 0.103-0.035 0-0.131-0.074-0.263-0.202-0.114-0.111-0.226-0.202-0.249-0.202-0.042 0-0.053 0.037-0.079 0.277-0.019 0.178-0.121 0.227-0.235 0.113-0.061-0.061-0.064-0.077-0.054-0.261 0.008-0.147 0.027-0.224 0.074-0.308l0.063-0.112-0.433-0.489-0.994-0.004 0.087 0.221c0.048 0.122 0.121 0.332 0.163 0.468s0.086 0.247 0.098 0.247c0.012 0 0.071-0.023 0.132-0.050s0.148-0.050 0.193-0.051c0.14-0.001 0.14 0.089 0.001 0.328-0.053 0.091-0.079 0.166-0.075 0.218 0.008 0.095-0.090 0.186-0.199 0.186-0.082 0-0.142 0.060-0.165 0.164-0.046 0.211-0.1 0.263-0.222 0.217-0.13-0.049-0.149-0.3-0.039-0.516 0.054-0.106 0.034-0.104-0.096 0.009-0.138 0.12-0.142 0.134-0.073 0.228 0.072 0.098 0.081 0.215 0.021 0.282-0.058 0.064-0.128 0.058-0.244-0.022l-0.099-0.069-0.060 0.070c-0.090 0.104-0.183 0.495-0.186 0.78l-0.001 0.067 0.171-0.038c0.094-0.021 0.381-0.107 0.638-0.19zM16.953 18.904c0.421-0.122 0.71-0.304 1.059-0.666 0.338-0.351 0.59-0.757 0.799-1.286 0.198-0.501 0.193-0.457 0.108-0.857-0.237-1.116-0.546-1.806-1.041-2.322-0.338-0.352-0.755-0.6-1.361-0.809-0.293-0.101-0.397-0.109-0.719-0.053-1.477 0.258-2.41 1.393-2.661 3.242l-0.042 0.305 0.164 0.338c0.56 1.152 1.315 1.818 2.362 2.084 0.504 0.128 0.944 0.136 1.331 0.024zM6.358 18.714c0.025-0.055 0.136-0.199 0.247-0.32s0.201-0.232 0.201-0.247c0-0.015 0.069-0.071 0.153-0.125s0.17-0.124 0.192-0.158c0.037-0.056 0.037-0.067 0-0.122-0.022-0.034-0.103-0.115-0.18-0.182-0.194-0.168-0.187-0.288 0.018-0.288 0.103 0 0.194 0.039 0.364 0.155 0.080 0.055 0.111 0.064 0.129 0.041 0.013-0.017 0.096-0.171 0.184-0.342s0.186-0.336 0.218-0.367c0.059-0.055 0.076-0.154 0.038-0.214-0.016-0.025-0.168-0.031-0.674-0.025l-0.654 0.007-0.055 0.177c-0.074 0.238-0.16 0.423-0.327 0.707l-0.14 0.238 0.025 0.172c0.014 0.095 0.025 0.243 0.025 0.331 0 0.143-0.005 0.161-0.060 0.186-0.046 0.021-0.078 0.019-0.131-0.007-0.072-0.035-0.095-0.083-0.125-0.259l-0.016-0.098-0.118 0.116c-0.146 0.143-0.279 0.204-0.37 0.17-0.049-0.019-0.064-0.042-0.064-0.099 0-0.075 0.037-0.133 0.298-0.456 0.149-0.185 0.169-0.288 0.079-0.419-0.171-0.251-0.183-0.367-0.040-0.367 0.090 0 0.29 0.114 0.35 0.2 0.048 0.068 0.058 0.056 0.209-0.238 0.155-0.305 0.154-0.316-0.046-0.316-0.088 0-0.298-0.007-0.466-0.016l-0.305-0.016-0.027 0.099c-0.015 0.055-0.068 0.167-0.119 0.25s-0.159 0.29-0.24 0.461c-0.169 0.354-0.293 0.506-0.48 0.587-0.139 0.060-0.439 0.102-0.725 0.103l-0.183 0 0 0.12c0.001 0.143 0.016 0.171 0.109 0.207 0.087 0.033 0.532 0.034 0.952 0.001 0.423-0.033 0.521-0.012 1.154 0.241 0.291 0.116 0.534 0.212 0.541 0.212s0.033-0.044 0.059-0.099zM3.93 17.702c0.236-0.034 0.401-0.111 0.522-0.242 0.12-0.13 0.126-0.168 0.034-0.21-0.037-0.017-0.108-0.063-0.158-0.102-0.195-0.153-0.298-0.188-0.59-0.199l-0.272-0.010v0.789l0.145-0c0.080-0 0.223-0.012 0.318-0.025zM25.501 17.476c0.071-0.055 0.159-0.126 0.196-0.158l0.067-0.058-0.156-0.398c-0.086-0.219-0.175-0.421-0.2-0.449-0.039-0.045-0.075-0.051-0.311-0.051-0.216 0-0.269 0.007-0.281 0.039-0.024 0.064 0.3 0.949 0.41 1.118 0.053 0.082 0.128 0.070 0.274-0.043zM4.831 16.801c0.138-0.193 0.166-0.293 0.13-0.462-0.063-0.295-0.249-0.672-0.4-0.814-0.117-0.109-0.164-0.11-0.289-0.005-0.147 0.124-0.268 0.174-0.54 0.224-0.35 0.064-0.341 0.053-0.341 0.441 0 0.447-0.014 0.432 0.446 0.457 0.307 0.017 0.375 0.028 0.508 0.088 0.084 0.038 0.185 0.102 0.224 0.142s0.090 0.074 0.115 0.074c0.025 0 0.089-0.062 0.147-0.144zM6.313 16.18c-0.007-0.045-0.031-0.247-0.053-0.449s-0.051-0.404-0.065-0.449l-0.026-0.082-0.106 0.072c-0.304 0.209-0.564 0.262-0.685 0.141-0.054-0.054-0.050-0.145 0.007-0.197 0.026-0.023 0.142-0.082 0.259-0.131 0.252-0.105 0.34-0.18 0.317-0.272-0.009-0.035-0.090-0.128-0.18-0.208-0.165-0.145-0.189-0.196-0.138-0.292 0.041-0.076 0.187-0.062 0.395 0.037l0.18 0.086 0.010-0.162c0.006-0.089 0.024-0.176 0.041-0.192 0.054-0.054 0.209-0.037 0.261 0.028 0.062 0.077 0.061 0.202-0.007 0.549l-0.055 0.281 0.057 0.326c0.032 0.179 0.064 0.462 0.071 0.629l0.014 0.303 0.539 0.008c0.657 0.010 0.655 0.010 0.635-0.201-0.026-0.288-0.405-0.932-0.548-0.932-0.025 0-0.088 0.034-0.14 0.076-0.107 0.085-0.167 0.095-0.226 0.036s-0.049-0.168 0.025-0.307c0.075-0.14 0.069-0.214-0.026-0.355-0.069-0.102-0.080-0.195-0.034-0.296 0.023-0.050 0.048-0.064 0.112-0.064 0.066 0 0.115 0.029 0.233 0.139 0.18 0.166 0.173 0.174 0.213-0.247l0.028-0.297h0.249l-0.010 0.398c-0.008 0.336-0.018 0.416-0.063 0.514l-0.053 0.116 0.108 0.145c0.059 0.080 0.114 0.135 0.12 0.124 0.024-0.040 0.095-0.313 0.143-0.543 0.066-0.318 0.101-0.411 0.441-1.174 0.162-0.363 0.294-0.683 0.294-0.71s0.023-0.138 0.052-0.246c0.028-0.109 0.048-0.213 0.044-0.232-0.005-0.024-0.084 0.009-0.26 0.107-1.513 0.843-2.887 1.414-4.008 1.666-0.883 0.199-0.945 0.227-1.022 0.463-0.036 0.109-0.086 0.536-0.063 0.536 0.005-0 0.066-0.017 0.134-0.038 0.157-0.048 0.358-0.048 0.491-0.001 0.096 0.034 0.107 0.033 0.168-0.015 0.082-0.065 0.159-0.048 0.316 0.067 0.239 0.175 0.54 0.65 0.708 1.117l0.056 0.155 0.257 0.024c0.141 0.013 0.38 0.026 0.53 0.028l0.273 0.004zM12.784 16.18c0.006-0.017 0.029-0.178 0.052-0.356 0.184-1.465 0.848-2.484 1.948-2.989 0.252-0.116 0.612-0.225 0.908-0.277 0.139-0.024 0.267-0.048 0.284-0.053 0.025-0.007 0.032-0.466 0.032-2.184 0-1.888-0.005-2.175-0.037-2.175-0.073 0-0.792 0.156-1.171 0.254-1.068 0.276-2.082 0.692-2.834 1.163-0.945 0.592-1.79 1.439-2.322 2.33-0.48 0.803-0.826 1.713-1.043 2.739-0.117 0.558-0.249 1.504-0.216 1.557 0.009 0.014 0.889 0.023 2.201 0.023 1.726 0 2.189-0.007 2.197-0.032zM23.959 16.189c0.019-0.031-0.077-0.666-0.162-1.067-0.361-1.706-1.051-3.025-2.161-4.133-1.101-1.099-2.516-1.905-4.692-2.674-0.216-0.076-0.418-0.146-0.449-0.156l-0.057-0.017v2.189c0 1.557 0.008 2.189 0.027 2.189 0.015 0 0.189 0.079 0.386 0.175 0.626 0.306 1.178 0.708 1.522 1.109 0.516 0.601 0.801 1.283 0.9 2.153l0.029 0.254h2.321c1.277 0 2.327-0.010 2.335-0.022zM26.606 15.743c0.017-0.334 0.046-0.431 0.175-0.579 0.098-0.112 0.248-0.192 0.496-0.266 0.249-0.074 0.259-0.090 0.188-0.314-0.138-0.435-0.32-0.555-0.521-0.345-0.039 0.041-0.091 0.075-0.116 0.075-0.116 0-0.827 0.629-1 0.885-0.124 0.183-0.185 0.398-0.185 0.645v0.215l0.948-0.014zM24.43 15.977c0.001-0.031 0.001-0.25-0-0.487-0.001-0.29 0.011-0.487 0.037-0.606 0.044-0.204 0.174-0.489 0.288-0.63 0.044-0.054 0.079-0.11 0.079-0.123s-0.039-0.069-0.087-0.122c-0.14-0.155-0.195-0.287-0.209-0.504-0.018-0.259 0.008-0.412 0.084-0.503l0.062-0.074-0.108-0.074c-0.059-0.040-0.33-0.214-0.6-0.387-0.422-0.268-0.536-0.356-0.801-0.611-0.17-0.164-0.315-0.298-0.322-0.298s0.133 0.217 0.313 0.482c0.25 0.37 0.345 0.533 0.406 0.702 0.115 0.315 0.274 0.959 0.466 1.888 0.22 1.063 0.309 1.403 0.367 1.403 0.014 0 0.026-0.026 0.027-0.057zM25.364 15.798c0-0.412 0.118-0.748 0.367-1.042 0.132-0.156 0.801-0.701 0.919-0.749l0.085-0.035-0.136-0.105c-0.405-0.312-0.746-0.339-0.971-0.076-0.128 0.149-0.158 0.267-0.101 0.388 0.040 0.084 0.041 0.103 0.009 0.159-0.046 0.083-0.174 0.098-0.291 0.035-0.065-0.035-0.095-0.039-0.129-0.018-0.082 0.052-0.257 0.338-0.309 0.506-0.064 0.206-0.109 0.584-0.090 0.762 0.008 0.073 0.020 0.195 0.028 0.272l0.014 0.139h0.603zM3.846 15.356c0.076-0.037 0.139-0.079 0.139-0.093 0-0.046-0.174-0.086-0.386-0.087l-0.209-0.001v0.283l0.158-0.017c0.089-0.010 0.219-0.046 0.297-0.085zM28.23 14.487c0.044-0.023 0.044-0.028 0.004-0.072-0.050-0.055-0.318-0.151-0.422-0.151-0.043 0-0.071 0.014-0.071 0.034 0 0.070 0.058 0.207 0.104 0.248 0.043 0.038 0.060 0.039 0.193 0.004 0.080-0.021 0.166-0.049 0.192-0.063zM28.115 13.727c-0.026-0.101-0.093-0.434-0.149-0.74-0.121-0.662-0.188-0.936-0.327-1.339-0.318-0.922-0.848-1.778-1.76-2.837-0.958-1.114-2.324-2.398-3.433-3.225-0.299-0.223-0.658-0.449-0.714-0.449-0.016 0-0.094-0.039-0.173-0.087-0.184-0.111-0.475-0.232-0.944-0.395-0.43-0.149-1.219-0.392-1.355-0.417-0.109-0.021-0.112-0.071 0.026 0.464 0.213 0.827 0.558 1.7 1.211 3.064 0.427 0.892 0.72 1.462 0.817 1.593 0.178 0.238 0.604 0.692 1.223 1.303 0.684 0.675 1.030 0.986 1.34 1.204 0.106 0.075 0.305 0.225 0.443 0.334 0.417 0.331 0.909 0.644 1.362 0.866 0.471 0.231 0.826 0.36 1.669 0.605 0.306 0.089 0.602 0.179 0.657 0.199 0.159 0.059 0.16 0.058 0.109-0.142zM25.327 13.633l0.193-0.214-0.095-0.033c-0.052-0.018-0.154-0.078-0.226-0.134-0.155-0.12-0.24-0.129-0.315-0.034-0.072 0.091-0.087 0.167-0.054 0.266 0.030 0.091 0.253 0.38 0.284 0.368 0.011-0.004 0.106-0.103 0.212-0.221zM4.122 13.468c1.847-0.425 3.544-1.346 5.713-3.099 0.283-0.229 0.573-0.455 0.644-0.502 0.478-0.319 1.472-1.65 2.111-2.829 0.6-1.106 0.945-2.14 1.005-3.011 0.010-0.141 0.011-0.256 0.003-0.256s-0.155 0.034-0.326 0.077c-0.171 0.042-0.484 0.105-0.696 0.139-0.617 0.1-0.809 0.174-2.018 0.771-1.517 0.75-2.468 1.39-3.301 2.223-1.223 1.224-2.084 2.779-3.199 5.781-0.266 0.715-0.282 0.769-0.24 0.769 0.016 0 0.152-0.028 0.302-0.063zM20.907 9.419c-0.589-0.973-1.164-2.228-1.59-3.472-0.144-0.419-0.424-1.381-0.491-1.683-0.026-0.12-0.064-0.22-0.092-0.245-0.026-0.023-0.112-0.050-0.192-0.059-0.218-0.025-0.54-0.104-0.718-0.176-0.206-0.084-0.336-0.105-0.365-0.060-0.024 0.039-0.108 0.26-0.127 0.339-0.008 0.030 0.007 0.077 0.035 0.111 0.069 0.085 0.178 0.074 0.36-0.037 0.193-0.117 0.312-0.117 0.324-0 0.011 0.104 0.067 0.139 0.221 0.139 0.148 0 0.217 0.049 0.171 0.122-0.095 0.153-0.939 0.439-1.507 0.51-0.128 0.016-0.269 0.034-0.313 0.041l-0.079 0.011-0.018 0.441c-0.020 0.484-0.010 0.591 0.063 0.657 0.1 0.090 0.367 0.032 0.628-0.137 0.082-0.053 0.189-0.116 0.238-0.139 0.131-0.062 0.154-0.133 0.118-0.367-0.034-0.222-0.019-0.319 0.053-0.342 0.102-0.032 0.186 0.040 0.248 0.214 0.032 0.090 0.063 0.168 0.069 0.174s0.126-0.083 0.267-0.196c0.216-0.174 0.27-0.206 0.336-0.199 0.070 0.007 0.080 0.017 0.087 0.098 0.006 0.077-0.019 0.127-0.171 0.34-0.098 0.137-0.178 0.264-0.178 0.281s0.043 0.045 0.095 0.061c0.208 0.066 0.26 0.15 0.158 0.252-0.074 0.074-0.265 0.067-0.461-0.015-0.225-0.095-0.282-0.089-0.514 0.049-0.253 0.151-0.449 0.212-0.787 0.244-0.147 0.014-0.272 0.029-0.276 0.033-0.015 0.015-0.062 0.91-0.048 0.923 0.027 0.027 1.315-0.248 1.379-0.295 0.096-0.070 0.125-0.153 0.143-0.405l0.016-0.23h0.096c0.129 0 0.175 0.067 0.175 0.258 0 0.080 0.010 0.146 0.023 0.146s0.133-0.073 0.267-0.163c0.271-0.181 0.319-0.202 0.407-0.18 0.073 0.018 0.105 0.118 0.066 0.204-0.015 0.033-0.152 0.148-0.305 0.257s-0.279 0.21-0.28 0.225c-0.001 0.015 0.038 0.064 0.085 0.111 0.107 0.104 0.134 0.193 0.076 0.256-0.102 0.113-0.265 0.082-0.433-0.083l-0.106-0.103-0.172 0.054c-0.095 0.030-0.439 0.105-0.764 0.168s-0.598 0.12-0.605 0.127c-0.007 0.007 0.035 0.013 0.094 0.013 0.564 0 1.957 0.603 3.96 1.715 0.25 0.139 0.459 0.249 0.463 0.245s-0.053-0.108-0.128-0.231zM12.421 8.767c1.058-0.502 2.382-0.972 3.070-1.091l0.101-0.017-0.101-0.031c-0.114-0.035-0.194-0.082-0.393-0.232-0.181-0.137-0.307-0.176-0.644-0.197-0.153-0.010-0.329-0.030-0.392-0.045-0.319-0.077-0.502-0.279-0.384-0.425 0.077-0.094 0.209-0.076 0.483 0.067 0.126 0.066 0.237 0.112 0.246 0.102s-0.006-0.049-0.035-0.088c-0.029-0.039-0.081-0.128-0.117-0.199s-0.132-0.235-0.214-0.365c-0.177-0.281-0.283-0.485-0.283-0.544 0-0.024-0.007-0.036-0.015-0.028s-0.114 0.246-0.236 0.529c-0.567 1.318-1.009 2.196-1.295 2.574-0.053 0.070-0.093 0.128-0.088 0.128s0.138-0.062 0.297-0.137zM16.073 6.908c0.022-0.242 0.034-0.465 0.026-0.495-0.017-0.067-0.090-0.099-0.354-0.152-0.217-0.044-0.378-0.115-0.592-0.26-0.136-0.092-0.136-0.092-0.449-0.101l-0.313-0.008v-0.097c0-0.152 0.034-0.172 0.349-0.208 0.055-0.006 0.051-0.018-0.086-0.234-0.188-0.296-0.193-0.397-0.020-0.432 0.1-0.020 0.206 0.067 0.315 0.257 0.109 0.191 0.16 0.22 0.35 0.198 0.184-0.021 0.203 0.003 0.161 0.202-0.022 0.103-0.020 0.14 0.009 0.185 0.044 0.069 0.318 0.157 0.516 0.165l0.139 0.006-0.003-0.303c-0.003-0.349-0.049-0.516-0.2-0.721-0.098-0.134-0.303-0.283-0.473-0.344-0.059-0.021-0.245-0.048-0.412-0.060-0.314-0.021-0.514-0.073-0.749-0.192l-0.121-0.062-0.027 0.107c-0.015 0.059-0.093 0.331-0.173 0.604l-0.146 0.496 0.248-0.006 0.072 0.22c0.115 0.35 0.306 0.679 0.539 0.926 0.219 0.233 0.391 0.257 0.445 0.061 0.013-0.048 0.044-0.109 0.067-0.135 0.053-0.059 0.204-0.063 0.282-0.008 0.067 0.047 0.076 0.166 0.016 0.216-0.053 0.044-0.162 0.291-0.162 0.367 0 0.071 0.068 0.12 0.262 0.188 0.162 0.057 0.399 0.099 0.426 0.076 0.010-0.008 0.037-0.213 0.059-0.455zM17.283 4.603c0.142-0.036 0.148-0.062 0.020-0.083-0.112-0.018-0.198-0.099-0.233-0.221-0.036-0.127-0.030-0.402 0.012-0.543 0.020-0.068 0.031-0.129 0.023-0.137-0.034-0.034-0.596-0.027-0.842 0.010-0.145 0.022-0.268 0.045-0.275 0.051s0.018 0.071 0.055 0.144c0.088 0.177 0.090 0.343 0.004 0.435-0.034 0.037-0.074 0.067-0.088 0.067-0.052 0-0.025 0.072 0.049 0.135 0.084 0.071 0.272 0.14 0.466 0.171 0.166 0.027 0.658 0.009 0.809-0.029zM14.963 3.992c-0.009-0.073-0.016-0.158-0.016-0.19-0-0.057-0.002-0.057-0.398-0.057-0.219 0-0.414 0.010-0.433 0.022-0.026 0.016-0.005 0.042 0.082 0.102 0.064 0.044 0.159 0.098 0.21 0.119 0.12 0.050 0.432 0.132 0.51 0.134 0.058 0.001 0.060-0.004 0.044-0.131zM15.7 4.094c0.036-0.036 0.040-0.169 0.007-0.256-0.041-0.108-0.289-0.157-0.401-0.079-0.031 0.022-0.056 0.054-0.056 0.071 0 0.064 0.295 0.294 0.378 0.294 0.023 0 0.056-0.014 0.072-0.030z"></path>
</svg>
