<!-- Generated by IcoMoon.io -->
<svg version="1.1" xmlns="http://www.w3.org/2000/svg" width="31" height="32" viewBox="0 0 31 32">
<title>guardians</title>
<path d="M28.914 20.194c-0.029-0.103-0.097-0.196-0.156-0.277-0.020-0.027-0.039-0.052-0.052-0.074-0.114-0.192-0.238-0.34-0.368-0.487-0.065-0.075-0.121-0.17-0.18-0.271-0.069-0.118-0.141-0.241-0.239-0.35l-0.019-0.021c-0.062-0.069-0.115-0.128-0.157-0.202-0.125-0.22-0.209-0.338-0.41-0.496-0.185-0.146-0.356-0.353-0.494-0.601-0.184-0.329-0.368-0.648-0.601-0.94-0.055-0.068-0.11-0.136-0.164-0.203-0.219-0.268-0.425-0.521-0.593-0.833-0.020-0.036-0.041-0.069-0.062-0.103-0.029-0.046-0.053-0.082-0.065-0.119-0.005-0.017-0.009-0.033-0.014-0.050-0.012-0.046-0.024-0.091-0.044-0.137-0.076-0.17-0.225-0.295-0.345-0.394l-0.060-0.051c-0.165-0.145-0.338-0.279-0.504-0.409l-0.074-0.058c-0.12-0.094-0.264-0.198-0.451-0.242-0.026-0.006-0.053-0.010-0.083-0.009-0.023-0.009-0.066-0.048-0.101-0.080-0.046-0.042-0.099-0.089-0.162-0.127-0.054-0.033-0.112-0.062-0.169-0.091-0.055-0.028-0.111-0.056-0.162-0.089-0.065-0.042-0.129-0.122-0.197-0.207-0.062-0.078-0.126-0.158-0.206-0.229-0.096-0.085-0.2-0.145-0.291-0.198-0.066-0.038-0.129-0.074-0.183-0.116-0.136-0.105-0.271-0.222-0.401-0.334-0.232-0.2-0.472-0.407-0.741-0.574-0.097-0.061-0.189-0.147-0.286-0.238-0.078-0.074-0.159-0.15-0.25-0.22-0.128-0.098-0.272-0.193-0.427-0.282-0.168-0.097-0.322-0.204-0.492-0.324-0.134-0.095-0.27-0.161-0.402-0.226-0.072-0.035-0.144-0.070-0.215-0.11-0.134-0.076-0.271-0.145-0.408-0.213-0.242-0.121-0.471-0.236-0.682-0.389-0.079-0.058-0.159-0.117-0.238-0.177-0.171-0.128-0.348-0.261-0.531-0.378-0.078-0.050-0.154-0.102-0.229-0.153-0.172-0.118-0.35-0.24-0.55-0.334-0.137-0.065-0.27-0.184-0.411-0.31-0.159-0.143-0.323-0.29-0.521-0.383-0.176-0.083-0.276-0.146-0.372-0.282-0.014-0.020-0.038-0.081-0.055-0.125-0.052-0.131-0.11-0.28-0.24-0.362-0.269-0.171-0.466 0.039-0.53 0.108-0.016 0.017-0.032 0.035-0.050 0.050-0.015 0.011-0.030 0.020-0.046 0.028-0.037 0.021-0.083 0.048-0.13 0.090-0.032 0.029-0.060 0.061-0.088 0.094-0.019 0.023-0.038 0.046-0.062 0.065-0.071 0.056-0.158 0.098-0.251 0.143-0.113 0.055-0.242 0.118-0.36 0.216-0.182 0.153-0.354 0.321-0.52 0.484l-0.159 0.155c-0.222 0.214-0.437 0.444-0.645 0.666l-0.141 0.15c-0.052 0.055-0.098 0.116-0.145 0.177-0.058 0.076-0.113 0.149-0.171 0.191-0.198 0.147-0.363 0.273-0.536 0.451-0.249 0.256-0.542 0.434-0.821 0.588-0.17 0.094-0.295 0.243-0.416 0.388-0.049 0.059-0.098 0.118-0.149 0.169-0.125 0.126-0.267 0.225-0.418 0.329-0.146 0.1-0.297 0.205-0.439 0.34-0.073 0.069-0.159 0.122-0.25 0.178-0.102 0.063-0.217 0.133-0.325 0.235l-0.078 0.074c-0.146 0.138-0.272 0.258-0.424 0.346-0.17 0.099-0.305 0.278-0.423 0.435-0.045 0.060-0.090 0.119-0.134 0.17-0.23 0.264-0.41 0.458-0.582 0.627-0.102 0.1-0.181 0.183-0.255 0.27-0.016 0.019-0.036 0.042-0.056 0.067-0.040 0.048-0.132 0.161-0.154 0.178-0.011 0.003-0.022 0.004-0.034 0.005-0.038 0.005-0.089 0.013-0.143 0.035-0.095 0.039-0.124 0.059-0.199 0.124-0.126 0.107-0.235 0.231-0.339 0.351l-0.143 0.162c-0.177 0.199-0.36 0.405-0.511 0.66-0.098 0.166-0.159 0.254-0.28 0.37-0.083 0.079-0.134 0.172-0.178 0.254-0.016 0.030-0.033 0.059-0.051 0.088-0.12 0.19-0.246 0.364-0.379 0.549l-0.12 0.167c-0.085 0.12-0.166 0.245-0.247 0.37-0.082 0.127-0.164 0.254-0.251 0.375-0.079 0.11-0.143 0.241-0.245 0.333-0.030 0.027-0.062 0.050-0.085 0.084-0.075 0.111-0.079 0.266-0.103 0.393-0.009 0.050-0.030 0.087-0.045 0.135-0.052 0.165-0.103 0.33-0.145 0.497-0.010 0.040-0.033 0.071-0.049 0.108-0.021 0.046-0.025 0.098-0.042 0.145-0.032 0.090-0.057 0.179-0.097 0.267-0.062 0.135-0.091 0.29-0.133 0.432-0.006 0.021-0.014 0.055-0.025 0.075-0.013 0.021-0.036 0.033-0.049 0.054-0.035 0.054-0.038 0.129-0.072 0.186-0.023 0.039-0.050 0.086-0.062 0.126-0.012 0.042-0.026 0.072-0.043 0.115-0.011 0.028-0.048 0.094-0.044 0.126 0.002 0.016 0.037 0.055 0.053 0.064s0.033-0.002 0.049 0.003c0.018 0.005 0.016 0.012 0.029 0.022 0.057 0.045 0.125 0.074 0.192 0.1 0.074 0.029 0.137 0.067 0.205 0.109 0.169 0.106 0.337 0.11 0.472 0.113l0.066 0.002c0.26 0.012 0.529 0.023 0.767 0.109l0.091 0.034c0.202 0.076 0.41 0.154 0.684 0.11 0.206-0.033 0.424-0.036 0.668-0.010 0.295 0.032 0.552 0.077 0.764 0.134 0.186 0.050 0.365 0.139 0.554 0.234 0.166 0.083 0.337 0.168 0.521 0.231 0.284 0.096 0.588 0.195 0.912 0.256 0.127 0.024 0.251 0.066 0.382 0.11 0.084 0.028 0.168 0.056 0.255 0.081 0.124 0.035 0.243 0.035 0.348 0.036 0.047 0 0.094 0 0.141 0.004 0.067 0.006 0.139 0.022 0.214 0.040 0.043 0.010 0.086 0.020 0.129 0.028 0.177 0.035 0.351 0.041 0.52 0.047 0.056 0.002 0.111 0.004 0.167 0.007l0.361 0.020c0.332 0.018 0.664 0.037 0.996 0.055 1.182 0.062 2.056 0.334 2.75 0.856 0.078 0.058 0.154 0.125 0.231 0.192 0.126 0.11 0.257 0.223 0.401 0.312 0.055 0.034 0.147 0.090 0.266 0.090 0.041 0 0.085-0.007 0.133-0.023 0.164-0.057 0.242-0.188 0.3-0.284 0.023-0.037 0.048-0.080 0.066-0.094 0.008-0.006 0.026-0.012 0.057-0.020 0.034-0.009 0.068-0.020 0.103-0.035 0.069-0.029 0.131-0.068 0.184-0.102 0.029-0.019 0.058-0.037 0.089-0.053 0.071-0.037 0.145-0.048 0.239-0.062 0.097-0.014 0.206-0.030 0.323-0.080 0.085-0.036 0.178-0.048 0.286-0.062 0.072-0.009 0.145-0.019 0.217-0.034 0.050-0.011 0.102-0.027 0.153-0.043s0.1-0.032 0.14-0.037c0.058-0.008 0.125-0.003 0.197 0.002 0.063 0.004 0.124 0.009 0.188 0.007 0.163-0.004 0.32-0.032 0.472-0.060 0.056-0.010 0.113-0.020 0.17-0.029 0.156-0.024 0.316-0.031 0.485-0.038 0.333-0.015 0.677-0.029 1.023-0.181l0.153-0.068c0.163-0.073 0.316-0.142 0.487-0.195 0.178-0.055 0.412-0.129 0.645-0.216 0.079-0.029 0.156-0.064 0.234-0.098 0.067-0.029 0.134-0.059 0.201-0.085 0.079-0.030 0.165-0.049 0.256-0.070 0.090-0.020 0.182-0.041 0.278-0.074l0.103-0.036c0.206-0.072 0.384-0.134 0.591-0.155 0.129-0.013 0.253-0.037 0.373-0.061 0.112-0.022 0.218-0.043 0.321-0.053 0.113-0.011 0.23-0.007 0.354-0.001 0.141 0.006 0.287 0.012 0.441-0.006 0.305-0.034 0.642 0.021 0.999-0.068 0.199-0.050 0.365-0.172 0.512-0.281 0.084-0.062 0.163-0.121 0.241-0.161 0.081-0.042 0.188-0.077 0.301-0.113 0.215-0.069 0.458-0.147 0.638-0.317 0.102-0.096 0.346-0.445 0.238-0.727l-0.040-0.105-0.108-0.033c-0.342-0.106-0.565 0.069-0.747 0.24-0.137 0.129-0.293 0.214-0.491 0.268-0.233 0.064-0.371 0.079-0.574 0.066-0.274-0.019-0.571-0.028-0.876 0.035-0.168 0.034-0.329 0.091-0.485 0.147-0.087 0.031-0.174 0.062-0.262 0.088-0.067 0.020-0.138 0.033-0.208 0.046-0.159 0.029-0.34 0.063-0.51 0.167-0.076 0.046-0.137 0.099-0.192 0.146-0.066 0.056-0.118 0.101-0.176 0.12s-0.133 0.021-0.213 0.022l-0.042 0.001c-0.125 0.003-0.238 0.027-0.348 0.051-0.085 0.018-0.164 0.035-0.239 0.040-0.103 0.007-0.211-0.003-0.325-0.013s-0.231-0.020-0.354-0.016c-0.253 0.008-0.555 0.018-0.873 0.013-0.436 0.001-0.8 0.093-1.133 0.2-0.232 0.074-0.42 0.074-0.682 0.065-0.411-0.012-0.821 0.127-1.215 0.264-0.094 0.032-0.186 0.065-0.276 0.094-0.048 0.015-0.093 0.027-0.137 0.039-0.121 0.032-0.259 0.068-0.404 0.159-0.041 0.025-0.089 0.044-0.144 0.065-0.070 0.027-0.149 0.057-0.228 0.109-0.127 0.081-0.212 0.212-0.287 0.327-0.034 0.053-0.090 0.138-0.124 0.167-0.039-0.014-0.085-0.039-0.133-0.065-0.061-0.033-0.122-0.065-0.184-0.089-0.080-0.031-0.155-0.049-0.228-0.067-0.039-0.009-0.078-0.019-0.117-0.031-0.295-0.088-0.59-0.136-0.876-0.183l-0.197-0.032c-0.157-0.027-0.309-0.038-0.456-0.049-0.252-0.019-0.491-0.036-0.72-0.131-0.055-0.023-0.109-0.047-0.162-0.070-0.154-0.068-0.313-0.138-0.497-0.182-0.098-0.023-0.196-0.048-0.295-0.072-0.123-0.030-0.245-0.061-0.368-0.089-0.139-0.032-0.275-0.044-0.407-0.056-0.146-0.013-0.285-0.026-0.411-0.064-0.255-0.077-0.49-0.18-0.75-0.298-0.198-0.090-0.395-0.13-0.585-0.169-0.124-0.026-0.241-0.050-0.354-0.086-0.078-0.026-0.156-0.052-0.234-0.078-0.228-0.077-0.464-0.156-0.705-0.216-0.22-0.055-0.43-0.142-0.653-0.234-0.106-0.044-0.212-0.088-0.32-0.128-0.254-0.096-0.497-0.108-0.732-0.12l-0.064-0.003c-0.13-0.007-0.261-0.042-0.4-0.080-0.127-0.034-0.259-0.070-0.402-0.087-0.139-0.017-0.276-0.021-0.408-0.025-0.131-0.004-0.253-0.008-0.374-0.023-0.071-0.009-0.137-0.033-0.207-0.047-0.041-0.008-0.083-0.005-0.124-0.010-0.124-0.014-0.25-0.090-0.358-0.15-0.029-0.016-0.070-0.049-0.104-0.055-0.016-0.003-0.050 0.008-0.061-0.003-0.020-0.020 0.008-0.046 0.013-0.062 0.014-0.043-0.003-0.089 0.015-0.131 0.009-0.021 0.018-0.041 0.026-0.063 0.016-0.045 0.007-0.086 0.014-0.131 0.006-0.039 0.025-0.075 0.032-0.113 0.011-0.061 0.001-0.131 0.001-0.192 0-0.127 0.021-0.257 0.048-0.378 0.016-0.069 0.035-0.153 0.039-0.224 0.005-0.097 0.028-0.184 0.052-0.278 0.020-0.081 0.026-0.177 0.061-0.252 0.023-0.050 0.044-0.098 0.064-0.149 0.038-0.098 0.091-0.192 0.114-0.296 0.020-0.090 0.020-0.187 0.046-0.274 0.018-0.062 0.057-0.103 0.093-0.155 0.026-0.037 0.037-0.067 0.073-0.095 0.078-0.062 0.139-0.14 0.21-0.21 0.068-0.067 0.138-0.131 0.209-0.195 0.057-0.052 0.1-0.114 0.15-0.173 0.040-0.047 0.091-0.083 0.13-0.131 0.028-0.035 0.054-0.074 0.078-0.111 0.015-0.023 0.033-0.063 0.055-0.084s0.056-0.036 0.079-0.057c0.050-0.045 0.088-0.107 0.125-0.161 0.049-0.073 0.097-0.138 0.155-0.205 0.041-0.047 0.089-0.076 0.136-0.116 0.028-0.023 0.052-0.048 0.083-0.068 0.022-0.015 0.049-0.025 0.070-0.041 0.016-0.013 0.030-0.028 0.044-0.042 0.033-0.033 0.072-0.053 0.114-0.078 0.067-0.040 0.135-0.079 0.198-0.124 0.121-0.084 0.24-0.174 0.359-0.264 0.169-0.129 0.33-0.251 0.497-0.353 0.154-0.094 0.318-0.201 0.483-0.372 0.051-0.054 0.112-0.099 0.175-0.147 0.079-0.060 0.169-0.128 0.252-0.219 0.026-0.028 0.049-0.058 0.073-0.088 0.025-0.032 0.051-0.065 0.072-0.084l0.006-0.001c0.047-0.004 0.126-0.011 0.203-0.064 0.106-0.072 0.152-0.171 0.186-0.244 0.011-0.024 0.022-0.049 0.038-0.072 0.078-0.112 0.157-0.214 0.213-0.273 0.021-0.023 0.069-0.044 0.12-0.066 0.049-0.021 0.106-0.046 0.16-0.082s0.106-0.080 0.157-0.124c0.049-0.043 0.096-0.083 0.135-0.102 0.007-0.004 0.027-0.008 0.043-0.011 0.041-0.009 0.097-0.022 0.156-0.053 0.088-0.046 0.149-0.11 0.203-0.165 0.017-0.018 0.035-0.036 0.054-0.054 0.164-0.15 0.275-0.327 0.383-0.498 0.074-0.118 0.144-0.229 0.227-0.326 0.052-0.061 0.103-0.122 0.153-0.184 0.099-0.122 0.193-0.236 0.296-0.338 0.049-0.049 0.1-0.096 0.15-0.143 0.090-0.084 0.183-0.171 0.273-0.269 0.208-0.23 0.396-0.374 0.627-0.481 0.067-0.031 0.132-0.069 0.197-0.107 0.068-0.040 0.133-0.078 0.195-0.103 0.053-0.021 0.107-0.037 0.161-0.053 0.094-0.028 0.201-0.061 0.306-0.114 0.075-0.038 0.152-0.074 0.23-0.109 0.184-0.084 0.373-0.171 0.551-0.298 0.080-0.057 0.136-0.129 0.186-0.192 0.031-0.040 0.063-0.081 0.087-0.098 0.009-0.006 0.020-0.009 0.029-0.013 0.041-0.017 0.102-0.044 0.161-0.1 0.038-0.036 0.064-0.074 0.085-0.104 0.007-0.010 0.014-0.021 0.022-0.031 0.017-0.019 0.035-0.034 0.053-0.050 0.032-0.028 0.070-0.062 0.107-0.106 0.008 0.021 0.017 0.038 0.026 0.051 0.016 0.025 0.017 0.081 0.022 0.111 0.012 0.061 0.021 0.124 0.035 0.185 0.005 0.020 0.011 0.038 0.018 0.057 0.014 0.040 0.015 0.080 0.019 0.123 0.010 0.105 0.027 0.209 0.028 0.315 0.001 0.119-0.002 0.235 0.016 0.353 0.020 0.133 0.018 0.263 0.017 0.398-0.002 0.276 0.039 0.551 0.087 0.822 0.019 0.106 0.031 0.213 0.050 0.319 0.026 0.135 0.058 0.268 0.075 0.404 0.012 0.099 0.027 0.194 0.048 0.29 0.024 0.108 0.011 0.212 0.018 0.321 0.007 0.113 0.016 0.226 0.029 0.338 0.013 0.109-0.001 0.219 0.003 0.328 0.004 0.089 0.019 0.175 0.018 0.264-0.001 0.117-0.001 0.235-0.001 0.352 0 0.203-0.019 0.416 0.004 0.617 0.019 0.169 0.001 0.339 0.015 0.508 0.008 0.099 0.012 0.192 0.015 0.291 0.003 0.124 0.041 0.248 0.050 0.373 0.013 0.171 0.004 0.345 0.004 0.516v0.842c0 0.241 0.011 0.48 0.017 0.721 0.003 0.117 0.013 0.24 0.027 0.357 0.013 0.109 0.004 0.217 0.017 0.325 0.014 0.121 0.022 0.235 0.026 0.356 0.003 0.107 0.027 0.212 0.040 0.318 0.030 0.258 0.053 0.518 0.093 0.775 0.019 0.124 0.031 0.249 0.051 0.373 0.020 0.131 0.060 0.256 0.077 0.388 0.009 0.065 0.030 0.132 0.035 0.196 0.004 0.050 0.006 0.095 0.016 0.146 0.015 0.078 0.029 0.156 0.044 0.233 0.014 0.069 0.010 0.14 0.025 0.21 0.013 0.062 0.034 0.101 0.035 0.164 0.001 0.036 0.007 0.121 0.031 0.15 0.007-0.021 0.002-0.038 0.003-0.061 0.001-0.061 0.009-0.123 0.017-0.183 0.026-0.19 0.060-0.378 0.088-0.567 0.012-0.083 0.024-0.166 0.043-0.248 0.013-0.057 0.033-0.111 0.041-0.169 0.014-0.112-0.005-0.221 0.016-0.332 0.017-0.087 0.004-0.183 0.004-0.271v-0.205c0-0.104-0.023-0.233 0.010-0.332 0.011-0.034 0.024-0.050 0.026-0.088 0.005-0.078-0.006-0.157-0.002-0.235 0.004-0.071 0.025-0.141 0.032-0.212 0.011-0.106-0.005-0.212 0.008-0.317 0.014-0.113 0.003-0.228 0.017-0.34 0.005-0.042 0.013-0.081 0.014-0.123 0.003-0.115 0.016-0.229 0.018-0.343 0.004-0.234-0.014-0.47 0.013-0.703 0.011-0.1-0.005-0.202 0.008-0.302 0.015-0.121 0.013-0.239 0.013-0.36 0-0.192 0.004-0.385 0.001-0.577-0.002-0.134-0.045-0.263-0.058-0.397-0.013-0.136-0.025-0.267-0.031-0.404-0.004-0.094-0.028-0.186-0.038-0.279-0.012-0.119-0.017-0.237-0.030-0.356-0.011-0.096-0.013-0.185-0.016-0.281-0.004-0.121-0.037-0.235-0.036-0.358 0.001-0.136 0.005-0.273 0.001-0.409-0.003-0.123-0.019-0.241-0.018-0.364 0.001-0.118-0.019-0.229-0.032-0.346s-0.002-0.235 0.010-0.351c0.021-0.199 0.003-0.408 0.004-0.608 0.001-0.073 0.019-0.142 0.018-0.216-0.001-0.101 0-0.202-0.001-0.303-0.001-0.107 0.024-0.207 0.016-0.316-0.007-0.11-0.016-0.216-0.016-0.327v-0.619c0-0.172-0.001-0.345 0.001-0.517 0.001-0.095-0.007-0.201-0.020-0.295-0.010-0.068-0.035-0.161-0.068-0.222 0.069 0.126 0.148 0.251 0.234 0.367 0.028 0.038 0.056 0.074 0.083 0.112 0.013 0.018 0.028 0.034 0.044 0.049 0.087 0.078 0.178 0.152 0.232 0.257 0.055 0.107 0.167 0.17 0.254 0.249l0.101 0.092c0.142 0.13 0.288 0.264 0.462 0.381 0.081 0.054 0.159 0.085 0.228 0.113 0.029 0.011 0.058 0.023 0.087 0.036 0.046 0.021 0.093 0.054 0.144 0.087 0.080 0.054 0.171 0.114 0.283 0.154 0.549 0.194 1.052 0.445 1.496 0.747 0.073 0.050 0.144 0.109 0.219 0.172 0.091 0.076 0.185 0.155 0.291 0.224 0.121 0.078 0.228 0.197 0.342 0.323l0.076 0.084c0.103 0.114 0.21 0.231 0.352 0.323 0.083 0.054 0.161 0.13 0.245 0.21 0.075 0.073 0.153 0.148 0.243 0.216 0.125 0.094 0.253 0.155 0.376 0.214 0.089 0.043 0.174 0.083 0.25 0.133 0.206 0.135 0.378 0.322 0.56 0.52 0.075 0.082 0.151 0.164 0.23 0.244 0.104 0.105 0.214 0.163 0.311 0.214 0.055 0.029 0.106 0.056 0.15 0.089 0.062 0.046 0.124 0.104 0.19 0.165 0.070 0.066 0.143 0.134 0.225 0.195s0.163 0.086 0.222 0.104c0.029 0.009 0.054 0.017 0.067 0.024 0.014 0.010 0.024 0.024 0.037 0.037 0.034 0.037 0.076 0.082 0.137 0.119 0.033 0.020 0.066 0.034 0.099 0.048 0.014 0.006 0.031 0.013 0.036 0.016 0.017 0.011 0.042 0.039 0.066 0.065 0.051 0.055 0.114 0.124 0.205 0.169l0.048 0.023c0.052 0.024 0.056 0.026 0.084 0.059 0.045 0.052 0.085 0.118 0.128 0.188s0.086 0.139 0.135 0.203c0.037 0.048 0.076 0.093 0.114 0.138 0.032 0.037 0.064 0.075 0.094 0.114 0.055 0.071 0.101 0.152 0.15 0.238 0.024 0.042 0.048 0.085 0.074 0.128 0.137 0.228 0.297 0.44 0.45 0.646l0.103 0.137c0.092 0.124 0.197 0.218 0.299 0.309 0.056 0.050 0.113 0.1 0.165 0.156 0.126 0.134 0.255 0.211 0.405 0.241 0 0 0.052 0.009 0.053 0.011 0.068 0.067 0.129 0.163 0.193 0.265 0.047 0.075 0.094 0.149 0.145 0.217 0.113 0.149 0.218 0.196 0.311 0.238 0.026 0.012 0.054 0.024 0.085 0.042 0.087 0.048 0.19 0.188 0.272 0.3 0.026 0.035 0.051 0.070 0.081 0.108 0.153 0.197 0.262 0.34 0.535 0.415 0.105 0.029 0.221 0.070 0.291 0.151 0.015 0.017 0.027 0.038 0.040 0.058 0.034 0.054 0.076 0.12 0.145 0.175l0.565 0.455-0.197-0.698z"></path>
</svg>
