<!-- Generated by IcoMoon.io -->
<svg version="1.1" xmlns="http://www.w3.org/2000/svg" width="32" height="32" viewBox="0 0 32 32">
<title>gurathnakas_shadows</title>
<path d="M13.354 27.392l-4.943-2.753-2.925-0.104c-2.42-0.086-2.925-0.156-2.925-0.407 0-0.249 0.423-0.313 2.371-0.36l2.371-0.057v-3.322c0-2.080-0.075-3.323-0.202-3.323-0.224 0-0.225 0.002-0.291 1.049-0.062 0.981-0.415 1.372-1.24 1.372-0.683 0-1.092-0.41-1.092-1.096 0-0.403 0.525-0.413 0.678-0.013 0.064 0.166 0.255 0.303 0.425 0.303 0.237 0 0.309-0.24 0.309-1.035 0-0.922 0.077-1.108 0.706-1.701l0.706-0.666v-2.62c0-1.907-0.080-2.775-0.296-3.191-0.163-0.314-0.349-0.916-0.415-1.338-0.13-0.839-0.536-1.135-1.012-0.74-0.437 0.362-0.603 0.085-0.321-0.535 0.222-0.488 0.319-0.523 1.208-0.437l0.966 0.093 0.331-0.925c0.975-2.725 3.994-4.2 6.881-3.361 0.932 0.271 1.422 0.591 2.506 1.639 0.741 0.716 1.51 1.302 1.708 1.302s0.686-0.136 1.085-0.303c0.811-0.339 2.808-0.402 3.568-0.113 1.358 0.516 3.16 3.242 3.16 4.78 0 1.27-0.3 1.863-1.616 3.201-0.934 0.949-1.219 1.388-1.32 2.032-0.116 0.734-0.073 0.858 0.401 1.169 0.661 0.433 0.503 0.734-0.387 0.734-0.734 0-1.417-0.645-1.645-1.554-0.204-0.814 0.351-2.32 1.25-3.389 1.008-1.198 1.234-2.007 0.832-2.971-0.76-1.818-3.603-1.636-5.068 0.324-0.393 0.525-0.419 0.869-0.478 6.090-0.055 4.89-0.026 5.534 0.25 5.534 0.172 0 0.518-0.317 0.768-0.704 0.523-0.807 0.681-0.866 0.856-0.315 0.171 0.539-0.361 1.495-1.209 2.171-0.545 0.435-0.705 0.711-0.705 1.218v0.656l5.094 0.003c4.715 0.003 5.943 0.123 5.526 0.541-0.089 0.089-2.236 0.208-4.772 0.263l-4.61 0.101 2.659 1.664c1.462 0.915 3.431 2.161 4.374 2.769l1.715 1.105-10.289-0.026z"></path>
</svg>
