<!-- Generated by IcoMoon.io -->
<svg version="1.1" xmlns="http://www.w3.org/2000/svg" width="36" height="32" viewBox="0 0 36 32">
<title>hand_inverted</title>
<path d="M14.282 6.216v-0.263c-0.098-0.23-0.197-0.459-0.328-0.656-0.098-0.197-0.23-0.427-0.361-0.624-0.066-0.164-0.164-0.295-0.23-0.459s-0.131-0.295-0.197-0.492c-0.131-0.197-0.263-0.361-0.361-0.558s-0.197-0.361-0.262-0.558c-0.033-0.066-0.033-0.098-0.033-0.131s0-0.098-0.033-0.131c-0.066-0.361 0.099-0.656 0.427-0.853 0.098-0.066 0.263-0.164 0.46-0.263 0.164-0.098 0.328-0.131 0.558-0.033 0.131 0.066 0.197 0.131 0.23 0.197 0.066 0.066 0.099 0.098 0.164 0.164s0.098 0.131 0.164 0.23c0.066 0.066 0.099 0.164 0.164 0.263s0.131 0.197 0.23 0.328c0.099 0.131 0.164 0.23 0.23 0.328 0.033 0.098 0.098 0.197 0.164 0.295s0.131 0.197 0.197 0.263c0.066 0.066 0.164 0.164 0.23 0.263 0.263 0.263 0.46 0.558 0.558 0.919 0.131 0.394 0.394 0.755 0.788 1.116 0.131 0.23 0.263 0.492 0.427 0.722 0.131 0.263 0.295 0.492 0.427 0.755 0.263 0.427 0.558 0.821 0.919 1.247 0.361 0.394 0.689 0.788 1.050 1.116 0.197 0.197 0.394 0.361 0.591 0.46 0.263 0.164 0.525 0.361 0.788 0.624s0.492 0.492 0.722 0.689c0.328 0.394 0.722 0.755 1.182 1.050 0.263 0.263 0.492 0.492 0.722 0.656s0.427 0.361 0.624 0.525c0.197 0.197 0.427 0.361 0.624 0.558s0.427 0.427 0.624 0.722c0.263 0.295 0.525 0.591 0.755 0.886 0.263 0.295 0.525 0.591 0.82 0.886 0.394 0.591 0.788 1.083 1.149 1.543 0.197 0.23 0.46 0.558 0.722 0.985 0.164 0.197 0.328 0.361 0.525 0.525s0.394 0.295 0.591 0.427c0.066 0.066 0.164 0.131 0.263 0.197s0.197 0.131 0.295 0.197c0.098 0.066 0.197 0.131 0.295 0.23s0.197 0.164 0.328 0.263c0.295 0.197 0.525 0.394 0.755 0.558 0.197 0.164 0.394 0.361 0.591 0.558 0.295 0.263 0.591 0.525 0.853 0.788 0.295 0.263 0.591 0.525 0.853 0.788 0.066 0.066 0.098 0.131 0.164 0.197s0.131 0.131 0.164 0.197c0.033 0.033 0.033 0.066 0.033 0.131v0.066c-1.083 2.691-2.888 4.792-5.448 6.236-0.033 0-0.066 0-0.066 0.033-0.033 0-0.066 0.033-0.131 0.033h-0.033c-0.066-0.066-0.098-0.099-0.164-0.131s-0.131-0.066-0.164-0.131c-0.263-0.197-0.525-0.427-0.755-0.657-0.263-0.23-0.525-0.492-0.82-0.755-0.131-0.098-0.263-0.197-0.361-0.263s-0.197-0.131-0.328-0.197c-0.295-0.263-0.657-0.394-1.149-0.394-0.23 0-0.459 0-0.623 0-0.197 0-0.361 0.033-0.558 0.066-0.361 0.066-0.755 0.098-1.149 0.131s-0.788 0.066-1.149 0.066c-0.295 0-0.689 0.033-1.182 0.131-0.23 0.033-0.459 0.066-0.689 0.066-0.23 0.033-0.427 0.066-0.656 0.131-0.295 0.066-0.558 0.098-0.755 0.131-0.23 0.033-0.427 0.066-0.656 0.131s-0.492 0.098-0.755 0.098-0.558 0.033-0.853 0.098c-0.23 0.066-0.492 0.066-0.755 0-0.525 0-1.050 0.066-1.575 0.197-0.295 0.066-0.591 0.131-0.952 0.197-0.328 0.066-0.689 0.066-1.050 0.033-0.394 0-0.755-0.066-1.050-0.164-0.131-0.033-0.295 0-0.46 0.066-0.23 0.066-0.46 0.098-0.722 0.164-0.23 0.066-0.46 0.131-0.656 0.164-0.066 0.033-0.164 0.033-0.328 0.033-0.492 0-0.853-0.131-1.116-0.394-0.033-0.066-0.066-0.098-0.066-0.098-0.033 0-0.066-0.033-0.066-0.098-0.197-0.295-0.263-0.591-0.131-0.853 0.033-0.098 0.098-0.23 0.23-0.361 0.295-0.394 0.656-0.788 1.116-1.214 0.295-0.197 0.525-0.328 0.755-0.394 0.394-0.197 0.853-0.328 1.346-0.361 0.263-0.033 0.492-0.033 0.722-0.066 0.23 0 0.46-0.033 0.689-0.033 0.131 0 0.263 0 0.427-0.033s0.295-0.066 0.427-0.066c0.328-0.164 0.722-0.262 1.149-0.361 0.131-0.066 0.263-0.099 0.427-0.164 0.131-0.066 0.295-0.131 0.46-0.164 0.23-0.197 0.394-0.427 0.427-0.755v-0.328c-0.066-0.197-0.098-0.361-0.131-0.558s-0.066-0.394-0.131-0.591c-0.066-0.23-0.197-0.459-0.328-0.722-0.197-0.164-0.328-0.295-0.427-0.427s-0.23-0.23-0.361-0.361c-0.164-0.197-0.328-0.361-0.46-0.558s-0.328-0.361-0.525-0.492c-0.328-0.197-0.623-0.427-0.886-0.656s-0.525-0.427-0.755-0.656c-0.131-0.197-0.262-0.394-0.427-0.525s-0.295-0.295-0.492-0.427c-0.197-0.164-0.427-0.328-0.624-0.459s-0.427-0.295-0.624-0.427c-0.361-0.295-0.755-0.558-1.116-0.788-0.394-0.23-0.755-0.46-1.083-0.656-0.821-0.46-1.608-0.919-2.396-1.444s-1.575-1.017-2.33-1.444c-0.098-0.098-0.197-0.197-0.328-0.295-0.098-0.098-0.197-0.164-0.328-0.263-0.164-0.098-0.263-0.197-0.361-0.263-0.263-0.295-0.394-0.591-0.427-0.952 0-0.624 0.197-1.050 0.558-1.247 0.098-0.066 0.23-0.131 0.394-0.164 0.328-0.033 0.689 0 1.050 0.131 0.066 0.033 0.098 0.033 0.164 0.033s0.098 0 0.164 0.033c0.131 0.066 0.263 0.098 0.361 0.164s0.23 0.131 0.361 0.197c0.066 0.033 0.098 0.066 0.131 0.066 0.033 0.033 0.098 0.066 0.131 0.066 0.131 0.164 0.295 0.295 0.46 0.394s0.328 0.197 0.492 0.23c0.23 0.066 0.492 0.197 0.755 0.328 0.46 0.197 0.853 0.361 1.182 0.558s0.689 0.394 1.017 0.591c0.197 0.197 0.427 0.328 0.624 0.427s0.361 0.197 0.525 0.263c0.197 0.131 0.427 0.262 0.624 0.361s0.427 0.23 0.656 0.361c0.197 0.066 0.361 0.164 0.492 0.23s0.295 0.131 0.46 0.197c0.033 0.066 0.066 0.066 0.131 0v-0.066c-0.033-0.066-0.033-0.098-0.066-0.098 0 0-0.033-0.033-0.066-0.099-0.525-0.525-1.050-1.083-1.575-1.641s-1.083-1.083-1.641-1.542c-0.427-0.46-0.853-0.853-1.28-1.214s-0.886-0.722-1.411-1.083c-0.131-0.131-0.295-0.263-0.525-0.427-0.197-0.098-0.427-0.23-0.624-0.361s-0.394-0.263-0.624-0.394c-0.263-0.23-0.525-0.492-0.821-0.788-0.263-0.295-0.558-0.558-0.886-0.821s-0.46-0.591-0.46-0.952c-0.033-0.131-0.033-0.263-0.033-0.361 0-0.131 0.033-0.23 0.033-0.361 0-0.197 0.066-0.394 0.197-0.591 0.066-0.164 0.197-0.263 0.361-0.361 0.066-0.066 0.131-0.098 0.23-0.131s0.164-0.066 0.23-0.131c0.197-0.098 0.394-0.131 0.558-0.131 0.164 0.033 0.328 0.066 0.525 0.164 0.066 0.066 0.164 0.098 0.263 0.164s0.197 0.131 0.295 0.164c0.066 0.066 0.131 0.098 0.197 0.131s0.131 0.098 0.197 0.131c0.197 0.164 0.361 0.295 0.525 0.427s0.328 0.263 0.46 0.394c0.197 0.164 0.427 0.295 0.755 0.427 0.263 0.066 0.492 0.197 0.656 0.328s0.328 0.263 0.492 0.394c0.295 0.295 0.624 0.591 0.952 0.919 0.361 0.328 0.689 0.591 1.050 0.821 0.295 0.23 0.525 0.394 0.722 0.525 0.197 0.098 0.46 0.23 0.853 0.361 0.066 0.066 0.164 0.066 0.263 0 0-0.033 0.033-0.033 0.066-0.033l-0.033 0.066c0-0.033-0-0.066 0.033-0.066-0.066 0-0.131 0-0.164-0.033-0.23-0.23-0.492-0.46-0.82-0.722-0.295-0.23-0.558-0.492-0.82-0.755-0.263-0.427-0.525-0.722-0.755-0.919-0.164-0.131-0.328-0.263-0.492-0.394s-0.328-0.263-0.46-0.394c-0.066-0.066-0.164-0.131-0.23-0.23s-0.131-0.197-0.23-0.295c-0.066-0.131-0.164-0.263-0.23-0.361-0.066-0.131-0.164-0.23-0.23-0.361-0.131-0.23-0.23-0.492-0.295-0.755s-0.066-0.558-0.033-0.886c0-0.263 0.098-0.459 0.328-0.591 0.066-0.066 0.164-0.098 0.263-0.164s0.164-0.098 0.263-0.164c0.263-0.066 0.492-0.066 0.722 0.033 0.23 0.066 0.459 0.164 0.623 0.328 0.066 0.066 0.164 0.164 0.23 0.23s0.164 0.197 0.23 0.328c0.197 0.263 0.394 0.492 0.624 0.722s0.492 0.394 0.821 0.558c0.197 0.131 0.361 0.263 0.492 0.361 0.131 0.131 0.295 0.263 0.427 0.46 0.098 0.098 0.164 0.197 0.197 0.263 0.328 0.427 0.689 0.788 1.050 1.116s0.623 0.591 1.017 0.952c0-0.033 0-0.033 0.033-0.033s0.033 0 0.033 0.033h-0.066z"></path>
</svg>
