<!-- Generated by IcoMoon.io -->
<svg version="1.1" xmlns="http://www.w3.org/2000/svg" width="54" height="32" viewBox="0 0 54 32">
<title>hand_x2_inverted1</title>
<path d="M18.451 14.509c0.062-0.032 0.094-0.063 0.156-0.126 0.125-0.095 0.25-0.189 0.375-0.252s0.25-0.158 0.406-0.252c0.343-0.189 0.687-0.441 0.968-0.694 0.312-0.252 0.593-0.567 0.874-0.914 0.187-0.126 0.406-0.221 0.593-0.315s0.406-0.189 0.593-0.284c0.187-0.158 0.375-0.252 0.5-0.315 0.187-0.063 0.343-0.189 0.5-0.347s0.375-0.347 0.624-0.536c0.187-0.189 0.375-0.347 0.562-0.41s0.375-0.126 0.562-0.189c0.062-0.032 0.094-0.032 0.125-0.032s0.062 0.032 0.125 0.032c0.156 0.063 0.312 0.158 0.531 0.284 0.187 0.126 0.312 0.315 0.375 0.536 0.062 0.315 0.094 0.599 0.031 0.914-0.031 0.126-0.094 0.252-0.156 0.347-0.094 0.126-0.281 0.221-0.531 0.347-0.063 0.063-0.125 0.189-0.25 0.441-0.125 0.189-0.25 0.378-0.406 0.504s-0.281 0.284-0.406 0.41c-0.718 0.441-1.405 0.946-1.998 1.513-0.624 0.567-1.218 1.103-1.842 1.545-0.094 0.063-0.187 0.221-0.281 0.41s-0.187 0.315-0.281 0.378c-0.187 0.126-0.375 0.252-0.531 0.41-0.156 0.126-0.312 0.284-0.468 0.41-0.125 0.126-0.25 0.252-0.343 0.41-0.125 0.158-0.218 0.378-0.343 0.631-0.312 0.441-0.656 0.82-0.999 1.135-0.187 0.189-0.375 0.378-0.531 0.599s-0.312 0.473-0.468 0.757c-0.218 0.315-0.406 0.599-0.531 0.914-0.031 0.031-0.031 0.063-0.031 0.095s0 0.095-0.031 0.126c-0.031 0.158-0.063 0.315-0.094 0.504s-0.063 0.347-0.094 0.504c-0.063 0.284-0.063 0.536 0 0.788 0 0.284 0.125 0.473 0.343 0.599 0.062 0.063 0.156 0.095 0.25 0.158s0.187 0.095 0.281 0.158c0.156 0.063 0.312 0.158 0.468 0.221s0.343 0.126 0.531 0.221c0.187 0.095 0.406 0.158 0.687 0.158h0.437c0.156 0 0.312 0.032 0.468 0.063 0.156 0.063 0.343 0.095 0.499 0.158 0.187 0.063 0.375 0.158 0.531 0.252s0.312 0.221 0.437 0.347c0.312 0.378 0.562 0.851 0.812 1.387 0.063 0.158 0.125 0.315 0.125 0.504 0.062 0.189 0.031 0.378-0.156 0.536-0.063 0.063-0.094 0.095-0.094 0.126s-0.031 0.063-0.063 0.126c-0.094 0.126-0.187 0.221-0.312 0.252-0.094 0.031-0.219 0.063-0.343 0.063-0.125-0.032-0.25-0.063-0.406-0.063s-0.281-0.063-0.406-0.158c-0.187-0.031-0.375-0.063-0.562-0.158h-0.25c-0.094 0.032-0.187 0.063-0.312 0.063-0.094 0.032-0.219 0.032-0.343 0.032-0.406 0-0.812-0.032-1.186-0.126-0.187-0.032-0.343-0.063-0.499-0.126s-0.312-0.095-0.5-0.126c-0.156-0.032-0.312-0.032-0.437-0.032s-0.312 0.032-0.5 0.032c-0.094 0-0.187 0-0.25-0.032s-0.156-0.032-0.25-0.032c-0.187-0.063-0.406-0.095-0.593-0.126s-0.375-0.095-0.531-0.126c-0.094-0.031-0.218-0.063-0.312-0.063-0.125-0.031-0.219-0.063-0.312-0.063-0.406-0.063-0.812-0.158-1.249-0.221s-0.843-0.126-1.249-0.158c-0.187-0.031-0.343-0.063-0.499-0.063-0.156-0.031-0.312-0.063-0.437-0.063-0.375-0.126-0.78-0.158-1.186-0.126-0.156 0-0.281 0.032-0.406 0.095s-0.218 0.126-0.343 0.221c-0.219 0.315-0.437 0.504-0.593 0.63-0.187 0.221-0.406 0.441-0.593 0.694-0.187 0.221-0.375 0.441-0.593 0.694-0.031 0.063-0.062 0.126-0.156 0.189-0.031 0.032-0.062 0.032-0.156 0.032-0.125-0.063-0.219-0.126-0.312-0.252-0.749-0.599-1.436-1.387-2.092-2.301-0.562-0.946-1.061-2.017-1.498-3.215-0.062-0.252-0.094-0.441-0.125-0.536 0-0.095 0-0.189 0.031-0.221 0.062-0.063 0.094-0.158 0.156-0.252s0.156-0.189 0.281-0.315c0.187-0.284 0.406-0.567 0.593-0.82 0.187-0.284 0.406-0.536 0.624-0.757 0.125-0.095 0.25-0.221 0.343-0.315 0.094-0.126 0.219-0.252 0.343-0.41 0.094-0.189 0.219-0.315 0.343-0.441s0.281-0.252 0.406-0.378c0.219-0.189 0.437-0.41 0.656-0.631s0.375-0.504 0.499-0.851c0.187-0.315 0.343-0.631 0.531-0.883s0.375-0.536 0.562-0.788c0.156-0.41 0.281-0.725 0.437-0.977 0.125-0.252 0.281-0.473 0.406-0.662 0.312-0.41 0.656-0.851 0.968-1.356s0.687-0.914 1.061-1.261c0.062-0.095 0.125-0.221 0.219-0.347s0.187-0.284 0.25-0.441c0.156-0.126 0.281-0.252 0.406-0.347s0.219-0.221 0.343-0.347c0.031-0.063 0.094-0.158 0.187-0.252 0.125-0.189 0.25-0.378 0.406-0.567 0.125-0.189 0.281-0.41 0.468-0.599 0.125-0.126 0.25-0.252 0.375-0.41 0.125-0.126 0.25-0.284 0.375-0.41 0.25-0.315 0.468-0.662 0.687-1.040 0.187-0.378 0.375-0.725 0.562-1.072 0.187-0.504 0.437-1.072 0.78-1.671 0.062-0.126 0.094-0.252 0.156-0.378s0.125-0.252 0.156-0.378c0.094-0.41 0.312-0.82 0.593-1.261 0.062-0.126 0.156-0.252 0.219-0.347s0.094-0.221 0.125-0.347c0.063-0.189 0.125-0.347 0.187-0.536s0.187-0.347 0.312-0.504c0.062-0.126 0.187-0.252 0.375-0.347 0.094-0.189 0.219-0.189 0.375 0 0.031 0 0.031 0 0.031 0.032 0.094 0.063 0.187 0.126 0.25 0.221 0.281 0.284 0.375 0.567 0.312 0.914-0.094 0.567-0.281 1.103-0.531 1.639-0.062 0.126-0.094 0.252-0.156 0.347-0.062 0.126-0.125 0.252-0.156 0.41-0.094 0.189-0.187 0.347-0.25 0.536s-0.125 0.378-0.156 0.599v0.032c0 0.032 0.031 0.032 0.062 0.032 0.031 0.063 0.063 0.063 0.125 0 0.437-0.536 0.812-1.040 1.124-1.513 0.062-0.126 0.156-0.252 0.219-0.347s0.125-0.221 0.187-0.347c0.094-0.126 0.187-0.252 0.281-0.347 0.094-0.126 0.187-0.221 0.281-0.347 0.062-0.063 0.094-0.095 0.094-0.126s0.031-0.063 0.094-0.126c0.156-0.158 0.312-0.315 0.468-0.473s0.312-0.347 0.437-0.504c0.062-0.126 0.156-0.252 0.25-0.347 0.094-0.126 0.187-0.221 0.312-0.347 0.062-0.063 0.094-0.158 0.156-0.221s0.156-0.126 0.25-0.189c0.094 0 0.156 0 0.187 0.032 0.062 0.095 0.25 0.189 0.499 0.315 0.125 0.063 0.281 0.284 0.281 0.473 0.063 0.347 0.031 0.694-0.062 1.072-0.094 0.347-0.219 0.694-0.406 1.009-0.062 0.126-0.156 0.252-0.218 0.347s-0.125 0.189-0.187 0.315c-0.094 0.158-0.187 0.315-0.281 0.473s-0.187 0.315-0.281 0.441c-0.156 0.189-0.281 0.378-0.437 0.567s-0.281 0.378-0.406 0.567c-0.187 0.252-0.375 0.473-0.562 0.694-0.187 0.189-0.343 0.441-0.5 0.694-0.031 0-0.062 0.032-0.094 0.032 0.062 0 0.062 0.032 0.031 0.063-0.031 0-0.031 0-0.031-0.032v-0.032c0.125 0.063 0.25 0.063 0.343-0.032 0.125-0.063 0.25-0.158 0.406-0.284 0.125-0.126 0.281-0.221 0.437-0.315 0.312-0.252 0.562-0.536 0.812-0.82 0.25-0.315 0.468-0.599 0.656-0.914 0.031-0.063 0.062-0.095 0.062-0.158 0.031-0.063 0.062-0.126 0.125-0.189 0.125-0.126 0.25-0.221 0.375-0.315s0.25-0.158 0.406-0.221c0.25-0.126 0.468-0.284 0.624-0.473s0.312-0.378 0.468-0.599c0.062-0.063 0.094-0.095 0.125-0.158s0.094-0.126 0.125-0.158c0.094-0.063 0.187-0.158 0.25-0.221s0.187-0.158 0.312-0.252c0.125-0.063 0.219-0.095 0.281-0.126s0.125-0.063 0.219-0.063c0.062-0.063 0.156-0.063 0.25 0s0.156 0.095 0.187 0.126c0.312 0.252 0.468 0.599 0.5 1.072 0.031 0.189 0.031 0.378 0.031 0.536s0 0.315 0 0.536c-0.031 0.252-0.094 0.504-0.218 0.725-0.187 0.347-0.406 0.662-0.624 0.977s-0.499 0.567-0.843 0.851c-0.25 0.189-0.468 0.41-0.687 0.631-0.125 0.126-0.25 0.284-0.406 0.504-0.343 0.347-0.718 0.725-1.093 1.103s-0.687 0.82-0.968 1.324c-0.375 0.41-0.749 0.883-1.093 1.387-0.375 0.536-0.687 1.009-0.999 1.45-0.031 0.031-0.031 0.031-0.031 0.063s-0.031 0.031-0.063 0.095c-0.031 0.063 0 0.126 0.063 0.252l-0.063-0.032v-0.063h-0.031zM34.778 8.488c0-0.063 0-0.095 0.031-0.126s0.031-0.063 0.031-0.126c0.031-0.032 0.031-0.063 0-0.158-0.063-0.063-0.094-0.095-0.125-0.158s-0.062-0.126-0.125-0.158c-0.406-0.347-0.749-0.788-1.061-1.293l-0.437-0.694c-0.094-0.158-0.218-0.315-0.343-0.441-0.125-0.158-0.25-0.315-0.406-0.504-0.062-0.063-0.156-0.158-0.25-0.252s-0.156-0.189-0.25-0.284c-0.343-0.694-0.5-1.387-0.437-2.112 0-0.063 0-0.095 0.031-0.126 0-0.032 0.031-0.095 0.031-0.126 0-0.158 0.062-0.252 0.187-0.347 0.062-0.095 0.156-0.189 0.25-0.252s0.219-0.158 0.343-0.252c0.063-0.032 0.187 0 0.343 0.032 0.218 0.063 0.375 0.158 0.406 0.252l0.219 0.347c0.094 0.158 0.187 0.284 0.25 0.41 0.125 0.189 0.281 0.41 0.437 0.599s0.343 0.378 0.531 0.536c0.437 0.378 0.78 0.788 0.999 1.261 0.187 0.315 0.406 0.63 0.624 0.946s0.468 0.599 0.749 0.883c0.031 0.032 0.062 0.032 0.156 0l0.031-0.063c-0.031-0.063-0.031-0.095-0.031-0.126s-0.031-0.095-0.062-0.126c-0.063-0.158-0.094-0.315-0.156-0.441-0.062-0.158-0.125-0.284-0.218-0.41-0.063-0.095-0.094-0.189-0.125-0.284s-0.062-0.189-0.125-0.315c-0.218-0.473-0.406-0.977-0.562-1.513-0.031-0.063-0.031-0.095-0.031-0.158s0-0.095 0-0.158c-0.063-0.441 0.062-0.757 0.343-0.946 0.062-0.063 0.094-0.095 0.125-0.095s0.094-0.032 0.125-0.095c0.125-0.189 0.25-0.189 0.406 0 0.062 0.063 0.094 0.095 0.156 0.095s0.094 0.032 0.156 0.095c0.062 0.095 0.125 0.189 0.187 0.252s0.094 0.158 0.156 0.252c0.062 0.315 0.187 0.567 0.312 0.757 0.031 0.063 0.062 0.158 0.062 0.221s0.062 0.158 0.125 0.252c0.062 0.063 0.094 0.095 0.125 0.126s0.063 0.095 0.125 0.126c0.156 0.221 0.312 0.536 0.5 0.914 0.062 0.189 0.125 0.41 0.218 0.599s0.187 0.378 0.281 0.599c0.125 0.284 0.25 0.536 0.375 0.788s0.25 0.473 0.375 0.694c0.187 0.41 0.406 0.788 0.624 1.166s0.437 0.725 0.687 1.072c0.063 0.095 0.156 0.189 0.25 0.252s0.218 0.158 0.343 0.252c0.219 0.252 0.437 0.504 0.624 0.788s0.375 0.504 0.593 0.694c0.156 0.252 0.406 0.536 0.78 0.883 0.062 0.063 0.094 0.158 0.156 0.252s0.094 0.189 0.156 0.252c0.437 0.41 0.812 0.82 1.155 1.261s0.687 0.946 1.061 1.576c0.281 0.315 0.531 0.725 0.749 1.166s0.437 0.82 0.687 1.166c0.094 0.158 0.219 0.315 0.312 0.504 0.125 0.189 0.219 0.41 0.312 0.694 0.281 0.441 0.624 0.82 1.061 1.135 0.125 0.095 0.25 0.189 0.343 0.315 0.125 0.095 0.219 0.221 0.343 0.378 0.187 0.221 0.375 0.441 0.531 0.631s0.343 0.378 0.531 0.536c0.187 0.189 0.343 0.41 0.5 0.599s0.312 0.41 0.499 0.631c0.062 0.126 0.156 0.252 0.25 0.378s0.187 0.252 0.25 0.347c0.062 0.063 0.094 0.158 0.031 0.252-0.218 0.757-0.499 1.482-0.812 2.144-0.312 0.694-0.718 1.356-1.186 2.018-0.281 0.347-0.562 0.694-0.874 1.009s-0.656 0.599-0.999 0.883c-0.063 0.095-0.156 0.189-0.25 0.221-0.094 0-0.187 0-0.25-0.031-0.094-0.158-0.156-0.252-0.187-0.315-0.187-0.221-0.406-0.441-0.593-0.63s-0.375-0.41-0.593-0.599c-0.094-0.189-0.281-0.378-0.531-0.567-0.187-0.252-0.468-0.378-0.78-0.378-0.5-0.063-0.874 0-1.155 0.126-0.187 0.032-0.375 0.063-0.562 0.063-0.187 0.032-0.343 0.063-0.531 0.063-0.468 0.032-0.937 0.095-1.405 0.158s-0.905 0.158-1.374 0.252c-0.187 0.063-0.406 0.126-0.593 0.189s-0.437 0.095-0.718 0.158c-0.187 0.032-0.406 0.032-0.593 0.063-0.187 0-0.406 0.032-0.593 0.032-0.031 0-0.062 0-0.094-0.032s-0.094 0-0.125 0.032c-0.125 0-0.25 0-0.406 0s-0.281 0.032-0.406 0.063c-0.125 0.032-0.219 0.063-0.312 0.063-0.094 0.032-0.187 0.063-0.281 0.063-0.624 0.158-1.218 0.158-1.811 0-0.187-0.031-0.375 0-0.562 0.032-0.219 0.095-0.406 0.189-0.593 0.221-0.156 0.063-0.343 0.095-0.5 0.126-0.156 0-0.281 0-0.375-0.032-0.25-0.063-0.437-0.126-0.531-0.252-0.062-0.032-0.094-0.063-0.125-0.063-0.031-0.032-0.062-0.063-0.125-0.126-0.094-0.126-0.156-0.252-0.156-0.41 0-0.126 0-0.284 0.031-0.441 0-0.063 0-0.095 0.031-0.095 0 0 0.031-0.031 0.031-0.063 0.187-0.315 0.375-0.599 0.593-0.851s0.437-0.473 0.687-0.694c0.218-0.284 0.531-0.473 0.937-0.567 0.437-0.126 0.812-0.189 1.155-0.189h0.406c0.062 0 0.094 0 0.156-0.032s0.094-0.031 0.156-0.031c0.25-0.126 0.499-0.252 0.749-0.347s0.499-0.221 0.78-0.347c0.125-0.063 0.187-0.126 0.219-0.158 0.219-0.095 0.343-0.284 0.343-0.567 0.063-0.063 0.063-0.126 0.063-0.252 0-0.252-0.031-0.536-0.094-0.82s-0.125-0.599-0.219-0.883c-0.062-0.126-0.094-0.252-0.156-0.347-0.063-0.126-0.125-0.221-0.156-0.315-0.094-0.126-0.187-0.284-0.281-0.441s-0.187-0.347-0.312-0.504c-0.187-0.315-0.375-0.504-0.562-0.631-0.25-0.189-0.468-0.41-0.656-0.63s-0.375-0.473-0.531-0.82c-0.281-0.315-0.499-0.536-0.687-0.725s-0.343-0.347-0.5-0.504c-0.156-0.158-0.343-0.347-0.5-0.536-0.187-0.189-0.406-0.441-0.687-0.725-0.718-0.473-1.436-1.009-2.154-1.608s-1.342-1.135-1.936-1.639c-0.125-0.095-0.312-0.221-0.531-0.347s-0.375-0.315-0.5-0.504c-0.062-0.095-0.094-0.189-0.156-0.252s-0.094-0.126-0.156-0.158c-0.187-0.284-0.281-0.567-0.219-0.883 0-0.126 0-0.252 0-0.347s0-0.221 0.031-0.347c0.062-0.315 0.218-0.567 0.437-0.694 0.187-0.063 0.343-0.063 0.406-0.032 0.406 0.063 0.687 0.126 0.905 0.221 0.187 0.095 0.375 0.252 0.5 0.441 0.094 0.158 0.187 0.252 0.218 0.252 0.094 0.158 0.219 0.284 0.375 0.41 0.531 0.189 0.968 0.378 1.342 0.599s0.749 0.504 1.186 0.788c0.437 0.441 0.78 0.757 1.093 0.977 0.125 0.095 0.25 0.189 0.406 0.252s0.281 0.158 0.406 0.221c0.094 0.063 0.187 0.095 0.312 0.158 0.094 0.063 0.218 0.126 0.343 0.158h0.125c0.031-0.032 0.031-0.063 0.031-0.126-0.062-0.063-0.094-0.095-0.156-0.158s-0.094-0.095-0.156-0.158c-0.312-0.347-0.624-0.757-0.937-1.261-0.312-0.473-0.593-0.883-0.874-1.261-0.437-0.536-0.843-1.009-1.218-1.419s-0.749-0.82-1.093-1.229c-0.063-0.095-0.156-0.189-0.281-0.252s-0.281-0.158-0.437-0.221c-0.125-0.126-0.25-0.252-0.343-0.347s-0.187-0.189-0.25-0.315c-0.219-0.284-0.468-0.567-0.687-0.851-0.25-0.284-0.562-0.599-0.968-0.977-0.125-0.221-0.187-0.473-0.218-0.725-0.063-0.378-0.063-0.757 0-1.135 0.031-0.063 0.031-0.095 0.031-0.126s0-0.063 0.031-0.126c0.062-0.158 0.125-0.284 0.219-0.378s0.281-0.221 0.531-0.347c0.031-0.032 0.031-0.032 0.062-0.032s0.031 0 0.063-0.032c0.187-0.189 0.406-0.221 0.593-0.032 0.125 0.095 0.25 0.221 0.343 0.347 0.062 0.095 0.094 0.189 0.156 0.252s0.125 0.158 0.156 0.221c0.312 0.252 0.624 0.473 0.874 0.694s0.5 0.41 0.718 0.536c0.219 0.126 0.406 0.284 0.531 0.504 0.187 0.221 0.406 0.441 0.593 0.63s0.375 0.41 0.593 0.599c0.219 0.315 0.468 0.567 0.718 0.82s0.562 0.504 0.905 0.725l0.125 0.41z"></path>
</svg>
