<!-- Generated by IcoMoon.io -->
<svg version="1.1" xmlns="http://www.w3.org/2000/svg" width="34" height="32" viewBox="0 0 34 32">
<title>hasturs_envoys</title>
<path d="M22.866 12.103c-0.12-0.026-0.113-0.139-0.154-0.23-0.093-0.203-0.305-0.356-0.43-0.542-0.202-0.305-0.41-0.615-0.574-0.939-0.052-0.101-0.096-0.231-0.132-0.34-0.042-0.123-0.055-0.153-0.161-0.249-0.236-0.213-0.548-0.385-0.88-0.399-0.136-0.004-0.289 0.082-0.421 0.12-0.234 0.071-0.468 0.158-0.707 0.222-0.805 0.216-1.66 0.184-2.439 0.496-0.404 0.161-0.824 0.284-1.217 0.47-0.227 0.106-0.468 0.149-0.682 0.274-0.271 0.159-0.544 0.316-0.817 0.471-0.319 0.184-0.603 0.489-0.859 0.75-0.182 0.185-0.384 0.335-0.591 0.489-0.157 0.118-0.301 0.246-0.48 0.335-0.135 0.067-0.28 0.098-0.403 0.19-0.154 0.117-0.29 0.243-0.452 0.353-0.077 0.052-0.139 0.096-0.197 0.169-0.076 0.094-0.139 0.166-0.228 0.243-0.222 0.196-0.459 0.385-0.701 0.557-0.119 0.083-0.239 0.166-0.356 0.252-0.090 0.065-0.339 0.191-0.396 0.298-0.068 0.132-0.052 0.322-0.073 0.467-0.016 0.113-0.062 0.167-0.061 0.29 0.003 0.117 0.003 0.234 0 0.352-0.003 0.153 0.006 0.209 0.175 0.163 0.079-0.022 0.169-0.074 0.233-0.12 0.132-0.127 0.278-0.239 0.439-0.331 0.248-0.13 0.495-0.265 0.738-0.403 0.977-0.551 2.009-1.024 3.050-1.439 0.278-0.112 0.569-0.167 0.849-0.272 0.147-0.055 0.278-0.118 0.425-0.163 0.339-0.102 0.68-0.274 0.999-0.433 0.858-0.43 1.759-0.763 2.707-0.925 0.116-0.022 0.19-0.074 0.305-0.105 0.161-0.043 0.341-0.061 0.507-0.073 0.212-0.017 0.434-0.046 0.642-0.099 0.369-0.095 0.729-0.073 1.11-0.076 0.19 0 0.348 0.046 0.532 0.061 0.142 0.013 0.262 0.061 0.7 0.115z"></path>
<path d="M19.763 9.117c-0.505 0-1.025 0.064-1.525 0.147-0.637 0.107-1.294 0.12-1.928 0.264-0.488 0.111-0.953 0.23-1.402 0.467-0.231 0.121-0.479 0.148-0.713 0.249-0.116 0.051-0.236 0.109-0.348 0.16-0.211 0.096-0.375 0.343-0.571 0.486-0.099 0.073-0.179 0.169-0.277 0.243-0.127 0.1-0.287 0.176-0.424 0.268-0.17 0.114-0.335 0.2-0.479 0.347-0.194 0.199-0.397 0.379-0.63 0.525-0.086 0.053-0.161 0.121-0.238 0.197-0.052 0.050-0.122 0.213-0.181 0.215-0.030-0.103 0.046-0.23 0.052-0.34 0.009-0.172-0.003-0.347-0.003-0.517 0-0.367 0-0.735 0-1.102 0-0.519 0.003-1.037 0-1.554 0-0.136-0.006-0.248 0.042-0.373 0.046-0.121 0.105-0.225 0.191-0.323 0.111-0.124 0.138-0.108 0.298-0.115 0.194-0.009 0.382-0.058 0.579-0.064 0.222-0.009 0.445 0.003 0.667 0.003h2.667c0.341 0 0.688-0.030 1.018 0.044 0.196 0.043 0.397 0.068 0.588 0.129 0.102 0.034 0.205 0.088 0.308 0.111 0.111 0.026 0.196 0.083 0.302 0.114 0.102 0.030 0.151 0.022 0.248 0.068 0.077 0.034 0.153 0.089 0.238 0.106 0.089 0.017 0.173 0.004 0.264 0.026 0.050 0.009 0.080 0.039 0.141 0.046 0.055 0.004 0.127-0.017 0.181-0.004 0.073 0.017 0.081 0.088 0.934 0.179z"></path>
<path d="M20.056 8.765c-0.147 0.030-0.39-0.133-0.516-0.184-0.378-0.154-0.737-0.331-1.125-0.458-0.397-0.129-0.809-0.271-1.223-0.341-0.403-0.068-0.822-0.083-1.228-0.136-0.769-0.102-1.486-0.234-2.267-0.227-0.228 0.003-0.443-0.034-0.668-0.055-0.059-0.004-0.144-0.026-0.2 0-0.077 0.034-0.116 0.157-0.2 0.164 0.003-0.154 0.138-0.387 0.222-0.51 0.133-0.193 0.335-0.329 0.539-0.431 0.224-0.111 0.433-0.269 0.649-0.4 0.16-0.096 0.298-0.215 0.455-0.308 0.117-0.068 0.148-0.098 0.287-0.101 0.181-0.003 0.387-0.030 0.563 0.004 0.412 0.079 0.827 0.202 1.194 0.409 0.419 0.239 0.876 0.422 1.279 0.695 0.182 0.124 0.36 0.268 0.539 0.399 0.15 0.108 0.31 0.193 0.455 0.308 0.215 0.169 0.474 0.319 0.659 0.522 0.102 0.114 0.108 0.259 0.181 0.381 0.052 0.088 0.147 0.147 0.403 0.268z"></path>
<path d="M14.727 15.089c0.073 0.013 0.132 0.050 0.205 0.061 0.070 0.009 0.142-0.013 0.212-0.009 0.187 0.017 0.382 0.091 0.569 0.121 0.342 0.059 0.673 0.141 1.018 0.191 0.603 0.086 1.223 0.151 1.817 0.281 0.486 0.106 1.009 0.055 1.507 0.055 0.572 0 1.122 0.059 1.697 0.059 0.357 0 0.762-0.051 1.116-0.002 0.098 0.013 0.089-0.017 0.119 0.086 0.022 0.070-0.003 0.179-0.003 0.253 0.001 0.17 0.014 0.289 0.067 0.449 0.065 0.199 0.047 0.384 0.052 0.591 0 0.052 0.021 0.157-0.011 0.206-0.052 0.083-0.185 0.055-0.27 0.068-0.433 0.065-0.87 0.046-1.307 0.046h-3.918c-0.284 0-0.568-0.001-0.851 0.002-0.402 0.004-0.787-0.080-1.184-0.118-0.727-0.070-1.405-0.24-2.072-0.53-0.305-0.133-0.602-0.191-0.934-0.231-0.261-0.030-0.46-0.073-0.685-0.191-0.187-0.099-0.39-0.121-0.599-0.173 0.031-0.093 0.231-0.193 0.313-0.24 0.385-0.224 0.796-0.402 1.172-0.642 0.328-0.21 0.603-0.364 0.99-0.439 0.052-0.009 0.119 0.002 0.166-0.013 0.050-0.013 0.056-0.046 0.108-0.062 0.079-0.026 0.182-0.046 0.267-0.058 0.107-0.017 0.219 0.004 0.322 0.030 0.202 0.049 0.287 0.166 0.117 0.206z"></path>
<path d="M21.401 13.386c0.067 0.2-0.019 0.351-0.153 0.495-0.076 0.082-0.187 0.136-0.271 0.219-0.070 0.067-0.127 0.166-0.205 0.221-0.164 0.114-0.333 0.252-0.532 0.317-0.236 0.079-0.477 0.147-0.714 0.221-0.382 0.118-0.782 0.082-1.163-0.117-0.147-0.076-0.292-0.17-0.437-0.256-0.15-0.089-0.27-0.224-0.422-0.304 0.082 0.077 0.136 0.022 0.224 0.004 0.090-0.017 0.148 0.013 0.24-0.003 0.080-0.017 0.211-0.047 0.282-0.086 0.040-0.022 0.061-0.064 0.096-0.086 0.055-0.039 0.114-0.034 0.167-0.064 0.119-0.071 0.255-0.228 0.357-0.322 0.139-0.126 0.276-0.222 0.464-0.28 0.176-0.055 0.36-0.15 0.545-0.12 0.179 0.030 0.359 0.088 0.535 0.141 0.202 0.061 0.36 0.070 0.569 0.098 0.145 0.022 0.372 0.111 0.418-0.079z"></path>
<path d="M17.538 18.368c-0.001 0-0.295 0.022-0.369 0.003-0.031-0.009-0.073-0.044-0.099-0.049-0.091-0.017-0.131 0-0.219 0.017-0.151 0.026-0.305 0.030-0.451 0.080-0.114 0.039-0.2 0.106-0.319 0.141-0.643 0.185-1.307 0.301-1.934 0.541-0.539 0.206-1.1 0.415-1.654 0.544-0.221 0.050-0.455 0.030-0.667 0.105-0.205 0.071-0.341 0.142-0.554 0.141-0.046 0-0.169 0.026-0.203-0.002-0.052-0.039-0.033-0.109-0.031-0.173 0.003-0.185 0-0.372 0-0.557 0-0.176-0.022-0.366-0.003-0.539 0.022-0.197 0.108-0.36 0.165-0.544 0.044-0.15 0.113-0.307 0.197-0.434 0.052-0.077 0.13-0.24 0.222-0.271 0.25-0.080 0.602 0.104 0.828 0.181 0.41 0.138 0.824 0.23 1.251 0.299 0.156 0.026 0.308 0.061 0.458 0.095 0.132 0.030 0.264-0.001 0.397 0.009 0.144 0.013 0.265 0.058 0.412 0.061 0.169 0.003 0.378 0.034 0.542 0.073 0.339 0.085 0.67 0.141 1.011 0.209 0.211 0.043 0.454 0.013 1.019 0.071z"></path>
<path d="M18.299 18.661c0.13-0.017 0.265 0.079 0.381 0.124 0.132 0.052 0.261 0.117 0.393 0.169 0.385 0.151 0.738 0.292 1.085 0.526 0.136 0.092 0.249 0.147 0.396 0.203 0.187 0.074 0.375 0.104 0.568 0.164 0.178 0.058 0.249 0.19 0.397 0.292 0.178 0.121 0.344 0.301 0.587 0.28 0.329-0.030 0.139-0.655 0.173-0.88 0.033-0.216 0.11-0.47 0.185-0.674 0.039-0.104 0.101-0.184 0.156-0.277 0.036-0.061 0.132-0.204 0.126-0.269-0.076-0.030-0.169-0.017-0.249-0.039-0.126-0.030-0.256-0.052-0.384-0.076-0.156-0.030-0.319-0.013-0.479-0.013h-2.055c-0.249 0-0.541-0.049-0.781-0.003-0.158 0.030-0.256 0.196-0.387 0.287-0.096 0.067-0.19 0.112-0.111 0.184z"></path>
<path d="M20.993 20.359c-0.158-0.017-0.267-0.112-0.41-0.163-0.142-0.051-0.261-0.105-0.409-0.142-0.148-0.039-0.27-0.126-0.41-0.176-0.12-0.043-0.228-0.11-0.351-0.148-0.249-0.079-0.49-0.147-0.729-0.247-0.274-0.117-0.548-0.164-0.823-0.24-0.304-0.085-0.637-0.053-0.959-0.053-0.237 0-0.473 0.003-0.71 0-0.121-0.002-0.179 0.046-0.292 0.059-0.056 0.009-0.117-0.013-0.173-0.004-0.088 0.013-0.165 0.056-0.253 0.065-0.073 0.009-0.135-0.009-0.207 0.009-0.036 0.009-0.088 0.047-0.136 0.059-0.155 0.039-0.289 0.058-0.431 0.132-0.071 0.039-0.256 0.077-0.292 0.15 0.196-0.004 0.393-0.009 0.588-0.004 0.255 0.003 0.467 0.067 0.714 0.107 0.298 0.047 0.577 0.123 0.868 0.196 0.207 0.052 0.413 0.022 0.618 0.065 0.098 0.022 0.212 0.071 0.311 0.102 0.289 0.093 0.596 0.136 0.88 0.236 0.264 0.091 0.553 0.117 0.829 0.161 0.105 0.017 0.207 0.001 0.311 0.017 0.154 0.026 0.308 0.074 0.462 0.099 0.39 0.059 0.701-0.104 1.054-0.173 0.003-0.017 0.006-0.034-0.049-0.107z"></path>
<path d="M16.118 21.964c0.024 0.013 0.047 0.026 0.071 0.034 0.108 0.052 0.238 0.065 0.339 0.129 0.114 0.074 0.209 0.169 0.329 0.228 0.221 0.111 0.425 0.222 0.668 0.301 0.237 0.077 0.467 0.222 0.744 0.219 0.307-0.003 0.615-0.009 0.922-0.002 0.16 0.004 0.316 0.068 0.468 0.117 0.172 0.058 0.322 0.166 0.496 0.237-0.132-0.017-0.274 0.12-0.402 0.158-0.396 0.12-0.827 0.105-1.234 0.178-0.442 0.080-0.95 0.013-1.399 0.013-0.499 0.003-0.981-0.096-1.477-0.16-0.677-0.088-1.298-0.248-1.909-0.544-0.16-0.077-0.322-0.094-0.48-0.185-0.211-0.121-0.443-0.176-0.652-0.293-0.25-0.141-0.505-0.272-0.776-0.37-0.127-0.047-0.253-0.092-0.375-0.145-0.172-0.074-0.239-0.091-0.237-0.292 0.001-0.187 0.047-0.35 0.059-0.528 0.011-0.157 0.018-0.271 0.101-0.412 0.077-0.133 0.161-0.167 0.304-0.173 0.293-0.009 0.6 0.039 0.889 0.001 0.15-0.017 0.23-0.108 0.359-0.163 0.157-0.065 0.286-0.073 0.572-0.249 0.148 0 0.376-0.043 0.514 0.009 0.067 0.026 0.122 0.091 0.185 0.123 0.095 0.051 0.203 0.061 0.298 0.115 0.147 0.085 0.284 0.234 0.408 0.348 0.287 0.265 0.446 0.619 0.71 0.9 0.073 0.077 0.156 0.144 0.25 0.19 0.16 0.076 0.338 0.080 0.51 0.106 0.237 0.039 0.453 0.12 0.652 0.257 0.123 0.083 0.222 0.163 0.37 0.197 0.147 0.034 0.299 0.030 0.448 0.052 0.425 0.062 0.846 0.022 1.274 0.043 0.167 0.009 0.332 0.071 0.495 0.113 0.149 0.039 0.293 0.047 0.445 0.070 0.218 0.034 0.458 0.197 0.689 0.101 0.133-0.058 0.29-0.221 0.363-0.341 0.092-0.145 0.139-0.393 0.176-0.556 0.058-0.257 0.156-0.596 0.301-0.828-0.071 0.086-0.29 0.030-0.385 0.034-0.153 0.009-0.319 0.039-0.471 0.059-0.056 0.004-0.095 0.034-0.145 0.047-0.081 0.022-0.154 0.001-0.236 0.009-0.147 0.017-0.301 0.059-0.443 0.091-0.219 0.048-0.433 0.017-0.652 0.086-0.348 0.112-0.726 0.141-1.086 0.193-0.566 0.080-1.113 0.102-1.683 0.102z"></path>
<path d="M18.756 6.089c0.104 0.126 0.194 0.166 0.333 0.247 0.341 0.196 0.616 0.485 0.87 0.778 0.264 0.305 0.585 0.536 0.839 0.851 0.366 0.452 0.83 0.859 1.154 1.34 0.181 0.265 0.299 0.574 0.498 0.825 0.104 0.132 0.185 0.267 0.27 0.413 0.105 0.184 0.218 0.361 0.313 0.55 0.124 0.25 0.182 0.519 0.293 0.774 0.092 0.212 0.111 0.468 0.227 0.667 0.080 0.136 0.161 0.245 0.222 0.391 0.050 0.127 0.090 0.262 0.138 0.391 0.215 0.588 0.44 1.18 0.63 1.777 0.086 0.267 0.132 0.55 0.185 0.825 0.062 0.317 0.157 0.622 0.191 0.944 0.039 0.372 0.167 0.719 0.231 1.086 0.021 0.118 0.016 0.249 0.043 0.367 0.039 0.173 0.124 0.326 0.139 0.505 0.042 0.51 0.16 1.022 0.289 1.516 0.062 0.242 0.064 0.483 0.079 0.732 0.016 0.308 0.050 0.547 0.16 0.843 0.304 0.818 0.71 1.596 1.021 2.408 0.042 0.107 0.065 0.218 0.104 0.325 0.028 0.080 0.085 0.184 0.105 0.255 0.058 0.199 0.11 0.408 0.172 0.609 0.101 0.329 0.304 0.642 0.489 0.934 0.176 0.277 0.396 0.55 0.702 0.698 0.099 0.046 0.222 0.065 0.329 0.092 0.164 0.043 0.302 0.13 0.465 0.166 0.157 0.034 0.326 0.079 0.473 0.089 0.381 0.026 0.158-0.295 0.052-0.479-0.215-0.366-0.618-0.562-0.883-0.879-0.117-0.139-0.185-0.315-0.286-0.465-0.15-0.222-0.264-0.455-0.378-0.697-0.227-0.474-0.504-0.928-0.722-1.408-0.296-0.654-0.381-1.387-0.603-2.066-0.092-0.277-0.207-0.536-0.286-0.818-0.087-0.315-0.197-0.628-0.292-0.943-0.073-0.243-0.181-0.464-0.234-0.711-0.055-0.252-0.117-0.501-0.191-0.748-0.133-0.454-0.169-0.925-0.286-1.379-0.127-0.495-0.219-0.987-0.322-1.486-0.056-0.277-0.197-0.547-0.299-0.809-0.116-0.292-0.224-0.593-0.35-0.879-0.105-0.243-0.258-0.461-0.366-0.704-0.105-0.234-0.169-0.485-0.273-0.717-0.155-0.348-0.292-0.705-0.477-1.037-0.108-0.196-0.203-0.394-0.316-0.587-0.144-0.243-0.191-0.544-0.293-0.805-0.188-0.473-0.43-0.923-0.649-1.381-0.219-0.455-0.396-0.938-0.655-1.372-0.209-0.348-0.496-0.64-0.754-0.953-0.132-0.16-0.296-0.271-0.45-0.408-0.197-0.173-0.357-0.375-0.584-0.511-0.193-0.115-0.375-0.2-0.544-0.351-0.151-0.136-0.262-0.15-0.453-0.215-0.172-0.059-0.32-0.176-0.488-0.236-0.079-0.030-0.13-0.017-0.218-0.030-0.13-0.017-0.25-0.079-0.376-0.108-0.442-0.103-0.91-0.147-1.36-0.188-0.208-0.017-0.416-0.009-0.622-0.034-0.117-0.013-0.225-0.061-0.341-0.076-0.151-0.017-0.329 0.003-0.482 0.004-0.602 0.003-1.183 0.272-1.734 0.504-0.182 0.076-0.345 0.2-0.526 0.28-0.147 0.065-0.265 0.102-0.385 0.213-0.203 0.187-0.45 0.343-0.606 0.576-0.209 0.314-0.525 0.532-0.742 0.834-0.135 0.187-0.278 0.356-0.376 0.565-0.119 0.258-0.329 0.502-0.416 0.766-0.133 0.402-0.221 0.821-0.373 1.22-0.181 0.47-0.252 0.972-0.442 1.439-0.328 0.805-0.43 1.709-0.702 2.688-0.188 0.68-0.412 1.369-0.539 2.063-0.121 0.661-0.199 1.334-0.347 1.99-0.058 0.256-0.141 0.51-0.193 0.766-0.055 0.275-0.071 0.569-0.107 0.849-0.067 0.524-0.153 1.046-0.224 1.569-0.048 0.352-0.188 0.686-0.25 1.037-0.055 0.305-0.11 0.62-0.184 0.922-0.073 0.296-0.206 0.575-0.25 0.879-0.053 0.369-0.046 0.28-0.216 0.779-0.243 0.714-0.716 1.289-1.083 1.937-0.13 0.227-0.313 0.408-0.452 0.63-0.11 0.175-0.222 0.361-0.313 0.548-0.099 0.21-0.188 0.454-0.199 0.686-0.009 0.213 0.068 0.259 0.261 0.246 0.138-0.009 0.234 0.001 0.351-0.074 0.156-0.099 0.329-0.259 0.451-0.396 0.258-0.289 0.416-0.664 0.625-0.987 0.299-0.458 1.070-0.902 1.257-1.418 0.092-0.255 0.237-0.496 0.32-0.753 0.031-0.098 0.030-0.198 0.044-0.299 0.024-0.163 0.086-0.325 0.123-0.485 0.159-0.704 0.194-1.424 0.403-2.116 0.080-0.267 0.074-0.53 0.136-0.799 0.055-0.231-0.064-0.437-0.042-0.677 0.043-0.458 0.127-0.913 0.215-1.365 0.092-0.471 0.184-0.917 0.222-1.397 0.015-0.187 0.025-0.375 0.071-0.556 0.025-0.099-0.16-0.209-0.145-0.314 0.015-0.111 0.228-0.228 0.236-0.341 0.012-0.16 0.046-0.32 0.061-0.48 0.040-0.467 0.098-0.971 0.221-1.424 0.139-0.507 0.191-1.051 0.409-1.535 0.083-0.182 0.135-0.349 0.2-0.537 0.061-0.173 0.164-0.315 0.193-0.499 0.025-0.166-0.176-0.307-0.105-0.459 0.098-0.206 0.388-0.422 0.494-0.62 0.080-0.151 0.117-0.315 0.194-0.47 0.065-0.132 0.108-0.287 0.161-0.425 0.136-0.357 0.015-0.773 0.064-1.151 0.040-0.315 0.166-0.571 0.246-0.871 0.050-0.182 0.089-0.27 0.187-0.431 0.123-0.205 0.274-0.283 0.453-0.434 0.139-0.115 0.261-0.252 0.403-0.363 0.124-0.096 0.259-0.163 0.378-0.264 0.533-0.461 1.255-0.741 1.94-0.913 0.199-0.049 0.388-0.030 0.579-0.089 0.317-0.095 0.688-0.068 1.015-0.091 0.196-0.013 0.368-0.030 0.559 0.009 0.175 0.034 0.359 0.095 0.529 0.148 0.23 0.070 0.461 0.188 0.685 0.275 0.282 0.112 0.4 0.413 1.085 0.688z"></path>
</svg>
