<!-- Generated by IcoMoon.io -->
<svg version="1.1" xmlns="http://www.w3.org/2000/svg" width="30" height="32" viewBox="0 0 30 32">
<title>hasturs_gift</title>
<path d="M5.573 5.582c0.122 0.031 0.224 0.118 0.317 0.195 0.165 0.143 0.393 0.198 0.588 0.291 0.424 0.207 0.863 0.406 1.299 0.567 0.619 0.229 1.27 0.377 1.871 0.635 0.211 0.093 0.427 0.199 0.647 0.288 0.271 0.106 0.563 0.178 0.839 0.293 0.44 0.173 0.85 0.431 1.29 0.622 0.424 0.186 0.775 0.495 1.16 0.736 0.22 0.135 0.453 0.233 0.68 0.352 0.212 0.105 0.411 0.233 0.619 0.347 0.533 0.296 1.108 0.504 1.688 0.699 0.466 0.16 0.923 0.355 1.396 0.495 0.352 0.101 0.732 0.173 1.063 0.347 0.242 0.127 0.436 0.322 0.655 0.469 0.279 0.186 0.584 0.348 0.885 0.492 0.415 0.198 0.863 0.3 1.295 0.44 0.343 0.114 0.673 0.284 1.021 0.36 0.076 0.018 0.267-0.003 0.325 0.034 0.035 0.025 0.064 0.123 0.106 0.162 0.051 0.034 0.098 0.063 0.153 0.093 0.127 0.076 0.232 0.156 0.376 0.19 0.077 0.012 0.127 0.038 0.195 0.068 0.098 0.042 0.195 0.051 0.291 0.084 0.115 0.042 0.195 0.127 0.306 0.178 0.122 0.051 0.262 0.076 0.389 0.127 0.224 0.080 0.457 0.157 0.677 0.25 0.118 0.051 0.237 0.16 0.284-0.003 0.051-0.17 0.131-0.322 0.182-0.491 0.058-0.208 0.072-0.424 0.102-0.635 0.006-0.084 0.006-0.216 0.067-0.284 0.034-0.034 0.076-0.034 0.106-0.076 0.054-0.068-0.012-0.123-0.073-0.17-0.118-0.101-0.287-0.118-0.415-0.203-0.139-0.098-0.291-0.162-0.448-0.229-0.198-0.089-0.398-0.148-0.609-0.22-0.199-0.064-0.406-0.012-0.597-0.106-0.114-0.060-0.207-0.148-0.326-0.198-0.236-0.115-0.478-0.174-0.698-0.317-0.644-0.424-1.38-0.719-2.082-1.037-0.309-0.144-0.606-0.335-0.931-0.437-0.306-0.097-0.614-0.191-0.919-0.291-0.555-0.178-1.13-0.255-1.685-0.415-0.334-0.097-0.66-0.246-0.982-0.381-0.33-0.143-0.664-0.304-0.982-0.478-0.306-0.165-0.597-0.355-0.885-0.542-0.245-0.157-0.486-0.292-0.736-0.432-0.588-0.338-1.16-0.677-1.787-0.935-0.542-0.229-1.113-0.398-1.663-0.609-0.508-0.195-1.008-0.36-1.532-0.491-0.393-0.097-0.8-0.166-1.159-0.356-0.199-0.101-0.386-0.211-0.593-0.291-0.255-0.093-0.508-0.199-0.762-0.279-0.072-0.021-0.14-0.034-0.208-0.072-0.097-0.055-0.186-0.081-0.291-0.098-0.208-0.047-0.428-0.093-0.635-0.115-0.262-0.031-0.508-0.118-0.754-0.203-0.038-0.012-0.131-0.068-0.185-0.068-0.042 0.003-0.086 0.047-0.128 0.064-0.047 0.012-0.105 0.025-0.16 0.031-0.051 0-0.122-0.021-0.178-0.003-0.060 0.012-0.068 0.039-0.14 0.039-0.114-0.003-0.204 0.006-0.296 0.072-0.089 0.064-0.064 0.22-0.119 0.304-0.060 0.102-0.072 0.255-0.080 0.381-0.031 0.229 0.207 0.431 0.377 0.529 0.291 0.173 0.626 0.162 0.956 0.216 0.229 0.042 0.495 0.012 0.732 0.009 0.034 0 0.072 0.003 0.098 0.012z"></path>
<path d="M18.832 4.626c-0.105 0.102-0.22 0.199-0.338 0.3-0.555 0.483-1.121 0.944-1.705 1.389-0.279 0.22-0.584 0.398-0.885 0.584-0.415 0.258-0.782 0.571-1.185 0.833-0.245 0.162-0.482 0.33-0.727 0.479-0.263 0.152-0.542 0.283-0.813 0.431-0.102 0.047-0.208 0.084-0.306 0.135-0.076 0.042-0.135 0.115-0.194 0.169-0.153 0.135-0.297 0.267-0.448 0.402-0.153 0.144-0.313 0.288-0.475 0.432-0.051 0.042-0.080 0.076-0.131 0.097-0.072 0.034-0.131 0.072-0.199 0.114-0.232 0.131-0.436 0.326-0.642 0.495-0.322 0.271-0.707 0.479-1.067 0.699-0.334 0.203-0.651 0.431-0.948 0.693-0.186 0.17-0.411 0.279-0.613 0.428-0.191 0.135-0.347 0.304-0.529 0.436-0.14 0.098-0.297 0.191-0.445 0.267-0.165 0.084-0.334 0.102-0.465 0.233-0.093 0.093-0.186 0.182-0.288 0.267-0.080 0.077-0.16 0.14-0.249 0.195-0.084 0.060-0.162 0.106-0.17 0.211-0.015 0.174 0.106 0.233 0.221 0.33 0.152 0.123 0.224 0.33 0.38 0.448 0.118 0.097 0.229 0.114 0.317 0.242 0.047 0.054 0.118 0.101 0.115 0.178 0.058 0.031 0.076 0.003 0.127-0.021 0.047-0.021 0.084-0.021 0.14-0.047 0.131-0.042 0.178-0.198 0.245-0.304 0.080-0.127 0.216-0.207 0.33-0.292 0.313-0.232 0.626-0.465 0.948-0.693 0.389-0.279 0.74-0.61 1.151-0.85 0.364-0.212 0.728-0.402 1.050-0.681 0.157-0.135 0.326-0.242 0.499-0.351 0.237-0.157 0.457-0.39 0.724-0.504 0.076-0.025 0.165-0.047 0.242-0.072 0.24-0.076 0.444-0.233 0.664-0.342 0.419-0.211 0.8-0.479 1.197-0.724 0.978-0.593 1.956-1.206 2.87-1.896 0.173-0.131 0.342-0.271 0.524-0.389 0.284-0.199 0.533-0.428 0.796-0.648 0.329-0.271 0.622-0.568 0.922-0.863 0.199-0.199 0.381-0.424 0.597-0.601 0.16-0.14 0.36-0.253 0.537-0.376 0.216-0.148 0.448-0.275 0.677-0.402 0.080-0.051 0.169-0.106 0.253-0.153 0.060-0.025 0.144-0.025 0.115-0.118 0.047-0.018 0.063-0.055 0.097-0.081 0.038-0.031 0.072-0.034 0.109-0.072 0.102-0.106 0.042-0.148-0.054-0.237-0.090-0.084-0.179-0.191-0.259-0.284-0.093-0.096-0.211-0.169-0.296-0.271-0.191-0.216-0.348-0.469-0.517-0.711-0.034-0.051-0.072-0.123-0.14-0.127-0.080-0.009-0.131 0.068-0.165 0.118 0.018-0.003 0.003-0.034 0.009-0.034-0.144 0.084-0.212 0.258-0.355 0.351-0.077 0.055-0.166 0.089-0.242 0.14-0.093 0.068-0.165 0.153-0.258 0.22-0.025 0.025-0.102 0.051-0.115 0.081-0.009 0.034-0.012 0.076-0.015 0.114-0.012 0.047-0.035 0.084-0.064 0.118-0.084 0.119-0.229 0.199-0.33 0.31-0.072 0.072-0.143 0.14-0.224 0.207z"></path>
<path d="M4.334 5.053v-0.025 0.3c0 0.144-0.003 0.288 0 0.428 0.003 0.186 0.038 0.364 0.034 0.546-0.003 0.884-0.084 1.765-0.012 2.645 0.025 0.242 0.047 0.491 0.068 0.737 0.031 0.293 0.012 0.584 0.015 0.88 0 0.292 0.060 0.581 0.089 0.868 0.034 0.373 0.021 0.745 0.060 1.114 0.060 0.567 0.063 1.126 0.063 1.692 0 0.208 0.012 0.415 0 0.617-0.012 0.237-0.084 0.466-0.105 0.707-0.018 0.224-0.072 0.444-0.106 0.668-0.051 0.291-0.025 0.571-0.034 0.863-0.003 0.262-0.038 0.52-0.038 0.782 0 0.271 0.009 0.538 0 0.809-0.025 0.478-0.038 0.948-0.089 1.421-0.025 0.242-0.018 0.474-0.018 0.711 0.003 0.279-0.012 0.568 0.003 0.85 0.018 0.314 0.076 0.627 0.106 0.936 0.006 0.097 0.012 0.194 0.038 0.287 0.021 0.060 0.060 0.111 0.067 0.174 0.003 0.050-0.012 0.096-0.003 0.139 0.003 0.051 0.035 0.081 0.039 0.128 0.015 0.127 0.015 0.291-0.009 0.411-0.038 0.185-0.031 0.372-0.031 0.562 0 0.153-0.021 0.211 0.115 0.279 0.072 0.034 0.131 0.060 0.195 0.089 0.058 0.031 0.152 0.064 0.189 0.122-0.012-0.229-0.038-0.462-0.038-0.69 0.003-0.313 0.031-0.622-0.055-0.931-0.080-0.322-0.135-0.664-0.16-0.999-0.012-0.194-0.060-0.373 0.009-0.562 0.063-0.178 0.034-0.377 0.034-0.568 0-0.169-0.034-0.334-0.042-0.504-0.003-0.189 0-0.385 0-0.575 0.009-0.431 0.031-0.859 0.076-1.29 0.051-0.483 0.051-0.961 0.144-1.447 0.038-0.216 0.021-0.437 0.055-0.661 0.042-0.291 0.047-0.558 0.047-0.85 0-0.529 0.021-1.057 0.003-1.587-0.012-0.376-0.077-0.757-0.072-1.137 0.003-0.542-0.063-1.079-0.072-1.621-0.003-0.242-0.021-0.479-0.060-0.719-0.034-0.233-0.034-0.462-0.067-0.694-0.025-0.211-0.025-0.432-0.012-0.648 0.003-0.165 0.051-0.313 0.080-0.473 0.031-0.144 0.025-0.284 0.051-0.424 0.038-0.207 0.038-0.402 0.042-0.609 0.009-0.368 0.131-0.728 0.174-1.092 0.018-0.135 0.012-0.271 0.003-0.402 0-0.115-0.072-0.17-0.101-0.271-0.025-0.106-0.003-0.271-0.003-0.381 0-0.034 0.012-0.080 0.003-0.109-0.009-0.025-0.035-0.035-0.039-0.055-0.006-0.068 0.012-0.111-0.031-0.169-0.031-0.043-0.072-0.064-0.114-0.086-0.051-0.031-0.072-0.034-0.132-0.054-0.038-0.009-0.072-0.051-0.114-0.064-0.051-0.012-0.122-0.034-0.178-0.034-0.060-0.003-0.186-0.055-0.072-0.034z"></path>
<path d="M7.609 14.165c0.025 0.156-0.034 0.342-0.034 0.495 0 0.147 0.015 0.291 0.031 0.444 0.025 0.267-0.003 0.537 0.003 0.808 0.018 0.351 0.076 0.694 0.102 1.045 0.031 0.457-0.009 0.918 0.034 1.379 0.047 0.428-0.031 0.868-0.031 1.299 0.006 0.255-0.012 0.517 0.012 0.767 0.012 0.198 0.072 0.389 0.093 0.587 0.051 0.525 0.025 1.054 0.084 1.583 0.025 0.224 0.064 0.437 0.064 0.657 0.003 0.195 0 0.389 0 0.58 0 0.398-0.003 0.792 0.025 1.19 0.012 0.262 0.039 0.524 0.042 0.787 0.003 0.233 0.077 0.453 0.072 0.686-0.003 0.162 0.047 0.309 0.042 0.47-0.012 0.169-0.060 0.334-0.042 0.511 0.012 0.089 0.055 0.182 0.076 0.263 0.009 0.038 0.025 0.050 0.034 0.092 0.003 0.035-0.006 0.073 0 0.106 0.009 0.097 0.086 0.115 0.174 0.148 0.076 0.021 0.287 0.131 0.355 0.105 0.101-0.038-0.042-0.232-0.068-0.321-0.084-0.246-0.123-0.499-0.152-0.758-0.009-0.101-0.031-0.189-0.064-0.287-0.042-0.119-0.034-0.246-0.064-0.373-0.042-0.229-0.076-0.436-0.080-0.673 0-0.207 0.038-0.398 0.077-0.606 0.031-0.14 0.038-0.279 0.025-0.427-0.025-0.237-0.038-0.47-0.055-0.707-0.025-0.398-0.009-0.8-0.009-1.197 0-0.253 0.021-0.52-0.003-0.775-0.021-0.148-0.080-0.279-0.131-0.419-0.063-0.156-0.076-0.317-0.042-0.482 0.051-0.216 0.035-0.436 0.089-0.655 0.025-0.093 0.003-0.182 0.018-0.284 0.003-0.055 0.034-0.106 0.038-0.169 0.009-0.064 0-0.135 0-0.204 0-0.304-0.003-0.617 0-0.922 0-0.148-0.021-0.322-0.047-0.47-0.034-0.182-0.051-0.351-0.063-0.529-0.003-0.178-0.051-0.348-0.072-0.521-0.015-0.229-0.072-0.457-0.114-0.686-0.031-0.178-0.064-0.367-0.060-0.545v-0.268c0-0.147-0.034-0.283-0.038-0.427-0.018-0.386-0.003-0.753 0.072-1.13 0.021-0.089 0.068-0.242 0.021-0.335-0.089-0.16-0.373 0.025-0.444 0.081 0.015 0.025 0.021 0.054 0.031 0.084z"></path>
<path d="M21.172 4.414c-0.072 0.198-0.063 0.372-0.072 0.584-0.012 0.3-0.076 0.597-0.097 0.893-0.015 0.304-0.015 0.606-0.047 0.906-0.038 0.36-0.097 0.711-0.101 1.079-0.012 0.631 0 1.265 0 1.896 0 0.335-0.012 0.668 0 1.008 0.006 0.355 0.045 0.711 0.063 1.066 0.021 0.61 0.042 1.21 0.153 1.816 0.055 0.304 0.055 0.622 0.089 0.931 0.034 0.301 0.012 0.597-0.038 0.897-0.106 0.593-0.128 1.207-0.195 1.803-0.031 0.221-0.031 0.432-0.064 0.652-0.003 0.031-0.012 0.047-0.006 0.076 0.003 0.038 0.021 0.055 0.025 0.081 0.064 0.287-0.051 0.651-0.135 0.926-0.157 0.546-0.207 1.092-0.253 1.659-0.021 0.271-0.021 0.542-0.025 0.821-0.003 0.275-0.051 0.542-0.034 0.821 0.018 0.398 0.102 0.779 0.102 1.185 0 0.245 0.012 0.499-0.025 0.744-0.025 0.122-0.025 0.25-0.038 0.368-0.021 0.131-0.042 0.258-0.042 0.389 0.003 0.355 0.009 0.699 0.042 1.050 0.031 0.284 0.064 0.559 0.064 0.842 0 0.081-0.042 0.411 0.021 0.453 0.042 0.031 0.131-0.015 0.166-0.038 0.084-0.042 0.139-0.105 0.236-0.105 0.035-0.123-0.012-0.25-0.031-0.364-0.009-0.102 0.012-0.199 0-0.297-0.009-0.089-0.038-0.152-0.038-0.237 0.003-0.058 0-0.122 0-0.182 0.003-0.105-0.047-0.207-0.038-0.316 0.003-0.081 0.034-0.153 0.038-0.225 0.009-0.114-0.025-0.224-0.031-0.329-0.012-0.131-0.003-0.262-0.003-0.393v-0.737c0-0.191-0.009-0.386 0-0.58 0.003-0.178 0.072-0.343 0.072-0.53 0.009-0.38-0.042-0.757-0.038-1.142 0.003-0.173 0.067-0.309 0.105-0.479 0.055-0.229 0.132-0.444 0.208-0.673 0.156-0.436 0.114-0.931 0.114-1.388 0-0.482-0.042-0.957-0.067-1.434-0.018-0.322 0-0.644-0.009-0.961 0-0.575 0.313-1.092 0.389-1.659 0.047-0.304 0.068-0.635 0.035-0.939-0.018-0.162-0.031-0.322-0.051-0.483-0.025-0.147-0.031-0.296-0.055-0.44-0.021-0.123-0.072-0.233-0.097-0.351-0.034-0.144-0.084-0.284-0.118-0.432-0.025-0.109-0.060-0.229-0.093-0.338-0.047-0.127-0.025-0.242-0.047-0.381-0.047-0.317-0.031-0.647-0.031-0.973 0-0.284-0.021-0.568 0.031-0.842 0.031-0.17-0.003-0.343 0.003-0.512 0.009-0.064 0.021-0.127 0.031-0.191 0.021-0.114 0-0.237 0.018-0.355 0.031-0.165 0.051-0.335 0.072-0.499 0.031-0.211 0.012-0.419 0.034-0.63 0.039-0.398 0.106-0.8 0.166-1.197 0.025-0.182 0.003-0.381 0.003-0.563v-0.537c0-0.115 0.006-0.233 0-0.343-0.012-0.135-0.068-0.253-0.073-0.389-0.003-0.195-0.038-0.377-0.031-0.571 0.025 0.097-0.157 0.047-0.208 0.063-0.003 0.009-0.003 0.018-0.047 0.031z"></path>
<path d="M24.55 13.292c0 0.292 0.006 0.58-0.035 0.868-0.034 0.253-0.114 0.499-0.135 0.757-0.031 0.284-0.047 0.567-0.047 0.855 0.003 0.47-0.059 0.927-0.067 1.392-0.003 0.25-0.038 0.495-0.038 0.75v1.421c0 0.237 0.021 0.482-0.003 0.719-0.034 0.293-0.031 0.575-0.031 0.868 0 0.233-0.035 0.453-0.039 0.686 0 0.198-0.003 0.398-0.012 0.597-0.009 0.402-0.021 0.804-0.021 1.214 0 0.229 0.038 0.444 0.038 0.673-0.003 0.102-0.003 0.203 0 0.309 0 0.051-0.015 0.131 0.003 0.178 0.119-0.072 0.157-0.204 0.208-0.326 0.025-0.051 0.058-0.102 0.067-0.16 0.018-0.064 0.031-0.077 0.064-0.135 0.047-0.073 0.034-0.162 0.047-0.237 0.006-0.060 0.034-0.106 0.038-0.173 0.009-0.224 0-0.453 0-0.677v-1.427c0-0.165-0.012-0.334 0-0.503 0.003-0.102 0.047-0.178 0.072-0.275 0.038-0.123-0.021-0.246-0.031-0.373-0.018-0.165 0.012-0.33 0.031-0.491 0.025-0.157 0.077-0.304 0.106-0.457 0.031-0.178 0.031-0.36 0.038-0.542 0.025-0.373 0.025-0.753 0.084-1.126 0.047-0.3 0.115-0.593 0.127-0.901 0.003-0.288-0.003-0.584-0.003-0.872 0-0.258 0.021-0.529-0.015-0.782-0.031-0.195-0.051-0.361-0.051-0.555 0-0.144 0.012-0.301-0.021-0.437-0.025-0.105-0.054-0.169-0.054-0.283v-0.288c0-0.034 0.003-0.067-0.003-0.102-0.003-0.031-0.035-0.047-0.038-0.089-0.132-0.031-0.255-0.067-0.275-0.076z"></path>
<path d="M14.782 9.847c-0.012 0-0.021 0-0.031 0.009-0.031 0.064-0.012 0.182-0.012 0.246 0 0.233 0 0.465 0.003 0.698 0 0.33-0.021 0.656-0.034 0.986-0.012 0.364 0.015 0.732-0.009 1.105-0.034 0.444-0.034 0.897-0.034 1.35 0.003 0.288 0.050 0.575 0.067 0.863 0.025 0.398 0.018 0.795 0.042 1.193 0.047 0.601 0.072 1.203 0.072 1.811 0 0.293 0.012 0.58 0 0.872-0.018 0.351-0.086 0.694-0.098 1.041-0.018 0.258-0.009 0.512-0.009 0.766-0.003 0.207-0.009 0.419 0.018 0.626 0.063 0.512 0.015 1.050 0.015 1.562 0 0.207 0.012 0.414-0.003 0.622-0.009 0.182-0.034 0.351-0.034 0.529 0.003 0.178 0 0.347 0.003 0.524 0 0.17-0.034 0.335-0.051 0.508-0.051 0.386-0.16 0.796-0.123 1.19 0.025 0.24 0.101 0.486 0.101 0.728-0.003 0.491 0 0.973 0 1.459 0 0.106-0.012 0.22 0 0.322 0.012 0.106 0.086 0.106 0.179 0.135 0.047 0.009 0.089 0.009 0.143 0 0.047-0.015 0.093-0.021 0.14-0.031 0.153-0.031 0.012-0.229-0.009-0.322-0.089-0.368-0.031-0.741-0.063-1.117-0.018-0.131-0.051-0.255-0.064-0.386-0.021-0.22 0.003-0.444-0.009-0.66-0.015-0.258-0.076-0.495-0.067-0.757v-0.348c0-0.279 0.012-0.542 0.067-0.82 0.039-0.179 0.102-0.36 0.144-0.538 0.042-0.189 0.055-0.367 0.077-0.562 0.031-0.262 0.089-0.529 0.105-0.795 0.003-0.135-0.015-0.271 0-0.411 0.012-0.17 0.042-0.313 0.025-0.488-0.025-0.389-0.077-0.778-0.106-1.168-0.009-0.173-0.064-0.338-0.067-0.511-0.003-0.162 0-0.322 0-0.483 0-0.211-0.009-0.427 0-0.639 0.003-0.178 0.038-0.342 0.038-0.511-0.003-0.343 0.034-0.673 0.089-1.016 0.031-0.182 0.127-0.364 0.127-0.549 0-0.047-0.003-0.090-0.003-0.132 0.003-0.096 0.042-0.185 0.060-0.283 0.058-0.267 0.047-0.533 0.047-0.804 0-0.373 0-0.741-0.068-1.109-0.060-0.313-0.148-0.622-0.233-0.931-0.047-0.162-0.038-0.326-0.076-0.491-0.025-0.144-0.080-0.284-0.084-0.432-0.003-0.148-0.034-0.287-0.034-0.431-0.003-0.144 0-0.284 0-0.424 0-0.203-0.025-0.419 0.012-0.613 0.025-0.106 0.055-0.208 0.060-0.313 0-0.097-0.003-0.195-0.003-0.292v-0.242c0.003-0.101 0.034-0.19 0.038-0.287 0.003-0.102 0.031-0.237-0.042-0.309-0.076-0.077-0.182-0.047-0.313 0.059z"></path>
</svg>
