<!-- Generated by IcoMoon.io -->
<svg version="1.1" xmlns="http://www.w3.org/2000/svg" width="33" height="32" viewBox="0 0 33 32">
<title>havana</title>
<path d="M0.658 26.967c-0.018-0.018-0.033-2.739-0.033-6.045v-6.012h3.673c3.277 0 3.681 0.008 3.751 0.078s0.076 0.668 0.065 6.033l-0.013 5.955-3.705 0.013c-2.038 0.007-3.72-0.002-3.738-0.021zM3.383 26.685c0.039-0.048 0.052-0.405 0.043-1.197l-0.013-1.129-0.69-0.014c-0.606-0.012-0.698-0.003-0.753 0.071-0.086 0.118-0.089 2.191-0.003 2.277 0.089 0.089 1.341 0.082 1.416-0.009zM6.832 26.694c0.042-0.042 0.059-0.36 0.059-1.119 0-0.917-0.011-1.072-0.082-1.15s-0.164-0.090-0.71-0.090c-0.492 0-0.641 0.016-0.688 0.073-0.044 0.053-0.059 0.371-0.055 1.166 0.003 0.601 0.018 1.113 0.032 1.136 0.043 0.069 1.372 0.054 1.442-0.016zM1.357 26.64c0.035-0.042 0.058-0.591 0.068-1.595l0.014-1.531 0.136-0.205c0.197-0.298 0.462-0.417 0.981-0.444 0.506-0.026 0.692 0.026 0.98 0.272 0.382 0.327 0.393 0.383 0.394 2.015 0.001 1.463 0.021 1.629 0.182 1.495 0.052-0.043 0.065-0.37 0.065-1.555 0-1.675-0.007-1.716-0.336-2.057-0.245-0.254-0.476-0.366-0.89-0.43-0.789-0.122-1.575 0.26-1.791 0.872-0.103 0.292-0.097 3.113 0.007 3.178 0.098 0.062 0.126 0.059 0.189-0.016zM4.868 25.161c0-1.555 0.018-1.693 0.262-1.989 0.211-0.256 0.394-0.317 0.942-0.317 0.546 0 0.679 0.041 0.934 0.287 0.335 0.322 0.329 0.288 0.329 1.954 0 1.414 0.006 1.509 0.091 1.555 0.063 0.034 0.109 0.031 0.148-0.008 0.080-0.080 0.079-2.887-0.001-3.156-0.073-0.245-0.387-0.604-0.651-0.745-0.169-0.090-0.275-0.107-0.623-0.101-0.514 0.010-1.050 0.129-1.289 0.287-0.109 0.072-0.229 0.22-0.308 0.378l-0.129 0.26v1.518c0 1.391 0.007 1.522 0.086 1.566 0.197 0.11 0.21 0.015 0.21-1.487zM1.389 19.771c0-1.402 0.006-1.492 0.104-1.702 0.057-0.122 0.146-0.259 0.197-0.304 0.232-0.202 1.182-0.352 1.521-0.24 0.248 0.082 0.517 0.326 0.628 0.568 0.080 0.176 0.090 0.353 0.092 1.629 0.001 0.787 0.022 1.463 0.047 1.502 0.037 0.059 0.058 0.060 0.123 0.006 0.068-0.056 0.078-0.255 0.078-1.516 0-1.564-0.006-1.606-0.278-1.999-0.221-0.321-0.431-0.426-0.961-0.485-0.686-0.076-1.096 0.036-1.47 0.403-0.339 0.333-0.348 0.386-0.349 2.069-0.001 0.83 0.015 1.525 0.034 1.544s0.080 0.028 0.136 0.021c0.099-0.014 0.101-0.042 0.101-1.495zM4.838 21.198c0.016-0.043 0.030-0.732 0.030-1.531 0-1.614 0.008-1.662 0.314-1.931 0.254-0.223 0.648-0.328 1.061-0.285 0.542 0.058 0.811 0.213 0.998 0.578 0.086 0.168 0.094 0.306 0.095 1.653 0 0.849 0.021 1.501 0.048 1.544 0.037 0.057 0.067 0.062 0.135 0.019 0.081-0.050 0.089-0.179 0.101-1.552l0.013-1.498-0.127-0.259c-0.227-0.465-0.62-0.688-1.302-0.741-0.569-0.044-0.889 0.064-1.244 0.421-0.185 0.185-0.297 0.345-0.333 0.476-0.034 0.123-0.054 0.743-0.055 1.638-0 1.321 0.007 1.445 0.086 1.491 0.119 0.069 0.145 0.066 0.18-0.025zM3.344 20.491c0.086-0.106 0.094-0.187 0.082-0.814l-0.014-0.696-0.684-0.014c-0.462-0.009-0.706 0.005-0.753 0.043-0.081 0.067-0.099 1.241-0.022 1.444 0.061 0.16 0.126 0.174 0.76 0.164 0.5-0.008 0.541-0.016 0.631-0.127zM6.889 20.563c0.043-0.052 0.050-0.255 0.024-0.767-0.044-0.861-0.025-0.84-0.745-0.84-0.546 0-0.733 0.044-0.777 0.182-0.016 0.049-0.033 0.37-0.040 0.713-0.008 0.462 0.006 0.644 0.055 0.703 0.092 0.111 1.391 0.119 1.483 0.009zM7.727 16.123c0.038-0.046 0.041-0.080 0.007-0.101-0.028-0.017-1.543-0.031-3.366-0.031-3.268 0-3.569 0.014-3.349 0.153 0.044 0.028 1.388 0.047 3.362 0.047 2.771 0.001 3.297-0.010 3.346-0.069zM1.975 15.595c0.044-0.222 0.037-0.402-0.020-0.487-0.078-0.117-0.196 0.076-0.196 0.32 0 0.311 0.162 0.437 0.216 0.167zM3.427 15.42c0.010-0.171-0.008-0.266-0.058-0.307-0.058-0.048-0.077-0.043-0.097 0.029-0.077 0.273-0.086 0.419-0.029 0.487 0.103 0.124 0.169 0.050 0.184-0.209zM4.966 15.452c0.026-0.046 0.008-0.139-0.048-0.245l-0.089-0.171-0.054 0.196c-0.129 0.464-0.016 0.595 0.191 0.221zM5.389 15.546c0.065-0.126 0.069-0.178 0.020-0.296-0.033-0.079-0.075-0.143-0.094-0.143-0.061 0-0.137 0.43-0.091 0.514 0.060 0.107 0.074 0.101 0.165-0.075zM5.858 15.512c0.078-0.259 0.047-0.43-0.077-0.43-0.079 0-0.102 0.038-0.114 0.193-0.018 0.226 0.023 0.424 0.089 0.424 0.026 0 0.072-0.084 0.103-0.187zM6.34 15.478c0.009-0.104 0.001-0.246-0.016-0.317-0.031-0.124-0.035-0.125-0.102-0.032-0.072 0.098-0.097 0.477-0.036 0.539 0.073 0.073 0.139-0.009 0.155-0.189zM6.834 15.574c0.073-0.161 0.070-0.264-0.014-0.416-0.067-0.122-0.067-0.122-0.125 0.093-0.093 0.346 0.014 0.596 0.139 0.323zM1.535 15.47c0.035-0.138-0.051-0.412-0.128-0.412-0.086 0-0.103 0.152-0.042 0.371 0.066 0.237 0.118 0.249 0.17 0.041zM2.473 15.505c0.068-0.132 0.067-0.159-0.011-0.296-0.1-0.176-0.142-0.188-0.184-0.055-0.029 0.091 0.052 0.496 0.099 0.496 0.012 0 0.055-0.065 0.096-0.145zM2.918 15.379c0.034-0.23-0.040-0.394-0.123-0.271-0.088 0.131-0.105 0.272-0.050 0.417 0.067 0.176 0.134 0.12 0.173-0.146zM3.876 15.38c0.042-0.156 0.039-0.211-0.016-0.265-0.059-0.059-0.080-0.047-0.146 0.081-0.062 0.12-0.067 0.181-0.023 0.306 0.063 0.182 0.111 0.151 0.185-0.122zM7.283 15.42c0.048-0.191 0.046-0.242-0.014-0.302-0.063-0.063-0.082-0.054-0.149 0.076-0.062 0.121-0.066 0.176-0.018 0.302 0.032 0.085 0.073 0.154 0.091 0.154s0.059-0.103 0.091-0.23zM8.384 16.008l0.012-10.992 4.041-0.013c2.945-0.009 4.059 0.003 4.108 0.043 0.056 0.047 0.067 1.835 0.067 11.005v10.949h-8.241zM10.837 26.723c0.015-0.015 0.027-0.675 0.027-1.466 0-1.601 0.001-1.598-0.342-1.899-0.317-0.279-0.727-0.306-1.124-0.074-0.317 0.185-0.371 0.331-0.407 1.113-0.018 0.387-0.026 1.070-0.017 1.518l0.016 0.814 0.247 0.033c0.27 0.036 1.558 0.005 1.601-0.039zM13.419 26.71c0.023-0.023 0.035-0.694 0.026-1.492-0.015-1.419-0.018-1.455-0.13-1.635-0.222-0.357-0.561-0.504-0.978-0.426-0.295 0.055-0.526 0.211-0.657 0.444-0.096 0.171-0.101 0.259-0.101 1.664v1.483l0.259 0.022c0.383 0.032 1.532-0.011 1.58-0.059zM15.977 26.725c0.024-0.015 0.044-0.671 0.044-1.457 0-1.587-0.009-1.639-0.313-1.906-0.339-0.298-0.838-0.312-1.204-0.033-0.33 0.252-0.334 0.276-0.334 1.919v1.48l0.247 0.033c0.27 0.036 1.489 0.008 1.56-0.036zM13.678 20.246c-0.016-1.657-0.021-1.684-0.382-2.010-0.432-0.39-0.857-0.453-1.301-0.193-0.258 0.151-0.551 0.485-0.603 0.688-0.045 0.177-0.036 2.93 0.010 2.976 0.093 0.093 0.121-0.186 0.139-1.393 0.017-1.139 0.033-1.363 0.109-1.542 0.168-0.398 0.536-0.584 1.079-0.544 0.252 0.018 0.309 0.043 0.469 0.203l0.183 0.182 0.013 1.492c0.013 1.444 0.016 1.495 0.116 1.578 0.057 0.047 0.121 0.075 0.142 0.062s0.033-0.687 0.025-1.498zM14.147 21.066c0.002-2.044 0.017-2.341 0.127-2.489 0.269-0.363 0.925-0.506 1.303-0.284 0.2 0.117 0.373 0.354 0.444 0.608 0.027 0.099 0.050 0.765 0.050 1.493 0 1.082 0.013 1.32 0.070 1.341 0.038 0.015 0.082 0.013 0.099-0.003s0.029-0.686 0.028-1.489c-0.001-1.641-0.013-1.708-0.363-2.016-0.496-0.436-1.152-0.448-1.582-0.029-0.361 0.351-0.37 0.402-0.372 2.049-0.001 1.462 0.003 1.501 0.159 1.518 0.020 0.002 0.037-0.313 0.038-0.699zM8.964 20.235c0.021-1.259 0.036-1.473 0.111-1.61 0.111-0.203 0.352-0.384 0.613-0.461 0.399-0.118 0.894 0.102 1.082 0.48 0.083 0.167 0.096 0.345 0.118 1.619 0.021 1.228 0.035 1.431 0.099 1.431s0.074-0.198 0.074-1.484v-1.484l-0.149-0.241c-0.441-0.713-1.464-0.752-1.947-0.073-0.057 0.081-0.126 0.275-0.152 0.432-0.051 0.309-0.067 2.754-0.018 2.833 0.016 0.027 0.056 0.040 0.087 0.029 0.041-0.014 0.064-0.434 0.082-1.471zM10.455 20.979c0.074-0.091 0.088-0.206 0.088-0.71 0-0.402-0.020-0.621-0.059-0.661-0.084-0.084-1.072-0.082-1.098 0.003-0.011 0.034-0.029 0.348-0.040 0.698-0.019 0.585-0.013 0.644 0.077 0.734 0.087 0.087 0.144 0.095 0.521 0.072 0.359-0.022 0.437-0.043 0.512-0.135zM13.040 21.090c0.033-0.022 0.066-0.309 0.084-0.713 0.037-0.839 0.044-0.828-0.531-0.828-0.61 0-0.637 0.032-0.661 0.761-0.025 0.796-0.009 0.819 0.598 0.818 0.25-0 0.48-0.017 0.51-0.037zM15.635 21.046c0.079-0.071 0.090-0.165 0.090-0.73 0-0.439-0.019-0.668-0.059-0.708-0.037-0.037-0.222-0.059-0.493-0.059-0.622 0-0.632 0.013-0.632 0.837 0 0.76-0.016 0.739 0.588 0.741 0.319 0.001 0.437-0.017 0.506-0.080zM16.29 17.149c0.061-0.024 0.067-0.046 0.023-0.099-0.047-0.057-0.682-0.068-3.863-0.068-2.093 0-3.837 0.020-3.874 0.044-0.224 0.142 0.051 0.153 3.817 0.153 2.1 0 3.853-0.014 3.897-0.030zM11.533 16.526c0.001-0.034 0.002-0.661 0.001-1.394-0.002-1.573 0.027-1.724 0.38-1.97 0.451-0.315 1.18-0.199 1.395 0.222 0.090 0.176 0.097 0.296 0.097 1.616 0 1.343 0.005 1.43 0.095 1.511s0.097 0.081 0.145-0.009c0.031-0.058 0.052-0.637 0.054-1.487 0.003-1.274-0.004-1.411-0.092-1.609-0.219-0.495-1.089-0.823-1.55-0.585-0.271 0.14-0.43 0.279-0.58 0.506l-0.145 0.219v1.488c0 0.819 0.015 1.503 0.033 1.521 0.055 0.055 0.164 0.037 0.167-0.029zM14.122 16.526c0.012-0.034 0.028-0.717 0.036-1.518 0.013-1.415 0.016-1.461 0.125-1.636 0.141-0.228 0.399-0.352 0.776-0.377 0.41-0.026 0.689 0.123 0.862 0.46 0.124 0.241 0.125 0.249 0.135 1.675 0.010 1.338 0.016 1.433 0.099 1.433s0.089-0.095 0.101-1.428c0.015-1.601-0.008-1.755-0.306-2.062-0.242-0.249-0.458-0.334-0.847-0.334-0.56 0-0.975 0.295-1.104 0.785-0.026 0.098-0.062 0.793-0.081 1.545-0.027 1.075-0.021 1.384 0.028 1.443 0.076 0.092 0.145 0.097 0.175 0.014zM8.964 15.029c0.017-0.991 0.043-1.509 0.082-1.575 0.072-0.124 0.306-0.342 0.436-0.408 0.319-0.16 0.792-0.107 1.061 0.119 0.313 0.264 0.319 0.294 0.346 1.893 0.021 1.25 0.035 1.456 0.099 1.456s0.076-0.191 0.087-1.373c0.014-1.436-0.006-1.625-0.199-1.911-0.374-0.555-1.223-0.657-1.72-0.208-0.242 0.218-0.279 0.287-0.342 0.617-0.053 0.277-0.069 2.776-0.019 2.857 0.016 0.027 0.056 0.040 0.087 0.029 0.041-0.014 0.064-0.44 0.082-1.495zM10.473 15.776c0.091-0.125 0.101-1.26 0.011-1.35-0.083-0.083-0.997-0.081-1.064 0.002-0.027 0.034-0.060 0.333-0.073 0.665-0.032 0.816-0.031 0.817 0.589 0.795 0.393-0.014 0.478-0.032 0.537-0.113zM13.012 15.807c0.103-0.083 0.111-0.131 0.117-0.683 0.008-0.768 0.016-0.757-0.607-0.757-0.306 0-0.499 0.021-0.537 0.059-0.040 0.040-0.059 0.265-0.059 0.687 0 0.785-0.001 0.783 0.566 0.783 0.323 0 0.434-0.019 0.521-0.090zM15.584 15.803c0.109-0.088 0.117-0.132 0.133-0.706 0.013-0.493 0.002-0.624-0.057-0.672-0.050-0.041-0.235-0.056-0.584-0.046l-0.511 0.014-0.031 0.642c-0.041 0.854-0.035 0.864 0.52 0.864 0.333 0 0.435-0.018 0.529-0.094zM16.34 11.606c0.016-0.026-0.015-0.070-0.068-0.099-0.12-0.064-7.596-0.071-7.697-0.007-0.224 0.142 0.051 0.153 3.868 0.153 2.389 0 3.879-0.018 3.897-0.047zM11.547 9.574l0.009-1.4 0.135-0.23c0.194-0.331 0.426-0.46 0.83-0.46 0.281-0 0.349 0.018 0.51 0.141 0.376 0.286 0.374 0.279 0.374 1.862 0 1.326 0.006 1.416 0.094 1.496s0.096 0.081 0.121-0.005c0.015-0.049 0.032-0.712 0.038-1.472 0.011-1.484 0.004-1.539-0.259-1.908-0.245-0.344-0.965-0.498-1.365-0.292-0.251 0.129-0.481 0.38-0.592 0.646-0.084 0.201-0.092 0.352-0.085 1.608 0.005 0.762 0.025 1.414 0.046 1.448 0.105 0.17 0.134-0.121 0.143-1.434zM8.964 9.527c0.026-1.538 0.038-1.613 0.28-1.832 0.156-0.141 0.443-0.236 0.713-0.236 0.335 0 0.619 0.163 0.784 0.452 0.121 0.212 0.123 0.233 0.148 1.646 0.021 1.228 0.035 1.431 0.099 1.431s0.076-0.197 0.087-1.429l0.013-1.429-0.125-0.256c-0.292-0.597-0.968-0.825-1.555-0.525-0.357 0.183-0.532 0.412-0.593 0.78-0.052 0.315-0.069 2.761-0.019 2.841 0.016 0.027 0.056 0.040 0.087 0.029 0.041-0.014 0.064-0.434 0.082-1.471zM14.146 9.601c0.026-1.473 0.048-1.607 0.306-1.882 0.156-0.166 0.495-0.278 0.751-0.249 0.331 0.037 0.546 0.196 0.705 0.521l0.138 0.281 0.016 1.369c0.009 0.76 0.035 1.369 0.060 1.369 0.122 0 0.146-0.257 0.146-1.553 0-1.345-0.002-1.365-0.12-1.599-0.127-0.251-0.402-0.525-0.604-0.602-0.067-0.025-0.258-0.046-0.426-0.046-0.539 0.001-0.998 0.301-1.117 0.729-0.057 0.204-0.073 2.983-0.018 3.039 0.117 0.117 0.14-0.074 0.163-1.379zM10.449 10.278c0.081-0.1 0.094-0.199 0.094-0.7 0-0.742 0.004-0.738-0.614-0.738-0.308 0-0.476 0.020-0.509 0.062-0.027 0.034-0.060 0.348-0.073 0.698-0.030 0.822-0.019 0.837 0.588 0.812 0.37-0.015 0.43-0.031 0.513-0.134zM13.041 10.381c0.033-0.022 0.066-0.298 0.083-0.685 0.038-0.866 0.033-0.872-0.561-0.849-0.603 0.024-0.608 0.030-0.63 0.8-0.022 0.775-0.024 0.772 0.601 0.771 0.249-0 0.477-0.017 0.507-0.037zM15.615 10.304c0.126-0.126 0.156-1.262 0.036-1.382-0.103-0.103-0.968-0.12-1.051-0.020-0.028 0.034-0.058 0.353-0.067 0.709-0.021 0.834-0.026 0.827 0.562 0.799 0.325-0.016 0.456-0.042 0.52-0.106zM16.311 6.109c0.030-0.036 0.040-0.081 0.023-0.099-0.052-0.052-7.754-0.039-7.786 0.014-0.084 0.135 0.252 0.148 3.928 0.15 3.105 0.001 3.791-0.010 3.836-0.065zM9.104 5.134c-0.108-0.067-0.197 0.055-0.163 0.222 0.070 0.349 0.087 0.358 0.158 0.083 0.055-0.215 0.056-0.274 0.006-0.306zM9.448 5.245c-0.020-0.172-0.103-0.152-0.158 0.040-0.031 0.106-0.025 0.194 0.019 0.287l0.064 0.135 0.045-0.166c0.025-0.091 0.038-0.224 0.030-0.296zM9.837 5.371c-0.030-0.226-0.071-0.281-0.135-0.182-0.053 0.083-0.063 0.41-0.015 0.459 0.081 0.081 0.174-0.092 0.149-0.277zM10.195 5.542c0.045-0.108 0.044-0.17-0.001-0.27-0.076-0.167-0.127-0.133-0.168 0.112-0.051 0.305 0.064 0.412 0.169 0.158zM10.52 5.2c-0.033-0.13-0.036-0.131-0.104-0.039-0.085 0.117-0.090 0.294-0.011 0.438 0.056 0.103 0.061 0.099 0.104-0.078 0.025-0.102 0.030-0.247 0.011-0.321zM10.936 5.413c-0.001-0.056-0.031-0.154-0.067-0.219l-0.065-0.117-0.031 0.117c-0.042 0.159-0.041 0.413 0.003 0.457 0.050 0.050 0.162-0.116 0.16-0.238zM11.678 5.534c0.050-0.12 0.049-0.179-0.005-0.307l-0.066-0.159-0.063 0.219c-0.1 0.344 0.010 0.546 0.134 0.247zM11.983 5.128c-0.041-0.041-0.074-0.012-0.126 0.113-0.063 0.149-0.061 0.185 0.009 0.317l0.080 0.149 0.046-0.262c0.032-0.184 0.030-0.278-0.009-0.317zM12.395 5.521c0.034-0.182-0.049-0.453-0.124-0.407-0.056 0.035-0.063 0.189-0.019 0.413 0.040 0.2 0.105 0.197 0.143-0.007zM12.73 5.513c0.032-0.095 0.026-0.178-0.018-0.268l-0.063-0.131-0.038 0.197c-0.055 0.286-0.052 0.381 0.015 0.359 0.032-0.011 0.079-0.081 0.104-0.157zM13.090 5.233c-0.064-0.153-0.069-0.155-0.122-0.056-0.030 0.057-0.046 0.133-0.035 0.168s0.036 0.132 0.055 0.213l0.035 0.148 0.067-0.157c0.056-0.132 0.056-0.183-0-0.316zM13.424 5.527c0.045-0.224 0.038-0.378-0.019-0.413-0.075-0.047-0.158 0.225-0.124 0.407 0.038 0.203 0.103 0.206 0.143 0.007zM14.219 5.382c0.024-0.125 0.012-0.193-0.039-0.235-0.059-0.049-0.083-0.033-0.133 0.090-0.050 0.12-0.049 0.179 0.002 0.301 0.071 0.172 0.116 0.131 0.17-0.156zM14.588 5.538c0.048-0.117 0.046-0.169-0.015-0.284-0.078-0.147-0.092-0.134-0.152 0.139-0.030 0.139 0.005 0.288 0.069 0.288 0.021 0 0.065-0.064 0.097-0.143zM14.935 5.494c-0.001-0.176-0.051-0.355-0.099-0.355-0.021 0-0.060 0.062-0.087 0.138-0.036 0.102-0.030 0.174 0.022 0.273 0.083 0.159 0.165 0.131 0.164-0.056zM15.33 5.429c0-0.047-0.024-0.149-0.053-0.225-0.047-0.124-0.058-0.129-0.102-0.052-0.028 0.049-0.034 0.187-0.014 0.317 0.031 0.209 0.040 0.221 0.102 0.138 0.037-0.051 0.067-0.131 0.067-0.178zM15.652 5.43c0.044-0.319-0.032-0.418-0.148-0.193-0.068 0.131-0.072 0.183-0.023 0.302 0.085 0.206 0.132 0.177 0.171-0.108zM16.016 5.302c0.007-0.22-0.082-0.251-0.164-0.057-0.060 0.142-0.059 0.182 0.010 0.312l0.078 0.149 0.035-0.123c0.019-0.068 0.038-0.194 0.040-0.281zM16.872 21.436l0.013-5.564 4.041-0.013c2.945-0.009 4.059 0.003 4.108 0.043 0.056 0.046 0.067 0.983 0.067 5.577v5.521h-8.242zM18.986 26.726c0.025-0.015 0.045-0.489 0.045-1.055 0-0.819-0.014-1.039-0.069-1.085-0.045-0.037-0.245-0.052-0.58-0.043l-0.511 0.014v2.171l0.173 0.034c0.185 0.036 0.867 0.010 0.942-0.036zM21.563 26.708c0.032-0.032 0.052-0.427 0.053-1.067 0.001-0.837-0.011-1.024-0.071-1.061-0.040-0.025-0.276-0.046-0.525-0.046-0.347-0.001-0.471 0.017-0.531 0.077-0.065 0.065-0.077 0.231-0.077 1.049 0 0.534 0.017 0.997 0.037 1.028s0.103 0.068 0.184 0.082c0.23 0.039 0.871-0.003 0.928-0.061zM24.166 26.727c0.073-0.045 0.061-2.062-0.012-2.135-0.068-0.068-0.963-0.083-1.064-0.018-0.048 0.031-0.060 0.284-0.049 1.097l0.013 1.057 0.148 0.035c0.161 0.038 0.889 0.011 0.965-0.036zM17.452 25.219c0.024-1.414 0.028-1.456 0.14-1.637 0.273-0.439 0.917-0.594 1.332-0.32 0.381 0.253 0.418 0.439 0.411 2.109-0.003 0.665 0.015 1.241 0.039 1.28 0.038 0.060 0.057 0.061 0.125 0.004 0.072-0.060 0.079-0.22 0.066-1.502-0.017-1.593-0.015-1.583-0.367-1.924-0.513-0.498-1.34-0.4-1.769 0.211l-0.15 0.213-0.015 1.458c-0.008 0.802-0.003 1.49 0.012 1.53s0.055 0.062 0.089 0.051c0.047-0.016 0.068-0.373 0.086-1.472zM20.018 25.293c0.023-1.265 0.033-1.396 0.128-1.601 0.182-0.394 0.608-0.64 0.974-0.564 0.255 0.053 0.559 0.256 0.683 0.454 0.112 0.181 0.116 0.223 0.14 1.641 0.021 1.25 0.035 1.456 0.099 1.456s0.074-0.201 0.074-1.513v-1.513l-0.149-0.213c-0.239-0.339-0.512-0.503-0.876-0.525-0.47-0.028-0.861 0.187-1.132 0.622-0.11 0.177-0.113 0.221-0.129 1.605-0.009 0.783-0.003 1.457 0.012 1.497s0.056 0.064 0.090 0.053c0.047-0.015 0.068-0.358 0.086-1.398zM22.608 26.593c0.014-0.061 0.031-0.722 0.038-1.468 0.012-1.323 0.016-1.362 0.127-1.541 0.32-0.515 0.973-0.617 1.424-0.221 0.345 0.303 0.359 0.381 0.361 1.948 0.001 1.206 0.011 1.394 0.075 1.394s0.074-0.19 0.074-1.419c-0-0.848-0.021-1.495-0.053-1.607-0.068-0.245-0.34-0.543-0.621-0.679-0.555-0.269-1.382 0.098-1.545 0.684-0.056 0.201-0.073 2.934-0.019 2.988 0.062 0.062 0.113 0.033 0.138-0.078zM17.452 20.235c0.027-1.605 0.035-1.646 0.358-1.887 0.358-0.267 0.782-0.288 1.134-0.056 0.362 0.238 0.396 0.421 0.403 2.163 0.005 1.206 0.008 1.24 0.104 1.24s0.098-0.027 0.082-1.48c-0.018-1.656-0.039-1.767-0.363-2.015-0.53-0.404-1.243-0.352-1.641 0.12-0.267 0.316-0.274 0.37-0.274 1.909 0 0.783 0.015 1.44 0.034 1.458 0.118 0.118 0.14-0.076 0.163-1.453zM20.020 20.285c0.028-1.493 0.042-1.582 0.285-1.839 0.453-0.478 1.216-0.387 1.528 0.183 0.073 0.133 0.088 0.359 0.109 1.61s0.035 1.456 0.099 1.456c0.064 0 0.076-0.191 0.087-1.373 0.008-0.818-0.007-1.449-0.037-1.559-0.158-0.585-0.735-0.938-1.348-0.823-0.261 0.049-0.613 0.31-0.763 0.566l-0.135 0.229-0.015 1.425c-0.008 0.784-0.003 1.457 0.012 1.497s0.055 0.062 0.089 0.051c0.047-0.015 0.068-0.364 0.088-1.423zM22.604 21.642c0.016-0.043 0.030-0.659 0.030-1.369 0-0.79 0.021-1.368 0.055-1.488 0.112-0.404 0.606-0.717 1.025-0.649 0.276 0.045 0.601 0.277 0.729 0.52 0.113 0.213 0.115 0.246 0.115 1.641 0 1.232 0.010 1.423 0.074 1.423 0.062 0 0.076-0.119 0.086-0.728 0.025-1.481-0.061-2.418-0.247-2.675-0.145-0.2-0.579-0.397-0.875-0.397-0.474 0-0.994 0.364-1.108 0.776-0.057 0.204-0.074 2.936-0.019 2.991s0.103 0.038 0.135-0.045zM18.926 21.008c0.104-0.104 0.15-1.272 0.054-1.388-0.077-0.093-0.983-0.103-1.074-0.012-0.040 0.040-0.059 0.27-0.059 0.712 0 0.83 0 0.831 0.583 0.795 0.292-0.018 0.439-0.050 0.496-0.107zM21.535 21.066c0.027-0.034 0.061-0.356 0.076-0.716 0.034-0.811 0.040-0.802-0.531-0.802-0.614 0-0.639 0.029-0.661 0.78-0.016 0.548-0.010 0.599 0.086 0.695 0.090 0.090 0.162 0.104 0.542 0.104 0.292 0 0.454-0.021 0.487-0.062zM24.154 21.068c0.082-0.082 0.082-1.378 0-1.461-0.037-0.037-0.222-0.059-0.493-0.059-0.622 0-0.632 0.013-0.632 0.837 0 0.557 0.011 0.646 0.086 0.689 0.124 0.072 0.965 0.068 1.039-0.006zM24.83 16.884c0-0.065-0.469-0.076-3.871-0.087-2.306-0.008-3.889 0.006-3.916 0.033-0.146 0.146 0.066 0.153 3.904 0.141 3.413-0.011 3.883-0.022 3.883-0.087zM17.575 16.238c0-0.205-0.017-0.267-0.074-0.267-0.078 0-0.133 0.358-0.077 0.503 0.063 0.163 0.151 0.025 0.151-0.236zM17.944 16.090c-0.058-0.139-0.070-0.147-0.103-0.065-0.048 0.124-0.053 0.438-0.008 0.483 0.020 0.020 0.068-0.030 0.106-0.112 0.059-0.125 0.060-0.173 0.004-0.307zM18.315 16.141c-0.017-0.079-0.050-0.156-0.073-0.17-0.053-0.033-0.119 0.446-0.072 0.522 0.062 0.1 0.18-0.19 0.145-0.353zM18.639 16.308c0.044-0.19 0.022-0.362-0.046-0.362-0.020 0-0.063 0.075-0.097 0.168-0.047 0.13-0.047 0.196-0.002 0.296 0.071 0.155 0.088 0.143 0.144-0.102zM19.033 16.387c0.052-0.126 0.050-0.177-0.012-0.308l-0.075-0.157-0.052 0.242c-0.078 0.365 0.016 0.518 0.138 0.224zM19.37 16.472c0.062-0.075 0.047-0.314-0.029-0.45-0.045-0.080-0.058-0.068-0.111 0.092-0.061 0.184-0.036 0.424 0.043 0.424 0.023 0 0.067-0.030 0.098-0.067zM20.145 16.417c0.067-0.103 0.070-0.15 0.020-0.303-0.067-0.204-0.112-0.166-0.167 0.142-0.030 0.166-0.011 0.283 0.047 0.283 0.011 0 0.056-0.055 0.1-0.122zM20.849 16.075l-0.064-0.153-0.055 0.247c-0.039 0.176-0.040 0.266-0.002 0.315 0.042 0.054 0.066 0.035 0.119-0.093 0.054-0.133 0.055-0.189 0.002-0.315zM21.221 16.402c0.062-0.12 0.061-0.158-0.006-0.308l-0.077-0.172-0.047 0.234c-0.043 0.214-0.028 0.383 0.035 0.383 0.014 0 0.057-0.061 0.096-0.137zM21.944 16.098c-0.034-0.083-0.082-0.139-0.106-0.124-0.051 0.031-0.056 0.289-0.010 0.463l0.032 0.121 0.073-0.154c0.061-0.128 0.063-0.18 0.011-0.305zM23.078 16.096c-0.076-0.183-0.094-0.171-0.155 0.099-0.034 0.151-0.030 0.227 0.015 0.28 0.052 0.063 0.071 0.052 0.132-0.076 0.059-0.125 0.060-0.176 0.008-0.303zM23.414 16.212c-0.011-0.175-0.036-0.241-0.089-0.241-0.094 0-0.127 0.323-0.048 0.472 0.086 0.161 0.155 0.047 0.137-0.231zM23.762 16.276c0.032-0.17 0.026-0.243-0.020-0.282-0.101-0.084-0.192 0.246-0.115 0.415 0.073 0.161 0.082 0.152 0.135-0.133zM24.157 16.409c0.045-0.099 0.046-0.17 0.002-0.303-0.065-0.196-0.11-0.155-0.164 0.15-0.052 0.289 0.055 0.39 0.163 0.153zM24.51 16.097c-0.122-0.294-0.216-0.141-0.138 0.224l0.052 0.242 0.075-0.157c0.062-0.131 0.064-0.182 0.012-0.308zM20.485 16.261c0.042-0.283-0.032-0.386-0.136-0.187-0.054 0.103-0.060 0.174-0.024 0.277 0.070 0.2 0.121 0.171 0.16-0.090zM21.571 16.261c0.044-0.296-0.039-0.395-0.136-0.161-0.050 0.12-0.055 0.198-0.020 0.278 0.075 0.167 0.118 0.135 0.155-0.117zM22.698 16.193c0.012-0.247-0.070-0.308-0.157-0.117-0.047 0.104-0.048 0.164-0.001 0.275 0.076 0.184 0.145 0.115 0.158-0.158zM25.348 18.816c0-7.879 0.003-8.187 0.091-8.266 0.083-0.075 0.368-0.081 3.319-0.069l3.228 0.013 0.013 8.187c0.009 6.010-0.002 8.204-0.043 8.253-0.046 0.055-0.634 0.067-3.331 0.067h-3.276zM28.216 26.725c0.024-0.015 0.043-0.67 0.043-1.457 0-1.336-0.007-1.443-0.099-1.625-0.121-0.237-0.5-0.47-0.84-0.517-0.459-0.063-0.953 0.167-1.141 0.531-0.104 0.201-0.108 0.268-0.112 1.641l-0.004 1.431 0.296 0.032c0.324 0.035 1.787 0.007 1.857-0.036zM31.278 26.724c0.023-0.014 0.041-0.612 0.041-1.328 0-1.182-0.009-1.327-0.099-1.566-0.163-0.437-0.547-0.727-0.962-0.727-0.419 0-0.806 0.251-1.028 0.666-0.098 0.184-0.107 0.285-0.124 1.47-0.010 0.7-0.005 1.326 0.011 1.392 0.027 0.108 0.060 0.121 0.363 0.14 0.397 0.025 1.738-0.009 1.797-0.046zM26.041 20.424c0.003-1.711 0.029-1.819 0.516-2.076 0.3-0.159 0.905-0.15 1.23 0.017 0.281 0.145 0.413 0.303 0.475 0.571 0.025 0.106 0.045 0.788 0.046 1.514 0.001 0.826 0.019 1.32 0.049 1.32 0.027 0 0.083-0.054 0.126-0.119 0.067-0.103 0.076-0.304 0.063-1.468-0.014-1.27-0.021-1.36-0.121-1.547-0.231-0.432-0.555-0.633-1.11-0.691-0.484-0.050-0.798 0.054-1.116 0.373-0.413 0.413-0.407 0.382-0.407 2.008 0 0.785 0.015 1.443 0.033 1.461s0.074 0.033 0.123 0.033c0.086 0 0.091-0.076 0.093-1.394zM29.1 20.397c0.003-1.711 0.025-1.792 0.565-2.073 0.492-0.255 1.008-0.152 1.431 0.285l0.197 0.204 0.027 1.491c0.015 0.82 0.032 1.497 0.037 1.505s0.054-0.010 0.109-0.039c0.095-0.051 0.099-0.103 0.098-1.445-0-0.772-0.022-1.471-0.049-1.569-0.065-0.234-0.357-0.524-0.681-0.674-0.226-0.105-0.318-0.119-0.666-0.104-0.449 0.019-0.72 0.127-1.015 0.404-0.283 0.266-0.296 0.336-0.329 1.848-0.030 1.363-0.029 1.386 0.074 1.489 0.057 0.057 0.126 0.091 0.152 0.075 0.029-0.018 0.048-0.575 0.050-1.396zM27.855 21.118c0.040-0.040 0.059-0.263 0.059-0.68 0-0.845 0.004-0.84-0.664-0.84-0.714 0-0.723 0.009-0.754 0.743-0.014 0.344-0.003 0.618 0.030 0.7l0.053 0.136h0.608c0.407 0 0.628-0.020 0.667-0.059zM30.901 21.126c0.055-0.089 0.026-1.392-0.033-1.462-0.039-0.047-0.2-0.066-0.561-0.066-0.71 0-0.72 0.009-0.751 0.743-0.014 0.344-0.003 0.618 0.030 0.7l0.053 0.136h0.615c0.372 0 0.628-0.020 0.647-0.051zM31.658 17.382c0.22-0.139-0.047-0.153-2.98-0.153s-3.199 0.014-2.98 0.153c0.037 0.024 1.378 0.043 2.98 0.043s2.942-0.019 2.98-0.043zM26.058 16.304c0.018-0.156 0.019-0.75 0.001-1.32-0.043-1.358 0.025-1.616 0.49-1.863 0.166-0.088 0.287-0.11 0.629-0.11 0.385-0.001 0.445 0.013 0.662 0.147 0.429 0.266 0.443 0.324 0.458 1.925 0.007 0.76 0.026 1.415 0.041 1.456 0.022 0.059 0.046 0.051 0.122-0.042 0.089-0.109 0.095-0.207 0.095-1.456-0-0.791-0.022-1.416-0.053-1.527-0.105-0.38-0.622-0.742-1.146-0.804-0.336-0.039-0.7 0.063-1.084 0.304-0.46 0.289-0.452 0.253-0.472 2.033l-0.017 1.542h0.121c0.11 0 0.124-0.025 0.154-0.284zM29.098 15.152c0.020-1.157 0.039-1.433 0.105-1.575 0.18-0.385 0.433-0.535 0.969-0.574 0.339-0.025 0.406-0.015 0.6 0.090 0.12 0.065 0.287 0.202 0.37 0.305l0.152 0.188 0.025 1.488c0.024 1.447 0.027 1.488 0.123 1.488s0.099-0.038 0.113-1.431c0.008-0.787 0.002-1.5-0.013-1.583-0.040-0.224-0.321-0.521-0.65-0.688-0.245-0.124-0.345-0.146-0.659-0.145-0.42 0.001-0.65 0.095-0.997 0.408-0.371 0.334-0.392 0.433-0.416 1.96-0.019 1.203-0.013 1.354 0.060 1.427 0.178 0.178 0.193 0.085 0.218-1.358zM27.855 15.887c0.040-0.040 0.059-0.263 0.059-0.68 0-0.845 0.004-0.84-0.664-0.84-0.714 0-0.723 0.009-0.754 0.743-0.014 0.344-0.003 0.618 0.030 0.7l0.053 0.136h0.608c0.407 0 0.628-0.020 0.667-0.059zM30.825 15.847c0.098-0.098 0.112-0.246 0.112-1.169-0-0.318 0.006-0.316-0.715-0.3l-0.655 0.014v0.696c0 0.517 0.017 0.717 0.068 0.777 0.055 0.066 0.164 0.082 0.58 0.082 0.446 0 0.525-0.013 0.611-0.099zM31.625 11.514c0.038-0.038 0.020-0.062-0.065-0.082-0.213-0.052-5.867-0.005-5.867 0.048-0 0.080 1.136 0.111 3.593 0.099 1.559-0.008 2.302-0.028 2.339-0.065zM26.179 10.755l-0.075-0.158-0.060 0.237c-0.047 0.187-0.047 0.252 0.002 0.311 0.053 0.064 0.072 0.053 0.134-0.079 0.064-0.135 0.064-0.172-0.002-0.311zM26.631 11.061c0.049-0.118 0.049-0.178 0-0.295-0.079-0.19-0.134-0.152-0.175 0.12-0.050 0.332 0.063 0.445 0.175 0.175zM27.050 11.061c0.070-0.135 0.069-0.162-0.008-0.308l-0.084-0.16-0.035 0.123c-0.067 0.233-0.048 0.493 0.036 0.493 0.008 0 0.050-0.067 0.092-0.148zM27.478 10.755l-0.094-0.149-0.056 0.16c-0.071 0.205-0.071 0.309 0.002 0.381 0.044 0.044 0.080 0.023 0.15-0.093 0.090-0.148 0.090-0.155-0.002-0.3zM27.895 10.687c-0.040-0.105-0.096-0.086-0.186 0.062-0.074 0.122-0.074 0.145 0.001 0.303l0.081 0.17 0.066-0.232c0.036-0.128 0.053-0.264 0.039-0.303zM28.321 11.057c0.081-0.142 0.081-0.16 0.003-0.308l-0.083-0.157-0.069 0.238c-0.105 0.365-0.012 0.509 0.148 0.227zM29.222 11.061c0.069-0.134 0.069-0.162-0.002-0.301-0.043-0.084-0.087-0.144-0.097-0.134-0.056 0.056-0.103 0.432-0.064 0.502 0.061 0.109 0.075 0.103 0.163-0.068zM30.055 10.918c-0.052-0.29-0.094-0.33-0.166-0.158-0.051 0.123-0.051 0.182-0.002 0.301s0.075 0.137 0.13 0.092c0.048-0.040 0.059-0.111 0.037-0.235zM30.489 10.756l-0.099-0.156-0.054 0.193c-0.068 0.245-0.068 0.284 0.005 0.356 0.046 0.046 0.080 0.026 0.153-0.089 0.092-0.146 0.092-0.15-0.005-0.304zM30.885 10.864c0.017-0.251-0.055-0.3-0.167-0.115-0.074 0.122-0.074 0.146-0.002 0.298 0.094 0.196 0.147 0.138 0.169-0.182zM31.334 10.762c-0.157-0.266-0.247-0.151-0.162 0.206l0.059 0.248 0.094-0.155c0.090-0.148 0.090-0.161 0.008-0.3zM29.615 10.931c0.043-0.284-0.028-0.378-0.148-0.196-0.072 0.11-0.075 0.151-0.023 0.277 0.085 0.206 0.131 0.185 0.171-0.080z"></path>
</svg>
