<!-- Generated by IcoMoon.io -->
<svg version="1.1" xmlns="http://www.w3.org/2000/svg" width="32" height="32" viewBox="0 0 32 32">
<title>haze_of_miasma</title>
<path d="M8.184 30.975c-0.279-0.021-0.627-0.042-0.774-0.046-0.436-0.011-0.42 0.049-0.235-0.886 0.111-0.56 0.243-1.013 0.36-1.235 0.315-0.597 0.862-1.756 0.862-1.828 0-0.028 0.45-0.503 1-1.057s1.099-1.119 1.22-1.258c0.199-0.229 0.241-0.252 0.454-0.252 0.434-0 0.741-0.305 0.741-0.736 0-0.284-0.184-0.543-0.494-0.696-0.201-0.1-0.253-0.153-0.253-0.259 0-0.073-0.034-0.209-0.075-0.301-0.155-0.35-0.467-1.396-0.493-1.657-0.015-0.15-0.060-0.38-0.1-0.512s-0.135-0.588-0.212-1.014c-0.132-0.731-0.248-1.341-0.352-1.855-0.025-0.125-0.053-1.098-0.061-2.161-0.016-2.149 0.043-3.613 0.146-3.613 0.035 0 0.313 0.117 0.619 0.261 0.621 0.292 1.008 0.433 1.184 0.432 0.241-0.002 0.539-0.227 0.687-0.518 0.155-0.306 0.335-0.481 0.66-0.642 0.185-0.091 0.264-0.099 0.612-0.059 0.22 0.025 0.962 0.067 1.649 0.093 1.149 0.044 1.277 0.039 1.6-0.053 0.425-0.121 0.684-0.126 1.090-0.021 0.559 0.146 0.864 0.103 1.156-0.16 0.113-0.103 0.209-0.124 0.641-0.145 0.324-0.016 0.569-0.057 0.678-0.113 0.094-0.049 0.181-0.088 0.194-0.088 0.115 0 0.168 1.142 0.227 4.909 0.032 2.035 0.002 2.594-0.153 2.903-0.028 0.056-0.084 0.415-0.124 0.797s-0.096 0.768-0.124 0.858c-0.050 0.16-0.132 0.677-0.214 1.363-0.038 0.318-0.15 0.767-0.283 1.134-0.029 0.081-0.083 0.147-0.119 0.147s-0.126 0.047-0.199 0.104c-0.073 0.057-0.262 0.155-0.421 0.216s-0.36 0.144-0.448 0.183c-0.088 0.039-0.213 0.088-0.278 0.107-0.169 0.051-0.379 0.322-0.421 0.543-0.052 0.276 0.057 0.581 0.265 0.739 0.097 0.074 0.215 0.135 0.261 0.135s0.157 0.061 0.246 0.136c0.142 0.119 0.358 0.193 0.92 0.313 0.125 0.027 0.739 0.577 0.741 0.664 0 0.019 0.167 0.207 0.37 0.418 0.266 0.276 0.431 0.402 0.59 0.45 0.205 0.061 0.533 0.366 0.533 0.494 0 0.027 0.077 0.17 0.171 0.317s0.216 0.389 0.271 0.538c0.135 0.37 0.453 1.391 0.524 1.685 0.032 0.132 0.092 0.378 0.133 0.546s0.075 0.33 0.075 0.36c0 0.084-0.976 0.065-1.83-0.035-0.538-0.063-1.192-0.089-2.252-0.089-1.803 0-4.907 0.099-5.493 0.174-0.233 0.030-0.761 0.053-1.174 0.052-0.43-0.001-0.978 0.033-1.283 0.081-0.483 0.075-0.874 0.105-2.107 0.157-0.22 0.009-0.628-0.001-0.907-0.022zM25.337 17.985c-0.205-0.102-0.482-0.202-0.614-0.221s-0.267-0.072-0.299-0.116c-0.033-0.044-0.319-0.238-0.635-0.431-0.569-0.346-0.579-0.356-0.777-0.745-0.111-0.217-0.217-0.493-0.236-0.614s-0.082-0.359-0.141-0.528c-0.068-0.197-0.11-0.467-0.115-0.747-0.007-0.371 0.010-0.467 0.111-0.625 0.066-0.103 0.119-0.235 0.12-0.293 0.001-0.317 0.131-0.545 0.557-0.987 0.241-0.25 0.548-0.598 0.682-0.774s0.344-0.416 0.467-0.534c0.366-0.351 0.378-0.396 0.369-1.401-0.005-0.491 0.009-1.033 0.030-1.204 0.034-0.27 0.060-0.324 0.203-0.411 0.164-0.1 0.164-0.1 0.328 0.038 0.383 0.322 0.511 0.763 0.511 1.758 0 0.652-0.005 0.679-0.184 1.057-0.101 0.213-0.201 0.457-0.222 0.542-0.022 0.087-0.262 0.394-0.55 0.703-0.281 0.301-0.557 0.649-0.612 0.773-0.066 0.147-0.115 0.428-0.142 0.813-0.036 0.51-0.071 0.661-0.264 1.146-0.207 0.52-0.22 0.582-0.186 0.897 0.041 0.379 0.197 0.609 0.576 0.848l0.206 0.13 0.362-0.093c0.356-0.092 0.37-0.091 0.848 0.028 0.381 0.095 0.524 0.11 0.661 0.068 0.096-0.029 0.28-0.068 0.408-0.086s0.308-0.073 0.4-0.123c0.239-0.128 0.522-0.225 0.657-0.226 0.184-0.001 0.337 0.24 0.337 0.533 0 0.439-0.048 0.577-0.214 0.613-0.082 0.018-0.189 0.078-0.239 0.132s-0.184 0.116-0.299 0.135c-0.115 0.019-0.222 0.057-0.238 0.084s-0.359 0.048-0.761 0.048c-0.726-0.001-0.733-0.002-1.104-0.187zM5.058 17.356c-0.054-0.030-0.203-0.135-0.331-0.233s-0.255-0.178-0.281-0.178c-0.088 0-0.523-0.453-0.58-0.605-0.031-0.082-0.057-0.238-0.057-0.347 0-0.192 0.053-0.292 0.497-0.936 0.079-0.114 0.143-0.252 0.143-0.306 0-0.162 0.32-0.644 0.599-0.901 0.245-0.226 0.264-0.263 0.319-0.619 0.048-0.309 0.042-0.476-0.030-0.909-0.049-0.292-0.088-0.663-0.088-0.825s-0.038-0.405-0.084-0.54c-0.066-0.193-0.072-0.289-0.027-0.45 0.031-0.112 0.057-0.327 0.057-0.476s0.048-0.498 0.106-0.774c0.058-0.276 0.106-0.576 0.107-0.667s0.109-0.379 0.24-0.64 0.24-0.515 0.24-0.565c0-0.050 0.024-0.104 0.052-0.122s0.080-0.18 0.116-0.362c0.080-0.406 0.226-0.574 0.502-0.574 0.284 0 0.505 0.235 0.505 0.536 0 0.188-0.031 0.254-0.187 0.401-0.122 0.115-0.187 0.225-0.187 0.317 0 0.166-0.035 0.237-0.395 0.799-0.335 0.524-0.398 0.792-0.402 1.722-0.003 0.618 0.009 0.719 0.095 0.805 0.057 0.057 0.112 0.214 0.131 0.377 0.033 0.283 0.169 0.562 0.388 0.805 0.238 0.262 0.384 1.646 0.216 2.043-0.093 0.219-0.212 0.318-0.527 0.434-0.16 0.059-0.285 0.148-0.342 0.244-0.049 0.083-0.179 0.201-0.288 0.263-0.473 0.266-0.494 1.042-0.035 1.313 0.329 0.195 0.769 0.094 1.158-0.265 0.103-0.095 0.297-0.235 0.431-0.311 0.243-0.138 0.245-0.139 0.409-0.039 0.186 0.113 0.242 0.242 0.22 0.506-0.009 0.1 0.001 0.199 0.021 0.219 0.031 0.031-0.278 0.3-0.461 0.402-0.289 0.16-0.431 0.213-0.642 0.242-0.219 0.030-0.242 0.024-0.21-0.060 0.031-0.081 0.021-0.086-0.075-0.034-0.061 0.033-0.227 0.060-0.368 0.060-0.176 0-0.352 0.049-0.557 0.153-0.232 0.118-0.322 0.14-0.398 0.097zM15.093 9.793c-0.616-0.021-1.25-0.065-1.408-0.098s-0.416-0.059-0.574-0.059c-0.283 0-0.286-0.002-0.286-0.163 0-0.229-0.122-0.438-0.343-0.588l-0.19-0.129 0-0.454c0-0.249 0.032-0.544 0.070-0.654 0.074-0.211 0.398-0.679 0.471-0.679 0.024 0 0.107-0.102 0.186-0.227 0.21-0.333 0.66-0.83 0.859-0.947 0.095-0.056 0.341-0.161 0.546-0.232 0.615-0.214 0.848-0.377 0.986-0.693 0.066-0.151 0.138-0.429 0.159-0.619s0.072-0.441 0.114-0.56c0.041-0.119 0.076-0.279 0.076-0.356s0.037-0.242 0.081-0.367c0.046-0.13 0.080-0.411 0.080-0.661 0-0.239 0.027-0.518 0.060-0.62s0.075-0.294 0.093-0.426c0.031-0.224 0.045-0.241 0.208-0.257 0.263-0.025 0.532 0.162 0.584 0.407 0.058 0.273 0.041 1.543-0.037 2.784l-0.066 1.040-0.229 0.268c-0.272 0.32-0.584 0.498-1.212 0.693-0.376 0.116-0.523 0.195-0.768 0.41-0.167 0.146-0.43 0.361-0.585 0.478-0.43 0.325-0.457 0.388-0.486 1.14l-0.025 0.654 0.237 0.091c0.193 0.074 0.356 0.086 0.871 0.063 0.934-0.040 1.807-0.124 1.921-0.184 0.163-0.086 1.256-0.287 1.348-0.247 0.047 0.020 0.299 0.053 0.561 0.074 0.428 0.034 0.488 0.052 0.6 0.183 0.076 0.088 0.125 0.214 0.125 0.319 0 0.172-0.004 0.175-0.347 0.237-0.452 0.082-0.888 0.153-1.56 0.251-0.3 0.044-0.608 0.104-0.684 0.133s-0.178 0.048-0.228 0.043c-0.049-0.005-0.594-0.026-1.21-0.048z"></path>
</svg>
