<!-- Generated by IcoMoon.io -->
<svg version="1.1" xmlns="http://www.w3.org/2000/svg" width="32" height="32" viewBox="0 0 32 32">
<title>heart</title>
<path d="M15.964 0.016c-8.372 0.020-15.231 6.473-15.895 14.677l-0.004 0.057c-0.031 0.374-0.049 0.81-0.049 1.25 0 8.168 6.126 14.904 14.034 15.866l0.077 0.008c0.562 0.070 1.213 0.11 1.873 0.11 7.948 0 14.541-5.801 15.776-13.399l0.012-0.092 0.196-2.492c0 0 0-0 0-0 0-8.607-6.804-15.626-15.327-15.97l-0.031-0.001c-0.186-0.008-0.405-0.012-0.625-0.012-0.013 0-0.026 0-0.039 0h0.002zM12.249 8.467c1.527 0.002 2.893 0.782 3.805 2.009l0.006 0.008c0.922-1.235 2.291-2.015 3.821-2.016h0c0.003 0 0.006 0 0.009 0 2.752 0 4.982 2.527 4.982 5.645 0 1.671-0.641 3.172-1.659 4.206l-0.005 0.005v0.011l-0.053 0.050c-0.157 0.153-0.329 0.304-0.508 0.444l-0.020 0.015-6.559 5.685-1.179-1.017-5.379-4.668c-0.186-0.14-0.362-0.299-0.538-0.459l-0.053-0.050 0.009-0.011c-1.025-1.038-1.667-2.541-1.667-4.213 0-3.117 2.23-5.644 4.981-5.644 0.002 0 0.004 0 0.006 0h-0z"></path>
</svg>
