<!-- Generated by IcoMoon.io -->
<svg version="1.1" xmlns="http://www.w3.org/2000/svg" width="32" height="32" viewBox="0 0 32 32">
<title>hide</title>
<path fill="#394852" d="M27.428 5.441l-21.6 22 1.144 1.119 6.444-6.563c0.784 0.363 1.596 0.691 2.584 0.691 1.663 0 3.102-0.524 4.097-1.538s1.503-2.465 1.503-4.15c0-1.011-0.322-1.844-0.684-2.644l1.266-1.287c2.178 1.199 3.715 3.206 5.075 6.669l1.488-0.584c-1.355-3.45-3.089-5.737-5.469-7.2l5.297-5.394zM16 10.088c-3.399 0-6 0.643-8.047 2.144s-3.469 3.795-4.697 6.922l1.487 0.584c1.172-2.984 2.449-4.969 4.153-6.219 1.134-0.832 2.631-1.266 4.353-1.531-0.486 0.241-0.974 0.483-1.347 0.863-0.995 1.013-1.503 2.465-1.503 4.15h1.6c0-1.371 0.392-2.364 1.047-3.031s1.616-1.056 2.953-1.056v-1.6zM19.659 15.634c0.127 0.444 0.341 0.796 0.341 1.366 0 1.371-0.392 2.364-1.047 3.031s-1.616 1.056-2.953 1.056c-0.564 0-0.913-0.215-1.35-0.347z"></path>
</svg>
