<!-- Generated by IcoMoon.io -->
<svg version="1.1" xmlns="http://www.w3.org/2000/svg" width="32" height="32" viewBox="0 0 32 32">
<title>high_noon_descent</title>
<path d="M12.957 30.97c-0.151-0.050-0.626-0.115-1.954-0.268-0.317-0.036-1.129-0.093-1.804-0.126-1.080-0.052-2.086-0.184-2.189-0.287-0.019-0.019 0.054-0.128 0.161-0.242s0.288-0.403 0.401-0.643c0.113-0.24 0.336-0.596 0.495-0.792s0.357-0.504 0.438-0.685c0.103-0.229 0.385-0.572 0.929-1.13 0.68-0.698 1.013-1.126 1.571-2.026 0.068-0.11 0.398-0.444 0.733-0.741s0.738-0.67 0.897-0.829c0.159-0.158 0.37-0.341 0.469-0.406 0.169-0.11 1.022-1.245 1.111-1.48 0.036-0.093 0.022-0.097-0.113-0.026l-0.154 0.080 0.16-0.185c0.088-0.102 0.196-0.208 0.24-0.236s0.187-0.273 0.318-0.545c0.261-0.541 0.401-0.763 0.694-1.103 0.196-0.227 0.307-0.459 0.379-0.786 0.021-0.098 0.098-0.228 0.171-0.288s0.187-0.218 0.256-0.35c0.068-0.132 0.147-0.24 0.174-0.24 0.076 0 0.433 0.394 0.532 0.587 0.048 0.094 0.36 0.462 0.692 0.819s0.67 0.745 0.75 0.863c0.080 0.117 0.19 0.231 0.244 0.252s0.103 0.104 0.107 0.184c0.006 0.108 0.015 0.117 0.037 0.034 0.046-0.175 0.228-0.039 0.472 0.35 0.117 0.186 0.342 0.493 0.5 0.683s0.348 0.427 0.42 0.528c0.238 0.33 1.214 1.534 1.552 1.913 0.182 0.204 0.365 0.439 0.407 0.523 0.158 0.311 1.16 1.769 1.382 2.011 0.127 0.138 0.271 0.33 0.32 0.426s0.128 0.198 0.175 0.226c0.071 0.043 0.61 0.73 0.94 1.198 0.204 0.289 1.304 1.55 1.449 1.662 0.084 0.065 0.154 0.171 0.154 0.237 0 0.125-0.059 0.142-0.733 0.219-0.174 0.020-0.379 0.077-0.455 0.127-0.113 0.074-0.701 0.095-3.239 0.114-1.705 0.013-3.15 0.046-3.209 0.074s-0.121 0.099-0.137 0.158c-0.025 0.095-0.029 0.094-0.036-0.005s-0.088-0.112-0.76-0.109c-0.414 0.001-0.882 0.032-1.041 0.067-0.64 0.142-3.62 0.291-3.908 0.196zM19.575 29.66c1.081-0.046 1.976-0.145 2.704-0.3 0.317-0.068 0.772-0.143 1.011-0.167s0.426-0.062 0.416-0.083c-0.342-0.704-0.715-1.33-1.116-1.874-0.857-1.163-1.442-1.923-1.918-2.489-0.251-0.299-0.633-0.804-0.849-1.121-0.567-0.834-1.022-1.409-1.115-1.409-0.045 0-0.090-0.073-0.1-0.163s-0.177-0.363-0.369-0.609c-0.364-0.463-2.015-2.255-2.087-2.266-0.023-0.003-0.089 0.114-0.148 0.261s-0.161 0.336-0.227 0.419c-0.066 0.084-0.198 0.356-0.293 0.606s-0.302 0.644-0.458 0.878c-0.157 0.234-0.356 0.569-0.443 0.745s-0.357 0.609-0.602 0.961c-0.245 0.352-0.599 0.871-0.788 1.153-0.652 0.974-1.083 1.54-1.699 2.233-0.34 0.383-0.772 0.901-0.959 1.153s-0.422 0.544-0.522 0.65c-0.1 0.106-0.328 0.423-0.506 0.705l-0.324 0.512 1.455 0.042c0.829 0.024 1.717 0.086 2.063 0.145 0.335 0.056 1.041 0.12 1.57 0.142 0.851 0.035 1.515 0.009 3.796-0.147 0.593-0.041 0.593-0.041 0.6 0.113 0.005 0.094 0.018 0.113 0.035 0.050 0.023-0.087 0.167-0.11 0.873-0.14zM6.063 21.656c-0.196-0.223-0.261-0.325-0.308-0.477-0.037-0.121-0.010-0.15 0.2-0.208 0.134-0.037 0.567-0.068 0.963-0.068s0.843-0.029 0.993-0.064c0.15-0.035 1.114-0.090 2.142-0.122 2.042-0.064 2.125-0.080 2.373-0.448 0.359-0.533-0.030-1.264-0.784-1.472-0.224-0.062-1.342-0.878-1.405-1.026-0.021-0.049 0.009-0.16 0.066-0.248 0.113-0.173 0.123-0.119-0.245-1.288-0.104-0.331-0.116-0.452-0.061-0.641 0.037-0.128 0.086-0.406 0.109-0.617 0.064-0.598 0.218-1.188 0.405-1.552 0.9-1.75 0.96-1.846 1.213-1.937 0.408-0.148 0.595-0.733 0.351-1.099-0.513-0.769-0.888-1.181-1.446-1.589-0.205-0.15-0.594-0.498-0.865-0.773-0.557-0.566-1.351-1.244-1.623-1.384-0.1-0.052-0.182-0.124-0.182-0.161s-0.155-0.231-0.345-0.431c-0.19-0.2-0.482-0.619-0.651-0.932-0.256-0.475-0.367-0.612-0.676-0.833-0.303-0.216-0.411-0.347-0.597-0.722-0.125-0.252-0.296-0.54-0.38-0.641-0.178-0.212-0.391-0.622-0.448-0.863-0.022-0.092-0.175-0.332-0.34-0.532-0.483-0.586-0.585-0.566 2.545-0.491 1.46 0.035 2.971 0.093 3.358 0.128s1.065 0.097 1.505 0.137c0.44 0.040 2.559 0.098 4.709 0.129s4.239 0.084 4.645 0.119c0.405 0.034 1.172 0.064 1.704 0.066 1.631 0.006 3.613 0.171 3.613 0.3 0 0.094-0.219 0.524-0.323 0.635-0.069 0.073-0.233 0.31-0.365 0.527-0.456 0.747-2.030 2.363-2.547 2.614-0.3 0.146-0.896 0.704-1.633 1.53-0.155 0.174-0.482 0.488-0.726 0.698-0.553 0.476-0.748 0.864-0.748 1.489 0 0.484 0.022 0.535 0.515 1.179 0.337 0.441 0.639 0.998 0.639 1.179 0 0.041 0.102 0.286 0.226 0.546 0.206 0.429 0.233 0.553 0.296 1.344 0.073 0.919 0.057 1.269-0.111 2.409-0.212 1.444-0.286 1.7-0.616 2.144-0.501 0.675-0.736 1.334-0.568 1.599 0.049 0.077 0.075 0.078 0.161 0.007 0.087-0.073 0.125-0.065 0.251 0.054 0.081 0.076 0.238 0.165 0.349 0.197s1.458 0.079 2.994 0.104l2.793 0.047 0.097 0.148c0.053 0.081 0.112 0.262 0.131 0.4l0.034 0.252-1.625 0.027c-1.305 0.022-1.654 0.010-1.773-0.061-0.253-0.152-1.224-0.296-2.161-0.32-0.874-0.023-0.906-0.019-1.137 0.138-0.131 0.089-0.238 0.144-0.238 0.123s-0.041-0.004-0.091 0.038c-0.072 0.060-0.154 0.030-0.4-0.149-0.17-0.123-0.37-0.284-0.444-0.356s-0.162-0.131-0.194-0.131c-0.033 0-0.211-0.154-0.397-0.342l-0.337-0.342 0.541-0.347c0.39-0.25 0.641-0.472 0.899-0.796 0.197-0.247 0.359-0.477 0.36-0.512s0.102-0.308 0.225-0.606c0.263-0.639 0.282-1.004 0.127-2.501-0.117-1.132-0.245-1.74-0.498-2.37-0.106-0.264-0.219-0.575-0.252-0.691-0.076-0.273-0.534-0.749-0.846-0.879-0.447-0.187-0.797-0.013-1.648 0.815-0.5 0.487-0.97 0.884-1.047 0.884-0.075 0-0.888 0.588-1.134 0.819l-0.235 0.221-0.295-0.212c-0.29-0.208-0.805-0.821-0.805-0.957 0-0.038-0.059-0.186-0.132-0.328-0.158-0.31-0.583-0.536-0.874-0.465-0.243 0.059-0.515 0.257-0.564 0.411-0.022 0.070-0.074 0.127-0.116 0.127-0.094 0.001-0.275 0.275-0.824 1.249-0.391 0.694-0.493 1.197-0.52 2.579-0.017 0.881-0.005 1.105 0.062 1.105 0.046 0 0.084 0.027 0.084 0.059 0 0.126 0.353 0.469 0.759 0.736 0.505 0.332 0.758 0.529 0.935 0.73 0.349 0.394 0.467 0.509 0.659 0.644l0.208 0.146-0.272 0.388c-0.293 0.418-1.112 1.167-1.425 1.303-0.239 0.104-1.41 0.229-2.755 0.296-1.8 0.089-2.686 0.162-2.871 0.238-0.225 0.092-0.192 0.099-0.34-0.070zM16 11.307c0.45-0.433 0.804-0.8 0.787-0.817s-0.123 0.002-0.237 0.042c-0.126 0.044-0.424 0.059-0.763 0.038-0.515-0.032-0.594-0.020-1.069 0.166-0.282 0.11-0.522 0.206-0.534 0.213-0.038 0.023 0.914 1.179 0.957 1.162 0.023-0.009 0.409-0.371 0.858-0.803zM14.201 9.463c0.355-0.018 0.891-0.093 1.19-0.168 0.319-0.080 0.903-0.156 1.409-0.185 0.753-0.042 1.741-0.139 2.146-0.209 0.073-0.013 0.258-0.213 0.429-0.465 0.166-0.243 0.474-0.633 0.685-0.866s0.592-0.68 0.846-0.993c0.254-0.313 0.725-0.843 1.046-1.178s0.822-0.885 1.112-1.223c0.29-0.338 0.65-0.713 0.799-0.833l0.272-0.219-1.185-0.044c-1.4-0.051-2.128-0.12-3.171-0.298-0.75-0.128-2.29-0.275-4.356-0.416-0.564-0.038-1.967-0.062-3.117-0.052-2.070 0.017-2.098 0.016-2.595-0.141-0.716-0.225-1.611-0.363-2.583-0.398l-0.843-0.030 0.045 0.144c0.258 0.834 1.138 1.982 2.885 3.764 0.604 0.617 1.384 1.438 1.732 1.824 1.090 1.212 1.718 1.858 1.818 1.871 0.053 0.007 0.211 0.056 0.352 0.11s0.297 0.083 0.347 0.066c0.050-0.017 0.382-0.046 0.737-0.064z"></path>
</svg>
