<!-- Generated by IcoMoon.io -->
<svg version="1.1" xmlns="http://www.w3.org/2000/svg" width="32" height="32" viewBox="0 0 32 32">
<title>horror_in_high_gear</title>
<path d="M16.267 13.025c-0.064 0.051-0.138 0.091-0.183 0.163-0.025 0.039-0.023 0.083-0.042 0.124-0.040 0.087-0.154 0.151-0.215 0.224-0.148 0.176-0.258 0.362-0.281 0.592-0.005 0.051-0.010 0.081-0.023 0.132-0.025 0.098 0.009 0.191 0.029 0.285 0.018 0.092 0.031 0.186 0.088 0.26 0.077 0.098 0.193 0.167 0.298 0.226 0.102 0.059 0.199 0.125 0.303 0.177 0.237 0.116 0.548 0.074 0.803 0.073 0.301-0.001 0.6 0.007 0.899-0.022 0.276-0.026 0.536-0.077 0.815-0.074 0.51 0.005 1.015 0.001 1.523-0.038 0.4-0.031 0.799-0.023 1.199-0.021 0.316 0.001 0.617-0.025 0.932-0.061 0.489-0.057 1.062 0.019 1.515-0.217 0.267-0.139 0.461-0.387 0.62-0.636 0.086-0.135 0.17-0.269 0.203-0.428 0.027-0.132 0.021-0.275 0.009-0.409-0.014-0.156-0.049-0.306-0.055-0.463-0.001-0.072 0.004-0.152-0.005-0.224-0.018-0.134-0.143-0.273-0.221-0.375-0.099-0.126-0.198-0.234-0.341-0.314-0.137-0.078-0.256-0.151-0.376-0.254-0.176-0.15-0.47-0.14-0.682-0.199-0.177-0.048-0.351-0.047-0.534-0.047-0.26 0.003-0.519 0.003-0.78 0-0.595-0.008-1.187 0.109-1.754 0.277-0.272 0.079-0.548 0.126-0.823 0.193-0.297 0.072-0.571 0.202-0.854 0.315-0.357 0.142-0.728 0.241-1.097 0.342-0.332 0.090-0.64 0.237-0.958 0.368-0.689 0.285-0.004 0.026-0.004 0.026-0.002 0.003-0.005 0.003-0.008 0.005z"></path>
<path d="M25.232 12.728c-0.052 0.090-0.070 0.191-0.126 0.281-0.032 0.053-0.051 0.086-0.069 0.144-0.049 0.157-0.022 0.268 0.070 0.402 0.174 0.254 0.535 0.44 0.829 0.498 0.095 0.020 0.177 0.057 0.271 0.079 0.090 0.021 0.177 0.014 0.268 0.029 0.172 0.027 0.344 0.025 0.522 0.025 0.19 0 0.381-0.003 0.571 0 0.086 0.001 0.102 0.011 0.133-0.062 0.022-0.053 0.023-0.101 0.035-0.159 0.029-0.139 0.078-0.268 0.098-0.41 0.022-0.156 0.022-0.309 0.023-0.466 0-0.113-0.012-0.221-0.038-0.332-0.026-0.107-0.092-0.189-0.128-0.291-0.057-0.168-0.233-0.259-0.337-0.398-0.047-0.064-0.125-0.228-0.342-0.287-0.040-0.012-0.061 0.018-0.092 0.032-0.020-0.005-0.038-0.004-0.055 0.004-0.013 0.025-0.035 0.042-0.062 0.049-0.14 0.065-0.324 0.039-0.471 0.078-0.065 0.017-0.139 0.052-0.198 0.083-0.098 0.052-0.219 0.1-0.306 0.168-0.062 0.049-0.124 0.104-0.189 0.153-0.135 0.103-0.32 0.228-0.407 0.379z"></path>
<path d="M20.545 9.97c0.182 0.007 0.368 0.007 0.55 0 0.155-0.005 0.298-0.056 0.45-0.062 0.186-0.009 0.374-0.085 0.56-0.096 0.259-0.018 0.527 0.003 0.787 0.001 0.215-0.001 0.478 0.034 0.681 0.107 0.289 0.107 0.614 0.186 0.872 0.362 0.072 0.048 0.104 0.125 0.161 0.187 0.079 0.085 0.053 0.168 0.094 0.272s0.039 0.21 0.032 0.323c-0.005 0.097-0.061 0.185-0.066 0.284-0.001 0.046 0.009 0.082-0.002 0.128-0.013 0.055-0.051 0.095-0.060 0.152-0.008 0.056 0.004 0.126 0.002 0.183 0 0.061-0.020 0.143 0.038 0.182 0.017 0.012 0.036 0.001 0.053 0.005 0.083 0.025 0.169 0.042 0.19-0.030 0.058-0.007 0.074-0.090 0.092-0.135 0.053-0.132 0.1-0.266 0.157-0.394 0.118-0.264 0.256-0.528 0.15-0.82-0.046-0.129-0.107-0.307-0.211-0.397-0.113-0.098-0.251-0.167-0.372-0.255-0.090-0.066-0.186-0.121-0.268-0.199-0.112-0.105-0.206-0.182-0.342-0.254-0.243-0.129-0.497-0.246-0.756-0.341-0.124-0.046-0.242-0.111-0.37-0.142-0.148-0.038-0.298-0.030-0.45-0.030-0.279 0-0.552 0.009-0.83 0.023-0.253 0.012-0.497 0.042-0.747 0.064-0.12 0.011-0.238-0.001-0.357 0.005-0.076 0.005-0.15 0.035-0.224 0.055-0.078 0.020-0.142 0.032-0.22 0.039-0.062 0.005-0.087 0.018-0.131 0.060-0.121 0.117-0.238 0.357-0.087 0.486 0.182 0.155 0.381 0.229 0.623 0.238z"></path>
<path d="M25.575 20.996c0.202-0.022 0.402-0.137 0.557-0.262 0.187-0.154 0.392-0.354 0.506-0.566 0.113-0.208 0.23-0.412 0.349-0.616 0.051-0.089 0.129-0.16 0.182-0.247 0.068-0.105 0.108-0.219 0.161-0.331 0.121-0.254 0.329-0.436 0.564-0.579 0.221-0.134 0.448-0.25 0.664-0.394 0.105-0.070 0.221-0.122 0.328-0.191 0.131-0.084 0.241-0.199 0.368-0.29 0.38-0.271 0.828-0.421 1.279-0.523 0.16-0.036 0.329-0.066 0.482-0.124 0.092-0.034 0.129-0.040 0.215-0.094-0.091-0.086-0.207-0.143-0.294-0.239-0.083-0.091-0.152-0.146-0.263-0.198-0.181-0.084-0.368-0.185-0.56-0.245-0.345-0.109-0.713-0.129-1.071-0.161-0.337-0.030-0.672-0.031-1.010-0.031-0.44 0.001-0.897-0.033-1.325 0.094-0.098 0.030-0.19 0.066-0.288 0.094-0.114 0.031-0.213 0.087-0.324 0.124-0.211 0.069-0.42 0.156-0.629 0.238-0.176 0.070-0.286 0.121-0.419 0.259-0.177 0.182-0.23 0.396-0.355 0.608-0.098 0.167-0.169 0.335-0.29 0.487-0.108 0.133-0.185 0.281-0.264 0.432-0.084 0.164-0.172 0.336-0.22 0.515-0.105 0.393-0.098 0.806-0.092 1.208 0.001 0.081-0.029 0.142-0.031 0.221 0 0.055 0.001 0.099-0.006 0.156-0.008 0.053-0.005 0.159-0.049 0.198 0.030 0.042 0.039 0.122 0.027 0.178-0.016 0.069-0.066 0.122-0.004 0.181 0.036 0.034 0.095 0.035 0.14 0.042 0.13 0.020 0.25 0.029 0.381 0.029 0.148-0.001 0.297-0.007 0.444-0.003 0.117 0.003 0.229 0.030 0.345 0.034 0.163 0.007 0.342 0.016 0.502-0.003z"></path>
<path d="M31.1 18.207c-0.018-0.147-0.060-0.266-0.113-0.402-0.030-0.081-0.056-0.251-0.163-0.276-0.209 0.023-0.286 0.017-0.374 0.053-0.098 0.040-0.223 0.074-0.275 0.172-0.069 0.129-0.070 0.254-0.070 0.397 0.001 0.255-0.006 0.505 0.025 0.759 0.035 0.29 0.018 0.623-0.031 0.906-0.025 0.146-0.079 0.281-0.112 0.426-0.010 0.052-0.016 0.108-0.036 0.157-0.057 0.138-0.167 0.25-0.282 0.341-0.092 0.074-0.182 0.135-0.259 0.226-0.048 0.057-0.094 0.111-0.155 0.155-0.113 0.086-0.2 0.215-0.323 0.285-0.102 0.057-0.178 0.143-0.297 0.177-0.096 0.026-0.189 0.034-0.284 0.069-0.074 0.029-0.14 0.044-0.219 0.056-0.249 0.038-0.498 0.104-0.751 0.101-0.206-0.001-0.415 0.012-0.62 0.001-0.281-0.016-0.531-0.082-0.751-0.262-0.044-0.035-0.148-0.094-0.18-0.144-0.021-0.035 0.004-0.061-0.032-0.091-0.030-0.025-0.129-0.007-0.159 0-0.072 0.016-0.128 0.065-0.197 0.083s-0.133 0.012-0.2 0.035c-0.078 0.025-0.268 0.056-0.327 0.126-0.062 0.073 0.049 0.108 0.098 0.156 0.057 0.057 0.082 0.113 0.122 0.18 0.108 0.172 0.29 0.325 0.471 0.416 0.102 0.051 0.212 0.086 0.318 0.13 0.058 0.023 0.114 0.065 0.174 0.082 0.058 0.016 0.113 0.016 0.172 0.034 0.368 0.115 0.765 0.126 1.148 0.126 0.215 0 0.441 0.022 0.655-0.005 0.172-0.022 0.337-0.066 0.502-0.12 0.216-0.069 0.431-0.14 0.633-0.249 0.163-0.087 0.316-0.191 0.474-0.288 0.103-0.062 0.174-0.129 0.26-0.208 0.072-0.065 0.155-0.096 0.229-0.16 0.193-0.168 0.323-0.371 0.465-0.578 0.112-0.164 0.157-0.336 0.233-0.518 0.094-0.224 0.138-0.441 0.165-0.681 0.017-0.139 0.057-0.267 0.081-0.405 0.018-0.105 0.016-0.212 0.029-0.319 0.023-0.183 0.026-0.335 0.001-0.519-0.021-0.142-0.029-0.285-0.046-0.427z"></path>
<path d="M19.516 17.592c0.039-0.042 0.068-0.087 0.111-0.124 0.038-0.033 0.144-0.069 0.138-0.314-0.016-0.156-0.15-0.281-0.193-0.428-0.027-0.094-0.090-0.161-0.111-0.258-0.023-0.104-0.062-0.268-0.117-0.355-0.207-0.336-0.669-0.413-1.018-0.288-0.241 0.087-0.483 0.254-0.741 0.268-0.057 0.004-0.109 0-0.134 0.060-0.006 0.014 0.001 0.048-0.005 0.064-0.008 0.026-0.046 0.049-0.051 0.070-0.010 0.042 0.010 0.048 0.031 0.081 0.061 0.094 0.121 0.19 0.168 0.291 0.044 0.092 0.095 0.181 0.139 0.273 0.023 0.049 0.042 0.101 0.062 0.152 0.030 0.077 0.072 0.104 0.111 0.17 0.040 0.065 0.061 0.124 0.108 0.186 0.065 0.087 0.121 0.182 0.187 0.268 0.122 0.158 0.228 0.319 0.337 0.487 0.047 0.070 0.094 0.113 0.133 0.189 0.030 0.060 0.057 0.116 0.084 0.177 0.044 0.095 0.087 0.18 0.117 0.278 0.027 0.094 0.095 0.169 0.148 0.25 0.031 0.047 0.049 0.082 0.102 0.095 0.042 0.012 0.112-0.001 0.156-0.001 0.062 0 0.224 0.030 0.262-0.029 0.053-0.086-0.014-0.19-0.065-0.251-0.1-0.121-0.163-0.288-0.22-0.432-0.038-0.095-0.055-0.151-0.053-0.255 0-0.088-0.001-0.16 0.036-0.242 0.065-0.14 0.172-0.273 0.276-0.384z"></path>
<path d="M23.263 16.397c-0.058-0.048-0.112-0.109-0.172-0.16-0.091-0.077-0.197-0.134-0.294-0.202-0.068-0.048-0.125-0.108-0.193-0.154-0.23-0.151-0.463-0.251-0.739-0.259-0.255-0.009-0.515-0.007-0.772 0.001-0.095 0.003-0.092 0.029-0.116 0.126-0.043 0.178-0.099 0.346-0.126 0.528-0.029 0.195-0.074 0.405-0.14 0.591-0.034 0.098-0.117 0.208-0.133 0.285 0.112-0.001 0.204-0.031 0.32-0.031 0.173 0.001 0.302 0.004 0.461 0.084 0.070 0.036 0.081 0.060 0.096 0.137 0.010 0.048 0.044 0.086 0.055 0.131 0.006 0.029-0.001 0.058 0.004 0.086 0.021 0.103 0.047 0.191 0.066 0.291 0.066 0.333 0.066 0.763-0.128 1.060-0.081 0.125-0.144 0.146-0.275 0.186-0.013 0.004-0.035 0.018-0.053 0.023-0.049 0.014-0.108 0.004-0.16 0.022-0.064 0.023-0.096 0.058-0.068 0.128 0.049 0.125 0.243 0.1 0.348 0.1 0.139 0 0.293-0.017 0.431 0.003 0.070 0.011 0.117 0.061 0.183 0.061 0.057 0 0.058-0.014 0.084-0.060 0.060-0.107 0.078-0.234 0.135-0.344 0.061-0.114 0.078-0.228 0.12-0.351 0.060-0.185 0.169-0.358 0.267-0.525 0.099-0.165 0.168-0.342 0.264-0.508 0.070-0.12 0.174-0.232 0.217-0.364 0.032-0.096 0.055-0.198 0.107-0.289 0.047-0.081 0.069-0.172 0.124-0.247 0.060-0.084 0.094-0.137 0.122-0.235 0.026-0.089 0.027-0.064-0.036-0.116z"></path>
<path d="M21.062 17.999c-0.027-0.154-0.023-0.328-0.17-0.415-0.157-0.092-0.355-0.052-0.534-0.055-0.091-0.001-0.242-0.014-0.297 0.078-0.029 0.047-0.014 0.117-0.014 0.172-0.23 0.007-0.236 0.051-0.256 0.099-0.034 0.079-0.076 0.152-0.113 0.23-0.055 0.113-0.077 0.208-0.069 0.335 0.012 0.223 0.178 0.358 0.371 0.446 0.118 0.053 0.267 0.073 0.397 0.078 0.125 0.005 0.272 0.017 0.389-0.038 0.159-0.076 0.236-0.236 0.281-0.393 0.048-0.168 0.047-0.364 0.016-0.537z"></path>
<path d="M10.567 15.246c0.086 0.027 0.167 0.068 0.259 0.082 0.325 0.052 0.656 0.018 0.981 0.060 0.38 0.049 0.761 0.082 1.143 0.113 0.186 0.016 0.367 0.072 0.55 0.090 0.194 0.019 0.398 0.001 0.594 0.001 0.144 0.001 0.295 0.001 0.435-0.048 0.048-0.017 0.281-0.104 0.268-0.171l0.469-0.25c-0.043-0.009-0.072-0.059-0.095-0.092-0.074-0.104-0.112-0.226-0.155-0.345-0.038-0.105-0.075-0.213-0.125-0.315-0.038-0.076-0.061-0.163-0.117-0.225-0.073-0.082-0.184-0.116-0.286-0.155-0.133-0.052-0.276-0.058-0.409-0.092-0.082-0.022-0.169-0.023-0.25-0.040-0.157-0.034-0.338-0.016-0.504-0.016h-0.871c-0.275 0-0.544-0.042-0.791-0.172-0.098-0.051-0.156-0.111-0.271-0.109-0.103 0-0.194 0.017-0.28 0.077-0.081 0.056-0.126 0.122-0.187 0.197-0.070 0.085-0.148 0.154-0.19 0.258-0.039 0.095-0.074 0.19-0.116 0.284-0.043 0.099-0.107 0.2-0.13 0.306-0.030 0.138-0.096 0.316-0.035 0.44 0.029 0.056 0.044 0.101 0.113 0.124z"></path>
<path d="M3.675 16.529c0.084 0.003 0.15 0.038 0.22 0.001 0.104-0.053 0.208-0.134 0.297-0.211 0.057-0.051 0.109-0.107 0.173-0.148 0.042-0.027 0.087-0.046 0.125-0.079 0.088-0.078 0.129-0.121 0.246-0.164 0.001-0.008 0.001-0.016 0.128-0.055-0.012-0.061 0.039-0.107 0.032-0.172-0.006-0.072-0.061-0.135-0.087-0.202-0.035-0.086-0.046-0.159-0.117-0.221-0.075-0.065-0.157-0.099-0.251-0.132-0.109-0.038-0.202-0.079-0.321-0.087-0.092-0.005-0.181-0.034-0.273-0.031-0.070 0.003-0.105 0.020-0.133 0.092-0.014 0.039-0.009 0.087-0.021 0.128-0.017 0.062-0.044 0.121-0.061 0.185-0.029 0.117-0.008 0.229-0.016 0.348-0.008 0.103-0.023 0.217-0.040 0.318-0.017 0.105-0.022 0.2-0.025 0.306-0.001 0.112 0.016 0.121 0.125 0.125z"></path>
<path d="M9.518 17.967l0.004-0.008c-0.001-0.005-0.005-0.009-0.006-0.014 0.001 0.008 0.001 0.014 0.002 0.022z"></path>
<path d="M17.236 18.13c-0.076-0.114-0.133-0.207-0.182-0.337-0.048-0.128-0.111-0.245-0.178-0.363-0.082-0.144-0.144-0.291-0.212-0.443-0.137-0.309-0.332-0.573-0.498-0.864-0.107-0.189-0.247-0.252-0.43-0.344-0.164 0.234-0.21 0.199-0.263 0.193-0.053 0.012-0.109 0.021-0.164 0.026-0.078 0.009-0.156 0.018-0.234 0.023-0.076 0.008-0.139 0.021-0.213 0.039-0.173 0.044-0.342 0.053-0.514 0.111-0.169 0.056-0.346 0.065-0.523 0.092-0.427 0.068-0.849 0.035-1.279 0.046-0.258 0.005-0.512 0.038-0.767 0.062-0.128 0.014-0.324 0.020-0.42 0.126-0.082 0.091-0.133 0.22-0.178 0.332-0.031 0.078-0.075 0.143-0.062 0.228 0.014 0.097 0.081 0.194 0.12 0.282 0.058 0.134 0.122 0.264 0.18 0.4 0.126 0.294 0.25 0.574 0.407 0.852 0.111 0.198 0.226 0.395 0.344 0.588 0.044 0.074 0.098 0.138 0.165 0.193 0.056 0.046 0.124 0.069 0.182 0.105 0.062 0.038 0.090 0.049 0.172 0.051 0.053 0.001 0.104-0.005 0.157 0.001 0.083 0.009 0.161 0.042 0.247 0.053 0.422 0.057 0.841 0.068 1.266 0.070 0.344 0.001 0.677-0.055 1.018-0.064 0.498-0.014 1-0.003 1.498 0.001 0.23 0.001 0.6 0.034 0.725-0.207 0.074-0.142 0.055-0.336 0.004-0.482-0.055-0.161-0.173-0.289-0.237-0.444-0.044-0.109-0.061-0.228-0.129-0.329z"></path>
<path d="M20.702 19.466l-0.469 0.156c-0.107-0.062-0.253-0.057-0.375-0.078-0.112-0.018-0.219-0.016-0.332-0.016-0.113-0.001-0.268-0.023-0.372 0.030-0.043 0.022-0.098 0.070-0.122 0.111-0.027 0.046-0.017 0.082-0.062 0.122-0.031 0.027-0.092 0.074-0.125 0.095-0.055 0.032-0.129 0.017-0.191 0.023-0.224 0.023-0.448 0.078-0.672 0.089-0.277 0.014-0.561-0.001-0.839-0.001-0.302 0-0.604 0.001-0.906 0-0.182 0-0.359 0.009-0.54 0.023-0.225 0.019-0.449 0.048-0.674 0.064-0.659 0.047-1.319 0.038-1.978 0.038h-2.393c0.036-0.125 0.064-0.258 0.079-0.381 0.022-0.168 0.005-0.346 0.006-0.515 0-0.163-0.025-0.316-0.032-0.476-0.006-0.134-0.004-0.273-0.036-0.406-0.018-0.072-0.060-0.131-0.079-0.203-0.047-0.163-0.111-0.32-0.172-0.478-0.056-0.148-0.107-0.316-0.234-0.417-0.056-0.046-0.152-0.114-0.226-0.122l-0.433 0.836c0.020 0.060 0.064 0.109 0.088 0.167 0.039 0.089 0.090 0.191 0.114 0.284 0.058 0.215 0.009 0.491-0.012 0.708-0.020 0.193-0.052 0.355-0.135 0.532-0.073 0.151-0.176 0.286-0.249 0.439-0.006 0.012-0.014 0.023-0.021 0.034-0.571 0-1.143-0.001-1.714 0.001-0.262 0.001-0.519-0.035-0.78-0.034-0.253 0.001-0.505 0.011-0.756-0.005-0.052-0.004-0.103-0.004-0.155-0.007 0.020-0.048 0.039-0.096 0.060-0.143 0.156-0.36 0.404-0.681 0.64-0.993 0.156-0.204 0.333-0.422 0.549-0.566 0.173-0.116 0.354-0.22 0.531-0.328 0.151-0.094 0.307-0.181 0.466-0.262 0.066-0.035 0.134-0.040 0.2-0.068 0.070-0.031 0.122-0.089 0.189-0.126 0.053-0.029 0.088-0.057 0.139-0.094 0.078-0.055 0.169-0.082 0.255-0.125 0.161-0.081 0.303-0.189 0.432-0.315 0.182-0.18 0.297-0.354 0.371-0.6 0.032-0.103 0.073-0.21 0.091-0.318 0.020-0.121 0.001-0.258 0.002-0.38 0.002-0.215-0.108-0.307-0.062-0.48-0.014-0.070-0.104-0.077-0.156-0.101-0.032-0.016-0.060-0.048-0.092-0.057-0.021-0.005-0.044 0.007-0.064 0.004-0.032-0.005-0.070-0.023-0.1-0.033-0.099-0.030-0.202-0.044-0.298-0.070-0.046-0.012-0.076-0.025-0.133-0.023-0.081 0.001-0.143-0.020-0.22-0.034-0.075-0.014-0.169 0.001-0.247 0.001h-0.772c-0.134 0.001-0.228 0.035-0.361 0.069-0.113 0.029-0.236 0.062-0.345 0.101-0.064 0.022-0.121 0.061-0.183 0.083-0.035 0.012-0.091 0.014-0.126 0.027-0.129 0.052-0.26 0.121-0.393 0.173-0.066 0.026-0.135 0.046-0.202 0.069-0.076 0.027-0.116 0.055-0.182 0.096-0.098 0.061-0.212 0.1-0.311 0.16-0.299 0.183-0.647 0.32-0.927 0.534-0.095 0.072-0.193 0.139-0.277 0.223-0.078 0.076-0.157 0.144-0.238 0.219-0.079 0.073-0.173 0.126-0.246 0.204-0.177 0.19-0.31 0.411-0.469 0.613-0.112 0.14-0.202 0.299-0.282 0.461-0.050 0.099-0.081 0.203-0.13 0.303-0.034 0.066-0.062 0.116-0.079 0.191-0.013 0.060-0.021 0.121-0.030 0.182-0.014 0.096-0.046 0.172-0.066 0.263-0.023 0.111-0.012 0.229-0.043 0.338-0.026 0.094-0.079 0.191-0.117 0.281-0.035 0.082-0.083 0.165-0.126 0.243-0.008 0.014-0.013 0.027-0.020 0.042-0.194-0.027-0.385-0.061-0.578-0.091-0.181-0.027-0.456-0.035-0.582 0.126-0.079 0.102-0.141 0.228-0.211 0.336-0.095 0.144-0.178 0.346-0.202 0.521-0.013 0.1 0.049 0.156 0.139 0.197 0.079 0.036 0.19 0.064 0.276 0.066 0.211 0.008 0.424 0.007 0.636 0.005-0.029 0.070-0.061 0.131-0.117 0.194-0.010 0.014-0.056 0.051-0.056 0.065 0 0.052 0.085 0.046 0.114 0.053 0.102 0.025 0.19 0.048 0.293 0.064 0.126 0.020 0.243 0.023 0.372 0.023 0.226 0 0.454 0 0.682 0 0.186 0 0.375 0.008 0.561 0.003 0.269-0.011 0.518-0.12 0.769-0.206 0.103-0.035 0.203-0.088 0.31-0.107 0.076-0.012 0.134-0.025 0.204-0.056 0.004-0.003 0.008-0.005 0.012-0.008 0.038 0 0.075-0.001 0.113-0.001 0.56 0 1.119 0.001 1.68 0 0.271 0 0.548-0.018 0.817 0.018 0.245 0.034 0.478 0.047 0.725 0.046 0.039 0 0.079 0 0.12 0-0.009 0.011-0.018 0.021-0.027 0.032-0.066 0.090-0.102 0.193-0.181 0.273-0.156 0.163-0.333 0.226-0.538 0.311-0.102 0.042-0.183 0.081-0.29 0.101-0.109 0.020-0.219 0.033-0.328 0.055-0.396 0.079-0.798 0.069-1.2 0.069-0.15 0-0.301 0.007-0.45 0.001-0.16-0.005-0.301-0.052-0.453-0.095-0.187-0.053-0.357-0.118-0.524-0.22-0.055-0.032-0.085-0.052-0.137-0.040-0.043 0.011-0.081 0.049-0.117 0.073-0.060 0.038-0.105 0.055-0.173 0.078-0.096 0.032-0.241 0.099-0.299 0.189-0.209 0.316 0.424 0.517 0.6 0.639 0.095 0.068 0.224 0.082 0.329 0.125 0.122 0.051 0.251 0.065 0.377 0.101 0.344 0.098 0.678 0.168 1.036 0.206 0.178 0.018 0.362 0.011 0.539-0.016 0.178-0.027 0.389-0.049 0.549-0.133 0.19-0.099 0.396-0.152 0.597-0.221 0.176-0.060 0.338-0.114 0.508-0.193 0.655-0.299 1.222-0.773 1.662-1.339 1.134 0 2.267 0.001 3.4 0.001h3.869c0.135 0 0.273 0.007 0.409-0.001 0.167-0.011 0.337-0.046 0.504-0.069s0.336-0.040 0.502-0.068c0.178-0.029 0.357-0.095 0.534-0.134 0.458-0.1 0.828-0.329 1.143-0.664 0.112-0.118 0.265-0.249 0.285-0.417 0.008-0.061 0.014-0.206-0.008-0.267-0.009-0.001-0.017-0.004-0.026-0.005z"></path>
<path d="M28.356 18.56c-0.45 0.223-0.592 0.409-0.663 0.5-0.105 0.134-0.203 0.276-0.253 0.437-0.026 0.083-0.040 0.174-0.051 0.26-0.012 0.095-0.018 0.131 0.074 0.161 0.138 0.046 0.277 0.070 0.426 0.040 0.189-0.039 0.371-0.077 0.522-0.211 0.134-0.118 0.254-0.316 0.258-0.498 0.004-0.167-0.023-0.329-0.072-0.488-0.023-0.078-0.15-0.223-0.242-0.202z"></path>
<path d="M7.383 18.558c-0.109 0.044-0.212 0.073-0.306 0.15-0.146 0.12-0.265 0.338-0.318 0.517-0.038 0.126-0.088 0.294-0.056 0.43 0.022 0.096 0.121 0.102 0.203 0.091 0.070-0.009 0.138-0.039 0.207-0.053 0.073-0.016 0.147-0.021 0.219-0.044 0.092-0.031 0.155-0.092 0.21-0.172 0.062-0.091 0.137-0.171 0.204-0.259 0.108-0.139 0.116-0.279 0.116-0.446 0-0.068 0.009-0.139-0.008-0.204-0.012-0.049-0.031-0.077-0.023-0.13-0.371 0.086-0.396 0.102-0.448 0.122z"></path>
</svg>
