<!-- Generated by IcoMoon.io -->
<svg version="1.1" xmlns="http://www.w3.org/2000/svg" width="32" height="32" viewBox="0 0 32 32">
<title>hudulfolk</title>
<path d="M27.188 26.964c-0.077-0.069-0.086-0.143-0.099-0.82-0.017-0.851-0.062-1.386-0.117-1.402s-0.314-0.040-0.667-0.060c-0.139-0.008-0.279-0.017-0.31-0.020l-0.057-0.006 0 0.946c0 0.52-0.004 0.996-0.008 1.058-0.010 0.126-0.025 0.154-0.088 0.166-0.040 0.007-0.116-0.022-0.131-0.051-0.032-0.061-0.059-0.583-0.082-1.597-0.006-0.284-0.014-0.519-0.018-0.523s-0.060-0.003-0.125 0.002c-0.065 0.005-0.318 0.016-0.561 0.025s-0.444 0.018-0.446 0.020c-0.002 0.002 0.008 0.371 0.023 0.82 0.030 0.913 0.031 1.243 0.002 1.296-0.042 0.078-0.158 0.065-0.2-0.023-0.050-0.105-0.101-0.587-0.126-1.197-0.013-0.317-0.007-0.897 0.011-1.012 0.039-0.252 0.156-0.325 0.396-0.248 0.137 0.044 0.243 0.047 0.587 0.014 0.437-0.041 0.434-0.037 0.424-0.522-0.008-0.406-0.094-1.702-0.151-2.279-0.036-0.364-0.044-0.569-0.055-1.34-0.009-0.666-0.018-0.988-0.040-1.4-0.026-0.486-0.063-0.895-0.089-0.987-0.024-0.082-0.073-0.111-0.284-0.164-0.245-0.062-0.439-0.136-0.66-0.251-0.183-0.096-0.363-0.219-0.473-0.324-0.32-0.305-0.904-1.13-1.083-1.527-0.024-0.053-0.053-0.135-0.064-0.182-0.026-0.105-0.049-0.143-0.109-0.172-0.072-0.036-0.186-0.038-0.48-0.010-0.243 0.023-0.27 0.024-1.301 0.023-1.14-0-1.484-0.008-3.274-0.071-0.261-0.009-0.476-0.015-0.478-0.012s0.006 0.205 0.020 0.451c0.013 0.246 0.028 0.576 0.034 0.734 0.017 0.477 0.023 1.468 0.012 2.184l-0.010 0.675 0.107 0.144c0.222 0.299 0.307 0.467 0.359 0.708 0.018 0.083 0.022 0.135 0.022 0.285 0.001 0.238-0.035 0.476-0.119 0.779-0.063 0.229-0.124 0.348-0.245 0.474-0.086 0.090-0.109 0.131-0.131 0.237-0.032 0.157-0.044 0.396-0.077 1.521l-0.022 0.752 0.169 0.171c0.289 0.292 0.291 0.296 0.391 0.695 0.15 0.596 0.192 0.908 0.193 1.433 0.001 0.345-0.005 0.381-0.075 0.457-0.103 0.112-0.231 0.114-0.329 0.006-0.068-0.075-0.086-0.2-0.086-0.597-0-0.26-0.014-0.553-0.030-0.676-0.006-0.041-0.024-0.115-0.040-0.164s-0.055-0.171-0.084-0.272c-0.062-0.21-0.088-0.28-0.113-0.302-0.015-0.014-0.019-0.014-0.029-0.002-0.034 0.041-0.055 0.266-0.071 0.766-0.020 0.652-0.048 0.849-0.131 0.944-0.023 0.026-0.040 0.035-0.076 0.040-0.065 0.009-0.101 0.020-0.216 0.070-0.061 0.026-0.134 0.049-0.189 0.059-0.197 0.034-0.837 0.042-1.171 0.014-0.313-0.026-0.476-0.082-0.527-0.18-0.026-0.050-0.034-0.216-0.043-0.911-0.009-0.662-0.014-0.773-0.039-0.797-0.016-0.016-0.066 0.035-0.1 0.102-0.081 0.16-0.242 0.631-0.313 0.91-0.014 0.055-0.032 0.152-0.040 0.213-0.020 0.151-0.074 0.314-0.131 0.397-0.036 0.052-0.081 0.070-0.173 0.070-0.058 0-0.085-0.005-0.11-0.019-0.115-0.067-0.114-0.202 0.003-0.777 0.094-0.465 0.171-0.722 0.278-0.939 0.097-0.196 0.204-0.339 0.458-0.613l0.096-0.104 0.014-2.070-0.213-0.211c-0.271-0.267-0.385-0.413-0.494-0.632-0.111-0.222-0.167-0.46-0.156-0.671 0.007-0.149 0.026-0.232 0.111-0.487 0.040-0.121 0.094-0.29 0.119-0.377 0.052-0.176 0.125-0.341 0.208-0.465 0.101-0.152 0.224-0.274 0.316-0.316 0.028-0.012 0.054-0.033 0.062-0.047 0.047-0.091 0.056-0.42 0.058-2.075 0.001-1.112-0.001-1.423-0.011-1.493-0.014-0.095-0.031-0.139-0.057-0.149-0.036-0.014-0.641-0.026-1.772-0.036-1.491-0.013-2.498-0.034-2.572-0.055-0.048-0.013-0.303-0.024-0.371-0.015-0.14 0.018-0.164 0.044-0.177 0.188-0.031 0.372-0.317 0.957-0.695 1.426-0.194 0.24-0.509 0.531-0.692 0.64-0.116 0.069-0.25 0.117-0.741 0.264-0.305 0.091-0.481 0.149-0.489 0.16-0.022 0.031-0.026 0.087-0.014 0.237 0.057 0.72 0.11 2.633 0.126 4.557 0.008 0.959 0.021 1.453 0.044 1.631 0.010 0.078 0.020 0.144 0.022 0.146s0.14 0 0.307-0.005c0.541-0.016 0.989-0.010 1.055 0.016 0.060 0.023 0.072 0.175 0.058 0.739-0.028 1.068-0.057 1.404-0.127 1.481-0.043 0.048-0.124-0.001-0.149-0.092-0.020-0.071-0.027-0.633-0.015-1.3 0.004-0.259 0.007-0.474 0.005-0.476-0.007-0.010-0.194-0.040-0.253-0.040-0.037-0-0.108 0.010-0.159 0.022-0.086 0.021-0.114 0.022-0.442 0.022l-0.351 0 0.006 0.030c0.056 0.269 0.101 0.835 0.111 1.395l0.006 0.303-0.026 0.024c-0.049 0.045-0.178 0.037-0.21-0.012-0.025-0.039-0.051-0.284-0.080-0.751-0.034-0.543-0.055-0.766-0.086-0.906l-0.021-0.097-1.044 0.005-0.013 0.933c-0.007 0.513-0.015 0.935-0.016 0.936-0.003 0.003-0.239 0.032-0.261 0.032-0.010 0-0.013-0.050-0.013-0.216-0-0.119-0.006-0.502-0.014-0.851-0.013-0.635-0.009-0.995 0.013-1.035 0.026-0.048 0.139-0.092 0.312-0.121 0.133-0.023 0.205-0.028 0.523-0.040 0.3-0.012 0.462-0.034 0.52-0.073 0.020-0.013 0.021-0.019 0.014-0.105-0.013-0.161-0.028-0.971-0.043-2.305-0.015-1.315-0.030-2.26-0.040-2.453-0.044-0.873-0.090-1.569-0.11-1.67-0.008-0.039-0.044-0.048-0.242-0.058-0.096-0.005-0.216-0.016-0.268-0.025-0.24-0.039-0.56-0.135-0.731-0.218-0.117-0.057-0.214-0.142-0.58-0.51-0.4-0.401-0.522-0.551-0.63-0.777-0.112-0.234-0.183-0.505-0.192-0.732-0.004-0.111-0.009-0.143-0.020-0.148-0.021-0.008-0.204 0.024-0.262 0.047-0.076 0.029-0.11 0.057-0.157 0.126-0.055 0.082-0.15 0.169-0.219 0.201-0.044 0.020-0.070 0.025-0.134 0.026-0.114 0-0.188-0.037-0.303-0.153-0.102-0.103-0.159-0.204-0.178-0.32-0.024-0.14 0.009-0.401 0.065-0.519 0.049-0.104 0.14-0.143 0.303-0.131 0.178 0.013 0.243 0.044 0.395 0.187 0.144 0.136 0.225 0.18 0.341 0.185 0.099 0.005 0.161-0.020 0.183-0.073 0.024-0.057 0.043-0.163 0.059-0.33 0.008-0.086 0.022-0.194 0.030-0.239 0.042-0.228 0.162-0.456 0.42-0.796 0.311-0.411 0.48-0.563 0.876-0.787 0.477-0.27 0.793-0.369 1.182-0.369 0.259 0 0.469 0.035 0.819 0.134 0.633 0.18 1.076 0.383 1.35 0.621 0.209 0.181 0.478 0.555 0.574 0.799 0.050 0.128 0.086 0.258 0.156 0.564 0.033 0.145 0.062 0.273 0.065 0.285l0.005 0.022 0.375 0c0.383 0 0.998 0.009 2.445 0.035 1.363 0.024 1.809 0.028 1.966 0.017 0.167-0.012 0.198-0.021 0.198-0.055 0-0.059-0.089-0.114-0.263-0.161-0.284-0.077-0.518-0.183-0.759-0.345-0.176-0.118-0.292-0.215-0.528-0.44-0.18-0.172-0.358-0.328-0.453-0.398-0.238-0.173-0.697-0.754-0.935-1.183-0.147-0.265-0.373-1.009-0.503-1.656-0.119-0.595-0.136-1.021-0.054-1.355 0.037-0.152 0.177-0.603 0.238-0.772 0.070-0.192 0.173-0.412 0.242-0.518 0.027-0.041 0.093-0.121 0.147-0.178 0.107-0.114 0.151-0.168 0.245-0.306 0.156-0.229 0.627-0.723 1.084-1.135 0.394-0.356 0.94-0.742 1.315-0.931 0.19-0.095 0.42-0.178 0.605-0.217 0.191-0.040 0.364-0.041 1.072-0.005 0.333 0.017 0.672 0.038 0.752 0.046 0.381 0.038 0.512 0.096 0.946 0.416 0.195 0.144 0.332 0.235 0.397 0.263 0.182 0.080 0.319 0.173 0.657 0.443 0.356 0.285 0.49 0.412 0.688 0.649 0.383 0.46 0.497 0.686 0.739 1.466 0.114 0.368 0.179 0.558 0.302 0.887 0.146 0.391 0.166 0.494 0.158 0.819-0.012 0.449-0.167 1.171-0.306 1.424-0.147 0.266-0.201 0.369-0.305 0.582-0.064 0.131-0.128 0.265-0.141 0.298-0.028 0.071-0.069 0.14-0.19 0.321-0.294 0.44-0.693 0.889-1.002 1.124-0.106 0.081-0.681 0.461-0.816 0.54-0.119 0.069-0.16 0.085-0.265 0.105-0.087 0.016-0.298 0.085-0.375 0.123-0.089 0.043-0.121 0.083-0.121 0.149 0 0.061 0.006 0.072 0.044 0.086 0.032 0.012 0.328 0.014 0.631 0.005 0.215-0.007 0.613 0.008 0.804 0.030 0.199 0.023 0.469 0.034 1.147 0.046 0.686 0.012 1.989 0.006 2.348-0.011 0.199-0.010 0.614-0.045 0.622-0.053 0.002-0.002 0.008-0.090 0.014-0.196 0.026-0.504 0.055-0.605 0.3-1.042 0.17-0.302 0.371-0.579 0.573-0.788 0.313-0.324 0.604-0.486 0.937-0.522 0.127-0.014 0.638-0.030 0.955-0.030 0.651-0 0.924 0.054 1.363 0.269 0.253 0.124 0.468 0.282 0.668 0.492 0.171 0.179 0.239 0.285 0.356 0.559 0.022 0.052 0.064 0.132 0.092 0.179 0.093 0.153 0.128 0.226 0.172 0.36 0.069 0.211 0.087 0.318 0.090 0.545 0.003 0.252 0.002 0.249 0.109 0.259 0.092 0.009 0.549 0 0.696-0.013 0.145-0.013 0.202-0.042 0.202-0.103 0-0.034 0.065-0.138 0.115-0.183 0.062-0.057 0.108-0.075 0.171-0.068 0.136 0.015 0.18 0.158 0.212 0.673 0.015 0.251 0.002 0.316-0.079 0.389-0.083 0.075-0.138 0.084-0.245 0.041-0.097-0.039-0.165-0.105-0.198-0.193-0.015-0.040-0.041-0.084-0.059-0.103-0.071-0.071-0.22-0.092-0.546-0.075-0.33 0.017-0.451 0.025-0.455 0.030-0.002 0.002-0.013 0.058-0.024 0.123-0.031 0.182-0.113 0.385-0.325 0.809-0.374 0.747-0.566 1.001-0.838 1.107-0.053 0.021-0.2 0.084-0.326 0.14-0.364 0.162-0.517 0.21-0.713 0.222-0.172 0.010-0.205 0.032-0.224 0.15-0.012 0.071-0.008 0.158 0.021 0.541 0.010 0.137 0.024 0.344 0.029 0.462s0.013 0.256 0.016 0.308c0.003 0.052 0.010 0.425 0.015 0.829 0.009 0.762 0.020 1.080 0.045 1.35 0.046 0.492 0.087 1.007 0.133 1.658 0.062 0.883 0.103 1.257 0.14 1.302 0.006 0.008 0.028 0.014 0.047 0.014 0.059 0 0.56 0.058 0.735 0.085 0.267 0.041 0.477 0.103 0.522 0.152 0.031 0.034 0.048 0.212 0.065 0.691 0.006 0.158 0.022 0.556 0.036 0.884 0.028 0.644 0.027 0.779-0.003 0.831-0.023 0.040-0.094 0.078-0.144 0.078-0.030 0-0.047-0.008-0.078-0.036zM15.784 26.255c0.333-0.005 0.633-0.012 0.667-0.016l0.061-0.007 0.005-0.061c0.003-0.033 0.014-0.396 0.026-0.805s0.023-0.81 0.026-0.889l0.006-0.144-0.080-0.052c-0.142-0.093-0.261-0.116-0.598-0.114-0.24 0.001-0.392 0.016-0.599 0.060-0.159 0.033-0.259 0.071-0.384 0.145l-0.104 0.062 0.002 0.675c0.002 0.689 0.010 0.929 0.039 1.075l0.016 0.082 0.155-0c0.085-0 0.428-0.004 0.761-0.009zM15.154 23.77c0.375-0.065 0.59-0.087 0.863-0.087 0.25 0 0.375 0.017 0.541 0.073 0.066 0.022 0.127 0.044 0.136 0.049 0.014 0.007 0.017-0.009 0.023-0.143 0.009-0.201 0.009-1.436 0-1.509-0.004-0.032-0.010-0.059-0.013-0.061-0.013-0.008-0.136 0.041-0.229 0.092-0.126 0.068-0.21 0.098-0.32 0.116-0.195 0.032-0.391 0.017-0.881-0.065-0.161-0.027-0.325-0.052-0.363-0.055l-0.070-0.006-0.006 0.029c-0.013 0.063-0.028 0.793-0.025 1.176 0.003 0.335 0.006 0.406 0.018 0.421 0.019 0.023 0.059 0.019 0.328-0.028zM16.103 21.77c0.242-0.078 0.515-0.283 0.649-0.486 0.084-0.128 0.097-0.195 0.106-0.535 0.012-0.463-0.044-1.044-0.115-1.191-0.033-0.068-0.153-0.174-0.259-0.229-0.163-0.084-0.309-0.123-0.565-0.149-0.085-0.009-0.225-0.025-0.313-0.037-0.117-0.015-0.185-0.019-0.258-0.015-0.175 0.011-0.437 0.067-0.531 0.116-0.038 0.019-0.038 0.020-0.046 0.097-0.011 0.117 0.042 2.258 0.056 2.27 0.004 0.003 0.736 0.15 0.898 0.18 0.122 0.023 0.267 0.014 0.378-0.022zM14.507 21.229c0.017-0.017 0.015-0.294-0.004-0.608-0.013-0.204-0.015-0.355-0.010-0.71 0.003-0.265 0.002-0.458-0.003-0.466-0.022-0.036-0.078 0.061-0.163 0.281-0.114 0.295-0.163 0.495-0.171 0.707-0.007 0.159 0.005 0.263 0.043 0.386 0.041 0.133 0.175 0.366 0.234 0.407 0.026 0.018 0.059 0.020 0.075 0.003zM16.761 18.827c0.050-0.053 0.060-0.254 0.060-1.18-0-0.765-0.009-1.108-0.034-1.341-0.015-0.139-0.058-0.717-0.071-0.958-0.004-0.065-0.010-0.126-0.015-0.135-0.015-0.030-0.254-0.053-0.942-0.089-0.454-0.024-0.686-0.043-0.821-0.068l-0.1-0.018-0.006 0.468c-0.003 0.257-0.010 0.937-0.016 1.51s-0.016 1.165-0.022 1.316c-0.006 0.15-0.011 0.291-0.012 0.313-0.001 0.039-0.001 0.040 0.034 0.039 0.019-0 0.077-0.008 0.129-0.018 0.35-0.063 1.090-0.031 1.464 0.064 0.043 0.011 0.123 0.042 0.178 0.069 0.109 0.054 0.145 0.060 0.174 0.028zM25.241 16.428c-0-0.747 0.007-0.957 0.040-1.123 0.013-0.065 0.015-0.094 0.007-0.096-0.023-0.007-0.969-0.025-1.297-0.025-0.454 0.001-0.704 0.017-0.78 0.052-0.014 0.007-0.024 0.019-0.024 0.032 0 0.141 0.767 1.215 1.034 1.446 0.302 0.263 0.671 0.432 0.949 0.435l0.072 0.001-0-0.722zM25.903 17.13c0.134-0.035 0.354-0.125 0.67-0.274l0.303-0.143 0.215-0.424c0.118-0.233 0.245-0.489 0.282-0.568 0.088-0.191 0.166-0.399 0.153-0.408-0.006-0.004-0.078-0.009-0.161-0.013s-0.446-0.020-0.806-0.036c-0.36-0.016-0.72-0.031-0.799-0.032l-0.143-0.003-0.023 0.128c-0.062 0.347-0.067 1.036-0.012 1.578l0.022 0.216h0.11c0.080 0 0.132-0.006 0.189-0.021zM7.242 17.007c0.322-0.098 0.399-0.126 0.54-0.194 0.144-0.070 0.267-0.149 0.389-0.252 0.355-0.298 0.715-0.875 0.803-1.288 0.016-0.077 0.031-0.276 0.022-0.299-0.004-0.011-0.057-0.012-0.297-0.007-0.471 0.011-1.011 0.028-1.225 0.038-0.211 0.010-0.502 0.037-0.513 0.048-0.007 0.006-0.037 0.552-0.057 1.029-0.013 0.302-0.013 0.846-0 0.923 0.005 0.032 0.015 0.062 0.022 0.067 0.027 0.017 0.083 0.006 0.316-0.065zM6.559 17.011c0.003-0.003 0.011-0.439 0.018-0.97l0.013-0.965-0.199-0.007c-0.389-0.013-1.622-0.011-1.708 0.002-0.157 0.025-0.212 0.055-0.235 0.131-0.011 0.036-0.010 0.062 0.005 0.168 0.053 0.369 0.162 0.553 0.603 1.009 0.286 0.296 0.409 0.407 0.525 0.473 0.102 0.058 0.272 0.111 0.475 0.147 0.085 0.015 0.144 0.019 0.301 0.017 0.107-0.001 0.197-0.004 0.2-0.007zM27.48 14.907c0.043-0.006 0.084-0.016 0.091-0.021 0.037-0.031 0.051-0.368 0.020-0.49-0.069-0.276-0.394-0.884-0.583-1.091-0.198-0.216-0.572-0.434-0.883-0.514-0.067-0.017-0.359-0.058-0.413-0.058h-0.022l0.005 0.514c0.006 0.563-0.001 0.775-0.043 1.276-0.014 0.174-0.025 0.317-0.023 0.319s0.116 0.008 0.252 0.015c0.178 0.008 0.275 0.017 0.343 0.032 0.052 0.011 0.126 0.024 0.164 0.029 0.099 0.012 0.995 0.005 1.092-0.009zM25.325 14.805c0.006-0.045 0.029-0.47 0.046-0.822 0.005-0.117 0.013-0.456 0.016-0.753l0.006-0.54-0.327 0.005c-0.225 0.004-0.356 0.010-0.421 0.021-0.19 0.031-0.347 0.090-0.519 0.194-0.411 0.249-0.804 0.814-0.948 1.361-0.033 0.126-0.036 0.145-0.040 0.329l-0.005 0.194 0.187 0.006c0.348 0.012 0.989 0.028 1.433 0.036 0.243 0.004 0.469 0.008 0.503 0.009l0.061 0.002zM16.501 14.787c0.072-0.005 0.148-0.016 0.169-0.022 0.034-0.011 0.038-0.016 0.041-0.049 0.005-0.055-0.021-0.106-0.062-0.123-0.056-0.023-0.145-0.017-0.398 0.027-0.234 0.041-0.241 0.041-0.471 0.041-0.142-0-0.344-0.009-0.514-0.022-0.302-0.023-0.439-0.027-0.439-0.012 0 0.005 0.024 0.018 0.053 0.029 0.236 0.088 1.18 0.164 1.622 0.13zM6.585 13.715v-0.983h-0.021c-0.034 0-0.269 0.030-0.317 0.041-0.159 0.035-0.388 0.123-0.616 0.238-0.183 0.092-0.315 0.177-0.403 0.26-0.175 0.163-0.547 0.632-0.62 0.78-0.041 0.083-0.083 0.255-0.108 0.441-0.011 0.084-0.023 0.164-0.026 0.18l-0.006 0.027h2.116zM7.102 14.668c0.068-0.018 0.323-0.030 0.86-0.040 0.574-0.010 0.868-0.024 0.9-0.041 0.018-0.010 0.019-0.018 0.014-0.096-0.009-0.142-0.096-0.407-0.215-0.652-0.19-0.39-0.455-0.618-0.949-0.812-0.243-0.096-0.719-0.243-0.73-0.225-0.013 0.020-0.020 0.21-0.029 0.739-0.005 0.289-0.006 0.655-0.002 0.813 0.007 0.283 0.008 0.287 0.030 0.305 0.025 0.020 0.067 0.024 0.12 0.009zM15.913 14.127c0.065-0.003 0.154-0.010 0.198-0.015 0.102-0.012 0.475-0.080 0.483-0.088 0.003-0.003 0.011-0.285 0.018-0.626 0.035-1.88 0.063-2.705 0.096-2.891 0.008-0.045 0.015-0.089 0.015-0.098 0-0.014-0.031-0.017-0.256-0.022-0.141-0.004-0.45-0.016-0.688-0.027-0.486-0.023-0.993-0.029-1.034-0.011-0.025 0.010-0.027 0.015-0.031 0.093-0.002 0.045-0.010 0.592-0.018 1.214-0.010 0.895-0.011 1.239-0.001 1.643 0.012 0.518 0.021 0.652 0.047 0.692 0.046 0.071 0.301 0.124 0.675 0.141 0.165 0.008 0.255 0.007 0.496-0.005zM14.38 12.14v-1.843l-1.214 0.006c-1.374 0.007-1.589 0.015-1.632 0.058-0.011 0.011 0.017 0.116 0.176 0.659 0.12 0.409 0.203 0.675 0.227 0.726 0.155 0.334 0.609 0.948 0.807 1.092 0.077 0.056 0.223 0.189 0.485 0.44 0.324 0.311 0.457 0.414 0.672 0.524 0.103 0.052 0.425 0.177 0.465 0.179 0.010 0.001 0.012-0.374 0.012-1.843zM17.070 13.903c0.041-0.010 0.141-0.030 0.222-0.044 0.252-0.044 0.332-0.076 0.533-0.21 0.074-0.049 0.183-0.118 0.243-0.152 0.216-0.123 0.334-0.217 0.556-0.44 0.339-0.341 0.471-0.544 0.849-1.297 0.103-0.205 0.216-0.421 0.252-0.482 0.068-0.114 0.104-0.209 0.163-0.432 0.042-0.158 0.081-0.356 0.081-0.411 0-0.041-0.003-0.047-0.027-0.057-0.056-0.021-0.388-0.031-0.861-0.024-1.077 0.014-2.027 0.040-2.047 0.056-0.006 0.005-0.014 0.035-0.017 0.066-0.029 0.267-0.087 2.191-0.089 2.927-0.001 0.446-0 0.479 0.017 0.505 0.013 0.019 0.023 0.026 0.035 0.021 0.009-0.004 0.050-0.015 0.091-0.025zM19.279 9.986c0.393-0.003 0.725-0.007 0.737-0.010 0.036-0.008 0.044-0.035 0.032-0.111-0.014-0.092-0.068-0.26-0.155-0.486-0.095-0.247-0.166-0.456-0.259-0.763-0.14-0.466-0.212-0.658-0.337-0.905-0.168-0.333-0.343-0.559-0.665-0.857-0.354-0.328-0.643-0.544-0.811-0.607-0.066-0.024-0.181-0.098-0.281-0.178-0.198-0.16-0.55-0.382-0.687-0.434-0.133-0.050-0.25-0.064-0.708-0.088-1.080-0.055-1.235-0.044-1.589 0.119-0.563 0.259-1.331 0.839-1.714 1.295-0.082 0.097-0.203 0.216-0.281 0.277-0.074 0.058-0.159 0.156-0.261 0.303-0.098 0.141-0.212 0.29-0.295 0.383-0.152 0.172-0.233 0.314-0.332 0.583-0.040 0.108-0.096 0.256-0.124 0.33-0.104 0.27-0.131 0.46-0.112 0.786 0.006 0.106 0.016 0.205 0.021 0.219 0.012 0.031 0.037 0.039 0.19 0.061 0.335 0.048 0.771 0.062 1.157 0.037 0.161-0.010 0.362-0.012 0.879-0.008 0.666 0.006 0.894 0.012 1.549 0.041 0.188 0.008 0.385 0.017 0.437 0.019 0.123 0.004 2.688-0.002 3.609-0.009z"></path>
</svg>
