<!-- Generated by IcoMoon.io -->
<svg version="1.1" xmlns="http://www.w3.org/2000/svg" width="28" height="32" viewBox="0 0 28 32">
<title>humpty_dumpty</title>
<path d="M2.763 18.206c0-0.79 0.047-1.588 0.137-2.382l0.569-1.028 0.604-1.096 1.005 1.302 1.133 1.456 1.138 1.452 0.923 1.258 0.899-1.275 0.753-1.152 0.751-1.155 0.746-1.157 0.278-0.436 0.684 0.437 1.486 0.938 1.49 0.932 1.496 0.924 0.268 0.19 0.284-0.165 1.389-0.936 1.386-0.944 1.382-0.951 1.374-0.966-3.029 1.444-1.51 0.73-1.181 0.58-1.14-0.922-1.372-1.098-1.377-1.091-1.381-1.085-0.739-0.524-0.522 0.741-0.843 1.090-0.84 1.091-0.704 0.924-0.186-0.271-1.049-1.517-1.055-1.514-1.060-1.51-0.52-0.708c2.014-4.975 5.652-8.812 9.803-8.812 6.332 0 11.471 8.926 11.471 17.206s-5.139 12.794-11.471 12.794c-6.332 0-11.471-4.514-11.471-12.794z"></path>
</svg>
