<!-- Generated by IcoMoon.io -->
<svg version="1.1" xmlns="http://www.w3.org/2000/svg" width="32" height="32" viewBox="0 0 32 32">
<title>in_the_shadow_of_earth</title>
<path d="M15.851 29.969c-0.186-0.029-0.642-0.082-1.013-0.118-1.883-0.18-5.685-0.752-6.14-0.924-0.567-0.214-2.008-0.909-2.272-1.095-0.724-0.511-1.065-0.885-1.752-1.924-0.847-1.282-1.123-1.86-1.256-2.63-0.111-0.645-0.374-1.76-0.614-2.609-0.134-0.473-0.162-0.727-0.196-1.759-0.043-1.335 0.057-3.56 0.199-4.446 0.051-0.317 0.224-0.924 0.402-1.412 0.637-1.743 0.869-2.401 0.979-2.781 0.084-0.289 0.205-0.5 0.469-0.82 0.41-0.497 0.809-1.032 1.354-1.812 0.213-0.305 0.458-0.584 0.549-0.626s0.263-0.153 0.383-0.248c0.413-0.327 1.693-1.071 2.306-1.341 1.958-0.863 6.079-1.61 7.632-1.383 1.113 0.163 2.304 0.478 4.396 1.165 1.197 0.393 1.927 0.729 2.42 1.116 0.124 0.097 0.284 0.207 0.355 0.245s0.356 0.248 0.633 0.468c1.456 1.156 2.544 2.244 3.096 3.094 0.65 1.002 0.699 1.125 0.994 2.527 0.089 0.422 0.272 1.068 0.408 1.435l0.246 0.668-0.020 1.849c-0.025 2.32-0.165 3.297-0.741 5.165-0.178 0.578-1.109 2.554-1.489 3.162-0.416 0.664-1.267 1.666-2.083 2.452-0.3 0.289-0.682 0.657-0.848 0.817-0.375 0.362-0.649 0.549-1.437 0.983-0.795 0.438-1.613 0.651-2.787 0.728-1.255 0.081-3.794 0.114-4.175 0.053zM16.251 28.802c-1.225-0.249-3.628-1.502-4.46-2.326-0.613-0.607-1.162-1.081-1.435-1.239-0.134-0.078-0.341-0.218-0.459-0.31-0.36-0.283-0.662-0.375-1.412-0.429-1.391-0.102-1.409-0.108-1.411-0.453l-0.001-0.186 0.649-0.077c0.859-0.102 1.567 0.013 2.206 0.358 0.236 0.127 0.499 0.253 0.583 0.278s0.343 0.194 0.574 0.375c0.231 0.181 0.446 0.329 0.476 0.329s0.223 0.154 0.427 0.341c0.204 0.188 0.598 0.487 0.874 0.665 0.652 0.419 2.022 1.060 2.376 1.111 0.152 0.022 0.483 0.078 0.737 0.124s0.792 0.145 1.197 0.219c0.405 0.074 0.8 0.174 0.878 0.222s0.34 0.112 0.583 0.142c0.243 0.030 0.591 0.074 0.774 0.098 0.283 0.038 0.344 0.027 0.414-0.069 0.137-0.188 0.099-0.324-0.267-0.942-0.58-0.98-1.387-1.797-2.075-2.102-0.247-0.109-0.79-0.244-1.336-0.331-0.206-0.033-0.23-0.056-0.23-0.218 0-0.171 0.014-0.181 0.249-0.181 0.137 0 0.323 0.038 0.414 0.083s0.296 0.1 0.454 0.121c0.399 0.052 0.882 0.232 1.243 0.461 0.181 0.115 0.384 0.194 0.504 0.194 0.218 0 0.227 0.010 0.646 0.675 0.307 0.488 1.001 1.105 1.244 1.105 0.045 0 0.181 0.041 0.302 0.092s0.238 0.092 0.259 0.092c0.021 0 0.019-0.233-0.005-0.517-0.041-0.495 0.016-1.066 0.22-2.204 0.078-0.437 0.648-2.196 0.761-2.35 0.067-0.092 0.098-0.098 0.176-0.034 0.084 0.069 0.078 0.124-0.049 0.497-0.196 0.577-0.293 1.569-0.268 2.735 0.025 1.132 0.087 1.351 0.385 1.351 0.143 0 0.205-0.048 0.318-0.246 0.354-0.619 0.83-1.635 0.948-2.026 0.163-0.538 0.354-0.959 0.739-1.634 0.166-0.291 0.302-0.565 0.302-0.609s0.039-0.124 0.087-0.177c0.107-0.119 0.369-1.051 0.458-1.632 0.087-0.565 0.148-2.296 0.155-4.39 0.007-2.057 0.086-2.518 0.419-2.435 0.149 0.037 0.151 0.047 0.189 0.945 0.021 0.499 0.081 1.169 0.132 1.49s0.121 0.763 0.154 0.982c0.145 0.963-0.021 3.315-0.278 3.949-0.081 0.199-0.163 0.463-0.182 0.586-0.124 0.788-0.15 1.045-0.181 1.789-0.036 0.858-0.024 0.884 0.19 0.43 0.024-0.051 0.122-0.208 0.217-0.349s0.174-0.275 0.174-0.298c0-0.023 0.058-0.123 0.13-0.223 0.364-0.512 1.12-2.212 1.373-3.090 0.343-1.188 0.423-3.426 0.159-4.452-0.214-0.832-0.399-1.383-0.774-2.302-0.815-1.999-1.233-2.643-2.694-4.144-0.912-0.937-1.498-1.446-2.093-1.82-1.299-0.816-1.791-0.988-3.929-1.375-1.668-0.302-2.254-0.365-3.285-0.356-0.649 0.006-0.706 0.014-0.368 0.049 0.22 0.023 0.496 0.074 0.614 0.112 0.222 0.072 0.706 0.208 1.136 0.318 0.135 0.035 0.356 0.131 0.491 0.213s0.425 0.246 0.645 0.364c0.396 0.211 1.171 0.942 1.669 1.574 0.528 0.67 1.104 2.070 1.31 3.187 0.256 1.385 0.201 2.335-0.23 4.004-0.093 0.36-0.593 1.304-1.088 2.056-0.535 0.812-1.527 1.877-1.966 2.111-0.084 0.045-0.288 0.188-0.454 0.319-0.344 0.272-1.194 0.695-1.512 0.753-0.118 0.021-0.339 0.091-0.491 0.155s-0.482 0.177-0.732 0.251c-0.425 0.126-0.54 0.133-1.688 0.1-0.743-0.021-1.44-0.075-1.754-0.136-0.659-0.127-1.418-0.487-1.879-0.89-0.193-0.169-0.373-0.307-0.401-0.307s-0.187-0.117-0.355-0.261c-0.168-0.144-0.444-0.365-0.613-0.493-0.475-0.358-1.256-1.416-1.634-2.215-0.737-1.554-0.886-2.189-0.892-3.816l-0.004-1.167-0.356 0.902c-0.196 0.496-0.447 1.256-0.559 1.688-0.192 0.748-0.203 0.848-0.217 2.045-0.017 1.381 0.066 2.377 0.316 3.807 0.201 1.149 0.762 2.856 1.232 3.745 0.187 0.355 0.502 0.957 0.7 1.339 0.663 1.281 0.977 1.617 2.045 2.188 1.077 0.575 2.276 0.992 3.2 1.112 0.169 0.022 0.514 0.090 0.767 0.151s0.64 0.129 0.86 0.149c0.965 0.092 2.268 0.231 2.579 0.276 0.186 0.027 0.476 0.049 0.645 0.050l0.307 0.001-0.246-0.050zM20.241 25.304c-0.021-0.034-0.009-0.061 0.027-0.061s0.065 0.028 0.065 0.061c0 0.034-0.012 0.061-0.027 0.061s-0.044-0.028-0.065-0.061z"></path>
</svg>
