<!-- Generated by IcoMoon.io -->
<svg version="1.1" xmlns="http://www.w3.org/2000/svg" width="32" height="32" viewBox="0 0 32 32">
<title>in_too_deep</title>
<path d="M6.91 18.951h0.917c0.551 0 1.103 0 1.653 0 0.622 0 1.263-0.033 1.884 0.010 0.432 0.029 0.861 0.089 1.294 0.1 0.505 0.014 1.010-0.001 1.515 0 0.683 0.001 1.359 0.068 2.038 0.083 0.291 0.007 0.581 0.006 0.873 0.004 0.38 0 0.762-0.001 1.144 0 0.469 0.001 0.933-0.026 1.401-0.052 0.411-0.022 0.825-0.004 1.234-0.004h2.991c0.319 0 0.644 0.017 0.963-0.003 0.075-0.004 0.148-0.021 0.222-0.033 0.036-0.007 0.181-0.044 0.224-0.018 0.016 0.013 0.028 0.064 0.036 0.082 0.068 0.142 0.266 0.26 0.38 0.369 0.185 0.177 0.256 0.353 0.395 0.561 0.101 0.15 0.22 0.279 0.345 0.411 0.1 0.104 0.193 0.208 0.306 0.294 0.096 0.074 0.186 0.14 0.278 0.218 0.089 0.075 0.101 0.148 0.128 0.257 0.016 0.071 0.066 0.179 0.059 0.252-0.085-0.041-0.096-0.015-0.063 0.084 0.024 0.073 0.068 0.141 0.153 0.148 0.072 0.006 0.108-0.001 0.178 0.033 0.115 0.060 0.242 0.133 0.345 0.212 0.020 0.019 0.042 0.038 0.064 0.057 0.004 0.019 0.008 0.040 0.008 0.059 0.016 0.033 0.055 0.044 0.051 0.083-0.008 0.068-0.2 0.085-0.242 0.092-0.62 0.096-1.266 0.079-1.892 0.079-0.995-0.003-1.988-0.001-2.983-0.001-0.711 0-1.424-0.030-2.133 0.056-0.583 0.071-1.153 0.051-1.739 0.053-0.436 0.003-0.858 0.038-1.292 0.094-0.467 0.061-0.917 0.105-1.389 0.073-0.591-0.044-1.178-0.164-1.765-0.244-0.441-0.060-0.878-0.135-1.318-0.197-0.27-0.038-0.54-0.049-0.809-0.096-0.212-0.036-0.423-0.082-0.637-0.108-0.415-0.049-0.839-0.040-1.256-0.062-0.487-0.025-0.97-0.027-1.456 0.001-0.61 0.036-1.223-0.025-1.832 0.026-0.244 0.021-0.484 0.052-0.728 0.071-0.357 0.028-0.711 0.104-1.067 0.137-0.257 0.023-0.509 0.027-0.766 0.026-0.14-0.001-0.309 0.025-0.449-0.006-0.004-0.041 0.008-0.067 0.024-0.103 0.152-0.328 0.397-0.619 0.636-0.884 0.216-0.238 0.416-0.48 0.599-0.743 0.122-0.174 0.24-0.346 0.367-0.516 0.048-0.063 0.070-0.122 0.096-0.193 0.045-0.118 0.144-0.228 0.228-0.32 0.081-0.089 0.105-0.188 0.107-0.304z"></path>
<path d="M23.595 16.39c-0.079 0.004-0.161-0.231-0.202-0.287-0.174-0.235-0.389-0.442-0.557-0.681-0.048-0.070-0.089-0.145-0.144-0.211-0.045-0.055-0.078-0.078-0.108-0.144-0.075-0.164-0.161-0.316-0.267-0.463-0.028-0.042-0.064-0.083-0.094-0.127-0.036-0.051-0.051-0.119-0.090-0.167-0.088-0.104-0.312-0.086-0.423-0.088-0.225-0.004-0.428 0.021-0.65 0.051-0.494 0.066-1 0.034-1.497 0.034-0.404 0-0.811 0.014-1.216-0.003-0.476-0.018-0.952-0.022-1.426-0.088-0.289-0.040-0.576-0.092-0.869-0.103-0.215-0.008-0.43-0.006-0.644-0.004-0.55 0.001-1.1 0-1.65 0-0.484 0-0.963-0.006-1.446-0.036-0.141-0.008-0.283-0.010-0.421-0.037-0.091-0.019-0.177-0.038-0.271-0.046-0.267-0.024-0.534-0.045-0.8-0.078-0.219-0.027-0.435-0.070-0.657-0.081-0.226-0.010-0.453 0.014-0.677-0.010-0.074-0.008-0.166-0.040-0.24-0.019-0.028 0.116-0.172 0.209-0.253 0.293-0.075 0.078-0.149 0.156-0.213 0.245-0.096 0.13-0.163 0.278-0.248 0.414-0.19 0.308-0.398 0.614-0.525 0.956-0.081 0.219-0.191 0.45-0.353 0.624-0.064 0.071-0.145 0.125-0.209 0.193-0.024 0.023-0.12 0.108-0.108 0.14 0.113 0.013 0.245-0.057 0.355-0.082 0.384-0.085 0.792-0.12 1.182-0.172 0.469-0.062 0.928-0.048 1.398-0.051 0.546-0.004 1.090-0.033 1.636-0.030 0.31 0.008 0.62 0.003 0.929-0.013 0.283-0.025 0.566-0.040 0.851-0.047 0.487-0.008 0.974 0.018 1.461-0.010 0.453-0.026 0.896-0.045 1.35-0.044 0.383 0.001 0.768 0 1.152 0 0.722 0 1.446 0.001 2.169-0.001 0.185-0.004 0.368-0.001 0.553 0.006 0.157 0.015 0.316 0.032 0.475 0.047 0.198 0.013 0.393 0.010 0.59 0.028 0.185 0.017 0.366 0.001 0.55 0.033 0.187 0.033 0.363 0.060 0.553 0.076 0.241 0.022 0.485 0.085 0.727 0.069 0.108-0.007 0.087-0.034 0.33-0.088z"></path>
<path d="M20.163 11.804c0.024 0.006 0.045 0.022 0.053 0.047-0.032-0.019-0.053-0.045-0.076-0.073-0.085-0.107-0.153-0.227-0.233-0.338-0.126-0.174-0.223-0.373-0.365-0.535-0.055-0.063-0.090-0.112-0.127-0.186-0.042-0.086-0.104-0.159-0.151-0.242-0.028-0.052-0.045-0.146-0.103-0.166-0.036-0.013-0.104 0.001-0.142 0.001-0.137-0.001-0.271 0.013-0.409 0.022-0.291 0.022-0.588 0.007-0.881 0.007-0.605-0.001-1.209 0.003-1.814-0.001-0.238-0.001-0.471-0.001-0.707 0.032-0.234 0.033-0.465 0.059-0.703 0.056-0.175-0.003-0.35-0.003-0.525-0.003-0.225 0.001-0.457 0.022-0.677-0.032-0.171-0.042-0.331-0.093-0.51-0.105-0.178-0.013-0.358-0.004-0.536-0.003-0.166 0-0.33-0.001-0.495-0.001-0.098 0-0.197 0.001-0.295 0-0.068 0-0.196-0.023-0.263 0.001-0.066 0.025-0.103 0.122-0.127 0.189-0.036 0.098-0.036 0.212-0.057 0.315-0.016 0.078-0.016 0.172-0.045 0.246-0.041 0.096-0.134 0.172-0.19 0.26-0.036 0.059-0.237 0.35-0.153 0.421 0.016 0.013 0.055 0.003 0.074 0.003 0.091 0.001 0.183 0 0.274 0 0.245 0 0.49-0.008 0.732 0.006 0.306 0.017 0.606 0.055 0.912 0.052 0.389-0.001 0.784-0.025 1.172 0.010 0.141 0.014 0.282 0.037 0.421 0.055 0.178 0.023 0.353 0.022 0.531 0.020 0.436-0.006 0.873-0.015 1.305 0.047 0.257 0.037 0.509 0.086 0.769 0.092 0.363 0.008 0.728-0.017 1.090 0.007 0.196 0.013 0.386 0.055 0.582 0.052 0.398-0.004 0.796-0.001 1.193-0.001z"></path>
<path d="M17.968 9.159c0.004-0.001 0.012-0.003 0.020-0.003-0.051-0.116-0.148-0.213-0.193-0.33-0.042-0.105-0.090-0.204-0.138-0.306-0.024-0.053-0.028-0.081-0.086-0.096-0.082-0.021-0.212 0.045-0.29 0.055-0.337 0.042-0.698 0.004-1.037 0.006-0.445 0-0.889 0-1.334-0.001-0.172 0-0.348 0.013-0.518-0.004-0.295-0.026-0.586-0.070-0.883-0.088-0.238-0.014-0.471-0.028-0.704-0.077-0.056-0.013-0.211-0.075-0.27-0.059-0.070 0.019-0.048 0.036-0.051 0.112-0.004 0.104-0.049 0.212-0.066 0.316-0.028 0.186-0.14 0.3-0.214 0.469 0.089 0.047 0.251-0.015 0.346-0.019 0.39-0.018 0.783-0.034 1.172-0.033 0.739 0.004 1.478 0.003 2.218 0.001 0.272-0.001 0.536-0.003 0.806 0.041 0.14 0.023 0.279 0.053 0.42 0.067 0.041 0.003 0.085 0.001 0.126 0.011 0.136 0.034 0.28 0.022 0.677-0.063z"></path>
<path d="M17.799 8.427c-0.008-0.055 0.008-0.092 0.028-0.141 0.051-0.137 0.049-0.298 0.068-0.441 0.032-0.217 0.016-0.442 0.016-0.661-0.003-0.259 0.053-0.508 0.056-0.766 0.001-0.209 0.060-0.387-0.016-0.592-0.032-0.097-0.079-0.198-0.003-0.283 0.071-0.078 0.187-0.096 0.267-0.167 0.047-0.041 0.076-0.107 0.129-0.14 0.045-0.029 0.104-0.022 0.156-0.015 0.149 0.019 0.287 0.057 0.402 0.153 0.051 0.042 0.083 0.062 0.111 0.119 0.024 0.051 0.040 0.081 0.052 0.134 0.020 0.085 0.028 0.153 0.028 0.243-0.001 0.233-0.001 0.465-0.001 0.699 0 0.186 0.008 0.354-0.036 0.534-0.047 0.179-0.020 0.38-0.020 0.564 0 0.189-0.028 0.374-0.028 0.562 0.001 0.315 0.004 0.631-0.063 0.937-0.016 0.056-0.020 0.168-0.093 0.188-0.032 0.008-0.064-0.019-0.093-0.033-0.098-0.051-0.208-0.075-0.304-0.134-0.14-0.086-0.217-0.227-0.324-0.345-0.051-0.056-0.107-0.097-0.144-0.164-0.020-0.034-0.024-0.071-0.189-0.252z"></path>
<path d="M11.665 9.272c0.049-0.010 0.103-0.109 0.126-0.152 0.028-0.052 0.056-0.103 0.082-0.155 0.040-0.082 0.049-0.168 0.081-0.253 0.036-0.1 0.091-0.194 0.145-0.287 0.032-0.053 0.071-0.089 0.088-0.15 0.028-0.103 0.020-0.227 0.012-0.334-0.016-0.238-0.024-0.472-0.024-0.713 0-0.393 0.012-0.785-0.024-1.175-0.008-0.094 0.001-0.189-0.001-0.283-0.001-0.078-0.024-0.148-0.028-0.224-0.004-0.070 0.008-0.138-0.004-0.208-0.012-0.062-0.024-0.108-0.024-0.171 0.001-0.103 0.012-0.107-0.085-0.12-0.072-0.010-0.151-0.044-0.223-0.045-0.053-0.001-0.036 0.006-0.082 0.030-0.097 0.052-0.189 0.037-0.221 0.166-0.024 0.086-0.036 0.164-0.076 0.248-0.028 0.058-0.072 0.108-0.093 0.168-0.036 0.109-0.071 0.204-0.127 0.305-0.032 0.060-0.081 0.13-0.098 0.2-0.024 0.093-0.008 0.217-0.008 0.311 0.004 0.161 0.032 0.324 0.045 0.484 0.012 0.138 0.004 0.274 0.012 0.412 0.004 0.15 0.056 0.295 0.060 0.447 0.008 0.294 0.008 0.594-0.001 0.888-0.001 0.092-0.042 0.218-0.024 0.304 0.012 0.052 0.056 0.123 0.081 0.168z"></path>
<path d="M22.076 13.971c-0.045 0.010-0.076-0.021-0.113-0.041-0.072-0.041-0.148-0.074-0.215-0.125-0.094-0.071-0.177-0.155-0.267-0.23-0.093-0.078-0.179-0.13-0.248-0.233-0.109-0.168-0.201-0.35-0.308-0.521-0.126-0.201-0.195-0.439-0.201-0.677-0.003-0.082-0.016-0.201 0.008-0.283 0.016-0.057 0.055-0.114 0.075-0.17 0.048-0.127 0.052-0.261 0.076-0.394 0.060-0.33 0.067-0.654 0.067-0.989 0-0.342 0.004-0.683 0-1.024-0.001-0.15 0.020-0.293 0.040-0.442 0.016-0.103 0.036-0.224 0.012-0.327-0.016-0.067-0.047-0.13 0.004-0.188 0.028-0.033 0.085-0.053 0.122-0.074 0.101-0.056 0.201-0.123 0.315-0.15 0.152-0.037 0.316-0.015 0.471-0.014 0.12 0 0.239 0 0.358-0.001 0.189-0.001 0.464 0.026 0.622 0.141 0.060 0.042 0.123 0.1 0.182 0.146 0.068 0.056 0.126 0.112 0.127 0.202 0.003 0.201 0.024 0.4 0.028 0.601 0.001 0.23-0.012 0.453-0.049 0.68s-0.060 0.442-0.061 0.672c-0.004 0.317-0.074 0.631-0.061 0.95 0.012 0.269 0.041 0.531 0.024 0.802-0.008 0.182-0.048 0.351-0.074 0.528-0.016 0.12-0.004 0.238-0.032 0.358-0.044 0.181-0.164 0.327-0.237 0.495-0.071 0.164-0.297 0.248-0.663 0.306z"></path>
<path d="M9.133 13.267c0.186-0.182 0.425-0.319 0.538-0.561 0.056-0.119 0.1-0.245 0.148-0.367 0.024-0.048 0.041-0.097 0.051-0.149-0.003-0.014-0.012-0.022-0.024-0.026-0.081-0.19-0.123-0.394-0.17-0.598-0.055-0.246-0.1-0.502-0.175-0.743-0.053-0.167-0.102-0.32-0.122-0.495-0.024-0.217-0.036-0.438-0.082-0.653-0.036-0.178-0.068-0.346-0.085-0.527-0.020-0.197-0.071-0.384-0.078-0.584-0.004-0.127-0.032-0.237-0.051-0.358-0.012-0.074-0.008-0.108-0.089-0.118-0.078-0.008-0.133-0.007-0.177 0.056-0.1 0.144-0.163 0.308-0.286 0.436-0.144 0.15-0.305 0.271-0.439 0.43-0.057 0.068-0.118 0.119-0.148 0.204-0.047 0.13-0.042 0.272-0.067 0.408s-0.045 0.267-0.059 0.404c-0.020 0.215-0.063 0.427-0.066 0.643-0.004 0.181-0.003 0.364-0.001 0.546-0.008 0.115 0.008 0.227 0.041 0.338 0.044 0.101 0.079 0.205 0.107 0.312 0.028 0.127 0.040 0.261 0.063 0.39 0.028 0.152 0.045 0.311 0.047 0.467 0 0.168 0.024 0.35 0.056 0.517 0.032 0.175 0.276 0.261 0.421 0.338z"></path>
<path d="M27.281 21.005c0-0.637-0.036-1.285 0.028-1.92 0.048-0.48 0.028-0.964 0.028-1.446 0-0.588 0.024-1.181-0.001-1.766-0.012-0.259-0.079-0.503-0.126-0.757-0.032-0.2-0.063-0.4-0.1-0.598-0.048-0.253-0.083-0.484-0.082-0.743 0-0.145-0.004-0.289 0.020-0.428 0.012-0.053 0.008-0.079 0.049-0.119 0.094-0.093 0.223-0.166 0.328-0.249 0.159-0.125 0.289-0.22 0.495-0.242 0.197-0.019 0.401-0.034 0.598-0.036 0.295-0.003 0.569 0.108 0.788 0.311 0.278 0.259 0.509 0.569 0.71 0.889 0.076 0.145 0.155 0.29 0.232 0.435 0.086 0.167 0.156 0.341 0.21 0.52 0.004 0.036 0.001 0.068 0.001 0.103-0.001 0.090-0.004 0.178-0.016 0.268-0.048 0.35-0.074 0.701-0.114 1.052-0.041 0.372-0.001 0.751-0.028 1.125-0.024 0.354-0.066 0.707-0.060 1.063 0.003 0.287 0.028 0.569 0.048 0.857 0.053 0.788-0.008 1.579 0.085 2.363 0.032 0.286 0.024 0.569 0.028 0.857 0.001 0.249-0.032 0.492-0.051 0.741-0.016 0.267-0.004 0.535-0.004 0.803 0 0.692 0 1.386 0 2.078 0 0.127 0.016 0.272-0.008 0.398-0.004 0.036-0.020 0.070-0.024 0.107-0.001 0.026 0.012 0.064 0.003 0.089-0.028 0.076-0.185 0.107-0.256 0.127-0.048 0.014-0.097 0.023-0.144 0.040-0.127 0.048-0.223 0.073-0.361 0.074-0.348 0.003-0.685-0.090-1.012-0.197-0.202-0.067-0.301-0.178-0.397-0.357-0.115-0.215-0.186-0.419-0.196-0.672-0.016-0.46-0.024-0.944 0.032-1.401 0.032-0.261 0.125-0.51 0.157-0.772 0.024-0.193 0.085-0.376 0.115-0.568 0.020-0.14 0.016-0.306-0.012-0.443-0.051-0.252-0.138-0.49-0.183-0.746-0.008-0.049-0.012-0.116-0.036-0.16-0.036-0.064-0.094-0.133-0.137-0.197-0.052-0.082-0.138-0.19-0.245-0.174z"></path>
<path d="M4.293 21.005c0.032-0.156 0.112-0.327 0.2-0.456 0.042-0.064 0.075-0.116 0.136-0.16 0.048-0.034 0.118-0.092 0.138-0.146 0.040-0.11-0.003-0.26-0.028-0.368-0.051-0.222-0.119-0.424-0.133-0.654-0.008-0.167-0.001-0.328-0.024-0.494-0.024-0.17-0.036-0.337-0.036-0.508 0.001-0.411 0.003-0.821 0-1.231-0.003-0.223 0.024-0.43 0.058-0.648 0.028-0.188 0.036-0.375 0.061-0.562 0.020-0.16 0.032-0.323 0.058-0.483 0.012-0.070 0.032-0.144 0.016-0.215-0.008-0.038-0.055-0.116-0.064-0.137-0.041-0.090-0.075-0.182-0.114-0.275-0.061-0.148-0.129-0.326-0.256-0.431-0.077-0.063-0.181-0.101-0.268-0.148-0.119-0.063-0.198-0.093-0.334-0.092-0.251 0.004-0.502-0.010-0.752 0-0.136 0.006-0.259 0.017-0.38 0.073-0.091 0.042-0.171 0.096-0.256 0.146-0.101 0.060-0.17 0.075-0.163 0.204 0.016 0.342-0.058 0.679-0.056 1.021 0.001 0.298 0.004 0.597 0.003 0.895-0.003 0.33-0.032 0.658-0.028 0.989 0.001 0.613 0.001 1.226 0 1.839 0 0.42 0.016 0.84-0.028 1.26-0.040 0.352-0.067 0.689-0.044 1.044 0.016 0.25 0.056 0.501 0.071 0.752 0.012 0.188 0 0.373 0.003 0.56 0.001 0.224 0.028 0.443 0.028 0.668-0.001 0.3 0.024 0.612-0.016 0.909-0.032 0.26-0.101 0.512-0.1 0.777 0.001 0.093-0.016 0.205-0.001 0.298 0.016 0.109 0.091 0.116 0.19 0.153 0.119 0.044 0.236 0.099 0.357 0.141 0.144 0.049 0.289 0.073 0.441 0.086 0.116 0.011 0.234 0.015 0.35 0.026 0.098 0.010 0.2 0.036 0.298 0.033 0.036-0.116 0.103-0.213 0.109-0.338 0.016-0.242 0.001-0.475-0.041-0.713-0.020-0.112-0.028-0.226-0.058-0.335-0.024-0.093-0.066-0.179-0.104-0.267-0.109-0.25-0.133-0.509-0.135-0.778-0.003-0.235-0.020-0.482 0.044-0.71 0.059-0.215 0.096-0.435 0.153-0.651 0.059-0.216 0.177-0.402 0.28-0.597 0.028-0.051 0.081-0.138 0.086-0.194z"></path>
</svg>
