<!-- Generated by IcoMoon.io -->
<svg version="1.1" xmlns="http://www.w3.org/2000/svg" width="32" height="32" viewBox="0 0 32 32">
<title>inexorable_fate</title>
<path d="M26.981 14.709c-0.502-1.514-1.261-2.232-2.642-3.038-1.41-0.824-3.378-0.55-4.736 0.313-0.365 0.232-0.685 0.513-1.019 0.783-0.052 0.041-0.269 0.192-0.437 0.313-0.001-0.059 0-0.119-0.002-0.179-0.011-0.273-0.029-0.568-0.068-0.839l-0.132 0.252 0.179-0.434c0.169-0.533 0.136-0.898-0.039-1.406-0.184-0.536-0.065-0.721-0.010-1.31 0.001-0.016 0.002-0.032 0.004-0.046-0.501-0.077 0.837-0.985 1.25-0.939 0.526 0.059 1.053 0.009 1.58-0.015 1.229-0.377 2.435-0.637 3.77-0.637 0.953 0 2.459-1.784 2.512-2.793-1.186 0.107-2.378 0.155-3.562 0.312-1.138 0.152-2.311 0.148-3.462 0.258-0.282 0.048-0.564 0.083-0.849 0.109-0.282 0.045-0.562 0.101-0.839 0.175-0.514 0.136-0.516-0.020-0.327-0.235 0.031-0.329 0.071-0.656 0.108-0.987 0.028-0.253 0.060-0.506 0.060-0.762 0-0.348 0.095-0.736-0.197-0.051 0.27-0.637 0.462-1.591-0.525-1.552-0.893 0.036-1.975 1.153-2.3 1.917-0.223 0.522-0.273 0.991-0.303 1.479 0.035 0.021 0.068 0.039 0.101 0.061 0.338 0.229-1.085 1.15-1.459 0.897-0.859-0.584-1.695-0.3-2.64-0.19-0.772 0.088-1.556 0.021-2.331-0.005-0.889-0.029-1.776-0.056-2.661-0.049-0.737 0.692-1.36 1.744-1.229 2.339 2.139-0.256 4.275-0.104 6.453-0.091 1.094 0.006 3.337-0.456 4.157 0.47 0.104 0.117-0.228 0.42-0.621 0.636 0.012 0.594 0.025 1.197-0.043 1.778-0.101 0.85-0.023 1.342 0.181 2.092-0.185 1.078-0.117 2.155-0.153 3.278-0.041 1.278 1.53 0.534 2.016 0.104 0.072-0.063 0.119-0.108 0.148-0.139 0.071-0.031 0.183-0.084 0.353-0.173 0.165-0.085 0.338-0.177 0.501-0.269 0.506-0.282 0.958-0.673 1.404-1.042 1.031-0.85 2.184-0.278 3.17 0.395 0.993 0.677 1.229 1.399 1.602 2.506 0.057 0.17 0.227 1.288 0.338 1.68-0.076 0.067-0.151 0.133-0.222 0.2-0.264 0.241-0.478 0.581-0.732 0.829 0.080-0.091-0.267 0.131-0.368 0.216-0.526 0.441-0.886 0.954-1.306 1.487-0.213 0.271-0.449 0.526-0.658 0.801-0.012 0.016-0.604 0.761-0.444 0.608-0.452 0.482-0.937 0.934-1.381 1.428 0.291-0.324-0.209 0.191-0.332 0.291-0.031 0.025-0.063 0.048-0.095 0.072-0.314 0.452-0.666 0.875-1.102 1.263-0.916 0.818-1.88 1.526-2.709 2.44-0.802 0.885-1.568 1.768-2.483 2.538 0.001 0.001 0.002 0.002 0.004 0.004 0.029 0.015 0.057 0.029 0.085 0.044 0.513 0.268 1.194-0.006 1.796-0.49 0.482-0.248 1.002-0.452 1.463-0.729 0.843-0.509 1.628-1.154 2.336-1.836 0.096-0.092 0.184-0.21 0.244-0.305 0.3-0.244 0.765-0.454 1.027-0.662 0.701-0.554 1.268-1.202 1.866-1.856 0.504-0.55 1.077-0.991 1.528-1.596 0.265-0.356 0.522-0.705 0.798-1.054 0.12-0.137 0.231-0.284 0.335-0.434 0.028-0.021 0.059-0.045 0.095-0.073 0.312-0.247 0.621-0.506 0.889-0.801 0.060-0.071 0.112-0.132 0.156-0.185 0.198-0.121 0.392-0.252 0.574-0.396 0.757-0.618 1.325-1.423 1.702-2.32 0.634-1.512 0.12-2.966-0.372-4.447z"></path>
</svg>
