<!-- Generated by IcoMoon.io -->
<svg version="1.1" xmlns="http://www.w3.org/2000/svg" width="32" height="32" viewBox="0 0 32 32">
<title>inhospitable_locality</title>
<path d="M3.204 12.927c2.081-1.795 2.167-1.854 3.317-2.29 5.762-2.182 13.747-2.182 19.509 0 1.203 0.456 1.379 0.58 3.395 2.401 1.314 1.187 1.34 1.24 0.456 0.944-0.515-0.173-2.051-0.491-3.414-0.708l-2.477-0.394 0.108 1.87c0.083 1.436-0.039 2.153-0.526 3.087-0.349 0.669-0.586 1.264-0.528 1.323 0.16 0.16 5.956-0.811 6.926-1.161 0.724-0.261 0.644-0.12-0.545 0.959-2.005 1.821-2.188 1.95-3.395 2.408-5.762 2.182-13.747 2.182-19.509 0-1.207-0.457-1.39-0.586-3.395-2.408-1.188-1.079-1.268-1.22-0.545-0.959 0.97 0.35 6.766 1.321 6.926 1.161 0.058-0.058-0.179-0.654-0.528-1.323-0.487-0.934-0.609-1.651-0.526-3.087l0.108-1.87-2.477 0.394c-1.363 0.217-2.864 0.529-3.337 0.694s-0.859 0.253-0.859 0.197c0-0.057 0.592-0.613 1.315-1.237zM11.655 17.123c1.001 1.936 4.832 2.719 7.462 1.525 1.501-0.681 2.264-1.913 2.264-3.656 0-1.797-0.493-2.248-2.637-2.412-1.017-0.078-1.641-0.053-1.385 0.055 1.955 0.827 2.386 2.663 0.972 4.143-1.234 1.291-2.876 1.291-4.11 0-1.413-1.479-0.983-3.315 0.972-4.143 0.255-0.108-0.368-0.132-1.385-0.055-1.279 0.098-1.971 0.308-2.243 0.68-0.541 0.74-0.494 2.732 0.091 3.863zM16.861 14.376c0.48 0.632 1.426 0.724 1.426 0.139 0-0.574-0.648-1.145-1.299-1.145-0.656 0-0.689 0.264-0.126 1.005z"></path>
</svg>
