<!-- Generated by IcoMoon.io -->
<svg version="1.1" xmlns="http://www.w3.org/2000/svg" width="32" height="32" viewBox="0 0 32 32">
<title>instagram</title>
<path d="M21.155 10.845c-0.205-0.205-0.484-0.321-0.774-0.321s-0.569 0.115-0.774 0.321c-0.205 0.205-0.321 0.484-0.321 0.774s0.115 0.569 0.321 0.774 0.484 0.321 0.774 0.321c0.291 0 0.569-0.115 0.774-0.321s0.321-0.484 0.321-0.774c0-0.29-0.115-0.569-0.321-0.774z"></path>
<path d="M15.933 7.333h0.133c1.667-0 3.012-0 4.077 0.132 1.103 0.136 2.043 0.427 2.82 1.109 0.164 0.144 0.319 0.298 0.462 0.462 0.682 0.777 0.973 1.717 1.109 2.82 0.132 1.065 0.132 2.409 0.132 4.077v0.133c0 1.667 0 3.012-0.132 4.077-0.136 1.103-0.427 2.043-1.109 2.82-0.144 0.164-0.298 0.319-0.462 0.462-0.777 0.682-1.717 0.973-2.82 1.109-1.065 0.132-2.409 0.132-4.077 0.132h-0.133c-1.667 0-3.012 0-4.077-0.132-1.103-0.136-2.043-0.427-2.82-1.109-0.164-0.144-0.319-0.298-0.462-0.462-0.682-0.777-0.973-1.717-1.109-2.82-0.132-1.065-0.132-2.409-0.132-4.077v-0.133c-0-1.668-0-3.012 0.132-4.077 0.136-1.103 0.427-2.043 1.109-2.82 0.144-0.164 0.298-0.319 0.462-0.462 0.777-0.682 1.717-0.973 2.82-1.109 1.065-0.132 2.409-0.132 4.077-0.132zM12.102 9.45c-0.904 0.112-1.392 0.317-1.747 0.628-0.098 0.086-0.191 0.179-0.277 0.277-0.311 0.354-0.516 0.843-0.628 1.747-0.115 0.928-0.117 2.148-0.117 3.898s0.002 2.97 0.117 3.898c0.112 0.904 0.317 1.392 0.628 1.747 0.086 0.099 0.179 0.191 0.277 0.277 0.354 0.311 0.843 0.516 1.747 0.628 0.928 0.115 2.148 0.116 3.898 0.116s2.97-0.002 3.898-0.116c0.904-0.112 1.392-0.317 1.747-0.628 0.099-0.086 0.191-0.179 0.277-0.277 0.311-0.354 0.516-0.843 0.628-1.747 0.115-0.928 0.117-2.148 0.117-3.898s-0.002-2.97-0.117-3.898c-0.112-0.904-0.317-1.392-0.628-1.747-0.086-0.098-0.179-0.191-0.277-0.277-0.354-0.311-0.843-0.516-1.747-0.628-0.928-0.115-2.148-0.117-3.898-0.117s-2.97 0.002-3.898 0.117zM16 13.714c-1.262 0-2.286 1.023-2.286 2.286s1.023 2.286 2.286 2.286c1.262 0 2.286-1.023 2.286-2.286s-1.023-2.286-2.286-2.286zM11.714 16c0-2.367 1.919-4.286 4.286-4.286s4.286 1.919 4.286 4.286c0 2.367-1.919 4.286-4.286 4.286s-4.286-1.919-4.286-4.286z"></path>
</svg>
