<!-- Generated by IcoMoon.io -->
<svg version="1.1" xmlns="http://www.w3.org/2000/svg" width="31" height="32" viewBox="0 0 31 32">
<title>interstellar_predators</title>
<path d="M12.005 31.803c-0.004-0.279 0.283-1.033 0.466-1.229 0.202-0.216 0.507-0.81 0.457-0.891-0.022-0.035 0.058-0.172 0.178-0.305 0.307-0.342 0.845-1.446 0.924-1.899 0.037-0.208 0.080-0.6 0.096-0.871l0.030-0.493h-0.277c-0.222 0-0.314-0.037-0.467-0.191-0.254-0.253-0.499-0.253-0.742 0.001-0.17 0.178-0.178 0.207-0.107 0.402 0.042 0.116 0.076 0.23 0.076 0.254s-0.168 0.043-0.373 0.043h-0.373l-0.098-0.27c-0.054-0.149-0.147-0.428-0.208-0.62-0.169-0.534-0.661-1.605-0.813-1.769-0.124-0.134-0.128-0.16-0.042-0.302 0.052-0.085 0.235-0.392 0.407-0.681 0.551-0.923 1.232-1.811 1.612-2.1 0.196-0.149 0.392-0.359 0.436-0.467 0.071-0.173 0.062-0.233-0.073-0.515-0.084-0.176-0.195-0.355-0.247-0.398s-0.113-0.212-0.135-0.375c-0.051-0.372-0.158-0.712-0.265-0.843-0.045-0.055-0.082-0.131-0.082-0.168s-0.057-0.192-0.126-0.345c-0.168-0.37-0.161-0.575 0.030-0.856 0.226-0.333 0.211-0.607-0.044-0.822-0.161-0.136-0.247-0.164-0.416-0.137-0.206 0.034-0.834 0.484-1.158 0.831-0.085 0.091-0.205 0.165-0.267 0.165s-0.13 0.029-0.152 0.064c-0.022 0.035-0.146 0.064-0.276 0.064h-0.236l0.020-0.652c0.025-0.814-0.052-0.984-0.525-1.149-0.098-0.034 1.050-1.239 1.349-1.416 0.148-0.087 0.36-0.273 0.472-0.412 0.186-0.231 0.229-0.253 0.507-0.253 0.392 0 0.65-0.2 0.65-0.503 0-0.289-0.288-0.553-0.849-0.778-0.254-0.102-0.55-0.248-0.658-0.325-0.739-0.526-2.456-1.284-3.221-1.422-0.562-0.101-1.275-0.283-1.275-0.325 0-0.013 0.047-0.096 0.105-0.184 0.186-0.284 0.040-0.561-0.583-1.108-0.299-0.262-0.606-0.577-0.683-0.7s-0.288-0.397-0.469-0.61l-0.328-0.388 0.092-0.599c0.057-0.369 0.079-0.806 0.057-1.14-0.019-0.297-0.053-0.87-0.076-1.273l-0.041-0.732 0.173 0.159c0.095 0.087 0.231 0.274 0.302 0.414 0.227 0.449 0.416 0.646 0.957 0.995 0.292 0.188 0.586 0.378 0.655 0.423s0.206 0.131 0.306 0.191c0.211 0.127 1.167 0.883 1.534 1.212 0.139 0.124 0.365 0.443 0.503 0.707s0.336 0.645 0.439 0.844c0.103 0.2 0.392 0.581 0.642 0.846 0.354 0.376 0.536 0.516 0.823 0.63 0.295 0.118 0.404 0.204 0.548 0.43 0.24 0.378 0.769 0.9 1.123 1.108 0.175 0.103 0.399 0.325 0.573 0.568 0.157 0.22 0.402 0.506 0.546 0.635 0.281 0.254 0.962 0.605 1.172 0.605 0.201 0 0.642 0.497 0.735 0.827 0.044 0.158 0.104 0.319 0.134 0.358s0.040 0.111 0.023 0.159c-0.018 0.050 0.069 0.163 0.201 0.263 0.225 0.171 0.248 0.175 0.841 0.139 0.722-0.044 1.154-0.121 1.442-0.258 0.41-0.194 0.86-0.969 1.31-2.252 0.067-0.193 0.139-0.579 0.159-0.859 0.045-0.63-0.054-1.050-0.445-1.879-0.157-0.332-0.275-0.613-0.264-0.626s0.101 0.052 0.199 0.143c0.194 0.18 0.434 0.21 0.608 0.078 0.061-0.046 0.247-0.269 0.414-0.495s0.428-0.567 0.579-0.757c0.152-0.19 0.49-0.632 0.752-0.982s0.895-1.077 1.408-1.616c0.513-0.539 1.019-1.101 1.125-1.249s0.455-0.567 0.776-0.93c0.321-0.363 0.64-0.731 0.709-0.818 0.124-0.156 0.129-0.157 0.35-0.051 0.394 0.188 0.978 1.171 1.162 1.959 0.154 0.656 0.159 0.724 0.194 2.438l0.031 1.515-0.257 0.871c-0.141 0.479-0.288 1.072-0.326 1.317-0.21 1.343-0.425 2.197-0.677 2.683-0.124 0.239-0.251 0.467-0.283 0.506s-0.293 0.12-0.582 0.18c-0.396 0.083-0.813 0.252-1.702 0.689-1.482 0.73-1.885 0.998-2.486 1.653-0.652 0.711-1.723 2.339-2.102 3.198-0.077 0.175-0.198 0.395-0.267 0.49-0.121 0.164-0.122 0.179-0.017 0.34 0.061 0.092 0.287 0.279 0.503 0.415 0.537 0.338 1.092 0.996 1.25 1.482 0.048 0.149 0.077 0.569 0.073 1.075-0.007 0.953 0.007 0.918-0.71 1.863-0.311 0.41-0.645 0.744-1.176 1.177-0.408 0.332-0.789 0.623-0.848 0.645-0.095 0.037-0.096 0.045-0.005 0.082 0.061 0.025 0.101 0.118 0.101 0.237 0 0.216 0.215 0.43 0.435 0.435 0.070 0.001 0.167 0.027 0.215 0.058 0.127 0.080-0.101 0.19-0.545 0.262-0.46 0.075-0.635 0.195-0.726 0.501-0.041 0.137-0.182 0.391-0.314 0.565-0.29 0.383-0.335 0.511-0.348 0.984-0.008 0.286-0.042 0.4-0.158 0.523l-0.148 0.157-0.243-0.25c-0.385-0.397-0.723-0.596-0.926-0.545-0.266 0.067-0.521 0.276-0.655 0.538-0.085 0.167-0.203 0.273-0.396 0.358-0.151 0.066-0.361 0.182-0.466 0.258s-0.269 0.156-0.365 0.179c-0.185 0.044-0.639 0.562-0.787 0.898l-0.084 0.191-0.002-0.197zM15.274 28.966c0.125-0.146 0.228-0.303 0.228-0.349s0.086-0.223 0.191-0.393c0.105-0.171 0.191-0.359 0.191-0.418s0.054-0.228 0.121-0.375c0.302-0.667 0.331-0.765 0.247-0.818-0.128-0.081-0.166-0.065-0.283 0.122-0.060 0.096-0.148 0.218-0.194 0.27-0.555 0.627-0.798 1.15-0.865 1.861-0.042 0.454 0.042 0.477 0.365 0.1zM14.364 25.283c0.040-0.486 0.143-0.878 0.293-1.108 0.045-0.069 0.082-0.176 0.082-0.239s0.029-0.113 0.064-0.113c0.035 0 0.064-0.041 0.064-0.091s0.039-0.13 0.086-0.177c0.047-0.047 0.121-0.194 0.165-0.326s0.134-0.274 0.2-0.316c0.067-0.042 0.121-0.136 0.121-0.209s0.042-0.273 0.093-0.443c0.051-0.17 0.082-0.321 0.068-0.335s-0.116 0.020-0.227 0.075c-0.111 0.055-0.306 0.119-0.434 0.142s-0.289 0.089-0.36 0.148c-0.070 0.059-0.243 0.184-0.384 0.278-0.725 0.483-0.927 0.936-0.763 1.706 0.048 0.224 0.132 0.533 0.187 0.686s0.1 0.333 0.1 0.401c0 0.179 0.293 0.447 0.463 0.423 0.128-0.018 0.146-0.066 0.181-0.501zM13.231 21.954c0.018-0.048 0.365-0.366 0.771-0.706s0.868-0.788 1.027-0.995l0.29-0.377-0.131-0.167c-0.072-0.092-0.131-0.196-0.131-0.232 0-0.11-0.32-0.491-0.413-0.491-0.111 0-0.14 0.106-0.195 0.7-0.024 0.262-0.060 0.505-0.080 0.538s-0.029 0.177-0.021 0.32c0.015 0.248-0.003 0.276-0.449 0.672-0.256 0.228-0.544 0.464-0.64 0.525s-0.175 0.153-0.175 0.205c0 0.118 0.103 0.123 0.147 0.006z"></path>
</svg>
