<!-- Generated by IcoMoon.io -->
<svg version="1.1" xmlns="http://www.w3.org/2000/svg" width="32" height="32" viewBox="0 0 32 32">
<title>into_the_maelstrom</title>
<path d="M23.1 29.705l-0.367-0.056c-0.258-0.042-0.522-0.124-0.773-0.197-0.248-0.073-0.511-0.166-0.736-0.294-0.135-0.076-0.251-0.177-0.374-0.267-0.224-0.162-0.477-0.274-0.711-0.42-0.303-0.187-0.534-0.431-0.767-0.695-0.301-0.342-0.594-0.666-0.847-1.044-0.38-0.572-0.657-1.222-0.884-1.869-0.14-0.398-0.231-0.79-0.267-1.209-0.029-0.349-0.115-0.693-0.142-1.039-0.025-0.321-0.049-0.649-0.058-0.971-0.004-0.21 0.003-0.421 0.003-0.631 0-0.224-0.037-0.514 0.017-0.739 0.037-0.165 0.115-0.322 0.162-0.484 0.037-0.134 0.062-0.269 0.097-0.404 0.069-0.257 0.218-0.486 0.308-0.736 0.079-0.219 0.194-0.443 0.308-0.646 0.080-0.145 0.189-0.276 0.279-0.415 0.118-0.182 0.206-0.381 0.31-0.57 0.131-0.235 0.283-0.442 0.425-0.667 0.12-0.189 0.212-0.381 0.355-0.558 0.148-0.186 0.322-0.348 0.474-0.529 0.182-0.218 0.384-0.431 0.591-0.627 0.222-0.212 0.438-0.415 0.697-0.586 0.201-0.131 0.427-0.232 0.622-0.373 0.138-0.1 0.228-0.235 0.371-0.326 0.497-0.314 1.090-0.436 1.669-0.5 0.88-0.094 1.765-0.118 2.651-0.128 0.583-0.008 1.080 0.253 1.581 0.511l0.319 0.239 0.214 0.11c0.167 0.073 0.326 0.169 0.493 0.259 0.155 0.083 0.217 0.218 0.306 0.366l0.079 0.231 0.083 0.149 0.085 0.184-0.045-0.174c-0.080-0.225-0.204-0.429-0.311-0.642-0.118-0.234-0.211-0.45-0.367-0.662-0.16-0.214-0.325-0.425-0.534-0.593-0.214-0.17-0.396-0.277-0.657-0.365-0.263-0.087-0.531-0.155-0.797-0.229-0.707-0.199-1.437-0.259-2.157-0.387-0.344-0.060-0.687-0.127-1.030-0.184-0.318-0.053-0.653-0.025-0.974-0.025-0.776-0.004-1.47 0.108-2.168 0.459-0.241 0.121-0.483 0.211-0.715 0.352-0.267 0.161-0.625 0.286-0.84 0.515l-0.287 0.274-0.342 0.228c-0.241 0.203-0.465 0.413-0.645 0.669-0.211 0.301-0.473 0.58-0.633 0.915-0.135 0.282-0.291 0.556-0.419 0.842-0.173 0.389-0.325 0.787-0.504 1.173-0.141 0.3-0.306 0.584-0.424 0.895-0.080 0.209-0.137 0.424-0.232 0.628-0.117 0.255-0.142 0.488-0.172 0.766-0.037 0.349-0.112 0.692-0.147 1.042-0.045 0.47-0.008 0.959-0.008 1.429 0 0.307 0.003 0.614 0 0.921-0.003 0.284 0.042 0.536 0.092 0.815 0.077 0.436 0.138 0.881 0.266 1.308 0.145 0.485 0.353 0.957 0.555 1.422 0.228 0.525 0.457 0.988 0.835 1.42 0.383 0.438 0.828 0.77 1.312 1.085 0.466 0.304 0.912 0.648 1.422 0.876 0.173 0.076 0.322 0.158 0.508 0.199 0.276 0.059 0.569 0.1 0.852 0.106 0.869 0.017 1.733 0.045 1.997-0.142z"></path>
<path d="M9.649 25.284c-0.673-0.811-1.15-1.783-1.402-2.817-0.238-0.973-0.37-1.985-0.238-2.986 0.048-0.355 0.151-0.702 0.227-1.053 0.108-0.504 0.236-1.004 0.439-1.48 0.294-0.691 0.611-1.365 0.954-2.031 0.319-0.618 0.835-1.163 1.277-1.692 0.221-0.263 0.469-0.494 0.756-0.683 0.341-0.222 0.705-0.403 1.050-0.617 0.239-0.148 0.46-0.303 0.719-0.414 0.484-0.207 0.985-0.399 1.488-0.553 0.379-0.115 0.756-0.249 1.146-0.321 0.369-0.067 0.746-0.086 1.121-0.097 0.569-0.017 1.129-0.147 1.696-0.141 0.55 0.004 1.104-0.021 1.653 0.003 0.341 0.017 0.677 0.086 1.013 0.138 0.31 0.049 0.624 0.090 0.93 0.163 0.619 0.148 1.24 0.289 1.848 0.479 0.628 0.197 1.264 0.384 1.861 0.663 0.232 0.108 0.45 0.234 0.677 0.355 0.222 0.117 0.467 0.184 0.66 0.352 0.297 0.257 0.559 0.566 0.839 0.842 0.228 0.225 0.384 0.476 0.564 0.739 0.18 0.264 0.346 0.522 0.474 0.818 0.087 0.203 0.1 0.417 0.131 0.633 0.029 0.189 0.092 0.371 0.12 0.56l0.056 0.348 0.047 0.241c0.001-0.336 0.001-0.674 0-1.011-0.001-0.166-0.008-0.331 0.012-0.497 0.017-0.142 0.044-0.249 0.012-0.389l-0.118-0.335c-0.056-0.196-0.090-0.397-0.149-0.593-0.117-0.383-0.27-0.754-0.422-1.126-0.134-0.329-0.386-0.591-0.528-0.916-0.082-0.187-0.184-0.342-0.304-0.508-0.16-0.222-0.303-0.445-0.494-0.64-0.218-0.221-0.379-0.487-0.591-0.712-0.287-0.303-0.611-0.517-0.956-0.746-0.307-0.203-0.695-0.322-1.040-0.443-0.453-0.161-0.921-0.303-1.387-0.424-0.236-0.060-0.495-0.073-0.736-0.115-0.131-0.021-0.256-0.042-0.387-0.058-0.534-0.059-1.059-0.165-1.593-0.219-0.998-0.101-2.020-0.025-3.010 0.103-0.657 0.086-1.32 0.127-1.976 0.217-0.319 0.044-0.635 0.104-0.953 0.147-0.529 0.069-1.029 0.259-1.524 0.45-0.397 0.155-0.777 0.339-1.192 0.442-0.37 0.090-0.701 0.263-1.059 0.389-0.491 0.173-0.957 0.424-1.412 0.676-0.363 0.2-0.801 0.317-1.109 0.601-0.303 0.28-0.583 0.529-0.805 0.88-0.215 0.339-0.391 0.698-0.602 1.040-0.215 0.351-0.341 0.753-0.493 1.135-0.080 0.201-0.179 0.406-0.225 0.618-0.033 0.165-0.053 0.329-0.1 0.493-0.104 0.359-0.135 0.718-0.207 1.085-0.062 0.317-0.145 0.632-0.19 0.953-0.033 0.221-0.042 0.442-0.087 0.662-0.192 0.921-0.287 1.837-0.259 2.777 0.017 0.491 0.262 0.981 0.424 1.441 0.073 0.206 0.118 0.421 0.193 0.626 0.058 0.162 0.158 0.287 0.227 0.442 0.135 0.297 0.332 0.473 0.556 0.704 0.132 0.137 0.238 0.305 0.384 0.429 0.124 0.104 0.274 0.177 0.403 0.276 0.186 0.142 0.377 0.273 0.557 0.421 0.169 0.137 0.312 0.289 0.476 0.431 0.174 0.156 0.377 0.296 0.59 0.394 0.3 0.139 0.614 0.217 0.904 0.386z"></path>
<path d="M3.481 15.217c0-0.165-0.017-0.29-0.053-0.455-0.148-0.633-0.203-1.289-0.18-1.94 0.008-0.374 0.055-0.743 0.139-1.107 0.090-0.286 0.201-0.564 0.332-0.835 0.255-0.565 0.541-1.092 0.861-1.622 0.463-0.766 1.019-1.519 1.698-2.11 0.383-0.332 0.831-0.609 1.244-0.902 0.459-0.327 0.959-0.584 1.463-0.835 0.853-0.424 1.715-0.822 2.662-0.976 0.503-0.082 1.021-0.134 1.529-0.173 0.484-0.037 0.97-0.101 1.456-0.107 0.936-0.012 1.874 0.004 2.811 0.004 0.69-0.001 1.381-0.025 2.068 0.052 0.521 0.058 0.994 0.197 1.499 0.311 0.215 0.037 0.431 0.075 0.648 0.105 0.266 0.059 0.524 0.142 0.774 0.249 0.501 0.194 1.047 0.338 1.524 0.588 0.597 0.315 1.123 0.735 1.696 1.085 0.387 0.238 0.756 0.442 1.080 0.767 0.289 0.287 0.579 0.6 0.783 0.953 0.55 0.957 0.752 2.078 1.053 3.124 0.159 0.552 0.397 1.077 0.543 1.632 0.077 0.294 0.125 0.59 0.159 0.89 0.029 0.29 0.086 0.58 0.104 0.87 0.065 1.026 0.045 2.052 0.045 3.082 0.003-0.249 0.001-0.477 0.056-0.723 0.083-0.367 0.115-0.731 0.144-1.105 0.067-0.893 0.025-1.803-0.104-2.69-0.118-0.797-0.283-1.582-0.467-2.366-0.073-0.315-0.159-0.631-0.244-0.942-0.060-0.225-0.137-0.446-0.2-0.67-0.060-0.212-0.165-0.407-0.235-0.617-0.225-0.679-0.534-1.298-0.883-1.921-0.208-0.373-0.491-0.69-0.773-1.008-0.121-0.137-0.241-0.28-0.369-0.411-0.206-0.21-0.455-0.356-0.707-0.5-0.348-0.197-0.701-0.37-1.026-0.605-0.269-0.196-0.525-0.419-0.831-0.556-0.472-0.214-0.984-0.312-1.456-0.531-0.187-0.086-0.36-0.19-0.556-0.253-0.187-0.060-0.386-0.085-0.579-0.115-0.449-0.075-0.895-0.167-1.344-0.234-1.154-0.172-2.314-0.31-3.467-0.488-0.225-0.033-0.446-0.089-0.673-0.112-0.293-0.029-0.594-0.008-0.887-0.004-0.833 0.001-1.667 0-2.5 0-0.648 0-1.308-0.042-1.952 0.008-0.435 0.033-0.869 0.138-1.301 0.202-0.367 0.055-0.763 0.131-1.116 0.257-0.287 0.101-0.531 0.287-0.783 0.453-0.697 0.459-1.308 1.030-1.95 1.56l-0.339 0.341c-0.147 0.134-0.287 0.269-0.424 0.414-0.273 0.294-0.484 0.604-0.676 0.957-0.326 0.602-0.45 1.278-0.693 1.916-0.082 0.218-0.196 0.424-0.279 0.64l-0.070 0.259c-0.045 0.135-0.111 0.263-0.135 0.404-0.083 0.495-0.149 1.011-0.148 1.512 0.001 0.366 0.008 0.705 0.059 1.066 0.048 0.339 0.044 0.684 0.086 1.023 0.042 0.345 0.11 0.686 0.149 1.031 0.029 0.279 0.004 0.55 0.131 0.807 0.135 0.27 0.284 0.531 0.407 0.807l0.148 0.294z"></path>
<path d="M23.269 29.555c-0.389-0.004-0.767-0.029-1.153-0.092-0.574-0.092-1.112-0.338-1.617-0.621-0.494-0.276-1.014-0.566-1.422-0.963-0.192-0.184-0.387-0.356-0.595-0.522-0.212-0.167-0.326-0.374-0.453-0.61-0.58-1.077-0.671-2.393-0.64-3.597 0.012-0.507 0.106-1.019 0.234-1.509 0.135-0.508 0.403-0.936 0.709-1.358 0.271-0.374 0.531-0.721 0.905-1.001 0.332-0.247 0.709-0.39 1.104-0.504 0.37-0.107 0.722-0.224 1.106-0.27 0.373-0.046 0.755-0.058 1.129-0.058 0.249 0.001 0.546-0.048 0.787 0.008 0.21 0.048 0.439 0.135 0.64 0.212l0.318 0.176c0.135 0.079 0.284 0.13 0.415 0.214 0.145 0.093 0.242 0.206 0.328 0.353l0.163 0.329c-0.19-0.057-0.386-0.118-0.572-0.183-0.114-0.042-0.19-0.075-0.318-0.083-0.18-0.012-0.358-0.033-0.536-0.059-0.526-0.073-1.078-0.125-1.61-0.079-0.284 0.025-0.577 0.165-0.788 0.35l-0.326 0.182c-0.138 0.079-0.258 0.197-0.394 0.283-0.162 0.101-0.31 0.219-0.469 0.322l-0.277 0.184c-0.2 0.183-0.308 0.444-0.438 0.676l-0.096 0.277c-0.063 0.19-0.144 0.374-0.204 0.566-0.075 0.235-0.127 0.469-0.17 0.711-0.069 0.384-0.186 0.756-0.26 1.137-0.053 0.277-0.103 0.562-0.063 0.845 0.060 0.433 0.227 0.88 0.387 1.282 0.092 0.228 0.234 0.434 0.349 0.649 0.179 0.331 0.311 0.673 0.536 0.977 0.173 0.236 0.37 0.453 0.567 0.67 0.221 0.242 0.427 0.518 0.676 0.731 0.162 0.138 0.363 0.244 0.543 0.356l0.29 0.145c0.231 0.058 0.479 0.087 0.714 0.131 0.156 0.029 0.329 0.067 0.488 0.072-0.021-0.008-0.029-0.025 0.012-0.331z"></path>
<path d="M25.954 29.398c-0.363 0.167-0.757 0.159-1.15 0.093-0.704-0.121-1.382-0.356-1.99-0.729-0.36-0.222-0.612-0.51-0.892-0.822-0.192-0.213-0.374-0.418-0.514-0.669-0.132-0.238-0.3-0.459-0.427-0.698-0.155-0.294-0.228-0.632-0.214-0.961 0.008-0.218 0.047-0.432 0.080-0.648 0.048-0.3 0.067-0.615 0.2-0.892 0.117-0.245 0.252-0.483 0.374-0.723 0.127-0.247 0.242-0.465 0.445-0.655 0.228-0.212 0.465-0.389 0.746-0.524 0.291-0.138 0.636-0.283 0.956-0.322 0.559-0.069 1.113 0.117 1.633 0.3 0.548 0.193 1.054 0.524 1.571 0.787 0.301 0.152 0.598 0.403 0.75 0.712 0.155 0.319 0.236 0.693 0.248 1.046 0.008 0.335-0.001 0.646-0.094 0.967l-0.121 0.359c-0.080 0.163-0.152 0.367-0.286 0.493-0.503 0.467-1.132 0.759-1.824 0.725-0.21-0.008-0.445-0.021-0.648-0.077-0.273-0.075-0.536-0.215-0.785-0.346-0.342-0.18-0.61-0.367-0.79-0.722-0.115-0.228-0.206-0.421-0.263-0.67-0.042-0.184-0.115-0.336-0.103-0.526 0.025-0.401 0.18-0.762 0.39-1.099l-0.132 0.073c-0.16 0.118-0.287 0.328-0.422 0.473-0.12 0.131-0.196 0.182-0.276 0.335-0.089 0.172-0.169 0.304-0.158 0.503 0.012 0.236 0.097 0.5 0.207 0.711 0.127 0.244 0.296 0.436 0.467 0.647 0.179 0.222 0.318 0.463 0.545 0.64 0.14 0.11 0.256 0.247 0.404 0.348l0.37 0.204c0.128 0.077 0.242 0.172 0.372 0.246 0.182 0.106 0.366 0.122 0.566 0.17 0.187 0.046 0.363 0.029 0.553 0.037 0.252 0.012 0.428-0.012 0.652-0.134 0.68-0.37 1.222-0.964 1.657-1.593 0.115-0.166 0.208-0.363 0.299-0.545 0.141-0.286 0.106-0.583 0.082-0.891-0.021-0.255-0.083-0.515-0.13-0.766l-0.12-0.322-0.132-0.241-0.090-0.304c-0.085-0.225-0.231-0.432-0.331-0.653-0.122-0.276-0.282-0.519-0.442-0.773-0.085-0.131-0.2-0.184-0.318-0.28-0.232-0.187-0.55-0.287-0.822-0.398-0.366-0.151-0.693-0.376-1.075-0.487-0.125-0.037-0.258-0.042-0.386-0.063-0.206-0.033-0.403-0.113-0.61-0.135-0.639-0.073-1.342 0.218-1.848 0.584-0.156 0.113-0.283 0.252-0.429 0.376-0.186 0.159-0.377 0.277-0.538 0.463-0.152 0.174-0.334 0.367-0.45 0.57-0.269 0.462-0.55 1.013-0.633 1.544-0.045 0.287-0.1 0.567-0.197 0.843-0.055 0.155-0.118 0.306-0.117 0.473l0.021 0.228-0.012 0.236 0.042 0.331 0.055 0.186c0.067 0.213 0.059 0.441 0.131 0.65 0.183 0.546 0.483 1.071 0.956 1.41 0.363 0.26 0.715 0.518 1.115 0.723 0.27 0.138 0.541 0.277 0.808 0.421 0.197 0.105 0.45 0.207 0.67 0.246 0.283 0.050 0.569 0.113 0.857 0.115 0.369 0.004 0.712-0.001 1.064-0.118 0.169-0.056 0.324-0.086 0.496-0.121 0.063-0.012 0.11-0.025-0.008-0.363z"></path>
</svg>
