<!-- Generated by IcoMoon.io -->
<svg version="1.1" xmlns="http://www.w3.org/2000/svg" width="32" height="32" viewBox="0 0 32 32">
<title>inverted_level_3</title>
<path d="M16.117 32c-8.837 0-16-7.163-16-16s7.163-16 16-16c8.837 0 16 7.163 16 16s-7.163 16-16 16zM5.527 26.764c0.964 0 1.745-0.781 1.745-1.745s-0.781-1.745-1.745-1.745c-0.964 0-1.745 0.781-1.745 1.745s0.781 1.745 1.745 1.745zM16.117 30.836c0.964 0 1.745-0.781 1.745-1.745s-0.781-1.745-1.745-1.745c-0.964 0-1.745 0.781-1.745 1.745s0.781 1.745 1.745 1.745zM10.036 29.673c0.964 0 1.745-0.781 1.745-1.745s-0.781-1.745-1.745-1.745c-0.964 0-1.745 0.781-1.745 1.745s0.781 1.745 1.745 1.745zM16.073 26.473c7.672 0 13.891-5.861 13.891-13.091s-6.219-13.091-13.891-13.091c-7.672 0-13.891 5.861-13.891 13.091s6.219 13.091 13.891 13.091z"></path>
</svg>
