<!-- Generated by IcoMoon.io -->
<svg version="1.1" xmlns="http://www.w3.org/2000/svg" width="32" height="32" viewBox="0 0 32 32">
<title>inverted_level_none</title>
<path d="M16.117 0c-8.837 0-16 7.163-16 16s7.163 16 16 16c8.837 0 16-7.163 16-16s-7.163-16-16-16zM16.073 0.291c7.672 0 13.891 5.861 13.891 13.091s-6.219 13.091-13.891 13.091c-7.672 0-13.891-5.861-13.891-13.091s6.219-13.091 13.891-13.091zM1.312 14.388c0.062-0.014 0.13 0.326 0.187 0.969 0 6.531 7.21 12.588 14.14 12.588s13.843-4.519 14.728-10.988c0.493-2.391 0.531-3.665 0.616-0.471 0.235 7.979-7.28 14.346-15.262 14.346s-14.582-6.542-14.582-14.524c0.024-1.297 0.093-1.902 0.172-1.92z"></path>
</svg>
