<!-- Generated by IcoMoon.io -->
<svg version="1.1" xmlns="http://www.w3.org/2000/svg" width="32" height="32" viewBox="0 0 32 32">
<title>investigator</title>
<path d="M27.707 21.631c0.013 0.032 0.027 0.061 0.046 0.088 0.010 0.019 0.034 0.046 0.070 0.088 0 0.038-0.013 0.046-0.024 0.046-0.778 0.269-1.533 0.565-2.255 0.894-0.733 0.325-1.426 0.648-2.079 0.959 0.102 0.18 0.209 0.362 0.314 0.56 0.102 0.204 0.167 0.398 0.199 0.58-0.504 0.056-1.037 0.134-1.584 0.222-0.462 0.075-0.972 0.181-1.519 0.315-0.532 0.143-1.042 0.301-1.519 0.467-0.088 0.056-0.172 0.111-0.245 0.158-0.075 0.056-0.153 0.116-0.245 0.177-0.445 0.268-0.908 0.477-1.385 0.625-0.148 0.027-0.287 0.056-0.422 0.093-0.134 0.029-0.268 0.056-0.402 0.088-0.107 0.009-0.213 0.024-0.311 0.024-0.092 0.009-0.199 0.019-0.315 0.019-0.134 0-0.263-0.009-0.379-0.019-0.121-0.019-0.245-0.041-0.379-0.070-0.417-0.088-0.825-0.222-1.228-0.403-0.175-0.105-0.356-0.217-0.537-0.333-0.175-0.107-0.365-0.217-0.555-0.333-0.492-0.18-1.015-0.347-1.566-0.491-0.551-0.134-1.060-0.241-1.514-0.315-0.556-0.088-1.098-0.171-1.63-0.245 0.027-0.212 0.097-0.421 0.222-0.648 0.135-0.222 0.269-0.44 0.403-0.644-0.671-0.305-1.402-0.598-2.19-0.894-0.774-0.287-1.608-0.545-2.502-0.805v-0.024c0.013-0.041 0.024-0.064 0.024-0.064l0.069-0.070c0.223-0.311 0.473-0.63 0.755-0.959 0.226-0.231 0.449-0.467 0.671-0.69 0.223-0.236 0.454-0.458 0.695-0.671 0.292-0.25 0.588-0.5 0.889-0.76 0.315-0.25 0.635-0.513 0.964-0.782 0.056-0.009 0.092-0.041 0.112-0.088h0.024l-0.046-0.041c-0.078-0.033-0.143-0.051-0.199-0.070-0.046-0.027-0.092-0.056-0.134-0.088-0.213-0.121-0.422-0.231-0.625-0.338-0.199-0.116-0.381-0.255-0.561-0.422-0.148-0.115-0.292-0.231-0.422-0.333-0.125-0.102-0.241-0.227-0.36-0.362-0.223-0.277-0.417-0.547-0.58-0.8-0.078-0.102-0.143-0.209-0.199-0.315-0.064-0.097-0.129-0.209-0.203-0.333-0.034-0.075-0.056-0.139-0.065-0.199-0.020-0.075-0.046-0.148-0.088-0.228-0.020-0.088-0.038-0.157-0.046-0.222v-0.177c0.007-0.046 0.024-0.092 0.024-0.134 0-0.046 0.003-0.078 0.024-0.111 0.097-0.207 0.273-0.356 0.509-0.448 0.102-0.043 0.204-0.051 0.292-0.024 0.027 0.019 0.070 0.024 0.112 0.024 0.046 0 0.097 0.013 0.158 0.022 0.277 0.088 0.565 0.167 0.848 0.223 0.277 0.064 0.579 0.124 0.894 0.18 0.143 0.041 0.301 0.083 0.467 0.111 0.162 0.018 0.338 0.037 0.515 0.064 0.027 0.019 0.069 0.024 0.112 0.024 0.046 0 0.088 0.014 0.134 0.022h0.070l0.041-0.022v-0.065c0-0.073 0.003-0.139 0.024-0.204 0.010-0.069 0.024-0.143 0.024-0.222 0.010-0.088 0.024-0.177 0.024-0.269 0.010-0.088 0.041-0.166 0.088-0.245v-0.222c0.010-0.075 0.027-0.143 0.047-0.223 0.007-0.102 0.017-0.204 0.017-0.292 0.013-0.097 0.037-0.204 0.070-0.311 0.027-0.073 0.046-0.157 0.046-0.245 0.010-0.092 0.027-0.185 0.041-0.292 0.027-0.102 0.051-0.199 0.070-0.292 0.007-0.097 0.034-0.209 0.064-0.333 0.013-0.134 0.034-0.25 0.070-0.357 0.027-0.102 0.056-0.213 0.088-0.333 0.042-0.255 0.102-0.505 0.177-0.76 0.092-0.255 0.171-0.505 0.245-0.759 0.074-0.121 0.134-0.237 0.18-0.357 0.056-0.134 0.134-0.26 0.222-0.379 0.027-0.094 0.070-0.162 0.112-0.228 0.046-0.056 0.092-0.12 0.134-0.199l0.112-0.112c0.056-0.046 0.112-0.088 0.158-0.134 0.046-0.027 0.088-0.056 0.134-0.088 0.056-0.046 0.126-0.078 0.199-0.112 0.102-0.046 0.209-0.069 0.315-0.069 0.236-0.029 0.435-0.024 0.602 0.022 0.161 0.019 0.319 0.032 0.467 0.046s0.292 0.037 0.427 0.065c0.088 0.018 0.166 0.022 0.245 0.022 0.088 0 0.166 0.019 0.245 0.046 0.115 0.014 0.226 0.033 0.333 0.043h0.338c0.088 0.018 0.175 0.022 0.264 0.022h0.314c0.116 0.019 0.237 0.024 0.357 0.024h1.362c0.143 0 0.258-0.005 0.333-0.024h0.426c0.102-0.009 0.209-0.022 0.315-0.022 0.097 0 0.199-0.005 0.287-0.024 0.102-0.009 0.19-0.019 0.269-0.019 0.088-0.013 0.18-0.027 0.268-0.046 0.102 0 0.245-0.008 0.422-0.046 0.134-0.027 0.258-0.051 0.379-0.064 0.12-0.014 0.245-0.029 0.379-0.046 0.092-0.009 0.181-0.024 0.269-0.024h0.268c0.135 0.037 0.25 0.065 0.357 0.093 0.056 0.033 0.102 0.060 0.134 0.088 0.027 0.019 0.075 0.038 0.135 0.065 0.046 0.037 0.088 0.070 0.134 0.116 0.046 0.042 0.092 0.097 0.158 0.153 0.056 0.078 0.112 0.166 0.153 0.268 0.059 0.088 0.12 0.172 0.18 0.245 0.143 0.287 0.273 0.57 0.379 0.848 0.056 0.18 0.112 0.371 0.158 0.561 0.056 0.194 0.116 0.389 0.177 0.579 0.046 0.194 0.092 0.394 0.134 0.583 0.046 0.194 0.092 0.389 0.134 0.579 0.046 0.167 0.075 0.325 0.088 0.468 0.013 0.153 0.038 0.306 0.070 0.468 0.027 0.134 0.051 0.282 0.065 0.426 0.013 0.148 0.037 0.292 0.069 0.426 0.010 0.121 0.024 0.232 0.024 0.334 0.010 0.088 0.041 0.199 0.088 0.333 0 0.078 0.003 0.153 0.024 0.222 0.007 0.065 0.024 0.13 0.024 0.204v0.041c0 0.038 0.010 0.046 0.041 0.046 0.056 0 0.102-0.005 0.134-0.022 0.135-0.009 0.269-0.029 0.403-0.041 0.143-0.014 0.292-0.038 0.427-0.070 0.356-0.088 0.713-0.167 1.069-0.245 0.366-0.088 0.736-0.175 1.093-0.268 0.027 0 0.097-0.009 0.204-0.043 0.129 0 0.231 0.014 0.311 0.043 0.268 0.124 0.43 0.324 0.491 0.601 0.007 0.079 0.007 0.153 0 0.228 0 0.060-0.010 0.12-0.024 0.175-0.034 0.213-0.097 0.394-0.199 0.537-0.088 0.213-0.218 0.422-0.379 0.648-0.088 0.148-0.195 0.287-0.315 0.422-0.102 0.134-0.217 0.287-0.333 0.449-0.282 0.309-0.598 0.579-0.935 0.8-0.403 0.288-0.792 0.51-1.163 0.672-0.034 0.013-0.056 0.032-0.069 0.046-0.013 0-0.037 0.009-0.065 0.018l-0.024 0.024c0.027 0.032 0.046 0.056 0.046 0.070 0.43 0.328 0.856 0.662 1.291 1.004 0.315 0.264 0.612 0.532 0.894 0.801 0.283 0.269 0.561 0.537 0.83 0.806 0.19 0.194 0.365 0.394 0.532 0.601 0.162 0.213 0.324 0.417 0.491 0.626zM16.657 25.715c0.268-0.046 0.513-0.12 0.736-0.222 0.411-0.153 0.81-0.352 1.186-0.602 0.204-0.134 0.398-0.292 0.579-0.473 0.18-0.166 0.357-0.333 0.537-0.509 0.223-0.241 0.422-0.486 0.602-0.741 0.175-0.255 0.333-0.51 0.467-0.779 0.315-0.583 0.542-1.167 0.695-1.764 0.041-0.115 0.070-0.245 0.089-0.379 0.027-0.134 0.054-0.26 0.088-0.379 0.013-0.089 0.027-0.167 0.046-0.245 0.010-0.075 0.024-0.158 0.024-0.247 0.010-0.088 0.020-0.18 0.020-0.268 0-0.102 0.010-0.223 0.024-0.357v-0.445c0-0.014-0.013-0.022-0.043-0.022h-0.069c-0.034 0.032-0.079 0.055-0.135 0.064-0.041 0-0.083 0.014-0.11 0.024-0.213 0.061-0.417 0.111-0.626 0.158-0.212 0.041-0.421 0.088-0.647 0.134-0.135 0.032-0.269 0.061-0.398 0.088-0.126 0.019-0.245 0.037-0.381 0.065-0.092 0.018-0.18 0.037-0.268 0.046-0.092 0-0.177 0.009-0.245 0.022-0.079 0.033-0.148 0.043-0.204 0.043-0.061 0-0.126 0.018-0.199 0.046-0.079 0-0.158 0.013-0.245 0.022-0.079 0-0.158 0.009-0.245 0.024-0.088 0-0.19 0.009-0.292 0.022-0.107 0.014-0.213 0.019-0.311 0.019-0.107 0-0.204 0.014-0.292 0.022h-0.379c-0.034 0-0.065 0.014-0.112 0.024h-0.134c-0.196 0-0.395 0.009-0.602 0.022-0.195 0-0.389-0.013-0.58-0.046h-0.338c-0.078-0.008-0.153-0.022-0.245-0.022h-0.024c-0.089 0-0.218-0.009-0.381-0.041-0.166 0-0.277-0.005-0.333-0.024-0.088-0.009-0.171-0.022-0.245-0.022-0.060 0-0.134-0.009-0.222-0.046-0.089-0.029-0.191-0.043-0.292-0.043-0.107-0.013-0.196-0.027-0.269-0.046-0.148-0.027-0.287-0.051-0.422-0.064-0.134-0.014-0.268-0.033-0.402-0.070-0.241-0.041-0.468-0.088-0.69-0.134-0.213-0.056-0.427-0.116-0.648-0.177-0.079-0.027-0.153-0.046-0.223-0.046-0.064-0.009-0.129-0.032-0.204-0.064-0.034 0-0.041 0.013-0.041 0.041v0.491c0 0.125 0.003 0.241 0.020 0.362 0.013 0.12 0.024 0.236 0.024 0.356 0.013 0.107 0.046 0.223 0.089 0.357 0.027 0.167 0.069 0.328 0.115 0.491 0.041 0.167 0.092 0.333 0.153 0.515 0.325 0.953 0.852 1.834 1.565 2.653 0.191 0.236 0.403 0.459 0.626 0.671 0.222 0.209 0.472 0.413 0.759 0.626 0.135 0.102 0.279 0.199 0.445 0.292 0.162 0.088 0.325 0.166 0.491 0.245 0.209 0.134 0.478 0.231 0.806 0.311 0.088 0.013 0.162 0.027 0.223 0.046 0.074 0.008 0.157 0.022 0.245 0.022 0.25 0.009 0.537 0 0.848-0.046z"></path>
</svg>
