<!-- Generated by IcoMoon.io -->
<svg version="1.1" xmlns="http://www.w3.org/2000/svg" width="32" height="32" viewBox="0 0 32 32">
<title>jabberwock</title>
<path d="M2 29.837c0-0.077 1.133-2.697 2.518-5.821s2.486-5.712 2.447-5.751c-0.084-0.084-4.097 7.694-4.598 8.912-0.304 0.739-0.347 0.778-0.356 0.325-0.006-0.29 0.683-1.901 1.578-3.687 0.873-1.744 1.553-3.171 1.51-3.171s-0.691 1.050-1.44 2.333c-0.749 1.283-1.438 2.333-1.53 2.333s-0.113-0.142-0.047-0.316c0.102-0.267 1.863-3.317 3.131-5.425 0.201-0.334 0.324-0.607 0.274-0.607s-0.832 1.14-1.738 2.532c-0.906 1.393-1.675 2.448-1.71 2.344s0.040-0.382 0.167-0.619c0.31-0.582 3.068-4.749 4.345-6.565 0.852-1.212 1.013-1.563 0.924-2.010-0.063-0.315 0.024-0.888 0.207-1.369 0.237-0.621 0.266-0.919 0.117-1.198-0.286-0.534-0.244-2.006 0.074-2.621 0.15-0.29 0.229-0.571 0.175-0.624s0.007-0.602 0.134-1.219c0.21-1.018 0.199-1.17-0.122-1.653-0.194-0.292-0.356-0.616-0.36-0.718s-0.123-0.461-0.264-0.796c-0.319-0.757-0.9-0.924-1.772-0.51-0.564 0.268-0.678 0.43-0.781 1.118-0.137 0.911-0.002 1.481 0.502 2.127 0.495 0.633 0.437 1.668-0.152 2.747-0.438 0.803-0.503 1.143-0.53 2.781-0.017 1.027-0.124 2.203-0.239 2.613s-0.257 0.98-0.315 1.265c-0.136 0.663-1.339 2.002-1.799 2.002-0.488 0-0.441-0.28 0.21-1.245 0.928-1.375 1.194-3.379 0.652-4.915-0.389-1.104-0.352-1.675 0.185-2.828 0.564-1.211 0.575-1.469 0.096-2.254-0.484-0.794-0.555-3.82-0.094-3.997 0.154-0.059 0.28-0.215 0.28-0.346 0-0.38 1.196-0.845 2.469-0.96 1.088-0.098 1.226-0.066 1.933 0.452 0.419 0.306 0.904 0.856 1.077 1.222s0.538 0.84 0.81 1.054l0.495 0.389 0.575-0.523c1.615-1.47 2.767-1.915 4.961-1.915s3.346 0.444 4.961 1.915l0.575 0.523 0.495-0.389c0.272-0.214 0.637-0.688 0.81-1.054s0.658-0.915 1.077-1.222c0.707-0.518 0.845-0.55 1.933-0.452 1.273 0.115 2.469 0.58 2.469 0.96 0 0.131 0.126 0.287 0.28 0.346 0.461 0.177 0.39 3.203-0.094 3.997-0.479 0.785-0.468 1.044 0.096 2.254 0.537 1.154 0.574 1.724 0.185 2.828-0.542 1.536-0.276 3.541 0.652 4.915 0.651 0.965 0.699 1.245 0.21 1.245-0.459 0-1.662-1.339-1.799-2.002-0.059-0.285-0.2-0.854-0.315-1.265s-0.222-1.587-0.239-2.613c-0.027-1.639-0.091-1.979-0.53-2.781-0.589-1.079-0.646-2.114-0.152-2.747 0.504-0.645 0.639-1.216 0.502-2.127-0.103-0.687-0.217-0.85-0.781-1.118-0.872-0.414-1.453-0.247-1.772 0.51-0.141 0.335-0.26 0.693-0.264 0.796s-0.166 0.426-0.36 0.718c-0.321 0.483-0.332 0.635-0.122 1.653 0.127 0.617 0.188 1.165 0.134 1.219s0.025 0.334 0.175 0.624c0.318 0.615 0.36 2.087 0.074 2.621-0.149 0.278-0.12 0.576 0.117 1.198 0.184 0.481 0.27 1.054 0.207 1.369-0.090 0.448 0.072 0.799 0.924 2.010 1.277 1.816 4.035 5.984 4.345 6.565 0.126 0.237 0.201 0.515 0.166 0.619s-0.804-0.951-1.71-2.344c-0.906-1.393-1.688-2.532-1.738-2.532s0.073 0.273 0.274 0.607c1.268 2.108 3.029 5.158 3.131 5.425 0.067 0.174 0.046 0.316-0.047 0.316s-0.781-1.050-1.53-2.333c-0.749-1.283-1.397-2.333-1.44-2.333s0.637 1.427 1.51 3.171c0.894 1.786 1.583 3.397 1.578 3.687-0.009 0.454-0.052 0.415-0.356-0.325-0.501-1.217-4.515-8.995-4.598-8.912-0.039 0.039 1.062 2.627 2.447 5.751s2.518 5.743 2.518 5.821c0 0.596-0.533-0.394-2.039-3.787-1.72-3.876-2.352-4.994-1.409-2.492 1.294 3.433 2.273 6.432 2.078 6.369-0.119-0.039-0.415-0.63-0.658-1.315-0.495-1.397-0.899-1.54-0.484-0.171 0.147 0.485 0.269 1.034 0.27 1.22 0.003 0.553-0.319 0.184-0.451-0.516-0.067-0.357-0.202-0.699-0.301-0.76-0.226-0.14-0.229 0.209-0.006 0.986 0.208 0.724-0.093 0.841-0.36 0.139-0.098-0.257-0.231-0.467-0.297-0.467s-0.080 0.21-0.031 0.467c0.083 0.435 0.038 0.467-0.658 0.467-0.88 0-1.24-0.366-1.249-1.268-0.007-0.734-0.551-3.046-0.775-3.293-0.354-0.391-0.305 0.103 0.215 2.14 0.615 2.412 0.617 2.421 0.387 2.421-0.092 0-0.344-0.609-0.559-1.353l-0.393-1.353 0.11 1.103c0.060 0.606 0.153 1.215 0.206 1.353s0.009 0.251-0.098 0.251c-0.224 0-0.331-0.32-0.499-1.493-0.216-1.507-0.248-1.551-0.718-1.005-0.533 0.619-1.839 0.803-2.756 0.388-1.201-0.543-1.477-0.564-1.926-0.143-0.232 0.218-0.686 0.472-1.011 0.565-0.722 0.207-1.614-0.023-2.191-0.565-0.448-0.421-0.725-0.401-1.926 0.143-0.917 0.415-2.223 0.231-2.756-0.388-0.47-0.546-0.501-0.501-0.718 1.005-0.169 1.174-0.275 1.493-0.499 1.493-0.107 0-0.151-0.113-0.098-0.251s0.146-0.747 0.206-1.353l0.11-1.103-0.393 1.353c-0.216 0.744-0.468 1.353-0.559 1.353-0.229 0-0.228-0.009 0.387-2.421 0.52-2.037 0.569-2.531 0.215-2.14-0.224 0.247-0.768 2.559-0.775 3.293-0.009 0.902-0.369 1.268-1.249 1.268-0.696 0-0.741-0.032-0.658-0.467 0.049-0.257 0.035-0.467-0.031-0.467s-0.2 0.21-0.297 0.467c-0.267 0.702-0.568 0.586-0.36-0.139 0.223-0.777 0.221-1.126-0.006-0.986-0.099 0.061-0.234 0.403-0.301 0.76-0.131 0.7-0.454 1.069-0.451 0.516 0.001-0.186 0.122-0.735 0.27-1.22 0.415-1.369 0.012-1.227-0.484 0.171-0.243 0.684-0.539 1.276-0.658 1.315-0.195 0.063 0.783-2.935 2.078-6.369 0.943-2.502 0.311-1.385-1.409 2.492-1.506 3.393-2.039 4.383-2.039 3.787zM6.546 28.267c-0.252-0.279-0.343-0.661-0.335-1.414 0.009-0.919 0.076-1.090 0.61-1.567 0.33-0.295 0.719-0.535 0.866-0.535 0.484 0 1.552-0.753 1.665-1.173 0.192-0.718 0.134-2.69-0.071-2.373-0.1 0.154-0.182 0.477-0.184 0.718-0.005 0.741-0.547 1.408-1.541 1.896-0.523 0.257-1.231 0.729-1.573 1.049-0.542 0.507-0.622 0.7-0.619 1.493 0.002 0.501 0.080 1.033 0.173 1.181 0.403 0.637 1.229 1.467 1.29 1.295 0.036-0.103-0.090-0.359-0.28-0.569zM26.464 27.533c0.098-0.182 0.177-0.726 0.177-1.208 0-0.753-0.088-0.959-0.622-1.459-0.342-0.32-1.050-0.792-1.573-1.049-0.994-0.488-1.536-1.155-1.541-1.896-0.002-0.241-0.084-0.564-0.184-0.718-0.204-0.316-0.263 1.656-0.071 2.373 0.113 0.421 1.181 1.173 1.665 1.173 0.147 0 0.536 0.241 0.866 0.535 0.534 0.477 0.6 0.648 0.61 1.567 0.007 0.731-0.085 1.136-0.316 1.393-0.18 0.199-0.327 0.469-0.327 0.6 0 0.256 1.022-0.763 1.316-1.312zM7.548 26.759c0.268-1.004 0.144-1.153-0.225-0.27-0.316 0.755-0.354 1.061-0.134 1.061 0.081 0 0.243-0.356 0.359-0.792zM17.666 26.549c0.391-0.527 0.891-1.119 1.11-1.314 0.281-0.251 0.39-0.553 0.37-1.027-0.023-0.541-0.043-0.574-0.104-0.172-0.042 0.275-0.485 0.914-0.986 1.424-0.939 0.954-1.509 1.173-2.627 1.009-0.716-0.105-2.361-1.725-2.469-2.432-0.062-0.403-0.082-0.369-0.104 0.172-0.020 0.474 0.089 0.776 0.37 1.027 0.219 0.196 0.719 0.787 1.11 1.314 0.695 0.936 0.735 0.959 1.665 0.959s0.971-0.023 1.665-0.959zM24.961 27.358c0-0.29-0.554-1.556-0.642-1.468-0.125 0.125 0.332 1.66 0.494 1.66 0.081 0 0.148-0.087 0.148-0.193zM12.687 27.051c0.273-0.161 0.134-0.743-0.327-1.367-0.41-0.556-0.468-0.826-0.475-2.23-0.005-0.884-0.127-1.93-0.273-2.341-0.37-1.040-0.038-1.275 0.505-0.357l0.43 0.727 0.058-0.598c0.032-0.329-0.026-0.754-0.128-0.946s-0.287-1.069-0.41-1.95c-0.214-1.528-0.204-1.643 0.201-2.482 0.363-0.75 0.593-0.959 1.566-1.419 1.547-0.732 2.787-0.732 4.334 0 0.972 0.46 1.203 0.669 1.566 1.419 0.406 0.838 0.415 0.954 0.201 2.482-0.123 0.881-0.308 1.759-0.41 1.95s-0.16 0.617-0.128 0.946l0.058 0.598 0.43-0.727c0.543-0.918 0.875-0.683 0.505 0.357-0.147 0.412-0.269 1.458-0.273 2.341-0.007 1.403-0.065 1.674-0.475 2.23-0.461 0.624-0.6 1.206-0.327 1.367 0.077 0.046 0.491 0.141 0.92 0.212 0.713 0.118 0.809 0.085 1.12-0.39 0.438-0.669 0.406-1.702-0.101-3.227-0.219-0.659-0.398-1.268-0.398-1.353 0-0.34 0.525-0.13 0.663 0.264 0.121 0.347 0.159 0.28 0.22-0.387 0.040-0.444-0.002-0.906-0.093-1.027-0.286-0.376-0.097-3.135 0.3-4.388l0.375-1.182-0.545-0.19c-0.3-0.104-0.545-0.316-0.545-0.469 0-0.227 0.172-0.256 0.922-0.152 1.538 0.211 2.044-0.203 1.497-1.225-0.18-0.336-0.233-0.342-0.737-0.081-0.299 0.155-0.968 0.281-1.486 0.281-1.139 0-1.175 0.152-0.482 2.070 0.253 0.702 0.39 1.319 0.305 1.372-0.306 0.189-0.8-0.634-1.354-2.257-0.642-1.882-0.765-2.049-2.246-3.060-1.388-0.948-1.902-0.948-3.291 0-1.481 1.011-1.604 1.178-2.246 3.060-0.554 1.623-1.048 2.447-1.354 2.257-0.085-0.053 0.052-0.67 0.305-1.372 0.692-1.919 0.657-2.070-0.482-2.070-0.518 0-1.187-0.127-1.486-0.281-0.505-0.261-0.558-0.255-0.737 0.081-0.547 1.022-0.040 1.437 1.497 1.225 0.751-0.103 0.922-0.075 0.922 0.152 0 0.154-0.245 0.365-0.545 0.469l-0.545 0.19 0.375 1.182c0.397 1.253 0.586 4.012 0.3 4.388-0.092 0.121-0.134 0.583-0.093 1.027 0.061 0.667 0.099 0.734 0.22 0.387 0.137-0.394 0.663-0.604 0.663-0.264 0 0.086-0.179 0.695-0.398 1.353-0.507 1.525-0.54 2.557-0.101 3.227 0.311 0.475 0.407 0.508 1.12 0.39 0.429-0.071 0.843-0.166 0.92-0.212zM14.321 12.747c0-0.374 0.402-0.691 0.877-0.691 0.575 0 0.546 0.447-0.046 0.717-0.615 0.28-0.831 0.274-0.831-0.026zM16.794 12.762c-0.547-0.264-0.541-0.706 0.009-0.706 0.475 0 0.877 0.317 0.877 0.691 0 0.288-0.309 0.293-0.887 0.015zM17.429 25.019c0.502-0.502 0.474-0.872-0.034-0.451-0.169 0.14-0.762 0.244-1.395 0.244s-1.225-0.104-1.395-0.244c-0.508-0.421-0.535-0.051-0.034 0.451 0.388 0.388 0.658 0.478 1.428 0.478s1.041-0.090 1.428-0.478zM15.552 22.396c-0.055-0.142-0.317-0.259-0.583-0.259-0.453 0-0.48 0.050-0.426 0.789 0.045 0.624 0.155 0.838 0.524 1.022 0.457 0.228 0.468 0.216 0.525-0.53 0.032-0.42 0.014-0.88-0.041-1.022zM17.261 23.765c0.128-0.099 0.233-0.512 0.233-0.917 0-0.693-0.030-0.733-0.513-0.677-0.479 0.055-0.517 0.125-0.57 1.037-0.050 0.874-0.021 0.965 0.28 0.858 0.185-0.066 0.441-0.201 0.57-0.301zM7.308 20.477c0.674-1.683 1.225-3.090 1.225-3.127s-0.084-0.066-0.187-0.066c-0.103 0-0.187 0.088-0.187 0.195s-0.429 1.262-0.953 2.567c-1.235 3.074-1.53 3.904-1.307 3.677 0.1-0.102 0.734-1.562 1.408-3.245zM25.999 23.117c-0.139-0.385-0.681-1.767-1.205-3.072s-0.953-2.46-0.953-2.567c0-0.107-0.084-0.195-0.187-0.195s-0.187 0.030-0.187 0.066c0 0.099 2.423 6.123 2.537 6.308 0.231 0.374 0.229 0.109-0.005-0.54zM7.967 21.974l-0.007-0.491-0.267 0.467c-0.373 0.652-0.373 1.056 0 0.747 0.154-0.128 0.277-0.453 0.273-0.723zM24.327 22.008l-0.284-0.525-0.007 0.476c-0.004 0.262 0.096 0.58 0.224 0.707 0.35 0.35 0.393-0.060 0.068-0.659zM7.781 20.737c0-0.103-0.081-0.061-0.181 0.093s-0.181 0.364-0.181 0.467c0 0.103 0.081 0.061 0.181-0.093s0.181-0.364 0.181-0.467zM24.424 20.891c-0.22-0.378-0.273-0.257-0.093 0.212 0.064 0.167 0.156 0.264 0.204 0.216s-0.002-0.241-0.111-0.428zM8.786 19.753c0.288-0.744 0.417-1.521 0.221-1.325-0.048 0.048-0.253 0.619-0.455 1.27-0.402 1.293-0.258 1.327 0.234 0.055zM23.442 19.673c-0.392-1.261-0.652-1.695-0.48-0.802 0.115 0.597 0.65 1.96 0.769 1.96 0.039 0-0.091-0.521-0.289-1.158zM15.589 18.344l0.055-1.46-0.521 0.060c-0.503 0.058-0.523 0.101-0.578 1.254-0.069 1.464 0.026 1.743 0.569 1.666 0.39-0.055 0.425-0.166 0.476-1.52zM17.401 18.404c0-1.389-0.004-1.401-0.513-1.459l-0.513-0.059v1.381c0 1.5 0.070 1.674 0.646 1.591 0.345-0.049 0.381-0.187 0.381-1.455zM13.198 16.768c0.606-2.356 4.943-2.43 5.591-0.095 0.108 0.387 0.197 0.83 0.199 0.984 0.008 0.541 0.366-0.239 0.369-0.803 0.005-0.994-0.504-1.623-1.781-2.202-0.657-0.298-1.367-0.542-1.577-0.542s-0.919 0.244-1.577 0.542c-1.252 0.567-1.783 1.206-1.783 2.14 0 0.514 0.228 1.224 0.304 0.948 0.027-0.097 0.141-0.535 0.254-0.973zM17.038 15.878c-0.199-0.151-0.666-0.274-1.038-0.274s-0.838 0.123-1.038 0.274c-0.329 0.249-0.233 0.274 1.038 0.274s1.367-0.025 1.038-0.274zM11.4 12.719c0.499-0.462 0.643-0.849 0.316-0.849-0.098 0-0.83-0.545-1.627-1.21-0.811-0.677-1.521-1.139-1.611-1.049-0.088 0.088-0.205 0.493-0.26 0.9-0.124 0.928 0.3 1.802 1.118 2.301 0.803 0.49 1.468 0.46 2.064-0.092zM22.665 12.811c0.817-0.498 1.242-1.373 1.118-2.301-0.054-0.406-0.171-0.811-0.26-0.9-0.090-0.090-0.799 0.372-1.611 1.049-0.797 0.666-1.53 1.21-1.627 1.21-0.327 0-0.183 0.387 0.316 0.849 0.596 0.552 1.261 0.582 2.064 0.092zM4.567 9.684c0.514-0.961 0.528-1.678 0.047-2.294-0.289-0.369-0.366-0.765-0.369-1.897-0.004-1.37 0.020-1.45 0.57-1.913 0.431-0.363 0.783-0.483 1.412-0.483 1.143 0 1.43 0.196 2.006 1.375 0.273 0.559 0.621 1.063 0.772 1.121s0.275 0.234 0.275 0.391c0 0.43 0.315 0.343 0.436-0.12 0.127-0.486 0.012-0.714-0.36-0.714-0.152 0-0.445-0.399-0.652-0.887-0.523-1.232-0.966-1.531-2.28-1.536-1.853-0.007-2.426 0.517-2.65 2.423-0.106 0.902-0.057 1.146 0.406 2.004l0.527 0.978-0.433 1.169c-0.599 1.619-0.658 1.927-0.483 2.519 0.139 0.468 0.163 0.429 0.254-0.417 0.056-0.513 0.29-1.287 0.521-1.719zM28.264 11.060c-0.052-0.325-0.291-1.116-0.532-1.759l-0.437-1.169 0.527-0.978c0.463-0.859 0.512-1.103 0.406-2.004-0.224-1.906-0.798-2.43-2.651-2.423-1.313 0.005-1.757 0.304-2.28 1.536-0.207 0.488-0.5 0.887-0.652 0.887-0.373 0-0.487 0.228-0.36 0.714 0.121 0.463 0.436 0.55 0.436 0.12 0-0.157 0.124-0.333 0.275-0.391s0.499-0.563 0.772-1.121c0.577-1.179 0.863-1.375 2.006-1.375 0.629 0 0.981 0.12 1.412 0.483 0.55 0.463 0.574 0.543 0.57 1.913-0.003 1.131-0.080 1.528-0.369 1.897-0.494 0.631-0.462 1.424 0.096 2.399 0.307 0.537 0.466 1.106 0.47 1.68 0.005 0.707 0.043 0.804 0.205 0.524 0.11-0.189 0.157-0.609 0.105-0.933zM13.864 10.657c0.54-0.922 0.924-1.104 0.784-0.373-0.105 0.55-0.136 0.539 0.538 0.188 0.294-0.153 0.661-0.279 0.815-0.279s0.521 0.125 0.815 0.279c0.674 0.352 0.643 0.362 0.538-0.188-0.14-0.731 0.244-0.548 0.785 0.373 0.271 0.462 0.527 0.84 0.569 0.84 0.39 0 3.025-2.109 3.817-3.055 0.838-1.001-0.251-1.674-1.229-0.76-0.294 0.274-0.891 0.793-1.327 1.153-0.598 0.493-0.793 0.786-0.793 1.191 0 0.296-0.084 0.538-0.187 0.538s-0.187-0.371-0.187-0.824c0-0.681 0.1-0.916 0.573-1.353 0.61-0.564 1.164-1.515 1.362-2.34 0.096-0.401 0.015-0.603-0.392-0.98-0.282-0.261-0.613-0.475-0.735-0.475-0.256 0-0.888 0.841-1.068 1.422-0.14 0.453-0.81 1.117-0.967 0.959-0.058-0.058-0.023-0.26 0.076-0.45 0.69-1.311 0.646-2.623-0.1-3.022-0.435-0.233-2.663-0.233-3.098 0-0.746 0.399-0.789 1.711-0.1 3.022 0.1 0.19 0.134 0.392 0.076 0.45-0.157 0.157-0.827-0.507-0.967-0.959-0.18-0.581-0.812-1.422-1.068-1.422-0.122 0-0.453 0.214-0.735 0.475-0.407 0.377-0.488 0.58-0.392 0.98 0.198 0.826 0.752 1.776 1.362 2.34 0.473 0.437 0.573 0.673 0.573 1.353 0 0.453-0.084 0.824-0.187 0.824s-0.187-0.242-0.187-0.538c0-0.405-0.195-0.698-0.793-1.191-0.436-0.36-1.034-0.878-1.327-1.153-0.978-0.914-2.067-0.241-1.229 0.76 0.795 0.95 3.314 2.985 3.762 3.039 0.073 0.009 0.354-0.362 0.624-0.824zM14.515 9.173c-0.202-0.244-0.107-0.417 0.623-1.137l0.862-0.85 0.862 0.85c0.73 0.72 0.826 0.894 0.623 1.137-0.21 0.253-0.301 0.219-0.758-0.281-0.286-0.313-0.613-0.569-0.727-0.569s-0.441 0.256-0.727 0.569c-0.457 0.5-0.548 0.534-0.758 0.281zM14.964 5.587c0.165-0.661 0.622-1.184 1.037-1.184s0.872 0.522 1.037 1.184c0.128 0.514 0.119 0.523-0.312 0.28-0.244-0.138-0.508-0.334-0.584-0.437-0.093-0.124-0.187-0.124-0.28 0-0.077 0.103-0.34 0.299-0.585 0.437-0.431 0.243-0.44 0.234-0.312-0.28z"></path>
</svg>
