<!-- Generated by IcoMoon.io -->
<svg version="1.1" xmlns="http://www.w3.org/2000/svg" width="32" height="32" viewBox="0 0 32 32">
<title>jacqueline</title>
<path d="M15.458 6.964c-0.18 0.214-0.324 0.445-0.472 0.686-0.157 0.258-0.332 0.517-0.411 0.813-0.069 0.26-0.133 0.52-0.203 0.78-0.227 0.841-0.26 1.735-0.259 2.599 0.001 0.452 0.053 0.888 0.052 1.339-0.001 0.209 0.024 0.398 0.047 0.602 0.012 0.115 0.043 0.323-0.004 0.435-0.096 0.23-0.445 0.153-0.634 0.153-0.096 0-0.193 0.003-0.289 0.001-0.173-0.005-0.186-0.048-0.308-0.157-0.129-0.116-0.251-0.189-0.36-0.332-0.059-0.077-0.123-0.149-0.172-0.233-0.13-0.222-0.212-0.496-0.299-0.738-0.049-0.135-0.065-0.274-0.102-0.413-0.035-0.132-0.088-0.279-0.104-0.416-0.016-0.131-0.039-0.259-0.050-0.39-0.010-0.108-0.050-0.203-0.054-0.314-0.019-0.539-0.056-1.136 0.091-1.65 0.072-0.25 0.099-0.52 0.194-0.761 0.079-0.2 0.197-0.406 0.298-0.595 0.088-0.165 0.213-0.308 0.32-0.46 0.045-0.064 0.081-0.143 0.132-0.201l0.135-0.115c0.074-0.091 0.195-0.366 0.332-0.361l-0.052 0.103c0.123-0.014 0.214-0.119 0.321-0.169s0.221-0.088 0.328-0.139c0.151-0.071 0.295-0.174 0.456-0.224 0.19-0.058 0.369-0.037 0.556-0.103 0.15-0.052 0.342-0.054 0.499-0.040 0.232 0.020 0.119 0.17 0.010 0.301zM22.821 9.581c-0.8-2.766-3.23-4.585-6.133-4.581-2.874 0.003-5.521 1.869-6.198 4.556-0.164 0.268-0.192 0.602-0.217 0.913-0.021 0.243-0.038 0.488-0.006 0.731 0.056 0.457 0.056 0.892 0.095 1.351 0.056 0.706 0.356 1.579 0.646 2.222 0.287 0.637 0.759 1.090 1.197 1.619 0.977 1.173 2.603 1.472 4.043 1.629 0.652 0.073 1.184-0.125 1.824-0.268 0.795-0.17 1.529-0.371 2.219-0.81 1.159-0.734 2.215-1.601 2.669-2.946 0.467-1.387 0.259-3.041-0.138-4.418z"></path>
<path d="M30.505 21.365c-0.082-0.054-0.136-0.117-0.201-0.19l-0.103-0.078c-0.057-0.053-0.105-0.151-0.157-0.213-0.099-0.116-0.143-0.264-0.249-0.373-0.061-0.063-0.128-0.122-0.19-0.185-0.095-0.095-0.144-0.218-0.235-0.31-0.069-0.069-0.147-0.127-0.215-0.197-0.112-0.114-0.251-0.215-0.373-0.319-0.242-0.205-0.578-0.362-0.866-0.49-0.168-0.074-0.324-0.176-0.498-0.24-0.223-0.082-0.44-0.163-0.659-0.256-0.375-0.159-0.772-0.323-1.171-0.404-0.205-0.042-0.378-0.072-0.588-0.071-0.135 0.001-0.268 0.001-0.404 0-0.157-0.001-0.306 0.027-0.462 0.035-0.178 0.009-0.353 0.018-0.529 0.042-0.432 0.061-0.855 0.192-1.259 0.357-0.362 0.149-0.753 0.234-1.107 0.405-0.178 0.086-0.35 0.133-0.542 0.185-0.144 0.038-0.264 0.106-0.393 0.179-0.283 0.16-0.562 0.311-0.853 0.456-0.132 0.066-0.267 0.135-0.395 0.201l-0.168 0.074c0.114-0.024 0.236 0.159 0.293 0.23 0.223 0.281 0.388 0.601 0.561 0.913 0.142 0.259 0.304 0.505 0.448 0.762 0.337 0.604 0.592 1.231 0.875 1.859 0.050 0.117 0.104 0.232 0.163 0.345 0.038 0.077 0.079 0.153 0.122 0.227l0.013 0.151c-0.057-0.109-0.139-0.187-0.241-0.255-0.078-0.052-0.125-0.108-0.187-0.178-0.072-0.082-0.154-0.148-0.226-0.233-0.183-0.217-0.377-0.422-0.573-0.627-0.181-0.19-0.337-0.402-0.517-0.593-0.522-0.555-1.178-0.968-1.814-1.38-0.627-0.407-1.276-0.785-1.941-1.128-0.291-0.15-0.597-0.241-0.907-0.339-0.326-0.103-0.646-0.223-0.968-0.337-0.659-0.236-1.337-0.341-2.020-0.482-0.321-0.067-0.655-0.148-0.981-0.181-0.266-0.027-0.537-0.031-0.804-0.047-0.289-0.017-0.558 0.005-0.847 0.023-0.224 0.013-0.448-0.001-0.672 0.016-0.153 0.012-0.301 0.040-0.452 0.071-0.208 0.044-0.421 0.053-0.633 0.077-0.383 0.044-0.763 0.142-1.137 0.228-0.362 0.083-0.701 0.225-1.042 0.373-0.381 0.166-0.786 0.318-1.13 0.553-0.147 0.033-0.293 0.069-0.437 0.112-0.105 0.031-0.238 0.056-0.324 0.117-0.123 0.087-0.244 0.244-0.345 0.349-0.189 0.198-0.398 0.377-0.596 0.565-0.195 0.185-0.415 0.347-0.603 0.537-0.087 0.102-0.167 0.21-0.238 0.323l-0.113 0.166 0.071 0.056c0.253 0.169 0.511 0.32 0.698 0.564 0.094 0.123 0.205 0.205 0.343 0.279 0.292 0.156 0.575 0.3 0.815 0.535 0.211 0.206 0.431 0.403 0.671 0.575 0.174 0.124 0.376 0.2 0.559 0.308 0.115 0.067 0.222 0.147 0.334 0.22 0.338 0.221 0.719 0.379 1.089 0.536 0.711 0.302 1.499 0.428 2.258 0.55 0.447 0.072 0.89 0.142 1.331 0.238 0.383 0.084 0.767 0.106 1.155 0.154 0.453 0.055 0.902 0.149 1.357 0.191 0.378 0.035 0.759 0.050 1.137 0.093 0.262 0.029 0.511 0.109 0.77 0.156 0.217 0.040 0.44 0.036 0.658 0.072 0.134 0.023 0.266 0.059 0.4 0.084 0.232 0.042 0.471 0.046 0.706 0.077 0.337 0.044 0.668 0.038 1.007 0.037 0.357-0.001 0.712 0.039 1.069 0.040 0.471 0.003 0.94 0.053 1.412 0.042 0.375-0.008 0.763-0.035 1.136-0.070 0.354-0.033 0.707-0.044 1.052-0.136 0.381-0.102 0.751-0.233 1.13-0.34 0.309-0.086 0.631-0.147 0.934-0.25 0.183-0.062 0.346-0.164 0.533-0.223 0.131-0.041 0.264-0.071 0.391-0.124 0.167-0.069 0.317-0.183 0.475-0.267 0.126-0.067 0.246-0.133 0.368-0.21 0.291-0.181 0.605-0.313 0.89-0.504 0.499-0.334 1.069-0.575 1.529-0.966 0.169-0.144 0.336-0.294 0.517-0.423 0.225-0.16 0.462-0.306 0.667-0.494 0.38-0.347 0.729-0.723 1.113-1.066 0.129-0.115 0.285-0.217 0.402-0.34 0.039-0.040 0.042-0.072 0.108-0.084-0.065-0.055-0.127-0.094-0.195-0.138z"></path>
</svg>
