<!-- Generated by IcoMoon.io -->
<svg version="1.1" xmlns="http://www.w3.org/2000/svg" width="33" height="32" viewBox="0 0 33 32">
<title>kathmandu</title>
<path d="M4.449 28.982c-0.051-0.018-0.069-0.038-0.085-0.096-0.007-0.026-0.010-1.168-0.008-3.209 0.003-2.959 0.004-3.17 0.022-3.203 0.011-0.019 0.036-0.042 0.056-0.050 0.030-0.013 1.986-0.015 11.914-0.015 11.266 0 11.879 0.001 11.907 0.020 0.066 0.043 0.062-0.189 0.059 3.292-0.003 3.178-0.003 3.196-0.025 3.221-0.012 0.014-0.039 0.032-0.059 0.040-0.055 0.023-23.714 0.022-23.78-0.002zM8.702 28.412c0.045-0.023 0.114-0.1 0.125-0.14 0.011-0.041 0.011-4.015 0-4.056-0.011-0.039-0.079-0.116-0.125-0.14-0.031-0.017-0.17-0.019-1.536-0.023-1.7-0.005-1.582-0.011-1.624 0.081-0.020 0.045-0.021 0.117-0.021 2.108-0 2.204-0.003 2.105 0.053 2.154 0.013 0.011 0.037 0.025 0.055 0.031 0.019 0.006 0.628 0.009 1.535 0.007 1.345-0.003 1.507-0.006 1.538-0.022zM5.902 28.136c-0.021-0.011-0.054-0.042-0.073-0.068l-0.034-0.047-0.004-1.786c-0.003-1.298-0-1.797 0.009-1.828 0.026-0.086-0.072-0.081 1.358-0.077l1.273 0.003 0.044 0.030c0.024 0.017 0.055 0.048 0.067 0.069 0.023 0.039 0.023 0.050 0.023 1.814v1.775l-0.034 0.047c-0.068 0.096 0.048 0.089-1.352 0.089-1.186 0-1.242-0.001-1.279-0.021zM8.061 27.715c0.021-0.009 0.047-0.030 0.059-0.047 0.019-0.030 0.021-0.083 0.021-1.064 0-0.948-0.002-1.039-0.020-1.109-0.098-0.383-0.374-0.648-0.748-0.719-0.16-0.030-0.343-0.016-0.517 0.040-0.299 0.097-0.513 0.318-0.608 0.629-0.025 0.081-0.025 0.083-0.029 1.090s-0.003 1.008 0.020 1.057c0.025 0.053 0.093 0.113 0.143 0.128 0.017 0.005 0.393 0.010 0.836 0.010 0.671 0.001 0.812-0.002 0.843-0.015zM6.661 27.452c-0.073-0.007-0.079-0.010-0.119-0.055l-0.042-0.048-0.008-0.387c-0.012-0.58-0.001-1.33 0.021-1.408 0.070-0.246 0.272-0.448 0.509-0.51 0.172-0.045 0.368-0.009 0.524 0.096 0.134 0.090 0.226 0.209 0.285 0.371l0.030 0.082v1.75l-0.027 0.037c-0.059 0.079-0.030 0.075-0.59 0.077-0.278 0.001-0.539-0.002-0.582-0.006zM13.762 28.413c0.077-0.042 0.072 0.128 0.072-2.17 0-2.036-0-2.074-0.022-2.11-0.012-0.020-0.036-0.045-0.053-0.056-0.029-0.019-0.106-0.020-1.586-0.020s-1.556 0.001-1.586 0.020c-0.017 0.011-0.041 0.036-0.053 0.056-0.021 0.035-0.022 0.074-0.022 2.109-0 2.238-0.003 2.13 0.057 2.163 0.014 0.008 0.038 0.018 0.054 0.022s0.72 0.008 1.566 0.007c1.425-0.002 1.54-0.003 1.572-0.021zM10.879 28.131c-0.024-0.015-0.056-0.046-0.070-0.070l-0.026-0.044-0-1.771c-0-1.983-0.007-1.817 0.082-1.882l0.045-0.032h2.517l0.046 0.033c0.025 0.018 0.055 0.050 0.066 0.070 0.019 0.035 0.020 0.129 0.020 1.811v1.774l-0.034 0.047c-0.069 0.097 0.049 0.089-1.357 0.089l-1.245-0-0.044-0.026zM13.023 27.695c0.025-0.017 0.060-0.055 0.078-0.084l0.031-0.054v-0.993c0-0.794-0.003-1.006-0.015-1.060-0.079-0.349-0.347-0.628-0.692-0.719-0.114-0.030-0.345-0.028-0.486 0.005-0.264 0.061-0.483 0.21-0.599 0.407s-0.124 0.296-0.125 1.504l-0.001 0.916 0.034 0.036c0.018 0.020 0.054 0.045 0.079 0.057 0.043 0.020 0.084 0.021 0.848 0.018l0.803-0.003zM11.647 27.451c-0.066-0.006-0.074-0.010-0.114-0.054l-0.042-0.048-0.008-0.216c-0.004-0.119-0.006-0.506-0.003-0.861 0.005-0.72 0.002-0.689 0.088-0.863s0.261-0.317 0.443-0.364c0.3-0.077 0.629 0.079 0.771 0.368 0.075 0.152 0.074 0.134 0.074 1.068l0 0.843-0.025 0.037c-0.042 0.062-0.080 0.082-0.169 0.091-0.096 0.010-0.913 0.009-1.016-0.001zM17.737 28.409c0.022-0.012 0.049-0.042 0.060-0.065 0.020-0.040 0.021-0.12 0.022-1.957 0.002-1.828 0.003-1.917 0.022-1.962 0.033-0.074 0.068-0.086 0.291-0.093 0.174-0.006 0.19-0.008 0.212-0.031 0.033-0.033 0.042-0.141 0.016-0.191-0.025-0.049-0.060-0.056-0.304-0.063-0.246-0.007-0.292-0.017-0.385-0.087-0.143-0.107-0.465-0.384-0.81-0.695-0.201-0.181-0.387-0.343-0.415-0.361-0.067-0.043-0.128-0.043-0.187 0-0.068 0.050-0.605 0.512-0.822 0.707-0.32 0.289-0.469 0.388-0.658 0.44-0.090 0.025-0.225 0.032-0.329 0.017-0.058-0.008-0.060-0.008-0.104 0.036-0.057 0.057-0.059 0.097-0.008 0.155 0.057 0.065 0.088 0.073 0.275 0.071l0.164-0.002 0.063 0.070 0 1.943c0 1.261 0.004 1.958 0.011 1.984 0.006 0.022 0.021 0.049 0.033 0.060 0.057 0.051 0.027 0.050 1.459 0.048 1.335-0.002 1.352-0.003 1.391-0.025zM15.212 28.132c-0.021-0.014-0.049-0.043-0.063-0.064l-0.026-0.038 0.006-3.597 0.096-0.096 1.080-0.003c0.594-0.002 1.091-0 1.105 0.003 0.033 0.008 0.101 0.068 0.121 0.108 0.014 0.027 0.016 0.277 0.016 1.793 0 1.217-0.004 1.771-0.012 1.793-0.015 0.039-0.062 0.090-0.103 0.111-0.025 0.013-0.202 0.016-1.106 0.016h-1.076zM15.435 24.044c-0.024-0.006-0.024-0.014-0.003-0.045 0.017-0.025 0.448-0.4 0.718-0.626 0.157-0.131 0.157-0.131 0.205-0.125 0.026 0.004 0.060 0.013 0.075 0.021 0.050 0.027 0.8 0.693 0.825 0.733 0.009 0.014 0.012 0.030 0.008 0.035-0.009 0.009-1.793 0.016-1.827 0.007zM22.079 28.409c0.022-0.013 0.048-0.040 0.059-0.062 0.018-0.037 0.020-0.16 0.020-2.107 0-2.328 0.008-2.127-0.085-2.168-0.046-0.020-0.102-0.021-1.589-0.018-1.449 0.003-1.543 0.004-1.571 0.023-0.017 0.011-0.039 0.036-0.050 0.056-0.018 0.034-0.020 0.156-0.023 2.067-0.002 1.117-0 2.057 0.003 2.090 0.008 0.069 0.045 0.121 0.098 0.136 0.021 0.006 0.657 0.010 1.567 0.009 1.518-0.002 1.532-0.002 1.571-0.025zM19.218 28.136c-0.021-0.011-0.054-0.040-0.073-0.063l-0.034-0.042-0.004-1.561c-0.002-0.859-0-1.663 0.004-1.788 0.009-0.253 0.014-0.271 0.094-0.325l0.038-0.026h1.25c1.377 0 1.279-0.005 1.347 0.071l0.034 0.039 0.009 0.829c0.005 0.456 0.005 1.263 0 1.793-0.008 0.939-0.009 0.966-0.031 1.001-0.012 0.020-0.044 0.049-0.070 0.064l-0.048 0.028h-1.239c-1.185 0-1.241-0.001-1.278-0.021zM21.379 27.714c0.029-0.012 0.045-0.030 0.062-0.067 0.022-0.050 0.022-0.071 0.019-1.069-0.004-1.015-0.004-1.018-0.029-1.108-0.062-0.222-0.188-0.408-0.356-0.527-0.244-0.173-0.536-0.224-0.838-0.147-0.368 0.094-0.636 0.383-0.693 0.747-0.009 0.061-0.012 0.367-0.010 1.096l0.003 1.012 0.028 0.030c0.015 0.017 0.038 0.034 0.050 0.039s0.405 0.010 0.873 0.010c0.723 0.001 0.856-0.002 0.89-0.016zM19.96 27.451c-0.063-0.006-0.075-0.011-0.108-0.047l-0.037-0.040-0.008-0.33c-0.005-0.181-0.006-0.575-0.003-0.874 0.005-0.468 0.008-0.553 0.025-0.611 0.089-0.309 0.361-0.522 0.664-0.522 0.255 0 0.494 0.15 0.608 0.381 0.081 0.164 0.080 0.152 0.080 1.075 0 0.898 0.003 0.863-0.066 0.928-0.030 0.028-0.048 0.035-0.116 0.041-0.096 0.010-0.936 0.009-1.038-0.001zM27.064 28.415c0.018-0.009 0.043-0.031 0.056-0.049l0.023-0.032 0.003-2.081c0.003-2.344 0.011-2.14-0.083-2.182-0.046-0.020-0.102-0.021-1.59-0.018-1.54 0.003-1.543 0.003-1.574 0.026-0.017 0.013-0.040 0.041-0.051 0.062-0.018 0.036-0.020 0.159-0.020 2.091 0 1.324 0.004 2.067 0.011 2.093 0.013 0.046 0.047 0.081 0.095 0.098 0.023 0.008 0.516 0.011 1.565 0.010 1.337-0.002 1.535-0.004 1.564-0.019zM24.187 28.132c-0.021-0.014-0.049-0.043-0.063-0.063l-0.026-0.038v-3.572l0.026-0.038c0.014-0.021 0.043-0.049 0.063-0.063l0.038-0.026h1.261c1.397 0 1.296-0.006 1.357 0.075l0.031 0.041v1.785c0 1.979 0.006 1.833-0.077 1.893l-0.045 0.032h-2.529zM26.376 27.714c0.018-0.009 0.042-0.033 0.053-0.053 0.018-0.034 0.020-0.102 0.023-0.973 0.002-0.623-0.001-0.977-0.009-1.058-0.032-0.315-0.178-0.566-0.42-0.724-0.196-0.128-0.431-0.172-0.691-0.13-0.404 0.065-0.677 0.305-0.776 0.681-0.024 0.090-0.024 0.113-0.029 0.95-0.002 0.472-0.001 0.93 0.003 1.019 0.008 0.158 0.008 0.161 0.043 0.207 0.019 0.025 0.058 0.058 0.085 0.072l0.049 0.026h0.818c0.709 0 0.822-0.002 0.851-0.017zM24.954 27.454c-0.064-0.004-0.072-0.008-0.108-0.048l-0.039-0.043-0.008-0.161c-0.004-0.089-0.006-0.479-0.003-0.868 0.005-0.787 0.002-0.757 0.085-0.926 0.030-0.062 0.065-0.108 0.131-0.174 0.142-0.143 0.29-0.207 0.477-0.207s0.334 0.064 0.478 0.207c0.073 0.073 0.1 0.109 0.137 0.186 0.078 0.163 0.075 0.116 0.075 1.080v0.872l-0.084 0.085-0.535 0.001c-0.295 0.001-0.567-0.001-0.605-0.003zM3.613 22.113c-0.060-0.030-0.079-0.078-0.078-0.205 0.001-0.148 0.016-0.256 0.042-0.291 0.012-0.016 0.040-0.035 0.063-0.043 0.032-0.011 2.724-0.014 12.708-0.015l12.666-0.001 0.048 0.023c0.072 0.035 0.079 0.061 0.075 0.281-0.004 0.206-0.010 0.226-0.075 0.253-0.033 0.014-1.805 0.016-12.724 0.016-12.055 0-12.687-0.001-12.725-0.020zM6.834 21.28c-0.055-0.012-0.084-0.034-0.112-0.084-0.017-0.030-0.019-0.102-0.019-0.701 0-0.648 0.001-0.669 0.022-0.705 0.042-0.070 0.076-0.082 0.249-0.084 0.175-0.002 0.206 0.007 0.244 0.071 0.022 0.038 0.023 0.057 0.026 0.713l0.003 0.674-0.026 0.038c-0.047 0.069-0.069 0.077-0.211 0.084-0.071 0.003-0.151 0.001-0.178-0.005zM9.944 21.282c-0.065-0.017-0.091-0.042-0.11-0.106-0.015-0.052-0.017-0.149-0.014-0.705l0.003-0.645 0.031-0.041c0.054-0.070 0.078-0.077 0.267-0.073l0.167 0.004 0.034 0.034c0.024 0.024 0.037 0.051 0.045 0.097 0.007 0.040 0.010 0.294 0.009 0.697-0.003 0.621-0.004 0.635-0.026 0.666-0.049 0.066-0.067 0.072-0.224 0.077-0.080 0.003-0.162 0.001-0.182-0.004zM13.065 21.282c-0.099-0.026-0.119-0.064-0.128-0.237-0.004-0.071-0.007-0.385-0.006-0.697 0.001-0.642-0.003-0.615 0.087-0.639 0.061-0.017 0.332-0.005 0.385 0.017 0.021 0.009 0.046 0.028 0.056 0.044 0.033 0.051 0.042 0.236 0.038 0.834-0.004 0.559-0.005 0.575-0.027 0.605-0.050 0.066-0.068 0.073-0.225 0.078-0.080 0.003-0.16 0.001-0.179-0.004zM16.214 21.28c-0.074-0.011-0.112-0.035-0.135-0.088-0.016-0.036-0.019-0.109-0.022-0.625-0.002-0.321-0-0.626 0.004-0.678 0.007-0.091 0.010-0.097 0.050-0.137l0.042-0.042h0.209c0.194 0 0.21 0.002 0.231 0.022 0.022 0.022 0.022 0.037 0.022 0.752 0 0.501-0.004 0.737-0.012 0.753-0.021 0.040-0.078 0.055-0.209 0.053-0.067-0.001-0.148-0.005-0.18-0.010zM19.263 21.273c-0.021-0.011-0.049-0.038-0.062-0.060-0.022-0.038-0.023-0.059-0.026-0.713l-0.003-0.674 0.026-0.038c0.052-0.077 0.067-0.082 0.252-0.083 0.142-0.001 0.172 0.002 0.204 0.019 0.076 0.041 0.075 0.027 0.078 0.776 0.003 0.653 0.002 0.674-0.019 0.709-0.041 0.066-0.064 0.074-0.245 0.079-0.143 0.004-0.17 0.002-0.204-0.016zM22.443 21.282c-0.081-0.015-0.114-0.046-0.133-0.125-0.004-0.015-0.008-0.319-0.010-0.673l-0.003-0.645 0.025-0.041c0.047-0.076 0.080-0.088 0.256-0.089 0.179-0.002 0.212 0.009 0.246 0.077 0.020 0.040 0.021 0.079 0.021 0.71v0.668l-0.025 0.041c-0.041 0.066-0.063 0.074-0.206 0.081-0.070 0.003-0.148 0.002-0.173-0.003zM25.504 21.264c-0.053-0.023-0.071-0.060-0.083-0.17-0.012-0.117-0.013-1.094-0.001-1.214 0.008-0.078 0.011-0.085 0.053-0.124l0.045-0.042 0.129-0.007c0.212-0.011 0.284 0.012 0.31 0.102 0.019 0.065 0.031 0.665 0.021 1.038-0.008 0.293-0.010 0.314-0.033 0.348-0.013 0.020-0.041 0.047-0.062 0.061-0.035 0.023-0.050 0.025-0.19 0.025-0.104-0-0.164-0.005-0.188-0.016zM16.279 19.429c-12.486-0.005-14.346-0.008-14.367-0.022-0.038-0.026-0.049-0.063-0.048-0.167 0.001-0.053-0.005-0.142-0.012-0.198-0.036-0.267 0.030-0.48 0.203-0.656 0.135-0.138 0.137-0.139 1.071-0.693 0.618-0.366 1.498-0.894 2.221-1.332 0.222-0.134 0.439-0.266 0.482-0.291s0.434-0.263 0.869-0.527c0.435-0.264 1.137-0.69 1.559-0.946s0.813-0.496 0.868-0.532c0.128-0.086 0.236-0.137 0.355-0.166l0.095-0.024 13.283-0.001 0.168 0.035c0.353 0.073 0.55 0.165 1.133 0.524 0.664 0.409 1.341 0.822 2.44 1.486 2.361 1.427 3.551 2.148 3.954 2.398 0.235 0.145 0.24 0.153 0.255 0.371 0.006 0.085 0.007 0.267 0.003 0.404l-0.007 0.249-0.044 0.040c-0.047 0.043-0.089 0.063-0.119 0.059-0.010-0.002-6.473-0.005-14.362-0.008zM6.976 17.971c0.069-0.054 0.064 0.025 0.064-1.113v-1.040l-0.044-0.045c-0.062-0.063-0.097-0.073-0.142-0.042-0.020 0.013-0.047 0.039-0.059 0.056-0.023 0.031-0.023 0.037-0.027 1.047-0.002 0.693 0.001 1.029 0.009 1.060 0.009 0.032 0.025 0.054 0.059 0.079 0.053 0.038 0.090 0.038 0.14-0.001zM8.432 17.957l0.048-0.048 0.008-0.163c0.012-0.255 0.003-1.909-0.012-1.933-0.007-0.011-0.036-0.040-0.066-0.064l-0.054-0.044-0.030 0.021c-0.073 0.052-0.089 0.075-0.097 0.137-0.004 0.033-0.006 0.505-0.004 1.048 0.003 0.93 0.005 0.989 0.024 1.019 0.023 0.036 0.082 0.075 0.113 0.075 0.012 0 0.043-0.021 0.069-0.048zM9.843 17.989c0.020-0.008 0.050-0.032 0.067-0.051l0.030-0.036v-2.083l-0.030-0.036c-0.017-0.020-0.052-0.046-0.078-0.057-0.055-0.025-0.072-0.019-0.124 0.040l-0.034 0.038-0.007 0.341c-0.004 0.187-0.005 0.659-0.003 1.049 0.005 0.786 0.001 0.743 0.080 0.791 0.041 0.025 0.052 0.026 0.1 0.006zM11.337 17.957l0.047-0.048 0.008-0.524c0.004-0.288 0.004-0.76 0-1.049l-0.008-0.524-0.027-0.036c-0.015-0.020-0.042-0.044-0.060-0.054-0.030-0.016-0.036-0.015-0.075 0.005-0.023 0.012-0.055 0.035-0.070 0.052l-0.028 0.030-0.003 1.034c-0.002 0.781 0 1.042 0.010 1.066 0.014 0.035 0.101 0.097 0.136 0.097 0.012 0 0.043-0.021 0.069-0.048zM12.753 17.983c0.020-0.012 0.045-0.036 0.056-0.053 0.019-0.029 0.020-0.088 0.020-1.077v-1.046l-0.034-0.035c-0.055-0.057-0.084-0.069-0.127-0.048-0.020 0.010-0.048 0.031-0.062 0.048-0.025 0.030-0.026 0.041-0.033 0.293-0.010 0.337-0.010 1.293-0 1.604l0.007 0.24 0.047 0.048c0.053 0.053 0.073 0.058 0.125 0.026zM14.235 17.956c0.020-0.019 0.042-0.053 0.048-0.075 0.008-0.026 0.010-0.385 0.008-1.048l-0.003-1.008-0.066-0.060c-0.036-0.033-0.069-0.060-0.073-0.060s-0.035 0.028-0.068 0.062l-0.061 0.062v1.031c0 1.028 0 1.031 0.023 1.063 0.013 0.017 0.041 0.043 0.061 0.058 0.047 0.032 0.080 0.026 0.131-0.023zM15.67 17.975c0.025-0.016 0.053-0.042 0.061-0.057 0.011-0.021 0.014-0.243 0.014-1.069l-0-1.043-0.033-0.035c-0.018-0.019-0.049-0.042-0.070-0.051-0.032-0.014-0.041-0.013-0.069 0.001-0.018 0.009-0.045 0.032-0.062 0.052l-0.029 0.035 0 1.045c0 1.005 0.001 1.046 0.021 1.077 0.024 0.036 0.076 0.074 0.103 0.074 0.010 0 0.038-0.013 0.064-0.030zM17.13 17.971c0.026-0.018 0.050-0.047 0.055-0.064s0.009-0.496 0.009-1.065v-1.034l-0.028-0.030c-0.015-0.017-0.048-0.040-0.072-0.051-0.039-0.018-0.048-0.018-0.075-0.004-0.017 0.009-0.045 0.035-0.062 0.057l-0.031 0.041v1.034c0 1.143-0.005 1.071 0.073 1.123 0.051 0.035 0.077 0.034 0.133-0.007zM18.556 17.988c0.017-0.009 0.045-0.032 0.061-0.051l0.029-0.035v-2.078l-0.024-0.035c-0.013-0.019-0.039-0.046-0.058-0.059-0.032-0.023-0.037-0.023-0.074-0.008-0.022 0.009-0.057 0.034-0.077 0.055l-0.036 0.039v2.084l0.024 0.031c0.026 0.034 0.085 0.073 0.108 0.073 0.008 0 0.029-0.007 0.046-0.016zM20.038 17.961l0.049-0.044v-2.106l-0.026-0.037c-0.014-0.020-0.041-0.044-0.059-0.054-0.030-0.015-0.036-0.015-0.075 0.005-0.023 0.012-0.055 0.035-0.070 0.052l-0.028 0.030v1.052c0 1.037 0 1.053 0.022 1.078 0.031 0.035 0.085 0.067 0.114 0.067 0.013 0 0.046-0.020 0.073-0.044zM21.472 17.977c0.080-0.059 0.074 0.034 0.074-1.119 0-1.037 0-1.040-0.023-1.071-0.013-0.017-0.040-0.043-0.059-0.056-0.044-0.030-0.081-0.021-0.139 0.036l-0.039 0.038-0.008 0.194c-0.004 0.107-0.006 0.578-0.004 1.047 0.003 0.662 0.007 0.858 0.018 0.878 0.018 0.033 0.091 0.082 0.121 0.082 0.013 0 0.040-0.012 0.060-0.027zM22.917 17.971c0.040-0.023 0.061-0.043 0.067-0.064 0.005-0.017 0.009-0.496 0.009-1.064 0-1.018-0-1.034-0.022-1.059-0.012-0.014-0.047-0.037-0.077-0.053-0.055-0.028-0.055-0.028-0.084-0.006-0.016 0.012-0.041 0.038-0.055 0.059l-0.025 0.037v1.037c0 1.129-0.003 1.072 0.063 1.124 0.039 0.031 0.055 0.030 0.125-0.010zM24.355 17.988c0.017-0.009 0.045-0.032 0.061-0.051l0.029-0.035v-1.047c0-1.045 0-1.047-0.023-1.076-0.013-0.016-0.044-0.040-0.068-0.053l-0.045-0.023-0.050 0.029c-0.090 0.052-0.083-0.030-0.083 1.131v1.037l0.024 0.031c0.026 0.034 0.085 0.073 0.108 0.073 0.008 0 0.029-0.007 0.046-0.016zM25.851 17.96l0.047-0.044v-2.107l-0.031-0.041c-0.049-0.064-0.064-0.068-0.132-0.033-0.111 0.058-0.101-0.055-0.101 1.124 0 0.996 0.001 1.038 0.021 1.065 0.024 0.033 0.099 0.078 0.129 0.079 0.011 0 0.041-0.020 0.067-0.044zM10.148 13.586c-0.105-0.027-0.119-0.065-0.126-0.343-0.006-0.246 0.003-0.303 0.051-0.321 0.019-0.007 0.129-0.010 0.294-0.008 0.293 0.004 0.313 0.008 0.353 0.077 0.021 0.036 0.023 0.057 0.022 0.269-0.001 0.343 0.012 0.33-0.324 0.333-0.13 0.001-0.251-0.002-0.27-0.006zM11.089 13.573c-0.069-0.044-0.073-0.059-0.075-0.284-0.002-0.196-0.001-0.206 0.026-0.26 0.035-0.070 0.080-0.094 0.203-0.109 0.052-0.006 0.398-0.009 0.828-0.007l0.738 0.004 0.040 0.030c0.071 0.054 0.079 0.087 0.074 0.305-0.004 0.17-0.007 0.198-0.028 0.237-0.013 0.025-0.038 0.053-0.056 0.063-0.068 0.039-0.15 0.043-0.94 0.043-0.759-0-0.776-0.001-0.81-0.023zM13.3 13.575c-0.078-0.049-0.089-0.072-0.097-0.202-0.009-0.155 0.005-0.317 0.032-0.363s0.088-0.077 0.18-0.088c0.090-0.012 1.372-0.012 1.497-0.001 0.078 0.007 0.090 0.012 0.125 0.046 0.061 0.059 0.065 0.079 0.061 0.295-0.004 0.23-0.013 0.255-0.105 0.301l-0.056 0.028-0.802 0.003c-0.769 0.003-0.803 0.002-0.836-0.018zM15.46 13.571c-0.073-0.049-0.080-0.074-0.081-0.292-0.001-0.186-0-0.198 0.026-0.25 0.033-0.066 0.079-0.092 0.188-0.106 0.093-0.012 1.454-0.012 1.538-0 0.051 0.007 0.067 0.016 0.103 0.054 0.037 0.040 0.043 0.054 0.050 0.121 0.012 0.111 0 0.329-0.020 0.376-0.009 0.022-0.029 0.050-0.044 0.063-0.062 0.055-0.053 0.054-0.913 0.058l-0.808 0.003-0.038-0.026zM17.664 13.585c-0.012-0.005-0.037-0.025-0.056-0.045-0.028-0.030-0.035-0.048-0.041-0.116-0.012-0.124-0.011-0.281 0.003-0.347 0.016-0.073 0.063-0.124 0.134-0.146 0.040-0.012 0.213-0.015 0.846-0.015h0.796l0.036 0.026c0.020 0.014 0.048 0.042 0.062 0.062 0.024 0.034 0.026 0.045 0.026 0.238 0 0.243-0.010 0.273-0.102 0.32l-0.055 0.028-0.813 0.002c-0.447 0.001-0.823-0.002-0.836-0.007zM19.799 13.537l-0.055-0.059 0.004-0.202c0.004-0.19 0.006-0.205 0.032-0.252 0.063-0.112 0.092-0.115 1.023-0.111l0.732 0.004 0.036 0.025c0.020 0.014 0.047 0.043 0.060 0.064 0.023 0.037 0.024 0.050 0.020 0.244-0.004 0.241-0.012 0.265-0.105 0.311l-0.056 0.028-1.636 0.006zM22.024 13.581c-0.021-0.007-0.049-0.028-0.062-0.045-0.022-0.030-0.023-0.046-0.023-0.269 0-0.361-0.011-0.35 0.342-0.35 0.263 0 0.285 0.004 0.33 0.065 0.022 0.030 0.023 0.046 0.023 0.277 0 0.345 0.010 0.335-0.348 0.335-0.145 0-0.238-0.005-0.263-0.013zM7.579 12.63c-0.084-0.024-0.117-0.11-0.125-0.326-0.006-0.16 0.007-0.225 0.068-0.341 0.078-0.148 0.199-0.238 0.602-0.449 0.431-0.226 1.058-0.562 1.655-0.886 2.202-1.199 2.056-1.122 2.228-1.174 0.082-0.025 0.092-0.025 1.132-0.033 1.489-0.011 4.374-0.011 6.024 0l1.408 0.010 0.101 0.029c0.119 0.035 0.259 0.1 0.55 0.258 0.117 0.064 0.423 0.228 0.679 0.366s0.503 0.271 0.55 0.297c0.080 0.045 0.727 0.398 2.059 1.124 0.35 0.191 0.622 0.346 0.644 0.367 0.036 0.035 0.038 0.043 0.049 0.148 0.006 0.061 0.008 0.206 0.004 0.323-0.006 0.2-0.008 0.214-0.032 0.239-0.014 0.015-0.039 0.034-0.056 0.043-0.026 0.014-1.284 0.016-8.767 0.015-5.053-0.001-8.751-0.005-8.771-0.011zM11.513 11.847l0.049-0.044 0.003-0.756c0.003-0.86 0.009-0.808-0.090-0.861l-0.053-0.029-0.042 0.024c-0.023 0.013-0.052 0.038-0.065 0.054-0.022 0.029-0.022 0.047-0.022 0.789 0 0.716 0.001 0.761 0.021 0.79 0.027 0.040 0.084 0.076 0.121 0.076 0.018 0 0.048-0.016 0.079-0.043zM12.584 11.865c0.068-0.047 0.066-0.010 0.066-0.847v-0.768l-0.049-0.045c-0.042-0.039-0.053-0.044-0.084-0.038-0.020 0.004-0.056 0.021-0.080 0.038l-0.045 0.031-0.009 0.145c-0.011 0.183-0.004 1.406 0.008 1.433 0.014 0.031 0.086 0.075 0.123 0.075 0.018 0 0.050-0.011 0.070-0.025zM13.672 11.866c0.077-0.053 0.073-0.006 0.072-0.84-0.001-0.736-0.001-0.754-0.023-0.785-0.012-0.017-0.040-0.042-0.061-0.055-0.049-0.030-0.084-0.022-0.142 0.033l-0.044 0.042 0 0.767c0 0.851-0.005 0.789 0.073 0.841 0.043 0.029 0.080 0.028 0.124-0.003zM14.781 11.843l0.048-0.048 0.008-0.118c0.004-0.065 0.006-0.406 0.004-0.758l-0.004-0.64-0.030-0.040c-0.034-0.045-0.101-0.081-0.131-0.071-0.036 0.012-0.099 0.081-0.106 0.118-0.004 0.020-0.007 0.359-0.007 0.753 0 0.785-0.002 0.763 0.067 0.82 0.054 0.045 0.094 0.041 0.152-0.017zM15.875 11.846l0.045-0.045v-1.52l-0.028-0.042c-0.054-0.079-0.109-0.088-0.183-0.030-0.059 0.046-0.057 0.020-0.057 0.829 0 0.828-0.005 0.772 0.068 0.826 0.056 0.041 0.102 0.036 0.156-0.018zM16.961 11.841l0.053-0.050v-0.755c0-0.588-0.003-0.761-0.014-0.78-0.017-0.029-0.077-0.076-0.11-0.086-0.028-0.008-0.086 0.028-0.121 0.075-0.023 0.031-0.024 0.044-0.027 0.623-0.002 0.325-0 0.669 0.004 0.765l0.008 0.174 0.044 0.042c0.061 0.058 0.096 0.057 0.164-0.008zM18.055 11.847l0.047-0.044v-0.768c0-0.759-0-0.769-0.023-0.799-0.013-0.017-0.036-0.041-0.052-0.053-0.025-0.019-0.034-0.020-0.070-0.008-0.022 0.007-0.058 0.030-0.080 0.050l-0.039 0.037v0.765c0 0.847-0.004 0.797 0.072 0.844 0.054 0.033 0.090 0.027 0.144-0.023zM19.124 11.865c0.068-0.047 0.066-0.010 0.066-0.847v-0.768l-0.049-0.044c-0.057-0.050-0.070-0.052-0.129-0.018-0.090 0.052-0.085 0.008-0.086 0.681-0.001 0.33-0.001 0.675-0 0.767l0.001 0.167 0.045 0.043c0.054 0.051 0.097 0.056 0.153 0.018zM20.211 11.868c0.069-0.043 0.068-0.038 0.076-0.453 0.004-0.209 0.004-0.554-0-0.767-0.007-0.383-0.007-0.387-0.033-0.417-0.014-0.017-0.044-0.040-0.066-0.050-0.038-0.018-0.042-0.018-0.081 0.002-0.023 0.012-0.053 0.038-0.067 0.059l-0.025 0.037v1.514l0.049 0.049c0.056 0.056 0.090 0.062 0.148 0.026zM21.314 11.86c0.026-0.017 0.051-0.043 0.055-0.059s0.008-0.367 0.008-0.78c0-0.85 0.007-0.789-0.091-0.836-0.053-0.026-0.053-0.026-0.092-0.004-0.022 0.012-0.050 0.036-0.063 0.053-0.023 0.031-0.023 0.040-0.023 0.78 0 0.411 0.004 0.763 0.009 0.781s0.024 0.047 0.043 0.065c0.044 0.041 0.091 0.042 0.153 0.001zM13.794 9.143c-0.069-0.028-0.086-0.096-0.074-0.287 0.010-0.153 0.024-0.187 0.086-0.207 0.025-0.008 0.186-0.014 0.467-0.017 0.477-0.004 0.463-0.002 0.505-0.085 0.017-0.034 0.020-0.075 0.020-0.334 0-0.332 0.004-0.351 0.077-0.397 0.039-0.024 0.051-0.025 0.288-0.025 0.376 0 0.356 0.026 0.455-0.584 0.293-1.795 0.687-4.131 0.702-4.165l0.018-0.041 0.015 0.050c0.008 0.028 0.119 0.674 0.246 1.436 0.357 2.139 0.532 3.155 0.549 3.181 0.008 0.013 0.047 0.044 0.087 0.069l0.071 0.046 0.197 0.011c0.263 0.014 0.313 0.036 0.349 0.15 0.007 0.021 0.013 0.149 0.015 0.285 0.003 0.265 0.009 0.299 0.064 0.349 0.059 0.053 0.059 0.054 0.492 0.054 0.406 0.001 0.41 0.001 0.45 0.026 0.067 0.041 0.073 0.059 0.080 0.235 0.008 0.182-0.002 0.235-0.044 0.251-0.035 0.013-5.082 0.013-5.114 0z"></path>
</svg>
