<!-- Generated by IcoMoon.io -->
<svg version="1.1" xmlns="http://www.w3.org/2000/svg" width="32" height="32" viewBox="0 0 32 32">
<title>kofi</title>
<path d="M23.708 8.027c1.311 0.135 2.398 0.527 3.467 1.252 0.415 0.281 0.662 0.481 0.963 0.781 1.012 1.008 1.673 2.405 1.893 3.997 0.099 0.716 0.096 1.423-0.004 2.102-0.111 0.755-0.34 1.475-0.688 2.132-0.381 0.721-0.905 1.376-1.531 1.915-1.307 1.124-3.009 1.756-4.98 1.848l-0.302 0.014-0.013 0.157c-0.082 0.953-0.34 1.756-0.77 2.394-0.364 0.541-0.81 0.931-1.399 1.224-0.423 0.21-0.85 0.343-1.224 0.381-0.127 0.013-1.474 0.030-3.349 0.042-4.673 0.031-10.453 0.024-10.69-0.012-1.649-0.252-2.724-1.294-2.946-2.855-0.059-0.417-0.078-2.097-0.081-7.24-0-0.357-0.001-0.587-0.001-0.979-0.001-5.593 0.001-5.847 0.037-5.975 0.054-0.192 0.197-0.483 0.313-0.636 0.188-0.248 0.482-0.445 0.793-0.532 0.129-0.036 0.535-0.037 10.189-0.037 8.249 0 10.103 0.005 10.323 0.028zM3.415 9.11c-0.090 0.038-0.202 0.172-0.246 0.294-0.033 0.092-0.037 0.34-0.049 3.242-0.004 1.014-0.003 2.253 0.001 3.513 0.007 2.546 0.027 5.184 0.053 6.264 0.019 0.79 0.036 0.952 0.137 1.271 0.258 0.818 0.961 1.352 1.962 1.49 0.163 0.022 0.93 0.026 4.166 0.018 5.32-0.013 9.525-0.044 9.678-0.072 0.362-0.066 0.845-0.279 1.142-0.502 0.754-0.566 1.141-1.491 1.184-2.834 0.008-0.237 0.023-0.395 0.043-0.461 0.041-0.129 0.153-0.253 0.284-0.314 0.099-0.046 0.123-0.048 0.598-0.049 0.272-0 0.606-0.010 0.742-0.021 2.071-0.173 3.756-1.035 4.83-2.472 0.507-0.678 0.826-1.429 0.988-2.318 0.017-0.092 0.033-0.183 0.047-0.278 0.042-0.299 0.036-1.279-0.010-1.607-0.234-1.669-0.927-2.971-2.039-3.835-1.030-0.8-2.151-1.236-3.434-1.335-0.187-0.015-3.476-0.022-10.143-0.022-8.307 0-9.877 0.004-9.934 0.028zM23.947 11.329c0.77 0.129 1.469 0.517 1.977 1.096 0.492 0.562 0.757 1.172 0.845 1.952 0.031 0.274 0.013 0.961-0.033 1.257-0.029 0.184-0.066 0.359-0.111 0.525-0.206 0.763-0.584 1.354-1.156 1.81-0.224 0.179-0.406 0.291-0.726 0.447-0.382 0.187-0.666 0.278-0.964 0.309-0.363 0.038-1.736 0.047-1.861 0.013-0.14-0.039-0.259-0.133-0.333-0.262l-0.063-0.111-0.004-2.205-0.002-1.091c-0.006-3.673-0.015-3.434 0.135-3.601 0.042-0.047 0.123-0.106 0.179-0.133 0.103-0.048 0.105-0.048 0.981-0.048 0.793-0 0.903 0.004 1.133 0.042zM22.605 15.028v2.67l0.325-0.013c0.838-0.035 0.951-0.055 1.355-0.249 0.583-0.28 0.979-0.701 1.2-1.277 0.028-0.072 0.053-0.146 0.075-0.222 0.090-0.312 0.118-0.518 0.129-0.962 0.012-0.475-0.013-0.71-0.108-1.010-0.187-0.592-0.663-1.128-1.237-1.393-0.335-0.155-0.707-0.214-1.35-0.214h-0.389zM16.747 13.118c0.969 0.648 1.358 1.8 1.049 3.041-0.023 0.092-0.049 0.185-0.080 0.278-0.088 0.265-0.336 0.753-0.497 0.977-0.073 0.101-0.265 0.333-0.427 0.515-0.329 0.37-2.063 2.115-2.717 2.734-0.804 0.762-1.529 1.43-1.612 1.487-0.099 0.067-0.224 0.075-0.307 0.020-0.030-0.020-0.275-0.235-0.545-0.479-2.127-1.92-3.681-3.447-4.094-4.023-0.299-0.418-0.543-0.966-0.675-1.509-0.019-0.079-0.036-0.158-0.051-0.237-0.046-0.25-0.063-0.843-0.032-1.077 0.072-0.543 0.28-0.999 0.62-1.361 0.383-0.408 0.851-0.662 1.478-0.802 0.175-0.039 0.263-0.045 0.675-0.045 0.414 0 0.501 0.006 0.685 0.046 0.738 0.161 1.374 0.502 1.92 1.029l0.187 0.18 0.16-0.151c0.565-0.534 1.327-0.95 1.989-1.084 0.197-0.040 0.394-0.060 0.591-0.060 0.59-0 1.171 0.177 1.684 0.52z"></path>
</svg>
