<!-- Generated by IcoMoon.io -->
<svg version="1.1" xmlns="http://www.w3.org/2000/svg" width="32" height="32" viewBox="0 0 32 32">
<title>kuala_lampur</title>
<path d="M2.004 23.95v-6.050l0.125-0.001c0.216-0.001 0.258-0.055 0.18-0.232-0.037-0.084-0.080-0.189-0.094-0.232s-0.068-0.079-0.118-0.079c-0.061 0-0.092-0.030-0.092-0.088 0-0.076 0.044-0.092 0.317-0.119 0.174-0.017 0.336-0.055 0.361-0.084s0.067-0.287 0.094-0.572c0.077-0.8 0.159-1.189 0.316-1.508 0.161-0.327 0.586-0.8 0.921-1.025 0.239-0.161 0.763-0.41 0.862-0.41 0.132 0 0.214-0.166 0.231-0.466 0.029-0.513 0.16-0.518 0.161-0.006 0.001 0.344 0.029 0.372 0.726 0.725 1.122 0.568 1.517 1.208 1.625 2.638 0.039 0.522 0.098 0.723 0.193 0.664 0.022-0.014 0.040-0.92 0.039-2.050-0.001-1.92-0.006-2.036-0.091-2.223-0.107-0.236-0.114-0.383-0.022-0.46 0.046-0.038 0.068-0.141 0.068-0.323 0-0.226 0.012-0.266 0.082-0.266 0.18 0 0.19-0.068 0.19-1.226v-1.118l-0.131-0.246c-0.123-0.231-0.129-0.268-0.102-0.601l0.029-0.355 0.317-0.102 0.013-0.327c0.009-0.228-0.008-0.368-0.057-0.462-0.096-0.187-0.090-0.215 0.066-0.269 0.12-0.042 0.136-0.068 0.136-0.224 0-0.097 0.040-0.369 0.090-0.603 0.112-0.529 0.12-1.271 0.020-1.704-0.084-0.36-0.057-0.691 0.083-1.034 0.068-0.167 0.1-0.377 0.12-0.802 0.030-0.617 0.086-0.777 0.212-0.605 0.046 0.062 0.065 0.22 0.066 0.544 0.001 0.329 0.032 0.582 0.112 0.909 0.132 0.536 0.137 0.69 0.042 1.163-0.056 0.274-0.061 0.389-0.023 0.498 0.027 0.078 0.050 0.31 0.050 0.516 0 0.313 0.060 0.778 0.159 1.228 0.012 0.053 0.065 0.108 0.119 0.122 0.084 0.022 0.093 0.046 0.066 0.175-0.017 0.082-0.042 0.3-0.054 0.483-0.024 0.363 0.015 0.46 0.185 0.46 0.095 0 0.103 0.025 0.132 0.408s0.024 0.42-0.084 0.604c-0.115 0.196-0.115 0.198-0.115 1.331 0 0.938 0.011 1.144 0.066 1.19 0.036 0.030 0.085 0.043 0.108 0.029 0.085-0.052 0.131 0.095 0.159 0.505 0.024 0.355 0.015 0.453-0.062 0.647-0.086 0.219-0.090 0.341-0.090 2.925 0 2.43 0.007 2.699 0.073 2.724 0.040 0.015 0.091-0.001 0.113-0.035s0.041-0.726 0.042-1.536c0.002-1.191 0.015-1.495 0.067-1.586 0.043-0.075 0.065-0.255 0.066-0.531 0.002-0.51 0.019-0.526 0.611-0.597 0.223-0.027 0.42-0.064 0.438-0.083s0.042-0.677 0.052-1.462l0.018-1.428 0.161-0.521c0.21-0.679 0.318-0.945 0.537-1.32 0.375-0.642 0.971-1.288 1.606-1.74 0.394-0.281 1.436-0.821 1.835-0.951 0.292-0.095 0.631-0.394 0.553-0.487-0.032-0.039-0.033-0.229-0.004-0.6 0.043-0.541 0.093-0.7 0.177-0.566 0.037 0.059 0.072 0.773 0.057 1.155-0.007 0.179 0.234 0.403 0.549 0.509 0.358 0.12 1.269 0.596 1.78 0.928 1.096 0.713 1.852 1.78 2.19 3.092 0.183 0.711 0.225 1.156 0.226 2.393 0.001 0.794 0.014 1.031 0.057 1.032 0.229 0.004 0.96 0.138 0.987 0.182 0.018 0.030 0.035 0.258 0.037 0.507 0.002 0.328 0.023 0.482 0.073 0.56 0.060 0.091 0.070 0.328 0.070 1.604 0 1.273 0.010 1.497 0.065 1.497 0.036 0 0.078-0.020 0.093-0.044s0.026-1.251 0.024-2.727c-0.003-2.557-0.007-2.697-0.095-2.984-0.071-0.235-0.081-0.329-0.044-0.426 0.026-0.068 0.047-0.233 0.047-0.365 0-0.231 0.005-0.242 0.136-0.268l0.136-0.027v-1.155c0-1.147-0.001-1.157-0.117-1.412-0.107-0.233-0.115-0.289-0.086-0.611l0.031-0.354 0.286-0.028v-0.295c0-0.162-0.014-0.402-0.032-0.534-0.030-0.226-0.026-0.242 0.079-0.282 0.073-0.028 0.112-0.078 0.112-0.145 0.001-0.057 0.032-0.236 0.070-0.398s0.087-0.607 0.109-0.99c0.032-0.559 0.028-0.737-0.024-0.906-0.097-0.318-0.080-0.669 0.053-1.098 0.085-0.273 0.125-0.523 0.141-0.88 0.013-0.274 0.044-0.538 0.069-0.586 0.045-0.085 0.047-0.085 0.108-0.003 0.044 0.060 0.062 0.234 0.062 0.592 0 0.45 0.013 0.537 0.119 0.773 0.158 0.352 0.189 0.794 0.088 1.239-0.042 0.183-0.062 0.392-0.047 0.464s0.035 0.299 0.043 0.503c0.008 0.204 0.046 0.552 0.086 0.773s0.073 0.451 0.073 0.511c0 0.072 0.039 0.126 0.117 0.162 0.097 0.044 0.111 0.073 0.084 0.169-0.018 0.064-0.035 0.299-0.038 0.524l-0.005 0.408 0.282 0.027 0.027 0.412c0.025 0.385 0.019 0.422-0.084 0.575-0.11 0.162-0.111 0.167-0.111 1.328v1.165l0.125 0.060c0.113 0.054 0.126 0.086 0.138 0.331 0.008 0.149 0.033 0.291 0.057 0.315 0.062 0.062 0.053 0.262-0.021 0.439-0.051 0.122-0.065 0.56-0.073 2.17-0.011 2.27-0.014 2.13 0.045 2.13 0.091 0 0.134-0.187 0.227-0.977 0.123-1.048 0.199-1.227 0.761-1.788 0.352-0.351 0.455-0.424 0.939-0.661l0.544-0.267 0.023-0.317c0.038-0.531 0.179-0.574 0.181-0.055 0.001 0.314 0.087 0.425 0.433 0.555 0.566 0.213 1.156 0.676 1.458 1.145 0.248 0.385 0.369 0.765 0.423 1.334 0.1 1.053 0.086 1.003 0.293 1.040 0.1 0.018 0.256 0.033 0.347 0.035 0.193 0.003 0.214 0.11 0.039 0.198-0.061 0.031-0.136 0.137-0.177 0.249-0.080 0.22-0.042 0.279 0.176 0.28l0.113 0.001-0.023 12.1h-27.961zM22.887 28.541c0.059-0.059 0.075-0.614 0.020-0.701-0.018-0.029-0.095-0.059-0.169-0.068-0.126-0.014-0.137-0.030-0.15-0.219-0.018-0.254-0.048-0.285-0.315-0.315l-0.215-0.025-0.014-0.215c-0.012-0.181-0.030-0.219-0.119-0.241-0.058-0.014-0.133-0.022-0.167-0.018-0.196 0.027-0.221 0.002-0.221-0.223 0-0.131-0.025-0.242-0.061-0.272-0.045-0.037-1.511-0.048-5.472-0.040l-5.411 0.012-0.014 0.261c-0.010 0.188-0.032 0.262-0.079 0.266-0.036 0.003-0.128 0.008-0.203 0.011-0.166 0.007-0.223 0.086-0.224 0.312-0.001 0.168-0.002 0.17-0.185 0.17-0.295 0-0.36 0.058-0.36 0.319 0 0.208-0.008 0.225-0.11 0.225-0.234 0-0.253 0.031-0.253 0.405 0 0.193 0.014 0.364 0.030 0.38s3.092 0.030 6.834 0.030c5.231 0 6.816-0.013 6.858-0.054zM18.836 24.897c0.064-0.025 0.072-0.256 0.072-2.147 0-1.791-0.010-2.128-0.065-2.174-0.036-0.030-0.163-0.068-0.283-0.085l-0.218-0.031-0.031-0.251c-0.046-0.366-0.198-0.734-0.39-0.943-0.254-0.276-1.854-1.38-1.958-1.351-0.108 0.029-1.493 1.003-1.754 1.233-0.27 0.237-0.441 0.552-0.518 0.951-0.029 0.15-0.072 0.297-0.097 0.329s-0.129 0.057-0.233 0.057c-0.104 0-0.214 0.024-0.244 0.054-0.081 0.081-0.078 4.324 0.002 4.357 0.082 0.033 5.632 0.035 5.718 0.003zM6.029 24.598c0.040-0.040 0.054-0.452 0.054-1.571 0-1.311-0.011-1.55-0.078-1.765-0.1-0.318-0.397-0.655-0.668-0.758-0.194-0.074-0.207-0.073-0.405 0.023-0.242 0.117-0.457 0.349-0.589 0.634-0.090 0.195-0.096 0.291-0.109 1.785-0.010 1.157 0.001 1.596 0.040 1.643 0.071 0.086 1.67 0.094 1.755 0.010zM27.703 24.605c0.084-0.045 0.088-0.11 0.088-1.513 0-1.342-0.008-1.491-0.091-1.755-0.163-0.516-0.502-0.855-0.856-0.855-0.248 0-0.472 0.141-0.678 0.427-0.253 0.352-0.279 0.56-0.279 2.186 0 1.344 0.006 1.465 0.079 1.507 0.106 0.062 1.622 0.063 1.736 0.002zM9.832 23.714c0.016-0.042 0.030-0.302 0.031-0.578 0.002-0.431-0.012-0.527-0.099-0.691-0.12-0.228-0.36-0.422-0.521-0.422-0.151 0-0.39 0.203-0.473 0.401-0.072 0.173-0.134 1.059-0.087 1.247l0.030 0.119h0.544c0.471 0 0.548-0.010 0.574-0.077zM23.295 23.247c0.018-0.682-0.002-0.771-0.23-1.014-0.241-0.257-0.337-0.285-0.535-0.154-0.262 0.174-0.367 0.456-0.394 1.056-0.017 0.383-0.008 0.536 0.035 0.588 0.048 0.058 0.154 0.068 0.584 0.058l0.526-0.013zM6.74 16.617c-0.347-0.061-2.826-0.060-3.127 0.002-0.17 0.035 0.23 0.046 1.586 0.046 1.417-0 1.753-0.011 1.541-0.048zM28.357 16.617c-0.15-0.026-0.853-0.048-1.563-0.048s-1.414 0.021-1.563 0.048c-0.212 0.037 0.136 0.048 1.563 0.048s1.775-0.011 1.563-0.048zM11.784 13.859c0.011-0.202-0.004-0.262-0.080-0.331-0.091-0.082-0.095-0.082-0.159 0.002-0.084 0.11-0.093 0.592-0.012 0.62 0.031 0.011 0.097 0.005 0.147-0.013 0.073-0.026 0.093-0.080 0.104-0.279zM20.539 13.872c-0.001-0.136-0.032-0.249-0.088-0.323-0.086-0.111-0.089-0.112-0.153-0.024-0.072 0.098-0.136 0.461-0.093 0.531 0.047 0.076 0.218 0.12 0.278 0.072 0.031-0.025 0.056-0.14 0.056-0.255zM12.645 14.039c0.059-0.059 0.072-0.346 0.026-0.576-0.040-0.198-0.18-0.269-0.298-0.151-0.092 0.092-0.167 0.567-0.111 0.71 0.033 0.085 0.303 0.097 0.384 0.017zM19.715 13.769c0.012-0.266 0-0.316-0.099-0.431-0.106-0.122-0.117-0.125-0.19-0.053-0.1 0.098-0.173 0.597-0.106 0.722 0.037 0.069 0.086 0.087 0.215 0.076l0.167-0.014zM14.005 13.654c0.012-0.255 0.001-0.294-0.118-0.428l-0.132-0.147-0.116 0.116c-0.084 0.084-0.124 0.185-0.147 0.37-0.046 0.367-0.024 0.399 0.261 0.383l0.238-0.014zM15.294 13.928c0.168-0.028 0.17-0.031 0.169-0.237-0.001-0.356-0.050-0.551-0.158-0.621-0.218-0.143-0.406 0.113-0.396 0.538 0.009 0.373 0.019 0.382 0.384 0.321zM17.085 13.64c0.015-0.355-0.097-0.589-0.281-0.589-0.177 0-0.253 0.156-0.253 0.524 0 0.177 0.015 0.337 0.032 0.355s0.135 0.026 0.261 0.019l0.228-0.013zM18.475 13.604c-0.002-0.273-0.020-0.347-0.098-0.425-0.054-0.054-0.126-0.084-0.165-0.069-0.166 0.064-0.289 0.543-0.198 0.77 0.026 0.066 0.075 0.079 0.248 0.068l0.216-0.014-0.003-0.33z"></path>
</svg>
