<!-- Generated by IcoMoon.io -->
<svg version="1.1" xmlns="http://www.w3.org/2000/svg" width="32" height="32" viewBox="0 0 32 32">
<title>lacuna</title>
<path d="M17.149 30.969c-0.54-0.043-1.624-0.233-2.575-0.452-0.637-0.146-1.585-0.285-2.107-0.309-0.482-0.022-0.483-0.022-1.087-0.434l-0.604-0.413-0.274 0.069c-0.368 0.093-0.526 0.087-0.526-0.019 0-0.049-0.167-0.177-0.372-0.286s-0.422-0.262-0.484-0.341c-0.189-0.24-0.327-0.16-0.184 0.107 0.085 0.158 0.065 0.154-0.448-0.103-0.59-0.295-0.801-0.465-2.149-1.728-0.536-0.502-0.497-0.491 0.637 0.178 1.13 0.667 1.168 0.593 0.088-0.169-0.27-0.19-0.653-0.5-0.852-0.689-0.334-0.317-0.352-0.326-0.23-0.121 0.167 0.28 0.166 0.321-0.006 0.233-0.227-0.117-0.464-0.365-0.86-0.903-0.271-0.368-0.422-0.519-0.542-0.543-0.199-0.040-0.328-0.306-0.574-1.185-0.090-0.32-0.236-0.717-0.325-0.881l-0.162-0.299-0.075 0.176c-0.041 0.097-0.077 0.211-0.078 0.253-0.006 0.164-0.116 0.061-0.296-0.276l-0.188-0.353 0.146-0.13c0.096-0.085 0.157-0.106 0.179-0.061 0.018 0.038 0.026 0.020 0.018-0.041s-0.032-0.102-0.054-0.092c-0.119 0.056-0.292-0.239-0.356-0.605-0.038-0.22-0.137-0.653-0.22-0.961s-0.15-0.65-0.15-0.76c-0-0.11-0.028-0.199-0.061-0.199s-0.061-0.040-0.061-0.089c0-0.049-0.062-0.184-0.138-0.299s-0.185-0.296-0.242-0.401c-0.174-0.318-0.254-0.243-0.205 0.192 0.024 0.21 0.073 0.418 0.11 0.462 0.045 0.054 0.046 0.1 0.004 0.142-0.081 0.081-0.176-0.149-0.294-0.711-0.106-0.502-0.112-0.602-0.038-0.556 0.074 0.046 0.129-0.113 0.129-0.369 0-0.135-0.027-0.204-0.077-0.194-0.106 0.021-0.096-0.574 0.017-0.955 0.080-0.269 0.078-0.313-0.021-0.485-0.107-0.187-0.090-0.24 0.099-0.307 0.027-0.009 0.006-0.137-0.046-0.285-0.123-0.348-0.119-0.415 0.024-0.453 0.081-0.021 0.131-0.105 0.157-0.268 0.084-0.514 0.106-0.577 0.219-0.638 0.067-0.036 0.118-0.128 0.118-0.214 0-0.165-0.058-0.191-0.172-0.078-0.145 0.145-0.076-0.277 0.146-0.901 0.353-0.99 0.357-1.009 0.229-1.109-0.082-0.064-0.086-0.078-0.015-0.053 0.105 0.036 0.133-0.017 0.519-1.008 0.194-0.498 0.212-0.583 0.131-0.629-0.080-0.045-0.062-0.101 0.119-0.369 0.117-0.174 0.201-0.346 0.187-0.383s0.272-0.536 0.637-1.109c0.578-0.908 0.647-1.044 0.539-1.062-0.068-0.011-0.176 0.028-0.241 0.086-0.238 0.215-0.083-0.125 0.214-0.47 0.104-0.121 0.543-0.545 0.975-0.942 0.442-0.406 0.772-0.756 0.756-0.799-0.018-0.046 0.068-0.122 0.211-0.186 0.194-0.088 0.227-0.125 0.169-0.194s-0.011-0.148 0.23-0.394c0.601-0.614 1.676-1.218 2.169-1.218 0.165 0 0.185-0.020 0.185-0.184 0-0.105-0.033-0.185-0.077-0.185-0.121-0.002 2.31-0.908 2.883-1.075 0.284-0.082 0.636-0.15 0.782-0.15s0.283-0.029 0.306-0.065c0.024-0.039 0.236-0.060 0.528-0.052 0.453 0.012 0.495 0.002 0.588-0.134 0.136-0.199 0.241-0.255 0.501-0.266 0.121-0.005 0.451-0.060 0.733-0.121 0.291-0.063 0.642-0.099 0.81-0.082 0.163 0.016 0.282 0.005 0.265-0.024-0.045-0.073 0.274-0.062 0.986 0.036 0.84 0.115 1.727 0.329 3.28 0.792 1.060 0.316 1.322 0.416 1.339 0.508 0.032 0.175 0.356 0.486 0.898 0.864 0.27 0.188 0.633 0.462 0.808 0.609 0.396 0.334 0.508 0.24 0.149-0.126-0.139-0.141-0.252-0.27-0.252-0.285s0.118-0.035 0.262-0.043c0.342-0.019 0.719 0.259 0.673 0.498-0.037 0.196 0.238 0.403 0.379 0.286 0.073-0.061 0.105-0.034 0.184 0.154 0.052 0.125 0.095 0.248 0.095 0.274s0.034 0.061 0.077 0.077c0.217 0.084 1.143 0.912 1.677 1.5 1.352 1.488 1.736 2.005 1.395 1.874-0.080-0.031-0.076 0.003 0.024 0.202 0.066 0.131 0.183 0.432 0.259 0.668 0.224 0.69 0.471 1.142 0.552 1.011 0.050-0.082 0.192 0.122 0.296 0.425 0.039 0.115 0.085 0.529 0.102 0.919 0.024 0.569 0.017 0.667-0.036 0.496-0.108-0.349-0.264-0.476-0.32-0.261-0.026 0.099-0.029 0.099-0.035-0.004-0.004-0.061-0.034-0.094-0.067-0.074s-0.077-0.040-0.098-0.134c-0.021-0.094-0.077-0.327-0.124-0.517-0.113-0.457-0.106-0.501 0.034-0.206l0.116 0.245 0.005-0.211c0.003-0.143-0.074-0.344-0.24-0.624-0.135-0.227-0.245-0.446-0.245-0.486 0-0.056-0.022-0.055-0.092 0.003-0.051 0.042-0.092 0.114-0.092 0.161 0 0.184-0.247 0.079-0.413-0.176-0.148-0.228-0.17-0.322-0.173-0.751-0.002-0.27-0.025-0.584-0.053-0.697-0.035-0.146-0.029-0.195 0.019-0.165 0.098 0.060 0.084-0.039-0.056-0.414-0.131-0.351-0.309-0.561-0.437-0.519-0.043 0.014-0.138-0.045-0.213-0.132s-0.153-0.14-0.174-0.119c-0.062 0.062 0.237 0.789 0.503 1.224 0.239 0.39 0.243 0.405 0.125 0.478-0.067 0.042-0.128 0.067-0.135 0.056s-0.187-0.337-0.399-0.725c-0.212-0.388-0.548-0.929-0.746-1.204-0.35-0.485-1.389-1.59-1.444-1.535-0.015 0.015 0.043 0.131 0.13 0.259 0.15 0.221 0.166 0.37 0.025 0.228-0.037-0.037-0.104-0.054-0.148-0.037-0.109 0.042-0.265-0.213-0.285-0.463-0.012-0.157-0.066-0.239-0.231-0.351-0.263-0.178-0.335-0.185-0.248-0.024 0.079 0.148 0.044 0.154-0.155 0.024-0.083-0.054-0.19-0.083-0.239-0.065s-0.121-0.006-0.161-0.054c-0.112-0.134-0.852-0.511-0.889-0.452-0.018 0.029 0.069 0.164 0.193 0.301 0.313 0.346 0.217 0.377-0.172 0.055-0.178-0.148-0.517-0.429-0.753-0.625-0.418-0.348-1.226-0.793-1.595-0.878-0.173-0.040-0.179-0.036-0.092 0.072 0.075 0.094 0.047 0.088-0.153-0.032-0.135-0.080-0.363-0.226-0.506-0.323s-0.357-0.216-0.473-0.265c-0.24-0.1-0.681-0.118-0.735-0.030-0.020 0.032 0.186 0.208 0.459 0.39l0.495 0.331-0.196 0.039c-0.195 0.039-0.195 0.040-0.079 0.171l0.116 0.132-0.214-0.041c-0.258-0.050-0.395-0.179-0.609-0.57-0.184-0.339-0.222-0.346-0.771-0.142-0.329 0.122-0.44 0.133-1.050 0.099-0.448-0.025-0.864-0.091-1.212-0.191-0.291-0.084-0.599-0.153-0.684-0.153-0.226 0-0.594 0.169-0.565 0.26 0.014 0.043 0.204 0.169 0.422 0.281 0.467 0.239 1.253 0.382 1.48 0.268 0.131-0.066 0.342-0.097 0.535-0.078 0.072 0.007 0.066 0.028-0.027 0.099-0.080 0.060-0.272 0.090-0.582 0.091-0.255 0.001-0.571 0.026-0.703 0.057s-0.511 0.075-0.843 0.098c-0.577 0.041-0.603 0.037-0.603-0.080 0-0.143 0.083-0.219 0.337-0.309 0.267-0.094 0.071-0.089-0.786 0.021-1.481 0.189-2.409 0.508-3.030 1.040-0.315 0.269-0.455 0.488-0.28 0.437 0.062-0.018 0.25-0.049 0.419-0.069l0.306-0.036-0.536 0.278c-0.485 0.252-0.536 0.295-0.536 0.455 0 0.156-0.038 0.192-0.337 0.313-0.262 0.107-0.337 0.166-0.337 0.269 0 0.167-0.163 0.405-0.278 0.405-0.065 0-0.077-0.049-0.048-0.193l0.039-0.193-0.323 0.176c-0.181 0.098-0.347 0.239-0.377 0.319-0.114 0.299-0.073 0.311 0.39 0.111 0.367-0.159 0.267-0.068-0.218 0.199-0.736 0.404-1.358 0.954-0.962 0.851 0.067-0.018 0.123-0.021 0.123-0.008s-0.207 0.178-0.46 0.365c-0.51 0.377-0.663 0.565-0.632 0.776 0.015 0.103-0.034 0.18-0.181 0.283-0.111 0.078-0.194 0.176-0.184 0.219s-0.086 0.176-0.213 0.295c-0.276 0.261-0.289 0.384-0.053 0.506 0.135 0.070 0.183 0.144 0.203 0.313 0.025 0.21-0.012 0.262-0.737 1.045-0.419 0.453-0.828 0.84-0.908 0.86-0.151 0.038-0.208 0.284-0.084 0.36 0.034 0.021 0.061 0.085 0.061 0.142s0.055 0.139 0.123 0.181c0.104 0.065 0.117 0.117 0.083 0.331-0.031 0.195-0.023 0.243 0.036 0.206s0.062-0.020 0.010 0.078c-0.050 0.094-0.048 0.132 0.009 0.153 0.061 0.022 0.060 0.045-0 0.109-0.042 0.045-0.077 0.19-0.077 0.324v0.242l0.133-0.117c0.131-0.115 0.132-0.115 0.083 0.006-0.028 0.067-0.064 0.219-0.080 0.337l-0.029 0.215 0.13-0.117c0.072-0.064 0.13-0.092 0.13-0.061-0.002 0.102-0.102 0.216-0.266 0.301-0.149 0.077-0.162 0.074-0.162-0.035 0-0.183-0.090-0.141-0.17 0.080-0.047 0.131-0.168 0.257-0.351 0.367-0.438 0.264-0.438 0.263-0.299 2.202 0.030 0.423 0.018 0.571-0.061 0.73-0.127 0.255-0.133 0.242 0.103 0.242 0.111 0 0.232 0.029 0.267 0.065 0.046 0.046 0.074-0.064 0.096-0.373 0.022-0.315 0.068-0.488 0.162-0.614 0.156-0.21 0.173-0.585 0.034-0.739-0.089-0.098-0.086-0.118 0.036-0.24 0.073-0.073 0.168-0.216 0.21-0.317 0.075-0.177 0.079-0.167 0.115 0.266 0.021 0.248 0.108 0.667 0.195 0.933 0.135 0.415 0.149 0.527 0.099 0.797-0.062 0.337-0.032 0.628 0.078 0.77 0.052 0.067 0.050 0.078-0.006 0.043-0.078-0.047-0.092-0.008-0.185 0.511-0.033 0.185-0.091 0.296-0.177 0.338-0.167 0.083-0.109 0.24 0.185 0.507 0.162 0.147 0.222 0.251 0.222 0.387 0 0.114 0.025 0.171 0.064 0.146 0.035-0.022 0.133 0.005 0.216 0.060 0.212 0.139 0.301 0.060 0.15-0.132-0.129-0.164-0.169-0.694-0.085-1.115l0.039-0.193 0.224 0.385c0.208 0.356 0.218 0.397 0.141 0.552-0.096 0.194-0.057 0.292 0.114 0.292 0.096 0 0.113 0.029 0.083 0.148-0.047 0.189 0.038 0.347 0.43 0.803 0.437 0.508 0.581 0.725 0.625 0.945 0.046 0.231-0.030 0.241-0.227 0.031-0.092-0.098-0.149-0.231-0.149-0.352 0-0.285-0.178-0.29-0.433-0.012l-0.207 0.226 0.122 0.255c0.067 0.14 0.308 0.481 0.534 0.757 0.921 1.122 1.152 1.408 1.254 1.553 0.073 0.105 0.094 0.115 0.066 0.034-0.029-0.085-0.018-0.104 0.038-0.069 0.061 0.038 0.063 0.021 0.008-0.082-0.084-0.157-0.138-0.172-0.084-0.023 0.021 0.059 0.019 0.090-0.006 0.068s-0.055-0.129-0.069-0.238l-0.025-0.198 0.134 0.115c0.217 0.187 0.345 0.344 0.519 0.636 0.374 0.628 0.948 1.471 1.002 1.471 0.032 0 0.058-0.074 0.058-0.165v-0.165l0.172 0.165c0.095 0.091 0.235 0.165 0.312 0.165 0.205 0 0.506 0.194 0.465 0.3-0.019 0.049 0.001 0.111 0.045 0.138 0.129 0.082 0.356 0.059 0.394-0.040 0.056-0.145 0.2-0.108 0.371 0.094 0.15 0.179 0.171 0.184 0.507 0.146 0.265-0.030 0.398-0.015 0.544 0.061 0.107 0.055 0.194 0.075 0.194 0.045s0.106-0.003 0.236 0.061c0.291 0.144 1.214 0.257 1.659 0.203 0.313-0.038 0.326-0.034 0.227 0.065-0.058 0.058-0.093 0.117-0.079 0.131s0.253 0.080 0.529 0.146c0.346 0.083 0.564 0.105 0.697 0.070 0.246-0.064 0.252-0.215 0.010-0.258-0.101-0.018-0.156-0.050-0.122-0.072 0.072-0.045 0.459 0.104 0.46 0.177 0 0.027-0.131 0.165-0.291 0.307l-0.292 0.258 0.184 0.005c0.101 0.003 0.294 0.047 0.429 0.098 0.536 0.203 0.582 0.209 0.582 0.085 0-0.063-0.084-0.164-0.186-0.225-0.251-0.148-0.223-0.331 0.062-0.404 0.246-0.064 0.911 0.020 1.39 0.175l0.316 0.102 0.236-0.186c0.153-0.12 0.489-0.264 0.957-0.408 0.452-0.14 0.747-0.264 0.791-0.335 0.040-0.064 0.116-0.1 0.178-0.084 0.059 0.016 0.159-0.001 0.22-0.037s0.078-0.066 0.036-0.067c-0.139-0.003-0.080-0.126 0.092-0.192 0.129-0.049 0.25-0.040 0.516 0.041 0.404 0.122 0.704 0.070 0.388-0.068l-0.184-0.080 0.276-0.122c0.152-0.067 0.496-0.155 0.766-0.195 0.606-0.090 1.049-0.252 1.282-0.469 0.162-0.15 0.168-0.169 0.064-0.205-0.094-0.033-0.078-0.052 0.092-0.111 0.265-0.092 0.257-0.096 0.175 0.083-0.104 0.228 0.003 0.306 0.264 0.194 0.252-0.108 0.528-0.401 0.756-0.801 0.094-0.164 0.27-0.41 0.393-0.546l0.223-0.247-0.196 0.101c-0.237 0.123-0.264 0.124-0.264 0.019 0-0.111 0.265-0.224 0.527-0.224 0.146 0 0.262-0.048 0.365-0.15 0.142-0.142 0.212-0.324 0.098-0.253-0.029 0.018-0.168 0.013-0.309-0.012l-0.256-0.044 0.185-0.291c0.102-0.16 0.227-0.291 0.278-0.291s0.093-0.052 0.093-0.116c0-0.064 0.077-0.199 0.172-0.3s0.222-0.296 0.285-0.434c0.062-0.138 0.162-0.266 0.221-0.285s0.142-0.075 0.183-0.124c0.111-0.133 0.37-1.098 0.302-1.122-0.032-0.011 0.024-0.136 0.126-0.277 0.191-0.265 0.327-0.631 0.27-0.723-0.018-0.029-0.081-0.027-0.14 0.004-0.1 0.054-0.1 0.034 0.007-0.322 0.063-0.208 0.178-0.508 0.255-0.667l0.142-0.288-0.16-0.019c-0.216-0.025-0.236-0.194-0.048-0.416 0.175-0.208 0.266-0.535 0.175-0.627s-0.195-0.001-0.195 0.17c0 0.082-0.028 0.15-0.061 0.15-0.091 0-0.075-0.098 0.066-0.408 0.16-0.352 0.125-0.498-0.088-0.358l-0.147 0.096 0.175-0.538c0.096-0.296 0.218-0.696 0.27-0.889 0.094-0.349 0.096-0.351 0.293-0.313 0.109 0.021 0.208 0.046 0.22 0.056s0.039 0.164 0.061 0.344c0.052 0.429 0.187 0.437 0.326 0.019 0.074-0.221 0.104-0.264 0.108-0.153 0.011 0.299 0.073 0.438 0.162 0.364 0.114-0.094 0.199-0.025 0.31 0.251 0.052 0.13 0.136 0.245 0.187 0.255 0.071 0.014 0.048 0.074-0.097 0.257-0.204 0.256-0.246 0.527-0.101 0.648 0.073 0.061 0.116 0.022 0.246-0.222l0.157-0.296-0.016 0.215c-0.015 0.209-0.010 0.214 0.187 0.194l0.203-0.020-0.041 0.664c-0.035 0.565-0.022 0.739 0.088 1.165 0.156 0.605 0.158 0.691 0.026 0.969-0.126 0.265-0.177 0.272-0.225 0.033-0.020-0.101-0.076-0.184-0.123-0.184-0.149 0-0.25 0.339-0.164 0.548 0.094 0.226 0.056 0.286-0.206 0.336-0.201 0.038-0.282 0.129-0.282 0.317 0 0.048 0.037 0.087 0.081 0.087 0.057 0 0.073 0.061 0.054 0.199l-0.028 0.199 0.179-0.169c0.215-0.202 0.338-0.226 0.16-0.031-0.144 0.158-0.324 0.494-0.324 0.605 0 0.041 0.073 0.008 0.162-0.074l0.162-0.149-0.078 0.153c-0.043 0.084-0.131 0.229-0.196 0.321s-0.339 0.589-0.609 1.103c-0.27 0.515-0.627 1.122-0.792 1.349s-0.267 0.414-0.226 0.414c0.041 0-0.003 0.073-0.099 0.161-0.119 0.111-0.151 0.175-0.102 0.206 0.067 0.041-0.474 0.497-1.706 1.436-0.286 0.218-0.367 0.311-0.306 0.349 0.064 0.041 0.065 0.052 0.004 0.053-0.043 0-0.181 0.044-0.306 0.097-0.215 0.091-0.221 0.101-0.112 0.182 0.111 0.082 0.109 0.089-0.050 0.149-0.091 0.035-0.183 0.063-0.203 0.063s-0.308 0.167-0.641 0.371c-0.332 0.204-0.703 0.413-0.823 0.463-0.15 0.063-0.208 0.12-0.184 0.183 0.036 0.094 0.010 0.11-0.297 0.178-0.129 0.029-0.157 0.055-0.098 0.091 0.054 0.034-0.036 0.074-0.264 0.118-0.19 0.037-0.505 0.098-0.699 0.135-0.382 0.074-0.623 0.172-0.429 0.175 0.059 0.001 0.168 0.062 0.242 0.136l0.134 0.134-0.18 0.049c-0.099 0.027-0.484 0.067-0.855 0.090-0.625 0.038-0.691 0.054-0.901 0.223-0.171 0.137-0.272 0.175-0.414 0.154-0.121-0.018-0.187-0.001-0.187 0.047 0 0.11-0.557 0.23-1.379 0.297-0.135 0.011-0.507-0.001-0.828-0.026zM12.429 29.808c0.142-0.090-0.030-0.221-0.386-0.295-0.292-0.060-0.293-0.060-0.208 0.070s0.323 0.283 0.441 0.283c0.034-0 0.103-0.026 0.153-0.058zM13.41 29.745c-0.084-0.066-0.174-0.12-0.199-0.121-0.092-0.003-0.043-0.124 0.050-0.124 0.080 0 0.074-0.032-0.035-0.184-0.215-0.302-0.304-0.226-0.155 0.133 0.033 0.080 0.003 0.108-0.131 0.126-0.169 0.023-0.166 0.027 0.102 0.156 0.152 0.073 0.331 0.133 0.398 0.133 0.112-0 0.11-0.010-0.031-0.12zM19.256 28.759c0.213-0.168 0.146-0.258-0.168-0.226-0.139 0.014-0.326 0.006-0.415-0.019-0.134-0.037-0.173-0.019-0.229 0.102-0.064 0.141-0.057 0.147 0.162 0.148 0.126 0 0.27 0.028 0.32 0.060 0.127 0.082 0.146 0.078 0.329-0.066zM17.282 28.6c0.362-0.038 0.454-0.104 0.241-0.171-0.16-0.051-0.658 0.082-0.755 0.2-0.067 0.083-0.062 0.090 0.039 0.052 0.065-0.024 0.278-0.061 0.475-0.081zM23.14 26.952c0.215-0.088 0.486-0.314 0.437-0.363-0.046-0.046-0.804 0.263-0.86 0.351-0.123 0.193-0.028 0.196 0.423 0.012zM7.915 26.552c-0.162-0.299-0.458-0.608-0.58-0.608-0.032 0-0.015 0.065 0.037 0.145s0.078 0.188 0.058 0.241c-0.028 0.072-0.007 0.088 0.083 0.065 0.086-0.023 0.178 0.038 0.327 0.218 0.114 0.137 0.216 0.25 0.226 0.25s-0.057-0.139-0.15-0.31zM26.125 26.502c0.064-0.071 0.098-0.147 0.076-0.169-0.047-0.047-0.271 0.144-0.358 0.305-0.052 0.097-0.045 0.104 0.052 0.052 0.062-0.033 0.165-0.118 0.229-0.189zM27.003 26.245c0.229-0.087 0.155-0.168-0.123-0.134-0.153 0.019-0.32 0.089-0.406 0.172l-0.145 0.14 0.268-0.062c0.147-0.034 0.33-0.086 0.406-0.115zM4.215 23.676c0-0.165 0.107-0.208 0.153-0.062 0.043 0.137 0.154 0.169 0.154 0.044 0-0.044-0.11-0.184-0.245-0.312s-0.245-0.271-0.245-0.319c0-0.048-0.028-0.087-0.061-0.087-0.082 0-0.078 0.062 0.038 0.523 0.092 0.365 0.207 0.483 0.207 0.213zM27.386 22.9c0-0.056 0.044-0.151 0.098-0.211s0.079-0.139 0.056-0.176c-0.025-0.040-0.090 0.027-0.159 0.162-0.133 0.26-0.144 0.327-0.056 0.327 0.034 0 0.061-0.046 0.061-0.102zM27.377 22.389c0.177 0 0.347-0.549 0.198-0.64-0.087-0.054-0.247 0.029-0.32 0.165-0.050 0.093-0.046 0.135 0.014 0.173s0.018 0.108-0.16 0.277c-0.235 0.222-0.236 0.225-0.046 0.126 0.107-0.055 0.248-0.1 0.314-0.1zM4.95 22.091c-0-0.121-0.315-0.787-0.453-0.959-0.093-0.116-0.096-0.116-0.057-0.005 0.023 0.065 0.106 0.251 0.184 0.413s0.143 0.392 0.143 0.509c0 0.164 0.021 0.205 0.092 0.178 0.051-0.019 0.092-0.081 0.092-0.136zM5.257 21.592c0-0.067-0.012-0.123-0.026-0.123s-0.070-0.017-0.125-0.038c-0.086-0.033-0.090-0.017-0.026 0.123 0.087 0.191 0.176 0.21 0.176 0.038zM3.964 20.427c0.002-0.084-0.025-0.195-0.059-0.245-0.045-0.067-0.052-0.031-0.024 0.131 0.023 0.131 0.012 0.239-0.026 0.262-0.035 0.022-0.047 0.085-0.025 0.14 0.034 0.089 0.044 0.087 0.085-0.017 0.025-0.065 0.048-0.187 0.050-0.271zM29.287 19.805c0-0.16-0.092-0.14-0.243 0.051-0.098 0.124-0.11 0.175-0.052 0.211 0.099 0.061 0.294-0.113 0.294-0.262zM5.165 7.332c0.132-0.051 0.223-0.295 0.167-0.446-0.038-0.101-0.070-0.073-0.213 0.183-0.165 0.297-0.158 0.341 0.046 0.263zM6.043 6.818c0.221-0.056 0.253-0.083 0.192-0.156-0.122-0.147-0.451-0.108-0.632 0.073-0.207 0.207-0.205 0.275 0.007 0.206 0.093-0.030 0.288-0.086 0.434-0.123zM6.685 6.391c-0.047-0.179-0.123-0.151-0.153 0.057-0.023 0.155-0.012 0.172 0.079 0.123 0.067-0.036 0.094-0.101 0.074-0.18zM26.016 5.551c-0.017-0.017-0.090-0.012-0.163 0.011l-0.132 0.042 0.286 0.306 0.020-0.165c0.011-0.091 0.006-0.178-0.011-0.195zM8.567 5.441c0-0.014-0.034-0.045-0.077-0.069s-0.056-0.022-0.032 0.006c0.025 0.027-0.003 0.088-0.061 0.136-0.095 0.077-0.092 0.079 0.032 0.019 0.076-0.037 0.138-0.078 0.138-0.092zM9.048 5.167c0.227-0.065 0.769-0.367 0.73-0.407-0.046-0.046-0.72 0.113-0.72 0.17 0 0.031-0.083 0.085-0.184 0.12-0.184 0.064-0.252 0.175-0.107 0.175 0.042 0 0.169-0.026 0.281-0.059zM9.183 4.462c-0.040-0.049-0.113-0.073-0.161-0.055-0.144 0.055-0.099 0.143 0.073 0.143 0.133 0 0.148-0.015 0.087-0.088zM9.949 3.154c-0.036-0.036-0.545 0.238-0.693 0.372-0.273 0.25-0.13 0.219 0.288-0.063 0.234-0.158 0.416-0.297 0.404-0.309zM21.394 3.039c-0.042-0.017-0.111-0.017-0.153 0s-0.008 0.031 0.077 0.031c0.084 0 0.119-0.014 0.077-0.031zM10.195 2.867c0.103-0.078 0.105-0.090 0.017-0.092-0.056-0.001-0.153-0.018-0.215-0.038-0.085-0.028-0.092-0.022-0.028 0.024 0.046 0.033 0.066 0.091 0.042 0.128-0.060 0.097 0.043 0.084 0.183-0.022zM17.442 2.111c0.582 0.015 0.689 0.004 0.674-0.072-0.018-0.092-0.449-0.367-0.578-0.368-0.041-0-0.057 0.051-0.039 0.121 0.048 0.182-0.12 0.214-0.525 0.1-0.393-0.11-0.745-0.13-0.745-0.042 0 0.032 0.090 0.066 0.199 0.077 0.3 0.029 0.239 0.139-0.089 0.16-0.205 0.013-0.279 0.041-0.258 0.098 0.025 0.064 0.091 0.063 0.349-0.006 0.208-0.055 0.56-0.079 1.010-0.067zM9.364 26.231c-0.084-0.044-0.275-0.161-0.425-0.26-0.203-0.135-0.244-0.185-0.162-0.201 0.062-0.012 0.2 0.067 0.318 0.181 0.115 0.111 0.284 0.236 0.377 0.277s0.141 0.077 0.107 0.079c-0.034 0.003-0.13-0.032-0.215-0.076zM24.346 25.34c0.064-0.072 0.142-0.131 0.172-0.131 0.086 0-0.005 0.114-0.154 0.192-0.134 0.070-0.134 0.070-0.018-0.061zM2.753 22.083c0-0.084 0.014-0.119 0.031-0.077s0.017 0.111 0 0.153c-0.017 0.042-0.031 0.008-0.031-0.077zM2.161 19.631c-0.021-0.034-0.009-0.061 0.027-0.061s0.065 0.028 0.065 0.061c0 0.034-0.012 0.061-0.027 0.061s-0.044-0.028-0.065-0.061zM3.634 16.506c-0.082-0.090-0.1-0.179-0.073-0.347 0.048-0.293 0.121-0.363 0.247-0.236 0.141 0.141 0.126 0.705-0.019 0.705-0.025 0-0.095-0.055-0.155-0.121zM29.658 14.686c0.004-0.993 0.066-1.024 0.185-0.095 0.070 0.55 0.026 0.933-0.115 0.979-0.055 0.018-0.073-0.202-0.070-0.885zM30.216 13.807c0-0.084 0.014-0.119 0.031-0.077s0.017 0.111 0 0.153c-0.017 0.042-0.031 0.008-0.031-0.077zM29.838 13.531c0-0.051 0.028-0.092 0.061-0.092s0.061 0.041 0.061 0.092c0 0.051-0.028 0.092-0.061 0.092s-0.061-0.041-0.061-0.092zM29.279 12.198c0.014-0.143 0.039-0.219 0.056-0.169s0.068 0.168 0.115 0.261c0.081 0.16 0.078 0.169-0.056 0.169-0.129 0-0.139-0.022-0.115-0.261zM28.981 11.742c0-0.027 0.028-0.091 0.060-0.142 0.051-0.079 0.060-0.078 0.060 0.012 0 0.057-0.027 0.121-0.060 0.142s-0.061 0.016-0.060-0.012zM28.529 11.589c-0.052-0.194-0.049-0.234 0.017-0.234 0.085 0 0.148 0.249 0.080 0.317-0.038 0.038-0.073 0.008-0.097-0.083zM28.796 11.158c0-0.018-0.042-0.133-0.093-0.255s-0.077-0.222-0.058-0.222c0.054 0 0.224 0.438 0.185 0.477-0.019 0.019-0.034 0.019-0.034 0.001zM26.232 7.46c-0.039-0.086-0.070-0.19-0.069-0.23s0.043 0.020 0.093 0.135c0.105 0.241 0.083 0.329-0.024 0.095zM7.766 7.105c0.156-0.172 0.19-0.193 0.187-0.118-0.001 0.025-0.077 0.099-0.169 0.164l-0.167 0.118zM26.206 7.022c-0.059-0.015-0.107-0.072-0.107-0.125 0-0.084 0.017-0.082 0.123 0.014 0.104 0.094 0.16 0.171 0.107 0.146-0.008-0.004-0.064-0.020-0.123-0.035zM9.514 5.872c0.065-0.052 0.146-0.095 0.179-0.095 0.078 0 0.043 0.028-0.145 0.118-0.145 0.069-0.146 0.068-0.034-0.022zM9.729 5.26c0.044-0.053 0.151-0.096 0.238-0.096 0.194 0 0.111 0.090-0.138 0.149-0.158 0.037-0.17 0.031-0.1-0.053zM10.39 5.156c0.042-0.042 0.091-0.061 0.11-0.042s-0.015 0.053-0.076 0.076c-0.087 0.033-0.094 0.026-0.034-0.034zM10.958 4.827c-0.095-0.115-0.017-0.115 0.184 0 0.144 0.083 0.146 0.088 0.023 0.090-0.072 0.001-0.165-0.039-0.207-0.090zM12.368 3.82c0-0.031-0.017-0.1-0.037-0.153-0.028-0.073 0.002-0.097 0.117-0.097 0.142 0 0.149 0.012 0.083 0.153-0.070 0.151-0.163 0.207-0.163 0.097zM14.636 3.693c0.051-0.033 0.188-0.057 0.306-0.054 0.197 0.005 0.202 0.009 0.061 0.054-0.084 0.027-0.222 0.051-0.306 0.054-0.12 0.004-0.134-0.008-0.061-0.054zM19.836 3.623c-0.144-0.053-0.275-0.218-0.217-0.275 0.011-0.011 0.115 0.060 0.231 0.16 0.23 0.196 0.229 0.204-0.014 0.116zM15.739 3.016c-0.144-0.038-0.14-0.043 0.061-0.077 0.416-0.071 0.768-0.086 0.95-0.041 0.129 0.032 0.035 0.047-0.317 0.052-0.275 0.004-0.51 0.030-0.521 0.057s-0.089 0.032-0.174 0.009z"></path>
</svg>
