<!-- Generated by IcoMoon.io -->
<svg version="1.1" xmlns="http://www.w3.org/2000/svg" width="32" height="32" viewBox="0 0 32 32">
<title>left_behind</title>
<path d="M21.158 10.089c-0.026-0.043-0.049-0.098-0.083-0.135-0.089-0.103-0.124-0.121-0.193-0.253-0.080-0.158-0.161-0.302-0.241-0.463-0.060-0.126-0.167-0.405-0.328-0.443-0.069-0.014-0.187 0.003-0.253 0.009-0.161 0.017-0.296 0.069-0.457 0.017-0.149-0.046-0.305-0.121-0.44-0.207-0.095-0.063-0.161-0.158-0.259-0.216-0.135 0.083-0.098 0.325-0.155 0.445-0.052 0.112-0.149 0.193-0.193 0.31-0.040 0.103-0.069 0.167-0.138 0.253-0.233 0.284-0.411 0.589-0.563 0.922-0.086 0.193-0.195 0.376-0.282 0.569-0.075 0.167-0.095 0.316-0.207 0.463-0.118 0.152-0.27 0.284-0.379 0.443-0.055 0.083-0.095 0.164-0.161 0.239-0.101 0.115-0.17 0.213-0.293 0.293-0.141 0.089-0.287 0.158-0.428 0.244-0.020 0.014-0.040 0.026-0.057 0.040 0.017-0.009 0.034-0.014 0.055-0.023-0.115 0.057-0.164 0.204-0.247 0.296-0.057 0.060-0.124 0.147-0.184 0.201-0.118 0.106-0.287 0.138-0.379 0.282 0.144 0.103-0.451 0.566-0.572 0.658-0.118 0.089-0.184 0.187-0.276 0.299-0.069 0.083-0.167 0.158-0.241 0.239-0.106 0.106-0.233 0.201-0.342 0.31-0.075 0.072-0.124 0.089-0.201 0.138-0.055 0.034-0.049 0.052-0.083 0.103-0.032 0.052-0.086 0.112-0.106 0.167-0.055 0.138-0.066 0.305-0.089 0.445-0.040 0.259-0.184 0.388-0.376 0.532-0.103 0.075-0.195 0.141-0.267 0.25-0.049 0.075-0.083 0.161-0.132 0.236-0.109 0.158-0.241 0.264-0.376 0.399s-0.273 0.273-0.408 0.408c-0.152 0.155-0.345 0.256-0.526 0.391-0.193 0.147-0.379 0.305-0.569 0.46-0.221 0.181-0.497 0.328-0.704 0.526-0.055 0.055-0.101 0.115-0.144 0.178-0.132 0.466-0.31 0.911-0.647 1.302-0.486 0.569-1 1.19-1.514 1.724-0.21 0.221-0.494 0.319-0.753 0.466-0.428 0.247-0.322 0.325-0.532 0.693-0.034 0.063-0.069 0.121-0.106 0.175-0.115 0.382-0.319 0.672-0.647 0.991-0.46 0.445-0.701 1.032-1.155 1.477-0.241 0.236-0.532 0.362-0.807 0.546-0.273 0.184-0.414 0.368-0.572 0.583-0.017 0.080-0.040 0.109-0.101 0.19-0.152 0.207-0.264 0.445-0.425 0.641-0.075 0.092-0.149 0.195-0.224 0.284-0.060 0.072-0.164 0.072-0.241 0.132-0.083 0.066-0.17 0.101-0.253 0.172-0.158 0.141-0.284 0.293-0.428 0.448 0.063 0.086 0.184 0.014 0.27 0.046 0.118 0.043 0.241 0.193 0.307 0.29 0.141 0.21 0.307 0.422 0.486 0.601 0.112 0.115 0.224 0.259 0.379 0.316 0.057 0.023 0.086 0.020 0.147 0.023 0.101 0.006 0.106 0.026 0.184 0.075 0.095 0.057 0.138 0.043 0.227 0.135 0.083 0.089 0.161 0.187 0.25 0.273 0.109 0.106 0.236 0.184 0.379 0.23 0.078 0.026 0.152 0.049 0.23 0.072 0.572-0.566 1.264-1.032 1.945-1.486 0.144-0.147 0.29-0.302 0.405-0.466 0.101-0.141 0.132-0.167 0.141-0.296 0.014-0.204 0.037-0.529 0.198-0.684 0.259-0.247 0.555-0.497 0.713-0.825 0.046-0.089 0.106-0.17 0.161-0.262 0.152-0.259 0.348-0.503 0.517-0.75 0.124-0.181 0.259-0.356 0.385-0.54 0.046-0.066 0.092-0.135 0.135-0.204 0.080-0.138 0.141-0.284 0.187-0.44 0.043-0.089 0.057-0.158 0.124-0.241 0.072-0.086 0.132-0.17 0.198-0.262 0.118-0.167 0.259-0.316 0.385-0.474 0.233-0.29 0.382-0.552 0.543-0.879 0.080-0.161 0.158-0.325 0.256-0.477 0.23-0.356 0.534-0.549 0.865-0.83 0.353-0.302 0.704-0.618 1.026-0.954 0.247-0.256 0.313-0.368 0.468-0.629 0.069-0.112 0.178-0.19 0.276-0.279 0.083-0.078 0.112-0.083 0.193-0.124 0.109-0.055 0.21-0.144 0.313-0.21 0.284-0.181 0.549-0.333 0.718-0.635 0.141-0.25 0.187-0.517 0.371-0.744 0.109-0.138 0.224-0.267 0.342-0.397 0.29-0.316 0.56-0.647 0.819-0.988 0.106-0.141 0.155-0.313 0.305-0.408 0.21-0.138 0.388-0.33 0.578-0.497 0.256-0.227 0.555-0.411 0.793-0.655 0.236-0.239 0.483-0.549 0.638-0.845 0.049-0.095 0.126-0.216 0.155-0.319 0.020-0.066 0-0.132 0.020-0.201 0.034-0.115 0.121-0.261 0.167-0.371 0.132-0.31 0.307-0.589 0.54-0.839 0.259-0.276 0.422-0.635 0.698-0.891 0.098-0.095 0.221-0.149 0.322-0.25 0.078-0.080 0.129-0.184 0.204-0.25 0.109-0.089 0.213-0.198 0.319-0.296 0.072-0.066 0.144-0.138 0.218-0.198 0.014-0.011 0.057-0.032 0.075-0.049 0.040-0.046 0.043-0.115 0.089-0.158 0.023-0.023 0.063-0.029 0.086-0.049 0.049-0.046 0.086-0.129 0.121-0.187 0.052-0.086 0.089-0.19 0.152-0.264-0.029 0.020-0.175 0.098-0.21 0.083-0.034-0.011-0.103-0.152-0.129-0.193z"></path>
<path d="M27.017 14.146c0.040 0.052 0.080 0.103 0.118 0.158 0.029 0.040 0.055 0.080 0.080 0.124 0.026 0.040 0.052 0.080 0.078 0.124 0.052 0.089 0.098 0.181 0.144 0.284 0.431 0.98 0.816 1.94 1.353 2.871 0.129 0.221 0.253 0.443 0.374 0.667 0.029 0.052 0.055 0.103 0.080 0.155 0.098 0.187 0.19 0.371 0.279 0.557 0.014 0.034 0.032 0.069 0.049 0.103 0.006 0.011 0.011 0.023 0.017 0.034 0.063 0.144 0.124 0.287 0.181 0.434 0.017 0.037 0.029 0.075 0.043 0.115 0.040 0.106 0.080 0.21 0.115 0.316 0.017 0.052 0.032 0.103 0.049 0.155 0.029 0.098 0.057 0.195 0.083 0.293 0.014 0.055 0.026 0.106 0.040 0.161 0.069 0.293 0.118 0.592 0.141 0.894 0.014 0.026 0.034 0.046 0.046 0.072 0.089 0.158 0.167 0.356 0.276 0.497 0.006 0.006 0.009 0.011 0.014 0.017 0.014 0.101 0.032 0.227 0.080 0.279 0.023-0.029 0.037-0.060 0.052-0.095 0 0.003 0.003 0.003 0.003 0.006 0.020 0.034 0.032 0.083 0.075 0.086 0.037-0.106 0.006-0.273 0.006-0.388v-0.385c0.003-0.003 0.003-0.006 0.003-0.009 0.023-0.161-0.003-0.342 0-0.506 0.003-0.284-0.092-0.535-0.126-0.813-0.029-0.23-0.098-0.451-0.126-0.678-0.014-0.129-0.072-0.25-0.124-0.365-0.037-0.164-0.043-0.336-0.066-0.503-0.060-0.402-0.106-0.81-0.218-1.204-0.098-0.345-0.207-0.687-0.279-1.037-0.029-0.135-0.086-0.264-0.092-0.399-0.014-0.216-0.164-0.437-0.262-0.626-0.118-0.233-0.262-0.451-0.371-0.687-0.072-0.161-0.138-0.325-0.221-0.483-0.124-0.23-0.25-0.468-0.382-0.698-0.003-0.014-0.003-0.029-0.006-0.043-0.037-0.175-0.121-0.33-0.215-0.48-0.006-0.020-0.011-0.037-0.020-0.057-0.037-0.118-0.075-0.233-0.112-0.348-0.040-0.118-0.052-0.244-0.101-0.359-0.112-0.253-0.322-0.463-0.483-0.681-0.161-0.216-0.299-0.448-0.451-0.667-0.083-0.299-0.181-0.595-0.325-0.879-0.014-0.029-0.029-0.057-0.043-0.086-0.037-0.066-0.060-0.138-0.072-0.213-0.086-0.144-0.388-0.33-0.463-0.385-0.282-0.216-0.517-0.405-0.736-0.684-0.172-0.221-0.376-0.414-0.606-0.58-0.121-0.083-0.181-0.075-0.325-0.069-0.256 0.009-0.54 0.029-0.793-0.006-0.141-0.020-0.184-0.086-0.27-0.184-0.164-0.193-0.256-0.445-0.408-0.647-0.069-0.092-0.158-0.172-0.233-0.264-0.138-0.164-0.241-0.356-0.379-0.523-0.147-0.175-0.29-0.356-0.477-0.494-0.201-0.149-0.273-0.158-0.523-0.149-0.178 0.003-0.284 0.011-0.399-0.138-0.152-0.201-0.299-0.402-0.448-0.603-0.322-0.431-0.879-0.514-1.397-0.586-0.086-0.055-0.172-0.124-0.273-0.129-0.006-0.135-0.175-0.247-0.273-0.322-0.055-0.043-0.121-0.109-0.187-0.126-0.060-0.014-0.092-0.006-0.147-0.043-0.098-0.066-0.172-0.195-0.259-0.279-0.040-0.037-0.115-0.17-0.167-0.181-0.089-0.017-0.17 0.124-0.264 0.112-0.098-0.011-0.17-0.195-0.21-0.267-0.046 0.014-0.055 0.069-0.103 0.086-0.124-0.126-0.204-0.29-0.336-0.411-0.006 0.023-0.017 0.046-0.029 0.066-0.060-0.046-0.066-0.124-0.106-0.178-0.023-0.032-0.055-0.055-0.080-0.083-0.103 0.078-0.201-0.078-0.262-0.141-0.106-0.112-0.121-0.187-0.273-0.155-0.313 0.066-0.598 0.017-0.911-0.032-0.109-0.086-0.221-0.17-0.342-0.244-0.316-0.195-0.67-0.362-1.011-0.511-0.293-0.132-0.606-0.23-0.908-0.342-0.017-0.006-0.034-0.011-0.052-0.017-0.491 0.043-0.977 0.020-1.371-0.264-0.043 0.014-0.086 0.029-0.138 0.037-0.080 0.011-0.158 0.009-0.233-0.006-0.276 0.092-0.557 0.072-0.822-0.023-0.129 0.049-0.276 0.046-0.408 0.017-0.080-0.020-0.155-0.057-0.218-0.109-0.201 0.144-0.468 0.167-0.704 0.049-0.126 0.129-0.267 0.247-0.405 0.351-0.399 0.307-0.629 0.555-0.79 1.003-0.080 0.060-0.155 0.132-0.23 0.195-0.089 0.075-0.138 0.152-0.207 0.247-0.124 0.167-0.172 0.342-0.239 0.534-0.011 0.034-0.072 0.178-0.046 0.224 0.032 0.055 0.069 0.037 0.126 0.037 0.138-0.003 0.259 0 0.391-0.032 0.158-0.037 0.287-0.055 0.445-0.052 0.060 0 0.115 0.003 0.175-0.009 0.132-0.029 0.239-0.023 0.376-0.032 0.141-0.006 0.233-0.069 0.356-0.011 0.158 0.072 0.313 0.095 0.491 0.095 0.345-0.006 0.701 0.034 1.034-0.034 0.072-0.014 0.138-0.009 0.204 0.003 0.009 0.006 0.017 0.017 0.026 0.026 0.244 0.224 0.598 0.374 0.782 0.664 0.049 0.075 0.072 0.158 0.147 0.213 0.089 0.069 0.201 0.037 0.319 0.037 0.325 0 0.649-0.011 0.971 0 0.227 0.006 0.454 0.057 0.67 0.124 0.066 0.023 0.129 0.046 0.19 0.083 0.118 0.069 0.23 0.175 0.342 0.256 0.089 0.060 0.138 0.089 0.21 0.158 0.253 0.25 0.661 0.195 0.986 0.279 0.247 0.063 0.489 0.161 0.736 0.221 0.167 0.043 0.236 0.046 0.299 0.204 0.049 0.112 0.092 0.161 0.227 0.161 0.138 0.003 0.276 0.043 0.394 0.124 0.069 0.049 0.144 0.129 0.218 0.161 0.052 0.020 0.155 0.032 0.21 0.043 0.118 0.020 0.083 0.020 0.155 0.126 0.052 0.072 0.124 0.129 0.17 0.204 0.072 0.121 0.141 0.244 0.201 0.371 0.164-0.003 0.322-0.080 0.488-0.078 0.075 0 0.152-0.009 0.227 0.003 0.072 0.011 0.135 0.052 0.195 0.069 0.046 0.014 0.109-0.011 0.121 0.049 0.009 0.049-0.069 0.089-0.089 0.124-0.063 0.109-0.141 0.282-0.161 0.405 0.195 0.132 0.477 0.138 0.69 0.244 0.19 0.098 0.425 0.201 0.635 0.221 0.115 0.011 0.296 0.075 0.397 0.132 0.080 0.043 0.135 0.103 0.201 0.164 0.040 0.037 0.109 0.055 0.141 0.095 0.026 0.029 0.023 0.063 0.040 0.098 0.066 0.138 0.201 0.241 0.279 0.376 0.014 0.026 0.017 0.057 0.029 0.080 0.023 0.037 0.086 0.078 0.115 0.115 0.060 0.072 0.109 0.155 0.164 0.233 0.049 0.066 0.101 0.095 0.144 0.155 0.072 0.103 0.152 0.29 0.17 0.414 0.009 0.066-0.014 0.147 0.055 0.19 0.078 0.049 0.175-0.020 0.25-0.034s0.167 0.003 0.244 0.003c0.121 0 0.241-0.003 0.362-0.003 0.089 0.003 0.164 0.020 0.25 0.034 0.063 0.009 0.149-0.009 0.204 0.017-0.003 0.020-0.011 0.029-0.029 0.029 0.112 0.057 0.236 0.098 0.348 0.152 0.147 0.075 0.293 0.195 0.425 0.293 0.129 0.095 0.27 0.175 0.394 0.279 0.089 0.080 0.213 0.098 0.305 0.167 0.060 0.046 0.124 0.135 0.17 0.195 0.040 0.052 0.086 0.109 0.086 0.178-0.003 0.066-0.052 0.115-0.046 0.184 0.006 0.164 0.307 0.21 0.414 0.316 0.101 0.101 0.207 0.233 0.284 0.351 0.075 0.112 0.049 0.259 0.060 0.394 0.118 0.046 0.227 0.126 0.316 0.253 0.267 0.385 0.563 0.667 0.839 0.977 0.055 0.060 0.109 0.124 0.164 0.19 0.017 0.020 0.032 0.040 0.046 0.060z"></path>
<path d="M28.582 19.793c-0.009 0.034-0.023 0.066-0.034 0.098 0.003 0.009 0.006 0.014 0.009 0.023 0.006-0.037 0.014-0.075 0.026-0.121z"></path>
<path d="M28.964 24.198c-0.017-0.060-0.026-0.144-0.052-0.201-0.023-0.055-0.080-0.098-0.115-0.149-0.172-0.262-0.175-0.557-0.175-0.862 0-0.161 0.014-0.282-0.052-0.42-0.034-0.069-0.069-0.147-0.103-0.224-0.046-0.106-0.043-0.21-0.049-0.325-0.006-0.126-0.046-0.238-0.043-0.371 0.003-0.147-0.043-0.204-0.112-0.33-0.078-0.135-0.147-0.238-0.138-0.405 0.009-0.141 0.098-0.296 0.152-0.422 0.092-0.204 0.195-0.394 0.27-0.601-0.017-0.052-0.037-0.103-0.057-0.129-0.098-0.124-0.207-0.247-0.262-0.399-0.069-0.201-0.124-0.428-0.184-0.638-0.049-0.175-0.095-0.374-0.124-0.557-0.017-0.115-0.026-0.241-0.083-0.342 0 0.126 0.043 0.224 0.043 0.351-0.003 0.126 0 0.256 0 0.382v0.753c0 0.213 0.011 0.425 0.006 0.635-0.009 0.227-0.098 0.388-0.167 0.598-0.057 0.175-0.066 0.391-0.040 0.575 0.029 0.215 0.121 0.397 0.118 0.615-0.003 0.201-0.009 0.408-0.003 0.609 0.006 0.155 0.034 0.388 0.095 0.529 0.066 0.152 0.147 0.31 0.158 0.48 0.011 0.178 0.017 0.382-0.009 0.557-0.023 0.144-0.075 0.267-0.080 0.414-0.009 0.402 0.057 0.813-0.069 1.198-0.026 0.080-0.069 0.164-0.083 0.247-0.011 0.060 0 0.118-0.017 0.175-0.040 0.144-0.115 0.287-0.164 0.428-0.066 0.187-0.161 0.342-0.158 0.543 0 0.083 0 0.167 0 0.25 0 0.095-0.029 0.259 0.006 0.353 0.037 0.101 0.17 0.227 0.273 0.241 0.19 0.026 0.422 0.014 0.606-0.032 0.132-0.032 0.282-0.040 0.397-0.121 0.106-0.078 0.080-0.187 0.080-0.305 0-0.106 0.017-0.224 0.003-0.328-0.017-0.101-0.046-0.178-0.043-0.284 0-0.115 0-0.23 0-0.345-0.003-0.132 0.040-0.25 0.040-0.382 0-0.149 0.043-0.282 0.040-0.434 0-0.121 0.006-0.221 0.034-0.33 0.052-0.23 0.17-0.411 0.124-0.664-0.023-0.112-0.032-0.227-0.063-0.333z"></path>
<path d="M28.585 20.083c0.003-0.040-0.011-0.106-0.029-0.172-0.080 0.385 0.023 0.259 0.029 0.172z"></path>
<path d="M25.032 12.675c-0.046-0.138-0.138-0.284-0.124-0.434-0.020 0.466 0.089 0.566 0.124 0.641 0.040 0.078 0.083 0.167 0.124 0.25 0.034 0.075 0.060 0.149 0.086 0.227 0-0.011-0.003-0.023-0.003-0.034 0-0.236-0.132-0.431-0.207-0.649z"></path>
<path d="M25.777 15.388c0.009-0.322-0.158-0.589-0.207-0.897-0.014-0.086-0.009-0.089-0.049-0.187-0.080-0.181-0.080-0.382-0.158-0.566-0.052-0.126-0.083-0.256-0.124-0.382 0.003 0.201 0.017 0.408 0.006 0.609-0.011 0.244-0.103 0.517-0.161 0.75-0.029 0.112-0.029 0.267 0.020 0.374 0.026 0.055 0.052 0.101 0.072 0.161 0.032 0.080 0.037 0.181 0.063 0.259 0.023 0.063 0.046 0.141 0.086 0.198s0.069 0.078 0.080 0.147c0.003 0.011 0.003 0.026 0.003 0.037 0.014-0.063 0.060-0.092 0.126-0.149 0.138-0.118 0.236-0.17 0.241-0.353z"></path>
<path d="M25.408 15.891c-0.006 0.026-0.009 0.055-0.003 0.095 0-0.032 0.003-0.063 0.003-0.095z"></path>
<path d="M26.087 22.123c-0.034-0.103-0.052-0.178-0.066-0.287-0.014-0.086-0.023-0.187-0.046-0.27-0.029-0.101-0.075-0.164-0.075-0.279-0.003-0.103 0-0.207 0-0.307v-0.319c0-0.083 0.020-0.23-0.009-0.307-0.095 0.072-0.075 0.279-0.075 0.394 0 0.132 0.026 0.299 0.003 0.431-0.040 0.218-0.207 0.405-0.21 0.638l0.167-0.207c-0.020 0.109-0.098 0.221-0.138 0.325-0.034 0.092-0.020 0.115 0.003 0.213 0.017 0.060 0 0.121 0.014 0.181 0.014 0.066 0.037 0.089 0.037 0.172 0 0.069-0.014 0.158 0 0.224 0.020 0.098 0.029 0.080 0.132 0.080 0.126 0 0.141-0.003 0.23-0.095 0.034-0.034 0.080-0.063 0.095-0.109s0.003-0.138-0.006-0.187c-0.017-0.089-0.029-0.204-0.057-0.29z"></path>
<path d="M30.745 24.833c-0.307-0.394-0.17-0.888-0.273-1.339-0.023-0.103-0.103-0.181-0.155-0.273-0.083-0.138-0.193-0.302-0.241-0.457-0.034-0.112-0.046-0.195-0.049-0.313 0-0.003 0-0.006 0-0.009-0.003 0.23-0.003 0.46 0 0.69 0 0.213-0.037 0.457 0.040 0.086 0.032 0.19-0.072 0.46-0.124 0.641-0.066 0.241-0.103 0.488-0.224 0.713-0.072 0.132-0.121 0.221-0.109 0.374 0.009 0.103 0.066 0.313 0.175 0.368 0.106 0.055 0.345 0.009 0.471 0.009 0.083 0 0.181 0.014 0.262-0.006 0.227-0.066 0.382-0.284 0.227-0.483z"></path>
<path d="M29.982 22.158c0.006 0.101 0.037 0.187 0.043 0.284v-0.052c0-0.078 0.032-0.181-0.043-0.233z"></path>
<path d="M24.715 18.856c-0.034-0.164-0.098-0.316-0.149-0.474-0.026-0.075-0.046-0.095-0.078-0.155-0.049-0.089-0.063-0.193-0.092-0.29-0.057-0.175-0.121-0.353-0.144-0.535-0.014-0.118-0.026-0.236-0.049-0.353-0.034-0.158-0.026-0.322-0.069-0.477-0.020-0.080-0.034-0.161-0.066-0.241-0.057-0.152-0.158-0.273-0.193-0.431-0.017-0.078-0.037-0.138-0.040-0.218 0-0.055 0.032-0.164-0.032-0.181-0.040 0.101-0.003 0.239-0.017 0.345-0.023 0.184-0.075 0.353-0.075 0.537 0 0.149-0.037 0.362-0.003 0.5 0.017 0.063 0.060 0.066 0.083 0.124 0.020 0.049 0.003 0.135 0.003 0.187 0 0.095-0.040 0.305 0.083 0.124-0.003 0.089 0.003 0.175 0 0.264 0 0.155-0.052 0.27-0.078 0.42-0.014 0.089 0.003 0.172-0.003 0.262-0.009 0.106-0.046 0.218-0.086 0.313-0.098 0.247-0.118 0.503-0.032 0.753 0.057 0.164 0.201 0.316 0.233 0.497 0.037 0.201-0.106 0.353-0.149 0.54-0.040 0.164-0.009 0.356-0.009 0.526 0 0.080-0.009 0.164-0.003 0.241 0.006 0.072 0.043 0.126 0.063 0.187 0.043 0.118 0.046 0.543 0.244 0.42 0.066-0.043 0.184-0.126 0.215-0.195 0.032-0.063 0.011-0.147 0.020-0.215 0.040-0.27 0.187-0.488 0.267-0.738 0.063-0.193 0.152-0.345 0.221-0.529 0.046-0.126 0.121-0.227 0.147-0.351 0.029-0.144-0.078-0.325-0.126-0.474-0.037-0.124-0.063-0.253-0.089-0.379z"></path>
<path d="M21.737 5.322c0.072 0.060 0.141 0.101 0.21 0.167 0.069 0.063 0.158 0.118 0.238 0.175 0.075 0.057 0.144 0.112 0.221 0.164 0.118 0.078 0.23 0.175 0.348 0.259 0.101 0.075 0.178 0.086 0.299 0.112 0.049 0.011 0.092 0.037 0.135 0.066 0.006 0.011 0.009 0.026 0.014 0.040 0.020 0.060 0.017 0.098 0.029 0.161 0.009 0.052 0.026 0.124 0.043 0.172 0.006 0.014 0.040 0.106 0.049 0.112 0.040 0.029 0.109 0.003 0.152 0.006 0.075 0.006 0.158 0.032 0.227 0.055 0.040 0.014 0.086 0.034 0.121 0.057 0.043 0.034 0.037 0.092 0.103 0.095 0.020-0.046 0.009-0.103 0.017-0.152 0.009-0.066 0.037-0.147 0.063-0.21 0.043-0.115 0.126-0.193 0.19-0.296 0.078-0.126 0.221-0.264 0.247-0.411 0.011-0.066 0.003-0.106 0.040-0.17 0.009-0.014 0.138-0.193 0.126-0.195-0.078-0.017-0.126-0.029-0.172-0.098-0.066-0.098-0.109-0.201-0.184-0.299-0.086-0.115-0.178-0.239-0.259-0.359-0.043-0.063-0.089-0.172-0.155-0.218-0.040-0.029-0.083-0.020-0.135-0.026-0.101-0.009-0.198-0.023-0.296-0.057-0.172-0.055-0.353-0.172-0.5-0.284-0.043-0.034-0.069-0.055-0.121-0.069-0.026-0.006-0.055 0.003-0.080 0-0.026-0.006-0.032-0.043-0.063-0.043-0.112-0.006-0.21 0.21-0.273 0.273-0.060 0.060-0.126 0.092-0.184 0.161-0.083 0.109-0.132 0.213-0.193 0.305-0.063 0.014-0.126 0.026-0.195 0.026-0.115 0-0.141-0.011-0.218 0.078-0.057 0.069-0.078 0.115-0.052 0.201 0.103-0.003 0.135 0.147 0.207 0.204z"></path>
</svg>
