<!-- Generated by IcoMoon.io -->
<svg version="1.1" xmlns="http://www.w3.org/2000/svg" width="32" height="32" viewBox="0 0 32 32">
<title>legendary</title>
<path d="M14.308 22.487l-0.45-0.513h-5.911c-4.46 0-5.983-0.052-6.202-0.214-0.204-0.149-0.393-0.817-0.629-2.222l-0.338-2.008 1.664-3.615c1.11-2.41 1.809-3.723 2.098-3.937 0.239-0.177 1.2-0.481 2.136-0.675 2.379-0.493 5.319-0.378 7.514 0.296 0.846 0.26 1.73 0.472 1.966 0.472s1.119-0.212 1.965-0.472c2.195-0.674 5.135-0.789 7.514-0.296 0.937 0.194 1.897 0.498 2.135 0.676 0.286 0.213 0.996 1.546 2.098 3.936l1.666 3.614-0.338 2.009c-0.236 1.406-0.425 2.073-0.629 2.223-0.22 0.161-1.743 0.214-6.202 0.214h-5.911l-0.45 0.513c-0.431 0.491-0.508 0.513-1.848 0.513s-1.417-0.021-1.848-0.513zM17.497 21.462l0.513-0.513h11.943l0.113-0.964c0.062-0.53 0.092-0.984 0.066-1.007s-0.547 0.062-1.158 0.191c-1.365 0.288-1.899 0.198-3.668-0.619-3.965-1.832-6.497-1.81-8.286 0.071-0.324 0.34-0.713 0.619-0.864 0.619s-0.54-0.279-0.864-0.619c-1.774-1.865-4.324-1.901-8.169-0.117-1.759 0.816-2.459 0.937-3.8 0.659-0.603-0.125-1.117-0.208-1.143-0.185s0.004 0.477 0.066 1.007l0.113 0.964h11.938l0.459 0.492c0.384 0.412 0.603 0.496 1.343 0.513 0.768 0.018 0.951-0.047 1.397-0.492zM7.148 17.345c3.387-1.463 5.607-1.612 7.563-0.508l0.932 0.526v-6.164l-0.47-0.188c-2.247-0.901-5.366-1.199-7.902-0.756-0.892 0.156-1.78 0.387-1.973 0.514-0.202 0.132-0.961 1.565-1.783 3.368-0.787 1.726-1.462 3.197-1.5 3.269-0.13 0.252 1.413 0.801 2.263 0.805 0.656 0.003 1.324-0.198 2.87-0.866zM29.627 17.872c0.406-0.184 0.708-0.394 0.67-0.466s-0.712-1.543-1.5-3.269c-0.823-1.803-1.581-3.236-1.783-3.368-0.193-0.127-1.081-0.358-1.973-0.514-2.536-0.443-5.655-0.145-7.902 0.756l-0.47 0.188v6.13l1.162-0.596c1.045-0.536 1.299-0.595 2.521-0.59 1.671 0.007 2.781 0.293 4.967 1.281 1.971 0.891 3.080 1.006 4.309 0.449z"></path>
</svg>
