<!-- Generated by IcoMoon.io -->
<svg version="1.1" xmlns="http://www.w3.org/2000/svg" width="32" height="32" viewBox="0 0 32 32">
<title>level_5</title>
<path d="M6.206 4.167c-3.366 2.828-5.508 7.080-5.508 11.833 0 8.515 6.871 15.418 15.346 15.418s15.346-6.903 15.346-15.418c0-4.526-1.941-8.597-5.033-11.418 2.241 2.325 3.606 5.412 3.606 8.8 0 7.23-6.219 13.091-13.891 13.091s-13.891-5.861-13.891-13.091c0-3.594 1.537-6.849 4.025-9.215zM16.117 32c-8.837 0-16-7.163-16-16s7.163-16 16-16c8.837 0 16 7.163 16 16s-7.163 16-16 16zM22.109 29.527c-0.964 0-1.745-0.781-1.745-1.745s0.781-1.745 1.745-1.745c0.964 0 1.745 0.781 1.745 1.745s-0.781 1.745-1.745 1.745zM5.527 26.327c-0.964 0-1.745-0.781-1.745-1.745s0.781-1.745 1.745-1.745c0.964 0 1.745 0.781 1.745 1.745s-0.781 1.745-1.745 1.745zM16.117 30.691c-0.964 0-1.745-0.781-1.745-1.745s0.781-1.745 1.745-1.745c0.964 0 1.745 0.781 1.745 1.745s-0.781 1.745-1.745 1.745zM26.473 26.327c-0.964 0-1.745-0.781-1.745-1.745s0.781-1.745 1.745-1.745c0.964 0 1.745 0.781 1.745 1.745s-0.781 1.745-1.745 1.745zM10.036 29.527c-0.964 0-1.745-0.781-1.745-1.745s0.781-1.745 1.745-1.745c0.964 0 1.745 0.781 1.745 1.745s-0.781 1.745-1.745 1.745z"></path>
</svg>
