<!-- Generated by IcoMoon.io -->
<svg version="1.1" xmlns="http://www.w3.org/2000/svg" width="32" height="32" viewBox="0 0 32 32">
<title>life_and_death</title>
<path d="M15.593 29.95c-0.083-0.044-0.286-0.109-0.451-0.144s-0.529-0.112-0.811-0.17c-0.281-0.059-0.619-0.173-0.751-0.254s-0.294-0.179-0.36-0.217c-0.066-0.039-0.276-0.166-0.467-0.282s-0.529-0.288-0.751-0.38c-0.223-0.093-0.473-0.214-0.555-0.27s-0.461-0.255-0.842-0.443c-0.38-0.188-0.773-0.42-0.872-0.515s-0.363-0.304-0.586-0.462c-1.582-1.125-1.872-1.412-2.441-2.414-0.21-0.37-0.467-0.775-0.571-0.901-0.215-0.26-0.608-1.061-0.698-1.425-0.079-0.318-0.319-0.675-0.872-1.296-0.41-0.46-0.466-0.554-0.635-1.075-0.102-0.314-0.234-0.679-0.292-0.811s-0.153-0.349-0.211-0.481c-0.123-0.282-0.347-0.629-0.616-0.953-0.239-0.288-0.585-0.994-0.678-1.387-0.039-0.163-0.15-0.456-0.247-0.652s-0.177-0.391-0.177-0.433c0-0.042-0.135-0.283-0.301-0.537s-0.301-0.482-0.301-0.507c0-0.026 0.067-0.185 0.148-0.354 0.262-0.544 0.407-1.422 0.453-2.751 0.031-0.889 0.067-1.265 0.138-1.443 0.053-0.132 0.098-0.312 0.1-0.399s0.1-0.358 0.218-0.601c0.592-1.216 0.655-1.319 0.998-1.618 0.215-0.188 0.397-0.415 0.491-0.614 0.082-0.173 0.248-0.423 0.369-0.555 0.249-0.273 0.481-0.694 0.569-1.032 0.211-0.807 0.301-1.063 0.527-1.498l0.253-0.486 0.588-0.1c0.323-0.055 0.831-0.128 1.129-0.162s0.771-0.121 1.052-0.194c0.45-0.116 0.669-0.132 1.833-0.133 1.309-0.001 1.325 0.001 1.623 0.156 0.165 0.086 0.368 0.177 0.451 0.202s0.204 0.092 0.271 0.15c0.467 0.41 1.168 0.791 1.715 0.933 0.398 0.103 1.534 0.106 1.756 0.005 0.098-0.045 0.106 0.029 0.112 1.086 0.004 0.623 0.030 1.647 0.058 2.276s0.078 2.102 0.112 3.276c0.034 1.174 0.089 2.404 0.122 2.735 0.089 0.87 0.243 5.34 0.255 7.394 0.003 0.568-0.15 2.775-0.2 2.867-0.032 0.060-0.084 0.386-0.116 0.725s-0.084 0.724-0.116 0.856c-0.033 0.132-0.060 0.367-0.061 0.521s-0.060 0.452-0.131 0.661c-0.115 0.339-0.133 0.542-0.154 1.824-0.019 1.124-0.004 1.535 0.066 1.863 0.049 0.231 0.071 0.439 0.048 0.461s-0.11 0.004-0.193-0.040zM17.304 29.658c-0.068-0.071-0.171-0.156-0.228-0.189-0.097-0.056-0.099-0.128-0.036-0.992 0.038-0.512 0.090-1.419 0.116-2.014s0.077-1.204 0.112-1.353c0.039-0.162 0.066-1.010 0.068-2.119 0.001-1.017 0.023-1.848 0.048-1.848s0.090 0.079 0.145 0.176c0.144 0.253 0.371 0.343 0.966 0.383 0.683 0.046 1.081-0.061 1.254-0.338 0.102-0.163 0.116-0.264 0.091-0.673-0.067-1.116-0.292-1.848-0.666-2.171-0.564-0.488-0.956-0.804-0.996-0.804-0.023 0-0.145-0.081-0.269-0.18-0.149-0.119-0.295-0.18-0.426-0.18h-0.199l0.006-1.969c0.005-1.468-0.018-2.167-0.090-2.75-0.127-1.031-0.208-7.071-0.106-7.845 0.037-0.281 0.084-0.691 0.103-0.911l0.036-0.4 0.939 0.026c1.546 0.042 2.282 0.131 4.456 0.54 0.497 0.093 1.684 0.475 2.691 0.866 0.388 0.15 0.517 0.231 0.587 0.366 0.049 0.095 0.169 0.232 0.267 0.305 0.236 0.175 0.677 0.751 0.776 1.013 0.235 0.625 0.477 1.155 0.688 1.503 0.322 0.531 0.346 0.577 0.784 1.503 0.388 0.822 0.487 1.072 0.674 1.703 0.057 0.193 0.196 0.502 0.308 0.688s0.247 0.429 0.3 0.541c0.053 0.111 0.241 0.327 0.418 0.48l0.322 0.278 0.007 1.687c0.004 0.928 0.024 1.765 0.045 1.86 0.071 0.323-0.033 1.203-0.219 1.856-0.101 0.356-0.271 1.059-0.376 1.563-0.225 1.075-0.348 1.388-0.597 1.517-0.099 0.051-0.293 0.248-0.431 0.438-0.572 0.784-1.997 2.043-2.613 2.308-0.096 0.041-0.309 0.161-0.474 0.267-0.171 0.109-0.521 0.248-0.811 0.321-0.571 0.144-0.757 0.254-0.93 0.549-0.108 0.184-0.12 0.339-0.136 1.767-0.011 0.931-0.048 1.711-0.092 1.926l-0.074 0.361-0.681 0.017c-0.375 0.009-0.667-0.005-0.65-0.033 0.037-0.059-0.061-3.080-0.116-3.58-0.047-0.425-0.163-0.51-0.555-0.405-0.219 0.059-0.256 0.095-0.312 0.302-0.037 0.137-0.065 0.959-0.067 1.974l-0.004 1.739-0.273 0.037c-0.473 0.065-1.018 0.044-1.089-0.042-0.062-0.075-0.072-0.648-0.047-2.815 0.009-0.818-0.053-0.953-0.443-0.953-0.445 0-0.509 0.248-0.419 1.629 0.048 0.736 0.046 1.142-0.008 1.602l-0.072 0.616-0.788-0.006c-0.722-0.006-0.798-0.017-0.912-0.135zM26.014 16.313c0.237-0.078 0.563-0.174 0.724-0.213 0.463-0.112 1.199-0.657 1.392-1.031 0.111-0.214 0.269-0.915 0.269-1.193 0-0.263-0.094-0.571-0.241-0.787-0.056-0.083-0.135-0.283-0.174-0.446-0.14-0.572-0.674-1.202-1.264-1.493-0.239-0.118-0.386-0.138-1.117-0.153-1.044-0.022-2.185 0.088-3.096 0.298-0.44 0.101-1.621 0.716-1.77 0.921-0.222 0.305-0.334 0.794-0.334 1.465 0 0.633 0.074 0.932 0.293 1.179 0.059 0.067 0.139 0.234 0.179 0.372 0.043 0.15 0.177 0.36 0.334 0.521 0.211 0.217 0.349 0.297 0.705 0.406 0.64 0.196 1.379 0.277 2.596 0.286 0.977 0.007 1.109-0.004 1.503-0.134z"></path>
</svg>
