<!-- Generated by IcoMoon.io -->
<svg version="1.1" xmlns="http://www.w3.org/2000/svg" width="32" height="32" viewBox="0 0 32 32">
<title>locals</title>
<path d="M28.212 11.705c-0.207-0.506-0.436-1.004-0.666-1.498-0.246-0.532-0.446-1.177-0.794-1.648-0.325-0.442-0.646-0.842-0.851-1.368-0.029-0.078-0.058-0.157-0.060-0.239-0.009-0.477 0.741-0.828 1.006-1.152 0.377-0.457 0.474-0.853 0.607-1.407 0.075-0.314 0.113-0.646 0.025-0.956-0.192-0.681-0.603-1.276-1.272-1.505-0.688-0.238-1.484-0.242-2.152 0.061-0.817 0.372-1.17 1.074-1.59 1.815 0.507-0.274 0.965-0.636 1.532-0.826 0.347-0.115 0.753-0.232 1.12-0.218 0.314 0.011 0.642 0.146 0.802 0.416 0.1 0.168 0.125 0.37 0.135 0.564 0.042 0.795-0.197 1.334-0.755 1.868-0.461 0.442-0.992 1.015-0.789 1.71 0.039 0.132 0.103 0.257 0.167 0.381 0.421 1.001 1.051 1.904 1.451 2.917 0.489 1.237 0.948 2.509 1.084 3.84 0.14 1.351-0.094 2.796-0.345 4.124-0.125 0.67-0.425 1.382-0.77 1.97-0.285 0.485-0.691 0.899-1.176 1.184-0.31 0.182-0.646 0.313-0.985 0.436-0.342 0.125-0.691 0.243-1.052 0.281-0.225 0.024-0.452 0.017-0.678 0.009-1.156-0.040-2.311-0.058-3.464-0.183-0.202-0.014-0.403-0.028-0.605-0.042-0.474-0.033-1.32-0.051-1.344-0.72-0.008-0.172 0.013-0.349 0.018-0.521 0.010-0.257 0.031-0.517 0.028-0.774-0.004-0.402-0.009-0.803-0.011-1.204-0.005-0.632-0.114-1.274-0.153-1.903-0.047-0.77-0.101-1.541-0.153-2.311-0.078-1.186-0.058-2.373-0.039-3.558 0.010-0.552 0.063-1.115-0.042-1.658-0.172-0.903-0.117-1.854-0.11-2.785 0.011-1.518-0.424-2.976-0.534-4.481-0.038-0.516-0.072-0.971-0.232-1.461-0.093-0.286-0.186-0.574-0.281-0.862 0 0-0.068 1.368-0.070 1.42-0.026 0.524-0.203 0.972-0.17 1.497 0.035 0.567-0.003 1.138-0.054 1.704-0.056 0.605-0.126 1.211-0.12 1.819 0.018 1.452 0.218 2.89 0.021 4.359-0.149 1.105-0.053 2.277-0.050 3.396 0.001 1.138 0.053 2.275 0.058 3.414l0.060 1.359c0 0-0.003 1.359-0.003 1.359-0.108 0.892-0.092 1.701-1.154 1.914-0.459 0.092-0.928 0.038-1.39 0.082-0.532 0.051-1.051 0.199-1.579 0.275-1.209 0.178-2.567 0.079-3.537-0.607-0.495-0.349-1.112-0.87-1.507-1.329-0.252-0.292-0.436-1.035-0.556-1.395 0 0-0.402-1.22-0.421-1.28-0.366-1.106-0.343-2.648-0.175-3.765 0.133-0.887 0.367-1.583 0.591-2.452 0.113-0.436 0.47-1.087 0.664-1.494 0.165-0.346 0.432-0.667 0.634-0.995 0.442-0.723 1.099-1.402 0.972-2.296-0.065-0.453-0.297-0.767-0.594-1.138-0.258-0.324-0.68-0.518-0.857-0.91-0.42-0.93-0.157-2.115 0.978-2.25 0.484-0.058 1.115 0.003 1.484 0.357 0 0 0.923 0.882 0.944 0.898-0.21-0.16-0.14-0.524-0.293-0.739-0.635-0.888-0.827-1.194-1.864-1.418-0.617-0.132-1.608 0.214-2.043 0.634-0.384 0.371-0.655 0.86-0.753 1.384-0.168 0.908 0.19 1.602 0.716 2.297l0.741 0.83-0.14 0.731c0 0-0.752 1.341-0.752 1.343-0.286 0.509-0.662 1.106-0.928 1.644-0.286 0.574-0.66 1.51-0.798 2.132-0.55 2.48-0.397 4.31 0.088 6.79 0.106 0.545 0.308 1.058 0.592 1.536 0.37 0.62 0.769 1.223 1.212 1.794 0.443 0.573 1.113 0.702 1.742 1.043 0.726 0.395 1.618 0.688 2.423 0.65 0.739-0.035 1.211-0.046 1.946 0.010 0.732 0.055 1.402-0.013 2.121-0.14l0.424 0.311-0.17 0.231-0.125 1.839-0.177 1.295-0.117 1.306-0.063 1.308c0 0 0.153 0.486 0.153 0.486 0.053 0.16 0.521 0.252 0.657 0.299 0.833 0.285 1.735 0.475 2.63 0.463 0.457-0.008 0.916-0.063 1.358-0.178 0.403-0.104 0.632-0.389 0.905-0.687l-0.094-1.348-0.235-1.323-0.196-1.326-0.017-1.347-0.115-1.026-0.199-0.132 0.492-0.168 1.597 0.12 1.611 0.011 1.322-0.035 1.115-0.133 0.072-0.014 1.252-0.505 1.135-0.824 0.916-1.063c0 0 0.575-1.13 0.58-1.137 0.503-0.985 0.699-1.842 0.749-2.955 0-1.119 0.138-2.216 0.051-3.33-0.039-0.51-0.14-1.015-0.279-1.507-0.133-0.473-0.302-0.933-0.486-1.387z"></path>
</svg>
