<!-- Generated by IcoMoon.io -->
<svg version="1.1" xmlns="http://www.w3.org/2000/svg" width="32" height="32" viewBox="0 0 32 32">
<title>log</title>
<path fill="#394852" d="M9.125 7.2c-0.006 0-0.009 0.009-0.016 0.009-0.037-0-0.073-0.006-0.109-0.006v0.072c-0.922 0.053-1.802 0.522-2.322 1.369-0.547 0.892-0.744 2.107-0.463 3.512l1.569-0.313c-0.219-1.094-0.040-1.88 0.256-2.363 0.292-0.476 0.678-0.666 1.069-0.672 0.011 0 0.023 0.003 0.034 0.003 0.393 0.006 0.849 0.194 1.272 0.822 0.429 0.638 0.784 1.73 0.784 3.366 0 1.322-0.469 3.031-0.969 4.781s-1.031 3.541-1.031 5.219c0 1.41 0.429 2.522 1.172 3.222s1.78 0.929 2.713 0.675c0.098-0.027 0.142-0.173 0.238-0.209l0.016 0.103c0 0 1.661-0.243 3.819-0.366s4.814-0.109 6.65 0.35c0.588 0.147 1.099-0.075 1.522-0.394s0.783-0.779 1.025-1.356c0.483-1.155 0.433-2.788-0.688-4.469l-0.238-0.356h-11.372l0.153 0.931c0.456 2.737-0.66 3.981-1.544 4.222-0.442 0.121-0.843 0.037-1.194-0.294s-0.672-0.969-0.672-2.059c0-1.322 0.469-3.031 0.969-4.781s1.031-3.541 1.031-5.219c0-1.76-0.401-3.045-1-4.022 3.096 0.234 6.367 0.604 10.356-0.194-0.268 0.054 0.090 0.006 0.406 0.484s0.637 1.355 0.637 2.731c0 1.411-0.224 2.301-0.469 3.156s-0.531 1.71-0.531 2.844h1.6c0-0.867 0.213-1.512 0.469-2.406s0.531-2.005 0.531-3.594c0-1.623-0.373-2.81-0.903-3.613s-1.172-1.348-2.053-1.172c-4.763 0.953-8.62 0.015-12.7-0.003-0.007-0-0.011-0.013-0.019-0.013zM15 12.2v1.6h6v-1.6zM15 16.2v1.6h4v-1.6zM15.684 21.8h8.794c0.622 1.123 0.643 2.018 0.397 2.606-0.137 0.328-0.341 0.57-0.509 0.697s-0.274 0.096-0.172 0.122c-2.164-0.541-4.896-0.527-7.128-0.4-1.026 0.058-1.127 0.103-1.822 0.178 0.436-0.818 0.489-1.974 0.441-3.203z"></path>
</svg>
