<!-- Generated by IcoMoon.io -->
<svg version="1.1" xmlns="http://www.w3.org/2000/svg" width="32" height="32" viewBox="0 0 32 32">
<title>logo</title>
<path d="M8.276 13.137c-0.169 0-0.323-0.137-0.323-0.32 0-0.167 0.138-0.32 0.323-0.32 0.169 0 0.323 0.137 0.323 0.32-0.015 0.183-0.154 0.32-0.323 0.32zM8.614 14.035c0-0.213-0.185-0.396-0.4-0.396s-0.4 0.183-0.4 0.396c0 0.213 0.185 0.396 0.4 0.396s0.4-0.183 0.4-0.396zM8.568 15.253c0-0.244-0.2-0.441-0.446-0.441s-0.446 0.198-0.446 0.441c0 0.243 0.2 0.441 0.446 0.441 0.246-0.015 0.446-0.198 0.446-0.441zM8.368 16.44c0-0.259-0.2-0.457-0.462-0.457s-0.462 0.198-0.462 0.457c0 0.259 0.2 0.457 0.462 0.457 0.246 0 0.462-0.213 0.462-0.457zM7.783 17.506c0-0.243-0.2-0.441-0.446-0.441s-0.446 0.198-0.446 0.441c0 0.244 0.2 0.441 0.446 0.441s0.446-0.198 0.446-0.441zM6.66 18.023c0-0.213-0.185-0.396-0.4-0.396s-0.4 0.183-0.4 0.396c0 0.213 0.185 0.396 0.4 0.396s0.4-0.183 0.4-0.396zM5.445 17.673c0-0.168-0.138-0.32-0.323-0.32s-0.323 0.137-0.323 0.32c0 0.183 0.138 0.32 0.323 0.32s0.323-0.152 0.323-0.32zM14.122 18.951c0-0.152-0.123-0.274-0.277-0.274s-0.277 0.122-0.277 0.274 0.123 0.274 0.277 0.274c0.154 0 0.277-0.122 0.277-0.274zM14.492 20.169c0-0.198-0.154-0.35-0.354-0.35s-0.354 0.152-0.354 0.35c0 0.198 0.154 0.35 0.354 0.35s0.354-0.152 0.354-0.35zM14.876 21.372c0-0.228-0.185-0.411-0.415-0.411s-0.415 0.183-0.415 0.411c0 0.228 0.185 0.411 0.415 0.411s0.415-0.183 0.415-0.411zM15.199 22.589c0-0.244-0.2-0.441-0.446-0.441s-0.446 0.198-0.446 0.441c0 0.243 0.2 0.441 0.446 0.441s0.446-0.198 0.446-0.441zM15.292 23.837c0-0.259-0.2-0.457-0.462-0.457s-0.462 0.198-0.462 0.457c0 0.259 0.2 0.457 0.462 0.457s0.462-0.198 0.462-0.457zM14.646 24.857c0-0.243-0.2-0.457-0.462-0.457-0.246 0-0.462 0.198-0.462 0.457s0.2 0.457 0.462 0.457c0.261 0 0.462-0.198 0.462-0.457zM13.445 25.298c0-0.228-0.185-0.411-0.415-0.411s-0.415 0.183-0.415 0.411c0 0.228 0.185 0.411 0.415 0.411s0.415-0.183 0.415-0.411zM12.337 24.72c0-0.198-0.154-0.35-0.354-0.35s-0.354 0.152-0.354 0.35c0 0.198 0.154 0.35 0.354 0.35s0.354-0.167 0.354-0.35zM12.076 23.502c0-0.152-0.123-0.274-0.277-0.274s-0.277 0.122-0.277 0.274 0.123 0.274 0.277 0.274c0.154 0 0.277-0.122 0.277-0.274zM17.23 20.093c-0.308-0.654-0.631-1.279-0.892-1.842-0.354-0.761-1.046-1.735-1.046-2.253 0-0.198 0.139-0.228 0.216-0.076 0.323 0.609 1.492 1.385 1.369 0.776-0.092-0.472-0.185-0.822-0.323-1.355-0.246-0.974-0.277-5.403 0.246-6.697 0.523-1.263 1.369-2.024 2.323-2.74 0.154-0.122 0.185-0.274 0.046-0.411-0.277-0.259-0.677-1.492-0.862-1.918-0.108-0.259-0.369-0.122-0.538-0.046-0.954 0.457-2.97 0.335-3.754 0.304-0.662-0.015-1.369-0.030-2.062-0.091-0.708-0.061-1.415-0.061-2.062-0.061-0.677 0-1.185-0.137-1.385-0.167-0.061-0.015-1.031 1.766-1.262 1.933-0.123 0.091-0.092 0.274-0.031 0.335 0.185 0.198 0.246 0.639 0.4 0.578 0.138-0.061 0.846-0.304 1.215-0.685 0.308-0.32 0.8-0.32 1.2-0.243 0.8 0.152 1.616 0.137 2.354 0.107 1.138-0.046 3.246-0.365 3.508-0.472 0.138-0.061 0.138 0.076 0.092 0.122-0.431 0.396-2.139 0.761-2.908 0.959-0.585 0.152-1.2 0.411-1.831 0.822-0.538 0.35-1.169 0.913-1.6 1.766-0.323 0.624-0.6 1.4-0.615 2.313-0.015 0.822 0 1.583-0.046 2.268-0.046 0.852-0.046 1.613-0.139 2.268-0.139 0.929-0.338 1.659-0.631 2.192-0.4 0.731-1.031 1.035-1.908 1.035-1.385 0-2.092-0.883-2.092-1.948 0-0.761-1.185-0.761-1.185 0s0.2 1.446 0.446 2.055c0.277 0.685 0.692 1.263 1.262 1.659 0.554 0.365 1.231 0.533 2.031 0.518 1.046-0.015 1.815-0.274 2.4-0.731 0.677-0.533 1.108-1.279 1.339-2.131 0.215-0.807 0.215-1.705 0.169-2.542-0.046-0.746-0.123-1.385-0.185-1.948-0.108-0.928-0.769-1.826-0.508-3.105 0.046-0.243 0.261-0.198 0.261-0.015-0.015 0.959 0.662 1.522 0.831 1.096 0.139-0.365 0.231-1.568 0.523-2.222 0.338-0.746 0.615-1.202 1.015-1.598 0.261-0.274 0.862-0.746 1.923-0.989 0.708-0.167 1.415-0.563 2.092-0.913 0.139-0.061 0.262 0.076 0.123 0.183-0.831 0.67-1.985 1.537-2.385 1.963-1.215 1.279-0.862 5.251-0.754 6.24 0.046 0.457-1.339-0.137-1.662-1.050-0.092-0.244-0.308-0.198-0.338-0.015-0.077 0.472 0.323 1.385 0.815 2.222 0.477 0.822 1.354 1.735 2.062 3.835 0.216 0.7 0.477 1.263 0.677 1.872 0.185 0.578 0.323 1.157 0.323 1.933 0 0.852-0.2 1.492-0.554 1.979-0.446 0.578-1.077 0.852-1.831 0.852-0.492 0-1.123-0.168-1.554-0.7-0.308-0.381-0.492-0.944-0.492-1.659 0-0.883 0.662-1.4 1.246-1.461 1.215-0.137 0.923-1.096 0.046-1.096-0.862 0-1.477 0.35-1.923 0.852-0.523 0.594-0.815 1.339-0.846 1.979-0.046 1.004 0.154 1.811 0.477 2.45 0.415 0.822 1.077 1.37 1.8 1.705 0.831 0.396 1.754 0.563 2.493 0.457 0.723-0.107 1.369-0.487 1.969-0.898 0.585-0.411 1.092-0.944 1.431-1.583 0.338-0.624 0.554-1.309 0.554-2.055 0-0.654-0.139-1.339-0.354-2.009-0.185-0.624-0.431-1.279-0.723-1.902z"></path>
<path d="M21.923 16.242c0-0.167-0.123-0.289-0.292-0.304s-0.292 0.122-0.308 0.289c0 0.167 0.123 0.289 0.292 0.304 0.169 0 0.308-0.122 0.308-0.289z"></path>
<path d="M22.446 17.308c0-0.213-0.169-0.381-0.369-0.381-0.215 0-0.385 0.168-0.385 0.365 0 0.213 0.169 0.381 0.369 0.381 0.2 0.015 0.385-0.152 0.385-0.365z"></path>
<path d="M23.169 18.328c0-0.244-0.185-0.426-0.431-0.441-0.246 0-0.431 0.183-0.446 0.426s0.185 0.426 0.431 0.441c0.246 0 0.446-0.183 0.446-0.426z"></path>
<path d="M23.969 19.286c0-0.243-0.2-0.457-0.446-0.457s-0.462 0.198-0.462 0.441c0 0.244 0.2 0.457 0.446 0.457s0.446-0.198 0.462-0.441z"></path>
<path d="M24.815 20.154c0-0.243-0.2-0.457-0.446-0.457s-0.462 0.198-0.462 0.441 0.2 0.457 0.446 0.457c0.246 0.015 0.462-0.183 0.462-0.441z"></path>
<path d="M25.738 20.93c0-0.228-0.185-0.426-0.431-0.426-0.231 0-0.431 0.183-0.431 0.426 0 0.228 0.185 0.426 0.431 0.426 0.231 0 0.431-0.183 0.431-0.426z"></path>
<path d="M26.723 21.569c0-0.213-0.169-0.381-0.369-0.381-0.215 0-0.385 0.168-0.385 0.365 0 0.213 0.169 0.381 0.369 0.381 0.215 0.015 0.385-0.152 0.385-0.365z"></path>
<path d="M27.785 22.011c0-0.152-0.123-0.289-0.292-0.289-0.154 0-0.292 0.122-0.292 0.289 0 0.152 0.123 0.289 0.292 0.289 0.154 0 0.292-0.122 0.292-0.289z"></path>
<path d="M28.646 22.635v-0.030c-0.754 0.030-1.462 0.015-2.123-0.213-0.692-0.228-1.339-0.563-1.908-0.974-0.585-0.411-1.062-0.959-1.539-1.476-0.492-0.548-0.892-1.126-1.262-1.705-0.415-0.654-0.738-1.294-0.985-1.872-0.369-0.868-0.446-1.492-0.462-1.933-0.015-0.274 0.231-0.289 0.308-0.091 0.231 0.624 1.431 1.568 1.292 0.731 0 0-0.139-0.944-0.185-1.918-0.046-0.959 0.046-1.765 0.169-2.435 0.2-1.004 0.538-1.72 0.938-2.237 0.8-1.035 1.785-1.263 2.046-1.263 1.139-0.046 0.4 0.654 0.446 1.461 0.031 0.639 0.338 1.446 1.462 1.4 0.815-0.030 1.308-1.035 1.277-1.674-0.031-0.868-0.538-1.659-1.523-2.116-0.646-0.304-1.523-0.426-2.692-0.38-0.692 0.030-1.385 0.167-2.031 0.487-0.615 0.304-1.2 0.7-1.708 1.233-0.462 0.487-0.785 1.111-1.108 1.781-0.292 0.594-0.523 1.248-0.646 1.979-0.123 0.654-0.246 1.339-0.215 2.085 0.031 0.822 0.2 1.598 0.354 2.313 0.185 0.807 0.462 1.522 0.769 2.207 0.338 0.746 0.723 1.416 1.185 2.009 0.492 0.639 1.015 1.218 1.615 1.705 0.631 0.502 1.323 0.883 2.016 1.202 0.723 0.35 1.446 0.685 2.2 0.852 0.8 0.168 1.6 0.198 2.369 0.168 0.954-0.030 1.062-1.339-0.061-1.294z"></path>
</svg>
