<!-- Generated by IcoMoon.io -->
<svg version="1.1" xmlns="http://www.w3.org/2000/svg" width="32" height="32" viewBox="0 0 32 32">
<title>lol</title>
<path d="M24.087 15.307c-0.047 0.051-0.095 0.101-0.143 0.151-0.043 0.043-0.084 0.087-0.127 0.13-0.050 0.050-0.101 0.095-0.15 0.143-0.044 0.041-0.088 0.084-0.135 0.124-0.051 0.045-0.103 0.089-0.156 0.134-0.047 0.041-0.094 0.080-0.143 0.118-0.052 0.043-0.106 0.084-0.16 0.125-0.051 0.037-0.101 0.076-0.151 0.112-0.055 0.038-0.11 0.077-0.165 0.116-0.052 0.036-0.105 0.070-0.158 0.105-0.056 0.036-0.113 0.072-0.171 0.106-0.055 0.033-0.11 0.065-0.167 0.098-0.056 0.032-0.116 0.065-0.174 0.095s-0.116 0.061-0.174 0.089c-0.059 0.030-0.119 0.059-0.178 0.087s-0.121 0.055-0.183 0.083c-0.058 0.025-0.118 0.051-0.179 0.076-0.062 0.025-0.127 0.050-0.19 0.073-0.061 0.022-0.12 0.045-0.18 0.066-0.066 0.022-0.134 0.043-0.201 0.065-0.061 0.018-0.12 0.037-0.179 0.054-0.070 0.019-0.14 0.037-0.212 0.055-0.059 0.015-0.118 0.032-0.178 0.044-0.073 0.017-0.147 0.030-0.222 0.045-0.059 0.012-0.117 0.023-0.176 0.033-0.078 0.014-0.158 0.023-0.24 0.034-0.054 0.006-0.109 0.017-0.165 0.022-0.090 0.012-0.182 0.017-0.273 0.023-0.047 0.004-0.092 0.007-0.138 0.012-0.138 0.008-0.278 0.013-0.417 0.013-0.198 0-0.392-0.013-0.585-0.030l5.184 5.148c0.106-0.142 0.205-0.288 0.303-0.438 0.019-0.032 0.041-0.065 0.062-0.098 0.099-0.158 0.194-0.321 0.282-0.487 0.015-0.029 0.030-0.061 0.047-0.091 0.081-0.157 0.158-0.318 0.23-0.48 0.009-0.022 0.019-0.041 0.029-0.063 0.074-0.175 0.143-0.354 0.205-0.536 0.014-0.040 0.028-0.078 0.040-0.119 0.061-0.182 0.116-0.366 0.164-0.555 0.005-0.022 0.009-0.045 0.017-0.068 0.043-0.178 0.080-0.357 0.11-0.537 0.006-0.035 0.014-0.069 0.019-0.103 0.032-0.191 0.055-0.387 0.072-0.582 0.004-0.041 0.006-0.083 0.009-0.124 0.015-0.202 0.026-0.408 0.026-0.614 0-0.201-0.009-0.401-0.024-0.598-0.002-0.040-0.005-0.078-0.009-0.117-0.017-0.198-0.040-0.397-0.072-0.591-0.001-0.005-0.001-0.010-0.002-0.015-0.033-0.204-0.074-0.403-0.121-0.603-0.002-0.007-0.004-0.018-0.005-0.026-0.051-0.205-0.107-0.406-0.172-0.604-0.099-0.043-0.198-0.085-0.3-0.122-0.008 0.007-0.018 0.017-0.025 0.025z"></path>
<path d="M24.884 15.629c0.102 0.365 0.182 0.737 0.235 1.118 0.002 0.023 0.005 0.045 0.007 0.068 0.021 0.154 0.036 0.31 0.048 0.468 0.004 0.043 0.007 0.085 0.010 0.128 0.012 0.182 0.018 0.363 0.018 0.548 0 0.219-0.009 0.436-0.026 0.653-0.002 0.041-0.005 0.083-0.009 0.124-0.019 0.209-0.044 0.414-0.078 0.62-0.005 0.034-0.012 0.069-0.018 0.103-0.036 0.205-0.077 0.406-0.128 0.604-0.001 0.009-0.003 0.018-0.005 0.028-0.052 0.207-0.116 0.409-0.182 0.61-0.012 0.032-0.021 0.063-0.033 0.095-0.069 0.198-0.145 0.394-0.227 0.587-0.006 0.015-0.015 0.032-0.022 0.048-0.085 0.194-0.179 0.387-0.278 0.574-0.002 0.005-0.005 0.012-0.007 0.018-0.103 0.19-0.212 0.374-0.326 0.555-0.014 0.019-0.026 0.040-0.039 0.061-0.11 0.168-0.222 0.333-0.341 0.494l0.384 0.381-0.296 0.256-0.030-0.030-0.302-0.299c-0.366 0.445-0.777 0.851-1.221 1.216-0.005 0.002-0.009 0.005-0.015 0.009-0.106 0.087-0.215 0.172-0.325 0.253-0.021 0.015-0.041 0.027-0.061 0.043-0.096 0.069-0.194 0.138-0.295 0.204-0.029 0.019-0.058 0.037-0.088 0.056-0.091 0.059-0.183 0.117-0.277 0.172-0.036 0.021-0.071 0.041-0.107 0.062-0.089 0.052-0.18 0.102-0.271 0.15-0.040 0.021-0.080 0.041-0.121 0.062-0.088 0.045-0.178 0.090-0.268 0.131-0.044 0.021-0.088 0.040-0.132 0.059-0.088 0.040-0.179 0.078-0.27 0.114-0.047 0.019-0.092 0.037-0.14 0.055-0.090 0.035-0.18 0.068-0.271 0.099-0.048 0.017-0.096 0.033-0.145 0.050-0.094 0.030-0.186 0.056-0.279 0.084-0.050 0.014-0.098 0.029-0.147 0.043-0.095 0.025-0.193 0.048-0.289 0.070-0.048 0.013-0.096 0.023-0.143 0.033-0.103 0.023-0.207 0.041-0.31 0.059-0.044 0.006-0.088 0.017-0.132 0.024-0.114 0.019-0.228 0.033-0.343 0.047-0.036 0.004-0.070 0.009-0.106 0.014-0.149 0.015-0.3 0.027-0.452 0.036h-0.001c1.227 1.185 2.894 1.915 4.734 1.915 3.764 0 6.817-3.053 6.817-6.817 0-2.64-1.502-4.921-3.694-6.054z"></path>
<path d="M22.96 23.164l-5.234-5.198c0.004 0.044 0.009 0.087 0.013 0.131 0.007 0.142 0.013 0.285 0.013 0.428 0 0.139-0.004 0.277-0.010 0.415-0.002 0.044-0.008 0.089-0.012 0.135-0.006 0.091-0.013 0.182-0.024 0.273-0.005 0.052-0.014 0.105-0.022 0.157-0.010 0.081-0.021 0.164-0.035 0.245-0.007 0.054-0.021 0.107-0.030 0.161-0.014 0.078-0.029 0.156-0.047 0.233-0.012 0.055-0.026 0.11-0.040 0.164-0.018 0.074-0.036 0.15-0.056 0.223-0.017 0.054-0.033 0.107-0.050 0.162-0.022 0.073-0.044 0.146-0.070 0.218-0.018 0.052-0.036 0.105-0.056 0.157-0.026 0.072-0.052 0.143-0.081 0.215-0.019 0.050-0.041 0.099-0.062 0.15-0.032 0.070-0.062 0.14-0.094 0.211-0.023 0.048-0.047 0.096-0.070 0.145-0.035 0.070-0.070 0.139-0.106 0.208-0.025 0.045-0.050 0.092-0.076 0.136-0.039 0.070-0.077 0.138-0.117 0.205-0.026 0.044-0.052 0.087-0.080 0.13-0.044 0.069-0.087 0.136-0.134 0.202-0.027 0.040-0.054 0.081-0.083 0.12-0.047 0.068-0.096 0.135-0.146 0.201-0.027 0.036-0.056 0.074-0.084 0.11-0.054 0.066-0.107 0.132-0.163 0.198-0.027 0.033-0.056 0.067-0.085 0.099-0.058 0.067-0.119 0.132-0.179 0.197-0.027 0.029-0.054 0.059-0.081 0.088-0.066 0.067-0.134 0.133-0.201 0.198-0.025 0.023-0.050 0.048-0.076 0.073-0.014 0.013-0.025 0.025-0.039 0.037 0.296 0.825 0.752 1.572 1.322 2.215 0.156-0.001 0.308-0.006 0.463-0.018 0.013 0 0.025-0.001 0.037-0.002 0.14-0.009 0.282-0.024 0.421-0.041 0.015-0.001 0.032-0.004 0.047-0.005 0.139-0.018 0.277-0.040 0.413-0.065 0.013-0.001 0.026-0.004 0.038-0.006 0.146-0.026 0.291-0.058 0.434-0.092 0 0 0.003-0.001 0.003-0.001 0.3-0.073 0.592-0.167 0.877-0.271 0.42-0.154 0.825-0.337 1.209-0.555 0.013-0.006 0.023-0.013 0.034-0.018 0.116-0.067 0.23-0.136 0.343-0.208 0.013-0.007 0.028-0.018 0.040-0.026 0.112-0.072 0.222-0.146 0.329-0.223 0.012-0.008 0.022-0.017 0.033-0.023 0.114-0.083 0.226-0.168 0.336-0.256 0.002-0.001 0.005-0.004 0.009-0.006 0.45-0.363 0.862-0.772 1.227-1.221z"></path>
<path d="M16.569 15.771c-0.061-0.136-0.125-0.271-0.196-0.403-0.017-0.033-0.036-0.066-0.055-0.099-0.056-0.106-0.117-0.211-0.18-0.313-0.022-0.037-0.047-0.074-0.070-0.113-0.065-0.099-0.131-0.197-0.201-0.292-0.023-0.033-0.045-0.066-0.070-0.099-0.084-0.113-0.172-0.224-0.264-0.332-0.009-0.013-0.018-0.023-0.026-0.033-0.105-0.121-0.213-0.238-0.325-0.351-0.021-0.021-0.043-0.041-0.063-0.062-0.089-0.088-0.18-0.174-0.274-0.258-0.037-0.032-0.076-0.063-0.114-0.095-0.080-0.069-0.164-0.136-0.248-0.201-0.043-0.033-0.085-0.066-0.13-0.098-0.085-0.063-0.174-0.123-0.262-0.182-0.043-0.028-0.084-0.057-0.128-0.084-0.109-0.069-0.222-0.135-0.336-0.198-0.022-0.013-0.044-0.026-0.066-0.039-0.138-0.073-0.277-0.142-0.419-0.205-0.043-0.021-0.087-0.037-0.131-0.056-0.101-0.043-0.202-0.084-0.306-0.123-0.055-0.021-0.112-0.038-0.167-0.059-0.095-0.032-0.191-0.062-0.288-0.091-0.058-0.017-0.117-0.033-0.176-0.050-0.033-0.008-0.068-0.014-0.101-0.024 0.534 2.226 2.159 4.027 4.279 4.805 0.157-0.172 0.322-0.339 0.496-0.497-0.054-0.145-0.109-0.288-0.171-0.428-0.003-0.006-0.005-0.015-0.009-0.022z"></path>
<path d="M17.084 17.575c-0.215-0.045-0.43-0.096-0.638-0.16-0.94 1.168-1.504 2.652-1.504 4.267 0 0.577 0.073 1.135 0.207 1.669 0.001-0.001 0.001-0.002 0.002-0.002h0.001c1.235-1.234 1.998-2.938 1.998-4.823 0-0.322-0.025-0.639-0.068-0.95z"></path>
<path d="M17.58 16.956c0.006 0.035 0.019 0.069 0.026 0.105 0.326 0.047 0.658 0.074 0.998 0.074 1.907 0 3.631-0.785 4.869-2.047-0.030-0.007-0.061-0.018-0.091-0.026-0.058-0.014-0.116-0.026-0.175-0.039-0.099-0.021-0.198-0.040-0.299-0.058-0.058-0.010-0.117-0.021-0.178-0.029-0.107-0.015-0.215-0.027-0.325-0.037-0.051-0.004-0.103-0.012-0.157-0.015-0.161-0.012-0.324-0.018-0.489-0.018-1.638 0-3.142 0.58-4.317 1.545 0.023 0.083 0.041 0.168 0.062 0.252 0.026 0.098 0.052 0.196 0.074 0.293z"></path>
<path d="M8.077 19.548l-0.453 0.125-0.105-0.376 0.494-0.138c-0.055-0.392-0.085-0.793-0.085-1.201 0-2.451 1.029-4.666 2.674-6.24-0.090-0.004-0.179-0.010-0.268-0.010-3.764 0-6.818 3.051-6.818 6.817s3.054 6.818 6.818 6.818c0.512 0 1.009-0.063 1.488-0.172-1.921-1.267-3.307-3.281-3.745-5.625z"></path>
<path d="M13.826 15.982c-0.015-0.014-0.030-0.026-0.045-0.040-0.098-0.084-0.196-0.171-0.291-0.262-0.036-0.034-0.070-0.072-0.107-0.107-0.069-0.069-0.139-0.139-0.207-0.211-0.052-0.056-0.101-0.113-0.151-0.169-0.047-0.055-0.095-0.11-0.142-0.167-0.062-0.074-0.12-0.15-0.179-0.227-0.030-0.040-0.063-0.081-0.094-0.123-0.066-0.094-0.131-0.187-0.196-0.282-0.017-0.029-0.037-0.057-0.055-0.084-0.069-0.109-0.136-0.22-0.2-0.332-0.009-0.017-0.019-0.033-0.029-0.050-0.069-0.122-0.135-0.249-0.197-0.377-0.002-0.005-0.005-0.012-0.007-0.017-0.267-0.549-0.467-1.137-0.591-1.753-0.068-0.009-0.136-0.015-0.205-0.022-1.724 1.513-2.814 3.73-2.814 6.197 0 0.373 0.027 0.739 0.076 1.097l7.163-1.987c-0.626-0.284-1.209-0.647-1.728-1.086z"></path>
<path d="M14.609 23.636c-0.019-0.070-0.037-0.14-0.055-0.212-0.029-0.117-0.052-0.235-0.076-0.355-0.014-0.070-0.029-0.142-0.040-0.215-0.021-0.128-0.036-0.259-0.051-0.39-0.005-0.063-0.015-0.127-0.021-0.19-0.015-0.196-0.025-0.392-0.025-0.591 0-0.212 0.009-0.42 0.026-0.625 0.006-0.078 0.021-0.157 0.030-0.235 0.014-0.125 0.026-0.251 0.047-0.374 0.009-0.055 0.023-0.107 0.033-0.161 0.029-0.146 0.056-0.292 0.092-0.432 0.012-0.041 0.025-0.081 0.037-0.121 0.041-0.154 0.084-0.307 0.135-0.456 0.017-0.047 0.037-0.091 0.054-0.138 0.051-0.14 0.103-0.281 0.162-0.417 0.018-0.040 0.039-0.077 0.056-0.117 0.065-0.14 0.129-0.279 0.202-0.416 0.022-0.041 0.048-0.080 0.071-0.12 0.073-0.131 0.147-0.262 0.227-0.387 0.028-0.044 0.059-0.084 0.088-0.127 0.027-0.041 0.056-0.081 0.085-0.121l-7.238 2.008c0.434 2.372 1.884 4.394 3.881 5.594 0.856-0.263 1.643-0.683 2.319-1.237-0.015-0.055-0.028-0.112-0.043-0.165z"></path>
<path d="M25.025 12.611c-1.342-1.926-3.333-3.369-5.653-4.009l-0.291 1.093-0.013 0.043-0.076 0.288-0.010 0.044-1.477 5.55c1.207-0.85 2.673-1.355 4.256-1.355 0.204 0 0.404 0.012 0.603 0.026 0.063 0.005 0.124 0.015 0.187 0.021 0.135 0.015 0.271 0.032 0.405 0.054 0.070 0.012 0.139 0.026 0.208 0.039 0.125 0.025 0.251 0.051 0.374 0.081 0.068 0.018 0.135 0.035 0.202 0.054 0.059 0.017 0.12 0.030 0.179 0.048 0.471-0.588 0.847-1.253 1.106-1.976z"></path>
<path d="M16.667 7.903c0.83 0 1.637 0.099 2.411 0.282l0.135-0.507 0.377 0.101-0.012 0.044-0.122 0.459c2.313 0.638 4.308 2.046 5.692 3.934 0.175-0.604 0.273-1.239 0.273-1.897 0-3.766-3.053-6.818-6.817-6.818-3.331 0-6.102 2.39-6.697 5.547 1.429-0.73 3.047-1.144 4.76-1.144z"></path>
<path d="M11.843 9.451c-0.036 0.284-0.058 0.573-0.058 0.866 0 0.322 0.028 0.639 0.070 0.949 0.037 0.006 0.074 0.018 0.11 0.026 0.054 0.013 0.105 0.025 0.157 0.038 0.105 0.026 0.208 0.054 0.308 0.083 0.052 0.015 0.102 0.032 0.153 0.048 0.102 0.033 0.204 0.066 0.303 0.103 0.048 0.018 0.096 0.036 0.145 0.055 0.1 0.040 0.2 0.080 0.297 0.124 0.045 0.021 0.089 0.041 0.135 0.062 0.101 0.047 0.198 0.095 0.296 0.146 0.040 0.021 0.080 0.043 0.121 0.065 0.099 0.055 0.197 0.112 0.295 0.171 0.036 0.022 0.072 0.044 0.106 0.066 0.101 0.062 0.198 0.13 0.295 0.197 0.030 0.021 0.060 0.041 0.089 0.062 0.101 0.073 0.2 0.149 0.296 0.227 0.024 0.019 0.048 0.037 0.072 0.057 0.102 0.084 0.201 0.171 0.299 0.26 0.017 0.015 0.033 0.029 0.050 0.045 0.105 0.096 0.205 0.195 0.303 0.299 0.007 0.007 0.018 0.017 0.026 0.026 0.585 0.618 1.060 1.338 1.409 2.127l1.486-5.591 0.013-0.043 0.076-0.288 0.013-0.044 0.288-1.082c-0.748-0.176-1.526-0.271-2.326-0.271-1.744 0-3.387 0.441-4.825 1.217z"></path>
</svg>
