<!-- Generated by IcoMoon.io -->
<svg version="1.1" xmlns="http://www.w3.org/2000/svg" width="32" height="32" viewBox="0 0 32 32">
<title>london</title>
<path d="M11.312 30.963c-0.014-0.090-0.033-0.813-0.042-1.516-0.010-0.809-0.012-0.844-0.075-1.178-0.016-0.083-0.049-0.233-0.074-0.335-0.064-0.259-0.334-1.196-0.351-1.216-0.008-0.009-0.067-0.063-0.132-0.12s-0.126-0.117-0.135-0.135c-0.028-0.054-0.037-0.3-0.071-1.837-0.010-0.447-0.022-0.819-0.027-0.826-0.011-0.014-0.030-1.505-0.026-2.039 0.001-0.187 0.007-1.419 0.013-2.737s0.014-2.442 0.018-2.497c0.007-0.092 0.010-0.104 0.043-0.136 0.048-0.048 0.16-0.123 0.234-0.157 0.034-0.015 0.066-0.034 0.073-0.042s0.014-0.048 0.018-0.089c0.014-0.148 0.051-0.22 0.135-0.263 0.045-0.023 0.067-0.026 0.156-0.024 0.104 0.003 0.135-0.005 0.181-0.045 0.018-0.016 0.020-0.061 0.019-0.533-0-0.283 0.008-0.801 0.018-1.151s0.018-0.931 0.018-1.293c0-0.752 0.018-1.481 0.037-1.504 0.021-0.025 0.107-0.019 0.132 0.009 0.021 0.024 0.022 0.059 0.018 1.358l-0.004 1.334 0.037-0.022c0.073-0.043 0.107-0.082 0.237-0.27 0.503-0.727 0.8-1.406 0.917-2.096 0.028-0.165 0.074-0.607 0.098-0.952 0.064-0.894 0.079-2.205 0.041-3.539-0.006-0.222-0.017-0.642-0.023-0.933-0.013-0.598-0.019-0.55 0.081-0.661l0.057-0.062 0.006 0.049c0.040 0.315 0.072 1.071 0.083 1.981 0.008 0.656 0.008 0.663 0.033 0.692s0.026 0.029 0.066 0.010c0.022-0.011 0.066-0.049 0.097-0.085s0.181-0.206 0.334-0.378c0.627-0.704 0.828-0.958 1.167-1.472 0.352-0.535 0.553-0.917 0.797-1.515 0.313-0.767 0.479-1.396 0.525-1.989 0.014-0.182 0.010-0.94-0.008-1.516l-0.007-0.234h0.238l-0.008 0.101c-0.016 0.21-0.030 1.623-0.019 1.85 0.023 0.459 0.085 0.772 0.213 1.079 0.061 0.146 0.075 0.171 0.322 0.596 0.486 0.835 1.534 2.55 1.813 2.968 0.068 0.102 0.241 0.278 0.504 0.512l0.191 0.169 0.007-1.36c0.004-0.748 0.011-1.369 0.016-1.38 0.007-0.016 0.020-0.020 0.056-0.017 0.043 0.003 0.051 0.009 0.082 0.060l0.035 0.057-0.006 1.675c-0.009 2.527-0.007 3.252 0.010 3.482 0.057 0.806 0.189 1.375 0.441 1.901 0.108 0.226 0.178 0.343 0.427 0.709 0.119 0.175 0.264 0.389 0.324 0.477 0.077 0.114 0.111 0.155 0.118 0.144 0.006-0.009 0.007-0.543 0.002-1.282l-0.008-1.267 0.024-0.046c0.013-0.025 0.040-0.068 0.059-0.094l0.035-0.048 0.082 0.163v1.956c0 1.076 0.003 2.020 0.008 2.098l0.008 0.143 0.048 0.047c0.070 0.068 0.182 0.13 0.294 0.163 0.054 0.016 0.105 0.033 0.114 0.038 0.012 0.007 0.016 0.033 0.014 0.108-0.004 0.151 0.025 0.207 0.138 0.263 0.035 0.017 0.091 0.045 0.124 0.062 0.035 0.018 0.067 0.044 0.077 0.062s0.027 0.042 0.041 0.054l0.024 0.022v9.894l-0.038 0.050c-0.021 0.028-0.099 0.107-0.173 0.175-0.155 0.144-0.164 0.16-0.211 0.391-0.039 0.193-0.071 0.29-0.201 0.623-0.168 0.43-0.195 0.53-0.219 0.809-0.030 0.357-0.038 0.611-0.047 1.57-0.005 0.559-0.010 1.017-0.011 1.019s-2.173 0.003-4.827 0.003h-4.826zM16.825 30.327l0.144-0.071-0.002-0.722c-0.002-0.842-0.019-1.402-0.043-1.479-0.009-0.028-0.043-0.108-0.076-0.177l-0.060-0.125-0.076 0.137c-0.042 0.075-0.086 0.167-0.097 0.203-0.031 0.099-0.047 0.623-0.042 1.337l0.005 0.595 0.042 0.183c0.023 0.1 0.042 0.185 0.042 0.188 0 0.010 0.021 0.001 0.162-0.068zM13.090 30.333c0.020-0.030 0.020-0.058 0.007-0.563-0.014-0.548-0.027-0.814-0.077-1.547-0.016-0.235-0.029-0.441-0.029-0.459 0-0.032-0.001-0.032-0.073-0.032h-0.073l-0.044 0.071c-0.040 0.064-0.045 0.082-0.053 0.182-0.020 0.235-0.064 1.364-0.075 1.909l-0.008 0.389 0.034 0.013c0.047 0.019 0.279 0.066 0.33 0.067 0.034 0.001 0.046-0.005 0.063-0.030zM15.649 30.287c0.088-0.139 0.081-0.052 0.087-0.989l0.006-0.844-0.054-0.242c-0.083-0.372-0.089-0.388-0.169-0.445-0.034-0.024-0.035-0.024-0.058-0.003-0.067 0.060-0.066 0.058-0.090 0.451-0.033 0.534-0.056 0.983-0.069 1.337-0.006 0.171-0.014 0.379-0.018 0.46l-0.006 0.148 0.033 0.031c0.027 0.026 0.271 0.162 0.29 0.163 0.003 0 0.025-0.030 0.048-0.066zM19.59 30.292c0.024-0.042 0.029-0.065 0.029-0.137 0-0.137-0.104-2.010-0.121-2.173-0.005-0.052-0.082-0.239-0.098-0.237-0.008 0.001-0.109 0.135-0.126 0.169-0.014 0.027-0.045 0.392-0.082 0.968-0.013 0.203-0.029 0.44-0.035 0.525-0.016 0.222-0.015 0.266 0.006 0.266 0.015 0 0.016 0.027 0.010 0.193-0.012 0.335 0.005 0.368 0.238 0.443 0.136 0.044 0.144 0.043 0.178-0.016zM14.32 30.286c0.028-0.018 0.069-0.053 0.090-0.077l0.039-0.045-0.007-0.255c-0.004-0.14-0.038-0.685-0.077-1.211s-0.070-0.964-0.070-0.973c0-0.013-0.018-0.017-0.085-0.017h-0.085l-0.043 0.124c-0.082 0.238-0.088 0.264-0.099 0.471-0.017 0.309-0.034 1.071-0.034 1.502 0 0.449-0.009 0.412 0.11 0.47 0.080 0.039 0.085 0.041 0.151 0.042 0.045 0.001 0.070-0.006 0.11-0.032zM18.146 30.25c0.12-0.1 0.13-0.12 0.152-0.307 0.035-0.299 0.015-0.73-0.077-1.668-0.045-0.459-0.040-0.433-0.095-0.492l-0.046-0.050-0.039 0.047c-0.022 0.026-0.039 0.048-0.039 0.050s-0.013 0.099-0.029 0.215c-0.049 0.362-0.145 1.11-0.145 1.132 0 0.013 0.009 0.021 0.022 0.021 0.021 0 0.022 0.015 0.026 0.447 0.004 0.441 0.004 0.448 0.030 0.492 0.032 0.054 0.143 0.182 0.155 0.178 0.005-0.002 0.042-0.031 0.084-0.066zM18.366 25.947c0.43-0.010 1.061-0.016 1.42-0.014l0.647 0.003 0.058-0.029c0.073-0.037 0.098-0.083 0.098-0.183 0-0.040-0.011-0.116-0.025-0.167-0.031-0.116-0.031-0.196 0.002-1.255 0.054-1.748 0.058-2.534 0.018-3.603-0.028-0.766-0.034-1.294-0.018-1.784 0.008-0.248 0.016-0.679 0.018-0.958 0.002-0.291 0.010-0.557 0.018-0.624 0.017-0.139 0.004-0.199-0.052-0.255-0.050-0.050-0.116-0.067-0.261-0.066-0.067 0-1.997 0.004-4.29 0.009l-4.169 0.009-0.043 0.028c-0.024 0.015-0.052 0.045-0.064 0.065-0.020 0.036-0.021 0.238-0.024 4.241-0.002 2.312-0.005 4.255-0.006 4.319-0.002 0.131 0.014 0.175 0.083 0.222 0.076 0.052 0.107 0.053 1.114 0.039 1.273-0.017 3.343-0.015 3.79 0.004 0.483 0.020 0.796 0.020 1.686-0zM12.102 25.599c-0.054-0.028-0.090-0.084-0.099-0.157-0.004-0.033-0.002-0.919 0.005-1.968 0.015-2.307 0.015-4.903 0.001-5.211-0.006-0.124-0.014-0.329-0.018-0.456-0.007-0.219-0.006-0.234 0.018-0.297 0.015-0.039 0.041-0.080 0.065-0.101 0.078-0.068 0.080-0.068 0.843-0.058 0.381 0.005 0.962 0.015 1.291 0.023 0.617 0.014 0.78 0.011 1.573-0.029 0.423-0.021 0.953-0.021 1.617 0 0.672 0.022 0.88 0.022 1.892-0.001 0.614-0.014 0.848-0.016 0.868-0.006 0.015 0.007 0.042 0.035 0.060 0.061l0.032 0.049v3.967c0 3.8-0.001 3.969-0.021 4.006-0.029 0.054-0.095 0.124-0.145 0.155l-0.042 0.026-3.822 0.003c-2.102 0.001-3.879 0.006-3.949 0.009-0.108 0.006-0.133 0.004-0.167-0.014zM16.438 25.145c0.907-0.077 1.723-0.434 2.319-1.015 0.601-0.586 0.947-1.327 1.054-2.258 0.024-0.211 0.028-0.716 0.006-0.889-0.087-0.707-0.344-1.32-0.78-1.864-0.613-0.763-1.521-1.237-2.548-1.329-0.195-0.017-0.576-0.015-0.771 0.006-1.555 0.162-2.797 1.239-3.166 2.744-0.106 0.433-0.142 0.982-0.093 1.419 0.031 0.273 0.116 0.612 0.225 0.89 0.456 1.168 1.442 2.011 2.627 2.244 0.079 0.016 0.194 0.034 0.254 0.041s0.125 0.014 0.144 0.017c0.082 0.009 0.601 0.006 0.727-0.005zM16.071 24.868l-0.040-0.047-0.008-0.268c-0.004-0.147-0.006-0.369-0.004-0.493l0.004-0.225 0.094-0.052 0.041 0.055c0.089 0.12 0.084 0.087 0.084 0.553v0.418l-0.051 0.052c-0.028 0.029-0.058 0.052-0.066 0.052s-0.032-0.021-0.054-0.047zM14.414 24.455c-0.046-0.023-0.084-0.046-0.084-0.051s0.013-0.023 0.029-0.041c0.016-0.018 0.123-0.197 0.238-0.398 0.143-0.25 0.227-0.384 0.265-0.424 0.031-0.032 0.061-0.059 0.066-0.059s0.028 0.012 0.049 0.027c0.036 0.024 0.039 0.031 0.036 0.076-0.002 0.027-0.011 0.068-0.021 0.092-0.039 0.093-0.406 0.724-0.45 0.77l-0.046 0.050zM17.739 24.455c-0.019-0.019-0.237-0.412-0.406-0.732-0.067-0.126-0.070-0.137-0.056-0.166 0.020-0.041 0.066-0.074 0.107-0.077 0.029-0.002 0.038 0.006 0.079 0.073 0.116 0.189 0.495 0.833 0.492 0.836-0.002 0.002-0.033 0.022-0.067 0.045-0.070 0.046-0.116 0.053-0.148 0.021zM13.222 23.206c-0.119-0.032-0.219-0.064-0.219-0.070s0.569-0.322 0.863-0.479c0.18-0.096 0.185-0.097 0.252-0.038 0.042 0.037 0.049 0.068 0.027 0.117-0.018 0.039-0.644 0.407-0.807 0.474-0.036 0.015-0.049 0.014-0.116-0.003zM18.851 23.158c-0.057-0.032-0.24-0.136-0.407-0.233l-0.303-0.175v-0.132l0.086-0.008c0.047-0.004 0.098-0.005 0.113-0.001 0.070 0.018 0.728 0.412 0.754 0.452 0.008 0.013 0.018 0.037 0.023 0.053 0.006 0.026 0.001 0.035-0.047 0.066-0.030 0.020-0.068 0.036-0.085 0.036s-0.077-0.027-0.134-0.058zM15.895 22.447c-0.013-0.004-0.027-0.012-0.032-0.020s-0.009-0.085-0.009-0.172l-0-0.159h0.574l0.007 0.142c0.008 0.162 0.004 0.188-0.031 0.199-0.031 0.010-0.479 0.018-0.51 0.010zM15.338 22.158c-0.035-0.050-0.188-0.292-0.188-0.297 0-0.010 0.301-0.216 0.311-0.212 0.015 0.006 0.147 0.187 0.174 0.239 0.013 0.026 0.024 0.065 0.024 0.087 0 0.049-0.025 0.069-0.187 0.156l-0.111 0.060zM15.918 21.766c-0.102-0.156-0.186-0.29-0.188-0.298-0.004-0.017 0.331-0.243 0.445-0.299 0.046-0.023 0.093-0.042 0.105-0.042 0.028 0 0.153 0.133 0.198 0.211 0.071 0.124 0.047 0.179-0.24 0.556-0.065 0.086-0.123 0.156-0.127 0.156s-0.091-0.128-0.193-0.285zM12.778 21.555c-0.097-0.045-0.097-0.046-0.036-0.126 0.030-0.039 0.065-0.077 0.078-0.084 0.026-0.014 0.193-0.009 0.662 0.020 0.284 0.018 0.289 0.018 0.32 0.048 0.037 0.035 0.040 0.064 0.010 0.113-0.014 0.024-0.034 0.038-0.059 0.043-0.021 0.004-0.238 0.007-0.483 0.007-0.411-0-0.45-0.002-0.492-0.022zM18.485 21.552c-0.024-0.014-0.043-0.031-0.043-0.038s0.019-0.045 0.043-0.084l0.043-0.072h0.234c0.271 0 0.694 0.020 0.721 0.035 0.010 0.005 0.034 0.032 0.052 0.058l0.033 0.048-0.034 0.028c-0.019 0.016-0.046 0.033-0.061 0.039s-0.227 0.011-0.485 0.011c-0.449-0-0.459-0.001-0.502-0.025zM16.818 21.321c-0.116-0.123-0.152-0.227-0.115-0.326 0.032-0.085 0.127-0.159 0.355-0.279 0.749-0.394 1.905-0.974 1.944-0.974 0.023 0 0.115 0.029 0.131 0.041 0.008 0.006-0.044 0.093-0.069 0.116-0.039 0.036-2.141 1.465-2.172 1.477-0.010 0.004-0.039-0.018-0.074-0.055zM15.839 20.789c-0.004-0.033-0.007-0.102-0.007-0.152s-0.008-0.229-0.019-0.398c-0.022-0.365-0.017-0.79 0.012-0.96 0.010-0.060 0.036-0.177 0.058-0.26 0.044-0.168 0.057-0.254 0.076-0.479 0.023-0.282 0.060-0.45 0.11-0.497 0.026-0.024 0.028-0.024 0.083-0.006 0.1 0.033 0.092 0.013 0.154 0.393 0.151 0.923 0.162 1.040 0.169 1.68 0.003 0.289 0.002 0.573-0.003 0.632l-0.008 0.107h-0.618zM13.945 20.337c-0.238-0.125-0.72-0.405-0.749-0.435-0.017-0.018-0.032-0.043-0.032-0.054 0-0.020 0.092-0.164 0.104-0.164 0.008 0 0.506 0.282 0.727 0.411 0.106 0.062 0.173 0.108 0.173 0.119-0 0.010-0.017 0.052-0.038 0.093-0.026 0.053-0.045 0.076-0.062 0.079-0.013 0.002-0.069-0.020-0.124-0.049zM17.338 19.46c-0.034-0.015-0.063-0.059-0.063-0.096 0-0.029 0.422-0.844 0.455-0.878 0.029-0.031 0.095-0.030 0.148 0.001 0.028 0.016 0.056 0.037 0.064 0.045 0.010 0.012-0.037 0.101-0.215 0.402-0.125 0.212-0.249 0.421-0.274 0.464-0.048 0.081-0.058 0.087-0.115 0.062zM14.83 19.45c-0.016-0.019-0.199-0.349-0.366-0.659-0.095-0.175-0.132-0.256-0.124-0.264 0.015-0.015 0.152-0.027 0.193-0.017 0.017 0.004 0.050 0.026 0.074 0.048 0.044 0.040 0.074 0.098 0.134 0.256 0.017 0.046 0.057 0.119 0.089 0.162 0.134 0.182 0.22 0.423 0.169 0.474-0.019 0.019-0.153 0.018-0.168-0.001zM18.201 15.596c0.182-0.028 0.278-0.051 0.327-0.079 0.080-0.046 0.116-0.2 0.115-0.493-0.001-0.243-0.024-0.411-0.069-0.487-0.016-0.027-0.089-0.105-0.163-0.175l-0.135-0.127-0.059 0.064c-0.203 0.222-0.234 0.297-0.277 0.673-0.019 0.172-0.020 0.194-0.011 0.219 0.004 0.010 0.007 0.072 0.008 0.139 0.002 0.164 0.043 0.308 0.085 0.295 0.011-0.003 0.091-0.017 0.178-0.030zM15.439 15.561c0.17-0.015 0.255-0.031 0.274-0.049 0.010-0.010 0.017-0.077 0.022-0.211 0.011-0.302-0.027-0.72-0.076-0.811-0.013-0.024-0.069-0.091-0.125-0.149l-0.102-0.106-0.095 0.085c-0.129 0.115-0.158 0.155-0.192 0.263-0.036 0.115-0.096 0.526-0.078 0.538 0.007 0.005 0.014 0.071 0.017 0.164 0.005 0.163 0.016 0.203 0.070 0.263 0.028 0.031 0.075 0.033 0.285 0.014zM17.010 15.55c0.048-0.006 0.102-0.014 0.12-0.018l0.033-0.007-0.007-0.383c-0.008-0.448-0.026-0.63-0.070-0.705-0.035-0.059-0.104-0.124-0.168-0.157-0.054-0.028-0.083-0.029-0.126-0.007-0.040 0.021-0.144 0.13-0.168 0.177-0.051 0.099-0.176 0.755-0.166 0.872 0.011 0.125 0.082 0.203 0.207 0.228 0.069 0.014 0.24 0.014 0.344 0.001zM19.729 15.54c0.157-0.024 0.182-0.034 0.221-0.086 0.065-0.088 0.086-0.143 0.098-0.254 0.023-0.21-0.019-0.567-0.082-0.695-0.036-0.073-0.123-0.184-0.177-0.226-0.030-0.023-0.036-0.024-0.085-0.010-0.058 0.016-0.166 0.083-0.186 0.114-0.034 0.055-0.165 0.831-0.164 0.975 0 0.076 0.034 0.15 0.083 0.181 0.033 0.021 0.050 0.023 0.131 0.018 0.051-0.003 0.124-0.011 0.162-0.017zM12.789 15.522c0.099-0.030 0.099-0.029 0.128-0.227 0.031-0.207 0.035-0.403 0.010-0.495-0.032-0.121-0.069-0.181-0.286-0.464l-0.077-0.1-0.119 0.124c-0.133 0.138-0.169 0.196-0.208 0.331-0.025 0.085-0.027 0.114-0.027 0.375 0 0.36 0.017 0.428 0.121 0.473 0.042 0.018 0.383 0.006 0.456-0.016zM14.232 15.53c0.023-0.007 0.037-0.021 0.044-0.044 0.017-0.056 0.016-0.662-0.002-0.86-0.016-0.184-0.026-0.219-0.072-0.262s-0.163-0.108-0.194-0.108c-0.040 0-0.096 0.036-0.164 0.105-0.131 0.135-0.161 0.233-0.183 0.611-0.017 0.289-0.016 0.353 0.006 0.449 0.031 0.136 0.024 0.133 0.299 0.125 0.128-0.004 0.248-0.011 0.266-0.017zM13.8 11.716c0.065-0.007 0.145-0.021 0.177-0.032 0.058-0.019 0.059-0.021 0.073-0.083 0.055-0.246 0.078-0.664 0.069-1.276-0.009-0.609-0.032-0.802-0.114-0.939-0.037-0.061-0.233-0.336-0.241-0.336s-0.121 0.132-0.228 0.262c-0.040 0.049-0.084 0.112-0.098 0.14l-0.026 0.052v1.041c0 1.039 0 1.041 0.024 1.074 0.013 0.018 0.046 0.049 0.073 0.070 0.056 0.043 0.089 0.046 0.29 0.025zM15.346 11.676c0.187-0.043 0.298-0.078 0.321-0.101 0.021-0.021 0.043-0.757 0.034-1.146-0.009-0.4-0.028-0.706-0.048-0.807-0.021-0.102-0.065-0.19-0.207-0.408-0.099-0.152-0.116-0.173-0.128-0.156-0.007 0.011-0.063 0.103-0.125 0.205-0.159 0.264-0.165 0.288-0.181 0.651-0.013 0.309-0.014 1.011-0.002 1.497l0.007 0.289 0.046 0.007c0.085 0.013 0.107 0.011 0.282-0.030zM18.717 11.693c0.030-0.005 0.063-0.022 0.081-0.040l0.030-0.030 0.016-0.695c0.012-0.503 0.013-0.79 0.005-1.038l-0.011-0.342-0.042-0.085c-0.038-0.076-0.263-0.393-0.283-0.399-0.013-0.004-0.216 0.316-0.262 0.414-0.079 0.167-0.088 0.312-0.071 1.131 0.008 0.403 0.007 0.474-0.010 0.589-0.056 0.377 0.065 0.531 0.399 0.51 0.054-0.003 0.121-0.010 0.149-0.015zM17.265 11.686c0.029-0.006 0.031-0.012 0.038-0.089 0.008-0.084-0.012-1.538-0.022-1.665-0.003-0.038-0.011-0.141-0.018-0.229-0.013-0.179-0.031-0.237-0.1-0.339-0.064-0.094-0.23-0.306-0.239-0.305-0.016 0.001-0.229 0.299-0.262 0.365-0.019 0.038-0.040 0.098-0.046 0.133-0.014 0.072-0.037 1.753-0.027 1.94 0.008 0.159 0.014 0.184 0.044 0.197 0.026 0.011 0.577 0.004 0.633-0.008z"></path>
</svg>
