<!-- Generated by IcoMoon.io -->
<svg version="1.1" xmlns="http://www.w3.org/2000/svg" width="30" height="32" viewBox="0 0 30 32">
<title>lost_moorings</title>
<path d="M9.972 29.349c-2.114-0.745-4.497-0.868-6.070-0.313-1.207 0.426-1.539 0.291-1.453-0.59 0.088-0.904 0.412-0.986 3.978-1.013 2.39-0.018 3.063 0.054 4.322 0.464 2.044 0.666 4.265 0.509 6.538-0.462 1.485-0.635 1.795-0.688 4.1-0.701 1.372-0.009 2.995-0.094 3.607-0.192 1.234-0.196 2.793-1.109 2.998-1.755 0.178-0.56-0.381-1.367-1.44-2.080-0.476-0.321-1.466-1.022-2.2-1.559l-1.334-0.976-0.64 0.594c-4.561 4.234-11.087 4.326-15.479 0.218-2.12-1.983-3.142-4.245-3.336-7.385-0.217-3.511 0.857-6.135 3.531-8.633 2.574-2.404 5.73-3.377 9.106-2.808 4.086 0.689 7.095 3.289 8.855 7.65 0.745 1.846 0.417 5.83-0.652 7.927-0.629 1.233-0.33 1.694 1.907 2.94 1.94 1.080 2.935 2.215 3.205 3.654 0.19 1.012-0.146 1.636-1.364 2.529-1.569 1.151-2.953 1.477-5.778 1.359-2.265-0.094-4.555 0.221-5.182 0.713-0.119 0.093-0.75 0.372-1.403 0.62-1.737 0.66-3.554 0.597-5.816-0.201zM12.987 29.24c0.15-0.181 0.218-0.384 0.151-0.451-0.218-0.218-1.018 0.152-1.018 0.471 0 0.407 0.523 0.396 0.868-0.020zM13.846 29.137c0-0.237-0.086-0.432-0.191-0.432s-0.241 0.194-0.303 0.432c-0.073 0.281-0.007 0.432 0.191 0.432 0.167 0 0.303-0.194 0.303-0.432zM14.882 29.31c0.35-0.35 0.326-0.604-0.057-0.604-0.174 0-0.42 0.194-0.547 0.432-0.177 0.331-0.164 0.432 0.057 0.432 0.158 0 0.405-0.117 0.547-0.259zM10.948 28.541c-0.072-0.072-0.25-0.012-0.395 0.134-0.209 0.209-0.196 0.307 0.058 0.465 0.229 0.143 0.343 0.105 0.395-0.134 0.040-0.184 0.014-0.394-0.058-0.465zM11.904 29.029c0-0.178-0.146-0.324-0.324-0.324s-0.324 0.146-0.324 0.324c0 0.178 0.146 0.324 0.324 0.324s0.324-0.146 0.324-0.324zM15.963 28.719c0.054-0.162-0.027-0.243-0.189-0.189-0.156 0.052-0.326 0.222-0.378 0.378-0.054 0.162 0.027 0.243 0.189 0.189 0.156-0.052 0.326-0.222 0.378-0.378zM10.29 28.282c-0.113-0.182-0.23-0.18-0.456 0.007-0.237 0.197-0.305 0.187-0.305-0.044-0-0.177-0.268-0.315-0.663-0.343-0.415-0.029-0.632 0.045-0.581 0.199 0.045 0.135 0.271 0.259 0.503 0.276s0.614 0.14 0.851 0.273c0.469 0.264 0.894 0.023 0.651-0.37zM16.867 28.221c0-0.12-0.143-0.097-0.324 0.053-0.178 0.148-0.324 0.366-0.324 0.484 0 0.12 0.143 0.097 0.324-0.053 0.178-0.148 0.324-0.366 0.324-0.484zM3.272 28.382c0-0.178-0.097-0.324-0.216-0.324s-0.216 0.146-0.216 0.324c0 0.178 0.097 0.324 0.216 0.324s0.216-0.146 0.216-0.324zM4.009 28.351c0.075-0.195 0.092-0.399 0.037-0.453-0.171-0.172-0.559 0.173-0.559 0.497 0 0.423 0.354 0.394 0.522-0.044zM17.946 27.827c0-0.139-0.154-0.133-0.432 0.015-0.237 0.127-0.432 0.328-0.432 0.447 0 0.139 0.154 0.133 0.432-0.015 0.237-0.127 0.432-0.328 0.432-0.447zM5.106 28.058c0.073-0.119-0.067-0.216-0.311-0.216s-0.444 0.097-0.444 0.216c0 0.119 0.14 0.216 0.311 0.216s0.371-0.097 0.444-0.216zM6.077 28.058c0-0.119-0.146-0.216-0.324-0.216s-0.324 0.097-0.324 0.216c0 0.119 0.146 0.216 0.324 0.216s0.324-0.097 0.324-0.216zM6.832 28.058c0.073-0.119-0.018-0.216-0.203-0.216s-0.336 0.097-0.336 0.216c0 0.119 0.091 0.216 0.203 0.216s0.263-0.097 0.336-0.216zM7.911 28.058c0.073-0.119-0.067-0.216-0.311-0.216s-0.444 0.097-0.444 0.216c0 0.119 0.14 0.216 0.311 0.216s0.371-0.097 0.444-0.216zM18.769 27.64c0.054-0.162-0.027-0.243-0.189-0.189-0.156 0.052-0.326 0.222-0.378 0.378-0.054 0.162 0.027 0.243 0.189 0.189 0.156-0.052 0.326-0.222 0.378-0.378zM19.835 27.464c0.053-0.158-0.096-0.27-0.36-0.27-0.265 0-0.45 0.139-0.45 0.34 0 0.397 0.673 0.339 0.809-0.070zM20.92 27.444c0.062-0.186-0.042-0.264-0.288-0.216-0.212 0.041-0.428 0.205-0.481 0.365-0.062 0.186 0.042 0.264 0.288 0.216 0.212-0.041 0.428-0.205 0.481-0.365zM21.824 27.635c0.175-0.11 0.252-0.267 0.171-0.347-0.198-0.198-0.812 0.054-0.812 0.332 0 0.274 0.223 0.279 0.641 0.015zM23.072 27.464c0.053-0.158-0.096-0.27-0.36-0.27-0.265 0-0.45 0.139-0.45 0.34 0 0.397 0.673 0.339 0.809-0.070zM24.42 27.411c0.127-0.237 0.173-0.432 0.101-0.432-0.287 0-0.965 0.46-0.965 0.655 0 0.379 0.628 0.216 0.863-0.223zM25.284 27.411c0.127-0.237 0.15-0.432 0.051-0.432-0.229 0-0.698 0.464-0.698 0.691 0 0.335 0.419 0.167 0.647-0.259zM26.243 27.338c0.597-0.437 0.345-0.881-0.259-0.458-0.478 0.335-0.649 0.746-0.31 0.746 0.096 0 0.352-0.13 0.569-0.289zM27.657 26.188c0-0.238-0.080-0.242-0.432-0.023-0.237 0.148-0.432 0.455-0.432 0.683 0 0.399 0.014 0.4 0.432 0.023 0.237-0.215 0.432-0.522 0.432-0.683zM28.537 25.883c0.297-0.297 0.393-0.57 0.286-0.809-0.138-0.307-0.175-0.291-0.246 0.113-0.054 0.306-0.193 0.432-0.394 0.355-0.209-0.080-0.31 0.029-0.31 0.336 0 0.568 0.102 0.569 0.664 0.007zM28.962 24.192c-0.227-0.423-0.657-0.623-0.657-0.305 0 0.215 0.702 0.951 0.807 0.846 0.050-0.050-0.018-0.293-0.15-0.541zM28.736 23.304c0-0.278-0.615-0.529-0.812-0.332-0.080 0.080-0.003 0.237 0.171 0.347 0.418 0.264 0.641 0.259 0.641-0.015zM14.214 23.024c-0.060-0.157-0.18-0.942-0.266-1.743-0.14-1.306-0.215-1.48-0.723-1.68-2.559-1.007-4.040-2.156-4.568-3.544-0.174-0.457-0.311-0.536-0.744-0.427-0.292 0.073-1.119 0.195-1.838 0.27s-1.348 0.204-1.399 0.286c-0.051 0.082 0.194 0.754 0.544 1.495 1.419 3 5.161 5.54 8.27 5.612 0.608 0.014 0.803-0.058 0.723-0.267zM20.409 21.483c1.62-1.107 1.717-1.513 0.644-2.701-1.222-1.353-1.486-1.434-2.347-0.718-0.401 0.334-0.923 0.752-1.159 0.93-0.397 0.299-0.413 0.44-0.216 1.834 0.118 0.831 0.251 1.628 0.297 1.773 0.123 0.391 1.213-0.048 2.78-1.118zM28.089 22.424c0-0.106-0.255-0.193-0.566-0.193-0.468 0-0.521 0.054-0.308 0.311 0.262 0.316 0.874 0.233 0.874-0.118zM27.14 21.692c-0.412-0.312-0.777-0.256-0.777 0.121 0 0.112 0.267 0.2 0.593 0.196 0.562-0.007 0.572-0.023 0.184-0.317zM26.241 21.391c0.066-0.106-0.026-0.249-0.203-0.317-0.196-0.075-0.322 0.001-0.322 0.193 0 0.349 0.337 0.428 0.526 0.124zM25.394 20.725c-0.085-0.137-0.295-0.195-0.467-0.129s-0.258 0.032-0.192-0.076c0.1-0.162-0.998-0.878-1.347-0.878-0.056 0 0.323 0.38 0.842 0.845s1.029 0.765 1.131 0.666c0.102-0.098 0.117-0.291 0.032-0.428zM22.694 19.021c0-0.104-0.146-0.31-0.324-0.458-0.351-0.292-0.395-0.222-0.193 0.306 0.139 0.361 0.516 0.473 0.516 0.152zM17.144 18.473c2.408-1.174 3.783-4.061 3.166-6.647-0.953-3.994-5.054-5.826-8.73-3.9-2.941 1.54-3.945 5.496-2.124 8.367 0.616 0.971 2.109 2.2 3.028 2.492 0.998 0.317 3.746 0.133 4.66-0.313zM21.609 17.691c-0.348-0.22-0.857-0.275-0.857-0.093 0 0.16 0.949 0.503 1.073 0.388 0.056-0.052-0.041-0.185-0.216-0.295zM22.91 17.915c0-0.119-0.103-0.216-0.229-0.216s-0.169 0.097-0.095 0.216c0.073 0.119 0.176 0.216 0.229 0.216s0.095-0.097 0.095-0.216zM24.308 16.297c0.199-0.593 0.418-1.555 0.487-2.136 0.123-1.031 0.113-1.054-0.394-0.93-0.286 0.070-1.129 0.194-1.873 0.276-1.486 0.164-1.451 0.141-1.646 1.064-0.125 0.591-0.051 0.702 0.853 1.27 0.545 0.343 1.196 0.902 1.448 1.242 0.537 0.726 0.644 0.651 1.125-0.786zM22.478 17.276c0-0.246-0.712-0.658-1.119-0.648-0.162 0.003-0.066 0.189 0.226 0.432 0.554 0.462 0.893 0.544 0.893 0.216zM20.752 17.075c0-0.273-0.61-0.474-0.75-0.248-0.064 0.103 0.006 0.237 0.155 0.297 0.428 0.172 0.595 0.159 0.595-0.049zM21.075 16.189c-0.073-0.119-0.225-0.216-0.336-0.216s-0.203 0.097-0.203 0.216c0 0.119 0.151 0.216 0.336 0.216s0.276-0.097 0.203-0.216zM6.667 12.177c1.206-0.152 1.435-0.316 1.638-1.171 0.236-0.995 1.463-2.569 2.55-3.273 0.835-0.541 1.051-0.793 0.97-1.137-0.057-0.243-0.171-1.097-0.253-1.898-0.176-1.718-0.251-1.746-2.072-0.776-1.494 0.796-3.575 2.922-4.273 4.365-0.542 1.12-1.085 3-1.089 3.772-0.002 0.457 0.070 0.497 0.699 0.385 0.386-0.068 1.209-0.189 1.831-0.267zM23.072 9.805c0.623-0.080 1.133-0.234 1.133-0.341s-0.255-0.699-0.567-1.315c-0.803-1.585-2.912-3.611-4.612-4.43-1.235-0.595-4.002-1.296-4.227-1.071-0.045 0.045 0.040 0.933 0.191 1.973l0.273 1.891 1.113 0.377c1.54 0.521 2.757 1.375 3.447 2.417 0.54 0.816 0.641 0.873 1.351 0.764 0.422-0.065 1.277-0.184 1.9-0.264z"></path>
</svg>
