<!-- Generated by IcoMoon.io -->
<svg version="1.1" xmlns="http://www.w3.org/2000/svg" width="32" height="32" viewBox="0 0 32 32">
<title>lost_quantum</title>
<path d="M8.435 28.922c-0.549-0.089-1.042-0.293-2.071-0.859-0.511-0.281-0.875-0.71-1.172-1.383-0.196-0.443-0.205-0.497-0.195-1.239 0.009-0.672 0.032-0.83 0.177-1.187 0.092-0.226 0.167-0.445 0.167-0.486 0-0.118 0.811-1.359 1.090-1.667 0.236-0.261 0.743-0.626 1.218-0.878 0.223-0.118 0.464-0.297 0.535-0.396 0.163-0.229 0.362-1.189 0.415-2.003 0.040-0.604 0.052-0.642 0.337-1.089 0.27-0.422 0.296-0.498 0.295-0.856-0.001-0.322-0.043-0.476-0.234-0.851-0.128-0.252-0.375-0.614-0.549-0.806-0.509-0.559-0.561-0.696-0.561-1.476 0-0.774 0.043-0.888 0.626-1.662 0.188-0.249 0.348-0.528 0.357-0.62 0.057-0.595 0.044-0.744-0.084-0.919-0.121-0.165-0.384-0.33-0.807-0.504-0.211-0.087-0.786-0.978-1.040-1.611-0.186-0.464-0.209-0.596-0.23-1.322-0.028-0.937 0.009-1.083 0.473-1.875 0.632-1.078 1.724-1.911 2.735-2.087 0.266-0.046 0.846-0.103 1.289-0.125 0.7-0.036 0.868-0.024 1.28 0.092 0.599 0.168 0.951 0.347 1.048 0.532 0.090 0.171 0.46 0.625 0.978 1.2 0.447 0.496 0.592 0.795 0.763 1.577 0.128 0.584 0.13 0.788 0.020 1.788-0.036 0.324-0.023 0.379 0.13 0.561 0.093 0.111 0.263 0.235 0.378 0.277s0.291 0.191 0.393 0.333c0.102 0.142 0.281 0.314 0.397 0.383s0.299 0.261 0.406 0.427c0.107 0.166 0.323 0.404 0.479 0.528s0.328 0.301 0.381 0.393c0.105 0.182 0.061 0.179 1.854 0.119 0.245-0.008 0.444 0.030 0.645 0.123 0.16 0.074 0.369 0.136 0.465 0.136 0.103 0.001 0.201 0.050 0.238 0.12 0.058 0.107 0.931 0.738 1.101 0.795 0.043 0.014 0.097 0.359 0.134 0.856 0.056 0.738 0.083 0.866 0.244 1.127l0.181 0.295 0.69 0.032c0.476 0.022 0.715 0.009 0.768-0.042 0.043-0.041 0.281-0.137 0.529-0.214 0.62-0.192 3.076-0.298 3.618-0.157 0.858 0.223 1.398 0.665 1.809 1.477 0.161 0.319 0.343 0.653 0.405 0.741 0.214 0.308 0.398 1.007 0.403 1.53 0.005 0.46-0.11 1.313-0.284 2.111-0.124 0.57-0.588 1.196-1.139 1.537-0.356 0.221-1.288 0.599-1.673 0.679-0.188 0.039-0.723 0.071-1.19 0.071h-0.848l-0.647-0.327c-0.356-0.18-0.789-0.438-0.962-0.574-0.484-0.379-0.914-0.403-1.252-0.071-0.095 0.094-0.42 0.292-0.721 0.441l-0.548 0.271-1.744 0.027-0.489-0.27c-0.432-0.238-0.537-0.27-0.9-0.269-0.577 0.001-0.9 0.124-1.036 0.394-0.194 0.385-0.309 0.875-0.309 1.317 0 0.39-0.021 0.459-0.224 0.735-0.15 0.205-0.355 0.375-0.622 0.517-0.39 0.208-0.409 0.211-0.952 0.166-0.747-0.063-0.851-0.055-1.034 0.081-0.265 0.197-0.387 0.414-0.46 0.818-0.177 0.986-1.47 2.703-2.336 3.103-0.385 0.178-0.437 0.185-1.494 0.196-0.675 0.007-1.306-0.023-1.643-0.077zM14.851 23.64c0.173-0.052 0.38-0.078 0.461-0.057 0.124 0.031 0.147 0.012 0.147-0.121 0-0.087 0.061-0.213 0.135-0.281 0.207-0.188 0.309-0.43 0.354-0.842 0.038-0.347 0.069-0.404 0.401-0.746 0.49-0.503 0.765-0.593 1.816-0.591 0.655 0.001 0.932 0.034 1.484 0.173 1.342 0.339 1.92 0.302 2.415-0.154 0.5-0.461 0.599-0.887 0.339-1.451-0.129-0.28-0.145-0.416-0.145-1.249 0-0.874 0.011-0.958 0.168-1.289 0.279-0.588 0.337-0.8 0.289-1.054-0.054-0.289-0.362-0.612-0.761-0.8-0.453-0.213-0.674-0.613-0.831-1.505-0.143-0.812-0.247-1.035-0.573-1.238-0.27-0.168-0.783-0.177-1.386-0.025-0.213 0.054-0.575 0.118-0.806 0.142s-0.471 0.054-0.535 0.065c-0.164 0.029-0.801-0.27-1.116-0.524-0.195-0.157-0.285-0.289-0.337-0.495-0.039-0.155-0.159-0.392-0.266-0.527s-0.195-0.301-0.195-0.369c0-0.193-0.185-0.503-0.278-0.467-0.046 0.018-0.183-0.009-0.306-0.059s-0.498-0.111-0.834-0.135c-0.59-0.042-0.63-0.037-1.096 0.159-0.637 0.268-0.831 0.338-1.482 0.538-0.759 0.233-1.299 0.565-1.896 1.169-0.59 0.596-0.777 0.943-0.704 1.305 0.027 0.133 0.039 0.271 0.027 0.306-0.16 0.489-0.149 0.548 0.164 0.914 0.166 0.194 0.375 0.381 0.466 0.415 0.188 0.071 0.554 0.476 0.767 0.848 0.114 0.199 0.145 0.353 0.145 0.723 0 0.609-0.165 0.918-0.948 1.775-0.441 0.482-0.498 0.618-0.451 1.075 0.095 0.924 0.337 1.279 1.013 1.483 0.563 0.17 2.050 1.13 2.452 1.582 0.165 0.185 0.358 0.47 0.43 0.633 0.146 0.33 0.361 0.51 0.791 0.66 0.361 0.126 0.308 0.125 0.68 0.013z"></path>
</svg>
