<!-- Generated by IcoMoon.io -->
<svg version="1.1" xmlns="http://www.w3.org/2000/svg" width="32" height="32" viewBox="0 0 32 32">
<title>lucid_nightmare</title>
<path d="M14.318 28.659c-0.012-0.082-0.007-0.339 0.011-0.571 0.021-0.273-0.11-0.459-0.371-0.528-0.629-0.165-0.927-1.018-0.68-1.946 0.179-0.67 0.156-0.826-0.161-1.113-0.203-0.184-0.369-0.544-0.369-0.801 0-0.427-0.085-0.467-0.982-0.467-0.824 0-1.004 0.068-1.115 0.419-0.176 0.555-0.512 2.551-0.524 3.116-0.006 0.3-0.132 0.448-0.378 0.448-0.418 0-0.701-1.033-0.529-1.933 0.060-0.315-0.047-0.812-0.262-1.213-0.2-0.373-0.313-0.811-0.252-0.971 0.111-0.29-0.258-0.281-1.867 0.046-0.707 0.144-1.261 1.268-1.261 2.558 0 1.288-0.431 2.509-0.886 2.509-0.387 0-0.387-0.195-0.002-1.157 0.233-0.582 0.257-0.898 0.1-1.312-0.318-0.837-0.247-1.82 0.169-2.334 0.521-0.644 0.308-1.098-1.376-2.924-1.305-1.416-1.694-2.22-1.218-2.514 0.2-0.123 0.902-1.999 1.227-3.276 0.143-0.562 0.541-1.212 1.125-1.837l0.904-0.967-0.136-1.947c-0.129-1.845-0.109-1.998 0.376-2.904 0.389-0.726 0.514-1.254 0.519-2.191l0.007-1.234 0.377 1.092c0.416 1.204 0.364 2.711-0.123 3.588-0.234 0.422-0.235 0.694-0.007 1.785 0.225 1.076 0.365 1.341 0.851 1.618 0.554 0.315 0.603 0.312 1.030-0.077 0.321-0.293 0.45-0.638 0.455-1.22 0.004-0.446 0.129-1.031 0.277-1.3 0.229-0.413 0.227-0.554-0.012-0.919-0.345-0.527-0.060-1.481 0.442-1.481 0.248 0 0.295 0.119 0.2 0.499-0.079 0.315-0.002 0.686 0.208 1.007 0.279 0.426 0.296 0.626 0.103 1.244-0.216 0.692-0.197 0.763 0.318 1.183 0.619 0.505 0.915 0.538 2.106 0.238 0.721-0.182 0.885-0.327 1.184-1.048 0.407-0.984 0.432-1.364 0.11-1.686-0.461-0.461 0.047-0.501 0.535-0.042 0.386 0.362 0.497 0.666 0.497 1.353v0.886l1.129-0.094c1.636-0.136 1.961-0.579 2.145-2.922 0.103-1.316 0.215-1.813 0.41-1.813 0.147 0 0.325 0.291 0.394 0.647 0.364 1.867 0.57 2.698 0.811 3.268 0.252 0.597 0.331 0.633 1.523 0.707 1.496 0.093 1.847-0.162 1.653-1.208-0.096-0.52-0.013-0.829 0.377-1.394 0.392-0.569 0.525-1.065 0.613-2.293 0.062-0.862 0.162-1.646 0.221-1.743 0.284-0.46 0.504-0.077 0.5 0.87-0.002 0.575 0.046 1.464 0.108 1.976s0.024 1.088-0.084 1.282c-0.111 0.198-0.124 0.488-0.031 0.663 0.091 0.171 0.233 0.581 0.316 0.909l0.15 0.597 0.067-0.597c0.092-0.828 0.647-2.29 0.868-2.29 0.232 0 0.237 0.717 0.009 1.158-0.262 0.507 0.078 2.788 0.483 3.235 0.445 0.491 0.886 0.498 0.886 0.013 0-0.505 0.546-0.952 0.824-0.675 0.146 0.146 0.144 0.332-0.008 0.616-0.319 0.596-0.269 0.996 0.208 1.666 0.31 0.435 0.475 1.089 0.606 2.401 0.099 0.992 0.266 1.963 0.371 2.158 0.481 0.899-0.106 1.376-0.682 0.555-0.164-0.233-0.423-0.376-0.577-0.317-0.347 0.133-0.928 2.201-1.106 3.937-0.151 1.467-0.557 2.229-1.43 2.681-0.507 0.262-0.596 0.424-0.596 1.085 0 0.602-0.118 0.87-0.525 1.19-0.289 0.227-0.737 0.413-0.996 0.413-0.374 0-0.471 0.106-0.471 0.514 0 0.306-0.095 0.483-0.235 0.436-0.406-0.135-0.625-0.671-0.492-1.201 0.103-0.409 0.289-0.538 0.931-0.647 0.801-0.135 0.802-0.137 0.708-0.924-0.070-0.581-0.006-0.864 0.244-1.079 0.186-0.16 0.641-0.541 1.010-0.847 0.556-0.461 0.675-0.7 0.694-1.39 0.016-0.619-0.094-0.949-0.428-1.283l-0.449-0.449-0.941 0.497c-0.858 0.453-0.96 0.585-1.151 1.493-0.219 1.041-0.731 1.381-0.848 0.562-0.115-0.809-0.501-0.928-1.886-0.581-0.696 0.174-1.438 0.318-1.65 0.318s-0.636 0.202-0.943 0.448c-0.517 0.415-0.558 0.552-0.562 1.888-0.004 1.295-0.258 2.089-0.452 1.41-0.041-0.144-0.195-0.659-0.341-1.145l-0.267-0.884-0.133 0.648c-0.073 0.356-0.337 0.865-0.586 1.131-0.425 0.453-0.433 0.506-0.122 0.849 0.606 0.67 0.346 2.028-0.389 2.028-0.261 0-0.485-0.067-0.497-0.149zM12.942 22.207c0.509-0.377 0.649-0.398 1.175-0.18 0.686 0.284 1.019 0.153 1.019-0.4 0-0.213 0.090-0.387 0.199-0.387s0.199 0.134 0.199 0.299c0 0.396 0.616 0.378 1.497-0.042 0.577-0.275 0.788-0.294 1.099-0.1 0.85 0.531 1.982 0.231 1.989-0.527l0.004-0.526 0.761 0.991 0.474-0.446c0.261-0.245 0.573-0.446 0.693-0.446 0.143 0 0.166-0.191 0.068-0.548-0.134-0.486-0.233-0.541-0.879-0.489-0.928 0.074-0.954-0.297-0.033-0.47 0.929-0.174 1.296-0.003 1.296 0.604 0 0.377 0.104 0.504 0.411 0.504 0.534 0 1.213-0.365 1.544-0.831 0.287-0.404 1.649-1.161 2.089-1.161 0.152 0 0.438-0.179 0.636-0.398 0.351-0.388 0.348-0.398-0.141-0.398-0.276 0-0.75-0.195-1.053-0.434-0.535-0.421-0.56-0.422-0.823-0.062-0.15 0.205-0.272 0.445-0.272 0.533s-0.179 0.161-0.398 0.161c-0.228 0-0.398-0.133-0.398-0.31 0-0.171 0.085-0.258 0.189-0.194s0.283-0.059 0.398-0.273c0.326-0.609 0.935-0.701 1.532-0.232 0.783 0.616 1.587 0.543 1.959-0.176 0.276-0.534 0.274-0.604-0.023-0.771-0.18-0.101-0.516-0.134-0.747-0.075-0.378 0.097-0.392 0.074-0.136-0.238 0.188-0.229 0.44-0.307 0.747-0.23 0.375 0.094 0.463 0.036 0.463-0.305 0-0.232-0.154-0.681-0.342-1-0.306-0.518-0.448-0.578-1.354-0.578-0.557 0-1.119 0.106-1.248 0.236s-0.304 0.167-0.388 0.082c-0.084-0.084 0.049-0.317 0.295-0.517s0.448-0.504 0.448-0.675c0-0.412-0.967-0.896-2.102-1.051l-0.914-0.125 0.133 0.709c0.156 0.831-0.217 1.142-1.369 1.142-0.381 0-0.734 0.112-0.782 0.249s-0.157 0.186-0.24 0.108c-0.343-0.319 0.103-0.755 0.771-0.755 1.081 0 1.333-0.162 1.189-0.768-0.211-0.885-0.47-1.068-1.354-0.957-1.45 0.183-2.995 0.609-3.158 0.871-0.233 0.375-0.602 0.313-0.453-0.076 0.070-0.183 0.013-0.405-0.128-0.495-0.425-0.27-2.046-0.188-2.458 0.124-0.213 0.161-0.717 0.295-1.12 0.299-1.152 0.010-1.807 0.328-1.656 0.803 0.077 0.242 0.036 0.398-0.105 0.398-0.127 0-0.278-0.179-0.335-0.398-0.126-0.481-0.43-0.5-1.296-0.083-0.983 0.473-1.453 1.195-1.175 1.804 0.122 0.269 0.223 0.702 0.223 0.964 0 0.3 0.147 0.522 0.398 0.602 0.457 0.145 0.538 0.498 0.114 0.498-0.428 0-0.91-0.568-0.91-1.072 0-0.245-0.117-0.606-0.26-0.802-0.239-0.327-0.355-0.334-1.419-0.088-0.657 0.152-1.205 0.397-1.266 0.567-0.059 0.164-0.272 0.537-0.473 0.827-0.691 0.998-0.212 1.663 0.746 1.035 0.571-0.374 0.86-0.228 0.472 0.239-0.187 0.225-0.533 0.303-1.174 0.266-0.589-0.034-1.179 0.082-1.676 0.33-0.75 0.374-0.765 0.404-0.667 1.276 0.076 0.674 0.252 1.028 0.721 1.447 1.123 1.003 2.204 0.498 2.21-1.034 0.005-1.060 0.223-1.276 1.164-1.15 0.56 0.075 0.88 0.023 1.040-0.17 0.328-0.395 0.857-0.345 1.279 0.121 0.47 0.52 0.221 0.769-0.299 0.299-0.386-0.349-0.413-0.349-0.808 0.008-0.341 0.309-0.504 0.333-0.988 0.151-0.731-0.276-0.987-0.011-1.137 1.177-0.059 0.47-0.23 0.995-0.379 1.167-0.666 0.769 0.96 1.494 2.414 1.076 0.567-0.163 0.796-0.337 0.797-0.606 0.001-0.214 0.237-0.491 0.549-0.64 0.301-0.145 0.548-0.387 0.548-0.539 0-0.291 0.361-0.603 0.517-0.447 0.224 0.224-0.359 1.169-0.834 1.349-0.427 0.162-0.479 0.252-0.284 0.487 0.131 0.158 0.41 0.342 0.619 0.408s0.38 0.243 0.38 0.391c0 0.268 0.362 0.431 1.054 0.476 0.196 0.013 0.617-0.169 0.934-0.404zM14.744 19.73c-1.375-0.596-2.197-1.849-2.197-3.348 0-1.156 0.277-1.862 1.043-2.656 1.8-1.867 5.209-1.195 6.114 1.204 0.498 1.321 0.068 3.269-0.92 4.162-1.007 0.911-2.77 1.189-4.041 0.638zM17.728 18.878c0.938-0.502 1.468-1.458 1.468-2.651 0-1.674-1.225-2.853-2.964-2.853s-2.964 1.179-2.964 2.853c0 1.764 1.234 3.022 2.964 3.022 0.442 0 1.115-0.167 1.497-0.371zM14.891 18.061c-0.784-0.617-1.054-1.465-0.768-2.416 0.619-2.067 3.598-2.067 4.217 0 0.285 0.952 0.016 1.8-0.768 2.416-0.665 0.523-2.016 0.523-2.681 0z"></path>
</svg>
