<!-- Generated by IcoMoon.io -->
<svg version="1.1" xmlns="http://www.w3.org/2000/svg" width="32" height="32" viewBox="0 0 32 32">
<title>magyar</title>
<path d="M14.634 28.98c-0.116-0.013-0.508-0.053-0.87-0.088-3.992-0.386-7.218-2.067-8.99-4.687-1.147-1.695-1.757-3.795-1.757-6.049 0-0.993 0.060-1.357 0.31-1.888 0.342-0.726 1.076-1.236 2.079-1.446 0.787-0.165 3.368-0.125 4.699 0.073l0.222 0.033 0.040-0.352c0.184-1.61 1.008-3.128 2.226-4.103 0.564-0.451 1.49-0.933 2.161-1.123 0.58-0.164 1.81-0.225 2.456-0.12 1.517 0.245 2.971 1.158 3.907 2.453 0.489 0.677 0.936 1.795 1.048 2.623l0.044 0.324 0.311-0.036c0.946-0.109 2.286-0.17 3.003-0.136 2.045 0.095 3.088 0.709 3.508 2.066 0.107 0.344 0.131 0.571 0.13 1.21-0.005 3.258-1.27 6.249-3.457 8.177-1.799 1.585-4.185 2.573-7.148 2.959-0.704 0.092-3.424 0.17-3.924 0.112zM17.575 27.804c2.241-0.179 3.92-0.608 5.56-1.419 3.102-1.535 4.73-4.058 4.989-7.729 0.141-1.995-0.22-2.618-1.716-2.967-0.185-0.043-0.757-0.070-1.428-0.066-1.036 0.005-2.162 0.095-6.504 0.518-1.6 0.156-5.053 0.071-6.837-0.168-0.939-0.126-3.051-0.317-4.020-0.363-1.883-0.089-2.87 0.227-3.279 1.050-0.134 0.27-0.142 0.35-0.141 1.435 0.001 1.195 0.048 1.601 0.309 2.65 0.755 3.032 2.906 5.196 6.261 6.3 2.022 0.665 4.513 0.943 6.806 0.759zM18.899 14.979c0.399-0.032 1.021-0.090 1.381-0.13l0.655-0.073-0.042-0.307c-0.161-1.174-0.784-2.32-1.651-3.035-0.47-0.388-1.145-0.748-1.764-0.941-0.388-0.121-0.58-0.142-1.331-0.142s-0.943 0.021-1.331 0.142c-0.819 0.256-1.364 0.584-1.972 1.187-0.619 0.614-0.964 1.148-1.2 1.856-0.143 0.43-0.321 1.359-0.269 1.409 0.013 0.012 0.826 0.049 1.808 0.083 1.924 0.066 4.548 0.043 5.717-0.049zM8.723 10.538c-0.165-0.142-0.17-0.165-0.19-0.847l-0.020-0.701h-0.663c-0.623 0-0.672-0.009-0.812-0.148-0.204-0.204-0.2-0.508 0.008-0.703 0.142-0.133 0.216-0.149 0.812-0.167l0.656-0.020 0.020-0.656c0.018-0.596 0.034-0.67 0.167-0.812 0.196-0.208 0.499-0.211 0.703-0.008 0.14 0.14 0.148 0.188 0.148 0.817v0.668l0.62 0c0.51 0 0.655 0.021 0.815 0.119 0.228 0.139 0.301 0.358 0.201 0.6-0.105 0.253-0.266 0.307-0.971 0.324l-0.635 0.015-0.017 0.674c-0.016 0.635-0.026 0.684-0.175 0.832-0.199 0.199-0.444 0.203-0.667 0.012zM22.661 10.526c-0.148-0.148-0.159-0.197-0.175-0.832l-0.017-0.674-0.635-0.015c-0.705-0.017-0.866-0.071-0.971-0.324-0.1-0.242-0.027-0.461 0.201-0.6 0.16-0.098 0.305-0.119 0.815-0.119l0.62-0v-0.668c0-0.629 0.009-0.677 0.148-0.817 0.204-0.204 0.508-0.2 0.703 0.008 0.133 0.142 0.148 0.216 0.167 0.812l0.020 0.656 0.656 0.020c0.596 0.018 0.67 0.034 0.812 0.167 0.208 0.196 0.211 0.499 0.008 0.703-0.14 0.14-0.188 0.148-0.812 0.148h-0.663l-0.020 0.701c-0.020 0.682-0.025 0.705-0.19 0.847-0.223 0.192-0.468 0.187-0.667-0.012zM14.58 6.364c-0.162-0.090-0.304-0.312-0.307-0.483-0.001-0.062 0.22-0.341 0.493-0.62l0.495-0.507-0.495-0.507c-0.272-0.279-0.495-0.552-0.495-0.608 0-0.284 0.356-0.64 0.64-0.64 0.056 0 0.329 0.223 0.608 0.495l0.507 0.495 0.507-0.495c0.279-0.272 0.552-0.495 0.608-0.495 0.284 0 0.64 0.356 0.64 0.64 0 0.056-0.223 0.329-0.495 0.608l-0.495 0.507 0.495 0.507c0.272 0.279 0.495 0.55 0.495 0.602 0 0.181-0.145 0.413-0.311 0.499-0.326 0.169-0.457 0.118-0.966-0.378l-0.477-0.464-0.477 0.464c-0.506 0.493-0.658 0.552-0.968 0.38z"></path>
</svg>
