<!-- Generated by IcoMoon.io -->
<svg version="1.1" xmlns="http://www.w3.org/2000/svg" width="33" height="32" viewBox="0 0 33 32">
<title>malfunction</title>
<path d="M26.316 13.752l-0.224-0.158-0.489-0.309-0.451 0.478-0.479 0.43-0.378-0.203-0.368-0.148-0.449 0.015-0.051-0.656-0.29-0.549-0.518-0.141-0.541 0.063-0.312 0.536-0.186 0.611-0.609 0.014-0.56 0.214-0.033-0.043-0.345-0.525-0.506-0.352-0.214 0.088-0.291 0.012-0.505 0.247 0.094 0.637-0.020 0.63-0.493 0.335-0.169 0.097c0.044 0.136 0.117 0.262 0.193 0.385 0.184 0.127 0.383 0.243 0.471 0.458 0.021 0.054 0.029 0.107 0.030 0.16 0.023 0.042 0.044 0.083 0.059 0.13 0.010 0.032 0.006 0.062-0.008 0.088 0.045 0.040 0.090 0.081 0.134 0.123 0.046 0.037 0.090 0.077 0.135 0.116l0.11-0.103 0.506-0.274 0.483-0.324 0.563-0.141 0.565-0.091 0.563-0.086 0.572-0.078 0.587 0.085-0.184 0.567-0.176 0.525c0.529-0.072 1.063-0.092 1.598-0.058 0.145-0.078 0.29-0.171 0.433-0.274 0.305-0.249 0.604-0.507 0.909-0.759 0.015-0.012 0.029-0.019 0.044-0.023 0.009-0.011 0.019-0.021 0.034-0.029 0.072-0.035 0.143-0.069 0.212-0.111 0.038-0.021 0.077-0.019 0.109-0.004 0.109-0.071 0.22-0.142 0.328-0.215 0.081-0.071 0.165-0.14 0.248-0.209l0.073-0.439 0.007-0.616-0.211-0.127z"></path>
<path d="M17.794 25.051c-0.105-0.073-0.182-0.172-0.264-0.275-0.096-0.119-0.221-0.207-0.331-0.312-0.011 0-0.021-0.001-0.033 0-0.221-0.186-0.442-0.371-0.662-0.558l-0.015 0.020-0.368-0.356-0.299-0.491-0.298-0.397c-0.193 0.026-0.39 0.036-0.58 0.053-0.375 0.032-0.628 0.068-0.931 0.33-0.070 0.062-0.136 0.131-0.204 0.2l0.009 0.036 0.362 0.498-0.405 0.503-0.294 0.568 0.386 0.398 0.136 0.236 0.168 0.22 0.608-0.153 0.582-0.231 0.459 0.374 0.495 0.322 0.001 0.060-0.118 0.61-0.060 0.626 0.222 0.192 0.291 0.027 0.484 0.282 0.449-0.451 0.345-0.294c-0.038-0.286-0.077-0.573-0.081-0.861-0.001-0.092 0.003-0.185 0.009-0.276-0.016-0.201-0.028-0.4-0.035-0.599-0.007-0.069-0.009-0.138-0.012-0.207-0.007-0.016-0.016-0.030-0.024-0.046 0.004-0.015 0.005-0.030 0.008-0.045z"></path>
<path d="M25.096 23.893c-0.276 0.021-0.544 0.069-0.784 0.165-0.098-0.006-0.197-0.015-0.295-0.018-0.007 0.008-0.015 0.015-0.023 0.021-0.004 0.029-0.020 0.059-0.052 0.079-0.035 0.023-0.069 0.044-0.105 0.063-0.020 0.011-0.041 0.014-0.060 0.012-0.015 0.011-0.029 0.023-0.043 0.034-0.037 0.033-0.073 0.068-0.11 0.099l0.363 0.384 0.413 0.396-0.409 0.308-0.532 0.22-0.513 0.273-0.574 0.082-0.572 0.033-0.568 0.027-0.577 0.019-0.575-0.144 0.241-0.546 0.244-0.538 0.277-0.523 0.221-0.549 0.233-0.546 0.38-0.303 0.207 0.042 0.442 0.067 0.362 0.428c0.554 0.131 1.117 0.231 1.686 0.275 0.246 0.019 0.49 0.015 0.733 0.036-0.005 0.034-0.009 0.069-0.010 0.104zM20.646 20.564c0.023-0.16 0.121-0.283 0.259-0.366l0.034-0.048 0.114-0.020c0.097-0.034 0.204-0.052 0.311-0.055l0.218-0.039 0.071 0.067c0.207 0.050 0.388 0.165 0.469 0.347 0.055 0.056 0.102 0.124 0.135 0.204 0.127 0.308-0.010 0.677-0.303 0.833-0.037 0.020-0.079 0.034-0.122 0.047l-0.036 0.051-0.079 0.011c-0.064 0.033-0.134 0.056-0.21 0.064-0.071 0.008-0.139 0.007-0.203-0.002l-0.136 0.021-0.139-0.115c-0.067-0.037-0.127-0.085-0.179-0.14-0.033-0.025-0.061-0.051-0.087-0.079l-0.077-0.064-0.014-0.070c-0.046-0.097-0.064-0.207-0.061-0.324l-0.042-0.216 0.076-0.106zM28.36 21.411l0.582-0.244 0.546-0.266 0.020-0.532-0.082-0.534-0.582-0.175-0.636-0.154-0.082-0.621-0.237-0.56 0.478-0.433 0.351-0.513-0.225-0.494-0.105-0.258-0.165-0.253-0.646 0.159-0.612 0.073-0.431-0.399-0.067-0.085c-0.215 0.045-0.431 0.089-0.641 0.143-0.027-0.026-0.089-0.021-0.204 0.033-0.026 0.012-0.052 0.026-0.078 0.038-0.277 0.078-0.543 0.204-0.808 0.341-0.357 0.186-0.706 0.382-1.045 0.594 0.154 0.508 0.149 1.043 0.237 1.57 0.007 0.004 0.014 0.006 0.019 0.012 0.068 0.061 0.148 0.106 0.232 0.143 0.068 0.019 0.133 0.043 0.198 0.068l0.424-0.402 0.431-0.407 0.396-0.413 0.308 0.409 0.22 0.532 0.273 0.512 0.082 0.575 0.033 0.572 0.027 0.568 0.020 0.577-0.145 0.575-0.546-0.241-0.538-0.244-0.523-0.277-0.549-0.222-0.544-0.232-0.305-0.38 0.042-0.207 0.067-0.442 0.357-0.301c-0.063-0.196-0.142-0.39-0.174-0.517-0.144-0.577-0.094-1.182-0.264-1.745-0.053-0.001-0.106-0.002-0.16-0.002-0.025 0-0.045-0.008-0.062-0.019-0.002-0.001-0.004-0.001-0.007-0.001-0.014-0.001-0.025-0.004-0.035-0.009-0.263 0.005-0.528-0.034-0.788-0.041-0.152-0.003-0.3-0.003-0.448-0.007l-0.069 0.131-0.221 0.549-0.232 0.544-0.381 0.303-0.207-0.041-0.442-0.067-0.383-0.455-0.463-0.369-0.453-0.477c-0.073 0.036-0.15 0.069-0.225 0.102-0.047-0.036-0.1-0.062-0.161-0.072-0.328-0.048-0.84 0.136-1.166 0.188-0.019 0.003-0.043 0.014-0.071 0.028-0.090 0.008-0.182 0.019-0.274 0.034-0.002 0-0.006 0.002-0.009 0.002 0.024-0.039 0.047-0.079 0.072-0.118 0.202-0.324 0.505-0.706 0.861-0.956-0.233-0.11-0.507-0.43-0.547-0.587-0.020-0.082 0.007-0.153 0.016-0.23-0.044-0.075-0.086-0.149-0.125-0.225-0.060-0.090-0.121-0.183-0.184-0.272-0.004-0.005-0.005-0.011-0.008-0.017-0.009-0.006-0.017-0.012-0.025-0.019-0.172-0.127-0.333-0.246-0.428-0.432l-0.572-0.155-0.564-0.255-0.388 0.374-0.387 0.398 0.299 0.576 0.265 0.556-0.348 0.469-0.285 0.514-0.568 0.046-0.621 0.063-0.203 0.504-0.064 0.266-0.112 0.303 0.546 0.35 0.494 0.377-0.029 0.592-0.063 0.587-0.576 0.241-0.455 0.391 0.029 0.506 0.107 0.523 0.581 0.117 0.451 0.098c0.631-0.081 1.272-0.196 1.91-0.239l-0.056-0.248-0.082-0.567-0.075-0.564-0.048-0.413c-0.011-0.011-0.024-0.024-0.036-0.035-0.002-0.017-0.007-0.032-0.015-0.045-0.091-0.152-0.12-0.33-0.206-0.485-0.060-0.106-0.14-0.209-0.225-0.301 0.001 0.001 0.002 0 0.004 0.001 0.018 0.004 0.037 0.008 0.056 0.012 0.018-0.007 0.038-0.010 0.063-0.004 0.12 0.025 0.236 0.059 0.352 0.091 0.009 0.011 0.020 0.023 0.037 0.032 0.27 0.156 0.539 0.264 0.841 0.339-0.001 0.003-0.001 0.005-0.002 0.008l0.486 0.221 0.523 0.277 0.549 0.221 0.544 0.232 0.305 0.381-0.042 0.207-0.067 0.442-0.454 0.382-0.369 0.464-0.86 0.815-0.147 0.153c0.072 0.102 0.18 0.214 0.28 0.317 0.062 0.055 0.122 0.113 0.174 0.179 0.003 0.003 0.004 0.008 0.006 0.011 0.009 0.011 0.018 0.021 0.026 0.032 0.184 0.249 0.468 0.541 0.603 0.843 0.015 0.014 0.025 0.033 0.032 0.055 0.019 0.023 0.038 0.044 0.056 0.065-0.029 0.271-0.043 0.539 0.004 0.808 0.001 0.004 0.003 0.007 0.004 0.010-0.012 0.435-0.089 0.869-0.126 1.308l0.105 0.048 0.392 0.082 0.338 0.182 0.158 0.594 0.1 0.62 0.522 0.175 0.567 0.027 0.259-0.587 0.313-0.569 0.628 0.088 0.58-0.158-0.046 0.085 0.433 0.458 0.392 0.465 0.257 0.030 0.228-0.187 0.538-0.109 0.084-0.621-0.029-0.646 0.555-0.258 0.511-0.319 0.519 0.364 0.585 0.242 0.413-0.366 0.351-0.401-0.182-0.557-0.254-0.581 0.348-0.489 0.345-0.478 0.004 0.027 0.629-0.053 0.63 0.077 0.245-0.496 0.068-0.267 0.11-0.271-0.511-0.375-0.402-0.462 0.080-0.575 0.072-0.596z"></path>
<path d="M11.518 6.177l-0.245 0.435c0.267 0.148 0.566 0.221 0.83 0.378 0.004 0.002 0.008 0.005 0.011 0.008 0.005 0.001 0.011 0 0.017 0.001 0.155 0.038 0.309 0.079 0.454 0.14l0.246-0.377 0.362-0.49 0.504-0.343 0.155-0.064c0.005-0.15 0.016-0.299 0.030-0.448-0.012-0.16-0.025-0.32-0.031-0.479-0.112-0.123-0.191-0.276-0.285-0.413l-0.506 0.221-0.041 0.048-0.524-0.357-0.567-0.237-0.477 0.362-0.433 0.447 0.283 0.58 0.218 0.587z"></path>
<path d="M20.518 10.745l-0.213-0.236c-0.626 0.060-1.251 0.132-1.878 0.191l-0.065 0.134-0.338 0.486-0.372 0.475-0.508 0.326-0.497 0.19-0.223-0.569-0.103-0.614-0.019-0.453c-0.036-0.053-0.068-0.1-0.090-0.13-0.165-0.216-0.36-0.415-0.531-0.629l-0.231 0.030c-0.002 0.004-0.005 0.007-0.009 0.011-0.002-0.001-0.004-0.001-0.007-0.002-0.002 0.009-0.007 0.016-0.009 0.025-0.174-0.009-0.337-0.020-0.492-0.080-0.127-0.115-0.247-0.242-0.364-0.35-0.010-0.026-0.011-0.054-0.002-0.080-0.043-0.139-0.047-0.29-0.025-0.455 0.004-0.037 0.024-0.065 0.049-0.084l0.219-0.259c-0.166-0.177-0.325-0.36-0.477-0.549l-0.099 0.056-0.258 0.142-0.611-0.176-0.625-0.087-0.652 0.005 0.099-0.22c-0.008-0.012-0.015-0.026-0.018-0.043-0.004-0.012-0.007-0.027-0.009-0.041 0.019-0.046 0.021-0.088-0.004-0.12-0.019-0.023-0.036-0.047-0.053-0.072-0.152-0.068-0.306-0.132-0.458-0.2-0.048-0.021-0.063-0.061-0.059-0.1-0.014 0-0.027-0.002-0.042-0.001-0.171-0.081-0.351-0.144-0.521-0.23l-0.181 0.522-0.645 0.088-0.332 0.017-0.277 0.155-0.095 0.604-0.041 0.601 0.534 0.335 0.602 0.23 0.124 0.629 0.207 0.625-0.484 0.466-0.311 0.537 0.084 0.294 0.21 0.236 0.146 0.277 0.186 0.277 0.667-0.106 0.602-0.274 0.003 0.002c0.17-0.084 0.347-0.156 0.525-0.222 0.151-0.086 0.268-0.255 0.417-0.344 0.071-0.043 0.142-0.087 0.212-0.131-0.005-0.017-0.011-0.033-0.017-0.050-0.006-0.011-0.009-0.024-0.012-0.037 0-0.001 0-0.002 0-0.003v0c-0.001-0.010-0.006-0.019-0.004-0.030l-0.402-0.302-0.328-0.493-0.2-0.481 0.566-0.223 0.611-0.103 0.625-0.025 0.042 0.008c0.017-0.014 0.034-0.025 0.051-0.037 0.063 0.182 0.22 0.329 0.397 0.444-0.002 0.001-0.002 0.002-0.003 0.003l0.005 0.012-0.172 0.595-0.085 0.61 0.008 0.636-0.56-0.266-0.238-0.16c-0.122 0.081-0.248 0.159-0.376 0.237-0.161 0.099-0.274 0.255-0.434 0.348-0.001 0.008-0.005 0.016-0.008 0.025-0.016 0.068-0.020 0.136-0.029 0.205-0.043 0.075-0.084 0.148-0.122 0.224-0.001 0.002-0.002 0.003-0.003 0.004l0.001 0.001 0.052 0.025c-0.001 0.014-0.003 0.027-0.003 0.041 0.012 0.002 0.024 0.005 0.037 0.014 0.026 0.016 0.053 0.029 0.080 0.045 0.015-0.003 0.029-0.007 0.039-0.010 0.004-0.002 0.009-0.005 0.014-0.007l0.351 0.171-0.029 0.055-0.047 0.637 0.073 0.573c0.426 0.081 0.841 0.205 1.257 0.329l0.401-0.383 0.313-0.565 0.639 0.044 0.622-0.125-0.052 0.057 0.415 0.488 0.524 0.368 0.283-0.055 0.285-0.12 0.497-0.315 0.007-0.609-0.035-0.627 0.514-0.377 0.433-0.468-0.025-0.046 0.622 0.149 0.636 0.025 0.307-0.537 0.195-0.558-0.375-0.473z"></path>
<path d="M21.345 8.14l-0.167-0.563-0.58-0.145-0.63-0.138-0.213-0.61-0.337-0.518 0.232-0.577 0.183-0.595-0.425-0.426-0.474-0.364-0.576 0.247-0.275 0.15-0.257 0.127-0.585-0.21-0.599-0.209-0.145-0.626-0.214-0.626-0.645 0.029-0.657-0.088-0.324 1.078c-0.054 0.543-0.159 1.085-0.246 1.626 0.525-0.072 1.046-0.064 1.577-0.014 0.318 0.029 0.684 0.052 0.991 0.179 0.009 0.002 0.018 0.003 0.027 0.005-0.001 0.002-0.001 0.003-0.001 0.004 0.066 0.029 0.13 0.061 0.188 0.101 0.003 0.002 0.004 0.004 0.007 0.006l0.225 0.095 0.465 0.413 0.373 0.49 0.275 0.543 0.214 0.499-0.449 0.157-0.488 0.035-0.495-0.042-0.483 0.094-0.166-0.099c-0.23 0.1-0.458 0.206-0.689 0.307 0.258 0.264 0.305 0.795 0.032 0.972l-0.068 0.112c0.178 0.059 0.359 0.114 0.542 0.151 0.141 0.029 0.295 0.025 0.434 0.062 0.2 0.054 0.223 0.234 0.268 0.406 0.224-0.045 0.528 0.024 0.689 0.046 0.352 0.049 0.722 0.049 1.079 0.096 0.114-0.029 0.216-0.085 0.269-0.186 0.043-0.084 0.091-0.184 0.123-0.286 0.008-0.115 0.017-0.232 0.017-0.348 0-0.025 0.008-0.042 0.018-0.057 0.007 0.024 0.016 0.047 0.020 0.070 0.051 0.216 0.067 0.46 0.216 0.628 0.009 0.069 0.017 0.136 0.020 0.205 0.075-0.004 0.149-0.008 0.223-0.011 0 0 0.001-0.001 0.001-0.001 0.063-0.061 0.13-0.116 0.2-0.166 0.032-0.027 0.067-0.051 0.098-0.078l0.026-0.112 0.096-0.609 0.594-0.236 0.482-0.411 0.086-0.284-0.105-0.301z"></path>
<path d="M16.172 6.45l-0.003-0.253c-0.202-0.042-0.435-0.169-0.569-0.219-0.030-0.011-0.052-0.033-0.064-0.057-0.131 0.003-0.263 0.009-0.393 0.015-0.035 0.001-0.061-0.011-0.080-0.030-0.41 0.113-0.803 0.255-1.179 0.449l0.239 0.336 0.263 0.593 0.148 0.479c0.094-0.021 0.191-0.032 0.275-0.036 0.008 0 0.017 0 0.026 0 0.035 0.091 0.069 0.183 0.108 0.271 0.033 0.071 0.087 0.107 0.153 0.136-0.002 0.004-0.002 0.010-0.005 0.015 0.078 0.050 0.152 0.103 0.219 0.164 0.025 0.019 0.047 0.039 0.071 0.059l0.441-0.223 0.029 0.017c0.2-0.183 0.404-0.36 0.61-0.534l-0.077-0.213-0.058-0.488-0.152-0.478z"></path>
<path d="M8.352 15.74c-0.010 0.005-0.018 0.011-0.026 0.016-0.009 0.005-0.019 0.012-0.029 0.018-0.041 0.025-0.087 0.063-0.126 0.107-0.091 0.029-0.184 0.054-0.282 0.071-0.078 0.004-0.156 0.004-0.233 0.001-0.155-0.107-0.285-0.259-0.332-0.377-0.056-0.143-0.073-0.365-0.034-0.567 0.073-0.056 0.158-0.135 0.192-0.211 0.25-0.075 0.64 0.012 0.802 0.131 0.099 0.075 0.158 0.167 0.188 0.272-0.010 0.162-0.063 0.362-0.12 0.539zM12.287 13.659l-0.232-0.574-0.626 0.038-0.612-0.024-0.469-0.379-0.416-0.477-0.071 0.047 0.126-0.623-0.142-0.61-0.551-0.258-0.317-0.046-0.165-0.086c-0.061-0.007-0.122-0.016-0.183-0.028l-0.353 0.512-0.335 0.498c0.023 0.018 0.041 0.044 0.039 0.085-0.001 0.038-0.001 0.077-0.002 0.114 0.002 0.007 0.003 0.015 0.005 0.021 0.004 0.020 0.003 0.038-0.001 0.055 0.007 0.037 0.011 0.075 0.018 0.112 0.074 0.015 0.135 0.047 0.213 0.070 0.007 0.002 0.015 0.004 0.023 0.005 0.164 0.202 0.386 0.339 0.603 0.486 0.051 0.035 0.099 0.073 0.147 0.113-0.309-0.079-0.619-0.211-0.937-0.23 0.001 0.012 0.003 0.024 0.003 0.036 0.002 0.009 0.007 0.019 0.009 0.028 0.024 0.127 0.003 0.202-0.039 0.326-0.092 0.265-0.176 0.536-0.271 0.799l-0.001 0.108-0.284 0.185-0.492 0.39-0.401 0.454-0.078 0.627 0.004 0.034c-0.003 0.023-0.010 0.042-0.014 0.065-0.023 0.197 0.010 0.354 0.080 0.479l0.008 0.069 0.039 0.317-0.264 0.354-0.184 0.426-0.41-0.399-0.231-0.471-0.158-0.502-0.009-0.525 0.149-0.497 0.081-0.423c-0.069-0.149-0.125-0.302-0.16-0.461-0.293-0.068-0.585-0.134-0.87-0.227l-0.156 0.406-0.62 0.089-0.649 0.175-0.069 0.33-0.011 0.325 0.017 0.638 0.592 0.22 0.564 0.283 0.191 0.577 0.224 0.586 0.052-0.029-0.348 0.54-0.16 0.599 0.434 0.437 0.162 0.3 0.301 0.214 0.6-0.309 0.507-0.356 0.58 0.184 0.159 0.056c0.125-0.356 0.34-0.691 0.512-1.014 0.121-0.228 0.231-0.584 0.428-0.764 0.030-0.052 0.065-0.098 0.107-0.141v-0.042l0.284-0.185 0.492-0.39 0.401-0.454 0.078-0.628-0.079-0.647-0.040-0.316 0.264-0.354 0.184-0.426 0.41 0.399 0.231 0.471 0.158 0.502 0.008 0.475c0.307 0.012 0.612 0.086 0.923 0.079 0.066-0.001 0.132-0.003 0.197-0.003l0.016-0.45 0.037-0.004 0.543-0.329 0.401-0.481-0.197-0.576z"></path>
<path d="M7.668 12.293c-0.094-0.133-0.202-0.252-0.308-0.373-0.087-0.086-0.16-0.186-0.227-0.287l-0.506 0.126-0.48-0.449-0.504-0.347-0.53 0.292-0.565 0.347 0.133 0.651 0.222 0.582-0.328 0.452c0.274 0.088 0.555 0.152 0.837 0.216 0.047-0.019 0.101-0.014 0.129 0.029 0.098 0.023 0.195 0.045 0.292 0.069l0.011-0.018 0.427-0.368 0.47-0.313 0.561-0.068 0.355-0.061c0.033-0.165 0.045-0.329 0.010-0.48z"></path>
<path d="M12.243 17.074l-0.401-0.491 0.015-0.089c-0.036-0.025-0.056-0.060-0.064-0.103-0.106-0.038-0.207-0.087-0.298-0.155-0.011-0.009-0.020-0.017-0.032-0.025 0.001-0.002 0.002-0.005 0.003-0.008 0.004-0.016 0.007-0.032 0.010-0.047 0 0-0.001 0-0.001-0.001-0.001-0.002-0.003-0.011-0.005-0.021l-0.038-0.047c-0.014-0.018-0.019-0.035-0.023-0.052-0.003-0.001-0.004-0.003-0.006-0.004-0.020-0.012-0.032-0.033-0.038-0.054-0.167-0.037-0.328-0.095-0.494-0.132-0.024 0.005-0.045 0.008-0.069 0.015-0.034 0.011-0.084 0.036-0.131 0.070 0.007 0.141-0.002 0.318-0.084 0.405l-0.106 0.327-0.364 0.434-0.47 0.313-0.505 0.253-0.565-0.002-0.091 0.004c-0.106 0.047-0.212 0.097-0.317 0.147-0.020 0.009-0.039 0.010-0.057 0.009-0.019 0.009-0.038 0.019-0.057 0.029-0.061 0.107-0.126 0.213-0.196 0.313-0.156 0.228-0.319 0.453-0.485 0.677l0.034 0.017 0.232 0.569 0.174 0.656 0.685-0.068 0.327 0.090 0.273-0.141 0.216-0.587 0.207-0.577 0.541-0.268 0.533-0.29 0.58 0.211 0.637 0.264 0.457-0.514 0.265-0.578-0.291-0.547z"></path>
</svg>
