<!-- Generated by IcoMoon.io -->
<svg version="1.1" xmlns="http://www.w3.org/2000/svg" width="32" height="32" viewBox="0 0 32 32">
<title>map</title>
<path d="M27.267 2.483l-9.825 3.502h-8.061l-7.338 4.355 0.694 10.422 2.211 8.838 7.217-4.331h9.167v-0.602h0.002l-0.002 0.002 0.309 0.514 7.017-4.211-1.392-8.353v-10.134zM26.067 4.184v8.531l1.273 7.647-5.514 3.308-0.564-5.070-1.192 0.133 0.594 5.334h-8.156l-0.583-3.498-1.183 0.197 0.598 3.595-5.622 3.373-1.791-7.161-0.637-9.578 6.42-3.811h7.939l8.417-3zM23.616 8.206l-1.9 1.583-1.255-1.506-0.922 0.769 1.255 1.506-1.178 0.981 0.769 0.922 1.178-0.981 1.309 1.572 0.922-0.769-1.309-1.572 1.9-1.583-0.769-0.922zM9.4 8.667v7.333h1.2v-7.333h-1.2zM15.613 10v1.333h1.2v-1.333h-1.2zM12.278 11.333v1.334h1.2v-1.334h-1.2zM16.945 12.667v1.333h1.2v-1.333h-1.2zM20.764 13.811c0 0-0.292 0.878-1.123 1.784s-2.146 1.805-4.308 1.805c-2.627 0-4.94 0.268-6.589 1.273-0.824 0.503-1.476 1.214-1.83 2.133s-0.412 2.018-0.17 3.305l1.18-0.222c-0.212-1.132-0.143-1.991 0.111-2.652s0.691-1.147 1.334-1.539c1.287-0.785 3.427-1.098 5.964-1.098 2.505 0 4.19-1.1 5.192-2.194s1.378-2.217 1.378-2.217l-1.139-0.378zM24.067 18.667v1.333h1.2v-1.333h-1.2z"></path>
</svg>
