<!-- Generated by IcoMoon.io -->
<svg version="1.1" xmlns="http://www.w3.org/2000/svg" width="32" height="32" viewBox="0 0 32 32">
<title>marrakesh</title>
<path d="M2.32 26.992l-0.025-0.005v-21.987h3.589l0.007 0.051c0.004 0.028 0.007 4.966 0.007 10.973v10.922l-0.054 0.054-1.75-0.002c-0.962-0.001-1.761-0.004-1.774-0.006zM6.092 26.977l-0.029-0.023v-10.926c0-6.009 0.003-10.949 0.007-10.977l0.007-0.051h4.983v1.411c0 1.383 0 1.412 0.021 1.433 0.012 0.012 0.038 0.024 0.058 0.028s2.294 0.005 5.053 0.003l5.016-0.003 0.050-0.050v-2.822h4.978l0.009 0.025c0.005 0.014 0.011 4.928 0.012 10.967l0.003 10.943-0.065 0.065-0.505-0.003c-0.468-0.003-0.507-0.005-0.525-0.023s-0.020-0.161-0.022-3.116l-0.003-3.096-0.029-0.023c-0.016-0.013-0.040-0.023-0.054-0.023s-0.040-0.012-0.057-0.027c-0.037-0.031-0.034-0.010-0.068-0.451-0.048-0.611-0.063-0.714-0.148-1.021-0.17-0.61-0.303-0.884-0.55-1.132-0.177-0.177-0.299-0.242-0.455-0.241-0.116 0.001-0.178 0.024-0.319 0.116-0.292 0.192-0.512 0.539-0.653 1.031-0.045 0.156-0.129 0.533-0.153 0.686-0.022 0.139-0.039 0.448-0.039 0.698-0 0.3-0.012 0.339-0.098 0.339-0.025 0-0.053 0.008-0.068 0.021l-0.026 0.021-0.006 3.098c-0.005 2.955-0.006 3.099-0.025 3.117s-0.059 0.020-0.588 0.023c-0.312 0.002-0.584 0-0.603-0.003s-0.043-0.014-0.052-0.023c-0.015-0.015-0.017-0.553-0.017-5.143 0-4.797-0.001-5.128-0.019-5.153-0.025-0.036-0.036-0.043-0.073-0.043-0.017-0-0.042-0.011-0.056-0.026-0.028-0.028-0.025 0.014-0.051-0.677-0.025-0.679-0.035-0.799-0.105-1.181-0.021-0.115-0.048-0.277-0.060-0.361-0.034-0.235-0.116-0.535-0.289-1.062-0.121-0.369-0.186-0.531-0.322-0.802-0.458-0.914-1.098-1.63-1.875-2.095-0.378-0.226-0.889-0.45-1.222-0.536-0.277-0.071-0.768-0.148-0.944-0.148-0.199 0-0.977 0.181-1.313 0.306-0.748 0.278-1.431 0.763-1.95 1.385-0.483 0.579-0.914 1.412-1.104 2.129-0.018 0.070-0.068 0.254-0.109 0.408-0.166 0.617-0.208 0.881-0.246 1.56-0.031 0.555-0.041 0.819-0.034 0.923 0.009 0.142 0.001 0.158-0.089 0.162-0.051 0.003-0.072 0.009-0.088 0.026-0.020 0.022-0.021 0.167-0.026 5.168l-0.005 5.145-0.026 0.021c-0.025 0.020-0.046 0.021-0.595 0.018-0.529-0.003-0.571-0.004-0.589-0.023s-0.020-0.161-0.022-3.116l-0.003-3.096-0.029-0.023c-0.016-0.013-0.042-0.023-0.059-0.023s-0.042-0.011-0.057-0.025c-0.032-0.030-0.028 0.001-0.080-0.597-0.047-0.545-0.060-0.614-0.217-1.13-0.077-0.253-0.112-0.346-0.182-0.482-0.131-0.254-0.374-0.515-0.563-0.605-0.064-0.030-0.082-0.034-0.176-0.034-0.088 0-0.115 0.005-0.173 0.029-0.338 0.142-0.589 0.468-0.766 0.992-0.057 0.17-0.187 0.725-0.204 0.873-0.007 0.057-0.023 0.286-0.037 0.508-0.022 0.367-0.027 0.406-0.047 0.434-0.016 0.021-0.036 0.032-0.065 0.036-0.058 0.008-0.068 0.016-0.081 0.063-0.008 0.028-0.011 1.034-0.011 3.107l-0 3.066-0.029 0.023c-0.028 0.022-0.040 0.023-0.526 0.023s-0.497-0-0.526-0.023zM26.441 26.972l-0.027-0.027 0.003-10.953c0.002-6.055 0.007-10.962 0.012-10.973 0.009-0.018 0.105-0.019 1.799-0.019h1.789v21.964l-0.051 0.017c-0.046 0.016-0.226 0.017-1.774 0.017h-1.723zM11.295 7.7c-0.013-0.006-0.029-0.023-0.036-0.038-0.009-0.019-0.012-0.352-0.012-1.164 0-1.135 0-1.137 0.023-1.191 0.013-0.030 0.027-0.054 0.031-0.054 0.030 0 0.078 0.116 0.192 0.461 0.069 0.208 0.128 0.394 0.132 0.413 0.015 0.073 0.026 0.075 0.29 0.075 0.256 0 0.293-0.006 0.325-0.056 0.009-0.014 0.044-0.124 0.077-0.243 0.1-0.364 0.189-0.626 0.217-0.642 0.034-0.019 0.179-0.014 0.211 0.006 0.034 0.022 0.056 0.081 0.175 0.479 0.136 0.45 0.128 0.428 0.154 0.443 0.015 0.008 0.105 0.014 0.253 0.017 0.272 0.005 0.31-0.003 0.331-0.064 0.055-0.161 0.134-0.412 0.184-0.59 0.061-0.214 0.080-0.263 0.11-0.288 0.009-0.008 0.054-0.017 0.1-0.020 0.070-0.005 0.086-0.003 0.105 0.013 0.023 0.021 0.066 0.147 0.175 0.511 0.037 0.124 0.080 0.264 0.095 0.311 0.040 0.121 0.041 0.122 0.317 0.127 0.236 0.004 0.289-0.003 0.316-0.045 0.017-0.027 0.085-0.242 0.173-0.55 0.070-0.246 0.093-0.305 0.126-0.337 0.024-0.022 0.035-0.025 0.104-0.021 0.093 0.005 0.127 0.026 0.164 0.1 0.014 0.028 0.072 0.213 0.129 0.411 0.125 0.436 0.118 0.425 0.275 0.438 0.054 0.004 0.161 0.005 0.238 0.002 0.129-0.006 0.144-0.009 0.178-0.034 0.041-0.032 0.070-0.108 0.169-0.457 0.082-0.286 0.121-0.408 0.139-0.436 0.032-0.048 0.136-0.053 0.21-0.010 0.069 0.041 0.098 0.111 0.218 0.528 0.038 0.133 0.076 0.265 0.083 0.294 0.016 0.061 0.053 0.102 0.1 0.111 0.019 0.004 0.125 0.007 0.236 0.007 0.218 0 0.262-0.009 0.293-0.057 0.009-0.014 0.067-0.196 0.128-0.405s0.12-0.398 0.13-0.422c0.023-0.055 0.070-0.083 0.137-0.083 0.111-0 0.156 0.042 0.189 0.176 0.010 0.042 0.046 0.153 0.078 0.248s0.075 0.233 0.094 0.308c0.035 0.141 0.063 0.197 0.106 0.219 0.017 0.008 0.105 0.012 0.265 0.011 0.289-0.002 0.277 0.004 0.323-0.153 0.016-0.056 0.066-0.22 0.111-0.365s0.087-0.285 0.093-0.31c0.025-0.098 0.11-0.154 0.209-0.138 0.090 0.014 0.095 0.024 0.213 0.438 0.115 0.405 0.136 0.462 0.178 0.501 0.027 0.025 0.032 0.026 0.26 0.027 0.128 0.001 0.248-0.003 0.268-0.009 0.029-0.008 0.039-0.020 0.058-0.070 0.012-0.033 0.023-0.064 0.023-0.070s0.044-0.147 0.098-0.315c0.054-0.168 0.11-0.348 0.125-0.399 0.022-0.078 0.030-0.093 0.047-0.090 0.011 0.002 0.024 0.007 0.029 0.011s0.008 0.546 0.009 1.204l0 1.197-0.057 0.049-4.846-0.001c-3.313-0-4.853-0.004-4.869-0.012z"></path>
</svg>
