<!-- Generated by IcoMoon.io -->
<svg version="1.1" xmlns="http://www.w3.org/2000/svg" width="32" height="32" viewBox="0 0 32 32">
<title>memorials_of_the_lost</title>
<path d="M21.437 14.538c0.003 0.020 0.005 0.043 0.005 0.065 0.008-0.018 0.015-0.035 0.023-0.050-0.010-0.005-0.020-0.010-0.028-0.015z"></path>
<path d="M8.12 20.785c-0.073 0.113-0.161 0.256-0.176 0.384-0.020 0.158 0 0.346 0.003 0.504 0.005 0.289-0.070 0.555-0.266 0.781-0.108 0.125-0.223 0.221-0.311 0.369-0.058 0.098-0.105 0.208-0.168 0.301-0.013 0.015-0.028 0.033-0.045 0.050-0.105-0.068-0.221-0.118-0.366-0.131-0.156-0.010-0.309 0.008-0.459 0.045-0.329 0.085-0.635 0.088-0.974 0.1-0.193 0.008-0.286 0.023-0.467-0.015-0.221-0.045-0.439-0.038-0.66 0-0.098 0.015-0.208 0.058-0.304 0.063-0.078 0.005-0.151-0.028-0.226-0.025-0.299 0.003-0.612-0.035-0.914 0.005-0.063 0.008-0.128 0.025-0.193 0.045 0.141-0.060 0.284-0.12 0.424-0.183 0.223-0.093 0.386-0.226 0.577-0.364 0.331-0.241 0.67-0.512 0.936-0.828 0.143-0.168 0.264-0.356 0.404-0.527 0.113-0.141 0.183-0.306 0.286-0.452 0.148-0.208 0.324-0.399 0.489-0.595 0.146-0.173 0.256-0.329 0.381-0.517 0.128-0.201 0.316-0.374 0.467-0.562 0.11-0.138 0.211-0.261 0.291-0.419 0.008-0.018 0.013-0.035 0.023-0.053 0.238 0.291 0.392 0.617 0.582 0.971 0.123 0.223 0.294 0.477 0.494 0.637 0.113 0.088 0.206 0.186 0.301 0.284-0.050 0.030-0.090 0.070-0.131 0.131zM7.731 17.986c0.269-0.115 0.399-0.271 0.552-0.477 0.030 0.050 0.060 0.1 0.095 0.151 0.115 0.183 0.276 0.304 0.392 0.484 0.048 0.075 0.093 0.173 0.153 0.241 0.053 0.060 0.103 0.065 0.156 0.115 0.063 0.058 0.183 0.241 0.211 0.321 0.015 0.050-0.010 0.085 0.003 0.133 0.035 0.11 0.123 0.264 0.178 0.374 0.055 0.115 0.133 0.228 0.208 0.339-0.063 0.113-0.133 0.228-0.186 0.334-0.070 0.136-0.161 0.271-0.216 0.414-0.216-0.166-0.432-0.311-0.625-0.502-0.196-0.193-0.437-0.354-0.648-0.53-0.158-0.128-0.366-0.246-0.502-0.392-0.163-0.178-0.271-0.442-0.394-0.663 0.173-0.143 0.422-0.256 0.622-0.344zM9.182 16.997c0.093 0.090 0.181 0.201 0.286 0.274 0.115 0.080 0.294 0.261 0.444 0.211 0.088-0.028 0.196-0.186 0.261-0.251 0.125-0.128 0.248-0.266 0.384-0.387 0.015 0.050 0.030 0.1 0.050 0.148 0.055 0.128 0.108 0.251 0.153 0.381-0.020 0.035-0.043 0.070-0.060 0.108-0.138 0.281-0.336 0.522-0.479 0.806-0.038 0.075-0.078 0.151-0.115 0.226-0.073-0.083-0.151-0.163-0.238-0.228-0.085-0.065-0.163-0.105-0.228-0.188-0.090-0.11-0.163-0.251-0.241-0.371-0.158-0.243-0.316-0.484-0.474-0.728v-0.003c0.038-0.040 0.070-0.085 0.103-0.133 0.050 0.048 0.108 0.093 0.156 0.136zM11.086 18.549c0.013 0.040 0.025 0.080 0.043 0.12 0.108 0.311 0.258 0.555 0.504 0.735-0.003 0.030-0.005 0.063-0.008 0.093 0 0.045 0 0.090 0 0.133-0.030 0.058-0.068 0.11-0.113 0.148-0.010 0.010-0.023 0.013-0.033 0.020-0.196-0.173-0.412-0.316-0.64-0.444 0.013-0.050 0.020-0.108 0.033-0.178 0.028-0.168 0.103-0.339 0.158-0.507 0.015-0.043 0.033-0.083 0.055-0.12zM9.581 21.427c0.404 0.005 0.577-0.321 0.768-0.653-0.018-0.090-0.035-0.178-0.040-0.266-0.005-0.070 0.008-0.151 0.028-0.228 0.010 0.005 0.018 0.013 0.028 0.020 0.078 0.048 0.166 0.060 0.241 0.098 0.025-0.025 0.050-0.050 0.075-0.075 0.013-0.013 0.030-0.023 0.043-0.035 0.105 0.11 0.241 0.181 0.427 0.186 0.143 0.003 0.228 0.018 0.361 0.048 0.146 0.035 0.289-0.008 0.432 0.013 0.158 0.023 0.173 0.1 0.319-0.045 0.090-0.093 0.11-0.201 0.186-0.309 0.113-0.166 0.231-0.294 0.306-0.489 0.053-0.136 0.118-0.294 0.143-0.437 0.018-0.1 0.025-0.356-0.008-0.452-0.018-0.050-0.040-0.085-0.063-0.12 0.070-0.083 0.143-0.161 0.221-0.236-0.050-0.053-0.103-0.098-0.141-0.163-0.033-0.060-0.058-0.125-0.078-0.188 0-0.030-0.003-0.063-0.005-0.090-0.020-0.412 0.053-0.806 0.138-1.207 0.015-0.073 0.040-0.113 0.040-0.191 0.003-0.038-0.003-0.073-0.005-0.113 0.055-0.105 0.11-0.211 0.156-0.339 0.008-0.020 0.013-0.040 0.018-0.060 0.008-0.013 0.015-0.025 0.023-0.038 0.010-0.018 0.025-0.040 0.035-0.063 0.088-0.113 0.176-0.231 0.264-0.349-0.035-0.018-0.070-0.033-0.108-0.048-0.198-0.088-0.432-0.201-0.658-0.166-0.125 0.023-0.075 0.068-0.246-0.010-0.146-0.063-0.256-0.166-0.419-0.141-0.141 0.075-0.276 0.161-0.409 0.251-0.053 0.221-0.058 0.432 0.003 0.65-0.043 0.040-0.088 0.078-0.128 0.12-0.023 0.025-0.040 0.050-0.063 0.073-0.040-0.148-0.088-0.291-0.143-0.434-0.018-0.050-0.033-0.103-0.038-0.161-0.060 0.050-0.118 0.105-0.171 0.168-0.136 0.191-0.289 0.364-0.464 0.514-0.090 0.005-0.178 0.013-0.253 0.013h-0.326c-0.070 0-0.148 0.008-0.218 0.003-0.095-0.005-0.188-0.055-0.281-0.055-0.078 0.003-0.148 0.090-0.231 0.060-0.075-0.028-0.033-0.060-0.073-0.115-0.043-0.018-0.078-0.048-0.098-0.093-0.010-0.033-0.020-0.068-0.030-0.1-0.058-0.090-0.123-0.12-0.193-0.196-0.105 0.055-0.178 0.035-0.301 0.053-0.115 0.015-0.065-0.018-0.125 0.060-0.020 0.025-0.060 0.161-0.068 0.196-0.010 0.060 0.023 0.125 0.010 0.186-0.020 0.1-0.115 0.161-0.141 0.261-0.010 0.048 0.010 0.105 0.003 0.153-0.003 0.023-0.010 0.040-0.015 0.058-0.143 0.11-0.274 0.233-0.371 0.321-0.264 0.231-0.497 0.6-0.786 0.786-0.176 0.113-0.432 0.146-0.635 0.186-0.186 0.020-0.366 0.055-0.545 0.108-0.090 0.201-0.183 0.417-0.309 0.585-0.243 0.329-0.359 0.592-0.371 1.004-0.003 0.148 0.008 0.216-0.060 0.341-0.075 0.128-0.105 0.168-0.221 0.274-0.12 0.118-0.241 0.218-0.369 0.326-0.271 0.233-0.484 0.477-0.708 0.755-0.131 0.168-0.274 0.296-0.422 0.449-0.125 0.133-0.148 0.213-0.294 0.304-0.289 0.173-0.567 0.394-0.848 0.582-0.136 0.090-0.256 0.188-0.339 0.331-0.030 0.058-0.055 0.123-0.075 0.183-0.010 0.035-0.008 0.058-0.015 0.088 0.033-0.003 0.063-0.003 0.1 0 0.153 0.010 0.301 0.028 0.464 0.043 0.226 0.020 0.447 0.065 0.663 0.023 0.156-0.028 0.296 0.013 0.462 0.043 0.768 0.143 1.513 0.336 2.289 0.417 0.226-0.151 0.51-0.231 0.766-0.256 0.211-0.023 0.464 0.060 0.715 0.151 0.048-0.113 0.080-0.228 0.108-0.346 0.010 0 0.020 0 0.028-0.003 0.136-0.028 0.279-0.153 0.374-0.246 0.138-0.136 0.248-0.246 0.231-0.447-0.010-0.151-0.070-0.253-0.065-0.412 0.015-0.489 0.514-0.758 0.861-1.014 0.070-0.053 0.181-0.12 0.286-0.201 0.11 0.055 0.226 0.105 0.361 0.108z"></path>
<path d="M1.712 12.48c0.151 0.028 0.304 0.053 0.454 0.080 0.238 0.043 0.444 0.020 0.683 0.008 0.409-0.020 0.843-0.063 1.237-0.181 0.216-0.065 0.414-0.156 0.625-0.226 0.173-0.053 0.321-0.156 0.489-0.221 0.238-0.093 0.489-0.158 0.733-0.231 0.218-0.065 0.394-0.136 0.602-0.223 0.083-0.038 0.173-0.065 0.266-0.093 0.050 0.389-0.003 0.758-0.035 1.172-0.020 0.253-0.015 0.56 0.065 0.803 0.070 0.216 0.095 0.427 0.146 0.643 0.028 0.123 0.093 0.243 0.141 0.366 0.108 0.258 0.208 0.522 0.339 0.771-0.103 0.090-0.208 0.173-0.304 0.269-0.078 0.080-0.136 0.171-0.208 0.253-0.138 0.161-0.326 0.258-0.472 0.404-0.033 0.035-0.070 0.073-0.105 0.108-0.188-0.238-0.374-0.482-0.545-0.743-0.188-0.289-0.183-0.627-0.477-0.851-0.123-0.095-0.264-0.161-0.409-0.211-0.321-0.113-0.58-0.276-0.871-0.449-0.168-0.1-0.251-0.138-0.381-0.269-0.161-0.158-0.349-0.269-0.555-0.361-0.090-0.040-0.206-0.063-0.291-0.113-0.065-0.040-0.108-0.103-0.173-0.143-0.251-0.163-0.492-0.361-0.768-0.494-0.058-0.028-0.12-0.050-0.186-0.068zM6.501 5.726c-0.025-0.073-0.018-0.151-0.040-0.223-0.090-0.284-0.146-0.595-0.271-0.873-0.028-0.058-0.060-0.115-0.098-0.171 0.098 0.118 0.196 0.236 0.294 0.354 0.156 0.186 0.329 0.301 0.517 0.447 0.329 0.243 0.688 0.492 1.067 0.655 0.206 0.088 0.419 0.148 0.622 0.231 0.166 0.068 0.346 0.085 0.517 0.141 0.241 0.083 0.474 0.193 0.708 0.296 0.208 0.093 0.392 0.151 0.607 0.216 0.228 0.068 0.447 0.198 0.673 0.284 0.11 0.045 0.218 0.083 0.329 0.113-0.156 0.173-0.326 0.334-0.502 0.514-0.181 0.181-0.371 0.419-0.467 0.658-0.083 0.211-0.201 0.386-0.299 0.582-0.058 0.115-0.088 0.248-0.128 0.374-0.053 0.161-0.105 0.321-0.156 0.484-0.186 0.010-0.371-0.003-0.557 0.013-0.11 0.010-0.213 0.043-0.324 0.060-0.206 0.035-0.414-0.010-0.622 0.008-0.206 0.018-0.442 0.043-0.648 0.078-0.125 0.020-0.269 0.095-0.376 0.161-0.020 0.013-0.043 0.030-0.065 0.043 0.008-0.266 0.025-0.53 0.055-0.801 0.040-0.339 0.264-0.597 0.183-0.959-0.038-0.151-0.098-0.291-0.178-0.424-0.176-0.291-0.266-0.582-0.379-0.904-0.063-0.181-0.103-0.266-0.12-0.449-0.020-0.226-0.093-0.432-0.191-0.635-0.043-0.088-0.115-0.178-0.151-0.271zM11.875 7.259c0.068 0.005 0.136 0.015 0.193 0.048 0.068 0.038 0.133 0.090 0.196 0.146 0.003 0.203-0.008 0.404-0.080 0.592-0.033 0.080-0.095 0.153-0.151 0.218-0.043 0.050-0.088 0.12-0.153 0.148-0.055 0.025-0.115-0.003-0.158 0.048-0.095 0.108 0.271 0.301 0.361 0.392 0.078 0.075 0.188 0.163 0.228 0.271 0.035 0.090 0.013 0.218 0.013 0.316 0 0.005 0 0.010 0 0.015-0.028 0.010-0.053 0.018-0.085 0.018-0.226-0.003-0.479-0.088-0.703-0.125-0.193-0.035-0.402-0.105-0.595-0.085 0.045-0.12 0.098-0.238 0.158-0.354 0.128-0.246 0.211-0.522 0.316-0.776 0.078-0.186 0.128-0.419 0.231-0.592 0.058-0.098 0.141-0.191 0.228-0.279zM13.212 10.344c0.115-0.035 0.208-0.118 0.314-0.148 0.078-0.023 0.206-0.003 0.289 0.003 0.115 0.005 0.171 0.068 0.276 0.075 0.023 0.253-0.331 0.258-0.469 0.366-0.065 0.050-0.12 0.131-0.161 0.223-0.090 0.063-0.181 0.125-0.264 0.186-0.208 0.151-0.369 0.316-0.477 0.517-0.015 0.003-0.028 0.003-0.040 0.005 0.048-0.146 0.088-0.296 0.12-0.449 0.050-0.233 0.261-0.462 0.419-0.678-0.023-0.030-0.038-0.058-0.058-0.088 0.018-0.005 0.033-0.010 0.050-0.013zM12.361 12.864v-0.003c0.003 0 0.003-0.003 0.005-0.003-0.003 0.003-0.003 0.003-0.005 0.005zM11.204 13.76c-0.093 0.236-0.153 0.432-0.434 0.437-0.053 0-0.133-0.013-0.216-0.038 0.020-0.033 0.040-0.068 0.060-0.103 0.045-0.068 0.095-0.131 0.148-0.186-0.045-0.186-0.043-0.407-0.055-0.607 0.113-0.050 0.238-0.080 0.359-0.128 0.045-0.018 0.093-0.033 0.138-0.048-0.020 0.073-0.038 0.146-0.055 0.216-0.023 0.093-0.040 0.188-0.048 0.276 0.118-0.105 0.243-0.206 0.374-0.299 0.023-0.008 0.043-0.005 0.065-0.008-0.201 0.125-0.264 0.309-0.336 0.487zM11.912 10.59c-0.060 0.123-0.118 0.223-0.156 0.361-0.023 0.090-0.008 0.183-0.028 0.271-0.028 0.131-0.078 0.261-0.1 0.394-0.013 0.083-0.028 0.161-0.043 0.241-0.226 0.090-0.444 0.191-0.65 0.316-0.133 0.080-0.274 0.143-0.417 0.206-0.005-0.020-0.013-0.038-0.015-0.058-0.018-0.143 0.003-0.301 0.003-0.447v-0.866c0-0.11-0.008-0.228-0.010-0.344 0.068-0.025 0.138-0.050 0.206-0.083 0.193-0.098 0.386-0.231 0.59-0.309 0.12-0.050 0.296-0.040 0.427-0.050 0.123-0.008 0.206 0.033 0.299 0.085-0.048 0.088-0.050 0.178-0.105 0.281zM9.588 12.879c-0.083 0.048-0.223 0.1-0.289 0.173-0.060 0.065-0.053 0.153-0.133 0.221-0.173 0.143-0.424 0.238-0.617 0.354-0.238 0.136-0.54 0.238-0.625 0.512-0.095-0.258-0.196-0.502-0.253-0.771s-0.173-0.532-0.256-0.798c-0.058-0.191-0.171-0.404-0.203-0.6-0.038-0.216 0.003-0.467 0.025-0.7 0.168-0.055 0.319-0.108 0.472-0.193 0.141-0.083 0.256-0.226 0.414-0.258 0.233-0.043 0.537 0.008 0.773 0.048 0.324 0.055 0.53-0.028 0.813-0.136-0.013 0.176-0.020 0.351-0.023 0.535-0.003 0.216 0.068 0.407 0.065 0.62 0 0.090-0.015 0.196-0.003 0.286 0.010 0.078 0.050 0.11 0.065 0.183 0.023 0.080 0.023 0.299 0 0.384 0 0.003-0.003 0.008-0.005 0.013-0.073 0.045-0.148 0.085-0.221 0.128zM2.352 13.393c0.605 0.572 1.157 1.185 1.817 1.697 0.178 0.138 0.314 0.354 0.502 0.474 0.166 0.105 0.346 0.201 0.479 0.314 0.040 0.035 0.088 0.103 0.133 0.146 0.048 0.045 0.080 0.080 0.118 0.131 0.105 0.146 0.196 0.299 0.291 0.449 0.053 0.078 0.12 0.138 0.198 0.188-0.018 0.043-0.035 0.088-0.048 0.125-0.018 0.043-0.033 0.090-0.045 0.138 0.171-0.075 0.346-0.131 0.527-0.173 0.196-0.063 0.447-0.128 0.607-0.261 0.264-0.218 0.452-0.612 0.685-0.876 0.173-0.193 0.462-0.552 0.735-0.648 0.105-0.013 0.208-0.013 0.311-0.005 0.015 0 0.030-0.003 0.048-0.003 0.083-0.191 0.143-0.412 0.246-0.597 0.063-0.115 0.201-0.221 0.296-0.309 0.128-0.125 0.256-0.115 0.424-0.163 0.020-0.005 0.035-0.010 0.053-0.013 0.023 0.053 0.050 0.105 0.068 0.176 0.015 0.073 0.030 0.138 0.048 0.203-0.005 0.173-0.010 0.349-0.003 0.522 0.013 0.246 0.178 0.354 0.369 0.231 0.128-0.083 0.469-0.399 0.612-0.336 0.073 0.033 0.063 0.136 0.153 0.146 0.065-0.196-0.068-0.447 0.201-0.555 0.151-0.060 0.386 0.080 0.449-0.133 0.055-0.193-0.058-0.414 0.030-0.605 0.050-0.113 0.156-0.196 0.238-0.291 0.005 0.003 0.008 0.003 0.013 0.005 0.178 0.055 0.123 0.015 0.246-0.020 0.218-0.063 0.464 0.023 0.673 0.083 0.038 0.013 0.075 0.023 0.11 0.038 0.015-0.023 0.030-0.048 0.043-0.073 0.003-0.003 0.008-0.008 0.008-0.013 0.055-0.070 0.11-0.141 0.168-0.196 0.161-0.161 0.319-0.346 0.507-0.479 0.148-0.060 0.291-0.118 0.427-0.168 0.178-0.065 0.354-0.131 0.532-0.193 0.063-0.023 0.123-0.043 0.183-0.060-0.005-0.003-0.005-0.008-0.005-0.010-0.136-0.258 0.055-0.131-0.253-0.447-0.188-0.196-0.386-0.376-0.58-0.562 0.136-0.083 0.248-0.213 0.326-0.382 0.093-0.211 0.191-0.447 0.251-0.658 0.020-0.075 0.163-0.354 0.133-0.422-0.035-0.073-0.289-0.1-0.382-0.133-0.261-0.085-0.512-0.105-0.776-0.161-0.118-0.025-0.223-0.045-0.341-0.085-0.115-0.040-0.309-0.040-0.379-0.148-0.065-0.1-0.035-0.238-0.080-0.354-0.050-0.12-0.125-0.206-0.181-0.316-0.075-0.153 0.095-0.304 0.213-0.399 0.123-0.095 0.113-0.11 0.148-0.261 0.020-0.093 0.073-0.208 0.103-0.316 0.043-0.158 0.115-0.371 0.083-0.545-0.040-0.216-0.191-0.321-0.374-0.409 0.003-0.008 0.005-0.015 0.008-0.023-0.055-0.040-0.113-0.075-0.171-0.113 0.065-0.070 0.128-0.146 0.191-0.216-0.013-0.125-0.058-0.246-0.136-0.379-0.073-0.12-0.151-0.243-0.228-0.369-0.043 0.040-0.088 0.078-0.131 0.118-0.118 0.108-0.176 0.261-0.218 0.412-0.018 0.058-0.040 0.115-0.063 0.173-0.015 0-0.033-0.005-0.045-0.008-0.258-0.040-0.547-0.055-0.796-0.146-0.384-0.136-0.668-0.171-1.064-0.060-0.143 0.038-0.206 0.068-0.344 0.038-0.148-0.033-0.193-0.053-0.329-0.128-0.148-0.083-0.276-0.171-0.422-0.261-0.299-0.191-0.595-0.324-0.926-0.454-0.198-0.078-0.364-0.178-0.552-0.274-0.161-0.080-0.248-0.080-0.374-0.193-0.251-0.228-0.545-0.427-0.806-0.645-0.128-0.103-0.253-0.188-0.417-0.223-0.063-0.013-0.133-0.020-0.198-0.020-0.035-0.003-0.058 0.010-0.085 0.010 0.010 0.030 0.023 0.060 0.028 0.095 0.035 0.151 0.063 0.299 0.095 0.457 0.045 0.223 0.068 0.447 0.171 0.64 0.073 0.141 0.075 0.289 0.093 0.457 0.095 0.828 0.12 1.651 0.299 2.467 0.048 0.221 0.015 0.474 0.083 0.688 0.055 0.186 0.136 0.376 0.163 0.547 0.010 0.053 0 0.136 0.010 0.198 0.008 0.065 0.010 0.113 0.008 0.176-0.015 0.181-0.043 0.356-0.065 0.532-0.018 0.131 0.018 0.261 0.068 0.384-0.331 0.133-0.555 0.291-0.771 0.6-0.083 0.123-0.11 0.186-0.236 0.251-0.133 0.070-0.183 0.085-0.336 0.113-0.166 0.030-0.319 0.048-0.489 0.070-0.351 0.045-0.665 0.136-1.001 0.248-0.203 0.068-0.394 0.095-0.597 0.146-0.178 0.043-0.246 0.098-0.414 0.093-0.336-0.013-0.69 0.020-1.032 0.023-0.163 0.003-0.314 0.020-0.462 0.095-0.058 0.030-0.115 0.073-0.166 0.113-0.028 0.020-0.035 0.045-0.058 0.063 0.028 0.015 0.053 0.033 0.085 0.055 0.12 0.095 0.236 0.188 0.364 0.289 0.178 0.143 0.336 0.299 0.542 0.384 0.146 0.060 0.241 0.171 0.364 0.289z"></path>
<path d="M27.646 16.699c-0.161 0.138-0.299 0.291-0.454 0.429-0.128 0.113-0.6-0.577-0.72-0.457-0.168 0.171-0.361 0.321-0.542 0.474-0.166 0.138-0.291 0.264-0.432 0.422-0.108 0.115-0.241 0.216-0.366 0.316-0.218-0.349-0.306-0.725-0.434-1.137-0.008-0.025-0.020-0.053-0.028-0.080 0.020 0 0.038 0 0.058 0 0.243 0 0.489-0.023 0.728-0.060 0.055-0.010 0.118-0.053 0.161-0.055 0.073-0.003 0.178 0.040 0.256 0.048 0.161 0.013 0.321 0.008 0.484 0.008 0.213-0.003 0.484 0.043 0.683-0.048 0.178-0.083 0.351-0.173 0.542-0.208 0.133-0.025 0.243-0.1 0.376-0.143 0.203-0.063 0.422-0.075 0.635-0.105-0.326 0.166-0.665 0.359-0.946 0.597zM26.311 21.214c0.083 0.12 0.186 0.221 0.299 0.309 0.251 0.191 0.429 0.414 0.637 0.655 0.118 0.138 0.181 0.196 0.259 0.351 0.098 0.191 0.231 0.346 0.381 0.487 0.070 0.063 0.163 0.115 0.223 0.186 0.048 0.053 0.068 0.125 0.113 0.181 0.176 0.218 0.331 0.469 0.535 0.665 0.043 0.043 0.090 0.080 0.143 0.115-0.125-0.068-0.248-0.136-0.374-0.201-0.196-0.105-0.384-0.146-0.595-0.201-0.364-0.095-0.755-0.181-1.132-0.181-0.206-0.003-0.407 0.023-0.61 0.025-0.166 0-0.324 0.053-0.489 0.065-0.233 0.020-0.469 0.005-0.705 0.003-0.208 0-0.381 0.013-0.587 0.038-0.183 0.023-1.182-0.532-1.373-0.537 0.123-0.339 1.087-0.146 1.205-0.552 0.010-0.030-0.484-0.201-0.489-0.231-0.038-0.314 0.038-0.59 0.045-0.888-0.033-0.299-0.349-0.999-0.384-1.298 0.1-0.045 0.206-0.088 0.304-0.143 0.090-0.050 0.166-0.115 0.253-0.173 0.163-0.108 0.356-0.143 0.525-0.233 0.171-0.093 0.361-0.206 0.525-0.311 0.048-0.033 0.095-0.075 0.138-0.123 0.063 0.178 0.12 0.361 0.171 0.55 0.083 0.314 0.791 1.157 0.984 1.443zM22.807 18.473c-0.030-0.083-0.055-0.181-0.098-0.256-0.038-0.065-0.080-0.078-0.12-0.136-0.048-0.065-0.123-0.256-0.133-0.336-0.008-0.050 0.023-0.078 0.018-0.125-0.003-0.020-0.005-0.040-0.010-0.063 0.048-0.055 0.095-0.115 0.115-0.173 0.025-0.078-0.008-0.156 0.035-0.243 0.035-0.068 0.080-0.133 0.128-0.196 0.013 0.015 0.028 0.030 0.045 0.035 0.050 0.015 0.115-0.063 0.156-0.090 0.131-0.090 0.329-0.163 0.477-0.198 0.148-0.033 0.301-0.035 0.454-0.030 0.093 0.105 0.186 0.211 0.271 0.319 0.115 0.146 0.286 0.291 0.384 0.454 0.125 0.213 0.178 0.517 0.261 0.755-0.050 0.055-0.1 0.108-0.146 0.171-0.090 0.123-0.138 0.294-0.264 0.379-0.183 0.125-0.457 0.193-0.67 0.246-0.238 0.058-0.376 0.163-0.527 0.304-0.033-0.098-0.068-0.196-0.105-0.299-0.075-0.188-0.198-0.331-0.271-0.517zM22.714 22.998c-0.010 0.063-0.025 0.125-0.043 0.188-0.070 0.005-0.138 0.015-0.206 0.033-0.146 0.035-0.286 0.133-0.437 0.118-0.213-0.025-0.467-0.158-0.66-0.261-0.201-0.105-0.361-0.123-0.545-0.118 0.045-0.181 0.045-0.356 0.103-0.532 0.028-0.085 0.068-0.176 0.083-0.261 0.013-0.075-0.015-0.118-0.008-0.186 0.005-0.075 0.058-0.251 0.095-0.331 0.033-0.008 0.063-0.018 0.083-0.035 0.070-0.043 0.090-0.125 0.178-0.161 0.191-0.083 0.439-0.1 0.637-0.151 0.256-0.058 0.557-0.065 0.708-0.314 0.008 0.201 0.018 0.402-0.003 0.605-0.025 0.264 0.003 0.537 0 0.801 0 0.191 0.040 0.417 0.013 0.605zM21.879 25.34c-0.131 0.296-0.397 0.469-0.427 0.821-0.013 0.148 0.008 0.294 0.038 0.437 0.073 0.316 0.11 0.826 0.118 1.152 0.005 0.183 0.018 0.271-0.020 0.444-0.043 0.211-0.040 0.419-0.008 0.63 0.010 0.095 0.050 0.201 0.053 0.294 0.003 0.070-0.025 0.141-0.025 0.213-0.003 0.284-0.040 0.582-0.005 0.871 0.005 0.063 0.020 0.123 0.038 0.186-0.055-0.136-0.108-0.271-0.161-0.407-0.085-0.213-0.203-0.369-0.329-0.55-0.218-0.319-0.462-0.645-0.748-0.901-0.156-0.138-0.324-0.253-0.479-0.387-0.128-0.11-0.279-0.176-0.414-0.276-0.188-0.143-0.399-0.53-0.575-0.688-0.158-0.143-0.299-0.248-0.469-0.366-0.181-0.125-0.339-0.304-0.507-0.447 0.241-0.178 0.502-0.306 0.781-0.462 0.208-0.115 0.444-0.279 0.59-0.469 0.133-0.168 0.286-0.296 0.429-0.449 0.080-0.088 0.143-0.201 0.213-0.304 0.181-0.266 0.374-0.527 0.515-0.821l0.005-0.013c0.070 0.023 0.143 0.045 0.218 0.063 0.1 0.023 0.198 0.020 0.301 0.035 0.188 0.028 0.356 0.128 0.542 0.168 0.186 0.045 0.402 0.085 0.59 0.113 0.045 0.005 0.093 0.003 0.141 0-0.123 0.371-0.243 0.743-0.404 1.112zM17.642 26.126c-0.025-0.015-0.048-0.028-0.070-0.043-0.131-0.068-0.299-0.088-0.404-0.201-0.043-0.048-0.083-0.105-0.12-0.166 0.003 0.043 0.008 0.085 0.015 0.128 0.008 0.070 0.018 0.151 0.025 0.236-0.043-0.030-0.085-0.063-0.118-0.103-0.043-0.053-0.048-0.131-0.090-0.181-0.050-0.055-0.125-0.058-0.168-0.12-0.073-0.108-0.093-0.351-0.068-0.472 0.028-0.143 0.083-0.276 0.12-0.417 0.060-0.218 0.153-0.407 0.314-0.587 0.178-0.206 0.487-0.361 0.625-0.6 0.010-0.005 0.023-0.013 0.030-0.018 0.1-0.048 0.198-0.115 0.294-0.181 0.010 0 0.020 0 0.033 0.005 0.193 0.063 0.394 0.213 0.577 0.311 0.241 0.131 0.487 0.344 0.77 0.216 0.073-0.035 0.058-0.083 0.173-0.128 0.050-0.020 0.11-0.035 0.171-0.048-0.095 0.138-0.231 0.238-0.339 0.374-0.173 0.226-0.336 0.462-0.53 0.67-0.163 0.178-0.304 0.389-0.457 0.577-0.118 0.146-0.226 0.346-0.364 0.474-0.118 0.108-0.271 0.191-0.419 0.271zM16.447 25.049c0.003-0.093 0.013-0.171 0.060-0.261 0.028-0.048 0.058-0.088 0.093-0.131-0.035 0.136-0.088 0.266-0.153 0.392zM17.697 22.384c-0.005 0.025-0.010 0.050-0.013 0.075l-0.256 0.532c-0.085 0.090-0.171 0.181-0.246 0.284v-0.003c0.095-0.166 0.113-0.351 0.103-0.542 0.158-0.133 0.336-0.284 0.412-0.346zM17.705 22.343c-0.090-0.033-0.183-0.070-0.274-0.1-0.060-0.020-0.11-0.050-0.158-0.088 0.073-0.023 0.146-0.048 0.213-0.070 0.078-0.030 0.151-0.063 0.221-0.095 0.003 0 0.003 0 0.005 0 0.018 0.113 0.018 0.228-0.008 0.354zM18.638 22.732c0.045-0.073 0.058-0.163 0.098-0.238 0.060-0.113 0.138-0.216 0.198-0.331 0.018-0.040 0.040-0.078 0.060-0.12 0.173-0.020 0.344-0.045 0.509-0.088 0.279-0.070 0.567-0.070 0.853-0.138 0.010-0.003 0.023-0.008 0.035-0.010 0 0.003 0 0.005-0.003 0.008-0.025 0.136-0.083 0.274-0.125 0.407-0.063 0.198-0.12 0.399-0.183 0.6-0.12-0.025-0.246-0.015-0.371 0.008-0.198 0.030-0.407 0.098-0.602 0.115-0.12 0.008-0.271-0.050-0.387-0.078-0.053-0.013-0.093-0.035-0.131-0.063 0.015-0.023 0.033-0.045 0.048-0.070zM19.823 20.757c0.143-0.238 0.226-0.472 0.231-0.723 0.166-0.088 0.331-0.178 0.482-0.296 0.008 0.148 0.028 0.291 0.053 0.434 0.038 0.206-0.043 0.454-0.103 0.683-0.125 0.058-0.266 0.1-0.392 0.158-0.010 0.003-0.023 0.008-0.033 0.008l-0.409 0.020c0.060-0.095 0.118-0.193 0.171-0.284zM20.872 16.769c0.005-0.013 0.008-0.025 0.008-0.038 0.088 0.088 0.178 0.173 0.274 0.253 0.136 0.113 0.221 0.311 0.306 0.502-0.023 0.035-0.040 0.070-0.060 0.105-0.040 0.073-0.093 0.133-0.151 0.191-0.008-0.050-0.013-0.098-0.020-0.146-0.048-0.331-0.151-0.6-0.369-0.821 0.003-0.015 0.010-0.033 0.013-0.048zM21.936 18.252c0.028 0.033 0.058 0.068 0.080 0.113 0.063 0.12 0.103 0.269 0.153 0.394 0.098 0.253 0.201 0.507 0.301 0.763 0.020 0.048 0.043 0.095 0.063 0.146-0.098 0.063-0.181 0.146-0.259 0.238-0.133 0.156-0.251 0.346-0.394 0.489-0.085 0.088-0.236 0.146-0.341 0.201 0.008-0.095-0.023-0.176-0.013-0.284 0.010-0.133 0.025-0.243 0.008-0.376-0.010-0.088-0.055-0.166-0.073-0.248-0.023-0.128-0.023-0.259-0.050-0.384-0.025-0.118-0.048-0.233-0.068-0.349 0.053-0.063 0.103-0.125 0.151-0.191 0.131-0.186 0.291-0.341 0.442-0.512zM29.892 15.461c-0.018 0.018-0.043 0.028-0.063 0.043-0.055-0.033-0.173-0.083-0.203-0.090-0.151-0.045-0.264-0.080-0.429-0.078-0.138 0-0.281 0.005-0.419 0-0.088-0.005-0.12-0.040-0.191-0.058-0.093-0.025-0.163 0.008-0.251 0.025-0.125 0.028-0.253 0.048-0.361 0.080-0.203 0.060-0.422 0.105-0.62 0.178-0.211 0.080-0.384 0.213-0.572 0.331-0.133 0.085-0.246 0.161-0.409 0.143-0.211-0.025-0.459-0.146-0.635-0.258-0.183-0.118-0.233-0.191-0.341 0.035-0.055 0.115-0.143 0.201-0.241 0.291-0.065 0.058-0.163 0.138-0.236 0.183-0.118 0.075-0.226 0.043-0.356 0.060-0.010 0.003-0.018 0.005-0.025 0.005-0.013-0.025-0.023-0.050-0.035-0.073-0.048-0.010-0.095-0.023-0.143-0.040-0.103-0.040-0.183-0.090-0.253-0.148-0.033 0.003-0.063 0.003-0.095 0.003l-0.018-0.060c-0.166 0.005-0.274-0.221-0.364-0.321-0.168-0.188-0.108 0.063-0.148 0.158-0.058 0.128-0.193 0.1-0.314 0.1-0.151-0.005-0.223 0.058-0.369 0.073-0.003 0.013-0.008 0.033-0.010 0.058-0.153 0.010-0.306 0.018-0.459 0.025-0.030 0.085-0.075 0.173-0.108 0.246-0.040 0.095-0.098 0.146-0.166 0.196-0.030-0.030-0.060-0.063-0.090-0.105-0.075-0.105-0.133-0.198-0.228-0.289-0.008-0.008-0.010-0.010-0.018-0.015l-0.193 0.010c-0.467 0.025-0.934 0.050-1.4 0.073-0.274 0.010-0.555-0.003-0.816 0.098-0.168 0.065-0.316 0.163-0.452 0.279 0.1 0.228 0.176 0.467 0.246 0.708 0.020 0.068 0.018 0.113 0.053 0.176 0 0.003 0.003 0.005 0.003 0.008 0.003 0.083 0.010 0.166 0.025 0.259 0.023 0.156 0.090 0.286 0.108 0.444 0.003 0.025 0.005 0.048 0.005 0.068-0.065 0.228-0.148 0.452-0.238 0.675-0.020 0.048-0.040 0.078-0.055 0.12-0.181 0.168-0.349 0.356-0.517 0.517-0.125 0.123-0.253 0.246-0.384 0.366-0.279 0.269 0.085 0.334-0.251 0.515-0.003 0.003-0.005 0.003-0.008 0.005l-0.319 0.015-0.223 0.552c-0.033 0.015-0.065 0.028-0.098 0.043-0.12 0.063-0.211 0.166-0.319 0.248-0.161 0.12-0.284 0.141-0.464 0.208-0.434 0.161 0.201 0.515 0.311 0.7 0.088 0.148-0.028 0.376-0.033 0.542-0.003 0.095-0.040 0.12-0.058 0.196-0.020 0.085-0.008 0.191-0.008 0.281 0.005 0.248-0.123 0.474-0.128 0.733-0.003 0.153-0.033 0.284-0.055 0.437-0.030 0.201-0.013 0.417-0.008 0.622-0.053 0.103-0.113 0.203-0.173 0.304-0.108 0.181-0.060 0.259-0.020 0.477 0.018 0.1 0.013 0.093 0.065 0.168 0.033 0.048 0.105 0.141 0.143 0.181 0.093 0.095 0.211 0.166 0.301 0.264 0.141 0.148 0.146 0.178 0.351 0.176 0.005 0 0.010 0 0.013 0 0.005 0.093 0.010 0.181 0.013 0.256l0.206 0.146c0.038-0.033 0.025-0.015 0.010 0.005 0.11 0.055 0.218 0.115 0.311 0.188 0.299 0.233 0.54 0.346 0.916 0.356 0.136 0.008 0.236 0.216 0.349 0.284 0.12 0.068 0.156 0.1 0.251 0.208 0.108 0.118 0.198 0.233 0.296 0.356 0.208 0.259 0.429 0.464 0.685 0.675 0.153 0.128 0.269 0.266 0.407 0.407 0.118 0.118 0.193 0.143 0.274 0.284 0.156 0.276 0.356 0.542 0.525 0.813 0.080 0.131 0.168 0.243 0.301 0.321 0.050 0.033 0.11 0.058 0.166 0.075 0.030 0.010 0.015-0.213 0.040-0.203-0.003-0.030 0.038 0.156 0.040 0.123 0.013-0.148 0.030-0.291 0.043-0.442 0.023-0.221 0.068-0.429 0.033-0.635-0.025-0.146 0.015-0.284 0.045-0.442 0.148-0.781 0.314-1.759 0.389-2.552 0.018-0.218 0.115-0.437 0.118-0.653 0-0.186-0.015-0.384 0.008-0.545 0.008-0.063 0.053-0.158 0.050-0.221 0.085-0.284 0.236-0.54 0.339-0.806-0.060-0.161-0.063-0.349-0.058-0.54 0.12-0.033 0.241-0.058 0.359-0.065 0.376-0.023 1.433 0.437 1.732 0.196 0.108-0.090 0.151-0.138 0.279-0.163 0.133-0.028 0.181-0.025 0.324-0.008 0.153 0.018 0.294 0.045 0.447 0.073 0.321 0.055 0.62 0.068 0.946 0.055 0.196-0.003 0.371 0.025 0.562 0.038 0.168 0.010 0.241-0.020 0.387 0.030 0.294 0.108 0.612 0.176 0.909 0.269 0.143 0.045 0.281 0.073 0.429 0.045 0.060-0.010 0.123-0.033 0.176-0.055 0.030-0.013 0.048-0.033 0.070-0.040-0.020-0.023-0.038-0.045-0.058-0.075-0.083-0.12-0.156-0.238-0.238-0.364-0.118-0.181-0.213-0.369-0.369-0.504-0.11-0.095-0.161-0.226-0.236-0.366-0.371-0.693-0.68-1.408-1.114-2.061-0.118-0.178-0.981-0.946-1.112-1.109-0.115-0.143-0.248-0.281-0.331-0.419-0.028-0.045-0.050-0.12-0.078-0.173-0.030-0.053-0.050-0.095-0.068-0.151-0.050-0.163-0.088-0.329-0.131-0.494-0.018-0.075-0.058-0.146-0.103-0.206 0.025-0.028 0.048-0.060 0.075-0.085 0.276-0.266 0.427-0.492 0.504-0.878 0.030-0.138 0.033-0.203 0.118-0.309 0.088-0.108 0.507 0.693 0.627 0.61 0.269-0.181 0.522-0.306 0.881-0.555 0.040-0.028 0.078-0.065 0.11-0.103 0.196-0.241 0.407-0.356 0.62-0.525 0.136-0.1 0.171-0.176 0.319-0.233 0.291-0.115 0.577-0.274 0.866-0.404 0.138-0.063 0.261-0.131 0.361-0.253 0.035-0.048 0.070-0.105 0.098-0.161 0.015-0.028 0.018-0.050 0.028-0.078-0.028-0.003-0.058-0.008-0.090-0.015-0.095-0.028-0.191-0.055-0.286-0.085z"></path>
<path d="M17.336 19.093c0.008 0 0.013 0.003 0.018 0.003 0.003-0.003 0.005-0.008 0.005-0.013-0.008 0.005-0.013 0.008-0.023 0.010z"></path>
<path d="M13.963 23.97c-0.018-0.015-0.035-0.033-0.053-0.048-0.163-0.141-0.364-0.266-0.514-0.422-0.090-0.093-0.153-0.259-0.211-0.374-0.075-0.148-0.043-0.266-0.033-0.419 0.055-0.008 0.11-0.020 0.173-0.013 0.141 0.010 0.256 0.020 0.397 0.003 0.090-0.013 0.171-0.065 0.261-0.083 0.131-0.028 0.266-0.030 0.397-0.060 0.068-0.018 0.131-0.030 0.196-0.043 0.030 0.040 0.063 0.080 0.095 0.12 0.178 0.203 0.188 0.381 0.188 0.653 0.003 0.156-0.038 0.243-0.093 0.349-0.075 0.030-0.151 0.058-0.223 0.088-0.193 0.083-0.386 0.166-0.58 0.248zM13.197 27.185c-0.326 0.095-0.188 0.050-0.489 0.266-0.123 0.090-0.228 0.203-0.319 0.329-0.201 0.274-0.432 0.474-0.685 0.703-0.143 0.128-0.203 0.198-0.366 0.286-0.198 0.108-0.361 0.256-0.507 0.424-0.063 0.075-0.118 0.178-0.193 0.246-0.055 0.050-0.128 0.075-0.188 0.125-0.226 0.193-0.487 0.366-0.693 0.59-0.045 0.048-0.085 0.103-0.12 0.158 0.070-0.136 0.138-0.274 0.208-0.412 0.108-0.213 0.151-0.419 0.206-0.65 0.098-0.397 0.186-0.826 0.186-1.237 0-0.223-0.028-0.442-0.030-0.663-0.003-0.178-0.058-0.351-0.073-0.532-0.018-0.253-0.010-0.514-0.005-0.768 0-0.228-0.015-0.417-0.040-0.64-0.025-0.203-0.008-0.414-0.005-0.622 0.153 0.060 0.304 0.123 0.464 0.183 0.236 0.095 0.532 0.178 0.788 0.173 0.226-0.008 0.434 0.033 0.655 0.045 0.128 0.008 0.261-0.018 0.392-0.030 0.339-0.030 0.685-0.048 1.014-0.131 0.045-0.013 0.085-0.025 0.131-0.038 0.080 0.163-0.321 0.284-0.236 0.447 0.055 0.098 0.125 0.181 0.186 0.276 0.113 0.176 0.151 0.384 0.248 0.567 0.095 0.183 0.216 0.389 0.326 0.567 0.008 0.010 0.015 0.020 0.023 0.030-0.286 0.113-0.572 0.218-0.876 0.306zM10.276 23.249c0.048-0.141 0.060-0.334 0.151-0.444 0.161-0.201 0.464-0.248 0.663-0.402 0.133-0.1 0.228-0.133 0.386-0.153 0.131-0.018 0.231-0.045 0.334-0.050 0.055 0.018 0.108 0.038 0.138 0.055 0.033 0.020 0.043 0.053 0.065 0.078 0.008 0.033 0.015 0.065 0.023 0.095 0.020 0.090 0.030 0.243 0.083 0.326 0.043 0.075 0.131 0.098 0.171 0.191 0.088 0.206 0.108 0.474 0.158 0.695 0.055 0.238 0.070 0.522 0.246 0.695-0.093-0.008-0.186-0.018-0.284-0.013-0.281 0.013-0.55 0.043-0.831 0.018-0.276-0.023-0.56 0.010-0.836 0.013-0.201 0-0.437 0.048-0.635 0.020-0.015 0-0.028-0.008-0.040-0.008-0.008-0.065-0.015-0.131-0.033-0.198-0.010-0.048-0.028-0.095-0.048-0.143 0.043-0.276 0.196-0.509 0.289-0.776zM15.177 22.489l-0.384-1.154 0.783-0.65c-0.366-0.043-0.705-0.163-1.044-0.299-0.055-0.055-0.648 0.304-1.17 0.632-0.171 0.143-0.344 0.281-0.527 0.409-0.442 0.306-1.112 0.434-1.581 0.693 0.005 0.003 0.008 0.003 0.013 0.003-0.010 0.005-0.020 0.010-0.030 0.013-0.414 0.133-0.851 0.206-1.23 0.442-0.216 0.136-0.399 0.321-0.479 0.562-0.050 0.156-0.143 0.281-0.108 0.439 0.033 0.148 0.045 0.261 0.048 0.414 0.003 0.113 0.013 0.266 0.063 0.384-0.020 0.083-0.043 0.173-0.083 0.279-0.063 0.168-0.148 0.309-0.243 0.429 0.030 0.374 0.113 0.637 0.356 0.946 0.093 0.115 0.146 0.158 0.171 0.301 0.030 0.146 0.028 0.198 0.010 0.351-0.018 0.168-0.045 0.321-0.075 0.489-0.058 0.349-0.065 0.675-0.053 1.032 0.005 0.213-0.025 0.404-0.035 0.615-0.013 0.181 0.023 0.261-0.033 0.422-0.11 0.319-0.178 0.665-0.274 0.991-0.045 0.158-0.075 0.309-0.043 0.472 0.010 0.063 0.033 0.128 0.055 0.191 0.015 0.033 0.033 0.045 0.045 0.075 0.020-0.023 0.045-0.045 0.078-0.065 0.125-0.090 0.248-0.173 0.382-0.266 0.188-0.131 0.384-0.236 0.525-0.407 0.098-0.123 0.233-0.183 0.379-0.266 0.725-0.409 1.473-0.76 2.156-1.242 0.186-0.131 0.429-0.201 0.6-0.344 0.148-0.125-0.168-0.329-0.025-0.422 0.045-0.030 0.125-0.058 0.181-0.088 0.055-0.033 0.1-0.053 0.161-0.075 0.168-0.058 0.085-0.439 0.258-0.487 0.055-0.015 0.361 0.299 0.407 0.266l0.045-0.371c0.038-0.301 0.108-0.617 0.098-0.919-0.003-0.115-0.003-0.226 0.005-0.334-0.070-0.171 0.344-0.311 0.304-0.477-0.080-0.334-0.243-0.492-0.469-0.725-0.023-0.020-0.035-0.040-0.050-0.060 0.171-0.085 0.309-0.201 0.487-0.276 0.085-0.033 0.186-0.060 0.264-0.108 0.043-0.025 0.108-0.414 0.163-0.72 0.058-0.098 0.105-0.201 0.151-0.289 0.158-0.316-0.035-0.562-0.243-0.801-0.003-0.003-0.005-0.003-0.005-0.005z"></path>
<path d="M27.696 13.286c-0.141 0.1-0.198 0.279-0.326 0.386-0.148 0.12-0.444 0.058-0.64 0.058h-1.039c-0.048 0-0.201-0.018-0.341-0.023-0.010-0.010-0.020-0.023-0.030-0.035-0.12-0.146-0.238-0.289-0.364-0.429 0.068-0.128 0.141-0.256 0.198-0.389 0.043-0.1 0.065-0.208 0.1-0.311 0.070-0.196 0.203-0.354 0.286-0.54 0.040-0.093 0.080-0.196 0.123-0.299 0.228 0.153 0.457 0.314 0.68 0.494 0.251 0.203 0.354 0.522 0.683 0.635 0.138 0.043 0.279 0.060 0.424 0.058 0.314-0.008 0.59 0.060 0.898 0.123 0.035 0.008 0.065 0.013 0.093 0.020-0.264 0.023-0.517 0.085-0.745 0.251zM24.903 10.693c-0.309-0.151-0.565-0.369-0.863-0.59-0.196-0.146-0.444-0.294-0.675-0.344-0.206-0.045-0.389-0.131-0.585-0.196-0.113-0.038-0.241-0.043-0.359-0.060-0.201-0.030-0.402-0.063-0.605-0.083-0.068-0.218-0.083-0.449-0.136-0.67-0.028-0.108-0.075-0.203-0.11-0.309-0.063-0.198-0.055-0.409-0.105-0.61s-0.113-0.429-0.176-0.625c-0.008-0.023-0.018-0.043-0.028-0.065 0.331-0.053 0.66-0.105 1.004-0.125 0.314-0.018 0.585 0.156 0.904 0.015 0.015-0.008 0.030-0.020 0.045-0.028-0.095 0.201-0.181 0.407-0.226 0.63-0.043 0.218-0.279 0.585-0.188 0.803 0.108-0.030 0.221-0.211 0.294-0.296 0.090-0.11 0.153-0.188 0.264-0.281 0.093-0.078 0.146-0.193 0.251-0.258 0.136-0.080 0.301-0.043 0.449-0.045 0.221-0.005 0.427-0.078 0.648-0.11 0.243-0.038 0.417-0.103 0.632-0.208 0.045-0.023 0.1-0.040 0.158-0.058-0.030 0.173-0.053 0.344-0.088 0.514-0.035 0.176-0.023 0.356-0.048 0.535-0.035 0.253-0.098 0.502-0.153 0.75-0.050 0.218-0.078 0.409-0.1 0.632-0.023 0.236-0.105 0.477-0.151 0.71-0.025 0.128-0.043 0.248-0.053 0.371zM24.905 11.318c-0.073 0.226-0.253 0.462-0.397 0.648-0.171 0.223-0.213 0.417-0.251 0.665-0.11-0.078-0.221-0.153-0.341-0.228-0.171-0.108-0.356-0.146-0.527-0.253-0.073-0.045-0.148-0.113-0.228-0.146-0.068-0.030-0.11-0.013-0.176-0.033-0.078-0.023-0.251-0.133-0.309-0.193-0.035-0.035-0.028-0.080-0.060-0.115-0.040-0.043-0.095-0.090-0.153-0.136-0.025-0.213 0.008-0.462 0.008-0.675 0-0.158 0.018-0.329 0-0.489 0.171 0.030 0.336 0.065 0.504 0.123 0.241 0.083 0.509 0.115 0.755 0.176 0.183 0.045 0.407 0.055 0.58 0.125 0.213 0.085 0.417 0.276 0.612 0.419-0.003 0.040-0.005 0.078-0.018 0.113zM23.545 14.227c-0.161 0.183-0.231 0.108-0.459 0.073-0.035-0.008-0.070-0.013-0.108-0.018-0.070-0.075-0.138-0.158-0.216-0.228-0.083-0.075-0.161-0.148-0.238-0.226 0.003-0.060 0.005-0.12 0.005-0.181-0.005-0.314 0.058-0.617 0.058-0.934v-0.166c0.035 0.008 0.068 0.018 0.105 0.035 0.12 0.058 0.238 0.153 0.356 0.223 0.231 0.143 0.464 0.289 0.695 0.432 0.068 0.043 0.136 0.083 0.206 0.123-0.028 0.1-0.040 0.206-0.048 0.311-0.003 0.020-0.003 0.043-0.003 0.065-0.146 0.125-0.243 0.359-0.354 0.489zM21.756 12.927c-0.043-0.045-0.088-0.093-0.128-0.133-0.269-0.279-0.545-0.442-0.911-0.447-0.085 0-0.173 0.020-0.256 0.025-0.003-0.005-0.003-0.013-0.008-0.020-0.070-0.171-0.151-0.339-0.241-0.502 0.070 0.010 0.141 0.023 0.211 0.043 0.248 0.075 0.499 0.105 0.755 0.113 0.158 0.005 0.326 0.095 0.489 0.186 0.003 0.008 0.005 0.015 0.008 0.025 0.048 0.163 0.055 0.349 0.083 0.522 0.008 0.065 0.003 0.128-0.003 0.188zM19.755 10.869c-0.070-0.018-0.143-0.033-0.218-0.045-0.033-0.050-0.065-0.103-0.098-0.153 0.028-0.013 0.053-0.028 0.078-0.043 0.085-0.053 0.148-0.108 0.241-0.138 0.131-0.038 0.276-0.048 0.409-0.073 0.264-0.050 0.527-0.1 0.791-0.151 0.073-0.013 0.151-0.033 0.231-0.053 0.005 0.013 0.010 0.023 0.018 0.033 0.118 0.176 0.274 0.341 0.379 0.527 0.043 0.078 0.068 0.191 0.085 0.291-0.045-0.003-0.093-0.005-0.151-0.025-0.12-0.040-0.223-0.078-0.354-0.093-0.083-0.008-0.168 0.025-0.253 0.020-0.123 0-0.248-0.030-0.374-0.028-0.264 0-0.514-0.008-0.783-0.070zM19.153 9.839c-0.088-0.010-0.213 0.003-0.319 0.010-0.045-0.068-0.095-0.143-0.151-0.178-0.068-0.048-0.148-0.028-0.223-0.093-0.156-0.146-0.286-0.374-0.422-0.547-0.118-0.151-0.223-0.339-0.374-0.447 0.105-0.048 0.216-0.088 0.321-0.151 0.223-0.141 0.437-0.289 0.68-0.394 0.233-0.103 0.459-0.264 0.685-0.389 0.163-0.093 0.341-0.241 0.517-0.306 0.1-0.040 0.213-0.055 0.329-0.068 0.023 0.035 0.048 0.070 0.075 0.105 0.095 0.123 0.246 0.211 0.301 0.366 0.078 0.221 0.080 0.527 0.083 0.768 0.003 0.344 0.118 0.532 0.271 0.811 0.025 0.040 0.040 0.080 0.050 0.115-0.128 0.018-0.253 0.038-0.387 0.060-0.196 0.035-0.359 0.136-0.555 0.171-0.083 0.015-0.181 0.020-0.261 0.048-0.070 0.025-0.093 0.068-0.156 0.098-0.073 0.033-0.274 0.073-0.351 0.068-0.048-0.005-0.068-0.043-0.115-0.048zM17.617 10.296c-0.070 0.053-0.115 0.133-0.181 0.191-0.030 0.028-0.065 0.053-0.1 0.075-0.173-0.058-0.351-0.105-0.53-0.136-0.203-0.035-0.397-0.105-0.595-0.163 0.075-0.115 0.176-0.223 0.261-0.329 0.12-0.156 0.241-0.309 0.361-0.464 0.161 0.033 0.329 0.058 0.479 0.113 0.115 0.043 0.236 0.163 0.334 0.238 0.118 0.095 0.141 0.208 0.193 0.344-0.075 0.038-0.148 0.073-0.223 0.131zM15.915 7.807c-0.171-0.105-0.289-0.274-0.447-0.394-0.040-0.030-0.083-0.063-0.128-0.093-0.008 0.038-0.018 0.078-0.028 0.12-0.073 0.274-0.123 0.459-0.11 0.703-0.123-0.033-0.251-0.045-0.384-0.033 0.090-0.098 0.1-0.248 0.166-0.364 0.123-0.143 0.238-0.291 0.349-0.442 0.098-0.178 0.203-0.349 0.314-0.517 0.073-0.090 0.146-0.253 0.226-0.331-0.028 0.015-0.053 0.025-0.078 0.038 0.063-0.070 0.125-0.141 0.191-0.208 0.231-0.233 0.542-0.291 0.698-0.617 0.068-0.138 0.105-0.289 0.128-0.439 0.050-0.336 0.161-0.62 0.271-0.936 0.063-0.181 0.085-0.271 0.183-0.422 0.118-0.188 0.191-0.392 0.241-0.61 0.023-0.095 0.025-0.213 0.055-0.304 0.025-0.073 0.078-0.125 0.105-0.198 0.105-0.274 0.251-0.547 0.326-0.841 0.015-0.063 0.025-0.128 0.030-0.196v0.462c0 0.241 0.055 0.442 0.103 0.673 0.085 0.399 0.196 0.821 0.366 1.187 0.093 0.198 0.208 0.384 0.304 0.58 0.078 0.158 0.196 0.286 0.281 0.442 0.125 0.216 0.226 0.452 0.331 0.68 0.093 0.206 0.183 0.366 0.299 0.555 0.118 0.188 0.198 0.419 0.299 0.622-0.241 0.045-0.489 0.060-0.755 0.088-0.233 0.025-0.514 0.083-0.723 0.203-0.183 0.108-0.374 0.168-0.562 0.256-0.108 0.048-0.208 0.133-0.309 0.203-0.271 0.181-0.547 0.354-0.783 0.577-0.055 0.053-0.108 0.105-0.158 0.156-0.196-0.118-0.354-0.299-0.537-0.437-0.083-0.065-0.176-0.105-0.264-0.163zM30.246 13.223c0.223-0.008 0.447-0.013 0.668-0.010-0.163-0.063-0.321-0.131-0.492-0.136-0.146-0.005-0.264-0.078-0.409-0.146-0.708-0.331-1.38-0.72-2.118-0.974-0.201-0.070-0.389-0.223-0.59-0.276-0.176-0.043-0.366-0.068-0.515-0.128-0.048-0.018-0.113-0.068-0.166-0.093-0.055-0.025-0.095-0.048-0.143-0.083-0.138-0.1-0.266-0.213-0.397-0.319-0.078-0.065-0.171-0.098-0.266-0.12-0.005-0.243-0.030-0.512 0.008-0.753 0.063-0.402 0.048-0.688-0.113-1.062-0.060-0.133-0.098-0.186-0.093-0.331 0.005-0.148 0.018-0.196 0.065-0.344 0.050-0.161 0.108-0.301 0.168-0.459 0.1-0.256 0.166-0.504 0.223-0.766-0.070-0.045-0.133-0.103-0.181-0.176-0.023-0.038-0.045-0.078-0.065-0.118 0.025-0.040 0.048-0.080 0.058-0.11 0.146-0.442-0.384-0.326-0.627-0.251-0.243 0.078-0.462 0.201-0.698 0.289-0.070 0.025-0.125 0.043-0.193 0.080-0.005 0.003-0.136 0.098-0.141 0.098-0.183 0.035-0.151-0.138-0.186-0.271-0.028-0.1-0.068-0.201-0.103-0.299 0.063-0.040 0.125-0.080 0.191-0.12-0.065-0.035-0.128-0.078-0.186-0.131-0.040-0.040-0.078-0.080-0.11-0.123-0.023-0.115-0.038-0.231-0.090-0.346-0.038-0.088-0.078-0.136-0.103-0.083-0.003-0.013-0.008-0.025-0.010-0.038-0.108 0.043-0.216 0.085-0.324 0.133-0.196 0.085-0.429 0.098-0.615 0.198-0.158 0.090-0.321 0.201-0.472 0.258-0.048 0.018-0.125 0.025-0.181 0.043-0.055 0.020-0.1 0.030-0.158 0.038-0.168 0.018-0.331 0.020-0.494 0.028-0.148 0.008-0.284 0.090-0.404 0.176-0.043 0.033-0.090 0.058-0.138 0.088-0.090-0.108-0.178-0.223-0.246-0.344-0.191-0.354-0.371-0.562-0.718-0.733-0.125-0.063-0.186-0.078-0.266-0.191-0.085-0.118-0.105-0.166-0.158-0.311-0.055-0.158-0.095-0.306-0.143-0.469-0.1-0.339-0.228-0.632-0.387-0.946-0.095-0.186-0.151-0.371-0.231-0.562-0.068-0.168-0.128-0.221-0.148-0.389-0.045-0.336-0.133-0.678-0.191-1.011-0.028-0.161-0.068-0.309-0.161-0.439-0.038-0.050-0.083-0.1-0.131-0.143-0.020-0.023-0.045-0.028-0.068-0.048-0.008 0.030-0.020 0.060-0.035 0.093-0.065 0.138-0.133 0.269-0.203 0.409-0.103 0.201-0.218 0.387-0.264 0.602-0.030 0.153-0.115 0.266-0.203 0.407-0.429 0.695-0.898 1.345-1.26 2.083-0.098 0.201-0.271 0.374-0.351 0.58-0.070 0.178-0.125 0.376-0.208 0.525-0.025 0.045-0.080 0.105-0.113 0.161-0.033 0.053-0.058 0.090-0.1 0.136-0.078 0.088-0.158 0.168-0.241 0.248 0.073 0.123 0.146 0.248 0.211 0.369 0.025 0.043 0.040 0.083 0.055 0.123-0.078 0.045-0.115 0.073-0.148 0.098-0.108 0.055-0.213 0.115-0.319 0.178-0.065 0.058-0.12 0.123-0.171 0.196-0.12 0.115-0.133 0.12-0.188 0.264-0.040 0.11-0.048 0.186-0.048 0.309-0.003 0.366 0.188 1.3 0.733 1.217 0.131-0.020 0.354-0.085 0.489-0.191 0.095 0.045 0.196 0.083 0.314 0.125 0.1 0.038 0.153 0.088 0.208 0.148-0.075 0.128-0.136 0.261-0.228 0.376-0.055 0.070-0.131 0.141-0.173 0.218-0.038 0.068-0.030 0.115-0.060 0.183-0.030 0.065-0.125 0.188-0.193 0.258-0.025-0.005-0.050-0.010-0.078-0.018h-0.003c0.035 0.379 0.173 0.695 0.379 1.004 0.005-0.003 0.008-0.010 0.010-0.015h0.028c0.173 0.005 0.319 0.098 0.484 0.161 0.020 0.005 0.043 0.015 0.063 0.025-0.1 0.060-0.201 0.133-0.301 0.206 0.296 0.359 0.637 0.665 0.949 1.011 0.286 0.319 0.108 0.188 0.233 0.449 0.003 0.003 0.003 0.008 0.008 0.010 0.306-0.095 0.62-0.133 0.939-0.161 0.038-0.003 0.073-0.003 0.108-0.005 0.035 0.003 0.068 0 0.103-0.003 0.053 0.018 0.103 0.038 0.153 0.055l0.494 0.193c0.146 0.060 0.284 0.133 0.419 0.213 0.123 0.238 0.269 0.469 0.387 0.69 0.088 0.163 0.176 0.326 0.264 0.489 0.065 0.125 0.123 0.253 0.171 0.384 0.141-0.113 0.296-0.208 0.467-0.266 0.269-0.090 0.552-0.063 0.828-0.060 0.055 0 0.113 0 0.168 0 0.025 0.025 0.048 0.050 0.073 0.075 0.085 0.080 0.376 0.394 0.52 0.444 0.163 0.053 0.211-0.133 0.341-0.123 0.095 0.256 0.291 0.010 0.459-0.010 0.264-0.030 0.419 0.281 0.665 0.324 0.259 0.045 0.261-0.146 0.364-0.331 0.073-0.136 0.133-0.208 0.115-0.374 0-0.003-0.003-0.005-0.003-0.008 0.045 0 0.090 0 0.136 0 0.008 0 0.015 0 0.023 0 0.078-0.068 0.163-0.128 0.259-0.168 0.183-0.078 0.387-0.098 0.58-0.045 0.131 0.035 0.309 0.123 0.394 0.231 0.010 0.013 0.023 0.025 0.033 0.040 0.053-0.003 0.105-0.008 0.156-0.013l-0.003-0.003c-0.103-0.146-0.183-0.296-0.269-0.449 0.055 0.015 0.108 0.033 0.163 0.043 0.151 0.048 0.223 0.103 0.248 0.291 0.432-0.181 0.878-0.346 1.323-0.492 0.256-0.085 0.512-0.146 0.76-0.251 0.359-0.153 0.773-0.186 1.107-0.394 0.023-0.013 0.045-0.028 0.068-0.040 0.193 0.015 0.387 0.015 0.58 0.008 0.063-0.003 0.128-0.005 0.191-0.008l0.213 0.058c-0.005-0.023-0.013-0.043-0.025-0.063z"></path>
</svg>
