<!-- Generated by IcoMoon.io -->
<svg version="1.1" xmlns="http://www.w3.org/2000/svg" width="32" height="32" viewBox="0 0 32 32">
<title>mental</title>
<path fill="#394852" d="M16 3.2c-4.1 0-7.746 0.753-10.438 2.503s-4.362 4.568-4.362 8.297c0 2.66 0.826 4.64 2.081 6.034s2.89 2.2 4.466 2.725l0.506-1.519c-1.424-0.475-2.789-1.17-3.784-2.275s-1.669-2.626-1.669-4.966c0-3.271 1.329-5.453 3.638-6.953s5.663-2.247 9.563-2.247c4.37 0 7.836 2.777 9.703 5.066l-4.128 2.581 0.85 1.356 4.247-2.653c0.784 1.359 1.528 3.385 1.528 5.85 0 2.778-1.298 4.227-2.641 5.113s-2.681 1.097-2.681 1.097l0.244 1.581c0 0 1.662-0.247 3.319-1.341s3.359-3.146 3.359-6.45c0-3.174-1.003-5.852-2.147-7.463-1.943-2.736-6.182-6.338-11.653-6.338zM17.216 7.847l-0.875 4.481c-2.311-0.49-4.494 0.355-5.697 0.956l0.713 1.431c1.378-0.689 3.426-1.665 5.331-0.853 0.861 0.366 1.757 1.103 2.625 2.55 0.523 0.872 0.85 1.797 1.031 2.738 0.517 2.692-0.221 5.37-0.869 6.894l-2.569-0.641c0.344-1.505 0.778-3.96-0.131-7.597l-1.55 0.387c0.959 3.838 0.333 6.279 0 7.613l-0.194 0.775 5.397 1.35 0.288-0.575c0.774-1.547 1.575-4.552 1.194-7.731l3.291-0.85-0.4-1.55-3.188 0.825c-0.228-0.831-0.45-1.67-0.925-2.463-0.838-1.396-1.83-2.112-2.831-2.684l0.928-4.75zM12.9 8.206c-1.594 0.199-3.209 0.679-4.491 1.6s-2.209 2.36-2.209 4.194c0 1.767 0.887 3.235 2.022 4.228 0.856 0.749 1.87 0.98 2.85 1.188l-0.847 3.391 1.55 0.387 1.25-4.994h-1.025c-0.733 0-1.857-0.421-2.722-1.178s-1.478-1.789-1.478-3.022c0-1.328 0.573-2.202 1.541-2.897s2.354-1.134 3.759-1.309z"></path>
</svg>
