<!-- Generated by IcoMoon.io -->
<svg version="1.1" xmlns="http://www.w3.org/2000/svg" width="32" height="32" viewBox="0 0 32 32">
<title>merging_realities</title>
<path d="M6.554 16.186c-0.299-0.206-0.484-0.099-0.525 0.326-0.026 0.063-0.051 0.128-0.087 0.192-0.14 0.257-0.312 0.519-0.463 0.745-0.18 0.27-0.377 0.542-0.566 0.803-0.473 0.654-0.964 1.331-1.288 2.104-0.137 0.329-0.324 0.634-0.522 0.958-0.127 0.207-0.257 0.421-0.374 0.64-0.122 0.231-0.25 0.45-0.387 0.68l-0.3 0.509 0.537-0.063c0.344-0.040 0.714-0.369 0.962-0.638l0.063-0.069c0.044-0.049 0.086-0.096 0.138-0.142 0.081-0.074 0.164-0.148 0.247-0.221 0.313-0.276 0.637-0.562 0.892-0.915 0.212-0.293 0.417-0.595 0.619-0.894l0.121-0.176c0.151-0.224 0.365-0.435 0.597-0.477 0.701-0.531 1.786 0.092 2.404-0.2-0.44-0.267-0.701-1.117-1.16-1.492-0.326-0.538-0.619-1.103-0.909-1.67z"></path>
<path d="M10.016 16.747c0.974-2.507 0.564-5.379 2.41-7.633-2.256 1.025-2.256 3.896-4.026 5.618 0.494 0.71 1.046 1.337 1.616 2.016z"></path>
<path d="M16.013 20.951c0.104-0.149 0.104-0.355 0.308-0.559-4.101-0.82-7.997-3.282-9.184-7.283-0.201-0.124-0.43-0.197-0.679-0.27-0.215-0.062-0.424-0.057-0.625-0.053-0.147 0.003-0.287 0.006-0.41-0.018l-0.082-0.018c-0.258-0.056-0.611-0.134-0.882 0.050l-0.16 0.109 0.053 0.187c0.029 0.101 0.086 0.17 0.142 0.237 0.061 0.072 0.138 0.161 0.231 0.347l0.062 0.125 0.14 0.018c0.145 0.022 0.312 0.117 0.475 0.209 0.084 0.048 0.164 0.093 0.243 0.131 0.289 0.14 0.556 0.323 0.815 0.586 1.046 3.797 4.737 6.463 8.727 6.377 0.224-0.003 0.555-0.056 0.827-0.175z"></path>
<path d="M16.168 9.517c-0.733-0.169-0.754-0.992-1.295-1.268-0.176-0.53-0.848-1.027-1.616-1.361-0.326-0.141-0.631-0.331-0.953-0.533-0.204-0.129-0.416-0.262-0.635-0.381-0.227-0.123-0.441-0.252-0.668-0.391l-0.513-0.309 0.057 0.538c0.036 0.344 0.361 0.717 0.627 0.97l0.068 0.063c0.050 0.046 0.097 0.087 0.142 0.139 0.073 0.082 0.146 0.166 0.219 0.251 0.273 0.317 0.554 0.643 0.904 0.901 0.331 1.388 0.741 2.618 1.151 4.054 0.41-0.41 0.82-0.82 1.156-1.396 0.405-0.458 0.857-0.887 1.356-1.276z"></path>
<path d="M20.805 7.808l-0.106-0.161-0.188 0.050c-0.102 0.028-0.171 0.085-0.238 0.14-0.073 0.060-0.164 0.135-0.35 0.226l-0.125 0.061-0.022 0.14c-3.864 1.464-8.58 6.591-5.504 10.897 0.41-4.306 2.666-8.202 6.532-10.4l0.041-0.070c0.060-0.257 0.141-0.608-0.039-0.882z"></path>
<path d="M23.548 14.176c-1.689-1.167-3.74-2.603-5.995-2.193-0.204 0-0.41 0.41-0.41 0.616 1.64 2.46 4.922 0.41 6.959 2.257 0.097-0.194-0.341-0.528-0.554-0.68z"></path>
<path d="M29.421 13.031c-0.344 0.041-0.714 0.369-0.962 0.638l-0.063 0.070c-0.046 0.049-0.087 0.096-0.136 0.141-0.081 0.074-0.165 0.148-0.249 0.221-0.313 0.276-0.637 0.562-0.892 0.915-0.21 0.292-0.414 0.593-0.616 0.889l-0.124 0.182c-0.83 0.408-1.854 0.202-2.88 0.612 0.82 0.82 1.026 2.256 2.050 2.87 0.616 0.206 0.616-0.615 0.972-0.909 0.18-0.27 0.377-0.54 0.565-0.802 0.473-0.655 0.964-1.332 1.288-2.105 0.138-0.328 0.325-0.634 0.524-0.958 0.125-0.207 0.257-0.42 0.373-0.64 0.121-0.228 0.249-0.446 0.384-0.674l0.304-0.515z"></path>
<path d="M22.11 19.475c-0.047 2.76-1.277 5.222-2.507 7.682 1.846-1.64 2.666-3.896 4.128-5.816-0.461-0.779-1.011-1.412-1.621-1.866z"></path>
<path d="M27.649 23.018c-0.029-0.102-0.087-0.17-0.143-0.237-0.061-0.072-0.136-0.161-0.23-0.347l-0.063-0.125-0.139-0.022c-0.145-0.022-0.313-0.116-0.476-0.208-0.082-0.048-0.164-0.093-0.241-0.131-0.291-0.14-0.556-0.324-0.756-0.744-1.077-3.89-5.383-6.966-9.484-5.942 3.28 1.846 7.791 2.872 8.597 7.165 0.183 0.457 0.435 0.73 0.827 0.845 0.215 0.062 0.423 0.058 0.625 0.053 0.147-0.003 0.286-0.006 0.41 0.018l0.082 0.018c0.257 0.056 0.61 0.134 0.882-0.050l0.16-0.109z"></path>
<path d="M21.455 30.301c-0.036-0.343-0.361-0.717-0.628-0.97l-0.068-0.063c-0.049-0.046-0.096-0.088-0.141-0.139-0.074-0.082-0.146-0.166-0.219-0.251-0.273-0.317-0.555-0.643-0.904-0.903-0.293-0.216-0.415-0.478-0.476-0.751 0.378-1.298-0.852-2.118-0.648-3.349-1.025 0.82-1.64 2.050-2.87 2.46 0.41 0.616 1.026 1.026 1.344 1.564 0.458 0.493 1.129 0.99 1.898 1.322 0.326 0.141 0.63 0.332 0.952 0.534 0.204 0.128 0.417 0.262 0.636 0.38 0.221 0.121 0.432 0.249 0.654 0.383l0.526 0.319z"></path>
<path d="M13.016 24.276c1.255 1.241 1.665-0.809 2.485-1.221-2.666-0.204-5.331-0.82-7.792-2.050 1.436 1.436 3.282 2.462 5.063 3.15z"></path>
<path d="M17.952 17.148c-0.399 4.268-3.065 7.754-6.755 9.782 0.002 0.147 0.003 0.286-0.023 0.41l-0.019 0.081c-0.059 0.257-0.141 0.609 0.039 0.882l0.108 0.163 0.187-0.050c0.101-0.028 0.171-0.085 0.238-0.141 0.073-0.060 0.164-0.135 0.35-0.225l0.127-0.062 0.020-0.139c0.023-0.145 0.121-0.312 0.273-0.451 3.826-1.47 7.312-5.572 6.343-9.974-0.281-0.147-0.583-0.23-0.888-0.276z"></path>
</svg>
