<!-- Generated by IcoMoon.io -->
<svg version="1.1" xmlns="http://www.w3.org/2000/svg" width="32" height="32" viewBox="0 0 32 32">
<title>migo</title>
<path d="M28.524 15.979c0.388 0.016 0.678 0.143 0.895 0.335-0.038-0.546-0.152-1.107-0.33-1.657-0.064-0.123-0.13-0.245-0.196-0.365-0.398-0.723-0.796-1.448-1.193-2.172-0.064-0.076-0.129-0.152-0.196-0.226-0.675-0.749-1.761-1.816-0.374-2.604 0.669-0.381 1.275-0.347 1.805-0.084-0.512-1.099-1.266-2.119-2.165-3.034-0.369-0.327-0.761-0.633-1.195-0.906-0.934-0.587-1.797-1.301-2.762-1.847-0.827-0.469-1.834-0.458-2.812-0.372-0.332 0.141-0.698 0.329-0.746 0.629-0.026 0.17 0.059 0.333 0.115 0.496 0.168 0.496 0.053 1.029-0.062 1.541-0.283 1.253-0.57 2.517-1.163 3.701-0.173 0.346-0.402 0.702-0.729 0.951-0.155-0.001-0.309-0.001-0.457 0.045-0.487 0.153-0.406 0.881-0.328 1.267 0.015 0.076 0.043 0.136 0.077 0.186 0.021 0.042 0.050 0.077 0.093 0.098 0.138 0.091 0.334 0.074 0.53-0.029 0.22-0.116 0.37-0.325 0.55-0.489 0.191-0.175 0.405-0.291 0.634-0.374 0.183 0.013 0.365 0.044 0.533 0.096 0.603 0.184 1.085 0.559 1.514 0.949 1.915 1.741 3.126 4 3.412 6.362 0.198 1.643-0.036 3.314 0.134 4.959 0.013-0.035 0.031-0.082 0.037-0.101 0.018-0.067 0.034-0.134 0.050-0.202 0.038-0.157 0.071-0.315 0.12-0.472 0.113-0.364 0.275-0.699 0.601-0.972 0.627-0.526 1.72-0.779 2.279-0.057 0.016 0.021 0.026 0.042 0.040 0.062 0.137-0.765 0.282-1.535 0.248-2.306-0.025-0.561-0.224-0.959-0.394-1.482-0.283-0.87 0.082-1.982 1.432-1.926z"></path>
<path d="M5.377 17.904c-0.17 0.523-0.37 0.921-0.394 1.483-0.034 0.771 0.111 1.54 0.247 2.305 0.015-0.021 0.025-0.042 0.040-0.061 0.56-0.722 1.653-0.469 2.28 0.057 0.325 0.273 0.488 0.609 0.601 0.972 0.048 0.156 0.082 0.314 0.12 0.471 0.016 0.067 0.032 0.134 0.051 0.202 0.005 0.019 0.024 0.065 0.037 0.101 0.17-1.644-0.065-3.316 0.133-4.958 0.285-2.363 1.497-4.622 3.412-6.362 0.429-0.391 0.911-0.765 1.513-0.95 0.17-0.052 0.351-0.083 0.534-0.096 0.229 0.084 0.442 0.2 0.634 0.375 0.179 0.164 0.329 0.374 0.55 0.488 0.196 0.102 0.392 0.12 0.529 0.029 0.044-0.021 0.074-0.056 0.094-0.098 0.034-0.050 0.062-0.11 0.077-0.186 0.079-0.386 0.16-1.113-0.329-1.267-0.147-0.047-0.301-0.045-0.456-0.045-0.327-0.249-0.557-0.605-0.73-0.95-0.592-1.184-0.879-2.448-1.163-3.701-0.116-0.513-0.23-1.045-0.063-1.542 0.056-0.163 0.142-0.327 0.115-0.496-0.048-0.301-0.413-0.488-0.745-0.629-0.978-0.086-1.986-0.096-2.813 0.372-0.964 0.546-1.828 1.26-2.762 1.847-0.433 0.273-0.826 0.579-1.194 0.905-0.899 0.916-1.652 1.936-2.164 3.034 0.531-0.263 1.136-0.297 1.806 0.084 1.386 0.789 0.302 1.856-0.374 2.604-0.066 0.075-0.131 0.15-0.195 0.227-0.397 0.723-0.796 1.448-1.193 2.172-0.066 0.12-0.132 0.241-0.196 0.365-0.179 0.551-0.292 1.111-0.33 1.657 0.217-0.191 0.507-0.319 0.895-0.335 1.349-0.056 1.715 1.057 1.432 1.926z"></path>
<path d="M18.566 18.125c-0.015 0.163-0.026 0.327-0.031 0.492-0.013 0.459 0.061 0.921 0.024 1.379-0.025 0.3-0.11 0.575-0.298 0.813-0.006 0.009-0.015 0.016-0.022 0.025-0.156 0.345-0.297 0.696-0.168 1.013 0.018 0.044-0.005 0.076-0.039 0.089 0.001 0.024-0.001 0.050-0.005 0.084-0.016 0.103-0.173 0.059-0.157-0.043 0.022-0.143-0.156-0.324-0.175-0.475-0.016-0.12 0.024-0.242 0.077-0.349 0.080-0.159 0.223-0.272 0.334-0.407 0.009-0.011 0.016-0.021 0.024-0.032 0.113-0.267 0.214-0.532 0.247-0.841 0.052-0.481-0.008-0.96-0.050-1.439-0.021-0.013-0.034-0.034-0.030-0.066 0.001-0.008 0.002-0.014 0.003-0.021 0 0 0-0.001 0-0.001 0.003-0.029 0.009-0.059 0.012-0.089-0.021-0.279-0.034-0.558-0.009-0.837 0.015-0.168 0.105-1.050 0.447-0.758 0.359 0.305 0.022 1.014-0.183 1.464zM16.924 23.695c0.006 0.026-0.003 0.054-0.004 0.082-0.001 0.041-0.002 0.083-0.009 0.125-0.016 0.083-0.044 0.183-0.098 0.258-0.024 0.034-0.109 0.154-0.166 0.152-0.002-0.002-0.001-0.005-0.001-0.006-0.001 0-0.001 0.001-0.001 0.001-0.004 0.009-0.005 0.016-0.011 0.024-0.001-0.005-0.003-0.011 0.011-0.024 0-0.001 0.001-0.001 0.001-0.002s0.001-0.001 0.001-0.001c0.013-0.026 0.021-0.054 0.027-0.084 0.011-0.047 0.036-0.096 0.042-0.143s-0.001-0.097-0.004-0.142c-0.001-0.038-0.012-0.069-0.016-0.105-0.005-0.061-0.015-0.12 0.010-0.183 0.011-0.029 0.005-0.038 0.038-0.054 0.023-0.011 0.063-0.028 0.088-0.024 0.052 0.009 0.083 0.090 0.092 0.129zM17.693 25.083c-0.009-0.069-0.037-0.12-0.058-0.186-0.026-0.083-0.078-0.154-0.113-0.234-0.021-0.048-0.056-0.091-0.073-0.14-0.006-0.018-0.001-0.034-0.019-0.045l-0.010 0.013c-0.109-0.039-0.011-0.282 0.086-0.324 0.039-0.017 0.13 0.031 0.169 0.055 0.029 0.018 0.049 0.040 0.079 0.057 0.038 0.020 0.048 0.030 0.071 0.066 0.041 0.062 0.057 0.135 0.064 0.209 0.008 0.069-0.012 0.128-0.017 0.197-0.004 0.053-0.005 0.105-0.018 0.157-0.016 0.065-0.052 0.128-0.079 0.189-0.009 0.021-0.054 0.161-0.084 0.156 0.005-0.061 0.009-0.109 0.001-0.169zM16.52 23.817c-0.018 0.042-0.043 0.079-0.068 0.116-0.026-0.037-0.050-0.075-0.069-0.116-0.038-0.088-0.107-0.193-0.107-0.288s0.021-0.184 0.088-0.254c0.031-0.033 0.057-0.051 0.089-0.069 0.030 0.018 0.057 0.036 0.088 0.069 0.068 0.070 0.088 0.157 0.088 0.254s-0.069 0.201-0.107 0.288zM17.095 23.766c0.049 0.029 0.116 0.034 0.152 0.079 0.057 0.071 0.047 0.2 0.038 0.283-0.005 0.060-0.008 0.132-0.029 0.188-0.026 0.070-0.062 0.137-0.091 0.206-0.034 0.078-0.084 0.122-0.138 0.185-0.026 0.030-0.072 0.107-0.112 0.116 0.002-0.031 0.024-0.061 0.035-0.089 0.016-0.039 0.017-0.079 0.029-0.121 0.034-0.123 0.049-0.261 0.061-0.388 0.009-0.089-0.022-0.172-0.027-0.261-0.001-0.036 0.002-0.118 0.020-0.149 0.013-0.025 0.043-0.039 0.062-0.050-0.010-0.005-0.021-0.011-0.029-0.019 0.002-0.011 0.009-0.013 0.021-0.005 0.037 0.008 0.028 0.014 0.008 0.025zM15.586 23.568c0.024-0.004 0.064 0.013 0.087 0.024 0.033 0.016 0.028 0.025 0.039 0.054 0.024 0.063 0.015 0.123 0.009 0.183-0.002 0.036-0.013 0.067-0.016 0.105-0.002 0.045-0.009 0.096-0.003 0.142s0.031 0.096 0.042 0.143c0.006 0.030 0.013 0.058 0.026 0.084 0.001 0.001 0.001 0.001 0.001 0.001s0.001 0.001 0.001 0.002c0.014 0.012 0.013 0.018 0.011 0.024-0.005-0.009-0.008-0.016-0.011-0.024-0.001 0-0.001-0.001-0.001-0.001 0 0.001 0.001 0.004-0.001 0.006-0.057 0.002-0.143-0.118-0.166-0.152-0.052-0.075-0.082-0.175-0.097-0.258-0.008-0.042-0.009-0.084-0.009-0.125-0.001-0.028-0.011-0.056-0.005-0.082 0.009-0.038 0.039-0.12 0.093-0.129zM17.859 26.817c-0.023 0.014-0.068 0.005-0.093-0.001-0.037-0.009-0.034-0.022-0.053-0.055-0.041-0.073-0.048-0.154-0.059-0.234-0.006-0.047-0.004-0.092-0.012-0.14-0.009-0.059-0.016-0.126-0.034-0.183-0.019-0.059-0.057-0.113-0.080-0.17-0.015-0.036-0.029-0.069-0.049-0.099 0-0.001-0.001-0.001-0.001-0.001s-0.001-0.001-0.002-0.003c-0.017-0.010-0.017-0.018-0.017-0.025 0.008 0.008 0.011 0.017 0.017 0.025 0.001 0.001 0.001 0.001 0.002 0.001-0.001-0.002-0.002-0.005-0.001-0.009 0.056-0.023 0.174 0.102 0.206 0.138 0.073 0.079 0.129 0.198 0.166 0.299 0.018 0.052 0.030 0.105 0.043 0.158 0.008 0.035 0.025 0.067 0.026 0.104 0.001 0.052-0.008 0.168-0.058 0.197zM17.786 27.417c-0.002 0.023-0.013 0.033-0.023 0.050-0.008 0.011-0.022 0.041-0.031 0.049-0.022 0.018-0.085 0.025-0.116 0.020-0.050-0.010-0.070-0.061-0.090-0.102-0.034-0.070-0.068-0.143-0.105-0.21-0.023-0.042-0.052-0.077-0.074-0.117-0.024-0.046-0.046-0.095-0.070-0.141-0.035-0.070-0.052-0.138-0.060-0.215-0.020-0.052 0.014 0.011 0.043 0.032 0.027 0.021 0.060 0.019 0.089 0.032 0.026 0.012 0.044 0.029 0.068 0.044 0.027 0.017 0.060 0.032 0.089 0.046 0.025 0.012 0.061 0.017 0.083 0.031 0.039 0.024 0.076 0.075 0.099 0.115 0.016 0.028 0.031 0.044 0.050 0.070 0.019 0.025 0.015 0.030 0.024 0.057 0.012 0.038 0.028 0.058 0.030 0.102 0.001 0.025-0.009 0.041-0.011 0.065s0.008 0.048 0.005 0.072zM17.659 27.89c-0.017 0.065-0.025 0.114-0.079 0.156-0.049 0.037-0.109 0.134-0.073 0.022-0.042 0.004-0.094 0.006-0.132-0.017-0.016-0.010-0.047-0.039-0.061-0.053-0.025-0.024-0.034-0.061-0.056-0.088-0.025-0.033-0.024-0.050-0.039-0.087-0.017-0.040-0.049-0.072-0.069-0.112-0.028-0.058-0.055-0.109-0.075-0.171-0.006-0.020-0.014-0.056-0.032-0.069 0.029 0.005 0.033-0.013 0.051-0.019 0.021-0.006 0.038-0.009 0.059-0.010 0.057-0.005 0.103-0.009 0.158 0.005 0.099 0.025 0.183 0.106 0.255 0.173s0.119 0.175 0.093 0.271zM17.145 28.439c-0.022 0.053-0.057 0.080-0.106 0.109-0.025 0.015-0.048 0.015-0.067 0.009 0.001 0.004 0.003 0.009 0.009 0.011-0.045 0.001-0.062 0.011-0.093-0.027-0.032-0.040-0.056-0.071-0.098-0.102-0.024-0.016-0.047-0.025-0.066-0.047-0.024-0.025-0.027-0.059-0.045-0.086-0.021-0.029-0.035-0.036-0.041-0.073s-0.002-0.073-0.012-0.108c-0.020-0.067-0.030-0.125-0.038-0.197-0.002-0.024-0.026-0.111-0.011-0.129 0.013-0.015 0.082 0.002 0.098 0.006 0.018 0.005 0.034 0.022 0.051 0.030 0.024 0.011 0.033 0.008 0.057 0.011 0.043 0.005 0.070 0.045 0.103 0.068 0.041 0.027 0.098 0.053 0.134 0.085 0.001 0.006 0.004 0.013 0.006 0.020 0.011 0.005 0.024 0.012 0.035 0.019 0.021 0.014 0.040 0.033 0.057 0.051 0.030 0.030 0.040 0.062 0.057 0.101 0.013 0.031 0.027 0.061 0.025 0.102-0.001 0.048-0.036 0.098-0.054 0.145zM16.566 28.727c-0.025 0.055-0.058 0.1-0.115 0.12-0.046 0.016-0.1 0.038-0.15 0.031-0.016-0.001-0.030-0.008-0.043-0.014-0.042 0.009-0.080 0.009-0.118 0.002-0.011 0.005-0.021 0.010-0.034 0.011-0.050 0.008-0.104-0.015-0.15-0.031-0.057-0.021-0.090-0.065-0.116-0.12-0.023-0.049-0.003-0.166 0.010-0.221 0.017-0.077 0.042-0.168 0.084-0.235 0.052-0.082 0.109-0.161 0.161-0.243 0.047-0.073 0.073-0.15 0.107-0.227 0.034 0.077 0.060 0.154 0.106 0.227 0.052 0.082 0.109 0.161 0.161 0.243 0.043 0.067 0.068 0.158 0.085 0.235 0.013 0.056 0.033 0.172 0.009 0.221zM15.783 28.125c-0.010 0.035-0.006 0.072-0.012 0.108s-0.021 0.043-0.041 0.073c-0.018 0.027-0.021 0.061-0.045 0.086-0.020 0.021-0.043 0.030-0.066 0.047-0.043 0.030-0.067 0.061-0.098 0.102-0.030 0.038-0.048 0.028-0.092 0.027 0.004-0.002 0.005-0.008 0.009-0.011-0.019 0.005-0.042 0.005-0.068-0.009-0.049-0.029-0.084-0.056-0.105-0.109-0.019-0.047-0.052-0.097-0.054-0.145-0.001-0.041 0.012-0.070 0.025-0.102 0.016-0.038 0.027-0.070 0.056-0.101 0.018-0.018 0.036-0.037 0.058-0.051 0.011-0.006 0.023-0.013 0.035-0.019 0.002-0.006 0.005-0.013 0.006-0.020 0.036-0.032 0.092-0.058 0.134-0.085 0.033-0.023 0.060-0.062 0.103-0.068 0.025-0.004 0.033 0 0.057-0.012 0.017-0.009 0.034-0.025 0.051-0.030s0.085-0.021 0.098-0.006c0.016 0.017-0.009 0.105-0.011 0.129-0.008 0.071-0.018 0.129-0.038 0.197zM15.15 27.909c-0.021 0.027-0.030 0.065-0.055 0.088-0.014 0.014-0.044 0.043-0.061 0.053-0.038 0.024-0.090 0.021-0.132 0.017 0.035 0.111-0.024 0.015-0.073-0.022-0.055-0.042-0.063-0.091-0.079-0.156-0.025-0.096 0.021-0.205 0.093-0.271s0.156-0.148 0.256-0.173c0.055-0.013 0.101-0.011 0.157-0.005 0.021 0.001 0.039 0.003 0.059 0.010 0.018 0.005 0.023 0.024 0.051 0.019-0.018 0.013-0.025 0.049-0.032 0.069-0.021 0.062-0.047 0.113-0.075 0.171-0.020 0.040-0.052 0.072-0.069 0.112-0.016 0.037-0.014 0.054-0.040 0.087zM14.645 27.467c-0.011-0.017-0.021-0.027-0.023-0.050-0.003-0.025 0.008-0.048 0.005-0.072s-0.011-0.040-0.011-0.066c0.002-0.044 0.017-0.064 0.030-0.102 0.009-0.026 0.004-0.032 0.023-0.057 0.020-0.026 0.034-0.043 0.051-0.070 0.023-0.039 0.060-0.091 0.098-0.115 0.022-0.014 0.058-0.019 0.083-0.031 0.029-0.014 0.062-0.029 0.089-0.046 0.024-0.016 0.042-0.033 0.067-0.044 0.029-0.013 0.062-0.011 0.089-0.032 0.030-0.021 0.062-0.084 0.043-0.032-0.009 0.078-0.025 0.145-0.060 0.215-0.024 0.046-0.046 0.095-0.070 0.141-0.021 0.040-0.051 0.075-0.073 0.117-0.037 0.067-0.070 0.139-0.105 0.21-0.021 0.041-0.040 0.093-0.091 0.102-0.030 0.005-0.093-0.001-0.116-0.020-0.009-0.009-0.025-0.038-0.031-0.049zM14.549 26.817c-0.050-0.030-0.059-0.145-0.057-0.197 0-0.037 0.018-0.069 0.026-0.104 0.012-0.053 0.025-0.106 0.043-0.158 0.037-0.101 0.093-0.22 0.166-0.299 0.033-0.035 0.15-0.161 0.207-0.138 0.001 0.003 0 0.005-0.001 0.009 0.001 0 0.001 0 0.002-0.001 0.005-0.009 0.010-0.018 0.017-0.025 0 0.008-0.001 0.016-0.017 0.025-0.001 0.001-0.001 0.002-0.002 0.003s-0.001 0.001-0.001 0.001c-0.021 0.030-0.034 0.063-0.050 0.099-0.023 0.057-0.062 0.111-0.079 0.17-0.018 0.057-0.025 0.125-0.034 0.183-0.009 0.048-0.006 0.093-0.013 0.14-0.011 0.080-0.017 0.161-0.059 0.234-0.019 0.033-0.016 0.047-0.053 0.055-0.025 0.006-0.070 0.016-0.093 0.001zM14.384 22.019c-0.005-0.034-0.006-0.060-0.005-0.084-0.034-0.013-0.058-0.045-0.040-0.089 0.129-0.316-0.011-0.668-0.167-1.013-0.008-0.009-0.016-0.016-0.022-0.025-0.188-0.238-0.273-0.513-0.298-0.813-0.038-0.458 0.037-0.92 0.024-1.379-0.005-0.165-0.017-0.328-0.031-0.492-0.206-0.45-0.542-1.159-0.184-1.464 0.343-0.293 0.433 0.59 0.448 0.758 0.025 0.279 0.013 0.558-0.009 0.837 0.004 0.030 0.009 0.059 0.012 0.089v0.001c0.001 0.008 0.002 0.014 0.003 0.021 0.004 0.032-0.010 0.052-0.030 0.066-0.043 0.479-0.102 0.959-0.050 1.439 0.034 0.309 0.134 0.574 0.247 0.841 0.009 0.011 0.015 0.021 0.024 0.032 0.111 0.135 0.254 0.248 0.333 0.407 0.054 0.107 0.093 0.229 0.078 0.349-0.020 0.152-0.197 0.333-0.176 0.475 0.016 0.102-0.141 0.146-0.156 0.043zM14.625 18.746c0.020-0.052 0.091-0.086 0.135-0.035 0.195 0.224 0.15 0.519 0.15 0.799 0.001 0.206 0 0.417 0.042 0.619 0.034-0.001 0.066 0.015 0.077 0.057 0.053 0.197 0.134 0.347 0.274 0.5 0.029 0.032 0.033 0.084 0 0.115-0.061 0.057-0.12 0.113-0.181 0.17-0.055 0.052-0.164 0.001-0.135-0.079 0.083-0.233-0.154-0.479-0.237-0.678-0.058-0.139-0.102-0.286-0.141-0.432-0.093-0.352-0.12-0.692 0.016-1.036zM14.76 17.51c0.033-0.053 0.123-0.069 0.17-0.053 0.038 0.012 0.095 0.045 0.125 0.070 0.031 0.026 0.047 0.067 0.081 0.095 0.057 0.048 0.095 0.131 0.131 0.203 0.033 0.064 0.034 0.14 0.061 0.207 0.016 0.041 0.042 0.071 0.048 0.118 0.009 0.059-0.001 0.126 0.004 0.188 0.006 0.071 0.032 0.132 0.053 0.197 0.021 0.067 0.028 0.139 0.044 0.209 0.018 0.078 0.056 0.137 0.080 0.209 0.021 0.061 0.014 0.142 0.025 0.207 0.011 0.064 0.031 0.125 0.034 0.191 0.003 0.084 0 0.168 0.003 0.252 0.002 0.063 0.021 0.113 0.028 0.174 0.011 0.085-0.027 0.25-0.072 0.328-0.038 0.066-0.129 0.147-0.189 0.122-0.026-0.011-0.047-0.029-0.068-0.051-0.020-0.021-0.043-0.030-0.061-0.047-0.042-0.039-0.038-0.091-0.050-0.152-0.021-0.108-0.048-0.214-0.059-0.326-0.009-0.106-0.044-0.2-0.042-0.309 0.002-0.116 0.008-0.247-0.005-0.358-0.018-0.167-0.057-0.328-0.1-0.487-0.036-0.134-0.098-0.251-0.141-0.379-0.046-0.137-0.111-0.261-0.161-0.397-0.017-0.047-0.030-0.151-0.073-0.176 0.172 0.157 0.048 0.099 0.132-0.035zM15.623 22.558c0.008 0.017 0.005 0.033 0.001 0.047 0.029 0.041 0.023 0.11-0.040 0.128-0.138 0.040-0.244 0.111-0.337 0.22-0.042 0.049-0.118 0.017-0.135-0.036-0.055-0.165 0.004-0.284 0.085-0.429 0.124-0.222 0.178-0.449 0.166-0.702-0.004-0.091 0.144-0.112 0.159-0.021 0.001 0.006 0.002 0.014 0.003 0.021v0 0.001c0.039 0.257-0.003 0.526 0.097 0.772zM14.727 25.25c-0.029 0.005-0.075-0.134-0.084-0.156-0.027-0.061-0.062-0.124-0.079-0.189-0.013-0.052-0.014-0.104-0.018-0.157-0.004-0.069-0.024-0.128-0.017-0.197 0.008-0.074 0.023-0.147 0.064-0.209 0.024-0.036 0.034-0.047 0.071-0.066 0.031-0.016 0.051-0.038 0.080-0.057 0.038-0.024 0.129-0.072 0.168-0.055 0.098 0.043 0.195 0.285 0.087 0.324-0.003-0.004-0.006-0.009-0.011-0.013-0.016 0.011-0.011 0.027-0.018 0.045-0.018 0.049-0.052 0.092-0.073 0.14-0.035 0.080-0.088 0.152-0.113 0.234-0.021 0.066-0.051 0.117-0.059 0.186-0.006 0.060-0.003 0.107 0.001 0.169zM16.204 22.63c-0.005-0.002-0.010-0.002-0.016-0.005v0.010c-0.031 0.010-0.058 0.014-0.068 0.002-0.073-0.082-0.105-0.304-0.089-0.51 0.011-0.129 0.040-0.22 0.067-0.322 0.049-0.185 0.076-0.383 0.102-0.6 0.001-0.006 0.001-0.015 0.002-0.021 0 0.006 0 0.015 0.001 0.021 0.025 0.216 0.053 0.415 0.102 0.6 0.027 0.102 0.057 0.192 0.068 0.322 0.016 0.206-0.016 0.428-0.088 0.51-0.010 0.011-0.038 0.008-0.068-0.002v-0.010c-0.005 0.002-0.010 0.002-0.015 0.005zM15.789 23.528c0.001-0.097 0.021-0.184 0.089-0.254 0.030-0.033 0.057-0.051 0.088-0.069 0.030 0.018 0.057 0.036 0.088 0.069 0.068 0.070 0.088 0.157 0.088 0.254s-0.069 0.201-0.107 0.288c-0.018 0.042-0.043 0.079-0.068 0.116-0.025-0.037-0.050-0.075-0.069-0.116-0.038-0.088-0.107-0.193-0.107-0.288zM15.33 23.74c0.011-0.008 0.019-0.005 0.021 0.005-0.009 0.009-0.019 0.013-0.029 0.019 0.019 0.011 0.048 0.025 0.062 0.050 0.017 0.031 0.021 0.113 0.020 0.149-0.004 0.088-0.034 0.171-0.026 0.261 0.012 0.127 0.025 0.265 0.060 0.388 0.012 0.042 0.013 0.082 0.029 0.121 0.012 0.029 0.033 0.058 0.035 0.089-0.040-0.010-0.086-0.086-0.112-0.116-0.053-0.063-0.104-0.107-0.137-0.185-0.029-0.069-0.065-0.136-0.091-0.206-0.021-0.056-0.024-0.128-0.030-0.188-0.009-0.084-0.018-0.212 0.038-0.283 0.036-0.045 0.102-0.051 0.152-0.079-0.021-0.011-0.030-0.017 0.008-0.025zM17.16 22.953c-0.093-0.109-0.198-0.18-0.336-0.22-0.063-0.018-0.070-0.087-0.041-0.128-0.004-0.014-0.005-0.030 0.002-0.047 0.1-0.246 0.057-0.515 0.097-0.772v-0.001c0.001-0.008 0.001-0.015 0.002-0.021 0.016-0.091 0.164-0.070 0.16 0.021-0.011 0.253 0.043 0.48 0.166 0.702 0.080 0.145 0.14 0.265 0.085 0.429-0.018 0.053-0.093 0.085-0.136 0.036zM15.696 20.846c-0.009-0.031-0.001-0.067 0.033-0.090 0.009-0.005 0.014-0.013 0.022-0.019 0.009-0.033 0.016-0.070 0.029-0.1 0.011-0.025 0.025-0.036 0.035-0.055 0.034-0.059 0.048-0.142 0.068-0.209 0.019-0.065 0.043-0.13 0.053-0.197-0.003-0.032 0-0.063 0.009-0.095 0.010-0.033 0.021-0.065 0.031-0.097 0.005-0.039-0.001-0.073 0.006-0.112 0.011-0.048 0.029-0.096 0.045-0.143-0.016-0.378-0.084-0.763-0.107-0.994-0.020-0.192-0.045-0.399 0.121-0.485 0.006-0.009 0.013-0.016 0.021-0.024 0.025-0.021 0.061-0.030 0.089-0.049 0.015-0.010 0.033-0.025 0.052-0.037 0.018 0.012 0.035 0.027 0.051 0.037 0.028 0.019 0.063 0.028 0.088 0.049 0.009 0.008 0.016 0.016 0.022 0.024 0.166 0.086 0.141 0.293 0.121 0.485-0.023 0.231-0.093 0.615-0.107 0.994 0.016 0.048 0.034 0.095 0.044 0.143 0.009 0.039 0.002 0.073 0.008 0.112 0.011 0.032 0.021 0.064 0.031 0.097 0.009 0.032 0.011 0.063 0.009 0.095 0.010 0.066 0.034 0.131 0.053 0.197 0.020 0.067 0.034 0.15 0.068 0.209 0.011 0.019 0.025 0.030 0.035 0.055 0.012 0.030 0.021 0.067 0.029 0.1 0.008 0.005 0.014 0.013 0.021 0.019 0.034 0.023 0.041 0.059 0.034 0.090 0.012 0.018 0.025 0.035 0.041 0.052 0.034 0.036 0.096 0.048 0.141 0.073 0.111 0.058 0.205 0.175 0.295 0.27 0.081 0.084 0.143 0.211 0.192 0.321 0.048 0.112 0.098 0.224 0.148 0.338 0.064 0.143 0.098 0.308 0.143 0.46 0.034 0.117 0.060 0.25 0.112 0.359 0.038 0.079 0.062 0.103 0.050 0.2-0.006 0.058-0.019 0.121-0.043 0.172-0.026-0.115-0.060-0.243-0.108-0.351-0.092-0.206-0.162-0.421-0.262-0.621-0.040-0.081-0.063-0.169-0.103-0.251-0.032-0.066-0.070-0.128-0.104-0.193-0.062-0.122-0.136-0.232-0.229-0.324s-0.257-0.233-0.375-0.206c-0.115 0.026-0.302 0.079-0.389-0.086v-0.074c-0.005 0.013-0.011 0.025-0.015 0.038-0.005-0.013-0.011-0.025-0.016-0.038v0.074c-0.088 0.165-0.274 0.112-0.389 0.086-0.118-0.028-0.283 0.114-0.375 0.206s-0.166 0.202-0.229 0.324c-0.034 0.065-0.071 0.127-0.103 0.193-0.040 0.082-0.063 0.17-0.103 0.251-0.1 0.2-0.171 0.415-0.263 0.621-0.048 0.107-0.081 0.236-0.107 0.351-0.024-0.051-0.036-0.114-0.043-0.172-0.011-0.097 0.013-0.121 0.051-0.2 0.052-0.109 0.077-0.242 0.112-0.359 0.045-0.152 0.079-0.316 0.143-0.46 0.050-0.113 0.1-0.225 0.148-0.338 0.048-0.111 0.111-0.238 0.192-0.321 0.090-0.094 0.184-0.211 0.294-0.27 0.045-0.025 0.108-0.037 0.142-0.073 0.016-0.016 0.029-0.034 0.041-0.052zM16.788 19.602c0.003-0.084 0-0.168 0.003-0.252 0.003-0.066 0.023-0.127 0.034-0.191 0.011-0.066 0.005-0.146 0.025-0.207 0.024-0.072 0.062-0.131 0.080-0.209 0.016-0.070 0.023-0.142 0.044-0.209 0.021-0.065 0.046-0.125 0.053-0.197 0.005-0.061-0.004-0.129 0.003-0.188 0.006-0.047 0.033-0.077 0.048-0.118 0.026-0.067 0.028-0.143 0.060-0.207 0.037-0.072 0.075-0.156 0.132-0.203 0.034-0.028 0.050-0.069 0.081-0.095 0.029-0.025 0.087-0.058 0.125-0.070 0.048-0.016 0.138 0 0.17 0.053 0.083 0.134-0.040 0.192 0.132 0.035-0.043 0.025-0.056 0.129-0.073 0.176-0.049 0.135-0.115 0.26-0.161 0.397-0.043 0.129-0.105 0.246-0.141 0.379-0.043 0.158-0.082 0.32-0.1 0.487-0.012 0.111-0.008 0.242-0.005 0.358 0.003 0.109-0.033 0.202-0.043 0.309-0.010 0.112-0.038 0.218-0.058 0.326-0.011 0.061-0.009 0.112-0.051 0.152-0.017 0.016-0.040 0.026-0.061 0.047s-0.041 0.040-0.067 0.051c-0.061 0.025-0.151-0.057-0.189-0.122-0.046-0.078-0.083-0.242-0.072-0.328 0.008-0.061 0.025-0.111 0.028-0.174zM17.799 19.782c-0.038 0.146-0.084 0.292-0.141 0.432-0.084 0.198-0.32 0.445-0.237 0.678 0.029 0.080-0.080 0.131-0.136 0.079-0.060-0.057-0.12-0.113-0.18-0.17-0.033-0.030-0.029-0.083 0-0.115 0.14-0.152 0.221-0.303 0.274-0.5 0.011-0.042 0.043-0.057 0.077-0.057 0.041-0.202 0.041-0.414 0.042-0.619 0-0.28-0.045-0.575 0.15-0.799 0.043-0.051 0.115-0.016 0.135 0.035 0.135 0.343 0.108 0.683 0.016 1.036zM23.694 19.406c-0.126-0.174-0.288-0.383-0.474-0.497-0.061-0.038-0.13-0.059-0.202-0.058-0.029-0.048-0.068-0.088-0.12-0.106-0.147-0.049-0.22 0.021-0.253 0.129-0.097 0.011-0.182 0.069-0.197 0.161-0.039 0.013-0.079 0.026-0.118 0.046-0.201 0.103-0.397 0.202-0.602 0.3-0.045 0.022-0.155 0.089-0.221 0.078-0.085-0.015-0.218-0.145-0.265-0.213-0.111-0.163-0.112-0.391-0.122-0.578-0.016-0.291-0.056-0.562-0.106-0.846-0.022-0.124-0.048-0.261-0.031-0.387 0.040-0.059 0.089-0.118 0.157-0.174 0.051-0.040 0.108-0.070 0.167-0.098 0.232-0.055 0.447-0.158 0.688-0.191 0.063-0.024 0.121-0.057 0.174-0.1 0.203 0.013 0.339 0.101 0.409 0.265 0.084 0.086 0.101 0.162 0.209 0.219 0.506 0.267 0.696-0.395 0.458-0.747-0.365-0.542-1.12-0.581-1.624-0.217-0.165 0.119-0.343 0.221-0.517 0.329-0.027 0.002-0.053 0.009-0.080 0.008-0.136-0.001-0.206 0.093-0.221 0.196-0.004 0.004-0.010 0.008-0.015 0.011-0.029 0.023-0.059 0.048-0.088 0.074-0.161-0.009-0.23-0.165-0.279-0.323-0.082-0.268-0.217-0.524-0.333-0.777-0.089-0.191-0.152-0.412 0.028-0.548 0.381-0.066 0.714-0.196 1.111-0.324 0.143-0.047 0.32-0.065 0.476-0.018 0.042 0.162 0.048 0.339 0.205 0.475 0.242 0.21 0.895 0.252 0.809-0.235-0.040-0.233-0.261-0.262-0.418-0.384-0.075-0.057-0.135-0.117-0.203-0.175-0.015-0.077-0.037-0.152-0.089-0.224-0.261-0.361-0.614-0.062-0.918-0.262-0.253-0.167-0.488 0.24-0.237 0.406 0.021 0.014 0.043 0.023 0.066 0.032-0.045 0.017-0.089 0.034-0.132 0.049-0.064 0.008-0.129 0.017-0.192 0.036-0.132 0.039-0.247 0.044-0.381 0.063-0.084 0.012-0.167 0.030-0.246 0.060-0.058 0.021-0.098 0.051-0.165 0.026-0.124-0.045-0.111-0.181-0.081-0.281 0.011-0.035 0.046-0.113 0.060-0.139 0.038-0.074 0.082-0.065 0.139-0.109 0.133-0.099 0.154-0.272 0.014-0.369-0.002-0.001-0.005-0.003-0.008-0.005 0.095-0.094 0.211-0.162 0.365-0.184 0.152-0.021 0.125 0.033 0.201 0.138 0.057 0.079 0.133 0.131 0.231 0.144 0.443 0.062 0.677-0.646 0.27-0.847-0.155-0.076-0.296 0.025-0.34 0.15-0.027-0.012-0.055-0.023-0.083-0.031-0.18-0.053-0.395-0.025-0.569 0.036-0.447 0.154-0.628 0.55-0.841 0.936-0.027 0.048-0.030 0.095-0.025 0.138-0.073 0.065-0.142 0.127-0.246 0.147-0.114 0.021-0.128-0.054-0.152-0.147-0.012-0.048-0.036-0.103-0.054-0.158 0.014-0.099 0.027-0.198 0.038-0.297 0.001-0.002 0.002-0.004 0.003-0.006 0.060-0.129 0.11-0.195 0.089-0.351-0.010-0.080-0.033-0.136-0.062-0.191-0.002-0.12-0.010-0.239-0.029-0.359-0.022-0.14-0.219-0.473-0.208-0.608 0.017-0.22 0.487-0.218 0.526-0.059 0.032 0.129 0.168 0.189 0.289 0.164 0.793-0.164-0.035-1.112-0.492-1.164-0.363-0.042-0.634 0.259-0.823 0.533-0.021 0.030-0.034 0.062-0.051 0.092-0.051-0.038-0.103-0.072-0.152-0.114-0.001-0.001-0.001-0.001-0.001-0.002-0.031 0.018-0.061 0.035-0.087 0.061-0.004 0.022-0.008 0.043-0.011 0.066-0.045 0.128 0.057 0.37 0.092 0.488 0.004 0.015 0.009 0.028 0.013 0.043-0.018 0.234-0.011 0.473-0.088 0.727-0.079 0.262 0.282 0.385 0.416 0.193 0.003 0.044 0.003 0.090-0.004 0.139-0.015 0.071-0.010 0.142 0.014 0.211 0.003 0.019 0.008 0.038 0.011 0.057-0.021 0.048-0.143 0.106-0.187 0.126-0.089 0.042-0.166 0.011-0.267 0.015-0.126 0.004-0.261 0.015-0.378-0.050-0.161-0.089-0.23-0.26-0.41-0.331-0.12-0.048-0.18-0.033-0.294-0.025-0.076 0.004-0.197 0.038-0.27 0.022-0.056-0.011-0.102-0.065-0.143-0.117v-0.038c-0.005 0.006-0.011 0.013-0.015 0.020-0.005-0.006-0.011-0.013-0.016-0.020v0.038c-0.043 0.052-0.088 0.106-0.143 0.117-0.074 0.016-0.193-0.018-0.27-0.022-0.114-0.008-0.175-0.023-0.295 0.025-0.179 0.071-0.248 0.242-0.41 0.331-0.117 0.065-0.252 0.054-0.378 0.050-0.102-0.003-0.178 0.027-0.267-0.015-0.044-0.021-0.166-0.078-0.188-0.126 0.004-0.019 0.009-0.038 0.011-0.057 0.024-0.070 0.029-0.14 0.014-0.211-0.008-0.049-0.009-0.095-0.005-0.139 0.135 0.193 0.496 0.070 0.416-0.193-0.077-0.253-0.070-0.492-0.088-0.727 0.004-0.015 0.009-0.028 0.013-0.043 0.034-0.118 0.137-0.361 0.091-0.488-0.003-0.022-0.006-0.043-0.010-0.066-0.026-0.025-0.057-0.043-0.087-0.061-0.001 0.001-0.001 0.001-0.002 0.002-0.049 0.042-0.101 0.076-0.152 0.114-0.016-0.030-0.030-0.062-0.052-0.092-0.188-0.274-0.459-0.575-0.822-0.533-0.458 0.052-1.285 1-0.492 1.164 0.121 0.025 0.257-0.034 0.289-0.164 0.038-0.159 0.509-0.161 0.526 0.059 0.011 0.134-0.186 0.468-0.209 0.608-0.019 0.12-0.027 0.239-0.029 0.359-0.029 0.055-0.052 0.111-0.063 0.191-0.021 0.156 0.030 0.221 0.090 0.351 0.001 0.002 0.002 0.004 0.003 0.006 0.011 0.099 0.025 0.198 0.038 0.297-0.019 0.055-0.042 0.111-0.054 0.158-0.024 0.092-0.038 0.168-0.152 0.147-0.104-0.020-0.173-0.082-0.246-0.147 0.005-0.043 0.001-0.090-0.025-0.138-0.213-0.387-0.395-0.782-0.841-0.936-0.175-0.061-0.389-0.089-0.569-0.036-0.029 0.009-0.057 0.019-0.083 0.031-0.044-0.125-0.185-0.226-0.34-0.15-0.408 0.202-0.174 0.909 0.27 0.847 0.098-0.013 0.174-0.065 0.231-0.144 0.076-0.105 0.048-0.158 0.201-0.138 0.154 0.022 0.27 0.090 0.365 0.184-0.002 0.001-0.004 0.003-0.006 0.005-0.14 0.097-0.12 0.27 0.013 0.369 0.058 0.044 0.102 0.035 0.14 0.109 0.014 0.026 0.048 0.104 0.059 0.139 0.030 0.1 0.043 0.236-0.080 0.281-0.066 0.025-0.106-0.005-0.165-0.026-0.079-0.029-0.161-0.048-0.246-0.060-0.133-0.019-0.249-0.024-0.382-0.063-0.063-0.019-0.127-0.029-0.191-0.036-0.043-0.016-0.087-0.032-0.132-0.049 0.023-0.009 0.046-0.018 0.066-0.032 0.252-0.166 0.016-0.573-0.237-0.406-0.304 0.2-0.658-0.098-0.918 0.262-0.052 0.073-0.074 0.147-0.088 0.224-0.069 0.057-0.129 0.117-0.203 0.175-0.157 0.122-0.378 0.152-0.418 0.384-0.085 0.487 0.568 0.445 0.809 0.235 0.156-0.136 0.163-0.313 0.205-0.475 0.156-0.047 0.333-0.029 0.476 0.018 0.397 0.129 0.729 0.258 1.111 0.324 0.179 0.136 0.116 0.357 0.028 0.548-0.117 0.253-0.252 0.51-0.334 0.777-0.048 0.158-0.117 0.314-0.278 0.323-0.029-0.025-0.058-0.051-0.089-0.074-0.004-0.003-0.010-0.006-0.014-0.011-0.015-0.103-0.086-0.197-0.221-0.196-0.027 0.001-0.054-0.005-0.080-0.008-0.174-0.107-0.352-0.21-0.517-0.328-0.505-0.364-1.258-0.324-1.624 0.217-0.238 0.352-0.049 1.014 0.458 0.747 0.108-0.057 0.125-0.133 0.208-0.219 0.070-0.164 0.206-0.252 0.41-0.265 0.052 0.043 0.111 0.076 0.175 0.1 0.242 0.033 0.456 0.136 0.687 0.191 0.060 0.028 0.117 0.058 0.168 0.098 0.068 0.056 0.117 0.115 0.157 0.174 0.016 0.126-0.009 0.263-0.031 0.387-0.051 0.284-0.091 0.555-0.107 0.846-0.011 0.187-0.011 0.415-0.122 0.578-0.047 0.068-0.179 0.198-0.265 0.213-0.066 0.012-0.177-0.056-0.222-0.078-0.204-0.098-0.401-0.197-0.601-0.3-0.039-0.020-0.079-0.033-0.118-0.046-0.016-0.093-0.101-0.151-0.198-0.161-0.032-0.108-0.107-0.179-0.252-0.129-0.053 0.018-0.091 0.057-0.121 0.106-0.070-0.001-0.139 0.020-0.201 0.058-0.186 0.114-0.347 0.323-0.474 0.497-0.236 0.326-0.383 0.85 0 1.123 0.13 0.093 0.303-0.008 0.346-0.14 0.017-0.054 0.039-0.104 0.065-0.153 0.038 0.005 0.078-0.004 0.102-0.032 0.077-0.092 0.137-0.19 0.188-0.29 0.030-0.021 0.065-0.036 0.099-0.051 0.082-0.010 0.165-0.048 0.242-0.101 0.005-0.003 0.011-0.009 0.016-0.011 0.016-0.011 0.029-0.023 0.043-0.034 0.061 0.005 0.121 0.008 0.179-0.003 0.1-0.016 0.194-0.064 0.299-0.052 0.127 0.015 0.231 0.105 0.355 0.136 0.216 0.054 0.312 0.158 0.341 0.374 0.019 0.137 0.079 0.262 0.070 0.401-0.008 0.106-0.057 0.197-0.067 0.304-0.013 0.155-0.051 0.293-0.085 0.447-0.016 0.068-0.025 0.157-0.057 0.219-0.060 0.117-0.21 0.188-0.32 0.256-0.010 0.005-0.018 0.010-0.028 0.015-0.101 0.005-0.203 0.014-0.302 0.029-0.070-0.090-0.213-0.133-0.325-0.069-0.107-0.011-0.212 0.019-0.317 0.054-0.020 0-0.038 0.002-0.057 0.009-0.493 0.144-1.005 1.182-0.342 1.437 0.267 0.103 0.456-0.060 0.587-0.278 0.054-0.091 0.1-0.205 0.152-0.312 0.26 0.048 0.464-0.122 0.69-0.252 0.216-0.124 0.546-0.005 0.587 0.255 0.019 0.116 0.009 0.248 0.024 0.367 0.020 0.162 0.050 0.299 0.102 0.452 0.005 0.015 0.010 0.029 0.015 0.043-0.075 0.142-0.129 0.298-0.182 0.419-0.239 0.554-0.511 0.931-0.891 1.388-0.261 0.315-0.182 1.376 0.406 1.135 0.266-0.109 0.202-0.406 0.204-0.645 0.21-0.184 0.334-0.459 0.416-0.723 0.070-0.058 0.146-0.113 0.224-0.166 0.036 0 0.072-0.006 0.105-0.026 0.079-0.048 0.125-0.090 0.155-0.153 0.137-0.097 0.266-0.197 0.368-0.31 0.112-0.125 0.057-0.282-0.048-0.359 0.029-0.075 0.054-0.149 0.074-0.223 0.021 0.001 0.041 0.002 0.062 0.006 0.179 0.037 0.252 0.173 0.278 0.339 0.006 0.038 0.009 0.075 0.008 0.111-0.434 0.471-0.746 1.009-0.868 1.642-0.070 0.14-0.111 0.279-0.086 0.451 0.002 0.017 0.005 0.034 0.009 0.052-0.041 0.377-0.043 0.846 0.233 0.992 0.351 0.187 0.661-0.16 0.683-0.487 0.026-0.38-0.155-0.72-0.101-1.116 0.041-0.178 0.092-0.351 0.17-0.527 0.011-0.025 0.022-0.054 0.034-0.084 0.055-0.104 0.118-0.202 0.188-0.297 0.031-0.021 0.065-0.040 0.098-0.059 0.073-0.042 0.149-0.070 0.224-0.105 0.147-0.069 0.305-0.070 0.329-0.082 0.035 0.019 0.072 0.037 0.106 0.046 0.082 0.019 0.17 0.017 0.255 0.038 0.156 0.040 0.305 0.118 0.367 0.276 0.070 0.179 0.002 0.418-0.014 0.604-0.012 0.152 0.005 0.294 0.027 0.442 0.028 0.191-0.088 0.338-0.090 0.521-0.001 0.161-0.059 0.3-0.044 0.461 0.016 0.171 0.034 0.355 0.075 0.52 0.011 0.046 0.009 0.102 0.024 0.144 0.011 0.033 0.033 0.044 0.049 0.075 0.026 0.046 0.015 0.051 0.025 0.103 0.011 0.062 0.042 0.098 0.068 0.157 0.052 0.111 0.064 0.175 0.179 0.233 0.107 0.052 0.155 0.104 0.226 0.203 0.086 0.121 0.148 0.206 0.284 0.262 0.068 0.028 0.133 0.064 0.202 0.090 0.078 0.030 0.149 0.014 0.229 0.027 0.053 0.009 0.102 0.014 0.153 0.023 0.088 0.015 0.122 0.065 0.212 0.052 0.147-0.018 0.301-0.061 0.45-0.052v0.001c0.005-0.001 0.010 0 0.016-0.001 0.004 0.001 0.010 0 0.015 0.001v-0.001c0.149-0.010 0.303 0.034 0.45 0.052 0.090 0.012 0.125-0.038 0.212-0.052 0.052-0.009 0.1-0.014 0.153-0.023 0.079-0.013 0.151 0.002 0.229-0.027 0.068-0.026 0.134-0.062 0.202-0.090 0.136-0.057 0.197-0.141 0.284-0.262 0.070-0.099 0.119-0.151 0.226-0.203 0.116-0.057 0.127-0.121 0.179-0.233 0.027-0.058 0.058-0.094 0.069-0.157 0.009-0.052-0.001-0.057 0.024-0.103 0.017-0.030 0.038-0.042 0.050-0.075 0.015-0.042 0.011-0.098 0.023-0.144 0.042-0.166 0.061-0.349 0.076-0.52 0.015-0.161-0.043-0.3-0.045-0.461-0.001-0.183-0.117-0.33-0.090-0.521 0.022-0.148 0.040-0.29 0.027-0.442-0.016-0.186-0.084-0.424-0.013-0.604 0.062-0.158 0.211-0.236 0.367-0.276 0.084-0.021 0.173-0.020 0.255-0.038 0.034-0.009 0.070-0.027 0.106-0.046 0.025 0.012 0.181 0.013 0.329 0.082 0.075 0.034 0.152 0.063 0.224 0.105 0.034 0.019 0.068 0.038 0.099 0.059 0.070 0.095 0.134 0.193 0.188 0.297 0.011 0.030 0.023 0.060 0.034 0.084 0.079 0.176 0.129 0.349 0.17 0.527 0.054 0.396-0.127 0.736-0.102 1.116 0.023 0.327 0.333 0.673 0.684 0.487 0.276-0.147 0.274-0.615 0.233-0.992 0.003-0.017 0.008-0.034 0.010-0.052 0.025-0.172-0.016-0.311-0.086-0.451-0.122-0.633-0.433-1.171-0.868-1.642-0.001-0.036 0.001-0.072 0.008-0.111 0.026-0.166 0.099-0.302 0.279-0.339 0.021-0.004 0.042-0.005 0.062-0.006 0.020 0.074 0.045 0.148 0.073 0.223-0.105 0.077-0.161 0.233-0.048 0.359 0.102 0.113 0.231 0.213 0.368 0.31 0.030 0.063 0.075 0.105 0.155 0.153 0.033 0.020 0.069 0.026 0.105 0.026 0.077 0.053 0.152 0.108 0.224 0.166 0.082 0.264 0.206 0.538 0.416 0.723 0.001 0.239-0.062 0.536 0.204 0.645 0.587 0.242 0.667-0.819 0.405-1.135-0.379-0.457-0.652-0.834-0.891-1.388-0.052-0.12-0.107-0.277-0.182-0.419 0.004-0.014 0.009-0.028 0.014-0.043 0.052-0.153 0.084-0.29 0.103-0.452 0.015-0.119 0.005-0.252 0.023-0.367 0.043-0.261 0.373-0.378 0.588-0.255 0.226 0.129 0.43 0.3 0.689 0.252 0.052 0.107 0.098 0.221 0.152 0.312 0.131 0.218 0.32 0.381 0.587 0.278 0.664-0.255 0.152-1.293-0.342-1.437-0.018-0.005-0.038-0.009-0.057-0.009-0.106-0.035-0.21-0.065-0.317-0.054-0.112-0.064-0.255-0.021-0.325 0.069-0.099-0.016-0.202-0.025-0.302-0.029-0.010-0.005-0.019-0.009-0.029-0.015-0.109-0.067-0.259-0.138-0.32-0.256-0.031-0.061-0.042-0.151-0.057-0.219-0.034-0.153-0.072-0.292-0.085-0.447-0.010-0.107-0.060-0.197-0.068-0.304-0.010-0.138 0.052-0.264 0.070-0.401 0.029-0.216 0.126-0.32 0.342-0.374 0.124-0.031 0.228-0.121 0.355-0.136 0.105-0.012 0.199 0.035 0.299 0.052 0.058 0.011 0.119 0.009 0.179 0.003 0.015 0.012 0.029 0.024 0.043 0.034 0.006 0.003 0.011 0.009 0.017 0.011 0.077 0.053 0.161 0.091 0.242 0.101 0.034 0.015 0.069 0.030 0.099 0.051 0.052 0.1 0.111 0.198 0.188 0.29 0.024 0.028 0.064 0.038 0.101 0.032 0.026 0.049 0.048 0.099 0.066 0.153 0.043 0.133 0.216 0.233 0.345 0.14 0.383-0.273 0.236-0.797 0.001-1.123z"></path>
</svg>
