<!-- Generated by IcoMoon.io -->
<svg version="1.1" xmlns="http://www.w3.org/2000/svg" width="32" height="32" viewBox="0 0 32 32">
<title>monte_carlo</title>
<path d="M0.678 20.585v-7.415l1.736 0.003c4.435 0.008 4.508 0.009 4.544 0.027 0.019 0.010 0.040 0.032 0.048 0.049 0.021 0.045 0.020 14.639-0 14.684-0.008 0.017-0.030 0.038-0.048 0.045-0.023 0.009-0.998 0.015-3.157 0.017l-3.123 0.003v-7.415zM5.578 26.586c0.020-0.015 0.043-0.047 0.052-0.071 0.012-0.033 0.016-0.446 0.016-1.678 0.001-1.754 0.003-1.683-0.063-1.742-0.028-0.025-0.047-0.026-1.015-0.026s-0.986 0.001-1.015 0.026c-0.064 0.057-0.061-0.003-0.063 1.743-0.002 1.748-0.003 1.691 0.058 1.745 0.013 0.012 0.036 0.024 0.050 0.028s0.457 0.006 0.984 0.005c0.952-0.002 0.959-0.002 0.995-0.029zM5.569 20.229c0.018-0.013 0.043-0.044 0.055-0.068 0.021-0.041 0.022-0.147 0.022-1.681-0.001-1.233-0.004-1.648-0.016-1.681-0.032-0.094 0.020-0.089-1.059-0.091-0.926-0.002-0.968-0.001-1.008 0.023-0.025 0.015-0.048 0.042-0.057 0.069-0.020 0.058-0.024 3.28-0.004 3.352 0.017 0.060 0.048 0.087 0.115 0.099 0.030 0.005 0.474 0.008 0.986 0.007 0.89-0.002 0.934-0.004 0.965-0.027zM7.802 27.969l-0.031-0.025-0.003-2.63c-0.002-1.935 0-2.639 0.011-2.665 0.010-0.024 0.029-0.040 0.061-0.049s0.572-0.012 1.706-0.010l1.659 0.004 0.058 0.058 0.004 2.577c0.002 1.417 0 2.607-0.004 2.643s-0.016 0.077-0.025 0.090c-0.017 0.023-0.076 0.024-1.712 0.027-1.655 0.003-1.695 0.003-1.725-0.021zM12.057 27.981c-0.018-0.007-0.033-0.030-0.042-0.062-0.009-0.035-0.013-0.849-0.010-2.658l0.003-2.607 0.059-0.058 4.12-0.003c2.266-0.002 4.141 0.001 4.168 0.007 0.030 0.006 0.058 0.023 0.075 0.046l0.027 0.036v2.602c0 1.431-0.004 2.618-0.010 2.637-0.022 0.080 0.316 0.074-4.223 0.073-2.368-0.001-4.15-0.006-4.166-0.012zM15.446 27.315c0.019-0.008 0.047-0.033 0.061-0.056 0.025-0.042 0.026-0.061 0.022-2.080l-0.003-2.038-0.071-0.071h-1.989l-0.071 0.071-0.006 1.987c-0.004 1.093-0.003 2.014 0.001 2.048 0.009 0.077 0.046 0.127 0.105 0.144 0.067 0.019 1.904 0.015 1.951-0.004zM18.984 27.305c0.019-0.014 0.045-0.045 0.057-0.070 0.021-0.041 0.022-0.164 0.022-2.041-0.001-1.512-0.004-2.007-0.016-2.041-0.010-0.031-0.030-0.052-0.060-0.068-0.042-0.021-0.111-0.022-1.016-0.019l-0.971 0.003-0.033 0.031c-0.018 0.017-0.039 0.052-0.046 0.077-0.019 0.067-0.017 3.951 0.001 4.026 0.016 0.064 0.042 0.092 0.104 0.114 0.031 0.011 0.304 0.015 0.983 0.014 0.919-0.001 0.941-0.002 0.975-0.027zM21.252 27.981c-0.068-0.028-0.064 0.151-0.067-2.667-0.004-2.902-0.010-2.687 0.083-2.712 0.069-0.019 3.278-0.019 3.347 0 0.093 0.026 0.086-0.19 0.083 2.714l-0.003 2.613-0.058 0.058-1.678 0.002c-0.923 0.001-1.69-0.002-1.705-0.008zM25.483 27.977c-0.019-0.010-0.039-0.036-0.048-0.065-0.013-0.039-0.015-1.521-0.013-7.338 0.003-6.917 0.004-7.29 0.026-7.323 0.047-0.072-0.157-0.067 3.123-0.067 1.674 0 3.065 0.005 3.091 0.010 0.031 0.007 0.056 0.023 0.071 0.044 0.021 0.032 0.023 0.418 0.026 7.315 0.002 4.004-0 7.303-0.005 7.331s-0.022 0.064-0.038 0.080l-0.030 0.030-3.085-0c-2.459-0-3.092-0.003-3.117-0.016zM28.907 26.586c0.020-0.015 0.043-0.050 0.051-0.077 0.020-0.065 0.024-3.261 0.004-3.331-0.007-0.025-0.028-0.060-0.046-0.077l-0.033-0.031-0.975-0.003c-1.083-0.004-1.035-0.007-1.072 0.081-0.015 0.037-0.018 0.295-0.017 1.691 0.001 1.241 0.005 1.658 0.016 1.692 0.010 0.031 0.030 0.052 0.060 0.068 0.042 0.021 0.111 0.022 1.010 0.019 0.959-0.003 0.965-0.004 1.001-0.030zM28.881 20.236c0.019-0.009 0.046-0.033 0.061-0.053l0.027-0.036v-1.658c0-1.803 0.003-1.723-0.071-1.761-0.029-0.015-0.197-0.018-0.999-0.020-1.060-0.002-1.017-0.005-1.059 0.078-0.021 0.042-0.022 0.15-0.022 1.692 0 1.74-0.001 1.7 0.056 1.748 0.012 0.010 0.043 0.022 0.068 0.026s0.464 0.006 0.975 0.005c0.734-0.002 0.936-0.006 0.963-0.019zM16.034 22.14c-4.502-0.004-8.194-0.012-8.204-0.017-0.051-0.026-0.055-0.056-0.057-0.395-0.001-0.18 0.003-0.346 0.009-0.369s0.023-0.050 0.038-0.061c0.025-0.018 0.904-0.020 8.37-0.020 6.248 0 8.35 0.004 8.374 0.015 0.048 0.022 0.056 0.069 0.062 0.332 0.011 0.465-0.017 0.517-0.273 0.52-0.074 0.001-3.818-0.002-8.32-0.006zM7.864 20.817c-0.027-0.005-0.059-0.019-0.071-0.031-0.020-0.020-0.022-0.37-0.028-5.192-0.005-4.141-0.010-5.176-0.023-5.199-0.029-0.051-0.099-0.059-0.415-0.049l-0.29 0.009 0.004-0.492c0.007-0.767 0.009-0.825 0.034-0.863 0.013-0.019 0.042-0.038 0.072-0.046 0.034-0.009 0.783-0.012 2.392-0.010 2.2 0.003 2.344 0.005 2.376 0.026 0.020 0.013 0.040 0.043 0.047 0.071s0.014 0.222 0.014 0.485c0 0.331 0.004 0.444 0.017 0.469 0.028 0.054 0.083 0.041 0.289-0.070 0.46-0.248 1.033-0.481 1.532-0.623 0.202-0.057 0.245-0.077 0.277-0.125 0.021-0.032 0.023-0.113 0.029-1.146 0.007-1.245 0.001-1.166 0.099-1.193 0.065-0.018 0.401-0.017 0.473 0.001 0.093 0.023 0.096 0.034 0.099 0.343 0.002 0.266 0.003 0.27 0.034 0.303 0.017 0.018 0.052 0.038 0.077 0.044s0.633 0.010 1.35 0.009c1.229-0.002 1.306-0.003 1.339-0.025 0.019-0.013 0.040-0.036 0.046-0.051s0.016-0.146 0.022-0.29c0.013-0.301 0.010-0.295 0.142-0.325 0.093-0.021 0.436-0.021 0.475 0 0.062 0.033 0.060 0.004 0.067 1.198 0.006 0.995 0.009 1.129 0.026 1.146 0.011 0.011 0.096 0.048 0.188 0.083 0.407 0.153 0.802 0.315 1.449 0.592 0.213 0.091 0.398 0.166 0.413 0.166 0.059 0 0.061-0.014 0.068-0.525 0.004-0.265 0.011-0.492 0.017-0.503 0.029-0.059-0.067-0.056 2.44-0.056 1.86 0 2.37 0.003 2.392 0.016 0.015 0.009 0.034 0.035 0.041 0.058 0.008 0.025 0.015 0.306 0.018 0.689l0.005 0.647-0.298-0.006c-0.326-0.007-0.367-0.001-0.391 0.061-0.008 0.022-0.013 1.802-0.013 5.165-0 4.047-0.004 5.138-0.016 5.162-0.009 0.017-0.032 0.043-0.052 0.058l-0.036 0.027h-3.309l-0.036-0.027c-0.020-0.015-0.043-0.041-0.052-0.058-0.013-0.024-0.016-1.114-0.016-5.157-0-5.64 0.006-5.2-0.079-5.225-0.024-0.007-0.16-0.012-0.303-0.011l-0.26 0.002-0.071 0.071-0.006 0.973c-0.006 0.909-0.008 0.975-0.030 1.008-0.013 0.019-0.039 0.041-0.058 0.049-0.023 0.009-0.368 0.014-0.985 0.015-0.892 0.002-0.953 0.004-0.986 0.025-0.058 0.038-0.066 0.074-0.065 0.304 0.001 0.186 0.004 0.219 0.028 0.272 0.051 0.113-0.016 0.106 1.050 0.113 1.023 0.007 0.991 0.005 1.023 0.082 0.014 0.033 0.017 0.708 0.017 3.744 0 2.037-0.004 3.72-0.010 3.739s-0.025 0.045-0.044 0.058c-0.033 0.022-0.242 0.023-4.176 0.023-3.319 0-4.147-0.003-4.17-0.016-0.016-0.009-0.034-0.038-0.042-0.066-0.009-0.034-0.012-1.216-0.010-3.758 0.004-4.008-0.001-3.751 0.071-3.783 0.026-0.011 0.275-0.016 0.978-0.017 0.637-0.001 0.955-0.006 0.979-0.016 0.019-0.008 0.047-0.033 0.061-0.056 0.023-0.038 0.026-0.065 0.026-0.29 0-0.279-0.010-0.324-0.074-0.346-0.025-0.009-0.371-0.014-0.991-0.015-1.012-0.002-1.006-0.001-1.035-0.061-0.006-0.013-0.014-0.459-0.018-0.992-0.007-1.068-0.002-1.007-0.088-1.048-0.037-0.017-0.084-0.020-0.308-0.015-0.146 0.003-0.275 0.010-0.286 0.015s-0.026 0.019-0.032 0.031c-0.006 0.012-0.014 2.344-0.017 5.183-0.005 4.146-0.010 5.167-0.023 5.19-0.036 0.064 0.032 0.061-1.704 0.063-0.897 0.001-1.653-0.002-1.68-0.008zM15.459 20.237c0.078-0.032 0.074 0.054 0.074-1.764s0.004-1.724-0.072-1.753c-0.050-0.019-1.959-0.016-2.002 0.003-0.074 0.034-0.070-0.058-0.070 1.748-0 0.954 0.005 1.675 0.011 1.692 0.017 0.045 0.060 0.078 0.113 0.087 0.026 0.004 0.466 0.007 0.977 0.005 0.708-0.002 0.94-0.006 0.969-0.018zM18.995 20.232c0.072-0.047 0.069 0.034 0.066-1.779l-0.003-1.67-0.084-0.075h-0.976c-1.095 0-1.033-0.005-1.070 0.093-0.019 0.050-0.020 0.21-0.017 1.698 0.003 1.52 0.005 1.646 0.025 1.683 0.023 0.042 0.067 0.066 0.132 0.072 0.021 0.002 0.456 0.003 0.967 0.001 0.838-0.002 0.932-0.004 0.961-0.023zM16.457 13.163c0.205-0.029 0.443-0.13 0.623-0.264 0.611-0.454 0.752-1.298 0.323-1.936-0.077-0.115-0.259-0.295-0.376-0.374-0.677-0.452-1.589-0.258-2.021 0.429-0.142 0.225-0.205 0.449-0.205 0.73-0.001 0.597 0.324 1.093 0.872 1.331 0.231 0.1 0.482 0.127 0.783 0.084zM9.841 11.747l0.036-0.031 0.004-0.283c0.006-0.407 0.011-0.4-0.347-0.399-0.251 0.001-0.322 0.010-0.361 0.050-0.027 0.027-0.027 0.036-0.024 0.331 0.003 0.316 0.006 0.329 0.061 0.352 0.014 0.006 0.154 0.011 0.311 0.011 0.283 0.001 0.285 0.001 0.321-0.030zM23.271 11.748c0.020-0.020 0.023-0.055 0.027-0.317 0.004-0.338-0.001-0.362-0.084-0.385-0.059-0.017-0.466-0.017-0.536-0.001-0.094 0.022-0.096 0.029-0.096 0.362 0 0.307 0.005 0.336 0.055 0.358 0.015 0.006 0.159 0.010 0.32 0.009 0.261-0.002 0.294-0.005 0.315-0.026zM1.177 12.443l-0.047-0.013 0.027-0.047c0.015-0.026 0.454-0.476 0.977-1 0.788-0.79 0.962-0.958 1.015-0.982l0.065-0.029 3.824-0.007-0.007 0.994c-0.008 1.069-0.006 1.048-0.074 1.083-0.025 0.013-0.242 0.016-0.98 0.016-1.009 0-1.002 0.001-1.031-0.060-0.006-0.013-0.014-0.307-0.018-0.655l-0.007-0.632-0.070-0.070-0.26-0.002c-0.296-0.002-0.336 0.005-0.374 0.070-0.024 0.041-0.025 0.067-0.022 0.481 0.001 0.241-0.001 0.519-0.006 0.618-0.009 0.174-0.010 0.181-0.045 0.215l-0.036 0.036-1.442-0.001c-0.893-0.001-1.46-0.006-1.489-0.014zM25.5 12.445c-0.015-0.006-0.039-0.027-0.051-0.047-0.026-0.039-0.026-0.053-0.033-1.388l-0.003-0.645h1.85c1.186 0 1.875 0.005 1.919 0.013 0.038 0.007 0.106 0.031 0.15 0.053 0.073 0.036 0.177 0.136 1.008 0.97 0.84 0.844 0.971 0.98 0.972 1.008 0 0.005-0.028 0.018-0.061 0.029-0.055 0.018-0.212 0.020-1.495 0.017l-1.434-0.003-0.058-0.058-0.006-0.638c-0.007-0.662-0.008-0.68-0.061-0.703-0.013-0.005-0.139-0.013-0.28-0.016-0.285-0.007-0.33 0.002-0.374 0.069-0.022 0.033-0.024 0.083-0.030 0.662l-0.006 0.626-0.058 0.058-0.959 0.002c-0.54 0.001-0.972-0.002-0.988-0.009zM7.14 8.203c-0.027-0.012-0.044-0.030-0.050-0.053-0.021-0.083 0.026-0.502 0.092-0.816 0.127-0.605 0.334-1.108 0.644-1.565 0.343-0.505 0.672-0.782 1.126-0.951 0.22-0.082 0.218-0.077 0.213-0.411-0.002-0.154 0.002-0.272 0.011-0.304 0.024-0.088 0.037-0.092 0.316-0.092 0.15 0 0.262 0.006 0.287 0.015 0.068 0.024 0.078 0.065 0.078 0.348 0 0.352 0.010 0.369 0.271 0.473 0.434 0.173 0.768 0.464 1.080 0.938 0.367 0.559 0.583 1.157 0.701 1.936 0.053 0.35 0.050 0.432-0.015 0.475-0.042 0.028-4.693 0.034-4.756 0.007zM20.579 8.205c-0.070-0.024-0.080-0.072-0.058-0.281 0.072-0.681 0.228-1.223 0.506-1.763 0.228-0.443 0.475-0.766 0.762-0.999 0.199-0.161 0.34-0.244 0.606-0.355 0.137-0.057 0.142-0.061 0.173-0.122 0.031-0.060 0.033-0.076 0.039-0.323l0.006-0.26 0.037-0.039c0.056-0.058 0.108-0.070 0.244-0.058 0.064 0.006 0.16 0.009 0.213 0.007 0.090-0.003 0.099-0.001 0.128 0.031 0.031 0.034 0.032 0.038 0.039 0.312 0.006 0.252 0.010 0.283 0.034 0.33 0.035 0.067 0.042 0.072 0.158 0.115 0.146 0.054 0.377 0.177 0.513 0.274 0.237 0.168 0.513 0.473 0.7 0.774 0.297 0.477 0.497 1.003 0.615 1.611 0.073 0.38 0.1 0.647 0.071 0.702-0.035 0.065 0.069 0.062-2.422 0.062-1.763-0.001-2.332-0.004-2.366-0.016z"></path>
</svg>
