<!-- Generated by IcoMoon.io -->
<svg version="1.1" xmlns="http://www.w3.org/2000/svg" width="32" height="32" viewBox="0 0 32 32">
<title>moon</title>
<path d="M15.964 0.016c-8.372 0.020-15.231 6.473-15.895 14.677l-0.004 0.057c-0.031 0.374-0.049 0.81-0.049 1.25 0 8.168 6.126 14.904 14.034 15.866l0.077 0.008c0.562 0.070 1.213 0.11 1.873 0.11 7.948 0 14.541-5.801 15.776-13.399l0.012-0.092 0.196-2.492c0 0 0-0 0-0 0-8.607-6.804-15.626-15.327-15.97l-0.031-0.001c-0.186-0.008-0.405-0.012-0.625-0.012-0.013 0-0.026 0-0.039 0h0.002zM16.961 6.487c1.097 0.004 2.19 0.234 3.194 0.72-0.731 0.314-1.414 0.737-2.031 1.242-2.67 2.121-3.753 5.838-3.101 9.142 0.48 2.726 2.277 5.178 4.76 6.377 0.707 0.178-0.070 0.349-0.402 0.482-2.815 1.004-6.025 0.102-8.224-1.846-2.285-1.878-3.541-4.938-3.196-7.895 0.26-2.732 1.893-5.217 4.158-6.699 1.41-0.984 3.13-1.528 4.842-1.522z"></path>
</svg>
