<!-- Generated by IcoMoon.io -->
<svg version="1.1" xmlns="http://www.w3.org/2000/svg" width="32" height="32" viewBox="0 0 32 32">
<title>moscow</title>
<path d="M9.663 30.473l0.177-0.527v-1.823c0-1.45 0.003-1.828 0.015-1.849 0.021-0.036 0.065-0.045 0.37-0.072 0.365-0.033 1.292-0.105 1.654-0.129 0.775-0.051 2.292-0.087 2.953-0.071 0.253 0.006 0.563 0.012 0.69 0.012 0.143 0 0.273 0.007 0.344 0.018 0.095 0.014 0.782 0.052 1.483 0.082 0.183 0.008 0.329 0.026 0.339 0.043 0.004 0.006-0.039 0.053-0.096 0.104-0.353 0.317-0.793 0.976-0.931 1.394-0.052 0.159-0.095 0.367-0.125 0.608-0.029 0.233-0.029 0.622 0 0.796 0.046 0.273 0.131 0.563 0.224 0.762 0.087 0.187 0.263 0.435 0.401 0.568 0.086 0.082 0.087 0.087 0.091 0.364l0.004 0.248h-7.77l0.177-0.527zM16.139 30.766c0.063-0.029 0.061 0.008 0.064-0.957 0.003-0.718 0-0.894-0.012-0.894s-0.014-0.186-0.012-0.948c0.002-0.739-0-0.958-0.012-0.992-0.023-0.068-0.065-0.086-0.227-0.098-0.075-0.005-0.158-0.013-0.184-0.017-0.058-0.010-0.103 0.007-0.13 0.049-0.019 0.029-0.022 0.085-0.032 0.662-0.013 0.776-0.013 0.759 0 2.029l0.011 1.039 0.029 0.030c0.033 0.035 0.096 0.055 0.274 0.087 0.151 0.027 0.193 0.029 0.23 0.012zM11.051 30.697c0.119-0.017 0.217-0.044 0.243-0.067 0.083-0.074 0.098-0.322 0.079-1.313-0.017-0.885-0.018-1.765-0.002-1.765s0.015-0.423-0.001-0.48c-0.007-0.024-0.025-0.058-0.040-0.076-0.027-0.031-0.031-0.032-0.142-0.031-0.187 0.001-0.28 0.041-0.307 0.133-0.006 0.021-0.017 0.265-0.025 0.543-0.011 0.388-0.011 0.606-0 0.945 0.017 0.546 0.017 1.104 0.001 1.611-0.007 0.213-0.009 0.4-0.006 0.415 0.010 0.041 0.064 0.098 0.092 0.098 0.014-0 0.062-0.005 0.107-0.012zM13.78 30.59c0.021-0.013 0.052-0.048 0.070-0.078l0.032-0.054v-0.25c0-0.138-0.005-0.81-0.011-1.494-0.008-0.945-0.007-1.244 0.003-1.244s0.014-0.061 0.014-0.222c0-0.304-0.006-0.313-0.193-0.323-0.058-0.003-0.199-0.002-0.313 0.003-0.205 0.009-0.207 0.009-0.244 0.041l-0.037 0.033-0.003 0.155c-0.001 0.085-0.008 0.394-0.015 0.685-0.009 0.377-0.009 0.837 0 1.594 0.014 1.139 0.012 1.123 0.072 1.157 0.033 0.019 0.24 0.030 0.441 0.024 0.121-0.004 0.152-0.008 0.184-0.028zM17.757 30.713c0.004-0.020 0.238-0.069 0.709-0.15 0.731-0.125 1.113-0.157 1.98-0.165 0.902-0.009 1.068 0.005 2.101 0.178 0.333 0.056 0.359 0.056 0.45 0.011 0.147-0.073 0.537-0.293 0.615-0.347 0.109-0.075 0.317-0.273 0.418-0.399 0.144-0.179 0.259-0.388 0.329-0.595 0.043-0.127 0.094-0.343 0.082-0.343-0.005 0-0.058 0.045-0.118 0.1s-0.219 0.184-0.354 0.288c-0.135 0.103-0.3 0.231-0.367 0.284s-0.165 0.122-0.217 0.154c-0.216 0.134-0.579 0.293-0.937 0.41-0.213 0.070-0.717 0.198-0.776 0.197-0.050-0.001-0.118-0.023-0.123-0.039-0.003-0.010 0.086-0.063 0.611-0.357 0.361-0.203 0.52-0.301 0.726-0.451 0.591-0.43 1.017-0.838 1.276-1.22 0.108-0.159 0.175-0.287 0.175-0.334 0-0.1-0.261-0.775-0.295-0.764-0.006 0.002-0.052 0.077-0.104 0.166-0.206 0.36-0.351 0.547-0.678 0.873-0.235 0.235-0.424 0.407-0.593 0.54-0.11 0.087-0.521 0.363-1.126 0.756-0.247 0.16-0.553 0.361-0.681 0.446-0.259 0.173-0.331 0.21-0.465 0.244-0.095 0.024-0.346 0.034-0.377 0.014-0.023-0.014 0.482-0.433 0.743-0.616 0.637-0.447 1.089-0.823 1.591-1.325 0.358-0.359 0.479-0.504 0.668-0.805 0.092-0.146 0.267-0.502 0.316-0.641 0.057-0.162 0.116-0.359 0.116-0.384 0-0.043-0.067-0.163-0.136-0.24-0.193-0.218-0.335-0.36-0.36-0.36-0.063 0-0.085 0.020-0.14 0.131-0.071 0.141-0.328 0.604-0.41 0.736-0.2 0.324-0.497 0.636-1.225 1.289-0.477 0.428-0.582 0.523-0.879 0.797-0.166 0.154-0.403 0.378-0.526 0.498-0.303 0.297-0.41 0.436-0.484 0.626-0.083 0.215-0.138 0.289-0.265 0.348-0.060 0.028-0.078 0.031-0.214 0.031-0.187 0-0.194-0.004-0.173-0.113 0.036-0.182 0.129-0.42 0.247-0.633 0.253-0.452 0.485-0.72 1.052-1.211 0.109-0.094 0.35-0.324 0.537-0.511s0.443-0.442 0.571-0.567c0.128-0.125 0.299-0.304 0.381-0.397 0.271-0.311 0.677-0.833 0.707-0.908 0.009-0.022 0.068-0.137 0.132-0.254 0.165-0.305 0.187-0.355 0.177-0.4-0.005-0.024-0.040-0.071-0.097-0.131-0.049-0.052-0.106-0.114-0.128-0.139s-0.043-0.041-0.048-0.035c-0.005 0.006-0.048 0.070-0.097 0.144-0.137 0.209-0.556 0.65-0.909 0.957-0.329 0.285-0.98 0.818-1.226 1.001-0.090 0.067-0.21 0.166-0.268 0.22-0.717 0.673-0.926 0.913-1.214 1.393-0.209 0.348-0.275 0.562-0.306 0.99-0.013 0.179-0.009 0.271 0.020 0.468 0.023 0.161 0.016 0.18-0.080 0.201-0.034 0.008-0.119 0.030-0.189 0.049-0.119 0.033-0.13 0.034-0.164 0.018-0.032-0.015-0.042-0.032-0.074-0.121-0.124-0.35-0.178-0.686-0.154-0.96 0.032-0.359 0.099-0.627 0.208-0.826 0.063-0.116 0.387-0.599 0.474-0.707 0.131-0.162 0.512-0.51 0.824-0.752 0.214-0.166 0.404-0.3 0.912-0.642 0.893-0.602 1.057-0.725 1.439-1.082 0.164-0.153 0.451-0.456 0.509-0.538 0.041-0.058 0.054-0.125 0.034-0.183-0.018-0.052-0.273-0.466-0.287-0.466-0.011 0-0.093 0.142-0.179 0.308-0.114 0.221-0.273 0.417-0.459 0.567-0.108 0.087-0.577 0.401-1.225 0.819-0.266 0.172-0.662 0.429-0.88 0.57s-0.485 0.313-0.594 0.38c-0.172 0.106-0.215 0.139-0.327 0.25-0.249 0.247-0.508 0.601-0.641 0.874-0.121 0.248-0.174 0.438-0.223 0.786-0.029 0.211-0.029 0.658 0 0.832 0.024 0.141 0.019 0.274-0.010 0.274-0.016 0-0.049-0.097-0.185-0.542-0.083-0.27-0.108-0.369-0.129-0.513-0.061-0.41 0.033-0.812 0.297-1.272 0.276-0.479 0.567-0.783 1.019-1.064 0.077-0.048 0.239-0.149 0.36-0.225 0.289-0.181 0.324-0.201 0.822-0.457 0.697-0.358 0.934-0.495 1.38-0.796 0.275-0.185 0.461-0.323 0.564-0.417 0.1-0.091 0.325-0.339 0.347-0.382 0.032-0.061 0.022-0.161-0.030-0.321-0.077-0.238-0.097-0.318-0.081-0.328 0.010-0.006 0.052 0.066 0.137 0.232 0.252 0.493 0.517 0.874 0.875 1.256 0.139 0.148 0.213 0.219 0.73 0.697 0.589 0.544 0.681 0.638 0.789 0.811 0.050 0.080 0.157 0.245 0.238 0.367 0.218 0.328 0.302 0.502 0.43 0.886 0.060 0.179 0.109 0.38 0.129 0.524 0.037 0.268 0.038 0.287 0.019 0.437-0.038 0.295-0.088 0.465-0.203 0.693-0.169 0.334-0.38 0.578-0.706 0.818-0.346 0.254-0.402 0.297-0.447 0.343-0.027 0.027-0.063 0.072-0.079 0.1l-0.030 0.050-0.089-0.006c-0.093-0.007-0.821-0.033-1.475-0.053-0.67-0.021-1.965-0.027-2.475-0.012-0.593 0.017-1.334 0.055-1.495 0.077-0.037 0.005-0.044 0.003-0.041-0.014zM9.662 25.724c-0.082-0.021-0.133-0.072-0.162-0.158-0.016-0.048-0.020-0.129-0.025-0.466l-0.005-0.408 0.030-0.028c0.029-0.027 0.042-0.029 0.305-0.044 0.284-0.016 1.595-0.119 1.916-0.15 0.253-0.024 0.666-0.036 2.126-0.059 1.531-0.024 1.232-0.033 3.71 0.112 0.368 0.021 0.663 0.047 0.833 0.071 0.322 0.046 0.507 0.080 0.54 0.097 0.111 0.057 0.129 0.354 0.029 0.473-0.057 0.068-0.659 0.456-0.743 0.479-0.056 0.015-0.339 0.008-0.694-0.019-0.757-0.056-1.317-0.090-1.876-0.112-0.468-0.019-2.483-0.027-2.937-0.012-0.642 0.021-1.965 0.12-2.509 0.188-0.316 0.039-0.483 0.050-0.538 0.036zM18.792 25.584c0-0.015 0.778-0.631 1.069-0.847 0.247-0.183 0.365-0.292 0.634-0.582 0.292-0.315 0.43-0.502 0.542-0.732 0.034-0.071 0.072-0.147 0.083-0.17 0.019-0.038 0.025-0.042 0.118-0.062 0.054-0.011 0.104-0.018 0.112-0.016s0.019 0.040 0.026 0.083c0.016 0.097 0.006 0.13-0.097 0.329-0.167 0.323-0.369 0.572-0.636 0.786-0.060 0.048-0.253 0.191-0.429 0.318-0.678 0.488-0.741 0.529-1.169 0.767-0.134 0.074-0.245 0.135-0.248 0.135s-0.004-0.005-0.004-0.011zM19.171 24.99c-0.004-0.006 0.068-0.096 0.16-0.201 0.36-0.412 0.646-0.773 0.745-0.94 0.032-0.054 0.105-0.193 0.163-0.309 0.161-0.323 0.188-0.365 0.24-0.379 0.024-0.007 0.079-0.012 0.122-0.012l0.079-0 0.001 0.061c0.003 0.121-0.006 0.145-0.104 0.294-0.050 0.076-0.354 0.448-0.541 0.662-0.213 0.244-0.848 0.85-0.864 0.824zM18.763 24.138c-0.205-0.024-0.42-0.053-0.478-0.063-0.262-0.046-3.245-0.193-3.973-0.196-0.471-0.002-1.703 0.024-1.777 0.037-0.035 0.006-0.169 0.012-0.297 0.012-0.213 0.001-0.502 0.018-1.060 0.065-1.059 0.088-1.85 0.139-1.918 0.123-0.123-0.028-0.202-0.121-0.215-0.254-0.010-0.102 0.013-0.527 0.031-0.566 0.029-0.063 0.042-0.065 0.756-0.131 0.369-0.034 0.791-0.075 0.938-0.091 0.319-0.035 0.462-0.045 1.212-0.083 0.314-0.016 0.676-0.038 0.804-0.049 0.304-0.027 1.236-0.026 2.196 0.002 0.375 0.011 0.854 0.022 1.066 0.024 0.273 0.003 0.457 0.012 0.635 0.029 0.709 0.069 1.53 0.153 1.608 0.164 0.048 0.007 0.221 0.033 0.384 0.058s0.386 0.054 0.495 0.064c0.218 0.020 0.245 0.030 0.257 0.092 0.004 0.022 0.006 0.185 0.003 0.364-0.004 0.302-0.006 0.328-0.028 0.366-0.034 0.059-0.088 0.082-0.186 0.080-0.045-0.001-0.249-0.021-0.454-0.046zM8.928 22.843c0.003-0.008 0.141-0.051 0.307-0.095s0.304-0.083 0.306-0.084c0.002-0.002-0.055-0.091-0.127-0.199s-0.155-0.245-0.183-0.306c-0.067-0.143-0.269-0.653-0.289-0.728-0.016-0.061-0.074-0.525-0.1-0.798-0.020-0.211-0.020-0.933 0-1.089 0.056-0.427 0.16-0.799 0.368-1.314 0.183-0.452 0.285-0.642 0.542-1.010 0.367-0.524 0.762-0.995 1.218-1.451 0.48-0.48 1.191-1.081 1.744-1.474 0.345-0.245 0.466-0.342 0.676-0.538 0.276-0.258 0.582-0.612 0.718-0.829 0.074-0.118 0.426-0.798 0.492-0.949 0.133-0.304 0.234-0.72 0.285-1.171 0.015-0.13 0.038-0.654 0.040-0.896 0-0.025 0.003-0.043 0.007-0.040s0.027 0.081 0.052 0.173c0.081 0.295 0.083 0.308 0.177 1.194 0.027 0.252-0.009 0.75-0.077 1.086-0.112 0.551-0.328 1.049-0.641 1.476-0.19 0.259-0.603 0.733-1.040 1.193-0.145 0.152-0.361 0.386-0.48 0.52s-0.318 0.357-0.443 0.495c-0.412 0.457-0.77 0.881-1.075 1.271-0.604 0.772-0.717 0.965-0.974 1.654-0.051 0.138-0.123 0.326-0.159 0.417-0.116 0.298-0.128 0.353-0.194 0.916-0.054 0.461-0.043 0.687 0.048 1.044 0.090 0.354 0.325 1.107 0.357 1.142 0.050 0.057 0.142 0.070 0.275 0.040 0.099-0.022 0.343-0.053 0.515-0.064 0.24-0.016 0.25-0.027 0.331-0.397 0.198-0.897 0.333-1.321 0.6-1.889 0.068-0.145 0.147-0.324 0.176-0.399 0.063-0.164 0.084-0.204 0.341-0.683 0.548-1.019 0.831-1.504 1.381-2.367 0.207-0.325 0.31-0.498 0.562-0.947 0.075-0.135 0.203-0.349 0.284-0.478s0.202-0.343 0.27-0.478c0.068-0.135 0.179-0.352 0.246-0.483 0.13-0.255 0.175-0.378 0.23-0.623 0.1-0.447 0.13-0.693 0.137-1.151 0.013-0.745-0.066-1.344-0.306-2.327-0.084-0.344-0.098-0.419-0.077-0.419 0.005 0 0.056 0.069 0.112 0.154s0.206 0.299 0.333 0.476c0.127 0.177 0.291 0.417 0.365 0.534s0.233 0.344 0.354 0.507c0.121 0.162 0.287 0.398 0.37 0.525 0.221 0.337 0.342 0.51 0.615 0.88 0.397 0.538 0.536 0.737 0.769 1.104 0.121 0.191 0.307 0.473 0.412 0.626 0.269 0.393 0.376 0.577 0.476 0.818 0.098 0.237 0.162 0.468 0.203 0.736 0.013 0.088 0.050 0.296 0.082 0.462 0.087 0.454 0.096 0.551 0.089 0.979-0.007 0.386-0.025 0.589-0.073 0.833-0.039 0.196-0.073 0.304-0.174 0.561-0.16 0.403-0.218 0.51-0.52 0.963-0.285 0.426-0.46 0.65-0.829 1.064-0.194 0.217-0.289 0.314-0.49 0.497-0.37 0.337-0.509 0.452-0.699 0.575-0.083 0.054-0.175 0.118-0.204 0.142-0.084 0.070-0.177 0.16-0.171 0.166 0.003 0.003 0.094 0.010 0.202 0.016 0.22 0.012 0.347 0.029 0.645 0.081 0.226 0.040 0.339 0.041 0.478 0.005 0.084-0.022 0.235-0.089 0.335-0.15 0.037-0.022 0.15-0.076 0.253-0.121 0.194-0.084 0.357-0.18 0.728-0.432 0.414-0.281 0.561-0.406 0.849-0.723 0.115-0.126 0.22-0.24 0.234-0.252l0.026-0.023-0.006 0.041c-0.003 0.022-0.009 0.075-0.013 0.116-0.017 0.208-0.080 0.839-0.106 1.065-0.029 0.252-0.040 0.297-0.082 0.335-0.012 0.011-0.15 0.072-0.307 0.136-0.367 0.149-0.489 0.206-0.489 0.228 0 0.015 0.035 0.031 0.099 0.046 0.097 0.022-1.963-0.005-2.113-0.027-0.042-0.006-0.413-0.016-0.823-0.022s-0.848-0.014-0.973-0.017c-1.296-0.038-1.684-0.046-2.394-0.046-0.727-0.001-0.858 0.002-1.209 0.025-0.217 0.014-0.482 0.026-0.59 0.026s-0.324 0.010-0.48 0.023c-0.156 0.013-0.451 0.037-0.656 0.053s-0.529 0.043-0.72 0.058c-0.401 0.033-0.431 0.034-0.425 0.014zM13.486 22.303c1.003-0.018 0.994-0.017 1.095-0.087 0.138-0.096 0.724-0.613 0.994-0.879 0.22-0.216 0.295-0.303 0.491-0.577 0.085-0.119 0.211-0.286 0.279-0.373 0.154-0.194 0.194-0.253 0.312-0.466 0.288-0.52 0.956-1.847 1.049-2.085 0.145-0.372 0.237-0.75 0.306-1.264 0.074-0.546 0.048-1.008-0.081-1.456-0.019-0.064-0.058-0.219-0.087-0.344-0.065-0.273-0.121-0.445-0.26-0.792-0.25-0.625-0.428-0.983-0.956-1.915-0.392-0.693-0.461-0.805-0.481-0.774-0.021 0.033-0.006 0.101 0.13 0.586 0.223 0.799 0.262 0.962 0.296 1.265 0.016 0.143 0.044 0.36 0.061 0.482 0.030 0.208 0.032 0.247 0.032 0.641 0 0.569-0.031 0.815-0.157 1.229-0.018 0.061-0.060 0.216-0.092 0.344-0.1 0.399-0.143 0.505-0.509 1.24-0.579 1.165-0.736 1.438-1.393 2.423-0.395 0.593-0.454 0.676-0.763 1.068-0.306 0.389-0.643 0.843-1.021 1.374-0.209 0.294-0.248 0.371-0.188 0.374 0.012 0.001 0.436-0.006 0.942-0.015zM20.412 22.19c-0.016-0.008-0.032-0.029-0.037-0.047s0.008-0.221 0.031-0.472c0.125-1.395 0.124-1.371 0.077-1.493-0.014-0.035-0.061-0.113-0.105-0.172-0.224-0.3-0.242-0.501-0.070-0.797 0.069-0.119 0.116-0.165 0.245-0.245 0.063-0.039 0.128-0.087 0.145-0.107 0.072-0.085 0.068 0.001 0.064-1.359-0.004-1.396-0.024-2.341-0.051-2.341-0.006 0-0.052 0.019-0.104 0.043-0.107 0.049-0.116 0.046-0.123-0.039-0.006-0.070 0.011-0.102 0.078-0.152 0.113-0.083 0.139-0.11 0.17-0.174l0.032-0.066-0.006-0.554 0.028-0.028c0.052-0.052 0.19-0.049 0.219 0.005 0.010 0.018 0.033 0.271 0.034 0.375 0 0.031 0.017 0.025 0.12-0.044 0.104-0.070 0.111-0.070 0.135 0.005 0.034 0.102 0.009 0.169-0.099 0.273-0.048 0.046-0.102 0.107-0.121 0.136-0.072 0.111-0.069 0.012-0.065 1.976 0.003 1.333 0.007 1.805 0.017 1.842 0.019 0.070 0.077 0.129 0.181 0.183 0.254 0.132 0.39 0.35 0.391 0.625 0 0.179-0.052 0.301-0.194 0.452-0.053 0.057-0.111 0.131-0.128 0.165-0.047 0.091-0.049 0.207-0.011 0.54 0.044 0.386 0.135 1.308 0.135 1.367 0 0.065-0.014 0.090-0.060 0.106-0.055 0.019-0.892 0.017-0.93-0.002zM7.726 21.449c-0.261-0.405-0.32-0.548-0.507-1.219-0.052-0.186-0.085-0.286-0.1-0.299-0.020-0.018-0.022-0.040-0.022-0.304 0-0.268 0.001-0.286 0.023-0.305 0.013-0.011 0.029-0.050 0.036-0.086 0.028-0.142 0.12-0.487 0.176-0.662 0.244-0.765 0.611-1.407 1.29-2.258 0.185-0.233 0.263-0.312 0.782-0.798 0.571-0.535 1.253-1.195 1.458-1.412 0.584-0.62 1.181-1.351 1.504-1.844 0.252-0.384 0.838-1.45 1.091-1.985 0.13-0.275 0.222-0.435 0.222-0.389 0.001 0.124-0.308 1.039-0.512 1.516-0.233 0.545-0.617 1.223-0.942 1.662-0.052 0.070-0.092 0.13-0.089 0.133 0.015 0.015 0.317-0.25 0.541-0.475 0.3-0.301 0.516-0.566 0.767-0.938 0.37-0.55 0.66-1.111 0.841-1.628 0.022-0.062 0.046-0.114 0.054-0.114s0.015 0.004 0.015 0.010c0 0.035-0.124 0.647-0.157 0.777-0.138 0.54-0.443 1.198-0.763 1.647-0.187 0.263-0.396 0.503-0.606 0.695-0.289 0.266-1.321 1.060-2.060 1.585-0.424 0.302-0.657 0.478-0.802 0.607-0.238 0.212-0.996 1.041-1.215 1.33-0.233 0.307-0.391 0.601-0.826 1.541-0.206 0.444-0.255 0.571-0.291 0.754-0.149 0.756-0.174 1.191-0.094 1.665 0.033 0.198 0.079 0.359 0.185 0.657 0.052 0.147 0.093 0.268 0.091 0.269s-0.043-0.058-0.090-0.133zM21.497 20.851c-0.014-0.072-0.026-0.158-0.026-0.191s-0.008-0.095-0.018-0.138-0.015-0.089-0.010-0.103c0.016-0.052 0.093-0.168 0.163-0.243 0.080-0.087 0.141-0.195 0.18-0.318s0.045-0.349 0.013-0.491c-0.051-0.23-0.128-0.363-0.329-0.572-0.076-0.078-0.151-0.166-0.168-0.194l-0.030-0.052-0.002-0.643c-0.002-0.465 0.001-0.645 0.011-0.648 0.024-0.008 0.266 0.571 0.379 0.908 0.308 0.921 0.306 1.764-0.005 2.538-0.057 0.142-0.12 0.279-0.128 0.279-0.002 0-0.015-0.059-0.029-0.131zM20.304 16.176c-0.095-0.118-0.172-0.22-0.172-0.227 0-0.025 0.029-0.008 0.138 0.081 0.15 0.123 0.222 0.235 0.21 0.33-0.003 0.028-0.023 0.007-0.176-0.184zM14.039 9.045c-0.046-0.017-0.058-0.042-0.058-0.111s0.035-0.551 0.088-1.203c0.046-0.564 0.047-0.597 0.022-0.677-0.018-0.057-0.038-0.085-0.118-0.168-0.148-0.154-0.186-0.256-0.176-0.482 0.009-0.212 0.071-0.358 0.224-0.527 0.049-0.054 0.158-0.12 0.241-0.147 0.046-0.014 0.057-0.077 0.070-0.383 0.014-0.322 0.029-3.388 0.017-3.388-0.004 0-0.060 0.026-0.123 0.058s-0.118 0.058-0.121 0.058c-0.012 0-0.017-0.107-0.006-0.145 0.009-0.033 0.026-0.052 0.072-0.082 0.074-0.048 0.114-0.090 0.149-0.158 0.026-0.050 0.028-0.066 0.033-0.352 0.004-0.199 0.010-0.304 0.019-0.313 0.021-0.021 0.092-0.032 0.146-0.023 0.085 0.016 0.092 0.032 0.092 0.246 0 0.102 0.003 0.185 0.006 0.185s0.063-0.023 0.133-0.051l0.127-0.051 0.019 0.048c0.011 0.026 0.019 0.076 0.020 0.109 0.001 0.079-0.030 0.126-0.125 0.188-0.091 0.060-0.127 0.099-0.159 0.171-0.026 0.058-0.026 0.065-0.033 0.815-0.009 1.049-0.002 2.854 0.012 2.917 0.017 0.080 0.049 0.113 0.154 0.163 0.194 0.092 0.311 0.211 0.377 0.382 0.045 0.116 0.052 0.299 0.017 0.436-0.037 0.147-0.093 0.254-0.18 0.347-0.041 0.044-0.086 0.102-0.1 0.128-0.039 0.077-0.038 0.11 0.071 1.359 0.020 0.231 0.037 0.462 0.038 0.515 0.002 0.148 0.041 0.137-0.486 0.14-0.245 0.001-0.453-0.001-0.463-0.004z"></path>
</svg>
