<!-- Generated by IcoMoon.io -->
<svg version="1.1" xmlns="http://www.w3.org/2000/svg" width="32" height="32" viewBox="0 0 32 32">
<title>multiclass</title>
<path fill="#394852" d="M16.5 5.013l-10.928 7.937 4.175 12.844h13.506l4.172-12.844zM16.5 6.987l9.047 6.572-3.456 10.634h-11.181l-3.456-10.634zM11.606 11.478l-1.213 1.044c1.184 1.381 1.842 2.68 2.434 4.056-1.007-0.197-2.021-0.387-3.012-0.813l-0.631 1.469c1.441 0.618 2.9 0.987 4.319 1.194 0.418 1.587 0.697 3.254 0.697 5.572h1.6c0-2.196-0.342-3.848-0.734-5.497 0.993 0.060 1.955 0.122 2.863 0.050-0.385 1.638-0.728 3.271-0.728 5.447h1.6c0-2.415 0.267-4.172 0.725-5.806 1.64-0.282 3.389-0.573 4.291-0.959l-0.631-1.469c-0.561 0.241-1.892 0.403-2.906 0.631 0.588-1.306 1.197-2.555 2.328-3.875l-1.212-1.044c-1.503 1.754-2.504 3.452-3.169 5.366-1.104 0.115-2.184 0.13-3.431 0.034-0.664-1.928-1.675-3.635-3.188-5.4z"></path>
</svg>
