<!-- Generated by IcoMoon.io -->
<svg version="1.1" xmlns="http://www.w3.org/2000/svg" width="32" height="32" viewBox="0 0 32 32">
<title>murder_at_the_excelsior_hotel</title>
<path d="M22.858 23.566c-0.056-0.034-0.057-0.14-0.076-0.191-0.051-0.14-0.122-0.272-0.189-0.406-0.033-0.069-0.065-0.137-0.106-0.202-0.040-0.062-0.093-0.116-0.138-0.174-0.059-0.075-0.111-0.148-0.18-0.212-0.052-0.049-0.105-0.096-0.164-0.136-0.054-0.038-0.118-0.062-0.176-0.095-0.14-0.081-0.256-0.179-0.356-0.303-0.043-0.054-0.084-0.117-0.135-0.165-0.039-0.036-0.075-0.072-0.112-0.11-0.055-0.058-0.095-0.124-0.152-0.181-0.099-0.101-0.11-0.265-0.084-0.396 0.025-0.123 0.092-0.197 0.181-0.287 0.134-0.135 0.255-0.281 0.394-0.413 0.105-0.1 0.248-0.148 0.382-0.204 0.026-0.011 0.076-0.031 0.096-0.051 0.027-0.027 0.016-0.063 0.017-0.096 0.003-0.218-0.102-0.387-0.241-0.558-0.034-0.041-0.074-0.078-0.109-0.12-0.022-0.026-0.039-0.062-0.069-0.081-0.033-0.021-0.074-0.031-0.114-0.033-0.062-0.004-0.111 0.018-0.169 0.032-0.078 0.017-0.106 0.058-0.17 0.103-0.049 0.035-0.099 0.070-0.133 0.118-0.062 0.088-0.111 0.188-0.164 0.28-0.043 0.075-0.102 0.14-0.198 0.147-0.112 0.007-0.216-0.042-0.322-0.070-0.126-0.034-0.27-0.065-0.36-0.157-0.045-0.046-0.094-0.084-0.144-0.126-0.050-0.044-0.097-0.091-0.152-0.13-0.131-0.094-0.231-0.209-0.329-0.332-0.080-0.101-0.151-0.208-0.234-0.307-0.154-0.184-0.284-0.385-0.448-0.562-0.074-0.079-0.151-0.153-0.221-0.235-0.068-0.080-0.128-0.165-0.197-0.244-0.126-0.144-0.263-0.281-0.395-0.42-0.121-0.13-0.234-0.266-0.355-0.397-0.19-0.202-0.345-0.424-0.52-0.638-0.356-0.439-0.717-0.869-1.105-1.283-0.112-0.119-0.206-0.243-0.305-0.372-0.062-0.080-0.131-0.158-0.188-0.242-0.069-0.103-0.135-0.207-0.209-0.309-0.046-0.062-0.102-0.109-0.146-0.176-0.060-0.093-0.129-0.179-0.205-0.262-0.181-0.198-0.309-0.423-0.447-0.649-0.069-0.114-0.147-0.221-0.213-0.336-0.013-0.023-0.066-0.158-0.108-0.16-0.018-0.001-0.058 0.030-0.074 0.040-0.075 0.051-0.128 0.138-0.185 0.206-0.022 0.026-0.044 0.053-0.078 0.067-0.084 0.032-0.166-0.030-0.238-0.056-0.139-0.049-0.269-0.132-0.347-0.252-0.123-0.188-0.168-0.379-0.196-0.595-0.015-0.116-0.031-0.226-0.031-0.342-0.001-0.056 0.009-0.072 0.032-0.123 0.025-0.056 0.048-0.113 0.079-0.167 0.041-0.072 0.034-0.071 0.002-0.146-0.223-0.512-0.477-1.013-0.697-1.527-0.12-0.279-0.257-0.551-0.38-0.83-0.044-0.101-0.095-0.199-0.146-0.297-0.054-0.105-0.088-0.21-0.135-0.318-0.14-0.324-0.365-0.608-0.552-0.907-0.092-0.146-0.173-0.299-0.256-0.45-0.037-0.067-0.071-0.135-0.108-0.202-0.030-0.053-0.092-0.115-0.101-0.174 0.012 0.083 0.002 0.174 0.002 0.257 0 0.218-0.007 0.437-0.001 0.655 0.004 0.138 0.020 0.274 0.020 0.413 0 0.116 0.001 0.233 0 0.35 0 0.242 0.030 0.485 0.070 0.724 0.033 0.195 0.015 0.386 0.023 0.583 0.004 0.141 0.019 0.285 0.033 0.425 0.017 0.192 0.053 0.379 0.075 0.57 0.016 0.146 0.048 0.288 0.065 0.434 0.017 0.152 0.031 0.305 0.054 0.457 0.014 0.091 0.039 0.181 0.053 0.273 0.015 0.096 0.018 0.193 0.039 0.289 0.035 0.158 0.068 0.318 0.108 0.476 0.020 0.075 0.033 0.152 0.055 0.225 0.021 0.072 0.054 0.137 0.076 0.208 0.038 0.128 0.062 0.249 0.128 0.368 0.059 0.105 0.083 0.22 0.146 0.325 0.060 0.101 0.134 0.197 0.198 0.297 0.037 0.058 0.060 0.119 0.105 0.174 0.033 0.040 0.065 0.077 0.093 0.118 0.059 0.085 0.105 0.177 0.163 0.262 0.065 0.092 0.144 0.173 0.206 0.268 0.058 0.090 0.095 0.188 0.164 0.273 0.040 0.050 0.084 0.095 0.121 0.147 0.046 0.062 0.076 0.132 0.128 0.19 0.038 0.040 0.082 0.075 0.119 0.116 0.050 0.055 0.088 0.118 0.136 0.173 0.113 0.13 0.238 0.253 0.344 0.387 0.049 0.062 0.098 0.115 0.152 0.172 0.062 0.067 0.113 0.141 0.18 0.203 0.117 0.105 0.238 0.203 0.348 0.315 0.135 0.136 0.269 0.272 0.416 0.397 0.137 0.116 0.28 0.223 0.426 0.329 0.132 0.095 0.257 0.198 0.389 0.292 0.176 0.126 0.353 0.251 0.517 0.392 0.081 0.070 0.154 0.142 0.243 0.204 0.059 0.041 0.115 0.077 0.168 0.125 0.074 0.066 0.14 0.131 0.22 0.192 0.12 0.090 0.24 0.179 0.355 0.275 0.141 0.116 0.278 0.238 0.42 0.353 0.174 0.139 0.352 0.274 0.515 0.425 0.102 0.095 0.203 0.196 0.309 0.287 0.088 0.075 0.182 0.142 0.264 0.224 0.108 0.11 0.237 0.195 0.357 0.292 0.054 0.044 0.138 0.103 0.152 0.176 0.010 0.057-0.043 0.115-0.078 0.157-0.072 0.086-0.166 0.173-0.253 0.245-0.052 0.044-0.104 0.071-0.128 0.132-0.029 0.076-0.057 0.159-0.096 0.231-0.038 0.068-0.063 0.138-0.092 0.209-0.043 0.098-0.1 0.182-0.131 0.286-0.026 0.087-0.071 0.174-0.089 0.263-0.011 0.055 0.003 0.11 0.015 0.164 0.027 0.109 0.109 0.128 0.218 0.151 0.118 0.025 0.234 0.071 0.35 0.105 0.062 0.017 0.116 0.021 0.178 0.021 0.126-0.001 0.252 0.004 0.378 0.001 0.105-0.001 0.213-0.003 0.261-0.097 0.029-0.057 0.055-0.116 0.079-0.174 0.027-0.064 0.033-0.127 0.052-0.193 0.013-0.045 0.037-0.084 0.054-0.127 0.013-0.031 0.018-0.062 0.040-0.088 0.043-0.054 0.14-0.060 0.205-0.067 0.038-0.005 0.092-0.019 0.128-0.016 0.036 0.001 0.018 0.007 0.041 0.025 0.083 0.067 0.12 0.206 0.168 0.298 0.056 0.109 0.128 0.213 0.15 0.335 0.014 0.082 0.043 0.15 0.065 0.23 0.086 0.319 0.279 0.609 0.503 0.861 0.215 0.24 0.418 0.493 0.608 0.75 0.017 0.024 0.027 0.045 0.040 0.070 0.030 0.051 0.077 0.085 0.116 0.129 0.074 0.084 0.162 0.151 0.238 0.232 0.036 0.038 0.076 0.073 0.111 0.113 0.055 0.062 0.11 0.103 0.179 0.152 0.146 0.101 0.312 0.156 0.474 0.231 0.158 0.073 0.327 0.142 0.503 0.167 0.125 0.017 0.208-0.037 0.272-0.136 0.062-0.097 0.115-0.209 0.15-0.318 0.018-0.060 0.017-0.122 0.034-0.182 0.016-0.058 0.041-0.116 0.057-0.174 0.037-0.128 0.052-0.262 0.019-0.393-0.014-0.055-0.028-0.113-0.048-0.165-0.034-0.086-0.097-0.154-0.144-0.233-0.071-0.119-0.16-0.219-0.237-0.333-0.058-0.088-0.129-0.148-0.213-0.215-0.064-0.050-0.107-0.114-0.17-0.16-0.042-0.031-0.094-0.052-0.134-0.086z"></path>
<path d="M10.572 9.515c0 0.060-0.003 0.122-0.001 0.182 0.003 0.080 0.032 0.151 0.036 0.231 0.007 0.162 0.017 0.333-0.043 0.485-0.051 0.128-0.108 0.245-0.17 0.367-0.036 0.070-0.063 0.147-0.101 0.222-0.052 0.103-0.059 0.177-0.059 0.294 0 0.175-0.008 0.333 0.043 0.502 0.050 0.164 0.112 0.328 0.195 0.48 0.060 0.112 0.072 0.235 0.109 0.353 0.039 0.123 0.076 0.244 0.112 0.368 0.027 0.093 0.050 0.173 0.050 0.271 0.001 0.095 0.036 0.176 0.035 0.272-0.003 0.289 0.024 0.574-0.104 0.84-0.067 0.14-0.149 0.347-0.304 0.423-0.131 0.065-0.32 0.016-0.441-0.040-0.108-0.050-0.174-0.169-0.249-0.258-0.083-0.099-0.099-0.198-0.132-0.317-0.034-0.116-0.018-0.223-0.024-0.341-0.003-0.069-0.038-0.138-0.030-0.206s0.019-0.148 0.035-0.215c0.062-0.27 0.16-0.521 0.197-0.797 0.038-0.292 0.033-0.58 0.034-0.875 0-0.14-0.011-0.264-0.043-0.402-0.034-0.149-0.024-0.296-0.025-0.446-0.001-0.117 0.002-0.2 0.067-0.302 0.049-0.078 0.096-0.156 0.154-0.23 0.195-0.252 0.355-0.562 0.415-0.866 0.050-0.259 0.075-0.517 0.077-0.779-0.009 0.049 0.011 0.079 0.025 0.125 0.028 0.101 0.028 0.209 0.048 0.312 0.023 0.105 0.076 0.182 0.116 0.281 0.026 0.060 0.027 0.149-0.019 0.068z"></path>
<path d="M15.68 10.422c-0.013 0.011-0.074 0.016-0.092 0.021-0.083 0.014-0.164 0.014-0.247 0.031-0.073 0.014-0.137 0.055-0.209 0.074-0.067 0.016-0.136 0.026-0.204 0.035-0.114 0.016-0.223 0.031-0.334 0.062-0.063 0.017-0.124 0.036-0.187 0.052-0.014 0.004-0.055 0.008-0.067 0.021-0.023 0.028-0.012 0.101-0.009 0.138 0.013 0.14 0.084 0.269 0.123 0.403 0.027 0.094 0.055 0.189 0.079 0.284 0.016 0.062 0.024 0.132 0.050 0.192 0.057 0.009 0.109-0.027 0.157-0.041 0.076-0.021 0.14-0.054 0.219-0.078 0.121-0.036 0.234-0.054 0.359-0.062 0.11-0.007 0.215-0.048 0.325-0.047 0.101 0.001 0.203 0.001 0.305 0.001 0.088 0 0.166 0.014 0.252 0.023 0.151 0.014 0.287 0.060 0.435 0.086 0.184 0.031 0.383 0.057 0.57 0.070 0.289 0.018 0.593 0.074 0.864 0.182 0.273 0.11 0.521 0.247 0.766 0.405 0.222 0.142 0.417 0.303 0.612 0.482 0.107 0.097 0.209 0.213 0.299 0.326 0.041 0.051 0.060 0.105 0.094 0.16 0.022 0.026 0.041 0.052 0.058 0.080 0.003 0.019 0.009 0.037 0.021 0.052 0.111-0.083 0.254-0.136 0.38-0.201 0.057-0.030 0.108-0.062 0.168-0.086 0.045-0.018 0.108-0.034 0.145-0.065 0.046-0.040 0.035-0.050 0.012-0.105-0.046-0.115-0.094-0.226-0.152-0.336-0.115-0.222-0.28-0.419-0.435-0.615-0.144-0.183-0.337-0.318-0.508-0.473-0.081-0.075-0.165-0.119-0.251-0.184-0.125-0.095-0.25-0.172-0.39-0.245-0.162-0.084-0.326-0.132-0.498-0.191-0.167-0.057-0.325-0.128-0.496-0.174-0.229-0.062-0.45-0.147-0.681-0.2-0.153-0.035-0.299-0.069-0.446-0.123 0.002-0.035-0.009-0.053-0.017-0.085-0.008-0.031-0.005-0.060-0.010-0.092-0.009-0.051-0.025-0.105-0.035-0.153-0.015-0.067 0-0.135-0.004-0.203-0.007-0.099-0.044-0.195-0.047-0.296-0.004-0.148 0.001-0.296 0.001-0.444 0-0.175-0.003-0.347 0.017-0.522 0.018-0.158 0.004-0.318 0.032-0.476 0.006-0.035 0.025-0.137 0.062-0.158 0.033-0.019 0.082 0.014 0.116 0.021 0.104 0.018 0.21 0.043 0.316 0.062 0.072 0.011 0.138 0.028 0.207 0.050 0.073 0.025 0.149 0.028 0.221 0.050 0.135 0.043 0.272 0.077 0.41 0.113 0.17 0.042 0.324 0.122 0.499 0.149 0.11 0.016 0.196 0.036 0.294 0.090 0.075 0.041 0.156 0.065 0.236 0.094 0.139 0.053 0.258 0.111 0.409 0.131 0.062 0.008 0.17 0.024 0.231 0.005 0.046-0.014 0.039-0.005 0.058-0.062 0.050-0.146 0.068-0.301 0.118-0.448 0.030-0.086 0.059-0.175 0.091-0.261 0.016-0.043 0.043-0.083 0.049-0.128 0.006-0.001 0.012-0.003 0.018-0.004-0.027-0.144-0.241-0.157-0.418-0.225-0.055-0.021-0.106-0.049-0.161-0.068-0.099-0.034-0.206-0.052-0.303-0.089-0.074-0.028-0.136-0.077-0.211-0.103-0.078-0.028-0.159-0.049-0.237-0.077-0.202-0.072-0.378-0.183-0.585-0.239-0.193-0.051-0.371-0.123-0.569-0.152-0.147-0.021-0.284-0.041-0.432-0.040-0.114 0.001-0.227 0.001-0.342 0.001-0.261 0-0.517 0.001-0.776 0.039-0.364 0.052-0.728 0.085-1.088 0.159-0.177 0.036-0.357 0.046-0.53 0.1-0.164 0.052-0.329 0.1-0.496 0.139-0.204 0.047-0.399 0.103-0.589 0.193-0.177 0.083-0.393 0.138-0.548 0.262-0.082 0.066-0.040 0.122 0.011 0.19 0.057 0.077 0.117 0.153 0.18 0.225 0.071 0.081 0.139 0.168 0.216 0.244 0.037 0.037 0.057 0.097 0.105 0.123 0.062 0.034 0.17-0.017 0.233-0.051 0.041-0.022 0.079-0.036 0.123-0.050 0.057-0.017 0.097-0.048 0.15-0.072 0.091-0.041 0.176-0.094 0.268-0.135 0.078-0.034 0.164-0.053 0.245-0.080 0.109-0.037 0.228-0.075 0.342-0.089 0.073-0.009 0.15-0.001 0.222-0.001 0.197 0 0.394-0.001 0.59 0 0.060 0.001 0.116 0.011 0.175 0.017 0.033 0.003 0.094-0.007 0.115 0.025 0.027 0.043 0.002 0.169 0.002 0.218v0.503c0 0.139 0 0.279 0.001 0.418 0.001 0.187-0.024 0.37-0.024 0.556 0.001 0.185 0.011 0.375 0.001 0.56-0.001 0.027-0.002 0.095-0.027 0.114z"></path>
<path d="M29.288 16.513c-0.016-0.205-0.060-0.409-0.068-0.615-0.008-0.222-0.001-0.448-0.001-0.671 0-0.142-0.008-0.286 0.005-0.428 0.011-0.123 0.024-0.239 0.014-0.363-0.011-0.151-0.030-0.302-0.062-0.45-0.047-0.22-0.133-0.423-0.212-0.632s-0.162-0.413-0.247-0.618c-0.114-0.273-0.193-0.55-0.25-0.838-0.042-0.208-0.116-0.405-0.172-0.609-0.067-0.246-0.163-0.473-0.302-0.69-0.030-0.046-0.064-0.082-0.093-0.129-0.026-0.039-0.047-0.080-0.081-0.111-0.008-0.007-0.014-0.014-0.012-0.023-0.014 0.011-0.027 0.021-0.040 0.033-0.078 0.072-0.147 0.151-0.236 0.211-0.086 0.057-0.164 0.124-0.251 0.178-0.058 0.037-0.084 0.066-0.136 0.114-0.011 0.011-0.033 0.017-0.040 0.031-0.023 0.041 0.029 0.139 0.040 0.18 0.056 0.195 0.155 0.372 0.204 0.57 0.041 0.167 0.096 0.332 0.163 0.491 0.071 0.168 0.094 0.342 0.154 0.515 0.024 0.069 0.041 0.136 0.055 0.207 0.011 0.055 0.038 0.099 0.052 0.153 0.017 0.062 0.014 0.117 0.038 0.178 0.028 0.071 0.036 0.138 0.055 0.211 0.047 0.183 0.137 0.357 0.182 0.54 0.037 0.152 0.070 0.309 0.096 0.464 0.014 0.079 0.026 0.156 0.046 0.234 0.028 0.105 0.068 0.206 0.093 0.312 0.028 0.113 0.073 0.219 0.105 0.33 0.024 0.085 0.027 0.173 0.037 0.26 0.023 0.202 0.093 0.392 0.097 0.599 0.003 0.246-0.088 0.48-0.137 0.717-0.057 0.28-0.1 0.56-0.166 0.836-0.042 0.176-0.035 0.355-0.082 0.531-0.057 0.221-0.078 0.452-0.121 0.676-0.037 0.195-0.084 0.391-0.101 0.59-0.014 0.154-0.038 0.305-0.070 0.456-0.054 0.259-0.146 0.508-0.237 0.755-0.028 0.075-0.073 0.138-0.103 0.212-0.030 0.068-0.052 0.141-0.078 0.211-0.052 0.144-0.131 0.277-0.2 0.415-0.057 0.116-0.14 0.207-0.206 0.317-0.074 0.124-0.145 0.245-0.232 0.36-0.148 0.195-0.254 0.417-0.394 0.619-0.074 0.107-0.143 0.217-0.223 0.32-0.086 0.11-0.152 0.223-0.222 0.341-0.068 0.114-0.161 0.206-0.238 0.312-0.105 0.148-0.208 0.288-0.337 0.416-0.105 0.105-0.197 0.216-0.295 0.327-0.091 0.103-0.229 0.206-0.338 0.289-0.084 0.065-0.173 0.125-0.26 0.187-0.053 0.037-0.111 0.071-0.161 0.111-0.072 0.056-0.15 0.093-0.222 0.147-0.105 0.078-0.195 0.16-0.293 0.246-0.157 0.137-0.336 0.254-0.501 0.381-0.248 0.191-0.499 0.387-0.766 0.55-0.074 0.045-0.139 0.099-0.212 0.142s-0.137 0.103-0.212 0.143c-0.051 0.027-0.108 0.041-0.158 0.070-0.064 0.036-0.112 0.075-0.179 0.103-0.135 0.055-0.247 0.144-0.385 0.193-0.144 0.051-0.286 0.112-0.432 0.158-0.084 0.027-0.17 0.034-0.253 0.057-0.078 0.022-0.15 0.058-0.23 0.073-0.064 0.012-0.127 0.021-0.19 0.041-0.067 0.022-0.139 0.028-0.204 0.053-0.137 0.053-0.288 0.062-0.425 0.113-0.053 0.019-0.095 0.044-0.152 0.058-0.059 0.014-0.119 0.025-0.176 0.044-0.094 0.034-0.184 0.042-0.282 0.060-0.085 0.016-0.161 0.053-0.248 0.063-0.070 0.007-0.135 0.022-0.205 0.035-0.268 0.053-0.529 0.13-0.79 0.204-0.074 0.021-0.149 0.023-0.221 0.039-0.080 0.017-0.156 0.048-0.239 0.060-0.108 0.016-0.072-0.053-0.086-0.132-0.026-0.14-0.040-0.277-0.040-0.419-0.001-0.154 0.015-0.307 0.022-0.461 0.002-0.076 0.024-0.15 0.025-0.226 0.001-0.105 0.012-0.206 0.019-0.311 0.005-0.085 0.005-0.169 0.018-0.254 0.010-0.069 0.026-0.139 0.030-0.209 0.005-0.097-0.001-0.198-0.001-0.296 0.001-0.194-0.029-0.377-0.057-0.568-0.014-0.099-0.002-0.197-0.031-0.293-0.008-0.030-0.015-0.049-0.009-0.078 0.008-0.036 0.019-0.031 0.038-0.058 0.006-0.008 0.014-0.022 0.023-0.036 0.013-0.001 0.027 0.001 0.041 0 0.102-0.012 0.206-0.035 0.308-0.049 0.084-0.011 0.168-0.011 0.252-0.019 0.090-0.011 0.179-0.040 0.269-0.052 0.084-0.012 0.167-0.024 0.25-0.033 0.094-0.011 0.175-0.045 0.265-0.069 0.113-0.029 0.227-0.055 0.339-0.085 0.225-0.057 0.471-0.098 0.658-0.248 0.059-0.047 0.111-0.105 0.162-0.161 0.038-0.042 0.043-0.025 0.027-0.069-0.018-0.050-0.062-0.092-0.087-0.138-0.033-0.058-0.052-0.122-0.083-0.181-0.045-0.084-0.078-0.155-0.113-0.244-0.030-0.078-0.068-0.155-0.106-0.228-0.031-0.060-0.058-0.048-0.116-0.028-0.081 0.029-0.157 0.070-0.236 0.108-0.041 0.021-0.071 0.027-0.116 0.035-0.066 0.011-0.127 0.043-0.19 0.066-0.132 0.049-0.266 0.072-0.402 0.113-0.15 0.046-0.305 0.085-0.46 0.109-0.104 0.016-0.211 0.020-0.316 0.032-0.147 0.017-0.291 0.051-0.438 0.074-0.067 0.011-0.133 0.022-0.2 0.034-0.531-0.023-1.064 0.018-1.595 0.001-0.147-0.005-0.3-0.035-0.446-0.057-0.069-0.011-0.136-0.032-0.205-0.036-0.083-0.004-0.166 0.007-0.249-0.003-0.288-0.037-0.576-0.083-0.827-0.238-0.13-0.080-0.27-0.147-0.403-0.22-0.072-0.040-0.137-0.088-0.21-0.127-0.113-0.062-0.208-0.149-0.321-0.208-0.113-0.058-0.216-0.127-0.334-0.174-0.17-0.068-0.344-0.121-0.518-0.179-0.219-0.073-0.467-0.095-0.659-0.242 0.010-0.072 0.048-0.143 0.091-0.21 0.015-0.022 0.032-0.043 0.046-0.066 0.054-0.081 0.124-0.148 0.187-0.222 0.026-0.030 0.049-0.060 0.074-0.090 0.075-0.069 0.146-0.139 0.216-0.211 0.085-0.085 0.178-0.16 0.263-0.243 0.13-0.129 0.223-0.286 0.333-0.432 0.024-0.031 0.048-0.060 0.074-0.090 0.028-0.032 0.057-0.064 0.086-0.095 0.071-0.081 0.127-0.172 0.207-0.244 0.038-0.035 0.071-0.067 0.102-0.108 0.011-0.014 0.024-0.026 0.035-0.038 0.015 0.019 0.030 0.040 0.046 0.058 0.090 0.1 0.209 0.185 0.312 0.274 0.094 0.081 0.195 0.153 0.297 0.223 0.112 0.077 0.217 0.166 0.332 0.238 0.109 0.069 0.229 0.126 0.343 0.186 0.16 0.084 0.352 0.124 0.53 0.15 0.139 0.019 0.275 0.007 0.415 0.014 0.037 0.001 0.077 0.001 0.112 0.016 0.085-0.109 0.119-0.261 0.189-0.379 0.059-0.103 0.129-0.198 0.175-0.307 0.014-0.032 0.048-0.1 0.045-0.138-0.132-0.012-0.267-0.075-0.395-0.105-0.2-0.049-0.378-0.127-0.568-0.207-0.125-0.053-0.246-0.112-0.363-0.18-0.113-0.067-0.207-0.155-0.317-0.224-0.134-0.087-0.259-0.183-0.387-0.28-0.065-0.049-0.133-0.090-0.2-0.133-0.016-0.024-0.032-0.046-0.046-0.064-0.025-0.031-0.052-0.060-0.079-0.089 0.004-0.015 0.008-0.031 0.010-0.051-0.045-0.043-0.081-0.094-0.126-0.138-0.048-0.040-0.097-0.079-0.146-0.118-0.045-0.050-0.086-0.103-0.123-0.161-0.129-0.172-0.284-0.323-0.419-0.491-0.062-0.078-0.101-0.16-0.155-0.243-0.041-0.062-0.095-0.114-0.132-0.179-0.069-0.122-0.134-0.249-0.197-0.374-0.036-0.070-0.047-0.15-0.073-0.224-0.036-0.103-0.073-0.206-0.097-0.313-0.054-0.239-0.037-0.488-0.062-0.73-0.018-0.176-0.005-0.36-0.005-0.537 0-0.126 0.018-0.268 0-0.392-0.083-0.039-0.184-0.049-0.273-0.075-0.086-0.031-0.174-0.056-0.264-0.077-0.047-0.005-0.093-0.016-0.138-0.032-0.026-0.014-0.050-0.028-0.076-0.042-0.021-0.005-0.042-0.005-0.062-0.001-0.028-0.008-0.033-0.032-0.067-0.026-0.046 0.009-0.109 0.103-0.13 0.134-0.046 0.071-0.057 0.156-0.094 0.23-0.035 0.070-0.060 0.13-0.074 0.207-0.029 0.159-0.037 0.298-0.040 0.46-0.001 0.085 0.028 0.147 0.041 0.229 0.003 0.039 0.005 0.077 0.007 0.116 0.017 0.052 0.037 0.105 0.060 0.155 0.056 0.172 0.094 0.35 0.157 0.52 0.032 0.085 0.040 0.173 0.071 0.257 0.041 0.111 0.094 0.217 0.137 0.328 0.055 0.142 0.134 0.272 0.199 0.41 0.067 0.144 0.093 0.306 0.191 0.434 0.128 0.168 0.228 0.358 0.373 0.511 0.081 0.085 0.117 0.195 0.196 0.28 0.053 0.056 0.116 0.101 0.175 0.15-0.010 0.014-0.021 0.025-0.030 0.037-0.178 0.245-0.332 0.508-0.538 0.731-0.212 0.23-0.435 0.443-0.689 0.625-0.174 0.125-0.325 0.256-0.465 0.417-0.038-0.045-0.077-0.088-0.114-0.133-0.084-0.101-0.168-0.202-0.24-0.314-0.051-0.080-0.096-0.164-0.151-0.242-0.094-0.136-0.193-0.263-0.276-0.409-0.050-0.087-0.095-0.179-0.149-0.265-0.051-0.083-0.123-0.152-0.173-0.238-0.084-0.141-0.157-0.29-0.245-0.428-0.062-0.095-0.127-0.19-0.174-0.293-0.046-0.098-0.085-0.203-0.136-0.298-0.078-0.144-0.173-0.283-0.257-0.425-0.045-0.076-0.093-0.15-0.137-0.225-0.046-0.079-0.069-0.167-0.111-0.247-0.086-0.167-0.137-0.356-0.18-0.539-0.062-0.258-0.125-0.537-0.133-0.807 0.052 0 0.104-0.003 0.153-0.009 0.022-0.098 0.002-0.225 0.002-0.326 0-0.103 0-0.205 0-0.307 0-0.292 0.031-0.58 0.082-0.868 0.017-0.101 0.028-0.198 0.031-0.299 0.004-0.113 0.027-0.21 0.039-0.322 0.030-0.265 0.11-0.512 0.188-0.769 0.062-0.201 0.121-0.4 0.164-0.606 0.012-0.060 0.055-0.135 0.037-0.199-0.099-0.025-0.207-0.015-0.306-0.043-0.073-0.021-0.146-0.050-0.219-0.070-0.126-0.033-0.264 0.019-0.391 0.018-0.072 0-0.077 0.005-0.103 0.072-0.040 0.109-0.059 0.23-0.11 0.334-0.065 0.132-0.153 0.248-0.207 0.386-0.017 0.044-0.013 0.084-0.026 0.13-0.026 0.095-0.088 0.173-0.11 0.266-0.027 0.117-0.065 0.235-0.105 0.347-0.049 0.137-0.064 0.273-0.092 0.414-0.045 0.224-0.013 0.465 0.029 0.69 0.017 0.096 0.040 0.199 0.068 0.292 0.026 0.087 0.041 0.174 0.065 0.261 0 0.003 0.002 0.007 0.003 0.009-0.001 0-0.002 0-0.004 0-0.197 0-0.391-0.025-0.586-0.023-0.125 0.001-0.246-0.014-0.37-0.021-0.182-0.009-0.365-0.001-0.546-0.001-0.282 0-0.563 0-0.845 0h-0.645c-0.039 0-0.18 0.024-0.21-0.007-0.021-0.021-0.003-0.117-0.003-0.145 0-0.067 0-0.134 0-0.201 0-0.181 0.007-0.35 0.034-0.53 0.072-0.498 0.272-0.969 0.477-1.425 0.13-0.288 0.269-0.577 0.382-0.871 0.074-0.189 0.156-0.372 0.235-0.558 0.080-0.188 0.14-0.384 0.23-0.568 0.128-0.264 0.234-0.538 0.358-0.803 0.087-0.185 0.15-0.382 0.253-0.56 0.037-0.062 0.085-0.117 0.118-0.18 0.046-0.092 0.088-0.16 0.16-0.236 0.184-0.195 0.324-0.428 0.511-0.624 0.217-0.225 0.432-0.478 0.583-0.753 0.062-0.113 0.128-0.222 0.192-0.333 0.041-0.071 0.098-0.143 0.128-0.218 0.028-0.005 0.072 0.045 0.089 0.060 0.090 0.075 0.172 0.159 0.24 0.255 0.056 0.079 0.109 0.161 0.166 0.239 0.077 0.103 0.164 0.195 0.235 0.301 0.126 0.194 0.267 0.363 0.407 0.545 0.121 0.048 0.222 0.12 0.304 0.208 0.031-0.011 0.062-0.021 0.093-0.031 0.062-0.064 0.133-0.119 0.215-0.162 0.069-0.105 0.156-0.198 0.268-0.267 0.053-0.094 0.118-0.181 0.202-0.251-0.041-0.060-0.080-0.121-0.126-0.177-0.045-0.055-0.097-0.105-0.143-0.159-0.049-0.056-0.094-0.114-0.147-0.168-0.056-0.058-0.12-0.095-0.183-0.144-0.278-0.215-0.553-0.448-0.788-0.71-0.071-0.079-0.149-0.144-0.225-0.215-0.060-0.056-0.114-0.119-0.171-0.176 0.011-0.012 0.023-0.025 0.037-0.037 0.031-0.026 0.071-0.032 0.107-0.050 0.074-0.036 0.146-0.078 0.219-0.115 0.146-0.073 0.274-0.171 0.412-0.256 0.052-0.032 0.115-0.054 0.172-0.076 0.081-0.031 0.157-0.071 0.235-0.107 0.213-0.098 0.448-0.165 0.647-0.293 0.165-0.107 0.323-0.223 0.489-0.329 0.16-0.101 0.345-0.161 0.521-0.231 0.082-0.033 0.159-0.072 0.24-0.108 0.078-0.034 0.158-0.054 0.234-0.094 0.101-0.053 0.196-0.101 0.304-0.14 0.137-0.050 0.26-0.126 0.386-0.2 0.152-0.087 0.316-0.146 0.473-0.219 0.147-0.069 0.301-0.107 0.452-0.165 0.142-0.056 0.281-0.116 0.428-0.156 0.221-0.059 0.437-0.126 0.666-0.148 0.202-0.019 0.399-0.033 0.602-0.034 0.482 0 0.963 0 1.445 0 0.41 0 0.83-0.028 1.236 0.034 0.189 0.029 0.381 0.055 0.57 0.075 0.213 0.022 0.425 0.053 0.638 0.086 0.148 0.022 0.286 0.051 0.436 0.054 0.1 0.001 0.196 0.008 0.294 0.028 0.158 0.032 0.301 0.073 0.452 0.128 0.201 0.074 0.394 0.16 0.584 0.255 0.187 0.094 0.373 0.181 0.564 0.266 0.097 0.043 0.201 0.071 0.297 0.116 0.082 0.039 0.165 0.072 0.25 0.103 0.106 0.039 0.197 0.088 0.295 0.141s0.204 0.095 0.301 0.154c0.113 0.068 0.231 0.132 0.338 0.209 0.133 0.093 0.26 0.195 0.402 0.275 0.342 0.195 0.697 0.373 1.032 0.581 0.172 0.107 0.358 0.199 0.486 0.361 0.105 0.133 0.206 0.238 0.274 0.397 0.018 0.041 0.071 0.11 0.052 0.157-0.011 0.029-0.043 0.040-0.068 0.055-0.035 0.023-0.058 0.051-0.088 0.079-0.157 0.138-0.281 0.295-0.417 0.453-0.118 0.135-0.252 0.253-0.388 0.37-0.086 0.074-0.187 0.136-0.267 0.216-0.106 0.107-0.195 0.224-0.309 0.324-0.183 0.161-0.364 0.332-0.536 0.505-0.059 0.060-0.133 0.13-0.17 0.207-0.016 0.035-0.013 0.064-0.013 0.101-0.334-0.154-0.466 0.001-0.541 0.201-0.023 0.063-0.062 0.124-0.033 0.187 0.023 0.051 0.083 0.089 0.12 0.13 0.136 0.154 0.282 0.301 0.409 0.464 0.085 0.11 0.19 0.2 0.278 0.305 0.11 0.13 0.176 0.288 0.252 0.44 0.119 0.237 0.208 0.488 0.328 0.725 0.098 0.194 0.2 0.384 0.294 0.58 0.156 0.321 0.283 0.671 0.35 1.024 0.056 0.291 0.031 0.6 0.033 0.895 0.001 0.16-0.012 0.324-0.026 0.483-0.028 0.016-0.067 0.005-0.097 0.004-0.050-0.001-0.1 0-0.151 0-0.272 0-0.524 0.022-0.794 0.068-0.258 0.044-0.511 0.063-0.773 0.074-0.242 0.011-0.482 0.033-0.724 0.040-0.358 0.011-0.726 0.011-1.077 0.090-0.024 0.060-0.026 0.136-0.036 0.202-0.018 0.11-0.026 0.22-0.035 0.331-0.013 0.182-0.041 0.362-0.059 0.543-0.023 0.214-0.073 0.442-0.131 0.649-0.028 0.1-0.059 0.2-0.088 0.3-0.012 0.043-0.034 0.103-0.025 0.151 0.015 0.083 0.133 0.11 0.207 0.139 0.21 0.085 0.43 0.137 0.646 0.209 0.044 0.015 0.144 0.076 0.189 0.038 0.032-0.028 0.056-0.111 0.073-0.15 0.053-0.121 0.094-0.255 0.17-0.365 0.071-0.103 0.114-0.221 0.179-0.327 0.016-0.028 0.045-0.047 0.065-0.073 0.040-0.053 0.065-0.124 0.098-0.179 0.076-0.124 0.144-0.245 0.206-0.375 0.038-0.082 0.079-0.159 0.112-0.242 0.023-0.056 0.067-0.109 0.062-0.173 0.087-0.014 0.182-0.001 0.271-0.001 0.092-0.001 0.175 0.007 0.265 0.022 0.105 0.018 0.216 0.043 0.323 0.047 0.112 0.004 0.221-0.005 0.333 0.009 0.16 0.019 0.32 0.053 0.482 0.058 0.158 0.005 0.318-0.001 0.476-0.001h0.23c-0.006 0.055-0.011 0.111-0.018 0.167-0.027 0.198-0.056 0.397-0.082 0.594-0.042 0.327-0.087 0.654-0.129 0.981-0.011 0.089-0.028 0.173-0.050 0.261-0.018 0.073-0.021 0.15-0.043 0.22-0.019 0.060-0.053 0.111-0.070 0.171-0.012 0.048-0.025 0.096-0.040 0.145-0.030 0.094-0.059 0.183-0.117 0.266-0.058 0.086-0.139 0.156-0.203 0.239-0.077 0.101-0.146 0.212-0.225 0.312-0.035 0.042-0.092 0.112-0.139 0.144-0.021 0.014-0.057 0.014-0.066 0.035 0.069 0.051 0.216 0.038 0.296 0.053 0.167 0.034 0.34 0.094 0.503 0.146 0.081 0.026 0.163 0.042 0.245 0.066 0.078 0.021 0.146 0.062 0.221 0.087 0.040 0.012 0.038 0.015 0.066-0.021 0.050-0.069 0.079-0.169 0.114-0.246 0.052-0.119 0.070-0.244 0.105-0.368 0.024-0.081 0.054-0.158 0.084-0.237 0.025-0.068 0.030-0.134 0.047-0.204 0.038-0.159 0.084-0.312 0.136-0.465 0.048-0.14 0.089-0.3 0.103-0.448 0.014-0.169 0.067-0.334 0.091-0.502 0.015-0.105 0.022-0.206 0.021-0.313-0.001-0.162 0.005-0.325 0.001-0.488-0.004-0.15-0.021-0.287-0.007-0.437 0.005-0.054 0.007-0.105 0.004-0.158 0.016 0 0.034 0.001 0.046-0.004 0.015-0.207 0-0.422 0-0.63 0-0.089 0.005-0.18 0-0.271-0.003-0.069-0.030-0.137-0.040-0.208-0.019-0.126-0.038-0.255-0.056-0.382-0.012-0.088-0.019-0.176-0.038-0.262-0.022-0.103-0.064-0.199-0.092-0.298-0.073-0.251-0.105-0.511-0.157-0.767-0.015-0.070-0.019-0.131-0.021-0.202-0.001-0.074-0.027-0.142-0.047-0.212-0.026-0.089-0.048-0.177-0.072-0.267-0.048-0.19-0.131-0.364-0.211-0.54-0.036-0.078-0.078-0.159-0.106-0.239-0.095-0.271-0.183-0.537-0.361-0.769-0.090-0.119-0.202-0.221-0.292-0.341-0.043-0.057-0.089-0.112-0.132-0.168-0.033-0.041-0.058-0.086-0.107-0.11 0.050-0.053 0.139-0.091 0.199-0.136 0.046-0.035 0.079-0.079 0.133-0.107 0.108-0.055 0.175-0.137 0.271-0.212 0.119-0.092 0.243-0.175 0.355-0.278 0.145-0.132 0.235-0.287 0.354-0.438 0.060-0.078 0.13-0.149 0.19-0.229 0.070-0.094 0.127-0.196 0.194-0.292 0.193-0.279 0.458-0.521 0.706-0.751 0.075-0.071 0.147-0.144 0.218-0.217 0.051-0.053 0.137-0.097 0.181-0.157-0.121-0.232-0.202-0.485-0.324-0.716-0.16-0.306-0.354-0.592-0.66-0.772-0.089-0.052-0.169-0.105-0.244-0.179-0.054-0.055-0.105-0.109-0.166-0.157-0.15-0.116-0.311-0.214-0.467-0.319-0.425-0.287-0.819-0.616-1.241-0.906-0.419-0.288-0.861-0.532-1.327-0.734-0.216-0.094-0.43-0.193-0.651-0.278-0.076-0.029-0.151-0.062-0.227-0.090-0.132-0.049-0.271-0.072-0.406-0.112-0.386-0.114-0.774-0.257-1.175-0.312-0.204-0.028-0.41-0.033-0.612-0.072-0.172-0.034-0.345-0.058-0.519-0.090-0.218-0.040-0.434-0.087-0.654-0.118-0.096-0.014-0.19-0.035-0.282-0.069-0.060-0.022-0.12-0.049-0.184-0.059-0.096-0.014-0.201-0.001-0.297-0.003-0.116 0-0.231 0-0.347 0.007-0.243 0.012-0.499 0-0.74 0.038-0.421 0.067-0.84 0.135-1.265 0.188-0.109 0.014-0.216 0.030-0.325 0.044-0.064 0.008-0.126 0.027-0.19 0.036-0.088 0.014-0.181 0.011-0.269 0.033-0.331 0.086-0.676 0.122-1.010 0.211-0.155 0.041-0.309 0.089-0.463 0.134-0.11 0.032-0.22 0.062-0.327 0.103-0.128 0.050-0.249 0.118-0.374 0.175-0.175 0.079-0.329 0.191-0.511 0.256-0.168 0.060-0.322 0.144-0.479 0.231-0.168 0.091-0.334 0.183-0.507 0.264-0.203 0.094-0.372 0.214-0.557 0.336-0.4 0.264-0.819 0.495-1.239 0.724-0.165 0.089-0.348 0.168-0.491 0.291-0.113 0.096-0.181 0.2-0.266 0.317-0.013-0.008-0.026-0.017-0.039-0.025-0.055-0.032-0.101-0.031-0.154 0.001-0.146 0.090-0.277 0.21-0.4 0.327-0.105 0.099-0.229 0.162-0.328 0.27-0.077 0.081-0.149 0.206-0.202 0.303-0.056 0.105-0.132 0.193-0.192 0.295-0.064 0.11-0.147 0.215-0.228 0.313-0.18 0.219-0.432 0.398-0.561 0.655-0.069 0.137-0.178 0.242-0.239 0.386-0.054 0.128-0.131 0.239-0.202 0.359-0.153 0.257-0.266 0.514-0.356 0.799-0.053 0.172-0.122 0.343-0.162 0.52-0.035 0.156-0.083 0.292-0.138 0.442-0.024 0.062-0.025 0.129-0.048 0.191-0.022 0.056-0.062 0.101-0.087 0.158-0.062 0.147-0.117 0.297-0.179 0.444-0.117 0.272-0.213 0.557-0.291 0.84-0.062 0.224-0.133 0.446-0.182 0.673-0.023 0.1-0.031 0.202-0.062 0.301-0.024 0.074-0.050 0.145-0.069 0.219-0.013 0.053-0.039 0.1-0.041 0.157-0.002 0.083-0.012 0.157-0.027 0.239-0.038 0.231-0.073 0.462-0.107 0.692-0.004 0.029-0.019 0.051-0.025 0.081-0.012 0.077 0.002 0.168 0.002 0.247v0.408c0 0.077-0.008 0.138-0.022 0.212-0.010 0.060-0.001 0.13-0.001 0.191v0.316c0 0.042-0.003 0.088-0.005 0.134-0.058 0.003-0.083-0.001-0.086 0.072-0.009 0.195 0.005 0.391 0.002 0.585-0.005 0.227-0.035 0.446-0.004 0.674 0.039 0.302 0.111 0.589 0.199 0.881 0.089 0.293 0.178 0.591 0.291 0.876 0.068 0.174 0.109 0.358 0.189 0.527 0.048 0.103 0.089 0.202 0.121 0.309 0.018 0.062 0.033 0.127 0.067 0.182 0.056 0.091 0.093 0.183 0.139 0.28 0.024 0.048 0.051 0.091 0.079 0.136 0.021 0.035 0.038 0.096 0.065 0.124 0.029 0.030 0.032 0.024 0.082 0.024 0.019 0 0.036-0.001 0.053-0.001 0.023 0.053 0.045 0.107 0.067 0.16 0.068 0.171 0.155 0.323 0.241 0.484 0.098 0.187 0.235 0.359 0.363 0.526 0.111 0.144 0.192 0.309 0.304 0.453 0.063 0.080 0.132 0.155 0.19 0.24 0.078 0.114 0.136 0.238 0.215 0.35 0.105 0.148 0.205 0.302 0.316 0.446 0.064 0.082 0.137 0.155 0.197 0.241 0.071 0.103 0.129 0.208 0.208 0.306 0.121 0.151 0.225 0.311 0.362 0.45 0.171 0.174 0.316 0.377 0.497 0.541 0.168 0.151 0.358 0.282 0.537 0.42 0.076 0.060 0.164 0.1 0.233 0.168 0.058 0.057 0.116 0.108 0.18 0.159 0.083 0.067 0.158 0.141 0.239 0.212 0.105 0.092 0.215 0.172 0.314 0.272 0.117 0.119 0.241 0.233 0.352 0.358 0.048 0.054 0.090 0.121 0.144 0.171 0.048 0.044 0.108 0.076 0.156 0.123 0.299 0.289 0.644 0.541 1.014 0.734 0.179 0.093 0.356 0.145 0.547 0.202 0.222 0.066 0.439 0.153 0.663 0.206 0.106 0.026 0.2 0.058 0.301 0.096s0.207 0.047 0.312 0.073c0.037 0.009 0.075 0.025 0.112 0.031 0.032 0.005 0.075-0.004 0.107 0.001 0.034 0.007 0.081 0.039 0.118 0.026 0.068-0.024 0.058-0.191 0.064-0.247 0.018-0.183 0.067-0.374 0.132-0.546 0.025-0.066 0.038-0.132 0.056-0.203 0.006-0.026 0.034-0.086 0.035-0.111 0.003-0.044-0.033-0.056-0.066-0.078-0.358-0.226-0.753-0.375-1.13-0.566-0.116-0.058-0.243-0.094-0.363-0.143-0.133-0.055-0.268-0.107-0.403-0.162-0.101-0.041-0.196-0.093-0.295-0.135-0.055-0.024-0.115-0.036-0.172-0.056-0.085-0.032-0.159-0.076-0.241-0.118-0.102-0.053-0.214-0.088-0.315-0.142-0.083-0.045-0.159-0.103-0.238-0.156-0.18-0.121-0.369-0.224-0.554-0.337-0.245-0.149-0.5-0.306-0.719-0.491-0.104-0.086-0.202-0.176-0.306-0.26-0.11-0.089-0.179-0.191-0.268-0.299-0.369-0.45-0.73-0.908-1.040-1.401-0.356-0.565-0.824-1.053-1.173-1.621-0.138-0.227-0.259-0.475-0.366-0.717-0.052-0.117-0.101-0.237-0.153-0.353-0.024-0.050-0.066-0.1-0.072-0.156-0.006-0.001-0.011-0.003 0.050-0.027-0.024 0.001-0.050 0.015-0.076 0.030-0.004-0.026-0.009-0.052-0.013-0.078-0.045-0.272-0.156-0.512-0.229-0.775-0.128-0.46-0.217-0.918-0.292-1.39-0.023-0.144-0.031-0.288-0.050-0.432-0.012-0.090-0.039-0.177-0.041-0.27-0.003-0.131 0.001-0.264 0.002-0.396 0-0.055-0.006-0.109-0.012-0.162 0.085 0.001 0.17 0.001 0.254-0.007 0.178-0.014 0.348-0.043 0.528-0.042 0.207 0.001 0.415 0.001 0.623 0.001h0.926c0.062 0 0.126-0.003 0.188-0.001 0.152 0.005 0.361 0.116 0.492-0.012 0.004 0.007 0.010 0.011 0.019 0.009 0.030-0.046 0.101-0.012 0.128 0.015 0.040 0.040 0.049 0.115 0.059 0.168 0.010 0.057 0.021 0.112 0.022 0.17 0.001 0.083 0.031 0.167 0.042 0.249 0.038 0.261 0.077 0.519 0.15 0.773 0.081 0.283 0.157 0.566 0.248 0.846 0.064 0.198 0.158 0.39 0.245 0.578 0.049 0.103 0.102 0.209 0.172 0.299 0.1 0.131 0.163 0.291 0.253 0.429 0.079 0.122 0.164 0.242 0.248 0.361 0.119 0.171 0.262 0.322 0.379 0.494 0.067 0.097 0.149 0.196 0.225 0.286 0.070 0.083 0.134 0.168 0.209 0.248 0.065 0.070 0.125 0.142 0.185 0.215-0.022 0.026-0.044 0.049-0.080 0.060 0.098 0.155 0.265 0.277 0.398 0.401 0.121 0.112 0.246 0.218 0.376 0.32 0.14 0.108 0.294 0.2 0.438 0.304 0.178 0.129 0.362 0.25 0.547 0.369 0.264 0.17 0.529 0.336 0.82 0.455 0.272 0.111 0.558 0.189 0.84 0.261 0.269 0.070 0.54 0.128 0.807 0.204 0.155 0.044 0.309 0.116 0.469 0.134 0.165 0.019 0.332 0.017 0.496 0.045 0.128 0.021 0.253 0.056 0.381 0.080 0.101 0.020 0.208 0.026 0.309 0.047 0.041 0.008 0.090 0.025 0.101 0.068 0.016 0.058-0.004 0.142-0.017 0.2-0.033 0.146-0.068 0.283-0.077 0.434-0.011 0.185-0.056 0.364-0.079 0.548-0.048 0.379-0.037 0.767-0.060 1.148-0.031 0.498-0.154 0.993-0.153 1.492 0 0.126-0.001 0.306 0.111 0.389 0.036 0.027 0.091 0.027 0.131 0.042 0.073 0.027 0.114 0.029 0.196 0.031 0.149 0.001 0.297 0.023 0.447 0.024 0.14 0.001 0.296 0.015 0.436-0.008 0.406-0.072 0.825-0.112 1.218-0.243 0.205-0.068 0.409-0.128 0.619-0.18 0.157-0.040 0.317-0.064 0.475-0.099 0.279-0.064 0.566-0.087 0.849-0.123 0.173-0.022 0.345-0.047 0.517-0.081 0.263-0.050 0.513-0.142 0.77-0.219 0.27-0.081 0.538-0.165 0.8-0.27 0.193-0.077 0.378-0.177 0.564-0.271 0.144-0.072 0.275-0.156 0.401-0.256 0.167-0.131 0.358-0.232 0.525-0.363 0.296-0.234 0.599-0.459 0.911-0.673 0.246-0.169 0.459-0.382 0.684-0.579 0.142-0.126 0.297-0.241 0.432-0.376 0.127-0.127 0.242-0.265 0.369-0.395 0.105-0.107 0.193-0.222 0.293-0.333 0.181-0.2 0.364-0.398 0.547-0.597 0.077-0.084 0.133-0.182 0.211-0.265 0.097-0.105 0.198-0.215 0.283-0.331 0.053-0.071 0.098-0.151 0.149-0.224 0.064-0.095 0.133-0.191 0.193-0.289 0.058-0.097 0.103-0.202 0.159-0.3 0.060-0.107 0.136-0.196 0.177-0.313 0.042-0.12 0.109-0.232 0.156-0.35 0.062-0.156 0.129-0.308 0.172-0.469 0.045-0.168 0.101-0.334 0.159-0.498 0.067-0.188 0.139-0.369 0.217-0.551 0.087-0.207 0.183-0.404 0.254-0.618 0.075-0.224 0.12-0.448 0.153-0.684 0.021-0.149 0.042-0.297 0.056-0.447 0.014-0.164 0.053-0.324 0.069-0.488 0.016-0.169 0.052-0.327 0.086-0.493 0.026-0.124 0.031-0.257 0.039-0.382 0.015-0.236 0.001-0.474-0.017-0.71z"></path>
</svg>
