<!-- Generated by IcoMoon.io -->
<svg version="1.1" xmlns="http://www.w3.org/2000/svg" width="32" height="32" viewBox="0 0 32 32">
<title>nate</title>
<path d="M26.561 22.078c-0.427-0.086-0.83-0.128-1.263-0.116 0.003-0.071 0.074-0.105 0.127-0.134 0.245-0.13 0.517-0.224 0.788-0.279 0.224-0.045 0.451-0.048 0.676-0.055 0.011-0.105 0.013-0.252-0.037-0.35l-0.067-0.105-0.109-0.14c-0.099-0.087-0.245-0.069-0.365-0.092-0.176-0.033-0.358-0.053-0.537-0.050-0.091 0.001-0.181 0.007-0.272 0.013-0.338-0.088-0.725-0.134-1.063-0.087-0.361 0.050-0.707 0.167-1.039 0.303-0.24 0.099-0.441 0.252-0.673 0.362-0.267 0.127-0.511 0.181-0.76 0.354-0.518 0.36-1.1 0.63-1.612 0.999-0.291 0.21-0.572 0.457-0.825 0.725-0.127 0.069-0.247 0.167-0.339 0.265s-0.204 0.187-0.283 0.295c-0.086 0.118-0.148 0.252-0.231 0.372-0.085 0.122-0.179 0.231-0.25 0.364-0.055 0.105-0.123 0.178-0.205 0.261-0.060 0.060-0.16 0.128-0.201 0.203l-0.022 0.078-0.125 0.125-0.081 0.080-0.006 0.027-0.004-0.007-0.046-0.027-0.002 0.138-0.010 0.039-0.001 0.088-0.015 0.108 0.029 0.088c0.012 0.067-0.003 0.145 0.036 0.208l0.149 0.147c0.067 0.044 0.203 0.038 0.296 0.041l0.008 0.007 0.015-0.065c0.029-0.090 0.072-0.116 0.133-0.186 0.067-0.079 0.104-0.165 0.18-0.24 0.151-0.149 0.25-0.349 0.39-0.508 0.153-0.172 0.324-0.329 0.484-0.495 0.102-0.105 0.215-0.193 0.333-0.282 0.124-0.092 0.235-0.195 0.362-0.284 0.141-0.099 0.257-0.204 0.415-0.28 0.142-0.068 0.271-0.131 0.418-0.188 0.167-0.066 0.33-0.147 0.503-0.197 0.1-0.028 0.201-0.044 0.298-0.080 0.298-0.108 0.607-0.122 0.927-0.106-0.058 0.048-0.086 0.083-0.154 0.107-0.083 0.030-0.123 0.067-0.187 0.132-0.102 0.105-0.218 0.215-0.346 0.289l-0.173 0.083c-0.081 0.051-0.155 0.118-0.248 0.149-0.179 0.061-0.312 0.166-0.47 0.267-0.081 0.052-0.151 0.116-0.23 0.171s-0.166 0.093-0.24 0.155c-0.076 0.064-0.134 0.144-0.214 0.203-0.083 0.062-0.16 0.119-0.23 0.193-0.178 0.186-0.363 0.358-0.512 0.568-0.106 0.149-0.233 0.28-0.335 0.434-0.081 0.121-0.148 0.252-0.226 0.371-0.036 0.055-0.058 0.12-0.079 0.182-0.031 0.087-0.078 0.156-0.116 0.238l-0.027 0.082c0.049 0.058 0.114 0.102 0.156 0.17 0.111 0.18 0.212 0.36 0.304 0.54l0.013 0.037c0.040 0.090 0.092 0.179 0.14 0.268 0.089 0.168 0.118 0.349 0.185 0.528 0.026 0.070 0.062 0.165 0.099 0.226 0.038 0.063 0.087 0.119 0.122 0.186l0.062 0.114-0.009 0.011-0.067 0.088-0.055 0.034-0.060 0.044 0.021 0.058 0.012 0.055c-0.010 0.051-0.015 0.105-0.009 0.17 0.015 0.154 0.083 0.207 0.192 0.313l0.027 0.027 0.070 0.063 0.005 0.001 0.116 0.025 0.118-0.004c0.187-0.017 0.374-0.029 0.556-0.074 0.235-0.060 0.479-0.090 0.716-0.144 0.147-0.034 0.289-0.076 0.441-0.092l0.141-0.024 0.162-0.044 0.147-0.019c0.134-0.037 0.265-0.083 0.401-0.113 0.128-0.029 0.259-0.058 0.386-0.092 0.14-0.037 0.282-0.076 0.418-0.127l0.167-0.060c0.097-0.034 0.185-0.083 0.281-0.118 0.168-0.062 0.341-0.126 0.494-0.217 0.126-0.076 0.264-0.119 0.397-0.184 0.185-0.091 0.378-0.168 0.565-0.256 0.201-0.095 0.397-0.202 0.591-0.311 0.181-0.102 0.374-0.181 0.553-0.285 0.13-0.076 0.264-0.143 0.398-0.212 0.141-0.072 0.262-0.193 0.39-0.285l0.164-0.127 0.166-0.117c0.071-0.070 0.138-0.144 0.207-0.214 0.050-0.051 0.098-0.095 0.155-0.137l0.097-0.092c0.085-0.114 0.069-0.259 0.058-0.399l-0.055-0.18-0.063-0.079-0.077-0.168c-0.038-0.077-0.045-0.149-0.141-0.177l-0.125-0.021-0.015-0.071c-0.039-0.127-0.067-0.256-0.097-0.383-0.027-0.113-0.061-0.228-0.077-0.342-0.034-0.244-0.1-0.495-0.163-0.735s-0.148-0.477-0.223-0.715c-0.041-0.13-0.085-0.26-0.137-0.387-0.036-0.091-0.062-0.191-0.109-0.277-0.092-0.171-0.139-0.359-0.222-0.533l-0.018-0.047c-0.102-0.020-0.205-0.038-0.306-0.058z"></path>
<path d="M18.794 3.211c-0.296-0.21-0.585-0.425-0.901-0.608-0.133-0.077-0.283-0.113-0.417-0.187-0.115-0.063-0.249-0.122-0.373-0.162-0.152-0.049-0.307-0.067-0.459-0.118s-0.309-0.078-0.468-0.090c-0.749-0.058-1.521-0.080-2.267 0.035-0.331 0.051-0.66 0.048-0.986 0.132-0.128 0.033-0.257 0.066-0.386 0.093l-0.153 0.011c-0.081 0.019-0.155 0.064-0.237 0.082-0.137 0.031-0.253 0.034-0.383 0.087-0.117 0.047-0.237 0.054-0.357 0.086-0.161 0.045-0.306 0.071-0.463 0.137-0.2 0.085-0.397 0.167-0.602 0.238l-0.135 0.062c-0.217 0.067-0.431 0.122-0.642 0.242-0.257 0.146-0.539 0.232-0.793 0.381-0.219 0.128-0.419 0.278-0.631 0.415-0.299 0.193-0.613 0.364-0.919 0.551-0.122 0.075-0.259 0.058-0.383 0.118-0.063 0.030-0.111 0.096-0.168 0.137-0.176 0.127-0.363 0.239-0.534 0.366-0.109 0.081-0.341 0.297-0.411 0.421l-0.031 0.104-0.071 0.057c-0.102 0.077-0.193 0.137-0.285 0.234-0.069 0.073-0.133 0.142-0.215 0.204-0.233 0.176-0.448 0.379-0.643 0.597-0.1 0.113-0.151 0.25-0.234 0.374-0.069 0.104-0.151 0.196-0.212 0.305-0.177 0.311-0.296 0.654-0.447 0.978-0.318 0.68-0.323 1.476-0.279 2.21 0.010 0.167 0.114 0.336 0.219 0.493l0.022 0.119c0.112 0.388 0.112 0.871 0.301 1.225 0.055 0.102 0.177 0.228 0.254 0.317 0.124 0.146 0.219 0.31 0.339 0.459 0.214 0.264 0.521 0.52 0.847 0.627 0.178 0.059 0.353 0.066 0.531 0.106 0.194 0.043 0.371 0.077 0.568 0.102 0.094 0.011 0.179 0.055 0.273 0.064 0.111 0.009 0.237-0.023 0.353-0.017 0.219 0.011 0.427-0.002 0.641 0.039 0.057 0.011 0.115 0.028 0.169 0.011 0.059 0.020 0.116 0.045 0.149 0.092l-0.025-0.084c0.070 0.009 0.144 0.019 0.161 0.007-0.041-0.081-0.115-0.124-0.161-0.201l-0.022-0.056 0.030 0.033c-0.070-0.191-0.174-0.373-0.249-0.563-0.070-0.179-0.108-0.311-0.219-0.469l-0.016-0.028c-0.048-0.138-0.079-0.265-0.1-0.423-0.022-0.161-0.073-0.32-0.116-0.482 0.002-0.129 0.041-0.26 0.076-0.383 0.062-0.223 0.088-0.461 0.16-0.68l0.083-0.16 0.018 0.086c0.038 0.137 0.038 0.28 0.088 0.412 0.043 0.115 0.121 0.207 0.169 0.321 0.097 0.233 0.151 0.463 0.275 0.685l0.051 0.11c0.032 0.099 0.067 0.197 0.111 0.296 0.185 0.417 0.45 0.802 0.62 1.225l0.001-0.029c-0.018-0.108-0.032-0.218-0.001-0.29l0.068-0.097 0.014-0.051 0.037-0.077c0.058-0.161 0.149-0.289 0.256-0.422 0.054-0.067 0.104-0.13 0.165-0.192l0.144-0.176c0.102-0.106 0.252-0.17 0.38-0.238l0.171-0.086c0.054-0.027 0.114-0.035 0.171-0.052 0.078-0.023 0.151-0.048 0.233-0.057l0.069 0.004-0.151 0.128-0.127 0.111-0.121 0.097c-0.197 0.164-0.366 0.367-0.492 0.594-0.041 0.076-0.074 0.149-0.108 0.229-0.043 0.104-0.105 0.197-0.149 0.3-0.035 0.083-0.088 0.185-0.1 0.274-0.009 0.064-0.016 0.122-0.031 0.186-0.032 0.136-0.052 0.274-0.072 0.412l-0.007 0.085c0.090 0.117 0.189 0.229 0.295 0.339 0.086 0.089 0.191 0.257 0.33 0.228 0.059-0.011 0.137-0.077 0.204-0.097 0.185-0.054 0.365-0.107 0.544-0.186 0.409-0.182 0.832-0.329 1.275-0.414 0.415-0.079 0.991-0.176 1.387-0.007-0.101 0.043-0.263-0.022-0.376-0.011-0.28 0.025-0.603 0.193-0.858 0.301-0.416 0.177-0.798 0.387-1.163 0.652-0.2 0.145-0.509 0.288-0.639 0.507-0.102 0.17-0.16 0.362-0.202 0.558-0.060 0.28-0.095 0.479-0.061 0.77 0.045 0.39-0.019 0.737 0.099 1.115 0.184 0.583 0.156 1.313 0.627 1.771-0.254-0.252-0.39-0.446-0.547-0.768-0.196-0.405-0.338-0.846-0.451-1.281-0.143-0.549-0.322-1.137-0.254-1.709 0.021-0.177 0.031-0.25-0.053-0.411-0.045-0.086-0.043-0.22-0.096-0.291-0.066-0.087-0.262-0.104-0.359-0.149-0.174-0.083-0.354-0.173-0.543-0.218-0.431-0.102-0.946-0.125-1.366-0.006-0.298 0.085-0.514 0.206-0.714 0.469-0.223 0.292-0.448 0.608-0.629 0.931-0.182 0.326-0.268 0.616-0.28 0.982-0.009 0.282-0.082 0.578-0.079 0.865 0.098 0.195 0.242 0.355 0.337 0.564 0.149 0.328 0.344 0.654 0.558 0.943 0.157 0.213 0.387 0.392 0.576 0.577 0.071 0.069 0.142 0.132 0.214 0.194 0.174 0.089 0.35 0.175 0.526 0.259 0.381 0.183 0.748 0.388 1.125 0.579 0.531 0.268 1.075 0.475 1.639 0.664 0.296 0.099 0.553 0.265 0.854 0.352 0.164 0.047 0.325 0.113 0.485 0.18 0.229 0.029 0.458 0.062 0.68 0.115 0.302 0.072 0.545 0.196 0.828 0.324 0.719 0.327 1.452 0.687 2.222 0.858 0.327 0.072 0.643 0.182 0.973 0.231 0.249 0.036 0.559 0.266 0.801 0.202 0.012-0.399 0.45-0.627 0.652-0.917 0.060-0.086 0.073-0.163 0.137-0.248 0.060-0.079 0.148-0.148 0.219-0.22 0.097-0.099 0.193-0.229 0.311-0.297 0.062-0.035 0.104-0.034 0.17-0.096l0.145-0.149c0.113-0.116 0.201-0.169 0.333-0.252 0.244-0.154 0.42-0.45 0.64-0.64 0.135-0.116 0.287-0.2 0.433-0.301 0.161-0.111 0.289-0.259 0.455-0.362 0.668-0.413 1.329-0.847 2.031-1.198 0.259-0.129 0.497-0.256 0.765-0.348 0.238-0.027 0.47-0.030 0.708-0.044 0.109-0.007 0.209 0.022 0.319 0.020 0.1-0.002 0.186-0.043 0.289-0.041 0.135 0.002 0.28 0.039 0.414 0.058 0.198 0.029 0.355-0.011 0.545 0.072 0.077 0.034 0.152 0.055 0.226 0.084 0.076 0.030 0.137 0.096 0.24 0.062 0.079-0.025 0.158-0.135 0.177-0.207 0.033-0.116-0.068-0.372-0.107-0.492-0.104-0.318-0.139-0.671-0.231-0.989-0.093-0.322-0.202-0.636-0.304-0.954-0.207-0.647-0.36-1.309-0.621-1.936-0.070-0.168-0.089-0.341-0.127-0.517l-0.037-0.138c-0.054-0.259-0.12-0.516-0.192-0.764-0.068-0.233-0.094-0.475-0.159-0.711-0.066-0.237-0.1-0.481-0.185-0.713-0.034-0.093-0.088-0.174-0.118-0.268-0.028-0.087-0.038-0.178-0.067-0.266-0.067-0.205-0.162-0.4-0.231-0.605-0.065-0.189-0.146-0.362-0.235-0.54-0.107-0.215-0.175-0.445-0.282-0.659-0.169-0.339-0.303-0.716-0.516-1.031-0.113-0.168-0.167-0.351-0.25-0.535-0.081-0.178-0.219-0.332-0.31-0.511-0.113-0.225-0.182-0.47-0.29-0.697-0.072-0.153-0.168-0.302-0.262-0.443-0.204-0.31-0.429-0.614-0.654-0.909-0.161-0.211-0.316-0.424-0.473-0.638-0.054-0.073-0.094-0.156-0.147-0.229-0.063-0.087-0.151-0.148-0.217-0.233-0.101-0.13-0.192-0.276-0.305-0.397-0.152-0.163-0.324-0.312-0.483-0.469-0.251-0.245-0.494-0.546-0.78-0.748z"></path>
</svg>
