<!-- Generated by IcoMoon.io -->
<svg version="1.1" xmlns="http://www.w3.org/2000/svg" width="36" height="32" viewBox="0 0 36 32">
<title>neurotic_fear</title>
<path d="M30.18 16.036c0.004-0.019 0.008-0.039 0.012-0.059 0.107-0.031 0.299-0.039 0.412-0.016 0.138 0.027 0.244 0.175 0.362 0.252 0.206 0.133 0.465 0.462 0.49 0.71 0.047 0.473-0.14 1.147-0.637 1.305-0.18 0.058-0.349 0.085-0.537 0.071-0.132-0.008-0.189-0.056-0.314-0.073-0.24-0.031-0.377-0.031-0.549-0.228-0.283-0.326 0.115-1.147 0.604-0.858 0.371-0.373-0.403-0.665-0.598-0.838 0.117-0.391 0.581-0.338 0.894-0.338z"></path>
<path d="M20.185 22.844c0.031-0.004 0.063-0.008 0.094-0.012 0.1 0.148 0.208 0.432 0.23 0.614 0.027 0.222-0.144 0.454-0.201 0.67-0.099 0.375-0.466 0.929-0.827 1.089-0.689 0.305-1.8 0.357-2.283-0.314-0.175-0.242-0.299-0.482-0.373-0.774-0.051-0.202-0.007-0.313-0.046-0.509-0.074-0.377-0.142-0.583 0.073-0.941 0.352-0.587 1.788-0.391 1.592 0.488 0.747 0.373 0.803-0.936 0.968-1.315 0.647-0.019 0.796 0.709 0.952 1.182z"></path>
<path d="M19.449 26.654l0.048-0.004c0.052 0.077 0.109 0.226 0.121 0.32 0.014 0.117-0.075 0.236-0.105 0.35-0.052 0.195-0.243 0.484-0.431 0.568-0.359 0.159-0.937 0.185-1.19-0.165-0.091-0.126-0.156-0.251-0.195-0.404-0.027-0.105-0.004-0.163-0.023-0.265-0.039-0.197-0.075-0.305 0.036-0.491 0.184-0.306 0.932-0.204 0.83 0.255 0.389 0.195 0.418-0.489 0.504-0.686 0.338-0.008 0.415 0.371 0.497 0.617z"></path>
<path d="M16.862 9.155c-0.031 0.004-0.063 0.008-0.094 0.012-0.099-0.148-0.208-0.432-0.23-0.612-0.027-0.223 0.144-0.455 0.201-0.671 0.1-0.375 0.466-0.929 0.829-1.089 0.688-0.305 1.798-0.357 2.282 0.314 0.175 0.242 0.299 0.482 0.373 0.773 0.051 0.202 0.008 0.313 0.046 0.509 0.074 0.377 0.142 0.583-0.073 0.941-0.352 0.587-1.786 0.391-1.591-0.488-0.747-0.374-0.803 0.936-0.968 1.315-0.647 0.016-0.796-0.709-0.952-1.182z"></path>
<path d="M17.598 5.346l-0.050 0.004c-0.051-0.077-0.107-0.226-0.119-0.32-0.014-0.117 0.075-0.236 0.105-0.35 0.052-0.195 0.243-0.484 0.431-0.568 0.359-0.158 0.937-0.185 1.19 0.165 0.091 0.126 0.156 0.251 0.195 0.404 0.027 0.105 0.003 0.163 0.023 0.265 0.039 0.198 0.075 0.305-0.036 0.491-0.184 0.306-0.932 0.204-0.83-0.255-0.39-0.195-0.418 0.489-0.504 0.686-0.337 0.008-0.415-0.371-0.497-0.616z"></path>
<path d="M29.614 14.762c-0.706 0.001-1.432-0.365-1.986-0.796-0.171-0.131-0.31-0.289-0.494-0.407-0.2-0.128-0.404-0.233-0.598-0.371-0.36-0.261-0.764-0.47-1.101-0.759-0.295-0.251-0.639-0.418-0.978-0.603-0.348-0.193-0.736-0.371-1.13-0.449-0.077-0.016-0.165-0.004-0.243-0.027-0.083-0.023-0.156-0.090-0.24-0.114-0.163-0.047-0.353-0.035-0.52-0.063-0.379-0.065-0.735-0.235-1.116-0.289-0.465-0.065-0.942-0.106-1.405-0.154-0.509-0.055-0.995-0.074-1.51-0.074h-2.795c-0.779 0-1.571-0.075-2.322 0.14-0.273 0.079-0.506 0.297-0.776 0.412-0.318 0.135-0.653 0.228-0.959 0.384-0.232 0.118-0.395 0.408-0.581 0.59-0.167 0.161-0.295 0.36-0.457 0.529-0.124 0.129-0.262 0.25-0.387 0.377-0.18 0.187-0.368 0.384-0.568 0.557-0.133 0.117-0.275 0.193-0.411 0.299-0.118 0.093-0.206 0.231-0.314 0.34-0.202 0.2-0.414 0.301-0.623 0.475-0.312 0.259-0.674 0.428-1.017 0.639-0.132 0.080-0.304 0.114-0.433 0.208-0.173 0.125-0.222 0.215-0.458 0.214-0.345 0-0.674 0.243-0.92 0.496-0.195 0.202-0.466 0.298-0.588 0.555-0.066 0.137-0.158 0.317-0.184 0.473-0.020 0.116 0.031 0.113 0.050 0.189 0.027 0.112 0.044 0.23 0.070 0.344 0.043 0.181 0.090 0.352 0.164 0.526 0.224 0.526 0.744 0.571 1.257 0.657s1.041 0.031 1.484-0.251c0.144-0.093 0.263-0.196 0.299-0.372 0.035-0.177 0.153-0.408 0.142-0.594-0.008-0.153-0.113-0.321-0.218-0.431-0.124-0.129-0.259-0.134-0.424-0.173-0.189-0.047-0.333-0.119-0.532-0.042-0.228 0.090-0.207 0.265-0.087 0.447 0.079 0.121 0.189 0.222 0.197 0.368 0.013 0.191-0.095 0.289-0.242 0.364-0.278 0.145-0.618 0.019-0.717-0.297-0.103-0.328-0.047-0.818 0.089-1.127 0.169-0.389 0.477-0.602 0.811-0.829 0.372-0.254 0.798-0.461 1.189-0.684 0.38-0.217 0.806-0.404 1.221-0.557 0.228-0.085 0.419-0.222 0.622-0.337 0.197-0.111 0.396-0.252 0.559-0.419 0.105-0.106 0.216-0.196 0.325-0.296 0.090-0.082 0.146-0.187 0.246-0.261 0.086-0.066 0.16-0.116 0.239-0.193 0.090-0.090 0.196-0.125 0.293-0.208 0.383-0.332 0.662-0.692 1.135-0.916 0.424-0.203 0.849-0.419 1.297-0.552 0.24-0.071 0.484-0.163 0.725-0.195 0.426-0.058 0.83-0.072 1.264-0.072h3.606c0.333 0 0.665-0.004 0.997-0.001 0.459 0.003 0.882 0.2 1.313 0.34 0.272 0.087 0.362 0.283 0.591 0.426 0.203 0.125 0.481 0.214 0.71 0.262 0.646 0.133 1.324 0.212 1.911 0.548 0.445 0.255 0.905 0.533 1.272 0.903 0.113 0.113 0.211 0.286 0.348 0.371 0.22 0.137 0.511 0.169 0.748 0.256 0.105 0.039 0.208 0.108 0.317 0.137 0.163 0.044 0.304 0.044 0.465 0.105 0.188 0.070 0.362 0.124 0.564 0.121 0.365-0.003 0.732 0 0.814-0.141z"></path>
<path d="M26.713 18.583c-0.669 0-1.336-0.019-1.985 0.16-0.603 0.165-1.156 0.434-1.766 0.556-0.508 0.103-0.979 0.308-1.488 0.424-0.216 0.051-0.39 0.153-0.595 0.234-0.165 0.065-0.36 0.044-0.537 0.077-0.188 0.035-0.375 0.055-0.563 0.091-0.192 0.035-0.387 0.027-0.581 0.066-0.299 0.065-0.6 0.107-0.904 0.143-0.434 0.052-0.838 0.159-1.273 0.159-0.309 0.001-0.616 0.023-0.917-0.051-0.4-0.099-0.814-0.078-1.209-0.165-0.081-0.019-0.138-0.066-0.215-0.095-0.095-0.035-0.187-0.031-0.287-0.048-0.157-0.027-0.302-0.091-0.452-0.143-0.245-0.089-0.504-0.146-0.741-0.257-0.325-0.151-0.715-0.243-1.064-0.321-0.321-0.070-0.614-0.227-0.919-0.353-0.513-0.211-1.027-0.395-1.555-0.564-0.156-0.048-1.232-0.404-1.199 0.004 0.134 0.055 0.329 0.054 0.477 0.103 0.126 0.042 0.25 0.079 0.377 0.116 0.203 0.058 0.398 0.148 0.543 0.306 0.116 0.125 0.172 0.182 0.336 0.258 0.564 0.258 1.191 0.54 1.801 0.689 0.433 0.106 0.895 0.217 1.308 0.38 0.443 0.175 0.947 0.224 1.381 0.423 0.841 0.382 1.792 0.376 2.691 0.513 0.2 0.031 0.399 0.089 0.599 0.119 0.181 0.027 0.38 0.004 0.564 0.004 0.455 0 0.88-0.016 1.33-0.087 0.212-0.035 0.428-0.065 0.635-0.124 0.212-0.059 0.415-0.152 0.627-0.219 0.387-0.121 0.737-0.222 1.105-0.402 0.351-0.171 0.745-0.243 1.116-0.373 0.345-0.121 0.666-0.207 0.991-0.385 0.111-0.062 0.205-0.131 0.318-0.18 0.122-0.052 0.257-0.073 0.384-0.105 0.115-0.031 0.215-0.077 0.324-0.125 0.134-0.062 0.262-0.050 0.404-0.085 0.168-0.040 0.282-0.087 0.447-0.106 0.11-0.016 0.168-0.059 0.277-0.075 0.167-0.023 0.336-0.058 0.501-0.071 0.136-0.012 0.236-0.051 0.368-0.072 0.156-0.023 0.324 0.077 0.406-0.098 0.068-0.146-0.026-0.305-0.138-0.38-0.329-0.222-0.772 0.031-0.92 0.058z"></path>
</svg>
