<!-- Generated by IcoMoon.io -->
<svg version="1.1" xmlns="http://www.w3.org/2000/svg" width="32" height="32" viewBox="0 0 32 32">
<title>new_orleans</title>
<path d="M6.485 30.989c-0.004-0.006-0.006-1.935-0.006-4.286 0.001-3.111-0.002-4.294-0.011-4.344-0.027-0.142-0.081-0.273-0.158-0.377-0.043-0.059-0.044-0.063-0.043-0.153 0.001-0.051 0.020-0.222 0.043-0.381 0.071-0.495 0.069-0.461 0.070-1.908l0.001-1.332-0.029-0.057c-0.032-0.063-0.11-0.13-0.162-0.14-0.018-0.004-0.033-0.012-0.032-0.020s0.038-0.043 0.084-0.079c0.046-0.037 0.107-0.087 0.135-0.113s0.080-0.068 0.115-0.095c0.124-0.095 0.175-0.141 0.191-0.172 0.015-0.029 0.059-0.283 0.189-1.094 0.032-0.2 0.081-0.506 0.11-0.68s0.075-0.468 0.104-0.651c0.029-0.184 0.078-0.493 0.109-0.686s0.080-0.499 0.108-0.68c0.098-0.616 0.167-1.055 0.22-1.395 0.029-0.187 0.079-0.504 0.111-0.703s0.081-0.511 0.109-0.692c0.028-0.181 0.077-0.489 0.108-0.686s0.068-0.43 0.081-0.519c0.013-0.089 0.030-0.184 0.037-0.212 0.025-0.1 0.011-0.182 0.257 1.543 0.079 0.555 0.162 1.131 0.183 1.28s0.063 0.44 0.093 0.646c0.030 0.206 0.077 0.533 0.105 0.726s0.059 0.406 0.068 0.473c0.016 0.116 0.084 0.586 0.212 1.459 0.032 0.216 0.081 0.55 0.109 0.744s0.058 0.429 0.065 0.525c0.016 0.208 0.046 0.392 0.080 0.48 0.054 0.144 0.175 0.288 0.309 0.367 0.108 0.064 0.18 0.131 0.214 0.198 0.070 0.138 0.026 0.241-0.144 0.332-0.065 0.035-0.066 0.036-0.074 0.1-0.004 0.036-0.006 0.396-0.003 0.801l0.005 0.736 0.032 0.033c0.059 0.062 0.189 0.060 0.281-0.005 0.043-0.029 0.065-0.059 0.113-0.148 0.033-0.061 0.091-0.16 0.129-0.22 0.080-0.125 0.112-0.186 0.161-0.306 0.019-0.048 0.056-0.131 0.082-0.186 0.133-0.283 0.165-0.393 0.165-0.558-0-0.095-0.006-0.132-0.029-0.201-0.027-0.077-0.028-0.088-0.013-0.123l0.016-0.039h0.43l-0.006 0.026c-0.004 0.014-0.017 0.079-0.030 0.145-0.026 0.126-0.024 0.162 0.012 0.262 0.011 0.032 0.055 0.156 0.097 0.277s0.108 0.307 0.146 0.415c0.039 0.108 0.093 0.261 0.121 0.34 0.036 0.102 0.062 0.155 0.087 0.182 0.020 0.021 0.042 0.037 0.048 0.037s0.036-0.020 0.064-0.045l0.052-0.045 0.003-0.673c0.002-0.37 0-0.685-0.003-0.7s-0.027-0.048-0.051-0.075c-0.048-0.052-0.128-0.192-0.156-0.271-0.014-0.039-0.015-0.061-0.005-0.107 0.013-0.061 0.026-0.072 0.094-0.085 0.060-0.011 0.11-0.056 0.12-0.108 0.004-0.023 0.008-0.201 0.009-0.396l0.001-0.354 0.034-0.035c0.019-0.019 0.045-0.035 0.058-0.035s0.116 0.032 0.229 0.070l0.206 0.070 0.192 0.010c0.235 0.012 0.918 0.014 1.231 0.003l0.229-0.008 0.064-0.064v-4.329l-0.051-0.207 0.046-0.039c0.025-0.022 0.107-0.082 0.182-0.134 0.276-0.192 0.381-0.27 0.402-0.298 0.023-0.031 0.038-0.114 0.146-0.829 0.066-0.433 0.192-1.318 0.204-1.424l0.007-0.069-0.070-0.086c-0.039-0.047-0.070-0.090-0.070-0.094s-0.023-0.049-0.052-0.1c-0.029-0.051-0.052-0.098-0.052-0.104 0-0.019 0.121-0.080 0.248-0.125 0.129-0.046 0.191-0.075 0.21-0.098 0.017-0.021 0.262-1.277 0.463-2.379 0.192-1.051 0.454-2.551 0.502-2.871 0.009-0.063 0.035-0.235 0.057-0.38 0.092-0.602 0.149-1.097 0.143-1.222-0.010-0.192-0.075-0.235-0.388-0.259-0.085-0.006-0.162-0.018-0.171-0.025-0.036-0.030-0.051-0.077-0.038-0.124 0.022-0.080 0.048-0.101 0.136-0.11 0.165-0.016 0.253-0.032 0.31-0.058 0.049-0.022 0.064-0.036 0.086-0.083 0.026-0.053 0.028-0.069 0.032-0.319l0.004-0.262h0.411l0.008 0.066c0.005 0.036 0.004 0.126-0.001 0.199-0.020 0.277-0.005 0.357 0.077 0.418 0.064 0.048 0.116 0.059 0.256 0.052l0.127-0.006 0.124 0.117-0.056 0.056c-0.070 0.070-0.098 0.077-0.315 0.077-0.153 0-0.171 0.003-0.199 0.024l-0.030 0.024v0.383c0 0.211 0.005 0.427 0.012 0.481 0.012 0.102 0.018 0.137 0.116 0.68 0.128 0.715 0.177 0.99 0.328 1.816 0.028 0.152 0.077 0.422 0.109 0.6s0.082 0.447 0.11 0.6c0.135 0.739 0.255 1.397 0.328 1.81 0.1 0.56 0.111 0.614 0.146 0.684 0.048 0.095 0.1 0.128 0.23 0.143 0.095 0.011 0.22 0.057 0.239 0.087 0.003 0.005-0.013 0.033-0.035 0.061-0.069 0.087-0.167 0.221-0.191 0.262-0.020 0.034-0.022 0.051-0.015 0.128 0.010 0.114 0.162 1.146 0.278 1.895 0.028 0.182 0.051 0.336 0.051 0.343s0.016 0.031 0.036 0.053c0.030 0.034 0.056 0.047 0.153 0.076 0.254 0.077 0.33 0.121 0.375 0.218l0.030 0.064 0.006 2.3c0.005 1.901 0.008 2.304 0.021 2.323 0.044 0.066 0.028 0.064 0.587 0.071 0.284 0.003 0.609 0.001 0.723-0.005l0.208-0.011 0.127-0.053c0.151-0.063 0.243-0.081 0.42-0.082l0.132-0.001 0.010 0.040c0.006 0.022 0.014 0.202 0.018 0.399l0.008 0.358 0.061 0.067c0.034 0.037 0.082 0.082 0.108 0.101 0.042 0.031 0.046 0.037 0.039 0.072-0.020 0.106-0.119 0.304-0.173 0.345l-0.041 0.031v0.718c0 0.798-0.007 0.73 0.077 0.772 0.050 0.025 0.076 0.023 0.103-0.007s0.193-0.453 0.27-0.689c0.030-0.092 0.068-0.203 0.085-0.248 0.105-0.274 0.129-0.386 0.109-0.51-0.007-0.043-0.022-0.1-0.035-0.128-0.037-0.083-0.030-0.085 0.21-0.080 0.112 0.002 0.208 0.007 0.212 0.011s-0.006 0.077-0.022 0.161c-0.016 0.085-0.029 0.165-0.029 0.178 0 0.021 0.052 0.139 0.331 0.749 0.035 0.076 0.122 0.259 0.194 0.406 0.11 0.227 0.135 0.27 0.163 0.281 0.018 0.007 0.085 0.016 0.149 0.019l0.116 0.006 0.016-0.056c0.013-0.046 0.016-0.192 0.016-0.8-0.001-0.856 0.005-0.808-0.102-0.859-0.129-0.061-0.161-0.14-0.104-0.256 0.032-0.067 0.127-0.168 0.378-0.404 0.056-0.053 0.108-0.112 0.117-0.133s0.021-0.084 0.029-0.141c0.014-0.101 0.058-0.409 0.173-1.199 0.031-0.216 0.081-0.558 0.11-0.761s0.076-0.525 0.104-0.715c0.028-0.19 0.082-0.564 0.12-0.83s0.109-0.754 0.156-1.084c0.048-0.33 0.097-0.672 0.109-0.761s0.061-0.431 0.11-0.761c0.048-0.33 0.095-0.654 0.104-0.721s0.037-0.264 0.063-0.438c0.026-0.174 0.054-0.374 0.064-0.444 0.023-0.162 0.030-0.204 0.035-0.199s0.039 0.216 0.115 0.695c0.029 0.184 0.078 0.495 0.109 0.692s0.081 0.51 0.11 0.698c0.029 0.187 0.079 0.498 0.109 0.692s0.080 0.505 0.109 0.692c0.030 0.187 0.079 0.498 0.109 0.692s0.080 0.505 0.109 0.692c0.030 0.187 0.079 0.498 0.11 0.692s0.080 0.502 0.109 0.686c0.029 0.184 0.076 0.477 0.104 0.651s0.077 0.48 0.109 0.68c0.032 0.2 0.061 0.381 0.065 0.403 0.016 0.099 0.097 0.205 0.222 0.293 0.16 0.112 0.215 0.199 0.186 0.291-0.008 0.025-0.026 0.068-0.041 0.097l-0.026 0.052-0.006 1.286c-0.003 0.707-0.002 1.384 0.004 1.505 0.007 0.147 0.022 0.289 0.046 0.432 0.047 0.281 0.055 0.426 0.031 0.553-0.021 0.11-0.081 0.247-0.141 0.319l-0.040 0.049 0.006 8.718h-9.676c-6.407 0-9.678-0.004-9.683-0.011zM12.27 30.339c0.019-0.021 0.020-0.334 0.020-6.242 0-3.861-0.004-6.227-0.011-6.24-0.006-0.011-0.032-0.035-0.057-0.052l-0.046-0.032-0.035 0.025c-0.019 0.014-0.045 0.038-0.058 0.055l-0.024 0.030v12.429l0.121 0.111 0.035-0.031c0.019-0.017 0.044-0.041 0.055-0.053zM17.602 30.401c0.078-0.048 0.074 0.050 0.070-1.439-0.004-1.321-0.004-1.348-0.027-1.428-0.090-0.307-0.354-0.538-0.795-0.696-0.222-0.079-0.35-0.098-0.65-0.098-0.217 0-0.282 0.004-0.398 0.026-0.319 0.059-0.602 0.159-0.767 0.272-0.097 0.067-0.202 0.186-0.257 0.293-0.062 0.12-0.084 0.19-0.106 0.337-0.014 0.091-0.017 0.327-0.017 1.376-0 1.248 0 1.267 0.023 1.304 0.049 0.079-0.052 0.074 1.493 0.075 1.364 0 1.396-0 1.432-0.022zM20.247 30.311c0.006-0.016 0.010-2.59 0.010-6.218 0-5.348-0.002-6.195-0.017-6.222-0.009-0.017-0.035-0.046-0.058-0.063-0.047-0.037-0.059-0.034-0.122 0.032l-0.040 0.042v12.427l0.113 0.115 0.051-0.042c0.028-0.023 0.056-0.054 0.062-0.069zM10.916 26.29c0.019-0.016 0.043-0.050 0.053-0.076 0.018-0.044 0.018-0.050-0.003-0.095-0.012-0.027-0.036-0.061-0.053-0.077l-0.031-0.029h-3.905l-0.041 0.040c-0.023 0.022-0.044 0.052-0.048 0.066-0.008 0.030 0.040 0.14 0.075 0.175l0.024 0.024h3.895zM25.386 26.274c0.072-0.099 0.074-0.14 0.009-0.214l-0.039-0.046h-3.921l-0.035 0.033c-0.073 0.070-0.073 0.142-0.001 0.229l0.036 0.043h3.918l0.033-0.046zM8.295 25.333c0.097-0.048 0.123-0.162 0.098-0.429-0.009-0.094-0.015-0.332-0.016-0.585l-0.001-0.427-0.031-0.067c-0.058-0.123-0.16-0.214-0.295-0.265-0.089-0.033-0.29-0.035-0.382-0.004-0.15 0.050-0.271 0.161-0.323 0.296-0.014 0.035-0.031 0.614-0.037 1.252-0.001 0.092 0.018 0.146 0.066 0.188 0.059 0.052 0.108 0.060 0.313 0.053 0.1-0.004 0.223-0.002 0.274 0.005 0.141 0.017 0.279 0.011 0.334-0.016zM22.058 25.344c0.209-0.019 0.235-0.027 0.271-0.082 0.019-0.029 0.020-0.079 0.020-0.671 0-0.687-0.003-0.732-0.059-0.845-0.038-0.077-0.091-0.132-0.159-0.168-0.053-0.028-0.070-0.031-0.186-0.031-0.117 0-0.131 0.002-0.18 0.031-0.061 0.036-0.115 0.094-0.149 0.159-0.052 0.101-0.058 0.167-0.072 0.692-0.019 0.748-0.019 0.771 0.006 0.821 0.026 0.052 0.058 0.074 0.137 0.095s0.13 0.021 0.368-0zM10.297 25.324c0.080-0.019 0.131-0.054 0.159-0.11 0.045-0.088 0.050-0.169 0.052-0.728 0.001-0.473-0.001-0.545-0.019-0.614-0.059-0.231-0.178-0.331-0.394-0.331-0.087 0-0.104 0.004-0.17 0.038-0.12 0.062-0.18 0.163-0.206 0.345-0.006 0.040-0.011 0.362-0.011 0.714-0 0.706-0.005 0.66 0.069 0.689 0.044 0.017 0.443 0.015 0.52-0.003zM15.56 25.288l0.039-0.045v-0.636c0-0.689-0.002-0.71-0.064-0.824-0.131-0.239-0.458-0.326-0.729-0.194-0.126 0.061-0.225 0.189-0.254 0.329-0.008 0.041-0.013 0.277-0.013 0.7v0.639l0.027 0.031c0.018 0.021 0.044 0.034 0.078 0.040 0.028 0.005 0.237 0.008 0.464 0.007l0.414-0.002zM17.774 25.29l0.040-0.044-0.007-1.32-0.038-0.089c-0.089-0.207-0.294-0.323-0.541-0.306-0.196 0.014-0.344 0.104-0.429 0.263-0.019 0.037-0.040 0.094-0.046 0.128-0.014 0.079-0.026 0.956-0.016 1.177 0.007 0.16 0.009 0.172 0.036 0.198 0.016 0.016 0.046 0.030 0.070 0.033s0.233 0.004 0.467 0.003l0.425-0.001zM24.942 25.312c0.066-0.043 0.066-0.043 0.062-0.732l-0.003-0.631-0.028-0.080c-0.080-0.226-0.288-0.355-0.547-0.337-0.247 0.017-0.432 0.166-0.478 0.385-0.008 0.037-0.013 0.244-0.013 0.542-0.001 0.87-0.004 0.794 0.027 0.83 0.018 0.021 0.044 0.034 0.078 0.040 0.028 0.005 0.235 0.008 0.461 0.007 0.376-0.002 0.413-0.004 0.442-0.023zM16.458 21.094c0.332-0.065 0.604-0.213 0.836-0.455 0.213-0.223 0.35-0.487 0.412-0.799 0.027-0.135 0.027-0.42 0-0.554-0.063-0.316-0.2-0.58-0.421-0.809-0.227-0.236-0.516-0.391-0.842-0.453-0.139-0.026-0.418-0.025-0.564 0.004-0.558 0.108-1.022 0.514-1.195 1.044-0.057 0.176-0.070 0.264-0.070 0.496 0 0.2 0.003 0.23 0.032 0.346 0.039 0.153 0.062 0.218 0.124 0.341 0.156 0.311 0.392 0.548 0.698 0.701 0.312 0.156 0.653 0.204 0.991 0.138zM15.933 20.686c-0.239-0.051-0.424-0.152-0.595-0.322-0.45-0.449-0.452-1.172-0.005-1.622 0.231-0.232 0.501-0.345 0.827-0.345s0.624 0.132 0.847 0.375c0.122 0.133 0.203 0.28 0.265 0.478 0.024 0.078 0.027 0.109 0.027 0.3 0 0.186-0.003 0.225-0.025 0.301-0.126 0.432-0.474 0.752-0.912 0.836-0.106 0.020-0.33 0.020-0.428-0.002zM24.849 19.853c0.084-0.037 0.095-0.068 0.093-0.262-0.001-0.089-0.002-0.369-0.003-0.623-0.001-0.513-0.004-0.54-0.077-0.67-0.107-0.191-0.358-0.286-0.602-0.229-0.14 0.033-0.252 0.111-0.326 0.225-0.071 0.111-0.072 0.122-0.070 0.599 0.001 0.238-0.003 0.497-0.010 0.576-0.019 0.227 0.009 0.33 0.103 0.377 0.035 0.018 0.079 0.020 0.342 0.021 0.166 0 0.306 0.005 0.311 0.010 0.016 0.017 0.182-0.001 0.237-0.025zM8.389 19.84c0.020-0.012 0.042-0.033 0.049-0.046 0.009-0.017 0.012-0.227 0.009-0.701l-0.003-0.678-0.038-0.078c-0.13-0.263-0.462-0.361-0.756-0.221-0.087 0.041-0.174 0.129-0.215 0.217-0.054 0.116-0.060 0.213-0.053 0.863 0.006 0.513 0.008 0.576 0.026 0.603 0.041 0.062 0.045 0.063 0.512 0.063 0.408 0 0.434-0.001 0.469-0.022zM15.884 16.911c0.065-0.043 0.063 0.013 0.059-1.211l-0.004-1.124-0.038-0.112c-0.080-0.236-0.238-0.404-0.429-0.454-0.171-0.045-0.376 0.013-0.512 0.143-0.060 0.057-0.127 0.175-0.157 0.272-0.039 0.129-0.048 0.359-0.055 1.434l-0.006 1.007 0.026 0.028c0.014 0.015 0.037 0.030 0.050 0.033s0.253 0.004 0.532 0.003c0.424-0.001 0.511-0.005 0.533-0.019zM15.098 16.8c-0.146-0.005-0.17-0.009-0.195-0.034-0.016-0.016-0.018-0.097-0.017-0.723 0.001-0.942 0.014-1.467 0.040-1.559 0.054-0.196 0.173-0.315 0.354-0.353 0.216-0.046 0.41 0.103 0.495 0.382l0.027 0.086 0.007 2.117-0.040 0.040c-0.037 0.037-0.044 0.040-0.12 0.040-0.044 0-0.157 0.002-0.252 0.004s-0.229 0.002-0.299 0zM17.532 16.885l0.040-0.044-0.008-2.253-0.029-0.098c-0.035-0.116-0.054-0.155-0.121-0.25-0.064-0.091-0.128-0.145-0.23-0.195-0.242-0.12-0.543-0.013-0.696 0.247-0.056 0.096-0.079 0.175-0.094 0.321-0.006 0.062-0.015 0.597-0.018 1.187l-0.007 1.073 0.033 0.024c0.018 0.013 0.044 0.026 0.056 0.030s0.25 0.005 0.528 0.004l0.505-0.002zM16.704 16.797c-0.121-0.006-0.15-0.011-0.17-0.029-0.024-0.022-0.024-0.025-0.024-0.726 0-0.876 0.015-1.461 0.040-1.557 0.056-0.214 0.206-0.345 0.414-0.361 0.081-0.006 0.092-0.004 0.161 0.030 0.131 0.064 0.231 0.202 0.28 0.383 0.018 0.066 0.020 0.18 0.024 1.124l0.004 1.051-0.040 0.042c-0.038 0.040-0.042 0.042-0.12 0.042-0.044 0-0.158 0.002-0.252 0.004s-0.238 0.001-0.318-0.003zM18.030 13.101c0.018-0.009 0.044-0.040 0.059-0.068l0.027-0.051-0.031-0.053c-0.017-0.029-0.043-0.059-0.056-0.067-0.019-0.010-0.482-0.014-1.873-0.014l-1.848-0-0.034 0.032c-0.071 0.068-0.071 0.127-0 0.203l0.032 0.034h1.846c1.582 0 1.851-0.002 1.878-0.017zM16.625 11.239c0.012-0.006 0.032-0.029 0.046-0.051l0.025-0.040-0.004-1.076c-0.004-1.062-0.004-1.077-0.029-1.164-0.060-0.212-0.173-0.358-0.334-0.434-0.058-0.027-0.081-0.031-0.176-0.031s-0.118 0.004-0.178 0.032c-0.094 0.044-0.178 0.119-0.229 0.206-0.074 0.125-0.088 0.188-0.101 0.475-0.014 0.3-0.030 1.984-0.020 2.026 0.004 0.016 0.022 0.037 0.039 0.048 0.029 0.018 0.077 0.020 0.485 0.020 0.277 0 0.462-0.004 0.475-0.011z"></path>
</svg>
