<!-- Generated by IcoMoon.io -->
<svg version="1.1" xmlns="http://www.w3.org/2000/svg" width="32" height="32" viewBox="0 0 32 32">
<title>nights_usurper</title>
<path d="M25.977 13.371c0.003-0.014 0.006-0.028 0.009-0.041 0.149-0.044 0.181 0.030 0.289 0.104 0.122 0.083 0.147 0.127 0.151 0.286 0.002 0.113 0.018 0.247-0.008 0.358-0.026 0.112-0.12 0.228-0.177 0.326-0.052 0.087-0.099 0.176-0.163 0.255-0.077 0.092-0.173 0.154-0.252 0.247-0.073 0.086-0.127 0.115-0.231 0.159-0.196 0.084-0.399 0.164-0.601 0.238-0.184 0.068-0.395 0.074-0.566 0.157-0.27 0.133-0.565 0.127-0.835 0.245-0.32 0.143-0.68 0.222-0.982 0.406-0.3 0.182-0.621 0.34-0.907 0.545-0.166 0.12-0.339 0.249-0.499 0.377-0.106 0.084-0.19 0.191-0.306 0.263-0.184 0.115-0.327 0.205-0.481 0.364-0.087 0.089-0.172 0.192-0.271 0.268-0.066 0.051-0.135 0.076-0.194 0.133-0.095 0.093-0.175 0.199-0.253 0.306-0.116 0.158-0.264 0.302-0.35 0.482-0.063 0.131-0.063 0.278-0.12 0.412-0.051 0.12-0.118 0.214-0.143 0.346-0.045 0.233-0.074 0.463-0.134 0.694-0.021 0.080-0.052 0.377-0.141 0.428 0.036-0.069 0.053-0.154 0.086-0.227 0.089-0.2 0.213-0.404 0.319-0.597 0.176-0.322 0.387-0.632 0.633-0.905 0.164-0.182 0.305-0.386 0.499-0.54 0.101-0.066 0.196-0.139 0.288-0.218 0.077-0.098 0.163-0.187 0.259-0.268 0.265-0.201 0.595-0.375 0.896-0.519 0.404-0.194 0.807-0.156 1.237-0.209 0.373-0.046 0.737-0.018 1.112-0.036 0.187-0.010 0.361-0.048 0.55-0.052 0.223-0.004 0.439-0.038 0.653-0.1 0.381-0.112 0.715-0.25 1.057-0.453 0.6-0.359 1.142-0.842 1.324-1.542 0.12-0.462 0.173-0.923-0.125-1.322-0.056-0.076-0.125-0.146-0.179-0.221-0.053-0.074-0.075-0.149-0.156-0.202-0.072-0.046-0.16-0.050-0.238-0.082-0.083-0.035-0.158-0.071-0.248-0.091-0.224-0.050-0.471-0.023-0.699-0.023-0.199 0-0.543-0.099-0.1 0.249z"></path>
<path d="M26.874 19.649c0 0.109 0.013 0.22-0.022 0.323-0.080 0.232-0.28 0.37-0.48 0.483-0.175 0.1-0.332 0.195-0.536 0.232-0.153 0.029-0.3 0.064-0.452 0.096-0.354 0.072-0.708 0.135-1.061 0.211-0.226 0.049-0.454 0.079-0.682 0.121-0.194 0.035-0.391 0.019-0.583 0.061-0.361 0.077-0.644 0.266-0.963 0.426-0.53 0.266-0.93 0.663-1.355 1.062-0.195 0.183-0.334 0.367-0.505 0.573-0.075 0.090-0.14 0.157-0.177 0.273-0.029 0.091-0.039 0.187-0.070 0.276-0.024 0.070-0.078 0.126-0.093 0.197-0.011 0.055 0.004 0.13 0.004 0.188 0.001 0.152-0.006 0.284 0.050 0.43 0.093 0.243 0.158 0.494 0.286 0.726 0.104 0.19 0.363 0.297 0.545 0.404-0.078 0.006-0.191-0.098-0.236-0.152-0.108-0.133-0.143-0.36-0.148-0.522-0.005-0.183-0.047-0.476 0.027-0.65 0.092-0.214 0.316-0.412 0.471-0.578 0.231-0.25 0.479-0.496 0.758-0.696 0.248-0.179 0.59-0.288 0.876-0.398 0.316-0.122 0.614-0.204 0.955-0.199 0.337 0.005 0.664-0.052 0.998-0.050 0.591 0.003 1.159 0.096 1.748 0.001 0.376-0.061 0.749-0.17 1.105-0.299 0.359-0.13 0.675-0.291 0.843-0.654 0.119-0.254 0.347-0.431 0.443-0.694 0.030-0.083 0.073-0.274 0.152-0.33-0.088 0.195-0.259 0.242-0.443 0.318-0.097 0.040-0.127 0.11-0.205 0.167-0.071 0.052-0.255 0.088-0.348 0.091-0.043-0.133 0.146-0.312 0.183-0.439 0.079-0.275 0.135-0.515 0.113-0.805-0.031-0.395-0.334-0.853-0.619-1.113-0.057-0.052-0.235-0.269-0.321-0.184-0.033 0.032-0.053 0.212-0.059 0.252-0.015 0.094-0.031 0.176-0.063 0.267-0.053 0.155-0.147 0.31-0.176 0.473-0.006 0.032 0.002 0.119-0.018 0.148-0.044 0.066-0.117 0.050 0.058-0.039z"></path>
<path d="M13.87 19.748c-0.026-0.102 0.117-0.253 0.152-0.345 0.107-0.28 0.085-0.68-0.034-0.947-0.163-0.37-0.309-0.774-0.617-1.051-0.254-0.228-0.59-0.425-0.904-0.561-0.375-0.162-0.788-0.26-1.184-0.362-0.447-0.115-0.909-0.087-1.346-0.249-0.388-0.143-0.713-0.371-1.055-0.596-0.366-0.24-0.639-0.475-0.841-0.87-0.054-0.105-0.091-0.214-0.131-0.323-0.059-0.158-0.050-0.294-0.080-0.46-0.035-0.19-0.043-0.323 0.040-0.512 0.070-0.156 0.277-0.242 0.432-0.291 0.13-0.042 0.276-0.060 0.412-0.060 0.144 0 0.146 0.001 0.21 0.114 0.050 0.087 0.090 0.133 0.114 0.235 0.016 0.068 0.030 0.187 0.139 0.14s0.11-0.288 0.112-0.379c0.007-0.332-0.233-0.624-0.558-0.708-0.182-0.048-0.355-0.069-0.539-0.026-0.073 0.017-0.146 0.035-0.218 0.051-0.085 0.019-0.156 0.009-0.24 0.020-0.222 0.029-0.41 0.21-0.589 0.325-0.083 0.052-0.177 0.090-0.25 0.155-0.085 0.078-0.138 0.186-0.198 0.284-0.242 0.398-0.234 0.937-0.294 1.381-0.024 0.184 0.029 0.278 0.116 0.431 0.125 0.217 0.218 0.412 0.404 0.592 0.177 0.171 0.307 0.391 0.5 0.546 0.233 0.188 0.472 0.375 0.741 0.505 0.29 0.14 0.574 0.333 0.876 0.431 0.212 0.070 0.425 0.128 0.624 0.232 0.159 0.085 0.319 0.192 0.487 0.258 0.112 0.043 0.239 0.063 0.355 0.095 0.143 0.038 0.29 0.063 0.434 0.089 0.092 0.016 0.216 0.068 0.306 0.066 0.082-0.001 0.154-0.051 0.237-0.057 0.111-0.008 0.238-0.009 0.347 0.012 0.212 0.041 0.414 0.109 0.625 0.139 0.143 0.019 0.27 0.125 0.383 0.211 0.065 0.049 0.143 0.093 0.191 0.157 0.039 0.052 0.024 0.079 0.046 0.131 0.046 0.11 0.166 0.213 0.197 0.327 0.021 0.079 0.006 0.144 0.039 0.221 0.030 0.070 0.071 0.134 0.113 0.195 0.057 0.085 0.084 0.164 0.13 0.254 0.037 0.072 0.099 0.124 0.135 0.197 0.051 0.105 0.115 0.221 0.076 0.34-0.013 0.003-0.027 0.006 0.109-0.34z"></path>
<path d="M13.771 24.482c-0.236-0.468-0.599-0.934-1.047-1.236-0.446-0.3-0.905-0.594-1.273-0.995-0.309-0.338-0.659-0.648-1.057-0.87-0.166-0.093-0.303-0.232-0.464-0.331-0.117-0.072-0.225-0.107-0.339-0.19-0.292-0.217-0.729-0.405-1.081-0.494-0.147-0.038-0.288-0.002-0.434-0.030-0.076-0.015-0.13-0.037-0.208-0.040-0.146-0.005-0.245 0.026-0.383 0.054-0.059-0.002-0.119-0.004-0.178-0.006-0.055 0.007-0.109 0.021-0.162 0.042-0.1 0.016-0.197 0.011-0.299 0.011-0.214-0.001-0.386-0.014-0.588-0.099-0.125-0.052-0.164-0.116-0.258-0.202-0.069-0.064-0.154-0.107-0.227-0.166-0.17-0.139-0.238-0.333-0.348-0.519-0.086-0.144-0.071-0.252-0.073-0.415-0.001-0.124-0.043-0.227-0.053-0.346-0.008-0.087 0.021-0.151 0.040-0.233 0.040-0.175 0.12-0.284 0.243-0.415-0.1 0.026-0.104-0.040-0.18-0.050-0.111-0.014-0.116 0.071-0.175 0.149-0.053 0.069-0.118 0.087-0.177 0.139-0.035 0.032-0.085 0.104-0.111 0.149-0.030 0.053-0.036 0.122-0.105 0.112-0.057-0.007-0.095-0.104-0.119-0.146-0.040-0.075-0.080-0.168-0.101-0.25-0.020-0.082 0.003-0.164-0.021-0.245-0.065 0.013-0.065 0.090-0.098 0.144-0.069 0.114-0.195 0.194-0.279 0.298-0.152 0.19-0.295 0.394-0.4 0.615-0.093 0.197-0.14 0.374-0.113 0.598 0.024 0.202 0.131 0.436 0.244 0.605 0.109 0.162 0.241 0.339 0.378 0.478 0.069 0.070 0.159 0.090 0.237 0.144 0.096 0.066 0.162 0.151 0.265 0.212 0.306 0.182 0.607 0.384 0.853 0.643-0.205-0.046-0.413 0.126-0.495 0.296-0.079 0.162-0.088 0.36-0.086 0.536 0.002 0.172-0.051 0.445 0.012 0.608 0.033-0.008 0.059-0.073 0.075-0.108 0.046-0.097 0.081-0.172 0.158-0.25 0.221-0.221 0.486-0.38 0.805-0.43 0.252-0.040 0.527-0.004 0.783-0.008 0.359-0.006 0.724 0.178 1.072 0.261 0.629 0.149 1.11 0.598 1.63 0.948 0.351 0.236 0.567 0.585 0.846 0.889 0.093 0.1 0.233 0.121 0.349 0.195 0.125 0.081 0.265 0.144 0.399 0.211 0.258 0.13 0.611 0.191 0.801 0.425 0.060 0.074 0.14 0.168 0.196 0.259 0.082 0.131 0.112 0.31 0.149 0.461 0.055 0.225 0.125 0.444 0.149 0.677 0.020 0.199 0.129 0.363 0.16 0.553 0.073-0.017 0.037-0.128 0.028-0.188-0.031-0.202-0.039-0.434-0.099-0.634-0.062-0.207-0.178-0.405-0.287-0.59-0.17-0.292-0.301-0.587-0.5-0.86-0.125-0.172-0.274-0.303-0.411-0.461-0.149-0.172-0.284-0.352-0.446-0.511-0.172-0.169-0.357-0.351-0.5-0.547-0.094-0.128-0.321-0.363-0.23-0.536 0.077-0.011 0.22-0.029 0.295-0.007 0.124 0.039 0.25 0.308 0.344 0.394 0.108 0.1 0.239 0.165 0.351 0.261 0.106 0.091 0.189 0.208 0.302 0.291 0.133 0.096 0.305 0.182 0.456 0.243 0.195 0.078 0.377 0.105 0.564 0.209 0.165 0.094 0.319 0.213 0.484 0.303 0.351 0.188 0.641 0.497 0.846 0.841 0.155 0.005 0.154-0.274 0.133-0.371-0.024-0.108-0.094-0.223-0.138-0.325-0.166-0.386-0.439-0.707-0.606-1.095z"></path>
<path d="M20.896 10.62c-0.183 0.141-0.362 0.287-0.536 0.444-0.113 0.101-0.18 0.229-0.28 0.339-0.084 0.092-0.175 0.16-0.234 0.27-0.093 0.175-0.203 0.39-0.347 0.53-0.187 0.182-0.326 0.438-0.45 0.674-0.051 0.097-0.092 0.207-0.147 0.297-0.027 0.043-0.090 0.099-0.099 0.147-0.157 0.291-0.174 0.198-0.349 0.199-0.114 0.001-0.192-0.027-0.299-0.064-0.326-0.113-0.681-0.155-1.021-0.21-0.202-0.033-0.402-0.025-0.606-0.024-0.321 0.001-0.644-0.080-0.963-0.042-0.295 0.035-0.585 0.094-0.884 0.092-0.091 0-0.166 0.021-0.227-0.046-0.039-0.043-0.053-0.143-0.083-0.192-0.038-0.060-0.092-0.101-0.124-0.165-0.056-0.116-0.090-0.248-0.133-0.368-0.144-0.395-0.272-0.816-0.496-1.176-0.308-0.494-0.686-0.939-1.015-1.419-0.166-0.241-0.366-0.491-0.499-0.752-0.055-0.108-0.107-0.382-0.272-0.378 0.012-0.067 0.218-0.14 0.282-0.187 0.163-0.119 0.257-0.174 0.448-0.236 0.094-0.031 0.169-0.075 0.26-0.115 0.095-0.043 0.194-0.046 0.289-0.084 0.093-0.037 0.165-0.098 0.263-0.13 0.050-0.016 0.1-0.023 0.147-0.045 0.136-0.062 0.226-0.183 0.356-0.25 0.152-0.080 0.343-0.109 0.488-0.195 0.176-0.107 0.31-0.264 0.508-0.344 0.158-0.063 0.31-0.147 0.452-0.244 0.162-0.111 0.313-0.231 0.476-0.339 0.124-0.083 0.198-0.198 0.308-0.299 0.304-0.282 0.593-0.602 0.914-0.863 0.082-0.067 0.157-0.183 0.243-0.236 0.058-0.036 0.171-0.010 0.239-0.010 0.113 0 0.135-0.002 0.212 0.049 0.090 0.060 0.133 0.156 0.199 0.239 0.488 0.614 0.996 1.228 1.535 1.798 0.362 0.384 0.839 0.615 1.197 1.004 0.292 0.319 0.605 0.612 0.899 0.927 0.056 0.060 0.256 0.182 0.249 0.271-0.005 0.059-0.111 0.154-0.144 0.199-0.107 0.14-0.184 0.297-0.272 0.448-0.072 0.121-0.177 0.205-0.29 0.285-0.084 0.060-0.113 0.136-0.195 0.199zM25.977 26.975v-0.144c-0.062-0.089-0.074-0.223-0.108-0.331-0.136-0.448-0.352-0.834-0.529-1.263-0.167-0.407-0.3-0.844-0.425-1.266-0.041-0.139-0.071-0.264-0.098-0.404-0.033-0.164-0.104-0.317-0.131-0.478-0.080-0.453-0.207-0.918-0.351-1.358-0.16-0.487-0.39-0.964-0.524-1.457-0.088-0.324-0.173-0.666-0.326-0.971-0.088-0.177-0.13-0.369-0.188-0.555-0.047-0.149-0.107-0.295-0.148-0.446-0.065-0.233-0.146-0.465-0.222-0.694-0.043-0.128-0.138-0.238-0.179-0.365-0.038-0.112-0.042-0.229-0.068-0.343-0.042-0.189-0.151-0.38-0.195-0.559-0.035-0.141-0.101-0.27-0.156-0.417-0.025-0.063-0.058-0.147-0.088-0.212-0.035-0.077-0.028-0.118-0.047-0.2-0.005-0.021-0.039-0.046-0.042-0.058-0.008-0.037 0-0.081-0.010-0.115-0.020-0.072-0.039-0.138-0.062-0.212-0.035-0.115-0.114-0.236-0.141-0.357-0.016-0.070 0.038-0.154-0.024-0.2-0.043-0.032-0.211-0.002-0.272-0.002-0.109 0.001-0.159 0.009-0.25-0.049-0.093-0.059-0.101-0.073-0.198-0.101-0.083-0.024-0.148-0.015-0.092-0.149 0.042-0.101 0.179-0.179 0.253-0.258 0.111-0.117 0.146-0.26 0.236-0.388 0.089-0.126 0.169-0.259 0.251-0.39 0.091-0.144 0.187-0.275 0.238-0.438 0.059-0.187 0.182-0.333 0.255-0.517 0.055-0.139 0.143-0.246 0.202-0.386 0.080-0.19 0.226-0.331 0.301-0.523 0.127-0.326 0.309-0.626 0.522-0.906 0.081-0.107 0.175-0.206 0.22-0.33 0.022-0.061 0.019-0.098 0.051-0.159 0.030-0.056 0.080-0.116 0.096-0.18 0.025-0.104 0.029-0.183 0.071-0.286 0.033-0.079 0.062-0.176 0.041-0.269-0.089-0.385-0.575-0.592-0.812-0.869-0.229-0.267-0.484-0.484-0.726-0.736-0.303-0.314-0.556-0.686-0.844-1.014-0.093-0.107-0.185-0.193-0.289-0.285-0.137-0.123-0.246-0.275-0.386-0.392-0.162-0.135-0.367-0.213-0.531-0.345-0.175-0.141-0.274-0.354-0.456-0.49-0.168-0.127-0.282-0.27-0.43-0.418-0.139-0.138-0.294-0.302-0.467-0.391-0.092-0.047-0.136-0.079-0.214-0.143-0.107-0.087-0.243-0.134-0.35-0.226-0.12-0.103-0.232-0.22-0.378-0.288-0.152-0.071-0.311-0.113-0.46-0.195-0.121-0.067-0.288-0.219-0.439-0.193-0.035 0.006-0.034 0.044-0.063 0.054-0.093 0.033-0.184 0.049-0.277 0.080-0.208 0.069-0.361 0.222-0.551 0.321-0.166 0.087-0.345 0.141-0.508 0.232-0.207 0.115-0.406 0.221-0.623 0.313-0.28 0.116-0.548 0.228-0.764 0.447-0.234 0.237-0.506 0.422-0.755 0.644-0.417 0.37-0.828 0.736-1.243 1.107-0.155 0.138-0.329 0.256-0.494 0.383-0.178 0.136-0.407 0.217-0.56 0.374-0.13 0.131-0.297 0.173-0.438 0.291-0.159 0.131-0.284 0.322-0.428 0.471-0.136 0.144-0.177 0.393-0.267 0.571-0.061 0.122-0.169 0.234-0.147 0.375 0.031 0.202 0.204 0.395 0.3 0.573 0.123 0.231 0.159 0.505 0.307 0.72 0.143 0.206 0.192 0.446 0.346 0.646 0.211 0.275 0.385 0.616 0.629 0.865 0.175 0.18 0.306 0.391 0.461 0.59 0.112 0.144 0.223 0.284 0.339 0.423 0.076 0.091 0.193 0.191 0.252 0.297 0.024 0.044 0.024 0.105 0.050 0.154 0.046 0.086 0.123 0.157 0.183 0.232 0.064 0.078 0.117 0.154 0.154 0.249-0.129 0.030-0.355 0.030-0.483-0.004-0.149-0.039-0.287-0.039-0.446-0.039-0.187 0-0.29 0-0.449 0.1-0.063 0.040-0.125 0.072-0.164 0.138-0.056 0.095-0.060 0.211-0.119 0.321-0.272 0.502-0.542 1.004-0.795 1.518-0.111 0.225-0.177 0.466-0.292 0.692-0.118 0.23-0.248 0.456-0.363 0.687-0.114 0.229-0.14 0.492-0.256 0.725-0.147 0.298-0.263 0.606-0.404 0.906-0.134 0.282-0.236 0.58-0.387 0.853-0.13 0.239-0.28 0.43-0.359 0.692-0.071 0.239-0.138 0.49-0.261 0.708-0.114 0.199-0.224 0.36-0.29 0.584-0.060 0.201-0.128 0.398-0.196 0.597-0.088 0.26-0.245 0.462-0.29 0.739-0.028 0.17-0.101 0.294-0.149 0.453-0.034 0.113-0.025 0.245-0.070 0.352-0.014 0.035-0.061 0.074-0.078 0.106-0.029 0.058-0.032 0.135-0.059 0.194-0.066 0.14-0.166 0.29-0.264 0.409-0.067 0.081-0.13 0.172-0.187 0.249-0.046 0.063-0.107 0.117-0.151 0.176-0.069 0.090-0.068 0.221-0.097 0.337-0.029 0.118-0.138 0.243-0.096 0.381 0.040 0.128 0.174 0.19 0.244 0.295 0.046 0.068 0.074 0.173 0.109 0.241 0.062 0.123 0.141 0.239 0.215 0.355 0.102 0.159 0.179 0.235 0.323 0.342s0.254 0.258 0.399 0.367c0.238 0.177 0.476 0.246 0.667 0.49 0.092 0.116 0.192 0.224 0.281 0.342 0.089 0.117 0.146 0.245 0.248 0.351 0.083 0.085 0.149 0.151 0.252 0.199 0.040 0.020 0.125 0.052 0.139 0.084-0.058-0.063-0.043-0.164-0.055-0.244-0.021-0.136-0.040-0.252-0.038-0.389 0.002-0.284-0.038-0.561 0.069-0.822 0.052-0.126 0.052-0.263 0.079-0.396 0.030-0.143 0.097-0.251 0.151-0.384 0.059-0.141 0.092-0.293 0.149-0.434 0.063-0.154 0.146-0.295 0.2-0.452 0.106-0.303 0.196-0.599 0.324-0.895 0.129-0.299 0.251-0.616 0.349-0.927 0.092-0.286 0.208-0.542 0.333-0.817 0.152-0.336 0.289-0.674 0.435-1.011 0.134-0.306 0.28-0.612 0.352-0.939 0.036-0.163 0.075-0.32 0.125-0.479 0.055-0.179 0.136-0.344 0.195-0.518 0.043-0.128 0.045-0.264 0.078-0.394 0.027-0.11 0.078-0.211 0.112-0.319 0.094-0.3 0.224-0.588 0.3-0.891 0.169-0.674 0.431-1.354 0.591-2.005 0.051-0.207 0.123-0.434 0.192-0.624 0.034-0.093 0.036-0.069 0.129-0.1 0.034-0.012 0.074-0.038 0.106-0.046 0.084-0.019 0.171 0.013 0.256-0.001 0.066-0.011 0.117-0.045 0.182-0.055 0.204-0.029 0.42 0.031 0.625-0.008 0.29-0.055 0.563-0.14 0.861-0.142 0.28-0.001 0.515 0.146 0.787 0.153 0.253 0.008 0.493 0.021 0.743 0.077 0.28 0.064 0.546 0.147 0.835 0.173 0.279 0.024 0.541-0.010 0.82 0.058 0.217 0.053 0.389 0.091 0.611 0.089 0.172-0.002 0.33 0.051 0.503 0.050 0.196-0.001 0.554-0.070 0.677 0.117 0.067 0.101 0.079 0.247 0.103 0.363 0.064 0.297 0.13 0.608 0.253 0.885 0.235 0.527 0.561 1.006 0.739 1.56 0.050 0.154 0.039 0.311 0.095 0.464 0.118 0.319 0.306 0.608 0.427 0.927 0.166 0.434 0.317 0.874 0.458 1.313 0.104 0.322 0.282 0.609 0.403 0.923 0.103 0.268 0.146 0.555 0.231 0.829 0.084 0.271 0.197 0.533 0.308 0.794s0.283 0.491 0.358 0.768c0.023 0.085 0.040 0.169 0.059 0.255 0.033 0.151 0.118 0.291 0.144 0.441 0.018 0.104-0.001 0.214 0.013 0.321 0.021 0.152 0.092 0.359 0.030 0.509-0.011 0.026-0.047 0.045-0.060 0.072-0.027 0.056-0.037 0.109-0.054 0.168-0.048 0.169-0.146 0.304-0.179 0.478-0.067 0.345-0.072 0.708-0.246 1.023-0.041 0.074-0.105 0.124-0.151 0.189-0.087 0.12-0.046 0.296-0.055 0.438 0.124-0.115 0.272-0.099 0.405-0.188 0.098-0.066 0.169-0.157 0.275-0.216 0.088-0.048 0.184-0.081 0.275-0.126 0.175-0.085 0.316-0.218 0.493-0.3 0.183-0.084 0.369-0.163 0.551-0.249 0.22-0.102 0.437-0.198 0.626-0.353 0.049-0.041 0.073-0.114 0.123-0.151 0.017-0.013 0.112-0.036 0.123-0.049 0.023-0.026 0.015-0.041 0.028-0.072l-0.001-0.071z"></path>
</svg>
