<!-- Generated by IcoMoon.io -->
<svg version="1.1" xmlns="http://www.w3.org/2000/svg" width="33" height="32" viewBox="0 0 33 32">
<title>novella</title>
<path d="M19.306 23.115c2.334-1.186 5.151-2.097 8.955-2.181 0.314-0.008 0.555-0.272 0.528-0.582l0.149 1.607c-2.874 0.107-6.77 0.593-9.633 1.156zM16.746 23.47l-0.027-13.104c0.214-0.069 0.413-0.18 0.582-0.341 2.74-2.641 7.474-3.019 9.38-3.062l1.117 13.023c-4.948 0.191-8.266 1.737-11.052 3.483zM4.687 19.934l1.14-12.973c1.799 0.027 6.613 0.367 9.407 3.065 0.153 0.149 0.333 0.253 0.528 0.325l0.023 13.138c-3.303-2.013-6.555-3.375-11.098-3.555zM3.566 21.905l0.13-1.496c0.035 0.256 0.249 0.467 0.52 0.471 3.655 0.080 6.426 0.941 9.028 2.277-3.115-0.666-6.789-1.156-9.678-1.251zM29.857 10.466c-0.027-0.275-0.256-0.486-0.536-0.486h-0.494l-0.13-1.47c-0.027-0.275-0.256-0.49-0.536-0.49h-0.429l-0.13-1.527c-0.023-0.279-0.256-0.49-0.536-0.49h-0.008c-1.688 0-7.222 0.245-10.425 3.333-0.103 0.1-0.233 0.145-0.367 0.145s-0.264-0.046-0.367-0.145c-3.176-3.065-8.546-3.337-10.344-3.337-0.042 0-0.080 0-0.119 0-0.279 0-0.509 0.21-0.532 0.49l-0.134 1.531h-0.478c-0.276 0-0.509 0.214-0.532 0.49l-0.126 1.47h-0.459c-0.279 0-0.509 0.21-0.536 0.49l-1.225 13.869c-0.027 0.314 0.222 0.582 0.536 0.582h12.055c0.532 0.658 1.347 1.079 2.262 1.079s1.73-0.421 2.262-1.079h12.055c0.314 0 0.563-0.268 0.532-0.582z"></path>
</svg>
