<!-- Generated by IcoMoon.io -->
<svg version="1.1" xmlns="http://www.w3.org/2000/svg" width="27" height="32" viewBox="0 0 27 32">
<title>num0</title>
<path d="M13.925 0.376c-2.763 0-5.451 1.531-8.064 4.592s-3.92 6.732-3.92 11.013c0 4.306 1.269 7.989 3.808 11.051s5.276 4.592 8.213 4.592c2.962 0 5.712-1.406 8.251-4.219 2.539-2.788 3.82-6.596 3.845-11.424 0-4.804-1.307-8.587-3.92-11.349-2.638-2.837-5.351-4.256-8.139-4.256h-0.075zM13.851 2.691c2.215 0 3.895 1.232 5.040 3.696 0.996 2.066 1.493 4.716 1.493 7.952 0 0.075 0 0.348 0 0.821-0.025 0.324-0.037 0.61-0.037 0.859-0.224 4.007-0.896 7.205-2.016 9.595s-2.613 3.659-4.48 3.808c-1.916 0-3.509-1.269-4.779-3.808-1.145-2.439-1.717-5.214-1.717-8.325 0-0.075 0.012-0.274 0.037-0.597 0-0.249 0-0.473 0-0.672 0.149-3.684 0.709-6.832 1.68-9.445s2.551-3.932 4.741-3.957l0.037 0.075z"></path>
</svg>
