<!-- Generated by IcoMoon.io -->
<svg version="1.1" xmlns="http://www.w3.org/2000/svg" width="32" height="32" viewBox="0 0 32 32">
<title>num0-outline</title>
<path d="M26.386 15.662c-0.021 4.139-1.12 7.403-3.296 9.792-2.176 2.411-4.533 3.616-7.072 3.616-2.517 0-4.864-1.312-7.040-3.936s-3.264-5.781-3.264-9.472c0-3.669 1.12-6.816 3.36-9.44s4.544-3.936 6.912-3.936h0.064c2.389 0 4.715 1.216 6.976 3.648 2.24 2.368 3.36 5.611 3.36 9.728zM24.277 4.761c-2.454-2.638-5.201-4.19-8.227-4.19h-0.064c-3.065 0-5.803 1.71-8.216 4.537-2.523 2.955-3.77 6.504-3.77 10.553 0 4.055 1.206 7.608 3.659 10.566 2.38 2.869 5.167 4.556 8.36 4.556 3.15 0 5.938-1.517 8.342-4.179 2.533-2.783 3.718-6.496 3.74-10.935v-0.009c0-4.432-1.213-8.137-3.824-10.901zM10.386 16.27c-0.021 0.277-0.032 0.448-0.032 0.512 0 2.667 0.491 5.045 1.472 7.136 1.088 2.176 2.453 3.264 4.096 3.264 1.6-0.128 2.88-1.216 3.84-3.264s1.536-4.789 1.728-8.224c0-0.213 0.011-0.459 0.032-0.736v-0.704c0-2.773-0.427-5.045-1.28-6.816-0.981-2.112-2.421-3.168-4.32-3.168l-0.032-0.064c-1.877 0.021-3.232 1.152-4.064 3.392s-1.312 4.939-1.44 8.096v0.576zM12.101 15.729v0.541c0 0.044-0.002 0.088-0.005 0.131-0.010 0.135-0.018 0.238-0.022 0.312-0.002 0.037-0.004 0.063-0.004 0.079-0 0.002-0 0.004-0 0.005 0.002 2.439 0.449 4.551 1.3 6.373 0.921 1.833 1.794 2.27 2.486 2.296 0.733-0.084 1.562-0.584 2.355-2.276 0.828-1.766 1.378-4.251 1.566-7.548 0.002-0.234 0.013-0.484 0.032-0.749v-0.639c0-2.615-0.405-4.61-1.11-6.073l-0.010-0.022c-0.405-0.871-0.848-1.403-1.275-1.716-0.407-0.298-0.881-0.46-1.49-0.46-0.123 0-0.244-0.013-0.361-0.038-0.4 0.057-0.719 0.208-0.997 0.44-0.381 0.318-0.784 0.873-1.132 1.809-0.75 2.019-1.208 4.518-1.333 7.534z"></path>
</svg>
