<!-- Generated by IcoMoon.io -->
<svg version="1.1" xmlns="http://www.w3.org/2000/svg" width="16" height="32" viewBox="0 0 16 32">
<title>num1</title>
<path d="M5.432 9.579c0.075-0.050 0.187-0.075 0.336-0.075 0.174 0 0.299 0.025 0.373 0.075 0.249 0.075 0.398 0.249 0.448 0.523v6.16c0 0.548 0.012 1.132 0.037 1.755 0 0.846 0 1.332 0 1.456 0 2.638-0.075 4.617-0.224 5.936-0.174 1.767-0.423 2.962-0.747 3.584-0.299 0.572-0.61 0.884-0.933 0.933-0.348 0.025-0.61 0.411-0.784 1.157 0 0 0 0.025 0 0.075-0.025 0.050-0.037 0.087-0.037 0.112 0 0.199 0.212 0.299 0.635 0.299 0.597-0.075 1.307-0.149 2.128-0.224s1.531-0.112 2.128-0.112c0.821 0 1.481 0.012 1.979 0.037 0.572 0.025 1.244 0.087 2.016 0.187 0.398 0 0.597-0.162 0.597-0.485 0-0.548-0.137-0.821-0.411-0.821-0.025 0.025-0.062 0.037-0.112 0.037s-0.1 0.012-0.149 0.037c-0.249 0-0.51-0.199-0.784-0.597-0.348-0.498-0.635-1.618-0.859-3.36-0.124-0.821-0.212-1.929-0.261-3.323-0.050-1.419-0.075-3.36-0.075-5.824v-7.616c0-1.991 0.012-3.435 0.037-4.331s0.037-1.867 0.037-2.912c0.174-0.373 0.261-0.709 0.261-1.008 0-0.498-0.187-0.759-0.56-0.784 0 0-0.037-0.012-0.112-0.037-0.075 0-0.124 0-0.149 0-0.224 0-0.485 0.062-0.784 0.187-0.124 0.075-0.274 0.274-0.448 0.597-0.348 0.647-0.809 1.456-1.381 2.427l-0.037 0.075c-0.398 0.697-0.933 1.444-1.605 2.24-0.572 0.697-1.381 1.369-2.427 2.016-0.996 0.622-1.804 1.207-2.427 1.755-0.124 0.124-0.261 0.348-0.411 0.672-0.075 0.075-0.112 0.174-0.112 0.299 0 0.249 0.212 0.51 0.635 0.784 0.1 0.1 0.311 0.149 0.635 0.149 0.025 0 0.087 0 0.187 0 0.1-0.025 0.174-0.037 0.224-0.037 0.199-0.050 0.348-0.124 0.448-0.224l0.224-0.224c0.348-0.299 0.722-0.56 1.12-0.784 0.274-0.149 0.66-0.373 1.157-0.672l0.187-0.112z"></path>
</svg>
