<!-- Generated by IcoMoon.io -->
<svg version="1.1" xmlns="http://www.w3.org/2000/svg" width="32" height="32" viewBox="0 0 32 32">
<title>num1-outline1</title>
<path d="M8.63 11.096c0.029 0.937 0.57 1.61 1.153 2.023 0.027 0.022 0.054 0.042 0.081 0.062 0.325 0.237 0.664 0.342 0.908 0.391 0.323 0.065 0.633 0.063 0.891 0.035 0.262-0.028 0.533-0.090 0.788-0.187 0.232-0.088 0.572-0.249 0.87-0.547 0.112-0.112 0.235-0.218 0.37-0.317v3.297c0 0.087 0 0.175 0.001 0.264 0.003 0.406 0.014 0.83 0.031 1.273v1.213c0 2.247-0.064 3.865-0.181 4.896l-0.003 0.025c-0.063 0.637-0.134 1.132-0.203 1.508-0.097 0.527-0.189 0.819-0.251 0.939l-0.001 0.002-0.007 0.013c-0.457 0.172-0.786 0.471-0.988 0.71-0.299 0.354-0.505 0.784-0.6 1.22-0.089 0.406-0.132 1.063 0.233 1.698 0.437 0.759 1.21 1.073 1.922 1.073 0.071 0 0.142-0.004 0.213-0.013 0.487-0.061 1.075-0.123 1.767-0.186 0.67-0.061 1.224-0.089 1.669-0.089 0.691 0 1.225 0.011 1.61 0.030l0.011 0.001c0.429 0.019 0.954 0.066 1.583 0.147 0.073 0.009 0.146 0.014 0.219 0.014 0.359 0 0.945-0.066 1.465-0.488 0.588-0.477 0.761-1.134 0.761-1.642 0-0.442-0.083-1.041-0.504-1.566-0.367-0.459-1.066-0.506-1.206-1.051-0.099-0.387-0.197-0.925-0.289-1.634-0.002-0.013-0.003-0.026-0.005-0.038-0.092-0.61-0.164-1.485-0.206-2.652-0.042-1.186-0.063-2.828-0.063-4.932v-6.528c0-1.705 0.011-2.922 0.031-3.664 0.019-0.688 0.030-1.423 0.032-2.205 0.134-0.37 0.224-0.775 0.224-1.203 0-0.484-0.121-1.034-0.493-1.513-0.374-0.482-0.868-0.722-1.297-0.823-0.771-0.182-1.511 0.023-1.959 0.21-0.077 0.032-0.151 0.070-0.223 0.112-0.333 0.2-0.55 0.463-0.666 0.617-0.133 0.178-0.248 0.37-0.346 0.552-0.284 0.528-0.667 1.2-1.151 2.022-0.020 0.034-0.039 0.069-0.057 0.104l-0.010 0.019c-0.276 0.476-0.662 1.017-1.175 1.626l-0.014 0.017c-0.337 0.41-0.868 0.87-1.658 1.359l-0.006 0.004c-0.903 0.564-1.678 1.12-2.304 1.671-0.027 0.024-0.054 0.049-0.080 0.075-0.432 0.432-0.919 1.134-0.891 2.055zM13.601 10.579c-0.129 0.088-0.245 0.168-0.34 0.219-0.422 0.237-0.81 0.522-1.152 0.864-0.244 0.244-1.008 0.368-1.28 0.096-0.648-0.419-0.615-0.985-0.096-1.504 0.533-0.469 1.227-0.971 2.080-1.504 0.896-0.555 1.589-1.131 2.080-1.728 0.576-0.683 1.035-1.323 1.376-1.92l0.032-0.064c0.491-0.832 0.885-1.525 1.184-2.080 0.149-0.277 0.277-0.448 0.384-0.512 0.579-0.241 1.376-0.271 1.376 0.544 0 0.256-0.075 0.544-0.224 0.864 0 0.896-0.011 1.728-0.032 2.496s-0.032 2.005-0.032 3.712v6.528c0 1.391 0.009 2.587 0.028 3.589 0.010 0.52 0.022 0.987 0.036 1.403 0.013 0.371 0.030 0.718 0.049 1.041 0.043 0.719 0.102 1.321 0.175 1.806 0.161 1.249 0.358 2.124 0.593 2.627 0.046 0.099 0.094 0.183 0.142 0.253 0.026 0.037 0.052 0.071 0.079 0.102 0.192 0.217 0.417 0.281 0.618 0.338l0.039 0.011c0.048 0.014 0.095 0.028 0.139 0.044 0.216 0.080 0.373 0.215 0.373 0.657 0 0.277-0.171 0.416-0.512 0.416-0.407-0.053-0.782-0.093-1.125-0.121-0.214-0.018-0.415-0.031-0.603-0.039l-0.051-0.003c-0.42-0.020-0.969-0.029-1.645-0.029-0.512 0-1.12 0.032-1.824 0.096-0.12 0.011-0.238 0.022-0.352 0.033-0.124 0.012-0.244 0.024-0.362 0.035-0.263 0.026-0.51 0.053-0.74 0.079l-0.111 0.013c-0.089 0.010-0.175 0.021-0.258 0.031-0.725 0-0.566-0.898-0.158-1.26 0.049-0.044 0.102-0.080 0.158-0.105 0.052-0.024 0.105-0.039 0.16-0.043 0.118-0.018 0.234-0.077 0.348-0.176 0.068-0.060 0.136-0.134 0.203-0.222 0.084-0.111 0.167-0.245 0.249-0.402 0.165-0.317 0.307-0.806 0.426-1.468 0.082-0.454 0.153-0.988 0.214-1.604 0.128-1.131 0.192-2.827 0.192-5.088v-1.248c-0.021-0.533-0.032-1.035-0.032-1.504v-5.28c-0.043-0.235-0.171-0.384-0.384-0.448-0.384-0.256-0.979 0.151-1.42 0.453z"></path>
</svg>
