<!-- Generated by IcoMoon.io -->
<svg version="1.1" xmlns="http://www.w3.org/2000/svg" width="32" height="32" viewBox="0 0 32 32">
<title>num2-fill</title>
<path d="M24.041 21.742c-0.661 0-1.141 0.309-1.44 0.928-0.853 1.451-2.187 2.293-4 2.528-1.792 0.213-3.925 0.341-6.4 0.384-0.171 0-0.299-0.043-0.384-0.128-0.043 0-0.064-0.043-0.064-0.128s0.064-0.224 0.192-0.416c0.939-1.259 2.155-2.347 3.648-3.264 1.515-0.939 2.987-1.899 4.416-2.88s2.656-2.080 3.68-3.296c1.003-1.131 1.504-2.592 1.504-4.384 0-1.195-0.245-2.464-0.736-3.808h-0.032c-0.619-1.429-1.653-2.613-3.104-3.552-1.472-0.96-3.2-1.44-5.184-1.44-2.539 0-4.725 0.672-6.56 2.016-1.813 1.344-2.72 3.072-2.72 5.184 0.064 2.539 1.099 4.448 3.104 5.728 0.171 0.085 0.299 0.149 0.384 0.192 0.064 0.021 0.16 0.075 0.288 0.16 0.512 0.213 1.088 0.32 1.728 0.32 2.048 0 3.371-0.619 3.968-1.856 0.043-0.085 0.075-0.16 0.096-0.224h0.032c0.021-0.064 0.032-0.149 0.032-0.256 0-0.597-0.267-0.896-0.8-0.896-0.213 0-0.405 0.085-0.576 0.256-0.683 0.597-1.515 0.896-2.496 0.896-0.405 0-0.8-0.128-1.184-0.384-0.405-0.256-0.693-0.523-0.864-0.8h-0.032c-0.427-0.747-0.64-1.643-0.64-2.688 0-1.195 0.491-2.283 1.472-3.264s2.101-1.472 3.36-1.472c0.747 0 1.312 0.032 1.696 0.096 0.363 0.064 0.875 0.341 1.536 0.832 0.725 0.491 1.227 1.067 1.504 1.728 0.533 0.939 0.8 2.080 0.8 3.424-0.085 0.896-0.331 1.739-0.736 2.528-0.427 0.853-0.853 1.579-1.28 2.176-0.491 0.576-0.971 1.077-1.44 1.504-0.597 0.555-1.12 0.992-1.568 1.312-0.427 0.256-0.768 0.48-1.024 0.672l-0.032 0.032c-1.813 1.259-3.221 2.549-4.224 3.872s-1.899 2.912-2.688 4.768c-0.043 0.043-0.064 0.117-0.064 0.224 0 0.085 0.043 0.213 0.128 0.384 0.128 0.213 0.277 0.32 0.448 0.32 2.176-0.171 4.235-0.267 6.176-0.288 1.387 0 2.613 0.021 3.68 0.064 1.088 0.021 2.229 0.075 3.424 0.16 0.555 0 0.907-0.224 1.056-0.672 0.171-0.384 0.32-0.821 0.448-1.312 0.149-0.597 0.288-1.035 0.416-1.312 0.171-0.448 0.416-0.907 0.736-1.376 0.299-0.427 0.555-0.907 0.768-1.44 0.064-0.085 0.096-0.224 0.096-0.416 0-0.171-0.021-0.299-0.064-0.384-0.085-0.277-0.267-0.416-0.544-0.416l0.064 0.064z"></path>
</svg>
