<!-- Generated by IcoMoon.io -->
<svg version="1.1" xmlns="http://www.w3.org/2000/svg" width="26" height="32" viewBox="0 0 26 32">
<title>num3</title>
<path d="M22.987 0.432c-2.489 0.149-5.015 0.224-7.579 0.224-1.468 0-2.812-0.012-4.032-0.037-1.195-0.050-2.402-0.124-3.621-0.224-0.274 0-0.485 0.112-0.635 0.336-0.149 0.249-0.261 0.448-0.336 0.597-0.846 1.593-1.78 2.974-2.8 4.144-0.249 0.249-0.411 0.61-0.485 1.083 0 0.473 0.162 0.709 0.485 0.709 0.846 0 1.543-0.448 2.091-1.344 0.597-0.821 1.991-1.344 4.181-1.568 0.796-0.1 1.916-0.149 3.36-0.149 0.821 0 1.605 0.037 2.352 0.112 0.274 0.025 0.46 0.062 0.56 0.112l0.037 0.075c0 0.1-0.112 0.299-0.336 0.597-0.996 1.145-1.979 2.19-2.949 3.136-1.145 1.12-2.203 2.091-3.173 2.912-0.373 0.324-0.56 0.722-0.56 1.195 0 0.373 0.149 0.56 0.448 0.56 0.523 0 0.946-0.087 1.269-0.261 0.448-0.199 0.896-0.299 1.344-0.299 2.041 0 3.733 0.821 5.077 2.464 1.070 1.369 1.605 2.9 1.605 4.592 0 0.398-0.037 0.821-0.112 1.269-0.025 2.14-0.734 4.069-2.128 5.787-1.369 1.717-3.161 2.576-5.376 2.576-1.568 0-2.924-0.585-4.069-1.755-1.12-1.17-1.68-2.452-1.68-3.845 0-0.149 0-0.299 0-0.448-0.025-0.199-0.037-0.324-0.037-0.373 0-0.896 0.187-1.605 0.56-2.128 0.274-0.423 0.734-0.796 1.381-1.12 0.672-0.348 1.008-0.722 1.008-1.12v-0.336c0-0.199-0.062-0.336-0.187-0.411-0.149-0.1-0.336-0.162-0.56-0.187-0.224-0.050-0.56-0.075-1.008-0.075-0.647 0.025-1.207 0.162-1.68 0.411-2.638 1.12-3.957 3.061-3.957 5.824 0 1.991 0.946 3.845 2.837 5.563 1.916 1.717 4.306 2.576 7.168 2.576 1.369 0 2.837-0.324 4.405-0.971 1.518-0.622 2.912-1.481 4.181-2.576 1.244-1.070 2.302-2.302 3.173-3.696s1.319-2.812 1.344-4.256c0-1.518-0.137-2.85-0.411-3.995s-0.697-2.215-1.269-3.211c-1.195-2.066-2.974-3.422-5.339-4.069-0.373-0.075-0.56-0.236-0.56-0.485 0.050-0.224 0.124-0.411 0.224-0.56 0.846-0.996 1.705-1.916 2.576-2.763l0.112-0.112c1.244-1.195 2.178-2.078 2.8-2.651 0.348-0.373 0.535-0.759 0.56-1.157 0-0.398-0.149-0.597-0.448-0.597l0.187-0.075z"></path>
</svg>
