<!-- Generated by IcoMoon.io -->
<svg version="1.1" xmlns="http://www.w3.org/2000/svg" width="32" height="32" viewBox="0 0 32 32">
<title>num4-outline1</title>
<path d="M19.241 23.95c0.192 0 0.288 0.256 0.288 0.768-0.021 1.067-0.096 1.749-0.224 2.048s-0.288 0.501-0.48 0.608c-0.039 0.013-0.089 0.034-0.151 0.062-0.041 0.019-0.086 0.041-0.137 0.066l-0.384 0.192c-0.122 0.056-0.25 0.162-0.384 0.317-0.044 0.051-0.089 0.108-0.135 0.17-0.131 0.178-0.267 0.399-0.409 0.665 0 0.085 0.053 0.171 0.16 0.256 0.149 0.107 0.277 0.16 0.384 0.16 0.063-0.008 0.127-0.016 0.192-0.023 0.264-0.032 0.551-0.063 0.861-0.095 0.018-0.002 0.035-0.004 0.053-0.005 0.090-0.009 0.182-0.018 0.276-0.027 0.143-0.014 0.29-0.028 0.441-0.041 0.704-0.064 1.301-0.096 1.792-0.096 0.512 0 1.067 0.032 1.664 0.096 0.166 0.017 0.327 0.034 0.483 0.052 0.035 0.004 0.069 0.008 0.103 0.012 0.143 0.016 0.281 0.032 0.414 0.048 0.058 0.007 0.114 0.014 0.17 0.021 0.161 0.020 0.315 0.040 0.461 0.060 0.341 0 0.512-0.139 0.512-0.416-0.021-0.427-0.096-0.683-0.224-0.768-0.035-0.030-0.073-0.061-0.114-0.094-0.054-0.044-0.112-0.090-0.174-0.14-0.060-0.048-0.124-0.098-0.192-0.151-0.032-0.028-0.063-0.059-0.095-0.094s-0.065-0.074-0.097-0.116c-0.128-0.166-0.256-0.384-0.384-0.654-0.192-0.427-0.352-1.141-0.48-2.144 0-0.149 0.053-0.331 0.16-0.544 0.128-0.235 0.363-0.352 0.704-0.352h0.96c0.597 0 0.896-0.288 0.896-0.864v-0.992c0-0.555-0.299-0.832-0.896-0.832h-1.152c-0.533 0-0.832-0.128-0.896-0.384s-0.096-0.533-0.096-0.832c-0.021-0.363-0.032-0.971-0.032-1.824 0-0.939 0.011-1.675 0.032-2.208l0.191-12.48c-0.043-0.001-0.096-0.161-0.159-0.48-0.064-0.384-0.288-0.587-0.672-0.608-0.725 0.021-1.28 0.395-1.664 1.12-1.941 3.157-4.075 6.251-6.4 9.28-2.089 2.728-4.423 5.712-7.001 8.952-0.002 0.003-0.004 0.006-0.007 0.008l0.128 0.128c-0.070 0.062-0.134 0.127-0.194 0.194-0.267 0.302-0.426 0.653-0.478 1.054 0 0.512 0.277 0.811 0.832 0.896h10.976c0.256 0 0.448 0.011 0.576 0.032zM17.773 25.632h-10.084c-0.087 0-0.174-0.007-0.261-0.020-0.517-0.080-1.134-0.294-1.62-0.816-0.503-0.542-0.666-1.201-0.666-1.774 0-0.074 0.005-0.148 0.014-0.222 0.075-0.574 0.273-1.097 0.577-1.556 0.057-0.237 0.165-0.465 0.326-0.666 2.576-3.236 4.905-6.214 6.988-8.934l0.001-0.002c2.28-2.971 4.371-6.001 6.274-9.093 0.631-1.155 1.688-1.936 3.099-1.977 0.048-0.001 0.097-0.001 0.145 0.002 0.475 0.026 1.036 0.179 1.511 0.608 0.46 0.417 0.669 0.94 0.751 1.394 0.002 0.008 0.003 0.016 0.005 0.023 0.124 0.246 0.189 0.52 0.184 0.8l-0.192 12.48c-0 0.014-0.001 0.028-0.001 0.042-0.020 0.5-0.031 1.209-0.031 2.139 0 0.566 0.005 1.005 0.013 1.326h0.448c0.533 0 1.252 0.121 1.838 0.666 0.611 0.567 0.772 1.305 0.772 1.88v0.992c0 0.568-0.151 1.306-0.748 1.882-0.57 0.55-1.276 0.689-1.818 0.696 0.066 0.313 0.125 0.508 0.17 0.61 0.066 0.138 0.119 0.229 0.156 0.285 0.005 0.007 0.009 0.014 0.013 0.019 0.144 0.113 0.273 0.217 0.387 0.311 0.489 0.376 0.669 0.884 0.739 1.125 0.090 0.309 0.125 0.629 0.138 0.906 0.002 0.028 0.002 0.057 0.002 0.086 0 0.508-0.174 1.165-0.761 1.642-0.52 0.422-1.107 0.488-1.465 0.488-0.078 0-0.155-0.005-0.232-0.016-0.446-0.061-0.971-0.123-1.577-0.185l-0.006-0.001c-0.547-0.059-1.040-0.086-1.481-0.086-0.422 0-0.964 0.028-1.637 0.089-0.691 0.063-1.279 0.125-1.767 0.186-0.071 0.009-0.142 0.013-0.213 0.013-0.64 0-1.127-0.299-1.38-0.479-0.025-0.018-0.050-0.037-0.074-0.056-0.27-0.216-0.803-0.741-0.803-1.595 0-0.281 0.069-0.558 0.202-0.807 0.2-0.375 0.42-0.732 0.666-1.037 0.225-0.279 0.559-0.627 1.025-0.85l0.332-0.166c0.006-0.041 0.012-0.088 0.018-0.143 0.007-0.064 0.014-0.134 0.020-0.211zM18.377 21.134l-6.912 0.16c-0.043 0-0.096 0.011-0.16 0.032h-0.096c-0.213 0-0.32-0.064-0.32-0.192 0-0.188 0.061-0.356 0.184-0.503 0.003-0.003 0.005-0.006 0.008-0.009 0.043-0.063 0.085-0.126 0.128-0.189 0.032-0.047 0.064-0.094 0.096-0.141 0.044-0.064 0.088-0.129 0.132-0.193 0.009-0.014 0.018-0.027 0.028-0.040 0.076-0.111 0.153-0.221 0.23-0.332 0.036-0.052 0.072-0.103 0.108-0.155 0.947-1.353 1.954-2.698 3.022-4.037 0.969-1.219 1.903-2.478 2.803-3.776 0.19-0.274 0.378-0.549 0.564-0.826 0.13-0.193 0.259-0.387 0.387-0.581 0.006-0.009 0.012-0.018 0.018-0.027l0.004-0.005-0.064-0.064c0.064-0.107 0.224-0.299 0.48-0.576 0.043-0.085 0.096-0.128 0.16-0.128 0.017 0 0.034 0.005 0.049 0.015 0.021 0.014 0.040 0.038 0.056 0.072 0.023 0.048 0.042 0.115 0.056 0.202 0.007 0.045 0.013 0.096 0.018 0.152 0.008 0.102 0.013 0.222 0.013 0.359-0.004 0.12-0.008 0.252-0.011 0.396-0 0.023-0.001 0.046-0.002 0.069-0.003 0.136-0.006 0.283-0.008 0.439-0.004 0.307-0.008 0.654-0.009 1.040-0.001 0.28-0.002 0.581-0.002 0.903v2.848c0.043 0.896 0.075 1.653 0.096 2.272 0.021 0.469 0.032 1.12 0.032 1.952 0 0.576-0.16 0.864-0.48 0.864h-0.608zM13.944 19.522l3.803-0.088c-0.005-0.423-0.014-0.768-0.026-1.038l-0.001-0.019c-0.021-0.609-0.053-1.358-0.095-2.25-0.001-0.027-0.002-0.054-0.002-0.082v-1.34c-0.476 0.642-0.962 1.273-1.456 1.895l-0.002 0.002c-0.774 0.97-1.514 1.943-2.222 2.919z"></path>
</svg>
