<!-- Generated by IcoMoon.io -->
<svg version="1.1" xmlns="http://www.w3.org/2000/svg" width="32" height="32" viewBox="0 0 32 32">
<title>num4-fill</title>
<path d="M7.529 21.774c-0.384 0.341-0.608 0.757-0.672 1.248 0 0.512 0.277 0.811 0.832 0.896h10.976c0.256 0 0.448 0.011 0.576 0.032 0.192 0 0.288 0.256 0.288 0.768-0.021 1.067-0.096 1.749-0.224 2.048s-0.288 0.501-0.48 0.608c-0.064 0.021-0.16 0.064-0.288 0.128s-0.256 0.128-0.384 0.192c-0.277 0.128-0.587 0.512-0.928 1.152 0 0.085 0.053 0.171 0.16 0.256 0.149 0.107 0.277 0.16 0.384 0.16 0.512-0.064 1.12-0.128 1.824-0.192s1.301-0.096 1.792-0.096c0.512 0 1.067 0.032 1.664 0.096 0.619 0.064 1.163 0.128 1.632 0.192 0.341 0 0.512-0.139 0.512-0.416-0.021-0.427-0.096-0.683-0.224-0.768-0.128-0.107-0.288-0.235-0.48-0.384-0.192-0.171-0.384-0.459-0.576-0.864-0.192-0.427-0.352-1.141-0.48-2.144 0-0.149 0.053-0.331 0.16-0.544 0.128-0.235 0.363-0.352 0.704-0.352h0.96c0.597 0 0.896-0.288 0.896-0.864v-0.992c0-0.555-0.299-0.832-0.896-0.832h-1.152c-0.533 0-0.832-0.128-0.896-0.384s-0.096-0.533-0.096-0.832c-0.021-0.363-0.032-0.971-0.032-1.824 0-0.939 0.011-1.675 0.032-2.208l0.192-12.48c-0.043 0-0.096-0.16-0.16-0.48-0.064-0.384-0.288-0.587-0.672-0.608-0.725 0.021-1.28 0.395-1.664 1.12-1.941 3.157-4.075 6.251-6.4 9.28-2.091 2.731-4.427 5.717-7.008 8.96l0.128 0.128zM18.537 10.254c0.064-0.107 0.224-0.299 0.48-0.576 0.043-0.085 0.096-0.128 0.16-0.128 0.128 0 0.192 0.267 0.192 0.8-0.021 0.619-0.032 1.568-0.032 2.848v2.848c0.043 0.896 0.075 1.653 0.096 2.272 0.021 0.469 0.032 1.12 0.032 1.952 0 0.576-0.16 0.864-0.48 0.864h-0.608l-6.912 0.16c-0.043 0-0.096 0.011-0.16 0.032-0.043 0-0.075 0-0.096 0-0.213 0-0.32-0.064-0.32-0.192 0-0.192 0.064-0.363 0.192-0.512 1.152-1.707 2.4-3.403 3.744-5.088 1.323-1.664 2.581-3.403 3.776-5.216l-0.064-0.064z"></path>
</svg>
