<!-- Generated by IcoMoon.io -->
<svg version="1.1" xmlns="http://www.w3.org/2000/svg" width="32" height="32" viewBox="0 0 32 32">
<title>num6-fill1</title>
<path d="M19.218 2.286c-1.536 0-3.147 0.501-4.832 1.504-1.643 0.981-3.125 2.229-4.448 3.744-1.301 1.493-2.357 3.125-3.168 4.896-0.363 0.832-0.629 1.643-0.8 2.432-0.171 0.768-0.256 1.611-0.256 2.528 0 3.989 1.045 6.987 3.136 8.992 2.155 2.027 4.779 3.040 7.872 3.040v-0.032h0.192c1.941-0.021 3.829-0.939 5.664-2.752 1.813-1.792 2.72-3.979 2.72-6.56 0-3.008-0.917-5.28-2.752-6.816-1.835-1.579-4.075-2.368-6.72-2.368-0.363 0-0.587 0.075-0.672 0.224-1.323 1.792-2.816 3.424-4.48 4.896-0.085 0.128-0.235 0.192-0.448 0.192-0.149-0.021-0.224-0.085-0.224-0.192 0.107-1.877 0.523-3.499 1.248-4.864 0.747-1.387 1.611-2.571 2.592-3.552 1.003-1.003 2.005-1.803 3.008-2.4 1.024-0.619 1.856-1.067 2.496-1.344 0.469 0 0.821-0.149 1.056-0.448 0.043-0.128 0.064-0.224 0.064-0.288 0-0.491-0.363-0.736-1.088-0.736l-0.16-0.096zM16.146 27.342c-1.493 0-2.773-0.8-3.84-2.4-1.024-1.536-1.536-2.795-1.536-3.776 0-1.579 0.512-2.976 1.536-4.192 1.088-1.301 2.379-1.952 3.872-1.952 1.515 0 2.795 0.608 3.84 1.824 1.045 1.195 1.568 2.645 1.568 4.352 0 1.728-0.523 3.189-1.568 4.384-1.045 1.216-2.325 1.824-3.84 1.824l-0.032-0.064z"></path>
</svg>
