<!-- Generated by IcoMoon.io -->
<svg version="1.1" xmlns="http://www.w3.org/2000/svg" width="32" height="32" viewBox="0 0 32 32">
<title>num7-outline1</title>
<path d="M24.3 3.536c0.007-0.014 0.014-0.029 0.021-0.043 0.024-0.050 0.049-0.101 0.073-0.151 0.064-0.107 0.096-0.235 0.096-0.384 0-0.256-0.181-0.384-0.544-0.384-0.235 0-0.409 0.008-0.521 0.023-0.007 0.001-0.015 0.002-0.021 0.003-0.012 0.002-0.023 0.004-0.034 0.006l0.032-0.032c-0.013 0.001-0.025 0.002-0.038 0.002-0.007 0-0.015 0.001-0.022 0.001-0.065 0.004-0.133 0.007-0.203 0.011-0.090 0.004-0.184 0.009-0.282 0.012-0.001 0-0.002 0-0.004 0s-0.003 0-0.004 0c-0.343 0.013-0.74 0.023-1.192 0.029-0.39 0.005-0.822 0.008-1.294 0.008-0.341 0-0.853-0.011-1.536-0.032s-1.195-0.032-1.536-0.032c-2.731-0.128-4.768-0.224-6.112-0.288h-0.192c-0.299 0-0.651 0.117-1.056 0.352s-0.651 0.523-0.736 0.864c-0.235 0.811-0.533 1.579-0.896 2.304-0.448 0.875-0.875 1.632-1.28 2.272-0.107 0.128-0.16 0.309-0.16 0.544 0 0.128 0.021 0.224 0.064 0.288 0.128 0.235 0.341 0.352 0.64 0.352 0.26 0 0.498-0.045 0.714-0.136 0.050-0.021 0.099-0.044 0.146-0.070 0.002-0.001 0.004-0.002 0.006-0.003 0.352-0.192 0.639-0.517 0.862-0.975 0.64-1.131 2.112-1.771 4.416-1.92 0.683-0.064 1.643-0.096 2.88-0.096 1.045 0 2.080 0.053 3.104 0.16 0.427 0 0.64 0.149 0.64 0.448 0 0.085-0.032 0.192-0.096 0.32-1.387 2.731-3.232 6.293-5.536 10.688-1.767 3.359-3.189 6.674-4.267 9.944-0.018 0.055-0.036 0.11-0.054 0.164-0.087 0.268-0.173 0.536-0.255 0.804v0.064c-0.021 0.043-0.032 0.075-0.032 0.096 0 0.107 0.032 0.224 0.096 0.352 0.064 0.149 0.213 0.224 0.448 0.224 0.221-0.037 0.438-0.067 0.649-0.092 0.156-0.018 0.31-0.032 0.46-0.043 0.002-0 0.005-0 0.007-0 0.232-0.017 0.457-0.025 0.676-0.025 0.512 0 1.109 0.053 1.792 0.16 0.043 0 0.096 0.011 0.16 0.032h0.096c0.427 0 0.683-0.256 0.768-0.768 0.853-4.544 2.123-8.917 3.808-13.12 1.458-3.664 3.088-7.391 4.891-11.182 0 0 0 0 0 0 0.002-0.003 0.003-0.007 0.005-0.011 0.117-0.247 0.236-0.494 0.354-0.741zM25.914 4.134c-1.959 4.067-3.716 8.057-5.272 11.97l-0.002 0.004c-1.641 4.092-2.878 8.353-3.712 12.784-0.079 0.458-0.269 1.024-0.731 1.486-0.506 0.506-1.144 0.694-1.724 0.694h-0.096c-0.14 0-0.28-0.017-0.416-0.051-0.003-0-0.006-0.001-0.009-0.001-0.623-0.097-1.128-0.139-1.527-0.139-0.446 0-0.948 0.043-1.51 0.137-0.093 0.016-0.187 0.023-0.282 0.023-0.556 0-1.54-0.204-2.001-1.211-0.136-0.284-0.258-0.651-0.258-1.079 0-0.163 0.023-0.313 0.055-0.44 0.013-0.077 0.031-0.153 0.054-0.227 1.144-3.695 2.711-7.429 4.696-11.202 1.877-3.58 3.448-6.605 4.713-9.075-0.433-0.020-0.869-0.030-1.307-0.030-1.219 0-2.117 0.032-2.72 0.088-0.016 0.002-0.033 0.003-0.049 0.004-2.109 0.137-2.806 0.686-3.018 1.025-0.287 0.569-0.693 1.098-1.26 1.486-0.602 0.412-1.283 0.596-1.977 0.596-0.819 0-1.642-0.37-2.116-1.194-0.272-0.452-0.302-0.911-0.302-1.16 0-0.44 0.092-1.011 0.465-1.523 0.359-0.571 0.745-1.258 1.16-2.067 0.309-0.62 0.567-1.28 0.772-1.984 0.239-0.905 0.871-1.512 1.53-1.894 0.531-0.308 1.19-0.583 1.915-0.583h0.192c0.027 0 0.054 0.001 0.082 0.002 1.337 0.064 3.361 0.159 6.072 0.286 0.367 0.001 0.887 0.012 1.548 0.033 0.679 0.021 1.169 0.031 1.482 0.031 1.335 0 2.305-0.021 2.933-0.061 0.090-0.006 0.179-0.004 0.267 0.004 0.136-0.006 0.267-0.007 0.384-0.007 0.331 0 0.885 0.049 1.397 0.41 0.621 0.438 0.862 1.102 0.862 1.689 0 0.369-0.075 0.781-0.289 1.176z"></path>
</svg>
