<!-- Generated by IcoMoon.io -->
<svg version="1.1" xmlns="http://www.w3.org/2000/svg" width="24" height="32" viewBox="0 0 24 32">
<title>num8</title>
<path d="M11.701 0.339c-2.364 0-4.393 0.672-6.085 2.016-1.668 1.344-2.501 2.949-2.501 4.816 0.050 1.643 0.311 2.875 0.784 3.696 0.473 0.796 0.958 1.406 1.456 1.829 0.423 0.373 0.821 0.647 1.195 0.821 0.149 0.075 0.224 0.162 0.224 0.261 0 0.075-0.062 0.174-0.187 0.299-1.344 0.996-2.613 2.215-3.808 3.659-1.17 1.444-1.755 3.036-1.755 4.779 0 2.862 1.045 5.115 3.136 6.757s4.617 2.464 7.579 2.464c2.937 0 5.55-0.958 7.84-2.875 2.265-1.892 3.397-4.119 3.397-6.683 0-1.966-0.535-3.758-1.605-5.376-1.095-1.668-2.526-2.924-4.293-3.771-0.523-0.224-0.784-0.423-0.784-0.597 0-0.1 0.037-0.149 0.112-0.149 0.348-0.249 0.61-0.448 0.784-0.597 0.821-0.722 1.531-1.468 2.128-2.24 0.597-0.796 0.896-1.692 0.896-2.688 0-1.692-0.809-3.198-2.427-4.517s-3.621-1.979-6.011-1.979l-0.075 0.075zM11.813 29.795c-1.717 0-3.148-0.647-4.293-1.941-1.22-1.394-1.892-2.987-2.016-4.779 0-0.050 0-0.174 0-0.373-0.025-0.199-0.037-0.324-0.037-0.373 0-1.568 0.386-3.124 1.157-4.667 0.896-1.842 1.966-2.763 3.211-2.763 0.224 0 0.796 0.174 1.717 0.523 0.871 0.348 1.854 0.896 2.949 1.643 1.020 0.697 1.929 1.556 2.725 2.576 0.672 0.896 1.008 2.028 1.008 3.397-0.249 2.564-0.983 4.293-2.203 5.189s-2.626 1.406-4.219 1.531v0.037zM11.739 2.093c0.946 0.025 1.954 0.448 3.024 1.269s1.605 1.804 1.605 2.949c0 1.17-0.236 2.215-0.709 3.136-0.498 0.946-1.17 1.493-2.016 1.643-0.996 0-2.327-0.51-3.995-1.531-1.643-1.020-2.464-2.103-2.464-3.248 0-1.17 0.46-2.178 1.381-3.024 0.871-0.796 1.929-1.195 3.173-1.195z"></path>
</svg>
