<!-- Generated by IcoMoon.io -->
<svg version="1.1" xmlns="http://www.w3.org/2000/svg" width="32" height="32" viewBox="0 0 32 32">
<title>num8-outline1</title>
<path d="M14.185 4.276c-0.308 0.157-0.596 0.358-0.864 0.602-0.789 0.725-1.184 1.589-1.184 2.592 0 0.981 0.704 1.909 2.112 2.784 1.429 0.875 2.571 1.312 3.424 1.312 0.725-0.128 1.301-0.597 1.728-1.408 0.405-0.789 0.608-1.685 0.608-2.688 0-0.981-0.459-1.824-1.376-2.528-0.535-0.41-1.051-0.705-1.55-0.883-0.142-0.051-0.282-0.092-0.42-0.124-0.2-0.046-0.396-0.073-0.59-0.080-0.011-0-0.021-0.001-0.032-0.001s-0.021 0-0.032 0c-0.672 0.004-1.28 0.145-1.824 0.422zM13.588 2.66c-1.027 0.281-1.959 0.754-2.795 1.418-1.429 1.152-2.144 2.528-2.144 4.128 0.043 1.408 0.267 2.464 0.672 3.168 0.373 0.628 0.755 1.121 1.146 1.478 0.034 0.031 0.068 0.061 0.102 0.090 0.151 0.133 0.299 0.252 0.442 0.356 0.201 0.145 0.395 0.261 0.582 0.348 0.128 0.064 0.192 0.139 0.192 0.224 0 0.064-0.053 0.149-0.16 0.256-0.134 0.099-0.266 0.2-0.398 0.305-0.014 0.011-0.029 0.023-0.043 0.034-0.212 0.168-0.421 0.343-0.628 0.525-0.011 0.010-0.023 0.020-0.034 0.030-0.749 0.66-1.469 1.408-2.16 2.243-1.003 1.237-1.504 2.603-1.504 4.096 0 2.453 0.896 4.384 2.688 5.792 1.522 1.196 3.314 1.884 5.375 2.064 0.365 0.032 0.739 0.048 1.121 0.048 0.021 0 0.043 0 0.064-0 0.044-0 0.088-0.001 0.132-0.002 0.079-0.001 0.159-0.004 0.237-0.006 0.030-0.001 0.060-0.002 0.090-0.004 2.305-0.107 4.371-0.924 6.196-2.452 1.941-1.621 2.912-3.531 2.912-5.728 0-1.685-0.459-3.221-1.376-4.608-0.76-1.158-1.709-2.084-2.847-2.78-0.030-0.019-0.061-0.037-0.092-0.056-0.239-0.142-0.486-0.274-0.741-0.397-0.063-0.027-0.122-0.054-0.176-0.080-0.185-0.090-0.319-0.174-0.4-0.254-0.064-0.063-0.096-0.122-0.096-0.178 0-0.085 0.032-0.128 0.096-0.128 0.299-0.213 0.523-0.384 0.672-0.512 0.167-0.147 0.329-0.295 0.486-0.445 0.005-0.005 0.010-0.009 0.015-0.014 0.496-0.475 0.937-0.962 1.324-1.461 0.512-0.683 0.768-1.451 0.768-2.304 0-1.451-0.693-2.741-2.080-3.872-1.058-0.863-2.308-1.396-3.751-1.601-0.446-0.063-0.91-0.095-1.392-0.095-0.003 0-0.006 0-0.009 0l-0.064 0.064c-0.859 0-1.666 0.103-2.421 0.31zM16.105 27.598v-0.032c0.084-0.006 0.167-0.014 0.249-0.023 1.263-0.138 2.386-0.568 3.367-1.289 1.045-0.768 1.675-2.251 1.888-4.448 0-1.173-0.288-2.144-0.864-2.912-0.683-0.875-1.461-1.611-2.336-2.208-0.939-0.64-1.781-1.109-2.528-1.408-0.789-0.299-1.28-0.448-1.472-0.448-1.067 0-1.984 0.789-2.752 2.368-0.661 1.323-0.992 2.656-0.992 4 0 0.043 0.011 0.149 0.032 0.32v0.32c0.107 1.536 0.683 2.901 1.728 4.096 0.577 0.652 1.238 1.112 1.984 1.381 0.236 0.085 0.48 0.151 0.733 0.198 0.12 0.022 0.241 0.040 0.365 0.053 0.174 0.019 0.352 0.030 0.534 0.032 0.021 0 0.043 0 0.064 0zM15.828 25.874c-0.845-0.060-1.522-0.402-2.116-1.072-0.792-0.907-1.212-1.901-1.301-3.027v-0.257c0-0.071-0.004-0.142-0.013-0.213-0.009-0.073-0.015-0.125-0.018-0.159 0.008-1.036 0.265-2.091 0.811-3.182l0.008-0.017c0.547-1.125 0.963-1.348 1.132-1.393 0.025 0.007 0.056 0.016 0.091 0.027 0.191 0.058 0.466 0.153 0.837 0.293 0.592 0.238 1.317 0.635 2.184 1.226 0.717 0.49 1.364 1.097 1.94 1.833 0.294 0.397 0.499 0.958 0.512 1.792-0.205 1.975-0.744 2.82-1.188 3.146-0.773 0.568-1.669 0.901-2.735 0.984-0.048 0.004-0.096 0.009-0.143 0.017zM9.14 13.955c-0.484-0.479-0.91-1.061-1.293-1.706l-0.012-0.020c-0.615-1.068-0.854-2.461-0.9-3.971-0.001-0.017-0.001-0.035-0.001-0.052 0-2.199 1.016-4.039 2.782-5.463l0.010-0.008c1.676-1.331 3.653-2.015 5.856-2.092 0.158-0.047 0.322-0.071 0.49-0.071 2.383 0 4.499 0.666 6.235 2.082 1.684 1.373 2.711 3.116 2.711 5.201 0 1.224-0.376 2.353-1.111 3.333l-0.016 0.021c-0.342 0.441-0.717 0.87-1.124 1.285 1.169 0.793 2.158 1.806 2.96 3.026 1.105 1.671 1.659 3.536 1.659 5.552 0 2.785-1.262 5.151-3.527 7.043-2.265 1.896-4.893 2.863-7.82 2.863-2.876 0-5.427-0.806-7.555-2.478-2.241-1.761-3.343-4.207-3.343-7.14 0-1.913 0.654-3.654 1.886-5.175l0.011-0.014c0.668-0.808 1.368-1.546 2.1-2.214zM14.479 6.141c0.407-0.371 0.886-0.568 1.536-0.573 0.325 0.014 0.84 0.171 1.574 0.734 0.579 0.445 0.705 0.818 0.705 1.168 0 0.762-0.152 1.381-0.415 1.897-0.158 0.298-0.291 0.419-0.386 0.47-0.415-0.060-1.169-0.323-2.345-1.043-1.253-0.78-1.297-1.258-1.297-1.325 0-0.486 0.166-0.903 0.628-1.328z"></path>
</svg>
