<!-- Generated by IcoMoon.io -->
<svg version="1.1" xmlns="http://www.w3.org/2000/svg" width="32" height="32" viewBox="0 0 32 32">
<title>num91</title>
<path d="M10.149 31.509c1.842 0 3.783-0.572 5.824-1.717 2.091-1.17 3.982-2.626 5.675-4.368 1.742-1.792 3.148-3.696 4.219-5.712 0.523-0.946 0.896-1.879 1.12-2.8 0.249-0.921 0.373-1.904 0.373-2.949 0-4.729-1.033-8.201-3.099-10.416-2.091-2.34-4.953-3.522-8.587-3.547-2.24 0-4.58 1.058-7.019 3.173-2.215 1.916-3.323 4.268-3.323 7.056 0 0.124 0.012 0.311 0.037 0.56s0.037 0.436 0.037 0.56c0 3.484 1.207 6.123 3.621 7.915 2.514 1.842 5.015 2.763 7.504 2.763 0.373 0 0.635-0.087 0.784-0.261 0.348-1.045 0.722-1.829 1.12-2.352 0.398-0.498 1.182-1.182 2.352-2.053 0.124-0.149 0.286-0.224 0.485-0.224 0.174 0.025 0.261 0.1 0.261 0.224-0.174 1.668-0.734 3.198-1.68 4.592-0.971 1.444-2.028 2.663-3.173 3.659s-2.34 1.867-3.584 2.613c-1.145 0.672-2.103 1.195-2.875 1.568h-0.037c-0.647 0.174-1.033 0.348-1.157 0.523-0.075 0.1-0.112 0.212-0.112 0.336 0 0.548 0.423 0.821 1.269 0.821l-0.037 0.037zM16.272 2.875c2.215 0.348 3.696 1.444 4.443 3.285 0.772 1.916 1.207 3.372 1.307 4.368l0.224 1.68c0 0.025 0.012 0.1 0.037 0.224 0 0.124 0 0.199 0 0.224 0 0.324-0.062 0.635-0.187 0.933-0.299 0.622-1.045 1.294-2.24 2.016-1.195 0.697-2.427 1.070-3.696 1.12-3.484 0-5.625-2.203-6.421-6.608-0.124-0.672-0.187-1.232-0.187-1.68 0-1.518 0.485-2.8 1.456-3.845 1.020-1.17 2.377-1.755 4.069-1.755 0.498 0 0.884 0.025 1.157 0.075l0.037-0.037z"></path>
</svg>
