<!-- Generated by IcoMoon.io -->
<svg version="1.1" xmlns="http://www.w3.org/2000/svg" width="32" height="32" viewBox="0 0 32 32">
<title>numNull2</title>
<path d="M8.037 13.333l1.381 0.971c0.548 0.050 1.083 0.087 1.605 0.112 0.548 0 1.095 0 1.643 0 1.419 0 2.825-0.012 4.219-0.037 1.419-0.025 2.837-0.037 4.256-0.037 0.398 0 0.747-0.1 1.045-0.299 0.324-0.199 0.66-0.386 1.008-0.56v5.152c-0.373-0.174-0.747-0.373-1.12-0.597-0.348-0.224-0.734-0.336-1.157-0.336-0.398 0-0.958 0-1.68 0-0.697-0.025-1.481-0.037-2.352-0.037s-1.78 0.012-2.725 0.037c-0.921 0.025-1.804 0.075-2.651 0.149-0.821 0.050-1.543 0.137-2.165 0.261-0.622 0.1-1.058 0.236-1.307 0.411-0.025-0.423-0.037-0.846-0.037-1.269 0-0.448 0-0.884 0-1.307s0-0.859 0-1.307c0.025-0.448 0.037-0.884 0.037-1.307z"></path>
</svg>
