<!-- Generated by IcoMoon.io -->
<svg version="1.1" xmlns="http://www.w3.org/2000/svg" width="32" height="32" viewBox="0 0 32 32">
<title>occultism</title>
<path d="M7.313 28.858l-0.142-0.142v-3.145l0.142-0.142c0.131-0.131 0.186-0.142 0.696-0.142h0.554v-1.241c0-1.569-0.035-1.503 0.817-1.544l0.596-0.029 0.076-0.335c0.172-0.762 0.642-1.436 1.306-1.877l0.425-0.282-0.406-0.271c-1.884-1.256-3.152-3.182-3.605-5.477-0.142-0.718-0.142-2.238 0-2.956 0.526-2.665 2.174-4.853 4.519-6.001 1.264-0.618 2.238-0.841 3.7-0.844 1.123-0.003 1.64 0.073 2.562 0.374 1.296 0.423 2.358 1.079 3.33 2.054 1.21 1.214 1.938 2.551 2.302 4.23 0.186 0.86 0.185 2.477-0.003 3.345-0.355 1.641-1.112 3.030-2.297 4.213-0.357 0.356-0.868 0.793-1.15 0.983-0.28 0.188-0.489 0.359-0.464 0.379s0.223 0.162 0.441 0.315c0.616 0.431 1.053 1.086 1.223 1.832l0.073 0.319 0.596 0.029c0.852 0.042 0.817-0.025 0.817 1.544v1.241h0.554c0.511 0 0.565 0.011 0.696 0.142l0.142 0.142v3.145l-0.285 0.285h-17.073zM23.885 27.143v-0.929h-15.786v1.857h15.786zM22.492 24.357v-0.929h-13v1.857h13zM21.041 22.364c0-0.239-0.34-0.827-0.641-1.109-0.359-0.336-0.799-0.543-1.25-0.589-0.273-0.028-0.452-0.004-0.872 0.118-1.401 0.405-3.099 0.413-4.462 0.022-0.926-0.266-1.614-0.128-2.231 0.45-0.301 0.282-0.641 0.87-0.641 1.109v0.136h10.098zM17.443 20.037c2.98-0.635 5.202-2.861 5.846-5.854 0.142-0.661 0.142-2.205 0-2.866-0.644-2.998-2.866-5.219-5.863-5.863-0.661-0.142-2.205-0.142-2.866 0-3.001 0.645-5.219 2.862-5.863 5.863-0.142 0.661-0.142 2.205 0 2.866 0.488 2.273 1.902 4.142 3.909 5.168 0.639 0.327 1.468 0.608 2.082 0.706 0.223 0.036 0.472 0.076 0.551 0.090 0.307 0.053 1.791-0.021 2.205-0.109zM15.296 19.212c-0.949-0.143-1.591-0.33-1.71-0.499-0.134-0.192-0.11-0.433 0.059-0.603s0.245-0.168 0.983 0.032c0.255 0.069 0.711 0.142 1.013 0.162 0.466 0.031 0.569 0.057 0.682 0.17 0.179 0.179 0.175 0.45-0.010 0.634-0.123 0.123-0.191 0.141-0.508 0.135-0.201-0.004-0.431-0.018-0.51-0.030zM17.644 18.759c-0.169-0.169-0.187-0.431-0.041-0.601 0.056-0.065 0.305-0.201 0.554-0.303 1.897-0.776 3.25-2.673 3.39-4.755 0.042-0.627 0.153-0.815 0.482-0.815 0.292 0 0.465 0.22 0.463 0.592-0.003 0.786-0.244 1.814-0.603 2.574-0.681 1.44-1.616 2.401-3.018 3.104-0.781 0.391-1.002 0.428-1.226 0.204zM11.956 10.286c-0.251-0.251-0.198-0.459 0.225-0.883s0.631-0.476 0.883-0.225c0.251 0.251 0.198 0.459-0.225 0.883s-0.631 0.476-0.883 0.225zM14.038 10.061c-0.423-0.423-0.476-0.631-0.225-0.883s0.459-0.198 0.883 0.225c0.423 0.423 0.476 0.631 0.225 0.883s-0.459 0.198-0.883-0.225zM12.181 8.204c-0.423-0.423-0.476-0.631-0.225-0.883s0.459-0.198 0.883 0.225c0.423 0.423 0.476 0.632 0.225 0.883s-0.459 0.198-0.883-0.225zM13.813 8.429c-0.251-0.251-0.198-0.459 0.225-0.883s0.631-0.476 0.883-0.225c0.251 0.251 0.198 0.459-0.225 0.883s-0.632 0.476-0.883 0.225zM27.135 24.357v-0.464h0.929v0.929h-0.929zM3.921 22.5v-0.464h0.929v0.929h-0.929zM5.92 21.429c-0.251-0.251-0.198-0.459 0.225-0.883s0.631-0.476 0.883-0.225c0.251 0.251 0.198 0.459-0.225 0.883s-0.632 0.476-0.883 0.225zM8.003 21.204c-0.423-0.423-0.476-0.632-0.225-0.883s0.459-0.198 0.883 0.225c0.423 0.423 0.476 0.632 0.225 0.883s-0.459 0.198-0.883-0.225zM22.957 20.179v-0.464h0.929v0.929h-0.929zM27.278 20.5c-0.090-0.090-0.142-0.209-0.142-0.322s-0.053-0.232-0.142-0.322c-0.090-0.090-0.209-0.142-0.322-0.142-0.406 0-0.61-0.498-0.322-0.786 0.090-0.090 0.209-0.142 0.322-0.142 0.239 0 0.464-0.226 0.464-0.464s0.226-0.464 0.464-0.464c0.239 0 0.464 0.226 0.464 0.464s0.226 0.464 0.464 0.464c0.239 0 0.464 0.226 0.464 0.464s-0.226 0.464-0.464 0.464c-0.113 0-0.232 0.053-0.322 0.142s-0.142 0.209-0.142 0.322c0 0.113-0.053 0.232-0.142 0.322s-0.209 0.142-0.322 0.142c-0.113 0-0.232-0.053-0.322-0.142zM6.146 19.347c-0.423-0.423-0.476-0.631-0.225-0.883s0.459-0.198 0.883 0.225c0.423 0.423 0.476 0.631 0.225 0.883s-0.459 0.198-0.883-0.225zM7.778 19.572c-0.251-0.251-0.198-0.459 0.225-0.883s0.632-0.476 0.883-0.225c0.251 0.251 0.198 0.459-0.225 0.883s-0.632 0.476-0.883 0.225zM25.278 16v-0.464h0.929v0.929h-0.929zM4.063 15.858c-0.090-0.090-0.142-0.209-0.142-0.322 0-0.239-0.226-0.464-0.464-0.464-0.406 0-0.61-0.498-0.322-0.786 0.090-0.090 0.209-0.142 0.322-0.142 0.239 0 0.464-0.226 0.464-0.464s0.226-0.464 0.464-0.464c0.239 0 0.464 0.226 0.464 0.464s0.226 0.464 0.464 0.464c0.239 0 0.464 0.226 0.464 0.464s-0.226 0.464-0.464 0.464c-0.239 0-0.464 0.226-0.464 0.464s-0.226 0.464-0.464 0.464c-0.113 0-0.232-0.053-0.322-0.142zM25.885 13.072c-0.251-0.251-0.198-0.459 0.225-0.883s0.632-0.476 0.883-0.225c0.251 0.251 0.198 0.459-0.225 0.883s-0.632 0.476-0.883 0.225zM27.967 12.847c-0.423-0.423-0.476-0.631-0.225-0.883s0.459-0.198 0.883 0.225c0.423 0.423 0.476 0.631 0.225 0.883s-0.459 0.198-0.883-0.225zM26.11 10.99c-0.423-0.423-0.476-0.632-0.225-0.883s0.459-0.198 0.883 0.225c0.423 0.423 0.476 0.632 0.225 0.883s-0.459 0.198-0.883-0.225zM27.742 11.215c-0.251-0.251-0.198-0.459 0.225-0.883s0.631-0.476 0.883-0.225c0.251 0.251 0.198 0.459-0.225 0.883s-0.631 0.476-0.883 0.225zM4.849 10.429v-0.464h0.929v0.929h-0.929zM5.92 7.965c-0.090-0.090-0.142-0.209-0.142-0.322s-0.053-0.232-0.142-0.322c-0.090-0.090-0.209-0.142-0.322-0.142-0.406 0-0.61-0.498-0.322-0.786 0.090-0.090 0.209-0.142 0.322-0.142 0.239 0 0.464-0.226 0.464-0.464s0.226-0.464 0.464-0.464c0.239 0 0.464 0.226 0.464 0.464s0.226 0.464 0.464 0.464c0.239 0 0.464 0.226 0.464 0.464s-0.226 0.464-0.464 0.464c-0.113 0-0.232 0.053-0.322 0.142s-0.142 0.209-0.142 0.322c0 0.113-0.053 0.232-0.142 0.322s-0.209 0.142-0.322 0.142c-0.113 0-0.232-0.053-0.322-0.142zM26.671 7.179v-0.464h0.929v0.929h-0.929zM24.492 5.643c-0.090-0.090-0.142-0.209-0.142-0.322 0-0.239-0.226-0.464-0.464-0.464s-0.464-0.226-0.464-0.464c0-0.239 0.226-0.464 0.464-0.464s0.464-0.226 0.464-0.464c0-0.239 0.226-0.464 0.464-0.464s0.464 0.226 0.464 0.464c0 0.239 0.226 0.464 0.464 0.464s0.464 0.226 0.464 0.464c0 0.113-0.053 0.232-0.142 0.322s-0.209 0.142-0.322 0.142c-0.239 0-0.464 0.226-0.464 0.464s-0.226 0.464-0.464 0.464c-0.113 0-0.232-0.053-0.322-0.142zM19.707 4.393v-0.464h0.929v0.929h-0.929zM9.492 3.929v-0.464h0.929v0.929h-0.929z"></path>
</svg>
