<!-- Generated by IcoMoon.io -->
<svg version="1.1" xmlns="http://www.w3.org/2000/svg" width="33" height="32" viewBox="0 0 33 32">
<title>on_thin_ice</title>
<path d="M14.961 10.616l-0.113-1.239-0.002-0.009v-0.009l-0.003-0.757v-0.018l0.011-0.121-2.212-0.055-5.798 0.093c-0.063-0.006-1.331-0.124-2.175-0.265-0.536 0.029-1.077 0.199-1.613 0.155-0.037-0.003-0.077 1.317-0.077 1.317l0.319 1.348 4.226-0.031 2.897-0.032 2.045-0.216 2.482 0.090z"></path>
<path d="M14.75 17.471l-1.031 0.005c-0.037 0-3.376-0.066-5.499-0.193-0.81 0.029-1.619 0.040-2.429-0.012-0.107-0.008-0.216-0.012-0.326-0.017-0.009 0-0.017 0-0.026 0-0.216 0-0.417-0.006-0.614-0.017-0.005 0-0.009-0.002-0.014-0.002-0.285-0.002-0.57 0.005-0.845 0.020-0.061 0.003-0.123 0.008-0.182 0.012-0.011 0.271-0.040 1.889-0.040 1.889l0.982 0.080h1.221l2.025-0.153 6.829 0.366z"></path>
<path d="M14.413 11.52l-2.838 0.242-0.988 0.11-5.778-0.162c0 0-0.922 0.035-1.766 0.046l0.274 1.985 1.121-0.006 3.558 0.055 6.797 0.012 0.143-2.266z"></path>
<path d="M14.716 15.632v-0.008l0.064-1.111-6.709-0.014c-1.581 0.084-2.636 0.147-2.636 0.147l-0.954-0.207h-0.008l-1.127 0.006 0.005 0.035 0.172 2.021 0.009 0.054c0.040 0.005 0.078 0.009 0.121 0.012 1.091 0.060 1.935-0.070 2.936 0.006 2.132 0.161 6.386 0.242 6.386 0.242l1.769-0.008-0.028-1.169z"></path>
<path d="M14.804 20.087l-0.925 0.015-4.356-0.24-1.311 0.023c0 0-1.225-0.055-2.606-0.087l-0.87 0.067-0.968 0.002c0.029 0.317 0.060 0.625 0.089 0.918v0.011l0.003 0.064 0.002 0.018 0.015 0.106c0.031 0.314 0.061 0.627 0.090 0.939 0.781 0.156 2.446 0.306 2.446 0.306l5.744-0.092 2.572 0.064c0.046-0.492 0.092-0.893 0.103-0.977z"></path>
<path d="M29.359 8.787c-0.495-0.035-0.988-0.061-1.483-0.084-0.109 0.017-0.184 0.031-0.185 0.031l-0.044 0.009-0.444-0.066c-1.423-0.052-2.846-0.070-4.271-0.086-0.115 0.003-0.187 0.006-0.188 0.006l-0.029-0.002-0.129-0.009c-1.725-0.018-3.45-0.046-5.176-0.139l-0.257 0.014c0.002 0.061 0.003 0.123 0.003 0.187l-0.002 0.015v0.006c-0.008 0.118-0.011 0.239-0.009 0.371v0.029l-0.002 0.006c-0.003 0.066-0.006 0.132-0.009 0.195-0.038 0.536-0.021 1.072-0.002 1.481v0.023c-0.003 0.051-0.006 0.104-0.009 0.158l4.674 0.17 3.171-0.294 2.512 0.109c0 0 1.288 0.018 1.927-0.043 0.005-0.948 0.008-1.118-0.047-2.086z"></path>
<path d="M28.371 20.343c-0.161-0.025-0.32-0.083-0.481-0.133-0.271 0.032-0.794 0.093-0.983 0.093-1.402-0.002-4.297-0.305-4.574-0.334l-5.394 0.089-0.020 0.181 0.011 1.693 0.028 0.239 1.782-0.092 3.44 0.242c0 0 2.123-0.067 2.857-0.026 0.335 0.018 1.013 0.018 1.013 0.018l1.005 0.142 1.348-0.061c0 0 0.051-1.346-0.031-2.051z"></path>
<path d="M29.25 12.5l-0.017-0.896-2.748 0.075-1.599-0.069-5.040 0.069-2.736-0.086c-0.040 0.689-0.066 1.507-0.081 2.060l1.114-0.1 3.634 0.041 3.039 0.077 1.806-0.034 2.561-0.121z"></path>
<path d="M29.016 16.671l0.144-2.354c-0.287 0.015-0.628 0.025-1.029 0.028-0.009 0-0.020 0.002-0.029 0.002-0.107 0.006-0.213 0.005-0.317-0.002-0.429-0.002-0.746-0.009-0.746-0.009l-1.823 0.038-3.108-0.084-3.676-0.043-1.409 0.133c-0.006 0.264-0.009 0.432-0.009 0.437l0.021 1.984 9.641-0.044 1.657-0.046c0 0 0.372 0.044 0.683-0.038z"></path>
<path d="M28.974 17.771l0.012-0.182c-0.165-0.005-0.412-0.011-0.521-0.003-0.4 0.026-1.382-0.162-1.382-0.162l-2.364 0.221-2.878 0.002-1.996-0.196-2.809 0.014 0.014 1.19v0.023l-0.089 0.764 6.556-0.104c0 0 3.11 0.322 4.548 0.322 0.119 0 0.404-0.028 0.656-0.055z"></path>
<path d="M3.024 23.72c-0.219 0.305-0.306-0.107-0.167-0.305v-0.034c0.216-0.133 0.29 0.169 0.167 0.338zM2.344 21.262c0.006-0.158 0.049-0.365 0.202-0.411h-0.069c0.017-0.035 0.017-0.066 0.041-0.1 0.421 0.034 0.187 0.7-0.175 0.51zM2.304 18.289c0.201-0.112 0.357 0.109 0.216 0.311-0.262 0.377-0.265-0.106-0.216-0.311zM2.103 15.516h-0.008c0.211-0.279 0.495 0.277 0.086 0.378-0.311 0.078-0.254-0.3-0.078-0.378zM1.782 12.688c-0.011 0.008-0.022 0.014-0.032 0.021l0.034-0.035c0 0.006-0.002 0.009-0.002 0.014 0.061-0.040 0.126-0.058 0.205-0.043 0.066 0.539-0.331 0.634-0.205 0.043zM1.581 10.21c-0.028-0.159-0.006-0.343 0.064-0.479h-0.035c0.395-0.365 0.506 0.767-0.029 0.479zM3.678 24.5c-0.015-0.070-0.028-0.119-0.028-0.121l-0.009-0.029 0.009-0.302c-0.060-0.954-0.141-1.907-0.222-2.86-0.009-0.077-0.015-0.124-0.015-0.126l-0.002-0.020-0.003-0.086c-0.1-1.154-0.193-2.308-0.25-3.47l-0.086-0.597-0.172-2.342-0.423-3.857-0.002-0.009c0-0.041-0.014-0.899 0.014-1.474-0.051-0.355-0.182-0.705-0.191-1.066-0.002-0.025-0.002-0.051-0.002-0.075-0.55 0.061-1.345 0.139-1.345 0.139l0.124 2.609 0.535 4.254 0.306 5.551 0.369 2.095 0.098 1.687c0 0 0.011 0.126 0.028 0.303 0.074-0.005 0.152-0.008 0.239-0.008 0.127 0 0.224 0.006 0.257 0.008l0.778-0.012c-0.003-0.064-0.005-0.129-0.009-0.193z"></path>
<path d="M30.716 10.296c-0.25-0.080-0.415-0.424-0.113-0.576 0.437-0.217 0.211 0.392 0.113 0.576zM30.181 12.877c-0.009-0.144 0.057-0.285 0.17-0.352 0.199-0.202 0.472 0.475-0.17 0.352zM30.388 15.78c-0.107 0.26-0.351 0.141-0.28-0.126l-0.035-0.104c0.173-0.17 0.404 0.014 0.316 0.23zM30.005 19.156c-0.337 0.245-0.248-0.225-0.078-0.414-0.020-0.003-0.040-0.006-0.063-0.005l0.104-0.034c-0.014 0.011-0.028 0.023-0.041 0.038 0.19 0.031 0.26 0.282 0.078 0.414zM29.627 21.85c-0.026-0.159 0.057-0.365 0.204-0.34h-0.069c0.141-0.294 0.389 0.435-0.135 0.34zM29.42 23.999c-0.025-0.142-0.011-0.283 0.098-0.377v-0.034c0.017-0.037 0.017-0.066 0.043-0.1 0.391 0.15 0.343 0.567-0.141 0.51zM30.221 8.108c-0.023 0.11-0.064 0.217-0.101 0.326 0.006 0.19 0.018 0.553 0.009 0.685-0.066 0.97-0.378 2.958-0.409 3.146l-0.297 5.597-0.345 3.001-0.047 0.907c0 0-0.089 0.846-0.173 1.798v0.607l-0.040 0.605c0.087 0.002 0.176 0.003 0.262 0.006 0.303 0.009 0.574 0.034 0.836 0.058 0.035 0.003 0.073 0.005 0.109 0.008 0.002-0.006 0.002-0.014 0.003-0.020 0.13-0.522 0.3-1.699 0.3-1.699l0.213-3.977 0.211-2.384 0.043-1.915 0.303-2.367c0 0 0.058-1.472 0.116-1.978 0.028-0.231 0.058-0.7 0.058-0.7l0.132-0.688 0.173-0.947c0 0-0.939-0.092-1.357-0.072z"></path>
<path d="M16.179 9.862c-0.267 0.202-0.262-0.26-0.165-0.404 0.008-0.003 0.012-0.003 0.018-0.005l-0.017-0.035c0.237-0.029 0.351 0.303 0.164 0.444zM16.098 18.756c-0.204 0.334-0.391-0.047-0.294-0.29 0.047-0.018 0.054-0.003 0.075 0.014 0.135-0.121 0.354 0.057 0.219 0.276zM16.049 23.745c-0.251 0.228-0.32-0.135-0.236-0.325 0.003 0 0.005 0 0.008 0 0.13-0.291 0.45 0.126 0.228 0.325zM15.772 20.851c0.411-0.098 0.337 0.481 0.006 0.411 0.005-0.147 0.008-0.285 0.098-0.375zM15.911 15.551l-0.070 0.138c0.080-0.041 0.181-0.049 0.273-0.029 0.153 0.607-0.763 0.26-0.202-0.109zM15.807 12.745l0.034 0.104c0.008-0.037-0.003-0.064 0.008-0.101 0.76 0.031-0.265 0.806-0.041-0.003zM16.704 8.733c0.002-0.198-0.005-0.394-0.015-0.585-0.003-0.043-0.006-0.084-0.009-0.127-0.191-0.006-1.336-0.021-1.336-0.021l-0.052 0.682 0.003 0.847 0.115 1.403-0.245 4.929 0.115 5.597c0 0-0.216 2.157-0.213 3.154 0 0.009 0.002 0.028 0.003 0.041l1.469-0.005c0.026-0.313 0.104-0.724 0.104-0.724l-0.162-1.639-0.011-1.996 0.132-1.385-0.038-3.989v-0.002c0.002-0.026 0.037-2.342 0.119-3.816-0.023-0.561-0.034-1.123 0.002-1.685 0.005-0.073 0.008-0.15 0.011-0.225 0-0.006 0-0.012 0-0.018-0.002-0.15 0.002-0.29 0.009-0.426 0-0.003 0-0.006 0-0.011z"></path>
<path d="M10.193 27.625c-0.325 0.267-0.755 0.288-0.942-0.146-0.095-0.222-0.020-0.862 0.332-0.744 0.672-0.429 1.255 0.36 0.61 0.89zM11.85 25.644c-0.659-0.852-1.729-0.95-2.711-0.911-0.282 0.011-0.446 0.055-0.712 0.173-0.441 0.195-0.87 0.619-1.088 1.042-0.34 0.663-0.38 1.527-0.167 2.181 0.498 1.529 2.321 2.073 3.725 1.517 0.617-0.245 1.124-0.717 1.317-1.363 0.253-0.853 0.198-1.913-0.365-2.638z"></path>
<path d="M22.121 27.688c-0.695 0.478-1.517-0.472-0.493-0.842l-0.242 0.104c0.536-0.415 1.403 0.277 0.735 0.738zM19.728 25.533c-0.483 0.619-0.698 1.504-0.613 2.223 0.24 2.004 2.702 2.907 4.257 1.703 3.074-2.379-1.449-6.737-3.644-3.926z"></path>
<path d="M7.105 25.828c0.173-0.337 0.452-0.656 0.767-0.893l-2.864 0.008-1.732 0.026c0 0-0.827-0.055-1.078 0.144 0.104 0.323-0.067 0.87-0.046 1.244 0.029 0.002 0.063 0.002 0.095 0.003 0.328-0.012 0.743-0.020 1.241-0.021 0.009 0 0.020 0 0.031 0 0.112-0.005 0.221-0.003 0.329 0 0.45 0.002 0.783 0.006 0.783 0.006l1.906-0.023 0.375 0.006c0.052-0.175 0.115-0.343 0.195-0.499z"></path>
<path d="M19.52 25.37c0.135-0.173 0.282-0.323 0.437-0.453-0.613-0.008-1.008-0.012-1.008-0.012l-7.507 0.020c0.224 0.141 0.434 0.322 0.617 0.559 0.213 0.276 0.357 0.585 0.446 0.904l1.126 0.008 2.97-0.156 2.448 0.003c0.116-0.32 0.274-0.619 0.472-0.872z"></path>
<path d="M30.116 25.154c-0.489-0.028-0.904-0.089-1.415-0.104-1.14-0.035-2.024 0.040-3.071-0.003-0.653-0.028-1.495-0.051-2.362-0.070 0.447 0.326 0.827 0.761 1.080 1.264 1.503-0.046 2.489-0.078 2.489-0.078l1.005 0.119 2.304-0.008c0.021-0.377-0.014-0.833-0.029-1.12z"></path>
<path d="M14.709 22.63l-2.339-0.066-5.894 0.106c-0.063-0.006-1.353-0.138-2.21-0.296-0.090 0.005-0.179 0.015-0.268 0.028 0.037 0.473 0.072 0.945 0.103 1.423v0.025l-0.008 0.262c0.005 0.017 0.015 0.063 0.029 0.126l0.005 0.021 0.002 0.021c0.005 0.070 0.008 0.136 0.011 0.202l0.683-0.009 3.303-0.009c0.003-0.002 0.006-0.005 0.011-0.006 0.308-0.135 0.504-0.182 0.809-0.195 0.113-0.005 0.227-0.008 0.342-0.008 0.414 0 0.925 0.032 1.418 0.202l3.917-0.011c0-0.014-0.002-0.031-0.002-0.041-0.002-0.461 0.041-1.154 0.090-1.775z"></path>
<path d="M27.852 22.896c-0.11 0.018-0.187 0.034-0.188 0.034l-0.046 0.011-0.452-0.073c-1.446-0.058-2.892-0.080-4.341-0.096-0.116 0.003-0.188 0.006-0.191 0.006h-0.029l-0.13-0.011c-1.754-0.021-3.508-0.052-5.262-0.158l-0.225 0.014 0.106 1.068 0.005 0.037-0.008 0.038c-0.034 0.178-0.080 0.461-0.098 0.676l2.148-0.006c0.015 0 0.571 0.006 1.382 0.018 0.351-0.199 0.74-0.305 1.155-0.305 0.458 0 0.916 0.127 1.339 0.348 1.022 0.021 2.050 0.047 2.812 0.080 0.224 0.009 0.459 0.014 0.718 0.014 0.273 0 0.541-0.005 0.812-0.009 0.283-0.006 0.571-0.011 0.873-0.011 0.047 0 0.092 0 0.139 0.002l0.040-0.613v-0.608l0.002-0.011c0.012-0.138 0.025-0.274 0.037-0.406-0.199-0.011-0.397-0.026-0.596-0.037z"></path>
<path d="M18.854 27.973c-0.047-0.391-0.011-0.809 0.093-1.21l-0.234 0.005-1.016-0.063-1.201-0.043-0.93 0.144-2.334-0.041c-0.288 0.023-0.519 0.043-0.671 0.055 0.073 0.383 0.073 0.771 0.029 1.129 0.046 0.002 0.092 0.003 0.139 0.009 0.695 0.104 2.085 0.17 2.085 0.17l4.070 0.025c-0.011-0.060-0.023-0.118-0.031-0.179z"></path>
</svg>
