<!-- Generated by IcoMoon.io -->
<svg version="1.1" xmlns="http://www.w3.org/2000/svg" width="28" height="32" viewBox="0 0 28 32">
<title>outsiders</title>
<path d="M13.971 25.87l-0.77-0.034-0.052-0.001-0.041-0.010-0.818-0.183-0.054-0.026-0.694-0.35 0.079 0.031-0.777-0.24c-0.689-0.364-1.372-0.726-2.065-1.074l-0.064-0.031-0.047-0.044-0.556-0.515-0.628-0.523-0.032-0.044-0.453-0.622 0.037 0.046-0.528-0.558-0.047-0.049-0.027-0.054-0.356-0.68 0.026 0.044-0.431-0.635-0.026-0.037-0.015-0.035-0.315-0.723-0.004-0.014-0.247-0.725-0.007-0.021-0.003-0.015c-0.095-0.419-0.269-1.051-0.4-1.459l-0.019-0.060v-0.055c-0.019-0.759-0.019-1.568 0.061-2.331v0.057l-0.050-0.78-0.006-0.095 0.035-0.080 0.303-0.716-0.024 0.079 0.141-0.761 0.011-0.067 0.032-0.054 0.381-0.654 0.336-0.679c0.006-0.035 0.45-0.669 0.465-0.704l0.014-0.016 0.538-0.61 0.030-0.021 0.629-0.451-0.027 0.024 0.589-0.526 0.014-0.010 0.673-0.468 0.039-0.012 0.731-0.254-0.032 0.014 0.694-0.333 0.051-0.024 0.050-0.005 0.769-0.081-0.070 0.016 0.787-0.282 0.052 0.001 0.792 0.021 0.014 0.003 0.759 0.112c-0.167-0.009 0.781 0.016 0.747 0.015l0.056 0.001 0.046 0.020 0.711 0.304 0.747 0.272 0.014 0.007 0.724 0.387 0.021 0.019 0.584 0.527 0.015 0.015 0.528 0.568 0.572 0.557 0.011 0.015 0.924 1.298 0.009 0.020 0.306 0.724 0.005 0.012c0.123 0.395 0.345 1.15 0.436 1.553l0.059 0.776 0.001 0.015v0.012c-0.040 0.404-0.075 1.174-0.088 1.578l-0.019 0.034-0.369 0.669-0.324 0.69-0.006 0.012-0.392 0.675-0.016 0.029-0.025 0.017-0.618 0.46-0.598 0.513-0.012 0.007-0.675 0.344-0.676 0.431-0.017 0.004c-0.006 0.001-0.754 0.198-0.759 0.199-0.002 0.003-0.767 0.136-0.771 0.137l-0.012 0.003h-0.010l-0.779-0.027 0.005-0.204 0.779 0.014-0.022 0.001 0.755-0.148 0.75-0.212-0.035 0.016c0.004-0.004 0.652-0.431 0.655-0.435 0.006-0.003 0.679-0.363 0.685-0.366l-0.026 0.019 0.583-0.519 0.617-0.477-0.040 0.046 0.38-0.683-0.006 0.012 0.316-0.706 0.36-0.684-0.020 0.076c0.004-0.334 0.034-1.301 0.059-1.521l-0.073-0.775 0.006 0.035c-0.1-0.375-0.325-1.12-0.45-1.487l0.007 0.021-0.32-0.719 0.024 0.041-0.934-1.261 0.027 0.031-0.573-0.539-0.547-0.567 0.016 0.016-0.594-0.516 0.050 0.034-0.7-0.358c0.167 0.064-0.746-0.255-0.713-0.242l-0.731-0.296 0.102 0.020-0.799-0.002-0.020-0.002-0.76-0.098 0.035 0.003-0.772-0.006 0.107-0.019-0.76 0.288-0.039 0.005-0.767 0.095 0.101-0.030-0.701 0.351-0.019 0.007-0.726 0.267 0.079-0.040-0.625 0.452 0.031-0.025-0.576 0.531-0.016 0.012-0.622 0.462 0.057-0.052-0.5 0.588 0.029-0.039-0.415 0.65 0.022-0.039-0.335 0.706-0.382 0.683 0.044-0.121-0.126 0.765-0.006 0.037-0.016 0.041-0.29 0.723 0.029-0.176 0.064 0.779c-0.055 0.764-0.054 1.544-0.017 2.312 0 0-0.019-0.115-0.019-0.115l0.239 0.741 0.199 0.754c-0.069-0.202 0.309 0.85 0.235 0.652l0.319 0.698-0.040-0.072 0.444 0.628 0.011 0.017 0.015 0.026 0.369 0.674-0.074-0.102 0.539 0.548 0.017 0.019 0.020 0.026 0.466 0.613-0.079-0.082 0.608 0.488 0.583 0.519-0.111-0.075c0.693 0.33 1.38 0.679 2.063 1.023l-0.087-0.035 0.767 0.223 0.042 0.020 0.701 0.336-0.12-0.041 0.755 0.154-0.093-0.012 0.771 0.020z"></path>
<path d="M14.061 4.848l0.822 0.036 0.041 0.009 0.818 0.183 0.054 0.027 0.694 0.349-0.078-0.031 0.777 0.24c0.689 0.364 1.372 0.726 2.065 1.074l0.064 0.032 0.047 0.044 0.556 0.513 0.581 0.485c0.034 0.026 0.056 0.046 0.078 0.082l0.455 0.622-0.039-0.045 0.577 0.607 0.384 0.733-0.026-0.044 0.431 0.635 0.025 0.037 0.015 0.035 0.306 0.703 0.009 0.021 0.005 0.012 0.245 0.726 0.007 0.021 0.004 0.014c0.095 0.419 0.268 1.053 0.399 1.459 0.015 0.044 0.022 0.065 0.020 0.115 0.017 0.759 0.017 1.568-0.062 2.331v-0.057l0.050 0.78 0.006 0.093-0.034 0.081-0.303 0.716 0.022-0.078-0.141 0.761-0.011 0.067-0.031 0.054-0.382 0.654-0.336 0.679c-0.006 0.034-0.45 0.669-0.465 0.704l-0.014 0.015-0.511 0.579-0.027 0.032-0.030 0.020-0.629 0.451 0.029-0.022-0.59 0.524-0.014 0.010-0.633 0.441-0.039 0.026-0.040 0.014-0.73 0.254 0.032-0.014-0.745 0.356-0.050 0.005-0.769 0.081 0.069-0.016-0.733 0.262-0.054 0.020-0.052-0.003-0.792-0.020-0.014-0.003-0.759-0.112 0.035 0.003-0.837-0.019-0.046-0.020-0.713-0.304-0.746-0.273-0.014-0.007-0.724-0.386-0.020-0.019-0.6-0.542-0.528-0.568-0.554-0.542-0.016-0.015-0.011-0.016-0.924-1.297-0.009-0.020-0.306-0.724-0.005-0.012c-0.123-0.395-0.345-1.15-0.436-1.552l-0.059-0.776-0.001-0.015v-0.012c0.041-0.396 0.072-1.15 0.083-1.548l0.021-0.035 0.366-0.634 0.336-0.65 0.005-0.009 0.004-0.006 0.415-0.625 0.020-0.029 0.026-0.016 0.632-0.386 0.62-0.435 0.015-0.006 0.689-0.265-0.012 0.006 0.666-0.343 0.017-0.010 0.017-0.002 0.739-0.128 0.754-0.091h0.009l0.745 0.045-0.010 0.203-0.745-0.030h0.019l-0.736 0.101-0.729 0.142 0.035-0.012-0.673 0.361-0.685 0.278 0.030-0.016-0.605 0.441-0.632 0.402 0.046-0.045-0.404 0.632 0.009-0.015-0.328 0.664-0.359 0.648 0.022-0.080c0 0.328-0.031 1.277-0.055 1.491l0.073 0.775-0.006-0.035c0.1 0.375 0.325 1.121 0.45 1.489-0.044-0.106 0.324 0.723 0.313 0.696l-0.024-0.040 0.934 1.261-0.026-0.031 0.573 0.539 0.547 0.567-0.016-0.015 0.594 0.516-0.050-0.035 0.701 0.359c-0.167-0.064 0.746 0.254 0.713 0.242l0.73 0.297-0.101-0.021 0.799 0.004 0.020 0.003 0.76 0.098-0.035-0.003 0.772 0.006-0.106 0.017 0.759-0.287 0.039-0.005 0.767-0.096-0.1 0.030 0.701-0.351 0.019-0.007 0.725-0.267-0.077 0.040 0.625-0.452-0.031 0.025 0.564-0.521 0.010-0.010 0.017-0.014 0.62-0.461-0.057 0.052 0.501-0.588-0.029 0.037 0.415-0.65-0.022 0.040 0.335-0.706 0.381-0.684-0.042 0.121 0.126-0.765 0.006-0.037 0.016-0.041 0.289-0.721-0.027 0.174-0.064-0.779c0.054-0.764 0.054-1.545 0.017-2.312l0.019 0.115-0.239-0.742-0.201-0.752c0.069 0.202-0.308-0.851-0.235-0.652l-0.319-0.698 0.041 0.071-0.456-0.644-0.015-0.026-0.369-0.674 0.075 0.101-0.558-0.566-0.020-0.027-0.466-0.612 0.080 0.082-0.609-0.488-0.583-0.519 0.111 0.075c-0.693-0.33-1.38-0.679-2.062-1.023l0.086 0.035-0.767-0.223-0.042-0.020-0.701-0.336 0.12 0.041-0.755-0.154 0.093 0.012-0.771-0.020z"></path>
<path d="M13.658 10.816c0 0.584-0.017 1.166-0.039 1.749 0.105-0.005 0.209-0.011 0.315-0.011 0.133 0 0.264 0.006 0.394 0.012 0.009-0.34 0.014-0.681 0.014-1.023 0-1.124 0.031-2.251-0.034-3.369-0.025-0.45-0.045-0.904-0.096-1.352-0.065-0.556-0.007-1.126-0.036-1.688-0.027-0.527-0.026-1.054-0.035-1.583-0.006-0.453-0.102-0.907-0.146-1.359-0.037-0.396-0.034-0.816-0.101-1.196-0.007 0.042-0.015 0.085-0.021 0.128-0.039 0.263-0.044 0.544-0.049 0.815-0.010 0.507-0.097 1.014-0.13 1.527-0.044 0.698-0.027 1.398-0.071 2.097-0.019 0.305-0.005 0.613-0.025 0.917-0.041 0.634 0.035 1.284 0.042 1.946 0.009 0.796 0.016 1.593 0.016 2.389z"></path>
<path d="M13.934 18.163c-0.159 0-0.318-0.005-0.473-0.016-0.026 2.097-0.022 4.201 0.026 6.286 0.026 1.112 0.082 2.234 0.166 3.339 0.073 0.972 0.080 1.943 0.176 2.909 0.024 0.238 0.064 0.492 0.13 0.173 0.035-0.166 0.019-0.39 0.030-0.563 0.025-0.384 0.057-0.765 0.103-1.151 0.077-0.642 0.035-1.348 0.004-1.994-0.027-0.576-0.037-1.142-0.037-1.722 0-1.282-0.009-2.548 0.030-3.833 0.014-0.478 0.027-0.954 0.054-1.433 0.037-0.666 0.027-1.334 0.014-2.001-0.073 0.001-0.146 0.006-0.22 0.006z"></path>
<path d="M15.438 16.66c0 0-0.817 0.219-1.222 0.223-0.512 0.005-1.031 0.015-1.54-0.016-0.412-0.025-1.099-0.422-1.099-0.422l-0.815-0.678c0 0-0.343-0.137-0.382-0.247-0.067-0.183 0.032-0.139 0.135-0.237 0.212-0.201 0.501-0.392 0.746-0.544 0.351-0.218 0.726-0.42 1.095-0.584 0.376-0.169 0.752-0.349 1.144-0.447 0.238-0.061 0.405-0.055 0.583-0.025 0.116 0.020 0.238 0.051 0.387 0.081 0.258 0.052 0.528 0.042 0.784 0.132 0.301 0.105 0.648 0.318 0.924 0.511 0.264 0.186 0.766 0.574 0.766 0.574l0.688 0.668zM18.132 15.523c0 0-0.288-0.437-0.385-0.584-0.147-0.223-0.488-0.629-0.488-0.629l-1.377-0.766c0 0-0.366-0.121-0.576-0.186-0.164-0.052-0.384-0.052-0.542-0.108-0.253-0.091-0.62-0.142-0.898-0.086-0.28 0.056-0.587 0.082-0.863 0.138-0.321 0.066-0.599 0.199-0.916 0.31-0.695 0.244-1.409 0.657-1.999 1.14-0.217 0.178-0.421 0.811-0.421 0.811s0.589 0.582 0.818 0.777c0.642 0.547 1.511 0.964 2.29 1.157 0.282 0.070 0.797 0.082 0.797 0.082s2.543-0.212 3.675-1.075c0.26-0.198 0.884-0.982 0.884-0.982z"></path>
<path d="M13.38 13.546c-0.385 0.039-0.679 1.411-0.663 1.788 0.026 0.588 0.533 1.218 1.303 0.962 0.589-0.197 1.116-0.567 1.154-1.106 0.030-0.44-0.088-1.034-0.429-1.375-0.253-0.255-1.242-0.569-1.365-0.268z"></path>
</svg>
