<!-- Generated by IcoMoon.io -->
<svg version="1.1" xmlns="http://www.w3.org/2000/svg" width="32" height="32" viewBox="0 0 32 32">
<title>paintbrush</title>
<path d="M26.446 3c1.32 0 2.539 0.987 2.539 2.365 0 0.769-0.305 1.509-0.653 2.191-1.132 2.147-4.933 9.242-6.747 10.911-0.885 0.827-1.93 1.32-3.163 1.32-2.452 0-4.454-2.089-4.454-4.527 0-1.161 0.479-2.292 1.335-3.076l9.257-8.401c0.508-0.464 1.175-0.783 1.886-0.783zM13.258 18.002c0.754 1.465 2.133 2.568 3.729 2.989l0.014 1.030c0.087 4.135-2.786 6.979-6.935 6.979-4.919 0-7.051-3.917-7.051-8.372 0.537 0.363 2.408 1.857 3.018 1.857 0.363 0 0.667-0.203 0.798-0.537 1.233-3.221 3.163-3.801 6.427-3.946z"></path>
</svg>
