<!-- Generated by IcoMoon.io -->
<svg version="1.1" xmlns="http://www.w3.org/2000/svg" width="32" height="32" viewBox="0 0 32 32">
<title>pendant</title>
<path d="M23.189 8.014c-0.634-0.19-1.339-0.198-2.077 0.095-1.523 0.605-2.339 1.68-2.481 2.9s0.265 2.515 0.811 3.88c0.706 1.765 1.693 2.876 2.834 3.353s2.381 0.263 3.389-0.409c1.12-0.747 1.711-1.775 1.806-2.861s-0.251-2.192-0.795-3.281c-0.343-0.686-0.939-1.809-1.841-2.68-0.451-0.435-1.013-0.807-1.647-0.997zM22.891 9.141c0.396 0.126 0.756 0.388 1.113 0.733 0.714 0.689 1.276 1.706 1.6 2.353 0.487 0.975 0.74 1.888 0.673 2.641s-0.397 1.381-1.277 1.967c-0.746 0.497-1.506 0.615-2.259 0.3s-1.555-1.122-2.183-2.691c-0.521-1.302-0.832-2.458-0.734-3.295s0.484-1.428 1.731-1.923c0.505-0.201 0.94-0.211 1.336-0.084zM22.78 10.019c-0.282-0.028-0.582 0.008-0.873 0.119-0.596 0.227-1.034 0.714-1.166 1.292s0.059 1.225 0.53 1.708c0.568 0.584 1.338 0.542 1.87 0.502s0.864-0.031 0.972 0.053c0.314 0.244 0.45 0.569 0.442 0.825s-0.103 0.466-0.48 0.634c-0.416 0.186-0.644 0.141-0.83 0.014s-0.374-0.417-0.43-0.914l-1.192 0.134c0.084 0.743 0.392 1.393 0.944 1.77s1.304 0.402 1.998 0.091c0.734-0.329 1.168-1.011 1.188-1.695s-0.319-1.351-0.905-1.806c-0.612-0.476-1.304-0.339-1.798-0.302s-0.754 0.027-0.92-0.144c-0.23-0.236-0.257-0.435-0.219-0.605s0.16-0.335 0.423-0.436c0.277-0.106 0.409-0.066 0.552 0.028s0.285 0.293 0.355 0.548l1.158-0.316c-0.133-0.489-0.41-0.943-0.852-1.234-0.221-0.146-0.485-0.239-0.767-0.267z"></path>
<path d="M18.395 3.133l-0.033 1.2c0.365 0.010 0.716 0.053 1.039 0.144l0.325-1.156c-0.447-0.126-0.897-0.175-1.331-0.188zM17.113 3.198c-0.424 0.049-0.838 0.127-1.242 0.216l0.13 0.586-0.131-0.586c-0.262 0.059-0.526 0.124-0.789 0.197l0.322 1.156c0.239-0.066 0.482-0.126 0.728-0.181 0-0 0.001 0 0.002 0 0.376-0.083 0.75-0.152 1.12-0.195l-0.139-1.192zM13.902 3.973c-0.393 0.133-0.779 0.277-1.158 0.431l0.452 1.112c0.362-0.147 0.726-0.285 1.091-0.408l-0.384-1.136zM21.017 3.994l-0.792 0.902c0.197 0.173 0.332 0.418 0.361 0.653l1.192-0.144c-0.068-0.563-0.357-1.057-0.761-1.411zM11.617 4.902c-0.374 0.176-0.742 0.363-1.103 0.561l0.577 1.053c0.341-0.186 0.686-0.364 1.036-0.528l-0.509-1.086zM9.447 6.086c-0.348 0.218-0.692 0.446-1.030 0.692l0.706 0.969c0.309-0.225 0.631-0.438 0.961-0.645l-0.637-1.016zM20.409 6.298c-0.137 0.216-0.364 0.391-0.609 0.47l0.367 1.142c0.517-0.166 0.962-0.507 1.255-0.967l-1.012-0.645zM18.62 7.252c-0.381 0.179-0.753 0.378-1.113 0.592l0.614 1.031c0.328-0.195 0.663-0.375 1.006-0.536l-0.508-1.088zM7.438 7.536c-0.32 0.266-0.629 0.544-0.927 0.836l0.841 0.856c0.273-0.268 0.558-0.525 0.853-0.77l-0.767-0.922zM16.458 8.545c-0.34 0.255-0.666 0.531-0.972 0.836l0.847 0.85c0.261-0.26 0.545-0.502 0.845-0.727l-0.72-0.959zM5.656 9.291c-0.272 0.32-0.528 0.656-0.766 1.006l0.994 0.672c0.211-0.312 0.44-0.612 0.686-0.902l-0.914-0.777zM14.644 10.387c-0.251 0.368-0.465 0.77-0.617 1.205l1.133 0.395c0.112-0.321 0.275-0.631 0.475-0.923l-0.991-0.677zM4.239 11.387c-0.196 0.379-0.366 0.77-0.509 1.173l1.13 0.403c0.125-0.351 0.275-0.693 0.447-1.025l-1.067-0.552zM13.777 12.95c-0.011 0.466 0.053 0.926 0.178 1.364l1.155-0.328c-0.094-0.331-0.141-0.672-0.133-1.006l-1.2-0.030zM3.388 13.8c-0.085 0.422-0.138 0.851-0.158 1.281l1.198 0.055c0.017-0.369 0.063-0.737 0.136-1.1l-1.177-0.236zM15.519 14.967l-1.052 0.577c0.211 0.384 0.454 0.744 0.717 1.080l0.945-0.741c-0.23-0.294-0.437-0.598-0.611-0.916zM4.455 16.25l-1.195 0.113c0.040 0.427 0.112 0.85 0.208 1.264l1.169-0.272c-0.085-0.365-0.147-0.735-0.181-1.105zM16.892 16.795l-0.931 0.756c0.243 0.3 0.475 0.607 0.694 0.922l0.988-0.683c-0.237-0.342-0.489-0.674-0.75-0.995zM4.956 18.439l-1.131 0.402c0.142 0.399 0.306 0.788 0.486 1.166l1.083-0.517c-0.164-0.344-0.311-0.695-0.438-1.050zM18.309 18.847l-1.039 0.598c0.19 0.331 0.362 0.668 0.516 1.012l1.097-0.488c-0.172-0.386-0.365-0.761-0.573-1.123zM5.936 20.509l-1.042 0.595c0.203 0.354 0.412 0.704 0.628 1.050l1.017-0.636c-0.208-0.333-0.408-0.669-0.603-1.009zM19.334 21.153l-1.144 0.364c0.113 0.357 0.203 0.719 0.266 1.084l1.183-0.203c-0.073-0.423-0.176-0.84-0.305-1.245zM7.181 22.509l-0.995 0.669c0.228 0.34 0.464 0.676 0.711 1.005l0.961-0.72c-0.233-0.311-0.459-0.629-0.677-0.953zM19.764 23.68l-1.198 0.027c0.008 0.366-0.017 0.731-0.073 1.089l1.186 0.188c0.068-0.432 0.095-0.869 0.086-1.303zM8.581 24.384l-0.927 0.762c0.263 0.32 0.539 0.631 0.823 0.931l0.87-0.827c-0.266-0.28-0.522-0.57-0.767-0.867zM18.22 25.836c-0.125 0.332-0.287 0.645-0.484 0.925l0.98 0.692c0.264-0.373 0.47-0.779 0.627-1.195l-1.122-0.422zM10.175 26.059l-0.808 0.887c0.311 0.283 0.637 0.551 0.977 0.8l0.711-0.967c-0.305-0.224-0.599-0.465-0.88-0.72zM12 27.391l-0.588 1.045c0.376 0.211 0.771 0.394 1.18 0.542l0.408-1.128c-0.343-0.124-0.679-0.279-1-0.459zM17.047 27.469c-0.279 0.195-0.592 0.351-0.922 0.467l0.397 1.131c0.424-0.149 0.834-0.351 1.211-0.614l-0.686-0.984zM14.047 28.117l-0.181 1.188c0.44 0.067 0.892 0.083 1.341 0.044l-0.106-1.195c-0.348 0.031-0.703 0.017-1.053-0.036z"></path>
</svg>
