<!-- Generated by IcoMoon.io -->
<svg version="1.1" xmlns="http://www.w3.org/2000/svg" width="28" height="32" viewBox="0 0 28 32">
<title>perth</title>
<path d="M4.61 30.524v-0.476l0.058-0.068 5.921 0.002c5.566 0.002 5.923 0.003 5.953 0.022 0.073 0.048 0.079 0.073 0.092 0.387 0.007 0.159 0.014 0.361 0.016 0.449l0.004 0.16h-12.044zM16.863 28.546c0-1.685 0.004-2.468 0.013-2.5s0.025-0.054 0.051-0.070c0.037-0.023 0.061-0.024 0.615-0.020l0.576 0.003 0.055 0.055 0.012 1.305 0.029 0.023c0.027 0.022 0.054 0.023 0.495 0.023s0.469-0.001 0.505-0.024c0.085-0.052 0.081-0.022 0.089-0.712 0.004-0.342 0.008-0.624 0.009-0.625s0.020-0.014 0.042-0.027c0.039-0.024 0.067-0.024 2.065-0.024 2.253 0 2.084-0.007 2.109 0.081 0.009 0.031 0.014 0.797 0.016 2.505l0.003 2.46h-6.682l0-2.454zM7.077 29.786c-0.021-0.010-0.044-0.032-0.051-0.049-0.010-0.022-0.014-0.353-0.015-1.179-0.001-1.015 0.005-1.368 0.031-1.982 0.094-2.174 0.179-3.65 0.266-4.624 0.065-0.728 0.108-1.061 0.27-2.095 0.053-0.342 0.171-1.1 0.26-1.684 0.231-1.505 0.255-1.651 0.279-1.697 0.029-0.057 0.104-0.132 0.621-0.632 0.635-0.613 0.873-0.837 1.793-1.696 0.445-0.415 0.853-0.798 0.907-0.852 0.113-0.112 0.153-0.176 0.181-0.284 0.033-0.13 0.009-0.231-0.094-0.385-0.070-0.104-0.079-0.141-0.049-0.185 0.020-0.029 0.706-0.751 0.857-0.901 0.069-0.069 0.098-0.077 0.151-0.042 0.018 0.012 0.246 0.244 0.508 0.516 0.648 0.675 0.593 0.612 0.593 0.677 0 0.064 0.055 0.004-0.725 0.79-0.539 0.543-0.535 0.537-0.544 0.701-0.012 0.197 0.050 0.306 0.266 0.478 0.081 0.064 0.452 0.36 0.824 0.656 0.931 0.741 1.068 0.849 1.606 1.261 0.259 0.198 0.723 0.563 1.032 0.809s0.657 0.521 0.775 0.608c0.313 0.234 0.347 0.294 0.378 0.677 0.010 0.116 0.031 0.314 0.048 0.441 0.118 0.887 0.361 2.965 0.381 3.252 0.008 0.115 0.011 0.231 0.008 0.258-0.009 0.066-0.075 0.158-0.172 0.238-0.044 0.037-0.151 0.151-0.238 0.254-0.275 0.325-1.109 1.27-1.812 2.052-0.215 0.239-0.254 0.293-0.281 0.385-0.034 0.115 0.008 0.245 0.106 0.333 0.101 0.091 0.136 0.097 0.505 0.096 0.176-0.001 0.422-0.008 0.546-0.015 0.248-0.015 0.293-0.009 0.324 0.048 0.021 0.040 0.022 3.686 0.001 3.726-0.008 0.015-0.030 0.035-0.050 0.045-0.031 0.016-0.567 0.018-4.741 0.018-4.21-0-4.71-0.002-4.743-0.019zM10.795 22.195c0.064-0.042 0.066-0.057 0.057-0.421l-0.008-0.335-0.033-0.033c-0.032-0.032-0.037-0.033-0.155-0.031-0.137 0.002-0.182 0.019-0.218 0.081-0.018 0.031-0.021 0.081-0.025 0.352-0.004 0.305-0.003 0.317 0.021 0.35 0.016 0.021 0.045 0.040 0.078 0.049 0.075 0.021 0.241 0.013 0.281-0.013zM10.244 22.182l0.034-0.029 0.004-0.372c0.003-0.341 0.002-0.373-0.017-0.387-0.014-0.010-0.066-0.015-0.156-0.015-0.12 0-0.139 0.003-0.175 0.027-0.082 0.055-0.086 0.073-0.086 0.386 0 0.154 0.005 0.295 0.012 0.312s0.032 0.048 0.056 0.069c0.043 0.038 0.045 0.038 0.169 0.038 0.115 0 0.128-0.002 0.16-0.029zM10.783 21.174c0.066-0.041 0.069-0.059 0.069-0.386 0-0.324-0-0.325-0.074-0.378-0.033-0.024-0.163-0.029-0.624-0.025-0.243 0.002-0.258 0.004-0.282 0.027s-0.025 0.034-0.021 0.329c0.006 0.443 0.005 0.443 0.366 0.456 0.12 0.004 0.287 0.006 0.371 0.004 0.13-0.003 0.16-0.008 0.194-0.029zM15.421 25.69c-0.020-0.004-0.035-0.013-0.033-0.020 0.015-0.049 0.154-0.211 1.348-1.563 0.859-0.974 0.869-0.985 0.945-1.022l0.070-0.035h5.505l0.057 0.028c0.031 0.015 0.075 0.048 0.097 0.072s0.148 0.221 0.28 0.437c0.463 0.756 1.193 1.962 1.212 2 0.037 0.077 0.221 0.071-2.385 0.080-1.569 0.005-2.377 0.012-2.379 0.020-0.004 0.013-4.653 0.015-4.716 0.002zM20.304 20.332c-0.010-0.004-0.105-0.076-0.211-0.159s-0.267-0.208-0.356-0.278c-0.090-0.070-0.236-0.185-0.326-0.255s-0.416-0.327-0.724-0.569c-0.309-0.242-0.985-0.774-1.503-1.181s-1.029-0.809-1.135-0.892c-0.106-0.083-0.256-0.201-0.332-0.261-0.143-0.114-0.991-0.779-2.022-1.587-0.325-0.255-0.689-0.54-0.808-0.633-0.206-0.161-0.252-0.208-0.268-0.27-0.011-0.044 0.006-0.106 0.041-0.15 0.018-0.023 0.258-0.258 0.534-0.524 0.917-0.884 0.9-0.867 0.887-0.894-0.022-0.044-1.632-1.634-1.655-1.635s-0.215 0.192-1.020 1.017c-0.457 0.469-0.437 0.419-0.249 0.604 0.068 0.067 0.133 0.136 0.145 0.153 0.030 0.045 0.027 0.129-0.007 0.185-0.015 0.025-0.123 0.134-0.24 0.241-0.227 0.21-0.601 0.559-0.934 0.872-0.113 0.106-0.287 0.269-0.386 0.362s-0.235 0.22-0.302 0.284c-0.108 0.103-0.353 0.332-1.032 0.966-0.117 0.11-0.416 0.389-0.664 0.622s-0.541 0.506-0.651 0.609c-0.11 0.102-0.293 0.274-0.406 0.38s-0.322 0.303-0.463 0.436c-0.378 0.353-0.864 0.809-1.179 1.104-0.152 0.142-0.363 0.341-0.47 0.442-0.253 0.24-0.316 0.293-0.368 0.307-0.108 0.030-0.14 0.008-0.418-0.293-0.132-0.142-0.413-0.445-0.625-0.673s-0.392-0.432-0.401-0.454c-0.027-0.065-0.022-0.164 0.011-0.212 0.027-0.039 0.389-0.483 1.322-1.622 0.229-0.279 0.452-0.551 0.496-0.604s0.183-0.222 0.308-0.374c0.125-0.153 0.264-0.321 0.308-0.374s0.183-0.222 0.308-0.374c0.125-0.153 0.264-0.321 0.308-0.374s0.259-0.314 0.477-0.579c0.218-0.266 0.535-0.651 0.705-0.857s0.408-0.496 0.531-0.646c0.123-0.149 0.259-0.315 0.303-0.368s0.168-0.204 0.275-0.335c0.31-0.379 0.578-0.705 0.689-0.839 0.115-0.139 0.158-0.172 0.228-0.172 0.068 0 0.104 0.028 0.303 0.241 0.191 0.204 0.657 0.697 0.961 1.017 0.179 0.188 0.196 0.203 0.236 0.203s0.078-0.035 0.716-0.674c0.537-0.537 0.673-0.68 0.673-0.704s-0.127-0.155-0.648-0.664c-0.684-0.668-0.785-0.759-0.839-0.759-0.038-0-0.126 0.072-0.224 0.186-0.109 0.125-0.184 0.153-0.277 0.105-0.026-0.013-1.489-1.468-3.451-3.432-3.021-3.022-3.408-3.414-3.421-3.46-0.030-0.105-0.046-0.086 0.654-0.784 0.352-0.351 0.66-0.664 0.684-0.695l0.044-0.057h0.189l0.274 0.22c0.325 0.261 0.284 0.229 0.992 0.776 0.309 0.238 0.654 0.504 0.767 0.591s0.374 0.288 0.579 0.447c0.206 0.159 0.407 0.313 0.447 0.344s0.168 0.129 0.284 0.218c0.116 0.089 0.247 0.19 0.29 0.223s0.342 0.264 0.664 0.512c0.322 0.248 0.949 0.731 1.394 1.074s1.077 0.829 1.406 1.081c0.617 0.473 0.653 0.505 0.652 0.586-0 0.017-0.009 0.050-0.021 0.075-0.013 0.028-0.276 0.301-0.712 0.739-0.599 0.601-0.691 0.698-0.691 0.729s0.054 0.088 0.401 0.426c0.221 0.215 0.543 0.531 0.716 0.702 0.202 0.2 0.324 0.311 0.339 0.311 0.023 0 0.113-0.088 0.614-0.604 0.1-0.103 0.33-0.339 0.51-0.524 0.19-0.195 0.328-0.346 0.328-0.359s-0.054-0.079-0.12-0.149c-0.174-0.183-0.199-0.249-0.144-0.368 0.020-0.043 0.775-0.805 3.401-3.432 1.857-1.857 3.393-3.385 3.414-3.395 0.053-0.025 0.135-0.023 0.181 0.005 0.021 0.013 0.334 0.319 0.695 0.68 0.701 0.7 0.695 0.693 0.682 0.797-0.009 0.065-0.034 0.102-0.335 0.489-0.472 0.607-1.746 2.261-2.691 3.492-0.033 0.043-0.127 0.165-0.209 0.272s-0.41 0.533-0.729 0.948c-0.319 0.415-0.785 1.021-1.037 1.346s-0.555 0.719-0.675 0.875c-0.267 0.348-0.288 0.371-0.344 0.386-0.102 0.027-0.081 0.045-0.841-0.713-0.648-0.647-0.703-0.699-0.741-0.699s-0.091 0.051-0.733 0.696c-0.669 0.672-0.693 0.698-0.693 0.741s0.020 0.065 0.655 0.69c0.989 0.973 0.94 0.927 0.991 0.927 0.038 0 0.058-0.014 0.155-0.103 0.062-0.056 0.139-0.116 0.172-0.133 0.127-0.064 0.182-0.038 0.422 0.202 0.196 0.195 1.028 1.044 1.878 1.917 0.281 0.289 0.659 0.675 0.839 0.857s0.647 0.661 1.039 1.062c0.391 0.402 0.866 0.888 1.056 1.080 0.968 0.982 1.699 1.738 1.724 1.784 0.033 0.060 0.029 0.114-0.012 0.172-0.023 0.031-1.035 1.019-1.299 1.267-0.076 0.072-0.077 0.072-0.157 0.075-0.044 0.002-0.089-0-0.099-0.005zM20.426 20.017c0.017-0.012 0.271-0.258 0.564-0.548l0.533-0.526v-0.051c0-0.048-0.007-0.058-0.135-0.192-0.311-0.324-0.632-0.642-0.648-0.642-0.033 0-0.12 0.061-0.145 0.101-0.051 0.082-0.024 0.176 0.077 0.273 0.108 0.104 0.129 0.19 0.067 0.275s-0.126 0.111-0.215 0.087c-0.036-0.010-0.078-0.040-0.147-0.104-0.053-0.050-0.103-0.090-0.112-0.090s-0.027-0.003-0.042-0.007c-0.032-0.009-0.086 0.040-0.472 0.422-0.22 0.218-0.269 0.272-0.269 0.299 0 0.035 0.003 0.037 0.551 0.473 0.356 0.282 0.332 0.269 0.392 0.229zM4.251 19.232c0.075-0.068 0.529-0.493 0.656-0.613 0.103-0.098 0.108-0.114 0.052-0.201-0.081-0.127-0.183-0.123-0.321 0.010-0.094 0.091-0.111 0.101-0.166 0.101-0.126 0-0.252-0.179-0.197-0.282 0.008-0.015 0.065-0.077 0.127-0.139s0.113-0.118 0.113-0.124c0-0.012-0.019-0.033-0.307-0.342-0.287-0.307-0.409-0.429-0.431-0.429-0.030 0-0.686 0.788-0.711 0.854-0.006 0.016-0.007 0.043-0.003 0.061 0.010 0.040 0.365 0.43 0.994 1.091 0.085 0.090 0.11 0.091 0.196 0.013zM19.342 19.029c0.061-0.057 0.139-0.12 0.174-0.14s0.063-0.041 0.063-0.047c0-0.014-0.143-0.165-0.586-0.618-0.295-0.302-0.37-0.371-0.395-0.371-0.025 0-0.079 0.045-0.243 0.202-0.116 0.111-0.212 0.212-0.212 0.223s0.033 0.047 0.074 0.078c0.041 0.032 0.278 0.219 0.528 0.416s0.461 0.359 0.47 0.359c0.009 0 0.066-0.046 0.127-0.103zM19.886 18.49c0.1-0.093 0.118-0.116 0.111-0.138-0.011-0.034-0.893-0.88-0.948-0.909-0.038-0.020-0.060-0.009-0.141 0.075-0.103 0.106-0.104 0.113-0.020 0.205 0.156 0.171 0.854 0.879 0.866 0.879 0.007-0 0.067-0.050 0.133-0.112zM5.438 18.123c0.341-0.312 0.736-0.689 0.752-0.72 0.022-0.041 0.013-0.059-0.095-0.175l-0.082-0.089-0.126 0.119c-0.069 0.065-0.248 0.234-0.397 0.374s-0.311 0.296-0.359 0.345l-0.088 0.089 0.050 0.078c0.071 0.111 0.093 0.132 0.138 0.132 0.033 0 0.065-0.024 0.206-0.153zM17.981 18.036c0.026-0.019 0.131-0.12 0.234-0.223l0.187-0.188-0.072-0.076c-0.040-0.042-0.251-0.256-0.471-0.477-0.291-0.293-0.406-0.401-0.426-0.401-0.033 0-0.195 0.145-0.417 0.373-0.191 0.196-0.191 0.199-0.063 0.307 0.123 0.103 0.566 0.457 0.748 0.598 0.178 0.138 0.201 0.145 0.279 0.087zM20.436 17.955c0.054-0.050 0.098-0.1 0.098-0.11s-0.211-0.23-0.469-0.489l-0.469-0.471-0.042 0.014c-0.023 0.008-0.065 0.038-0.094 0.067-0.041 0.042-0.053 0.064-0.058 0.105l-0.006 0.052 0.184 0.193c0.438 0.46 0.715 0.73 0.749 0.73 0.005 0 0.053-0.041 0.107-0.092zM5.23 17.278l0.466-0.466-0.023-0.032c-0.013-0.017-0.058-0.069-0.1-0.115-0.066-0.072-0.080-0.082-0.105-0.074-0.016 0.005-0.094 0.072-0.175 0.15s-0.297 0.281-0.481 0.453c-0.184 0.172-0.335 0.319-0.335 0.327s0.048 0.061 0.107 0.119c0.086 0.085 0.114 0.105 0.143 0.105 0.032 0 0.096-0.060 0.502-0.466zM18.75 17.289l0.034-0.035-0.488-0.479c-0.269-0.263-0.495-0.479-0.502-0.479-0.022 0-0.145 0.122-0.145 0.144s0.846 0.895 0.916 0.947l0.041 0.030 0.056-0.047c0.031-0.026 0.071-0.063 0.089-0.082zM4.371 17.228c0.324-0.286 0.865-0.808 0.874-0.843 0.004-0.015 0-0.040-0.008-0.055-0.020-0.038-0.124-0.157-0.27-0.309-0.116-0.121-0.12-0.124-0.143-0.103-0.028 0.025-0.373 0.437-0.559 0.668-0.072 0.090-0.169 0.206-0.213 0.258s-0.081 0.106-0.081 0.12c0 0.016 0.053 0.079 0.139 0.167 0.162 0.165 0.177 0.171 0.262 0.097zM6.768 16.873c0.294-0.279 0.366-0.346 0.526-0.484 0.092-0.080 0.122-0.127 0.111-0.176-0.009-0.042-0.069-0.115-0.13-0.159-0.042-0.030-0.051-0.033-0.075-0.020-0.031 0.016-0.666 0.607-0.855 0.795-0.087 0.087-0.116 0.123-0.109 0.136 0.005 0.010 0.050 0.064 0.099 0.121 0.081 0.093 0.091 0.101 0.112 0.087 0.012-0.009 0.157-0.143 0.321-0.299zM16.62 17.007c0.033-0.011 0.038-0.019 0.038-0.055 0-0.038-0.022-0.065-0.244-0.297-0.134-0.14-0.337-0.35-0.451-0.466l-0.206-0.211-0.108 0.094c-0.114 0.099-0.135 0.126-0.118 0.156 0.006 0.010 0.051 0.050 0.101 0.088s0.226 0.176 0.392 0.307c0.166 0.13 0.348 0.273 0.404 0.317 0.106 0.083 0.127 0.091 0.191 0.068zM19.33 16.717c0.030-0.016 0.044-0.034 0.044-0.056 0-0.017-0.9-0.942-0.955-0.981l-0.033-0.023-0.049 0.069c-0.027 0.038-0.049 0.075-0.049 0.083 0 0.026 0.096 0.124 0.512 0.527 0.396 0.383 0.411 0.396 0.457 0.396 0.026 0 0.059-0.006 0.074-0.014zM16.98 16.693c0.022-0.014 0.081-0.071 0.131-0.127 0.068-0.076 0.091-0.11 0.091-0.136 0-0.029-0.071-0.107-0.463-0.504l-0.463-0.469-0.152 0.145c-0.084 0.080-0.153 0.155-0.153 0.166-0 0.024 0.808 0.858 0.887 0.914 0.058 0.042 0.070 0.043 0.122 0.011zM6.37 16.138c0.25-0.253 0.462-0.472 0.472-0.488 0.019-0.031 0.012-0.044-0.091-0.154-0.051-0.055-0.056-0.057-0.081-0.041-0.014 0.009-0.11 0.098-0.213 0.196s-0.316 0.298-0.474 0.444c-0.204 0.188-0.287 0.273-0.286 0.291 0 0.031 0.171 0.213 0.199 0.213 0.011 0 0.224-0.207 0.474-0.46zM17.518 16.17c0.046-0.043 0.067-0.071 0.063-0.083-0.004-0.010-0.23-0.237-0.502-0.503-0.372-0.365-0.499-0.482-0.51-0.472-0.008 0.007-0.030 0.040-0.048 0.074-0.032 0.060-0.033 0.062-0.012 0.094 0.018 0.027 0.29 0.312 0.802 0.839 0.063 0.065 0.12 0.118 0.127 0.118s0.043-0.029 0.082-0.065zM5.618 16.065c0.066-0.061 0.282-0.263 0.479-0.449 0.341-0.322 0.359-0.341 0.359-0.382 0-0.048-0.019-0.071-0.337-0.411-0.177-0.19-0.204-0.216-0.219-0.216-0.005 0-0.051 0.053-0.104 0.118s-0.181 0.223-0.286 0.352c-0.415 0.509-0.466 0.574-0.466 0.601 0 0.016 0.030 0.062 0.071 0.109 0.093 0.107 0.364 0.39 0.375 0.39 0.005 0 0.062-0.050 0.129-0.11zM7.696 15.991c0.058-0.033 0.878-0.808 0.911-0.863l0.025-0.040-0.043-0.051c-0.024-0.028-0.067-0.078-0.096-0.11l-0.053-0.059-0.053 0.047c-0.029 0.026-0.148 0.137-0.264 0.246s-0.319 0.299-0.45 0.421c-0.131 0.122-0.238 0.228-0.238 0.236 0 0.016 0.155 0.17 0.181 0.179 0.029 0.011 0.053 0.008 0.080-0.007zM15.324 15.972c0.071-0.044 0.199-0.176 0.199-0.205 0-0.021-0.121-0.151-0.46-0.495-0.253-0.257-0.467-0.469-0.476-0.471s-0.090 0.069-0.18 0.157c-0.158 0.154-0.164 0.163-0.164 0.209s0.004 0.051 0.16 0.177c0.253 0.205 0.697 0.553 0.768 0.604 0.073 0.052 0.1 0.056 0.152 0.024zM18.111 15.594c0.015-0.008 0.049-0.031 0.077-0.053l0.051-0.039-0.027-0.036c-0.015-0.020-0.198-0.212-0.408-0.427s-0.408-0.42-0.44-0.456c-0.097-0.106-0.122-0.108-0.185-0.021-0.075 0.104-0.090 0.082 0.375 0.545 0.391 0.389 0.507 0.5 0.523 0.5 0.004 0 0.019-0.006 0.033-0.014zM15.879 15.479c0.117-0.143 0.151-0.196 0.151-0.234 0-0.027-0.051-0.086-0.264-0.309-0.355-0.371-0.597-0.605-0.634-0.615-0.056-0.014-0.092 0.007-0.195 0.113-0.154 0.16-0.168 0.125 0.211 0.518 0.367 0.38 0.621 0.632 0.636 0.631 0.006-0 0.049-0.047 0.096-0.104zM7.589 14.916c0.26-0.261 0.474-0.48 0.474-0.486 0-0.017-0.131-0.102-0.157-0.102-0.011 0-0.043 0.018-0.070 0.039-0.054 0.043-0.67 0.618-0.841 0.785l-0.109 0.106 0.038 0.033c0.1 0.086 0.12 0.099 0.155 0.099 0.033 0 0.093-0.056 0.51-0.475zM16.35 15.004c0.030-0.041 0.042-0.068 0.037-0.084-0.006-0.020-0.563-0.571-0.852-0.843l-0.079-0.075-0.053 0.016c-0.049 0.015-0.053 0.019-0.052 0.054 0.002 0.033 0.046 0.085 0.328 0.373 0.354 0.363 0.61 0.618 0.621 0.618 0.004 0 0.027-0.027 0.051-0.060zM6.773 14.971c0.158-0.131 0.93-0.859 0.925-0.873-0.002-0.005-0.065-0.078-0.141-0.161-0.086-0.095-0.146-0.152-0.161-0.152s-0.126 0.099-0.279 0.245c-0.141 0.135-0.338 0.319-0.439 0.41-0.181 0.164-0.233 0.224-0.233 0.271 0 0.030 0.044 0.096 0.131 0.195 0.095 0.108 0.131 0.12 0.197 0.065zM14.204 14.757c0.088-0.086 0.16-0.166 0.16-0.177s-0.188-0.211-0.418-0.444c-0.38-0.386-0.421-0.424-0.457-0.424-0.035 0-0.066 0.026-0.266 0.222l-0.227 0.222 0.007 0.046c0.004 0.025 0.012 0.049 0.018 0.053s0.129 0.102 0.275 0.219c0.146 0.117 0.354 0.281 0.463 0.366l0.198 0.154 0.043-0.040c0.024-0.022 0.115-0.11 0.203-0.197zM13.82 14.555c-0.101-0.073-0.355-0.273-0.377-0.297-0.017-0.018-0.021-0.040-0.018-0.089l0.004-0.065 0.051-0.011c0.068-0.014 0.076-0.009 0.273 0.203 0.199 0.213 0.209 0.227 0.191 0.267-0.019 0.041-0.059 0.038-0.124-0.009zM8.928 14.833c0.203-0.172 0.921-0.851 0.921-0.87 0-0.014-0.105-0.13-0.156-0.173l-0.037-0.031-0.048 0.028c-0.042 0.025-0.966 0.876-0.966 0.889 0 0.011 0.162 0.178 0.18 0.186 0.037 0.016 0.061 0.009 0.106-0.029zM6.434 14.289c0.319-0.291 0.759-0.711 0.759-0.724 0-0.024-0.219-0.249-0.236-0.243-0.009 0.004-0.092 0.1-0.183 0.214-0.154 0.192-0.268 0.33-0.564 0.684-0.070 0.083-0.116 0.149-0.116 0.165 0 0.038 0.055 0.077 0.107 0.077 0.039 0 0.063-0.017 0.232-0.172zM16.988 14.37c0.044-0.037 0.081-0.070 0.081-0.074 0-0.012-0.722-0.749-0.841-0.858l-0.114-0.105-0.087 0.059c-0.061 0.042-0.088 0.068-0.091 0.088-0.003 0.024 0.067 0.101 0.423 0.457 0.407 0.408 0.503 0.498 0.535 0.498 0.008 0 0.050-0.030 0.095-0.067zM14.718 14.259c0.054-0.051 0.123-0.113 0.152-0.136l0.053-0.043-0.396-0.406c-0.395-0.406-0.463-0.468-0.509-0.468-0.034 0-0.104 0.054-0.194 0.148-0.102 0.107-0.102 0.126 0.006 0.242 0.106 0.114 0.597 0.626 0.67 0.7 0.081 0.081 0.098 0.078 0.218-0.036zM8.274 14.234c0.065-0.054 0.959-0.967 0.959-0.979 0-0.017-0.087-0.062-0.12-0.062-0.026 0-0.269 0.216-0.71 0.633-0.242 0.228-0.257 0.245-0.257 0.285 0 0.032 0.011 0.056 0.043 0.094 0.024 0.028 0.047 0.050 0.051 0.050s0.019-0.010 0.033-0.021zM7.994 13.836c0.132-0.12 0.636-0.592 0.785-0.736l0.143-0.137-0.096-0.105c-0.139-0.152-0.173-0.182-0.213-0.19-0.033-0.007-0.053 0.008-0.247 0.182-0.275 0.246-0.683 0.639-0.726 0.698-0.018 0.025-0.030 0.054-0.027 0.064s0.047 0.047 0.096 0.084c0.066 0.049 0.097 0.081 0.119 0.125 0.027 0.054 0.056 0.084 0.082 0.085 0.005 0 0.043-0.031 0.085-0.069zM15.159 13.765l0.004-0.050-0.426-0.412c-0.234-0.226-0.432-0.412-0.439-0.412s-0.026 0.013-0.041 0.030c-0.027 0.029-0.027 0.031-0.007 0.062 0.012 0.018 0.201 0.214 0.421 0.436 0.388 0.392 0.4 0.403 0.442 0.4s0.043-0.006 0.047-0.054zM10.365 13.494c0.317-0.3 0.388-0.366 0.487-0.449 0.081-0.068 0.115-0.124 0.103-0.171-0.005-0.018-0.039-0.066-0.077-0.105-0.055-0.058-0.074-0.071-0.101-0.068-0.052 0.006-0.904 0.802-0.904 0.845 0 0.023 0.179 0.23 0.194 0.225 0.006-0.002 0.14-0.126 0.298-0.276zM7.545 13.245c0.069-0.065 0.261-0.243 0.427-0.397 0.353-0.327 0.404-0.38 0.404-0.42 0-0.033-0.071-0.13-0.191-0.26-0.080-0.087-0.084-0.090-0.141-0.091l-0.059-0.001-0.18 0.211c-0.263 0.309-0.578 0.695-0.611 0.75-0.021 0.035-0.026 0.054-0.018 0.071 0.013 0.029 0.22 0.253 0.233 0.253 0.005 0 0.066-0.053 0.135-0.118zM15.798 13.203c0.041-0.045 0.075-0.090 0.075-0.101s-0.075-0.096-0.166-0.19c-0.543-0.561-0.692-0.708-0.715-0.708-0.015 0-0.043 0.025-0.074 0.066-0.027 0.036-0.068 0.078-0.091 0.091-0.034 0.021-0.039 0.029-0.029 0.048 0.019 0.036 0.897 0.882 0.911 0.878 0.007-0.002 0.047-0.040 0.088-0.085zM10.292 12.162c-0.011-0.017-0.031-0.031-0.044-0.031-0.026 0-0.155 0.116-0.619 0.554-0.173 0.163-0.286 0.279-0.286 0.292 0 0.012 0.017 0.042 0.038 0.066l0.038 0.044 0.893-0.893zM9.27 12.63c0.109-0.098 0.566-0.524 0.706-0.658l0.084-0.081-0.102-0.095c-0.056-0.052-0.131-0.121-0.165-0.153l-0.063-0.058-0.221 0.203c-0.429 0.394-0.656 0.612-0.667 0.639-0.009 0.023-0.003 0.037 0.036 0.086 0.026 0.032 0.082 0.092 0.124 0.134 0.066 0.065 0.082 0.075 0.121 0.075s0.059-0.013 0.147-0.092zM8.742 12.123c0.189-0.172 0.806-0.754 0.806-0.761 0-0.011-0.070-0.088-0.286-0.315-0.14-0.147-0.206-0.208-0.225-0.208-0.033 0-0.071 0.040-0.25 0.26-0.076 0.093-0.2 0.242-0.277 0.33-0.213 0.247-0.232 0.27-0.25 0.315-0.033 0.077-0.016 0.107 0.151 0.276 0.084 0.086 0.162 0.159 0.172 0.163 0.053 0.020 0.086 0.008 0.16-0.060zM16.075 9.955c0.38-0.484 0.51-0.663 0.534-0.738 0.024-0.071-0.015-0.133-0.196-0.315l-0.156-0.156-0.434 0.434c-0.374 0.374-0.434 0.438-0.434 0.469s0.035 0.071 0.228 0.263c0.296 0.295 0.261 0.291 0.456 0.043zM15.614 8.985c0.235-0.23 0.429-0.425 0.433-0.434 0.007-0.017-0.301-0.307-0.325-0.307-0.008 0-0.202 0.19-0.432 0.423-0.472 0.477-0.459 0.459-0.367 0.536 0.059 0.049 0.255 0.198 0.261 0.2 0.002 0 0.196-0.187 0.431-0.417zM10.107 9.017c0.060-0.063 0.080-0.092 0.080-0.117 0-0.029-0.069-0.103-0.431-0.466-0.237-0.238-0.438-0.432-0.446-0.432-0.018 0-0.185 0.191-0.185 0.211 0 0.025 0.088 0.12 0.44 0.475 0.325 0.328 0.416 0.412 0.448 0.412 0.008 0 0.050-0.037 0.095-0.083zM16.888 8.91c0.010-0.018 0.086-0.12 0.169-0.226 0.277-0.357 0.565-0.744 0.584-0.784 0.035-0.073 0.026-0.097-0.065-0.188-0.094-0.094-0.13-0.113-0.175-0.096-0.037 0.014-0.796 0.771-0.844 0.843-0.044 0.064-0.045 0.11-0.003 0.168 0.033 0.046 0.297 0.317 0.309 0.317 0.004-0 0.015-0.015 0.026-0.033zM15.499 8.005c-0.039-0.070-0.043-0.067-0.49 0.389-0.232 0.236-0.423 0.438-0.425 0.448s0.008 0.033 0.024 0.049l0.028 0.030 0.882-0.882zM10.743 8.394c0.020-0.010 0.036-0.025 0.036-0.033s-0.198-0.212-0.441-0.452l-0.441-0.438-0.039 0.016c-0.030 0.012-0.040 0.024-0.043 0.052-0.003 0.032 0.015 0.054 0.175 0.21 0.22 0.214 0.701 0.663 0.71 0.663 0.004 0 0.023-0.008 0.042-0.018zM14.201 8.253c0.054-0.055 0.25-0.253 0.434-0.44l0.335-0.34-0.094-0.103c-0.061-0.067-0.103-0.103-0.119-0.103s-0.169 0.145-0.463 0.439c-0.241 0.241-0.438 0.445-0.438 0.452s0.020 0.028 0.044 0.047c0.049 0.037 0.095 0.081 0.127 0.122 0.036 0.046 0.066 0.033 0.172-0.073zM16.702 7.903c0.222-0.221 0.423-0.429 0.447-0.464 0.056-0.081 0.051-0.101-0.050-0.208-0.103-0.109-0.165-0.152-0.205-0.142-0.032 0.008-0.973 0.933-0.972 0.955 0.001 0.014 0.238 0.22 0.28 0.243 0.073 0.041 0.070 0.043 0.5-0.385zM11.18 7.953c0.051-0.058 0.094-0.115 0.094-0.128 0-0.032-0.817-0.845-0.86-0.855-0.045-0.011-0.099 0.024-0.197 0.131-0.088 0.095-0.104 0.124-0.093 0.167 0.007 0.030 0.264 0.296 0.648 0.673l0.228 0.224 0.043-0.053c0.024-0.029 0.086-0.101 0.137-0.158zM8.989 7.926c0.139-0.14 0.17-0.088-0.377-0.635l-0.464-0.464-0.103 0.101c-0.057 0.056-0.103 0.108-0.103 0.117 0 0.015 0.94 0.97 0.954 0.97 0.004 0 0.046-0.039 0.094-0.088zM16.191 7.371c0.245-0.247 0.454-0.462 0.463-0.477 0.017-0.025 0.015-0.032-0.018-0.091-0.061-0.107-0.062-0.107-0.325 0.168-0.392 0.409-0.555 0.595-0.616 0.702l-0.027 0.047 0.025 0.050c0.014 0.027 0.031 0.050 0.038 0.050s0.214-0.202 0.459-0.45zM11.766 7.359c0.141-0.141 0.257-0.263 0.257-0.27s-0.105-0.094-0.232-0.193c-0.567-0.438-0.692-0.524-0.763-0.524-0.056 0-0.122 0.045-0.253 0.172-0.105 0.102-0.129 0.132-0.135 0.169l-0.008 0.045 0.427 0.429c0.235 0.236 0.432 0.429 0.439 0.429s0.127-0.116 0.269-0.257zM18.020 7.431c0.066-0.087 0.254-0.333 0.417-0.545s0.295-0.392 0.293-0.398c-0.008-0.025-0.114-0.081-0.133-0.071-0.031 0.018-0.768 0.742-0.855 0.84-0.046 0.052-0.083 0.105-0.083 0.119 0 0.036 0.194 0.232 0.22 0.222 0.011-0.004 0.074-0.079 0.14-0.166zM9.664 7.288c0.009-0.007 0.016-0.019 0.016-0.026 0-0.015-0.46-0.48-0.752-0.759l-0.203-0.194-0.048 0.021c-0.061 0.027-0.088 0.057-0.082 0.092 0.004 0.029 0.899 0.883 0.946 0.903 0.024 0.010 0.090-0.010 0.123-0.037zM15.672 6.784c0.244-0.243 0.45-0.452 0.457-0.464 0.009-0.017 0.005-0.033-0.020-0.069-0.040-0.058-0.156-0.169-0.177-0.169-0.018 0-0.866 0.842-0.917 0.91-0.019 0.026-0.035 0.054-0.035 0.063s0.038 0.062 0.085 0.119l0.085 0.104 0.038-0.026c0.021-0.014 0.238-0.225 0.483-0.468zM17.926 6.665c0.282-0.28 0.459-0.464 0.459-0.478-0-0.012-0.040-0.064-0.089-0.115s-0.111-0.122-0.139-0.158l-0.051-0.065-0.462 0.464c-0.284 0.284-0.468 0.479-0.478 0.503-0.023 0.058-0.002 0.095 0.115 0.208 0.157 0.151 0.101 0.182 0.645-0.359zM10.032 6.882c0.123-0.119 0.139-0.146 0.114-0.194-0.009-0.018-0.225-0.239-0.478-0.491l-0.461-0.459-0.085 0.091c-0.047 0.050-0.106 0.117-0.132 0.149-0.085 0.106-0.101 0.081 0.355 0.535 0.221 0.22 0.425 0.417 0.455 0.438 0.085 0.060 0.106 0.054 0.232-0.068zM7.873 6.71l0.082-0.076-0.463-0.466c-0.254-0.256-0.478-0.476-0.496-0.488l-0.033-0.023-0.098 0.096c-0.083 0.081-0.097 0.101-0.091 0.125 0.004 0.016 0.213 0.231 0.479 0.491l0.471 0.462 0.033-0.024c0.018-0.013 0.070-0.058 0.115-0.099zM17.041 6.526c0.2-0.193 0.8-0.818 0.8-0.832 0-0.007-0.025-0.050-0.056-0.096-0.040-0.059-0.063-0.083-0.081-0.083-0.028 0-0.019-0.009-0.502 0.507-0.389 0.415-0.405 0.434-0.415 0.466-0.006 0.019 0.006 0.044 0.043 0.094 0.028 0.038 0.058 0.068 0.067 0.068s0.074-0.056 0.145-0.124zM10.611 6.304c0.092-0.091 0.168-0.169 0.168-0.174 0-0.009-0.495-0.396-0.837-0.655-0.179-0.136-0.221-0.159-0.268-0.147-0.038 0.009-0.235 0.198-0.235 0.224 0 0.019 0.768 0.796 0.861 0.871 0.043 0.035 0.070 0.047 0.101 0.047 0.038 0 0.059-0.016 0.21-0.165zM19.084 6.046c0.1-0.129 0.205-0.265 0.233-0.301 0.256-0.33 0.395-0.525 0.395-0.557 0-0.027-0.023-0.060-0.106-0.148-0.058-0.062-0.15-0.154-0.204-0.205-0.148-0.139-0.121-0.15-0.47 0.19-0.37 0.36-0.605 0.61-0.616 0.652-0.008 0.031 0.012 0.054 0.28 0.322 0.158 0.159 0.292 0.288 0.297 0.286s0.090-0.109 0.19-0.239zM8.444 6.147c0.063-0.043 0.063-0.044 0.047-0.077-0.016-0.032-0.878-0.885-0.93-0.922-0.023-0.016-0.031-0.013-0.106 0.043-0.061 0.046-0.080 0.067-0.078 0.086 0.004 0.024 0.213 0.228 0.719 0.698 0.155 0.144 0.241 0.216 0.259 0.216 0.015 0 0.055-0.020 0.090-0.044zM16.873 5.572c0.26-0.261 0.474-0.48 0.474-0.487s-0.016-0.020-0.036-0.028c-0.020-0.008-0.069-0.044-0.109-0.080s-0.082-0.065-0.093-0.065c-0.021 0-0.969 0.938-0.969 0.96 0 0.007 0.039 0.049 0.087 0.094 0.142 0.133 0.090 0.165 0.647-0.393zM8.835 5.732c0.060-0.053 0.131-0.11 0.159-0.126l0.051-0.029-0.398-0.401c-0.471-0.474-0.546-0.543-0.599-0.543-0.047 0-0.123 0.055-0.232 0.168l-0.083 0.086 0.022 0.033c0.012 0.018 0.221 0.23 0.464 0.471 0.359 0.355 0.448 0.438 0.474 0.438 0.023 0 0.062-0.027 0.141-0.097zM6.638 5.604c0.047-0.040 0.085-0.112 0.085-0.164 0-0.036-0.043-0.083-0.472-0.511l-0.472-0.471-0.026 0.035c-0.014 0.019-0.055 0.067-0.090 0.106-0.036 0.040-0.063 0.082-0.063 0.097 0 0.019 0.089 0.113 0.304 0.323 0.167 0.163 0.355 0.354 0.418 0.423s0.133 0.142 0.157 0.16c0.056 0.043 0.109 0.043 0.159 0.002zM18.554 5.011c0.249-0.251 0.461-0.471 0.47-0.489 0.022-0.042 0.012-0.061-0.087-0.171l-0.075-0.082-0.079 0.077c-0.044 0.042-0.217 0.226-0.386 0.408s-0.349 0.376-0.401 0.432c-0.051 0.055-0.094 0.104-0.094 0.109 0 0.017 0.163 0.172 0.181 0.173 0.010 0 0.222-0.205 0.471-0.456zM9.373 5.199c0.043-0.044 0.078-0.086 0.078-0.093 0-0.011-0.379-0.307-0.934-0.73l-0.171-0.13-0.033 0.040c-0.047 0.056-0.052 0.087-0.023 0.127 0.046 0.064 0.877 0.883 0.908 0.895 0.041 0.015 0.079-0.008 0.176-0.108zM7.257 4.987c0.045-0.036 0.081-0.069 0.081-0.073 0-0.013-0.971-0.98-0.983-0.98-0.026 0.001-0.2 0.177-0.2 0.202 0 0.017 0.073 0.094 0.231 0.24 0.127 0.118 0.329 0.307 0.45 0.419 0.241 0.224 0.306 0.277 0.326 0.265 0.007-0.004 0.050-0.037 0.095-0.074zM20.282 4.486c0.468-0.608 0.456-0.592 0.456-0.627 0-0.029-0.087-0.112-0.279-0.267l-0.056-0.045-0.46 0.465c-0.323 0.326-0.46 0.473-0.46 0.491s0.068 0.094 0.213 0.241c0.117 0.118 0.217 0.212 0.222 0.209s0.169-0.213 0.364-0.467zM17.875 4.574c0.177-0.172 0.395-0.387 0.485-0.478l0.163-0.165-0.042-0.032c-0.023-0.018-0.070-0.061-0.105-0.096s-0.074-0.063-0.086-0.063c-0.036 0-0.073 0.035-0.531 0.496-0.283 0.285-0.438 0.45-0.438 0.465 0 0.037 0.159 0.185 0.199 0.185 0.026 0 0.096-0.061 0.354-0.313zM7.785 4.444c0.33-0.334 0.328-0.332 0.317-0.362-0.009-0.025-0.211-0.191-0.479-0.395-0.078-0.059-0.198-0.156-0.265-0.215-0.145-0.127-0.213-0.174-0.277-0.191-0.092-0.025-0.146 0.013-0.337 0.231-0.074 0.086-0.14 0.156-0.145 0.156s-0.010 0.020-0.010 0.045c0 0.043 0.019 0.064 0.462 0.507 0.254 0.254 0.47 0.462 0.48 0.462s0.124-0.107 0.254-0.238zM5.569 4.303c0.009-0.024 0.007-0.040-0.006-0.060-0.034-0.052-0.914-0.914-0.933-0.914-0.027 0-0.165 0.119-0.193 0.168l-0.023 0.040 0.955 0.954 0.095-0.078c0.052-0.043 0.1-0.092 0.106-0.11zM19.73 3.833c0.246-0.248 0.456-0.467 0.468-0.488l0.021-0.037-0.094-0.113c-0.129-0.156-0.12-0.151-0.177-0.097-0.090 0.084-0.869 0.922-0.885 0.952-0.014 0.027-0.013 0.034 0.013 0.068 0.070 0.092 0.149 0.165 0.178 0.166 0.023 0 0.128-0.099 0.476-0.451zM6.077 3.811c0.031-0.033 0.054-0.069 0.054-0.085 0-0.020-0.113-0.141-0.407-0.436-0.437-0.439-0.508-0.503-0.554-0.503-0.021 0-0.054 0.026-0.114 0.087-0.125 0.129-0.126 0.126 0.094 0.34 0.229 0.222 0.721 0.681 0.775 0.723l0.042 0.032 0.028-0.050c0.016-0.028 0.053-0.076 0.082-0.107zM19.208 3.235c0.251-0.25 0.456-0.459 0.456-0.465 0-0.020-0.163-0.19-0.188-0.197-0.015-0.004-0.037-0.001-0.050 0.006-0.032 0.017-0.911 0.902-0.929 0.934-0.019 0.036-0.012 0.049 0.066 0.107 0.038 0.028 0.071 0.055 0.074 0.059 0.012 0.016 0.043 0.022 0.078 0.016 0.028-0.005 0.141-0.111 0.492-0.461zM20.989 3.562c0.033-0.030 0.256-0.315 0.472-0.605 0.2-0.268 0.197-0.26 0.134-0.34-0.018-0.023-0.264-0.272-0.547-0.552-0.49-0.487-0.515-0.51-0.558-0.51s-0.064 0.019-0.43 0.382c-0.212 0.21-0.388 0.393-0.392 0.406-0.006 0.018 0.005 0.035 0.040 0.067 0.026 0.024 0.068 0.070 0.093 0.101s0.050 0.057 0.057 0.057c0.025 0 0.112-0.096 0.202-0.223 0.118-0.167 0.129-0.171 0.215-0.064 0.093 0.116 0.15 0.203 0.15 0.229 0 0.040-0.045 0.113-0.12 0.199-0.087 0.098-0.109 0.158-0.078 0.207 0.011 0.018 0.164 0.175 0.339 0.349 0.291 0.289 0.322 0.317 0.359 0.317 0.022 0 0.052-0.010 0.065-0.021zM6.589 3.289c0.113-0.112 0.206-0.21 0.206-0.218 0-0.021-0.048-0.062-0.26-0.221-0.106-0.080-0.305-0.233-0.441-0.339s-0.275-0.208-0.309-0.225c-0.060-0.030-0.064-0.030-0.108-0.012-0.027 0.011-0.088 0.063-0.146 0.124-0.16 0.168-0.191 0.111 0.357 0.659 0.361 0.361 0.461 0.455 0.476 0.447 0.011-0.006 0.112-0.102 0.225-0.214zM4.29 3.252c0.133-0.095 0.132-0.144-0.010-0.293-0.069-0.072-0.085-0.098-0.094-0.144-0.012-0.067-0.004-0.104 0.035-0.165 0.040-0.061 0.096-0.094 0.161-0.094 0.066 0 0.113 0.028 0.181 0.109 0.060 0.072 0.101 0.097 0.158 0.097 0.036 0 0.073-0.033 0.399-0.36l0.359-0.36-0.028-0.025c-0.033-0.030-0.548-0.427-0.747-0.576-0.077-0.058-0.149-0.105-0.161-0.105s-0.273 0.251-0.581 0.558c-0.418 0.416-0.561 0.566-0.561 0.586 0 0.020 0.058 0.088 0.196 0.232 0.198 0.206 0.594 0.591 0.608 0.591 0.004 0 0.042-0.024 0.083-0.054zM15.312 11.69c-0.122-0.092-0.218-0.139-0.284-0.139-0.059 0-0.163 0.043-0.294 0.12-0.068 0.040-0.132 0.073-0.144 0.073-0.025 0-0.087-0.059-0.729-0.681-0.267-0.259-0.489-0.484-0.493-0.499-0.015-0.060 0.011-0.094 0.313-0.398 0.327-0.329 0.361-0.354 0.423-0.314 0.041 0.027 0.287 0.291 0.419 0.449 0.319 0.382 0.609 0.827 0.839 1.287 0.049 0.099 0.090 0.182 0.090 0.186 0 0.016-0.027-0-0.139-0.085zM10.396 11.416c-0.175-0.171-0.407-0.43-0.422-0.471-0.032-0.089-0.045-0.069 0.446-0.677 0.165-0.204 0.313-0.38 0.329-0.39 0.018-0.012 0.039-0.016 0.056-0.010 0.033 0.010 0.698 0.673 0.698 0.695 0 0.009-0.211 0.226-0.468 0.484-0.398 0.399-0.473 0.468-0.502 0.468-0.027 0-0.057-0.022-0.137-0.1zM12.352 9.588c-0.021-0.010-0.136-0.118-0.257-0.24-0.23-0.233-0.243-0.253-0.197-0.306 0.029-0.034 0.273-0.167 0.346-0.189 0.033-0.010 0.075-0.018 0.094-0.018 0.075 0 0.23 0.042 0.426 0.115 0.169 0.063 0.206 0.081 0.209 0.102 0.003 0.019-0.034 0.064-0.139 0.172-0.201 0.206-0.398 0.385-0.423 0.384-0.012-0-0.039-0.009-0.060-0.019z"></path>
</svg>
