<!-- Generated by IcoMoon.io -->
<svg version="1.1" xmlns="http://www.w3.org/2000/svg" width="33" height="32" viewBox="0 0 33 32">
<title>pnakotic_brotherhood</title>
<path d="M14.498 29.367c-1.459-0.103-2.8-0.352-3.306-0.613-0.276-0.142-0.249-0.754 0.090-2.075 0.13-0.507 0.264-1.373 0.298-1.922s0.108-1.362 0.165-1.804c0.122-0.942-0.063-1.271-0.716-1.271-0.238 0-0.481-0.077-0.54-0.172-0.133-0.215 0.384-2.752 0.938-4.595 0.14-0.465 0.362-1.365 0.493-1.999s0.34-1.27 0.463-1.413c0.277-0.322 0.132-0.586-0.323-0.586-0.759 0-0.945-0.768-0.361-1.488 0.424-0.522 0.942-2.334 1.266-4.433 0.373-2.41 0.954-4.075 1.423-4.075 0.132 0 0.353 0.102 0.491 0.228 0.194 0.176 0.485 0.206 1.273 0.132 0.884-0.083 1.028-0.139 1.068-0.418 0.061-0.428 0.451-0.484 0.892-0.127 0.25 0.202 0.396 0.539 0.486 1.121 0.596 3.849 1.056 5.73 1.806 7.368 0.41 0.897 0.402 1.054-0.061 1.23-0.337 0.128-0.384 0.238-0.384 0.889 0 0.409 0.13 1.154 0.288 1.657s0.407 1.329 0.553 1.837c0.146 0.507 0.387 1.199 0.537 1.538s0.42 0.946 0.601 1.35c0.46 1.029 0.433 1.188-0.204 1.188-0.354 0-0.577 0.090-0.666 0.269-0.073 0.148-0.082 1.93-0.021 3.96s0.060 3.746-0.003 3.814c-0.159 0.17-3.291 0.571-4.236 0.543-0.423-0.013-1.461-0.072-2.307-0.132zM13.841 24.703c0.070-1.108-0.118-1.461-0.631-1.186-0.279 0.149-0.325 0.314-0.325 1.143 0 0.533 0.036 1.005 0.080 1.049s0.246 0.049 0.448 0.010c0.332-0.063 0.374-0.162 0.428-1.016zM16.267 25.077c0-0.986-0.111-1.243-0.537-1.243-0.39 0-0.534 0.337-0.538 1.257-0.001 0.57 0.118 0.678 0.805 0.724 0.222 0.015 0.269-0.114 0.269-0.738zM17.286 19.509c-0.053-0.264-0.096-0.675-0.096-0.912 0-0.304-0.096-0.462-0.323-0.534-0.448-0.142-0.593 0.058-0.7 0.963-0.099 0.839-0.042 0.903 0.85 0.947 0.329 0.016 0.356-0.029 0.269-0.463zM19.822 19.144c0.109-0.876-0.070-1.192-0.596-1.054-0.309 0.081-0.345 0.186-0.345 1.005 0 0.907 0.002 0.915 0.423 0.866 0.383-0.044 0.432-0.121 0.518-0.818zM16.635 10.494c-0.056-0.571-0.11-1.047-0.12-1.057s-0.166-0.065-0.347-0.121c-0.531-0.163-0.824 0.268-0.824 1.214 0 0.889 0.073 0.97 0.888 0.989l0.504 0.012-0.102-1.038zM5.824 17.523c-0.711-0.25-1.565-0.455-1.897-0.455-0.792 0-0.698-0.299 0.204-0.645 0.91-0.349 1.755-0.34 2.832 0.030 1.080 0.372 1.779 0.39 2.413 0.062 0.372-0.192 0.556-0.209 0.847-0.076 0.435 0.198 0.337 0.476-0.169 0.476-0.193 0-0.483 0.148-0.644 0.329-0.382 0.429-1.154 0.749-1.787 0.741-0.278-0.002-1.087-0.211-1.798-0.461zM24.675 17.57c-0.607-0.192-1.465-0.348-1.906-0.348-0.935-0-0.971-0.243-0.112-0.774 0.676-0.418 1.947-0.418 3.375-0.001 0.649 0.189 1.522 0.314 2.2 0.314 1.25 0 1.302 0.118 0.289 0.649-1.002 0.526-2.49 0.588-3.845 0.16zM22.496 14.126c-0.472-0.415-0.632-0.47-1.159-0.399-0.336 0.045-0.611 0.063-0.611 0.039s0.178-0.361 0.395-0.749c0.411-0.735 0.337-0.699 1.912-0.944 0.211-0.033 1.353 0.052 2.537 0.189 2.468 0.285 2.765 0.29 3.345 0.060 0.482-0.191 0.58-0.776 0.185-1.104-0.52-0.431 0.677-0.638 1.274-0.22 0.556 0.389 0.604 1.178 0.123 2-0.227 0.387-0.585 0.769-0.795 0.849-0.662 0.252-1.805 0.16-2.977-0.239-1.092-0.371-2.711-0.515-3.294-0.291-0.336 0.129-0.304 0.614 0.064 0.983 0.308 0.308 0.308 0.308-0.072 0.308-0.208 0-0.626-0.216-0.927-0.481zM2.888 14.037c-0.796-0.293-1.165-1.073-0.857-1.81 0.478-1.144 2.219-1.331 4.089-0.44 0.667 0.318 1.328 0.502 1.997 0.556 0.591 0.048 1.363 0.245 1.888 0.481 0.489 0.22 1.042 0.401 1.23 0.402 0.728 0.006-0.628 0.639-1.546 0.722-0.726 0.066-1.075 0.007-1.897-0.322-0.554-0.222-1.126-0.403-1.272-0.403s-0.52-0.173-0.831-0.384c-0.425-0.288-0.766-0.384-1.367-0.384-0.441 0-0.846 0.074-0.902 0.163-0.126 0.204 0.329 0.72 0.895 1.012 0.236 0.122 0.387 0.288 0.337 0.369-0.096 0.155-1.371 0.183-1.764 0.038zM22.418 9.072c-0.381-0.16-0.986-0.295-1.346-0.3-0.782-0.010-0.832-0.212-0.154-0.625 0.61-0.372 1.331-0.387 2.433-0.051 0.459 0.14 1.32 0.296 1.912 0.346l1.076 0.091-0.614 0.382c-0.815 0.507-2.309 0.578-3.308 0.157zM8.347 8.842c-0.883-0.347-1.502-0.366-1.838-0.058-0.080 0.074-0.323 0.13-0.538 0.124-0.354-0.009-0.362-0.022-0.085-0.136 0.169-0.069 0.446-0.28 0.615-0.467 0.471-0.523 1.139-0.813 1.643-0.712 0.246 0.049 0.923 0.298 1.504 0.553s1.253 0.469 1.492 0.475c0.419 0.011 0.412 0.022-0.18 0.296-0.82 0.38-1.504 0.36-2.614-0.076z"></path>
</svg>
