<!-- Generated by IcoMoon.io -->
<svg version="1.1" xmlns="http://www.w3.org/2000/svg" width="32" height="32" viewBox="0 0 32 32">
<title>poi_standard</title>
<path d="M16 0c-8.809 0-16 7.191-16 16s7.191 16 16 16c8.809 0 16-7.191 16-16s-7.191-16-16-16zM16 4.571c6.339 0 11.429 5.090 11.429 11.429s-5.090 11.429-11.429 11.429c-6.339 0-11.429-5.090-11.429-11.429s5.090-11.429 11.429-11.429z"></path>
<path d="M16.012 4.571l2.566 7.897h8.303l-6.718 4.881 2.566 7.897-6.718-4.881-6.718 4.881 2.566-7.897-6.718-4.881h8.303z"></path>
</svg>
