<!-- Generated by IcoMoon.io -->
<svg version="1.1" xmlns="http://www.w3.org/2000/svg" width="32" height="32" viewBox="0 0 32 32">
<title>rats</title>
<path d="M24.606 16.015c0.36 0.074 0.223 0.5 0.114 0.722-0.067 0.266-0.25 0.469-0.356 0.711-0.18 0.235-0.34 0.512-0.594 0.668-0.281 0.094-0.449 0.379-0.738 0.446-0.379 0.312-0.902 0.281-1.355 0.383-0.383 0.085-0.711 0.691-0.707 1.058 0.004 0.32 0.050 0.574 0.211 0.844 0.074 0.129 0.128 0.265 0.207 0.387 0.046 0.074 0.148 0.089 0.132 0.211-0.164-0.028-0.277-0.063-0.453-0.063-0.191 0.003-0.281-0.035-0.441-0.137-0.293-0.187-0.492-0.394-0.68-0.691-0.117-0.192-0.113-0.477-0.066-0.692 0.062-0.312 0.113-0.648 0.129-0.968 0.004-0.114 0.008-0.223 0.054-0.328 0.168-0.36 0.555-0.403 0.891-0.528-0.016 0.017 0-0.086-0.016-0.066 0.079 0-0.031-0.035 0.043-0.059 0.11-0.035 0.2-0.152 0.309-0.195 0.086-0.035 0.18-0.051 0.266-0.086 0.488-0.219 0.921-0.496 1.351-0.812 0.274-0.208 0.555-0.528 0.891-0.618 0.183-0.050 0.336-0.211 0.515-0.254 0.098-0.023 0.211 0.020 0.305-0.011 0.004-0.017-0.016 0.093-0.012 0.078z"></path>
<path d="M12.033 15.476c-0.23 0.020-0.453 0.16-0.543 0.379-0.055 0.132-0.047 0.285-0.066 0.418-0.067 0.504-0.153 1.027-0.016 1.527 0.074 0.273 0.106 0.598 0.363 0.766 0.086 0.054 0.196 0.066 0.282 0.129 0.109 0.074 0.168 0.253 0.304 0.277-0.062-0.199-0.164-0.367-0.191-0.582-0.027-0.219-0.023-0.449-0.008-0.672 0.020-0.281 0.067-0.574 0.391-0.625 0.297-0.043 0.625 0.078 0.914 0.121 0.246 0.035 0.41-0.011 0.64-0.098 0.219-0.074 0.446-0.109 0.661-0.179 0.273-0.090 0.562 0.035 0.828-0.047 0.258-0.051 0.562-0.117 0.758 0.070 0.226-0.203 0.605-0.028 0.859 0.078 0.226 0.086 0.453 0.199 0.668 0.301 0.344 0.129 0.547-0.391 0.277-0.59-0.254-0.203-0.562-0.32-0.828-0.515-0.48-0.289-1.051-0.391-1.609-0.399-0.321-0.003-0.625 0.117-0.946 0.125-0.41 0.031-0.816-0.070-1.222-0.105-0.418-0.055-0.84-0.125-1.207-0.332-0.098-0.043-0.203-0.059-0.309-0.047z"></path>
<path d="M28.458 13.827c-0.051-0.425-0.102-0.859-0.297-1.25-0.090-0.277-0.148-0.566-0.289-0.824-0.156-0.391-0.422-0.715-0.656-1.058-0.117-0.176-0.149-0.469-0.215-0.668-0.067-0.204-0.141-0.446-0.277-0.61-0.118-0.133-0.231-0.195-0.297-0.371-0.078-0.207-0.133-0.422-0.223-0.625-0.066-0.156-0.152-0.328-0.242-0.469-0.094-0.156-0.028-0.090-0.219-0.164-0.187-0.070-0.285-0.187-0.406-0.34-0.133-0.164-0.164-0.16-0.356-0.214-0.183-0.051-0.343-0.176-0.496-0.282-0.277-0.203-0.523-0.382-0.828-0.539-0.258-0.133-0.539-0.191-0.805-0.301-0.222-0.093-0.429-0.144-0.675-0.089-0.106 0.028-0.18 0.086-0.293 0.097-0.075 0.011-0.141 0.003-0.219 0.032-0.184 0.054-0.305 0.066-0.496 0.070-0.25 0.003-0.488 0.090-0.735 0.105-0.148 0.008-0.281 0.047-0.425 0.075-0.188 0.035-0.367 0.031-0.555 0.031-0.461-0.011-0.844 0.094-1.27 0.258-0.207 0.082-0.445 0.164-0.621 0.296-0.425 0.329-0.964 0.438-1.468 0.598-0.559 0.176-1.098 0.395-1.668 0.551-0.219 0.062-0.442 0.137-0.664 0.184-0.157 0.031-0.313 0.046-0.469 0.085-0.297 0.079-0.582 0.114-0.875 0.211-0.164 0.055-0.356 0.114-0.527 0.145-0.36 0.062-0.704 0.168-0.954 0.457-0.062 0.070-0.086 0.172-0.136 0.254-0.051 0.082-0.125 0.148-0.172 0.23-0.063 0.114-0.071 0.246-0.090 0.371-0.027 0.168-0.074 0.336-0.109 0.508-0.094 0.446-0.114 0.981-0.036 1.43 0.024 0.168 0.106 0.332 0.184 0.496 0.055 0.117 0.109 0.23 0.145 0.348 0.085 0.281 0.171 0.574 0.328 0.824 0.199 0.308 0.566 0.504 0.882 0.676 0.086 0.047 0.219 0.090 0.293 0.156 0.243 0.219 0.575 0.254 0.883 0.312 0.25 0.067 0.524-0.028 0.762 0.094 0.293 0.017 0.586-0.039 0.879 0.011 0.219 0.047 0.375-0.094 0.551-0.003 0.273-0.059 0.55-0.047 0.824-0.047 0.375 0.067 0.738 0.18 1.090 0.324 0.211 0.176 0.504 0.231 0.687 0.442 0.223 0.133 0.446 0.277 0.68 0.386 0.172 0.003 0.371 0.211 0.48 0.184 0.137 0 0.332 0.125 0.516 0.094 0.117 0.039 0.25 0.051 0.363 0.105 0.063 0.023 0.106 0.074 0.172 0.094 0.203 0.059 0.516 0.003 0.719-0.039 0.215-0.047 0.41-0.102 0.637-0.106 0.152-0.006 0.312-0.042 0.453-0.105 0.148-0.066 0.293-0.086 0.445-0.133 0.18-0.058 0.336-0.176 0.516-0.246 0.242-0.094 0.468-0.195 0.699-0.308s0.449-0.239 0.676-0.356c0.175-0.086 0.238-0.227 0.371-0.367 0.015-0.020 0.039-0.039 0.054-0.063-0.097-0.086-0.183-0.082-0.296-0.129-0.098-0.039-0.207-0.152-0.321-0.14-0.074 0.008-0.136 0.066-0.215 0.082-0.132 0.023-0.269-0.035-0.402 0.008-0.117 0.035-0.207 0.156-0.336 0.187-0.097 0.020-0.195-0.014-0.289 0.003-0.074 0.017-0.129 0.063-0.207 0.078-0.34 0.051-0.656 0.067-1.023 0.063-0.52 0-0.996-0.017-1.453-0.278-0.188-0.105-0.387-0.172-0.579-0.273-0.14-0.070-0.226-0.188-0.351-0.281-0.274-0.196-0.59-0.332-0.891-0.481-0.25-0.125-0.488-0.324-0.758-0.406-0.379-0.113-0.785-0.082-1.171-0.082-0.551 0-1.102-0.003-1.653 0-0.281 0.003-0.555 0.008-0.828-0.063-0.199-0.054-0.387-0.144-0.582-0.211-0.383-0.132-0.613-0.441-0.969-0.628-0.285-0.153-0.429-0.204-0.418-0.551 0.008-0.188-0.019-0.375-0.004-0.559 0.016-0.14 0.079-0.203 0.129-0.324 0.063-0.148 0.082-0.316 0.219-0.422 0.117-0.082 0.281-0.152 0.402-0.223 0.168-0.093 0.368-0.222 0.555-0.261 0.149-0.032 0.238-0.032 0.379-0.086 0.094-0.031 0.145-0.047 0.246-0.071 0.289-0.066 0.551-0.105 0.832-0.207 0.168-0.062 0.352-0.062 0.52-0.128 0.191-0.079 0.343-0.223 0.539-0.293 0.246-0.086 0.515-0.18 0.765-0.25 0.606-0.168 1.145-0.485 1.758-0.641 0.375-0.098 0.742-0.234 1.121-0.301 0.489-0.082 0.985-0.047 1.477-0.047 0.277-0.003 0.574-0.039 0.847 0.008 0.207 0.035 0.403 0.129 0.598 0.199 0.188 0.075 0.399 0.078 0.578 0.149 0.156 0.058 0.215 0.207 0.321 0.32 0.113 0.117 0.222 0.211 0.3 0.359 0.082 0.165 0.114 0.352 0.215 0.512 0.176 0.274 0.461 0.512 0.684 0.746 0.285 0.313 0.64 0.629 0.828 1.012 0.223 0.457 0.617 0.789 0.766 1.281 0.113 0.367 0.156 0.692 0.136 1.074-0.011 0.36-0.062 0.719-0.109 1.079 0 0.003 0.004 0.011 0.008 0.020 0.007 0.035-0.004 0.067-0.004 0.102 0 0.121 0.074 0.215 0.097 0.324 0.055 0.246 0.043 0.504 0.043 0.754 0 0.215 0.012 0.429-0.019 0.64-0.043 0.286-0.102 0.59-0.195 0.864-0.082 0.258-0.137 0.523-0.231 0.777-0.078 0.203-0.199 0.395-0.285 0.598-0.047 0.101-0.090 0.207-0.137 0.308-0.156 0.367-0.312 0.742-0.453 1.117-0.055 0.145-0.101 0.286-0.156 0.426-0.043 0.121-0.094 0.332-0.188 0.426-0.015 0.011-0.039 0.003-0.054 0.023-0.020 0.020-0.032 0.047-0.047 0.075-0.094 0.152-0.16 0.324-0.242 0.488-0.293 0.598-0.711 1.148-1.2 1.598-0.449 0.418-0.933 0.808-1.422 1.187-0.425 0.328-0.894 0.586-1.351 0.871-0.227 0.145-0.457 0.301-0.703 0.41-0.281 0.125-0.586 0.274-0.887 0.325-0.086 0.014-0.164 0.011-0.246 0.020-0.105 0.011-0.199 0.067-0.297 0.102-0.133 0.054-0.273 0.078-0.41 0.125-0.195 0.062-0.379 0.148-0.582 0.199-0.109 0.023-0.223 0.059-0.328 0.098-0.156 0.058-0.293 0.136-0.457 0.171-0.149 0.040-0.278 0.106-0.41 0.18-0.204 0.11-0.434 0.125-0.645 0.223-0.168 0.078-0.309 0.187-0.461 0.297-0.101 0.074-0.226 0.093-0.332 0.16-0.297 0.191-0.539 0.48-0.746 0.762-0.223 0.3-0.32 0.675-0.234 1.043 0.035 0.164 0.066 0.312 0.156 0.453 0.039 0.066 0.098 0.211 0.183 0.226 0.040-0.101 0.008-0.273 0.008-0.383 0-0.144-0.023-0.3 0.039-0.433 0.094-0.188 0.161-0.387 0.305-0.547 0.078-0.090 0.184-0.156 0.27-0.242 0.105-0.106 0.222-0.184 0.347-0.262 0.34-0.215 0.758-0.281 1.149-0.34 0.343-0.047 0.679-0.191 1.015-0.273 0.235-0.059 0.477-0.098 0.715-0.133 0.195-0.031 0.371-0.113 0.563-0.109 0.062 0 0.121 0.003 0.179-0.008 0.207-0.039 0.41-0.090 0.618-0.133 0.144-0.031 0.281-0.074 0.429-0.070 0.145 0.006 0.254-0.039 0.387-0.098 0.59-0.254 1.18-0.527 1.746-0.828 0.652-0.348 1.234-0.789 1.84-1.207 0.262-0.18 0.515-0.371 0.758-0.571 0.105-0.089 0.211-0.21 0.336-0.273 0.039-0.020 0.078-0.035 0.117-0.062 0.187-0.145 0.258-0.422 0.445-0.555 0.188-0.133 0.293-0.422 0.449-0.625 0.125 0.101 0.082-0.184 0.184-0.231 0.156-0.238 0.367-0.441 0.465-0.714 0.187-0.243 0.312-0.52 0.492-0.762 0.144-0.195 0.141-0.461 0.32-0.633 0.203-0.137 0.121-0.422 0.289-0.613 0.090-0.246 0.192-0.492 0.297-0.742 0.141-0.133 0.125-0.446 0.196-0.528 0.128-0.043-0.012-0.316 0.136-0.39 0.071-0.258 0.184-0.508 0.211-0.782 0.063-0.273 0.137-0.547 0.145-0.832 0.148-0.273 0.078-0.597 0.164-0.89 0.047-0.301 0.027-0.606 0.039-0.907 0.031-0.332 0.015-0.664-0.004-0.996z"></path>
<path d="M10.975 14.968c-0.133-0.074-0.086-0.367-0.227-0.5-0.113-0.184-0.285-0.316-0.395-0.5 0.004 0.281-0.003 0.586-0.207 0.777-0.218 0.211-0.621 0.317-0.902 0.414-0.144 0.051-0.238 0.164-0.348 0.266-0.113 0.102-0.238 0.176-0.351 0.273-0.195 0.172-0.36 0.383-0.551 0.559-0.129 0.125-0.273 0.223-0.418 0.328-0.129 0.098-0.211 0.098-0.332 0.16-0.226 0.114-0.375 0.336-0.582 0.473-0.199 0.125-0.383 0.144-0.609 0.148-0.125 0.003-0.356 0.055-0.426-0.062-0.051-0.094 0.074-0.32 0.098-0.406 0.058-0.184 0.097-0.356 0.203-0.52 0.132-0.211 0.289-0.383 0.402-0.605 0.168-0.328 0.352-0.621 0.484-0.965 0.168-0.434 0.219-0.891 0.489-1.278 0.246-0.351 0.5-0.675 0.816-0.968 0.328-0.301 0.629-0.594 0.902-0.953 0.122-0.161 0.262-0.317 0.36-0.493 0.062-0.105 0.113-0.218 0.164-0.328-0.004-0.066-0.008-0.129-0.016-0.199-0.031-0.242 0.012-0.512-0.125-0.73-0.082-0.129-0.183-0.164-0.328-0.227-0.019-0.047-0.019-0.094-0.035-0.137-0.012-0.031-0.039-0.054-0.051-0.090-0.015-0.043 0.028-0.179-0.066-0.144-0.024 0.008-0.031 0.043-0.051 0.055-0.016 0.006-0.082 0.031-0.098 0.035-0.093 0.023-0.203 0.011-0.297 0.008-0.117-0.003-0.148-0.047-0.152-0.157-0.004-0.132 0.016-0.277-0.035-0.402-0.070-0.168-0.195-0.176-0.352-0.148-0.113 0.014-0.203 0.058-0.304 0.109-0.325 0.16-0.657 0.242-0.832 0.601-0.153 0.329-0.047 0.711 0.168 0.981 0.203 0.305 0.351 0.707 0.203 1.062-0.11 0.235-0.367 0.348-0.535 0.54-0.223 0.222-0.477 0.417-0.743 0.589-0.382 0.313-0.511 0.809-0.679 1.254-0.028 0.086-0.094 0.223-0.051 0.309 0.047 0.086 0.164 0.098 0.246 0.082 0.145-0.031 0.207-0.227 0.328-0.305 0.070-0.039 0.164-0.101 0.215-0.172 0.008 0.207-0.105 0.461-0.191 0.645-0.094 0.199-0.348 0.281-0.504 0.414-0.235 0.199-0.414 0.488-0.457 0.789-0.016 0.105 0 0.211-0.012 0.312-0.016 0.176-0.086 0.348-0.137 0.512-0.074 0.36-0.336 0.688-0.695 0.789-0.402 0.199-0.418 0.836-0.043 1.074 0.144 0.094 0.293 0.137 0.453 0.188 0.117 0.043 0.215 0.102 0.324 0.148 0.059 0.028 0.11 0.043 0.176 0.039 0.109-0.003 0.207-0.054 0.32-0.031 0.329 0.067 0.551 0.383 0.879 0.465 0.192 0.051 0.383 0.059 0.567 0.117 0.164 0.059 0.285 0.047 0.461 0.059-0.239-0.11-0.407-0.332-0.578-0.52-0.129-0.14-0.047-0.242 0.097-0.32 0.188-0.098 0.395-0.172 0.586-0.258 0.109-0.051 0.223-0.086 0.324-0.14 0.047-0.028 0.094-0.051 0.133-0.086 0.020-0.017 0.094-0.118 0.106-0.118 0.277-0.028 0.488-0.21 0.73-0.332 0.313-0.050 0.516-0.332 0.813-0.418 0.281-0.085 0.445-0.332 0.668-0.48 0.148-0.195 0.367-0.25 0.484-0.465 0.156-0.187 0.293-0.402 0.351-0.64-0.046-0.196 0.227-0.336 0.165-0.477z"></path>
</svg>
