<!-- Generated by IcoMoon.io -->
<svg version="1.1" xmlns="http://www.w3.org/2000/svg" width="32" height="32" viewBox="0 0 32 32">
<title>reaction</title>
<path d="M2.306 12.969c-0.178-0.548-0.111-1.108 0.191-1.669 0.276-0.455 0.615-0.794 1.023-1.023 0.399-0.225 0.837-0.387 1.292-0.493 0.471-0.094 0.963-0.153 1.478-0.153h1.402c0.531 0 1.036 0.029 1.517 0.076 0.505 0.031 1.006 0.077 1.52 0.153 1.003 0.178 1.988 0.416 2.957 0.722 0.985 0.285 1.984 0.595 2.999 0.947 1.818 0.663 3.64 1.47 5.458 2.426 1.823 0.939 3.471 2.051 4.97 3.339 0.608 0.514 1.139 1.121 1.593 1.823 0.455 0.68 0.778 1.422 0.986 2.2 0.097 0.378 0.123 0.718 0.076 1.024-0.029 0.301-0.102 0.607-0.225 0.908-0.136 0.285-0.285 0.561-0.459 0.833-0.178 0.285-0.357 0.57-0.531 0.875-0.378 0.607-0.871 1.041-1.479 1.326-0.586 0.275-1.202 0.493-1.856 0.645-0.459 0.124-0.93 0.2-1.406 0.229-0.484 0.047-0.963 0.077-1.44 0.077-0.969-0.031-1.924-0.115-2.884-0.269-0.965-0.132-1.887-0.377-2.77-0.76-0.455-0.208-0.965-0.433-1.517-0.68-0.556-0.229-1.023-0.531-1.402-0.913-0.076 0.307-0.114 0.621-0.114 0.952 0.021 0.349 0.021 0.663 0 0.947 0 0.077-0.017 0.2-0.038 0.378-0.031 0.2-0.055 0.399-0.077 0.608v0.569c0 0.17 0.013 0.276 0.039 0.302-0.026 0-0.115-0.133-0.264-0.378-0.152-0.256-0.37-0.586-0.645-0.985-0.256-0.408-0.552-0.871-0.871-1.402-0.306-0.514-0.637-1.037-0.99-1.593-0.357-0.552-0.71-1.101-1.063-1.631-0.332-0.532-0.642-1.024-0.947-1.483-0.285-0.455-0.522-0.832-0.718-1.134-0.183-0.322-0.298-0.551-0.345-0.683-0.076-0.124-0.114-0.2-0.114-0.229 0.021-0.047 0.123-0.086 0.306-0.115 0.094 0 0.416-0.038 0.947-0.11 0.552-0.077 1.223-0.162 2.010-0.269 0.778-0.092 1.614-0.199 2.507-0.301 0.879-0.123 1.716-0.238 2.501-0.344 0.778-0.094 1.449-0.187 2.010-0.263 0.552-0.077 0.884-0.115 0.985-0.115-0.025 0.132-0.101 0.255-0.225 0.378-0.105 0.136-0.221 0.259-0.344 0.382-0.132 0.102-0.255 0.209-0.378 0.302-0.132 0.105-0.216 0.208-0.263 0.301-0.306 0.212-0.629 0.446-0.952 0.722-0.332 0.285-0.595 0.561-0.794 0.837 0.199 0.148 0.399 0.301 0.607 0.455 0.225 0.132 0.434 0.284 0.646 0.455 1.032 0.607 2.141 1.061 3.334 1.363 1.185 0.285 2.371 0.476 3.569 0.57 0.607 0.029 1.231 0.038 1.894 0.038 0.654 0 1.291-0.076 1.899-0.225-0.229-0.608-0.552-1.185-0.952-1.745-0.408-0.579-0.871-1.122-1.402-1.631-0.514-0.501-1.054-0.96-1.631-1.368-0.586-0.425-1.139-0.804-1.669-1.134-1.364-0.913-2.758-1.729-4.172-2.469-1.424-0.731-2.923-1.364-4.516-1.894-0.963-0.352-1.933-0.655-2.918-0.913-0.985-0.246-1.992-0.455-2.999-0.604-0.285-0.021-0.569-0.050-0.871-0.076-0.301-0.047-0.624-0.076-0.947-0.076-0.306 0-0.608 0.029-0.913 0.076-0.284 0.026-0.556 0.094-0.832 0.187-0.378 0.153-0.663 0.361-0.833 0.608-0.153 0.255-0.247 0.551-0.268 0.874 0 0.302 0.047 0.633 0.153 0.986 0.092 0.331 0.237 0.624 0.415 0.87 0.378 0.74 0.871 1.406 1.479 2.010 0.246 0.285 0.513 0.591 0.798 0.913 0.272 0.301 0.586 0.518 0.947 0.642-0.709-0.349-1.384-0.757-2.009-1.212-0.608-0.475-1.131-1.045-1.555-1.707-0.209-0.323-0.399-0.684-0.57-1.061-0.183-0.4-0.297-0.808-0.344-1.216z"></path>
</svg>
