<!-- Generated by IcoMoon.io -->
<svg version="1.1" xmlns="http://www.w3.org/2000/svg" width="32" height="32" viewBox="0 0 32 32">
<title>red_coterie</title>
<path d="M10.307 4.558c0.114 0.268 0.234 0.536 0.354 0.804l0.189-0.189c-0.090-0.179-0.18-0.361-0.272-0.537-0.089-0.172-0.165-0.355-0.24-0.533-0.052-0.125-0.104-0.251-0.161-0.372-0.038-0.080-0.083-0.165-0.13-0.251-0.038-0.071-0.076-0.142-0.111-0.213-0.024-0.048-0.048-0.109-0.070-0.168-0.076 0.068-0.131 0.14-0.125 0.183 0.021 0.142 0.25 0.613 0.386 0.894 0.076 0.156 0.142 0.293 0.18 0.382z"></path>
<path d="M20.748 4.814c0.037-0.086 0.076-0.171 0.113-0.257 0.038-0.089 0.106-0.226 0.18-0.382 0.137-0.281 0.366-0.751 0.386-0.894 0.006-0.044-0.048-0.116-0.125-0.185-0.021 0.061-0.047 0.121-0.070 0.168-0.035 0.072-0.073 0.144-0.111 0.216-0.045 0.085-0.092 0.169-0.128 0.25-0.056 0.121-0.109 0.245-0.162 0.371-0.073 0.178-0.151 0.362-0.24 0.534-0.003 0.006-0.004 0.010-0.007 0.014z"></path>
<path d="M23.724 7.792c0.698-0.685 1.453-1.379 2.258-2.065 0.347-0.296 0.997-0.823 1.224-1.008l-0.080-0.715c-0.118-0.037-0.24-0.069-0.302-0.079-0.424 0.285-0.815 0.681-1.193 1.064-0.276 0.281-0.563 0.569-0.861 0.818l-0.472 0.388c-0.393 0.324-0.789 0.654-1.184 0.987z"></path>
<path d="M25.969 9.117c-0.206 0.103-0.413 0.2-0.619 0.302l0.288 0.289c0.577-0.282 1.122-0.543 1.686-0.788 0.044-0.020 0.099-0.047 0.161-0.078 0.189-0.093 0.413-0.203 0.613-0.251-0.094-0.324-0.171-0.375-0.18-0.381-0.087 0-0.374 0.145-0.468 0.193-0.047 0.024-0.085 0.044-0.11 0.055-0.443 0.196-0.887 0.417-1.315 0.632z"></path>
<path d="M4.24 4.221c0.062 0.066 0.124 0.135 0.186 0.203 0.073 0.083 0.145 0.163 0.219 0.237 0.106 0.107 0.22 0.211 0.334 0.317 0.162 0.148 0.328 0.3 0.478 0.464 0.275 0.299 0.555 0.598 0.839 0.898 0.543 0.575 1.102 1.17 1.616 1.772l0.351-0.35c-0.888-0.912-1.796-1.83-2.726-2.698-0.080-0.075-0.2-0.2-0.337-0.341-0.265-0.274-0.664-0.687-0.812-0.764-0.034-0.017-0.079-0.027-0.128-0.027-0.101 0-0.195 0.035-0.254 0.066 0.073 0.059 0.149 0.132 0.235 0.223z"></path>
<path d="M2.571 21.158c0.010-0.006 0.021-0.011 0.034-0.018 0.044-0.021 0.099-0.049 0.169-0.080 0.348-0.151 0.695-0.312 1.040-0.474l-0.414-0.413c-0.087 0.044-0.175 0.090-0.262 0.134-0.116 0.058-0.254 0.103-0.402 0.151-0.121 0.041-0.247 0.082-0.359 0.13-0.075 0.034-0.138 0.066-0.188 0.1 0.094 0.121 0.193 0.247 0.283 0.355 0.034 0.040 0.072 0.086 0.099 0.116z"></path>
<path d="M21.166 26.802c-0.141-0.317-0.303-0.636-0.461-0.949l-0.268 0.268c0.040 0.086 0.082 0.169 0.123 0.255 0.354 0.751 1.040 2.112 1.267 2.56 0.017-0.013 0.034-0.030 0.048-0.051 0.048-0.079 0.040-0.219-0.024-0.393-0.199-0.546-0.448-1.162-0.685-1.69z"></path>
<path d="M23.487 23.072l-0.354 0.354c0.075 0.076 0.152 0.151 0.227 0.227 0.261 0.261 0.516 0.536 0.763 0.801 0.3 0.323 0.612 0.657 0.928 0.963 0.412 0.398 1.263 1.143 1.491 1.342l0.447-0.023c-0.488-0.52-1.5-1.597-2.096-2.198-0.479-0.484-0.949-0.98-1.405-1.466z"></path>
<path d="M28.078 20.571c-0.069-0.049-0.141-0.097-0.209-0.142-0.099-0.065-0.19-0.125-0.261-0.18-0.247-0.199-0.533-0.331-0.836-0.462l-0.43 0.43c0.038 0.020 0.075 0.040 0.113 0.059 0.128 0.069 0.254 0.138 0.379 0.209 0.447 0.25 0.87 0.486 1.363 0.61 0 0 0.117 0.031 0.135 0.035 0.013-0.018 0.031-0.052 0.061-0.107 0.025-0.049 0.085-0.163-0.316-0.451z"></path>
<path d="M10.011 26.782c-0.003 0.007-0.006 0.013-0.010 0.020-0.234 0.526-0.485 1.142-0.684 1.69-0.065 0.175-0.073 0.314-0.024 0.393 0.013 0.021 0.030 0.037 0.048 0.051 0.168-0.333 0.589-1.167 0.94-1.883z"></path>
<path d="M6.031 22.803c-0.086 0.079-0.172 0.158-0.257 0.237-0.633 0.581-1.265 1.162-1.903 1.734l-0.047 0.042c-0.426 0.382-0.867 0.777-1.279 1.18-0.023 0.023-0.062 0.056-0.109 0.097-0.096 0.086-0.391 0.347-0.42 0.424-0.001 0.045 0.044 0.172 0.458 0.445 0.178-0.214 0.522-0.623 0.671-0.771 0.636-0.63 1.307-1.242 1.996-1.866 0.338-0.306 0.667-0.62 0.997-0.933 0.082-0.078 0.163-0.156 0.247-0.234z"></path>
<path d="M3.82 8.907c0.678 0.299 1.327 0.617 2.041 0.971 0.065 0.031 0.128 0.061 0.193 0.092l0.275-0.275c-0.398-0.195-0.797-0.386-1.191-0.585l-0.062-0.031c-0.416-0.209-0.847-0.426-1.277-0.619-0.024-0.010-0.063-0.030-0.109-0.054-0.092-0.047-0.371-0.19-0.436-0.193-0.017 0.006-0.094 0.048-0.189 0.371 0.196 0.048 0.413 0.156 0.598 0.247 0.061 0.031 0.114 0.058 0.156 0.076z"></path>
<path d="M28.332 15.193c0.117 0.133 0.244 0.255 0.385 0.355-0.915 0.574-1.49 1.524-2.296 2.216-0.837 0.718-1.78 1.32-2.505 2.16-0.94 1.091-2.161 1.961-3.144 3.007-1.32 1.405-2.718 2.753-4.026 4.162-0.381 0.41-0.773 0.809-1.181 1.191-0.275 0.258-0.709 0.441-0.909 0.753-0.282-0.186-0.538-0.443-0.774-0.687-0.727-0.757-1.494-1.477-2.198-2.263-1.933-2.161-4.035-4.224-5.581-6.702-0.368-0.588-0.706-1.164-1.111-1.711-0.648-0.873-0.981-1.971-1.645-2.825 0.32-0.297 0.702-0.515 1.050-0.774 0.32-0.238 0.567-0.539 0.861-0.797 0.802-0.703 1.534-1.47 2.271-2.243 0.911-0.954 1.866-1.892 2.817-2.817 0.881-0.856 1.758-1.71 2.645-2.554 0.357-0.338 0.644-0.706 1.033-1.022 0.392-0.319 0.702-0.688 1.115-0.981 0.235-0.169 0.63-0.661 0.978-0.461 0.495 0.285 1.009 0.585 1.468 0.928 0.801 0.595 1.5 1.308 2.206 2.009 0.317 0.317 0.584 0.602 0.839 0.961 0.386 0.543 0.967 1.066 1.442 1.535 0.627 0.619 1.286 1.207 1.938 1.8 0.616 0.56 1.084 1.241 1.686 1.814 0.557 0.529 1.125 1.046 1.64 1.617 0.357 0.395 0.636 0.918 0.997 1.328zM29.26 14.542c-0.633-0.677-1.269-1.355-1.936-1.999-1.445-1.396-2.78-2.825-4.081-4.355-1.007-1.186-2.22-2.213-3.414-3.206-0.747-0.622-1.444-1.257-2.301-1.731-0.444-0.247-0.873-0.478-1.284-0.781-0.161-0.118-0.522-0.472-0.522-0.472s-0.695 0.661-1.032 0.936c-0.574 0.468-1.128 0.949-1.682 1.439-1.204 1.066-2.288 2.222-3.488 3.289-1.194 1.062-2.357 2.16-3.52 3.254-0.569 0.534-1.087 1.121-1.658 1.649-0.468 0.433-1.228 0.925-1.585 1.496 0.024-0.058-0.11 0.11-0.19 0.189-0.123 0.117-0.262 0.282-0.403 0.351-0.023 0.5 0.467 1.146 0.732 1.556 0.94 1.458 1.79 2.998 2.839 4.384 1.675 2.213 3.337 4.379 5.244 6.403 0.529 0.561 1.035 1.146 1.62 1.649 0.486 0.419 1.077 0.672 1.576 1.078 0.281 0.228 0.309 0.484 0.656 0.214 0.235-0.18 0.462-0.414 0.715-0.602 0.684-0.506 1.303-1.087 1.969-1.614 0.596-0.472 1.077-1.064 1.649-1.568 0.696-0.613 1.356-1.26 2.031-1.896 1.345-1.265 2.577-2.64 3.896-3.93 1.132-1.105 2.32-2.14 3.475-3.223 0.389-0.365 0.798-0.719 1.169-1.097 0.155-0.156 0.31-0.368 0.527-0.416-0.244-0.364-0.694-0.668-1.004-1z"></path>
<path d="M20.987 6.219l-0.010-0.202-0.193-0.008c-0.11-0.006-0.224-0.008-0.338-0.008-0.116 0-0.231 0.003-0.344 0.008l-0.183 0.008-0.018 0.192c-0.131 1.359-0.111 4.194-0.203 5.477-0.238 0.133-0.578 0.448-0.791 0.592-0.286 0.192-0.875 0.526-0.875 0.526l-1.153 0.398c0 0-0.529 0.186-0.765 0.3-0.11 0.052-0.221 0.101-0.334 0.149-0.030-1.026-0.049-1.875-0.049-1.892l-0.004-0.175-1.259-0.281-0.001 0.274c-0.001 0.042-0.007 1.059 0.007 1.58 0.004 0.142 0.004 0.285 0.007 0.427-0.003-0.001-0.007-0.004-0.010-0.007-0.11-0.086-0.224-0.176-0.354-0.245-0.175-0.093-0.358-0.18-0.543-0.269l-0.269-0.131c-0.079-0.040-0.159-0.079-0.237-0.12-0.375-0.199-0.73-0.476-1.074-0.746-0.251-0.196-1.126-0.723-1.126-0.723s-0.013-0.083 0.052-0.441l0.010-0.051 0.011-0.722 0.052-0.76 0.113-1.217-0.014-0.956-1.428 0.529-0.021 0.22c-0.073 0.788-0.066 1.586-0.096 2.367-0.004 0.114-0.027 1.719-0.027 1.719s1.604 1.076 1.71 1.131c0.34 0.179 0.671 0.365 1.004 0.553 0.211 0.118 0.424 0.238 0.637 0.355 0.455 0.25 0.861 0.563 1.255 0.864 0.12 0.093 0.244 0.186 0.368 0.279v0.038c0 0.644 0.001 1.311 0.017 1.972 0.025 1.056-0.044 2.12-0.11 3.149-0.055 0.863-0.11 1.748-0.113 2.639-0.398 0.018-1.5 0.034-1.899 0.034-0.085 0-0.223 0.014-0.383 0.031-0.207 0.021-0.467 0.047-0.688 0.047-0.31 0-0.383-0.052-0.385-0.052-0.075-0.109-0.092-0.68-0.044-1.279 0.193 0.008 0.634-0.158 0.944-0.117l0.227 0.030 0.011-0.238c0.003-0.045 0.008-0.111 0.017-0.189 0.052-0.522 0.008-0.97-0.156-1.166-0.093-0.11-0.331 0.007-0.992 0.007-0.512 0-1.069 0.062-1.091 0.065l-0.193 0.021 0.014 0.875c-0.021 0.079-0.073 0.29-0.094 0.422-0.055 0.334-0.035 0.674-0.017 1.001 0.013 0.209 0.024 0.407 0.017 0.602-0.003 0.055-0.007 0.117-0.011 0.182-0.027 0.366-0.059 0.822 0.233 1.056 0.144 0.116 0.371 0.169 0.718 0.169 0.22 0 0.458-0.023 0.65-0.040 0.114-0.011 0.216-0.020 0.29-0.023 0.823-0.027 2.282-0.040 3.011-0.042h0.061c0.388 0 0.775 0.011 1.163 0.020 0.388 0.011 0.775 0.021 1.163 0.021 0.627 0 1.139-0.027 1.613-0.086 0.066-0.008 0.134-0.011 0.2-0.011 0.138 0 0.276 0.014 0.423 0.028s0.299 0.028 0.451 0.028c0.062 0 0.121-0.003 0.182-0.008 0.19-0.017 0.247-0.235 0.272-0.328 0.148-0.578 0.369-3.682-0.12-4.043-0.176-0.13-0.443-0.19-0.839-0.19-0.221 0-0.451 0.018-0.636 0.034-0.090 0.008-0.173 0.016-0.242 0.018l-0.133 0.018-0.056 0.111c-0.055 0.109-0.21 1.012-0.1 1.204 0.133 0.234 0.392 0.234 0.517 0.234h0.116c0.034 0 0.068 0 0.099 0.004 0.054 0.008 0.107 0.023 0.161 0.037 0.047 0.013 0.097 0.025 0.149 0.035-0.006 0.237-0.045 0.479-0.086 0.733-0.038 0.241-0.078 0.486-0.087 0.732-0.061-0.011-0.127-0.017-0.197-0.017-0.113 0-0.23 0.014-0.345 0.028-0.094 0.011-0.186 0.023-0.269 0.023-0.025 0-0.049-0.001-0.072-0.004l-0.069-0.008c-0.422-0.049-0.82-0.097-1.269-0.097h-0.062c-0.227 0.003-0.454 0.010-0.681 0.020-0.003-0.223 0.006-0.45 0.014-0.675 0.007-0.156 0.013-0.312 0.014-0.46 0.006-0.338 0.041-0.671 0.079-1.022 0.038-0.343 0.076-0.698 0.083-1.057 0.018-1.015-0.018-2.010-0.078-3.194-0.020-0.371-0.038-0.85-0.056-1.362 0.319-0.207 0.663-0.402 1.004-0.589 0.252-0.14 0.502-0.278 0.763-0.434 0.681-0.41 1.324-0.797 2.041-1.107l0.154-0.065 0.928-0.405c0 0 0.070-1.125 0.065-1.452-0.004-0.221-0.008-0.431 0.013-0.636 0.021-0.216 0.048-0.433 0.073-0.65 0.078-0.641 0.158-2.949 0.123-3.615z"></path>
</svg>
