<!-- Generated by IcoMoon.io -->
<svg version="1.1" xmlns="http://www.w3.org/2000/svg" width="35" height="32" viewBox="0 0 35 32">
<title>red_tide_rising</title>
<path d="M33.192 24.493c-0.083 0.012-0.070-0.063-0.107-0.117-0.053-0.075-0.13-0.123-0.195-0.185-0.107-0.107-0.212-0.208-0.328-0.298-0.167-0.127-0.355-0.198-0.523-0.322-0.145-0.105-0.262-0.215-0.423-0.28-0.193-0.077-0.393-0.125-0.582-0.213-0.198-0.092-0.375-0.232-0.573-0.323-0.401-0.188-0.815-0.403-1.231-0.538-0.522-0.168-1.052-0.29-1.57-0.468-0.77-0.263-1.536-0.518-2.298-0.817-0.23-0.090-0.475-0.148-0.687-0.295-0.178-0.123-0.358-0.245-0.535-0.368-0.342-0.237-0.69-0.455-1.035-0.683-0.403-0.268-0.823-0.5-1.223-0.777-0.27-0.185-0.547-0.327-0.823-0.493-0.3-0.18-0.565-0.443-0.873-0.6-0.17-0.087-0.353-0.138-0.522-0.225-0.162-0.085-0.312-0.202-0.462-0.312-0.218-0.16-0.383-0.33-0.563-0.545-0.157-0.187-0.325-0.348-0.43-0.582-0.080-0.183-0.192-0.348-0.265-0.537-0.061-0.162-0.088-0.333-0.152-0.495-0.118-0.308-0.206-0.617-0.303-0.933-0.043-0.133-0.095-0.242-0.152-0.365-0.135-0.298-0.212-0.632-0.318-0.947-0.148-0.435-0.345-0.833-0.465-1.281-0.072-0.273-0.188-0.51-0.197-0.803-0.005-0.222 0.005-0.445 0.002-0.667-0.005-0.405 0.155-0.728 0.297-1.085 0.202-0.508 0.363-1.032 0.682-1.46 0.165-0.223 0.299-0.475 0.455-0.707 0.095-0.143 0.212-0.267 0.313-0.402 0.103-0.14 0.258-0.208 0.347-0.353 0.043-0.067 0.043-0.112 0.105-0.163 0.033-0.028 0.135-0.057 0.165-0.072 0.14-0.073 0.237-0.188 0.378-0.25 0.163-0.072 0.334-0.147 0.5-0.205 0.732-0.252 1.498-0.272 2.245-0.463 0.103-0.027 0.195-0.122 0.291-0.14 0.080-0.015 0.163-0.022 0.245-0.040 0.157-0.035 0.33-0.013 0.49-0.013 0.19 0 0.266 0.013 0.433 0.103 0.135 0.072 0.263 0.123 0.395 0.205 0.208 0.13 0.475 0.297 0.588 0.542 0.005 0.013 0.050 0.137 0.057 0.145 0.024 0.032 0.048 0.055 0.080 0.072 0.009 0.032 0.014 0.065 0.019 0.098 0.080 0.158 0.185 0.337 0.325 0.41 0.067-0.243-0.014-0.51-0.113-0.717-0.060-0.128-0.095-0.262-0.15-0.39-0.050-0.123-0.145-0.22-0.218-0.323-0.105-0.15-0.203-0.293-0.338-0.408-0.255-0.215-0.553-0.325-0.827-0.498-0.128-0.080-0.243-0.153-0.385-0.195-0.273-0.082-0.553-0.11-0.828-0.202-0.231-0.078-0.44-0.048-0.675-0.078-0.376-0.050-0.705-0.168-1.081-0.167-0.435 0.002-0.868 0-1.303 0-0.237 0-0.448-0.008-0.677 0.073-0.256 0.093-0.507 0.198-0.758 0.3-0.147 0.057-0.21 0.115-0.33 0.213-0.107 0.088-0.233 0.127-0.345 0.2-0.187 0.122-0.373 0.325-0.525 0.507-0.16 0.19-0.365 0.298-0.537 0.467-0.152 0.147-0.255 0.345-0.386 0.515-0.218 0.28-0.403 0.64-0.568 0.968-0.075 0.148-0.143 0.308-0.231 0.445-0.102 0.157-0.233 0.275-0.328 0.437-0.088 0.148-0.167 0.283-0.268 0.42-0.136 0.182-0.299 0.318-0.408 0.525-0.1 0.183-0.212 0.358-0.307 0.545-0.055 0.108-0.103 0.223-0.183 0.312-0.067 0.075-0.146 0.14-0.217 0.21-0.086 0.090-0.206 0.175-0.283 0.273-0.088 0.117-0.154 0.26-0.248 0.377-0.113 0.14-0.168 0.26-0.228 0.437-0.086 0.25-0.231 0.467-0.334 0.707-0.077 0.183-0.123 0.38-0.218 0.552-0.090 0.163-0.143 0.338-0.245 0.497-0.215 0.335-0.448 0.652-0.655 0.99-0.060 0.097-0.083 0.233-0.136 0.338-0.072 0.137-0.152 0.262-0.22 0.4-0.111 0.225-0.202 0.473-0.323 0.69-0.097 0.172-0.175 0.288-0.23 0.483-0.111 0.397-0.1 0.812-0.098 1.225 0 0.188-0.033 0.342-0.050 0.52-0.014 0.178-0.105 0.363-0.17 0.525-0.057 0.137-0.058 0.198-0.070 0.345-0.014 0.187-0.1 0.347-0.142 0.525-0.043 0.183-0.060 0.337-0.055 0.528 0.005 0.272-0.11 0.522-0.193 0.763-0.127 0.363-0.154 0.812-0.154 1.196 0 0.312-0.043 0.702 0.048 1.006 0.060 0.203 0.17 0.408 0.241 0.612 0.19 0.533 0.503 1.010 0.645 1.561 0.065 0.257 0.117 0.518 0.188 0.77 0.105 0.367 0.253 0.717 0.361 1.083 0.11 0.375 0.165 0.782 0.316 1.137 0.094 0.22 0.163 0.455 0.252 0.68 0.143 0.363 0.418 0.577 0.668 0.835 0.218 0.223 0.436 0.443 0.657 0.665 0.338 0.342 0.543 0.835 0.823 1.245 0.258 0.378 0.555 0.657 0.853 0.985 0.187 0.203 0.358 0.428 0.533 0.647 0.183-0.165 0.092-0.68 0.057-0.907-0.070-0.46-0.192-0.905-0.237-1.371-0.070-0.735-0.058-1.465-0.108-2.201-0.033-0.51-0.058-1.008-0.063-1.52-0.005-0.445 0.028-0.848 0.217-1.235 0.117-0.237 0.197-0.538 0.274-0.8 0.082-0.273 0.195-0.54 0.293-0.805 0.119-0.315 0.247-0.632 0.347-0.958 0.083-0.272 0.206-0.538 0.238-0.828 0.287 0.195 0.465 0.573 0.747 0.783 0.227 0.167 0.475 0.303 0.725 0.407 0.812 0.337 1.645 0.595 2.42 1.047 0.658 0.383 1.338 0.68 2.070 0.753 0.35 0.035 0.707 0.012 1.058 0.012 0.587 0 1.175 0 1.761 0 0.527 0 1.067-0.047 1.588 0.057 0.3 0.060 0.597 0.137 0.898 0.182 0.55 0.080 1.095 0.208 1.646 0.287 0.718 0.1 1.431 0.24 2.148 0.355 0.21 0.033 0.422 0.058 0.63 0.097 0.23 0.040 0.446 0.133 0.675 0.175 0.425 0.080 0.86 0.215 1.233 0.487 0.41 0.298 0.882 0.452 1.353 0.575 0.252 0.065 0.6 0.088 0.825 0.258-0.34-0.245-0.647-0.545-0.948-0.85-0.168-0.168-0.303-0.33-0.407-0.563-0.069-0.157-0.107-0.258-0.21-0.383-0.361-0.437-0.77-0.728-1.23-1.026z"></path>
<path d="M7.895 24.727c0.185-0.053-0.053-1.323-0.059-1.37-0.051-0.447-0.117-0.89-0.185-1.323-0.043-0.27-0.094-0.508-0.098-0.785-0.014-0.822-0.225-1.63-0.003-2.441 0.051-0.19 0.13-0.348 0.148-0.548 0.024-0.247 0.095-0.453 0.185-0.672 0.117-0.283 0.158-0.625 0.248-0.925 0.092-0.302 0.138-0.645 0.203-0.957 0.133-0.627 0.34-1.228 0.487-1.85 0.077-0.328 0.248-0.605 0.326-0.928 0.072-0.295 0.11-0.552 0.237-0.827 0.108-0.233 0.257-0.418 0.376-0.638 0.123-0.23 0.177-0.525 0.338-0.722 0.162-0.195 0.25-0.433 0.378-0.667 0.132-0.242 0.25-0.482 0.376-0.727 0.188-0.368 0.453-0.703 0.692-1.030 0.218-0.3 0.502-0.473 0.732-0.755 0.225-0.277 0.482-0.52 0.698-0.802 0.067-0.088 0.098-0.202 0.163-0.29 0.233-0.32 0.422-0.642 0.708-0.907 0.158-0.143 0.29-0.298 0.436-0.458 0.208-0.227 0.462-0.405 0.683-0.613 0.163-0.152 0.342-0.267 0.507-0.41 0.16-0.137 0.303-0.288 0.473-0.415 0.18-0.132 0.357-0.275 0.548-0.382 0.217-0.122 0.453-0.162 0.677-0.253 0.372-0.152 0.742-0.288 1.125-0.395 0.253-0.072 0.513-0.062 0.772-0.070 0.195-0.007 0.383-0.065 0.578-0.063 0.615 0.005 1.23 0.017 1.845 0.003 0.405-0.008 0.785 0.193 1.157 0.365 0.155 0.070 0.312 0.147 0.463 0.225 0.148 0.077 0.312 0.14 0.455 0.225 0.11 0.067 0.19 0.155 0.29 0.238 0.092 0.077 0.205 0.113 0.305 0.17 0.19 0.105 0.38 0.308 0.528 0.485 0.090 0.108 0.157 0.193 0.222 0.323 0.058 0.118 0.158 0.21 0.213 0.333 0.057 0.125 0.033 0.273 0.078 0.402 0.024 0.073 0.083 0.137 0.102 0.215 0.019 0.083 0.009 0.153 0.047 0.233 0.043 0.102 0.108 0.178 0.152 0.28 0.063 0.152 0.142 0.315 0.157 0.48 0.014 0.175 0.052 0.358 0.086 0.528 0.014 0.080 0.002 0.153 0.009 0.233 0.009 0.1 0.050 0.138 0.075 0.237 0.028 0.108 0.028 0.208 0.069 0.313 0.067 0.18 0.171 0.335 0.252 0.507 0.103 0.225 0.237 0.407 0.365 0.608 0.065 0.102 0.095 0.222 0.17 0.313 0.085 0.102 0.202 0.187 0.297 0.275 0.183 0.173 0.305 0.278 0.515 0.378 0.111 0.053 0.227 0.115 0.338 0.168 0.202 0.098 0.397 0.122 0.617 0.152 0.185 0.027 0.673 0.152 0.775-0.125 0.038-0.112 0.072-0.357 0.057-0.477-0.019-0.145-0.103-0.258-0.152-0.392-0.105-0.297-0.298-0.438-0.558-0.528-0.158-0.055-0.337-0.055-0.498-0.092-0.103-0.023-0.235-0.055-0.27-0.182-0.014-0.055-0.009-0.278 0.014-0.33 0.222-0.028 0.45-0.008 0.675-0.008 0.115 0 0.335 0.058 0.392-0.083 0.019-0.042 0.024-0.242 0.003-0.275-0.052-0.1-0.27-0.045-0.348-0.050-0.171-0.010-0.375-0.108-0.458-0.298-0.118-0.268 0.22-0.345 0.39-0.348 0.308-0.010 0.618 0.002 0.928 0.002 0.383 0 0.795 0.055 1.175-0.002 0.113-0.018 0.213-0.082 0.323-0.113 0.102-0.028 0.197-0.060 0.298-0.092 0.033-0.010 0.105-0.010 0.132-0.035 0.009-0.008 0.063-0.173 0.053-0.153 0.019-0.037 0.055-0.065 0.073-0.103 0.033-0.080 0.028-0.155 0.028-0.247-0.009-0.222-0.118-0.508-0.317-0.545-0.478-0.085-0.96 0.090-1.415 0.233-0.157 0.048-0.282 0.063-0.445 0.063-0.080 0-0.197 0.028-0.272 0.007-0.094-0.027-0.21-0.172-0.283-0.243-0.108-0.103-0.155-0.252-0.078-0.407 0.128-0.265 0.487-0.202 0.648-0.425 0.175-0.238 0.009-0.598-0.152-0.767-0.16-0.167-0.267-0.222-0.475-0.213-0.337 0.013-0.533 0.388-0.855 0.412-0.218 0.015-0.245-0.113-0.32-0.325-0.047-0.13-0.097-0.247-0.152-0.368-0.043-0.098-0.024-0.16-0.052-0.258-0.024-0.082-0.1-0.135-0.142-0.205-0.058-0.093-0.078-0.148-0.163-0.213-0.127-0.095-0.235-0.163-0.373-0.223-0.118-0.050-0.222-0.16-0.342-0.208-0.055-0.022-0.137-0.003-0.179-0.063-0.052-0.072-0.024-0.263-0.009-0.347 0.085-0.417 0.28-1.050 0.019-1.416-0.173-0.243-0.438-0.392-0.673-0.533-0.098-0.058-0.332-0.243-0.457-0.218-0.205 0.042-0.2 0.257-0.218 0.445-0.019 0.178-0.048 0.372-0.1 0.54-0.062 0.197-0.125 0.442-0.255 0.592-0.082 0.095-0.383 0.077-0.508 0.057-0.188-0.028-0.34-0.148-0.512-0.24-0.206-0.112-0.417-0.248-0.638-0.307-0.21-0.055-0.42-0.080-0.625-0.128-0.25-0.060-0.533-0.030-0.793-0.030h-2.943c-0.75 0-1.508-0.048-2.256-0.002-0.21 0.013-0.408 0.16-0.58 0.292-0.225 0.173-0.477 0.367-0.722 0.495-0.513 0.27-1.017 0.595-1.548 0.813-0.119 0.048-0.242 0.062-0.36 0.108-0.146 0.058-0.287 0.148-0.432 0.218-0.322 0.155-0.713 0.298-0.977 0.573-0.158 0.167-0.365 0.242-0.547 0.365-0.103 0.072-0.192 0.167-0.297 0.235-0.107 0.068-0.192 0.13-0.285 0.223-0.128 0.127-0.288 0.178-0.428 0.288-0.155 0.122-0.325 0.197-0.485 0.31-0.115 0.083-0.217 0.175-0.34 0.245-0.146 0.083-0.31 0.142-0.446 0.245-0.195 0.15-0.361 0.333-0.572 0.462-0.094 0.058-0.16 0.135-0.252 0.198-0.133 0.092-0.282 0.153-0.417 0.237-0.275 0.172-0.523 0.407-0.788 0.6-0.445 0.325-0.785 0.782-1.11 1.263-0.171 0.253-0.353 0.498-0.543 0.722-0.158 0.183-0.233 0.438-0.368 0.648-0.086 0.135-0.193 0.252-0.285 0.38-0.072 0.097-0.103 0.217-0.185 0.302-0.111 0.118-0.235 0.208-0.332 0.348-0.128 0.185-0.22 0.403-0.335 0.6-0.123 0.215-0.253 0.422-0.368 0.643-0.206 0.402-0.348 0.847-0.588 1.225-0.392 0.618-0.822 1.22-1.123 1.908-0.050 0.113-0.103 0.177-0.173 0.267-0.073 0.095-0.102 0.2-0.148 0.318-0.095 0.245-0.223 0.442-0.29 0.702-0.108 0.418-0.274 0.827-0.35 1.255-0.154 0.853-0.467 1.675-0.458 2.556 0.009 1.123-0.048 2.258 0.003 3.379 0.009 0.253 0.024 0.537 0.102 0.777 0.077 0.243 0.181 0.475 0.263 0.717 0.197 0.58 0.5 1.103 0.743 1.653 0.158 0.357 0.4 0.713 0.647 0.986 0.14 0.153 0.263 0.262 0.44 0.342 0.195 0.090 0.386 0.215 0.59 0.278 0.413 0.128 0.82 0.292 1.25 0.305 0.19 0.007 0.373 0.058 0.563 0.062 0.29 0.005 0.582-0.003 0.872-0.002 0.247 0.002 0.415-0.028 0.633-0.162 0.173-0.107 0.325-0.312 0.465-0.477 0.138-0.162 0.225-0.365 0.35-0.538 0.187-0.257 0.37-0.51 0.517-0.802 0.095-0.185 0.197-0.347 0.245-0.56 0.048-0.212 0.082-0.435 0.123-0.65z"></path>
</svg>
