<!-- Generated by IcoMoon.io -->
<svg version="1.1" xmlns="http://www.w3.org/2000/svg" width="32" height="32" viewBox="0 0 32 32">
<title>return_to_disappearance_at_the_twilight_estate</title>
<path d="M20.073 18.242c-1.243 0-1.703-1.55-1.703-2.787s0.184-2.421 1.703-2.421c1.519 0 1.704 1.185 1.704 2.421s-0.46 2.787-1.704 2.787zM21.135 19.758c-0.048 0.056-0.109 0.045-0.173 0.051-0.062 0.004-0.126 0.012-0.186 0.027l-0.004-0.004c0.027-0.099 0.076-0.193 0.154-0.262 0.038-0.031 0.090-0.053 0.139-0.035l0.012 0.004c0.1 0.035 0.126 0.144 0.059 0.223zM16.466 15.207c-1.243 0-1.703-1.55-1.703-2.787s0.184-2.421 1.703-2.421c1.52 0 1.704 1.185 1.704 2.421s-0.46 2.787-1.704 2.787zM16.329 21.555c-1.243 0-1.704-1.55-1.704-2.786s0.184-2.421 1.704-2.421c1.519 0 1.704 1.185 1.704 2.421s-0.46 2.786-1.704 2.786zM12.721 18.246c-1.243 0-1.704-1.55-1.704-2.787s0.184-2.421 1.704-2.421c1.52 0 1.704 1.185 1.704 2.421s-0.46 2.787-1.704 2.787zM23.999 16.506c-0.13 0.131-0.161 0.253-0.334 0.338-0.344 0.169-0.765-0.035-0.963-0.348-0.089-0.141-0.095-0.258-0.093-0.427 0.001-0.135 0.13-0.446-0.063-0.392-0.056 0.015-0.138-0.008-0.163-0.066l-0.015-0.038c-0.043-0.098-0.031-0.211 0.072-0.27 0.183-0.108 0.435-0.079 0.586 0.082 0.237 0.252-0.027 0.639 0.167 0.881 0.326 0.404 0.684-0.294 0.976-0.402 0.126-0.047 0.273-0.049 0.412-0.019-0.126-0.468-0.232-0.905-0.457-0.882-0.276 0.027-0.41-0.361-0.223-0.534 0.136-0.126 0.341-0.194 0.446-0.351 0.197-0.291 0.083-0.752-0.2-0.962-0.225 0.127-0.506 0.228-0.582 0.219-0.268-0.031-0.552-0.235-0.714-0.442-0.135-0.173-0.162-0.353-0.388-0.46-0.288-0.137-0.488 0.066-0.333 0.36 0.077 0.147-0.104 0.281-0.226 0.174-0.344-0.304-0.231-0.951 0.189-1.154 0.249-0.12 0.546-0.039 0.767 0.095 0.048 0.031 0.219 0.156 0.363 0.292 0.031-0.114 0.072-0.23 0.135-0.327 0.027-0.043 0.058-0.080 0.090-0.116l-0.019-0.015c-0.098-0.071-0.175-0.108-0.253-0.205-0.066-0.083-0.098-0.207-0.151-0.286-0.163 0.045-0.338 0.040-0.479-0.023-0.146-0.067-0.128-0.289 0-0.361 0.135-0.075 0.323-0.127 0.488-0.104 0.080-0.121 0.069-0.309-0.058-0.384-0.089 0.031-0.189 0.042-0.304 0.031-0.127-0.015-0.333-0.155-0.454-0.13-0.176 0.13-0.353 0.259-0.53 0.389-0.015 0.088-0.023 0.176-0.019 0.264-0.093 0.155-0.157 0.251-0.319 0.362-0.077 0.053-0.165-0.065-0.098-0.126 0.308-0.287 0.277-0.727 0.609-0.986 0.238-0.186 0.53-0.088 0.768-0.163l0.003-0.008c-0.019-0.008-0.040-0.015-0.061-0.027-0.315-0.153-0.385-0.471-0.605-0.677-0.027 0.031-0.053 0.065-0.086 0.088-0.068 0.047-0.164 0.087-0.244 0.102-0.202 0.039-0.334-0.043-0.452-0.201-0.151-0.201-0.255-0.42-0.401-0.624-0.027 0.14-0.126 0.253-0.155 0.384-0.063 0.293-0.119 0.145 0.081 0.472 0.121 0.198 0.237 0.359 0.099 0.597-0.176 0.304-0.481 0.108-0.669 0.314 0.038-0.042 0.139 0.214 0.115 0.36-0.055 0.331-0.447 0.468-0.502 0.821-0.023 0.146-0.271 0.144-0.296 0-0.057-0.334-0.027-0.362 0.134-0.629 0.091-0.153 0.213-0.165 0.226-0.365 0.003-0.047-0.1-0.105-0.097-0.162 0.008-0.142 0.031-0.206 0.121-0.322 0.059-0.078 0.148-0.123 0.208-0.19 0.053-0.027 0.11-0.031 0.171-0.008-0.061-0.066-0.121-0.133-0.178-0.202-0.158-0.228-0.319-0.313-0.285-0.617 0.031-0.258 0.24-0.455 0.305-0.7-0.115-0.057-0.224-0.131-0.348-0.169-0.206-0.063-0.388-0.035-0.594 0.023-0.080 0.023-0.151-0.027-0.178-0.1-0.031-0.081-0.053-0.194-0.083-0.301-0.195 0.003-0.402-0.015-0.525 0.086-0.184 0.155-0.090 0.455-0.238 0.651-0.136 0.18-0.371 0.433-0.584 0.523-0.019 0.008-0.136 0.035-0.164 0.031l-0.008 0.004c-0.019 0.060 0.055 0.214 0.065 0.268 0.031 0.148-0.165 0.237-0.248 0.103-0.031-0.047-0.055-0.1-0.075-0.155-0.080 0.015-0.171-0.027-0.164-0.128 0.012-0.173 0.049-0.313 0.209-0.409 0.070-0.041 0.137-0.061 0.199-0.075 0.023-0.035 0.047-0.073 0.073-0.113 0.060-0.092 0.16-0.175 0.231-0.264l0-0.008c-0.008-0.384-0.113-0.717 0.11-1.046-0.2 0.1-0.384 0.216-0.444 0.327-0.056 0.105-0.183 0.141-0.293 0.118-0.221-0.045-0.3-0.139-0.461-0.274-0.163-0.138-0.137-0.141-0.397-0.157-0.043-0.003-0.084-0.004-0.124-0.008-0.035 0.046-0.072 0.091-0.116 0.135-0.038 0.085-0.096 0.171-0.189 0.255-0.091 0.082-0.21 0.132-0.313 0.195-0.121 0.123-0.209 0.251-0.214 0.395l0 0.023c0.001 0.061 0.019 0.124 0.054 0.191 0.164 0.302 0.845 0.307 0.73 0.798-0.103 0.444-0.564 0.488-0.842 0.208-0.083-0.083 0.023-0.222 0.126-0.162 0.198 0.17 0.282 0.048 0.254-0.365-0.103-0.067-0.214-0.119-0.332-0.155-0.085-0.050-0.131-0.027-0.191-0.107-0.060-0.078-0.082-0.164-0.086-0.253-0.035-0.027-0.060-0.066-0.073-0.102-0.091-0.253-0.135-0.552-0.104-0.834-0.233 0.069-0.515 0.32-0.732 0.361-0.205 0.038-0.375-0.023-0.533-0.12-0.015 0.008-0.031 0.019-0.044 0.027 0.071 0.239-0.090 0.502 0.019 0.738 0.111 0.241 0.476 0.361 0.66 0.557 0.201 0.215 0.276 0.494 0.116 0.752-0.038 0.061-0.144 0.072-0.179 0-0.071-0.143-0.158-0.472-0.256-0.532-0.103-0.063-0.203-0.023-0.305-0.041-0.194-0.038-0.369-0.137-0.481-0.306-0.103-0.154-0.148-0.351-0.12-0.535 0.003-0.015 0.008-0.038 0.015-0.056-0.035 0.001-0.068 0.001-0.102-0-0.149 0.078-0.317 0.065-0.467 0.001-0.061 0.046-0.13 0.090-0.183 0.127-0.111 0.031-0.136 0.046-0.073 0.042-0.019 0.027-0.042 0.052-0.067 0.075-0.001 0.191-0.038 0.418-0.115 0.592l-0.004 0.008c0.015 0.012 0.027 0.023 0.040 0.038 0.275 0.224 0.723 0.234 1.013 0.436 0.244 0.17 0.458 0.507 0.418 0.828-0.015 0.108-0.086 0.185-0.113 0.295-0.027 0.093-0.035 0.187-0.027 0.282 0.031 0.145 0.101 0.166 0.209 0.065-0.159-0.174 0.090-0.425 0.261-0.259 0.342 0.331-0.074 0.81-0.487 0.658-0.161-0.059-0.26-0.132-0.312-0.288-0.047-0.141 0.019-0.339 0.008-0.486-0.052-0.576-0.152-0.437-0.568-0.545-0.659-0.171-1.135-0.406-1.378-1.036-0.060 0.379-0.080 0.757 0.079 1.057 0.035 0.068 0.047 0.135 0.041 0.197 0.015 0.035 0.027 0.067 0.045 0.102 0.044 0.086 0.101 0.175 0.114 0.273 0.003 0.023-0.015 0.043-0.039 0.038-0.057-0.008-0.11 0.012-0.166-0.012-0.047-0.019-0.080-0.061-0.11-0.101-0.058 0.015-0.116 0.012-0.167-0.012-0.057 0.003-0.116-0.008-0.176-0.035-0.359-0.169-0.93 0.065-0.914 0.479 0.148 0.023 0.288 0.076 0.41 0.178 0.268 0.223 0.282 0.646 0.681 0.713 0.384 0.064 0.378-0.242 0.656-0.401 0.387-0.221 0.91 0.052 0.822 0.49-0.031 0.145-0.235 0.154-0.305 0.040-0.088-0.143-0.695 0.339-0.832 0.373-0.278 0.068-0.758-0.061-0.977-0.243-0.163-0.136-0.194-0.377-0.41-0.465-0.254-0.103-0.697 0.117-0.919 0.25-0.192 0.115-0.327 0.266-0.433 0.437 0.085 0.514-0.377 1.333 0.055 1.466 0.181-0.045 0.397-0.061 0.565-0.023 0.090 0.019 0.149 0.063 0.235 0.099 0.027 0.008 0.049 0.023 0.068 0.043 0.259 0.334 0.481 0.324 0.665-0.031-0.226-0.14-0.019-0.496 0.209-0.355 0.345 0.213 0.44 0.734 0.062 0.999-0.476 0.333-0.919-0.208-1.326-0.331-0.572-0.172-0.814 0.292-0.856 0.74 0.114 0.015 0.231 0.052 0.323 0.097 0.137 0.067 0.286 0.135 0.395 0.246 0.059 0.060 0.089 0.139 0.133 0.207 0.012-0.012 0.258 0.21 0.336 0.24 0.012-0.052 0.023-0.098 0.035-0.123 0.059-0.108 0.223-0.077 0.256 0.035 0.035 0.119 0.008 0.217-0.055 0.293-0.008 0.088-0.015 0.175-0.085 0.238-0.112 0.098-0.219 0.052-0.354 0.070-0.491 0.067-0.666 0.545-0.766 0.998 0.173 0.276 0.334 0.556 0.605 0.76 0.174 0.131 0.26 0.276 0.356 0.177 0.055-0.057 0.031-0.233 0.066-0.309 0.086-0.197 0.177-0.279 0.382-0.325 0.18-0.040 0.356 0.072 0.519-0.083 0.147-0.14 0.084-0.71-0.185-0.486-0.086 0.072-0.206 0.023-0.216-0.088-0.055-0.615 0.782-0.41 0.936 0.008 0.074 0.2 0.019 0.595-0.099 0.775-0.159 0.24-0.598 0.263-0.711 0.471-0.169 0.31 0.047 0.6-0.407 0.746-0.429 0.138-0.812-0.091-1.151-0.324-0.019 0.096-0.052 0.201-0.099 0.326-0.019 0.053-0.041 0.072-0.058 0.086-0.003 0.051-0.015 0.096-0.035 0.134 0.027 0.117 0.139 0.236 0.233 0.307l0.027 0.019c0.298-0.041 0.486-0.175 0.788-0.040 0.107 0.048 0.184 0.088 0.254 0.186 0.031 0.053 0.060 0.109 0.081 0.167l0.008 0.031c0.125 0.041 0.072-0.023 0.256-0.084 0.068-0.023 0.115-0.035 0.175-0.031 0.015-0.023 0.031-0.051 0.048-0.072 0.135-0.163 0.375-0.194 0.502-0.357 0.086-0.109 0.040-0.238 0.174-0.346 0.319-0.258 0.713 0.044 1.037-0.078 0.112-0.042 0.241 0.088 0.2 0.198-0.059 0.16-0.146 0.177-0.304 0.209-0.139 0.027-0.483-0.073-0.591 0.015-0.053 0.043-0.015 0.225-0.053 0.279-0.175 0.242-0.322 0.198-0.536 0.358-0.148 0.111-0.219 0.248-0.242 0.435-0.060 0.498 0.078 0.355 0.304 0.592 0.11 0.115 0.201 0.29 0.235 0.444 0.116 0.52-0.16 0.375 0.342 0.598 0.015 0.008 0.031 0.015 0.048 0.019 0.001-0.134 0.031-0.251 0.076-0.411 0.012-0.041 0.031-0.075 0.057-0.103 0.015-0.102 0.038-0.205 0.060-0.318 0.068-0.33-0.106-0.693 0.076-1.006 0.137-0.238 0.452-0.429 0.707-0.509 0.523-0.166 1.347 0.157 1.313 0.809-0.015 0.321-0.4 0.68-0.669 0.345-0.093-0.115-0.008-0.276 0.145-0.247 0.341 0.066-0.048-0.291-0.091-0.324-0.221-0.171-0.463-0.242-0.679 0.019-0.173 0.211-0.085 0.493-0.077 0.738 0.004 0.165-0.070 0.301-0.080 0.451-0.019 0.308 0.116 0.558 0.273 0.814 0.093 0.152 0.16 0.373 0.186 0.605l0.015 0.023c0.075 0.095 0.514 0.376 0.644 0.349 0.256-0.052 0.155-0.468 0.205-0.629 0.131-0.423 0.656-0.276 0.969-0.351 0.167-0.039 0.4-0.21 0.184-0.384-0.093-0.075-0.268-0.042-0.387-0.083-0.023-0.008-0.049-0.023-0.070-0.040-0.108 0.012-0.221-0.046-0.237-0.143-0.015-0.004-0.031-0.012-0.048-0.023-0.049-0.041-0.063-0.106-0.068-0.167-0.008-0.114 0.164-0.156 0.215-0.058 0.019 0.035 0.043 0.070 0.052 0.11l0.001 0.008c0.019 0.008 0.047 0.019 0.064 0.038l0 0 0.008 0c0.008-0.004 0.027-0.001 0.040 0.003 0.39-0.173 0.824-0.023 0.921 0.419 0.051 0.229 0.019 0.463-0.166 0.616-0.080 0.065-0.17 0.095-0.266 0.119-0.107 0.027-0.708-0.004-0.71-0.003 0.008-0.012 0.038 0.14 0.060 0.277 0.062 0.080 0.134 0.188 0.214 0.204 0.213 0.043 0.232-0.111 0.386-0.191 0.232-0.121 0.491-0.194 0.749-0.056 0.133 0.071 0.435 0.533 0.263 0.406 0.285 0.246 0.639 0.477 0.95 0.684 0.073 0.049 0.158 0.118 0.239 0.197 0.015-0.019 0.035-0.035 0.052-0.056 0.031-0.035 0.088-0.095 0.106-0.151-0.008-0-0.027-0.023-0.045-0.041-0.125-0.127-0.332-0.162-0.457-0.322-0.114-0.146-0.171-0.296-0.156-0.482 0.031-0.363 0.261-0.733 0.595-0.887 0.17-0.078 0.748-0.101 0.6-0.31-0.038-0.052 0.012-0.132 0.074-0.128 0.293 0.019 0.397 0.314 0.263 0.558-0.124 0.227-0.313 0.185-0.485 0.328-0.2 0.167 0.043 0.226 0.213 0.356 0.234 0.18 0.385 0.405 0.433 0.645 0.071-0.055 0.144-0.112 0.22-0.158 0.058-0.035 0.219-0.074 0.259-0.122 0.081-0.098-0.027-0.239-0.023-0.376 0.004-0.084 0.084-0.157 0.172-0.13 0.298 0.092 0.311 0.293 0.324 0.565 0.008 0.145 0.040 0.271 0.113 0.383 0.095 0.047 0.175 0.121 0.227 0.22 0.015 0.008 0.031 0.019 0.045 0.027 0.031-0.264 0.159-0.544 0.301-0.655 0.077-0.060 0.196-0.146 0.312-0.2-0.218-0.116-0.378-0.309-0.413-0.555-0.040-0.278 0.134-0.469 0.174-0.732 0.088-0.565-0.096-0.404-0.398-0.595-0.143-0.090-0.249-0.22-0.268-0.394-0.027-0.235 0.108-0.252-0.015-0.47-0.079-0.143-0.257-0.241-0.374-0.357-0.068-0.068 0.001-0.194 0.097-0.165 0.256 0.080 0.617 0.142 0.749 0.403 0.131 0.259-0.043 0.342 0.198 0.495 0.265 0.168 0.394 0.124 0.546 0.448 0.163 0.348 0.061 0.626 0.063 0.969 0.012-0.012 0.027-0.023 0.051-0.023 0.2-0.023 0.376-0.019 0.56 0.060l0.012-0.038c0.046-0.161 0.065-0.46 0.173-0.605 0.248-0.334 0.768-0.081 1.096-0.183 0.149-0.046 0.317-0.169 0.471-0.321-0.317 0.039-0.61 0.048-0.923-0.093-0.147-0.067-0.335-0.136-0.454-0.249-0.063-0.059-0.086-0.089-0.122-0.161-0.003-0.019-0.004-0.038-0.008-0.056 0.015-0.136-0.041-0.208-0.166-0.216-0.254-0.257-0.292-0.336-0.133-0.684 0.012-0.027 0.050-0.015 0.058 0.008 0.096 0.27 0.461 0.219 0.601 0.461 0.095 0.163 0.015 0.339 0.19 0.453 0.173 0.111 0.104 0.039 0.238-0.077 0.099-0.085 0.183-0.184 0.28-0.269 0.218-0.193 0.458-0.323 0.755-0.328 0.116-0.001 0.232 0.015 0.343 0.051 0.090-0.073 0.205-0.1 0.289-0.178-0.031-0.126-0.040-0.255-0.019-0.371 0.047-0.272 0.312-0.559-0.019-0.686-0.286-0.11-0.535 0.019-0.755-0.339-0.069-0.112-0.063-0.238-0.128-0.347-0.123-0.204-0.321-0.094-0.404 0.109-0.027 0.068-0.135 0.084-0.156 0-0.079-0.302 0.284-0.553 0.564-0.552 0.163 0 0.303 0.061 0.407 0.19 0.085 0.107 0.083 0.282 0.212 0.345 0.084 0.041 0.27-0.052 0.35-0.069 0.213-0.043 0.408-0.048 0.578-0.008 0.091-0.086 0.178-0.135 0.316-0.213 0.104-0.2 0.181-0.409 0.211-0.523 0.057-0.215 0.118-0.447 0.121-0.671 0.003-0.165 0.008-0.384-0.103-0.523-0.255-0.318-0.425-0.122-0.628 0.083z"></path>
<path d="M25.994 16.768c-0.103 0.553-0.379 1.046-0.52 1.587-0.118 0.455-0.239 0.974-0.459 1.391-0.11 0.209-0.276 0.292-0.408 0.476-0.12 0.167-0.184 0.442-0.276 0.629-0.218 0.444-0.463 0.846-0.76 1.241-0.286 0.38-0.691 0.638-1.040 0.961-0.382 0.355-0.762 0.711-1.161 1.047-0.138 0.116-0.284 0.212-0.434 0.298-0.243 0.212-0.568 0.348-0.904 0.423-0.544 0.238-0.98 0.503-1.575 0.585-0.898 0.124-1.832 0.351-2.718 0.105-0.665-0.184-1.361-0.174-2.022-0.374-0.619-0.188-1.277-0.389-1.876-0.63-1.144-0.459-2.128-1.498-2.985-2.35-0.445-0.442-0.893-0.84-1.275-1.341-0.343-0.452-0.485-0.832-0.682-1.35-0.367-0.963-0.72-2.043-0.814-3.084-0.059-0.654-0.019-1.3 0.164-1.931 0.158-0.544 0.436-1.064 0.569-1.608 0.234-0.954 0.701-1.844 1.348-2.594 0.159-0.184 0.324-0.295 0.507-0.447 0.231-0.193 0.371-0.428 0.575-0.642 0.299-0.313 0.633-0.721 0.978-0.98 0.434-0.325 0.99-0.588 1.462-0.851 0.259-0.145 0.542-0.196 0.795-0.351 0.196-0.12 0.353-0.238 0.576-0.31 0.36-0.116 0.642-0.167 0.966-0.376 0.236-0.151 0.437-0.272 0.711-0.335 0.532-0.122 1.136-0.143 1.676-0.107 0.585 0.040 1.192-0.072 1.763 0.076 0.448 0.116 0.768 0.266 1.227 0.238 0.241-0.015 0.367 0.219 0.34 0.418 0.087 0.027 0.174 0.051 0.271 0.061 0.177 0.019 0.317-0.015 0.485 0.057 0.526 0.227 0.939 0.665 1.455 0.914 0.358 0.172 0.748 0.436 1.028 0.714 0.263 0.262 0.532 0.512 0.78 0.801 0.357 0.417 0.472 0.916 0.742 1.38 0.251 0.431 0.556 0.884 0.743 1.354 0.269 0.308 0.382 0.74 0.298 1.175 0.070 0.344 0.153 0.683 0.325 1.019 0.465 0.905 0.297 1.767 0.121 2.71zM30.201 17.42c-0.035-0.1-0.074-0.203-0.078-0.306-0.004-0.088 0.069-0.183 0.055-0.266-0.043-0.249-0.111-0.492-0.17-0.738-0.015 0.003-0.035 0.008-0.050 0.008-0.004 0.049-0.008 0.098-0.015 0.146-0.052-0.081-0.092-0.166-0.088-0.249 0.012-0.231 0.043-0.461 0.064-0.692 0.031-0.369 0.085-0.732-0.045-1.103-0.146-0.414-0.264-0.84-0.286-1.285-0.008-0.165-0.035-0.33-0.058-0.494-0.019-0.129-0.042-0.257-0.071-0.384-0.019-0.077-0.052-0.15-0.075-0.227-0.035-0.117-0.071-0.234-0.097-0.352-0.008-0.040 0.031-0.1 0.012-0.129-0.164-0.266-0.197-0.572-0.284-0.862-0.012-0.043-0.027-0.090-0.053-0.122-0.123-0.144-0.254-0.281-0.377-0.424-0.023-0.027-0.027-0.073-0.050-0.146-0.199-0.226-0.442-0.469-0.644-0.741-0.28-0.376-0.528-0.776-0.793-1.163-0.045-0.065-0.105-0.121-0.157-0.181-0.119-0.137-0.238-0.274-0.362-0.416 0.035-0.015 0.053-0.023 0.070-0.031-0.263-0.357-0.526-0.714-0.792-1.076-0.015 0.045-0.027 0.081-0.039 0.116-0.012 0.003-0.023 0.004-0.038 0.008-0.060-0.144-0.133-0.284-0.177-0.432-0.038-0.126-0.098-0.205-0.221-0.254-0.081-0.031-0.153-0.094-0.223-0.15-0.064-0.051-0.113-0.123-0.179-0.17-0.186-0.132-0.371-0.272-0.572-0.378-0.286-0.151-0.506-0.371-0.723-0.599-0.119-0.124-0.234-0.252-0.357-0.373-0.041-0.040-0.096-0.080-0.151-0.092-0.38-0.085-0.763-0.161-1.143-0.244-0.063-0.015-0.129-0.035-0.18-0.072-0.19-0.135-0.369-0.285-0.562-0.413-0.227-0.151-0.464-0.288-0.699-0.426-0.118-0.070-0.235-0.159-0.364-0.188-0.371-0.083-0.747-0.141-1.122-0.206-0.039-0.008-0.081 0.001-0.121 0.008-0.132 0.015-0.271 0.067-0.395 0.043-0.377-0.072-0.723 0.049-1.070 0.146-0.18 0.051-0.326 0.004-0.474-0.072-0.019-0.008-0.015-0.067-0.023-0.143-0.29-0.061-0.612-0.147-0.94-0.19-0.195-0.027-0.399 0.019-0.599 0.027-0.085 0.004-0.175 0.012-0.256-0.008-0.15-0.035-0.295-0.121-0.443-0.123-0.259-0.001-0.519 0.056-0.779 0.066-0.116 0.004-0.137 0.119-0.218 0.139-0.153 0.038-0.31 0.056-0.466 0.082-0.001-0.004-0.001-0.012-0.001-0.015 0.039-0.019 0.078-0.039 0.145-0.072-0.299-0.058-0.361-0.038-0.53 0.145-0.027 0.031-0.055 0.070-0.090 0.080-0.189 0.058-0.314 0.213-0.484 0.299-0.058 0.031-0.112 0.068-0.166 0.106-0.116 0.081-0.219 0.192-0.348 0.239-0.402 0.148-0.813 0.271-1.221 0.405-0.083 0.027-0.163 0.058-0.245 0.088 0.004 0.015 0.008 0.027 0.012 0.043l0.226-0.043c0.008 0.015 0.012 0.027 0.019 0.040-0.075 0.039-0.146 0.095-0.226 0.114-0.117 0.027-0.241 0.195-0.362 0.001-0.004-0.008-0.040-0.003-0.058 0.003-0.351 0.113-0.712 0.208-1.010 0.441-0.154 0.121-0.287 0.291-0.461 0.357-0.221 0.083-0.377 0.223-0.534 0.379-0.027 0.027-0.063 0.047-0.095 0.071-0.18 0.137-0.367 0.264-0.535 0.414-0.104 0.092-0.178 0.218-0.269 0.335-0.067-0.080-0.087-0.104-0.134-0.159-0.104 0.118-0.194 0.226-0.292 0.329-0.272 0.286-0.518 0.597-0.852 0.821-0.061 0.041-0.105 0.109-0.15 0.168-0.148 0.193-0.288 0.39-0.439 0.58-0.334 0.421-0.674 0.838-0.895 1.334-0.035 0.077-0.096 0.141-0.146 0.211-0.008 0.008-0.023 0.015-0.047 0.027 0.008-0.045 0.015-0.078 0.023-0.111-0.083 0.055-0.159 0.119-0.184 0.199-0.098 0.31-0.18 0.625-0.266 0.938-0.056 0.202-0.084 0.416-0.168 0.605-0.18 0.406-0.384 0.802-0.587 1.197-0.041 0.081-0.148 0.13-0.183 0.212-0.076 0.178-0.144 0.362-0.183 0.551-0.073 0.351-0.121 0.708-0.188 1.060-0.019 0.098-0.082 0.188-0.093 0.286-0.065 0.555-0.027 1.12-0.214 1.661-0.126 0.364-0.069 0.754 0.001 1.106 0.114 0.581 0.121 1.159 0.133 1.743 0.003 0.141 0.058 0.285 0.106 0.422 0.089 0.255 0.19 0.506 0.285 0.76 0.008 0.023 0.015 0.049 0.008 0.070-0.031 0.108-0.057 0.224 0.049 0.295 0.2 0.135 0.262 0.323 0.256 0.547-0.001 0.035 0.012 0.070 0.019 0.104 0.101 0.596 0.346 1.141 0.628 1.668 0.178 0.333 0.387 0.65 0.58 0.976 0.090 0.152 0.174 0.307 0.258 0.462 0.086 0.16 0.143 0.344 0.261 0.476 0.225 0.253 0.472 0.49 0.732 0.706 0.296 0.246 0.631 0.436 0.855 0.772 0.156 0.235 0.411 0.403 0.594 0.624 0.291 0.349 0.556 0.72 0.84 1.075 0.051 0.063 0.14 0.126 0.217 0.135 0.242 0.027 0.486 0.035 0.73 0.035 5.168-0.019 10.337-0.042 15.506-0.065 0.112-0.001 0.224 0 0.335-0.012 0.045-0.004 0.103-0.027 0.129-0.060 0.239-0.319 0.471-0.643 0.707-0.964 0.035-0.047 0.077-0.092 0.125-0.126 0.175-0.126 0.354-0.246 0.531-0.369 0.031-0.023 0.062-0.056 0.098-0.065 0.422-0.103 0.768-0.294 0.918-0.735 0.052-0.152 0.124-0.298 0.2-0.441 0.108-0.205 0.212-0.415 0.346-0.602 0.246-0.345 0.515-0.674 0.771-1.013 0.042-0.055 0.075-0.12 0.1-0.185 0.292-0.768 0.583-1.534 0.969-2.264 0.104-0.196 0.161-0.45 0.142-0.669-0.040-0.47 0.004-0.912 0.214-1.336 0.031-0.058 0.049-0.121 0.075-0.182 0.106-0.254 0.196-0.516 0.325-0.758 0.062-0.117 0.116-0.213 0.072-0.345z"></path>
<path d="M8.065 27.833c0.126 0.116 0.249 0.234 0.379 0.347 0.043 0.038 0.102 0.073 0.16 0.085 0.404 0.079 0.81 0.15 1.215 0.228 0.066 0.015 0.137 0.035 0.191 0.067 0.202 0.125 0.392 0.265 0.597 0.385 0.241 0.14 0.493 0.268 0.743 0.396 0.125 0.065 0.25 0.148 0.387 0.175 0.394 0.078 0.794 0.131 1.192 0.192 0.041 0.008 0.086-0.001 0.128-0.004 0.14-0.015 0.288-0.062 0.42-0.040 0.401 0.067 0.767-0.046 1.136-0.136 0.191-0.047 0.346-0.004 0.503 0.067 0.019 0.008 0.015 0.063 0.027 0.133 0.308 0.056 0.65 0.137 0.999 0.177 0.207 0.023 0.424-0.019 0.637-0.027 0.091-0.004 0.185-0.012 0.272 0.008 0.159 0.031 0.314 0.113 0.471 0.114 0.275 0.001 0.551-0.052 0.827-0.062 0.124-0.004 0.145-0.11 0.231-0.129 0.162-0.035 0.329-0.052 0.494-0.076 0.001 0.004 0.001 0.008 0.001 0.015-0.042 0.019-0.083 0.038-0.154 0.068 0.318 0.054 0.383 0.035 0.564-0.135 0.031-0.027 0.058-0.065 0.095-0.075 0.201-0.054 0.334-0.198 0.514-0.279 0.062-0.027 0.119-0.063 0.176-0.098 0.123-0.075 0.233-0.179 0.369-0.223 0.427-0.138 0.864-0.253 1.297-0.377 0.088-0.027 0.173-0.054 0.26-0.082-0.004-0.015-0.008-0.027-0.012-0.040-0.080 0.015-0.16 0.027-0.24 0.040-0.008-0.012-0.015-0.027-0.019-0.038 0.079-0.035 0.155-0.088 0.24-0.106 0.124-0.027 0.256-0.182 0.384-0.001 0.004 0.008 0.042 0.003 0.061-0.003 0.373-0.106 0.756-0.193 1.072-0.41 0.163-0.112 0.304-0.271 0.489-0.332 0.136-0.045 0.247-0.108 0.349-0.18h-16.888c0.154 0.109 0.294 0.231 0.432 0.357z"></path>
</svg>
