<!-- Generated by IcoMoon.io -->
<svg version="1.1" xmlns="http://www.w3.org/2000/svg" width="32" height="32" viewBox="0 0 32 32">
<title>return_to_black_stars_rise</title>
<path d="M14.475 4c-0.047 0.026-0.091 0.050-0.136 0.074-0.030 0.012-0.060 0.026-0.086 0.039-0.054 0.021-0.104 0.045-0.153 0.065-0.097 0.039-0.185 0.073-0.254 0.106l0.154-0.106c-0.094 0.064-0.173 0.106-0.256 0.151l0.117-0.009c-0.101 0.045-0.182 0.087-0.19 0.069-0.084 0.082 0.114 0.030-0.063 0.175-0.070 0.025-0.164 0.084-0.251 0.134-0.044 0.024-0.087 0.043-0.122 0.058-0.019 0.006-0.033 0.012-0.046 0.014-0.008 0-0.014-0.003-0.021-0.010 0.006-0.001 0.034-0.015 0.052-0.024 0.020-0.011 0.037-0.021 0.052-0.027 0.026-0.015 0.042-0.025 0.052-0.033 0.016-0.016 0.005-0.021-0.009-0.022-0.028-0.007-0.067-0.013 0.103-0.112-0.064 0.042-0.143 0.086-0.245 0.132-0.018 0.001 0.008-0.022 0.033-0.038-0.028 0.011-0.069 0.028-0.076 0.029-0.004-0.001-0.004-0.001-0.007 0-0.004-0.001-0.005 0.001-0.005 0.002-0.008 0.002-0.035 0.006-0.045 0.010-0.029 0.008-0.047 0.020-0.072 0.031-0.049 0.022-0.117 0.048-0.312 0.051 0.039-0.025-0.023-0.040-0.091-0.048 0.043 0.017-0.042 0.057-0.168 0.079-0.294-0.020-0.318 0.027-0.472 0.027l0.175 0.009c-0.027 0.018-0.078 0.028-0.144 0.034-0.069 0.005-0.157 0.009-0.261 0.015-0.008 0.002-0.019 0.005-0.027 0.010-0.007-0.005 0.004-0.014 0.024-0.024-0.076 0.029-0.113 0.040-0.173 0.055-0.057 0.009-0.118 0.020-0.18 0.033-0.122 0.022-0.252 0.052-0.377 0.112-0.147 0.022-0.033-0.059-0.161-0.034-0.125 0.060-0.212 0.083-0.29 0.099-0.039 0.008-0.073 0.014-0.113 0.022-0.020 0.004-0.039 0.009-0.062 0.014-0.012 0.004-0.023 0.005-0.034 0.009-0.021 0.006-0.041 0.013-0.062 0.019-0.020 0.012-0.041 0.025-0.063 0.038-0.013 0.007-0.027 0.017-0.041 0.026-0.029 0.019-0.058 0.042-0.091 0.067 0.116-0.016 0.126-0.035-0.076 0.142l0.302-0.208 0.274-0.106-0.122 0.067c-0.046 0.022-0.068 0.037-0.141 0.069-0.055 0.041-0.074 0.064-0.106 0.093 0.038-0.024 0.078-0.051 0.115-0.076 0.040-0.015 0.079-0.031 0.117-0.045 0.035-0.014 0.066-0.028 0.096-0.039 0.063-0.026 0.119-0.045 0.161-0.057-0.168 0.096-0.155 0.079-0.058 0.089-0.052 0.001-0.102 0.010-0.149 0.022-0.024 0.006-0.050 0.015-0.072 0.024l-0.084 0.033c-0.066 0.049-0.132 0.097-0.202 0.149-0.066 0.048-0.138 0.091-0.221 0.125l-0.053-0.103c-0.295 0.135-0.515 0.331-0.786 0.518-0.088 0.048-0.221 0.112-0.355 0.165l0.177-0.058c-0.051 0.074-0.321 0.153-0.48 0.247-0.001-0.042-0.111-0.006-0.194 0.002 0.019 0.024-0.378 0.171-0.398 0.266l-0.069 0.021-0.062 0.045-0.046 0.029-0.089 0.057c-0.349 0.304-0.303 0.445-0.633 0.741 0.067-0.122-0.098-0.002 0.094-0.23-0.106 0.102-0.206 0.188-0.189 0.209-0.017 0.008-0.042 0.030-0.067 0.057-0.028 0.031-0.061 0.070-0.096 0.112-0.031 0.058-0.067 0.121-0.098 0.178-0.030 0.050-0.059 0.094-0.088 0.12-0.021 0.061 0.002 0.101-0.089 0.237-0.017 0.012-0.019-0.010-0.019-0.010 0.017 0.011-0.12 0.231-0.003 0.134-0.079 0.070-0.156 0.163-0.233 0.268-0.039 0.050-0.076 0.106-0.113 0.163-0.035 0.052-0.070 0.106-0.105 0.16-0.060 0.054-0.122 0.109-0.182 0.163-0.064 0.054-0.127 0.109-0.187 0.161-0.123 0.101-0.241 0.185-0.343 0.233-0.131 0.122-0.274 0.257-0.405 0.379-0.064 0.181-0.123 0.347-0.172 0.491-0.005-0.022-0.017-0.008 0.005-0.058-0.174 0.367 0.019 0.271-0.177 0.69-0.141 0.199 0.050-0.24-0.022-0.112-0.041 0.005-0.071 0.047-0.099 0.115-0.014 0.034-0.028 0.074-0.043 0.117-0.011 0.039-0.031 0.101-0.033 0.115-0.004 0.011-0.026 0.045-0.050 0.077l-0.067 0.099c-0.046 0.062-0.097 0.119-0.151 0.163l0.039-0.065c-0.176 0.164-0.305 0.495-0.542 0.801 0 0-0.001-0.022-0.017-0.014-0.006 0.020-0.021 0.053-0.048 0.099-0.014 0.074-0.031 0.158-0.048 0.251-0.017 0.084-0.038 0.173-0.060 0.264-0.045 0.182-0.095 0.372-0.139 0.537-0.013-0.125 0.025-0.168-0.045-0.118-0.045 0.162 0.092-0.020 0.003 0.302-0.026 0.043-0.053 0.094-0.091 0.166-0.034 0.1-0.066 0.178-0.101 0.194l0.029-0.211 0.039-0.12c-0.012 0.015-0.026 0.027-0.036 0.045-0.009 0.015-0.017 0.035-0.031 0.069-0.004 0.024-0.008 0.045-0.014 0.070l-0.010 0.060c-0.004 0.040-0.003 0.080-0.005 0.12-0.004 0.080-0.008 0.158-0.024 0.221l-0.027-0.027c-0.060 0.466 0.011 0.502-0.062 0.975-0.001 0.006-0.005 0.015-0.007 0.024 0.006-0.009 0.013-0.016 0.019-0.022 0.005-0.005 0.010-0.008 0.015-0.017 0.001 0.012 0.001 0.015 0.002 0.021 0 0.257-0.1 0.201-0.112 0.479l-0.098 0.063c-0.029 0.184-0.078 0.655-0.16 0.98 0.004-0.195 0.062-0.585 0.091-0.829-0.031 0.119-0.061 0.304-0.091 0.475 0.012 0.239-0.054 0.528-0.158 0.882-0.041-0.034-0.091 0.052-0.142 0.19-0.026 0.069-0.052 0.153-0.081 0.24-0.031 0.099-0.063 0.202-0.094 0.304 0.005 0.036 0.011 0.073 0.017 0.108 0.002 0.025 0.005 0.048 0.009 0.072 0.005 0.045 0.012 0.091 0.015 0.134 0.005 0.082 0.003 0.151-0.009 0.201 0.042 0.155 0.076 0.313 0.106 0.472 0.014 0.080 0.028 0.161 0.043 0.242 0.013 0.086 0.026 0.17 0.039 0.259 0.054 0.167 0.108 0.339 0.165 0.515 0.056 0.171 0.116 0.347 0.184 0.528 0.020-0.294 0.078 0.207 0.177 0.122 0.029 0.075 0.048 0.126 0.062 0.161 0.004 0.026 0.008 0.062 0.005 0.067v0.002l0.012 0.542c-0.015 0.131-0.054-0.164-0.077-0.142 0.052 0.384-0.024 0.169-0.015 0.427 0.035-0.059 0.081 0.124 0.101 0.345l0.007-0.316c0.071 0.252 0.066 0.357 0.063 0.491 0.009 0.149 0.005 0.255 0.11 0.53l-0.079-0.158c0.036 0.105 0.083 0.282 0.136 0.474 0.029 0.096 0.057 0.195 0.084 0.292 0.016 0.046 0.033 0.094 0.046 0.139 0.019 0.050 0.036 0.097 0.051 0.142 0.021 0.046 0.027 0.053 0.038 0.076 0.013 0.019 0.023 0.035 0.033 0.052 0.021 0.034 0.045 0.063 0.065 0.086 0.005 0.051-0.002 0.123-0.057 0.012 0.069 0.181 0.151 0.372 0.237 0.561 0.090 0.195 0.181 0.391 0.268 0.578 0.049 0.067 0.096 0.131 0.142 0.194 0.040 0.057 0.079 0.113 0.117 0.168 0.075 0.11 0.139 0.214 0.19 0.314l-0.051-0.027c0.076 0.1 0.168 0.151 0.232 0.299-0.016 0-0.055-0.026-0.024 0.022 0.015 0.017 0.048 0.054 0.088 0.098 0.019 0.022 0.038 0.045 0.060 0.070 0.022 0.029 0.038 0.045 0.077 0.099 0.028 0.025 0.056 0.053 0.082 0.077 0.021 0.021 0.039 0.040 0.057 0.060l-0.125-0.076c0.447 0.484 0.778 0.641 1.191 1.004-0.061 0.063 0.293 0.433 0.47 0.618l-0.015 0.002c0.135 0.129 0.263 0.243 0.388 0.352 0.12 0.114 0.237 0.22 0.352 0.323 0.118 0.104 0.23 0.205 0.35 0.309 0.057 0.054 0.117 0.106 0.177 0.161 0.031 0.028 0.061 0.055 0.093 0.084 0.035 0.032 0.071 0.066 0.106 0.099 0.014 0.007 0.028 0.018 0.045 0.027 0.104 0.107 0.272 0.241 0.47 0.386 0.101 0.071 0.207 0.147 0.317 0.225 0.121 0.085 0.248 0.171 0.374 0.257 0.145 0.040 0.291 0.081 0.431 0.12 0.125 0.038 0.246 0.076 0.357 0.113-0.1-0.042 0.034-0.062 0.156-0.039 0.156 0.059 0.456 0.056 0.41 0.127l-0.055-0.017c0.015 0.016 0.037 0.033 0.063 0.048 0.012 0.007 0.024 0.015 0.039 0.022 0.019 0.006 0.009 0.004 0.015 0.010-0.007 0.001 0.044 0.034 0.081 0.055 0.040 0.024 0.080 0.048 0.122 0.072 0.085 0.046 0.174 0.095 0.254 0.139l0.088-0.070c0.092 0.081 0.203 0.158 0.323 0.233 0.059 0.038 0.119 0.077 0.182 0.112 0.070 0.039 0.14 0.075 0.211 0.113l0.216 0.072c0.065 0.020 0.13 0.038 0.194 0.058 0.129 0.040 0.257 0.078 0.371 0.113 0.23 0.074 0.417 0.149 0.52 0.232 0.026 0.005 0.033 0.005 0.088 0.019 0.079 0.011 0.166 0.021 0.251 0.031 0.081 0.008 0.161 0.020 0.233 0.022l-0.021 0.053c0.179 0.040 0.321 0.072 0.468 0.105 0.074 0.016 0.149 0.032 0.23 0.048 0.091 0.018 0.189 0.038 0.3 0.060 0.064-0.006 0.184-0.020 0.317-0.031l-0.115 0.050c0.322-0.021 0.395-0.192 0.691-0.216l0.094 0.077 0.245-0.015 0.254-0.010 0.314-0.045 0.297-0.046c0.197-0.034 0.392-0.078 0.583-0.139-0.007 0.014-0.021 0.041-0.11 0.060 0.077-0.013 0.199-0.030 0.328-0.050 0.072-0.004 0.146-0.007 0.216-0.010 0.074-0.005 0.145-0.012 0.202-0.021 0.116-0.016 0.186-0.041 0.149-0.079 0.014 0.074 0.582-0.032 0.882-0.093l-0.041 0.062c0.249-0.102 0.254-0.123 0.607-0.187 0.085-0.004 0.080 0.033-0.033 0.033 0.284-0.006 0.211-0.077 0.556-0.091l-0.122 0.052c0.141-0.016 0.207-0.028 0.256-0.043s0.078-0.031 0.178-0.065c0.001-0.001 0.006-0.006 0.010-0.009 0.024-0.017 0.050-0.039 0.079-0.060 0.022-0.015 0.049-0.029 0.074-0.046 0.052-0.033 0.108-0.067 0.163-0.094 0.107-0.055 0.206-0.092 0.237-0.082 0.016-0.047 0.127-0.166 0.28-0.247 0.030 0.004-0.017 0.046-0.039 0.067 0.1-0.054 0.184-0.108 0.257-0.158 0.038-0.028 0.071-0.051 0.106-0.076l0.046-0.036 0.029-0.022c0.015-0.008 0.060-0.025 0.101-0.038 0.040-0.014 0.078-0.029 0.118-0.041 0.079-0.022 0.159-0.041 0.251-0.048 0.012 0.015 0.032 0.018 0.062 0.017-0.22 0.055-0.412 0.106-0.522 0.134-0.022 0.014-0.040 0.024-0.050 0.029-0.016 0.011-0.022 0.012-0.017 0.009 0.011 0.020 0.078-0.004 0.086 0.007 0.014 0.005 0.020 0.010 0.027 0.019 0.004 0.008-0.001 0.024 0 0.039 0 0.003 0.001 0.007 0.002 0.010 0-0.002 0.001-0.007 0.002-0.010 0.016-0.006 0.031-0.013 0.046-0.021 0.035-0.014 0.070-0.030 0.106-0.046 0.073-0.030 0.15-0.062 0.228-0.094 0.156-0.064 0.32-0.121 0.463-0.146 0.015 0.001 0.029 0.001 0.041 0.005l-0.029 0.012c0.069-0.013 0.132-0.032 0.187-0.055 0.047-0.008 0.087-0.017 0.125-0.024 0.044-0.008 0.059-0.012 0.149-0.034 0.016 0.005 0.053 0.001 0.11-0.010 0.032-0.032 0.073-0.076 0.118-0.127 0.025-0.030 0.051-0.061 0.079-0.094 0.054-0.065 0.112-0.133 0.151-0.18-0.051-0.025 0.085-0.178-0.072-0.060 0.019-0.017-0.014 0.028-0.081 0.108-0.013 0.020-0.029 0.041-0.036 0.055 0-0.004 0.001-0.008 0.002-0.014l-0.202 0.247-0.172 0.046c0.035-0.020 0.105-0.047 0.158-0.067 0.019-0.026 0.038-0.053 0.058-0.081 0.016-0.021 0.034-0.046 0.053-0.069 0.031-0.040 0.069-0.077 0.115-0.115 0.024-0.085 0.053-0.176 0.070-0.225 0.197-0.112 0.495-0.401 0.568-0.413 0.050-0.066 0.101-0.137 0.156-0.209 0.075-0.064 0.152-0.13 0.228-0.194 0.081-0.071 0.159-0.139 0.235-0.204 0.149-0.136 0.275-0.265 0.347-0.374 0.097-0.094 0.139-0.072 0.189-0.091-0.056 0.057-0.129 0.113-0.153 0.151 0.189-0.196 0.641-0.478 0.649-0.577 0.297-0.17-0.117 0.165 0.257-0.113l-0.038 0.053c0.1-0.052 0.19-0.107 0.276-0.163 0.043-0.030 0.084-0.058 0.125-0.086 0.051-0.038 0.102-0.074 0.151-0.112l0.062-0.115 0.039-0.079 0.070-0.158c0.046-0.105 0.094-0.21 0.141-0.316 0.094-0.209 0.204-0.439 0.333-0.647 0.090-0.084 0.221-0.197 0.353-0.293-0.056 0.044-0.083 0.066-0.101 0.069 0.136-0.12 0.269-0.246 0.402-0.372l0.196-0.196 0.208-0.204c0.272-0.436 0.501-0.822 0.781-1.253l0.082-0.254 0.082-0.237c0.056-0.159 0.116-0.313 0.178-0.465 0.091-0.239 0.090-0.314 0.099-0.443 0-0.034 0.003-0.073 0.003-0.12l0.072-0.057 0.007-0.347c0.059-0.482 0.322-0.784 0.376-1.4l-0.057 0.069c0.059-0.212 0.141-0.684 0.177-0.637-0.001-0.025-0.024-0.078 0.015-0.158h0.034l0.010-0.079 0.019-0.106-0.041-0.115v0.005l-0.033-0.089-0.070-0.18c-0.088-0.409 0.139 0.033-0.014-0.559-0.073-0.216-0.258-0.601-0.256-0.513 0.022 0.089 0.043 0.231 0.014 0.247l-0.069-0.196c-0.006-0.001-0.014-0.002-0.021-0.003l-0.010-0.033 0.292-1.433-0.257-0.961 0.022 0.019-0.034-0.065-0.082-0.305c0.012 0.006 0.031 0.031 0.052 0.091-0.007-0.090-0.020-0.135-0.036-0.178-0.036-0.062-0.065-0.083-0.091-0.208-0.004-0.024 0.005-0.017 0.017 0l-0.117-0.194c0.034 0.032 0.038-0.059 0.084 0.072-0.125-0.387-0.33-0.566-0.338-0.729l0.021 0.027c-0.195-0.371-0.139-0.196-0.204-0.242l-0.003-0.010-0.034-0.244 0.077-0.208-0.067-0.048c-0.006-0.056-0.015-0.17 0.012-0.153-0.069-0.207-0.022 0.040-0.077-0.079 0.014-0.217-0.060-0.527-0.064-0.722-0.031-0.055-0.050-0.1-0.038-0.125-0.1-0.056 0.136 0.244-0.074 0.015 0.032-0.131-0.218-0.266-0.333-0.499 0.090 0.031 0.21 0.243 0.096 0.010-0.164-0.070-0.277-0.41-0.419-0.571-0.066 0.035-0.298-0.361-0.527-0.638 0.034 0.004-0.366-0.572-0.527-0.867l0.014 0.002c-0.096-0.012-0.279-0.304-0.434-0.504 0.041-0.016 0.083 0.011 0.175 0.113l-0.132-0.197c-0.051-0.032-0.101-0.088-0.194-0.209l0.079 0.021-0.070-0.094-0.096-0.081-0.084-0.069c-0.056-0.045-0.117-0.093-0.177-0.141-0.12-0.099-0.243-0.205-0.365-0.34-0.035 0.016 0.042 0.156-0.010 0.165l-0.16-0.149c0.017-0.007 0.045-0.002 0.091 0.031-0.030-0.022-0.113-0.070-0.16-0.129l0.158 0.082c-0.122-0.14-0.098-0.037-0.204-0.141 0.030-0.026-0.059-0.094-0.022-0.103 0.030 0.022 0.083 0.098 0.136 0.125-0.059-0.057-0.135-0.136-0.17-0.184-0.025-0.050-0.062-0.123-0.067-0.154-0.011 0.026-0.043 0.035-0.12-0.060-0.191-0.25-0.028-0.116-0.122-0.274-0.067-0.044-0.166-0.22-0.216-0.19-0.055-0.074-0.044-0.102-0.053-0.141-0.032-0.031-0.081-0.091-0.134-0.156-0.062-0.076-0.127-0.159-0.182-0.228-0.191-0.047-0.24-0.049-0.175 0l0.046 0.017c-0.011-0.001-0.021-0.005-0.033-0.007-0.221-0.039-0.441-0.104-0.661-0.175l-0.329-0.11c-0.105-0.035-0.205-0.069-0.307-0.101l-0.087-0.076-0.103-0.082 0.012-0.014c-0.255-0.189-0.543-0.448-0.741-0.564-0.071-0.060-0.144-0.17-0.099-0.161-0.029-0.021-0.055-0.042-0.072-0.055-0.045-0.019-0.082-0.033-0.118-0.046-0.034-0.014-0.066-0.028-0.099-0.043-0.069-0.034-0.148-0.078-0.276-0.158 0.234 0.077-0.062-0.063 0.235 0.089-0.275-0.155-0.325-0.215-0.65-0.317 0.124 0.005-0.179-0.16-0.328-0.218l0.185 0.132c-0.044-0.019-0.085-0.038-0.125-0.057-0.046-0.022-0.092-0.046-0.136-0.069-0.075-0.012-0.145-0.020-0.216-0.033l0.087-0.055c-0.311-0.081-0.601-0.084-0.873-0.093-0.135-0.004-0.265-0.009-0.393-0.026-0.125-0.018-0.243-0.058-0.357-0.113-0.175 0.012 0.337 0.098 0.178 0.122-0.287-0.065-0.571-0.217-0.662-0.233-0.16-0.048-0.254-0.052-0.338-0.050-0.043 0.002-0.080 0.005-0.123 0.007-0.021 0.001-0.047 0.001-0.070 0-0.028-0.001-0.046-0.001-0.094-0.009-0.030 0-0.062 0.002-0.098 0.002-0.031 0-0.066-0.002-0.106-0.005 0.055 0.025 0.106 0.086-0.211 0.105-0.295-0.014-0.362-0.104-0.175-0.12 0.071-0.001 0.106 0.006 0.103 0.015 0.096-0.007 0.22-0.015 0.103-0.043l-0.039 0.024c-0.146-0.028-0.552-0.031-0.455-0.069-0.225 0.020-0.099 0.036 0.067 0.051-0.245-0.027-0.432-0.023-0.623-0.026-0.090-0.006-0.214-0.018-0.345-0.038 0.061 0.019 0.116 0.051 0.055 0.045-0.568-0.081-0.255 0.021-0.642-0.003-0.216-0.055 0.086-0.077-0.305-0.082-0.236-0.046-0.045-0.066 0.050-0.077-0.043 0.001-0.084 0.001-0.125 0l-0.088-0.005c-0.034-0.004-0.068-0.006-0.101-0.010h-0.002zM16.775 5.703h0.055c0.016 0.045 0.022 0.088 0.021 0.137-0.005 0.129-0.002 0.257-0.002 0.384 0 0.023 0.002 0.048 0.005 0.072 0.011 0.070 0.018 0.141 0.031 0.211 0.012 0.063 0.025 0.128 0.045 0.19 0.038 0.12 0.056 0.242 0.052 0.369-0.005 0.137-0.004 0.274-0.022 0.41-0.009 0.066-0.005 0.131 0.005 0.196 0.008 0.059 0.014 0.118 0.012 0.177-0.004 0.087 0.004 0.172 0.019 0.257 0.004 0.027 0.010 0.054 0.007 0.079-0.011 0.118 0.013 0.231 0.031 0.347 0.031 0.191 0.056 0.382 0.064 0.575 0.013 0.271 0.049 0.54 0.106 0.805 0.011 0.045 0.028 0.084 0.069 0.11 0.035 0.020 0.052 0.056 0.064 0.094 0.045 0.142 0.091 0.283 0.13 0.426 0.057 0.207 0.119 0.411 0.202 0.609 0.025 0.056 0.033 0.119 0.052 0.178 0.015 0.045 0.031 0.091 0.052 0.132 0.027 0.054 0.054 0.106 0.062 0.166 0.004 0.023 0.010 0.047 0.015 0.070 0.016 0.075 0.046 0.139 0.112 0.185 0.024 0.017 0.050 0.035 0.050 0.072-0.013 0.023-0.038 0.027-0.060 0.027-0.101 0.007-0.202 0.009-0.3-0.027-0.135-0.053-0.272-0.046-0.412-0.026-0.141 0.020-0.284 0.039-0.426 0.055-0.045 0.004-0.089-0.002-0.134 0-0.070 0.004-0.143 0.010-0.213 0.014-0.036 0.002-0.072 0.007-0.106 0.007-0.052 0.004-0.101 0.005-0.151 0.012-0.024 0-0.047 0.004-0.070 0-0.191-0.027-0.386-0.039-0.58-0.031-0.034 0.001-0.070 0-0.106-0.003-0.027-0.002-0.043-0.042-0.024-0.062 0.095-0.096 0.134-0.225 0.194-0.34 0.124-0.235 0.239-0.477 0.357-0.717 0.083-0.172 0.137-0.355 0.196-0.535 0.015-0.046 0.025-0.093 0.027-0.139 0.016-0.218 0.063-0.43 0.117-0.64 0.052-0.197 0.084-0.396 0.103-0.597 0.009-0.109 0.037-0.216 0.060-0.323 0.033-0.15 0.050-0.299 0.065-0.45 0.026-0.267 0.016-0.536 0.012-0.803v-0.091c-0.003-0.090 0.012-0.177 0.052-0.259 0.033-0.064 0.048-0.134 0.041-0.206-0.012-0.139 0.008-0.279 0.022-0.419 0.004-0.038 0.016-0.075 0.029-0.112 0.020-0.062 0.036-0.124 0.041-0.19 0.004-0.054 0.016-0.105 0.026-0.158 0.009-0.047 0.015-0.094-0.015-0.137-0.029-0.041-0.005-0.073 0.022-0.103zM17.771 12.541c0.053 0 0.107 0.002 0.161 0.002 0.059-0.001 0.11 0.016 0.158 0.065-0.003 0.073-0.007 0.145-0.034 0.211-0.039 0.095-0.049 0.195-0.046 0.297 0.003 0.080 0.003 0.161-0.002 0.24-0.005 0.071-0.015 0.142-0.022 0.213-0.006 0.054-0.013 0.106-0.014 0.16-0.001 0.126-0.006 0.252 0.002 0.376 0.006 0.097 0.019 0.194 0.041 0.29 0.036 0.17 0.052 0.34 0.046 0.515-0.004 0.107 0.010 0.213 0.015 0.319 0.004 0.077 0.007 0.154 0.014 0.232 0.018 0.216 0.039 0.432 0.034 0.65-0.001 0.030-0.004 0.060-0.005 0.093-0.024 0.003-0.044 0.005-0.065 0.005-0.103 0.001-0.207 0.004-0.311 0-0.2-0.007-0.399 0.007-0.597 0.038-0.248 0.034-0.497 0.050-0.746 0.065-0.17 0.010-0.337 0.012-0.506 0.009-0.168-0.003-0.332 0.007-0.504 0.010-0.004-0.010-0.011-0.026-0.012-0.043-0.001-0.309-0.003-0.619-0.002-0.928 0-0.056 0.008-0.112 0.014-0.168 0.004-0.045 0.010-0.089 0.009-0.134-0.007-0.14 0.009-0.278 0.041-0.415 0.022-0.093 0.029-0.187 0.026-0.283-0.009-0.182 0.002-0.362 0.021-0.544 0.006-0.059 0.005-0.119 0.005-0.178-0.001-0.255-0.003-0.51-0.005-0.767-0.001-0.039-0.009-0.078-0.009-0.117 0-0.067 0.031-0.095 0.098-0.101 0.165-0.013 0.331-0.023 0.498-0.036 0.066-0.004 0.131-0.006 0.197-0.003 0.083 0.001 0.165-0.005 0.247-0.024 0.081-0.020 0.164-0.026 0.247-0.022 0.146 0.004 0.291 0.006 0.436-0.014 0.035-0.004 0.071-0.003 0.106-0.003 0.155-0.002 0.309-0.004 0.465-0.007zM18.931 12.903c0.187 0 0.363-0.003 0.537 0.003 0.091 0.003 0.184 0.020 0.274 0.038 0.117 0.023 0.234 0.034 0.353 0.043 0.104 0.010 0.208 0.024 0.307 0.058 0.085 0.027 0.174 0.033 0.262 0.029 0.143-0.007 0.286-0.012 0.427-0.015 0.143 0 0.286-0.007 0.427-0.024 0.087-0.013 0.174 0.004 0.259 0.017 0.007 0.003 0.015 0.007 0.027 0.014 0.018 0.127 0.078 0.239 0.132 0.353 0.039 0.080 0.075 0.164 0.103 0.247 0.042 0.131 0.11 0.243 0.214 0.333 0.047 0.041 0.093 0.083 0.137 0.127 0.034 0.033 0.067 0.067 0.094 0.105 0.148 0.206 0.292 0.415 0.458 0.606 0.066 0.075 0.108 0.163 0.151 0.252 0.032 0.067 0.068 0.13 0.101 0.197 0.022 0.045 0.041 0.092 0.060 0.139 0.015 0.040 0.031 0.074 0.064 0.105 0.034 0.033 0.063 0.069 0.077 0.122-0.014 0.004-0.027 0.014-0.039 0.014-0.073 0.010-0.142-0.007-0.211-0.021-0.097-0.023-0.194-0.033-0.292-0.033-0.102-0.004-0.203-0.007-0.304-0.017-0.085-0.007-0.171-0.022-0.257-0.022-0.035-0.001-0.069-0.014-0.105-0.021-0.11-0.030-0.221-0.044-0.335-0.043-0.101 0.003-0.202-0.002-0.304 0-0.1 0.003-0.179-0.035-0.244-0.108-0.021-0.023-0.041-0.053-0.062-0.077-0.062-0.077-0.122-0.153-0.185-0.228-0.066-0.078-0.138-0.146-0.221-0.206-0.084-0.061-0.161-0.132-0.237-0.202-0.032-0.030-0.056-0.071-0.081-0.108-0.071-0.101-0.141-0.206-0.214-0.307-0.024-0.034-0.052-0.065-0.082-0.093-0.039-0.034-0.075-0.067-0.096-0.117-0.025-0.002-0.049-0.003-0.072-0.003-0.135 0.001-0.268 0.004-0.402 0.007-0.131 0.002-0.26-0.001-0.391-0.017-0.087-0.010-0.178-0.007-0.266-0.007-0.109 0-0.134-0.020-0.134-0.129-0.001-0.077 0-0.154 0-0.232 0.001-0.027 0.006-0.054 0.010-0.081 0.028-0.14 0.044-0.28 0.038-0.424-0.003-0.059 0.001-0.12 0.005-0.178 0.001-0.030 0.008-0.058 0.012-0.094v-0.002zM17.004 13.105c-0.042-0.001-0.063 0.024-0.046 0.063 0.026 0.063 0.020 0.128 0.012 0.192-0.009 0.077-0.014 0.153-0.010 0.232 0.006 0.145 0.011 0.292 0.015 0.436 0.004 0.063 0.001 0.125-0.014 0.187-0.011 0.040-0.011 0.082 0.010 0.12 0.028 0.048 0.031 0.102 0.033 0.156 0.004 0.096 0.010 0.189 0.017 0.283 0.003 0.030 0.011 0.059 0.021 0.088 0.015 0.045 0.041 0.061 0.087 0.053 0.027-0.004 0.053-0.011 0.077-0.021 0.053-0.020 0.108-0.033 0.166-0.029 0.047 0.004 0.065-0.021 0.064-0.065-0.001-0.039-0.009-0.076-0.009-0.115 0-0.492-0.030-0.988-0.002-1.481 0.001-0.020-0.004-0.040-0.005-0.065v-0.002c-0.033-0.010-0.054-0.015-0.077-0.019s-0.047-0.007-0.070-0.007c-0.090-0.003-0.18-0.007-0.269-0.007zM16.080 13.115c-0.033-0.010-0.067 0.016-0.070 0.055s0.001 0.077 0.005 0.115c0.003 0.027 0.008 0.053 0.010 0.079 0.024 0.313 0.045 0.624 0.041 0.937-0.004 0.203 0 0.404 0 0.607 0.006-0.001 0.015 0 0.022-0.003 0.049-0.040 0.107-0.045 0.168-0.045 0.071 0.001 0.141-0.013 0.204-0.038 0.020-0.030 0.017-0.060 0.017-0.091 0-0.381 0-0.762-0.002-1.143-0.001-0.109-0.011-0.219-0.019-0.329-0.003-0.041-0.010-0.083-0.036-0.123h-0.002c-0.013-0.003-0.020-0.003-0.029-0.003-0.103-0.007-0.207 0.016-0.311-0.017zM14.402 13.949c0.066-0.002 0.132 0.006 0.199 0.021 0.026 0.007 0.051 0.012 0.077 0.022 0.027 0.010 0.053 0.027 0.082 0.036 0.027 0.007 0.058 0.009 0.086 0.015 0.025 0.034 0.015 0.071 0.014 0.106-0.008 0.127-0.020 0.256-0.029 0.383-0.011 0.143-0.013 0.284-0.041 0.426-0.019 0.097-0.016 0.194-0.014 0.293 0.004 0.064 0.003 0.131-0.019 0.194-0.013 0.036-0.011 0.076-0.015 0.115-0.011 0.082-0.020 0.164-0.034 0.247-0.011 0.070-0.021 0.141-0.024 0.213-0.001 0.069-0.008 0.136-0.012 0.202-0.003 0.042-0.003 0.084-0.003 0.125 0.001 0.057-0.004 0.114-0.036 0.177l0.002 0.002c-0.032-0.007-0.059-0.012-0.088-0.022-0.061-0.023-0.123-0.024-0.185-0.010-0.029 0.007-0.058 0.009-0.088 0.015-0.042 0.007-0.082 0.014-0.122 0.024-0.054 0.017-0.109 0.024-0.166 0.024-0.077 0-0.154 0.009-0.232 0.012-0.041 0.003-0.084 0.004-0.125 0.007-0.132 0.010-0.266 0.024-0.4 0.031-0.088 0.007-0.179 0.009-0.268 0.009-0.303 0-0.606-0.001-0.909 0-0.050 0-0.102 0.004-0.151 0.005-0.019 0-0.037-0.001-0.055-0.003-0.008-0.001-0.017-0.007-0.027-0.014-0.015-0.038-0.012-0.079-0.012-0.12 0.002-0.164 0.004-0.327 0.007-0.491 0.001-0.077 0.004-0.154 0.007-0.232 0.003-0.046 0-0.090-0.014-0.132-0.056-0.017-0.109-0.034-0.163-0.046-0.035-0.007-0.071-0.012-0.105-0.012-0.129 0.007-0.257 0.012-0.384 0.022-0.125 0.013-0.249 0.008-0.372-0.015-0.014-0.004-0.029-0.007-0.045-0.007-0.076-0.007-0.154-0.014-0.23-0.021-0.028-0.003-0.055-0.016-0.086-0.022 0-0.047 0.034-0.074 0.045-0.11 0.012-0.041 0.044-0.058 0.077-0.079 0.035-0.023 0.067-0.051 0.096-0.079 0.238-0.23 0.474-0.46 0.71-0.69 0.107-0.102 0.198-0.215 0.283-0.335 0.057-0.078 0.113-0.16 0.175-0.247 0.014-0.003 0.038-0.007 0.062-0.007 0.029-0.001 0.058 0.002 0.088 0.002 0.218 0.001 0.435-0.001 0.652 0.017 0.219 0.020 0.44 0.003 0.661-0.003 0.107-0.004 0.213-0.005 0.321-0.005 0.149 0.003 0.297 0.007 0.446 0.010 0.057 0.001 0.111-0.004 0.166-0.021 0.066-0.020 0.133-0.031 0.199-0.033zM19.686 14.522v0.003c0.013 0.023 0.024 0.045 0.036 0.063 0.013 0.020 0.026 0.040 0.041 0.058 0.034 0.041 0.069 0.082 0.103 0.123 0.082 0.098 0.164 0.198 0.247 0.295 0.047 0.054 0.095 0.104 0.144 0.156 0.13 0.136 0.249 0.282 0.348 0.441 0.049 0.081 0.11 0.148 0.19 0.197 0.095 0.059 0.157 0.143 0.196 0.247 0.012 0.034 0.025 0.066 0.041 0.108-0.021 0-0.036 0.002-0.048 0-0.054-0.004-0.106-0.012-0.16-0.012-0.060-0.003-0.119-0.002-0.178 0-0.209 0.007-0.417-0.013-0.623-0.043-0.080-0.013-0.161-0.021-0.24-0.024-0.193-0.004-0.385-0.003-0.578 0.017-0.050 0.007-0.102 0.003-0.153 0.003-0.087 0.001-0.171 0.014-0.254 0.039-0.109 0.030-0.22 0.050-0.328 0.081-0.009 0.003-0.017 0.005-0.026 0.005-0.015 0.001-0.030-0.018-0.026-0.031 0.007-0.020 0.017-0.038 0.026-0.057 0.071-0.14 0.143-0.282 0.232-0.412 0.035-0.050 0.056-0.109 0.081-0.166 0.016-0.035 0.026-0.073 0.038-0.112 0.028-0.096 0.080-0.178 0.151-0.247 0.031-0.030 0.061-0.056 0.093-0.084 0.136-0.125 0.274-0.248 0.41-0.372 0.063-0.060 0.114-0.13 0.153-0.208 0.018-0.033 0.035-0.062 0.084-0.072zM22.85 16.113c0.033-0.010 0.065-0 0.094 0.017 0.052 0.033 0.104 0.059 0.153 0.091 0.031 0.020 0.057 0.045 0.082 0.070 0.033 0.034 0.069 0.063 0.115 0.082 0.021 0.010 0.042 0.019 0.060 0.034 0.054 0.045 0.115 0.074 0.18 0.096 0.077 0.027 0.146 0.067 0.208 0.118 0.034 0.027 0.073 0.052 0.113 0.072 0.107 0.053 0.147 0.087 0.105 0.235-0.032 0.113-0.039 0.229-0.034 0.345 0.001 0.060 0.010 0.118 0.015 0.177 0.005 0.056 0.013 0.114 0.014 0.17 0.005 0.176 0.004 0.349-0.012 0.525-0.008 0.103-0.007 0.208-0.014 0.312-0.004 0.080-0.004 0.161-0.014 0.24-0.019 0.172 0.001 0.344 0.014 0.516 0.004 0.059 0.012 0.118 0.024 0.177 0.021 0.117 0.024 0.236 0.024 0.355-0.003 0.327-0.004 0.655-0.005 0.981 0 0.020-0 0.044 0.003 0.064 0.019 0.1 0.041 0.199 0.058 0.297 0.007 0.033 0.009 0.065 0.009 0.098 0 0.030-0.016 0.045-0.045 0.045-0.024 0.001-0.047-0.001-0.072-0.005-0.128-0.030-0.253-0.016-0.377 0.017-0.057 0.017-0.114 0.033-0.17 0.053-0.117 0.043-0.237 0.058-0.36 0.027-0.087-0.020-0.175-0.024-0.264-0.024-0.052 0.001-0.102 0.004-0.153 0.003-0.060-0.004-0.118-0.007-0.177-0.017-0.102-0.013-0.202-0.013-0.302 0.014-0.057 0.013-0.116 0.027-0.177 0.021-0.020-0.003-0.039-0.007-0.067-0.014h-0.002c-0.003-0.035-0.003-0.063-0.003-0.089-0.003-0.512-0.005-1.024-0.007-1.536 0-0.133 0.006-0.266 0.019-0.4 0.007-0.068 0.010-0.138 0.010-0.206-0.001-0.117 0.014-0.232 0.031-0.347 0.028-0.189 0.048-0.375 0.062-0.566 0.005-0.071 0.013-0.141 0.019-0.213 0.007-0.113 0.010-0.226 0.019-0.34 0.033-0.412 0.014-0.826 0.019-1.239 0-0.046-0.007-0.092 0.002-0.134 0.008-0.040 0.033-0.075 0.052-0.115 0.029 0.004 0.058 0.010 0.086 0.014 0.136 0.013 0.274 0.026 0.41-0.003 0.024-0.004 0.047-0.007 0.070-0.007 0.063 0.003 0.124 0.003 0.185-0.014zM8.765 16.262c0.143 0.007 0.286 0.006 0.427 0.022 0.191 0.023 0.381 0.061 0.573 0.091 0.162 0.023 0.323 0.046 0.487 0.041 0.036 0 0.072 0.001 0.108 0 0.191-0.007 0.379 0.019 0.568 0.038 0.012 0.001 0.022 0.007 0.048 0.014v0.002c-0.054 0.070-0.045 0.139-0.045 0.211 0.001 0.17 0.005 0.34 0 0.51-0.005 0.115-0.020 0.232-0.036 0.347-0.034 0.218-0.039 0.437-0.015 0.657 0.004 0.033 0.003 0.064 0.005 0.098 0.012 0.109 0.025 0.217 0.034 0.326 0.007 0.075 0.013 0.149 0.014 0.223 0.004 0.209 0.001 0.416 0.003 0.625 0.002 0.203-0.009 0.404-0.021 0.606-0.008 0.118-0.028 0.238-0.055 0.353-0.057 0.237-0.078 0.474-0.063 0.717 0.003 0.023 0.001 0.047 0 0.070 0 0.007-0.002 0.014-0.005 0.024-0.012 0.001-0.025 0.003-0.039 0.003-0.066-0.003-0.13 0.004-0.196 0.014-0.070 0.010-0.141 0.010-0.213 0.007-0.344-0.003-0.69-0.035-1.035-0.024-0.092 0.003-0.185 0.011-0.276 0.017-0.029 0.003-0.059 0.003-0.089 0.003-0.045 0.004-0.089 0.007-0.132 0.014-0.015 0.001-0.029 0.006-0.045 0.003-0.125-0.004-0.249 0.016-0.374 0.022-0.028 0.001-0.057 0.007-0.086 0.014-0.021 0.004-0.042 0.014-0.062 0.017-0.053 0.007-0.087-0.024-0.086-0.076 0.001-0.033 0.008-0.066 0.015-0.098 0.031-0.106 0.048-0.211 0.053-0.323 0.006-0.116 0.025-0.23 0.038-0.345 0.014-0.13 0.031-0.26 0.026-0.391-0.001-0.047 0.010-0.096 0.012-0.142 0.005-0.057 0.010-0.113 0.010-0.168 0.001-0.177-0.002-0.353-0.002-0.528 0-0.12 0.001-0.237 0.002-0.357 0.001-0.089-0.004-0.177-0.014-0.266-0.015-0.124-0.011-0.25 0-0.374 0.006-0.066 0.011-0.131 0.012-0.196 0.003-0.071-0-0.144 0.002-0.214 0.006-0.18-0.022-0.356-0.062-0.53-0.008-0.033-0.013-0.065-0.024-0.096-0.040-0.127-0.047-0.257-0.048-0.388 0-0.033 0.007-0.065 0.012-0.096 0.008-0.039 0.027-0.071 0.060-0.096 0.097-0.073 0.189-0.152 0.268-0.247 0.033-0.040 0.080-0.068 0.123-0.101 0.035-0.023 0.078-0.033 0.12-0.033zM18.698 16.779c0.095-0.013 0.19-0.005 0.285 0.005 0.162 0.020 0.325 0.042 0.487 0.062 0.039 0.007 0.076 0.007 0.115 0.007 0.211 0.010 0.422 0.019 0.633 0.033 0.189 0.010 0.373-0 0.558-0.038 0.084-0.020 0.171-0.017 0.262-0.007-0.001 0.017-0.001 0.032-0.003 0.045-0.019 0.084-0.017 0.172-0.012 0.257 0.003 0.035 0.019 0.068 0.031 0.101 0.024 0.062 0.035 0.128 0.039 0.192 0.006 0.106 0.011 0.208 0.024 0.311 0.014 0.12 0.013 0.239 0.012 0.357-0.003 0.262-0.006 0.525-0.007 0.786-0.003 0.39-0.002 0.778-0.005 1.168-0.001 0.191 0.013 0.38 0.057 0.566 0.028 0.123 0.038 0.248 0.043 0.372 0.003 0.047-0.004 0.094-0.012 0.141-0.013 0.076-0.061 0.129-0.132 0.156-0.031 0.013-0.063 0.019-0.094 0.022-0.049 0.007-0.094 0.020-0.132 0.052-0.035 0.030-0.075 0.048-0.118 0.060-0.031 0.010-0.060 0.021-0.091 0.036-0.068 0.030-0.138 0.036-0.209 0.024-0.054-0.007-0.106-0.014-0.16-0.014-0.076 0.001-0.148-0.018-0.216-0.048-0.148-0.069-0.305-0.095-0.465-0.112-0.066-0.007-0.131-0.003-0.196 0.014-0.104 0.027-0.21 0.032-0.317 0.029-0.033 0-0.067-0.002-0.099-0.003-0.145-0.004-0.292-0.003-0.436 0.021-0.087 0.013-0.171 0.006-0.256-0.017-0.078-0.020-0.157-0.029-0.238-0.022-0.014 0.001-0.029 0.004-0.045 0.007v-0.005c-0.014 0.033-0.025 0.059-0.039 0.094-0.024-0.001-0.049 0.004-0.070-0.003-0.135-0.045-0.275-0.044-0.413-0.058-0.068-0.007-0.136-0.009-0.202-0.022-0.068-0.013-0.135-0.017-0.204-0.017-0.095 0.001-0.19 0.003-0.285-0.014-0.043-0.007-0.089-0.010-0.134-0.007-0.125 0.007-0.249-0.006-0.374-0.019-0.041-0.004-0.083-0.004-0.123 0-0.083 0.007-0.166 0.014-0.249 0.007-0.074-0.007-0.149-0.007-0.223-0.014-0.039-0.001-0.078-0.002-0.117-0.005-0.055-0.004-0.112-0.007-0.168-0.014-0.016-0.003-0.033-0.007-0.053-0.010-0.020-0.057-0.015-0.112-0.010-0.168 0.008-0.076 0.018-0.154 0.026-0.232 0.016-0.153 0.033-0.306 0.050-0.46 0.004-0.020 0.006-0.041 0.007-0.062 0.007-0.235 0.015-0.471 0.022-0.705 0.005-0.12 0.007-0.238 0.017-0.355 0.008-0.12 0.009-0.239-0.003-0.357-0.012-0.101-0.013-0.201-0.012-0.302 0-0.117 0.002-0.234-0.021-0.348-0.012-0.058-0.026-0.116-0.036-0.175-0.028-0.147-0.025-0.298-0.009-0.444 0.021-0.178 0.026-0.356 0.024-0.534 0-0.023 0.004-0.046 0.005-0.074 0.028-0.001 0.052-0.007 0.074-0.007 0.212 0.007 0.422-0.016 0.633-0.022 0.108-0.004 0.213-0.024 0.312-0.069 0.088-0.038 0.181-0.055 0.278-0.055 0.043 0 0.089-0.007 0.134-0.010 0.178-0.013 0.356-0.023 0.534 0.007 0.046 0.007 0.094 0 0.141-0.002 0.045-0.004 0.089-0.009 0.134-0.015 0.056-0.004 0.112-0.007 0.168-0.014 0.012 0 0.027-0 0.034-0.007 0.045-0.045 0.105-0.039 0.16-0.046 0.057-0.007 0.117-0.006 0.177-0.003 0.172 0.007 0.345 0.005 0.516-0.015zM23.010 16.985c-0.008 0.003-0.017 0.003-0.026 0.003-0.066 0.020-0.132 0.036-0.201 0.031-0.033-0.003-0.047 0.017-0.046 0.052 0 0.042 0.004 0.083 0.005 0.125 0.004 0.116 0.006 0.233 0.009 0.348 0.005 0.205 0.014 0.409-0.005 0.614-0.004 0.041-0.009 0.083 0.005 0.129 0.136 0.042 0.277 0.017 0.415 0.024 0.016 0.001 0.033-0.007 0.055-0.014-0.028-0.090-0.029-0.092-0.019-0.184 0.005-0.038 0.008-0.076 0.007-0.115-0.003-0.101-0.007-0.203-0.014-0.304-0.004-0.068-0.010-0.137 0.014-0.202 0.012-0.030 0.008-0.059-0.010-0.084-0.029-0.035-0.029-0.077-0.031-0.118-0.003-0.069-0.006-0.137-0.017-0.204-0.013-0.081-0.034-0.121-0.141-0.101zM9.345 17.067c-0.027-0.001-0.042 0.023-0.029 0.052 0.021 0.042 0.021 0.086 0.010 0.13-0.019 0.089-0.013 0.178-0.009 0.268 0.005 0.083 0.009 0.164 0.014 0.249 0.001 0.047 0.001 0.094-0.014 0.141-0.009 0.033-0.014 0.067 0.009 0.096 0.027 0.038 0.030 0.081 0.033 0.127 0.003 0.062 0.003 0.125 0.012 0.187 0.019 0.123 0.042 0.145 0.165 0.12 0.070-0.013 0.137-0.038 0.211-0.033 0.031 0.003 0.047-0.021 0.045-0.055-0.004-0.062-0.008-0.123-0.010-0.185-0.005-0.139-0.006-0.281-0.010-0.42-0.002-0.149-0.011-0.296 0.003-0.444 0.007-0.064 0.009-0.13 0.005-0.197-0.018-0.007-0.026-0.014-0.034-0.017-0.132-0.023-0.266-0.014-0.4-0.017zM13.504 17.372c0.039-0.001 0.078-0.004 0.117 0.002 0.095 0.013 0.189 0.014 0.283 0.002 0.063-0.007 0.125-0.007 0.187 0.003 0.080 0.013 0.159 0.020 0.24 0.014 0.029-0.003 0.059-0.001 0.088 0.003 0.062 0.013 0.123 0.027 0.187 0.017 0.031-0.004 0.056 0.012 0.067 0.045 0.005 0.013 0.009 0.026 0.010 0.043 0.008 0.080 0.019 0.16 0.022 0.24 0.005 0.183 0.006 0.369 0.007 0.554 0 0.023-0.003 0.047-0.005 0.070-0.001 0.027-0.009 0.053-0.031 0.070-0.027 0.020-0.034 0.048-0.033 0.081 0.006 0.106 0.009 0.212 0.034 0.317 0.040 0.158 0.059 0.321 0.058 0.484 0 0.129 0.001 0.257 0.003 0.386 0.006 0.19-0.010 0.379-0.039 0.566-0.013 0.074-0.018 0.149-0.027 0.221-0.007 0.069-0.013 0.138-0.024 0.206-0.015 0.113-0.015 0.224-0.010 0.338 0.004 0.064 0.005 0.13 0.007 0.196 0 0.017-0.004 0.036-0.007 0.064-0.046 0.004-0.084 0.007-0.122 0.007-0.119-0.007-0.237 0.009-0.355 0.022-0.094 0.010-0.19 0.021-0.285 0.024-0.306 0.004-0.612 0.003-0.918 0-0.128-0.001-0.258-0.009-0.384-0.019-0.123-0.010-0.243-0.005-0.364 0.022-0.11 0.023-0.222 0.036-0.335 0.041-0.033 0.003-0.066 0.001-0.098-0.003-0.062-0.010-0.078-0.033-0.060-0.093 0.019-0.063 0.027-0.129 0.024-0.196-0.002-0.033-0.007-0.064-0.012-0.096-0.009-0.053-0.009-0.105 0.002-0.16 0.009-0.047 0.012-0.094 0.012-0.141 0.008-0.252 0.015-0.507 0.021-0.758 0.003-0.084 0.005-0.167 0.005-0.249v-1.652c0-0.060-0.002-0.117-0.005-0.177-0.005-0.074-0.005-0.149 0.010-0.223 0.022-0.115 0.084-0.168 0.192-0.177 0.021-0.001 0.042-0.003 0.062-0.003 0.087 0.001 0.172-0.007 0.256-0.027 0.080-0.020 0.161-0.024 0.24-0.021 0.033 0.001 0.064 0.004 0.096-0.012 0.035-0.017 0.076-0.014 0.112 0.003 0.027 0.013 0.052 0.010 0.079 0.007 0.074-0.007 0.146-0.017 0.221-0.021 0.157-0.010 0.314-0.016 0.472-0.022zM12.652 17.424c0.004 0.003 0.007 0.007 0.007 0.007 0.007-0.001 0.012-0.004 0.019-0.007h-0.026zM24.852 17.544c0.018 0.003 0.039-0 0.057 0.005 0.082 0.033 0.167 0.042 0.254 0.034 0.048-0.004 0.095-0.008 0.137 0.022 0.068-0.004 0.094 0.038 0.122 0.093 0.048 0.090 0.102 0.175 0.172 0.251 0.027 0.033 0.052 0.067 0.074 0.101 0.076 0.111 0.158 0.216 0.245 0.317s0.17 0.206 0.256 0.309c0.034 0.040 0.050 0.088 0.052 0.141 0 0.17 0.004 0.338 0.003 0.508-0.003 0.093-0.013 0.183-0.024 0.274-0.013 0.128-0.014 0.258-0.009 0.384 0.011 0.179-0 0.357-0.019 0.535-0.014 0.127-0.026 0.253-0.019 0.381 0.005 0.109-0.006 0.214-0.039 0.317-0.014 0.038-0.021 0.079-0.031 0.12-0.014 0.003-0.020 0.007-0.026 0.007-0.258 0-0.517 0.031-0.776 0.021-0.083-0.004-0.167-0.001-0.251 0-0.040 0-0.075-0.004-0.112-0.021-0.027-0.013-0.057-0.021-0.086-0.024-0.031-0.007-0.049-0.022-0.053-0.050-0.009-0.038-0.019-0.077-0.019-0.115-0.003-0.116-0.002-0.233 0.002-0.348 0.003-0.104 0.012-0.206 0.015-0.311 0.005-0.116 0.010-0.232 0.007-0.348-0.003-0.152 0.002-0.304 0.019-0.456 0.006-0.043 0.005-0.087 0.005-0.132 0-0.285-0.001-0.57 0-0.856 0.001-0.102 0.006-0.203 0.014-0.304 0.011-0.166 0.007-0.333-0.003-0.499-0.005-0.083-0.004-0.166-0.010-0.249-0.003-0.041 0.010-0.075 0.043-0.108zM7.341 17.631c0.033 0.010 0.066 0.023 0.099 0.033 0.047 0.013 0.066 0.046 0.067 0.093v0.081c-0.007 0.365-0.014 0.731-0.021 1.098-0.001 0.116-0.001 0.231 0 0.347 0.001 0.078 0.001 0.156-0.012 0.233-0.008 0.043-0.010 0.087-0.012 0.132-0.008 0.258-0.018 0.517-0.024 0.776-0.003 0.125-0.003 0.25-0.017 0.376-0.011 0.111-0.004 0.226-0.005 0.338 0 0.007 0.001 0.016 0.002 0.026 0.014 0.084-0.034 0.135-0.098 0.175-0.032 0.020-0.063 0.025-0.101 0.015-0.080-0.020-0.159-0.016-0.239 0-0.071 0.013-0.143 0.016-0.213-0.002-0.024-0.007-0.049-0.010-0.072-0.007-0.104 0.001-0.206-0.005-0.311-0.015-0.049-0.007-0.101-0.004-0.151-0.005-0.066 0-0.092-0.005-0.156-0.045v-0.002c0.001-0.145-0.042-0.29-0.029-0.441 0.011-0.111 0.008-0.224 0.002-0.338-0.006-0.11 0.003-0.22 0.015-0.329 0.006-0.043 0.006-0.087 0.010-0.132 0.005-0.053 0.011-0.107 0.015-0.16 0.002-0.041 0.007-0.085 0.007-0.127-0.001-0.18 0-0.361-0.005-0.542-0.004-0.143-0.018-0.284-0.027-0.427-0.006-0.083-0.013-0.168-0.019-0.251-0.012-0.19-0.024-0.381-0.034-0.57-0.004-0.060-0.004-0.119-0.003-0.178 0-0.034 0.021-0.052 0.051-0.041 0.085 0.033 0.17 0.021 0.256 0 0.134-0.033 0.268-0.049 0.405-0.045 0.185 0.007 0.369-0.016 0.554-0.022 0.033-0.003 0.041-0.030 0.065-0.043zM19.638 17.976c-0.036 0-0.071 0.004-0.106 0.007-0.038 0.003-0.069 0.020-0.094 0.046-0.043 0.048-0.089 0.095-0.134 0.144-0.068 0.075-0.103 0.164-0.113 0.264-0.004 0.030-0.004 0.060-0.007 0.089-0.009 0.068-0.016 0.135-0.033 0.201-0.016 0.067-0.028 0.133-0.024 0.202 0.008 0.172 0.020 0.343 0.029 0.516 0.003 0.043 0.003 0.089 0.003 0.134 0.003 0.050 0.004 0.101 0.009 0.151 0.004 0.048 0.010 0.094 0.017 0.139 0.005 0.035 0.012 0.071 0.022 0.105 0.013 0.038 0.028 0.048 0.067 0.045 0.129-0.007 0.256-0.021 0.376-0.070 0.047-0.020 0.091-0.024 0.139-0.007 0.011 0.004 0.024 0.008 0.034 0.005 0.038-0.004 0.074-0.014 0.112-0.021v-0.002c0.021-0.023 0.013-0.052 0.012-0.077-0.005-0.118 0-0.236 0.022-0.353 0.026-0.144 0.031-0.288-0.010-0.432-0.011-0.038-0.013-0.076-0.015-0.115-0.008-0.104-0.016-0.208-0.024-0.312-0.003-0.047-0.008-0.094-0.010-0.141-0.001-0.038-0.009-0.071-0.034-0.099-0.018-0.020-0.026-0.046-0.026-0.074 0.001-0.105-0.056-0.191-0.101-0.281-0.022-0.042-0.062-0.064-0.11-0.064zM13.334 18.259c-0.031-0.003-0.061 0.004-0.093 0.022-0.056 0.030-0.114 0.063-0.156 0.115s-0.084 0.102-0.122 0.156c-0.070 0.098-0.098 0.208-0.096 0.328 0.003 0.129-0.001 0.256-0.002 0.383-0.001 0.096-0.001 0.192 0.012 0.287 0.011 0.076 0.012 0.154 0.015 0.232 0.001 0.017 0 0.039-0.010 0.048-0.019 0.020-0.015 0.043-0.015 0.067 0.001 0.145 0.003 0.291 0.003 0.438 0 0.017-0 0.036 0.002 0.053 0.007 0.043 0.026 0.064 0.070 0.065 0.047 0.003 0.096-0.003 0.142-0.007 0.056-0.007 0.111-0.012 0.168-0.022 0.129-0.023 0.261-0.017 0.391-0.017 0.007 0 0.011 0.002 0.017 0.002 0.046-0.001 0.060-0.021 0.048-0.062-0.006-0.017-0.017-0.033-0.019-0.052-0.007-0.078-0.014-0.159-0.019-0.238-0.004-0.068 0-0.136 0-0.204-0.001-0.047-0.005-0.096-0.007-0.144-0.004-0.064-0.012-0.13-0.014-0.196-0.002-0.088 0-0.177 0-0.266l0.002-0.003h0.002v-0.098c0-0.131 0.002-0.261-0.022-0.391-0.018-0.103-0.046-0.202-0.091-0.297-0.029-0.058-0.067-0.113-0.118-0.156-0.028-0.024-0.059-0.038-0.089-0.041zM23.049 19.057c-0.021 0-0.041 0.002-0.060 0.009-0.064 0.017-0.127 0.036-0.194 0.027-0.016-0.001-0.033 0.011-0.052 0.017l-0.002 0.002c0 0.043-0.001 0.086 0 0.127 0.004 0.145 0.009 0.292 0.010 0.436 0.004 0.202 0.013 0.404-0.007 0.606-0.004 0.041-0.009 0.082 0.003 0.125 0.034 0.017 0.069 0.022 0.105 0.022 0.11 0.004 0.221 0.003 0.329 0.003 0.012 0 0.024-0.012 0.036-0.019-0.003-0.013-0.002-0.024-0.005-0.031-0.021-0.042-0.025-0.083-0.015-0.129 0.009-0.049 0.012-0.102 0.012-0.151-0.003-0.107-0.010-0.214-0.015-0.321-0.004-0.066-0.005-0.131 0.015-0.194 0.012-0.034 0.009-0.064-0.012-0.093-0.024-0.030-0.027-0.064-0.029-0.101-0.003-0.074-0.010-0.148-0.017-0.223-0.001-0.020-0.009-0.040-0.015-0.058-0.018-0.047-0.038-0.059-0.087-0.055zM9.354 19.191c-0.012 0-0.027 0.011-0.048 0.017l-0.002-0.002c0.018 0.057 0.037 0.106 0.024 0.158-0.022 0.088-0.014 0.177-0.009 0.266 0.005 0.080 0.005 0.16 0.010 0.24 0.001 0.045 0.001 0.089-0.014 0.132-0.009 0.033-0.012 0.065 0.010 0.094 0.029 0.038 0.030 0.082 0.033 0.127 0.003 0.060 0.005 0.12 0.012 0.178 0.015 0.117 0.052 0.141 0.168 0.113 0.063-0.017 0.127-0.034 0.194-0.027 0.046 0.003 0.061-0.019 0.055-0.067-0.004-0.038-0.006-0.078-0.007-0.117-0.004-0.143-0.007-0.286-0.010-0.427-0.004-0.158-0.010-0.315 0.005-0.472 0.005-0.045 0.003-0.091 0.003-0.134 0-0.017-0.005-0.033-0.007-0.053-0.139-0.038-0.28-0.018-0.419-0.027zM5.272 21.833c0.053-0.003 0.106 0.005 0.158 0.024 0.075 0.027 0.151 0.032 0.228 0.029 0.083-0.004 0.165 0.005 0.245 0.027 0.055 0.017 0.111 0.022 0.168 0.012 0.053-0.010 0.106 0.003 0.158 0.021s0.101 0.029 0.156 0.029c0.068 0 0.121 0.028 0.156 0.089 0.006 0.010 0.013 0.019 0.022 0.033 0.022 0.001 0.043 0.004 0.067 0.003 0.206-0.003 0.412 0.004 0.616 0.021 0.17 0.013 0.337 0.030 0.506 0.043 0.101 0.007 0.201 0.019 0.302 0.022 0.155 0.007 0.31 0.014 0.465 0.017 0.179 0.004 0.356 0.024 0.534 0.043 0.142 0.017 0.283 0.029 0.426 0.029 0.437 0.007 0.876 0.003 1.313-0.021 0.172-0.007 0.343-0.019 0.516-0.033 0.043-0.003 0.088-0.014 0.132-0.017 0.157-0.013 0.316-0.022 0.472-0.034 0.077-0.007 0.154-0.014 0.232-0.021 0.629-0.048 1.261-0.054 1.891-0.053 0.176 0 0.351 0.002 0.525 0 0.127-0.001 0.25 0.013 0.374 0.029 0.101 0.013 0.201 0.024 0.302 0.024 0.294 0.003 0.59-0 0.884-0.007 0.271-0.004 0.54 0.006 0.81 0.038 0.278 0.033 0.555 0.062 0.834 0.087 0.287 0.027 0.575 0.048 0.863 0.045 0.189-0.003 0.375 0.006 0.561 0.029 0.112 0.013 0.227 0.017 0.34 0.021 0.456 0 0.911-0.011 1.366-0.027 0.41-0.013 0.819-0.032 1.23-0.015 0.172 0.007 0.344-0.008 0.516-0.034 0.212-0.030 0.424-0.047 0.638-0.062 0.124-0.010 0.249-0.021 0.374-0.031 0.112-0.007 0.224-0.016 0.338-0.022 0.178-0.007 0.356-0.027 0.532-0.052 0.062-0.007 0.127-0.011 0.189-0.017 0.024-0.001 0.045-0.003 0.060-0.026 0.006-0.010 0.024-0.017 0.039-0.021 0.059-0.020 0.118-0.033 0.177-0.055 0.056-0.020 0.114-0.033 0.173-0.033 0.108 0 0.215-0.001 0.321 0 0.031 0 0.062-0.001 0.091 0.005 0.083 0.020 0.168 0.033 0.254 0.041 0.056 0.007 0.113 0.018 0.168 0.027 0.122 0.027 0.243 0.013 0.364 0.003 0.035-0.003 0.069-0.018 0.103-0.027 0.026-0.007 0.052-0.015 0.079-0.015 0.061-0.004 0.106 0.038 0.117 0.098 0.013 0.070 0.027 0.139 0.039 0.209 0.001 0.007 0.006 0.010 0.010 0.014l-0.002 0.504c-0.003 0.003-0.005 0.002-0.005 0.005-0.016 0.096-0.064 0.185-0.087 0.28-0.005 0.020-0.017 0.038-0.026 0.057-0.006 0.017-0.012 0.034-0.017 0.050-0.004 0.013-0.001 0.029-0.007 0.043-0.032 0.076-0.041 0.156-0.043 0.237 0 0.004-0.004 0.009-0.009 0.019-0.071 0.030-0.146 0.058-0.228 0.058-0.071 0.001-0.142-0.001-0.214 0-0.098 0.001-0.196 0.003-0.293 0.003-0.123 0.003-0.244-0.002-0.364-0.036-0.050-0.013-0.107-0.015-0.16-0.015-0.151 0.004-0.304 0.012-0.455 0.015-0.053 0.001-0.105 0-0.158-0.005-0.046-0.007-0.064-0.035-0.052-0.079 0.012-0.038 0.030-0.076 0.048-0.115 0.029-0.062 0.041-0.128 0.043-0.199-0.020-0.003-0.035-0.007-0.052-0.007-0.432 0-0.864-0-1.295 0.003-0.122 0.001-0.245 0.016-0.365 0.022-0.187 0.013-0.374 0.021-0.561 0.034-0.293 0.017-0.588 0.028-0.882 0.050-0.358 0.023-0.717 0.061-1.078 0.060-0.11-0.001-0.221 0.009-0.329 0.019-0.22 0.020-0.44 0.036-0.661 0.031-0.152-0.004-0.302-0.014-0.455-0.024-0.204-0.017-0.408-0.026-0.614-0.026-0.428 0-0.856-0.001-1.285-0.005-0.143-0.003-0.286-0.019-0.427-0.026-0.131-0.007-0.262-0.017-0.393-0.021-0.095-0.004-0.19-0.003-0.285-0.003-0.216 0.004-0.427-0.012-0.642-0.026-0.139-0.007-0.28-0.008-0.42-0.005-0.196 0.004-0.393 0.008-0.589-0.005-0.211-0.017-0.422-0.031-0.633-0.048-0.169-0.013-0.337-0.026-0.506-0.038-0.021-0.001-0.041 0-0.065 0-0.004 0.017-0.009 0.034-0.010 0.052-0.005 0.049-0.005 0.1-0.012 0.149-0.016 0.096-0.042 0.116-0.137 0.115-0.098-0.004-0.194-0.009-0.292-0.029-0.114-0.023-0.229-0.031-0.347-0.027-0.184 0.004-0.369 0.014-0.554 0.017-0.074 0-0.148-0.001-0.221-0.010-0.049-0.007-0.1-0.020-0.144-0.043-0.082-0.041-0.105-0.104-0.077-0.177 0.016-0.043 0.029-0.089 0.045-0.134 0.008-0.023 0.014-0.045 0.024-0.074h-0.105c-0.95 0.001-1.896 0.004-2.846 0.007-0.187 0-0.375-0.001-0.563-0.007-0.083-0.004-0.166-0.016-0.249-0.022s-0.166-0.017-0.249-0.021c-0.182-0.004-0.364-0.004-0.544-0.010-0.114-0.007-0.219 0.020-0.321 0.062-0.008 0.004-0.014 0.011-0.022 0.017v0.072c0.001 0.043 0.004 0.088 0.003 0.132-0.002 0.178-0.102 0.322-0.271 0.381-0.053 0.017-0.109 0.033-0.165 0.033-0.207 0.004-0.416 0.007-0.625 0.003-0.101-0.001-0.201-0.020-0.302-0.034-0.073-0.010-0.103-0.044-0.108-0.118-0.006-0.061-0.019-0.117-0.048-0.17-0.004-0.010-0.018-0.014-0.027-0.017v-0.232c0.005-0.020 0.011-0.038 0.014-0.058 0.013-0.082 0.027-0.164 0.038-0.247 0.014-0.090 0.027-0.182 0.017-0.274 0-0.020-0.002-0.045-0.014-0.057-0.019-0.020-0.021-0.042-0.022-0.065-0.006-0.058-0.011-0.118-0.017-0.177-0.004-0.030-0.011-0.058-0.015-0.086v-0.070c0.009-0.010 0.024-0.018 0.029-0.031 0.019-0.056 0.065-0.085 0.113-0.108 0.051-0.022 0.103-0.036 0.156-0.039zM21.5 24.591c0.019 0.013 0.038 0.020 0.055 0.038 0.034 0.035 0.071 0.072 0.101 0.112 0.042 0.057 0.079 0.119 0.117 0.178 0.039 0.062 0.088 0.113 0.144 0.156 0.069 0.054 0.137 0.107 0.202 0.165 0.125 0.105 0.26 0.197 0.402 0.28 0.059 0.034 0.124 0.056 0.187 0.081 0.059 0.023 0.119 0.039 0.177 0.064 0.091 0.038 0.184 0.066 0.28 0.087 0.040 0.007 0.079 0.024 0.127 0.041 0.16-0.033 0.318-0.039 0.424-0.017 0.001 0.007 0.006 0.017 0.005 0.024-0.025 0.083-0.058 0.16-0.103 0.237-0.040 0.068-0.099 0.099-0.177 0.101-0.029 0.001-0.060-0.002-0.089-0.002-0.166-0.003-0.333-0.007-0.501-0.010-0.071-0.001-0.141 0.014-0.209 0.038-0.011 0.004-0.022 0.007-0.033 0.014-0.129 0.062-0.258 0.058-0.389 0-0.087-0.038-0.179-0.058-0.273-0.072-0.135-0.023-0.259-0.067-0.369-0.149-0.035-0.027-0.077-0.047-0.117-0.067-0.059-0.030-0.121-0.029-0.182-0.005-0.008 0.003-0.017 0.002-0.026 0.005-0.15 0.070-0.301 0.139-0.451 0.213-0.071 0.036-0.144 0.068-0.221 0.089-0.053 0.013-0.102 0.034-0.151 0.053-0.21 0.091-0.424 0.173-0.643 0.238-0.289 0.088-0.581 0.093-0.873 0.024-0.211-0.051-0.422-0.104-0.631-0.16-0.122-0.030-0.245-0.051-0.371-0.046-0.039 0.001-0.076 0-0.115 0-0.066 0-0.13-0.012-0.192-0.034-0.025-0.010-0.051-0.018-0.076-0.027-0.043-0.017-0.081-0.013-0.117 0.021-0.053 0.046-0.116 0.069-0.184 0.086-0.046 0.010-0.089 0.030-0.132 0.052-0.071 0.035-0.146 0.052-0.225 0.048-0.080-0.003-0.161-0.004-0.24-0.005-0.199-0.004-0.397 0.008-0.595 0.041-0.117 0.020-0.237 0.025-0.355 0.033-0.131 0.010-0.263 0.011-0.393 0.021-0.063 0.004-0.131 0.007-0.19 0.036l-0.374 0.009c-0.055-0.013-0.108-0.027-0.165-0.034-0.137-0.017-0.267-0.057-0.389-0.122-0.149-0.081-0.302-0.156-0.456-0.225-0.060-0.027-0.115-0.060-0.172-0.094-0.049-0.030-0.1-0.037-0.153-0.017-0.144 0.056-0.294 0.069-0.446 0.067-0.125-0.001-0.252-0.003-0.376-0.014-0.177-0.013-0.351-0.006-0.523 0.027-0.156 0.030-0.312 0.052-0.47 0.062-0.175 0.013-0.348 0.044-0.518 0.087-0.163 0.042-0.322 0.039-0.482-0.012-0.088-0.027-0.178-0.053-0.266-0.077-0.061-0.017-0.109-0.046-0.144-0.098-0.012-0.020-0.025-0.040-0.038-0.060-0.066-0.104-0.162-0.166-0.28-0.19-0.049-0.013-0.1-0.021-0.149-0.021-0.245 0-0.49 0.005-0.731 0.039-0.135 0.020-0.269 0.047-0.403 0.070-0.087 0.013-0.17 0.024-0.256 0.038-0.074 0.010-0.149 0.021-0.221 0.031-0.104 0.017-0.207 0.010-0.311 0.003-0.013 0-0.026-0.003-0.038-0.003-0.028-0.007-0.044-0.030-0.039-0.060 0.004-0.023 0.008-0.045 0.014-0.069 0.021-0.067 0.029-0.132 0.019-0.202-0.020-0.133 0.029-0.154 0.139-0.163 0.032-0.004 0.065-0.002 0.098 0 0.209 0.020 0.416 0.010 0.623 0.007 0.056 0 0.113-0.017 0.166-0.034 0.081-0.023 0.157-0.055 0.235-0.081 0.095-0.030 0.181-0.073 0.268-0.12s0.174-0.092 0.262-0.136c0.068-0.033 0.133-0.067 0.19-0.115 0.056-0.048 0.117-0.093 0.17-0.144 0.052-0.050 0.094-0.108 0.141-0.161 0.011-0.013 0.022-0.025 0.033-0.039 0.045 0.010 0.069 0.039 0.093 0.070 0.018 0.023 0.034 0.049 0.048 0.076 0.043 0.084 0.107 0.147 0.184 0.201 0.028 0.017 0.055 0.037 0.082 0.055 0.052 0.030 0.099 0.069 0.137 0.115 0.054 0.064 0.122 0.112 0.199 0.144 0.042 0.017 0.083 0.036 0.123 0.055 0.068 0.030 0.132 0.067 0.192 0.11 0.034 0.023 0.068 0.048 0.105 0.067 0.081 0.045 0.16 0.091 0.235 0.146 0.084 0.064 0.178 0.079 0.28 0.057 0.142-0.033 0.284-0.064 0.426-0.093 0.096-0.020 0.193-0.038 0.288-0.062 0.1-0.023 0.193-0.057 0.285-0.101 0.060-0.027 0.12-0.052 0.182-0.076 0.085-0.030 0.16-0.076 0.225-0.141 0.032-0.034 0.072-0.062 0.112-0.087 0.062-0.040 0.111-0.088 0.148-0.153 0.016-0.027 0.033-0.056 0.053-0.082 0.046-0.057 0.091-0.056 0.141 0 0.011 0.013 0.018 0.023 0.026 0.036 0.040 0.064 0.094 0.113 0.156 0.156 0.089 0.061 0.175 0.126 0.264 0.185 0.071 0.048 0.142 0.096 0.216 0.141 0.068 0.042 0.138 0.082 0.19 0.144 0.031 0.035 0.072 0.056 0.115 0.067 0.079 0.020 0.157 0.039 0.235 0.052 0.096 0.017 0.192 0.036 0.283 0.072 0.095 0.038 0.19 0.041 0.29 0.029 0.175-0.020 0.346-0.056 0.518-0.087 0.047-0.010 0.094-0.021 0.141-0.027 0.105-0.010 0.203-0.045 0.295-0.094 0.145-0.078 0.276-0.178 0.395-0.292 0.050-0.048 0.090-0.11 0.13-0.168 0.040-0.060 0.073-0.122 0.112-0.182 0.042-0.066 0.091-0.126 0.153-0.173 0.057-0.043 0.092-0.060 0.16 0.017 0.013 0.013 0.024 0.030 0.031 0.045 0.032 0.061 0.080 0.104 0.134 0.142 0.059 0.038 0.118 0.078 0.177 0.118 0.1 0.065 0.198 0.131 0.297 0.199 0.068 0.048 0.144 0.083 0.221 0.115 0.125 0.051 0.253 0.1 0.379 0.153 0.095 0.040 0.193 0.064 0.295 0.064 0.093 0 0.184-0.001 0.276 0.002 0.129 0.004 0.255-0.020 0.376-0.069 0.083-0.033 0.166-0.062 0.249-0.096 0.103-0.040 0.21-0.060 0.321-0.069 0.163-0.013 0.325-0.041 0.484-0.076 0.095-0.020 0.181-0.060 0.257-0.12 0.066-0.051 0.127-0.106 0.192-0.158 0.068-0.053 0.137-0.105 0.208-0.156 0.033-0.023 0.070-0.048 0.103-0.072 0.087-0.065 0.15-0.151 0.187-0.254 0.008-0.027 0.015-0.052 0.045-0.070z"></path>
</svg>
