<!-- Generated by IcoMoon.io -->
<svg version="1.1" xmlns="http://www.w3.org/2000/svg" width="34" height="32" viewBox="0 0 34 32">
<title>return_cult</title>
<path d="M30.752 12.621c0.017 0.029 0.033 0.057 0.051 0.089 0.004 0.014 0.004 0.022 0.004 0.030l-0.055-0.12zM25.022 18.114c0 0.236-0.007 0.487-0.053 0.719-0.036 0.182-0.056 0.349-0.115 0.528-0.025 0.078-0.029 0.158-0.050 0.237-0.029 0.115-0.099 0.213-0.133 0.326-0.043 0.137-0.057 0.279-0.095 0.417-0.037 0.134-0.1 0.29-0.161 0.415-0.045 0.093-0.105 0.154-0.182 0.222-0.217 0.188-0.336 0.462-0.554 0.652-0.244 0.213-0.345 0.531-0.587 0.741-0.215 0.187-0.446 0.354-0.674 0.526-0.115 0.086-0.226 0.172-0.336 0.265-0.117 0.097-0.221 0.219-0.344 0.304-0.292 0.205-0.648 0.388-0.837 0.707-0.076 0.128-0.176 0.24-0.265 0.359-0.118 0.159-0.23 0.329-0.353 0.486-0.085 0.109-0.184 0.209-0.268 0.319-0.089 0.115-0.146 0.244-0.222 0.366-0.049 0.079-0.116 0.122-0.184 0.183-0.095 0.087-0.172 0.201-0.236 0.313-0.145 0.253-0.3 0.467-0.558 0.615-0.125 0.070-0.251 0.132-0.362 0.222-0.108 0.088-0.232 0.205-0.37 0.246-0.053 0.014-0.108 0.009-0.163 0.010-0.132 0-0.257 0.046-0.387 0.070-0.147 0.028-0.295 0.043-0.441 0.082-0.359 0.093-0.689 0.183-1.049 0.055-0.147-0.053-0.288-0.058-0.444-0.030-0.197 0.034-0.386 0.021-0.583 0.014-0.218-0.006-0.484-0.034-0.69-0.104-0.129-0.042-0.243-0.12-0.361-0.187-0.043-0.025-0.15-0.071-0.168-0.12 0.282-0.066 0.577-0.105 0.869-0.141 0.441-0.053 0.879-0.14 1.324-0.145 0.308-0.004 0.577-0.171 0.854-0.288 0.246-0.101 0.445-0.28 0.679-0.403 0.282-0.145 0.529-0.257 0.769-0.469 0.109-0.096 0.205-0.204 0.316-0.3 0.063-0.047 0.122-0.099 0.18-0.153 0.040-0.042 0.049-0.050 0.026-0.022 0.312-0.33 0.611-0.684 0.94-1 0.094-0.090 0.213-0.141 0.307-0.229 0.107-0.099 0.166-0.24 0.255-0.351 0.15-0.188 0.304-0.37 0.448-0.563 0.126-0.171 0.258-0.341 0.419-0.483 0.249-0.22 0.447-0.478 0.642-0.746 0.219-0.301 0.454-0.581 0.707-0.856 0.184-0.203 0.409-0.384 0.57-0.603 0.107-0.145 0.22-0.271 0.348-0.401 0.183-0.19 0.359-0.386 0.525-0.591 0.109-0.133 0.242-0.27 0.293-0.437 0.047-0.157 0.055-0.321 0.108-0.479 0.067-0.199 0.126-0.409 0.209-0.602 0.004-0.006 0.006-0.013 0.010-0.019 0.036-0.076 0.087-0.145 0.113-0.225 0.029-0.079 0.034-0.165 0.054-0.245 0.074-0.283 0.165-0.562 0.224-0.849-0.007 0.241-0.003 0.481-0.003 0.721 0 0.058 0.001 0.116 0 0.172 0 0.065 0.020 0.108 0.029 0.161 0.029 0.188 0.006 0.398 0.007 0.587zM13.649 23.544c-0.222-0.009-0.457-0.072-0.67-0.122-0.155-0.037-0.416 0.022-0.367-0.226 0.018-0.103 0.103-0.221 0.163-0.303 0.099-0.132 0.294-0.217 0.445-0.257 0.064-0.017 0.129-0.032 0.184-0.067 0.075-0.046 0.107-0.088 0.194-0.107 0.112-0.026 0.205-0.071 0.321-0.070 0.157 0.001 0.307 0.012 0.458 0.042 0.154 0.033 0.316 0.066 0.474 0.025 0.172-0.045 0.374-0.006 0.542 0.043 0.122 0.038 0.253 0.042 0.373 0.080 0.076 0.022 0.144 0.083 0.229 0.075 0.161-0.016 0.282-0.15 0.441-0.186 0.108-0.022 0.217-0.033 0.328-0.038 0.066-0.001 0.134 0.005 0.196-0.011 0.046-0.010 0.083-0.020 0.133-0.021 0.053 0 0.12-0.012 0.172 0.008 0.045 0.016 0.074 0.055 0.108 0.086 0.097 0.083 0.207 0.089 0.319 0.142 0.040 0.020 0.076 0.050 0.118 0.066 0.046 0.018 0.096 0.024 0.144 0.037 0.076 0.020 0.172 0.028 0.242 0.063 0.078 0.041 0.143 0.075 0.229 0.105 0.033 0.013 0.063 0.029 0.093 0.047 0.097 0.058 0.172 0.144 0.27 0.201 0.075 0.043 0.182 0.096 0.228 0.171-0.344 0.072-0.702 0.108-1.054 0.109-0.149 0-0.287-0.034-0.433-0.037-0.203-0.002-0.394 0.041-0.586 0.105-0.201 0.066-0.39 0.117-0.598 0.159-0.182 0.036-0.378 0.016-0.562 0.016-0.194 0-0.388 0.012-0.582 0.001-0.095-0.005-0.186-0.034-0.28-0.038-0.116-0.004-0.217 0.001-0.33-0.024-0.075-0.015-0.151-0.041-0.228-0.045-0.070-0.005-0.137 0.004-0.207-0.006-0.174-0.028-0.333-0.019-0.507-0.026zM12.305 21.679c-0.095 0.23-0.221 0.441-0.338 0.658-0.155 0.284-0.263 0.602-0.341 0.915-0.063 0.253-0.126 0.512-0.129 0.773-0.002 0.286-0.029 0.591 0.030 0.873 0.050 0.24 0.112 0.476 0.209 0.699 0.076 0.172 0.153 0.35 0.253 0.511 0.055 0.090 0.129 0.169 0.174 0.263-0.080-0.054-0.171-0.053-0.259-0.079-0.079-0.025-0.146-0.078-0.216-0.121-0.221-0.137-0.419-0.315-0.61-0.488-0.12-0.108-0.274-0.159-0.39-0.278-0.083-0.087-0.163-0.166-0.257-0.242-0.095-0.075-0.151-0.15-0.22-0.252-0.129-0.192-0.312-0.359-0.462-0.537-0.074-0.089-0.146-0.178-0.214-0.271-0.076-0.104-0.163-0.179-0.248-0.271-0.088-0.099-0.145-0.236-0.205-0.349-0.067-0.124-0.141-0.237-0.199-0.365-0.155-0.345-0.299-0.688-0.423-1.047-0.191-0.542-0.341-1.099-0.524-1.644-0.197-0.598-0.412-1.204-0.554-1.817-0.068-0.3-0.116-0.596-0.15-0.903-0.036-0.309-0.090-0.62-0.096-0.933-0.009-0.55 0.051-1.098 0.113-1.644 0.033-0.275 0.041-0.548 0.045-0.824 0.006-0.363 0.026-0.724 0.033-1.085 0.004-0.263-0.005-0.528 0.016-0.791 0.012-0.124 0.043-0.248 0.054-0.373 0.004-0.034-0.003-0.070-0.001-0.105 0.004-0.126 0.053-0.249 0.069-0.375 0.024-0.203-0.004-0.434 0.061-0.632 0.050-0.15 0.133-0.283 0.178-0.436 0.047-0.163 0.105-0.319 0.174-0.471 0.197-0.445 0.459-0.844 0.766-1.214 0.32-0.386 0.569-0.829 0.82-1.262 0.075-0.129 0.142-0.27 0.286-0.33 0.161-0.067 0.276-0.201 0.399-0.325 0.292-0.296 0.598-0.583 0.911-0.857 0.12-0.103 0.243-0.216 0.373-0.308 0.112-0.079 0.238-0.115 0.357-0.178 0.134-0.068 0.252-0.165 0.388-0.228 0.105-0.049 0.2-0.049 0.311-0.063 0.286-0.042 0.519-0.229 0.8-0.279 0.324-0.061 0.634-0.165 0.956-0.236 0.365-0.082 0.737-0.172 1.107-0.215 0.188-0.021 0.373-0.043 0.556-0.090 0.276-0.067 0.508-0.137 0.779-0.033 0.095 0.034 0.179 0.042 0.279 0.016 0.121-0.034 0.253-0.094 0.37-0.147 0.125-0.057 0.29-0.078 0.427-0.093 0.217-0.025 0.456 0.001 0.673 0.002 0.126 0 0.253-0.006 0.38 0.005 0.159 0.014 0.32 0.054 0.482 0.055 0.245 0.005 0.467 0.068 0.699 0.151 0.153 0.054 0.299 0.122 0.45 0.176 0.030 0.012 0.059 0.022 0.092 0.025 0.054 0.004 0.109-0.013 0.165-0.017 0.175-0.011 0.366-0.004 0.532 0.063 0.109 0.043 0.22 0.088 0.332 0.122s0.167 0.101 0.261 0.168c0.056 0.041 0.116 0.057 0.167 0.107 0.036 0.036 0.067 0.078 0.107 0.109 0.055-0.064 0.101-0.001 0.14 0.041 0.042 0.045 0.097 0.074 0.136 0.124 0.053 0.067 0.063 0.141 0.105 0.215 0.038 0.071 0.103 0.105 0.054 0.19-0.040 0.066-0.17 0.125-0.229 0.17-0.211 0.159-0.417 0.357-0.6 0.545-1.018 1.045-2.119 1.996-3.193 2.983-0.319 0.292-0.578 0.657-0.914 0.921-0.056 0.045-0.082 0.128-0.165 0.12-0.036 0.12-0.096 0.19-0.183 0.275-0.068 0.068-0.129 0.143-0.187 0.221-0.040 0.143-0.086 0.283-0.136 0.423-0.072 0.195-0.128 0.398-0.175 0.6-0.020 0.085-0.021 0.225-0.063 0.297-0.012 0.020-0.003 0.033-0.022 0.047-0.020 0.016-0.058 0.004-0.074 0.021-0.022 0.021-0.022 0.108-0.028 0.14-0.030 0.191-0.040 0.387-0.074 0.579-0.078 0.438-0.147 0.877-0.201 1.319-0.045 0.369-0.105 0.729-0.205 1.087-0.070 0.246-0.167 0.463-0.272 0.694-0.111 0.237-0.207 0.469-0.348 0.689-0.121 0.19-0.224 0.367-0.313 0.573-0.065 0.143-0.121 0.275-0.165 0.427-0.032 0.113-0.201 0.325-0.147 0.446 0.013 0.032 0.025 0.038 0.058 0.046 0.079 0.018 0.188-0.036 0.267-0.043 0.298-0.032 0.517 0.292 0.732 0.456 0.147 0.112 0.374 0.134 0.551 0.139 0.071 0.001 0.145 0.002 0.216 0.001 0.124-0.004 0.191-0.061 0.297-0.108 0.083-0.038 0.187-0.033 0.265-0.075 0.041-0.021 0.069-0.058 0.104-0.084 0.038-0.026 0.088-0.041 0.121-0.074 0.038-0.038 0.041-0.087 0.091-0.111 0.053-0.025 0.098-0.002 0.144 0.020 0.12 0.058 0.254 0.134 0.329 0.246 0.070 0.105 0.084 0.237 0.088 0.361 0.001 0.009 0.001 0.017 0.001 0.026 0.005 0.176-0.1 0.444-0.294 0.48-0.053 0.010-0.109 0.005-0.165 0.017-0.057 0.012-0.105 0.046-0.162 0.059-0.125 0.025-0.276 0.007-0.403 0.006-0.137 0-0.267 0.009-0.4 0.042-0.105 0.026-0.195 0.097-0.293 0.139-0.109 0.046-0.207 0.108-0.323 0.141-0.058 0.016-0.125 0.009-0.178 0.024-0.070 0.021-0.092 0.082-0.166 0.078-0.128-0.008-0.309-0.142-0.42-0.221-0.117-0.082-0.244-0.18-0.386-0.201-0.175-0.028-0.349-0.109-0.524-0.107-0.108 0.001-0.219-0.017-0.317 0.032-0.087 0.045-0.145 0.088-0.241 0.116-0.099 0.028-0.174 0.080-0.253 0.142-0.084 0.063-0.178 0.082-0.251 0.163-0.085 0.099-0.17 0.165-0.282 0.232-0.016 0.011-0.034 0.017-0.053 0.024-0.011 0.021-0.022 0.043-0.034 0.063-0.153 0.261-0.271 0.536-0.42 0.795-0.099 0.174-0.159 0.359-0.236 0.544zM22.806 12.618c0.053 0.046 0.095 0.105 0.149 0.149 0.050 0.038 0.105 0.067 0.153 0.107 0.034 0.030 0.121 0.072 0.12 0.128-0.003 0.050-0.158 0.134-0.199 0.158-0.030 0.018-0.055 0.032-0.089 0.037-0.059 0.006-0.117-0.020-0.175-0.004-0.083 0.021-0.107 0.096-0.151 0.159-0.050 0.074-0.13 0.075-0.188 0.136-0.042 0.042-0.091 0.113-0.124 0.165-0.041 0.065-0.071 0.132-0.101 0.2-0.059 0.138-0.257 0.104-0.392 0.104h-0.552c-0.076 0-0.136 0.009-0.208 0.028-0.082 0.020-0.128 0.047-0.208 0.078-0.067 0.022-0.141 0.061-0.209 0.070-0.041 0.007-0.082-0.005-0.122 0.001-0.055 0.011-0.088 0.032-0.149 0.034-0.176 0.004-0.353-0.002-0.529-0.001-0.133 0.001-0.305-0.109-0.43-0.049-0.046 0.022-0.076 0.063-0.126 0.082-0.079 0.028-0.175 0.020-0.259 0.028-0.129 0.012-0.25-0.041-0.367-0.095-0.042-0.020-0.086-0.062-0.13-0.074-0.034-0.009-0.057 0.006-0.092-0.014-0.030-0.017-0.076-0.082-0.1-0.104-0.043-0.042-0.066-0.049-0.111-0.074-0.046-0.025-0.124-0.075-0.163-0.111-0.034-0.030-0.067-0.087-0.029-0.115 0.024-0.020 0.055-0.016 0.083-0.042 0.030-0.030 0.037-0.066 0.046-0.051 0.055-0.075 0.136-0.14 0.199-0.209 0.082-0.094 0.161-0.194 0.255-0.276 0.082-0.070 0.171-0.129 0.249-0.204 0.086-0.082 0.157-0.183 0.252-0.255 0.066-0.050 0.143-0.088 0.215-0.132 0.165-0.103 0.307-0.142 0.494-0.175 0.232-0.042 0.448-0.012 0.678-0.024 0.195-0.008 0.391-0.028 0.586-0.032 0.222-0.002 0.442 0.055 0.666 0.055 0.109 0 0.216 0.026 0.324 0.045 0.083 0.015 0.174 0.021 0.255 0.043 0.101 0.029 0.196 0.083 0.29 0.129 0.064 0.034 0.138 0.059 0.195 0.107zM24.352 28.759c0.043-0.054 0.122-0.151 0.154-0.194 0-0.004 0.001-0.011 0.003-0.014 0.001 0.016 0.001 0.030-0.005 0.051-0.017 0.024-0.063 0.079-0.086 0.105-0.028 0.030-0.046 0.049-0.061 0.058-0.018 0.002-0.029 0.001-0.037 0 0.007-0.001 0.016-0.002 0.032-0.006zM31.502 17.38l-0.036-0.095-0.072-0.188c-0.092-0.43 0.145 0.034-0.016-0.59-0.076-0.228-0.272-0.632-0.27-0.54 0.024 0.093 0.045 0.242 0.014 0.259l-0.072-0.207c-0.006-0.001-0.015-0.002-0.021-0.004l-0.009-0.034 0.305-1.509-0.271-1.011 0.024 0.020-0.036-0.070-0.087-0.323c0.013 0.006 0.033 0.033 0.054 0.096-0.007-0.095-0.021-0.141-0.038-0.187-0.038-0.066-0.067-0.088-0.095-0.22-0.004-0.025 0.005-0.017 0.017 0.001l-0.122-0.205c0.036 0.034 0.040-0.062 0.088 0.076-0.132-0.408-0.348-0.596-0.355-0.769l0.021 0.029c-0.205-0.391-0.147-0.205-0.216-0.254l-0.004-0.011-0.034-0.258 0.082-0.217-0.071-0.050c-0.006-0.059-0.016-0.18 0.012-0.162-0.072-0.219-0.022 0.042-0.080-0.083 0.014-0.229-0.065-0.556-0.069-0.761-0.033-0.058-0.054-0.107-0.041-0.133-0.105-0.059 0.145 0.258-0.076 0.017 0.034-0.138-0.23-0.279-0.351-0.525 0.095 0.033 0.222 0.254 0.103 0.009-0.173-0.074-0.294-0.432-0.442-0.601-0.070 0.037-0.313-0.38-0.554-0.673 0.036 0.004-0.387-0.6-0.557-0.911l0.016 0.001c-0.101-0.013-0.292-0.322-0.456-0.533 0.043-0.017 0.086 0.012 0.183 0.12l-0.14-0.207c-0.054-0.034-0.108-0.092-0.205-0.22l0.083 0.020-0.072-0.1-0.101-0.084-0.089-0.072c-0.059-0.047-0.122-0.097-0.186-0.147-0.126-0.104-0.255-0.217-0.384-0.359-0.037 0.017 0.045 0.165-0.010 0.174l-0.17-0.155c0.018-0.007 0.047-0.002 0.096 0.033-0.032-0.024-0.118-0.075-0.167-0.137l0.166 0.085c-0.129-0.147-0.103-0.038-0.215-0.147 0.032-0.028-0.063-0.099-0.025-0.108 0.032 0.024 0.088 0.104 0.143 0.133-0.062-0.061-0.142-0.146-0.179-0.196-0.026-0.053-0.066-0.128-0.071-0.161-0.011 0.028-0.045 0.036-0.126-0.065-0.201-0.263-0.029-0.121-0.128-0.288-0.071-0.046-0.175-0.233-0.228-0.201-0.058-0.078-0.046-0.108-0.055-0.149-0.034-0.033-0.086-0.095-0.141-0.163-0.066-0.080-0.136-0.168-0.194-0.241-0.201-0.050-0.251-0.053-0.183-0.001l0.047 0.019c-0.011-0.001-0.021-0.004-0.033-0.006-0.233-0.041-0.466-0.111-0.698-0.186l-0.346-0.116c-0.111-0.037-0.217-0.072-0.325-0.107l-0.091-0.079-0.109-0.087 0.015-0.015c-0.268-0.199-0.573-0.471-0.782-0.594-0.075-0.063-0.153-0.179-0.105-0.17-0.030-0.022-0.058-0.045-0.076-0.058-0.047-0.020-0.087-0.036-0.125-0.050-0.036-0.014-0.067-0.029-0.103-0.045-0.072-0.036-0.157-0.082-0.292-0.166 0.246 0.082-0.066-0.067 0.248 0.093-0.29-0.163-0.342-0.226-0.685-0.334 0.13 0.005-0.19-0.168-0.346-0.229l0.196 0.14c-0.046-0.020-0.089-0.041-0.132-0.061-0.049-0.024-0.096-0.047-0.142-0.071-0.079-0.012-0.153-0.022-0.228-0.036l0.092-0.058c-0.328-0.085-0.635-0.089-0.921-0.099-0.142-0.004-0.279-0.009-0.413-0.026-0.132-0.019-0.257-0.061-0.377-0.118-0.184 0.013 0.354 0.104 0.187 0.129-0.303-0.069-0.602-0.23-0.698-0.247-0.168-0.050-0.266-0.054-0.354-0.051-0.045 0.002-0.085 0.005-0.132 0.007-0.022 0.001-0.047 0.001-0.072 0-0.029-0.001-0.049-0.001-0.1-0.009-0.032 0-0.065 0.001-0.103 0.001-0.033 0-0.070-0.002-0.112-0.005 0.058 0.026 0.111 0.092-0.224 0.112-0.311-0.015-0.382-0.111-0.184-0.128 0.075-0.001 0.111 0.006 0.108 0.016 0.101-0.007 0.233-0.016 0.109-0.045l-0.041 0.025c-0.154-0.029-0.583-0.033-0.48-0.072-0.237 0.021-0.103 0.040 0.072 0.055-0.258-0.029-0.457-0.025-0.658-0.028-0.095-0.006-0.224-0.020-0.362-0.041 0.064 0.020 0.122 0.054 0.058 0.047-0.599-0.086-0.27 0.024-0.678-0.002-0.228-0.058 0.091-0.083-0.321-0.088-0.249-0.049-0.047-0.070 0.053-0.082-0.045 0.001-0.090 0.001-0.133 0l-0.092-0.005c-0.037-0.004-0.071-0.006-0.107-0.011-0.050 0.028-0.099 0.053-0.146 0.078-0.032 0.013-0.061 0.028-0.088 0.042-0.057 0.022-0.111 0.046-0.162 0.067-0.103 0.041-0.195 0.076-0.267 0.112l0.163-0.112c-0.099 0.067-0.183 0.113-0.27 0.161l0.124-0.011c-0.107 0.047-0.192 0.095-0.201 0.075-0.088 0.087 0.12 0.029-0.067 0.182-0.074 0.026-0.174 0.088-0.265 0.141-0.046 0.025-0.089 0.047-0.126 0.063-0.020 0.006-0.036 0.013-0.050 0.015-0.009 0-0.016-0.004-0.022-0.011 0.006-0.001 0.037-0.017 0.055-0.026 0.021-0.011 0.037-0.021 0.053-0.028 0.028-0.016 0.045-0.028 0.055-0.036 0.017-0.017 0.006-0.021-0.009-0.022-0.029-0.007-0.070-0.015 0.109-0.118-0.067 0.045-0.151 0.091-0.259 0.139-0.019 0.001 0.007-0.021 0.034-0.038-0.029 0.011-0.071 0.029-0.078 0.030-0.004-0.001-0.006-0.001-0.009 0-0.004-0.001-0.006 0-0.006 0.001-0.009 0.002-0.036 0.006-0.046 0.011-0.030 0.009-0.050 0.021-0.076 0.033-0.051 0.024-0.122 0.049-0.328 0.053 0.060-0.038-0.113-0.067-0.192-0.059 0.195-0.002 0.095 0.060-0.083 0.092-0.309-0.021-0.336 0.030-0.498 0.030l0.186 0.009c-0.029 0.019-0.082 0.028-0.151 0.034-0.072 0.005-0.166 0.010-0.275 0.017-0.007 0.002-0.018 0.006-0.028 0.011-0.007-0.005 0.004-0.015 0.025-0.025 0.080-0.012 0.167-0.010 0.116-0.020-0.017 0.005-0.032 0.010-0.047 0.012l-0.069 0.007c-0.080 0.030-0.121 0.041-0.184 0.057-0.061 0.010-0.122 0.022-0.188 0.036-0.129 0.024-0.266 0.054-0.398 0.117-0.155 0.024-0.036-0.062-0.171-0.036-0.132 0.063-0.222 0.088-0.304 0.105-0.041 0.009-0.079 0.015-0.121 0.024-0.021 0.004-0.041 0.009-0.065 0.013-0.012 0.004-0.024 0.006-0.036 0.010-0.022 0.006-0.043 0.012-0.066 0.019-0.021 0.013-0.043 0.028-0.067 0.041-0.013 0.007-0.028 0.019-0.042 0.028-0.030 0.020-0.062 0.043-0.096 0.070 0.122-0.017 0.133-0.038-0.079 0.149l0.317-0.217 0.29-0.112-0.129 0.070c-0.049 0.024-0.071 0.041-0.147 0.074-0.058 0.043-0.078 0.066-0.112 0.096 0.040-0.025 0.080-0.053 0.12-0.079 0.042-0.016 0.084-0.033 0.124-0.047 0.037-0.015 0.070-0.029 0.101-0.041 0.066-0.028 0.124-0.049 0.169-0.061-0.176 0.101-0.161 0.083-0.059 0.094-0.055 0.001-0.108 0.012-0.158 0.025-0.025 0.006-0.051 0.016-0.075 0.025l-0.088 0.033c-0.070 0.051-0.141 0.104-0.215 0.159-0.070 0.050-0.145 0.096-0.233 0.132l-0.056-0.109c-0.311 0.142-0.541 0.349-0.827 0.546-0.092 0.050-0.234 0.117-0.375 0.173l0.186-0.061c-0.054 0.078-0.336 0.161-0.504 0.259-0.001-0.045-0.118-0.006-0.205 0.002 0.020 0.025-0.399 0.18-0.42 0.28l-0.071 0.022-0.066 0.047-0.049 0.030-0.093 0.059c-0.367 0.32-0.32 0.47-0.667 0.782 0.071-0.129-0.103-0.004 0.1-0.244-0.112 0.108-0.218 0.2-0.2 0.223-0.018 0.009-0.043 0.032-0.070 0.059-0.029 0.033-0.066 0.074-0.103 0.117-0.033 0.061-0.068 0.126-0.101 0.187-0.032 0.053-0.063 0.1-0.093 0.128-0.022 0.065 0.003 0.107-0.095 0.25-0.018 0.012-0.018-0.011-0.018-0.011 0.018 0.011-0.126 0.245-0.004 0.142-0.083 0.074-0.163 0.17-0.245 0.28-0.041 0.053-0.080 0.111-0.12 0.171-0.037 0.055-0.074 0.112-0.111 0.169-0.063 0.057-0.129 0.115-0.192 0.171-0.067 0.057-0.134 0.115-0.197 0.17-0.129 0.107-0.252 0.196-0.359 0.248-0.138 0.129-0.291 0.27-0.429 0.399-0.067 0.191-0.128 0.365-0.179 0.516-0.005-0.024-0.020-0.009 0.004-0.062-0.183 0.387 0.021 0.287-0.186 0.728-0.149 0.209 0.054-0.254-0.022-0.118-0.043 0.005-0.076 0.051-0.107 0.122-0.014 0.036-0.029 0.078-0.045 0.122-0.011 0.041-0.033 0.108-0.034 0.122-0.004 0.011-0.028 0.047-0.053 0.082l-0.071 0.103c-0.049 0.066-0.101 0.126-0.158 0.172l0.041-0.067c-0.186 0.172-0.321 0.52-0.571 0.842 0 0 0.001-0.024-0.016-0.015-0.006 0.021-0.025 0.055-0.054 0.104-0.015 0.078-0.030 0.168-0.049 0.266-0.018 0.088-0.039 0.183-0.063 0.279-0.047 0.192-0.101 0.391-0.147 0.565-0.013-0.132 0.028-0.178-0.046-0.125-0.047 0.171 0.097-0.021 0.004 0.319-0.028 0.045-0.057 0.099-0.096 0.175-0.036 0.105-0.070 0.187-0.107 0.204l0.032-0.222 0.039-0.126c-0.012 0.016-0.025 0.030-0.036 0.049-0.010 0.016-0.020 0.036-0.034 0.071-0.004 0.025-0.009 0.049-0.014 0.075l-0.010 0.061c-0.004 0.042-0.005 0.085-0.007 0.128-0.004 0.084-0.007 0.166-0.024 0.233l-0.029-0.028c-0.063 0.491 0.011 0.528-0.066 1.025-0.001 0.006-0.004 0.017-0.006 0.026 0.006-0.010 0.013-0.017 0.020-0.024 0.005-0.005 0.009-0.009 0.014-0.018 0.001 0.012 0.001 0.017 0.002 0.022 0 0.271-0.105 0.212-0.117 0.504l-0.103 0.067c-0.030 0.194-0.082 0.69-0.167 1.032 0.004-0.205 0.063-0.616 0.094-0.873-0.049 0.188-0.151 0.644-0.142 0.752 0.017-0.076 0.017-0.179 0.049-0.252 0.012 0.252-0.059 0.558-0.168 0.931-0.043-0.036-0.093 0.054-0.147 0.2-0.028 0.072-0.055 0.159-0.086 0.251-0.033 0.104-0.067 0.215-0.1 0.321 0.005 0.038 0.011 0.076 0.017 0.113 0.002 0.026 0.006 0.051 0.010 0.076 0.005 0.047 0.011 0.095 0.015 0.14 0.005 0.087 0.005 0.161-0.007 0.213 0.045 0.163 0.080 0.329 0.112 0.496 0.015 0.084 0.029 0.168 0.045 0.254 0.013 0.091 0.028 0.182 0.042 0.275 0.057 0.176 0.115 0.357 0.174 0.542 0.059 0.18 0.121 0.365 0.192 0.555 0.021-0.309 0.083 0.219 0.187 0.129 0.030 0.079 0.051 0.133 0.066 0.17 0.004 0.028 0.007 0.066 0.004 0.071l-0.001-0.040c0.001 0.018 0.001 0.026 0.001 0.041l0.014 0.57c-0.016 0.138-0.057-0.171-0.082-0.149 0.055 0.404-0.026 0.178-0.017 0.45 0.037-0.062 0.087 0.129 0.108 0.362l0.006-0.332c0.075 0.266 0.070 0.376 0.067 0.517 0.010 0.157 0.005 0.267 0.116 0.557l-0.084-0.166c0.038 0.111 0.088 0.299 0.144 0.5 0.030 0.101 0.060 0.205 0.089 0.307 0.017 0.049 0.033 0.099 0.047 0.146 0.020 0.053 0.038 0.103 0.054 0.15 0.022 0.049 0.029 0.055 0.041 0.079 0.013 0.020 0.025 0.038 0.036 0.055 0.022 0.036 0.045 0.066 0.066 0.090 0.005 0.054-0.001 0.132-0.059 0.014 0.072 0.191 0.159 0.39 0.25 0.588 0.095 0.205 0.191 0.413 0.282 0.611 0.051 0.071 0.101 0.138 0.15 0.204 0.042 0.060 0.084 0.12 0.124 0.178 0.079 0.116 0.147 0.226 0.201 0.332l-0.055-0.029c0.080 0.105 0.176 0.158 0.244 0.313-0.017 0-0.057-0.028-0.024 0.024 0.016 0.018 0.049 0.055 0.091 0.101 0.020 0.024 0.041 0.050 0.064 0.076 0.024 0.030 0.040 0.046 0.080 0.104 0.029 0.026 0.059 0.055 0.087 0.080 0.022 0.022 0.042 0.043 0.061 0.065l-0.133-0.079c0.471 0.509 0.82 0.674 1.255 1.056-0.065 0.066 0.309 0.457 0.496 0.652l-0.017 0.002c0.142 0.136 0.276 0.257 0.408 0.371 0.126 0.12 0.249 0.232 0.37 0.34 0.124 0.109 0.244 0.216 0.37 0.325 0.060 0.057 0.124 0.112 0.187 0.17 0.033 0.029 0.065 0.058 0.098 0.088 0.037 0.034 0.075 0.070 0.112 0.105 0.015 0.007 0.029 0.019 0.046 0.029 0.109 0.113 0.287 0.253 0.496 0.405 0.107 0.075 0.22 0.155 0.336 0.237 0.128 0.090 0.261 0.182 0.394 0.272 0.153 0.042 0.305 0.086 0.453 0.126 0.132 0.040 0.258 0.079 0.375 0.118-0.105-0.045 0.037-0.064 0.166-0.041 0.165 0.062 0.482 0.059 0.433 0.134l-0.059-0.017c0.016 0.017 0.038 0.033 0.066 0.049 0.012 0.007 0.026 0.016 0.042 0.024 0.020 0.006 0.009 0.006 0.016 0.012-0.007 0.001 0.046 0.036 0.084 0.058 0.042 0.025 0.086 0.050 0.13 0.075 0.090 0.049 0.183 0.1 0.267 0.146l0.093-0.074c0.097 0.085 0.212 0.167 0.338 0.246 0.062 0.040 0.126 0.079 0.192 0.116 0.074 0.041 0.147 0.080 0.222 0.121l0.228 0.074c0.068 0.021 0.138 0.042 0.205 0.063 0.136 0.042 0.268 0.083 0.388 0.12 0.242 0.078 0.441 0.157 0.549 0.244 0.028 0.005 0.034 0.005 0.092 0.020 0.083 0.011 0.174 0.022 0.263 0.033 0.086 0.009 0.169 0.020 0.245 0.023l-0.021 0.056c0.188 0.042 0.34 0.076 0.495 0.111 0.078 0.017 0.157 0.034 0.242 0.051 0.096 0.018 0.199 0.038 0.316 0.062 0.067-0.006 0.192-0.019 0.333-0.030l-0.12 0.051c0.34-0.022 0.416-0.203 0.728-0.228l0.1 0.080 0.258-0.016 0.268-0.011 0.329-0.046 0.313-0.050c0.208-0.036 0.413-0.082 0.615-0.146-0.007 0.014-0.021 0.043-0.115 0.063 0.082-0.013 0.208-0.030 0.344-0.051 0.076-0.004 0.155-0.008 0.229-0.011 0.078-0.005 0.153-0.013 0.213-0.022 0.122-0.017 0.194-0.043 0.155-0.083 0.015 0.078 0.615-0.033 0.931-0.097l-0.043 0.064c0.262-0.108 0.268-0.129 0.641-0.196 0.090-0.004 0.083 0.036-0.036 0.036 0.299-0.006 0.224-0.083 0.587-0.097l-0.129 0.054c0.149-0.017 0.219-0.029 0.27-0.045s0.082-0.034 0.187-0.070c0.001-0.001 0.006-0.006 0.011-0.009 0.025-0.018 0.053-0.040 0.083-0.062 0.024-0.016 0.050-0.032 0.076-0.050 0.055-0.034 0.115-0.069 0.172-0.098 0.113-0.058 0.217-0.097 0.25-0.087 0.017-0.050 0.134-0.176 0.295-0.262 0.032 0.004-0.017 0.049-0.041 0.071 0.105-0.057 0.194-0.113 0.271-0.166 0.040-0.029 0.075-0.054 0.112-0.080l0.079-0.062c0.016-0.009 0.063-0.026 0.107-0.040 0.042-0.015 0.083-0.029 0.125-0.042 0.083-0.024 0.167-0.043 0.263-0.051 0.012 0.016 0.036 0.020 0.067 0.019-0.232 0.058-0.434 0.111-0.55 0.139-0.024 0.015-0.042 0.026-0.053 0.032-0.017 0.011-0.024 0.013-0.019 0.010 0.011 0.021 0.083-0.007 0.091 0.005 0.015 0.005 0.020 0.013 0.028 0.022 0.004 0.009-0.001 0.025 0 0.041 0 0.004 0.001 0.009 0.003 0.016l0.001-0.006c0-0.002 0.001-0.006 0.003-0.010 0.017-0.006 0.033-0.014 0.049-0.022 0.037-0.015 0.072-0.032 0.111-0.049 0.076-0.032 0.158-0.066 0.241-0.1 0.165-0.067 0.337-0.128 0.488-0.154 0.016 0.001 0.032 0.002 0.045 0.006l-0.030 0.014c0.072-0.013 0.137-0.036 0.195-0.059 0.050-0.009 0.092-0.017 0.133-0.025 0.046-0.009 0.062-0.012 0.157-0.036 0.017 0.005 0.058 0.001 0.117-0.011 0.034-0.034 0.076-0.080 0.124-0.134 0.026-0.032 0.055-0.065 0.084-0.1 0.057-0.068 0.116-0.139 0.157-0.19-0.054-0.026 0.091-0.186-0.075-0.062 0.020-0.018-0.014 0.028-0.084 0.112-0.013 0.021-0.032 0.043-0.040 0.058 0-0.004 0.001-0.007 0.003-0.012l-0.213 0.259-0.179 0.049c0.037-0.021 0.111-0.050 0.166-0.071 0.020-0.028 0.040-0.057 0.061-0.085 0.017-0.022 0.037-0.047 0.057-0.071 0.033-0.042 0.072-0.082 0.121-0.121 0.025-0.089 0.055-0.186 0.074-0.237 0.208-0.118 0.521-0.423 0.598-0.436 0.053-0.070 0.108-0.144 0.166-0.22 0.079-0.067 0.159-0.137 0.24-0.204 0.086-0.075 0.169-0.149 0.249-0.217 0.157-0.144 0.29-0.279 0.365-0.394 0.103-0.099 0.146-0.075 0.199-0.095-0.059 0.060-0.136 0.12-0.161 0.159 0.199-0.207 0.674-0.503 0.682-0.607 0.313-0.179-0.122 0.172 0.272-0.121l-0.041 0.057c0.105-0.055 0.201-0.112 0.292-0.171 0.045-0.032 0.088-0.062 0.132-0.091 0.054-0.040 0.107-0.079 0.158-0.118l0.066-0.121 0.041-0.083 0.076-0.166c0.049-0.111 0.099-0.221 0.147-0.333 0.099-0.22 0.216-0.462 0.351-0.681 0.095-0.088 0.233-0.207 0.373-0.308-0.059 0.046-0.090 0.067-0.109 0.070 0.144-0.126 0.284-0.258 0.424-0.391l0.425-0.423c0.287-0.459 0.528-0.865 0.823-1.319l0.087-0.267 0.087-0.249c0.059-0.167 0.122-0.329 0.188-0.49 0.096-0.251 0.095-0.33 0.105-0.466 0-0.036 0.001-0.078 0.001-0.128l0.078-0.059 0.007-0.366c0.062-0.508 0.34-0.825 0.396-1.474l-0.060 0.071c0.062-0.224 0.149-0.719 0.187-0.669-0.001-0.026-0.025-0.084 0.017-0.169l0.036 0.001 0.010-0.084 0.019-0.111-0.042-0.121z"></path>
<path d="M14.457 17.186c0.025-0.116 0.025-0.238 0.053-0.355 0.089-0.386 0.233-0.761 0.39-1.123 0.221-0.505 0.409-1.015 0.549-1.549 0.038-0.144 0.054-0.29 0.089-0.434 0.037-0.15 0.108-0.29 0.146-0.44 0.034-0.137 0.041-0.275 0.082-0.409 0.046-0.153 0.112-0.296 0.168-0.445 0.062-0.167 0.109-0.334 0.125-0.511 0.010-0.109-0.004-0.207 0.025-0.311 0.051-0.186 0.157-0.363 0.221-0.546 0.028-0.076 0.026-0.145 0.050-0.219 0.046-0.137 0.132-0.272 0.194-0.404 0.057-0.122 0.105-0.247 0.166-0.367 0.099-0.188 0.221-0.332 0.378-0.471 0.041-0.037 0.091-0.066 0.133-0.1 0.010-0.013 0.017-0.026 0.026-0.038 0-0.019-0.001-0.034 0.025-0.038 0.063-0.096 0.126-0.19 0.196-0.279 0.055-0.071 0.112-0.099 0.186-0.142 0.033-0.021 0.058-0.042 0.082-0.075 0.128-0.161 0.209-0.369 0.319-0.542 0.14-0.22 0.282-0.453 0.47-0.636 0.199-0.192 0.417-0.362 0.612-0.559 0.437-0.444 0.903-0.833 1.435-1.16 0.154-0.094 0.296-0.199 0.444-0.299 0.062-0.041 0.095-0.042 0.157-0.042-0.041 0.018-0.090 0.030-0.122 0.036 0.034-0.005 0.099-0.017 0.143-0.036-0.005 0-0.012-0.001-0.017-0.001 0.197-0.091-0.111-0.221-0.186-0.259-0.099-0.050-0.194-0.109-0.294-0.155-0.203-0.092-0.427-0.116-0.642-0.162-0.147-0.033-0.286-0.066-0.436-0.063-0.082 0-0.162 0.007-0.241 0.022-0.124 0.024-0.238 0.062-0.363 0.064-0.2 0.005-0.4-0.047-0.596-0.078-0.222-0.037-0.448-0.066-0.673-0.063-0.376 0.005-0.752 0.004-1.128 0.001-0.309-0.002-0.61 0.033-0.916 0.075-0.338 0.047-0.63 0.188-0.949 0.308-0.978 0.361-1.859 0.948-2.701 1.552-0.372 0.267-0.745 0.541-1.039 0.896-0.211 0.258-0.413 0.53-0.617 0.794-0.221 0.286-0.394 0.588-0.56 0.906-0.037 0.067-0.076 0.13-0.125 0.19-0.070 0.086-0.157 0.158-0.22 0.25-0.207 0.301-0.249 0.706-0.388 1.040-0.121 0.293-0.22 0.577-0.292 0.886-0.055 0.23-0.108 0.461-0.162 0.691-0.121 0.515-0.115 1.036-0.166 1.56-0.049 0.487-0.093 0.969-0.087 1.459 0.004 0.27 0.028 0.54 0.033 0.81 0.004 0.266 0.006 0.527 0.042 0.792 0.072 0.544 0.237 1.066 0.351 1.601 0.049 0.232 0.049 0.471 0.111 0.702 0.055 0.211 0.145 0.437 0.251 0.629 0.067 0.122 0.158 0.229 0.226 0.351 0.070 0.126 0.166 0.486 0.354 0.476 0.042 0 0.075-0.028 0.101-0.057 0.046-0.049 0.071-0.111 0.121-0.158 0.065-0.061 0.138-0.122 0.208-0.179 0.038-0.030 0.092-0.046 0.124-0.084 0.045-0.053 0.066-0.089 0.126-0.134 0.14-0.105 0.286-0.2 0.444-0.272 0.145-0.068 0.28-0.143 0.423-0.217 0.122-0.060 0.209-0.089 0.344-0.12 0.199-0.045 0.424-0.108 0.594-0.232 0.065-0.047 0.124-0.103 0.19-0.149 0.23-0.155 0.488-0.262 0.724-0.408 0.353-0.221 0.619-0.549 0.864-0.885 0.101-0.249 0.244-0.473 0.365-0.713 0.028-0.054 0.050-0.111 0.063-0.17z"></path>
</svg>
