<!-- Generated by IcoMoon.io -->
<svg version="1.1" xmlns="http://www.w3.org/2000/svg" width="32" height="32" viewBox="0 0 32 32">
<title>return_to_the_pallid_mask</title>
<path d="M14.475 4c-0.047 0.026-0.091 0.050-0.136 0.074-0.030 0.012-0.060 0.026-0.086 0.039-0.054 0.021-0.104 0.045-0.153 0.065-0.097 0.039-0.185 0.073-0.254 0.106l0.154-0.106c-0.094 0.064-0.173 0.106-0.256 0.151l0.117-0.009c-0.101 0.045-0.182 0.087-0.19 0.069-0.084 0.082 0.114 0.030-0.063 0.175-0.070 0.025-0.164 0.084-0.251 0.134-0.044 0.024-0.087 0.043-0.122 0.058-0.019 0.006-0.033 0.012-0.046 0.014-0.008 0-0.014-0.003-0.021-0.010 0.006-0.001 0.034-0.015 0.052-0.024 0.020-0.011 0.037-0.021 0.052-0.027 0.026-0.015 0.042-0.025 0.052-0.033 0.016-0.016 0.005-0.021-0.009-0.022-0.028-0.007-0.067-0.013 0.103-0.112-0.064 0.042-0.143 0.086-0.245 0.132-0.018 0.001 0.008-0.022 0.033-0.038-0.028 0.011-0.069 0.028-0.076 0.029-0.004-0.001-0.004-0.001-0.007 0-0.004-0.001-0.005 0.001-0.005 0.002-0.008 0.002-0.035 0.006-0.045 0.010-0.029 0.008-0.047 0.020-0.072 0.031-0.049 0.022-0.117 0.048-0.312 0.051 0.039-0.025-0.023-0.040-0.091-0.048 0.043 0.017-0.042 0.057-0.168 0.079-0.294-0.020-0.318 0.027-0.472 0.027l0.175 0.009c-0.027 0.018-0.078 0.028-0.144 0.034-0.069 0.005-0.157 0.009-0.261 0.015-0.008 0.002-0.019 0.005-0.027 0.010-0.007-0.005 0.004-0.014 0.024-0.024-0.076 0.029-0.113 0.040-0.173 0.055-0.057 0.009-0.118 0.020-0.18 0.033-0.122 0.022-0.252 0.052-0.377 0.112-0.147 0.022-0.033-0.059-0.161-0.034-0.125 0.060-0.212 0.083-0.29 0.099-0.039 0.008-0.073 0.014-0.113 0.022-0.020 0.004-0.039 0.009-0.062 0.014-0.012 0.004-0.023 0.005-0.034 0.009-0.021 0.006-0.041 0.013-0.062 0.019-0.020 0.012-0.041 0.025-0.063 0.038-0.013 0.007-0.027 0.017-0.041 0.026-0.029 0.019-0.058 0.042-0.091 0.067 0.116-0.016 0.126-0.035-0.076 0.142l0.302-0.208 0.274-0.106-0.122 0.067c-0.046 0.022-0.068 0.037-0.141 0.069-0.055 0.041-0.074 0.064-0.106 0.093 0.038-0.024 0.078-0.051 0.115-0.076 0.040-0.015 0.079-0.031 0.117-0.045 0.035-0.014 0.066-0.028 0.096-0.039 0.063-0.026 0.119-0.045 0.161-0.057-0.168 0.096-0.155 0.079-0.058 0.089-0.052 0.001-0.102 0.010-0.149 0.022-0.024 0.006-0.050 0.015-0.072 0.024l-0.084 0.033c-0.066 0.049-0.132 0.097-0.202 0.149-0.066 0.048-0.138 0.091-0.221 0.125l-0.053-0.103c-0.295 0.135-0.515 0.331-0.786 0.518-0.088 0.048-0.221 0.112-0.355 0.165l0.177-0.058c-0.051 0.074-0.321 0.153-0.48 0.247-0.001-0.042-0.111-0.006-0.194 0.002 0.019 0.024-0.378 0.171-0.398 0.266l-0.069 0.021-0.062 0.045-0.046 0.029-0.089 0.057c-0.349 0.304-0.303 0.445-0.633 0.741 0.067-0.122-0.098-0.002 0.094-0.23-0.106 0.102-0.206 0.188-0.189 0.209-0.017 0.008-0.042 0.030-0.067 0.057-0.028 0.031-0.061 0.070-0.096 0.112-0.031 0.058-0.067 0.121-0.098 0.178-0.030 0.050-0.059 0.094-0.088 0.12-0.021 0.061 0.002 0.101-0.089 0.237-0.017 0.012-0.019-0.010-0.019-0.010 0.017 0.011-0.12 0.231-0.003 0.134-0.079 0.070-0.156 0.163-0.233 0.268-0.039 0.050-0.076 0.106-0.113 0.163-0.035 0.052-0.070 0.106-0.105 0.16-0.060 0.054-0.122 0.109-0.182 0.163-0.064 0.054-0.127 0.109-0.187 0.161-0.123 0.101-0.241 0.185-0.343 0.233-0.131 0.122-0.274 0.257-0.405 0.379-0.064 0.181-0.123 0.347-0.172 0.491-0.005-0.022-0.017-0.008 0.005-0.058-0.174 0.367 0.019 0.271-0.177 0.69-0.141 0.199 0.050-0.24-0.022-0.112-0.041 0.005-0.071 0.047-0.099 0.115-0.014 0.034-0.028 0.074-0.043 0.117-0.011 0.039-0.031 0.101-0.033 0.115-0.004 0.011-0.026 0.045-0.050 0.077l-0.067 0.099c-0.046 0.062-0.097 0.119-0.151 0.163l0.039-0.065c-0.176 0.164-0.305 0.495-0.542 0.801 0 0-0.001-0.022-0.017-0.014-0.006 0.020-0.021 0.053-0.048 0.099-0.014 0.074-0.031 0.158-0.048 0.251-0.017 0.084-0.038 0.173-0.060 0.264-0.045 0.182-0.095 0.372-0.139 0.537-0.013-0.125 0.025-0.168-0.045-0.118-0.045 0.162 0.092-0.020 0.003 0.302-0.026 0.043-0.053 0.094-0.091 0.166-0.034 0.1-0.066 0.178-0.101 0.194l0.029-0.211 0.039-0.12c-0.012 0.015-0.026 0.027-0.036 0.045-0.009 0.015-0.017 0.035-0.031 0.069-0.004 0.024-0.008 0.045-0.014 0.070l-0.010 0.060c-0.004 0.040-0.003 0.080-0.005 0.12-0.004 0.080-0.008 0.158-0.024 0.221l-0.027-0.027c-0.060 0.466 0.011 0.502-0.062 0.975-0.001 0.006-0.005 0.015-0.007 0.024 0.006-0.009 0.013-0.016 0.019-0.022 0.005-0.005 0.010-0.008 0.015-0.017 0.001 0.012 0.001 0.015 0.002 0.021 0 0.257-0.1 0.201-0.112 0.479l-0.098 0.063c-0.029 0.184-0.078 0.655-0.16 0.98 0.004-0.195 0.062-0.585 0.091-0.829-0.031 0.119-0.061 0.304-0.091 0.475 0.012 0.239-0.054 0.528-0.158 0.882-0.041-0.034-0.091 0.052-0.142 0.19-0.026 0.069-0.052 0.153-0.081 0.24-0.031 0.099-0.063 0.202-0.094 0.304 0.005 0.036 0.011 0.073 0.017 0.108 0.002 0.025 0.005 0.048 0.009 0.072 0.005 0.045 0.012 0.091 0.015 0.134 0.005 0.082 0.003 0.151-0.009 0.201 0.042 0.155 0.076 0.313 0.106 0.472 0.014 0.080 0.028 0.161 0.043 0.242 0.013 0.086 0.026 0.17 0.039 0.259 0.054 0.167 0.108 0.339 0.165 0.515 0.056 0.171 0.116 0.347 0.184 0.528 0.020-0.294 0.078 0.207 0.177 0.122 0.029 0.075 0.048 0.126 0.062 0.161 0.004 0.026 0.008 0.062 0.005 0.067v0.002l0.012 0.542c-0.015 0.131-0.054-0.164-0.077-0.142 0.052 0.384-0.024 0.169-0.015 0.427 0.035-0.059 0.081 0.124 0.101 0.345l0.007-0.316c0.071 0.252 0.066 0.357 0.063 0.491 0.009 0.149 0.005 0.255 0.11 0.53l-0.079-0.158c0.036 0.105 0.083 0.282 0.136 0.474 0.029 0.096 0.057 0.195 0.084 0.292 0.016 0.046 0.033 0.094 0.046 0.139 0.019 0.050 0.036 0.097 0.051 0.142 0.021 0.046 0.027 0.053 0.038 0.076 0.013 0.019 0.023 0.035 0.033 0.052 0.021 0.034 0.045 0.063 0.065 0.086 0.005 0.051-0.002 0.123-0.057 0.012 0.069 0.181 0.151 0.372 0.237 0.561 0.090 0.195 0.181 0.391 0.268 0.578 0.049 0.067 0.096 0.131 0.142 0.194 0.040 0.057 0.079 0.113 0.117 0.168 0.075 0.11 0.139 0.214 0.19 0.314l-0.051-0.027c0.076 0.1 0.168 0.151 0.232 0.299-0.016 0-0.055-0.026-0.024 0.022 0.015 0.017 0.048 0.054 0.088 0.098 0.019 0.022 0.038 0.045 0.060 0.070 0.022 0.029 0.038 0.045 0.077 0.099 0.028 0.025 0.056 0.053 0.082 0.077 0.021 0.021 0.039 0.040 0.057 0.060l-0.125-0.076c0.447 0.484 0.778 0.641 1.191 1.004-0.061 0.063 0.293 0.433 0.47 0.618l-0.015 0.002c0.135 0.129 0.263 0.243 0.388 0.352 0.12 0.114 0.237 0.22 0.352 0.323 0.118 0.104 0.23 0.205 0.35 0.309 0.057 0.054 0.117 0.106 0.177 0.161 0.031 0.028 0.061 0.055 0.093 0.084 0.035 0.032 0.071 0.066 0.106 0.099 0.014 0.007 0.028 0.018 0.045 0.027 0.104 0.107 0.272 0.241 0.47 0.386 0.101 0.071 0.207 0.147 0.317 0.225 0.121 0.085 0.248 0.171 0.374 0.257 0.145 0.040 0.291 0.081 0.431 0.12 0.125 0.038 0.246 0.076 0.357 0.113-0.1-0.042 0.034-0.062 0.156-0.039 0.156 0.059 0.456 0.056 0.41 0.127l-0.055-0.017c0.015 0.016 0.037 0.033 0.063 0.048 0.012 0.007 0.024 0.015 0.039 0.022 0.019 0.006 0.009 0.004 0.015 0.010-0.007 0.001 0.044 0.034 0.081 0.055 0.040 0.024 0.080 0.048 0.122 0.072 0.085 0.046 0.174 0.095 0.254 0.139l0.088-0.070c0.092 0.081 0.203 0.158 0.323 0.233 0.059 0.038 0.119 0.077 0.182 0.112 0.070 0.039 0.14 0.075 0.211 0.113l0.216 0.072c0.065 0.020 0.13 0.038 0.194 0.058 0.129 0.040 0.257 0.078 0.371 0.113 0.23 0.074 0.417 0.149 0.52 0.232 0.026 0.005 0.033 0.005 0.088 0.019 0.079 0.011 0.166 0.021 0.251 0.031 0.081 0.008 0.161 0.020 0.233 0.022l-0.021 0.053c0.179 0.040 0.321 0.072 0.468 0.105 0.074 0.016 0.149 0.032 0.23 0.048 0.091 0.018 0.189 0.038 0.3 0.060 0.064-0.006 0.184-0.020 0.317-0.031l-0.115 0.050c0.322-0.021 0.395-0.192 0.691-0.216l0.094 0.077 0.245-0.015 0.254-0.010 0.314-0.045 0.297-0.046c0.197-0.034 0.392-0.078 0.583-0.139-0.007 0.014-0.021 0.041-0.11 0.060 0.077-0.013 0.199-0.030 0.328-0.050 0.072-0.004 0.146-0.007 0.216-0.010 0.074-0.005 0.145-0.012 0.202-0.021 0.116-0.016 0.186-0.041 0.149-0.079 0.014 0.074 0.582-0.032 0.882-0.093l-0.041 0.062c0.249-0.102 0.254-0.123 0.607-0.187 0.085-0.004 0.080 0.033-0.033 0.033 0.284-0.006 0.211-0.077 0.556-0.091l-0.122 0.052c0.141-0.016 0.207-0.028 0.256-0.043s0.078-0.031 0.178-0.065c0.001-0.001 0.006-0.006 0.010-0.009 0.024-0.017 0.050-0.039 0.079-0.060 0.022-0.015 0.049-0.029 0.074-0.046 0.052-0.033 0.108-0.067 0.163-0.094 0.107-0.055 0.206-0.092 0.237-0.082 0.016-0.047 0.127-0.166 0.28-0.247 0.030 0.004-0.017 0.046-0.039 0.067 0.1-0.054 0.184-0.108 0.257-0.158 0.038-0.028 0.071-0.051 0.106-0.076l0.046-0.036 0.029-0.022c0.015-0.008 0.060-0.025 0.101-0.038 0.040-0.014 0.078-0.029 0.118-0.041 0.079-0.022 0.159-0.041 0.251-0.048 0.012 0.015 0.032 0.018 0.062 0.017-0.22 0.055-0.412 0.106-0.522 0.134-0.022 0.014-0.040 0.024-0.050 0.029-0.016 0.011-0.022 0.012-0.017 0.009 0.011 0.020 0.078-0.004 0.086 0.007 0.014 0.005 0.020 0.010 0.027 0.019 0.004 0.008-0.001 0.024 0 0.039 0 0.003 0.001 0.007 0.002 0.010 0-0.002 0.001-0.007 0.002-0.010 0.016-0.006 0.031-0.013 0.046-0.021 0.035-0.014 0.070-0.030 0.106-0.046 0.073-0.030 0.15-0.062 0.228-0.094 0.156-0.064 0.32-0.121 0.463-0.146 0.015 0.001 0.029 0.001 0.041 0.005l-0.029 0.012c0.069-0.013 0.132-0.032 0.187-0.055 0.047-0.008 0.087-0.017 0.125-0.024 0.044-0.008 0.059-0.012 0.149-0.034 0.016 0.005 0.053 0.001 0.11-0.010 0.032-0.032 0.073-0.076 0.118-0.127 0.025-0.030 0.051-0.061 0.079-0.094 0.054-0.065 0.112-0.133 0.151-0.18-0.051-0.025 0.085-0.178-0.072-0.060 0.019-0.017-0.014 0.028-0.081 0.108-0.013 0.020-0.029 0.041-0.036 0.055 0-0.004 0.001-0.008 0.002-0.014l-0.202 0.247-0.172 0.046c0.035-0.020 0.105-0.047 0.158-0.067 0.019-0.026 0.038-0.053 0.058-0.081 0.016-0.021 0.034-0.046 0.053-0.069 0.031-0.040 0.069-0.077 0.115-0.115 0.024-0.085 0.053-0.176 0.070-0.225 0.197-0.112 0.495-0.401 0.568-0.413 0.050-0.066 0.101-0.137 0.156-0.209 0.075-0.064 0.152-0.13 0.228-0.194 0.081-0.071 0.159-0.139 0.235-0.204 0.149-0.136 0.275-0.265 0.347-0.374 0.097-0.094 0.139-0.072 0.189-0.091-0.056 0.057-0.129 0.113-0.153 0.151 0.189-0.196 0.641-0.478 0.649-0.577 0.297-0.17-0.117 0.165 0.257-0.113l-0.038 0.053c0.1-0.052 0.19-0.107 0.276-0.163 0.043-0.030 0.084-0.058 0.125-0.086 0.051-0.038 0.102-0.074 0.151-0.112l0.062-0.115 0.039-0.079 0.070-0.158c0.046-0.105 0.094-0.21 0.141-0.316 0.094-0.209 0.204-0.439 0.333-0.647 0.090-0.084 0.221-0.197 0.353-0.293-0.056 0.044-0.083 0.066-0.101 0.069 0.136-0.12 0.269-0.246 0.402-0.372l0.196-0.196 0.208-0.204c0.272-0.436 0.501-0.822 0.781-1.253l0.082-0.254 0.082-0.237c0.056-0.159 0.116-0.313 0.178-0.465 0.091-0.239 0.090-0.314 0.099-0.443 0-0.034 0.003-0.073 0.003-0.12l0.072-0.057 0.007-0.347c0.059-0.482 0.322-0.784 0.376-1.4l-0.057 0.069c0.059-0.212 0.141-0.684 0.177-0.637-0.001-0.025-0.024-0.078 0.015-0.158h0.034l0.010-0.079 0.019-0.106-0.041-0.115v0.005l-0.033-0.089-0.070-0.18c-0.088-0.409 0.139 0.033-0.014-0.559-0.073-0.216-0.258-0.601-0.256-0.513 0.022 0.089 0.043 0.231 0.014 0.247l-0.069-0.196c-0.006-0.001-0.014-0.002-0.021-0.003l-0.010-0.033 0.292-1.433-0.257-0.961 0.022 0.019-0.034-0.065-0.082-0.305c0.012 0.006 0.031 0.031 0.052 0.091-0.007-0.090-0.020-0.135-0.036-0.178-0.036-0.062-0.065-0.083-0.091-0.208-0.004-0.024 0.005-0.017 0.017 0l-0.117-0.194c0.034 0.032 0.038-0.059 0.084 0.072-0.125-0.387-0.33-0.566-0.338-0.729l0.021 0.027c-0.195-0.371-0.139-0.196-0.204-0.242l-0.003-0.010-0.034-0.244 0.077-0.208-0.067-0.048c-0.006-0.056-0.015-0.17 0.012-0.153-0.069-0.207-0.022 0.040-0.077-0.079 0.014-0.217-0.060-0.527-0.064-0.722-0.031-0.055-0.050-0.1-0.038-0.125-0.1-0.056 0.136 0.244-0.074 0.015 0.032-0.131-0.218-0.266-0.333-0.499 0.090 0.031 0.21 0.243 0.096 0.010-0.164-0.070-0.277-0.41-0.419-0.571-0.066 0.035-0.298-0.361-0.527-0.638 0.034 0.004-0.366-0.572-0.527-0.867l0.014 0.002c-0.096-0.012-0.279-0.304-0.434-0.504 0.041-0.016 0.083 0.011 0.175 0.113l-0.132-0.197c-0.051-0.032-0.101-0.088-0.194-0.209l0.079 0.021-0.070-0.094-0.096-0.081-0.084-0.069c-0.056-0.045-0.117-0.093-0.177-0.141-0.12-0.099-0.243-0.205-0.365-0.34-0.035 0.016 0.042 0.156-0.010 0.165l-0.16-0.149c0.017-0.007 0.045-0.002 0.091 0.031-0.030-0.022-0.113-0.070-0.16-0.129l0.158 0.082c-0.122-0.14-0.098-0.037-0.204-0.141 0.030-0.026-0.059-0.094-0.022-0.103 0.030 0.022 0.083 0.098 0.136 0.125-0.059-0.057-0.135-0.136-0.17-0.184-0.025-0.050-0.062-0.123-0.067-0.154-0.011 0.026-0.043 0.035-0.12-0.060-0.191-0.25-0.028-0.116-0.122-0.274-0.067-0.044-0.166-0.22-0.216-0.19-0.055-0.074-0.044-0.102-0.053-0.141-0.032-0.031-0.081-0.091-0.134-0.156-0.062-0.076-0.127-0.159-0.182-0.228-0.191-0.047-0.24-0.049-0.175 0l0.046 0.017c-0.011-0.001-0.021-0.005-0.033-0.007-0.221-0.039-0.441-0.104-0.661-0.175l-0.329-0.11c-0.105-0.035-0.205-0.069-0.307-0.101l-0.087-0.076-0.103-0.082 0.012-0.014c-0.255-0.189-0.543-0.448-0.741-0.564-0.071-0.060-0.144-0.17-0.099-0.161-0.029-0.021-0.055-0.042-0.072-0.055-0.045-0.019-0.082-0.033-0.118-0.046-0.034-0.014-0.066-0.028-0.099-0.043-0.069-0.034-0.148-0.078-0.276-0.158 0.234 0.077-0.062-0.063 0.235 0.089-0.275-0.155-0.325-0.215-0.65-0.317 0.124 0.005-0.179-0.16-0.328-0.218l0.185 0.132c-0.044-0.019-0.085-0.038-0.125-0.057-0.046-0.022-0.092-0.046-0.136-0.069-0.075-0.012-0.145-0.020-0.216-0.033l0.087-0.055c-0.311-0.081-0.601-0.084-0.873-0.093-0.135-0.004-0.265-0.009-0.393-0.026-0.125-0.018-0.243-0.058-0.357-0.113-0.175 0.012 0.337 0.098 0.178 0.122-0.287-0.065-0.571-0.217-0.662-0.233-0.16-0.048-0.254-0.052-0.338-0.050-0.043 0.002-0.080 0.005-0.123 0.007-0.021 0.001-0.047 0.001-0.070 0-0.028-0.001-0.046-0.001-0.094-0.009-0.030 0-0.062 0.002-0.098 0.002-0.031 0-0.066-0.002-0.106-0.005 0.055 0.025 0.106 0.086-0.211 0.105-0.295-0.014-0.362-0.104-0.175-0.12 0.071-0.001 0.106 0.006 0.103 0.015 0.096-0.007 0.22-0.015 0.103-0.043l-0.039 0.024c-0.146-0.028-0.552-0.031-0.455-0.069-0.225 0.020-0.099 0.036 0.067 0.051-0.245-0.027-0.432-0.023-0.623-0.026-0.090-0.006-0.214-0.018-0.345-0.038 0.061 0.019 0.116 0.051 0.055 0.045-0.568-0.081-0.255 0.021-0.642-0.003-0.216-0.055 0.086-0.077-0.305-0.082-0.236-0.046-0.045-0.066 0.050-0.077-0.043 0.001-0.084 0.001-0.125 0l-0.088-0.005c-0.034-0.004-0.068-0.006-0.101-0.010h-0.002zM14.623 6.204h0.491c0.029 0.007 0.058 0.017 0.086 0.017 0.17 0.013 0.338 0.019 0.508 0.029 0.108 0.007 0.216 0.007 0.324 0.021 0.233 0.023 0.466 0.069 0.695 0.12 0.369 0.083 0.736 0.174 1.114 0.214 0.269 0.030 0.536 0.084 0.8 0.149 0.199 0.051 0.401 0.095 0.592 0.175 0.031 0.013 0.061 0.019 0.093 0.022 0.204 0.039 0.398 0.105 0.587 0.187 0.073 0.033 0.145 0.061 0.218 0.091 0.256 0.102 0.496 0.237 0.724 0.391 0.135 0.093 0.271 0.179 0.407 0.269 0.095 0.064 0.192 0.125 0.283 0.196 0.254 0.196 0.528 0.361 0.812 0.511 0.123 0.067 0.248 0.131 0.372 0.197 0.205 0.11 0.395 0.242 0.57 0.396 0.292 0.264 0.566 0.544 0.832 0.832 0.228 0.245 0.424 0.514 0.614 0.788 0.091 0.131 0.185 0.264 0.293 0.381 0.132 0.142 0.244 0.298 0.338 0.467 0.018 0.033 0.037 0.061 0.055 0.093 0.035 0.063 0.081 0.12 0.137 0.166 0.038 0.030 0.072 0.067 0.105 0.103 0.218 0.239 0.387 0.509 0.51 0.808 0.049 0.118 0.089 0.239 0.106 0.365 0.011 0.088 0.031 0.174 0.076 0.252 0.1 0.172 0.171 0.359 0.24 0.546 0.041 0.114 0.087 0.227 0.093 0.35 0.001 0.017 0.010 0.029 0.015 0.045v0.981c-0.024 0.027-0.017 0.062-0.019 0.093-0.004 0.078 0.001 0.159-0.005 0.237-0.025 0.226-0.008 0.45 0.007 0.676 0.003 0.023 0.011 0.048 0.017 0.074l0.002 0.237c-0.006 0.007-0.015 0.014-0.021 0.021-0.022 0.039-0.042 0.080-0.067 0.118-0.073 0.107-0.175 0.167-0.307 0.161-0.078-0.001-0.157-0.003-0.235-0.007-0.094-0.007-0.14-0.055-0.154-0.148-0.004-0.033-0.004-0.066-0.003-0.098 0.016-0.245-0.017-0.483-0.064-0.721-0.035-0.179-0.057-0.361-0.072-0.544-0.021-0.241-0.038-0.483-0.060-0.724-0.011-0.127-0.033-0.251-0.081-0.371-0.036-0.089-0.060-0.181-0.053-0.278 0.003-0.056-0.014-0.109-0.039-0.16-0.109-0.209-0.207-0.422-0.299-0.64-0.029-0.071-0.070-0.139-0.122-0.199-0.032-0.038-0.064-0.075-0.096-0.112-0.052-0.060-0.097-0.125-0.132-0.196-0.076-0.149-0.166-0.288-0.273-0.417-0.15-0.182-0.289-0.37-0.436-0.554-0.061-0.076-0.129-0.15-0.196-0.221-0.056-0.060-0.107-0.122-0.144-0.196-0.055-0.111-0.125-0.215-0.197-0.316-0.293-0.411-0.636-0.771-1.043-1.072-0.098-0.071-0.206-0.127-0.317-0.172-0.091-0.038-0.183-0.073-0.274-0.103-0.139-0.047-0.262-0.119-0.369-0.22-0.109-0.104-0.233-0.192-0.364-0.264-0.288-0.163-0.558-0.351-0.82-0.552-0.036-0.027-0.073-0.056-0.11-0.084-0.075-0.060-0.159-0.103-0.249-0.136-0.505-0.179-1.008-0.361-1.513-0.54-0.108-0.038-0.214-0.077-0.317-0.129-0.142-0.070-0.293-0.104-0.448-0.132-0.103-0.020-0.207-0.037-0.309-0.058-0.057-0.013-0.114-0.027-0.168-0.050-0.078-0.033-0.159-0.043-0.24-0.039-0.102 0.004-0.203 0.010-0.304 0.014-0.088 0.004-0.177 0.007-0.266 0.007-0.248-0.007-0.495-0.019-0.741-0.053-0.175-0.023-0.351-0.049-0.523-0.081-0.176-0.033-0.351-0.044-0.527-0.048-0.206-0.004-0.413-0.002-0.619-0.002-0.231 0-0.453 0.037-0.667 0.129-0.054 0.023-0.111 0.042-0.165 0.065-0.175 0.076-0.358 0.122-0.546 0.153-0.145 0.023-0.291 0.047-0.436 0.070-0.061 0.010-0.124 0.014-0.184 0.024-0.057 0.013-0.115 0.026-0.17 0.048-0.089 0.033-0.178 0.065-0.264 0.103-0.162 0.069-0.322 0.142-0.484 0.214-0.107 0.048-0.213 0.099-0.319 0.149-0.050 0.023-0.102 0.041-0.16 0.045-0.073 0.004-0.142 0.022-0.208 0.057-0.071 0.035-0.144 0.074-0.214 0.115-0.301 0.173-0.602 0.346-0.916 0.491-0.131 0.061-0.248 0.143-0.353 0.244-0.090 0.086-0.183 0.169-0.273 0.254-0.038 0.036-0.072 0.075-0.105 0.115-0.071 0.087-0.146 0.17-0.228 0.244-0.104 0.091-0.193 0.194-0.273 0.307-0.046 0.063-0.099 0.122-0.149 0.182-0.033 0.041-0.067 0.079-0.101 0.12-0.067 0.080-0.135 0.16-0.199 0.242-0.043 0.057-0.087 0.116-0.122 0.178-0.055 0.097-0.104 0.195-0.16 0.293-0.056 0.101-0.084 0.209-0.101 0.323-0.035 0.219-0.057 0.442-0.146 0.65-0.035 0.081-0.055 0.167-0.051 0.257 0.004 0.080-0.015 0.155-0.046 0.228-0.027 0.067-0.056 0.134-0.091 0.196-0.112 0.197-0.188 0.409-0.257 0.623-0.045 0.142-0.096 0.279-0.142 0.417-0.020 0.065-0.037 0.132-0.051 0.199-0.035 0.17-0.066 0.34-0.099 0.511-0.001 0.007-0.003 0.012-0.003 0.019-0.062 0.229-0.124 0.462-0.189 0.691-0.019 0.066-0.041 0.131-0.076 0.19-0.049 0.087-0.078 0.179-0.098 0.274-0.008 0.041-0.016 0.084-0.027 0.125-0.028 0.104-0.041 0.21-0.041 0.319-0.001 0.057-0.013 0.116-0.021 0.175-0.007 0.045-0.017 0.090-0.017 0.136 0.001 0.047-0.005 0.089-0.019 0.134-0.007 0.023-0.012 0.051-0.019 0.076-0.011 0.042-0.018 0.084-0.034 0.122-0.045 0.096-0.081 0.196-0.099 0.299-0.006 0.041-0.023 0.073-0.046 0.105-0.021 0.027-0.045 0.047-0.079 0.055-0.054 0.013-0.103 0.041-0.16 0.043-0.021 0-0.048 0.014-0.062 0.027-0.046 0.049-0.104 0.056-0.161 0.039-0.108-0.027-0.217-0.044-0.326-0.062-0.070-0.010-0.134-0.034-0.185-0.084-0.012-0.013-0.028-0.016-0.041-0.026v-0.197c0.036-0.023 0.033-0.059 0.038-0.094 0.018-0.153 0.040-0.306 0.055-0.458 0.018-0.156 0.034-0.313 0.043-0.468 0.006-0.103 0.025-0.202 0.072-0.293 0.088-0.172 0.148-0.356 0.196-0.542 0.049-0.184 0.107-0.363 0.137-0.551 0.016-0.103 0.035-0.206 0.055-0.309 0.029-0.151 0.071-0.297 0.122-0.443 0.15-0.429 0.272-0.867 0.4-1.302 0.080-0.267 0.137-0.544 0.199-0.818 0.039-0.169 0.074-0.338 0.154-0.492 0.093-0.173 0.183-0.348 0.276-0.52 0.089-0.16 0.191-0.314 0.302-0.458 0.123-0.158 0.244-0.314 0.371-0.468 0.144-0.178 0.273-0.368 0.359-0.583 0.069-0.177 0.179-0.324 0.321-0.45 0.11-0.097 0.221-0.194 0.336-0.287 0.125-0.101 0.264-0.18 0.413-0.239 0.103-0.042 0.204-0.089 0.305-0.134 0.109-0.046 0.215-0.093 0.324-0.136 0.098-0.039 0.194-0.080 0.283-0.136 0.198-0.122 0.397-0.24 0.595-0.36 0.087-0.054 0.179-0.093 0.28-0.115 0.069-0.017 0.137-0.041 0.204-0.067 0.128-0.049 0.253-0.105 0.381-0.153 0.223-0.083 0.45-0.159 0.669-0.254 0.185-0.082 0.371-0.159 0.558-0.237 0.055-0.023 0.113-0.038 0.168-0.055 0.054-0.017 0.105-0.034 0.149-0.070 0.029-0.027 0.065-0.046 0.101-0.060 0.095-0.038 0.189-0.073 0.285-0.099 0.151-0.045 0.307-0.070 0.462-0.091 0.171-0.023 0.344-0.051 0.515-0.067 0.216-0.020 0.431-0.029 0.647-0.046 0.032-0.001 0.063-0.011 0.094-0.017zM15.38 8.246c0.017 0.002 0.034 0.013 0.043 0.031 0.013 0.027 0.021 0.054 0.027 0.082 0.015 0.088 0.012 0.176 0.009 0.264-0.005 0.098-0.009 0.195-0.007 0.293 0.001 0.127 0.033 0.246 0.11 0.357v-0.005c0.022 0.004 0.042 0.010 0.062 0.014 0.201 0.017 0.405 0.033 0.607 0.003 0.067-0.010 0.133-0.022 0.199-0.041 0.040-0.010 0.076-0.036 0.115-0.055 0.014-0.007 0.027-0.012 0.034-0.015 0.067 0.023 0.125 0.043 0.182 0.060 0.081 0.023 0.13 0.076 0.134 0.161 0.004 0.056 0.005 0.111 0.005 0.166 0.001 0.020-0.003 0.040-0.009 0.058-0.013 0.036-0.037 0.061-0.079 0.063-0.032 0.001-0.065 0.004-0.098 0.002-0.095-0.004-0.187-0.002-0.276 0.045-0.025 0.013-0.058 0.014-0.087 0.014-0.078-0.007-0.129 0.029-0.163 0.098-0.053 0.101-0.098 0.113-0.199 0.069-0.060-0.027-0.122-0.043-0.185-0.058-0.102-0.023-0.202-0.058-0.304-0.088-0.024 0.010-0.027 0.035-0.031 0.057-0.007 0.051-0.015 0.103-0.017 0.154-0.003 0.069-0.019 0.137-0.038 0.202-0.062 0.202-0.121 0.405-0.182 0.609-0.001 0.003-0.005 0.004-0.010 0.010-0.052-0.030-0.105-0.063-0.156-0.096-0.050-0.033-0.102-0.058-0.158-0.079-0.087-0.030-0.099-0.053-0.094-0.146 0.003-0.039 0.008-0.078 0.012-0.117 0.006-0.071 0.019-0.143 0.017-0.214-0.005-0.193 0.020-0.383 0.067-0.571 0.040-0.158 0.073-0.318 0.101-0.479 0.013-0.076 0.014-0.158 0.014-0.235 0.003-0.124 0-0.125 0.063-0.239 0.027-0.048 0.047-0.1 0.074-0.148 0.016-0.033 0.037-0.063 0.062-0.088 0.032-0.033 0.066-0.063 0.086-0.105 0.006-0.007 0.014-0.015 0.021-0.019 0.015-0.013 0.032-0.019 0.050-0.017zM16.37 8.286c0.094 0.033 0.188 0.014 0.281 0.014 0.049 0 0.098-0.001 0.148 0.003 0.080 0.010 0.114 0.047 0.127 0.125 0.004 0.030 0.007 0.058 0.003 0.088-0.009 0.077-0.025 0.156-0.039 0.232-0.005 0.023-0.012 0.044-0.022 0.063-0.015 0.030-0.043 0.039-0.074 0.031-0.007-0.001-0.014-0.002-0.019-0.007-0.097-0.066-0.213-0.074-0.317-0.12-0.038-0.017-0.083-0.015-0.125-0.019-0.028-0.004-0.059-0.002-0.103-0.002 0.006-0.037 0.011-0.061 0.019-0.086 0.007-0.023 0.019-0.049 0.029-0.072 0.047-0.098 0.049-0.102 0.019-0.204 0.014-0.033 0.035-0.059 0.074-0.046zM12.588 8.49c0.017-0.008 0.041-0.004 0.077 0.007 0.028 0.007 0.056 0.011 0.084 0.017 0.035 0.010 0.072 0.019 0.105 0.033 0.039 0.017 0.066 0.044 0.074 0.084 0.024 0.12 0.106 0.201 0.184 0.287 0.006 0.007 0.011 0.012 0.021 0.019 0.064 0.054 0.054 0.085-0.010 0.13-0.060 0.041-0.128 0.064-0.197 0.082-0.042 0.013-0.082 0.020-0.122 0.034-0.057 0.020-0.068 0.035-0.060 0.093 0.001 0.013 0.007 0.027 0.012 0.046-0.027 0.033-0.051 0.059-0.076 0.086-0.033 0.038-0.074 0.060-0.122 0.077-0.152 0.050-0.302 0.106-0.453 0.16-0.024 0.010-0.048 0.020-0.070 0.034-0.050 0.030-0.1 0.061-0.16 0.070-0.073 0.013-0.108 0.105-0.058 0.17 0.020 0.027 0.042 0.050 0.065 0.074 0.039 0.036 0.067 0.076 0.091 0.125 0.019 0.036 0.041 0.075 0.069 0.106 0.061 0.069 0.113 0.141 0.154 0.225 0.013 0.027 0.028 0.053 0.041 0.079 0.049 0.091 0.12 0.162 0.213 0.211 0.012 0.007 0.024 0.014 0.034 0.021 0.070 0.035 0.108 0.095 0.117 0.17 0.012 0.101 0.017 0.202 0.019 0.302 0.003 0.063-0.027 0.099-0.088 0.117-0.060 0.017-0.119 0.025-0.18 0.038-0.022 0.007-0.045 0.010-0.067 0.014-0.067 0.013-0.125 0.036-0.166 0.093-0.045-0.017-0.074-0.047-0.099-0.081-0.064-0.086-0.13-0.172-0.189-0.261-0.052-0.077-0.080-0.164-0.091-0.257-0.004-0.041-0.012-0.084-0.022-0.125-0.027-0.101-0.080-0.188-0.163-0.252-0.145-0.113-0.239-0.265-0.336-0.417-0.040-0.062-0.054-0.131-0.050-0.206 0.007-0.103 0.034-0.199 0.079-0.29 0.035-0.070 0.087-0.123 0.16-0.154 0.028-0.013 0.059-0.027 0.089-0.041 0.069-0.030 0.131-0.069 0.192-0.115 0.041-0.030 0.084-0.062 0.129-0.088 0.024-0.013 0.022-0.036 0.038-0.053 0.015-0.003 0.031-0.003 0.046-0.003 0.055-0.001 0.101-0.020 0.142-0.058 0.069-0.061 0.143-0.115 0.23-0.148 0.032-0.013 0.054-0.037 0.063-0.070 0.020-0.061 0.060-0.109 0.112-0.148 0.050-0.039 0.085-0.088 0.098-0.153 0-0.007 0.001-0.012 0.003-0.019 0.012-0.035 0.022-0.055 0.039-0.063zM18.555 8.998c0.008 0.017 0.016 0.023 0.017 0.036 0.022 0.111 0.044 0.224 0.064 0.336 0.006 0.033 0.005 0.066 0.002 0.099-0.004 0.054-0.025 0.1-0.065 0.137-0.015 0.013-0.029 0.026-0.045 0.039-0.076 0.060-0.115 0.139-0.123 0.235-0.004 0.055-0.011 0.111-0.009 0.166 0.003 0.070-0.031 0.108-0.091 0.134-0.102 0.045-0.209 0.057-0.317 0.043-0.059-0.007-0.102-0.040-0.112-0.105-0.004-0.023-0.011-0.044-0.019-0.076 0.015-0.030 0.026-0.062 0.048-0.084 0.038-0.038 0.037-0.080 0.036-0.127-0.001-0.013 0-0.026-0.002-0.039-0.007-0.071 0.020-0.127 0.081-0.166 0.046-0.030 0.089-0.064 0.108-0.12 0.004-0.007 0.011-0.017 0.019-0.024 0.057-0.036 0.077-0.094 0.099-0.153 0.016-0.042 0.039-0.083 0.065-0.118 0.048-0.067 0.108-0.124 0.173-0.173 0.021-0.013 0.043-0.027 0.070-0.041zM19.267 9.178c0.022-0.010 0.050-0.009 0.082 0 0.071 0.020 0.132 0.054 0.173 0.118s0.091 0.12 0.144 0.173c0.028 0.027 0.054 0.058 0.077 0.089 0.029 0.038 0.059 0.069 0.113 0.065 0.006 0 0.013 0.003 0.019 0.003 0.031 0.010 0.048 0.034 0.043 0.069-0.003 0.023-0.008 0.044-0.017 0.065-0.019 0.045-0.045 0.089-0.067 0.132-0.029 0.059-0.062 0.114-0.087 0.173-0.028 0.062-0.070 0.101-0.141 0.106-0.035 0.003-0.070 0.012-0.106 0.015-0.053 0.004-0.093 0.030-0.12 0.074-0.027 0.048-0.054 0.098-0.076 0.149-0.011 0.027-0.011 0.056-0.012 0.086-0.003 0.042 0.017 0.076 0.055 0.096 0.018 0.010 0.036 0.016 0.053 0.026 0.029 0.017 0.046 0.047 0.048 0.081 0.008 0.103-0.001 0.203-0.039 0.3-0.020 0.050-0.050 0.089-0.105 0.106-0.048 0.013-0.077 0.047-0.096 0.093-0.047 0.115-0.118 0.216-0.192 0.317-0.036 0.050-0.071 0.102-0.106 0.153-0.009 0.013-0.019 0.027-0.031 0.039-0.022 0.023-0.054 0.026-0.079 0.003-0.028-0.027-0.053-0.057-0.079-0.088-0.026-0.027-0.047-0.062-0.076-0.089-0.047-0.042-0.104-0.067-0.168-0.076-0.088-0.010-0.141-0.055-0.148-0.165-0.012-0.173-0.009-0.346 0.058-0.511 0.048-0.12 0.104-0.235 0.178-0.338 0.021-0.030 0.041-0.061 0.062-0.088 0.145-0.177 0.25-0.375 0.326-0.589 0.035-0.098 0.074-0.195 0.115-0.304 0.057-0.017 0.085-0.062 0.103-0.118 0.012-0.038 0.022-0.076 0.039-0.11 0.015-0.031 0.032-0.050 0.055-0.060zM13.424 9.44c0.039-0.001 0.069 0.016 0.084 0.055 0.007 0.017 0.014 0.030 0.019 0.045 0.015 0.045 0.034 0.085 0.065 0.12 0.041 0.046 0.038 0.095 0.009 0.144-0.015 0.027-0.033 0.049-0.048 0.074-0.063 0.095-0.074 0.193-0.019 0.295 0.057 0.104 0.032 0.202-0.022 0.295-0.025 0.043-0.065 0.067-0.113 0.069-0.033 0.001-0.064 0-0.096-0.003-0.035-0.004-0.064-0.020-0.086-0.046-0.041-0.050-0.085-0.099-0.122-0.153-0.027-0.040-0.043-0.088-0.062-0.132-0.018-0.041-0.041-0.075-0.086-0.088-0.035-0.010-0.066-0.027-0.086-0.060-0.022-0.038-0.031-0.080-0.029-0.123 0.001-0.027 0.007-0.050 0.012-0.076v-0.002c-0.004-0.007-0.005-0.012-0.009-0.015-0.041-0.059-0.042-0.059 0.015-0.101 0.020-0.013 0.034-0.038 0.046-0.060 0.018-0.035 0.040-0.056 0.082-0.058 0.047-0.004 0.085-0.023 0.101-0.076 0.020-0.059 0.071-0.084 0.129-0.093 0.071-0.007 0.143-0.007 0.214-0.010zM9.848 10.775c0.042 0.040 0.071 0.087 0.088 0.141 0.020 0.070 0.063 0.118 0.122 0.158 0.056 0.039 0.111 0.080 0.166 0.12 0.068 0.049 0.145 0.075 0.225 0.096 0.084 0.023 0.168 0.047 0.254 0.070 0.045 0.010 0.091 0.016 0.136 0.026 0.015 0.003 0.033 0.007 0.048 0.010 0.008 0.004 0.015 0.014 0.026 0.021 0 0.062-0.056 0.083-0.091 0.12 0.005 0.043 0.018 0.084 0.045 0.117 0.024 0.030 0.031 0.063 0.029 0.099 0 0.142 0.002 0.283-0.003 0.422-0.004 0.127-0.047 0.246-0.112 0.353-0.094 0.153-0.195 0.302-0.335 0.419-0.046 0.040-0.075 0.088-0.105 0.141-0.043 0.080-0.093 0.158-0.139 0.237-0.052 0.087-0.106 0.172-0.153 0.261-0.032 0.060-0.069 0.111-0.122 0.151-0.024 0.020-0.047 0.037-0.070 0.055-0.063 0.049-0.118 0.102-0.165 0.166-0.019 0.027-0.041 0.050-0.067 0.070-0.036 0.027-0.076 0.023-0.108-0.007-0.035-0.039-0.074-0.073-0.12-0.099-0.008-0.007-0.016-0.012-0.022-0.019-0.062-0.081-0.146-0.14-0.225-0.204-0.005-0.004-0.009-0.007-0.014-0.014-0.091-0.101-0.187-0.2-0.274-0.305-0.032-0.039-0.050-0.090-0.074-0.137-0.018-0.035-0.032-0.073-0.052-0.106-0.033-0.056-0.086-0.078-0.149-0.069-0.041 0.007-0.082 0.024-0.122 0.034-0.039 0.010-0.076 0.024-0.115 0.024-0.061 0.004-0.092-0.039-0.072-0.096 0.025-0.077 0.041-0.157 0.105-0.218 0.015-0.017 0.020-0.046 0.026-0.070 0.012-0.042 0.011-0.044 0.043-0.084 0.046 0.004 0.089 0.004 0.134 0.014 0.034 0.007 0.071 0.018 0.103 0.031 0.066 0.030 0.13 0.060 0.196 0.091s0.125 0.069 0.178 0.118c0.076 0.071 0.153 0.142 0.245 0.192 0.045 0.023 0.077 0.062 0.098 0.108 0.042 0.090 0.112 0.14 0.206 0.165 0.040 0.013 0.079 0.033 0.117 0.053 0.109 0.061 0.171 0.007 0.182-0.099 0.006-0.045 0-0.090 0-0.136v-0.12c0.090-0.030 0.133-0.097 0.168-0.172 0.061-0.138 0.149-0.261 0.23-0.388 0.038-0.060 0.092-0.111 0.141-0.168v-0.005c0.001-0.042-0.009-0.082-0.058-0.106-0.018-0.007-0.031-0.034-0.038-0.055-0.016-0.047-0.037-0.092-0.069-0.13-0.034-0.045-0.039-0.094-0.027-0.148 0.008-0.041 0.016-0.084 0.022-0.125 0.009-0.063-0.006-0.117-0.055-0.16-0.059-0.053-0.119-0.102-0.18-0.153-0.024-0.020-0.053-0.024-0.082-0.024-0.069 0.001-0.138 0.004-0.206 0.007-0.042 0.001-0.085-0.002-0.123-0.019-0.060-0.027-0.095-0.071-0.091-0.139 0.002-0.027 0.005-0.058 0.014-0.086 0.019-0.069 0.042-0.137 0.063-0.206 0.005-0.013 0.009-0.025 0.017-0.033 0.059-0.057 0.117-0.115 0.177-0.172 0.009-0.010 0.022-0.012 0.036-0.019zM21.702 10.967c0.050 0 0.098-0.002 0.148 0.005 0.081 0.007 0.139 0.048 0.172 0.125 0.034 0.078 0.047 0.158 0.036 0.24-0.001 0.013-0.009 0.022-0.014 0.038-0.014 0.004-0.025 0.007-0.038 0.007-0.061 0.013-0.062 0.013-0.065 0.074-0.003 0.050-0.010 0.061-0.055 0.058-0.053-0.003-0.105-0.005-0.156-0.015-0.049-0.010-0.092-0.031-0.106-0.089-0.011-0.042-0.042-0.051-0.082-0.050-0.047 0.003-0.082 0.024-0.108 0.060-0.089 0.127-0.153 0.259-0.108 0.426 0.091 0.046 0.194 0.060 0.299 0.055 0.089-0.004 0.176-0.019 0.259-0.048 0.071-0.027 0.143-0.042 0.22-0.043 0.091-0.001 0.184-0.010 0.269-0.046 0.021-0.010 0.045-0.012 0.067-0.015 0.031-0.004 0.058-0.001 0.084 0.015 0.019 0.013 0.037 0.027 0.058 0.036 0.020 0.007 0.043 0.014 0.070 0.021 0.016 0.065 0.068 0.079 0.127 0.077 0.050 0 0.099 0.001 0.148-0.003 0.064-0.010 0.122-0 0.177 0.034 0.008 0.007 0.019 0.005 0.029 0.012 0.019 0.039 0.013 0.082 0.010 0.125-0.004 0.071-0.001 0.144 0.031 0.211 0.005 0.013 0.004 0.023 0.005 0.039-0.067 0.007-0.133 0.009-0.197 0.019-0.063 0.013-0.125 0.030-0.187 0.045-0.018 0.035-0.008 0.069-0.010 0.101-0.006 0.111-0.006 0.223-0.015 0.333-0.006 0.098-0.033 0.192-0.079 0.281-0.042 0.082-0.095 0.155-0.178 0.202-0.041 0.023-0.070 0.058-0.094 0.096-0.031 0.049-0.074 0.084-0.123 0.11-0.059 0.030-0.114 0.061-0.172 0.093-0.074 0.042-0.154 0.056-0.237 0.048-0.059-0.007-0.116-0.016-0.175-0.026-0.076-0.013-0.153-0.027-0.23-0.041-0.022-0.004-0.045-0.011-0.065-0.021-0.033-0.017-0.050-0.043-0.053-0.077-0.003-0.020-0.004-0.038-0.002-0.058 0.006-0.104 0.005-0.21-0.009-0.314 0-0.004 0.005-0.009 0.007-0.015v0.007c0.027-0.010 0.041 0.013 0.057 0.026 0.027 0.023 0.050 0.053 0.076 0.077 0.076 0.074 0.16 0.111 0.268 0.076 0.046-0.017 0.095-0.016 0.144-0.026 0.091-0.017 0.176-0.050 0.259-0.091 0.033-0.017 0.057-0.044 0.072-0.077 0.071-0.176 0.16-0.344 0.196-0.532 0.011-0.057 0.018-0.115 0.009-0.17-0.040-0.020-0.075-0.014-0.11-0.014-0.102 0-0.203 0.003-0.304 0.003-0.092 0-0.181-0.017-0.269-0.050-0.036-0.013-0.074-0.019-0.112-0.033-0.049-0.017-0.102-0.031-0.148-0.050-0.047-0.020-0.092-0.033-0.142-0.033-0.124 0.002-0.25 0.004-0.374 0.002-0.055 0-0.11-0.007-0.165-0.014-0.080-0.010-0.156-0.016-0.228 0.027-0.012 0.007-0.025 0.010-0.038 0.014-0.049 0.017-0.059 0.012-0.086-0.034-0.013-0.023-0.027-0.036-0.048-0.045-0.033-0.017-0.067-0.026-0.101-0.039-0.036-0.013-0.054-0.041-0.064-0.079-0.014-0.054-0.005-0.105 0.019-0.153 0.011-0.020 0.034-0.041 0.057-0.050 0.097-0.038 0.198-0.063 0.305-0.050 0.101 0.013 0.202 0.017 0.304 0.021 0.008 0 0.018-0.007 0.031-0.010 0.001-0.033 0.003-0.064 0.003-0.096 0.004-0.103 0.024-0.201 0.077-0.29 0.034-0.056 0.074-0.107 0.127-0.148 0.050-0.040 0.101-0.083 0.146-0.129 0.107-0.111 0.232-0.167 0.384-0.166zM8.396 11.015c0.046 0.023 0.092 0.045 0.137 0.069 0.057 0.027 0.115 0.046 0.178 0.045 0.043-0.001 0.084 0.012 0.122 0.034 0.083 0.050 0.169 0.102 0.251 0.154 0.053 0.034 0.094 0.079 0.125 0.134 0.031 0.050 0.063 0.101 0.12 0.125 0.012 0.007 0.025 0.023 0.027 0.036 0.008 0.047 0.044 0.064 0.081 0.079 0.029 0.013 0.062 0.021 0.093 0.031 0.042 0.013 0.075 0.035 0.101 0.072 0.021 0.033 0.047 0.060 0.074 0.091 0.043 0.050 0.069 0.11 0.079 0.177 0.006 0.046-0.005 0.080-0.043 0.112-0.062 0.051-0.122 0.107-0.177 0.166-0.029 0.030-0.049 0.070-0.072 0.106-0.020 0.030-0.037 0.061-0.060 0.088-0.032 0.039-0.073 0.051-0.123 0.034-0.064-0.023-0.105-0.060-0.122-0.127-0.006-0.027-0.012-0.058-0.015-0.088-0.002-0.027-0.001-0.050-0.002-0.077-0.006-0.18-0.087-0.32-0.237-0.417-0.087-0.059-0.179-0.108-0.271-0.158-0.084-0.045-0.17-0.083-0.256-0.125-0.026-0.013-0.050-0.026-0.074-0.039l-0.002-0.002c-0.013-0.081-0.022-0.158-0.036-0.235-0.013-0.078 0.006-0.15 0.039-0.218 0.012-0.027 0.030-0.051 0.062-0.067zM15.268 11.609c0.071-0.004 0.143-0 0.214 0.002 0.084 0.003 0.172 0.014 0.256 0.010 0.22-0.004 0.437 0.030 0.652 0.070 0.196 0.039 0.391 0.073 0.589 0.094 0.254 0.023 0.504 0.069 0.748 0.148 0.019 0.007 0.038 0.011 0.058 0.017 0.325 0.064 0.623 0.189 0.901 0.365 0.151 0.097 0.304 0.194 0.458 0.287 0.11 0.064 0.224 0.123 0.336 0.182 0.067 0.035 0.134 0.065 0.202 0.098 0.121 0.060 0.235 0.13 0.338 0.218 0.232 0.199 0.463 0.403 0.659 0.643 0.048 0.061 0.095 0.123 0.144 0.184 0.059 0.070 0.115 0.143 0.177 0.209 0.068 0.071 0.132 0.147 0.182 0.23 0.036 0.060 0.081 0.109 0.132 0.156 0.165 0.15 0.285 0.331 0.362 0.54 0.007 0.017 0.016 0.038 0.017 0.057 0.015 0.1 0.058 0.184 0.106 0.271 0.040 0.070 0.072 0.148 0.101 0.223 0.077 0.19 0.081 0.389 0.074 0.59-0.005 0.101-0.012 0.2-0.015 0.302-0.003 0.115-0.004 0.23 0.019 0.343 0.005 0.023 0.001 0.045 0.005 0.069 0.025 0.132-0.070 0.248-0.206 0.271-0.081 0.013-0.163 0.021-0.245 0.024-0.062 0.004-0.078-0.011-0.098-0.072-0.001-0.003-0.001-0.005-0.003-0.009-0.046-0.081-0.062-0.169-0.069-0.261-0.001-0.023-0.004-0.046-0.010-0.069-0.049-0.149-0.088-0.302-0.149-0.446-0.053-0.124-0.085-0.251-0.101-0.384-0.005-0.042-0.014-0.085-0.026-0.125-0.042-0.13-0.085-0.261-0.134-0.388-0.027-0.070-0.067-0.137-0.108-0.199-0.062-0.095-0.13-0.187-0.199-0.28-0.081-0.11-0.184-0.203-0.28-0.3-0.060-0.061-0.114-0.125-0.172-0.189-0.045-0.047-0.089-0.095-0.132-0.144-0.050-0.056-0.102-0.111-0.148-0.17-0.221-0.281-0.467-0.538-0.764-0.745-0.053-0.036-0.108-0.070-0.165-0.103-0.085-0.049-0.171-0.097-0.254-0.148-0.098-0.061-0.194-0.122-0.3-0.166-0.041-0.017-0.081-0.042-0.118-0.067-0.17-0.111-0.36-0.174-0.558-0.208-0.127-0.020-0.252-0.030-0.379-0.039-0.216-0.017-0.428-0.046-0.635-0.11-0.184-0.057-0.371-0.108-0.559-0.149-0.121-0.027-0.244-0.043-0.367-0.052-0.294-0.020-0.588-0.032-0.882-0.022-0.308 0.013-0.615 0.030-0.916 0.096-0.045 0.010-0.091 0.012-0.136 0.022-0.039 0.007-0.077 0.018-0.113 0.031-0.192 0.075-0.382 0.154-0.564 0.249-0.134 0.069-0.26 0.15-0.374 0.251-0.009 0.010-0.020 0.017-0.031 0.024-0.23 0.164-0.427 0.363-0.63 0.558-0.175 0.169-0.301 0.369-0.402 0.587-0.011 0.023-0.018 0.052-0.021 0.077-0.008 0.087-0.041 0.163-0.093 0.233-0.009 0.013-0.019 0.026-0.029 0.039-0.095 0.115-0.156 0.247-0.208 0.386-0.036 0.098-0.078 0.194-0.125 0.287-0.068 0.133-0.131 0.271-0.172 0.417-0.012 0.043-0.029 0.087-0.046 0.129-0.101 0.248-0.179 0.505-0.235 0.767-0.035 0.163-0.050 0.329-0.072 0.494-0.020 0.143-0.018 0.287-0.017 0.431v0.142c-0.072 0.053-0.145 0.077-0.227 0.077-0.074-0.001-0.149 0.001-0.223 0.017-0.039 0.007-0.079 0.007-0.117 0.002-0.053-0.004-0.105-0.014-0.156-0.021-0.022-0.004-0.044-0.011-0.065-0.021-0.036-0.017-0.060-0.040-0.057-0.082 0.002-0.027-0-0.051 0.002-0.077 0.016-0.183 0.034-0.365 0.050-0.549 0.005-0.048 0.015-0.096 0.036-0.141 0.087-0.182 0.13-0.376 0.165-0.571 0.027-0.16 0.064-0.32 0.112-0.477 0.111-0.362 0.222-0.724 0.287-1.098 0.015-0.091 0.048-0.177 0.088-0.259 0.115-0.24 0.255-0.464 0.426-0.667 0.031-0.035 0.058-0.073 0.086-0.108 0.066-0.083 0.122-0.171 0.16-0.269 0.043-0.113 0.116-0.204 0.206-0.281 0.047-0.041 0.093-0.082 0.141-0.12 0.066-0.054 0.139-0.1 0.216-0.134 0.138-0.061 0.276-0.119 0.414-0.18 0.039-0.017 0.075-0.038 0.112-0.060 0.107-0.063 0.211-0.132 0.317-0.194 0.040-0.023 0.082-0.045 0.125-0.057 0.073-0.020 0.142-0.045 0.211-0.079 0.001-0.001 0.005-0.003 0.009-0.003 0.276-0.101 0.546-0.218 0.817-0.335 0.071-0.030 0.144-0.057 0.213-0.094 0.116-0.062 0.247-0.084 0.376-0.106 0.268-0.049 0.538-0.072 0.808-0.091zM23.665 13.941c0.064-0.017 0.112 0.010 0.125 0.076 0.026 0.127 0.032 0.249-0.060 0.362-0.089 0.109-0.191 0.196-0.319 0.252-0.052 0.023-0.086 0.053-0.101 0.108-0.007 0.023-0.025 0.047-0.038 0.070-0.042 0.069-0.052 0.145-0.045 0.225 0.001 0.010 0.003 0.021 0.003 0.031 0.025 0.136 0.037 0.27 0.027 0.408-0.003 0.017 0 0.035 0 0.050 0 0.065 0.023 0.121 0.064 0.17 0.040 0.048 0.078 0.095 0.113 0.148 0.071 0.115 0.167 0.106 0.257 0.036 0.028-0.023 0.054-0.046 0.081-0.070 0.084-0.074 0.182-0.083 0.285-0.050 0.046 0.017 0.088 0.044 0.129 0.069 0.035 0.023 0.044 0.043 0.024 0.084-0.034 0.074-0.071 0.146-0.112 0.216-0.026 0.045-0.053 0.090-0.060 0.144-0.012 0.069-0.051 0.118-0.106 0.158-0.076 0.055-0.16 0.090-0.254 0.099-0.066 0.007-0.126 0.023-0.184 0.058-0.059 0.036-0.116 0.036-0.177 0.010-0.069-0.030-0.141-0.058-0.211-0.086-0.068-0.027-0.124-0.071-0.17-0.127s-0.090-0.112-0.134-0.17c-0.031-0.040-0.053-0.085-0.053-0.136-0.008-0.193-0.057-0.379-0.086-0.57-0.007-0.051-0.011-0.104-0.015-0.142h-0.002c0.011-0.272 0.097-0.499 0.264-0.695 0.045-0.051 0.094-0.101 0.146-0.146 0.048-0.043 0.087-0.097 0.148-0.125 0.008-0.004 0.014-0.017 0.017-0.024 0.040-0.064 0.095-0.118 0.151-0.168 0.016-0.013 0.036-0.030 0.046-0.048 0.047-0.074 0.123-0.117 0.178-0.182 0.016-0.017 0.042-0.031 0.067-0.036zM8.587 14.509c0.041-0.010 0.078-0.002 0.112 0.026 0.061 0.049 0.132 0.081 0.202 0.115 0.055 0.027 0.111 0.057 0.165 0.088 0.085 0.050 0.121 0.126 0.108 0.223-0.006 0.042-0.014 0.085-0.026 0.125-0.014 0.048-0.018 0.088 0.026 0.123 0.035 0.030 0.035 0.067 0.019 0.106-0.015 0.040-0.027 0.079-0.026 0.123 0.001 0.034-0.031 0.060-0.060 0.045-0.103-0.048-0.211-0.031-0.317-0.027-0.039 0.001-0.080 0.001-0.118-0.002-0.013 0-0.025-0.007-0.033-0.007-0.027-0.033-0.019-0.066-0.022-0.098-0.008-0.067-0.025-0.127-0.070-0.178-0.035-0.041-0.076-0.069-0.125-0.089-0.279-0.113-0.638 0.020-0.789 0.259-0.042 0.066-0.090 0.128-0.139 0.189-0.084 0.102-0.135 0.216-0.137 0.35 0 0.059-0.004 0.117-0.009 0.175-0.002 0.038 0.010 0.060 0.043 0.079 0.136 0.087 0.286 0.123 0.446 0.125 0.027 0 0.052-0.001 0.079 0 0.13 0.007 0.192 0.123 0.129 0.238-0.039 0.070-0.090 0.126-0.163 0.165-0.076 0.041-0.075 0.042-0.115 0.113-0.039 0.017-0.081 0.014-0.123 0.007-0.077-0.013-0.155-0.022-0.233-0.034-0.028-0.007-0.056-0.014-0.084-0.024-0.077-0.023-0.155-0.050-0.233-0.076-0.015-0.004-0.031-0.009-0.046-0.015-0.055-0.020-0.093-0.062-0.101-0.122-0.006-0.048-0.024-0.084-0.065-0.115-0.049-0.036-0.057-0.094-0.057-0.149 0.001-0.108 0.010-0.217 0.015-0.324 0.001-0.023 0.008-0.052 0.017-0.076 0.029-0.075 0.036-0.15 0.026-0.23-0.005-0.033-0.002-0.065 0-0.098 0.001-0.017 0.008-0.031 0.017-0.058v-0.005c0.021 0.033 0.031 0.047 0.048 0.070 0.024-0.102 0.055-0.194 0.067-0.29 0.005-0.030 0.010-0.059 0.017-0.088 0.015-0.061 0.052-0.101 0.11-0.129 0.163-0.078 0.316-0.173 0.467-0.271 0.047-0.030 0.095-0.060 0.144-0.084 0.069-0.036 0.144-0.059 0.225-0.063 0.093-0.004 0.18-0.024 0.266-0.060 0.054-0.023 0.111-0.033 0.172-0.026 0.059 0.007 0.116 0.003 0.175-0.007zM24.978 14.517c0.016 0.003 0.031 0.013 0.043 0.033 0.028 0.048 0.059 0.093 0.094 0.137 0.038 0.048 0.036 0.118 0.039 0.178 0.001 0.013-0.013 0.033-0.026 0.038-0.032 0.013-0.066 0.026-0.101 0.033-0.021 0.007-0.045 0.003-0.069 0.003-0.066-0.004-0.121 0.021-0.172 0.058-0.025 0.017-0.046 0.039-0.072 0.052-0.039 0.020-0.078 0.036-0.118 0.045-0.119 0.020-0.238 0.037-0.36 0.022-0.080-0.010-0.138 0.024-0.192 0.077-0.074 0.075-0.089 0.1-0.106 0.214-0.019 0.004-0.040 0.014-0.060 0.017-0.025 0.004-0.043-0.018-0.048-0.039-0.003-0.013-0.003-0.026-0.003-0.038 0.004-0.107-0.020-0.208-0.043-0.309-0.011-0.048-0.020-0.098-0.019-0.146 0.001-0.076 0.037-0.108 0.112-0.105 0.090 0.004 0.175-0.013 0.257-0.046 0.094-0.040 0.19-0.044 0.288-0.052 0.085-0.007 0.167-0.026 0.245-0.060 0.048-0.020 0.1-0.030 0.148-0.050 0.036-0.013 0.071-0.032 0.105-0.050 0.023-0.012 0.042-0.017 0.058-0.014zM15.776 14.818c0.069 0 0.137 0.003 0.206 0 0.050 0 0.096 0.006 0.141 0.033 0.053 0.030 0.108 0.057 0.166 0.088 0 0.023-0.002 0.048 0.002 0.069 0.001 0.020 0.003 0.041 0.014 0.057 0.041 0.060 0.039 0.128 0.050 0.199-0.101 0.094-0.159 0.216-0.209 0.34-0.022 0.054-0.056 0.104-0.091 0.151-0.15 0.199-0.273 0.414-0.377 0.64-0.031 0.069-0.068 0.133-0.105 0.199-0.109 0.195-0.255 0.357-0.439 0.482-0.1 0.068-0.204 0.132-0.302 0.199-0.112 0.076-0.223 0.15-0.331 0.228-0.121 0.088-0.221 0.195-0.302 0.319-0.048 0.073-0.106 0.134-0.172 0.189-0.068 0.056-0.139 0.109-0.208 0.165-0.122 0.098-0.246 0.195-0.365 0.297-0.082 0.069-0.155 0.149-0.22 0.237-0.070 0.096-0.124 0.199-0.146 0.317-0.018 0.096-0.049 0.189-0.088 0.28-0.034 0.075-0.062 0.151-0.096 0.227-0.117 0.265-0.178 0.544-0.225 0.829-0.020 0.127-0.029 0.255-0.017 0.383 0.008 0.097 0.029 0.192 0.045 0.288 0.012 0.077 0.025 0.156 0.031 0.233 0.009 0.109 0.036 0.214 0.082 0.312 0.019 0.041 0.041 0.082 0.062 0.122 0.063 0.129 0.133 0.254 0.194 0.384 0.069 0.145 0.152 0.281 0.264 0.398 0.068 0.068 0.119 0.148 0.161 0.233 0.025 0.053 0.062 0.1 0.098 0.146 0.076 0.097 0.157 0.192 0.235 0.288 0.025 0.030 0.048 0.062 0.074 0.093 0.088 0.107 0.196 0.181 0.331 0.214 0.026 0.007 0.050 0.012 0.076 0.019 0.135 0.034 0.259 0.092 0.374 0.17 0.131 0.091 0.265 0.179 0.391 0.278 0.088 0.067 0.168 0.147 0.245 0.227 0.189 0.195 0.372 0.393 0.561 0.589 0.088 0.093 0.18 0.18 0.271 0.269 0.045 0.043 0.090 0.085 0.136 0.129 0.138 0.127 0.251 0.273 0.343 0.436 0.060 0.105 0.126 0.207 0.19 0.311 0.061 0.096 0.115 0.197 0.158 0.304 0.089 0.213 0.179 0.428 0.273 0.64 0.129 0.294 0.22 0.601 0.264 0.92 0.012 0.075 0.019 0.149 0.022 0.225 0.007 0.252 0.009 0.501-0.009 0.753-0.009 0.133-0.017 0.27-0.026 0.403-0.003 0.033-0.006 0.063-0.010 0.096-0.011 0.075-0.044 0.138-0.108 0.178h-0.214c-0.056-0.027-0.115-0.021-0.173-0.024-0.118-0.004-0.125-0.012-0.115-0.132 0.007-0.069 0.008-0.138 0.009-0.206 0.003-0.085-0-0.17 0.005-0.256 0.018-0.232 0.008-0.464-0.024-0.695-0.019-0.149-0.054-0.294-0.082-0.443-0.007-0.041-0.018-0.082-0.024-0.125-0.022-0.15-0.073-0.291-0.146-0.424-0.24-0.443-0.497-0.875-0.803-1.277-0.264-0.347-0.583-0.636-0.937-0.889-0.247-0.177-0.507-0.33-0.774-0.477-0.247-0.135-0.495-0.267-0.741-0.403-0.063-0.034-0.126-0.071-0.185-0.11-0.048-0.030-0.083-0.071-0.108-0.123-0.018-0.038-0.043-0.073-0.070-0.105-0.040-0.045-0.071-0.095-0.088-0.151-0.029-0.096-0.086-0.169-0.161-0.23-0.096-0.075-0.178-0.163-0.256-0.259-0.049-0.061-0.098-0.119-0.151-0.178-0.17-0.19-0.294-0.408-0.372-0.65-0.061-0.186-0.116-0.375-0.149-0.568-0.014-0.074-0.021-0.149-0.027-0.223-0.013-0.184-0.025-0.365-0.038-0.549-0.007-0.118 0.007-0.235 0.022-0.352 0.035-0.279 0.078-0.555 0.113-0.834 0.045-0.365 0.146-0.717 0.273-1.060 0.033-0.094 0.084-0.178 0.151-0.251 0.107-0.113 0.202-0.232 0.288-0.359 0.156-0.224 0.343-0.419 0.554-0.594 0.3-0.247 0.599-0.495 0.909-0.731 0.356-0.271 0.662-0.593 0.93-0.951 0.15-0.199 0.297-0.4 0.446-0.599 0.033-0.045 0.066-0.088 0.101-0.13 0.038-0.046 0.073-0.092 0.082-0.154 0.006-0.043 0.039-0.066 0.082-0.070 0.020-0.003 0.040-0.002 0.058-0.002zM17.957 15.336c0.031-0.007 0.063-0.002 0.098 0.015 0.008 0.004 0.019 0.007 0.027 0.017 0.064 0.059 0.145 0.082 0.225 0.112 0.015 0.007 0.032 0.011 0.046 0.017 0.084 0.038 0.109 0.128 0.055 0.204-0.015 0.020-0.037 0.037-0.053 0.057-0.031 0.034-0.032 0.058-0.007 0.098 0.006 0.010 0.014 0.021 0.022 0.031 0.042 0.049 0.038 0.101 0.014 0.156-0.008 0.017-0.017 0.034-0.029 0.050-0.050 0.073-0.097 0.148-0.151 0.218-0.046 0.060-0.095 0.117-0.148 0.17-0.107 0.107-0.216 0.208-0.326 0.312-0.141 0.132-0.268 0.278-0.379 0.436-0.335 0.466-0.619 0.961-0.86 1.481-0.103 0.222-0.157 0.459-0.182 0.7-0.028 0.274-0.014 0.548-0.005 0.824 0.011 0.306 0.106 0.589 0.206 0.873 0.034 0.098 0.093 0.186 0.161 0.266 0.050 0.056 0.101 0.113 0.156 0.163 0.193 0.177 0.4 0.336 0.637 0.451 0.139 0.068 0.267 0.153 0.384 0.254 0.112 0.096 0.233 0.179 0.359 0.257 0.134 0.083 0.266 0.166 0.396 0.252 0.184 0.12 0.354 0.257 0.51 0.412 0.163 0.16 0.331 0.317 0.508 0.462 0.129 0.105 0.234 0.229 0.317 0.372 0.125 0.214 0.25 0.429 0.376 0.643 0.095 0.166 0.152 0.346 0.196 0.532 0.038 0.169 0.068 0.338 0.103 0.508 0.040 0.198 0.084 0.397 0.12 0.595 0.016 0.083 0.023 0.168 0.026 0.252 0.005 0.128 0.002 0.255 0.002 0.383h0.003c-0.005 0.14-0.011 0.28-0.015 0.422-0.004 0.103-0.034 0.198-0.081 0.288-0.015 0.027-0.028 0.053-0.043 0.077-0.049 0.082-0.085 0.169-0.113 0.261-0.020 0.066-0.042 0.13-0.064 0.196-0.016 0.050-0.047 0.072-0.101 0.070-0.118-0.003-0.236 0-0.352 0-0.025 0-0.047 0-0.070-0.003-0.047-0.010-0.074-0.039-0.077-0.089-0.003-0.038-0.003-0.077 0.005-0.115 0.031-0.18 0.047-0.363 0.060-0.546 0.005-0.071 0.004-0.145 0-0.216-0.016-0.232-0.032-0.463-0.053-0.695-0.019-0.212-0.062-0.419-0.148-0.616-0.104-0.24-0.203-0.48-0.305-0.721-0.070-0.169-0.169-0.316-0.295-0.448-0.085-0.090-0.169-0.183-0.244-0.281-0.139-0.186-0.307-0.34-0.498-0.47-0.15-0.103-0.305-0.204-0.458-0.302-0.071-0.046-0.148-0.083-0.223-0.122-0.372-0.191-0.745-0.379-1.117-0.57-0.097-0.048-0.187-0.111-0.269-0.178-0.169-0.136-0.33-0.279-0.482-0.431-0.13-0.131-0.242-0.273-0.335-0.434-0.046-0.082-0.095-0.165-0.144-0.247-0.098-0.163-0.179-0.333-0.257-0.506-0.098-0.213-0.202-0.425-0.307-0.635-0.053-0.106-0.085-0.213-0.076-0.329 0.014-0.172 0.025-0.344 0.043-0.516 0.006-0.061 0.020-0.123 0.041-0.18 0.091-0.253 0.188-0.503 0.321-0.736 0.077-0.138 0.167-0.266 0.273-0.383 0.040-0.043 0.080-0.088 0.118-0.132 0.112-0.124 0.214-0.257 0.3-0.4 0.164-0.268 0.36-0.513 0.564-0.752 0.447-0.521 0.892-1.044 1.337-1.567 0.059-0.069 0.116-0.142 0.173-0.213 0.025-0.030 0.053-0.048 0.084-0.055zM24.792 15.485c0.057 0.003 0.115 0.014 0.172 0.034 0.001 0.013 0.005 0.030 0.005 0.045 0.007 0.217 0.007 0.432-0.039 0.645-0.014 0.063-0.015 0.128-0.021 0.194-0.001 0.013-0.003 0.023-0.005 0.039-0.039 0.013-0.073-0.005-0.105-0.015-0.060-0.017-0.114-0.014-0.17 0.015-0.022 0.013-0.048 0.021-0.074 0.027-0.009 0.003-0.018-0.004-0.031-0.005-0.022-0.043-0.010-0.089-0.005-0.132 0.007-0.071 0.017-0.143 0.026-0.214 0.007-0.068 0.015-0.136 0.019-0.204 0.006-0.075 0.010-0.15 0.009-0.225-0.001-0.063 0.004-0.123 0.050-0.182v-0.002c0.056-0.017 0.113-0.023 0.17-0.021zM8.645 16.135c0.049 0.013 0.092 0.024 0.136 0.034 0.013 0.003 0.029 0.005 0.036 0.015 0.029 0.035 0.065 0.049 0.11 0.053 0.055 0.004 0.088 0.041 0.105 0.091 0.047 0.136-0.068 0.321-0.189 0.324-0.077 0.003-0.156 0.017-0.233 0.007-0.136-0.010-0.189-0.095-0.146-0.225 0.028-0.088 0.086-0.153 0.161-0.204 0.011-0.007 0.020-0.012 0.033-0.022-0.005-0.026-0.008-0.048-0.012-0.074z"></path>
</svg>
