<!-- Generated by IcoMoon.io -->
<svg version="1.1" xmlns="http://www.w3.org/2000/svg" width="32" height="32" viewBox="0 0 32 32">
<title>return_to_lost_in_time_and_space</title>
<path d="M29.886 16.117c-0.024 0.024-0.056 0.039-0.091 0.039-0.076 0-0.138 0.003-0.189 0.007-0.104 0.020-0.21 0.037-0.307 0.050-0.364 0.072-0.734 0.19-0.98 0.276-0.735 0.256-1.451 0.413-2.208 0.581l-0.236 0.052c-0.104 0.023-0.212 0.046-0.325 0.069-0.606 0.127-1.36 0.284-1.848 0.632-0.191 0.137-0.364 0.321-0.547 0.515-0.236 0.249-0.478 0.508-0.776 0.676-0.144 0.082-0.281 0.137-0.415 0.19-0.224 0.088-0.419 0.166-0.594 0.351-0.068 0.070-0.145 0.154-0.226 0.242-0.049 0.053-0.101 0.109-0.15 0.163 0.055 0.083 0.112 0.154 0.18 0.214 0.177 0.164 0.373 0.309 0.563 0.452 0.183 0.135 0.371 0.276 0.547 0.435 0.016 0.014 0.027 0.032 0.035 0.050 0.115 0.318 0.404 0.57 0.812 0.712 0.010 0.002 0.020 0.006 0.029 0.006 0.006 0 0.010-0.001 0.016-0.003 0.010-0.002 0.022-0.002 0.032-0.002 0.024 0 0.049 0.006 0.071 0.020 0.16 0.107 0.311 0.2 0.451 0.279 0.062 0.035 0.117 0.069 0.17 0.102 0.151 0.093 0.282 0.174 0.505 0.24 0.155 0.046 0.296 0.114 0.417 0.201 0.019 0.013 0.033 0.030 0.043 0.050l0.009 0.019c0.006 0.013 0.013 0.026 0.019 0.040 0.056 0.138 0.119 0.322 0.102 0.522-0.005 0.037-0.023 0.070-0.055 0.092-0.022 0.016-0.046 0.023-0.072 0.023-0.012 0-0.023-0.001-0.033-0.005-0.032-0.008-0.062-0.019-0.092-0.027l-0.017-0.006c-0.022-0.007-0.040-0.020-0.056-0.036-0.256-0.286-0.622-0.433-1.183-0.478-0.024-0.001-0.046-0.010-0.065-0.023-0.053-0.039-0.093-0.085-0.13-0.127l-0.024-0.027c-0.164-0.183-0.386-0.271-0.62-0.364-0.135-0.053-0.276-0.109-0.41-0.184-0.327-0.186-0.597-0.458-0.854-0.856l-0.023-0.035c-0.196-0.305-0.294-0.458-0.612-0.629-0.046-0.024-0.085-0.045-0.118-0.062-0.046-0.024-0.083-0.043-0.118-0.065-0.334 0.387-0.672 0.819-0.973 1.202l-0.019 0.024c-0.206 0.263-0.262 0.57-0.322 0.895-0.065 0.343-0.13 0.697-0.371 1.025-0.155 0.21-0.328 0.394-0.495 0.571-0.151 0.16-0.307 0.325-0.446 0.508-0.265 0.348-0.285 0.449-0.358 0.82l-0.013 0.068c-0.024 0.125-0.049 0.252-0.073 0.381-0.098 0.514-0.199 1.045-0.364 1.562l-0.024 0.075-0.002 0.012c0.035 0.235 0.058 0.469-0.002 0.747-0.032 0.147-0.071 0.301-0.112 0.465-0.066 0.261-0.135 0.531-0.18 0.794-0.010 0.060-0.063 0.105-0.125 0.105-0.001 0-0.005 0-0.006 0l-0.037-0.003c-0.023 0-0.046-0.001-0.069-0.002-0.062-0.001-0.114-0.058-0.122-0.118l-0.001-0.005c-0.006-0.012-0.010-0.024-0.017-0.037-0.022-0.039-0.020-0.085-0.001-0.121-0.006-0.059-0.010-0.119-0.014-0.181-0.024-0.137-0.053-0.271-0.082-0.404-0.079-0.371-0.161-0.756-0.161-1.196 0-0.656 0-1.090-0.226-1.657-0.109-0.273-0.177-0.583-0.243-0.882-0.082-0.374-0.167-0.761-0.331-1.056-0.066-0.117-0.16-0.219-0.259-0.325-0.073-0.079-0.151-0.163-0.217-0.255-0.189-0.261-0.278-0.564-0.364-0.859-0.063-0.216-0.122-0.42-0.219-0.607-0.15-0.294-0.38-0.532-0.625-0.786-0.163-0.168-0.331-0.343-0.474-0.535-0.181-0.243-0.364-0.413-0.558-0.592-0.135-0.124-0.272-0.252-0.412-0.406-0.095 0.063-0.194 0.122-0.299 0.183-0.071 0.042-0.144 0.083-0.219 0.13-0.305 0.189-0.501 0.484-0.691 0.769-0.237 0.357-0.482 0.727-0.943 0.895-0.397 0.145-0.528 0.347-0.694 0.602-0.111 0.171-0.237 0.366-0.461 0.564-0.219 0.193-0.476 0.338-0.725 0.479-0.224 0.128-0.458 0.259-0.658 0.426-0.023 0.020-0.053 0.032-0.083 0.032-0.005 0-0.009 0-0.014-0.001-0.035-0.003-0.066-0.022-0.088-0.050-0.002-0.002-0.007-0.010-0.010-0.013-0.030-0.052-0.022-0.118 0.022-0.16 0.036-0.033 0.065-0.065 0.091-0.098 0.082-0.105 0.138-0.212 0.197-0.324 0.104-0.196 0.21-0.397 0.45-0.574 0.082-0.059 0.151-0.102 0.207-0.135 0.134-0.082 0.194-0.118 0.278-0.299 0.020-0.040 0.022-0.099 0.022-0.168 0.002-0.096 0.005-0.206 0.059-0.317 0.199-0.399 0.799-0.748 1.196-0.979l0.063-0.037c0.324-0.189 0.354-0.289 0.407-0.472 0.032-0.107 0.071-0.239 0.167-0.409 0.124-0.22 0.419-0.505 0.877-0.849-0.19-0.138-0.387-0.268-0.58-0.393l-0.037-0.026c-1.267-0.829-2.599-1.375-3.965-1.621-0.217-0.039-0.432-0.083-0.639-0.128-0.131-0.026-0.262-0.055-0.393-0.079-0.017-0.005-0.036-0.012-0.050-0.023l-0.019-0.014c-0.237-0.16-0.54-0.235-0.951-0.237-0.014 0-0.027-0.001-0.040-0.006-0.361-0.124-0.663-0.209-0.951-0.266-0.007 0-0.014-0.001-0.022-0.002-0.023-0.003-0.043-0.012-0.062-0.026-0.040-0.035-0.095-0.078-0.154-0.114-0.049-0.030-0.071-0.089-0.055-0.144 0.013-0.043 0.048-0.078 0.094-0.089l0.050-0.011 0.109-0.026c0.151-0.026 0.305-0.060 0.453-0.096 0.24-0.045 0.484-0.086 0.72-0.125l0.144-0.024c0.387-0.039 0.75-0.108 1.134-0.181 0.206-0.039 0.419-0.081 0.635-0.115 1.481-0.243 3.080-1.058 4.159-1.698 0.386-0.23 0.819-0.498 1.163-0.815-0.081-0.035-0.173-0.071-0.279-0.099-0.33-0.089-0.453-0.144-0.438-0.364 0.005-0.060 0.008-0.137-0.079-0.284-0.069-0.117-0.318-0.232-0.501-0.317-0.083-0.039-0.161-0.075-0.223-0.111l-0.101-0.056c-0.296-0.166-0.459-0.258-0.528-0.671-0.022-0.125-0.023-0.232-0.024-0.327-0.003-0.214-0.003-0.322-0.226-0.479-0.071-0.052-0.14-0.098-0.206-0.144-0.013-0.010-0.024-0.022-0.035-0.035-0.212-0.314-0.461-0.531-0.76-0.664-0.020-0.010-0.039-0.026-0.052-0.045-0.026-0.036-0.050-0.073-0.076-0.112-0.033-0.046-0.026-0.112 0.010-0.157 0.023-0.027 0.046-0.055 0.068-0.083 0.024-0.033 0.062-0.053 0.102-0.053 0.014 0 0.029 0.002 0.042 0.007l0.035 0.013c0.096 0.033 0.196 0.068 0.292 0.114 0.469 0.223 0.771 0.494 1.121 0.809 0.040 0.035 0.086 0.071 0.134 0.107 0.147 0.112 0.315 0.242 0.381 0.43 0.042 0.115 0.033 0.21 0.027 0.288-0.009 0.096-0.011 0.14 0.066 0.213 0.144 0.135 0.478 0.196 0.773 0.249 0.207 0.037 0.404 0.073 0.554 0.134 0.44 0.18 0.53 0.314 0.687 0.597 0.024 0.045 0.052 0.094 0.083 0.147 0.121-0.091 0.233-0.178 0.314-0.291 0.118-0.167 0.229-0.36 0.337-0.547 0.154-0.269 0.314-0.545 0.501-0.753 0.774-0.855 1.131-1.698 1.544-2.676 0.086-0.202 0.173-0.407 0.266-0.619 0.225-0.51 0.225-0.879 0.225-1.492 0-0.402 0.082-0.75 0.163-1.088 0.027-0.118 0.056-0.237 0.081-0.358 0.002-0.056 0.008-0.111 0.014-0.164-0.020-0.037-0.020-0.085 0.005-0.124 0.005-0.008 0.008-0.017 0.012-0.026l0.005-0.008c0.006-0.042 0.013-0.078 0.020-0.115 0.012-0.056 0.058-0.096 0.114-0.102l0.019-0.001c0.002 0 0.006 0 0.007 0l0.012-0.001 0.032-0.003c0.005 0 0.008-0.001 0.013-0.001 0.062 0 0.117 0.046 0.125 0.108 0.042 0.268 0.121 0.548 0.197 0.82 0.042 0.148 0.081 0.288 0.114 0.423 0.059 0.252 0.036 0.472 0.002 0.676 0.008 0.024 0.019 0.049 0.026 0.072 0.167 0.469 0.268 0.953 0.366 1.418 0.024 0.118 0.047 0.233 0.073 0.347l0.013 0.060c0.072 0.334 0.091 0.425 0.356 0.737 0.138 0.166 0.295 0.315 0.445 0.461 0.167 0.161 0.34 0.327 0.495 0.518 0.245 0.299 0.311 0.623 0.374 0.937 0.060 0.292 0.117 0.569 0.321 0.803l0.026 0.032c0.324 0.374 0.687 0.794 1.043 1.163 0.168-0.217 0.327-0.449 0.461-0.679 0.024-0.039 0.066-0.063 0.109-0.063 0.008 0 0.017 0.001 0.024 0.003 0.024 0.005 0.048 0.007 0.071 0.007 0.066 0 0.224-0.020 0.288-0.203 0.086-0.25 0.121-0.511 0.157-0.786 0.022-0.163 0.045-0.332 0.079-0.498 0.014-0.072 0.006-0.14-0.026-0.2-0.020-0.039-0.020-0.085 0.001-0.124 0.101-0.174 0.219-0.309 0.361-0.416 0.014-0.011 0.026-0.023 0.039-0.037 0.013-0.011 0.027-0.022 0.043-0.027 0.062-0.026 0.127-0.047 0.193-0.068 0.118-0.039 0.232-0.075 0.331-0.138 0.019-0.011 0.033-0.022 0.047-0.033l0.017-0.013c0.009-0.007 0.020-0.013 0.030-0.017l0.014-0.005c0.007-0.002 0.016-0.006 0.024-0.010 0.248-0.131 0.443-0.358 0.58-0.676 0.005-0.009 0.009-0.016 0.013-0.023 0.008-0.013 0.017-0.023 0.029-0.032 0.017-0.013 0.037-0.020 0.059-0.024v0c0.006 0 0.012 0 0.017 0h0.002c0.069 0 0.125 0.056 0.125 0.127 0 0.005 0 0.008-0.001 0.013 0 0.059 0 0.118-0.001 0.177-0.002 0.417-0.008 0.682-0.098 0.825-0.114 0.18-0.318 0.286-0.515 0.389-0.137 0.070-0.268 0.14-0.345 0.222-0.224 0.239-0.248 0.486-0.213 0.835l0.008 0.082c0.058 0.556 0.052 0.675-0.453 1.163-0.288 0.276-0.61 0.587-0.776 0.917 0.029 0.029 0.058 0.056 0.083 0.081 0.176 0.167 0.37 0.237 0.594 0.318 0.134 0.047 0.271 0.098 0.413 0.171 0.298 0.154 0.541 0.387 0.777 0.613 0.183 0.177 0.356 0.343 0.547 0.466 0.488 0.318 1.243 0.461 1.851 0.574 0.114 0.022 0.222 0.042 0.324 0.063l0.239 0.047c0.756 0.151 1.469 0.295 2.203 0.527 0.171 0.053 0.433 0.131 0.715 0.196 0.243 0.024 0.465 0.060 0.676 0.108 0.029 0.001 0.056 0.001 0.085 0.003 0.066 0 0.121 0.052 0.125 0.118v0.016c0.002 0.026 0.005 0.053 0.005 0.078 0.001 0.035-0.012 0.068-0.036 0.092zM32.347 18.034c-0.050-0.243-0.161-0.455-0.114-0.735 0.046-0.272-0.13-0.538-0.295-0.777v0.161c-0.019 0.001-0.037 0.003-0.056 0.005-0.009-0.131-0.042-0.265-0.020-0.391 0.071-0.412 0.167-0.82 0.24-1.233 0.020-0.115 0.014-0.243-0.013-0.358-0.091-0.38-0.194-0.757-0.301-1.133-0.086-0.311-0.176-0.623-0.282-0.928-0.065-0.183-0.16-0.354-0.252-0.527-0.036-0.069-0.101-0.125-0.15-0.189-0.020-0.029-0.035-0.063-0.046-0.096-0.069-0.193 0.088-0.393-0.022-0.589-0.037-0.066-0.058-0.145-0.068-0.22-0.027-0.216-0.046-0.433-0.071-0.649-0.005-0.037-0.014-0.078-0.036-0.107-0.118-0.166-0.243-0.327-0.36-0.495-0.020-0.029-0.010-0.079-0.014-0.137-0.269-0.242-0.391-0.623-0.676-0.897-0.255-0.246-0.416-0.59-0.62-0.891-0.135-0.197-0.275-0.39-0.406-0.59-0.114-0.174-0.299-0.291-0.318-0.544-0.010-0.137-0.157-0.281-0.273-0.389-0.232-0.217-0.485-0.412-0.73-0.616-0.005 0.037-0.010 0.079-0.014 0.121l-0.046 0.019c-0.096-0.142-0.193-0.286-0.291-0.429-0.063-0.092-0.132-0.181-0.199-0.273-0.049-0.066-0.099-0.132-0.145-0.202-0.079-0.117-0.154-0.235-0.233-0.351-0.026-0.039-0.065-0.071-0.093-0.109-0.117-0.154-0.227-0.314-0.353-0.461-0.032-0.039-0.112-0.040-0.171-0.049-0.086-0.010-0.177 0.003-0.259-0.020-0.343-0.101-0.687-0.2-1.022-0.321-0.135-0.049-0.269-0.135-0.374-0.236-0.32-0.308-0.718-0.517-1.018-0.856-0.16-0.18-0.415-0.278-0.638-0.394-0.246-0.13-0.504-0.24-0.759-0.354-0.138-0.062-0.276-0.144-0.423-0.166-0.286-0.042-0.579-0.042-0.868-0.069-0.334-0.032-0.679-0.005-0.987-0.174-0.331-0.183-0.692-0.148-1.049-0.154-0.024 0-0.058 0.005-0.075 0.020-0.158 0.15-0.341 0.085-0.517 0.053-0.026-0.006-0.042-0.072-0.071-0.125-0.081-0.010-0.186-0.036-0.291-0.037-0.222-0.002-0.443 0.006-0.666 0.008-0.23 0.005-0.463 0.023-0.692 0.005-0.216-0.017-0.429-0.073-0.642-0.114-0.005 0-0.007-0.013-0.010-0.013-0.086-0.008-0.184-0.043-0.259-0.017-0.2 0.068-0.4 0.147-0.583 0.253-0.094 0.055-0.248 0.083-0.245 0.252 0.001 0.023-0.039 0.055-0.066 0.071-0.111 0.062-0.225 0.119-0.337 0.177 0.001-0.017 0.002-0.035 0.005-0.052-0.033-0.007-0.068-0.026-0.098-0.020-0.163 0.035-0.324 0.081-0.486 0.108-0.066 0.012-0.14-0.026-0.204-0.016-0.255 0.043-0.508 0.096-0.761 0.145-0.312 0.060-0.623 0.119-0.935 0.181-0.043 0.008-0.088 0.039-0.127 0.033-0.286-0.040-0.53 0.115-0.794 0.17-0.047 0.010-0.083 0.071-0.125 0.108 0.008 0.007 0.017 0.014 0.024 0.022l0.242-0.078c0.007 0.016 0.013 0.032 0.019 0.046-0.168 0.115-0.337 0.229-0.505 0.343-0.008-0.025-0.016-0.047-0.024-0.071-0.059 0.005-0.13-0.010-0.176 0.016-0.147 0.082-0.284 0.18-0.423 0.272-0.226 0.151-0.443 0.32-0.682 0.446-0.173 0.091-0.387 0.102-0.561 0.19-0.413 0.207-0.825 0.422-1.095 0.825-0.098 0.145-0.212 0.282-0.343 0.455-0.029-0.060-0.045-0.092-0.056-0.115-0.312 0.263-0.425 0.629-0.62 0.944-0.177 0.285-0.36 0.579-0.593 0.816-0.284 0.288-0.63 0.514-0.937 0.78-0.305 0.263-0.361 0.646-0.455 1.010-0.037 0.147-0.072 0.295-0.106 0.443-0.017-0.005-0.036-0.009-0.053-0.011 0.006-0.045 0.010-0.088 0.016-0.132-0.073 0.072-0.101 0.161-0.15 0.237-0.101 0.163-0.212 0.319-0.321 0.476-0.029 0.042-0.071 0.073-0.098 0.114-0.171 0.255-0.343 0.509-0.51 0.767-0.029 0.045-0.039 0.104-0.052 0.157-0.069 0.288-0.125 0.579-0.204 0.864-0.072 0.263-0.166 0.52-0.249 0.779l-0.042-0.011c-0.008-0.026-0.017-0.052-0.022-0.068-0.032 0.164-0.076 0.331-0.092 0.501-0.022 0.216-0.011 0.436-0.032 0.652-0.019 0.223 0.026 0.453-0.095 0.666-0.068 0.119-0.127 0.253-0.15 0.387-0.098 0.583-0.171 1.166-0.475 1.694-0.219 0.381-0.236 0.813-0.16 1.233 0.124 0.687 0.245 1.376 0.515 2.025 0.016 0.037 0.059 0.063 0.082 0.099 0.091 0.138 0.178 0.278 0.268 0.417-0.010 0.007-0.020 0.014-0.030 0.022-0.032-0.014-0.065-0.030-0.098-0.045 0.15 0.199 0.177 0.446 0.108 0.632-0.079 0.207-0.072 0.368 0.019 0.548 0.010-0.016 0.019-0.033 0.050-0.088 0.014 0.16 0.024 0.281 0.036 0.4 0.011 0.128 0.014 0.258 0.036 0.383 0.124 0.714 0.409 1.375 0.656 2.048 0.249 0.676 0.702 1.233 1.062 1.842 0.189 0.322 0.449 0.616 0.766 0.848 0.356 0.261 0.717 0.511 0.964 0.905 0.176 0.278 0.448 0.497 0.692 0.725 0.387 0.363 0.779 0.723 1.183 1.067 0.629 0.534 1.242 1.1 2.1 1.255 0.056 0.010 0.118 0.001 0.176 0.012 0.201 0.035 0.415 0.043 0.599 0.119 0.189 0.079 0.347 0.229 0.521 0.344 0.029 0.019 0.072 0.016 0.108 0.022 0.058 0.010 0.127 0 0.168 0.030 0.338 0.243 0.692 0.446 1.1 0.556 0.291 0.079 0.573 0.19 0.856 0.291 0.094 0.035 0.18 0.118 0.272 0.121 0.35 0.007 0.662 0.164 0.996 0.233 0.491 0.101 0.979 0.235 1.456-0.053 0.052-0.030 0.138-0.013 0.207-0.007s0.138 0.049 0.204 0.040c0.645-0.078 1.288-0.166 1.933-0.248 0.325-0.042 0.651-0.078 0.976-0.119 0.256-0.032 0.515-0.059 0.77-0.105 0.32-0.058 0.636-0.131 0.956-0.197 0.016-0.003 0.033 0.001 0.050-0.001 0.148-0.024 0.317-0.014 0.445-0.081 0.383-0.2 0.75-0.429 1.123-0.649 0.114-0.066 0.212-0.196 0.368-0.079 0.014 0.012 0.062-0.014 0.091-0.029 0.387-0.199 0.805-0.296 1.228-0.363 0.299-0.047 0.43-0.281 0.602-0.475 0.016-0.019 0.006-0.060 0.012-0.117-0.062 0.053-0.104 0.091-0.147 0.128l-0.039-0.024c0.046-0.075 0.075-0.17 0.14-0.223 0.263-0.222 0.522-0.449 0.784-0.672 0.386-0.33 0.682-0.759 1.147-1.003 0.177-0.093 0.312-0.266 0.469-0.399 0.032-0.027 0.075-0.042 0.115-0.056 0.357-0.135 0.697-0.288 0.865-0.669 0.144-0.327 0.291-0.655 0.459-0.969 0.082-0.153 0.203-0.292 0.33-0.413 0.509-0.484 1.053-0.936 1.379-1.583 0.111-0.224 0.265-0.427 0.396-0.642 0.040-0.066 0.073-0.137 0.101-0.209 0.115-0.309 0.239-0.616 0.334-0.93 0.088-0.294 0.147-0.594 0.21-0.894 0.047-0.223 0.069-0.452 0.125-0.671 0.078-0.296 0.23-0.581 0.258-0.879 0.029-0.307 0.094-0.599 0.163-0.892 0.027-0.121 0.093-0.252 0.071-0.363z"></path>
<path d="M18.286 15.841c-0.721 0.423-1.295 1.117-1.821 1.79-0.023 0.032-0.060 0.049-0.099 0.049-0.006 0-0.012 0-0.017 0-0.045-0.006-0.082-0.036-0.101-0.076-0.269-0.636-0.839-1.704-1.632-1.704h-0.013c-0.056 0-0.107-0.036-0.122-0.091s0.006-0.114 0.055-0.144c0.417-0.262 0.769-0.623 1.108-0.973 0.269-0.276 0.548-0.564 0.856-0.796 0.022-0.017 0.049-0.026 0.076-0.026 0.008 0 0.017 0.001 0.024 0.003 0.036 0.007 0.068 0.029 0.085 0.060 0.127 0.217 0.288 0.433 0.478 0.642 0.007 0.007 0.013 0.014 0.017 0.023 0.24 0.423 0.632 0.786 1.098 1.019 0.042 0.022 0.068 0.063 0.071 0.109 0.001 0.046-0.023 0.091-0.063 0.114zM25.069 15.774c-0.522-0.122-1.061-0.25-1.511-0.518-0.554-0.331-1.15-0.694-1.757-1.097-0.193-0.127-0.402-0.222-0.603-0.314-0.151-0.069-0.305-0.14-0.451-0.223-0.127 0.135-0.271 0.233-0.438 0.298-0.124 0.047-0.242 0.056-0.357 0.065-0.167 0.011-0.299 0.022-0.429 0.147-0.060 0.059-0.075 0.131-0.094 0.223-0.017 0.083-0.037 0.178-0.098 0.266l-0.008 0.011c-0.082 0.119-0.153 0.222-0.289 0.305-0.033 0.020-0.072 0.029-0.206 0.029-0.268 0-0.39 0-0.39-0.138 0-0.014 0.002-0.029 0.007-0.042-0.052-0.095-0.095-0.176-0.131-0.252-0.005-0.010-0.008-0.020-0.010-0.032-0.075-0.402-0.005-0.727 0.216-0.996 0.017-0.020 0.040-0.035 0.066-0.042 0.497-0.131 1.041-0.317 1.357-0.699-0.131-0.186-0.271-0.364-0.417-0.551-0.223-0.285-0.455-0.58-0.655-0.905-0.163-0.263-0.317-0.547-0.466-0.822-0.289-0.531-0.589-1.081-0.961-1.517-0.263-0.308-0.498-0.705-0.676-1.14-0.049 0.102-0.105 0.2-0.163 0.301-0.085 0.15-0.173 0.305-0.249 0.491-0.065 0.16-0.086 0.271-0.105 0.368-0.033 0.174-0.062 0.324-0.289 0.583-0.784 0.892-1.346 1.665-1.668 2.297-0.153 0.296-0.312 0.544-0.495 0.766 0.033 0.011 0.066 0.020 0.101 0.029 0.085 0.022 0.166 0.037 0.242 0.052 0.292 0.056 0.544 0.105 0.757 0.446 0.069 0.109 0.104 0.271 0.138 0.427 0.024 0.118 0.072 0.337 0.121 0.361 0.035 0.016 0.060 0.046 0.071 0.082 0.010 0.037 0.002 0.076-0.019 0.108-0.072 0.101-0.091 0.155-0.102 0.191-0.036 0.102-0.082 0.141-0.206 0.171-0.010 0.001-0.020 0.002-0.030 0.002-0.037 0-0.075-0.017-0.098-0.047-0.307-0.379-0.819-0.846-1.274-1.166-0.072-0.049-0.16-0.085-0.249-0.115-0.235 0.194-0.497 0.377-0.796 0.587l-0.096 0.068c-0.379 0.265-0.797 0.427-1.202 0.586-0.214 0.082-0.416 0.161-0.613 0.253-1.153 0.545-2.451 0.997-3.712 1.297 1.225 0.259 2.329 0.593 3.525 1.216 0.196 0.102 0.397 0.189 0.61 0.281 0.406 0.174 0.825 0.354 1.203 0.646 0.056 0.043 0.109 0.086 0.163 0.128 0.144-0.095 0.258-0.19 0.364-0.321 0.035-0.045 0.069-0.111 0.105-0.181 0.059-0.115 0.125-0.246 0.229-0.34 0.318-0.285 0.651-0.308 0.964-0.308 0.055 0 0.111 0 0.173 0.001 0.068-0.033 0.158-0.053 0.242-0.053 0.124 0 0.226 0.043 0.288 0.121 0.066 0.085 0.083 0.2 0.050 0.343-0.062 0.261-0.449 0.417-0.91 0.581-0.098 0.035-0.183 0.065-0.232 0.088-0.415 0.196-0.531 0.332-0.689 0.653 0.088 0.065 0.184 0.121 0.285 0.18 0.201 0.118 0.41 0.24 0.586 0.446 0.011 0.014 0.020 0.030 0.026 0.046 0.063 0.217 0.137 0.446 0.258 0.643 0.096 0.158 0.233 0.291 0.417 0.407 0.020 0.013 0.036 0.030 0.046 0.050 0.422 0.851 0.838 1.537 1.239 2.041 0.243 0.307 0.344 0.665 0.442 1.013 0.043 0.151 0.088 0.308 0.142 0.458 0.076 0.206 0.166 0.379 0.25 0.544 0.056 0.108 0.111 0.214 0.16 0.325 0.177-0.478 0.41-0.914 0.672-1.252 0.374-0.482 0.674-1.090 0.963-1.675 0.15-0.304 0.305-0.616 0.466-0.907 0.2-0.358 0.432-0.684 0.656-1 0.063-0.089 0.125-0.177 0.187-0.266-0.022-0.013-0.043-0.026-0.062-0.036-0.295-0.176-0.309-0.216-0.37-0.586l-0.020-0.124c-0.056-0.337-0.199-0.53-0.476-0.645-0.147-0.060-0.289-0.086-0.426-0.112-0.294-0.053-0.597-0.109-0.712-0.55-0.052-0.117-0.085-0.374-0.010-0.553 0.063-0.151 0.193-0.235 0.364-0.235 0.046 0 0.096 0.006 0.15 0.017 0.16 0.037 0.284 0.23 0.415 0.433 0.065 0.101 0.131 0.204 0.178 0.246 0.168 0.147 0.276 0.181 0.439 0.233 0.069 0.023 0.148 0.047 0.24 0.085 0.422 0.17 0.767 0.438 1.010 0.782 0.227-0.216 0.499-0.353 0.761-0.484 0.201-0.102 0.41-0.206 0.603-0.347 0.609-0.446 1.205-0.845 1.757-1.209 0.451-0.296 0.99-0.438 1.513-0.573 0.15-0.039 0.298-0.078 0.443-0.119 0.141-0.042 0.285-0.081 0.429-0.117-0.144-0.033-0.286-0.068-0.426-0.104-0.145-0.039-0.295-0.073-0.443-0.109z"></path>
</svg>
