<!-- Generated by IcoMoon.io -->
<svg version="1.1" xmlns="http://www.w3.org/2000/svg" width="32" height="32" viewBox="0 0 32 32">
<title>return_to_turn_back_time</title>
<path d="M18.516 28.767c-0-0-0-0.001-0.001-0.001-0.003 0.002-0.002 0.002 0.001 0.001z"></path>
<path d="M20.469 27.895c-0.001 0-0.002 0.001-0.005 0.003 0.002-0.002 0.003-0.002 0.005-0.003z"></path>
<path d="M24.624 23.616c0.018-0.012 0.041-0.031 0.076-0.057-0.025 0.018-0.051 0.038-0.076 0.057z"></path>
<path d="M14.368 1.016c-0.050 0.028-0.098 0.054-0.145 0.079-0.032 0.013-0.064 0.028-0.092 0.042-0.058 0.023-0.111 0.048-0.164 0.070-0.104 0.042-0.198 0.078-0.272 0.114l0.165-0.114c-0.1 0.068-0.185 0.113-0.274 0.162l0.125-0.009c-0.108 0.048-0.194 0.094-0.204 0.074-0.089 0.088 0.122 0.032-0.068 0.187-0.075 0.027-0.176 0.090-0.268 0.143-0.047 0.025-0.093 0.046-0.13 0.063-0.020 0.006-0.035 0.013-0.050 0.015-0.009 0-0.015-0.003-0.022-0.011 0.006-0.001 0.036-0.016 0.055-0.026 0.021-0.011 0.039-0.023 0.055-0.029 0.028-0.016 0.044-0.027 0.055-0.035 0.018-0.018 0.006-0.023-0.009-0.024-0.025-0.006-0.057-0.012 0.040-0.076-0.055 0.032-0.118 0.064-0.193 0.098-0.019 0.001 0.009-0.023 0.035-0.040-0.029 0.011-0.074 0.030-0.081 0.031-0.004-0.001-0.004-0.001-0.007 0-0.004-0.001-0.005 0.001-0.005 0.002-0.009 0.002-0.037 0.006-0.048 0.011-0.031 0.009-0.050 0.021-0.077 0.033-0.052 0.024-0.126 0.051-0.334 0.055 0.042-0.026-0.025-0.042-0.097-0.052 0.046 0.019-0.045 0.061-0.18 0.085-0.314-0.021-0.341 0.029-0.505 0.029l0.187 0.009c-0.029 0.019-0.083 0.030-0.154 0.037-0.074 0.005-0.168 0.009-0.279 0.017-0.008 0.002-0.020 0.005-0.029 0.011-0.007-0.005 0.004-0.015 0.026-0.026-0.082 0.031-0.121 0.043-0.186 0.059-0.062 0.010-0.126 0.022-0.193 0.035-0.131 0.024-0.27 0.055-0.404 0.119-0.158 0.024-0.035-0.063-0.173-0.037-0.134 0.064-0.227 0.089-0.31 0.107-0.041 0.009-0.079 0.014-0.121 0.024-0.022 0.004-0.042 0.010-0.066 0.015-0.012 0.004-0.025 0.005-0.037 0.009-0.023 0.006-0.043 0.014-0.066 0.020-0.022 0.013-0.044 0.027-0.068 0.040-0.013 0.007-0.029 0.018-0.044 0.028-0.031 0.020-0.063 0.045-0.097 0.072 0.124-0.018 0.134-0.038-0.081 0.152l0.323-0.222 0.294-0.114-0.13 0.072c-0.050 0.024-0.073 0.040-0.151 0.074-0.059 0.044-0.079 0.068-0.114 0.099 0.040-0.025 0.083-0.054 0.123-0.081 0.043-0.016 0.085-0.033 0.125-0.048 0.038-0.015 0.071-0.030 0.103-0.042 0.067-0.028 0.127-0.049 0.173-0.061-0.179 0.103-0.166 0.085-0.063 0.096-0.056 0.001-0.109 0.011-0.16 0.024-0.025 0.006-0.053 0.016-0.077 0.026l-0.090 0.035c-0.071 0.052-0.142 0.104-0.217 0.16-0.071 0.051-0.147 0.098-0.237 0.134l-0.057-0.11c-0.316 0.145-0.551 0.354-0.842 0.555-0.094 0.051-0.237 0.12-0.38 0.176l0.189-0.063c-0.055 0.079-0.343 0.164-0.514 0.265-0.001-0.045-0.119-0.006-0.208 0.002 0.020 0.025-0.405 0.183-0.426 0.285l-0.074 0.022-0.066 0.048-0.050 0.031-0.096 0.061c-0.373 0.325-0.325 0.477-0.678 0.794 0.072-0.131-0.105-0.002 0.101-0.246-0.114 0.11-0.221 0.201-0.202 0.224-0.019 0.009-0.045 0.033-0.072 0.061-0.029 0.033-0.066 0.075-0.103 0.119-0.034 0.062-0.071 0.13-0.105 0.191-0.032 0.053-0.063 0.1-0.094 0.129-0.023 0.066 0.003 0.108-0.096 0.254-0.012 0.008-0.017 0.001-0.019-0.005-0.003 0.038-0.121 0.234-0.005 0.137-0.084 0.075-0.167 0.174-0.25 0.287-0.042 0.053-0.081 0.113-0.121 0.175-0.038 0.056-0.074 0.113-0.112 0.171-0.064 0.057-0.13 0.117-0.195 0.175-0.068 0.058-0.136 0.117-0.2 0.173-0.131 0.108-0.258 0.198-0.367 0.25-0.14 0.131-0.293 0.275-0.434 0.406-0.068 0.194-0.132 0.372-0.184 0.526-0.005-0.024-0.019-0.009 0.005-0.063-0.186 0.393 0.021 0.29-0.189 0.739-0.151 0.213 0.054-0.257-0.024-0.119-0.044 0.005-0.076 0.051-0.107 0.123-0.015 0.036-0.030 0.080-0.046 0.125-0.011 0.042-0.034 0.108-0.035 0.123-0.004 0.011-0.028 0.048-0.053 0.083l-0.072 0.107c-0.050 0.067-0.104 0.128-0.162 0.175l0.042-0.070c-0.189 0.175-0.326 0.53-0.581 0.858 0 0-0.001-0.024-0.018-0.015-0.006 0.022-0.022 0.057-0.051 0.107-0.015 0.079-0.033 0.169-0.051 0.268-0.019 0.089-0.040 0.185-0.064 0.283-0.048 0.195-0.102 0.398-0.149 0.575-0.013-0.134 0.027-0.18-0.048-0.127-0.048 0.174 0.098-0.022 0.004 0.323-0.028 0.046-0.057 0.101-0.097 0.178-0.036 0.107-0.071 0.19-0.108 0.208l0.031-0.226 0.042-0.129c-0.013 0.016-0.028 0.029-0.038 0.048-0.010 0.016-0.018 0.037-0.033 0.074-0.004 0.025-0.009 0.049-0.015 0.075l-0.011 0.064c-0.004 0.043-0.004 0.086-0.005 0.129-0.004 0.086-0.008 0.169-0.026 0.237l-0.029-0.029c-0.064 0.499 0.012 0.538-0.066 1.044-0.001 0.006-0.005 0.016-0.007 0.026 0.006-0.010 0.014-0.017 0.020-0.024 0.005-0.005 0.011-0.009 0.017-0.018 0.001 0.012 0.001 0.017 0.002 0.022 0 0.276-0.107 0.216-0.119 0.513l-0.105 0.068c-0.031 0.197-0.084 0.701-0.171 1.049 0.004-0.209 0.067-0.627 0.097-0.887-0.033 0.127-0.066 0.325-0.097 0.509 0.012 0.256-0.058 0.566-0.169 0.944-0.044-0.036-0.097 0.055-0.153 0.204-0.028 0.074-0.056 0.164-0.086 0.257-0.034 0.106-0.068 0.217-0.101 0.325 0.005 0.039 0.012 0.078 0.018 0.116 0.002 0.027 0.005 0.052 0.009 0.077 0.005 0.048 0.013 0.098 0.017 0.143 0.005 0.088 0.003 0.161-0.009 0.215 0.045 0.166 0.082 0.335 0.114 0.505 0.015 0.086 0.030 0.172 0.046 0.259 0.013 0.092 0.028 0.182 0.042 0.277 0.058 0.179 0.116 0.363 0.176 0.551 0.060 0.183 0.124 0.372 0.197 0.566 0.021-0.314 0.084 0.222 0.189 0.13 0.031 0.080 0.051 0.135 0.066 0.173 0.004 0.028 0.008 0.067 0.005 0.072v0.002l0.013 0.581c-0.016 0.14-0.057-0.175-0.083-0.152 0.056 0.411-0.026 0.181-0.016 0.457 0.038-0.063 0.087 0.132 0.108 0.369l0.007-0.338c0.076 0.27 0.071 0.382 0.068 0.525 0.010 0.159 0.005 0.273 0.118 0.568l-0.085-0.169c0.039 0.112 0.089 0.302 0.145 0.507 0.031 0.103 0.061 0.209 0.090 0.312 0.018 0.050 0.035 0.101 0.050 0.149 0.020 0.054 0.039 0.104 0.055 0.152 0.023 0.050 0.028 0.057 0.040 0.081 0.013 0.020 0.024 0.038 0.035 0.055 0.023 0.036 0.049 0.068 0.070 0.092 0.005 0.055-0.002 0.132-0.061 0.013 0.074 0.194 0.161 0.399 0.254 0.601 0.096 0.209 0.194 0.419 0.287 0.619 0.052 0.072 0.103 0.141 0.152 0.208 0.043 0.061 0.085 0.121 0.125 0.18 0.080 0.118 0.149 0.229 0.204 0.336l-0.055-0.029c0.082 0.107 0.18 0.162 0.248 0.32-0.018 0-0.059-0.028-0.026 0.024 0.016 0.019 0.051 0.058 0.094 0.105 0.020 0.024 0.040 0.048 0.064 0.075 0.024 0.031 0.041 0.048 0.083 0.107 0.029 0.027 0.060 0.057 0.088 0.083 0.023 0.023 0.042 0.043 0.061 0.064l-0.134-0.081c0.479 0.518 0.834 0.687 1.275 1.075-0.066 0.067 0.313 0.464 0.503 0.661l-0.017 0.002c0.145 0.138 0.281 0.26 0.415 0.377 0.128 0.122 0.254 0.236 0.377 0.345 0.126 0.111 0.246 0.22 0.375 0.331 0.061 0.058 0.125 0.114 0.189 0.173 0.034 0.029 0.066 0.059 0.099 0.090 0.037 0.035 0.076 0.070 0.114 0.107 0.015 0.007 0.030 0.019 0.048 0.029 0.111 0.115 0.291 0.258 0.503 0.413 0.108 0.076 0.222 0.158 0.34 0.241 0.13 0.091 0.265 0.183 0.401 0.276 0.155 0.043 0.311 0.087 0.461 0.129 0.134 0.040 0.263 0.081 0.382 0.121-0.107-0.045 0.036-0.066 0.167-0.042 0.167 0.063 0.489 0.060 0.439 0.136l-0.059-0.018c0.016 0.017 0.040 0.035 0.068 0.052 0.012 0.007 0.026 0.016 0.042 0.024 0.020 0.006 0.010 0.004 0.017 0.011-0.007 0.001 0.048 0.036 0.086 0.059 0.043 0.025 0.085 0.052 0.13 0.077 0.091 0.050 0.186 0.102 0.272 0.149l0.094-0.075c0.099 0.087 0.217 0.17 0.345 0.25 0.063 0.040 0.128 0.082 0.195 0.119 0.075 0.042 0.15 0.080 0.226 0.121l0.231 0.077c0.070 0.021 0.139 0.041 0.208 0.063 0.138 0.043 0.275 0.084 0.397 0.121 0.246 0.079 0.447 0.16 0.557 0.248 0.028 0.005 0.035 0.006 0.094 0.020 0.084 0.011 0.177 0.022 0.268 0.033 0.087 0.009 0.172 0.021 0.25 0.024l-0.022 0.057c0.191 0.043 0.344 0.077 0.502 0.112 0.079 0.017 0.159 0.034 0.246 0.052 0.098 0.019 0.203 0.040 0.321 0.064 0.068-0.006 0.197-0.021 0.34-0.033l-0.123 0.053c0.345-0.023 0.423-0.206 0.74-0.231l0.101 0.083 0.263-0.016 0.272-0.011 0.336-0.048 0.318-0.050c0.211-0.036 0.42-0.083 0.625-0.149-0.007 0.015-0.023 0.044-0.118 0.064 0.083-0.013 0.213-0.032 0.351-0.053 0.078-0.004 0.157-0.007 0.231-0.011 0.079-0.005 0.155-0.013 0.217-0.022 0.113-0.016 0.184-0.039 0.168-0.074 0.072 0.056 0.633-0.048 0.937-0.11l-0.044 0.066c0.266-0.11 0.272-0.132 0.65-0.2 0.091-0.004 0.085 0.035-0.035 0.035 0.304-0.006 0.226-0.083 0.595-0.097l-0.13 0.055c0.151-0.017 0.222-0.030 0.274-0.046s0.084-0.034 0.191-0.070c0.001-0.001 0.006-0.006 0.011-0.009 0.025-0.019 0.054-0.042 0.084-0.064 0.024-0.016 0.052-0.031 0.079-0.050 0.056-0.035 0.116-0.072 0.175-0.101 0.115-0.059 0.22-0.099 0.254-0.088 0.017-0.051 0.136-0.178 0.299-0.265 0.032 0.004-0.018 0.049-0.042 0.072 0.107-0.058 0.197-0.116 0.276-0.169 0.040-0.029 0.076-0.054 0.114-0.081l0.050-0.039 0.031-0.024c0.016-0.009 0.064-0.027 0.108-0.040 0.043-0.015 0.084-0.031 0.127-0.044 0.084-0.024 0.171-0.043 0.268-0.052 0.012 0.016 0.034 0.020 0.066 0.018-0.235 0.059-0.441 0.114-0.558 0.143-0.024 0.015-0.043 0.026-0.053 0.031-0.009 0.006-0.015 0.009-0.018 0.010 0.013 0.020 0.083-0.005 0.091 0.006 0.015 0.005 0.021 0.011 0.029 0.020 0.004 0.009-0.001 0.026 0 0.042 0 0.003 0.001 0.007 0.002 0.011 0-0.002 0.001-0.007 0.002-0.011 0.017-0.006 0.034-0.014 0.050-0.022 0.038-0.015 0.075-0.032 0.114-0.050 0.078-0.032 0.16-0.066 0.244-0.101 0.167-0.068 0.342-0.129 0.496-0.156 0.016 0.001 0.031 0.001 0.044 0.005l-0.031 0.013c0.074-0.013 0.141-0.035 0.2-0.059 0.051-0.009 0.093-0.018 0.134-0.026 0.047-0.009 0.063-0.013 0.16-0.037 0.017 0.005 0.057 0.001 0.117-0.011 0.035-0.035 0.079-0.081 0.127-0.136 0.027-0.032 0.055-0.065 0.084-0.101 0.058-0.070 0.12-0.142 0.162-0.193-0.054-0.026 0.087-0.185-0.072-0.068 0.003 0.001-0.031 0.047-0.091 0.119-0.013 0.021-0.031 0.044-0.039 0.059 0-0.004 0.001-0.009 0.002-0.015l-0.217 0.265-0.184 0.050c0.038-0.022 0.113-0.050 0.169-0.072 0.020-0.028 0.041-0.057 0.063-0.086 0.017-0.023 0.037-0.049 0.057-0.074 0.033-0.043 0.073-0.083 0.123-0.123 0.025-0.091 0.057-0.188 0.075-0.241 0.211-0.12 0.531-0.43 0.608-0.443 0.054-0.071 0.108-0.147 0.167-0.224 0.080-0.068 0.163-0.139 0.244-0.208 0.087-0.076 0.17-0.149 0.252-0.219 0.159-0.146 0.295-0.284 0.371-0.401 0.104-0.1 0.149-0.077 0.202-0.097-0.060 0.061-0.138 0.122-0.163 0.162 0.202-0.21 0.687-0.512 0.695-0.617 0.318-0.182-0.126 0.177 0.276-0.121l-0.040 0.057c0.107-0.056 0.203-0.114 0.296-0.175 0.046-0.032 0.090-0.063 0.134-0.092 0.055-0.040 0.11-0.079 0.162-0.119l0.066-0.123 0.042-0.084 0.075-0.169c0.050-0.112 0.101-0.224 0.151-0.338 0.1-0.224 0.219-0.471 0.356-0.693 0.079-0.074 0.188-0.168 0.303-0.257-0.013 0.009-0.024 0.015-0.033 0.016 0.146-0.128 0.288-0.263 0.43-0.399l0.209-0.209 0.222-0.219c0.292-0.467 0.536-0.88 0.836-1.341l0.088-0.272 0.088-0.254c0.060-0.17 0.124-0.335 0.191-0.498 0.098-0.256 0.096-0.336 0.107-0.474 0-0.036 0.004-0.078 0.004-0.129l0.077-0.061 0.007-0.371c0.063-0.516 0.345-0.84 0.402-1.499l-0.061 0.074c0.063-0.227 0.151-0.733 0.189-0.682-0.001-0.027-0.026-0.083 0.017-0.169h0.037l0.011-0.085 0.020-0.114-0.044-0.123v0.005l-0.035-0.096-0.075-0.193c-0.094-0.438 0.148 0.035-0.015-0.599-0.078-0.231-0.276-0.643-0.274-0.549 0.024 0.095 0.046 0.247 0.015 0.265l-0.074-0.209c-0.006-0.001-0.015-0.002-0.022-0.004l-0.011-0.035 0.312-1.534-0.276-1.029 0.024 0.020-0.037-0.070-0.088-0.327c0.013 0.006 0.034 0.033 0.055 0.097-0.007-0.096-0.021-0.144-0.039-0.191-0.039-0.067-0.069-0.088-0.097-0.222-0.004-0.025 0.006-0.018 0.018 0l-0.125-0.208c0.036 0.035 0.040-0.063 0.090 0.077-0.134-0.415-0.354-0.606-0.362-0.781l0.022 0.029c-0.209-0.397-0.149-0.21-0.219-0.259l-0.004-0.011-0.037-0.261 0.083-0.222-0.072-0.052c-0.006-0.060-0.016-0.182 0.013-0.164-0.073-0.222-0.024 0.043-0.083-0.085 0.015-0.233-0.064-0.565-0.068-0.774-0.033-0.059-0.054-0.107-0.040-0.134-0.107-0.060 0.146 0.261-0.079 0.016 0.035-0.14-0.233-0.285-0.356-0.535 0.096 0.033 0.225 0.26 0.103 0.011-0.175-0.075-0.297-0.439-0.448-0.612-0.071 0.037-0.319-0.386-0.564-0.683 0.036 0.004-0.391-0.612-0.564-0.928l0.015 0.002c-0.103-0.013-0.299-0.326-0.465-0.54 0.044-0.017 0.088 0.012 0.187 0.121l-0.141-0.211c-0.055-0.035-0.108-0.094-0.208-0.224l0.084 0.022-0.075-0.101-0.103-0.086-0.090-0.074c-0.060-0.048-0.125-0.1-0.189-0.151-0.128-0.106-0.26-0.219-0.391-0.364-0.037 0.018 0.045 0.167-0.011 0.176l-0.171-0.16c0.019-0.007 0.048-0.002 0.097 0.033-0.032-0.024-0.121-0.075-0.171-0.138l0.169 0.088c-0.131-0.15-0.105-0.040-0.219-0.151 0.032-0.028-0.063-0.101-0.024-0.11 0.032 0.024 0.089 0.105 0.145 0.134-0.063-0.061-0.145-0.146-0.182-0.197-0.027-0.054-0.066-0.132-0.072-0.165-0.011 0.028-0.046 0.037-0.129-0.064-0.205-0.267-0.030-0.124-0.13-0.294-0.072-0.047-0.178-0.236-0.231-0.204-0.059-0.079-0.048-0.109-0.057-0.151-0.035-0.034-0.087-0.098-0.143-0.167-0.067-0.082-0.136-0.171-0.195-0.244-0.205-0.051-0.257-0.053-0.187 0l0.050 0.018c-0.011-0.001-0.023-0.005-0.035-0.007-0.237-0.041-0.472-0.111-0.707-0.187l-0.353-0.118c-0.112-0.038-0.219-0.074-0.329-0.108l-0.094-0.081-0.11-0.088 0.013-0.015c-0.273-0.202-0.581-0.48-0.794-0.604-0.076-0.064-0.155-0.182-0.107-0.173-0.031-0.023-0.059-0.045-0.077-0.059-0.048-0.020-0.088-0.035-0.127-0.050-0.036-0.015-0.070-0.030-0.107-0.046-0.073-0.036-0.158-0.083-0.296-0.169 0.25 0.083-0.067-0.068 0.252 0.096-0.294-0.166-0.349-0.23-0.696-0.34 0.132 0.005-0.192-0.172-0.351-0.233l0.198 0.141c-0.047-0.020-0.091-0.040-0.134-0.061-0.049-0.024-0.098-0.049-0.145-0.074-0.080-0.012-0.155-0.022-0.231-0.035l0.094-0.059c-0.333-0.087-0.644-0.090-0.935-0.099-0.145-0.004-0.284-0.010-0.421-0.028-0.134-0.019-0.26-0.063-0.382-0.121-0.187 0.013 0.361 0.105 0.191 0.13-0.308-0.070-0.612-0.233-0.709-0.25-0.171-0.051-0.272-0.056-0.362-0.053-0.046 0.002-0.085 0.005-0.132 0.007-0.023 0.001-0.050 0.001-0.075 0-0.029-0.001-0.049-0.001-0.101-0.009-0.032 0-0.066 0.002-0.105 0.002-0.034 0-0.071-0.003-0.114-0.005 0.059 0.027 0.114 0.092-0.226 0.112-0.316-0.015-0.388-0.111-0.187-0.129 0.076-0.001 0.113 0.007 0.11 0.017 0.103-0.007 0.236-0.016 0.11-0.046l-0.042 0.026c-0.156-0.029-0.591-0.033-0.487-0.074-0.241 0.022-0.106 0.039 0.072 0.055-0.262-0.029-0.462-0.025-0.667-0.028-0.096-0.006-0.229-0.019-0.369-0.040 0.065 0.020 0.124 0.054 0.059 0.048-0.609-0.087-0.273 0.022-0.687-0.004-0.232-0.059 0.092-0.083-0.327-0.088-0.253-0.050-0.048-0.071 0.053-0.083-0.046 0.001-0.090 0.001-0.134 0l-0.094-0.005c-0.037-0.004-0.073-0.007-0.108-0.011h-0.002v-0zM16.179 3.705c0.036 0.004 0.054 0.052 0.045 0.137-0.021 0.196-0.115 0.361-0.112 0.558l-0.001-0c0.001 0.105 0 0.21 0 0.315 0 0.121 0.011 0.247-0.014 0.364-0.009 0.043-0.042 0.078-0.051 0.139s0.011 0.129 0.003 0.192c-0.017 0.125-0.066 0.176-0.064 0.314 0.001 0.143 0.010 0.289-0.014 0.43-0.048 0.278-0.032 0.539-0.044 0.818-0.010 0.208-0.094 0.404-0.12 0.61-0.020 0.151-0.015 0.306-0.012 0.457 0.007 0.342-0.12 0.659-0.128 1.002-0.007 0.307-0.013 0.596-0.046 0.904-0.024 0.229 0.007 0.455-0.009 0.682-0.012 0.177-0.093 0.342-0.12 0.517-0.025 0.164-0.012 0.33-0.011 0.495 0.003 0.426-0.002 0.853 0 1.279 0.002 0.305-0.061 0.56-0.303 0.761-0.067 0.056-0.133 0.125-0.197 0.183-0.106 0.095-0.185 0.25-0.315 0.304-0.109 0.045-0.089 0.007-0.204 0.104-0.103 0.088-0.201 0.181-0.31 0.263-0.083 0.062-0.132 0.107-0.195 0.194-0.153 0.212-0.217 0.424-0.44 0.566-0.208 0.133-0.345 0.327-0.554 0.459-0.439 0.275-0.79 0.737-1.079 1.16-0.062 0.090-0.127 0.186-0.182 0.286-0.072 0.13-0.096 0.316-0.192 0.429-0.098 0.113-0.172 0.166-0.249 0.314-0.097 0.185-0.209 0.315-0.312 0.486-0.087 0.146-0.169 0.31-0.246 0.446 0.078 0.042 0.068 0.253 0.099 0.336 0.024 0.064 0.063 0.12 0.080 0.181 0.051 0.173 0.105 0.364 0.172 0.523 0.061 0.142 0.173 0.252 0.238 0.391 0.098 0.208 0.104 0.49 0.17 0.714 0.019 0.064 0.049 0.113 0.088 0.165 0.014 0.020 0.067 0.032 0.076 0.051 0.034 0.073 0.013 0.122 0.056 0.192 0.062 0.101 0.158 0.193 0.221 0.295 0.058 0.094 0.075 0.194 0.11 0.289 0.024 0.062 0.054 0.101 0.080 0.164 0.078 0.181 0.035 0.362 0.144 0.526 0.043 0.065 0.113 0.098 0.143 0.174 0.013 0.034 0.001 0.125 0.024 0.164s0.078 0.072 0.106 0.111c0.073 0.105 0.108 0.241 0.18 0.353 0.14 0.216 0.286 0.41 0.423 0.618 0.13 0.195 0.26 0.407 0.35 0.626 0.026 0.065 0.022 0.123 0.062 0.192 0.037 0.065 0.086 0.12 0.128 0.187 0.098 0.158 0.12 0.351 0.199 0.522 0.056 0.122 0.133 0.205 0.183 0.327 0.033 0.083 0.076 0.229 0.133 0.292 0.079 0.086 0.17 0.089 0.241 0.196 0.049 0.073 0.066 0.142 0.122 0.208 0.102 0.118 0.173 0.212 0.192 0.377 0.014 0.127 0.026 0.343-0.013 0.462-0.016 0.003-0.034 0.006-0.052 0.011 0.367 0.147-0.018 0.205-0.080 0.304-0.251-0.098-0.444-0.251-0.613-0.478-0.113-0.153-0.262-0.246-0.377-0.389-0.099-0.123-0.164-0.263-0.299-0.356-0.088-0.059-0.196-0.091-0.286-0.151-0.105-0.068-0.19-0.14-0.298-0.191-0.084-0.040-0.118-0.052-0.19-0.123-0.16-0.158-0.255-0.365-0.378-0.552-0.159-0.24-0.222-0.509-0.345-0.768-0.14-0.293-0.257-0.605-0.408-0.89-0.094-0.176-0.224-0.327-0.319-0.505-0.066-0.124-0.163-0.194-0.241-0.308-0.104-0.151-0.107-0.349-0.199-0.511-0.056-0.099-0.090-0.16-0.127-0.261-0.078-0.226-0.179-0.486-0.328-0.681-0.226-0.293-0.37-0.618-0.476-0.976-0.155-0.524-0.386-1.028-0.533-1.545-0.031-0.107-0.108-0.314-0.035-0.425 0.045-0.068 0.118-0.043 0.164-0.088 0.020-0.020 0.009-0.079 0.026-0.1 0.367-0.435 0.772-0.873 1.106-1.337 0.13-0.182 0.302-0.324 0.441-0.503 0.109-0.142 0.184-0.287 0.281-0.431 0.033-0.049 0.093-0.076 0.128-0.136 0.031-0.050 0.080-0.133 0.097-0.19 0.019-0.067-0.005-0.122 0.008-0.186 0.022-0.112 0.069-0.176 0.13-0.272 0.088-0.138 0.111-0.246 0.171-0.376 0.074-0.16 0.225-0.331 0.317-0.49 0.178-0.306 0.41-0.615 0.645-0.879 0.11-0.123 0.198-0.27 0.317-0.386 0.062-0.058 0.148-0.101 0.205-0.163 0.101-0.111 0.166-0.249 0.174-0.398 0.004-0.104-0-0.21-0.002-0.313-0.001-0.146 0.050-0.243 0.065-0.378 0.024-0.21 0.040-0.553-0.016-0.758-0.116-0.429-0.017-0.874 0.063-1.308 0.073-0.404 0.016-0.865 0.014-1.275-0.001-0.094-0.022-0.214-0.003-0.304 0.013-0.064 0.050-0.109 0.061-0.169 0.020-0.11-0.003-0.224 0.019-0.333 0.031-0.014 0.048-0.038 0.053-0.073-0.002-0.045-0.004-0.089-0.006-0.133 0.015-0.057 0.053-0.069 0.081-0.119 0.060-0.104 0.095-0.198 0.174-0.288 0.158-0.178 0.247-0.389 0.396-0.584 0.147-0.192 0.301-0.352 0.472-0.518 0.155-0.151 0.229-0.357 0.327-0.55 0.236-0.461 0.55-0.87 0.776-1.343 0.074-0.157 0.138-0.426 0.252-0.555 0.046-0.053 0.085-0.076 0.113-0.073zM17.177 4.417c0.082 0.067 0.162 0.26 0.208 0.354 0.093 0.184 0.14 0.388 0.219 0.574 0.035 0.085 0.107 0.147 0.144 0.223 0.055 0.115 0.068 0.245 0.109 0.362 0.026 0.077 0.053 0.153 0.077 0.23 0.059 0.183 0.139 0.231 0.253 0.386 0.154 0.207 0.143 0.488 0.327 0.677 0.127 0.13 0.268 0.213 0.37 0.372 0.153 0.24 0.184 0.526 0.184 0.801 0.001 0.477 0.064 0.909 0.064 1.384v2.315c0 0.162-0.019 0.336-0.003 0.497 0.012 0.13 0.062 0.242 0.068 0.376 0.012 0.253-0.049 0.509 0.059 0.748 0.036 0.080 0.082 0.159 0.12 0.238 0.059 0.122 0.106 0.235 0.181 0.35 0.119 0.185 0.196 0.382 0.332 0.553 0.056 0.071 0.076 0.174 0.138 0.238 0.093 0.097 0.177 0.107 0.228 0.254 0.014 0.040 0.003 0.087 0.023 0.126 0.009 0.018 0.082 0.049 0.1 0.073 0.065 0.088 0.077 0.208 0.122 0.305 0.066 0.144 0.216 0.225 0.308 0.359 0.219 0.321 0.519 0.591 0.716 0.913 0.122 0.198 0.295 0.346 0.443 0.519 0.12 0.142 0.283 0.297 0.379 0.458 0.187 0.315 0.527 0.549 0.75 0.846 0.232 0.31 0.879 0.622 0.65 1.078l-0-0c-0.117 0.231-0.241 0.484-0.38 0.703-0.099 0.159-0.154 0.28-0.204 0.458-0.051 0.186-0.173 0.358-0.252 0.533-0.067 0.149-0.133 0.337-0.233 0.462-0.063 0.078-0.107 0.075-0.149 0.171-0.023 0.054-0.022 0.107-0.052 0.165-0.072 0.141-0.187 0.267-0.285 0.397-0.063 0.083-0.086 0.173-0.142 0.258-0.062 0.089-0.158 0.169-0.226 0.251-0.149 0.182-0.237 0.377-0.359 0.58-0.154 0.255-0.358 0.453-0.533 0.689-0.376 0.505-0.776 0.995-1.155 1.504-0.231 0.308-0.484 0.608-0.729 0.905-0.066 0.079-0.16 0.224-0.266 0.28-0.058 0.008-0.136 0.014-0.217 0.012-0.187-0.005-0.172 0.034-0.299 0.175-0.18 0.201-0.422 0.189-0.286-0.112 0.094-0.206 0.173-0.375 0.204-0.596 0.031-0.212 0.044-0.464 0.145-0.649 0.148-0.268 0.436-0.44 0.611-0.687 0.073-0.102 0.115-0.227 0.204-0.321 0.087-0.089 0.11-0.080 0.189-0.214 0.058-0.096 0.108-0.214 0.179-0.301 0.098-0.123 0.197-0.174 0.282-0.317 0.126-0.211 0.268-0.486 0.425-0.672 0.228-0.267 0.36-0.637 0.545-0.916 0.164-0.248 0.29-0.524 0.462-0.777 0.156-0.23 0.27-0.456 0.358-0.717 0.083-0.244 0.273-0.446 0.404-0.666 0.12-0.202 0.276-0.48 0.231-0.727-0.032-0.176-0.16-0.187-0.271-0.3-0.106-0.108-0.206-0.214-0.316-0.315-0.104-0.094-0.157-0.214-0.25-0.315-0.104-0.11-0.225-0.202-0.325-0.304-0.163-0.168-0.273-0.396-0.447-0.562-0.112-0.107-0.14-0.209-0.22-0.336-0.043-0.069-0.096-0.128-0.138-0.214-0.062-0.123-0.142-0.219-0.194-0.348-0.053-0.128-0.089-0.269-0.171-0.382-0.348-0.489-0.756-0.931-1.184-1.348-0.197-0.193-0.386-0.457-0.55-0.679-0.152-0.206-0.31-0.507-0.509-0.667-0.114-0.090-0.241-0.101-0.343-0.214-0.069-0.078-0.116-0.176-0.203-0.241-0.055-0.041-0.193-0.047-0.227-0.087-0.041-0.046-0.008-0.18-0.023-0.24-0.086-0.336-0.050-0.714-0.050-1.068v-0.697c0-0.094 0.005-0.19 0.001-0.283-0.005-0.101-0.042-0.119-0.058-0.199-0.072-0.354-0.005-0.79-0.005-1.155v-0.568c0-0.24 0.060-0.462 0.065-0.696 0.003-0.094-0.007-0.187-0.002-0.28 0.004-0.098 0.044-0.118 0.058-0.194 0.030-0.16-0.031-0.342 0.002-0.501 0.018-0.083 0.057-0.127 0.067-0.216 0.009-0.084-0.005-0.158 0.012-0.24 0.015-0.067 0.051-0.11 0.050-0.203-0.002-0.104 0-0.208 0-0.312 0-0.338 0.040-0.668 0.059-1.005 0.025-0.432 0.16-0.875 0.126-1.311zM23.078 8.926c0.059 0 0.118 0.001 0.177 0.001 0.154 0 0.303-0.007 0.454 0.024 0.378 0.078 0.737 0.212 1.096 0.355 0.189 0.076 0.376 0.138 0.574 0.188 0.183 0.047 0.36 0.104 0.52 0.204 0.156 0.097 0.321 0.159 0.469 0.269 0.158 0.116 0.334 0.179 0.507 0.269 0.31 0.162 0.61 0.325 0.966 0.329-0.693 0-1.387-0.009-2.080 0-0.232 0.002-0.467-0.046-0.696-0.079-0.194-0.028-0.382-0.083-0.578-0.079-0.445 0.010-0.88-0.158-1.328-0.158-0.239 0-0.474 0.033-0.71 0.072-0.131 0.022-0.262 0.038-0.394 0.055-0.122 0.014-0.241 0.052-0.364 0.062-0.197 0.017-0.389-0-0.585 0.026-0.118 0.015-0.237-0.001-0.355 0.013-0.082 0.010-0.16 0.036-0.24 0.051-0.074 0.012-0.148-0.002-0.221 0.013-0.076 0.014-0.129 0.025-0.208 0.025-0.013 0-0.093 0.011-0.108 0.001-0.042-0.025-0.019-0.025-0.030-0.068-0.024-0.090-0-0.215 0.001-0.309 0-0.15 0-0.297-0.018-0.447-0.025-0.214-0.111-0.413-0.109-0.627l0 0.001c0.26-0.031 0.517 0.005 0.741-0.039 0.252-0.050 0.478-0.121 0.74-0.12 0.228 0.002 0.456 0.001 0.685 0.001 0.184 0 0.38 0.020 0.563-0.007 0.175-0.027 0.352-0.028 0.529-0.027zM11.712 8.958c0.171-0.001 0.345 0.039 0.512 0.072 0.048 0.010 0.251 0.042 0.286 0.086 0-0 0-0 0-0l0.001 0.001c-0-0-0.001-0.001-0.001-0.001-0.009 0.065-0.017 0.066-0.026 0.067-0.029 0.062-0.005 0.196-0.005 0.264v0.434c0 0.148 0.037 0.344-0.005 0.489-0.035 0.117-0.124 0.052-0.212 0.029-0.078-0.021-0.159-0.028-0.236-0.052-0.111-0.036-0.214-0.094-0.321-0.139-0.323-0.137-0.692-0.084-1.036-0.086-0.334-0.001-0.67 0.004-0.991 0.101-0.147 0.044-0.294 0.078-0.441 0.12-0.1 0.030-0.201 0.074-0.304 0.089-0.172 0.027-0.403 0.027-0.574 0-0.178-0.029-0.336-0.109-0.509-0.145-0.178-0.037-0.344-0.101-0.522-0.141-0.248-0.055-0.463-0.088-0.722-0.087-0.115 0.001-0.234 0.013-0.347-0.001-0.098-0.011-0.192-0.044-0.285-0.076-0.204-0.069-0.376-0.186-0.565-0.285-0.253-0.132-0.563-0.204-0.846-0.23-0.092 0.019-0.28 0.069-0.325-0.006 0.106 0.006 0.212-0.003 0.318 0.006 0.002 0 0.004 0.001 0.007 0.001 0.012-0.003 0.024-0.005 0.032-0.005 0.203-0.019 0.404-0.031 0.604-0.058 0.169-0.024 0.334-0.069 0.506-0.068 0.227 0.002 0.454-0.007 0.681 0 0.188 0.005 0.386 0.042 0.572 0.070 0.121 0.019 0.23 0.060 0.348 0.090 0.121 0.032 0.248 0.032 0.371 0.045 0.211 0.024 0.435 0.028 0.649 0.018 0.186-0.010 0.426-0.025 0.596-0.099 0.082-0.035 0.161-0.082 0.239-0.125 0.085-0.045 0.164-0.053 0.258-0.072 0.154-0.029 0.312-0.058 0.467-0.077 0.235-0.027 0.484 0.001 0.713-0.062 0.099-0.026 0.153-0.106 0.24-0.136 0.097-0.032 0.206-0.031 0.311-0.031 0.186 0.001 0.374 0.001 0.561-0.001zM12.291 11.542l0 0.001c0.077 0.116 0.043 0.142 0.001 0.158-0 0-0.001 0-0.001 0v0.596c0 0.132-0.001 0.264 0 0.397 0 0.078 0.001 0.157-0.039 0.227-0.042 0.075-0.136 0.127-0.201 0.181-0.106 0.090-0.247 0.132-0.36 0.212-0.075 0.053-0.162 0.108-0.232 0.166-0.093 0.076-0.165 0.176-0.256 0.255-0.072 0.062-0.18 0.148-0.266 0.185-0.065 0.029-0.138 0.018-0.208 0.018-0.156-0.001-0.313 0-0.468 0-0.393 0-0.787-0.003-1.179 0-0.164 0.001-0.28-0.037-0.431-0.088-0.126-0.042-0.264-0.078-0.377-0.148-0.141-0.086-0.264-0.091-0.425-0.118-0.099-0.017-0.194-0.046-0.296-0.054-0.165-0.011-0.325-0.010-0.49-0.033-0.249-0.036-0.498-0.078-0.746-0.118-0.11-0.018-0.213-0.063-0.323-0.080-0.116-0.019-0.213-0.029-0.319-0.078-0.165-0.076-0.346-0.124-0.519-0.181-0.13-0.043-0.332-0.093-0.391-0.23 0.169-0.041 0.389-0.005 0.56-0.005h0.66c0.497 0 0.994-0.001 1.491-0.001 0.337 0.001 0.68-0.013 1.002-0.125 0.187-0.065 0.382-0.096 0.57-0.159 0.162-0.054 0.332-0.097 0.496-0.142 0.168-0.047 0.355-0.058 0.529-0.087 0.198-0.032 0.398-0.023 0.598-0.023 0.111 0.001 0.199 0.012 0.297-0.039 0.097-0.051 0.182-0.124 0.282-0.164 0.119-0.047 0.229-0.11 0.35-0.152 0.108-0.039 0.215-0.063 0.324-0.099 0.026-0.009 0.059-0.008 0.084-0.016 0.046-0.015 0.061-0.045 0.117-0.058 0.068-0.015 0.1-0.013 0.166-0.037v-0.159zM21.155 11.946c0.198-0.002 0.395 0.011 0.588 0.044 0.139 0.024 0.271 0.067 0.411 0.089 0.185 0.030 0.353 0.117 0.537 0.149 0.175 0.030 0.35 0.082 0.528 0.101 0.213 0.023 0.392 0.087 0.593 0.152 0.101 0.032 0.203 0.033 0.305 0.055 0.089 0.020 0.178 0.050 0.264 0.077 0.119 0.037 0.226 0.072 0.333 0.136 0.126 0.076 0.204 0.182 0.313 0.278 0.079 0.071 0.171 0.128 0.253 0.195 0.117 0.095 0.264 0.156 0.408 0.195 0.169 0.046 0.326 0.108 0.499 0.141 0.149 0.029 0.305 0.044 0.448 0.094 0.048 0.018 0.166 0.036 0.177 0.088-0.112 0.035-0.262 0.066-0.38 0.071-0.086 0.003-0.133 0.043-0.218 0.063-0.104 0.026-0.213 0.031-0.321 0.031-0.079 0-0.161 0.005-0.241 0.001-0.097-0.006-0.19-0.031-0.288-0.034-0.151-0.004-0.301 0.013-0.451-0.005-0.162-0.019-0.324-0.031-0.486-0.049-0.121-0.014-0.239-0.011-0.361-0.030-0.197-0.032-0.391-0.042-0.59-0.041-0.263 0.001-0.528 0-0.79 0-0.14 0-0.282-0.009-0.422 0.008-0.094 0.011-0.179 0.025-0.273 0.024-0.281-0.002-0.562 0.004-0.843 0-0.084-0.001-0.156-0.028-0.239-0.033-0.122-0.008-0.237-0.009-0.358-0.037-0.106-0.025-0.212-0.058-0.319-0.080-0.054-0.011-0.083-0.009-0.123-0.046-0.078-0.075-0.062-0.158-0.045-0.252 0.013-0.068 0.002-0.136 0.014-0.205 0.011-0.065 0.035-0.13 0.047-0.195 0.031-0.166 0.062-0.34 0.073-0.508 0.009-0.122-0.018-0.226-0.033-0.344l0-0.001c0.324-0.079 0.659-0.127 0.99-0.131zM10.59 15.102c0 0.175-0.062 0.295-0.144 0.453-0.065 0.124-0.119 0.257-0.175 0.382-0.041 0.089-0.096 0.173-0.137 0.263-0.030 0.067-0.083 0.197-0.143 0.241-0.031 0.023-0.067 0.015-0.108 0.014-0.144-0.001-0.29 0.008-0.434 0.003-0.214-0.009-0.473-0.022-0.673-0.108-0.286-0.124-0.552-0.315-0.87-0.361-0.353-0.051-0.714-0.074-1.070-0.097-0.143-0.009-0.289-0.002-0.432-0.002-0.1 0-0.201 0-0.3 0.001-0.068 0.001-0.171 0.015-0.228-0.032 0.039-0.109 0.365-0.121 0.437-0.127 0.273-0.022 0.527-0.13 0.791-0.192 0.101-0.023 0.204-0.030 0.306-0.046 0.129-0.021 0.251-0.065 0.377-0.102 0.25-0.074 0.536-0.107 0.796-0.133 0.218-0.023 0.436-0.032 0.653-0.062 0.187-0.025 0.375-0.023 0.56-0.055 0.132-0.022 0.251-0.040 0.386-0.040 0.141 0.001 0.27 0.021 0.409 0l0-0.001zM21.017 15.109c0.033 0.002 0.084 0.024 0.123 0.034 0.129 0.031 0.268 0.029 0.398 0.053 0.132 0.025 0.257 0.076 0.39 0.094 0.315 0.041 0.635 0.061 0.948 0.129 0.348 0.075 0.71 0.090 1.039 0.242 0.347 0.16 0.707 0.252 1.078 0.348 0.184 0.047 0.365 0.107 0.549 0.153 0.063 0.015 0.141 0.019 0.192 0.067-0.026 0.028-0.067 0.029-0.105 0.038-0.076 0.018-0.152 0.039-0.228 0.056-0.095 0.022-0.191 0.033-0.281 0.068-0.112 0.044-0.206 0.102-0.324 0.129-0.107 0.024-0.204 0.031-0.313 0.031-0.094-0.001-0.193 0.010-0.285 0.001-0.122-0.011-0.231-0.034-0.357-0.033-0.331 0.003-0.661 0.001-0.992 0-0.135 0-0.251 0.012-0.382 0.029-0.044 0.005-0.115 0.015-0.159 0.005-0.118-0.028-0.169-0.239-0.205-0.332-0.087-0.228-0.262-0.357-0.456-0.49-0.067-0.046-0.139-0.073-0.207-0.114-0.036-0.022-0.063-0.059-0.104-0.073-0.002-0-0.003-0.001-0.004-0.001l-0-0.001c0.002 0 0.003 0.001 0.004 0.002 0.146 0.038 0.099-0.018 0.027-0.040-0.135-0.042-0.296-0.182-0.359-0.311-0.034-0.069-0.019-0.087 0.014-0.085zM16.172 16.738c0.063-0.001 0.176 0.197 0.192 0.257 0.020 0.074-0.004 0.164 0.011 0.24 0.004 0.022 0.045 0.041 0.053 0.074 0.014 0.063-0.021 0.134-0.006 0.196 0.011 0.049 0.046 0.072 0.066 0.118l-0-0c0.133 0.307 0.184 0.631 0.331 0.932 0.054 0.111 0.075 0.228 0.122 0.334 0.033 0.073 0.097 0.122 0.131 0.198 0.072 0.16 0.067 0.346 0.169 0.495 0.062 0.091 0.137 0.14 0.191 0.245 0.077 0.148 0.148 0.293 0.238 0.434 0.098 0.154 0.245 0.279 0.269 0.452 0.027 0.196-0.137 0.393-0.206 0.567-0.099 0.249-0.152 0.507-0.253 0.754-0.116 0.28-0.177 0.604-0.311 0.885-0.045 0.096-0.099 0.138-0.131 0.248-0.037 0.133-0.060 0.258-0.109 0.388-0.039 0.098-0.036 0.289-0.128 0.35 0.001-0.026 0.002-0.053 0.002-0.079-0.056 0.109-0.146 0.288-0.237 0.482-0.097 0.207-0.166 0.448-0.408 0.203-0.089-0.090-0.116-0.166-0.186-0.269-0.064-0.092-0.153-0.106-0.226-0.183-0.056-0.061-0.084-0.176-0.138-0.243-0.123-0.152-0.269-0.195-0.366-0.376-0.118-0.22-0.234-0.389-0.393-0.577-0.12-0.142-0.115-0.293-0.18-0.461-0.069-0.181-0.21-0.283-0.312-0.442-0.123-0.193-0.193-0.421-0.312-0.618-0.079-0.131-0.183-0.165-0.205-0.31-0.017-0.117 0.008-0.213 0.050-0.318 0.099-0.255 0.213-0.504 0.313-0.753 0.108-0.269 0.252-0.501 0.379-0.757 0.115-0.232 0.229-0.458 0.348-0.679 0.078-0.145 0.194-0.265 0.279-0.407 0.234-0.389 0.575-0.716 0.778-1.123 0.036-0.074 0.074-0.256 0.186-0.257z"></path>
</svg>
