<!-- Generated by IcoMoon.io -->
<svg version="1.1" xmlns="http://www.w3.org/2000/svg" width="32" height="32" viewBox="0 0 32 32">
<title>return_to_the_wages_of_sin</title>
<path d="M18.884 22.943c-0.015 0.095-0.008 0.221-0.038 0.37-0.023 0.106-0.047 0.177-0.052 0.242-0.008 0.1-0.012 0.215-0.031 0.337l-0 0.001c-0.023 0.125-0.068 0.214-0.084 0.278-0.027 0.103-0.042 0.222-0.074 0.352-0.031 0.118-0.077 0.209-0.116 0.291-0.041 0.086-0.075 0.18-0.113 0.28l0-0c-0.039 0.106-0.093 0.205-0.163 0.296-0.054 0.068-0.098 0.177-0.179 0.3v0c-0.12 0.173-0.284 0.375-0.54 0.464 0 0 0 0 0-0l-0 0c-0.1 0.035-0.22 0.078-0.353 0.099l-0.001 0c-0.035 0.004-0.067 0.004-0.095 0.004-0.044 0-0.081-0.003-0.109-0.003h-0.019c-0.066 0-0.126 0.004-0.197 0.012-0.077 0.008-0.153 0.012-0.227 0.012-0.115 0-0.224-0.004-0.326-0.004l-0.015 0h-0.008c-0.112-0.001-0.204-0.015-0.28-0.019l-0.035-0.001c-0.031 0-0.066 0.001-0.105 0.001-0.063 0-0.139-0.003-0.222-0.027-0.058-0.015-0.107-0.023-0.175-0.023l-0.047 0c-0.136-0.001-0.231-0.031-0.303-0.035l-0.027-0.001c-0.035-0-0.075 0.003-0.125 0.003s-0.107-0.003-0.17-0.019h-0c-0.107-0.027-0.182-0.044-0.278-0.048-0.035-0.001-0.083-0.001-0.14-0.012-0.056-0.008-0.125-0.027-0.189-0.073l-0.001-0c-0.090-0.065-0.146-0.132-0.192-0.17-0.015-0.015-0.042-0.031-0.080-0.052-0.038-0.023-0.088-0.055-0.137-0.106-0.087-0.094-0.145-0.201-0.191-0.293v-0c-0.058-0.118-0.126-0.239-0.18-0.388-0.056-0.156-0.114-0.318-0.141-0.505-0.004-0.058-0.044-0.146-0.049-0.279-0.001-0.027-0.001-0.057-0.001-0.085 0-0.087 0.001-0.171 0.001-0.253 0-0.066-0.004-0.142-0.004-0.224 0-0.050 0.001-0.102 0.008-0.157v0c0.019-0.143 0.042-0.267 0.046-0.381 0.004-0.118 0.015-0.233 0.035-0.348v-0c0.019-0.129 0.052-0.241 0.064-0.339 0.004-0.031 0.004-0.063 0.004-0.098 0-0.081-0.008-0.172-0.019-0.271-0.003-0.027-0.003-0.055-0.003-0.082 0-0.115 0.019-0.223 0.047-0.328v0c0.031-0.115 0.070-0.209 0.091-0.293 0.031-0.123 0.060-0.251 0.096-0.383v0c0.027-0.098 0.045-0.21 0.088-0.338v0c0.041-0.118 0.063-0.273 0.13-0.438v0c0.050-0.12 0.116-0.216 0.17-0.302v0c0.048-0.076 0.096-0.156 0.168-0.239 0.121-0.14 0.221-0.32 0.297-0.501 0.056-0.133 0.11-0.272 0.172-0.411 0.027-0.064 0.058-0.121 0.083-0.176 0.012-0.027 0.023-0.068 0.031-0.12s0.015-0.115 0.035-0.186c0.015-0.058 0.019-0.139 0.043-0.239v0c0.027-0.111 0.052-0.185 0.060-0.258v0c0.012-0.107 0.035-0.192 0.051-0.272 0.012-0.053 0.008-0.138 0.031-0.251 0.027-0.131 0.069-0.284 0.152-0.421 0.052-0.085 0.126-0.146 0.203-0.189s0.161-0.066 0.244-0.075v0c0.038-0.004 0.077-0.008 0.118-0.008 0.079 0 0.165 0.012 0.25 0.043v0c0.055 0.019 0.104 0.053 0.14 0.090 0.027 0.027 0.045 0.052 0.061 0.078 0.015 0.015 0.023 0.035 0.035 0.051 0.035 0.058 0.054 0.113 0.068 0.152 0.023 0.063 0.031 0.128 0.031 0.191-0 0.13-0.039 0.253-0.1 0.358l-0 0c0 0 0 0 0-0-0.061 0.102-0.128 0.158-0.165 0.203-0.008 0.012-0.019 0.031-0.031 0.059-0.012 0.031-0.027 0.070-0.049 0.119v0c-0.035 0.074-0.078 0.133-0.111 0.184-0.035 0.051-0.059 0.094-0.071 0.128-0.008 0.023-0.015 0.079-0.056 0.158v0c-0.015 0.031-0.035 0.076-0.063 0.127l0-0c-0.045 0.085-0.091 0.173-0.145 0.264-0.035 0.055-0.070 0.136-0.091 0.2-0.048 0.138-0.105 0.241-0.128 0.332l-0 0c-0.019 0.074-0.051 0.15-0.1 0.216-0.015 0.023-0.027 0.038-0.031 0.046l-0.008 0.015c-0.004 0.015-0.008 0.039-0.019 0.073-0.008 0.035-0.027 0.076-0.055 0.117l-0 0c-0.015 0.019-0.023 0.038-0.031 0.063-0.008 0.027-0.015 0.060-0.023 0.107l-0 0c-0.012 0.056-0.031 0.101-0.051 0.137s-0.035 0.060-0.047 0.081c-0.023 0.038-0.041 0.111-0.086 0.208v0c-0.047 0.095-0.090 0.16-0.106 0.211l-0 0.001c-0.004 0.015-0.012 0.043-0.023 0.085v0c-0.031 0.11-0.078 0.175-0.091 0.218-0.023 0.060-0.039 0.131-0.055 0.211v0c-0.023 0.112-0.052 0.208-0.067 0.292-0.019 0.111-0.038 0.219-0.047 0.323-0.012 0.121-0.031 0.207-0.031 0.283v0c0 0.112-0.019 0.214-0.044 0.311v-0c-0.019 0.079-0.019 0.165-0.023 0.284v-0c-0.004 0.111-0.027 0.188-0.035 0.244v0l-0.001 0.027c-0 0.023 0.001 0.051 0.003 0.088v0.016c0 0.095-0.008 0.183-0.015 0.264l-0 0c-0.008 0.107-0.019 0.206-0.023 0.297l-0 0.019c-0.001 0.081 0.019 0.174 0.031 0.293v0c0.008 0.073 0.012 0.104 0.027 0.155 0.027 0.077 0.066 0.149 0.115 0.233 0.094 0.163 0.176 0.318 0.276 0.44l0 0c0.057 0.071 0.14 0.149 0.213 0.265l0 0c0.054 0.084 0.080 0.11 0.158 0.161v0c0.082 0.052 0.128 0.1 0.16 0.119l0.001 0c0.003 0.003 0.008 0.004 0.027 0.008s0.048 0.008 0.088 0.015l-0.001-0c0.079 0.012 0.156 0.019 0.236 0.019h0c0.031 0 0.055 0.003 0.072 0.003l0.023-0.001 0.001-0.001 0.015-0.008c0.015-0.008 0.043-0.023 0.083-0.038h0c0.126-0.043 0.226-0.040 0.278-0.056l-0.001 0c0.088-0.023 0.188-0.046 0.301-0.048 0.107-0.001 0.191 0.001 0.265-0.012h0.001c0.113-0.019 0.221-0.043 0.327-0.076 0.211-0.066 0.398-0.112 0.538-0.206 0.156-0.105 0.258-0.209 0.324-0.36 0.063-0.149 0.103-0.293 0.113-0.445 0.001-0.031 0.003-0.061 0.003-0.095 0-0.035-0.001-0.073-0.001-0.114 0-0.057 0.001-0.118 0.008-0.183 0.008-0.064 0.008-0.131 0.008-0.2 0-0.035-0.001-0.070-0.001-0.105v-0.001c-0.001-0.078-0.027-0.179-0.035-0.311v-0.001c-0.001-0.064-0.019-0.138-0.038-0.239v-0c-0.012-0.070-0.015-0.135-0.015-0.196 0-0.054 0.001-0.103 0.001-0.149v0c0-0.044 0-0.088 0-0.133 0-0.089-0-0.177-0-0.266 0-0.047 0.003-0.086 0.003-0.118 0-0.023-0.001-0.044-0.004-0.057-0.031-0.16-0.079-0.328-0.123-0.502-0.027-0.107-0.049-0.205-0.081-0.295v-0c-0.049-0.141-0.117-0.286-0.178-0.448-0.063-0.17-0.138-0.333-0.228-0.487l-0-0c-0.052-0.090-0.096-0.173-0.143-0.241v0c-0.066-0.095-0.14-0.196-0.201-0.319-0.077-0.157-0.201-0.314-0.29-0.527v0c-0.031-0.080-0.068-0.163-0.099-0.254-0.004-0.019-0.023-0.054-0.042-0.098s-0.042-0.1-0.049-0.173l-0-0.001c-0.001-0.031-0.003-0.048-0.003-0.057l-0.003-0.015-0-0c-0.023-0.062-0.063-0.135-0.099-0.226-0.031-0.079-0.035-0.152-0.035-0.216 0-0.082 0.008-0.154 0.008-0.199v-0.010c0-0.154 0.035-0.322 0.143-0.467 0.068-0.086 0.161-0.138 0.28-0.141l0.043 0.003c0.067 0.008 0.116 0.042 0.148 0.072 0.031 0.031 0.053 0.060 0.070 0.087 0.035 0.054 0.053 0.104 0.063 0.122l-0.001-0.001c0.023 0.043 0.054 0.104 0.066 0.186l-0-0.001c0.004 0.039 0.023 0.086 0.038 0.157v-0c0.031 0.132 0.053 0.221 0.107 0.314 0.063 0.11 0.124 0.214 0.191 0.318 0.145 0.225 0.247 0.458 0.348 0.683 0.035 0.081 0.096 0.18 0.136 0.307v-0c0.027 0.085 0.043 0.115 0.096 0.183l0 0c0.063 0.078 0.098 0.154 0.131 0.218 0.027 0.057 0.043 0.104 0.057 0.139l0 0.001c0.027 0.066 0.058 0.135 0.093 0.211l-0-0.001c0.118 0.259 0.276 0.517 0.399 0.81 0.117 0.281 0.226 0.562 0.284 0.881 0.023 0.129 0.056 0.267 0.073 0.418 0.012 0.107 0.012 0.207 0.012 0.301v0.019c0 0.027 0 0.049 0 0.073v0.008c-0 0.112-0.019 0.199-0.031 0.276zM14.092 8.83c0.065-0.138 0.171-0.235 0.259-0.309v0c0.041-0.035 0.083-0.053 0.111-0.064 0.019-0.008 0.027-0.012 0.035-0.015l0.031-0.023 0.019-0.015c0.027-0.015 0.054-0.027 0.083-0.038 0.031-0.008 0.059-0.019 0.112-0.023 0.019 0 0.045 0.001 0.080 0.015 0.035 0.012 0.079 0.044 0.104 0.092 0.015 0.031 0.023 0.065 0.023 0.091-0 0.015-0.004 0.027-0.004 0.041 0.012 0.035 0.015 0.074 0.015 0.106v0.005c-0 0.042-0.001 0.084-0.001 0.127 0 0.063 0 0.127 0 0.191v-0.001 0.012c0 0.073-0.003 0.147-0.015 0.227l-0.001 0.015c-0.001 0.019 0.008 0.055 0.015 0.12v0.001c0.003 0.023 0.001 0.042 0.003 0.054l0.001 0.012 0.003 0.008c0.004 0.015 0.015 0.045 0.015 0.089v0.008l-0 0.001c0 0.068-0.035 0.137-0.071 0.171-0.035 0.035-0.059 0.051-0.071 0.060-0.012 0.008-0.035 0.027-0.069 0.050-0.035 0.019-0.084 0.048-0.161 0.050-0.038 0-0.079-0.008-0.116-0.027v0c-0.062-0.035-0.091-0.070-0.118-0.103-0.027-0.035-0.045-0.064-0.059-0.090l-0-0.001c-0.038-0.076-0.052-0.123-0.063-0.136-0.035-0.050-0.082-0.113-0.113-0.208v0c-0.012-0.035-0.031-0.077-0.047-0.13s-0.035-0.117-0.035-0.191c-0-0.055 0.008-0.116 0.038-0.174zM14.331 7.234v-0.001c0.015-0.092 0.039-0.162 0.046-0.214 0.003-0.015 0.003-0.035 0.004-0.068 0.003-0.031 0.008-0.077 0.023-0.125l-0 0c0.003-0.003 0.004-0.031 0.023-0.082l0-0.001c0.015-0.044 0.038-0.077 0.056-0.1 0.019-0.023 0.031-0.038 0.039-0.046l0.004-0.008 0-0c0.003-0.004 0.012-0.031 0.035-0.070 0.044-0.077 0.071-0.113 0.072-0.125 0.008-0.027 0.015-0.060 0.015-0.083v0c0.004-0.111 0.019-0.198 0.015-0.276 0-0.035-0-0.070-0-0.105 0-0.027 0-0.053 0-0.080v-0.002c0.003-0.035-0.015-0.096-0.019-0.198l0-0.008v0c0.003-0.141 0.015-0.281 0.035-0.419 0.015-0.103 0.019-0.223 0.059-0.359v-0c0.001-0.004 0.008-0.031 0.015-0.062s0.019-0.067 0.047-0.11c0.019-0.027 0.043-0.064 0.094-0.094 0.031-0.015 0.068-0.031 0.108-0.031h0.004c0.035-0 0.068 0.008 0.089 0.019 0.004 0.003 0.008 0.004 0.015 0.008l0.008 0.001 0.042 0.008c0.068 0.023 0.104 0.063 0.13 0.091 0.027 0.031 0.042 0.055 0.052 0.068l0 0c0.008 0.012 0.012 0.019 0.015 0.027l0.027 0.015c0.031 0.023 0.050 0.041 0.068 0.062 0.019 0.023 0.035 0.042 0.049 0.070 0 0 0-0-0-0l0 0c0.046 0.090 0.066 0.179 0.071 0.269 0.003 0.093 0.004 0.166 0.019 0.23v0c0.004 0.015 0.012 0.040 0.023 0.075s0.023 0.077 0.027 0.133l0 0 0.001 0.045c0 0.043-0.003 0.078-0.003 0.105v0.012l0 0c-0.001 0.027 0.015 0.084 0.019 0.18v0.004c0 0.019-0 0.042-0 0.063 0 0.042 0 0.085 0 0.128-0 0.027 0.004 0.075 0.004 0.133 0 0.035-0.001 0.077-0.015 0.123-0.015 0.058-0.031 0.093-0.031 0.11-0.004 0.012-0.003 0.056-0.027 0.128 0 0 0 0 0-0l-0 0c-0.043 0.112-0.123 0.182-0.18 0.226-0.031 0.023-0.058 0.043-0.078 0.060-0.001 0.004-0.003 0.008-0.004 0.012l-0.012 0.023-0.023 0.031-0.207 0.226v-0c-0.019 0.023-0.040 0.040-0.051 0.050l-0.012 0.012c-0.004 0.019-0.008 0.042-0.012 0.071v0l-0 0.015c-0.001 0.044 0.015 0.11 0.019 0.206v0.001l0 0.008c-0.001 0.027-0.003 0.043-0.003 0.055 0.001 0.003 0.001 0.008 0.003 0.008 0.004 0.012 0.008 0.023 0.012 0.035 0.003 0.012 0.003 0.023 0.003 0.038 0 0.008 0.003 0.015 0.001 0.019s-0.003 0.008-0.004 0.012c-0.003 0.012-0.008 0.023-0.012 0.035s-0.008 0.023-0.015 0.035c-0.003 0.004-0.003 0.008-0.004 0.012-0.004 0.004-0.012 0.008-0.015 0.015-0.008 0.008-0.019 0.019-0.027 0.023-0.008 0.008-0.019 0.012-0.031 0.015s-0.023 0.008-0.035 0.012c-0.012 0.003-0.023 0.003-0.038 0.003-0.008 0-0.012 0.003-0.019 0.001l-0.003 0.001-0.015-0c-0.027 0-0.072 0.001-0.121 0.001h-0.018l-0.012 0.001-0.041 0.001c-0.019-0-0.041-0.001-0.073-0.008s-0.073-0.027-0.109-0.063l-0.001-0.001c-0.035-0.038-0.043-0.068-0.051-0.088-0.004-0.015-0.008-0.023-0.008-0.031l-0.012-0.015-0.008-0.015c-0.052-0.101-0.055-0.192-0.058-0.264-0-0.027-0.001-0.057-0.001-0.092s0.001-0.077 0.008-0.121zM15.773 7.010c0.048 0.001 0.092 0.003 0.144 0.015 0.019 0.004 0.038 0.008 0.069 0.027-0 0-0-0-0-0l0.001 0.001c0-0-0-0-0-0 0.047 0.027 0.077 0.068 0.094 0.097 0.019 0.031 0.027 0.053 0.031 0.065l0 0c0.027 0.068 0.061 0.151 0.075 0.252v0c0.015 0.13 0.019 0.256 0.019 0.379v-0c0 0.045 0.001 0.093 0.001 0.145-0 0.070-0.003 0.146-0.015 0.227v0c-0.003 0.015-0.004 0.038-0.004 0.071-0.001 0.035-0.001 0.079-0.015 0.133-0.001 0.004-0.003 0.019-0.003 0.048-0 0.027 0.001 0.069-0.008 0.12-0.008 0.041-0.015 0.082-0.027 0.123-0.008 0.041-0.015 0.077-0.027 0.103-0.004 0.012-0.008 0.023-0.012 0.031-0.001 0.004-0.003 0.008-0.004 0.015-0.001 0.003-0.003 0.008-0.004 0.012s-0.003 0.008-0.004 0.012v-0c-0.023 0.064-0.055 0.116-0.085 0.157s-0.060 0.073-0.083 0.101c-0.031 0.038-0.070 0.085-0.129 0.128-0.057 0.043-0.142 0.083-0.24 0.083h-0.004c-0.066-0-0.13-0.023-0.178-0.055-0.048-0.031-0.082-0.071-0.107-0.108-0.050-0.075-0.073-0.148-0.090-0.202-0.035-0.115-0.042-0.229-0.043-0.336 0-0.031 0.001-0.064 0.003-0.095v0c0.004-0.103 0.027-0.185 0.031-0.247l0-0.001c0.004-0.047 0.008-0.106 0.023-0.177l-0 0.001c0.031-0.138 0.048-0.282 0.068-0.433v0.001c0.008-0.055 0.008-0.135 0.050-0.231l0-0c0.035-0.083 0.084-0.14 0.119-0.186 0.001 0 0.015-0.023 0.031-0.054 0.019-0.031 0.038-0.069 0.073-0.11 0.023-0.027 0.054-0.058 0.104-0.083v0c0.042-0.019 0.063-0.019 0.086-0.023 0.023-0.003 0.041-0.003 0.062-0.003zM16.391 8.748c0.093-0.012 0.181 0.048 0.203 0.138 0.004 0.015 0.004 0.027 0.004 0.043l0 0.001c0 0.004 0.001 0.008 0.001 0.015-0 0.004-0.001 0.004-0.001 0.008 0.001 0.001 0.003 0.003 0.004 0.004 0.027 0.031 0.044 0.057 0.058 0.077l0.015 0.019c0.004 0.004 0.015 0.015 0.035 0.035s0.044 0.046 0.067 0.088c0-0-0-0-0-0l0 0.001c-0 0-0-0-0-0 0.035 0.063 0.038 0.122 0.038 0.159-0 0.031-0.001 0.052-0.001 0.061v0.001c-0.001 0.027 0.019 0.093 0.019 0.191l-0 0.008v0.001c-0.001 0.059-0.015 0.108-0.027 0.151-0.015 0.043-0.031 0.081-0.042 0.11-0.031 0.070-0.048 0.148-0.074 0.247v0c-0.031 0.113-0.086 0.203-0.143 0.276s-0.115 0.129-0.164 0.186c-0.046 0.051-0.097 0.13-0.188 0.206v0c-0.070 0.056-0.125 0.084-0.15 0.107-0.019 0.019-0.045 0.045-0.076 0.080s-0.069 0.078-0.121 0.119l-0 0c-0.063 0.050-0.12 0.088-0.164 0.126-0.071 0.061-0.151 0.121-0.246 0.168s-0.204 0.078-0.324 0.078h-0.003c-0.057 0-0.112-0.012-0.16-0.031s-0.089-0.043-0.126-0.068l0.001 0.001c-0.027-0.019-0.072-0.041-0.128-0.080l-0-0c-0.093-0.068-0.132-0.157-0.155-0.233-0.023-0.077-0.027-0.148-0.031-0.205v0l-0.001-0.023c-0-0.059 0.012-0.118 0.031-0.167s0.045-0.090 0.070-0.126l0-0c0 0 0 0-0 0 0.067-0.099 0.144-0.154 0.2-0.202l-0 0c0.062-0.051 0.133-0.13 0.259-0.19h-0c0.091-0.042 0.191-0.102 0.292-0.161 0.125-0.073 0.209-0.153 0.301-0.276h-0c0.085-0.114 0.18-0.21 0.264-0.302s0.159-0.179 0.212-0.269v-0c0.015-0.027 0.038-0.065 0.055-0.101 0.019-0.035 0.031-0.071 0.035-0.084l-0-0.008c-0.001-0.093 0.069-0.172 0.162-0.184zM14.736 12.713v-0c-0.019-0.039-0.023-0.075-0.023-0.103 0.001-0.059 0.015-0.091 0.015-0.108l0.001-0.004 0-0.001c0-0.008-0.001-0.019-0.001-0.039 0-0.027 0.001-0.064 0.015-0.11 0.031-0.092 0.086-0.152 0.136-0.204s0.101-0.092 0.135-0.121l0-0c0.031-0.023 0.063-0.063 0.108-0.11s0.101-0.103 0.183-0.145h0c0.12-0.062 0.23-0.139 0.346-0.228 0.15-0.115 0.296-0.219 0.419-0.334 0.158-0.148 0.297-0.297 0.402-0.467v0c0.015-0.023 0.027-0.035 0.035-0.048l0.008-0.012c0-0.001 0-0.003 0.001-0.004 0.001-0.004 0.001-0.012 0.003-0.015 0.001-0.003 0.001-0.008 0.001-0.008 0.003-0.008 0.008-0.015 0.012-0.023 0.004-0.012 0.012-0.023 0.019-0.035 0.008-0.008 0.015-0.015 0.027-0.023 0.008-0.008 0.015-0.015 0.027-0.023s0.023-0.008 0.035-0.015c0.008-0.003 0.015-0.008 0.023-0.008 0.003-0 0.004 0 0.008 0 0.012-0.001 0.023 0 0.038 0.001 0.012 0.001 0.023 0.001 0.038 0.004 0.003 0.001 0.004 0 0.008 0.001 0.008 0.003 0.015 0.008 0.023 0.012 0.012 0.004 0.023 0.012 0.035 0.019 0.008 0.008 0.015 0.015 0.023 0.027 0.008 0.008 0.015 0.015 0.023 0.027 0.003 0.004 0.004 0.008 0.008 0.012 0.012 0.003 0.019 0.004 0.035 0.012 0.040 0.015 0.069 0.042 0.089 0.065s0.035 0.046 0.043 0.066c0.019 0.041 0.027 0.078 0.035 0.112 0.015 0.068 0.015 0.129 0.015 0.16l0.001 0.042c0 0.126-0.019 0.256-0.060 0.382v0c-0.058 0.166-0.158 0.274-0.224 0.37l0-0c-0.042 0.058-0.081 0.1-0.106 0.133l-0 0c-0.040 0.051-0.077 0.124-0.135 0.208v0c-0.111 0.161-0.246 0.267-0.341 0.37-0.031 0.031-0.063 0.070-0.108 0.11s-0.103 0.079-0.174 0.104h-0c-0.086 0.031-0.16 0.040-0.214 0.053l0-0c-0.146 0.035-0.296 0.066-0.461 0.075v0c-0.019 0.001-0.083 0.008-0.151 0.008-0.039 0-0.082-0.001-0.128-0.008-0.046-0.008-0.095-0.019-0.151-0.055-0.035-0.023-0.075-0.061-0.098-0.112v0zM14.86 14.239c0-0.18 0.035-0.349 0.063-0.502l0-0.001c0.004-0.023 0.008-0.053 0.023-0.091s0.035-0.083 0.073-0.122l0-0c0.072-0.074 0.141-0.111 0.175-0.14 0.114-0.091 0.231-0.146 0.329-0.198l-0 0c0.14-0.073 0.248-0.108 0.321-0.166l-0 0c0.060-0.047 0.14-0.095 0.237-0.116h0.001c0.038-0.008 0.063-0.015 0.077-0.019l0.031-0.015c0.052-0.039 0.12-0.117 0.19-0.19 0.057-0.058 0.111-0.121 0.17-0.19 0.023-0.023 0.053-0.068 0.103-0.115 0.004-0.008 0.008-0.019 0.015-0.027s0.015-0.019 0.023-0.027c0.008-0.008 0.015-0.015 0.027-0.023s0.023-0.012 0.035-0.015c0.008-0.003 0.015-0.008 0.023-0.008 0.003-0.001 0.008 0 0.008-0 0.012-0.003 0.023-0.001 0.038-0.001 0.012 0 0.023 0 0.038 0.003 0.003 0.001 0.008-0 0.008 0.001 0.008 0.003 0.015 0.008 0.019 0.012 0.012 0.004 0.023 0.008 0.035 0.019 0.008 0.008 0.019 0.015 0.027 0.023s0.015 0.015 0.023 0.027c0.008 0.012 0.012 0.023 0.015 0.035 0.003 0.008 0.008 0.015 0.008 0.023 0.001 0.004 0.001 0.008 0.001 0.015 0.001 0.004 0.001 0.008 0.001 0.012 0.001 0.008 0.003 0.015 0.003 0.027 0 0.015-0.004 0.031-0.008 0.048 0.008 0.015 0.031 0.052 0.057 0.104 0.055 0.119 0.083 0.257 0.084 0.389l-0.001 0.035c-0.003 0.050-0.008 0.11-0.019 0.175s-0.031 0.134-0.072 0.203l-0 0c-0.051 0.083-0.113 0.138-0.163 0.183s-0.090 0.080-0.113 0.11c-0.019 0.023-0.038 0.065-0.064 0.126-0.027 0.060-0.068 0.144-0.149 0.216-0.142 0.126-0.296 0.202-0.421 0.28-0.048 0.027-0.105 0.085-0.195 0.146-0.085 0.057-0.178 0.1-0.276 0.128l0-0c-0.078 0.023-0.169 0.058-0.272 0.083v0c-0.031 0.008-0.061 0.012-0.091 0.012-0.041 0-0.076-0.008-0.107-0.015-0.088-0.019-0.178-0.063-0.241-0.142s-0.085-0.173-0.088-0.26l-0.001-0.051zM16.038 16.11c-0.163 0.073-0.342 0.126-0.527 0.143-0.045 0.004-0.088 0.004-0.13 0.004-0.061 0-0.118-0.003-0.17-0.001h-0.023l-0.001 0-0.012 0.001-0.040 0.001c-0.019-0-0.041-0.001-0.072-0.008s-0.079-0.023-0.122-0.078v0c-0.041-0.056-0.045-0.107-0.046-0.141 0.001-0.070 0.019-0.11 0.031-0.15 0.015-0.038 0.027-0.070 0.031-0.078l0-0c0.027-0.082 0.050-0.176 0.084-0.278v-0c0.045-0.131 0.128-0.233 0.213-0.313v0c0.070-0.065 0.138-0.101 0.184-0.133l0-0c0.079-0.053 0.16-0.113 0.25-0.172l0-0c0.224-0.145 0.449-0.275 0.659-0.414 0.060-0.039 0.128-0.095 0.205-0.152s0.166-0.116 0.274-0.155l0.023-0.008 0.045-0.008c0.004-0.001 0.012 0 0.015-0s0.012-0.004 0.015-0.004l0.012-0c0.008 0 0.015 0.003 0.023 0.003 0.004 0.001 0.008 0.001 0.012 0.001 0.039 0.004 0.079 0.015 0.112 0.040 0.043 0.031 0.070 0.071 0.085 0.105 0.031 0.069 0.031 0.121 0.031 0.166-0 0.049-0.004 0.092-0.004 0.113v0.001c-0.012 0.234-0.094 0.449-0.215 0.634l0-0c-0.035 0.053-0.067 0.099-0.091 0.14-0.023 0.038-0.048 0.106-0.106 0.183-0.057 0.073-0.122 0.121-0.178 0.158s-0.105 0.066-0.138 0.093c-0.116 0.088-0.239 0.22-0.432 0.308v-0zM17.702 16.393v0c-0.008 0.078-0.027 0.139-0.035 0.181v0c-0.023 0.114-0.047 0.229-0.068 0.346v0c-0.012 0.055-0.027 0.11-0.065 0.163-0.035 0.053-0.098 0.096-0.158 0.114-0.040 0.012-0.077 0.015-0.113 0.015-0.019 0-0.040-0.001-0.059-0.003 0 0 0 0 0 0l-0-0c-0.091-0.008-0.158-0.045-0.207-0.072s-0.083-0.047-0.101-0.053l-0.001-0c-0.135-0.049-0.222-0.125-0.297-0.177l-0.001-0c-0.019-0.015-0.046-0.027-0.089-0.043s-0.099-0.035-0.162-0.073l-0.001-0c-0.043-0.027-0.081-0.058-0.115-0.101-0.035-0.043-0.062-0.096-0.072-0.165l-0.004-0.053c-0-0.049 0.012-0.1 0.031-0.144 0.023-0.043 0.050-0.077 0.076-0.1 0.053-0.047 0.092-0.067 0.113-0.086l-0 0c0.056-0.044 0.096-0.061 0.11-0.071l0.001-0.001c0.001 0.001 0.027-0.027 0.070-0.060 0.004-0.004 0.019-0.019 0.038-0.038s0.046-0.049 0.086-0.078c-0 0-0 0-0 0l0-0c0.051-0.035 0.093-0.060 0.122-0.081l-0.001 0.001c0.058-0.041 0.098-0.053 0.107-0.059l0.003-0.003c0.008-0.035 0.019-0.068 0.045-0.096l0.003-0.004 0.015-0.019c0.015-0.015 0.038-0.040 0.075-0.080 0.003-0.003 0.008-0.004 0.008-0.008 0.008-0.008 0.019-0.015 0.031-0.023s0.019-0.012 0.035-0.015c0.004-0.001 0.008-0.004 0.012-0.004 0.008-0.001 0.015-0 0.023-0.001 0.015-0.001 0.027-0.003 0.038-0.003s0.023 0.003 0.035 0.004c0.012 0.003 0.023 0.004 0.035 0.012 0.012 0.004 0.023 0.012 0.031 0.019 0.004 0.004 0.015 0.008 0.019 0.012 0.003 0.003 0.004 0.008 0.008 0.008 0.008 0.008 0.015 0.019 0.023 0.031 0.004 0.008 0.012 0.015 0.015 0.023 0.035 0.019 0.065 0.040 0.085 0.062 0.031 0.031 0.049 0.063 0.066 0.093 0.031 0.057 0.052 0.111 0.062 0.132l0 0.001c0.031 0.072 0.040 0.118 0.048 0.131l0 0c0.008 0.015 0.019 0.035 0.027 0.059 0.012 0.023 0.023 0.057 0.031 0.093v0c0.008 0.041 0.023 0.098 0.023 0.171l-0.001 0.039v-0zM16.326 7.44v-0c0.001-0.023-0.001-0.049 0.004-0.089 0.008-0.039 0.027-0.095 0.064-0.136 0.023-0.027 0.052-0.049 0.080-0.065l0.001-0.001c0.052-0.027 0.126-0.083 0.248-0.103h0c0.102-0.015 0.174-0.023 0.243-0.049 0.080-0.031 0.147-0.031 0.191-0.035 0.046-0.004 0.067-0.008 0.077-0.015 0.001-0 0.012-0.008 0.031-0.019 0.023-0.015 0.055-0.035 0.104-0.052l0.001-0c0.067-0.019 0.121-0.035 0.163-0.049 0.019-0.008 0.047-0.019 0.083-0.040 0.038-0.019 0.084-0.042 0.146-0.056v0c0.059-0.015 0.114-0.015 0.164-0.015 0.035 0 0.068 0.001 0.098 0.003h0c0.103 0.008 0.176 0.031 0.224 0.031h0l0.023 0.001c0.023 0 0.056-0.003 0.097-0.003l0.045 0.001c0.023 0.001 0.048 0.004 0.080 0.012 0.031 0.008 0.072 0.023 0.117 0.059 0.031 0.027 0.060 0.066 0.072 0.114l0.008 0.040 0.003 0.051c0.012 0.079 0.015 0.153 0.015 0.228-0 0.087-0.012 0.168-0.023 0.243v-0c-0.003 0.019-0.008 0.050-0.019 0.091s-0.031 0.096-0.084 0.148l-0 0c-0.057 0.052-0.104 0.073-0.118 0.086l-0.001 0.001c-0.038 0.027-0.095 0.055-0.145 0.066-0.049 0.012-0.098 0.019-0.149 0.019-0.079 0-0.156-0.015-0.228-0.045l-0.001-0c-0.023-0.008-0.068-0.019-0.133-0.047l-0-0c-0.064-0.031-0.091-0.047-0.098-0.047-0.040-0.008-0.096-0.015-0.151-0.015-0.019 0-0.038 0.001-0.055 0.003-0.012 0.008-0.027 0.019-0.060 0.035h-0c-0.088 0.040-0.157 0.046-0.188 0.058-0.1 0.031-0.155 0.056-0.221 0.107-0.012 0.008-0.031 0.027-0.058 0.056-0.027 0.027-0.067 0.065-0.128 0.094-0.041 0.019-0.091 0.031-0.143 0.031h-0.003c-0.023-0-0.055-0-0.096-0.012s-0.093-0.038-0.126-0.079c-0.023-0.027-0.038-0.056-0.049-0.083 0 0 0 0 0 0l-0-0c-0.027-0.073-0.027-0.133-0.027-0.178 0-0.019 0-0.035 0-0.047-0.008-0.012-0.015-0.023-0.019-0.035-0.015-0.035-0.027-0.067-0.027-0.067l0.001-0c-0.015-0.031-0.027-0.064-0.031-0.095s-0.004-0.060-0.004-0.082v-0.019zM30.202 17.419c-0.035-0.1-0.074-0.203-0.078-0.306-0.004-0.088 0.069-0.183 0.055-0.266-0.043-0.248-0.111-0.492-0.17-0.738-0.015 0.003-0.035 0.008-0.050 0.008-0.004 0.049-0.008 0.098-0.015 0.146-0.052-0.081-0.092-0.166-0.088-0.249 0.012-0.231 0.043-0.461 0.064-0.692 0.035-0.369 0.086-0.732-0.045-1.103-0.146-0.414-0.264-0.84-0.286-1.285-0.008-0.165-0.035-0.33-0.058-0.494-0.019-0.129-0.041-0.257-0.070-0.384-0.019-0.077-0.052-0.15-0.075-0.227-0.035-0.117-0.071-0.234-0.097-0.352-0.008-0.040 0.031-0.1 0.012-0.129-0.164-0.266-0.197-0.572-0.284-0.862-0.012-0.042-0.027-0.090-0.053-0.122-0.123-0.144-0.254-0.281-0.377-0.424-0.023-0.027-0.027-0.073-0.050-0.146-0.199-0.226-0.442-0.469-0.644-0.741-0.28-0.376-0.528-0.776-0.793-1.164-0.045-0.065-0.105-0.121-0.157-0.181-0.119-0.137-0.238-0.274-0.362-0.416 0.035-0.015 0.053-0.023 0.070-0.031-0.263-0.357-0.526-0.714-0.792-1.076-0.015 0.045-0.027 0.081-0.039 0.116-0.012 0.003-0.023 0.004-0.038 0.008-0.060-0.144-0.133-0.284-0.177-0.432-0.038-0.126-0.098-0.205-0.221-0.254-0.081-0.031-0.153-0.094-0.223-0.15-0.064-0.051-0.113-0.123-0.179-0.17-0.187-0.132-0.371-0.272-0.572-0.378-0.286-0.151-0.506-0.371-0.723-0.599-0.119-0.124-0.234-0.252-0.357-0.373-0.041-0.040-0.096-0.079-0.151-0.091-0.38-0.085-0.763-0.161-1.143-0.244-0.063-0.015-0.129-0.035-0.18-0.072-0.19-0.135-0.369-0.285-0.563-0.413-0.227-0.151-0.464-0.288-0.699-0.426-0.118-0.070-0.235-0.159-0.364-0.188-0.371-0.083-0.747-0.141-1.122-0.206-0.039-0.008-0.081 0.001-0.121 0.008-0.132 0.015-0.271 0.067-0.395 0.043-0.377-0.072-0.722 0.049-1.070 0.146-0.18 0.051-0.326 0.004-0.474-0.072-0.019-0.008-0.015-0.067-0.023-0.143-0.29-0.061-0.612-0.147-0.94-0.19-0.195-0.027-0.399 0.019-0.6 0.027-0.085 0.004-0.175 0.012-0.256-0.008-0.15-0.035-0.295-0.121-0.443-0.123-0.259-0.001-0.518 0.056-0.779 0.067-0.117 0.004-0.137 0.118-0.218 0.139-0.153 0.038-0.31 0.056-0.466 0.082-0.001-0.004-0.001-0.012-0.001-0.015 0.039-0.019 0.078-0.039 0.145-0.072-0.299-0.058-0.361-0.039-0.53 0.145-0.027 0.031-0.055 0.069-0.090 0.080-0.189 0.058-0.314 0.213-0.484 0.299-0.058 0.031-0.112 0.068-0.166 0.106-0.116 0.081-0.219 0.192-0.348 0.239-0.402 0.148-0.813 0.271-1.221 0.405-0.083 0.027-0.163 0.058-0.245 0.088 0.004 0.015 0.008 0.031 0.012 0.043l0.226-0.043c0.004 0.015 0.012 0.027 0.019 0.041-0.075 0.039-0.146 0.095-0.226 0.114-0.117 0.027-0.241 0.196-0.362 0.001-0.004-0.008-0.040-0.003-0.058 0.003-0.351 0.113-0.712 0.208-1.010 0.441-0.154 0.121-0.287 0.291-0.461 0.357-0.221 0.083-0.377 0.223-0.534 0.379-0.027 0.027-0.063 0.047-0.095 0.072-0.179 0.137-0.367 0.264-0.535 0.414-0.104 0.092-0.177 0.218-0.269 0.335-0.068-0.080-0.088-0.104-0.134-0.159-0.104 0.118-0.194 0.226-0.292 0.329-0.272 0.286-0.519 0.597-0.852 0.821-0.060 0.041-0.105 0.109-0.15 0.169-0.148 0.193-0.288 0.39-0.439 0.58-0.334 0.421-0.674 0.838-0.895 1.334-0.035 0.077-0.096 0.142-0.146 0.211-0.008 0.008-0.023 0.015-0.048 0.027 0.008-0.045 0.015-0.078 0.023-0.112-0.083 0.055-0.159 0.12-0.184 0.199-0.098 0.31-0.18 0.625-0.266 0.939-0.056 0.202-0.084 0.416-0.168 0.605-0.18 0.406-0.384 0.802-0.587 1.197-0.042 0.081-0.148 0.13-0.183 0.212-0.076 0.177-0.144 0.362-0.183 0.551-0.073 0.351-0.121 0.708-0.188 1.060-0.019 0.098-0.082 0.188-0.093 0.286-0.065 0.555-0.027 1.121-0.214 1.661-0.126 0.364-0.069 0.754 0.001 1.106 0.114 0.581 0.121 1.159 0.133 1.743 0.003 0.142 0.058 0.285 0.106 0.422 0.089 0.255 0.19 0.506 0.285 0.76 0.008 0.023 0.015 0.049 0.008 0.070-0.031 0.108-0.057 0.224 0.049 0.296 0.2 0.135 0.262 0.323 0.256 0.547-0.001 0.035 0.012 0.069 0.019 0.104 0.101 0.596 0.346 1.141 0.628 1.669 0.178 0.333 0.387 0.65 0.58 0.976 0.090 0.152 0.175 0.307 0.259 0.462 0.086 0.159 0.143 0.344 0.261 0.476 0.225 0.253 0.471 0.49 0.732 0.706 0.296 0.246 0.631 0.436 0.855 0.772 0.156 0.235 0.411 0.403 0.594 0.623 0.291 0.349 0.556 0.72 0.84 1.076 0.051 0.063 0.14 0.126 0.217 0.135 0.242 0.027 0.486 0.035 0.73 0.035 5.169-0.019 10.338-0.042 15.506-0.065 0.112-0.001 0.224 0 0.335-0.012 0.045-0.004 0.104-0.027 0.129-0.060 0.239-0.319 0.471-0.643 0.707-0.964 0.035-0.047 0.077-0.092 0.125-0.126 0.175-0.126 0.354-0.246 0.531-0.369 0.031-0.023 0.062-0.057 0.098-0.065 0.422-0.103 0.768-0.294 0.918-0.735 0.052-0.152 0.124-0.298 0.2-0.44 0.108-0.205 0.211-0.415 0.346-0.602 0.246-0.345 0.515-0.674 0.771-1.013 0.042-0.055 0.075-0.12 0.1-0.185 0.292-0.768 0.583-1.534 0.969-2.264 0.104-0.196 0.161-0.45 0.142-0.669-0.041-0.47 0.004-0.912 0.214-1.335 0.031-0.059 0.049-0.121 0.075-0.182 0.106-0.254 0.196-0.516 0.325-0.758 0.062-0.117 0.116-0.213 0.072-0.344z"></path>
<path d="M8.083 27.833c0.126 0.115 0.249 0.234 0.379 0.347 0.043 0.038 0.102 0.073 0.16 0.085 0.404 0.079 0.81 0.15 1.215 0.228 0.066 0.015 0.137 0.035 0.191 0.067 0.202 0.125 0.392 0.265 0.597 0.385 0.241 0.14 0.493 0.268 0.743 0.396 0.125 0.065 0.249 0.148 0.387 0.175 0.394 0.078 0.794 0.131 1.191 0.192 0.041 0.008 0.086-0.001 0.129-0.004 0.14-0.015 0.288-0.062 0.42-0.040 0.4 0.067 0.767-0.046 1.136-0.136 0.192-0.047 0.346-0.004 0.504 0.067 0.019 0.008 0.015 0.063 0.027 0.133 0.308 0.057 0.65 0.137 0.999 0.177 0.207 0.023 0.424-0.019 0.637-0.027 0.091-0.004 0.185-0.012 0.272 0.008 0.159 0.031 0.314 0.113 0.471 0.114 0.275 0.001 0.551-0.052 0.827-0.062 0.124-0.004 0.145-0.11 0.231-0.129 0.162-0.035 0.329-0.052 0.494-0.076 0.001 0.004 0.001 0.008 0.001 0.015-0.042 0.019-0.083 0.038-0.154 0.067 0.318 0.054 0.383 0.035 0.564-0.135 0.031-0.027 0.058-0.065 0.095-0.075 0.201-0.054 0.334-0.198 0.514-0.279 0.062-0.027 0.119-0.063 0.176-0.098 0.123-0.075 0.233-0.179 0.369-0.223 0.427-0.138 0.864-0.253 1.297-0.377 0.087-0.027 0.173-0.054 0.26-0.082-0.004-0.015-0.008-0.027-0.012-0.040-0.080 0.015-0.16 0.027-0.24 0.040-0.008-0.012-0.015-0.027-0.019-0.038 0.080-0.035 0.155-0.088 0.24-0.106 0.124-0.027 0.256-0.182 0.384-0.001 0.004 0.008 0.041 0.003 0.061-0.003 0.373-0.106 0.756-0.193 1.073-0.41 0.163-0.112 0.304-0.271 0.489-0.332 0.136-0.045 0.247-0.108 0.349-0.18h-16.889c0.154 0.109 0.294 0.231 0.432 0.358z"></path>
</svg>
