<!-- Generated by IcoMoon.io -->
<svg version="1.1" xmlns="http://www.w3.org/2000/svg" width="32" height="32" viewBox="0 0 32 32">
<title>return_to_the_heart_of_the_elders</title>
<path d="M18.516 28.767c-0-0-0-0.001-0.001-0.001-0.003 0.002-0.002 0.002 0.001 0.001z"></path>
<path d="M20.469 27.895c-0.001 0-0.002 0.001-0.005 0.003 0.002-0.002 0.003-0.002 0.005-0.003z"></path>
<path d="M24.624 23.616c0.018-0.012 0.041-0.031 0.076-0.057-0.025 0.018-0.051 0.038-0.076 0.057z"></path>
<path d="M14.368 1.016c-0.050 0.028-0.098 0.054-0.145 0.079-0.032 0.013-0.064 0.028-0.092 0.042-0.058 0.023-0.111 0.048-0.164 0.070-0.104 0.042-0.198 0.078-0.272 0.114l0.165-0.114c-0.1 0.068-0.185 0.113-0.274 0.162l0.125-0.009c-0.108 0.048-0.194 0.094-0.204 0.074-0.089 0.088 0.122 0.032-0.068 0.187-0.075 0.027-0.176 0.090-0.268 0.143-0.047 0.025-0.093 0.046-0.13 0.063-0.020 0.006-0.035 0.013-0.050 0.015-0.009 0-0.015-0.003-0.022-0.011 0.006-0.001 0.036-0.016 0.055-0.026 0.021-0.011 0.039-0.023 0.055-0.029 0.028-0.016 0.044-0.027 0.055-0.035 0.018-0.018 0.006-0.023-0.009-0.024-0.025-0.006-0.057-0.012 0.040-0.076-0.055 0.032-0.118 0.064-0.193 0.098-0.019 0.001 0.009-0.023 0.035-0.040-0.029 0.011-0.074 0.030-0.081 0.031-0.004-0.001-0.004-0.001-0.007 0-0.004-0.001-0.005 0.001-0.005 0.002-0.009 0.002-0.037 0.006-0.048 0.011-0.031 0.009-0.050 0.021-0.077 0.033-0.052 0.024-0.126 0.051-0.334 0.055 0.042-0.026-0.025-0.042-0.097-0.052 0.046 0.019-0.045 0.061-0.18 0.085-0.314-0.021-0.341 0.029-0.505 0.029l0.187 0.009c-0.029 0.019-0.083 0.030-0.154 0.037-0.074 0.005-0.168 0.009-0.279 0.017-0.008 0.002-0.020 0.005-0.029 0.011-0.007-0.005 0.004-0.015 0.026-0.026-0.082 0.031-0.121 0.043-0.186 0.059-0.062 0.010-0.126 0.022-0.193 0.035-0.131 0.024-0.27 0.055-0.404 0.119-0.158 0.024-0.035-0.063-0.173-0.037-0.134 0.064-0.227 0.089-0.31 0.107-0.041 0.009-0.079 0.014-0.121 0.024-0.022 0.004-0.042 0.010-0.066 0.015-0.012 0.004-0.025 0.005-0.037 0.009-0.023 0.006-0.043 0.014-0.066 0.020-0.022 0.013-0.044 0.027-0.068 0.040-0.013 0.007-0.029 0.018-0.044 0.028-0.031 0.020-0.063 0.045-0.097 0.072 0.124-0.018 0.134-0.038-0.081 0.152l0.323-0.222 0.294-0.114-0.13 0.072c-0.050 0.024-0.073 0.040-0.151 0.074-0.059 0.044-0.079 0.068-0.114 0.099 0.040-0.025 0.083-0.054 0.123-0.081 0.043-0.016 0.085-0.033 0.125-0.048 0.038-0.015 0.071-0.030 0.103-0.042 0.067-0.028 0.127-0.049 0.173-0.061-0.179 0.103-0.166 0.085-0.063 0.096-0.056 0.001-0.109 0.011-0.16 0.024-0.025 0.006-0.053 0.016-0.077 0.026l-0.090 0.035c-0.071 0.052-0.142 0.104-0.217 0.16-0.071 0.051-0.147 0.098-0.237 0.134l-0.057-0.11c-0.316 0.145-0.551 0.354-0.842 0.555-0.094 0.051-0.237 0.12-0.38 0.176l0.189-0.063c-0.055 0.079-0.343 0.164-0.514 0.265-0.001-0.045-0.119-0.006-0.208 0.002 0.020 0.025-0.405 0.183-0.426 0.285l-0.074 0.022-0.066 0.048-0.050 0.031-0.096 0.061c-0.373 0.325-0.325 0.477-0.678 0.794 0.072-0.131-0.105-0.002 0.101-0.246-0.114 0.11-0.221 0.201-0.202 0.224-0.019 0.009-0.045 0.033-0.072 0.061-0.029 0.033-0.066 0.075-0.103 0.119-0.034 0.062-0.071 0.13-0.105 0.191-0.032 0.053-0.063 0.1-0.094 0.129-0.023 0.066 0.003 0.108-0.096 0.254-0.012 0.008-0.017 0.001-0.019-0.005-0.003 0.038-0.121 0.234-0.005 0.137-0.084 0.075-0.167 0.174-0.25 0.287-0.042 0.053-0.081 0.113-0.121 0.175-0.038 0.056-0.074 0.113-0.112 0.171-0.064 0.057-0.13 0.117-0.195 0.175-0.068 0.058-0.136 0.117-0.2 0.173-0.131 0.108-0.258 0.198-0.367 0.25-0.14 0.131-0.293 0.275-0.434 0.406-0.068 0.194-0.132 0.372-0.184 0.526-0.005-0.024-0.019-0.009 0.005-0.063-0.186 0.393 0.021 0.29-0.189 0.739-0.151 0.213 0.054-0.257-0.024-0.119-0.044 0.005-0.076 0.051-0.107 0.123-0.015 0.036-0.030 0.080-0.046 0.125-0.011 0.042-0.034 0.108-0.035 0.123-0.004 0.011-0.028 0.048-0.053 0.083l-0.072 0.107c-0.050 0.067-0.104 0.128-0.162 0.175l0.042-0.070c-0.189 0.175-0.326 0.53-0.581 0.858 0 0-0.001-0.024-0.018-0.015-0.006 0.022-0.022 0.057-0.051 0.107-0.015 0.079-0.033 0.169-0.051 0.268-0.019 0.089-0.040 0.185-0.064 0.283-0.048 0.195-0.102 0.398-0.149 0.575-0.013-0.134 0.027-0.18-0.048-0.127-0.048 0.174 0.098-0.022 0.004 0.323-0.028 0.046-0.057 0.101-0.097 0.178-0.036 0.107-0.071 0.19-0.108 0.208l0.031-0.226 0.042-0.129c-0.013 0.016-0.028 0.029-0.038 0.048-0.010 0.016-0.018 0.037-0.033 0.074-0.004 0.025-0.009 0.049-0.015 0.075l-0.011 0.064c-0.004 0.043-0.004 0.086-0.005 0.129-0.004 0.086-0.008 0.169-0.026 0.237l-0.029-0.029c-0.064 0.499 0.012 0.538-0.066 1.044-0.001 0.006-0.005 0.016-0.007 0.026 0.006-0.010 0.014-0.017 0.020-0.024 0.005-0.005 0.011-0.009 0.017-0.018 0.001 0.012 0.001 0.017 0.002 0.022 0 0.276-0.107 0.216-0.119 0.513l-0.105 0.068c-0.031 0.197-0.084 0.701-0.171 1.049 0.004-0.209 0.067-0.627 0.097-0.887-0.033 0.127-0.066 0.325-0.097 0.509 0.012 0.256-0.058 0.566-0.169 0.944-0.044-0.036-0.097 0.055-0.153 0.204-0.028 0.074-0.056 0.164-0.086 0.257-0.034 0.106-0.068 0.217-0.101 0.325 0.005 0.039 0.012 0.078 0.018 0.116 0.002 0.027 0.005 0.052 0.009 0.077 0.005 0.048 0.013 0.098 0.017 0.143 0.005 0.088 0.003 0.161-0.009 0.215 0.045 0.166 0.082 0.335 0.114 0.505 0.015 0.086 0.030 0.172 0.046 0.259 0.013 0.092 0.028 0.182 0.042 0.277 0.058 0.179 0.116 0.363 0.176 0.551 0.060 0.183 0.124 0.372 0.197 0.566 0.021-0.314 0.084 0.222 0.189 0.13 0.031 0.080 0.051 0.135 0.066 0.173 0.004 0.028 0.008 0.067 0.005 0.072v0.002l0.013 0.581c-0.016 0.14-0.057-0.175-0.083-0.152 0.056 0.411-0.026 0.181-0.016 0.457 0.038-0.063 0.087 0.132 0.108 0.369l0.007-0.338c0.076 0.27 0.071 0.382 0.068 0.525 0.010 0.159 0.005 0.273 0.118 0.568l-0.085-0.169c0.039 0.112 0.089 0.302 0.145 0.507 0.031 0.103 0.061 0.209 0.090 0.312 0.018 0.050 0.035 0.101 0.050 0.149 0.020 0.054 0.039 0.104 0.055 0.152 0.023 0.050 0.028 0.057 0.040 0.081 0.013 0.020 0.024 0.038 0.035 0.055 0.023 0.036 0.049 0.068 0.070 0.092 0.005 0.055-0.002 0.132-0.061 0.013 0.074 0.194 0.161 0.399 0.254 0.601 0.096 0.209 0.194 0.419 0.287 0.619 0.052 0.072 0.103 0.141 0.152 0.208 0.043 0.061 0.085 0.121 0.125 0.18 0.080 0.118 0.149 0.229 0.204 0.336l-0.055-0.029c0.082 0.107 0.18 0.162 0.248 0.32-0.018 0-0.059-0.028-0.026 0.024 0.016 0.019 0.051 0.058 0.094 0.105 0.020 0.024 0.040 0.048 0.064 0.075 0.024 0.031 0.041 0.048 0.083 0.107 0.029 0.027 0.060 0.057 0.088 0.083 0.023 0.023 0.042 0.043 0.061 0.064l-0.134-0.081c0.479 0.518 0.834 0.687 1.275 1.075-0.066 0.067 0.313 0.464 0.503 0.661l-0.017 0.002c0.145 0.138 0.281 0.26 0.415 0.377 0.128 0.122 0.254 0.236 0.377 0.345 0.126 0.111 0.246 0.22 0.375 0.331 0.061 0.058 0.125 0.114 0.189 0.173 0.034 0.029 0.066 0.059 0.099 0.090 0.037 0.035 0.076 0.070 0.114 0.107 0.015 0.007 0.030 0.019 0.048 0.029 0.111 0.115 0.291 0.258 0.503 0.413 0.108 0.076 0.222 0.158 0.34 0.241 0.13 0.091 0.265 0.183 0.401 0.276 0.155 0.043 0.311 0.087 0.461 0.129 0.134 0.040 0.263 0.081 0.382 0.121-0.107-0.045 0.036-0.066 0.167-0.042 0.167 0.063 0.489 0.060 0.439 0.136l-0.059-0.018c0.016 0.017 0.040 0.035 0.068 0.052 0.012 0.007 0.026 0.016 0.042 0.024 0.020 0.006 0.010 0.004 0.017 0.011-0.007 0.001 0.048 0.036 0.086 0.059 0.043 0.025 0.085 0.052 0.13 0.077 0.091 0.050 0.186 0.102 0.272 0.149l0.094-0.075c0.099 0.087 0.217 0.17 0.345 0.25 0.063 0.040 0.128 0.082 0.195 0.119 0.075 0.042 0.15 0.080 0.226 0.121l0.231 0.077c0.070 0.021 0.139 0.041 0.208 0.063 0.138 0.043 0.275 0.084 0.397 0.121 0.246 0.079 0.447 0.16 0.557 0.248 0.028 0.005 0.035 0.006 0.094 0.020 0.084 0.011 0.177 0.022 0.268 0.033 0.087 0.009 0.172 0.021 0.25 0.024l-0.022 0.057c0.191 0.043 0.344 0.077 0.502 0.112 0.079 0.017 0.159 0.034 0.246 0.052 0.098 0.019 0.203 0.040 0.321 0.064 0.068-0.006 0.197-0.021 0.34-0.033l-0.123 0.053c0.345-0.023 0.423-0.206 0.74-0.231l0.101 0.083 0.263-0.016 0.272-0.011 0.336-0.048 0.318-0.050c0.211-0.036 0.42-0.083 0.625-0.149-0.007 0.015-0.023 0.044-0.118 0.064 0.083-0.013 0.213-0.032 0.351-0.053 0.078-0.004 0.157-0.007 0.231-0.011 0.079-0.005 0.155-0.013 0.217-0.022 0.113-0.016 0.184-0.039 0.168-0.074 0.072 0.056 0.633-0.048 0.937-0.11l-0.044 0.066c0.266-0.11 0.272-0.132 0.65-0.2 0.091-0.004 0.085 0.035-0.035 0.035 0.304-0.006 0.226-0.083 0.595-0.097l-0.13 0.055c0.151-0.017 0.222-0.030 0.274-0.046s0.084-0.034 0.191-0.070c0.001-0.001 0.006-0.006 0.011-0.009 0.025-0.019 0.054-0.042 0.084-0.064 0.024-0.016 0.052-0.031 0.079-0.050 0.056-0.035 0.116-0.072 0.175-0.101 0.115-0.059 0.22-0.099 0.254-0.088 0.017-0.051 0.136-0.178 0.299-0.265 0.032 0.004-0.018 0.049-0.042 0.072 0.107-0.058 0.197-0.116 0.276-0.169 0.040-0.029 0.076-0.054 0.114-0.081l0.050-0.039 0.031-0.024c0.016-0.009 0.064-0.027 0.108-0.040 0.043-0.015 0.084-0.031 0.127-0.044 0.084-0.024 0.171-0.043 0.268-0.052 0.012 0.016 0.034 0.020 0.066 0.018-0.235 0.059-0.441 0.114-0.558 0.143-0.024 0.015-0.043 0.026-0.053 0.031-0.009 0.006-0.015 0.009-0.018 0.010 0.013 0.020 0.083-0.005 0.091 0.006 0.015 0.005 0.021 0.011 0.029 0.020 0.004 0.009-0.001 0.026 0 0.042 0 0.003 0.001 0.007 0.002 0.011 0-0.002 0.001-0.007 0.002-0.011 0.017-0.006 0.034-0.014 0.050-0.022 0.038-0.015 0.075-0.032 0.114-0.050 0.078-0.032 0.16-0.066 0.244-0.101 0.167-0.068 0.342-0.129 0.496-0.156 0.016 0.001 0.031 0.001 0.044 0.005l-0.031 0.013c0.074-0.013 0.141-0.035 0.2-0.059 0.051-0.009 0.093-0.018 0.134-0.026 0.047-0.009 0.063-0.013 0.16-0.037 0.017 0.005 0.057 0.001 0.117-0.011 0.035-0.035 0.079-0.081 0.127-0.136 0.027-0.032 0.055-0.065 0.084-0.101 0.058-0.070 0.12-0.142 0.162-0.193-0.054-0.026 0.087-0.185-0.072-0.068 0.003 0.001-0.031 0.047-0.091 0.119-0.013 0.021-0.031 0.044-0.039 0.059 0-0.004 0.001-0.009 0.002-0.015l-0.217 0.265-0.184 0.050c0.038-0.022 0.113-0.050 0.169-0.072 0.020-0.028 0.041-0.057 0.063-0.086 0.017-0.023 0.037-0.049 0.057-0.074 0.033-0.043 0.073-0.083 0.123-0.123 0.025-0.091 0.057-0.188 0.075-0.241 0.211-0.12 0.531-0.43 0.608-0.443 0.054-0.071 0.108-0.147 0.167-0.224 0.080-0.068 0.163-0.139 0.244-0.208 0.087-0.076 0.17-0.149 0.252-0.219 0.159-0.146 0.295-0.284 0.371-0.401 0.104-0.1 0.149-0.077 0.202-0.097-0.060 0.061-0.138 0.122-0.163 0.162 0.202-0.21 0.687-0.512 0.695-0.617 0.318-0.182-0.126 0.177 0.276-0.121l-0.040 0.057c0.107-0.056 0.203-0.114 0.296-0.175 0.046-0.032 0.090-0.063 0.134-0.092 0.055-0.040 0.11-0.079 0.162-0.119l0.066-0.123 0.042-0.084 0.075-0.169c0.050-0.112 0.101-0.224 0.151-0.338 0.1-0.224 0.219-0.471 0.356-0.693 0.079-0.074 0.188-0.168 0.303-0.257-0.013 0.009-0.024 0.015-0.033 0.016 0.146-0.128 0.288-0.263 0.43-0.399l0.209-0.209 0.222-0.219c0.292-0.467 0.536-0.88 0.836-1.341l0.088-0.272 0.088-0.254c0.060-0.17 0.124-0.335 0.191-0.498 0.098-0.256 0.096-0.336 0.107-0.474 0-0.036 0.004-0.078 0.004-0.129l0.077-0.061 0.007-0.371c0.063-0.516 0.345-0.84 0.402-1.499l-0.061 0.074c0.063-0.227 0.151-0.733 0.189-0.682-0.001-0.027-0.026-0.083 0.017-0.169h0.037l0.011-0.085 0.020-0.114-0.044-0.123v0.005l-0.035-0.096-0.075-0.193c-0.094-0.438 0.148 0.035-0.015-0.599-0.078-0.231-0.276-0.643-0.274-0.549 0.024 0.095 0.046 0.247 0.015 0.265l-0.074-0.209c-0.006-0.001-0.015-0.002-0.022-0.004l-0.011-0.035 0.312-1.534-0.276-1.029 0.024 0.020-0.037-0.070-0.088-0.327c0.013 0.006 0.034 0.033 0.055 0.097-0.007-0.096-0.021-0.144-0.039-0.191-0.039-0.067-0.069-0.088-0.097-0.222-0.004-0.025 0.006-0.018 0.018 0l-0.125-0.208c0.036 0.035 0.040-0.063 0.090 0.077-0.134-0.415-0.354-0.606-0.362-0.781l0.022 0.029c-0.209-0.397-0.149-0.21-0.219-0.259l-0.004-0.011-0.037-0.261 0.083-0.222-0.072-0.052c-0.006-0.060-0.016-0.182 0.013-0.164-0.073-0.222-0.024 0.043-0.083-0.085 0.015-0.233-0.064-0.565-0.068-0.774-0.033-0.059-0.054-0.107-0.040-0.134-0.107-0.060 0.146 0.261-0.079 0.016 0.035-0.14-0.233-0.285-0.356-0.535 0.096 0.033 0.225 0.26 0.103 0.011-0.175-0.075-0.297-0.439-0.448-0.612-0.071 0.037-0.319-0.386-0.564-0.683 0.036 0.004-0.391-0.612-0.564-0.928l0.015 0.002c-0.103-0.013-0.299-0.326-0.465-0.54 0.044-0.017 0.088 0.012 0.187 0.121l-0.141-0.211c-0.055-0.035-0.108-0.094-0.208-0.224l0.084 0.022-0.075-0.101-0.103-0.086-0.090-0.074c-0.060-0.048-0.125-0.1-0.189-0.151-0.128-0.106-0.26-0.219-0.391-0.364-0.037 0.018 0.045 0.167-0.011 0.176l-0.171-0.16c0.019-0.007 0.048-0.002 0.097 0.033-0.032-0.024-0.121-0.075-0.171-0.138l0.169 0.088c-0.131-0.15-0.105-0.040-0.219-0.151 0.032-0.028-0.063-0.101-0.024-0.11 0.032 0.024 0.089 0.105 0.145 0.134-0.063-0.061-0.145-0.146-0.182-0.197-0.027-0.054-0.066-0.132-0.072-0.165-0.011 0.028-0.046 0.037-0.129-0.064-0.205-0.267-0.030-0.124-0.13-0.294-0.072-0.047-0.178-0.236-0.231-0.204-0.059-0.079-0.048-0.109-0.057-0.151-0.035-0.034-0.087-0.098-0.143-0.167-0.067-0.082-0.136-0.171-0.195-0.244-0.205-0.051-0.257-0.053-0.187 0l0.050 0.018c-0.011-0.001-0.023-0.005-0.035-0.007-0.237-0.041-0.472-0.111-0.707-0.187l-0.353-0.118c-0.112-0.038-0.219-0.074-0.329-0.108l-0.094-0.081-0.11-0.088 0.013-0.015c-0.273-0.202-0.581-0.48-0.794-0.604-0.076-0.064-0.155-0.182-0.107-0.173-0.031-0.023-0.059-0.045-0.077-0.059-0.048-0.020-0.088-0.035-0.127-0.050-0.036-0.015-0.070-0.030-0.107-0.046-0.073-0.036-0.158-0.083-0.296-0.169 0.25 0.083-0.067-0.068 0.252 0.096-0.294-0.166-0.349-0.23-0.696-0.34 0.132 0.005-0.192-0.172-0.351-0.233l0.198 0.141c-0.047-0.020-0.091-0.040-0.134-0.061-0.049-0.024-0.098-0.049-0.145-0.074-0.080-0.012-0.155-0.022-0.231-0.035l0.094-0.059c-0.333-0.087-0.644-0.090-0.935-0.099-0.145-0.004-0.284-0.010-0.421-0.028-0.134-0.019-0.26-0.063-0.382-0.121-0.187 0.013 0.361 0.105 0.191 0.13-0.308-0.070-0.612-0.233-0.709-0.25-0.171-0.051-0.272-0.056-0.362-0.053-0.046 0.002-0.085 0.005-0.132 0.007-0.023 0.001-0.050 0.001-0.075 0-0.029-0.001-0.049-0.001-0.101-0.009-0.032 0-0.066 0.002-0.105 0.002-0.034 0-0.071-0.003-0.114-0.005 0.059 0.027 0.114 0.092-0.226 0.112-0.316-0.015-0.388-0.111-0.187-0.129 0.076-0.001 0.113 0.007 0.11 0.017 0.103-0.007 0.236-0.016 0.11-0.046l-0.042 0.026c-0.156-0.029-0.591-0.033-0.487-0.074-0.241 0.022-0.106 0.039 0.072 0.055-0.262-0.029-0.462-0.025-0.667-0.028-0.096-0.006-0.229-0.019-0.369-0.040 0.065 0.020 0.124 0.054 0.059 0.048-0.609-0.087-0.273 0.022-0.687-0.004-0.232-0.059 0.092-0.083-0.327-0.088-0.253-0.050-0.048-0.071 0.053-0.083-0.046 0.001-0.090 0.001-0.134 0l-0.094-0.005c-0.037-0.004-0.073-0.007-0.108-0.011h-0.002v-0zM16.227 3.038c0.116-0.001 0.238 0.027 0.294 0.076 0.108 0.096 0.164 0.313 0.139 0.351l0 0c0.249-0.064 0.583 0.313 0.715 0.471 0.195 0.236 0.275 0.491 0.375 0.765 0.071 0.195 0.152 0.338 0.125 0.555-0.021 0.173-0.102 0.347-0.151 0.512-0.113 0.376-0.186 0.739-0.36 1.095-0.257 0.527-0.582 1.017-0.802 1.559-0.046 0.112-0.131 0.205-0.148 0.328-0.017 0.111 0.043 0.236 0.031 0.352-0.034 0.335-0.042 0.528 0.082 0.841 0.076 0.19 0.217 0.343 0.315 0.522 0.145 0.266 0.268 0.52 0.476 0.745 0.396 0.428 0.877 0.816 1.174 1.323 0.048 0.081 0.118 0.204 0.148 0.297 0.032 0.097 0.089 0.201 0.115 0.278 0.071 0.21 0.153 0.407 0.167 0.634 0.012 0.237-0.027 0.517-0.205 0.692-0.157 0.156-0.377 0.25-0.519 0.395-0.307 0.313-0.895 0.693-1.029 1.13-0.068 0.222-0.113 0.529-0.037 0.758 0.057 0.174 0.297 0.383 0.223 0.592-0.157 0.035-0.539-0.266-0.667-0.355-0.19-0.132-0.418-0.437-0.483-0.644-0.196-0.623 0.156-1.009 0.544-1.435 0.307-0.338 0.796-0.571 1.004-1.003 0.271-0.559-0.105-1.147-0.497-1.523-0.162-0.154-0.288-0.336-0.462-0.477-0.25-0.203-0.439-0.484-0.687-0.689-0.249-0.206-0.498-0.37-0.687-0.65-0.174-0.256-0.34-0.543-0.436-0.848-0.121-0.389 0.078-0.788 0.076-1.169-0.001-0.394 0.051-0.8 0.163-1.179 0.057-0.197 0.191-0.313 0.318-0.472 0.148-0.185 0.183-0.318 0.381-0.46 0.258-0.186 0.517-0.414 0.672-0.703 0.074-0.137 0.34-0.411 0.316-0.57-0.019-0.119-0.247-0.242-0.331-0.301-0.295-0.206-0.524-0.507-0.697-0.827-0.075-0.138-0.145-0.35-0.115-0.509 0.019-0.1 0.133-0.336 0.23-0.405 0.052-0.037 0.14-0.054 0.231-0.054zM12.36 4.36c0.045-0.001 0.091 0.006 0.137 0.023 0.172 0.062 0.269 0.35 0.525 0.303l0 0c-0.020 0.239-0.095 0.497-0.131 0.739-0.037 0.259-0.123 0.493-0.19 0.744-0.060 0.228-0.041 0.461-0.064 0.693-0.079 0.803 0.009 1.578 0.080 2.379 0.049 0.54 0.096 0.981 0.318 1.472 0.174 0.383 0.349 0.771 0.454 1.155 0.051 0.187 0.121 0.344 0.138 0.545 0.017 0.214 0.036 0.43 0.058 0.643 0.036 0.376-0.136 0.717-0.355 1.014-0.197 0.267-0.364 0.363-0.651 0.479-0.143 0.058-0.271 0.117-0.458 0.113-0.164-0.003-0.337-0.072-0.503-0.124-0.243-0.076-0.727-0.252-0.804-0.515-0.144-0.494 0.148-0.666 0.464-0.944-0.262 0.291-0.409 0.99 0.163 0.928 0.428-0.047 0.833-0.050 1.126-0.412 0.14-0.172 0.113-0.389 0.119-0.594 0.003-0.127 0.053-0.153 0.072-0.267 0.024-0.145-0.060-0.274-0.118-0.395-0.173-0.367-0.406-0.658-0.613-0.994-0.101-0.165-0.171-0.326-0.245-0.491-0.087-0.195-0.088-0.399-0.164-0.609-0.078-0.215-0.094-0.439-0.173-0.654-0.083-0.226-0.050-0.466-0.115-0.696-0.028-0.101-0.084-0.134-0.105-0.264s-0.055-0.189-0.097-0.305c-0.042-0.118-0.032-0.229-0.050-0.353-0.020-0.145-0.099-0.249-0.13-0.39-0.040-0.197-0.063-0.465-0.058-0.665 0.004-0.189 0.075-0.388 0.11-0.564 0.034-0.168 0.044-0.304 0.103-0.473 0.043-0.124 0.082-0.221 0.13-0.341 0.137-0.343 0.291-0.608 0.528-0.887 0.118-0.138 0.301-0.29 0.498-0.293zM15.024 6.111h0c-0 0.001-0.001 0.002-0.001 0.004-0.002 0.013-0.006 0.025-0.011 0.038-0.056 0.181-0.106 0.234-0.155 0.232-0.027 0.057-0.053 0.131-0.079 0.186-0.165 0.342-0.28 0.732-0.397 1.093-0.104 0.323-0.113 0.771-0.104 1.109 0.010 0.301 0.024 0.685 0.133 0.962 0.374 0.958 0.77 1.846 1.252 2.742 0.048 0.089 0.141 0.169 0.183 0.252 0.042 0.082 0.052 0.166 0.085 0.26 0.068 0.198 0.1 0.422 0.169 0.609 0.124 0.338-0.009 0.767-0.149 1.079-0.094 0.208-0.175 0.446-0.298 0.637-0.107 0.167-0.2 0.277-0.205 0.481-0.010 0.412 0.092 0.82 0.205 1.18 0.028 0.090 0.092 0.204 0.129 0.309 0.047 0.134 0.089 0.196 0.101 0.348 0.019 0.235 0.057 0.471 0.066 0.708 0.012 0.294-0.138 0.434-0.326 0.631-0.064 0.067-0.111 0.153-0.178 0.218-0.068 0.066-0.151 0.096-0.219 0.162-0.022-0.16 0.125-0.355 0.146-0.508 0.029-0.199-0.027-0.559-0.068-0.757-0.042-0.199-0.142-0.437-0.236-0.603-0.096-0.17-0.145-0.355-0.249-0.536-0.211-0.37-0.308-0.742-0.352-1.195-0.052-0.514 0.268-1.049 0.559-1.456 0.256-0.355 0.212-0.852 0.175-1.287-0.008-0.084 0.009-0.235-0.024-0.314-0.039-0.093-0.111-0.107-0.177-0.176-0.089-0.094-0.13-0.223-0.207-0.325-0.087-0.116-0.204-0.212-0.296-0.325-0.165-0.201-0.366-0.364-0.498-0.58-0.152-0.249-0.255-0.521-0.381-0.786-0.363-0.766-0.585-1.577-0.643-2.428-0.038-0.557 0.318-1.224 0.748-1.577 0.15-0.124 0.252-0.166 0.43-0.218 0.081-0.024 0.189-0.114 0.255-0.121 0.060-0.005 0.254 0.097 0.305 0.134 0.052 0.037 0.1 0.090 0.148 0.093 0.006-0.013 0.012-0.026 0.018-0.037 0.036-0.061 0.108-0.126 0.137-0.195 0.004-0.012 0.008-0.024 0.011-0.038 0-0.001 0.001-0.002 0.001-0.004zM18.395 8.269c0.12 0.003 0.247 0.017 0.357 0.023 0.028-0.002 0.055-0.002 0.083 0.003-0.026-0-0.054-0.001-0.083-0.003-0.183 0.015-0.372 0.162-0.49 0.291-0.155 0.17-0.19 0.372-0.2 0.6-0.010 0.268 0.154 0.374 0.404 0.437 0.173 0.044 0.39 0.037 0.573 0.075 0.173 0.035 0.361 0.095 0.533 0.115 0.157 0.018 0.309-0.014 0.467 0.016 0.146 0.027 0.286 0.065 0.435 0.088 0.36 0.056 0.716 0.055 1.044 0.169 0.338 0.116 0.696 0.129 1.047 0.19 0.223 0.038 0.427 0.119 0.645 0.177 0.258 0.069 0.486 0.153 0.734 0.248 0.272 0.103 0.559 0.12 0.82 0.263 0.487 0.267 0.816 0.571 1.114 1.069 0.274 0.458 0.406 1.002 0.44 1.523 0.014 0.226 0.097 0.411 0.094 0.641-0.001 0.145-0.001 0.29-0.001 0.434v0.817c0 0.41 0.011 0.8-0.069 1.202-0.042 0.212-0.007 0.415-0.067 0.627-0.079 0.269-0.18 0.525-0.242 0.802-0.267 1.184-0.718 2.445-1.751 3.172-0.256 0.18-0.577 0.223-0.841 0.375-0.255 0.147-0.55 0.291-0.852 0.347-0.711 0.133-1.443 0.462-2.17 0.453-0.666-0.007-1.352 0.065-1.969-0.167-0.166-0.063-0.487-0.231-0.66-0.196-0.225 0.047-0.347 0.299-0.396 0.495-0.055 0.22-0.136 0.436-0.133 0.666 0.003 0.222 0 0.442 0 0.663 0 0.495 0.072 0.913 0.18 1.381 0.088 0.379 0.215 0.79 0.548 1.044 0.151 0.116 0.336 0.186 0.451 0.353 0.174 0.252-0.097 0.202-0.291 0.202-0.573-0.003-1.118-0.151-1.694-0.18-0.246-0.012-0.447-0.088-0.698-0.087-0.118 0.001-0.265-0.016-0.41-0.022-0.139 0.090-0.359 0.203-0.389 0.042 0.109-0.043 0.248-0.048 0.389-0.042 0.040-0.026 0.074-0.050 0.094-0.065 0.14-0.107 0.202-0.244 0.285-0.381 0.117-0.194 0.166-0.347 0.222-0.578 0.020-0.078 0.065-0.189 0.089-0.286 0.031-0.125 0.044-0.227 0.064-0.355 0.022-0.128 0.089-0.221 0.096-0.355 0.006-0.117-0.002-0.238-0.002-0.355s-0.015-0.243-0.002-0.357c0.011-0.106 0.063-0.142 0.083-0.228 0.053-0.224-0.030-0.477 0.016-0.703 0.025-0.127 0.078-0.218 0.082-0.355 0.004-0.117 0-0.237-0.001-0.355-0.001-0.407 0.169-0.74 0.177-1.155 0.003-0.198 0.072-0.402 0.133-0.578 0.074-0.209 0.143-0.277 0.357-0.223 0.2 0.050 0.34 0.182 0.508 0.29 0.186 0.12 0.347 0.154 0.55 0.208 0.168 0.045 0.314 0.151 0.494 0.172 0.186 0.021 0.393-0.002 0.58-0.002 0.523 0 0.998-0.016 1.506-0.167 0.43-0.128 0.847-0.288 1.244-0.466 0.497-0.224 0.906-0.489 1.35-0.832 0.178-0.138 0.21-0.264 0.336-0.435 0.116-0.158 0.297-0.254 0.391-0.433 0.159-0.303 0.301-0.633 0.415-0.958 0.117-0.334 0.142-0.633 0.202-0.978 0.052-0.294 0.083-0.595 0.117-0.892 0.029-0.247 0.084-0.453 0.081-0.703-0.001-0.184-0.001-0.369-0.001-0.552 0.003-0.382-0.055-0.758-0.084-1.138-0.014-0.182-0.097-0.345-0.14-0.521-0.038-0.16-0.028-0.321-0.124-0.458-0.18-0.258-0.538-0.43-0.784-0.617-0.493-0.377-1.118-0.606-1.71-0.776-0.477-0.136-0.93-0.361-1.419-0.377-0.162-0.006-0.268-0.071-0.424-0.096-0.093-0.014-0.195 0.015-0.289 0.008-0.217-0.019-0.499-0.058-0.711-0.111-0.21-0.053-0.413-0.093-0.624-0.161-0.168-0.053-0.367-0.061-0.534-0.149-0.233-0.122-0.228-0.243-0.26-0.468-0.034-0.251-0.092-0.451-0.093-0.713l-0.002-0.001c-0.826 1.019-0.226 0.126-0.002-0.177 0.123-0.167 0.325-0.394 0.53-0.449 0.072-0.020 0.159-0.024 0.25-0.022zM9.571 9.863c0.209-0.006 0.515 0.177 0.672 0.341 0.097 0.101 0.139 0.178 0.18 0.315 0.026 0.085 0.072 0.175 0.091 0.259 0.029 0.116-0.005 0.283-0.005 0.404 0.002 0.161-0.035 0.211-0.068 0.332-0.035 0.124-0.001 0.249-0.027 0.372-0.022 0.098-0.081 0.187-0.097 0.304-0.118 0.004-0.182 0.089-0.292 0.108-0.098 0.017-0.195-0.005-0.294 0.017-0.076 0.016-0.191 0.066-0.287 0.088-0.085 0.020-0.191 0.075-0.266 0.112-0.382 0.188-0.85 0.385-1.088 0.755-0.116 0.179-0.218 0.376-0.292 0.579-0.083 0.226-0.041 0.514-0.041 0.755-0.001 0.335 0.093 0.628 0.088 0.958-0.004 0.294 0.040 0.578 0.087 0.863 0.156 0.943 0.415 1.928 0.902 2.747 0.155 0.263 0.526 0.486 0.789 0.604 0.176 0.081 0.261 0.204 0.441 0.269 0.196 0.070 0.344 0.174 0.537 0.245 0.398 0.144 0.777 0.307 1.199 0.358 0.199 0.025 0.421-0.003 0.622-0.003 0.083 0 0.191 0.021 0.27 0.003 0.090-0.019 0.13-0.077 0.214-0.096 0.202-0.048 0.428-0.020 0.631-0.082 0.085-0.026 0.122-0.075 0.213-0.094 0.080-0.018 0.189 0.003 0.27 0.003 0.216 0 0.419 0.015 0.622-0.044 0.169-0.049 0.369-0.204 0.515-0.072 0.066 0.059 0.194 0.315 0.221 0.401 0.056 0.173 0.11 0.328 0.109 0.514-0.002 0.114-0.019 0.246-0.003 0.358 0.017 0.122 0.070 0.167 0.096 0.278 0.044 0.19-0.005 0.455-0.004 0.651 0.002 0.249-0.053 0.469-0.087 0.708-0.039 0.284-0.096 0.573-0.16 0.848-0.035 0.149 0 0.296-0.038 0.443-0.026 0.106-0.112 0.195-0.142 0.292-0.057 0.186-0.024 0.362-0.095 0.553-0.068 0.182-0.049 0.47-0.151 0.614-0.085 0.121-0.271 0.222-0.396 0.295-0.348 0.209-0.735 0.381-1.153 0.378-0.888-0.005-1.777 0-2.665 0l-0 0c-0.19 0.199-0.393 0.029-0.489 0.008-0.112-0.025-0.238-0.008-0.353-0.008-0.39 0.001-0.78 0.001-1.17 0-0.031 0.004-0.062 0.004-0.095-0 0.032 0 0.063 0 0.095 0 0.168-0.020 0.31-0.145 0.457-0.233 0.212-0.127 0.434-0.19 0.668-0.278 0.072-0.027 0.165-0.088 0.228-0.104 0.1-0.025 0.2-0.001 0.304-0.027 0.122-0.032 0.185-0.069 0.318-0.070 0.137-0.002 0.263 0.014 0.395-0.019 0.379-0.095 0.777-0.234 1.12-0.413 0.16-0.084 0.367-0.164 0.514-0.276 0.143-0.109 0.252-0.273 0.405-0.379 0.262-0.182 0.525-0.403 0.716-0.653 0.272-0.354 0.264-0.726 0.264-1.147 0-0.189 0.022-0.394 0.002-0.58-0.018-0.154-0.101-0.338-0.169-0.49-0.159-0.35-0.52-0.391-0.893-0.396-0.502-0.008-1.006-0.001-1.508 0-0.461 0-0.895-0.055-1.353-0.1-0.347-0.034-0.731-0.048-1.057-0.145-0.429-0.127-0.667-0.388-0.939-0.739-0.277-0.357-0.514-0.695-0.714-1.104-0.127-0.262-0.258-0.438-0.308-0.717-0.028-0.161-0.118-0.306-0.152-0.464-0.020-0.096 0.005-0.193-0.012-0.284-0.021-0.101-0.077-0.176-0.118-0.267-0.057-0.125-0.038-0.218-0.074-0.348-0.050-0.186-0.102-0.376-0.149-0.561-0.030-0.116 0.006-0.227-0.014-0.34-0.018-0.094-0.082-0.166-0.098-0.26-0.048-0.262-0.086-0.554-0.084-0.825 0.002-0.353 0.079-0.687 0.093-1.035 0.010-0.241 0.065-0.441 0.129-0.675 0.051-0.187 0.068-0.362 0.177-0.536 0.193-0.31 0.367-0.669 0.665-0.886 0.312-0.227 0.659-0.404 0.978-0.62 0.187-0.126 0.344-0.262 0.538-0.378 0.164-0.098 0.299-0.238 0.422-0.382 0.153-0.179 0.197-0.286 0.196-0.53-0.002-0.151 0.040-0.343-0.051-0.473z"></path>
</svg>
