<!-- Generated by IcoMoon.io -->
<svg version="1.1" xmlns="http://www.w3.org/2000/svg" width="34" height="32" viewBox="0 0 34 32">
<title>return_to_undimensioned_and_unseen</title>
<path d="M28.756 20.992c-0.18 0.289-0.399 0.481-0.503 0.826-0.169 0.566-0.22 1.031-0.664 1.476-0.329 0.331-0.718 0.595-1.046 0.929-0.406 0.413-0.739 0.895-1.097 1.352-0.021 0.017-0.043 0.035-0.065 0.052-0.5 0.371-1.12 0.79-1.494 1.344-0.171 0.101-0.333 0.204-0.476 0.33-0.275-0.016-0.575 0.013-0.804 0.109-0.297 0.123-0.425 0.421-0.69 0.549-0.227 0.108-0.524-0.013-0.745 0.016-0.302 0.038-0.561 0.204-0.814 0.324-0.261 0.126-0.61 0.477-0.852 0.562-0.313 0.112-0.67-0.15-0.984-0.133-0.259 0.014-0.38 0.15-0.617 0.249-0.195 0.084-0.433 0.091-0.612 0.181-0.19 0.255-0.792 0.263-1.063 0.234-0.313-0.034-0.63-0.22-0.932-0.306-0.363-0.103-0.711-0.018-1.044-0.103-0.66-0.17-0.656-0.869-0.523-1.386 0.133-0.524 0.387-1.039 0.401-1.592 0.017-0.606-0.147-1.294-0.203-1.907-0.035-0.388-0.208-0.766-0.476-1.018-0.005-0.013-0.007-0.026-0.013-0.038-0.058-0.149-0.154-0.258-0.27-0.336-0.19-0.37-0.501-0.535-0.895-0.321-0.316 0.171-0.64 0.636-1.027 0.613-0.211-0.013-0.263 0.279-0.136 0.402 0.22 0.21 0.246 0.45 0.164 0.733-0.017 0.059-0.010 0.11 0.011 0.15-0.011 0.062-0.020 0.123-0.024 0.183-0.034 0.459 0.085 1.538 0.787 1.267 0.484-0.186 0.593-1.010-0.081-0.886-0.005 0.062-0.026 0.181-0.020 0.228-0.13-0.493 0.236-0.643 0.605-0.43 0.641 0.368 0.528 1.357-0.033 1.746-0.743 0.518-1.804-0.069-2.101-0.78-0.221-0.528-0.102-1.117-0.184-1.672-0.078-0.53-0.286-0.962-0.007-1.47 0.377-0.685 0.95-1.667 1.82-1.848 0.472-0.098 1.15 0.276 1.542 0.52 0.92 0.571 1.11 1.956 1.283 2.923 0.116 0.647 0.089 1.245 0.021 1.895-0.027 0.253-0.137 0.633 0.028 0.862 0.585 0.81 1.902 0.115 2.6 0.016-0.476-0.235-1.242-0.681-1.293-1.248-0.041-0.466 0.101-0.809-0.026-1.297-0.17-0.663-0.173-1.307-0.241-1.982-0.055-0.556-0.173-1.065-0.169-1.643 0.002-0.327 0.119-0.787-0.078-1.096-0.314-0.497-1.102-0.45-1.627-0.493-0.343-0.027-0.726-0.021-1.031-0.215-0.641-0.409-0.531-1.087-0.881-1.627-0.27 0.010-0.415 0.239-0.646 0.268-0.235 0.027-0.517-0.092-0.742-0.163-0.439-0.139-1.056-0.326-1.446-0.578-0.263-0.17-0.351-0.396-0.556-0.615-0.408-0.433-0.229-0.026-0.661-0.12-0.336-0.072-0.782-0.708-1.068-1.301-0.069 0.279-0.221 0.62-0.074 0.828 0.047 0.067 0.289 0.069 0.361 0.142 0.154 0.153 0.293 0.293 0.411 0.506 0.287 0.528 0.293 0.942 0.146 1.511-0.117 0.453-0.217 0.716-0.040 1.144 0.211 0.514 0.862 1.039 0.811 1.657-0.013 0.15 0.236 0.684 0.164 0.802-0.072 0.057-0.297 0.477-0.833 0.595-2.547 0.549-2.627-3.035-1.075-1.879-1.124-0.203-0.423 1.402 0.742 1.29 0.136-0.014 0.559-0.186 0.538-0.537-0.020-0.344-0.195-0.738-0.411-0.936-0.245-0.225-0.53-0.405-0.726-0.678-0.368-0.508-0.29-0.913-0.167-1.476 0.103-0.467 0.195-1.089-0.234-1.337 0.005-0.027 0.008-0.055 0.014-0.082-0.585-0.234-1.764-0.472-1.323-1.447 0.115-0.251 0.395-0.285 0.374-0.581-0.014-0.194-0.244-0.354-0.297-0.554-0.071-0.266-0.071-0.556-0.016-0.843 0.052-0.014 0.099-0.052 0.126-0.123 0.169-0.452 0.566-0.892 0.932-1.198 0.435-0.363 0.745-0.091 0.868 0.304-0.122 0.195-0.2 0.413-0.2 0.627-0.001 0.075 0.214 0.949 0.214 0.949 0.995 0.222 1.415 1.314 1.994 2.019 0.92 1.119 2.065 0.626 3.338 0.664 1.528 0.045 0.573 1.747 2.072 1.941 0.573 0.075 1.133-0.344 1.617-0.287 0.484 0.058 0.65 0.776 0.718 1.144 0.205 1.141-0.115 2.244-0.384 3.333-0.272 1.102 0.639 2.304 1.107 3.301 0.634 1.357 2.188 0.396 3.043-0.188 0.275-0.187 0.814-0.697 1.163-0.745 0.215-0.031 0.426 0.095 0.63 0.137-0.146-1.001-1.703-0.261-2.181-0.161-0.884 0.183-1.644-0.059-2.339-0.677-0.827-0.738-0.127-2.761 0.99-2.981 0.598-0.117 0.371 0.569 0.886 0.615 0.496 0.043 0.916-0.538 0.715-0.988-0.245-0.545-0.932-0.564-0.701-1.338 0.146-0.491 0.402-0.402 0.664-0.426-0.119 0.095-0.174 0.244-0.222 0.439-0.125 0.514 0.14 0.657 0.459 0.998 0.48 0.515 0.494 1.097 0.031 1.655-0.756-0.183-1.738 1.579-1.6-0.215-0.44-0.074-0.794 0.324-0.923 0.736-0.218 0.707 0.518 1.066 1.178 1.182 1.020 0.18 1.623-0.348 2.431-0.811 0.3-0.173 0.719-0.377 1.079-0.329-0.193-0.157-0.443-0.208-0.624-0.391-0.358-0.361-0.395-0.858-0.361-1.327 0.038-0.513 0.163-0.766-0.002-1.274-0.17-0.517-0.435-1.044-0.439-1.6-0.589 0.217-0.953-0.845-1.593-0.814-0.255 0.011-0.413 0.169-0.742 0.101-0.263-0.054-0.684-0.231-0.796-0.498-0.266-0.633 0.518-1.141-0.313-1.636-0.266-0.159-1.124-0.389-1.238-0.018-0.772-0.544-0.746 0.102-1.335 0.589-0.558-0.63-1.381-0.176-1.583-1.228-0.068-0.351 0.034-0.986 0.418-1.161 0.255-0.116 0.412 0.037 0.596 0.112-0.564-0.050-0.69 1.492 0.371 1.471 0.387-0.007 0.387-0.269 0.617-0.455 0.518-0.415 1.096-0.329 1.706-0.096 0.61 0.231 1.028 0.629 1.362 1.164 0.249 0.401 0.266 0.735 0.667 0.93 0.96 0.466 2.937 0.387 3.467 1.459 0.149 0.302 0.054 0.524 0.075 0.821 0.021 0.304 0.144 0.632 0.238 0.933 0.285 0.905 0.43 1.403 1.206 1.722-0.721-0.357-0.895-1.194-0.674-2.011 0.096-0.357 0.28-0.506 0.474-0.807 0.334-0.517 0.102-0.159-0.054-0.681-0.144-0.487 0.047-1.466 0.224-1.927-0.668-0.336-0.609-0.936-1.037-1.434-0.324-0.378-0.813-0.612-1.266-0.728-0.268-0.068-0.926-0.081-0.834-0.566-0.382 0.508-1.501 0.487-2.059 0.382-0.344-0.065-0.845-0.217-1.069-0.494-0.244-0.303-0.169-0.976-0.456-1.235-0.411-0.371-0.886-0.181-1.141-0.851-0.246-0.647-0.127-1.082-0.129-1.72-0.001-0.447-0.174-0.981-0.402-1.354-0.348-0.566-0.484-0.609-1.187-0.51-1.299 0.186-2.495 0.333-3.761 0.755-0.242 0.081-0.521 0.262-0.799 0.269-0.208 0.006-0.394-0.102-0.609-0.102-0.535-0.001-0.94 0.453-0.819 0.99 1.552 0.057 2.608 0.964 3.522 2.052 1.049 1.249-0.739 2.576-1.922 2.594-0.528 0.007-0.881-0.061-0.974-0.616-0.052-0.314-0.031-0.661 0.14-0.834-0.319 0.675 0.596 0.814 1.021 0.748 0.548-0.085 1.468-0.622 1.294-1.317-0.098-0.395-0.85-1.069-1.165-1.324-0.566-0.456-1.133-0.255-1.815-0.268-0.707-0.014-1.708-0.115-1.791-0.998-0.062-0.657 0.452-1.211 1.014-1.396 0.436-0.144 0.868-0.292 1.294-0.494 0.113-0.054 0.234-0.099 0.355-0.142 0.32 0.043 0.589 0.017 0.91-0.119 0.249-0.106 0.436-0.184 0.639-0.229 0.054-0.008 0.109-0.018 0.163-0.027 0.116-0.014 0.241-0.020 0.391-0.010 0.211 0.013 0.418 0.034 0.627-0.007 0.656-0.126 1.175-0.481 1.879-0.508 0.549-0.021 1.107-0.222 1.654-0.253 0.136 0.030 0.266 0.076 0.389 0.144 0.85 0.472 0.732 1.279 0.749 2.118 0.017 0.875 0.389 2.079 1.137 2.613 0.166 0.117 0.333 0.197 0.504 0.249 0.2 0.457 0.711 0.504 1.197 0.404 0.286 0.125 0.596 0.221 0.857 0.16 0.041 0.028 0.089 0.057 0.153 0.081 0.67 0.249 1.398-0.126 2.086 0.146 0.047 0.020 0.096 0.020 0.142 0.009 0.821 0.719 0.977 1.587 1.495 2.506 0.005 0.007 0.010 0.014 0.013 0.021 0.113-0.364 0.266-0.736 0.19-1.114-0.045-0.228-0.144-0.49-0.265-0.695-0.062-0.106-0.225-0.244-0.239-0.365-0.020-0.181 0.195-0.357 0.2-0.532 0.002-0.154-0.083-0.273-0.144-0.416-0.236-0.562-0.473-1.102-0.569-1.688-0.057-0.347-0.18-0.445-0.344-0.725-0.159-0.268 0.069-0.412-0.017-0.651-0.109-0.3-0.871-0.579-1.107-0.361-0.123 0.112-0.137 0.36-0.248 0.49-0.154 0.183-0.371 0.248-0.559 0.385-0.14 0.103-0.32 0.326-0.501 0.378-0.428 0.127-1.209-0.201-1.474-0.491-0.18-0.198-0.496-0.861-0.463-1.141 0.028-0.244 0.115-0.248 0.314-0.415 0.119-0.099 0.156-0.144 0.256-0.256 0.371-0.422 1.045-0.418 1.204 0.016 0.069 0.191-0.105 0.935-0.462 0.872-0.2-0.035-0.35-0.143-0.317-0.338-0.030 0.338 0.466 0.134 0.436-0.143-0.043-0.395-0.624-0.262-0.794-0.057-0.848 1.022 1.845 2.019 1.992 0.576 0.038-0.388-0.050-0.623 0.395-0.664 0.184-0.017 0.353 0.030 0.538 0.034 0.142 0.003 0.316-0.088 0.456-0.057 0.178 0.041 0.456 0.249 0.61 0.353 0.34 0.229 0.396 0.497 0.493 0.898 0.283 1.191 0.598 2.26 1.3 3.288 0.637 0.933 1.112 1.807 0.898 2.948-0.116 0.623-0.241 1.262-0.507 1.837-0.016 0.035-0.034 0.069-0.052 0.103-0.142 0.329-0.329 0.687-0.268 1.024 0.11 0.615 0.457 1.398 0.684 1.95 0.334 0.819 0.716 1.090 1.494 0.644 0.246-0.14 0.68-0.338 0.952-0.592-0.103 0.483-0.238 0.949-0.514 1.392zM31.956 17.537c0.045-0.269-0.127-0.53-0.289-0.766v0.16c-0.018 0-0.037 0.001-0.055 0.002-0.009-0.127-0.041-0.261-0.020-0.384 0.069-0.406 0.163-0.809 0.235-1.213 0.020-0.115 0.016-0.241-0.011-0.353-0.091-0.374-0.191-0.745-0.296-1.114-0.086-0.307-0.173-0.613-0.279-0.915-0.062-0.178-0.157-0.348-0.246-0.517-0.037-0.069-0.101-0.123-0.147-0.187-0.021-0.028-0.034-0.061-0.047-0.093-0.068-0.191 0.086-0.388-0.021-0.581-0.037-0.064-0.055-0.143-0.065-0.217-0.028-0.212-0.045-0.426-0.071-0.639-0.005-0.037-0.014-0.076-0.034-0.105-0.117-0.163-0.241-0.321-0.355-0.486-0.020-0.030-0.008-0.079-0.014-0.134-0.265-0.239-0.385-0.613-0.664-0.883-0.252-0.242-0.411-0.581-0.612-0.875-0.132-0.194-0.27-0.385-0.399-0.582-0.112-0.171-0.294-0.286-0.313-0.535-0.009-0.134-0.154-0.276-0.268-0.382-0.229-0.214-0.479-0.405-0.719-0.606-0.005 0.037-0.009 0.078-0.014 0.12-0.014 0.006-0.030 0.011-0.044 0.018-0.096-0.142-0.19-0.283-0.286-0.423-0.064-0.091-0.13-0.178-0.195-0.268-0.048-0.067-0.098-0.132-0.144-0.2-0.076-0.113-0.15-0.231-0.228-0.344-0.027-0.040-0.065-0.071-0.093-0.108-0.115-0.153-0.222-0.31-0.347-0.455-0.031-0.037-0.109-0.040-0.169-0.047-0.084-0.011-0.174 0.001-0.253-0.021-0.337-0.098-0.675-0.195-1.005-0.316-0.134-0.048-0.266-0.133-0.368-0.232-0.314-0.303-0.707-0.508-1.003-0.843-0.156-0.177-0.408-0.273-0.626-0.388-0.244-0.127-0.496-0.235-0.746-0.348-0.136-0.061-0.273-0.142-0.418-0.161-0.282-0.041-0.569-0.041-0.852-0.068-0.329-0.033-0.668-0.006-0.973-0.173-0.326-0.178-0.681-0.146-1.031-0.151-0.026 0-0.058 0.005-0.074 0.020-0.157 0.147-0.336 0.085-0.508 0.052-0.027-0.006-0.041-0.069-0.071-0.123-0.079-0.010-0.181-0.034-0.285-0.035-0.218-0.005-0.437 0.005-0.656 0.007-0.228 0.005-0.456 0.023-0.683 0.005-0.212-0.017-0.421-0.072-0.632-0.112-0.005 0-0.006-0.011-0.010-0.013-0.085-0.007-0.18-0.042-0.255-0.017-0.197 0.067-0.394 0.144-0.572 0.249-0.093 0.054-0.244 0.082-0.241 0.248 0 0.023-0.038 0.054-0.067 0.069-0.108 0.061-0.22 0.118-0.33 0.176 0.001-0.018 0.001-0.035 0.002-0.052-0.033-0.007-0.067-0.026-0.096-0.018-0.16 0.033-0.317 0.078-0.479 0.106-0.064 0.011-0.137-0.027-0.201-0.017-0.251 0.042-0.5 0.096-0.749 0.144-0.306 0.059-0.613 0.118-0.919 0.177-0.043 0.009-0.086 0.040-0.126 0.034-0.282-0.041-0.521 0.112-0.782 0.166-0.047 0.010-0.082 0.069-0.122 0.106 0.007 0.007 0.016 0.014 0.024 0.021l0.238-0.076c0.006 0.016 0.011 0.031 0.017 0.047-0.166 0.112-0.331 0.224-0.497 0.336-0.007-0.023-0.016-0.047-0.023-0.069-0.059 0.005-0.127-0.010-0.174 0.016-0.143 0.081-0.277 0.177-0.415 0.269-0.224 0.147-0.436 0.313-0.673 0.437-0.17 0.091-0.38 0.101-0.552 0.187-0.406 0.204-0.811 0.416-1.076 0.811-0.098 0.144-0.21 0.279-0.337 0.447-0.030-0.059-0.045-0.091-0.057-0.113-0.307 0.259-0.418 0.62-0.609 0.929-0.174 0.282-0.354 0.569-0.583 0.803-0.28 0.283-0.62 0.507-0.923 0.767-0.3 0.259-0.355 0.637-0.447 0.994-0.037 0.144-0.069 0.29-0.105 0.436-0.017-0.005-0.034-0.007-0.051-0.011 0.005-0.044 0.010-0.086 0.014-0.13-0.072 0.071-0.099 0.159-0.146 0.234-0.101 0.16-0.21 0.314-0.317 0.469-0.027 0.041-0.068 0.072-0.096 0.112-0.169 0.251-0.336 0.501-0.5 0.755-0.028 0.044-0.040 0.102-0.052 0.154-0.067 0.283-0.123 0.569-0.2 0.85-0.072 0.259-0.163 0.511-0.246 0.766l-0.041-0.011c-0.009-0.026-0.017-0.051-0.021-0.065-0.030 0.16-0.074 0.324-0.091 0.491-0.020 0.212-0.011 0.429-0.030 0.643-0.020 0.218 0.024 0.446-0.095 0.656-0.067 0.116-0.125 0.248-0.146 0.38-0.096 0.573-0.169 1.147-0.469 1.668-0.215 0.374-0.232 0.8-0.157 1.212 0.122 0.675 0.241 1.354 0.507 1.992 0.016 0.037 0.058 0.064 0.082 0.098 0.089 0.136 0.176 0.275 0.263 0.411-0.010 0.007-0.020 0.014-0.030 0.021-0.033-0.014-0.065-0.028-0.096-0.044 0.147 0.197 0.174 0.439 0.105 0.622-0.076 0.205-0.069 0.363 0.020 0.541 0.008-0.017 0.018-0.033 0.048-0.086 0.014 0.156 0.026 0.275 0.035 0.392 0.011 0.126 0.014 0.253 0.035 0.378 0.122 0.701 0.402 1.351 0.647 2.015s0.69 1.212 1.044 1.813c0.187 0.316 0.443 0.605 0.755 0.833 0.35 0.258 0.704 0.504 0.949 0.891 0.171 0.273 0.44 0.489 0.68 0.714 0.381 0.358 0.767 0.711 1.165 1.049 0.619 0.527 1.222 1.083 2.065 1.235 0.057 0.010 0.116 0.001 0.173 0.011 0.198 0.034 0.408 0.043 0.59 0.119 0.186 0.076 0.34 0.224 0.513 0.337 0.028 0.018 0.069 0.016 0.106 0.021 0.055 0.010 0.125 0.001 0.166 0.031 0.333 0.238 0.68 0.439 1.082 0.547 0.286 0.076 0.562 0.186 0.841 0.286 0.092 0.033 0.178 0.115 0.268 0.117 0.346 0.008 0.651 0.163 0.98 0.229 0.483 0.099 0.963 0.231 1.434-0.051 0.051-0.031 0.134-0.014 0.203-0.007 0.068 0.006 0.137 0.047 0.201 0.040 0.634-0.078 1.269-0.164 1.903-0.245 0.319-0.041 0.64-0.076 0.959-0.116 0.253-0.033 0.507-0.059 0.758-0.103 0.316-0.057 0.627-0.13 0.94-0.195 0.016-0.003 0.034 0.001 0.049-0.001 0.147-0.023 0.313-0.013 0.437-0.079 0.377-0.197 0.739-0.422 1.106-0.639 0.112-0.065 0.207-0.193 0.361-0.078 0.016 0.011 0.061-0.014 0.089-0.028 0.381-0.195 0.792-0.292 1.209-0.357 0.294-0.045 0.422-0.276 0.59-0.466 0.017-0.018 0.007-0.061 0.011-0.116-0.059 0.052-0.102 0.089-0.144 0.126-0.013-0.007-0.024-0.016-0.037-0.023 0.044-0.075 0.074-0.169 0.136-0.221 0.261-0.218 0.515-0.442 0.772-0.66 0.38-0.324 0.673-0.746 1.13-0.987 0.174-0.092 0.307-0.262 0.462-0.394 0.031-0.027 0.074-0.040 0.113-0.055 0.35-0.133 0.684-0.283 0.85-0.659 0.143-0.321 0.286-0.643 0.452-0.953 0.081-0.15 0.201-0.287 0.326-0.406 0.501-0.476 1.035-0.92 1.355-1.558 0.11-0.22 0.261-0.419 0.389-0.632 0.040-0.065 0.074-0.134 0.101-0.205 0.112-0.304 0.235-0.606 0.327-0.915 0.086-0.287 0.146-0.585 0.208-0.879 0.047-0.218 0.067-0.443 0.123-0.66 0.076-0.29 0.225-0.572 0.253-0.865 0.027-0.302 0.091-0.588 0.159-0.878 0.028-0.119 0.093-0.246 0.071-0.355-0.050-0.239-0.16-0.449-0.113-0.724z"></path>
</svg>
