<!-- Generated by IcoMoon.io -->
<svg version="1.1" xmlns="http://www.w3.org/2000/svg" width="32" height="32" viewBox="0 0 32 32">
<title>return_to_the_path_to_carcosa</title>
<path d="M14.425 3.001c-0.049 0.027-0.094 0.052-0.14 0.076-0.031 0.013-0.062 0.027-0.089 0.041-0.056 0.022-0.108 0.047-0.158 0.067-0.101 0.040-0.192 0.075-0.263 0.11l0.16-0.11c-0.097 0.066-0.179 0.11-0.265 0.156l0.121-0.009c-0.105 0.047-0.188 0.090-0.197 0.071-0.086 0.085 0.118 0.031-0.066 0.181-0.072 0.026-0.17 0.087-0.259 0.139-0.045 0.025-0.090 0.045-0.126 0.060-0.019 0.006-0.034 0.013-0.048 0.014-0.009 0-0.015-0.003-0.021-0.011 0.006-0.001 0.035-0.016 0.053-0.025 0.021-0.011 0.038-0.022 0.053-0.028 0.027-0.015 0.043-0.026 0.053-0.034 0.017-0.017 0.006-0.022-0.009-0.023-0.028-0.007-0.070-0.013 0.107-0.115-0.066 0.044-0.148 0.089-0.254 0.137-0.018 0.001 0.008-0.022 0.034-0.039-0.028 0.011-0.072 0.029-0.078 0.030-0.004-0.001-0.004-0.001-0.007 0-0.004-0.001-0.005 0.001-0.005 0.002-0.009 0.002-0.036 0.006-0.046 0.011-0.030 0.009-0.049 0.020-0.075 0.032-0.050 0.023-0.122 0.049-0.323 0.053 0.040-0.026-0.024-0.041-0.094-0.050 0.045 0.018-0.043 0.059-0.174 0.082-0.304-0.021-0.329 0.028-0.489 0.028l0.181 0.009c-0.028 0.018-0.081 0.029-0.149 0.035-0.071 0.005-0.163 0.009-0.27 0.016-0.008 0.002-0.019 0.005-0.028 0.011-0.007-0.005 0.004-0.014 0.025-0.025-0.079 0.030-0.117 0.041-0.179 0.057-0.060 0.010-0.122 0.021-0.187 0.034-0.127 0.023-0.262 0.053-0.391 0.115-0.153 0.023-0.034-0.061-0.167-0.035-0.129 0.062-0.22 0.086-0.3 0.103-0.040 0.009-0.076 0.014-0.117 0.023-0.021 0.004-0.041 0.010-0.064 0.014-0.012 0.004-0.024 0.005-0.036 0.009-0.022 0.006-0.042 0.013-0.064 0.019-0.021 0.013-0.043 0.026-0.066 0.039-0.013 0.007-0.028 0.018-0.043 0.027-0.030 0.019-0.061 0.043-0.094 0.069 0.12-0.017 0.13-0.036-0.078 0.148l0.313-0.215 0.284-0.11-0.126 0.069c-0.048 0.023-0.071 0.039-0.146 0.071-0.057 0.043-0.077 0.066-0.11 0.096 0.039-0.025 0.080-0.052 0.119-0.078 0.042-0.015 0.082-0.032 0.121-0.046 0.036-0.014 0.068-0.029 0.1-0.041 0.065-0.027 0.123-0.047 0.167-0.059-0.173 0.1-0.16 0.082-0.060 0.092-0.054 0.001-0.105 0.011-0.155 0.023-0.025 0.006-0.051 0.016-0.075 0.025l-0.087 0.034c-0.068 0.050-0.137 0.1-0.21 0.155-0.068 0.049-0.142 0.095-0.229 0.13l-0.055-0.107c-0.305 0.14-0.533 0.343-0.814 0.537-0.091 0.049-0.229 0.116-0.368 0.171l0.183-0.060c-0.053 0.076-0.332 0.159-0.498 0.256-0.001-0.044-0.115-0.006-0.201 0.002 0.019 0.024-0.392 0.177-0.412 0.275l-0.071 0.021-0.064 0.046-0.048 0.030-0.092 0.059c-0.361 0.314-0.314 0.461-0.656 0.768 0.070-0.127-0.101-0.002 0.098-0.238-0.11 0.106-0.214 0.195-0.195 0.217-0.018 0.009-0.043 0.032-0.069 0.059-0.029 0.032-0.063 0.073-0.099 0.115-0.032 0.060-0.069 0.125-0.101 0.185-0.031 0.052-0.061 0.097-0.091 0.124-0.022 0.063 0.002 0.104-0.092 0.245-0.018 0.012-0.019-0.011-0.019-0.011 0.018 0.011-0.124 0.24-0.004 0.139-0.082 0.072-0.162 0.168-0.242 0.277-0.040 0.052-0.079 0.109-0.117 0.169-0.036 0.054-0.072 0.11-0.108 0.165-0.062 0.056-0.126 0.113-0.188 0.169-0.066 0.056-0.132 0.113-0.194 0.167-0.127 0.105-0.249 0.191-0.355 0.242-0.136 0.127-0.284 0.266-0.419 0.393-0.066 0.188-0.127 0.359-0.178 0.508-0.005-0.023-0.018-0.008 0.005-0.060-0.18 0.38 0.020 0.281-0.183 0.714-0.146 0.206 0.052-0.249-0.023-0.116-0.043 0.005-0.073 0.049-0.103 0.119-0.014 0.035-0.029 0.077-0.044 0.121-0.011 0.040-0.033 0.105-0.034 0.119-0.004 0.011-0.027 0.046-0.052 0.080l-0.069 0.103c-0.048 0.065-0.101 0.124-0.156 0.169l0.041-0.067c-0.182 0.169-0.316 0.513-0.562 0.83 0 0-0.001-0.023-0.018-0.014-0.006 0.021-0.021 0.055-0.050 0.103-0.014 0.076-0.032 0.164-0.050 0.259-0.018 0.086-0.039 0.179-0.062 0.274-0.047 0.189-0.099 0.385-0.144 0.556-0.013-0.129 0.026-0.174-0.046-0.123-0.047 0.168 0.095-0.021 0.004 0.313-0.027 0.044-0.055 0.097-0.094 0.172-0.035 0.104-0.069 0.184-0.105 0.201l0.030-0.219 0.041-0.124c-0.012 0.015-0.027 0.028-0.037 0.046-0.010 0.015-0.018 0.036-0.032 0.071-0.004 0.025-0.009 0.047-0.014 0.073l-0.011 0.062c-0.004 0.041-0.003 0.083-0.005 0.124-0.004 0.083-0.008 0.163-0.025 0.229l-0.028-0.028c-0.062 0.483 0.012 0.52-0.064 1.009-0.001 0.006-0.005 0.016-0.007 0.025 0.006-0.010 0.013-0.017 0.019-0.023 0.005-0.005 0.011-0.008 0.016-0.018 0.001 0.012 0.001 0.016 0.002 0.021 0 0.267-0.104 0.209-0.115 0.496l-0.101 0.066c-0.030 0.19-0.081 0.678-0.165 1.015 0.004-0.202 0.064-0.606 0.094-0.858-0.032 0.123-0.063 0.314-0.094 0.492 0.012 0.247-0.056 0.547-0.164 0.913-0.043-0.035-0.094 0.054-0.148 0.197-0.027 0.071-0.054 0.158-0.084 0.249-0.032 0.102-0.065 0.21-0.098 0.314 0.005 0.037 0.012 0.076 0.018 0.112 0.002 0.026 0.005 0.050 0.009 0.075 0.005 0.047 0.013 0.095 0.016 0.139 0.005 0.085 0.003 0.156-0.009 0.208 0.044 0.16 0.079 0.324 0.11 0.489 0.014 0.083 0.029 0.166 0.044 0.251 0.013 0.089 0.027 0.177 0.041 0.268 0.056 0.173 0.112 0.351 0.171 0.533 0.058 0.177 0.12 0.36 0.19 0.547 0.021-0.304 0.081 0.214 0.183 0.126 0.030 0.078 0.050 0.131 0.064 0.167 0.004 0.027 0.008 0.064 0.005 0.069v0.002l0.012 0.561c-0.015 0.136-0.055-0.169-0.080-0.148 0.054 0.397-0.025 0.175-0.016 0.442 0.036-0.061 0.084 0.128 0.105 0.357l0.007-0.327c0.074 0.261 0.068 0.37 0.066 0.508 0.010 0.154 0.005 0.264 0.114 0.549l-0.082-0.164c0.037 0.109 0.086 0.293 0.14 0.49 0.030 0.1 0.059 0.202 0.087 0.302 0.017 0.048 0.034 0.097 0.048 0.144 0.019 0.052 0.038 0.101 0.053 0.148 0.022 0.048 0.027 0.055 0.039 0.078 0.013 0.019 0.023 0.037 0.034 0.053 0.022 0.035 0.047 0.066 0.067 0.089 0.005 0.053-0.002 0.128-0.059 0.012 0.071 0.188 0.156 0.386 0.245 0.581 0.093 0.202 0.188 0.405 0.277 0.599 0.050 0.070 0.1 0.136 0.148 0.201 0.041 0.059 0.082 0.117 0.121 0.174 0.078 0.114 0.144 0.222 0.197 0.325l-0.053-0.028c0.079 0.104 0.174 0.157 0.24 0.309-0.017 0-0.057-0.027-0.025 0.023 0.015 0.018 0.049 0.056 0.091 0.101 0.019 0.023 0.039 0.047 0.062 0.073 0.023 0.030 0.040 0.046 0.080 0.103 0.029 0.026 0.058 0.055 0.085 0.080 0.022 0.022 0.040 0.041 0.059 0.062l-0.13-0.078c0.463 0.501 0.806 0.664 1.233 1.040-0.063 0.065 0.303 0.448 0.487 0.64l-0.016 0.002c0.14 0.133 0.272 0.252 0.402 0.364 0.124 0.118 0.245 0.228 0.364 0.334 0.122 0.107 0.238 0.212 0.363 0.32 0.059 0.056 0.121 0.11 0.183 0.167 0.032 0.029 0.064 0.057 0.096 0.087 0.036 0.034 0.074 0.068 0.11 0.103 0.014 0.007 0.029 0.018 0.046 0.028 0.107 0.111 0.281 0.25 0.487 0.4 0.105 0.074 0.215 0.153 0.329 0.233 0.126 0.088 0.257 0.177 0.387 0.267 0.15 0.042 0.301 0.084 0.446 0.124 0.129 0.039 0.254 0.078 0.37 0.117-0.104-0.044 0.035-0.064 0.162-0.041 0.162 0.061 0.473 0.058 0.425 0.131l-0.057-0.018c0.015 0.017 0.039 0.034 0.066 0.050 0.012 0.007 0.025 0.015 0.041 0.023 0.019 0.006 0.010 0.004 0.016 0.011-0.007 0.001 0.046 0.035 0.084 0.057 0.042 0.025 0.082 0.050 0.126 0.075 0.088 0.048 0.18 0.099 0.263 0.144l0.091-0.073c0.096 0.084 0.21 0.164 0.334 0.242 0.061 0.039 0.124 0.079 0.188 0.116 0.072 0.040 0.145 0.077 0.219 0.117l0.224 0.075c0.067 0.021 0.135 0.040 0.201 0.060 0.133 0.041 0.266 0.081 0.384 0.117 0.238 0.076 0.432 0.154 0.538 0.24 0.027 0.005 0.034 0.005 0.091 0.019 0.082 0.011 0.171 0.022 0.259 0.032 0.084 0.009 0.167 0.020 0.242 0.023l-0.021 0.055c0.185 0.042 0.333 0.075 0.485 0.108 0.076 0.017 0.154 0.033 0.238 0.050 0.095 0.018 0.196 0.039 0.311 0.062 0.066-0.006 0.19-0.020 0.329-0.032l-0.119 0.052c0.334-0.022 0.409-0.199 0.716-0.224l0.098 0.080 0.254-0.016 0.263-0.011 0.325-0.046 0.307-0.048c0.204-0.035 0.406-0.081 0.604-0.144-0.007 0.014-0.022 0.043-0.114 0.062 0.080-0.013 0.206-0.031 0.339-0.052 0.075-0.004 0.151-0.007 0.224-0.011 0.076-0.005 0.15-0.012 0.21-0.021 0.12-0.017 0.192-0.043 0.155-0.082 0.014 0.076 0.603-0.033 0.913-0.096l-0.043 0.064c0.257-0.106 0.263-0.128 0.629-0.194 0.088-0.004 0.083 0.034-0.034 0.034 0.294-0.006 0.219-0.080 0.576-0.094l-0.126 0.053c0.146-0.017 0.214-0.029 0.265-0.044s0.081-0.033 0.185-0.067c0.001-0.001 0.006-0.006 0.011-0.009 0.025-0.018 0.052-0.040 0.082-0.062 0.023-0.015 0.050-0.030 0.076-0.048 0.054-0.034 0.112-0.069 0.169-0.098 0.111-0.057 0.213-0.096 0.245-0.085 0.017-0.049 0.132-0.172 0.29-0.256 0.031 0.004-0.018 0.047-0.041 0.069 0.104-0.056 0.19-0.112 0.267-0.164 0.039-0.029 0.074-0.052 0.11-0.078l0.048-0.037 0.030-0.023c0.015-0.009 0.062-0.026 0.105-0.039 0.042-0.014 0.081-0.030 0.123-0.043 0.082-0.023 0.165-0.042 0.259-0.050 0.012 0.015 0.033 0.019 0.064 0.018-0.228 0.057-0.426 0.11-0.54 0.139-0.023 0.014-0.041 0.025-0.052 0.030-0.017 0.011-0.023 0.012-0.018 0.009 0.011 0.021 0.081-0.005 0.089 0.007 0.014 0.005 0.021 0.011 0.028 0.019 0.004 0.009-0.001 0.025 0 0.041 0 0.003 0.001 0.007 0.002 0.011 0-0.002 0.001-0.007 0.002-0.011 0.017-0.006 0.032-0.014 0.048-0.021 0.036-0.014 0.073-0.031 0.11-0.048 0.075-0.031 0.155-0.064 0.236-0.098 0.162-0.066 0.331-0.125 0.48-0.151 0.015 0.001 0.030 0.001 0.043 0.005l-0.030 0.012c0.071-0.013 0.137-0.034 0.194-0.057 0.049-0.009 0.090-0.017 0.13-0.025 0.045-0.009 0.061-0.013 0.155-0.035 0.017 0.005 0.055 0.001 0.114-0.011 0.034-0.034 0.076-0.079 0.123-0.131 0.026-0.031 0.053-0.063 0.082-0.098 0.056-0.067 0.116-0.137 0.156-0.187-0.053-0.026 0.088-0.184-0.075-0.062 0.019-0.018-0.015 0.029-0.084 0.112-0.013 0.021-0.030 0.043-0.037 0.057 0-0.004 0.001-0.009 0.002-0.014l-0.21 0.256-0.178 0.048c0.036-0.021 0.109-0.048 0.164-0.069 0.019-0.027 0.040-0.055 0.060-0.084 0.017-0.022 0.036-0.048 0.055-0.071 0.032-0.042 0.071-0.080 0.119-0.119 0.025-0.088 0.055-0.182 0.073-0.233 0.204-0.116 0.513-0.415 0.588-0.428 0.052-0.069 0.105-0.142 0.162-0.217 0.078-0.066 0.157-0.135 0.236-0.201 0.084-0.074 0.165-0.144 0.243-0.211 0.154-0.141 0.285-0.275 0.359-0.387 0.101-0.097 0.144-0.075 0.195-0.094-0.058 0.059-0.134 0.118-0.158 0.156 0.195-0.203 0.664-0.495 0.672-0.597 0.308-0.176-0.122 0.171 0.267-0.117l-0.039 0.055c0.104-0.054 0.197-0.111 0.286-0.169 0.044-0.031 0.087-0.060 0.13-0.089 0.053-0.039 0.106-0.077 0.156-0.116l0.064-0.119 0.041-0.082 0.073-0.164c0.048-0.109 0.098-0.217 0.146-0.327 0.097-0.216 0.211-0.455 0.345-0.67 0.093-0.087 0.229-0.204 0.366-0.304-0.058 0.045-0.085 0.069-0.105 0.071 0.141-0.124 0.279-0.255 0.416-0.386l0.203-0.203 0.215-0.211c0.282-0.452 0.519-0.851 0.809-1.297l0.085-0.263 0.085-0.245c0.058-0.164 0.12-0.324 0.185-0.482 0.095-0.247 0.093-0.325 0.103-0.458 0-0.035 0.004-0.075 0.004-0.124l0.075-0.059 0.007-0.359c0.061-0.499 0.334-0.812 0.389-1.45l-0.059 0.071c0.061-0.22 0.146-0.709 0.183-0.659-0.001-0.026-0.025-0.081 0.016-0.164h0.035l0.011-0.082 0.019-0.11-0.043-0.119v0.005l-0.034-0.092-0.073-0.187c-0.091-0.423 0.144 0.034-0.014-0.579-0.075-0.224-0.267-0.622-0.265-0.531 0.023 0.092 0.044 0.239 0.014 0.256l-0.071-0.203c-0.006-0.001-0.015-0.002-0.021-0.004l-0.011-0.034 0.302-1.484-0.267-0.995 0.023 0.019-0.035-0.067-0.085-0.316c0.013 0.006 0.033 0.032 0.053 0.094-0.007-0.093-0.021-0.139-0.037-0.185-0.038-0.065-0.067-0.086-0.094-0.215-0.004-0.025 0.006-0.018 0.018 0l-0.121-0.201c0.035 0.034 0.039-0.061 0.087 0.075-0.129-0.401-0.342-0.586-0.35-0.755l0.021 0.028c-0.202-0.384-0.144-0.203-0.211-0.251l-0.004-0.011-0.035-0.252 0.080-0.215-0.069-0.050c-0.006-0.058-0.015-0.176 0.012-0.158-0.071-0.215-0.023 0.041-0.080-0.082 0.014-0.225-0.062-0.546-0.066-0.748-0.032-0.057-0.052-0.104-0.039-0.13-0.104-0.058 0.141 0.253-0.076 0.016 0.034-0.136-0.226-0.275-0.345-0.517 0.093 0.032 0.217 0.251 0.099 0.011-0.17-0.072-0.287-0.425-0.434-0.592-0.069 0.036-0.309-0.374-0.546-0.661 0.035 0.004-0.379-0.592-0.546-0.897l0.014 0.002c-0.1-0.013-0.289-0.315-0.45-0.522 0.043-0.017 0.086 0.012 0.181 0.117l-0.137-0.204c-0.053-0.034-0.105-0.091-0.201-0.217l0.082 0.021-0.073-0.098-0.099-0.084-0.087-0.071c-0.058-0.047-0.121-0.096-0.183-0.146-0.124-0.102-0.252-0.212-0.378-0.352-0.036 0.017 0.043 0.162-0.011 0.171l-0.165-0.155c0.018-0.007 0.046-0.002 0.094 0.032-0.031-0.023-0.117-0.072-0.165-0.133l0.164 0.085c-0.127-0.145-0.101-0.038-0.211-0.146 0.031-0.027-0.061-0.097-0.023-0.107 0.031 0.023 0.086 0.101 0.14 0.13-0.061-0.059-0.14-0.141-0.176-0.19-0.026-0.052-0.064-0.128-0.069-0.16-0.011 0.027-0.044 0.036-0.124-0.062-0.198-0.259-0.029-0.12-0.126-0.284-0.070-0.045-0.172-0.228-0.224-0.197-0.057-0.076-0.046-0.106-0.055-0.146-0.034-0.032-0.084-0.094-0.139-0.162-0.065-0.079-0.131-0.165-0.188-0.236-0.198-0.049-0.249-0.051-0.181 0l0.048 0.018c-0.011-0.001-0.022-0.005-0.034-0.007-0.229-0.040-0.456-0.108-0.684-0.181l-0.341-0.114c-0.109-0.036-0.212-0.071-0.318-0.105l-0.091-0.078-0.107-0.085 0.012-0.014c-0.264-0.195-0.562-0.464-0.768-0.585-0.074-0.062-0.15-0.176-0.103-0.167-0.030-0.022-0.057-0.044-0.075-0.057-0.047-0.019-0.085-0.034-0.123-0.048-0.035-0.014-0.068-0.029-0.103-0.044-0.071-0.035-0.153-0.081-0.286-0.164 0.242 0.080-0.064-0.066 0.243 0.092-0.285-0.16-0.337-0.223-0.673-0.329 0.128 0.005-0.186-0.166-0.339-0.226l0.192 0.137c-0.045-0.019-0.088-0.039-0.13-0.059-0.048-0.023-0.095-0.048-0.14-0.071-0.078-0.012-0.15-0.021-0.224-0.034l0.091-0.057c-0.322-0.084-0.623-0.087-0.905-0.096-0.14-0.004-0.275-0.010-0.407-0.027-0.129-0.018-0.252-0.060-0.37-0.117-0.181 0.013 0.349 0.102 0.185 0.126-0.298-0.067-0.591-0.225-0.686-0.242-0.166-0.049-0.263-0.054-0.35-0.052-0.044 0.002-0.082 0.005-0.128 0.007-0.022 0.001-0.048 0.001-0.073 0-0.029-0.001-0.047-0.001-0.098-0.009-0.031 0-0.064 0.002-0.101 0.002-0.032 0-0.069-0.002-0.11-0.005 0.057 0.026 0.11 0.089-0.219 0.108-0.305-0.014-0.375-0.108-0.181-0.124 0.074-0.001 0.109 0.007 0.107 0.016 0.1-0.007 0.228-0.016 0.107-0.044l-0.041 0.025c-0.151-0.029-0.572-0.032-0.471-0.071-0.233 0.021-0.103 0.038 0.069 0.053-0.254-0.028-0.447-0.024-0.645-0.027-0.093-0.006-0.221-0.019-0.357-0.039 0.063 0.019 0.12 0.053 0.057 0.046-0.589-0.084-0.264 0.022-0.665-0.004-0.224-0.057 0.089-0.080-0.316-0.085-0.245-0.048-0.047-0.068 0.052-0.080-0.044 0.001-0.087 0.001-0.13 0l-0.091-0.005c-0.036-0.004-0.070-0.006-0.105-0.011h-0.002zM15.607 5.432c0.421 0.285 0.724 0.688 0.856 1.128 0.137 0.016 0.271 0.036 0.403 0.059 0.093-0.235 0.144-0.546 0.281-0.691 0.090 0.125 0.405 0.624 0.604 0.897 0.055 0.011 0.109 0.028 0.164 0.048 0.051-0.211 0.133-0.544 0.284-0.482 0.086-0.066 0.167-0.139 0.261-0.194 0.164 0.367 0.41 0.702 0.617 1.041 0.106-0.402 0.207-0.808 0.309-1.214 0.429 0.671 0.412 1.136 0.778 1.697 0.137-0.203 0.247-0.436 0.357-0.659 0.023-0.047 0.047-0.093 0.069-0.14 0.281 0.538 0.261 1.143 0.569 1.626 0.075-0.125 0.305-0.561 0.378-0.69 0.020 0.312 0.184 0.644 0.258 0.995-0.358 1.041-0.37 2.393-0.137 3.193-1.134 0.27-2.023 0.376-2.975 0.887-0.952 0.507-2.135 1.545-2.069 2.379 1.005-1.639 3.332-2.9 5.875-2.724-0.327-0.023-0.508-1.748-0.519-1.958-0.008-0.191 0.019-0.51 0.066-0.865 0.003 0.006 0.009 0.009 0.012 0.018 0.125-0.093 0.288-0.125 0.428-0.071 0.070-0.14 0.141-0.281 0.211-0.425 0.409 0.448 0.658 1.052 0.686 1.672 0.074-0.234 0.226-0.44 0.421-0.581 0.12 1.553 0.12 3.116 0.004 4.668 0.006 0.281 0.006 0.562-0.011 0.839-0.039 0.995-0.647 4.049-1.279 4.459-1.166 0.757-1.78 2.504-2.143 3.757-0.378 1.314-1.158 2.415-1.626 3.695-0.183 0.499-0.386 1.056-0.901 1.342-0.636 0.354-1.514 0.26-2.216 0.213-0.012 0-0.022-0.002-0.034-0.002s-0.024 0.002-0.036 0.002c-0.698 0.047-1.58 0.141-2.216-0.213-0.514-0.286-0.718-0.842-0.897-1.342-0.472-1.279-1.252-2.38-1.635-3.695-0.358-1.252-0.974-3-2.136-3.757-0.632-0.409-1.242-3.464-1.285-4.459-0.027-0.757 0.005-1.52 0.119-2.273-0.040-1.027 0.039-2.056 0.242-3.058 0.051 0.047 0.1 0.093 0.151 0.144 0.32-0.527 0.637-1.054 0.956-1.58 0.024-0.118 0.043-0.235 0.066-0.352 0.179 0.285 0.255 0.609 0.258 0.949 0.016-0.015 0.028-0.027 0.039-0.044 0.051 0.394 0.084 0.757 0.078 0.96-0.016 0.211-0.191 1.936-0.519 1.958 2.539-0.176 4.864 1.086 5.875 2.724 0.066-0.835-1.136-1.872-2.088-2.379-0.952-0.511-1.841-0.617-2.977-0.887 0.211-0.714 0.232-1.88-0.021-2.866 0.055-0.405 0.439-1.088 0.576-1.43 0.094 0.136 0.309 0.371 0.457 0.549 0.020-0.015 0.039-0.031 0.059-0.043-0.024-0.281 0.137-0.7 0.183-1.148 0.192 0.148 0.413 0.437 0.617 0.59 0.183-0.11 0.374-0.218 0.565-0.316 0.117-0.417 0.469-0.718 0.613-1.096 0.133 0.277 0.348 0.449 0.652 0.574 0.066-0.020 0.136-0.035 0.203-0.052 0.164-0.238 0.457-0.624 0.457-0.624s0.296 0.223 0.483 0.414c0.11-0.012 0.218-0.033 0.327-0.044 0.297-0.393 0.581-0.635 0.851-1.123zM10.427 14.47c-0.552-0.038-1.102 0.013-1.496 0.231 0.316 1.019 1.519 1.742 2.482 2.022 0.721 0.211 1.376 0.168 2.109 0.062 0.226-0.027 0.398-0.070 0.476-0.171 0.079-0.094 0.070-0.248-0.055-0.494-0.129-0.254-0.352-0.456-0.578-0.624-0.425-0.32-0.931-0.537-1.43-0.716-0.402-0.144-0.957-0.273-1.509-0.311zM20.836 14.47c-0.552 0.038-1.107 0.168-1.511 0.313-0.495 0.179-1.003 0.397-1.427 0.716-0.227 0.168-0.45 0.37-0.578 0.624-0.125 0.246-0.133 0.398-0.059 0.492 0.082 0.101 0.25 0.142 0.476 0.171 0.733 0.106 1.389 0.15 2.115-0.060 0.964-0.281 2.165-1.004 2.481-2.022-0.396-0.218-0.946-0.271-1.498-0.233zM15.685 18.141c-0.021-0-0.042 0.060-0.064 0.181-0.312 1.869-1.685 2.589-1.685 2.589l0.137 0.018c0.522-0.289 1.248-0.144 1.622 0.32 0.324-0.398 0.964-0.513 1.466-0.434v-0.002c0.090 0.011 0.078-0.041 0.167-0.011 0 0-1.298-0.605-1.587-2.484-0.018-0.117-0.036-0.178-0.057-0.178z"></path>
</svg>
