<!-- Generated by IcoMoon.io -->
<svg version="1.1" xmlns="http://www.w3.org/2000/svg" width="34" height="32" viewBox="0 0 34 32">
<title>return_to_the_devourer_below</title>
<path d="M30.902 12.712c0 0.016-0.002 0.023-0.004 0.030l-0.023-0.13c0.007 0.033 0.017 0.064 0.026 0.1zM26.161 16.53c-0.171-0.113-0.373-0.153-0.547-0.264-0.203-0.129-0.412-0.236-0.657-0.256-0.28-0.024-0.515 0.052-0.782 0.121-0.227 0.058-0.458 0.113-0.679 0.195-0.181 0.068-0.356 0.149-0.536 0.216-0.436 0.165-0.822 0.56-1.069 0.944-0.202 0.316-0.382 0.655-0.523 1.001-0.058 0.141-0.145 0.275-0.189 0.42-0.047 0.153-0.031 0.312-0.033 0.469-0.003 0.183 0.044 0.356 0.081 0.533 0.029 0.137 0.062 0.27 0.116 0.4 0.13 0.312 0.266 0.615 0.43 0.911 0.151 0.272 0.394 0.412 0.613 0.619 0.138 0.13 0.279 0.23 0.38 0.394 0.080 0.131 0.086 0.296 0.106 0.442 0.021 0.157 0.1 0.335 0.065 0.491-0.045 0.206-0.308 0.337-0.461 0.457-0.114 0.089-0.227 0.182-0.361 0.239-0.175 0.074-0.37 0.062-0.546 0.126-0.108 0.040-0.121 0.050-0.178-0.049-0.058-0.102-0.138-0.125-0.235-0.182-0.088-0.052-0.171-0.114-0.239-0.19-0.037-0.040-0.070-0.082-0.1-0.126-0.158-0.231-0.266-0.502-0.364-0.761-0.105-0.267-0.279-0.501-0.39-0.765-0.142-0.339-0.307-0.664-0.389-1.025-0.074-0.327-0.040-0.672-0.040-1.004 0-0.283 0.020-0.56 0.033-0.841 0.007-0.166 0.050-0.305 0.098-0.461 0.051-0.155 0.074-0.319 0.122-0.474 0.048-0.161 0.108-0.325 0.175-0.477 0.073-0.17 0.195-0.308 0.27-0.475 0.224-0.507 0.636-0.908 1.135-1.149 0.182-0.090 0.375-0.142 0.563-0.218 0.13-0.053 0.258-0.114 0.39-0.165 0.141-0.052 0.279-0.028 0.417-0.094 0.123-0.060 0.231-0.15 0.36-0.197 0.078-0.027 0.159-0.033 0.239-0.062 0.121-0.044 0.232-0.109 0.349-0.163 0.174-0.082 0.394-0.11 0.583-0.072 0.062 0.013 0.125 0.034 0.19 0.044 0.264 0.041 0.544 0.016 0.805 0.084 0.15 0.038 0.283 0.036 0.421 0.11 0.187 0.104 0.305 0.259 0.467 0.39 0.147 0.12 0.291 0.244 0.43 0.375 0.090 0.084 0.177 0.171 0.26 0.263 0.056 0.062 0.11 0.125 0.166 0.189 0.080 0.090 0.161 0.181 0.238 0.272 0.155 0.183 0.224 0.368 0.29 0.596 0.048 0.171 0.052 0.309 0.050 0.486 0 0.133 0.015 0.274-0.007 0.405-0.017 0.1-0.038 0.201-0.054 0.3-0.011 0.066 0.005 0.137-0.016 0.202-0.024 0.080-0.086 0.15-0.114 0.23-0.048 0.129-0.049 0.332-0.154 0.43-0.016-0.072-0.005-0.153-0.005-0.227 0-0.165 0.009-0.331-0.005-0.495-0.039-0.432-0.26-0.886-0.489-1.246-0.088-0.139-0.189-0.267-0.277-0.405-0.118-0.179-0.218-0.388-0.402-0.511zM13.957 4.344c0.108-0.032 0.235-0.011 0.347-0.011 0.175 0.001 0.352-0.005 0.527 0.007 0.308 0.024 0.608 0.022 0.916 0.025 0.205 0.001 0.349 0.006 0.521 0.105 0.228 0.13 0.47 0.175 0.72 0.247 0.311 0.090 0.616 0.194 0.883 0.382 0.203 0.143 0.398 0.316 0.568 0.501 0.191 0.21 0.378 0.437 0.559 0.656 0.343 0.418 0.519 0.931 0.7 1.434 0.096 0.266 0.186 0.518 0.301 0.773 0.118 0.256 0.11 0.507 0.089 0.783-0.055 0.728-0.36 1.365-0.689 2.004-0.34 0.663-0.746 1.284-1.143 1.911-0.138 0.218-0.348 0.412-0.432 0.655-0.037 0.108-0.101 0.186-0.166 0.278-0.15 0.212-0.25 0.424-0.361 0.659-0.256 0.541-0.425 1.065-0.439 1.664-0.009 0.339-0.037 0.673-0.037 1.012 0 0.325 0.029 0.651 0.054 0.975 0.052 0.632 0.165 1.285 0.376 1.884 0.195 0.552 0.562 1.060 0.87 1.555 0.154 0.251 0.32 0.469 0.514 0.692 0.147 0.169 0.308 0.355 0.401 0.564 0.021 0.050 0.038 0.102 0.061 0.151 0.005 0.012 0.012 0.025 0.020 0.039 0.049 0.086 0.126 0.146 0.191 0.219 0.081 0.092 0.133 0.206 0.198 0.308 0.076 0.125 0.162 0.224 0.255 0.335 0.069 0.084 0.118 0.22 0.081 0.328-0.121 0.023-0.213-0.013-0.328 0.054-0.088 0.049-0.171 0.109-0.263 0.151-0.069 0.025-0.139 0.056-0.206 0.088-0.049 0.040-0.104 0.073-0.163 0.098-0.089 0.037-0.199 0.072-0.294 0.097-0.11 0.027-0.218 0.076-0.332 0.080-0.205 0.007-0.413-0.002-0.616-0.002h-0.51c-0.098 0-0.235 0.024-0.332 0.004-0.045-0.010-0.084-0.030-0.116-0.066-0.039-0.033-0.084-0.047-0.134-0.044-0.061-0.019-0.104-0.032-0.157-0.068-0.086-0.060-0.154-0.108-0.25-0.146s-0.171-0.122-0.223-0.212c-0.109-0.19-0.114-0.417-0.177-0.623-0.045-0.15-0.089-0.303-0.138-0.45-0.056-0.178-0.194-0.3-0.287-0.458-0.26-0.446-0.489-0.923-0.608-1.429-0.1-0.424-0.105-0.878-0.146-1.312-0.053-0.546-0.096-1.093-0.096-1.641 0-0.528-0.061-1.089 0.077-1.602 0.145-0.54 0.161-1.113 0.417-1.616 0.242-0.474 0.543-0.914 0.849-1.348 0.202-0.288 0.409-0.572 0.617-0.857 0.244-0.336 0.525-0.651 0.76-0.993 0.181-0.26 0.317-0.544 0.479-0.817 0.093-0.158 0.196-0.3 0.262-0.473 0.036-0.097 0.074-0.203 0.093-0.305 0.017-0.106 0.016-0.206 0.064-0.308 0.036-0.074 0.097-0.131 0.142-0.202 0.080-0.122 0.097-0.26 0.162-0.386 0.056-0.112 0.027-0.223 0.072-0.331 0.049-0.123 0.084-0.214 0.086-0.351 0.001-0.102-0.011-0.19-0.028-0.29-0.023-0.122-0.010-0.254-0.007-0.378 0.001-0.141-0.039-0.275-0.036-0.417 0.001-0.102-0.020-0.185-0.033-0.284-0.033-0.226-0.105-0.459-0.21-0.661-0.072-0.142-0.21-0.252-0.32-0.363-0.060-0.058-0.113-0.121-0.178-0.173-0.068-0.052-0.146-0.084-0.211-0.141-0.061-0.057-0.112-0.125-0.177-0.178-0.085-0.070-0.185-0.121-0.279-0.178-0.178-0.109-0.376-0.153-0.551-0.268-0.202-0.134-0.417-0.267-0.637-0.365-0.076-0.034-0.154-0.061-0.227-0.102-0.093-0.054-0.138-0.105-0.246-0.139-0.153-0.046-0.287-0.022-0.441-0.045-0.081-0.009-0.162-0.040-0.243-0.053-0.19-0.035-0.378-0.077-0.57-0.105-0.154-0.024-0.296-0.081-0.448-0.11-0.089-0.017-0.161-0.015-0.25-0.041 0.054-0.024 0.116-0.036 0.165-0.070 0.131-0.093 0.165-0.255 0.337-0.306zM7.431 15.412c-0.066-0.147-0.090-0.303-0.146-0.454-0.041-0.112-0.096-0.211-0.131-0.325-0.22-0.681-0.175-1.436-0.040-2.133 0.102-0.523 0.305-1.118 0.698-1.491 0.070-0.066 0.121-0.15 0.194-0.215 0.064-0.060 0.135-0.106 0.2-0.163 0.139-0.125 0.312-0.214 0.412-0.378-0.033 0.081-0.114 0.147-0.155 0.224-0.145 0.267-0.219 0.564-0.369 0.826-0.045 0.081-0.101 0.158-0.138 0.244-0.049 0.114-0.060 0.24-0.068 0.364-0.011 0.178-0.032 0.355-0.068 0.53-0.072 0.351-0.042 0.734 0.033 1.085 0.040 0.177 0.122 0.335 0.198 0.497 0.086 0.186 0.145 0.376 0.262 0.547 0.26 0.382 0.599 0.786 0.999 1.026 0.17 0.104 0.352 0.197 0.53 0.289 0.105 0.056 0.216 0.101 0.323 0.158 0.085 0.048 0.157 0.112 0.244 0.157 0.133 0.071 0.283 0.154 0.421 0.207 0.199 0.077 0.42 0.080 0.598 0.209 0.064 0.049 0.12 0.106 0.189 0.149 0.1 0.062 0.211 0.097 0.311 0.161 0.098 0.062 0.184 0.139 0.268 0.218 0.165 0.154 0.335 0.264 0.467 0.453 0.078 0.11 0.149 0.226 0.222 0.34 0.064 0.1 0.149 0.184 0.214 0.284 0.101 0.154 0.147 0.324 0.208 0.494 0.070 0.199 0.174 0.381 0.182 0.599 0.002 0.070-0.012 0.141 0 0.211 0.016 0.098 0.061 0.189 0.081 0.287 0.065 0.333-0.027 0.665 0.001 1.005 0.025 0.296 0.019 0.592 0.017 0.89-0.001 0.267 0.057 0.494 0.097 0.753 0.032 0.203 0.080 0.405 0.108 0.608 0.025 0.178-0.005 0.356 0.005 0.532 0.006 0.1 0.033 0.216 0.062 0.313 0.016 0.056 0.086 0.174 0.025 0.218-0.020 0.013-0.062-0.006-0.086-0.001-0.039 0.007-0.052 0.036-0.085 0.053-0.092 0.045-0.198 0.001-0.297 0.021-0.052 0.011-0.088 0.049-0.135 0.062-0.049 0.015-0.1 0.006-0.15 0.006-0.092-0.001-0.158-0.005-0.244-0.028-0.202-0.050-0.386-0.151-0.586-0.209-0.191-0.056-0.39-0.072-0.586-0.116-0.105-0.023-0.157-0.093-0.252-0.136-0.049-0.021-0.086-0.026-0.129-0.062-0.041-0.032-0.104-0.077-0.138-0.116-0.045-0.050-0.034-0.118-0.034-0.179 0.001-0.061 0.004-0.102 0.019-0.158 0.016-0.062 0.013-0.129 0.037-0.191 0.093-0.228 0.151-0.461 0.212-0.7 0.007-0.028 0.013-0.056 0.021-0.085 0.076-0.291 0.169-0.576 0.224-0.87 0.046-0.236 0.052-0.479 0.050-0.72 0-0.096-0.002-0.166 0.041-0.251 0.086-0.161 0.028-0.288 0.027-0.471-0.001-0.251-0.027-0.452-0.122-0.687-0.069-0.171-0.167-0.291-0.28-0.437-0.167-0.22-0.34-0.426-0.524-0.633-0.137-0.153-0.275-0.304-0.432-0.438-0.234-0.199-0.489-0.301-0.771-0.424-0.357-0.154-0.679-0.364-1.005-0.575-0.27-0.173-0.515-0.397-0.725-0.639-0.195-0.227-0.377-0.462-0.502-0.737zM25.057 24.837c-0.285 0.36-0.629 0.659-0.969 0.971-0.214 0.195-0.438 0.384-0.684 0.537-0.19 0.122-0.392 0.194-0.596 0.287-0.247 0.114-0.495 0.227-0.753 0.315-0.308 0.108-0.636 0.165-0.948 0.263-0.228 0.072-0.453 0.131-0.691 0.159-0.283 0.033-0.558 0.13-0.829 0.21-0.252 0.074-0.51 0.086-0.765 0.145-0.239 0.056-0.469 0.147-0.712 0.19-0.277 0.048-0.562 0.097-0.843 0.116-0.312 0.023-0.627 0.004-0.938 0.005-0.303 0.001-0.571 0-0.864-0.077-0.276-0.073-0.554-0.127-0.834-0.183-0.194-0.038-0.372-0.074-0.551-0.161-0.197-0.094-0.4-0.161-0.603-0.239-0.159-0.060-0.307-0.138-0.454-0.222-0.22-0.125-0.448-0.201-0.689-0.268-0.277-0.078-0.527-0.183-0.795-0.289-0.306-0.121-0.594-0.224-0.887-0.376-0.138-0.069-0.288-0.126-0.422-0.206-0.102-0.060-0.179-0.143-0.264-0.228-0.092-0.093-0.173-0.194-0.266-0.283-0.114-0.106-0.231-0.207-0.336-0.324-0.155-0.169-0.264-0.369-0.42-0.537-0.066-0.073-0.102-0.146-0.139-0.236-0.042-0.104-0.121-0.235-0.138-0.345-0.015-0.082-0.005-0.165-0.020-0.247-0.015-0.090-0.037-0.18-0.051-0.267-0.015-0.114-0.001-0.24-0.002-0.356-0.001-0.081 0.025-0.182 0.080-0.247 0.068-0.082 0.174-0.13 0.248-0.206 0.077-0.074 0.129-0.161 0.165-0.263 0.061-0.178 0.082-0.361 0.263-0.466 0.138-0.081 0.286-0.139 0.425-0.211 0.21-0.106 0.434-0.224 0.656-0.293 0.016-0.005 0.032-0.011 0.046-0.015 0.12-0.037 0.21-0.065 0.341-0.065 0.072 0 0.174-0.026 0.199 0.060-0.146 0.090-0.276 0.186-0.434 0.256-0.169 0.073-0.295 0.070-0.398 0.238-0.076 0.12-0.133 0.263-0.243 0.356-0.040 0.033-0.080 0.054-0.105 0.1-0.076 0.138-0.069 0.349-0.108 0.501-0.062 0.246-0.086 0.543 0.038 0.777 0.060 0.108 0.181 0.226 0.266 0.313 0.12 0.126 0.244 0.224 0.397 0.308 0.155 0.089 0.293 0.186 0.469 0.223 0.166 0.033 0.284 0.123 0.445 0.175 0.15 0.050 0.303 0.081 0.449 0.147 0.142 0.062 0.275 0.117 0.426 0.15 0.236 0.049 0.466 0.125 0.703 0.177 0.344 0.076 0.708 0.004 1.044 0.12 0.101 0.034 0.191 0.093 0.295 0.122 0.169 0.047 0.352 0.044 0.524 0.078 0.195 0.041 0.406 0.068 0.607 0.073 0.22 0.005 0.429-0.006 0.648 0.025 0.206 0.028 0.412 0.057 0.619 0.073 1.562 0.127 3.129-0.315 4.62-0.633 0.264-0.057 0.531-0.116 0.797-0.17 0.224-0.045 0.452-0.053 0.673-0.105 0.23-0.052 0.466-0.096 0.689-0.162 0.207-0.061 0.368-0.167 0.56-0.251 0.151-0.066 0.239-0.089 0.327-0.218 0.113-0.167 0.179-0.377 0.246-0.56 0.074-0.203 0.146-0.378 0.146-0.59 0-0.182 0-0.426-0.131-0.578-0.1-0.112-0.251-0.171-0.357-0.278-0.109-0.11-0.197-0.169-0.336-0.251-0.096-0.056-0.179-0.127-0.277-0.183-0.051-0.029-0.11-0.049-0.157-0.085-0.054-0.043-0.085-0.096-0.145-0.138-0.061-0.045-0.141-0.078-0.207-0.117-0.082-0.050-0.159-0.105-0.251-0.143-0.057-0.024-0.122-0.033-0.122-0.092 0.073-0.023 0.181-0.006 0.258-0.006h0.397c0.219 0 0.41-0.029 0.59 0.090 0.064 0.041 0.126 0.061 0.19 0.097 0.084 0.045 0.151 0.113 0.232 0.163 0.101 0.064 0.218 0.104 0.311 0.178 0.108 0.086 0.182 0.186 0.303 0.262 0.074 0.048 0.155 0.086 0.214 0.15 0.056 0.058 0.086 0.137 0.138 0.197 0.058 0.069 0.129 0.122 0.179 0.197 0.052 0.077 0.116 0.163 0.141 0.25 0.045 0.155-0.033 0.308-0.040 0.463-0.005 0.17-0.019 0.339-0.038 0.507-0.049 0.437-0.282 0.811-0.549 1.149zM24.578 28.732c0.003-0.002 0.005-0.009 0.007-0.013-0.004 0.016-0.007 0.032-0.021 0.048-0.090 0.062-0.129 0.072-0.147 0.069 0.044-0.028 0.094-0.061 0.161-0.104zM31.567 17.372l-0.054-0.181c-0.060-0.438 0.143 0.044 0.028-0.592-0.057-0.234-0.224-0.655-0.23-0.562 0.017 0.096 0.028 0.247-0.005 0.26l-0.057-0.213c-0.006-0.001-0.013-0.002-0.020-0.005l-0.006-0.034 0.142-1.512-0.289-1.041 0.024 0.021-0.036-0.072-0.090-0.324c0.015 0.006 0.033 0.036 0.056 0.097-0.006-0.072-0.017-0.121-0.028-0.151-0.020-0.088-0.052-0.114-0.044-0.266 0.002-0.023 0.009-0.013 0.016 0.006l-0.068-0.23c0.025 0.043 0.054-0.050 0.068 0.096-0.027-0.43-0.187-0.668-0.151-0.838l0.012 0.034c-0.049-0.213-0.072-0.272-0.090-0.291-0.019-0.016-0.028 0.017-0.056-0.006l-0.070-0.27 0.054-0.226-0.077-0.041c-0.013-0.060-0.040-0.178-0.008-0.163-0.101-0.21-0.019 0.045-0.092-0.073-0.013-0.213-0.118-0.501-0.157-0.705-0.060-0.074-0.088-0.127-0.077-0.162-0.108-0.048 0.158 0.236-0.076 0.021 0.024-0.139-0.255-0.259-0.396-0.495 0.098 0.024 0.244 0.236 0.104 0-0.181-0.058-0.331-0.408-0.497-0.564-0.007 0.007-0.028-0.001-0.044-0.010-0.093-0.068-0.303-0.41-0.506-0.659 0.033 0.005-0.381-0.612-0.575-0.908l0.017 0.001c-0.104-0.011-0.309-0.312-0.483-0.515 0.044-0.020 0.088 0.006 0.191 0.112l-0.15-0.202c-0.054-0.032-0.113-0.088-0.218-0.211l0.085 0.016c-0.198-0.268-0.44-0.509-0.655-0.883-0.038 0.007 0.007 0.173-0.048 0.17l-0.133-0.19c0.020-0.005 0.048 0.006 0.088 0.053-0.025-0.031-0.1-0.1-0.134-0.171l0.145 0.121c-0.094-0.173-0.093-0.061-0.178-0.191 0.036-0.022-0.041-0.113-0.001-0.113 0.025 0.030 0.064 0.122 0.11 0.162-0.025-0.042-0.050-0.086-0.078-0.13-0.028-0.051-0.056-0.101-0.080-0.145-0.086-0.076-0.109-0.106-0.131-0.139-0.001 0.028-0.033 0.045-0.141-0.025-0.272-0.191-0.064-0.106-0.21-0.238-0.082-0.022-0.239-0.171-0.279-0.123-0.080-0.057-0.077-0.090-0.098-0.126-0.077-0.037-0.264-0.17-0.378-0.24-0.096-0.084-0.186-0.155-0.137-0.065l0.029 0.036c-0.006-0.005-0.015-0.012-0.024-0.019-0.18-0.142-0.349-0.308-0.514-0.481l-0.365-0.389-0.141-0.145c-0.149-0.039-0.228-0.057-0.339-0.080l0.005-0.019c-0.331-0.057-0.726-0.163-0.971-0.175-0.096-0.025-0.218-0.093-0.17-0.108-0.019-0.002-0.036-0.004-0.046-0.005-0.038-0.021-0.069-0.037-0.098-0.053-0.036-0.019-0.068-0.036-0.101-0.057-0.070-0.042-0.15-0.098-0.281-0.2 0.236 0.108-0.057-0.076 0.236 0.12-0.27-0.195-0.315-0.263-0.645-0.409 0.129 0.019-0.17-0.19-0.321-0.27l0.181 0.162c-0.043-0.025-0.084-0.050-0.123-0.074-0.047-0.030-0.090-0.058-0.134-0.088-0.077-0.020-0.151-0.040-0.227-0.060l0.101-0.048c-0.252-0.096-0.497-0.139-0.726-0.173-0.116-0.017-0.228-0.034-0.336-0.049-0.055-0.009-0.109-0.019-0.161-0.028l-0.078-0.016-0.106-0.028c-0.098 0.011-0.145 0.012-0.203 0.012-0.057-0.001-0.113-0.005-0.17-0.013-0.173 0.070 0.37-0.012 0.218 0.066-0.312 0.028-0.648-0.033-0.746-0.021-0.187 0.006-0.284 0.036-0.372 0.070-0.042 0.016-0.084 0.034-0.133 0.050-0.042 0.016-0.121 0.033-0.15 0.040-0.013-0.002-0.025-0.006-0.040-0.011-0.024-0.006-0.050-0.015-0.077-0.022 0.049 0.038 0.085 0.117-0.246 0.057-0.303-0.085-0.349-0.196-0.151-0.166 0.073 0.015 0.106 0.032 0.101 0.040 0.101 0.016 0.232 0.037 0.118-0.019l-0.046 0.013c-0.143-0.062-0.562-0.165-0.454-0.179-0.235-0.034-0.108 0.015 0.058 0.069-0.137-0.048-0.255-0.081-0.367-0.11-0.121-0.031-0.234-0.057-0.359-0.089-0.053-0.002-0.108-0.006-0.166-0.011-0.052-0.004-0.105-0.009-0.162-0.015 0.065 0.017 0.123 0.049 0.058 0.045-0.606-0.060-0.27 0.034-0.68 0.026-0.232-0.049 0.088-0.086-0.327-0.076-0.252-0.037-0.050-0.068 0.051-0.084-0.057 0.004-0.112 0.006-0.166 0.005-0.027 0-0.053-0.001-0.078-0.001-0.034-0.002-0.070-0.004-0.104-0.006l-0.068 0.011-0.044 0.004c-0.030 0.002-0.058 0.005-0.086 0.007-0.055 0.002-0.109 0.006-0.159 0.007-0.101 0.004-0.191 0.008-0.267 0.017l0.192-0.053c-0.114 0.033-0.211 0.046-0.309 0.064l0.12 0.031c-0.116 0.011-0.213 0.026-0.214 0.005-0.114 0.052 0.105 0.068-0.123 0.15-0.162 0.001-0.454 0.104-0.537 0.049 0.505-0.061-0.060-0.058 0.352-0.137-0.078 0.020-0.174 0.036-0.291 0.046-0.019-0.004 0.015-0.016 0.045-0.025-0.032 0.001-0.062 0.002-0.088 0.004-0.045 0.006-0.085 0.012-0.12 0.016-0.122 0.065-0.13 0.073-0.158 0.098-0.024 0.020-0.037 0.041-0.053 0.064-0.035 0.045-0.086 0.101-0.268 0.2 0.036-0.062-0.134-0.008-0.199 0.037 0.171-0.094 0.112 0.010-0.032 0.121-0.287 0.124-0.285 0.182-0.43 0.256l0.17-0.077c-0.034 0.061-0.173 0.131-0.344 0.238-0.002 0.001-0.005 0.004-0.009 0.005-0.006-0.004-0.001-0.012 0.005-0.017 0.024-0.028 0.137-0.085 0.076-0.065-0.023 0.024-0.057 0.048-0.077 0.062-0.187 0.102-0.474 0.127-0.721 0.28-0.153 0.041-0.042-0.058-0.174-0.017-0.121 0.074-0.206 0.109-0.283 0.137-0.039 0.011-0.077 0.021-0.114 0.035-0.033 0.011-0.068 0.021-0.108 0.034 0-0.001-0.017 0.005-0.036 0.011-0.016 0.005-0.034 0.012-0.054 0.019-0.037 0.012-0.078 0.029-0.123 0.048 0.123 0.013 0.138-0.004-0.112 0.129l0.352-0.135 0.223-0.117c-0.069 0.048-0.157 0.104-0.213 0.146-0.028 0.019-0.086 0.046-0.13 0.069 0.046-0.013 0.105-0.035 0.139-0.048 0.116-0.062 0.25-0.141 0.328-0.169-0.165 0.12-0.15 0.098-0.048 0.098-0.097 0.015-0.195 0.056-0.271 0.097-0.149 0.061-0.316 0.154-0.511 0.182l-0.029-0.121c-0.166 0.032-0.311 0.082-0.458 0.141-0.073 0.029-0.146 0.059-0.223 0.092-0.037 0.015-0.076 0.031-0.116 0.048l-0.060 0.024c-0.030 0.011-0.061 0.023-0.092 0.033-0.062 0.048-0.127 0.098-0.198 0.151-0.061 0.045-0.127 0.092-0.198 0.138l0.17-0.097c-0.037 0.088-0.3 0.226-0.446 0.357-0.009-0.045-0.118 0.013-0.202 0.042 0.027 0.019-0.361 0.256-0.357 0.357l-0.25 0.115c-0.408 0.272-0.38 0.428-0.768 0.693 0.086-0.121-0.104-0.017 0.131-0.23-0.126 0.093-0.244 0.17-0.23 0.195-0.028 0.011-0.056 0.033-0.114 0.082-0.11 0.114-0.23 0.266-0.328 0.316-0.037 0.057-0.025 0.105-0.159 0.218-0.019 0.006-0.013-0.015-0.013-0.015 0.013 0.015-0.186 0.203-0.042 0.137-0.175 0.089-0.351 0.232-0.559 0.417-0.251 0.345-0.471 0.693-0.682 0.866-0.191 0.285-0.421 0.629-0.594 0.887 0.001-0.023-0.017-0.012 0.020-0.057-0.279 0.328-0.055 0.283-0.37 0.659-0.199 0.166 0.121-0.234 0.009-0.121-0.030-0.005-0.065 0.015-0.1 0.050-0.017 0.019-0.034 0.040-0.053 0.065-0.023 0.034-0.049 0.070-0.076 0.11-0.006 0.034-0.016 0.069-0.024 0.106-0.004 0.024-0.010 0.050-0.015 0.077-0.010 0.052-0.023 0.108-0.034 0.162-0.025 0.108-0.057 0.213-0.104 0.299l0.012-0.080c-0.052 0.112-0.080 0.256-0.106 0.42-0.013 0.081-0.028 0.169-0.043 0.259-0.009 0.044-0.019 0.090-0.028 0.137-0.009 0.038-0.019 0.078-0.029 0.12l-0.013 0.024c0.001-0.003-0.005-0.016-0.017-0.013-0.078 0.277-0.324 0.75-0.503 1.101 0.015-0.133 0.065-0.169-0.020-0.131-0.082 0.158 0.101-0.001-0.061 0.312-0.012 0.013-0.025 0.029-0.045 0.055-0.066 0.12-0.149 0.281-0.206 0.296l0.108-0.329c-0.016 0.023-0.030 0.046-0.046 0.070-0.013 0.021-0.023 0.044-0.033 0.068-0.020 0.046-0.034 0.1-0.046 0.151-0.028 0.106-0.045 0.214-0.080 0.296l-0.024-0.032c-0.137 0.444-0.085 0.499-0.213 0.911-0.005 0.044-0.013 0.096-0.023 0.151l0.033-0.050c0.033 0.308-0.086 0.24-0.073 0.546l-0.097 0.077c-0.005 0.1-0.016 0.274-0.027 0.467-0.005 0.097-0.012 0.199-0.020 0.298-0.004 0.101-0.007 0.199-0.012 0.288-0.049-0.211-0.007-0.624-0.004-0.884-0.029 0.194-0.106 0.66-0.067 0.769 0-0.080-0.010-0.182 0.016-0.258 0.029 0.247 0.037 0.567-0.007 0.956-0.045-0.025-0.076 0.050-0.1 0.177-0.013 0.064-0.025 0.139-0.036 0.223-0.010 0.090-0.023 0.187-0.034 0.284 0.010 0.069 0.021 0.141 0.030 0.209 0.007 0.062 0.015 0.121 0.019 0.175 0.011 0.112 0.011 0.207-0.005 0.27 0.037 0.145 0.069 0.288 0.094 0.434l0.037 0.222c0.010 0.069 0.021 0.139 0.032 0.208-0.001 0.197-0.002 0.398-0.004 0.604-0.001 0.214 0 0.433 0.009 0.663 0.117-0.287 0.010 0.231 0.138 0.186 0.002 0.032 0.004 0.061 0.005 0.080 0.048 0.093 0.066 0.13 0.081 0.162 0.013 0.030 0.019 0.048 0.019 0.056l-0.011-0.038c0.005 0.017 0.006 0.026 0.011 0.041h0.001l0.181 0.543c0.025 0.137-0.104-0.149-0.123-0.12 0.171 0.373 0.028 0.179 0.115 0.437 0.017-0.069 0.122 0.101 0.209 0.319l-0.090-0.323c0.056 0.086 0.096 0.158 0.123 0.22 0.016 0.030 0.028 0.058 0.039 0.085 0.005 0.012 0.007 0.025 0.013 0.038 0.004 0.013 0.001 0.012 0.002 0.017l-0.002 0.012 0.002 0.032 0.004 0.061c0.001 0.043 0.004 0.084 0.012 0.13 0.013 0.094 0.041 0.21 0.112 0.382l-0.089-0.165c0.038 0.101 0.086 0.264 0.141 0.445 0.028 0.090 0.057 0.185 0.086 0.279 0.034 0.101 0.068 0.202 0.1 0.294 0.038 0.068 0.049 0.081 0.069 0.113 0.020 0.025 0.037 0.052 0.056 0.076 0.034 0.048 0.069 0.088 0.101 0.118 0.011 0.053 0.011 0.131-0.057 0.019 0.157 0.321 0.361 0.661 0.552 0.985 0.203 0.319 0.397 0.619 0.506 0.874l-0.054-0.030c0.074 0.112 0.167 0.171 0.223 0.331-0.016 0-0.055-0.029-0.027 0.024 0.011 0.013 0.029 0.036 0.051 0.064 0.012 0.015 0.024 0.030 0.036 0.048 0.011 0.012 0.041 0.057 0.060 0.086 0.049 0.040 0.104 0.084 0.157 0.126 0.043 0.036 0.081 0.073 0.113 0.108l-0.135-0.074c0.485 0.497 0.839 0.657 1.289 1.028-0.064 0.067 0.324 0.452 0.517 0.644l-0.016 0.004c0.053 0.046 0.104 0.093 0.154 0.137 0.024 0.021 0.049 0.044 0.073 0.065l0.036 0.030c0.004 0.002 0.004 0.002 0.005 0.004 0.077 0.104 0.149 0.202 0.219 0.296 0.081 0.105 0.158 0.207 0.236 0.308 0.080 0.101 0.158 0.202 0.239 0.304 0.040 0.052 0.081 0.104 0.122 0.157l0.069 0.094c0.033 0.044 0.064 0.088 0.096 0.131 0.062 0.015 0.133 0.032 0.206 0.048 0.137 0.072 0.345 0.143 0.587 0.218 0.122 0.037 0.252 0.074 0.385 0.113 0.118 0.033 0.24 0.069 0.361 0.102 0.108 0.084 0.214 0.166 0.315 0.246 0.116 0.090 0.224 0.179 0.323 0.264-0.082-0.082 0.057-0.048 0.169 0.025 0.065 0.059 0.171 0.118 0.254 0.169 0.040 0.025 0.074 0.049 0.094 0.068 0.028 0.028 0.044 0.052 0.023 0.064l-0.066-0.052c0.002 0.024 0.053 0.077 0.116 0.134 0.034 0.011 0.073 0.023 0.116 0.035 0.025 0.005 0.052 0.013 0.082 0.021 0.051 0.013 0.106 0.027 0.162 0.036 0.116 0.021 0.236 0.043 0.347 0.064l0.065-0.102c0.112 0.048 0.238 0.086 0.372 0.122 0.066 0.016 0.135 0.032 0.206 0.047 0.059 0.011 0.12 0.023 0.178 0.033 0.266 0.122 0.535 0.248 0.769 0.355 0.121 0.057 0.231 0.113 0.323 0.167 0.046 0.027 0.088 0.055 0.123 0.081 0.019 0.013 0.036 0.025 0.050 0.038l0.024 0.021c0.013 0.010 0.025 0.019 0.037 0.028 0.012 0.005 0.023 0.010 0.034 0.015 0.098 0.011 0.206 0.019 0.315 0.031 0.093 0.010 0.187 0.020 0.274 0.023l-0.020 0.056c0.178 0.038 0.324 0.068 0.471 0.098 0.073 0.015 0.147 0.029 0.227 0.044 0.090 0.016 0.187 0.033 0.296 0.052 0.086-0.009 0.23-0.024 0.4-0.042l-0.118 0.053c0.339-0.027 0.414-0.21 0.726-0.243l0.101 0.082c0.149-0.015 0.296-0.025 0.446-0.030l0.448 0.005c0.3 0 0.596-0.009 0.888-0.057-0.009 0.013-0.025 0.038-0.121 0.045 0.279 0.004 1.090-0.004 0.981-0.114 0.003 0.033 0.12 0.032 0.276 0.015 0.078-0.006 0.166-0.020 0.254-0.034 0.045-0.006 0.090-0.015 0.134-0.020l0.065-0.012c0.033-0.004 0.066-0.010 0.098-0.013 0.033-0.017 0.065-0.034 0.097-0.052 0.020-0.012 0.041-0.023 0.060-0.033l-0.023 0.073c0.219-0.177 0.219-0.198 0.559-0.369 0.086-0.028 0.092 0.012-0.024 0.045 0.287-0.090 0.191-0.143 0.538-0.259l-0.109 0.089c0.1-0.042 0.162-0.070 0.204-0.094 0.020-0.012 0.041-0.024 0.053-0.032l0.023-0.025c0.013-0.010 0.032-0.021 0.085-0.038 0.191-0.037 0.586-0.025 0.635 0.023 0.038-0.034 0.204-0.090 0.386-0.088 0.026 0.019-0.040 0.036-0.072 0.044 0.105 0.001 0.199-0.002 0.284-0.010 0.043-0.004 0.084-0.010 0.122-0.013 0.053-0.006 0.102-0.013 0.151-0.019 0.098-0.070 0.187-0.134 0.276-0.197 0.081-0.054 0.163-0.104 0.262-0.143 0.016 0.012 0.041 0.007 0.069-0.002-0.272 0.165-0.506 0.307-0.6 0.365-0.041 0.001-0.065 0.002-0.073 0.002 0.004 0.013 0.037 0.021 0.084 0.026 0.058-0.019 0.147-0.058 0.161-0.050 0.012 0.001 0.019 0.009 0.012 0.025-0.006 0.010-0.005 0.015-0.024 0.033-0.021 0.020-0.048 0.045-0.085 0.076 0.129-0.093 0.15-0.121 0.226-0.183 0.065-0.054 0.137-0.114 0.207-0.175 0.147-0.118 0.304-0.235 0.447-0.308 0.016-0.004 0.032-0.008 0.047-0.006l-0.027 0.023c0.068-0.034 0.121-0.073 0.17-0.114 0.092-0.046 0.15-0.076 0.235-0.126 0.056 0.019 0.339-0.17 0.482-0.251-0.041-0.044 0.15-0.145-0.051-0.085 0.025-0.009-0.023 0.021-0.116 0.078-0.021 0.015-0.045 0.029-0.058 0.041 0.003-0.002 0.005-0.006 0.007-0.011-0.093 0.056-0.215 0.129-0.352 0.211 0.096-0.093 0.202-0.182 0.375-0.247 0.055-0.074 0.114-0.155 0.15-0.198 0.238-0.042 0.636-0.223 0.714-0.208 0.024-0.017 0.051-0.035 0.076-0.052 0.037-0.024 0.076-0.048 0.114-0.072 0.082-0.101 0.167-0.209 0.254-0.316 0.077-0.097 0.153-0.195 0.226-0.287 0.142-0.189 0.26-0.364 0.315-0.501 0.080-0.113 0.142-0.113 0.167-0.117-0.005 0.013-0.038 0.056-0.061 0.088-0.025 0.033-0.045 0.061-0.055 0.085 0.020-0.028 0.041-0.057 0.065-0.088 0.020-0.027 0.040-0.052 0.061-0.080l0.024-0.017 0.046-0.030 0.090-0.064c0.060-0.043 0.118-0.085 0.17-0.122 0.105-0.077 0.179-0.143 0.186-0.184 0.323-0.163-0.133 0.17 0.279-0.106l-0.044 0.056c0.106-0.049 0.206-0.102 0.297-0.157 0.047-0.028 0.092-0.057 0.135-0.084 0.056-0.039 0.113-0.076 0.169-0.113l0.069-0.126 0.041-0.085c0.027-0.057 0.055-0.114 0.080-0.171 0.051-0.113 0.101-0.226 0.153-0.34 0.102-0.228 0.216-0.467 0.365-0.704 0.086-0.11 0.194-0.235 0.312-0.356-0.052 0.055-0.077 0.081-0.097 0.086 0.122-0.149 0.24-0.303 0.359-0.459l0.174-0.238 0.182-0.252c0.155-0.412 0.311-0.826 0.466-1.236 0.158-0.402 0.349-0.789 0.547-1.157 0.058-0.112 0.090-0.189 0.112-0.254 0.021-0.062 0.028-0.109 0.048-0.19-0.006-0.049-0.013-0.102-0.023-0.17l0.068-0.071-0.050-0.366c-0.007-0.167 0.012-0.32 0.040-0.471 0.029-0.142 0.057-0.283 0.088-0.437l0.020-0.032 0.033-0.058c0.021-0.040 0.042-0.082 0.064-0.127 0.040-0.089 0.077-0.186 0.11-0.293l-0.074 0.057c0.109-0.207 0.299-0.676 0.325-0.619 0.004-0.025-0.006-0.088 0.053-0.161l0.033 0.007 0.084-0.216-0.060-0.218z"></path>
</svg>
