<!-- Generated by IcoMoon.io -->
<svg version="1.1" xmlns="http://www.w3.org/2000/svg" width="32" height="32" viewBox="0 0 32 32">
<title>return_to_the_unspeakable_oath</title>
<path d="M14.471 4c-0.047 0.026-0.091 0.050-0.136 0.074-0.030 0.012-0.060 0.026-0.086 0.039-0.054 0.021-0.104 0.045-0.153 0.065-0.097 0.039-0.185 0.073-0.254 0.106l0.154-0.106c-0.094 0.064-0.173 0.106-0.256 0.151l0.117-0.009c-0.101 0.045-0.182 0.087-0.19 0.069-0.084 0.082 0.114 0.030-0.063 0.175-0.070 0.025-0.164 0.084-0.251 0.134-0.044 0.024-0.087 0.043-0.122 0.058-0.019 0.006-0.033 0.012-0.046 0.014-0.008 0-0.014-0.003-0.021-0.010 0.006-0.001 0.034-0.015 0.052-0.024 0.020-0.011 0.037-0.021 0.052-0.027 0.026-0.015 0.042-0.025 0.052-0.033 0.016-0.016 0.005-0.021-0.009-0.022-0.028-0.007-0.067-0.013 0.103-0.112-0.064 0.042-0.143 0.086-0.245 0.132-0.018 0.001 0.008-0.022 0.033-0.038-0.028 0.011-0.069 0.028-0.076 0.029-0.004-0.001-0.004-0.001-0.007 0-0.004-0.001-0.005 0.001-0.005 0.002-0.008 0.002-0.035 0.006-0.045 0.010-0.029 0.008-0.047 0.020-0.072 0.031-0.049 0.022-0.117 0.048-0.312 0.051 0.039-0.025-0.023-0.040-0.091-0.048 0.043 0.017-0.042 0.057-0.168 0.079-0.294-0.020-0.318 0.027-0.472 0.027l0.175 0.009c-0.027 0.018-0.078 0.028-0.144 0.034-0.069 0.005-0.157 0.009-0.261 0.015-0.008 0.002-0.019 0.005-0.027 0.010-0.007-0.005 0.004-0.014 0.024-0.024-0.076 0.029-0.113 0.040-0.173 0.055-0.057 0.009-0.118 0.020-0.18 0.033-0.122 0.022-0.252 0.052-0.377 0.112-0.147 0.022-0.033-0.059-0.161-0.034-0.125 0.060-0.212 0.083-0.29 0.099-0.039 0.008-0.073 0.014-0.113 0.022-0.020 0.004-0.039 0.009-0.062 0.014-0.012 0.004-0.023 0.005-0.034 0.009-0.021 0.006-0.041 0.013-0.062 0.019-0.020 0.012-0.041 0.025-0.063 0.038-0.013 0.007-0.027 0.017-0.041 0.026-0.029 0.019-0.058 0.042-0.091 0.067 0.116-0.016 0.126-0.035-0.076 0.142l0.302-0.208 0.274-0.106-0.122 0.067c-0.046 0.022-0.068 0.037-0.141 0.069-0.055 0.041-0.074 0.064-0.106 0.093 0.038-0.024 0.078-0.051 0.115-0.076 0.040-0.015 0.079-0.031 0.117-0.045 0.035-0.014 0.066-0.028 0.096-0.039 0.063-0.026 0.119-0.045 0.161-0.057-0.168 0.096-0.155 0.079-0.058 0.089-0.052 0.001-0.102 0.010-0.149 0.022-0.024 0.006-0.050 0.015-0.072 0.024l-0.084 0.033c-0.066 0.049-0.132 0.097-0.202 0.149-0.066 0.048-0.138 0.091-0.221 0.125l-0.053-0.103c-0.295 0.135-0.515 0.331-0.786 0.518-0.088 0.048-0.221 0.112-0.355 0.165l0.177-0.058c-0.051 0.074-0.321 0.153-0.48 0.247-0.001-0.042-0.111-0.006-0.194 0.002 0.019 0.024-0.378 0.171-0.398 0.266l-0.069 0.021-0.062 0.045-0.046 0.029-0.089 0.057c-0.349 0.304-0.303 0.445-0.633 0.741 0.067-0.122-0.098-0.002 0.094-0.23-0.106 0.102-0.206 0.188-0.189 0.209-0.017 0.008-0.042 0.030-0.067 0.057-0.028 0.031-0.061 0.070-0.096 0.112-0.031 0.058-0.067 0.121-0.098 0.178-0.030 0.050-0.059 0.094-0.088 0.12-0.021 0.061 0.002 0.101-0.089 0.237-0.017 0.012-0.019-0.010-0.019-0.010 0.017 0.011-0.12 0.231-0.003 0.134-0.079 0.070-0.156 0.163-0.233 0.268-0.039 0.050-0.076 0.106-0.113 0.163-0.035 0.052-0.070 0.106-0.105 0.16-0.060 0.054-0.122 0.109-0.182 0.163-0.064 0.054-0.127 0.109-0.187 0.161-0.123 0.101-0.241 0.185-0.343 0.233-0.131 0.122-0.274 0.257-0.405 0.379-0.064 0.181-0.123 0.347-0.172 0.491-0.005-0.022-0.017-0.008 0.005-0.058-0.174 0.367 0.019 0.271-0.177 0.69-0.141 0.199 0.050-0.24-0.022-0.112-0.041 0.005-0.071 0.047-0.099 0.115-0.014 0.034-0.028 0.074-0.043 0.117-0.011 0.039-0.031 0.101-0.033 0.115-0.004 0.011-0.026 0.045-0.050 0.077l-0.067 0.099c-0.046 0.062-0.097 0.119-0.151 0.163l0.039-0.065c-0.176 0.164-0.305 0.495-0.542 0.801 0 0-0.001-0.022-0.017-0.014-0.006 0.020-0.021 0.053-0.048 0.099-0.014 0.074-0.031 0.158-0.048 0.251-0.017 0.084-0.038 0.173-0.060 0.264-0.045 0.182-0.095 0.372-0.139 0.537-0.013-0.125 0.025-0.168-0.045-0.118-0.045 0.162 0.092-0.020 0.003 0.302-0.026 0.043-0.053 0.094-0.091 0.166-0.034 0.1-0.066 0.178-0.101 0.194l0.029-0.211 0.039-0.12c-0.012 0.015-0.026 0.027-0.036 0.045-0.009 0.015-0.017 0.035-0.031 0.069-0.004 0.024-0.008 0.045-0.014 0.070l-0.010 0.060c-0.004 0.040-0.003 0.080-0.005 0.12-0.004 0.080-0.008 0.158-0.024 0.221l-0.027-0.027c-0.060 0.466 0.011 0.502-0.062 0.975-0.001 0.006-0.005 0.015-0.007 0.024 0.006-0.009 0.013-0.016 0.019-0.022 0.005-0.005 0.010-0.008 0.015-0.017 0.001 0.012 0.001 0.015 0.002 0.021 0 0.257-0.1 0.201-0.112 0.479l-0.098 0.063c-0.029 0.184-0.078 0.655-0.16 0.98 0.004-0.195 0.062-0.585 0.091-0.829-0.031 0.119-0.061 0.304-0.091 0.475 0.012 0.239-0.054 0.528-0.158 0.882-0.041-0.034-0.091 0.052-0.142 0.19-0.026 0.069-0.052 0.153-0.081 0.24-0.031 0.099-0.063 0.202-0.094 0.304 0.005 0.036 0.011 0.073 0.017 0.108 0.002 0.025 0.005 0.048 0.009 0.072 0.005 0.045 0.012 0.091 0.015 0.134 0.005 0.082 0.003 0.151-0.009 0.201 0.042 0.155 0.076 0.313 0.106 0.472 0.014 0.080 0.028 0.161 0.043 0.242 0.013 0.086 0.026 0.17 0.039 0.259 0.054 0.167 0.108 0.339 0.165 0.515 0.056 0.171 0.116 0.347 0.184 0.528 0.020-0.294 0.078 0.207 0.177 0.122 0.029 0.075 0.048 0.126 0.062 0.161 0.004 0.026 0.008 0.062 0.005 0.067v0.002l0.012 0.542c-0.015 0.131-0.054-0.164-0.077-0.142 0.052 0.384-0.024 0.169-0.015 0.427 0.035-0.059 0.081 0.124 0.101 0.345l0.007-0.316c0.071 0.252 0.066 0.357 0.063 0.491 0.009 0.149 0.005 0.255 0.11 0.53l-0.079-0.158c0.036 0.105 0.083 0.282 0.136 0.474 0.029 0.096 0.057 0.195 0.084 0.292 0.016 0.046 0.033 0.094 0.046 0.139 0.019 0.050 0.036 0.097 0.051 0.142 0.021 0.046 0.027 0.053 0.038 0.076 0.013 0.019 0.023 0.035 0.033 0.052 0.021 0.034 0.045 0.063 0.065 0.086 0.005 0.051-0.002 0.123-0.057 0.012 0.069 0.181 0.151 0.372 0.237 0.561 0.090 0.195 0.181 0.391 0.268 0.578 0.049 0.067 0.096 0.131 0.142 0.194 0.040 0.057 0.079 0.113 0.117 0.168 0.075 0.11 0.139 0.214 0.19 0.314l-0.051-0.027c0.076 0.1 0.168 0.151 0.232 0.299-0.016 0-0.055-0.026-0.024 0.022 0.015 0.017 0.048 0.054 0.088 0.098 0.019 0.022 0.038 0.045 0.060 0.070 0.022 0.029 0.038 0.045 0.077 0.099 0.028 0.025 0.056 0.053 0.082 0.077 0.021 0.021 0.039 0.040 0.057 0.060l-0.125-0.076c0.447 0.484 0.778 0.641 1.191 1.004-0.061 0.063 0.293 0.433 0.47 0.618l-0.015 0.002c0.135 0.129 0.263 0.243 0.388 0.352 0.12 0.114 0.237 0.22 0.352 0.323 0.118 0.104 0.23 0.205 0.35 0.309 0.057 0.054 0.117 0.106 0.177 0.161 0.031 0.028 0.061 0.055 0.093 0.084 0.035 0.032 0.071 0.066 0.106 0.099 0.014 0.007 0.028 0.018 0.045 0.027 0.104 0.107 0.271 0.241 0.47 0.386 0.101 0.071 0.207 0.147 0.317 0.225 0.121 0.085 0.248 0.171 0.374 0.257 0.145 0.040 0.291 0.081 0.431 0.12 0.125 0.038 0.246 0.076 0.357 0.113-0.1-0.042 0.034-0.062 0.156-0.039 0.156 0.059 0.456 0.056 0.41 0.127l-0.055-0.017c0.015 0.016 0.037 0.033 0.063 0.048 0.012 0.007 0.024 0.015 0.039 0.022 0.019 0.006 0.009 0.004 0.015 0.010-0.007 0.001 0.044 0.034 0.081 0.055 0.040 0.024 0.080 0.048 0.122 0.072 0.085 0.046 0.174 0.095 0.254 0.139l0.088-0.070c0.092 0.081 0.203 0.158 0.323 0.233 0.059 0.038 0.119 0.077 0.182 0.112 0.070 0.039 0.14 0.075 0.211 0.113l0.216 0.072c0.065 0.020 0.13 0.038 0.194 0.058 0.129 0.040 0.257 0.078 0.371 0.113 0.23 0.074 0.417 0.149 0.52 0.232 0.026 0.005 0.033 0.005 0.088 0.019 0.079 0.011 0.166 0.021 0.251 0.031 0.081 0.008 0.161 0.020 0.233 0.022l-0.021 0.053c0.179 0.040 0.321 0.072 0.468 0.105 0.074 0.016 0.149 0.032 0.23 0.048 0.091 0.018 0.189 0.038 0.3 0.060 0.064-0.006 0.184-0.020 0.317-0.031l-0.115 0.050c0.322-0.021 0.395-0.192 0.691-0.216l0.094 0.077 0.245-0.015 0.254-0.010 0.314-0.045 0.297-0.046c0.197-0.034 0.392-0.078 0.583-0.139-0.007 0.014-0.021 0.041-0.11 0.060 0.077-0.013 0.199-0.030 0.328-0.050 0.072-0.004 0.146-0.007 0.216-0.010 0.074-0.005 0.145-0.012 0.202-0.021 0.116-0.016 0.186-0.041 0.149-0.079 0.014 0.074 0.582-0.032 0.882-0.093l-0.041 0.062c0.249-0.102 0.254-0.123 0.607-0.187 0.085-0.004 0.080 0.033-0.033 0.033 0.284-0.006 0.211-0.077 0.556-0.091l-0.122 0.052c0.141-0.016 0.207-0.028 0.256-0.043s0.078-0.031 0.178-0.065c0.001-0.001 0.006-0.006 0.010-0.009 0.024-0.017 0.050-0.039 0.079-0.060 0.022-0.015 0.049-0.029 0.074-0.046 0.052-0.033 0.108-0.067 0.163-0.094 0.107-0.055 0.206-0.092 0.237-0.082 0.016-0.047 0.127-0.166 0.28-0.247 0.030 0.004-0.017 0.046-0.039 0.067 0.1-0.054 0.184-0.108 0.257-0.158 0.038-0.028 0.071-0.051 0.106-0.076l0.046-0.036 0.029-0.022c0.015-0.008 0.060-0.025 0.101-0.038 0.040-0.014 0.078-0.029 0.118-0.041 0.079-0.022 0.159-0.041 0.251-0.048 0.012 0.015 0.032 0.018 0.062 0.017-0.22 0.055-0.412 0.106-0.522 0.134-0.022 0.014-0.040 0.024-0.050 0.029-0.016 0.011-0.022 0.012-0.017 0.009 0.011 0.020 0.078-0.004 0.086 0.007 0.014 0.005 0.020 0.010 0.027 0.019 0.004 0.008-0.001 0.024 0 0.039 0 0.003 0.001 0.007 0.002 0.010 0-0.002 0.001-0.007 0.002-0.010 0.016-0.006 0.031-0.013 0.046-0.021 0.035-0.014 0.070-0.030 0.106-0.046 0.073-0.030 0.15-0.062 0.228-0.094 0.156-0.064 0.32-0.121 0.463-0.146 0.015 0.001 0.029 0.001 0.041 0.005l-0.029 0.012c0.069-0.013 0.132-0.032 0.187-0.055 0.047-0.008 0.087-0.017 0.125-0.024 0.044-0.008 0.059-0.012 0.149-0.034 0.016 0.005 0.053 0.001 0.11-0.010 0.032-0.032 0.073-0.076 0.118-0.127 0.025-0.030 0.051-0.061 0.079-0.094 0.054-0.065 0.112-0.133 0.151-0.18-0.051-0.025 0.085-0.178-0.072-0.060 0.019-0.017-0.015 0.028-0.081 0.108-0.013 0.020-0.029 0.041-0.036 0.055 0-0.004 0.001-0.008 0.002-0.014l-0.202 0.247-0.172 0.046c0.035-0.020 0.105-0.047 0.158-0.067 0.019-0.026 0.038-0.053 0.058-0.081 0.016-0.021 0.034-0.046 0.053-0.069 0.031-0.040 0.069-0.077 0.115-0.115 0.024-0.085 0.053-0.176 0.070-0.225 0.197-0.112 0.495-0.401 0.568-0.413 0.050-0.066 0.101-0.137 0.156-0.209 0.075-0.064 0.152-0.13 0.228-0.194 0.081-0.071 0.159-0.139 0.235-0.204 0.149-0.136 0.275-0.265 0.347-0.374 0.097-0.094 0.139-0.072 0.189-0.091-0.056 0.057-0.129 0.113-0.153 0.151 0.189-0.196 0.641-0.478 0.649-0.577 0.297-0.17-0.117 0.165 0.257-0.113l-0.038 0.053c0.1-0.052 0.19-0.107 0.276-0.163 0.043-0.030 0.084-0.058 0.125-0.086 0.051-0.038 0.102-0.074 0.151-0.112l0.062-0.115 0.039-0.079 0.070-0.158c0.046-0.105 0.094-0.21 0.141-0.316 0.094-0.209 0.204-0.439 0.333-0.647 0.090-0.084 0.221-0.197 0.353-0.293-0.056 0.044-0.083 0.066-0.101 0.069 0.136-0.12 0.269-0.246 0.402-0.372l0.196-0.196 0.208-0.204c0.272-0.436 0.501-0.822 0.781-1.253l0.082-0.254 0.082-0.237c0.056-0.159 0.116-0.313 0.178-0.465 0.091-0.239 0.090-0.314 0.099-0.443 0-0.034 0.003-0.073 0.003-0.12l0.072-0.057 0.007-0.347c0.059-0.482 0.322-0.784 0.376-1.4l-0.057 0.069c0.059-0.212 0.141-0.684 0.177-0.637-0.001-0.025-0.024-0.078 0.015-0.158h0.034l0.010-0.079 0.019-0.106-0.041-0.115v0.005l-0.033-0.089-0.070-0.18c-0.088-0.409 0.139 0.033-0.014-0.559-0.073-0.216-0.258-0.601-0.256-0.513 0.022 0.089 0.043 0.231 0.014 0.247l-0.069-0.196c-0.006-0.001-0.014-0.002-0.021-0.003l-0.010-0.033 0.292-1.433-0.257-0.961 0.022 0.019-0.034-0.065-0.082-0.305c0.012 0.006 0.031 0.031 0.052 0.091-0.007-0.090-0.020-0.135-0.036-0.178-0.036-0.062-0.065-0.083-0.091-0.208-0.004-0.024 0.005-0.017 0.017 0l-0.117-0.194c0.034 0.032 0.038-0.059 0.084 0.072-0.125-0.387-0.33-0.566-0.338-0.729l0.021 0.027c-0.195-0.371-0.139-0.196-0.204-0.242l-0.003-0.010-0.034-0.244 0.077-0.208-0.067-0.048c-0.006-0.056-0.015-0.17 0.012-0.153-0.069-0.207-0.022 0.040-0.077-0.079 0.014-0.217-0.060-0.527-0.064-0.722-0.031-0.055-0.050-0.1-0.038-0.125-0.1-0.056 0.136 0.244-0.074 0.015 0.032-0.131-0.218-0.266-0.333-0.499 0.090 0.031 0.21 0.243 0.096 0.010-0.164-0.070-0.277-0.41-0.419-0.571-0.066 0.035-0.298-0.361-0.527-0.638 0.034 0.004-0.366-0.572-0.527-0.867l0.014 0.002c-0.096-0.012-0.279-0.304-0.434-0.504 0.041-0.016 0.083 0.011 0.175 0.113l-0.132-0.197c-0.051-0.032-0.101-0.088-0.194-0.209l0.079 0.021-0.070-0.094-0.096-0.081-0.084-0.069c-0.056-0.045-0.117-0.093-0.177-0.141-0.12-0.099-0.243-0.205-0.365-0.34-0.035 0.016 0.042 0.156-0.010 0.165l-0.16-0.149c0.017-0.007 0.045-0.002 0.091 0.031-0.030-0.022-0.113-0.070-0.16-0.129l0.158 0.082c-0.122-0.14-0.098-0.037-0.204-0.141 0.030-0.026-0.059-0.094-0.022-0.103 0.030 0.022 0.083 0.098 0.136 0.125-0.059-0.057-0.135-0.136-0.17-0.184-0.025-0.050-0.062-0.123-0.067-0.154-0.011 0.026-0.043 0.035-0.12-0.060-0.191-0.25-0.028-0.116-0.122-0.274-0.067-0.044-0.166-0.22-0.216-0.19-0.055-0.074-0.044-0.102-0.053-0.141-0.032-0.031-0.081-0.091-0.134-0.156-0.062-0.076-0.127-0.159-0.182-0.228-0.191-0.047-0.24-0.049-0.175 0l0.046 0.017c-0.011-0.001-0.021-0.005-0.033-0.007-0.221-0.039-0.441-0.104-0.661-0.175l-0.329-0.11c-0.105-0.035-0.205-0.069-0.307-0.101l-0.087-0.076-0.103-0.082 0.012-0.014c-0.255-0.189-0.543-0.448-0.741-0.564-0.071-0.060-0.144-0.17-0.099-0.161-0.029-0.021-0.055-0.042-0.072-0.055-0.045-0.019-0.082-0.033-0.118-0.046-0.034-0.014-0.066-0.028-0.099-0.043-0.069-0.034-0.148-0.078-0.276-0.158 0.234 0.077-0.062-0.063 0.235 0.089-0.275-0.155-0.325-0.215-0.65-0.317 0.124 0.005-0.179-0.16-0.328-0.218l0.185 0.132c-0.044-0.019-0.085-0.038-0.125-0.057-0.046-0.022-0.092-0.046-0.136-0.069-0.075-0.012-0.145-0.020-0.216-0.033l0.087-0.055c-0.311-0.081-0.601-0.084-0.873-0.093-0.135-0.004-0.265-0.009-0.393-0.026-0.125-0.018-0.243-0.058-0.357-0.113-0.175 0.012 0.337 0.098 0.178 0.122-0.287-0.065-0.571-0.217-0.662-0.233-0.16-0.048-0.254-0.052-0.338-0.050-0.043 0.002-0.080 0.005-0.123 0.007-0.021 0.001-0.047 0.001-0.070 0-0.028-0.001-0.046-0.001-0.094-0.009-0.030 0-0.062 0.002-0.098 0.002-0.031 0-0.066-0.002-0.106-0.005 0.055 0.025 0.106 0.086-0.211 0.105-0.295-0.014-0.362-0.104-0.175-0.12 0.071-0.001 0.106 0.006 0.103 0.015 0.096-0.007 0.22-0.015 0.103-0.043l-0.039 0.024c-0.146-0.028-0.552-0.031-0.455-0.069-0.225 0.020-0.099 0.036 0.067 0.051-0.245-0.027-0.432-0.023-0.623-0.026-0.090-0.006-0.214-0.018-0.345-0.038 0.061 0.019 0.116 0.051 0.055 0.045-0.568-0.081-0.255 0.021-0.642-0.003-0.216-0.055 0.086-0.077-0.305-0.082-0.236-0.046-0.045-0.066 0.050-0.077-0.043 0.001-0.084 0.001-0.125 0l-0.088-0.005c-0.034-0.004-0.068-0.006-0.101-0.010h-0.002zM13.342 6.649c0.144 0.020 0.202 0.117 0.335 0.175 0.209 0.094 0.367 0.218 0.513 0.398 0.189 0.232 0.361 0.463 0.547 0.697 0.053 0.067 0.121 0.108 0.173 0.173 0.067 0.082 0.113 0.173 0.184 0.254 0.091 0.105 0.197 0.175 0.287 0.278 0.114 0.136 0.24 0.255 0.357 0.383 0.054 0.059 0.083 0.128 0.132 0.185 0.039 0.045 0.153 0.143 0.105 0.223-0.022 0.038-0.189 0.059-0.233 0.069-0.091 0.017-0.169-0.002-0.262 0.022-0.139 0.036-0.264 0.092-0.393 0.154-0.193 0.093-0.384 0.135-0.563 0.262-0.408 0.293-0.92 0.413-1.342 0.686-0.041 0.027-0.089 0.052-0.134 0.077 0 0.010 0.002 0.020 0.002 0.029 0.003 0.176-0.030 0.353-0.003 0.53 0.018 0.129 0.079 0.217 0.163 0.316 0.171 0.199 0.358 0.382 0.53 0.582 0.337 0.389 0.629 0.815 0.909 1.247 0.258 0.403 0.531 0.777 0.842 1.138 0.246 0.287 0.429 0.617 0.681 0.901 0.012 0.013 0.027 0.025 0.039 0.038 0.184-0.092 0.369-0.182 0.552-0.278l3.207-1.726c0.418-0.201 0.803-0.416 1.206-0.647 0.466-0.266 0.965-0.485 1.441-0.736 0.381-0.2 0.768-0.395 1.146-0.604 0.225-0.127 0.521-0.262 0.707-0.434 0.071-0.067 0.102-0.154 0.185-0.213 0.107-0.076 0.248-0.104 0.364-0.182 0.103-0.069 0.237-0.184 0.362-0.19 0.039 0.105-0.219 0.278-0.314 0.376-0.073 0.075-0.133 0.13-0.225 0.185-0.131 0.077-0.099 0.098-0.173 0.187-0.088 0.104-0.331 0.23-0.453 0.311-0.303 0.206-0.608 0.407-0.916 0.607-0.607 0.395-1.286 0.702-1.898 1.089-0.575 0.364-1.135 0.734-1.721 1.086-0.704 0.422-1.371 0.862-2.055 1.309-0.253 0.165-0.523 0.301-0.789 0.443 0.288 0.241 0.584 0.482 0.844 0.746 0.019-0.006 0.037-0.012 0.057-0.017 0.096-0.023 0.162-0.076 0.262-0.096 0.11-0.023 0.138-0.026 0.235 0.057 0.124 0.104 0.245 0.22 0.372 0.321 0.083 0.068 0.179 0.109 0.261 0.177 0.111 0.090 0.214 0.203 0.305 0.312 0.1 0.12 0.195 0.216 0.328 0.3 0.104 0.067 0.181 0.155 0.273 0.237s0.197 0.133 0.29 0.209c0.096 0.081 0.172 0.179 0.266 0.259v0.002c0.066 0.055 0.119 0.083 0.173 0.156 0.115 0.155 0.216 0.286 0.35 0.426 0.103 0.107 0.193 0.219 0.28 0.34 0.22 0.309 0.485 0.589 0.698 0.901 0.221 0.323 0.415 0.653 0.676 0.951 0.16 0.186 0.311 0.385 0.479 0.563 0.097 0.105 0.202 0.196 0.293 0.309 0.176 0.216 0.351 0.432 0.522 0.649 0.089 0.11 0.199 0.194 0.292 0.299 0.136 0.151 0.272 0.314 0.4 0.472 0.088 0.108 0.145 0.226 0.22 0.341 0.138 0.219 0.206 0.467 0.29 0.705 0.067 0.189 0.171 0.395 0.204 0.585 0.034 0.201 0.009 0.41 0.024 0.614 0.019 0.207-0.051 0.479-0.256 0.527-0.141 0.034-0.326 0.097-0.48 0.084-0.087-0.007-0.175-0.017-0.262-0.021s-0.141 0.035-0.233-0.003c-0.056-0.024-0.114-0.063-0.17-0.099-0.076-0.050-0.138-0.052-0.209-0.115-0.118-0.109-0.234-0.217-0.353-0.326-0.166-0.153-0.35-0.284-0.513-0.439-0.074-0.071-0.153-0.134-0.232-0.201-0.077-0.069-0.139-0.153-0.218-0.22-0.151-0.127-0.327-0.233-0.484-0.353-0.082-0.063-0.166-0.124-0.245-0.187-0.119-0.097-0.204-0.202-0.312-0.309-0.194-0.195-0.39-0.391-0.597-0.571-0.239-0.205-0.446-0.441-0.679-0.652-0.268-0.242-0.537-0.438-0.774-0.719-0.256-0.305-0.472-0.649-0.712-0.968-0.529-0.702-1.133-1.345-1.647-2.062-0.119-0.169-0.22-0.35-0.331-0.525-0.032-0.049-0.074-0.106-0.082-0.163-0.016-0.105 0.076-0.238 0.132-0.307 0.055-0.067 0.090-0.14 0.122-0.216-0.082-0.126-0.161-0.253-0.252-0.371-0.243-0.319-0.486-0.639-0.733-0.957-0.093 0.054-0.186 0.108-0.28 0.161-0.644 0.365-1.28 0.753-1.911 1.138-0.34 0.209-0.681 0.417-1.014 0.637-0.039 0.025-0.078 0.051-0.117 0.077 0.004 0.010 0.014 0.018 0.017 0.029 0.016 0.053-0.005 0.123 0.003 0.178 0.012 0.078 0.059 0.096 0.009 0.161-0.056 0.073-0.219 0.132-0.295 0.168-0.15 0.071-0.304 0.137-0.45 0.216-0.376 0.199-0.801 0.28-1.18 0.48-0.211 0.111-0.403 0.248-0.602 0.379-0.193 0.127-0.399 0.224-0.589 0.355-0.273 0.19-0.54 0.386-0.825 0.552-0.214 0.125-0.375 0.244-0.544 0.429-0.076 0.084-0.107 0.185-0.168 0.273-0.072 0.101-0.153 0.226-0.185 0.353 0.008 0.015 0.023 0.026 0.031 0.041 0.080 0.148 0.193 0.27 0.273 0.419 0.066 0.121 0.123 0.231 0.211 0.34 0.145 0.183 0.324 0.308 0.498 0.463 0.056 0.049 0.126 0.073 0.178 0.122 0.050 0.047 0.070 0.083 0.129 0.127 0.117 0.084 0.142 0.135 0.293 0.122-0.138 0.146-0.341 0.235-0.468 0.388-0.049 0.057-0.059 0.138-0.108 0.194-0.036 0.044-0.092 0.064-0.129 0.105-0.052 0.062-0.056 0.12-0.123 0.168-0.137 0.098-0.227 0.151-0.396 0.096-0.205-0.066-0.432-0.136-0.613-0.252-0.163-0.105-0.322-0.236-0.463-0.369-0.206-0.189-0.417-0.343-0.582-0.571-0.317-0.442-0.675-0.881-0.878-1.388-0.258-0.645-0.399-1.297-0.551-1.971-0.090-0.396-0.147-0.805-0.16-1.211 0.089 0.1 0.085-0.015 0.084-0.13-0.002-0.15-0.050-0.279-0.053-0.432-0.004-0.1-0.017-0.206-0.010-0.305 0.001-0.021 0.024-0.191 0.046-0.208 0.070-0.045 0.279 0.075 0.352 0.105 0.145 0.055 0.271 0.049 0.426 0.043 0.067-0.003 0.084-0.001 0.139 0.026 0.098 0.055 0.066 0.061 0.079 0.185 0.009 0.089 0.046 0.154 0.051 0.245 0.002 0.067-0.002 0.127 0.014 0.192 0.043 0.209 0.050 0.419 0.113 0.628 0.060 0.192 0.080 0.399 0.175 0.578 0.036 0.069 0.066 0.134 0.099 0.197 0.155 0.006 0.315 0.007 0.463-0.003 0.157-0.013 0.307-0.053 0.462-0.082 0.129-0.023 0.269-0.009 0.389-0.055 0.438-0.172 0.847-0.409 1.27-0.618 0.351-0.172 0.708-0.339 1.043-0.54 0.484-0.293 1.061-0.528 1.479-0.911 0.129-0.118 0.322-0.198 0.489-0.105 0.423-0.251 0.841-0.508 1.266-0.755 0.504-0.295 0.994-0.616 1.501-0.904 0.189-0.1 0.386-0.185 0.58-0.276-0.491-0.67-0.976-1.343-1.529-1.968-0.453-0.514-0.927-1.018-1.458-1.452-0.177-0.146-0.354-0.306-0.546-0.432-0.115-0.077-0.241-0.159-0.371-0.209-0.010 0.007-0.019 0.014-0.029 0.021-0.307 0.213-0.618 0.409-0.877 0.679-0.225 0.237-0.41 0.509-0.59 0.781-0.056 0.084-0.124 0.154-0.173 0.245-0.039 0.069-0.071 0.16-0.123 0.218-0.077 0.083-0.146 0.051-0.228 0.003-0.108-0.062-0.221-0.141-0.309-0.232-0.114-0.118-0.201-0.264-0.312-0.384-0.162-0.18-0.335-0.353-0.486-0.539-0.239-0.291-0.414-0.629-0.666-0.911-0.098-0.113-0.194-0.228-0.29-0.343-0.039-0.046-0.074-0.095-0.108-0.146-0.028-0.042-0.118-0.137-0.122-0.187-0.007-0.093 0.295-0.194 0.4-0.228 0.138-0.045 0.283-0.073 0.422-0.112 0.127-0.038 0.253-0.081 0.376-0.129 0.142-0.056 0.278-0.119 0.408-0.199 0.223-0.135 0.467-0.207 0.69-0.34 0.194-0.114 0.412-0.177 0.616-0.273 0.097-0.046 0.172-0.12 0.266-0.168 0.143-0.073 0.296-0.074 0.427-0.182 0.074-0.060 0.127-0.127 0.211-0.175 0.079-0.045 0.154-0.088 0.23-0.134 0.071-0.041 0.125-0.085 0.187-0.136 0.063-0.049 0.102-0.049 0.166-0.081 0.080-0.042 0.123-0.107 0.211-0.139 0.084-0.033 0.136-0.078 0.202-0.142 0.089-0.086 0.13-0.195 0.189-0.302 0.191-0.349 0.45-0.738 0.741-1.012 0.166-0.153 0.418-0.271 0.532-0.472 0.045-0.078 0.060-0.171 0.108-0.247z"></path>
</svg>
