<!-- Generated by IcoMoon.io -->
<svg version="1.1" xmlns="http://www.w3.org/2000/svg" width="33" height="32" viewBox="0 0 33 32">
<title>return_to_the_midnight_masks</title>
<path d="M26.237 13.425c-0.015 0.018-0.312 0.048-0.358 0.059-0.128 0.030-0.253 0.068-0.377 0.102-0.183 0.050-0.391 0.123-0.592 0.12-0.443-0.006-0.66-0.419-0.849-0.634-0.083-0.096-0.176-0.189-0.269-0.28-0.195-0.195-0.339-0.412-0.549-0.596-0.11-0.094-0.187-0.21-0.273-0.324-0.059-0.082-0.126-0.16-0.195-0.237-0.104-0.112-0.216-0.215-0.307-0.338-0.136-0.186-0.213-0.403-0.324-0.603-0.133-0.245-0.297-0.474-0.466-0.696-0.185-0.24-0.382-0.481-0.589-0.702-0.174-0.185-0.374-0.34-0.543-0.528-0.236-0.26-0.439-0.543-0.635-0.832-0.158-0.231-0.317-0.457-0.467-0.694-0.071-0.112-0.131-0.233-0.223-0.331-0.086-0.093-0.179-0.178-0.28-0.254-0.068-0.052-0.142-0.096-0.205-0.154-0.052-0.048-0.095-0.132-0.153-0.171-0.095-0.062-0.244-0.059-0.351-0.096-0.118-0.041-0.234-0.078-0.354-0.116-0.22-0.068-0.481-0.104-0.682-0.205-0.19-0.096-0.42-0.178-0.634-0.202-0.096-0.012-0.186-0.057-0.281-0.079-0.108-0.027-0.217-0.010-0.326-0.025-0.096-0.014-0.169-0.065-0.261-0.104-0.273-0.106-1.439 0.894-1.601 1.005-0.191 0.132-0.351 0.284-0.524 0.437-0.202 0.183-0.307 0.405-0.454 0.629-0.163 0.25-0.365 0.482-0.586 0.681-0.144 0.128-0.259 0.273-0.388 0.412-0.16 0.171-0.351 0.301-0.527 0.453-0.353 0.307-0.64 0.68-0.993 0.989-0.2 0.175-0.429 0.313-0.623 0.496-0.092 0.088-0.162 0.178-0.219 0.287-0.021 0.042-0.023 0.069-0.059 0.102-0.077 0.070-0.194 0.121-0.276 0.189-0.115 0.095-0.226 0.197-0.329 0.305-0.174 0.162-0.358 0.312-0.549 0.454-0.488 0.375-1.001 0.735-1.46 1.147-0.016 0.014-0.213 0.168-0.234 0.236-0.025 0.084-0.523-0.059-0.604-0.206-0.079-0.142-0.064-0.302-0.056-0.454 0.007-0.125 0.466-0.513 0.506-0.57 0.339-0.493 0.866-0.976 1.307-1.423 0.427-0.433 0.903-0.845 1.322-1.28 0.369-0.38 0.656-0.793 1.025-1.173 0.506-0.524 1.080-1 1.562-1.538 0.571-0.636 1.32-1.174 2.015-1.748 0.258-0.213 0.487-0.441 0.744-0.655 0.236-0.195 0.492-0.377 0.709-0.581 0.12-0.113 0.139-0.317 0.375-0.276 0.285 0.047 0.573 0.221 0.822 0.328 0.37 0.157 0.712 0.332 1.051 0.517 0.286 0.157 0.603 0.327 0.835 0.525 0.173 0.148 0.261 0.302 0.374 0.471 0.322 0.485 1.135 0.664 1.618 1.053 0.254 0.205 0.444 0.439 0.65 0.666 0.292 0.328 0.646 0.62 1.004 0.915 0.507 0.423 0.671 0.945 1.013 1.427 0.301 0.423 0.52 0.861 0.792 1.294 0.203 0.326 0.465 0.643 0.68 0.967 0.19 0.287 0.386 0.58 0.676 0.829 0.238 0.207 0.48 0.408 0.721 0.612 0.094 0.080 0.31 0.292 0.226 0.398zM23.692 18.679c0 0.358 0.038 0.737-0.028 1.091-0.048 0.261-0.106 0.493-0.111 0.763-0.008 0.396-0.031 0.791-0.047 1.186-0.017 0.465-0.073 0.931-0.106 1.396-0.048 0.665-0.122 1.366-0.301 2.013-0.084 0.307-0.224 0.572-0.282 0.889-0.027 0.136-0.023 0.494-0.134 0.617-0.033-0.087-0.009-0.21-0.009-0.302 0.001-0.22-0.001-0.44 0-0.66 0.002-0.748-0.15-1.474-0.213-2.22-0.072-0.864-0.081-1.736-0.080-2.603 0.001-0.38-0.028-0.76-0.018-1.14 0.006-0.228 0.033-0.456 0.046-0.686 0.005-0.065 0.009-0.132 0.010-0.196 0.025-1.18 0.064-2.358 0.125-3.537 0.030-0.577 0.063-1.152 0.099-1.728 0.009-0.165 0.020-0.33 0.031-0.496 0.004-0.050 0.023-0.124 0.014-0.175 0.046-0.027 0.096-0.107 0.15-0.149 0.075-0.059 0.157-0.104 0.237-0.143 0.086-0.043 0.252-0.099 0.344-0.056 0.137 0.065 0.191 0.448 0.215 0.631 0.020 0.138 0.058 0.282 0.068 0.424 0.020 0.305-0.002 0.627-0.002 0.932 0 0.976-0.002 1.951-0.002 2.926v1.22zM20.918 11.791c-0.057 0.068-0.149 0.139-0.236 0.162-0.090 0.023-0.228-0.004-0.323-0.004h-0.348c-0.184 0-0.372 0.015-0.556-0.006-0.28-0.032-0.504-0.196-0.774-0.244-0.237-0.042-0.529-0.060-0.77-0.046-0.268 0.016-0.507 0.138-0.787 0.145-0.269 0.006-0.54-0.041-0.805 0.032-0.123 0.033-0.244 0.067-0.366 0.1-0.2 0.026-0.4 0.018-0.598-0.020-0.328-0.031-0.619 0.042-0.942 0.081-0.197 0.023-0.395-0.001-0.593 0.020-0.286 0.030-0.567 0.067-0.856 0.031-0.264-0.033-0.509-0.097-0.776-0.095-0.175 0.002-0.349 0.001-0.524 0.001-0.065 0-0.814-0.548-0.815-0.61 0-0.069-0.001-0.132 0.008-0.199-0.001 0.005 0.027-0.112 0.027-0.114 0.047-0.104 0.149-0.183 0.22-0.271 0.067-0.087 0.101-0.137 0.22-0.134 0.108 0.001 0.222-0.012 0.33-0.002 0.132 0.010 0.249 0.054 0.385 0.052 0.136 0 0.273 0 0.408 0 0.19 0 0.381 0.009 0.572 0.004 0.307-0.006 0.569-0.162 0.884-0.157 0.24 0.002 0.463-0.001 0.698 0.041 0.123 0.021 0.233 0.012 0.351-0.017 0.308-0.080 0.646-0.022 0.962-0.022 0.184-0.001 0.371-0.016 0.555 0.004 0.123 0.014 0.245 0.052 0.371 0.052 0.253 0.002 0.501-0.059 0.755-0.054 0.142 0.001 0.28-0.038 0.421-0.050 0.147-0.012 0.29 0.021 0.434 0.036 0.243 0.027 0.477 0.018 0.71 0.101 0.474 0.168 1.706 0.449 1.73 0.482 0.096 0.121 0.116 0.596 0.027 0.703zM20.638 19.879c-0.062 0.511-0.123 1.015-0.258 1.512-0.084 0.311-0.166 0.651-0.328 0.935-0.075 0.132-0.195 0.249-0.284 0.374-0.051 0.072-0.122 0.127-0.181 0.19-0.15 0.158-0.258 0.284-0.43 0.42-0.371 0.296-0.823 0.536-1.269 0.704-0.332 0.123-0.687 0.104-1.035 0.102-0.366-0.001-0.735 0.008-1.101 0.002-0.388-0.006-0.784-0.069-1.167-0.142-0.465-0.090-0.798-0.226-1.191-0.498-0.208-0.143-0.435-0.26-0.641-0.404-0.186-0.132-0.311-0.4-0.409-0.596-0.201-0.402-0.369-0.837-0.492-1.272-0.105-0.371-0.261-0.757-0.28-1.144-0.021-0.402-0.033-0.826 0.005-1.228 0.043-0.443 0.247-0.837 0.418-1.239 0.086-0.2 0.168-0.393 0.258-0.586-0.001 0-0.002-0.001-0.004-0.001-0.294-0.269-0.618-0.422-0.75-0.82 0.062 0.253-0.051 0.023-0.052-0.052-0.001-0.091 0.017-0.192 0.111-0.239 0.099-0.049 0.242-0.009 0.326 0.036 0.097 0.052 0.136 0.134 0.217 0.197 0.089 0.068 0.176 0.115 0.261 0.194 0.059 0.057 0.122 0.107 0.186 0.157 0.064-0.086 0.134-0.17 0.198-0.244 0.046-0.052 0.213-0.24 0.318-0.386 0.117-0.159 0.268-0.213 0.438-0.307 0.122-0.065 0.196-0.175 0.321-0.238 0.11-0.058 0.226-0.099 0.338-0.153 0.122-0.059 0.258-0.076 0.388-0.104 0.178-0.037 0.35-0.090 0.529-0.12 0.502-0.080 1.027-0.079 1.535-0.060 0.238 0.008 0.469 0.052 0.709 0.050 0.281-0.002 0.583-0.042 0.855 0.044 0.269 0.085 0.551 0.152 0.802 0.282 0.052 0.026 0.105 0.064 0.158 0.106 0.028-0.036 0.060-0.069 0.093-0.112 0.116-0.148 0.293-0.741 0.565-0.511 0.084 0.069 0.101 0.17 0.149 0.253 0.032 0.057 0.179 0.173 0.189 0.233 0.008 0.054-0.027 0.057-0.046 0.101-0.039 0.087-0.070 0.186-0.115 0.271-0.067 0.127-0.143 0.259-0.227 0.382 0.221 0.263 0.411 0.553 0.541 0.868 0.101 0.243 0.195 0.492 0.27 0.742 0.050 0.168 0.118 0.326 0.121 0.503 0.002 0.078-0.004 0.158-0.005 0.237-0.001 0.52 0.027 1.043-0.035 1.559zM10.317 22.257c-0.109 0.559-0.010 1.17-0.043 1.74-0.034 0.593-0.117 1.204-0.279 1.776-0.054 0.162-0.099 0.324-0.137 0.491-0.014 0.1-0.033 0.2-0.056 0.297-0.042 0.036-0.065 0.006-0.11 0.038-0.056 0.039-0.101 0.191-0.187 0.134-0.149-0.097-0.122-0.486-0.146-0.635-0.028-0.187-0.004-0.377-0.007-0.567-0.006-0.305-0.1-0.591-0.137-0.892-0.127-1.004-0.324-1.998-0.445-3.002-0.075-0.638-0.162-1.275-0.211-1.915-0.023-0.292-0.077-0.624-0.033-0.916 0.012-0.084 0.048-0.159 0.068-0.242 0.086-0.355 0.027-0.765 0.025-1.126-0.002-0.761-0.1-1.486-0.138-2.244-0.028-0.572-0.035-1.148-0.023-1.722 0.005-0.249-0.094-0.96-0.091-0.978 0.090-0.048 0.202-0.002 0.298-0.028 0.122-0.032 0.248-0.095 0.374-0.117 0.105-0.020 0.215 0.017 0.318-0.002 0.085-0.017 0.284 1.284 0.28 2.005-0.005 0.632 0.015 1.307 0.101 1.929 0.032 0.232 0.074 0.462 0.095 0.697 0.030 0.344 0.010 0.697 0.036 1.043 0.064 0.832 0.208 1.649 0.307 2.473 0.037 0.31 0.068 0.62 0.096 0.932 0.022 0.263 0.097 0.57 0.046 0.831zM23.241 27.547c0.001-0.004 0.005-0.009 0.007-0.012-0.004 0.015-0.010 0.027-0.025 0.043-0.044 0.025-0.075 0.038-0.097 0.046-0.017 0.005-0.016-0.002-0.023-0.005 0.037-0.020 0.080-0.042 0.138-0.072zM29.514 12.761c0.001 0.014 0.001 0.021 0.001 0.028l-0.046-0.115c0.014 0.028 0.028 0.054 0.044 0.086zM29.916 16.404c-0.036-0.222-0.159-0.624-0.17-0.539 0.008 0.090 0.006 0.232-0.023 0.242l-0.038-0.202c-0.006-0.001-0.012-0.004-0.018-0.006l-0.004-0.032-0.259-1.376 0.15-1.007 0.010 0.026-0.005-0.074 0.047-0.31c0.010 0.012 0.016 0.042 0.012 0.104 0.031-0.091 0.037-0.152 0.038-0.196-0.031-0.058-0.057-0.091-0.076-0.202-0.001-0.023 0.006-0.016 0.017 0.001l-0.109-0.196c0.032 0.033 0.038-0.056 0.080 0.075-0.11-0.388-0.302-0.57-0.303-0.735l0.017 0.030c-0.179-0.371-0.13-0.205-0.19-0.24l-0.018-0.047-0.093-0.186 0.006-0.215-0.079-0.025c-0.022-0.052-0.068-0.154-0.038-0.146-0.13-0.174-0.006 0.043-0.095-0.050-0.055-0.206-0.237-0.492-0.29-0.652-0.012-0.049-0.012-0.091 0.003-0.112-0.076-0.075 0.060 0.258-0.073-0.005 0.067-0.114-0.136-0.31-0.18-0.562 0.076 0.054 0.134 0.287 0.090 0.036-0.138-0.111-0.155-0.465-0.245-0.656-0.012 0.004-0.026-0.006-0.046-0.041-0.095-0.1-0.254-0.408-0.423-0.651 0.012 0.002-0.025-0.071-0.082-0.18-0.059-0.112-0.141-0.261-0.218-0.405-0.047-0.053-0.093-0.104-0.134-0.152-0.039-0.046-0.075-0.089-0.106-0.125l0.015-0.001c-0.096 0.002-0.323-0.25-0.507-0.418 0.037-0.022 0.080-0.002 0.189 0.080l-0.163-0.167c-0.055-0.023-0.116-0.067-0.226-0.17l0.079 0.005-0.053-0.053c-0.018-0.016-0.038-0.036-0.046-0.041-0.079-0.102-0.158-0.205-0.243-0.316-0.086-0.115-0.173-0.24-0.253-0.388-0.037 0.006 0.004 0.162-0.048 0.157l-0.12-0.18c0.017-0.004 0.043 0.009 0.080 0.052-0.025-0.028-0.091-0.095-0.122-0.163l0.131 0.116c-0.084-0.162-0.084-0.058-0.162-0.181 0.035-0.020-0.036-0.105 0.001-0.105 0.023 0.030 0.057 0.115 0.101 0.153-0.033-0.056-0.069-0.116-0.097-0.173-0.032-0.067-0.062-0.127-0.085-0.174-0.026-0.027-0.052-0.053-0.059-0.067-0.001 0.027-0.031 0.042-0.131-0.025-0.25-0.182-0.057-0.101-0.19-0.224-0.076-0.023-0.219-0.163-0.258-0.12-0.074-0.056-0.072-0.086-0.089-0.12-0.049-0.026-0.133-0.083-0.22-0.143-0.043-0.030-0.086-0.060-0.126-0.086-0.047-0.031-0.089-0.059-0.121-0.079-0.096-0.021-0.117-0.015-0.058 0.023l0.038 0.015 0.008 0.006-0.008-0.005-0.022-0.005c-0.25-0.048-0.469-0.116-0.703-0.196-0.116-0.039-0.231-0.080-0.344-0.118l-0.171-0.058c-0.051-0.015-0.101-0.031-0.151-0.046-0.037-0.034-0.074-0.068-0.111-0.101l0.014-0.015c-0.238-0.201-0.506-0.474-0.694-0.599-0.065-0.065-0.132-0.178-0.087-0.165-0.076-0.067-0.128-0.111-0.178-0.153-0.139-0.006-0.221-0.012-0.437-0.053 0.242-0.010-0.080-0.038 0.247 0-0.306-0.047-0.374-0.084-0.709-0.064 0.117-0.038-0.227-0.085-0.374-0.084l0.212 0.057c-0.147-0.006-0.294-0.026-0.407-0.039l-0.027-0.008c0.016-0.006 0.025-0.016 0.032-0.025s0.015-0.021 0.032-0.031c-0.016-0.004-0.022-0.005-0.025-0.006-0.001-0.002-0.021-0.008-0.039-0.015l-0.054-0.017c-0.036-0.012-0.072-0.021-0.106-0.031-0.071-0.018-0.141-0.035-0.21-0.047-0.137-0.027-0.271-0.044-0.4-0.063-0.258-0.041-0.502-0.069-0.705-0.21-0.171-0.006 0.318 0.134 0.162 0.142-0.276-0.096-0.539-0.277-0.624-0.305-0.173-0.073-0.265-0.080-0.358-0.085-0.046-0.002-0.091-0.004-0.145-0.012-0.026-0.004-0.057-0.010-0.089-0.017-0.036-0.007-0.058-0.014-0.125-0.036-0.023-0.002-0.057-0.006-0.093-0.009 0.053 0.028 0.099 0.092-0.215 0.092-0.291-0.030-0.351-0.123-0.165-0.128 0.069 0.002 0.102 0.014 0.1 0.021 0.093-0.001 0.218-0.002 0.104-0.036l-0.038 0.020c-0.143-0.034-0.543-0.060-0.448-0.092-0.221 0.006-0.095 0.032 0.067 0.055-0.143-0.022-0.263-0.035-0.376-0.043-0.126-0.009-0.244-0.017-0.379-0.026-0.044 0.009-0.091 0.020-0.141 0.031-0.039 0.008-0.080 0.016-0.125 0.023 0.063-0.001 0.123 0.012 0.065 0.027-0.555 0.104-0.232 0.1-0.601 0.201-0.22 0.017 0.054-0.101-0.312 0.020-0.234 0.032-0.063-0.048 0.023-0.089-0.107 0.042-0.231 0.073-0.314 0.089-0.189 0.017-0.385 0.012-0.512 0.026l0.18-0.046c-0.107 0.026-0.197 0.039-0.289 0.054l0.111 0.030c-0.107 0.008-0.198 0.022-0.2 0.003-0.106 0.047 0.096 0.064-0.117 0.138-0.147-0.002-0.432 0.090-0.491 0.036 0.453-0.047-0.059-0.054 0.321-0.121-0.073 0.018-0.163 0.032-0.27 0.039-0.018-0.004 0.012-0.015 0.042-0.023-0.052 0.002-0.091 0.005-0.123 0.006 0.004-0.001-0.014-0.001-0.027 0-0.012 0-0.023 0.001-0.034 0.002-0.021 0.002-0.038 0.006-0.053 0.010-0.028 0.008-0.048 0.020-0.072 0.031-0.047 0.025-0.112 0.051-0.308 0.057 0.056-0.037-0.109-0.060-0.181-0.052 0.182-0.006 0.090 0.055-0.077 0.087-0.29-0.015-0.313 0.032-0.464 0.035l0.173 0.006c-0.027 0.018-0.073 0.027-0.134 0.035-0.067 0.006-0.125 0.009-0.259 0.020-0.012 0.008-0.027 0.020-0.042 0.028-0.010-0.004 0.007-0.020 0.034-0.041-0.028 0.021-0.059 0.041-0.090 0.060-0.025 0.016-0.049 0.027-0.075 0.041-0.052 0.026-0.109 0.052-0.165 0.078-0.116 0.052-0.237 0.11-0.347 0.2-0.133 0.055-0.046-0.048-0.162 0.005-0.105 0.086-0.181 0.128-0.25 0.163-0.060 0.027-0.112 0.053-0.186 0.086l-0.008 0.001c-0.014 0.005-0.030 0.010-0.046 0.014-0.033 0.012-0.069 0.023-0.11 0.039 0.115 0.016 0.13 0-0.107 0.115l0.163-0.055 0.081-0.028 0.041-0.014 0.016-0.006c0.003-0.006 0.051-0.037 0.085-0.060l0.106-0.075-0.099 0.088c-0.032 0.030-0.073 0.064-0.080 0.078-0.010 0.010-0.057 0.032-0.096 0.049 0.041-0.010 0.089-0.026 0.104-0.032 0.053-0.038 0.105-0.076 0.152-0.11 0.051-0.037 0.097-0.070 0.136-0.089-0.137 0.13-0.128 0.11-0.033 0.097-0.048 0.012-0.092 0.033-0.134 0.055-0.039 0.022-0.089 0.055-0.107 0.072-0.032 0.012-0.064 0.025-0.097 0.038-0.037 0.014-0.074 0.028-0.112 0.043-0.079 0.027-0.16 0.052-0.25 0.060l-0.022-0.114c-0.16 0.025-0.302 0.068-0.445 0.12-0.070 0.027-0.143 0.053-0.217 0.080-0.079 0.030-0.133 0.051-0.283 0.097-0.050 0.057-0.105 0.115-0.16 0.176-0.044 0.048-0.092 0.097-0.144 0.148l0.139-0.12c-0.020 0.086-0.236 0.258-0.347 0.403-0.017-0.038-0.105 0.035-0.176 0.074 0.028 0.012-0.289 0.301-0.261 0.386l-0.028 0.014c-0.025-0.004-0.107 0.020-0.17 0.032-0.423 0.17-0.428 0.314-0.832 0.482 0.104-0.093-0.090-0.035 0.167-0.183-0.134 0.059-0.258 0.107-0.248 0.133-0.021 0.001-0.053 0.016-0.089 0.036-0.048 0.026-0.104 0.057-0.164 0.090-0.036 0.060-0.073 0.123-0.107 0.18-0.028 0.046-0.057 0.084-0.085 0.107-0.020 0.062 0.001 0.101-0.093 0.234-0.017 0.009-0.016-0.012-0.016-0.012 0.016 0.012-0.123 0.227-0.008 0.133-0.178 0.149-0.349 0.412-0.524 0.664-0.181 0.248-0.356 0.491-0.516 0.617-0.091 0.131-0.191 0.276-0.284 0.408-0.118 0.134-0.226 0.255-0.319 0.361 0.005-0.022-0.014-0.014 0.026-0.052-0.296 0.27-0.084 0.257-0.42 0.564-0.203 0.128 0.138-0.201 0.023-0.111-0.038-0.010-0.081 0.016-0.13 0.063-0.025 0.022-0.051 0.052-0.079 0.084-0.033 0.042-0.072 0.086-0.111 0.133-0.032 0.134-0.042 0.19-0.067 0.274-0.022 0.078-0.048 0.152-0.085 0.215l0.014-0.074c-0.105 0.213-0.11 0.562-0.223 0.927 0 0-0.006-0.022-0.017-0.007-0.001 0.023-0.002 0.044-0.001 0.058 0 0.012-0.015 0.053-0.028 0.087-0.014 0.036-0.028 0.074-0.044 0.114-0.032 0.078-0.069 0.162-0.108 0.247-0.079 0.171-0.165 0.347-0.242 0.498 0.012-0.123 0.058-0.158-0.020-0.121-0.073 0.147 0.095-0.004-0.052 0.291-0.031 0.033-0.068 0.078-0.121 0.148-0.007 0.027-0.015 0.056-0.022 0.083-0.006 0.021-0.012 0.042-0.021 0.059-0.015 0.037-0.030 0.063-0.047 0.070l0.018-0.234 0.067-0.121c-0.025 0.015-0.060 0.060-0.094 0.112-0.005 0.028-0.008 0.058-0.012 0.087l-0.003 0.065c-0.002 0.040-0.002 0.080-0.001 0.12 0 0.080 0.001 0.158-0.008 0.223l-0.030-0.023c-0.031 0.463 0.041 0.496-0.002 0.966-0.001 0.002-0.001 0.006-0.003 0.012l0.012-0.012c0.005-0.006 0.012-0.012 0.016-0.022 0.002 0.010 0.006 0.020 0.007 0.026-0.005 0.238-0.102 0.191-0.12 0.46l-0.095 0.060c-0.027 0.159-0.078 0.518-0.138 0.823-0.005 0.058-0.009 0.106-0.015 0.153-0.006-0.044-0.012-0.087-0.010-0.158 0.018-0.211 0.067-0.479 0.089-0.668-0.042 0.157-0.127 0.488-0.143 0.657-0.002 0.037 0.001 0.047 0.003 0.060 0.001-0.018 0.001-0.038 0.002-0.059 0.012-0.079 0.017-0.134 0.043-0.191-0.001 0.062-0.001 0.117-0.012 0.197 0.002 0.208-0.015 0.43-0.057 0.701-0.043-0.027-0.078 0.057-0.107 0.191-0.016 0.067-0.031 0.147-0.044 0.232-0.017 0.095-0.033 0.195-0.049 0.292 0.010 0.060 0.018 0.12 0.028 0.178 0.007 0.049 0.012 0.095 0.017 0.138 0.007 0.087 0.008 0.164-0.003 0.215 0.042 0.144 0.075 0.291 0.105 0.438 0.015 0.075 0.030 0.148 0.042 0.223l0.021 0.114c0.005 0.032 0.015 0.090 0.015 0.093-0.012 0.169-0.021 0.341-0.032 0.519-0.008 0.185-0.016 0.377-0.018 0.576 0.122-0.263-0.001 0.219 0.12 0.175 0 0.059 0.001 0.107 0.001 0.143 0.016 0.057 0.020 0.081 0.025 0.102 0.003 0.018 0.005 0.031 0.003 0.037l-0.005-0.037c0.002 0.016 0.002 0.025 0.003 0.038h0.001l0.059 0.53c-0.002 0.131-0.067-0.155-0.087-0.133 0.084 0.373-0.012 0.169 0.020 0.422 0.030-0.062 0.091 0.114 0.13 0.328l-0.021-0.311c0.041 0.107 0.064 0.19 0.079 0.26 0.007 0.035 0.012 0.065 0.016 0.094 0.005 0.035 0.002 0.043 0.009 0.095 0.008 0.032 0.012 0.048 0.014 0.065l0.008 0.049c0.006 0.036 0.014 0.072 0.025 0.111 0.022 0.080 0.059 0.178 0.133 0.314l-0.097-0.144c0.122 0.248 0.371 0.95 0.562 1.165 0.006 0.051-0.001 0.122-0.054 0.014 0.064 0.173 0.143 0.354 0.226 0.534 0.088 0.188 0.175 0.377 0.259 0.56 0.051 0.065 0.1 0.132 0.149 0.196 0.043 0.059 0.085 0.116 0.125 0.17 0.081 0.113 0.149 0.22 0.203 0.319l-0.053-0.025c0.078 0.096 0.169 0.144 0.233 0.287-0.015 0.001-0.053-0.025-0.021 0.023 0.015 0.016 0.042 0.046 0.077 0.083 0.017 0.020 0.037 0.039 0.056 0.063l0.030 0.035 0.048 0.062c0.037 0.027 0.076 0.053 0.112 0.081 0.027 0.020 0.053 0.042 0.075 0.062l-0.131-0.058c0.481 0.424 0.836 0.528 1.263 0.857-0.057 0.065 0.302 0.421 0.481 0.597l-0.016 0.004c0.261 0.235 0.497 0.427 0.728 0.614 0.118 0.091 0.233 0.183 0.35 0.275 0.059 0.047 0.12 0.094 0.179 0.141 0.031 0.025 0.062 0.049 0.091 0.074 0.035 0.028 0.070 0.057 0.105 0.086 0.031 0.017 0.065 0.038 0.101 0.059 0.19 0.194 0.627 0.479 1.031 0.749 0.217 0.178 0.466 0.384 0.652 0.559-0.074-0.079 0.054-0.042 0.157 0.030 0.052 0.050 0.133 0.102 0.202 0.149 0.036 0.023 0.067 0.044 0.089 0.064 0.018 0.014 0.053 0.048 0.054 0.062 0.005 0.008 0.003 0.016-0.006 0.021l-0.005-0.002-0.060-0.051c0.001 0.014 0.023 0.041 0.048 0.069 0.067 0.046 0.088 0.064 0.134 0.093 0.044 0.028 0.095 0.054 0.148 0.080 0.107 0.050 0.223 0.107 0.327 0.157l0.084-0.075c0.085 0.065 0.182 0.13 0.289 0.189 0.053 0.030 0.107 0.059 0.164 0.087 0.072 0.035 0.142 0.069 0.212 0.104l0.261 0.010c0.074 0.001 0.146 0.001 0.216 0.004 0.142 0 0.281 0.002 0.408 0.004 0.128 0.004 0.245 0.008 0.348 0.021 0.052 0.006 0.099 0.012 0.141 0.021 0.041 0.010 0.086 0.021 0.081 0.032-0.002-0.006 0.057 0.006 0.097 0.015 0.043 0.010 0.088 0.021 0.132 0.032 0.089 0.021 0.178 0.043 0.259 0.055l-0.026 0.049c0.159 0.057 0.29 0.102 0.422 0.148 0.067 0.022 0.133 0.046 0.205 0.068 0.079 0.026 0.162 0.052 0.255 0.081 0.079 0.008 0.211 0.022 0.365 0.038l-0.118 0.026c0.316 0.043 0.418-0.11 0.71-0.076l0.078 0.093 0.205 0.028 0.248 0.037 0.349-0.073 0.308-0.069c0.205-0.048 0.406-0.105 0.599-0.182-0.005 0.015-0.015 0.041-0.102 0.067 0.26-0.044 0.989-0.242 0.867-0.316 0.014 0.032 0.131-0.001 0.281-0.057 0.076-0.030 0.159-0.064 0.242-0.099 0.041-0.018 0.081-0.036 0.121-0.053 0.020-0.008 0.039-0.017 0.058-0.025l0.028-0.012 0.012-0.008c0.006-0.003 0.040-0.012 0.059-0.016l-0.038 0.060c0.242-0.104 0.247-0.123 0.594-0.191 0.084-0.004 0.079 0.033-0.035 0.035 0.281-0.010 0.21-0.081 0.549-0.099l-0.12 0.052c0.284-0.035 0.259-0.051 0.41-0.112 0.176-0.047 0.543-0.062 0.591-0.018 0.035-0.036 0.184-0.097 0.353-0.107 0.026 0.016-0.033 0.036-0.063 0.046 0.102-0.006 0.194-0.017 0.276-0.031 0.042-0.006 0.080-0.015 0.118-0.022 0.051-0.009 0.099-0.018 0.146-0.028 0.081-0.075 0.154-0.144 0.226-0.212 0.065-0.058 0.133-0.111 0.216-0.158 0.017 0.008 0.040 0.002 0.064-0.012-0.216 0.176-0.405 0.329-0.494 0.403-0.058 0.006-0.093 0.012-0.102 0.012 0.005 0.016 0.055 0.021 0.117 0.023 0.096-0.050 0.243-0.147 0.037 0.083-0.001 0.001-0.005 0.002-0.008 0.004 0.002-0.001 0.005-0.001 0.008-0.002 0.039-0.040 0.084-0.083 0.13-0.128 0.023-0.028 0.049-0.057 0.075-0.086 0.054-0.059 0.112-0.122 0.17-0.188 0.12-0.128 0.249-0.254 0.371-0.339 0.014-0.006 0.027-0.012 0.041-0.012l-0.020 0.025c0.057-0.041 0.101-0.084 0.141-0.127 0.078-0.054 0.132-0.091 0.199-0.146 0.006 0.004 0.012 0.005 0.017 0.005 0.005 0.001 0.007 0.002 0.014 0.001 0.015-0.006 0.032-0.012 0.051-0.020 0.034-0.015 0.074-0.033 0.115-0.053 0.080-0.038 0.165-0.080 0.224-0.108-0.035-0.044 0.149-0.122-0.039-0.083 0.023-0.006-0.023 0.018-0.116 0.064-0.018 0.012-0.044 0.025-0.055 0.033 0.002-0.002 0.005-0.005 0.006-0.009l-0.236 0.115-0.059 0.049c0.021-0.026 0.042-0.053 0.048-0.067 0.009-0.012 0.069-0.047 0.112-0.068 0.047-0.023 0.099-0.044 0.16-0.062 0.057-0.066 0.12-0.134 0.157-0.171 0.222-0.020 0.607-0.155 0.678-0.137 0.030-0.016 0.060-0.033 0.093-0.050 0.036-0.020 0.073-0.038 0.111-0.059 0.091-0.067 0.186-0.138 0.281-0.207 0.087-0.069 0.176-0.136 0.26-0.201 0.166-0.131 0.307-0.257 0.387-0.364 0.107-0.089 0.134-0.055 0.203-0.082-0.077 0.064-0.139 0.105-0.17 0.144 0.027-0.022 0.058-0.046 0.093-0.073 0.041-0.031 0.086-0.064 0.132-0.099 0.038-0.064 0.078-0.132 0.117-0.196 0.031-0.057 0.063-0.111 0.090-0.16 0.053-0.1 0.086-0.18 0.076-0.215 0.208-0.265-0.046 0.195 0.194-0.2l-0.015 0.064c0.147-0.175 0.259-0.346 0.356-0.517 0.102-0.168 0.19-0.333 0.281-0.502 0.184-0.335 0.367-0.688 0.731-1.044-0.047 0.050-0.073 0.076-0.090 0.080 0.221-0.265 0.437-0.553 0.641-0.831 0.153-0.186 0.308-0.371 0.462-0.558l0.234-0.279 0.255-0.296 0.048-0.275 0.047-0.244c0.033-0.162 0.069-0.322 0.11-0.479 0.028-0.127 0.040-0.211 0.042-0.276 0.001-0.033 0.001-0.064-0.001-0.093l-0.002-0.043c-0.002-0.010-0.004-0.020-0.006-0.031 0.001-0.009 0.001-0.020 0.002-0.031 0.005-0.016 0.008-0.033 0.014-0.050l0.084-0.037 0.085-0.333c0.057-0.157 0.133-0.286 0.216-0.414 0.042-0.063 0.085-0.126 0.128-0.192 0.022-0.032 0.043-0.065 0.067-0.1l0.031-0.052 0.043-0.078c0.006-0.046 0.014-0.089 0.020-0.136 0.005-0.038 0.010-0.078 0.012-0.118 0.006-0.081 0.008-0.168 0.005-0.26l-0.049 0.074c0.032-0.215 0.054-0.686 0.096-0.645-0.005-0.022-0.033-0.075-0.004-0.157l0.031-0.004 0.005-0.213-0.069-0.335c-0.023-0.413 0.128 0.052 0.069-0.548z"></path>
<path d="M18.125 17.897c-0.057 0.064-0.109 0.105-0.15 0.178-0.042 0.070-0.064 0.157-0.112 0.223-0.155 0.217-0.327 0.429-0.386 0.692-0.064 0.277-0.25 0.509-0.359 0.772-0.070 0.173-0.174 0.259-0.296 0.393-0.138 0.154-0.237 0.328-0.4 0.46-0.067 0.055-0.1 0.084-0.154 0.154-0.1 0.127-0.16 0.195-0.298 0.080-0.168-0.141-0.314-0.329-0.46-0.493-0.205-0.231-0.439-0.433-0.646-0.665-0.217-0.245-0.459-0.471-0.689-0.704-0.233-0.234-0.456-0.481-0.702-0.703-0.133-0.12-0.273-0.228-0.405-0.341-0.049 0.133-0.097 0.266-0.148 0.401-0.106 0.276-0.206 0.506-0.253 0.8-0.018 0.116-0.031 0.229-0.039 0.342 0.091 0.041 0.179 0.086 0.254 0.118 0.122 0.050 0.25 0.121 0.376 0.157 0.054 0.016 0.102 0.004 0.144 0.048-0.148 0.035-0.334 0.146-0.465 0.224-0.105 0.063-0.21 0.131-0.312 0.2 0.018 0.116 0.056 0.227 0.128 0.33 0.115 0.165 0.268 0.313 0.402 0.461 0.147 0.159 0.301 0.311 0.447 0.471 0.091 0.102 0.162 0.207 0.261 0.301 0.122 0.115 0.22 0.217 0.324 0.35 0.191 0.243 0.45 0.443 0.667 0.66 0.111 0.11 0.298 0.223 0.435 0.291 0.142 0.072 0.285 0.059 0.433 0.080 0.11 0.015 0.216 0.038 0.323 0.058 0.154-0.327 0.183-0.723 0.379-1.038 0.052 0.020 0.137 0.080 0.176 0.121 0.048 0.050 0.068 0.159 0.093 0.221 0.053 0.121 0.121 0.236 0.171 0.356 0.036 0.084 0.053 0.178 0.080 0.265 0.004 0.010 0.016 0.033 0.030 0.059 0.012-0.002 0.023-0.002 0.037-0.004 0.099-0.015 0.16 0.004 0.258-0.046 0.054-0.029 0.099-0.069 0.158-0.090 0.102-0.038 0.157-0.025 0.258-0.094 0.049-0.033 0.102-0.073 0.148-0.113 0.301-0.269 0.619-0.628 0.83-0.971 0.132-0.215 0.202-0.462 0.308-0.693 0.097-0.211 0.201-0.421 0.294-0.635 0.090-0.208 0.216-0.42 0.264-0.642 0.016-0.075 0.027-0.149 0.036-0.223-0.227 0.031-0.459 0.057-0.672 0.001-0.007-0.091 0.15-0.234 0.21-0.307 0.131-0.164 0.273-0.35 0.476-0.401 0.004-0.001 0.010-0.002 0.016-0.004 0.004-0.117 0.005-0.232-0.015-0.34-0.035-0.184-0.104-0.37-0.148-0.551-0.047-0.189-0.153-0.35-0.236-0.527-0.094-0.201-0.175-0.411-0.289-0.602-0.010-0.016-0.022-0.032-0.031-0.048-0.104 0.137-0.207 0.274-0.31 0.41-0.142 0.187-0.287 0.382-0.442 0.557z"></path>
<path d="M14.068 17.804c0.095 0.095 0.205 0.184 0.282 0.292 0.065 0.093 0.101 0.174 0.19 0.248 0.245 0.205 0.481 0.437 0.746 0.617 0.141 0.095 0.31 0.174 0.405 0.313 0.090 0.133 0.112 0.126 0.275 0.126 0.105 0.001 0.229-0.020 0.327-0.052 0.185-0.059 0.216-0.277 0.307-0.422 0.063-0.101 0.157-0.175 0.24-0.259 0.063-0.060 0.122-0.125 0.174-0.195 0.079-0.108 0.128-0.227 0.173-0.351 0.138-0.381 0.322-0.774 0.592-1.080 0.096-0.113 0.215-0.185 0.307-0.306 0.080-0.106 0.154-0.215 0.232-0.321-0.043-0.017-0.091-0.035-0.148-0.060-0.168-0.076-0.282-0.139-0.477-0.15-0.201-0.012-0.398-0.051-0.602-0.048-0.202 0.002-0.355-0.022-0.549-0.076-0.001 0.002-0.002 0.006-0.004 0.009-0.052 0.115-0.089 0.218-0.118 0.34-0.009 0.038-0.030 0.175-0.067 0.197-0.1 0.065-0.158-0.125-0.195-0.197-0.101-0.195-0.215-0.375-0.313-0.565-0.231-0.043-0.451-0.049-0.688-0.049-0.351 0-0.89 0.339-0.947 0.398-0.179 0.183-0.324 0.381-0.483 0.577-0.106 0.13-0.211 0.265-0.306 0.407 0.025 0.032 0.050 0.065 0.080 0.095 0.18 0.178 0.386 0.332 0.567 0.513z"></path>
</svg>
