<!-- Generated by IcoMoon.io -->
<svg version="1.1" xmlns="http://www.w3.org/2000/svg" width="32" height="32" viewBox="0 0 32 32">
<title>return_to_curtain_call</title>
<path d="M14.475 4c-0.047 0.026-0.091 0.050-0.136 0.074-0.030 0.012-0.060 0.026-0.086 0.039-0.054 0.021-0.104 0.045-0.153 0.065-0.097 0.039-0.185 0.073-0.254 0.106l0.154-0.106c-0.094 0.064-0.173 0.106-0.256 0.151l0.117-0.009c-0.101 0.045-0.182 0.087-0.19 0.069-0.084 0.082 0.114 0.030-0.063 0.175-0.070 0.025-0.164 0.084-0.251 0.134-0.044 0.024-0.087 0.043-0.122 0.058-0.019 0.006-0.033 0.012-0.046 0.014-0.008 0-0.014-0.003-0.021-0.010 0.006-0.001 0.034-0.015 0.052-0.024 0.020-0.011 0.037-0.021 0.052-0.027 0.026-0.015 0.042-0.025 0.052-0.033 0.016-0.016 0.005-0.021-0.009-0.022-0.028-0.007-0.067-0.013 0.103-0.112-0.064 0.042-0.143 0.086-0.245 0.132-0.018 0.001 0.008-0.022 0.033-0.038-0.028 0.011-0.069 0.028-0.076 0.029-0.004-0.001-0.004-0.001-0.007 0-0.004-0.001-0.005 0.001-0.005 0.002-0.008 0.002-0.035 0.006-0.045 0.010-0.029 0.008-0.047 0.020-0.072 0.031-0.049 0.022-0.117 0.048-0.312 0.051 0.039-0.025-0.023-0.040-0.091-0.048 0.043 0.017-0.042 0.057-0.168 0.079-0.294-0.020-0.318 0.027-0.472 0.027l0.175 0.009c-0.027 0.018-0.078 0.028-0.144 0.034-0.069 0.005-0.157 0.009-0.261 0.015-0.008 0.002-0.019 0.005-0.027 0.010-0.007-0.005 0.004-0.014 0.024-0.024-0.076 0.029-0.113 0.040-0.173 0.055-0.057 0.009-0.118 0.020-0.18 0.033-0.122 0.022-0.252 0.052-0.377 0.112-0.147 0.022-0.033-0.059-0.161-0.034-0.125 0.060-0.212 0.083-0.29 0.099-0.039 0.008-0.073 0.014-0.113 0.022-0.020 0.004-0.039 0.009-0.062 0.014-0.012 0.004-0.023 0.005-0.034 0.009-0.021 0.006-0.041 0.013-0.062 0.019-0.020 0.012-0.041 0.025-0.063 0.038-0.013 0.007-0.027 0.017-0.041 0.026-0.029 0.019-0.058 0.042-0.091 0.067 0.116-0.016 0.126-0.035-0.076 0.142l0.302-0.208 0.274-0.106-0.122 0.067c-0.046 0.022-0.068 0.037-0.141 0.069-0.055 0.041-0.074 0.064-0.106 0.093 0.038-0.024 0.078-0.051 0.115-0.076 0.040-0.015 0.079-0.031 0.117-0.045 0.035-0.014 0.066-0.028 0.096-0.039 0.063-0.026 0.119-0.045 0.161-0.057-0.168 0.096-0.155 0.079-0.058 0.089-0.052 0.001-0.102 0.010-0.149 0.022-0.024 0.006-0.050 0.015-0.072 0.024l-0.084 0.033c-0.066 0.049-0.132 0.097-0.202 0.149-0.066 0.048-0.138 0.091-0.221 0.125l-0.053-0.103c-0.295 0.135-0.515 0.331-0.786 0.518-0.088 0.048-0.221 0.112-0.355 0.165l0.177-0.058c-0.051 0.074-0.321 0.153-0.48 0.247-0.001-0.042-0.111-0.006-0.194 0.002 0.019 0.024-0.378 0.171-0.398 0.266l-0.069 0.021-0.062 0.045-0.046 0.029-0.089 0.057c-0.349 0.304-0.303 0.445-0.633 0.741 0.067-0.122-0.098-0.002 0.094-0.23-0.106 0.102-0.206 0.188-0.189 0.209-0.017 0.008-0.042 0.030-0.067 0.057-0.028 0.031-0.061 0.070-0.096 0.112-0.031 0.058-0.067 0.121-0.098 0.178-0.030 0.050-0.059 0.094-0.088 0.12-0.021 0.061 0.002 0.101-0.089 0.237-0.017 0.012-0.019-0.010-0.019-0.010 0.017 0.011-0.12 0.231-0.003 0.134-0.079 0.070-0.156 0.163-0.233 0.268-0.039 0.050-0.076 0.106-0.113 0.163-0.035 0.052-0.070 0.106-0.105 0.16-0.060 0.054-0.122 0.109-0.182 0.163-0.064 0.054-0.127 0.109-0.187 0.161-0.123 0.101-0.241 0.185-0.343 0.233-0.131 0.122-0.274 0.257-0.405 0.379-0.064 0.181-0.123 0.347-0.172 0.491-0.005-0.022-0.017-0.008 0.005-0.058-0.174 0.367 0.019 0.271-0.177 0.69-0.141 0.199 0.050-0.24-0.022-0.112-0.041 0.005-0.071 0.047-0.099 0.115-0.014 0.034-0.028 0.074-0.043 0.117-0.011 0.039-0.031 0.101-0.033 0.115-0.004 0.011-0.026 0.045-0.050 0.077l-0.067 0.099c-0.046 0.062-0.097 0.119-0.151 0.163l0.039-0.065c-0.176 0.164-0.305 0.495-0.542 0.801 0 0-0.001-0.022-0.017-0.014-0.006 0.020-0.021 0.053-0.048 0.099-0.014 0.074-0.031 0.158-0.048 0.251-0.017 0.084-0.038 0.173-0.060 0.264-0.045 0.182-0.095 0.372-0.139 0.537-0.013-0.125 0.025-0.168-0.045-0.118-0.045 0.162 0.092-0.020 0.003 0.302-0.026 0.043-0.053 0.094-0.091 0.166-0.034 0.1-0.066 0.178-0.101 0.194l0.029-0.211 0.039-0.12c-0.012 0.015-0.026 0.027-0.036 0.045-0.009 0.015-0.017 0.035-0.031 0.069-0.004 0.024-0.008 0.045-0.014 0.070l-0.010 0.060c-0.004 0.040-0.003 0.080-0.005 0.12-0.004 0.080-0.008 0.158-0.024 0.221l-0.027-0.027c-0.060 0.466 0.011 0.502-0.062 0.975-0.001 0.006-0.005 0.015-0.007 0.024 0.006-0.009 0.013-0.016 0.019-0.022 0.005-0.005 0.010-0.008 0.015-0.017 0.001 0.012 0.001 0.015 0.002 0.021 0 0.257-0.1 0.201-0.112 0.479l-0.098 0.063c-0.029 0.184-0.078 0.655-0.16 0.98 0.004-0.195 0.062-0.585 0.091-0.829-0.031 0.119-0.061 0.304-0.091 0.475 0.012 0.239-0.054 0.528-0.158 0.882-0.041-0.034-0.091 0.052-0.142 0.19-0.026 0.069-0.052 0.153-0.081 0.24-0.031 0.099-0.063 0.202-0.094 0.304 0.005 0.036 0.011 0.073 0.017 0.108 0.002 0.025 0.005 0.048 0.009 0.072 0.005 0.045 0.012 0.091 0.015 0.134 0.005 0.082 0.003 0.151-0.009 0.201 0.042 0.155 0.076 0.313 0.106 0.472 0.014 0.080 0.028 0.161 0.043 0.242 0.013 0.086 0.026 0.17 0.039 0.259 0.054 0.167 0.108 0.339 0.165 0.515 0.056 0.171 0.116 0.347 0.184 0.528 0.020-0.294 0.078 0.207 0.177 0.122 0.029 0.075 0.048 0.126 0.062 0.161 0.004 0.026 0.008 0.062 0.005 0.067v0.002l0.012 0.542c-0.015 0.131-0.054-0.164-0.077-0.142 0.052 0.384-0.024 0.169-0.015 0.427 0.035-0.059 0.081 0.124 0.101 0.345l0.007-0.316c0.071 0.252 0.066 0.357 0.063 0.491 0.009 0.149 0.005 0.255 0.11 0.53l-0.079-0.158c0.036 0.105 0.083 0.282 0.136 0.474 0.029 0.096 0.057 0.195 0.084 0.292 0.016 0.046 0.033 0.094 0.046 0.139 0.019 0.050 0.036 0.097 0.051 0.142 0.021 0.046 0.027 0.053 0.038 0.076 0.013 0.019 0.023 0.035 0.033 0.052 0.021 0.034 0.045 0.063 0.065 0.086 0.005 0.051-0.002 0.123-0.057 0.012 0.069 0.181 0.151 0.372 0.237 0.561 0.090 0.195 0.181 0.391 0.268 0.578 0.049 0.067 0.096 0.131 0.142 0.194 0.040 0.057 0.079 0.113 0.117 0.168 0.075 0.11 0.139 0.214 0.19 0.314l-0.051-0.027c0.076 0.1 0.168 0.151 0.232 0.299-0.016 0-0.055-0.026-0.024 0.022 0.015 0.017 0.048 0.054 0.088 0.098 0.019 0.022 0.038 0.045 0.060 0.070 0.022 0.029 0.038 0.045 0.077 0.099 0.028 0.025 0.056 0.053 0.082 0.077 0.021 0.021 0.039 0.040 0.057 0.060l-0.125-0.076c0.447 0.484 0.778 0.641 1.191 1.004-0.061 0.063 0.293 0.433 0.47 0.618l-0.015 0.002c0.135 0.129 0.263 0.243 0.388 0.352 0.12 0.114 0.237 0.22 0.352 0.323 0.118 0.104 0.23 0.205 0.35 0.309 0.057 0.054 0.117 0.106 0.177 0.161 0.031 0.028 0.061 0.055 0.093 0.084 0.035 0.032 0.071 0.066 0.106 0.099 0.014 0.007 0.028 0.018 0.045 0.027 0.104 0.107 0.272 0.241 0.47 0.386 0.101 0.071 0.207 0.147 0.317 0.225 0.121 0.085 0.248 0.171 0.374 0.257 0.145 0.040 0.291 0.081 0.431 0.12 0.125 0.038 0.246 0.076 0.357 0.113-0.1-0.042 0.034-0.062 0.156-0.039 0.156 0.059 0.456 0.056 0.41 0.127l-0.055-0.017c0.015 0.016 0.037 0.033 0.063 0.048 0.012 0.007 0.024 0.015 0.039 0.022 0.019 0.006 0.009 0.004 0.015 0.010-0.007 0.001 0.044 0.034 0.081 0.055 0.040 0.024 0.080 0.048 0.122 0.072 0.085 0.046 0.174 0.095 0.254 0.139l0.088-0.070c0.092 0.081 0.203 0.158 0.323 0.233 0.059 0.038 0.119 0.077 0.182 0.112 0.070 0.039 0.14 0.075 0.211 0.113l0.216 0.072c0.065 0.020 0.13 0.038 0.194 0.058 0.129 0.040 0.257 0.078 0.371 0.113 0.23 0.074 0.417 0.149 0.52 0.232 0.026 0.005 0.033 0.005 0.088 0.019 0.079 0.011 0.166 0.021 0.251 0.031 0.081 0.008 0.161 0.020 0.233 0.022l-0.021 0.053c0.179 0.040 0.321 0.072 0.468 0.105 0.074 0.016 0.149 0.032 0.23 0.048 0.091 0.018 0.189 0.038 0.3 0.060 0.064-0.006 0.184-0.020 0.317-0.031l-0.115 0.050c0.322-0.021 0.395-0.192 0.691-0.216l0.094 0.077 0.245-0.015 0.254-0.010 0.314-0.045 0.297-0.046c0.197-0.034 0.392-0.078 0.583-0.139-0.007 0.014-0.021 0.041-0.11 0.060 0.077-0.013 0.199-0.030 0.328-0.050 0.072-0.004 0.146-0.007 0.216-0.010 0.074-0.005 0.145-0.012 0.202-0.021 0.116-0.016 0.186-0.041 0.149-0.079 0.014 0.074 0.582-0.032 0.882-0.093l-0.041 0.062c0.249-0.102 0.254-0.123 0.607-0.187 0.085-0.004 0.080 0.033-0.033 0.033 0.284-0.006 0.211-0.077 0.556-0.091l-0.122 0.052c0.141-0.016 0.207-0.028 0.256-0.043s0.078-0.031 0.178-0.065c0.001-0.001 0.006-0.006 0.010-0.009 0.024-0.017 0.050-0.039 0.079-0.060 0.022-0.015 0.049-0.029 0.074-0.046 0.052-0.033 0.108-0.067 0.163-0.094 0.107-0.055 0.206-0.092 0.237-0.082 0.016-0.047 0.127-0.166 0.28-0.247 0.030 0.004-0.017 0.046-0.039 0.067 0.1-0.054 0.184-0.108 0.257-0.158 0.038-0.028 0.071-0.051 0.106-0.076l0.046-0.036 0.029-0.022c0.015-0.008 0.060-0.025 0.101-0.038 0.040-0.014 0.078-0.029 0.118-0.041 0.079-0.022 0.159-0.041 0.251-0.048 0.012 0.015 0.032 0.018 0.062 0.017-0.22 0.055-0.412 0.106-0.522 0.134-0.022 0.014-0.040 0.024-0.050 0.029-0.016 0.011-0.022 0.012-0.017 0.009 0.011 0.020 0.078-0.004 0.086 0.007 0.014 0.005 0.020 0.010 0.027 0.019 0.004 0.008-0.001 0.024 0 0.039 0 0.003 0.001 0.007 0.002 0.010 0-0.002 0.001-0.007 0.002-0.010 0.016-0.006 0.031-0.013 0.046-0.021 0.035-0.014 0.070-0.030 0.106-0.046 0.073-0.030 0.15-0.062 0.228-0.094 0.156-0.064 0.32-0.121 0.463-0.146 0.015 0.001 0.029 0.001 0.041 0.005l-0.029 0.012c0.069-0.013 0.132-0.032 0.187-0.055 0.047-0.008 0.087-0.017 0.125-0.024 0.044-0.008 0.059-0.012 0.149-0.034 0.016 0.005 0.053 0.001 0.11-0.010 0.032-0.032 0.073-0.076 0.118-0.127 0.025-0.030 0.051-0.061 0.079-0.094 0.054-0.065 0.112-0.133 0.151-0.18-0.051-0.025 0.085-0.178-0.072-0.060 0.019-0.017-0.014 0.028-0.081 0.108-0.013 0.020-0.029 0.041-0.036 0.055 0-0.004 0.001-0.008 0.002-0.014l-0.202 0.247-0.172 0.046c0.035-0.020 0.105-0.047 0.158-0.067 0.019-0.026 0.038-0.053 0.058-0.081 0.016-0.021 0.034-0.046 0.053-0.069 0.031-0.040 0.069-0.077 0.115-0.115 0.024-0.085 0.053-0.176 0.070-0.225 0.197-0.112 0.495-0.401 0.568-0.413 0.050-0.066 0.101-0.137 0.156-0.209 0.075-0.064 0.152-0.13 0.228-0.194 0.081-0.071 0.159-0.139 0.235-0.204 0.149-0.136 0.275-0.265 0.347-0.374 0.097-0.094 0.139-0.072 0.189-0.091-0.056 0.057-0.129 0.113-0.153 0.151 0.189-0.196 0.641-0.478 0.649-0.577 0.297-0.17-0.117 0.165 0.257-0.113l-0.038 0.053c0.1-0.052 0.19-0.107 0.276-0.163 0.043-0.030 0.084-0.058 0.125-0.086 0.051-0.038 0.102-0.074 0.151-0.112l0.062-0.115 0.039-0.079 0.070-0.158c0.046-0.105 0.094-0.21 0.141-0.316 0.094-0.209 0.204-0.439 0.333-0.647 0.090-0.084 0.221-0.197 0.353-0.293-0.056 0.044-0.083 0.066-0.101 0.069 0.136-0.12 0.269-0.246 0.402-0.372l0.196-0.196 0.208-0.204c0.272-0.436 0.501-0.822 0.781-1.253l0.082-0.254 0.082-0.237c0.056-0.159 0.116-0.313 0.178-0.465 0.091-0.239 0.090-0.314 0.099-0.443 0-0.034 0.003-0.073 0.003-0.12l0.072-0.057 0.007-0.347c0.059-0.482 0.322-0.784 0.376-1.4l-0.057 0.069c0.059-0.212 0.141-0.684 0.177-0.637-0.001-0.025-0.024-0.078 0.015-0.158h0.034l0.010-0.079 0.019-0.106-0.041-0.115v0.005l-0.033-0.089-0.070-0.18c-0.088-0.409 0.139 0.033-0.014-0.559-0.073-0.216-0.258-0.601-0.256-0.513 0.022 0.089 0.043 0.231 0.014 0.247l-0.069-0.196c-0.006-0.001-0.014-0.002-0.021-0.003l-0.010-0.033 0.292-1.433-0.257-0.961 0.022 0.019-0.034-0.065-0.082-0.305c0.012 0.006 0.031 0.031 0.052 0.091-0.007-0.090-0.020-0.135-0.036-0.178-0.036-0.062-0.065-0.083-0.091-0.208-0.004-0.024 0.005-0.017 0.017 0l-0.117-0.194c0.034 0.032 0.038-0.059 0.084 0.072-0.125-0.387-0.33-0.566-0.338-0.729l0.021 0.027c-0.195-0.371-0.139-0.196-0.204-0.242l-0.003-0.010-0.034-0.244 0.077-0.208-0.067-0.048c-0.006-0.056-0.015-0.17 0.012-0.153-0.069-0.207-0.022 0.040-0.077-0.079 0.014-0.217-0.060-0.527-0.064-0.722-0.031-0.055-0.050-0.1-0.038-0.125-0.1-0.056 0.136 0.244-0.074 0.015 0.032-0.131-0.218-0.266-0.333-0.499 0.090 0.031 0.21 0.243 0.096 0.010-0.164-0.070-0.277-0.41-0.419-0.571-0.066 0.035-0.298-0.361-0.527-0.638 0.034 0.004-0.366-0.572-0.527-0.867l0.014 0.002c-0.096-0.012-0.279-0.304-0.434-0.504 0.041-0.016 0.083 0.011 0.175 0.113l-0.132-0.197c-0.051-0.032-0.101-0.088-0.194-0.209l0.079 0.021-0.070-0.094-0.096-0.081-0.084-0.069c-0.056-0.045-0.117-0.093-0.177-0.141-0.12-0.099-0.243-0.205-0.365-0.34-0.035 0.016 0.042 0.156-0.010 0.165l-0.16-0.149c0.017-0.007 0.045-0.002 0.091 0.031-0.030-0.022-0.113-0.070-0.16-0.129l0.158 0.082c-0.122-0.14-0.098-0.037-0.204-0.141 0.030-0.026-0.059-0.094-0.022-0.103 0.030 0.022 0.083 0.098 0.136 0.125-0.059-0.057-0.135-0.136-0.17-0.184-0.025-0.050-0.062-0.123-0.067-0.154-0.011 0.026-0.043 0.035-0.12-0.060-0.191-0.25-0.028-0.116-0.122-0.274-0.067-0.044-0.166-0.22-0.216-0.19-0.055-0.074-0.044-0.102-0.053-0.141-0.032-0.031-0.081-0.091-0.134-0.156-0.062-0.076-0.127-0.159-0.182-0.228-0.191-0.047-0.24-0.049-0.175 0l0.046 0.017c-0.011-0.001-0.021-0.005-0.033-0.007-0.221-0.039-0.441-0.104-0.661-0.175l-0.329-0.11c-0.105-0.035-0.205-0.069-0.307-0.101l-0.087-0.076-0.103-0.082 0.012-0.014c-0.255-0.189-0.543-0.448-0.741-0.564-0.071-0.060-0.144-0.17-0.099-0.161-0.029-0.021-0.055-0.042-0.072-0.055-0.045-0.019-0.082-0.033-0.118-0.046-0.034-0.014-0.066-0.028-0.099-0.043-0.069-0.034-0.148-0.078-0.276-0.158 0.234 0.077-0.062-0.063 0.235 0.089-0.275-0.155-0.325-0.215-0.65-0.317 0.124 0.005-0.179-0.16-0.328-0.218l0.185 0.132c-0.044-0.019-0.085-0.038-0.125-0.057-0.046-0.022-0.092-0.046-0.136-0.069-0.075-0.012-0.145-0.020-0.216-0.033l0.087-0.055c-0.311-0.081-0.601-0.084-0.873-0.093-0.135-0.004-0.265-0.009-0.393-0.026-0.125-0.018-0.243-0.058-0.357-0.113-0.175 0.012 0.337 0.098 0.178 0.122-0.287-0.065-0.571-0.217-0.662-0.233-0.16-0.048-0.254-0.052-0.338-0.050-0.043 0.002-0.080 0.005-0.123 0.007-0.021 0.001-0.047 0.001-0.070 0-0.028-0.001-0.046-0.001-0.094-0.009-0.030 0-0.062 0.002-0.098 0.002-0.031 0-0.066-0.002-0.106-0.005 0.055 0.025 0.106 0.086-0.211 0.105-0.295-0.014-0.362-0.104-0.175-0.12 0.071-0.001 0.106 0.006 0.103 0.015 0.096-0.007 0.22-0.015 0.103-0.043l-0.039 0.024c-0.146-0.028-0.552-0.031-0.455-0.069-0.225 0.020-0.099 0.036 0.067 0.051-0.245-0.027-0.432-0.023-0.623-0.026-0.090-0.006-0.214-0.018-0.345-0.038 0.061 0.019 0.116 0.051 0.055 0.045-0.568-0.081-0.255 0.021-0.642-0.003-0.216-0.055 0.086-0.077-0.305-0.082-0.236-0.046-0.045-0.066 0.050-0.077-0.043 0.001-0.084 0.001-0.125 0l-0.088-0.005c-0.034-0.004-0.068-0.006-0.101-0.010h-0.002zM18.549 8.881c0.284-0.011 0.567-0.014 0.854 0.014 0.279 0.027 0.558 0.082 0.834 0.141 0.264 0.059 0.509 0.166 0.767 0.237 0.515 0.146 1.047 0.336 1.584 0.333 0.198 0 0.394 0.011 0.587-0.043 0.086-0.017 0.166-0.053 0.245-0.106 0.029-0.042 0.075-0.062 0.122-0.070 0.081 0.077 0.071 0.269 0.050 0.364-0.026 0.119-0.017 0.237-0.017 0.359 0 0.246-0.005 0.486 0 0.729 0 0.071 0.025 0.125-0.034 0.158-0.030 0.014-0.137-0.007-0.154-0.014-0.124-0.024-0.237-0.085-0.362-0.115-0.11-0.028-0.245-0.007-0.359-0.007-0.326 0.006-0.634-0.128-0.959-0.13-0.084 0.012-0.173 0.006-0.259-0.017-0.083-0.039-0.166-0.084-0.249-0.125-0.134-0.065-0.264-0.117-0.412-0.123-0.029-0.001-0.057 0-0.086 0 0.026 0.091 0.049 0.188 0.074 0.256 0.071 0.198 0.118 0.403 0.163 0.607 0.044 0.222 0.123 0.427 0.182 0.64 0.056 0.19 0.076 0.357 0.091 0.552 0.015 0.219 0.104 0.416 0.228 0.601 0.107 0.165 0.247 0.315 0.377 0.463 0.166 0.184 0.32 0.385 0.498 0.563 0.152 0.151 0.284 0.291 0.388 0.484 0.083 0.154 0.145 0.311 0.228 0.465 0.222 0.389 0.592 0.521 0.925 0.788 0.222 0.181 0.424 0.409 0.614 0.623 0.116 0.133 0.199 0.266 0.281 0.417 0.181 0.356 0.545 0.553 0.865 0.776 0.065 0.050 0.157 0.13 0.252 0.13 0.071-0.003 0.098-0.073 0.166-0.076-0.012 0.101-0.075 0.203-0.093 0.309-0.015 0.090-0.023 0.193-0.046 0.28-0.024 0.076-0.013 0.052-0.072 0.087-0.133 0.074-0.278 0.205-0.417 0.256-0.122 0.044-0.321 0.017-0.451 0.009-0.13-0.002-0.166-0.059-0.257-0.132-0.101-0.083-0.134-0.167-0.202-0.271-0.053-0.086-0.155-0.104-0.228-0.168-0.062-0.060-0.119-0.14-0.178-0.202-0.050-0.053-0.105-0.112-0.156-0.172-0.13-0.142-0.255-0.273-0.403-0.403-0.059-0.050-0.124-0.088-0.196-0.123-0.074-0.030-0.137-0.073-0.19-0.132-0.036-0.065-0.064-0.129-0.099-0.197-0.053-0.050-0.095-0.107-0.13-0.166-0.044-0.098-0.090-0.193-0.129-0.293-0.095-0.172-0.245-0.276-0.384-0.407-0.146-0.14-0.261-0.26-0.444-0.34-0.080-0.032-0.161-0.060-0.238-0.093-0.139-0.181-0.23-0.403-0.372-0.575-0.042-0.054-0.095-0.091-0.142-0.136-0.181-0.181-0.335-0.419-0.456-0.642-0.148-0.263-0.246-0.547-0.386-0.808-0.074-0.14-0.112-0.288-0.18-0.427-0.056-0.109-0.131-0.202-0.202-0.305-0.151-0.207-0.228-0.463-0.225-0.721 0.003-0.196 0-0.391 0-0.583-0.003-0.139 0.024-0.262 0.039-0.395 0.013-0.116-0.007-0.234 0-0.343 0.003-0.033 0.010-0.081 0.017-0.127-0.189 0.039-0.379 0.089-0.571 0.108-0.35 0.036-0.716 0.002-1.069 0.002-0.243 0-0.492 0.030-0.729-0.038-0.426-0.122-0.859-0.134-1.301-0.134-0.134 0-0.264-0.008-0.395 0.031-0.068 0.023-0.135 0.067-0.206 0.058-0.057-0.003-0.117-0.041-0.182-0.048-0.115 0.008-0.233 0.006-0.352-0.007-0.157-0.033-0.321-0.055-0.484-0.063-0.32 0-0.634 0.079-0.954 0.079-0.42 0-0.828-0.086-1.242-0.091 0.001 0.016 0.011 0.021 0.009 0.043-0.042 0.276 0.024 0.518-0.082 0.779-0.071 0.177-0.105 0.367-0.185 0.546-0.095 0.213-0.227 0.403-0.299 0.623-0.068 0.193-0.092 0.395-0.13 0.59-0.042 0.19-0.016 0.379-0.046 0.566-0.030 0.152-0.114 0.304-0.173 0.446-0.107 0.255-0.308 0.415-0.465 0.631-0.092 0.128-0.157 0.241-0.273 0.353-0.106 0.101-0.19 0.225-0.276 0.343-0.107 0.143-0.212 0.279-0.34 0.403-0.092 0.090-0.154 0.22-0.249 0.3-0.083 0.062-0.135 0.075-0.194 0.166-0.104 0.171-0.218 0.266-0.364 0.396-0.165 0.143-0.289 0.323-0.451 0.465-0.152 0.131-0.311 0.242-0.45 0.389-0.125 0.125-0.246 0.248-0.391 0.355-0.207 0.145-0.445 0.225-0.652 0.367-0.077 0.051-0.129 0.087-0.214 0.122-0.104 0.039-0.224 0.068-0.319 0.127-0.089 0.051-0.152 0.090-0.247 0.125-0.047 0.021-0.063 0.033-0.11 0.060-0.125 0.080-0.206 0.106-0.307-0.007-0.119-0.137-0.173-0.317-0.292-0.448-0.036-0.045-0.093-0.062-0.117-0.118 0.125-0.074 0.277-0.022 0.353-0.182 0.057-0.118 0.066-0.219 0.161-0.319 0.231-0.247 0.545-0.412 0.848-0.554 0.125-0.059 0.26-0.074 0.384-0.13 0.134-0.059 0.233-0.154 0.348-0.237 0.074-0.054 0.162-0.091 0.225-0.16 0.051-0.054 0.083-0.132 0.13-0.194 0.184-0.234 0.403-0.425 0.575-0.667 0.157-0.222 0.335-0.426 0.489-0.649 0.081-0.109 0.142-0.24 0.228-0.347 0.081-0.103 0.195-0.177 0.273-0.281 0.165-0.21 0.328-0.437 0.444-0.679 0.053-0.116 0.071-0.242 0.106-0.364 0.039-0.128 0.122-0.235 0.146-0.365 0.071-0.376 0.273-0.725 0.305-1.114 0.015-0.174-0.017-0.353-0.017-0.522 0-0.095-0.003-0.199 0.024-0.288 0.008-0.033 0.017-0.064 0.041-0.091 0.065-0.095 0.149-0.189 0.214-0.305 0.048-0.086 0.115-0.172 0.156-0.261-0.098-0.025-0.197-0.051-0.293-0.074-0.19-0.024-0.373-0.034-0.563-0.021-0.801 0.005-1.599 0.046-2.402 0.043v0.003c-0.276 0.202-0.091-0.034-0.062-0.076 0.077-0.124 0.035-0.221 0.062-0.36 0.011-0.059 0.043-0.078 0.079-0.125 0.059-0.084 0.106-0.175 0.16-0.261 0.077-0.112 0.177-0.279 0.312-0.256 0.11 0.021 0.188 0.116 0.299 0.129 0.071 0.003 0.143-0.027 0.218-0.039 0.178-0.030 0.366-0.009 0.552-0.009 0.341 0 0.689 0.014 1.029 0.003 0.326-0.015 0.645-0.088 0.975-0.088 0.272 0 0.544-0.105 0.813-0.144 0.219-0.036 0.444-0.078 0.669-0.081 0.255-0.002 0.529-0.019 0.781 0.014 0.178 0.024 0.352 0.074 0.534 0.082 0.453 0.012 0.904-0.084 1.361-0.093 0.678-0.011 1.351-0.076 2.030-0.082 0.288-0.001 0.571-0.019 0.854-0.029zM15.774 12.218c0.092 0.011 0.182 0.035 0.249 0.070 0.281 0.154 0.574 0.264 0.829 0.468 0.124 0.101 0.176 0.261 0.256 0.391 0.062 0.106 0.136 0.202 0.196 0.309 0.151 0.281 0.128 0.574 0.041 0.873-0.064 0.238-0.178 0.572-0.456 0.626-0.249 0.048-0.539 0.001-0.788 0.003-0.101 0-0.214 0.013-0.309-0.009-0.083-0.018-0.159-0.064-0.245-0.077-0.231-0.032-0.588 0.094-0.76-0.105-0.151-0.168-0.201-0.411-0.266-0.618-0.048-0.151-0.077-0.259-0.053-0.413 0.015-0.118 0.026-0.248 0.082-0.352 0.050-0.101 0.131-0.194 0.19-0.292 0.042-0.080 0.125-0.176 0.154-0.259v-0.002c-0.006-0.012 0.002-0.032 0.034-0.058 0.098-0.083 0.191-0.214 0.28-0.305 0.089-0.086 0.177-0.201 0.302-0.237 0.077-0.022 0.172-0.026 0.264-0.015zM16.15 15.651c0.098 0 0.122 0.001 0.187 0.077 0.054 0.071 0.108 0.14 0.149 0.216 0.154 0.284 0.257 0.601 0.316 0.918 0.033 0.172 0.052 0.335 0.039 0.51-0.017 0.303-0.126 0.582-0.13 0.89-0.003 0.3-0.028 0.621 0.029 0.918 0.062 0.329 0.1 0.667 0.041 1.002-0.095 0.522-0.178 1.094-0.383 1.589-0.165 0.015-0.237-0.086-0.391-0.142-0.181-0.063-0.329-0.139-0.456-0.293-0.059-0.071-0.121-0.145-0.192-0.208-0.080-0.065-0.175-0.070-0.252-0.136-0.148-0.113-0.104-0.486-0.077-0.643 0.029-0.21 0.083-0.394 0.081-0.607-0.003-0.118 0-0.244 0-0.365v-3.332c0.045 0.095 0.097 0.024 0.168-0.112 0.056-0.1 0.066-0.089 0.166-0.113 0.017-0.006 0.030-0.033 0.053-0.041 0.036-0.009 0.083 0.005 0.122-0.003 0.053-0.012 0.14-0.045 0.202-0.067 0.115-0.033 0.212-0.057 0.328-0.057zM22.742 21.898c0.066-0.010 0.133-0.009 0.194 0.017 0.038 0.042 0.078 0.081 0.12 0.12 0.056 0.036 0.119 0.052 0.187 0.043 0.166 0.003 0.265-0.026 0.407 0.072 0.080 0.056 0.133 0.092 0.237 0.098 0.047 0.008 0.129-0.024 0.166-0.003 0.104 0.050 0.020 0.305 0.002 0.395-0.007 0.068 0.018 0.152-0.046 0.175-0.029 0-0.065-0.003-0.098-0.009-0.068 0.008-0.122 0.037-0.166 0.093-0.071 0.060-0.141 0.139-0.227 0.168-0.098 0.033-0.236 0.007-0.34 0.007-0.166 0-0.326 0.015-0.494 0.015-0.087 0-0.181 0.006-0.264-0.022-0.050-0.015-0.079-0.038-0.13-0.041-0.071 0-0.158 0.039-0.227 0.052-0.388 0.080-0.785 0.038-1.177 0.038-0.486 0.005-0.96-0.038-1.446-0.077-0.489-0.036-0.98 0.015-1.472-0.015-0.37-0.023-0.738-0.050-1.108-0.033-0.398 0.021-0.792 0.024-1.184 0.045-0.258 0.013-0.503 0.079-0.758 0.084-0.364 0.003-0.724 0.096-1.088 0.144-0.294 0.036-0.584 0.026-0.88 0.033-0.202 0-0.391-0.055-0.59-0.052-0.222 0.008-0.417 0.1-0.637 0.094-0.26-0.008-0.521 0.010-0.782-0.003-0.275-0.021-0.57-0.1-0.842-0.151-0.169-0.033-0.341-0.057-0.506-0.096-0.166-0.044-0.404-0.192-0.57-0.115-0.071 0.036-0.083 0.069-0.172 0.053-0.115-0.023-0.207-0.041-0.326-0.041-0.077 0.005-0.113-0.012-0.182-0.029-0.092-0.024-0.207-0.018-0.302-0.014-0.107 0.008-0.208 0.043-0.314 0.048-0.137 0.003-0.243-0.022-0.367-0.045-0.071-0.013-0.112 0.008-0.148-0.069-0.013-0.026-0.030-0.124-0.036-0.156-0.015-0.092 0.048-0.331 0.089-0.424 0.024-0.050 0.064-0.118 0.118-0.136 0.017-0.008 0.059 0.003 0.086-0.007 0.044-0.013 0.074-0.060 0.118-0.072 0.086-0.027 0.225-0.016 0.311-0.002 0.092 0.013 0.176 0.061 0.268 0.079 0.134 0.017 0.263 0.003 0.4 0.003 0.121-0.003 0.226 0.038 0.338 0.050 0.083 0.013 0.142-0.012 0.221-0.041 0.217-0.083 0.395-0.005 0.626-0.009h0.302c0.148 0 0.296-0.003 0.444 0 0.207 0.003 0.415-0.069 0.619-0.014 0.238 0.068 0.484 0.052 0.733 0.064 0.234 0.013 0.472 0.022 0.7 0.057 0.222 0.033 0.418 0.104 0.64 0.11 0.581 0.021 1.139-0.050 1.718-0.082 0.533-0.030 1.044-0.226 1.58-0.264 0.361-0.026 0.7 0.11 1.052 0.129 0.25 0.011 0.495-0.015 0.738-0.034 0.439-0.033 0.851 0.084 1.283 0.084 0.181 0 0.355-0.036 0.534-0.045 0.112-0.007 0.225 0.006 0.338-0.012 0.272-0.039 0.506-0.096 0.788-0.060 0.297 0.041 0.525-0.017 0.81-0.053 0.175-0.023 0.352-0.048 0.522-0.096 0.059-0.017 0.126-0.037 0.192-0.046zM12.765 24.11c0.042 0.012 0.098 0.032 0.13 0.045 0.116 0.044 0.149 0.174 0.22 0.266 0.201 0.267 0.231 0.621 0.192 0.952-0.047 0.382-0.163 0.678-0.498 0.901-0.169 0.116-0.474 0.14-0.676 0.096-0.127-0.024-0.235-0.143-0.324-0.235-0.143-0.154-0.242-0.261-0.446-0.326-0.235-0.080-0.284-0.16-0.244-0.4 0.042-0.199 0.14-0.37 0.244-0.542 0.1-0.178 0.228-0.344 0.367-0.492 0.134-0.16 0.233-0.173 0.426-0.214 0.19-0.047 0.369-0.043 0.568-0.043-0.028-0.022-0.001-0.019 0.041-0.007zM15.668 24.244c0.047 0.014 0.086 0.049 0.13 0.076 0.057 0.033 0.11 0.066 0.163 0.101 0.113 0.071 0.24 0.075 0.359 0.125 0.071 0.033 0.199 0.071 0.249 0.13 0.059 0.071 0.072 0.178 0.105 0.261 0.086 0.225 0.027 0.421-0.045 0.645-0.154 0.486-0.641 1.142-1.218 0.784-0.154-0.095-0.256-0.235-0.434-0.304-0.095-0.036-0.223-0.047-0.259-0.148-0.054-0.151 0.253-0.669 0.003-0.722-0.017-0.225 0.14-0.496 0.309-0.638 0.077-0.062 0.161-0.082 0.256-0.106 0.071-0.014 0.208-0.003 0.256-0.070-0.086-0.131 0.047-0.164 0.127-0.134zM22.035 24.3c0.014-0.032 0.11 0.050 0.185 0.077 0.092 0.032 0.125 0.062 0.19 0.118 0.163 0.139 0.438 0.121 0.623 0.257 0.109 0.086 0.216 0.189 0.323 0.278 0.196 0.166 0.302 0.279 0.237 0.534-0.11 0.451-0.513 0.59-0.928 0.664-0.196 0.036-0.338 0.154-0.522 0.213-0.196 0.065-0.384-0.052-0.551-0.144-0.291-0.163-0.679-0.388-0.623-0.774 0.026-0.219 0.123-0.494 0.214-0.693 0.053-0.124 0.129-0.291 0.254-0.359 0.118-0.062 0.269-0.058 0.396-0.052 0.054 0 0.215 0.037 0.218-0.043-0.017-0.042-0.022-0.066-0.017-0.077zM8.618 24.587c0.068-0.009 0.181-0.017 0.24 0.007 0.056 0.023 0.094 0.101 0.148 0.136 0.107 0.062 0.229 0.066 0.341 0.134 0.137 0.087 0.276 0.092 0.427 0.142 0.207 0.074 0.177 0.459 0.213 0.628 0.039 0.187 0.111 0.312 0.007 0.489-0.101 0.184-0.22 0.456-0.451 0.51-0.148 0.036-0.284 0.036-0.438 0.036-0.225 0-0.415 0.033-0.611-0.094-0.151-0.095-0.294-0.227-0.431-0.348-0.111-0.104-0.098-0.21-0.098-0.355-0.003-0.142 0.059-0.269 0.072-0.412 0.011-0.136 0.051-0.276 0.105-0.407 0.035-0.103 0.062-0.212 0.184-0.225 0.065-0.003 0.127 0.037 0.192 0.039 0.036 0.007 0.074 0 0.11 0l-0.002-0.002c-0.396-0.142-0.115-0.271-0.009-0.278zM19.012 24.736c0.165 0.004 0.302 0.198 0.376 0.269 0.175 0.178 0.318 0.465 0.321 0.714 0.011 0.303-0.036 0.631-0.244 0.856-0.13 0.143-0.258 0.243-0.436 0.321-0.166 0.065-0.341 0.167-0.522 0.172-0.065 0.006-0.294 0.033-0.353-0.005-0.039-0.030-0.062-0.114-0.094-0.153-0.062-0.067-0.127-0.088-0.216-0.115-0.104-0.035-0.257-0.096-0.302-0.202-0.030-0.092-0.015-0.269-0.007-0.364 0.015-0.169 0.098-0.372 0.158-0.523 0.074-0.181 0.15-0.413 0.274-0.556 0.213-0.24 0.579-0.272 0.872-0.343 0.059-0.052 0.118-0.072 0.173-0.070z"></path>
</svg>
