<!-- Generated by IcoMoon.io -->
<svg version="1.1" xmlns="http://www.w3.org/2000/svg" width="32" height="32" viewBox="0 0 32 32">
<title>reykjavik</title>
<path d="M1.016 30.847c-0.023-0.398 0.027-0.987 0.132-1.569 0.084-0.461 0.153-0.885 0.253-1.541 0.017-0.109 0.052-0.345 0.079-0.524 0.12-0.791 0.265-1.34 0.502-1.896 0.097-0.227 0.191-0.371 0.325-0.493 0.096-0.088 0.169-0.181 0.231-0.294 0.052-0.095 0.544-1.1 0.715-1.459 0.384-0.811 0.592-1.303 0.769-1.824 0.145-0.425 0.157-0.516 0.179-1.36 0.024-0.913 0.078-1.336 0.228-1.785 0.062-0.186 0.103-0.267 0.168-0.334 0.087-0.089 0.147-0.11 0.337-0.121 0.338-0.020 0.485-0.107 0.823-0.486 0.394-0.443 0.551-0.596 0.815-0.792 0.189-0.14 0.345-0.293 0.466-0.454 0.125-0.167 0.301-0.465 0.442-0.746 0.266-0.536 0.38-0.868 0.656-1.922 0.16-0.609 0.198-0.738 0.293-0.979 0.094-0.238 0.3-0.649 0.449-0.897 0.211-0.351 0.566-0.865 0.719-1.042 0.236-0.273 0.578-0.497 0.925-0.607 0.395-0.125 0.477-0.154 0.601-0.216 0.157-0.079 0.234-0.126 0.368-0.228 0.244-0.186 0.483-0.484 0.646-0.805 0.054-0.107 0.269-0.636 0.378-0.931 0.051-0.139 0.122-0.309 0.158-0.379 0.195-0.384 0.487-0.7 0.908-0.983 0.349-0.235 1.841-1.119 1.957-1.16 0.055-0.019 0.309-0.071 0.35-0.071 0.031 0 0.064 0.047 0.064 0.090 0 0.023-0.035 0.328-0.079 0.677s-0.206 1.673-0.361 2.941c-0.155 1.268-0.317 2.595-0.361 2.95-0.111 0.908-0.108 0.889-0.138 0.919-0.024 0.024-0.038 0.025-0.305 0.027-0.255 0.001-0.285 0.003-0.335 0.026-0.067 0.030-0.113 0.087-0.13 0.16-0.008 0.034-0.012 0.312-0.012 0.74 0 0.377-0.006 1.033-0.014 1.457-0.016 0.882-0.019 0.847 0.085 1.028 0.092 0.16 0.097 0.189 0.097 0.613 0 0.253-0.005 0.382-0.015 0.416-0.016 0.053-0.102 0.145-0.252 0.268-0.102 0.084-0.142 0.157-0.142 0.262 0 0.107 0.018 0.157 0.084 0.23 0.069 0.077 0.081 0.12 0.064 0.24-0.009 0.064-0.008 0.117 0.005 0.217s0.016 0.199 0.010 0.399c-0.010 0.37-0.041 0.511-0.141 0.646-0.027 0.036-0.15 0.157-0.273 0.269-0.483 0.436-2.341 2.136-3.548 3.245-0.398 0.366-0.463 0.438-0.717 0.797-0.090 0.127-0.231 0.322-0.314 0.433-0.168 0.225-0.214 0.309-0.244 0.443-0.037 0.168 0.005 0.246 0.178 0.328 0.061 0.029 0.123 0.066 0.137 0.081 0.060 0.065 0.059 0.047 0.058 1.052-0.002 1.095-0.003 1.104-0.138 2.065-0.055 0.387-0.184 1.337-0.264 1.938-0.040 0.301-0.079 0.586-0.086 0.632s-0.017 0.168-0.021 0.271l-0.008 0.187-7.745 0.006zM23.893 30.979c-0.003-0.012-0.009-0.056-0.013-0.099-0.021-0.232-0.084-0.801-0.116-1.053-0.116-0.919-0.218-1.666-0.295-2.173-0.023-0.149-0.049-0.35-0.059-0.447-0.028-0.265-0.047-0.847-0.038-1.179 0.004-0.162 0.007-0.48 0.007-0.707v-0.412l0.042-0.047c0.027-0.030 0.066-0.055 0.111-0.072 0.086-0.031 0.15-0.083 0.193-0.156 0.029-0.050 0.033-0.069 0.033-0.159-0-0.077-0.006-0.113-0.023-0.144-0.052-0.096-0.723-1.021-0.842-1.16-0.033-0.039-0.299-0.288-0.591-0.554-3.481-3.174-3.619-3.301-3.663-3.356-0.052-0.066-0.061-0.123-0.063-0.444-0.001-0.149-0.010-0.347-0.020-0.439s-0.022-0.234-0.025-0.314c-0.008-0.177 0.008-0.239 0.091-0.34 0.052-0.064 0.056-0.073 0.060-0.15 0.008-0.147-0.005-0.173-0.193-0.366-0.234-0.24-0.22-0.199-0.22-0.662v-0.375l0.070-0.135c0.116-0.224 0.128-0.264 0.128-0.441 0-0.084-0.006-0.323-0.012-0.532s-0.014-0.819-0.015-1.355l-0.003-0.975-0.030-0.060c-0.024-0.048-0.042-0.066-0.090-0.090-0.059-0.029-0.067-0.030-0.337-0.031-0.152-0-0.288-0.005-0.303-0.009s-0.032-0.023-0.039-0.041c-0.007-0.018-0.038-0.236-0.067-0.484s-0.095-0.782-0.145-1.186c-0.175-1.41-0.2-1.611-0.373-3.034-0.096-0.788-0.208-1.703-0.249-2.033-0.055-0.447-0.071-0.605-0.062-0.62 0.023-0.035 0.083-0.020 0.413 0.104 0.597 0.224 0.866 0.336 1.097 0.458 0.441 0.233 0.49 0.275 1.227 1.055 0.169 0.179 0.521 0.547 0.782 0.819 1.178 1.225 1.893 1.983 2.426 2.576 0.644 0.715 1.192 1.374 1.473 1.768 0.199 0.28 0.543 0.8 0.57 0.863 0.013 0.030 0.042 0.135 0.065 0.235 0.089 0.385 0.176 0.627 0.346 0.969 0.123 0.246 0.207 0.394 0.66 1.148 0.399 0.666 0.445 0.748 0.509 0.904 0.097 0.238 0.219 0.444 0.328 0.555 0.075 0.077 0.203 0.167 0.683 0.487 1.060 0.705 1.208 0.837 1.299 1.163 0.053 0.189 0.448 1.697 0.617 2.351 0.618 2.402 0.69 2.78 0.805 4.246 0.057 0.723 0.095 1.048 0.158 1.328 0.089 0.402 0.218 0.778 0.543 1.585 0.323 0.802 0.397 1.008 0.474 1.326 0.101 0.412 0.119 0.624 0.119 1.356l0 0.563h-3.719c-3.532 0-3.72-0.001-3.725-0.021zM19.551 30.964c-0.024-0.024-0.024-0.040-0.024-3.131 0-3.432 0.006-3.169-0.075-3.184-0.021-0.004-1.439-0.005-3.149-0.004l-3.11 0.003-0.021 0.026c-0.020 0.024-0.021 0.187-0.029 2.823-0.005 1.821-0.004 2.898 0.004 3.086 0.007 0.159 0.009 0.304 0.005 0.322-0.004 0.020-0.021 0.040-0.042 0.051-0.044 0.023-0.168 0.023-0.199 0.001-0.023-0.017-0.024-0.051-0.029-1.674s-0.007-1.658-0.029-1.674c-0.035-0.026-2.675-0.026-2.71 0-0.023 0.017-0.024 0.051-0.029 1.655-0.005 1.321-0.009 1.641-0.022 1.653s-0.127 0.016-0.525 0.019c-0.484 0.003-0.511 0.002-0.537-0.019l-0.028-0.023 0.112-0.817c0.061-0.45 0.127-0.934 0.147-1.076s0.085-0.622 0.146-1.066l0.111-0.807v-2.424l-0.028-0.030c-0.015-0.016-0.086-0.053-0.156-0.081-0.154-0.062-0.183-0.079-0.183-0.11 0-0.035 0.011-0.051 0.216-0.327 0.105-0.14 0.243-0.333 0.308-0.429 0.237-0.352 0.322-0.444 0.82-0.891 0.1-0.089 0.305-0.279 0.457-0.421 0.578-0.542 3.156-2.897 3.202-2.925 0.016-0.010 0.033-0.013 0.038-0.008s0.011 0.837 0.013 1.848c0.003 1.653 0.001 1.843-0.016 1.888-0.019 0.049-0.173 0.202-0.987 0.978-0.093 0.088-0.176 0.171-0.185 0.184-0.041 0.058-0.2 0.055 3.285 0.059 1.798 0.002 3.289-0 3.314-0.005l0.045-0.010-0.029-0.057c-0.022-0.044-0.162-0.185-0.576-0.582-0.354-0.34-0.555-0.541-0.57-0.571-0.023-0.045-0.023-0.098-0.026-1.845-0.002-1.239 0.001-1.813 0.010-1.845l0.013-0.047 0.029 0.023c0.016 0.013 0.548 0.497 1.182 1.076s1.378 1.255 1.653 1.503c0.851 0.766 1.244 1.137 1.39 1.312 0.041 0.050 0.164 0.212 0.272 0.361s0.266 0.367 0.351 0.485c0.196 0.271 0.197 0.276 0.020 0.327-0.137 0.039-0.22 0.139-0.237 0.286-0.005 0.042-0.005 0.555-0.001 1.141 0.006 0.875 0.011 1.096 0.027 1.234 0.025 0.21 0.171 1.298 0.387 2.877 0.050 0.364 0.091 0.687 0.091 0.717 0 0.071-0.019 0.096-0.085 0.109-0.029 0.006-0.258 0.011-0.508 0.011-0.439 0-0.455-0-0.479-0.024s-0.024-0.040-0.024-1.647v-1.623l-0.056-0.052h-2.666l-0.059 0.059v1.614c0 1.749 0.003 1.656-0.063 1.703-0.039 0.027-0.124 0.024-0.154-0.005zM12.852 27.443l0.030-0.030-0-0.347c-0-0.191-0.003-0.359-0.007-0.374-0.014-0.053-0.050-0.047-0.46 0.080-0.216 0.067-0.737 0.227-1.156 0.356-0.689 0.211-0.844 0.266-0.845 0.298-0 0.004 0.020 0.016 0.045 0.026 0.040 0.017 0.184 0.019 1.204 0.019l1.159 0.001 0.030-0.030zM22.209 27.45l0.039-0.021-0.033-0.031c-0.018-0.017-0.061-0.040-0.094-0.050s-0.353-0.109-0.71-0.219c-0.358-0.11-0.858-0.265-1.112-0.344s-0.472-0.143-0.484-0.143c-0.012 0-0.028 0.011-0.035 0.023-0.008 0.015-0.012 0.16-0.012 0.389 0 0.376 0.002 0.394 0.048 0.41 0.010 0.004 0.544 0.007 1.186 0.007 1.089 0 1.171-0.001 1.207-0.021zM15.325 30.951c-0.024-0.024-0.024-0.030-0.021-1.977 0.004-1.952 0.004-1.953 0.029-2.041 0.102-0.351 0.347-0.597 0.714-0.72 0.095-0.032 0.116-0.034 0.289-0.034 0.184-0 0.189 0.001 0.31 0.043 0.178 0.063 0.3 0.14 0.437 0.275 0.099 0.098 0.123 0.131 0.172 0.229 0.031 0.063 0.068 0.158 0.083 0.211l0.027 0.096 0.003 1.949c0.003 1.809 0.002 1.951-0.017 1.971s-0.062 0.022-1.012 0.022c-0.979 0-0.992-0-1.016-0.024zM11.365 29.119c-0.048-0.018-0.050-0.040-0.046-0.579l0.004-0.52 0.034-0.068c0.037-0.075 0.089-0.127 0.168-0.169s0.21-0.038 0.3 0.006c0.079 0.039 0.121 0.084 0.165 0.177l0.031 0.066 0.004 0.519c0.004 0.493 0.003 0.52-0.019 0.547-0.023 0.028-0.024 0.028-0.32 0.029-0.164 0.001-0.308-0.002-0.32-0.007zM20.683 29.119c-0.049-0.018-0.050-0.039-0.045-0.573 0.005-0.572 0.006-0.578 0.088-0.674 0.063-0.074 0.16-0.117 0.264-0.116 0.148 0.001 0.261 0.074 0.323 0.209 0.025 0.054 0.026 0.074 0.029 0.573 0.002 0.285 0.001 0.529-0.003 0.544s-0.019 0.030-0.034 0.035c-0.035 0.011-0.593 0.014-0.623 0.003zM14.531 22.91c-0.024-0.024-0.024-0.040-0.024-2.568v-2.544l-0.027-0.054c-0.020-0.040-0.044-0.064-0.093-0.092-0.111-0.064-0.156-0.099-0.156-0.12s0.020-0.041 0.222-0.227c0.089-0.082 0.138-0.136 0.153-0.171 0.021-0.048 0.023-0.084 0.019-0.596-0.004-0.608 0.006-0.533-0.091-0.678-0.078-0.116-0.091-0.172-0.092-0.373-0-0.099 0.005-0.34 0.013-0.536 0.016-0.411 0.026-0.463 0.143-0.73 0.071-0.163 0.224-0.53 0.33-0.793 0.035-0.086 0.074-0.17 0.087-0.186l0.024-0.029 0.026 0.035c0.014 0.019 0.138 0.303 0.275 0.63s0.264 0.613 0.281 0.637l0.032 0.042 0.029-0.029c0.016-0.016 0.159-0.31 0.318-0.654s0.3-0.636 0.313-0.649c0.024-0.024 0.024-0.024 0.047 0.006 0.013 0.017 0.149 0.302 0.302 0.634 0.163 0.351 0.295 0.623 0.318 0.649l0.038 0.045 0.031-0.041c0.017-0.023 0.144-0.312 0.281-0.643 0.141-0.34 0.262-0.615 0.278-0.632 0.028-0.029 0.028-0.029 0.046-0.006 0.018 0.024 0.345 0.796 0.477 1.125l0.075 0.187 0.011 0.331c0.006 0.182 0.012 0.437 0.014 0.566l0.003 0.235-0.069 0.12c-0.135 0.236-0.123 0.171-0.127 0.739-0.004 0.612-0.013 0.572 0.153 0.736 0.064 0.063 0.147 0.143 0.186 0.177 0.047 0.041 0.069 0.069 0.066 0.084-0.002 0.013-0.035 0.038-0.082 0.061-0.094 0.047-0.146 0.102-0.173 0.185-0.018 0.057-0.020 0.269-0.020 2.58 0 2.26-0.002 2.521-0.019 2.545l-0.019 0.027h-1.787c-1.771 0-1.787-0-1.811-0.024zM16.657 21.913c0.038-0.025 0.041-0.065 0.041-0.481-0-0.607-0.011-0.676-0.114-0.78-0.062-0.062-0.132-0.093-0.224-0.1-0.155-0.011-0.267 0.055-0.338 0.199l-0.040 0.081 0.001 0.521c0.001 0.487 0.002 0.522 0.023 0.545s0.036 0.024 0.33 0.024c0.169-0 0.314-0.004 0.321-0.009zM16.666 18.822c0.010-0.010 0.022-0.038 0.026-0.061s0.005-0.258 0.002-0.52c-0.007-0.553-0.008-0.556-0.111-0.659-0.073-0.073-0.146-0.102-0.259-0.101-0.102 0-0.183 0.037-0.25 0.113-0.092 0.105-0.093 0.115-0.094 0.675-0 0.271 0.004 0.507 0.010 0.523s0.017 0.034 0.024 0.039c0.008 0.005 0.153 0.009 0.323 0.009 0.262 0 0.312-0.003 0.328-0.018zM15.412 15.738c0.021-0.019 0.022-0.051 0.022-0.534 0-0.582-0.002-0.595-0.089-0.694-0.069-0.079-0.147-0.112-0.262-0.112-0.081-0-0.102 0.005-0.169 0.039-0.084 0.043-0.142 0.114-0.169 0.206-0.010 0.035-0.015 0.199-0.015 0.557-0.001 0.483 0 0.509 0.022 0.533s0.033 0.025 0.33 0.025c0.269 0 0.31-0.002 0.329-0.020zM16.669 15.733c0.021-0.024 0.023-0.053 0.023-0.533 0-0.592 0-0.594-0.107-0.701-0.073-0.073-0.146-0.102-0.259-0.102-0.138 0-0.257 0.079-0.316 0.211-0.027 0.059-0.027 0.067-0.028 0.58-0.001 0.494 0.001 0.521 0.022 0.545s0.033 0.025 0.332 0.025c0.298 0 0.31-0.001 0.332-0.025zM17.926 15.734c0.023-0.023 0.024-0.040 0.024-0.491 0-0.286-0.005-0.495-0.013-0.538-0.025-0.135-0.096-0.233-0.204-0.282-0.079-0.036-0.215-0.034-0.295 0.003-0.085 0.040-0.156 0.124-0.186 0.221-0.022 0.072-0.024 0.112-0.024 0.572 0 0.443 0.002 0.497 0.020 0.516s0.045 0.022 0.337 0.022c0.301 0 0.318-0.001 0.341-0.024zM15.593 14.153c-0.029-0.030-0.093-0.171-0.267-0.587-0.149-0.357-0.24-0.558-0.26-0.577l-0.031-0.030-0.027 0.033c-0.015 0.018-0.127 0.272-0.249 0.565-0.229 0.547-0.256 0.606-0.276 0.594-0.008-0.005-0.012-0.244-0.012-0.657v-0.65l0.059-0.059h0.33c0.313 0 0.332-0.001 0.361-0.024 0.017-0.013 0.034-0.034 0.037-0.045s0.047-0.359 0.098-0.773c0.050-0.414 0.153-1.254 0.229-1.866s0.23-1.869 0.343-2.793c0.113-0.924 0.235-1.909 0.271-2.19 0.052-0.408 0.063-0.519 0.053-0.555-0.009-0.032-0.032-0.062-0.079-0.102-0.082-0.070-0.102-0.107-0.102-0.188 0-0.088 0.037-0.159 0.11-0.211l0.059-0.042v-1.069c0-0.588-0.003-1.078-0.007-1.088-0.006-0.016-0.033-0.019-0.172-0.019-0.239-0-0.315-0.024-0.315-0.096 0-0.065 0.066-0.086 0.295-0.091 0.099-0.002 0.185-0.004 0.19-0.004s0.010-0.102 0.010-0.226c0.002-0.311 0.008-0.365 0.048-0.387 0.019-0.011 0.043-0.014 0.063-0.009 0.061 0.015 0.066 0.040 0.076 0.336 0.005 0.154 0.014 0.277 0.020 0.281s0.1 0.008 0.208 0.009c0.18 0.001 0.199 0.004 0.23 0.027 0.047 0.035 0.047 0.095 0 0.13-0.031 0.023-0.055 0.026-0.241 0.031l-0.207 0.006-0.006 2.163 0.062 0.056c0.138 0.124 0.14 0.241 0.007 0.383-0.039 0.041-0.075 0.092-0.081 0.112-0.013 0.045-0.049-0.257 0.47 3.98 0.040 0.324 0.151 1.221 0.247 1.992s0.196 1.58 0.221 1.796c0.047 0.391 0.061 0.456 0.103 0.472 0.011 0.004 0.171 0.007 0.356 0.007 0.32 0 0.337 0.001 0.36 0.024s0.024 0.040 0.024 0.679c0 0.361-0.005 0.658-0.010 0.662s-0.019-0.003-0.029-0.014c-0.010-0.011-0.117-0.256-0.237-0.544-0.208-0.498-0.267-0.626-0.288-0.626-0.035 0-0.089 0.109-0.271 0.544-0.252 0.605-0.262 0.626-0.303 0.658-0.042 0.033-0.059 0.033-0.105 0-0.040-0.029-0.036-0.021-0.364-0.728-0.114-0.246-0.218-0.463-0.232-0.482-0.023-0.031-0.027-0.033-0.044-0.016-0.011 0.010-0.129 0.254-0.264 0.542-0.3 0.642-0.299 0.639-0.345 0.678-0.049 0.041-0.071 0.040-0.118-0.008z"></path>
</svg>
