<!-- Generated by IcoMoon.io -->
<svg version="1.1" xmlns="http://www.w3.org/2000/svg" width="32" height="32" viewBox="0 0 32 32">
<title>rio_de_janiero</title>
<path d="M1.937 30.993c0-0.089 0.426-1.031 0.733-1.622 0.233-0.449 0.34-0.626 0.683-1.141 0.553-0.83 0.98-1.356 1.619-1.994 0.484-0.483 0.934-0.869 2.265-1.94 1.429-1.151 1.838-1.501 2.359-2.022 0.249-0.249 0.428-0.444 0.709-0.77l0.161-0.187v-2.631h-0.341v-0.129h0.341v-0.082h-0.341v-0.129h0.341v-1.035h-0.341v-0.129h0.341v-0.082h-0.341v-0.129h0.341v-1.035h-0.341v-0.129h0.341v-0.082h-0.341v-0.129h0.341v-1.035h-0.341v-0.129h0.341v-0.082h-0.341v-0.129h0.341v-1.035h-0.341v-0.129h0.341v-0.082h-0.341v-0.129h0.341v-1.047h-0.341v-0.129h0.341v-0.082h-0.341v-0.129h0.341v-1.035h-0.341v-0.129h0.341v-0.082h-0.341v-0.129h0.341v-1.035h-0.341v-0.129h0.341v-0.082h-0.341v-0.129h0.341v-1.035h-0.341v-0.129h0.341v-0.082h-0.341v-0.129h0.341v-1.117h-0.353v-0.129h0.353v-0.082h-0.353v-0.129h1.87v1.458h3.208l0.007-0.162c0.004-0.089 0.008-0.298 0.010-0.464 0.004-0.388 0.016-0.367-0.244-0.415-0.154-0.028-0.333-0.092-0.494-0.175l-0.141-0.073-0.435 0.002c-0.239 0.001-0.517 0.008-0.617 0.016-0.331 0.025-0.478 0.028-0.538 0.012-0.046-0.012-0.074-0.034-0.159-0.119-0.134-0.136-0.335-0.366-0.447-0.512-0.109-0.143-0.159-0.224-0.326-0.539-0.072-0.136-0.146-0.262-0.164-0.28-0.026-0.026-0.055-0.037-0.143-0.056-0.146-0.030-0.211-0.029-0.362 0.005-0.29 0.066-0.598 0.084-0.819 0.048-0.058-0.010-0.139-0.018-0.181-0.018-0.095-0-0.196-0.026-0.296-0.077-0.079-0.040-0.224-0.149-0.286-0.215-0.032-0.034-0.032-0.037-0.016-0.069 0.047-0.092 0.114-0.116 0.417-0.156 0.203-0.027 0.22-0.036 0.209-0.121-0.009-0.066-0.029-0.057 0.217-0.093 0.212-0.031 0.429-0.033 0.553-0.005 0.049 0.011 0.15 0.048 0.225 0.083 0.201 0.092 0.286 0.105 0.381 0.054 0.030-0.016 0.093-0.019 0.435-0.020 0.446-0.001 0.443-0.001 1.123-0.111 0.197-0.032 0.404-0.061 0.459-0.066 0.072-0.005 0.128-0.018 0.2-0.047 0.134-0.052 0.246-0.079 0.506-0.123 0.294-0.049 0.377-0.072 0.77-0.218 0.186-0.069 0.368-0.132 0.404-0.142s0.163-0.025 0.282-0.035c0.237-0.019 0.319-0.040 0.529-0.135 0.059-0.026 0.113-0.048 0.12-0.048 0.033 0 0.082-0.037 0.094-0.072 0.008-0.022 0.013-0.128 0.014-0.256 0.001-0.457 0.020-0.87 0.046-1.002 0.085-0.436 0.25-0.647 0.555-0.712 0.104-0.022 0.295-0.016 0.405 0.014 0.243 0.066 0.343 0.183 0.417 0.489 0.068 0.283 0.089 0.487 0.106 1.023 0.012 0.404 0.018 0.43 0.12 0.521 0.050 0.045 0.081 0.060 0.237 0.111 0.206 0.068 0.383 0.112 0.526 0.13 0.268 0.034 0.435 0.072 0.6 0.138 0.116 0.046 0.168 0.075 0.306 0.169s0.223 0.131 0.435 0.191c0.385 0.109 0.642 0.152 1.029 0.172 0.136 0.007 0.366 0.023 0.512 0.035 0.318 0.027 0.42 0.033 0.813 0.048 0.343 0.013 0.437 0.005 0.616-0.047 0.116-0.034 0.122-0.035 0.442-0.038l0.325-0.003 0.059 0.055c0.048 0.045 0.071 0.057 0.128 0.068 0.038 0.007 0.109 0.021 0.158 0.031 0.153 0.031 0.306 0.118 0.306 0.173 0 0.031-0.029 0.079-0.107 0.179-0.106 0.135-0.192 0.176-0.404 0.194-0.072 0.006-0.221 0.019-0.332 0.029-0.255 0.022-0.472 0.022-0.615 0-0.323-0.050-0.303-0.048-0.338-0.022-0.042 0.032-0.065 0.080-0.18 0.381-0.169 0.443-0.262 0.606-0.458 0.8-0.136 0.135-0.231 0.198-0.356 0.236-0.075 0.023-0.111 0.024-0.87 0.027-0.772 0.003-0.795 0.003-0.907 0.029-0.063 0.014-0.167 0.045-0.229 0.069s-0.267 0.094-0.453 0.157c-0.186 0.063-0.347 0.122-0.358 0.131-0.046 0.038-0.050 0.079-0.050 0.456v0.365h3.458v-1.458h1.823v0.129h-0.306v0.082h0.306v0.129h-0.306v1.117h0.306v0.129h-0.306v0.082h0.306v0.129h-0.306v1.035h0.306v0.129h-0.306v0.082h0.306v0.129h-0.306v1.035h0.306v0.129h-0.306v0.082h0.306v0.129h-0.306v1.035h0.306v0.129h-0.306v0.082h0.306v0.129h-0.306v1.047h0.306v0.129h-0.306v0.082h0.306v0.129h-0.306v1.035h0.306v0.129h-0.306v0.082h0.306v0.129h-0.306v1.035h0.306v0.129h-0.306v0.082h0.306v0.129h-0.306v1.035h0.306v0.129h-0.306v0.082h0.306v0.129h-0.306v1.035h0.306v0.129h-0.306v0.082h0.306v0.129h-0.306v6.407l0.136 0.121c0.075 0.067 0.177 0.153 0.226 0.191 0.368 0.284 1.045 0.644 1.878 0.997 0.305 0.129 1.152 0.55 1.367 0.679 0.29 0.174 0.532 0.367 0.815 0.649 0.465 0.464 0.74 0.87 1.176 1.741 0.144 0.288 0.166 0.337 0.325 0.747 0.183 0.47 0.226 0.589 0.25 0.69l0.021 0.092h-14.094c-7.752 0-14.094-0.003-14.094-0.007zM23.777 21.797v-3.111h-1.211l0 0.914c0 0.771 0.003 0.923 0.017 0.972 0.086 0.283 0.226 1.112 0.288 1.707 0.059 0.562 0.101 0.813 0.2 1.199 0.127 0.491 0.178 0.615 0.427 1.035 0.092 0.155 0.258 0.394 0.273 0.394 0.003 0 0.006-1.4 0.006-3.111zM10.759 20.973c0.31-0.362 0.658-0.753 0.908-1.019l0.162-0.172v-1.096h-1.211v1.226c0 1.021 0.003 1.223 0.016 1.208 0.009-0.009 0.065-0.075 0.126-0.147zM22.413 19.421v-0.735h-1.212l0.006 0.519 0.118 0.045c0.462 0.174 0.797 0.438 1.018 0.801 0.035 0.057 0.065 0.105 0.066 0.105s0.003-0.33 0.003-0.735zM12.287 19.374c0.256-0.205 0.525-0.372 0.775-0.483l0.13-0.057v-0.147h-1.211v0.955l0.085-0.079c0.047-0.044 0.146-0.128 0.221-0.188zM21.049 18.921v-0.235h-1.211v0.291l0.050 0.007c0.027 0.004 0.159 0.018 0.291 0.031 0.354 0.035 0.59 0.073 0.77 0.122 0.109 0.030 0.1 0.049 0.1-0.216zM19.685 18.809c0-0.107-0.003-0.123-0.019-0.123s-0.018 0.012-0.011 0.106c0.008 0.099 0.015 0.141 0.026 0.141 0.003 0 0.005-0.056 0.005-0.123zM13.463 18.727l0.112-0.040-0.229-0.001v0.041c0 0.023 0.001 0.041 0.003 0.041s0.053-0.018 0.115-0.040zM11.828 18.515v-0.041h-1.211v0.082h1.211zM13.192 18.515v-0.041h-1.211v0.082h1.211zM14.524 18.539c0.024-0.006 0.032-0.016 0.032-0.037v-0.028h-1.211v0.084l0.573-0.005c0.315-0.003 0.588-0.009 0.606-0.014zM19.685 18.515c0-0.029-0.005-0.041-0.018-0.041s-0.018 0.012-0.018 0.041c0 0.029 0.005 0.041 0.018 0.041s0.018-0.012 0.018-0.041zM21.049 18.515v-0.041h-1.211v0.082h1.211zM22.413 18.515v-0.041h-1.211v0.082h1.211zM23.777 18.515v-0.041h-1.211v0.082h1.211zM11.828 17.827v-0.517h-1.211v1.035h1.211zM13.192 17.827v-0.517h-1.211v1.035h1.211zM14.557 17.827v-0.517h-1.211v1.035h1.211zM19.685 17.827v-0.517h-0.025c-0.025 0-0.025 0.003-0.018 0.115 0.004 0.063 0.008 0.296 0.008 0.517 0 0.35 0.002 0.403 0.018 0.403s0.018-0.065 0.018-0.517zM21.049 17.827v-0.517h-1.211v1.035h1.211zM22.413 17.827v-0.517h-1.211v1.035h1.211zM23.777 17.827v-0.517h-1.211v1.035h1.211zM14.718 17.366c-0.002-0.034-0.004-0.006-0.004 0.062s0.002 0.096 0.004 0.062c0.002-0.034 0.002-0.090 0-0.123zM11.828 17.139v-0.041h-1.211v0.082h1.211zM13.192 17.139v-0.041h-1.211v0.082h1.211zM14.557 17.139v-0.041h-1.211v0.082h1.211zM14.744 17.143c0.017-0.047 0.017-0.045-0.011-0.045-0.019 0-0.024 0.008-0.024 0.041 0 0.051 0.017 0.053 0.034 0.004zM19.685 17.139c0-0.033-0.004-0.041-0.024-0.041s-0.024 0.008-0.024 0.041c0 0.033 0.004 0.041 0.024 0.041s0.024-0.008 0.024-0.041zM21.049 17.139v-0.041h-1.211v0.082h1.211zM22.413 17.139v-0.041h-1.211v0.082h1.211zM23.777 17.139v-0.041h-1.211v0.082h1.211zM11.828 16.451v-0.518h-1.211v1.035h1.211zM13.192 16.451v-0.518h-1.211v1.035h1.211zM14.557 16.451v-0.518h-1.211v1.035h1.211zM14.982 16.942c0.008-0.015 0.018-0.076 0.023-0.137 0.013-0.158 0.023-0.167 0.22-0.195 0.17-0.024 0.209-0.040 0.233-0.097 0.018-0.042 0.038-0.299 0.039-0.5l0.001-0.079h-0.788v1.035h0.129c0.122 0 0.13-0.002 0.143-0.026zM19.685 16.451v-0.518h-0.412c-0.384 0-0.412 0.001-0.412 0.021 0 0.011 0.008 0.134 0.019 0.273 0.020 0.271 0.030 0.31 0.089 0.338 0.016 0.008 0.116 0.028 0.221 0.044 0.236 0.036 0.264 0.054 0.236 0.158-0.019 0.071 0 0.102 0.083 0.132 0.037 0.014 0.077 0.035 0.088 0.047s0.035 0.022 0.054 0.022h0.033zM21.049 16.451v-0.518h-1.211v1.035h1.211zM22.413 16.451v-0.518h-1.211v1.035h1.211zM23.777 16.451v-0.518h-1.211v1.035h1.211zM11.828 15.763v-0.041h-1.211v0.082h1.211zM13.192 15.763v-0.041h-1.211v0.082h1.211zM14.557 15.763v-0.041h-1.211v0.082h1.211zM15.509 15.763v-0.041h-0.8v0.082h0.8zM19.685 15.763v-0.041h-0.835v0.082h0.835zM21.049 15.763v-0.041h-1.211v0.082h1.211zM22.413 15.763v-0.041h-1.211v0.082h1.211zM23.777 15.763v-0.041h-1.211v0.082h1.211zM11.828 15.075v-0.518h-1.211v1.035h1.211zM13.192 15.075v-0.518h-1.211v1.035h1.211zM14.557 15.075v-0.518h-1.211v1.035h1.211zM15.514 15.543c0.006-0.053 0.031-0.785 0.031-0.912l-0-0.073h-0.835v1.035h0.798zM19.685 15.075v-0.518h-0.894v0.050c-0 0.071 0.034 0.797 0.042 0.9l0.007 0.085h0.845v-0.518zM21.049 15.075v-0.518h-1.211v1.035h1.211zM22.413 15.075v-0.518h-1.211v1.035h1.211zM23.777 15.075v-0.518h-1.211v1.035h1.211zM11.828 14.387v-0.041h-1.211v0.082h1.211zM13.192 14.387v-0.041h-1.211v0.082h1.211zM14.557 14.387v-0.041h-1.211v0.082h1.211zM15.556 14.387v-0.041h-0.847v0.082h0.847zM19.685 14.387v-0.041h-0.906v0.082h0.906zM21.049 14.387v-0.041h-1.211v0.082h1.211zM22.413 14.387v-0.041h-1.211v0.082h1.211zM23.777 14.387v-0.041h-1.211v0.082h1.211zM11.828 13.699v-0.518h-1.211v1.035h1.211zM13.192 13.699v-0.518h-1.211v1.035h1.211zM14.557 13.699v-0.518h-1.211v1.035h1.211zM15.568 14.114c0-0.057 0.008-0.262 0.017-0.456s0.017-0.381 0.017-0.415l0-0.062h-0.894v1.035h0.859l0-0.103zM19.685 13.699v-0.518h-0.788v0.033c0 0.019-0.032 0.086-0.077 0.162l-0.077 0.129 0.007 0.135c0.004 0.074 0.010 0.235 0.015 0.356l0.008 0.221h0.914zM21.049 13.699v-0.518h-1.211v1.035h1.211zM22.413 13.699v-0.518h-1.211v1.035h1.211zM23.777 13.699v-0.518h-1.211v1.035h1.211zM11.828 13.011v-0.041h-1.211v0.082h1.211zM13.192 13.011v-0.041h-1.211v0.082h1.211zM14.557 13.011v-0.041h-1.211v0.082h1.211zM15.615 13.011v-0.041h-0.906v0.082h0.906zM19.685 13.011v-0.041h-0.788v0.082h0.788zM21.049 13.011v-0.041h-1.211v0.082h1.211zM22.413 13.011v-0.041h-1.211v0.082h1.211zM23.777 13.011v-0.041h-1.211v0.082h1.211zM11.828 12.317v-0.523h-1.211v1.047h1.211zM13.192 12.317v-0.523h-1.211v1.047h1.211zM14.557 12.317v-0.523h-1.211v1.047h1.211zM15.63 12.702c0.020-0.384 0.035-0.848 0.028-0.876l-0.008-0.032h-0.94v1.047h0.914zM19.685 12.317v-0.523h-0.776v0.274c0 0.151-0.003 0.386-0.008 0.523l-0.008 0.249h0.792zM21.049 12.317v-0.523h-1.211v1.047h1.211zM22.413 12.317v-0.523h-1.211v1.047h1.211zM23.777 12.317v-0.523h-1.211v1.047h1.211zM11.828 11.623v-0.041h-1.211v0.082h1.211zM13.192 11.623v-0.041h-1.211v0.082h1.211zM14.557 11.623v-0.041h-1.211v0.082h1.211zM15.608 11.632c-0.004-0.018-0.010-0.036-0.013-0.041s-0.203-0.009-0.445-0.009h-0.44v0.082h0.906zM19.685 11.623v-0.041h-0.776v0.082h0.776zM21.049 11.623v-0.041h-1.211v0.082h1.211zM22.413 11.623v-0.041h-1.211v0.082h1.211zM23.777 11.623v-0.041h-1.211v0.082h1.211zM11.828 10.935v-0.518h-1.211v1.035h1.211zM13.192 10.935v-0.518h-1.211v1.035h1.211zM14.557 10.935v-0.518h-1.211v1.035h1.211zM15.564 11.435c-0.019-0.049-0.045-0.537-0.041-0.768l0.004-0.25h-0.818v1.035h0.431c0.377 0 0.43-0.002 0.424-0.018zM19.685 10.935v-0.518h-0.761l-0.007 0.055c-0.004 0.030-0.007 0.263-0.007 0.518v0.463h0.776zM21.049 10.935v-0.518h-1.211v1.035h1.211zM22.413 10.935v-0.518h-1.211v1.035h1.211zM23.777 10.935v-0.518h-1.211v1.035h1.211zM11.828 10.247v-0.041h-1.211v0.082h1.211zM13.192 10.247v-0.041h-1.211v0.082h1.211zM14.557 10.247v-0.041h-1.211v0.082h1.211zM15.545 10.266c0-0.012 0.003-0.031 0.007-0.041 0.006-0.017-0.035-0.019-0.418-0.019h-0.425v0.082h0.418c0.404 0 0.418-0.001 0.418-0.023zM19.685 10.247v-0.041h-0.764v0.082h0.764zM21.049 10.247v-0.041h-1.211v0.082h1.211zM22.413 10.247v-0.041h-1.211v0.082h1.211zM23.777 10.247v-0.041h-1.211v0.082h1.211zM11.828 9.559v-0.518h-1.211v1.035h1.211zM13.192 9.559v-0.518h-1.211v1.035h1.211zM14.557 9.559v-0.518h-1.211v1.035h1.211zM15.566 9.987l-0.005-0.090-0.073-0.066c-0.097-0.088-0.126-0.153-0.116-0.256 0.011-0.11-0.015-0.149-0.111-0.164-0.029-0.004-0.062-0.012-0.073-0.018-0.036-0.019-0.048-0.084-0.039-0.222l0.008-0.129h-0.45v1.035h0.861zM19.685 9.559v-0.518h-0.749l-0.008 0.291c-0.004 0.16-0.008 0.393-0.008 0.518v0.226h0.764v-0.518zM21.049 9.559v-0.518h-1.211v1.035h1.211zM22.413 9.559v-0.518h-1.211v1.035h1.211zM23.777 9.559v-0.518h-1.211v1.035h1.211zM11.828 8.871v-0.041h-1.211v0.082h1.211zM13.192 8.871v-0.041h-1.211v0.082h1.211zM14.557 8.871v-0.041h-1.211v0.082h1.211zM15.156 8.871v-0.041h-0.447v0.082h0.447zM19.685 8.871v-0.041h-0.753v0.082h0.753zM21.049 8.871v-0.041h-1.211v0.082h1.211zM22.413 8.871v-0.041h-1.211v0.082h1.211zM23.777 8.871v-0.041h-1.211v0.082h1.211zM11.828 8.183v-0.518h-1.211v1.035h1.211zM13.192 8.183v-0.518h-1.211v1.035h1.211zM14.557 8.183v-0.518h-1.211v1.035h1.211zM15.173 8.233c0.004-0.257 0.010-0.49 0.013-0.518l0.005-0.050h-0.482v1.035h0.456zM19.685 8.183v-0.518h-0.741v0.374c0 0.206-0.003 0.439-0.008 0.518l-0.008 0.143h0.756zM21.049 8.183v-0.518h-1.211v1.035h1.211zM22.413 8.183v-0.518h-1.211v1.035h1.211zM23.777 8.183v-0.518h-1.211v1.035h1.211zM11.828 7.495v-0.041h-1.211v0.082h1.211zM13.192 7.495v-0.041h-1.211v0.082h1.211zM14.557 7.495v-0.041h-1.211v0.082h1.211zM15.192 7.495v-0.041h-0.482v0.082h0.482zM19.685 7.495v-0.041h-0.729v0.082h0.729zM21.049 7.495v-0.041h-1.211v0.082h1.211zM22.413 7.495v-0.041h-1.211v0.082h1.211zM23.777 7.495v-0.041h-1.211v0.082h1.211zM11.828 6.766v-0.559h-1.211v1.117h1.211zM23.777 6.766v-0.559h-1.211v1.117h1.211zM11.828 6.037v-0.041h-1.211v0.082h1.211zM23.777 6.037v-0.041h-1.211v0.082h1.211z"></path>
</svg>
