<!-- Generated by IcoMoon.io -->
<svg version="1.1" xmlns="http://www.w3.org/2000/svg" width="31" height="32" viewBox="0 0 31 32">
<title>rising_tide</title>
<path d="M16.352 23.752c0.41-0.11 0.821-0.21 1.245-0.271 0.894-0.13 1.798-0.167 2.699-0.119 0.967 0.051 1.934 0.198 2.89 0.351 0.025 0.003 0.049 0.009 0.074 0.014 0.496 0.024 0.993 0.035 1.496 0.018 0.006-0.005 0.012-0.009 0.020-0.014 0.065-0.042 0.15-0.121 0.155-0.169 0.011-0.029 0.004-0.054-0.032-0.064-1.172-0.325-2.507-0.517-3.764-0.575-0.779-0.212-1.611-0.315-2.389-0.454-0.001 0-0.001 0-0.003 0-0.009 0.008-0.016 0.015-0.027 0.020-0.454 0.237-0.986 0.317-1.493 0.25-0.101 0.006-0.202 0.010-0.302 0.018-0.071-0.002-0.144-0.006-0.215-0.009-0.252-0.046-0.505-0.089-0.76-0.12-0.634-0.080-1.27-0.141-1.906-0.197-0.449-0.039-1.001 0.003-1.423-0.159-0.005-0.002-0.007-0.005-0.012-0.008-0.79-0.086-1.578-0.287-2.334-0.485-0.008-0.010-0.021-0.019-0.045-0.021-0.021-0.002-0.043-0.005-0.065-0.008-0.059-0.015-0.117-0.030-0.176-0.045-0.056 0.002-0.112 0.005-0.169 0.008-0.659-0.071-1.318-0.13-1.978-0.174 0.001-0.005 0.001-0.010-0.005-0.011-1.321-0.199-2.712-0.166-4.084-0.038-0.617 0.144-1.195 0.41-0.641 0.782 0.086 0.058 0.179 0.106 0.275 0.15 0.131 0.021 0.255 0.042 0.346 0.081 0.072 0.031 0.136 0.064 0.196 0.095 0.095 0.021 0.192 0.036 0.29 0.053 1.173-0.072 2.306 0.151 3.445 0.44 0.702 0.177 1.621 0.27 2.349 0.58 2.059 0.551 4.196 0.51 6.274 0.076 0.025-0.005 0.049-0.002 0.070 0.003z"></path>
<path d="M8.624 24.013c-0.371-0.19-0.892-0.337-0.966-0.359-0.397-0.11-0.797-0.219-1.203-0.297-0.284-0.054-0.566-0.090-0.85-0.113-0.141 0.013-0.282 0.028-0.424 0.039-0.612 0.047-1.225 0.095-1.838 0.132-0.016 0.015-0.036 0.029-0.053 0.044-0.114 0.111-0.364 0.35-0.312 0.542 0.006 0.019 0.025 0.047 0.054 0.081-0.197 0.106-0.385 0.235-0.539 0.399-0.214 0.229-0.472 0.607-0.121 0.827 0.199 0.125 0.604 0.099 0.831 0.121 0.225 0.022 0.451 0.037 0.677 0.046 0.015 0.003 0.030 0.009 0.046 0.012 0.082 0.015 0.164 0.024 0.245 0.029 0.671-0.066 1.351-0.192 1.999-0.282 0.284-0.039 0.569-0.084 0.854-0.131 0.009 0.001 0.019 0.002 0.029 0.003 0.034-0.005 0.067-0.010 0.101-0.016 0.272-0.053 0.545-0.113 0.805-0.209 0.171-0.060 0.335-0.136 0.49-0.227 0.102-0.090 0.196-0.195 0.252-0.301 0.009-0.027 0.015-0.055 0.019-0.081-0.027-0.089-0.060-0.175-0.096-0.26z"></path>
<path d="M17.891 28.603c-0.070-0.011-0.105-0.075-0.105-0.139-0.054-0.008-0.106-0.014-0.16-0.021-0.429-0.019-0.878-0.026-1.293-0.151-0.958-0.090-1.917-0.11-2.887 0.063-0.814 0.144-1.593 0.415-2.413 0.526-0.25 0.034-0.497 0.051-0.739 0.126-0.154 0.047-0.407 0.204-0.487 0.182 0 0 0 0 0 0 0.012 0.006 0.024 0.010 0.035 0.015 0.030 0.012 0.049 0.031 0.061 0.053 0.821 0.16 1.685 0.245 2.517 0.182 0.665 0.043 1.331 0.089 1.997 0.122 1.195-0.246 2.329-0.705 3.504-0.955-0.010-0.001-0.020-0.002-0.030-0.003z"></path>
<path d="M23.233 29.317c-0.036-0.027-0.071-0.051-0.107-0.072 0.009 0 0.017-0.001 0.025-0.001-0.029-0.011-0.058-0.024-0.087-0.035-0.154-0.085-0.306-0.13-0.469-0.167-0.274-0.094-0.552-0.179-0.832-0.254-0.342-0.146-0.671-0.321-1.052-0.385-0.824-0.139-1.706 0.065-2.472 0.404-0.294 0.051-0.585 0.128-0.88 0.237-0.299 0.111-0.599 0.22-0.901 0.321-0.074 0.014-0.146 0.027-0.219 0.040-0.036 0.006-0.085 0.036-0.137 0.076-0.136 0.042-0.272 0.084-0.409 0.121 0.090 0.001 0.18 0.005 0.27 0.005-0.159 0.169-0.276 0.377-0.084 0.359 0.925-0.084 1.849-0.174 2.773-0.269 0.355 0.010 0.714 0.036 1.085 0.086 0.951 0.126 1.884 0.255 2.845 0.206 0.154-0.009 0.895-0.486 0.651-0.672z"></path>
<path d="M25.471 28.731c-0.003-0.001-0.005-0.001-0.008-0.002-0.174-0.063-0.347-0.119-0.521-0.177-0.28-0.060-0.562-0.114-0.844-0.167-0.010-0.035-0.036-0.060-0.087-0.069-1.078-0.179-2.089-0.65-3.167-0.867-0.081-0.016-0.162-0.030-0.244-0.044-0.641-0.080-1.285-0.14-1.931-0.161-0.191-0.008-0.65-0.035-1.138-0.021-0.005-0.016-0.017-0.029-0.050-0.030-0.562-0.030-1.068 0-1.616 0.144-0.105 0.028-0.561 0.372-0.342 0.481 0.285 0.14 0.707 0.122 1.022 0.134 0.136 0.005 0.27 0.009 0.4 0.006 0.432 0.027 0.863 0.055 1.296 0.070 0.066 0.001 0.154 0 0.251 0 0.017-0.006 0.035-0.011 0.056-0.011 0.792 0.019 1.583 0.11 2.361 0.264 0.784 0.144 1.588 0.387 2.332 0.684 0.052 0.021 0.105 0.043 0.157 0.064 0.102 0.041 0.202 0.085 0.301 0.128 0.575-0.053 1.147-0.119 1.715-0.216 0-0.003-0.001-0.007 0-0.011 0.001-0.009 0.003-0.019 0.004-0.027-0.004-0.015-0.004-0.033 0.001-0.050l0.014-0.058c0.008-0.027 0.023-0.046 0.040-0.059-0.001 0-0.001-0.001-0.003-0.001z"></path>
<path d="M23.477 26.884c-0.205-0.074-0.409-0.155-0.616-0.22-0.556-0.074-1.113-0.135-1.672-0.189-1.337-0.058-2.673-0.216-4.010-0.27-0.746-0.031-1.49 0.009-2.233 0.078-0.576 0.053-1.162 0.255-1.742 0.21-0.002-0.001-0.004-0.002-0.005-0.002-0.704 0.089-1.403 0.122-2.132 0.144-1.135 0.032-2.137 0.361-3.088 0.951-0.12 0.28-0.155 0.552-0.054 0.791 1.307 0.314 2.634 0.326 3.989-0.036 0.411-0.11 0.814-0.232 1.215-0.357 0.015-0.025 0.037-0.047 0.070-0.061 0.47-0.195 0.936-0.416 1.418-0.581 0.489-0.167 1.008-0.219 1.508-0.352 0.052-0.014 0.095 0.001 0.126 0.027 1.432-0.227 2.875-0.171 4.313 0.020 0.921 0.012 1.841 0.022 2.752 0.059 0.080-0.027 0.155-0.063 0.22-0.113 0.005-0.005 0.010-0.011 0.015-0.017-0.025-0.026-0.050-0.053-0.074-0.080z"></path>
<path d="M27.087 25.184c-0.461-0.097-0.919-0.214-1.378-0.32-0.17-0.020-0.341-0.042-0.512-0.065-0.451-0.058-0.904-0.106-1.357-0.15-1.193-0.247-2.426-0.385-3.613-0.584-0.156-0.026-0.314-0.056-0.472-0.085-1.008-0.080-1.978-0.104-3.037 0.136-0.211 0.047-0.422 0.097-0.632 0.147-0.141 0.066-0.282 0.134-0.421 0.204-0.064 0.085-0.085 0.175-0.077 0.264 0.185 0.024 0.369 0.037 0.554 0.046 0.481 0.294 1.086 0.304 1.647 0.302-0.356 0.041-0.712 0.085-1.068 0.117-0.372 0.006-0.751 0.015-1.125 0.047-0.145-0.003-0.289-0.010-0.432-0.024-1.343-0.131-2.579-0.607-3.955-0.531-0.056 0.003-0.092-0.020-0.116-0.055-0.206 0.002-0.412 0.009-0.617 0.025-0.247 0.033-0.494 0.064-0.74 0.093-0.339 0.061-0.672 0.147-1.002 0.266-0.023 0.008-0.043 0.010-0.061 0.009-0.185 0.058-0.372 0.106-0.561 0.152-0.562 0.222-1.232 0.286-1.844 0.356-0.647 0.112-1.307 0.22-1.961 0.277 0.053 0.094 0.121 0.184 0.214 0.267 0.435 0.39 1.263 0.537 1.809 0.68 0.146 0.037 0.292 0.071 0.44 0.106 0.347 0.141 0.715 0.225 1.090 0.285 0.027 0.038 0.051 0.074 0.076 0.11 0.177-0.114 0.356-0.221 0.541-0.31 0.821-0.396 1.686-0.587 2.594-0.614 0.724-0.021 1.417-0.085 2.109-0.179 0.016-0.005 0.031-0.008 0.047-0.006 0.249-0.034 0.497-0.072 0.747-0.115 0.166 0.038 0.34 0.036 0.516 0.021 0.199-0.035 0.395-0.068 0.586-0.082 0.702-0.059 1.401-0.096 2.104-0.067 0.978 0.039 1.954 0.135 2.932 0.206 0.231-0.031 0.459-0.078 0.68-0.152 0.045-0.015 0.126-0.074 0.217-0.151 1.025-0.037 2.051-0.015 3.074-0.039 1.64 0.081 3.28 0.137 4.915 0.151 0.046 0 0.19-0.091 0.247-0.167-0.706-0.237-1.427-0.419-2.157-0.574z"></path>
<path d="M6.432 21.025c-0.004-0.061-0.006-0.121-0.010-0.182-0.018-0.010-0.031-0.017-0.036-0.020-0.039-0.023-0.060-0.055-0.067-0.089-0.059-0.025-0.116-0.051-0.171-0.079 0.009-0.016 0.014-0.031 0.018-0.045-0.201-0.11-0.391-0.237-0.589-0.355-0.542-0.192-1.075-0.371-1.652-0.464-0.010-0.016-0.033-0.025-0.074-0.023-0.015 0.001-0.030 0.002-0.045 0.003-0.122-0.019-0.245-0.036-0.367-0.054 0.056 0.024 0.116 0.047 0.176 0.072-0.612 0.076-1.151 0.319-1.553 0.826-0.037 0.046-0.135 0.208-0.106 0.281 0.161 0.404 0.752 0.376 1.127 0.38 0.325 0.001 0.646-0.033 0.97-0.063 0.376-0.035 1.080-0.197 1.413-0.104 0.047 0.015 0.121-0.003 0.202-0.042 0.021 0.002 0.043 0.005 0.064 0.008 0.212 0.020 0.425 0.034 0.637 0.049 0.008-0.040 0.026-0.077 0.064-0.101z"></path>
<path d="M7.395 18.351c0.001-0.001 0.004-0.003 0.005-0.005-0.829-0.377-2.018-0.846-2.945-0.612-0.12-0.026-0.237-0.055-0.357-0.078-0.027 0.63-1.258 0.942-1.238 1.511 1.273 0.017 2.543 0.042 3.791-0.2 0.059 0.006 0.116 0.015 0.174 0.020 0.29 0.027 0.77-0.557 0.571-0.636z"></path>
<path d="M11.151 17.729c-0.034-0.367-0.307-0.566-0.622-0.72-0.047 0.014-0.099 0.016-0.147 0.003-0.767-0.202-1.433-0.279-2.211-0.351-0.291-0.028-0.62-0.069-0.855-0.264-0.43-0.357-0.512-0.709-1.172-0.851-0.886-0.191-1.783-0.171-2.68-0.123-0.28 0.078-0.555 0.173-0.764 0.289-0.145 0.164-0.269 0.341-0.366 0.529 0.029 0.115 0.119 0.24 0.291 0.376 0.315 0.25 0.809 0.202 1.141 0.433 0.766 0.085 1.508 0.307 2.262 0.485 0.669 0.159 1.381 0.319 2.029 0.577 0.132 0.030 0.296 0.072 0.431 0.14 0.435 0.079 0.917 0.076 1.327 0.084 0.611-0.114 1.093-0.182 1.261-0.196h0.001c0.056-0.131 0.086-0.27 0.074-0.412z"></path>
<path d="M12.098 21.864c-0.105-0.042-0.217-0.086-0.324-0.142-0.1-0.045-0.197-0.093-0.287-0.155-0.041-0.021-0.079-0.046-0.112-0.076-0.187-0.080-0.356-0.177-0.374-0.276l0.109-0.128c0.164-0.041 0.331-0.072 0.497-0.096 0.029-0.447 0.085-0.892 0.134-1.338-0.035 0-0.071 0.002-0.106 0.003 0.011-0.069 0.009-0.129-0.004-0.185 0.001-0.165-0.035-0.322-0.105-0.465 0.014-0.001 0.029-0.002 0.044-0.002-0.156-0.169-0.241-0.399-0.267-0.635-0.035-0.006-0.069-0.010-0.104-0.015-0.023 0.043-0.061 0.078-0.121 0.082-0.36 0.030-0.726 0.087-1.093 0.157-0.023 0.023-0.054 0.039-0.095 0.041-0.046 0.001-0.095 0.003-0.142 0.006-0.406 0.086-0.812 0.19-1.212 0.299-0.281 0.186-0.762 0.235-0.998 0.284-0.005 0.001-0.009-0.001-0.014 0-0.015 0.003-0.031 0.009-0.047 0.012-0.432 0.122-1.215 0.239-1.49 0.602-0.061 0.080-0.079 0.149-0.069 0.209 0.029 0.016 0.058 0.031 0.086 0.049 0.036 0.022 0.056 0.056 0.062 0.092 0.272 0.155 0.544 0.302 0.865 0.401 0.312 0.096 0.612 0.182 0.904 0.307 0.22 0.052 0.444 0.1 0.669 0.141 0.021-0.041 0.060-0.070 0.122-0.064 0.436 0.049 0.863 0.094 1.288 0.181 0.087-0.020 0.174-0.041 0.26-0.059 0.004 0.002 0.009 0.001 0.012 0.003 0.024 0.009 0.040 0.029 0.055 0.041-0.030 0.020-0.057 0.044-0.081 0.069 0.020 0.005 0.039 0.008 0.059 0.014 0.14 0.036 0.132 0.232 0.019 0.28 0.614 0.16 1.231 0.31 1.856 0.401 0.002-0.006 0.005-0.014 0.010-0.019 0-0.008 0.001-0.014 0.004-0.019l-0.007-0.003z"></path>
<path d="M17.137 17.613c-0.495-0.022-1.211 0.596-1.371 1.131-0.061 0.046-0.115 0.112-0.047 0.119 0.008 0.001 0.015 0.001 0.021 0.001-0.004 0.034-0.008 0.066-0.006 0.097-0.001 0.018-0.002 0.034-0.004 0.050 0.691 0.033 1.392-0.244 2.064-0.356 0.614-0.103 1.24-0.148 1.861-0.104 1.063 0.075 2.204 0.582 3.299 0.586 0 0 0 0-0.001 0-0.043-0.006-0.086-0.011-0.13-0.018-0.051-0.359-0.269-0.385-0.607-0.696-0.165-0.152-0.182-0.331-0.389-0.482-0.255-0.187-0.58-0.277-0.88-0.362-0.624-0.177-1.275-0.247-1.921-0.227-0.312 0.010-0.63 0.012-0.94 0.045-0.32 0.034-0.645 0.23-0.95 0.216z"></path>
<path d="M13.562 16.001c-0.002-0.009-0.005-0.017-0.011-0.025 0.043-0.039 0.078-0.078 0.095-0.1l0.016-0.021c0.031-0.040 0.087-0.15 0.010-0.176-0.010-0.003-0.020-0.007-0.030-0.010-0.005-0.002-0.012-0.001-0.019-0.002 0.307-0.23 0.157-2.337 0.16-2.708 0.004-0.843 0.030-1.713-0.043-2.563 1.048-0.227 2.106-0.678 3.127-1.096-0.361 0.988-0.667 1.991-0.925 3.017-0.221 0.882-0.522 1.832-0.641 2.762-0.559 0.359-1.143 0.637-1.739 0.923zM13.17 13.363c-0.012 0.389-0.215 1.735-0.076 2.391-0.349-0.115-0.739-0.177-1.067-0.272-0.311-0.089-0.609-0.211-0.908-0.319-0.211-1.078-0.446-2.153-0.709-3.22-0.189-0.772-0.357-1.598-0.66-2.352 0.099 0.023 0.184 0.042 0.249 0.061 1.018 0.292 2.039 0.574 3.067 0.828 0.060 0.060 0.154 0.047 0.252-0.006 0.004-0.001 0.008-0.001 0.011-0.001-0.11 0.957-0.13 1.931-0.159 2.89zM12.19 2.842c0.024-0.099 0.080-0.18 0.154-0.241 0.062-0.101 0.161-0.175 0.285-0.166 0.037 0.002 0.071 0.016 0.104 0.034-0.008 0.049-0.014 0.099-0.030 0.145-0.029 0.077-0.115 0.166-0.060 0.256 0.041 0.068 0.127 0.065 0.14 0.16 0.005 0.039-0.012 0.082-0.018 0.125-0.092 0.010-0.185 0.007-0.282-0.015-0.044-0.010-0.075-0.049-0.091-0.092-0.023-0.001-0.044-0.002-0.066-0.006-0.102-0.018-0.159-0.095-0.135-0.199zM26.708 20.855c-0.875-0.326-1.883-0.34-2.803-0.432-0.469-0.047-0.937-0.095-1.406-0.141 0.016-0.023 0.034-0.045 0.049-0.069 0.875-0.025 1.748-0.082 2.612-0.146 0.071-0.006 0.277-0.195 0.165-0.194-0.766 0.012-1.535-0.087-2.299-0.206-0.906-0.005-1.804-0.321-2.734-0.48-1.106-0.189-2.168-0.042-3.252 0.2-0.627 0.141-1.231 0.265-1.864 0.104-0.242 0.015-0.484 0.035-0.724 0.065 0.001-0.067 0-0.136 0.004-0.204 0.001-0.050 0.018-0.089 0.039-0.121-0.002-0.029-0.005-0.056-0.008-0.084 0.171-0.095 0.32-0.229 0.427-0.414 0.232-0.404-0.040-0.707-0.369-0.941 0.094-0.105 0.184-0.209 0.266-0.31 0.489-0.605 0.459-0.842 0.070-1.362 0.016-0.023 0.030-0.045 0.041-0.068 0.289-0.106 0.594-0.221 0.824-0.426 0.020-0.019 0.329-0.354 0.14-0.372-0.006-0.001-0.014 0-0.020 0 0.018-0.044 0.024-0.086 0.004-0.124-0.002-0.005-0.006-0.008-0.009-0.011 0.325-1.010 0.496-2.094 0.736-3.122 0.217-0.938 0.422-1.873 0.577-2.822 0.261-0.106 0.52-0.207 0.775-0.301 0.039-0.014 0.090-0.052 0.144-0.101 0.227-0.105 0.589-0.369 0.441-0.504 0.006-0.047-0.019-0.080-0.093-0.081-0.706-0.614-1.412-1.227-2.119-1.838-0.551-0.476-1.217-0.922-1.602-1.552 0.195-0.091 0.357-0.212 0.45-0.375-0.209-0.339-0.854-0.512-1.36-0.594 0.004-0.002 0.008-0.005 0.011-0.009 0.147-0.131 0.415-0.501 0.392-0.765 0.015-0.102 0.009-0.201-0.020-0.296 0.024-0.147-0.034-0.291-0.229-0.412-0.044-0.027-0.092-0.047-0.141-0.065-0.061-0.044-0.13-0.085-0.204-0.124-0.27-0.138-0.526-0.221-0.812-0.099-0.215 0.067-0.427 0.237-0.569 0.371-0.076 0.071-0.151 0.164-0.221 0.261 0.011 0.033 0.011 0.070-0.010 0.109-0.068 0.123-0.055 0.299-0.015 0.447 0.002 0.006 0.005 0.014 0.008 0.020-0.036 0.099-0.043 0.205-0.001 0.312-0.002 0.027 0.001 0.054 0.018 0.078 0.020 0.015 0.040 0.031 0.061 0.046 0.014 0.011 0.031 0.014 0.047 0.019 0.024 0.058 0.057 0.11 0.102 0.158-0.011 0-0.023 0-0.034 0-0.021-0.001-0.040-0.008-0.061-0.010-0.305 0.076-0.595 0.203-0.857 0.382-0.006 0.008-0.011 0.015-0.019 0.022-0.056 0.12-0.066 0.26-0.077 0.417 0.065 0.154 0.19 0.255 0.381 0.302 0.12 0.047 0.247 0.077 0.375 0.099-0.033 0.095-0.056 0.191-0.089 0.295-0.185 0.127-0.357 0.329-0.249 0.405 0.018 0.013 0.035 0.023 0.053 0.034-0.034 0.191-0.030 0.441-0.131 0.566-0.061 0.074-0.135 0.224-0.020 0.281 0.046 0.023 0.092 0.044 0.139 0.066-0.011 0.014-0.023 0.027-0.035 0.042-0.115 0.15-0.397 0.487-0.37 0.699 0.011 0.088 0.071 0.166 0.151 0.236-0.090 0.061-0.164 0.147-0.157 0.239 0.002 0.041 0.006 0.082 0.009 0.124 0.002 0.021 0.014 0.038 0.029 0.050-0.034 0.064-0.068 0.131-0.101 0.201-0.122-0.036-0.245-0.070-0.366-0.11-0.174-0.056-0.536 0.234-0.622 0.431-0.56-0.154-1.118-0.265-1.653-0.282 0.92-0.577 1.858-1.298 2.622-2.118-0.009-0.005-0.016-0.009-0.024-0.014-0.141 0.107-0.282 0.214-0.422 0.322-0.027 0.020-0.055 0.027-0.082 0.027-0.374 0.346-0.768 0.667-1.175 0.943-0.374 0.255-0.897 0.691-1.391 0.72-0.001 0-0.002 0.001-0.002 0.001-0.109 0.071-0.194 0.181-0.234 0.276-0.087 0.065-0.151 0.147-0.15 0.227 0 0.020 0.001 0.039 0.010 0.057 0.146 0.3 0.822 0.496 1.43 0.636 0.105 1.059 0.43 2.107 0.67 3.137 0.266 1.14 0.502 2.284 0.732 3.432 0.027 0.135 0.224 0.078 0.401-0.042 0.062 0.050 0.147 0.084 0.229 0.116 0.065 0.026 0.134 0.053 0.204 0.078-0.054 0.086-0.106 0.173-0.149 0.265-0.054 0.221-0.094 0.449-0.044 0.644 0.074 0.279 0.362 0.586 0.572 0.842-0.224 0.184-0.359 0.47-0.234 0.76 0.101 0.234 0.301 0.34 0.525 0.392-0.057 0.78-0.196 1.553-0.205 2.334 0 0.019-0.005 0.035-0.012 0.049 0.018 0.014 0.036 0.026 0.054 0.040 0 0.007 0.002 0.013 0.002 0.019 0.004 0.005 0.007 0.009 0.009 0.014 0.044 0.020 0.086 0.038 0.13 0.056 0.064 0.028 0.137 0.053 0.207 0.081 0.465 0.124 0.913 0.225 1.372 0.24 0.205 0.114 0.527 0.084 0.737 0.090 0.451 0.011 0.952 0.029 1.413-0.027 0.202 0.014 0.399 0.002 0.569-0.055 0.082-0.029 0.226-0.125 0.237-0.224 0.011-0.105-0.055-0.217-0.151-0.32-0.045-0.079-0.12-0.156-0.231-0.229-0.020-0.012-0.043-0.015-0.066-0.012-0.055-0.036-0.107-0.065-0.154-0.089-0.096-0.061-0.224-0.099-0.297-0.121-0.116-0.035-0.232-0.050-0.35-0.052-0.216-0.046-0.43-0.063-0.645 0.014-0.006 0.002-0.053 0.035-0.037 0.047 0.209 0.028 0.43 0.107 0.624 0.193 0 0 0.001 0.001 0.002 0.001 0.015 0.058-0.005 0.114-0.041 0.163-0.039 0.002-0.079 0.006-0.117 0.006-0.096 0.001-0.192-0.003-0.289-0.008-0.121-0.006-0.239-0.010-0.356-0.006 0.004-0.066 0.002-0.135-0.023-0.19 0.004-0.044 0.005-0.089-0.002-0.13 0.007-0.053 0.018-0.104 0.021-0.156 0.004-0.031 0.004-0.065 0.004-0.099 0.002-0.039 0.005-0.079 0.006-0.118 0.043 0.002 0.085 0.008 0.127 0.010 0.012-0.006 0.029-0.010 0.046-0.010 0.251 0 0.501 0.001 0.751 0.001 0.5 0.122 0.958 0.249 1.493 0.205 0.141-0.011 0.919-0.155 1.506-0.152 0.017 0.008 0.036 0.012 0.054 0.020 0.23 0.092 0.307 0.159 0.364 0.229-0.13 0.086-0.394 0.081-0.5 0.087-0.309 0.016-0.612 0.007-0.915 0.016-0.112 0.030-0.26 0.085-0.331 0.171-0.045 0.056-0.046 0.114-0.036 0.176 0.069 0.046 0.14 0.091 0.211 0.132 0.18 0.105 0.366 0.198 0.55 0.296 0.003 0.001 0.003 0.003 0.005 0.005 0.159 0.049 0.316 0.109 0.474 0.164 0.694 0.576 3.148 0.711 3.686 0.663 0.281-0.025 0.515-0.105 0.781-0.209 0.681-0.266 1.262-0.392 1.988-0.427 0.706-0.034 1.227-0.079 1.793-0.517 0.081-0.064 0.512-0.487 0.24-0.59z"></path>
</svg>
