<!-- Generated by IcoMoon.io -->
<svg version="1.1" xmlns="http://www.w3.org/2000/svg" width="32" height="32" viewBox="0 0 32 32">
<title>rome</title>
<path d="M12.343 25.994c-0.046-0.005-0.094-0.014-0.106-0.020-0.034-0.019-0.081-0.072-0.094-0.106-0.007-0.019-0.014-0.272-0.018-0.653-0.004-0.342-0.011-0.876-0.016-1.186-0.011-0.648-0.015-0.683-0.107-0.87-0.042-0.085-0.069-0.122-0.137-0.19-0.149-0.148-0.299-0.205-0.542-0.206-0.123-0-0.157 0.004-0.223 0.026-0.213 0.071-0.373 0.205-0.468 0.392-0.089 0.176-0.098 0.244-0.084 0.68 0.022 0.73 0.044 1.62 0.044 1.8 0 0.183-0 0.187-0.028 0.22-0.016 0.019-0.046 0.045-0.068 0.058-0.040 0.024-0.043 0.025-0.355 0.018-0.355-0.008-0.388-0.014-0.424-0.075-0.023-0.038-0.023-0.058-0.031-1.122-0.004-0.601-0.013-1.127-0.019-1.183-0.028-0.245-0.1-0.415-0.234-0.552-0.145-0.148-0.313-0.211-0.523-0.198-0.074 0.005-0.108 0.013-0.164 0.041-0.139 0.068-0.265 0.245-0.315 0.442-0.023 0.091-0.024 0.387-0.002 1.518 0.018 0.939 0.018 0.934-0 0.969-0.024 0.046-0.073 0.056-0.205 0.043-0.063-0.006-0.167-0.015-0.231-0.018-0.193-0.011-0.28-0.027-0.321-0.057-0.074-0.056-0.073-0.049-0.082-0.579-0.005-0.264-0.009-0.688-0.009-0.943-0.001-0.648-0.017-0.788-0.107-0.969-0.114-0.228-0.313-0.345-0.569-0.334-0.085 0.004-0.11 0.009-0.159 0.036-0.131 0.072-0.238 0.237-0.277 0.43-0.020 0.097-0.019 0.356 0.001 1.161 0.030 1.164 0.031 1.109-0.024 1.145-0.050 0.033-0.352-0.001-0.422-0.047-0.036-0.024-0.059-0.076-0.067-0.156-0.004-0.037-0.017-0.293-0.029-0.569-0.037-0.842-0.076-1.479-0.095-1.552-0.021-0.082-0.073-0.16-0.167-0.25s-0.148-0.115-0.223-0.1c-0.141 0.026-0.304 0.14-0.356 0.248-0.064 0.131-0.076 0.21-0.082 0.549-0.003 0.172 0.001 0.63 0.008 1.019 0.011 0.542 0.011 0.713 0.001 0.738-0.018 0.044-0.057 0.059-0.164 0.065-0.103 0.006-0.186-0.015-0.225-0.056-0.061-0.065-0.059-0.032-0.063-1.072-0.003-0.841-0.006-0.972-0.022-1.044-0.025-0.115-0.067-0.202-0.122-0.255-0.095-0.093-0.205-0.108-0.329-0.045-0.084 0.043-0.122 0.093-0.155 0.205-0.019 0.062-0.020 0.142-0.020 1.111 0 0.853-0.003 1.048-0.015 1.062-0.024 0.029-0.089 0.045-0.164 0.039-0.076-0.006-0.118-0.028-0.138-0.070-0.009-0.020-0.013-0.251-0.014-0.834-0.001-0.443-0.004-0.894-0.008-1.002-0.008-0.227-0.012-0.238-0.14-0.406l-0.074-0.097-0.137 0.283-0.009 0.141c-0.005 0.078-0.009 0.521-0.010 0.986l-0 0.845-0.041 0.045c-0.052 0.057-0.087 0.075-0.162 0.084-0.071 0.008-0.113-0.006-0.14-0.047-0.019-0.029-0.020-0.086-0.020-0.941l-0-0.91-0.152-0.31-0.030 0.039c-0.017 0.021-0.059 0.074-0.094 0.117s-0.075 0.102-0.089 0.133l-0.025 0.055-0.006 0.889c-0.006 0.855-0.007 0.89-0.027 0.912-0.036 0.040-0.092 0.047-0.273 0.036-0.201-0.012-0.24-0.027-0.271-0.098-0.020-0.046-0.021-0.084-0.018-0.972 0.002-0.508 0.002-0.984 0.001-1.058-0.004-0.201-0.045-0.338-0.144-0.477-0.044-0.061-0.065-0.139-0.054-0.202 0.005-0.032 0.025-0.063 0.079-0.121 0.083-0.090 0.139-0.199 0.167-0.321 0.029-0.128 0.034-0.661 0.012-1.264-0.010-0.272-0.021-0.519-0.025-0.549-0.009-0.073-0.034-0.142-0.108-0.296-0.034-0.071-0.076-0.174-0.093-0.229-0.028-0.088-0.032-0.118-0.032-0.245-0-0.13 0.003-0.155 0.031-0.236 0.039-0.113 0.134-0.258 0.247-0.377 0.046-0.049 0.090-0.105 0.096-0.125 0.008-0.025 0.013-0.239 0.014-0.643l0.002-0.606-0.086-0.173c-0.169-0.338-0.217-0.583-0.17-0.853 0.046-0.264 0.176-0.465 0.529-0.82 0.799-0.802 1.745-1.496 2.919-2.143 1.572-0.865 3.283-1.497 5.351-1.974 0.267-0.062 0.792-0.172 1.066-0.225 0.098-0.019 0.214-0.041 0.257-0.050 0.597-0.122 1.067-0.208 1.108-0.203 0.132 0.015 0.322 0.165 0.369 0.291 0.022 0.060 0.024 0.084 0.024 0.426 0 0.361-0 0.363-0.027 0.416-0.044 0.087-0.107 0.256-0.107 0.287 0 0.020 0.024 0.056 0.074 0.115 0.21 0.245 0.368 0.567 0.489 0.998 0.021 0.075 0.074 0.28 0.118 0.454 0.086 0.343 0.204 0.714 0.259 0.817 0.074 0.138 0.175 0.141 0.782 0.019 0.328-0.066 0.472-0.079 0.549-0.049 0.182 0.070 0.329 0.448 0.364 0.935 0.014 0.197 0.005 0.473-0.030 0.878-0.040 0.462-0.001 0.9 0.118 1.34 0.059 0.219 0.116 0.382 0.234 0.668 0.116 0.283 0.16 0.398 0.285 0.742 0.161 0.445 0.218 0.59 0.243 0.617 0.056 0.060 0.018 0.058 0.948 0.058 0.474-0 1.298-0.005 1.831-0.010 0.958-0.010 0.969-0.010 1.007-0.034 0.021-0.013 0.049-0.040 0.061-0.061 0.022-0.036 0.023-0.053 0.024-0.482 0.001-0.605-0.020-0.769-0.126-0.983-0.158-0.319-0.473-0.528-0.795-0.528-0.429 0-0.781 0.293-0.914 0.759-0.049 0.172-0.066 0.335-0.061 0.598l0.004 0.238-0.038 0.040c-0.021 0.022-0.054 0.044-0.073 0.050-0.054 0.016-0.277 0.023-0.434 0.013-0.142-0.009-0.143-0.009-0.182-0.046-0.021-0.021-0.043-0.055-0.049-0.077s-0.016-0.157-0.022-0.302c-0.019-0.397-0.032-0.533-0.058-0.607-0.068-0.193-0.245-0.404-0.401-0.479-0.266-0.128-0.539-0.051-0.761 0.215-0.042 0.050-0.079 0.090-0.084 0.090-0.009 0-0.097-0.197-0.136-0.301-0.060-0.161-0.114-0.421-0.134-0.636-0.015-0.171-0.015-0.58 0.001-1.038l0.013-0.374 0.029-0.032c0.046-0.050 0.080-0.062 0.203-0.069 0.102-0.006 1.569-0.047 2.377-0.068 0.188-0.005 0.307-0.012 0.323-0.020 0.040-0.020 0.052-0.058 0.064-0.208 0.009-0.106 0.021-0.171 0.052-0.273 0.023-0.074 0.058-0.195 0.079-0.269 0.061-0.221 0.082-0.256 0.163-0.276 0.045-0.011 1.36 0.013 1.767 0.032 1.956 0.091 3.407 0.277 4.983 0.638 0.718 0.164 1.232 0.346 1.845 0.653 0.446 0.223 0.828 0.451 1.313 0.784 0.161 0.11 0.221 0.16 0.34 0.28 0.103 0.103 0.163 0.174 0.205 0.242 0.179 0.291 0.229 0.552 0.186 0.979-0.029 0.285-0.020 0.461 0.032 0.66 0.022 0.084 0.045 0.195 0.050 0.245 0.007 0.060 0.005 0.364-0.005 0.863-0.008 0.424-0.017 1.001-0.018 1.283-0.004 0.576-0.010 0.518 0.084 0.723 0.036 0.079 0.040 0.096 0.040 0.184 0 0.074-0.008 0.126-0.034 0.22-0.047 0.168-0.054 0.35-0.055 1.398-0.001 0.963 0.009 0.876-0.111 0.987-0.102 0.094-0.222 0.145-0.297 0.127-0.062-0.015-0.064-0.034-0.074-0.687-0.013-0.822-0.026-1.189-0.046-1.245-0.009-0.025-0.045-0.099-0.080-0.165l-0.064-0.12-0.067 0.139c-0.051 0.106-0.069 0.157-0.076 0.215-0.012 0.095-0.034 1.152-0.033 1.554 0.001 0.237-0.002 0.307-0.015 0.337-0.034 0.080-0.090 0.105-0.283 0.123-0.179 0.017-0.204 0.009-0.223-0.069-0.008-0.032-0.017-0.321-0.026-0.775-0.022-1.235-0.025-1.275-0.112-1.461-0.074-0.16-0.172-0.211-0.275-0.144-0.048 0.031-0.092 0.141-0.149 0.367-0.048 0.192-0.049 0.206-0.056 1.144-0.008 1.002-0.003 0.937-0.077 1.008-0.032 0.030-0.044 0.033-0.221 0.053-0.103 0.012-0.219 0.021-0.257 0.021-0.103 0-0.104-0.002-0.104-0.262-0-0.117-0.005-0.378-0.011-0.581s-0.014-0.481-0.018-0.619c-0.020-0.712-0.024-0.797-0.041-0.837-0.023-0.053-0.21-0.25-0.271-0.285-0.065-0.038-0.106-0.038-0.163 0.002-0.095 0.066-0.177 0.189-0.221 0.333-0.060 0.194-0.060 0.208-0.067 1.25-0.006 0.897-0.008 0.974-0.026 1.007-0.026 0.048-0.075 0.061-0.173 0.047-0.041-0.006-0.096-0.010-0.121-0.008-0.039 0.002-0.051-0.003-0.075-0.030-0.062-0.071-0.061-0.049-0.074-1.043-0.014-1.045-0.022-1.226-0.054-1.319-0.037-0.105-0.113-0.241-0.17-0.304-0.112-0.123-0.274-0.156-0.417-0.085-0.115 0.056-0.189 0.169-0.268 0.407-0.078 0.232-0.076 0.202-0.077 1.33-0.001 1.084 0.001 1.042-0.055 1.077-0.028 0.018-0.261 0.037-0.385 0.032-0.073-0.003-0.096-0.008-0.107-0.024s-0.016-0.164-0.021-0.675c-0.004-0.36-0.012-0.877-0.018-1.148-0.013-0.56-0.017-0.589-0.106-0.768-0.069-0.139-0.131-0.207-0.237-0.259-0.082-0.040-0.090-0.042-0.198-0.042-0.104 0-0.118 0.003-0.186 0.036-0.118 0.058-0.183 0.144-0.271 0.36-0.070 0.17-0.085 0.26-0.097 0.591-0.006 0.17-0.008 0.546-0.005 0.843 0.011 0.89 0.010 1.024-0.004 1.055-0.027 0.057-0.039 0.059-0.397 0.070-0.491 0.015-0.475 0.016-0.516-0.046-0.018-0.028-0.020-0.103-0.027-1.018-0.008-1.019-0.016-1.282-0.048-1.407-0.051-0.201-0.177-0.364-0.345-0.447-0.16-0.079-0.407-0.111-0.557-0.072-0.255 0.066-0.472 0.311-0.544 0.613-0.023 0.099-0.024 0.112-0.021 1.218 0.003 1.047 0.002 1.12-0.016 1.148-0.011 0.016-0.030 0.034-0.044 0.039-0.039 0.014-0.598 0.025-0.623 0.012-0.051-0.028-0.055-0.054-0.055-0.442-0-0.201-0.005-0.665-0.011-1.031-0.011-0.695-0.019-0.815-0.068-0.992-0.083-0.304-0.293-0.502-0.601-0.565-0.12-0.025-0.37-0.016-0.471 0.017-0.199 0.065-0.406 0.269-0.493 0.484-0.065 0.162-0.064 0.144-0.064 1.34v1.098l-0.026 0.035c-0.054 0.074-0.077 0.084-0.218 0.095-0.071 0.006-0.231 0.007-0.355 0.004-0.248-0.007-0.265-0.011-0.324-0.078-0.029-0.034-0.035-0.050-0.040-0.12-0.003-0.045-0.011-0.576-0.018-1.181-0.012-1.211-0.014-1.238-0.083-1.442-0.098-0.287-0.294-0.464-0.59-0.529-0.097-0.022-0.378-0.025-0.492-0.005-0.263 0.045-0.484 0.222-0.602 0.483-0.083 0.184-0.078 0.080-0.075 1.494l0.003 1.267-0.034 0.047c-0.019 0.026-0.050 0.055-0.068 0.065-0.044 0.023-0.298 0.038-0.64 0.039-0.285 0-0.308-0.004-0.361-0.074-0.037-0.048-0.033 0.020-0.054-1.136-0.018-1.024-0.029-1.291-0.056-1.433-0.087-0.457-0.421-0.694-0.955-0.68-0.138 0.004-0.172 0.008-0.24 0.033-0.222 0.080-0.435 0.306-0.526 0.56-0.069 0.191-0.069 0.186-0.069 1.442 0 0.639-0.004 1.153-0.010 1.167-0.013 0.034-0.077 0.097-0.113 0.111-0.034 0.014-0.521 0.022-0.636 0.010zM29.808 22.214c0.015-0.010 0.041-0.031 0.058-0.047l0.031-0.028v-0.36c0-0.198 0.004-0.361 0.010-0.363 0.013-0.005-0.016-0.662-0.038-0.874-0.021-0.195-0.029-0.216-0.144-0.362l-0.077-0.098-0.083 0.101c-0.095 0.117-0.121 0.162-0.13 0.231-0.025 0.183-0.062 1.476-0.046 1.593 0.009 0.067 0.042 0.122 0.090 0.149 0.027 0.016 0.246 0.073 0.29 0.076 0.006 0 0.024-0.008 0.039-0.018zM28.966 21.981c0.031-0.048 0.039-1.181 0.010-1.545-0.023-0.295-0.032-0.372-0.052-0.451-0.048-0.193-0.138-0.29-0.282-0.305-0.128-0.013-0.245 0.054-0.306 0.176-0.071 0.142-0.081 0.27-0.088 1.139-0.005 0.652-0.004 0.739 0.012 0.794 0.036 0.123 0.1 0.164 0.332 0.215 0.076 0.016 0.163 0.036 0.194 0.044 0.052 0.013 0.059 0.012 0.11-0.015 0.030-0.016 0.061-0.040 0.070-0.052zM27.814 21.831l0.040-0.045-0-0.734c-0-1.083-0.018-1.274-0.132-1.449-0.086-0.131-0.175-0.189-0.292-0.189-0.092 0-0.141 0.024-0.225 0.106-0.075 0.075-0.134 0.185-0.168 0.315-0.022 0.086-0.024 0.124-0.029 0.583-0.002 0.27-0.007 0.564-0.010 0.653s-0.002 0.274 0.002 0.412l0.008 0.25 0.041 0.044c0.040 0.043 0.043 0.044 0.163 0.060 0.195 0.026 0.303 0.035 0.436 0.036l0.124 0.001 0.040-0.045zM2.429 21.803c0.134-0.049 0.191-0.079 0.207-0.109 0.029-0.054-0.019-1.382-0.052-1.438-0.006-0.010-0.041-0.051-0.079-0.092l-0.069-0.074-0.053 0.059c-0.101 0.112-0.101 0.113-0.128 0.36-0.029 0.274-0.054 0.642-0.043 0.642 0.004 0 0.010 0.129 0.012 0.287 0.003 0.241 0.007 0.298 0.025 0.356 0.020 0.067 0.022 0.069 0.050 0.058 0.016-0.006 0.075-0.028 0.131-0.048zM26.603 21.753c0.030-0.030 0.034-0.042 0.041-0.137 0.012-0.166-0.001-1.672-0.016-1.794-0.024-0.193-0.077-0.322-0.177-0.426-0.155-0.163-0.357-0.17-0.514-0.019-0.114 0.11-0.173 0.252-0.193 0.469-0.008 0.088-0.011 0.281-0.007 0.531 0.003 0.216 0.001 0.394-0.003 0.396s-0.010 0.207-0.011 0.457c-0.003 0.499-0.004 0.493 0.065 0.521 0.033 0.013 0.358 0.031 0.625 0.034l0.158 0.002zM25.239 21.709c0.028-0.017 0.036-0.031 0.042-0.074 0.010-0.076 0.008-1.681-0.003-1.846-0.015-0.224-0.077-0.375-0.21-0.507-0.079-0.079-0.178-0.129-0.267-0.137-0.163-0.014-0.345 0.117-0.435 0.313-0.082 0.18-0.097 0.393-0.092 1.379l0.004 0.709 0.026 0.053c0.045 0.091 0.107 0.109 0.415 0.119 0.435 0.015 0.482 0.014 0.52-0.010zM23.743 21.663c0.077-0.047 0.073-0.019 0.087-0.673 0.022-1.026 0.018-1.107-0.066-1.385-0.087-0.289-0.198-0.483-0.32-0.56-0.059-0.037-0.166-0.063-0.224-0.053-0.181 0.030-0.297 0.142-0.426 0.408-0.084 0.174-0.095 0.228-0.107 0.501-0.011 0.268-0.012 0.957-0.001 1.405l0.007 0.295 0.043 0.035c0.042 0.034 0.045 0.035 0.195 0.041 0.084 0.003 0.292 0.007 0.464 0.008 0.295 0.002 0.313 0.001 0.348-0.020zM3.175 21.589c0.147-0.038 0.248-0.084 0.264-0.119 0.014-0.032-0.005-1.314-0.024-1.554-0.014-0.174-0.024-0.197-0.15-0.339l-0.089-0.1-0.034 0.042c-0.019 0.023-0.060 0.073-0.093 0.111s-0.066 0.083-0.075 0.1c-0.024 0.046-0.048 0.217-0.061 0.431-0.035 0.574-0.037 0.633-0.024 0.645 0.009 0.009 0.012 0.119 0.012 0.353 0 0.188 0.005 0.358 0.011 0.379 0.026 0.089 0.075 0.099 0.262 0.050zM3.983 21.395c0.335-0.065 0.518-0.112 0.55-0.14 0.057-0.051 0.057-0.055 0.068-0.584 0.016-0.802 0.008-0.919-0.087-1.204-0.113-0.34-0.26-0.464-0.446-0.377-0.094 0.044-0.19 0.174-0.261 0.354-0.062 0.158-0.062 0.157-0.063 1.074l-0 0.846 0.031 0.027c0.038 0.033 0.056 0.033 0.207 0.004zM5.502 21.127c0.399-0.048 0.432-0.056 0.485-0.126 0.023-0.030 0.023-0.040 0.022-0.797-0.001-0.646-0.004-0.791-0.020-0.923-0.010-0.086-0.024-0.176-0.031-0.201-0.036-0.133-0.153-0.283-0.265-0.338-0.051-0.025-0.077-0.031-0.146-0.030-0.104 0-0.169 0.031-0.252 0.119-0.073 0.077-0.118 0.158-0.162 0.289-0.033 0.099-0.036 0.121-0.045 0.329-0.005 0.123-0.006 0.542-0.002 0.932l0.007 0.708 0.037 0.037c0.043 0.043 0.028 0.043 0.373 0.001zM6.903 20.971c0.168-0.014 0.533-0.053 0.581-0.062 0.020-0.004 0.050-0.021 0.066-0.038l0.030-0.032 0.006-0.584c0.006-0.627-0.010-1.249-0.037-1.39-0.034-0.18-0.165-0.361-0.313-0.434-0.058-0.028-0.079-0.033-0.161-0.033s-0.103 0.004-0.159 0.032c-0.125 0.063-0.241 0.213-0.293 0.377-0.041 0.131-0.052 0.293-0.049 0.762 0.001 0.233-0.002 0.433-0.006 0.444s-0.006 0.215-0.004 0.452c0.005 0.395 0.007 0.434 0.025 0.463 0.029 0.045 0.070 0.063 0.129 0.057 0.028-0.003 0.11-0.010 0.184-0.016zM8.811 20.793c0.276-0.020 0.588-0.048 0.705-0.062 0.035-0.005 0.055-0.015 0.081-0.045 0.033-0.038 0.034-0.043 0.035-0.147 0-0.060 0.005-0.377 0.010-0.705s0.006-0.713 0.001-0.854c-0.008-0.228-0.012-0.268-0.038-0.355-0.071-0.241-0.204-0.417-0.382-0.505-0.084-0.042-0.091-0.044-0.199-0.044s-0.116 0.002-0.197 0.042c-0.123 0.061-0.233 0.18-0.309 0.335-0.109 0.221-0.102 0.141-0.102 1.286v1.003l0.036 0.037c0.020 0.020 0.041 0.037 0.047 0.037s0.148-0.010 0.313-0.022zM10.982 20.631c0.114-0.009 0.327-0.024 0.474-0.034 0.448-0.029 0.581-0.045 0.62-0.072 0.042-0.030 0.063-0.069 0.071-0.134 0.004-0.028 0.012-0.306 0.019-0.619 0.023-1.049-0.003-1.284-0.176-1.635-0.066-0.134-0.084-0.161-0.165-0.242-0.105-0.106-0.19-0.153-0.321-0.176-0.255-0.044-0.498 0.089-0.666 0.366-0.115 0.191-0.15 0.304-0.168 0.545-0.012 0.166-0.006 1.923 0.007 1.966 0.006 0.019 0.061 0.051 0.088 0.051 0.006 0 0.104-0.007 0.218-0.016zM14.023 20.469c0.135-0.006 0.371-0.016 0.525-0.023 0.263-0.012 0.281-0.014 0.319-0.038 0.081-0.053 0.085-0.067 0.098-0.385 0.032-0.797 0.025-1.315-0.021-1.57-0.057-0.316-0.2-0.621-0.364-0.78-0.126-0.122-0.28-0.185-0.451-0.185-0.143 0-0.258 0.038-0.389 0.127-0.148 0.101-0.327 0.358-0.397 0.57-0.036 0.109-0.043 0.26-0.045 0.968-0.001 0.384-0.006 0.704-0.010 0.711s-0.005 0.13-0 0.272l0.008 0.258 0.077 0.085 0.202-0c0.111 0 0.313-0.005 0.448-0.011zM29.107 19.312c0.029-0.026 0.042-0.085 0.050-0.226 0.004-0.071 0.010-0.131 0.014-0.134 0.011-0.009-0.008-0.316-0.028-0.435-0.009-0.058-0.027-0.126-0.039-0.151-0.020-0.042-0.206-0.239-0.215-0.228-0.002 0.003-0.041 0.048-0.085 0.1s-0.091 0.113-0.102 0.136c-0.034 0.067-0.047 0.241-0.040 0.528 0.006 0.224 0.009 0.26 0.027 0.285 0.025 0.034 0.096 0.070 0.237 0.12 0.11 0.038 0.144 0.040 0.181 0.006zM29.843 18.523c0.006-0.074 0.008-0.175 0.004-0.225-0.009-0.125-0.040-0.182-0.15-0.282l-0.089-0.081-0.011 0.042c-0.026 0.096-0.033 0.164-0.039 0.355-0.004 0.12-0.002 0.217 0.005 0.24 0.013 0.046 0.057 0.091 0.151 0.154l0.067 0.045 0.026-0.056c0.020-0.043 0.029-0.088 0.037-0.192zM2.626 18.55c0.112-0.072 0.182-0.142 0.219-0.222 0.033-0.070 0.035-0.108 0.019-0.351-0.005-0.075-0.004-0.125 0.003-0.134 0.015-0.019-0.020-0.558-0.043-0.668-0.012-0.055-0.083-0.174-0.151-0.253l-0.031-0.036-0.057 0.071c-0.032 0.039-0.072 0.093-0.089 0.119l-0.032 0.048 0.002 0.704c0.001 0.387 0.005 0.714 0.008 0.727 0.005 0.019 0.038 0.045 0.062 0.049 0.003 0 0.044-0.024 0.092-0.055zM25.131 18.458c0.061-0.031 0.069-0.059 0.096-0.312 0.006-0.055 0.010-0.064 0.030-0.064 0.016 0 0.021-0.005 0.016-0.017-0.004-0.009-0.014-0.061-0.024-0.114-0.084-0.464-0.139-0.617-0.251-0.706-0.116-0.092-0.245-0.109-0.368-0.048-0.146 0.072-0.254 0.2-0.309 0.364-0.027 0.083-0.030 0.107-0.031 0.27-0 0.098 0.006 0.252 0.015 0.343 0.018 0.186 0.006 0.169 0.14 0.204 0.317 0.081 0.616 0.117 0.685 0.081zM3.412 18.010c0.226-0.125 0.268-0.151 0.303-0.189l0.026-0.029-0.002-0.411c-0.002-0.439-0.017-0.977-0.034-1.157-0.008-0.091-0.015-0.118-0.041-0.156-0.037-0.056-0.186-0.229-0.195-0.227-0.011 0.003-0.137 0.154-0.174 0.209-0.062 0.091-0.072 0.163-0.098 0.675-0.014 0.28-0.015 0.416-0.006 0.709 0.012 0.376 0.024 0.68 0.028 0.68 0.001 0 0.088-0.047 0.192-0.105zM28.231 17.861c0.017-0.026 0.020-0.064 0.024-0.265 0.008-0.436 0.009-0.431-0.019-0.483-0.035-0.067-0.086-0.121-0.158-0.17-0.106-0.072-0.133-0.082-0.169-0.068-0.074 0.031-0.072 0.018-0.069 0.433 0.003 0.335 0.005 0.38 0.023 0.42 0.032 0.070 0.077 0.105 0.176 0.135 0.122 0.036 0.165 0.036 0.191-0.003zM4.418 17.483c0.363-0.162 0.45-0.206 0.476-0.243 0.022-0.031 0.023-0.045 0.023-0.764-0-0.722-0-0.734-0.025-0.832-0.069-0.273-0.258-0.465-0.43-0.437-0.125 0.020-0.225 0.105-0.296 0.253-0.091 0.19-0.099 0.285-0.101 1.306l-0.001 0.766 0.039 0.035c0.022 0.019 0.042 0.035 0.045 0.035s0.125-0.053 0.27-0.118zM26.34 17.413l0.036-0.033v-0.495c0-0.398-0.003-0.502-0.016-0.532-0.012-0.028-0.033-0.045-0.084-0.071-0.175-0.088-0.288-0.109-0.346-0.064-0.049 0.038-0.064 0.091-0.076 0.272-0.013 0.188-0.004 0.693 0.014 0.755 0.025 0.089 0.091 0.132 0.267 0.173 0.142 0.033 0.16 0.032 0.203-0.006zM23.267 16.989c0.075-0.008 0.085-0.012 0.118-0.047 0.034-0.038 0.036-0.044 0.042-0.156 0.010-0.185-0.008-0.824-0.025-0.87-0.020-0.056-0.074-0.108-0.119-0.117-0.021-0.004-0.107-0.007-0.191-0.007l-0.152 0.001-0.101 0.101v0.466c0 0.483 0.004 0.529 0.048 0.582 0.042 0.052 0.172 0.068 0.381 0.047zM5.81 16.92c0.258-0.025 0.41-0.078 0.467-0.164 0.015-0.023 0.036-0.074 0.047-0.114 0.018-0.066 0.020-0.136 0.020-0.831-0-0.857-0.001-0.861-0.084-1.030-0.087-0.176-0.23-0.286-0.373-0.286-0.18-0.001-0.362 0.187-0.424 0.437-0.025 0.1-0.033 0.393-0.033 1.192 0 0.658 0.001 0.705 0.020 0.74 0.038 0.069 0.113 0.081 0.36 0.057zM7.188 16.485c0.294-0.090 0.593-0.19 0.636-0.212 0.072-0.037 0.069 0.007 0.064-0.894-0.006-0.918-0.005-0.91-0.087-1.078-0.098-0.201-0.28-0.329-0.444-0.312-0.148 0.015-0.298 0.138-0.38 0.312-0.048 0.1-0.064 0.158-0.080 0.28-0.006 0.044-0.013 0.487-0.017 0.985l-0.007 0.904 0.035 0.035c0.022 0.023 0.047 0.035 0.066 0.035 0.017 0 0.113-0.025 0.214-0.056zM8.884 15.972c0.229-0.056 0.416-0.103 0.686-0.174 0.118-0.031 0.151-0.044 0.179-0.072l0.034-0.034 0.012-0.393c0.014-0.476 0.011-0.964-0.006-1.085-0.031-0.213-0.142-0.434-0.275-0.552-0.029-0.025-0.089-0.065-0.135-0.087-0.263-0.13-0.552 0.007-0.712 0.337-0.095 0.197-0.092 0.167-0.097 1.032-0.002 0.42-0.002 0.824 0.002 0.897 0.006 0.13 0.007 0.133 0.040 0.159 0.018 0.015 0.036 0.027 0.039 0.027s0.109-0.025 0.234-0.056zM11.052 15.554c0.893-0.109 1.103-0.138 1.132-0.157 0.062-0.040 0.060-0.001 0.062-0.882 0.002-0.988-0.004-1.071-0.098-1.274-0.114-0.247-0.335-0.431-0.556-0.463-0.382-0.055-0.741 0.256-0.798 0.693-0.032 0.245-0.037 0.419-0.023 0.842 0.011 0.319 0.011 0.425 0.001 0.435s-0.013 0.114-0.013 0.369v0.356l0.049 0.049c0.056 0.056 0.052 0.056 0.245 0.032zM2.306 15.434c-0.003-0.020-0.008-0.164-0.011-0.321-0.011-0.552-0.066-0.931-0.198-1.372-0.026-0.088-0.042-0.16-0.038-0.176 0.008-0.033 0.054-0.056 0.128-0.066 0.099-0.013 0.121-0.046 0.141-0.214 0.006-0.053 0.014-0.066 0.079-0.134 0.042-0.044 0.087-0.105 0.108-0.147 0.034-0.069 0.036-0.079 0.036-0.206 0-0.094 0.005-0.143 0.017-0.164 0.039-0.072 0.642-0.7 1.003-1.045 1.248-1.191 2.559-2.155 4.074-2.997 0.29-0.161 1.058-0.55 1.356-0.686 0.288-0.132 0.75-0.329 1.032-0.441 0.521-0.207 1.049-0.396 1.103-0.396 0.046 0 0.116 0.037 0.151 0.079 0.017 0.021 0.046 0.068 0.063 0.105 0.050 0.105 0.319 0.792 0.72 1.836 0.287 0.748 0.374 0.962 0.4 0.991 0.041 0.045 0.089 0.056 0.235 0.057 0.107 0 0.188 0.019 0.273 0.062 0.184 0.093 0.351 0.299 0.424 0.522 0.023 0.070 0.024 0.083 0.012 0.173-0.007 0.053-0.015 0.104-0.018 0.112-0.003 0.010-0.026-0.004-0.067-0.041-0.034-0.031-0.093-0.072-0.13-0.092-0.060-0.032-0.074-0.035-0.127-0.029-0.088 0.010-1.23 0.23-1.639 0.315-1.657 0.345-2.675 0.627-3.85 1.068-1.624 0.61-2.931 1.307-4.027 2.149-0.335 0.257-0.552 0.448-0.939 0.827-0.181 0.177-0.281 0.268-0.296 0.268-0.005 0-0.012-0.016-0.015-0.036zM2.948 14.035c0.102-0.075 0.187-0.192 0.228-0.312 0.031-0.094 0.036-0.197 0.028-0.579-0.008-0.338-0.010-0.368-0.029-0.388-0.021-0.021-0.023-0.019-0.121 0.092-0.055 0.062-0.116 0.138-0.136 0.169-0.060 0.094-0.065 0.139-0.064 0.578 0.001 0.393 0.006 0.48 0.029 0.48 0.007 0 0.036-0.018 0.066-0.040zM4.437 12.668c0.156-0.108 0.266-0.234 0.31-0.355 0.026-0.071 0.026-0.072 0.012-0.554-0.007-0.257-0.013-0.329-0.026-0.349-0.009-0.014-0.022-0.023-0.029-0.020s-0.057 0.039-0.112 0.080c-0.254 0.194-0.276 0.222-0.306 0.392-0.025 0.138-0.028 0.348-0.009 0.643 0.016 0.251 0.023 0.258 0.161 0.163zM7.162 11.011c0.029-0.010 0.12-0.050 0.2-0.089 0.112-0.055 0.155-0.081 0.179-0.113l0.031-0.041 0.004-0.463c0.002-0.255 0.001-0.474-0.003-0.487s-0.023-0.033-0.043-0.044l-0.037-0.019-0.152 0.061c-0.303 0.122-0.339 0.165-0.358 0.443-0.013 0.184-0.004 0.62 0.014 0.684 0.024 0.084 0.064 0.101 0.164 0.068zM2.319 12.211c-0.017-0.044-0.016-0.051 0.020-0.209 0.021-0.090 0.041-0.179 0.045-0.197 0.039-0.17 0.108-0.345 0.239-0.608 0.45-0.899 1.131-1.663 2.2-2.466 1.476-1.109 3.099-1.954 5.045-2.627 0.334-0.115 0.343-0.117 0.393-0.087 0.054 0.034 0.225 0.214 0.31 0.328 0.083 0.111 0.172 0.273 0.183 0.332 0.007 0.038 0.004 0.043-0.052 0.093-0.054 0.048-0.088 0.064-0.372 0.173-2.348 0.9-4.392 2.079-6.11 3.526-0.576 0.485-0.94 0.833-1.493 1.426-0.257 0.276-0.347 0.361-0.38 0.361-0.005 0-0.017-0.020-0.027-0.045z"></path>
</svg>
