<!-- Generated by IcoMoon.io -->
<svg version="1.1" xmlns="http://www.w3.org/2000/svg" width="32" height="32" viewBox="0 0 32 32">
<title>roulette</title>
<path d="M29.045 10.669c0.213 3.319-1.299 6.495-3.143 9.17-2.337 3.251-5.417 6.018-9.028 7.778-2.457 1.103-5.356 1.915-7.99 0.962-1.578-0.577-2.541-2.026-3.742-3.109-0.818-0.695-1.481-1.519-1.817-2.556-0.223-0.812-0.264-1.075-0.282-1.695-0.077-0.34-0.028-1.070 0.035-1.612 0.326-3.222 1.982-6.111 3.941-8.656 2.016-2.453 4.412-4.636 7.213-6.122 2.092-1.13 4.431-1.948 6.839-1.83 1.564-0.013 3.105 0.602 4.139 1.795 0.978 1.043 2.11 1.954 2.949 3.114 0.55 0.766 0.903 2.064 0.886 2.762zM21.128 20.099c0.846-0.606 0.707-1.135-0.112-1.682-0.704-0.844-1.343 1.114-2.107 1.454-0.71 0.477-1.098 0.899-0.198 1.419 0.576 1.195 1.313-0.28 1.89-0.698 0.206-0.133 0.337-0.344 0.528-0.493zM26.301 7.995c-0.751 0.551-2.307 0.721-2.437 1.583 0.352 0.839-0.635 2.905 0.801 1.79 0.986-0.422 2.065-0.815 1.741-2.107-0.004-0.416 0.027-0.913-0.105-1.267zM17.891 19.853c0.544-0.366 1.227-0.82 1.513-1.407-0.24-0.738-0.891 0.060-1.192 0.383-0.294 0.411-1.353 0.799-0.778 1.341 0.278 0.139 0.262-0.184 0.457-0.317zM10.784 25.94c0.271-0.786 1.261-2.041 1.128-2.5-1.002 0.438-2.566-0.603-2.835 0.847-0.725 1.070-1.098 2.102 0.598 1.757 0.372-0.007 0.739-0.071 1.108-0.103zM6.456 17.847c-0.773 0.646-2.37 0.695-2.551 1.742-0.057 0.918-0.341 2.779 0.968 1.619 0.94-0.413 1.94-0.728 1.445-1.922 0.024-0.479 0.063-0.965 0.139-1.438zM19.721 3.351c-0.295 0.776-1.197 2.020-1.108 2.5 0.781-0.13 1.597-0.175 2.375-0.002 0.288-0.808 1.187-1.918 1.108-2.529-0.791-0.108-1.586-0.087-2.375 0.031zM23.415 11.197c-0.591-1.166-0.921 0.915-1.029 1.407-0.578 1.091 0.899 1.008 0.748-0.070 0.118-0.501 0.526-1.917-0.101-0.809-0.419 0.578 0.335-0.463 0.383-0.528zM12.895 22.21c-0.205-0.615-0.995-0.013-1.478-0.141-0.544-0.198-1.729 0.377-0.736 0.704 0.71 0.029 1.419-0.026 2.108-0.176 0.633-0.717-1.782-0.335-0.341-0.41l0.446 0.023zM8.954 22.738c-0.148-0.657-0.961-1.429-1.408-1.935-0.736-0.008-0.127 1.324 0.397 1.267 0.426-0.149 0.8 0.279 1.151 0.035 0.121-0.292-0.173 0.644-0.141 0.633zM6.949 18.903c-0.587 0.956 0.926 1.244 0.633 0.211 0.056-0.493 0.756-2.311-0.282-1.759-0.177 0.503-0.321 1.017-0.352 1.548zM17.399 8.382c0.882-0.217 1.809-0.34 2.709-0.176 0.775-0.291-0.050-1.024-0.608-0.739-0.805 0.006-1.634-0.082-2.383 0.281-0.365 0.383 0.133 0.633 0.281 0.633zM14.056 22.105c-0.653 0.926 0.772 0.661 1.161 0.281 0.375-0.17 1.492-0.451 0.915-1.020-0.566-0.196-1.876 1.318-2.076 0.739zM22.888 8.453c0.051-0.366-0.735 0.078-0.88-0.282-0.847-0.323-0.521 0.831 0 1.064 0.249 0.352 0.374 1.531 1.002 0.96 0.098-0.542-0.123-1.176-0.123-1.742zM13.282 7.89c-0.37 1.345 1.336-0.093 1.838-0.317 0.969-0.356-0.043-1.158-0.528-0.501-0.467 0.137-1.111 0.326-1.311 0.818zM11.945 9.614c-0.558-0.425-0.795 0.601-1.302 0.563-0.365 0.184-0.877 0.94-0.141 0.985 0.446-0.637 1.712-1.161 1.619-1.97l-0.097 0.211-0.079 0.211zM9.658 13.695c-0.071-1.346-1.23 0.4-1.407 0.88-0.941 0.786 0.74 1.366 0.493 0.141 0.257-0.58 0.286-2.496 0.915-1.020zM20.601 16.933c0.432-0.073 0.596-0.679 0.88-0.809 0.549-0.318 0.325-1.534-0.281-0.915-0.199 0.738-1.508 1.486-0.915 2.182 0.257 0.076 0.169-0.372 0.317-0.457zM10.749 8.101c-0.784 0.837-2.149 1.776-2.446 2.679 0.787 0.586 1.533 1.081 2.076-0.038 0.618-0.923 2.671-1.667 0.974-2.577-0.288-0.242-0.386-0.61-0.605-0.064zM10.326 28.72c0.743 0.027 2.227 0.218 2.481-0.185-0.907-0.6-1.446-2.212-2.714-1.559-0.558 0.133-2.061-0.163-0.919 0.57 0.37 0.375 0.887 0.836 1.152 1.174zM22.993 22.949c0.482-0.643 1.809-1.325 0.694-1.945-0.466-0.466-0.932-0.932-1.398-1.398-0.6 1.064-2.333 1.929-2.497 2.843 0.898 0.66 1.726 2.6 2.673 1.007 0.179-0.166 0.355-0.335 0.528-0.508zM26.793 11.162c0.64 0.603 1.234 1.252 1.865 1.865 0.108-0.873 0.359-1.947-0.051-2.725-0.511-0.511-1.022-1.022-1.533-1.533 0.019 0.803-0.093 1.614-0.281 2.393z"></path>
</svg>
