<!-- Generated by IcoMoon.io -->
<svg version="1.1" xmlns="http://www.w3.org/2000/svg" width="32" height="32" viewBox="0 0 32 32">
<title>rtnotz</title>
<path d="M14.042 12.923c-2.871 0.403-3.542 3.253 0.668 3.085 0.361-0.018 0.199-0.121-0.007-0.155-0.313 0.052-0.117-0.082-0.272-0.148-0.382-0.158-0.846-0.475-0.974-0.692-0.43-0.737 0.255-1.549 0.585-2.090l-0 0zM29.276 16.007l-0.002-0c0.021-0.084 0.098 0.325 0.11 0.547-0.005 0.595-0.105 0.123-0.127 0.53l0.031 0.305 0.005 0.23-0.031 0.004c-0.026 0.082 0.005 0.133 0.009 0.155-0.043-0.039-0.046 0.426-0.068 0.639l0.045-0.073c0.006 0.084 0.008 0.163 0.006 0.238-0.002 0.081-0.007 0.127-0.019 0.241-0.015 0.027-0.031 0.056-0.045 0.082l-0.033 0.055c-0.023 0.034-0.045 0.068-0.067 0.103-0.045 0.067-0.090 0.131-0.134 0.195-0.087 0.129-0.167 0.26-0.227 0.42l-0.088 0.326-0.083 0.037c-0.007 0.022-0.007 0.030-0.008 0.042 0.004 0.133 0.021 0.214-0.059 0.481-0.093 0.287-0.167 0.563-0.243 0.879-0.104 0.23-0.192 0.429-0.285 0.649l-0.285 0.664-0.226 0.22-0.21 0.202c-0.142 0.132-0.283 0.261-0.428 0.385 0.017-0.001 0.046-0.022 0.101-0.064-0.055 0.039-0.108 0.078-0.157 0.117-0.044 0.037-0.088 0.073-0.13 0.106-0.020 0.035-0.054 0.107-0.077 0.164-0.028 0.059-0.051 0.116-0.075 0.173-0.045 0.115-0.083 0.227-0.12 0.337-0.035 0.111-0.071 0.22-0.106 0.33l-0.055 0.164c-0.022 0.060-0.031 0.092-0.072 0.192-0.040 0.045-0.081 0.092-0.122 0.137-0.037 0.038-0.072 0.076-0.109 0.114-0.075 0.076-0.156 0.151-0.247 0.225l0.026-0.059c-0.304 0.34 0.028-0.061-0.225 0.157 0.005 0.070-0.166 0.261-0.34 0.457-0.088 0.082-0.154 0.144-0.211 0.205 0.022-0.039 0.092-0.096 0.142-0.155-0.048 0.021-0.090 0.001-0.181 0.098-0.064 0.111-0.184 0.245-0.325 0.388-0.073 0.071-0.149 0.144-0.226 0.219-0.082 0.077-0.164 0.153-0.243 0.227-0.075 0.055-0.144 0.108-0.211 0.157-0.072-0.008-0.429 0.181-0.644 0.232-0.030 0.040-0.082 0.12-0.127 0.192-0.051 0.022-0.097 0.048-0.136 0.073-0.040 0.028-0.071 0.052-0.125 0.096-0.066 0.025-0.1 0.044-0.134 0.064l0.143-0.042 0.232-0.159c-0.002 0.005-0.005 0.008-0.006 0.010 0.011-0.011 0.032-0.026 0.051-0.040 0.082-0.059 0.125-0.090 0.101-0.078 0.181-0.067 0.010 0.037 0.051 0.075-0.049 0.033-0.117 0.081-0.184 0.126-0.034 0.023-0.068 0.045-0.098 0.065-0.044 0.027-0.084 0.051-0.116 0.071-0.057 0.012-0.098 0.015-0.103 0.008-0.088 0.023-0.148 0.034-0.239 0.053-0.054 0.023-0.112 0.044-0.178 0.057l0.027-0.013c-0.012-0.004-0.027-0.005-0.042-0.005-0.14 0.027-0.3 0.085-0.452 0.149-0.077 0.034-0.153 0.068-0.222 0.099-0.035 0.016-0.070 0.032-0.101 0.048-0.016 0.006-0.031 0.013-0.046 0.021-0.013 0.008-0.006 0.008-0.009 0.011v0.006c-0.001-0.006-0.002-0.011-0.002-0.015-0.006-0.015 0.024-0.034 0.011-0.043-0.004-0.006-0.015-0.007-0.021-0.010-0.004-0.003-0.010-0.006-0.016-0.006-0.007-0.011-0.080 0.014-0.086-0.006-0.004 0.005 0.002 0.003 0.017-0.006 0.010-0.006 0.028-0.016 0.050-0.028 0.107-0.029 0.298-0.082 0.515-0.14-0.027 0.003-0.049 0-0.061-0.017-0.089 0.011-0.167 0.029-0.245 0.055-0.039 0.013-0.077 0.026-0.116 0.039-0.035 0.014-0.088 0.032-0.103 0.040-0.010 0.010-0.046 0.034-0.079 0.056s-0.067 0.045-0.104 0.068c-0.073 0.046-0.157 0.094-0.255 0.142 0.022-0.021 0.070-0.061 0.040-0.066-0.151 0.073-0.265 0.186-0.283 0.231-0.029-0.010-0.127 0.023-0.234 0.071-0.054 0.026-0.11 0.054-0.161 0.083-0.027 0.015-0.050 0.030-0.074 0.043-0.028 0.020-0.056 0.038-0.082 0.055-0.007 0.006-0.011 0.013-0.013 0.015-0.048 0.010-0.082 0.018-0.114 0.023-0.025 0.007-0.044 0.012-0.068 0.016-0.050 0.009-0.115 0.011-0.25 0.009l0.125-0.034c-0.335-0.030-0.275 0.049-0.55 0.020 0.11 0.015 0.12-0.023 0.038-0.029-0.349 0.016-0.358 0.035-0.608 0.103l0.046-0.053c-0.015 0.001-0.029 0.003-0.043 0.005l-0.024 0.001-0.009 0.002c-0.004 0.002-0.025 0.008-0.044 0.013-0.021 0.006-0.040 0.010-0.061 0.015-0.040 0.010-0.083 0.020-0.125 0.032-0.084 0.020-0.169 0.039-0.243 0.055-0.153 0.030-0.268 0.043-0.276 0.010 0.039 0.035-0.031 0.065-0.149 0.088-0.059 0.013-0.129 0.026-0.205 0.035-0.037 0.004-0.075 0.009-0.114 0.015l-0.059 0.006c-0.018 0.003-0.043 0.006-0.040 0.005-0.11 0.027-0.213 0.054-0.278 0.070 0.084-0.027 0.093-0.054 0.098-0.068-0.187 0.083-0.382 0.147-0.579 0.2l-0.299 0.078-0.332 0.082-0.241-0.010-0.208-0.006-0.086-0.082c-0.291-0.001-0.375 0.16-0.689 0.151l0.114-0.038c-0.153 0.002-0.282 0.002-0.359 0.003-0.097-0.022-0.183-0.043-0.264-0.060-0.073-0.018-0.142-0.035-0.209-0.051-0.134-0.035-0.267-0.071-0.43-0.112l0.020-0.051c-0.164-0.012-0.339-0.053-0.522-0.071-0.007-0.001-0.014-0.004-0.021-0.005-0.106-0.082-0.299-0.15-0.535-0.221-0.117-0.034-0.245-0.070-0.376-0.108-0.065-0.020-0.133-0.038-0.199-0.057l-0.216-0.065c-0.066-0.033-0.131-0.066-0.194-0.099-0.059-0.030-0.116-0.062-0.171-0.094-0.11-0.065-0.213-0.133-0.299-0.203l-0.085 0.071c-0.23-0.12-0.541-0.241-0.608-0.376l0.050 0.029c0.060-0.055-0.223-0.132-0.355-0.228-0.109-0.053-0.241-0.072-0.158-0.005-0.579-0.387-1.457-0.882-1.784-1.192l-0.005-0.004c-0.426-0.307-0.741-0.494-1.16-0.798-0.067-0.067-0.134-0.139-0.205-0.211-0.065-0.070-0.131-0.142-0.202-0.217l0.016-0.001c-0.159-0.193-0.478-0.581-0.414-0.639-0.012-0.013-0.027-0.026-0.039-0.038-0.178-0.147-0.355-0.267-0.529-0.393-0.088-0.062-0.177-0.129-0.269-0.206-0.046-0.038-0.094-0.078-0.142-0.122-0.055-0.052-0.111-0.106-0.171-0.162-0.015-0.023-0.029-0.049-0.045-0.076 0.011 0.009 0.038 0.042 0.059 0.064l0.057 0.040 0.035 0.020c-0.008-0.009-0.016-0.018-0.027-0.028-0.015-0.015-0.032-0.029-0.049-0.046-0.042-0.062-0.056-0.085-0.084-0.12-0.024-0.032-0.050-0.065-0.073-0.094-0.050-0.057-0.092-0.104-0.11-0.126-0.031-0.049 0.007-0.022 0.022-0.022-0.059-0.144-0.148-0.195-0.222-0.294l0.051 0.027c-0.057-0.115-0.133-0.238-0.221-0.369-0.090-0.128-0.186-0.266-0.278-0.413-0.193-0.288-0.398-0.591-0.556-0.878 0.067 0.1 0.063 0.029 0.051-0.020-0.028-0.026-0.044-0.037-0.084-0.088-0.198-0.283-0.43-0.829-0.551-1.047l0.104 0.138c-0.051-0.084-0.087-0.153-0.114-0.213-0.028-0.065-0.033-0.090-0.068-0.186-0.001-0.032-0.005-0.081-0.002-0.094l0.003-0.054c0.002-0.038 0.003-0.076 0.002-0.119-0.001-0.085-0.015-0.192-0.060-0.354l-0.009 0.309c-0.016-0.216-0.061-0.395-0.095-0.338-0.006-0.252 0.067-0.040 0.020-0.416 0.024-0.018 0.059 0.267 0.076 0.14l-0.008-0.528c0-0.013 0-0.021 0.001-0.038l-0.001 0.035c0.006-0.017-0.001-0.083-0.030-0.25-0.111 0.062-0.061-0.429-0.142-0.153-0.024-0.169-0.043-0.332-0.059-0.49-0.015-0.164-0.030-0.324-0.045-0.48 0.004-0.095 0.010-0.188 0.015-0.281 0.005-0.088 0.008-0.175 0.011-0.261 0.004-0.173 0.003-0.344-0.008-0.518 0.033-0.066 0.052-0.204 0.061-0.329-0.013-0.366-0.093-0.894 0.020-0.855-0.020-0.206-0.043-0.371-0.078-0.547 0.007-0.147 0-0.242-0.011-0.346-0.022 0.070-0.017 0.162-0.019 0.236-0.025-0.098 0.033-0.528 0.060-0.706-0.002 0.241-0.027 0.612-0.001 0.817 0.001 0.001 0.001 0.002 0.001 0.002v-0.002c0.035-0.338 0.046-0.787 0.055-0.971l0.088-0.072c-0.011-0.214 0.048-0.22 0.065-0.352 0.019-0.045 0.032-0.089 0.041-0.16l-0.043 0.038c0.208-0.459 0.142-0.496 0.321-0.929l0.020 0.031c0.023-0.043 0.042-0.095 0.060-0.15 0.010-0.028 0.020-0.056 0.028-0.084l0.013-0.039 0.006-0.020c0-0.011 0-0.012 0.002-0.030 0.002-0.020 0.005-0.037 0.009-0.056 0.007-0.035 0.020-0.068 0.037-0.1l-0.018 0.195-0.024 0.060c0.020-0.004 0.046-0.028 0.068-0.048 0.015-0.020 0.031-0.078 0.045-0.126 0.016-0.051 0.028-0.1 0.042-0.134 0.018-0.325-0.076-0.122-0.066-0.286 0.056-0.064 0.028-0.013 0.066 0.104 0.007-0.156 0.016-0.336 0.023-0.509 0.001-0.087 0.002-0.172 0.002-0.253 0-0.093-0.001-0.181-0.002-0.258 0.017-0.034 0.034-0.062 0.046-0.089 0.015-0.029 0.019-0.040 0.027-0.060 0.016-0.008 0.015 0.013 0.015 0.013 0.221-0.305 0.336-0.629 0.502-0.795l-0.035 0.065c0.237-0.204 0.376-0.685 0.514-0.669 0.095-0.106-0.179 0.27-0.003 0.112 0.275-0.357 0.071-0.308 0.314-0.62-0.033 0.043-0.017 0.033-0.017 0.055 0.068-0.112 0.148-0.239 0.236-0.382 0.128-0.127 0.271-0.269 0.401-0.397 0.184-0.097 0.426-0.333 0.644-0.541 0.145-0.216 0.319-0.465 0.479-0.6-0.115 0.092 0.022-0.12 0.007-0.131 0 0-0.001 0.022 0.015 0.010 0.094-0.132 0.073-0.171 0.093-0.23 0.027-0.023 0.054-0.057 0.079-0.098 0.032-0.054 0.067-0.111 0.1-0.167 0.060-0.035 0.116-0.072 0.164-0.1 0.039-0.022 0.072-0.039 0.093-0.044-0.010-0.025 0.11-0.076 0.239-0.142-0.245 0.158-0.057 0.094-0.156 0.189 0.393-0.183 0.391-0.326 0.804-0.509l0.082-0.023 0.040-0.010c0.012-0.004 0.016-0.003 0.026-0.004 0.007-0.005 0.012-0.005 0.023-0.010l0.037-0.019c-0.010-0.090 0.33-0.335 0.305-0.349 0.075-0.032 0.169-0.093 0.181-0.053 0.126-0.131 0.359-0.272 0.386-0.355l-0.149 0.1c0.048-0.037 0.093-0.073 0.134-0.108 0.046-0.039 0.089-0.076 0.132-0.112 0.023-0.015 0.048-0.029 0.071-0.044l0.056-0.037c0.037-0.026 0.072-0.050 0.106-0.075 0.071-0.046 0.137-0.093 0.203-0.138 0.131-0.089 0.261-0.17 0.418-0.238l0.050 0.105c0.142-0.056 0.236-0.129 0.361-0.217 0.138-0.054 0.234-0.092 0.364-0.095-0.094-0.012-0.109 0.004 0.055-0.084-0.048 0.011-0.112 0.034-0.184 0.062-0.035 0.013-0.073 0.028-0.114 0.043-0.043 0.015-0.068 0.026-0.132 0.046-0.019 0.010-0.038 0.020-0.055 0.032 0.011-0.010 0.034-0.027 0.051-0.039l0.053-0.024 0.038-0.018 0.078-0.039 0.152-0.077-0.337 0.121-0.237 0.153c0.199-0.166 0.188-0.148 0.076-0.136 0.044-0.031 0.060-0.044 0.132-0.087 0.024-0.007 0.049-0.015 0.071-0.021 0.015-0.005 0.027-0.008 0.039-0.011 0.027-0.005 0.049-0.011 0.071-0.016 0.045-0.009 0.085-0.016 0.127-0.022 0.084-0.014 0.172-0.033 0.31-0.095 0.125-0.022 0.013 0.056 0.158 0.037 0.213-0.096 0.452-0.1 0.618-0.145 0.038-0.016 0.098-0.048 0.136-0.082 0.068-0.018-0.114 0.057-0.087 0.076 0.176-0.095 0.307-0.151 0.346-0.206l-0.16 0.060c0.137-0.060 0.139-0.114 0.409-0.21 0.138-0.094 0.199-0.186 0.035-0.109 0.064-0.039 0.221-0.078 0.184-0.023 0.149-0.068 0.208-0.114 0.243-0.15 0.016-0.019 0.029-0.035 0.043-0.050 0.007-0.009 0.016-0.016 0.026-0.024 0.012-0.010 0.038-0.023 0.064-0.038 0.021-0.004 0.043-0.011 0.070-0.016 0.013-0.004 0.030-0.007 0.049-0.010 0.037-0.004 0.081-0.010 0.138-0.015-0.028 0.010-0.057 0.022-0.040 0.026 0.107-0.015 0.195-0.032 0.265-0.053-0.37 0.084 0.134 0.066-0.31 0.136 0.061 0.049 0.338-0.057 0.482-0.062 0.206-0.083 0.006-0.090 0.11-0.142 0.001 0.019 0.090 0.001 0.197-0.011l-0.111-0.026c0.089-0.017 0.177-0.035 0.282-0.067l-0.176 0.054c0.061-0.010 0.132-0.016 0.213-0.022 0.039-0.003 0.082-0.007 0.126-0.010 0.022-0.002 0.044-0.005 0.067-0.006 0.038-0.006 0.077-0.013 0.116-0.018 0.043 0.011 0.087 0.022 0.132 0.034 0.028 0.006 0.059 0.014 0.089 0.021 0.061 0.011 0.123 0.023 0.191 0.028-0.094-0.003-0.282-0.006-0.060 0.068 0.377 0.055 0.082 0.038 0.283 0.12 0.371 0.074 0.082-0.066 0.62 0.084 0.060 0.015 0.011-0.024-0.045-0.050 0.044 0.012 0.086 0.024 0.126 0.035 0.035 0.009 0.068 0.018 0.101 0.024 0.116 0.008 0.219 0.017 0.325 0.023 0.111 0.009 0.228 0.018 0.368 0.042-0.161-0.023-0.283-0.049-0.065-0.055-0.097 0.032 0.3 0.057 0.441 0.090l0.039-0.021c0.111 0.035-0.011 0.036-0.105 0.037 0.005-0.007-0.028-0.017-0.097-0.021-0.183 0.006-0.125 0.099 0.162 0.128 0.31 0 0.265-0.065 0.214-0.092 0.029 0.003 0.057 0.006 0.079 0.008 0.348 0.070 0.359-0.041 0.717 0.060 0.044 0.007 0.133 0.048 0.247 0.092 0.055 0.023 0.117 0.048 0.183 0.070 0.033 0.011 0.067 0.020 0.1 0.032l0.090 0.026h0.011c0.035-0.018 0.014-0.029-0.008-0.034-0.006-0.005-0.013-0.008-0.021-0.009-0.012-0.003-0.027-0.009-0.040-0.013-0.028-0.009-0.056-0.018-0.079-0.024-0.045-0.015-0.064-0.027-0.007-0.033 0.028 0.015 0.055 0.026 0.082 0.037 0.031 0.011 0.059 0.021 0.067 0.027 0.007 0.001 0.012 0.002 0.021 0.002l0.040 0.001h0.081c0.055-0.002 0.11-0.007 0.165-0.012 0.11-0.012 0.224-0.028 0.341-0.046s0.238-0.034 0.364-0.044c0.065-0.005 0.128-0.008 0.194-0.008 0.033 0 0.066 0.001 0.1 0.001 0.045 0.001 0.090 0.003 0.137 0.005-0.044 0.024-0.092 0.046-0.11 0.068 0.048 0 0.094-0.002 0.14-0.002 0.059 0.030 0.118 0.061 0.18 0.092 0.050 0.027 0.104 0.052 0.161 0.078l-0.176-0.128c0.136 0.051 0.436 0.218 0.314 0.211 0.316 0.1 0.365 0.16 0.631 0.311-0.288-0.15-0.001-0.010-0.228-0.088 0.214 0.134 0.277 0.161 0.403 0.214 0.038 0.024 0.082 0.054 0.137 0.090-0.045-0.005 0.032 0.099 0.104 0.155 0.198 0.103 0.491 0.343 0.747 0.516l-0.013 0.013c0.045 0.034 0.090 0.068 0.137 0.101 0.388 0.238 0.778 0.562 1.197 0.755 0.009 0.004 0.017 0.007 0.023 0.010l-0.033-0.022c-0.127-0.137 0.376 0.153 0.528 0.205 0.023 0.029 0.024 0.061 0.103 0.104 0.033-0.048 0.192 0.067 0.27 0.079 0.148 0.1-0.054 0.050 0.217 0.191 0.064 0.031 0.114 0.042 0.133 0.038 0.015 0 0.019-0.007 0.018-0.019 0.034 0.054 0.064 0.1 0.114 0.162 0.049 0.061 0.108 0.128 0.163 0.188-0.049-0.028-0.1-0.104-0.128-0.126-0.035 0.007 0.050 0.075 0.022 0.1 0.099 0.103 0.078 0.001 0.194 0.14l-0.151-0.083c0.044 0.059 0.123 0.109 0.15 0.132-0.044-0.035-0.071-0.039-0.088-0.033l0.154 0.148c0.050-0.007-0.021-0.147 0.014-0.161 0.197 0.227 0.383 0.371 0.576 0.535 0.065 0.071 0.109 0.12 0.161 0.181l-0.077-0.010c0.1 0.11 0.154 0.158 0.206 0.186l0.147 0.178c-0.099-0.091-0.14-0.114-0.18-0.095 0.166 0.181 0.368 0.451 0.463 0.456h-0.015c0.045 0.062 0.104 0.142 0.165 0.228 0.165 0.308 0.351 0.646 0.327 0.642 0.199 0.292 0.393 0.693 0.454 0.669 0.116 0.176 0.181 0.522 0.33 0.609 0.078 0.241-0.010 0.021-0.093-0.021 0.078 0.241 0.304 0.404 0.254 0.525 0.021 0.029 0.035 0.051 0.046 0.065 0.020 0.069 0.019 0.040 0.019-0.006-0.016-0.042-0.034-0.094 0.007-0.061-0.006 0.016-0.006 0.034-0.001 0.060-0.020 0.159 0.096 0.524 0.090 0.767 0.059 0.114 0.002-0.126 0.078 0.073-0.027-0.015-0.012 0.095-0.004 0.151l0.066 0.043-0.066 0.203 0.029 0.173 0.038 0.064c0.067 0.037-0.004-0.127 0.225 0.215l-0.022-0.026c0.024 0.158 0.239 0.311 0.401 0.673-0.060-0.122-0.054-0.033-0.090-0.061l0.133 0.177c-0.012-0.016-0.021-0.023-0.016 0 0.034 0.11 0.068 0.139 0.11 0.195 0 0.040-0.006 0.105-0.033 0.189 0.003-0.062-0.004-0.091-0.013-0.101l-0.037 0.307 0.006 0.072-0.012-0.024-0.117 1.003 0.139 1.374v0.032c0.006 0.004 0.012 0.006 0.017 0.008l0.016 0.202c0.032-0.007 0.048-0.145 0.050-0.234zM16.49 15.898l-0-0c-0.203-0.289-0.399-0.482-0.041-1.133 0.189-1.026-0.021-1.174-0.231-1.401-0.2-0.262-0.995-0.951-1.239-0.961 0.406 0.54 0.161 1.34-0.004 1.721-0.028 0.085-0.034 0.152-0.131 0.083-0.134-0.152-0.237-0.269-0.172-0.565-0.014-0.107-0.038-0.223-0.076-0.358-1.36 1.649 0.392 2.724 1.735 2.699 0.203-0.004 0.23-0.028 0.158-0.086zM16.693 15.35l-0-0c0.589-0.056 1.043-0.399 1.508-0.719 0.874-0.565 1.253-2.062-0.82-2.011l-0.011 0.231c-0.041-0.004-0.078-0.011-0.203 0.041-0.368-0.024-0.434-0.011-0.523 0.034-0.117 0.007-0.32 0.069-0.327 0.137-0.007 0.034 0.079 0.014 0.197 0.041 0.055 0.033 0.117 0.061 0.224 0.058 0.464 0.114 0.995 0.648 0.826 0.971-0.045 0.137-0.21 0.567-0.286 0.547-0.117 0.166-0.345 0.244-0.585 0.668zM12.562 10.121l-0-0c0.025-0.234 0.135-0.299 0.207-0.557 0.093-0.152 0.024-0.455 0.492-0.072 0.245 0.257 0.538 0.454 0.837 0.64-0.052-0.117-0.11-0.231-0.072-0.399-0.063-0.087-0.056-0.303 0.055-0.1 0.458 0.282 0.331 0.378 1.336 0.795-0.086-0.137-0.138-0.275-0.173-0.413 1.208 0.933 2.754 1.883 4.066 2.906 0.23-0.093 0.578-0.265 0.378-0.396-0.802-0.939-2.588-2.633-4.062-3.649-0.499-0.309-0.137-0.23 0.076-0.262-0.65-0.389-1.859-1.803-2.665-3.597-0.151-0.334-0.203-0.165-0.22-0.044-0.024 0.134 0.014 0.472 0.018 0.547-0.090-0.055-0.045-0.024-0.19-0.055-0.54 1.735-0.806 2.94-1.325 4.834 0.014 0.13-0.096 0.354 0.11 0.344l0.751 0.103c0.096 0.072 0.161 0.038 0.203-0.051 0.055-0.086 0.045-0.197 0.049-0.303 0.045-0.038 0.090-0.141 0.13-0.269zM16.414 16.799c-0.409 0.39 0.231 0.765 0.624 0.262 0.822-0.833 2.086-1.721 3.47-2.691 2.255-1.484 4.058-3.050 5.759-4.634-0.489-0.002-1.535 0.547-3.205 0.84-0.065 0.018-0.137 0.027-0.085 0.114 0.038 0.072-0.007 0.079-0.055 0.083-0.847 0.186-1.683 0.313-2.509 0.392-0.045 0.031-0.032 0.045-0.131 0.045-0.083-0.002-0.117 0.031-0.031 0.134 0.024 0.015 0.056 0.027 0.107 0.034 0.034 0.034 0.034 0.059-0.038 0.065-0.117-0.012-0.237 0.010-0.354 0.049-0.1 0.020-0.213 0.041-0.437 0.027 0.010 0.062 0.038 0.076 0.065 0.093 0.2 0.313 0.441 0.286 0.678 0.3 0.093 0.005 0.183 0.010 0.238-0.045 0.244 0 0.489 0.034 0.733 0 0.137 0.103-0.197 0.382-0.303 0.578-0.127 0.076-0.227 0.19-0.278 0.365-0.516 0.561-1.060 0.975-1.601 1.391-0.97 0.823-1.875 1.677-2.644 2.599l-0-0zM17.495 12.197c-0.224-0.334-0.558-0.792-1.15-0.723-2.32-0.258-7.488-0.431-10.995-2.479-0.155-0.162-0.348-0.096-0.155 0.244 0.95 2.551 2.806 4.406 5.037 5.743 0.062-0.206 0.11-0.403 0.13-0.65 0.007-0.211-0.082-0.424-0.248-0.634-0.85-0.351-1.405-1.105-2.059-1.721 0.175 0.058 0.348 0.117 0.534 0.127 0.302 0.076 0.468 0.052 0.523-0.005-0.065-0.010-0.123-0.052-0.182-0.114-0.206-0.076-0.196-0.145 0.041-0.104 0.186 0.015 0.352 0.018 0.513 0.025 0.197-0.015 0.352 0.038 0.516 0.072 0.1 0.020 0.197 0.025 0.286 0 0.052-0.055 0.014-0.076-0.051-0.090-1.25-0.441-1.14-0.416-1.219-0.426-0.251-0.086-0.137-0.152 0.045-0.096 2.819 0.916 7.863 0.826 8.434 0.833v-0.001zM11.863 25.971c0.025-0.341-0.179-0.975-0.293-1.495-0.089-0.282-0.082-0.519 0.162-0.127 0.134 0.251 0.361 0.533 0.434 0.554-0.055-2.716 1.86-4.844 2.94-6.214 0.186-0.134-1.006-0.668-1.236-1.046-0.093-0.124-0.114 0.031-0.251 0.040-0.4 0.568-1.067 1.188-1.284 1.659-0.056 0.121-0.334 0.365-0.352 0.437-0.062 0.103-0.148 0.114-0.203-0.012l-0.052-0.234c-0.089-0.278 0-0.303 0.052-0.21 0.093 0.155 0.127-0.008 0.145-0.062-0.406-2.348-0.437-5.115 0.034-6.836-0.348-0.152-0.94-0.159-1.040-0.145-0.427 3.005-1.043 5.855-0.699 8.933 0.086 0.372-0.024 0.424-0.086 0.072-0.116-0.192-0.213-0.737-0.289-0.806-0.085 2.272 1.264 4.878 2.017 5.491v-0.001zM26.267 21.881c-1.615-3.188-3.215-5.694-5.075-7.435-0.316 0.134-0.633 0.289-0.95 0.595l1.257 2.806c0.203 0.345 0.578 0.82-0.227 0.41-0.871-0.386-1.515-0.323-2.251-0.448 0.020 0.086 0.078 0.141 0.172 0.175-0.547-0.041-0.782-0.137-1.129-0.278-0.234-0.086-0.238-0.031-0.341-0.038l0.172 0.224c-2.045-0.462-3.876-1.28-5.718-2.008-0.076-0.025-0.206-0.092-0.193 0.086-0.134 0.234 0.031 0.227 0.124 0.382 0.85 0.716 8.609 4.568 14.159 5.528z"></path>
</svg>
