<!-- Generated by IcoMoon.io -->
<svg version="1.1" xmlns="http://www.w3.org/2000/svg" width="32" height="32" viewBox="0 0 32 32">
<title>rttcu</title>
<path d="M19.128 24.382c0.045 0 0.050 0.011 0.014 0.032-0.137 0.083-0.468 0.122-0.558 0.065v0c-0.066-0.042-0.055-0.053 0.056-0.054 0.077-0.001 0.24-0.015 0.363-0.032 0.056-0.008 0.098-0.012 0.125-0.012z"></path>
<path d="M5.1 14.832c0.003-0.002 0.007 0.008 0.012 0.029 0.013 0.068 0.013 0.178 0 0.246s-0.024 0.012-0.024-0.123c0-0.093 0.005-0.148 0.013-0.151z"></path>
<path d="M13.354 2.583c0.023-0.014 0.045-0.027 0.065-0.040-0.027 0.016-0.048 0.029-0.065 0.040z"></path>
<path d="M6.372 6.211c0-0.003-0-0.005-0.001-0.006 0 0 0 0.003 0.001 0.006z"></path>
<path d="M21.447 28.472c-0-0-0-0-0.001-0.001-0.002 0.002-0.002 0.002 0.001 0.001z"></path>
<path d="M23.272 27.658c-0.001 0-0.002 0.001-0.005 0.003 0.002-0.001 0.003-0.002 0.005-0.003z"></path>
<path d="M27.151 23.662c0.017-0.011 0.039-0.029 0.071-0.054-0.024 0.017-0.047 0.036-0.071 0.054z"></path>
<path d="M14.476 2c-0.047 0.026-0.091 0.050-0.136 0.074-0.030 0.012-0.060 0.026-0.086 0.039-0.054 0.021-0.104 0.045-0.153 0.065-0.097 0.039-0.185 0.073-0.254 0.106l0.154-0.106c-0.094 0.064-0.173 0.106-0.256 0.151l0.117-0.009c-0.101 0.045-0.182 0.087-0.19 0.069-0.084 0.082 0.114 0.030-0.064 0.175-0.070 0.025-0.164 0.084-0.251 0.134-0.044 0.024-0.087 0.043-0.122 0.058-0.019 0.006-0.033 0.012-0.046 0.014-0.008 0-0.014-0.003-0.021-0.010 0.006-0.001 0.034-0.015 0.052-0.024 0.020-0.011 0.037-0.021 0.052-0.027 0.026-0.015 0.041-0.025 0.052-0.033 0.016-0.016 0.005-0.021-0.009-0.022-0.023-0.005-0.053-0.011 0.038-0.071-0.051 0.030-0.11 0.060-0.18 0.092-0.018 0.001 0.008-0.022 0.033-0.038-0.027 0.010-0.069 0.028-0.075 0.029-0.004-0.001-0.004-0.001-0.007 0-0.004-0.001-0.005 0.001-0.005 0.002-0.008 0.002-0.034 0.006-0.045 0.010-0.029 0.008-0.047 0.020-0.072 0.031-0.049 0.022-0.117 0.048-0.312 0.051 0.039-0.025-0.023-0.040-0.091-0.048 0.043 0.017-0.042 0.057-0.168 0.079-0.294-0.020-0.318 0.027-0.472 0.027l0.175 0.009c-0.027 0.018-0.078 0.028-0.144 0.034-0.069 0.005-0.157 0.009-0.261 0.015-0.008 0.002-0.019 0.005-0.027 0.010-0.007-0.005 0.004-0.014 0.024-0.024-0.076 0.029-0.113 0.040-0.173 0.055-0.058 0.009-0.118 0.020-0.18 0.033-0.122 0.022-0.253 0.052-0.377 0.111-0.148 0.022-0.033-0.059-0.161-0.034-0.125 0.060-0.212 0.083-0.29 0.099-0.039 0.008-0.073 0.013-0.113 0.022-0.020 0.004-0.039 0.009-0.062 0.014-0.012 0.004-0.023 0.005-0.034 0.009-0.021 0.006-0.041 0.013-0.062 0.019-0.020 0.012-0.041 0.025-0.064 0.038-0.013 0.006-0.027 0.017-0.041 0.026-0.029 0.019-0.058 0.042-0.091 0.067 0.116-0.016 0.126-0.035-0.076 0.142l0.302-0.208 0.275-0.106-0.122 0.067c-0.046 0.022-0.068 0.037-0.141 0.069-0.055 0.041-0.074 0.064-0.106 0.093 0.038-0.024 0.078-0.051 0.115-0.076 0.040-0.015 0.079-0.031 0.117-0.045 0.035-0.014 0.066-0.028 0.096-0.039 0.062-0.026 0.119-0.045 0.161-0.057-0.167 0.096-0.155 0.079-0.058 0.089-0.052 0.001-0.102 0.010-0.149 0.022-0.024 0.006-0.050 0.015-0.072 0.024l-0.084 0.033c-0.066 0.049-0.132 0.097-0.202 0.149-0.066 0.047-0.138 0.092-0.221 0.125l-0.053-0.103c-0.295 0.135-0.515 0.331-0.786 0.518-0.088 0.048-0.222 0.112-0.355 0.165l0.177-0.058c-0.051 0.074-0.321 0.153-0.48 0.247-0.001-0.042-0.111-0.006-0.194 0.002 0.019 0.024-0.378 0.171-0.398 0.266l-0.069 0.021-0.062 0.045-0.046 0.029-0.089 0.057c-0.349 0.304-0.303 0.445-0.633 0.741 0.067-0.122-0.098-0.002 0.094-0.23-0.106 0.102-0.206 0.188-0.189 0.209-0.017 0.008-0.042 0.030-0.067 0.057-0.027 0.031-0.061 0.070-0.096 0.112-0.031 0.058-0.067 0.121-0.098 0.178-0.030 0.050-0.059 0.094-0.088 0.12-0.021 0.061 0.002 0.101-0.089 0.237-0.011 0.008-0.016 0.001-0.017-0.005-0.002 0.035-0.113 0.219-0.005 0.128-0.079 0.070-0.156 0.163-0.233 0.268-0.039 0.050-0.076 0.106-0.113 0.163-0.035 0.052-0.070 0.106-0.105 0.16-0.060 0.054-0.122 0.109-0.182 0.163-0.064 0.054-0.127 0.109-0.187 0.161-0.123 0.101-0.241 0.185-0.343 0.233-0.131 0.122-0.274 0.257-0.405 0.379-0.064 0.181-0.123 0.347-0.172 0.491-0.005-0.022-0.017-0.008 0.005-0.058-0.174 0.367 0.019 0.271-0.177 0.69-0.141 0.199 0.050-0.24-0.022-0.112-0.041 0.005-0.071 0.047-0.099 0.115-0.014 0.034-0.028 0.074-0.043 0.117-0.011 0.039-0.031 0.101-0.033 0.115-0.004 0.011-0.026 0.045-0.050 0.077l-0.067 0.1c-0.046 0.062-0.097 0.119-0.151 0.163l0.039-0.065c-0.176 0.164-0.305 0.495-0.542 0.801 0 0-0.001-0.022-0.017-0.014-0.006 0.020-0.021 0.053-0.048 0.1-0.014 0.074-0.031 0.158-0.048 0.251-0.017 0.084-0.038 0.173-0.060 0.264-0.045 0.182-0.095 0.372-0.139 0.537-0.012-0.125 0.025-0.168-0.045-0.118-0.045 0.162 0.092-0.020 0.003 0.302-0.026 0.043-0.053 0.094-0.091 0.166-0.034 0.1-0.066 0.178-0.101 0.194l0.029-0.211 0.039-0.12c-0.012 0.015-0.026 0.027-0.036 0.045-0.009 0.015-0.017 0.035-0.031 0.069-0.004 0.024-0.008 0.045-0.014 0.070l-0.010 0.060c-0.004 0.040-0.003 0.080-0.005 0.12-0.004 0.080-0.008 0.158-0.024 0.221l-0.027-0.027c-0.060 0.466 0.011 0.502-0.062 0.975-0.001 0.006-0.005 0.015-0.007 0.024 0.006-0.009 0.013-0.016 0.019-0.022 0.005-0.005 0.010-0.008 0.015-0.017 0.001 0.012 0.001 0.016 0.002 0.021 0 0.257-0.1 0.201-0.112 0.479l-0.098 0.064c-0.029 0.184-0.078 0.655-0.16 0.98 0.004-0.195 0.062-0.585 0.091-0.829-0.031 0.119-0.061 0.304-0.091 0.475 0.012 0.239-0.054 0.528-0.158 0.882-0.041-0.034-0.091 0.052-0.142 0.191-0.026 0.069-0.052 0.153-0.081 0.24-0.031 0.099-0.063 0.202-0.094 0.304 0.005 0.036 0.011 0.073 0.017 0.108 0.002 0.025 0.005 0.048 0.009 0.072 0.005 0.045 0.012 0.091 0.015 0.134 0.005 0.082 0.003 0.151-0.009 0.201 0.042 0.155 0.076 0.313 0.106 0.472 0.014 0.080 0.028 0.161 0.043 0.242 0.013 0.086 0.026 0.17 0.039 0.259 0.054 0.167 0.108 0.339 0.165 0.515 0.056 0.171 0.116 0.347 0.184 0.528 0.020-0.294 0.078 0.207 0.177 0.122 0.029 0.075 0.048 0.126 0.062 0.161 0.004 0.026 0.008 0.062 0.005 0.067v0.002l0.012 0.542c-0.015 0.131-0.054-0.164-0.077-0.142 0.052 0.384-0.024 0.169-0.015 0.427 0.035-0.059 0.081 0.124 0.101 0.345l0.007-0.316c0.071 0.252 0.066 0.357 0.064 0.491 0.009 0.149 0.005 0.255 0.11 0.53l-0.079-0.158c0.036 0.105 0.083 0.282 0.136 0.474 0.029 0.096 0.057 0.195 0.084 0.292 0.016 0.046 0.033 0.094 0.046 0.139 0.019 0.050 0.036 0.097 0.051 0.142 0.021 0.046 0.026 0.053 0.038 0.075 0.013 0.019 0.023 0.035 0.033 0.052 0.021 0.034 0.045 0.063 0.065 0.086 0.005 0.051-0.002 0.123-0.057 0.012 0.069 0.181 0.151 0.372 0.237 0.561 0.090 0.195 0.181 0.391 0.268 0.578 0.049 0.067 0.096 0.131 0.142 0.194 0.040 0.057 0.079 0.113 0.117 0.168 0.075 0.11 0.139 0.214 0.191 0.314l-0.051-0.027c0.076 0.1 0.168 0.151 0.232 0.299-0.016 0-0.055-0.026-0.024 0.022 0.015 0.017 0.048 0.054 0.088 0.098 0.019 0.022 0.038 0.045 0.060 0.070 0.022 0.029 0.038 0.045 0.077 0.099 0.027 0.025 0.056 0.053 0.082 0.077 0.021 0.021 0.039 0.040 0.057 0.060l-0.125-0.075c0.447 0.484 0.779 0.641 1.191 1.004-0.061 0.063 0.293 0.433 0.47 0.618l-0.015 0.002c0.135 0.129 0.263 0.243 0.388 0.352 0.12 0.114 0.237 0.22 0.352 0.323 0.117 0.104 0.23 0.205 0.35 0.309 0.057 0.054 0.117 0.106 0.177 0.161 0.031 0.027 0.061 0.055 0.093 0.084 0.035 0.032 0.071 0.066 0.106 0.099 0.014 0.006 0.028 0.017 0.045 0.027 0.104 0.107 0.271 0.241 0.47 0.386 0.101 0.071 0.207 0.147 0.317 0.225 0.121 0.085 0.248 0.171 0.374 0.257 0.145 0.040 0.291 0.081 0.431 0.12 0.125 0.038 0.246 0.076 0.357 0.113-0.1-0.042 0.034-0.062 0.156-0.039 0.156 0.059 0.456 0.056 0.41 0.127l-0.055-0.017c0.015 0.016 0.037 0.033 0.063 0.048 0.012 0.006 0.024 0.015 0.039 0.022 0.019 0.006 0.009 0.004 0.015 0.010-0.007 0.001 0.044 0.034 0.081 0.055 0.040 0.024 0.080 0.048 0.122 0.072 0.085 0.046 0.174 0.095 0.254 0.139l0.088-0.070c0.092 0.081 0.203 0.158 0.323 0.233 0.059 0.038 0.119 0.077 0.182 0.112 0.070 0.039 0.14 0.075 0.211 0.113l0.216 0.072c0.065 0.020 0.13 0.038 0.194 0.058 0.129 0.040 0.257 0.078 0.37 0.113 0.23 0.074 0.417 0.149 0.52 0.232 0.026 0.005 0.033 0.005 0.088 0.019 0.079 0.011 0.166 0.021 0.251 0.031 0.081 0.008 0.161 0.020 0.233 0.022l-0.021 0.053c0.179 0.040 0.321 0.072 0.468 0.105 0.074 0.016 0.149 0.032 0.23 0.048 0.091 0.018 0.189 0.038 0.3 0.060 0.064-0.006 0.184-0.020 0.317-0.031l-0.115 0.050c0.322-0.021 0.395-0.192 0.691-0.216l0.094 0.077 0.245-0.015 0.254-0.010 0.314-0.045 0.297-0.046c0.197-0.034 0.392-0.078 0.583-0.139-0.006 0.014-0.021 0.041-0.11 0.060 0.077-0.013 0.199-0.030 0.328-0.050 0.072-0.004 0.146-0.007 0.216-0.010 0.074-0.005 0.145-0.012 0.202-0.020 0.105-0.015 0.172-0.037 0.157-0.069 0.067 0.052 0.591-0.045 0.875-0.103l-0.041 0.062c0.249-0.102 0.254-0.123 0.607-0.187 0.085-0.004 0.080 0.033-0.033 0.033 0.284-0.006 0.211-0.077 0.556-0.091l-0.122 0.052c0.141-0.016 0.207-0.028 0.256-0.043s0.078-0.032 0.178-0.065c0.001-0.001 0.006-0.006 0.010-0.009 0.024-0.017 0.050-0.039 0.079-0.060 0.022-0.015 0.049-0.029 0.074-0.046 0.052-0.033 0.108-0.067 0.163-0.094 0.107-0.055 0.206-0.092 0.237-0.082 0.016-0.047 0.127-0.166 0.28-0.247 0.030 0.004-0.017 0.046-0.039 0.067 0.1-0.054 0.184-0.108 0.257-0.158 0.038-0.027 0.071-0.051 0.106-0.075l0.046-0.036 0.029-0.022c0.015-0.008 0.060-0.025 0.101-0.038 0.040-0.014 0.078-0.029 0.118-0.041 0.079-0.022 0.159-0.041 0.25-0.048 0.012 0.015 0.032 0.018 0.062 0.017-0.22 0.055-0.412 0.106-0.522 0.134-0.022 0.014-0.040 0.024-0.050 0.029-0.008 0.005-0.014 0.008-0.016 0.009 0.012 0.019 0.078-0.005 0.085 0.006 0.014 0.005 0.020 0.010 0.027 0.019 0.004 0.008-0.001 0.024 0 0.039 0 0.003 0.001 0.007 0.002 0.010 0-0.002 0.001-0.007 0.002-0.010 0.016-0.006 0.031-0.013 0.046-0.020 0.035-0.014 0.070-0.030 0.106-0.046 0.073-0.030 0.149-0.062 0.228-0.094 0.156-0.064 0.32-0.121 0.463-0.146 0.015 0.001 0.029 0.001 0.041 0.005l-0.029 0.012c0.069-0.013 0.132-0.032 0.187-0.055 0.047-0.008 0.087-0.017 0.125-0.024 0.044-0.008 0.059-0.012 0.149-0.034 0.016 0.005 0.053 0.001 0.11-0.010 0.032-0.032 0.073-0.076 0.118-0.127 0.025-0.030 0.051-0.061 0.079-0.094 0.054-0.065 0.112-0.133 0.151-0.18-0.051-0.025 0.081-0.173-0.067-0.063 0.003 0.001-0.029 0.043-0.085 0.111-0.013 0.020-0.029 0.041-0.036 0.055 0-0.004 0.001-0.008 0.002-0.014l-0.202 0.247-0.172 0.046c0.035-0.020 0.105-0.047 0.158-0.067 0.019-0.026 0.038-0.053 0.058-0.081 0.016-0.021 0.034-0.046 0.053-0.069 0.031-0.040 0.069-0.077 0.115-0.115 0.024-0.085 0.053-0.176 0.070-0.225 0.197-0.112 0.495-0.401 0.568-0.414 0.050-0.066 0.101-0.137 0.156-0.209 0.075-0.064 0.152-0.13 0.228-0.194 0.081-0.071 0.159-0.139 0.235-0.204 0.149-0.136 0.275-0.265 0.347-0.374 0.097-0.094 0.139-0.072 0.189-0.091-0.056 0.057-0.129 0.114-0.153 0.151 0.189-0.196 0.641-0.478 0.649-0.577 0.297-0.17-0.117 0.165 0.257-0.113l-0.038 0.053c0.1-0.052 0.19-0.107 0.276-0.163 0.043-0.030 0.084-0.058 0.125-0.086 0.051-0.038 0.102-0.074 0.151-0.111l0.062-0.115 0.039-0.079 0.070-0.158c0.046-0.105 0.094-0.209 0.141-0.316 0.094-0.209 0.204-0.439 0.333-0.647 0.074-0.069 0.176-0.157 0.283-0.24-0.012 0.009-0.023 0.014-0.030 0.015 0.136-0.12 0.269-0.246 0.401-0.372l0.196-0.196 0.208-0.204c0.272-0.436 0.501-0.822 0.781-1.253l0.082-0.254 0.082-0.237c0.056-0.159 0.116-0.313 0.178-0.465 0.091-0.239 0.089-0.314 0.099-0.443 0-0.034 0.003-0.073 0.003-0.12l0.072-0.057 0.007-0.347c0.059-0.482 0.322-0.784 0.376-1.4l-0.057 0.069c0.059-0.212 0.141-0.684 0.177-0.637-0.001-0.025-0.024-0.078 0.015-0.158h0.034l0.010-0.079 0.019-0.106-0.041-0.115v0.005l-0.033-0.089-0.070-0.18c-0.088-0.409 0.139 0.033-0.014-0.559-0.073-0.216-0.258-0.601-0.256-0.513 0.022 0.089 0.043 0.231 0.014 0.247l-0.069-0.196c-0.006-0.001-0.014-0.002-0.020-0.003l-0.010-0.033 0.292-1.433-0.257-0.961 0.022 0.019-0.034-0.065-0.082-0.305c0.012 0.006 0.031 0.031 0.052 0.091-0.006-0.090-0.020-0.135-0.036-0.178-0.036-0.062-0.065-0.083-0.091-0.208-0.004-0.024 0.005-0.017 0.017 0l-0.117-0.194c0.034 0.032 0.038-0.059 0.084 0.072-0.125-0.387-0.331-0.566-0.338-0.729l0.021 0.027c-0.195-0.371-0.139-0.196-0.204-0.242l-0.003-0.010-0.034-0.244 0.077-0.208-0.067-0.048c-0.006-0.056-0.015-0.17 0.012-0.153-0.069-0.207-0.022 0.040-0.077-0.079 0.014-0.217-0.060-0.528-0.064-0.722-0.031-0.055-0.050-0.1-0.038-0.125-0.1-0.056 0.136 0.244-0.074 0.015 0.032-0.131-0.218-0.266-0.333-0.499 0.090 0.031 0.21 0.243 0.096 0.010-0.164-0.070-0.277-0.41-0.419-0.571-0.066 0.035-0.298-0.361-0.527-0.638 0.034 0.004-0.366-0.572-0.527-0.866l0.014 0.002c-0.096-0.012-0.279-0.304-0.434-0.504 0.041-0.016 0.083 0.011 0.175 0.113l-0.132-0.197c-0.051-0.032-0.101-0.088-0.194-0.209l0.079 0.021-0.070-0.094-0.096-0.081-0.084-0.069c-0.056-0.045-0.117-0.093-0.177-0.141-0.12-0.099-0.243-0.205-0.365-0.34-0.035 0.016 0.042 0.156-0.010 0.165l-0.16-0.149c0.017-0.006 0.045-0.002 0.091 0.031-0.030-0.022-0.113-0.070-0.16-0.129l0.158 0.082c-0.122-0.14-0.098-0.037-0.204-0.141 0.030-0.026-0.059-0.094-0.022-0.103 0.030 0.022 0.083 0.098 0.136 0.125-0.059-0.057-0.135-0.136-0.17-0.184-0.025-0.050-0.062-0.123-0.067-0.154-0.011 0.026-0.043 0.035-0.12-0.060-0.191-0.25-0.028-0.116-0.122-0.275-0.067-0.044-0.166-0.22-0.216-0.19-0.055-0.074-0.045-0.102-0.053-0.141-0.032-0.031-0.081-0.091-0.134-0.156-0.062-0.076-0.127-0.159-0.182-0.228-0.191-0.047-0.24-0.049-0.175 0l0.046 0.017c-0.011-0.001-0.021-0.005-0.033-0.007-0.221-0.039-0.441-0.104-0.661-0.175l-0.329-0.11c-0.105-0.035-0.205-0.069-0.307-0.101l-0.087-0.075-0.103-0.082 0.012-0.014c-0.255-0.189-0.543-0.448-0.741-0.564-0.071-0.060-0.144-0.17-0.099-0.161-0.029-0.021-0.055-0.042-0.072-0.055-0.045-0.019-0.082-0.033-0.118-0.046-0.034-0.014-0.066-0.028-0.099-0.043-0.069-0.034-0.148-0.078-0.276-0.158 0.234 0.078-0.062-0.063 0.235 0.089-0.275-0.155-0.326-0.215-0.65-0.317 0.124 0.005-0.179-0.16-0.328-0.218l0.185 0.132c-0.044-0.019-0.085-0.038-0.125-0.057-0.046-0.022-0.092-0.046-0.136-0.069-0.075-0.012-0.145-0.020-0.216-0.033l0.088-0.055c-0.311-0.081-0.601-0.084-0.873-0.093-0.135-0.004-0.265-0.009-0.393-0.026-0.125-0.018-0.243-0.058-0.357-0.113-0.175 0.012 0.337 0.098 0.178 0.122-0.287-0.065-0.571-0.217-0.662-0.233-0.16-0.047-0.254-0.052-0.338-0.050-0.043 0.002-0.080 0.005-0.124 0.007-0.021 0.001-0.047 0.001-0.070 0-0.027-0.001-0.046-0.001-0.094-0.009-0.030 0-0.062 0.002-0.098 0.002-0.031 0-0.066-0.002-0.106-0.005 0.055 0.025 0.106 0.086-0.211 0.105-0.295-0.014-0.362-0.104-0.175-0.12 0.071-0.001 0.106 0.006 0.103 0.015 0.096-0.006 0.22-0.015 0.103-0.043l-0.039 0.024c-0.146-0.027-0.552-0.031-0.455-0.069-0.225 0.020-0.099 0.036 0.067 0.051-0.245-0.027-0.432-0.023-0.623-0.026-0.090-0.006-0.214-0.018-0.345-0.038 0.061 0.019 0.116 0.051 0.055 0.045-0.568-0.081-0.255 0.021-0.642-0.003-0.216-0.055 0.086-0.078-0.305-0.082-0.236-0.046-0.045-0.066 0.050-0.077-0.043 0.001-0.084 0.001-0.125 0l-0.088-0.005c-0.034-0.004-0.068-0.006-0.101-0.010h-0.002v-0zM7.079 10.277c1.015-0.001 2.032 0.252 3.038 0.613 1.807 0.648 3.161 1.962 4.529 3.259 0.159-0.121 0.319-0.241 0.48-0.361 0.066 0.186 0.104 0.373 0.092 0.567 0.080-0.045 0.181-0.060 0.308-0.030 0.108 0.026 0.189 0.074 0.296 0.045l-0-0c0.136 0.030 0.274 0.063 0.414 0.076 0.027 0.038 0.039 0.055 0.066 0.093-0.029 0.089-0.070 0.175-0.112 0.253-0.054 0.101-0.13 0.191-0.225 0.255-0.143 0.097-0.267 0.124-0.432 0.089-0.019-0.004-0.052-0.010-0.085-0.019-0.032-0.010-0.063-0.021-0.095-0.032-0.004-0.002-0.008-0.005-0.010-0.007-0.019-0-0.033-0.004-0.044-0.012-0.096-0.032-0.192-0.064-0.289-0.095-0.101 0.16-0.243 0.325-0.435 0.498l-0 0c-0.418 0.292-0.195 0.764 0.164 1.285-0.811 0.598-1.653 1.153-2.578 1.582-1.566 0.725-3.469 0.994-5.080 0.309-1.594-0.676-2.939-2.262-3.555-3.856-0.483-1.251-0.096-3.35 1.199-3.978 0.78-0.379 1.568-0.534 2.357-0.534zM8.333 11.987c-0.508-0.004-1.016 0.075-1.576 0.227-1.143 0.311-1.546 0.909-1.739 2.054-0.173 1.025 0.387 1.969 1.227 2.563 0.85 0.6 1.818 0.572 2.793 0.402 1.836-0.32 3.321-1.351 4.764-2.442-1.183-1.089-2.275-2.026-3.892-2.537-0.561-0.178-1.069-0.264-1.578-0.267zM18.437 12.136c0.091-0.001 0.174 0.018 0.217 0.064 0.048 0.052 0.062 0.128 0.089 0.128l0.001-0c0.039 0.062 0.078 0.127 0.116 0.178 0.012 0.034 0.030 0.086 0.041 0.121 0.004 0.068 0.004 0.132 0.004 0.192-0.001 0.121-0.010 0.211-0.036 0.256s-0.057 0.034-0.104-0.040c-0.006-0.009-0.017-0.025-0.027-0.043-0.010-0.020-0.021-0.040-0.031-0.059-0.001-0.004-0.003-0.007-0.004-0.010-0.005-0.006-0.010-0.014-0.014-0.025v0c-0.040-0.076-0.080-0.152-0.12-0.227-0.891-0.261-0.458-0.53-0.132-0.534zM16.899 12.677c0.229 0.028 0.46 0.057 0.692 0.082l-0.001 0.001c0.030-0.001 0.056 0.002 0.077 0.013 0.009-0.001 0.019-0.001 0.029-0.001 0.059 0.007 0.12 0.013 0.179 0.021 0.057 0.011 0.108 0.024 0.138 0.031 0.243 0.054 0.322 0.148 0.273 0.318-0.049 0.166-0.221 0.345-0.471 0.539-0.127 0.099-0.269 0.202-0.422 0.301-0.099 0.014-0.194 0.026-0.292 0.038-0.179-0.064-0.398-0.108-0.607-0.154l-0-0c-0.046-0.098-0.251-0.091-0.429-0.127-0.673-0.137 0.054-0.64 0.835-1.061zM21.771 14.616c0.103-0.001 0.207-0 0.312 0.004 0.645 0.026 1.335 0.054 1.94 0.297 0.205 0.055 0.411 0.118 0.594 0.202 0.108 0.050 0.208 0.118 0.305 0.191 0.109 0.035 0.22 0.101 0.317 0.184 1.278 1.078 2.221 2.854 2.345 4.54h-0c0.123 1.674-0.788 3.165-2.609 3.045-1.738-0.114-3.604-1.15-4.98-2.139-0.961-0.691-1.805-1.566-2.589-2.476-0.245 0.138-0.491 0.273-0.738 0.404-0.279-0.569-0.432-1.067 0.025-1.295 0.783-0.522 0.899-1.044 0.791-1.583 1.342-0.719 2.739-1.353 4.287-1.373zM15.167 15.412c0.093-0.002 0.19 0.033 0.287 0.12 0.083 0.074 0.131 0.155 0.239 0.18l-0 0c0.101 0.087 0.202 0.177 0.313 0.253 0.013 0.037 0.028 0.075 0.040 0.113-0.064 0.062-0.136 0.117-0.208 0.165-0.119 0.080-0.258 0.132-0.402 0.135-0.141 0.004-0.249-0.035-0.362-0.131-0.014-0.012-0.040-0.034-0.066-0.057-0.023-0.024-0.045-0.048-0.068-0.072-0.002-0.004-0.005-0.008-0.006-0.012-0.016-0.009-0.027-0.020-0.033-0.032 0 0-0 0-0 0-0.088-0.094-0.176-0.189-0.265-0.282 0.141-0.195 0.327-0.377 0.532-0.381zM16.924 16.335c0.154 0.057 0.307 0.16 0.221 0.336-0.023 0.046-0.054 0.078-0.051 0.13l-0.001 0c-0.026 0.056-0.054 0.113-0.075 0.173-0.015 0.011-0.030 0.022-0.046 0.032-0.036-0.021-0.070-0.046-0.101-0.072-0.051-0.043-0.092-0.1-0.112-0.164-0.019-0.063-0.016-0.116 0.013-0.179 0.004-0.008 0.010-0.023 0.018-0.037 0.008-0.013 0.017-0.026 0.024-0.040 0.001-0.001 0.003-0.004 0.004-0.004 0.002-0.008 0.005-0.014 0.010-0.019h-0c0.032-0.052 0.063-0.103 0.094-0.156zM22.799 16.46c-1.089-0.001-2.319 0.302-3.261 0.807-0.405 0.217-0.806 0.443-1.206 0.671 0.61 0.67 1.273 1.282 2.055 1.767 1.245 0.772 3.554 2.174 5.022 1.22l0 0c0.872-0.566 0.872-1.796 0.505-2.796-0.014-0.006-0.026-0.015-0.040-0.022-0.060-0.177-0.124-0.351-0.221-0.514-0.184-0.308-0.425-0.568-0.737-0.748-0.136-0.079-0.283-0.139-0.436-0.181-0.011-0.006-0.021-0.015-0.032-0.021-0.374-0.203-1.013-0.162-1.433-0.179-0.071-0.003-0.143-0.004-0.216-0.004zM16.365 16.841c0.338 0.005 0.12 0.798-0.161 0.869-0.096 0.024-0.2-0.009-0.217 0.024l-0 0c-0.107 0.006-0.219 0.011-0.309 0.024-0.049-0.008-0.096-0.015-0.146-0.023-0.092-0.045-0.178-0.090-0.256-0.134-0.146-0.082-0.251-0.155-0.289-0.217-0.039-0.064-0.005-0.094 0.12-0.1 0.015-0.001 0.041-0.003 0.071-0.004 0.031 0.001 0.062 0.001 0.093 0.001 0.005 0.001 0.011 0.002 0.015 0.002 0.010-0.002 0.024-0.002 0.040-0-0.001 0-0.001-0-0.001-0 0.121 0.002 0.24 0.005 0.359 0.005 0.332-0.33 0.549-0.449 0.681-0.447zM14.685 17.548c0.154 0.056 0.307 0.16 0.221 0.336-0.023 0.046-0.054 0.079-0.051 0.13l-0.001 0c-0.026 0.056-0.054 0.113-0.075 0.173-0.015 0.011-0.030 0.022-0.046 0.032-0.036-0.021-0.070-0.046-0.101-0.072-0.051-0.044-0.092-0.099-0.112-0.163s-0.016-0.117 0.014-0.18c0.003-0.008 0.010-0.023 0.017-0.037 0.008-0.013 0.016-0.027 0.024-0.040 0.001-0.001 0.003-0.004 0.004-0.004 0.002-0.008 0.006-0.015 0.010-0.019h-0c0.032-0.051 0.063-0.103 0.094-0.155zM15.367 18.219c0.018-0 0.036 0 0.054 0.001 0.142 0.009 0.245 0.057 0.349 0.163 0.013 0.014 0.038 0.037 0.061 0.063 0.020 0.026 0.040 0.052 0.061 0.079 0.002 0.004 0.004 0.008 0.005 0.012 0.015 0.011 0.025 0.022 0.031 0.035v-0c0.079 0.102 0.159 0.203 0.24 0.304-0.229 0.265-0.551 0.494-0.839 0.189-0.076-0.081-0.117-0.166-0.222-0.201l-0-0c-0.093-0.095-0.186-0.194-0.289-0.279-0.010-0.039-0.021-0.077-0.030-0.117 0.069-0.056 0.146-0.104 0.222-0.146 0.11-0.061 0.233-0.099 0.358-0.101zM14.085 18.483c0.091-0.001 0.174 0.018 0.217 0.064 0.048 0.051 0.062 0.128 0.089 0.128l0.001 0c0.039 0.062 0.079 0.127 0.116 0.178 0.012 0.034 0.030 0.086 0.042 0.121 0.003 0.068 0.003 0.132 0.003 0.192-0.001 0.121-0.010 0.211-0.036 0.256s-0.057 0.035-0.104-0.041c-0.006-0.009-0.016-0.025-0.027-0.043-0.010-0.020-0.021-0.040-0.031-0.059-0.001-0.004-0.003-0.007-0.004-0.010-0.005-0.006-0.010-0.014-0.014-0.025-0.040-0.076-0.080-0.152-0.12-0.227-0.891-0.261-0.458-0.53-0.132-0.534zM13.744 19.137c0.008-0 0.017-0 0.025 0 0.066 0.004 0.115 0.026 0.164 0.075 0.006 0.006 0.018 0.018 0.029 0.029 0.009 0.012 0.019 0.024 0.028 0.037 0.001 0.001 0.003 0.003 0.003 0.005 0.008 0.005 0.012 0.010 0.014 0.016h0c0.037 0.047 0.075 0.094 0.113 0.141-0.106 0.125-0.256 0.233-0.392 0.093-0.036-0.038-0.056-0.077-0.105-0.093h0c-0.044-0.044-0.088-0.090-0.137-0.129-0.005-0.018-0.010-0.036-0.014-0.054 0.032-0.027 0.068-0.050 0.103-0.070 0.051-0.029 0.108-0.047 0.167-0.049z"></path>
</svg>
