<!-- Generated by IcoMoon.io -->
<svg version="1.1" xmlns="http://www.w3.org/2000/svg" width="32" height="32" viewBox="0 0 32 32">
<title>runic_oaths</title>
<path d="M10.444 29.99c-0.373-0.020-0.615-0.073-0.846-0.184-0.284-0.137-0.47-0.336-0.585-0.623-0.177-0.443-0.182-0.471-0.182-0.925 0-0.372 0.003-0.411 0.043-0.505 0.111-0.26 0.458-0.679 0.644-0.777 0.122-0.064 0.378-0.172 0.561-0.237 0.135-0.048 0.21-0.061 0.39-0.069 0.161-0.007 0.226-0.017 0.233-0.037 0.014-0.037-0.030-0.825-0.054-0.955-0.010-0.058-0.027-0.389-0.038-0.735s-0.025-0.675-0.032-0.73l-0.013-0.101-0.17 0.037c-0.265 0.057-0.703 0.205-0.898 0.303-0.351 0.177-0.515 0.323-0.685 0.609l-0.082 0.138-0.014 0.715-0.069 0.033c-0.155 0.073-0.471 0.075-0.611 0.002-0.038-0.019-0.063-0.051-0.070-0.085-0.015-0.079 0.002-0.612 0.023-0.697 0.042-0.174 0.3-0.505 0.5-0.643 0.15-0.103 0.47-0.255 0.687-0.326 0.364-0.119 0.873-0.228 1.067-0.228 0.043 0 0.13-0.011 0.194-0.024l0.116-0.024-0.012-0.128c-0.028-0.29-0.050-0.652-0.050-0.846-0-0.254-0.033-0.919-0.071-1.446-0.016-0.216-0.041-0.907-0.057-1.534s-0.039-1.508-0.050-1.957c-0.066-2.544-0.066-2.573-0.008-3.236 0.019-0.211 0.031-0.619 0.034-1.109l0.004-0.775-0.256-0.093c-0.495-0.18-1.056-0.438-1.221-0.562-0.173-0.129-0.319-0.287-0.365-0.391-0.071-0.164-0.049-0.438 0.055-0.69 0.054-0.13 0.235-0.41 0.309-0.481l0.047-0.045 0.193 0.074c0.106 0.041 0.201 0.081 0.21 0.089s-0.009 0.053-0.041 0.1c-0.149 0.218-0.208 0.399-0.208 0.646-0.001 0.292 0.037 0.392 0.21 0.561 0.178 0.174 0.234 0.216 0.466 0.344 0.179 0.099 0.558 0.274 0.593 0.274 0.009 0 0.015-0.608 0.012-1.361l-0.005-1.361-0.085-0.025c-0.047-0.014-0.246-0.034-0.442-0.046-0.423-0.025-0.52-0.038-0.998-0.131-0.306-0.059-0.479-0.109-1.082-0.312-0.395-0.133-0.779-0.265-0.854-0.293-0.426-0.162-0.923-0.516-1.427-1.015-0.279-0.276-0.4-0.436-0.545-0.718-0.061-0.119-0.192-0.349-0.291-0.511-0.246-0.404-0.312-0.526-0.394-0.73-0.074-0.184-0.21-0.681-0.309-1.13l-0.058-0.266-0.035-1.908 0.049-0.268c0.067-0.371 0.074-0.343-0.084-0.358-0.073-0.007-0.275-0.013-0.448-0.013l-0.315-0-0.569-0.185 0.138-0.016c0.136-0.015 0.755-0.020 1.107-0.008 0.213 0.007 0.28-0.002 0.28-0.040 0-0.036-0.002-0.036 0.379 0.026l0.33 0.054v0.053c0 0.037 0.013 0.056 0.044 0.066 0.043 0.013 0.043 0.014-0.010 0.033-0.031 0.012-0.057 0.038-0.062 0.063-0.004 0.023-0.022 0.127-0.039 0.229s-0.044 0.252-0.061 0.332c-0.024 0.121-0.028 0.296-0.021 1.033 0.010 0.982 0.012 1.010 0.148 1.536 0.17 0.66 0.316 1.013 0.603 1.456 0.077 0.119 0.182 0.301 0.234 0.403 0.146 0.293 0.295 0.502 0.53 0.744 0.295 0.305 0.58 0.547 0.864 0.735 0.395 0.261 0.478 0.296 1.528 0.643 0.563 0.186 0.726 0.231 1.102 0.305 0.242 0.048 0.521 0.093 0.62 0.1l0.179 0.013 0.013-0.646c0.017-0.837 0.046-1.482 0.082-1.826 0.036-0.35 0.037-0.821 0.001-1.067-0.032-0.22-0.046-0.457-0.061-1.028-0.013-0.499-0.127-2.142-0.16-2.306l-0.011-0.053 0.137 0.011c0.1 0.008 0.163 0.003 0.234-0.021 0.161-0.053 0.42-0.093 0.462-0.070 0.020 0.011 0.037 0.027 0.037 0.037 0 0.024-0.125 0.080-0.178 0.080-0.051 0-0.051 0.009 0.017 0.502 0.080 0.583 0.131 1.387 0.131 2.066 0 0.987-0.011 1.423-0.040 1.647-0.044 0.333-0.085 1.113-0.098 1.845-0.006 0.373-0.016 0.705-0.021 0.738-0.016 0.103-0.003 0.108 0.267 0.088 0.389-0.028 0.678-0.084 0.908-0.178 0.111-0.045 0.327-0.126 0.478-0.18s0.348-0.136 0.436-0.183c0.167-0.088 0.674-0.436 0.961-0.659 1.059-0.824 1.288-1.041 1.577-1.492 0.095-0.148 0.266-0.393 0.38-0.544 0.3-0.396 0.327-0.439 0.433-0.688 0.114-0.265 0.387-1.086 0.469-1.407 0.157-0.618 0.207-0.928 0.194-1.205-0.007-0.146-0.003-0.216 0.012-0.226 0.012-0.008 0.062-0.019 0.111-0.025l0.089-0.011-0.084-0.027c-0.046-0.015-0.077-0.033-0.069-0.040 0.028-0.023 0.405-0.117 0.586-0.146 0.097-0.015 0.311-0.034 0.476-0.041 0.29-0.012 0.302-0.011 0.393 0.035 0.052 0.026 0.218 0.098 0.369 0.16 0.42 0.172 0.421 0.168-0.039 0.168-0.434 0-0.787 0.025-0.949 0.068-0.091 0.024-0.117 0.024-0.185-0-0.1-0.035-0.114-0.035-0.114 0.001 0 0.016-0.021 0.043-0.047 0.060-0.043 0.028-0.046 0.040-0.037 0.164 0.011 0.15-0.018 0.404-0.074 0.653-0.021 0.092-0.061 0.273-0.089 0.403-0.063 0.29-0.375 1.276-0.494 1.56-0.112 0.266-0.126 0.289-0.398 0.642-0.124 0.162-0.293 0.394-0.375 0.515-0.286 0.424-0.577 0.717-1.132 1.14-0.152 0.115-0.333 0.261-0.403 0.322s-0.243 0.191-0.384 0.287c-0.707 0.482-0.768 0.517-1.177 0.665-0.139 0.050-0.348 0.131-0.464 0.179-0.227 0.094-0.426 0.135-0.818 0.168-0.119 0.010-0.3 0.027-0.403 0.038s-0.233 0.020-0.29 0.020l-0.103 0-0.001 0.093c-0.006 0.516-0.001 2.783 0.007 2.791 0.005 0.005 0.261 0.040 0.568 0.077 0.904 0.109 1.152 0.156 1.79 0.341 0.802 0.232 0.991 0.338 1.503 0.843 0.303 0.299 0.319 0.319 0.422 0.522 0.105 0.207 0.134 0.25 0.389 0.581 0.069 0.089 0.155 0.218 0.192 0.285 0.091 0.168 0.199 0.494 0.284 0.86 0.021 0.092 0.057 0.244 0.079 0.337 0.049 0.204 0.069 0.331 0.11 0.706 0.067 0.597-0.003 2.695-0.107 3.221-0.194 0.983-0.455 1.535-0.939 1.989-0.189 0.177-0.359 0.295-0.958 0.664-0.357 0.22-0.404 0.244-0.57 0.283-0.1 0.023-0.27 0.064-0.378 0.090s-0.292 0.057-0.409 0.068c-0.117 0.012-0.312 0.047-0.433 0.078-0.144 0.037-0.337 0.068-0.555 0.088-0.355 0.033-0.536 0.054-0.781 0.091l-0.152 0.023 0.011 0.533c0.006 0.293 0.024 0.67 0.040 0.838s0.033 0.482 0.039 0.698c0.005 0.216 0.015 0.43 0.020 0.475l0.010 0.082 0.102 0.014c0.056 0.008 0.204 0.039 0.329 0.069s0.283 0.065 0.352 0.078c0.184 0.033 0.382 0.112 0.47 0.188 0.111 0.095 0.334 0.437 0.41 0.628 0.152 0.382 0.137 0.868-0.041 1.355-0.053 0.144-0.088 0.208-0.22 0.396-0.128 0.183-0.195 0.235-0.429 0.335-0.167 0.071-0.255 0.096-0.393 0.112-0.098 0.011-0.245 0.041-0.326 0.065-0.181 0.055-0.475 0.071-0.894 0.048zM11.020 29.807c0.122-0.035 0.183-0.043 0.262-0.033 0.095 0.012 0.11 0.008 0.203-0.055 0.055-0.037 0.14-0.088 0.189-0.113 0.11-0.057 0.187-0.137 0.302-0.318 0.202-0.319 0.3-0.579 0.332-0.89 0.050-0.48-0.076-0.876-0.371-1.167-0.145-0.143-0.219-0.192-0.39-0.258-0.142-0.055-0.378-0.111-0.413-0.098-0.012 0.004-0.016 0.060-0.010 0.14 0.014 0.193-0.050 1.185-0.090 1.376-0.019 0.094-0.261 0.298-0.327 0.276-0.029-0.010-0.025-0.154 0.016-0.546 0.044-0.423 0.054-0.757 0.027-0.956-0.013-0.096-0.027-0.178-0.031-0.182-0.014-0.014-0.21 0.058-0.402 0.147-0.208 0.097-0.302 0.177-0.462 0.391-0.211 0.283-0.244 0.372-0.256 0.698-0.011 0.285 0.020 0.496 0.106 0.73 0.137 0.373 0.247 0.541 0.451 0.683 0.151 0.105 0.209 0.133 0.399 0.19 0.183 0.055 0.226 0.054 0.464-0.016zM11.812 23.786c0.146-0.037 0.336-0.072 0.422-0.080 0.23-0.020 0.363-0.045 0.556-0.108 0.095-0.031 0.212-0.063 0.261-0.070 0.113-0.018 0.149-0.037 0.482-0.249 0.488-0.311 0.793-0.535 0.987-0.727 0.256-0.253 0.47-0.564 0.575-0.837 0.204-0.531 0.297-0.961 0.346-1.6 0.017-0.222 0.041-0.527 0.053-0.679s0.024-0.625 0.027-1.052c0.005-0.914-0.019-1.198-0.15-1.77-0.112-0.487-0.144-0.617-0.199-0.797-0.082-0.271-0.148-0.393-0.374-0.696-0.144-0.193-0.213-0.306-0.31-0.504-0.1-0.206-0.117-0.229-0.382-0.499-0.389-0.396-0.625-0.569-0.858-0.628-0.252-0.064-0.752-0.146-1.227-0.201-0.483-0.056-0.666-0.090-0.954-0.178-0.069-0.021-0.136-0.038-0.149-0.038-0.019 0-0.027 0.151-0.037 0.644-0.008 0.4-0.024 0.726-0.042 0.861-0.064 0.46-0.078 1.127-0.077 3.482 0.001 1.903 0.007 2.39 0.034 2.813 0.037 0.59 0.067 1.217 0.092 1.957 0.010 0.287 0.027 0.61 0.037 0.718s0.020 0.227 0.020 0.264l0.001 0.067 0.301-0.013c0.247-0.011 0.348-0.025 0.566-0.079zM29.673 29.898c-0.027-0.004-0.133-0.021-0.236-0.038s-0.299-0.038-0.435-0.047c-0.225-0.014-0.261-0.022-0.383-0.082-0.198-0.097-0.362-0.271-0.469-0.498-0.18-0.379-0.314-0.777-0.394-1.162-0.018-0.087-0.041-0.193-0.051-0.236s-0.037-0.242-0.058-0.443c-0.042-0.385-0.085-0.59-0.166-0.793-0.070-0.175-0.304-0.628-0.408-0.791-0.049-0.076-0.135-0.231-0.193-0.344-0.13-0.257-0.16-0.304-0.323-0.511-0.241-0.306-0.268-0.334-0.46-0.477-0.105-0.079-0.226-0.171-0.27-0.205-0.071-0.056-0.394-0.239-0.678-0.383-0.103-0.052-0.121-0.055-0.389-0.055l-0.28-0-0 0.113c-0 0.062 0.010 0.361 0.022 0.664 0.017 0.409 0.017 1.026 0.001 2.4-0.022 1.84-0.024 1.908-0.091 2.211l-0.013 0.061 0.41 0c0.225 0 0.445 0.009 0.488 0.020s0.196 0.025 0.34 0.032c0.143 0.007 0.257 0.017 0.252 0.021s-0.073 0.015-0.153 0.023l-0.144 0.014 0.138 0.014c0.177 0.018 0.271 0.033 0.263 0.041s-1.526 0.034-1.866 0.032c-0.609-0.003-0.888-0.023-1.19-0.084-0.162-0.033-0.299-0.064-0.305-0.069s0.247-0.007 0.561-0.004c0.605 0.006 0.955-0.012 0.953-0.048-0.001-0.012-0.009-0.066-0.020-0.12s-0.026-0.736-0.036-1.515c-0.011-0.909-0.029-1.579-0.049-1.869-0.017-0.249-0.040-0.638-0.051-0.866-0.019-0.409-0.063-1.076-0.071-1.088-0.002-0.003-0.14 0.018-0.306 0.047-0.491 0.085-0.652 0.146-1.068 0.406-0.437 0.272-0.833 0.624-1.095 0.972-0.173 0.23-0.222 0.305-0.428 0.667-0.358 0.63-0.486 0.926-0.721 1.672-0.119 0.376-0.256 0.642-0.573 1.111-0.157 0.233-0.308 0.453-0.334 0.491-0.144 0.202-0.522 0.539-0.688 0.613-0.064 0.029-0.157 0.038-0.472 0.049-0.42 0.014-0.632 0.002-0.69-0.041-0.069-0.051-0.003-0.078 0.195-0.079 0.109-0.001 0.201-0.012 0.23-0.027 0.21-0.111 0.573-0.478 0.792-0.803 0.089-0.132 0.223-0.329 0.298-0.439s0.15-0.224 0.167-0.254c0.125-0.221 0.228-0.449 0.289-0.636 0.075-0.231 0.259-0.769 0.312-0.916 0.033-0.091 0.33-0.719 0.364-0.769 0.011-0.016 0.051-0.087 0.089-0.157 0.227-0.422 0.439-0.712 0.787-1.080 0.201-0.212 0.544-0.492 0.761-0.622 0.507-0.303 0.645-0.349 1.324-0.44 0.162-0.022 0.396-0.046 0.519-0.053l0.224-0.014-0.012-0.228c-0.037-0.674-0.052-1.278-0.043-1.655 0.006-0.233 0.015-0.675 0.021-0.984s0.024-0.91 0.040-1.338c0.016-0.427 0.043-1.171 0.060-1.652s0.039-1.088 0.049-1.348c0.010-0.26 0.018-0.821 0.018-1.247l0.001-0.775-0.369 0.012c-0.606 0.019-1.798-0.016-2.1-0.062-0.558-0.085-0.9-0.186-1.21-0.356-0.114-0.063-0.289-0.154-0.39-0.204-0.223-0.11-0.321-0.177-0.519-0.351-0.191-0.168-0.301-0.321-0.458-0.64-0.149-0.301-0.286-0.592-0.286-0.607 0-0.006-0.013-0.039-0.028-0.073-0.25-0.55-0.295-0.718-0.337-1.262-0.030-0.398-0.025-1.316 0.009-1.474 0.012-0.053 0.019-0.099 0.016-0.102s-0.186-0.007-0.408-0.010l-0.403-0.005-0.006 0.058c-0.009 0.093-0.063 0.265-0.112 0.363-0.083 0.163-0.279 0.307-0.495 0.362-0.302 0.077-0.639 0.073-0.834-0.011-0.18-0.078-0.401-0.409-0.449-0.675-0.084-0.461 0.088-1.053 0.35-1.207 0.087-0.051 0.102-0.054 0.357-0.053 0.289 0.001 0.449 0.033 0.753 0.15 0.2 0.077 0.275 0.139 0.266 0.221-0.005 0.050 0.002 0.062 0.035 0.067s0.047 0.031 0.073 0.138c0.017 0.072 0.037 0.167 0.043 0.21s0.017 0.109 0.022 0.145l0.010 0.067 0.299-0.012c0.164-0.007 0.356-0.024 0.426-0.037l0.128-0.025 0.024-0.167c0.013-0.092 0.029-0.22 0.035-0.285 0.030-0.342 0.060-0.475 0.19-0.856 0.083-0.243 0.243-0.745 0.279-0.875 0.015-0.055 0.128-0.366 0.151-0.413 0.010-0.022 0.055-0.128 0.1-0.236 0.153-0.369 0.345-0.743 0.51-0.993 0.271-0.413 0.338-0.491 0.823-0.958 0.42-0.405 0.495-0.47 0.673-0.577 0.059-0.036 0.157-0.103 0.216-0.149 0.11-0.084 0.45-0.285 0.651-0.383 0.177-0.087 0.422-0.154 0.709-0.195 0.422-0.061 0.98-0.018 1.041 0.080 0.006 0.011 0.083 0.030 0.17 0.042l0.159 0.023 0.023 0.168c0.013 0.093 0.045 0.288 0.071 0.434 0.11 0.605 0.122 0.893 0.137 3.187 0.010 1.557 0.025 2.16 0.060 2.333 0.007 0.035 0.032 0.045 0.179 0.066 0.094 0.014 0.216 0.041 0.271 0.061s0.185 0.058 0.287 0.085c0.24 0.064 0.947 0.286 1.151 0.361 0.229 0.085 0.344 0.148 0.485 0.267 0.172 0.145 0.333 0.262 0.384 0.278 0.062 0.020 0.264 0.243 0.337 0.373 0.15 0.265 0.187 0.475 0.237 1.321 0.017 0.297-0.017 0.433-0.206 0.82-0.157 0.32-0.406 0.59-0.853 0.924-0.287 0.215-0.47 0.303-0.836 0.402-0.108 0.029-0.259 0.070-0.334 0.091s-0.296 0.050-0.493 0.066c-0.196 0.015-0.369 0.033-0.385 0.040-0.025 0.010-0.032 0.138-0.045 0.91-0.009 0.495-0.018 0.943-0.021 0.997s-0.011 0.262-0.018 0.462c-0.007 0.2-0.021 0.532-0.031 0.738s-0.023 0.599-0.030 0.875c-0.006 0.276-0.020 0.621-0.030 0.767-0.039 0.549-0.060 1.224-0.071 2.321-0.011 1.056-0.003 1.417 0.046 2.136l0.012 0.179 0.228 0.013c0.392 0.022 0.695 0.104 1.045 0.285 0.081 0.042 0.249 0.128 0.374 0.192 0.542 0.278 1.086 0.808 1.337 1.306 0.041 0.081 0.12 0.216 0.175 0.299s0.188 0.325 0.296 0.537c0.215 0.423 0.272 0.606 0.317 1.003 0.066 0.592 0.18 1.105 0.327 1.468 0.050 0.123 0.106 0.264 0.126 0.314 0.143 0.358 0.389 0.569 0.717 0.618 0.102 0.015 0.186 0.041 0.236 0.072 0.043 0.027 0.13 0.069 0.192 0.094s0.113 0.053 0.113 0.063c0 0.017-0.177 0.020-0.275 0.004zM18.17 29.74c-0.024-0.005-0.064-0.005-0.089 0s-0.004 0.009 0.044 0.009c0.049 0 0.069-0.004 0.044-0.009zM23.838 14.161l0.195-0.013-0.012-1.123c-0.006-0.618-0.025-1.389-0.041-1.713s-0.034-0.816-0.040-1.092c-0.006-0.276-0.017-0.591-0.024-0.7l-0.013-0.198-0.238-0.023c-0.131-0.013-0.38-0.051-0.553-0.086l-0.315-0.063-1.003-0.003c-0.578-0.002-1.091-0.012-1.21-0.025-0.114-0.012-0.473-0.022-0.799-0.023l-0.592-0.001-0.022 0.103c-0.012 0.057-0.033 0.152-0.045 0.211-0.050 0.233-0.030 1.251 0.033 1.698 0.034 0.241 0.072 0.364 0.209 0.673 0.053 0.119 0.096 0.223 0.096 0.232s0.054 0.128 0.12 0.266c0.066 0.138 0.134 0.286 0.151 0.329 0.116 0.296 0.389 0.646 0.642 0.825 0.147 0.104 0.573 0.345 0.771 0.437 0.176 0.081 0.652 0.24 0.764 0.255 0.078 0.010 1.004 0.037 1.486 0.043 0.135 0.002 0.334-0.003 0.441-0.010zM25.388 13.966c0.494-0.142 0.731-0.27 0.845-0.456 0.025-0.041 0.094-0.137 0.154-0.215 0.166-0.215 0.283-0.407 0.393-0.64 0.055-0.116 0.099-0.216 0.099-0.222s0.017-0.048 0.037-0.094c0.020-0.046 0.048-0.122 0.061-0.17 0.023-0.084 0.030-0.481 0.011-0.602-0.005-0.032-0.018-0.192-0.029-0.355-0.022-0.341-0.085-0.622-0.181-0.812-0.052-0.103-0.091-0.146-0.231-0.254-0.093-0.072-0.25-0.196-0.35-0.276-0.151-0.121-0.224-0.164-0.434-0.251-0.326-0.135-0.419-0.158-0.904-0.223l-0.403-0.054 0.013 0.257c0.007 0.141 0.026 0.456 0.041 0.699 0.075 1.189 0.108 2.14 0.108 3.116l0 0.687 0.195-0.013c0.152-0.010 0.28-0.037 0.575-0.122zM16.597 9.786c0.308-0.103 0.491-0.308 0.537-0.604l0.011-0.074-0.114-0.036c-0.063-0.020-0.15-0.052-0.193-0.071l-0.079-0.035 0.403 0.021v-0.104c0-0.057-0.014-0.193-0.031-0.303-0.028-0.181-0.037-0.205-0.1-0.271-0.038-0.039-0.114-0.096-0.168-0.126-0.089-0.048-0.112-0.053-0.233-0.043-0.155 0.013-0.226 0.045-0.308 0.138-0.084 0.096-0.138 0.217-0.194 0.439-0.042 0.166-0.048 0.222-0.038 0.381 0.018 0.285 0.062 0.41 0.219 0.624 0.087 0.119 0.107 0.123 0.288 0.063zM23.88 9.005c-0.008-0.030-0.021-1.103-0.030-2.385-0.013-1.902-0.021-2.382-0.046-2.606-0.028-0.252-0.054-0.539-0.083-0.909l-0.011-0.142-0.055 0.028c-0.030 0.016-0.111 0.038-0.18 0.049-0.391 0.064-0.823 0.255-1.176 0.521-0.058 0.044-0.162 0.12-0.23 0.168-0.224 0.16-0.664 0.56-1.163 1.056-0.233 0.231-0.353 0.393-0.669 0.902-0.037 0.060-0.141 0.283-0.271 0.58-0.040 0.092-0.081 0.185-0.091 0.207-0.052 0.116-0.184 0.496-0.263 0.757-0.018 0.059-0.084 0.268-0.147 0.462-0.146 0.455-0.176 0.594-0.228 1.084l-0.013 0.12 0.547 0.017c0.301 0.009 1.012 0.017 1.58 0.018 1.003 0 1.040 0.002 1.269 0.047 0.305 0.060 0.491 0.076 0.922 0.079l0.352 0.003z"></path>
</svg>
