<!-- Generated by IcoMoon.io -->
<svg version="1.1" xmlns="http://www.w3.org/2000/svg" width="32" height="32" viewBox="0 0 32 32">
<title>san_juan</title>
<path d="M3.358 30.961c0.018-0.036 0.090-0.164 0.434-0.778 0.070-0.125 0.247-0.441 0.393-0.704s0.286-0.512 0.311-0.555c0.025-0.043 0.143-0.255 0.262-0.471s0.264-0.477 0.322-0.578c0.057-0.102 0.189-0.338 0.292-0.525s0.224-0.404 0.269-0.483c0.045-0.079 0.199-0.355 0.343-0.614 0.378-0.681 1.128-2.027 1.594-2.859 0.182-0.326 0.19-0.337 0.242-0.362l0.054-0.026 1.142-0.002c1.11-0.002 1.143-0.003 1.182-0.026 0.083-0.048 0.082-0.044 0.082-0.64 0-0.518 0.001-0.534 0.024-0.558s0.040-0.024 0.716-0.024h0.692l0.089 0.082 0.006 0.535c0.005 0.403 0.010 0.541 0.021 0.561 0.008 0.015 0.033 0.036 0.054 0.047 0.035 0.018 0.105 0.020 0.725 0.020 0.758-0 0.739 0.001 0.777-0.075 0.019-0.038 0.021-0.090 0.021-0.546 0-0.548-0-0.545 0.067-0.598 0.031-0.025 0.040-0.025 0.687-0.025 0.711 0 0.698-0.001 0.742 0.066 0.019 0.029 0.021 0.081 0.023 0.558 0.002 0.39 0.006 0.534 0.017 0.553 0.008 0.015 0.032 0.036 0.053 0.047 0.035 0.018 0.106 0.020 0.73 0.020 0.779-0 0.75 0.003 0.786-0.087 0.017-0.042 0.019-0.117 0.019-0.579 0-0.515 0.001-0.531 0.024-0.554s0.040-0.024 0.71-0.024h0.686l0.089 0.082 0.006 0.535c0.005 0.403 0.010 0.541 0.021 0.561 0.008 0.015 0.033 0.036 0.054 0.047 0.035 0.018 0.105 0.020 0.725 0.020 0.614-0 0.69-0.002 0.724-0.020 0.021-0.011 0.045-0.032 0.053-0.046 0.012-0.020 0.017-0.162 0.021-0.584 0.005-0.435 0.009-0.56 0.021-0.572s0.159-0.016 0.708-0.019l0.692-0.003 0.093 0.093v0.515c0 0.57 0.001 0.578 0.074 0.617 0.037 0.020 0.086 0.021 0.737 0.017 0.584-0.003 0.703-0.007 0.731-0.021 0.066-0.034 0.068-0.049 0.068-0.636 0-0.521 0.001-0.538 0.024-0.561s0.040-0.024 0.699-0.024c0.738 0 0.708-0.003 0.762 0.070 0.023 0.030 0.024 0.053 0.027 0.548 0.003 0.569 0.003 0.567 0.078 0.607 0.036 0.020 0.096 0.021 0.832 0.021 0.738 0 0.796 0.001 0.826 0.021 0.059 0.039 0.039-0.023 0.437 1.315 0.131 0.439 0.284 0.952 0.34 1.139s0.159 0.53 0.228 0.763c0.069 0.233 0.163 0.544 0.208 0.692 0.117 0.386 0.098 0.322 0.453 1.509 0.067 0.223 0.169 0.561 0.226 0.751 0.155 0.508 0.537 1.788 0.537 1.798 0 0.005-1.024 0.009-2.277 0.009h-2.277l-0.014-0.104c-0.032-0.234-0.126-0.551-0.235-0.796-0.255-0.57-0.709-1.009-1.304-1.262-0.378-0.161-0.743-0.238-1.126-0.238-0.414 0-0.718 0.072-1.097 0.259-0.657 0.325-1.136 0.851-1.347 1.479-0.061 0.183-0.13 0.484-0.141 0.614l-0.003 0.042-2.448 0.006-0.013-0.075c-0.007-0.041-0.024-0.147-0.038-0.236-0.035-0.22-0.072-0.355-0.142-0.517-0.147-0.338-0.318-0.58-0.598-0.849-0.394-0.378-0.914-0.618-1.513-0.698-0.145-0.019-0.497-0.020-0.644-0.001-0.676 0.088-1.235 0.386-1.667 0.89-0.351 0.41-0.569 0.903-0.595 1.346l-0.008 0.138h-7.618l0.020-0.039zM18.074 28.581c0.184-0.008 0.209-0.012 0.272-0.040 0.088-0.040 0.198-0.145 0.245-0.233 0.104-0.195 0.065-0.441-0.095-0.594-0.078-0.075-0.127-0.104-0.215-0.13-0.059-0.017-0.141-0.019-0.662-0.016l-0.595 0.003-0.078 0.038c-0.079 0.039-0.167 0.113-0.211 0.177-0.014 0.020-0.037 0.071-0.051 0.113-0.022 0.065-0.025 0.096-0.021 0.199 0.005 0.111 0.009 0.13 0.049 0.211 0.051 0.103 0.128 0.18 0.232 0.23 0.061 0.030 0.085 0.033 0.247 0.040 0.256 0.011 0.647 0.011 0.883 0.001zM17.121 28.353c-0.094-0.013-0.159-0.059-0.203-0.144-0.030-0.059-0.033-0.075-0.029-0.158 0.006-0.121 0.042-0.177 0.146-0.229l0.072-0.036h0.537c0.618 0 0.609-0.001 0.703 0.103 0.129 0.143 0.090 0.346-0.082 0.434l-0.070 0.036-0.502 0.002c-0.276 0.001-0.533-0.002-0.572-0.008zM15.966 28.532c0.092-0.049 0.149-0.111 0.198-0.214 0.033-0.070 0.037-0.091 0.037-0.18-0.001-0.125-0.034-0.207-0.124-0.303-0.089-0.094-0.179-0.133-0.31-0.132-0.169 0.001-0.289 0.066-0.377 0.204-0.082 0.128-0.094 0.276-0.034 0.407 0.084 0.183 0.225 0.268 0.429 0.261 0.095-0.003 0.116-0.008 0.182-0.044zM15.643 28.298c-0.107-0.144-0.118-0.235-0.037-0.311 0.126-0.119 0.369-0.041 0.369 0.119-0 0.060-0.028 0.115-0.107 0.21-0.055 0.066-0.063 0.072-0.108 0.072-0.047 0-0.051-0.003-0.116-0.090zM11.109 27.614c0.098-0.039 0.145-0.071 0.211-0.141 0.142-0.153 0.192-0.401 0.117-0.59-0.055-0.141-0.194-0.27-0.346-0.322-0.075-0.026-0.094-0.027-0.667-0.030-0.385-0.003-0.619 0.001-0.674 0.009-0.229 0.035-0.414 0.207-0.461 0.43-0.008 0.035-0.011 0.105-0.008 0.154 0.019 0.27 0.198 0.471 0.462 0.517 0.016 0.003 0.314 0.005 0.662 0.004l0.632-0.002zM9.719 27.399c-0.123-0.043-0.22-0.179-0.22-0.311 0-0.114 0.073-0.235 0.177-0.29 0.049-0.026 0.056-0.026 0.674-0.030 0.716-0.004 0.703-0.005 0.801 0.092 0.071 0.071 0.1 0.152 0.092 0.256-0.009 0.118-0.071 0.209-0.181 0.267l-0.061 0.032-0.608 0.003c-0.572 0.003-0.612 0.001-0.674-0.020zM17.813 27.369c0.072-0.021 0.151-0.087 0.187-0.154 0.035-0.066 0.037-0.208 0.004-0.27-0.031-0.058-0.088-0.117-0.145-0.147-0.045-0.024-0.067-0.026-0.356-0.029-0.337-0.004-0.372 0.001-0.456 0.065-0.024 0.018-0.059 0.060-0.078 0.093-0.030 0.051-0.035 0.073-0.035 0.147-0 0.124 0.055 0.219 0.159 0.273 0.067 0.035 0.094 0.038 0.378 0.039 0.216 0.001 0.295-0.003 0.34-0.017zM17.2 27.119l-0.045-0.041 0.084-0.084 0.119-0.001c0.358-0.004 0.359-0.004 0.399 0.039 0.020 0.021 0.036 0.042 0.036 0.046s-0.016 0.024-0.035 0.045l-0.035 0.037h-0.48zM15.918 26.17c0.105-0.014 0.19-0.055 0.245-0.119 0.050-0.058 0.069-0.117 0.069-0.212 0-0.134-0.058-0.235-0.169-0.295-0.058-0.032-0.078-0.035-0.252-0.046-0.251-0.016-0.531 0.002-0.601 0.038-0.196 0.1-0.243 0.383-0.089 0.536 0.082 0.081 0.121 0.091 0.401 0.099 0.138 0.004 0.264 0.008 0.28 0.009s0.069-0.003 0.116-0.009zM15.306 25.903c-0.049-0.049-0.051-0.077-0.007-0.124s0.099-0.054 0.387-0.048c0.241 0.005 0.24 0.004 0.297 0.084l0.023 0.032-0.092 0.097h-0.567zM9.513 26.126c0.076-0.036 0.129-0.097 0.153-0.176 0.062-0.208-0.070-0.381-0.305-0.398-0.090-0.006-0.148 0.016-0.215 0.083-0.098 0.098-0.12 0.23-0.059 0.352 0.082 0.163 0.254 0.219 0.426 0.138zM9.319 25.902c-0.037-0.037-0.036-0.044 0.002-0.089 0.040-0.047 0.063-0.046 0.113 0.006l0.041 0.043-0.041 0.035c-0.050 0.042-0.076 0.044-0.114 0.005zM23.483 25.469c0.107-0.043 0.193-0.112 0.253-0.202 0.080-0.121 0.096-0.176 0.097-0.337 0.001-0.135-0-0.14-0.041-0.22-0.056-0.111-0.152-0.206-0.264-0.261-0.13-0.064-0.207-0.070-0.862-0.064-0.547 0.005-0.564 0.006-0.639 0.032-0.306 0.107-0.448 0.406-0.344 0.726 0.041 0.127 0.137 0.238 0.258 0.3 0.116 0.059 0.131 0.060 0.826 0.058 0.646-0.002 0.65-0.003 0.717-0.030zM22.092 25.254c-0.14-0.048-0.22-0.164-0.219-0.317 0-0.13 0.068-0.231 0.193-0.288l0.075-0.034h0.596c0.553 0 0.601 0.002 0.661 0.022 0.089 0.031 0.171 0.114 0.197 0.199 0.040 0.134 0.013 0.249-0.082 0.34-0.105 0.102-0.089 0.1-0.769 0.1-0.533-0-0.597-0.002-0.652-0.021zM15.545 25.099c0.072-0.033 0.13-0.087 0.165-0.151 0.020-0.038 0.025-0.069 0.026-0.149 0-0.092-0.003-0.108-0.036-0.167-0.041-0.073-0.118-0.134-0.2-0.157-0.032-0.009-0.159-0.014-0.366-0.014-0.373-0-0.41 0.007-0.501 0.099-0.133 0.133-0.125 0.379 0.015 0.493 0.091 0.074 0.133 0.080 0.504 0.077 0.32-0.003 0.336-0.004 0.394-0.030zM14.815 24.852l-0.052-0.054 0.033-0.041c0.019-0.024 0.051-0.046 0.075-0.053 0.055-0.015 0.471-0.015 0.527 0 0.027 0.007 0.056 0.028 0.075 0.053l0.032 0.041-0.027 0.037c-0.049 0.067-0.067 0.071-0.351 0.071h-0.259l-0.052-0.054zM16.434 24.923c0.072-0.025 0.124-0.069 0.163-0.134 0.029-0.050 0.033-0.068 0.033-0.159 0-0.098-0.002-0.106-0.042-0.164-0.11-0.162-0.311-0.192-0.467-0.071-0.141 0.109-0.142 0.358-0.002 0.473 0.084 0.069 0.211 0.091 0.315 0.055zM16.292 24.708c-0.046-0.052-0.046-0.078-0.004-0.126l0.033-0.037 0.038 0.032c0.021 0.018 0.038 0.044 0.038 0.057 0 0.020-0.054 0.116-0.066 0.116-0.002 0-0.020-0.019-0.040-0.042zM12.721 22.771l-0.32-0.006-0.058-0.067-0.001-1.35c-0.001-0.742-0-1.363 0.001-1.38s0.011-0.039 0.021-0.051c0.018-0.020 0.28-0.021 5.2-0.021 3.688 0 5.188 0.004 5.205 0.013 0.052 0.028 0.053 0.050 0.051 0.81-0.001 0.397-0.003 0.731-0.004 0.742-0.003 0.046-0.044 0.069-0.129 0.069-0.088 0-0.114 0.013-0.134 0.064-0.008 0.021-0.012 0.23-0.012 0.579 0 0.505-0.002 0.548-0.021 0.573l-0.021 0.026-0.506-0.001c-0.55-0.001-0.536 0-0.581-0.069-0.019-0.029-0.021-0.079-0.024-0.551-0.002-0.344-0.008-0.531-0.017-0.553-0.028-0.070 0.001-0.068-0.97-0.068-1.001 0-0.948-0.005-0.973 0.086-0.009 0.034-0.012 0.211-0.010 0.569 0.003 0.39-0 0.526-0.011 0.546-0.008 0.014-0.032 0.031-0.053 0.036s-0.257 0.007-0.524 0.003l-0.486-0.006-0.066-0.066-0.012-1.099-0.078-0.070-0.891 0c-0.684 0-0.898 0.004-0.92 0.015-0.016 0.008-0.040 0.030-0.054 0.048-0.024 0.033-0.025 0.047-0.028 0.555-0.003 0.57-0 0.545-0.075 0.6-0.027 0.020-0.068 0.021-0.523 0.023-0.477 0.001-0.494 0-0.517-0.022s-0.024-0.042-0.025-0.577c-0.001-0.511-0.003-0.556-0.023-0.586-0.012-0.018-0.035-0.038-0.051-0.044-0.018-0.007-0.383-0.011-0.918-0.011-0.978 0-0.943-0.003-0.969 0.073-0.009 0.026-0.013 0.21-0.013 0.566 0 0.306-0.005 0.541-0.011 0.558-0.011 0.028-0.080 0.060-0.114 0.052-0.007-0.001-0.156-0.005-0.332-0.009zM12.108 19.657c-0.062-0.018-0.076-0.059-0.071-0.214 0.004-0.117 0.007-0.135 0.030-0.158l0.026-0.026 5.462-0.003c4.87-0.003 5.466-0.001 5.497 0.015 0.041 0.021 0.044 0.032 0.052 0.185 0.007 0.132-0.003 0.163-0.064 0.194-0.039 0.020-0.324 0.021-5.468 0.020-3.328-0.001-5.441-0.005-5.465-0.012zM12.395 19.014c-0.014-0.006-0.033-0.023-0.041-0.038-0.021-0.038-0.020-6.303 0-6.342 0.008-0.014 0.027-0.031 0.044-0.037 0.042-0.016 10.32-0.015 10.362 0.001 0.070 0.027 0.066-0.191 0.063 3.233l-0.003 3.138-0.067 0.058-5.166-0.001c-2.946-0-5.178-0.005-5.192-0.011zM16.070 17.607c0.069-0.026 0.090-0.073 0.089-0.209-0.001-0.179-0.013-0.231-0.061-0.275-0.029-0.026-0.059-0.041-0.097-0.047-0.098-0.015-0.092 0.051-0.092-0.928 0-0.966-0.002-0.936 0.077-0.969 0.027-0.011 0.084-0.018 0.164-0.018 0.067 0 0.142-0.005 0.166-0.012 0.088-0.025 0.112-0.091 0.093-0.256-0.062-0.52-0.442-0.965-0.977-1.143-0.278-0.093-0.643-0.090-0.94 0.008-0.396 0.13-0.738 0.439-0.872 0.788-0.069 0.179-0.121 0.47-0.096 0.535 0.024 0.063 0.062 0.075 0.24 0.077 0.089 0.001 0.174 0.002 0.188 0.003s0.038 0.012 0.051 0.025c0.023 0.023 0.024 0.040 0.024 0.929 0 1.026 0.008 0.946-0.099 0.966-0.068 0.012-0.122 0.058-0.141 0.12-0.007 0.024-0.011 0.108-0.009 0.193 0.004 0.141 0.006 0.153 0.033 0.182 0.016 0.017 0.046 0.036 0.066 0.042 0.021 0.006 0.482 0.010 1.092 0.009 0.9-0.002 1.063-0.005 1.103-0.020zM14.052 17.482c-0.019-0.013-0.026-0.033-0.030-0.078-0.004-0.060-0.004-0.060 0.044-0.084 0.047-0.023 0.077-0.023 0.906-0.023 0.817 0 0.86 0.001 0.908 0.023l0.050 0.023-0.006 0.064c-0.004 0.040-0.013 0.069-0.025 0.078-0.015 0.012-0.218 0.015-0.921 0.015-0.779 0-0.905-0.002-0.927-0.018zM14.388 17.086c-0.127-0.018-0.142-0.047-0.147-0.278-0.005-0.249 0.012-0.496 0.039-0.547 0.014-0.027 0.039-0.048 0.076-0.064 0.049-0.022 0.080-0.025 0.249-0.026 0.186-0.001 0.194 0 0.221 0.026l0.027 0.027v0.765l-0.047 0.040c-0.044 0.037-0.054 0.040-0.161 0.047-0.063 0.004-0.138 0.009-0.168 0.011s-0.070 0.002-0.089-0.001zM15.146 17.067c-0.069-0.024-0.071-0.035-0.066-0.434 0.005-0.392 0.006-0.394 0.075-0.441 0.026-0.017 0.064-0.022 0.205-0.026 0.208-0.005 0.265 0.006 0.299 0.061 0.023 0.036 0.024 0.055 0.020 0.366-0.004 0.366-0.010 0.396-0.083 0.441-0.045 0.027-0.083 0.033-0.272 0.042-0.092 0.004-0.151 0.001-0.179-0.009zM14.373 15.939c-0.1-0.018-0.121-0.069-0.121-0.292-0-0.168 0.012-0.2 0.092-0.23 0.043-0.016 0.078-0.018 0.215-0.012 0.292 0.014 0.295 0.016 0.295 0.276 0 0.195-0.008 0.225-0.063 0.247-0.039 0.016-0.347 0.024-0.417 0.011zM15.083 15.942c-0.011-0.011-0.010-0.299 0.001-0.41 0.007-0.071 0.011-0.079 0.049-0.106 0.041-0.028 0.045-0.028 0.221-0.021 0.205 0.009 0.26 0.020 0.298 0.061 0.036 0.039 0.045 0.103 0.035 0.271-0.007 0.123-0.012 0.146-0.035 0.173l-0.027 0.031-0.267 0.005c-0.147 0.003-0.271 0.001-0.276-0.005zM15.23 15.174c-0.066-0.014-0.114-0.058-0.132-0.123-0.009-0.031-0.015-0.162-0.016-0.342l-0.002-0.292 0.071 0.003c0.142 0.005 0.306 0.115 0.422 0.283 0.067 0.097 0.105 0.191 0.116 0.287 0.008 0.071-0.012 0.157-0.041 0.172s-0.357 0.026-0.419 0.013zM14.28 15.145c-0.025-0.025-0.029-0.040-0.029-0.112 0-0.202 0.126-0.41 0.326-0.536 0.068-0.043 0.193-0.086 0.249-0.086h0.036l-0.009 0.706-0.033 0.029c-0.033 0.028-0.037 0.029-0.272 0.029-0.237 0-0.239-0-0.268-0.029zM15.941 14.899c-0.032-0.036-0.062-0.085-0.074-0.122-0.096-0.294-0.365-0.528-0.689-0.599-0.13-0.029-0.372-0.020-0.491 0.018-0.298 0.095-0.496 0.28-0.614 0.573-0.027 0.068-0.050 0.104-0.078 0.126-0.079 0.060-0.181 0.064-0.217 0.008-0.018-0.027-0.018-0.036 0.002-0.118 0.043-0.181 0.173-0.4 0.321-0.539 0.322-0.302 0.799-0.416 1.222-0.294 0.109 0.031 0.277 0.111 0.368 0.173 0.149 0.102 0.303 0.281 0.384 0.446 0.055 0.111 0.102 0.27 0.091 0.311-0.008 0.033-0.053 0.058-0.122 0.069-0.048 0.007-0.051 0.006-0.104-0.052zM21.309 17.614c0.048-0.018 0.062-0.065 0.062-0.206-0.001-0.18-0.012-0.227-0.064-0.275-0.023-0.021-0.068-0.046-0.098-0.054s-0.063-0.026-0.071-0.039c-0.013-0.020-0.016-0.189-0.017-0.901-0.001-0.559 0.003-0.888 0.011-0.908 0.023-0.061 0.063-0.074 0.221-0.075 0.207-0.002 0.214-0.002 0.244-0.031 0.027-0.025 0.028-0.030 0.021-0.171-0.016-0.33-0.163-0.632-0.431-0.884-0.193-0.182-0.436-0.308-0.699-0.363-0.175-0.036-0.433-0.037-0.605-0-0.515 0.108-0.915 0.45-1.071 0.913-0.042 0.126-0.077 0.305-0.077 0.396 0 0.065 0.004 0.081 0.028 0.105 0.034 0.034 0.112 0.047 0.251 0.041 0.093-0.004 0.102-0.002 0.149 0.031 0.028 0.019 0.055 0.044 0.062 0.056s0.011 0.365 0.011 0.877v0.856l-0.107 0.103c-0.138 0.133-0.146 0.15-0.135 0.327 0.009 0.154 0.023 0.187 0.091 0.207 0.047 0.014 2.185 0.010 2.224-0.004zM19.43 17.503c-0.191-0.005-0.168 0.008-0.192-0.108l-0.011-0.050 0.050-0.024c0.049-0.024 0.070-0.024 0.914-0.024 0.84 0 0.865 0.001 0.903 0.024 0.047 0.029 0.052 0.077 0.014 0.139l-0.025 0.040h-0.599c-0.33 0-0.663 0.002-0.741 0.004s-0.218 0.002-0.312-0zM19.566 17.078c-0.056-0.017-0.090-0.059-0.103-0.129-0.014-0.074 0.008-0.615 0.027-0.672 0.008-0.025 0.029-0.056 0.045-0.068 0.059-0.043 0.388-0.064 0.471-0.029 0.069 0.029 0.070 0.036 0.067 0.429-0.003 0.382-0.006 0.405-0.064 0.441-0.026 0.016-0.256 0.044-0.349 0.042-0.026-0-0.068-0.007-0.093-0.015zM20.346 17.068c-0.045-0.017-0.048-0.045-0.048-0.439v-0.383l0.089-0.082 0.131-0.003c0.275-0.006 0.345 0.007 0.374 0.070 0.017 0.036 0.017 0.155 0.002 0.291-0.007 0.064-0.007 0.103-0 0.108s0.013 0.082 0.014 0.174c0.005 0.271-0.007 0.281-0.327 0.277-0.117-0.001-0.223-0.006-0.235-0.011zM19.585 15.939c-0.028-0.005-0.062-0.020-0.075-0.032-0.027-0.027-0.046-0.148-0.047-0.291-0.001-0.202 0.077-0.239 0.419-0.203 0.172 0.018 0.189 0.042 0.189 0.282 0 0.164-0.013 0.216-0.058 0.234-0.038 0.015-0.358 0.024-0.428 0.011zM20.435 15.942c-0.062-0.009-0.098-0.029-0.113-0.062-0.008-0.018-0.020-0.1-0.027-0.182-0.013-0.148-0.012-0.151 0.016-0.209 0.041-0.082 0.077-0.093 0.285-0.083 0.29 0.013 0.291 0.014 0.296 0.262 0.004 0.2-0.004 0.24-0.054 0.26-0.034 0.013-0.338 0.025-0.403 0.015zM19.558 15.177c-0.11-0.020-0.124-0.2-0.030-0.394 0.093-0.193 0.291-0.346 0.475-0.368l0.068-0.008v0.705l-0.037 0.031c-0.036 0.030-0.040 0.031-0.226 0.031-0.104 0-0.196 0.002-0.205 0.004s-0.029 0.002-0.046-0.001zM20.351 15.16c-0.053-0.029-0.054-0.034-0.054-0.4v-0.35h0.035c0.059 0 0.185 0.045 0.259 0.093 0.194 0.126 0.332 0.384 0.306 0.575-0.005 0.040-0.015 0.055-0.044 0.073-0.033 0.020-0.062 0.023-0.258 0.022-0.137-0-0.23-0.005-0.244-0.013zM19.073 14.927c-0.050-0.005-0.050-0.005-0.065-0.071-0.014-0.061-0.012-0.073 0.017-0.165 0.097-0.299 0.358-0.567 0.671-0.688 0.491-0.191 0.981-0.103 1.343 0.239 0.208 0.197 0.354 0.484 0.319 0.626l-0.013 0.053-0.084 0.008c-0.113 0.011-0.134-0.005-0.183-0.138-0.057-0.153-0.116-0.244-0.236-0.363-0.123-0.123-0.254-0.199-0.419-0.246-0.133-0.038-0.342-0.038-0.475 0-0.209 0.059-0.411 0.199-0.522 0.363-0.046 0.068-0.153 0.279-0.153 0.303 0 0.006-0.015 0.025-0.033 0.042-0.035 0.033-0.086 0.044-0.166 0.037zM12.474 12.344c-0.047-0.024-0.060-0.064-0.059-0.187 0.001-0.159 0.013-0.222 0.051-0.26l0.032-0.032h10.339l0.027 0.027c0.026 0.026 0.027 0.036 0.026 0.191-0.001 0.176-0.014 0.225-0.068 0.256-0.039 0.022-10.305 0.028-10.349 0.006zM11.79 11.619c-0.036-0.011-0.086-0.052-0.104-0.086-0.006-0.011-0.019-0.063-0.029-0.115-0.015-0.078-0.044-0.188-0.084-0.315-0.006-0.020 0.285-0.021 5.999-0.021 4.009 0 6.006 0.004 6.006 0.012 0 0.017-0.090 0.34-0.116 0.418-0.013 0.040-0.034 0.073-0.055 0.088l-0.034 0.025-5.774 0.002c-3.219 0.001-5.79-0.003-5.809-0.008zM12.091 10.811c-0.032-0.028-0.040-0.046-0.047-0.104-0.011-0.089-0.013-0.687-0.003-0.809 0.007-0.081 0.012-0.097 0.043-0.127l0.035-0.035h0.704l0.067 0.067 0.009 0.241c0.005 0.133 0.005 0.354 0 0.491l-0.009 0.251-0.071 0.059h-0.69l-0.038-0.034zM13.174 10.804l-0.041-0.041-0.008-0.159c-0.004-0.087-0.006-0.308-0.004-0.491l0.004-0.332 0.028-0.023c0.027-0.022 0.075-0.023 1.863-0.023 1.346 0 1.843 0.004 1.865 0.014 0.016 0.007 0.035 0.029 0.041 0.047 0.007 0.021 0.009 0.206 0.006 0.484-0.006 0.492-0.008 0.504-0.076 0.544-0.031 0.018-0.17 0.020-1.835 0.020h-1.802zM17.19 10.804l-0.041-0.041v-0.958l0.070-0.070h0.707l0.034 0.034c0.046 0.046 0.051 0.103 0.046 0.586-0.004 0.432-0.004 0.431-0.070 0.47-0.028 0.017-0.081 0.019-0.369 0.019h-0.336zM18.252 10.828c-0.022-0.016-0.023-0.038-0.027-0.51-0.002-0.271-0.001-0.505 0.003-0.519 0.017-0.068-0.122-0.063 1.895-0.063 1.579 0 1.855 0.002 1.875 0.017 0.022 0.016 0.023 0.039 0.029 0.504 0.003 0.268 0.002 0.502-0.003 0.521-0.018 0.071 0.11 0.066-1.9 0.067-1.578 0-1.853-0.002-1.872-0.017zM22.308 10.808l-0.042-0.037v-0.951l0.074-0.084h0.68l0.081 0.081v0.461c0 0.386-0.003 0.467-0.018 0.495-0.037 0.071-0.040 0.072-0.402 0.072h-0.331zM18.649 9.497c-0.153-0.047-0.261-0.147-0.442-0.41-0.069-0.099-0.173-0.248-0.232-0.33l-0.108-0.149 0.78-0.003c0.867-0.003 0.849-0.005 0.881 0.072 0.011 0.026 0.020 0.121 0.026 0.272 0.018 0.428 0.010 0.496-0.063 0.544-0.030 0.020-0.066 0.022-0.407 0.022-0.312 0.001-0.384-0.002-0.436-0.019zM15.772 9.498c-0.013-0.005-0.037-0.024-0.054-0.042l-0.030-0.032v-0.374c0-0.362 0.001-0.375 0.025-0.408l0.025-0.034 0.74-0.003c0.588-0.002 0.747 0 0.777 0.013l0.037 0.016-0.253 0.316c-0.373 0.466-0.427 0.527-0.474 0.544s-0.754 0.020-0.792 0.004zM11.957 9.315c0.069-0.1 0.212-0.309 0.318-0.465s0.196-0.283 0.199-0.283c0.003 0 0.050 0.066 0.104 0.146s0.187 0.277 0.296 0.438c0.109 0.161 0.207 0.304 0.217 0.319l0.018 0.027h-1.278zM16.947 9.49c0-0.007 0.115-0.178 0.44-0.652 0.145-0.213 0.189-0.268 0.2-0.256 0.008 0.008 0.078 0.109 0.156 0.224s0.207 0.303 0.286 0.417c0.079 0.115 0.153 0.223 0.165 0.242l0.021 0.033h-0.633c-0.348 0-0.633-0.003-0.633-0.007zM22.051 9.49c0-0.004 0.127-0.193 0.282-0.42s0.296-0.433 0.312-0.458c0.024-0.036 0.033-0.042 0.044-0.030 0.008 0.008 0.105 0.149 0.217 0.313s0.22 0.322 0.24 0.352c0.057 0.081 0.151 0.219 0.161 0.236 0.007 0.012-0.121 0.015-0.624 0.015-0.348 0-0.633-0.003-0.633-0.007zM15.344 8.361c-0.041-0.014-0.055-0.057-0.055-0.17 0-0.125 0.019-0.176 0.072-0.194 0.049-0.017 4.407-0.020 4.452-0.002 0.041 0.015 0.054 0.068 0.051 0.207-0.002 0.103-0.005 0.119-0.029 0.143l-0.027 0.027-0.975 0.002c-0.545 0.001-0.994-0.003-1.018-0.009-0.052-0.013-0.109-0.073-0.13-0.138-0.013-0.042-0.091-0.205-0.103-0.218-0.009-0.009-0.026 0.026-0.045 0.089-0.036 0.122-0.115 0.212-0.222 0.252-0.048 0.018-0.146 0.020-0.998 0.021-0.52 0.001-0.958-0.003-0.973-0.008zM16.038 7.759l-0.271-0.004-0.035-0.035c-0.024-0.024-0.037-0.051-0.042-0.091-0.004-0.031-0.008-0.259-0.008-0.506 0-0.425 0.001-0.452 0.023-0.478l0.023-0.028 0.785-0.006c0.762-0.006 0.786-0.007 0.817-0.030 0.073-0.054 0.091-0.152 0.033-0.181-0.023-0.012-0.21-0.015-0.826-0.015l-0.797-0-0.058-0.058v-0.296c0-0.163 0.004-0.302 0.009-0.309 0.025-0.039 0.059-0.041 0.853-0.041 0.783 0 0.793-0 0.824-0.025 0.027-0.021 0.031-0.034 0.031-0.089s-0.004-0.067-0.031-0.089c-0.031-0.024-0.040-0.025-0.822-0.025-0.812 0-0.843-0.002-0.857-0.047-0.003-0.011-0.007-0.121-0.009-0.246-0.004-0.257-0.001-0.27 0.078-0.303 0.046-0.019 0.118-0.020 1.026-0.015l0.977 0.005 0.056 0.056-0.003 1.407c-0.003 1.333-0.004 1.408-0.024 1.429s-0.067 0.021-0.751 0.022c-0.402 0-0.852-0.001-1.001-0.003zM18.288 7.756c-0.173-0.007-0.209-0.021-0.232-0.087-0.009-0.025-0.013-0.458-0.013-1.399 0-1.36 0-1.362 0.025-1.394l0.025-0.031h0.707c0.703 0 0.707 0 0.73 0.025s0.023 0.065 0.023 1.437c0 1.339-0.001 1.413-0.021 1.433s-0.059 0.021-0.555 0.022c-0.293 0-0.603-0.002-0.688-0.006zM15.67 4.599c-0.010-0.004-0.039-0.020-0.064-0.036-0.054-0.034-0.099-0.123-0.142-0.279-0.036-0.131-0.039-0.391-0.006-0.51 0.097-0.351 0.332-0.594 1.112-1.147 0.079-0.056 0.216-0.153 0.304-0.216 0.171-0.122 0.48-0.3 0.578-0.334 0.133-0.046 0.231-0.022 0.465 0.113 0.775 0.447 1.058 0.644 1.363 0.953 0.201 0.204 0.32 0.392 0.392 0.618 0.029 0.091 0.032 0.12 0.032 0.274s-0.003 0.184-0.032 0.278c-0.045 0.146-0.078 0.209-0.131 0.252l-0.046 0.036-1.904 0.002c-1.047 0.001-1.912-0.001-1.922-0.005zM17.476 1.824c-0.122-0.030-0.242-0.129-0.294-0.243-0.040-0.088-0.038-0.248 0.005-0.339 0.041-0.087 0.118-0.163 0.207-0.207 0.061-0.030 0.085-0.034 0.178-0.035 0.092-0 0.117 0.004 0.175 0.031 0.258 0.121 0.335 0.425 0.164 0.643-0.049 0.063-0.149 0.126-0.231 0.147-0.083 0.021-0.121 0.022-0.205 0.001z"></path>
</svg>
