<!-- Generated by IcoMoon.io -->
<svg version="1.1" xmlns="http://www.w3.org/2000/svg" width="39" height="32" viewBox="0 0 39 32">
<title>sanity</title>
<path d="M22.298 30.992c-1.303-0.472-2.385-1.189-2.943-2.569-0.089-0.227-0.514-0.3-0.754-0.481-0.807-0.599-1.596-1.226-2.412-1.816-0.319-0.236-0.665-0.508-1.028-0.572-1.401-0.254-2.287-0.999-2.66-2.433-0.080-0.309-0.505-0.699-0.807-0.744-1.702-0.263-3.28-0.726-4.681-1.843-0.417-0.336-1.126-0.281-1.693-0.427-1.871-0.481-2.873-1.652-3.183-3.595-0.089-0.554-0.31-1.080-0.461-1.616 0-1.598 0-3.196 0-4.784 0.319-0.636 0.505-1.389 0.975-1.87 1.64-1.716 2.846-4.013 5.426-4.576 0.151-0.036 0.248-0.272 0.399-0.345 1.002-0.499 1.977-1.080 3.023-1.425 1.658-0.545 3.369-0.917 5.062-1.362 2.341 0 4.681 0 7.013 0 0.931 0.29 1.853 0.645 2.793 0.872 1.755 0.427 3.538 0.753 4.548 2.56 0.089 0.154 0.231 0.363 0.364 0.372 0.94 0.118 0.798 0.826 0.807 1.462-0.257-0.091-0.523-0.163-0.771-0.281-0.479-0.227-1.161-0.372-1.365-0.763-0.736-1.416-2.084-1.652-3.334-2.043-1.48-0.463-2.988-0.799-4.273-1.135-0.399 0.182-0.736 0.49-1.028 0.454-1.259-0.145-2.553 0.454-3.803-0.172-0.186-0.091-0.479 0.036-0.718 0.091-1.968 0.445-3.998 0.744-5.896 1.416-1.481 0.517-2.828 1.453-4.185 2.306-0.452 0.281-0.7 0.89-1.091 1.307-0.7 0.753-1.543 1.389-2.119 2.233-0.337 0.481-0.31 1.253-0.372 1.906-0.027 0.263 0.266 0.608 0.186 0.817-0.523 1.38-0.035 2.733-0.018 4.094 0.027 1.825 1.888 3.277 3.458 2.896 0.186-0.045 0.496 0.064 0.638 0.209 1.56 1.552 3.44 2.079 5.55 1.897 0.603-0.054 0.833 0.154 0.762 0.799-0.186 1.743 0.594 2.524 2.332 2.469 0.275-0.009 0.692 0.245 0.807 0.49 0.559 1.162 1.401 1.925 2.651 2.097 0.585 0.082 0.727 0.409 0.984 0.89 0.363 0.69 0.94 1.471 1.605 1.725 0.603 0.227 1.507-0.064 2.145-0.39 0.266-0.136 0.24-0.944 0.293-1.453 0.044-0.372-0.009-0.753-0.018-1.126 0.355 0.163 0.789 0.245 1.055 0.499 1.179 1.144 2.704 1.080 3.848 0.49 0.887-0.454 1.826-0.772 2.686-1.244 0.505-0.281 0.966-0.726 1.321-1.189 0.895-1.171 1.144-2.678 2.128-3.886 0.567-0.699 1.108-1.952 1.188-3.014 0.257-3.386 0.213-6.763-2.252-9.496-0.78-0.872-1.569-1.734-2.349-2.596 0.222-0.245 0.434-0.49 0.709-0.79 1.862 1.162 4.14 4.004 4.584 6.237 0.213 1.080 0.603 2.088 0.824 3.141 0 0.218 0 0.436 0 0.654-0.071 0.336-0.168 0.672-0.204 1.017-0.098 0.89 0.044 1.87-0.275 2.66-0.869 2.115-1.888 4.176-2.908 6.219-1.188 2.387-3.662 2.851-5.781 3.722-0.922 0.381-2.119 0.064-3.316 0.064-0.133 1.262-1.374 1.489-2.394 1.988-0.363-0.018-0.718-0.018-1.073-0.018zM26.625 6.743c-0.532 1.507-1.064 3.014-1.596 4.521 0.098 0.064 0.195 0.136 0.302 0.2 0.789-0.763 1.587-1.525 2.376-2.288 0.142 0.345 0.142 0.563 0.035 0.663-0.771 0.699-0.727 1.307 0.107 1.934 0.16 0.118 0.23 0.499 0.204 0.735-0.115 1.089-1.312 1.888-0.816 3.168 0.098 0.245-0.009 0.563-0.018 0.844 0.293-0.145 0.674-0.209 0.869-0.445 0.275-0.318 0.408-0.763 0.532-1.008 0.408 0.626 0.674 1.48 1.215 1.734 0.833 0.399 1.49 0.844 2.048 1.598 0.603 0.808 1.977 1.035 2.686 0.608 0.807-0.481 1.268-1.108 0.674-2.242-0.222 0.327-0.372 0.626-0.594 0.853-0.133 0.145-0.363 0.191-0.541 0.291-0.168-0.499-0.514-1.026-0.461-1.498 0.106-0.944 1.144-1.616 0.86-2.733-0.018-0.054 0.257-0.145 0.293-0.254 0.115-0.372 0.346-0.808 0.248-1.126-0.576-1.879-1.747-3.35-3.218-4.594-0.754-0.645-1.49-1.325-2.553-0.654-0.177-0.527 0.452-1.507-0.754-1.099 0.195-1.108-1.179-2.115-2.491-1.934-0.328 0.045-0.745-0.027-1.019-0.209-1.933-1.28-2.97-0.926-3.679 1.298-0.053 0.182-0.248 0.454-0.346 0.445-0.266-0.036-0.567-0.145-0.762-0.327-0.293-0.29-0.514-0.663-0.869-1.144 0.018 0.136 0.044-0.045-0.018-0.1-1.817-1.434-3.67-0.699-5.514-0.054-0.098 0.036-0.239 0.1-0.257 0.173-0.098 0.39-0.16 0.781-0.239 1.171 0.284 0.009 0.567 0.018 0.842 0.045 0.195 0.018 0.381 0.082 0.567 0.091 0.426 0.027 0.851 0.082 1.268 0.027 0.337-0.045 0.656-0.236 0.984-0.363-0.106 0.563-0.452 0.872-0.559 1.244-0.098 0.363 0.018 0.808 0.124 1.198 0.035 0.118 0.461 0.263 0.488 0.236 0.213-0.3 0.39-0.626 0.55-0.953 0.133-0.272 0.222-0.572 0.328-0.853 0.266 0.209 0.638 0.354 0.771 0.626 0.346 0.735 0.913 0.826 1.622 0.953 0.745 0.136 1.552 0.49 2.101 1.008 1.339 1.235 2.491 1.062 3.28-0.645 0.204-0.436 0.452-0.844 0.683-1.271 0.080 0.054 0.16 0.091 0.248 0.127zM32.387 11.237c-1.188-0.1-0.984 1.171-1.48 1.788-0.674-1.335-0.665-1.525 0.567-2.233 0.417-0.236 0.63-1.271 1.489-0.436 1.073 1.044 1.126 1.008-0.035 1.988-0.195-0.409-0.337-1.089-0.541-1.108zM32.246 17.129c0.284-0.899 0.576-1.788 0.94-2.932 0.541 1.126 0.195 2.215-0.94 2.932zM30.933 15.685c-0.133 0.109-0.496-0.073-0.754-0.118 0.106-0.227 0.151-0.536 0.328-0.663 0.39-0.3 0.842-0.499 1.268-0.744 0.098 0.1 0.195 0.209 0.293 0.309-0.372 0.409-0.709 0.862-1.135 1.216zM19.736 23.066c0.355 0.272 0.7 0.554 1.055 0.826 0.816 0.617 1.419 1.28 0.931 2.47-0.142 0.354 0.035 0.908 0.195 1.316 0.053 0.127 0.745 0.154 0.754 0.118 0.142-0.554 0.47-1.262 0.266-1.68-0.762-1.543-1.232-3.132-0.869-4.83 0.284-1.325 0.222-2.46-0.665-3.532-0.248-0.3-0.222-0.835-0.408-1.216-0.239-0.49-0.585-0.917-0.851-1.389-0.239-0.427-0.629-0.899-0.585-1.307 0.071-0.645-0.204-0.772-0.665-0.826-1.241-0.136-2.403 0.136-3.404 0.908-0.301 0.227-0.47 0.626-0.709 0.944 0.452 0.1 0.949 0.381 1.339 0.263 0.665-0.2 1.241-0.672 1.88-0.98 0.16-0.082 0.417 0.045 0.621 0.073-0.044 0.29 0.009 0.726-0.151 0.844-0.629 0.445-1.321 0.79-1.995 1.162-0.709 0.39-1.578 0.69-0.842 1.788 0.071 0.1 0.080 0.318 0.018 0.418-0.621 1.026-0.904 2.124-0.665 3.332 0.071 0.354 0.035 0.781 0.23 1.053 0.106 0.145 0.727 0.145 0.842-0.009 0.23-0.3 0.328-0.735 0.363-1.135 0.035-0.327-0.098-0.663-0.16-0.999 0.124-0.064 0.248-0.127 0.381-0.182 0.266 0.436 0.612 0.844 0.78 1.316 0.301 0.844 0.426 1.761 0.754 2.587 0.434 1.080 1.312 1.389 2.181 0.935-0.363-0.39-0.957-0.744-1.055-1.198-0.222-1.053-0.23-2.152-0.266-3.241-0.009-0.2 0.275-0.463 0.488-0.608 0.248-0.163 0.559-0.236 0.842-0.345-0.106-0.254-0.151-0.645-0.328-0.726-0.319-0.136-0.745-0.191-1.073-0.091s-0.603 0.418-0.949 0.681c-0.355-0.744-0.674-1.416-1.082-2.279 0.789 0.254 1.241 0.218 1.161-0.626-0.009-0.127 0.372-0.327 0.594-0.427 0.16-0.073 0.496 0.018 0.523-0.064 0.115-0.3 0.133-0.772 0.55-0.336 0.204 0.209 0.284 0.708 0.195 1.008-0.115 0.418-0.443 0.781-0.692 1.189 1.188 0.418 1.41 0.681 1.747 1.879 0.142 0.508 0.098 0.799-0.514 0.926-0.301 0.064-0.771 0.427-0.771 0.654 0 0.327 0.355 0.654 0.559 0.98 0.027 0.036 0.035 0.082 0.053 0.127-0.186 0-0.355 0-0.523 0 0 0.082-0.035 0.154-0.080 0.227zM12.599 8.65c0.16 0.1 0.709-0.073 0.771-0.254 0.293-0.763 0.674-0.735 1.232-0.318 0.124 0.091 0.461 0.073 0.541-0.027 0.151-0.2 0.337-0.617 0.248-0.717-0.204-0.245-0.541-0.39-0.851-0.527-0.603-0.254-1.463 0.009-1.684-0.971-0.346-1.552-1.401-1.961-2.447-0.79-0.692 0.772-1.321 1.244-2.341 1.325-0.364 0.027-0.692 0.545-1.020 0.862-0.275 0.272-0.514 0.581-0.771 0.862-0.621 0.672-1.286 1.316-1.853 2.034-0.133 0.172-0.080 0.626 0.044 0.862 0.496 0.908 1.099 1.562 2.279 1.725 1.445 0.2 1.605 0.163 1.312-1.371-0.062-0.354-0.115-0.89 0.071-1.071 0.461-0.427 1.037-0.899 1.614-0.98 1.064-0.145 1.605-0.599 1.543-1.861 0.55 0.527 0.887 0.944 1.312 1.217zM13.308 15.032c-0.142-0.145-0.266-0.554-0.177-0.654 0.426-0.508 0.851-1.162 1.419-1.389 1.862-0.744 3.821-0.971 5.798-0.581 0.514 0.1 1.037 0.39 1.463 0.726 0.895 0.699 1.702 1.516 2.607 2.197 0.293 0.218 0.895 0.39 1.117 0.227 0.275-0.2 0.399-0.754 0.426-1.162 0.053-0.899-0.098-1.716-1.241-1.807-0.151-0.009-0.31-0.182-0.417-0.309-1.108-1.407-2.642-1.906-4.273-1.689-2.438 0.336-4.858 0.862-7.261 1.416-0.922 0.209-1.303 1.226-0.949 2.079 0.098 0.227 0.319 0.409 0.39 0.635 0.364 1.198 1.153 1.716 2.544 1.498-0.55-0.436-1.028-0.781-1.445-1.189zM12.847 18.082c-0.142 0.054-0.337 0.2-0.426 0.154-0.532-0.272-1.011-0.699-1.56-0.881-1.046-0.345-1.622-1.017-1.924-2.088-0.151-0.554-0.47-1.307-0.895-1.48-1.17-0.463-2.438-0.663-3.936-1.035 0.532 0.926 0.523 0.908 1.037 0.536 0.071-0.045 0.355 0.1 0.443 0.227 0.151 0.218 0.213 0.49 0.319 0.754-0.239 0.027-0.541 0.054-0.851 0.109-0.514 0.091-0.913 0.127-0.39 0.862 0.301 0.418 0.053 1.18 0.585 1.625 0.213 0.182 0.293 0.599 0.514 0.672 0.239 0.082 0.567-0.127 0.86-0.191 0.222-0.045 0.514-0.136 0.665-0.045 0.355 0.227 0.656 0.545 0.966 0.844 1.498 1.489 3.307 1.825 5.284 1.498 0.718-0.118 1.294-0.926 1.073-1.571-0.098-0.291-0.443-0.49-0.674-0.726-0.124 0.145-0.23 0.336-0.39 0.436-0.204 0.127-0.461 0.2-0.7 0.3zM11.145 18.69c-1.41 0.254-3.059-2.006-3.848-3.795 1.303 1.289 2.607 2.569 3.848 3.795zM28.868 26.243c0.434-0.236 0.683-0.844 1.020-1.316 1.161 0.717 2.048 0.4 2.784-1.153 0.080-0.173 0-0.418 0-0.626-0.248 0.027-0.55-0.036-0.718 0.091-0.266 0.2-0.426 0.536-0.638 0.808-0.044-0.036-0.098-0.073-0.142-0.109 0.115-0.363 0.24-0.717 0.355-1.062-0.638-0.182-1.215-0.354-1.791-0.517 0.115-0.055 0.221-0.109 0.337-0.163 0.044-0.399 0.266-0.953 0.088-1.189-0.984-1.325-1.197 0.663-1.933 0.554 0.124-0.39 0.248-0.763 0.372-1.135-0.408 0.136-0.816 0.263-1.224 0.418-0.124 0.045-0.266 0.136-0.346 0.254-0.23 0.336-0.434 0.69-0.647 1.044 0.355 0.191 0.683 0.463 1.064 0.572 0.701 0.2 1.427 0.3 2.146 0.436-0.39 0.254-0.816 0.127-1.073 0.281-1.029 0.608-1.862 0.327-2.731-0.345-0.133-0.1-0.86 0.227-0.904 0.445-0.089 0.499 0.062 1.053 0.124 1.589 0.833-0.654 0.771 0.372 1.117 0.627 0.417 0.3 0.816 0.617 1.348 1.026 0.080-0.527 0.124-0.826 0.168-1.080 0.426 0.181 0.984 0.681 1.223 0.554zM12.847 18.082c0.168-0.218 0.346-0.436 0.567-0.717-0.186-0.109-0.355-0.218-0.532-0.3-1.995-0.944-2.766-2.769-2.057-4.893 0.035-0.1 0.115-0.227 0.195-0.254 1.8-0.545 3.6-1.089 5.408-1.616 0.709-0.209 1.303-0.518 1.41-1.643-2.722 0.508-5.355 0.953-7.962 1.507-0.842 0.182-0.931 1.008-0.904 1.761 0.018 0.499 0.106 0.999 0.204 1.498 0.355 1.906 1.117 3.504 3.094 4.158 0.213 0.054 0.381 0.318 0.576 0.499zM23.858 24.945c0.231-1.244 0.47-2.488 0.709-3.786 0.293 0.236 0.496 0.409 0.523 0.427 0.31-0.508 0.505-0.999 0.842-1.334 0.239-0.236 0.771-0.191 0.975-0.445 0.328-0.399 0.488-0.935 0.718-1.416-0.044-0.1-0.089-0.191-0.133-0.291-0.426 0.172-0.842 0.39-1.277 0.508-0.302 0.082-0.665 0.118-0.94 0.009-0.31-0.118-0.558-0.427-0.869-0.681 0.443-0.254 0.736-0.427 1.029-0.599 0.044-0.118 0.080-0.245 0.124-0.363-1.897 0.363-2.491-0.926-3.218-2.152-0.337-0.563-1.002-0.971-1.782-0.617 0.55 0.636 1.356 1.162 1.481 1.816 0.222 1.135 0.665 1.897 1.614 2.469 0.621 0.363 0.824 0.935 0.239 1.516-1.551 1.543-0.984 3.205-0.39 4.866 0.124 0.027 0.239 0.046 0.355 0.073zM34.533 20.442c0.035-0.163-0.612-0.49-0.975-0.699-0.842-0.481-1.711-0.935-2.562-1.398-0.709-0.381-1.401-0.781-2.136-1.117-0.133-0.064-0.39 0.145-0.594 0.236 0.089 0.172 0.133 0.409 0.275 0.508 0.426 0.318 0.904 0.563 1.321 0.89 0.23 0.182 0.479 0.445 0.567 0.717 0.576 1.888 0.567 1.888 2.367 1.707 0.142-0.018 0.284 0.018 0.346 0.027 0.824 0.2 1.268-0.227 1.392-0.872zM21.367 9.385c0.168-0.009 0.355-0.191 0.461-0.345 0.035-0.064-0.115-0.309-0.23-0.409-0.736-0.572-1.986-0.236-2.509 0.763 0.825 0.009 1.56 0.027 2.279-0.009z"></path>
</svg>
