<!-- Generated by IcoMoon.io -->
<svg version="1.1" xmlns="http://www.w3.org/2000/svg" width="19" height="32" viewBox="0 0 19 32">
<title>seal_d</title>
<path d="M1.31 19.263q0.16-1.344 0.832-2.128t1.888-1.2q0.16-0.128 0.32-0.224l0.32-0.192q0.32-0.064 0.64-0.16l0.64-0.192q0.064-0.032 0.096-0.032t0.064-0.032l-0.384-0.992h-0.096v-0.16q-0.192 0.064-0.384 0.096t-0.416 0.064q-0.032 0.032-0.16 0.096-0.064 0-0.16 0.016t-0.16 0.016q-0.064 0.032-0.16 0.032t-0.16 0.032h-0.096q-0.096 0-0.16 0.032h-0.288q-0.544-0.128-0.752-0.56t-0.208-0.944q-0.064-0.192-0.112-0.368t-0.048-0.368q0-0.576 0.352-0.864t0.896-0.352q0.16-0.032 0.512-0.032h0.064l0.032-0.032q0.192-0.096 0.352-0.096 0.064 0 0.32-0.064 0.512-0.096 1.024-0.16l1.024-0.128q0.16 0 0.288 0.064 0.448 0 0.64 0.32 0.544 1.152 0.992 2.352t0.768 2.448q0.128 0.256 0.208 0.576l0.144 0.576q0 0.064-0.064 0.192 0 0.512-0.448 0.608-0.064 0.032-0.128 0.032-0.16 0.192-0.352 0.256-0.64 0.064-1.248 0.256t-1.152 0.576q-0.32 0.288-0.544 0.576-0.032 0.096-0.032 0.288-0.064 0.32-0.048 0.624t0.080 0.624q0.16 0.16 0.176 0.32t0.080 0.256q0.096 0.128 0.272 0.192t0.272 0.192q0.064 0.128 0.192 0.176t0.256 0.112q0.16 0.064 0.256 0.112t0.176 0.080 0.208 0.032h0.352q0.544 0.032 0.912 0t0.496-0.064q0.352-0.096 0.816-0.352t0.912-0.608 0.816-0.736 0.528-0.704q0.192-0.416 0.24-0.832t0.048-0.768q-0.032-0.384-0.128-0.768-0.128-0.704-0.56-1.472t-0.784-1.408q-0.288-0.608-0.688-1.152t-0.56-1.216q-0.064-0.192-0.112-0.256t-0.208-0.192q-0.064-0.064-0.128-0.256t-0.128-0.288q-0.064-0.064-0.16-0.304t-0.096-0.336q0-0.256-0.080-0.416t-0.208-0.272-0.272-0.256-0.24-0.336q-0.064-0.128-0.096-0.256t-0.096-0.288q-0.096-0.384-0.16-0.544t-0.128-0.256q0.032-0.032 0.032-0.16 0.064-0.448 0.112-0.832t0.176-0.832q0.064-0.352 0.176-0.64t0.272-0.544q0.032-0.032 0.048-0.032t0.048-0.032h0.416q1.152 0.096 2.304 0.16t2.336 0.16q0.096 0.064 0.208 0.112t0.176 0.112q0.224-0.032 0.448 0.064l0.064 0.064q-0.096 0.736-0.256 1.456t-0.512 1.392q-0.064 0.032-0.112 0.064t-0.112 0.064q-0.32 0.192-0.8 0.192-0.128 0-0.448-0.064h-0.064q-0.064 0-0.080-0.016t-0.080-0.016h-0.128q0.128 0.352 0.32 0.704l0.384 0.704q0.352 0.608 0.736 1.168t0.8 1.136q0.672 0.96 1.28 2.048t0.992 2.24 0.416 2.336-0.48 2.4q-0.64 1.504-1.936 2.48t-2.864 1.424q-0.032 0-0.048 0.016t-0.080 0.016q0 0.032-0.064 0.032l-0.096 0.032q-0.224 0.064-0.432 0.080t-0.464 0.048q-0.064 0.032-0.256 0.032l0.032 0.064 0.064 0.064q-0.32 0.096-0.672 0.096 0.064 0.096 0.192 0.304t0.304 0.416 0.336 0.368 0.288 0.192q-0.192 0.192-0.448 0.192-1.76 0.224-3.456-0.32t-3.072-1.664q-0.64-0.512-1.216-1.184t-0.976-1.44-0.608-1.6-0.112-1.664z"></path>
</svg>
