<!-- Generated by IcoMoon.io -->
<svg version="1.1" xmlns="http://www.w3.org/2000/svg" width="32" height="32" viewBox="0 0 32 32">
<title>seal</title>
<path fill="#394852" d="M16 3.2c-7.060 0-12.8 5.74-12.8 12.8s5.74 12.8 12.8 12.8c7.060 0 12.8-5.74 12.8-12.8s-5.74-12.8-12.8-12.8zM16 4.8c6.195 0 11.2 5.005 11.2 11.2s-5.005 11.2-11.2 11.2c-6.195 0-11.2-5.005-11.2-11.2s5.005-11.2 11.2-11.2z"></path>
<path fill="#394852" d="M16 6.869l-2.331 2.331h-4.469v4.469l-2.331 2.331 2.331 2.331v4.469h4.469l2.331 2.331 2.331-2.331h4.469v-4.469l2.331-2.331-2.331-2.331v-4.469h-4.469zM16 9.131l1.669 1.669h3.531v3.531l1.669 1.669-1.669 1.669v3.531h-3.531l-1.669 1.669-1.669-1.669h-3.531v-3.531l-1.669-1.669 1.669-1.669v-3.531h3.531z"></path>
</svg>
