<!-- Generated by IcoMoon.io -->
<svg version="1.1" xmlns="http://www.w3.org/2000/svg" width="32" height="32" viewBox="0 0 32 32">
<title>search</title>
<path fill="#394852" d="M13 4.2c-2.648 0-4.88 0.823-6.428 2.372s-2.372 3.78-2.372 6.428c0 2.648 0.823 4.88 2.372 6.428s3.78 2.372 6.428 2.372c2.648 0 4.88-0.823 6.428-2.372s2.372-3.78 2.372-6.428c0-2.648-0.823-4.88-2.372-6.428s-3.78-2.372-6.428-2.372zM13 5.8c2.323 0 4.088 0.694 5.297 1.903s1.903 2.974 1.903 5.297c0 2.323-0.694 4.088-1.903 5.297s-2.974 1.903-5.297 1.903c-2.323 0-4.088-0.694-5.297-1.903s-1.903-2.974-1.903-5.297c0-2.323 0.694-4.088 1.903-5.297s2.974-1.903 5.297-1.903zM20.566 19.434l-1.131 1.131 7 7 1.131-1.131z"></path>
</svg>
