<!-- Generated by IcoMoon.io -->
<svg version="1.1" xmlns="http://www.w3.org/2000/svg" width="32" height="32" viewBox="0 0 32 32">
<title>secret_war</title>
<path d="M14.079 7.010c-0.004 1.321-0.131 2.638-0.107 3.959 0.024 1.229-0.047 2.492-0.129 3.726-0.046 0.681-0.13 1.337-0.036 2.018 0.083 0.597 0.133 1.179 0.162 1.78 0.033 0.676-0.064 1.328-0.064 2-0.001 0.659 0.068 1.314 0.107 1.971 0.039 0.644 0.075 1.283 0.127 1.927 0.035 0.442-0.051 0.973 0.252 1.34 0.388 0.471 0.511-0.291 0.541-0.573 0.029-0.258 0.091-1.535 0.112-1.705 0.058-0.49 0.061-0.991 0.035-1.487-0.040-0.721-0.047-1.445-0.068-2.168-0.021-0.738-0.015-1.483-0.010-2.22 0.007-0.767-0.104-1.531-0.077-2.299 0.022-0.649 0.087-1.29 0.087-1.941 0-1.13 0.076-2.248 0.126-3.383 0.024-0.543 0.028-1.102-0.018-1.643-0.030-0.359 0.011-0.729-0.040-1.085-0.022-0.161-0.206-1.578-0.619-1.433-0.174 0.062-0.462 1.276-0.382 1.215z"></path>
<path d="M16.867 4.321c0.021 0.421-0.145 0.723-0.159 1.357-0.008 0.33-0.095 0.394-0.090 0.633 0.006 0.251 0.399 1.854 0.372 2.104-0.030 0.275-0.451 0.439-0.464 0.71-0.010 0.208-0.309 0.342-0.298 0.68 0.008 0.22 0.342 0.264 0.346 0.414 0.072 0.028 1.026-0.030 1.053 0.083 0.083 0.353 0.065 0.649 0.066 0.993 0.004 0.439-0.908 1.309-0.911 1.75-0.004 0.591-0.371 0.813-0.453 1.667-0.028 0.292 0.188 0.365 0.162 0.574-0.036 0.282-0.090 0.541-0.094 0.837-0.003 0.213 0.237 0.378 0.238 0.586 0 0.349-0.062 0.627-0.037 0.98 0.041 0.583 0.307 0.904 0.249 1.805-0.014 0.228-0.548 0.266-0.555 0.417-0.006 0.144-0.026 0.227-0.014 0.418 0.058 0.858 0.638 0.825 0.68 1.683 0.012 0.298-0.519 0.328-0.568 0.536-0.058 0.246 0.036 0.54-0.004 0.79-0.033 0.212 0.111 0.386 0.119 0.586 0.007 0.172 1.035 1.178 1.067 1.311 0.057 0.244-0.174 0.519-0.13 0.767 0.053 0.302 0.309 0.58 0.39 0.873 0.033 0.118 0.183 0.335 0.313 0.235 0.197-0.152-0.019-0.411-0.006-0.484 0.046-0.259 0.444-0.489 0.45-0.752 0.015-0.572-1.048-2.017-1.035-2.591 0.006-0.263 0.267-0.608 0.234-0.867-0.019-0.152-0.163-0.306-0.191-0.458-0.048-0.259-0.289-0.482-0.278-0.742 0.025-0.52-0.098-1.040-0.086-1.559 0.012-0.552 0.053-1.084 0.136-1.629 0.023-0.161 0.309-0.213 0.276-0.324-0.059-0.192-0.019-0.183 0.007-0.415 0.026-0.241-0.118-0.346-0.162-0.541-0.109-0.469 0.115-0.945 0.064-1.429-0.014-0.133 0.233-0.205 0.221-0.403-0.018-0.296-0.256-0.375-0.223-0.57 0.046-0.274-0.13-0.584-0.136-0.865-0.007-0.412 0.741-1.229 0.826-1.636 0.041-0.199-0.176-0.253-0.26-0.572-0.079-0.295 0.154-0.414 0.119-0.64-0.076-0.494-0.478-0.566-0.519-1.059-0.018-0.215-0.174-0.292-0.14-0.587 0.043-0.368 0.365-0.364 0.345-0.734-0.050-0.903-0.714-1.615-0.664-1.837 0.061-0.277 0.471-0.367 0.349-0.624-0.154-0.323 0.148-0.707 0.094-1.069-0.036-0.239-0.437-0.608-0.819-0.723-0.118-0.035 0.044 0.412 0.119 0.321z"></path>
<path d="M23.072 16.499c0.386-0.205 0.864-1.088 1.181-1.406 0.123-0.125 0.397-0.145 0.518-0.278 0.152-0.167-0.435-0.656-0.339-0.84 0.148-0.281 0.623-0.339 0.732-0.666 0.104-0.307-0.025-0.516 0.118-0.98 0.094-0.306 0.151-0.338 0.017-0.599-0.125-0.246-0.318-0.396-0.514-0.608-0.102-0.112-0.030-0.245-0.087-0.378-0.115-0.27-0.367-0.306-0.655-0.489-0.048-0.030-0.215-0.263-0.23-0.292 0 0 0.323 0.631 0.347 0.897 0.028 0.285 0.001 0.509 0.044 0.789 0.044 0.281-0.253 0.431-0.199 0.682 0.162 0.745 0.012 0.217-0.12 0.419-0.122 0.183-0.086 0.41-0.185 0.612-0.111 0.226 0.331 1.084-0.166 1.938-0.276 0.472-0.574-0.118-1.085 0.079-0.393 0.152-0.213 0.718-0.627 0.63-0.568-0.122-0.574-0.891-0.833-0.86-0.252 0.030-0.305 0.134-0.627 0.167-0.343 0.036-0.403-0.087-0.664-0.162-0.278-0.080-0.552 0.053-0.77 0.003-0.213-0.048-0.455-0.053-0.666-0.115-0.217-0.064-0.437-0.258-0.648-0.354-0.514 0.338-0.592 0.306-0.986 0.781 0.158 0.080 0.444 0.165 0.599 0.216 0.149 0.048 0.305 0.147 0.443 0.219 0.249 0.129 0.274 0.393 0.67 0.529 0.4 0.138 0.461-0.156 0.882-0.107 0.464 0.053 0.597 0.145 0.918 0.215 0.263 0.057 0.493 0.079 0.745 0.030 0.466-0.090 0.616 0.352 1.364 0.472 0.52 0.084 0.501-0.372 0.825-0.544z"></path>
<path d="M14.386 13.934c-0.011 0.332-0.317 0.669-0.527 0.806-0.329 0.215-0.64 0.428-1.009 0.586-0.707 0.302-1.52 0.45-2.291 0.295-1.752-0.35-3.396-1.932-3.51-3.553 0.015-0.212 0.048-0.577 0.073-0.713 0.079-0.435 0.271-0.821 0.568-1.312-0.699 0.418-0.95 0.873-1.193 1.404-0.206 0.448-0.187 0.8-0.109 1.28 0.083 0.514 0.152 0.941 0.457 1.404 0.555 0.843 1.344 1.741 2.324 2.187 0.419 0.191 0.839 0.289 1.25 0.364 0.501 0.093 1.071 0.066 1.514-0.021 0.457-0.090 0.729-0.195 1.149-0.338 0.201-0.068 0.404-0.169 0.601-0.255 0.155-0.066 0.31-0.118 0.468-0.179 0.44-0.17 0.431-0.089 0.792-0.378z"></path>
<path d="M14.631 5.921c-0.072 0.004-0.144 0.004-0.216 0.011-0.872 0.069-1.728 0.111-2.607 0.136-0.99 0.029-1.942-0.054-2.928-0.054-0.965 0-1.923 0.058-2.885 0.090-0.944 0.033-1.88 0.064-2.821 0.108-0.646 0.030-1.424-0.043-1.962 0.213-0.689 0.328 0.426 0.432 0.839 0.458 0.378 0.025 0.797 0.053 1.177 0.030 0.205-0.011 1.070 0.047 1.319 0.064 0.718 0.050 1.451 0.053 2.177 0.029 1.056-0.033 2.115-0.039 3.173-0.057 1.081-0.018 2.169-0.013 3.25-0.008 0.49 0.003 0.987-0.005 1.483-0.019z"></path>
<path d="M29.011 4.667c-0.046-0.003-0.089-0.115-0.138-0.118-0.234-0.011-0.714 0.465-0.921 0.421-0.228-0.050-0.147 0.642-0.414 0.633-0.264-0.008-0.957 0.33-1.026 0.025-0.529 0.024-1.080 0.042-1.643 0.042-0.289 0-1.985 0.346-2.096 0.161-0.231 0.194-0.242 0.015-0.511 0.066-0.565 0.108-0.854 0.473-1.067 0.206-0.633 0.325-1.038-0.869-2.19-1.854-0.483-0.413-0.761 0.059-1.254 0.021-0.264-0.021-0.627 0.077-0.85 0.030-0.115 0.448 0.187 0.475 0.277 0.929 0.184 0.015 0.22 0.098 0.417 0.1 0.28 0.003 1.393-0.199 1.442 0.044 0.331-0.017 0.688 1.419 1.008 1.377 0.443-0.059 0.512 0.743 0.894 0.784 0.703 0.075 2.1-1.002 2.886-0.962 0.295 0.014 0.747 0.332 1.065 0.291 0.338-0.043 0.556-0.418 0.943-0.378 0.163 0.017 0.223 0.321 0.458 0.295 0.771-0.086 1.348-0.365 1.471 0.019 0.306-0.061 0.1-0.385 0.332-0.747 0.296-0.46 0.705-0.378 1.016-0.469 0.417-0.123 1.146 0.555 1.59 0.479-0.101-0.148 0.18-0.235 0.274-0.37-0.725-0.022-1.254-0.979-1.964-1.024z"></path>
<path d="M13.488 20.326c0.375-0.079 0.759-0.151 1.143-0.199v-0.911c-1.109 0.141-2.202 0.393-3.252 0.777-0.991 0.361-1.956 0.847-2.751 1.549-0.425 0.375-0.597 0.764-0.887 1.237-0.307 0.501-0.676 0.963-0.966 1.474-0.49 0.861-1.121 1.734-1.937 2.319-0.836 0.598-2.216 1.024-1.925 1.024 0.854 0 1.725-0.197 2.479-0.565 0.444-0.216 0.828-0.429 1.224-0.743 0.626-0.496 0.941-1.109 1.321-1.79 0.256-0.462 0.523-0.909 0.753-1.38 0.372-0.765 1.146-1.304 1.854-1.722 0.904-0.536 1.921-0.855 2.944-1.070z"></path>
<path d="M24.168 24.464c-0.044-0.256-0.491-0.047-0.867-0.417-0.262-0.259 0.195-0.428 0.066-0.772-0.368-0.983-0.44-0.973-1.029-1.844-0.537-0.796-0.842-0.927-1.336-1.386-0.167-0.155-0.377-0.278-0.579-0.388-0.413-0.227-0.963 0.134-1.423 0.028-0.368-0.084-0.724-0.206-1.081-0.332-0.342-0.12-0.813-0.26-1.174-0.289-0.177 0.579 0.108 0.644 0.122 1.249 0.026 0.004 0.043 0.144 0.071 0.148 0.404 0.053 0.837-0.143 1.242-0.084 0.599 0.086 1.224 0.014 1.748 0.314 0.321 0.183 0.584 0.464 0.803 0.761 0.122 0.166 0.185 0.238 0.309 0.522 0.226 0.519 0.305 0.646 0.576 0.97 0.251 0.299 0.179 0.786 0.343 1.132 0.123 0.259 0.742 0.543 0.785 0.813 0.093 0.577 0.148 0.811 0.572 1.469 0.343 0.532 0.505 0.71 0.858 0.959 0.345 0.241 0.806 0.321 1.177 0.518 0.195 0.105 0.914 0.148 1.138 0.167-0.689-0.345-0.568-0.241-0.962-0.718-0.381-0.46-0.526-0.339-1.035-0.673 0.152-0.277-0.053-0.522-0.22-1.030-0.147-0.443-0.148-0.587-0.148-0.952 0-0.061 0.054-0.107 0.044-0.165z"></path>
</svg>
