<!-- Generated by IcoMoon.io -->
<svg version="1.1" xmlns="http://www.w3.org/2000/svg" width="32" height="32" viewBox="0 0 32 32">
<title>settings</title>
<path d="M29.838 10.939l0.039 0.039 0.012 0.006-0.050-0.045z"></path>
<path d="M28.82 10.577l0.077 0.030h0.006l-0.083-0.030z"></path>
<path d="M27.721 15.24l0.077 0.077 0.056 0.015-0.134-0.092z"></path>
<path d="M29.443 16.645l0.015 0.036 0.018 0.009-0.033-0.045z"></path>
<path d="M28.817 15.789v0z"></path>
<path d="M26.286 27.087l-0.021 0.095c-0 0.003-0 0.007-0 0.010s0 0.007 0 0.011l-0-0z"></path>
<path d="M21.543 26.496l-0.018 0.083v0.021z"></path>
<path d="M21.077 28.578l-0.015 0.033v0.003l0.015-0.036z"></path>
<path d="M20.649 29.549l-0.015 0.015v0.003l0.015-0.018z"></path>
<path d="M2.156 15.035l-0.033-0.086-0.015-0.012 0.047 0.098z"></path>
<path d="M13.878 3.194l0.071-0.059 0.006-0.012-0.077 0.071z"></path>
<path d="M12.993 6.128l0.039-0.229-0.006-0.036-0.033 0.264z"></path>
<path d="M19.779 13.143l0.030 0.033 0.027 0.009-0.056-0.042z"></path>
<path d="M20.62 13.826l0.012 0.024 0.018 0.012-0.030-0.036z"></path>
<path d="M18.87 22.002l-0.012 0.003-0.033 0.024 0.045-0.027z"></path>
<path d="M19.782 21.471l-0.018 0.009-0.024 0.027 0.042-0.036z"></path>
<path d="M29.628 16.561l-0.027-0.027-0.79-0.751-0.665-0.974-0.101-0.047-1.022-0.454h0.027l-0.986-0.532-0.047-0.027h-0.145c-0.549-0.053-1.102-0.098-1.645-0.16q-0.487-0.047-0.971-0.116v0l-0.056-0.071-0.395-0.998-0.086-0.252 0.383-0.422 0.671-0.297 0.071-0.027 0.995-0.543 0.891-0.211h0.974l1.134-0.083h-0.059l1.129 0.065-0.077-0.030 0.083 0.030 0.98 0.371-0.039-0.039 0.053 0.045h-0.015l0.731 0.775-0.546-1.022v-0.015l-0.045-0.030-0.933-0.671-0.080-0.027-1.069-0.362h-0.059l-1.078-0.208-1.069-0.273h-0.169l-1.137-0.027-0.226 0.056-1.102 0.267 0.071-0.024-1.12 0.19h-0.086l-0.333 0.214-0.582 0.371-0.959 0.113-0.719-0.27-0.27-0.345 0.196-0.41 0.876-0.585 0.742-0.808 0.956-0.359 1.078-0.157h-0.024l1.126 0.062-1.090-0.279h-0.024l-1.12-0.068h-0.045l-1.126 0.184h-0.045l-0.089 0.065-0.84 0.641-1.072 0.448-0.089 0.036-0.125 0.166-0.428 0.573-0.549 0.149-0.977-0.698v-0.021c0.089-0.258 0.208-0.496 0.318-0.739s0.217-0.49 0.348-0.731l0.374-0.728 0.594-0.811 0.775-0.686 0.965-0.404 1.042-0.416-1.081 0.208-1.078 0.238-0.042 0.027-0.939 0.57-0.042 0.039-0.802 0.74-0.042 0.053-0.508 0.659c-0.172 0.217-0.327 0.454-0.49 0.683s-0.362 0.475-0.487 0.716l-0.437 0.719-0.045 0.125-0.172 0.49-0.41 0.16-0.677 0.235-0.062-0.567v-0.166l-0.288-1.066v0.238l-0.027-1.129v-0.151l-0.208-1.072-0.039 0.229 0.033-0.264v0.036l0.149-0.873-0.018 0.051 0.297-1.084-0.056 0.101 0.555-0.959-0.071 0.059 0.077-0.071 0.79-0.656 0.024-0.018 0.71-0.891-0.891 0.65-1.022 0.463-0.065 0.065-0.814 0.823-0.056 0.101-0.564 0.968-0.021 0.053-0.469 1.016v0.030l-0.018 0.232-0.083 1.126v-0.149l-0.279 1.078v0.235l-0.015 1.114v-0.166l-0.175 1.117v0.047l0.071 0.395 0.062 0.336-0.594 0.44-0.802 0.345-0.095-0.149-0.333-0.98v-0.056l-0.493-0.992-0.146-1.031 0.193-1.060 0.327-1.099-0.549 1.016-0.425 1.084v0.059l-0.068 1.129v0.021l0.021 0.083 0.279 1.031 0.149 1.137 0.045 0.113 0.359 0.912-0.083 1.155-0.356 0.297-0.668-0.487 0.045 0.045-0.829-0.742-0.823-0.653-0.383-0.891-0.496-0.986-0.187-1.034 0.19-1.057-0.386 1.034v1.137l0.015 0.045 0.297 1.045 0.247 1.063 0.015 0.062 0.089 0.104 0.719 0.817 0.662 0.861 0.045 0.045 0.704 0.734-0.065 0.529 0.042 0.956-0.169-0.053h-0.062l-1.057 0.071-0.751-0.264-0.205-0.074-1.063-0.092-0.71-0.484-0.974-0.594 0.077 0.080-0.769-0.808 0.033 0.086-0.033-0.098-0.392-0.959-0.342-1.045 0.056 1.099 0.14 1.123v0.015l0.048 0.083 0.544 0.992 0.077 0.080 0.766 0.814 0.725 0.849 0.059 0.068 0.27 0.098 1.075 0.401-0.208-0.074 0.992 0.683 0.339 0.068 0.748 0.148 0.924 0.594 0.062 0.042 0.407 0.077 0.068 0.496 0.445 0.891-0.080 0.018h0.107l-1.129 0.074h-0.059l-1.057 0.232-0.939-0.353h-0.024l-1.111-0.276-0.82-0.754 0.683 0.939 0.036 0.018 1.028 0.481 0.965 0.594 0.056 0.033h0.134l1.078-0.024 1.12 0.145h0.659l1.274 0.267 0.154 1.022c-0.404 0.27-0.808 0.544-1.206 0.823l-0.938 0.336h-0.033l-0.992 0.481-1.025 0.045-1.063-0.131-0.891-0.671 0.775 0.843h0.036l1.075 0.333h0.033l1.111 0.151h0.033l0.080-0.021 1.051-0.267 1.093-0.166h0.024l0.095-0.045c0.594-0.276 1.212-0.546 1.821-0.808l1.271-0.154 0.49 0.187-0.030 0.059c-0.137 0.25-0.252 0.523-0.377 0.79s-0.246 0.532-0.348 0.796l-0.327 0.787-0.54 0.728 0.098-0.083-0.82 0.763 0.083-0.050-0.924 0.612 0.071-0.027-1.004 0.434h0.045l-1.060 0.273-1.078 0.107 1.090 0.187h0.024l1.143 0.021 1.084-0.157 0.071-0.027 1.048-0.35 0.083-0.050 0.992-0.544 0.098-0.083 0.891-0.683 0.14-0.184 0.508-0.656c0.166-0.223 0.342-0.425 0.514-0.633s0.336-0.413 0.529-0.612l0.321-0.348 0.211 0.145 1.105-0.327 0.46-0.318-0.184 1.025-0.255 1.078-0.442 0.953-0.808 0.692-0.947 0.564 1.072-0.368 0.992-0.558h0.024l0.042-0.056 0.671-0.918 0.027-0.059 0.469-1.031 0.419-1.054 0.018-0.083 0.145-0.645 0.297-0.056 1.146-0.143 0.235-0.157 0.018 0.119 0.036 0.056 0.552 0.909 0.056 0.927 0.018-0.083-0.018 0.104v-0.021c-0.151 0.68-0.297 1.357-0.463 2.031v-0.033 0.036l-0.428 0.953v0.018l-0.659 0.846 0.829-0.754v-0.018l0.612-0.891v-0.033q0.437-0.998 0.855-2.005v-0.107l0.134-1.108v-0.077l-0.059-0.154-0.348-0.891 0.036-1.057v-0.071l0.021-0.122 0.045-0.089 1.161-0.44v-0.514l0.668 0.594 0.766 0.775-0.095-0.16 0.594 0.965 0.633 0.891c0.154 0.662 0.297 1.325 0.442 1.99l0.021-0.095-0.015 0.116c-0-0.003-0-0.007-0-0.010s0-0.007 0-0.011l-0 0-0.19 1.037-0.143 1.126 0.431-1.040 0.493-1.013v-0.119q0.068-1.126 0.104-2.263v-0.036l-0.065-0.184-0.377-1.040-0.312-1.075-0.098-0.16-0.564-1.004-0.627-0.968-0.14-0.137-0.125-0.14 0.157-0.558 0.226-1.123-0.35-0.487 0.811 0.318 0.754 0.695 0.021 0.021 0.891 0.692 0.454 0.965 0.297 1.087-0.095-1.143v-0.018l-0.279-1.123v-0.030l-0.047-0.056-0.751-0.891 0.021 0.021-0.668-0.93-0.027-0.036-0.113-0.045-0.971-0.594-0.071-0.030-0.321-0.145 0.297-0.505-0.909-0.918-0.047-0.407 0.282-0.018c0.544-0.036 1.075-0.083 1.613-0.131l0.924 0.297h0.030l1.031 0.252-0.077-0.077 0.134 0.092h-0.056l0.728 0.725 0.921 0.594v-0.036l0.033 0.045h-0.018l0.445 0.986-0.273-1.087zM19.506 22.026l-0.211 0.19-0.19 0.169-0.039 0.021-0.472 0.267h-0.033l-0.463 0.19-0.404 0.229-0.080 0.045-0.059 0.033h-0.585l-0.496 0.16-0.068 0.021-0.143-0.024-0.416-0.071-0.499 0.104h-0.071l-0.157-0.036-0.538-0.119h-0.045l-0.505-0.157-0.517-0.131h-0.033l-0.125-0.056-0.481-0.267-0.042-0.030-0.101-0.098-0.395-0.389 0.039 0.042-0.413-0.362-0.053-0.083-0.255-0.297c-0.083-0.104-0.175-0.19-0.258-0.297s-0.249-0.264-0.38-0.398l-0.163-0.169-0.131-0.11-0.071-0.214-0.119-0.401-0.33-0.564v-0.229l-0.027-0.445-0.125-0.44v-0.074l-0.089-0.535-0.030-0.172 0.039-0.166 0.101-0.437v-0.597l0.101-0.538 0.018-0.098 0.018-0.047 0.104-0.264 0.098-0.246 0.053-0.131 0.056-0.074 0.336-0.437c0.14-0.217 0.273-0.431 0.428-0.642v-0.015c0.163-0.229 0.327-0.44 0.49-0.653l0.101-0.134 0.074-0.047 0.98-0.653 0.499-0.22 0.089-0.039c0.345-0.086 0.686-0.172 1.037-0.244l0.398-0.202 0.169-0.089h0.285l0.368 0.021h0.104l0.523 0.134 0.178 0.018 0.279 0.027h0.695l0.059 0.036 0.264 0.163 0.205 0.128 0.445 0.163h0.036l0.475 0.249 0.036 0.021 0.419 0.333 0.466 0.238 0.039 0.021 0.018 0.021 0.318 0.431 0.425 0.336 0.024 0.018v0.018l0.217 0.52 0.258 0.472 0.163 0.505 0.252 0.383 0.056 0.086 0.089 0.54-0.068 0.555 0.125 0.529v1.096l-0.196 0.511-0.107 0.541-0.321 0.454-0.258 0.466-0.327 0.428-0.35 0.383-0.107 0.151-0.208 0.297-0.033 0.021-0.068 0.045z"></path>
<path d="M21.751 16.814l0.062-0.552-0.101-0.529-0.042-0.053-0.297-0.395-0.196-0.496-0.297-0.446-0.247-0.469-0.451-0.297v-0.018l-0.348-0.365-0.496-0.178-0.027-0.015-0.434-0.255-0.466-0.163-0.561-0.116-0.053-0.021-0.392-0.16-0.478 0.074h-0.033l-0.529 0.030h-0.074l-0.454-0.042-0.362 0.030-0.374 0.276-0.024 0.021-0.113 0.045c-0.297 0.119-0.609 0.238-0.909 0.365l-0.342 0.211c-0.235 0.205-0.469 0.41-0.71 0.609-0.125 0.205-0.249 0.41-0.362 0.594s-0.255 0.451-0.38 0.68v0l-0.036 0.053-0.226 0.336-0.119 0.345-0.065 0.416v0.576l-0.024 0.113-0.077 0.362 0.050 0.336 0.119 0.484 0.021 0.095v0.089q0 0.181 0 0.365l0.149 0.282 0.056 0.113 0.021 0.080 0.113 0.371c0.125 0.151 0.252 0.297 0.38 0.466 0.178 0.22 0.33 0.451 0.49 0.677l0.297 0.321 0.039 0.039 0.297 0.398 0.297 0.232 0.395 0.166 0.508 0.25 0.401 0.166 0.425-0.042h0.134l0.047 0.018 0.46 0.16 0.398-0.059h0.128l0.484 0.089 0.321-0.119 0.086-0.030h0.036l0.529-0.125h-0.033l0.496-0.193 0.419-0.279 0.021-0.015 0.466-0.232 0.339-0.377 0.422-0.362 0.35-0.38 0.297-0.442 0.348-0.428 0.128-0.529 0.214-0.502 0.027-1.013v-0.083l-0.134-0.529z"></path>
</svg>
