<!-- Generated by IcoMoon.io -->
<svg version="1.1" xmlns="http://www.w3.org/2000/svg" width="32" height="32" viewBox="0 0 32 32">
<title>shadow_of_a_doubt</title>
<path d="M24.752 23.678c-0.099-0.022-0.198-0.043-0.298-0.055-0.29-0.034-0.404 0.065-0.659 0.13-0.831 0.213-1.703-0.063-2.545 0.056-0.763 0.107-1.586 0.143-2.358 0.143-0.671 0-1.327 0.072-1.993 0.087-0.775 0.018-1.569 0.055-2.311 0.294-1.294 0.418-2.825 0.646-4.182 0.736-0.566 0.037-1.109 0.21-1.659 0.337-0.45 0.105-0.848 0.063-1.302 0.098-1.012 0.077-2.067 0.095-3.021 0.482 0.365 0.277 1.405 0.297 1.88 0.319 0.995 0.046 2.017 0.068 2.998-0.090 0.54-0.086 1.103-0.143 1.634-0.271 0.388-0.094 0.659-0.219 1.072-0.26 0.415-0.040 0.799-0.103 1.207-0.197 0.598-0.135 1.19-0.253 1.797-0.337 0.342-0.048 0.69-0.091 1.029-0.112 0.526-0.033 1.021-0.186 1.544-0.234 1.225-0.115 2.524-0.374 3.748-0.264 0.858 0.077 1.719 0.008 2.574-0.051 0.424-0.029 0.868-0.012 1.289-0.065 0.367-0.046 0.669-0.247 1.016-0.383-0.236-0.168-0.6-0.2-0.887-0.238-0.194-0.027-0.383-0.081-0.573-0.125z"></path>
<path d="M18.827 26.066c-0.128 0.021-0.246 0.042-0.346 0.052-1.35 0.142-2.678 0.273-4.031 0.408-1.256 0.125-2.523 0.173-3.774 0.352-1.027 0.148-2.054 0.254-3.076 0.441-0.333 0.060-0.575 0.13-0.857 0.313-0.092 0.059-0.064 0.117-0.203 0.107 0.316-0.042 0.651 0.099 0.966 0.13 0.484 0.047 0.989-0.007 1.466-0.090 0.441-0.077 0.923-0.066 1.358-0.198 1.254-0.38 2.707-0.413 4.019-0.423 0.697-0.007 1.439-0.056 2.13-0.15 0.445-0.060 0.87-0.169 1.32-0.216 0.169-0.018 2.25-0.512 2.226-0.56-0.176-0.363-0.88-0.219-1.198-0.165z"></path>
<path d="M29.232 21.462c-0.715 0-1.405 0.172-2.117 0.111-0.32-0.027-0.622-0.103-0.941-0.146-0.992-0.138-2.058 0.034-3.062 0.116-2.267 0.186-4.524 0.448-6.792 0.647-0.171 0.014-0.341 0.030-0.512 0.044-0.081 0.335-0.164 0.671-0.25 1.010 0.508-0.099 1.016-0.199 1.529-0.277 1.81-0.275 3.645-0.469 5.472-0.595 1.221-0.083 2.484-0.232 3.703-0.234 0.426 0 0.846 0.094 1.272 0.096 0.463 0.003 0.814-0.199 1.253-0.324 0.38-0.108 0.978-0.178 1.297-0.381-0.262-0.104-0.572-0.066-0.85-0.066z"></path>
<path d="M12.76 23.33c0.035-0.243 0.074-0.497 0.115-0.758-0.121 0.021-0.242 0.042-0.362 0.065-1.073 0.211-2.265 0.322-3.359 0.323-0.993 0.003-1.978 0.148-2.968 0.147-0.676 0-1.349 0.074-2.024 0.104-0.531 0.023-1.14-0.148-1.651 0.065-0.463 0.194 0.055 0.352 0.327 0.427 0.387 0.108 0.746 0.242 0.939 0.139 0.309 0.095 0.633 0.049 0.95 0.056 0.45 0.010 0.983 0.021 1.416 0.159 0.394 0.125 0.652 0.102 1.077 0.107 0.499 0.007 0.995 0.057 1.495 0.009 0.915-0.087 1.832-0.188 2.742-0.324 0.414-0.061 0.832-0.115 1.249-0.167 0.020-0.118 0.039-0.236 0.056-0.353z"></path>
<path d="M22.35 9.529c-0.042-0.029-0.081-0.056-0.116-0.083-0.5-0.375-1-0.684-1.591-0.897-0.368-0.133-0.715-0.311-1.094-0.417-0.29-0.079-0.56-0.095-0.532-0.424 0.038-0.436 0.276-1.574 0.318-2.302 0.025-0.417 0.107-0.706 0.165-1.114 0.049-0.348 0.181-0.668 0.443-0.919 0.237-0.227 0.583-0.889 0.458-1.34-0.079-0.284-0.076-0.398-0.385-0.521-0.253-0.1-0.698-0.236-0.937-0.2-0.298 0.044-0.518 0.324-0.617 0.598-0.16 0.449-0.043 0.898 0.035 1.433-0.090 0.476-0.21 0.914-0.401 1.354-0.227 0.517-0.188 0.891-0.379 1.422-0.155 0.428-0.28 0.958-0.401 1.42-0.306-0.073-0.621-0.074-0.931-0.125-0.469-0.077-0.944-0.111-1.413-0.186-0.624-0.099-1.122-0.132-1.748-0.005-0.232 0.047-0.75 0.185-0.75 0.185s0.022 0.313 0.121 0.484c0.092 0.163 0.109 0.189 0.271 0.25 0.176 0.068 0.487 0.082 0.656 0.043 0.547-0.125 0.812-0.014 1.374 0.081 0.414 0.069 0.833-0.001 1.249 0.044 0.376 0.042 0.402 0.014 0.828 0.191-0.059 0.206-0.042 0.95-0.143 1.147-0.133 0.24-0.329 0.437-0.329 0.437s-0.294 0.989-0.378 1.635c-0.061 0.47-0.182 0.875-0.28 1.336-0.217 1.026-0.456 2.047-0.659 3.075-0.267 1.346-0.815 2.636-1.113 3.979-0.245 1.105-0.424 2.216-0.588 3.328-0.302 2.053-0.924 4.092-0.947 6.169-0.004 0.359-0.065 0.75-0.008 1.090 0.243-0.907 0.642-1.765 0.896-2.67 0.103-0.371 0.281-0.687 0.381-1.057 0.117-0.437 0.171-0.889 0.303-1.324 0.159-0.522 0.329-1.042 0.476-1.568 0.24-0.857 0.447-1.724 0.657-2.593 0.103-0.424 0.217-0.845 0.305-1.273 0.103-0.505 0.315-0.986 0.448-1.499 0.161-0.624 0.355-1.238 0.522-1.86 0.22-0.819 0.508-1.618 0.752-2.429 0.24-0.799 0.512-1.594 0.861-2.353 0.165-0.362 0.45-1.462 0.45-1.462s-0.105-0.219-0.059-0.572c0.049-0.384 0.329-0.698 0.41-1.068 0.329 0.125 0.462 0.056 0.74 0.148 0.443 0.15 0.824 0.474 1.238 0.684 0.247 0.125 0.504 0.152 0.734 0.297 0.213 0.133 0.363 0.25 0.63 0.286 0.163 0.022 0.715-0.016 0.741-0.182 0.040-0.253-0.5-0.559-0.664-0.672z"></path>
</svg>
