<!-- Generated by IcoMoon.io -->
<svg version="1.1" xmlns="http://www.w3.org/2000/svg" width="32" height="32" viewBox="0 0 32 32">
<title>shattered_memories</title>
<path d="M14.653 18.050c0.003 0.003 0.005 0.006 0.010 0.009 0.004 0.004 0.011 0.004 0.017 0.009 0.081-0.109 0.168-0.212 0.254-0.315 0.117-0.141 0.23-0.308 0.35-0.467-0.241-0.329-0.625-0.602-0.931-0.853-0.196-0.161-0.406-0.375-0.643-0.486 0.048-0.055 0.091-0.106 0.117-0.138 0.171-0.212 0.339-0.426 0.513-0.636 0.347-0.419 0.711-0.823 1.086-1.219 0.054-0.056 0.196-0.237 0.113-0.322-0.106-0.11-0.185-0.21-0.265-0.34-0.018-0.029-0.044-0.042-0.074-0.044-0.010-0.013-0.019-0.026-0.027-0.039-0.063-0.1-0.112-0.19-0.226-0.237-0.023-0.010-0.047-0.018-0.070-0.025-0.341 0.426-0.681 0.852-1.043 1.26-0.461 0.618-0.898 1.253-1.31 1.911-0.041 0.066-0.065 0.118-0.075 0.16 0.512 0.47 1.089 0.868 1.614 1.318 0.2 0.117 0.394 0.246 0.587 0.38-0.014 0.030-0.017 0.057 0.004 0.078z"></path>
<path d="M19.075 16.369c-0.087-0.073-0.193-0.144-0.274-0.233-0.393-0.052-0.75 0.393-1.057 0.692-0.277 0.271-0.553 0.545-0.805 0.84-0.066 0.076-0.137 0.155-0.2 0.239-0.082-0.048-0.167-0.092-0.247-0.142-0.144-0.090-0.266-0.189-0.42-0.227-0.118 0.117-0.227 0.244-0.295 0.382-0.085 0.171-0.196 0.317-0.325 0.451 0.018 0.041 0.054 0.076 0.117 0.13 0.109 0.092 0.233 0.168 0.351 0.248 0.204 0.137 0.403 0.285 0.615 0.411 0.007 0.068 0.105 0.068 0.177 0.024 0.504-0.314 0.886-0.803 1.3-1.223 0.405-0.408 0.828-0.8 1.223-1.217 0.068-0.072 0.103-0.131 0.115-0.178-0.094-0.064-0.189-0.127-0.273-0.197z"></path>
<path d="M22.347 15.822c0.042-1.865-0.764-3.818-2.085-5.008-1.661-1.494-3.928-1.966-6.009-1.473 0.158 0.283 0.228 0.6 0.288 0.919 0.136 0.047 0.305 0.061 0.481 0.059 0.115-0.001 0.227-0.002 0.339-0.002-0.002 0.1 0.001 0.198 0.002 0.285 0.005 0.333 0.059 0.664 0.11 0.992 0.026 0.166 0.3 0.010 0.356-0.031 0.101-0.075 0.204-0.149 0.305-0.224 0.003-0.002 0.009-0.008 0.013-0.011 0.048 0.032 0.153-0.057 0.172-0.092 0.042-0.074 0.063-0.152 0.075-0.23 0.030-0.061 0.039-0.115 0.012-0.143 0.002-0.14-0.011-0.283 0.007-0.428 0.002-0.027 0.003-0.055 0.005-0.082 0.571 0.048 1.127 0.158 1.706 0.409 1.881 0.82 2.983 2.827 3.197 4.831-0.329-0.047-0.659-0.086-0.988-0.118-0.048 0.002-0.109 0.005-0.156-0.010-0.038-0.013-0.069-0.033-0.097-0.057-0.032 0.001-0.064 0-0.095 0.002-0.487-0.513-1.017-0.993-1.481-1.53-0.529-0.613-1.312-1.109-1.753-1.772-0.008-0.011-0.012-0.022-0.017-0.031-0.141-0.115-0.283-0.227-0.421-0.343-0.122 0.106-0.253 0.2-0.368 0.317-0.085 0.086-0.165 0.178-0.245 0.27 0.169 0.642 1.042 1.293 1.488 1.684 0.75 0.655 1.473 1.319 2.188 2.015 0.006 0.004 0.012 0.009 0.018 0.012 0.113 0.167 0.3 0.292 0.507 0.332 0.77 0.148 1.67 0.056 2.459 0.075 0.022-0.204 0.016-0.411 0.024-0.615l-0.036-0.001z"></path>
<path d="M4.819 16.495c0.022-0.003 0.045-0.013 0.072-0.028 0.339-0.056 0.678-0.113 1.017-0.171 0.267-0.021 0.535-0.044 0.802-0.066 0.079-0.005 0.203-0.093 0.31-0.199-0.004-0.020-0.010-0.038-0.013-0.054-0.041-0.196-0.086-0.392-0.106-0.591-0.003-0.039-0.007-0.079-0.008-0.118-0.705 0.001-1.421 0.025-2.121 0.117-0.223 0.003-0.446 0.019-0.67 0.044-0.101-0.402-0.081-0.839-0.055-1.254-0.101-0.097-0.242-0.166-0.436-0.199-0.018-0.002-0.041 0.003-0.067 0.012-0.13-0.029-0.259-0.062-0.387-0.101-0.083 1.139-0.062 2.277 0.091 3.341 0.2 1.393 0.73 2.685 1.49 3.844 0.043-0.031 0.086-0.064 0.125-0.105 0.012-0.013 0.021-0.027 0.033-0.039 0.036-0.010 0.078-0.028 0.133-0.067 0.313-0.22 0.565-0.455 0.81-0.747 0.049-0.057 0.19-0.241 0.104-0.324-0.778-0.741-1.452-1.898-1.704-2.993 0-0.072 0.001-0.143 0.002-0.212 0.192-0.030 0.384-0.060 0.577-0.089z"></path>
<path d="M4.212 12.588c-0.002 0.008-0.009 0.017-0.016 0.026-0.063 0.155-0.112 0.286 0.016-0.026z"></path>
<path d="M5.95 9.257c-0.205-0.075-0.428 0.061-0.627 0.241-0.288 0.001-0.577 0.021-0.866 0.045-0.241 0.418-0.466 0.845-0.705 1.287-0.136 0.392-0.258 0.793-0.368 1.199 0.118 0.232 0.226 0.516 0.353 0.788v0c-0.004 0.061 0.014 0.088 0.044 0.095 0.007 0.010 0.011 0.022 0.016 0.031 0.002-0.010 0.005-0.020 0.009-0.030 0.112-0.011 0.328-0.209 0.392-0.3 0.030-0.073 0.063-0.152 0.082-0.191 0.193-0.386 0.393-0.771 0.612-1.143 0.354-0.604 0.883-1.156 1.102-1.828 0.023-0.073 0.049-0.161-0.043-0.194z"></path>
<path d="M10.379 26.11c-1.011-0.631-2.107-1.205-3.047-1.939-0.315-0.246-1.684-1.494-1.876-2.148-0.003-0.008-0.009-0.013-0.013-0.020-0.11-0.128-0.205-0.265-0.279-0.415-0.023 0.003-0.050 0.016-0.083 0.037-0.339 0.223-0.557 0.463-0.698 0.849-0.036 0.097-0.029 0.148 0.004 0.169-0.012 0.018-0.022 0.036-0.034 0.054 1.149 1.824 2.845 3.355 4.772 4.428 0.285-0.115 0.549-0.218 0.746-0.437 0.001 0 0.002 0 0.004-0.001 0.104-0.024 0.726-0.437 0.504-0.575z"></path>
<path d="M21.919 23.537c-0.198-0.258-0.374-0.532-0.477-0.837-1.92-0.003-3.924-0.147-5.828 0.072-0.117 0.013-0.539 0.399-0.396 0.452-0.023 0.057-0.048 0.115-0.073 0.175-0.032 0.081-0.061 0.159-0.088 0.235-0.161 0.169-0.273 0.377-0.082 0.364 0.15-0.011 0.301-0.021 0.452-0.034-0.033 0.36 0.018 0.739 0.025 1.115-0.094 0.676-0.146 1.362-0.181 2.029-0.439-0.036-0.864-0.091-1.258-0.156-0.434-0.072-0.877-0.164-1.316-0.274 0.037 0.321 0.069 0.645 0.093 0.967 0.968 0.273 1.953 0.434 2.921 0.455 0.724 0.016 1.438-0.030 2.136-0.132-0.186-0.155-0.369-0.315-0.577-0.439-0.156-0.093-0.304-0.162-0.43-0.298-0.024-0.025-0.045-0.055-0.067-0.087-0.115 0.004-0.229 0.004-0.344 0.006 0.058-0.415 0.001-0.857-0.003-1.27-0.005-0.387-0.011-0.775-0.016-1.162-0.002-0.165 0.063-0.543 0.053-0.826 1.708-0.050 3.415-0.101 5.122-0.155 0.082-0.002 0.218-0.091 0.334-0.198z"></path>
<path d="M11.598 28.608c0.017-0.060 0.053-0.097 0.094-0.121-0.018-0.175-0.032-0.353-0.053-0.527-0.254-0.073-0.506-0.15-0.754-0.239-0.179 0.050-0.328 0.134-0.513 0.193-0.197 0.062-0.393 0.135-0.59 0.205 0.56 0.28 1.137 0.52 1.722 0.72 0.036-0.075 0.069-0.15 0.093-0.231z"></path>
<path d="M25.161 8.641c0.022-0.106 0.042-0.214 0.063-0.32 0.009-0.043 0-0.121-0.060-0.128-1.185-0.144-2.542-0.002-3.689-0.289-0.154-0.038-0.365 0.146-0.444 0.252-0.203 0.274-0.381 0.508-0.436 0.849-0.025 0.156 0.175 0.027 0.261-0.044 0.032 0.016 0.064 0.030 0.097 0.042-0.021 0.056-0.015 0.097 0.045 0.101 0.778 0.072 1.651 0.179 2.485 0.165-0.508 0.359-1.015 0.722-1.516 1.092-0.091 0.067-0.362 0.274-0.301 0.418 0 0.001 0.001 0.001 0.001 0.001 0.072 0.035 0.143 0.070 0.212 0.112 0.008-0.002 0.014-0.003 0.022-0.008 0.041 0.034 0.080 0.067 0.119 0.1 0.055 0.038 0.106 0.079 0.158 0.121 0.645-0.471 1.323-0.889 1.993-1.321 0.128 0.913-0.117 1.994-0.141 2.878-0.018 0.656 0.041 1.321-0.011 1.975-0.038 0.486-0.155 0.918-0.134 1.406 0.089 2.054-0.662 4.208-0.462 6.286-0.303-0.272-0.607-0.542-0.919-0.804-0.344-0.289-0.732-0.714-1.169-0.9 0.339-0.337 0.615-0.727 0.764-1.142 0.376-0.549 0.617-1.164 0.74-1.809-0.004-0.004-0.010-0.008-0.014-0.012-0.037-0.036-0.060-0.068-0.081-0.106-0.248-0.027-0.499-0.031-0.745-0.076-0.107 0.082-0.198 0.178-0.218 0.254-0.513 1.96-1.844 3.363-3.937 3.435-0.146 0.005-0.286 0.002-0.425-0.002 0.004-0.020 0.003-0.041 0-0.060 0.008-0.093 0.013-0.221-0.003-0.339 0.115-0.315 0.142-0.667 0.125-0.997 0-0.003-0.002-0.004-0.002-0.009-0.226 0.027-0.45 0.060-0.676 0.070-0.111 0.101-0.202 0.235-0.222 0.338-0.045 0.22-0.155 0.504-0.173 0.759-0.013 0.044-0.025 0.088-0.038 0.133-0.986-0.185-1.874-0.58-2.855-1.020-0.13-0.058-0.467 0.265-0.406 0.396 0.026 0.057 0.057 0.111 0.093 0.163-0.024 0.047-0.051 0.091-0.082 0.133 0.010 0.087 0.036 0.175 0.044 0.259 0.002 0.010 0.001 0.020 0.002 0.030 0.518 0.332 1.090 0.602 1.703 0.797 0.227 0.072 0.467 0.146 0.715 0.215 0.005-0.001 0.012-0.001 0.018-0.001 0.005 0.002 0.012 0.003 0.019 0.004 0.11 0.019 0.22 0.030 0.331 0.033 0.683 0.060 1.374 0.038 2.052-0.072 0.135-0.011 0.271-0.024 0.407-0.045 0.029-0.004 0.056-0.011 0.084-0.016 0.384 0.025 0.813-0.106 1.222-0.309 0.254-0.090 0.523-0.222 0.788-0.39 0.276 0.362 0.701 0.631 1.029 0.933 0.171 0.155 0.328 0.325 0.483 0.497 0.003 0.018 0.010 0.035 0.021 0.049 0.057 0.069 0.121 0.129 0.185 0.185 0.081 0.092 0.164 0.184 0.247 0.274 0.105 0.076 0.203 0.165 0.3 0.259 0.063 0.061 0.125 0.127 0.19 0.189 0.051 0.034 0.105 0.064 0.155 0.101 0.289-0.010 0.573-0.023 0.851-0.043 0.032-0.001 0.099-0.044 0.16-0.095 0.002-0.064 0.010-0.13 0.019-0.196-0.001 0-0.002 0-0.002 0 0.001-0.001 0.001-0.003 0.002-0.004 0.030-0.202 0.081-0.397 0.118-0.53 0.002-0.011 0.008-0.018 0.012-0.026-0.008-0.001-0.013-0.001-0.019-0.002 0.222-2.235 0.12-4.268 0.437-6.974-0.013-0.097 0.003-0.202 0.036-0.305 0.001-0.013 0.002-0.024 0.004-0.037 0.285-2.245 0.199-4.545 0.439-6.797 0.004-0.045-0.035-0.066-0.072-0.075z"></path>
<path d="M14.695 23.212c-1.63-0.044-3.257-0.072-4.885-0.147 0.207-0.25 0.366-0.544 0.549-0.806 0.203-0.291 0.432-0.538 0.618-0.819-0.011-0.024-0.023-0.048-0.029-0.072-0.005-0.008-0.013-0.011-0.018-0.018-0.039-0.057-0.030-0.098-0.055-0.152-0.016-0.031-0.030-0.055-0.044-0.076-0.069-0.042-0.146-0.072-0.22-0.086-0.411 0.354-0.788 0.744-1.149 1.149-0.063 0.072-0.132 0.146-0.203 0.222 0.122-2.182-0.347-4.341-0.397-6.515-0.051-2.233 0.079-4.529-0.165-6.752-0.167 0.054-0.332 0.113-0.499 0.168-0.075 0.025-0.189 0.053-0.297 0.092-0.296 0.362-0.245 0.93-0.232 1.483 0.024 0.935 0.047 1.869 0.072 2.802 0.022 0.797-0.091 1.744 0.171 2.511 0.009 0.184 0.020 0.366 0.031 0.549 0.010-0.002 0.019-0.004 0.029-0.010 0.001 1.205 0.074 2.414 0.128 3.617 0.029 0.642 0.057 1.284 0.092 1.926 0.026 0.475-0.029 1.065 0.19 1.5 0.019 0.037 0.105 0.014 0.127 0.005 0.003-0.001 0.008-0.002 0.011-0.003-0.030 0.068-0.026 0.121 0.038 0.134 1.825 0.38 3.764 0.377 5.651 0.303 0.031-0.020 0.066-0.039 0.107-0.060 0.081-0.041 0.037 0.001 0.067-0.048 0.032-0.056 0.053-0.133 0.079-0.192 0.048-0.111 0.094-0.224 0.148-0.333-0.005 0-0.012-0.001-0.019-0.001 0.175-0.161 0.304-0.371 0.105-0.376z"></path>
<path d="M19.006 7.591c-0.632-0.009-1.265 0.004-1.896 0.029-0.098-0.39-0.211-0.746-0.244-1.158-0.017-0.221 0.002-0.587-0.116-0.821-0.035-0.439-0.063-0.876-0.063-1.319 0.192-0.116 0.363-0.29 0.514-0.556 0.010 0.001 0.019 0.001 0.029 0.001 0.010-0.013 0.020-0.026 0.029-0.041 0.087-0.136 0.107-0.196 0.23-0.317 0.078-0.078 0.138-0.162 0.189-0.252 0.001 0 0.001 0 0.001-0.001 0.007-0.010 0.011-0.020 0.016-0.031-0.026-0.032-0.049-0.069-0.069-0.107-0.516-0.026-1.037-0.024-1.561 0.012-1.822 0.016-3.686 0.368-5.321 1.167-0.004 0.002-0.011 0.008-0.018 0.014-0.527 0.186-1.036 0.407-1.52 0.664-0.025 0.009-0.051 0.023-0.078 0.041-0.046 0.026-0.095 0.050-0.142 0.076 0.011 0.009 0.020 0.019 0.032 0.027-0.036 0.046-0.059 0.093-0.045 0.125 0.014 0.038 0.018 0.074 0.022 0.11-0.024 0.047-0.036 0.091-0.018 0.123 0.016 0.029 0.034 0.060 0.054 0.088-0.023 0.076-0.041 0.153-0.053 0.229-0.008 0.023-0.011 0.045-0.010 0.067-0.016 0.147-0.012 0.301 0.011 0.481 0.017 0.131 0.212 0.045 0.271 0.016 1.78-0.9 3.69-1.47 5.681-1.645 0.074-0.005 0.144-0.011 0.214-0.016v-0.001c0.010 0.001 0.019 0 0.027 0.001 0.010 0.001 0.018 0.003 0.029 0.003 0.078 0 0.154 0 0.23 0.001 0.031-0.001 0.068-0.014 0.106-0.035 0.026-0.002 0.051-0.008 0.076-0.011 0.025 0.339 0.059 0.676 0.092 1.011 0.018 0.025 0.034 0.055 0.039 0.093 0.026 0.159 0.047 0.307 0.068 0.462 0 0.002 0.001 0.003 0.001 0.004 0 0.002 0.001 0.003 0.001 0.004 0.050 0.197 0.081 0.382 0.073 0.638 0 0.008-0.003 0.013-0.004 0.020 0.008 0.093 0.013 0.186 0.023 0.278 0.031 0.21 0.069 0.421 0.112 0.636-0.15 0.005-0.3 0.017-0.449 0.031-0.002-0.013-0.004-0.026-0.009-0.038-0.263 0.016-0.525 0.030-0.789 0.048-1.399-0.002-2.792 0.062-4.182 0.191-0.477 0.019-0.955 0.041-1.432 0.064-0.129 0.005-0.369 0.232-0.451 0.399 0.057 0.057 0.113 0.116 0.166 0.179 0.009-0.001 0.016-0.001 0.024-0.001-0.001 0.016 0.002 0.026 0.005 0.036 0.004 0.005 0.009 0.013 0.013 0.019 0.009 0.009 0.017 0.016 0.032 0.018 0.068 0.127 0.166 0.242 0.277 0.351 0.211 0.446 0.615 0.72 0.989 1.034 0.197 0.163 0.389 0.332 0.582 0.499 0.14 0.204 0.317 0.382 0.507 0.547-0.009 0.008-0.017 0.013-0.025 0.020-0.226 0.316-0.451 0.633-0.698 0.933-0.010 0.011-0.020 0.022-0.031 0.030-0.009 0.011-0.017 0.022-0.025 0.032-0.049 0.067-0.043 0.104-0.014 0.112-0.14 0.248-0.28 0.496-0.421 0.745-0.060 0.107-0.017 0.149 0.050 0.14-0.179 0.466-0.333 0.898-0.384 1.431-0.004 0.043 0.011 0.059 0.032 0.062-0.035 0.193-0.063 0.388-0.079 0.586-0.177 2.336 0.993 4.211 2.797 5.285 0.127-0.365 0.337-0.685 0.561-0.997-1.158-0.653-2.019-1.768-2.363-3.064 0.247-0.033 0.495-0.066 0.744-0.087 0.061 0.001 0.122 0.001 0.183 0.002 0.024 0 0.050-0.008 0.079-0.018 0.050-0.003 0.1-0.008 0.15-0.009 0.057-0.060 0.098-0.123 0.070-0.153 0.1-0.101 0.181-0.223 0.198-0.311 0.036-0.079 0.054-0.168-0.035-0.183-0.26-0.042-0.533-0.024-0.797-0.036-0.205-0.010-0.397-0.038-0.588-0.013 0.005-0.087 0.015-0.173 0.032-0.258-0.060-0.31 0.135-1.026 0.165-1.279 0.053-0.462 0.161-0.862 0.325-1.227 0.346-0.518 0.855-0.904 1.398-1.309 0.461-0.344 0.65-0.534 0.233-1.010-0.027-0.031-0.066-0.035-0.109-0.026-0.023-0.030-0.045-0.060-0.068-0.090-0.039-0.051-0.073-0.109-0.107-0.166-0.177 0.093-0.347 0.195-0.517 0.302-0.034-0.032-0.069-0.063-0.105-0.095-0.283-0.387-0.593-0.701-0.981-1.032-0.187-0.161-0.352-0.34-0.525-0.508 2.613-0.162 5.227-0.217 7.846-0.159 0.113 0.003 0.3-0.148 0.414-0.298 0.026-0.062 0.058-0.119 0.093-0.174 0.003-0.013 0.009-0.026 0.009-0.037 0.010-0.012 0.018-0.024 0.026-0.036 0.019-0.021 0.041-0.043 0.060-0.066 0.010-0.012 0.018-0.024 0.026-0.036 0.011-0.019 0.020-0.039 0.030-0.057 0.037-0.067 0.074-0.133 0.112-0.197-0.005 0-0.012 0-0.019 0 0.089-0.127 0.112-0.237-0.037-0.24z"></path>
<path d="M8.359 5.415c0.014-0.014 0.027-0.030 0.048-0.041-0.013 0.007-0.010 0.003 0.003-0.003-0.022-0.009-0.043-0.019-0.065-0.037-0.002-0.001-0.003-0.002-0.004-0.003s0-0.002 0-0.002c-0.036-0.094-0.075-0.22-0.144-0.294-0.005-0.007-0.016-0.008-0.023-0.011-0.033-0.044-0.067-0.087-0.105-0.128-0.517 0.234-1.006 0.518-1.45 0.868-0.045 0.024-0.093 0.046-0.138 0.070-0.377 0.297-0.707 0.648-1.068 0.968-0.415 0.366-0.76 0.749-1.079 1.144 0.010 0.001 0.019 0.002 0.030 0.002-0.023 0.017-0.044 0.035-0.063 0.055-0.017 0.018-0.031 0.037-0.044 0.056-0.004 0.005-0.008 0.009-0.012 0.013-0.023 0.016-0.045 0.031-0.066 0.050-0.024 0.021-0.116 0.125-0.044 0.149 0.098 0.031 0.193 0.035 0.294 0.033 0 0.027 0.014 0.051 0.049 0.066 0.641 0.258 0.932 0.053 1.386-0.396 0.68-0.673 1.442-1.225 2.283-1.679 0.138-0.074 0.394-0.297 0.361-0.485-0.043-0.252-0.032-0.223-0.147-0.396z"></path>
<path d="M28.401 9.771c-0.056-0.13-0.103-0.264-0.135-0.403-0.001 0.002-0.002 0.002-0.004 0.004-0.038-0.078-0.074-0.156-0.115-0.233-2.003-3.751-5.461-5.686-9.22-5.934-0.004 0.030-0.009 0.060-0.017 0.088-0.062 0.212-0.221 0.38-0.291 0.594-0.008 0.022-0.014 0.043-0.023 0.063 0.014 0.001 0.029 0.002 0.043 0.002-0.086 0.123-0.159 0.257-0.222 0.414-0.038 0.097-0.034 0.209 0.097 0.197 1.931-0.178 3.867 0.304 5.458 1.424 1.558 1.096 2.629 2.811 3.786 4.293 0.14 0.178 0.71-0.283 0.632-0.502 0.003-0.002 0.008-0.007 0.011-0.009z"></path>
<path d="M29.464 13.753c-0.002-0.018-0.004-0.037-0.007-0.055-0.049-0.208-0.109-0.414-0.155-0.608-0.004-0.018-0.013-0.027-0.025-0.033-0.016-0.166-0.037-0.334-0.062-0.502 0.008-0.010 0.014-0.019 0.018-0.027 0.006-0.024 0.011-0.045 0.014-0.067-0.009-0.033-0.016-0.066-0.024-0.098-0.089-0.248-0.191-0.494-0.283-0.741-0.175 0.207-0.345 0.418-0.501 0.639-0.067 0.138-0.116 0.28-0.149 0.427 0.16 0.601 0.101 1.309 0.037 1.894 0.034 0.283 0.062 0.563 0.063 0.835-0.967-0.169-1.969-0.364-2.919-0.328-0.1 0.18-0.301 0.537-0.281 0.677 1.009 0.208 2.079 0.458 3.113 0.518-0.128 0.678-0.359 1.305-0.521 1.993-0.086 0.365-0.113 0.68 0.177 0.84 0.047 0.168 0.116 0.327 0.232 0.473 0.036 0.045 0.068 0.088 0.101 0.131 0.112-0.185 0.221-0.371 0.325-0.562 0.156-0.598 0.313-1.196 0.494-1.788 0.054-0.433 0.11-0.843 0.217-1.282 0.008-0.032 0.012-0.064 0.019-0.097 0.014-0.1 0.030-0.2 0.045-0.301 0.029-0.286 0.027-0.577 0.042-0.865 0.009-0.009 0.016-0.016 0.017-0.020 0.002-0.004 0.002-0.010 0.004-0.014-0.032-0.345-0.026-0.692 0.009-1.038z"></path>
<path d="M26.997 23.339c-0.054-0.1-0.125-0.223-0.178-0.351-0.178 0.026-0.451 0.325-0.487 0.412-0.018 0.044-0.037 0.086-0.056 0.129-0.010 0.009-0.018 0.016-0.022 0.020-0.765 0.957-1.721 1.672-2.756 2.313-1.025 0.634-2.099 1.357-3.294 1.603-0.082 0.017-0.202 0.116-0.302 0.229-0.303 0.087-0.6 0.171-0.889 0.253-0.031 0.009-0.122 0.092-0.185 0.172-0.152 0.031-0.304 0.060-0.458 0.081 0.051 0.143 0.112 0.278 0.261 0.378 0.193 0.131 0.388 0.239 0.523 0.421 3.267-0.643 6.148-2.528 8.136-5.148-0.101-0.169-0.201-0.339-0.294-0.513z"></path>
<path d="M29.421 20.997c-0.074-0.075-0.154-0.146-0.232-0.217-0.122-0.054-0.24-0.112-0.347-0.186-0.123 0.069-0.242 0.163-0.277 0.22-0.014 0.025-0.026 0.051-0.039 0.076-0.001 0-0.001 0-0.002 0-0.005 0.013-0.012 0.025-0.018 0.038-0.005 0.012-0.012 0.024-0.018 0.036-0.277 0.591-0.598 1.149-0.907 1.722-0.011 0.020-0.017 0.041-0.026 0.061 0.166 0.285 0.344 0.561 0.511 0.845 0.090-0.128 0.177-0.259 0.263-0.389 0.006-0.010 0.013-0.019 0.019-0.030 0.426-0.649 0.803-1.336 1.117-2.056-0.003-0.004-0.006-0.009-0.010-0.013-0.024-0.036-0.034-0.073-0.034-0.106z"></path>
<path d="M2.922 12.584c-0.118 0.165-0.226 0.338-0.323 0.517 0.002 0.080 0.019 0.161 0.056 0.24 0.093 0.194 0.275 0.335 0.489 0.362 0.045 0.005 0.091-0.001 0.135-0.016 0.045 0.014 0.092 0.025 0.138 0.035 0.069 0.013 0.216-0.1 0.247-0.196-0.295-0.27-0.544-0.593-0.742-0.942z"></path>
</svg>
