<!-- Generated by IcoMoon.io -->
<svg version="1.1" xmlns="http://www.w3.org/2000/svg" width="32" height="32" viewBox="0 0 32 32">
<title>silence_and_mystery</title>
<path d="M3.393 24.425c0.033 0.032 0.055 0.070 0.062 0.112 0.082 0.117 0.18 0.215 0.295 0.297 0.007 0.008 0.317 0.287 0.407 0.337 0.155 0.085 0.375 0.017 0.532 0.092 0.187 0.090 0.287 0.667 0.372 0.82 0.145 0.26 0.315 0.307 0.507 0.495 0.125 0.12 0.162 0.26 0.267 0.417 0.28 0.412 0.507 0.855 0.88 1.199 0.325 0.302 0.89 0.267 1.287 0.4 0.22 0.072 0.25 0.252 0.44 0.385 0.15 0.102 0.28 0.12 0.457 0.115 0.332-0.008 0.675 0.072 1.007 0.11 0.317 0.037 0.547 0.067 0.795 0.267 0.112 0.090 0.197 0.245 0.327 0.31 0.27 0.020 0.537 0.047 0.807 0.085 0.21 0.010 0.402 0.067 0.577 0.17-0.012 0.087 0.155 0.142 0.212 0.177 0.325 0.187 0.675 0.3 1.037 0.402 0.267 0.075 0.515 0.15 0.78 0.237 0.3 0.1 0.585 0.077 0.897 0.075 0.512-0.008 0.995 0.062 1.507 0.062 0.825 0 1.654 0.047 2.471-0.090 0.242-0.040 0.477-0.1 0.71-0.177 0.2-0.142 0.395-0.295 0.582-0.455 0.157-0.11 0.297-0.18 0.47-0.252 0.557-0.232 1.162-0.275 1.752-0.4 0.615-0.13 1.202-0.38 1.689-0.782 0.392-0.327 0.665-0.767 0.99-1.152 0.28-0.332 0.562-0.657 0.922-0.905 0.495-0.337 1.030-0.61 1.507-0.977 0.097-0.072 0.382-0.222 0.405-0.367 0.012-0.097-0.027-0.080-0.062-0.16-0.112-0.257-0.252-0.467-0.412-0.697-0.115-0.162-0.272-0.332-0.342-0.52-0.050-0.132 0.003-0.092-0.142-0.22-0.17-0.147-0.26-0.332-0.38-0.515-0.052-0.080-0.095-0.182-0.207-0.167-0.072 0.010-0.235 0.467-0.245 0.497-0.102 0.312-0.137 0.642-0.292 0.94-0.21 0.397-0.552 0.74-0.85 1.077-0.067 0.077-0.287 0.397-0.415 0.34-0.060-0.325-0.003-0.702 0.062-1.020 0.055-0.267 0.065-0.192-0.137-0.38-0.372-0.345-0.71-0.737-1.032-1.127-0.267-0.327-0.49-0.71-0.48-1.147 0-0.055 0.020-0.115-0.003-0.167-0.042-0.092-0.197-0.132-0.242-0.225-0.023-0.050-0.003-0.115-0.008-0.17-0.012-0.127-0.075-0.245-0.122-0.36-0.122-0.292-0.205-0.59-0.272-0.897-0.012-0.055-0.025-0.2-0.052-0.26-0.037-0.085-0.14-0.117-0.2-0.18-0.067-0.070-0.090-0.152-0.155-0.235-0.060-0.077-0.15-0.115-0.182-0.22-0.372 0.152-0.627 0.602-0.872 0.905-0.402 0.5-0.88 1.007-0.995 1.659-0.047 0.27-0.075 0.535-0.147 0.797-0.085 0.305-0.197 0.61-0.3 0.907-0.11 0.31-0.135 0.417-0.367 0.597-0.152 0.12-0.325 0.217-0.475 0.335-0.2 0.157-0.402 0.312-0.597 0.48s-0.26 0.32-0.352 0.56c-0.24 0.625-0.51 1.399-0.99 1.894-0.085-0.1-0.13-0.312-0.175-0.415-0.145-0.337-0.277-0.677-0.415-1.017-0.045-0.107-0.072-0.155-0.1-0.265-0.040-0.197-0.072-0.397-0.097-0.597 0.035-0.107 0.012-0.177-0.062-0.212-0.185 0.125-0.37 0.275-0.582 0.34-0.295-0.502-0.577-1.045-0.757-1.599-0.087-0.267-0.095-0.545-0.19-0.812-0.070-0.195-0.11-0.342-0.22-0.517-0.14-0.22-0.27-0.525-0.34-0.777-0.035-0.132-0.040-0.285-0.13-0.395-0.195-0.24-0.547-0.327-0.765-0.545-0.047-0.050-0.122-0.13-0.17-0.192-0.090-0.11-0.097-0.315-0.187-0.407-0.212 0.65-0.732 1.132-1.237 1.562-0.38 0.325-0.612 0.825-0.682 1.317-0.15 0.020-0.357-0.145-0.462-0.237-0.292-0.267-0.367-0.712-0.47-1.082-0.062-0.227-0.075-0.592-0.325-0.327-0.097 0.102-0.147 0.205-0.202 0.332-0.092 0.21-0.227 0.382-0.382 0.55-0.127 0.135-0.277 0.242-0.42 0.362-0.282 0.237-0.517 0.527-0.797 0.772-0.172-0.057-0.305-0.205-0.505-0.19-0.102 0.008-0.205 0.072-0.29 0.12-0.057 0.032-0.175 0.145-0.227 0.142-0.2-0.010-0.45-0.505-0.547-0.647-0.042-0.062-0.107-0.135-0.112-0.215-0.115 0.017-0.245 0.162-0.337 0.23-0.15 0.112-0.3 0.217-0.445 0.335-0.22 0.175-0.487 0.347-0.74 0.465-0.1 0.047-0.207 0.112-0.312 0.147-0.095 0.030-0.202 0.035-0.305 0.070-0.212 0.072-0.437 0.085-0.647 0.155-0.080 0.027-0.152 0.085-0.047 0.22z"></path>
<path d="M18.358 24.125c-0.010-0.025-0.037-0.057-0.060-0.087 0.023 0.045 0.047 0.090 0.075 0.135-0.005-0.015-0.008-0.032-0.015-0.047z"></path>
<path d="M26.64 6.015c-0.047-0.077-0.082-0.162-0.135-0.237-0.050-0.075-0.117-0.117-0.172-0.185-0.172-0.22-0.262-0.51-0.457-0.715-0.132-0.14-0.28-0.295-0.442-0.397-0.217-0.142-0.452-0.275-0.65-0.45-0.1-0.087-0.137-0.19-0.217-0.28-0.122-0.142-0.37-0.14-0.537-0.212-0.255-0.115-0.515-0.15-0.777-0.245-0.182-0.065-0.325-0.16-0.467-0.287-0.072-0.062-0.142-0.165-0.225-0.215-0.172-0.102-0.41-0.027-0.595-0.062-0.167-0.033-0.247-0.072-0.427-0.045-0.217 0.035-0.447 0.055-0.657 0.11-0.080 0.020-0.132 0.062-0.205 0.092 0.023-0.142 0.062-0.237 0.042-0.387-0.008-0.052 0.030-0.070-0.015-0.12-0.115-0.007-0.232-0.015-0.347-0.022-0.262 0.020-0.527 0.015-0.787-0.018-0.27-0.025-0.557-0.14-0.827-0.197-0.175-0.037-0.317-0.125-0.485-0.19-0.185-0.070-0.36-0.162-0.555-0.205-0.117-0.025-0.312-0.032-0.392-0.145-0.11-0.157-0.030-0.435-0.12-0.602-0.145 0.055-0.19 0.287-0.225 0.415-0.042 0.155-0.13 0.282-0.21 0.43-0.22 0.397-0.455 0.755-0.76 1.092-0.242 0.267-0.457 0.557-0.702 0.825-0.145 0.16-0.265 0.295-0.332 0.495-0.11 0.31-0.255 0.635-0.322 0.957-0.052 0.245-0.135 0.57-0.122 0.822 0.005 0.132 0.037 0.28 0.11 0.377 0.037 0.048 0.085 0.070 0.132 0.097-0.060 0.062-0.122 0.135-0.187 0.217 0.042 0.14 0.105 0.225 0.127 0.382 0.018 0.117 0.023 0.247 0.072 0.355 0.082 0.177 0.125 0.377 0.262 0.527 0.16 0.177 0.315 0.3 0.507 0.43 0.255 0.175 0.525 0.235 0.832 0.28 0.302 0.047 0.595 0.025 0.9 0.025 0.082 0 0.212-0.015 0.32-0.018 0.077 0.055 0.157 0.107 0.235 0.162 0.482 0.332 0.9 0.74 1.317 1.149 0.545 0.53 1.007 1.077 1.397 1.732 0.21 0.355 0.362 0.672 0.425 1.077 0.037 0.23 0.062 0.457 0.067 0.69 0.010 0.467-0.147 1.035-0.385 1.434-0.405 0.677-0.695 1.419-1.017 2.139-0.24 0.537-0.465 1.085-0.7 1.627-0.195 0.45-0.442 0.905-0.59 1.374-0.267 0.845-0.732 1.609-0.555 2.531 0.060 0.32 0.15 0.58 0.267 0.875 0.070 0.177 0.115 0.33 0.22 0.502 0.005 0.010 0.015 0.023 0.025 0.035-0.307-0.587-0.392-1.097-0.205-1.574 0.1-0.252 0.217-0.51 0.35-0.75 0.167-0.305 0.472-0.54 0.627-0.857 0.105-0.22 0.195-0.447 0.322-0.662 0.182-0.302 0.355-0.545 0.585-0.815 0.192-0.225 0.332-0.477 0.565-0.665 0.217-0.177 0.445-0.335 0.622-0.555 0.205-0.257 0.455-0.517 0.785-0.562 0.3-0.042 0.28-0.11 0.445-0.337 0.052-0.070 0.117-0.137 0.17-0.212 0.052-0.072 0.122-0.175 0.147-0.26 0.015-0.057 0.005-0.112 0.025-0.167 0.032-0.095 0.332-0.292 0.41-0.362 0.297-0.265 0.51-0.572 0.77-0.86 0.175-0.195 0.392-0.325 0.612-0.465 0.155-0.1 0.3-0.215 0.455-0.307 0.197-0.12 0.482-0.112 0.66-0.245 0.092-0.070 0.135-0.187 0.19-0.287 0.107-0.195 0.235-0.377 0.362-0.56 0.235-0.34 0.35-0.655 0.282-1.070-0.030-0.192-0.037-0.442-0.127-0.62-0.122-0.237-0.325-0.43-0.475-0.652-0.192-0.282-0.422-0.457-0.687-0.662-0.14-0.11-0.287-0.245-0.415-0.37-0.045-0.042-0.075-0.1-0.127-0.137-0.062-0.045-0.145-0.050-0.202-0.092-0.195-0.145-0.247-0.362-0.282-0.587-0.047-0.28-0.182-0.632-0.062-0.902 0.092-0.22 0.2-0.382 0.367-0.547 0.23-0.23 0.457-0.39 0.732-0.57 0.222-0.145 0.462-0.257 0.705-0.367 0.135-0.060 0.285-0.155 0.425-0.2 0.105-0.037 0.232-0.018 0.337-0.057 0.077-0.027 0.13-0.087 0.217-0.1-0.072-0.205-0.13-0.4-0.242-0.585z"></path>
<path d="M18.461 24.325c-0.032-0.052-0.060-0.102-0.090-0.155 0.012 0.052 0.012 0.102 0.037 0.152 0.017 0 0.035 0.003 0.052 0.003z"></path>
<path d="M17.008 23.63c0.040 0.070 0.062 0.202 0.115 0.257 0.030 0.027 0.082 0.032 0.11 0.062 0.075 0.080 0.070 0.202 0.232 0.157l-0.685-1.040c-0.087-0.045-0.167-0.177-0.152-0.107 0.055 0.282 0.242 0.435 0.38 0.67z"></path>
<path d="M18.062 17.3c0.097-0.247 0.185-0.487 0.252-0.742 0.077-0.292 0.265-0.56 0.37-0.845 0.062-0.172 0.13-0.352 0.175-0.527 0.105-0.402 0.097-0.845 0.045-1.252-0.023-0.177 0.003-0.35-0.017-0.525-0.027-0.267-0.077-0.55-0.135-0.815-0.055-0.257-0.227-0.55-0.327-0.79-0.082-0.192-0.18-0.377-0.342-0.515-0.23-0.195-0.505-0.375-0.78-0.505-0.275-0.127-0.582-0.097-0.88-0.127-0.262-0.027-0.49-0.142-0.75-0.177-0.25-0.033-0.422-0.122-0.65-0.232-0.215-0.1-0.455-0.167-0.642-0.315-0.277-0.222-0.46-0.475-0.685-0.745-0.267-0.32-0.542-0.627-0.785-0.97-0.237-0.34-0.442-0.762-0.532-1.167-0.097-0.43-0.087-0.845-0.085-1.274 0-0.142 0.050-0.285 0.060-0.43 0.012-0.165 0.040-0.327 0.057-0.492 0.027-0.292 0.085-0.59 0.125-0.882 0.010-0.072 0.025-0.147 0.035-0.22 0.012-0.092-0.025-0.182-0.018-0.267 0.002-0.027 0.035-0.075 0.037-0.090 0.002-0.092-0.027-0.165-0.033-0.257-0.005-0.102 0.023-0.202 0.018-0.305 0-0.037-0.027-0.082-0.027-0.122 0.005-0.095 0.062-0.162 0.080-0.255 0.018-0.115 0.042-0.227 0.062-0.342-0.047 0.010-0.062 0.047-0.102 0.080-0.152 0.125-0.305 0.247-0.46 0.37-0.137 0.11-0.265 0.242-0.392 0.365-0.227 0.22-0.547 0.27-0.85 0.365-0.51 0.165-1.135 0.427-1.497 0.847-0.147 0.17-0.245 0.372-0.357 0.562-0.147 0.255-0.297 0.362-0.517 0.542-0.637 0.525-1.392 0.962-1.879 1.652-0.185 0.262-0.29 0.532-0.365 0.845-0.045 0.18-0.087 0.397-0.182 0.552-0.090 0.147-0.167 0.32-0.272 0.457-0.152 0.202-0.4 0.342-0.49 0.59 0.045 0.030 0.087 0.060 0.132 0.090 0.040 0.050 0.087 0.102 0.12 0.165 0.12 0.245 0.192 0.41 0.38 0.612 0.38 0.417 0.72 0.832 1.232 1.090 0.232 0.115 0.482 0.245 0.695 0.392 0.27 0.182 0.48 0.527 0.68 0.78 0.082 0.102 0.15 0.225 0.242 0.317 0.127 0.13 0.24 0.17 0.412 0.245 0.285 0.122 0.565 0.257 0.86 0.37 0.33 0.125 0.682 0.17 1.025 0.252 0.357 0.085 0.68 0.215 1.052 0.185 0.59-0.047 1.18-0.010 1.769-0.012 0.185 0 0.365 0.023 0.552 0.008 0.102-0.008 0.23-0.047 0.332-0.033 0.065 0.010 0.15 0.067 0.217 0.097 0.010 0.035 0.023 0.072 0.035 0.11 0.065 0.2 0.082 0.41 0.117 0.617 0.037 0.222 0.107 0.462 0.105 0.69-0.002 0.15-0.035 0.31-0.057 0.457-0.025 0.17-0.023 0.355-0.055 0.52-0.015 0.087-0.067 0.157-0.077 0.247-0.010 0.087 0.005 0.177 0 0.265-0.008 0.16-0.055 0.312-0.067 0.472-0.025 0.347-0.040 0.697 0 1.045 0.060 0.515 0.027 1.072 0.245 1.557 0.052 0.12 0.16 0.39 0.33 0.372 0.065 0.332 0.167 0.652 0.305 0.965 0.115 0.26 0.217 0.51 0.302 0.777 0.067 0.205 0.212 0.382 0.31 0.575 0.020 0.040 0.040 0.105 0.067 0.172-0.060-0.305-0.115-0.615-0.145-0.92-0.045-0.43 0.090-0.752 0.197-1.154 0.077-0.287 0.147-0.452 0.285-0.717 0.112-0.215 0.172-0.445 0.28-0.66 0.19-0.377 0.312-0.745 0.45-1.139 0.102-0.297 0.292-0.557 0.407-0.85z"></path>
<path d="M10.34 3.456c-0.090-0.027-0.182 0.095-0.27 0.127-0.21 0.077-0.442 0.107-0.655 0.187-0.107 0.040-0.237 0.045-0.335 0.102-0.092 0.055-0.107 0.087-0.225 0.127-0.327 0.105-0.702 0.365-0.922 0.63-0.137 0.165-0.23 0.367-0.327 0.555-0.095 0.18-0.23 0.275-0.397 0.387-0.365 0.245-0.805 0.38-1.149 0.645-0.262 0.202-0.377 0.487-0.532 0.76-0.102 0.177-0.252 0.28-0.35 0.46-0.037 0.072-0.090 0.14-0.135 0.197-0.13 0.162-0.28 0.327-0.412 0.495-0.087 0.11-0.15 0.147-0.285 0.187-0.15 0.045-0.282 0.112-0.437 0.14-0.040 0.1 0.002 0.212 0.070 0.292 0.080 0.095 0.117 0.137 0.157 0.262 0.11 0.33 0.135 0.64 0.392 0.885 0.215 0.205 0.252 0.327 0.257 0.62 0.003 0.185-0.032 0.387 0.012 0.57 0.075 0.312 0.092 0.67 0.24 0.967 0.045 0.090 0.107 0.115 0.185 0.177 0.115 0.095 0.215 0.212 0.305 0.327 0.192 0.242 0.497 0.407 0.772 0.547 0.457 0.232 1.012 0.36 1.512 0.44 0.517 0.082 1.025 0.165 1.539 0.26 0.222 0.040 0.445 0.077 0.672 0.077 0.297 0.002 0.58 0.002 0.87-0.050 0.247-0.047 0.495-0.057 0.735-0.145 0.115-0.040 0.165-0.080 0.302-0.12 0.425-0.125 0.857-0.225 1.267-0.372 0.355-0.125 0.607-0.025 0.955-0.012 0.175 0.005 0.145 0.010 0.242 0.125 0.12 0.135 0.25 0.25 0.367 0.395 0.13 0.162 0.185 0.315 0.282 0.492 0.055 0.095 0.097 0.142 0.127 0.255 0.060 0.22 0.1 0.49 0.132 0.712 0.045 0.307 0.070 0.727 0.012 1.042-0.018 0.097-0.047 0.177-0.050 0.277-0.010 0.21 0.060 0.53-0.042 0.717-0.070 0.13-0.17 0.105-0.275 0.197-0.087 0.077-0.097 0.195-0.125 0.312-0.037 0.172-0.057 0.327-0.125 0.49-0.060 0.147-0.097 0.31-0.050 0.465 0.020 0.067 0.090 0.135 0.112 0.205 0.115 0.355 0.115 0.787 0.175 1.152 0.037 0.242 0.14 0.455 0.187 0.697 0.047 0.225 0.18 0.342 0.257 0.55 0.112 0.305 0.13 0.642 0.185 0.957 0.072 0.402 2.157 2.554 2.109 2.459-0.077-0.147-0.197-0.297-0.292-0.432-0.242-0.342-1.182-2.069-1.222-2.212-0.077-0.282-0.067-0.605-0.077-0.897-0.017-0.517 0.17-0.965 0.265-1.454 0.117-0.607 0.227-1.207 0.272-1.824 0.087-1.217 0.152-2.519-0.077-3.718-0.102-0.532-0.26-1.047-0.412-1.569-0.065-0.217-0.062-0.465-0.135-0.675-0.087-0.27-0.312-0.24-0.575-0.265-0.517-0.050-1.027-0.023-1.544-0.018-0.872 0.012-1.644-0.242-2.434-0.587-0.807-0.352-1.432-0.852-1.959-1.544-0.732-0.965-0.842-2.297-0.192-3.326 0.345-0.545 0.945-0.777 1.329-1.277 0.14-0.182 0.267-0.372 0.387-0.57 0.15-0.242 0.297-0.482 0.42-0.74 0.065-0.137 0.082-0.32 0.175-0.432z"></path>
<path d="M16.276 21.044c-0.010 0.057 0.027 0.127 0.030 0.19s0.027 0.145 0.047 0.205c0.023 0.065 0.075 0.11 0.097 0.172 0.020 0.060 0.055 0.14 0.070 0.197s0.010 0.095 0.037 0.147c0.040 0.075 0.080 0.147 0.112 0.222 0.052 0.125 0.127 0.24 0.172 0.365 0.032 0.095 0.060 0.185 0.087 0.285 0.025 0.097 0.082 0.175 0.102 0.27 0.025 0.115 0.1 0.24 0.155 0.352 0.087 0.177 0.19 0.345 0.275 0.52 0.037 0.075 0.085 0.125 0.125 0.195 0.065 0.115 0.145 0.312 0.102 0.447-0.025 0.080-0.077 0.075-0.127 0.032-0.135-0.112-0.255-0.272-0.382-0.397-0.24-0.235-0.427-0.52-0.665-0.755-0.185-0.185-0.355-0.395-0.445-0.642-0.047-0.127-0.107-0.257-0.137-0.39-0.035-0.16-0.055-0.34-0.067-0.505-0.010-0.15-0.033-0.345-0.002-0.492 0.015-0.077 0.067-0.162 0.1-0.227 0.085-0.165 0.145-0.327 0.312-0.192z"></path>
<path d="M17.918 21.941c-0.085 0.020-0.125 0.267-0.127 0.352-0.003 0.080 0 0.165 0 0.247 0 0.095 0.010 0.155 0.042 0.245 0.012 0.040 0.005 0.102 0.020 0.137 0.010 0.025 0.025 0.042 0.047 0.055 0.015 0.030 0.027 0.062 0.037 0.095 0.027 0.065 0.065 0.122 0.075 0.195 0.008 0.042 0.010 0.075 0.023 0.12 0.035 0.145 0.082 0.27 0.135 0.405 0.052 0.14 0.095 0.28 0.15 0.42 0.040 0.102 0.122 0.227 0.137 0.332 0-0.080-0.032-0.155-0.035-0.235-0.005-0.102 0-0.205 0-0.305v-1.057c0-0.21 0-0.42 0-0.63 0-0.22-0.020-0.47 0.065-0.677 0.125-0.312 0.352-0.577 0.5-0.88 0.075-0.155 0.13-0.315 0.22-0.462 0.025-0.040 0.087-0.112 0.080-0.157-0.040 0.050-0.115 0.087-0.165 0.13-0.237 0.202-0.505 0.415-0.695 0.665-0.092 0.12-0.137 0.255-0.242 0.362-0.075 0.080-0.147 0.137-0.267 0.642z"></path>
</svg>
