<!-- Generated by IcoMoon.io -->
<svg version="1.1" xmlns="http://www.w3.org/2000/svg" width="33" height="32" viewBox="0 0 33 32">
<title>silver_twilight_lodge</title>
<path d="M28.57 5.159c-0.134 0.185-0.244 0.402-0.406 0.566-0.17 0.17-0.399 0.273-0.588 0.419-0.159 0.124-0.314 0.238-0.48 0.35-0.368 0.245-0.644 0.494-0.932 0.825-0.176 0.202-0.363 0.384-0.579 0.542-0.21 0.152-0.358 0.322-0.526 0.517-0.319 0.371-0.741 0.646-1.083 0.997-0.12 0.123-0.235 0.227-0.374 0.326-0.246 0.176-0.43 0.39-0.627 0.617-0.168 0.194-0.422 0.496-0.705 0.491 0.159-0.005 0.308-0.005 0.462 0.032 0.357 0.091 0.688 0.22 1.050 0.289 0.231 0.045 0.43 0.192 0.662 0.243 0.28 0.062 0.633 0.010 0.917 0.010h0.186c-0.061 0.126-0.128 0.247-0.212 0.364-0.139 0.194-0.273 0.384-0.402 0.586-0.308 0.487-0.695 0.915-1.013 1.394-0.338 0.51-0.66 1.030-0.991 1.544-0.348 0.54-0.718 1.063-1.114 1.567-0.182 0.23-0.43 0.415-0.65 0.607-0.279 0.244-0.563 0.472-0.825 0.735-0.51 0.513-0.951 1.081-1.512 1.544-0.331 0.273-0.599 0.605-0.868 0.939-0.067 0.082-0.155 0.248-0.253 0.292-0.027-0.077 0.010-0.147 0.029-0.222 0.042-0.162 0.056-0.306 0.059-0.472 0.004-0.231 0.048-0.459 0.052-0.692 0.009-0.368 0.012-0.745-0.013-1.114-0.020-0.293-0.030-0.582-0.035-0.875-0.005-0.419-0.068-0.844-0.108-1.26-0.098-1.005-0.224-2.001-0.231-3.013-0.003-0.433-0.016-0.855-0.036-1.287-0.036-0.805-0.007-1.612-0.012-2.417-0.001-0.374 0.001-0.747 0.035-1.118 0.033 0.025 0.068 0.049 0.107 0.069 0.306 0.162 0.591 0.347 0.88 0.539 0.373 0.247 0.637 0.646 1.037 0.86 0.169 0.091 0.147-0.013 0.147-0.152 0-0.165-0.039-0.303-0.101-0.458-0.095-0.234-0.201-0.449-0.279-0.69-0.059-0.178-0.152-0.342-0.228-0.511-0.25-0.543-0.521-1.073-0.786-1.609-0.285-0.579-0.683-1.072-0.907-1.684-0.263-0.715-0.617-1.392-0.901-2.099-0.103-0.257-0.211-0.503-0.325-0.748-0.017 0.090-0.038 0.18-0.067 0.272-0.1 0.305-0.185 0.614-0.322 0.906-0.094 0.199-0.214 0.386-0.306 0.586-0.11 0.238-0.212 0.481-0.328 0.715-0.195 0.396-0.37 0.793-0.54 1.199-0.078 0.185-0.171 0.363-0.243 0.55-0.090 0.228-0.137 0.467-0.205 0.702-0.071 0.247-0.188 0.48-0.273 0.722-0.081 0.233-0.159 0.465-0.238 0.698-0.084 0.24-0.179 0.475-0.233 0.725-0.064 0.302-0.078 0.613-0.137 0.916-0.046 0.244-0.133 0.503-0.221 0.735-0.014 0.037-0.027 0.088-0.051 0.126 0.077-0.052 0.207-0.101 0.256-0.129 0.157-0.088 0.325-0.14 0.478-0.235 0.299-0.183 0.543-0.451 0.868-0.592 0.115-0.052 0.181-0.1 0.273-0.191 0.113-0.113 0.244-0.163 0.368-0.257 0.231-0.173 0.399-0.416 0.594-0.628-0.035 0.234-0.046 0.474-0.075 0.706-0.059 0.47-0.1 0.912-0.097 1.385 0.001 0.37 0.005 0.74 0.003 1.109-0.004 0.445-0.069 0.885-0.088 1.329-0.017 0.396-0.003 0.787-0.055 1.18-0.051 0.391-0.131 0.771-0.162 1.166-0.036 0.465-0.030 0.93-0.058 1.396-0.068 1.164-0.105 2.317-0.312 3.47-0.069 0.39-0.186 0.783-0.196 1.18-0.003 0.13 0.027 0.286-0.004 0.41-0.040-0.095-0.179-0.11-0.262-0.172-0.16-0.119-0.259-0.295-0.419-0.409-0.118-0.085-0.134-0.093-0.217-0.257-0.065-0.129-0.123-0.26-0.188-0.389-0.136-0.263-0.318-0.487-0.477-0.735-0.136-0.215-0.253-0.442-0.39-0.657-0.285-0.448-0.561-0.903-0.864-1.338-0.28-0.403-0.436-0.861-0.646-1.303-0.144-0.306-0.305-0.605-0.458-0.909-0.182-0.363-0.329-0.753-0.54-1.098-0.324-0.53-0.715-1.018-1.046-1.546-0.218-0.348-0.5-0.66-0.704-1.016-0.299-0.521-0.519-1.075-0.732-1.631 0.279-0.006 0.559-0.029 0.841-0.029 0.224-0.001 0.448-0.001 0.672 0 0.082 0 0.182 0.016 0.262-0.006 0.013-0.078-0.189-0.235-0.24-0.279-0.078-0.067-0.165-0.117-0.237-0.188-0.1-0.098-0.178-0.218-0.273-0.322-0.49-0.532-1.036-1.027-1.58-1.502-0.355-0.309-0.732-0.558-1.118-0.828-0.462-0.321-0.89-0.691-1.351-1.014-0.311-0.22-0.644-0.423-0.91-0.696-0.085-0.087-0.189-0.163-0.28-0.244-0.095-0.345-0.143-0.344-0.188-0.328-0.022 0.072 0.009 0.146 0.020 0.218 0.030 0.188 0.025 0.373 0.025 0.562-0.001 0.342 0.003 0.676 0.036 1.017 0.043 0.458 0.026 0.925 0.104 1.38 0.075 0.451 0.173 0.893 0.243 1.345 0.035 0.227 0.065 0.452 0.097 0.679 0.035 0.244 0.020 0.497 0.064 0.74 0.053 0.299 0.162 0.599 0.224 0.9 0.059 0.295 0.152 0.572 0.246 0.858 0.221 0.669 0.48 1.328 0.679 2.001 0.091 0.309 0.143 0.628 0.233 0.933 0.119-0.002 0.159-0.332 0.181-0.409 0.087-0.301 0.16-0.584 0.207-0.893 0.025-0.162 0.088-0.312 0.123-0.472 0.048-0.22 0.042-0.438 0.065-0.659 0.035-0.312 0.098-0.623 0.136-0.935 0.025-0.204 0.058-0.399 0.095-0.594 0.091 0.14 0.185 0.277 0.282 0.419 0.352 0.519 0.751 1.005 1.098 1.527 0.115 0.173 0.165 0.39 0.251 0.579 0.074 0.16 0.182 0.289 0.272 0.441 0.108 0.182 0.194 0.383 0.28 0.575 0.264 0.594 0.597 1.096 0.997 1.611 0.257 0.329 0.474 0.678 0.68 1.040 0.263 0.459 0.573 0.883 0.831 1.343 0.23 0.412 0.446 0.826 0.633 1.258 0.342 0.795 0.79 1.528 1.232 2.271 0.282 0.47 0.504 0.984 0.734 1.479 0.212 0.458 0.422 0.924 0.615 1.391 0.098 0.237 0.233 0.406 0.38 0.611 0.065 0.091 0.103 0.129 0.107 0.247 0.004 0.095 0.013 0.231-0.008 0.325-0.012 0.049-0.136 0.243-0.133 0.24-0.072 0.133-0.146 0.267-0.235 0.39-0.1 0.136-0.238 0.228-0.335 0.367-0.078 0.113-0.143 0.238-0.217 0.354-0.507 0.806-1.198 1.486-1.829 2.193-0.3 0.337-0.627 0.644-0.936 0.971-0.123 0.13-0.328 0.279-0.439 0.441 0.058-0.058 0.15-0.106 0.201-0.142 0.080-0.058 0.146-0.119 0.233-0.155 0.293-0.121 0.62-0.183 0.932-0.238 0.454-0.081 0.942-0.155 1.381-0.301 0.183-0.062 0.37-0.188 0.543-0.274 0.24-0.12 0.49-0.166 0.754-0.207 0.39-0.058 0.76-0.14 1.157-0.136 0.266 0.002 0.529 0.036 0.793 0.067 0.399 0.045 0.8-0.010 1.198 0.033 0.507 0.053 0.979 0.337 1.442 0.532 0.329 0.14 0.662 0.262 1.011 0.338 0.264 0.059 0.468 0.159 0.714 0.264 0.064 0.027 0.157 0.080 0.227 0.061-0.059-0.127-0.274-0.224-0.367-0.328-0.194-0.215-0.321-0.501-0.475-0.743-0.207-0.324-0.409-0.653-0.627-0.969-0.183-0.267-0.407-0.491-0.62-0.732-0.25-0.282-0.41-0.618-0.611-0.933-0.171-0.266-0.4-0.491-0.601-0.735-0.175-0.211-0.228-0.393-0.332-0.646-0.045-0.108-0.095-0.248-0.189-0.331-0.032-0.026-0.117-0.056-0.133-0.1-0.022-0.058 0.019-0.053 0.029-0.095 0.033-0.155 0.114-0.267 0.198-0.415 0.198-0.351 0.416-0.692 0.633-1.031 0.114-0.181 0.257-0.338 0.381-0.511 0.149-0.211 0.28-0.435 0.423-0.652 0.365-0.558 0.764-1.096 1.156-1.637 0.276-0.38 0.54-0.767 0.797-1.16 0.293-0.446 0.644-0.848 0.985-1.258 0.461-0.555 0.858-1.151 1.284-1.733 0.293-0.399 0.643-0.748 0.935-1.147 0.244-0.335 0.455-0.69 0.692-1.028 0.488-0.693 1.046-1.339 1.54-2.028 0.279-0.389 0.586-0.757 0.903-1.117 0.042 0.025 0.084 0.049 0.119 0.084 0.077 0.088 0.153 0.176 0.231 0.262 0.126 0.126 0.263 0.237 0.39 0.363 0.163 0.16 0.302 0.319 0.429 0.513 0.147 0.224 0.321 0.4 0.485 0.608 0.045 0.055 0.078 0.152 0.173 0.113 0.077-0.029 0.046-0.117 0.045-0.192-0.003-0.274-0.013-0.553-0.003-0.828 0.007-0.142 0.046-0.273 0.053-0.413 0.030-0.552 0-1.117-0.004-1.67 0-0.269 0.017-0.511 0.064-0.774 0.056-0.326 0.033-0.662 0.079-0.991 0.038-0.267 0.088-0.526 0.098-0.796 0.016-0.403 0.092-0.79 0.133-1.189 0.094-0.904 0.156-1.809 0.155-2.717 0-0.221-0.020-0.459-0.005-0.691-0.12 0.126-0.22 0.272-0.339 0.399-0.182 0.188-0.374 0.355-0.529 0.568z"></path>
</svg>
