<!-- Generated by IcoMoon.io -->
<svg version="1.1" xmlns="http://www.w3.org/2000/svg" width="24" height="32" viewBox="0 0 24 32">
<title>single_group</title>
<path d="M10.159 1.85c-0.106 0.161-0.203 0.327-0.29 0.504-0.048 0.096-0.063 0.205-0.125 0.293-0.046 0.067-0.080 0.088-0.107 0.176-0.057 0.188-0.102 0.386-0.154 0.577-0.042 0.151-0.084 0.256-0.066 0.415 0.018 0.154-0.030 0.316-0.048 0.476-0.074 0.662-0.005 1.536 0.35 2.132 0.132 0.222 0.314 0.402 0.508 0.562 0.181 0.149 0.381 0.27 0.491 0.492 0.097 0.197 0.174 0.363 0.363 0.486 0.225 0.148 0.49 0.127 0.737 0.095 0.375-0.049 0.745-0.165 1.114-0.247 0.449-0.101 0.812-0.255 1.152-0.583 0.155-0.149 0.32-0.297 0.464-0.46 0.14-0.159 0.229-0.359 0.359-0.528 0.254-0.33 0.296-0.845 0.312-1.255 0.008-0.187 0.081-0.352 0.135-0.527 0.085-0.273 0.145-0.58 0.099-0.873-0.035-0.217-0.063-0.39-0.018-0.606 0.096-0.449-0.052-0.887-0.392-1.194-0.205-0.185-0.4-0.381-0.6-0.574-0.197-0.19-0.431-0.312-0.683-0.39-0.273-0.084-0.533-0.205-0.805-0.294-0.171-0.055-0.36-0.004-0.533-0.004-0.176 0-0.326-0.021-0.501 0.016-0.184 0.040-0.332 0.18-0.514 0.219-0.045 0.010-0.091 0-0.137 0.012-0.148 0.032-0.299 0.141-0.42 0.229-0.169 0.123-0.296 0.306-0.424 0.474-0.094 0.123-0.183 0.248-0.268 0.377z"></path>
<path d="M10.289 12.182c-0.276 0.139-0.142 0.768-0.118 0.998 0.015 0.134 0.037 0.233 0.072 0.356 0.062 0.216 0.074 0.456 0.107 0.679 0.073 0.484 0.149 0.968 0.232 1.45 0.050 0.322 0.057 0.647 0.019 0.971-0.039 0.316-0.074 0.634-0.104 0.951-0.018 0.382-0.020 0.766-0.009 1.149 0.017 0.325 0.009 0.651-0.025 0.976-0.042 0.237-0.092 0.472-0.151 0.705-0.084 0.564 0.045 1.144 0.161 1.692 0.098 0.468 0.211 0.927 0.318 1.393 0.115 0.494 0.109 0.998 0.25 1.485 0.121 0.418 0.222 0.836 0.293 1.265 0.025 0.158 0.047 0.317 0.064 0.477 0.065 0.229 0.134 0.457 0.208 0.683 0.232 0.862 0.12 1.658 0.009 2.527-0.027 0.216-0.070 0.385 0.002 0.593 0.045 0.13 0.097 0.256 0.139 0.388 0.027 0.088 0.087 0.25 0.105 0.327 0.030 0.128 0.016 0.272 0.014 0.405-0.001 0.112 0.021 0.277 0.124 0.348-0.033-0.167 0.055-0.352 0.060-0.522 0.008-0.266 0.020-0.484 0.070-0.745 0.078-0.416 0.274-0.732 0.412-1.124 0.129-0.365 0.18-0.744 0.24-1.121 0.081-0.499 0.042-1.012 0.12-1.519 0.059-0.379 0.091-0.742 0.175-1.116 0.055-0.248 0.113-0.49 0.199-0.731 0.108-0.299 0.265-0.552 0.315-0.868 0.038-0.246 0.034-0.496 0.044-0.744 0.009-0.244 0.047-0.484 0.056-0.728 0.013-0.326-0.003-0.656-0.003-0.982 0-0.404-0.013-0.809 0.014-1.211 0.027-0.427 0.026-0.865 0.166-1.272 0.113-0.329 0.237-0.68 0.247-1.030 0.010-0.33-0.003-0.663-0.004-0.992-0.001-0.36 0.073-0.722 0.058-1.080-0.013-0.338-0.040-0.676-0.031-1.018 0.017-0.757 0.074-1.511 0.137-2.265 0.014-0.164 0.060-0.444-0.018-0.591-0.117-0.223-0.312-0.248-0.536-0.163-0.239 0.091-0.39 0.168-0.643 0.166-0.227 0-0.454 0-0.681 0-0.23 0-0.482 0.031-0.708-0.012-0.153-0.029-0.285-0.043-0.443-0.042-0.244 0-0.487 0-0.731 0-0.108 0-0.227-0.014-0.334 0-0.070 0.008-0.264 0.077 0.111-0.106z"></path>
<path d="M4.348 11.634c0.013-0.004 0.027-0.007 0.042-0.009 0.226-0.038 0.457-0.055 0.685-0.094 0.182-0.031 0.367-0.097 0.534-0.176 0.267-0.126 0.559-0.181 0.839-0.278 0.357-0.122 0.774-0.163 1.079-0.387 0.249-0.183 0.602-0.251 0.896-0.336 0.432-0.122 0.868-0.212 1.292-0.361 0.385-0.136 0.761-0.252 1.162-0.337 0.257-0.053 0.482-0.147 0.726-0.242 0.19-0.074 0.364-0.072 0.565-0.098 0.305-0.039 0.607-0.146 0.901-0.234 0.355-0.106 0.682-0.088 1.041-0.127 0.394-0.044 0.752-0.169 1.154-0.175 0.15 0 0.313 0.018 0.465-0.007 0.179-0.029 0.346-0.126 0.531-0.116 0.138 0.008 0.256 0.090 0.395 0.103 0.116 0.011 0.226-0.025 0.337-0.053 0.6-0.154 1.307-0.291 1.809-0.645 0.177-0.122 0.389-0.138 0.593-0.18 0.199-0.040 0.373-0.104 0.56-0.176 0.090-0.034 0.327-0.118 0.442-0.075 0.095 0.037 0.085 0.101 0.121 0.181 0.076 0.169 0.249 0.322 0.285 0.501 0.046 0.229-0.005 0.499 0.017 0.734 0.022 0.248 0.073 0.492 0.097 0.74 0.049 0.502 0.040 1.057-0.065 1.548-0.029 0.133-0.048 0.26-0.046 0.397 0 0.048 0.027 0.141-0.008 0.18-0.041 0.046-0.356 0.009-0.41 0.009-0.291 0-0.565 0.068-0.851 0.101-0.205 0.023-0.407 0.014-0.61 0.057-0.563 0.12-1.1 0.312-1.674 0.394-0.461 0.066-0.921 0.137-1.381 0.208-0.52 0.080-1.044 0.081-1.564 0.152-0.902 0.124-1.773 0.477-2.656 0.69-0.138 0.033-0.273 0.075-0.407 0.118-0.414 0.135-0.833 0.321-1.273 0.343-0.268 0.014-0.527-0.078-0.795-0.060-0.392 0.026-0.701 0.281-1.074 0.376-0.342 0.087-0.694 0.116-1.041 0.178-0.263 0.047-0.515 0.115-0.783 0.121-0.357 0.010-0.698 0.121-1.049 0.103-0.178-0.009-0.348 0.042-0.505 0.12-0.108 0.055-0.245 0.151-0.367 0.172-0.129 0.023-0.219-0.046-0.332-0.101-0.204-0.103-0.438-0.22-0.559-0.421-0.075-0.124-0.024-0.185 0.016-0.326 0.046-0.159 0.036-0.397 0.117-0.54 0.032-0.055 0.067-0.050 0.098-0.104 0.044-0.074 0.050-0.206 0.073-0.289 0.099-0.374 0.208-0.744 0.322-1.112 0.062-0.198 0.052-0.411 0.253-0.469z"></path>
</svg>
