<!-- Generated by IcoMoon.io -->
<svg version="1.1" xmlns="http://www.w3.org/2000/svg" width="32" height="32" viewBox="0 0 32 32">
<title>skill_wild_inverted1</title>
<path d="M16.203 6.102c-1.714 0.010-2.857 0.188-3.86 0.588-1.645 0.656-2.661 1.457-3.281 2.586-0.583 1.060-0.769 2.527-0.463 3.643 0.282 1.028 1.083 1.95 2.155 2.482 0.725 0.359 1.627 0.497 2.65 0.405 1.002-0.090 1.35-0.206 1.759-0.583 0.399-0.368 0.492-0.654 0.62-1.908 0.078-0.767 0.119-0.984 0.239-1.266 0.019-0.044 0.013-0.076-0.013-0.076-0.025 0-0.406 0.145-0.847 0.323-0.95 0.383-1.185 0.436-1.785 0.406-0.654-0.032-0.872-0.129-1.341-0.597-0.878-0.875-1.051-1.871-0.513-2.962 0.151-0.306 0.258-0.446 0.621-0.81 0.773-0.775 1.458-1.062 2.855-1.196 2.007-0.192 3.624 0.342 4.582 1.513 0.764 0.934 1.174 2.516 1.109 4.276-0.053 1.443-0.364 1.86-2.926 3.916-1.232 0.988-1.943 1.651-2.32 2.162-0.316 0.428-0.424 0.642-0.557 1.105-0.098 0.342-0.113 0.465-0.097 0.803 0.022 0.463 0.111 0.704 0.365 0.985 0.159 0.176 0.398 0.327 0.628 0.397l0 0c0.234 0.071 1.106 0.044 1.462-0.046 0.391-0.099 0.883-0.327 1.103-0.513l0.149-0.126-0.479 0.020c-0.559 0.023-0.842-0.040-1.175-0.263-0.837-0.559-0.339-1.794 1.116-2.762 0.66-0.44 1.176-0.745 2.525-1.493 0.659-0.365 1.403-0.782 1.654-0.927 1.603-0.919 2.466-1.844 2.721-2.912 0.1-0.419 0.128-1.086 0.068-1.604-0.186-1.603-0.646-2.702-1.479-3.528-0.673-0.668-1.674-1.198-2.949-1.564-1.144-0.328-1.97-0.438-3.526-0.468-0.269-0.005-0.526-0.007-0.771-0.006zM16.468 24.674c-0.357-0.017-0.761 0.176-1.102 0.545-0.315 0.34-0.379 0.49-0.498 1.165-0.147 0.829-0.079 1.46 0.221 2.078 0.164 0.337 0.513 0.724 0.776 0.862h0c0.436 0.227 0.936 0.097 1.395-0.361 0.389-0.389 0.53-0.72 0.611-1.432 0.072-0.64-0.049-1.516-0.269-1.948-0.12-0.236-0.58-0.709-0.796-0.82-0.105-0.054-0.219-0.083-0.338-0.088z"></path>
</svg>
