<!-- Generated by IcoMoon.io -->
<svg version="1.1" xmlns="http://www.w3.org/2000/svg" width="32" height="32" viewBox="0 0 32 32">
<title>skill_agility1</title>
<path d="M14.323 27.986l-1.956-1.863h-0.206c-0.697 0.072-1.505 0.113-2.324 0.113-1.113 0-2.208-0.076-3.28-0.223l0.124 0.014c-0.512-0.063-0.974-0.173-1.417-0.327l0.048 0.014c-0.16-0.1-0.263-0.555-0.267-1.148 0-0.494 0.007-0.533 0.142-0.828 0.277-0.58 0.796-0.964 1.98-1.465 0.345-0.149 0.672-0.284 0.718-0.299 0.107-0.039 0.242 0.096-2.524-2.535-1.137-1.080-1.956-1.863-2.773-2.647l0.259 0.247-0.484-0.466 13.945-13.241-0.078-0.139c-0.284-0.385-0.609-0.718-0.974-1.001l-0.011-0.009c-0.27-0.2-0.495-0.443-0.669-0.721l-0.006-0.011c-0.064-0.114 0.793-0.043 1.22 0.103 1.084 0.363 2.204 1.323 2.709 2.325l0.124 0.249 0.082-0.11 0.082-0.107 0.217 0.242c0.569 0.626 0.825 1.173 0.924 1.963l0.057 0.409 0.658 0.633c0.363 0.352 0.754 0.725 0.875 0.836l0.22 0.199 0.132-0.156c0.562-0.658 0.949-1.344 1.106-1.963 0.056-0.318 0.087-0.684 0.087-1.058 0-0.417-0.040-0.824-0.115-1.219l0.006 0.040c-0.178-0.713-0.361-1.295-0.572-1.862l0.039 0.12c-0.036-0.1 0.057-0.075 0.523 0.124 1.326 0.565 2.261 1.522 2.535 2.596 0.103 0.398 0.11 0.676 0.036 1.081l-0.053 0.284 0.295 0.284c0.32 0.312 0.555 0.708 0.672 1.152l0.004 0.017c0.096 0.302 0.107 0.42 0.107 1.127-0.004 0.658-0.021 0.846-0.1 1.127-0.16 0.569-0.284 0.857-0.537 1.23-0.077 0.106-0.158 0.229-0.234 0.355l-0.012 0.021c0 0.011 0.089 0.021 0.199 0.021 0.174 0 0.228-0.028 0.43-0.213 0.072-0.073 0.154-0.135 0.243-0.186l0.006-0.003c0.025 0.028-0.1 0.9-0.167 1.202l-0.064 0.274 1.664 1.596 2.052 1.956 0.388 0.363-1.483 1.401c6.367-5.944 2.362-2.155-1.645 1.632l-11.002 10.311zM11.276 25.689c1.653-0.142 2.603-0.398 3.57-0.967 1.166-0.686 2.386-1.892 3.876-3.829l0.444-0.576 0.448 0.597c0.249 0.331 0.469 0.608 0.491 0.615 0.057 0.021 3.388-2.471 3.388-2.535 0-0.092-0.391-1.479-0.498-1.764l-0.1-0.263-0.167 0.316c-0.262 0.548-0.717 0.968-1.275 1.179l-0.016 0.005c-0.184 0.070-0.396 0.111-0.619 0.111-0.045 0-0.090-0.002-0.134-0.005l0.006 0c-0.020 0-0.045 0.001-0.069 0.001-0.355 0-0.696-0.063-1.011-0.178l0.020 0.007c-0.654-0.188-0.928-0.313-1.273-0.569-0.615-0.513-1.030-1.248-1.122-2.080l-0.001-0.014-0.032-0.292-0.252-0.028c-0.668-0.075-1.227-0.306-2.016-0.828-0.139-0.1-0.298-0.199-0.464-0.288l-0.023-0.011c-0.021 0-0.064-0.036-0.092-0.071-0.19-0.192-0.402-0.361-0.633-0.504l-0.015-0.008c-0.103-0.046-0.222-0.072-0.348-0.072-0.098 0-0.192 0.016-0.28 0.046l0.006-0.002c-0.282 0.165-0.508 0.399-0.657 0.681l-0.005 0.009c-0.124 0.249-0.135 0.309-0.199 1.287-0.118 1.885-0.206 3.068-0.304 4.249l0.055-0.828c-0.021 0.324-0.071 0.69-0.107 0.818-0.114 0.363-0.409 0.772-0.924 1.276l-0.48 0.466 0.135 0.096c0.476 0.338 0.597 0.615 0.338 0.772-0.135 0.078-0.146 0.078-0.487-0.036-0.768-0.249-1.372-0.309-1.884-0.188-0.823 0.272-1.522 0.573-2.188 0.926l0.076-0.037c-0.647 0.384-0.889 0.725-0.921 1.28-0.001 0.030-0.002 0.065-0.002 0.1 0 0.172 0.016 0.341 0.047 0.504l-0.003-0.017 0.057 0.267 0.224 0.060c0.384 0.096 1.28 0.235 1.874 0.284l0.725 0.060c0.388 0.036 2.329 0.025 2.82-0.018zM20.77 17.515c0.221-0.020 0.425-0.066 0.618-0.137l-0.017 0.005c0.23-0.143 0.416-0.335 0.55-0.561l0.004-0.008c0.235-0.462 0.192-1.081-0.092-1.34-0.196-0.178-1.323-0.213-1.7-0.053-0.096 0.039-0.181 0.064-0.192 0.053-0.046-0.046 0.089-0.469 0.178-0.569 0.37-0.391 1.408-0.633 2.183-0.505 0.178 0.028 0.448 0.114 0.604 0.188 0.32 0.153 0.583 0.167 1.028 0.064 0.946-0.224 1.636-0.978 1.973-2.162 0.156-0.558 0.156-0.569-0.082-0.569-0.312-0.049-0.589-0.171-0.822-0.348l0.004 0.003c-0.092-0.071-0.092-0.071 0.021-0.142 0.286-0.219 0.522-0.486 0.701-0.791l0.007-0.013c0.258-0.494 0.409-1.079 0.409-1.699 0-0.008-0-0.015-0-0.023v0.001c0.008-0.089 0.012-0.192 0.012-0.297 0-0.24-0.024-0.474-0.070-0.7l0.004 0.023c-0.085-0.38-0.327-0.917-0.469-1.045-0.096-0.085-0.1-0.085-0.192 0.036-0.107 0.135-0.313 0.252-0.434 0.252-0.092-0.008-0.177-0.024-0.258-0.049l0.009 0.002-0.164-0.046 0.22-0.437c0.124-0.242 0.252-0.562 0.292-0.711 0.26-1.042-0.295-2.116-1.508-2.916-0.141-0.103-0.302-0.201-0.471-0.286l-0.020-0.009c0.021 0.157 0.055 0.297 0.101 0.432l-0.005-0.016c0.228 0.818 0.274 1.127 0.27 1.913 0 0.658-0.014 0.8-0.121 1.184-0.142 0.523-0.452 1.148-0.807 1.618-0.563 0.653-1.147 1.245-1.769 1.797l-0.019 0.017c-0.374 0.345-0.698 0.736-0.967 1.164l-0.014 0.024c-0.262 0.369-0.53 0.797-0.775 1.241l-0.036 0.071c-0.548 1.102-0.871 2.802-0.686 3.595 0.089 0.377 0.267 0.647 0.729 1.106 0.441 0.441 0.676 0.594 1.013 0.651 0.295 0.050 0.284 0.050 0.757-0.004zM15.813 12.381c0.988-0.9 1.127-1.042 1.266-1.312 0.213-0.402 0.633-0.825 0.924-0.924 0.225-0.061 0.485-0.1 0.753-0.107l0.004-0 0.533-0.025 0.249-0.345c0.231-0.32 0.249-0.356 0.245-0.59-0.003-0.153-0.015-0.3-0.038-0.445l0.002 0.018-0.032-0.178-0.302 0.011c-0.27 0.011-0.299 0.004-0.284-0.071 0.014-0.043 0.085-0.356 0.164-0.69 0.171-0.729 0.199-1.458 0.071-1.931-0.102-0.352-0.248-0.659-0.434-0.936l0.008 0.012c-0.071-0.082-0.078-0.078-0.167 0.036-0.089 0.107-0.1 0.11-0.292 0.053l-0.199-0.057-0.082-0.324c-0.185-0.754-0.74-1.465-1.596-2.044-0.519-0.352-0.548-0.352-0.249 0.007 0.523 0.619 0.786 1.244 0.853 2.012l0.036 0.441-0.292 0.7c-0.548 1.316-1.209 2.617-1.778 3.506-0.193 0.259-0.327 0.572-0.376 0.914l-0.001 0.011c-0.057 0.284-0.139 0.768-0.178 1.077-0.078 0.636-0.174 2.247-0.132 2.311 0.014 0.021 0.068 0.004 0.117-0.036z"></path>
</svg>
