<!-- Generated by IcoMoon.io -->
<svg version="1.1" xmlns="http://www.w3.org/2000/svg" width="32" height="32" viewBox="0 0 32 32">
<title>skill_intellect</title>
<path d="M9.297 23.5l-6.779-6.665 0.425-0.414c0.234-0.227 1.106-1.083 1.939-1.902l1.514-1.488 0.057-1.070c0.031-0.588 0.075-1.203 0.098-1.366 0.134-0.959 0.973-1.556 2.354-1.676 0.292-0.025 0.84-0.084 1.219-0.131l0.688-0.085 5.338-5.252 0.609 0.576c0.335 0.317 1.275 1.206 2.089 1.975l1.48 1.399 0.459-0.028c0.4-0.024 0.484-0.017 0.651 0.058 0.248 0.11 0.478 0.351 0.65 0.681 0.076 0.145 0.364 0.66 0.642 1.144l0.504 0.881 7.050 6.65-0.185 0.179c-0.102 0.099-1.030 0.974-2.062 1.947l-1.877 1.768 0.082 0.137c0.648 1.077 0.843 1.491 0.843 1.791 0 0.462-0.311 0.724-1.055 0.886-0.211 0.046-0.429 0.102-0.484 0.125s-0.529 0.103-1.054 0.178c-0.525 0.075-0.957 0.14-0.961 0.144s0.059 0.592 0.14 1.308 0.147 1.347 0.148 1.402c0.001 0.096-0.034 0.083-0.617-0.221-0.675-0.352-1.267-0.708-1.635-0.984-0.13-0.098-0.25-0.172-0.267-0.166s-1.193 1.109-2.614 2.451-2.589 2.438-2.596 2.436c-0.006-0.002-3.062-3.002-6.791-6.668zM17.512 27.128c0.703-0.59 1.708-1.716 2.182-2.444 0.109-0.167 0.287-0.485 0.396-0.706l0.198-0.402 0.244 0.341c0.461 0.644 1.2 1.248 2.276 1.861 0.302 0.172 0.554 0.309 0.559 0.304s-0.064-0.656-0.154-1.446l-0.164-1.437-0.31-0.418c-0.254-0.342-0.31-0.447-0.31-0.58-0-0.089-0.025-0.204-0.054-0.254s-0.086-0.149-0.126-0.219-0.152-0.555-0.25-1.079c-0.098-0.524-0.189-1.006-0.202-1.072-0.017-0.083-0.051-0.119-0.112-0.119-0.093 0-6.055 0.944-6.129 0.971-0.040 0.014 0.005 1.322 0.047 1.367 0.009 0.009 0.215-0.005 0.458-0.033s0.445-0.045 0.45-0.039c0.005 0.006-0.017 0.363-0.048 0.792-0.052 0.705-0.051 0.785 0.011 0.824 0.275 0.174 0.35 0.236 0.437 0.365 0.122 0.18 0.121 0.151 0.012 2.172-0.047 0.871-0.086 1.629-0.086 1.686l-0.001 0.103 0.163-0.121c0.089-0.067 0.321-0.254 0.514-0.416zM15.101 24.52l1.496-0.226v-0.434l-0.293-0.147c-0.204-0.102-0.293-0.172-0.293-0.228 0-0.044-0.019-0.081-0.042-0.081s-0.509 0.068-1.080 0.152c-0.571 0.084-1.123 0.151-1.227 0.151-0.409-0.002-0.699-0.243-0.867-0.721-0.086-0.244-0.087-0.29-0.041-1.143 0.026-0.489 0.048-1.065 0.048-1.279 0-0.487 0.052-0.677 0.241-0.887 0.284-0.314 0.322-0.323 2.838-0.695 2.61-0.386 7.301-1.084 7.624-1.135 0.174-0.027 0.326-0.039 0.339-0.026s-0.026 0.186-0.085 0.386c-0.168 0.558-0.215 0.88-0.214 1.447 0.001 0.826 0.213 1.526 0.664 2.189 0.101 0.148 0.167 0.285 0.146 0.304s-0.34 0.077-0.709 0.13-0.68 0.103-0.689 0.112c-0.009 0.009 0.093 0.163 0.228 0.342s0.245 0.364 0.245 0.411c0 0.047 0.015 0.094 0.032 0.104 0.051 0.029 1.799-0.256 2.32-0.378 0.591-0.138 0.656-0.172 0.626-0.323-0.034-0.17-1.146-2.1-1.603-2.782-0.216-0.322-0.428-0.688-0.472-0.812-0.184-0.523-0.049-1.018 0.332-1.216 0.227-0.118 0.418-0.137 0.972-0.098 0.447 0.032 0.561 0.027 0.664-0.026 0.169-0.087 0.226-0.225 0.173-0.416-0.023-0.084-1.125-2.034-2.449-4.333s-2.451-4.269-2.504-4.376c-0.104-0.21-0.238-0.374-0.355-0.438-0.047-0.025-0.358-0-0.867 0.070-5.738 0.79-10.501 1.409-11.332 1.474-0.875 0.069-1.471 0.362-1.678 0.826-0.108 0.243-0.319 3.865-0.253 4.33 0.043 0.303 0.166 0.642 0.252 0.695 0.026 0.016 1.132 1.93 2.457 4.254 2.368 4.151 2.415 4.229 2.708 4.5 0.37 0.343 0.741 0.551 0.978 0.55 0.095-0 0.847-0.102 1.67-0.227z"></path>
</svg>
