<!-- Generated by IcoMoon.io -->
<svg version="1.1" xmlns="http://www.w3.org/2000/svg" width="32" height="32" viewBox="0 0 32 32">
<title>skill_combat_inverted1</title>
<path d="M14.996 3.706c-0.118 0.003-0.227 0.034-0.352 0.087-0.406 0.174-0.913 0.573-1.044 0.823-0.044 0.083-0.064 0.27-0.063 0.587 0.003 1.033 0.267 1.776 0.888 2.508 0.212 0.25 0.276 0.272 0.554 0.192h0c0.296-0.085 0.595-0.335 1.018-0.851 0.364-0.444 0.459-0.598 0.717-1.165 0.164-0.359 0.298-0.691 0.298-0.736s-0.041-0.216-0.091-0.378c-0.094-0.305-0.284-0.53-0.505-0.598-0.058-0.018-0.341-0.131-0.63-0.252-0.371-0.155-0.595-0.223-0.792-0.218zM11.883 4.927c-0.507 0.005-0.942 0.13-1.273 0.368-0.25 0.18-0.516 0.515-0.617 0.781l-0.072 0.19 1.677 2.546c0.922 1.4 1.708 2.58 1.745 2.622 0.278 0.315 0.913 0.343 1.616 0.071l0.406-0.157-0.655-0.317c-0.718-0.347-1.049-0.6-1.25-0.955-0.065-0.115-0.19-0.272-0.277-0.348-0.217-0.191-0.21-0.332 0.041-0.732 0.188-0.3 0.22-0.329 0.546-0.479l0.346-0.16-0.216-0.509c-0.368-0.868-0.908-2.071-1.113-2.48l-0.196-0.391-0.345-0.032c-0.124-0.012-0.245-0.017-0.363-0.016zM12.795 5.036c-0.047-0.002 0 0.034 0.143 0.109 0.197 0.104 0.222 0.109 0.26 0.048 0 0 0-0 0-0 0.015-0.025 0.022-0.045 0.014-0.046s-0.11-0.030-0.228-0.066c-0.097-0.029-0.16-0.045-0.188-0.046zM19.277 5.513c-0.165 0.002-0.391 0.027-0.503 0.056-0.199 0.052-0.204 0.058-0.245 0.286l-0.041 0.233-1.182 0.573-1.654 2.032-1.326 0.46-0.014 0.189c-0.018 0.248 0.099 0.642 0.24 0.81 0.258 0.307 0.905 0.394 1.782 0.24 0.38-0.066 0.533-0.113 0.574-0.173 0.32-0.47 0.512-0.601 0.873-0.601 0.381 0 0.641-0.151 1.073-0.622 0.198-0.216 0.443-0.44 0.544-0.496l0.183-0.103 0.111 0.148c0.16 0.214 0.25 0.408 0.282 0.606 0.027 0.171 0.024 0.176-0.179 0.275-0.139 0.068-0.277 0.192-0.422 0.383-0.118 0.155-0.271 0.34-0.339 0.411-0.156 0.161-0.159 0.328-0.011 0.546l0.113 0.166-0.099 0.134c-0.054 0.073-0.117 0.134-0.14 0.134s-0.196-0.112-0.385-0.248c-0.189-0.137-0.386-0.248-0.436-0.247-0.271 0.003-1.302 0.679-1.785 1.171-0.19 0.193-0.448 0.524-0.587 0.752-0.166 0.272-0.293 0.429-0.384 0.472-0.181 0.088-0.272 0.349-0.374 1.071l-0.081 0.575-0.182 0.063c-0.111 0.039-0.244 0.052-0.344 0.032l-0.162-0.032-0.030-0.371c-0.016-0.204-0.010-0.563 0.015-0.796 0.042-0.395 0.039-0.434-0.047-0.554-0.113-0.158-0.306-0.263-0.487-0.263-0.123 0-0.152 0.032-0.322 0.359-0.103 0.198-0.292 0.468-0.42 0.6-0.324 0.335-0.586 0.45-1.082 0.476l-0.397 0.021-0.113 0.222c-0.062 0.122-0.144 0.234-0.182 0.249-0.116 0.044-0.397-0.066-0.535-0.209l-0.13-0.135-0.218 0.389c-0.12 0.214-0.269 0.455-0.33 0.536-0.331 0.434-0.841 0.478-1.908 0.165l-0.415-0.122-1.578-1.355-0.053-0.311c-0.062-0.359-0.039-0.614 0.071-0.781l0.077-0.117 0.136 0.221c0.282 0.456 0.6 0.798 1.215 1.307l0.633 0.524 0.482 0.025c0.578 0.028 0.823-0.025 1.028-0.23 0.188-0.188 0.231-0.452 0.155-0.959l-0.056-0.376-1.425-1.909c-0.784-1.050-1.425-1.934-1.425-1.965-0-0.079-0.645-0.073-1.039 0.011-0.639 0.135-1.064 0.439-1.286 0.919-0.096 0.208-0.121 0.339-0.135 0.707-0.017 0.441-0.011 0.473 0.26 1.415 0.205 0.713 0.294 1.112 0.343 1.535 0.036 0.315 0.089 0.674 0.118 0.798 0.156 0.668 0.442 0.923 0.957 0.852l0.209-0.028 0.407 0.387c0.371 0.353 0.772 0.608 1.138 0.724 0.041 0.014 0.22 0.304 0.396 0.647 0.444 0.863 0.821 1.375 1.537 2.093 0.563 0.563 0.647 0.63 1.084 0.854 0.867 0.444 1.751 1.025 2.224 1.461 0.149 0.138 0.169 0.182 0.169 0.366 0 0.483 0.257 0.736 0.757 0.745 0.154 0.003 0.358-0.076 1.016-0.395l0 0.002c2.192-1.060 3.365-1.868 4.958-3.416 0.49-0.476 0.959-0.889 1.129-0.995 0.16-0.099 0.297-0.212 0.304-0.25s-0.102-0.201-0.243-0.361c-0.352-0.402-0.515-0.755-0.515-1.112 0-0.25 0.027-0.333 0.268-0.813 0.364-0.725 0.663-1.434 1.061-2.516 0.587-1.596 0.834-2.551 0.871-3.37 0.027-0.611-0.037-0.934-0.283-1.422-0.145-0.287-0.269-0.419-1.334-1.422-0.7-0.659-1.267-1.156-1.403-1.23-0.188-0.102-0.283-0.124-0.529-0.12zM8.732 7.322c-0.066-0.001-0.141 0.002-0.235 0.006-0.661 0.031-1.048 0.263-1.184 0.71-0.078 0.255-0.116 0.684-0.064 0.716 0.026 0.016 0.163 0.231 0.306 0.478 0.231 0.401 2.691 3.974 2.842 4.128 0.163 0.167 1.033 0.24 1.384 0.117h0c0.212-0.075 0.461-0.287 0.561-0.478 0.177-0.338 0.166-0.987-0.025-1.497-0.155-0.415-0.984-1.719-2.084-3.28l-0.427-0.606-0.449-0.153c-0.308-0.105-0.426-0.138-0.624-0.14zM21.845 18.271c-0.318-0.007-0.711 0.27-1.58 1.119-0.794 0.776-1.882 1.706-2.578 2.206-0.25 0.179-0.751 0.464-1.215 0.691-0.435 0.212-0.963 0.477-1.174 0.589-0.988 0.523-1.227 0.621-1.513 0.623-0.325 0.002-0.522-0.091-0.88-0.414l-0.248-0.223-0.164 0.108c-0.241 0.159-0.665 0.66-0.748 0.882-0.040 0.107-0.073 0.335-0.074 0.51l-0.002 0.316 0.99 1.637c0.545 0.9 0.999 1.637 1.009 1.637s0.254-0.124 0.542-0.277v0c2.374-1.256 5.25-3.317 8.751-6.273 0.251-0.212 0.43-0.83 0.365-1.259-0.113-0.741-0.331-1.297-0.605-1.537-0.187-0.164-0.616-0.328-0.875-0.335z"></path>
</svg>
