<!-- Generated by IcoMoon.io -->
<svg version="1.1" xmlns="http://www.w3.org/2000/svg" width="32" height="32" viewBox="0 0 32 32">
<title>skull</title>
<path d="M15.955 2.507c-2.303 0.085-4.765 0.81-6.905 2.456-0.43 0.566-0.73 0.958-1.33 1.495-0.52 0.327-0.746 0.493-1.33 2.547-0.452 1.946-0.945 5.002-0.191 6.915 0.096-0.255-0.016-1.363 0.304-2.105 0.481-0.272 0.335-1.178 0.335-1.935-0.085-1.256 0.096-0.555 0.22-0.278 0.3 1.552 0.165 3.068-0.096 4.669-0.187 0.95-0.543 1.268-0.074 3.123 0.085 0.566 0.277 0.985 0.198 1.427-0.074 0.413-0.306 0.719-0.469 1.063-0.097 0.493-0.6 0.635 0.051 1.659 0.14 0.514 0.401 0.763 0.719 1.058 0.514 0.504 1.042 0.397 1.352 0.13 2.734-0.968 4.408-0.158 4.749-0.164l0.322 0.22c-0.084 0.339-0.248 0.724-0.135 0.997 0.045 0.214-0.062 0.621-0.368 0.633-0.816 0.81-1.285 2.496-0.974 3.441 0.271 0.855 0.719 0.882 0.775 0.487-0.033-0.668 0.51-1.488 0.566-1.347-0.113 0.543-0.124 0.843-0.109 1.285 0 0.339 0.171 0.588 0.481 0.695 0.165 0.13 0.663 0.216 0.685 0.058 0.016-0.142 0.136-0.391 0.255-0.629-0.025 0.362-0.029 0.588 0.085 0.82 0.096 0.238 0.259 0.227 0.351 0.244 0.101 0.041 0.316 0.074 0.537-0.13 0.113-0.090 0.17-0.253 0.084-0.283 0.033-0.588-0.244-0.861 0.080-1.651 0.096-0.51 0.267-0.963 0.277 0 0.029 0.3 0.12 0.537 0.080 0.65-0.084 0.238-0.084 0.6-0.051 0.968 0.051 0.238 0.091 0.452 0.65 0.374 0.374-0.025 0.351-0.13 0.481-0.187 0.148-0.074 0.17 0 0.34-0.124 0-0.255-0.148-0.368-0.284-0.397-0.004-0.113-0.057-0.13 0.012-0.193 0.345-0.096 0.288-0.146 0.356-0.26 0.091-0.097 0.288 0.175 0.136 0.294-0.016 0.288 0.012 0.442 0.13 0.481 0.096 0.080 0.419-0.198 0.746-0.277 0.227-0.12 0.317-0.233 0.261-0.59 0.051-0.39-0.193-0.3-0.164-0.736 0.187-0.724 0.261-0.452 0.294-0.051 0.152 0.679 0.198 0.991 0.379 0.837 0.876-0.497 0.487-0.678 0.939-0.808 0.249-0.074 0.261-0.148 0.193-0.379-0.113-1.301-0.413-1.137-0.493-1.653 0.074-0.785-0.164-0.384-0.368-0.3-0.436-0.713-0.271-0.481-1.042-0.475-0.181 0.057-0.186-0.090-0.22-0.214-0.164-0.52-0.13-0.775 0.057-1.166-0.164-0.458 0.305-0.684 0.832-0.719 0.861-0.080 2.535-0.588 4.698 0.391 0.413 0.435 0.695 0.3 0.832 0.107 0.209-0.305 0.374-0.391 0.719-0.662 0.481-0.537 0.187-0.94 0.164-1.381-0.249-0.759-0.13-1.211 0.057-1.608 0.080-0.775-0.181-1.573-0.368-2.331-0.181-0.713-0.283-1.398-0.571-1.811-0.765-0.855-0.448-1.313-0.555-2.161 0.119-0.946 0.113-1.624 0.333-2.57 0.062 1.172-0.057 1.789 0.329 2.348 0.175 0.477-0.090 1.082 0.249 1.908 0.175-0.43 0.674-2.060 0.526-6.605-0.271-1.743-0.927-2.761-1.381-3.322-0.775-0.713-1.176-1.363-1.657-1.935-1.415-1.47-4.12-2.444-7.086-2.343zM12.129 17.249c1.959 0.464 2.829 0.956 2.586 1.523 0.041 0.253 0.278 0.146 0.414 0.146 0.051-0.13 0.021-0.113-0.004-0.316 0.033-0.068 0.158-0.204 0.283 0.051-0.080 0.481-0.142 0.312 0.025 0.645-0.204 0.413-0.124 0.81 0 1.092 0.22 0.407 0.051 0.362 0.113 0.781-0.17-0.041-0.278-0.051-0.356-0.283-0.43-0.385-0.448 0.107-0.543 0.101-0.13 0.041-0.109 0.193-0.113 0.267-0.821 0.277-0.724 0.543-1.020 0.787-0.158 0.423-1.131 0.672-1.992 0.6-1.227-0.074-0.972 0.033-1.239 0.209-0.13 0.255-0.238 0.561-0.606 0.13-0.033-0.214-0.080-0.261-0.335-0.339-1.153-0.792-1.284-2.525-1.239-3.078 0.413-0.816-0.101-0.889 0.187-1.279 0.267-0.985 1.544-0.821 3.842-1.036zM22.373 17.311c0.135-0.004 0.305 0.045 0.553 0.193 0.362 0.259 0.578 0.193 1.534 0.674 0.748 0.797 1.104 2.173 0.65 3.151-1.589 1.324-2.569 2.054-4.708 1.314-0.571-0.244-0.871-0.177-1.007-0.498-0.232-0.578-0.866-0.697-1.081-1.55-0.294-0.091-0.226 0.152-0.385 0.045 0.261-0.516 0.17-0.617 0.537-0.95 0.288-0.504 0.232-0.878 0.046-1.155-0.233-0.103-0.198-0.379 0.203-0.317 0.866-0.033 1.098-0.436 1.365-0.448 0.316-0.041 0.294-0.004 0.384-0.339 0.119-0.181 0.255 0.051 0.606 0.113 0.855 0.283 0.905-0.214 1.302-0.232zM16.567 21.64c0.197 0.041 0.312 0.294 0.374 0.51 0.672 1.511 0.735 0.826 0.995 1.324 0.516 1.155 0.43 1.612 0.22 2.161-0.016 0.345-0.090 0.724-0.44 0.882-0.21 0.091-0.21 0.124-0.391 0.278-0.17 0.084-0.351 0.062-0.498-0.107-0.304-0.51-0.481-0.119-0.65 0-0.033 0.135-0.152 0.271-0.090 0.464-0.227 0.101-0.459 0.152-0.662-0.051-0.154-0.17-0.537-0.025-0.697-0.691-0.074-0.158-0.021-0.203-0.17-0.333-0.317-0.097-0.407-0.703-0.025-1.092 0.033-0.261 1.155-1.67 1.104-2.57 0.43-0.639 0.724-0.814 0.929-0.775z"></path>
</svg>
