<!-- Generated by IcoMoon.io -->
<svg version="1.1" xmlns="http://www.w3.org/2000/svg" width="32" height="32" viewBox="0 0 32 32">
<title>sleeping_nightmares</title>
<path d="M28.455 18.858c-0.052 0.042-0.111 0.066-0.177 0.073-0.064 0.002-0.125 0.005-0.189 0.009-0.175 0.026-0.336 0.090-0.516 0.116-0.009 0.002-0.017 0.002-0.026 0.005 0.005 0.002 0.009 0.002 0.014 0.002 0.078 0.023 0.142 0.069 0.225 0.076 0.078 0.007 0.554-0.052 0.575 0.028-0.054 0.009-0.102 0.042-0.154 0.052-0.033-0.007-0.069-0.009-0.104-0.009-0.137 0.017-0.27 0.052-0.397 0.104-0.639 0.18-1.299 0.099-1.947 0.163-0.383 0.038-0.788 0.123-1.173 0.102-0.125-0.005-0.244-0.052-0.369-0.045-0.161 0.005-0.317 0.038-0.478 0.042-0.345 0.009-0.71 0.023-1.055-0.007 0.017-0.026 0.033-0.050 0.050-0.076-0.173-0.057-0.36-0.042-0.537-0.040-0.274 0.002-0.544 0.005-0.816 0-0.286-0.007-0.603 0.017-0.875-0.088 0.033-0.033 0.078-0.050 0.13-0.048 0.083-0.026 0.161-0.062 0.234-0.107 0.133-0.054 0.274-0.031 0.414-0.036 0.078-0.005 0.095-0.026 0.166-0.043 0.121-0.026 0.348 0.002 0.459 0.002 0.225 0 0.407 0.033 0.632 0.009 0.133-0.014 0.253 0 0.379-0.050 0.054-0.019 0.090-0.057 0.137-0.083 0.121-0.062 0.315 0.005 0.447 0.002 0.154 0 0.31 0.005 0.457 0.052 0.040 0.014 0.054 0.033 0.099 0.031 0.031-0.007 0.062-0.019 0.092-0.033 0.18-0.014 0.362-0.019 0.544-0.009 0.289 0.002 0.563 0 0.849-0.048 0.374-0.062 0.738-0.088 1.117-0.123 0.244-0.021 0.471-0.031 0.719-0.028 0.187 0.002 0.329-0.021 0.506-0.040-0.019 0-0.036-0.002-0.050-0.002-0.007 0-0.012 0.002-0.019 0.002-0.048 0.005-0.083-0.007 0.019-0.002 0.048-0.007 0.078-0.017 0.125-0.028 0.159-0.040 0.357-0.002 0.52-0.017 0.097-0.009 0.201-0.036 0.3-0.038-0.109 0.042-0.218 0.083-0.326 0.125zM27.528 20.393c-0.052 0.038-0.142 0.062-0.203 0.078-0.282 0.080-0.601 0.104-0.892 0.102-0.147-0.002-0.263-0.002-0.405 0.036 0.118-0.007-0.485 0.322-0.445 0.298-0.092 0.052-0.196 0.137-0.296 0.185-0.151 0.073-0.326 0.078-0.497 0.078 0.005 0 0.012 0 0.017 0h-0.14c0.040 0 0.083 0 0.123 0-0.17-0.014-0.371 0.012-0.528 0.071-0.073 0.028-0.114 0.050-0.194 0.050-0.35 0.005-0.703 0.002-1.053 0-0.040 0-0.078 0-0.116 0-0.497 0.005-0.996-0.057-1.488-0.128 0.005-0.090 0.3-0.17 0.383-0.196 0.111-0.036 0.227-0.033 0.341-0.038 0.26-0.007 0.52 0.002 0.778 0.002h0.658c-0.215 0-0.428 0-0.644 0-0.005 0-0.009 0-0.014 0h-0.007c0.549 0 1.124 0.045 1.661-0.066 0.227-0.045 0.397-0.154 0.606-0.213 0.114-0.033 0.227-0.040 0.343-0.040-0.116 0-0.232-0.002-0.348 0.005-0.18 0.009-0.36 0.066-0.537 0.023 0.083-0.109 0.185-0.203 0.329-0.187-0.017 0-0.031 0-0.048 0.002 0.308-0.066 0.606-0.083 0.92-0.080 0.39 0.005 0.764-0.048 1.15-0.092 0.133-0.017 0.329-0.069 0.459-0.021 0.002 0.009 0.002 0.021 0.005 0.033 0.168-0.042 0.175-0.042 0.182-0.045-0.040 0.042-0.052 0.109-0.102 0.144zM26.99 22.364c-0.092 0.071-0.244 0.085-0.348 0.128-0.159 0.064-0.31 0.142-0.459 0.227-0.064 0.038-0.13 0.078-0.196 0.116-0.042 0.026-0.080 0.059-0.121 0.088 0.009-0.007 0.017-0.017 0.023-0.026-0.26 0.042-0.528 0.073-0.785 0.125 0.435-0.161 0.861-0.345 1.289-0.52 0.088-0.038 0.239-0.069 0.282-0.17-0.057 0.031-0.092 0.033-0.175 0.042-0.18 0.026-0.362 0.043-0.544 0.064-0.703 0.078-1.422 0.052-2.127 0.050 0.021-0.023-0.324-0.009-0.362-0.007-0.121 0.012-0.244 0.031-0.364 0.054 0.185-0.040 0.367-0.095 0.551-0.137-0.329 0.036-0.651 0.085-0.982 0.149-0.75 0.147-1.517 0.099-2.278 0.099h0.523c0.229-0.028 0.457-0.116 0.684-0.163 0.246-0.050 0.494-0.090 0.74-0.144 0.31-0.071 0.62-0.135 0.934-0.194 0.099-0.019 0.282-0.104 0.381-0.095 0 0.014 0.002 0.026 0.002 0.038l1.99-0.083c0.142-0.026 0.286-0.050 0.431-0.071 0.125-0.017 0.232-0.007 0.355-0.045 0.133-0.045 0.232-0.033 0.371-0.043-0.036-0.002-0.066 0.007-0.099 0.019-0.123 0.043-0.192 0.057-0.324 0.071-0.13 0.012-0.256 0.033-0.383 0.054l0.57-0.023c0.050 0 0.099 0.002 0.147-0.002-0.083 0.042-0.168 0.088-0.253 0.121-0.274 0.107-0.658 0.021-0.906 0.206 0.435-0.078 0.908-0.069 1.349-0.048 0.099 0.005 0.196 0.036 0.085 0.121zM25.701 23.043c-0.054 0.021-0.128-0.002-0.185 0 0.083-0.038 0.203-0.036 0.293-0.080-0.036 0.028-0.076 0.052-0.109 0.080zM24.295 23.28c-0.021 0.007-0.042 0.014-0.059 0.019-0.092 0.021-0.185 0.033-0.274 0.043-0.054 0.014-0.109 0.026-0.163 0.040-0.199 0.045-0.393 0.092-0.591 0.137-0.376 0.085-0.757 0.13-1.143 0.154-0.355 0.019-0.712 0.040-1.067 0.050-0.161-0.002-0.322-0.009-0.483-0.021-0.104-0.005-0.208-0.014-0.312-0.031-0.048-0.033-0.071-0.040-0.026-0.092 0.085-0.092 0.343-0.111 0.445-0.121 0.239-0.023 0.473-0.048 0.707-0.107 0.192-0.050 0.36-0.099 0.556-0.111h-0.085c-0.111 0-0.22 0-0.331 0h0.334c0.085 0 0.201-0.019 0.291 0 0.057 0 0.114 0 0.173 0h-0.163c0.012 0.002 0.023 0.005 0.036 0.009-0.17 0.021-0.341 0.036-0.509 0.062 0.263 0.050 0.535 0.007 0.795 0.057-0.192 0.028-0.383 0.052-0.577 0.073 0.279-0.002 0.561-0.002 0.84-0.002 0.154 0.002 0.308 0.007 0.461 0 0.175-0.009 0.343-0.048 0.516-0.069 0.099-0.012 0.199-0.019 0.298-0.028 0.080-0.021 0.163-0.040 0.246-0.054 0.028-0.005 0.059-0.005 0.088-0.007 0.040-0.014 0.083-0.031 0.116-0.033-0.036 0.023-0.076 0.031-0.116 0.033zM13.888 24.096c-0.092 0.023-0.17 0.076-0.265 0.092-0.232 0.042-0.516 0.021-0.748 0-0.35-0.033-0.688-0.078-1.043-0.071-0.173 0.002-0.336-0.031-0.504-0.042-0.161-0.007-0.289-0.019-0.45-0.054-0.095-0.021-0.175-0.021-0.272-0.021-0.196 0-0.386-0.040-0.58-0.042-0.128-0.002-0.255 0-0.386 0.002-0.078 0-0.251 0.023-0.336-0.009 0.059-0.083 0.369-0.031 0.485-0.031h0.35c0.189 0 0.381 0 0.57-0.002 0.535-0.005 1.072 0.014 1.604 0.057 0.17 0.014 0.334 0.052 0.504 0.064-0.090-0.078 0.021-0.078 0.133-0.080 0.095 0 0.159 0.026 0.246 0.038 0.109 0.014 0.225 0.002 0.334 0.002 0.348-0.002 0.696 0.007 1.043 0.040-0.225 0.057-0.464 0.005-0.686 0.059zM8.823 21.482c-0.028 0.002-0.057 0.005-0.085 0.012-0.121 0.023-0.225 0.104-0.35 0.116-0.088 0.007-0.182-0.007-0.27-0.005-0.090 0.002-0.168 0.040-0.255 0.042-0.121 0.002-0.206 0.048-0.324 0.071-0.234 0.048-0.494 0.064-0.736 0.083-0.159 0.014-0.208-0.005-0.338-0.076-0.125-0.069-0.338-0.080-0.487-0.080 0.18 0.005 0.362 0 0.265-0.078 0.062-0.002 0.118 0 0.18-0.007 0.177-0.019 0.341-0.111 0.518-0.116 0.305-0.009 0.61-0.040 0.913-0.069 0.161-0.014 0.324 0.002 0.48-0.028 0.102-0.021 0.18-0.036 0.27 0.009 0.064 0.031 0.135 0.099 0.196 0.123 0.007 0.002 0.017 0.002 0.023 0.002 0.121-0.009 0.251 0.005 0.369 0.005h0.066c-0.114 0-0.319 0.028-0.435-0.005zM5.144 19.428c-0.066-0.012-0.135-0.026-0.201-0.009 0.632-0.059 1.28-0.194 1.916-0.166 0.506 0.021 1.020 0.069 1.516 0.166 0.123 0.023 0.239 0.043 0.355 0.071 0.133 0.033 0.286-0.031 0.414 0.012 0.019 0.028 0.048 0.045 0.083 0.050 0.078 0.028 0.159 0.038 0.244 0.026 0.104 0 0.208-0.005 0.312-0.005 0.168 0.002 0.329-0.023 0.494-0.036 0.078-0.005 0.159 0.007 0.237-0.002 0.052-0.005 0.095-0.023 0.142-0.038 0.22-0.073 0.466-0.114 0.686-0.163 0.009 0 0.215 0 0.424 0 0.137 0 0.279-0.014 0.416 0.009 0.026 0.005 0.123 0.019 0.137 0.033 0.036 0.033 0.031 0.102 0.014 0.151-0.315 0.012-0.632-0.012-0.944 0.031-0.213 0.028-0.414 0.13-0.629 0.14-0.589 0.026-1.188-0.005-1.779-0.005-0.237 0-1.902 0.064-1.921-0.123-0.35 0.007-0.712 0.028-1.060 0-0.291-0.026-0.57-0.097-0.856-0.142zM13.495 20.888c-0.033-0.142 0.057-0.050 0.173-0.036 0.073 0.009 0.144-0.014 0.218 0.005 0.019 0.023 0.045 0.033 0.078 0.033 0.031 0 0.062-0.002 0.092-0.005 0.043 0.009 0.054 0.052 0.104 0.042-0.104-0.002-0.208-0.002-0.312 0-0.137 0-0.274 0.019-0.412 0.031-0.142 0.012-0.293-0.002-0.433 0.017-0.133 0.021-0.248 0.071-0.383 0.073-0.099 0-0.196 0-0.293 0-0.166 0-0.291-0.045-0.442-0.085-0.092-0.026-0.156-0.028-0.255-0.033-0.073-0.002-0.142-0.019-0.211-0.040-0.085 0-0.17 0-0.255 0-0.22 0-0.431-0.040-0.648-0.043 0.182 0.009 0.355-0.036 0.535-0.040 0.128-0.002 0.248 0.045 0.369 0.083 0.125 0 0.251-0.002 0.376-0.002zM29.883 17.243c-0.213 0.026-0.435 0.007-0.648 0.007h-0.828c-0.506 0-1.036-0.042-1.531 0.021-0.194 0.023-0.388 0.019-0.584 0.019-0.502-0.002-1.010 0.038-1.509-0.009 0.007-0.009 0.019-0.017 0.033-0.021-0.45 0.042-0.899 0.099-1.351 0.137-0.163 0.012-0.234 0.014-0.355 0.040-0.069 0.033-0.144 0.040-0.225 0.023-0.414 0.031-0.828 0.057-1.242 0.078-0.386 0.005-0.771 0.031-1.154 0.073-0.090-0.021-0.168-0.005-0.227 0.050 0.069 0.045 0.208 0.031 0.282 0.036-0.317 0.040-0.632 0.031-0.939 0.137-0.033 0.012-0.629 0.298-0.596 0.457 0.199 0.012 0.4 0.009 0.589 0.078 0.021 0.128-0.045 0.128-0.104 0.232 0.159 0.109 0.326 0.196 0.454 0.341-0.135 0.092-0.265 0.192-0.39 0.298-0.142 0.076-0.239 0.192-0.293 0.343 0.168 0.031 0.336 0.057 0.506 0.076 0.163-0.002 0.315 0.045 0.452 0.14-0.135 0.168-0.298 0.296-0.494 0.383-0.189 0.104-0.369 0.222-0.544 0.352-0.213 0.114-0.383 0.274-0.511 0.483 0.017 0.050 0.031 0.099 0.043 0.151 0.128 0.002 0.241 0.040 0.343 0.109-0.073 0.161-0.194 0.244-0.341 0.338-0.097 0.064-0.308 0.111-0.341 0.22 0.412 0.078 0.823 0.133 1.24 0.187 0.019 0.092-0.017 0.161-0.106 0.203-0.088 0.076-0.159 0.163-0.211 0.265 0.021 0.040 0.052 0.048 0.095 0.021 0.080 0.102-0.239 0.315-0.305 0.374-0.137 0.123-0.39 0.293-0.374 0.502 0.225 0.007 0.485-0.050 0.696 0.021-0.352 0.232-0.714 0.438-1.084 0.639-0.14 0.076-0.39 0.154-0.485 0.286 0.106 0.023 0.213 0.033 0.319 0.033 0.092 0.007 0.187 0.009 0.282 0.005 0.085 0.040 0.159 0.161 0.218 0.229 0.118 0.14 0.135 0.187 0.213 0.317 0.021 0.036 0.059 0.059 0.080 0.099-0.080 0.083-0.166 0.156-0.26 0.22-0.109 0.054-0.182 0.137-0.225 0.251 0.133 0.023 0.265 0.036 0.397 0.040 0.090-0.033 0.151-0.012 0.187 0.062-0.409 0.211-0.778 0.485-1.145 0.764 0.012 0.092 0.066 0.116 0.166 0.071 0.118-0.005 0.234-0.009 0.352-0.012-0.002 0.128-0.085 0.211-0.248 0.244-0.182 0.116-0.343 0.258-0.485 0.421 0.232 0.14 0.468 0.005 0.717 0.064-0.095 0.028-0.194 0.111-0.125 0.213 0.042 0.059 0.36 0.026 0.435 0.023 0.142-0.005 0.142-0.033 0.244-0.050-0.49 0.357-1.072 0.608-1.628 0.837 0.057 0.014 0.114-0.002 0.168 0.017-0.102 0.026-0.206 0.036-0.312 0.031-0.102 0.033-0.175 0-0.215-0.102 0.038-0.085 0.215-0.355 0.185-0.464 0.005-0.064-0.026-0.095-0.097-0.097-0.073-0.026-0.137-0.066-0.192-0.121-0.144-0.069-0.173-0.189-0.085-0.364 0.088-0.121 0.173-0.241 0.26-0.364 0.111-0.133 0.256-0.201 0.267-0.378-0.215-0.080-0.367-0.232-0.454-0.457-0.007-0.13-0.012-0.263-0.019-0.395 0.052-0.345 0.421-0.431 0.62-0.653-0.348-0.050-0.771-0.028-1.086-0.196 0.097-0.234 0.445-0.298 0.665-0.383-0.457-0.038-0.911-0.038-1.367-0.085 0.296-0.142 0.606-0.256 0.925-0.338 0.326 0.033 0.48-0.057 0.464-0.27-0.405-0.042-0.809-0.066-1.216-0.090 0.44-0.142 0.882-0.26 1.313-0.426 0.218-0.085 0.407-0.187 0.613-0.291-0.123-0.189-0.343-0.189-0.66 0-0.899 0.012-1.8 0.017-2.699 0.014-0.648 0-1.294 0-1.94-0.002-0.064-0.019-0.116-0.005-0.159 0.038 0.22-0.213 0.478-0.374 0.774-0.487 0.736-0.435 1.467-0.878 2.193-1.327 0.412-0.258 0.826-0.584 1.268-0.785-0.128-0.042-0.26-0.052-0.4-0.026-0.282-0.005-0.565-0.007-0.847-0.002-0.492 0-0.984 0.017-1.476-0.002 0.147-0.057 0.291-0.116 0.44-0.17 0.078-0.028 0.18-0.036 0.241-0.092-0.416-0.057-0.835-0.109-1.254-0.159 0.040-0.045 0.088-0.073 0.149-0.088 0.102-0.038 0.187-0.097 0.26-0.18 0.111-0.097 0.345-0.234 0.305-0.404-0.121 0.014-0.232 0.026-0.352 0.017-0.014-0.085 0.107-0.114 0.166-0.142 0.284-0.135 0.563-0.279 0.845-0.416 0.144-0.073 0.3-0.166 0.457-0.213 0.036-0.009 0.054-0.026 0.095-0.023-0.161 0.005-0.322 0-0.483 0-0.371 0-0.738 0.021-1.11 0.038-0.213 0.009-0.424-0.007-0.636-0.002-0.274 0.005-0.549 0.099-0.821 0.128-0.26 0.028-0.518 0.038-0.778 0.038-0.227-0.002-0.468-0.021-0.696 0.023-0.336 0.066-0.698 0.201-1.046 0.121-0.144-0.036-0.286-0.109-0.431-0.137-0.237-0.045-0.497-0.062-0.736-0.080-0.386-0.031-0.783-0.007-1.171-0.007-0.194 0-0.39 0-0.584 0-0.166 0-0.319-0.007-0.48 0.023-0.237 0.042-0.466 0.121-0.703 0.163-0.128 0.021-0.255-0.007-0.381 0.019-0.076 0.014-0.147 0.054-0.222 0.071-0.27 0.052-0.561 0.104-0.833 0.175-0.085 0.021-0.092 0.057-0.168 0.009-0.042-0.054-0.088-0.109-0.132-0.163-0.083-0.104-0.17-0.206-0.26-0.303-0.107-0.118-0.151-0.135-0.298-0.107-0.438 0.083-0.911 0.031-1.358 0.031-0.052-0.064-0.27 0.069-0.274 0.121-0.002 0.038 0.095 0.158 0.125 0.189 0.097 0.099 0.239 0.007 0.343 0.111 0.026 0.054 0.059 0.102 0.102 0.142 0.026 0.038 0.059 0.066 0.097 0.090 0.102 0.109 0.189 0.244 0.279 0.362 0.092 0.121 0.163 0.256 0.265 0.369 0.083 0.095 0.199 0.185 0.26 0.289 0.031 0.097 0.062 0.192 0.092 0.286 0.036 0.114 0.088 0.22 0.156 0.317 0.090 0.161 0.182 0.319 0.277 0.476 0.168 0.107 0.343 0.194 0.53 0.263 0.471 0.239 0.968 0.556 1.353 0.923 0.173 0.163 0.343 0.371 0.459 0.582 0.114 0.279 0.18 0.568 0.201 0.871 0.033 0.324 0.144 0.618 0.331 0.882 0.118 0.185 0.248 0.357 0.39 0.523 0.177 0.13 0.355 0.256 0.535 0.381 0.185 0.144 0.336 0.319 0.452 0.523 0.168 0.248 0.379 0.452 0.629 0.615 0.494 0.371 1.039 0.776 1.67 0.816 0.298-0.014 0.594-0.007 0.89 0.023 0.284 0.007 0.535 0.099 0.752 0.274 0.038 0.083 0.076 0.168 0.114 0.253 0.156 0.291 0.381 0.516 0.672 0.674 0.303 0.206 0.632 0.364 0.982 0.468 0.189 0.052 0.379 0.088 0.572 0.111 0.331 0.066 0.66 0.151 0.984 0.253 0.277 0.073 0.542 0.173 0.8 0.3 0.097 0.080 0.203 0.144 0.319 0.187 0.267-0.014 0.532-0.031 0.797-0.050 0.319-0.023 0.636-0.076 0.946-0.156 0.256-0.054 0.513-0.107 0.769-0.158 0.144-0.050 0.282-0.116 0.412-0.192 0.177-0.076 0.305-0.128 0.457-0.244 0.158-0.123 0.3-0.206 0.473-0.291 0.18-0.13 0.35-0.27 0.513-0.419 0.177-0.168 0.374-0.315 0.584-0.44 0.206-0.066 0.419-0.099 0.634-0.099 0.225-0.036 0.45-0.078 0.672-0.125 0.090-0.026 0.18-0.026 0.27-0.007 0.166-0.031 0.326-0.073 0.487-0.13 0.293-0.106 0.537-0.282 0.736-0.528 0.22-0.248 0.459-0.478 0.719-0.684 0.274-0.163 0.144-0.052 0.239 0.102 0.317-0.324 0.504-0.762 0.762-1.131 0.452-0.648 1.013-1.199 1.502-1.817 0.407-0.516 0.731-1.088 1.095-1.637 0.182-0.274 0.341-0.509 0.461-0.814 0.071-0.177 0.123-0.376 0.227-0.539 0.149-0.232 0.282-0.447 0.371-0.712 0.104-0.305 0.017-0.625 0.114-0.934 0.085-0.274 0.369-0.447 0.58-0.627 0.121-0.085 0.229-0.185 0.324-0.298 0.026-0.078 0.052-0.159 0.073-0.239 0.026-0.069 0.021-0.116 0.033-0.185 0.016-0.114 0.085-0.225 0.137-0.326 0.038-0.076 0.099-0.185 0.111-0.267-0.277 0.043-0.547 0.156-0.823 0.189z"></path>
<path d="M23.206 7.985c0.033 0.009 0.064 0.019 0.097 0.028-0.038 0.009-0.076 0.017-0.116 0.017-0.083 0.002-0.161-0.019-0.244-0.002-0.014 0.002-0.028 0.005-0.042 0.009 0.005-0.005 0.009-0.009 0.014-0.014 0.036-0.031 0.064-0.059 0.092-0.088 0.066 0.017 0.13 0.033 0.199 0.050zM6.234 8.016c-0.007-0.064-0.062-0.054-0.102-0.085-0.048-0.036-0.097-0.097-0.135-0.137-0.090-0.097-0.066-0.215-0.054-0.341 0.007-0.062 0.019-0.125 0.071-0.154 0.088-0.050 0.251 0.012 0.341-0.023 0.092-0.036 0.154-0.189 0.227-0.258 0.090-0.080 0.175-0.097 0.284-0.142 0.088-0.036 0.147-0.099 0.229-0.142 0.050-0.023 0.083-0.045 0.118-0.083 0.111-0.118 0.22-0.284 0.364-0.362 0.092-0.048 0.229-0.118 0.329-0.14 0.147-0.031 0.326 0.009 0.471 0.014 0.135 0.007 0.267 0.014 0.402 0.019-0.182 0.159-0.367 0.312-0.556 0.461-0.149 0.118-0.293 0.241-0.431 0.371-0.052 0.050-0.149 0.111-0.17 0.18-0.021 0.066 0.002 0.182 0.005 0.248 0 0.042-0.002 0.085-0.002 0.13-0.135 0.189-0.251 0.4-0.326 0.608-0.042 0.116-0.078 0.218-0.104 0.338-0.023 0.099-0.019 0.182-0.028 0.279-0.014 0.175-0.123 0.222-0.234 0.334-0.057 0.054-0.090 0.135-0.13 0.206-0.042 0.078-0.069 0.163-0.118 0.237-0.076 0.109-0.189 0.206-0.213 0.341-0.023 0.142 0.002 0.248 0.050 0.376 0.057 0.154-0.097 0.319-0.196 0.433-0.052 0.059-0.073 0.099-0.080 0.142-0.014 0.021-0.031 0.045-0.045 0.069-0.083 0.147-0.059 0.263-0.031 0.416 0.023 0.144-0.007 0.338-0.021 0.485 0.009-0.007 0.017-0.017 0.023-0.026-0.009 0.038-0.017 0.076-0.021 0.114-0.005 0.036-0.017 0.052 0 0.083 0.043-0.007 0.057-0.054 0.104-0.059 0.038-0.147 0.054-0.298 0.064-0.45 0.023-0.042 0.042-0.085 0.054-0.123 0.017-0.062-0.014-0.137 0.005-0.196 0.012-0.033 0.036-0.038 0.048-0.073 0.014-0.050-0.009-0.111 0.002-0.161 0.009-0.033 0.021-0.062 0.033-0.090 0.059-0.028 0.13-0.045 0.194-0.076 0.196-0.104 0.326-0.248 0.497-0.383 0.057-0.043 0.116-0.062 0.18-0.088 0.135-0.057 0.27-0.092 0.416-0.114 0.104-0.014 0.201-0.033 0.3-0.057 0.052-0.012 0.161-0.012 0.203-0.038 0.038-0.023 0.050-0.071 0.057-0.111 0.036-0.182 0.019-0.395 0.026-0.584 0.005-0.161 0.045-0.239 0.151-0.36 0.102-0.116 0.187-0.156 0.329-0.227 0.279-0.142 0.511-0.362 0.778-0.523 0.159-0.097 0.336-0.173 0.506-0.241 0.102-0.042 0.206-0.102 0.312-0.118 0.050-0.007 0.099-0.007 0.149-0.009 0.048 0.012 0.095 0.026 0.142 0.043 0.026-0.021 0.057-0.038 0.085-0.054 0.201-0.019 0.414-0.012 0.613-0.017 0.033 0 0.064 0 0.095 0.002 0.052 0.021 0.104 0.045 0.151 0.078 0.133-0.031 0.26-0.042 0.379-0.009 0.163 0.048 0.076 0.123 0.189 0.215 0.045-0.009 0.092-0.017 0.14-0.019 0.009 0 0.019-0.005 0.028-0.005 0.173-0.014 0.31 0.017 0.457 0.080 0.019-0.007 0.038-0.009 0.057-0.017l1.065 0.927c0.234 0.218 0.459 0.45 0.658 0.7 0.208 0.057 0.397 0.185 0.516 0.395 0.466 0.835 1.022 1.786 1.088 2.763 0.021 0.319-0.028 0.625-0.104 0.923 0.042 0.071 0.073 0.149 0.080 0.229 0.090 0.88-0.163 1.718-0.703 2.288-0.102 0.234-0.22 0.454-0.362 0.641-0.014 0.054-0.028 0.107-0.050 0.159-0.048 0.116-0.222 0.379-0.36 0.367 0.175 0.234 0.225 0.265 0.438 0.293 0.211 0.031 0.421-0.012 0.634-0.009 0.102 0.002 0.206 0.009 0.308 0.014 0.137 0.007 0.445-0.012 0.575 0.073 0.088 0.059 0.163 0.265 0.17 0.36 0.012 0.192-0.045 0.4-0.182 0.535-0.161 0.156-0.345 0.222-0.256 0.48 0.036 0.106 0.054 0.118 0.154 0.097 0.168-0.038 0.348 0.066 0.483 0.154 0.057 0.038 0.177 0.166 0.248 0.151 0.023-0.057 0.007-0.128 0.009-0.187 0.007-0.085 0.036-0.156 0.073-0.232 0.078-0.154 0.229-0.336 0.416-0.357 0.071-0.009 0.147 0.021 0.22 0.002 0.090-0.026 0.13-0.125 0.175-0.199 0.144-0.244 0.239-0.511 0.334-0.776 0.057-0.161 0.154-0.303 0.218-0.459 0.109-0.263 0.367-0.435 0.603-0.57 0.128-0.073 0.343-0.163 0.402-0.317 0.071-0.026 0.095-0.090 0.102-0.154 0.009-0.116-0.012-0.244-0.012-0.36-0.002-0.142-0.054-0.267-0.078-0.407-0.028-0.149-0.111-0.237-0.201-0.362-0.062-0.085-0.192-0.229-0.225-0.329-0.012-0.040 0-0.083-0.005-0.123-0.007-0.045-0.031-0.076-0.042-0.118-0.026-0.099-0.062-0.196-0.090-0.298-0.019-0.069-0.036-0.116-0.073-0.168-0.019-0.026-0.043-0.028-0.054-0.064-0.021-0.059 0.002-0.154-0.012-0.22-0.017-0.090-0.052-0.192-0.085-0.279-0.014-0.040-0.031-0.050-0.038-0.097-0.007-0.054 0.002-0.107-0.012-0.163-0.023-0.097-0.076-0.13-0.076-0.234-0.002-0.144-0.031-0.272 0.036-0.405 0.031-0.064 0.121-0.147 0.111-0.222-0.005-0.040-0.033-0.048-0.042-0.080-0.009-0.036-0.012-0.071-0.012-0.109-0.374-0.532-0.485-1.273-0.256-1.923 0.466-1.325 1.533-1.649 2.683-1.535 0.412-0.040 0.804 0.014 1.171 0.137 0.028 0.028 0.054 0.057 0.083 0.090 0.076 0.088 0.161 0.076 0.253 0.151 0.078 0.064 0.163 0.123 0.241 0.189 0.028 0.057 0.050 0.118 0.059 0.156 0.033 0.144-0.050 0.215-0.135 0.315-0.036 0.040-0.078 0.057-0.116 0.092-0.042 0.040-0.054 0.104-0.104 0.142-0.054 0.038-0.13 0.069-0.192 0.095-0.196 0.085-0.45 0.135-0.629-0.017-0.062-0.048-0.144-0.114-0.182-0.185-0.005-0.005-0.007-0.014-0.009-0.021-0.005 0.023-0.009 0.048-0.012 0.066-0.009 0.045-0.045 0.057 0 0.114 0.023 0.028 0.080 0.043 0.111 0.071 0.083 0.085 0.121 0.182 0.251 0.206 0.154 0.031 0.378 0.036 0.542 0.012 0.071-0.009 0.14-0.045 0.208-0.054 0.059-0.009 0.118 0.007 0.175-0.005 0.078-0.012 0.147-0.090 0.227-0.109 0.088-0.019 0.168 0.019 0.234 0.054 0.019 0.009 0.104 0.050 0.123 0.050 0.045-0.005 0.045-0.045 0.078-0.062 0.017-0.009 0.031-0.012 0.042-0.014 0.042 0.052 0.085 0.111 0.073 0.147 0.012-0.066-0.021-0.109-0.028-0.168-0.002-0.005 0-0.012-0.002-0.017 0.002 0 0.002 0 0.002 0 0.009-0.021 0.005-0.064 0.002-0.097 0-0.012 0-0.021 0-0.031 0.005-0.088 0.026-0.189 0.014-0.274-0.005-0.042-0.033-0.078-0.038-0.121-0.007-0.040 0.009-0.085 0.009-0.125-0.002-0.142-0.052-0.213-0.118-0.317-0.028-0.048-0.064-0.080-0.099-0.114 0.256 0 0.513 0.012 0.769 0.036 0.026 0.026 0.048 0.054 0.064 0.085 0.028 0.054 0.050 0.116 0.028 0.187-0.012 0.040-0.109 0.144-0.012 0.163 0.142 0.023 0.196-0.279 0.173-0.367-0.028-0.102-0.14-0.196-0.253-0.27-0.045-0.099-0.125-0.154-0.248-0.156-0.066-0.023-0.13-0.045-0.196-0.066-0.054-0.026-0.106-0.054-0.156-0.088-0.064-0.045-0.104-0.109-0.168-0.161-0.102-0.085-0.168-0.208-0.272-0.289-0.083-0.062-0.18-0.109-0.279-0.151l0.748-0.159c0.085 0.009 0.213 0.017 0.284 0.054 0.062 0.031 0.083 0.097 0.14 0.137 0.045 0.031 0.107 0.040 0.159 0.069 0.028 0.014 0.064 0.045 0.092 0.062 0.158 0.095 0.369 0.142 0.547 0.185 0.118 0.026 0.497 0.118 0.3-0.097-0.168-0.185-0.502-0.059-0.717-0.206-0.066-0.048-0.052-0.097-0.064-0.187-0.017-0.125-0.043-0.156-0.147-0.237-0.163-0.125-0.277-0.173-0.483-0.18-0.066-0.002-0.137 0.005-0.201-0.017-0.073-0.023-0.125-0.071-0.206-0.083-0.048-0.007-0.099-0.002-0.149-0.005-0.054-0.005-0.078-0.017-0.118-0.031 0.012-0.036 0.026-0.071 0.038-0.114 0.021-0.090 0.048-0.182 0.073-0.277 0.088-0.052 0.18-0.050 0.272-0.085 0.066-0.026 0.13-0.050 0.203-0.071 0.151-0.040 0.298-0.102 0.447-0.142 0.099 0.014 0.083 0.040 0.161 0.090 0.048 0.031 0.092 0.033 0.142 0.052-0.007 0.199 0.36 0.331 0.454 0.459 0.040 0.057 0.031 0.095 0.042 0.154 0.012 0.069 0.050 0.125 0.064 0.194 0.021 0.116-0.033 0.137-0.106 0.211 0.064-0.057 0.177-0.154 0.199-0.237s0.012-0.142 0.066-0.22c0.064-0.092 0.071-0.151 0.048-0.246 0.026 0.031 0.057 0.069 0.092 0.102-0.012-0.036-0.023-0.071-0.031-0.107-0.014-0.069-0.007-0.149-0.019-0.222-0.031-0.192-0.114-0.343-0.244-0.497-0.052-0.064-0.045-0.048-0.149-0.064-0.123-0.023-0.248-0.064-0.369-0.111 0.009 0.007 0.019 0.014 0.026 0.021 0.021 0.021 0.040 0.042 0.059 0.066-0.021-0.002-0.040-0.005-0.057-0.014-0.048-0.019-0.062-0.048-0.102-0.071-0.137-0.080-0.31-0.121-0.44-0.213-0.019-0.012-0.036-0.023-0.052-0.036 0.066 0 0.135 0.005 0.201 0.019 0.007 0.017 0.017 0.031 0.031 0.040 0.085 0.050 0.154 0.114 0.246 0.154 0.028 0.012 0.059 0.021 0.088 0.033-0.069-0.062-0.151-0.118-0.222-0.173-0.076-0.059-0.123-0.109-0.187-0.175-0.033-0.036-0.076-0.062-0.109-0.097-0.13-0.137-0.253-0.218-0.412-0.319-0.102-0.064-0.194-0.125-0.319-0.149-0.088-0.019-0.18 0.007-0.265-0.007-0.125-0.019-0.248-0.080-0.367-0.121-0.109-0.033-0.211-0.064-0.317-0.088 0.002 0 0.002-0.002 0.002-0.002 0.007-0.078-0.009-0.154-0.050-0.225-0.017-0.057-0.038-0.109-0.062-0.161 0.005-0.012 0.012-0.021 0.012-0.036 0.026-0.002 0.071 0.007 0.095-0.002 0.052-0.021 0.036-0.048 0.064-0.078 0.062-0.066 0.040-0.009 0.116 0.009 0.111 0.031 0.149-0.073 0.237-0.104 0.088-0.033 0.099 0.014 0.156 0.050 0.064 0.043 0.133 0.066 0.196 0.118 0.054 0.045 0.099 0.085 0.163 0.107 0.057 0.021 0.118 0.031 0.177 0.050 0.033 0.009 0.073 0.012 0.114 0.017-0.038-0.040-0.076-0.090-0.090-0.106-0.002-0.005-0.005-0.009-0.009-0.012 0.071 0.038 0.137 0.083 0.196 0.137-0.028-0.012-0.064-0.017-0.097-0.019 0.042 0.042 0.088 0.073 0.099 0.023 0.007 0.005 0.012 0.009 0.017 0.017-0.028-0.036-0.054-0.078-0.083-0.109-0.080-0.090-0.185-0.18-0.289-0.251-0.002 0-0.002-0.002-0.005-0.005-0.187-0.208-0.535-0.26-0.804-0.274-0.106-0.005-0.211-0.009-0.317-0.014-0.078-0.002-0.159-0.005-0.237-0.009-0.078-0.040-0.151-0.097-0.237-0.132-0.090-0.038-0.185-0.071-0.27-0.109-0.102-0.048-0.208-0.071-0.305-0.128-0.106-0.062-0.211-0.118-0.303-0.199-0.118-0.099-0.208-0.203-0.362-0.251-0.085-0.023-0.168-0.042-0.253-0.066-0.104-0.033-0.187-0.038-0.298-0.045-0.038-0.002-0.071 0-0.106 0.005-0.106-0.043-0.211-0.092-0.298-0.163-0.062-0.048-0.088-0.073-0.085-0.142-0.149-0.026-0.303-0.038-0.452-0.066-0.114-0.023-0.054-0.033-0.114-0.062-0.057-0.028-0.4-0.135-0.331-0.189-0.036-0.002-0.071 0-0.106 0-0.017-0.036-0.038-0.071-0.062-0.116-0.104-0.199-0.201-0.381-0.433-0.438-0.26-0.066-0.556-0.062-0.826-0.057-0.088 0-0.177 0.054-0.258 0.052-0.048-0.002-0.054-0.028-0.090-0.042-0.052-0.023-0.080-0.033-0.144-0.040-0.298-0.031-0.565-0.206-0.859-0.265-0.187-0.038-0.341 0.007-0.528 0.045-0.133 0.023-0.279 0.031-0.407 0.071-0.161 0.052-0.22 0.203-0.331 0.322-0.135 0.144-0.163 0.144-0.329 0.085-0.251-0.088-0.594-0.121-0.828 0.026-0.272 0.17-0.447 0.476-0.601 0.745-0.083 0.144-0.144 0.27-0.173 0.423-0.028 0.156-0.048 0.336-0.099 0.497-0.073 0.222-0.201 0.445-0.040 0.641-0.097 0.080 0.667 0.135 0.537 0.159-0.085-0.021-0.17-0.045-0.258-0.069-0.192-0.069-0.35-0.222-0.483-0.374-0.336-0.386-0.44-0.802-0.951-0.975-0.078-0.054-0.154-0.048-0.225 0.021-0.009 0.007-0.019 0.014-0.028 0.019-0.002 0-0.002 0-0.005 0-0.038-0.005-0.083-0.009-0.121-0.002-0.048 0.009-0.073 0.052-0.109 0.064-0.104 0.033-0.239-0.007-0.35-0.007-0.144-0.002-0.405 0.097-0.525 0-0.042-0.033-0.062-0.107-0.092-0.147-0.031-0.045-0.085-0.125-0.125-0.159-0.088-0.069-0.192-0.095-0.298-0.099-0.225-0.012-0.428 0.083-0.651 0.090-0.116 0.005-0.218 0.059-0.331 0.069-0.066 0.005-0.066-0.007-0.128 0.036-0.135 0.095-0.274 0.163-0.407 0.258-0.14 0.099-0.237 0.13-0.414 0.092-0.121-0.026-0.31-0.151-0.428-0.064-0.059 0.045-0.066 0.142-0.104 0.208-0.043 0.071-0.076 0.066-0.043 0.163 0.026 0.078 0.080 0.135 0.088 0.22 0.009 0.142-0.007 0.315 0.137 0.393 0.073 0.040 0.142 0.036 0.222 0.038 0.114 0.005 0.277 0.045 0.383 0.014 0.054-0.014 0.185-0.026 0.149-0.104-0.085 0.026-0.173 0.042-0.263-0.026-0.048-0.033-0.095-0.099-0.132-0.144-0.125-0.161 0.002-0.35 0.161-0.445 0.083-0.050 0.173-0.092 0.272-0.069s0.246 0.175 0.322 0.229 0.132 0.104 0.222 0.118c0.133 0.021 0.177 0.009 0.246-0.085 0.064-0.090 0.121-0.14 0.13-0.253 0.066-0.019 0.149 0 0.22 0.002 0.14 0.005 0.284 0.012 0.421 0.050 0.13 0.036 0.199 0.080 0.284 0.182 0.088 0.109 0.199 0.194 0.286 0.303 0.031 0.036 0.057 0.078 0.083 0.121-0.007 0.005-0.014 0.012-0.023 0.017-0.071-0.026-0.154-0.080-0.215-0.118-0.021-0.014-0.066-0.042-0.114-0.078 0.031 0.057 0.071 0.107 0.125 0.144 0.045 0.033 0.090 0.062 0.135 0.090-0.045 0.023-0.090 0.042-0.114 0.057-0.083 0.054-0.149 0.107-0.239 0.14-0.123 0.042-0.244 0.078-0.367 0.128-0.062 0.023-0.121 0.048-0.187 0.050-0.156 0.007-0.272 0.028-0.419 0.097-0.102 0.050-0.206 0.102-0.317 0.125-0.085 0.019-0.125 0.005-0.192 0.064-0.104 0.095-0.123 0.26-0.229 0.357-0.095 0.085-0.237 0.104-0.352 0.151-0.137 0.057-0.244 0.151-0.367 0.234-0.239 0.159-0.525 0.175-0.8 0.229-0.078 0.014-0.151 0.012-0.222 0.043-0.118 0.054-0.244 0.187-0.322 0.286-0.092 0.116-0.159 0.253-0.246 0.371-0.048 0.064-0.095 0.118-0.128 0.187-0.076 0.151-0.080 0.317-0.012 0.464 0.104 0.229 0.395 0.345 0.651 0.282z"></path>
</svg>
