<!-- Generated by IcoMoon.io -->
<svg version="1.1" xmlns="http://www.w3.org/2000/svg" width="33" height="32" viewBox="0 0 33 32">
<title>spatial_anomaly</title>
<path d="M29.753 19.182c-0.677 0.171-1.33 0.526-1.906 0.845-2.116 1.166-4.243 2.67-6.716 2.881-0.618 0.053-1.207 0.203-1.705-0.263-0.316-0.296-0.482-0.842-0.715-1.214-0.74-1.182-1.357-2.403-1.818-3.721-0.561-1.6-1.959-2.682-3.671-2.839-1.194-0.108-2.224 0.369-3.072 1.193-0.548 0.532-1.287 1.383-1.408 2.155-0.113 0.72-0.077 2.082 0.715 2.468-0.147-0.586-0.285-1.084-0.19-1.715 0.035-0.236 0.069-0.532 0.13-0.775 0.115-0.46 0.313-0.74 0.611-1.12 0.564-0.724 1.491-1.038 2.359-1.292 0.769-0.227 1.845 0.103 2.466 0.594 0.449 0.354 0.826 0.822 1.122 1.309 0.302 0.496 0.374 1.012 0.568 1.537 0.343 0.924 0.673 1.955 1.159 2.812 0.26 0.456 0.537 0.836 0.95 1.164 0.482 0.385 0.966 0.502 1.554 0.66 1.562 0.421 3.327-0.546 4.684-1.21 1.385-0.68 2.534-1.899 4.070-2.228 1.263-0.27 3.228-0.722 4.219 0.428-0.267-0.488-0.576-1.092-1.091-1.369-0.343-0.183-0.737-0.301-1.117-0.367-0.4-0.070-0.801-0.034-1.196 0.066z"></path>
<path d="M25.513 18.812c0.393-1.289 0.418-2.793-0.249-3.955-0.319-0.555-0.842-0.971-1.411-1.25-0.491-0.243-1.088-0.527-1.645-0.445-0.4 0.060-0.751 0.281-1.122 0.432-0.343 0.141-0.657 0.303-0.889 0.603-0.241 0.31-0.568 0.797-0.642 1.18-0.059 0.305 0.039 0.654 0.096 0.954 0.134 0.698 0.425 1.741 1.228 1.891 0.738 0.138 1.411-0.211 1.393-1.028-0.015 0.474-0.634 0.678-1.006 0.501-0.544-0.26-0.782-0.687-0.999-1.235-0.232-0.588-0.041-1.11 0.273-1.624 0.463-0.758 1.584-1.284 2.442-0.954 0.229 0.088 0.403 0.203 0.611 0.316 0.278 0.152 0.46 0.302 0.688 0.509 0.513 0.467 0.6 1.26 0.634 1.931 0.050 0.997-0.347 2.377-1.042 3.103-0.417 0.435-0.98 0.818-1.461 1.148 0.422 0.371 1.152-0.035 1.569-0.186 0.287-0.102 0.593-0.151 0.807-0.382 0.196-0.211 0.333-0.51 0.45-0.775 0.105-0.235 0.196-0.481 0.274-0.736z"></path>
<path d="M0.928 21.523c0.242 0.491 0.938 0.82 1.378 1.106 0.745 0.485 1.475 0.968 2.277 1.358 1.067 0.52 2.405 0.61 3.57 0.61 0.758 0 1.446 0.008 2.197-0.108 0.723-0.113 1.424-0.334 2.141-0.473 0.288-0.056 0.561-0.041 0.843-0.070 0.287-0.029 0.569-0.185 0.834-0.296 1.253-0.534 2.453-1.196 3.745-1.64 1.218-0.42 2.491-0.688 3.775-0.801 1.171-0.105 2.145-0.046 3.031-0.938-0.787 0.178-1.491 0.473-2.31 0.529-0.396 0.027-0.796-0.027-1.19 0.034-2.263 0.345-4.496 0.803-6.551 1.861-0.787 0.406-1.576 0.727-2.425 0.976-1.024 0.299-2.201 0.548-3.277 0.463-1.414-0.113-2.712-0.345-3.997-0.986-0.477-0.238-0.982-0.422-1.44-0.692-0.491-0.289-0.936-0.646-1.438-0.917-0.21-0.115-1.231-0.722-1.364-0.46-0.176 0.347 0.369 0.42 0.201 0.446z"></path>
<path d="M29.398 22.606c-0.659 0.396-1.238 1-1.867 1.387-0.362 0.222-0.75 0.351-1.147 0.495-0.754 0.271-1.48 0.639-2.263 0.822-1.807 0.422-3.591 0.267-5.31-0.399-0.785-0.305-1.523-0.557-2.261-0.976-1.075-0.608-2.197-1.215-3.354-1.643-1.281-0.475-2.401-0.54-3.742-0.368-0.768 0.099-1.378 0.52-2.059 0.86-0.901 0.448-1.792 0.924-2.604 1.522-0.397 0.292-0.828 0.572-1.291 0.748-0.407 0.154-0.758 0.39-1.164 0.54-0.799 0.296-1.621 0.344-2.463 0.207 0.415 0.117 0.751 0.319 1.199 0.317 0.487-0.001 0.943-0.043 1.406-0.194 0.757-0.248 1.294-0.642 1.954-1.105 0.93-0.653 1.92-1.159 2.931-1.659 0.993-0.491 2.224-0.716 3.327-0.663 0.4 0.021 0.842 0.021 1.228 0.13 0.425 0.122 0.617 0.442 0.986 0.646 0.449 0.246 0.933 0.421 1.354 0.717 0.648 0.457 1.506 0.871 2.273 1.082 0.758 0.208 1.499 0.491 2.264 0.671 0.912 0.215 1.894 0.256 2.833 0.288 1.105 0.039 2.176-0.020 3.256-0.259 0.903-0.2 1.91-0.552 2.703-1.040 0.569-0.353 1.148-0.75 1.667-1.172 0.376-0.309 0.964-0.834 1.508-0.657 0.613 0.199 0.585 0.947 0.421 1.424 0.22-0.28 0.46-0.309 0.513-0.709 0.048-0.364-0.059-0.621-0.288-0.884-0.28-0.322-0.576-0.572-1.039-0.502-0.35 0.053-0.668 0.19-0.971 0.372z"></path>
<path d="M2.881 19.526c0.33 0.034 0.66 0.045 0.993 0.087 0.689 0.087 1.569 0.006 2.203-0.296 0.592-0.28 1.245-0.916 1.391-1.571 0.138-0.617 0.043-1.48-0.386-1.969-0.413-0.471-0.559-1.203-1.13-1.543 0.593 0.152 1.225 0.292 1.555 0.87 0.439 0.768 0.473 1.819 0.367 2.671-0.11 0.88-0.877 1.771-1.715 2.053-0.411 0.138-0.854 0.145-1.281 0.206-0.67 0.096-1.263 0.255-1.941 0.169-0.506-0.064-1.024-0.331-1.533-0.252-0.287 0.045-0.992 0.274-1.071 0.613 0.13-0.554 0.632-1.066 1.215-1.117 0.33-0.029 0.684-0.014 1.010 0.038 0.108 0.018 0.215 0.031 0.323 0.042z"></path>
<path d="M10.801 29.038c-0.475 0.102-0.994 0.164-1.47 0.028-0.413-0.119-0.804-0.362-1.187-0.501 0.155 1.017 2.049 1.221 2.826 1.204 0.701-0.017 1.385-0.312 2.021-0.576 0.764-0.316 1.522-0.594 2.18-1.112 0.494-0.389 0.952-0.786 1.523-1.053 0.59-0.274 1.189-0.608 1.757-0.936 0.365-0.21 0.755-0.368 1.166-0.463 0.252-0.057 0.541-0.004 0.78-0.085-0.529 0.025-0.973-0.353-1.52-0.316-0.35 0.024-0.705 0.257-1.014 0.403-0.557 0.262-1.145 0.488-1.626 0.875-0.462 0.372-0.86 0.825-1.369 1.137-0.841 0.516-1.811 0.973-2.766 1.206-0.222 0.055-1.131 0.152-1.301 0.189z"></path>
<path d="M15.924 28.849c0.87-0.927 2.48-1.538 3.728-1.582 1.626-0.056 3.236 0.116 4.856 0.116 1.376 0 2.632-0.508 3.948-0.804 0.448-0.101 0.8-0.161 1.166-0.453 0.364-0.292 0.496-0.41 0.527-0.859 0.506 0.976-0.449 1.761-1.296 2.038-0.543 0.178-1.085 0.129-1.646 0.154-0.81 0.036-1.607 0.196-2.401 0.347-1.432 0.274-2.924 0.289-4.37 0.117-1.133-0.136-2.205 0.151-3.21 0.643-0.689 0.338-1.378 0.699-2.073 0.997 0.164-0.413 0.748-0.733 0.771-0.715z"></path>
<path d="M11.695 27.92c0.919 0.306 2.338-0.413 1.877-1.631-0.399-1.053-2.105-1.014-2.998-0.884-1.891 0.277-3.075 2.196-4.951 2.646-0.898 0.214-1.787 0.295-2.702 0.119-0.562-0.109-1.021-0.368-1.424-0.794-0.225-0.238-0.421-0.431-0.695-0.579-0.013-0.014-0.011-0.015 0.001-0.003 0.473 0.738 0.867 1.277 1.619 1.75 1.006 0.634 2.168 0.503 3.263 0.161 0.649-0.203 1.179-0.39 1.74-0.806 0.636-0.468 1.214-0.922 1.884-1.327 0.771-0.467 1.28-0.652 2.151-0.66 0.555-0.004 1.047-0.081 1.412 0.481 0.505 0.776-0.464 1.689-1.178 1.527z"></path>
<path d="M16.958 13.536c0.249-0.544 0.951-1.873 0.268-2.415 0.731 0.296 0.705 1.014 0.529 1.696-0.071 0.28-0.182 0.527-0.33 0.778-0.182 0.306-0.333 0.36-0.606 0.541-0.036-0.217 0.066-0.529 0.138-0.6z"></path>
<path d="M17.044 7.906c0.013 0.35-0.004 0.675 0.264 0.944 0.309-0.187 0.076-1.151-0.289-1.141-0.015 0.095-0.007 0.194 0.025 0.284z"></path>
<path d="M18.509 13.422c0.006 0.218 0.185 0.505 0.287 0.703 0.087 0.171 0.287 0.449 0.317 0.101 0.010-0.11-0.13-0.582-0.179-0.691-0.067-0.148-0.306-0.401-0.478-0.396-0.053 0.133-0.080 0.357 0.083 0.397z"></path>
<path d="M26.869 15.72c0.754-0.813 0.794-1.966 0.811-2.986 0.315 0.583 0.475 1.433 0.229 2.095-0.137 0.367-0.375 0.716-0.603 1.035-0.106 0.148-0.418 0.565-0.606 0.512 0.055-0.217 0.117-0.555 0.168-0.656z"></path>
<path d="M9.155 14.699c-0.273 0.067-0.562 0.070-0.783 0.008-0.277-0.077-0.638-0.176-0.878-0.34-0.088-0.059-0.403-0.64-0.327-0.625 0.246 0.049 0.474 0.213 0.72 0.284 0.485 0.14 1.116 0.453 1.617 0.317 0.131-0.035 0.282-0.127 0.407-0.141-0.143 0.253-0.438 0.418-0.755 0.496z"></path>
<path d="M2.944 9.211c0.179 0.14 0.295 0.372 0.503 0.475 0.218 0.109 0.418 0.007 0.179-0.225-0.066-0.063-1.024-0.517-0.682-0.25z"></path>
<path d="M29.282 13.651c0.15-0.179 1.428-1.060 1.461-0.581-0.393 0.175-0.613 0.524-1.045 0.656-0.15 0.045-0.315 0.066-0.46 0.127-0.15 0.064-0.208 0.192-0.379 0.196 0.175-0.18 0.371-0.463 0.422-0.399z"></path>
<path d="M26.065 19.167c0.178-0.334 0.333-0.701 0.517-1.020 0.155-0.27 0.368-0.442 0.453-0.752-0.001 0.224 0.087 0.482 0.036 0.708-0.050 0.222-0.217 0.453-0.331 0.648-0.215 0.362-0.537 0.567-0.793 0.866 0.050-0.159 0.085-0.466 0.117-0.449z"></path>
<path d="M18.969 17.932c-0.482-0.457-0.98-1.477-0.952-2.15-0.024-0.032-0.031-0.042-0.055-0.081 0.211 0.47 0.468 0.943 0.688 1.412 0.116 0.252 0.639 0.642 0.631 0.871-0.183 0.003-0.404-0.039-0.312-0.053z"></path>
<path d="M18.251 9.888c0.060 0.035-0.282 0.183-0.309 0.323-0.053 0.261 0.2 0.218 0.367 0.137 0.126-0.062 0.53-0.372 0.387-0.548-0.101-0.123-0.524-0.041-0.532 0.117z"></path>
<path d="M26.955 11.324c0.024 0.062 0.296 0.492 0.351 0.513 0.203 0.078 0.41-0.213 0.396-0.387-0.021-0.275-0.457-0.489-0.713-0.466-0.018 0.259 0.042 0.379 0.168 0.599z"></path>
<path d="M9.184 18.911c0.092 0.287 0.301 0.631 0.447 0.828 0.225 0.305 0.596 0.526 0.947 0.649 0.543 0.192 1.505-0.186 1.74-0.743-0.75 0.071-1.329 0.557-1.996-0.050-0.316-0.288-0.647-0.832-0.779-1.239-0.060-0.189-0.056-0.387-0.117-0.568-0.117 0.249-0.309 0.624-0.289 0.905 0.006 0.066 0.022 0.14 0.048 0.218z"></path>
<path d="M14.344 17.098c-0.124-0.025-0.414-0.199-0.533-0.088-0.227 0.213 0.228 0.399 0.382 0.432 0.151 0.034 0.45 0.106 0.467-0.085 0.017-0.207-0.33-0.291-0.46-0.316z"></path>
<path d="M6.386 12.847c-0.022-0.261-0.236-0.517-0.345-0.754-0.161-0.343-0.232-0.661-0.442-0.982-0.2-0.306-0.579-0.771-0.934-0.873 0.59-0.113 1.32 0.785 1.527 1.256 0.294 0.668 0.471 1.282 0.482 2.004-0.148-0.299-0.442-0.744-0.403-1.082z"></path>
<path d="M16.299 23.906c1.178-0.145 2.365-0.187 3.549-0.158 0.498 0.014 0.745 0.087 1.165 0.308 0.396 0.21 0.846 0.172 1.27 0.282 0.64 0.165 1.252 0.317 1.863 0.568 0.484 0.199 0.818 0.509 1.274 0.738 0.45 0.227 0.769 0.656 1.169 0.962 0.348 0.268 0.703 0.649 1 0.976 0.228 0.253 0.499 0.489 0.717 0.75 0.229 0.273 0.406 0.537 0.738 0.709 0.498 0.259 1.18 0.236 1.633 0.524-0.27 0.211-0.968 0.034-1.247-0.085-0.554-0.234-1.096-0.573-1.584-0.92-0.571-0.404-1.235-0.81-1.664-1.375-0.401-0.527-0.899-0.903-1.502-1.211-1.129-0.576-2.271-0.961-3.512-1.192-1.092-0.203-2.116-0.445-3.233-0.445-1.096 0-2.246 0.127-3.295 0.452-0.973 0.302-1.977 0.478-2.94 0.818-1.779 0.628-3.39 1.261-5.314 1.201-0.892-0.028-1.775-0.264-2.614-0.547-0.582-0.196-1.338-0.538-1.611-1.14 0.55 0.53 1.329 0.761 2.068 0.856 0.365 0.048 0.764 0.085 1.13 0.045 0.399-0.043 0.724 0.025 1.127 0.064 0.927 0.089 1.838 0.077 2.744-0.192 0.755-0.222 1.45-0.634 2.201-0.884 0.355-0.119 0.715-0.207 1.080-0.294 1.252-0.296 2.505-0.653 3.787-0.813z"></path>
<path d="M30.223 24.734c0.064 0.022 0.13 0.045 0.197 0.064 0.706 0.21 1.484-0.029 2.186-0.087-0.565 0-1.053-0.088-1.568-0.345-0.362-0.18-0.68-0.404-1.049-0.558-0.579-0.239-1.049-0.632-1.615-0.901-0.889-0.422-2.022-0.873-3.032-0.824-1.421 0.070-2.744 0.569-3.817 1.378-0.385 0.289-0.801 0.581-1.143 0.915 1.382-0.701 2.847-1.331 4.454-1.487 0.895-0.087 1.899 0.078 2.734 0.424 0.948 0.392 1.68 1.074 2.652 1.421z"></path>
<path d="M26.474 28.814c-1.484 0.338-3.049 0.222-4.554 0.178-1.835-0.053-3.54-0.267-5.243-0.997-1.098-0.47-2.158-1.078-3.11-1.805-0.417-0.319-0.817-0.773-1.368-0.818 0.45 0.478 0.903 0.954 1.396 1.375 0.48 0.41 1.004 0.779 1.502 1.162 0.291 0.225 0.606 0.345 0.891 0.575 0.268 0.217 0.618 0.462 0.936 0.6 0.394 0.171 0.838 0.238 1.249 0.347 0.441 0.116 0.864 0.294 1.315 0.376 1.179 0.214 2.4 0.021 3.587-0.039 1.215-0.063 2.494-0.242 3.692-0.468 0.786-0.148 1.545-0.294 2.296-0.564 0.529-0.189 0.936-0.552 1.485-0.698 0.508-0.133 1.094 0.115 1.555-0.048-0.231-0.362-0.954-0.324-1.32-0.32-0.621 0.010-1.102 0.231-1.671 0.448-0.422 0.159-0.806 0.331-1.246 0.435-0.46 0.108-0.93 0.158-1.392 0.263z"></path>
<path d="M5.186 28.046c-0.867-0.39-1.723-1.295-1.989-2.214-0.203-0.699-0.28-1.838 0.151-2.456 0.417-0.6 0.986-1.164 1.631-1.509 0.863-0.464 2.115-0.722 3.094-0.625-1.826 0.403-3.656 1.025-4.021 3.095-0.266 1.502 1.070 2.838 2.421 3.183 0.365 0.092 0.667 0.074 0.954 0.288 0.259 0.193 0.515 0.357 0.792 0.522 0.301 0.179 0.611 0.343 0.92 0.498 0.372 0.186 0.733 0.396 1.157 0.422 0.253 0.017 0.513-0.010 0.766 0.006-0.645 0.415-1.646 0.122-2.319-0.042-0.498-0.122-0.983-0.296-1.47-0.454-0.322-0.105-0.61-0.278-0.94-0.376-0.382-0.115-0.78-0.172-1.147-0.337z"></path>
<path d="M24.341 25.688c-0.755 0.228-1.6-0.014-2.379 0.028-0.79 0.041-1.621 0.126-2.39 0.323-0.989 0.253-2.032 0.648-2.952 1.084-0.367 0.173-0.859 0.414-1.159 0.606 0.32-0.136 0.653-0.383 0.91-0.617 0.392-0.354 0.768-0.643 1.189-0.968 0.296-0.228 0.666-0.585 1.045-0.666 0.329-0.071 0.818-0.027 1.169-0.020 0.204 0.003 0.41 0.028 0.618 0.028h0.301z"></path>
<path d="M27.587 29.912c-0.14 0.13-0.843 0-1.064 0-0.375 0-0.761 0.042-1.12-0.080-0.372-0.124-0.654-0.397-1.010-0.558-0.435-0.199-0.885-0.368-1.33-0.54-0.885-0.341-1.673-0.785-2.631-0.916-0.367-0.050-1.143-0.186-1.439-0.032 0.217-0.031 0.389-0.173 0.579-0.273 0.228-0.122 0.475-0.161 0.731-0.217 0.443-0.096 0.934-0.084 1.386-0.115 0.543-0.038 1 0.206 1.495 0.383 1.003 0.358 1.991 0.729 2.944 1.225 0.575 0.301 1.116 0.445 1.745 0.569 0.592 0.117 1.099-0.112 1.659-0.109-0.603 0.236-1.766 1.017-2.463 0.661z"></path>
<path d="M12.857 21.121c-0.15 0.115-0.294 0.089-0.436-0.032 0.124 0.006 0.309-0.199 0.383-0.284 0.067-0.077 0.263-0.329 0.248-0.435 0.043 0.308 0.073 0.548-0.194 0.751z"></path>
<path d="M11.356 27.744c-0.288-0.159-0.564-0.621-0.425-0.941-0.45 0.165-0.109 1.12 0.385 1.006 0.011-0.060-0.003-0.113-0.029-0.169z"></path>
<path d="M30.833 21.581c0.19-0.306 0.27-0.481 0.292-0.853 0.133 0.189 0.259 0.526 0.122 0.754-0.094 0.157-0.485 0.313-0.558 0.157z"></path>
<path d="M29.167 25.487c0.235-0.217 0.039-0.48-0.255-0.427-0.038 0.192 0.081 0.429 0.284 0.312z"></path>
<path d="M23.918 24.231c0.089-0.124-0.027-0.267-0.18-0.229-0.291 0.070-0.001 0.481 0.18 0.229z"></path>
<path d="M17.491 22.859c0.117-0.186-0.055-0.414-0.267-0.298-0.267 0.145 0.088 0.581 0.267 0.298z"></path>
<path d="M18.825 20.23c-0.12 0.253 0.131 0.446 0.281 0.173 0.147-0.27-0.197-0.449-0.31-0.203z"></path>
<path d="M8.512 21.466c-0.115 0.031-0.145 0.134-0.11 0.255 0.303 0.080 0.303-0.2 0.053-0.255z"></path>
<path d="M4.002 22.069c0.141-0.503-0.070-0.793-0.312-1.196 0.273 0.175 0.541 0.246 0.627 0.578 0.084 0.33-0.013 0.569-0.315 0.618z"></path>
<path d="M22.905 4.257c-0.358 0.115-0.059 0.55 0.236 0.259 0.289-0.284-0.285-0.378-0.408-0.229z"></path>
<path d="M19.86 6.355c-0.076 0.039-0.106 0.117-0.081 0.225 0.345 0.081 0.299-0.538 0.052-0.312z"></path>
<path d="M23.623 2.074c-0.011 0.060 0 0.138 0.004 0.199 0.172-0.070 0.141-0.396-0.062-0.228z"></path>
<path d="M23.249 12.56c-0.234-0.036-0.555-0.636-0.632-0.863-0.102-0.296-0.18-0.691-0.085-0.996-0.052 0.424 0.263 0.929 0.452 1.285 0.145 0.275 0.27 0.663 0.522 0.852-0.085-0.14-0.19-0.28-0.256-0.278z"></path>
<path d="M26.122 9.314c0.048 0.074 0.109 0.127 0.185 0.158 0.018-0.218-0.067-0.316-0.271-0.36z"></path>
<path d="M1.388 8.222c-0.066 0.055-0.081 0.152-0.053 0.255 0.2 0.011 0.26-0.347 0.024-0.312z"></path>
<path d="M10.609 13.335c-0.101 0.103-0.102 0.259-0.081 0.4 0.447 0.059 0.431-0.729-0.006-0.429z"></path>
<path d="M8.053 24.971c-0.185-0.003-0.574 0.089-0.659 0.26 0.303 0.106 0.622-0.094 0.913-0.15-0.070-0.14-0.331-0.173-0.484-0.11z"></path>
<path d="M24.14 26.263c-0.203 0-0.448-0.049-0.578 0.143 0.225 0.234 0.586 0.046 0.86 0.053 0.010-0.029 0.018-0.056 0.031-0.081-0.164-0.094-0.375-0.19-0.543-0.085z"></path>
<path d="M15.063 27.039c-0.246-0.144-0.505-0.38-0.807-0.225 0.098 0.46 0.674 0.475 1 0.678 0.034-0.032 0.066-0.062 0.099-0.084-0.126-0.236-0.309-0.509-0.592-0.495z"></path>
</svg>
