<!-- Generated by IcoMoon.io -->
<svg version="1.1" xmlns="http://www.w3.org/2000/svg" width="32" height="32" viewBox="0 0 32 32">
<title>spectral_realm</title>
<path d="M9.499 21.374c-0.046-0.27-0.107-0.608-0.243-0.85-0.105-0.186-0.296-0.374-0.458-0.513-0.077-0.066-0.135-0.114-0.195-0.192-0.044-0.058-0.084-0.121-0.14-0.175-0.158-0.154-0.424-0.194-0.632-0.246-0.249-0.063-0.457-0.069-0.706-0.066-0.14 0.001-0.25-0.042-0.308 0.108-0.097 0.252-0.025 0.625 0.029 0.886 0.042 0.194 0.221 0.389 0.344 0.527 0.206 0.229 0.473 0.421 0.653 0.673 0.209 0.293 0.265 0.614 0.283 0.961 0.021 0.396-0.008 0.801-0.013 1.2-0.003 0.513 0.104 1.035 0.144 1.549 0.029 0.369 0.046 0.739 0.073 1.108 0.013 0.137-0.008 0.296 0.064 0.411 0.044 0.070 0.111 0.132 0.171 0.199 0.37-0.742 0.417-1.593 0.544-2.604 0-0.199 0.8-0.601 0.8-0.8 0.033-0.087 0.060-0.175 0.087-0.265-0.162-0.257-0.27-0.521-0.331-0.847-0.067-0.353-0.107-0.71-0.167-1.065z"></path>
<path d="M24.205 19.38c-0.076 0.017-0.104 0.098-0.15 0.153-0.090 0.105-0.215 0.171-0.305 0.276-0.069 0.081-0.127 0.132-0.212 0.196-0.050 0.038-0.214 0.192-0.279 0.181-0.021-0.111-0.056-0.216-0.054-0.33 0.001-0.054 0.003-0.111 0-0.167-0.003-0.062-0.021-0.081-0.038-0.13-0.038-0.117-0.017-0.218-0.16-0.265-0.102-0.033-0.262-0.021-0.363 0.008-0.132 0.042-0.178 0.175-0.246 0.292-0.097 0.167-0.158 0.383-0.189 0.572-0.038 0.238-0.081 0.474-0.124 0.71-0.042 0.218-0.064 0.45-0.070 0.669-0.008 0.216-0.074 0.434-0.097 0.651-0.038 0.386-0.12 0.765-0.237 1.136-0.134 0.423-0.443 0.724-0.656 1.095-0.090 0.157-0.169 0.305-0.29 0.455-0.081 0.103-0.183 0.259-0.343 0.169-0.144-0.081-0.073-0.29-0.090-0.413-0.017-0.091-0.033-0.245-0.115-0.288-0.121-0.066-0.346-0.077-0.483-0.070-0.121 0.004-0.275 0.081-0.305 0.214-0.017 0.077 0.001 0.164-0.008 0.242-0.017 0.11-0.046 0.198-0.043 0.309 0.003 0.121-0.025 0.198-0.044 0.309-0.008 0.061 0.004 0.125-0.001 0.188-0.008 0.053-0.021 0.141-0.050 0.184-0.051 0.081-0.275 0.186-0.382 0.172-0.057-0.322 0.038-0.675 0.003-1.001-0.017-0.121-0.155-0.199-0.272-0.238-0.226-0.076-0.476-0.044-0.709-0.046-0.202-0.001-0.461-0.047-0.549 0.174-0.084 0.212-0.091 0.427-0.090 0.652 0 0.141 0.058 0.413-0.021 0.534-0.063 0.093-0.212 0.066-0.309 0.076-0.077 0.008-0.196 0.060-0.256 0.008-0.066-0.056-0.094-0.293-0.084-0.374 0.017-0.132 0.056-0.24 0.051-0.379-0.001-0.083-0.029-0.241-0.1-0.3-0.071-0.061-0.229-0.056-0.316-0.070-0.138-0.021-0.277-0.053-0.417-0.033-0.356 0.054-0.224 0.574-0.273 0.83-0.021 0.111-0.017 0.258-0.070 0.357-0.088 0.171-0.386 0.094-0.558 0.094-0.15 0-0.299 0.008-0.447 0.003-0.085-0.004-0.303-0.008-0.363-0.077-0.050-0.056-0.021-0.13-0.025-0.204-0.004-0.147-0.050-0.289-0.051-0.436-0.001-0.148-0.021-0.336-0.070-0.477-0.046-0.135-0.151-0.363-0.285-0.428-0.122-0.061-0.47-0.107-0.596-0.042-0.008 0.121 0 0.246 0 0.367 0 0.095 0 0.189 0 0.283 0 0.074 0.029 0.209-0.001 0.275-0.043 0.092-0.144 0.074-0.239 0.071-0.125-0.003-0.263-0.008-0.373-0.077-0.125-0.076-0.158-0.154-0.202-0.298-0.091-0.298-0.063-0.581-0.362-0.764-0.144-0.087-0.229-0.145-0.346-0.013-0.137 0.157-0.071 0.336-0.093 0.525-0.15 0.017-0.248-0.105-0.363-0.178-0.001 0-0.003-0.001-0.004-0.001-0.151 0.098-0.394 0.154-0.663 0.188 0.298 0.148 0.595 0.298 0.893 0.447-0.332 0.331-0.801 0.389-1.18 0.514 0.14 0.089 0.273 0.181 0.379 0.286 0.402 0.601-0.4 1.002-0.4 1.603-0.182-0.021-0.353-0.021-0.518-0.008 0.082 0.071 0.154 0.154 0.196 0.26 0.051 0.124 0.054 0.255 0.099 0.384 0.305 0.41 0.671 0.754 1.102 1.034 0.131 0.084 0.262 0.169 0.393 0.255 0.204 0.101 0.359 0.191 0.538 0.343 0.258 0.206 0.494 0.436 0.708 0.689 0.162 0.071 0.232 0.167 0.211 0.29 0.084-0.013 0.168-0.013 0.253-0.001 0.325-0.025 0.646-0.067 0.965-0.13 0.541-0.076 1.076-0.124 1.621-0.121 1.314 0.004 2.702 0.171 3.972-0.249 0.283-0.094 0.569-0.12 0.85-0.211 0.549-0.319 1.066-0.686 1.55-1.102 0.397-0.289 0.767-0.611 1.109-0.964 0.181-0.266 0.175-0.53 0.286-0.807 0.067-0.165 0.188-0.319 0.237-0.487 0.017-0.1 0.013-0.199-0.013-0.3-0.017-0.288-0.033-0.577-0.050-0.864-0.064-0.982-0.093-1.963-0.025-2.947 0.047-0.702-0.043-1.441 0.235-2.106 0.071-0.149 0.151-0.295 0.238-0.437 0.042-0.064 0.086-0.13 0.131-0.192 0.038-0.095 0.043-0.228 0.004-0.708z"></path>
<path d="M13.913 12.575c-0.069 0.248-0.157 0.502-0.309 0.713-0.071 0.097-0.128 0.196-0.189 0.296-0.025 0.043-0.086 0.097-0.105 0.134-0.017 0.025-0.021 0.060-0.033 0.088-0.072 0.144-0.151 0.285-0.232 0.423-0.057 0.095-0.103 0.219-0.178 0.3-0.122 0.131-0.377 0.111-0.548 0.15-0.175 0.042-0.339 0.141-0.474 0.26-0.128 0.114-0.237 0.226-0.417 0.252-0.426-0.029-0.292 0.017-0.169 0.091-0.238 0.008-0.473 0.047-0.71 0.053-0.13 0.003-0.263-0.008-0.392 0.008-0.222 0.033-0.458 0.070-0.682 0.025-0.525-0.104-1.032-0.317-1.371-0.753-0.192-0.246-0.28-0.622-0.292-0.927-0.004-0.107-0.044-0.199-0.048-0.309-0.004-0.13 0.008-0.26 0.001-0.39-0.008-0.138-0.047-0.267-0.051-0.406-0.004-0.151 0.001-0.302 0.001-0.451 0-0.137-0.013-0.283-0.001-0.42 0.021-0.248 0.205-0.527 0.387-0.685 0.255-0.222 0.477-0.43 0.79-0.562 0.218-0.092 0.414-0.205 0.622-0.313 0.117-0.061 0.309-0.135 0.437-0.155 0.14-0.021 0.306 0.004 0.448 0.004 0.406 0 0.824 0.029 1.223-0.038 0.151-0.025 0.362-0.047 0.507-0.001 0.097 0.029 0.182 0.11 0.273 0.152 0.135 0.064 0.279 0.097 0.407 0.182 0.111 0.074 0.211 0.158 0.327 0.225 0.218 0.124 0.56 0.275 0.636 0.525 0.069 0.228 0.077 0.46 0.118 0.702 0.047 0.28 0.099 0.544 0.025 0.823zM14.52 6.922c0.333-0.166 0.666-0.195 1.001-0.199l0.001-0.001c0.4-0.601-0.402-0.801-1.002-1.001 1.68-0.84 1.388-2.807 1.368-4.719-0.084-0.001-0.168-0.001-0.252 0.001-0.141 0.004-0.269 0.044-0.408 0.053-0.276 0.017-0.53 0.042-0.801 0.104-0.228 0.053-0.45 0.137-0.682 0.168-0.11 0.017-0.199 0.021-0.303 0.058-0.14 0.047-0.255 0.038-0.396 0.051-0.237 0.025-0.471 0.122-0.699 0.185-0.414 0.112-0.793 0.296-1.167 0.501-0.225 0.121-0.453 0.238-0.679 0.357-0.249 0.132-0.464 0.319-0.715 0.441-0.228 0.111-0.439 0.253-0.65 0.393-0.201 0.132-0.441 0.211-0.631 0.356-0.125 0.095-0.184 0.224-0.266 0.351-0.228 0.359-0.656 0.547-0.931 0.865-0.112 0.13-0.257 0.226-0.38 0.35-0.114 0.115-0.198 0.249-0.299 0.374-0.137 0.168-0.144 0.295-0.219 0.497-0.081 0.218-0.224 0.416-0.293 0.635-0.061 0.196-0.108 0.38-0.205 0.566-0.13 0.246-0.272 0.449-0.353 0.723-0.060 0.206-0.135 0.41-0.205 0.615-0.087 0.258-0.109 0.525-0.172 0.789-0.064 0.27-0.141 0.534-0.137 0.806 0.004 0.3-0.017 0.629-0.109 0.911-0.070 0.211-0.088 0.448-0.137 0.666-0.029 0.141-0.053 0.273-0.054 0.417-0.001 0.108-0.004 0.221-0.001 0.328 0.008 0.192 0.084 0.364 0.153 0.539 0.044 0.112 0.064 0.225 0.097 0.34 0.128 0.441 0.486 0.799 0.861 1.056 0.109 0.074 0.215 0.192 0.273 0.309 0.109 0.216 0.114 0.622 0.066 0.844-0.059 0.265-0.206 0.478-0.305 0.725-0.148 0.376-0.277 0.8-0.298 1.2-0.013 0.228-0.021 0.501 0.108 0.702 0.236 0.367 0.883 0.374 1.271 0.418 0.189 0.021 0.366 0.081 0.55 0.11 0.105 0.017 0.248-0.051 0.298 0.074 0.095-0.157 0.397-0.054 0.532-0.042 0.122 0.017 0.243 0.013 0.367 0.013 0.051 0 0.309 0.033 0.363-0.042 0.017 0.017 0.038 0.013 0.049 0.042 0.169-0.017 0.341-0.004 0.513-0.003-0.387-0.749-0.961-1.367-1.728-1.715 2.597-0.999 6.389-1.999 6.409-5.383-0.008-1.698-0.125-2.974 0.806-4.464-0.232-0.105-0.487-0.134-0.605-0.369z"></path>
<path d="M23.947 11.672c-0.033 0.137-0.128 0.282-0.147 0.424-0.013 0.093 0.025 0.201 0.004 0.29-0.017 0.064-0.044 0.115-0.061 0.186-0.043 0.185-0.186 0.337-0.228 0.524-0.049 0.208-0.087 0.417-0.143 0.629-0.085 0.334-0.115 0.681-0.178 1.018-0.025 0.125-0.056 0.235-0.097 0.354-0.029 0.087-0.097 0.195-0.105 0.283-0.061-0.337-0.208-0.289-0.364-0.272-0.49 0.050-0.999-0.013-1.493-0.013-0.638-0.001-1.35 0.077-1.92-0.276-0.198-0.121-0.402-0.25-0.608-0.353-0.182-0.091-0.357-0.192-0.542-0.276-0.063-0.029-0.155-0.051-0.208-0.094-0.137-0.11-0.239-0.336-0.292-0.5-0.071-0.216-0.097-0.447-0.135-0.669-0.043-0.253-0.066-0.475-0.004-0.724 0.044-0.189 0.132-0.34 0.226-0.513s0.185-0.329 0.259-0.508c0.057-0.138 0.114-0.286 0.189-0.413 0.155-0.267 0.303-0.675 0.557-0.873 0.318-0.249 0.666-0.275 1.051-0.275 0.11 0 0.28-0.038 0.383 0.004 0.047 0.017 0.097 0.094 0.14 0.127 0.179 0.135 0.366 0.189 0.581 0.214 0.105 0.013 0.211 0.025 0.316 0.038 0.088 0.008 0.057 0.017 0.117 0.033 0.093 0.029 0.184 0.059 0.273 0.094 0.233 0.091 0.441 0.216 0.668 0.309 0.373 0.152 0.782 0.198 1.135 0.396 0.202 0.114 0.316 0.248 0.456 0.428 0.077 0.101 0.208 0.266 0.174 0.406zM17.549 18.473c0.008 0.047 0.017 0.091 0.017 0.141-0.001 0.115-0.025 0.258 0 0.372 0.003 0.021 0.029 0.050 0.025 0.068-0.008 0.061-0.102 0.042-0.147 0.049-0.097 0.017-0.191 0.025-0.29 0.017-0.047-0.001-0.077-0.021-0.122-0.025-0.102-0.013-0.205-0.033-0.306-0.066-0.167-0.051-0.347-0.075-0.505-0.125-0.1-0.033-0.214-0.029-0.263-0.141-0.038-0.085-0.021-0.192-0.017-0.283 0.008-0.138-0.004-0.265-0.029-0.402-0.017-0.083-0.008-0.167-0.029-0.248-0.017-0.073-0.047-0.145-0.029-0.221-0.008 0.033-0.017 0.064-0.021 0.095-0.004-0.029-0.013-0.064-0.021-0.095 0.021 0.101-0.038 0.201-0.046 0.3-0.003 0.046-0.004 0.091-0.008 0.135-0.008 0.145-0.066 0.302-0.097 0.446-0.021 0.099-0.038 0.215-0.085 0.307-0.038 0.069-0.094 0.105-0.165 0.132-0.054 0.021-0.118 0.042-0.177 0.046-0.033 0.003-0.064-0.004-0.095-0.001-0.033 0.003-0.063 0.021-0.095 0.025-0.038 0.004-0.064 0.017-0.099 0.025-0.044 0.008-0.099-0.001-0.145-0.001-0.086 0-0.155 0.017-0.239 0.025-0.124 0.008-0.248 0.042-0.373 0.054-0.076 0.008-0.185 0.008-0.225-0.071-0.029-0.061-0.004-0.145 0.004-0.208 0.004-0.046 0.008-0.092 0.008-0.138-0.013-0.229 0.017-0.433 0.060-0.658 0.025-0.141 0.083-0.286 0.13-0.421 0.038-0.108 0.063-0.222 0.095-0.333 0.051-0.182 0.115-0.359 0.143-0.547 0.033-0.249 0.095-0.497 0.167-0.736 0.074-0.249 0.11-0.51 0.172-0.762 0.046-0.185 0.118-0.367 0.155-0.554 0.025-0.128 0.061-0.269 0.118-0.387 0.038-0.080 0.077-0.167 0.134-0.235 0.038-0.049 0.090-0.069 0.143-0.099 0.076-0.047 0.14-0.114 0.209-0.169 0.077-0.060 0.155-0.12 0.221-0.192 0.053-0.060 0.087-0.14 0.111-0.222 0.025 0.082 0.059 0.162 0.112 0.222 0.078 0.088 0.176 0.157 0.269 0.231 0.088 0.072 0.15 0.151 0.205 0.252 0.029 0.057 0.067 0.101 0.090 0.165 0.029 0.085 0.063 0.185 0.107 0.265 0.017 0.033 0.047 0.061 0.066 0.095 0.033 0.060 0.042 0.128 0.069 0.189 0.029 0.066 0.074 0.121 0.095 0.192 0.013 0.044 0.013 0.073 0.029 0.115 0.047 0.094 0.078 0.192 0.111 0.293 0.051 0.157 0.088 0.316 0.13 0.476 0.043 0.168 0.094 0.339 0.128 0.51 0.053 0.262 0.101 0.528 0.134 0.793 0.025 0.219 0.047 0.441 0.087 0.659 0.025 0.122 0.042 0.245 0.060 0.367 0.013 0.071 0.017 0.137 0.017 0.206 0 0.025 0.004 0.049 0.008 0.071zM26.916 12.24c-0.001-0.145-0.021-0.276-0.054-0.419-0.049-0.218-0.067-0.454-0.138-0.666-0.092-0.28-0.112-0.609-0.108-0.91 0.004-0.273-0.073-0.537-0.137-0.806-0.063-0.263-0.084-0.531-0.172-0.79-0.069-0.204-0.145-0.407-0.205-0.614-0.081-0.275-0.223-0.478-0.353-0.725-0.097-0.185-0.143-0.37-0.205-0.565-0.070-0.221-0.212-0.418-0.293-0.635-0.074-0.204-0.083-0.329-0.219-0.497-0.101-0.125-0.185-0.259-0.299-0.376-0.122-0.122-0.267-0.219-0.38-0.35-0.163-0.189-0.377-0.339-0.564-0.508-0.081-0.073-0.178-0.12-0.258-0.192-0.067-0.061-0.111-0.144-0.172-0.211-0.054-0.058-0.111-0.087-0.172-0.134-0.107-0.083-0.176-0.191-0.26-0.292-0.161-0.189-0.359-0.337-0.537-0.513-0.114-0.112-0.218-0.202-0.357-0.283-0.111-0.066-0.192-0.15-0.298-0.218-0.155-0.101-0.343-0.153-0.502-0.248-0.505-0.306-0.974-0.688-1.523-0.92-0.461-0.195-1.004-0.256-1.498-0.302-0.209-0.021-0.418-0.033-0.628-0.047-0.333 1.125-0.538 2.29-0.665 3.297-0.201 1.603-1.001 2.404-1.001 4.407 0 0.4-0.602 0.801-1.203 0.801 0.201 0.601 0.402 1.401 1.002 1.802h-0.801c-0.201 0.201 0.201 0.801 0 1.001-0.801 0.602-0.801 1.603-1.402 2.404-0.4 0.801-1.603 1.001-2.604 1.402 0.601 0.201 1.201 0.4 1.603 0.801-0.319 0.053-0.624 0.091-0.922 0.12 0.241 0.161 0.481 0.32 0.722 0.481-0.402 0-1.002-0.201-1.402 0-0.201 0.201 0.201 0.4 0.201 0.601-0.255 0.127-0.508 0.253-0.762 0.329-0.013 0.025-0.025 0.047-0.042 0.071 0 0.094-0.046 0.276-0.154 0.443 0.025 0.021 0.046 0.049 0.064 0.080 0.071 0.12 0.081 0.28 0.131 0.407 0.051 0.135 0.147 0.249 0.195 0.387 0.081 0.236 0.135 0.49 0.181 0.735 0.038 0.199 0.038 0.399 0.059 0.599 0.008 0.097 0.050 0.169 0.054 0.267 0.001 0.057-0.025 0.145 0.008 0.196 0.080 0.121 0.295 0.042 0.393 0.101 0.085 0.051 0.043 0.276 0.043 0.374 0.004 0.269-0.047 0.549-0.098 0.814-0.029 0.155-0.088 0.344-0.047 0.504 0.047 0.177 0.292 0.232 0.456 0.256 0.15 0.021 0.259 0.058 0.403 0.107 0.184 0.063 0.182-0.017 0.206-0.171 0.049-0.3 0.064-0.611 0.144-0.905 0.038-0.135 0.089-0.205 0.227-0.269 0.078-0.038 0.191-0.084 0.266-0.017 0.080 0.073 0.033 0.303 0.033 0.399 0.001 0.192-0.029 0.373-0.046 0.562-0.013 0.149-0.004 0.302-0.004 0.451-0.001 0.076-0.021 0.167-0.013 0.241 0.178 0.076 0.353 0.088 0.547 0.111 0.162 0.017 0.325 0.033 0.485 0.049 0.090 0.008 0.179 0.021 0.269 0.029 0.241-0.029 0.196-0.356 0.199-0.532 0.008-0.41 0.075-0.843 0.232-1.226 0.033 0.071 0.046 0.148 0.074 0.222 0.029 0.080 0.112 0.164 0.134 0.243 0.056 0.195 0.004 0.448 0.004 0.649 0 0.204-0.033 0.434 0.017 0.634 0.053 0.201 0.353 0.179 0.534 0.188 0.204 0.008 0.37 0.042 0.488-0.148 0.017-0.021 0.021-0.046 0.033-0.068 0.013 0.021 0.021 0.047 0.033 0.068 0.118 0.188 0.285 0.158 0.488 0.148 0.181-0.008 0.481 0.013 0.534-0.188 0.053-0.199 0.017-0.43 0.017-0.634 0-0.201-0.050-0.454 0.004-0.649 0.021-0.079 0.102-0.164 0.134-0.243 0.029-0.074 0.038-0.151 0.074-0.222 0.157 0.383 0.225 0.816 0.232 1.226 0.003 0.176-0.042 0.504 0.199 0.532 0.090-0.008 0.178-0.021 0.268-0.029l0.487-0.049c0.194-0.021 0.369-0.033 0.545-0.111 0.013-0.074-0.013-0.165-0.013-0.241 0-0.149 0.008-0.302-0.004-0.451-0.017-0.189-0.047-0.37-0.046-0.562 0-0.095-0.050-0.326 0.033-0.399 0.074-0.067 0.188-0.021 0.266 0.017 0.137 0.064 0.189 0.134 0.227 0.269 0.079 0.295 0.094 0.605 0.144 0.905 0.025 0.152 0.021 0.233 0.206 0.171 0.144-0.049 0.253-0.084 0.403-0.107 0.162-0.025 0.409-0.080 0.456-0.256 0.042-0.159-0.017-0.349-0.047-0.504-0.051-0.265-0.102-0.545-0.099-0.814 0.001-0.098-0.042-0.323 0.044-0.374 0.098-0.060 0.313 0.021 0.393-0.101 0.033-0.051 0.004-0.14 0.008-0.196 0.004-0.098 0.044-0.171 0.054-0.267 0.017-0.201 0.021-0.4 0.057-0.599 0.047-0.245 0.101-0.498 0.182-0.735 0.047-0.138 0.143-0.252 0.195-0.387 0.049-0.127 0.060-0.288 0.131-0.407 0.101-0.171 0.298-0.211 0.483-0.208 0.204 0.003 0.411-0.017 0.615 0.003 0.013-0.029 0.033-0.029 0.049-0.043 0.054 0.074 0.312 0.042 0.364 0.042 0.122 0 0.244 0.001 0.366-0.013 0.135-0.017 0.437-0.118 0.532 0.042 0.050-0.127 0.192-0.060 0.298-0.076 0.183-0.025 0.36-0.088 0.549-0.11 0.389-0.043 1.035-0.051 1.271-0.417 0.131-0.202 0.12-0.475 0.108-0.703-0.021-0.399-0.15-0.824-0.298-1.199-0.098-0.246-0.248-0.461-0.305-0.726-0.049-0.222-0.044-0.628 0.066-0.844 0.058-0.115 0.164-0.233 0.273-0.309 0.376-0.256 0.733-0.615 0.861-1.056 0.033-0.115 0.053-0.228 0.097-0.34 0.070-0.174 0.145-0.347 0.153-0.539 0.004-0.107 0-0.219-0.001-0.326z"></path>
</svg>
