<!-- Generated by IcoMoon.io -->
<svg version="1.1" xmlns="http://www.w3.org/2000/svg" width="32" height="32" viewBox="0 0 32 32">
<title>spectral_predators</title>
<path d="M20.010 21.507c-0.053-0.193-0.039-0.393-0.067-0.589-0.027-0.191-0.061-0.388-0.103-0.576-0.236-0.088-0.272 0.4-0.311 0.517-0.050 0.145-0.174 0.273-0.237 0.415-0.040 0.093-0.1 0.168-0.147 0.257-0.038 0.071-0.058 0.15-0.1 0.22-0.094 0.158-0.245 0.277-0.347 0.429-0.114 0.168-0.24 0.311-0.333 0.496-0.090 0.182-0.155 0.377-0.277 0.543-0.053 0.071-0.125 0.128-0.175 0.201-0.037 0.052-0.052 0.115-0.084 0.17-0.080 0.13-0.191 0.238-0.27 0.37-0.069 0.116-0.162 0.213-0.226 0.327-0.064 0.115-0.099 0.238-0.153 0.355-0.051 0.107-0.096 0.225-0.132 0.338-0.048 0.155-0.092 0.31-0.146 0.462-0.069 0.195-0.174 0.372-0.246 0.567-0.046 0.128-0.108 0.269-0.178 0.385-0.070 0.119-0.133 0.245-0.206 0.361-0.124 0.199-0.295 0.358-0.428 0.548-0.088 0.128-0.221 0.182-0.348 0.263-0.080 0.049-0.131 0.114-0.204 0.168-0.058 0.042-0.133 0.045-0.192 0.088-0.036 0.025-0.070 0.083-0.111 0.097-0.062 0.023-0.105-0.009-0.164-0.023-0.083-0.021-0.159-0.027-0.242-0.038-0.058-0.008-0.102-0.051-0.149-0.064-0.088-0.024-0.212-0.012-0.303-0.008-0.069 0.003-0.093 0.042-0.146 0.063-0.042 0.017-0.069 0.005-0.106 0.032-0.036 0.025-0.058 0.056-0.095 0.078-0.034 0.022-0.065 0.029-0.103 0.044-0.102 0.042-0.219 0.026-0.329 0.026-0.048 0-0.109 0.011-0.156 0.001-0.051-0.010-0.071-0.048-0.112-0.064-0.102-0.041-0.235 0.026-0.339-0.013-0.043-0.015-0.075-0.065-0.113-0.089-0.038-0.025-0.074-0.031-0.112-0.063-0.079-0.069-0.087-0.063-0.176-0.083-0.021-0.004-0.102-0.024-0.12-0.033-0.109-0.065-0.245-0.176-0.339-0.272-0.097-0.097-0.189-0.194-0.251-0.32-0.020-0.042-0.030-0.083-0.056-0.119-0.012-0.018-0.032-0.023-0.044-0.039-0.026-0.038-0.021-0.1-0.043-0.141-0.058-0.113-0.13-0.195-0.16-0.325-0.019-0.081-0.031-0.158-0.045-0.239-0.019-0.109-0.046-0.238-0.101-0.335-0.050-0.089-0.060-0.157-0.077-0.257-0.021-0.125-0.063-0.227-0.062-0.355 0.001-0.091 0-0.184 0-0.276v-0.424c0-0.080 0.017-0.182-0.001-0.259-0.018-0.078-0.063-0.13-0.069-0.21-0.009-0.141-0.082-0.265-0.165-0.384-0.071-0.102-0.162-0.194-0.241-0.283-0.081-0.092-0.146-0.178-0.258-0.234-0.133-0.066-0.27-0.002-0.409-0.039-0.087-0.023-0.182-0.070-0.269-0.097-0.076-0.024-0.136-0.065-0.204-0.105-0.127-0.071-0.257-0.108-0.368-0.207-0.087-0.080-0.149-0.177-0.233-0.258-0.072-0.069-0.125-0.138-0.171-0.227-0.050-0.096-0.127-0.179-0.168-0.279-0.048-0.113-0.072-0.234-0.126-0.345-0.052-0.107-0.097-0.199-0.132-0.313-0.028-0.097-0.074-0.187-0.088-0.289-0.021-0.143-0.005-0.292-0.008-0.436-0.002-0.278 0.070-0.559 0.027-0.837-0.018-0.108-0.048-0.191-0.057-0.29-0.017-0.046-0.019-0.090 0.004-0.131 0.013-0.080 0.043-0.16 0.056-0.244 0.018-0.114 0.082-0.215 0.101-0.33 0.004-0.033-0.012-0.122 0.003-0.15 0.024-0.043 0.029-0.025 0.071-0.031 0.068-0.011 0.108 0.018 0.165 0.043 0.13 0.057 0.267 0.069 0.417 0.062 0.183-0.009 0.347-0.116 0.54-0.106 0.109 0.006 0.209 0.037 0.32 0.036 0.105 0 0.223-0.013 0.326 0.001 0.178 0.027 0.335 0.157 0.481 0.253 0.136 0.089 0.309 0.176 0.414 0.299 0.061 0.070 0.139 0.156 0.169 0.246 0.034 0.106 0.017 0.27-0.012 0.376-0.052 0.191-0.185 0.282-0.377 0.309-0.158 0.023-0.342 0.013-0.493-0.043-0.092-0.034-0.194-0.093-0.257-0.169-0.003-0.005-0.011-0.017-0.017-0.029 0.069-0.001 0.138-0.002 0.206-0.002 0.087 0 0.183 0.012 0.269 0 0.069-0.009 0.127-0.077 0.198-0.081 0-0.044 0.037-0.082 0.080-0.096-0.051 0.001-0.101 0.005-0.152 0.019-0.1 0.026-0.226 0.004-0.33 0.004-0.112 0.001-0.228-0.013-0.333-0.051-0.113-0.040-0.218-0.099-0.33-0.139-0.159-0.058-0.314-0.141-0.421-0.269-0.056-0.068-0.117-0.128-0.176-0.19-0.017-0.018-0.053-0.058-0.063-0.080-0.017-0.036 0.005-0.074-0.049-0.084-0.020 0.073-0.010 0.187 0.009 0.253 0.011 0.040 0.002 0.083 0.012 0.127 0.009 0.045 0.038 0.087 0.058 0.127 0.051 0.105 0.14 0.158 0.235 0.216 0.055 0.032 0.097 0.080 0.157 0.102 0.039 0.015 0.081 0.020 0.12 0.038 0.018 0.009 0.053 0.038 0.073 0.045 0.053 0.022 0.118 0.026 0.174 0.032 0.052 0.004 0.101 0.023 0.153 0.025 0.005 0.001 0.012 0 0.018 0.001-0.005 0.058-0.010 0.12-0.015 0.169-0.016 0.125 0.036 0.26 0.1 0.362 0.153 0.242 0.438 0.503 0.732 0.543 0.137 0.019 0.316 0.024 0.447-0.026 0.105-0.039 0.165-0.128 0.235-0.212 0.151-0.181 0.286-0.402 0.314-0.639 0.032-0.273 0.003-0.55-0.081-0.809-0.078-0.241-0.106-0.497-0.285-0.687-0.127-0.134-0.25-0.264-0.404-0.366-0.174-0.115-0.316-0.264-0.48-0.391-0.147-0.115-0.314-0.207-0.479-0.297s-0.3-0.105-0.486-0.105c-0.187-0.001-0.329 0.005-0.484 0.122-0.118 0.088-0.23 0.192-0.314 0.315-0.124 0.179-0.119 0.384-0.199 0.579-0.024 0.060-0.024 0.1-0.095 0.094-0.032-0.002-0.081-0.034-0.105-0.055-0.061-0.055-0.081-0.155-0.106-0.229-0.050-0.153-0.132-0.29-0.164-0.449-0.032-0.158-0.062-0.316-0.095-0.474-0.038-0.178-0.109-0.349-0.15-0.528-0.053-0.231-0.153-0.445-0.21-0.672-0.036-0.14-0.024-0.279-0.067-0.42-0.118-0.385-0.225-0.768-0.386-1.137-0.076-0.176-0.157-0.342-0.259-0.503-0.082-0.128-0.136-0.266-0.207-0.401-0.187-0.349-0.449-0.651-0.627-1.004-0.119-0.236-0.283-0.446-0.416-0.674-0.126-0.214-0.215-0.448-0.323-0.671-0.307-0.636-0.598-1.278-0.913-1.909-0.196-0.392-0.316-0.824-0.448-1.24-0.069-0.218-0.146-0.437-0.19-0.662 0.017 0.46 0.166 0.906 0.175 1.368 0.006 0.273 0.090 0.522 0.109 0.791 0.019 0.264 0.058 0.524 0.101 0.784 0.051 0.31 0.119 0.611 0.247 0.899 0.074 0.162 0.146 0.324 0.2 0.493 0.034 0.108 0.071 0.223 0.125 0.324 0.115 0.213 0.292 0.39 0.415 0.599 0.053 0.095 0.096 0.188 0.144 0.285 0.097 0.208 0.271 0.355 0.403 0.541 0.116 0.165 0.19 0.354 0.311 0.519 0.106 0.143 0.221 0.271 0.347 0.396 0.116 0.115 0.266 0.21 0.342 0.358 0.073 0.141 0.105 0.305 0.106 0.463 0.002 0.311-0.102 0.541-0.289 0.776-0.247 0.315-0.335 0.682-0.302 1.079 0.017 0.2 0.007 0.474 0.121 0.647 0.106 0.162 0.238 0.36 0.379 0.493 0.057 0.055 0.111 0.133 0.179 0.171 0.061 0.032 0.131 0.044 0.193 0.082 0.090 0.055 0.191 0.127 0.267 0.2 0.093 0.089 0.221 0.102 0.279 0.21 0.032 0.061 0.045 0.127 0.061 0.197 0.026 0.128 0.002 0.263-0.037 0.385-0.033 0.103-0.034 0.213-0.068 0.318-0.032 0.101-0.062 0.166-0.063 0.277-0.002 0.118 0.006 0.232 0.019 0.348 0.029 0.256-0.031 0.547 0.046 0.794 0.087 0.273 0.311 0.475 0.427 0.733 0.062 0.14 0.149 0.233 0.244 0.354 0.087 0.111 0.135 0.271 0.246 0.361 0.153 0.125 0.399 0.187 0.589 0.227 0.103 0.023 0.153 0.031 0.237 0.095 0.113 0.089 0.202 0.151 0.345 0.179 0.171 0.033 0.363 0.112 0.487 0.235 0.105 0.103 0.301 0.226 0.307 0.381 0.004 0.121 0.049 0.219 0.065 0.336 0.015 0.107 0.033 0.209 0.052 0.315 0.018 0.102 0.020 0.204 0.040 0.305 0.021 0.099 0.049 0.196 0.068 0.296 0.036 0.194 0.070 0.391 0.121 0.582 0.039 0.146 0.032 0.289 0.084 0.434 0.124 0.339 0.294 0.659 0.505 0.948 0.093 0.128 0.152 0.278 0.241 0.41 0.078 0.114 0.172 0.226 0.26 0.333 0.075 0.092 0.159 0.203 0.269 0.257 0.076 0.037 0.165 0.087 0.241 0.111 0.067 0.020 0.067 0.008 0.117 0.057 0.030 0.029 0.051 0.067 0.084 0.093 0.043 0.034 0.086 0.050 0.137 0.065 0.082 0.026 0.216 0.075 0.272 0.144 0.048 0.058 0.080 0.194 0.102 0.264 0.019 0.059 0.024 0.126 0.050 0.184 0.053 0.122 0.175 0.242 0.27 0.335 0.141 0.138 0.267 0.288 0.414 0.42 0.076 0.069 0.152 0.064 0.242 0.096 0.092 0.032 0.156 0.113 0.246 0.141-0.012-0.037-0.048-0.073-0.069-0.107-0.051-0.083-0.082-0.159-0.106-0.253-0.028-0.111-0.077-0.222-0.099-0.334-0.015-0.075-0.003-0.151-0.009-0.227 0.014 0.124 0.080 0.257 0.16 0.352 0.058 0.069 0.193 0.191 0.291 0.188-0.001-0.087-0.064-0.169-0.069-0.26-0.003-0.071 0.002-0.144 0-0.216 0.042 0.133 0.079 0.22 0.156 0.336 0.059 0.089 0.246 0.219 0.365 0.172 0.003-0.045-0.048-0.093-0.069-0.131-0.037-0.064-0.051-0.124-0.071-0.193-0.027-0.099-0.060-0.218-0.025-0.319 0.027 0.070 0.048 0.141 0.075 0.213 0.025 0.063 0.026 0.151 0.071 0.204 0.044 0.055 0.108 0.056 0.165 0.096 0.051 0.036 0.092 0.111 0.163 0.096 0.038-0.128-0.082-0.228-0.102-0.343-0.024-0.127 0.008-0.275 0-0.404 0.038 0.031 0.026 0.055 0.043 0.099 0.026 0.073 0.083 0.113 0.132 0.169 0.089 0.102 0.17 0.327 0.344 0.305 0.023-0.067-0.023-0.107-0.033-0.17-0.008-0.043 0.002-0.095 0.001-0.139 0-0.071-0.004-0.137 0.019-0.206 0.027-0.078 0.093-0.147 0.084-0.233 0.027 0.029 0.042 0.058 0.061 0.092 0.033 0.057 0.074 0.090 0.115 0.14 0.033 0.040 0.052 0.088 0.083 0.128 0.038 0.050 0.085 0.082 0.115 0.138 0.036-0.069-0.039-0.196-0.062-0.265-0.042-0.125-0.030-0.244-0.037-0.372 0.032 0.053 0.025 0.094 0.039 0.15 0.014 0.053 0.056 0.084 0.084 0.132 0.021 0.034 0.023 0.082 0.049 0.115 0.027 0.037 0.071 0.048 0.101 0.078 0.033 0.033 0.051 0.103 0.103 0.1 0.029-0.106-0.026-0.203-0.029-0.309-0.001-0.090-0.001-0.175 0.018-0.262 0.057-0.273 0.106-0.538 0.164-0.812 0.050 0.011 0.124 0.175 0.147 0.225 0.042 0.084 0.102 0.178 0.172 0.239 0.062 0.053 0.156 0.084 0.227 0.124 0.088 0.048 0.15 0.127 0.238 0.175 0.102 0.055 0.213 0.074 0.32 0.111 0.061 0.021 0.1 0.081 0.157 0.096-0.036-0.155-0.165-0.285-0.231-0.431-0.049-0.107-0.115-0.209-0.174-0.314-0.048-0.087-0.071-0.18-0.112-0.264-0.046-0.099-0.069-0.206-0.094-0.307-0.021-0.087-0.062-0.171-0.071-0.26-0.011-0.080-0.004-0.144-0.026-0.22-0.080-0.285 0.138-0.468 0.219-0.715 0.017-0.051 0.023-0.105 0.047-0.153 0.037-0.076 0.093-0.137 0.13-0.213 0.082-0.175 0.109-0.359 0.185-0.535 0.050-0.114 0.087-0.222 0.152-0.329 0.046-0.077 0.084-0.16 0.125-0.241 0.075-0.156 0.178-0.296 0.259-0.45 0.052-0.101 0.121-0.191 0.195-0.277 0.074-0.087 0.134-0.19 0.213-0.272 0.061-0.064 0.138-0.115 0.2-0.178 0.093-0.094 0.183-0.189 0.28-0.278 0.227-0.208 0.488-0.409 0.681-0.652 0.102-0.13 0.164-0.289 0.283-0.405 0.030-0.029 0.062-0.044 0.074-0.083 0.024-0.076-0.010-0.181-0.027-0.252-0.034-0.13-0.086-0.25-0.122-0.381z"></path>
<path d="M18.184 15.633c-0.125 0.025-0.238 0.026-0.365 0.027-0.090 0-0.207-0.021-0.293 0.005-0.057 0.017-0.119 0.071-0.174 0.097-0.073 0.036-0.132 0.081-0.201 0.124-0.115 0.072-0.234 0.133-0.355 0.196-0.070 0.037-0.109 0.074-0.164 0.125-0.068 0.061-0.146 0.101-0.215 0.16-0.114 0.102-0.235 0.191-0.345 0.296-0.124 0.119-0.271 0.209-0.377 0.348-0.019 0.025-0.034 0.045-0.051 0.064l0.183-0.342c-0.112 0.111-0.317 0.248-0.347 0.418-0.008 0.044-0.011 0.089-0.014 0.133-0.044 0.087-0.093 0.174-0.128 0.26-0.024 0.058-0.029 0.089-0.030 0.158l0.138-0.258c-0.031 0.16-0.034 0.303-0.034 0.466 0 0.125-0.004 0.249 0 0.373 0.003 0.089 0.037 0.137 0.077 0.215 0.087 0.164 0.127 0.332 0.304 0.427 0.063 0.033 0.106 0.1 0.172 0.121 0.036 0.012 0.069 0.003 0.105 0.014 0.038 0.011 0.068 0.044 0.105 0.056 0.111 0.033 0.308 0.021 0.423 0.009 0.076-0.009 0.17-0.037 0.242-0.062 0.088-0.031 0.165-0.039 0.252-0.061 0.152-0.037 0.291-0.133 0.416-0.226 0.097-0.071 0.146-0.152 0.223-0.242 0.050-0.058 0.232-0.176 0.168-0.276-0.027 0.008-0.055 0.083-0.087 0.112-0.076 0.065-0.162 0.128-0.246 0.183-0.097 0.064-0.195 0.124-0.29 0.189-0.096 0.065-0.221 0.131-0.339 0.14-0.193 0.014-0.396 0-0.591-0.002-0.162-0.001-0.206-0.096-0.207-0.241-0.001-0.094 0.042-0.147 0.062-0.235 0.014-0.061 0-0.12 0.014-0.181 0.030-0.126 0.056-0.269 0.128-0.38 0.099-0.151 0.242-0.267 0.409-0.34 0.084-0.036 0.177-0.050 0.26-0.084 0.081-0.033 0.155-0.084 0.242-0.099 0.215-0.032 0.43 0.042 0.643-0.040 0.12-0.045 0.178-0.069 0.313-0.062 0.065 0.003 0.146 0.010 0.207 0.043 0.138 0.076 0.121 0.253 0.144 0.383 0.013 0.073 0.045 0.081 0.030 0.156-0.003 0.014-0.025 0.037-0.029 0.058-0.004 0.026 0 0.061 0.001 0.088 0.002 0.171-0.106 0.29-0.139 0.452-0.012 0.055-0.014 0.124-0.033 0.175-0.020 0.051-0.073 0.080-0.106 0.127-0.045 0.065-0.074 0.145-0.111 0.215-0.014 0.027-0.034 0.074-0.053 0.1-0.020 0.030-0.051 0.044-0.070 0.074-0.031 0.045-0.043 0.1-0.084 0.14-0.055 0.053-0.128 0.069-0.201 0.095-0.103 0.039-0.208 0.057-0.314 0.087-0.057 0.015-0.112 0.047-0.17 0.062-0.156 0.036-0.288 0.068-0.45 0.068-0.176 0.001-0.354 0.013-0.521-0.026-0.058-0.014-0.116 0.005-0.172-0.005-0.053-0.011-0.087-0.056-0.132-0.068-0.027 0.055 0.018 0.138 0.044 0.188 0.025 0.050 0.068 0.080 0.105 0.12 0.055 0.061 0.078 0.135 0.139 0.189 0.026 0.023 0.063 0.037 0.087 0.061 0.030 0.031 0.038 0.069 0.068 0.099 0.115 0.118 0.269 0.235 0.442 0.242 0.090 0.002 0.197 0.012 0.286 0 0.093-0.012 0.185-0.046 0.277-0.063 0.105-0.019 0.154-0.001 0.244-0.069 0.063-0.047 0.107-0.085 0.181-0.12 0.062-0.030 0.108-0.064 0.163-0.103 0.073-0.053 0.158-0.087 0.238-0.132 0.137-0.078 0.204-0.196 0.241-0.346 0.018-0.073-0.003-0.146 0.011-0.219 0.005-0.027 0.027-0.027 0.034-0.056 0.009-0.042-0.004-0.088 0.004-0.132 0.010-0.051 0.044-0.096 0.056-0.146 0.012-0.056 0.008-0.112 0.005-0.169-0.001-0.067 0.002-0.121 0.041-0.18 0.114-0.17 0.295-0.263 0.428-0.415 0.053-0.061 0.101-0.136 0.156-0.199 0.031-0.037 0.063-0.073 0.087-0.114 0.051-0.087 0.097-0.189 0.13-0.285 0.068-0.207 0.13-0.464 0.087-0.683-0.021-0.107-0.005-0.234-0.068-0.319-0.069-0.093-0.103-0.19-0.165-0.288-0.058-0.093-0.132-0.148-0.208-0.225-0.080-0.080-0.145-0.156-0.245-0.209-0.131-0.071-0.23-0.158-0.374-0.21-0.101-0.038-0.21-0.046-0.317-0.025z"></path>
<path d="M12.465 25.908c0.010 0.044 0.032 0.061 0.037 0.109 0.012 0.101 0.015 0.197 0.050 0.295 0.037 0.101 0.103 0.196 0.149 0.293 0.037 0.082 0.088 0.107 0.14 0.175 0.033 0.042 0.047 0.094 0.076 0.139 0.039 0.063 0.195 0.158 0.174 0.241l0.070-0.554c-0.018 0.36 0.404 0.383 0.675 0.348 0.056-0.009 0.105-0.038 0.156-0.055 0.043-0.013 0.101-0.011 0.14-0.032 0.026-0.015 0.068-0.065 0.089-0.087 0.046-0.049 0.042-0.082 0.073-0.141 0.031-0.062 0.088-0.077 0.124-0.137 0.033-0.056 0.063-0.118 0.095-0.174 0.067-0.115 0.105-0.246 0.103-0.381-0.002-0.263 0.023-0.54-0.043-0.789-0.014-0.053-0.057-0.108-0.063-0.172s-0.012-0.080-0.029-0.136c-0.034-0.114-0.076-0.247-0.074-0.366 0.002-0.131-0.033-0.259-0.079-0.38-0.048-0.124-0.070-0.259-0.13-0.373-0.079-0.15-0.163-0.569-0.347-0.264-0.033 0.056-0.036 0.075-0.034 0.143 0.001 0.067-0.012 0.096-0.026 0.155-0.024 0.094-0.056 0.182-0.078 0.277-0.032 0.131-0.045 0.269-0.068 0.401-0.020 0.12-0.052 0.24-0.071 0.361-0.023 0.137 0.003 0.262-0.033 0.398-0.019 0.073-0.042 0.147-0.077 0.219-0.036 0.069-0.069 0.182-0.166 0.184-0.075 0.001-0.067-0.020-0.068-0.089-0.002-0.050-0.008-0.108-0.001-0.157 0.010-0.078 0.043-0.168 0.069-0.241 0.037-0.102 0.036-0.185 0.036-0.295v-0.675c0-0.15 0.025-0.322-0.002-0.468-0.019-0.096-0.032-0.201-0.136-0.122-0.080 0.061-0.111 0.175-0.147 0.27-0.036 0.095-0.080 0.19-0.097 0.294-0.013 0.078-0.002 0.12-0.043 0.192-0.018 0.033-0.039 0.070-0.051 0.109-0.030 0.112-0.029 0.228-0.077 0.332-0.049 0.102-0.102 0.19-0.147 0.292-0.026 0.057-0.042 0.119-0.069 0.176-0.030 0.062-0.081 0.12-0.094 0.187-0.020 0.102-0.001 0.227-0.001 0.332 0 0.051-0.013 0.12-0.002 0.168z"></path>
<path d="M9.131 11.908c0.008 0.27 0.107 0.534 0.16 0.797 0.050 0.24 0.101 0.485 0.204 0.708 0.176 0.385 0.41 0.732 0.663 1.067 0.182 0.24 0.349 0.498 0.555 0.719 0.194 0.207 0.435 0.345 0.635 0.547 0.16 0.164 0.325 0.322 0.474 0.496 0.076 0.089 0.146 0.238 0.285 0.218l-0.050-0.001c-0.262-0.497-0.358-0.625-0.416-0.71-0.086-0.126-0.169-0.234-0.264-0.357-0.097-0.125-0.244-0.228-0.33-0.352-0.076-0.108-0.113-0.254-0.182-0.358-0.197-0.299-0.433-0.625-0.531-0.992-0.038-0.144-0.069-0.843 0.046-0.862 0.049 0.184 0.045 0.223 0.176 0.37 0.077 0.088 0.226 0.327 0.358 0.335 0.24 0.017 0.276-0.456 0.273-0.631-0.003-0.284 0.031-0.514 0.097-0.773 0.064-0.249 0.302-0.428 0.436-0.652 0.113-0.188 0.218-0.377 0.316-0.57 0.137-0.269 0.118-0.56 0.195-0.853 0.025-0.095 0.169-0.342-0.046-0.311-0.038 0.004-0.239 0.209-0.286 0.253-0.068 0.065-0.201 0.191-0.231 0.273-0.028 0.077-0.004 0.166-0.024 0.249-0.012 0.046-0.050 0.055-0.062 0.093-0.017-0.108-0.141-0.213-0.163-0.313-0.031-0.141-0.023-0.267-0.073-0.402-0.039-0.105-0.14-0.201-0.164-0.309-0.032-0.141-0.004-0.355 0.021-0.496 0.085-0.456 0.227-0.975 0.462-1.381 0.2-0.344 0.327-0.65 0.475-1.016 0.12-0.3 0.332-0.62 0.314-0.956-0.218 0.2-0.443 0.374-0.652 0.582-0.234 0.232-0.523 0.384-0.695 0.671-0.144 0.24-0.378 0.439-0.477 0.7-0.080 0.21-0.027 0.423-0.094 0.619-0.128-0.027-0.076-0.666-0.044-0.788 0.052-0.202 0.137-0.44 0.237-0.624 0.165-0.305 0.292-0.579 0.387-0.91 0.012-0.040 0.052-0.045 0.063-0.088 0.014-0.064-0.012-0.133 0.002-0.195 0.020-0.090 0.127-0.115 0.069-0.223-0.12 0.031-0.252 0.176-0.341 0.266-0.139 0.141-0.326 0.245-0.44 0.408-0.107 0.155-0.144 0.343-0.248 0.5-0.081 0.12-0.177 0.225-0.245 0.355-0.178 0.338-0.361 0.704-0.518 1.049-0.084 0.187-0.087 0.372-0.138 0.566-0.044 0.165-0.128 0.311-0.174 0.474-0.102 0.364-0.097 0.745-0.095 1.118 0.003 0.57 0.062 1.12 0.076 1.686z"></path>
<path d="M13.82 8.994c0.097 0.137 0.216 0.273 0.292 0.437 0.15 0.326 0.118 0.651 0.118 1.004 0.040-0.044 0.068-0.075 0.088-0.095-0.004 0.003-0.009 0.009-0.014 0.012 0.026-0.078 0.063-0.159 0.069-0.246 0.196-0.062 0.465-0.011 0.674-0.011h0.474c0.158 0 0.317-0.003 0.475 0 0.216 0.004 0.195-0.028 0.203-0.238 0.006-0.159 0.070-0.256 0.069-0.427-0.001-0.163 0-0.327 0-0.491 0-0.133 0.039-0.352 0.003-0.479-0.011-0.036-0.046-0.103-0.087-0.12-0.099-0.039-0.084 0.032-0.162 0.050-0.207 0.046-0.578 0.201-0.708-0.061-0.057-0.115-0.049-0.215-0.15-0.322-0.099-0.105-0.16-0.192-0.238-0.31-0.059-0.089-0.159-0.171-0.207-0.267-0.068-0.133-0.092-0.265-0.169-0.391-0.058-0.095-0.166-0.229-0.19-0.338-0.015-0.068 0.021-0.144 0.008-0.212-0.015-0.075-0.091-0.094-0.070-0.183-0.081 0.272-0.172 0.537-0.273 0.802-0.075 0.195-0.214 0.434-0.257 0.623-0.032 0.145-0.042 0.252-0.1 0.391-0.055 0.133-0.081 0.328-0.055 0.477 0.021 0.117 0.141 0.303 0.206 0.393z"></path>
<path d="M15.574 6.227c0.101 0.13 0.155 0.259 0.219 0.408 0.051 0.12 0.12 0.204 0.138 0.335 0.014 0.108 0.010 0.236 0.001 0.354-0.285-0.239-0.282-0.168-0.276 0.021 0.006 0.166 0.009 0.165 0.17 0.17 0.277 0.008 0.456-0.017 0.686 0.164 0.147 0.115 0.289 0.253 0.423 0.379 0.081 0.075 0.089 0.201 0.147 0.277 0.128 0.165 0.257-0.184 0.286-0.333 0.038-0.010 0.076-0.019 0.115-0.027-0.092-0.195-0.182-0.424-0.29-0.625-0.117-0.214-0.147-0.446-0.214-0.682-0.053-0.188 0.034-0.436-0.037-0.608-0.076-0.182-0.219-0.145-0.372-0.173-0.139-0.025-0.309-0.196-0.358-0.338-0.044-0.128-0.012-0.265-0.062-0.398-0.039-0.105-0.061-0.182-0.085-0.285-0.023-0.1-0.064-0.169-0.071-0.272-0.005-0.106 0.023-0.221 0.005-0.325-0.017-0.105-0.069-0.179-0.074-0.286-0.003-0.078 0.036-0.177-0.050-0.201-0.040 0.111-0.050 0.226-0.1 0.336-0.048 0.105-0.115 0.198-0.157 0.309-0.057 0.152-0.101 0.237-0.1 0.404 0.001 0.076 0.012 0.164 0.002 0.239-0.011 0.079-0.052 0.112-0.064 0.175-0.027 0.146-0.005 0.319-0.005 0.469 0 0.219-0.017 0.335 0.121 0.513z"></path>
<path d="M16.931 3.518c0.047 0.111 0.080 0.219 0.135 0.326 0.158 0.305 0.086 0.725 0.086 1.065v-0.045c-0.017-0.002-0.030-0.005-0.043-0.008 0.046 0.062 0.077 0.158 0.107 0.208 0.086 0.144 0.201 0.279 0.279 0.431 0.119 0.231 0.187 0.373 0.408 0.506 0.1 0.059 0.278 0.27 0.408 0.227 0.164-0.055 0.032-0.447 0.011-0.566-0.050-0.285 0.049-0.51 0.055-0.786 0.004-0.185 0.001-0.373-0.001-0.557-0.002-0.101 0.012-0.186-0.048-0.276-0.058-0.083-0.137-0.082-0.209-0.146-0.131-0.114-0.207-0.304-0.266-0.459-0.084-0.216-0.203-0.443-0.359-0.613-0.152-0.166-0.297-0.395-0.346-0.608-0.014-0.067 0.061-0.219-0.064-0.218-0.101 0-0.069 0.145-0.082 0.212-0.045 0.213-0.097 0.485-0.189 0.685-0.068 0.146-0.112 0.273-0.019 0.423 0.049 0.076 0.099 0.106 0.138 0.198z"></path>
<path d="M18.654 3.443c-0.017 0.181 0.138 0.309 0.183 0.468 0.036 0.122 0.046 0.213 0.097 0.333 0.034 0.084 0.092 0.436 0.183 0.478 0.139 0.062 0.239-0.229 0.303-0.303 0.112-0.131 0.481-0.233 0.454-0.441-0.009-0.063-0.062-0.069-0.076-0.131-0.012-0.052 0.010-0.113-0.002-0.168-0.017-0.077-0.093-0.196-0.13-0.277-0.13-0.286-0.265-0.566-0.392-0.853-0.042-0.091-0.064-0.182-0.118-0.269-0.083-0.133-0.062-0.135-0.238-0.135-0.159 0-0.188-0.026-0.206 0.134-0.013 0.121-0.015 0.29 0.013 0.405 0.049 0.197 0.127 0.308 0.125 0.513-0.002 0.125 0 0.25 0 0.374l-0.068-0.137c-0.045-0.012-0.088-0.010-0.13 0.008z"></path>
<path d="M28.571 14.578c-0.023-0.32-0.152-0.632-0.192-0.951-0.020-0.164-0.005-0.32-0.077-0.474-0.094-0.201-0.153-0.392-0.226-0.6-0.095-0.272-0.266-0.503-0.392-0.758-0.16-0.322-0.271-0.675-0.474-0.971-0.103-0.152-0.188-0.304-0.286-0.456-0.136-0.211-0.342-0.328-0.43-0.581-0.12-0.342-0.355-0.655-0.676-0.849-0.403-0.241-0.714-0.080-1.127 0.036-0.13 0.037-0.257 0.051-0.365 0.134-0.1 0.077-0.191 0.164-0.292 0.24-0.085 0.066-0.202 0.13-0.277 0.203-0.090 0.087-0.103 0.201-0.179 0.301-0.063 0.084-0.185 0.144-0.228 0.241-0.049 0.108-0.038 0.228-0.095 0.341-0.050 0.097-0.096 0.227-0.162 0.313-0.053 0.069-0.121 0.090-0.164 0.162-0.083 0.137-0.183 0.4-0.208 0.56-0.042 0.277 0.14 0.534 0.257 0.603-0.017 0.013-0.026 0.034-0.039 0.057-0.075 0.125-0.175 0.216-0.282 0.314-0.149 0.132-0.294 0.285-0.42 0.438-0.194 0.238-0.529 0.512-0.864 0.422-0.103-0.027-0.069-0.133-0.070-0.223 0-0.081-0.026-0.216 0.006-0.291 0.019-0.045 0.065-0.063 0.099-0.094 0.075-0.066 0.087-0.166 0.158-0.235 0.053-0.052 0.12-0.069 0.157-0.137 0.044-0.081 0.017-0.179 0.050-0.262 0.073-0.183 0.241-0.302 0.357-0.452 0.058-0.075 0.059-0.152 0.083-0.239 0.021-0.072 0.061-0.135 0.078-0.21 0.061-0.247 0.127-0.47 0.121-0.727-0.003-0.17 0.042-0.355 0.12-0.506 0.065-0.127 0.132-0.271 0.234-0.37 0.070-0.068 0.097-0.133 0.147-0.215 0.045-0.075 0.112-0.137 0.17-0.201 0.13-0.139 0.288-0.265 0.437-0.382 0.156-0.122 0.247-0.292 0.372-0.442 0.174-0.209 0.311-0.44 0.408-0.694 0.089-0.233 0.191-0.454 0.267-0.69 0.068-0.207 0.060-0.42 0.122-0.627 0.020-0.064 0.034-0.133 0.044-0.2 0.005-0.043 0.032-0.102 0.030-0.141-0.071-0.019-0.165 0.162-0.194 0.201-0.095 0.133-0.197 0.269-0.284 0.405-0.052 0.081-0.081 0.174-0.14 0.251-0.042 0.053-0.096 0.101-0.14 0.152-0.057 0.069-0.113 0.136-0.174 0.2-0.070 0.075-0.122 0.164-0.19 0.238-0.078 0.087-0.189 0.132-0.27 0.221-0.065 0.074-0.114 0.14-0.199 0.191-0.044 0.027-0.099 0.037-0.138 0.063-0.040 0.026-0.090 0.090-0.13 0.127-0.155 0.141-0.309 0.297-0.417 0.475-0.103 0.169-0.212 0.357-0.284 0.543-0.069 0.177-0.159 0.349-0.212 0.532-0.055 0.193-0.084 0.395-0.135 0.589-0.045 0.169-0.118 0.332-0.14 0.505-0.012 0.094-0.046 0.183-0.085 0.271-0.089 0.199-0.132 0.407-0.21 0.61-0.068 0.177-0.214 0.425-0.397 0.494-0.076 0.028-0.143 0.024-0.225 0.024-0.033 0-0.095 0.014-0.124 0.003-0.039-0.017-0.033-0.043-0.064-0.074-0.051-0.050-0.1-0.056-0.138-0.121-0.021-0.037-0.038-0.058-0.064-0.093-0.013-0.018-0.012-0.045-0.024-0.063-0.012-0.017-0.033-0.025-0.045-0.042-0.024-0.031-0.036-0.083-0.051-0.12-0.171-0.389-0.162-0.826-0.165-1.25-0.002-0.185 0.034-0.372 0.061-0.555 0.019-0.133 0.034-0.254 0.078-0.38 0.108-0.305 0.259-0.578 0.45-0.84 0.051-0.070 0.093-0.14 0.172-0.181 0.076-0.039 0.163-0.067 0.242-0.095 0.071-0.026 0.133-0.036 0.209-0.034 0.090 0.001 0.23-0.030 0.31 0.008-0.005 0.040-0.074 0.053-0.106 0.076-0.109 0.082-0.136 0.22-0.204 0.334-0.111 0.188-0.252 0.346-0.383 0.519-0.162 0.214-0.337 0.456-0.408 0.719-0.041 0.153-0.078 0.336-0.077 0.494 0.001 0.092-0.033 0.246 0.070 0.295 0.1 0.045 0.156-0.065 0.215-0.132 0.058-0.064 0.127-0.118 0.184-0.184 0.074-0.087 0.122-0.191 0.172-0.294 0.075-0.15 0.15-0.289 0.199-0.449 0.031-0.102 0.077-0.188 0.097-0.293 0.026-0.141 0.059-0.271 0.1-0.408 0.040-0.138 0.065-0.275 0.107-0.412 0.044-0.145 0.052-0.299 0.139-0.428 0.068-0.101 0.152-0.182 0.216-0.286 0.052-0.087 0.115-0.162 0.181-0.238 0.115-0.135 0.254-0.265 0.405-0.36 0.141-0.087 0.299-0.112 0.444-0.189 0.187-0.099 0.311-0.244 0.459-0.391 0.121-0.121 0.249-0.234 0.372-0.355 0.081-0.080 0.135-0.171 0.209-0.257 0.046-0.053 0.114-0.102 0.152-0.158 0.038-0.055 0.058-0.151 0.089-0.232-0.040 0.042-0.088 0.081-0.108 0.099-0.12 0.118-0.26 0.209-0.396 0.309-0.164 0.121-0.338 0.227-0.503 0.343-0.084 0.059-0.163 0.125-0.247 0.183-0.114 0.078-0.244 0.128-0.349 0.219-0.192 0.165-0.359 0.365-0.579 0.499-0.105 0.064-0.182 0.139-0.305 0.165-0.109 0.023-0.158 0.069-0.24 0.146-0.151 0.141-0.299 0.286-0.444 0.434-0.21 0.213-0.348 0.478-0.567 0.685-0.181 0.172-0.31 0.386-0.423 0.607-0.165 0.324-0.332 0.62-0.444 0.97-0.163 0.505-0.284 1.003-0.279 1.536 0.001 0.146-0.026 0.316 0.008 0.459 0.021 0.099 0.106 0.239 0.166 0.315 0.053 0.066 0.126 0.108 0.182 0.171 0.076 0.083 0.13 0.184 0.206 0.269 0.075 0.085 0.156 0.164 0.226 0.254 0.073 0.094 0.119 0.201 0.228 0.253 0.075 0.037 0.128 0.040 0.178 0.114 0.068 0.097 0.143 0.282 0.172 0.393 0.038 0.143 0.023 0.291 0.021 0.438-0.002 0.112-0.010 0.229 0.005 0.341 0.013 0.090 0.046 0.176 0.064 0.265 0.029 0.133 0.040 0.27 0.059 0.404 0.019 0.14 0.068 0.275 0.080 0.416 0.010 0.108 0.029 0.214 0.055 0.32 0.015 0.061 0.034 0.119 0.048 0.18 0.015 0.065 0.018 0.229 0.069 0.273 0.128 0.108 0.38 0.030 0.538 0.068 0.070 0.018 0.137 0.046 0.206 0.065 0.048 0.012 0.153 0.017 0.19 0.044 0.052 0.039 0.058 0.133 0.067 0.203 0.025 0.209-0.077 0.427-0.132 0.623-0.026 0.091-0.029 0.182-0.040 0.276s-0.036 0.163-0.067 0.253c-0.033 0.099-0.040 0.191-0.102 0.277-0.075 0.102-0.071 0.15-0.105 0.284 0.058 0 0.155-0.018 0.209-0.001 0.062 0.018 0.112 0.109 0.131 0.166 0.070 0.206 0.108 0.464 0.074 0.681-0.019 0.113-0.061 0.236-0.084 0.351-0.009 0.040-0.012 0.087-0.023 0.127-0.020 0.068-0.074 0.124-0.093 0.192-0.059 0.212-0.132 0.49-0.042 0.706 0.016 0.036 0.099 0.148 0.139 0.164 0.083 0.032 0.162-0.081 0.21-0.133 0.057-0.062 0.064-0.114 0.090-0.192 0.030-0.090 0.078-0.177 0.124-0.26 0.112-0.203 0.241-0.37 0.391-0.544 0.124-0.144 0.219-0.273 0.294-0.442 0.051-0.118 0.133-0.255 0.215-0.354 0.099-0.119 0.166-0.246 0.227-0.39 0.033-0.080 0.070-0.165 0.109-0.236-0.095-0.032-0.245-0.008-0.343-0.005-0.081 0-0.145-0.022-0.224-0.032-0.053-0.009-0.093 0-0.144-0.023-0.137-0.061-0.215-0.176-0.25-0.32-0.030-0.125 0.050-0.246 0.132-0.333 0.080-0.086 0.166-0.146 0.26-0.215 0.061-0.044 0.075-0.093 0.109-0.156 0.057-0.107 0.152-0.122 0.224-0.204 0.095-0.109 0.176-0.237 0.273-0.348 0.1-0.115 0.252-0.191 0.315-0.334-0.081 0.096-0.204 0.156-0.314 0.215-0.090 0.048-0.171 0.076-0.271 0.095-0.058 0.011-0.152 0.062-0.208 0.057-0.025-0.051-0.063-0.089-0.087-0.141-0.032-0.074-0.056-0.177-0.061-0.255-0.009-0.138 0.032-0.213 0.080-0.335 0.049-0.126 0.111-0.245 0.156-0.373 0.065-0.187 0.105-0.376 0.209-0.545 0.058-0.096 0.074-0.19 0.102-0.297 0.017-0.063 0.052-0.131 0.045-0.199-0.021-0.202-0.257 0.133-0.311 0.183-0.223 0.202-0.493 0.358-0.699 0.581-0.157 0.172-0.278 0.327-0.483 0.453-0.151 0.091-0.335 0.114-0.415-0.075-0.119-0.279-0.103-0.544-0.103-0.841 0-0.206-0.027-0.399 0.070-0.585 0.081-0.155 0.090-0.351 0.179-0.503 0.097-0.168 0.204-0.339 0.314-0.503 0.061-0.090 0.119-0.178 0.171-0.273 0.039-0.063 0.073-0.128 0.101-0.197 0.015-0.045 0.027-0.092 0.038-0.138 0.034-0.068 0.094-0.134 0.139-0.196 0.060-0.080 0.107-0.179 0.174-0.253 0.068-0.076 0.105-0.096 0.124-0.207 0.010-0.059 0.018-0.13 0.004-0.191 0.049 0.020 0.081-0.001 0.067-0.083 0.213 0 0.206 0.063 0.349 0.216 0.128 0.138 0.278 0.238 0.418 0.359 0.128 0.111 0.197 0.264 0.325 0.368 0.418 0.343 0.458 0.962 0.676 1.438 0.137 0.297 0.247 0.586 0.411 0.872 0.092 0.158 0.155 0.328 0.218 0.5 0.122 0.339 0.049 0.78 0.049 1.138 0 0.399 0.040 0.823 0.003 1.219-0.031 0.338-0.239 0.639-0.277 0.953-0.017 0.145 0.005 0.232-0.049 0.358-0.043 0.096-0.071 0.197-0.122 0.286-0.095 0.168-0.256 0.295-0.336 0.473-0.055 0.119-0.077 0.25-0.137 0.367-0.048 0.094-0.136 0.168-0.089 0.277 0.305-0.074 0.579-0.619 0.701-0.881 0.238-0.508 0.431-1.033 0.688-1.533 0.196-0.379 0.102-0.784 0.245-1.177 0.073-0.202 0.122-0.341 0.12-0.557-0.002-0.259-0.002-0.519 0.001-0.778 0.002-0.202-0.062-0.385-0.070-0.585-0.012-0.244-0.012-0.48-0.082-0.718-0.049-0.166-0.105-0.358-0.185-0.51-0.056-0.108-0.144-0.19-0.194-0.304-0.058-0.135-0.070-0.283-0.147-0.411-0.139-0.229-0.334-0.421-0.492-0.624-0.181-0.229-0.321-0.553-0.593-0.681-0.149-0.069-0.184-0.070-0.276-0.206-0.073-0.109-0.163-0.2-0.222-0.338-0.044-0.105-0.040-0.202-0.099-0.29-0.095-0.143-0.197-0.077-0.223-0.252-0.034-0.232 0.018-0.484 0.152-0.666 0.134-0.183 0.272-0.412 0.528-0.424 0.273-0.014 0.474 0.15 0.683 0.323 0.121 0.101 0.191 0.143 0.34 0.204 0.156 0.064 0.272 0.184 0.404 0.285 0.314 0.239 0.668 0.618 0.831 0.966 0.097 0.209 0.215 0.396 0.326 0.597 0.153 0.276 0.21 0.598 0.336 0.885 0.108 0.244 0.152 0.51 0.271 0.746 0.134 0.27 0.302 0.528 0.395 0.817 0.071 0.225 0.251 0.454 0.292 0.681 0.043 0.228-0.020 0.391 0.082 0.611 0.088 0.189 0.089 0.479 0.075 0.74 0.050-0.132 0.096-0.262 0.131-0.404 0.069-0.291 0.048-0.585 0.048-0.884 0-0.29 0.024-0.592 0.003-0.881z"></path>
</svg>
