<!-- Generated by IcoMoon.io -->
<svg version="1.1" xmlns="http://www.w3.org/2000/svg" width="33" height="32" viewBox="0 0 33 32">
<title>star-fill1</title>
<path d="M13.447 23.944l1.49-2.066 0.172-3.63c-0.764 0.447-1.624 1.024-2.58 1.731s-1.624 1.452-2.006 2.234c-0.535-0.856-1.070-1.694-1.605-2.513-0.497-0.856-0.994-1.712-1.49-2.569l2.637 0.223c0.65-0.261 1.261-0.54 1.834-0.838 0.611-0.335 1.204-0.67 1.777-1.005-0.65-0.372-1.204-0.67-1.662-0.893-0.42-0.261-0.841-0.465-1.261-0.614-0.382-0.149-0.822-0.242-1.318-0.279-0.497-0.075-1.146-0.112-1.949-0.112 0.497-0.856 0.994-1.694 1.49-2.513 0.535-0.856 1.051-1.712 1.548-2.569 0.459 0.633 0.803 1.135 1.032 1.508 0.267 0.372 0.535 0.707 0.803 1.005 0.306 0.261 0.65 0.521 1.032 0.782 0.42 0.261 0.994 0.577 1.72 0.949-0.076-0.968-0.115-1.657-0.115-2.066s-0.038-0.745-0.115-1.005c-0.038-0.298-0.153-0.614-0.344-0.949-0.153-0.372-0.439-0.987-0.86-1.843 0.306 0 0.592 0 0.86 0 0.306-0.037 0.611-0.056 0.917-0.056 0.726 0 1.433 0.019 2.121 0.056 0.688 0 1.395 0 2.121 0-0.267 0.558-0.573 1.117-0.917 1.675-0.344 0.521-0.516 1.098-0.516 1.731v2.569c0.841-0.521 1.452-0.893 1.834-1.117 0.382-0.261 0.707-0.521 0.974-0.782 0.229-0.223 0.439-0.484 0.631-0.782 0.229-0.335 0.554-0.819 0.974-1.452 0.535 0.819 1.032 1.657 1.49 2.513 0.497 0.856 1.013 1.712 1.548 2.569-0.802 0.112-1.414 0.168-1.834 0.168-0.382 0-0.726 0.037-1.032 0.112-0.268 0.037-0.611 0.149-1.032 0.335-0.382 0.186-0.974 0.521-1.777 1.005 0.764 0.409 1.662 0.819 2.694 1.229s1.987 0.577 2.866 0.503c-0.535 0.856-1.051 1.712-1.548 2.569-0.459 0.856-0.955 1.712-1.49 2.569l-1.089-2.345c-0.535-0.335-1.070-0.67-1.605-1.005s-1.070-0.651-1.605-0.949c0 0.447 0.019 0.931 0.057 1.452s0.096 1.061 0.172 1.619c0.115 0.521 0.248 1.042 0.401 1.564 0.153 0.484 0.363 0.912 0.631 1.284-0.535 0.037-1.051 0.056-1.548 0.056-0.459 0-0.955 0-1.49 0s-1.051 0-1.548 0c-0.459 0-0.955-0.019-1.49-0.056z"></path>
</svg>
