<!-- Generated by IcoMoon.io -->
<svg version="1.1" xmlns="http://www.w3.org/2000/svg" width="32" height="32" viewBox="0 0 32 32">
<title>sticky_goop</title>
<path d="M13.555 3.4c-0.766 0-1.4 0.634-1.4 1.4v3.591l6.248-1.797v2.197h-5.648c-2.704 0-5.212 1.643-6.347 3.944l-0.002 0.002c-0.114 0.232-0.208 0.433-0.173 0.738s0.345 0.598 0.555 0.669c0.419 0.142 0.657 0.073 0.898 0.108s0.394 0.085 0.544 0.278c0.15 0.193 0.322 0.613 0.322 1.472 0 0.576-0 1.21 0.025 1.873 0 0.006-0 0.010 0 0.016 0.074 1.925 0.353 4.118 1.544 5.939 0.414 0.633 0.818 1.052 1.417 1.080 0.299 0.014 0.599-0.128 0.783-0.319s0.285-0.413 0.35-0.645c0.26-0.928 0.026-2.186-0.884-3.114-0.767-0.782-1.321-1.189-1.602-1.522-0.278-0.331-0.392-0.595-0.405-1.439-0-0.009-0.003-0.018-0.003-0.027-0.023-0.606-0.023-1.191-0.023-1.745 0.344-1.359 1.007-2.327 1.734-2.772 0.737-0.451 1.526-0.474 2.475 0.172 0.411 0.279 0.659 0.692 0.83 1.277s0.242 1.32 0.287 2.105c0.091 1.569 0.038 3.345 0.923 4.7 0.226 0.345 0.48 0.657 0.948 0.691 0.234 0.017 0.465-0.078 0.616-0.195s0.245-0.25 0.327-0.387c0.327-0.55 0.482-1.278 0.667-2.083s0.37-1.662 0.58-2.272c0.105-0.305 0.222-0.546 0.306-0.664s0.071-0.067 0-0.067c0.215 0 0.209 0.022 0.281 0.116s0.16 0.314 0.252 0.595c0.092 0.281 0.188 0.624 0.438 0.952s0.715 0.587 1.236 0.587c1.347 0 3.089-0.516 3.87-0.781l0.395-0.136 0.011-0.417c0.060-2.315-0.677-4.163-1.911-5.569-1.145-1.305-2.709-2.212-4.416-2.927v-3.52c0-1.146-0.927-2.1-2.070-2.1h-3.978zM13.555 4.6h3.978c0.429 0 0.744 0.332 0.816 0.761l-4.994 1.436v-1.997c0-0.118 0.082-0.2 0.2-0.2zM12.755 9.991h6.113c1.719 0.688 3.214 1.569 4.248 2.748 0.964 1.099 1.496 2.496 1.548 4.291-0.824 0.249-2.141 0.62-3.011 0.62-0.215 0-0.209-0.022-0.281-0.116s-0.16-0.314-0.252-0.595c-0.092-0.281-0.188-0.624-0.438-0.952s-0.715-0.588-1.236-0.588c-0.439 0-0.774 0.286-0.977 0.569s-0.339 0.61-0.464 0.973c-0.25 0.726-0.432 1.603-0.614 2.392-0.149 0.647-0.305 1.105-0.434 1.425-0.513-0.914-0.592-2.406-0.681-3.95-0.047-0.809-0.113-1.621-0.333-2.372s-0.615-1.464-1.308-1.934c-1.257-0.855-2.674-0.877-3.775-0.203-0.662 0.405-1.169 1.077-1.589 1.858-0.053-0.093-0.033-0.285-0.095-0.366-0.378-0.487-0.915-0.671-1.317-0.73-0.131-0.019-0.115-0.008-0.223-0.019 0.978-1.747 3.006-3.053 5.119-3.053zM6.359 15.202c-0.637 2.857-0.257 6.155 1.269 8.797s4.268 4.602 8.142 4.602c3.146 0 5.536-1.623 7.091-3.605s2.334-4.299 2.334-5.995h-1.2c0 1.304-0.691 3.487-2.078 5.255s-3.409 3.145-6.147 3.145c-3.48 0-5.753-1.664-7.103-4.002s-1.707-5.374-1.136-7.936l-1.172-0.261zM10.27 21.041c0.228 0.203 0.381 0.345 0.659 0.63 0.56 0.572 0.694 1.564 0.586 1.948-0 0.001 0 0.001 0 0.002-0.008-0.020-0.122-0.037-0.391-0.448-0.416-0.636-0.651-1.379-0.855-2.131z"></path>
</svg>
