<!-- Generated by IcoMoon.io -->
<svg version="1.1" xmlns="http://www.w3.org/2000/svg" width="32" height="32" viewBox="0 0 32 32">
<title>stirring_in_the_deep</title>
<path d="M24.894 5.316c-0.131 0.019-0.264 0.091-0.389 0.133-0.094 0.031-0.222 0.063-0.313 0.107-0.303 0.146-0.606 0.29-0.911 0.428-0.17 0.055-0.324 0.141-0.462 0.261-0.029 0.005-0.060 0.013-0.091 0.019-0.151-0.081-0.3-0.164-0.446-0.253-0.065-0.050-0.138-0.063-0.214-0.044-0.399 0.026-0.799 0.131-1.172 0.292-0.185 0.081-0.352 0.225-0.52 0.355-0.099 0.076-0.209 0.118-0.313 0.185-0.039 0.024-0.138 0.063-0.162 0.102-0.029 0.044-0.008 0.141-0.005 0.191 0.008 0.154 0.026 0.308 0.070 0.452 0.021-0.003 0.031 0.005 0.036 0.024 0.008 0.019 0.008 0.036 0 0.055 0.029 0.115-0.003 0.272-0.005 0.392-0.008 0.567-0.008 1.144 0.128 1.695 0.021 0.089 0.055 0.154 0.047 0.245-0.018 0.183-0.104 0.368-0.136 0.548-0.047 0.285-0.055 0.572-0.041 0.859 0.016 0.285 0.094 0.548 0.133 0.828 0.024 0.159 0.044 0.321 0.068 0.48 0.053 0.334 0.144 0.689 0.112 1.029-0.036 0.379-0.081 0.744-0.089 1.125-0.005 0.141 0.026 0.18 0.070 0.308 0.097 0.269 0.112 0.653 0.112 0.932 0 0.261-0.041 0.543 0.031 0.799 0.044 0.157 0.107 0.272 0.107 0.441-0.003 0.259-0.175 0.504-0.17 0.757 0.11-0.003 0.232-0.003 0.35 0.013l-0.238 0.016c-0.010 0-0.021 0-0.029 0.003-0.024 0.128-0.115 0.222-0.128 0.352-0.008 0.073-0.008 0.162-0.003 0.238 0.144 0.050 0.319-0.021 0.467 0.018 0.065 0.018 0.112 0.060 0.165 0.102 0.102 0.084 0.198 0.164 0.311 0.235 0.053 0.031 0.099 0.076 0.154 0.107 0.070 0.036 0.165 0.044 0.227 0.091 0.091 0.065 0.138 0.214 0.253 0.256 0.060 0.021 0.12 0 0.183 0.021 0.12 0.044 0.217 0.073 0.347 0.086 0.070 0.005 0.167 0.018 0.217 0.044 0.154 0.081 0.279 0.23 0.47 0.248 0.112 0.013 0.235-0.021 0.345-0.003 0.055 0.010 0.081 0.034 0.131 0.058 0.136 0.070 0.287 0.073 0.426 0.128 0.060 0.024 0.063 0.058 0.11 0.084 0.031 0.016 0.076 0.013 0.11 0.026 0.053 0.024 0.099 0.050 0.146 0.078 0.055 0.089 0.117 0.17 0.204 0.209 0.091 0.018 0.18 0.041 0.266 0.070 0.146 0.039 0.29 0.089 0.431 0.151 0.149 0.050 0.245 0.050 0.389 0.070 0.031 0.128 0.167 0.144 0.266 0.12 0.055-0.138-0.029-0.287-0.026-0.426 0-0.102-0.018-0.188-0.029-0.287-0.021-0.217 0.008-0.436-0.005-0.653-0.016-0.303-0.063-0.606-0.131-0.898-0.060-0.256-0.065-0.541-0.107-0.802-0.036-0.251-0.107-0.541-0.117-0.799-0.010-0.311 0.013-0.632 0.016-0.943 0-0.041 0.016-0.17 0.008-0.225-0.050-0.034-0.070-0.089-0.063-0.167-0.026-0.446-0.036-0.898-0.031-1.347-0.003-0.58 0.008-1.159 0.016-1.739 0.005-0.295-0.003-0.59 0.041-0.88 0.013-0.099 0.058-0.206 0.058-0.308 0-0.123-0.063-0.256-0.099-0.368-0.050-0.159-0.053-0.287-0.050-0.452 0.005-0.457 0.039-0.943-0.068-1.389-0.065-0.266-0.167-0.473-0.191-0.757-0.024-0.29-0.050-0.556-0.123-0.835-0.055-0.211-0.11-0.415-0.151-0.629-0.102-0.53 0.047-1.073 0.053-1.611-0.039-0.076-0.041-0.063-0.044-0.053z"></path>
<path d="M5.522 10.426c-0.010 0.368-0.008 0.736-0.013 1.104-0.008 0.488-0.078 0.956-0.102 1.444-0.039 0.888-0.021 1.783-0.034 2.674-0.005 0.507-0.013 1.013-0.021 1.522-0.005 0.389-0.036 0.788-0.013 1.175 0.016 0.222 0.024 0.47 0.091 0.679 0.068 0.206 0.178 0.345 0.167 0.564-0.008 0.178-0.013 0.347 0.013 0.522 0.024 0.175 0.055 0.342 0.050 0.517-0.008 0.141 0.036 0.258 0.031 0.399 0 0.104-0.026 0.248-0.008 0.35 0.026 0.165 0.217 0.185 0.342 0.188 0.188 0.003 0.324-0.018 0.501-0.089 0.107-0.041 0.188-0.073 0.282-0.149 0.039-0.031 0.12-0.102 0.172-0.123 0.026-0.010 0.063-0.003 0.086-0.013 0.091-0.039 0.193-0.107 0.29-0.154 0.141-0.068 0.256-0.164 0.358-0.279 0.091-0.044 0.188-0.086 0.279-0.133 0.18-0.094 0.292-0.251 0.447-0.384 0.198-0.175 0.415-0.345 0.629-0.496 0.222-0.154 0.426-0.18 0.676-0.29 0.131-0.058 0.251-0.151 0.386-0.201 0.068-0.024 0.144-0.026 0.214-0.047 0.133-0.044 0.253-0.136 0.386-0.188 0.141-0.055 0.266-0.094 0.413-0.099 0.076-0.003 0.107 0.005 0.154-0.060 0.047-0.063 0.089-0.151 0.081-0.235-0.008-0.063-0.034-0.118-0.041-0.18-0.008-0.097 0.005-0.201 0.008-0.298 0.008-0.525-0.053-1.042-0.060-1.564-0.005-0.392 0.036-0.76-0.041-1.144-0.041-0.209-0.099-0.42-0.128-0.629-0.050-0.345-0.039-0.71-0.055-1.060-0.013-0.232-0.008-0.465-0.003-0.697 0.013-0.118 0.018-0.235 0.008-0.35 0.005-0.154 0.010-0.311 0.008-0.465 0-0.149-0.047-0.274-0.068-0.418-0.026-0.191-0.005-0.394-0.021-0.587-0.016-0.17-0.031-0.345-0.053-0.512-0.018-0.138-0.070-0.266-0.073-0.407-0.003-0.102 0.003-0.204 0.005-0.305 0.018-0.193 0.039-0.389 0.047-0.582 0.016-0.384 0.013-0.768 0.018-1.149v-0.003c0.039-0.415 0.086-0.828 0.094-1.243 0.013-0.164 0.026-0.251 0.036-0.3-0.031 0.055-0.081 0.104-0.136 0.154-0.016-0.034-0.039-0.060-0.078-0.086-0.047-0.026-0.099-0.044-0.149-0.065-0.191-0.086-0.379-0.196-0.574-0.261-0.303-0.104-0.629-0.149-0.94-0.23-0.188-0.050-0.381-0.084-0.569-0.131-0.196-0.047-0.384-0.078-0.585-0.076-0.546 0.008-1.086 0.209-1.616-0.053-0.206-0.099-0.376-0.269-0.585-0.363-0.115-0.055-0.238-0.078-0.044 0.003-0.010 0.003-0.024 0.005-0.034 0.008-0.034 0.104 0 0.243-0.013 0.352-0.026 0.209-0.050 0.407-0.047 0.619 0.003 0.133 0.068 0.245 0.076 0.379s0 0.277-0.005 0.41c-0.005 0.188-0.044 0.366-0.047 0.556-0.003 0.196-0.036 0.373-0.068 0.569-0.019 0.094-0.019 0.183-0.021 0.279-0.008 0.227-0.047 0.452-0.053 0.679-0.005 0.138 0.005 0.277-0.003 0.413-0.008 0.18-0.044 0.358-0.050 0.538z"></path>
<path d="M30.522 21.656c-0.125-0.021-0.24-0.039-0.36-0.078-0.123-0.039-0.243-0.081-0.363-0.125 0.042-0.008 0.097-0.021 0.104-0.063 0.016-0.078-0.037-0.041-0.076-0.070-0.084-0.058-0.102-0.078-0.209-0.081-0.277-0.005-0.551 0.016-0.825 0.036 0.005-0.073 0.008-0.149 0.010-0.225 0.008-0.282-0.034-0.561-0.029-0.843 0.005-0.164-0.003-0.313-0.024-0.473-0.021-0.144-0.016-0.292-0.034-0.436-0.021-0.191-0.063-0.373-0.099-0.559-0.073-0.355-0.12-0.718-0.18-1.076-0.060-0.345-0.091-0.695-0.112-1.042-0.008-0.099 0-0.214-0.021-0.308-0.008-0.031-0.016-0.058-0.026-0.084-0.005-0.094-0.013-0.188-0.026-0.282-0.010-0.104-0.026-0.206-0.036-0.311-0.010-0.324-0.008-0.648-0.003-0.971 0.005-0.222 0-0.436-0.029-0.661-0.039-0.316-0.029-0.627-0.024-0.943 0.010-0.812-0.016-1.629 0.034-2.439 0.010-0.133 0.016-0.172-0.073-0.282-0.112-0.138-0.227-0.277-0.311-0.436-0.11-0.211-0.063-0.509-0.029-0.742 0.018-0.118 0.024-0.238 0.026-0.358 0-0.065 0.024-0.185 0-0.243-0.021-0.053-0.076-0.115-0.107-0.162-0.058-0.086-0.091-0.136-0.076-0.248 0.010-0.078 0.076-0.146 0.081-0.222 0.003-0.058-0.034-0.107-0.036-0.17-0.010-0.154 0.005-0.316 0.008-0.473 0.003-0.326 0.008-0.653 0.013-0.976 0.003-0.149-0.005-0.277-0.031-0.42-0.024-0.118-0.018-0.256-0.055-0.368-0.039-0.112-0.053-0.133-0.050-0.261 0.003-0.125 0.003-0.251 0.005-0.376 0-0.136 0.036-0.319 0.008-0.452-0.016-0.068-0.086-0.102-0.107-0.175-0.034-0.115 0.058-0.274 0.112-0.368 0.036-0.063 0.157-0.144 0.159-0.217 0-0.157-0.261-0.053-0.324-0.029-0.044 0.018-0.123 0.029-0.196 0.047-0.005-0.039-0.010-0.076-0.021-0.102-0.078 0.041-0.175 0.081-0.256 0.123-0.029 0.013-0.060 0.018-0.089 0.026-0.196-0.034-0.256-0.005-0.321 0.018-0.058-0.005-0.115-0.010-0.17-0.010-0.238-0.003-0.475-0.005-0.713-0.010-0.441-0.008-0.914 0.018-1.332 0.18-0.225 0.086-0.48 0.016-0.708 0.094-0.29 0.099-0.653 0.041-0.937 0.026-0.681-0.041-1.355-0.144-2.034-0.185-0.606-0.036-1.212-0.097-1.817-0.133-0.574-0.036-1.154-0.018-1.723-0.104-0.742-0.11-1.488-0.266-2.235-0.316-0.086-0.005-0.172-0.010-0.258-0.016-0.044-0.013-0.091-0.026-0.144-0.039-0.387-0.097-0.794-0.193-1.185-0.238-0.214-0.021-0.423 0.003-0.632 0.068-0.389 0.081-0.775 0.178-1.157 0.292-0.165 0.044-0.287 0.065-0.449 0.125-0.42 0.157-0.862 0.157-1.295 0.238-0.277 0.053-0.535 0.055-0.812-0.013-0.165-0.041-0.306-0.086-0.483-0.084-0.073 0-0.146-0.003-0.222-0.003-0.295-0.005-0.593 0.053-0.888 0.065-0.321 0.016-0.663 0.024-0.984-0.003-0.091-0.008-0.099-0.039-0.17-0.055-0.094 0.016-0.183 0.041-0.272 0.076-0.107 0.055-0.219 0.089-0.337 0.099-0.217 0.034-0.436 0.036-0.653 0.031-0.091-0.003-0.188 0.008-0.277-0.021-0.013 0.058-0.029 0.118-0.047 0.178-0.115 0.003-0.232 0-0.345-0.013-0.104-0.013-0.201-0.058-0.303-0.073-0.136-0.021-0.269-0.018-0.402-0.047-0.065 0.11-0.12 0.204-0.125 0.332-0.005 0.154-0.016 0.298-0.031 0.452-0.039 0.386 0.013 0.775-0.060 1.159-0.044 0.232-0.086 0.431-0.086 0.671-0.003 0.227-0.008 0.457-0.010 0.687-0.005 0.366 0.003 0.729-0.044 1.091-0.016 0.125-0.008 0.248-0.013 0.373-0.008 0.311 0.081 0.572 0.141 0.88 0.076 0.386 0.11 0.747 0.097 1.136-0.013 0.298 0.026 0.59 0.026 0.888 0 0.538-0.018 1.078-0.024 1.616-0.008 0.493-0.021 0.984 0.055 1.475 0.141 0.945-0.201 1.869-0.266 2.807-0.024 0.342-0.010 0.697 0.081 1.031 0.021 0.081 0.115 0.329 0.089 0.431-0.063 0.099-0.102 0.209-0.12 0.326-0.036 0.141-0.065 0.285-0.086 0.428-0.013 0.193-0.016 0.449 0.063 0.624 0.099 0.219 0.235 0.564 0.123 0.804-0.044 0.097-0.047 0.146-0.050 0.256-0.003 0.065-0.010 0.125 0.010 0.188 0.047 0.133 0.157 0.243 0.172 0.386 0.005 0.031 0 0.053 0 0.070-0.005 0-0.008 0-0.010 0-0.094-0.013-0.188-0.026-0.285-0.026-0.055-0.003-0.131-0.018-0.183-0.005-0.050 0.013-0.053 0.063-0.115 0.044-0.016 0.036-0.050 0.068-0.084 0.094-0.036 0-0.073-0.003-0.081 0-0.097 0.013-0.196 0.031-0.285 0.065-0.131 0.050-0.256 0.12-0.384 0.175-0.055 0.024-0.099 0.058-0.149 0.081s-0.112 0.018-0.157 0.041c-0.041 0.024-0.058 0.055-0.11 0.076-0.078 0.031-0.164 0.034-0.261 0.021 0.060 0.078 0.209 0.144 0.29 0.178 0.245 0.107 0.52 0.091 0.778 0.144 0.191 0.036 0.373 0.050 0.556 0.118 0.144 0.053 0.295 0.041 0.444 0.041 0.133 0.003 0.279 0.026 0.41-0.003 0.198-0.039 0.413-0.024 0.601-0.097 0.172-0.065 0.345 0.005 0.52-0.031 0.073-0.018 0.128-0.034 0.206-0.034 0.039 0 0.097 0.021 0.117-0.018 0.016-0.024-0.026-0.107-0.034-0.133-0.034-0.118-0.058-0.246-0.125-0.355-0.019-0.029-0.034-0.058-0.050-0.086 0.036 0 0.068-0.003 0.097-0.008 0.003-0.008 0.005-0.016 0.008-0.024 0.021-0.089 0.036-0.185 0.050-0.287v0c0-0.005 0-0.010 0-0.016 0.029-0.259 0.021-0.533-0.019-0.765-0.013-0.073-0.034-0.149-0.053-0.222-0.019-0.178-0.039-0.368-0.073-0.538-0.016-0.081-0.039-0.162-0.060-0.24-0.003-0.175 0.010-0.35 0.021-0.525 0.041-0.551 0-1.065-0.118-1.601-0.034-0.149-0.076-0.292-0.107-0.441-0.050-0.232-0.058-0.47-0.094-0.705-0.024-0.162-0.050-0.324-0.076-0.486-0.031-0.214-0.102-0.423-0.102-0.642 0-0.433 0.076-0.901 0.159-1.326 0.089-0.439 0.102-0.875 0.11-1.313 0.039-0.29 0.065-0.582 0.070-0.875 0-0.149 0.013-0.3 0.010-0.449-0.005-0.211-0.070-0.4-0.078-0.608-0.005-0.099 0.013-0.198 0.008-0.298-0.003-0.149-0.034-0.29-0.036-0.441 0-0.358-0.055-0.676 0.008-1.034 0.058-0.332 0.019-0.692 0.024-1.029 0-0.107 0.003-0.214 0.003-0.321 0.026-0.219 0.065-0.436 0.081-0.655 0.026-0.326 0.019-0.661 0.021-0.99 0.003-0.131 0.008-0.264 0.010-0.397 0.026-0.12 0.076-0.201 0.081-0.339 0.008-0.277-0.060-0.634 0.063-0.89 0.036-0.076 0.091-0.112 0.167-0.125 0.196-0.031 0.41 0.036 0.608 0.039 0.235 0 0.467 0.008 0.702 0.005 0.342-0.005 0.671-0.058 1.008-0.078 0.089-0.008 0.266-0.005 0.363-0.024 0.185-0.034 0.452-0.162 0.606-0.217 0.225-0.094 0.452-0.172 0.684-0.235 0.149-0.055 0.303-0.091 0.46-0.104 0.238 0 0.496 0.097 0.718 0.133 0.504 0.089 1.008 0.081 1.514 0.086 0.287 0.050 0.574 0.097 0.872 0.102 0.507 0.010 1.016 0.003 1.522-0.008 0.929-0.016 1.856 0.008 2.786 0.016 0.671 0.008 1.339 0.081 2.010 0.112 0.467 0.021 0.924 0.12 1.394 0.146 0.373 0.021 0.749 0.016 1.125 0.021 0.381 0.005 0.775 0.041 1.157 0.010 0.212-0.019 0.415-0.076 0.624-0.12 0.36-0.076 0.744-0.031 1.11-0.024 0.311 0.005 0.729 0.076 1.037-0.003 0.107-0.029 0.123-0.060 0.201-0.097-0.060 0.18-0.039 0.373-0.029 0.567 0.070 1.123 0.381 2.235 0.611 3.329 0.070 0.332 0.198 0.65 0.258 0.982 0.036 0.196 0.078 0.394 0.11 0.593 0.070 0.441 0.11 0.851 0.099 1.3-0.008 0.501-0.021 1.005-0.029 1.509-0.003 0.034-0.008 0.068-0.010 0.102-0.041 0.572-0.021 1.151-0.029 1.726-0.010 0.807-0.068 1.627-0.018 2.433 0.031 0.561 0.133 1.115 0.154 1.676 0 0.003 0 0.005 0 0.005-0.034 0.29-0.081 0.582-0.063 0.872 0.010 0.138 0.034 0.274 0.047 0.413 0.024 0.222 0.018 0.452 0.055 0.676 0.016 0.102 0.047 0.198 0.076 0.292 0 0.112-0.003 0.222-0.005 0.332-0.003 0.159-0.026 0.334-0.008 0.491-0.016 0.005-0.026 0.013-0.041 0.016 0.031 0.029 0.058 0.063 0.084 0.094 0.008 0.013 0.018 0.026 0.026 0.039 0.024 0.036 0.047 0.073 0.063 0.112 0.005 0 0.010-0.003 0.013-0.003 0 0.008 0 0.016 0 0.021 0.021 0.159 0.112 0.175 0.245 0.175 0.311-0.003 0.601-0.058 0.901-0.123 0.144-0.031 0.261-0.013 0.397-0.078 0.368-0.178 0.791-0.104 1.18-0.198 0.188-0.047 0.355-0.053 0.548-0.050 0.128 0.003 0.256 0.026 0.363-0.063-0.068-0.026-0.175-0.016-0.248-0.029z"></path>
<path d="M25.383 26.389c0.003 0.081-0.070 0.149-0.149 0.149l-1.086 0.128c-0.084 0 0.494-0.196 0.488-0.277l1.050-0.277c0.081 0-0.306 0.196-0.303 0.277zM23.323 26.666c-0.358 0-0.358-0.554 0-0.554s0.358 0.554 0 0.554zM22.124 26.256c-0.413 0.024-0.83 0.034-1.24 0-0.418-0.034-0.883-0.097-1.206-0.381-0.091-0.081 0.144-0.319 0.206-0.415 0.188-0.298 0.3-0.324 0.629-0.376 0.334-0.050 0.671-0.060 1.010-0.060 0.138 0 0.222 0.086 0.253 0.188 0.003 0 0.005 0 0.008 0 0.193-0.003 0.279 0.157 0.264 0.305 0.133 0.073 0.245 0.175 0.316 0.319 0.091 0.196-0.021 0.405-0.24 0.42zM18.553 24.844c-0.18 0.149-0.18 0.149-0.637 0.264-0.141 0.036-0.292 0.034-0.439 0.029-0.010 0.013-0.024 0.024-0.039 0.031-0.238 0.115-0.488 0.167-0.749 0.17-0.146 0.003-0.694 0.084-0.611 0-0.021-0.073 0.517-0.415 0.608-0.439 0.574-0.164 1.167-0.266 1.762-0.305 0.125-0.010 0.204 0.17 0.104 0.251zM16.012 24.342c-0.010-0.008-0.018-0.016-0.029-0.024-0.018-0.018-0.031-0.039-0.039-0.065 0.005-0.018 0.024-0.131 0.039-0.144 0.013-0.013-0.514-0.036-0.496-0.041 0.016-0.010 0.58-0.003 0.601 0 0.016 0 0.031 0 0.047 0.003 0.018 0.003 0.034 0.005 0.050 0.008 0.018 0.008 0.039 0.016 0.058 0.026 0.010 0.003 0.018 0.008 0.024 0.010 0.036 0.026 0.065 0.053 0.086 0.089 0.024 0.039 0.034 0.081 0.034 0.123s-0.018 0.076-0.044 0.104c-0.018 0.018-0.039 0.031-0.065 0.039-0.013 0.003-0.026 0.003-0.039 0.005-0.021 0-0.039-0.003-0.058-0.013-0.018-0.005-0.034-0.016-0.047-0.031-0.013-0.013-0.024-0.029-0.031-0.047-0.003-0.005-0.003-0.013-0.003-0.018-0.003-0.003-0.005-0.003-0.008-0.003 0 0-0.003 0-0.003 0-0.026 0-0.053-0.008-0.076-0.021zM16.244 22.697c-0.018-0.018-0.029-0.039-0.036-0.063-0.013-0.021-0.334-0.094-0.334-0.12 0-0.003 0.008-0.005 0.018-0.008 0.031-0.016 0.102-0.047 0.178-0.084-0.073 0.034-0.141 0.068-0.175 0.084 0.065-0.010 0.29 0.005 0.295-0.016 0-0.036 0.013-0.073 0.031-0.104 0.016-0.018 0.029-0.036 0.044-0.055 0.097-0.024 0.608-0.146 0.577 0.423 0.031-0.569 0.010-0.005 0.026 0.003 0.034 0.003 0.003 0 0 0-0.010 0-0.018 0-0.026-0.003-0.026 0.018-0.053 0.036-0.081 0.050-0.031 0.016-0.065 0.031-0.102 0.039-0.076 0.010-0.097 0.013-0.175 0-0.058-0.010-0.95 0.044-0.997 0.008-0.031-0.016 0.775-0.125 0.757-0.154zM14.286 24.59c0.029-0.018-0.679 0.008-0.684 0.016-0.047 0.050-0.005 0-0.031 0.036-0.003 0.005-0.005 0.008-0.008 0.016 0.089 0.157 0.091 0.345-0.050 0.499-0.117 0.131-0.747 0.46-0.914 0.493-0.219 0.047-0.219-0.196-0.444-0.188-0.206 0.008-0.206-0.003-0.413-0.024-0.154-0.018-0.77 0.026-0.906-0.063-0.178-0.123 0.243-0.418 0.423-0.541 0.548-0.371 1.24-0.389 1.862-0.551-0.018 0.013-0.026 0.021 0.005 0 0.010-0.003 0.021-0.005 0.031-0.005 0.008-0.010 0.010-0.016 0.010-0.018 0.11-0.047 0.232 0.008 0.572-0.076 0 0 0.668 0.319 0.546 0.405zM10.087 24.866c-0.198 0.099-0.447 0.141-0.637 0-0.050-0.036-0.078-0.084-0.070-0.146 0.091-0.005 0.504-0.204 0.595-0.204 0.076 0 0.128 0.055 0.144 0.123 0.008 0.008 0.449-0.058 0.457-0.050 0.041 0.065-0.418 0.243-0.488 0.277zM10.161 27.289c-0.316 0.193-0.611 0.245-0.966 0.188s-2.214-0.243-2.405-0.561c-0.081-0.133 0.595-0.238 0.721-0.319-0.019-0.058 0.347-0.159 0.405-0.185 0.162-0.084 1.279-0.133 1.465-0.133 0.081-0.003-0.796 0.068-0.794 0.146 0.003 0.060-0.036 0.11-0.086 0.133 0.044 0.024 1.347 0.269 1.53 0.345-0.206-0.034-0.815-0.104-0.627-0.005 0.191 0.102 0.927 0.285 0.757 0.392zM27.86 25.163c-0.264-0.164-0.616-0.321-0.987-0.274-0.219 0.029-0.428 0.151-0.642 0.198-0.144 0.034-0.274 0.060-0.418 0.099-0.467 0.123-0.943 0.251-1.446 0.266-0.285 0.010-0.556-0.010-0.668-0.232-0.191-0.368 0.415-0.614 0.76-0.786 0.282-0.141 0.572-0.272 0.856-0.41 0.097-0.047 0.131-0.078 0.185-0.146 0.050-0.060 0.128-0.151 0.157-0.219 0.013-0.141-0.003-0.279-0.047-0.415 0.008-0.164-0.089-0.269-0.295-0.313-0.099-0.003-0.198-0.003-0.3-0.005-0.12 0-0.238-0.013-0.35-0.039-0.212-0.021-0.407-0.024-0.627-0.031-0.339-0.013-0.668-0.029-1.008-0.029-0.426-0.003-0.783-0.029-1.18 0.084-0.627 0.178-1.227 0.478-1.893 0.582-0.159 0.026-0.326 0.039-0.491 0.047-0.235 0.010-0.494 0.078-0.729 0.053-0.339-0.036-0.527-0.217-0.258-0.418 0.266-0.201 0.681-0.319 1.003-0.47 0.191-0.089 0.337-0.131 0.551-0.18 0.102-0.024 0.3-0.053 0.376-0.107 0.097-0.068 0.018-0.206-0.055-0.264-0.282-0.232-0.718-0.104-1.073-0.196-0.248-0.063-0.593-0.099-0.614-0.326-0.026-0.303-0.003-0.561 0.308-0.786 0.196-0.141 0.64-0.198 0.36-0.446-0.118-0.104-0.259-0.131-0.428-0.162-0.368-0.070-0.749-0.065-1.104-0.178-0.373-0.115-0.298-0.473-0.238-0.705 0.044-0.167 0.204-0.209 0.413-0.274 0.198-0.063 0.428-0.157 0.574-0.272 0.136-0.11 0.191-0.175 0.178-0.332-0.016-0.164-0.172-0.261-0.329-0.371-0.457-0.329-1.099-0.507-1.705-0.65-0.026-0.060 0.141-0.212 0.204-0.248 0.118-0.073 0.298-0.081 0.441-0.125 0.162-0.050 0.303-0.12 0.449-0.188 0.159-0.073 0.214-0.097 0.272-0.235 0.055-0.133 0.11-0.214 0.013-0.345-0.183-0.251-0.616-0.347-0.976-0.431-0.371-0.084-0.687-0.081-1.010-0.232-0.068-0.034-0.193-0.086-0.232-0.149 0.036 0.070 0.149 0.146 0.206 0.196 0.091 0.078 0.191 0.117 0.295 0.178 0.073 0.044 0.12 0.102 0.201 0.146 0.141 0.078 0.285 0.151 0.415 0.238 0.076 0.050 0.102 0.104 0.164 0.157 0.068 0.063 0.146 0.065 0.151 0.149 0.005 0.091-0.058 0.136-0.089 0.154-0.209 0.005-0.394 0.055-0.606 0.073-0.089 0.008-0.154 0.029-0.24 0.039-0.115 0.013-0.256-0.005-0.371-0.005-0.256 0.003-0.556 0.013-0.781 0.104-0.081 0.034-0.227 0.117-0.214 0.198 0.005 0.036 0.050 0.041 0.070 0.070 0.039 0.053 0.047 0.104 0.094 0.157 0.102 0.11 0.253 0.146 0.42 0.206 0.146 0.055 0.264 0.058 0.42 0.091 0.104 0.021 0.183 0.058 0.274 0.102 0.248 0.115 0.41 0.232 0.379 0.462-0.018 0.146-0.261 0.326-0.433 0.402-0.201 0.086-0.368 0.102-0.595 0.128-0.601 0.073-1.198 0.151-1.794 0.245-0.198 0.034-0.386 0.084-0.559 0.162-0.065 0.029-0.128 0.055-0.193 0.084-0.084 0.034-0.070 0.034-0.117 0.099-0.157 0.211-0.136 0.48 0.112 0.658 0.217 0.157 0.496 0.131 0.762 0.214 0.102 0.034 0.206 0.091 0.321 0.123 0.117 0.031 0.232 0.065 0.347 0.099 0.024 0.021 0.047 0.041 0.068 0.063 0.060 0.039 0.089 0.018 0.112 0.081 0.010 0.034-0.008 0.081-0.005 0.115 0.010 0.164-0.128 0.251-0.256 0.389-0.245 0.266-0.64 0.483-0.974 0.692-0.115 0.073-0.397 0.279-0.582 0.326-0.144 0.039-0.311 0.044-0.462 0.065-0.206 0.029-0.397 0.024-0.606 0.024-0.332 0.005-0.655 0.055-0.982 0.073-0.41 0.021-0.822-0.021-1.232 0.003-0.266 0.016-0.53 0.076-0.794 0.107-0.068 0.008-0.133 0.005-0.201 0.018-0.165 0.055-0.329 0.11-0.491 0.17-0.128 0.034-0.253 0.076-0.371 0.123-0.157 0.089-0.285 0.185-0.256 0.337 0.024 0.118 0.146 0.204 0.198 0.316 0.094 0.198-0.17 0.394-0.345 0.535-0.12 0.097-0.248 0.123-0.431 0.12-0.258-0.005-0.462 0.010-0.668 0.131-0.102 0.058-0.209 0.141-0.298 0.211-0.12 0.094-0.24 0.201-0.345 0.305-0.206 0.206-0.449 0.488-0.512 0.742-0.036 0.149 0.047 0.18 0.188 0.298 0.102 0.086 0.201 0.17 0.308 0.253 0.149 0.115 0.209 0.159 0.206 0.319-0.005 0.154 0.138 0.418-0.003 0.538-0.164 0.138-0.368 0.222-0.245 0.436 0.102 0.183 0.433 0.295 0.65 0.386 0.444 0.188 0.906 0.36 1.376 0.514 0.347 0.112 0.689 0.191 1.063 0.248 0.449 0.070 0.963 0.214 1.428 0.206 0.324-0.008 0.627-0.115 0.943-0.151 0.285-0.031 0.559-0.010 0.841 0.008 0.321 0.021 0.65 0.039 0.961 0.099 0.232 0.047 0.436 0.138 0.666 0.188 0.175 0.036 0.368 0.013 0.535 0.065 0.131 0.039 0.245 0.099 0.384 0.133 0.183 0.047 0.347 0.058 0.543 0.060 0.287 0.008 0.89 0.084 1.073-0.12 0.117-0.128 0.157-0.363 0.175-0.512 0.016-0.107 0.010-0.212 0.010-0.319 0-0.136 0-0.264-0.041-0.397-0.018-0.060-0.068-0.131-0.073-0.191-0.018-0.209 0.373-0.253 0.595-0.303 0.428-0.094 1.11-0.23 1.494 0.013 0.167 0.107 0.266 0.238 0.465 0.321 0.094 0.041 0.196 0.078 0.292 0.118 0.272 0.112 0.572 0.125 0.88 0.159 0.535 0.060 1.057 0.12 1.601 0.099 0.535-0.018 1.112-0.031 1.64-0.086 0.462-0.047 0.893-0.159 1.332-0.266 1.269-0.308 2.569-0.757 3.441-1.501 0.133-0.115 0.52-0.363 0.42-0.546-0.060-0.104-0.245-0.217-0.352-0.285z"></path>
</svg>
