<!-- Generated by IcoMoon.io -->
<svg version="1.1" xmlns="http://www.w3.org/2000/svg" width="32" height="32" viewBox="0 0 32 32">
<title>stockholm</title>
<path d="M12.205 30.908c-0.034-0.063-0.049-3.211-0.049-9.837v-9.745l-0.123-0.097c-0.086-0.068-0.114-0.125-0.094-0.19 0.031-0.098 0.292-0.182 1.22-0.392 0.965-0.218 1.068-0.253 1.133-0.38s0.083-0.558 0.031-0.692c-0.017-0.044-0.078-0.097-0.137-0.12-0.078-0.030-0.115-0.095-0.139-0.243-0.035-0.217-0.012-0.264 0.138-0.29 0.085-0.015 0.099-0.067 0.126-0.47 0.042-0.627 0.047-1.781 0.010-2.425-0.030-0.513-0.036-0.54-0.143-0.566-0.083-0.021-0.112-0.062-0.112-0.158 0-0.13 0.228-0.362 1.178-1.2 0.162-0.143 0.296-0.289 0.299-0.326s-0.071-0.149-0.163-0.251c-0.243-0.269-0.225-0.37 0.142-0.831 0.131-0.165 0.143-0.213 0.161-0.646l0.019-0.467-0.208-0.129c-0.239-0.148-0.423-0.307-0.423-0.365 0-0.022 0.078-0.039 0.172-0.039 0.16 0 0.17 0.008 0.142 0.12-0.025 0.099-0.008 0.129 0.094 0.167 0.167 0.063 0.165 0.064 0.165-0.078 0-0.106 0.016-0.121 0.107-0.096 0.059 0.016 0.124 0.029 0.145 0.029s0.014 0.044-0.014 0.096c-0.063 0.117 0.023 0.129 0.163 0.023 0.078-0.059 0.083-0.088 0.037-0.19-0.054-0.117-0.050-0.12 0.135-0.12 0.132 0 0.19 0.021 0.19 0.067 0 0.063-0.047 0.107-0.433 0.405-0.244 0.188-0.252 0.279-0.079 0.829 0.085 0.27 0.202 0.558 0.262 0.641 0.158 0.221 0.14 0.396-0.060 0.59-0.092 0.089-0.167 0.186-0.167 0.216 0 0.056 0.153 0.206 0.991 0.971 0.386 0.352 0.49 0.474 0.49 0.574 0 0.086-0.035 0.142-0.108 0.174l-0.108 0.047-0.026 3.344 0.124 0.1c0.083 0.067 0.133 0.163 0.15 0.292 0.023 0.174 0.015 0.195-0.093 0.222-0.142 0.036-0.177 0.142-0.178 0.539-0 0.192 0.022 0.312 0.066 0.348 0.036 0.030 0.352 0.119 0.701 0.198 0.871 0.196 1.386 0.326 1.513 0.38 0.142 0.060 0.137 0.209-0.012 0.306l-0.119 0.078v9.747c0 6.628-0.016 9.777-0.049 9.84-0.048 0.090-0.138 0.092-3.533 0.092s-3.485-0.002-3.533-0.092zM15.466 29.256c0.021-0.184 0.032-1.205 0.024-2.269-0.013-1.846-0.018-1.942-0.111-2.1-0.053-0.091-0.167-0.206-0.253-0.256-0.152-0.089-0.158-0.089-0.256-0.002-0.055 0.049-0.14 0.175-0.188 0.28-0.081 0.176-0.088 0.358-0.089 2.353-0.001 2.114 0.001 2.164 0.097 2.259 0.082 0.082 0.148 0.095 0.418 0.084l0.32-0.014zM16.86 29.569c0.050-0.082 0.079-3.788 0.032-4.146-0.037-0.283-0.077-0.389-0.221-0.585-0.097-0.132-0.19-0.24-0.208-0.24s-0.123 0.134-0.235 0.299l-0.203 0.299v4.27l0.106 0.074c0.118 0.083 0.681 0.105 0.728 0.029zM15.143 13.467c0.039-0.032 0.061-0.22 0.064-0.56 0.005-0.502 0.003-0.516-0.15-0.739-0.085-0.125-0.166-0.227-0.179-0.227s-0.087 0.090-0.164 0.198c-0.132 0.187-0.14 0.224-0.144 0.704-0.003 0.278 0.004 0.535 0.015 0.57 0.044 0.143 0.408 0.178 0.558 0.054zM16.874 12.845l0.013-0.647-0.296-0.283-0.14 0.156c-0.139 0.155-0.14 0.159-0.14 0.768 0 0.337 0.015 0.628 0.034 0.646s0.142 0.028 0.275 0.020l0.241-0.014zM16.611 8.309c0.049-0.805-0.003-2.64-0.077-2.686-0.097-0.062-1.534-0.043-1.598 0.021-0.042 0.042-0.057 0.473-0.057 1.64 0 0.871 0.015 1.598 0.033 1.616s0.4 0.027 0.848 0.020l0.815-0.013zM15.377 7.158c-0.016-0.026-0.013-0.21 0.005-0.409 0.041-0.434 0.12-0.541 0.401-0.541 0.104 0 0.199 0.017 0.212 0.038s0.050 0.227 0.082 0.458c0.049 0.351 0.048 0.427-0.007 0.46-0.091 0.056-0.658 0.051-0.694-0.006zM1.651 30.876c-0.073-0.031-0.147-0.092-0.164-0.137s-0.031-1.141-0.031-2.436c0-2.231 0.005-2.361 0.089-2.466 0.080-0.099 0.142-0.113 0.597-0.139 0.572-0.032 0.621-0.058 0.69-0.368 0.070-0.315-0.010-0.359-0.62-0.34l-0.494 0.015-0.013-1.085c-0.014-1.216-0.035-1.145 0.347-1.201 0.105-0.015 0.814-0.125 1.576-0.243 1.869-0.29 3.892-0.603 5.422-0.838 0.696-0.107 1.481-0.23 1.744-0.272s0.542-0.085 0.621-0.095c0.286-0.037 0.284-0.047 0.282 1.344-0.001 0.799-0.019 1.287-0.050 1.318-0.027 0.027-0.326 0.081-0.665 0.121-0.933 0.109-0.94 0.113-0.895 0.506 0.035 0.314 0.097 0.333 0.879 0.258 0.386-0.037 0.659-0.044 0.687-0.017 0.031 0.028 0.048 1.088 0.048 2.996 0 2.432-0.012 2.966-0.066 3.031-0.091 0.11-0.542 0.11-0.633-0-0.050-0.060-0.063-0.233-0.053-0.725 0.013-0.675-0.077-1.637-0.207-2.207-0.062-0.272-0.147-0.441-0.456-0.907-0.39-0.588-0.482-0.665-0.724-0.604-0.125 0.031-0.477 0.544-0.727 1.058-0.282 0.581-0.311 0.771-0.311 2.080 0 1.167-0.001 1.177-0.111 1.28-0.154 0.145-0.672 0.153-0.748 0.011-0.030-0.056-0.049-0.517-0.049-1.164 0-0.589-0.021-1.183-0.047-1.319-0.093-0.492-0.681-1.603-0.914-1.727-0.132-0.071-0.301-0.023-0.387 0.11-0.105 0.162-0.431 0.905-0.635 1.446l-0.18 0.478 0.009 1.067c0.006 0.756-0.007 1.087-0.047 1.135-0.064 0.078-0.551 0.093-0.665 0.021-0.060-0.038-0.076-0.26-0.096-1.349l-0.024-1.303-0.181-0.379c-0.246-0.515-0.5-0.926-0.61-0.984-0.214-0.114-0.307-0.020-0.634 0.638-0.172 0.346-0.337 0.715-0.368 0.82-0.031 0.108-0.066 0.702-0.080 1.361-0.014 0.644-0.043 1.19-0.066 1.215-0.061 0.065-0.887 0.064-1.043-0.001zM4.841 25.406c0.384-0.055 0.751-0.125 0.814-0.155 0.068-0.033 0.142-0.133 0.181-0.246 0.059-0.171 0.057-0.197-0.017-0.251-0.045-0.033-0.201-0.060-0.346-0.060-0.404 0-1.591 0.103-1.713 0.149-0.218 0.082-0.247 0.508-0.042 0.607 0.153 0.074 0.354 0.066 1.123-0.044zM8.2 25.102c0.334-0.037 0.672-0.102 0.752-0.143 0.179-0.093 0.3-0.316 0.281-0.518l-0.015-0.152-0.311 0.011c-0.37 0.013-1.431 0.145-1.683 0.21-0.211 0.054-0.295 0.186-0.255 0.399 0.052 0.278 0.234 0.307 1.231 0.195zM6.328 30.89l-0.119-0.060v-1.336c0-1.33 0.001-1.337 0.119-1.575 0.144-0.288 0.309-0.351 0.352-0.134 0.015 0.074 0.104 0.51 0.199 0.969 0.114 0.552 0.155 0.84 0.121 0.852-0.033 0.011-0.052 0.218-0.052 0.575-0 0.307-0.017 0.583-0.037 0.614-0.042 0.066-0.267 0.159-0.384 0.158-0.044-0-0.134-0.028-0.2-0.061zM21.568 30.905c-0.179-0.042-0.201-0.234-0.184-1.549l0.015-1.198 0.19-0.348c0.258-0.472 0.334-0.461 0.518 0.082 0.133 0.39 0.138 0.439 0.163 1.624 0.024 1.119 0.019 1.228-0.056 1.291-0.096 0.080-0.479 0.138-0.646 0.099zM24.734 30.906c-0.201-0.085-0.215-0.185-0.195-1.403 0.018-1.134 0.021-1.161 0.154-1.501 0.075-0.191 0.155-0.346 0.179-0.346 0.136 0 0.226 0.114 0.273 0.346 0.12 0.591 0.233 1.495 0.191 1.538-0.024 0.025-0.044 0.33-0.044 0.678s-0.018 0.644-0.040 0.657c-0.086 0.053-0.418 0.072-0.518 0.030zM26.106 30.906c-0.058-0.036-0.071-0.235-0.074-1.181-0.003-1.114-0.006-1.145-0.136-1.517-0.073-0.209-0.251-0.612-0.396-0.895-0.355-0.695-0.576-0.86-0.77-0.576-0.232 0.338-0.654 1.143-0.764 1.456-0.116 0.329-0.121 0.39-0.107 1.16 0.020 1.045 0.009 1.348-0.051 1.461-0.042 0.078-0.103 0.092-0.404 0.092s-0.362-0.014-0.404-0.092c-0.030-0.056-0.049-0.531-0.049-1.212 0-0.616-0.022-1.233-0.048-1.372-0.056-0.293-0.412-1.149-0.635-1.522-0.2-0.336-0.4-0.434-0.623-0.304-0.165 0.096-0.538 0.609-0.721 0.991-0.189 0.394-0.263 0.897-0.321 2.183-0.030 0.665-0.076 1.236-0.102 1.269-0.057 0.072-0.637 0.082-0.68 0.012-0.039-0.063-0.043-6.015-0.004-6.054s0.365-0.025 0.922 0.039c0.514 0.059 0.617 0.026 0.661-0.213 0.035-0.184-0.068-0.427-0.203-0.482-0.047-0.019-0.323-0.053-0.614-0.075s-0.587-0.063-0.657-0.090l-0.128-0.049v-1.312c0-0.722 0.016-1.321 0.036-1.333 0.036-0.021 0.186 0.001 2.424 0.35 0.657 0.102 1.839 0.286 2.627 0.408s1.465 0.238 1.505 0.258c0.060 0.031 0.074 0.22 0.084 1.172 0.007 0.655-0.006 1.158-0.032 1.189-0.032 0.039-0.18 0.041-0.532 0.009-0.559-0.051-0.619-0.021-0.619 0.315 0 0.304-0.012 0.3 1.724 0.488 0.345 0.037 0.33 0.107 0.33-1.62v-1.549l0.129-0.085c0.11-0.072 0.242-0.085 0.88-0.085 0.689 0 0.762 0.008 0.886 0.101l0.135 0.101 0.013 1.641c0.007 0.937 0.032 1.66 0.057 1.686s0.124 0.058 0.221 0.073c0.117 0.019 0.21 0.074 0.277 0.164 0.099 0.133 0.101 0.17 0.1 2.389-0.001 1.24-0.017 2.312-0.036 2.384-0.053 0.196-0.233 0.257-0.738 0.251-0.242-0.003-0.454-0.018-0.47-0.034-0.075-0.075-0.114-0.457-0.116-1.135-0.001-0.407-0.023-0.952-0.048-1.211-0.041-0.418-0.071-0.52-0.267-0.908-0.53-1.049-0.599-1.064-1.111-0.23-0.405 0.659-0.436 0.814-0.436 2.208-0.001 0.828-0.017 1.145-0.060 1.201-0.070 0.088-0.551 0.153-0.655 0.088zM24.471 25.115c0.067-0.068 0.078-0.545 0.012-0.586-0.025-0.015-0.417-0.070-0.872-0.122s-0.913-0.106-1.018-0.121c-0.125-0.018-0.221-0.005-0.279 0.038-0.077 0.057-0.081 0.090-0.036 0.254 0.028 0.104 0.1 0.247 0.16 0.317 0.1 0.12 0.153 0.134 0.729 0.197 0.809 0.088 1.232 0.096 1.304 0.023zM27.441 30.878c-0.057-0.068-0.070-0.273-0.069-1.068 0.001-0.94 0.007-1.005 0.138-1.449 0.179-0.611 0.212-0.655 0.347-0.454 0.071 0.106 0.135 0.344 0.202 0.752 0.115 0.696 0.122 0.802 0.11 1.511-0.012 0.644-0.054 0.722-0.417 0.764-0.195 0.023-0.254 0.012-0.311-0.057zM3.388 30.803c-0.018-0.056-0.037-0.319-0.043-0.585s-0.025-0.516-0.042-0.556c-0.055-0.125 0.228-1.66 0.326-1.767 0.113-0.124 0.132-0.121 0.225 0.038 0.059 0.1 0.097 0.399 0.153 1.206 0.041 0.59 0.085 1.207 0.097 1.371 0.027 0.355-0.015 0.395-0.421 0.395-0.226 0-0.267-0.014-0.295-0.101zM9.309 30.871c-0.123-0.090-0.138-0.229-0.104-0.954 0.062-1.342 0.124-1.91 0.24-2.201 0.059-0.147 0.129-0.275 0.156-0.283s0.104 0.036 0.171 0.098c0.109 0.101 0.136 0.196 0.231 0.824 0.060 0.391 0.125 0.791 0.146 0.889 0.021 0.102 0.019 0.179-0.005 0.179s-0.043 0.322-0.043 0.717v0.717l-0.131 0c-0.072 0-0.239 0.012-0.37 0.026s-0.262 0.009-0.291-0.012zM27.18 21.796c-0.15-0.032-0.454-0.17-0.454-0.206 0-0.080 0.233-0.24 0.349-0.24 0.183 0 0.301-0.143 0.341-0.412 0.069-0.468 0.297-0.783 0.568-0.783 0.103 0 0.127-0.108 0.127-0.576 0-0.714 0.174-0.974 0.46-0.688 0.117 0.117 0.12 0.136 0.088 0.518-0.040 0.475 0.010 0.601 0.338 0.87 0.274 0.224 0.356 0.381 0.356 0.678 0 0.269 0.065 0.348 0.358 0.439 0.311 0.096 0.402 0.278 0.189 0.375-0.117 0.053-2.487 0.074-2.721 0.024z"></path>
</svg>
