<!-- Generated by IcoMoon.io -->
<svg version="1.1" xmlns="http://www.w3.org/2000/svg" width="32" height="32" viewBox="0 0 32 32">
<title>storm_and_sea</title>
<path d="M14.106 29.88c-0.276-0.086 1.22-0.198 3.645-0.274 2.262-0.071 4.533-0.165 5.047-0.209l0.935-0.081-1.028 0.295c-1.134 0.325-7.752 0.532-8.599 0.269zM9.892 28.676c-1.724-0.664-2.314-1.005-3.575-2.059l-1.51-1.264-0.39-1.532c-0.589-2.313-0.647-3.131-0.316-4.461 0.162-0.651 0.372-1.367 0.466-1.59 0.187-0.444 2.293-1.542 3.37-1.757 0.585-0.117 0.599-0.133 0.136-0.152-0.655-0.027-2.74 0.91-3.678 1.653-0.393 0.311-1.040 1.071-1.437 1.687-0.757 1.174-1.069 1.412-0.924 0.704 0.047-0.231 0.14-0.753 0.206-1.16s0.275-1.037 0.465-1.402c0.516-0.99 2.033-2.626 2.435-2.626 0.194 0 0.442-0.166 0.551-0.37 0.12-0.224 0.62-0.493 1.268-0.682 0.919-0.268 1.321-0.283 2.841-0.106 2.366 0.276 3.594 0.887 4.479 2.229l0.642 0.973 1.041-0.583c1.466-0.821 1.449-0.791 0.985-1.746l-0.411-0.845 1.878-3.028-0.573-0.893c-0.479-0.746-0.733-0.945-1.547-1.208-1.768-0.571-3.436-1.883-4.339-3.411-0.284-0.48-0.52-0.61-1.439-0.791-0.605-0.119-1.454-0.376-1.887-0.57l-0.787-0.354 4.142 0.075 0.526 1.083c0.978 2.011 3.062 3.31 5.311 3.31 0.598 0 1.368-0.098 1.712-0.218 0.486-0.169 0.642-0.167 0.701 0.010 0.042 0.126 0.343 0.581 0.67 1.012 0.443 0.585 1.020 0.995 2.271 1.612 1.461 0.721 1.833 0.828 2.892 0.829 0.807 0.001 1.429-0.111 1.851-0.333 0.59-0.31 0.649-0.312 0.81-0.023 0.096 0.171 0.426 0.598 0.733 0.948 0.33 0.376 0.534 0.796 0.499 1.025-0.058 0.371-0.101 0.362-0.995-0.212-0.875-0.562-1.031-0.598-2.43-0.559-2.355 0.066-4.658-0.832-6.162-2.402-0.473-0.494-0.675-0.569-1.541-0.569h-0.996l0.423 0.65c2.367 3.636 2.269 3.431 2.004 4.234-0.23 0.698-0.21 0.809 0.364 1.993 0.55 1.135 0.748 1.347 2.087 2.236 0.878 0.582 1.689 0.983 1.995 0.984 0.346 0.002 0.435 0.054 0.271 0.158-0.185 0.117-0.129 0.231 0.227 0.464l0.472 0.309-0.374 0.873c-0.451 1.053-0.434 1.068 1.509 1.371 1.758 0.273 2.039 0.412 1.691 0.831-0.137 0.165-0.208 0.34-0.158 0.389 0.176 0.176 0.717-0.611 1.17-1.703 0.669-1.611 0.617-0.568-0.073 1.474-0.645 1.907-1.359 3.283-2.044 3.936-0.27 0.258-1.207 0.779-2.081 1.157-2.144 0.928-4.256 1.198-9.347 1.194l-4.019-0.003zM16.116 27.030c-0.825-0.674-0.861-0.846-0.234-1.131 0.257-0.117 0.467-0.284 0.467-0.37 0-0.299-0.573-0.154-1.306 0.331-0.661 0.437-0.81 0.467-1.445 0.285l-0.708-0.202 0.72 0.101c0.569 0.080 0.872 0 1.445-0.379 0.398-0.264 0.986-0.479 1.307-0.479 0.599 0 2.604-1.068 2.604-1.387 0-0.098-0.177-0.366-0.393-0.597s-0.341-0.504-0.277-0.607c0.064-0.104 0.914-0.754 1.889-1.445s1.772-1.348 1.77-1.461c-0.001-0.112-0.538-1.34-1.193-2.728-1.119-2.371-1.175-2.554-0.933-3.028 0.142-0.278 0.258-0.594 0.258-0.704 0-0.352-1.365-2.268-1.508-2.116-0.076 0.081-0.479 0.692-0.897 1.357l-0.759 1.211 0.46 0.785c0.253 0.432 0.46 0.874 0.46 0.982s-0.337 0.368-0.748 0.578-0.747 0.443-0.747 0.518c0.001 0.075 0.168 0.389 0.373 0.697s0.372 0.664 0.373 0.791c0.001 0.127-0.414 0.54-0.922 0.92-0.77 0.575-0.959 0.838-1.139 1.586-0.345 1.437-1.147 2.477-2.271 2.944-2.171 0.902-3.619 0.686-5.060-0.755-0.828-0.828-0.889-0.953-0.889-1.844 0-1.203 0.21-1.596 0.991-1.854 1.339-0.442 2.53 0.663 1.656 1.536-0.213 0.213-0.462 0.307-0.596 0.224-0.172-0.106-0.153-0.185 0.075-0.312 0.363-0.203 0.407-0.713 0.061-0.713-0.611 0-0.93 0.995-0.467 1.458 0.328 0.328 1.168 0.274 1.636-0.105 0.254-0.206 0.446-0.627 0.513-1.124 0.092-0.686 0.146-0.762 0.392-0.559 0.361 0.299 0.964 1.612 0.97 2.112 0.002 0.229-0.224 0.515-0.57 0.719-0.316 0.186-0.532 0.381-0.48 0.432s0.474-0.169 0.94-0.489c0.651-0.448 0.875-0.736 0.971-1.247 0.262-1.396-0.371-3.397-1.446-4.576-0.69-0.756-4.239-2.137-4.59-1.786-0.065 0.065 0.014 0.117 0.174 0.117s0.869 0.185 1.573 0.41c1.276 0.409 1.279 0.411 0.627 0.536-0.598 0.115-0.572 0.128 0.313 0.151 0.749 0.019 1.099 0.136 1.551 0.516 1.145 0.964 1.894 3.119 1.609 4.635-0.113 0.601-0.482 0.961-0.482 0.469 0-0.11-0.177-0.61-0.393-1.112-0.317-0.737-0.617-1.059-1.555-1.67-1.301-0.848-1.877-0.925-3.006-0.404-1.675 0.773-2.246 2.24-1.574 4.037 0.476 1.273 2.479 3.201 4.168 4.012l1.145 0.55 0.588-0.568c0.369-0.357 0.717-0.535 0.935-0.479 0.318 0.082 0.316 0.092-0.027 0.117-0.359 0.026-1.154 0.887-0.98 1.060 0.146 0.146 3.368 0.601 4.345 0.613l0.935 0.012-0.701-0.573zM19.779 27.206c0.523-0.363 0.553-0.367 0.27-0.041-0.315 0.364-0.301 0.367 1.182 0.24 0.826-0.071 1.551-0.179 1.612-0.239s-0.156-0.203-0.481-0.316c-0.744-0.259-0.745-0.454-0.005-0.837l0.586-0.303-0.562-0.562c-0.504-0.504-0.608-0.538-1.007-0.329-0.436 0.229-0.438 0.226-0.11-0.143 0.326-0.368 0.308-0.399-0.796-1.355-0.692-0.599-1.238-0.937-1.409-0.872-0.378 0.145-0.351 0.37 0.095 0.773 0.206 0.186 0.374 0.437 0.374 0.557 0 0.19-1.357 1.181-3.058 2.233l-0.535 0.331 0.628 0.611c0.54 0.525 0.769 0.615 1.627 0.636 0.752 0.019 1.145-0.076 1.589-0.384zM20.007 26.362c-0.101-0.266-0.080-0.288 0.105-0.105 0.128 0.127 0.185 0.278 0.128 0.335s-0.162-0.046-0.232-0.231zM19.714 25.766c0-0.092 0.138-0.22 0.307-0.285 0.257-0.098 0.268-0.071 0.071 0.167-0.269 0.324-0.377 0.358-0.377 0.118zM24.337 26.582c0.377-0.157 0.984-0.515 1.349-0.794s0.711-0.508 0.769-0.508c0.058-0 0.433-0.264 0.835-0.587 0.606-0.486 0.691-0.633 0.501-0.863-0.184-0.222-0.174-0.324 0.053-0.512 0.451-0.375 0.336-0.521-0.512-0.653-0.437-0.068-0.928-0.161-1.092-0.206-0.34-0.095-1.045 1.249-0.834 1.59 0.069 0.112 0.051 0.203-0.041 0.203-0.375 0-0.38-0.272-0.017-0.983 0.404-0.791 0.293-1.064-0.434-1.070-0.523-0.004-0.553-0.309-0.119-1.202 0.227-0.467 0.376-0.883 0.331-0.925-0.46-0.422-3.274-2.108-3.318-1.988-0.032 0.087 0.12 0.507 0.338 0.934 0.469 0.919 0.46 0.934-1.209 2.066-0.672 0.456-1.222 0.874-1.222 0.929s0.841 0.882 1.869 1.837 1.869 1.816 1.869 1.914c0 0.098-0.218 0.277-0.484 0.398-0.451 0.205-0.461 0.237-0.151 0.463 0.429 0.313 0.683 0.306 1.519-0.043zM26.514 25.036c0.073-0.118-0.096-0.328-0.392-0.489-0.616-0.334-0.462-0.39 0.219-0.080 0.517 0.236 0.598 0.434 0.26 0.642-0.13 0.081-0.165 0.052-0.088-0.074zM9.41 22.602c-0.167-0.070-0.651-0.442-1.075-0.828-0.852-0.774-0.97-1.314-0.471-2.157l0.301-0.508-0.394 0.441c-0.25 0.28-0.394 0.694-0.394 1.133 0 0.565 0.111 0.773 0.608 1.134 0.334 0.243 0.675 0.553 0.757 0.689s0.335 0.242 0.561 0.234c0.322-0.010 0.346-0.041 0.108-0.14zM10.605 22.633c-0.127-0.051-0.379-0.054-0.561-0.007s-0.078 0.089 0.23 0.093c0.308 0.004 0.457-0.035 0.331-0.086zM16.199 18.711c0.391-0.271 0.711-0.577 0.711-0.679 0-0.199-0.731-1.445-0.848-1.445-0.038 0-0.291 0.101-0.562 0.224-0.415 0.189-0.475 0.31-0.383 0.771 0.060 0.301 0.109 0.789 0.109 1.084 0 0.66 0.078 0.664 0.971 0.045zM9.059 29.12c-0.565-0.068-1.5-0.362-2.077-0.653-0.892-0.45-1.123-0.68-1.542-1.536-0.271-0.553-0.493-1.054-0.493-1.112s0.652 0.435 1.449 1.095c1.081 0.896 1.816 1.333 2.897 1.724 1.944 0.702 1.925 0.741-0.234 0.482zM23.979 29.171c0.135-0.054 0.296-0.047 0.358 0.015s-0.048 0.106-0.245 0.098c-0.218-0.009-0.262-0.053-0.113-0.113zM25.416 28.453c1.223-0.576 1.545-0.573 0.467 0.004-0.463 0.248-0.967 0.447-1.122 0.443s0.14-0.205 0.654-0.447zM4.444 26.728c-0.412-0.488-0.878-1.14-1.036-1.449-0.395-0.77-1.265-3.572-1.265-4.076 0-0.488 1.891-3.499 2-3.186 0.041 0.119-0.058 0.73-0.221 1.359-0.194 0.747-0.256 1.481-0.18 2.121 0.16 1.346 0.976 4.369 1.408 5.217 0.634 1.243 0.334 1.249-0.707 0.013zM27.724 19.654c-1.046-0.865-1.195-1.011-1.037-1.011 0.072 0 0.468 0.305 0.881 0.678s1.023 0.743 1.356 0.822c0.56 0.133 0.568 0.145 0.108 0.163-0.314 0.012-0.794-0.227-1.309-0.653zM25.65 18.893c0.128-0.052 0.339-0.052 0.467 0s0.023 0.094-0.234 0.094c-0.257 0-0.362-0.042-0.234-0.094zM24.107 10.309c-1.158-0.413-2.556-1.578-3.218-2.683-0.331-0.552-0.625-1.074-0.654-1.162s-0.432 0.030-0.894 0.262c-1.156 0.577-3.133 0.577-4.233-0.001-1.368-0.719-2.497-2.409-2.497-3.738 0-0.412 1.332-1.191 1.447-0.846 0.034 0.104 0.301 0.563 0.591 1.022 0.644 1.015 1.537 1.476 3.108 1.602 0.953 0.077 1.371 0.007 2.383-0.398 0.675-0.27 1.312-0.491 1.415-0.491s0.324 0.484 0.49 1.075c0.476 1.695 0.663 2.068 1.334 2.657 1.213 1.065 2.899 1.133 4.523 0.182 0.34-0.199 0.642-0.362 0.67-0.362s0.362 0.45 0.741 1c0.663 0.963 0.678 1.020 0.406 1.542-0.156 0.298-0.283 0.453-0.284 0.344s-0.12-0.36-0.265-0.558c-0.249-0.341-0.283-0.343-0.617-0.041-0.915 0.828-3.007 1.108-4.447 0.594zM25.317 6.766c-1.463-0.451-2.64-1.722-3.235-3.493-0.101-0.3-0.161-0.298-0.91 0.043-0.997 0.453-2.231 0.471-3.433 0.050l-0.921-0.323 1.585-0.148c0.96-0.090 1.865-0.294 2.296-0.519 0.698-0.364 2.195-0.515 2.195-0.221 0 0.346 1.973 2.326 2.675 2.684 0.604 0.308 0.985 0.369 1.823 0.293 1.051-0.095 1.062-0.091 1.355 0.524 0.347 0.728 0.233 0.878-0.9 1.189-0.952 0.261-1.476 0.245-2.529-0.080zM25.935 3.88c-0.359-0.219-0.649-0.577-0.717-0.887-0.063-0.286-0.146-0.625-0.186-0.754-0.104-0.338 0.239-0.292 1.795 0.237 1.417 0.482 2.451 1.332 1.982 1.63-0.455 0.29-2.262 0.148-2.875-0.226z"></path>
</svg>
