<!-- Generated by IcoMoon.io -->
<svg version="1.1" xmlns="http://www.w3.org/2000/svg" width="32" height="32" viewBox="0 0 32 32">
<title>strange_moons</title>
<path d="M19.217 28.963c-0.687-0.143-1.204-0.575-1.66-1.386-0.18-0.321-0.393-0.511-0.904-0.806-0.479-0.277-0.876-0.586-1.326-1.034-0.557-0.554-1.084-1.462-1.471-2.537-0.075-0.208-0.18-0.452-0.232-0.541s-0.125-0.253-0.16-0.363c-0.127-0.397-0.625-0.651-1.41-0.719-0.395-0.034-0.537-0.077-1.001-0.301-0.452-0.218-0.698-0.294-1.488-0.459-1.265-0.264-1.55-0.299-2.218-0.275-0.405 0.015-0.627 0.049-0.773 0.119-0.178 0.086-0.234 0.090-0.433 0.032-0.126-0.037-0.472-0.13-0.769-0.208-0.684-0.178-1.175-0.464-1.562-0.907-0.158-0.181-0.326-0.389-0.374-0.464-0.225-0.351-0.401-1.846-0.455-3.871l-0.028-1.030 0.161-0.349c0.18-0.391 0.344-0.618 1.24-1.719 0.244-0.299 0.48-0.613 0.525-0.697 0.139-0.258 0.84-1.012 1.549-1.664l0.675-0.622 0.46-0.121c0.483-0.128 1.414-0.574 1.859-0.893l0.263-0.188 1.801 0.035 0.269-0.178c0.148-0.098 0.394-0.214 0.547-0.259s0.418-0.165 0.589-0.268l0.312-0.188 0.846 0.001c0.734 0.001 0.917 0.019 1.387 0.141 0.827 0.215 0.782 0.215 1.28-0.015 0.439-0.202 0.471-0.209 1.155-0.227 0.731-0.019 1.272 0.048 2.164 0.272 0.238 0.060 0.616 0.142 0.84 0.183 0.567 0.104 0.841 0.21 1.159 0.449 0.401 0.302 0.461 0.326 1.163 0.469 0.533 0.108 0.734 0.18 1.205 0.429 0.311 0.164 0.623 0.361 0.695 0.437s0.24 0.362 0.375 0.636c0.245 0.497 0.246 0.498 0.573 0.633 0.18 0.074 0.448 0.218 0.595 0.319 0.407 0.28 0.938 0.861 1.082 1.184 0.1 0.224 0.17 0.304 0.321 0.367 0.107 0.045 0.256 0.074 0.332 0.066 0.124-0.014 0.15 0.019 0.259 0.317 0.107 0.293 0.126 0.477 0.157 1.547 0.027 0.925 0.060 1.313 0.14 1.631 0.057 0.23 0.128 0.447 0.156 0.482 0.032 0.040 0.035 0.271 0.007 0.606-0.025 0.298-0.046 0.711-0.048 0.92-0.003 0.39 0 0.381-0.41 1.153-0.084 0.158-0.218 0.321-0.298 0.363-0.296 0.153-0.349 0.378-0.356 1.507l-0.006 1.021-0.287 0.568c-0.486 0.96-0.818 1.336-1.48 1.674-0.307 0.157-0.895 0.316-1.359 0.368-0.622 0.070-1.404 0.336-1.515 0.517-0.019 0.031-0.187 0.153-0.373 0.27-0.352 0.222-0.465 0.366-0.468 0.595-0.003 0.177 0.083 0.605 0.192 0.965 0.104 0.341 0.077 0.516-0.143 0.929-0.166 0.312-0.473 0.569-1.113 0.932l-0.313 0.178-0.839 0.010c-0.461 0.005-0.938-0.011-1.060-0.036zM21.387 28.307c0.131-0.033 0.331-0.14 0.443-0.237 0.203-0.176 0.205-0.181 0.205-0.58 0-0.367-0.017-0.431-0.195-0.723-0.107-0.176-0.253-0.464-0.324-0.638-0.085-0.21-0.187-0.357-0.301-0.435-0.285-0.194-0.88-0.873-0.998-1.14-0.119-0.27-0.209-0.949-0.211-1.598-0.002-0.543-0.106-0.722-0.469-0.802-0.471-0.104-2.528-0.189-3.582-0.149-1.364 0.052-1.47 0.106-1.467 0.752 0.003 0.584 0.444 1.375 1.465 2.627 0.247 0.302 0.28 0.323 1.182 0.732 0.073 0.033 0.538 0.465 1.034 0.961 0.915 0.915 1.124 1.069 1.634 1.207 0.344 0.093 1.255 0.106 1.583 0.024zM22.607 24.926c0.162-0.047 0.403-0.152 0.537-0.234 0.256-0.155 0.437-0.21 1.19-0.359 0.984-0.195 1.241-0.28 1.613-0.532 0.508-0.345 0.889-0.755 1.11-1.197 0.263-0.525 0.305-0.725 0.291-1.398l-0.012-0.587-0.195-0.178c-0.457-0.419-2.003-0.455-3.193-0.074-0.189 0.061-0.553 0.128-0.809 0.149-0.391 0.033-0.506 0.066-0.73 0.21-0.146 0.094-0.412 0.242-0.591 0.328-0.373 0.18-1.006 0.792-1.128 1.090-0.137 0.334-0.168 1.034-0.060 1.363 0.133 0.408 0.484 0.991 0.689 1.145 0.488 0.367 0.767 0.426 1.287 0.273zM17.869 21.512c1.507-0.031 1.6-0.051 1.704-0.367 0.076-0.232-0.022-0.618-0.296-1.163-0.26-0.517-0.302-0.725-0.224-1.102 0.086-0.411 0.218-0.503 0.333-0.23 0.044 0.105 0.080 0.217 0.080 0.248 0 0.25 0.524 1.324 0.699 1.432 0.028 0.017 0.067 0.104 0.086 0.193 0.045 0.205 0.214 0.324 0.458 0.324 0.221-0 0.391-0.098 0.835-0.479 0.385-0.331 0.683-0.441 1.191-0.441 0.229-0 0.443-0.032 0.534-0.079 0.083-0.043 0.235-0.095 0.338-0.114 0.148-0.028 0.187-0.061 0.187-0.158 0-0.067 0.036-0.153 0.081-0.19 0.093-0.078 0.215-0.458 0.299-0.938 0.060-0.343 0.207-0.788 0.354-1.071 0.103-0.2 0.378-0.372 0.592-0.371 0.31 0.001 0.324 0.057 0.12 0.465-0.103 0.205-0.251 0.561-0.331 0.792s-0.204 0.508-0.278 0.616c-0.155 0.229-0.162 0.295-0.055 0.502 0.131 0.253 0.301 0.286 1.337 0.267 0.814-0.016 0.965-0.032 1.139-0.126 0.778-0.419 0.883-0.535 1.311-1.44 0.235-0.497 0.246-0.542 0.246-1.004 0-0.439-0.014-0.506-0.155-0.728-0.085-0.134-0.225-0.3-0.311-0.368-0.135-0.106-0.197-0.119-0.454-0.091-0.953 0.103-0.946 0.103-1.275-0.011-0.271-0.094-0.999-0.193-1.336-0.182-0.071 0.002-0.095-0.040-0.095-0.173 0-0.35 0.048-0.366 0.821-0.275 0.377 0.044 0.837 0.129 1.021 0.188 0.658 0.21 1.272 0.102 1.405-0.248 0.083-0.219 0.063-1.134-0.032-1.462-0.084-0.291-0.521-0.961-0.854-1.311-0.094-0.099-0.284-0.241-0.423-0.317-0.202-0.11-0.259-0.174-0.286-0.319-0.074-0.394-0.621-0.718-1.093-0.647-0.189 0.028-0.304 0.087-0.442 0.225-0.183 0.183-0.186 0.192-0.157 0.55 0.021 0.263 0.090 0.503 0.253 0.871 0.212 0.48 0.219 0.513 0.132 0.609-0.050 0.056-0.107 0.101-0.126 0.101-0.096 0-0.711-0.662-0.873-0.938-0.302-0.517-0.49-0.557-1.157-0.245-0.221 0.103-0.487 0.175-0.765 0.206-0.48 0.054-0.517 0.034-0.495-0.268 0.014-0.188 0.017-0.19 0.313-0.222 0.608-0.065 1.136-0.295 1.68-0.729 0.565-0.451 0.807-0.796 0.807-1.152 0-0.184-0.030-0.242-0.203-0.385-0.274-0.228-1.232-0.705-1.416-0.705-0.22 0-0.632 0.299-0.926 0.672-0.22 0.279-0.356 0.383-0.892 0.68-0.348 0.193-0.685 0.382-0.749 0.42-0.169 0.099-0.598 0.064-0.619-0.050-0.018-0.097 0.76-0.611 1.264-0.834 0.501-0.222 0.782-0.542 0.782-0.892 0-0.281-0.157-0.476-0.526-0.652-0.185-0.088-0.405-0.219-0.49-0.29-0.249-0.209-0.714-0.443-1.137-0.571-0.36-0.109-0.481-0.117-1.38-0.097-0.966 0.022-0.993 0.026-1.397 0.197-0.226 0.096-0.47 0.237-0.541 0.313-0.118 0.126-0.129 0.184-0.129 0.661 0 0.462 0.018 0.563 0.157 0.863 0.168 0.364 0.438 0.627 0.712 0.691 0.087 0.021 0.283 0.107 0.435 0.192s0.37 0.174 0.487 0.198c0.14 0.029 0.218 0.077 0.23 0.143 0.029 0.153-0.088 0.192-0.578 0.193-0.402 0.001-0.462-0.012-0.549-0.12-0.072-0.089-0.155-0.12-0.32-0.12-0.302 0-0.473 0.175-0.546 0.56-0.050 0.265-0.306 0.747-0.607 1.142-0.167 0.219-1.032 1.082-1.085 1.082-0.027 0-0.121-0.073-0.21-0.162-0.195-0.195-0.214-0.158 0.48-0.916 0.618-0.675 0.85-1.056 0.958-1.575 0.148-0.709 0.119-0.963-0.231-2.054-0.091-0.283-0.18-0.584-0.198-0.67-0.042-0.195-0.291-0.449-0.49-0.499-0.182-0.046-0.84 0.053-1.527 0.229-0.276 0.071-0.659 0.128-0.854 0.128-0.423 0-0.686 0.099-0.815 0.307-0.052 0.084-0.157 0.221-0.233 0.304-0.294 0.323-0.137 0.742 0.466 1.241 0.41 0.339 0.888 0.529 1.334 0.529 0.273 0 0.363 0.022 0.44 0.107 0.093 0.103 0.093 0.108-0 0.144-0.053 0.020-0.232 0.118-0.396 0.218-0.229 0.138-0.361 0.18-0.559 0.18-0.255 0-0.261-0.004-0.391-0.26-0.17-0.336-0.269-0.413-0.526-0.413-0.191 0-0.252 0.042-0.683 0.47-0.398 0.395-0.536 0.495-0.868 0.63l-0.395 0.16 0.032-0.655 0.363-0.222c0.2-0.122 0.492-0.334 0.649-0.471 0.267-0.233 0.286-0.265 0.281-0.487-0.007-0.353-0.183-0.678-0.608-1.126-0.308-0.324-0.412-0.401-0.543-0.401-0.23 0-0.408 0.136-0.538 0.413-0.128 0.273-0.493 0.547-0.846 0.635-0.121 0.030-0.354 0.114-0.517 0.185s-0.393 0.143-0.509 0.159c-0.205 0.028-0.603 0.27-1.094 0.666-0.316 0.255-1.043 1.107-1.377 1.614-0.156 0.237-0.353 0.511-0.438 0.609-0.285 0.328-0.174 0.621 0.304 0.806 0.178 0.069 0.372 0.125 0.433 0.126s0.3 0.061 0.532 0.135c0.312 0.1 0.54 0.135 0.881 0.135 0.559 0 0.775-0.093 1.082-0.468l0.213-0.259 0.033-0.651c0.041-0.807 0.128-1.057 0.37-1.057 0.202 0 0.205 0.040 0.057 0.676-0.13 0.56-0.135 0.769-0.023 1.050 0.131 0.326 0.269 0.365 1.433 0.403l1.004 0.033 0.535 0.25c0.835 0.39 0.992 0.548 0.834 0.841-0.057 0.106-0.062 0.105-0.249-0.038-0.105-0.080-0.292-0.177-0.415-0.215s-0.335-0.119-0.469-0.18c-0.264-0.119-1.198-0.303-1.811-0.357-0.388-0.034-0.683 0.015-1.758 0.295-0.575 0.15-1.366 0.17-1.758 0.045-0.149-0.047-0.417-0.126-0.595-0.174s-0.519-0.149-0.757-0.224c-0.518-0.163-0.567-0.165-0.746-0.024-0.151 0.119-0.202 0.303-0.31 1.11-0.107 0.8 0.051 1.024 0.79 1.116 0.717 0.089 1.754 0.651 1.754 0.951 0 0.086-0.516-0.046-0.742-0.189-0.305-0.194-0.544-0.261-1.107-0.311-0.401-0.036-0.421-0.032-0.56 0.107-0.159 0.159-0.162 0.266-0.024 1.031 0.339 1.885 0.459 2.055 1.686 2.386 0.506 0.137 0.914 0.209 1.37 0.242 0.357 0.026 0.795 0.084 0.974 0.13 0.437 0.11 1.878 0.17 2.171 0.089 0.351-0.096 0.486-0.244 0.762-0.83 0.237-0.504 0.292-0.578 0.704-0.938 0.761-0.665 1.045-0.715 0.942-0.167-0.059 0.314-0.299 0.586-0.598 0.675-0.272 0.081-0.478 0.295-0.549 0.57-0.032 0.122-0.080 0.297-0.108 0.389-0.182 0.597 0.116 0.863 1.179 1.050 0.185 0.033 0.422 0.095 0.527 0.139 0.469 0.196 1.709 0.142 1.951-0.085 0.069-0.065 0.216-0.329 0.326-0.586 0.443-1.035 0.668-1.36 1.106-1.598 0.262-0.143 0.977-0.372 1.022-0.328 0.012 0.012-0.006 0.095-0.040 0.186s-0.089 0.238-0.123 0.328c-0.038 0.103-0.152 0.217-0.302 0.305-0.282 0.165-0.747 0.703-0.892 1.032-0.135 0.306-0.175 0.709-0.086 0.873 0.097 0.18 0.415 0.344 0.584 0.301 0.074-0.019 0.744-0.047 1.488-0.062zM6.385 18.567c-0.214-0.062-0.218-0.097-0.027-0.275 0.097-0.091 0.241-0.152 0.415-0.177 0.381-0.055 0.786-0.253 1.010-0.496 0.189-0.204 0.428-0.733 0.428-0.948 0-0.232 0.366-0.75 0.529-0.75 0.042 0 0.177 0.104 0.301 0.232 0.318 0.327 0.914 0.541 1.578 0.567 0.556 0.021 0.785-0.062 0.974-0.354 0.12-0.185 0.462-0.357 0.835-0.418l0.24-0.039-0.184 0.236c-0.568 0.731-1.219 1.183-1.87 1.296-0.419 0.073-0.692 0.005-0.997-0.25-0.38-0.318-0.704-0.212-0.925 0.302-0.165 0.383-0.808 0.925-1.264 1.065-0.252 0.077-0.788 0.081-1.042 0.008zM21.395 17.888c-0.116-0.116 0.077-0.71 0.565-1.74 0.301-0.635 0.34-0.94 0.159-1.237-0.146-0.24-0.294-0.319-0.733-0.392-0.821-0.136-0.973-0.184-0.991-0.314-0.017-0.12-0.013-0.121 0.487-0.090 0.279 0.018 0.709 0.091 0.964 0.165 0.831 0.24 0.826 0.236 0.889 0.696 0.049 0.362 0.235 0.923 0.332 1.004 0.043 0.036 0.078 0.111 0.078 0.166s0.034 0.102 0.076 0.102c0.078 0 0.195 0.264 0.195 0.439 0 0.091-0.252 0.373-0.333 0.373-0.020 0-0.053-0.073-0.072-0.162-0.051-0.234-0.28-0.397-0.506-0.36-0.241 0.039-0.324 0.116-0.366 0.344-0.020 0.105-0.105 0.328-0.19 0.495s-0.155 0.332-0.155 0.367c-0 0.034-0.077 0.089-0.171 0.122-0.201 0.070-0.182 0.068-0.226 0.023zM15.785 16.85c-0.089-0.089-0.162-0.195-0.162-0.236 0-0.084 0.273-0.351 0.676-0.663 0.668-0.517 0.966-0.968 1.055-1.601 0.058-0.408 0.369-1.303 0.463-1.333 0.032-0.010 0.141 0.037 0.244 0.106 0.255 0.171 0.272 0.364 0.054 0.612-0.101 0.115-0.166 0.249-0.166 0.342 0 0.084-0.016 0.337-0.035 0.564l-0.035 0.412 0.184 0.184c0.169 0.169 0.219 0.187 0.623 0.222 0.423 0.037 1.079 0.22 1.314 0.366 0.13 0.081 0.139 0.145 0.047 0.345l-0.065 0.143-0.512-0.038c-0.282-0.021-0.608-0.072-0.726-0.114s-0.297-0.075-0.399-0.075c-0.102 0-0.26-0.039-0.352-0.086-0.246-0.127-0.416-0.069-1.062 0.365-0.672 0.451-0.823 0.552-0.917 0.607-0.042 0.025-0.131-0.022-0.23-0.121z"></path>
</svg>
