<!-- Generated by IcoMoon.io -->
<svg version="1.1" xmlns="http://www.w3.org/2000/svg" width="40" height="32" viewBox="0 0 40 32">
<title>sydney</title>
<path d="M29.729 24.995c-0.401-0.039-0.739-0.1-1.343-0.245-0.725-0.174-1.138-0.228-1.726-0.228-0.601 0.001-1.024 0.061-1.673 0.24-0.603 0.166-0.903 0.213-1.431 0.223-0.621 0.013-1.031-0.043-1.683-0.229-1.078-0.306-2.101-0.327-3.106-0.061-0.993 0.262-1.257 0.302-1.914 0.29-0.539-0.010-0.823-0.054-1.426-0.219-0.706-0.194-1.174-0.255-1.833-0.239-0.605 0.015-1.16 0.101-1.803 0.281-0.116 0.032-0.239 0.067-0.274 0.075-0.111 0.029-0.367 0.059-0.704 0.084l-0.329 0.024-0.052-0.032c-0.085-0.052-0.096-0.092-0.096-0.326 0-0.241 0.014-0.305 0.077-0.358 0.070-0.059 0.171-0.080 0.542-0.114 0.556-0.052 0.818-0.098 1.266-0.226 0.325-0.092 0.531-0.139 0.816-0.184 0.196-0.031 0.269-0.035 0.694-0.034 0.418 0 0.499 0.004 0.677 0.034 0.265 0.044 0.488 0.095 0.781 0.177 0.64 0.181 1.146 0.254 1.763 0.253 0.653-0 1.141-0.072 1.871-0.276 0.506-0.142 0.814-0.193 1.237-0.207 0.438-0.014 0.899 0.039 1.328 0.154 1.094 0.292 1.335 0.331 2.059 0.331 0.643 0 0.977-0.046 1.667-0.233 0.384-0.104 0.553-0.14 0.84-0.181 0.732-0.104 1.417-0.055 2.215 0.159 0.448 0.12 0.702 0.166 1.177 0.211 0.521 0.050 0.567 0.056 0.63 0.084 0.037 0.016 0.070 0.043 0.077 0.063s0.010 0.177 0.007 0.352c-0.005 0.25-0.011 0.322-0.028 0.339-0.022 0.023-0.173 0.033-0.301 0.021zM29.533 23.396c-0.025-0.003-0.1-0.013-0.166-0.022-0.209-0.027-0.425-0.075-0.746-0.165-0.517-0.145-0.911-0.223-1.331-0.263-0.834-0.079-1.514-0.015-2.389 0.226-0.537 0.148-0.854 0.199-1.312 0.213-0.478 0.015-0.936-0.038-1.426-0.164-0.687-0.176-0.823-0.209-0.996-0.238-0.65-0.109-1.354-0.106-1.974 0.007-0.181 0.033-0.367 0.079-0.862 0.211-0.422 0.113-0.76 0.158-1.248 0.168-0.608 0.013-0.959-0.031-1.625-0.2-0.472-0.12-0.659-0.156-1.288-0.248l-0.504-0.074-0.469 0.082c-0.701 0.122-0.842 0.15-1.246 0.248-0.691 0.166-1.008 0.204-1.59 0.191-0.504-0.011-0.814-0.056-1.379-0.2-0.421-0.107-0.605-0.137-1.336-0.218-0.41-0.045-0.459-0.057-0.489-0.117-0.007-0.015-0.012-0.171-0.012-0.347 0.001-0.309 0.002-0.321 0.034-0.353 0.063-0.063 0.154-0.056 0.781 0.062 0.315 0.059 0.733 0.142 0.928 0.183 0.733 0.156 0.981 0.185 1.591 0.186 0.698 0.001 1.076-0.053 1.802-0.257 0.564-0.159 0.951-0.217 1.428-0.217 0.446 0 0.787 0.043 1.205 0.152 0.124 0.032 0.344 0.090 0.487 0.127 0.489 0.127 0.892 0.185 1.399 0.199 0.667 0.018 1.278-0.065 2.029-0.279 0.982-0.279 1.783-0.278 2.768 0.005 0.434 0.124 0.808 0.202 1.214 0.252 0.213 0.026 1.055 0.026 1.267-0 0.384-0.047 0.602-0.094 1.277-0.274 0.47-0.125 0.889-0.173 1.43-0.162 0.537 0.010 0.821 0.055 1.423 0.223 0.704 0.197 1.111 0.249 1.826 0.236 0.654-0.012 1.127-0.088 1.819-0.292 0.257-0.076 0.456-0.121 0.664-0.152 0.247-0.037 0.934-0.036 1.229 0.001 0.227 0.029 0.247 0.039 0.304 0.157 0.028 0.058 0.031 0.082 0.022 0.197-0.005 0.072-0.014 0.194-0.019 0.271l-0.009 0.14-0.081 0.024c-0.071 0.021-0.121 0.022-0.394 0.007-0.785-0.043-1.509 0.053-2.561 0.34-0.386 0.105-0.585 0.131-1.033 0.136-0.22 0.002-0.42 0.001-0.445-0.002zM10.087 21.744c-0.321-0.029-0.63-0.090-1.029-0.203-0.648-0.184-1.196-0.263-1.829-0.263-0.64 0-1.22 0.083-1.897 0.273-0.148 0.041-0.343 0.088-0.434 0.104-0.243 0.042-0.657 0.083-0.708 0.070-0.080-0.020-0.124-0.086-0.143-0.213-0.028-0.191-0.022-0.39 0.014-0.462 0.043-0.085 0.095-0.102 0.389-0.126 0.138-0.011 0.326-0.038 0.417-0.058s0.349-0.079 0.573-0.13c0.828-0.188 0.984-0.216 1.445-0.264 0.28-0.029 0.354-0.041 0.369-0.061 0.017-0.023 0.038-0.021 0.264 0.029 2.147 0.472 2.1 0.464 2.693 0.491 0.714 0.034 1.343-0.047 2.117-0.271 0.909-0.263 1.741-0.277 2.617-0.045 0.596 0.158 0.703 0.184 0.895 0.219 0.386 0.070 0.543 0.085 0.972 0.094 0.733 0.015 1.225-0.051 1.995-0.267 0.811-0.227 1.443-0.268 2.195-0.141 0.155 0.026 0.389 0.083 0.792 0.193 0.917 0.25 1.799 0.295 2.685 0.138 0.198-0.035 0.296-0.059 0.898-0.216 0.489-0.128 0.934-0.179 1.439-0.164 0.47 0.013 0.856 0.075 1.337 0.213 0.654 0.188 1.103 0.254 1.727 0.254 0.692 0 1.263-0.087 2.059-0.313 0.523-0.149 1.043-0.203 1.531-0.158 0.339 0.031 0.502 0.059 1.17 0.202 0.137 0.029 0.524 0.101 0.86 0.16s0.632 0.114 0.658 0.122c0.055 0.018 0.137 0.103 0.147 0.154 0.004 0.018 0.010 0.138 0.015 0.265 0.009 0.262-0.003 0.316-0.080 0.356-0.092 0.047-0.202 0.031-0.981-0.143-1.077-0.24-1.29-0.276-1.818-0.3-0.728-0.034-1.329 0.044-2.173 0.283-0.571 0.161-1.155 0.226-1.681 0.185-0.383-0.030-0.58-0.069-1.245-0.25-0.25-0.068-0.678-0.15-0.95-0.181-0.292-0.034-0.852-0.046-1.139-0.024-0.46 0.035-0.903 0.116-1.41 0.258-0.551 0.154-0.864 0.201-1.365 0.202-0.575 0.001-0.966-0.059-1.64-0.254-0.101-0.029-0.285-0.074-0.407-0.1-0.936-0.195-1.796-0.175-2.719 0.064-0.162 0.042-0.382 0.099-0.489 0.127-0.225 0.059-0.576 0.119-0.816 0.141-0.214 0.020-0.678 0.020-0.89-0-0.359-0.033-0.517-0.066-1.307-0.269-0.582-0.15-1.173-0.211-1.761-0.182-0.472 0.023-0.857 0.083-1.322 0.204-0.141 0.037-0.358 0.093-0.483 0.126-0.508 0.133-1.056 0.18-1.554 0.136zM3.64 20.147c-0.328-0.027-0.624-0.084-1.020-0.196-0.141-0.040-0.317-0.087-0.391-0.104-0.257-0.061-0.273-0.087-0.27-0.47 0.001-0.137 0.009-0.267 0.017-0.29 0.028-0.073 0.089-0.071 0.438 0.016 0.577 0.144 0.938 0.188 1.54 0.189 0.72 0 1.229-0.072 1.863-0.263 0.713-0.216 1.49-0.265 2.227-0.141 0.121 0.020 0.308 0.060 0.415 0.088s0.328 0.085 0.492 0.128c0.57 0.148 0.915 0.191 1.521 0.19 0.603-0.001 0.981-0.049 1.55-0.198 0.147-0.038 0.381-0.099 0.52-0.135 0.682-0.176 1.337-0.199 2.033-0.072 0.173 0.032 0.282 0.058 0.561 0.136 0.46 0.128 0.797 0.196 1.182 0.238 0.786 0.085 1.535 0.016 2.366-0.216 0.596-0.167 0.873-0.211 1.378-0.223 0.531-0.012 0.94 0.035 1.43 0.163 0.644 0.169 0.827 0.212 1.052 0.246 0.375 0.058 0.651 0.075 1.053 0.064 0.502-0.013 0.9-0.070 1.38-0.199 0.694-0.186 0.92-0.232 1.319-0.265 0.263-0.022 0.747-0.011 1.005 0.024 0.225 0.030 0.493 0.084 0.709 0.143 0.919 0.25 1.206 0.294 1.916 0.293 0.714-0.001 1.034-0.051 2.001-0.313 0.412-0.112 0.796-0.162 1.234-0.162 0.429 0 0.768 0.044 1.185 0.154 1.097 0.287 1.31 0.321 2.044 0.321 0.596 0 0.919-0.035 1.486-0.164 0.128-0.029 0.246-0.053 0.263-0.053 0.030 0 0.031 0.009 0.031 0.345 0 0.405 0.003 0.398-0.162 0.461-0.226 0.086-0.666 0.189-1.014 0.238-0.095 0.013-0.295 0.020-0.596 0.019-0.388-0.001-0.483-0.006-0.666-0.034-0.266-0.041-0.487-0.091-0.794-0.177-1.173-0.331-2.225-0.345-3.374-0.045-0.137 0.036-0.369 0.096-0.514 0.134-0.434 0.113-0.821 0.156-1.26 0.142-0.447-0.015-0.709-0.058-1.245-0.206-0.38-0.105-0.516-0.136-0.822-0.187-0.418-0.070-0.52-0.077-1.048-0.077-0.435 0-0.54 0.005-0.75 0.034-0.352 0.048-0.719 0.125-1.089 0.229-0.595 0.168-0.848 0.204-1.405 0.204-0.497-0-0.718-0.028-1.169-0.145-0.685-0.178-0.814-0.209-1.027-0.245-0.375-0.065-0.645-0.087-1.047-0.087-0.629 0-1.091 0.069-1.788 0.267-0.475 0.135-0.823 0.188-1.306 0.199-0.56 0.012-0.892-0.025-1.402-0.157-0.145-0.038-0.366-0.095-0.489-0.127-0.251-0.065-0.675-0.139-0.951-0.166-0.232-0.023-0.82-0.023-1.064 0-0.409 0.038-0.853 0.124-1.302 0.252-0.574 0.163-0.885 0.209-1.406 0.209-0.523 0-0.835-0.047-1.411-0.21-0.726-0.207-1.235-0.274-1.967-0.26-0.647 0.012-1.098 0.082-1.782 0.275-0.482 0.136-0.795 0.185-1.244 0.195-0.153 0.003-0.35 0-0.436-0.007zM10.179 18.502c-0.361-0.026-0.65-0.080-1.126-0.211-0.709-0.194-1.181-0.262-1.824-0.263-0.666-0.001-1.131 0.068-1.865 0.276-0.493 0.139-0.838 0.188-1.348 0.188-0.493 0-0.819-0.041-1.403-0.179-0.31-0.073-0.568-0.115-1.282-0.211-0.344-0.046-0.638-0.087-0.652-0.092-0.024-0.008-0.026-0.040-0.026-0.392s0.002-0.385 0.026-0.395c0.014-0.006 0.152-0.010 0.305-0.010 0.347 0.001 0.469 0.022 1.177 0.193 0.919 0.223 1.57 0.3 2.255 0.264 0.378-0.020 0.638-0.067 1.365-0.248 0.748-0.186 0.944-0.218 1.344-0.218 0.466-0 0.757 0.041 1.34 0.189 0.609 0.155 0.905 0.213 1.306 0.255 0.335 0.035 0.684 0.043 0.973 0.024 0.452-0.030 0.682-0.070 1.591-0.279 0.678-0.156 1.032-0.199 1.516-0.185 0.442 0.013 0.785 0.063 1.267 0.184 0.145 0.036 0.373 0.087 0.505 0.112 0.325 0.062 1.152 0.178 1.358 0.19 0.429 0.025 1.206-0.092 2.104-0.318 0.467-0.117 0.664-0.152 0.987-0.174 0.492-0.033 1 0.033 1.577 0.206 0.677 0.203 1.036 0.256 1.72 0.255 0.643-0.001 0.846-0.027 1.771-0.233 0.858-0.191 1.129-0.229 1.615-0.23 0.492-0 0.845 0.054 1.351 0.207 0.739 0.223 1.18 0.291 1.779 0.274 0.438-0.013 0.658-0.046 1.923-0.297 0.912-0.18 0.961-0.187 1.335-0.187 0.455 0 0.842 0.060 1.418 0.217 0.498 0.136 0.548 0.148 0.739 0.171 0.104 0.013 0.301 0.031 0.438 0.039s0.398 0.027 0.58 0.041c0.618 0.047 1.007-0.003 2.022-0.258 0.552-0.139 0.661-0.162 0.909-0.196 0.23-0.031 0.237-0.031 0.297 0.026l0.052 0.049 0.018 0.234c0.022 0.288 0.012 0.366-0.053 0.431-0.060 0.060-0.131 0.075-0.439 0.095-0.203 0.013-0.29 0.029-0.854 0.159-1.248 0.286-1.25 0.287-1.877 0.288-0.595 0.001-0.799-0.028-1.391-0.196-0.693-0.197-1.178-0.268-1.83-0.269-0.665-0-1.105 0.064-1.871 0.275-0.483 0.133-0.788 0.18-1.252 0.193-0.59 0.017-0.981-0.038-1.69-0.237-0.255-0.072-0.652-0.153-0.92-0.189-0.282-0.038-0.978-0.047-1.297-0.016-0.476 0.045-0.765 0.104-1.614 0.326-0.703 0.184-1.465 0.181-2.191-0.008-0.593-0.155-0.794-0.203-0.992-0.239-0.511-0.092-1.005-0.127-1.452-0.101-0.553 0.032-0.834 0.082-1.572 0.281-0.517 0.139-0.822 0.179-1.365 0.179-0.546 0-0.842-0.039-1.365-0.179-0.776-0.208-1.122-0.267-1.697-0.288-0.665-0.025-1.257 0.062-2.18 0.319-0.485 0.135-1.053 0.193-1.538 0.158zM2.846 17.375c-0.097-0.013-0.564-0.117-1.018-0.227-0.464-0.112-0.481-0.115-0.724-0.124-0.271-0.011-0.338-0.029-0.356-0.098-0.005-0.020 0.002-0.164 0.015-0.32 0.022-0.268 0.040-0.499 0.092-1.227 0.012-0.17 0.036-0.499 0.053-0.732s0.041-0.565 0.053-0.739c0.012-0.174 0.026-0.354 0.030-0.4s0.018-0.229 0.031-0.407c0.012-0.178 0.036-0.504 0.052-0.724s0.040-0.549 0.053-0.732c0.045-0.627 0.054-0.722 0.083-0.784 0.063-0.142 0.232-0.264 0.405-0.294 0.062-0.011 0.215-0.016 0.398-0.013 0.337 0.006 0.334 0.005 0.438 0.142 0.080 0.106 0.139 0.221 0.191 0.377 0.082 0.246 0.095 0.371 0.094 0.883-0.001 0.299 0.006 0.541 0.020 0.686 0.083 0.852 0.114 1.215 0.153 1.756 0.043 0.606 0.083 1.189 0.105 1.539 0.012 0.195 0.029 0.433 0.036 0.528s0.022 0.309 0.032 0.475c0.016 0.267 0.016 0.308-0.005 0.357-0.019 0.044-0.036 0.059-0.081 0.072-0.059 0.016-0.068 0.017-0.148 0.006zM2.070 13.408c0.070-0.042 0.081-0.088 0.070-0.317-0.007-0.156-0.016-0.216-0.037-0.252-0.057-0.098-0.223-0.132-0.322-0.065-0.081 0.055-0.090 0.088-0.090 0.352s0.006 0.282 0.109 0.308c0.072 0.018 0.219 0.004 0.27-0.026zM37.261 17.363c-0.059-0.032-0.079-0.109-0.067-0.263 0.005-0.071 0.020-0.262 0.032-0.423 0.042-0.547 0.157-2.113 0.219-2.987 0.016-0.228 0.057-0.795 0.090-1.26s0.071-0.981 0.083-1.147c0.029-0.402 0.053-0.479 0.183-0.594 0.123-0.108 0.223-0.13 0.602-0.13 0.367 0 0.35-0.005 0.514 0.153 0.211 0.204 0.248 0.325 0.248 0.803 0 0.236 0.008 0.39 0.030 0.56 0.016 0.129 0.044 0.471 0.061 0.762s0.041 0.657 0.053 0.815c0.021 0.271 0.088 1.201 0.136 1.878 0.012 0.17 0.029 0.391 0.037 0.49 0.045 0.542 0.063 0.816 0.055 0.859-0.009 0.051-0.055 0.101-0.107 0.12-0.017 0.006-0.146 0.030-0.287 0.054s-0.453 0.085-0.694 0.136c-0.949 0.2-1.096 0.222-1.187 0.173zM38.495 13.432c0.103-0.026 0.112-0.048 0.112-0.28v-0.2l-0.108-0.106c-0.059-0.058-0.114-0.106-0.122-0.106-0.029 0-0.189 0.152-0.213 0.202-0.018 0.038-0.024 0.097-0.024 0.227 0 0.165 0.002 0.178 0.036 0.212 0.020 0.020 0.062 0.040 0.094 0.046s0.069 0.012 0.081 0.014c0.046 0.010 0.079 0.008 0.145-0.009zM3.555 17.357c-0.102-0.015-0.125-0.027-0.153-0.079-0.023-0.045-0.047-0.273-0.081-0.759-0.009-0.133-0.026-0.374-0.038-0.536-0.049-0.664-0.068-0.918-0.075-1.026-0.004-0.062-0.018-0.249-0.030-0.415s-0.036-0.492-0.053-0.724c-0.017-0.232-0.041-0.555-0.053-0.716s-0.036-0.481-0.053-0.709c-0.017-0.228-0.044-0.587-0.061-0.797s-0.026-0.405-0.021-0.433c0.011-0.059 0.067-0.121 0.119-0.131 0.020-0.004 0.153-0.004 0.295 0l0.259 0.007 0.090 0.121c0.099 0.134 0.14 0.206 0.154 0.274 0.005 0.025 0.020 0.181 0.032 0.347s0.036 0.475 0.053 0.686c0.017 0.212 0.041 0.531 0.053 0.709s0.026 0.358 0.030 0.4c0.004 0.041 0.018 0.221 0.031 0.4s0.036 0.511 0.053 0.739c0.017 0.228 0.044 0.608 0.060 0.845 0.043 0.616 0.090 1.29 0.103 1.493 0.013 0.194 0.004 0.232-0.069 0.281-0.037 0.025-0.074 0.029-0.306 0.031-0.145 0.001-0.298-0.003-0.339-0.009zM36.164 17.355c-0.048-0.007-0.093-0.024-0.111-0.042-0.054-0.054-0.054-0.047 0.034-1.233 0.017-0.224 0.040-0.56 0.053-0.747s0.026-0.373 0.030-0.415c0.004-0.041 0.018-0.225 0.030-0.407s0.033-0.478 0.046-0.656c0.013-0.178 0.036-0.511 0.052-0.739 0.040-0.582 0.059-0.835 0.097-1.324l0.033-0.426 0.044-0.047c0.024-0.026 0.063-0.056 0.086-0.069 0.026-0.014 0.058-0.054 0.083-0.107 0.029-0.060 0.052-0.088 0.079-0.096 0.059-0.016 0.506-0.015 0.55 0.002 0.023 0.009 0.048 0.036 0.060 0.065 0.022 0.053 0.022 0.056-0.045 0.976-0.013 0.178-0.033 0.463-0.046 0.634-0.031 0.425-0.049 0.677-0.083 1.162-0.016 0.228-0.043 0.595-0.059 0.815s-0.037 0.505-0.046 0.634c-0.009 0.129-0.023 0.319-0.031 0.422s-0.025 0.331-0.037 0.505c-0.074 1.084-0.072 1.070-0.138 1.095-0.044 0.017-0.565 0.016-0.682-0.001zM4.477 16.28c-0.026-0.019-0.026-0.024 0.004-0.12 0.047-0.153 0.070-0.188 0.214-0.335 0.169-0.173 0.211-0.235 0.211-0.314 0-0.089-0.041-0.161-0.213-0.372-0.143-0.175-0.369-0.495-0.358-0.505 0.010-0.008 0.071-0.038 0.078-0.038 0.004 0 0.145 0.16 0.313 0.355s0.308 0.355 0.311 0.355c0.003 0 0.005-0.241 0.005-0.535v-0.535l-0.048-0.025c-0.032-0.016-0.128-0.031-0.283-0.044-0.248-0.020-0.294-0.031-0.337-0.079-0.037-0.041-0.071-0.213-0.071-0.361-0-0.099 0.005-0.13 0.029-0.158 0.027-0.033 0.038-0.035 0.162-0.032 0.073 0.002 0.176-0 0.229-0.005l0.096-0.008-0.051-0.053c-0.028-0.029-0.115-0.099-0.194-0.155s-0.165-0.125-0.192-0.153c-0.052-0.054-0.095-0.143-0.095-0.194 0-0.032 0.032-0.012 0.594 0.374 0.065 0.045 0.128 0.085 0.14 0.089 0.017 0.007 0.021-0.094 0.021-0.612 0-0.341-0.003-0.62-0.007-0.62s-0.176 0.112-0.383 0.249c-0.356 0.236-0.378 0.248-0.416 0.231-0.022-0.010-0.037-0.025-0.034-0.034s0.017-0.054 0.031-0.101c0.013-0.046 0.040-0.104 0.058-0.127 0.037-0.047 0.728-0.508 1.226-0.817 1.685-1.046 3.446-1.935 5.287-2.667 2.541-1.011 5.066-1.631 7.55-1.855 1.37-0.123 2.926-0.096 4.284 0.075 3.601 0.454 7.014 1.596 10.553 3.53 0.368 0.201 0.949 0.534 1.244 0.712 0.619 0.375 1.514 0.963 1.557 1.023 0.038 0.054 0.11 0.196 0.11 0.217 0 0.008-0.020 0.026-0.045 0.038l-0.045 0.023-0.748-0.496-0.004 0.308c-0.002 0.169-0.002 0.448 0 0.618l0.004 0.31 0.226-0.154c0.124-0.085 0.288-0.196 0.363-0.248l0.137-0.094 0.073 0.056-0.128 0.13c-0.072 0.073-0.21 0.187-0.317 0.261l-0.188 0.131 0.229 0.008c0.215 0.007 0.231 0.010 0.267 0.044 0.057 0.054 0.075 0.124 0.066 0.268s-0.052 0.248-0.122 0.299c-0.039 0.028-0.065 0.031-0.282 0.031-0.219 0-0.242 0.003-0.282 0.032-0.071 0.053-0.076 0.093-0.069 0.628l0.007 0.493 0.316-0.369c0.174-0.203 0.322-0.369 0.329-0.369 0.054 0 0.057 0.017 0.019 0.118-0.043 0.115-0.087 0.176-0.313 0.439-0.224 0.26-0.249 0.297-0.249 0.367 0 0.087 0.028 0.128 0.181 0.268 0.076 0.070 0.156 0.154 0.178 0.188 0.043 0.069 0.157 0.327 0.148 0.337-0.013 0.013-0.643-0.493-1.148-0.925-1.344-1.147-1.327-1.134-1.551-1.182-0.037-0.008-5.38-0.015-13.044-0.018l-12.981-0.004-0.096 0.034c-0.132 0.046-0.185 0.083-0.406 0.278-0.206 0.182-1.871 1.63-2.012 1.749-0.092 0.078-0.1 0.081-0.14 0.052zM5.785 14.882c0.251-0.245 0.258-0.227-0.14-0.394-0.17-0.072-0.325-0.135-0.343-0.14l-0.034-0.011v0.915l0.083 0.050 0.128-0.123c0.071-0.068 0.208-0.202 0.306-0.297zM34.982 15.275c0.034-0.028 0.034-0.030 0.034-0.483 0-0.426-0.002-0.454-0.026-0.447-0.014 0.005-0.168 0.068-0.342 0.141-0.246 0.103-0.318 0.14-0.328 0.166-0.011 0.030 0.024 0.070 0.291 0.343 0.167 0.17 0.311 0.309 0.32 0.309s0.032-0.013 0.051-0.029zM34.544 14.358c0.252-0.104 0.322-0.138 0.322-0.159 0-0.026-0.018-0.027-0.315-0.023-0.31 0.005-0.316 0.005-0.355 0.041-0.026 0.024-0.039 0.053-0.039 0.084 0 0.050 0.042 0.189 0.057 0.189 0.005 0 0.154-0.059 0.33-0.132zM6.094 14.431c0.016-0.010 0.016-0.032 0.003-0.11-0.009-0.054-0.023-0.107-0.030-0.119-0.011-0.017-0.076-0.023-0.323-0.027-0.302-0.006-0.31-0.005-0.31 0.024 0 0.023 0.023 0.040 0.094 0.069 0.379 0.157 0.431 0.175 0.486 0.175 0.033 0 0.069-0.006 0.080-0.013zM33.958 14.302c-0.023-0.114-0.054-0.136-0.17-0.119l-0.085 0.012 0.133 0.1c0.073 0.055 0.134 0.098 0.136 0.097s-0.004-0.042-0.014-0.090zM6.446 14.301c0.115-0.093 0.123-0.128 0.031-0.128-0.030 0-0.072 0.009-0.093 0.019-0.032 0.016-0.039 0.032-0.045 0.105-0.004 0.047-0.005 0.086-0.002 0.086s0.052-0.037 0.109-0.083zM10.275 13.527c0.121-0.060 0.135-0.17 0.136-1.057 0-0.582-0.001-0.623-0.025-0.614-0.064 0.024-0.806 0.498-0.819 0.522-0.022 0.041-0.036 0.53-0.023 0.82 0.015 0.339-0.004 0.321 0.378 0.357 0.155 0.015 0.288 0.004 0.354-0.028zM7.069 13.48c0.045-0.046 0.056-0.067 0.049-0.095-0.021-0.082-0.739-1.822-0.752-1.822-0.038-0-0.044 0.146-0.039 0.943 0.004 0.721 0.008 0.837 0.029 0.882 0.055 0.12 0.14 0.148 0.444 0.15l0.212 0.001 0.058-0.059zM7.692 13.348c0.461-0.329 0.486-0.353 0.509-0.473 0.011-0.060-0-0.086-0.365-0.867-0.241-0.514-0.369-0.778-0.404-0.827-0.020-0.029-0.023 0.098-0.023 1.163 0 0.657 0.003 1.195 0.007 1.195s0.128-0.086 0.275-0.191zM9.279 13.495l0.046-0.033v-0.952l-0.041 0.027c-0.023 0.015-0.126 0.085-0.23 0.157s-0.253 0.17-0.332 0.218c-0.175 0.108-0.191 0.122-0.23 0.197-0.026 0.051-0.029 0.080-0.023 0.189 0.009 0.164 0.023 0.19 0.106 0.204 0.146 0.025 0.301 0.035 0.475 0.030 0.16-0.004 0.19-0.009 0.23-0.038zM11.417 13.513c0.018-0.010 0.037-0.030 0.043-0.045 0.011-0.028 0.012-2.193 0.001-2.204-0.007-0.007-0.503 0.261-0.656 0.355-0.070 0.043-0.111 0.081-0.143 0.133l-0.045 0.073v0.748c0 0.735 0.001 0.749 0.033 0.819 0.039 0.084 0.090 0.115 0.221 0.133s0.508 0.011 0.548-0.011zM12.459 13.48l0.074-0.059 0.010-0.343c0.005-0.189 0.010-0.768 0.010-1.288-0-0.874-0.007-1.057-0.040-1.057-0.022 0-0.681 0.332-0.718 0.362-0.023 0.018-0.057 0.062-0.075 0.096l-0.033 0.063-0 1.026c-0 0.958 0.002 1.031 0.027 1.097 0.050 0.13 0.131 0.157 0.48 0.16l0.191 0.002 0.074-0.059zM13.523 13.523c0.109-0.030 0.103 0.075 0.098-1.65-0.003-1.18-0.008-1.55-0.022-1.564-0.033-0.033-0.1-0.016-0.331 0.083-0.366 0.157-0.418 0.19-0.476 0.302-0.032 0.062-0.032 0.074-0.039 1.226-0.008 1.426-0.002 1.505 0.121 1.569 0.027 0.014 0.082 0.030 0.124 0.036 0.117 0.017 0.462 0.017 0.525-0.001zM14.631 13.509c0.018-0.012 0.041-0.041 0.049-0.066 0.022-0.064 0.021-3.443-0.001-3.507-0.025-0.071-0.065-0.072-0.226-0.009-0.078 0.031-0.219 0.082-0.313 0.114s-0.194 0.075-0.221 0.096c-0.104 0.079-0.099-0.001-0.094 1.683l0.004 1.516 0.034 0.064c0.042 0.078 0.098 0.109 0.228 0.125 0.159 0.020 0.501 0.010 0.541-0.016zM15.633 13.5c0.022-0.011 0.058-0.041 0.079-0.067l0.040-0.047v-1.9c0-1.879-0-1.9-0.030-1.93-0.017-0.017-0.037-0.030-0.045-0.030s-0.105 0.030-0.215 0.067c-0.11 0.037-0.258 0.082-0.328 0.101-0.159 0.042-0.222 0.094-0.239 0.195-0.006 0.037-0.008 0.828-0.004 1.757 0.007 1.652 0.008 1.691 0.038 1.749 0.045 0.088 0.092 0.115 0.22 0.128 0.152 0.015 0.434 0.002 0.483-0.023zM16.772 13.5c0.023-0.017 0.048-0.053 0.055-0.080s0.011-0.933 0.008-2.013c-0.004-1.861-0.006-1.967-0.032-2.027-0.050-0.115-0.135-0.121-0.478-0.034-0.222 0.056-0.292 0.088-0.333 0.154-0.029 0.048-0.030 0.082-0.026 1.942s0.004 1.894 0.034 1.953c0.057 0.113 0.173 0.143 0.538 0.139 0.168-0.002 0.196-0.006 0.233-0.034zM17.792 13.523c0.111-0.031 0.103 0.149 0.098-2.196-0.004-2.098-0.004-2.111-0.035-2.163-0.046-0.079-0.086-0.094-0.218-0.083-0.168 0.013-0.455 0.073-0.514 0.108-0.028 0.017-0.060 0.047-0.071 0.067-0.015 0.029-0.018 0.466-0.015 2.058 0.004 1.988 0.004 2.022 0.034 2.081 0.056 0.111 0.148 0.138 0.483 0.142 0.1 0.001 0.207-0.005 0.238-0.014zM18.863 13.523c0.11-0.031 0.101 0.156 0.103-2.28 0.001-1.991-0.001-2.2-0.023-2.243-0.013-0.026-0.037-0.054-0.053-0.063-0.041-0.022-0.163-0.019-0.275 0.006-0.052 0.012-0.163 0.026-0.246 0.032-0.169 0.012-0.222 0.031-0.247 0.093-0.013 0.031-0.016 0.58-0.013 2.154 0.004 2.078 0.005 2.113 0.034 2.172 0.038 0.076 0.101 0.112 0.221 0.128 0.14 0.018 0.434 0.018 0.499 0zM19.998 13.495l0.039-0.037-0.004-2.226c-0.004-2.118-0.005-2.229-0.031-2.276-0.044-0.080-0.106-0.098-0.342-0.095-0.325 0.003-0.436 0.031-0.469 0.118-0.009 0.025-0.013 0.817-0.011 2.198 0.004 2.125 0.005 2.16 0.034 2.219 0.058 0.115 0.168 0.143 0.531 0.139 0.204-0.003 0.216-0.005 0.253-0.039zM21.051 13.505c0.024-0.016 0.046-0.049 0.055-0.083 0.023-0.085 0.007-4.304-0.016-4.381-0.010-0.032-0.034-0.075-0.054-0.095-0.065-0.065-0.126-0.075-0.429-0.076-0.274-0-0.283 0.001-0.317 0.034l-0.034 0.034-0.004 2.047c-0.004 2.065 0.002 2.369 0.048 2.44 0.055 0.084 0.195 0.112 0.53 0.108 0.145-0.002 0.19-0.008 0.222-0.029zM22.105 13.51c0.022-0.011 0.049-0.037 0.059-0.059 0.015-0.032 0.018-0.467 0.016-2.137-0.002-1.256-0.009-2.119-0.018-2.151-0.033-0.126-0.105-0.158-0.484-0.214-0.255-0.038-0.317-0.033-0.347 0.023-0.014 0.026-0.017 0.545-0.015 2.183 0.002 1.182 0.007 2.167 0.012 2.187 0.028 0.119 0.095 0.163 0.275 0.182 0.166 0.017 0.454 0.009 0.501-0.015zM23.193 13.505c0.024-0.016 0.046-0.049 0.055-0.083 0.018-0.067 0.019-3.619 0.002-3.915-0.010-0.17-0.016-0.199-0.050-0.25-0.024-0.036-0.065-0.071-0.108-0.091-0.072-0.034-0.345-0.087-0.53-0.102-0.099-0.008-0.109-0.006-0.14 0.026l-0.033 0.035 0.004 2.113c0.004 2.094 0.004 2.113 0.035 2.165 0.063 0.107 0.184 0.136 0.543 0.131 0.145-0.002 0.19-0.008 0.222-0.029zM24.256 13.509c0.018-0.012 0.041-0.039 0.049-0.060 0.011-0.026 0.015-0.626 0.012-1.924-0.005-2.054 0-1.942-0.091-2.039-0.059-0.063-0.152-0.101-0.394-0.164-0.24-0.062-0.332-0.067-0.359-0.018-0.022 0.041-0.019 3.98 0.003 4.057 0.016 0.057 0.068 0.115 0.12 0.136 0.107 0.043 0.599 0.052 0.66 0.012zM25.328 13.508c0.019-0.012 0.041-0.046 0.050-0.075 0.024-0.083 0.011-3.46-0.014-3.534-0.047-0.138-0.147-0.2-0.478-0.297-0.235-0.069-0.315-0.076-0.338-0.032-0.022 0.042-0.022 3.697 0.001 3.78 0.041 0.152 0.152 0.188 0.549 0.182 0.141-0.002 0.206-0.009 0.23-0.025zM26.36 13.524c0.11-0.031 0.102 0.087 0.102-1.595 0-1.671 0.001-1.645-0.093-1.759-0.055-0.067-0.196-0.136-0.443-0.217-0.251-0.083-0.255-0.083-0.294-0.052l-0.033 0.027 0.002 1.674c0.001 0.921 0.008 1.701 0.015 1.733 0.028 0.123 0.097 0.174 0.257 0.19 0.157 0.016 0.425 0.016 0.486-0.001zM27.332 13.524c0.051 0 0.074-0.011 0.128-0.059l0.066-0.059 0.005-1.335c0.003-0.922-0-1.354-0.011-1.395-0.016-0.060-0.019-0.062-0.231-0.159-0.289-0.132-0.594-0.267-0.606-0.267-0.005 0-0.008 0.694-0.005 1.543 0.004 1.508 0.005 1.544 0.034 1.602 0.059 0.116 0.156 0.148 0.415 0.136 0.079-0.004 0.171-0.007 0.205-0.007zM28.503 13.523c0.109-0.030 0.103 0.042 0.098-1.22l-0.004-1.135-0.041-0.033c-0.040-0.032-0.78-0.417-0.802-0.417-0.006 0-0.008 0.592-0.006 1.316 0.004 1.285 0.005 1.317 0.034 1.367 0.044 0.075 0.094 0.106 0.196 0.121 0.13 0.019 0.458 0.019 0.524 0.001zM29.557 13.5c0.022-0.011 0.058-0.041 0.079-0.067l0.040-0.047v-0.789c0-0.495-0.006-0.805-0.015-0.833s-0.042-0.060-0.087-0.088c-0.075-0.045-0.664-0.383-0.725-0.415l-0.035-0.018 0.004 1.046c0.004 1.011 0.006 1.048 0.035 1.105 0.041 0.081 0.094 0.116 0.198 0.13 0.123 0.016 0.456 0 0.505-0.024zM30.644 13.5c0.024-0.013 0.057-0.045 0.074-0.071 0.027-0.045 0.029-0.079 0.029-0.516 0-0.416-0.003-0.473-0.026-0.519-0.021-0.042-0.101-0.098-0.419-0.297-0.216-0.135-0.398-0.246-0.404-0.246s-0.010 0.337-0.008 0.75c0.004 0.693 0.006 0.755 0.032 0.806 0.056 0.112 0.141 0.135 0.461 0.124 0.151-0.005 0.23-0.014 0.261-0.030zM32.301 13.52l0.098-0.018-0.166-0.116c-0.1-0.070-0.171-0.111-0.179-0.103s-0.017 0.048-0.021 0.090c-0.014 0.15 0.053 0.187 0.268 0.147zM32.874 12.361c0-1.073-0.002-1.177-0.024-1.159-0.032 0.027-0.060 0.084-0.452 0.921-0.278 0.594-0.339 0.736-0.335 0.78 0.004 0.052 0.020 0.066 0.397 0.344 0.216 0.16 0.397 0.29 0.404 0.291s0.011-0.53 0.011-1.178zM33.854 13.497c0.020-0.015 0.051-0.046 0.068-0.069 0.031-0.041 0.031-0.060 0.036-0.939l0.005-0.898-0.033 0.005c-0.027 0.004-0.049 0.045-0.12 0.216-0.048 0.116-0.2 0.484-0.337 0.818s-0.26 0.645-0.272 0.691c-0.034 0.132-0.009 0.176 0.119 0.209 0.017 0.004 0.135 0.005 0.264 0.001 0.196-0.006 0.24-0.011 0.271-0.034zM6.064 13.511c-0.003-0.007-0.171-0.265-0.375-0.574-0.3-0.455-0.375-0.56-0.4-0.557-0.030 0.004-0.030 0.015-0.029 0.543 0.001 0.502 0.003 0.541 0.029 0.569s0.044 0.031 0.404 0.031c0.207 0 0.374-0.006 0.371-0.013zM8.221 13.498c0.024-0.021 0.032-0.052 0.039-0.144s0.005-0.115-0.010-0.107c-0.022 0.013-0.066 0.045-0.222 0.157l-0.112 0.082 0.059 0.018c0.092 0.028 0.209 0.025 0.245-0.006zM31.719 13.508c0.076-0.019 0.079-0.026 0.093-0.202 0.013-0.166-0.006-0.207-0.155-0.326-0.091-0.073-0.568-0.397-0.697-0.473-0.017-0.010-0.019 0.061-0.015 0.408 0.005 0.395 0.007 0.425 0.038 0.492 0.018 0.039 0.035 0.072 0.038 0.072s0.032 0.010 0.065 0.022c0.074 0.027 0.534 0.031 0.633 0.007zM34.987 13.509c0.028-0.015 0.029-0.037 0.029-0.573 0-0.521-0.002-0.558-0.026-0.557-0.022 0.001-0.346 0.479-0.748 1.102l-0.028 0.043h0.372c0.228 0 0.383-0.006 0.401-0.016zM6.112 12.415c0-0.485-0.004-0.882-0.009-0.882s-0.182 0.107-0.394 0.238c-0.267 0.165-0.389 0.249-0.399 0.274-0.015 0.040-0.041-0.002 0.516 0.849 0.145 0.222 0.268 0.403 0.275 0.403s0.011-0.396 0.011-0.882zM34.672 12.57c0.25-0.381 0.315-0.49 0.308-0.517-0.006-0.022-0.051-0.062-0.126-0.11-0.184-0.117-0.639-0.397-0.658-0.405-0.013-0.005-0.016 0.22-0.013 0.879l0.004 0.886 0.084-0.126c0.046-0.069 0.227-0.343 0.401-0.608zM7.18 11.468l-0.004-0.549-0.241 0.134c-0.133 0.074-0.277 0.158-0.322 0.187-0.082 0.054-0.123 0.119-0.123 0.192 0 0.054 0.56 1.441 0.646 1.6l0.040 0.074 0.004-0.544c0.002-0.299 0.002-0.792 0-1.094zM33.266 12.777c0.061-0.149 0.211-0.518 0.334-0.82s0.224-0.564 0.224-0.582c0-0.018-0.012-0.044-0.026-0.057-0.036-0.032-0.663-0.389-0.682-0.389-0.024 0-0.021 2.1 0.003 2.124 0.010 0.010 0.022 0.013 0.028 0.007s0.059-0.133 0.12-0.283zM8.749 12.601c0.347-0.222 0.453-0.304 0.487-0.379 0.016-0.035 0.029-0.077 0.029-0.095 0-0.036-0.706-1.456-0.753-1.515l-0.031-0.038-0 1.098c-0 0.875 0.004 1.096 0.018 1.087 0.010-0.006 0.123-0.078 0.25-0.159zM31.803 11.699c0-0.941-0.003-1.071-0.023-1.071-0.029 0-0.796 1.528-0.789 1.574 0.003 0.023 0.114 0.106 0.403 0.3 0.219 0.147 0.401 0.268 0.404 0.268s0.005-0.482 0.005-1.071zM8.233 10.375c-0.008-0.008-0.659 0.332-0.721 0.376-0.060 0.043-0.067 0.092-0.026 0.191 0.019 0.047 0.18 0.391 0.358 0.764s0.338 0.713 0.356 0.754l0.033 0.075 0.004-1.077c0.002-0.592 0.001-1.080-0.003-1.084zM32.467 11.656c0.207-0.442 0.377-0.816 0.377-0.831s-0.009-0.035-0.019-0.043c-0.010-0.009-0.192-0.108-0.404-0.221l-0.385-0.205-0.004 1.051c-0.003 0.828 0 1.054 0.015 1.063 0.010 0.006 0.024 0.006 0.031 0s0.181-0.373 0.389-0.815zM9.968 11.82c0.407-0.246 0.389-0.232 0.388-0.283-0-0.024-0.115-0.254-0.273-0.547-0.416-0.773-0.476-0.88-0.497-0.887-0.015-0.005-0.019 0.198-0.019 0.977v0.984l0.034-0.022c0.019-0.012 0.184-0.112 0.367-0.223zM30.732 11.080c0-0.539-0.006-0.981-0.013-0.981-0.030 0-0.047 0.029-0.627 1.104-0.088 0.163-0.16 0.31-0.16 0.325s0.009 0.040 0.019 0.055c0.018 0.025 0.746 0.477 0.769 0.477 0.006 0 0.011-0.441 0.011-0.98zM9.305 9.863c-0.007-0.007-0.333 0.141-0.53 0.241-0.154 0.078-0.179 0.1-0.202 0.184-0.015 0.057-0.012 0.070 0.068 0.241 0.047 0.1 0.214 0.439 0.373 0.755l0.289 0.573 0.004-0.994c0.002-0.547 0.001-0.997-0.002-1zM31.394 11.039c0.302-0.606 0.366-0.745 0.358-0.778-0.011-0.044-0.039-0.060-0.519-0.29l-0.26-0.125v0.98c0 0.929 0.001 0.979 0.026 0.966 0.015-0.008 0.192-0.346 0.394-0.752zM11.173 11.132c0.141-0.081 0.189-0.136 0.189-0.219 0-0.054-0.492-0.965-0.678-1.255l-0.060-0.094-0.001 1.865 0.207-0.11c0.114-0.060 0.268-0.145 0.343-0.187zM29.661 10.511v-0.916l-0.035 0.037c-0.020 0.021-0.173 0.285-0.342 0.588s-0.326 0.586-0.35 0.629c-0.077 0.139-0.085 0.131 0.335 0.367 0.203 0.114 0.375 0.209 0.381 0.209s0.011-0.411 0.011-0.915zM10.397 10.303c0-0.797-0.003-0.913-0.022-0.913-0.012 0-0.163 0.061-0.336 0.135-0.457 0.198-0.467 0.213-0.32 0.497 0.295 0.572 0.645 1.193 0.672 1.193 0.003 0 0.006-0.411 0.006-0.913zM30.101 10.854c0.122-0.202 0.359-0.626 0.503-0.897 0.067-0.126 0.086-0.175 0.078-0.204-0.011-0.040 0.014-0.028-0.512-0.258l-0.268-0.117v1.799l0.042-0.067c0.023-0.037 0.094-0.152 0.156-0.256zM28.59 10.008v-0.846l-0.032 0.022c-0.017 0.012-0.191 0.286-0.385 0.607-0.271 0.45-0.353 0.597-0.353 0.635v0.050l0.381 0.187c0.209 0.103 0.383 0.188 0.385 0.188s0.004-0.379 0.004-0.844zM12.063 10.675c0.304-0.149 0.338-0.169 0.36-0.217 0.014-0.029 0.025-0.065 0.025-0.080s-0.045-0.105-0.101-0.201c-0.187-0.324-0.636-1.057-0.647-1.057-0.003 0-0.006 0.387-0.006 0.86 0 0.62 0.005 0.86 0.017 0.86 0.009 0 0.168-0.074 0.352-0.164zM11.462 8.958c-0.006-0.006-0.277 0.096-0.535 0.202-0.25 0.103-0.264 0.143-0.129 0.395 0.14 0.263 0.57 1.030 0.617 1.103l0.044 0.068 0.004-0.881c0.002-0.485 0.001-0.884-0.002-0.887zM29.182 10.111c0.47-0.849 0.441-0.791 0.416-0.829-0.014-0.021-0.144-0.082-0.389-0.181-0.202-0.082-0.37-0.149-0.373-0.149s-0.005 0.387-0.005 0.86c0 0.703 0.004 0.86 0.020 0.86 0.011 0 0.16-0.253 0.331-0.562zM13.263 10.125c0.337-0.149 0.332-0.141 0.21-0.342-0.097-0.16-0.692-1.056-0.701-1.056-0.004 0-0.007 0.363-0.007 0.806v0.806l0.109-0.046c0.060-0.025 0.235-0.101 0.388-0.169zM27.504 8.781c-0.010-0.010-0.022-0.008-0.036 0.007-0.042 0.044-0.748 1.144-0.748 1.165 0 0.012 0.009 0.029 0.020 0.038s0.189 0.090 0.396 0.18l0.376 0.164 0.004-0.77c0.003-0.506-0.001-0.775-0.011-0.785zM28.063 9.699c0.508-0.849 0.49-0.814 0.446-0.85-0.016-0.014-0.723-0.273-0.743-0.273-0.003 0-0.005 0.364-0.005 0.81s0.003 0.806 0.007 0.802c0.004-0.004 0.137-0.224 0.296-0.489zM12.548 9.385c-0.012-0.821-0.003-0.772-0.13-0.76-0.037 0.004-0.19 0.050-0.338 0.104-0.209 0.075-0.277 0.106-0.3 0.137l-0.029 0.040 0.337 0.563c0.449 0.752 0.402 0.68 0.44 0.66l0.032-0.017zM14.227 9.743c0.296-0.11 0.352-0.136 0.37-0.17 0.020-0.038 0.014-0.049-0.148-0.282-0.264-0.38-0.6-0.852-0.607-0.852-0.004 0-0.006 0.322-0.006 0.716 0 0.603 0.003 0.716 0.021 0.716 0.012 0 0.178-0.059 0.37-0.13zM26.436 9.163c-0.004-0.69-0.005-0.71-0.031-0.675-0.027 0.036-0.5 0.706-0.649 0.92-0.091 0.131-0.096 0.174-0.024 0.208 0.060 0.029 0.675 0.257 0.694 0.257 0.010 0 0.014-0.244 0.011-0.71zM27.092 9.091c0.193-0.296 0.351-0.553 0.351-0.571s-0.012-0.040-0.026-0.047c-0.030-0.016-0.695-0.228-0.715-0.228-0.007 0-0.013 0.328-0.012 0.728 0.001 0.689 0.002 0.726 0.026 0.692 0.014-0.020 0.183-0.277 0.376-0.573zM13.61 8.985c0-0.735 0.005-0.699-0.102-0.7-0.075-0.001-0.601 0.156-0.638 0.19-0.016 0.015-0.029 0.039-0.029 0.054s0.103 0.182 0.228 0.373c0.125 0.191 0.286 0.436 0.358 0.546 0.085 0.129 0.14 0.2 0.157 0.2 0.025 0 0.026-0.041 0.026-0.662zM25.348 9.452l0.036-0.029v-0.631c0-0.608-0.001-0.631-0.028-0.631-0.033 0-0.532 0.715-0.62 0.888-0.104 0.204-0.072 0.239 0.336 0.365 0.114 0.035 0.215 0.065 0.225 0.066s0.033-0.012 0.053-0.027zM15.273 9.397c0.098-0.028 0.198-0.061 0.223-0.074 0.117-0.060 0.133-0.132 0.060-0.27-0.038-0.073-0.568-0.863-0.607-0.906-0.009-0.010-0.022-0.005-0.036 0.015-0.018 0.025-0.022 0.127-0.021 0.628 0.001 0.655-0.003 0.624 0.090 0.66 0.043 0.017 0.054 0.015 0.29-0.052zM14.693 8.817c0.005-0.569-0.004-0.74-0.042-0.788-0.036-0.044-0.123-0.042-0.334 0.012-0.279 0.070-0.353 0.096-0.391 0.137l-0.037 0.039 0.045 0.082c0.025 0.045 0.191 0.289 0.37 0.541 0.256 0.362 0.331 0.459 0.355 0.456 0.029-0.003 0.030-0.016 0.035-0.479zM25.89 8.968c0.357-0.504 0.497-0.712 0.497-0.739 0-0.065-0.107-0.11-0.478-0.203-0.166-0.042-0.232-0.047-0.277-0.023-0.028 0.015-0.029 0.038-0.029 0.647 0 0.629 0.002 0.656 0.048 0.644 0.006-0.001 0.113-0.148 0.24-0.327zM24.251 9.135c0.063-0.024 0.070-0.087 0.070-0.668 0-0.509-0.001-0.539-0.027-0.539-0.037 0-0.65 0.927-0.662 1.001-0.007 0.046-0.004 0.055 0.037 0.075 0.061 0.031 0.445 0.136 0.527 0.144 0.010 0.001 0.035-0.005 0.056-0.013zM16.43 9.069c0.174-0.045 0.19-0.052 0.216-0.096l0.028-0.048-0.070-0.111c-0.321-0.503-0.586-0.888-0.611-0.888-0.027 0-0.028 0.020-0.028 0.509 0 0.302 0.006 0.532 0.016 0.565 0.036 0.131 0.144 0.147 0.451 0.068zM15.749 8.429c-0.005-0.624-0.007-0.633-0.111-0.668-0.064-0.021-0.124-0.014-0.391 0.048-0.155 0.036-0.203 0.053-0.23 0.083l-0.034 0.037 0.093 0.139c0.435 0.652 0.622 0.916 0.649 0.916 0.028 0 0.029-0.016 0.025-0.554zM24.834 8.629c0.337-0.491 0.394-0.585 0.403-0.662 0.007-0.058 0.003-0.069-0.034-0.098-0.054-0.042-0.139-0.067-0.376-0.108-0.181-0.032-0.196-0.032-0.244-0.009l-0.051 0.024v1.209l0.032-0.005c0.023-0.003 0.102-0.107 0.27-0.351zM23.218 8.882c0.032-0.026 0.032-0.030 0.028-0.592-0.004-0.489-0.007-0.566-0.027-0.569-0.022-0.004-0.076 0.072-0.561 0.781-0.213 0.311-0.23 0.286 0.252 0.37 0.242 0.042 0.268 0.043 0.308 0.010zM17.53 8.843c0.18-0.030 0.205-0.037 0.231-0.072l0.029-0.039-0.305-0.443c-0.374-0.543-0.39-0.566-0.407-0.564-0.008 0.001-0.021 0.003-0.029 0.004-0.020 0.003-0.020 0.877 0 0.983 0.033 0.173 0.105 0.192 0.481 0.131zM16.821 8.804c0.017-0.011 0.019-0.107 0.014-0.554-0.008-0.612-0.013-0.642-0.105-0.691-0.051-0.027-0.065-0.028-0.181-0.011-0.069 0.010-0.186 0.034-0.259 0.052-0.126 0.032-0.134 0.037-0.169 0.096l-0.036 0.062 0.177 0.278c0.249 0.39 0.514 0.783 0.527 0.783 0.006-0 0.020-0.006 0.032-0.013zM23.783 8.406c0.321-0.488 0.386-0.597 0.397-0.664 0.017-0.104-0.071-0.144-0.409-0.186-0.197-0.025-0.203-0.025-0.252 0.004l-0.050 0.029-0.004 0.606c-0.004 0.602-0.004 0.606 0.027 0.606 0.024 0 0.091-0.092 0.291-0.396zM18.577 8.691c0.173-0.020 0.316-0.038 0.319-0.041s-0.159-0.24-0.36-0.526c-0.269-0.384-0.373-0.52-0.394-0.52-0.029 0-0.030 0.014-0.034 0.534-0.004 0.481-0.002 0.537 0.021 0.562 0.032 0.036 0.064 0.035 0.447-0.008zM22.145 8.703l0.034-0.024v-0.542c0-0.523-0.001-0.542-0.029-0.542-0.021 0-0.133 0.149-0.399 0.528-0.204 0.29-0.369 0.528-0.367 0.529s0.132 0.017 0.29 0.036c0.353 0.043 0.428 0.045 0.472 0.015zM21.067 8.605l0.040-0.031v-0.534c0-0.513-0.001-0.534-0.028-0.534-0.021 0-0.127 0.15-0.392 0.557-0.2 0.306-0.364 0.561-0.364 0.566s0.159 0.008 0.353 0.008c0.334 0 0.355-0.002 0.392-0.031zM19.873 8.575l0.029-0.039-0.144-0.225c-0.402-0.631-0.517-0.798-0.546-0.798s-0.029 0.015-0.029 0.475c0 0.45 0.002 0.478 0.031 0.528 0.055 0.094 0.101 0.106 0.383 0.102 0.246-0.004 0.247-0.004 0.276-0.043zM17.886 8.048c0-0.444-0.003-0.495-0.027-0.545-0.040-0.081-0.086-0.095-0.287-0.082-0.264 0.016-0.37 0.039-0.399 0.087-0.024 0.040-0.023 0.042 0.177 0.332 0.433 0.628 0.49 0.707 0.513 0.703 0.020-0.004 0.023-0.070 0.023-0.494zM22.718 8.157c0.302-0.43 0.364-0.528 0.375-0.597 0.015-0.090-0.056-0.118-0.384-0.153-0.306-0.032-0.297-0.038-0.31 0.214-0.005 0.106-0.010 0.354-0.010 0.55 0 0.328 0.002 0.358 0.026 0.363 0.015 0.003 0.031 0.002 0.036-0.003s0.125-0.174 0.267-0.375zM21.724 7.913c0.208-0.298 0.379-0.548 0.379-0.556 0-0.013-0.404-0.049-0.555-0.049-0.088 0-0.143 0.022-0.198 0.082l-0.037 0.039-0.001 0.411c-0.001 0.354 0.012 0.615 0.029 0.615 0.003 0 0.175-0.244 0.384-0.542zM18.927 8.301c0.018-0.157 0.035-0.612 0.029-0.788-0.007-0.194-0.013-0.204-0.141-0.204-0.193-0.001-0.636 0.036-0.631 0.053 0.006 0.024 0.712 1.032 0.723 1.033 0.005 0 0.014-0.042 0.020-0.094zM20.036 7.847c0-0.5-0.002-0.535-0.028-0.558-0.025-0.022-0.069-0.025-0.392-0.021l-0.364 0.004 0.212 0.324c0.51 0.781 0.512 0.784 0.542 0.784 0.029 0 0.029-0.014 0.029-0.533zM20.673 7.825c0.197-0.301 0.359-0.551 0.359-0.554s-0.161-0.007-0.357-0.007c-0.311 0-0.361 0.003-0.385 0.025-0.026 0.023-0.028 0.061-0.028 0.559 0 0.497 0.002 0.534 0.026 0.529 0.015-0.003 0.179-0.238 0.385-0.553z"></path>
</svg>
