<!-- Generated by IcoMoon.io -->
<svg version="1.1" xmlns="http://www.w3.org/2000/svg" width="32" height="32" viewBox="0 0 32 32">
<title>syzygy</title>
<path d="M19.499 28.276c-1.952 1.189-3.984 1.032-6.101 0.521-1.999-0.484-3.332-1.261-4.478-3.079-1.341-2.127-1.514-4.345-0.939-6.807 0.459-1.972 1.969-3.27 3.674-4.062 1.311-0.385 2.734-0.466 4.209-0.297 1.909 0.217 2.827 0.349 4.785 2.103 1.489 1.333 1.974 3.597 2.047 5.554 0.098 2.646-1.009 4.733-3.198 6.067zM21.179 16.158c-1.936-1.914-3.511-2.307-5.619-2.378-2.103-0.069-4.365 0.132-5.792 1.77-0.014 0.016-0.029 0.038-0.016 0.055-0.294 0.273-0.606 0.536-0.875 0.832-0.31 0.337-0.586 0.701-0.823 1.087-0.504 0.818-0.828 1.725-0.968 2.659-0.327 2.184-0.221 3.992 0.914 5.897 1.111 1.865 2.344 2.857 4.378 3.374 0.782 0.199 1.561 0.373 2.338 0.46-0.002 0.018-0.002 0.035-0.004 0.054 0.232-0.002 0.462 0.007 0.692 0.033 0-0.012-0.002-0.023-0.004-0.034 0.831 0.031 1.663-0.060 2.498-0.355 1.649-0.583 3.138-1.748 4.221-3.171 2.128-2.797 1.617-7.756-0.941-10.283z"></path>
<path d="M23.672 9.766c-0.048-0.284-0.111-0.572-0.192-0.835-0.084-0.264-0.174-0.492-0.153-0.763-0.013-0.023-0.023-0.048-0.035-0.072-0.201-1.247-0.794-2.555-1.613-3.398-0.024-0.072-0.056-0.143-0.092-0.213-0.024-0.013-0.046-0.029-0.067-0.050-0.127-0.127-0.255-0.255-0.382-0.382-0.173-0.089-0.332-0.169-0.429-0.237-0.352-0.247-0.658-0.555-1.015-0.778-0.093-0.052-0.188-0.102-0.284-0.151-0.040-0.017-0.080-0.037-0.122-0.051-0.078-0.014-0.148-0.034-0.225-0.063-0.002-0.001-0.006-0.002-0.011-0.004h0.001c-0.026-0.011-0.052-0.020-0.080-0.033-0.061-0.026-0.102-0.064-0.13-0.106-0.146-0.031-0.294-0.060-0.445-0.081-0.339-0.147-0.705-0.238-1.090-0.287-0.464-0.13-0.939-0.232-1.438-0.262-0.012-0.001-0.025-0.001-0.038-0.002-0.241 0.025-0.484 0.030-0.727 0.025-0.084 0.006-0.166 0.002-0.246-0.008-0.002 0-0.006 0-0.011 0-0.004 0-0.007 0-0.011 0.001 0.001 0.002 0.002 0.005 0.004 0.008-0.161 0.035-0.322 0.071-0.483 0.107-0.417 0.010-0.848 0.118-1.243 0.207-0.513 0.114-1.035 0.245-1.49 0.509-0.101 0.029-0.203 0.058-0.303 0.088-0.981 0.5-1.86 1.149-2.527 2.137-0.951 1.409-1.447 3.228-1.482 5.044-0.034 1.724 0.667 3.644 1.79 5.215 0.179-0.242 0.379-0.468 0.59-0.685-0.148-0.194-0.292-0.39-0.434-0.59-1.574-2.209-1.895-4.606-0.951-6.958 0.764-1.901 2.207-2.89 3.91-3.603 0.232-0.157 0.532-0.241 0.784-0.298 0.315-0.071 0.654-0.124 0.982-0.116 0.119-0.037 0.238-0.065 0.362-0.081 0.060-0.010 0.118-0.002 0.174 0.012 0.714-0.059 1.422-0.115 2.127-0.065 0.090 0.025 0.182 0.052 0.273 0.081 0.043-0.020 0.096-0.029 0.158-0.022 2.492 0.293 5.21 2.685 5.408 5.273 0.014 0.022 0.027 0.046 0.044 0.063 0.086 0.311 0.171 0.623 0.207 0.948 0.034 0.133 0.059 0.271 0.077 0.408 0.105 0.301 0.173 0.608 0.13 0.944-0.006 0.055-0.026 0.102-0.050 0.145-0.010 0.646-0.109 1.26-0.235 1.871-0.165 0.556-0.395 1.092-0.667 1.596-0.279 0.366-0.579 0.704-0.908 1.013 0.221 0.154 0.347 0.254 0.557 0.437 0.375-0.422 0.713-0.883 1.020-1.375 0.059-0.171 0.119-0.343 0.179-0.514 0.506-1.007 0.739-2.109 0.757-3.255 0.002-0.093-0.002-0.18-0.007-0.27 0.044-0.17 0.068-0.347 0.077-0.526z"></path>
<path d="M21.606 19.685c-0.264-0.765-0.625-1.509-1.146-2.131-0.111-0.132-0.36-0.298-0.381-0.47-0.086-0.060-0.174-0.118-0.268-0.167-1.396-1.363-3.72-2.012-5.786-1.666-0.95 0.005-1.892 0.171-2.767 0.547-0.948 0.407-1.906 1.118-2.2 2.043-2.111 2.888-0.395 7.948 2.636 9.664 3.249 1.838 7.593 1.363 9.506-1.918 0.57-0.978 0.891-2.081 0.908-3.2 0.007-0.539-0.055-1.079-0.183-1.605-0.089-0.364-0.194-0.733-0.319-1.098z"></path>
<path d="M8.375 15.112c-1.666-0.26-3.445-0.132-5.197 0.006-0.437 0.017-0.874 0.047-1.312 0.080-0.251 0.006-0.501 0.025-0.748 0.061-0.002 0.011-0.005 0.022-0.007 0.034 0.241 0.033 0.555 0.156 0.764 0.175 0.317 0.029 0.641 0.018 0.959 0.037 0.304 0.017 0.606 0.037 0.909 0.058 0.238-0.006 0.476-0.016 0.714-0.033 0.001 0 0.001 0 0.002 0 0.016-0.001 0.033-0.002 0.050-0.004 0.141-0.011 0.283-0.021 0.424-0.038 1.058-0.075 2.119-0.035 3.183-0.012 0.132-0.075 0.413-0.341 0.26-0.365z"></path>
<path d="M6.895 13.638c-0.119-0.061-0.23-0.132-0.344-0.201-0.111-0.034-0.225-0.064-0.327-0.101-0.107-0.038-0.213-0.072-0.319-0.109-0.404-0.094-0.816-0.174-1.23-0.246-0.242-0.021-0.484-0.051-0.726-0.080-0.246-0.029-0.574-0.135-0.807-0.026-0.041 0.020-0.067 0.035-0.086 0.051 0.031 0.017 0.063 0.037 0.093 0.060 0.038 0.011 0.075 0.024 0.113 0.035 0.014 0.002 0.026 0.010 0.040 0.011 0 0.001-0.001 0.002-0.001 0.004 0.018 0.006 0.038 0.012 0.056 0.020 0.001 0 0.002 0.001 0.002 0.001 0.055 0.007 0.111 0.014 0.16 0.026 0.060 0.013 0.103 0.046 0.139 0.082 0.698 0.107 1.401 0.213 2.073 0.399 0.076 0.021 0.131 0.061 0.167 0.111 0.085 0.017 0.171 0.031 0.254 0.055 0.119 0.024 0.237 0.047 0.356 0.068 0.19 0.033 0.382 0.11 0.536 0.030-0.048-0.068-0.098-0.135-0.149-0.191z"></path>
<path d="M5.971 11.699c0.037 0.016 0.073 0.033 0.11 0.048 0.12 0.050 0.509-0.209 0.366-0.296-0.831-0.51-1.784-0.869-2.667-1.281-0.034-0.016-0.096 0.005-0.152 0.039 0.714 0.593 1.546 1.014 2.343 1.489z"></path>
<path d="M7.451 16.316c-0.025 0.024-0.055 0.042-0.089 0.048-0.014 0.002-0.026 0.006-0.039 0.010-0.054 0.025-0.107 0.048-0.161 0.073 0-0.014-0.005-0.024-0.014-0.030-0.039 0.011-0.079 0.023-0.118 0.031-0.016 0.002-0.029 0-0.044 0-1.002 0.374-2.081 0.81-3.002 1.37-0.169 0.069-0.338 0.14-0.505 0.209-0.161 0.067-0.564 0.606-0.225 0.476 1.407-0.536 2.77-1.162 4.124-1.819 0.174-0.085 0.424-0.53 0.073-0.368z"></path>
<path d="M6.876 18.038c-0.031-0.111-0.192-0.011-0.243 0.021-0.239 0.15-0.479 0.3-0.718 0.449-0.077 0.050-0.237 0.194-0.208 0.301 0.031 0.114 0.199 0.013 0.251-0.021 0.239-0.153 0.479-0.305 0.718-0.458 0.075-0.047 0.229-0.188 0.2-0.292z"></path>
<path d="M26.903 18.365c-0.574-0.459-1.18-0.88-1.797-1.278-0.497-0.196-0.997-0.385-1.47-0.634-0.194-0.038-0.388-0.067-0.586-0.082-0.012 0.013-0.025 0.025-0.038 0.038 0.191 0.522 0.999 0.776 1.466 1.018 0.704 0.365 1.422 0.649 2.105 1.065 0.065 0.017 0.131 0.035 0.196 0.047 0.031-0.016 0.064-0.025 0.097-0.037-0.008-0.005-0.014-0.010-0.022-0.014 0.046-0.046 0.077-0.099 0.050-0.122z"></path>
<path d="M30.652 15.534c-1.411-0.065-2.823-0.118-4.234-0.166-0.641-0.052-1.283-0.11-1.924-0.167-0.11 0.014-0.221 0.027-0.331 0.048l-0.198 0.040c-0.158-0.012-0.226 0.065-0.208 0.226 0.031 0.010 0.060 0.018 0.085 0.028 0.027 0.011 0.051 0.027 0.073 0.044 1.537 0.103 3.074 0.204 4.612 0.294 0.706-0.034 1.413-0.076 2.118-0.109 0.094-0.115 0.135-0.234 0.006-0.239z"></path>
<path d="M26.293 13.953c-0.716 0.080-1.43 0.167-2.14 0.264-0.11 0.016-0.419 0.341-0.229 0.334 0.313-0.012 0.626-0.030 0.939-0.047 0.005 0.006 0.013 0.012 0.026 0.013 0.139 0.013 0.279-0.006 0.419-0.035 0.038-0.002 0.077-0.004 0.116-0.006 0.008-0.010 0.018-0.016 0.028-0.025 0.046-0.011 0.090-0.021 0.135-0.030 0.139-0.030 0.276-0.059 0.415-0.088 0.215-0.025 0.428-0.063 0.621-0.119 0.001-0.002 0.002-0.005 0.004-0.007 0.046-0.025 0.11-0.079 0.148-0.127-0.149-0.071-0.313-0.107-0.481-0.126z"></path>
<path d="M26.643 11.862c-0.222 0.115-0.442 0.233-0.664 0.351-0.564 0.235-1.142 0.471-1.665 0.778-0.017 0.011-0.046 0.038-0.077 0.073-0.060 0.025-0.12 0.052-0.18 0.077-0.052 0.021-0.135 0.106-0.195 0.188-0.042 0.022-0.082 0.045-0.124 0.065 0.042 0.024 0.080 0.059 0.109 0.107 0.012-0.002 0.022-0.002 0.041-0.010 0.782-0.317 1.55-0.631 2.297-1.027 0.051-0.026 0.114-0.086 0.165-0.153 0.075-0.038 0.148-0.075 0.222-0.112 0.16-0.082 0.39-0.504 0.073-0.339z"></path>
<path d="M24.777 19.315c-0.234-0.222-0.463-0.447-0.7-0.666-0.208-0.192-0.402-0.413-0.625-0.59-0.046-0.020-0.092-0.038-0.137-0.059-0.012-0.005-0.018-0.014-0.027-0.021-0.122 0.022-0.285 0.19-0.235 0.282 0.029 0.056 0.065 0.11 0.101 0.164 0.262 0.161 0.526 0.318 0.75 0.532 0.038 0.037 0.063 0.076 0.078 0.115 0.251 0.137 0.51 0.277 0.719 0.456 0.077-0.078 0.126-0.169 0.077-0.215z"></path>
<path d="M24.988 11.483c-0.048-0.054-0.165 0.037-0.196 0.065-0.12 0.105-0.239 0.209-0.36 0.313-0.037 0.033-0.136 0.137-0.088 0.191s0.165-0.039 0.198-0.068c0.119-0.105 0.238-0.209 0.357-0.314 0.037-0.031 0.137-0.133 0.089-0.187z"></path>
</svg>
