<!-- Generated by IcoMoon.io -->
<svg version="1.1" xmlns="http://www.w3.org/2000/svg" width="32" height="32" viewBox="0 0 32 32">
<title>tablet</title>
<path d="M17.748 2.5c-2.014-0.003-4.128 0.609-5.977 1.487-2.311 0.391-2.621 2.248-4.109 3.803-0.5 0.551-1.236 1.72-0.045 2.043 0.375 0.58 1.328 0.506 1.998 1.334 0.232 0.109 0.75 0.063 0.863 0.965 0.834 0.926 2.299 1.55 3.405 1.806 0.971 0.346 1.295 0.727 1.777 1.282 0.676 0.92 1.51 1.339 2.328 1.55 0.987-1.572 1.946-3.236 1.885-4.16 0.078-0.812 0.317-1.255 1.112-2.22-0.188-0.573 0.766-0.625 0.828-2.582 0.556-0.33 0.654-1.459 0.92-2.662 0.217-0.471 0.148-0.783-0.141-0.965-1.368-1.197-3.066-1.678-4.843-1.68zM23.678 7.592c-0.118 0-0.235 0.112-0.355 0.391-0.359 1.367-0.852 1.596-1.033 2.94-0.42 0.783-0.461 2.736-1.578 3.701-0.074 0.727-0.16 1.447-0.597 1.959l-0-0c-0.254 0.488-0.68 0.891-0.221 1.736 0.25 0.897 0.211 1.664 1.033 2.56 0.721 0.477 0.527 1.18 0.709 1.793 1.941-0.709 5.257-1.561 6.092-1.141 0.078-1.465 0.176-4.621-0.914-6.834-0.387-1.441-0.164-3.059-1.101-3.996-0.562-1.346-0.947-2.305-1.68-2.826-0.119-0.171-0.237-0.283-0.355-0.283zM4.996 11.454c-0.499-0.012-0.736 0.211-0.638 0.735-0.5 8.623 0.533 12.795 1.532 17.869-0.17 0.461 0.473 0.687 0.234 1.443 9.315-0.472 7.203-1.466 13.14-1.471 0.948 0.385 1.375-0.125 1.35-0.709 0-2.34-0.328-3.412-0.795-6.545-1.146-2.963-1.651-4.728-6.181-6.84-1.725-0.244-0.573-1.074-2.446-1.63-3.514-2.145-2.855-0.641-5.613-2.764-0.222-0.054-0.417-0.084-0.583-0.088z"></path>
</svg>
