<!-- Generated by IcoMoon.io -->
<svg version="1.1" xmlns="http://www.w3.org/2000/svg" width="32" height="32" viewBox="0 0 32 32">
<title>tag-bold</title>
<path fill="#4f5a60" d="M7.667 3.667c-2.193 0-4 1.807-4 4v6.229c0 1.060 0.422 2.078 1.172 2.828l12.333 12.333c1.551 1.551 4.105 1.551 5.656 0l6.229-6.229c1.551-1.551 1.551-4.105 0-5.656l-12.333-12.333c-0.75-0.75-1.768-1.172-2.828-1.172zM7.667 6.333h6.229c0.354 0 0.692 0.14 0.943 0.391l12.333 12.333c0.532 0.532 0.532 1.354 0 1.885l-6.229 6.229c-0.532 0.532-1.354 0.532-1.885 0l-12.333-12.333c-0.25-0.25-0.391-0.589-0.391-0.943v-6.229c0-0.752 0.581-1.333 1.333-1.333z"></path>
<path fill="#4f5a60" d="M12 7.667c-2.377 0-4.333 1.956-4.333 4.333s1.956 4.333 4.333 4.333c2.377 0 4.333-1.956 4.333-4.333s-1.956-4.333-4.333-4.333zM12 10.333c0.936 0 1.667 0.73 1.667 1.667s-0.73 1.667-1.667 1.667c-0.936 0-1.667-0.73-1.667-1.667s0.73-1.667 1.667-1.667z"></path>
</svg>
