<!-- Generated by IcoMoon.io -->
<svg version="1.1" xmlns="http://www.w3.org/2000/svg" width="32" height="32" viewBox="0 0 32 32">
<title>tag</title>
<path fill="#394852" d="M6.6 4.2c-1.316 0-2.4 1.084-2.4 2.4v7.737c0 0.636 0.253 1.247 0.703 1.697l13.4 13.4c0.931 0.931 2.463 0.931 3.394 0l7.738-7.738c0.931-0.931 0.931-2.463 0-3.394l-13.4-13.4c-0.45-0.45-1.061-0.703-1.697-0.703zM6.6 5.8h7.737c0.212 0 0.415 0.084 0.566 0.234l13.4 13.4c0.319 0.319 0.319 0.812 0 1.131l-7.738 7.738c-0.319 0.319-0.812 0.319-1.131 0l-13.4-13.4c-0.15-0.15-0.234-0.353-0.234-0.566v-7.737c0-0.451 0.349-0.8 0.8-0.8z"></path>
<path fill="#394852" d="M12 8.2c-2.089 0-3.8 1.711-3.8 3.8s1.711 3.8 3.8 3.8c2.089 0 3.8-1.711 3.8-3.8s-1.711-3.8-3.8-3.8zM12 9.8c1.224 0 2.2 0.976 2.2 2.2s-0.976 2.2-2.2 2.2c-1.224 0-2.2-0.976-2.2-2.2s0.976-2.2 2.2-2.2z"></path>
</svg>
