<!-- Generated by IcoMoon.io -->
<svg version="1.1" xmlns="http://www.w3.org/2000/svg" width="19" height="32" viewBox="0 0 19 32">
<title>tarot1</title>
<path d="M2.821 0c-1.562 0-2.821 1.299-2.821 2.864v26.273c0 1.564 1.259 2.864 2.821 2.864h13.267c1.562 0 2.821-1.299 2.821-2.864v-26.273c0-1.564-1.259-2.864-2.821-2.864h-13.267zM2.821 0.727h13.267c1.159 0 2.094 0.961 2.094 2.136v26.273c0 1.176-0.935 2.136-2.094 2.136h-13.267c-1.159 0-2.094-0.96-2.094-2.136v-26.273c0-1.176 0.935-2.136 2.094-2.136zM6.209 10.244l0.439 4.095-3.695 1.661 3.695 1.661-0.439 4.095 3.254-2.433 3.256 2.433-0.44-4.095 3.695-1.661-3.695-1.661 0.44-4.095-3.256 2.433-3.254-2.433zM7.109 11.825l2.354 1.76 0.436-0.325 1.918-1.433-0.261 2.435-0.057 0.524 0.482 0.217 2.22 0.997-2.702 1.215 0.057 0.524 0.261 2.435-2.354-1.759-2.354 1.76 0.261-2.436 0.057-0.524-0.482-0.217-2.22-0.997 2.702-1.214-0.057-0.524-0.261-2.436z"></path>
</svg>
