<!-- Generated by IcoMoon.io -->
<svg version="1.1" xmlns="http://www.w3.org/2000/svg" width="32" height="32" viewBox="0 0 32 32">
<title>tekeli_li</title>
<path d="M26.7 10.694c-0.104 0.155-0.254 0.254-0.372 0.396-0.104 0.126-0.152 0.3-0.314 0.37-0.116 0.049-0.247 0.068-0.365 0.118-0.334 0.145-0.662 0.307-0.994 0.45-0.227 0.099-0.435 0.208-0.633 0.353-0.184 0.131-0.351 0.295-0.546 0.399-0.353 0.189-0.742 0.305-1.095 0.491-0.261 0.138-0.512 0.176-0.793 0.28-0.133 0.051-0.261 0.063-0.377 0.121-0.102 0.049-0.215 0.068-0.314 0.126 0.399-0.024 0.79-0.089 1.187-0.138 0.147-0.022 0.295-0.056 0.438-0.099 0.116-0.008 0.235-0.017 0.353-0.022 0.080-0.019 0.155-0.053 0.222-0.099 0.077-0.010 0.152-0.017 0.23-0.024 0.145-0.036 0.288-0.128 0.435-0.172 0.155-0.046 0.326-0.049 0.471-0.121 0.121-0.060 0.169-0.094 0.295-0.116 0.293-0.051 0.525-0.191 0.781-0.322 0.206-0.106 0.474-0.111 0.655-0.249 0.167-0.126 0.365-0.213 0.525-0.351 0.070-0.063 0.261-0.394 0.326-0.176 0.029 0.092-0.121 0.249-0.16 0.324-0.060 0.111-0.102 0.193-0.184 0.288-0.058 0.065-0.118 0.114-0.169 0.184-0.070 0.102-0.111 0.232-0.167 0.343-0.099 0.193-0.172 0.457-0.372 0.561-0.155 0.080-0.329 0.111-0.483 0.184-0.143 0.065-0.254 0.15-0.418 0.176-0.085 0.002-0.172 0.008-0.256 0.017-0.073 0.046-0.15 0.085-0.23 0.116-0.135 0.056-0.278 0.128-0.421 0.164-0.387 0.097-0.723 0.343-1.11 0.445-0.305 0.082-0.633 0.085-0.938 0.167-0.201 0.056-0.392 0.080-0.599 0.077-0.179-0.002-0.336 0.106-0.512 0.123 1.197-0.017 2.381 0.121 3.573 0.121 0.556 0 1.184 0.034 1.651-0.302 0.174-0.123 0.353-0.254 0.527-0.37 0.126-0.087 0.239-0.118 0.37-0.191-0.222 0.508-0.742 0.851-1.066 1.288-0.131 0.174-0.307 0.273-0.517 0.307-0.493 0.080-0.974 0.060-1.477 0.060-0.624 0-1.242 0.063-1.84 0.247-0.256 0.080-0.566 0.126-0.829 0.121-0.097-0.002-0.186-0.005-0.283 0.014-0.049 0.008-0.077 0.034-0.118 0.043 0.322-0.002 0.655-0.036 0.969-0.002 0.288 0.032 0.517 0.172 0.761 0.3 0.063 0.032 0.133 0.043 0.196 0.070 0.114 0.049 0.169 0.131 0.271 0.206 0.114 0.082 0.266 0.184 0.394 0.225 0.307 0.097 0.626 0.092 0.938 0.135 0.203 0.027 0.396 0.080 0.599 0.111 0.326 0.053 0.679-0.012 0.952-0.193 0.010-0.010 0.022-0.019 0.031-0.032 0.044-0.063 0.097-0.106 0.164-0.131-0.058 0.063-0.126 0.116-0.196 0.162-0.172 0.181-0.351 0.355-0.534 0.525-0.181 0.181-0.375 0.348-0.58 0.503-0.053 0.051-0.104 0.058-0.152 0.019-0.109 0.038-0.169 0.058-0.297 0.060-0.082 0-0.167 0.014-0.251 0.012-0.295-0.010-0.566-0.189-0.841-0.271-0.218-0.065-0.44-0.080-0.65-0.167-0.491-0.208-0.986-0.317-1.508-0.416-0.232-0.043-0.462-0.017-0.696-0.063-0.176-0.032-0.36 0.005-0.532-0.049 0.44 0.305 0.885 0.595 1.274 0.955 0.263 0.244 0.556 0.409 0.914 0.515 0.372 0.109 0.849 0.032 1.238 0.032 0.213 0 0.435 0.019 0.645-0.010 0.034 0.094-0.384 0.302-0.474 0.324-0.157 0.044-0.326 0.056-0.488 0.085-0.14 0.027-0.263 0.024-0.406 0.027-0.266 0.008-0.532 0.085-0.798 0.114-0.242 0.029-0.529 0.005-0.752-0.109-0.157-0.077-0.278-0.189-0.44-0.259-0.133-0.060-0.259-0.147-0.392-0.21-0.143-0.068-0.251-0.111-0.411-0.157-0.51-0.15-1.286-0.256-1.697 0.14-0.097 0.094-0.227 0.143-0.317 0.235-0.092 0.094-0.169 0.208-0.278 0.297-0.046 0.036-0.089 0.080-0.131 0.121 0.206 0.505 0.476 0.979 0.8 1.433 0.087 0.123 0.14 0.239 0.242 0.351 0.111 0.121 0.225 0.235 0.295 0.387 0.128 0.273 0.336 0.515 0.457 0.788 0.058 0.131 0.109 0.293 0.152 0.43 0.049 0.155 0.121 0.317 0.14 0.476 0.056 0.433-0.005 0.909-0.005 1.346 0.002 0.558-0.068 1.112-0.060 1.67 0.014-0.118-0.029-0.23-0.046-0.346-0.022-0.133-0.014-0.261-0.012-0.396 0.005-0.293-0.073-0.503-0.215-0.745-0.075-0.128-0.106-0.232-0.15-0.367-0.051-0.167-0.172-0.276-0.237-0.433-0.065-0.162-0.109-0.247-0.206-0.418-0.049-0.085-0.138-0.215-0.206-0.346 0.029 0.126 0.034 0.249 0.034 0.421v0.628c0 0.251-0.002 0.505 0 0.759 0.002 0.326-0.060 0.643-0.065 0.967-0.002 0.546 0.010 1.085-0.060 1.634-0.053 0.423-0.128 1.052-0.384 1.433-0.099-0.063-0.041-0.454-0.041-0.571v-1.069c0-0.534 0.034-1.056-0.082-1.579-0.082-0.37-0.162-0.74-0.263-1.105-0.102-0.363-0.244-0.737-0.309-1.107-0.008-0.043-0.022-0.082-0.019-0.121 0.012 0.201 0.036 0.445 0.008 0.643-0.063 0.43-0.085 0.878-0.186 1.303-0.075 0.317-0.133 0.643-0.172 0.967-0.008 0.251-0.017 0.503-0.024 0.754-0.034 0.225-0.068 0.45-0.097 0.674-0.049 0.423-0.063 0.844-0.089 1.267-0.010 0.143 0.017 0.583-0.060 0.728-0.111-0.032-0.032-0.435-0.060-0.549-0.053-0.203-0.111-0.392-0.109-0.609 0.002-0.237 0.005-0.476 0.002-0.713-0.005-0.278-0.070-0.546-0.063-0.827 0.014-0.824-0.152-1.624-0.222-2.442-0.027-0.302-0.032-0.602-0.024-0.904 0.002-0.082 0.012-0.16-0.012-0.239-0.102 0.060-0.043 0.43-0.046 0.539-0.005 0.396-0.072 0.8-0.116 1.194-0.034 0.295-0.097 0.59-0.126 0.885-0.019 0.22-0.099 0.416-0.152 0.633-0.111 0.452-0.157 0.873-0.157 1.342-0.002 0.476 0 0.952 0 1.429 0-0.425-0.244-0.875-0.413-1.274-0.104-0.251-0.135-0.517-0.181-0.781-0.065-0.36-0.135-0.711-0.227-1.064-0.121-0.469-0.111-0.926-0.049-1.404 0.034-0.249 0.014-0.51 0.012-0.761-0.005-0.483 0.065-0.962 0.065-1.446-0.138 0.583-0.525 1.035-0.708 1.588-0.034 0.109-0.024 0.201-0.027 0.317 0 0.203-0.082 0.375-0.152 0.563-0.227 0.621-0.6 1.228-0.962 1.774 0.191-0.454 0.38-0.875 0.382-1.375 0.002-0.123 0-0.247-0.002-0.37 0-0.14 0.038-0.251 0.058-0.389 0.051-0.382-0.008-0.79 0.002-1.175 0.010-0.421 0.218-0.836 0.305-1.228 0.046-0.198 0.143-0.406 0.222-0.597 0.051-0.121 0.106-0.201 0.179-0.302 0.036-0.053 0.102-0.126 0.123-0.181 0.029-0.073 0.012-0.15 0.036-0.23 0.046-0.145 0.14-0.237 0.176-0.394 0.058-0.259 0.128-0.51 0.215-0.754 0.046-0.128 0.043-0.28 0.036-0.43-0.155-0.116-0.288-0.283-0.438-0.406-0.109-0.089-0.189-0.203-0.28-0.297-0.089-0.092-0.218-0.14-0.314-0.235-0.413-0.396-1.189-0.29-1.697-0.14-0.162 0.046-0.268 0.089-0.411 0.157-0.135 0.063-0.261 0.15-0.394 0.21-0.162 0.070-0.283 0.181-0.438 0.259-0.225 0.114-0.51 0.138-0.754 0.109-0.263-0.029-0.532-0.106-0.798-0.114-0.143-0.002-0.263 0-0.406-0.027-0.162-0.029-0.329-0.041-0.488-0.085-0.087-0.022-0.505-0.23-0.471-0.324 0.21 0.029 0.433 0.010 0.643 0.010 0.392 0 0.868 0.077 1.24-0.032 0.358-0.106 0.65-0.271 0.914-0.515 0.387-0.36 0.834-0.65 1.272-0.955-0.169 0.053-0.353 0.017-0.532 0.049-0.232 0.046-0.464 0.019-0.694 0.063-0.522 0.099-1.018 0.208-1.511 0.416-0.21 0.087-0.433 0.102-0.648 0.167-0.278 0.082-0.546 0.261-0.844 0.271-0.082 0.002-0.167-0.012-0.249-0.012-0.128-0.002-0.189-0.022-0.3-0.060-0.046 0.038-0.097 0.032-0.15-0.019-0.205-0.155-0.399-0.322-0.58-0.503-0.186-0.169-0.363-0.343-0.534-0.525-0.072-0.046-0.138-0.099-0.196-0.162 0.065 0.024 0.121 0.068 0.162 0.131 0.012 0.012 0.022 0.022 0.034 0.032 0.273 0.181 0.626 0.247 0.95 0.193 0.203-0.032 0.396-0.085 0.599-0.111 0.314-0.043 0.631-0.038 0.938-0.135 0.131-0.041 0.283-0.143 0.396-0.225 0.102-0.075 0.155-0.157 0.271-0.206 0.063-0.027 0.133-0.038 0.196-0.070 0.242-0.128 0.471-0.268 0.759-0.3 0.314-0.034 0.65 0 0.969 0.002-0.041-0.010-0.070-0.036-0.118-0.043-0.094-0.019-0.186-0.017-0.28-0.014-0.266 0.005-0.575-0.041-0.829-0.121-0.597-0.184-1.216-0.247-1.842-0.247-0.503 0-0.981 0.019-1.477-0.060-0.208-0.034-0.387-0.133-0.515-0.307-0.326-0.438-0.844-0.781-1.066-1.288 0.131 0.072 0.242 0.104 0.367 0.191 0.174 0.116 0.355 0.247 0.527 0.37 0.469 0.336 1.095 0.302 1.654 0.302 1.189 0 2.376-0.138 3.573-0.121-0.176-0.017-0.334-0.126-0.515-0.123-0.206 0.002-0.396-0.022-0.6-0.077-0.305-0.082-0.631-0.085-0.935-0.167-0.387-0.102-0.725-0.348-1.11-0.445-0.143-0.036-0.285-0.109-0.423-0.164-0.080-0.032-0.155-0.070-0.227-0.116-0.087-0.010-0.172-0.014-0.259-0.017-0.162-0.027-0.273-0.111-0.416-0.176-0.155-0.072-0.331-0.104-0.484-0.184-0.201-0.104-0.273-0.367-0.372-0.561-0.058-0.111-0.097-0.242-0.169-0.343-0.049-0.070-0.109-0.118-0.169-0.184-0.082-0.094-0.121-0.176-0.181-0.288-0.038-0.075-0.191-0.232-0.162-0.324 0.068-0.218 0.256 0.114 0.329 0.176 0.16 0.138 0.355 0.225 0.525 0.351 0.181 0.138 0.447 0.143 0.653 0.249 0.259 0.131 0.488 0.271 0.783 0.322 0.126 0.022 0.172 0.056 0.293 0.116 0.147 0.072 0.319 0.075 0.474 0.121 0.145 0.044 0.29 0.135 0.435 0.172 0.075 0.008 0.152 0.014 0.23 0.024 0.068 0.046 0.14 0.080 0.222 0.099 0.116 0.005 0.235 0.014 0.353 0.022 0.143 0.043 0.288 0.077 0.438 0.099 0.396 0.049 0.786 0.114 1.184 0.138-0.097-0.058-0.213-0.077-0.312-0.126-0.118-0.058-0.247-0.070-0.38-0.121-0.28-0.104-0.529-0.143-0.793-0.28-0.351-0.186-0.742-0.302-1.095-0.491-0.196-0.104-0.363-0.268-0.544-0.399-0.201-0.145-0.409-0.254-0.633-0.353-0.334-0.143-0.662-0.305-0.994-0.45-0.118-0.051-0.249-0.070-0.365-0.118-0.162-0.070-0.213-0.244-0.314-0.37-0.118-0.143-0.271-0.242-0.372-0.396-0.377-0.566-0.387-1.245-0.411-1.905 0.024 0.116 0.179 0.288 0.244 0.348 0.097 0.094 0.193 0.196 0.261 0.317 0.063 0.118 0.056 0.256 0.102 0.372 0.089 0.21 0.172 0.251 0.396 0.363 0.128 0.065 0.278 0.126 0.406 0.186 0.114 0.053 0.191 0.109 0.326 0.121 0.295 0.032 0.551 0.099 0.834 0.169 0.237 0.058 0.396 0.169 0.607 0.271 0.094 0.046 0.152 0.104 0.239 0.157 0.138 0.085 0.329 0.114 0.484 0.155 0.189 0.049 0.38 0.043 0.57 0.087 0.104 0.022 0.169 0.065 0.268 0.092 0.324 0.092 0.691 0.121 1.001 0.227 0.162 0.056 0.283 0.053 0.454 0.060 0.329 0.014 0.512 0.242 0.815 0.326 0.319 0.087 0.58 0.331 0.919 0.353 0.087 0.005 0.172-0.022 0.259 0.005 0.102 0.032 0.22 0.135 0.317 0.186 0.155 0.080 0.423 0.225 0.539 0.363 0.034 0.072 0.075 0.143 0.121 0.21 0.049 0.038 0.089 0.085 0.128 0.133 0.056 0.087 0.070 0.157 0.056 0.259 0.012-0.162 0.109-0.164 0.189-0.109 0.070 0.051 0.075 0.099 0.131 0.157 0.068 0.072 0.172 0.126 0.242 0.193 0.075 0.072 0.147 0.133 0.215 0.196 0.21-0.343 0.425-0.696 0.464-1.098 0.022-0.23 0.017-0.493-0.029-0.716-0.046-0.227-0.077-0.435-0.14-0.66-0.046-0.169-0.075-0.353-0.072-0.532v-0.002c-0.008-0.012-0.012-0.022-0.017-0.034-0.075-0.169-0.237-0.232-0.36-0.36-0.121-0.128-0.172-0.305-0.285-0.435-0.056-0.065-0.092-0.097-0.111-0.193-0.014-0.080-0.010-0.162-0.010-0.244 0.002-0.089 0.027-0.143 0.041-0.227 0.012-0.072-0.008-0.147 0.008-0.22 0.005-0.029 0.029-0.038 0.038-0.075 0.019-0.068 0.008-0.135 0.032-0.206 0.022-0.060 0.063-0.128 0.097-0.184 0.138-0.227 0.343-0.283 0.59-0.346 0.092-0.024 0.389-0.010 0.679 0.014 0.065-0.022 0.109-0.065 0.179-0.089 0.099-0.034 0.213-0.049 0.319-0.046 0.133 0.002 0.176-0.019 0.28-0.087 0.036-0.024 0.085-0.056 0.126-0.072 0.034-0.017 0.073-0.022 0.106-0.034 0.104-0.041 0.176-0.135 0.276-0.191 0.080-0.049 0.172-0.068 0.259-0.102 0.070-0.029 0.135-0.070 0.201-0.111l1.354-0.967c0.097-0.043 0.201-0.043 0.309-0.046 0.077-0.002 0.181-0.017 0.254 0.005 0.051 0.012 0.126 0.058 0.179 0.082 0.111 0.051 0.176 0.121 0.259 0.208 0.082 0.089 0.169 0.14 0.256 0.215 0.075 0.065 0.063 0.085 0.063 0.186 0 0.077 0 0.155 0 0.232 0-0.234-0.094-0.341-0.317-0.392-0.152-0.034-0.324-0.080-0.476-0.089-0.082-0.005-0.145-0.005-0.21 0.034-0.051 0.032-0.106 0.070-0.16 0.104-0.053 0.032-0.109 0.065-0.131 0.131-0.017 0.051-0.010 0.082-0.041 0.135-0.027 0.049-0.060 0.094-0.092 0.135-0.046 0.063-0.070 0.116-0.106 0.184-0.034 0.060-0.085 0.087-0.128 0.138-0.051 0.060-0.104 0.147-0.147 0.218-0.077 0.116-0.184 0.198-0.261 0.317-0.126 0.196-0.254 0.401-0.387 0.587-0.082 0.118-0.186 0.215-0.302 0.297-0.063 0.046-0.102 0.099-0.169 0.135-0.063 0.036-0.22 0.077-0.247 0.147 0.063 0.082 0.145 0.087 0.225 0.145 0.058 0.043 0.094 0.092 0.157 0.123s0.147 0.024 0.21 0.043c0.034 0.012 0.046 0.036 0.080 0.049 0.111 0.034 0.251 0.044 0.37 0.044 0.206-0.005 0.392 0.082 0.602 0.041 0.104-0.022 0.176-0.075 0.283-0.087 0.029-0.002 0.082-0.010 0.128-0.022 0.027-0.036 0.053-0.070 0.089-0.097 0.010 0.051-0.036 0.080-0.089 0.097-0.034 0.046-0.065 0.097-0.109 0.14-0.065 0.063-0.102 0.087-0.15 0.152-0.082 0.109-0.215 0.201-0.353 0.225-0.097 0.019-0.203-0.012-0.302-0.005-0.118 0.012-0.215 0.049-0.336 0.049-0.174-0.002-0.394-0.041-0.563-0.002-0.191 0.046-0.334 0.305-0.409 0.471-0.017 0.041-0.008 0.077-0.017 0.116-0.014 0.049-0.038 0.072-0.063 0.116-0.065 0.128-0.063 0.305-0.089 0.445-0.017 0.087-0.038 0.174-0.058 0.263 0.002 0.008 0.002 0.017 0.005 0.024 0.038 0.143 0.056 0.309 0.094 0.457 0.019 0.082 0.014 0.114 0.051 0.191 0.019 0.044 0.044 0.080 0.060 0.121 0.065 0.152 0.174 0.3 0.288 0.428 0.157 0.174 0.283 0.377 0.411 0.578 0.017-0.017 0.034-0.032 0.053-0.049 0.070-0.068 0.172-0.121 0.242-0.193 0.053-0.058 0.060-0.106 0.131-0.157 0.080-0.056 0.174-0.053 0.186 0.109-0.012-0.102 0.002-0.172 0.058-0.259 0.036-0.049 0.080-0.094 0.126-0.133 0.046-0.068 0.087-0.138 0.123-0.21 0.116-0.138 0.384-0.283 0.537-0.363 0.099-0.051 0.218-0.155 0.319-0.186 0.085-0.027 0.169 0 0.256-0.005 0.338-0.022 0.602-0.266 0.919-0.353 0.305-0.085 0.486-0.312 0.817-0.326 0.172-0.008 0.29-0.005 0.452-0.060 0.312-0.106 0.677-0.135 1.003-0.227 0.099-0.027 0.164-0.070 0.266-0.092 0.191-0.044 0.384-0.038 0.573-0.087 0.155-0.041 0.343-0.070 0.483-0.155 0.085-0.053 0.143-0.111 0.239-0.157 0.21-0.102 0.367-0.213 0.604-0.271 0.285-0.070 0.541-0.138 0.836-0.169 0.133-0.012 0.21-0.068 0.324-0.121 0.131-0.060 0.278-0.121 0.409-0.186 0.225-0.111 0.305-0.152 0.394-0.363 0.048-0.116 0.039-0.254 0.104-0.372 0.068-0.121 0.162-0.222 0.261-0.317 0.065-0.060 0.22-0.232 0.244-0.348-0.027 0.66-0.036 1.339-0.411 1.905zM31.124 15.303c-0.041-0.080-0.082-0.164-0.106-0.249-0.046-0.169-0.031-0.36-0.077-0.522-0.024-0.082-0.075-0.147-0.109-0.235-0.060-0.147-0.068-0.312-0.133-0.459-0.102-0.235-0.247-0.452-0.36-0.679-0.082-0.164-0.102-0.341-0.167-0.51-0.058-0.15-0.147-0.276-0.196-0.433-0.094-0.312-0.186-0.631-0.244-0.948-0.017-0.089 0-0.181-0.019-0.268-0.017-0.080-0.053-0.123-0.058-0.215-0.002-0.123 0.002-0.667-0.118-0.684-0.036-0.005-0.048 0.051-0.068 0.056-0.077 0.017-0.147 0.017-0.225 0.014-0.121-0.002-0.435 0.082-0.52 0.053-0.147-0.053-0.118-0.23-0.172-0.389-0.102-0.307-0.155-0.573-0.225-0.892-0.044-0.193-0.157-0.409-0.259-0.573-0.14-0.222 0.041-0.45-0.005-0.696-0.135-0.044-0.227 0.019-0.341-0.070-0.092-0.072-0.135-0.293-0.206-0.399-0.099-0.15-0.155-0.3-0.232-0.467-0.082-0.181-0.208-0.343-0.326-0.503-0.174-0.234-0.372-0.498-0.631-0.65-0.222-0.131-0.467-0.336-0.73-0.363-0.164-0.017-0.206-0.010-0.353-0.121-0.206-0.157-0.384-0.336-0.563-0.52-0.278-0.283-0.653-0.571-0.996-0.764-0.174-0.097-0.355-0.176-0.537-0.278-0.213-0.118-0.433-0.254-0.628-0.396-0.114-0.085-0.193-0.121-0.331-0.167-0.179-0.058-0.297-0.172-0.471-0.244-0.353-0.147-0.648-0.273-0.911-0.554-0.082-0.092-0.121-0.215-0.203-0.305-0.111-0.123-0.329-0.14-0.474-0.193-0.314-0.116-0.599-0.227-0.938-0.247-0.14-0.010-0.288-0.029-0.423-0.075-0.087-0.029-0.164-0.089-0.251-0.123-0.302-0.111-0.65-0.116-0.965-0.174-0.181-0.034-0.331-0.073-0.515-0.060-0.123 0.010-0.215 0.058-0.331 0.068-0.256 0.019-0.51-0.049-0.749 0.053-0.172 0.073-0.355 0.174-0.544 0.196-0.111 0.014-0.251-0.008-0.36-0.008-0.326 0-0.66-0.024-0.984-0.002-0.203 0.014-0.43 0.058-0.602 0.169-0.193 0.128-0.36 0.259-0.578 0.36-0.155 0.075-0.297 0.082-0.457 0.143-0.365 0.135-0.749 0.070-1.112 0.186-0.109 0.034-0.213 0.085-0.324 0.106-0.102 0.022-0.155 0.027-0.235 0.060-0.051 0.022-0.111 0.063-0.162 0.092-0.118 0.060-0.242 0.116-0.358 0.184-0.044 0.027-0.085 0.065-0.133 0.092-0.089 0.049-0.176 0.051-0.263 0.089-0.072 0.032-0.109 0.080-0.179 0.111-0.080 0.036-0.193 0.029-0.278 0.070-0.126 0.065-0.261 0.181-0.322 0.295-0.121 0.23-0.367 0.28-0.604 0.37-0.203 0.077-0.384 0.189-0.607 0.23-0.157 0.027-0.312 0.085-0.447 0.118-0.143 0.036-0.276 0.111-0.418 0.14-0.056 0.010-0.123-0.008-0.181-0.005-0.104 0.005-0.152 0.029-0.244 0.065-0.063 0.022-0.234 0.102-0.249-0.043-0.014 0.063-0.046 0.123-0.058 0.191-0.043 0.295-0.191 0.363-0.442 0.587-0.44 0.392-0.892 0.655-1.056 1.245-0.063 0.222-0.072 0.462-0.196 0.667-0.049 0.082-0.118 0.155-0.174 0.232-0.181 0.256-0.271 0.595-0.481 0.827-0.080 0.089-0.080 0.085-0.215 0.080-0.162-0.008-0.14-0.014-0.218 0.109-0.157 0.249-0.321 0.486-0.452 0.752-0.070 0.143-0.135 0.293-0.213 0.433-0.157 0.283-0.268 0.58-0.409 0.87-0.145 0.297-0.176 0.684-0.222 1.008-0.049 0.319-0.167 0.629-0.201 0.945-0.046 0.399-0.172 0.638-0.367 1.010-0.126 0.235-0.237 0.435-0.283 0.696-0.022 0.123-0.034 0.247-0.077 0.367-0.034 0.085-0.092 0.16-0.116 0.247-0.097 0.351 0.017 0.824 0.039 1.18 0.019 0.302 0.063 0.65-0.027 0.945-0.070 0.227-0.15 0.384-0.143 0.614 0.005 0.116 0.022 0.155 0.049 0.242 0.044 0.16-0.008 0.334 0.017 0.498 0.060 0.401 0.29 0.771 0.351 1.182 0.036 0.235-0.014 0.459-0.051 0.691-0.029 0.206-0.123 0.457-0.008 0.621 0.087 0.126 0.254 0.189 0.341 0.329 0.094 0.152 0.164 0.355 0.242 0.52 0.058 0.121 0.106 0.218 0.189 0.324 0.198 0.254 0.37 0.525 0.568 0.776 0.295 0.37 0.413 0.82 0.626 1.228 0.254 0.486 0.993 0.554 1.296 1.003 0.215 0.319 0.336 0.718 0.476 1.073 0.046 0.111 0.080 0.164 0.157 0.247 0.14 0.145 0.351 0.186 0.484 0.326 0.049 0.053 0.085 0.128 0.128 0.186 0.102 0.138 0.239 0.261 0.319 0.411 0.072 0.14 0.131 0.23 0.251 0.348 0.131 0.123 0.266 0.237 0.396 0.358 0.377 0.351 0.836 0.614 1.305 0.827 0.235 0.106 0.401 0.259 0.602 0.416 0.295 0.232 0.563 0.263 0.921 0.367 0.288 0.085 0.587 0.172 0.817 0.367 0.218 0.186 0.592 0.317 0.87 0.396 0.191 0.058 0.341 0.109 0.517 0.206 0.133 0.073 0.235 0.036 0.377 0.065 0.092 0.017 0.172 0.070 0.259 0.099 0.193 0.063 0.382 0.070 0.58 0.094 0.174 0.022 0.329 0.043 0.505 0.041 0.143 0 0.288 0 0.43 0 0.157 0 0.367-0.034 0.515 0.002 0.128 0.034 0.227 0.155 0.338 0.23 0.263 0.172 0.532 0.29 0.834 0.353 0.094 0.019 0.167 0.038 0.266 0.012 0.176-0.044 0.343-0.036 0.532-0.060 0.172-0.022 0.329-0.049 0.5-0.049 0.189 0.005 0.353 0.012 0.532-0.056 0.351-0.133 0.716-0.22 1.078-0.305 0.138-0.032 0.295-0.046 0.421-0.106 0.060-0.029 0.106-0.073 0.174-0.087 0.104-0.022 0.232 0.022 0.341 0.008 0.029-0.005 0.058-0.029 0.075-0.032 0.106-0.029 0.235-0.024 0.353-0.038 0.411-0.051 0.556-0.351 0.909-0.5 0.143-0.060 0.297-0.070 0.447-0.114 0.295-0.087 0.665-0.147 0.923-0.314 0.266-0.172 0.525-0.36 0.783-0.539 0.14-0.099 0.271-0.16 0.418-0.276 0.191-0.15 0.399-0.283 0.602-0.411 0.479-0.297 0.962-0.653 1.39-1.032 0.118-0.106 0.266-0.232 0.353-0.346 0.048-0.063-0.010-0.036 0.087-0.14 0.082-0.089 0.189-0.164 0.278-0.251-0.005-0.022-0.017-0.041-0.034-0.056 0.092-0.068 0.186-0.135 0.283-0.201 0.123-0.082 0.138-0.080 0.193-0.206 0.082-0.186 0.213-0.476 0.367-0.619 0.082-0.077 0.179-0.087 0.273-0.131 0.167-0.080 0.351-0.186 0.481-0.322 0.087-0.092 0.099-0.201 0.15-0.314 0.155-0.336-0.022-0.732 0.118-1.076 0.094 0.014 0.181-0.022 0.268-0.053 0.172-0.060 0.396-0.104 0.541-0.23 0.174-0.15 0.235-0.367 0.365-0.546 0.094-0.126 0.232-0.206 0.322-0.336 0.082-0.121 0.104-0.268 0.186-0.389-0.012 0.019 0.085-0.106 0.085-0.106 0.031-0.087 0.002-0.176 0.034-0.273 0.058-0.189 0.152-0.363 0.203-0.554 0.097-0.365 0.152-0.776 0.14-1.151-0.005-0.181 0.024-0.283 0.089-0.459 0.070-0.196 0.102-0.406 0.169-0.604 0.036-0.106 0.104-0.191 0.138-0.297 0.051-0.167 0.094-0.343 0.135-0.515 0.053-0.22 0.104-0.428 0.135-0.645 0.036-0.247 0.215-0.447 0.29-0.689 0.094-0.305 0.077-0.643 0.080-0.962 0-0.162 0.005-0.172-0.060-0.302z"></path>
</svg>
