<!-- Generated by IcoMoon.io -->
<svg version="1.1" xmlns="http://www.w3.org/2000/svg" width="32" height="32" viewBox="0 0 32 32">
<title>terror_of_the_vale</title>
<path d="M18.686 28.829c-0.143-0.056-0.301-0.094-0.439-0.166-0.072-0.038-0.188-0.158-0.27-0.111-0.022 0.015-0.046 0.054-0.070 0.072-0.065 0.054-0.158 0.104-0.228 0.142-0.197 0.106-0.406 0.169-0.608 0.25-0.135 0.052-0.241 0-0.37-0.061-0.229-0.108-0.434-0.208-0.678-0.257-0.156-0.033-0.311-0.065-0.467-0.1-0.080-0.015-0.171-0.055-0.25-0.046-0.011 0.096-0.068 0.129-0.136 0.166-0.171 0.094-0.371 0.133-0.553 0.188-0.181 0.058-0.36 0.121-0.541 0.176-0.181 0.056-0.358 0.085-0.545 0.088-0.051 0.001-0.204-0.026-0.25 0.011-0.045 0.033-0.033 0.054-0.001 0.098 0.080 0.11 0.233 0.184 0.331 0.254 0.247 0.181 0.481 0.384 0.725 0.572 0.171 0.132 0.343 0.262 0.473 0.451 0.052 0.077 0.095 0.16 0.187 0.176 0.003-0.011 0.004-0.019-0.007 0.257 0.106 0.019 0.132 0.011 0.253-0.015 0.34-0.071 0.688-0.082 1.029-0.133 0.249-0.033 0.491-0.101 0.738-0.142 0.068-0.007 0.136-0.019 0.204-0.030 0.030-0.001 0.058-0.003 0.088-0.004 0.019-0.015 0.011-0.041 0.026-0.054 0.026-0.019 0.051-0.033 0.077-0.051 0.045-0.030 0.075-0.072 0.111-0.114 0.12-0.14 0.262-0.252 0.405-0.357 0.293-0.218 0.607-0.38 0.887-0.624 0.192-0.166 0.41-0.292 0.605-0.449-0.113-0.019-0.224-0.046-0.337-0.068-0.136-0.026-0.262-0.071-0.392-0.122z"></path>
<path d="M12.102 6.288c0.004-0.055 0.026-0.064 0.043-0.113 0.033-0.095 0.048-0.202 0.078-0.299 0.007-0.026 0.049-0.114 0.022-0.14-0.039-0.039-0.054 0.015-0.081 0.030-0.069 0.033-0.15 0.001-0.221 0.026-0.007-0.061 0.038-0.139-0.037-0.149-0.061-0.007-0.071 0.104-0.088 0.163-0.007 0.026-0.015 0.075-0.026 0.123-0.107-0.037-0.215-0.071-0.324-0.049 0.001 0.042 0.055 0.098 0.078 0.129 0.059 0.077 0.091 0.090 0.168 0.122-0.015 0.072-0.119 0.075-0.165 0.078-0.055 0.003-0.085 0.038-0.129 0.048-0.039 0.007-0.081-0.022-0.117-0.003-0.062 0.030-0.111 0.11-0.087 0.172 0.026 0.065 0.093 0.081 0.129 0.139 0.045 0.068 0.081 0.094 0.026 0.152-0.064 0.071-0.133 0.019-0.159 0.13-0.049 0.202 0.206 0.233 0.314 0.194 0.011 0.059-0.019 0.116-0.015 0.175 0.004 0.056 0.015 0.12 0.022 0.175 0.004 0.033 0.015 0.107 0.039 0.126 0.078 0.052 0.090-0.049 0.104-0.098 0.019-0.069 0.136-0.321 0.208-0.331 0.037-0.004 0.075 0.067 0.111 0.085 0.022 0.011 0.045 0.004 0.068 0.019 0.019 0.015 0.030 0.049 0.056 0.061 0.033-0.068 0.026-0.192 0.033-0.271 0.004-0.041 0.019-0.097 0.007-0.137-0.015-0.045-0.069-0.055-0.090-0.090-0.059-0.1 0.033-0.146 0.078-0.207 0.022-0.033 0.022-0.069 0.043-0.104 0.015-0.022 0.052-0.046 0.074-0.062-0.075-0.004-0.178 0.015-0.166-0.094z"></path>
<path d="M11.7 6.083c0-0.004 0-0.011 0.046-0.030-0.015 0.015-0.026 0.026-0.046 0.030z"></path>
<path d="M14.088 3.129c-0.026 0.211 0.052 0.475-0.093 0.646-0.081 0.099-0.175 0.083-0.279 0.108-0.041 0.011-0.142 0.004-0.171 0.042-0.004 0.065 0.054 0.14 0.072 0.197 0.019 0.046 0.026 0.098 0.045 0.143 0.037 0.080 0.149 0.165 0.098 0.272-0.037 0.075-0.244 0.007-0.312-0.004-0.051-0.011-0.075-0.026-0.116-0.055-0.033-0.022-0.038-0.061-0.084-0.045-0.039 0.156 0.175 0.341 0.228 0.468 0.026 0.062 0.059 0.184 0.038 0.253-0.019 0.069-0.074 0.080-0.133 0.084-0.085 0.004-0.166-0.026-0.25-0.033-0.041-0.004-0.227-0.026-0.263 0.007-0.101 0.097 0.13 0.282 0.174 0.346 0.074 0.107 0.162 0.225 0.207 0.351 0.055 0.149-0.049 0.191-0.155 0.262-0.048 0.033-0.12 0.048-0.108 0.135 0.019 0.039 0.043 0.069 0.080 0.088 0.042 0.045 0.077 0.098 0.104 0.156 0.054 0.082 0.114 0.107 0.175 0.173 0.033 0.037 0.051 0.087 0.084 0.123-0.081 0.071-0.306-0.011-0.254 0.207 0.026 0.106 0.1 0.112 0.163 0.165 0.077 0.064 0.139 0.149 0.231-0.217l0.004-0.061c-0.026 0.263-0.054 0.526-0.081 0.788-0.011 0.107 0.007 0.332-0.064 0.41-0.030 0.033-0.075 0.015-0.103 0.052-0.019 0.030-0.022 0.139-0.019 0.175 0.081 0.022 0.078 0.046 0.137 0.118 0.058 0.071 0.116 0.129 0.191 0.149-0.019-0.001-0.037-0.001-0.054 0.007-0.019 0.011-0.033 0.033-0.046 0.054-0.026 0.037-0.059 0.062-0.085 0.094-0.054 0.065-0.119 0.184-0.059 0.272 0.051 0.077 0.142 0.108 0.211 0.146 0.062 0.033 0.091 0.104 0.14 0.165-0.054-0.026-0.104 0.090-0.118 0.135-0.015 0.039-0.007 0.080-0.019 0.117-0.011 0.041-0.037 0.067-0.046 0.11-0.019 0.088 0.039 0.104 0.071 0.172 0.026 0.054 0.033 0.095 0.072 0.148-0.084-0.001-0.13-0.059-0.175-0.135-0.072-0.117-0.156-0.226-0.221-0.35-0.051-0.097-0.1-0.162-0.166-0.246-0.071-0.091-0.1-0.181-0.188-0.251-0.072-0.058-0.12-0.162-0.185-0.234-0.026-0.030-0.046-0.065-0.082-0.094-0.015-0.011-0.045-0.026-0.056-0.041-0.042-0.051-0.081-0.098-0.124-0.146-0.045-0.046-0.046-0.113-0.087-0.162-0.085-0.107-0.221-0.179-0.296-0.296-0.015-0.026-0.030-0.093-0.049-0.111-0.026-0.026-0.081-0.015-0.114-0.030-0.048-0.019-0.126-0.095-0.175-0.091-0.051 0.003-0.094 0.098-0.142 0.12-0.062 0.030-0.142-0.030-0.207-0.022-0.065 0.004-0.084 0.030-0.153 0.007-0.056-0.015-0.108-0.061-0.165-0.081-0.042-0.015-0.088-0.011-0.126-0.033-0.033-0.019-0.039-0.075-0.090-0.074-0.007 0.051 0.030 0.114 0.042 0.162 0.022 0.078 0.030 0.159 0.046 0.237 0.019 0.090 0.015 0.201-0.065 0.266-0.056 0.048-0.217-0.011-0.292-0.022-0.049-0.004-0.071-0.015-0.11-0.042-0.037-0.026-0.065-0.075-0.101-0.093-0.033 0.098 0.003 0.214-0.007 0.321-0.004 0.038 0.001 0.101-0.019 0.133-0.037 0.052-0.074 0.015-0.114 0.033-0.030 0.015-0.037 0.049-0.072 0.056-0.019 0.004-0.043-0.015-0.064-0.011-0.022 0.003-0.022 0.022-0.039 0.026-0.039 0.007-0.091 0.001-0.13-0.015-0.049-0.019-0.080-0.074-0.136-0.033-0.068 0.046-0.026 0.169-0.077 0.234-0.019 0.026-0.048 0.041-0.068 0.062-0.026 0.030-0.045 0.080-0.077 0.091-0.026 0.011-0.094-0.015-0.123-0.019-0.071-0.011-0.142-0.019-0.214-0.030-0.052-0.007-0.127-0.045-0.156 0.011-0.019 0.039-0.001 0.119-0.015 0.163-0.015 0.052-0.037 0.052-0.065 0.088-0.019 0.022-0.026 0.072-0.046 0.094-0.065 0.068-0.162-0.015-0.248-0.001-0.033 0.004-0.069 0.067-0.091 0.004-0.007-0.019 0.048-0.178 0.056-0.197 0.062-0.174 0.218-0.308 0.315-0.452 0.055-0.080 0.14-0.119 0.194-0.198 0.033-0.049 0.078-0.137 0.097-0.194 0.022-0.072 0.015-0.095 0.062-0.152 0.061-0.074 0.12-0.15 0.175-0.23 0.046-0.065 0.123-0.15 0.156-0.223 0.022-0.051 0.030-0.081 0.056-0.126 0.068-0.107 0.168-0.148 0.229-0.267 0.051-0.098 0.107-0.187 0.132-0.299 0.022-0.104 0.064-0.184 0.119-0.27 0.108-0.171 0.211-0.325 0.265-0.533 0.030-0.114 0.030-0.243 0.043-0.36 0.011-0.084-0.007-0.155-0.007-0.236 0.001-0.113 0.046-0.228 0.030-0.341-0.039 0.015-0.007 0.033-0.037 0.071-0.022 0.030-0.043 0.019-0.074 0.030-0.056 0.015-0.108 0.030-0.165 0.003-0.007-0.156-0.055-0.321-0.111-0.461-0.033-0.081-0.069-0.159-0.075-0.25-0.004-0.088 0.022-0.312-0.042-0.364-0.030 0.071 0.001 0.174-0.080 0.216-0.061 0.030-0.072-0.004-0.088-0.069-0.039-0.161 0.011-0.331-0.007-0.493-0.011-0.084-0.004-0.168-0.015-0.247-0.004-0.056-0.033-0.095-0.042-0.15-0.007-0.054 0.007-0.103 0.007-0.155 0-0.061-0.011-0.119-0.007-0.179 0-0.132-0.062-0.431 0.158-0.341 0.051 0.022 0.045 0.042 0.077 0.087 0.026 0.041 0.067 0.077 0.088 0.126 0.019 0.039 0.039 0.143 0.033 0.184-0.004 0.051-0.007 0.051-0.033 0.091 0.080 0.039 0.148 0.091 0.226 0.135 0.058 0.033 0.119 0.019 0.176 0.054 0.084 0.049 0.205 0.126 0.262 0.211-0.019 0.052-0.116 0.058-0.11 0.123 0.004 0.055 0.153 0.126 0.194 0.153 0.119 0.082 0.253 0.113 0.366 0.211 0.067 0.059 0.238 0.098 0.215 0.21-0.026 0.026-0.046 0.058-0.067 0.091-0.001 0.054 0.019 0.094 0.061 0.122 0.051 0.052 0.095 0.054 0.16 0.065 0.080 0.011 0.116-0.026 0.191-0.039 0.065-0.007 0.124 0.019 0.188 0.011 0.022-0.015 0.045-0.022 0.069-0.019 0.030 0.004 0.058 0.011 0.087 0.019 0.045-0.015 0.045-0.058 0.068-0.109 0.037-0.080 0.084-0.165 0.126-0.24 0.033-0.059 0.039-0.077 0.097-0.084 0.051 0.015 0.098 0.004 0.146-0.019 0.051-0.033 0.098-0.072 0.145-0.114 0.055-0.039 0.088-0.065 0.133-0.114 0.033-0.038 0.061-0.080 0.101-0.111 0.030-0.022 0.062-0.042 0.095-0.058 0.026-0.022 0.045-0.054 0.051-0.093 0.041-0.059 0.085-0.085 0.132-0.135 0.065-0.067 0.111-0.137 0.182-0.194 0.056-0.045 0.101-0.065 0.142-0.136 0.033-0.061 0.056-0.108 0.103-0.16 0.071-0.078 0.081-0.165 0.119-0.265 0.033-0.081 0.107-0.301 0.181-0.332 0.132-0.056 0.088 0.358 0.080 0.429zM21.078 7.952c-0.011-0.098 0.004-0.188 0.039-0.27-1.002-0.994-2.306-1.695-3.446-2.574-0.188-0.145-0.279-0.338-0.299-0.53-0.182-0.030-0.367-0.055-0.548-0.026-0.093 0.015-0.181 0.043-0.272 0.064-0.178 0.039-0.354 0.030-0.532 0.058-0.218 0.033-0.426 0.158-0.637 0.23-0.161 0.056-0.286 0.139-0.434 0.228-0.091 0.055-0.172 0.068-0.267 0.097-0.078 0.022-0.147 0.059-0.223 0.087-0.108 0.041-0.217 0.015-0.319 0.075 0.039-0.033 0.033-0.127 0.038-0.181 0.007-0.098 0.039-0.174 0.056-0.267 0.026-0.133 0.061-0.267 0.097-0.396 0.019-0.069 0.019-0.14 0.026-0.213 0.011-0.074 0.042-0.136 0.055-0.21 0.022-0.146 0.087-0.28 0.106-0.429 0.019-0.159 0.061-0.304 0.077-0.467 0.015-0.145 0.030-0.289 0.045-0.434 0.019-0.168 0.069-0.377 0.052-0.543-0.011-0.086-0.048-0.163-0.056-0.249-0.011-0.087-0.007-0.172-0.011-0.259-0.007-0.159-0.068-0.314-0.072-0.47-0.003-0.062-0.003-0.116-0.007-0.172-0.001-0.019 0.011-0.080-0.001-0.094-0.041-0.049-0.129 0.153-0.153 0.192-0.049 0.080-0.078 0.162-0.11 0.253-0.030 0.094-0.082 0.166-0.135 0.244-0.119 0.179-0.181 0.394-0.295 0.578-0.108 0.175-0.142 0.361-0.22 0.554-0.065 0.16-0.211 0.205-0.317 0.325-0.061 0.068-0.101 0.116-0.179 0.15-0.090 0.041-0.127 0.077-0.201 0.152-0.11 0.113-0.221 0.212-0.34 0.314-0.113 0.095-0.239 0.172-0.35 0.272-0.071 0.062-0.13 0.152-0.187 0.23-0.037 0.048-0.078 0.142-0.133 0.15 0.011-0.075-0.113-0.207-0.153-0.265-0.078-0.11-0.224-0.158-0.325-0.231-0.16-0.119-0.334-0.236-0.471-0.387-0.046-0.049-0.103-0.084-0.147-0.133-0.039-0.045-0.061-0.113-0.094-0.165-0.075-0.11-0.162-0.21-0.239-0.317-0.11-0.15-0.231-0.295-0.335-0.449-0.019-0.026-0.033-0.049-0.046-0.078-0.059-0.12-0.12-0.207-0.204-0.306-0.056-0.067-0.148-0.133-0.197-0.201-0.007 0.397-0.090 0.799-0.149 1.186-0.019 0.116-0.055 0.217-0.068 0.335-0.011 0.12-0.015 0.233-0.015 0.353 0.004 0.159 0.015 0.319 0.059 0.47 0.046 0.15 0.122 0.289 0.172 0.438 0.075 0.22 0.201 0.41 0.268 0.633 0.052 0.172 0.069 0.305 0.080 0.483 0.011 0.146 0.087 0.289 0.143 0.415 0.019 0.041 0.042 0.067 0.045 0.114s-0.015 0.094-0.007 0.143c0.007 0.093 0.007 0.048-0.042 0.11-0.033 0.041-0.064 0.072-0.101 0.109-0.106 0.098-0.165 0.234-0.238 0.361-0.071 0.119-0.155 0.216-0.249 0.306-0.078 0.075-0.13 0.126-0.194 0.233-0.084 0.14-0.164 0.253-0.256 0.381-0.075 0.104-0.156 0.211-0.217 0.327-0.039 0.077-0.062 0.149-0.12 0.211-0.071 0.080-0.146 0.12-0.202 0.221-0.046 0.085-0.071 0.179-0.13 0.256-0.058 0.077-0.129 0.15-0.204 0.202-0.093 0.064-0.182 0.119-0.265 0.201-0.085 0.087-0.14 0.201-0.221 0.288-0.030 0.026-0.062 0.055-0.094 0.081-0.026 0.026-0.049 0.058-0.062 0.095-0.039 0.037-0.045 0.037-0.101 0.046 0.019-0.022 0.067 0.091 0.090 0.126 0.043 0.067 0.090 0.137 0.127 0.21 0.033 0.059 0.049 0.153 0.101 0.192 0.042 0.033 0.129 0.022 0.175 0.026 0.082 0.011 0.139 0.015 0.223-0.003 0.218-0.039 0.425-0.132 0.639-0.194 0.236-0.068 0.471-0.13 0.704-0.214 0.202-0.074 0.351-0.211 0.533-0.33 0.208-0.136 0.438-0.205 0.639-0.351 0.171-0.124 0.403-0.24 0.539-0.41 0.129-0.159 0.299-0.374 0.504-0.272 0.077 0.038 0.159 0.153 0.221 0.21 0.074 0.067 0.14 0.13 0.207 0.205 0.080 0.091 0.169 0.173 0.239 0.277 0.084 0.127 0.143 0.277 0.207 0.419 0.13 0.288 0.332 0.522 0.529 0.75 0.093 0.107 0.184 0.233 0.289 0.319 0.075 0.062 0.166 0.087 0.243 0.147 0.095 0.078 0.188 0.204 0.272 0.298 0.081 0.090 0.155 0.184 0.231 0.277 0.071 0.085 0.155 0.142 0.229 0.22 0.051 0.052 0.072 0.149 0.135 0.182 0.074-0.162 0.022-0.441 0.037-0.618 0.011-0.139 0.033-0.278 0.045-0.418 0.015-0.207 0.011-0.416 0.030-0.623 0.030-0.304 0.080-0.595 0.015-0.896-0.056-0.266-0.184-0.5-0.227-0.772-0.019-0.126-0.059-0.244-0.071-0.37-0.004-0.067-0.026-0.123-0.048-0.178 0.042 0.055 0.107 0.091 0.156 0.114 0.084 0.038 0.204 0.045 0.293 0.051 0.132 0.007 0.266 0.011 0.397 0.011 0.146 0.003 0.288-0.056 0.434-0.043 0.139 0.011 0.285 0.051 0.418 0.095 0.114 0.041 0.202 0.091 0.29 0.188s0.175 0.169 0.267 0.259c0.249 0.24 0.431 0.538 0.621 0.837 0.068 0.107 0.13 0.221 0.204 0.322 0.094 0.129 0.188 0.24 0.27 0.383 0.133 0.233 0.233 0.49 0.223 0.777-0.004 0.181-0.011 0.394-0.056 0.566-0.030 0.108-0.096 0.146-0.161 0.216-0.074 0.078-0.13 0.172-0.202 0.252-0.137 0.149-0.283 0.275-0.413 0.433-0.166 0.202-0.341 0.403-0.542 0.561-0.165 0.129-0.341 0.227-0.516 0.332-0.25 0.152-0.474 0.315-0.707 0.5-0.939 0.746-1.857 1.513-2.719 2.38-0.218 0.218-0.419 0.46-0.616 0.702-0.123 0.15-0.228 0.318-0.351 0.467-0.133 0.163-0.289 0.295-0.425 0.451-0.194 0.221-0.376 0.464-0.552 0.705-0.231 0.318-0.48 0.624-0.701 0.954-0.174 0.259-0.322 0.53-0.477 0.803-0.202 0.36-0.412 0.699-0.585 1.082-0.285 0.63-0.514 1.27-0.73 1.938-0.097 0.302-0.129 0.6-0.16 0.918-0.042 0.422-0.096 0.835-0.153 1.253-0.052 0.39-0.087 0.783-0.127 1.176-0.007 0.096-0.019 0.195-0.026 0.295 0.015 0.062 0.022 0.126 0.038 0.185 0.887 1.458 2.595 2.301 4.37 2.923 0.113 0.004 0.227 0.015 0.341 0.022 0.113 0.007 0.254 0.043 0.361-0.019 0.077-0.045 0.051-0.055 0.001-0.103-0.072-0.070-0.149-0.106-0.14-0.231 0.004-0.108 0.026-0.22 0.033-0.328 0.003-0.030 0.004-0.204 0.019-0.243 0.030-0.070 0.111-0.048 0.166-0.051 0.143-0.003 0.241-0.049 0.366-0.135 0.127-0.088 0.234-0.21 0.361-0.298 0.041-0.030 0.095-0.046 0.127-0.088 0.037-0.046 0.041-0.097 0.042-0.149 0.188 0.003 0.379-0.001 0.51-0.158 0.135-0.159 0.191-0.381 0.305-0.556 0 0 0.001-0.001 0.001-0.003-0.416-0.003-0.832-0.007-1.248-0.019-1.491-0.042-4.079 0.194-4.092-1.903-0.007-1.286 0.465-2.364 1.038-3.418-0.165-0.263-0.194-0.646 0.019-0.916 0.368-0.474 0.761-0.931 1.173-1.373 0.058-0.095 0.117-0.192 0.175-0.285 0.116-0.185 0.263-0.285 0.416-0.324 0.159-0.156 0.319-0.314 0.484-0.464 0.5-0.461 1.059-0.887 1.473-1.425-0.13-0.285-0.059-0.658 0.26-0.886 1.766-1.266 3.839-1.98 5.639-3.191 0.022-0.015 0.042-0.019 0.062-0.033 0.695-0.909 1.108-2.055 1.577-3.116-0.243-0.834-0.447-1.675-0.555-2.548z"></path>
<path d="M15.812 27.849c-0.004 0.026-0.011 0.046-0.007 0.067 0.011 0.123 0.176-0.030 0.234-0.042 0.299-0.056 0.576 0.252 0.87 0.225 0.074-0.007 0.126-0.019 0.198-0.004 0.095 0.019 0.113-0.033 0.202-0.068 0.126-0.049 0.285-0.001 0.416-0.011 0.129-0.011 0.252-0.015 0.38-0.001 0.155 0.015 0.291 0 0.442-0.033 0.074-0.015 0.163-0.064 0.239-0.055 0.179 0.022 0.344 0.252 0.477 0.373 0.289 0.267 0.501 0.608 0.753 0.919 0.123 0.151 0.28 0.205 0.442 0.113 0.033-0.019 0.049-0.049 0.081-0.075 0.061-0.049 0.143-0.062 0.215-0.072 0.075-0.007 0.176-0.015 0.22-0.101 0.039-0.080-0.007-0.081 0.078-0.132 0.152-0.090 0.386-0.026 0.548-0.022 0.147 0.004 0.306 0.003 0.451-0.045 0.212-0.071 0.301-0.233 0.434-0.423 0.152-0.216 0.312-0.379 0.523-0.507 0.237-0.143 0.478-0.272 0.707-0.434 0.088-0.064 0.179-0.133 0.27-0.207-2.711 0.325-5.432 0.514-8.17 0.538z"></path>
</svg>
