<!-- Generated by IcoMoon.io -->
<svg version="1.1" xmlns="http://www.w3.org/2000/svg" width="33" height="32" viewBox="0 0 33 32">
<title>the_depths_of_yoth</title>
<path d="M17.724 18.005c0.162-0.597 0.061-1.223 0.095-1.851 0.011-0.198 0.028-0.325 0.090-0.523 0.063-0.203 0.203-0.323 0.265-0.503 0.076-0.214 0.022-0.52 0.022-0.748 0-0.86-0.204-1.633-0.351-2.476-0.128-0.743-0.251-1.413-0.6-2.1-0.15-0.293-0.302-0.583-0.408-0.885 0.004 0.194-0.015 0.398-0.015 0.587l-0.051-0.797c-0.026-0.102-0.050-0.207-0.061-0.315 0.013 0.050 0.032 0.096 0.051 0.143l-0.064-1.032c-0.374 0.074-0.664 0.751-0.844 1.029-0.191 0.294-0.127 0.516-0.184 0.841-0.031 0.169-0.058 0.367-0.092 0.536-0.052 0.269-0.194 0.484-0.259 0.75-0.101 0.407-0.208 0.819-0.337 1.218-0.099 0.31-0.168 0.666-0.347 0.943-0.165 0.252-0.189 0.373-0.188 0.679 0.002 0.338-0.067 0.765-0.005 1.1 0.029 0.168 0.111 0.297 0.136 0.465 0.020 0.14-0.015 0.296-0.006 0.437 0.019 0.386 0.283 0.717 0.353 1.1 0.025 0.134 0.006 0.27 0.050 0.399 0.050 0.156 0.179 0.275 0.216 0.437 0.080 0.347-0.060 0.724 0.038 1.073 0.093 0.332 0.099 0.634 0.098 0.992-0.002 0.331 0.063 0.56 0.156 0.87 0.203 0.683 0.479 1.367 0.465 2.090-0.026-0.24 0.159-0.393 0.252-0.581 0.114-0.224 0.175-0.506 0.252-0.746 0.205-0.643 0.425-1.175 0.777-1.759 0.125-0.208 0.367-0.388 0.447-0.622 0.082-0.242-0.015-0.507 0.052-0.753z"></path>
<path d="M30.827 3.948c-0.433-0.181-0.784-0.481-1.268-0.535-0.608-0.067-1.212-0.082-1.814-0.195-0.382-0.071-0.771-0.065-1.151-0.137-0.286-0.054-0.559-0.153-0.845-0.207-0.255-0.048-0.52-0.116-0.778-0.137-0.297-0.023-0.597 0.011-0.896-0.016-0.673-0.057-1.349-0.005-2.021-0.073-0.326-0.032-0.651-0.015-0.978-0.041-0.348-0.028-0.688-0.048-1.038-0.044-0.625 0.006-1.244-0.058-1.868-0.057-0.635 0.001-1.256 0.015-1.887 0.057-0.549 0.036-1.086 0.055-1.635 0.057-0.284 0-0.574 0.019-0.857-0.011-0.331-0.034-0.628-0.108-0.963-0.105-0.593 0.004-1.189-0.018-1.782 0.005-0.256 0.011-0.503 0.052-0.756 0.083-0.408 0.047-0.818 0.054-1.227 0.105-0.31 0.038-0.625 0.071-0.937 0.087-0.321 0.017-0.646-0.022-0.966 0.013-0.603 0.067-1.067 0.367-1.596 0.611-0.159 0.071-0.334 0.109-0.479 0.204-0.168 0.108-0.261 0.236-0.472 0.258-0.345 0.036-0.793 0.044-1.125-0.022-0.306-0.061-0.574-0.258-0.887-0.262-0.074-0.001-0.152-0.004-0.226 0-0.092 0.004-0.153 0.045-0.239 0.061-0.127 0.023-0.305-0.065-0.395 0.051-0.121 0.156 0.064 0.335 0.15 0.457 0.252 0.364 0.482 0.749 0.714 1.126 0.13 0.213 0.187 0.434 0.286 0.659 0.060 0.136 0.134 0.243 0.163 0.39 0.035 0.179 0.108 0.337 0.159 0.512 0.058 0.195 0.079 0.401 0.131 0.598 0.131 0.49 0.391 0.94 0.589 1.405 0.214 0.504 0.509 0.975 0.736 1.475 0.245 0.538 0.354 1.183 0.479 1.757 0.229 1.046 0.654 2.017 1.234 2.929 0.108 0.17 0.22 0.338 0.329 0.509 0.143 0.222 0.235 0.465 0.367 0.691 0.115 0.2 0.281 0.376 0.412 0.568 0.146 0.214 0.243 0.45 0.379 0.67 0.168 0.27 0.335 0.526 0.472 0.813 0.125 0.264 0.316 0.472 0.484 0.711 0.16 0.229 0.27 0.485 0.418 0.721 0.191 0.3 0.43 0.563 0.605 0.873 0.163 0.293 0.312 0.589 0.529 0.851 0.277 0.334 0.509 0.666 0.716 1.043 0.273 0.498 0.56 0.994 0.866 1.475 0.118 0.185 0.213 0.401 0.356 0.568 0.16 0.186 0.318 0.366 0.459 0.568 0.31 0.447 0.627 0.934 0.858 1.424 0.115 0.245 0.208 0.463 0.364 0.688 0.125 0.182 0.147 0.402 0.267 0.587 0.156 0.245 0.332 0.455 0.497 0.692 0.117 0.171 0.265 0.318 0.38 0.485 0.106 0.156 0.13 0.462 0.302 0.554 0.019-0.13 0.031-0.251-0.050-0.44 0.004-0.168-0.054-0.366-0.117-0.523-0.166-0.427-0.348-0.863-0.559-1.271-0.216-0.417-0.38-0.86-0.577-1.287-0.165-0.357-0.318-0.715-0.463-1.078-0.191-0.474-0.363-0.937-0.637-1.376-0.286-0.456-0.497-0.949-0.775-1.412-0.277-0.461-0.609-0.905-0.819-1.399-0.185-0.434-0.383-0.861-0.589-1.287-0.242-0.5-0.457-1.007-0.753-1.482-0.143-0.23-0.297-0.477-0.398-0.726-0.079-0.198-0.111-0.401-0.23-0.584-0.31-0.479-0.74-0.895-0.953-1.428-0.1-0.255-0.216-0.494-0.355-0.732-0.168-0.286-0.396-0.551-0.495-0.867-0.058-0.182-0.092-0.348-0.168-0.526-0.071-0.171-0.184-0.335-0.236-0.512-0.052-0.17-0.057-0.323-0.141-0.487-0.125-0.245-0.224-0.491-0.337-0.743-0.061-0.136-0.154-0.255-0.197-0.398-0.054-0.189-0.086-0.38-0.163-0.565-0.154-0.361-0.182-0.752-0.38-1.097-0.070-0.122-0.166-0.233-0.232-0.357-0.063-0.118-0.051-0.172-0.077-0.305-0.036-0.184-0.14-0.357-0.185-0.542-0.093-0.391-0.237-0.769-0.335-1.159-0.045-0.182-0.045-0.325-0.146-0.495-0.109-0.19-0.133-0.297-0.176-0.494-0.041-0.184-0.147-0.337-0.178-0.523-0.022-0.125-0.114-0.267-0.106-0.388 0.082-0.036 0.104 0.038 0.173 0.052 0.152 0.035 0.342 0.020 0.501 0.044 0.156 0.022 0.312 0.013 0.471 0.012 0.275-0.001 0.561 0.026 0.835-0.012 0.23-0.032 0.437-0.039 0.673-0.042 0.331-0.003 0.631-0.082 0.956-0.118 0.615-0.070 1.227-0.137 1.843-0.184 0.373-0.028 0.733-0.045 1.106-0.041 0.341 0.002 0.675-0.054 1.016-0.063 0.866-0.023 1.766 0.045 2.623 0.153 0.618 0.079 1.239 0.099 1.858 0.178 0.337 0.042 0.672 0.099 1.011 0.127 0.332 0.025 0.595 0.157 0.909 0.238 0.229 0.057 0.434 0.038 0.664 0.042 0.452 0.010 0.858 0.224 1.299 0.302 0.465 0.082 0.931-0.010 1.387-0.108 0.168-0.036 0.315-0.114 0.484-0.146 0.181-0.036 0.357-0.044 0.542-0.042 0.361 0.002 0.721 0.001 1.083 0 0.294 0 0.602 0.025 0.889-0.052 0.201-0.052 0.382-0.131 0.593-0.156 0.278-0.031 0.555-0.057 0.831-0.074 0.083-0.004 0.101-0.026 0.179-0.045 0.288-0.071 0.679-0.013 0.978-0.013 0.312 0 0.682-0.044 0.991 0.004-0.063 0.179-0.090 0.363-0.16 0.538-0.066 0.166-0.099 0.309-0.127 0.484-0.039 0.245-0.149 0.414-0.238 0.641-0.073 0.187-0.114 0.385-0.191 0.57-0.16 0.38-0.347 0.768-0.528 1.137-0.117 0.239-0.134 0.49-0.224 0.739-0.070 0.194-0.242 0.396-0.364 0.565-0.116 0.16-0.235 0.267-0.302 0.453-0.054 0.15-0.154 0.249-0.226 0.395-0.114 0.23-0.179 0.504-0.258 0.748-0.055 0.173-0.13 0.337-0.194 0.507-0.098 0.252-0.181 0.519-0.315 0.755-0.131 0.227-0.198 0.485-0.351 0.699-0.092 0.128-0.213 0.227-0.288 0.367-0.060 0.109-0.090 0.237-0.146 0.35-0.095 0.191-0.22 0.37-0.332 0.552-0.119 0.192-0.235 0.402-0.332 0.605-0.111 0.232-0.131 0.485-0.252 0.714-0.057 0.106-0.137 0.195-0.2 0.299-0.063 0.102-0.087 0.219-0.136 0.325-0.067 0.149-0.175 0.28-0.249 0.425-0.136 0.261-0.291 0.503-0.446 0.752-0.163 0.265-0.246 0.555-0.389 0.829-0.213 0.402-0.342 0.852-0.512 1.273-0.166 0.415-0.404 0.79-0.635 1.172-0.22 0.364-0.338 0.787-0.51 1.17-0.099 0.223-0.165 0.434-0.243 0.66-0.067 0.189-0.184 0.374-0.265 0.563-0.149 0.338-0.399 0.638-0.576 0.965-0.13 0.24-0.216 0.5-0.332 0.745-0.079 0.168-0.173 0.339-0.227 0.516-0.102 0.334-0.338 0.621-0.495 0.938-0.173 0.351-0.345 0.717-0.485 1.081-0.104 0.271-0.143 0.563-0.293 0.817-0.051 0.086-0.137 0.171-0.13 0.278 0.031-0.076 0.082-0.114 0.122-0.175 0.105-0.162 0.172-0.339 0.288-0.498 0.095-0.128 0.238-0.226 0.319-0.36 0.085-0.138 0.122-0.296 0.214-0.433 0.189-0.284 0.393-0.533 0.613-0.799 0.098-0.118 0.154-0.281 0.312-0.341 0.063-0.025 0.12-0.019 0.179-0.055 0.152-0.095 0.277-0.328 0.388-0.463 0.147-0.179 0.296-0.357 0.45-0.53 0.224-0.251 0.444-0.485 0.654-0.753 0.259-0.328 0.462-0.675 0.702-1.011 0.224-0.31 0.469-0.587 0.65-0.925 0.179-0.335 0.409-0.638 0.654-0.933 0.269-0.323 0.469-0.648 0.692-0.998 0.21-0.327 0.415-0.615 0.535-0.985 0.191-0.59 0.401-1.175 0.583-1.768 0.179-0.584 0.238-1.25 0.551-1.789 0.363-0.625 0.809-1.204 1.113-1.861 0.102-0.223 0.198-0.452 0.265-0.686 0.099-0.341 0.124-0.701 0.251-1.036 0.106-0.283 0.246-0.557 0.36-0.836 0.14-0.345 0.265-0.689 0.472-1.003 0.162-0.245 0.214-0.529 0.328-0.794 0.137-0.321 0.353-0.595 0.469-0.927 0.376-1.081 1.026-2.046 1.492-3.089 0.079-0.175 0.169-0.339 0.238-0.519 0.073-0.188 0.189-0.351 0.264-0.535 0.048-0.118 0.026-0.203 0.038-0.324 0.011-0.103 0.099-0.224 0.073-0.326z"></path>
</svg>
