<!-- Generated by IcoMoon.io -->
<svg version="1.1" xmlns="http://www.w3.org/2000/svg" width="33" height="32" viewBox="0 0 33 32">
<title>the_heart_of_madness</title>
<path d="M12.553 15.083c-0.016-0.185 0.111-0.353 0.196-0.504 0.12-0.203 0.106-0.233-0.009-0.407-0.162-0.245-0.104-0.665-0.069-0.966-0.016 0.039-0.051 0.069-0.065 0.116-0.053 0.166-0.090 0.36-0.136 0.534-0.021 0.076-0.014 0.15-0.032 0.226-0.025 0.104-0.058 0.185-0.060 0.307-0.002 0.139-0.037 0.307 0.018 0.43 0.023 0.055 0.081 0.060 0.099 0.127 0.018 0.072-0.009 0.189-0.012 0.266z"></path>
<path d="M22.597 26.96c-0.407 0.088-0.815 0.095-1.227 0.090-0.243 0.055-0.48 0.129-0.721 0.192-0.337 0.088-0.76 0.199-1.099 0.069-0.323-0.125-0.504-0.427-0.797-0.591-0.314-0.176-0.741-0.092-1.088-0.15-0.155-0.028-0.194-0.245-0.092-0.344 0.351-0.337 0.778-0.541 1.222-0.718-0.083-0.109-0.141-0.233-0.141-0.374 0-0.252 0.178-0.448 0.353-0.603 0.104-0.090 0.229-0.055 0.3 0.023 0.27 0.065 0.446 0.217 0.573 0.416 0.085-0.007 0.173-0.016 0.261-0.035 0.18-0.037 0.314 0.136 0.231 0.303l-0.088 0.178c0.097 0.044 0.196 0.090 0.303 0.099 0.148 0.012 0.261 0.164 0.178 0.305 0.222 0.042 0.439 0.102 0.658 0.159 0.187 0.046 0.18 0.256 0.062 0.353 0.397 0.037 0.79 0.081 1.16 0.252 0.159 0.076 0.118 0.342-0.049 0.377zM16.354 25.644c-0.042 0.118-0.099 0.213-0.18 0.305-0.030 0.035-0.060 0.067-0.090 0.102-0.016 0.018-0.030 0.042-0.049 0.060l0.005-0.007c-0.002 0.005-0.005 0.007-0.007 0.009-0.009 0.012-0.018 0.023-0.025 0.037-0.032 0.046-0.069 0.076-0.122 0.095-0.046 0.014-0.118 0.007-0.159-0.021-0.136-0.092-0.247-0.208-0.346-0.337-0.085-0.113-0.157-0.238-0.203-0.372-0.039-0.111 0.044-0.219 0.143-0.254 0.231-0.079 0.457-0.199 0.707-0.203 0.116 0 0.201 0.095 0.206 0.206 0.002 0.044-0.016 0.081-0.039 0.116 0.023 0.009 0.046 0.021 0.067 0.032 0.074 0.049 0.125 0.146 0.095 0.233zM12.833 25.773c-0.125 0.307-0.284 0.594-0.474 0.864 0.065 0.095 0.139 0.183 0.192 0.282 0.030 0.053 0.032 0.113 0.016 0.166 0.023 0.053 0.023 0.116-0.016 0.171-0.139 0.21-0.314 0.393-0.561 0.469-0.194 0.060-0.407 0.035-0.598-0.023-0.42-0.129-0.785-0.402-1.222-0.48-0.206-0.037-0.187-0.349 0-0.397 0.106-0.028 0.213-0.060 0.316-0.097-0.018-0.118 0.046-0.247 0.194-0.236 0.076 0.005 0.152 0.009 0.231 0.009-0.162-0.319-0.342-0.642-0.042-0.885 0.192-0.155 0.483-0.139 0.714-0.15 0.129-0.007 0.247-0.016 0.37-0.046 0.025-0.007 0.051-0.014 0.076-0.023 0.007-0.018 0.014-0.037 0.016-0.058 0.023-0.132 0.152-0.164 0.259-0.132 0.055-0.023 0.116-0.025 0.176 0.009 0.058 0.035 0.097 0.109 0.099 0.183 0.069 0.055 0.139 0.113 0.201 0.176 0.049 0.046 0.081 0.134 0.053 0.199zM25.099 26.838c-0.469-0.478-1.042-0.878-1.423-1.437-0.016-0.023-0.028-0.049-0.035-0.072-0.254-0.159-0.501-0.326-0.771-0.462-0.256-0.132-0.39-0.206-0.649-0.192-0.088 0.005-0.196 0.014-0.27-0.046-0.085-0.072-0.111-0.236-0.171-0.34-0.183-0.316-0.395-0.619-0.605-0.917-0.012 0.009-0.021 0.016-0.032 0.025-0.021 0.018-0.042 0.039-0.060 0.058-0.081 0.079-0.157 0.164-0.238 0.243-0.194 0.192-0.427 0.356-0.704 0.395-0.157 0.021-0.284-0.037-0.337-0.192-0.005-0.014-0.012-0.030-0.016-0.044-0.002-0.007-0.007-0.016-0.009-0.023-0.007-0.018-0.005-0.012 0.012 0.025 0.002-0.021-0.030-0.067-0.039-0.085-0.028-0.065-0.058-0.129-0.085-0.194-0.032-0.074-0.062-0.148-0.088-0.224-0.088 0.053-0.229 0.018-0.275-0.076-0.039-0.083-0.067-0.171-0.092-0.259-0.083-0.062-0.159-0.143-0.226-0.233-0.025 0.002-0.049 0.009-0.074 0.012-0.002-0.042-0.002-0.083-0.002-0.125-0.139-0.222-0.236-0.478-0.307-0.684-0.046-0.127-0.085-0.254-0.122-0.383-0.055 0.335-0.125 0.665-0.233 0.991-0.044 0.132-0.162 0.213-0.3 0.194-0.111-0.012-0.183-0.085-0.215-0.18-0.12 0.522-0.268 1.039-0.397 1.55-0.023 0.092-0.079 0.15-0.148 0.176-0.021 0.046-0.055 0.088-0.106 0.118-0.39 0.219-0.813 0.342-1.261 0.346-0.437 0.005-0.873-0.090-1.298-0.189-0.155-0.035-0.215-0.194-0.189-0.335 0.088-0.501-0.446-0.806-0.788-1.060-0.051-0.037-0.088-0.088-0.111-0.141-0.162 0.049-0.319 0.088-0.492 0.095 0.005-0.139 0.012-0.252 0.009-0.266-0.014-0.307-0.053-0.614-0.051-0.924 0-0.049 0.016-0.132 0.005-0.178-0.030-0.111-0.148-0.261-0.199-0.372-0.062-0.129-0.127-0.259-0.192-0.388 0.005 0.178 0.002 0.356-0.007 0.531-0.018 0.42-0.062 0.85-0.162 1.261-0.081 0.321-0.201 0.674-0.464 0.894-0.337 0.282-0.827 0.266-1.236 0.208-0.335-0.049-0.679-0.15-0.968-0.33-0.208 0.15-0.425 0.291-0.647 0.418-0.527 0.635-1.079 1.243-1.698 1.806-0.515 0.469-0.977 1.056-1.568 1.437 0.483 0.261 0.949 0.55 1.388 0.878 0.005 0 0.009 0 0.012 0.002 0.365 0.097 0.737 0.007 1.109 0.111 0.083 0.025 0.284 0.051 0.351 0.097 0.102 0.069 0.127 0.293 0.226 0.383 0.085 0.076 0.206 0.127 0.303 0.201 0.286 0.222 0.674 0.293 1.014 0.397 0.487 0.146 0.945 0.316 1.414 0.515 0.203 0.085 0.42 0.199 0.638 0.238 0.155 0.025 0.333 0.012 0.49 0.025 0.284 0.023 0.603-0.028 0.836 0.162 0.199 0.159 0.363 0.275 0.594 0.404 0.557 0.314 1.074 0.323 1.691 0.314 0.517-0.005 0.972-0.127 1.474-0.263 0.092-0.025 0.185-0.053 0.277-0.076 0.025-0.009 0.012-0.055 0.058-0.065 0.055-0.009 0.247 0.095 0.284 0.111 0.224 0.095 0.437 0.134 0.679 0.092 0.289-0.049 0.568-0.039 0.864-0.053 0.349-0.016 0.686-0.24 1.014-0.36 0.312-0.113 0.617-0.173 0.938-0.238 0.256-0.053 0.474-0.206 0.718-0.296 0.517-0.192 1.12-0.072 1.663-0.085 0.245-0.007 0.379-0.194 0.573-0.333 0.169-0.118 0.346-0.213 0.492-0.356 0.194-0.189 0.4-0.328 0.621-0.474 0.129-0.085 0.247-0.148 0.402-0.208 0.136-0.053 0.319-0.090 0.485-0.143-0.485-0.409-0.825-0.961-1.268-1.414z"></path>
<path d="M16.828 16.956c-0.042-0.189-0.018-0.386-0.053-0.577-0.032-0.196-0.067-0.372-0.072-0.571-0.007-0.176 0.023-0.407-0.032-0.573-0.016 0.601-0.132 1.22-0.524 1.677-0.007 0.296 0.030 0.582 0.224 0.825 0.058 0.072 0.122 0.081 0.173 0.148 0.044 0.055 0.049 0.134 0.072 0.199 0.021 0.060 0.032 0.12 0.042 0.178 0.028-0.116 0.062-0.229 0.079-0.312 0.037-0.18 0.141-0.314 0.162-0.494s-0.032-0.328-0.069-0.499z"></path>
<path d="M25.485 19.638c-0.007 0.005-0.016 0.007-0.023 0.009-0.032 0.016-0.065 0.028-0.097 0.039l-0.547-1.31c0.055 0.065 0.118 0.122 0.185 0.185 0.122 0.111 0.279 0.49 0.462 0.441 0.046 0.203 0.032 0.42 0.021 0.635zM31.019 14.476c0.002-0.289-0.002-0.45-0.136-0.702-0.118-0.224-0.27-0.393-0.416-0.603-0.092-0.132-0.206-0.249-0.298-0.377-0.113-0.159-0.113-0.363-0.199-0.536-0.028-0.053-0.058-0.102-0.088-0.152 0.005-0.159 0.023-0.323 0.023-0.45 0.002-0.12 0.030-0.259 0.014-0.377-0.030-0.224-0.185-0.54-0.33-0.723-0.069-0.083-0.102-0.081-0.148-0.157-0.081-0.125-0.192-0.273-0.243-0.416-0.102-0.289-0.065-0.624-0.169-0.912-0.039-0.116-0.132-0.245-0.155-0.365-0.030-0.15-0.012-0.266-0.049-0.434-0.069-0.314-0.213-0.596-0.293-0.903-0.083-0.321-0.085-0.49-0.275-0.799-0.092-0.134-0.185-0.27-0.275-0.404-0.085-0.187-0.21-0.238-0.374-0.152-0.106 0.035-0.206 0.085-0.303 0.139-0.058-0.088-0.118-0.176-0.189-0.256-0.132-0.157-0.208-0.215-0.39-0.273-0.081-0.113-0.173-0.217-0.282-0.298-0.085-0.042-0.169-0.095-0.243-0.155l-0.079-0.085c-0.079-0.032-0.173 0-0.247-0.051-0.194-0.132-0.118-0.346-0.090-0.531 0.025-0.173-0.007-0.351 0.042-0.52-0.176-0.127-0.686 0.249-0.889 0.305-0.037-0.217-0.007-0.386-0.259-0.402-0.136-0.009-0.303-0.053-0.397-0.169-0.125-0.157-0.032-0.439-0.215-0.55-0.104-0.065-0.275-0.072-0.386-0.109-0.104-0.035-0.196-0.090-0.293-0.136-0.208-0.097-0.365-0.039-0.566-0.104-0.171-0.053-0.273-0.21-0.444-0.238-0.007-0.002-0.016-0.002-0.028-0.005-0.021-0.042-0.035-0.083-0.062-0.113-0.076-0.085-0.226-0.164-0.314-0.217-0.261-0.162-0.517-0.328-0.785-0.48-0.335-0.189-0.688-0.3-1.039-0.45-0.243-0.104-0.515-0.291-0.781-0.303-0.092-0.005-0.171 0.018-0.259 0.046-0.33 0.111-0.633 0.256-0.982 0.314-0.527 0.088-1.058 0.146-1.591 0.169-0.303 0.016-0.524 0.058-0.755-0.173-0.159-0.157-0.252-0.328-0.474-0.356-0.266-0.030-0.561 0.009-0.829 0.005-0.18 0-0.351 0.009-0.529 0.048-0.139 0.030-0.247 0.092-0.372 0.15-0.18 0.083-0.377 0.129-0.564 0.199-0.457 0.166-0.963 0.273-1.451 0.261-0.072-0.002-0.169-0.030-0.233 0.002-0.125 0.060-0.187 0.277-0.222 0.393-0.046 0.152-0.037 0.277-0.162 0.383-0.118 0.102-0.303 0.192-0.437 0.268-0.189 0.106-0.404 0.143-0.598 0.233-0.025 0.012-0.051 0.025-0.079 0.039-0.139-0.014-0.277-0.030-0.416-0.053-0.146-0.009-0.284-0.039-0.418-0.090-0.069 0-0.141 0.030-0.203 0.055-0.206 0.079-0.42 0.261-0.601 0.395-0.187 0.139-0.397 0.268-0.557 0.439-0.162 0.176-0.323 0.363-0.441 0.568-0.076 0.132-0.125 0.277-0.206 0.407-0.113 0.178-0.249 0.286-0.427 0.397-0.155 0.095-0.33 0.201-0.474 0.316-0.15 0.122-0.206 0.291-0.296 0.457-0.072 0.134-0.148 0.247-0.24 0.365-0.18 0.226-0.305 0.487-0.487 0.709-0.372 0.457-0.811 0.834-1.185 1.291-0.273 0.333-0.527 0.711-0.76 1.072-0.115 0.18-0.183 0.377-0.291 0.554-0.261 0.427-0.455 0.912-0.612 1.4-0.023 0.025-0.049 0.051-0.069 0.079-0.374 0.474-0.27 1.097-0.27 1.677 0 0.374-0.005 0.751 0 1.125 0.002 0.229-0.067 0.42-0.132 0.64-0.053 0.187-0.046 0.372-0.127 0.545-0.201 0.444-0.132 0.954-0.132 1.432-0.002 0.178-0.023 0.356 0.037 0.524 0.046 0.134 0.106 0.252 0.141 0.393 0.037 0.139 0.067 0.185 0.176 0.3 0.192 0.203 0.249 0.328 0.282 0.596 0.069 0.552-0.005 1.109-0.044 1.658-0.012 0.162-0.039 0.363 0.007 0.524 0.053 0.199 0.254 0.386 0.37 0.536 0.21 0.273 0.4 0.559 0.601 0.838 0.104 0.143 0.284 0.305 0.319 0.48 0.044 0.236 0.002 0.529 0 0.767-0.002 0.284 0.018 0.596 0.129 0.862 0.085 0.201 0.129 0.407 0.263 0.58 0.069 0.092 0.164 0.118 0.256 0.183 0.079 0.055 0.192 0.116 0.254 0.183 0.095 0.099 0.074 0.132 0.012 0.39 0.183-0.028 0.344-0.353 0.501-0.46 0.286-0.192 0.601-0.37 0.922-0.499 0.185-0.074 0.383-0.125 0.564-0.215 0.102-0.053 0.111-0.102 0.178-0.176 0.058-0.069 0.106-0.155 0.166-0.219 0.058-0.067 0.136-0.102 0.213-0.155 0.374-0.254 0.769-0.379 1.146-0.614 0.116-0.072 0.291-0.118 0.353-0.238 0.028-0.053 0.030-0.136 0.055-0.196 0.060-0.136 0.143-0.173 0.275-0.249 0.113-0.065 0.196-0.141 0.277-0.229-0.104-0.046-0.194-0.116-0.261-0.215-0.065-0.030-0.129-0.058-0.192-0.088-0.37-0.18-0.739-0.411-0.954-0.771-0.118-0.199-0.171-0.416-0.189-0.638-0.039-0.014-0.081-0.032-0.113-0.058-0.122-0.102-0.074-0.266-0.072-0.409 0-0.254-0.014-0.506 0.014-0.758 0.016-0.164 0.044-0.307 0.042-0.453-0.164 0.284-0.3 0.584-0.381 0.912-0.021 0.085-0.069 0.136-0.129 0.166 0.014 0.305-0.42 0.409-0.527 0.092-0.215-0.628-0.485-1.236-0.693-1.866-0.014-0.042-0.025-0.085-0.037-0.127-0.037-0.044-0.060-0.099-0.062-0.164-0.002-0.021 0-0.039-0.002-0.060-0.019-0.074-0.035-0.148-0.051-0.219-0.021 0.074-0.042 0.148-0.062 0.222-0.067 0.24-0.485 0.279-0.527 0-0.076-0.52-0.076-1.032-0.048-1.543-0.065-0.025-0.127-0.053-0.183-0.092-0.109-0.072-0.185-0.152-0.263-0.254-0.051-0.067-0.044-0.171-0.014-0.245 0.035-0.079 0.095-0.129 0.178-0.157 0.002 0 0.005 0 0.005-0.002-0.005-0.032-0.009-0.069-0.009-0.104-0.005-0.261 0.164-0.494 0.34-0.67 0.023-0.025 0.051-0.042 0.081-0.053 0.012-0.157 0.025-0.314 0.035-0.471 0.009-0.146 0.132-0.252 0.261-0.268 0.014-0.607 0.039-1.213 0.065-1.818 0.023-0.349 0.564-0.353 0.547 0-0.023 0.349 0.189 0.644 0.36 0.933 0.152 0.256 0.277 0.52 0.381 0.799 0.046 0.127 0.085 0.256 0.122 0.388 0.072-0.182 0.136-0.37 0.192-0.557-0.099-0.229-0.178-0.483-0.206-0.735-0.111-0.099-0.203-0.217-0.219-0.372-0.053-0.51 0.31-1.046 0.39-1.536 0.025-0.141 0-0.247 0.055-0.37 0.102-0.219 0.252-0.185 0.446-0.305 0.118-0.076 0.176-0.203 0.252-0.321 0.085-0.132 0.185-0.215 0.303-0.319 0.162-0.146 0.194-0.3 0.192-0.506-0.002-0.143-0.037-0.333 0.035-0.457 0.005-0.007 0.012-0.012 0.014-0.018 0.106 0.109 0.21 0.217 0.319 0.319 0.164 0.152 0.33 0.367 0.404 0.577 0.169 0.469 0.053 1.044 0.072 1.529 0.007 0.206 0.076 0.346 0.134 0.534 0.014 0.046 0.025 0.095 0.037 0.141 0.049-0.074 0.129-0.122 0.222-0.129-0.005-0.055-0.009-0.113-0.012-0.171-0.030-0.538-0.044-1.243 0.268-1.725-0.109-0.314-0.231-0.617-0.185-0.963 0.049-0.358 0.245-0.677 0.4-1.002 0.136-0.081 0.275-0.157 0.407-0.245 0.166-0.111 0.335-0.213 0.504-0.314 0.030 0.065 0.053 0.129 0.055 0.196 0.005 0.085 0 0.176-0.002 0.261-0.009 0.081-0.005 0.162 0.012 0.243 0.037 0.032 0.079 0.037 0.122 0.018 0.097 0.067 0.166 0.18 0.273 0.081 0.116-0.106 0.178-0.358 0.219-0.506 0.021-0.072 0.018-0.171 0.088-0.217 0.076-0.048 0.146 0.019 0.219-0.055 0.051-0.048 0.039-0.076 0.049-0.146 0.005-0.037 0.005-0.074 0.007-0.113 0.002 0 0.002 0.002 0.002 0.002 0.139 0.247 0.143 0.55 0.169 0.843 0.035 0.4 0.099 0.834 0.106 1.231 0.083-0.065 0.24-0.090 0.307-0.155 0.060-0.009 0.081-0.049 0.065-0.12 0.072-0.388 0.148-0.774 0.229-1.16 0.062-0.226 0.095-0.457 0.095-0.691-0.002-0.115 0.012-0.229 0.042-0.34 0.053-0.169 0.169-0.31 0.208-0.483 0.044-0.203-0.028-0.467-0.134-0.64-0.060-0.099-0.132-0.152-0.18-0.213 0.277-0.109 0.575-0.185 0.864-0.243 0.224-0.044 0.494-0.095 0.665-0.261 0.081-0.079 0.092-0.183 0.173-0.254 0.062-0.055 0.15-0.067 0.21-0.122 0.046-0.039 0.069-0.099 0.118-0.139 0.148-0.125 0.36-0.189 0.54-0.245 0.155-0.046 0.323-0.222 0.48-0.222 0.044 0.217-0.104 0.462-0.169 0.654-0.067 0.192-0.164 0.494-0.053 0.693 0.122 0.113 0.243 0.226 0.363 0.34 0.189 0.178 0.379 0.353 0.571 0.529 0.125 0.139 0.099 0.217 0.116 0.402 0.062 0.705 0.030 1.425 0.025 2.134 0 0.416 0.072 0.82 0.069 1.236 0 0.065-0.104 0.857 0.113 0.788 0.106-0.457 0.328-0.889 0.395-1.358 0.039-0.296 0.079-0.591 0.076-0.887 0-0.377-0.002-0.737 0.083-1.104 0.037-0.15 0.023-0.291 0.046-0.439 0.021-0.129 0.037-0.12 0.127-0.222 0.291-0.33-0.303-0.441-0.446-0.656-0.092-0.136-0.088-0.326-0.028-0.464 0.058-0.132 0.164-0.245 0.222-0.379 0.053-0.125 0.055-0.249 0.104-0.372 0.053-0.132 0.139-0.233 0.219-0.33 0.060-0.074 0.113-0.132 0.12-0.233-0.037-0.007-0.074-0.014-0.111-0.021-0.023-0.058-0.025-0.118-0.005-0.176 0.095-0.028 0.229-0.016 0.344 0.014 0.009 0.012 0.021 0.025 0.025 0.037 0.085 0.134 0.187 0.27 0.24 0.416 0.049 0.129 0.062 0.312 0.044 0.448-0.021 0.162-0.152 0.268-0.196 0.416-0.042 0.134 0.005 0.183 0.039 0.298 0.051 0.169 0.083 0.337 0.148 0.499 0.044 0.109 0.074 0.21 0.104 0.314 0.021-0.215 0.113-0.462 0.157-0.577 0.081-0.206 0.162-0.4 0.259-0.598 0.132-0.266 0.312-0.478 0.379-0.774 0.028-0.12 0.039-0.256 0.058-0.388 0.055 0 0.109 0.005 0.155 0.014 0.136 0.025 0.266 0.136 0.365 0.219 0.132 0.113 0.245 0.252 0.372 0.372 0.035 0.032 0.074 0.058 0.113 0.085-0.007 0.044-0.009 0.085-0.012 0.136-0.002 0.196 0.009 0.39 0.007 0.587 0 0.229-0.018 0.446 0.058 0.663 0.058 0.166 0.065 0.321 0.088 0.499s0.032 0.377 0.081 0.545c0.049 0.185 0.171 0.344 0.247 0.52 0.199 0.467 0.303 0.998 0.229 1.506-0.025 0.18-0.058 0.344-0.051 0.527 0.007 0.206 0.127 0.351 0.185 0.55 0.051 0.178 0.058 0.363 0.092 0.543 0.037 0.192 0.051 0.208-0.014 0.374-0.192 0.501-0.146 1.074-0.134 1.608 0.005-0.030 0.014-0.060 0.023-0.092 0.072-0.268 0.261-0.464 0.3-0.751 0.042-0.307 0.039-0.619 0.085-0.929 0.097-0.67-0.023-1.314-0.016-1.989 0.002-0.335 0.051-0.679-0.081-0.979-0.065-0.143-0.152-0.681 0.067-0.73 0.058 0.254 0.148 0.529 0.143 0.79-0.005 0.136-0.012 0.261 0.079 0.365 0.030 0.035 0.088 0.049 0.12 0.088 0.083 0.099 0.060 0.24 0.062 0.358 0.009 0.337 0.095 0.654 0.125 0.989 0.016 0.194 0.046 0.219 0.139 0.372 0.060 0.099 0.15 0.254 0.183 0.363 0.005 0.014 0.005 0.028 0.007 0.039 0.025-0.744 0.388-1.478 0.397-2.222 0.005-0.217-0.009-0.416 0.030-0.628 0.025-0.136 0.049-0.282 0.067-0.43 0.243 0.312 0.42 0.668 0.605 1.014 0.106 0.199 0.247 0.372 0.342 0.584 0.051 0.116 0.069 0.263 0.166 0.353 0.118 0.111 0.358 0.18 0.487 0.245 0.018 0.009 0.037 0.021 0.055 0.032-0.007 0.226-0.021 0.453-0.037 0.679 0.113 0 0.222 0.055 0.24 0.192 0.002 0.025 0.005 0.051 0.007 0.074 0 0 0.002 0 0.002 0 0 0.005 0 0.012 0 0.016 0.046 0.374 0.060 0.751 0.065 1.127 0.021 0.109 0.039 0.215 0.055 0.321 0.002-0.007 0.002-0.018 0.007-0.023 0.067-0.109 0.072-0.032 0.148-0.081 0.016-0.012 0.035-0.023 0.051-0.035 0.014-0.016 0.025-0.032 0.039-0.049 0.037-0.044 0.074-0.088 0.109-0.134 0.005-0.005 0.018-0.025 0.025-0.032 0.016-0.023 0.035-0.046 0.051-0.069 0.032-0.046 0.062-0.092 0.090-0.141 0.014-0.021 0.025-0.042 0.035-0.062 0.005-0.007 0.021-0.044 0.028-0.058 0.016-0.046 0.032-0.092 0.044-0.141 0-0.009 0.005-0.030 0.007-0.042 0.002-0.025 0.002-0.051 0.002-0.076 0.007-0.353 0.541-0.351 0.547 0 0.002 0.083 0.016 0.164 0.030 0.245 0.025 0.021 0.051 0.044 0.065 0.074 0.469 0.922 1.15 1.742 1.508 2.723 0.374 1.035-0.312 2.109-0.568 3.091-0.037 0.141-0.157 0.201-0.275 0.194 0.037 0.259 0.074 0.517 0.113 0.776 0.060 0.18 0.060 0.358-0.002 0.536-0.072 0.058-0.143 0.118-0.215 0.176-0.028-0.072-0.055-0.141-0.095-0.208-0.067-0.122-0.159-0.233-0.238-0.351-0.136-0.199-0.238-0.404-0.416-0.575-0.217-0.208-0.383-0.478-0.476-0.767-0.055-0.176-0.118-0.344-0.178-0.515-0.104 0.030-0.213 0.051-0.321 0.065-0.053 0.349-0.162 0.693-0.039 1.032 0.044 0.118 0.095 0.215 0.062 0.344 0 0.002-0.002 0.005-0.002 0.007l-0.099-0.236c0.014 0.076 0.032 0.152 0.058 0.233 0.005 0.021 0.014 0.035 0.021 0.053-0.042 0.116-0.122 0.226-0.194 0.335 0.067 0.067 0.092 0.169 0.079 0.27-0.069 0.52-0.025 1.046-0.076 1.568-0.039 0.413-0.129 0.859-0.379 1.203-0.21 0.291-0.504 0.492-0.834 0.628-0.099 0.042-0.203 0.076-0.31 0.104-0.072 0.088-0.148 0.173-0.226 0.259-0.102 0.109-0.185 0.213-0.226 0.335 0.538 0.254 1.090 0.487 1.393 1.026 0.159 0.044 0.316 0.092 0.469 0.162 0.554 0.247 0.908 0.737 1.361 1.118 0.626 0.524 1.386 0.873 1.977 1.418 0.060-0.222 0.129-0.487 0.27-0.598 0.074-0.060 0.085-0.030 0.162-0.058 0.102-0.037 0.155-0.090 0.231-0.166 0.192-0.194 0.259-0.349 0.296-0.621 0.046-0.337 0.109-0.716 0.254-1.026 0.099-0.215 0.277-0.4 0.416-0.589 0.273-0.374 0.365-0.76 0.37-1.21 0.002-0.48 0.37-0.912 0.564-1.337 0.194-0.423 0.155-0.818 0.152-1.277-0.002-0.319 0.058-0.598 0.067-0.903 0.014-0.499 0.136-0.97 0.129-1.476-0.005-0.247-0.134-0.439-0.134-0.698-0.005-0.753 0.52-1.384 0.529-2.139z"></path>
<path d="M18.896 10.14c-0.055 0.27-0.099 0.543-0.118 0.822 0.060 0.069 0.176 0.030 0.247-0.035 0.062-0.055 0.118-0.152 0.132-0.229 0.009-0.053-0.016-0.111-0.007-0.164 0.012-0.067 0.053-0.116 0.062-0.182-0.113-0.069-0.215-0.141-0.316-0.213z"></path>
<path d="M22.083 10.835c-0.002 0.088-0.005 0.178 0.005 0.266-0.002-0.088 0.009-0.18-0.005-0.266z"></path>
<path d="M20.848 13.055c0-0.037-0.002-0.076-0.002-0.113-0.007 0.037-0.009 0.074 0.002 0.113z"></path>
<path d="M12.574 15.215c-0.007 0.018-0.009 0.037-0.005 0.060 0.002-0.018 0.002-0.039 0.005-0.060z"></path>
<path d="M14.2 4.342c0.005 0.090-0.192 0.263-0.245 0.337-0.116 0.159-0.189 0.337-0.305 0.492-0.104 0.143-0.266 0.254-0.307 0.432-0.016 0.072-0.023 0.164-0.042 0.24-0.049 0.203-0.014 0.444-0.014 0.654 0 0.603 0.037 1.192-0.125 1.776-0.069 0.256-0.185 0.497-0.296 0.737-0.079 0.171-0.118 0.346-0.18 0.513-0.037 0.097-0.118 0.136-0.152 0.247-0.051 0.164-0.037 0.367-0.062 0.536-0.039 0.256-0.081 0.529-0.097 0.79-0.018 0.291-0.136 0.46-0.196 0.732-0.085-0.469-0.136-0.949-0.132-1.43 0.002-0.104 0.018-0.224 0.005-0.326-0.009-0.058-0.044-0.097-0.053-0.136-0.046-0.201 0.035-0.427-0.028-0.624-0.053-0.166-0.136-0.333-0.182-0.504-0.044-0.159-0.079-0.307-0.139-0.455-0.046-0.113-0.016-0.478-0.148-0.457-0.065 0.009-0.104 0.529-0.102 0.515-0.049 0.277-0.125 0.51-0.217 0.771-0.051 0.139-0.113 0.24-0.178 0.37-0.058 0.111-0.053 0.363-0.194 0.395-0.092-0.053-0.106-0.139-0.159-0.224-0.159-0.261-0.492-0.46-0.612-0.741-0.083-0.194-0.185-0.381-0.273-0.577-0.060-0.129-0.125-0.229-0.206-0.337-0.051-0.069-0.208-0.254-0.196-0.346 0.005-0.037 0.111-0.129 0.122-0.143 0.125-0.15 0.201-0.342 0.316-0.499 0.173-0.24 0.335-0.524 0.54-0.737 0.268-0.275 0.649-0.462 0.966-0.686 0.27-0.192 0.504-0.43 0.806-0.552 0.199-0.081 0.365-0.203 0.571-0.275 0.224-0.081 0.321-0.122 0.497-0.282 0.069-0.062 0.157-0.12 0.222-0.189 0.053-0.055 0.065-0.129 0.795-0.016z"></path>
<path d="M14.721 4.017c0 0.139 0.025 0.136 0.090 0.24 0.032 0.053 0.035 0.129 0.079 0.173 0.051 0.053 0.095 0.032 0.159 0.058 0.18 0.067 0.328 0.349 0.374 0.522 0.053 0.199-0.042 0.333 0.146 0.474 0.148 0.113 0.256 0.254 0.374 0.4 0.159-0.102 0.189-0.39 0.321-0.534 0.102-0.109 0.24-0.222 0.377-0.275 0.099-0.039 0.208-0.069 0.31-0.113 0.127-0.053 0.273-0.069 0.395-0.127 0.286-0.134 0.577-0.284 0.862-0.43 0.067-0.035 0.24-0.088 0.289-0.143 0.023-0.025 0.028-0.109 0.044-0.143 0.129-0.256 0.187-0.34-0.155-0.446-0.187-0.060-0.37-0.079-0.561-0.113-0.3-0.055-0.598-0.196-0.896-0.28-0.372-0.106-0.781-0.115-1.148-0.24-0.162-0.058-0.296-0.118-0.471-0.132z"></path>
<path d="M15.093 12.907c0.016-0.005 0.035-0.009 0.051-0.014 0.053-0.444 0.074-0.901 0.118-1.347 0.025-0.252-0.055-0.464-0.215-0.658-0.122-0.152-0.222-0.273-0.259-0.462-0.051-0.266-0.079-0.536-0.12-0.802 0.016 0.106 0.039 0.21 0.055 0.316 0.051 0.365-0.051 0.716-0.035 1.079 0.007 0.162 0.104 0.402 0.044 0.559-0.042 0.111-0.194 0.206-0.273 0.284-0.102 0.097-0.192 0.289-0.187 0.441 0.005 0.116 0.097 0.254 0.139 0.36 0.037 0.090 0.099 0.203 0.199 0.247 0.136 0.062 0.293 0.127 0.372 0.014 0.113-0.159 0.046-0.213 0.111-0.018z"></path>
<path d="M19.088 4.017c0.005 0.46 0.074 0.919 0.067 1.377-0.002 0.171-0.018 0.316 0.055 0.476 0.081 0.178 0.247 0.323 0.273 0.52 0.025 0.187 0.025 0.367 0.062 0.557 0.039 0.215 0.106 0.448 0.134 0.67 0.023 0.187 0.062 0.337 0.129 0.517 0.051 0.139 0.062 0.27 0.139 0.397 0.34 0.568 0.122 1.27 0.183 1.901 0.030 0.319 0.312 0.48 0.413 0.767 0.062 0.176 0.067 0.397 0.109 0.582 0.049 0.21 0.025 0.444 0.081 0.644 0.039 0.143 0.252 0.444 0.166 0.582-0.060-0.014-0.083-0.187-0.102-0.256-0.030-0.118-0.025-0.27-0.002-0.39 0.081-0.411 0.307-0.785 0.314-1.215 0.005-0.268-0.102-0.598-0.178-0.857-0.116-0.386-0.157-0.795-0.215-1.194-0.074-0.501-0.157-0.979-0.132-1.499 0.032-0.714 0.24-1.418 0.266-2.134 0.009-0.266 0.009-0.538-0.007-0.804-0.012-0.166-0.016-0.587-0.256-0.64z"></path>
<path d="M24.561 27.452c-0.189-0.213-0.284-0.367-0.547-0.52-0.397-0.226-0.79-0.448-1.164-0.711-0.194-0.139-0.432-0.189-0.644-0.289-0.102-0.060-0.199-0.122-0.293-0.194-0.152-0.088-0.305-0.171-0.462-0.252-0.3-0.203-0.561-0.409-0.91-0.55-0.199-0.079-0.411-0.169-0.559-0.328-0.21-0.233-0.344-0.628-0.64-0.76-0.132-0.074-0.268-0.079-0.404-0.009-0.286 0.152-0.587 0.273-0.901 0.358-0.377 0.113-0.735 0.268-1.074 0.464-0.159 0.099-0.33 0.139-0.51 0.12-0.127 0.002-0.254 0.002-0.379 0.002-0.085 0.009-0.169 0.018-0.256 0.018-0.437 0.005-0.873-0.090-1.298-0.187-0.083-0.021-0.136-0.076-0.166-0.148-0.062-0.042-0.122-0.090-0.187-0.152-0.088-0.085-0.146-0.109-0.254-0.134-0.146-0.012-0.289 0.005-0.43 0.051-0.24 0.062-0.48 0.113-0.226 0.48-0.404-0.085-0.7-0.434-1.12-0.464-0.517-0.037-1.030 0.206-1.538 0.199-0.319-0.002-0.42 0.189-0.559 0.462-0.088 0.178-0.219 0.298-0.321 0.464-0.118 0.189-0.238 0.372-0.36 0.559-0.085 0.136-0.215 0.238-0.293 0.377-0.118 0.21-0.152 0.434-0.132 0.672 0.014 0.166 0.106 0.203 0.226 0.307 0.238 0.199 0.46 0.377 0.76 0.483 0.658 0.238 1.307 0.24 1.991 0.268 2.594 0.104 5.195 0.053 7.793 0.060 0.492 0 0.986 0.016 1.478-0.009 0.478-0.025 0.929-0.15 1.4-0.224 0.386-0.058 0.806-0.12 1.194-0.146 0.31-0.021 0.739 0.062 1.021-0.060-0.074-0.021-0.185-0.152-0.233-0.208z"></path>
<path d="M10.88 4.014c0.018 0.005 0.035 0.007 0.053 0.009 0.007 0.081 0.081 0.146 0.141 0.203 0.136 0.136 0.132 0.152 0.132 0.335 0 0.122-0.030 0.282 0.012 0.402 0.016 0.051 0.067 0.127 0.104 0.169 0.039 0.046 0.088 0.060 0.127 0.106 0.178 0.206 0.28 0.455 0.453 0.665 0.148 0.178 0.208 0.229 0.215 0.43 0.007 0.199 0.076 0.4 0.219 0.564 0.157 0.176 0.372 0.33 0.439 0.54 0.044 0.139-0.074 0.326 0.009 0.457 0.028 0.042 0.053 0.051 0.090 0.076 0.014 0 0.028 0.002 0.042 0.002 0.065-0.005 0.104 0.032 0.12 0.111 0.125 0.139 0.34 0.305 0.42 0.46 0.021 0.044 0.023 0.090 0.046 0.134 0.046 0.085 0.099 0.116 0.118 0.21 0.021 0.118 0.030 0.236 0.058 0.356 0.018 0.079-0.028 0.157 0.069 0.215 0.245-0.118 0.245-0.573 0.328-0.781 0.053-0.134 0.141-0.247 0.192-0.379 0.076-0.199 0.146-0.397 0.201-0.601 0.069-0.247 0.127-0.48 0.129-0.735 0-0.046 0.018-0.122 0.002-0.166-0.032-0.085-0.143-0.187-0.199-0.266-0.176-0.245-0.039-0.677 0.065-0.922 0.051-0.12 0.055-0.252 0.12-0.365 0.141-0.24 0.474-0.409 0.628-0.647 0.21-0.326 0.305-0.767 0.222-1.127-0.088 0.014-0.148-0.009-0.233-0.025-0.351-0.065-0.691-0.183-1.049-0.219-0.52-0.053-1.056-0.016-1.578-0.016z"></path>
</svg>
