<!-- Generated by IcoMoon.io -->
<svg version="1.1" xmlns="http://www.w3.org/2000/svg" width="20" height="32" viewBox="0 0 20 32">
<title>the_essex_county_express</title>
<path d="M14.251 13.397c-0.073 0.615-0.407 1.052-0.781 1.489-0.541 0.651-1.063 0.839-1.86 1.172-0.749 0.312-1.609 0.437-2.443 0.328-0.547-0.073-1.875-0.219-2.052-0.792-0.697 0.475-1.468-0.984-1.557-1.421-0.14-0.636-0.635-1.136-0.567-1.776 0.057-0.511 0.077-1.1 0.077-1.652 0-0.353 0.079-0.771 0.297-1.061 0.213-0.267 0.464-0.287 0.755-0.469 0.136-0.079 0.152-0.224 0.271-0.303 0.209-0.146 0.568-0.291 0.787-0.421 0.303-0.177 0.532-0.292 0.917-0.26-0.453-0.177 0.765-0.303 1.104-0.36 0.735-0.14 1.432-0.057 2.093 0.131 0.589 0.161 0.828 0.328 1.245 0.74 0.437 0.452 0.905 0.629 1.156 1.26 0.208 0.547 0.604 1.005 0.604 1.62 0.005 0.563 0.032 1.213-0.047 1.776zM8.876 3.99c0.135-0.303 0.677-0.416 0.891-0.177-0.032-0.030 0-0.041 0.036-0.046h-0.021c0.224-0.104 0.579 0.057 0.761 0.183 0.255 0.172 0.239 0.505 0.484 0.62-0.115 0.328-0.193 0.509-0.151 0.864-0.417 0.183-0.48 0.516-1.1 0.464-0.301-0.026-1.109-0.004-1.093-0.407-0.692-0.099-0.301-1.38 0.193-1.5zM8.339 2.184c0.005 0.004 0.011 0.008 0.016 0.019l-0.016 0.015v-0.038zM15.084 12.476c-0.12-0.719 0.369-1.187 0.011-1.875-0.24-0.469-0.589-0.812-0.849-1.245-0.355-0.588-0.568-0.916-1.161-1.301-0.755-0.48-2.041-1.167-1.948-2.188 0.063 0.004 0.161-0.026 0.224-0.015 0.12-0.405 0.219-1.864-0.229-1.911-0.068-0.475 0.375-1.552-0.052-1.948-0.303 0.104-0.869-0.015-1.224 0-0.563 0.026-1.104-0.047-1.645 0 0.052 0.052 0.067 0.093 0.104 0.146-0.016 0-0.016-0.004-0.027-0.011-0.187 0.333 0.005 0.636 0 0.985 0 0.255-0.088 0.593-0.135 0.864-0.423-0.437-0.396 0.48-0.391 0.704 0.015 0.4-0.057 0.812 0.052 1.213 0.077-0.011 0.197 0.030 0.276 0.015-0.005 0.313 0 0.355-0.089 0.62-0.088 0.229-0.224 0.391-0.255 0.625-0.355 0.156-0.552 0.407-0.859 0.599-0.36 0.235-0.724 0.38-1.079 0.62-0.645 0.443-1.183 0.948-1.588 1.713-0.381 0.724-0.177 1.86-0.084 2.656 0.131 1.043 0.511 1.808 1.016 2.715 0.301 0.531 0.62 0.823 1.187 1.151 0.245 0.14 0.543 0.301 0.824 0.369 0.364 0.095 1.135-0.151 1.083 0.371 0.751 0.17 1.161 0.443 2.005 0.343 0.74-0.099 1.333-0.26 1.995-0.572 0.683-0.319 1.079-0.761 1.645-1.141 0.641-0.427 0.975-0.735 1.157-1.468 0.088-0.339 0.233-0.683 0.281-1.016 0.067-0.448-0.177-0.631-0.245-1.021z"></path>
<path d="M1.439 19.782c0.036 0.104-0.188 0.391-0.188 0.563-0.005 0.187 0.115 0.484 0.099 0.708-0.036 0.521-0.104 0.995 0.052 1.489 0.891 0.079 1.839-0.151 2.751-0.12 0.901 0.030 1.781-0.187 2.677-0.172 0.557 0.011 1.113 0.125 1.681 0.131 0.625 0 1.213-0.156 1.803-0.172 0.432-0.015 0.853 0.151 1.281 0.172 1.151 0.052 2.416-0.385 3.525-0.167 0.511 0.093 1.032 0.292 1.584 0.249 0.281-0.026 0.525-0.171 0.796-0.219 0.439-0.077 0.896 0.089 1.287 0.167-0.099-0.156-0.052-0.307-0.083-0.5-0.052-0.312-0.161-0.599-0.177-0.875-0.031-0.615 0.213-1.135 0.213-1.719-0.864 0.125-1.765 0.224-2.661 0.328-0.803 0.084-1.636 0.131-2.443 0.057-0.64-0.052-1.255 0.089-1.869 0.063-0.527-0.026-1.084-0.197-1.641-0.161-0.697 0.041-1.405 0.004-2.109 0.004-1.353 0-2.807 0.135-4.135 0.004-0.813-0.084-1.844-0.281-2.625-0.004 0.104 0.068 0.187 0.038 0.183 0.172z"></path>
<path d="M1.615 28.725c-0.061-0.021-0.119-0.021-0.213 0.047-0.172 0.563 0.928 0.656 1.292 0.817 0.729 0.328 1.516 0.469 2.276 0.761 0.896 0.343 1.803 0.629 2.735 0.885 0.364 0.104 0.724 0.181 1.057 0.337 0.239 0.111 0.927 0.297 1 0.423 0.391-0.011 0.479 0.057 0.817-0.115 0.344-0.177 0.552-0.308 0.937-0.417 1.12-0.328 2.183-0.76 3.317-1.077 1.319-0.369 2.605-0.937 3.813-1.489-0.131-0.344-0.751-0.167-1.027-0.037-0.609 0.287-1.161 0.532-1.807 0.756-1.385 0.484-2.855 1.068-4.26 1.443-0.527 0.135-1.245 0.301-1.797 0.307-0.532 0-0.948-0.353-1.417-0.557-0.651-0.281-1.271-0.421-1.973-0.557-0.365-0.063-0.677-0.109-0.995-0.26-0.204-0.099-0.36-0.24-0.573-0.317-0.959-0.355-2.109-0.787-3.088-1 0.067-0.011 0.109-0.104-0.095 0.052z"></path>
<path d="M11.699 13.949c-0.089-0.172-0.251-0.281-0.349-0.459l0.193-0.281c-0.079 0.057-0.188 0.099-0.271 0.088 0-0.052 0.025-0.171 0.036-0.223 0.385-0.057 1.036-0.152 1.203 0.285 0.219 0.579-0.421 0.631-0.812 0.589zM10.324 13.141c-0.437 0.188-1.548 0.095-1.912-0.233-0.167-0.147-0.224-0.428-0.235-0.631-0.041-0.464 0.271-0.568 0.485-0.88 0-0.407 0.733-0.537 1.265-0.412 0.921 0.229 1.427 1.703 0.396 2.156zM7.412 14.512c-0.391-0.079-0.599-0.532-0.068-0.604l0.095-0.095c0.239-0.12 0.473-0.167 0.728-0.088 0.053 0.183 0.063 0.161 0.152 0.287-0.027 0.411-0.505 0.588-0.907 0.5zM6.704 10.605c0.099-0.146 0.244-0.219 0.416-0.229-0.005 0-0.015 0-0.020-0.004h0.047c-0.011 0-0.016 0.004-0.027 0.004 0.229 0.038 0.475 0.057 0.709 0.141 0.047 0.156 0.067 0.323 0.047 0.5-0.292 0.061-0.417 0.343-0.74 0.249-0.355-0.104-0.203-0.427-0.432-0.661zM11.548 10.418c0.151-0.072 0.249-0.12 0.421-0.052 0.016-0.038 0.031-0.057 0.068-0.072 0.776 0.338-0.161 1.427-0.5 0.785-0.084-0.004-0.151-0.030-0.229-0.061-0.041-0.235-0.027-0.521 0.24-0.6zM13.453 11.439c-0.005-0.547-0.599-1.208-0.979-1.615-0.303-0.323-0.699-0.489-1.073-0.693-0.328-0.181-0.656-0.515-0.989-0.661-0.448-0.197-1.016-0.187-1.484-0.077-0.365 0.093-1.089 0.115-1.251 0.437-0.296 0.151-0.568 0.307-0.531 0.609-0.287-0.063-0.704 0.317-0.88 0.521-0.308 0.364-0.057 0.583-0.152 0.968-0.061 0.251-0.38 0.453-0.443 0.699-0.052 0.228 0.032 0.635 0.057 0.88 0.037 0.401 0.209 0.588 0.391 0.937 0.365 0.672 0.48 1.344 1.115 1.76 0.573 0.385 1.396 0.552 2.109 0.656 1.068 0.161 1.521-0.067 2.376-0.583 0.713-0.432 1.405-0.708 1.583-1.584 0.063-0.276 0-0.624 0-0.905 0.005-0.448 0.156-0.917 0.151-1.349z"></path>
<path d="M7.193 0.345c0.265-0.011 0.661 1.025 0.864 1.38 0.464-0.276 1.401-0.068 1.953-0.041 0.323 0.015 0.923 0.171 1.193-0.011 0.172-0.115 0.38-0.609 0.516-0.803 0.181-0.255 0.405-0.557 0.536-0.817-0.823 0.011-1.651-0.004-2.469-0.038-0.557-0.030-1.115-0.004-1.677-0.004-0.375 0-0.916 0.151-1.249-0.004 0.093 0.099 0.229 0.214 0.375 0.249 0.011 0.041-0.005 0.095-0.041 0.089z"></path>
<path d="M12.715 15.495c0.5 0.063 0.583 1.797 0.593 2.328 0.016 0.511 0.005 1.271 0.14 1.708 0.209 0.677 0.813 1.547 1.532 0.828-0.573-0.667-0.188-2.025-0.631-2.896-0.203-0.385-0.385-0.604-0.468-1.031-0.057-0.281 0.005-0.609-0.199-0.787z"></path>
<path d="M9.412 22.078c0.109-0.104 0.068 0.038 0.131 0.219 0.115 0.313 0.099 0.62 0.124 0.943 0.057 0.631 0.152 1.355 0.109 1.98-0.020 0.249-0.161 0.421-0.223 0.645-0.095 0.36 0.072 0.625 0.083 0.975 0 0.12-0.125 0.26-0.131 0.396 0 0.077 0.073 0.255 0.084 0.353 0.025 0.219-0.027 0.448-0.005 0.661 0.052 0.437 0.011 0.891 0.093 1.328 0.052 0.287 0.188 0.548 0.172 0.844-0.011 0.313-0.016 0.443 0.041 0.735 0.043 0.219 0.12 0.443-0.025 0.625 0.14-0.015 0.297-0.063 0.432-0.131 0.052-0.208 0.193-0.407 0.229-0.635 0.073-0.387-0.041-0.833-0.041-1.235 0.005-1.193-0.376-2.36-0.323-3.552 0.025-0.631 0.312-1.213 0.296-1.776-0.011-0.428-0.208-0.824-0.161-1.235 0.032-0.349 0.131-0.661 0.093-1.027-0.036-0.484-0.228-0.588-0.703-0.796h0.172z"></path>
<path d="M3.855 22.209c-0.068 0.041-0.615 0.833-0.688 1.047-0.083 0.224 0 0.412-0.113 0.661-0.147 0.324-0.324 0.573-0.459 0.896-0.099 0.235-0.073 0.537-0.152 0.787-0.109 0.369-0.28 0.703-0.385 1.068-0.14 0.479-0.353 0.948-0.484 1.416-0.052 0.183-0.208 0.532-0.099 0.709 0.271 0.416 0.459 0.008 0.536-0.245 0.161-0.573 0.355-1.109 0.453-1.697 0.145-0.797 0.479-1.396 0.855-2.131 0.317-0.625 0.635-1.339 0.807-2.005 0.037-0.131 0.136-0.593 0.089-0.719-0.141-0.38-0.308-0.203-0.36 0.213z"></path>
<path d="M15.797 22.078c0.584 0.568 0.912 1.349 1.297 2.048 0.333 0.609 0.713 1.219 0.943 1.88 0.301 0.875 1.109 1.968 0.744 2.921-0.176-0.026-0.375-0.057-0.561-0.077-0.048-0.537-0.177-1.105-0.423-1.584-0.369-0.724-0.604-1.536-0.973-2.249-0.161-0.319-0.396-0.548-0.6-0.844-0.187-0.287-0.124-0.437-0.208-0.735-0.063-0.24-0.255-0.385-0.353-0.604-0.109-0.218-0.063-0.475-0.141-0.708-0.068-0.004-0.151-0.015 0.276-0.048z"></path>
<path d="M3.272 18.334c0.728 0.019 1.411-0.125 2.14-0.219 0.817-0.104 1.719-0.063 2.547-0.084 1.704-0.047 3.407-0.109 5.104-0.124 0.959-0.011 3.287-0.339 3.713 0.671-0.411 0.177-1.036 0.183-1.473 0.224-0.907 0.073-1.823 0.043-2.724 0.043-1.197-0.004-2.355-0.131-3.563-0.131-0.505 0-5.932 0.333-5.875-0.203 0.093-0.015 0.292-0.063 0.131-0.177z"></path>
<path d="M6.761 21.995c-0.391-0.084-0.297 1.135-0.365 1.396-0.14 0.495-0.369 0.937-0.479 1.453-0.141 0.609-0.183 1.213-0.281 1.833-0.079 0.495-0.396 0.943-0.568 1.405-0.088 0.224-0.677 1.584-0.213 1.729 0.396 0.115 0.5-0.984 0.568-1.187 0.224-0.667 0.719-1.215 0.801-1.928 0.115-1.052 0.276-1.984 0.443-2.995 0.105-0.615 0.423-1.219 0.537-1.828-0.199-0.015-0.041-0.015-0.443 0.12z"></path>
<path d="M12.396 22.078c-0.109 0.084 0.229 0.751 0.313 0.98 0.109 0.312 0.369 0.525 0.443 0.849 0.072 0.312 0.109 0.5 0.224 0.801 0.181 0.505 0.396 1.011 0.52 1.541 0.104 0.459 0.136 0.937 0.267 1.391 0.197 0.677 0.645 1.855 1.239 2.224 0.568-0.213-0.011-1.328-0.197-1.624-0.292-0.453-0.323-0.86-0.448-1.396-0.115-0.475-0.344-0.923-0.437-1.401-0.047-0.199-0.037-0.401-0.089-0.599-0.063-0.24-0.151-0.333-0.229-0.543-0.151-0.416-0.337-0.76-0.541-1.156-0.135-0.265-0.599-1.219-1.063-1.068z"></path>
<path d="M7.923 22.078c-0.245 0.063-0.172 2.511-0.271 2.98-0.12 0.651-0.052 1.307-0.084 1.968-0.031 0.62-0.208 1.235-0.401 1.819-0.088 0.281-0.52 1.312-0.271 1.572 0.385 0.417 0.459-0.463 0.495-0.687 0.12-0.683 0.349-1.276 0.485-1.937 0.172-0.844 0.531-1.589 0.541-2.48 0.005-0.724-0.213-1.473-0.041-2.167 0.052-0.229 0.4-1.391-0.453-1.068z"></path>
<path d="M10.829 22.078c0.364 0.004 0.291 1.109 0.364 1.417 0.12 0.448 0.281 0.828 0.307 1.276 0.073 1.036 0.365 2.011 0.448 3.052 0.052 0.683 0.235 1.437 0.401 2.093 0.084 0.328 0.177 0.792 0.271 1.027-0.005-0.030-0.005-0.057 0.005-0.089 0.027 0 0.12 0.038 0.12 0.038 0.088-0.141 0.109-0.079 0.235-0.151 0.016 0.004 0.063 0.056 0.077 0.067 0.1-0.421-0.281-0.687-0.4-1.063-0.193-0.624-0.104-1.359-0.215-2-0.119-0.681-0.249-1.427-0.223-2.129 0.020-0.595-0.229-1.041-0.407-1.615-0.177-0.584-0.125-1.625-0.984-1.923z"></path>
<path d="M13.74 21.911c0.099 0.407 0.287 0.735 0.448 1.095 0.156 0.333 0.219 0.667 0.432 0.989 0.543 0.817 0.767 1.844 1.079 2.771 0.172 0.505 0.192 0.855 0.484 1.323 0.26 0.407 0.297 1.167 0.917 1.183 0.229-0.505-0.448-0.969-0.547-1.437-0.204-0.975-0.297-1.959-0.756-2.855-0.344-0.677-0.911-1.203-1.229-1.88-0.151-0.323-0.181-0.719-0.828-1.188z"></path>
<path d="M5.057 22.121c0.016 0.333 0.027 0.733-0.036 1.057-0.079 0.416-0.453 0.713-0.579 1.072-0.249 0.683-0.124 1.412-0.411 2.104-0.136 0.339-0.213 0.672-0.36 1-0.124 0.292-0.328 0.516-0.489 0.813-0.172 0.323-0.349 0.817-0.437 1.14 0.183-0.004 0.401 0.026 0.557 0.089-0.104-0.448-0.041-0.652 0.213-1.016 0.396-0.593 0.631-1.156 0.937-1.787 0.469-0.948 0.328-2.151 0.636-3.131 0.073-0.233 0.151-0.504 0.244-0.744 0.063-0.167 0.105-0.303 0.141-0.437 0.047-0.172-0.063-0.229 0.135-0.36-0.14 0.030-0.271 0.015-0.552 0.199z"></path>
<path d="M5.928 14.969c-0.672 0.548-0.208 1.833-0.407 2.573-0.099 0.412-0.219 0.817-0.339 1.213-0.135 0.453-0.052 0.964-0.156 1.391 0.265-0.161 0.593-0.052 0.864-0.12 0-0.047 0.005-0.099 0.011-0.156 0.333-0.135 0.141-0.443 0.156-0.781 0.021-0.359 0.141-0.713 0.167-1.052 0.037-0.401 0.105-0.724 0.167-1.109 0.063-0.437 0.027-0.839 0.068-1.265-0.011 0.063-0.031 0.041-0.068 0.073z"></path>
</svg>
