<!-- Generated by IcoMoon.io -->
<svg version="1.1" xmlns="http://www.w3.org/2000/svg" width="36" height="32" viewBox="0 0 36 32">
<title>the_beyond</title>
<path d="M33.942 20.666c-0.439-1.62-0.644-3.384-1.045-5.009-0.17-0.704-0.444-1.29-0.805-1.944-0.489-0.899-0.811-2.182-1.431-2.969-1.010-1.275-2.211-1.929-3.466-2.861-0.957-0.712-1.411-1.767-2.51-2.236-1.324-0.561-2.466-1.143-3.73-1.905-2.036-1.215-3.77-0.766-5.786-1.269-0.43-0.107-0.835-0.279-1.265-0.386-1.904-0.474-3.432 1.127-5.176 0.717-0.429 0.128-0.849 0.254-1.279 0.357-0.889 0.224-1.377 1.094-2.021 1.679-0.391 0.356-1.421 1.592-1.846 1.719 1.631-0.517 3.061-1.64 4.844-1.806 1.704-0.156 3.365-0.654 5.054-0.796 1.147-0.102 2.374 0.361 3.452 0.699 0.082 0.025 0.166 0.054 0.244 0.073 0.948 0.279 2.041 0.299 3.017 0.777 1.001 0.482 1.895 1.235 2.851 1.816 0.894 0.536 1.724 1.191 2.589 1.86 1.299 1.006 2.47 1.611 3.412 3.042 0.991 1.499 2.999 3.305 2.52 5.258-0.010 0.054-0.030 0.102-0.054 0.141 0.185 0.532 0.376 1.059 0.571 1.562 0.484 1.25 0.708 4.477 0.39 6.557 0.123 0.011 0.235 0.039 0.337 0.087 0.386-0.502 0.986-1.030 1.122-1.665 0.294-1.396 0.342-2.28 0.010-3.501z"></path>
<path d="M22.116 7.747c0.299 0 1.812 0.952 1.934 1.534-1.552 0.537-4.096 0.879-5.117 2.422-1.102 1.655-0.444 3.456-1.23 5.254-0.444 1.015-1.143 2.172-2.211 2.572-1.26 0.474-2.769-0.141-4 0.576-1.772 1.026-1.567 3.335-2.314 4.961-0.924 1.992-1.499 3.027-3.237 4.239 0.801-0.777 1.582-1.656 1.899-2.74 0.425-1.425-0.024-3.14 0.65-4.536 0.195-0.41 0.474-0.59 0.674-0.907 0.361-0.562 0.361-0.899 0.645-1.475 0.385-0.766 1.025-1.235 1.786-1.514 0.821-0.298 1.724-0.205 2.5-0.492 0.757-0.284 0.919-0.732 1.651-1.094-0.005-4.092 2.871-6.715 6.22-8.545-0.166 0.007-0.331 0.007 0.151-0.255z"></path>
<path d="M3.822 7.226c0.741-0.132 1.581-0.264 2.309-0.504-0.361 1.094-2.011 1.865-2.324 2.964-0.42 1.485 1.24 2.041 1.865 3.086 1.577 2.656-2.261 4.434-2.372 7.041-0.079 1.704 1.112 2.685 0.415 4.404-0.406-2.167-2.651-4.516-1.616-6.86 0.464-1.040 2.319-2.129 1.826-3.486-0.435-1.211-1.529-1.436-1.665-3.012-0.079-0.889 0.849-3.36 1.562-3.632z"></path>
<path d="M31.334 22.546c0 0.894-0.078 2.617 0.113 3.741-0.707 0.014-1.376 0.419-2.050 0.546-0.996 0.181-2.027 0.044-3.022 0.284-1.851 0.434-2.607 1.371-3.477 2.831-1.821 3.057-4.936 1.601-7.915 1.299-1.796-0.18-3.085-0.459-4.526 0.753 2.329-2.999 5.151-1.382 8.155-1.539 3.812-0.195 3.911-4.599 7.28-5.297 1.327-0.279 4.877-0.011 5.444-2.617z"></path>
<path d="M27.697 13.587c0.303-0.062 1.47 1.070 1.504 1.949-1.489 0.801-3.784 0.996-5.064 2.065-1.176 0.991-0.869 2.94-1.924 4.004-0.907 0.919-2.88 0.537-4.086 1.094-1.704 0.781-1.699 1.715-2.71 3.022-0.986 1.27-3.422 2.261-4.306 2.261 1.079-0.551 2.431-1.186 3.095-2.226 0.84-1.314 0.952-2.671 2.407-3.652 1.289-0.869 3.096-0.86 4.272-1.9 1.191-1.050 0.996-2.782 1.949-3.955 0.933-1.158 2.846-1.909 4.257-2.382-0.249 0.136-0.522 0.171 0.605-0.279z"></path>
<path d="M12.966 4.975c-0.044 0.087-0.113 0.166-0.195 0.224-0.143 0.107-0.299 0.201-0.45 0.289-0.38 0.581-0.331 1.143-0.639 1.626-0.304 0.474-0.899 0.825-1.28 1.255-1.255 1.445-0.356 1.991-0.239 3.52 0.121 1.547-0.972 1.352-1.787 2.187-1.499 1.529-2.085 5.561-1.934 7.681 0.596-1.51 0.351-3.36 1.236-4.932 0.912-1.616 2.157-1.191 3.437-2.251 1.435-1.181 0.365-2.88 0.483-4.403 0.166-2.031 2.007-2.080 3.16-3.369 1.616-1.797-0.312-1.856-1.792-1.826z"></path>
</svg>
