<!-- Generated by IcoMoon.io -->
<svg version="1.1" xmlns="http://www.w3.org/2000/svg" width="34" height="32" viewBox="0 0 34 32">
<title>the_vortex_above</title>
<path d="M18.381 16.436c0.097 0.168 0.1 0.254 0.083 0.443-0.034 0.355-0.231 0.578-0.537 0.75l0.229-0.13c-0.020 0.187-0.109 0.335-0.309 0.394-0.080 0.024-0.115 0-0.201 0.036-0.063 0.027-0.102 0.059-0.167 0.080-0.028-0.018-0.059-0.021-0.091-0.007-0.029 0.018-0.059 0.038-0.088 0.056-0.063 0.017-0.107 0.021-0.173 0.024-0.123 0.005-0.224 0.056-0.346 0.053-0.133-0.001-0.212-0.007-0.296-0.116-0.078-0.105-0.133-0.24-0.199-0.355-0.119-0.206-0.206-0.492-0.121-0.739 0.178-0.516 0.572-1.062 1.147-1.185 0.299-0.065 0.691 0.059 0.857 0.318 0.077 0.12 0.14 0.252 0.212 0.377zM18.82 15.127c-0.085-0.088-0.18-0.105-0.286-0.17-0.108-0.066-0.209-0.112-0.331-0.161-0.174-0.072-0.387-0.115-0.574-0.065-0.104 0.028-0.193 0.036-0.297 0.073-0.098 0.034-0.201 0.060-0.3 0.093-0.202 0.065-0.369 0.156-0.554 0.261-0.142 0.080-0.288 0.159-0.428 0.241-0.164 0.097-0.237 0.231-0.339 0.374-0.133 0.185-0.311 0.408-0.317 0.648 0.004-0.009 0.010-0.018 0.126-0.143-0.076 0.161-0.164 0.343-0.216 0.509-0.17 0.537-0.041 1.133 0.238 1.59 0.070 0.116 0.174 0.222 0.283 0.304 0.114 0.085 0.243 0.097 0.374 0.144 0.268 0.097 0.54 0.209 0.815 0.282 0.115 0.031 0.223 0.025 0.344-0.006 0.158-0.044 0.338-0.053 0.491-0.108 0.332-0.121 0.625-0.353 0.857-0.609 0.394-0.435 0.668-1.059 0.731-1.618 0.034-0.296 0.001-0.62-0.136-0.881-0.071-0.137-0.116-0.282-0.185-0.419-0.066-0.132-0.194-0.234-0.296-0.339z"></path>
<path d="M18.102 3.662c-0.395-0.144-0.766-0.179-1.182-0.182-0.473-0.003-0.952-0.046-1.422-0.017-0.865 0.056-1.729 0.146-2.576 0.338-0.36 0.081-0.722 0.142-1.077 0.247-0.23 0.070-0.429 0.192-0.642 0.307-0.345 0.185-0.711 0.328-1.066 0.488-0.265 0.121-0.533 0.192-0.771 0.374-0.222 0.167-0.439 0.342-0.638 0.541-0.125 0.123-0.231 0.272-0.362 0.39-0.174 0.157-0.36 0.273-0.52 0.453-0.154 0.174-0.29 0.369-0.45 0.536-0.126 0.132-0.262 0.248-0.358 0.41-0.104 0.178-0.156 0.387-0.234 0.579-0.112 0.272-0.088 0.432-0.074 0.714 0.011 0.234-0.076 0.539 0.018 0.761 0.115-0.055 0.265-0.373 0.349-0.495 0.215-0.306 0.468-0.54 0.705-0.822 0.147-0.174 0.318-0.306 0.478-0.464 0.151-0.15 0.276-0.334 0.429-0.481 0.136-0.129 0.311-0.237 0.454-0.356 0.257-0.213 0.558-0.391 0.778-0.649 0.377-0.446 0.855-0.622 1.399-0.773 0.222-0.062 0.446-0.069 0.663-0.15 0.332-0.123 0.659-0.269 0.994-0.387 0.346-0.121 0.704-0.174 1.059-0.259 0.342-0.083 0.684-0.17 1.034-0.208 0.453-0.049 0.941-0.118 1.397-0.1 0.487 0.018 0.97-0.001 1.45 0.1 0.21 0.043 0.468 0.206 0.682 0.17 0.067-0.013 0.128-0.055 0.193-0.073 0.147-0.039 0.348 0.088 0.467 0.006 0.006-0.181-0.306-0.295-0.422-0.358-0.149-0.081-0.276-0.189-0.43-0.257-0.107-0.046-0.208-0.099-0.306-0.15-0.038-0.020-0.072-0.032-0.108-0.049-0.052-0.022-0.166-0.112-0.216-0.095-0.001 0.018-0.002 0.035 0.304-0.090z"></path>
<path d="M11.805 24.787c0.053 0.012 0.109 0.020 0.17 0.022 0.281 0.010 0.551 0.114 0.827 0.045 0.22-0.053 0.439-0.081 0.658-0.102-0.035-0.184-0.231-0.243-0.372-0.329-0.161-0.101-0.24-0.255-0.412-0.348-0.076-0.041-0.147-0.052-0.22-0.095-0.081-0.048-0.16-0.102-0.24-0.156-0.060-0.038-0.126-0.111-0.184-0.195-0.313-0.272-0.575-0.599-0.781-0.947-0.153-0.255-0.39-0.456-0.543-0.712-0.087-0.146-0.172-0.289-0.252-0.438-0.078-0.146-0.199-0.261-0.28-0.405-0.116-0.206-0.187-0.433-0.313-0.637-0.077-0.125-0.199-0.237-0.252-0.374-0.048-0.126-0.063-0.275-0.056-0.41 0.011-0.201-0.055-0.381-0.097-0.585-0.084-0.398-0.126-0.809-0.077-1.221 0.027-0.226 0.094-0.446 0.157-0.666 0.045-0.151 0.087-0.303 0.126-0.454 0.097-0.383 0.3-0.766 0.362-1.146 0.057-0.355 0.362-0.645 0.564-0.94 0.257-0.373 0.454-0.782 0.735-1.141 0.123-0.157 0.254-0.331 0.404-0.47 0.143-0.132 0.287-0.296 0.453-0.401 0.362-0.226 0.694-0.491 1.057-0.712 0.184-0.112 0.376-0.216 0.579-0.292 0.095-0.036 0.192-0.063 0.29-0.087 0.279-0.066 0.519-0.251 0.788-0.362 0.178-0.074 0.37-0.087 0.561-0.115 0.265-0.042 0.537-0.114 0.803-0.085 0.194 0.020 0.377 0.083 0.571 0.108 0.203 0.025 0.408 0.043 0.61 0.076 0.187 0.031 0.286 0.109 0.45 0.173 0.107 0.041 0.222 0.020 0.332 0.039 0.401 0.070 0.551 0.398 0.923 0.527 0.187 0.066 0.38 0.066 0.571 0.107 0.265 0.059 0.419 0.227 0.595 0.403 0.105 0.105 0.209 0.214 0.33 0.303 0.094 0.069 0.215 0.114 0.3 0.192 0.090 0.084 0.146 0.22 0.216 0.318 0.059 0.080 0.123 0.154 0.168 0.243 0.219 0.433 0.254 0.956 0.313 1.433 0.073 0.585 0.053 1.189-0.076 1.777-0.065 0.292-0.157 0.581-0.287 0.855-0.059 0.123-0.14 0.23-0.191 0.355-0.062 0.157-0.123 0.314-0.205 0.466-0.084 0.157-0.168 0.372-0.328 0.478-0.115 0.076-0.259 0.087-0.377 0.163-0.188 0.122-0.352 0.285-0.537 0.412-0.453 0.314-1.001 0.724-1.579 0.749-0.126 0.005-0.245-0.025-0.369-0.032-0.189-0.012-0.369 0.039-0.555 0.062-0.093 0.012-0.178 0.010-0.264 0.053-0.080 0.042-0.136 0.113-0.224 0.142 0.010 0.112 0.234 0.091 0.327 0.1 0.215 0.017 0.369 0.039 0.557 0.139 0.159 0.083 0.267 0.241 0.439 0.301 0.173 0.059 0.365-0.059 0.552-0.052 0.348 0.014 0.637-0.182 0.954-0.292 0.266-0.091 0.55-0.178 0.777-0.346 0.247-0.181 0.517-0.414 0.686-0.653 0.122-0.175 0.369-0.311 0.518-0.505 0.104-0.133 0.13-0.3 0.235-0.44 0.184-0.247 0.31-0.499 0.424-0.78 0.042-0.104 0.056-0.21 0.126-0.306 0.069-0.095 0.135-0.168 0.159-0.283 0.021-0.101 0.013-0.191 0.046-0.292 0.050-0.159 0.15-0.299 0.21-0.454 0.070-0.181 0.083-0.37 0.137-0.554 0.041-0.132 0.076-0.238 0.078-0.374 0.009-0.384 0.133-0.767 0.093-1.148-0.032-0.309-0.070-0.617-0.107-0.924-0.059-0.492-0.516-0.808-0.614-1.28-0.041-0.195-0.056-0.377-0.163-0.552-0.297-0.484-0.979-0.704-1.495-0.931-0.44-0.195-0.837-0.46-1.286-0.639-0.456-0.182-0.959-0.297-1.444-0.404-0.283-0.062-0.561-0.156-0.853-0.188-0.481-0.053-0.954 0.015-1.433 0.087-0.449 0.069-0.839 0.194-1.261 0.355-0.24 0.093-0.46 0.201-0.687 0.32-0.283 0.15-0.559 0.241-0.854 0.355-0.209 0.080-0.372 0.226-0.582 0.307-0.195 0.076-0.358 0.222-0.541 0.321-0.299 0.161-0.555 0.325-0.816 0.54-0.255 0.209-0.572 0.381-0.781 0.628-0.323 0.381-0.703 0.721-1.015 1.109-0.152 0.188-0.266 0.393-0.363 0.607-0.105 0.234-0.245 0.464-0.321 0.704-0.041 0.128-0.059 0.259-0.105 0.386-0.043 0.121-0.114 0.231-0.154 0.353-0.069 0.195-0.065 0.388-0.137 0.585-0.119 0.324-0.264 0.642-0.352 0.975-0.034 0.122-0.076 0.257-0.052 0.381 0.022 0.122 0.063 0.203 0.053 0.334-0.027 0.356 0.029 0.733 0.109 1.076 0.144 0.623 0.275 1.206 0.618 1.756 0.296 0.475 0.442 1.039 0.785 1.485 0.18 0.233 0.271 0.51 0.45 0.745 0.182 0.243 0.404 0.481 0.635 0.683 0.149 0.128 0.316 0.237 0.474 0.351 0.135 0.097 0.223 0.21 0.386 0.285 0.276 0.125 0.496 0.336 0.747 0.492z"></path>
<path d="M29.712 13.797c-0.158-0.478-0.070-0.98-0.12-1.481-0.035-0.345-0.065-0.695-0.116-1.036-0.065-0.438-0.198-0.862-0.342-1.277-0.074-0.217-0.181-0.415-0.269-0.627-0.118-0.282-0.188-0.562-0.278-0.855-0.097-0.313-0.237-0.609-0.395-0.893-0.217-0.393-0.443-0.826-0.798-1.112-0.212-0.17-0.39-0.362-0.603-0.527-0.173-0.132-0.272-0.313-0.412-0.473-0.132-0.151-0.299-0.254-0.494-0.316-0.198-0.063-0.381-0.154-0.575-0.224-0.182-0.066-0.411-0.067-0.578-0.159-0.076-0.042-0.122-0.125-0.194-0.167-0.056-0.034-0.107-0.025-0.164-0.042-0.184-0.055-0.334-0.175-0.517-0.233-0.157-0.049-0.306-0.112-0.473-0.135-0.29-0.038-0.582-0.056-0.872-0.104-0.296-0.050-0.564-0.028-0.862-0.029-0.185-0.003-0.38 0.049-0.565 0.078-0.109 0.018-0.331 0.035-0.369 0.153 0.125 0.013 0.237 0.008 0.36 0.036 0.201 0.046 0.398 0.102 0.599 0.146 0.282 0.062 0.543 0.15 0.812 0.241 0.193 0.066 0.397 0.097 0.587 0.171 0.133 0.052 0.3 0.093 0.429 0.156 0.115 0.056 0.233 0.144 0.344 0.207 0.331 0.191 0.655 0.388 1.004 0.55 0.286 0.13 0.603 0.31 0.822 0.534 0.156 0.16 0.286 0.342 0.405 0.53 0.056 0.090 0.101 0.203 0.177 0.28 0.055 0.056 0.126 0.088 0.18 0.147 0.142 0.159 0.207 0.374 0.294 0.564 0.090 0.195 0.209 0.365 0.288 0.565 0.083 0.212 0.15 0.431 0.234 0.644 0.175 0.447 0.286 0.919 0.494 1.352 0.297 0.618 0.21 1.329 0.496 1.949 0.29 0.627 0.188 1.429 0.187 2.116 0 0.492-0.024 0.997-0.194 1.475-0.077 0.216-0.184 0.423-0.258 0.639-0.112 0.325-0.142 0.652-0.182 0.986-0.078 0.641-0.272 1.306-0.581 1.89-0.102 0.194-0.21 0.383-0.327 0.569-0.090 0.184-0.193 0.362-0.31 0.532 0 0 0 0.001 0 0.001-0.058 0.282-0.174 0.54-0.29 0.805-0.071 0.163-0.122 0.343-0.236 0.485-0.128 0.159-0.268 0.295-0.381 0.468-0.081 0.122-0.168 0.235-0.262 0.35-0.066 0.083-0.285 0.255-0.227 0.39 0.171-0.076 0.334-0.077 0.485-0.226 0.094-0.091 0.178-0.15 0.295-0.223 0.128-0.081 0.219-0.198 0.346-0.278 0.081-0.052 0.166-0.1 0.25-0.149 0.1-0.119 0.192-0.244 0.279-0.366 0.198-0.275 0.438-0.503 0.649-0.767 0.17-0.212 0.304-0.446 0.473-0.656 0.056-0.069 0.084-0.122 0.113-0.206 0.077-0.229 0.142-0.461 0.209-0.693 0.135-0.457 0.268-0.914 0.446-1.357 0.105-0.264 0.292-0.496 0.407-0.759 0.062-0.137 0.119-0.261 0.194-0.394 0.079-0.142 0.104-0.304 0.107-0.46 0.002-0.119-0.037-0.227-0.009-0.346 0.083-0.339 0.177-0.645 0.187-0.995 0.009-0.287 0.053-0.572 0.108-0.857 0.041-0.21 0.062-0.39-0.004-0.59z"></path>
<path d="M11.842 28.826c-0.226-0.071-0.464-0.071-0.68-0.174-0.215-0.1-0.407-0.223-0.61-0.341-0.121-0.070-0.244-0.145-0.367-0.208-0.108-0.055-0.226-0.050-0.342-0.081-0.283-0.070-0.525-0.237-0.767-0.384-0.331-0.201-0.596-0.454-0.864-0.726-0.198-0.202-0.381-0.405-0.506-0.658-0.147-0.296-0.33-0.565-0.516-0.839-0.41-0.597-0.747-1.301-0.973-1.995-0.093-0.286-0.223-0.592-0.226-0.899-0.001-0.095 0.017-0.191 0.014-0.285-0.009-0.348-0.14-0.68-0.175-1.025-0.027-0.278-0.118-0.53-0.147-0.806-0.037-0.339-0.065-0.666-0.042-1.011 0.010-0.156 0.034-0.311 0.052-0.467 0.022-0.219-0.004-0.436 0.034-0.653 0.055-0.311 0.138-0.654 0.241-0.956 0.111-0.325 0.229-0.668 0.266-1.010 0.028-0.241 0.112-0.45 0.185-0.684 0.063-0.206 0.079-0.398 0.111-0.607 0.035-0.222 0.1-0.471 0.182-0.684 0.121-0.31 0.422-0.564 0.614-0.845 0.206-0.299 0.386-0.613 0.562-0.927 0.142-0.254 0.247-0.45 0.458-0.662 0.285-0.282 0.597-0.546 0.899-0.809 0.237-0.209 0.508-0.388 0.78-0.547 0.3-0.174 0.576-0.374 0.878-0.544 0.766-0.433 1.554-0.872 2.378-1.175 0.731-0.269 1.468-0.599 2.249-0.624 0.338-0.011 0.659-0.018 0.997-0.063 0.307-0.041 0.672-0.060 0.972-0.011 0.233 0.038 0.46 0.034 0.695 0.059 0.266 0.029 0.515 0.143 0.781 0.174 0.118 0.013 0.22 0.038 0.327 0.088 0.209 0.1 0.384 0.257 0.599 0.348 0.142 0.060 0.297 0.081 0.428 0.166 0.119 0.077 0.217 0.196 0.324 0.289 0.264 0.23 0.583 0.369 0.867 0.571 0.215 0.154 0.419 0.311 0.606 0.496 0.271 0.269 0.508 0.569 0.826 0.789 0.292 0.202 0.595 0.359 0.805 0.653 0.090 0.125 0.175 0.161 0.226 0.306 0.090 0.258 0.185 0.515 0.278 0.771 0.077 0.217 0.119 0.446 0.167 0.673 0.042 0.206 0.104 0.407 0.165 0.606 0.028 0.090 0.105 0.22 0.079 0.324-0.021 0.081-0.080 0.15-0.098 0.238-0.038 0.184-0.004 0.37-0.021 0.555-0.027 0.29-0.069 0.595-0.126 0.893 0.042 0.116 0.088 0.231 0.113 0.352 0.024 0.114-0.017 0.163-0.029 0.265-0.029 0.238-0.071 0.481-0.111 0.725-0.025 0.15-0.027 0.297-0.048 0.449-0.010 0.085-0.049 0.22-0.035 0.29 0.094-0.066 0.123-0.262 0.181-0.365 0.139-0.248 0.331-0.464 0.495-0.695 0.112-0.157 0.224-0.311 0.339-0.467 0.128-0.174 0.203-0.369 0.349-0.53 0.122-0.133 0.221-0.271 0.318-0.417 0.042-0.227 0.067-0.446 0.090-0.674 0.021-0.209 0.060-0.387 0.035-0.596-0.042-0.323-0.112-0.662-0.098-0.989 0.017-0.397-0.060-0.756-0.178-1.129-0.123-0.394-0.21-0.808-0.367-1.188-0.071-0.175-0.168-0.325-0.237-0.502-0.070-0.181-0.205-0.358-0.327-0.505-0.255-0.309-0.585-0.593-0.886-0.855-0.191-0.165-0.381-0.339-0.586-0.491-0.195-0.145-0.419-0.25-0.616-0.397-0.401-0.3-0.839-0.526-1.252-0.805-0.478-0.323-0.965-0.624-1.471-0.906-0.23-0.129-0.467-0.283-0.732-0.342-0.13-0.028-0.261-0.025-0.39-0.063-0.373-0.108-0.736-0.156-1.131-0.166-0.217-0.005-0.43 0.017-0.645-0.015-0.206-0.032-0.409-0.073-0.621-0.065-0.412 0.018-0.812 0.123-1.22 0.133-0.212 0.004-0.419 0.083-0.624 0.135-0.229 0.059-0.47 0.105-0.693 0.189-0.21 0.080-0.423 0.149-0.639 0.205-0.189 0.037-0.377 0.071-0.565 0.108-0.641 0.167-1.203 0.62-1.785 0.924-0.383 0.199-0.712 0.416-1.063 0.67-0.313 0.226-0.652 0.407-0.973 0.62-0.255 0.17-0.534 0.345-0.759 0.554-0.231 0.216-0.499 0.418-0.712 0.649-0.063 0.069-0.105 0.15-0.163 0.223-0.29 0.365-0.627 0.717-0.945 1.057-0.327 0.353-0.557 0.728-0.829 1.119-0.122 0.174-0.212 0.293-0.243 0.498-0.034 0.22-0.109 0.414-0.184 0.624-0.126 0.362-0.229 0.736-0.369 1.094-0.166 0.417-0.31 0.837-0.398 1.273-0.046 0.23-0.020 0.461-0.060 0.691-0.038 0.222-0.084 0.417-0.078 0.64 0.011 0.447-0.002 0.886-0.031 1.334-0.024 0.402 0.042 0.799 0.029 1.203-0.015 0.452-0.024 0.92 0 1.369 0.005 0.099 0.017 0.199 0.045 0.294 0.048 0.16 0.142 0.297 0.212 0.446 0.115 0.241 0.171 0.509 0.261 0.761 0.102 0.289 0.224 0.568 0.349 0.847 0.196 0.435 0.353 0.903 0.597 1.313 0.199 0.335 0.454 0.653 0.679 0.975 0.355 0.508 0.689 1.022 1.185 1.408 0.285 0.222 0.595 0.415 0.875 0.642 0.049 0.041 0.093 0.077 0.13 0.128 0.063 0.081 0.104 0.149 0.196 0.205 0.222 0.136 0.492 0.207 0.746 0.272 0.384 0.1 0.738 0.251 1.136 0.283 0.266 0.022 0.557 0.036 0.823 0.006 0.118-0.013 0.24-0.060 0.358-0.055 0.088 0.005 0.144 0.038 0.24 0.013-0.1 0.029-0.182-0.041-0.271-0.069z"></path>
<path d="M11.697 15.923c-0.189 0.36-0.318 0.735-0.411 1.119 0 0.002-0.001 0.005-0.001 0.007-0.021 0.288-0.024 0.585 0.063 0.86 0.074 0.233 0.22 0.433 0.314 0.656 0.079 0.182 0.201 0.356 0.318 0.516 0.058 0.079 0.122 0.147 0.185 0.223 0.073 0.084 0.15 0.151 0.234 0.216 0.083 0.063 0.094 0.153 0.144 0.238 0.018 0.031 0.049 0.126 0.086 0.133 0.062 0.013 0.056-0.046 0.053-0.093-0.003-0.067-0.028-0.147-0.049-0.212-0.018-0.062-0.024-0.112-0.037-0.178-0.098-0.51-0.171-1.031-0.143-1.554 0.009-0.177 0.104-0.381 0.188-0.534 0.062-0.111 0.118-0.227 0.171-0.342 0.034-0.069 0.056-0.151 0.102-0.212 0.037-0.049 0.093-0.081 0.137-0.122 0.041-0.037 0.069-0.077 0.094-0.121 0.109-0.236 0.237-0.458 0.391-0.679 0.414-0.59 0.973-0.991 1.498-1.472 0.345-0.318 0.738-0.631 1.178-0.783 0.144-0.049 0.286-0.115 0.433-0.139 0.138-0.021 0.25-0.098 0.38-0.119 0.129-0.021 0.261 0.020 0.397-0.005 0.118-0.021 0.226-0.028 0.342 0 0.182 0.046 0.323 0.137 0.502 0.195 0.161 0.052 0.4 0.013 0.544 0.111 0-0.125-0.097-0.181-0.147-0.279-0.066-0.128-0.121-0.261-0.195-0.383-0.067-0.114-0.174-0.224-0.21-0.339-0.001-0.006-0.004-0.015-0.006-0.024-0.024-0.084-0.045-0.184-0.125-0.231-0.044-0.025-0.097-0.025-0.142-0.045-0.056-0.025-0.107-0.072-0.161-0.101-0.275-0.144-0.642-0.044-0.933-0.022-0.112 0.006-0.217-0.020-0.331-0.007-0.224 0.025-0.425 0.073-0.648 0.063-0.341-0.014-0.624 0.188-0.935 0.299-0.424 0.152-0.897 0.345-1.158 0.739-0.069 0.102-0.107 0.22-0.184 0.317-0.111 0.142-0.272 0.214-0.415 0.317-0.174 0.128-0.316 0.302-0.464 0.456-0.226 0.237-0.363 0.536-0.555 0.797-0.080 0.107-0.189 0.189-0.266 0.296-0.093 0.129-0.166 0.299-0.238 0.439z"></path>
<path d="M23.777 19.941c-0.195 0.248-0.411 0.401-0.68 0.565-0.126 0.077-0.255 0.083-0.389 0.126-0.13 0.045-0.24 0.112-0.377 0.144-0.024 0.005-0.046 0.010-0.070 0.014-0.235 0.182-0.466 0.373-0.711 0.541-0.177 0.122-0.36 0.234-0.557 0.318-0.093 0.039-0.187 0.070-0.282 0.098-0.272 0.076-0.501 0.273-0.76 0.397-0.173 0.081-0.36 0.1-0.546 0.136-0.258 0.050-0.523 0.132-0.784 0.112-0.191-0.015-0.373-0.074-0.564-0.094-0.199-0.020-0.401-0.032-0.599-0.060-0.17-0.024-0.271-0.091-0.414-0.149-0.066-0.010-0.133-0.022-0.202-0.038-0.053 0-0.107 0.001-0.16-0.007-0.151-0.024-0.268-0.087-0.376-0.164-0.065-0.024-0.119-0.038-0.201-0.042-0.168-0.005-0.32-0.072-0.485-0.091-0.093-0.010-0.173-0.003-0.259-0.034-0.108-0.036-0.196-0.060-0.307-0.077-0.161-0.024-0.304-0.102-0.458-0.153-0.114-0.038-0.206-0.112-0.321-0.147-0.053-0.017-0.108-0.031-0.161-0.048-0.050-0.017-0.143-0.032-0.189-0.069-0.035-0.027-0.052-0.066-0.085-0.093-0.049-0.039-0.095-0.039-0.122-0.108-0.005 0.095 0.142 0.266 0.181 0.344 0.073 0.142 0.115 0.271 0.224 0.39 0.084 0.091 0.161 0.188 0.244 0.28 0.076 0.086 0.135 0.185 0.229 0.257 0.087 0.067 0.181 0.122 0.265 0.193 0.157 0.133 0.3 0.276 0.439 0.425 0.046 0.005 0.090 0.014 0.133 0.027 0.104 0.034 0.188 0.102 0.285 0.147 0.261 0.122 0.623 0.133 0.907 0.195 0.639 0.139 1.314 0.129 1.976 0.087 0.781-0.049 1.59-0.195 2.345-0.435 0.653-0.207 1.286-0.691 1.793-1.147 0.042-0.038 0.083-0.077 0.122-0.118 0.309-0.318 0.576-0.672 0.886-0.987 0.105-0.105 0.202-0.22 0.303-0.329 0.002-0.013 0.006-0.025 0.010-0.038 0.050-0.278 0.157-0.572 0.161-0.857-0.209 0.046-0.321 0.33-0.444 0.487z"></path>
</svg>
