<!-- Generated by IcoMoon.io -->
<svg version="1.1" xmlns="http://www.w3.org/2000/svg" width="33" height="32" viewBox="0 0 33 32">
<title>the_fall_of_the_house_of_usher</title>
<path d="M2.38 28.788c-0.060-0.097-0.125-3.368-0.144-7.268l-0.035-7.092 1.046-1.48c1.414-1.999 1.928-1.983 3.412 0.107 0.62 0.873 1.076 1.732 1.015 1.909-0.175 0.5 0.315 0.657 0.905 0.289 0.421-0.263 0.601-0.265 0.857-0.009 0.443 0.443 1.012 0.408 1.012-0.063 0-0.213 0.238-0.515 0.529-0.67 0.451-0.242 0.529-0.554 0.529-2.129 0-2.077 0.743-3.673 1.719-3.694 0.706-0.016 1.454-0.61 1.454-1.154 0-0.58 1.311-2.547 1.688-2.533 0.163 0.006 0.811 0.839 1.441 1.851 0.748 1.202 1.315 1.84 1.635 1.84 0.269 0 0.761 0.381 1.092 0.846 0.509 0.716 0.591 1.125 0.529 2.647-0.069 1.696-0.027 1.847 0.726 2.601 0.691 0.691 0.871 0.756 1.319 0.476 0.414-0.259 0.604-0.253 0.943 0.028 0.39 0.324 0.807 0.217 0.809-0.208 0.001-0.259 1.461-2.745 1.928-3.284 0.765-0.883 1.445-0.569 2.574 1.19l1.061 1.653-0.275 14.281-5.42-0.037c-4.363-0.029-5.425-0.107-5.447-0.397-0.060-0.787-0.127-0.803-0.635-0.159l-0.527 0.669-7.816-0.018c-4.299-0.011-7.865-0.097-7.925-0.194zM16.265 18.344c0-0.364-0.046-0.661-0.101-0.661s-0.158 0.298-0.228 0.661c-0.070 0.364-0.024 0.661 0.101 0.661s0.228-0.298 0.228-0.661zM21.206 14.989c-0.084-0.211-0.147-0.148-0.16 0.16-0.012 0.279 0.051 0.435 0.139 0.347s0.097-0.316 0.021-0.507zM14.066 10.493c-0.084-0.211-0.147-0.148-0.16 0.16-0.012 0.279 0.051 0.435 0.139 0.347s0.097-0.316 0.021-0.507z"></path>
</svg>
