<!-- Generated by IcoMoon.io -->
<svg version="1.1" xmlns="http://www.w3.org/2000/svg" width="33" height="32" viewBox="0 0 33 32">
<title>the_midnight_hour</title>
<path d="M18.543 30.93c-0.125-0.036-0.281-0.052-0.346-0.035-0.108 0.028-0.121-0.044-0.145-0.812-0.015-0.464-0.048-0.933-0.074-1.043s-0.060-0.264-0.076-0.342l-0.028-0.142-0.451 0.165c-0.449 0.164-0.724 0.253-1.696 0.547l-0.511 0.155 0.035 0.375c0.019 0.206 0.057 0.482 0.085 0.614l0.050 0.239-1.141 0.078c-1.699 0.117-6.665 0.099-7.009-0.025-0.147-0.053-0.447-0.097-0.667-0.098-0.696-0.003-0.7-0.007-0.7-0.575v-0.492h0.374c0.314 0 0.367-0.017 0.333-0.105-0.022-0.058-0.040-0.314-0.040-0.568v-0.463l-0.623 0.496c-0.343 0.273-0.814 0.62-1.047 0.77-0.378 0.244-0.454 0.269-0.703 0.232-0.434-0.065-1.027 0.093-1.149 0.306-0.129 0.224-0.768 0.428-1.193 0.38-0.161-0.018-0.309-0.050-0.329-0.070-0.054-0.054 0.179-0.655 0.314-0.812 0.145-0.169 0.33-0.533 0.33-0.649 0-0.049 0.139-0.311 0.308-0.584 0.342-0.55 0.559-1.015 0.559-1.202 0-0.068 0.107-0.328 0.239-0.578 0.245-0.467 0.383-0.827 0.46-1.202 0.024-0.117 0.098-0.282 0.164-0.367 0.175-0.223 0.565-1.030 0.704-1.453 0.066-0.202 0.16-0.48 0.21-0.618s0.091-0.391 0.091-0.562c0-0.31 0.068-0.593 0.241-1.006 0.051-0.12 0.092-0.405 0.092-0.634 0-0.27 0.041-0.488 0.117-0.624 0.229-0.412 0.483-0.752 0.616-0.823 0.161-0.086 0.169-0.277 0.038-0.834-0.052-0.22-0.13-0.883-0.173-1.474-0.077-1.038-0.075-1.084 0.062-1.392 0.171-0.386 0.191-1.119 0.041-1.478-0.084-0.201-0.088-0.339-0.024-0.881 0.048-0.405 0.060-1.11 0.034-1.91-0.091-2.744-0.114-3.053-0.25-3.385-0.101-0.245-0.114-0.348-0.058-0.452 0.088-0.165 0.057-1.666-0.061-2.906l-0.083-0.875 0.409-0.792c0.464-0.899 0.664-1.281 0.745-1.426 0.031-0.055 0.106-0.196 0.167-0.313l0.11-0.213 1.506-0.020c1.328-0.018 1.527-0.007 1.679 0.093 0.26 0.171 0.916 0.252 2.045 0.253l1.017 0v0.337c0 0.186 0.050 0.432 0.112 0.55s0.135 0.333 0.163 0.48c0.086 0.452 0.251 0.979 0.358 1.142 0.128 0.195 0.452 0.366 0.709 0.373 0.108 0.003 0.213 0.032 0.232 0.063s0.066 0.039 0.103 0.016c0.063-0.039 0.534-0.118 1.291-0.217 0.183-0.024 0.473-0.127 0.645-0.23l0.311-0.186-0.005-0.814c-0.003-0.448 0.015-0.875 0.039-0.95 0.052-0.162 0.779-0.598 1.111-0.665 0.128-0.026 0.269-0.076 0.313-0.112 0.090-0.072 0.988-0.195 1.378-0.188 0.142 0.003 0.343 0.049 0.447 0.102s0.313 0.098 0.464 0.098c0.151 0 0.325 0.027 0.387 0.060s0.35 0.1 0.641 0.148c0.415 0.069 0.534 0.071 0.556 0.007 0.020-0.061 0.355-0.081 1.305-0.079 1.411 0.003 1.444 0.011 1.671 0.45 0.060 0.116 0.163 0.24 0.23 0.275 0.212 0.113 0.404 0.954 0.459 2.006 0.037 0.702-0.069 2.079-0.222 2.901-0.081 0.435-0.093 0.97-0.064 2.901 0.020 1.302 0.053 2.721 0.074 3.154 0.036 0.739 0.048 0.791 0.192 0.857 0.126 0.057 0.161 0.139 0.194 0.447 0.022 0.207 0.151 0.977 0.285 1.71s0.256 1.469 0.269 1.634c0.068 0.878 0.176 1.409 0.329 1.618 0.087 0.119 0.185 0.276 0.218 0.35 0.172 0.382 0.401 1.043 0.473 1.367 0.101 0.454 0.26 1.020 0.379 1.352 0.050 0.138 0.090 0.342 0.090 0.452s0.048 0.312 0.107 0.449c0.059 0.136 0.161 0.443 0.227 0.681s0.246 0.748 0.4 1.134c0.154 0.385 0.306 0.835 0.338 1 0.155 0.814 0.404 1.388 0.844 1.946 0.102 0.128 0.286 0.456 0.409 0.728s0.296 0.653 0.385 0.848l0.16 0.354-0.19 0.19c-0.138 0.138-0.28 0.201-0.518 0.23-0.18 0.022-0.533 0.089-0.784 0.149-0.481 0.115-0.412 0.118-2.299-0.117-0.713-0.089-1.426-0.076-1.581 0.028-0.072 0.049-0.357 0.126-0.632 0.173s-0.635 0.127-0.8 0.18c-0.284 0.090-1.4 0.109-4.081 0.068-0.386-0.006-0.608 0.019-0.663 0.074-0.098 0.098-0.719 0.101-1.052 0.006zM11.988 29.54c0.194-0.074 0.55-0.162 0.791-0.196s0.443-0.071 0.449-0.083c0.006-0.011-0.010-1.026-0.036-2.255-0.046-2.186-0.116-3.596-0.247-5.001-0.036-0.385-0.084-1.615-0.107-2.734-0.029-1.414-0.082-2.336-0.172-3.025-0.071-0.545-0.13-1.31-0.131-1.7s-0.061-1.084-0.135-1.543-0.162-1.419-0.196-2.134c-0.034-0.715-0.108-1.72-0.165-2.234s-0.147-1.339-0.201-1.834c-0.054-0.495-0.114-1.347-0.135-1.893s-0.055-1.105-0.077-1.242c-0.038-0.238-0.054-0.252-0.342-0.291-0.166-0.023-0.624-0.041-1.017-0.041-0.644 0-0.757 0.019-1.141 0.192-0.234 0.105-0.606 0.243-0.826 0.305s-0.569 0.189-0.776 0.281l-0.376 0.167 0.034 0.578c0.019 0.318 0.092 0.803 0.163 1.078 0.156 0.602 0.286 3.188 0.224 4.434-0.022 0.44-0.008 2.19 0.031 3.889 0.068 2.965 0.077 3.109 0.23 3.601 0.277 0.89 0.291 1.006 0.368 2.946 0.065 1.644 0.061 1.992-0.029 2.584-0.122 0.803-0.139 2.835-0.030 3.485 0.040 0.238 0.077 0.816 0.083 1.284 0.008 0.659 0.029 0.843 0.095 0.818 0.123-0.046 0.982 0.132 1.449 0.301 1.148 0.416 1.658 0.477 2.219 0.263zM8.799 22.066c-0.041-0.077-0.080-0.499-0.086-0.939-0.011-0.799-0.011-0.8 0.176-0.961 0.374-0.322 0.831-0.146 0.981 0.378 0.071 0.249 0.089 1.387 0.025 1.556-0.032 0.083-0.145 0.105-0.531 0.105-0.429 0-0.5-0.017-0.565-0.139zM10.714 22.028c-0.024-0.024-0.044-0.233-0.044-0.463s-0.032-0.567-0.071-0.748c-0.14-0.653 0.135-1.018 0.775-1.028 0.246-0.004 0.339 0.030 0.484 0.175 0.176 0.176 0.179 0.195 0.176 1.028-0.002 0.466-0.023 0.901-0.048 0.965-0.038 0.099-0.134 0.117-0.636 0.117-0.325 0-0.611-0.020-0.636-0.044zM8.471 18.645c-0.035-0.091-0.072-0.434-0.083-0.762-0.022-0.672 0.044-0.812 0.451-0.946 0.175-0.058 0.262-0.052 0.416 0.028 0.286 0.148 0.355 0.386 0.333 1.144l-0.019 0.663-0.517 0.019c-0.498 0.019-0.52 0.013-0.58-0.146zM10.749 18.525c-0.084-0.084-0.114-1.087-0.039-1.284 0.062-0.16 0.383-0.303 0.684-0.303 0.207 0 0.296 0.038 0.403 0.176 0.117 0.149 0.138 0.269 0.138 0.791v0.615l-0.309 0.042c-0.471 0.065-0.789 0.051-0.878-0.038zM8.426 15.62c-0.117-0.076-0.282-0.63-0.299-1.006-0.018-0.402 0.1-0.573 0.477-0.685 0.642-0.192 1.079 0.516 0.866 1.403l-0.081 0.339-0.443-0.001c-0.244-0.001-0.477-0.023-0.519-0.050zM10.405 15.475c-0.038-0.071-0.069-0.339-0.069-0.595 0-0.642 0.23-1.118 0.57-1.182 0.246-0.046 0.57 0.052 0.705 0.214 0.111 0.134 0.211 1.398 0.123 1.562-0.060 0.113-0.144 0.129-0.664 0.129s-0.604-0.016-0.664-0.129zM7.968 12.36c-0.113-0.239-0.134-0.992-0.034-1.253 0.036-0.095 0.144-0.208 0.24-0.252 0.145-0.066 0.209-0.060 0.373 0.034 0.109 0.063 0.251 0.114 0.315 0.114 0.234 0 0.42 0.301 0.467 0.755 0.024 0.236 0.019 0.506-0.012 0.599-0.054 0.163-0.081 0.171-0.653 0.191l-0.597 0.021zM10.081 12.42c-0.071-0.139 0.021-1.17 0.127-1.428 0.098-0.238 0.389-0.351 0.774-0.298 0.361 0.050 0.477 0.131 0.599 0.423 0.12 0.287 0.108 0.59-0.038 0.949-0.113 0.278-0.143 0.302-0.48 0.381-0.533 0.125-0.909 0.114-0.981-0.027zM8.118 9.386c-0.064-0.064-0.117-0.208-0.117-0.321s-0.033-0.335-0.073-0.495c-0.086-0.343 0.010-0.729 0.208-0.835 0.234-0.125 0.659-0.079 0.828 0.090 0.246 0.246 0.386 1.090 0.242 1.468-0.057 0.15-0.105 0.167-0.517 0.188-0.364 0.018-0.477-0.001-0.571-0.094zM10.169 9.042c-0.151-0.151-0.167-0.22-0.167-0.706 0-0.484 0.017-0.556 0.164-0.703 0.231-0.231 0.772-0.234 1.001-0.005 0.316 0.316 0.389 0.96 0.15 1.316-0.143 0.212-0.179 0.228-0.567 0.246-0.367 0.018-0.433 0.001-0.581-0.147zM7.86 6.147c-0.032-0.085-0.059-0.193-0.059-0.24s-0.049-0.183-0.108-0.302c-0.102-0.204-0.101-0.226 0.024-0.395 0.073-0.098 0.153-0.245 0.179-0.327 0.040-0.127 0.095-0.149 0.374-0.149 0.295 0 0.337 0.019 0.429 0.197 0.056 0.108 0.102 0.236 0.102 0.283s0.041 0.164 0.090 0.258c0.143 0.274 0.185 0.522 0.112 0.658-0.056 0.104-0.159 0.131-0.577 0.149-0.48 0.021-0.512 0.013-0.567-0.132zM9.852 6.214c-0.096-0.116-0.143-0.731-0.086-1.115 0.065-0.436 0.218-0.565 0.67-0.565 0.602 0 0.719 0.193 0.687 1.134l-0.020 0.567-0.589 0.033c-0.438 0.025-0.608 0.011-0.662-0.054zM20.046 29.375c0.087-0.057 0.159-0.133 0.159-0.169 0-0.107 0.848-0.074 1.217 0.047 0.296 0.097 0.446 0.103 1.113 0.043 0.817-0.073 1.141-0.183 1.282-0.439 0.164-0.298 0.259-1.75 0.331-5.084 0.040-1.87 0.062-3.611 0.049-3.868-0.044-0.849-0.025-3.92 0.030-4.768 0.030-0.458 0.112-1.247 0.183-1.751 0.107-0.761 0.13-1.313 0.132-3.234 0.002-1.274 0.032-2.451 0.068-2.616s0.080-1.042 0.099-1.949c0.049-2.317 0.103-2.244-1.75-2.34-1.056-0.054-1.257-0.049-1.546 0.046-0.529 0.173-0.903 0.144-1.3-0.102-0.416-0.257-0.792-0.281-1.090-0.069-0.344 0.245-0.383 0.439-0.296 1.47 0.042 0.501 0.094 1.27 0.115 1.71s0.079 1.175 0.131 1.634c0.122 1.097 0.125 1.472 0.030 3.801-0.144 3.511-0.153 5.443-0.029 5.892 0.123 0.443 0.1 1.638-0.068 3.51-0.051 0.568-0.111 1.631-0.133 2.361-0.023 0.761-0.072 1.386-0.114 1.465-0.116 0.217-0.012 3.934 0.117 4.183 0.221 0.427 0.807 0.532 1.272 0.228zM19.696 23.891l-0.276-0.025-0.047-0.624c-0.030-0.407-0.022-0.67 0.025-0.758 0.082-0.153 0.347-0.248 0.859-0.309 0.328-0.039 0.366-0.028 0.55 0.156 0.228 0.228 0.256 0.493 0.098 0.941-0.055 0.156-0.1 0.351-0.1 0.433 0 0.121-0.048 0.157-0.25 0.191-0.251 0.041-0.349 0.041-0.859-0.006zM22.047 23.753c-0.018-0.029-0.069-0.257-0.112-0.507-0.073-0.417-0.068-0.468 0.052-0.63 0.144-0.195 0.845-0.475 1.192-0.476 0.403-0.002 0.59 0.423 0.521 1.183l-0.043 0.483h-0.788c-0.434 0-0.803-0.024-0.821-0.053zM22.401 20.901c-0.121-0.146-0.229-1.669-0.136-1.914 0.083-0.218 0.303-0.316 0.715-0.316 0.628 0 0.758 0.238 0.758 1.385 0 0.525-0.027 0.816-0.080 0.869-0.126 0.126-1.149 0.106-1.257-0.025zM20.054 20.865c-0.064-0.037-0.144-0.050-0.177-0.029-0.114 0.071-0.272-0.045-0.272-0.199 0-0.096-0.050-0.171-0.133-0.197-0.1-0.032-0.119-0.071-0.075-0.155 0.032-0.062 0.080-0.344 0.105-0.627 0.033-0.357 0.087-0.566 0.178-0.682 0.159-0.202 0.574-0.325 0.893-0.266 0.384 0.072 0.471 0.252 0.522 1.084 0.024 0.402 0.028 0.772 0.009 0.824-0.032 0.084-0.313 0.187-0.766 0.28-0.092 0.019-0.219 0.004-0.284-0.032zM19.634 17.065c-0.087-0.14 0.043-1.169 0.174-1.386 0.122-0.201 0.144-0.209 0.578-0.208 0.248 0.001 0.526 0.039 0.618 0.085 0.232 0.117 0.341 0.489 0.289 0.986-0.037 0.353-0.065 0.414-0.229 0.498-0.226 0.117-1.362 0.136-1.431 0.024zM22.495 16.92c-0.065-0.104-0.132-1.289-0.082-1.429 0.073-0.202 0.284-0.3 0.673-0.311 0.477-0.014 0.606 0.157 0.714 0.945 0.118 0.866 0.134 0.845-0.634 0.845-0.352 0-0.655-0.023-0.672-0.051zM19.771 13.579c-0.052-0.124-0.099-0.436-0.106-0.694-0.010-0.39 0.013-0.504 0.137-0.678 0.147-0.207 0.155-0.209 0.652-0.19 0.448 0.017 0.517 0.038 0.628 0.187 0.161 0.216 0.231 0.936 0.128 1.316l-0.077 0.283h-1.269zM22.955 13.621c-0.303-0.012-0.554-0.044-0.559-0.070-0.025-0.136-0.070-0.762-0.080-1.104-0.010-0.359 0.005-0.402 0.189-0.55 0.368-0.295 0.876-0.294 1.070 0.002 0.164 0.251 0.211 1.286 0.071 1.558-0.061 0.118-0.117 0.208-0.126 0.2s-0.263-0.024-0.565-0.036zM19.827 10.362c-0.192-0.294-0.115-1.522 0.11-1.724 0.074-0.067 0.31-0.119 0.661-0.146 0.599-0.046 0.81 0.017 0.928 0.276 0.079 0.173 0.028 1.473-0.065 1.653-0.052 0.1-0.162 0.117-0.79 0.117-0.713 0-0.732-0.004-0.844-0.175zM22.579 10.097c-0.022-0.058-0.041-0.281-0.041-0.495 0-0.245-0.042-0.463-0.114-0.588-0.151-0.262-0.042-0.515 0.279-0.649 0.568-0.237 1.056-0.031 1.132 0.48 0.021 0.142 0.068 0.385 0.104 0.542 0.095 0.409 0.083 0.532-0.067 0.683-0.112 0.112-0.222 0.133-0.693 0.133-0.449 0-0.568-0.021-0.6-0.105zM20.043 6.728c-0.017-0.051-0.048-0.28-0.068-0.51s-0.054-0.59-0.075-0.802c-0.052-0.516 0.051-0.613 0.67-0.631 0.399-0.012 0.465 0.004 0.575 0.14 0.068 0.084 0.155 0.264 0.192 0.398 0.081 0.293 0.092 1.323 0.014 1.371-0.030 0.019-0.33 0.055-0.665 0.080-0.492 0.037-0.616 0.028-0.642-0.047zM22.568 6.438c-0.143-0.219-0.186-1.213-0.061-1.41 0.188-0.297 0.854-0.46 1.176-0.288 0.194 0.104 0.319 0.454 0.368 1.030 0.030 0.359 0.017 0.55-0.045 0.667-0.084 0.157-0.117 0.164-0.709 0.164-0.585 0-0.627-0.009-0.728-0.163zM26.34 29.545c0-0.061-0.527-0.278-0.884-0.363-0.174-0.042-0.183-0.032-0.183 0.191v0.235h0.533c0.293 0 0.533-0.028 0.533-0.062zM3.434 29.172c0.22-0.050 0.625-0.143 0.9-0.205s0.575-0.151 0.667-0.197c0.286-0.144 0.734-0.709 0.734-0.925 0-0.055 0.165-0.222 0.367-0.371 0.41-0.303 0.428-0.367 0.272-1-0.14-0.566-0.162-0.6-0.398-0.6-0.25 0-0.443 0.141-1.026 0.747-0.244 0.253-0.527 0.479-0.653 0.521-0.123 0.040-0.242 0.134-0.265 0.208-0.024 0.075-0.081 0.119-0.131 0.1-0.059-0.023-0.212 0.214-0.461 0.712-0.205 0.41-0.439 0.849-0.521 0.975-0.14 0.218-0.141 0.227-0.016 0.178 0.072-0.028 0.311-0.093 0.531-0.143zM28.531 29.139c0.16-0.073 0.325-0.132 0.367-0.132 0.047-0 0.084-0.163 0.096-0.425 0.017-0.365-0.009-0.482-0.184-0.826-0.276-0.543-1.019-1.193-1.498-1.31-0.276-0.067-0.999 0.139-1.423 0.406-0.193 0.122-0.396 0.221-0.45 0.221-0.078 0-0.099 0.103-0.099 0.5 0 0.383 0.022 0.5 0.093 0.5 0.051 0 0.11 0.043 0.13 0.097 0.057 0.147 0.422 0.31 0.727 0.324 0.228 0.010 0.292 0.045 0.384 0.212 0.078 0.142 0.205 0.231 0.439 0.308 0.279 0.093 0.83 0.222 1.062 0.249 0.037 0.004 0.198-0.052 0.357-0.124zM15.979 27.974c0.105-0.055 0.244-0.1 0.31-0.1s0.136-0.046 0.158-0.102c0.021-0.056 0.197-0.177 0.39-0.268s0.464-0.256 0.602-0.365c0.138-0.109 0.302-0.199 0.366-0.199 0.149 0 0.199-0.249 0.199-0.992-0-0.456-0.028-0.62-0.132-0.792-0.073-0.119-0.163-0.217-0.2-0.217s-0.116-0.12-0.175-0.267c-0.059-0.147-0.128-0.267-0.154-0.267s-0.14 0.105-0.254 0.233c-0.238 0.269-0.48 0.305-0.685 0.1-0.158-0.157-0.172-0.39-0.035-0.571 0.162-0.214 0.119-0.25-0.259-0.211-0.388 0.040-0.667 0.184-0.785 0.405-0.243 0.455-0.407 2.397-0.28 3.323 0.041 0.297 0.041 0.298 0.306 0.293 0.146-0.003 0.28 0.017 0.297 0.045 0.045 0.073 0.118 0.062 0.332-0.050zM26.203 25.742c0.112-0.080 0.204-0.169 0.204-0.198 0-0.071-0.448-0.654-0.524-0.682-0.033-0.013-0.149-0.164-0.258-0.337l-0.198-0.314-0.043 0.708c-0.024 0.389-0.043 0.821-0.043 0.958v0.251l0.33-0.121c0.181-0.066 0.422-0.186 0.533-0.266zM5.268 25.261c0.618-0.652 0.576-0.506 0.628-2.222 0.026-0.844 0.077-1.631 0.114-1.75s0.057-0.269 0.044-0.333c-0.018-0.089-0.067-0.054-0.205 0.148-0.141 0.207-0.182 0.344-0.182 0.619 0 0.222-0.059 0.495-0.16 0.735-0.249 0.594-0.44 1.268-0.515 1.815-0.063 0.455-0.151 0.725-0.488 1.493l-0.114 0.259 0.288-0.224c0.159-0.123 0.423-0.366 0.588-0.541zM27.206 24.641c0.077-0.145 0.065-0.237-0.099-0.75-0.103-0.322-0.205-0.615-0.227-0.652-0.091-0.154-0.204-0.71-0.272-1.334-0.201-1.851-0.24-2.034-0.433-2.034-0.107 0-0.142-0.099-0.203-0.58-0.024-0.191-0.114-0.596-0.2-0.9l-0.156-0.553-0.005 1.406c-0.003 0.773-0.024 1.904-0.048 2.511l-0.044 1.105 0.16 0.023c0.136 0.019 0.195 0.119 0.397 0.669 0.297 0.813 0.599 1.254 0.857 1.254 0.128 0 0.212-0.050 0.273-0.165zM17.753 22.495c0.369-0.186 0.389-0.316 0.319-2.068-0.035-0.874-0.065-2.363-0.066-3.309-0.002-1.843-0.024-1.984-0.348-2.193-0.384-0.248-0.743-0.207-1.105 0.125-0.203 0.186-0.286 0.222-0.449 0.192-0.293-0.054-0.522 0.030-0.904 0.329-0.564 0.442-0.543 0.326-0.582 3.2-0.030 2.277-0.023 2.56 0.077 2.752 0.139 0.27 0.34 0.372 1.009 0.515 0.348 0.075 0.652 0.191 0.874 0.335 0.478 0.31 0.747 0.338 1.176 0.122zM15.993 13.009c0.078-0.042 0.177-0.142 0.22-0.223s0.149-0.203 0.235-0.27c0.186-0.146 0.455-0.601 0.52-0.879 0.026-0.109 0.115-0.35 0.199-0.533 0.196-0.43 0.222-0.564 0.3-1.568 0.036-0.458 0.097-1.234 0.136-1.724 0.090-1.117 0.077-1.167-0.289-1.11-0.549 0.085-0.522 0.047-0.472 0.664 0.041 0.508 0.033 0.564-0.097 0.695-0.294 0.294-0.742 0.083-0.742-0.35 0-0.124-0.019-0.321-0.043-0.438-0.049-0.244-0.115-0.243-0.74 0.012-0.413 0.168-0.38 0.041-0.481 1.819-0.107 1.879-0.094 3.394 0.031 3.636 0.213 0.412 0.74 0.529 1.222 0.271z"></path>
</svg>
