<!-- Generated by IcoMoon.io -->
<svg version="1.1" xmlns="http://www.w3.org/2000/svg" width="33" height="32" viewBox="0 0 33 32">
<title>the_watcher</title>
<path d="M6.698 12.080c-0.029 0.031-0.077 0.032-0.108 0.058-0.018 0.013-0.049 0.076-0.060 0.082-0.046 0.022-0.106 0.012-0.154 0.010-0.067-0.002-0.125-0.015-0.185-0.028-0.004-0.325 0.013-0.672 0.156-0.936 0.1 0.104 0.181 0.218 0.236 0.349 0.069 0.12 0.125 0.238 0.181 0.351-0.016 0.045-0.036 0.084-0.065 0.114zM15.46 18.034c-0.018-0.171-0.082-0.318-0.137-0.476-0.027-0.076-0.079-0.179-0.070-0.263 0.008-0.078 0.052-0.132 0.059-0.214 0.017-0.18 0.020-0.338 0.062-0.518 0.025-0.102 0.059-0.206 0.030-0.312-0.022-0.079-0.076-0.156-0.097-0.244-0.066-0.271-0.223-0.477-0.459-0.589-0.201-0.096-0.343-0.262-0.537-0.357-0.176-0.085-0.241-0.195-0.383-0.318-0.069-0.059-0.135-0.113-0.189-0.186-0.144-0.195-0.243-0.416-0.39-0.611-0.166-0.221-0.343-0.509-0.568-0.676-0.106-0.078-0.249-0.131-0.363-0.2-0.089-0.054-0.164-0.121-0.256-0.178-0.153-0.095-0.284-0.197-0.463-0.237-0.162-0.036-0.326-0.061-0.485-0.115-0.206-0.072-0.425-0.051-0.648-0.051-0.105 0-0.251-0.025-0.355-0.002-0.087 0.018-0.111 0.055-0.215 0.053-0.085-0.001-0.172 0.008-0.257 0.002-0.094-0.004-0.164-0.049-0.258-0.054-0.123-0.008-0.2 0.009-0.31-0.049 0 0-0.001-0.001-0.002-0.001-0.123-0.161-0.281-0.317-0.39-0.457-0.233-0.302-0.466-0.584-0.705-0.878-0.304-0.377-0.639-0.648-0.978-0.991-0.23-0.231-0.385-0.558-0.689-0.689-1.029-0.446-1.457 0.802-1.362 1.76-0.035 0.062-0.057 0.122-0.057 0.173 0.003 0.203 0.013 0.402 0.043 0.598-0.102-0.016-0.203-0.031-0.314-0.031-0.207 0-0.478 0.051-0.651-0.079-0.137-0.102-0.227-0.267-0.383-0.355-0.113-0.065-0.237-0.153-0.368-0.181-0.105-0.022-0.227-0.004-0.336-0.004-0.106 0-0.261-0.004-0.35 0.064-0.076 0.059-0.105 0.216-0.117 0.309-0.046 0.354-0.048 0.705-0.048 1.069 0 0.271-0.035 0.568 0.025 0.832 0.037 0.166 0.067 0.33 0.129 0.487 0.057 0.142 0.077 0.259 0.176 0.381 0.106 0.13 0.176 0.282 0.315 0.386 0.060 0.046 0.255 0.243 0.327 0.178 0.043-0.040 0.007-0.298 0.007-0.354 0-0.051-0.006-0.106-0.001-0.156 0.006-0.054 0.030-0.073 0.042-0.113 0.031-0.111 0.003-0.235 0.010-0.35 0.003-0.062 0.026-0.096 0.042-0.155 0.016-0.060 0-0.12 0.014-0.18 0.028-0.115 0.124-0.35 0.254-0.368 0.088-0.012 0.26 0.076 0.339 0.113 0.177 0.084 0.286 0.23 0.487 0.276 0.154 0.035 0.182 0.102 0.308 0.174 0.197 0.115 0.367 0.37 0.607 0.41-0.148 0.095-0.333 0.111-0.491 0.195-0.071 0.039-0.137 0.091-0.219 0.106-0.070 0.012-0.148-0.016-0.218-0.006-0.097 0.012-0.143 0.069-0.226 0.108-0.078 0.037-0.17 0.067-0.253 0.096-0.132 0.046-0.247 0.117-0.374 0.174-0.12 0.053-0.247 0.067-0.375 0.129-0.096 0.047-0.209 0.107-0.309 0.143-0.166 0.058-0.339 0.112-0.502 0.191-0.191 0.094-0.245 0.357-0.322 0.55-0.049 0.123-0.097 0.288-0.105 0.417-0.006 0.122 0.013 0.244-0.003 0.366-0.013 0.097-0.047 0.179-0.048 0.278-0.001 0.059 0.011 0.119-0.003 0.177-0.028 0.111-0.057 0.19-0.048 0.314 0.007 0.114 0.069 0.224 0.093 0.321 0.013 0.053 0.010 0.099 0.035 0.145 0.016 0.029 0.057 0.048 0.073 0.078 0.060 0.106 0.095 0.22 0.172 0.321 0.071 0.090 0.19 0.16 0.273 0.243 0.223 0.223 0.391 0.474 0.555 0.743 0.173-0.045 0.065-0.384 0.087-0.511 0.019-0.105 0.093-0.208 0.109-0.308 0.010-0.066-0.006-0.13 0.009-0.196 0.003-0.018 0.036-0.035 0.042-0.061 0.022-0.087-0.001-0.22-0.003-0.312-0.001-0.136 0.040-0.232 0.054-0.363 0.013-0.12 0.004-0.19 0.049-0.308 0.042-0.111 0.089-0.22 0.143-0.322 0.070-0.132 0.141-0.269 0.231-0.385 0.119-0.153 0.207-0.184 0.399-0.171 0.111 0.009 0.194 0.055 0.309 0.053 0.087-0.001 0.172 0 0.259 0 0.182 0 0.345 0.004 0.516-0.040 0.105-0.028 0.205-0.022 0.309-0.052 0.125-0.035 0.141-0.022 0.155 0.090 0.029 0.214-0.176 0.226-0.325 0.297-0.166 0.078-0.254 0.22-0.361 0.363-0.059 0.079-0.13 0.142-0.194 0.216-0.107 0.129-0.179 0.28-0.295 0.404-0.137 0.146-0.288 0.283-0.428 0.425-0.075 0.077-0.162 0.122-0.238 0.188-0.001 0.017-0.006 0.032-0.007 0.049 0 0.018-0.011 0.036-0.025 0.054l0.006 0.002c0.017 0.005 0.020 0.016 0.020 0.028 0.005 0.008 0.007 0.014 0.013 0.019 0.003 0.004 0 0.012 0 0.018 0.001 0.002 0.003 0.003 0.003 0.004 0.107 0.415-0.075 0.824 0.010 1.255 0.035 0.171 0.090 0.34 0.161 0.504 0.282 0.203 0.523 0.461 0.761 0.72 0.006-0.001 0.012-0.002 0.018-0.004 0.019 0.017 0.041 0.034 0.062 0.052 0.101 0.093 0.208 0.182 0.32 0.262-0.070-0.034-0.138-0.066-0.207-0.101 0.075 0.081 0.15 0.16 0.229 0.236 0.137 0.134 0.284 0.254 0.433 0.372-0.212-0.41-0.306-0.852-0.38-1.306-0.059-0.37-0.109-0.884 0.059-1.266 0.024-0.125 0.060-0.247 0.112-0.363 0.022-0.026 0.043-0.054 0.070-0.076 0.097-0.079 0.209-0.138 0.296-0.232 0.105-0.114 0.189-0.16 0.318-0.239 0.117-0.072 0.199-0.185 0.32-0.257 0.077-0.047 0.141-0.109 0.216-0.158 0.192-0.045 0.387-0.079 0.562-0.165 0.221-0.108 0.52-0.302 0.675-0.543 0.083-0.018 0.166-0.036 0.244-0.058 0.201-0.054 0.399-0.152 0.597-0.221 0.107-0.037 0.216-0.084 0.312-0.147 0.431 0.109 1.138-0.492 1.284-0.584s0.658-0.379 0.976-0.437c0.236-0.043 0.485-0.017 0.728-0.009 0.19 0.135 0.396 0.235 0.617 0.309 0.138 0.047 0.297 0.041 0.443 0.067 0.119 0.020 0.3 0.026 0.39 0.124 0.082 0.089 0.088 0.372 0.099 0.494 0.017 0.176 0.023 0.355 0.062 0.529 0.031 0.142 0.091 0.261 0.093 0.41 0.002 0.325 0.26 0.683 0.464 0.923 0.153 0.178 0.312 0.307 0.507 0.437 0.085 0.057 0.166 0.142 0.251 0.185 0.090-0.179 0.269-0.189 0.278-0.415 0.009-0.269 0.019-0.575-0.010-0.842z"></path>
<path d="M30.453 13.838c-0.125-0.2-0.225-0.41-0.333-0.62-0.108-0.208-0.236-0.416-0.295-0.646-0.046-0.182-0.079-0.36-0.14-0.538-0.292-0.87-0.624-1.92-1.374-2.523-0.34-0.276-0.711-0.539-1.121-0.703-0.183-0.073-0.375-0.162-0.562-0.223-0.182-0.057-0.315-0.079-0.484-0.185-0.597-0.375-1.228-0.73-1.651-1.315-0.314-0.435-0.325-1.055-0.747-1.417-0.342-0.293-0.71-0.722-0.716-1.203-0.002-0.318 0.279 0.023 0.348 0.104 0.178 0.207 0.5 0.384 0.767 0.45 0.41 0.102 0.817 0.377 1.138 0.639 0.166 0.136 0.349 0.284 0.494 0.443 0.018 0.020 0.030 0.043 0.046 0.064-0.058-0.123-0.115-0.245-0.174-0.368-0.142-0.294-0.326-0.64-0.535-0.891-0.189-0.226-0.481-0.427-0.712-0.611-0.159-0.126-0.351-0.201-0.538-0.281-0.091-0.038-0.184-0.052-0.277-0.085-0.111-0.041-0.202-0.109-0.303-0.172-0.211-0.13-0.426-0.256-0.627-0.399-0.417-0.3-0.765-0.763-1.263-0.935-0.349-0.122-0.669-0.352-1.044-0.409-0.33-0.051-0.65 0.067-0.972 0.112-0.36 0.048-0.507 0.289-0.783 0.49-0.172 0.125-0.345 0.248-0.512 0.38-0.309 0.247-0.579 0.574-0.842 0.308-0.030 0.204-0.054 0.274-0.183 0.443-0.224 0.291-0.391 0.621-0.609 0.915-0.324 0.437-0.671 0.834-1.098 1.167-0.137 0.107-0.288 0.273-0.391 0.415-0.051 0.069-0.060 0.14-0.094 0.215-0.065 0.148-0.176 0.272-0.238 0.426-0.084 0.206-0.233 0.445-0.276 0.66-0.034 0.17-0.049 0.345-0.073 0.516-0.024 0.164-0.054 0.291-0.010 0.45 0.046 0.162 0.135 0.38 0.22 0.529 0.048 0.084 0.126 0.151 0.179 0.232 0.047 0.072 0.062 0.156 0.109 0.225 0.058 0.083 0.17 0.123 0.233 0.202 0.049 0.061 0.081 0.137 0.127 0.203 0.057 0.078 0.114 0.158 0.174 0.232 0.070 0.089 0.154 0.123 0.231 0.196 0.026 0.024 0.016 0.069 0.049 0.097 0.031 0.028 0.081 0.037 0.117 0.058 0.105 0.060 0.16 0.153 0.233 0.244 0.115 0.146 0.172 0.268 0.237 0.446 0.029 0.079 0.079 0.148 0.107 0.225 0.029 0.087 0.049 0.179 0.084 0.268 0.13 0.337 0.324 0.664 0.538 0.952 0.060 0.081 0.12 0.099 0.195 0.172 0.127 0.126 0.176 0.307 0.316 0.423 0.065 0.053 0.134 0.1 0.191 0.155 0.065 0.061 0.088 0.132 0.202 0.101-0.011-0.169-0.203-0.316-0.278-0.467-0.153-0.308-0.312-0.597-0.438-0.915-0.085-0.215-0.188-0.417-0.28-0.628-0.072-0.162-0.159-0.315-0.229-0.477-0.067-0.154-0.156-0.271-0.189-0.44-0.029-0.148-0.054-0.277-0.114-0.415-0.116-0.267-0.167-0.507-0.166-0.804 0.001-0.339-0.023-0.662 0.025-1 0.057-0.383 0.141-0.703 0.319-1.049 0.085-0.167 0.15-0.331 0.221-0.502 0.045-0.105 0.105-0.189 0.148-0.283 0.062-0.134 0.354-0.716 0.573-0.635 0.046 0.017 0.075 0.196 0.081 0.253 0.005 0.058-0.023 0.111-0.040 0.16-0.012 0.038-0.054 0.125-0.071 0.178-0.048 0.162-0.107 0.296-0.129 0.465-0.032 0.242-0.127 0.449-0.161 0.688-0.044 0.325-0.12 0.653-0.147 0.98-0.013 0.168 0.024 0.36 0.046 0.528 0.022 0.177 0.014 0.362 0.053 0.537 0.116 0.516 0.324 1.051 0.673 1.446 0.057 0.065 0.183 0.291 0.283 0.384l0.047-0.428c-0.058-0.22-0.055-0.442-0.062-0.67-0.014-0.45-0.152-0.881-0.165-1.327-0.004-0.178-0.030-0.359-0.029-0.537 0-0.172 0.055-0.36 0.081-0.531 0.088-0.597 0.331-1.264 0.836-1.634 0.202-0.148 0.391-0.375 0.611-0.488 0.094-0.049 0.17-0.045 0.262-0.076 0.091-0.031 0.17-0.097 0.256-0.143 0.076-0.040 0.202-0.077 0.288-0.105 0.102-0.034 0.218-0.102 0.327-0.117 0.337-0.042 0.685-0.001 1.023-0.037 0.271-0.028 0.569 0.031 0.806 0.174 0.114 0.070 0.225 0.162 0.319 0.254 0.118 0.113 0.137 0.261 0.243 0.379 0.149 0.167 0.23 0.389 0.334 0.577 0.1 0.182 0.162 0.373 0.227 0.564 0.037 0.112 0.073 0.196 0.104 0.31 0.039 0.146 0.141 0.271 0.137 0.421-0.002 0.164-0.042 0.301-0.028 0.472 0.006 0.070 0.016 0.13 0.028 0.2 0.004 0.078 0.018 0.155 0.037 0.231 0.041 0.085 0.083 0.171 0.123 0.255 0.051 0.193-0.014 0.41 0.065 0.601 0.053 0.126 0.161 0.265 0.23 0.386 0.085 0.155 0.184 0.319 0.31 0.446 0.127 0.129 0.179 0.277 0.346 0.358 0.374 0.184 0.73 0.402 1.1 0.588 0.574 0.29 1.061 0.61 1.471 1.098 0.091 0.108 0.155 0.239 0.236 0.355 0.158 0.225 0.37 0.445 0.485 0.697 0.070 0.152 0.047 0.26 0.059 0.41 0.023 0.253 0.054 0.469 0.018 0.721-0.028 0.185-0.065 0.345-0.035 0.527 0.031 0.185 0.036 0.423 0.105 0.599 0.028 0.071 0.071 0.12 0.096 0.188 0.030 0.079 0.034 0.164 0.083 0.238 0.061 0.096 0.113 0.183 0.185 0.273 0.082 0.105 0.114 0.2 0.221 0.284 0.154 0.12 0.289 0.236 0.407 0.396 0.102 0.138 0.18 0.291 0.244 0.444 0.082 0.194 0.292 0.478 0.3 0.71 0.009-0.2-0.059-0.397-0.076-0.597-0.022-0.273-0.041-0.537-0.118-0.801-0.031-0.112-0.065-0.211-0.122-0.307-0.054-0.094-0.071-0.062-0.114-0.205-0.067-0.216-0.162-0.415-0.223-0.633-0.084-0.302-0.118-0.559-0.126-0.878-0.013-0.415 0.015-0.857-0.055-1.265-0.035-0.203-0.073-0.417-0.16-0.604-0.088-0.19-0.123-0.405-0.239-0.58-0.13-0.193-0.25-0.45-0.439-0.587-0.191-0.14-0.402-0.251-0.596-0.387-0.26-0.182-0.506-0.419-0.745-0.629-0.265-0.233-0.556-0.435-0.798-0.691-0.363-0.384-0.628-0.907-0.567-1.448 0.093 0.409 0.438 0.954 0.81 1.174 0.179 0.106 0.36 0.102 0.556 0.134 0.199 0.032 0.375 0.114 0.555 0.202 0.152 0.075 0.292 0.13 0.448 0.188 0.308 0.115 0.557 0.386 0.84 0.55 0.13 0.076 0.191 0.2 0.295 0.306 0.153 0.156 0.308 0.286 0.444 0.461 0.166 0.215 0.268 0.462 0.404 0.695 0.132 0.226 0.164 0.445 0.253 0.681 0.1 0.267 0.182 0.605 0.432 0.772 0.102 0.067 0.131 0.042 0.225 0.081 0.036 0.016 0.064 0.037 0.090 0.062-0.099-0.118-0.17-0.274-0.245-0.396z"></path>
<path d="M18.225 9.869c-0.016-0.082-0.162-0.799 0.048-0.771 0.016 0.001 0.046 0.038 0.083 0.095-0.016 0.018-0.027 0.037-0.025 0.055 0.006 0.091 0.138 0.191 0.189 0.273 0.148 0.245 0.23 0.503 0.221 0.787-0.018 0.589-0.166 1.165-0.266 1.742-0.16 0.919 0.414 1.719 1.186 2.153 0.494 0.277 0.905 0.724 1.096 1.263 0.238 0.673 0.041 1.257 0.042 1.938 0 0.289 0.117 0.588 0.265 0.854-0.043-0.045-0.088-0.089-0.131-0.135-0.25-0.259-0.521-0.498-0.713-0.805-0.263-0.419-0.251-0.734-0.288-1.203-0.053-0.676-0.373-1.339-0.801-1.851-0.457-0.547-1.216-1.32-1.193-2.096 0.32-0.041 0.395-0.796 0.402-1.002 0.017-0.441-0.031-0.867-0.114-1.298z"></path>
<path d="M18.029 3.188c0.052-0.065 0.508-0.638 0.622-0.46 0.009 0.013-0.001 0.060-0.020 0.125-0.024 0-0.046 0.004-0.058 0.017-0.066 0.062-0.058 0.228-0.089 0.32-0.093 0.271-0.236 0.499-0.459 0.675-0.462 0.366-0.998 0.623-1.505 0.917-0.806 0.468-1.049 1.423-0.885 2.294 0.105 0.556 0.027 1.157-0.263 1.651-0.361 0.615-0.936 0.841-1.456 1.279-0.221 0.187-0.377 0.468-0.485 0.752 0.005-0.061 0.012-0.124 0.019-0.186 0.036-0.357 0.047-0.719 0.158-1.065 0.15-0.47 0.401-0.664 0.735-0.994 0.485-0.475 0.787-1.146 0.904-1.803 0.125-0.703 0.229-1.782 0.837-2.263 0.237 0.219 0.863-0.209 1.025-0.336 0.35-0.272 0.645-0.582 0.921-0.923z"></path>
<path d="M10.182 11.743c0.162 0.125 0.324 0.203 0.523 0.256 0.216 0.058 0.415 0.136 0.627 0.212 0.218 0.078 0.479 0.087 0.706 0.097 0.215 0.010 0.42 0.122 0.613 0.211 0.126 0.058 0.229 0.118 0.327 0.214 0.194 0.189 0.451 0.392 0.596 0.622 0.037 0.059 0.060 0.129 0.1 0.191 0.070 0.108 0.159 0.197 0.237 0.302 0.134 0.175 0.272 0.402 0.438 0.539 0.067 0.057 0.114 0.096 0.199 0.136 0.194 0.094 0.291 0.213 0.435 0.359 0.079 0.082 0.135 0.131 0.197 0.232 0.119 0.195 0.344 0.413 0.369 0.641 0.013 0.114-0.027 0.212 0.029 0.319 0.047 0.089 0.135 0.139 0.18 0.233 0.033 0.070 0.041 0.141 0.060 0.213 0.033 0.117 0.025 0.214 0.045 0.332 0.027 0.162 0.101 0.316 0.137 0.476 0.034 0.149 0.049 0.302 0.076 0.452 0.077 0.439 0.033 0.897 0.038 1.343 0.001 0.084 0.010 0.172-0.009 0.255-0.029 0.129-0.114 0.237-0.14 0.368-0.022 0.108-0.004 0.235-0.004 0.342-0.002 0.166-0.042 0.284-0.107 0.431-0.066 0.145-0.102 0.298-0.141 0.453-0.051 0.209-0.041 0.413-0.076 0.621-0.095 0.567-0.105 1.139-0.183 1.709-0.055 0.397-0.011 0.825-0.013 1.225-0.004 0.367 0.060 0.764 0.142 1.12 0.109 0.478 0.047 0.896-0.047 1.367-0.087 0.433-0.532 0.687-0.716 1.078-0.094 0.198-0.118 0.433-0.178 0.641-0.060 0.206-0.078 0.366-0.077 0.581 0 0.125-0.010 0.256-0.001 0.38 0.008 0.106 0.047 0.201 0.064 0.306 0.042-0.005 0.088-0.315 0.12-0.38 0.042-0.081 0.091-0.126 0.113-0.219 0.022-0.083 0.032-0.148 0.076-0.224 0.042-0.070 0.087-0.125 0.109-0.206 0.022-0.076 0.022-0.158 0.062-0.227 0.125-0.212 0.368-0.367 0.539-0.544 0.088-0.091 0.15-0.2 0.237-0.291 0.109-0.117 0.172-0.168 0.214-0.325 0.049-0.179 0.057-0.338 0.064-0.523 0.005-0.159 0.055-0.306 0.053-0.466-0.003-0.344 0.002-0.688-0.001-1.032-0.003-0.206 0.052-0.399 0.055-0.605 0.002-0.236-0.003-0.454 0.037-0.686 0.038-0.22 0.023-0.481 0.009-0.703 0.054 0.123 0.157 0.219 0.212 0.346 0.071 0.162 0.101 0.338 0.102 0.513 0.001 0.251 0.016 0.481 0.046 0.728 0.022 0.177 0.024 0.392 0 0.568-0.081 0.585-0.052 1.186-0.16 1.762-0.022 0.113-0.076 0.25-0.131 0.353-0.060 0.112-0.138 0.184-0.171 0.31-0.027 0.104-0.040 0.16-0.101 0.255-0.064 0.1-0.117 0.191-0.143 0.31-0.054 0.243-0.093 0.496-0.065 0.748 0.012 0.113 0.070 0.148 0.126 0.231 0.034 0.049 0.049 0.199 0.124 0.202 0.062-0.195-0.008-0.412 0.064-0.616 0.071-0.207 0.164-0.415 0.254-0.616 0.093-0.206 0.161-0.43 0.271-0.628 0.123-0.224 0.32-0.408 0.456-0.63 0.124-0.205 0.199-0.404 0.286-0.624 0.087-0.216 0.18-0.415 0.216-0.647 0.028-0.185 0.009-0.38 0.011-0.567 0.001-0.348-0.059-0.697-0.142-1.035-0.034-0.136-0.042-0.276-0.075-0.41-0.044-0.192-0.17-0.366-0.22-0.561-0.065-0.253-0.111-0.504-0.069-0.767 0.048-0.294 0.036-0.581 0.236-0.823 0.093 0.276-0.064 0.589 0.076 0.861 0.055 0.109 0.122 0.202 0.172 0.314 0.034 0.077 0.094 0.141 0.129 0.215 0.045 0.097 0.040 0.166 0.059 0.269 0.043 0.237 0.134 0.461 0.171 0.7 0.036 0.237 0.087 0.478 0.117 0.716 0.031 0.247 0.010 0.503 0.010 0.752 0 0.154 0.025 0.33-0.011 0.48-0.029 0.119-0.035 0.206-0.038 0.333-0.005 0.15-0.062 0.3-0.118 0.44-0.045 0.114-0.1 0.188-0.094 0.315 0.005 0.143 0.061 0.278 0.12 0.404 0.070 0.149 0.244 0.333 0.402 0.397 0.108 0.045 0.211 0.075 0.318 0.131 0.078 0.041 0.293 0.191 0.386 0.15-0.084-0.118-0.149-0.229-0.216-0.358-0.062-0.123-0.146-0.209-0.183-0.342-0.075-0.268-0.048-0.574-0.087-0.848-0.031-0.226-0.066-0.432-0.066-0.662 0.001-0.467 0.054-0.935 0.118-1.398 0.031-0.229 0.037-0.448 0.037-0.677 0-0.131 0.009-0.265 0.003-0.396-0.007-0.174-0.062-0.315-0.095-0.486-0.033-0.164-0.036-0.336-0.072-0.498-0.035-0.16-0.138-0.288-0.185-0.44-0.057-0.179-0.088-0.362-0.167-0.535-0.043-0.095-0.093-0.173-0.124-0.272-0.033-0.101-0.038-0.201-0.082-0.298-0.146-0.322-0.207-0.646-0.279-0.991-0.037-0.173-0.028-0.337-0.028-0.511 0-0.267-0.108-0.498-0.185-0.747-0.070-0.224-0.097-0.447-0.177-0.669-0.106-0.296-0.211-0.603-0.29-0.908-0.052-0.202-0.043-0.409-0.083-0.611-0.065-0.336-0.185-0.668-0.304-0.988-0.137-0.362-0.309-0.719-0.42-1.090-0.065-0.223-0.171-0.413-0.286-0.614-0.118-0.204-0.209-0.423-0.33-0.624-0.101-0.172-0.207-0.34-0.307-0.513-0.159-0.271-0.361-0.477-0.581-0.698-0.172-0.172-0.29-0.293-0.501-0.41-0.244-0.136-0.467-0.304-0.717-0.43-0.313-0.156-0.7-0.314-1.042-0.404-0.147-0.038-0.309-0.107-0.46-0.119-0.122-0.011-0.216-0.012-0.338-0.036-0.077-0.015-0.158-0.011-0.233-0.022-0.123-0.018-0.236-0.075-0.357-0.091-0.162-0.022-0.312 0-0.466 0.049-0.135 0.043-0.271 0.055-0.407 0.089-0.138 0.035-0.276 0.096-0.415 0.119-0.107 0.017-0.12 0.031-0.191 0.115-0.057 0.067-0.112 0.135-0.166 0.206-0.064 0.083-0.269 0.33-0.395 0.292 0.104 0.125 0.134 0.303 0.29 0.381 0.105 0.053 0.278 0.123 0.39 0.135 0.132 0.014 0.123-0.051 0.215-0.113 0.046-0.032 0.058-0.029 0.109-0.040 0.218-0.044 0.511 0.001 0.111-0.256z"></path>
<path d="M9.924 16.954c-0.087 0.018-0.212 0.197-0.248 0.268-0.037 0.071-0.046 0.162-0.075 0.237-0.028 0.072-0.076 0.136-0.093 0.212-0.042 0.18 0.004 0.443 0.001 0.63-0.002 0.268 0.087 0.506 0.101 0.764 0.015 0.231 0.164 0.408 0.224 0.619 0.051 0.177 0.104 0.353 0.177 0.517 0.101 0.229 0.231 0.442 0.327 0.675 0.089 0.215 0.094 0.448 0.164 0.668 0.032 0.101 0.078 0.185 0.091 0.289 0.018 0.132 0.051 0.209 0.104 0.337 0.109 0.261 0.070 0.494 0.112 0.758 0.043 0.268 0.184 0.57 0.135 0.843-0.045 0.243-0.017 0.474-0.037 0.718-0.020 0.23-0.111 0.497-0.171 0.722-0.055 0.207-0.179 0.378-0.297 0.555-0.084 0.126-0.171 0.245-0.259 0.367-0.099 0.14-0.148 0.322-0.216 0.479-0.097 0.226-0.233 0.413-0.286 0.659-0.037 0.172-0.085 0.345-0.117 0.514-0.025 0.127 0 0.299 0.028 0.415 0.014 0.058 0.032 0.125 0.057 0.185 0.028 0.069 0.058 0.18 0.104 0.235-0.14-0.062-0.238-0.309-0.3-0.434-0.073-0.149-0.177-0.28-0.247-0.433-0.073-0.159-0.153-0.307-0.155-0.479-0.001-0.145-0.007-0.295 0-0.44 0.006-0.143 0.048-0.304 0.090-0.442 0.044-0.141 0.053-0.288 0.117-0.411 0.13-0.256 0.029-0.605-0.012-0.871-0.072 0.010-0.041 0.143-0.040 0.205 0.002 0.14 0.010 0.225-0.077 0.334-0.115 0.146-0.195 0.314-0.306 0.462-0.104 0.138-0.114 0.263-0.171 0.41-0.077 0.197-0.065 0.372-0.066 0.583 0.006-0.185-0.062-0.336-0.093-0.517-0.025-0.149 0.004-0.3-0.022-0.448-0.060-0.34-0.141-0.689-0.143-1.039-0.001-0.17 0.022-0.302 0.116-0.45 0.060-0.095 0.131-0.164 0.181-0.267 0.049-0.101 0.091-0.219 0.168-0.299 0.075-0.079 0.132-0.142 0.2-0.238 0.097-0.138 0.186-0.215 0.226-0.39 0.036-0.156 0.081-0.312 0.115-0.468 0.079-0.354 0.024-0.765 0.025-1.126 0.003-0.402-0.054-0.807-0.153-1.197-0.053-0.213-0.135-0.417-0.195-0.628-0.047-0.162-0.048-0.472-0.158-0.594-0.054 0.174 0.013 0.363-0.058 0.545-0.061 0.159-0.176 0.305-0.206 0.475-0.043 0.243 0.070 0.541-0.016 0.772-0.075-0.019-0.041-0.193-0.051-0.261-0.028-0.185-0.070-0.365-0.091-0.547-0.039-0.316-0.226-0.591-0.262-0.905-0.013-0.117 0.020-0.235-0.010-0.349-0.024-0.096-0.040-0.155-0.040-0.259 0-0.118 0.016-0.199 0.040-0.312 0.019-0.084 0.006-0.167 0.024-0.253 0.045-0.215 0.125-0.332 0.297-0.47 0.075-0.059 0.176-0.153 0.259-0.194 0.065-0.034 0.156-0.042 0.227-0.067 0.118-0.042 0.294-0.085 0.391-0.178 0.16-0.152 0.266-0.331 0.568-0.486z"></path>
<path d="M25.515 14.978c0.002 0.011 0.004 0.022 0.008 0.034-0.077-0.353-0.263-0.776-0.138-1.118 0.050-0.139 0.070-0.173 0.218-0.202 0.099-0.020 0.241-0.085 0.336-0.024 0.135 0.088 0.256 0.339 0.333 0.48 0.081 0.143 0.090 0.35 0.125 0.51 0.041 0.189 0.083 0.377 0.124 0.566 0.075 0.336 0.141 0.642 0.288 0.954 0.077 0.161 0.173 0.313 0.25 0.473 0.051 0.108 0.109 0.215 0.155 0.326 0.023 0.057 0.023 0.128 0.051 0.178 0.035 0.062 0.112 0.094 0.159 0.149 0.055 0.066 0.094 0.14 0.154 0.203 0.125 0.135 0.194 0.306 0.321 0.435 0.089 0.091 0.202 0.149 0.302 0.226 0.119 0.093 0.207 0.22 0.307 0.332 0.16 0.177 0.304 0.347 0.437 0.543 0.147 0.218 0.353 0.392 0.509 0.604 0.151 0.204 0.237 0.369 0.29 0.611 0.026 0.124 0.042 0.259 0.079 0.378 0.025 0.079 0.091 0.142 0.106 0.223-0.035-0.136-0.061-0.274-0.091-0.412-0.046-0.215-0.134-0.405-0.19-0.615-0.058-0.22-0.132-0.432-0.194-0.651-0.058-0.205-0.167-0.338-0.273-0.521-0.091-0.158-0.229-0.261-0.319-0.419-0.071-0.126-0.168-0.227-0.26-0.34-0.153-0.19-0.315-0.377-0.456-0.58-0.149-0.215-0.254-0.466-0.36-0.704-0.149-0.335-0.256-0.657-0.336-1.014-0.055-0.251-0.104-0.493-0.201-0.728-0.049-0.118-0.054-0.243-0.089-0.363-0.049-0.17-0.126-0.379-0.2-0.537-0.076-0.161-0.13-0.38-0.254-0.513-0.085-0.090-0.197-0.174-0.288-0.266-0.085-0.087-0.196-0.138-0.294-0.213-0.174-0.134-0.305-0.166-0.512-0.089-0.128 0.046-0.262 0.177-0.35 0.276-0.202 0.227-0.189 0.533-0.245 0.795-0.015 0.064-0.024 0.127-0.037 0.192-0.011 0.045-0.036 0.106-0.036 0.15 0 0.070 0.024 0.143 0.023 0.209-0.002 0.060-0.031 0.139-0.032 0.196 0 0.316 0.153 0.673 0.351 0.895 0.209 0.233 0.468 0.444 0.538 0.764-0.042-0.192-0.104-0.385-0.116-0.581-0.011-0.158-0.024-0.291-0.058-0.447-0.022-0.097-0.028-0.241-0.070-0.331-0.028-0.060-0.104-0.125-0.064-0.036z"></path>
<path d="M22.597 16.524c0.024 0.048 0.077 0.117 0.091 0.166 0.023 0.075 0.005 0.147 0.010 0.225 0.006 0.115 0.052 0.218 0.055 0.333 0.001 0.085-0.001 0.171-0.001 0.256 0 0.077 0.003 0.155 0 0.232-0.004 0.082-0.026 0.109-0.054 0.178-0.022 0.059-0.043 0.143-0.051 0.207-0.008 0.065 0.039 0.19-0.038 0.203-0.022-0.066-0.010-0.13-0.011-0.198-0.003-0.134-0.050-0.255-0.055-0.389-0.001-0.076-0.005-0.117-0.023-0.182-0.020-0.075-0.013-0.153-0.031-0.232-0.011-0.053-0.044-0.161-0.071-0.209-0.048-0.088-0.060-0.071-0.155-0.076-0.152-0.005-0.216 0.038-0.31 0.154-0.076 0.093-0.116 0.25-0.13 0.362-0.022 0.165-0.001 0.352 0.001 0.52 0.002 0.142 0.043 0.263 0.051 0.409 0.006 0.146 0.062 0.33 0.102 0.468 0.028 0.093 0.102 0.179 0.143 0.268 0.071 0.153 0.138 0.309 0.218 0.451 0.173 0.308 0.368 0.634 0.363 1.006-0.002 0.198-0.002 0.397 0 0.596 0 0.061 0.013 0.135-0.011 0.192-0.030 0.071-0.072 0.107-0.093 0.191-0.042 0.178-0.129 0.331-0.167 0.514-0.042 0.195-0.091 0.362-0.090 0.556 0 0.15-0.010 0.303-0.001 0.454 0.006 0.111 0.044 0.312 0.115 0.401 0.069 0.087 0.18 0.125 0.259 0.205 0.1 0.102 0.213 0.153 0.284 0.273 0.081 0.135 0.093 0.251-0.115 0.201-0.172-0.042-0.31-0.179-0.444-0.284-0.087-0.070-0.119-0.117-0.177-0.205-0.029-0.046-0.093-0.093-0.118-0.137-0.020-0.040-0.038-0.15-0.049-0.196-0.018-0.072-0.036-0.122-0.058-0.185-0.055-0.17-0.109-0.307-0.108-0.485 0-0.166-0.053-0.304-0.052-0.464 0.002-0.298 0.165-0.519 0.245-0.786 0.044-0.146 0.067-0.307 0.104-0.452 0.038-0.154 0.073-0.302 0.065-0.464-0.018-0.338-0.225-0.658-0.332-0.978-0.144-0.432-0.307-0.825-0.522-1.227-0.055-0.103-0.057-0.19-0.081-0.298-0.018-0.077-0.067-0.154-0.087-0.231-0.049-0.203-0.012-0.464-0.012-0.674 0-0.115-0.025-0.259 0.008-0.372 0.018-0.058 0.073-0.104 0.099-0.155 0.029-0.058 0.030-0.112 0.054-0.169 0.051-0.124 0.156-0.342 0.302-0.387 0.161-0.052 0.302 0.077 0.427 0.143 0.066 0.035 0.132 0.079 0.193 0.115 0.057 0.034 0.126 0.117 0.2 0.108 0.032 0.125-0.022 0.242 0.060 0.048z"></path>
</svg>
