<!-- Generated by IcoMoon.io -->
<svg version="1.1" xmlns="http://www.w3.org/2000/svg" width="32" height="32" viewBox="0 0 32 32">
<title>the_forgotten_age</title>
<path d="M13.766 27.616c-0.355-0.158-0.654-0.224-1.091-0.243-1.254-0.053-3.767-0.927-4.968-1.727-0.163-0.109-0.503-0.287-0.756-0.398-0.553-0.241-0.976-0.672-1.991-2.029-0.268-0.358-0.752-1.273-0.805-1.52-0.028-0.129-0.124-0.359-0.215-0.511s-0.212-0.434-0.271-0.627c-0.096-0.316-0.096-0.382-0.002-0.652 0.058-0.165 0.087-0.388 0.065-0.495-0.034-0.164 0.005-0.237 0.243-0.468 0.266-0.257 0.283-0.297 0.282-0.657-0.001-0.604-0.104-0.855-0.519-1.258-0.244-0.236-0.372-0.416-0.369-0.516 0.012-0.469 0.132-0.823 0.421-1.246 0.726-1.064 0.812-1.244 0.812-1.714 0-0.376 0.042-0.523 0.309-1.078 0.17-0.353 0.309-0.669 0.309-0.703s0.101-0.19 0.223-0.348c0.29-0.374 0.559-0.774 0.746-1.108 0.171-0.306 0.732-0.838 0.886-0.84 0.209-0.002 0.556-0.277 0.761-0.603 0.27-0.429 0.459-0.557 1.201-0.813 0.332-0.114 0.668-0.247 0.746-0.295s0.327-0.107 0.553-0.131c0.226-0.024 0.693-0.116 1.038-0.203s0.81-0.18 1.033-0.205c0.222-0.025 0.575-0.086 0.782-0.135s0.61-0.124 0.893-0.166c0.283-0.042 0.753-0.124 1.043-0.183 0.722-0.147 1.51-0.093 1.958 0.134 1.063 0.538 1.527 0.715 2.131 0.815 0.449 0.074 0.819 0.191 1.275 0.402 0.354 0.164 0.837 0.347 1.074 0.407s0.586 0.169 0.775 0.242c0.599 0.231 1.654 0.881 2.117 1.303 0.246 0.225 0.697 0.594 1.004 0.822 0.592 0.439 0.92 0.772 0.92 0.933 0 0.054 0.064 0.221 0.142 0.37 0.176 0.338 0.257 0.785 0.345 1.905 0.167 2.131 0.178 2.218 0.354 2.686 0.097 0.259 0.244 0.621 0.325 0.806 0.276 0.622 0.338 0.982 0.28 1.612-0.046 0.489-0.087 0.628-0.26 0.867-0.113 0.157-0.226 0.395-0.252 0.53s-0.084 0.268-0.13 0.297c-0.154 0.096-0.647 0.789-0.726 1.019-0.043 0.126-0.078 0.332-0.078 0.459 0 0.189-0.073 0.307-0.397 0.645-0.218 0.228-0.514 0.585-0.657 0.794s-0.526 0.602-0.85 0.873c-0.325 0.271-0.889 0.765-1.254 1.097-0.899 0.819-1.223 0.983-2.061 1.048-0.36 0.028-0.717 0.070-0.793 0.093s0.234-0.148 0.688-0.381c0.964-0.496 1.337-0.738 1.987-1.293 1.206-1.030 1.604-1.532 1.996-2.522 0.11-0.277 0.251-0.579 0.314-0.672s0.138-0.243 0.167-0.336c0.029-0.092 0.080-0.203 0.115-0.245 0.275-0.338 0.523-2.443 0.448-3.817-0.037-0.686-0.204-1.349-0.678-2.686-0.808-2.283-1.697-3.411-3.354-4.257-0.208-0.106-0.724-0.389-1.147-0.628-1.016-0.575-2.188-0.969-3.353-1.128-0.302-0.041-0.724-0.118-0.937-0.171-0.36-0.089-0.883-0.13-0.883-0.070 0 0.238 0.638 1.034 0.91 1.136 0.058 0.022 0.036 0.069-0.068 0.144-0.305 0.22-0.382 0.478-0.33 1.103 0.026 0.314 0.087 0.664 0.136 0.777 0.127 0.293 1.045 1.397 1.247 1.501 0.168 0.086 0.167 0.137-0.005 0.349-0.224 0.275-0.447 1.018-0.447 1.49 0 0.855 0.451 2.221 1.156 3.501l0.252 0.458-0.343 0.307c-1.025 0.917-1.484 1.389-1.724 1.774-0.266 0.425-0.268 0.434-0.291 1.217-0.017 0.597 0.004 0.868 0.089 1.118l0.112 0.33-0.315 0.292c-0.234 0.217-0.359 0.41-0.484 0.748-0.093 0.251-0.169 0.538-0.17 0.638-0.001 0.234-0.167 0.7-0.227 0.641-0.026-0.025-0.046-0.143-0.046-0.263 0-0.317-0.358-1.047-0.675-1.376-0.415-0.431-0.475-0.569-0.318-0.738 0.281-0.304 0.168-1.713-0.223-2.764-0.217-0.583-0.63-1.202-0.884-1.327-0.111-0.054-0.211-0.104-0.223-0.112s0.085-0.165 0.216-0.352c0.183-0.261 0.287-0.536 0.449-1.198 0.263-1.069 0.332-1.94 0.218-2.743-0.105-0.739-0.292-1.187-0.597-1.433l-0.233-0.187 0.318-0.196c0.335-0.206 1.012-0.984 1.398-1.607 0.384-0.619 0.356-1.201-0.080-1.686l-0.208-0.232 0.125-0.27c0.068-0.149 0.22-0.334 0.336-0.411 0.279-0.186 0.726-0.602 0.726-0.675 0-0.063-1.118-0.026-1.511 0.050-0.782 0.15-1.099 0.309-1.601 0.803-0.701 0.689-1.654 1.449-1.817 1.449-0.218 0-0.832 0.194-1.348 0.426-0.582 0.261-0.832 0.545-1.16 1.32-0.765 1.805-1.018 2.27-1.659 3.049-0.21 0.255-0.395 0.512-0.412 0.571-0.161 0.559-0.325 1.362-0.387 1.887-0.041 0.351-0.115 0.791-0.164 0.978-0.077 0.298-0.073 0.4 0.039 0.821 0.070 0.264 0.209 0.655 0.308 0.869s0.206 0.533 0.237 0.711c0.039 0.221 0.178 0.499 0.439 0.879 0.21 0.306 0.488 0.765 0.618 1.020 0.377 0.743 1.67 1.888 2.545 2.253 0.113 0.047 0.386 0.203 0.607 0.347s0.531 0.317 0.691 0.386c0.16 0.069 0.348 0.187 0.417 0.262s0.161 0.137 0.202 0.137c0.041 0 0.261 0.091 0.487 0.201 0.264 0.129 0.518 0.201 0.706 0.201 0.162 0 0.471 0.057 0.687 0.126s0.555 0.143 0.754 0.165c0.199 0.021 0.415 0.070 0.481 0.107 0.229 0.13-0.615 0.079-0.919-0.056zM18.893 27.207c-0.082-0.052-0.067-0.065 0.069-0.067 0.095-0.001 0.295-0.019 0.447-0.039 0.185-0.025 0.241-0.017 0.172 0.026-0.168 0.103-0.576 0.15-0.687 0.080zM29.201 20.412c-0.002-0.025 0.031-0.131 0.073-0.235 0.183-0.451 0.269-0.924 0.34-1.867 0.080-1.059 0.071-1.135-0.25-2.116-0.054-0.166-0.099-0.468-0.1-0.672-0.001-0.243-0.061-0.507-0.176-0.772-0.096-0.222-0.199-0.479-0.229-0.571s-0.148-0.364-0.262-0.604c-0.114-0.24-0.294-0.693-0.4-1.007-0.189-0.561-0.385-0.873-0.549-0.873-0.146 0-0.886-0.833-1.091-1.228-0.378-0.731-1.222-1.581-2.050-2.063-0.218-0.127-0.491-0.315-0.605-0.418s-0.261-0.186-0.326-0.186c-0.173 0-1.035-0.507-1.352-0.795-0.637-0.579-1.282-0.957-2.216-1.298-0.199-0.073-0.447-0.202-0.55-0.286s-0.389-0.256-0.634-0.381l-0.447-0.227-1.408-0.021c-1.397-0.021-1.412-0.020-1.802 0.155-0.217 0.097-0.412 0.205-0.433 0.239s-0.394 0.063-0.826 0.063c-0.855 0-1.018 0.048-1.781 0.527-0.411 0.258-0.804 0.371-1.1 0.317-0.124-0.023-0.342 0.002-0.504 0.059-0.321 0.111-1.273 0.655-1.5 0.858-0.111 0.099-0.303 0.147-0.756 0.188-0.651 0.059-1.030 0.149-1.202 0.284-0.059 0.046-0.277 0.311-0.484 0.588s-0.652 0.756-0.989 1.065c-0.916 0.839-1.73 1.744-1.932 2.147-0.108 0.215-0.244 0.383-0.34 0.418-0.123 0.046-0.161 0.112-0.162 0.28-0.001 0.221-0.171 0.722-0.514 1.522-0.107 0.25-0.204 0.634-0.232 0.921-0.026 0.271-0.065 0.509-0.087 0.53s-0.057-0.162-0.081-0.405c-0.043-0.454 0.002-0.7 0.291-1.567 0.079-0.236 0.143-0.498 0.143-0.583 0-0.234 0.115-0.485 0.453-0.986 0.169-0.25 0.337-0.532 0.373-0.627s0.142-0.268 0.233-0.385 0.246-0.369 0.343-0.559c0.097-0.19 0.299-0.49 0.449-0.667s0.292-0.415 0.317-0.528c0.024-0.113 0.1-0.266 0.168-0.34s0.17-0.244 0.226-0.378c0.080-0.19 0.187-0.284 0.485-0.426 0.21-0.101 0.418-0.225 0.462-0.277s0.167-0.094 0.274-0.094c0.107 0 0.22-0.045 0.252-0.101 0.076-0.133 0.556-0.369 0.75-0.369 0.085 0 0.178-0.040 0.209-0.090 0.078-0.128 0.803-0.447 1.014-0.447 0.098 0 0.362-0.091 0.586-0.201 0.254-0.125 0.514-0.201 0.687-0.201 0.287 0 0.961-0.283 0.961-0.403 0-0.036 0.104-0.108 0.232-0.16s0.253-0.128 0.279-0.169c0.026-0.041 0.118-0.074 0.206-0.074s0.31-0.066 0.494-0.146c0.243-0.106 0.505-0.152 0.953-0.167 0.34-0.012 0.788-0.053 0.996-0.092s0.702-0.099 1.099-0.133c0.397-0.035 0.927-0.082 1.179-0.105 0.363-0.034 0.548-0.014 0.893 0.096 0.33 0.105 0.586 0.135 1.054 0.125 0.56-0.012 0.65 0.004 0.949 0.169 0.182 0.1 0.563 0.246 0.848 0.324 0.564 0.155 1.224 0.463 1.61 0.753 0.136 0.102 0.302 0.185 0.369 0.185s0.223 0.060 0.345 0.134c0.122 0.074 0.381 0.164 0.575 0.2 0.405 0.075 0.664 0.243 0.982 0.633 0.458 0.564 1.003 1.077 1.615 1.522 0.384 0.279 0.832 0.69 1.145 1.050 0.283 0.325 0.712 0.762 0.953 0.97 0.446 0.385 0.878 1.039 0.878 1.329 0 0.165 0.361 0.951 0.568 1.237 0.145 0.201 0.392 1.244 0.393 1.663 0 0.134 0.049 0.376 0.109 0.537 0.158 0.428 0.159 3.518 0.002 4.173-0.092 0.382-0.441 1.19-0.451 1.044zM2.286 15.522c0-0.166 0.013-0.234 0.030-0.151s0.016 0.219 0 0.302-0.030 0.015-0.030-0.151z"></path>
</svg>
