<!-- Generated by IcoMoon.io -->
<svg version="1.1" xmlns="http://www.w3.org/2000/svg" width="33" height="32" viewBox="0 0 33 32">
<title>the_bayou</title>
<path d="M6.572 28.908c0-2.086 6.297-3.26 11.162-2.086 3.218 0.78 6.315 0.708 7.965-0.176 1.618-0.868 1.773-0.888 1.517-0.226-0.67 1.752-6.955 2.439-12.478 1.362-2.757-0.536-4.7-0.281-7.155 0.943-0.558 0.276-1.010 0.359-1.010 0.183zM3.421 25.070c0.376-0.238 1.119-0.779 1.646-1.194 2.816-2.229 10.68-3.13 14.45-1.651 0.579 0.226 2.292 0.515 3.805 0.645 2.418 0.206 2.67 0.294 2.079 0.725-0.796 0.582-4.362 0.624-8.032 0.096-5.497-0.796-7.354-0.833-8.653-0.18-2.651 1.337-6.942 2.598-5.295 1.559zM4.393 19.862c1.374-1.42 2.51-1.861 5.656-2.187 3.62-0.378 6.042-2.275 6.038-4.735 0-0.993-1.324-3.13-1.935-3.13-0.268 0-0.804-0.239-1.195-0.532-0.64-0.483-0.574-0.499 0.696-0.16 1.847 0.499 2.434 0.226 2.434-1.127 0-1.429 1.002-1.517 1.165-0.1 0.134 1.165 1.71 1.533 3.658 0.855 0.998-0.349 0.927-0.219-0.763 1.366-5.539 5.2 2.712 11.795 8.669 6.93 1.094-0.897 0.747 0.121-0.44 1.269-2.33 2.263-4.315 2.518-10.349 1.341-5.045-0.984-9.243-0.804-12.574 0.541l-2.275 0.918zM21.63 13.653c-0.004-1.53 0.059-1.697 0.382-1.039 0.264 0.549 0.264 1.114 0.004 1.831-0.353 0.96-0.382 0.897-0.386-0.792zM12.337 13.715c-0.435-1.064-0.348-2.66 0.118-2.191 0.218 0.215 0.339 0.947 0.276 1.626-0.092 0.96-0.18 1.086-0.394 0.565zM23.764 13.644c-0.365-0.44-0.373-0.868-0.046-1.965 1.089-3.633 0.398-5.162-2.33-5.162-1.538 0-1.626-0.842-0.109-1.026 2.51-0.297 4.776 3.964 3.734 7.022-0.65 1.915-0.621 1.886-1.249 1.132zM10.376 13.552c-0.226-0.143-0.683-0.8-1.018-1.458-1.383-2.694 1.873-7.714 3.997-6.16 0.595 0.432 0.52 0.507-0.774 0.747-2.305 0.431-3.147 2.418-1.961 4.638 0.498 0.921 0.314 2.598-0.243 2.233zM16.305 4.376c-0.372-0.603 0.788-1.747 1.283-1.257 0.352 0.349 0.348 0.562-0.022 1.006-0.523 0.629-0.972 0.721-1.261 0.251z"></path>
</svg>
