<!-- Generated by IcoMoon.io -->
<svg version="1.1" xmlns="http://www.w3.org/2000/svg" width="32" height="32" viewBox="0 0 32 32">
<title>the_untamed_wilds</title>
<path d="M10.777 28.275c-0.633-0.269-0.884-0.692-0.884-1.485 0-0.95 0.972-1.687 1.097-0.832 0.026 0.177 0.209 0.454 0.406 0.613 0.691 0.56 2.402 0.245 2.582-0.475 0.207-0.825-0.052-0.894-3.339-0.894-3.425 0-3.143 0.107-3.983-1.503-0.274-0.525-0.779-1.483-1.121-2.129-0.543-1.024-0.622-1.317-0.622-2.302 0-1.238 0.285-1.867 0.845-1.867 0.262 0 0.297 0.059 0.172 0.293-0.324 0.606 0.071 1.606 1.386 3.508l1.298 1.877 1.371-0.114c0.754-0.063 2.069-0.060 2.921 0.008 1.444 0.113 1.586 0.157 2.075 0.646 0.289 0.289 0.603 0.819 0.699 1.179 0.185 0.693 0.328 3.313 0.187 3.438-0.046 0.041-1.091 0.117-2.324 0.169-1.686 0.071-2.371 0.039-2.767-0.13zM17.942 28.366l-1.494-0.093-0.048-1.483c-0.039-1.209 0.017-1.644 0.307-2.359 0.505-1.243 0.631-1.312 2.298-1.254 0.785 0.027 2.2 0.001 3.145-0.059 1.697-0.107 1.722-0.115 1.992-0.61 0.15-0.276 0.443-0.711 0.652-0.968 0.848-1.043 1.53-2.38 1.53-3 0-0.342-0.075-0.669-0.166-0.725-0.318-0.197-0.163-0.415 0.295-0.415 1.001 0 1.505 0.839 1.285 2.141-0.059 0.352-0.437 1.191-0.838 1.864s-0.891 1.56-1.088 1.97-0.539 0.99-0.761 1.286l-0.403 0.539h-2.373c-2.519 0-3.313 0.156-3.609 0.71-0.262 0.49 0.201 0.778 1.301 0.809 0.485 0.014 0.966 0.032 1.070 0.041s0.272-0.119 0.373-0.284c0.147-0.24 0.12-0.348-0.138-0.539-0.31-0.23-0.307-0.239 0.095-0.239 0.533 0 1.139 0.64 1.139 1.202 0 0.265-0.218 0.665-0.559 1.027-0.621 0.659-0.558 0.652-4.005 0.437zM10.829 22.256c0.078-0.251 0.14-1.365 0.137-2.476l-0.007-2.020 0.483-0.097c0.266-0.053 0.767-0.097 1.115-0.097 0.768 0 0.905 0.291 0.743 1.586-0.159 1.274-1.667 3.559-2.348 3.559-0.215 0-0.239-0.089-0.124-0.456zM20.399 22.090c-0.225-0.251-0.668-1.032-0.983-1.735-0.498-1.11-0.56-1.387-0.465-2.098l0.109-0.819 0.686 0.073c0.378 0.040 0.91 0.107 1.184 0.148l0.498 0.075 0.031 2.406c0.030 2.325 0.019 2.406-0.31 2.406-0.187 0-0.525-0.205-0.75-0.456zM10.775 17.188c-0.069-0.111-0.141-0.304-0.16-0.43s-0.098-0.293-0.176-0.371c-0.078-0.078-1.5-0.031-3.176 0.105-2.204 0.179-3.126 0.197-3.369 0.067-0.655-0.35-1.044-2.052-0.641-2.804 0.214-0.4 1.192-1 1.63-1 0.41 0 0.687 0.362 0.361 0.471-0.482 0.161-0.993 0.851-0.993 1.341 0 1.178 1.761 1.12 4.228-0.138 1.758-0.897 2.314-0.994 3.905-0.685 0.891 0.173 1.754-0.153 2.035-0.77 0.152-0.333 0.112-0.461-0.265-0.854-0.566-0.591-0.557-0.693 0.063-0.693 1.273 0 1.817 0.767 1.817 2.56 0 1.482-0.27 1.799-1.468 1.727l-0.932-0.056-0.103 0.631c-0.056 0.347-0.181 0.709-0.276 0.804-0.261 0.261-2.327 0.339-2.48 0.094zM19.469 17.282c-0.48-0.072-0.776-0.538-0.724-1.14 0.023-0.266-0.115-0.331-0.862-0.406-1.318-0.132-1.752-0.98-1.353-2.644 0.301-1.254 1.268-1.933 2.228-1.564 0.327 0.126 0.344 0.397 0.025 0.397-0.346 0-0.956 0.934-0.894 1.37 0.070 0.495 0.717 0.565 1.824 0.198 1.516-0.504 2.628-0.23 4.56 1.121 0.989 0.692 2.065 0.923 2.91 0.624 0.78-0.276 1.138-0.701 0.883-1.049-0.946-1.293-0.913-1.543 0.177-1.338 1.45 0.272 1.77 1.361 0.85 2.892l-0.548 0.913-1.559 0.11c-1.203 0.085-1.936 0.038-3.213-0.205-1.735-0.331-2.097-0.271-2.097 0.345 0 0.443-0.829 0.585-2.208 0.377zM4.813 11.809c-0.87-0.564-1.559-1.638-1.559-2.431 0-0.743 1.056-3.372 1.564-3.896 0.303-0.312 0.606-0.401 1.604-0.472l1.23-0.088 1.951 1.352c1.654 1.146 2.008 1.471 2.324 2.13 0.457 0.955 0.996 1.288 1.833 1.131 0.788-0.148 0.918-0.451 0.735-1.719-0.134-0.928-0.19-1.037-0.53-1.037-0.235 0-0.413 0.121-0.464 0.315-0.133 0.509 0.023 1.378 0.304 1.688 0.377 0.416 0.033 0.543-0.673 0.248-1.399-0.584-1.562-3.482-0.235-4.168 0.533-0.276 1.917-0.319 2.547-0.079l0.426 0.162v2.816c0 2.011-0.057 2.851-0.199 2.939-0.11 0.068-1.099 0.25-2.199 0.406-2.345 0.332-2.313 0.348-2.476-1.213-0.088-0.838-0.2-1.128-0.585-1.513l-0.477-0.477 0.232 0.89c0.284 1.089 0.184 1.623-0.411 2.193-0.73 0.699-1.809 0.767-3.017 0.189-1.244-0.594-1.469-1.046-1.139-2.282 0.215-0.805 0.299-0.902 1.275-1.469 0.895-0.52 1.128-0.589 1.623-0.477 0.318 0.072 0.707 0.229 0.864 0.349s0.11 0.021-0.106-0.221c-0.602-0.676-1.498-0.759-2.562-0.237-1.837 0.902-2.592 2.179-2.052 3.471 0.268 0.641 1.319 1.366 2.25 1.552 0.736 0.147 0.334 0.388-0.647 0.388-0.527-0-0.947-0.13-1.429-0.442zM8.656 10.023c0.493-0.493 0.524-1.136 0.076-1.584-0.739-0.739-1.826-0.235-1.826 0.846 0 1.078 0.992 1.496 1.75 0.738zM25.66 12.131c0-0.069 0.23-0.227 0.511-0.352 0.585-0.259 1.48-1.404 1.48-1.894 0-1.917-2.136-3.754-3.807-3.275-0.689 0.198-0.912 0.389-1.702 1.457-0.527 0.713-0.669 1.072-0.775 1.954-0.072 0.595-0.204 1.155-0.294 1.245-0.176 0.176-4.271-0.345-4.5-0.573-0.069-0.068-0.147-1.294-0.175-2.725-0.063-3.215-0.059-3.224 1.604-3.318 1.119-0.063 1.197-0.043 1.664 0.423 0.678 0.678 0.829 1.746 0.412 2.912-0.289 0.806-0.352 0.87-0.891 0.906-0.525 0.035-0.543 0.023-0.185-0.127s0.386-0.24 0.307-0.944c-0.060-0.531-0.205-0.874-0.455-1.076-0.459-0.372-0.535-0.37-1.017 0.021-0.324 0.262-0.39 0.466-0.38 1.169 0.015 1.037 0.393 1.491 1.333 1.601 0.76 0.089 1.391-0.372 1.777-1.296 0.142-0.339 0.755-0.991 1.544-1.642 1.642-1.354 1.592-1.325 2.704-1.553 1.166-0.239 2.287-0.058 2.766 0.447 0.444 0.468 1.565 3.28 1.565 3.928 0 0.596-0.919 1.964-1.657 2.465-0.525 0.357-1.828 0.534-1.828 0.248zM23.419 11.481c-0.45-0.118-1.080-0.714-1.267-1.196-0.098-0.254-0.082-0.756 0.046-1.403 0.223-1.136 0.665-1.67 1.592-1.926 0.732-0.202 2.202 0.308 2.695 0.935 0.374 0.476 0.438 1.367 0.156 2.175-0.309 0.888-2.152 1.697-3.223 1.415zM25.004 10.178c0.394-0.204 0.49-0.362 0.49-0.807 0-1.259-1.269-1.895-1.98-0.992-0.189 0.241-0.344 0.56-0.344 0.71 0 0.518 0.661 1.198 1.294 1.332 0.027 0.005 0.27-0.103 0.539-0.243zM29.975 7.714c0-0.155-0.179-0.634-0.398-1.065-0.504-0.992-1.969-1.876-3.616-2.184-1.065-0.199-1.155-0.189-2.239 0.244-1.946 0.778-2.876 0.725-2.876-0.166 0-0.316 0.448-0.918 0.683-0.918 0.042 0 0.073 0.203 0.070 0.452-0.010 0.657 0.36 0.651 1.916-0.033 1.322-0.581 1.4-0.595 2.789-0.488 1.64 0.126 2.778 0.623 3.453 1.508 0.335 0.44 0.408 0.728 0.414 1.631 0.002 0.604-0.039 1.143-0.095 1.199s-0.102-0.025-0.102-0.18zM2.201 7.203c-0.051-0.132-0.035-0.599 0.034-1.038 0.095-0.6 0.288-0.971 0.78-1.497 0.634-0.678 0.698-0.705 2.135-0.879 0.815-0.099 1.525-0.207 1.578-0.239 0.185-0.114 1.923 0.268 2.288 0.503 0.202 0.13 0.566 0.237 0.808 0.237 0.358 0 0.424-0.062 0.353-0.332-0.108-0.412 0.307-0.448 0.841-0.074 0.368 0.258 0.459 0.642 0.268 1.139-0.152 0.395-1.134 0.327-2.070-0.143-1.299-0.653-1.827-0.744-3.013-0.521-1.327 0.249-2.406 0.989-3.212 2.203-0.322 0.485-0.61 0.881-0.641 0.881s-0.098-0.108-0.148-0.24z"></path>
</svg>
