<!-- Generated by IcoMoon.io -->
<svg version="1.1" xmlns="http://www.w3.org/2000/svg" width="29" height="32" viewBox="0 0 29 32">
<title>the_black_stone</title>
<path d="M8.237 30.984l-1.524-0.020-0.193-0.182 0.018-0.265c0.050-0.732 0.523-4.119 0.709-5.077 0.087-0.448 0.123-0.531 0.245-0.568 0.172-0.051 2.719-0.080 7.081-0.080 4.713 0 6.568 0.024 6.704 0.088 0.093 0.044 0.128 0.116 0.192 0.399 0.146 0.648 0.708 4.523 0.743 5.122l0.019 0.324-0.089 0.098c-0.076 0.084-0.121 0.103-0.319 0.132-0.263 0.039-11.024 0.062-13.586 0.029zM11.278 22.979c-0.733-0.011-1.375-0.034-1.425-0.050s-0.116-0.071-0.145-0.122c-0.052-0.089-0.050-0.145 0.038-1.469 0.257-3.846 1.055-15.366 1.093-15.775l0.019-0.205 0.399-0.515c0.551-0.711 1.989-2.513 2.548-3.193 0.254-0.31 0.485-0.591 0.512-0.626 0.048-0.060 0.064-0.045 0.518 0.502 0.342 0.411 2.769 3.436 3.040 3.788 0.015 0.020 0.089 0.923 0.164 2.008 0.825 11.895 0.955 13.853 0.984 14.82 0.019 0.634 0.018 0.65-0.049 0.759l-0.069 0.111-3.147-0.006c-1.731-0.003-3.747-0.015-4.481-0.026z"></path>
</svg>
