<!-- Generated by IcoMoon.io -->
<svg version="1.1" xmlns="http://www.w3.org/2000/svg" width="32" height="32" viewBox="0 0 32 32">
<title>the_blob_that_ate_everything</title>
<path d="M17.997 29.248c-0.517-0.442-1.179-1.012-1.471-1.266s-0.531-0.401-0.531-0.326c0 0.075-0.104 0.032-0.232-0.095-0.281-0.281-1.354-0.298-2.295-0.037-1.248 0.347-3.73 0.717-4.449 0.664-0.387-0.029-0.892-0.153-1.121-0.275-0.606-0.325-0.458-1.142 0.281-1.55 0.391-0.216 0.579-0.468 0.579-0.778 0-0.404-0.132-0.485-1.105-0.68-0.608-0.122-1.129-0.199-1.158-0.172s-0.207-0.156-0.395-0.408c-0.336-0.449-0.331-0.468 0.241-0.978 0.321-0.286 0.584-0.634 0.584-0.773 0-0.289-0.971-0.841-1.479-0.841-0.717 0-1.994-0.627-1.994-0.98 0-0.412 0.239-0.583 1.045-0.747 0.548-0.111 0.614-0.211 0.817-1.236 0.346-1.743-0.237-4.149-1.229-5.069-0.739-0.685-1.209-1.444-1.21-1.955-0.002-0.551 0.238-0.544 1.513 0.050 1.794 0.835 1.85 0.55 0.222-1.145-0.637-0.663-1.158-1.307-1.158-1.431 0-0.373 0.514-0.254 1.124 0.259 0.658 0.554 3.163 1.832 3.589 1.832 1.083 0 0.38-2.622-1.34-4.993-0.446-0.615-0.479-0.989-0.088-0.989 0.096 0 0.472 0.261 0.834 0.579 0.786 0.69 1.372 0.788 0.637 0.106-0.546-0.506-0.678-1.071-0.251-1.071 0.143 0 0.417 0.174 0.609 0.386 0.516 0.571 2.839 0.549 4.047-0.038l0.874-0.424 0.003-1.071c0.004-1.284 0.123-1.506 0.938-1.74 0.715-0.205 1.194 0.14 1.69 1.216 0.155 0.336 0.494 0.905 0.755 1.266s0.474 0.806 0.474 0.99c0 0.469 0.549 1.732 0.754 1.732 0.23 0 0.404-0.496 0.404-1.15 0-0.543 0.409-1.078 0.645-0.842 0.070 0.070 0.127 0.569 0.127 1.11 0 0.774 0.082 1.034 0.386 1.224 0.23 0.144 0.388 0.455 0.392 0.77 0.008 0.672 0.464 1.287 0.845 1.141 0.16-0.061 0.49-0.419 0.733-0.794 0.437-0.674 0.928-0.912 0.92-0.446-0.002 0.133-0.174 0.458-0.382 0.724-0.674 0.862-0.4 1.737 0.543 1.737 0.709 0 2.175-1.2 2.93-2.399 0.636-1.009 0.929-1.239 1.215-0.952 0.137 0.137-0.706 1.693-1.247 2.303-0.446 0.502-0.453 1.095-0.016 1.479 0.614 0.539 1.079 0.534 2.267-0.024l1.158-0.544 0.061 0.771c0.051 0.653-0.037 0.872-0.579 1.436-0.352 0.366-1.012 0.886-1.467 1.154-0.959 0.567-1.34 1.224-2.046 3.541-0.647 2.121-0.635 2.441 0.117 3.216 0.576 0.594 0.604 0.683 0.392 1.243-0.207 0.549-0.165 0.716 0.467 1.846 0.773 1.382 0.7 1.705-0.431 1.9-1.228 0.212-1.441 0.425-1.529 1.53-0.044 0.553-1.030 0.609-1.857 0.106-0.938-0.571-1.848-0.974-2.196-0.974-0.691 0-0.666 1.752 0.036 2.543 0.453 0.511 0.244 1.019-0.448 1.086-0.474 0.046-0.802-0.112-1.542-0.745zM17.415 22.833c0.062-0.249 0.448-0.632 0.878-0.874 0.651-0.366 0.776-0.539 0.826-1.149 0.052-0.626 0.129-0.726 0.601-0.78 0.352-0.040 0.617-0.229 0.758-0.538 0.309-0.678-0.142-1.073-1.226-1.073-1.14 0-1.659-0.379-1.374-1.004 0.189-0.415 0.317-0.458 1.204-0.41 0.877 0.048 1.016 0.003 1.196-0.393 0.352-0.772 0.042-1.401-0.91-1.849l-0.864-0.406v-1.212c0-1.338-0.096-1.447-1.28-1.447-0.368 0-0.93-0.135-1.248-0.299-0.539-0.279-0.623-0.272-1.226 0.1-0.808 0.5-0.851 0.615-0.742 2.038 0.087 1.139 0.074 1.176-0.746 2.121-0.459 0.529-0.996 1.081-1.194 1.228-0.449 0.333-0.898 1.381-0.898 2.097 0 0.791 0.498 1.4 1.145 1.4 0.638 0 0.884 0.254 1.064 1.096 0.239 1.116 0.958 1.284 1.463 0.341 0.456-0.853 1.538-0.506 1.538 0.493 0 0.912 0.831 1.331 1.034 0.521zM15.030 18.451c0-0.642-0.065-0.789-0.338-0.761-1.036 0.105-1.355-0.013-1.455-0.539-0.156-0.816 0.166-1.241 0.889-1.171 0.468 0.045 0.629 0.163 0.676 0.494 0.034 0.239 0.186 0.434 0.338 0.434 0.156 0 0.279-0.189 0.282-0.434 0.006-0.43 0.009-0.43 0.312-0.048 0.213 0.269 0.333 0.312 0.396 0.144 0.050-0.133 0.166-0.196 0.259-0.139s0.126 0.213 0.075 0.346c-0.051 0.133 0.167 0.491 0.484 0.795 0.692 0.663 0.615 0.891-0.255 0.749-0.495-0.080-0.709-0.018-0.913 0.266-0.537 0.745-0.749 0.707-0.749-0.136zM6.812 19.059c0.155-0.251-0.109-2.151-0.299-2.151-0.091 0-0.166 0.521-0.166 1.158 0 1.043 0.187 1.442 0.465 0.993zM24.080 18.195c0.106-0.336 0.242-0.949 0.302-1.362 0.098-0.669 0.077-0.723-0.196-0.495-0.704 0.584-1.304 2.375-0.923 2.755 0.205 0.205 0.61-0.239 0.817-0.898zM8.083 18.753c0-0.153-0.087-0.332-0.193-0.397s-0.193 0.060-0.193 0.278c0 0.219 0.087 0.397 0.193 0.397s0.193-0.125 0.193-0.278zM8.488 17.433c-0.5-0.781-0.562-0.223-0.076 0.691 0.257 0.484 0.344 0.543 0.401 0.274 0.040-0.189-0.106-0.623-0.325-0.965zM6.925 15.858c0-0.047-0.087-0.139-0.193-0.204s-0.193-0.027-0.193 0.085c0 0.112 0.087 0.204 0.193 0.204s0.193-0.038 0.193-0.085zM13.587 8.755c0.128-0.517 0.013-1.416-0.175-1.359-0.318 0.095-1.019 0.762-1.143 1.087-0.191 0.502-0.005 0.706 0.646 0.706 0.424 0 0.591-0.108 0.671-0.434zM11.524 7.544c0.201-0.44 0.174-0.506-0.271-0.675-0.555-0.211-1.24-0.249-1.24-0.069 0 0.137 1.005 1.17 1.175 1.207 0.063 0.014 0.214-0.195 0.336-0.463zM13.377 5.89c0.099-0.092 0.121-0.228 0.048-0.3-0.161-0.161-1.096 0.315-1.096 0.557 0 0.193 0.768 0.005 1.048-0.257zM27.091 23.098c-0.598-0.25-1.122-0.928-0.988-1.277 0.261-0.68 2.312 0.192 2.206 0.937-0.066 0.461-0.583 0.605-1.218 0.34zM6.19 8.811c-0.232-0.314-0.422-0.642-0.422-0.729s-0.185-0.286-0.41-0.442c-1.117-0.773-1.237-0.924-1.018-1.281 0.117-0.191 0.478-0.368 0.802-0.394 0.514-0.042 0.666 0.070 1.175 0.865 0.881 1.377 1.040 1.901 0.684 2.257-0.374 0.374-0.316 0.394-0.811-0.275zM22.264 7.255c-0.314-0.508 0.415-2.118 0.959-2.118 0.601 0 0.656 0.446 0.169 1.377-0.471 0.901-0.868 1.161-1.129 0.741zM27.381 5.078c0-0.262 0.167-0.682 0.372-0.933 0.353-0.433 0.379-0.437 0.515-0.088 0.084 0.217 0.031 0.567-0.13 0.853-0.38 0.673-0.756 0.756-0.756 0.167zM18.962 4.239c-0.155-0.619 0.127-1.128 0.625-1.128 0.257 0 0.383 0.161 0.427 0.542 0.116 1.015-0.814 1.533-1.052 0.586z"></path>
</svg>
