<!-- Generated by IcoMoon.io -->
<svg version="1.1" xmlns="http://www.w3.org/2000/svg" width="33" height="32" viewBox="0 0 33 32">
<title>the_boundary_beyond</title>
<path d="M21.022 27.057c0.017-0.135 0.063-0.23 0.062-0.374-0.001-0.239 0-0.478 0-0.717 0-0.287 0-0.575 0.001-0.863 0.005-0.428-0.114-0.841-0.127-1.267-0.014-0.428-0.065-0.844-0.060-1.275 0.002-0.252-0.035-0.538-0.078-0.787-0.106-0.619-0.219-1.24-0.328-1.858-0.1-0.572-0.22-1.139-0.22-1.718 0.001-0.302 0.013-0.597-0.044-0.896-0.073-0.382-0.127-0.778-0.146-1.166-0.018-0.372 0.017-0.728-0.044-1.098-0.040-0.226 0.011-0.458-0.029-0.681-0.086-0.491-0.082-1.014-0.187-1.509-0.056-0.265-0.125-0.534-0.176-0.8-0.016-0.074 0.019-0.157 0.006-0.231-0.016-0.079-0.054-0.132-0.070-0.209-0.014-0.073 0.010-0.158 0.005-0.231-0.005-0.093-0.044-0.154-0.065-0.242-0.059-0.238-0.092-0.488-0.122-0.73-0.014-0.117-0.057-0.177-0.062-0.303-0.007-0.154-0.106-0.277-0.13-0.426-0.021-0.124 0.049-0.211-0.12-0.247-0.109-0.024-0.263 0.005-0.375 0.005-0.348 0-0.784 0.068-1.115-0.014-0.237-0.059-0.447-0.108-0.694-0.108-0.144 0-0.239-0.013-0.372-0.048-0.154-0.040-0.34-0.014-0.502-0.014-0.103 0-0.207 0.001-0.312 0-0.043 0-0.154-0.019-0.192-0.002-0.089 0.038-0.038 0.040-0.057 0.124-0.114 0.477-0.157 0.99-0.236 1.479-0.052 0.329-0.086 0.675-0.125 1.007-0.038 0.323-0.108 0.641-0.138 0.966-0.063 0.675-0.162 1.335-0.296 2-0.162 0.789-0.174 1.595-0.328 2.387-0.098 0.499-0.15 1.010-0.234 1.512-0.119 0.711-0.201 1.43-0.313 2.141-0.078 0.499-0.132 1.001-0.184 1.503-0.055 0.527-0.155 1.052-0.22 1.58-0.068 0.578-0.16 1.153-0.313 1.712-0.060 0.223-0.046 0.436-0.124 0.657-0.032 0.087-0.076 0.193-0.095 0.269-0.022 0.092-0.112 0.282-0.019 0.342 0.041 0.025 0.16 0.014 0.207 0.022 0.108 0.017 0.185 0.043 0.298 0.046 0.29 0.011 0.583 0.001 0.873 0.001 0.073 0 0.313 0.040 0.366-0.010 0.032-0.032 0.010-0.147 0.009-0.184-0.003-0.158 0-0.317 0.001-0.477 0-1.018 0.187-2.016 0.187-3.039 0-0.206-0.016-0.415 0.013-0.619 0.033-0.219 0.111-0.432 0.111-0.654 0-0.253 0.092-0.491 0.125-0.743 0.044-0.333 0.073-0.676 0.136-1.006 0.030-0.162 0.135-0.296 0.166-0.458 0.043-0.217 0.005-0.415 0.068-0.634 0.108-0.366 0.209-0.736 0.271-1.113 0.144-0.874 0.366-1.772 0.358-2.661-0.002-0.369-0.001-0.74-0.001-1.109 0-0.26-0.033-0.548 0.014-0.803 0.059-0.31 0.054-0.634 0.124-0.944 0.028-0.128 0.101-0.231 0.117-0.364 0.014-0.122-0.005-0.258-0.005-0.382v-0.42c0-0.076-0.005-0.154-0.001-0.228 0.005-0.124 0.046-0.207 0.067-0.323 0.029-0.158 0.022-0.326 0.057-0.484 0.059-0.258 0.171-0.152 0.377-0.119 0.189 0.029 0.326 0.071 0.51 0.136 0.1 0.035 0.207 0.022 0.306 0.057 0.095 0.033 0.155 0.093 0.258 0.111 0.154 0.025 0.32-0.033 0.47 0.011 0.071 0.021 0.247 0.106 0.302 0.152-0.019 0.016-0.028 0.036-0.025 0.062 0.135 0.086 0.049 0.603 0.049 0.746 0 0.29 0.046 0.624-0.013 0.911-0.040 0.185-0.073 0.371-0.096 0.559-0.035 0.261 0.002 0.523-0.028 0.784-0.044 0.359-0.049 0.697-0.049 1.061 0 0.383 0.005 0.746 0.078 1.121 0.054 0.277 0.079 0.556 0.124 0.835 0.059 0.361 0.234 0.692 0.293 1.047 0.051 0.306 0.060 0.61 0.116 0.917 0.030 0.162 0 0.318 0.011 0.48 0.010 0.152 0.052 0.299 0.065 0.451 0.046 0.546 0.063 1.077 0.063 1.625v2.053c0 0.76-0.051 1.512-0.185 2.26-0.017 0.090-0.054 0.166-0.082 0.253-0.048 0.15-0.055 0.302-0.089 0.456-0.032 0.155-0.101 0.295-0.146 0.445-0.021 0.068-0.063 0.204-0.054 0.276 0.19 0.079 0.358 0.070 0.558 0.114 0.131 0.030 0.236 0.021 0.371 0.029 0.125 0.006 0.239 0.059 0.364 0.067 0.374 0.025 0.759-0.002 1.072-0.185z"></path>
<path d="M21.334 8.947c0.022-0.1-0.059-0.201-0.063-0.304-0.006-0.1 0.001-0.203 0.001-0.304v-0.638c0-0.173-0.046-0.412-0.002-0.58 0.025-0.105 0.070-0.111 0.065-0.241-0.005-0.154 0.002-0.138 0.127-0.211 0.147-0.087 0.165-0.258 0.184-0.397 0.013-0.098 0.052-0.144 0.065-0.241 0.016-0.117-0.032-0.257-0.005-0.369 0.021-0.084 0.062-0.109 0.067-0.209 0.005-0.081 0.022-0.198 0.005-0.276-0.049-0.207-0.382-0.181-0.559-0.181-0.835 0-1.669 0-2.504 0-0.358 0-0.721 0.017-1.077 0.001-0.133-0.007-0.247-0.057-0.378-0.065-0.176-0.011-0.321-0.011-0.489-0.046-0.681-0.141-1.403-0.135-2.105-0.135-0.603 0-1.208 0.002-1.812 0-0.060 0-0.13-0.007-0.188-0.001-0.078 0.010-0.081 0.035-0.138 0.049-0.105 0.027-0.201 0.002-0.239 0.131-0.011 0.040 0.016 0.090 0.007 0.128-0.013 0.052-0.057 0.065-0.070 0.116-0.028 0.114 0.002 0.298 0.002 0.415 0 0.179-0.068 0.467 0.108 0.576 0.086 0.054 0.189 0.049 0.282 0.090 0.097 0.043 0.141 0.084 0.225 0.152-0.040 0.097-0.055 0.171-0.054 0.288 0.002 0.127-0.047 0.215-0.063 0.334-0.032 0.222 0.001 0.475 0.001 0.698s0 0.447 0 0.67c0 0.056 0.010 0.128 0.001 0.184-0.009 0.063-0.041 0.087-0.051 0.133-0.022 0.106-0.057 0.236-0.070 0.342 0.16 0.038 0.358 0.010 0.524 0.010 0.139 0 0.459 0.057 0.58-0.013 0.122-0.070 0.090-0.304 0.062-0.413-0.049-0.185-0.029-0.366-0.062-0.557-0.040-0.214-0.047-0.409-0.049-0.627 0-0.090-0.005-0.174 0.014-0.26 0.005-0.022 0.043-0.038 0.051-0.071 0.016-0.060-0.019-0.128-0.006-0.188 0.027-0.119 0.16-0.287 0.253-0.366 0.177-0.15 0.313-0.179 0.546-0.179 0.521 0.001 1.088-0.057 1.603 0.014 0.439 0.062 0.876 0.063 1.316 0.122 0.201 0.027 0.383 0.103 0.589 0.109 0.169 0.006 0.342-0.001 0.513-0.001h1.050c0.168 0 0.532-0.073 0.668 0.013 0.168 0.103 0.035 0.28 0.010 0.412-0.025 0.136-0.001 0.285-0.027 0.426-0.027 0.143-0.065 0.328-0.035 0.473 0.032 0.155 0.067 0.26 0.065 0.428 0 0.105 0.001 0.209 0.001 0.314 0 0.079-0.035 0.241-0.005 0.309 0.029 0.068 0.171 0.106 0.253 0.12 0.105 0.017 0.207-0.016 0.312 0.011 0.094 0.024 0.196 0.093 0.299 0.035 0.124-0.071 0.106-0.412 0.065-0.524-0.017-0.002-0.035-0.007 0.135 0.293z"></path>
<path d="M20.086 10.588c0.44 0 0.941-0.070 1.371 0.014 0.166 0.032 0.334 0.062 0.502 0.094 0.127 0.024 0.247-0.005 0.372 0.011 0.109 0.013 0.2 0.062 0.314 0.065 0.095 0.002 0.122-0.005 0.199 0.041 0.122 0.071 0.214 0.26 0.282 0.382 0.063 0.116 0.098 0.236 0.155 0.35 0.059 0.116 0.147 0.207 0.219 0.322 0.103 0.163 0.125 0.245-0.109 0.241-0.79-0.014-1.58 0.002-2.371 0-0.084 0-0.177-0.011-0.261-0.002-0.13 0.013-0.231 0.092-0.364 0.054-0.157-0.044-0.32-0.158-0.358-0.307-0.019-0.078 0.002-0.15-0.010-0.23-0.016-0.089-0.062-0.149-0.068-0.242-0.008-0.162 0.001-0.326 0.127-0.79z"></path>
<path d="M14.597 10.162h-2.683c-0.136 0-0.269 0-0.404 0-0.158 0-0.239-0.032-0.372-0.063-0.105-0.024-0.301-0.013-0.41 0.001-0.165 0.019-0.203 0.090-0.263 0.231-0.040 0.095-0.13 0.198-0.166 0.291-0.025 0.067-0.017 0.138-0.051 0.207-0.036 0.078-0.060 0.133-0.079 0.212-0.032 0.13-0.051 0.253-0.076 0.382-0.014 0.070-0.081 0.062-0.016 0.138 0.049 0.057 0.147 0.054 0.214 0.060 0.203 0.019 0.421-0.001 0.626-0.001 0.315 0 0.602 0.011 0.911 0.055 0.421 0.060 0.9 0.005 1.326 0.005 0.087 0 0.185-0.011 0.272-0.002 0.12 0.013 0.239 0.092 0.364 0.070 0.204-0.033 0.181-0.25 0.253-0.394 0.155-0.304 0.306-0.667 0.554-1.191z"></path>
<path d="M20.211 12.837h3.24c0.288 0 0.657-0.059 0.939 0.014 0.116 0.028 0.187 0.049 0.312 0.046 0.13-0.001 0.193-0.007 0.268 0.108 0.043 0.065 0.068 0.132 0.119 0.195 0.090 0.114 0.149 0.108 0.174 0.244 0.035 0.192 0.114 0.398 0.195 0.572 0.035 0.073 0.052 0.146 0.084 0.22 0.041 0.098 0.149 0.176 0.152 0.295-0.242 0.060-0.554 0.007-0.805 0.007h-0.939c-0.843 0-1.652-0.092-2.479-0.228-0.111-0.019-0.215-0.013-0.326-0.014-0.114-0.001-0.176-0.033-0.279-0.055-0.17-0.036-0.377 0.022-0.534-0.076-0.138-0.087-0.155-0.397-0.2-0.537-0.021-0.065-0.079-0.141-0.095-0.196-0.030-0.109-0.014-0.236 0.173-0.594z"></path>
<path d="M14.161 12.775h-1.172c-0.549 0-1.118 0.040-1.664-0.030-0.309-0.040-0.667 0.029-0.968-0.044-0.318-0.076-0.679 0.021-0.999-0.060-0.111-0.029-0.211-0.038-0.325-0.062-0.114-0.022-0.255-0.098-0.363-0.019-0.081 0.059-0.073 0.19-0.108 0.277-0.033 0.087-0.052 0.158-0.078 0.242-0.029 0.095-0.041 0.174-0.068 0.272-0.032 0.116-0.041 0.22-0.071 0.336-0.054 0.216-0.222 0.399-0.29 0.594 0.497 0.136 1.033 0.074 1.547 0.074h3.125c0.223 0 0.448 0 0.673 0 0.163 0 0.279 0.033 0.378-0.098 0.089-0.116 0.139-0.313 0.196-0.45 0.082-0.198 0.122-0.394 0.185-1.033z"></path>
<path d="M20.771 15.45c1.028 0 2.057 0 3.085 0 0.477 0 0.937 0.060 1.414 0.060 0.279 0.001 0.529 0.063 0.803 0.062 0.144-0.001 0.464-0.060 0.588 0.001 0.111 0.055 0.078 0.179 0.096 0.274 0.014 0.068 0.048 0.127 0.079 0.193 0.092 0.19 0.134 0.418 0.185 0.625 0.046 0.184 0.143 0.347 0.168 0.537-0.871 0.165-1.842 0.070-2.737 0.070h-2.632c-0.293 0-0.584 0.019-0.863-0.048-0.113-0.027-0.16 0.014-0.19-0.101-0.021-0.082 0.001-0.22 0.002-0.307 0.001-0.198-0.093-0.323-0.128-0.516-0.019-0.111-0.016-0.195-0.044-0.304-0.027-0.098-0.014-0.201 0.172-0.546z"></path>
<path d="M13.1 15.45c-1.12 0-2.239 0.001-3.359 0-0.369 0-0.709-0.060-1.082-0.060-0.428-0.001-0.857 0.011-1.284 0-0.168-0.002-0.53-0.179-0.578 0.027-0.011 0.049 0.016 0.105 0.006 0.155-0.008 0.046-0.040 0.079-0.051 0.122-0.025 0.090-0.010 0.179-0.014 0.274-0.007 0.16-0.075 0.325-0.119 0.486-0.046 0.166-0.117 0.344-0.187 0.504 0.095 0.027 0.201 0.013 0.299 0.011 0.296-0.001 0.592 0 0.889 0h4.171c0.246 0 0.491-0.001 0.736 0 0.233 0.001 0.312-0.007 0.371-0.242 0.035-0.139-0.022-0.293 0.011-0.429 0.017-0.074 0.055-0.093 0.067-0.177 0.011-0.078-0.001-0.166 0.124-0.67z"></path>
<path d="M21.083 18.245c1.617 0 3.234-0.002 4.851 0 0.364 0.001 0.717-0.063 1.078-0.060 0.207 0.001 0.415 0 0.621 0 0.123 0 0.394-0.052 0.502-0.005 0.106 0.047 0.057 0.342 0.089 0.458 0.024 0.090 0.062 0.185 0.081 0.276 0.021 0.101-0.005 0.206 0.025 0.306 0.063 0.209 0.255 0.276 0.366 0.448 0.041 0.067 0.063 0.076 0.062 0.158-0.001 0.122-0.014 0.109-0.127 0.122-0.201 0.022-0.424 0-0.627 0h-2.979c-0.458 0-0.908 0.019-1.359-0.047-0.371-0.057-0.746-0.079-1.123-0.074-0.146 0.001-0.244-0.046-0.383-0.065-0.135-0.018-0.291 0.002-0.426 0.002-0.090 0-0.189 0.011-0.277 0.001-0.152-0.017-0.096-0.021-0.13-0.152-0.098-0.375-0.361-0.732-0.244-1.368z"></path>
<path d="M13.225 18.305v-0.040c0 0.337 0 0.675 0 1.012 0 0.057 0.029 0.196 0.005 0.247-0.040 0.084-0.109 0.059-0.201 0.057-0.329-0.006-0.659 0-0.988 0-0.359 0-0.724-0.013-1.083-0.002-0.233 0.007-0.455 0.060-0.687 0.067-0.237 0.005-0.477-0.002-0.716-0.002-0.268 0-0.535 0-0.805 0-0.383 0-0.743-0.111-1.124-0.124-0.263-0.007-0.51-0.106-0.762-0.12-0.266-0.016-0.51-0.063-0.781-0.059-0.226 0.002-0.429-0.063-0.654-0.062-0.155 0.001-0.454 0.070-0.361-0.169 0.021-0.054 0.098-0.124 0.128-0.182 0.033-0.062 0.060-0.127 0.090-0.196 0.038-0.082 0.084-0.165 0.127-0.244 0.062-0.113 0.049-0.15 0.076-0.276 0.016-0.068 0.052-0.108 0.067-0.176 0.013-0.059-0.037-0.193 0-0.244 0.060-0.081 0.22-0.021 0.31-0.005 0.268 0.049 0.537 0.15 0.811 0.16 0.358 0.011 0.692-0.022 1.047 0.055 0.363 0.081 0.752 0.095 1.123 0.117 0.341 0.019 0.662 0 0.998 0.052 0.325 0.049 0.675 0.013 1.002 0.013 0.793 0 1.585 0 2.379 0.122z"></path>
<path d="M21.395 21.040h7.39c0.12 0 0.242-0.005 0.361-0.001 0.122 0.005 0.211 0.051 0.325 0.065 0.173 0.021 0.394-0.060 0.532 0.057 0.119 0.1 0.044 0.337 0.076 0.5 0.038 0.196 0.087 0.407 0.189 0.584 0.049 0.087 0.070 0.147 0.109 0.244 0.033 0.076 0.084 0.116 0.125 0.189 0.035 0.063 0.177 0.356 0.116 0.42-0.036 0.036-0.212 0.014-0.263 0.022-0.268 0.044-0.531 0.074-0.803 0.033-0.436-0.063-0.876-0.095-1.31-0.168-0.792-0.131-1.562-0.105-2.361-0.119-0.317-0.005-0.626-0.074-0.937-0.112-0.241-0.029-0.488-0.011-0.73-0.011-0.398-0.001-0.797 0-1.194 0-0.312 0-0.638 0.032-0.931-0.048-0.222-0.062-0.486 0.082-0.645-0.117-0.090-0.112-0.070-0.203-0.108-0.326-0.030-0.097-0.067-0.124-0.065-0.239 0.002-0.203 0-0.405 0.125-0.972z"></path>
<path d="M12.476 21.284h-0.656c-0.443 0-0.912 0.046-1.352-0.014-0.477-0.063-0.952-0.084-1.432-0.152-0.545-0.079-1.099-0.125-1.649-0.168-0.347-0.027-0.678-0.074-1.020-0.138-0.146-0.027-0.298-0.071-0.445-0.078-0.331-0.016-0.657-0.052-0.988-0.089-0.435-0.049-0.877-0.030-1.316-0.030-0.187 0-0.581 0.073-0.735-0.055-0.024 0.168-0.114 0.317-0.141 0.48-0.025 0.158-0.027 0.334-0.087 0.489-0.051 0.128-0.122 0.233-0.162 0.359-0.021 0.068-0.051 0.172-0.063 0.245-0.013 0.076 0.025 0.133-0.035 0.201 0.063 0.070 0.182 0.043 0.271 0.043 0.233-0.002 0.467 0 0.702 0 0.358 0 0.717 0.001 1.075-0.001 0.222 0 0.458-0.022 0.676 0.010 0.168 0.025 0.325 0.078 0.488 0.116 0.42 0.098 0.849 0.036 1.276 0.071 0.475 0.040 0.941 0.048 1.419 0.048 0.418 0 0.838 0 1.256 0 0.257 0 0.537-0.030 0.792 0.014 0.359 0.062 0.722 0.048 1.088 0.048 0.228 0 0.588 0.057 0.822 0.001 0.168-0.040 0.089-0.295 0.044-0.428-0.090-0.268-0.116-0.52 0.171-0.972z"></path>
<path d="M22.019 24.262c0.109-0.011 0.185 0.013 0.288 0.044 0.226 0.068 0.459 0.078 0.694 0.114 0.923 0.144 1.847 0.272 2.782 0.268 1.544-0.006 3.090 0 4.636 0h0.831c0.127 0 0.388-0.052 0.504-0.005 0.108 0.046 0.057 0.266 0.057 0.378 0 0.158-0.017 0.323 0.014 0.48 0.025 0.128 0.024 0.271 0.054 0.394 0.033 0.141 0.135 0.268 0.198 0.39 0.081 0.152 0.044 0.355 0.060 0.523 0.011 0.097 0.076 0.106-0.071 0.146-0.090 0.024-0.2 0.005-0.291 0.007-0.193 0.010-0.385 0.041-0.58 0.051-0.456 0.022-0.954 0.043-1.41 0-0.244-0.022-0.464-0.059-0.709-0.057-0.393 0.001-0.792 0.025-1.181-0.013-0.378-0.035-0.743-0.048-1.123-0.044-0.368 0.001-0.724-0.054-1.090-0.067-0.532-0.019-1.069 0.019-1.601 0.007-0.211-0.007-0.406-0.057-0.613-0.067-0.188-0.010-0.382 0.002-0.572 0.002-0.172 0-0.459 0.054-0.622 0.002-0.025-0.007-0.073-0.049-0.082-0.051-0.040-0.010-0.111 0.002-0.138-0.017-0.084-0.060-0.021-0.152 0.011-0.233 0.060-0.155 0.098-0.322 0.128-0.485 0.052-0.276 0.014-0.535-0.098-0.787-0.092-0.206-0.139-0.333-0.076-0.983z"></path>
<path d="M11.977 24.444h-7.865c-0.444 0-0.923 0.051-1.364 0.002-0.097-0.011-0.17-0.051-0.263-0.066-0.12-0.022-0.274 0.002-0.398 0.002-0.166-0.001-0.331 0.001-0.496 0-0.043-0.001-0.152-0.024-0.185 0.001-0.055 0.041-0.027 0.112-0.046 0.181-0.040 0.138-0.146 0.322-0.212 0.448-0.165 0.307-0.158 0.709-0.35 0.998-0.067 0.098-0.241 0.162-0.087 0.282 0.103 0.082 0.386 0.051 0.51 0.065 0.363 0.040 0.722 0.030 1.086 0.030 1.196-0.001 2.391 0 3.587 0 1.213 0 2.428 0.005 3.642 0 0.53-0.002 1.053 0.062 1.584 0.060 0.090 0 0.206 0.021 0.293 0.002 0.084-0.016 0.154-0.060 0.239-0.074 0.019-0.127 0.070-0.222 0.073-0.352 0.005-0.162 0.001-0.322 0.001-0.481 0-0.296-0.063-0.565 0.249-1.101z"></path>
</svg>
