<!-- Generated by IcoMoon.io -->
<svg version="1.1" xmlns="http://www.w3.org/2000/svg" width="38" height="32" viewBox="0 0 38 32">
<title>the_flood_below</title>
<path d="M20.752 15.854c-0.001 0.189-0.041 0.26-0.149 0.41-0.202 0.281-0.476 0.369-0.817 0.363l0.255 0.004c-0.106 0.147-0.255 0.226-0.45 0.178-0.079-0.019-0.096-0.056-0.186-0.067-0.065-0.010-0.114-0.001-0.178-0.015-0.015-0.029-0.040-0.047-0.074-0.051-0.033 0.001-0.066 0.002-0.101 0.002-0.061-0.017-0.099-0.034-0.156-0.063-0.106-0.055-0.215-0.065-0.317-0.125-0.11-0.067-0.173-0.11-0.189-0.244-0.015-0.127 0.005-0.266 0.006-0.394 0.003-0.231 0.069-0.512 0.262-0.677 0.402-0.344 0.999-0.606 1.54-0.428 0.282 0.093 0.549 0.389 0.56 0.687 0.004 0.139-0.006 0.281-0.009 0.42zM21.761 14.973c-0.029-0.116-0.099-0.176-0.156-0.281-0.059-0.109-0.121-0.197-0.198-0.299-0.111-0.144-0.267-0.285-0.447-0.334-0.101-0.028-0.18-0.065-0.285-0.085-0.099-0.021-0.197-0.048-0.295-0.070-0.202-0.045-0.387-0.051-0.593-0.054-0.157-0.002-0.317-0.009-0.475-0.009-0.184 0.001-0.311 0.077-0.466 0.146-0.202 0.089-0.461 0.189-0.584 0.385 0.009-0.004 0.018-0.010 0.176-0.056-0.143 0.098-0.306 0.206-0.431 0.319-0.405 0.366-0.59 0.928-0.582 1.447 0.003 0.132 0.037 0.268 0.089 0.392 0.052 0.128 0.154 0.2 0.241 0.306 0.176 0.211 0.348 0.439 0.542 0.634 0.081 0.083 0.175 0.131 0.29 0.162 0.154 0.043 0.308 0.121 0.464 0.15 0.336 0.063 0.696 0.012 1.014-0.088 0.542-0.169 1.076-0.556 1.405-0.992 0.173-0.231 0.306-0.517 0.318-0.804 0.007-0.149 0.041-0.292 0.051-0.44 0.010-0.143-0.047-0.292-0.080-0.429z"></path>
<path d="M18.161 5.081c-0.296 0.129-0.485 0.494-0.512 0.779-0.025 0.24-0.095 0.519 0.154 0.669 0.096 0.059 0.161 0.125 0.268 0.147 0.154 0.033 0.259-0.010 0.402-0.019 0.099-0.006 0.184 0.015 0.277-0.036 0.089-0.050 0.129-0.099 0.149-0.187 0.022-0.102 0.092-0.575-0.095-0.546 0.272 0.033 0.443 0.037 0.579 0.27 0.065 0.113 0.088 0.197 0.079 0.329-0.007 0.073-0.009 0.142-0.036 0.211-0.027 0.072-0.039 0.14-0.063 0.211-0.039 0.107-0.116 0.215-0.206 0.288-0.091 0.070-0.201 0.206-0.322 0.238-0.175 0.045-0.439-0.032-0.621-0.048-0.197-0.019-0.319-0.022-0.489-0.114-0.143-0.078-0.305-0.076-0.436-0.186-0.127-0.106-0.263-0.187-0.319-0.341-0.083-0.223-0.194-0.472-0.194-0.732-0.001-0.194 0.092-0.381 0.12-0.573 0.012-0.087 0.022-0.124 0.076-0.205 0.059-0.088 0.146-0.229 0.219-0.304 0.072-0.074 0.155-0.11 0.223-0.191 0.052-0.063 0.068-0.073 0.15-0.114 0.16-0.083 0.266-0.198 0.413-0.293 0.284-0.186 0.683-0.19 0.992-0.333 0.095-0.044 0.164-0.127 0.256-0.172 0.109-0.054 0.208-0.033 0.326-0.033 0.184 0 0.38-0.013 0.564-0.026 0.183-0.013 0.344-0.070 0.517-0.121 0.24-0.069 0.495-0.056 0.736-0.127 0.248-0.072 0.438-0.078 0.695-0.052 0.457 0.044 0.944 0.043 1.378 0.183 0.12 0.040 0.238 0.107 0.362 0.138 0.12 0.029 0.215 0.029 0.326 0.076 0.092 0.039 0.184 0.062 0.275 0.091 0.127 0.041 0.216 0.122 0.354 0.144 0.328 0.054 0.648 0.128 0.947 0.278 0.167 0.084 0.315 0.197 0.483 0.277 0.127 0.061 0.266 0.095 0.385 0.166 0.822 0.49 1.513 1.189 2.089 1.917 0.216 0.271 0.461 0.531 0.619 0.844 0.050 0.125 0.11 0.245 0.18 0.358 0.092 0.11 0.173 0.227 0.246 0.351 0.209 0.416 0.328 0.834 0.423 1.291 0.111 0.541 0.107 1.074 0.113 1.621 0.005 0.497-0.033 0.992-0.033 1.489-0.001 0.687-0.147 1.382-0.282 2.053-0.068 0.341-0.164 0.674-0.231 1.017-0.072 0.366-0.145 0.712-0.34 1.034-0.333 0.549-0.636 1.112-1.067 1.591-0.333 0.374-0.654 0.76-0.976 1.144-0.256 0.306-0.501 0.648-0.848 0.852-0.293 0.171-0.553 0.321-0.809 0.552-0.355 0.322-0.72 0.636-1.107 0.917-0.040 0.028-0.079 0.056-0.118 0.084-0.31 0.216-0.585 0.359-0.924 0.515-0.26 0.121-0.517 0.257-0.802 0.304-0.246 0.040-0.489 0.047-0.729 0.129-0.172 0.061-0.336 0.139-0.513 0.184-0.204 0.052-0.414 0.074-0.622 0.098-0.741 0.085-1.48 0.237-2.221 0.297-0.552 0.047-1.086-0.049-1.636-0.073-0.663-0.030-1.317-0.077-1.978-0.139-0.538-0.051-1.061-0.098-1.591-0.208s-1.052-0.273-1.59-0.34c-0.557-0.069-1.109-0.105-1.663-0.219-0.319-0.065-0.626-0.103-0.879-0.321-0.263-0.226-0.579-0.369-0.886-0.524-0.246-0.125-0.468-0.286-0.723-0.395-0.238-0.102-0.482-0.183-0.71-0.317-0.37-0.216-0.734-0.465-1.078-0.717-0.206-0.151-0.402-0.31-0.527-0.53-0.144-0.259-0.264-0.534-0.395-0.799-0.129-0.264-0.416-0.575-0.285-0.885 0.074 0.019 0.099 0.113 0.157 0.158 0.069 0.056 0.167 0.102 0.244 0.157 0.209 0.151 0.449 0.297 0.677 0.427 0.165 0.094 0.337 0.161 0.501 0.262 0.164 0.102 0.363 0.178 0.54 0.263 0.222 0.107 0.413 0.249 0.635 0.356 0.124 0.061 0.211 0.131 0.348 0.161 0.204 0.043 0.391 0.142 0.586 0.219 0.358 0.142 0.721 0.27 1.078 0.413 0.702 0.281 1.361 0.564 2.129 0.644 0.172 0.018 0.348 0.021 0.52 0.043 0.2 0.025 0.385 0.099 0.584 0.123 0.222 0.028 0.434 0.102 0.657 0.125 0.381 0.041 0.764-0.017 1.142 0.058 0.237 0.045 0.463 0.135 0.703 0.161 0.348 0.037 0.691-0.050 1.020-0.149 0.388-0.116 0.807-0.173 1.215-0.132 0.273 0.028 0.495-0.044 0.757-0.078 0.117-0.015 0.151-0.025 0.26-0.066 0.262-0.099 0.613-0.103 0.886-0.132 0.398-0.040 0.774-0.015 1.148-0.129 0.314-0.096 0.614-0.227 0.908-0.367 0.312-0.15 0.619-0.336 0.959-0.424 0.855-0.22 1.554-0.636 2.261-1.127 0.322-0.224 0.508-0.534 0.775-0.802 0.263-0.264 0.552-0.506 0.793-0.789 0.325-0.383 0.614-0.802 0.926-1.196 0.144-0.183 0.241-0.392 0.387-0.573 0.132-0.165 0.338-0.313 0.358-0.534 0.007-0.067-0.018-0.129-0.022-0.197-0.012-0.204 0.12-0.39 0.209-0.567 0.178-0.352 0.299-0.712 0.394-1.092 0.132-0.523 0.131-1.104 0.187-1.638 0.044-0.423 0.062-0.789 0.003-1.211-0.078-0.556-0.367-1.024-0.623-1.52-0.234-0.45-0.526-0.839-0.848-1.239-0.169-0.209-0.299-0.446-0.456-0.663-0.125-0.175-0.282-0.31-0.44-0.457-0.245-0.23-0.442-0.52-0.698-0.736-0.244-0.204-0.556-0.301-0.84-0.436-0.289-0.138-0.531-0.286-0.845-0.377-0.526-0.153-1.058-0.365-1.602-0.432-0.285-0.036-0.577-0.056-0.864-0.081-0.154-0.015-0.295 0.018-0.449 0.013-0.212-0.007-0.41-0.043-0.621 0.018-0.299 0.087-0.595 0.151-0.903 0.211-0.223 0.044-0.383 0.129-0.567 0.25-0.178 0.118-0.33 0.101-0.535 0.128-0.054 0.008-0.105 0.022-0.153 0.043z"></path>
<path d="M15.487 21.415c0.026-0.004 0.054-0.007 0.081-0.009 0.147-0.011 0.282 0.004 0.434-0.019 0.466-0.076 0.9-0.26 1.372-0.314 0.632-0.073 1.158-0.394 1.749-0.575 0.362-0.111 0.721-0.242 1.086-0.346 0.12-0.033 0.227-0.067 0.333-0.134 0.666-0.413 1.309-0.988 1.778-1.594 0.179-0.233 0.347-0.466 0.544-0.688 0.101-0.113 0.2-0.226 0.307-0.333 0.139-0.14 0.223-0.295 0.347-0.443 0.094-0.113 0.187-0.175 0.271-0.296 0.102-0.149 0.202-0.295 0.295-0.45 0.178-0.3 0.356-0.683 0.33-1.034-0.026-0.343 0.113-0.632 0.176-0.968 0.061-0.322 0.131-0.625 0.226-0.939 0.114-0.38 0.133-0.862 0.105-1.252-0.014-0.212-0.102-0.374-0.16-0.573-0.116-0.398-0.139-0.826-0.391-1.17-0.215-0.293-0.512-0.511-0.78-0.75-0.255-0.227-0.567-0.45-0.914-0.527-0.080-0.018-0.172-0.015-0.253-0.022-0.189-0.018-0.376-0.036-0.564-0.054-0.088-0.009-0.184-0.029-0.271-0.014-0.059 0.011-0.125 0.073-0.189 0.080-0.101 0.011-0.14-0.009-0.234 0.029-0.076 0.029-0.132 0.017-0.205 0.032s-0.048 0.009-0.102 0.054c-0.061 0.052-0.080 0.114-0.149 0.162-0.106 0.074-0.145 0.12-0.171 0.256-0.044 0.238-0.030 0.425 0.107 0.628 0.123 0.18 0.277 0.26 0.475 0.363 0.117 0.061 0.233 0.18 0.369 0.208-0.045 0.209-1.054-0.025-1.181-0.074-0.216-0.085-0.458-0.23-0.581-0.427-0.092-0.146-0.041-0.447 0.011-0.61 0.063-0.2 0.186-0.407 0.285-0.596 0.048-0.092 0.102-0.078 0.187-0.136 0.088-0.056 0.155-0.135 0.248-0.193 0.3-0.19 0.683-0.35 1.021-0.472 0.116-0.041 0.23-0.058 0.352-0.063 0.778-0.044 1.568 0.14 2.234 0.519 0.31 0.176 0.64 0.373 0.919 0.592 0.129 0.102 0.217 0.233 0.307 0.37 0.078 0.121 0.179 0.171 0.263 0.275 0.087 0.107 0.101 0.259 0.169 0.376 0.067 0.114 0.175 0.195 0.234 0.317 0.069 0.143 0.084 0.315 0.114 0.469 0.043 0.215 0.074 0.431 0.113 0.646 0.113 0.617 0.219 1.184 0.2 1.819-0.010 0.311-0.093 0.588-0.16 0.891-0.059 0.266-0.105 0.537-0.183 0.798-0.073 0.249-0.223 0.446-0.337 0.676-0.118 0.24-0.217 0.484-0.288 0.742-0.076 0.281-0.204 0.552-0.295 0.83-0.055 0.168-0.151 0.292-0.224 0.45-0.144 0.315-0.366 0.575-0.557 0.864-0.193 0.289-0.425 0.549-0.641 0.826-0.334 0.429-0.674 0.925-1.119 1.243-0.101 0.072-0.208 0.123-0.317 0.182-0.156 0.087-0.33 0.249-0.5 0.293-0.087 0.022-0.195-0.010-0.285-0.010-0.568-0.001-1.14 0.205-1.698 0.308-0.31 0.059-0.617 0.133-0.929 0.186-0.158 0.027-0.318 0.050-0.478 0.058-0.114 0.005-0.256-0.022-0.362 0.025-0.161 0.072-0.18 0.24-0.381 0.267-0.139 0.019-0.285-0.017-0.424-0.022-0.147-0.007-0.296 0-0.443 0.004-0.208 0.004-0.381 0.022-0.589 0.058-0.223 0.040-0.427 0.012-0.65-0.010-0.617-0.061-1.225-0.017-1.836-0.16-0.3-0.070-0.601-0.155-0.907-0.208-0.161-0.027-0.318-0.101-0.483-0.099 0.144 0.014 0.304 0.049 0.438 0.015 0.050-0.012 0.106-0.054 0.154-0.062 0.069-0.010 0.147 0.011 0.219 0.018 0.252 0.021 0.505-0.040 0.757-0.065 0.361-0.037 0.727-0.069 1.089-0.114 0.178-0.023 0.354-0.081 0.531-0.106z"></path>
<path d="M30.786 18.407c-0.169 0.295-0.343 0.592-0.559 0.851-0.33 0.398-0.723 0.751-1.1 1.108-0.344 0.325-0.71 0.59-1.094 0.869-0.255 0.187-0.498 0.41-0.728 0.623-0.080 0.076-0.161 0.142-0.257 0.197-0.611 0.351-1.299 0.636-1.97 0.868-0.606 0.209-1.175 0.466-1.796 0.639-0.37 0.102-0.724 0.238-1.090 0.351-0.296 0.092-0.603 0.157-0.902 0.245-0.692 0.205-1.418 0.319-2.143 0.361-0.566 0.032-1.134 0.037-1.701 0.059-0.568 0.022-1.134-0.012-1.702 0.010-0.293 0.011-0.573-0.029-0.863-0.023-0.441 0.007-0.881 0.073-1.319-0.001-0.307-0.051-0.595-0.139-0.906-0.182-0.14-0.019-0.284-0.040-0.42-0.077-0.111-0.030-0.219-0.092-0.332-0.106-0.183-0.022-0.347-0.051-0.531-0.089-0.121-0.026-0.205-0.091-0.326-0.123-0.127-0.032-0.256-0.073-0.377-0.118-0.025-0.010-0.088-0.062-0.114-0.056-0.095 0.022-0.026 0.099-0.059 0.158-0.041 0.072-0.162 0.109-0.085 0.216 0.034 0.048 0.172 0.065 0.224 0.085 0.151 0.058 0.275 0.158 0.416 0.235 0.417 0.23 0.862 0.332 1.319 0.471 0.434 0.132 0.867 0.321 1.236 0.575 0.35 0.242 0.742 0.234 1.159 0.275 0.178 0.018 0.343 0.069 0.523 0.081 0.223 0.017 0.439 0.048 0.661 0.070 0.373 0.036 0.739-0.002 1.112 0.019 0.446 0.026 0.868 0 1.314-0.033 0.338-0.028 0.68-0.048 1.018-0.087 0.307-0.036 0.607-0.116 0.915-0.144 0.183-0.018 0.363 0.001 0.546-0.002 0.476-0.011 0.94-0.204 1.364-0.384 0.314-0.132 0.65-0.206 0.969-0.328 0.297-0.114 0.582-0.252 0.889-0.344 0.186-0.055 0.376-0.088 0.562-0.135 0.545-0.136 1.064-0.387 1.573-0.602 0.383-0.162 0.753-0.319 1.104-0.541 0.208-0.132 0.414-0.255 0.646-0.348 0.226-0.091 0.454-0.164 0.67-0.271 0.157-0.078 0.306-0.123 0.461-0.189 0.14-0.061 0.263-0.186 0.377-0.282 0.249-0.213 0.485-0.442 0.747-0.641 0.257-0.195 0.482-0.443 0.694-0.681 0.149-0.165 0.322-0.319 0.446-0.502 0.366-0.539 0.705-1.123 0.954-1.72 0.096-0.23 0.215-0.445 0.281-0.685 0.093-0.343 0.15-0.691 0.213-1.038 0.063-0.348 0.165-0.687 0.219-1.038 0.050-0.33 0.032-0.655 0.14-0.976 0.083-0.241-0.015-0.502-0.047-0.745-0.070-0.537-0.114-1.079-0.255-1.606-0.085-0.322-0.23-0.621-0.347-0.933-0.067-0.179-0.147-0.355-0.259-0.515-0.077-0.111-0.215-0.487-0.403-0.464-0.063 0.212-0.032 0.586 0.032 0.797 0.037 0.12 0.063 0.22 0.073 0.346 0.010 0.127 0.080 0.14 0.123 0.234 0.056 0.121 0.029 0.354 0.028 0.484-0.002 0.301-0.048 0.6-0.045 0.902 0.004 0.339 0.058 0.674 0.056 1.013-0.002 0.535-0.209 1.058-0.355 1.569-0.093 0.332-0.161 0.639-0.318 0.95-0.161 0.323-0.268 0.683-0.454 0.992-0.070 0.117-0.138 0.238-0.207 0.358z"></path>
<path d="M5.068 17.767c0.193 0.279 0.37 0.557 0.619 0.784 0.112 0.102 0.218 0.197 0.322 0.304 0.226 0.237 0.48 0.48 0.774 0.626 0.19 0.094 0.4 0.136 0.596 0.219 0.2 0.085 0.39 0.211 0.6 0.267 0.611 0.165 1.281 0.341 1.925 0.204 0.304-0.065 0.629-0.248 0.919-0.369 0.366-0.153 0.716-0.355 1.068-0.537 0.211-0.109 0.387-0.264 0.582-0.402 0.123-0.087 0.237-0.138 0.299-0.266 0.045-0.092 0.091-0.191 0.135-0.286 0.084-0.183 0.135-0.345 0.186-0.537 0.055-0.216 0.173-0.417 0.223-0.635 0.030-0.134 0.032-0.275 0.047-0.411 0.029-0.274 0.113-0.586 0.089-0.859-0.011-0.127-0.105-0.227-0.162-0.34-0.063-0.123-0.080-0.246-0.156-0.363-0.069-0.105-0.162-0.194-0.23-0.301-0.061-0.095-0.085-0.205-0.145-0.3-0.056-0.094-0.124-0.171-0.165-0.271-0.055-0.133-0.065-0.282-0.212-0.356-0.18-0.089-0.471-0.076-0.67-0.079-0.22-0.002-0.427 0.052-0.601 0.18-0.139 0.101-0.151 0.109-0.168 0.278-0.012 0.124-0.026 0.248-0.040 0.372-0.014 0.139-0.026 0.241 0.002 0.374 0.014 0.061 0.011 0.109 0.039 0.167 0.026 0.059 0.080 0.091 0.092 0.157-0.103 0.050-0.178-0.065-0.253-0.109-0.095-0.056-0.154-0.088-0.238-0.168-0.061-0.059-0.15-0.118-0.196-0.193-0.043-0.070-0.049-0.154-0.073-0.235-0.023-0.084-0.076-0.191-0.087-0.273-0.011-0.080 0.023-0.187 0.032-0.268 0.011-0.109 0.015-0.184 0.070-0.272 0.044-0.067 0.103-0.127 0.161-0.184 0.2-0.196 0.506-0.213 0.681-0.425 0.088-0.107 0.124-0.099 0.26-0.124 0.106-0.021 0.172-0.094 0.288-0.087 0.158 0.009 0.246 0.063 0.389 0.092 0.162 0.032 0.3 0.074 0.461 0.123 0.18 0.054 0.268 0.136 0.424 0.23 0.139 0.085 0.226 0.102 0.314 0.253 0.041 0.070 0.061 0.143 0.1 0.212 0.045 0.076 0.118 0.132 0.156 0.216 0.045 0.102 0.062 0.216 0.123 0.31 0.154 0.243 0.347 0.458 0.444 0.733 0.077 0.215 0.118 0.461 0.144 0.685 0.022 0.197 0.054 0.387 0.090 0.584 0.037 0.211 0.078 0.395 0.051 0.611-0.022 0.166-0.062 0.329-0.077 0.495-0.048 0.509-0.22 0.89-0.538 1.305-0.161 0.211-0.354 0.402-0.502 0.619-0.14 0.206-0.288 0.405-0.436 0.607-0.211 0.286-0.552 0.45-0.884 0.582-0.144 0.058-0.333 0.089-0.465 0.168-0.138 0.080-0.191 0.23-0.365 0.27-0.063 0.015-0.129 0.010-0.194 0.026-0.171 0.043-0.33 0.13-0.5 0.176-0.165 0.045-0.24 0.161-0.414 0.167-0.133 0.002-0.281 0.021-0.413 0.014-0.756-0.044-1.486-0.195-2.175-0.487-0.412-0.176-0.789-0.395-1.171-0.622-0.205-0.123-0.41-0.246-0.61-0.37-0.173-0.107-0.328-0.198-0.396-0.387-0.069-0.19-0.233-0.317-0.321-0.501-0.059-0.123-0.114-0.229-0.173-0.341-0.043-0.081-0.087-0.219-0.076-0.319 0.025-0.262 0.091-0.551 0.056-0.817-0.011-0.089-0.004-0.118 0.005-0.211 0.011-0.109-0.081-0.227-0.017-0.326 0.204 0.056 0.281 0.399 0.367 0.574 0.048 0.095 0.106 0.178 0.176 0.256 0.095 0.105 0.226 0.173-0.19-0.208z"></path>
<path d="M5.415 23.382c-0.014-0.011-0.028-0.022-0.040-0.034 0.435 0.367 0.86 0.739 1.273 1.129 0.325 0.307 0.652 0.588 1.039 0.826 0.311 0.193 0.618 0.384 0.91 0.6 0.453 0.334 0.897 0.655 1.392 0.936 0.486 0.277 0.933 0.601 1.448 0.833 0.551 0.246 1.189 0.447 1.788 0.551 0.344 0.059 0.698 0.106 1.046 0.142 0.256 0.027 0.494 0.087 0.746 0.139 0.33 0.069 0.677 0.114 1.012 0.158 0.321 0.043 0.586 0.124 0.899 0.201 0.597 0.149 1.219 0.080 1.828 0.040 1.039-0.069 2.128-0.256 3.119-0.556 0.248-0.076 0.445-0.153 0.674-0.267 0.223-0.11 0.469-0.158 0.692-0.27 0.343-0.172 0.645-0.395 0.983-0.571 0.424-0.223 0.78-0.505 1.185-0.754 0.328-0.202 0.647-0.445 0.86-0.76 0.062-0.118 0.136-0.227 0.226-0.329 0.073-0.063 0.138-0.133 0.195-0.208 0.023-0.052 0.011-0.099 0.044-0.154 0.125-0.211 0.694-0.409 0.465-0.659-0.088 0.023-0.186 0.191-0.256 0.248-0.133 0.107-0.246 0.234-0.383 0.337-0.23 0.176-0.505 0.315-0.769 0.439-0.573 0.27-1.186 0.442-1.763 0.696-0.217 0.096-0.402 0.235-0.59 0.373-0.138 0.099-0.284 0.15-0.443 0.209-0.146 0.054-0.282 0.136-0.436 0.165-0.136 0.025-0.238 0.094-0.367 0.121-0.127 0.026-0.256-0.001-0.383 0.032-0.078 0.022-0.144 0.067-0.219 0.098-0.165 0.067-0.339 0.084-0.515 0.118-0.23 0.044-0.452 0.036-0.683 0.065-0.208 0.026-0.401 0.111-0.606 0.134-0.494 0.055-0.977 0.102-1.477 0.127-0.564 0.028-1.138 0.044-1.701-0.023-0.46-0.054-0.918-0.157-1.369-0.249-0.574-0.116-1.214-0.083-1.741-0.351-0.154-0.078-0.279-0.191-0.421-0.288-0.092-0.062-0.189-0.116-0.29-0.162-0.434-0.195-0.899-0.362-1.354-0.504-0.231-0.072-0.464-0.138-0.695-0.209-0.285-0.087-0.578-0.138-0.86-0.226-0.253-0.079-0.457-0.245-0.706-0.329-0.288-0.096-0.487-0.18-0.731-0.359-0.707-0.522-1.401-1.075-2.154-1.532-0.252-0.151-0.534-0.286-0.754-0.478-0.173-0.15-0.311-0.429-0.562-0.476 0.099 0.184-0.229-0.050-0.23-0.047-0.051 0.116 0.118 0.228 0.178 0.315 0.107 0.154 0.168 0.322 0.31 0.456 0.12 0.114 0.256 0.218 0.385 0.323 0.085 0.070 0.24 0.325-0.197-0.014z"></path>
</svg>
