<!-- Generated by IcoMoon.io -->
<svg version="1.1" xmlns="http://www.w3.org/2000/svg" width="33" height="32" viewBox="0 0 33 32">
<title>the_stranger</title>
<path d="M19.783 16.396c-0.009 0.090-0.049 0.175-0.057 0.269-0.021 0.154-0.003 0.305-0.003 0.459 0.003 0.2-0.029 0.42-0.049 0.619-0.024 0.162-0.015 0.318-0.056 0.484-0.029 0.143-0.045 0.273-0.045 0.415 0 0.115 0.015 0.232 0.009 0.343-0.018 0.142-0.061 0.284-0.087 0.427-0.036 0.187-0.138 0.362-0.182 0.549-0.029 0.147-0.029 0.297-0.070 0.444-0.036 0.118-0.081 0.28-0.142 0.382-0.021 0.024-0.041 0.036-0.053 0.061-0.024 0.049-0.024 0.118-0.036 0.167-0.038 0.105-0.106 0.195-0.151 0.297-0.045 0.098-0.065 0.212-0.13 0.305-0.021 0.037-0.057 0.061-0.077 0.094-0.081 0.109-0.118 0.248-0.179 0.362-0.061 0.119-0.109 0.216-0.151 0.339-0.044 0.13-0.085 0.288-0.15 0.415-0.045 0.073-0.098 0.122-0.126 0.212-0.024 0.085-0.070 0.13-0.122 0.196-0.081 0.090-0.143 0.227-0.256 0.276-0.041 0.018-0.082 0.012-0.123 0.033-0.065 0.041-0.105 0.122-0.162 0.175-0.090 0.093-0.199 0.154-0.293 0.24-0.098 0.090-0.237 0.090-0.342 0.158-0.070 0.045-0.106 0.090-0.188 0.102-0.049 0.009-0.102 0-0.154 0-0.155 0.009-0.249 0.138-0.387 0.192-0.286 0.105-0.57 0.012-0.86-0.009-0.235-0.021-0.423-0.179-0.626-0.293-0.155-0.090-0.273-0.13-0.391-0.265-0.061-0.070-0.126-0.13-0.175-0.212-0.085-0.134-0.159-0.232-0.211-0.383-0.033-0.094-0.057-0.179-0.085-0.272-0.053-0.179-0.147-0.33-0.211-0.505-0.049-0.122-0.089-0.256-0.151-0.378-0.085-0.167-0.179-0.329-0.256-0.501-0.049-0.114-0.073-0.231-0.13-0.346-0.070-0.134-0.147-0.263-0.211-0.402-0.061-0.119-0.081-0.224-0.11-0.358-0.015-0.109-0.061-0.216-0.085-0.322-0.021-0.122-0.012-0.256-0.012-0.378 0-0.203-0.003-0.391-0.024-0.594-0.018-0.155-0.036-0.309-0.032-0.468 0.003-0.286-0.041-0.587-0.081-0.871-0.024-0.155-0.036-0.318-0.074-0.476-0.036-0.13-0.081-0.265-0.085-0.403-0.006-0.256-0.024-0.533 0.057-0.777 0.053-0.147 0.126-0.286 0.175-0.431 0.049-0.138 0.069-0.309 0.134-0.448 0.061-0.147 0.106-0.297 0.162-0.444 0.061-0.146 0.138-0.272 0.211-0.41 0.074-0.134 0.102-0.286 0.179-0.42 0.066-0.114 0.122-0.235 0.192-0.35 0.069-0.118 0.138-0.219 0.235-0.317 0.041-0.049 0.138-0.241 0.209-0.249-0.037-0.085 0.056-0.182 0.175-0.24 0.178-0.085 0.353-0.188 0.532-0.269 0.269-0.105 0.517-0.248 0.798-0.321 0.301-0.089 0.615-0.155 0.924-0.098 0.093 0.015 0.182-0.009 0.272 0.012 0.066 0.012 0.13 0.041 0.196 0.048 0.105 0.012 0.216 0.009 0.325 0.024 0.061 0.012 0.123 0.030 0.192 0.037 0.118 0.012 0.235 0.041 0.358 0.073 0.118 0.030 0.235 0.009 0.342 0.081 0.224 0.168 0.525 0.245 0.712 0.456 0.179 0.199 0.334 0.419 0.521 0.606 0.090 0.094 0.179 0.199 0.26 0.297 0.098 0.118 0.134 0.305 0.2 0.448 0.090 0.188 0.158 0.431 0.13 0.639-0.009 0.098 0.003 0.2 0.015 0.297 0.024 0.224 0.066 0.444 0.070 0.672 0.003 0.162 0.015 0.342 0 0.504zM20.472 16.146c-0.018-0.171-0.009-0.346-0.029-0.517-0.021-0.245-0.078-0.484-0.115-0.728-0.036-0.216-0.081-0.428-0.118-0.64-0.066-0.313-0.098-0.615-0.269-0.882-0.122-0.192-0.216-0.391-0.318-0.587-0.097-0.191-0.195-0.297-0.378-0.406-0.073-0.037-0.13-0.070-0.187-0.127-0.074-0.081-0.134-0.167-0.217-0.235-0.167-0.143-0.362-0.138-0.569-0.134-0.209 0-0.305-0.049-0.473-0.175-0.105-0.085-0.211-0.192-0.349-0.228-0.196-0.045-0.407-0.032-0.606-0.065-0.192-0.036-0.371-0.119-0.57-0.115-0.208 0-0.412 0.033-0.619 0.078-0.22 0.048-0.423 0.138-0.634 0.199-0.138 0.041-0.273 0.094-0.407 0.151-0.371 0.154-0.696 0.333-0.997 0.598-0.179 0.167-0.387 0.314-0.549 0.489-0.053 0.052-0.070 0.126-0.119 0.178-0.203 0.22-0.406 0.44-0.574 0.692-0.122 0.192-0.227 0.391-0.349 0.587-0.11 0.192-0.224 0.403-0.305 0.615-0.042 0.114-0.021 0.22-0.024 0.342-0.003 0.134-0.049 0.265-0.065 0.403-0.033 0.317-0.012 0.634-0.037 0.952-0.012 0.138-0.032 0.269-0.045 0.406-0.003 0.049-0.012 0.098-0.012 0.147v0.464c0 0.363-0.021 0.725 0.065 1.078 0.061 0.281 0.13 0.55 0.159 0.835 0.030 0.248 0.048 0.501 0.089 0.745 0.045 0.277 0.146 0.562 0.244 0.822 0.094 0.252 0.138 0.521 0.228 0.773 0.126 0.346 0.276 0.676 0.37 1.030 0.081 0.301 0.273 0.549 0.427 0.818 0.070 0.114 0.119 0.216 0.216 0.314 0.119 0.105 0.209 0.235 0.334 0.333 0.089 0.061 0.186 0.114 0.276 0.171 0.252 0.167 0.497 0.366 0.794 0.431 0.188 0.045 0.374 0.134 0.566 0.15 0.134 0.018 0.277 0 0.41 0 0.383 0 0.704-0.003 1.030-0.219 0.162-0.115 0.317-0.228 0.504-0.302 0.122-0.044 0.248-0.077 0.367-0.13 0.162-0.073 0.309-0.186 0.431-0.317 0.142-0.151 0.22-0.346 0.329-0.517 0.077-0.126 0.183-0.232 0.269-0.346 0.090-0.126 0.175-0.253 0.273-0.371 0.24-0.276 0.399-0.581 0.562-0.907 0.134-0.288 0.28-0.566 0.402-0.863 0.090-0.212 0.138-0.427 0.196-0.647 0.049-0.188 0.118-0.367 0.158-0.553 0.029-0.138 0.057-0.273 0.085-0.407 0.029-0.147 0.024-0.293 0.038-0.44 0.003-0.069 0.006-0.143 0.021-0.207 0.012-0.066 0.049-0.122 0.041-0.188-0.029-0.13 0-0.248 0.018-0.382 0.029-0.162 0.041-0.329 0.041-0.5v-1.127c0-0.175 0.012-0.358-0.009-0.538z"></path>
<path d="M11.781 19.18c0.018 0.041-0.009 0.041-0.021 0.069-0.021 0.053-0.037 0.087-0.041 0.147-0.009 0.179 0 0.363 0 0.546 0 0.317 0.036 0.651-0.024 0.968-0.085 0.42-0.085 0.867-0.244 1.266-0.045 0.122-0.126 0.26-0.2 0.363-0.118 0.167-0.284 0.297-0.406 0.459-0.066 0.090-0.143 0.167-0.22 0.237-0.049 0.049-0.102 0.094-0.159 0.138-0.089 0.069-0.175 0.134-0.244 0.216-0.22 0.272-0.363 0.61-0.72 0.72-0.2 0.057-0.424 0.15-0.578 0.284-0.057 0.049-0.118 0.070-0.183 0.102-0.094 0.045-0.179 0.094-0.273 0.138-0.216 0.105-0.423 0.265-0.614 0.41-0.082 0.066-0.164 0.134-0.256 0.183-0.066 0.029-0.066 0.045-0.061 0.115 0.003 0.122 0.049 0.187 0.126 0.28 0.167 0.179 0.346 0.329 0.529 0.484 0.211 0.179 0.427 0.318 0.664 0.464 0.357 0.232 0.716 0.448 1.098 0.64 0.126 0.065 0.252 0.114 0.382 0.154 0.106 0.036 0.208 0.069 0.305 0.122 0.098 0.045 0.183 0.11 0.286 0.143 0.143 0.041 0.288 0.102 0.41 0.175 0.151 0.090 0.286 0.167 0.444 0.231 0.183 0.082 0.354 0.175 0.546 0.228 0.227 0.066 0.447 0.143 0.679 0.192 0.118 0.021 0.224 0.069 0.338 0.090 0.081 0.012 0.171 0.003 0.256 0.003 0.269 0 0.542 0.052 0.806 0.097 0.41 0.061 0.83 0.082 1.241 0.029 0.416-0.053 0.826-0.070 1.241-0.122 0.339-0.045 0.689-0.090 1.026-0.164 0.309-0.065 0.611-0.154 0.931-0.207 0.587-0.094 1.161-0.235 1.697-0.493 0.085-0.041 0.164-0.105 0.249-0.13 0.045-0.006 0.085-0.012 0.126-0.032 0.097-0.049 0.203-0.081 0.305-0.13 0.199-0.094 0.41-0.158 0.614-0.248 0.245-0.11 0.469-0.244 0.733-0.329 0.244-0.078 0.451-0.241 0.663-0.371 0.126-0.077 0.265-0.134 0.383-0.216 0.276-0.175 0.472-0.578 0.304-0.891-0.065-0.127-0.162-0.245-0.244-0.363-0.102-0.162-0.293-0.265-0.44-0.382-0.224-0.179-0.492-0.387-0.761-0.493-0.057-0.024-0.13-0.036-0.192-0.061-0.105-0.041-0.199-0.138-0.301-0.195-0.154-0.094-0.297-0.224-0.44-0.333-0.13-0.102-0.224-0.256-0.366-0.346-0.115-0.070-0.26-0.123-0.387-0.168-0.082-0.032-0.175-0.061-0.269-0.073-0.053-0.003-0.119 0.003-0.179-0.012-0.175-0.061-0.171-0.227-0.224-0.382-0.024-0.081-0.077-0.138-0.098-0.216-0.024-0.065-0.036-0.126-0.052-0.195-0.042-0.147-0.102-0.26-0.102-0.416 0.003-0.171-0.045-0.309-0.066-0.476-0.006-0.065-0.015-0.293-0.109-0.309-0.13 0.208-0.252 0.407-0.35 0.64-0.077 0.186-0.196 0.333-0.322 0.496-0.105 0.151-0.199 0.309-0.288 0.48-0.085 0.171-0.126 0.367-0.269 0.501-0.199 0.195-0.427 0.346-0.643 0.521-0.273 0.207-0.497 0.464-0.781 0.655-0.143 0.097-0.297 0.178-0.448 0.272-0.182 0.106-0.362 0.122-0.566 0.122-0.211 0.003-0.406 0.049-0.611 0.021-0.342-0.057-0.663-0.154-0.993-0.237-0.154-0.041-0.382-0.097-0.472-0.235-0.105-0.162-0.269-0.286-0.37-0.456-0.036-0.065-0.085-0.101-0.122-0.162-0.070-0.085-0.11-0.195-0.172-0.28-0.045-0.066-0.101-0.098-0.142-0.164-0.033-0.049-0.041-0.101-0.053-0.158-0.024-0.138-0.024-0.256-0.024-0.399-0.003-0.276-0.159-0.48-0.326-0.688-0.057-0.081-0.113-0.147-0.134-0.244-0.030-0.126-0.053-0.232-0.118-0.346-0.057-0.115-0.036-0.241-0.036-0.367 0-0.113 0.006-0.232 0.003-0.354-0.003-0.114-0.030-0.216-0.094-0.314-0.024-0.045-0.057-0.085-0.081-0.134-0.053-0.101-0.074-0.212-0.147-0.304-0.032-0.038-0.085-0.074-0.106-0.123-0.012-0.029 0-0.077 0-0.113v-0.199c0-0.085-0.012-0.147-0.077-0.204-0.041-0.036-0.13-0.045-0.167-0.167z"></path>
<path d="M25.146 13.006c0.009-0.114 0.009-0.235-0.032-0.338-0.053-0.138-0.167-0.248-0.237-0.374-0.081-0.155-0.191-0.224-0.308-0.342-0.045-0.045-0.082-0.102-0.123-0.151-0.069-0.089-0.158-0.154-0.252-0.211-0.081-0.053-0.15-0.122-0.24-0.167-0.061-0.030-0.122-0.036-0.192-0.053-0.207-0.049-0.415-0.151-0.61-0.24-0.146-0.070-0.284-0.155-0.44-0.217-0.13-0.041-0.24-0.077-0.357-0.15-0.228-0.13-0.448-0.241-0.708-0.293-0.322-0.061-0.591-0.245-0.83-0.456-0.147-0.134-0.284-0.248-0.444-0.362-0.171-0.127-0.301-0.286-0.472-0.407-0.277-0.207-0.508-0.489-0.63-0.822-0.070-0.207-0.11-0.419-0.119-0.635-0.006-0.219 0.021-0.439 0.066-0.654 0.024-0.106 0.065-0.216 0.073-0.322 0-0.053-0.009-0.109 0-0.158 0.018-0.126 0.162-0.277 0.252-0.363 0.041-0.036 0.074-0.045 0.119-0.077 0.109-0.070 0.187-0.179 0.293-0.252 0.045-0.029 0.094-0.041 0.143-0.066 0.041-0.018 0.056-0.049 0.093-0.077 0.070-0.053 0.216-0.061 0.298-0.077 0.090-0.024 0.175-0.049 0.265-0.074 0.089-0.015 0.186-0.006 0.284-0.024 0.134-0.024 0.277-0.049 0.41-0.049 0.066 0 0.123 0.024 0.183 0.041 0.090 0.018 0.164-0.029 0.252-0.032 0.094-0.003 0.22 0.053 0.302 0.090 0.089 0.041 0.133 0.105 0.212 0.158 0.126 0.085 0.24 0.192 0.362 0.286 0.106 0.077 0.175 0.182 0.252 0.288 0.066 0.094 0.106 0.212 0.164 0.309 0.094 0.154 0.081 0.284 0.041 0.464-0.032 0.122-0.045 0.273-0.11 0.387-0.032 0.070-0.085 0.13-0.138 0.188-0.024 0.029-0.038 0.057-0.078 0.069 0.053-0.032 0.053-0.126 0.070-0.183 0.015-0.081 0.056-0.174 0.061-0.252v-0.179c0.003-0.085-0.032-0.101-0.077-0.162-0.029-0.045-0.049-0.101-0.085-0.143-0.045-0.045-0.109-0.073-0.158-0.105-0.277-0.228-0.64-0.318-0.952-0.484-0.090-0.045-0.164-0.041-0.26-0.041-0.098-0.003-0.171-0.029-0.265-0.045-0.102-0.018-0.269 0.003-0.367 0.045-0.036 0.012-0.065 0.041-0.094 0.061-0.179 0.13-0.362 0.244-0.485 0.435-0.113 0.182-0.26 0.394-0.244 0.618 0.009 0.122 0.081 0.256 0.13 0.367 0.057 0.122 0.113 0.224 0.188 0.333 0.069 0.094 0.126 0.192 0.183 0.293 0.041 0.074 0.097 0.127 0.142 0.196 0.115 0.158 0.245 0.297 0.382 0.44 0.119 0.118 0.269 0.199 0.399 0.305 0.256 0.203 0.566 0.374 0.871 0.504 0.196 0.077 0.399 0.134 0.595 0.224 0.187 0.085 0.362 0.175 0.557 0.24 0.415 0.151 0.822 0.228 1.213 0.44 0.114 0.061 0.305 0.119 0.387 0.228 0.029 0.032 0.041 0.094 0.057 0.13 0.041 0.085 0.093 0.167 0.154 0.241 0.085 0.093 0.175 0.19 0.26 0.293 0.151 0.19 0.252 0.415 0.281 0.659 0.021 0.134 0.036 0.216 0.093 0.346 0.070 0.142 0.078 0.26 0.074 0.415 0 0.309 0.024 0.627 0 0.932-0.029 0.28-0.151 0.537-0.314 0.765-0.188 0.277-0.464 0.48-0.591 0.794-0.056 0.142-0.171 0.224-0.297 0.309-0.154 0.113-0.317 0.22-0.48 0.325-0.171 0.11-0.333 0.269-0.525 0.346-0.089 0.041-0.178 0.057-0.272 0.090-0.281 0.098-0.538 0.26-0.822 0.35-0.224 0.073-0.456 0.138-0.684 0.224-0.203 0.077-0.276 0.049-0.468-0.053-0.098-0.061-0.24-0.118-0.272-0.244-0.049-0.171 0-0.42 0-0.591 0-0.065-0.021-0.154 0.029-0.191 0.049-0.036 0.15-0.003 0.207-0.012 0.003 0 0.009-0.024 0.029-0.029 0.066-0.012 0.155 0 0.22-0.003 0.209-0.018 0.42-0.045 0.619-0.098 0.277-0.077 0.553-0.147 0.826-0.248 0.574-0.22 1.033-0.655 1.388-1.161 0.203-0.293 0.395-0.602 0.468-0.964 0.024-0.155 0.078-0.309 0.085-0.465 0-0.041 0.003-0.085 0.003-0.13z"></path>
<path d="M10.793 20.067c-0.009-0.029-0.024-0.061-0.057-0.094-0.179-0.171-0.532-0.138-0.749-0.183-0.26-0.049-0.524-0.192-0.712-0.37-0.098-0.098-0.126-0.237-0.216-0.339-0.077-0.090-0.134-0.179-0.179-0.293-0.069-0.195-0.109-0.374-0.106-0.582 0-0.182-0.012-0.374-0.048-0.553-0.018-0.081-0.049-0.13-0.078-0.203-0.049-0.158-0.073-0.326-0.118-0.484-0.009-0.036-0.018-0.069-0.041-0.105-0.030-0.053-0.085-0.090-0.134-0.13-0.162-0.151-0.273-0.354-0.431-0.514-0.147-0.146-0.318-0.28-0.489-0.395-0.118-0.081-0.199-0.191-0.314-0.272-0.061-0.045-0.126-0.066-0.195-0.098-0.147-0.066-0.269-0.154-0.436-0.158-0.118-0.003-0.232-0.033-0.354-0.037-0.216-0.003-0.435-0.006-0.651-0.015-0.077-0.009-0.098 0.030-0.154 0.073-0.147 0.11-0.294 0.207-0.427 0.326-0.106 0.089-0.2 0.167-0.273 0.288-0.066 0.113-0.126 0.212-0.207 0.314-0.057 0.081-0.078 0.187-0.102 0.28-0.024 0.106-0.057 0.212-0.081 0.314-0.029 0.143-0.003 0.286-0.003 0.423 0 0.134-0.009 0.26 0.003 0.395 0.029 0.22 0.175 0.395 0.293 0.574 0.118 0.162 0.241 0.338 0.378 0.48 0.143 0.143 0.326 0.232 0.465 0.378 0.105 0.119 0.195 0.26 0.272 0.391 0.134 0.224 0.175 0.505 0.175 0.762v0.496c0 0.183-0.052 0.334-0.13 0.501-0.056 0.134-0.158 0.26-0.268 0.357-0.123 0.106-0.245 0.138-0.399 0.183-0.081 0.029-0.155 0.053-0.224 0.11-0.032 0.021-0.057 0.049-0.098 0.061-0.045 0.018-0.179-0.003-0.179 0.066 0.074 0.015 0.164 0.003 0.241 0.003 0.154 0 0.374-0.009 0.517-0.077 0.053-0.033 0.098-0.082 0.154-0.102 0.074-0.032 0.151-0.041 0.22-0.085 0.126-0.081 0.286-0.207 0.375-0.333 0.012-0.021 0.032-0.049 0.048-0.078 0.224-0.366 0.217-0.822 0.217-1.245 0-0.363-0.066-0.777-0.213-1.115-0.13-0.294-0.427-0.436-0.602-0.688-0.227-0.318-0.541-0.591-0.545-1.018-0.009-0.134-0.041-0.284-0.032-0.423 0.006-0.066 0.032-0.119 0.056-0.167 0.029-0.033 0.053-0.070 0.085-0.102 0.134-0.147 0.281-0.305 0.431-0.427 0.045-0.036 0.078-0.090 0.126-0.119 0.074-0.048 0.172-0.024 0.249-0.021 0.126 0.003 0.244 0.057 0.366 0.090 0.11 0.024 0.22 0.036 0.322 0.085 0.171 0.090 0.342 0.244 0.48 0.374 0.15 0.143 0.301 0.314 0.427 0.489 0.061 0.090 0.147 0.154 0.203 0.256 0.057 0.11 0.085 0.232 0.147 0.342 0.053 0.094 0.094 0.192 0.147 0.286 0.056 0.109 0.097 0.179 0.114 0.305 0.024 0.223 0.041 0.443 0.081 0.663 0.024 0.119 0.032 0.241 0.053 0.358 0.030 0.126 0.085 0.248 0.126 0.371 0.094 0.263 0.329 0.41 0.545 0.573 0.106 0.085 0.192 0.16 0.322 0.208s0.269 0.105 0.387 0.171c0.171 0.090 0.338 0.24 0.521 0.293 0.158 0.045 0.395 0.029 0.557 0.009 0.134-0.012 0.098-0.074 0.098-0.196v-0.244c-0.003-0.126 0.077-0.265 0.045-0.378z"></path>
<path d="M10.662 15.301c-0.13-0.069-0.277-0.097-0.399-0.187-0.171-0.126-0.232-0.318-0.301-0.517s-0.089-0.435-0.089-0.64c0-0.118 0.021-0.227 0.036-0.338 0.009-0.081 0.021-0.183 0.049-0.26 0.057-0.13 0.147-0.256 0.232-0.37 0.158-0.228 0.325-0.448 0.489-0.676 0.109-0.154 0.231-0.305 0.329-0.476 0.085-0.158 0.134-0.329 0.171-0.508 0.045-0.248 0.151-0.472 0.203-0.717 0.040-0.178 0.074-0.366 0.081-0.557 0.012-0.175 0.012-0.354-0.024-0.525-0.012-0.069-0.030-0.154-0.057-0.22-0.024-0.061-0.073-0.114-0.105-0.167-0.070-0.122-0.115-0.321-0.245-0.41-0.048-0.036-0.105-0.045-0.158-0.077-0.057-0.033-0.106-0.087-0.162-0.127-0.167-0.126-0.358-0.203-0.562-0.235-0.094-0.018-0.204-0.003-0.297-0.032-0.033-0.009-0.061-0.024-0.094-0.041-0.237-0.082-0.48-0.074-0.728-0.061-0.070 0.009-0.143 0.045-0.213 0.053-0.030 0-0.048 0.003-0.073 0.009-0.036 0.015-0.069 0.032-0.109 0.048-0.102 0.057-0.2 0.089-0.29 0.168-0.158 0.142-0.284 0.342-0.354 0.545-0.041 0.106-0.085 0.207-0.101 0.326-0.021 0.126-0.003 0.26-0.003 0.391-0.003 0.263 0.057 0.517 0.061 0.781 0.003 0.178-0.006 0.427-0.118 0.59-0.032 0.036-0.073 0.073-0.101 0.118-0.049 0.066-0.066 0.151-0.094 0.228-0.033 0.081-0.090 0.154-0.134 0.228-0.070 0.122-0.147 0.24-0.252 0.329-0.024 0.024-0.033 0.049-0.057 0.061-0.053 0.036-0.102 0.036-0.158 0.081-0.070 0.057-0.11 0.134-0.196 0.167-0.13 0.057-0.265 0.098-0.399 0.143-0.175 0.061-0.362 0.109-0.537 0.175-0.061 0.021-0.106 0.024-0.168 0.041-0.024 0.003-0.041 0.021-0.073 0.024h-0.077c-0.126-0.015-0.155-0.138-0.237-0.207-0.052-0.045-0.199-0.106-0.186-0.199 0.085-0.030 0.171 0.012 0.248 0.032 0.102 0.024 0.195 0.024 0.301 0.024 0.273 0 0.468-0.134 0.7-0.252 0.22-0.122 0.427-0.325 0.517-0.57 0.073-0.195 0.134-0.399 0.154-0.602 0.029-0.232 0.041-0.468 0.041-0.7 0-0.146-0.029-0.333 0.003-0.476 0.033-0.122 0.078-0.216 0.094-0.338 0.018-0.118 0.070-0.22 0.115-0.333 0.048-0.13 0.073-0.273 0.126-0.403 0.171-0.387 0.566-0.634 0.878-0.892 0.089-0.073 0.192-0.203 0.302-0.231 0.041-0.009 0.077 0 0.118 0.003 0.146 0.003 0.301-0.053 0.444-0.094 0.26-0.073 0.5-0.115 0.777-0.115 0.195 0 0.378 0 0.57 0.042 0.195 0.048 0.357 0.113 0.524 0.223 0.168 0.11 0.33 0.216 0.48 0.346 0.175 0.155 0.371 0.35 0.493 0.55 0.196 0.329 0.363 0.712 0.415 1.095 0.030 0.223 0.021 0.447 0.021 0.671 0.003 0.228-0.021 0.472-0.085 0.696-0.041 0.118-0.069 0.228-0.158 0.314-0.053 0.061-0.089 0.122-0.126 0.191-0.074 0.175-0.119 0.363-0.192 0.538-0.094 0.232-0.232 0.472-0.412 0.643-0.077 0.081-0.162 0.143-0.24 0.224-0.085 0.094-0.126 0.192-0.183 0.297-0.057 0.102-0.098 0.224-0.162 0.318-0.162 0.228-0.158 0.549 0.012 0.765 0.052 0.061 0.142 0.13 0.15 0.22 0.012 0.077-0.053 0.147-0.077 0.22-0.053 0.138-0.073 0.293-0.113 0.431-0.024 0.098-0.078 0.188-0.147 0.265-0.024-0.021-0.057-0.045-0.085-0.057z"></path>
<path d="M21.365 19.030c0-0.057 0.009-0.115 0.038-0.151 0.089-0.102 0.248-0.009 0.342 0.036 0.305 0.147 0.635 0.29 0.916 0.48 0.325 0.22 0.683 0.48 0.891 0.83 0.094 0.154 0.196 0.284 0.314 0.419 0.146 0.167 0.231 0.431 0.276 0.644 0.018 0.077 0.012 0.15 0.021 0.227 0.003 0.057 0.032 0.11 0.041 0.167 0.003 0.090-0.049 0.188-0.053 0.281-0.003 0.053 0.003 0.11 0.003 0.171-0.003 0.154 0.061 0.293 0.077 0.444 0.018 0.158 0.085 0.301 0.102 0.459 0.012 0.13 0.106 0.228 0.138 0.346 0.015 0.053 0.015 0.115 0.029 0.171 0.029 0.11 0.094 0.188 0.188 0.256 0.090 0.061 0.179 0.123 0.265 0.188 0.101 0.073 0.191 0.143 0.321 0.158 0.119 0.018 0.228 0.066 0.346 0.057 0.273-0.018 0.44-0.188 0.647-0.314 0.175-0.109 0.343-0.182 0.428-0.382 0.065-0.154 0.109-0.284 0.049-0.444-0.045-0.126-0.049-0.256-0.098-0.378-0.057-0.138-0.106-0.252-0.138-0.399-0.021-0.090-0.061-0.175-0.069-0.26-0.003-0.097 0.029-0.203 0.056-0.288 0.018-0.073 0.018-0.143 0.041-0.212 0.021-0.081 0.061-0.162 0.090-0.248 0.074-0.208 0.207-0.326 0.395-0.452 0.073-0.049 0.151-0.090 0.22-0.138 0.032-0.021 0.041-0.045 0.081-0.041 0.003 0.077-0.101 0.167-0.143 0.228-0.085 0.134-0.167 0.26-0.219 0.41-0.147 0.399-0.057 0.781 0.065 1.172 0.041 0.115 0.118 0.228 0.126 0.342 0.018 0.090-0.029 0.172-0.032 0.26-0.009 0.134-0.053 0.253-0.094 0.375-0.032 0.101-0.045 0.212-0.081 0.314-0.094 0.268-0.265 0.492-0.484 0.679-0.061 0.053-0.109 0.109-0.188 0.138-0.052 0.024-0.093 0.032-0.142 0.069-0.155 0.122-0.297 0.22-0.493 0.265-0.090 0.024-0.179 0.066-0.277 0.069-0.077 0-0.142-0.024-0.212-0.041-0.179-0.040-0.321-0.097-0.48-0.195-0.305-0.183-0.532-0.468-0.651-0.806-0.085-0.268-0.162-0.549-0.252-0.822-0.069-0.227-0.114-0.464-0.188-0.696-0.069-0.223-0.093-0.476-0.19-0.696-0.049-0.105-0.115-0.199-0.158-0.304-0.053-0.138-0.074-0.286-0.147-0.416-0.11-0.207-0.305-0.435-0.489-0.598-0.248-0.216-0.643-0.367-0.956-0.472-0.094-0.033-0.191-0.070-0.293-0.070-0.073-0.003-0.171 0.036-0.22-0.036-0.077-0.114 0.090-0.284 0.134-0.378 0.045-0.102 0.081-0.22 0.102-0.326 0.003-0.024 0.003-0.061 0.006-0.093z"></path>
<path d="M11.501 10.792c0.056-0.211 0.114-0.399 0.223-0.59 0.204-0.35 0.484-0.639 0.802-0.892 0.118-0.097 0.26-0.146 0.399-0.216 0.158-0.073 0.314-0.162 0.472-0.24 0.143-0.066 0.288-0.085 0.435-0.143 0.147-0.049 0.284-0.118 0.427-0.179 0.549-0.244 1.029-0.728 1.335-1.241 0.204-0.326 0.387-0.749 0.294-1.144-0.012-0.069-0.049-0.13-0.070-0.195-0.032-0.090-0.032-0.183-0.069-0.277-0.033-0.094-0.089-0.188-0.159-0.269-0.045-0.061-0.105-0.105-0.15-0.175-0.036-0.052-0.061-0.109-0.102-0.162-0.085-0.109-0.211-0.188-0.325-0.277-0.171-0.13-0.379-0.256-0.599-0.308-0.13-0.033-0.263-0.012-0.394 0.029-0.102 0.029-0.188 0.085-0.29 0.102-0.216 0.032-0.468 0.191-0.455 0.443 0.003 0.090 0 0.179 0 0.269 0 0.151 0.009 0.273 0.041 0.416 0.041 0.171 0.146 0.325 0.199 0.496 0.012 0.049 0.024 0.134 0.053 0.167 0.036 0.045 0.065 0.078 0.098 0.13 0.024 0.045 0.056 0.094 0.089 0.134 0.015 0.029 0.077 0.077 0.056 0.122-0.032-0.006-0.065-0.041-0.097-0.052-0.078-0.036-0.11-0.070-0.179-0.119-0.098-0.073-0.204-0.15-0.294-0.24-0.073-0.069-0.097-0.158-0.15-0.241-0.045-0.061-0.102-0.105-0.143-0.162-0.118-0.171-0.085-0.399-0.081-0.585 0-0.237-0.024-0.44 0.122-0.635 0.085-0.118 0.151-0.24 0.237-0.354 0.081-0.109 0.24-0.158 0.338-0.244 0.066-0.053 0.126-0.102 0.203-0.134 0.078-0.036 0.164-0.090 0.241-0.113 0.089-0.021 0.216-0.003 0.309-0.003h0.265c0.26 0 0.521 0.049 0.744 0.192 0.143 0.089 0.281 0.203 0.395 0.321 0.134 0.126 0.277 0.228 0.391 0.374 0.102 0.134 0.2 0.277 0.256 0.432 0.024 0.052 0.053 0.097 0.078 0.146 0.094 0.216 0.105 0.464 0.13 0.688 0.036 0.326 0.061 0.664 0.024 0.99-0.029 0.276-0.081 0.622-0.273 0.842-0.048 0.049-0.105 0.081-0.158 0.122-0.162 0.115-0.235 0.318-0.391 0.44-0.134 0.11-0.28 0.2-0.415 0.297-0.209 0.138-0.428 0.216-0.635 0.339-0.162 0.093-0.284 0.154-0.468 0.191-0.138 0.021-0.244 0.066-0.363 0.115-0.089 0.032-0.182 0.041-0.268 0.081-0.175 0.073-0.33 0.199-0.469 0.325-0.142 0.122-0.305 0.232-0.423 0.378-0.094 0.11-0.154 0.232-0.24 0.343-0.11 0.142-0.159 0.325-0.265 0.472-0.122 0.158-0.22 0.354-0.294 0.537-0.048 0.123-0.118 0.448-0.313 0.305-0.122-0.089-0.061-0.265-0.061-0.399-0.003-0.167 0.032-0.333 0.032-0.5-0.003-0.113 0-0.224-0.097-0.143z"></path>
<path d="M23.938 15.249c0.118-0.106 0.241-0.22 0.358-0.326 0.146-0.13 0.321-0.211 0.484-0.318 0.203-0.13 0.399-0.288 0.622-0.382 0.126-0.053 0.26-0.085 0.383-0.142 0.126-0.061 0.24-0.094 0.378-0.098 0.207-0.012 0.427-0.118 0.639-0.094 0.126 0.012 0.248 0.061 0.371 0.089 0.15 0.036 0.272 0.098 0.41 0.179 0.241 0.146 0.542 0.162 0.717 0.406 0.15 0.216 0.321 0.399 0.443 0.64 0.090 0.179 0.183 0.37 0.232 0.557 0.203 0.839-0.269 1.753-0.952 2.222-0.199 0.138-0.407 0.26-0.639 0.346-0.122 0.041-0.249 0.077-0.379 0.101s-0.26 0.009-0.394 0.033c-0.134 0.021-0.269 0.024-0.412 0.021-0.081 0-0.147-0.069-0.224-0.061 0.018 0.003 0.032 0 0.049-0.003-0.003-0.066-0.077-0.078-0.114-0.098-0.070-0.045-0.106-0.126-0.16-0.183-0.052-0.053-0.114-0.134-0.146-0.195-0.024-0.049-0.003-0.102-0.021-0.151-0.009-0.032-0.036-0.053-0.032-0.090 0.012 0.286 0.28 0.265 0.484 0.326 0.138 0.036 0.235 0.093 0.391 0.045 0.114-0.038 0.227-0.009 0.342-0.038 0.122-0.036 0.216-0.171 0.342-0.22 0.114-0.048 0.232-0.052 0.325-0.138 0.115-0.098 0.257-0.123 0.371-0.224 0.073-0.070 0.154-0.175 0.203-0.265 0.094-0.175 0.179-0.363 0.179-0.557 0-0.192 0.003-0.382 0.009-0.566 0.003-0.089 0.021-0.183 0.012-0.269-0.009-0.089-0.066-0.175-0.094-0.26-0.024-0.077-0.049-0.138-0.118-0.175-0.164-0.081-0.29-0.216-0.469-0.26-0.24-0.065-0.48-0.151-0.724-0.195-0.216-0.042-0.497 0.021-0.688 0.13-0.077 0.044-0.158 0.077-0.241 0.114-0.171 0.073-0.305 0.188-0.459 0.288-0.147 0.098-0.26 0.224-0.407 0.314-0.142 0.085-0.26 0.211-0.374 0.322-0.109 0.105-0.237 0.090-0.374 0.126-0.171 0.056-0.305 0.162-0.456 0.256z"></path>
</svg>
