<!-- Generated by IcoMoon.io -->
<svg version="1.1" xmlns="http://www.w3.org/2000/svg" width="32" height="32" viewBox="0 0 32 32">
<title>the_plaguebearers_commands</title>
<path d="M5.894 30.96c-0.103-0.034-0.297-0.166-0.43-0.294l-0.243-0.233 0.037-0.521c0.020-0.286 0.070-0.624 0.11-0.751s0.115-0.368 0.166-0.537c0.051-0.169 0.2-0.488 0.333-0.708s0.309-0.609 0.392-0.863c0.127-0.391 0.151-0.552 0.148-1.035-0.005-1.019-0.037-1.471-0.104-1.471-0.034 0-0.147-0.087-0.25-0.193-0.132-0.136-0.294-0.225-0.549-0.303-0.371-0.113-0.55-0.251-0.619-0.476-0.040-0.133-0.292-0.574-0.486-0.853-0.129-0.186-0.143-0.588-0.041-1.253 0.032-0.21 0.060-0.651 0.061-0.98 0.003-0.563 0.013-0.616 0.164-0.872 0.088-0.15 0.208-0.333 0.267-0.406l0.106-0.134 1.68 0.075c0.924 0.041 1.96 0.089 2.302 0.106l0.622 0.031 0.19 0.27c0.171 0.243 0.194 0.32 0.229 0.763 0.022 0.271 0.078 0.59 0.125 0.71 0.117 0.297 0.111 0.57-0.018 0.899-0.060 0.152-0.109 0.338-0.109 0.414 0 0.163-0.071 0.306-0.283 0.571-0.086 0.107-0.17 0.28-0.187 0.384-0.026 0.158-0.096 0.237-0.434 0.483-0.415 0.303-0.426 0.318-0.49 0.676-0.021 0.117-0.107 0.326-0.192 0.463s-0.193 0.397-0.24 0.577c-0.047 0.18-0.161 0.609-0.252 0.953-0.252 0.953-0.26 1.009-0.262 1.805-0.002 0.72-0.009 0.764-0.224 1.413-0.122 0.369-0.245 0.714-0.273 0.767-0.061 0.114-0.733 0.517-0.925 0.555-0.073 0.015-0.217-0.001-0.32-0.034zM23.287 29.314l-0.28-0.135-0.027-0.423c-0.015-0.233-0.043-0.473-0.063-0.533-0.028-0.085 0.024-0.174 0.225-0.382 0.144-0.149 0.446-0.526 0.671-0.836s0.509-0.684 0.631-0.83c0.122-0.146 0.29-0.399 0.373-0.562 0.141-0.278 0.149-0.333 0.132-0.875l-0.019-0.579-0.256-0.241c-0.163-0.154-0.305-0.241-0.393-0.241-0.106 0-0.17-0.058-0.286-0.259-0.082-0.142-0.221-0.353-0.31-0.468l-0.162-0.209 0.032-0.832c0.026-0.672 0.054-0.881 0.144-1.085 0.062-0.139 0.163-0.369 0.226-0.511 0.095-0.215 0.204-0.903 0.211-1.334 0.004-0.231 0.968-0.286 2.036-0.115 0.375 0.060 0.757 0.078 1.267 0.061 0.837-0.028 0.861-0.018 0.99 0.437 0.249 0.878 0.35 1.473 0.349 2.063-0 0.547-0.015 0.637-0.138 0.872-0.076 0.144-0.193 0.384-0.259 0.534-0.083 0.185-0.293 0.443-0.656 0.803-0.294 0.292-0.523 0.531-0.508 0.531s-0.072 0.19-0.191 0.422c-0.165 0.32-0.218 0.488-0.221 0.695-0.002 0.15-0.052 0.444-0.111 0.654s-0.133 0.516-0.163 0.681c-0.037 0.201-0.105 0.353-0.208 0.463-0.235 0.251-0.576 0.737-0.731 1.043-0.077 0.152-0.201 0.349-0.277 0.439s-0.193 0.271-0.262 0.403c-0.122 0.234-0.133 0.241-0.452 0.275-0.179 0.019-0.449 0.074-0.599 0.122-0.355 0.113-0.385 0.111-0.716-0.048zM14.239 29.357c-0.067-0.013-0.144-0.065-0.17-0.115-0.064-0.123-0.224-0.934-0.224-1.136 0-0.221 0.153-0.664 0.297-0.862 0.065-0.090 0.27-0.453 0.455-0.806s0.432-0.758 0.549-0.899c0.117-0.141 0.265-0.354 0.328-0.474s0.17-0.287 0.237-0.372c0.107-0.134 0.124-0.228 0.138-0.735 0.014-0.51 0.002-0.604-0.097-0.762-0.062-0.099-0.188-0.222-0.28-0.272-0.421-0.232-0.625-0.383-0.682-0.505-0.38-0.808-0.398-0.894-0.407-1.912-0.009-1.076 0.013-1.156 0.417-1.51 0.376-0.33 0.467-0.352 1.141-0.284 0.718 0.073 3.142 0.082 3.382 0.013 0.11-0.031 0.26-0.025 0.432 0.019 0.236 0.060 0.276 0.093 0.373 0.307s0.107 0.342 0.096 1.217c-0.011 0.856-0.029 1.028-0.142 1.389-0.071 0.227-0.147 0.498-0.168 0.603-0.067 0.334-0.311 0.673-0.787 1.095-0.571 0.506-0.708 0.7-0.708 0.999 0 0.187-0.033 0.258-0.191 0.411-0.105 0.102-0.191 0.211-0.191 0.244 0 0.138-0.769 1.584-0.939 1.765-0.102 0.109-0.226 0.263-0.276 0.344s-0.163 0.189-0.252 0.241c-0.089 0.052-0.204 0.174-0.255 0.27-0.054 0.101-0.179 0.212-0.297 0.264-0.336 0.148-1.032 0.872-1.196 1.245-0.12 0.272-0.187 0.297-0.586 0.22zM8.745 17.758c-0.033-0.012-0.497-0.040-1.032-0.062l-0.972-0.039-0.049-0.191c-0.027-0.105-0.096-0.241-0.153-0.303s-0.105-0.166-0.105-0.23c0-0.065-0.040-0.217-0.088-0.339-0.087-0.217-0.085-0.228 0.080-0.614 0.092-0.216 0.175-0.466 0.184-0.555 0.014-0.14 0.053-0.176 0.288-0.263 0.342-0.127 0.44-0.216 0.612-0.555 0.134-0.265 0.137-0.292 0.11-1.144-0.017-0.537-0.055-0.93-0.097-1.022-0.059-0.127-0.055-0.182 0.028-0.366 0.054-0.119 0.14-0.255 0.192-0.302 0.087-0.079 0.097-0.070 0.129 0.13 0.045 0.278 0.247 0.515 0.538 0.631 0.4 0.159 0.477 0.268 0.477 0.675 0 0.195-0.038 0.516-0.084 0.712s-0.109 0.468-0.14 0.603c-0.136 0.603-0.168 0.662-0.402 0.762-0.123 0.053-0.301 0.113-0.396 0.133s-0.255 0.091-0.354 0.157c-0.1 0.065-0.266 0.163-0.37 0.217-0.28 0.146-0.406 0.347-0.406 0.647 0 0.303 0.129 0.504 0.441 0.688 0.201 0.119 0.255 0.124 0.989 0.103l0.776-0.022v0.2c0 0.213-0.097 0.386-0.196 0.349zM26.454 17.355c-0.12-0.025-0.394-0.047-0.609-0.049-0.443-0.003-0.488-0.040-0.722-0.575-0.065-0.15-0.182-0.397-0.259-0.549-0.177-0.349-0.126-0.47 0.273-0.649 0.155-0.070 0.366-0.19 0.469-0.267 0.104-0.078 0.26-0.141 0.35-0.141 0.251 0 0.615-0.203 0.747-0.417 0.171-0.276 0.128-0.957-0.087-1.381-0.143-0.282-0.149-0.324-0.122-0.878 0.027-0.579 0.029-0.583 0.237-0.832 0.164-0.196 0.244-0.25 0.374-0.25l0.166 0 0.001 0.967c0.001 0.902 0.011 0.995 0.146 1.384 0.1 0.29 0.156 0.592 0.183 0.991l0.038 0.574-0.13 0.027c-0.071 0.015-0.33 0.040-0.575 0.055-0.542 0.035-1.023 0.196-1.243 0.416-0.146 0.146-0.164 0.2-0.164 0.494 0 0.31 0.012 0.341 0.199 0.512 0.261 0.239 0.589 0.294 0.985 0.164 0.157-0.051 0.411-0.106 0.566-0.122 0.249-0.026 0.289-0.015 0.345 0.090 0.035 0.065 0.056 0.197 0.047 0.293l-0.017 0.174-0.49 0.008c-0.27 0.005-0.588-0.012-0.708-0.038zM17.745 17.132c-0.042-0.101-0.092-0.286-0.113-0.411s-0.114-0.346-0.207-0.49c-0.135-0.21-0.174-0.336-0.192-0.623l-0.023-0.36 0.222-0.157c0.383-0.272 0.45-0.785 0.177-1.361-0.176-0.372-0.305-0.89-0.238-0.956 0.024-0.024 0.166-0.008 0.315 0.037s0.375 0.106 0.502 0.137c0.213 0.052 0.232 0.070 0.232 0.233 0 0.097 0.052 0.323 0.116 0.502 0.122 0.342 0.208 1.522 0.119 1.632-0.024 0.030-0.117 0.092-0.206 0.138-0.208 0.107-0.41 0.406-0.41 0.608 0 0.236 0.136 0.514 0.306 0.626 0.114 0.075 0.295 0.106 0.726 0.127l0.575 0.027 0.033 0.341-0.398 0.034c-0.219 0.019-0.637 0.049-0.929 0.067l-0.531 0.033zM0.989 10.424c0-0.897 0.008-0.969 0.136-1.26 0.129-0.292 0.136-0.36 0.136-1.306 0-1.148-0.046-1.042 0.599-1.388 0.549-0.294 1.111-0.499 1.369-0.499 0.117 0 0.316-0.047 0.443-0.104 0.145-0.065 0.475-0.127 0.885-0.166 0.359-0.034 0.788-0.088 0.953-0.121 0.812-0.161 1.463-0.148 2.336 0.044 0.417 0.092 1.048 0.080 1.695-0.033 0.165-0.029 0.52-0.085 0.79-0.125s0.552-0.107 0.626-0.149c0.106-0.060 0.5-0.080 1.798-0.094 1.482-0.016 1.712-0.031 2.129-0.135 0.461-0.115 0.473-0.116 0.79-0.018 0.177 0.054 0.396 0.154 0.485 0.22 0.23 0.171 0.567 0.335 0.784 0.381 0.169 0.036 0.45 0.259 1.095 0.869 0.255 0.241 0.66 0.508 0.912 0.6 0.113 0.041 0.449 0.187 0.747 0.323s0.654 0.262 0.79 0.281c0.136 0.018 0.356 0.068 0.489 0.111s0.336 0.078 0.453 0.078c0.155 0 0.268 0.045 0.422 0.169 0.271 0.218 0.695 0.311 1.608 0.352 0.654 0.030 0.741 0.022 1.144-0.104 0.46-0.144 1.195-0.488 1.257-0.588 0.070-0.114 0.488-0.263 0.739-0.264 0.187-0.001 0.365-0.059 0.679-0.219 0.434-0.222 0.706-0.269 0.958-0.167 0.069 0.028 0.297 0.103 0.506 0.167 0.406 0.123 0.97 0.391 1.134 0.538 0.055 0.049 0.225 0.15 0.379 0.225 0.257 0.125 0.58 0.467 0.668 0.708 0.016 0.045 0.108 0.236 0.204 0.424 0.149 0.293 0.162 0.349 0.093 0.394-0.156 0.1-0.291 0.053-0.512-0.18-0.375-0.394-0.649-0.546-1.031-0.572-0.185-0.013-0.373-0.054-0.418-0.092-0.305-0.257-1.062-0.408-1.553-0.309-0.174 0.035-0.405 0.064-0.512 0.065-0.455 0.003-1.060 0.504-1.129 0.934-0.050 0.311-0.294 0.501-0.588 0.457-0.122-0.018-0.458-0.047-0.746-0.065l-0.524-0.033-0.218 0.197c-0.194 0.175-0.25 0.197-0.512 0.197-0.172 0-0.342-0.034-0.41-0.081-0.064-0.044-0.247-0.115-0.407-0.157s-0.546-0.154-0.856-0.25c-0.68-0.21-1.009-0.278-1.478-0.308-1.467-0.092-2.592-0.2-2.839-0.272-0.161-0.047-0.477-0.128-0.701-0.181-0.484-0.113-0.875-0.285-1.161-0.509-0.38-0.299-0.923-0.483-1.699-0.576-1.13-0.136-1.407-0.119-1.856 0.118-0.208 0.109-0.581 0.275-0.829 0.368-0.325 0.122-0.539 0.246-0.763 0.444-0.383 0.339-0.634 0.454-1.137 0.523-0.278 0.038-0.492 0.11-0.741 0.249-0.192 0.108-0.388 0.196-0.434 0.196s-0.203 0.098-0.348 0.218c-0.205 0.169-0.414 0.267-0.939 0.436-0.372 0.12-0.704 0.218-0.738 0.218s-0.154 0.046-0.265 0.103c-0.431 0.22-0.685 0.291-1.19 0.336-0.302 0.027-0.66 0.097-0.844 0.167-0.288 0.109-0.446 0.123-1.587 0.144l-1.266 0.024z"></path>
</svg>
