<!-- Generated by IcoMoon.io -->
<svg version="1.1" xmlns="http://www.w3.org/2000/svg" width="28" height="32" viewBox="0 0 28 32">
<title>the_gathering</title>
<path d="M11.664 17.018c-0.032 0.355 0.086 0.582 0.277 0.89 0.488 0.789 1.168 1.403 1.621 2.219 0.527 0.949 0.973 1.945 1.441 2.926 0.461 0.969 1.141 1.785 1.774 2.648 0.387 0.528 0.789 1.043 1.176 1.571 0.211 0.293 0.402 0.597 0.605 0.894 0.031 0.039 0.25 0.391 0.367 0.485 0.469 0.378 0.739 0.886 1.078 1.378 0.161 0.227 0.368 0.528 0.586 0.711 0.102 0.079 0.274 0.2 0.395 0.246 0.211 0.075 0.391-0.164 0.492-0.312 0.106-0.156 0.223-0.336 0.184-0.535-0.032-0.153-0.172-0.32-0.246-0.453-0.157-0.293-0.254-0.582-0.34-0.903-0.094-0.339-0.289-0.613-0.438-0.929-0.152-0.317-0.308-0.571-0.543-0.828-0.578-0.633-0.925-1.512-1.277-2.282-0.406-0.894-0.859-1.75-1.313-2.617-0.203-0.391-0.414-0.797-0.585-1.203-0.18-0.406-0.286-0.836-0.45-1.25-0.191-0.5-0.539-0.926-0.781-1.406-0.18-0.364-0.355-0.707-0.59-1.039-0.082-0.121-0.176-0.231-0.25-0.352-0.121-0.183-0.203-0.383-0.328-0.562-0.058-0.082-0.129-0.161-0.18-0.25-0.050-0.086-0.074-0.164-0.144-0.239-0.113-0.117-0.297-0.172-0.438-0.25-0.343-0.187-0.777-0.371-1.175-0.41-0.438-0.043-1.090 0.055-1.266 0.531-0.082 0.227-0.121 0.629-0.043 0.852 0.051 0.133 0.152 0.207 0.223 0.32 0.062 0.114 0.058 0.481 0.168 0.149z"></path>
<path d="M18.289 13.744c-0.063-0.226-0.047-0.461-0.102-0.687-0.109-0.485-0.383-1.063-0.785-1.442-0.098-0.089-0.223-0.152-0.332-0.234-0.32-0.254-0.359-0.664-0.535-0.984-0.145-0.266-0.285-0.485-0.567-0.672-0.211-0.141-0.406-0.266-0.566-0.457-0.723-0.84-0.863-1.918-1.254-2.867-0.117-0.282-0.172-0.579-0.285-0.864-0.074-0.191-0.192-0.379-0.238-0.578-0.090-0.371-0.153-0.797-0.168-1.176-0.008-0.211 0.066-0.433 0.043-0.644-0.028-0.231-0.153-0.133-0.258-0.009-0.145 0.172-0.324 0.375-0.414 0.57-0.172 0.383-0.239 0.793-0.403 1.176-0.113 0.27-0.25 0.531-0.363 0.797-0.070 0.172-0.101 0.352-0.195 0.516-0.078 0.136-1.227 1.722-1.649 1.086-0.304-0.457-0.031-0.922-0.195-1.391-0.055-0.152-0.164-0.297-0.195-0.453-0.016-0.090 0.035-0.207-0.11-0.196-0.050 0.003-0.14 0.086-0.175 0.114-0.215 0.199-0.223 0.527-0.27 0.777-0.090 0.488-0.289 0.938-0.402 1.422-0.055 0.223-0.145 0.348-0.285 0.527-0.090 0.114-0.137 0.278-0.196 0.41-0.113 0.266-0.074 0.606-0.090 0.891-0.023 0.328-0.011 0.68-0.070 1.004-0.023 0.137-0.070 0.281-0.121 0.422-0.063-0.168-0.129-0.332-0.219-0.488-0.191-0.348-0.148-0.707-0.234-1.082-0.063-0.266-0.219-0.497-0.242-0.758-0.149 0-0.192 0.222-0.219 0.312-0.086 0.254-0.156 0.512-0.234 0.77-0.157 0.504-0.172 1.015-0.075 1.527 0.055 0.301 0.11 0.746-0.066 1.043-0.067 0.109-0.149 0.195-0.184 0.32-0.113 0.372-0.027 0.817 0.055 1.192 0.086 0.39 0.148 0.805 0.379 1.156 0.117 0.184 0.23 0.344 0.301 0.547 0.062 0.172 0.097 0.34 0.207 0.496 0.082 0.117 0.203 0.195 0.297 0.305 0.078 0.097 0.109 0.215 0.171 0.324 0.032 0.055 0.071 0.105 0.11 0.156 0.058 0.301 0.019 0.684 0.183 0.953 0.161 0.258 0.309 0.547 0.606 0.711 0.367 0.196 0.652 0.453 0.937 0.723 0.293 0.277 0.887 0.199 0.704 0.020-0.168-0.164-0.379-0.3-0.5-0.492-0.11-0.168-0.118-0.363-0.149-0.547-0.039-0.214-0.105-0.429-0.141-0.648-0.046-0.281 0.016-0.531 0.063-0.809 0.055-0.32-0.016-0.64-0.199-0.922-0.235-0.351-0.223-0.691-0.192-1.082 0.012-0.125 0.071-0.222 0.090-0.343 0.024-0.18-0.008-0.379-0.008-0.563 0.004-0.5 0.028-0.957 0.141-1.449 0.094-0.406 0.133-0.82 0.234-1.223 0.047-0.203 0.153-0.386 0.219-0.578 0.063-0.195 0.051-0.418 0.133-0.601 0.117 0.062 0.215 0.273 0.293 0.39 0.133 0.188 0.262 0.352 0.426 0.524 0.148 0.156 0.211 0.261 0.437 0.343 0.117 0.040 0.211 0.063 0.313 0.122 0.125 0.066 0.207 0.175 0.367 0.179 0.051-0.051 0.031-0.136 0.039-0.203 0.019-0.125 0.074-0.254 0.105-0.379 0.067-0.301 0.141-0.597 0.223-0.894 0.102-0.36 0.238-0.7 0.367-1.055 0.043-0.121 0.059-0.402 0.211-0.453 0.238 0.465 0.301 1.019 0.43 1.512 0.133 0.496 0.234 0.875 0.64 1.234 0.321 0.289 0.563 0.617 0.743 0.977 0.226 0.453 0.324 0.929 0.578 1.375 0.156 0.277 0.351 0.546 0.484 0.832 0.153 0.332 0.223 0.703 0.34 1.043 0.121 0.363 0.258 0.71 0.43 1.058 0.136 0.285 0.265 0.555 0.351 0.852 0.051 0.179 0.157 0.394 0.258 0.558 0.031 0.039 0.375 0.52 0.387 0.508 0.117-0.113 0.234-0.309 0.304-0.445 0.2-0.395 0.309-0.824 0.336-1.258 0.063-0.957 0.207-1.91-0.050-2.848z"></path>
</svg>
