<!-- Generated by IcoMoon.io -->
<svg version="1.1" xmlns="http://www.w3.org/2000/svg" width="32" height="32" viewBox="0 0 32 32">
<title>theme</title>
<path fill="#394852" d="M16 3.206c-3.277 0-6.554 1.248-9.050 3.744-2.814 2.814-4.047 6.622-3.688 10.3l1.478 0.341c0.532-0.868 1.172-1.688 1.925-2.441 5.162-5.162 13.507-5.162 18.669 0 0.753 0.753 1.396 1.573 1.928 2.441l1.478-0.341c0.359-3.678-0.876-7.486-3.691-10.3-2.496-2.496-5.773-3.744-9.050-3.744zM16 4.794c2.865 0 5.729 1.097 7.919 3.288 1.798 1.798 2.598 4.075 2.919 6.409-0.138-0.15-0.227-0.327-0.372-0.472-5.773-5.773-15.158-5.773-20.931 0-0.145 0.145-0.234 0.322-0.372 0.472 0.321-2.334 1.121-4.611 2.919-6.409 2.19-2.19 5.054-3.287 7.919-3.287zM8.791 16c0 3.973 3.236 7.209 7.209 7.209s7.209-3.237 7.209-7.209h-1.6c0 3.108-2.501 5.609-5.609 5.609s-5.609-2.501-5.609-5.609zM8.834 22.034l-3.3 3.3 1.131 1.131 3.3-3.3zM23.166 22.034l-1.131 1.131 3.3 3.3 1.131-1.131zM15.2 25v5h1.6v-5z"></path>
</svg>
