<!-- Generated by IcoMoon.io -->
<svg version="1.1" xmlns="http://www.w3.org/2000/svg" width="32" height="32" viewBox="0 0 32 32">
<title>tic</title>
<path d="M6.68 10.667c-0.052 0.076-0.113 0.149-0.176 0.22-0.058 0.072-0.123 0.141-0.195 0.206-0.284 0.263-0.667 0.485-1.105 0.64 0.405 0.229 0.743 0.514 0.977 0.823 0.058 0.077 0.11 0.156 0.155 0.237 0.050 0.081 0.097 0.163 0.135 0.247 0.076 0.168 0.123 0.342 0.134 0.527 0.004 0.185 0.011 0.363-0.030 0.542-0.037 0.179-0.105 0.357-0.199 0.533-0.176 0.349-0.435 0.69-0.786 0.993 0.226 0.035 0.436 0.091 0.637 0.162 0.206 0.069 0.396 0.154 0.565 0.254s0.316 0.217 0.438 0.351c0.126 0.118 0.228 0.253 0.307 0.404 0.305-0.406 0.64-0.788 1-1.145-0.292-0.71-0.482-1.462-0.557-2.227-0.009-0.242-0.039-0.484-0.039-0.728l0.026-0.731 0.102-0.724c0.042-0.239 0.114-0.473 0.165-0.71 0.263-0.935 0.699-1.819 1.282-2.597s1.312-1.448 2.136-1.964c0.824-0.517 1.742-0.879 2.695-1.063 0.951-0.18 1.944-0.201 2.904-0.016 0.958 0.178 1.877 0.529 2.704 1.038s1.561 1.172 2.151 1.946c0.591 0.774 1.036 1.656 1.307 2.588 0.272 0.931 0.368 1.912 0.288 2.886-0.075 0.793-0.268 1.57-0.568 2.301 0.362 0.357 0.697 0.74 1.003 1.147 0.006-0.015 0.009-0.032 0.017-0.046 0.078-0.167 0.185-0.313 0.318-0.442 0.135-0.128 0.267-0.252 0.437-0.353 0.329-0.206 0.762-0.349 1.2-0.428-0.353-0.299-0.63-0.64-0.798-0.985-0.185-0.35-0.286-0.708-0.234-1.072 0.012-0.368 0.174-0.703 0.417-1.014 0.226-0.31 0.557-0.598 0.958-0.831-0.417-0.154-0.819-0.371-1.107-0.632-0.15-0.129-0.258-0.274-0.368-0.424-0.109-0.151-0.189-0.314-0.237-0.491-0.024-0.089-0.039-0.179-0.046-0.271-0.014-0.089-0.022-0.178-0.020-0.269 0.002-0.182 0.034-0.369 0.093-0.559 0.064-0.192 0.134-0.379 0.231-0.567s0.218-0.375 0.36-0.554c-0.228 0.008-0.449-0.008-0.655-0.041-0.207-0.034-0.418-0.078-0.601-0.147-0.185-0.067-0.352-0.154-0.497-0.262-0.147-0.107-0.29-0.223-0.4-0.371-0.114-0.144-0.184-0.316-0.252-0.483-0.066-0.168-0.105-0.353-0.12-0.55-0.023-0.4 0.016-0.823 0.151-1.261-0.848 0.346-1.683 0.384-2.304 0.009-0.158-0.095-0.294-0.216-0.41-0.361-0.12-0.138-0.226-0.289-0.312-0.466-0.172-0.353-0.278-0.788-0.316-1.233-0.331 0.324-0.695 0.563-1.055 0.7-0.369 0.164-0.73 0.209-1.090 0.14-0.365-0.044-0.682-0.253-0.972-0.508-0.287-0.256-0.543-0.615-0.738-1.036-0.191 0.408-0.445 0.786-0.73 1.046-0.289 0.25-0.604 0.459-0.967 0.517-0.183 0.023-0.362 0.036-0.543 0.018-0.181-0.019-0.365-0.070-0.549-0.147-0.366-0.15-0.727-0.368-1.062-0.692-0.015 0.228-0.050 0.446-0.103 0.648-0.050 0.21-0.116 0.41-0.2 0.587-0.084 0.178-0.186 0.336-0.308 0.47-0.117 0.141-0.248 0.269-0.405 0.365-0.321 0.183-0.666 0.283-1.063 0.276-0.401-0.015-0.816-0.088-1.241-0.265 0.144 0.441 0.178 0.856 0.16 1.258-0.023 0.398-0.157 0.731-0.363 1.036-0.109 0.148-0.243 0.271-0.399 0.373-0.143 0.11-0.308 0.199-0.491 0.269-0.184 0.069-0.386 0.12-0.601 0.151-0.21 0.034-0.426 0.054-0.655 0.049 0.293 0.36 0.488 0.741 0.6 1.115 0.062 0.19 0.098 0.377 0.104 0.56 0.008 0.183-0.029 0.358-0.065 0.539-0.044 0.179-0.12 0.344-0.225 0.495z"></path>
<path d="M15.835 16.357c-2.657 0-5.072 1.031-6.872 2.711 1.367-2.38 3.931-3.983 6.872-3.983s5.505 1.604 6.872 3.983c-1.799-1.681-4.215-2.711-6.872-2.711zM15.835 14.077c-4.949 0-8.962 4.012-8.962 8.962s4.013 8.961 8.962 8.961c4.949 0 8.962-4.012 8.962-8.961s-4.013-8.962-8.962-8.962z"></path>
</svg>
