<!-- Generated by IcoMoon.io -->
<svg version="1.1" xmlns="http://www.w3.org/2000/svg" width="33" height="32" viewBox="0 0 33 32">
<title>to_the_heart_of_the_congo</title>
<path d="M1.164 24.832c0.35-0.065 0.783-0.238 0.961-0.386s0.398-0.195 0.488-0.105c0.279 0.279-0.093 0.458-1.11 0.535-0.537 0.040-0.689 0.021-0.339-0.044zM3.598 24.64c0.556-0.421 1.131-0.504 1.131-0.165 0 0.124-0.258 0.294-0.573 0.378-0.923 0.247-1.085 0.186-0.558-0.213zM6.765 24.41c0-0.43 0.018-0.433 6.365-1.038 10.137-0.966 12.495-1.193 14.866-1.431 1.384-0.139 2.574-0.196 2.643-0.127 0.223 0.223 1.078-0.37 1.078-0.748 0-0.22 0.152-0.307 0.382-0.218 0.21 0.081 0.382 0.281 0.382 0.445 0 0.345-1.492 0.972-1.825 0.766-0.122-0.076-0.592-0.018-1.045 0.128-1.2 0.388-10.43 1.465-16.608 1.937-2.941 0.225-5.547 0.467-5.792 0.538-0.284 0.083-0.446-0.009-0.446-0.254zM5.772 24.152c-0.225-0.272-0.203-0.386 0.096-0.501 0.267-0.102 0.388 0.007 0.388 0.352 0 0.594-0.092 0.622-0.484 0.149zM0.655 23.995c0.21-0.136 0.6-0.249 0.867-0.251s0.876-0.302 1.353-0.666 0.938-0.592 1.024-0.507c0.37 0.37-2.016 1.681-3.045 1.674-0.469-0.003-0.507-0.052-0.199-0.251zM3.583 23.79c0.42-0.265 0.804-0.376 0.854-0.249 0.119 0.305 0.047 0.352-0.854 0.556l-0.764 0.173zM4.665 22.857c-0.593-0.815-0.562-1.546 0.092-2.201 0.674-0.674 2.167-0.514 2.836 0.304 0.603 0.738 0.562 0.959-0.212 1.153-0.362 0.091-0.93 0.437-1.262 0.769-0.746 0.746-0.895 0.743-1.454-0.025zM6.662 23.016c-0.113-0.183 0.193-0.342 0.861-0.449 1.339-0.214 1.483-0.495 0.682-1.331-0.474-0.494-0.587-0.787-0.414-1.061 0.211-0.334 0.24-0.333 0.244 0.010 0.002 0.214 0.219 0.573 0.482 0.798 0.441 0.378 0.509 0.372 0.891-0.074 0.227-0.265 0.413-0.711 0.413-0.989 0-0.337 0.171-0.506 0.509-0.506 0.283 0 0.509 0.17 0.509 0.382 0 0.21 0.115 0.382 0.255 0.382s0.255-0.229 0.255-0.509c0-0.28 0.115-0.509 0.255-0.509s0.255 0.172 0.255 0.382c0 0.21 0.115 0.382 0.255 0.382s0.255-0.172 0.255-0.382c0-0.21 0.115-0.382 0.255-0.382s0.255 0.172 0.255 0.382c0 0.62 0.508 0.436 0.525-0.191l0.016-0.573 0.236 0.589c0.245 0.611 0.75 0.547 0.75-0.095 0-0.202 0.115-0.367 0.255-0.367s0.255 0.236 0.255 0.524c0 0.307 0.113 0.455 0.272 0.356 0.15-0.092 0.212-0.325 0.138-0.516s-0.024-0.416 0.11-0.498c0.134-0.083 0.243 0.028 0.243 0.247s0.115 0.397 0.255 0.397c0.14 0 0.258-0.201 0.262-0.446 0.007-0.424 0.020-0.424 0.267 0 0.348 0.598 0.743 0.564 0.743-0.064 0-0.28 0.115-0.509 0.255-0.509s0.255 0.172 0.255 0.382c0 0.21 0.115 0.382 0.255 0.382s0.255-0.194 0.255-0.431c0-0.375 0.048-0.367 0.374 0.064 0.338 0.447 0.375 0.452 0.382 0.049 0.010-0.541 0.517-0.604 0.517-0.064 0 0.21 0.128 0.382 0.284 0.382 0.159 0 0.226-0.225 0.151-0.509-0.113-0.434-0.008-0.509 0.713-0.509 0.466 0 1.028-0.070 1.249-0.155 0.264-0.101 0.403-0.014 0.403 0.255 0 0.59 0.425 0.504 0.588-0.12 0.099-0.381 0.305-0.506 0.73-0.446 0.325 0.046 0.591 0.218 0.591 0.381s0.086 0.383 0.191 0.488c0.105 0.105 0.191-0.057 0.191-0.361s0.115-0.552 0.255-0.552c0.14 0 0.255 0.351 0.255 0.779 0 0.5 0.1 0.717 0.279 0.606 0.153-0.095 0.233-0.488 0.176-0.874-0.102-0.695-0.087-0.703 1.65-0.865 1.616-0.15 1.79-0.118 2.225 0.414 0.292 0.357 0.381 0.669 0.235 0.818-0.467 0.478-0.222 0.873 0.591 0.951 0.675 0.065 0.842 0.201 0.904 0.737 0.074 0.64 0.021 0.665-2.037 0.955-1.162 0.164-3.775 0.468-5.805 0.675s-5.296 0.546-7.256 0.752c-5.71 0.6-9.196 0.762-9.397 0.437zM15.285 21.556c0.016-0.359-0.061-0.709-0.172-0.777s-0.2 0.303-0.2 0.825c0 1.043 0.326 1.001 0.372-0.048zM9.735 21.386c-0.071-0.175-0.128-0.032-0.128 0.318s0.058 0.493 0.128 0.318c0.071-0.175 0.071-0.461 0-0.637zM11.348 21.526c0-0.512-0.074-0.614-0.288-0.399-0.159 0.159-0.22 0.468-0.135 0.688 0.233 0.607 0.424 0.478 0.424-0.288zM12.367 21.434c0-0.288-0.115-0.453-0.255-0.367s-0.255 0.322-0.255 0.524c0 0.202 0.115 0.367 0.255 0.367s0.255-0.236 0.255-0.524zM13.385 21.449c0-0.28-0.115-0.509-0.255-0.509s-0.255 0.229-0.255 0.509c0 0.28 0.115 0.509 0.255 0.509s0.255-0.229 0.255-0.509zM14.404 21.449c0-0.28-0.115-0.509-0.255-0.509s-0.255 0.229-0.255 0.509c0 0.28 0.115 0.509 0.255 0.509s0.255-0.229 0.255-0.509zM16.186 21.195c0-0.28-0.115-0.509-0.255-0.509s-0.255 0.229-0.255 0.509c0 0.28 0.115 0.509 0.255 0.509s0.255-0.229 0.255-0.509zM17.204 21.195c0-0.28-0.115-0.509-0.255-0.509s-0.255 0.229-0.255 0.509c0 0.28 0.115 0.509 0.255 0.509s0.255-0.229 0.255-0.509zM18.223 21.052c0-0.202-0.115-0.367-0.255-0.367s-0.255 0.236-0.255 0.524c0 0.288 0.115 0.454 0.255 0.367s0.255-0.322 0.255-0.524zM18.987 20.94c0-0.28-0.115-0.509-0.255-0.509s-0.255 0.229-0.255 0.509c0 0.28 0.115 0.509 0.255 0.509s0.255-0.229 0.255-0.509zM20.005 20.94c0-0.28-0.115-0.509-0.255-0.509s-0.255 0.229-0.255 0.509c0 0.28 0.115 0.509 0.255 0.509s0.255-0.229 0.255-0.509zM21.024 20.813c0-0.21-0.115-0.382-0.255-0.382s-0.255 0.172-0.255 0.382c0 0.21 0.115 0.382 0.255 0.382s0.255-0.172 0.255-0.382zM22.788 20.494c-0.016-0.611-0.044-0.635-0.223-0.191-0.113 0.28-0.155 0.595-0.094 0.7 0.216 0.373 0.335 0.182 0.317-0.509zM25.607 20.416c0-0.454-0.106-0.713-0.255-0.621-0.14 0.086-0.255 0.437-0.255 0.779s0.115 0.621 0.255 0.621c0.14 0 0.255-0.351 0.255-0.779zM21.993 20.666c-0.050-0.151-0.2-0.274-0.333-0.274s-0.283 0.123-0.333 0.274c-0.050 0.151 0.1 0.274 0.333 0.274s0.383-0.123 0.333-0.274zM23.824 20.558c0-0.21-0.115-0.382-0.255-0.382s-0.255 0.172-0.255 0.382c0 0.21 0.115 0.382 0.255 0.382s0.255-0.172 0.255-0.382zM26.625 19.906c0-0.272-0.115-0.494-0.255-0.494s-0.255 0.293-0.255 0.651c0 0.369 0.11 0.583 0.255 0.494 0.14-0.086 0.255-0.38 0.255-0.651zM27.643 19.936c0-0.272-0.115-0.565-0.255-0.651-0.144-0.089-0.255 0.125-0.255 0.494 0 0.358 0.115 0.651 0.255 0.651s0.255-0.222 0.255-0.494zM28.407 19.652c0-0.272-0.115-0.494-0.255-0.494s-0.255 0.293-0.255 0.651c0 0.369 0.11 0.583 0.255 0.494 0.14-0.086 0.255-0.38 0.255-0.651zM20.885 18.921c0.081-0.13 0.030-0.309-0.112-0.397s-0.259 0.019-0.259 0.237c0 0.447 0.153 0.513 0.371 0.16zM21.788 18.648c0-0.14-0.115-0.255-0.255-0.255s-0.255 0.115-0.255 0.255c0 0.14 0.115 0.255 0.255 0.255s0.255-0.115 0.255-0.255zM23.824 18.394c0-0.14-0.115-0.255-0.255-0.255s-0.255 0.115-0.255 0.255c0 0.14 0.115 0.255 0.255 0.255s0.255-0.115 0.255-0.255zM26.421 17.834c-0.238-0.238-0.306-0.17-0.306 0.306s0.068 0.543 0.306 0.306c0.238-0.238 0.238-0.373 0-0.611zM27.284 17.695c-0.278-0.278-0.469 0.164-0.269 0.624 0.189 0.436 0.203 0.436 0.309-0.009 0.061-0.256 0.043-0.533-0.039-0.615zM8.485 18.909c-0.457-0.534-0.322-0.67 0.285-0.286 0.192 0.122 0.306 0.352 0.253 0.511-0.058 0.175-0.271 0.086-0.538-0.225zM9.248 18.455c-0.385-0.239-0.7-0.515-0.7-0.614s0.544-0.249 1.209-0.333c2.073-0.261 3.117-0.627 3.139-1.098 0.012-0.265 0.070-0.311 0.149-0.117 0.089 0.221 0.817 0.318 2.378 0.318 2.559 0 3.055-0.123 3.055-0.761 0-0.377 0.317-0.482 1.91-0.631 1.561-0.146 1.91-0.258 1.91-0.614s0.242-0.433 1.337-0.424l1.337 0.011 0.076-1.599c0.079-1.665 0.561-2.015 0.561-0.408 0 0.529 0.103 0.827 0.255 0.734 0.14-0.086 0.255-0.437 0.255-0.779s0.115-0.621 0.255-0.621c0.14 0 0.256 0.544 0.257 1.209s0.073 1.631 0.158 2.147c0.141 0.853 0.244 0.953 1.144 1.105 1.305 0.22 1.065 0.516-0.597 0.737-6.377 0.848-16.88 2.169-17.257 2.171-0.070 0-0.442-0.195-0.828-0.433zM23.442 16.357c0.086-0.14 0.036-0.255-0.112-0.255s-0.27 0.115-0.27 0.255c0 0.14 0.050 0.255 0.112 0.255s0.183-0.115 0.27-0.255zM9.332 16.718c0.012-0.297 0.073-0.357 0.154-0.154 0.074 0.184 0.065 0.403-0.020 0.488s-0.145-0.066-0.134-0.334zM25.706 10.437c-0.139-0.315-0.224-0.433-0.188-0.263 0.124 0.581-0.457 0.636-1.032 0.096-0.315-0.296-0.667-0.451-0.783-0.345s-0.151-0.045-0.080-0.337c0.11-0.448 0.020-0.523-0.588-0.487-0.395 0.023-0.659-0.053-0.586-0.17 0.247-0.4 1.261-0.214 1.714 0.316 0.346 0.404 0.533 0.462 0.796 0.244 0.428-0.355 1.665-0.073 1.665 0.38 0 0.183-0.143 0.391-0.318 0.462-0.239 0.097-0.224 0.196 0.064 0.399 0.337 0.238 0.335 0.271-0.014 0.274-0.218 0.002-0.51-0.254-0.65-0.569zM26.243 9.992c0.086-0.14 0.036-0.255-0.112-0.255s-0.27 0.115-0.27 0.255c0 0.14 0.050 0.255 0.112 0.255s0.183-0.115 0.27-0.255zM16.034 10.207c-0.107-0.174-0.070-0.225 0.090-0.126 0.15 0.093 0.313 0.047 0.362-0.102s0.26-0.296 0.467-0.327c0.207-0.031 0.519-0.146 0.693-0.254 0.216-0.135 0.268-0.073 0.164 0.198-0.083 0.217-0.318 0.395-0.521 0.395s-0.299 0.115-0.212 0.255c0.087 0.14-0.072 0.255-0.352 0.255s-0.591-0.132-0.691-0.294zM14.658 9.977c0-0.148 0.115-0.199 0.255-0.112s0.255 0.208 0.255 0.27c0 0.062-0.115 0.112-0.255 0.112s-0.255-0.121-0.255-0.27zM18.337 9.969c-0.336-0.544 0.342-0.856 1.044-0.481 0.566 0.303 0.691 0.3 0.892-0.018 0.148-0.233 0.236-0.257 0.238-0.065 0.007 0.57-0.835 0.832-1.195 0.371-0.303-0.388-0.317-0.386-0.174 0.024 0.174 0.499-0.511 0.643-0.804 0.169zM21.143 8.986c0.082-0.133-0.1-0.376-0.405-0.539-0.474-0.254-0.532-0.237-0.397 0.115 0.087 0.226 0.047 0.412-0.089 0.412s-0.247-0.165-0.247-0.367-0.127-0.445-0.282-0.541c-0.19-0.117-0.226 0.003-0.11 0.367 0.249 0.784-0.331 0.681-0.633-0.112-0.137-0.359-0.248-0.703-0.248-0.764 0-0.228 0.995-0.1 1.148 0.148 0.088 0.142 0.249 0.204 0.358 0.136s0.523 0.217 0.921 0.632c0.586 0.612 0.639 0.755 0.279 0.755-0.245 0-0.377-0.109-0.295-0.242zM11.858 7.673c0-0.125 0.277-0.228 0.616-0.228s0.826-0.075 1.082-0.168c0.257-0.092 0.39-0.082 0.296 0.022-0.274 0.304-1.993 0.627-1.993 0.373zM16.059 7.7c-0.086-0.14-0.036-0.255 0.112-0.255s0.27 0.115 0.27 0.255c0 0.14-0.050 0.255-0.112 0.255s-0.183-0.115-0.27-0.255zM16.824 7.703c-0.089-0.144 0.013-0.187 0.24-0.1 0.441 0.169 0.522 0.352 0.156 0.352-0.132 0-0.31-0.113-0.395-0.252zM14.771 7.304c-0.475-0.38-0.472-0.385 0.079-0.118 0.315 0.153 0.573 0.331 0.573 0.396 0 0.195-0.132 0.138-0.652-0.278z"></path>
</svg>
