<!-- Generated by IcoMoon.io -->
<svg version="1.1" xmlns="http://www.w3.org/2000/svg" width="31" height="32" viewBox="0 0 31 32">
<title>to_the_forbidden_peaks</title>
<path d="M22.824 15.664c-0.073-0.091-0.153-0.17-0.225-0.259-0.084 0.013-0.106 0.122-0.139 0.183-0.069 0.135-0.161 0.256-0.243 0.385-0.093 0.141-0.172 0.285-0.225 0.444-0.018 0.053-0.026 0.195-0.080 0.239-0.119-0.126-0.179-0.283-0.267-0.429-0.031-0.053-0.122-0.241-0.197-0.232-0.122 0.161-0.128 0.376-0.287 0.522-0.026-0.124-0.038-0.25-0.051-0.376-0.080-0.020-0.179 0.159-0.225 0.214-0.135 0.161-0.281 0.314-0.418 0.475-0.117 0.135-0.217 0.276-0.305 0.431-0.031 0.053-0.062 0.117-0.115 0.148 0.049-0.181 0.168-0.343 0.259-0.504 0.055-0.099 0.108-0.199 0.161-0.298 0.022-0.058 0.035-0.115 0.038-0.175 0.016-0.024 0.026-0.051 0.033-0.077 0-0.035-0.013-0.062-0.040-0.084-0.002-0.055 0.033-0.071 0.058-0.113 0.026-0.051 0.042-0.111 0.080-0.159 0.058-0.075 0.139-0.104 0.212-0.161 0.254-0.203 0.519-0.573 0.575-0.902 0.040-0.232 0.075-0.464 0.124-0.696 0.020-0.1 0.011-0.206 0.035-0.301 0.038-0.13 0.035-0.256 0.075-0.389 0.044-0.148 0.018-0.301 0.049-0.449 0.022-0.091 0.080-0.164 0.106-0.254 0.011-0.071 0.031-0.137 0.062-0.203 0.042-0.069 0.080-0.139 0.113-0.212 0.018-0.071 0.002-0.153 0.002-0.223-0.004 0.248 0.126 0.42 0.188 0.606 0.038 0.115 0.062 0.27 0.126 0.374 0.055 0.091 0.097 0.175 0.104 0.29 0.013 0.214 0.049 0.418 0.188 0.595 0.146 0.188 0.181 0.391 0.237 0.614 0.033 0.146 0.080 0.285 0.135 0.424 0.055 0.13 0.126 0.25 0.148 0.391 0.024 0.166 0.022 0.34 0.053 0.506-0.15-0.053-0.243-0.225-0.34-0.345zM16.167 13.441c0-0.055-0.004-0.108-0.007-0.164-0.007-0.053-0.018-0.106-0.024-0.161-0.002-0.097-0.011-0.194-0.026-0.29-0.035-0.117-0.077-0.23-0.128-0.338-0.066-0.166-0.126-0.332-0.172-0.504-0.011-0.080-0.039-0.155-0.086-0.221-0.060-0.073-0.155-0.104-0.219-0.175-0.060-0.064-0.13-0.135-0.179-0.206-0.029-0.060-0.049-0.122-0.060-0.186 0.004-0.053-0.25-0.086-0.305-0.097-0.148-0.113-0.060-0.234-0.19-0.365-0.097-0.097-0.206-0.17-0.329-0.223-0.066-0.026-0.15-0.053-0.221-0.062-0.102 0.294-0.051 0.679-0.049 0.981 0 0.391 0 0.783 0 1.174 0 0.433-0.024 0.878 0.002 1.313-0.033-0.325-0.095-0.661-0.181-0.977-0.066-0.243-0.161-0.473-0.268-0.701-0.062-0.135-0.166-0.396-0.298-0.502-0.161 0.276-0.168 0.581-0.252 0.88-0.093-0.13-0.137-0.279-0.168-0.435-0.046-0.23-0.108-0.5-0.080-0.734-0.020 0.259-0.113 0.502-0.126 0.76-0.011 0.232-0.002 0.78-0.004 0.701-0.016-0.175-0.033-0.351-0.060-0.526-0.035-0.243-0.088-0.519-0.183-0.745-0.046-0.111-0.141-0.214-0.168-0.334-0.016-0.064-0.004-0.137-0.002-0.203 0.002-0.080 0.009-0.164-0.002-0.243-0.075 0.097-0.137 0.212-0.206 0.316-0.064 0.1-0.117 0.23-0.203 0.309-0.144-0.115-0.292-0.232-0.424-0.358-0.091-0.086-0.157-0.203-0.256-0.279-0.080 0.031-0.283 0.095-0.316 0.168-0.035 0.080-0.091 0.133-0.133 0.208-0.042 0.071-0.022 0.051-0.058 0.141-0.073 0.188-0.252 0.312-0.393 0.444-0.117 0.111-0.219 0.23-0.327 0.349-0.042-0.104 0.077-0.314 0.113-0.389 0.046-0.097 0.093-0.21 0.159-0.296 0.104-0.135 0.17-0.219 0.232-0.378 0.088-0.23 0.25-0.42 0.378-0.626 0.115-0.188 0.139-0.389 0.234-0.577 0.042-0.086 0.095-0.15 0.124-0.245 0.031-0.102 0.033-0.212 0.060-0.316 0.029-0.115 0.097-0.203 0.146-0.301 0.082-0.168 0.146-0.356 0.221-0.533 0.046-0.102 0.106-0.179 0.113-0.29 0.013-0.243 0.077-0.486 0.128-0.729 0.060-0.279 0.004-0.564 0.080-0.831 0.029-0.106 0.073-0.223 0.084-0.334 0.002-0.029-0.013-0.058-0.002-0.086 0.033-0.093 0.186-0.208 0.243-0.294 0.088-0.13 0.166-0.265 0.27-0.385 0.055-0.064 0.119-0.117 0.159-0.194 0.022-0.042 0.071-0.285 0.119-0.298 0.024-0.086 0.060-0.139 0.077-0.188 0.046-0.124 0.038-0.265 0.091-0.389-0.004 0.126-0.026 0.279 0.022 0.396 0.053 0.128 0.095 0.261 0.153 0.389 0.115 0.259 0.161 0.522 0.239 0.789 0.091 0.309 0.265 0.601 0.449 0.869 0.307 0.449 0.411 0.853 0.65 1.346 0.058 0.117 0.111 0.276 0.194 0.376 0.044 0.053 0.104 0.075 0.133 0.139 0.009 0.080 0.022 0.157 0.038 0.232 0.018 0.102 0.042 0.203 0.073 0.301 0.049 0.159 0.15 0.292 0.179 0.453 0.026 0.157 0.051 0.312 0.082 0.469 0.020 0.102 0.024 0.252 0.095 0.338 0.011 0.016 0.046 0.026 0.053 0.042 0.111 0.225 0.363 0.5 0.431 0.749 0.175 0.621 0.263 1.264 0.279 1.91 0.009 0.053 0.013 0.108 0.007 0.164zM29.047 20.943c-0.177-0.020-0.374 0.095-0.531-0.018-0.212-0.155-0.365-0.4-0.475-0.63-0.153-0.325-0.283-0.661-0.424-0.99-0.232-0.537-0.5-1.094-0.699-1.647-0.051-0.161-0.104-0.32-0.157-0.482-0.031-0.124-0.060-0.25-0.086-0.376-0.080-0.175-0.217-0.336-0.327-0.497-0.168-0.243-0.314-0.526-0.506-0.754-0.046 0.053-0.104 0.073-0.172 0.058-0.108 0.026-0.175-0.026-0.197-0.159-0.217-0.332-0.287-0.736-0.411-1.11-0.139 0.071-0.15 0.292-0.221 0.433-0.128-0.309-0.234-0.604-0.416-0.886-0.104 0.073-0.166 0.172-0.183 0.301-0.062 0.181-0.141 0.356-0.234 0.524-0.186-0.102-0.27-0.276-0.248-0.519-0.031-0.097-0.046-0.194-0.049-0.294-0.013-0.062-0.022-0.254-0.119-0.221-0.016 0.091-0.031 0.179-0.046 0.27-0.086-0.458-0.091-0.922-0.159-1.382-0.038-0.252-0.128-0.754-0.385-0.915-0.046 0.177-0.082 0.354-0.122 0.533-0.124-0.497-0.124-1.010-0.155-1.521-0.055-0.071-0.091-0.159-0.117-0.254-0.239-0.128-0.387-0.44-0.301-0.699 0.033-0.097 0.066-0.195 0.099-0.292-0.091-0.321-0.214-0.626-0.387-0.928-0.013-0.011-0.029-0.024-0.042-0.035-0.035 0.245-0.108 0.495-0.201 0.747-0.064 0.172-0.17 0.285-0.292 0.354 0.004 0.23 0.009 0.464-0.022 0.679-0.080-0.119-0.137-0.234-0.186-0.369-0.020-0.053-0.026-0.1-0.075-0.133-0.046 0.139-0.051 0.283-0.016 0.433-0.002 0.272-0.016 0.542-0.044 0.811-0.024 0.225-0.039 0.451-0.046 0.676 0.011 0.095 0.016 0.19 0.013 0.287 0.002 0.133-0.040 0.259-0.126 0.376-0.212 0.562-0.422 1.123-0.632 1.687-0.106 0.321-0.208 0.637-0.259 0.973-0.051-0.044-0.077-0.104-0.080-0.181-0.058-0.133-0.117-0.265-0.177-0.396-0.17-0.393-0.296-0.8-0.497-1.18-0.153-0.237-0.307-0.471-0.462-0.707-0.139-0.197-0.263-0.405-0.367-0.623-0.069-0.122-0.080-0.237-0.157-0.137-0.106-0.128-0.183-0.272-0.292-0.396-0.082 0.093-0.166-0.117-0.181-0.15-0.066-0.148-0.104-0.294-0.097-0.455-0.088 0.274-0.197 0.542-0.29 0.816-0.080 0.241-0.128 0.489-0.199 0.732-0.108-0.217-0.137-0.438-0.146-0.674-0.004-0.126-0.009-0.175-0.075-0.279-0.093-0.146-0.157-0.329-0.197-0.502-0.029-0.124 0.011-0.256-0.022-0.376-0.016-0.055-0.062-0.117-0.088-0.17-0.133-0.292-0.214-0.599-0.376-0.88-0.066 0.062-0.104 0.168-0.15 0.243-0.080 0.122-0.168 0.234-0.265 0.34-0.026-0.234-0.075-0.473-0.117-0.696-0.020-0.119-0.046-0.234-0.084-0.349-0.038-0.044-0.062-0.097-0.073-0.155-0.033-0.13-0.042-0.263-0.082-0.389-0.022-0.069-0.031-0.186-0.119-0.166-0.093-0.237-0.122-0.477-0.179-0.723-0.013-0.058-0.035-0.221-0.13-0.148-0.126-0.19-0.073-0.535-0.071-0.756 0-0.175 0.082-0.537-0.040-0.67-0.066 0.080-0.15 0.135-0.248 0.168-0.082-0.144-0.077-0.283-0.104-0.444-0.011-0.064-0.009-0.139-0.055-0.080-0.018-0.192-0.026-0.382-0.055-0.575-0.026-0.168-0.069-0.334-0.077-0.504-0.088-0.020-0.21 0.805-0.223 0.882-0.157-0.188-0.194-0.484-0.25-0.718 0-0.009-0.002-0.020-0.004-0.029 0.020-0.382 0.064-0.767 0.075-1.149 0.007-0.15 0.009-0.298 0.004-0.449l0.018-0.164c0.004-0.084-0.038-0.144-0.126-0.179-0.188-0.17-0.371-0.345-0.553-0.524-0.192-0.212-0.336-0.34-0.343-0.597-0.002-0.038 0.004-0.075 0.004-0.113 0-0.159-0.033-0.312-0.042-0.471-0.192 0.166-0.239 0.462-0.363 0.676-0.020 0.033-0.040 0.035-0.046 0.073-0.013 0.055 0.031 0.13 0.038 0.19 0.004 0.046 0 0.095-0.009 0.141-0.029 0.045-0.049 0.095-0.055 0.148-0.044 0.148-0.077 0.296-0.099 0.449-0.058 0.239-0.099 0.522-0.25 0.723-0.040 0.053-0.095 0.097-0.122 0.159-0.051 0.119-0.039 0.314-0.058 0.438-0.020 0.119-0.042 0.232-0.097 0.34-0.058 0.117-0.144 0.221-0.212 0.332-0.011 0.055-0.040 0.095-0.084 0.122-0.013 0.013-0.029 0.018-0.046 0.013-0.071 0.091-0.113 0.183-0.186 0.276-0.197 0.254-0.354 0.555-0.502 0.842-0.077 0.137-0.141 0.279-0.194 0.427-0.011 0.051-0.033 0.097-0.069 0.137-0.071-0.020-0.058-0.099-0.091-0.157-0.018 0.349-0.002 0.699-0.004 1.048-0.002 0.097 0.018 0.369-0.086 0.458-0.031 0-0.060-0.011-0.084-0.031-0.115 0.237-0.049 0.493-0.088 0.743-0.013 0.073-0.013 0.17-0.049 0.237-0.060 0.004-0.117 0-0.175-0.009-0.075 0.044-0.111 0.108-0.111 0.197-0.095 0.349-0.141 0.707-0.223 1.059-0.104 0.442-0.157 0.906-0.301 1.337-0.117-0.135-0.181-0.292-0.336-0.38-0.073 0.199-0.128 0.405-0.206 0.604-0.011 0.033-0.039 0.157-0.082 0.177-0.029-0.020-0.049-0.051-0.062-0.082-0.042 0.17-0.042 0.349-0.073 0.524-0.020 0.097-0.042 0.19-0.044 0.29-0.002 0.186-0.039 0.407 0.073 0.568-0.031 0.002-0.060 0-0.091-0.004-0.139 0.329-0.23 0.703-0.433 1.004-0.21 0.307-0.358 0.641-0.495 0.988-0.175-0.066-0.307-0.285-0.427-0.424-0.161-0.19-0.321-0.385-0.497-0.562-0.013 0.042 0.009 0.075 0 0.117-0.082-0.148-0.122-0.396-0.243-0.508-0.016 0.108-0.018 0.217-0.004 0.325 0.004 0.424 0.002 0.849-0.009 1.273-0.011 0.225-0.004 0.343-0.064 0.526-0.064 0.199-0.108 0.411-0.161 0.617-0.097 0.391-0.241 0.774-0.312 1.172-0.071-0.029-0.128-0.091-0.201-0.115-0.058 0.283-0.141 0.559-0.223 0.836-0.055 0.179-0.104 0.484-0.23 0.637-0.066 0.084-0.069 0.077-0.179 0.075-0.051 0-0.135-0.024-0.183-0.009-0.084 0.026-0.082 0.086-0.111 0.175-0.035 0.115-0.104 0.232-0.093 0.358-0.192 0.011-0.382 0.004-0.575-0.022-0.113-0.024-0.221-0.020-0.327 0.016-0.104 0.062-0.119 0.206-0.214 0.27-0.117 0.077-0.124 0.060-0.186 0.256-0.051 0.186-0.091 0.374-0.117 0.561 0.035 0.108 0.018 0.181-0.058 0.214-0.060-0.13-0.088-0.075-0.153 0.038-0.148 0.256-0.27 0.531-0.387 0.802-0.111 0.252-0.318 0.584-0.252 0.869l0.484-0.402c-0.137 0.13-0.274 0.259-0.418 0.38-0.122 0.102-0.115 0.272-0.259 0.36 0.013 0.153 0.146 0.292 0.272 0.371 0.091 0.055 0.108 0.080 0.17 0.168 0.058 0.084 0.133 0.159 0.197 0.234 0.040 0.046 0.084 0.080 0.128 0.111 0.013 0.073 0.033 0.146 0.064 0.217 0.046 0.102 0.042 0.108 0.157 0.137 0.19 0.049 0.376 0.099 0.557 0.168 0.011 0.137-0.157 0.272-0.124 0.4 0.009 0.038 0.111 0.133 0.133 0.155 0.232 0.259 0.566 0.382 0.833 0.597 0.055 0.080 0.115 0.157 0.177 0.225 0.214 0.228 0.564 0.447 0.829 0.599 0.164 0.093 0.243 0.111 0.376 0.111 0.011 0.013 0.026 0.024 0.038 0.039-0.009 0.051-0.004 0.104 0.011 0.155 0.039 0.168 0.172 0.133 0.316 0.161 0.069 0.016 0.137 0.038 0.203 0.064 0.104 0.031 0.208 0.055 0.314 0.073 0.111 0.080 0.219 0.164 0.325 0.248 0.128 0.071 0.239 0.161 0.332 0.272 0.108 0.119 0.245 0.124 0.376 0.203 0.177 0.111 0.327 0.283 0.477 0.424 0.13 0.13 0.268 0.252 0.416 0.363 0.073 0.102 0.164 0.157 0.276 0.168 0.022-0.071 0.049-0.042 0.115-0.071 0.091-0.035 0.175-0.119 0.203-0.21 0.082 0.031 0.086 0.159 0.126 0.223 0.011 0.020 0.042 0.022 0.051 0.042 0.024 0.055-0.011 0.157 0.020 0.201 0.038 0.053 0.221 0.046 0.265 0.051 0.157 0.013 0.312 0.040 0.464 0.080 0.046 0.024 0.093 0.051 0.139 0.075 0.044 0.082-0.024 0.223 0.119 0.225 0.007 0.024 0.011 0.046 0.016 0.069 0.053 0.018 0.102 0 0.155 0.013l0.033 0.033c0.086 0.051 0.179 0.075 0.279 0.077 0.073-0.016 0.128 0 0.168 0.051 0.007 0.029 0.022 0.040 0.046 0.038 0.115 0.035 0.117-0.016 0.212 0.084 0.097 0.099 0.179 0.086 0.29 0.157 0.1 0.064 0.183 0.157 0.292 0.212 0.009 0.013 0.018 0.029 0.026 0.044 0.026 0.013 0.053 0.016 0.082 0.004 0.082 0.013 0.099 0 0.17 0.046 0.175 0.115 0.276 0.172 0.495 0.164 0.058-0.002 0.13-0.013 0.188-0.004 0.108 0.013 0.177 0.108 0.283 0.119 0.1 0.009 0.144-0.064 0.232-0.009 0.042 0.075 0.106 0.122 0.192 0.141 0.046-0.002 0.093-0.004 0.139-0.007 0.046-0.042 0.099-0.049 0.157-0.020 0.159 0.088 0.314 0.181 0.464 0.283 0.044 0.020 0.086 0.040 0.13 0.060 0.095-0.044 0.179-0.106 0.254-0.181 0.188-0.144 0.221-0.17 0.424-0.084 0.122 0.051 0.243 0.102 0.367 0.15 0.181 0.053 0.362 0.044 0.539-0.029 0.219-0.055 0.303-0.095 0.513-0.091 0.026 0 0.058 0.002 0.088 0.004 0.108 0.088 0.23 0.155 0.367 0.195 0.303 0.117 0.63 0.035 0.948 0.122 0.155 0.040 0.272 0.124 0.413 0.175 0.111 0.031 0.219 0.013 0.329-0.055 0.307-0.137 0.601-0.296 0.884-0.482 0.471-0.276 0.931-0.577 1.375-0.897 0.491-0.358 0.979-0.716 1.468-1.076 0.082-0.026 0.164-0.051 0.245-0.075 0.133 0.040 0.267 0.060 0.407 0.060 0.436-0.071 0.822-0.524 1.121-0.785 0.155-0.135 0.312-0.272 0.466-0.409 0.126-0.148 0.177-0.168 0.155-0.062 0.175-0.21 0.327-0.433 0.458-0.672 0.214-0.36 0.464-0.69 0.754-0.988 0.363-0.405 0.76-0.776 1.185-1.112 0.239-0.188 0.462-0.349 0.659-0.584 0.214-0.25 0.385-0.559 0.548-0.847 0.161-0.287 0.199-0.579 0.195-0.902s0.044-0.645 0.080-0.964c0.004-0.060 0.024-0.133 0.011-0.192z"></path>
</svg>
