<!-- Generated by IcoMoon.io -->
<svg version="1.1" xmlns="http://www.w3.org/2000/svg" width="32" height="32" viewBox="0 0 32 32">
<title>token_-1_sealed</title>
<path d="M15.541 13.632c0.025-0.016 0.061-0.025 0.11-0.025 0.057 0 0.098 0.008 0.123 0.025 0.082 0.025 0.131 0.082 0.147 0.172v2.023c0 0.18 0.004 0.372 0.012 0.576v0.478c0 0.866-0.025 1.516-0.074 1.949-0.057 0.58-0.139 0.973-0.245 1.177-0.098 0.188-0.2 0.29-0.306 0.306-0.114 0.008-0.2 0.135-0.257 0.38v0.025c-0.008 0.016-0.012 0.029-0.012 0.037 0 0.065 0.069 0.098 0.208 0.098 0.196-0.025 0.429-0.049 0.699-0.074s0.503-0.037 0.699-0.037c0.27 0 0.486 0.004 0.65 0.012 0.188 0.008 0.409 0.029 0.662 0.061 0.131 0 0.196-0.053 0.196-0.159 0-0.18-0.045-0.27-0.135-0.27-0.008 0.008-0.020 0.012-0.037 0.012s-0.033 0.004-0.049 0.012c-0.082 0-0.168-0.065-0.257-0.196-0.114-0.163-0.208-0.531-0.282-1.103-0.041-0.27-0.070-0.633-0.086-1.091-0.016-0.466-0.025-1.103-0.025-1.913v-2.501c0-0.654 0.004-1.128 0.012-1.422s0.012-0.613 0.012-0.956c0.057-0.123 0.086-0.233 0.086-0.331 0-0.163-0.061-0.249-0.184-0.257l-0.037-0.012h-0.049c-0.074 0-0.159 0.020-0.257 0.061-0.041 0.025-0.090 0.090-0.147 0.196-0.114 0.213-0.266 0.478-0.454 0.797l-0.012 0.025c-0.131 0.229-0.306 0.474-0.527 0.736-0.188 0.229-0.454 0.45-0.797 0.662-0.327 0.204-0.593 0.396-0.797 0.576-0.041 0.041-0.086 0.114-0.135 0.221-0.025 0.025-0.037 0.057-0.037 0.098 0 0.082 0.069 0.168 0.208 0.257 0.033 0.033 0.102 0.049 0.208 0.049h0.061c0.033-0.008 0.057-0.012 0.074-0.012 0.065-0.016 0.114-0.041 0.147-0.074l0.074-0.074c0.114-0.098 0.237-0.184 0.368-0.257 0.090-0.049 0.217-0.123 0.38-0.221z"></path>
<path d="M9.924 16.928c-0.003 0-0.005 0.001-0.008 0.001-0.036 0.003-0.072-0.011-0.096-0.038-0.032-0.036-0.039-0.088-0.017-0.131l0.347-0.676c0.016-0.031 0.044-0.055 0.077-0.066 0.012-0.004 0.025-0.006 0.038-0.007 0.006-0 0.011 0 0.016 0 0.092 0.004 0.979 0.046 1.559 0.044s1.469-0.048 1.561-0.053c0.005-0 0.010-0.001 0.016-0 0.028 0.001 0.054 0.013 0.073 0.034 0.009 0.010 0.016 0.021 0.014 0.035-0.014 0.094-0.178 0.433-0.243 0.564-0.017 0.034-0.045 0.062-0.080 0.078-0.021 0.010-0.045 0.015-0.068 0.016-0.002 0-0.004 0-0.006 0-0.058-0-0.901-0.001-1.47 0.032-0.636 0.036-1.643 0.159-1.712 0.168z"></path>
</svg>
