<!-- Generated by IcoMoon.io -->
<svg version="1.1" xmlns="http://www.w3.org/2000/svg" width="32" height="32" viewBox="0 0 32 32">
<title>token_skull_highlight</title>
<path d="M16.001 7.008c-0.035-0.002-0.069-0.002-0.103 0.002-0.075 0-0.143 0.007-0.211 0.022-0.233 0-0.459 0.037-0.677 0.105-0.286 0.030-0.542 0.075-0.775 0.135-0.226 0.052-0.444 0.12-0.655 0.187-0.15 0.045-0.271 0.083-0.369 0.113s-0.181 0.060-0.256 0.097c-0.075 0.037-0.15 0.075-0.226 0.12s-0.166 0.105-0.271 0.172c-0.196 0.135-0.391 0.3-0.572 0.48-0.188 0.18-0.361 0.375-0.519 0.585-0.166 0.112-0.294 0.232-0.391 0.352s-0.181 0.24-0.248 0.367c-0.105 0.172-0.181 0.382-0.226 0.622-0.023 0.112-0.038 0.217-0.053 0.3-0.015 0.090-0.030 0.18-0.053 0.27-0.023 0.127-0.045 0.247-0.060 0.36s-0.038 0.232-0.060 0.36c-0.008 0.090-0.015 0.195-0.023 0.307 0 0.112-0.007 0.255-0.022 0.412-0.008 0.18-0.015 0.36-0.008 0.539 0.008 0.172 0.023 0.36 0.045 0.539 0.015 0.12 0.030 0.247 0.045 0.39s0.037 0.277 0.060 0.405c0 0.015 0 0.023 0.015 0.038 0.008 0 0.015-0 0.015-0.015 0.023-0.052 0.030-0.097 0.023-0.15s-0.007-0.135-0.007-0.248c0.015-0.097 0.030-0.202 0.045-0.307 0.023-0.097 0.053-0.202 0.098-0.307 0.023-0.045 0.038-0.083 0.053-0.12s0.030-0.075 0.053-0.12c0.023-0.060 0.038-0.112 0.045-0.157s0.023-0.098 0.045-0.157c0.008-0.060 0.015-0.113 0.015-0.157v-0.824l0.015-0.015c0.008 0 0.015-0 0.015 0.015 0.023 0.045 0.045 0.127 0.068 0.24 0.030 0.225 0.053 0.427 0.068 0.6 0.008 0.172 0.015 0.345 0.015 0.502 0 0.060 0 0.112-0.007 0.165s-0.007 0.105-0.007 0.165c0 0.075-0 0.142-0.015 0.21s-0.022 0.142-0.037 0.225c-0.023 0.24-0.045 0.457-0.083 0.637-0.030 0.18-0.060 0.367-0.083 0.547-0.023 0.142-0.030 0.285-0.023 0.442 0.008 0.15 0.023 0.33 0.045 0.539 0.008 0.045 0.015 0.090 0.023 0.135 0 0.045 0.008 0.090 0.023 0.135 0.023 0.082 0.038 0.157 0.053 0.232s0.022 0.158 0.037 0.248c0.023 0.195-0.015 0.352-0.105 0.479-0.023 0.045-0.045 0.090-0.068 0.135s-0.045 0.105-0.067 0.173c-0.023 0.052-0.038 0.097-0.053 0.135s-0.023 0.067-0.038 0.105c-0.045 0.127-0.052 0.262-0.015 0.397 0.038 0.12 0.090 0.225 0.158 0.33 0.053 0.105 0.12 0.202 0.188 0.292 0.068 0.097 0.151 0.187 0.241 0.277l0.015 0.015c0.135 0.105 0.278 0.142 0.414 0.105 0.105-0.022 0.173-0.045 0.211-0.067 0.083-0.008 0.158-0.038 0.241-0.083 0.083-0.030 0.158-0.060 0.241-0.075 0.075-0.015 0.165-0.038 0.256-0.060 0.045-0.008 0.091-0.015 0.136-0.015s0.090-0 0.135-0.015c0.128-0.022 0.256-0.030 0.384-0.022s0.241 0.007 0.331 0.007c0.090 0.015 0.188 0.022 0.278 0.037s0.188 0.030 0.278 0.052c0.038 0.022 0.068 0.038 0.105 0.038s0.068-0 0.105 0.015c0.038 0.008 0.068 0.015 0.098 0.015s0.060-0 0.098 0.015c0.060 0.022 0.098 0.045 0.12 0.060s0.023 0.060 0 0.127c-0.060 0.165-0.075 0.315-0.053 0.449 0 0.022 0 0.038-0.007 0.045s-0.008 0.022-0.008 0.045c0 0.082-0.022 0.135-0.067 0.172-0.045 0.045-0.083 0.068-0.106 0.083-0.023 0.022-0.045 0.045-0.067 0.060s-0.045 0.038-0.068 0.060c-0.196 0.195-0.309 0.412-0.346 0.652-0.015 0.060-0.022 0.12-0.037 0.18s-0.030 0.128-0.053 0.195c-0.045 0.18-0.053 0.36-0.015 0.547 0.008 0.143 0.053 0.27 0.135 0.397 0.068 0.090 0.128 0.15 0.188 0.172 0.030 0.022 0.060 0.007 0.083-0.037 0-0.008 0-0.015 0.008-0.023 0.008 0 0.007-0.007 0.007-0.022 0.008-0.023 0.015-0.045 0.015-0.075s0-0.052 0.015-0.075c0.023-0.112 0.060-0.217 0.105-0.315s0.098-0.195 0.158-0.3v-0.015l0.037 0.015c-0.023 0.127-0.038 0.247-0.045 0.36s-0.007 0.232-0.007 0.36c0 0.105 0.023 0.18 0.068 0.225 0.045 0.053 0.105 0.097 0.165 0.135 0.060 0.030 0.166 0.060 0.301 0.083 0.030 0 0.053-0.015 0.068-0.037 0.023-0.023 0.038-0.045 0.038-0.068 0.023-0.045 0.045-0.105 0.067-0.172 0.008-0.023 0.015-0.037 0.015-0.053s0.015-0.030 0.037-0.052c0 0.008 0 0.015 0.008 0.023 0.008 0 0.007 0.007 0.007 0.022v0.135c0 0.052 0.015 0.12 0.038 0.21 0.023 0.105 0.075 0.157 0.158 0.172 0.090 0.023 0.196 0.008 0.308-0.037 0.023-0.023 0.045-0.060 0.068-0.105 0.008-0.008 0.015-0.038 0.015-0.083-0.008-0.037-0.015-0.067-0.015-0.097s-0-0.060-0.015-0.097c-0.008-0.045-0.015-0.083-0.023-0.12s-0.007-0.075-0.007-0.12c0-0.060-0-0.113 0.007-0.157 0-0.045 0.008-0.097 0.023-0.157 0.023-0.067 0.045-0.142 0.060-0.217s0.037-0.158 0.060-0.248c0.015 0.008 0.030 0.015 0.053 0.015 0.023 0.083 0.038 0.158 0.045 0.225 0 0.068 0.008 0.127 0.023 0.187v0.18c0 0.060-0 0.12-0.015 0.18 0 0.045 0 0.090-0.007 0.135s-0.007 0.098-0.007 0.157c0 0.045 0.015 0.105 0.037 0.172 0.030 0.052 0.076 0.097 0.136 0.135 0.060 0.023 0.128 0.030 0.211 0.015 0.083-0.007 0.151-0.037 0.211-0.082 0.023-0.015 0.068-0.030 0.128-0.053 0.068-0.022 0.098-0.045 0.098-0.067 0-0.037-0-0.067-0.015-0.105-0.008-0.037-0.052-0.068-0.135-0.105 0-0.023-0-0.045 0.015-0.075 0.008-0.030 0.053-0.052 0.136-0.075 0.023-0.045 0.045-0.067 0.067-0.082 0.038-0.037 0.053-0.030 0.053 0.015 0.023 0.023 0.038 0.045 0.038 0.082 0 0.023 0 0.045-0.007 0.060s-0.008 0.038-0.008 0.060 0 0.083 0.015 0.105c0 0.075 0.038 0.105 0.12 0.083 0.008 0 0.015-0 0.023-0.008 0-0.007 0.008-0.007 0.023-0.007 0.045-0.023 0.090-0.045 0.128-0.067s0.083-0.045 0.128-0.067c0.008 0 0.015 0 0.023-0.007 0-0.007 0.008-0.007 0.023-0.007 0.068-0.045 0.105-0.12 0.105-0.225v-0.112c0-0.037-0-0.075-0.015-0.113-0.030-0.097-0.037-0.202-0.015-0.33 0-0.023 0.015-0.082 0.037-0.172h0.030c0.008 0 0.015-0 0.015 0.015 0.008 0.052 0.015 0.098 0.023 0.135s0.007 0.075 0.007 0.12c0.008 0.060 0.015 0.112 0.023 0.172s0.023 0.113 0.045 0.173c0 0.023 0.015 0.044 0.037 0.067 0.023 0.030 0.045 0.038 0.068 0.015 0.015 0 0.030-0.015 0.053-0.037 0.060-0.037 0.113-0.075 0.158-0.112s0.098-0.083 0.158-0.128c0.023-0.007 0.037-0.030 0.037-0.067 0.023-0.045 0.045-0.067 0.068-0.083 0.015-0.007 0.030-0.015 0.045-0.022 0.023 0 0.030-0.008 0.045-0.023 0.105-0.030 0.143-0.075 0.105-0.135-0.023-0.142-0.045-0.27-0.068-0.398s-0.060-0.239-0.12-0.329c-0.045-0.090-0.067-0.173-0.067-0.24 0-0.037-0-0.067-0.008-0.105s-0.007-0.067-0.007-0.105c-0.023-0.052-0.045-0.060-0.083-0.037l-0.038 0.015c-0.023 0.022-0.038 0.038-0.053 0.038-0.023 0.045-0.045 0.045-0.068-0.015-0.023-0.022-0.037-0.038-0.037-0.053-0.023-0.037-0.045-0.075-0.068-0.12s-0.045-0.068-0.083-0.053c-0.060 0-0.113-0-0.173 0.007-0.060 0-0.113 0.008-0.173 0.023-0.015 0-0.030-0.015-0.053-0.037-0.015-0.045-0.023-0.083-0.038-0.12s-0.022-0.075-0.037-0.12c-0.038-0.097-0.038-0.202 0-0.33 0.015-0.060 0.022-0.112 0.037-0.172s0.023-0.113 0.038-0.173c0.023-0.067 0.060-0.105 0.105-0.12 0.038-0.022 0.068-0.038 0.098-0.053 0.030-0.008 0.060-0.015 0.098-0.015 0.135-0.045 0.293-0.067 0.482-0.067 0.263-0.008 0.497-0.015 0.708-0.015h0.602c0.256 0.030 0.481 0.098 0.692 0.21 0.045 0.015 0.083 0.022 0.12 0.037 0.030 0.015 0.075 0.030 0.136 0.052 0.023 0.022 0.045 0.038 0.083 0.053 0.030 0.015 0.060 0.030 0.083 0.052 0.090 0.052 0.166 0.045 0.226-0.037 0.038-0.045 0.068-0.082 0.106-0.105 0.038-0.045 0.075-0.090 0.113-0.127s0.075-0.082 0.113-0.127c0.045-0.075 0.083-0.12 0.12-0.157 0.068-0.15 0.098-0.285 0.083-0.412 0-0.052 0-0.097-0.030-0.082 0-0.022-0-0.045-0.008-0.060s-0.007-0.038-0.007-0.060c-0.023-0.075-0.038-0.165-0.053-0.255-0.015-0.097-0.008-0.225 0.015-0.382l0.053-0.412c0.030-0.21 0.022-0.435-0.038-0.674-0.023-0.067-0.045-0.143-0.075-0.218s-0.053-0.15-0.075-0.217c-0.023-0.127-0.038-0.217-0.053-0.27s-0.023-0.105-0.038-0.15c0-0.052-0.022-0.12-0.067-0.187-0.045-0.090-0.091-0.188-0.136-0.285s-0.098-0.195-0.158-0.285c-0.060-0.090-0.098-0.187-0.113-0.285s-0.037-0.195-0.060-0.3c0-0.195 0.008-0.352 0.023-0.487 0.023-0.135 0.030-0.262 0.045-0.39 0.023-0.135 0.038-0.27 0.053-0.405s0.030-0.262 0.053-0.39c0-0.022-0-0.037 0.007-0.052s0.008-0.030 0.008-0.053c0.015 0 0.022-0 0.037-0.015v0.637c0.015 0.097 0.023 0.187 0.038 0.277 0.015 0.097 0.030 0.187 0.053 0.277 0.038 0.090 0.053 0.187 0.053 0.292 0.008 0.127 0.015 0.225 0.015 0.3s0 0.135 0.015 0.195c0.008 0.045 0.015 0.090 0.015 0.127s-0 0.075 0.015 0.113c0.015 0.037 0.030 0.075 0.053 0.12h0.030c0.023-0.045 0.038-0.082 0.038-0.105 0.023-0.112 0.037-0.21 0.037-0.292 0.030-0.142 0.053-0.345 0.068-0.622 0.008-0.060 0.015-0.12 0.015-0.18s-0-0.127 0.015-0.195l0.053-0.412c0.008-0.090 0.015-0.188 0.023-0.278 0-0.090 0.008-0.187 0.023-0.277v-0.72c0-0.24-0.015-0.48-0.053-0.72-0.030-0.157-0.075-0.337-0.128-0.547-0.045-0.202-0.113-0.382-0.196-0.532-0.053-0.082-0.098-0.158-0.151-0.24s-0.105-0.157-0.165-0.225c-0.12-0.12-0.248-0.247-0.369-0.367s-0.226-0.255-0.316-0.39c-0.128-0.195-0.278-0.375-0.451-0.532-0.203-0.172-0.444-0.322-0.707-0.45s-0.534-0.24-0.813-0.33c-0.173-0.060-0.346-0.112-0.527-0.157-0.173-0.045-0.361-0.082-0.542-0.12-0.173-0.008-0.308-0.015-0.421-0.015-0.105 0-0.211 0-0.316-0.015-0.038-0.004-0.073-0.008-0.108-0.009zM13.789 13.789c1.482 0.487 3.087 0.368 4.405 0.039 0 0 0.020 0.020-0.086 0.125-1.431 0.687-3.008 0.736-4.289 0-0.163-0.103-0.030-0.164-0.030-0.164zM13.633 14.993c0.030 0.003 0.068 0.011 0.113 0.022 0.158 0.022 0.316 0.060 0.467 0.105 0.143 0.045 0.293 0.105 0.429 0.187 0.15 0.045 0.249 0.098 0.309 0.157 0.053 0.060 0.098 0.128 0.135 0.21 0 0.015-0 0.022 0.007 0.037s0.008 0.067 0.008 0.157c0.045 0 0.083 0 0.105 0.015s0.045 0.007 0.060-0.015c0.023-0.022 0.030-0.082 0.045-0.172l0.037-0.037c0.015-0.008 0.030-0.015 0.045-0.007s0.023 0.022 0.023 0.045c0.008 0.105 0.015 0.18 0.015 0.232v0.15c0.008 0.060-0 0.112-0.038 0.172-0.023 0.090-0.023 0.172 0 0.255 0.023 0.060 0.045 0.112 0.060 0.165 0.023 0.052 0.030 0.105 0.045 0.165 0.008 0.045 0.015 0.12 0.015 0.224 0 0.022-0 0.038-0.015 0.038-0.023 0-0.038-0-0.053-0.015-0.038-0.022-0.068-0.045-0.105-0.082-0.038-0.030-0.075-0.060-0.12-0.083-0.030-0.015-0.060-0.015-0.083 0-0.023 0.037-0.045 0.067-0.075 0.105s-0.053 0.075-0.075 0.12c-0.105 0.045-0.18 0.090-0.233 0.127s-0.105 0.082-0.166 0.127c-0.060 0.082-0.121 0.165-0.188 0.195-0.060 0.075-0.128 0.127-0.195 0.165-0.135 0.067-0.294 0.113-0.467 0.135-0.053 0-0.121-0-0.188 0.007s-0.128 0.008-0.188-0.007h-0.414c-0.143 0-0.248 0.052-0.331 0.157l-0.053 0.105c-0.023 0.022-0.045 0.037-0.068 0.045s-0.045-0-0.067-0.023c-0.015 0-0.030-0.015-0.053-0.037-0.030-0.022-0.052-0.060-0.067-0.12-0.068-0.067-0.128-0.112-0.173-0.135-0.083-0.045-0.158-0.105-0.226-0.18s-0.128-0.172-0.188-0.3c-0.045-0.052-0.068-0.12-0.083-0.188-0.083-0.217-0.135-0.45-0.158-0.704v-0.12c0.008-0.060 0.015-0.112 0.022-0.165 0-0.052 0.008-0.105 0.023-0.165 0.023-0.090 0.030-0.165 0.015-0.225-0.008-0.105-0.015-0.18-0.007-0.233s0.022-0.090 0.045-0.127c0.038-0.037 0.053-0.105 0.053-0.21 0-0.037 0.022-0.052 0.067-0.052h0.030l0.038 0.015c0.038 0.015 0.075 0.008 0.12-0.015 0.023-0.008 0.038-0.015 0.053-0.015s0.030 0 0.053-0.015c0.098-0.045 0.203-0.067 0.331-0.067 0.090 0 0.151-0 0.188 0.015 0.023 0 0.038-0 0.053 0.007s0.030 0.008 0.053 0.008c0.075 0.015 0.18-0.007 0.308-0.067 0-0.008 0-0.015 0.015-0.015h0.015c0.188-0.067 0.316-0.075 0.399-0.015 0.008 0.008 0.015 0.015 0.023 0.015 0 0 0.007 0 0.022 0.015 0.083-0.045 0.136-0.068 0.166-0.083 0.015-0.008 0.038-0.009 0.068-0.007zM19.301 15.010c0.046 0 0.085 0.011 0.119 0.034 0.038 0 0.068 0.015 0.106 0.053 0.098 0.060 0.203 0.113 0.308 0.157s0.218 0.098 0.331 0.157c0.053 0.022 0.098 0.037 0.128 0.052s0.060 0.030 0.098 0.053c0.090 0.075 0.166 0.18 0.226 0.307s0.113 0.24 0.158 0.33c0.038 0.075 0.053 0.142 0.053 0.21v0.157c0 0.045-0 0.090 0.015 0.135-0.008 0.060-0.015 0.113-0.015 0.15v0.112h0.007v0.030c-0.023 0.090-0.038 0.15-0.053 0.188-0.008 0.030-0.053 0.075-0.12 0.135-0.158 0.12-0.316 0.247-0.474 0.367s-0.308 0.21-0.459 0.27c-0.173 0.097-0.346 0.142-0.519 0.157-0.113 0.015-0.233 0.015-0.346 0-0.369-0.067-0.677-0.15-0.933-0.255l-0.211-0.105c-0.060-0.060-0.113-0.135-0.158-0.225-0.083-0.090-0.158-0.172-0.226-0.24s-0.128-0.142-0.188-0.225c-0.068-0.090-0.105-0.165-0.12-0.225 0-0.008-0.015-0.015-0.053-0.015-0.008 0-0.038 0.015-0.083 0.037h-0.037v-0.037c0.023-0.060 0.045-0.112 0.075-0.172s0.060-0.113 0.098-0.173c0.023-0.022 0.045-0.045 0.060-0.082 0.015-0.030 0.038-0.060 0.060-0.083 0.068-0.112 0.098-0.232 0.083-0.345v-0.067c0-0.022-0.015-0.082-0.038-0.172-0.023-0.008-0.037-0.015-0.045-0.023-0.008 0-0.023-0.008-0.045-0.023-0.038-0.052-0.030-0.082 0.015-0.082 0.008-0.008 0.015-0.015 0.023-0.015 0 0 0.008 0 0.023-0.015 0.090-0.022 0.166-0.037 0.226-0.037 0.068 0.008 0.151-0.008 0.241-0.053 0.038-0.022 0.068-0.037 0.098-0.045s0.060-0.022 0.098-0.045c0.083-0.052 0.158-0.083 0.241-0.083 0.045 0 0.083-0.022 0.105-0.082 0-0.008 0.015-0.038 0.038-0.083 0.023-0.052 0.060-0.060 0.12-0.037 0.053 0.030 0.12 0.052 0.188 0.067 0.105 0.037 0.181 0.053 0.226 0.053 0.075 0 0.166-0.015 0.256-0.053 0.023-0.022 0.045-0.037 0.067-0.037 0.015-0.008 0.023-0.015 0.038-0.023 0.015 0 0.022-0.008 0.037-0.023 0.060-0.022 0.113-0.034 0.159-0.034zM15.988 17.382c0.054-0.008 0.111 0.008 0.174 0.053 0.045 0.045 0.083 0.127 0.105 0.255 0.023 0.045 0.038 0.083 0.053 0.113s0.030 0.060 0.053 0.097c0.038 0.060 0.068 0.112 0.098 0.165s0.068 0.105 0.113 0.165c0.113 0.060 0.196 0.12 0.241 0.18s0.083 0.127 0.105 0.195c0.015 0.060 0.022 0.112 0.037 0.165s0.030 0.105 0.053 0.165c0 0.060 0 0.098 0.015 0.12 0 0.045 0 0.090-0.007 0.127 0 0.045-0.008 0.090-0.023 0.15-0.008 0.030-0.015 0.075-0.030 0.127-0.023 0.067-0.038 0.127-0.045 0.172 0 0.045-0.008 0.090-0.023 0.135 0 0.022 0 0.038-0.007 0.053s-0.008 0.030-0.008 0.052c-0.023 0.097-0.083 0.165-0.188 0.218s-0.196 0.090-0.278 0.112c-0.068 0.030-0.128 0.023-0.188-0.037-0.023-0.023-0.038-0.037-0.045-0.052s-0.023-0.030-0.045-0.053c-0.045-0.075-0.105-0.082-0.173-0.037s-0.105 0.105-0.12 0.188c-0.008 0.022-0.015 0.037-0.015 0.052s-0 0.030-0.015 0.053c-0.023 0.045-0.038 0.067-0.053 0.082-0.038 0.060-0.090 0.075-0.158 0.053-0.038 0-0.075-0.015-0.12-0.037-0.038-0.022-0.068-0.045-0.105-0.067s-0.068-0.045-0.105-0.067c-0.075-0.037-0.121-0.090-0.158-0.157-0.053-0.097-0.098-0.188-0.135-0.278-0.203-0.157-0.211-0.375-0.015-0.637 0.038-0.12 0.075-0.21 0.12-0.277 0.083-0.12 0.158-0.247 0.218-0.367s0.12-0.255 0.181-0.39c0.045-0.112 0.068-0.195 0.083-0.255 0.053-0.217 0.173-0.389 0.361-0.517 0.017-0.008 0.034-0.013 0.052-0.015z"></path>
<path d="M14.316 24.461c0.186 0.245 0.613 0.737 0.836 0.737 0.446-0.221 1.238 0.092 1.579 0.276 0.248-0.092 0.743-0.387 0.743-0.829 0-0.552-0.929-0.645-1.579-0.645-0.52 0-1.269 0.307-1.579 0.461z"></path>
<path d="M15.895 23.895c-0.562 0-1.306 0.313-1.626 0.472l-0.114 0.056 0.077 0.102c0.096 0.127 0.251 0.313 0.414 0.472 0.082 0.080 0.165 0.152 0.248 0.208s0.163 0.098 0.257 0.098h0.025l0.022-0.011c0.183-0.091 0.472-0.077 0.757-0.006s0.563 0.193 0.725 0.28l0.042 0.023 0.045-0.016c0.137-0.051 0.33-0.151 0.498-0.304s0.313-0.363 0.313-0.624c0-0.168-0.076-0.311-0.191-0.412s-0.265-0.17-0.43-0.218c-0.332-0.098-0.733-0.119-1.063-0.119zM15.895 24.105c0.32 0 0.709 0.024 1.004 0.111 0.148 0.043 0.27 0.102 0.35 0.173s0.12 0.147 0.12 0.255c0 0.182-0.103 0.339-0.244 0.468-0.133 0.12-0.291 0.201-0.403 0.246-0.18-0.093-0.431-0.206-0.715-0.277-0.308-0.077-0.638-0.109-0.901 0.022l0.047-0.011c-0.017 0-0.074-0.018-0.14-0.063s-0.143-0.11-0.219-0.184c-0.116-0.113-0.212-0.234-0.301-0.343 0.342-0.157 0.968-0.398 1.402-0.398z"></path>
</svg>
