<!-- Generated by IcoMoon.io -->
<svg version="1.1" xmlns="http://www.w3.org/2000/svg" width="32" height="32" viewBox="0 0 32 32">
<title>token_auto_fail_highlight</title>
<path d="M13.87 3.653c-0.127 0.004-0.253 0.020-0.374 0.045-0.322-0.060-0.684-0.020-0.966 0.141-0.161 0.020-0.262 0.081-0.423 0.141-0.463 0.101-0.986 0.181-1.408 0.423-0.121 0.101-0.262 0.201-0.362 0.322 0 0-0.040 0.081-0.040 0.101-0.101 0.060-0.362 0.201-0.503 0.241-0.181 0.121-0.402 0.322-0.483 0.564-0.080 0.101-0.181 0.201-0.241 0.302-0.282 0.141-0.503 0.382-0.624 0.684-0.020 0.101-0.081 0.201-0.121 0.282-0.081 0.141-0.322 0.282-0.463 0.382v0.181c-0.080 0.161-0.1 0.322-0.12 0.483l-0.020 0.060v0.020c-0.040 0.060-0.061 0.141-0.101 0.201-0.201 0.221-0.322 0.523-0.423 0.805-0.181 0.403-0.221 0.805-0.241 1.248-0.020 0.060-0.081 0.141-0.121 0.201-0.060 0.282-0.12 0.544-0.020 0.886v1.147c0.040 0.503 0.301 0.926 0.362 1.409 0.080 0.201 0.161 0.402 0.242 0.604 0.121 0.121 0.242 0.302 0.362 0.403 0.101 0.242 0.241 0.423 0.402 0.644 0.101 0.060 0.202 0.141 0.242 0.241-0.604 0.161-1.308 0.261-1.852 0.644-0.342 0.221-0.684 0.383-0.966 0.705-0.302 0.262-0.503 0.684-0.664 1.026-0.241 0.382-0.322 0.865-0.322 1.308-0.181 0.543 0.020 1.107 0.242 1.61 0.141 0.201 0.282 0.564 0.543 0.745 0.201 0.322 0.543 0.544 0.825 0.805h0.724c0.664-0.563 0.604-0.986 0.121-1.67-0.060-0.181-0.141-0.504-0.101-0.725 0.020-0.081 0.020-0.181 0.020-0.262l0.020-0.060c-0.020-0.141 0.020-0.242 0.081-0.382 0.161-0.161 0.362-0.402 0.583-0.523 0.101 0 0.201-0.020 0.322-0.020h0.12c0.181 0.020 0.302 0.1 0.443 0.12 0.161 0.020 0.422 0.101 0.543 0.201 0.121 0.060 0.302 0.121 0.403 0.201 0.101 0.060 0.221 0.121 0.282 0.181 0.121 0.201 0.302 0.362 0.523 0.463 0.121 0.101 0.221 0.282 0.282 0.423 0.080 0.060 0.161 0.281 0.261 0.483l0.060 0.302c0.040 0.221 0.121 0.664 0.121 0.946-0.020 0.040-0.020 0.061-0.020 0.081l0.342 0.342c0.020-0.161 0.020-0.161 0.1-0.342 0.020-0.342-0.080-0.765-0.141-1.107-0.040-0.121-0.060-0.241-0.081-0.362-0.020-0.020-0.040-0.081-0.060-0.101-0.181-0.443-0.342-0.584-0.543-0.926l-0.060-0.020-0.060-0.060c-0.382-0.141-0.342-0.423-0.765-0.604-0.060-0.040-0.1-0.061-0.161-0.101-0.342-0.121-0.584-0.342-0.966-0.382-0.181-0.040-0.322-0.12-0.543-0.141-0.020 0-0.081 0.020-0.101 0.020-0.141 0-0.262 0.040-0.362 0.020-0.161 0.020-0.383 0.201-0.463 0.282l-0.362 0.342v0.020c-0.121 0.161-0.181 0.382-0.181 0.563l-0.020 0.040v0.201c-0.080 0.221-0.020 0.523 0.020 0.745 0.060 0.564 0.785 0.865 0.161 1.389h-0.382l-0.101-0.1c-0.221-0.101-0.463-0.443-0.624-0.604-0.423-0.423-0.664-1.067-0.724-1.671 0-0.121 0.040-0.262 0.081-0.382v-0.322c0.121-0.906 0.704-1.892 1.569-2.315 0.724-0.543 1.892-0.725 2.757-0.805-0.060-0.040-0.141-0.080-0.181-0.141-0.201-0.101-0.382-0.262-0.483-0.463-0.060-0.081-0.161-0.161-0.241-0.221-0.141-0.181-0.242-0.342-0.322-0.523v-0.020c-0.121-0.121-0.181-0.141-0.282-0.322-0.020-0.020-0.060-0.060-0.080-0.081-0.020-0.040-0.081-0.201-0.081-0.201-0.060-0.121-0.081-0.202-0.121-0.302-0.060-0.463-0.262-0.825-0.342-1.288v-0.825h0.040c-0.020-0.322-0.141-0.724-0.040-1.026 0-0.020 0.040-0.060 0.060-0.081v-0.020c0-0.020 0.040-0.101 0.060-0.121v-0.020l0.020-0.060c0-0.161 0.040-0.342 0.020-0.503 0.020-0.242 0.1-0.443 0.181-0.664 0.121-0.423 0.383-0.704 0.544-1.067v-0.040l0.020-0.060c0.020-0.181 0.040-0.322 0.121-0.483v-0.081c0.060-0.040 0.181-0.121 0.221-0.161h0.020l0.020-0.020c0.101-0.161 0.241-0.342 0.282-0.543 0.080-0.262 0.302-0.443 0.523-0.523 0.080-0.121 0.181-0.242 0.322-0.403 0.040-0.161 0.201-0.342 0.342-0.423 0.181-0.060 0.463-0.221 0.604-0.322l0.020-0.020c0.020-0.040 0.040-0.061 0.060-0.101 0.060-0.080 0.161-0.141 0.221-0.181l0.040-0.040c0.423-0.242 1.006-0.262 1.449-0.423 0.362-0.121 0.725-0.302 1.107-0.201 0.423-0.080 0.905-0.081 1.288 0.161 0.040 0.040 0.121 0.060 0.161 0.060 0.362-0.080 0.624 0.141 0.865 0.362 0.181 0.080 0.483 0.201 0.664 0.261 0.161 0.101 0.262 0.222 0.382 0.363 0.241 0.101 0.503 0.241 0.583 0.503 0.040 0.201 0.262 0.423 0.403 0.544 0.121 0.080 0.181 0.161 0.282 0.302l0.040 0.020c0.181 0.242 0.201 0.564 0.342 0.845 0.121 0.201 0.201 0.483 0.181 0.724 0.060 0.302 0.141 0.624 0 0.926-0.020 0.221 0.060 0.443-0.060 0.664-0.060 0.181-0.060 0.382-0.080 0.543-0.141 0.322-0.342 0.684-0.624 0.926l-0.020 0.040-0.020 0.020c-0.060 0.201-0.201 0.362-0.382 0.483-0.201 0.040-0.362 0.202-0.503 0.343-0.423 0.242-0.805 0.422-1.227 0.604-0.262 0.020-0.443-0.121-0.583-0.282v-0.302c0.101-0.181 0.201-0.342 0.322-0.503 0.020-0.020 0.040-0.081 0.060-0.121 0.081-0.121 0.1-0.262 0.161-0.382 0-0.221-0.020-0.584 0.060-0.765 0.060-0.262-0.040-0.503-0.141-0.805-0.241-0.121-0.302-0.402-0.503-0.523-0.322-0.121-0.543-0.242-0.885-0.343-0.101 0.020-0.161 0.040-0.181 0.040-0.402 0.081-0.664 0.383-0.986 0.644v0.12l-0.141 0.382c-0.020 0.020-0.081 0.081-0.101 0.081-0.161 0.403-0.181 0.926 0.040 1.308 0.141 0.221 0.141 0.503 0.282 0.704 0.020 0.020 0.040 0.060 0.060 0.081h0.040l0.060 0.060c0.121 0.040 0.241 0.201 0.322 0.302 0.161 0.161 0.281 0.362 0.342 0.563 0.282 0.121 0.322 0.181 0.564 0.382 0.221-0.020 0.402 0.081 0.583 0.181 0.241 0.060 0.402 0.262 0.583 0.423 0.181 0.141 0.383 0.302 0.544 0.463 0.121 0.201 0.322 0.261 0.503 0.442 0.121 0.141 0.282 0.282 0.382 0.463l0.081 0.161c0.040 0.081 0.080 0.141 0.080 0.161l0.040 0.020c0.121 0.201 0.262 0.383 0.282 0.644 0.020 0.221 0.081 0.382 0.081 0.604l0.081 0.101v0.040c0.201 0.282 0.161 0.704 0.161 1.026 0.543-0.604 1.288-1.046 2.012-1.429h0.040c0.141-0.101 0.242-0.221 0.382-0.302 0.402-0.101 0.744-0.322 1.147-0.423 0 0 0.020-0 0.020-0.020 0.161-0.282 0.423-0.443 0.564-0.745 0.221-0.403 0.422-0.725 0.382-1.188 0.020-0.342-0.040-0.544-0.342-0.584-0.262 0-0.684 0.020-0.926 0.060-0.181 0.020-0.443 0.121-0.563 0.241-0.101 0.081-0.221 0.141-0.322 0.181-0.020 0-0.020 0.020-0.040 0.020-0.121 0.282-0.201 0.342-0.382 0.563-0.181 0.242-0.644 0.141-0.744-0.141-0.121-0.302 0.040-0.584 0.040-0.886-0.040-0.242 0.020-0.443 0.081-0.684l0.020-0.020c0.020-0.101 0.121-0.241 0.121-0.302 0.020-0.242 0.161-0.463 0.241-0.644 0.060-0.101 0.161-0.241 0.262-0.302 0.302-0.242 0.523-0.543 0.905-0.704 0.201-0.121 0.383-0.040 0.544-0.161 0.181-0.141 0.423-0.201 0.644-0.261 0.201-0.060 0.382-0.020 0.523-0.040 0.201-0.040 0.342 0.020 0.523 0.040 0.161 0 0.342-0.121 0.523-0.060 0.241 0.020 0.463 0.161 0.744 0.302 0.382 0.201 0.805 0.423 1.087 0.765 0.302 0.423 0.644 0.764 0.745 1.268 0.020 0.121 0.081 0.141 0.121 0.222 0.241 0.282 0.080 0.604 0.201 0.885 0.121 0.322 0.081 0.604 0.040 0.926-0.081 0.302-0.101 0.604-0.181 0.906-0.060 0.302-0.221 0.765-0.403 1.046-0.040 0.060-0.060 0.101-0.060 0.121 0 0.161-0.101 0.281-0.161 0.422l-0.020 0.020c-0.020 0.040-0.060 0.101-0.080 0.121-0.282 0.221-0.483 0.624-0.745 0.886-0.040 0.040-0.101 0.121-0.221 0.221-0.141 0.141-0.443 0.383-0.564 0.564-0.060 0.060-0.12 0.121-0.181 0.161v0.121c-0.141 0.081-0.322 0.161-0.463 0.201-0.121 0.141-0.262 0.302-0.423 0.403-0.342 0.121-0.604 0.403-0.905 0.604 0.060 0 0.141 0.020 0.201 0.020l0.020 0.020c0.221-0.020 0.463 0.060 0.664 0.12 0.241 0.040 0.462 0.181 0.704 0.242 0.322 0.101 0.705 0.121 0.986 0.342 0.241-0.060 0.543-0 0.744 0.1h0.020c0.020 0.020 0.061 0.040 0.081 0.060h0.020c0.201 0 0.402-0.060 0.583 0.060 0.080 0.020 0.141 0.040 0.201 0.060s0.121 0 0.201-0.020c0.161-0.060 0.322-0.040 0.483-0.040 0.282-0.080 0.523-0.161 0.765-0.221h0.060c0.020-0.020 0.060-0.060 0.081-0.060 0.161-0.121 0.362-0.322 0.483-0.483 0.443-0.040 0.745 0.121 0.704 0.624-0.060 0.101-0.141 0.262-0.141 0.322-0.181 0.423-0.362 0.785-0.764 1.006-0.201 0.141-0.523 0.242-0.684 0.423-0.241 0.241-0.644 0.282-0.946 0.362-0.322-0.020-0.564 0.161-0.886 0.141-0.121-0.040-0.503-0.020-0.644-0.020-0.322 0.121-0.603 0.040-0.926 0.040l-0.040-0.020c-0.282-0.080-0.563 0.020-0.845-0.020-0.121-0.020-0.241-0.020-0.342-0.060-0.181 0.020-0.322-0.101-0.483-0.081h-0.060c-0.121 0.060-0.242 0.060-0.362 0.060-0.020 0-0.081-0-0.101-0.020-0.161-0.040-0.221-0.020-0.403-0.040-0.121 0-0.121-0.020-0.302-0.020-0.221 0-0.342 0.101-0.523 0.081-0.181 0.081-0.422 0.141-0.583 0.141-0.362 0.101-0.624 0.262-0.886 0.483 0.724-0.201 1.473-0.083 1.912-0.302 0.101 0 0.181 0 0.262 0.020 0.101 0 0.242-0 0.302 0.020 0.060 0 0.141 0.020 0.201 0.040 0.181 0 0.363-0 0.544-0.060 0.121 0.040 0.241 0.081 0.382 0.081 0.121 0.020 0.242 0.040 0.382 0.060 0.241 0.060 0.503-0.060 0.745 0l0.060 0.040c0.403-0.020 0.725 0.080 1.107-0.040h0.443l0.060 0.020c0.342 0.040 0.644-0.141 0.986-0.141 0.362-0.080 0.865-0.141 1.167-0.463 0.040-0.040 0.060-0.080 0.121-0.1 0.443-0.201 0.885-0.463 1.147-0.906 0.121-0.241 0.141-0.201 0.262-0.523 0.020-0.040 0.040-0.121 0.040-0.161 0.020-0.040 0.121-0.201 0.141-0.242 0.121-0.241 0.141-0.443 0.060-0.624-0.181-0.523-0.765-0.584-1.228-0.544-0.161 0.181-0.342 0.423-0.543 0.564-0.241 0.081-0.443 0.141-0.724 0.221-0.181 0-0.322 0-0.543 0.060h-0.020c-0.241-0.081-0.503-0.161-0.765-0.101l-0.060-0.040h-0.040c-0.201-0.081-0.483-0.141-0.745-0.121-0.402-0.242-0.885-0.242-1.268-0.443-0.121-0.060-0.262-0.101-0.382-0.121 0.221-0.101 0.382-0.242 0.543-0.443 0.201-0.081 0.443-0.201 0.624-0.302v-0.1c0.040-0.040 0.101-0.101 0.141-0.161 0.020-0.060 0.1-0.121 0.161-0.161 0.101-0.101 0.262-0.241 0.302-0.282 0.141-0.121 0.221-0.221 0.241-0.241 0.282-0.262 0.463-0.664 0.744-0.886 0.060-0.040 0.101-0.141 0.141-0.181 0.080-0.181 0.201-0.362 0.222-0.564 0.282-0.463 0.483-1.107 0.543-1.651 0.121-0.523 0.221-1.047 0.020-1.59-0.060-0.181-0-0.402-0.060-0.624-0.020-0.081-0.080-0.221-0.161-0.322-0.020-0.040-0.061-0.101-0.081-0.121-0.081-0.463-0.382-0.825-0.664-1.228-0.322-0.463-0.865-0.805-1.368-1.067-0.423-0.242-0.926-0.483-1.409-0.282-0.181-0.040-0.382-0.060-0.604-0.040-0.443-0.020-0.966 0.101-1.348 0.362-0.583 0.020-1.066 0.523-1.449 0.886-0.342 0.282-0.584 0.725-0.664 1.208-0.020 0.020-0.060 0.1-0.081 0.141l-0.020 0.020c-0.080 0.302-0.181 0.584-0.121 0.906-0.020 0.342-0.161 0.684 0 1.046 0.221 0.564 1.087 0.684 1.449 0.201 0.161-0.201 0.242-0.262 0.362-0.503 0.101-0.040 0.221-0.121 0.322-0.181v-0.040c0.302-0.181 0.784-0.181 1.147-0.181v0.463c0 0.060-0.020 0.060-0.040 0.1-0.040 0.181-0.182 0.403-0.302 0.624-0.141 0.242-0.362 0.362-0.483 0.563-0.342 0.101-0.624 0.302-1.006 0.382-0.181 0.060-0.322 0.202-0.483 0.322-0.584 0.282-1.047 0.583-1.55 0.966-0.020-0.101-0.060-0.181-0.1-0.282v-0.081l-0.081-0.101c-0.020-0.161-0.040-0.302-0.081-0.443-0.020-0.403-0.181-0.624-0.382-0.926l-0.020-0.040c-0.020-0.040-0.1-0.181-0.12-0.222-0.181-0.342-0.544-0.664-0.866-0.885-0.081-0.121-0.201-0.201-0.302-0.302-0.302-0.201-0.563-0.524-0.865-0.705-0.282-0.101-0.443-0.241-0.765-0.282-0.141-0.121-0.221-0.181-0.403-0.282-0.101-0.221-0.181-0.362-0.342-0.523-0.101-0.121-0.262-0.322-0.362-0.362-0.060-0.040-0.161-0.141-0.201-0.221 0-0.242-0.121-0.443-0.221-0.644-0.080-0.242-0.060-0.523 0.020-0.765l0.101-0.1 0.181-0.544c0.161-0.121 0.302-0.322 0.483-0.382 0.060-0.020 0.161-0.060 0.241-0.081 0.282 0.081 0.463 0.181 0.704 0.282 0.080 0.141 0.201 0.302 0.362 0.423 0.060 0.141 0.1 0.302 0.1 0.402-0.080 0.221-0.081 0.543-0.081 0.825-0.020 0.060-0.040 0.141-0.080 0.222-0.020 0.040-0.060 0.121-0.081 0.161-0.161 0.201-0.262 0.403-0.382 0.624v0.563c0.141 0.121 0.262 0.302 0.463 0.403 0.161 0.101 0.423 0.141 0.624 0.121 0.523-0.262 1.147-0.463 1.61-0.906 0.101-0.060 0.161-0.081 0.262-0.101 0.221-0.181 0.422-0.382 0.523-0.644 0.221-0.161 0.362-0.423 0.503-0.644 0.181-0.262 0.221-0.523 0.241-0.825 0.081-0.302 0.161-0.543 0.101-0.825 0.141-0.322 0.081-0.724 0.020-1.067 0.020-0.282-0.080-0.624-0.241-0.866-0.101-0.342-0.221-0.684-0.403-0.986l-0.081-0.020c-0.141-0.201-0.362-0.322-0.503-0.503-0.040-0.080-0.040-0.061-0.040-0.101-0.101-0.322-0.402-0.584-0.704-0.724-0.161-0.181-0.262-0.302-0.483-0.403-0.181-0.080-0.463-0.161-0.644-0.241-0.241-0.262-0.644-0.443-1.026-0.423-0.317-0.196-0.713-0.279-1.095-0.266zM13.295 6.053c-1.509 0.020-2.536 0.141-3.683 0.322-0.080 0.121-0.201 0.161-0.322 0.221-0.141 0.081-0.181 0.302-0.241 0.423-0.141 0.242-0.201 0.422-0.443 0.583 0 0.020-0 0.020-0.020 0.020-0.060 0.060-0.081 0.121-0.081 0.181-0.040 0.080-0 0.181-0.040 0.262 0 0.040 0 0.081-0.020 0.101-0.241 0.483-0.624 1.047-0.704 1.59 0 0.201-0 0.443-0.040 0.644 0 0.040-0.020 0.081-0.060 0.161 0 0.060-0.040 0.1-0.081 0.161 0 0.060-0.060 0.262 0 0.342 0.040 0.322 0.081 0.624 0.060 0.926h-0.040c-0.060 0.564 0.241 1.027 0.322 1.59 0.040 0.040 0 0.081 0.040 0.121 0.040 0.121 0.081 0.181 0.121 0.302 0.101 0.101 0.181 0.241 0.282 0.322 0.081 0.040 0.12 0.121 0.141 0.201 0.020 0.020 0.020 0.040 0.020 0.060 0.040 0.081 0.101 0.181 0.201 0.322 0.161 0.121 0.282 0.242 0.362 0.382v0.020c0.080 0.081 0.141 0.141 0.201 0.161 0.241 0.201 0.503 0.322 0.725 0.544 0.161 0.101 0.483 0.523 0.704 0.402h0.181c0.322 0.060 0.745 0.302 1.046 0.322 0.221 0.081 0.644 0.161 0.745 0.382 0.080 0.060 0.060 0.1 0.141 0.141 0.020 0.060 0.040 0.081 0.101 0.081 0.040 0.020 0.060 0.020 0.12 0.020 0.201 0.081 0.342 0.101 0.403 0.322 0.060 0.121 0.362 0.322 0.423 0.362 0.141 0.121 0.443 0.463 0.583 0.664 0.121 0.141 0.241 0.201 0.302 0.422 0.081 0.242 0.201 0.443 0.362 0.644 0.121 0.463 0.262 0.946 0.463 1.389l0.020 0.020c0.020 0 0.020 0 0.020 0.020 0.040 0 0.060-0 0.081-0.020 0.161-0.544 0.342-1.087 0.725-1.53 0.181-0.121 0.221-0.322 0.362-0.503 0.020-0.322 0.020-0.724-0.181-1.006-0.262-0.362-0.161-1.067-0.262-1.228-0.282-0.382-0.966-0.966-1.972-1.268-0.523-0.161-0.845-0.604-1.328-0.745-0.543-0.161-0.704-0.644-1.086-0.966-0.322-0.262 0.181-0.765-0.242-1.067-0.342-0.242 0.121-0.362-0.1-0.765-0.141-0.262 0.402-0.946 0.704-1.147-0.040-0.382-0-0.805 0.161-1.167l0.081-0.081 0.081-0.241c-0.060-0.242 0.181-0.403 0.362-0.544 0.302-0.322 0.684-0.503 1.127-0.584 0.201-0.040 0.402 0.101 0.604 0.161 0.302 0.141 0.624 0.181 0.825 0.483 0.081 0.242 0.362 0.261 0.422 0.523 0.141 0.382 0.242 0.705 0.121 1.067-0.020 0.141-0.020 0.523-0.020 0.684-0.121 0.403-0.322 0.704-0.543 1.046v0.020c0.040 0.040 0.060 0.060 0.1 0.060 0.382-0.201 0.805-0.322 1.107-0.604 0.141-0.141 0.282-0.242 0.483-0.302l0.020-0.020c0.040-0.020 0.101-0.060 0.121-0.12 0.081-0.060 0.061-0.181 0.141-0.242 0.040-0.101 0.1-0.121 0.161-0.181 0.181-0.101 0.221-0.322 0.362-0.463 0.141-0.242 0.081-0.523 0.181-0.785 0.060-0.121 0.040-0.242 0.020-0.382-0.282-0.060-0.583-0.222-0.704-0.523-0.101-0.262-0.503-1.288-1.489-1.59-1.227-0.362-1.75-1.127-2.736-1.127zM20.498 11.668c-0.141 0.161-0.382 0.282-0.503 0.503-0.181 0.302-0.201 0.624-0.362 0.926-0.101 0.322-0 0.443-0.060 0.725-0.020 0.181-0.101 0.383-0.040 0.503 0.020 0.040 0.040 0.040 0.081 0 0.141-0.161 0.241-0.322 0.342-0.523 0.040-0.081 0.081-0.060 0.141-0.141l0.020-0.020c0-0.020 0-0.020 0.020-0.020 0.241-0.081 0.402-0.262 0.644-0.362 0.342-0.081 0.684-0.161 1.046-0.161 0.644-0.060 1.127 0.242 1.066 0.986 0.020 0.242 0.040 0.503-0.060 0.684-0.181 0.543-0.523 0.966-0.865 1.389-0.040 0.040-0.060 0.060-0.060 0.081-0.040 0.060-0.1 0.121-0.201 0.181-0.342 0.040-0.644 0.282-0.986 0.363-0.040 0-0.061-0-0.081 0.020-0.221 0.060-0.261 0.222-0.483 0.343-0.040 0-0.081 0.020-0.121 0.020-0.604 0.302-1.268 0.744-1.751 1.207-0.181 0.201-0.322 0.443-0.543 0.584-0.402 0.242-0.684 0.946-1.046 1.208-0.241 0.463-0.382 1.006-0.604 1.469-0.040 0.262-0.040 0.624-0.040 0.906 0 0.040 0.020 0.080 0.020 0.12 0 0.020 0 0.020 0.020 0.020s0.020-0 0.020 0.020c0.302-0.221 0.644-0.604 0.986-0.644 0.040 0 0.061-0.020 0.121-0.081 0.483-0.382 0.986-0.744 1.57-0.986 0.302-0.020 0.483-0.202 0.744-0.322 0.322-0.242 0.704-0.302 1.107-0.302v0.020c0.161 0 0.865 0.020 0.986-0.020 0.221-0.101 0.624-0.422 0.865-0.604 0.161-0.121 0.483-0.221 0.584-0.382 0.201-0.241 0.181-0.181 0.463-0.322 0.060-0.040 0.121-0.040 0.201-0.141 0.141-0.181 0.342-0.362 0.523-0.523-0.161-0.584-0.040-1.55 0.523-1.872 0.382-0.221 0.342-1.107 0.222-1.328-0.221-0.423 0.201-1.087-0.222-1.228-0.584-0.201-0.805-0.966-1.57-1.57-0.664-0.523-1.831-0.624-2.717-0.725zM8.846 17.159c-0.012-0.001-0.025 0-0.039 0.004-0.322 0.101-0.503-0-0.704 0.402-0.181 0.362-1.509 0.081-2.093 0.222-0.342 0.543-0.624 1.047-0.604 1.671-0.161 0.523 0.040 1.026 0.302 1.469 0.060 0.241 0.262 0.302 0.423 0.543 0.121 0.161 0.241 0.262 0.382 0.342l0.020 0.020h0.060c0.040-0.141-0.181-0.282-0.221-0.442-0.262-0.503-0.262-1.087-0.161-1.63 0-0.483 0.322-0.825 0.664-1.147 0.362-0.403 0.906-0.463 1.409-0.423 0.221 0.060 0.362 0.141 0.583 0.161 0.362 0.060 0.563 0.282 0.905 0.382 0.241 0.161 0.563 0.322 0.684 0.544 0.040 0.060 0.121 0.121 0.201 0.161 0.040 0 0.060 0.020 0.1 0.060 0.060 0.020 0.121 0.061 0.181 0.121 0 0.040 0.020 0.061 0.060 0.101 0.221 0.342 0.422 0.624 0.583 1.046 0.121 0.543 0.241 1.067 0.241 1.61 0 0.161-0.101 0.302-0.101 0.463-0.020 0.040-0.040 0.201 0 0.262l1.952 1.952c0.060 0.040 0.081 0.080 0.141 0.121 0.040 0.020 0.101 0.020 0.141 0.020l0.020-0.040c0.020 0 0.020-0.020 0.020-0.040 0.282-0.362 0.584-0.805 0.906-1.208 0.141-0.181 0.12-0.443 0.1-0.644h0.020c0-0.141-0.020-0.382-0.020-0.503 0-0.282-0.020-0.584-0.1-0.866-0.060-0.101-0-0.221-0.020-0.342-0.181 0.060-0.362 0.161-0.483 0.141 0-0.060-1.067-0.604-1.328-0.906s-0.282-1.208-0.845-1.208-0.805-1.53-1.409-2.013c-0.141-0.101-0.181 0.262-0.382 0.101-0.161-0.141-0.784 0.121-1.046 0.081-0.396-0.057-0.368-0.573-0.545-0.588zM28.669 21.067c-0.221 0.201-0.443 0.524-0.745 0.544-0.322 0.081-0.543 0.221-0.905 0.241-0.201-0.020-0.362 0.060-0.503 0.081-0.302 0.020-0.443-0.201-0.704-0.121h-0.101c-0.080 0.020-0.201-0-0.282-0.040-1.248 0.302-4.165-0.241-4.648-0.080-0.543 0.181-1.409-0.141-1.751 0.282-0.282 0.382-0.463 0.262-0.825 0.382-0.282 0.121-0.584 0.181-0.906 0.141h-0.020c-0.080 0.040-0.221 0.020-0.302 0.12-0.262 0.201-0.603 0.443-0.764 0.724-0.604 0.664-1.308 1.168-1.731 1.993-0.060 0.201-0.060 0.302-0.060 0.463l1.549 1.55 1.63-1.63c0.080-0.101 0.020-0.262 0.081-0.382 0.121-0.362 0.402-0.724 0.644-1.006 0.040 0.020 0.785-0.644 0.785-0.624 0.342-0.282 0.785-0.503 1.248-0.544 0.302-0.101 0.543-0.161 0.885-0.201 0.362-0.020 0.725 0.101 1.046 0.040 0.161-0.060 0.322-0.040 0.503 0 0.221 0.101 0.483 0.081 0.704 0.121 0.282-0.040 0.563-0.040 0.845 0.020 0.302 0.040 0.584 0.020 0.845-0.060v0.040c0.161 0 0.523-0.020 0.664 0.020 0.302-0.020 0.463-0.161 0.765-0.141 0.262-0.060 0.604-0.080 0.785-0.322 0.825-0.523 1.026-0.483 1.389-1.489 0-0.040-0-0.121-0.060-0.121h-0.060z"></path>
</svg>
