<!-- Generated by IcoMoon.io -->
<svg version="1.1" xmlns="http://www.w3.org/2000/svg" width="32" height="32" viewBox="0 0 32 32">
<title>token_frost_sealed</title>
<path d="M15.226 23.13c-0.009-0.057-0.012-0.121-0.011-0.336 0-0.147 0.004-0.288 0.008-0.316s0.009-0.065 0.011-0.085c0.004-0.033 0.006-0.037 0.038-0.058 0.019-0.012 0.036-0.022 0.039-0.022s0.015-0.008 0.028-0.017c0.013-0.010 0.027-0.018 0.031-0.018 0.012 0 0.113-0.054 0.136-0.072l0.020-0.016-0.004-0.777-0.088 0.049c-0.139 0.078-0.564 0.342-0.658 0.409-0.047 0.034-0.096 0.063-0.109 0.066l-0.023 0.004v0.297c0 0.262-0.001 0.299-0.011 0.313-0.018 0.026-0.074 0.058-0.308 0.178-0.121 0.062-0.238 0.124-0.26 0.137-0.034 0.020-0.16 0.070-0.164 0.064-0.001-0.001-0.010-0.027-0.020-0.058-0.018-0.056-0.019-0.059-0.019-0.264-0-0.114-0.005-0.285-0.010-0.38-0.013-0.216-0.013-0.655-0.001-0.69 0.008-0.021 0.030-0.038 0.177-0.131 0.093-0.059 0.468-0.295 0.833-0.525l0.664-0.418v-1.542l-0.016 0.008c-0.009 0.005-0.060 0.034-0.115 0.066s-0.122 0.069-0.152 0.083c-0.029 0.014-0.081 0.047-0.116 0.073s-0.085 0.060-0.113 0.076c-0.028 0.016-0.074 0.046-0.102 0.066s-0.055 0.036-0.058 0.036c-0.004 0-0.020 0.010-0.038 0.021l-0.031 0.021v0.328c0 0.354-0.004 0.394-0.038 0.431-0.039 0.042-0.891 0.53-0.926 0.53-0.009 0-0.044-0.052-0.044-0.065 0-0.005-0.009-0.018-0.019-0.029l-0.019-0.020-0.004-0.699 0.044-0.044c0.035-0.035 0.049-0.044 0.066-0.044 0.014 0 0.041-0.013 0.079-0.039l0.058-0.039 0-0.743 0.055-0.035c0.030-0.019 0.162-0.102 0.294-0.184s0.348-0.217 0.479-0.3c0.386-0.244 0.653-0.406 0.685-0.415l0.030-0.009-0.001-0.396-0.385-0.222c-0.212-0.122-0.39-0.222-0.396-0.222s-0.068 0.035-0.138 0.078c-0.070 0.043-0.162 0.096-0.204 0.119s-0.165 0.091-0.271 0.151c-0.107 0.061-0.27 0.153-0.363 0.204s-0.259 0.147-0.368 0.212c-0.109 0.065-0.227 0.133-0.261 0.151s-0.080 0.044-0.102 0.058l-0.039 0.025-0.005 0.177c-0.005 0.18-0.011 0.284-0.029 0.49-0.017 0.197-0.025 0.353-0.032 0.617-0.008 0.314-0.013 0.355-0.052 0.42-0.023 0.038-0.036 0.052-0.064 0.067-0.020 0.011-0.112 0.062-0.205 0.115s-0.21 0.118-0.261 0.146c-0.242 0.131-0.418 0.232-0.544 0.314-0.054 0.035-0.182 0.093-0.22 0.099-0.008 0.001-0.013-0.018-0.023-0.079-0.025-0.156-0.027-0.196-0.027-0.476l-0-0.283 0.038-0.034c0.052-0.047 0.078-0.066 0.091-0.066 0.006 0 0.022-0.009 0.035-0.021s0.041-0.027 0.062-0.036c0.021-0.008 0.113-0.060 0.205-0.114 0.195-0.117 0.182-0.099 0.182-0.249 0-0.054 0.005-0.153 0.010-0.221s0.010-0.183 0.010-0.256l0-0.132-0.019 0.011c-0.011 0.006-0.306 0.177-0.657 0.38l-0.638 0.369-0.005 0.168c-0.003 0.093-0.007 0.18-0.011 0.194-0.006 0.025-0.013 0.030-0.154 0.115-0.251 0.151-0.442 0.26-0.498 0.283l-0.054 0.022-0.033-0.044c-0.019-0.025-0.032-0.052-0.032-0.062s-0.004-0.020-0.008-0.023c-0.006-0.004-0.007-0.127-0.003-0.485 0.003-0.264 0.007-0.516 0.010-0.56l0.005-0.080 0.32-0.182c0.176-0.1 0.346-0.192 0.377-0.204 0.049-0.020 0.243-0.138 0.243-0.148 0-0.002-0.051-0.030-0.114-0.061-0.071-0.036-0.14-0.077-0.181-0.108-0.037-0.028-0.091-0.062-0.12-0.076s-0.087-0.046-0.129-0.072c-0.042-0.026-0.084-0.049-0.094-0.052s-0.032-0.014-0.048-0.025l-0.029-0.020-0.102 0.058c-0.178 0.101-0.229 0.131-0.243 0.145-0.008 0.007-0.025 0.017-0.039 0.021s-0.036 0.017-0.051 0.029c-0.033 0.026-0.207 0.111-0.231 0.113-0.012 0.001-0.117-0.056-0.333-0.181l-0.315-0.183v-0.048c0-0.072 0.029-0.126 0.078-0.146 0.011-0.005 0.020-0.014 0.021-0.020 0-0.008 0.054-0.041 0.162-0.099 0.089-0.048 0.209-0.117 0.266-0.153s0.108-0.066 0.114-0.066c0.005 0 0.021-0.009 0.035-0.020 0.025-0.020 0.095-0.064 0.134-0.085 0.010-0.005 0.031-0.021 0.047-0.034s0.047-0.030 0.072-0.037c0.040-0.012 0.087-0.039 0.136-0.076 0.022-0.017 0.145-0.079 0.156-0.079 0.005 0 0.019-0.010 0.031-0.022l0.023-0.022 0.031 0.021c0.017 0.011 0.073 0.042 0.126 0.067s0.13 0.066 0.173 0.090c0.043 0.024 0.112 0.059 0.155 0.079 0.093 0.042 0.178 0.089 0.387 0.209 0.086 0.050 0.191 0.108 0.233 0.131s0.107 0.059 0.144 0.082c0.037 0.023 0.072 0.042 0.076 0.042s0.009 0.005 0.009 0.011c0 0.006 0.005 0.011 0.011 0.011s0.057 0.023 0.115 0.052l0.104 0.052 0.033-0.011c0.018-0.006 0.042-0.020 0.053-0.030 0.030-0.028 0.116-0.084 0.214-0.138 0.149-0.083 0.296-0.168 0.296-0.171 0-0.006-0.206-0.125-0.222-0.128-0.008-0.002-0.084-0.048-0.169-0.102-0.32-0.204-0.61-0.376-0.745-0.443-0.163-0.081-0.32-0.168-0.348-0.193-0.016-0.014-0.071-0.051-0.122-0.081s-0.092-0.059-0.091-0.061c0.001-0.004 0.536-0.316 0.736-0.43l0.037-0.021 0.083 0.052c0.139 0.088 0.428 0.26 0.558 0.333 0.067 0.038 0.158 0.093 0.201 0.123 0.113 0.079 0.23 0.151 0.397 0.244 0.17 0.095 0.267 0.153 0.337 0.201 0.027 0.019 0.063 0.039 0.080 0.045l0.030 0.011 0.073-0.042c0.040-0.023 0.079-0.042 0.086-0.042s0.042-0.017 0.076-0.038c0.114-0.068 0.16-0.094 0.302-0.169 0.078-0.041 0.183-0.099 0.234-0.129s0.125-0.073 0.165-0.094c0.039-0.021 0.092-0.054 0.117-0.073s0.057-0.038 0.072-0.043l0.026-0.009v-0.907l-0.161-0.101c-0.088-0.055-0.164-0.101-0.167-0.101s-0.069 0.036-0.147 0.081c-0.078 0.045-0.146 0.081-0.152 0.081s-0.098 0.046-0.204 0.102c-0.106 0.056-0.198 0.102-0.204 0.102-0.023 0-0.117 0.049-0.195 0.102-0.083 0.056-0.17 0.102-0.192 0.102-0.007 0-0.023 0.005-0.035 0.011s-0.055 0.025-0.095 0.042l-0.073 0.030-0.361-0.213c-0.343-0.202-0.552-0.323-0.615-0.355-0.025-0.013-0.032-0.022-0.059-0.082l-0.031-0.068 0.031-0.032c0.038-0.039 0.060-0.052 0.331-0.197 0.118-0.063 0.24-0.129 0.271-0.147s0.060-0.032 0.065-0.032c0.016 0 0.075 0.033 0.107 0.060 0.033 0.028 0.122 0.082 0.193 0.117 0.024 0.012 0.057 0.031 0.073 0.042s0.033 0.020 0.037 0.020c0.004 0 0.021-0.009 0.037-0.020 0.038-0.026 0.089-0.052 0.157-0.079s0.237-0.12 0.23-0.127c-0.003-0.003-0.267-0.161-0.586-0.351l-0.58-0.346-0.039 0.010c-0.021 0.006-0.050 0.019-0.064 0.029-0.076 0.056-0.198 0.132-0.269 0.169-0.044 0.023-0.181 0.106-0.303 0.186-0.198 0.129-0.346 0.219-0.506 0.307-0.028 0.016-0.099 0.060-0.157 0.097s-0.11 0.069-0.117 0.069c-0.006 0-0.037 0.017-0.069 0.038s-0.067 0.043-0.079 0.050l-0.022 0.013-0.179-0.109c-0.098-0.060-0.196-0.118-0.217-0.129s-0.086-0.050-0.144-0.088c-0.146-0.094-0.204-0.128-0.367-0.216-0.078-0.042-0.22-0.123-0.317-0.181s-0.188-0.111-0.202-0.117c-0.026-0.012-0.154-0.1-0.154-0.106 0-0.003 0.74-0.445 0.754-0.449 0.003-0.001 0.053 0.026 0.111 0.060s0.171 0.098 0.253 0.142c0.081 0.044 0.164 0.092 0.183 0.106s0.090 0.057 0.157 0.094l0.122 0.068 0.037-0.026c0.020-0.014 0.054-0.039 0.075-0.056s0.113-0.075 0.204-0.132c0.134-0.083 0.392-0.261 0.452-0.313 0.011-0.010 0.003-0.017-0.109-0.086-0.126-0.078-0.315-0.184-0.562-0.314-0.079-0.042-0.148-0.079-0.153-0.083-0.006-0.005-0.009-0.071-0.012-0.233-0.010-0.579-0.012-0.854-0.006-0.867 0.026-0.058 0.069-0.147 0.073-0.149 0.005-0.003 0.458 0.252 0.485 0.273 0.009 0.007 0.021 0.013 0.026 0.013s0.013 0.005 0.017 0.010c0.005 0.006 0.030 0.019 0.057 0.029 0.033 0.013 0.063 0.032 0.091 0.057l0.042 0.038v0.178c0 0.136 0.002 0.179 0.009 0.182 0.005 0.002 0.031 0.020 0.058 0.040 0.060 0.045 0.1 0.068 0.289 0.169 0.081 0.044 0.162 0.089 0.179 0.1s0.075 0.043 0.129 0.070l0.098 0.049-0.004-0.139c-0.002-0.077-0.006-0.25-0.009-0.386-0.003-0.142-0.008-0.251-0.013-0.257s-0.009-0.092-0.011-0.201l-0.004-0.19-0.724-0.435 0.004-0.321c0.003-0.249 0.006-0.332 0.014-0.367 0.006-0.025 0.014-0.078 0.019-0.118s0.010-0.072 0.011-0.072c0.001 0 0.333 0.193 0.738 0.429l0.736 0.429 0.005 0.031c0.003 0.017 0.023 0.492 0.044 1.056s0.042 1.029 0.044 1.034c0.003 0.005 0.159 0.099 0.347 0.209l0.342 0.201 0.004-0.879 0.037-0.008c0.020-0.005 0.057-0.010 0.081-0.012 0.039-0.003 0.047-0.002 0.070 0.014 0.015 0.010 0.049 0.030 0.076 0.045s0.095 0.053 0.152 0.084c0.056 0.032 0.123 0.066 0.148 0.077s0.084 0.044 0.131 0.073l0.085 0.053 0.005 0.113c0.014 0.339 0.018 0.493 0.018 0.684l0 0.212 0.262 0.151c0.144 0.083 0.268 0.151 0.275 0.151s0.185-0.1 0.397-0.222l0.384-0.222-0.001-1.381-0.135-0.095c-0.334-0.235-0.843-0.564-0.874-0.564-0.013 0-0.044-0.015-0.085-0.040-0.157-0.098-0.341-0.22-0.551-0.361-0.124-0.084-0.235-0.158-0.247-0.164-0.015-0.008-0.024-0.020-0.030-0.039-0.006-0.021-0.008-0.311-0.008-1.16v-1.132h0.202l0.109 0.073c0.060 0.040 0.158 0.097 0.218 0.128 0.153 0.078 0.229 0.123 0.238 0.143 0.005 0.012 0.008 0.244 0.008 0.77v0.753l0.030 0.020c0.016 0.011 0.047 0.029 0.069 0.040s0.063 0.038 0.092 0.061c0.029 0.023 0.069 0.050 0.088 0.060 0.056 0.030 0.144 0.089 0.194 0.13 0.025 0.021 0.055 0.042 0.067 0.046 0.024 0.008 0.347 0.208 0.508 0.314l0.106 0.070 0.002-0.575c0.002-0.541 0.001-0.576-0.011-0.585-0.007-0.005-0.050-0.029-0.097-0.053s-0.131-0.074-0.187-0.112c-0.128-0.086-0.18-0.116-0.213-0.127l-0.027-0.008 0.004-1.679 0.019-0.035c0.020-0.038 0.042-0.061 0.091-0.093l0.032-0.021 0.655 0.369 0.004 1.010 0.021 0.015c0.011 0.008 0.055 0.032 0.097 0.052s0.116 0.064 0.164 0.097c0.048 0.033 0.125 0.083 0.171 0.112l0.083 0.053 0.004 1.644 0.11-0.062c0.061-0.034 0.135-0.080 0.165-0.102s0.118-0.072 0.194-0.11c0.076-0.038 0.149-0.078 0.161-0.088l0.022-0.018 0-0.163c0-0.090 0.005-0.273 0.010-0.406 0.007-0.174 0.010-0.46 0.010-1.011l0-0.768 0.030-0.029c0.041-0.039 0.225-0.152 0.263-0.161 0.012-0.003 0.026-0.009 0.032-0.014s0.033-0.021 0.060-0.035c0.027-0.015 0.088-0.052 0.134-0.082 0.074-0.048 0.166-0.091 0.197-0.091 0.004 0 0.020 0.025 0.036 0.055l0.028 0.055 0.007 0.997 0.234-0.139c0.129-0.076 0.269-0.159 0.312-0.183 0.087-0.049 0.099-0.051 0.2-0.036l0.055 0.008v0.804l-0.016 0.010c-0.063 0.040-0.121 0.073-0.226 0.129-0.139 0.073-0.213 0.12-0.282 0.177-0.054 0.044-0.079 0.059-0.15 0.085-0.026 0.010-0.066 0.030-0.088 0.044l-0.040 0.026-0.002 0.557c-0.002 0.438-0.004 0.561-0.011 0.578-0.010 0.023-0.088 0.087-0.146 0.12-0.019 0.011-0.047 0.030-0.062 0.041s-0.065 0.043-0.111 0.069c-0.046 0.027-0.142 0.086-0.213 0.133s-0.133 0.085-0.138 0.085c-0.005 0-0.029 0.012-0.052 0.027s-0.081 0.049-0.127 0.075c-0.047 0.026-0.142 0.085-0.211 0.13-0.189 0.122-0.324 0.205-0.336 0.205-0.006 0-0.019 0.009-0.030 0.020l-0.019 0.020 0 1.317 0.083 0.054c0.124 0.080 0.408 0.241 0.573 0.323 0.033 0.017 0.073 0.039 0.089 0.050s0.033 0.020 0.038 0.020c0.004 0 0.021-0.009 0.038-0.020s0.064-0.038 0.107-0.061c0.148-0.078 0.577-0.33 0.789-0.463l0.070-0.044 0.004-0.539-0.231 0.116c-0.127 0.064-0.245 0.124-0.263 0.134-0.027 0.015-0.152 0.052-0.176 0.052-0.005 0-0.008-0.129-0.008-0.429v-0.429l0.026-0.009c0.015-0.005 0.058-0.028 0.097-0.052s0.141-0.081 0.227-0.126c0.175-0.092 0.304-0.166 0.337-0.195 0.030-0.026 0.188-0.116 0.366-0.21 0.082-0.043 0.165-0.088 0.186-0.101 0.022-0.014 0.056-0.027 0.084-0.032 0.026-0.005 0.053-0.011 0.059-0.014 0.010-0.004 0.018 0.006 0.042 0.058l0.030 0.062 0.005 0.444c0.003 0.244 0.008 0.48 0.012 0.525s0.007 0.126 0.008 0.181c0 0.055 0.002 0.1 0.004 0.1s0.058-0.032 0.124-0.070c0.066-0.039 0.123-0.070 0.126-0.070s0.034-0.021 0.068-0.046c0.034-0.025 0.102-0.066 0.15-0.091s0.111-0.062 0.137-0.082c0.027-0.020 0.053-0.038 0.058-0.040 0.007-0.003 0.009-0.189 0.009-0.9v-0.897l0.055-0.035c0.079-0.050 0.197-0.119 0.298-0.174 0.048-0.026 0.147-0.080 0.218-0.12s0.197-0.106 0.278-0.148c0.159-0.082 0.265-0.14 0.388-0.214 0.094-0.057 0.108-0.062 0.196-0.078 0.079-0.014 0.070-0.020 0.083 0.063 0.005 0.035 0.007 0.173 0.006 0.412l-0.002 0.359-0.737 0.389-0 0.28c0 0.205 0.002 0.285 0.009 0.299 0.005 0.012 0.010 0.072 0.012 0.152l0.004 0.132 0.293-0.152c0.161-0.083 0.307-0.156 0.324-0.162s0.042-0.021 0.055-0.033l0.023-0.022 0.051 0.020c0.089 0.034 0.293 0.147 0.477 0.263 0.040 0.026 0.083 0.051 0.095 0.057s0.029 0.024 0.037 0.041c0.009 0.017 0.028 0.045 0.043 0.063s0.030 0.037 0.032 0.042c0.003 0.006-0.015 0.019-0.057 0.040-0.034 0.017-0.079 0.046-0.101 0.064s-0.074 0.050-0.116 0.072c-0.043 0.022-0.108 0.059-0.144 0.082-0.203 0.129-0.299 0.187-0.423 0.255-0.076 0.042-0.142 0.080-0.147 0.085-0.008 0.007 0.008 0.019 0.087 0.066 0.053 0.032 0.129 0.073 0.168 0.091s0.125 0.064 0.191 0.102c0.066 0.037 0.137 0.075 0.158 0.082l0.038 0.014 0.022-0.021c0.012-0.011 0.174-0.104 0.359-0.205 0.214-0.116 0.36-0.201 0.398-0.23 0.067-0.050 0.135-0.088 0.193-0.109l0.038-0.013 0.106 0.055c0.33 0.171 0.464 0.252 0.536 0.321l0.058 0.056-0.038 0.050c-0.035 0.046-0.119 0.115-0.139 0.115-0.004 0-0.040 0.020-0.079 0.045s-0.119 0.071-0.177 0.103c-0.058 0.032-0.15 0.086-0.204 0.12s-0.172 0.103-0.261 0.155c-0.089 0.051-0.189 0.111-0.222 0.132-0.086 0.055-0.327 0.194-0.408 0.234-0.159 0.079-0.186 0.084-0.269 0.047-0.029-0.013-0.348-0.183-0.708-0.377s-0.659-0.353-0.663-0.353-0.090 0.046-0.191 0.101c-0.1 0.056-0.357 0.198-0.57 0.316-0.316 0.175-0.531 0.302-0.57 0.337-0.003 0.003 0.037 0.028 0.088 0.057s0.11 0.062 0.131 0.075c0.042 0.026 0.124 0.068 0.149 0.076 0.009 0.003 0.028 0.013 0.042 0.022s0.030 0.017 0.037 0.017c0.006 0 0.027 0.010 0.047 0.022 0.035 0.022 0.035 0.022 0.056 0.009 0.012-0.007 0.055-0.031 0.096-0.053s0.089-0.050 0.106-0.061c0.017-0.011 0.126-0.075 0.244-0.142l0.213-0.122 0.241 0.126c0.133 0.070 0.318 0.165 0.411 0.212 0.249 0.125 0.378 0.196 0.469 0.258 0.045 0.030 0.083 0.057 0.086 0.059s-0.019 0.023-0.048 0.046c-0.030 0.024-0.053 0.047-0.053 0.054 0 0.027-0.083 0.081-0.207 0.133-0.019 0.008-0.036 0.020-0.037 0.027s-0.020 0.021-0.040 0.032c-0.020 0.011-0.069 0.039-0.108 0.064-0.126 0.079-0.172 0.097-0.247 0.097-0.061 0-0.084-0.008-0.147-0.050-0.064-0.043-0.195-0.112-0.212-0.113-0.007-0-0.031-0.009-0.051-0.020l-0.038-0.020-0.679 0.391-0.018-0.012c-0.010-0.007-0.046-0.028-0.081-0.046s-0.14-0.075-0.233-0.127c-0.093-0.051-0.226-0.123-0.296-0.159s-0.167-0.087-0.215-0.113c-0.048-0.026-0.159-0.084-0.246-0.13s-0.183-0.098-0.214-0.118l-0.056-0.036-0.026 0.015c-0.014 0.008-0.102 0.059-0.195 0.113l-0.169 0.098-0.004 0.903 0.030 0.021c0.017 0.011 0.187 0.108 0.379 0.214 0.357 0.198 0.58 0.327 0.728 0.418 0.101 0.063 0.127 0.072 0.169 0.059 0.016-0.005 0.090-0.043 0.164-0.085 0.219-0.124 0.312-0.173 0.546-0.288 0.122-0.060 0.345-0.177 0.495-0.26s0.278-0.152 0.283-0.154c0.005-0.002 0.047 0.020 0.093 0.048s0.131 0.079 0.189 0.111c0.058 0.032 0.207 0.116 0.331 0.187s0.268 0.151 0.321 0.18c0.094 0.051 0.141 0.089 0.141 0.114 0 0.007 0.014 0.035 0.031 0.064l0.031 0.051-0.082 0.044c-0.045 0.024-0.111 0.058-0.147 0.075s-0.077 0.039-0.092 0.048c-0.015 0.009-0.056 0.030-0.091 0.045s-0.108 0.052-0.162 0.082-0.114 0.059-0.132 0.065l-0.034 0.011-0.114-0.067c-0.127-0.074-0.162-0.093-0.188-0.099-0.010-0.002-0.038-0.017-0.063-0.032l-0.046-0.028-0.021 0.014c-0.012 0.008-0.105 0.055-0.206 0.105s-0.207 0.105-0.233 0.122c-0.026 0.017-0.089 0.052-0.141 0.078s-0.093 0.049-0.093 0.052c0 0.009 0.183 0.125 0.243 0.155 0.137 0.068 0.68 0.37 0.777 0.433l0.044 0.028 0.026-0.018c0.042-0.028 0.084-0.048 0.17-0.080 0.055-0.021 0.18-0.085 0.397-0.205 0.174-0.096 0.329-0.182 0.343-0.191 0.048-0.029 0.075-0.039 0.114-0.043 0.030-0.003 0.039-0.001 0.044 0.008 0.004 0.006 0.013 0.012 0.021 0.012s0.048 0.022 0.090 0.048c0.115 0.074 0.211 0.13 0.322 0.189 0.096 0.051 0.105 0.058 0.182 0.135l0.081 0.082-0.109 0.069c-0.060 0.038-0.118 0.072-0.129 0.075s-0.033 0.013-0.048 0.023-0.053 0.029-0.084 0.044c-0.031 0.015-0.071 0.035-0.088 0.046s-0.061 0.032-0.097 0.047c-0.036 0.015-0.066 0.032-0.068 0.038s-0.019 0.016-0.037 0.023c-0.019 0.007-0.053 0.024-0.077 0.038s-0.084 0.050-0.136 0.079-0.093 0.053-0.092 0.055c0.001 0.001 0.126 0.072 0.277 0.159s0.297 0.173 0.325 0.194c0.045 0.033 0.054 0.044 0.083 0.1l0.032 0.063-0.033 0.032c-0.060 0.058-0.524 0.328-0.618 0.36l-0.049 0.017-0.204-0.116c-0.112-0.064-0.235-0.128-0.272-0.144-0.048-0.020-0.083-0.040-0.119-0.070-0.028-0.023-0.072-0.051-0.096-0.062-0.037-0.017-0.153-0.080-0.304-0.167l-0.030-0.017 0 0.969 0.86 0.491 0.021 0.041c0.019 0.037 0.021 0.048 0.021 0.11 0 0.038 0.005 0.145 0.010 0.238s0.010 0.209 0.011 0.258c0 0.082-0.001 0.093-0.020 0.141-0.011 0.028-0.024 0.065-0.029 0.082s-0.013 0.029-0.018 0.028c-0.005-0.001-0.375-0.208-0.823-0.46l-0.815-0.458-0-0.324c-0-0.178-0.004-0.368-0.008-0.423s-0.009-0.34-0.012-0.634l-0.005-0.535-0.028-0.019c-0.015-0.010-0.090-0.051-0.166-0.091-0.267-0.141-0.465-0.256-0.721-0.421-0.135-0.087-0.326-0.191-0.334-0.183-0.002 0.002 0.002 0.057 0.008 0.123 0.008 0.084 0.011 0.195 0.011 0.369 0 0.204 0.002 0.255 0.011 0.28 0.006 0.016 0.011 0.053 0.011 0.080l0 0.050 0.181 0.114c0.1 0.063 0.187 0.118 0.194 0.123 0.011 0.008 0.015 0.042 0.033 0.245 0.014 0.155 0.021 0.281 0.021 0.366 0 0.127-0 0.132-0.021 0.195l-0.022 0.065-0.059-0.020c-0.097-0.033-0.34-0.164-0.624-0.338-0.087-0.053-0.22-0.132-0.296-0.175s-0.149-0.087-0.163-0.099l-0.025-0.022-0.005-0.174c-0.005-0.172-0.019-0.414-0.032-0.558-0.004-0.041-0.007-0.22-0.007-0.398-0-0.224-0.003-0.363-0.011-0.451-0.006-0.070-0.010-0.156-0.010-0.191l-0-0.064-0.033-0.021c-0.018-0.011-0.053-0.031-0.076-0.044s-0.080-0.047-0.127-0.076c-0.046-0.029-0.111-0.065-0.145-0.081s-0.072-0.036-0.086-0.045l-0.026-0.017-0.101 0.063c-0.055 0.035-0.147 0.089-0.203 0.121-0.24 0.137-0.304 0.174-0.389 0.228l-0.090 0.057v1.729l0.030 0.021c0.016 0.011 0.079 0.044 0.139 0.073 0.275 0.132 0.528 0.28 0.724 0.424 0.073 0.053 0.221 0.142 0.396 0.238 0.083 0.045 0.169 0.1 0.296 0.19 0.019 0.014 0.040 0.033 0.045 0.044s0.015 0.026 0.021 0.035c0.010 0.014 0.011 0.121 0.011 1.030v1.015l-0.051 0.051c-0.068 0.069-0.070 0.069-0.219-0.008-0.227-0.117-0.344-0.185-0.493-0.288l-0.033-0.023-0-1.377-0.023-0.017c-0.037-0.028-0.257-0.152-0.329-0.186-0.037-0.017-0.084-0.043-0.106-0.058s-0.069-0.042-0.106-0.060c-0.037-0.018-0.083-0.045-0.102-0.060-0.032-0.024-0.187-0.113-0.197-0.113-0.002 0-0.004 0.297-0.004 0.661 0 0.839-0.017 1.675-0.034 1.696-0.021 0.024-0.136 0.096-0.212 0.133-0.041 0.020-0.095 0.048-0.12 0.064s-0.108 0.066-0.185 0.112c-0.077 0.046-0.161 0.1-0.188 0.12-0.068 0.052-0.179 0.111-0.207 0.111-0.012 0-0.050 0.005-0.083 0.011s-0.060 0.011-0.061 0.011-0.006-0.032-0.012-0.070zM15.963 16.895c0.024-0.015 0.087-0.049 0.139-0.077s0.162-0.087 0.243-0.134c0.081-0.046 0.183-0.103 0.226-0.125s0.093-0.050 0.111-0.062l0.033-0.021v-0.911l-0.397-0.234c-0.218-0.129-0.4-0.234-0.403-0.234s-0.18 0.105-0.393 0.234l-0.387 0.234 0.004 0.915 0.097 0.059c0.054 0.033 0.158 0.091 0.233 0.131 0.179 0.095 0.305 0.165 0.378 0.212 0.033 0.021 0.062 0.039 0.065 0.039s0.025-0.012 0.049-0.026z"></path>
</svg>
