<!-- Generated by IcoMoon.io -->
<svg version="1.1" xmlns="http://www.w3.org/2000/svg" width="32" height="32" viewBox="0 0 32 32">
<title>token_-2_highlight</title>
<path d="M19.761 18.010c-0.257 0-0.443 0.12-0.559 0.36-0.331 0.563-0.849 0.89-1.553 0.981-0.696 0.083-1.524 0.133-2.484 0.149-0.066 0-0.116-0.017-0.149-0.050-0.017 0-0.025-0.017-0.025-0.050s0.025-0.087 0.075-0.161c0.364-0.489 0.836-0.911 1.416-1.267 0.588-0.364 1.159-0.737 1.714-1.118s1.031-0.807 1.428-1.279c0.389-0.439 0.584-1.006 0.584-1.702 0-0.464-0.095-0.956-0.286-1.478h-0.012c-0.24-0.555-0.642-1.014-1.205-1.379-0.571-0.373-1.242-0.559-2.012-0.559-0.985 0-1.834 0.261-2.546 0.783-0.704 0.522-1.056 1.192-1.056 2.012 0.025 0.985 0.426 1.727 1.205 2.223 0.066 0.033 0.116 0.058 0.149 0.075 0.025 0.008 0.062 0.029 0.112 0.062 0.199 0.083 0.422 0.124 0.671 0.124 0.795 0 1.308-0.24 1.54-0.72 0.017-0.033 0.029-0.062 0.037-0.087h0.012c0.008-0.025 0.012-0.058 0.012-0.099 0-0.232-0.104-0.348-0.311-0.348-0.083 0-0.157 0.033-0.224 0.099-0.265 0.232-0.588 0.348-0.969 0.348-0.157 0-0.311-0.050-0.46-0.149-0.157-0.099-0.269-0.203-0.335-0.311h-0.012c-0.166-0.29-0.248-0.638-0.248-1.043 0-0.464 0.19-0.886 0.571-1.267s0.816-0.571 1.304-0.571c0.29 0 0.509 0.012 0.658 0.037 0.141 0.025 0.34 0.133 0.596 0.323 0.282 0.19 0.476 0.414 0.584 0.671 0.207 0.364 0.311 0.807 0.311 1.329-0.033 0.348-0.128 0.675-0.286 0.981-0.166 0.331-0.331 0.613-0.497 0.845-0.19 0.224-0.377 0.418-0.559 0.584-0.232 0.215-0.435 0.385-0.609 0.509-0.166 0.099-0.298 0.186-0.397 0.261l-0.012 0.012c-0.704 0.489-1.25 0.99-1.64 1.503s-0.737 1.13-1.043 1.851c-0.017 0.017-0.025 0.046-0.025 0.087 0 0.033 0.017 0.083 0.050 0.149 0.050 0.083 0.108 0.124 0.174 0.124 0.845-0.066 1.644-0.104 2.397-0.112 0.538 0 1.014 0.008 1.428 0.025 0.422 0.008 0.865 0.029 1.329 0.062 0.215 0 0.352-0.087 0.41-0.261 0.066-0.149 0.124-0.319 0.174-0.509 0.058-0.232 0.112-0.402 0.161-0.509 0.066-0.174 0.161-0.352 0.286-0.534 0.116-0.166 0.215-0.352 0.298-0.559 0.025-0.033 0.037-0.087 0.037-0.161 0-0.066-0.008-0.116-0.025-0.149-0.033-0.108-0.104-0.161-0.211-0.161z"></path>
<path d="M9.212 17.151c-0.003 0-0.005 0.001-0.008 0.001-0.037 0.003-0.073-0.011-0.097-0.039-0.033-0.037-0.040-0.090-0.017-0.133l0.351-0.685c0.016-0.032 0.044-0.056 0.078-0.067 0.013-0.004 0.026-0.007 0.039-0.007 0.006-0 0.011 0 0.016 0 0.093 0.004 0.992 0.047 1.58 0.045s1.488-0.048 1.581-0.053c0.006-0 0.011-0.001 0.016-0 0.028 0.001 0.055 0.013 0.074 0.034 0.009 0.010 0.016 0.022 0.015 0.035-0.014 0.096-0.18 0.438-0.247 0.572-0.017 0.035-0.046 0.063-0.081 0.079-0.022 0.010-0.045 0.016-0.069 0.016-0.002 0-0.004 0-0.007 0-0.058-0-0.913-0.001-1.49 0.032-0.644 0.036-1.664 0.162-1.735 0.17z"></path>
<path d="M12.756 16.107c-0.012-0-0.021 0-0.026 0-0.092 0.005-0.993 0.052-1.576 0.053s-1.482-0.041-1.575-0.045c-0.005-0-0.014-0.001-0.025-0-0.024 0.001-0.046 0.005-0.069 0.012-0.060 0.020-0.11 0.063-0.139 0.119l-0.351 0.685c-0.042 0.082-0.029 0.183 0.032 0.252 0.046 0.052 0.115 0.079 0.184 0.073 0.006-0 0.010-0.001 0.013-0.001 0.070-0.009 1.091-0.133 1.728-0.169 0.57-0.032 1.426-0.032 1.484-0.032h0c0.002 0 0.005 0 0.008 0h0.001c0.038-0.001 0.076-0.010 0.111-0.026 0.056-0.026 0.103-0.071 0.131-0.128 0.033-0.067 0.092-0.187 0.145-0.303 0.026-0.058 0.051-0.116 0.071-0.166s0.035-0.089 0.041-0.134v-0c0.008-0.058-0.023-0.101-0.042-0.122-0.038-0.041-0.091-0.065-0.146-0.067h-0zM12.719 16.319c-0.005 0.014-0.004 0.017-0.011 0.035-0.018 0.045-0.041 0.1-0.066 0.156-0.051 0.112-0.109 0.23-0.141 0.296-0.007 0.013-0.018 0.024-0.032 0.030-0.009 0.004-0.018 0.006-0.027 0.006-0.001 0-0.002 0-0.004 0-0.059-0-0.914-0.001-1.496 0.032-0.651 0.037-1.67 0.162-1.742 0.171h-0c-0.003 0-0.003 0-0.002 0h-0c-0.004 0-0.008-0.001-0.011-0.005-0.004-0.004-0.005-0.009-0.002-0.014l0.351-0.685c0.004-0.007 0.010-0.013 0.018-0.015 0.003-0.001 0.006-0.002 0.009-0.002 0 0 0.002 0 0.007 0h0c0.093 0.004 0.992 0.047 1.585 0.045 0.585-0.002 1.45-0.047 1.564-0.053z"></path>
</svg>
