<!-- Generated by IcoMoon.io -->
<svg version="1.1" xmlns="http://www.w3.org/2000/svg" width="32" height="32" viewBox="0 0 32 32">
<title>token_-6_sealed</title>
<path d="M18.302 10.787c-0.588 0-1.206 0.192-1.851 0.576-0.629 0.376-1.197 0.854-1.704 1.434-0.499 0.572-0.903 1.197-1.214 1.876-0.139 0.319-0.241 0.629-0.306 0.932-0.065 0.294-0.098 0.617-0.098 0.969 0 1.528 0.4 2.677 1.201 3.445 0.825 0.777 1.831 1.165 3.016 1.165v-0.012h0.074c0.744-0.008 1.467-0.36 2.17-1.054 0.695-0.687 1.042-1.524 1.042-2.513 0-1.152-0.351-2.023-1.054-2.611-0.703-0.605-1.561-0.907-2.575-0.907-0.139 0-0.225 0.029-0.257 0.086-0.507 0.687-1.079 1.312-1.716 1.876-0.033 0.049-0.090 0.074-0.172 0.074-0.057-0.008-0.086-0.033-0.086-0.074 0.041-0.719 0.2-1.34 0.478-1.863 0.286-0.531 0.617-0.985 0.993-1.361 0.384-0.384 0.768-0.691 1.152-0.919 0.392-0.237 0.711-0.409 0.956-0.515 0.18 0 0.315-0.057 0.405-0.172 0.016-0.049 0.025-0.086 0.025-0.11 0-0.188-0.139-0.282-0.417-0.282zM17.125 20.386c-0.572 0-1.063-0.306-1.471-0.919-0.392-0.588-0.588-1.071-0.588-1.447 0-0.605 0.196-1.14 0.588-1.606 0.417-0.499 0.911-0.748 1.483-0.748 0.58 0 1.071 0.233 1.471 0.699 0.4 0.458 0.601 1.013 0.601 1.667 0 0.662-0.2 1.222-0.601 1.68-0.401 0.466-0.891 0.699-1.471 0.699z"></path>
<path d="M8.262 16.928c-0.003 0-0.005 0.001-0.008 0.001-0.036 0.003-0.072-0.011-0.096-0.038-0.032-0.036-0.039-0.088-0.017-0.131l0.347-0.676c0.016-0.031 0.044-0.055 0.077-0.066 0.012-0.004 0.025-0.006 0.038-0.007 0.006-0 0.011 0 0.016 0 0.092 0.004 0.979 0.046 1.559 0.044s1.469-0.048 1.561-0.053c0.005-0 0.010-0.001 0.016-0 0.028 0.001 0.054 0.013 0.073 0.034 0.009 0.010 0.016 0.021 0.014 0.035-0.014 0.094-0.178 0.433-0.243 0.564-0.017 0.034-0.045 0.062-0.080 0.078-0.021 0.010-0.045 0.015-0.068 0.016-0.002 0-0.004 0-0.006 0-0.058-0-0.901-0.001-1.47 0.032-0.636 0.036-1.643 0.159-1.712 0.168z"></path>
</svg>
