<!-- Generated by IcoMoon.io -->
<svg version="1.1" xmlns="http://www.w3.org/2000/svg" width="32" height="32" viewBox="0 0 32 32">
<title>token_sealed_outline</title>
<path d="M16 0c-8.834 0-16 7.166-16 16s7.166 16 16 16c8.834 0 16-7.166 16-16s-7.166-16-16-16zM16 0.416c8.61 0 15.584 6.975 15.584 15.584s-6.975 15.584-15.584 15.584c-8.61 0-15.584-6.975-15.584-15.584s6.975-15.584 15.584-15.584z"></path>
<path d="M16 2.927l-3.826 3.826h-5.42v5.42l-3.826 3.826 3.826 3.826v5.42h5.42l3.826 3.826 3.826-3.826h5.42v-5.42l3.826-3.826-3.826-3.826v-5.42h-5.42l-3.826-3.826zM16 3.515l3.654 3.654h5.177v5.177l3.654 3.654-3.654 3.654v5.177h-5.177l-3.654 3.654-3.654-3.654h-5.177v-5.177l-3.654-3.654 3.654-3.654v-5.177h5.177l3.654-3.654z"></path>
<path d="M19.771 24.312c-0.104-0.249-0.229-0.478-0.332-0.727l0.27-0.27c0.145 0.27 0.27 0.54 0.416 0.831 0.042 0.083 0.083 0.166 0.125 0.27h-0.416c-0.042-0.042-0.042-0.062-0.062-0.104zM12.187 24.416h-0.416c0.042-0.083 0.083-0.166 0.125-0.27 0.145-0.27 0.27-0.561 0.416-0.831l0.27 0.27c-0.104 0.249-0.229 0.478-0.332 0.727-0.021 0.042-0.042 0.062-0.062 0.104zM12.249 7.688c0.104 0.249 0.229 0.478 0.332 0.727l-0.27 0.27c-0.145-0.27-0.27-0.561-0.416-0.831-0.042-0.083-0.083-0.166-0.125-0.27h0.416c0.021 0.042 0.042 0.062 0.062 0.104zM19.813 7.584h0.416c-0.042 0.083-0.083 0.187-0.125 0.27-0.125 0.27-0.27 0.54-0.416 0.81l-0.249-0.249c0.104-0.249 0.229-0.478 0.332-0.707 0.021-0.062 0.021-0.083 0.042-0.125zM24.426 22.026c-0.332-0.229-0.665-0.457-0.997-0.706-0.332-0.229-0.665-0.478-0.997-0.706l0.249-0.249c0.332 0.208 0.644 0.436 0.977 0.644 0.27 0.166 0.519 0.353 0.79 0.54v0.478zM24.426 12.197c-0.042 0.021-0.062 0.042-0.104 0.042-0.249 0.104-0.478 0.229-0.727 0.332l-0.27-0.27c0.27-0.145 0.54-0.27 0.831-0.416 0.083-0.042 0.166-0.083 0.27-0.125zM24.426 11.657c-0.104 0.062-0.208 0.104-0.291 0.166-0.291 0.145-0.561 0.291-0.852 0.436l-0.249-0.249c0.312-0.166 0.603-0.353 0.914-0.519 0.166-0.083 0.332-0.187 0.478-0.27zM24.426 11.075c-0.187 0.104-0.353 0.208-0.54 0.312-0.312 0.187-0.623 0.374-0.935 0.54l-0.249-0.249c0.332-0.208 0.644-0.416 0.977-0.623 0.249-0.145 0.499-0.312 0.727-0.457v0.478zM24.426 10.473c-0.27 0.166-0.519 0.353-0.79 0.54-0.312 0.208-0.644 0.436-0.977 0.644l-0.249-0.249c0.332-0.229 0.665-0.478 0.997-0.707s0.665-0.457 0.997-0.707v0.478zM24.426 9.808l-1.060 0.81-0.997 0.748-0.229-0.249c0.332-0.27 0.665-0.54 0.997-0.79 0.416-0.332 0.852-0.665 1.288-0.997zM24.426 21.382c-0.249-0.145-0.478-0.312-0.727-0.457-0.332-0.208-0.644-0.416-0.977-0.623l0.249-0.249c0.312 0.187 0.603 0.353 0.914 0.54 0.187 0.104 0.353 0.208 0.54 0.312zM24.426 20.779c-0.166-0.083-0.332-0.187-0.478-0.27-0.312-0.166-0.603-0.332-0.914-0.519l0.249-0.249c0.27 0.145 0.561 0.291 0.831 0.436 0.104 0.062 0.208 0.104 0.291 0.166v0.436zM24.426 20.218c-0.083-0.042-0.166-0.083-0.27-0.125-0.27-0.125-0.54-0.27-0.81-0.395l0.27-0.27c0.229 0.104 0.478 0.208 0.706 0.332 0.042 0.021 0.062 0.021 0.104 0.042zM24.655 18.369c0.042 0.021 0.104 0.021 0.145 0.042 0.187 0.042 0.353 0.104 0.54 0.145l-0.312 0.312c-0.104-0.042-0.229-0.062-0.332-0.104s-0.229-0.062-0.332-0.104zM24.821 18.327c-0.021 0-0.062-0.021-0.083-0.021l0.312-0.332c0.229 0.062 0.478 0.104 0.706 0.166l-0.332 0.332c-0.187-0.042-0.395-0.104-0.603-0.145zM25.132 17.891l0.332-0.332 0.748 0.125-0.332 0.332c-0.249-0.021-0.499-0.083-0.748-0.125zM25.569 17.455l0.353-0.353c0.27 0.042 0.519 0.062 0.79 0.104l-0.353 0.353c-0.27-0.021-0.54-0.062-0.79-0.104zM26.047 16.997l0.374-0.374 0.81 0.062-0.374 0.374zM26.545 16.478l0.395-0.395c0.291 0 0.561 0.021 0.852 0.021l-0.395 0.395c-0.27 0-0.561 0-0.852-0.021zM26.94 15.917l-0.395-0.395c0.291 0 0.561-0.021 0.852-0.021l0.395 0.395c-0.27 0-0.561 0.021-0.852 0.021zM26.421 15.377l-0.374-0.374 0.81-0.062 0.374 0.374zM25.922 14.899l-0.353-0.353c0.249-0.042 0.519-0.062 0.769-0.104l0.353 0.353c-0.249 0.021-0.519 0.062-0.769 0.104zM25.465 14.442l-0.332-0.332c0.249-0.042 0.499-0.104 0.727-0.145l0.332 0.332c-0.229 0.062-0.478 0.104-0.727 0.145zM25.049 14.026l-0.312-0.312c0.021 0 0.062-0.021 0.083-0.021 0.208-0.042 0.416-0.104 0.623-0.145l0.332 0.332c-0.249 0.021-0.478 0.083-0.727 0.145zM24.8 13.59c-0.042 0.021-0.104 0.021-0.145 0.042l-0.291-0.291c0.104-0.042 0.229-0.062 0.332-0.104s0.229-0.062 0.332-0.104l0.312 0.312c-0.187 0.042-0.353 0.083-0.54 0.145zM24.655 13.132l-0.374 0.125-0.291-0.291c0.187-0.062 0.353-0.125 0.54-0.208 0.042-0.021 0.062-0.021 0.104-0.042l0.291 0.291c-0.083 0.062-0.166 0.083-0.27 0.125zM24.509 12.675c-0.187 0.083-0.374 0.145-0.561 0.229l-0.27-0.27c0.229-0.104 0.457-0.208 0.706-0.312 0.021 0 0.042-0.021 0.062-0.021v0.208l0.145 0.145c-0.042 0.021-0.062 0.021-0.083 0.021zM23.075 10.223c-0.332 0.27-0.665 0.54-0.997 0.831l-0.249-0.249c0.332-0.291 0.665-0.582 0.977-0.873 0.54-0.457 1.060-0.914 1.6-1.371v0.519c-0.436 0.395-0.873 0.769-1.33 1.143zM24.426 8.312c-0.54 0.519-1.101 1.039-1.662 1.558-0.312 0.291-0.644 0.603-0.977 0.893l-0.249-0.249c0.312-0.312 0.623-0.623 0.956-0.935 0.644-0.623 1.288-1.226 1.932-1.849zM22.431 9.517c-0.312 0.312-0.623 0.623-0.935 0.956l-0.249-0.249c0.291-0.332 0.603-0.644 0.893-0.977 0.519-0.561 1.039-1.122 1.579-1.662h0.561c-0.603 0.644-1.226 1.288-1.849 1.932zM22.078 9.184c-0.291 0.332-0.582 0.665-0.873 0.977l-0.249-0.249c0.27-0.332 0.54-0.665 0.831-0.997 0.374-0.457 0.748-0.893 1.143-1.351h0.54c-0.478 0.561-0.935 1.101-1.392 1.621zM21.704 8.873c-0.27 0.332-0.54 0.665-0.79 0.997l-0.229-0.229 0.748-0.997 0.81-1.060h0.499c-0.374 0.436-0.706 0.852-1.039 1.288zM21.33 8.603c-0.229 0.332-0.478 0.665-0.706 0.997l-0.249-0.249c0.208-0.332 0.436-0.644 0.644-0.977 0.166-0.27 0.353-0.519 0.54-0.79h0.478c-0.229 0.332-0.478 0.665-0.706 1.018zM20.935 8.332c-0.208 0.332-0.416 0.644-0.623 0.977l-0.229-0.27c0.187-0.312 0.353-0.623 0.54-0.914 0.104-0.187 0.208-0.353 0.332-0.54h0.457c-0.166 0.249-0.312 0.499-0.478 0.748zM20.519 8.083c-0.166 0.312-0.332 0.603-0.519 0.914l-0.249-0.249c0.145-0.27 0.291-0.561 0.436-0.831 0.062-0.104 0.104-0.208 0.166-0.312h0.436c-0.083 0.145-0.166 0.312-0.27 0.478zM18.753 7.73l0.125-0.374c0.042-0.104 0.062-0.187 0.104-0.291l0.291 0.291c-0.021 0.042-0.021 0.083-0.042 0.104-0.062 0.187-0.125 0.353-0.187 0.54zM18.795 7.335c-0.042 0.104-0.062 0.229-0.104 0.332l-0.291-0.291c0.021-0.042 0.021-0.083 0.042-0.145 0.062-0.187 0.104-0.353 0.166-0.54l0.312 0.312c-0.062 0.104-0.104 0.208-0.125 0.332zM18.338 7.19c0 0.021-0.021 0.062-0.021 0.083l-0.332-0.312c0.062-0.229 0.104-0.478 0.166-0.707l0.332 0.332c-0.042 0.208-0.104 0.395-0.145 0.603zM17.901 6.878l-0.332-0.332 0.125-0.748 0.332 0.332c-0.021 0.249-0.083 0.499-0.125 0.748zM17.465 6.442l-0.353-0.353c0.042-0.27 0.062-0.519 0.104-0.79l0.353 0.353c-0.021 0.27-0.062 0.54-0.104 0.79zM17.008 5.964l-0.374-0.374 0.062-0.81 0.374 0.374zM16.488 5.465l-0.395-0.395c0.021-0.291 0.021-0.561 0.021-0.852l0.395 0.395c0 0.27 0 0.561-0.021 0.852zM15.927 5.070l-0.395 0.395c0-0.291-0.021-0.561-0.021-0.852l0.395-0.395c0 0.27 0.021 0.561 0.021 0.852zM15.387 5.59l-0.374 0.374-0.062-0.81 0.374-0.374zM14.909 6.088l-0.353 0.353c-0.042-0.249-0.062-0.519-0.104-0.769l0.353-0.353c0.042 0.249 0.062 0.499 0.104 0.769zM14.452 6.545l-0.332 0.332c-0.042-0.249-0.104-0.499-0.145-0.727l0.332-0.332c0.062 0.229 0.104 0.478 0.145 0.727zM14.036 6.961l-0.312 0.312c0-0.042-0.021-0.062-0.021-0.104-0.042-0.208-0.104-0.395-0.145-0.603l0.332-0.332c0.042 0.249 0.083 0.478 0.145 0.727zM13.6 7.21c0.021 0.042 0.021 0.104 0.042 0.145l-0.291 0.291c-0.042-0.125-0.062-0.229-0.104-0.353-0.042-0.104-0.062-0.208-0.104-0.332l0.312-0.312c0.042 0.208 0.083 0.374 0.145 0.561zM13.143 7.335l0.125 0.374-0.291 0.291c-0.062-0.187-0.125-0.353-0.208-0.54-0.021-0.042-0.021-0.062-0.042-0.104l0.312-0.312c0.042 0.125 0.062 0.208 0.104 0.291zM7.595 19.823c0.042-0.021 0.062-0.042 0.104-0.042 0.249-0.104 0.478-0.229 0.727-0.332l0.27 0.27c-0.27 0.145-0.561 0.27-0.831 0.416-0.083 0.042-0.166 0.083-0.27 0.125zM7.595 9.974c0.332 0.229 0.686 0.478 1.018 0.707s0.665 0.478 0.997 0.707l-0.249 0.249c-0.332-0.208-0.644-0.416-0.977-0.644-0.27-0.187-0.54-0.353-0.79-0.54zM7.595 10.618c0.249 0.145 0.499 0.312 0.748 0.457 0.332 0.208 0.644 0.416 0.956 0.603l-0.249 0.27c-0.312-0.187-0.603-0.353-0.914-0.54-0.187-0.104-0.353-0.229-0.54-0.332zM7.595 11.2c0.166 0.083 0.332 0.187 0.499 0.27 0.312 0.166 0.603 0.332 0.914 0.519l-0.27 0.27c-0.27-0.145-0.561-0.291-0.831-0.436-0.104-0.062-0.208-0.104-0.312-0.166zM7.595 11.761c0.083 0.042 0.187 0.083 0.27 0.125 0.27 0.125 0.54 0.27 0.81 0.416l-0.249 0.27c-0.229-0.104-0.478-0.208-0.707-0.332-0.042-0.021-0.083-0.042-0.104-0.062v-0.416zM7.595 20.364c0.104-0.062 0.208-0.104 0.291-0.166 0.291-0.145 0.561-0.291 0.852-0.436l0.249 0.249c-0.312 0.166-0.623 0.353-0.935 0.519-0.166 0.083-0.332 0.187-0.478 0.27v-0.436zM7.595 20.945c0.187-0.104 0.353-0.208 0.54-0.332l0.935-0.561 0.249 0.249c-0.332 0.208-0.644 0.416-0.977 0.623-0.249 0.145-0.478 0.312-0.727 0.457v-0.436zM7.595 21.548c0.27-0.187 0.519-0.353 0.79-0.519 0.332-0.208 0.665-0.436 0.977-0.644l0.249 0.249c-0.332 0.249-0.665 0.478-1.018 0.727-0.332 0.229-0.665 0.457-0.997 0.706zM7.595 22.213c0.353-0.27 0.707-0.54 1.060-0.79 0.332-0.249 0.665-0.499 0.997-0.748l0.229 0.229c-0.332 0.27-0.686 0.54-1.018 0.81-0.416 0.332-0.852 0.665-1.288 0.997v-0.499zM11.813 7.896c0.145 0.291 0.291 0.561 0.436 0.852l-0.249 0.249c-0.166-0.312-0.353-0.623-0.519-0.935-0.083-0.166-0.187-0.332-0.27-0.478h0.436c0.062 0.104 0.104 0.208 0.166 0.312zM11.397 8.125c0.187 0.312 0.374 0.623 0.54 0.935l-0.249 0.249c-0.208-0.332-0.416-0.644-0.623-0.977-0.145-0.249-0.312-0.499-0.457-0.727h0.457c0.104 0.166 0.229 0.332 0.332 0.519zM10.982 8.374c0.208 0.332 0.436 0.644 0.644 0.977l-0.249 0.249c-0.229-0.332-0.478-0.665-0.707-0.997s-0.457-0.665-0.707-0.997h0.478c0.187 0.249 0.374 0.499 0.54 0.769zM10.608 8.644l0.748 0.997-0.249 0.249c-0.27-0.332-0.54-0.665-0.81-1.018-0.332-0.416-0.665-0.852-0.997-1.288h0.499zM10.234 8.935c0.27 0.332 0.561 0.665 0.831 0.997l-0.249 0.249-0.873-0.997c-0.457-0.54-0.914-1.060-1.371-1.6h0.54c0.353 0.457 0.727 0.893 1.122 1.351zM9.86 9.247c0.312 0.332 0.603 0.665 0.893 0.977l-0.229 0.229c-0.312-0.312-0.623-0.644-0.935-0.956-0.603-0.623-1.226-1.268-1.829-1.932h0.54c0.519 0.582 1.039 1.122 1.558 1.683zM9.527 9.579c0.312 0.312 0.623 0.623 0.956 0.935l-0.229 0.229c-0.332-0.291-0.644-0.582-0.977-0.893-0.561-0.519-1.122-1.039-1.683-1.579v-0.54c0.644 0.623 1.288 1.247 1.932 1.849zM9.195 9.932c0.332 0.291 0.644 0.582 0.977 0.873l-0.249 0.249c-0.332-0.27-0.665-0.54-0.997-0.831-0.457-0.374-0.914-0.769-1.351-1.143v-0.519c0.561 0.457 1.101 0.914 1.621 1.371zM8.883 10.306c0.332 0.27 0.665 0.54 0.997 0.79l-0.249 0.249-0.997-0.748-1.060-0.81v-0.499c0.457 0.332 0.873 0.665 1.309 1.018zM7.595 12.509v-0.229c0.021 0 0.042 0.021 0.062 0.021 0.229 0.104 0.457 0.208 0.686 0.291l-0.27 0.27c-0.187-0.083-0.374-0.145-0.561-0.229-0.021 0-0.042-0.021-0.062-0.021zM7.491 12.779c0.166 0.062 0.353 0.125 0.54 0.187l-0.291 0.291-0.374-0.125c-0.104-0.042-0.187-0.062-0.291-0.104l0.312-0.312c0.021 0.021 0.062 0.042 0.104 0.062zM7.325 13.236c0.104 0.042 0.229 0.062 0.332 0.104l-0.291 0.291c-0.042-0.021-0.083-0.021-0.145-0.042-0.187-0.042-0.374-0.104-0.54-0.145l0.312-0.312c0.104 0.021 0.229 0.062 0.332 0.104zM7.2 13.694l0.083 0.021-0.332 0.312c-0.229-0.062-0.478-0.104-0.707-0.166l0.332-0.332c0.208 0.062 0.416 0.104 0.623 0.166zM6.868 14.109l-0.332 0.332-0.748-0.125 0.332-0.332c0.27 0.042 0.499 0.083 0.748 0.125zM6.431 14.545l-0.353 0.353c-0.27-0.042-0.519-0.062-0.79-0.104l0.353-0.353c0.291 0.042 0.54 0.083 0.79 0.104zM5.974 15.023l-0.374 0.374-0.81-0.062 0.374-0.374zM5.455 15.543l-0.395 0.395c-0.291 0-0.561-0.021-0.852-0.021l0.395-0.395c0.291 0 0.561 0 0.852 0.021zM5.081 16.083l0.395 0.395c-0.291 0-0.561 0.021-0.852 0.021l-0.395-0.395c0.291 0 0.561 0 0.852-0.021zM5.621 16.623l0.374 0.374-0.81 0.062-0.374-0.374zM6.099 17.122l0.353 0.353c-0.249 0.042-0.519 0.062-0.769 0.104l-0.353-0.353c0.249-0.042 0.519-0.083 0.769-0.104zM6.556 17.558l0.332 0.332c-0.249 0.042-0.499 0.104-0.727 0.145l-0.332-0.332c0.229-0.042 0.478-0.104 0.727-0.145zM6.971 17.974l0.312 0.312c-0.042 0-0.062 0.021-0.104 0.021-0.208 0.042-0.395 0.104-0.603 0.145l-0.332-0.332c0.249-0.021 0.499-0.083 0.727-0.145zM7.221 18.431c0.062-0.021 0.104-0.021 0.166-0.042l0.291 0.291c-0.125 0.042-0.229 0.083-0.353 0.104-0.104 0.042-0.208 0.062-0.312 0.104l-0.312-0.312c0.166-0.062 0.332-0.104 0.519-0.145zM7.345 18.888c0.125-0.042 0.27-0.083 0.395-0.125l0.291 0.291c-0.187 0.062-0.374 0.145-0.54 0.208-0.021 0.021-0.062 0.021-0.083 0.042l-0.312-0.312c0.083-0.042 0.166-0.083 0.249-0.104zM7.512 19.325c0.187-0.083 0.395-0.145 0.582-0.229l0.27 0.27c-0.229 0.104-0.478 0.208-0.707 0.312-0.021 0-0.042 0.021-0.062 0.021v-0.229l-0.125-0.125c0 0 0.021 0 0.042-0.021zM8.945 21.797c0.332-0.27 0.665-0.561 0.997-0.831l0.249 0.249-0.997 0.873c-0.54 0.457-1.060 0.914-1.6 1.371v-0.54c0.457-0.374 0.893-0.748 1.351-1.122zM7.595 23.709c0.54-0.519 1.101-1.039 1.662-1.558 0.332-0.312 0.644-0.603 0.977-0.893l0.229 0.229c-0.312 0.312-0.644 0.623-0.956 0.935-0.644 0.623-1.268 1.226-1.932 1.829v-0.54zM9.59 22.483c0.312-0.312 0.623-0.644 0.935-0.956l0.229 0.229c-0.291 0.332-0.603 0.665-0.893 0.977-0.519 0.561-1.039 1.122-1.558 1.662h-0.54c0.582-0.623 1.205-1.268 1.829-1.912zM9.943 22.816l0.873-0.997 0.249 0.249c-0.27 0.332-0.561 0.665-0.831 0.997-0.374 0.457-0.748 0.893-1.143 1.351h-0.54c0.457-0.54 0.914-1.081 1.392-1.6zM10.296 23.127c0.27-0.332 0.54-0.686 0.81-1.018l0.249 0.249-0.748 0.997c-0.27 0.353-0.54 0.706-0.79 1.060h-0.499c0.312-0.436 0.644-0.852 0.977-1.288zM10.67 23.418c0.229-0.332 0.478-0.665 0.707-0.997l0.249 0.249c-0.208 0.332-0.436 0.644-0.644 0.977-0.166 0.27-0.353 0.519-0.54 0.79h-0.478c0.249-0.353 0.478-0.686 0.707-1.018zM11.065 23.688c0.208-0.332 0.416-0.644 0.623-0.977l0.249 0.249-0.561 0.935c-0.104 0.187-0.208 0.353-0.332 0.54h-0.457c0.166-0.27 0.332-0.499 0.478-0.748zM11.481 23.938c0.166-0.312 0.353-0.623 0.519-0.935l0.27 0.27c-0.145 0.291-0.291 0.561-0.436 0.852-0.062 0.104-0.104 0.208-0.166 0.312h-0.436c0.062-0.187 0.145-0.353 0.249-0.499zM13.268 24.27l-0.125 0.374c-0.042 0.083-0.062 0.187-0.104 0.27l-0.312-0.312c0.021-0.042 0.021-0.062 0.042-0.104 0.062-0.187 0.125-0.353 0.208-0.54zM13.226 24.686c0.042-0.125 0.062-0.229 0.104-0.353l0.291 0.291c-0.021 0.042-0.021 0.104-0.042 0.145-0.042 0.187-0.104 0.353-0.145 0.54l-0.312-0.312c0.042-0.083 0.083-0.208 0.104-0.312zM13.683 24.831c0-0.042 0.021-0.062 0.021-0.104l0.332 0.312c-0.062 0.229-0.104 0.478-0.166 0.706l-0.332-0.332c0.062-0.187 0.104-0.395 0.145-0.582zM14.119 25.122l0.332 0.332-0.125 0.748-0.332-0.332c0.021-0.249 0.083-0.499 0.125-0.748zM14.556 25.558l0.353 0.353c-0.042 0.27-0.062 0.519-0.104 0.79l-0.353-0.353c0.021-0.27 0.062-0.519 0.104-0.79zM15.034 26.036l0.374 0.374-0.062 0.81-0.374-0.374c0-0.27 0.021-0.54 0.062-0.81zM15.532 26.535l0.395 0.395c0 0.291-0.021 0.561-0.021 0.852l-0.395-0.395c0-0.27 0.021-0.561 0.021-0.852zM16.093 26.93l0.395-0.395c0 0.291 0.021 0.561 0.021 0.852l-0.395 0.395c0-0.291 0-0.561-0.021-0.852zM16.634 26.39l0.374-0.374 0.062 0.81-0.374 0.374zM17.132 25.912l0.353-0.353c0.042 0.249 0.062 0.519 0.104 0.769l-0.353 0.353c-0.042-0.249-0.083-0.519-0.104-0.769zM17.569 25.455l0.332-0.332c0.042 0.249 0.104 0.499 0.145 0.727l-0.332 0.332c-0.062-0.229-0.104-0.478-0.145-0.727zM17.984 25.039l0.312-0.312c0 0.021 0.021 0.062 0.021 0.083 0.042 0.208 0.104 0.416 0.145 0.623l-0.332 0.332c-0.021-0.249-0.083-0.499-0.145-0.727zM18.421 24.79c-0.021-0.042-0.021-0.104-0.042-0.145l0.291-0.291c0.042 0.104 0.062 0.229 0.104 0.332s0.062 0.229 0.104 0.332l-0.312 0.312c-0.042-0.187-0.083-0.374-0.145-0.54zM18.878 24.644l-0.125-0.374 0.291-0.291c0.062 0.187 0.125 0.353 0.208 0.54 0.021 0.042 0.021 0.062 0.042 0.104l-0.291 0.291c-0.062-0.083-0.083-0.166-0.125-0.27zM20.187 24.104c-0.145-0.27-0.291-0.561-0.436-0.831l0.249-0.249c0.166 0.312 0.353 0.603 0.519 0.914 0.083 0.166 0.187 0.332 0.27 0.478h-0.436c-0.042-0.104-0.104-0.208-0.166-0.312zM20.603 23.875c-0.187-0.312-0.353-0.623-0.54-0.914l0.249-0.249c0.208 0.332 0.416 0.644 0.623 0.977 0.145 0.249 0.312 0.499 0.457 0.727h-0.457c-0.104-0.187-0.208-0.353-0.332-0.54zM21.018 23.626c-0.208-0.332-0.436-0.644-0.644-0.977l0.249-0.249c0.229 0.332 0.478 0.665 0.706 0.997s0.457 0.665 0.706 0.997h-0.478c-0.187-0.249-0.353-0.499-0.54-0.769zM21.413 23.356l-0.748-0.997 0.229-0.229c0.27 0.332 0.54 0.665 0.79 1.018 0.332 0.416 0.665 0.852 0.997 1.288h-0.499c-0.229-0.374-0.499-0.727-0.769-1.081zM21.787 23.065c-0.27-0.332-0.561-0.665-0.831-0.997l0.249-0.249 0.873 0.997c0.457 0.54 0.914 1.060 1.371 1.6h-0.54c-0.374-0.457-0.748-0.893-1.122-1.351zM22.161 22.753c-0.291-0.332-0.603-0.644-0.893-0.977l0.249-0.249c0.312 0.312 0.623 0.644 0.935 0.956 0.623 0.644 1.226 1.288 1.849 1.932h-0.561c-0.54-0.561-1.060-1.101-1.579-1.662zM22.494 22.421c-0.312-0.312-0.623-0.623-0.956-0.935l0.249-0.249c0.332 0.291 0.644 0.603 0.977 0.893 0.561 0.519 1.122 1.039 1.662 1.558v0.561c-0.644-0.603-1.288-1.226-1.932-1.829zM22.826 22.068l-0.997-0.873 0.249-0.249c0.332 0.27 0.665 0.54 0.997 0.831 0.457 0.374 0.893 0.748 1.351 1.143v0.519c-0.54-0.457-1.060-0.914-1.6-1.371zM23.138 21.694c-0.332-0.27-0.665-0.54-0.997-0.79l0.229-0.229c0.332 0.249 0.665 0.499 0.997 0.748l1.060 0.81v0.499c-0.436-0.374-0.852-0.706-1.288-1.039zM24.426 19.491v0.208c-0.021 0-0.042-0.021-0.062-0.021-0.229-0.104-0.478-0.208-0.706-0.312l0.27-0.27c0.187 0.083 0.374 0.145 0.561 0.229 0.021 0 0.042 0.021 0.062 0.021zM24.53 19.221c-0.187-0.062-0.353-0.125-0.54-0.208l0.291-0.291 0.374 0.125c0.083 0.042 0.187 0.062 0.27 0.104l-0.291 0.291c-0.021 0.021-0.062 0-0.104-0.021zM19.709 7.584c0 0.021-0.021 0.042-0.021 0.062-0.104 0.229-0.208 0.457-0.291 0.686l-0.27-0.27c0.083-0.187 0.145-0.374 0.229-0.561 0-0.021 0.021-0.042 0.021-0.062l0.145 0.145zM12.665 7.439c0 0.021 0.021 0.042 0.021 0.062 0.083 0.187 0.145 0.374 0.229 0.582l-0.27 0.27c-0.104-0.229-0.208-0.478-0.312-0.707 0-0.021-0.021-0.042-0.021-0.062h0.229zM12.312 24.416c0-0.021 0.021-0.042 0.021-0.062 0.104-0.229 0.208-0.478 0.312-0.706l0.27 0.27c-0.083 0.187-0.145 0.374-0.229 0.582 0 0.021-0.021 0.042-0.021 0.062l-0.145-0.145zM19.356 24.561c0-0.021-0.021-0.042-0.021-0.062-0.083-0.187-0.145-0.374-0.229-0.561l0.27-0.27c0.104 0.229 0.208 0.457 0.312 0.706 0 0.021 0.021 0.042 0.021 0.062h-0.208z"></path>
</svg>
