<!-- Generated by IcoMoon.io -->
<svg version="1.1" xmlns="http://www.w3.org/2000/svg" width="32" height="32" viewBox="0 0 32 32">
<title>token_auto_fail_overlay</title>
<path d="M16 2.457l-1.324 1.324c0.101 0.038 0.198 0.083 0.288 0.139 0.054-0.003 0.109-0 0.164 0.005l0.871-0.871 3.789 3.789h5.368v3.886c0.149 0.1 0.291 0.209 0.421 0.327v-4.634h-5.615l-3.964-3.964zM13.929 4.033c-0.151 0.002-0.303 0.022-0.453 0.054-0.523-0.121-0.925 0.181-1.408 0.302-0.503 0.080-1.046 0.181-1.409 0.543-0.040 0.080-0.061 0.141-0.161 0.201-0.201 0.141-0.483 0.221-0.664 0.382-0.141 0.121-0.241 0.403-0.362 0.503-0.121 0.161-0.161 0.201-0.342 0.282-0.055 0.032-0.1 0.074-0.14 0.12h-0.044c-0.069 0.078-0.126 0.17-0.158 0.276-0.010 0.050-0.026 0.098-0.046 0.145h0.010c-0.067 0.157-0.134 0.313-0.245 0.425h-0.020c-0.040 0.040-0.161 0.141-0.222 0.161v0.081c-0.002 0.003-0.003 0.006-0.005 0.009-0.005-0.006-0.010-0.012-0.016-0.017v0.001c-0.080 0.161-0.101 0.302-0.121 0.483l-0.011 0.035c-0.003 0.013-0.005 0.027-0.008 0.040v0.026c-0.004 0.010-0.010 0.018-0.014 0.028-0.006 0.024-0.012 0.048-0.021 0.072-0.004-0.004-0.007-0.007-0.011-0.011-0.061 0.12-0.128 0.236-0.197 0.35 0.003 0.003 0.006 0.006 0.009 0.009-0.036 0.058-0.072 0.117-0.106 0.179-0.002-0.002-0.004-0.004-0.007-0.006-0.067 0.119-0.129 0.243-0.176 0.384 0.004 0.004 0.009 0.007 0.013 0.011-0.004 0.012-0.010 0.025-0.014 0.038-0.018 0.038-0.033 0.076-0.048 0.114-0.002-0.002-0.004-0.003-0.006-0.005-0.022 0.061-0.044 0.122-0.063 0.182v0.035c-0.072 0.276-0.084 0.558-0.084 0.861 0 0.060-0.060 0.141-0.081 0.201-0.201 0.302-0.020 0.765-0.020 1.107h-0.022c0 0.004 0.001 0.009 0.002 0.014h-0.021c-0.032 0.349 0.002 0.7 0.069 1.049-0.012-0.008-0.025-0.015-0.032-0.023l-0.010 0.010c0.041 0.16 0.092 0.311 0.141 0.462l0.005 0.002c0.011 0.042 0.023 0.084 0.035 0.126-0.001-0-0.001-0-0.002-0 0.011 0.034 0.022 0.069 0.032 0.104 0.001 0.003 0.002 0.007 0.003 0.010 0.070 0.233 0.146 0.462 0.222 0.683 0.060 0.221 0.302 0.463 0.443 0.604 0.010 0.051 0.028 0.099 0.049 0.146 0.019 0.035 0.035 0.071 0.056 0.106 0.013 0.021 0.025 0.042 0.040 0.063 0.001 0.001 0.001 0.001 0.002 0.002 0.117 0.164 0.278 0.31 0.416 0.448 0.141 0.282 0.443 0.423 0.684 0.604-0.102 0.003-0.206 0.013-0.31 0.021-0.232 0.026-0.476 0.061-0.725 0.107-0.837 0.174-1.661 0.526-2.281 1.074l-0.030-0.030c-0.124 0.111-0.239 0.233-0.343 0.365 0.016-0.002 0.032-0.005 0.048-0.007-0.177 0.205-0.329 0.43-0.447 0.679l-0.006-0.006c-0.065 0.142-0.12 0.286-0.164 0.431l0.008 0.008c-0.044 0.152-0.077 0.311-0.097 0.477-0.020 0.020 0 0.302 0 0.322-0.058 0.136-0.097 0.271-0.099 0.389 0.063 0.6 0.303 1.237 0.723 1.657 0.161 0.161 0.402 0.503 0.624 0.604l0.101 0.1h0.382c0.16-0.134 0.23-0.253 0.247-0.366-0.006-0.147-0.088-0.296-0.18-0.453v-0.043c-0.1-0.157-0.207-0.325-0.228-0.526-0.040-0.221-0.101-0.523-0.020-0.745v-0.201l0.020-0.040c0-0.081 0.014-0.171 0.039-0.259l-0.002-0.002c0.001-0.003 0.003-0.005 0.004-0.008 0.030-0.105 0.076-0.208 0.141-0.294v-0.020l0.362-0.342c0.080-0.081 0.302-0.262 0.463-0.282 0.101 0.020 0.221-0.020 0.362-0.020 0.020 0 0.081-0.020 0.101-0.020 0.221 0.020 0.362 0.1 0.543 0.141 0.382 0.040 0.624 0.262 0.966 0.382 0.060 0.040 0.1 0.061 0.161 0.101 0.423 0.181 0.383 0.463 0.765 0.604l0.060 0.060 0.060 0.020c0.201 0.342 0.362 0.483 0.543 0.926 0.020 0.020 0.040 0.081 0.060 0.101 0.020 0.121 0.040 0.242 0.081 0.362 0.060 0.342 0.161 0.765 0.141 1.107-0.080 0.181-0.080 0.181-0.1 0.342l-0.132-0.132c-0.208 0.297-0.427 0.593-0.631 0.89-0.232 0.337-0.463 0.674-0.716 1.032h0.484c0.189-0.274 0.379-0.526 0.547-0.8 0.186-0.298 0.387-0.582 0.578-0.877l0.057 0.057c-0.183 0.289-0.367 0.568-0.55 0.862-0.147 0.253-0.316 0.484-0.484 0.758h0.463c0.126-0.189 0.232-0.358 0.337-0.547l0.49-0.817 0.060 0.059c-0.147 0.267-0.302 0.533-0.444 0.8-0.105 0.147-0.189 0.316-0.252 0.505h0.442c0.063-0.105 0.105-0.211 0.168-0.316 0.122-0.243 0.243-0.474 0.365-0.712l-0.419-0.419c-0.040-0.060-0.020-0.221 0-0.262 0-0.161 0.101-0.302 0.101-0.463 0-0.543-0.121-1.067-0.241-1.61-0.161-0.423-0.362-0.704-0.583-1.046-0.040-0.040-0.060-0.061-0.060-0.101-0.060-0.060-0.121-0.101-0.181-0.121-0.040-0.040-0.060-0.060-0.1-0.060-0.080-0.040-0.161-0.101-0.201-0.161-0.121-0.221-0.443-0.383-0.684-0.544-0.342-0.101-0.543-0.322-0.905-0.382-0.221-0.020-0.362-0.1-0.583-0.161-0.503-0.040-1.046 0.020-1.409 0.423-0.342 0.322-0.664 0.664-0.664 1.147-0.101 0.543-0.1 1.127 0.161 1.63 0.040 0.161 0.261 0.302 0.221 0.442h-0.060l-0.020-0.020c-0.141-0.080-0.261-0.181-0.382-0.342-0.161-0.241-0.362-0.302-0.423-0.543-0.262-0.443-0.463-0.946-0.302-1.469-0.020-0.624 0.262-1.127 0.604-1.671 0.584-0.141 1.912 0.141 2.093-0.222 0.201-0.403 0.382-0.302 0.704-0.402 0.221-0.060 0.161 0.523 0.584 0.583 0.262 0.040 0.885-0.221 1.046-0.081 0.201 0.161 0.242-0.201 0.382-0.101 0.604 0.483 0.845 2.013 1.409 2.013s0.583 0.906 0.845 1.208c0.262 0.302 1.328 0.845 1.328 0.906 0.121 0.020 0.302-0.081 0.483-0.141 0.020 0.121-0.040 0.241 0.020 0.342 0.080 0.282 0.1 0.584 0.1 0.866 0 0.121 0.020 0.362 0.020 0.503h-0.020c0.020 0.201 0.041 0.463-0.1 0.644-0.322 0.403-0.624 0.845-0.906 1.208 0 0.020-0 0.040-0.020 0.040l-0.020 0.040c-0.040 0-0.101-0-0.141-0.020-0.060-0.040-0.081-0.081-0.141-0.121l-0.039-0.039c-0.038 0.172-0.076 0.356-0.132 0.524l0.337 0.337c0.047-0.174 0.085-0.357 0.126-0.537l0.091 0.091c-0.037 0.191-0.075 0.381-0.091 0.572l0.337 0.337 0.095-0.57 0.022 0.021c0-0.156 0.001-0.257 0.060-0.455 0.423-0.825 1.127-1.328 1.731-1.993 0.161-0.282 0.503-0.523 0.764-0.724 0.080-0.101 0.221-0.080 0.302-0.12h0.020c0.322 0.040 0.624-0.020 0.906-0.141 0.362-0.121 0.543-0 0.825-0.382 0.342-0.423 1.208-0.101 1.751-0.282 0.483-0.161 3.4 0.382 4.648 0.080 0.080 0.040 0.201 0.061 0.282 0.040h0.101c0.261-0.080 0.402 0.141 0.704 0.121 0.141-0.020 0.302-0.101 0.503-0.081 0.362-0.020 0.584-0.161 0.905-0.241 0.302-0.020 0.523-0.342 0.745-0.544h0.060c0.060 0 0.060 0.080 0.060 0.121-0.362 1.006-0.564 0.966-1.389 1.489-0.181 0.241-0.523 0.262-0.785 0.322-0.302-0.020-0.463 0.121-0.765 0.141-0.141-0.040-0.503-0.020-0.664-0.020v-0.040c-0.262 0.081-0.544 0.101-0.845 0.060-0.282-0.060-0.563-0.060-0.845-0.020-0.221-0.040-0.483-0.020-0.704-0.121-0.181-0.040-0.342-0.060-0.503 0-0.322 0.060-0.684-0.060-1.046-0.040-0.342 0.040-0.583 0.101-0.885 0.201-0.463 0.040-0.905 0.262-1.248 0.544 0-0.020-0.745 0.644-0.785 0.624-0.241 0.282-0.523 0.644-0.644 1.006-0.060 0.121-0 0.282-0.081 0.382l-1.5 1.5c0.012 0.241 0.015 0.474 0.015 0.72l0.4-0.4c0-0.242-0.012-0.472-0.017-0.709 0.052-0.051 0.099-0.096 0.155-0.151l0.051 0.67 0.379-0.379-0.051-0.659c0.051-0.049 0.079-0.077 0.13-0.126 0.023 0.212 0.054 0.431 0.089 0.637l0.358-0.358c-0.034-0.204-0.056-0.42-0.085-0.63 0.035-0.034 0.059-0.057 0.093-0.090 0.034 0.197 0.069 0.391 0.118 0.572l0.337-0.337c-0.033-0.179-0.076-0.372-0.114-0.566 0.028-0.027 0.066-0.063 0.092-0.089 0.047 0.185 0.090 0.376 0.106 0.571l0.337-0.337c-0.038-0.188-0.090-0.375-0.131-0.563 0.026-0.045 0.054-0.092 0.079-0.128 0.003 0.013 0.005 0.027 0.011 0.038 0.063 0.168 0.105 0.358 0.147 0.547l0.316-0.316c-0.042-0.105-0.063-0.232-0.105-0.337-0.029-0.072-0.050-0.153-0.072-0.232l0.089-0.076 0.088 0.266c0.042 0.105 0.063 0.19 0.126 0.274l0.295-0.295c-0.021-0.042-0.021-0.063-0.042-0.105-0.062-0.139-0.112-0.27-0.159-0.403l0.065-0.055c0.059 0.146 0.114 0.292 0.178 0.438 0 0.021 0.021 0.042 0.021 0.063l0.147-0.126h0.211c0-0.021-0.021-0.042-0.021-0.063-0.066-0.158-0.132-0.302-0.198-0.448-0.109 0.018-0.219 0.040-0.329 0.070 0.262-0.221 0.523-0.383 0.886-0.483 0.161 0 0.402-0.060 0.583-0.141 0.181 0.020 0.302-0.081 0.523-0.081 0.181 0 0.181 0.020 0.302 0.020 0.181 0.020 0.241-0 0.403 0.040 0.020 0.020 0.081 0.020 0.101 0.020 0.121 0 0.242-0 0.362-0.060h0.060c0.161-0.020 0.302 0.101 0.483 0.081 0.101 0.040 0.221 0.040 0.342 0.060 0.282 0.040 0.563-0.060 0.845 0.020l0.040 0.020c0.322 0 0.604 0.080 0.926-0.040 0.141 0 0.523-0.020 0.644 0.020 0.224 0.014 0.409-0.067 0.609-0.113 0.089-0.039 0.18-0.068 0.277-0.062 0.262-0.035 0.614-0.085 0.874-0.268 0.025-0.019 0.049-0.038 0.072-0.060 0.069-0.077 0.168-0.138 0.274-0.196 0.319-0.207 0.587-0.333 0.813-0.572 0.15-0.189 0.256-0.414 0.362-0.661 0-0.060 0.081-0.221 0.141-0.322 0.039-0.483-0.24-0.649-0.653-0.626-0.122 0.159-0.316 0.353-0.473 0.471-0.020 0.020-0.060 0.040-0.081 0.060-0.021 0.003-0.040 0.009-0.061 0.014-0.236 0.048-0.448 0.152-0.744 0.208-0.016 0.002-0.034 0.003-0.050 0.004-0.011 0.003-0.020 0.006-0.031 0.009-0.025 0-0.051-0-0.076-0.001-0.162 0.011-0.33 0.022-0.466 0.068-0.008-0.002-0.016-0.005-0.025-0.007-0.041 0.008-0.080 0.013-0.116 0-0.060-0.020-0.121-0.040-0.201-0.060-0.148-0.099-0.31-0.077-0.474-0.066-0.023 0.004-0.045 0.006-0.068 0.012-0.004 0-0.010-0.005-0.015-0.008-0.009 0-0.017 0.001-0.026 0.001h-0.020c-0.020-0.020-0.061-0.040-0.081-0.060h-0.020c-0.097-0.049-0.218-0.087-0.344-0.108-0.113-0.012-0.228-0.012-0.34 0.014-0.010-0.004-0.020-0.008-0.030-0.012-0.010 0.002-0.021 0.003-0.031 0.006-0.023-0.018-0.047-0.032-0.071-0.048-0.032-0.013-0.065-0.026-0.097-0.040v-0.015c-0.255-0.127-0.557-0.157-0.819-0.239-0.241-0.060-0.462-0.202-0.704-0.242-0.119-0.036-0.253-0.076-0.388-0.101l-0.002 0.002c-0.045-0.007-0.090-0.014-0.134-0.021-0.047-0.003-0.093-0.005-0.139-0.001l-0.009-0.009c-0.048 0.005-0.107 0.011-0.151-0.004 0.007-0.006 0.014-0.012 0.021-0.018-0.028-0.004-0.057-0.008-0.082-0.008 0.302-0.201 0.564-0.483 0.905-0.604 0.161-0.101 0.302-0.262 0.423-0.403 0.141-0.040 0.322-0.121 0.463-0.201v-0.121c0.060-0.040 0.121-0.1 0.181-0.161 0.121-0.181 0.423-0.423 0.564-0.564 0.121-0.101 0.181-0.181 0.221-0.221 0.262-0.262 0.463-0.664 0.745-0.886 0.020-0.020 0.060-0.081 0.080-0.121l0.020-0.020c0.060-0.141 0.161-0.261 0.161-0.422 0-0.020 0.020-0.061 0.060-0.121 0.181-0.282 0.342-0.745 0.403-1.046 0.080-0.302 0.1-0.604 0.181-0.906 0.022-0.177 0.041-0.343 0.037-0.509-0.012-0.1-0.031-0.197-0.056-0.289-0.018-0.059-0.029-0.118-0.037-0.179-0.084-0.269 0.042-0.569-0.185-0.834-0.040-0.081-0.101-0.101-0.121-0.222-0.004-0.021-0.011-0.040-0.016-0.060l-0.031-0.031c-0.136-0.334-0.322-0.668-0.547-0.972v-0.005c-0.050-0.066-0.101-0.131-0.151-0.2-0.282-0.342-0.704-0.564-1.087-0.765-0.282-0.141-0.503-0.282-0.744-0.302-0.181-0.060-0.362 0.060-0.523 0.060-0.181-0.020-0.322-0.081-0.523-0.040-0.141 0.020-0.322-0.020-0.523 0.040-0.221 0.060-0.463 0.121-0.644 0.261-0.161 0.121-0.342 0.040-0.544 0.161-0.382 0.161-0.604 0.463-0.905 0.704-0.101 0.060-0.201 0.201-0.262 0.302-0.080 0.181-0.221 0.403-0.241 0.644 0 0.060-0.101 0.201-0.121 0.302l-0.020 0.020c-0.060 0.242-0.121 0.443-0.081 0.684 0 0.302-0.161 0.584-0.040 0.886 0.101 0.282 0.563 0.382 0.744 0.141 0.181-0.221 0.262-0.282 0.382-0.563 0.020 0 0.020-0.020 0.040-0.020 0.101-0.040 0.221-0.101 0.322-0.181 0.121-0.121 0.382-0.221 0.563-0.241 0.241-0.040 0.664-0.060 0.926-0.060 0.172 0.023 0.264 0.1 0.309 0.224l0 0c0.076 0.090 0.109 0.226 0.074 0.427 0.040 0.463-0.161 0.785-0.382 1.188-0.163 0.325-0.371 0.53-0.607 0.683-0.004 0.013-0.017 0.015-0.017 0.015-0.007 0.002-0.014 0.005-0.021 0.007-0.369 0.227-0.804 0.336-1.247 0.563-0.724 0.503-1.69 0.886-2.294 1.63 0-0.022 0.001-0.047 0.001-0.069-0.007 0.008-0.015 0.015-0.021 0.022 0-0.271 0.027-0.613-0.085-0.883-0.016-0.033-0.034-0.066-0.055-0.096v-0.011c-0.007-0.012-0.013-0.025-0.021-0.036v-0.019l-0.060-0.075c-0-0.008-0.001-0.015-0.001-0.023l-0.019-0.024c0-0.221-0.060-0.382-0.081-0.604-0.002-0.026-0.006-0.051-0.010-0.076-0.038-0.127-0.087-0.25-0.151-0.37-0.007-0.012-0.014-0.025-0.021-0.037s-0.014-0.023-0.021-0.035c-0.024-0.039-0.049-0.078-0.073-0.117-0.003-0.004-0.006-0.008-0.009-0.011l-0.038-0.019c0-0.013-0.019-0.049-0.043-0.092-0.006-0.007-0.011-0.015-0.016-0.022l-0.081-0.161c-0.262-0.463-0.745-0.704-1.087-1.087-0.262-0.181-0.523-0.503-0.805-0.664-0.241-0.081-0.423-0.242-0.684-0.222-0.221-0.201-0.282-0.262-0.563-0.382-0.004-0.011-0.009-0.022-0.013-0.033-0.011-0.005-0.017-0.009-0.028-0.014-0.060-0.201-0.181-0.402-0.342-0.563-0.020-0.025-0.048-0.057-0.073-0.087-0.078-0.077-0.162-0.148-0.247-0.214-0.001-0-0.001-0.001-0.002-0.001l-0.003-0.003c-0.012-0.010-0.024-0.021-0.037-0.030h-0.040c-0.005-0.008-0.010-0.018-0.015-0.027h-0.006c-0.020-0.020-0.040-0.060-0.060-0.081-0.055-0.079-0.087-0.172-0.116-0.267-0.089-0.18-0.168-0.372-0.229-0.569-0.151-0.365-0.12-0.818 0.023-1.176 0.020 0 0.081-0.060 0.101-0.081l0.094-0.256c0.021-0.068 0.040-0.135 0.046-0.185v-0.062c0.077-0.062 0.15-0.127 0.222-0.19 0.002-0.002 0.005-0.004 0.007-0.006s0.003-0.002 0.004-0.004c0.228-0.199 0.451-0.384 0.752-0.444 0.020 0 0.081-0.020 0.181-0.040 0.342 0.101 0.563 0.222 0.885 0.343 0.201 0.121 0.261 0.402 0.503 0.523 0.003 0.010 0.006 0.019 0.010 0.029 0.056 0.126 0.089 0.238 0.108 0.342 0.039 0.147 0.057 0.288 0.023 0.434-0.008 0.018-0.015 0.040-0.021 0.062-0.012 0.112-0.027 0.23-0.039 0.368 0.005 0.066 0.005 0.132-0 0.198 0.001 0.045 0 0.099 0 0.137-0.031 0.062-0.051 0.129-0.074 0.196-0.010 0.027-0.019 0.053-0.031 0.080-0.006 0.014-0.013 0.028-0.020 0.042-0.018 0.038-0.034 0.076-0.055 0.112-0.002 0.004-0.005 0.008-0.007 0.012-0.011 0.026-0.022 0.050-0.034 0.062-0 0-0.001 0.001-0.001 0.001-0.068 0.122-0.15 0.226-0.225 0.339-0.012 0.019-0.023 0.039-0.035 0.059-0.021 0.036-0.043 0.071-0.061 0.111v0.296c0.141 0.161 0.322 0.301 0.583 0.281 0.423-0.181 0.805-0.362 1.227-0.604 0.138-0.138 0.296-0.295 0.492-0.339 0.141-0.123 0.266-0.258 0.364-0.416 0.010-0.024 0.022-0.046 0.030-0.070l0.020-0.020 0.020-0.040c0.282-0.242 0.483-0.604 0.624-0.926 0.020-0.161 0.020-0.362 0.080-0.543 0.013-0.023 0.022-0.046 0.030-0.069 0.017-0.090 0.030-0.18 0.037-0.269-0.003-0.109-0.017-0.217-0.007-0.326 0.002-0.005 0.003-0.010 0.005-0.015 0.044-0.151 0.064-0.313 0.066-0.479-0.012-0.146-0.043-0.291-0.072-0.432 0.008-0.092-0.003-0.19-0.021-0.287-0.034-0.129-0.076-0.252-0.125-0.367-0.012-0.023-0.022-0.049-0.035-0.070-0.141-0.282-0.161-0.604-0.342-0.845l-0.040-0.020c-0.101-0.141-0.161-0.221-0.282-0.302-0.141-0.121-0.362-0.342-0.403-0.544-0.040-0.13-0.124-0.229-0.229-0.309-0.002 0.013-0.003 0.026-0.005 0.039-0.040-0.040-0.082-0.077-0.131-0.109l0.001-0.015c-0.072-0.041-0.146-0.077-0.22-0.108-0.057-0.066-0.109-0.128-0.166-0.185l-0.001 0.017c-0.050-0.046-0.103-0.087-0.16-0.122 0-0.011 0-0.021 0-0.032-0.019-0.013-0.036-0.028-0.056-0.040-0.096-0.032-0.225-0.080-0.353-0.132-0 0.006-0 0.011-0 0.016-0.060-0.022-0.119-0.046-0.179-0.069-0-0.008-0-0.015-0-0.023-0.043-0.018-0.095-0.039-0.131-0.055-0.081-0.075-0.166-0.148-0.255-0.211l-0.020 0.020c-0.203-0.117-0.433-0.164-0.691-0.164-0.012-0.009-0.025-0.015-0.037-0.023l0.016-0.016c-0.015-0.008-0.029-0.017-0.040-0.028-0.116-0.073-0.242-0.122-0.372-0.155l-0.018 0.018c-0.145-0.037-0.294-0.053-0.445-0.051zM15.905 4.063l-0.11 0.11c0.040 0.029 0.079 0.059 0.115 0.091-0.002-0.066-0.005-0.137-0.005-0.201zM16.116 4.063c0 0.11-0.001 0.218-0.002 0.325 0.132 0.050 0.269 0.1 0.401 0.151 0-0.025 0.001-0.051 0.001-0.076l-0.4-0.4zM17.861 5.808c0.001 0.002 0.001 0.001 0.002 0.003 0.054 0.070 0.121 0.13 0.19 0.19 0-0-0-0.001 0-0.001l-0.192-0.192zM13.295 6.053c0.986 0 1.509 0.765 2.736 1.127 0.986 0.302 1.389 1.328 1.489 1.59 0.121 0.302 0.422 0.463 0.704 0.523 0.020 0.141 0.041 0.262-0.020 0.382-0.101 0.262-0.040 0.543-0.181 0.785-0.141 0.141-0.181 0.362-0.362 0.463-0.060 0.060-0.121 0.080-0.161 0.181-0.080 0.060-0.061 0.181-0.141 0.242-0.020 0.060-0.081 0.1-0.121 0.12l-0.020 0.020c-0.201 0.060-0.342 0.161-0.483 0.302-0.302 0.282-0.725 0.402-1.107 0.604-0.040 0-0.060-0.020-0.1-0.060v-0.020c0.221-0.342 0.422-0.644 0.543-1.046 0-0.161 0-0.543 0.020-0.684 0.121-0.362 0.020-0.685-0.121-1.067-0.060-0.262-0.342-0.281-0.422-0.523-0.201-0.302-0.523-0.342-0.825-0.483-0.201-0.060-0.402-0.201-0.604-0.161-0.443 0.081-0.825 0.262-1.127 0.584-0.181 0.141-0.423 0.302-0.362 0.544l-0.081 0.241-0.081 0.081c-0.161 0.362-0.201 0.785-0.161 1.167-0.302 0.201-0.845 0.886-0.704 1.147 0.221 0.403-0.242 0.523 0.1 0.765 0.423 0.302-0.080 0.805 0.242 1.067 0.382 0.322 0.543 0.805 1.086 0.966 0.483 0.141 0.805 0.584 1.328 0.745 1.006 0.302 1.69 0.886 1.972 1.268 0.101 0.161-0 0.866 0.262 1.228 0.201 0.282 0.201 0.684 0.181 1.006-0.141 0.181-0.181 0.383-0.362 0.503-0.382 0.443-0.564 0.986-0.725 1.53-0.020 0.020-0.040 0.020-0.081 0.020 0-0.020 0-0.020-0.020-0.020l-0.020-0.020c-0.201-0.443-0.342-0.926-0.463-1.389-0.161-0.201-0.282-0.403-0.362-0.644-0.060-0.221-0.181-0.281-0.302-0.422-0.141-0.201-0.443-0.544-0.583-0.664-0.060-0.040-0.362-0.241-0.423-0.362-0.060-0.221-0.201-0.241-0.403-0.322-0.060 0-0.080-0-0.12-0.020-0.060 0-0.081-0.020-0.101-0.081-0.080-0.040-0.060-0.080-0.141-0.141-0.101-0.221-0.523-0.302-0.745-0.382-0.302-0.020-0.725-0.262-1.046-0.322h-0.181c-0.221 0.121-0.543-0.302-0.704-0.402-0.221-0.221-0.483-0.342-0.725-0.544-0.060-0.020-0.121-0.081-0.201-0.161v-0.020c-0.080-0.141-0.201-0.262-0.362-0.382-0.101-0.141-0.161-0.241-0.201-0.322 0-0.020-0-0.040-0.020-0.060-0.020-0.081-0.060-0.161-0.141-0.201-0.101-0.081-0.181-0.221-0.282-0.322-0.040-0.121-0.081-0.181-0.121-0.302-0.040-0.040-0-0.081-0.040-0.121-0.080-0.564-0.382-1.027-0.322-1.59h0.040c0.020-0.302-0.020-0.604-0.060-0.926-0.060-0.081 0-0.282 0-0.342 0.040-0.060 0.081-0.1 0.081-0.161 0.040-0.081 0.060-0.121 0.060-0.161 0.040-0.201 0.040-0.443 0.040-0.644 0.080-0.543 0.463-1.107 0.704-1.59 0.020-0.020 0.020-0.060 0.020-0.101 0.040-0.080 0-0.181 0.040-0.261 0-0.060 0.020-0.121 0.081-0.181 0.020 0 0.020-0 0.020-0.020 0.241-0.161 0.302-0.342 0.443-0.583 0.060-0.121 0.101-0.342 0.241-0.423 0.121-0.060 0.241-0.1 0.322-0.221 1.147-0.181 2.173-0.302 3.683-0.322zM18.356 6.303c0.003 0.004 0.007 0.007 0.009 0.011l0.002 0-0.012-0.011zM6.421 6.421v5.615l-3.964 3.964 2.383 2.383c0.031-0.067 0.064-0.132 0.104-0.194 0.030-0.064 0.064-0.133 0.097-0.201l-1.988-1.988 3.763-3.763v-0.871c-0.101-0.342-0.041-0.604 0.020-0.886 0.002-0.003 0.005-0.007 0.007-0.010v-3.628h1.511c0.036-0.070 0.077-0.146 0.093-0.226 0.027-0.069 0.061-0.133 0.098-0.195h-2.122zM18.514 6.461c0 0.001 0.001 0.002 0.001 0.002 0-0 0-0.001 0-0.001l-0.002-0.002zM18.642 6.568c-0.011 0.033-0.019 0.063-0.029 0.095 0.083 0.187 0.151 0.383 0.211 0.58 0.003-0.007 0.004-0.015 0.007-0.022 0.021-0.126 0.064-0.232 0.127-0.337l-0.316-0.316zM19.021 6.947c-0.042 0.105-0.063 0.19-0.105 0.295l-0.042 0.125c0.091 0.15 0.158 0.329 0.191 0.51l0.019 0.018c0.063-0.189 0.126-0.358 0.19-0.547 0.021-0.021 0.021-0.063 0.042-0.105l-0.295-0.295zM19.421 7.326c0 0.021-0.021 0.042-0.021 0.063-0.084 0.189-0.147 0.379-0.232 0.569l0.273 0.273c0.084-0.232 0.19-0.463 0.295-0.694 0-0.021 0.021-0.042 0.021-0.063h-0.19l-0.147-0.147zM7.653 7.453c0.050 0.055 0.1 0.107 0.151 0.161 0.015-0.051 0.033-0.101 0.058-0.152v-0.009h-0.209zM23.021 7.453c-0.4 0.463-0.779 0.905-1.158 1.368-0.295 0.337-0.568 0.673-0.842 1.010l0.253 0.253c0.295-0.316 0.589-0.653 0.884-0.99 0.463-0.526 0.926-1.073 1.41-1.642h-0.547zM19.863 7.474c-0.021 0.042-0.021 0.063-0.042 0.126-0.105 0.232-0.232 0.463-0.337 0.716l0.252 0.252c0.147-0.274 0.295-0.547 0.421-0.821 0.042-0.084 0.084-0.19 0.126-0.274h-0.421zM21.021 7.474c-0.126 0.189-0.232 0.358-0.337 0.547-0.189 0.295-0.358 0.611-0.547 0.926l0.232 0.274c0.211-0.337 0.421-0.653 0.632-0.99 0.168-0.253 0.316-0.505 0.484-0.758h-0.463zM21.632 7.474c-0.189 0.274-0.379 0.526-0.547 0.8-0.211 0.337-0.442 0.652-0.653 0.989l0.252 0.252c0.232-0.337 0.484-0.673 0.716-1.010 0.232-0.358 0.484-0.695 0.716-1.032h-0.484zM22.326 7.474l-0.821 1.074-0.758 1.011 0.232 0.232c0.253-0.337 0.526-0.674 0.8-1.011 0.337-0.442 0.674-0.863 1.053-1.305h-0.505zM23.821 7.474c-0.547 0.547-1.074 1.116-1.6 1.684-0.295 0.337-0.611 0.652-0.905 0.989l0.134 0.134c0.116-0.055 0.237-0.101 0.363-0.135 0.234-0.243 0.469-0.48 0.703-0.714 0.632-0.653 1.263-1.305 1.874-1.958h-0.568zM20.41 7.495c-0.063 0.105-0.105 0.211-0.168 0.316-0.147 0.274-0.295 0.568-0.442 0.842l0.252 0.253c0.189-0.316 0.358-0.611 0.526-0.926 0.105-0.168 0.19-0.337 0.274-0.484h-0.442zM7.484 7.621v0.548c0.035 0.034 0.070 0.066 0.104 0.099 0.011-0.013 0.020-0.028 0.031-0.041 0.040-0.060 0.061-0.141 0.101-0.201v-0.020l0.020-0.060c0.003-0.022 0.007-0.044 0.010-0.066-0.089-0.086-0.178-0.172-0.267-0.258zM24.537 7.621c-0.653 0.632-1.305 1.242-1.958 1.874-0.221 0.207-0.431 0.414-0.64 0.62 0.207-0.046 0.417-0.066 0.612-0.057 0.004-0 0.008-0 0.012-0 0.097-0.090 0.196-0.181 0.289-0.268 0.568-0.526 1.137-1.053 1.684-1.579v-0.59zM24.516 8.463c-0.547 0.463-1.074 0.927-1.621 1.39-0.071 0.066-0.147 0.133-0.22 0.199 0.173-0.004 0.333 0.014 0.479 0.046 0.038-0.016 0.076-0.024 0.113-0.035 0.427-0.351 0.838-0.704 1.248-1.074v-0.526zM24.537 9.242c-0.342 0.261-0.681 0.521-1.014 0.782 0.169-0.002 0.336 0.037 0.499 0.096l0.514-0.393v-0.484zM24.516 9.916c-0.12 0.090-0.239 0.173-0.359 0.258 0.124 0.054 0.244 0.117 0.359 0.181v-0.439zM20.498 11.668c0.885 0.101 2.052 0.201 2.717 0.725 0.765 0.604 0.986 1.369 1.57 1.57 0.423 0.141 0 0.805 0.222 1.228 0.121 0.221 0.161 1.107-0.222 1.328-0.563 0.322-0.684 1.288-0.523 1.872-0.181 0.161-0.382 0.342-0.523 0.523-0.080 0.101-0.141 0.101-0.201 0.141-0.282 0.141-0.262 0.080-0.463 0.322-0.101 0.161-0.423 0.262-0.584 0.382-0.241 0.181-0.644 0.503-0.865 0.604-0.121 0.040-0.825 0.020-0.986 0.020v-0.020c-0.402 0-0.785 0.060-1.107 0.302-0.262 0.121-0.442 0.302-0.744 0.322-0.584 0.242-1.087 0.604-1.57 0.986-0.060 0.060-0.081 0.081-0.121 0.081-0.342 0.040-0.684 0.422-0.986 0.644 0-0.020-0-0.020-0.020-0.020s-0.020 0-0.020-0.020c0-0.040-0.020-0.080-0.020-0.12 0-0.282 0-0.644 0.040-0.906 0.221-0.463 0.362-1.006 0.604-1.469 0.362-0.262 0.644-0.966 1.046-1.208 0.221-0.141 0.362-0.383 0.543-0.584 0.483-0.463 1.147-0.905 1.751-1.207 0.040 0 0.081-0.020 0.121-0.020 0.221-0.121 0.261-0.282 0.483-0.343 0.020-0.020 0.040-0.020 0.081-0.020 0.342-0.081 0.644-0.322 0.986-0.363 0.101-0.060 0.161-0.121 0.201-0.181 0-0.020 0.020-0.040 0.060-0.081 0.342-0.423 0.684-0.845 0.865-1.389 0.101-0.181 0.081-0.443 0.060-0.684 0.060-0.745-0.422-1.047-1.066-0.986-0.362 0-0.704 0.081-1.046 0.161-0.241 0.101-0.402 0.282-0.644 0.362-0.020 0-0.020 0-0.020 0.020l-0.020 0.020c-0.060 0.081-0.101 0.060-0.141 0.141-0.101 0.201-0.201 0.362-0.342 0.523-0.040 0.040-0.060 0.040-0.081 0-0.060-0.121 0.020-0.322 0.040-0.503 0.060-0.282-0.040-0.402 0.060-0.725 0.161-0.302 0.181-0.624 0.362-0.926 0.121-0.221 0.362-0.342 0.503-0.503zM6.874 13.095l-0.316 0.316c0.166 0.041 0.352 0.103 0.539 0.146-0.043-0.147-0.093-0.293-0.142-0.44-0.027-0.007-0.056-0.016-0.081-0.021zM26.864 13.322c0.006 0.15-0.008 0.294 0.033 0.419 0.036 0.096 0.059 0.191 0.077 0.286l1.973 1.973-3.789 3.789v1.087c0.153 0.018 0.299 0.054 0.421 0.1v-1.012l3.964-3.964-2.678-2.678zM6.453 13.495l-0.337 0.337c0.232 0.063 0.484 0.105 0.715 0.169l0.307-0.287c-0.003-0.013-0.007-0.026-0.010-0.039l-0.044-0.011c-0.211-0.063-0.421-0.105-0.632-0.169zM5.989 13.958l-0.337 0.337 0.758 0.126 0.337-0.337c-0.253-0.042-0.485-0.084-0.758-0.126zM5.505 14.421l-0.358 0.358c0.274 0.042 0.526 0.063 0.8 0.105l0.358-0.358c-0.253-0.021-0.505-0.063-0.8-0.105zM27 14.926l-0.039 0.003c-0.024 0.134-0.053 0.268-0.083 0.402-0 0.004-0.001 0.009-0.002 0.013l0.503-0.039-0.379-0.379zM5.021 14.947l-0.379 0.379 0.821 0.063 0.379-0.379-0.821-0.063zM27.547 15.495c-0.237 0-0.463 0.012-0.695 0.017-0.008 0.048-0.017 0.096-0.027 0.145l0.259 0.259c0.295 0 0.589-0.021 0.863-0.021l-0.4-0.4zM4.453 15.516l-0.4 0.4c0.295 0 0.568 0.021 0.863 0.021l0.4-0.4c-0.295-0.021-0.568-0.021-0.863-0.021zM4.937 16.084c-0.295 0.021-0.568 0.021-0.863 0.021l0.4 0.4c0.295 0 0.568-0.021 0.863-0.021l-0.4-0.4zM27.084 16.084l-0.4 0.4c0.295 0.021 0.589 0.021 0.863 0.021l0.4-0.4c-0.295 0-0.568-0.021-0.863-0.021zM5.484 16.632l-0.821 0.063 0.379 0.379 0.707-0.054c0.021-0.020 0.043-0.039 0.065-0.058l-0.33-0.33zM26.558 16.632l-0.080 0.080c-0.046 0.094-0.093 0.186-0.144 0.27-0.001 0.014-0.006 0.027-0.009 0.040l0.674 0.052 0.379-0.379-0.821-0.063zM26.295 17.148c-0.046 0.135-0.121 0.262-0.178 0.39 0.125 0.017 0.251 0.032 0.378 0.042l0.358-0.358c-0.191-0.029-0.373-0.050-0.558-0.074zM5.589 17.18c-0.135 0.019-0.27 0.040-0.4 0.062l0.183 0.183c0.066-0.089 0.137-0.173 0.217-0.245zM26.037 17.653c-0.020 0.029-0.040 0.056-0.065 0.073-0.094 0.074-0.176 0.171-0.255 0.274 0.098 0.017 0.196 0.034 0.294 0.042l0.337-0.337-0.31-0.052zM25.634 18.109c-0.086 0.119-0.172 0.24-0.266 0.352 0.061 0.015 0.122 0.032 0.18 0.044l0.337-0.337c-0.081-0.022-0.166-0.041-0.25-0.060zM25.294 18.544c-0.022 0.023-0.043 0.047-0.066 0.068-0.020 0.020-0.101 0.121-0.241 0.241-0 0-0.001 0.001-0.001 0.001 0.056 0.015 0.112 0.031 0.162 0.051l0.316-0.316c-0.059-0.013-0.113-0.030-0.169-0.046zM24.899 18.934c-0.067 0.062-0.144 0.129-0.215 0.201-0.039 0.026-0.085 0.061-0.119 0.099 0.026 0.009 0.051 0.021 0.078 0.030 0.042 0.021 0.084 0.042 0.105 0.021l0.294-0.295c-0.044-0.022-0.093-0.039-0.143-0.055zM7.855 19.023c-0.060 0.006-0.118 0.012-0.174 0.012-0.135 0.074-0.258 0.189-0.373 0.307 0.022-0.014 0.054-0.018 0.072-0.036 0.168-0.063 0.358-0.147 0.547-0.211l-0.072-0.072zM7.989 19.137c-0.189 0.084-0.4 0.147-0.589 0.232-0.021 0.021-0.042 0.021-0.042 0.021l0.127 0.126v0.232c0.021 0 0.042-0.021 0.063-0.021 0.232-0.105 0.484-0.211 0.716-0.316l-0.274-0.273zM24.498 19.327c-0.038 0.049-0.083 0.097-0.116 0.13v0.1c-0.040 0.022-0.089 0.046-0.133 0.070 0.076 0.033 0.152 0.066 0.225 0.099 0.021 0 0.042 0.021 0.063 0.021v-0.211l0.126-0.148c-0.021 0-0.042-0.021-0.063-0.021-0.034-0.015-0.068-0.027-0.102-0.042zM8.326 19.495c-0.253 0.105-0.484 0.232-0.737 0.337-0.042 0-0.063 0.021-0.105 0.042v0.442c0.105-0.042 0.189-0.084 0.273-0.126 0.274-0.147 0.568-0.274 0.842-0.421l-0.273-0.274zM24.157 19.675c-0.134 0.068-0.272 0.134-0.398 0.184-0.008 0.011-0.017 0.019-0.026 0.030 0.177 0.088 0.354 0.177 0.53 0.258 0.105 0.042 0.19 0.085 0.274 0.127v-0.421c-0.042-0.021-0.063-0.021-0.105-0.042-0.089-0.049-0.182-0.092-0.275-0.135zM8.642 19.81c-0.295 0.147-0.569 0.295-0.864 0.442-0.084 0.063-0.189 0.105-0.294 0.169h-0.021v0.442c0.147-0.084 0.316-0.189 0.484-0.273 0.316-0.168 0.632-0.358 0.947-0.526l-0.252-0.253zM23.681 19.948c-0.088 0.1-0.181 0.183-0.285 0.252 0.217 0.127 0.432 0.249 0.656 0.368 0.016 0.009 0.033 0.020 0.049 0.029 0.138 0.035 0.276 0.071 0.414 0.116v-0.313c-0.084-0.063-0.189-0.105-0.294-0.169-0.175-0.094-0.358-0.189-0.54-0.283zM8.979 20.105l-0.947 0.568c-0.189 0.126-0.358 0.232-0.547 0.337h0.021v0.442c0.253-0.147 0.484-0.316 0.737-0.463 0.337-0.211 0.652-0.421 0.989-0.632l-0.252-0.252zM23.31 20.251c-0.031 0.017-0.061 0.036-0.095 0.051 0.121 0.020 0.262 0.061 0.382 0.121 0.005 0.003 0.011 0.004 0.016 0.007-0.1-0.059-0.202-0.12-0.303-0.179zM9.274 20.442c-0.316 0.211-0.653 0.442-0.99 0.653-0.274 0.168-0.526 0.337-0.8 0.526v0.526c0.337-0.253 0.673-0.484 1.010-0.715 0.358-0.253 0.695-0.484 1.032-0.737l-0.252-0.253zM9.568 20.737c-0.337 0.253-0.673 0.505-1.010 0.758-0.358 0.253-0.716 0.526-1.074 0.8h-0.021v0.505c0.442-0.337 0.884-0.674 1.306-1.011 0.337-0.274 0.695-0.547 1.032-0.821l-0.232-0.232zM9.863 21.032c-0.337 0.274-0.673 0.568-1.010 0.842-0.463 0.379-0.905 0.758-1.368 1.137v0.547c0.547-0.463 1.074-0.926 1.621-1.389l1.011-0.884-0.253-0.252zM10.158 21.326c-0.337 0.295-0.652 0.589-0.989 0.905-0.568 0.526-1.137 1.053-1.684 1.579h-0.021v0.547c0.674-0.611 1.305-1.221 1.958-1.852 0.316-0.316 0.653-0.632 0.968-0.947l-0.232-0.232zM10.453 21.6c-0.316 0.316-0.632 0.653-0.947 0.968-0.632 0.653-1.263 1.305-1.853 1.937h0.547c0.526-0.547 1.053-1.116 1.579-1.684 0.295-0.316 0.611-0.653 0.905-0.99l-0.232-0.232zM10.748 21.895l-0.884 1.011c-0.484 0.526-0.947 1.074-1.41 1.621h0.547c0.4-0.463 0.779-0.905 1.158-1.368 0.274-0.337 0.568-0.674 0.842-1.011l-0.252-0.252zM11.033 22.2c-0.271 0.334-0.541 0.688-0.812 1.021-0.337 0.442-0.674 0.863-0.99 1.305h0.505c0.253-0.358 0.526-0.716 0.8-1.074l0.652-0.869-0.168-0.168c0-0.020 0-0.040 0.020-0.081 0-0.040-0.005-0.089-0.008-0.135zM6.421 22.657v2.922h5.615l3.964 3.964 3.964-3.964h5.615v-1.604l-0.030-0.010h-0.391v1.192h-5.368l-3.789 3.789-3.789-3.789h-5.368v-2.501h-0.421zM12.187 23.562c-0.116 0.229-0.224 0.466-0.345 0.69-0.042 0.105-0.084 0.19-0.126 0.274h0.421c0.021-0.042 0.042-0.063 0.063-0.105 0.083-0.199 0.177-0.387 0.266-0.58l-0.278-0.279zM21.138 23.805c0.167 0.243 0.323 0.473 0.493 0.701h0.484c-0.167-0.222-0.323-0.445-0.478-0.667-0.070-0.011-0.171-0.014-0.254-0.014-0.076-0.019-0.153-0.020-0.246-0.020zM22.43 23.824c-0.004 0.001-0.007 0.002-0.011 0.003 0.194 0.232 0.387 0.462 0.581 0.699h0.547c-0.167-0.197-0.334-0.39-0.501-0.584-0.078-0.012-0.16-0.025-0.234-0.037-0.141 0-0.261-0.040-0.382-0.081zM21.030 23.839c-0.117 0.044-0.25 0.072-0.396 0.090 0.010 0.017 0.019 0.033 0.029 0.050 0.126 0.189 0.232 0.358 0.337 0.547h0.463c-0.138-0.216-0.293-0.451-0.433-0.687zM21.787 23.857c0.168 0.226 0.331 0.453 0.476 0.69h0.505c-0.175-0.23-0.35-0.455-0.525-0.681-0.119 0.017-0.238 0.018-0.357 0.018-0.030-0.010-0.065-0.020-0.1-0.028zM12.53 23.905c-0.082 0.186-0.164 0.377-0.246 0.558 0 0.021-0.021 0.042-0.021 0.063h0.211l0.147 0.147c0-0.021 0.021-0.042 0.021-0.063 0.060-0.151 0.111-0.29 0.166-0.427l-0.278-0.278zM20.522 23.942c-0.127 0.012-0.265 0.023-0.404 0.032 0.041 0.079 0.083 0.159 0.124 0.236 0.063 0.105 0.126 0.211 0.168 0.316h0.442c-0.084-0.147-0.19-0.316-0.274-0.484-0.018-0.034-0.038-0.066-0.057-0.099zM23.755 23.949c-0.145 0.004-0.292 0.038-0.436 0.032 0.174 0.181 0.345 0.361 0.523 0.545h0.568c-0.185-0.191-0.366-0.382-0.549-0.574-0.035-0.004-0.071-0.005-0.107-0.004zM20.045 23.981c-0.134 0.010-0.267 0.021-0.406 0.041 0.062 0.132 0.126 0.262 0.183 0.399 0.021 0.042 0.021 0.063 0.063 0.105h0.421c-0.042-0.105-0.084-0.19-0.126-0.274-0.047-0.094-0.090-0.181-0.134-0.271zM24.166 24.007c0.124 0.117 0.247 0.235 0.371 0.351v-0.336c-0.119-0.006-0.243-0.013-0.371-0.015zM12.864 24.239c-0.049 0.122-0.095 0.243-0.138 0.371-0.021 0.042-0.021 0.063-0.042 0.105l0.316 0.316c0.042-0.084 0.063-0.19 0.105-0.274l0.069-0.208-0.311-0.31zM13.243 24.618c-0.016 0.059-0.032 0.118-0.053 0.182-0.021 0.105-0.063 0.232-0.105 0.316l0.316 0.316c0.040-0.179 0.097-0.34 0.139-0.517l-0.296-0.296zM14.507 25.882c-0.031 0.2-0.059 0.396-0.075 0.602l0.358 0.358c0.031-0.205 0.053-0.4 0.079-0.599l-0.361-0.361zM14.998 26.373c-0.024 0.205-0.039 0.411-0.039 0.616l0.379 0.379 0.047-0.609-0.386-0.387zM15.521 26.897c-0.006 0.219-0.016 0.436-0.016 0.64l0.4 0.4c0-0.219 0.010-0.427 0.016-0.64l-0.4-0.4z"></path>
</svg>
