<!-- Generated by IcoMoon.io -->
<svg version="1.1" xmlns="http://www.w3.org/2000/svg" width="32" height="32" viewBox="0 0 32 32">
<title>token_-6_highlight</title>
<path d="M18.332 10.718c-0.596 0-1.221 0.195-1.876 0.584-0.638 0.381-1.213 0.865-1.727 1.453-0.505 0.58-0.915 1.213-1.23 1.9-0.141 0.323-0.244 0.638-0.311 0.944-0.066 0.298-0.099 0.625-0.099 0.981 0 1.548 0.406 2.712 1.217 3.49 0.836 0.787 1.855 1.18 3.056 1.18v-0.012h0.075c0.754-0.008 1.486-0.364 2.199-1.068 0.704-0.696 1.056-1.544 1.056-2.546 0-1.168-0.356-2.049-1.068-2.646-0.712-0.613-1.582-0.919-2.608-0.919-0.141 0-0.228 0.029-0.261 0.087-0.513 0.696-1.093 1.329-1.739 1.9-0.033 0.050-0.091 0.075-0.174 0.075-0.058-0.008-0.087-0.033-0.087-0.075 0.041-0.729 0.203-1.358 0.484-1.888 0.29-0.538 0.625-0.998 1.006-1.379 0.389-0.389 0.778-0.7 1.168-0.932 0.397-0.24 0.72-0.414 0.969-0.522 0.182 0 0.319-0.058 0.41-0.174 0.017-0.050 0.025-0.087 0.025-0.112 0-0.19-0.141-0.286-0.422-0.286zM17.14 20.444c-0.58 0-1.076-0.311-1.491-0.932-0.397-0.596-0.596-1.085-0.596-1.466 0-0.613 0.199-1.155 0.596-1.627 0.422-0.505 0.923-0.758 1.503-0.758 0.588 0 1.085 0.236 1.491 0.708 0.406 0.464 0.609 1.027 0.609 1.689 0 0.671-0.203 1.238-0.609 1.702-0.406 0.472-0.903 0.708-1.491 0.708z"></path>
<path d="M8.16 16.94c-0.003 0-0.005 0.001-0.008 0.001-0.037 0.003-0.073-0.011-0.097-0.039-0.033-0.037-0.040-0.090-0.017-0.133l0.351-0.685c0.016-0.032 0.044-0.056 0.078-0.067 0.013-0.004 0.026-0.007 0.039-0.007 0.006-0 0.011 0 0.016 0 0.093 0.004 0.992 0.047 1.58 0.045s1.488-0.048 1.581-0.053c0.006-0 0.011-0.001 0.016-0 0.028 0.001 0.055 0.013 0.074 0.034 0.009 0.010 0.016 0.022 0.015 0.035-0.014 0.096-0.18 0.438-0.247 0.572-0.017 0.035-0.046 0.063-0.081 0.079-0.022 0.010-0.045 0.016-0.069 0.016-0.002 0-0.004 0-0.007 0-0.058-0-0.913-0.001-1.49 0.032-0.644 0.036-1.664 0.162-1.735 0.17z"></path>
<path d="M11.704 15.896c-0.012-0.001-0.021 0-0.026 0-0.092 0.005-0.993 0.052-1.576 0.053s-1.482-0.041-1.575-0.045c-0.005-0-0.014-0.001-0.025-0-0.024 0.001-0.046 0.005-0.069 0.012-0.060 0.020-0.11 0.063-0.139 0.119l-0.351 0.685c-0.042 0.082-0.029 0.183 0.032 0.252 0.047 0.052 0.115 0.079 0.184 0.073 0.006-0 0.010-0.001 0.013-0.001 0.070-0.009 1.091-0.133 1.728-0.169 0.57-0.032 1.426-0.032 1.484-0.032h0c0.002 0 0.005 0 0.008 0h0.001c0.038-0.001 0.076-0.010 0.111-0.026 0.056-0.026 0.103-0.071 0.131-0.128 0.033-0.067 0.092-0.187 0.145-0.303 0.026-0.058 0.051-0.116 0.071-0.166s0.035-0.089 0.041-0.134v-0c0.008-0.058-0.023-0.101-0.042-0.122-0.038-0.041-0.091-0.065-0.146-0.067h-0zM11.666 16.108c-0.005 0.014-0.004 0.017-0.011 0.035-0.018 0.045-0.041 0.1-0.066 0.156-0.051 0.112-0.109 0.23-0.141 0.296-0.007 0.013-0.018 0.024-0.032 0.030-0.009 0.004-0.018 0.006-0.027 0.006-0.001 0-0.002 0-0.004 0-0.059-0-0.914-0.001-1.496 0.032-0.651 0.037-1.67 0.162-1.742 0.171h-0c-0.003 0-0.003 0-0.002 0h-0c-0.004 0-0.008-0.001-0.011-0.005-0.004-0.004-0.005-0.009-0.002-0.014l0.351-0.685c0.004-0.007 0.010-0.013 0.018-0.015 0.003-0.001 0.006-0.002 0.009-0.002 0 0 0.002 0 0.007 0h0c0.093 0.004 0.992 0.047 1.585 0.045 0.585-0.002 1.45-0.047 1.564-0.053z"></path>
</svg>
