<!-- Generated by IcoMoon.io -->
<svg version="1.1" xmlns="http://www.w3.org/2000/svg" width="32" height="32" viewBox="0 0 32 32">
<title>token_auto_fail_sealed</title>
<path d="M15.701 21.015c0.014 0.055 0.014 0.104 0.007 0.152s-0.014 0.097-0.021 0.152c0 0.035-0.014 0.062-0.049 0.097-0.056 0.076-0.111 0.145-0.167 0.214s-0.111 0.145-0.167 0.228c-0.042 0.055-0.076 0.111-0.111 0.173s-0.069 0.124-0.111 0.173c0 0.014 0 0.021-0.007 0.021-0.007 0.007-0.007 0.014-0.007 0.021h-0.049c-0.014 0-0.021-0.007-0.035-0.014-0.021-0.021-0.042-0.035-0.056-0.048s-0.035-0.028-0.056-0.048l-1.056-1.051c-0.021-0.035-0.056-0.076-0.111-0.124-0.014-0.014-0.014-0.035-0.014-0.062 0-0.055 0.007-0.090 0.014-0.111 0-0.035 0.007-0.069 0.014-0.104 0.014-0.035 0.021-0.069 0.035-0.104s0.014-0.083 0.014-0.159c0-0.076-0.007-0.125-0.014-0.159 0-0.062-0.014-0.145-0.035-0.256-0.014-0.083-0.021-0.166-0.042-0.249s-0.035-0.159-0.056-0.249l-0.035-0.062c-0.056-0.145-0.111-0.256-0.174-0.332-0.021-0.041-0.049-0.083-0.076-0.125-0.035-0.042-0.056-0.083-0.076-0.125-0.021-0.021-0.035-0.041-0.035-0.062-0.042-0.041-0.076-0.069-0.111-0.076-0.021-0.021-0.042-0.035-0.063-0.035-0.056-0.021-0.097-0.055-0.125-0.097-0.063-0.104-0.174-0.194-0.319-0.27-0.021-0.014-0.035-0.021-0.049-0.035s-0.028-0.021-0.049-0.035c-0.063-0.021-0.125-0.048-0.181-0.076-0.056-0.035-0.111-0.062-0.167-0.097-0.056-0.021-0.125-0.042-0.208-0.062-0.035 0-0.063-0.007-0.097-0.014-0.035-0.014-0.063-0.021-0.097-0.035-0.042-0.014-0.097-0.028-0.16-0.048-0.035 0-0.063 0-0.090-0.007s-0.056 0-0.090 0.007c-0.035 0-0.069 0-0.104 0.007s-0.076 0.007-0.118 0.007c-0.076 0-0.153 0.028-0.236 0.076-0.083 0.055-0.16 0.111-0.222 0.173l-0.208 0.207c-0.042 0.035-0.076 0.076-0.097 0.125-0.021 0.055-0.042 0.111-0.063 0.173s-0.035 0.125-0.035 0.194c-0.014 0.035-0.014 0.090-0.014 0.173-0.021 0.083-0.028 0.173-0.021 0.27s0.021 0.187 0.042 0.27c0.014 0.097 0.042 0.194 0.097 0.284 0.021 0.041 0.042 0.083 0.069 0.118s0.049 0.069 0.069 0.104c0.014 0.021 0.014 0.035 0 0.048h-0.035l-0.014-0.014c-0.083-0.041-0.167-0.111-0.236-0.207-0.063-0.083-0.118-0.145-0.16-0.173-0.056-0.055-0.083-0.104-0.097-0.159-0.035-0.055-0.063-0.111-0.090-0.166s-0.049-0.111-0.069-0.166c-0.021-0.062-0.042-0.145-0.063-0.256-0.014-0.041-0.014-0.097 0-0.159 0.021-0.055 0.035-0.104 0.035-0.152v-0.152c0.014-0.076 0.021-0.145 0.042-0.221 0.014-0.076 0.042-0.145 0.090-0.221 0.021-0.041 0.056-0.118 0.097-0.221 0.021-0.041 0.056-0.097 0.097-0.159 0.035-0.055 0.069-0.097 0.104-0.125 0.035-0.035 0.076-0.069 0.118-0.111 0.063-0.062 0.132-0.111 0.208-0.145 0.042-0.021 0.076-0.041 0.111-0.069s0.069-0.048 0.111-0.069c0.076-0.076 0.153-0.111 0.236-0.111 0.083-0.035 0.167-0.062 0.25-0.090 0.076-0.028 0.16-0.048 0.25-0.069 0.063-0.021 0.104-0.035 0.125-0.035 0.056-0.014 0.104-0.021 0.146-0.021 0.042-0.007 0.090-0.007 0.146-0.007 0.021-0.014 0.049-0.014 0.076-0.014s0.056-0.007 0.076-0.014c0.035-0.014 0.083-0.014 0.16-0.014 0.021 0.014 0.042 0.014 0.069 0.014s0.049 0.007 0.069 0.014c0.076-0.014 0.153 0.028 0.236 0.111l0.049 0.048c0.083 0.042 0.146 0.069 0.194 0.076 0.083 0.021 0.153 0.028 0.208 0.014 0.042 0 0.076 0.007 0.097 0.014 0.056 0.021 0.104 0.041 0.16 0.055s0.104 0.035 0.16 0.055c0.104 0.055 0.208 0.076 0.306 0.076l0.097 0.048c0.083 0.055 0.146 0.104 0.194 0.159 0.056 0.055 0.097 0.090 0.125 0.111 0.056 0.021 0.097 0.048 0.139 0.090 0.035 0.035 0.076 0.069 0.118 0.104 0.042 0.042 0.069 0.076 0.076 0.097 0.021 0.041 0.042 0.076 0.063 0.097 0.014 0.021 0.021 0.041 0.042 0.062 0.014 0.021 0.035 0.041 0.056 0.062s0.042 0.035 0.063 0.048c0.042 0.055 0.076 0.104 0.097 0.145 0.014 0.014 0.014 0.021 0.014 0.021 0 0.007 0.007 0.014 0.014 0.021 0.014 0.062 0.049 0.138 0.111 0.221 0.035 0.041 0.056 0.083 0.076 0.118s0.042 0.076 0.063 0.118 0.076 0.166 0.097 0.235c0.021 0.083 0.056 0.159 0.097 0.221s0.076 0.125 0.097 0.194c0.014 0.035 0.021 0.069 0.035 0.104s0.021 0.069 0.035 0.104c0.056 0.145 0.076 0.277 0.063 0.38-0.014 0.035-0.007 0.069 0.014 0.111 0 0.021 0.007 0.035 0.014 0.048 0.035 0.118 0.049 0.235 0.049 0.353v0.125c0 0.041 0.007 0.090 0.014 0.145v0.166zM11.207 14.112c0.014-0.166 0-0.36-0.035-0.574-0.014-0.014-0.014-0.035-0.014-0.062 0-0.062 0.007-0.111 0.014-0.145 0.014-0.021 0.021-0.035 0.035-0.048s0.014-0.028 0.014-0.048c0.021-0.041 0.035-0.076 0.035-0.097 0.014-0.041 0.014-0.083 0.014-0.124s0.007-0.083 0.014-0.124v-0.145c0-0.021 0.014-0.076 0.035-0.159 0.021-0.055 0.042-0.111 0.063-0.166l0.063-0.166c0.021-0.076 0.056-0.131 0.097-0.173 0.042-0.055 0.076-0.104 0.097-0.159s0.049-0.104 0.076-0.159c0.014-0.014 0.014-0.035 0.014-0.062 0.014-0.035 0.014-0.062 0.014-0.090s0.007-0.048 0.014-0.069c0-0.042 0.014-0.076 0.049-0.111 0.014 0 0.014-0.007 0.014-0.014 0.063-0.041 0.104-0.076 0.118-0.104s0.042-0.069 0.090-0.138c0.021-0.041 0.042-0.083 0.063-0.118s0.035-0.083 0.049-0.138c0.021-0.055 0.056-0.097 0.097-0.124 0.035-0.021 0.063-0.035 0.090-0.048s0.049-0.028 0.069-0.048c0.021-0.021 0.035-0.041 0.049-0.062s0.028-0.042 0.049-0.062 0.063-0.083 0.097-0.118 0.056-0.083 0.076-0.138c0.021-0.035 0.049-0.055 0.076-0.076 0.056-0.021 0.111-0.048 0.167-0.076 0.056-0.035 0.111-0.062 0.167-0.097 0.063-0.041 0.104-0.076 0.125-0.111 0.014-0.014 0.021-0.021 0.021-0.035 0.007-0.014 0.014-0.021 0.021-0.035 0.021-0.021 0.042-0.035 0.056-0.041s0.035-0.021 0.056-0.041c0.083-0.041 0.188-0.076 0.306-0.097 0.056-0.021 0.104-0.035 0.146-0.041s0.090-0.014 0.146-0.021c0.042-0.014 0.083-0.021 0.125-0.035s0.083-0.028 0.125-0.048c0.021-0.014 0.049-0.021 0.076-0.021 0.035-0.007 0.056-0.014 0.076-0.021 0.035-0.021 0.076-0.041 0.146-0.062 0.063-0.014 0.125-0.014 0.194 0 0.035 0.014 0.069 0.014 0.104 0.007s0.069-0.007 0.104-0.007c0.056-0.021 0.104-0.028 0.153-0.021s0.097 0.014 0.153 0.021c0.063 0 0.132 0.028 0.208 0.076 0.014 0.014 0.021 0.021 0.035 0.021 0.014 0.007 0.021 0.014 0.035 0.021 0.063 0.021 0.118 0.035 0.16 0.035h0.014c0.097-0.021 0.181 0.007 0.257 0.076 0.042 0.055 0.097 0.097 0.16 0.124l0.236 0.097c0.083 0.035 0.139 0.048 0.153 0.055s0.063 0.048 0.139 0.138c0.021 0.042 0.076 0.083 0.16 0.124 0.021 0 0.042 0.014 0.063 0.035 0.056 0.021 0.090 0.055 0.111 0.111 0.021 0.076 0.056 0.138 0.097 0.201 0.042 0.055 0.090 0.111 0.146 0.166 0.042 0.041 0.076 0.076 0.111 0.097 0.042 0.041 0.076 0.076 0.097 0.111 0.021 0.041 0.042 0.069 0.063 0.076 0.042 0.076 0.069 0.145 0.076 0.221 0.014 0.062 0.035 0.131 0.076 0.207l0.049 0.097c0.021 0.042 0.035 0.083 0.035 0.124 0 0.055 0 0.104 0.007 0.152s0.014 0.097 0.021 0.152c0.035 0.076 0.035 0.159 0 0.256-0.021 0.041-0.035 0.118-0.035 0.221 0.021 0.097 0.014 0.173-0.014 0.221-0.021 0.062-0.035 0.124-0.042 0.194-0.007 0.062-0.014 0.124-0.021 0.173-0.014 0.035-0.028 0.069-0.049 0.111-0.014 0.021-0.021 0.035-0.035 0.048s-0.021 0.028-0.035 0.048c-0.035 0.083-0.076 0.145-0.146 0.194l-0.035 0.035c-0.021 0.014-0.042 0.035-0.063 0.076-0.021 0.021-0.035 0.048-0.042 0.076-0.007 0.035-0.021 0.055-0.042 0.076-0.021 0.041-0.049 0.069-0.076 0.076l-0.014 0.014c-0.056 0.021-0.104 0.048-0.153 0.076-0.049 0.035-0.090 0.069-0.139 0.111-0.014 0.035-0.042 0.055-0.097 0.076-0.104 0.055-0.201 0.104-0.292 0.152s-0.188 0.090-0.292 0.138c-0.021 0-0.042-0.014-0.063-0.035v-0.014l0.035-0.062c0.035-0.055 0.063-0.097 0.097-0.138 0.035-0.035 0.056-0.083 0.076-0.138 0.035-0.055 0.056-0.104 0.069-0.152s0.035-0.097 0.056-0.152v-0.249c0-0.076 0.007-0.131 0.014-0.173 0.042-0.104 0.042-0.242 0-0.415-0.014-0.055-0.035-0.131-0.076-0.235-0.021-0.076-0.056-0.124-0.111-0.145-0.063-0.041-0.111-0.104-0.146-0.173-0.056-0.083-0.125-0.145-0.208-0.173-0.056-0.021-0.104-0.041-0.146-0.062s-0.090-0.041-0.146-0.062c-0.042-0.021-0.083-0.035-0.125-0.048s-0.090-0.028-0.146-0.048c-0.035-0.014-0.063-0.014-0.097 0-0.056 0.014-0.104 0.021-0.146 0.035s-0.090 0.028-0.146 0.048c-0.056 0.021-0.104 0.048-0.146 0.069-0.042 0.028-0.083 0.055-0.125 0.090-0.042 0.041-0.083 0.083-0.125 0.118s-0.083 0.069-0.125 0.104c-0.063 0.055-0.097 0.104-0.097 0.159v0.076l-0.049 0.145-0.049 0.048c-0.042 0.097-0.076 0.194-0.097 0.304-0.021 0.159-0.021 0.318 0 0.477 0.021 0.083 0.042 0.145 0.063 0.194 0.014 0.021 0.021 0.035 0.021 0.041 0.007 0.007 0.014 0.021 0.021 0.041 0.042 0.062 0.063 0.124 0.063 0.173 0.014 0.062 0.035 0.124 0.063 0.173 0.021 0.021 0.035 0.048 0.042 0.069 0.007 0.028 0.021 0.048 0.042 0.069 0.035 0.041 0.069 0.076 0.111 0.111 0.021 0.014 0.035 0.021 0.042 0.021 0.007 0.007 0.021 0.014 0.042 0.021 0.021 0.014 0.035 0.021 0.042 0.035s0.014 0.021 0.021 0.035c0.021 0.021 0.042 0.048 0.063 0.069 0.021 0.028 0.042 0.048 0.063 0.069 0.042 0.062 0.069 0.118 0.076 0.159 0.014 0.014 0.014 0.028 0.014 0.048 0.014 0.042 0.042 0.076 0.097 0.111l0.035 0.014c0.056 0.021 0.097 0.048 0.139 0.076 0.035 0.035 0.076 0.062 0.118 0.097l0.049 0.048c0.042 0.021 0.076 0.035 0.111 0.035h0.063c0.035 0 0.069 0.014 0.111 0.035 0.035 0.021 0.063 0.035 0.090 0.048s0.056 0.021 0.090 0.035c0.063 0.041 0.104 0.076 0.125 0.111 0.035 0.035 0.063 0.062 0.097 0.090s0.069 0.055 0.111 0.090c0.035 0.021 0.063 0.048 0.097 0.076 0.035 0.035 0.063 0.062 0.097 0.097 0.042 0.062 0.097 0.118 0.16 0.159 0.056 0.035 0.104 0.069 0.146 0.111s0.083 0.090 0.125 0.145c0.021 0.014 0.042 0.035 0.063 0.076l0.049 0.097c0.042 0.083 0.076 0.145 0.111 0.173 0.014 0.021 0.021 0.035 0.021 0.042 0.007 0.007 0.014 0.021 0.021 0.041 0.042 0.062 0.063 0.111 0.063 0.145 0 0.055 0.007 0.097 0.014 0.125 0.021 0.104 0.035 0.187 0.035 0.235 0 0.062 0.014 0.118 0.049 0.159v0.014c0.063 0.076 0.097 0.173 0.097 0.284v0.256c0 0.097-0.021 0.159-0.063 0.194s-0.097 0.076-0.16 0.145c-0.035 0.021-0.056 0.048-0.076 0.069-0.021 0.028-0.042 0.048-0.063 0.069-0.097 0.118-0.167 0.214-0.208 0.304-0.035 0.055-0.069 0.097-0.111 0.125-0.083 0.083-0.146 0.18-0.194 0.284-0.021 0.041-0.042 0.083-0.056 0.118s-0.035 0.076-0.056 0.118c-0.035 0.062-0.056 0.131-0.076 0.201s-0.042 0.138-0.063 0.214c-0.014 0.014-0.028 0.014-0.049 0.014 0-0.014-0.007-0.014-0.014-0.014l-0.014-0.014c-0.021-0.055-0.042-0.104-0.063-0.152s-0.042-0.097-0.063-0.152c-0.021-0.076-0.042-0.145-0.063-0.207s-0.042-0.131-0.063-0.208c0-0.035-0.007-0.055-0.014-0.076-0.014-0.021-0.021-0.041-0.021-0.055-0.007-0.014-0.021-0.035-0.042-0.055-0.014-0.021-0.021-0.035-0.035-0.048s-0.021-0.028-0.035-0.048c-0.042-0.062-0.069-0.111-0.076-0.145 0-0.021-0.014-0.055-0.035-0.097-0.021-0.062-0.049-0.111-0.076-0.145-0.042-0.035-0.076-0.069-0.111-0.111s-0.063-0.083-0.097-0.125c-0.021-0.021-0.035-0.041-0.049-0.062s-0.028-0.041-0.049-0.062c-0.083-0.083-0.139-0.138-0.16-0.159s-0.076-0.055-0.16-0.111c-0.042-0.042-0.076-0.076-0.097-0.111l-0.014-0.035c-0.021-0.055-0.049-0.090-0.090-0.104-0.035-0.014-0.083-0.035-0.139-0.055-0.035 0-0.056-0.007-0.076-0.014-0.035 0-0.056-0.014-0.063-0.048-0.021-0.014-0.035-0.021-0.042-0.035s-0.021-0.028-0.042-0.048c-0.021-0.055-0.069-0.097-0.146-0.125-0.035-0.021-0.063-0.035-0.097-0.041s-0.063-0.021-0.097-0.041c-0.021-0.014-0.042-0.014-0.056-0.014s-0.035-0.007-0.056-0.014c-0.021 0-0.076-0.014-0.16-0.035-0.056-0.021-0.104-0.041-0.16-0.062s-0.104-0.041-0.16-0.062c-0.021-0.014-0.049-0.021-0.076-0.021-0.035-0.007-0.056-0.014-0.076-0.021h-0.111c-0.063 0.035-0.125 0.014-0.194-0.048l-0.236-0.194c-0.056-0.055-0.111-0.097-0.167-0.138-0.056-0.035-0.111-0.076-0.167-0.118-0.021-0.021-0.042-0.035-0.056-0.041s-0.035-0.021-0.056-0.041c-0.042-0.014-0.076-0.041-0.111-0.097v-0.014c-0.056-0.083-0.125-0.166-0.222-0.235-0.063-0.083-0.104-0.145-0.125-0.194 0-0.021 0-0.035-0.007-0.041s-0.007-0.014-0.007-0.021c-0.014-0.041-0.035-0.076-0.076-0.097l-0.063-0.062c-0.021-0.021-0.042-0.041-0.056-0.069s-0.035-0.048-0.056-0.069c-0.014-0.035-0.021-0.062-0.035-0.090s-0.021-0.055-0.035-0.090c-0.014-0.014-0.014-0.021-0.014-0.035s-0.007-0.021-0.014-0.035c-0.021-0.118-0.049-0.221-0.069-0.311-0.028-0.090-0.056-0.18-0.090-0.277-0.021-0.041-0.035-0.083-0.035-0.124v-0.263zM21.903 20.925c-0.035 0-0.076 0.014-0.146 0.035-0.035 0.014-0.090 0.014-0.174 0.014-0.035 0-0.063 0-0.097-0.007s-0.063-0.007-0.097-0.007c-0.021-0.014-0.049-0.014-0.069-0.014-0.028 0-0.056-0.007-0.090-0.014-0.076-0.014-0.16-0.014-0.257 0-0.056 0.014-0.104 0.014-0.16 0.007s-0.104-0.014-0.16-0.021c-0.035-0.014-0.069-0.014-0.104-0.014s-0.069-0.014-0.104-0.035c-0.056-0.014-0.104-0.021-0.153-0.021-0.049-0.007-0.097 0-0.153 0.021-0.021 0.014-0.063 0.014-0.125 0.014-0.056-0.014-0.104-0.021-0.153-0.021-0.049-0.007-0.097-0.007-0.153-0.007-0.056-0.014-0.125-0.014-0.208-0.014s-0.146 0.014-0.194 0.035c-0.035 0.014-0.069 0.014-0.111 0.014s-0.076 0.014-0.111 0.035c-0.042 0.014-0.083 0.021-0.118 0.035s-0.083 0.014-0.139 0.014c-0.083 0.021-0.146 0.042-0.194 0.062-0.063 0.035-0.132 0.062-0.201 0.097s-0.132 0.076-0.181 0.124c-0.021 0.014-0.035 0.021-0.049 0.035s-0.028 0.021-0.049 0.035l-0.431 0.38c-0.063 0.062-0.104 0.111-0.125 0.145-0.056 0.097-0.125 0.201-0.208 0.318-0.042 0.062-0.063 0.118-0.063 0.159-0.014 0.021-0.014 0.055-0.014 0.097 0 0.062-0.014 0.118-0.049 0.159-0.014 0.021-0.021 0.035-0.021 0.042-0.007 0.007-0.014 0.021-0.021 0.042-0.021 0.014-0.035 0.021-0.042 0.035s-0.014 0.021-0.021 0.035c-0.125 0.117-0.25 0.235-0.375 0.367-0.125 0.124-0.25 0.249-0.375 0.367-0.021 0.035-0.049 0.055-0.076 0.076-0.021 0.021-0.042 0.021-0.063 0-0.014 0-0.021-0.007-0.035-0.014-0.146-0.145-0.292-0.291-0.431-0.422s-0.278-0.27-0.417-0.422c-0.035-0.035-0.049-0.069-0.049-0.111v-0.118c0-0.035 0.014-0.076 0.035-0.145 0.16-0.284 0.354-0.546 0.59-0.782 0.021-0.021 0.042-0.042 0.063-0.055s0.049-0.035 0.076-0.055 0.097-0.083 0.125-0.118c0.035-0.035 0.069-0.076 0.111-0.118 0.021-0.021 0.035-0.035 0.042-0.048s0.021-0.028 0.042-0.048c0.035-0.062 0.083-0.124 0.16-0.194 0.056-0.055 0.104-0.097 0.153-0.138 0.049-0.035 0.097-0.076 0.153-0.118 0.042-0.041 0.083-0.062 0.125-0.062 0.035 0 0.056-0.007 0.063-0.014 0.063-0.021 0.111-0.048 0.146-0.076 0.104-0.097 0.222-0.18 0.34-0.263 0.125-0.076 0.243-0.159 0.361-0.228 0.056-0.021 0.104-0.041 0.146-0.062s0.090-0.035 0.146-0.048c0.014 0 0.049-0.014 0.111-0.035 0.056-0.035 0.111-0.062 0.174-0.097s0.125-0.069 0.194-0.111c0.042-0.035 0.111-0.055 0.208-0.076 0.056 0 0.104 0 0.146-0.007s0.090-0.007 0.146-0.007h0.174c0.097-0.014 0.194-0.014 0.285 0 0.083 0 0.16 0 0.229 0.007s0.146 0.014 0.229 0.021c0.021 0.014 0.056 0.014 0.111 0.014 0.097 0 0.167 0.014 0.208 0.035 0.056 0.021 0.097 0.035 0.139 0.041 0.035 0.007 0.083 0.021 0.139 0.041 0.083 0.041 0.174 0.076 0.264 0.104s0.181 0.048 0.264 0.069c0.104 0.021 0.195 0.055 0.271 0.111 0.042 0.035 0.097 0.048 0.16 0.048 0.035 0 0.055-0.007 0.063-0.014 0.097-0.014 0.195 0.014 0.285 0.062 0.014 0.014 0.021 0.014 0.021 0.014 0.007 0 0.014 0.007 0.021 0.014 0.063 0.021 0.118 0.028 0.16 0.014h0.062c0.063-0.021 0.118-0.014 0.16 0.014 0.021 0.014 0.035 0.014 0.049 0.014s0.028 0.007 0.049 0.014c0.035 0.021 0.090 0.035 0.174 0.035 0.035 0 0.076-0.014 0.146-0.035 0.035-0.014 0.083-0.014 0.16-0.014 0.063 0 0.104-0.007 0.125-0.014 0.083-0.021 0.153-0.041 0.208-0.062 0.042-0.014 0.076-0.021 0.111-0.035s0.070-0.021 0.111-0.035c0.063 0 0.125-0.028 0.174-0.076 0.035-0.021 0.063-0.048 0.097-0.076 0.035-0.035 0.055-0.055 0.076-0.076 0.042-0.035 0.076-0.069 0.111-0.111h0.035c0.021 0 0.035 0.014 0.035 0.035v0.035c-0.042 0.076-0.069 0.145-0.076 0.208-0.021 0.055-0.049 0.104-0.070 0.145-0.028 0.041-0.048 0.083-0.069 0.125-0.055 0.083-0.125 0.145-0.208 0.194-0.042 0.021-0.084 0.048-0.118 0.069-0.035 0.028-0.083 0.048-0.139 0.069-0.063 0.035-0.118 0.069-0.16 0.111l-0.049 0.048c-0.021 0.021-0.055 0.042-0.097 0.062-0.055 0.021-0.111 0.035-0.167 0.048s-0.111 0.021-0.167 0.035c-0.104 0-0.208 0.014-0.306 0.048-0.035 0.021-0.083 0.035-0.16 0.035-0.042-0.014-0.097-0.014-0.16-0.014h-0.25zM19.146 19.237c-0.139 0-0.271 0.014-0.396 0.048-0.076 0.014-0.146 0.041-0.208 0.097-0.021 0.014-0.049 0.021-0.069 0.042-0.028 0.014-0.049 0.028-0.069 0.041-0.063 0.035-0.125 0.062-0.181 0.097s-0.125 0.055-0.201 0.062c-0.063 0.021-0.104 0.035-0.125 0.048-0.146 0.083-0.292 0.173-0.431 0.263s-0.271 0.187-0.396 0.291c-0.035 0.035-0.056 0.048-0.076 0.048-0.118 0.021-0.236 0.090-0.368 0.207-0.042 0.035-0.076 0.062-0.111 0.097s-0.076 0.062-0.125 0.097c0-0.014-0.007-0.014-0.014-0.014-0.014 0-0.014-0.007-0.014-0.014 0-0.014 0-0.021-0.007-0.035s-0.007-0.021-0.007-0.035c0-0.076-0-0.145 0.007-0.221s0.007-0.145 0.007-0.221c0-0.055 0.007-0.090 0.014-0.111 0.035-0.055 0.056-0.104 0.069-0.159s0.035-0.104 0.056-0.159c0.021-0.055 0.042-0.104 0.056-0.145s0.035-0.090 0.056-0.145c0.021-0.035 0.042-0.076 0.063-0.145 0.035-0.076 0.056-0.125 0.069-0.152s0.063-0.069 0.139-0.138c0.021-0.021 0.056-0.062 0.097-0.125 0.021-0.041 0.042-0.076 0.069-0.111s0.049-0.062 0.069-0.097c0.076-0.125 0.16-0.214 0.257-0.27 0.042-0.014 0.076-0.041 0.111-0.097 0.035-0.041 0.069-0.083 0.104-0.118s0.076-0.083 0.118-0.138c0.035-0.042 0.090-0.097 0.174-0.159 0.042-0.035 0.083-0.062 0.125-0.097s0.083-0.062 0.125-0.097c0.201-0.145 0.417-0.284 0.639-0.394 0.014 0 0.021 0 0.035-0.007s0.021-0.007 0.035-0.007c0.063-0.041 0.104-0.076 0.125-0.097 0.021-0.014 0.049-0.035 0.076-0.062 0.021-0.014 0.035-0.021 0.049-0.035s0.028-0.014 0.049-0.014c0.014-0.014 0.028-0.014 0.049-0.014 0.063-0.021 0.125-0.041 0.194-0.069 0.063-0.028 0.125-0.055 0.194-0.090 0.035-0.021 0.069-0.035 0.104-0.041l0.104-0.021c0.063-0.041 0.104-0.076 0.125-0.111 0-0.014 0.014-0.028 0.035-0.048 0.035-0.062 0.069-0.111 0.111-0.145 0.083-0.076 0.153-0.166 0.208-0.284 0.042-0.076 0.083-0.145 0.118-0.214s0.069-0.138 0.090-0.214c0.035-0.076 0.049-0.152 0.049-0.235v-0.173c0-0.118-0.007-0.201-0.014-0.256-0.014-0.076-0.056-0.145-0.125-0.221-0.104-0.076-0.208-0.118-0.306-0.124h-0.201c-0.069 0-0.139 0.007-0.215 0.014-0.076 0.014-0.146 0.021-0.208 0.035s-0.132 0.028-0.208 0.048l-0.097 0.048c-0.056 0.035-0.104 0.062-0.146 0.097s-0.090 0.055-0.146 0.076c-0.014 0-0.014 0-0.014 0.007s-0.007 0.007-0.014 0.007c-0.021 0.021-0.035 0.035-0.049 0.041s-0.021 0.021-0.035 0.041l-0.035 0.062c-0.021 0.055-0.049 0.097-0.076 0.138-0.035 0.035-0.063 0.076-0.097 0.118-0.021 0.021-0.035 0.021-0.049 0-0.014 0-0.014-0.014-0.014-0.035 0-0.076 0.014-0.166 0.035-0.27 0.014-0.097 0.014-0.194 0-0.284 0-0.021 0.014-0.076 0.035-0.159 0.014-0.014 0.014-0.021 0.014-0.035s0.007-0.028 0.014-0.048c0.042-0.076 0.069-0.145 0.076-0.221 0-0.035 0.014-0.069 0.035-0.111 0.021-0.055 0.049-0.104 0.076-0.159 0.014-0.021 0.021-0.041 0.042-0.062 0.014-0.021 0.035-0.041 0.056-0.062 0.056-0.041 0.097-0.083 0.139-0.118 0.035-0.035 0.076-0.076 0.118-0.118s0.076-0.069 0.097-0.076c0.021-0.021 0.049-0.041 0.076-0.055 0.035-0.014 0.063-0.035 0.097-0.055 0.021-0.014 0.056-0.014 0.097-0.014 0.014-0.014 0.035-0.014 0.063-0.014 0.076-0.014 0.146-0.042 0.208-0.097 0.021-0.014 0.035-0.021 0.042-0.021 0.007-0.007 0.021-0.014 0.042-0.021 0.014-0.014 0.028-0.014 0.049-0.014 0.056-0.021 0.104-0.035 0.16-0.048s0.104-0.014 0.16-0.014c0.056 0 0.104 0 0.146-0.007s0.090 0 0.146 0.007c0.097 0.035 0.208 0.028 0.333-0.014 0.021-0.014 0.042-0.014 0.055-0.007s0.035 0.007 0.056 0.007c0.083 0.021 0.194 0.069 0.319 0.145 0.021 0.014 0.049 0.021 0.076 0.041 0.035 0.014 0.055 0.028 0.076 0.042 0.097 0.055 0.181 0.104 0.257 0.159 0.083 0.055 0.146 0.111 0.195 0.173 0.035 0.042 0.063 0.083 0.097 0.124s0.063 0.090 0.097 0.145c0.021 0.021 0.035 0.042 0.049 0.062s0.028 0.041 0.049 0.062c0.055 0.076 0.090 0.166 0.111 0.27 0.014 0.076 0.042 0.145 0.097 0.207 0.021 0.041 0.035 0.069 0.049 0.076 0.014 0.021 0.014 0.055 0.014 0.097v0.062c0 0.097 0.014 0.194 0.049 0.284 0.035 0.097 0.042 0.187 0.035 0.27-0.014 0.062-0.021 0.124-0.021 0.18-0.007 0.055-0.021 0.118-0.042 0.18-0.014 0.055-0.021 0.111-0.021 0.166-0.007 0.055-0.021 0.111-0.042 0.166-0.014 0.055-0.021 0.104-0.035 0.145s-0.021 0.083-0.035 0.125c-0.021 0.055-0.042 0.104-0.062 0.152s-0.049 0.097-0.076 0.152c-0.042 0.062-0.069 0.125-0.076 0.194 0 0.035-0.014 0.055-0.035 0.076 0 0.021-0.007 0.041-0.014 0.055-0.014 0.014-0.021 0.035-0.035 0.055l-0.049 0.048c-0.042 0.035-0.097 0.090-0.16 0.173-0.056 0.083-0.097 0.152-0.139 0.201-0.035 0.048-0.069 0.090-0.104 0.125s-0.070 0.076-0.118 0.118c-0.049 0.041-0.111 0.104-0.181 0.173-0.083 0.062-0.146 0.131-0.194 0.207l-0.035 0.035c-0.042 0.041-0.076 0.069-0.111 0.076-0.014 0-0.014 0-0.014 0.007s-0.007 0.007-0.014 0.007c-0.083 0.035-0.139 0.055-0.16 0.069s-0.056 0.055-0.111 0.118c-0.021 0.035-0.063 0.069-0.125 0.111-0.083 0.035-0.16 0.076-0.229 0.125-0.069 0.055-0.139 0.104-0.215 0.159-0.063 0.062-0.118 0.104-0.16 0.125-0.083 0.055-0.139 0.083-0.153 0.090s-0.069 0.007-0.153 0.007h-0.445z"></path>
</svg>
