<!-- Generated by IcoMoon.io -->
<svg version="1.1" xmlns="http://www.w3.org/2000/svg" width="32" height="32" viewBox="0 0 32 32">
<title>token_cultist_sealed</title>
<path d="M22.542 18.963c0.035 0.201 0.042 0.394 0.021 0.588-0.014 0.194-0.069 0.374-0.167 0.553-0.056 0.083-0.111 0.159-0.174 0.221s-0.139 0.125-0.222 0.173c-0.34 0.277-0.681 0.45-1.021 0.526-0.181 0.035-0.396 0.035-0.639 0.014-0.056-0.014-0.111-0.014-0.174-0.014s-0.125-0.007-0.174-0.014c-0.104-0.021-0.201-0.048-0.292-0.069-0.090-0.028-0.194-0.048-0.313-0.069-0.243-0.062-0.479-0.131-0.695-0.207s-0.41-0.152-0.57-0.235c-0.021-0.014-0.035-0.014-0.049-0.014s-0.021-0.007-0.035-0.014c-0.042-0.014-0.083-0.007-0.125 0.014-0.021 0.021-0.035 0.035-0.049 0.042s-0.021 0.021-0.035 0.041c-0.319 0.304-0.618 0.609-0.896 0.899s-0.576 0.567-0.896 0.837l-0.111 0.111h-0.028c0-0.014-0.007-0.014-0.014-0.014-0.021-0.021-0.042-0.042-0.056-0.055s-0.035-0.035-0.056-0.055c-0.306-0.242-0.59-0.512-0.854-0.802s-0.542-0.588-0.854-0.878c-0.021-0.021-0.035-0.035-0.049-0.041s-0.028-0.021-0.049-0.041h-0.090c-0.299 0.166-0.667 0.311-1.118 0.429-0.083 0.021-0.167 0.035-0.25 0.048-0.076 0.014-0.16 0.014-0.25 0.014-0.076 0.014-0.146 0.021-0.208 0.021-0.063 0.007-0.139 0.014-0.222 0.021-0.014 0.014-0.035 0.014-0.076 0.014h-0.354c-0.118 0-0.236 0.007-0.354 0.014-0.125 0-0.236-0.021-0.333-0.055s-0.188-0.083-0.271-0.138c-0.056-0.055-0.111-0.104-0.174-0.145s-0.125-0.090-0.194-0.145c-0.326-0.242-0.576-0.609-0.75-1.093-0.035-0.104-0.049-0.208-0.056-0.304s0-0.187 0.021-0.27c0.021-0.062 0.042-0.131 0.069-0.207s0.063-0.152 0.104-0.235c0.056-0.138 0.118-0.27 0.194-0.408 0.076-0.131 0.153-0.263 0.236-0.387 0.083-0.118 0.16-0.214 0.229-0.304 0.069-0.083 0.139-0.194 0.215-0.318 0.021-0.041 0.035-0.076 0.049-0.111v-0.014c0.056-0.083 0.083-0.166 0.097-0.256l0.035-0.062c0.222-0.36 0.417-0.754 0.576-1.19 0-0.021 0.007-0.035 0.014-0.035 0.063-0.104 0.111-0.207 0.146-0.311s0.056-0.207 0.076-0.325v-0.014c0.021-0.035 0.035-0.062 0.042-0.097s0.021-0.055 0.042-0.076c0.056-0.118 0.097-0.214 0.139-0.284 0.035-0.076 0.069-0.166 0.104-0.284 0.056-0.124 0.111-0.256 0.167-0.38s0.111-0.256 0.153-0.394c0.035-0.138 0.063-0.263 0.097-0.367s0.063-0.221 0.097-0.353v-0.145c0.021-0.076 0.049-0.145 0.076-0.214 0.035-0.069 0.063-0.138 0.097-0.214 0.097-0.221 0.188-0.429 0.271-0.609 0.083-0.187 0.174-0.38 0.271-0.595 0.021-0.041 0.035-0.076 0.049-0.111s0.028-0.069 0.049-0.111c0.021-0.035 0.042-0.062 0.056-0.097s0.035-0.055 0.056-0.076c0-0.014 0.007-0.014 0.014-0.014 0.056-0.055 0.097-0.111 0.125-0.166 0.035-0.055 0.056-0.111 0.076-0.166h0.035c0.021-0.021 0.035-0.035 0.035-0.048 0.083-0.104 0.167-0.214 0.236-0.318 0.076-0.104 0.167-0.221 0.285-0.353 0.181-0.18 0.361-0.353 0.549-0.526 0.188-0.166 0.382-0.318 0.597-0.443 0.063-0.076 0.167-0.152 0.319-0.235 0.035-0.021 0.069-0.042 0.111-0.062l0.035-0.035c0.014 0 0.021 0 0.021-0.007 0.007-0.007 0.014-0.007 0.021-0.007 0.097-0.035 0.194-0.055 0.285-0.076 0.097-0.021 0.194-0.055 0.285-0.097 0.042 0.021 0.083 0.035 0.125 0.035 0.056 0.014 0.132 0.035 0.236 0.076 0.076 0.035 0.132 0.062 0.167 0.097s0.069 0.062 0.090 0.097c0.083 0.042 0.167 0.090 0.236 0.138 0.076 0.048 0.146 0.097 0.222 0.152 0.278 0.214 0.521 0.443 0.736 0.692s0.396 0.498 0.542 0.74h0.014c0.021 0.055 0.056 0.104 0.097 0.159s0.083 0.104 0.125 0.159c0.021 0.014 0.035 0.021 0.042 0.035s0.021 0.021 0.042 0.035c0.056 0.145 0.125 0.29 0.215 0.429s0.181 0.263 0.264 0.38c0 0.014 0 0.021 0.007 0.021 0.007 0.007 0.007 0.014 0.007 0.021 0.083 0.173 0.174 0.353 0.264 0.553s0.167 0.408 0.229 0.623c0.021 0.083 0.042 0.173 0.056 0.263s0.042 0.18 0.069 0.263c0.021 0.145 0.042 0.318 0.063 0.519 0.021 0.194 0.056 0.401 0.111 0.609 0.056 0.214 0.111 0.401 0.167 0.567s0.125 0.353 0.201 0.567c0.056 0.18 0.111 0.353 0.181 0.505 0.069 0.159 0.146 0.29 0.229 0.394 0 0.042 0.014 0.097 0.035 0.159 0.035 0.125 0.097 0.235 0.195 0.332l0.014 0.014c0.042 0.097 0.076 0.201 0.111 0.311s0.076 0.221 0.125 0.325c-0.021 0-0.021 0.014 0 0.035 0.021 0.062 0.035 0.104 0.049 0.125 0.083 0.118 0.174 0.235 0.271 0.36s0.195 0.256 0.285 0.408c0.104 0.138 0.201 0.291 0.285 0.463 0.167 0.194 0.257 0.394 0.313 0.574zM15.743 18.942c0.063 0.014 0.125 0.014 0.181 0.014h0.167c0.181 0 0.34-0.042 0.479-0.125 0.035-0.021 0.056-0.041 0.076-0.055s0.042-0.035 0.063-0.055c0-0.118 0.028-0.221 0.076-0.318 0-0.014 0-0.014 0.007-0.014s0.007-0.007 0.007-0.014c0.021-0.055 0.014-0.104-0.014-0.145-0.014-0.014-0.021-0.021-0.021-0.035-0.007-0.014-0.014-0.021-0.021-0.035-0.021-0.041-0.021-0.062 0-0.062 0.042-0.035 0.083-0.055 0.125-0.062 0.063-0.021 0.125-0.048 0.174-0.090 0.056-0.035 0.104-0.076 0.16-0.118 0.076-0.076 0.139-0.166 0.194-0.27 0.014-0.021 0.014-0.042 0.014-0.062s0.007-0.041 0.014-0.062c0.021-0.041 0.035-0.083 0.049-0.118s0.028-0.083 0.049-0.138c0.021-0.118 0.056-0.228 0.097-0.332s0.097-0.207 0.16-0.304c0.021-0.035 0.042-0.062 0.063-0.090s0.042-0.055 0.063-0.090c0.035-0.041 0.063-0.083 0.097-0.118s0.056-0.076 0.076-0.118c0.035-0.035 0.056-0.069 0.076-0.111 0.014-0.014 0.014-0.035 0.014-0.076 0-0.062-0.021-0.131-0.056-0.207s-0.097-0.145-0.181-0.207c-0.042-0.042-0.118-0.083-0.222-0.124-0.097-0.035-0.188-0.062-0.278-0.097s-0.188-0.055-0.292-0.076c-0.056-0.014-0.104-0.021-0.146-0.021-0.042-0.007-0.090-0.021-0.146-0.041-0.063-0.014-0.111-0.021-0.139-0.041-0.028-0.014-0.069-0.035-0.118-0.055-0.194-0.062-0.326-0.194-0.417-0.394-0.014-0.035-0.021-0.062-0.035-0.090s-0.021-0.055-0.035-0.090c-0.014-0.035-0.014-0.062-0.014-0.097s-0.007-0.062-0.014-0.097c0-0.041-0.056-0.062-0.16-0.062-0.021-0.014-0.056-0.014-0.097-0.014-0.076-0.014-0.132-0.007-0.174 0.014-0.042 0.062-0.076 0.145-0.111 0.256-0.021 0.055-0.042 0.104-0.063 0.145s-0.042 0.090-0.063 0.145c-0.035 0.062-0.069 0.118-0.111 0.159-0.042 0.076-0.104 0.111-0.174 0.111h-0.049c-0.097-0.014-0.188-0.007-0.278 0.014s-0.181 0.041-0.264 0.062c-0.104 0.041-0.208 0.069-0.313 0.090-0.104 0.014-0.201 0.035-0.313 0.055-0.125 0-0.222 0.014-0.285 0.048-0.035 0.021-0.083 0.069-0.16 0.145-0.076 0.055-0.118 0.118-0.125 0.194-0.021 0.062-0.028 0.111-0.021 0.145s0.021 0.076 0.042 0.124c0.042 0.118 0.104 0.235 0.194 0.353 0.056 0.138 0.111 0.284 0.174 0.429s0.125 0.304 0.194 0.477c0.035 0.062 0.063 0.118 0.097 0.166s0.063 0.111 0.097 0.201c0.035 0.097 0.097 0.187 0.194 0.27 0.021 0.021 0.063 0.055 0.125 0.097 0.042 0.041 0.083 0.083 0.118 0.118s0.069 0.083 0.104 0.138c0.021 0.021 0.035 0.041 0.042 0.062s0.021 0.041 0.042 0.062c0.042 0.055 0.083 0.104 0.125 0.152s0.090 0.097 0.146 0.152c0.063 0.055 0.111 0.097 0.146 0.138 0.035 0.035 0.090 0.069 0.174 0.104 0.118 0.035 0.257 0.069 0.41 0.090zM15.139 15.912v0.035c0.014 0.014 0.035 0.014 0.076 0.014 0.014 0 0.021 0 0.021 0.007 0.007 0.007 0.014 0.007 0.021 0.007 0.083 0 0.153 0.035 0.208 0.111 0.083 0.097 0.215 0.131 0.382 0.111 0.063-0.021 0.104-0.048 0.125-0.076 0.021-0.014 0.035-0.021 0.042-0.035s0.021-0.021 0.042-0.035c0.035-0.055 0.076-0.069 0.125-0.048 0.056 0.014 0.097 0.014 0.139 0.014h0.118c0.056-0.021 0.069-0.007 0.049 0.048 0 0.097-0.028 0.187-0.076 0.27-0.014 0.042-0.042 0.090-0.097 0.145-0.097 0.076-0.167 0.159-0.215 0.249s-0.090 0.194-0.118 0.311v0.097c0 0.035 0.014 0.055 0.049 0.062 0.035 0 0.069 0.014 0.111 0.035 0.076 0.021 0.146 0.041 0.215 0.055s0.139 0.035 0.215 0.055c0.063 0.021 0.104 0.035 0.111 0.035 0 0.014 0.007 0.014 0.014 0.014-0.014 0.014-0.021 0.014-0.035 0.014-0.056 0-0.104 0-0.153-0.007s-0.097-0.007-0.153-0.007h-0.326c-0.049 0-0.097 0.007-0.153 0.014-0.056 0.021-0.104 0.021-0.146 0-0.056-0.014-0.104-0.014-0.153-0.014s-0.097-0.007-0.153-0.014h-0.319c0.014-0.014 0.021-0.014 0.035-0.014 0-0.021 0.028-0.041 0.090-0.069 0.056-0.028 0.132-0.048 0.215-0.069 0.035 0 0.076-0.014 0.146-0.035 0.042 0 0.063-0.021 0.063-0.062 0.014-0.104-0.014-0.214-0.076-0.318-0.021-0.035-0.049-0.062-0.076-0.097-0.035-0.035-0.056-0.062-0.076-0.097-0.083-0.104-0.174-0.221-0.257-0.353-0.014-0.055-0.014-0.145-0.014-0.284v-0.069zM16.083 17.738c0.042 0.042 0.083 0.076 0.118 0.111s0.076 0.069 0.118 0.111c0.014 0.014 0.014 0.021 0.014 0.021 0 0.007 0.007 0.014 0.014 0.021 0 0.021-0.014 0.042-0.035 0.062-0.035 0.014-0.076 0.014-0.146 0.014-0.021 0-0.049 0-0.069-0.007-0.028-0.007-0.049-0.007-0.069-0.007-0.076-0.014-0.146-0.014-0.222 0-0.076 0-0.132 0.007-0.174 0.014-0.063 0-0.111-0.007-0.146-0.014-0.042-0.014-0.104-0.035-0.194-0.076-0.035-0.035-0.035-0.048 0-0.048 0.042-0.021 0.069-0.035 0.076-0.048 0.097-0.035 0.194-0.076 0.285-0.145 0.021-0.014 0.049-0.014 0.076-0.014h0.354z"></path>
</svg>
