<!-- Generated by IcoMoon.io -->
<svg version="1.1" xmlns="http://www.w3.org/2000/svg" width="32" height="32" viewBox="0 0 32 32">
<title>token_curse_overlay</title>
<path d="M17.723 0.58l-2.475 1.826c-1.884 1.391-3.039 3.179-3.668 5.067h-0.432c0.084 0.147 0.19 0.316 0.274 0.484 0.002 0.004 0.004 0.007 0.006 0.011-0.013 0.047-0.025 0.094-0.038 0.14-0.018-0.029-0.035-0.059-0.053-0.088-0.105-0.189-0.232-0.358-0.337-0.526h-0.463c0.147 0.232 0.316 0.484 0.463 0.737 0.086 0.138 0.173 0.272 0.259 0.407-0.009 0.039-0.018 0.078-0.026 0.117-0.108-0.159-0.215-0.318-0.317-0.482-0.168-0.274-0.358-0.527-0.547-0.779h-0.484c0.253 0.337 0.484 0.674 0.716 1.011 0.174 0.253 0.357 0.506 0.537 0.758-0.001 0.005-0.002 0.009-0.002 0.014-0.003 0.019-0.005 0.037-0.008 0.056l-0.589-0.786-0.821-1.074h-0.505c0.337 0.442 0.674 0.884 1.011 1.305 0.274 0.358 0.547 0.695 0.821 1.032l0.019-0.019c-0.119 0.96-0.129 1.917-0.057 2.841-0.036 0.651 0.032 1.39 0.184 2.118 0.161 0.768 0.419 1.52 0.754 2.146l0.088 0.261c-0.163 0.152-0.32 0.315-0.474 0.484-0.032 0.029-0.065 0.058-0.097 0.088l-2.373 2.29c-0.277-0.288-0.543-0.599-0.787-0.932-0.999-1.367-1.568-2.94-1.568-3.747v-1.241l0.015-0.015c-0.005-0.001-0.010-0.002-0.015-0.002v-0.105c0.033 0.008 0.067 0.015 0.099 0.023l0.337-0.316-0.084-0.021c-0.117-0.035-0.235-0.064-0.352-0.094v-0.111c0.121 0.035 0.246 0.071 0.373 0.099 0.063 0.021 0.105 0.021 0.147 0.042l0.295-0.295c-0.105-0.042-0.231-0.063-0.337-0.105s-0.231-0.084-0.337-0.105l-0.141 0.141v-3.874l-1.545 5.377-0.040 0.040c0.009 0.001 0.018 0.002 0.028 0.004l-0.050 0.173-0.104-0.008-0.379 0.379 0.373 0.029c-0.014 0.056-0.026 0.112-0.039 0.167-0.173-0.005-0.345-0.007-0.524-0.007l-0.4 0.4c0.288 0 0.556 0.020 0.843 0.021-0.008 0.050-0.015 0.101-0.023 0.151-0.27 0.017-0.526 0.018-0.799 0.018l0.4 0.4c0.12 0 0.235-0.004 0.351-0.008-0.005 0.062-0.010 0.124-0.014 0.186l-0.148 0.012 0.139 0.139c-0.108 2.516 1.033 5.021 2.771 6.893-0.029 0.028-0.059 0.056-0.088 0.084h-0.021v0.547c0.13-0.118 0.253-0.236 0.38-0.354 0.049 0.049 0.096 0.099 0.146 0.147-0.111 0.118-0.227 0.238-0.336 0.354h0.547c0.027-0.028 0.054-0.057 0.081-0.085 1.822 1.642 4.207 2.7 6.68 2.52-0 0.016-0.002 0.033-0.002 0.049l0.379 0.379 0.036-0.47c0.050-0.006 0.099-0.014 0.148-0.021-0.006 0.226-0.016 0.449-0.016 0.66l0.4 0.4c0-0.295 0.021-0.568 0.021-0.863l-0.225-0.225c0.17-0.030 0.341-0.064 0.511-0.106l0.438-0.109 0.055 0.714 0.379-0.379-0.033-0.434 0.151-0.037c0.016 0.109 0.033 0.219 0.050 0.324l0.358-0.358c-0.042-0.253-0.063-0.526-0.105-0.779l-0.358 0.358c0.010 0.122 0.026 0.249 0.043 0.377l-0.424-0.865c-0.74-1.51-0.468-3.095 0.324-4.561 0.795-1.47 2.104-2.72 3.161-3.34l0.080-0.047c0.485-0.229 0.893-0.321 1.213-0.336 0.087-0.004 0.165-0 0.238 0.006 0.012 0.049 0.026 0.092 0.036 0.146 0.135 0.698 0.129 1.655 0.029 2.683h-0c-0.045 0.464-0.108 0.934-0.18 1.397l-0.057 0.057c0.014 0.013 0.027 0.026 0.041 0.039-0.003 0.019-0.006 0.038-0.009 0.057-0.018-0.018-0.035-0.037-0.053-0.054l-0.253 0.253c0.075 0.086 0.154 0.168 0.231 0.252-0.006 0.035-0.012 0.070-0.018 0.104l-0.275-0.315-0.253 0.252c0.144 0.177 0.293 0.354 0.442 0.53-0.009 0.047-0.018 0.088-0.027 0.134-0.157-0.203-0.317-0.403-0.478-0.602l-0.232 0.232 0.62 0.826c-0.008 0.039-0.016 0.079-0.023 0.117-0.21-0.3-0.432-0.6-0.638-0.901l-0.252 0.252c0.211 0.337 0.442 0.652 0.653 0.989 0.045 0.065 0.086 0.125 0.129 0.188-0.012 0.058-0.024 0.109-0.036 0.165-0.060-0.096-0.121-0.192-0.178-0.289-0.211-0.337-0.421-0.652-0.632-0.989l-0.252 0.252c0.189 0.295 0.358 0.611 0.547 0.926 0.126 0.189 0.232 0.358 0.337 0.547h0.081c-0.008 0.037-0.018 0.084-0.026 0.12-0.061 0.276-0.113 0.517-0.153 0.715l-0.976 4.789 2.523-4.186c0.267-0.444 0.552-0.926 0.839-1.437h0.259c-0.053-0.062-0.105-0.122-0.158-0.184 0.034-0.061 0.067-0.122 0.101-0.183 0.118 0.123 0.232 0.244 0.352 0.368h0.568c-0.24-0.248-0.476-0.497-0.713-0.745 0.026-0.048 0.051-0.098 0.076-0.146 0.255 0.241 0.509 0.484 0.764 0.722v-0.568c-0.185-0.178-0.377-0.355-0.566-0.533 0.025-0.048 0.050-0.093 0.074-0.141 0.164 0.141 0.326 0.281 0.492 0.422v-0.526c-0.105-0.091-0.207-0.176-0.31-0.264 0.021-0.044 0.042-0.087 0.064-0.131 0.082 0.068 0.164 0.135 0.247 0.206v-0.505l-0.074-0.056c0.024-0.052 0.047-0.104 0.071-0.156 0.001 0.001 0.002 0.001 0.002 0.002h0.021v-0.055c0.359-0.781 0.69-1.592 0.958-2.422 0.169-0.522 0.313-1.056 0.426-1.595 0.023 0.003 0.045 0.006 0.068 0.008l0.337-0.337-0.33-0.055c0.007-0.041 0.015-0.082 0.022-0.123 0.15 0.021 0.302 0.040 0.455 0.052l0.358-0.358c-0.257-0.040-0.497-0.062-0.752-0.099 0.101-0.752 0.128-1.508 0.055-2.254 0.223-0.036 0.456-0.071 0.675-0.089l-0.358-0.358c-0.119 0.020-0.243 0.034-0.366 0.049-0.007-0.047-0.012-0.095-0.020-0.143 0.081-0.017 0.162-0.033 0.239-0.054l-0.311-0.311c-0.103-0.479-0.251-0.95-0.456-1.41v-0.684h-0.842c-0.060 0-0.12 0.002-0.18 0.003v-0.166c-0.105 0.042-0.19 0.084-0.274 0.126-0.035 0.018-0.069 0.034-0.103 0.051-0.051 0.002-0.102 0.004-0.153 0.007 0.078-0.040 0.155-0.080 0.235-0.12 0.084-0.063 0.19-0.105 0.295-0.169v-0.442c-0.147 0.084-0.316 0.19-0.484 0.274-0.277 0.148-0.539 0.309-0.811 0.461-1.235-0.063-2.877-0.175-3.625-0.31-0.136-0.025-0.285-0.054-0.44-0.086-0.765-0.201-1.519-0.408-2.157-0.655-0.773-0.3-1.268-0.643-1.446-0.921-0.463-0.726-0.525-1.696-0.294-2.87 0.134-0.681 0.366-1.395 0.632-2.109l0.015-0.015c0-0.008-0-0.015-0-0.023 0.062-0.165 0.122-0.33 0.188-0.494-0.002 0.17-0.006 0.34-0.019 0.517l0.4 0.4c0.021-0.295 0.021-0.59 0.021-0.864l-0.302-0.302c0.102-0.251 0.205-0.502 0.31-0.748l1.2-2.833zM16.735 1.832l-0.6 1.417c-0.505 1.193-1.029 2.501-1.269 3.72s-0.195 2.319 0.352 3.178c0.257 0.403 0.861 0.781 1.648 1.087s1.738 0.549 2.64 0.785l1.613 0.423-1.62 0.394c-2.442 0.593-4.835 1.852-6.654 3.557l-0.478 0.448-0.209-0.62c-0.663-1.964-1.012-4.435-0.609-6.874s1.579-4.853 3.947-6.601l1.238-0.913zM16.705 4.632l-0.063 0.821 0.379 0.379 0.063-0.821-0.379-0.379zM17.232 5.158c-0.042 0.274-0.063 0.526-0.105 0.8l0.358 0.358c0.042-0.253 0.084-0.526 0.105-0.8l-0.358-0.358zM14.127 5.641c-1.963 2.825-1.976 6.468-1.227 9.332 1.296-1.055 2.782-1.905 4.352-2.512-0.257-0.082-0.524-0.152-0.767-0.246-0.859-0.334-1.69-0.774-2.154-1.502-0.753-1.181-0.764-2.595-0.498-3.947 0.074-0.375 0.181-0.751 0.293-1.125zM17.716 5.663l-0.126 0.758 0.337 0.337c0.042-0.253 0.105-0.505 0.126-0.758l-0.337-0.337zM18.179 6.126c-0.063 0.232-0.105 0.484-0.168 0.716l0.337 0.316c0-0.021 0.021-0.063 0.021-0.084 0.042-0.211 0.105-0.4 0.147-0.611l-0.337-0.337zM18.642 6.568c-0.063 0.189-0.105 0.358-0.169 0.548-0.021 0.063-0.021 0.105-0.042 0.147l0.294 0.295c0.042-0.105 0.063-0.231 0.105-0.337 0.021-0.126 0.064-0.232 0.127-0.337l-0.316-0.316zM19.021 6.947c-0.042 0.105-0.063 0.19-0.105 0.295l-0.126 0.379 0.295 0.274c0.063-0.189 0.126-0.358 0.19-0.547 0.021-0.021 0.021-0.063 0.042-0.105l-0.295-0.295zM19.421 7.326c0 0.021-0.021 0.042-0.021 0.063-0.084 0.189-0.147 0.379-0.232 0.569l0.273 0.273c0.084-0.232 0.19-0.463 0.295-0.694 0-0.021 0.021-0.042 0.021-0.063h-0.19l-0.147-0.147zM7.653 7.453c0.611 0.674 1.242 1.326 1.853 1.958 0.316 0.316 0.632 0.653 0.947 0.969l0.232-0.232c-0.295-0.316-0.59-0.652-0.905-0.989-0.526-0.568-1.053-1.116-1.579-1.705h-0.547zM23.021 7.453c-0.4 0.463-0.779 0.905-1.158 1.368-0.295 0.337-0.568 0.673-0.842 1.010l0.253 0.253c0.295-0.316 0.589-0.653 0.884-0.99 0.463-0.526 0.926-1.073 1.41-1.642h-0.547zM8.474 7.474c0.463 0.547 0.926 1.074 1.389 1.621l0.884 1.011 0.252-0.252c-0.274-0.337-0.568-0.674-0.842-1.011-0.4-0.463-0.779-0.905-1.137-1.368h-0.547zM19.863 7.474c-0.021 0.042-0.021 0.063-0.042 0.126-0.105 0.232-0.232 0.463-0.337 0.716l0.252 0.252c0.147-0.274 0.295-0.547 0.421-0.821 0.042-0.084 0.084-0.19 0.126-0.274h-0.421zM21.021 7.474c-0.126 0.189-0.232 0.358-0.337 0.547-0.189 0.295-0.358 0.611-0.547 0.926l0.232 0.274c0.211-0.337 0.421-0.653 0.632-0.99 0.168-0.253 0.316-0.505 0.484-0.758h-0.463zM21.632 7.474c-0.189 0.274-0.379 0.526-0.547 0.8-0.211 0.337-0.442 0.652-0.653 0.989l0.252 0.252c0.232-0.337 0.484-0.673 0.716-1.010 0.232-0.358 0.484-0.695 0.716-1.032h-0.484zM22.326 7.474l-0.821 1.074-0.758 1.011 0.232 0.232c0.253-0.337 0.526-0.674 0.8-1.011 0.337-0.442 0.674-0.863 1.053-1.305h-0.505zM23.821 7.474c-0.547 0.547-1.074 1.116-1.6 1.684-0.295 0.337-0.611 0.652-0.905 0.989l0.252 0.253c0.316-0.337 0.632-0.653 0.947-0.968 0.632-0.653 1.263-1.305 1.874-1.958h-0.568zM20.41 7.495c-0.063 0.105-0.105 0.211-0.168 0.316-0.147 0.274-0.295 0.568-0.442 0.842l0.252 0.253c0.189-0.316 0.358-0.611 0.526-0.926 0.105-0.168 0.19-0.337 0.274-0.484h-0.442zM7.484 7.621v0.548c0.568 0.547 1.137 1.074 1.705 1.6 0.337 0.316 0.652 0.61 0.989 0.905l0.232-0.232c-0.337-0.316-0.653-0.632-0.968-0.947-0.653-0.611-1.305-1.242-1.958-1.874zM24.537 7.621c-0.653 0.632-1.305 1.242-1.958 1.874-0.337 0.316-0.653 0.632-0.968 0.947l0.252 0.253c0.337-0.295 0.674-0.611 0.99-0.905 0.568-0.526 1.137-1.053 1.684-1.579v-0.59zM7.463 8.463v0.526c0.442 0.379 0.905 0.779 1.368 1.158 0.337 0.295 0.674 0.568 1.011 0.842l0.252-0.252c-0.337-0.295-0.652-0.589-0.989-0.884-0.526-0.463-1.074-0.927-1.642-1.39zM24.516 8.463c-0.547 0.463-1.074 0.927-1.621 1.39-0.316 0.295-0.652 0.589-0.989 0.884l0.252 0.252c0.337-0.295 0.674-0.568 1.011-0.842 0.463-0.379 0.905-0.758 1.347-1.158v-0.526zM7.463 9.2v0.505l1.074 0.821 1.010 0.758 0.253-0.252c-0.337-0.253-0.674-0.526-1.011-0.8-0.442-0.358-0.863-0.695-1.326-1.032zM24.537 9.242c-0.442 0.337-0.884 0.673-1.305 1.010-0.337 0.253-0.673 0.526-1.010 0.8l0.232 0.252 1.010-0.758 1.074-0.821v-0.484zM7.484 9.895v0.484c0.253 0.189 0.526 0.358 0.8 0.547 0.337 0.232 0.653 0.442 0.99 0.653l0.252-0.252c-0.337-0.232-0.674-0.484-1.011-0.716s-0.694-0.484-1.031-0.716zM24.516 9.916c-0.337 0.253-0.673 0.484-1.010 0.716s-0.674 0.484-1.011 0.716l0.253 0.252c0.337-0.211 0.674-0.442 0.989-0.653 0.274-0.189 0.526-0.379 0.8-0.547h-0.021v-0.484zM24.516 10.526c-0.232 0.147-0.484 0.316-0.737 0.463-0.337 0.211-0.652 0.421-0.989 0.632l0.252 0.253c0.316-0.168 0.632-0.358 0.947-0.547 0.189-0.105 0.358-0.211 0.548-0.316h-0.021v-0.484zM7.484 10.547v0.463c0.189 0.105 0.358 0.232 0.547 0.337 0.316 0.189 0.611 0.358 0.926 0.547l0.252-0.274c-0.316-0.189-0.631-0.4-0.968-0.61-0.253-0.147-0.505-0.316-0.758-0.463zM7.484 11.137v0.463c0.105 0.063 0.211 0.105 0.316 0.169 0.274 0.147 0.568 0.295 0.842 0.442l0.273-0.274c-0.316-0.189-0.611-0.358-0.926-0.526-0.168-0.084-0.337-0.189-0.505-0.273zM7.484 11.705c0.006 0.003 0.014 0.007 0.021 0.010v-0.010h-0.021zM7.505 11.715v0.411c0.021 0.021 0.063 0.042 0.105 0.063 0.232 0.126 0.484 0.232 0.716 0.337l0.252-0.274c-0.274-0.147-0.547-0.295-0.821-0.421-0.078-0.039-0.172-0.078-0.252-0.116zM7.484 12.232v0.232l-0.148 0.105c0.021 0 0.042 0.021 0.063 0.021 0.189 0.084 0.379 0.147 0.568 0.232l0.274-0.274c-0.232-0.084-0.463-0.19-0.695-0.295-0.021 0-0.042-0.021-0.063-0.021zM24.717 12.289h0.421v0.354c0.984 2.13 0.72 4.561-0.022 6.855-0.754 2.332-2.005 4.549-3.028 6.247l-1.261 2.093 0.488-2.394c0.202-0.991 0.75-3.215 0.952-5.3 0.101-1.042 0.112-2.047-0.035-2.804-0.094-0.488-0.248-0.835-0.452-1.074l-1.742 1.021c-1.123 0.659-2.485 1.963-3.318 3.504s-1.151 3.276-0.332 4.947l0.229 0.469-0.507 0.125c-3.031 0.749-6.096-0.618-8.19-2.848s-3.268-5.366-2.435-8.261l0.826-2.873v2.989c0 0.938 0.623 2.592 1.649 3.995 0.945 1.293 2.217 2.342 3.544 2.67 0.437-1.691 1.624-2.965 3.094-3.831 1.604-0.945 3.515-1.462 5.176-1.667l2.001-0.247c-0.096-0.11-0.202-0.199-0.323-0.257-3.206 0.026-6.293 1.313-9.226 2.711l-2.334 1.112 1.86-1.796c3.436-3.317 8.038-5.742 12.965-5.742zM7.274 12.674l-0.316 0.316c0.105 0.042 0.189 0.063 0.294 0.105l0.379 0.127 0.295-0.295c-0.189-0.063-0.379-0.126-0.547-0.19-0.042-0.021-0.084-0.042-0.105-0.063zM24.282 13.359c-2.869 0.090-5.632 1.065-8.096 2.575 1.719-0.579 3.506-0.987 5.366-0.987h0.12l0.112 0.044c0.891 0.352 1.306 1.239 1.482 2.151 0.178 0.923 0.154 2.014 0.049 3.105-0.044 0.456-0.114 0.91-0.182 1.361 0.371-0.792 0.714-1.605 0.982-2.433 0.667-2.060 0.855-4.089 0.168-5.816zM27 14.926l-0.821 0.063 0.379 0.379 0.821-0.063-0.379-0.379zM27.547 15.495c-0.295 0-0.568 0.021-0.863 0.021l0.4 0.4c0.295 0 0.589-0.021 0.863-0.021l-0.4-0.4zM27.084 16.084l-0.4 0.4c0.295 0.021 0.589 0.021 0.863 0.021l0.4-0.4c-0.295 0-0.568-0.021-0.863-0.021zM26.558 16.632l-0.379 0.379 0.821 0.063 0.379-0.379-0.821-0.063zM17.433 18.115c-0.804 0.251-1.596 0.552-2.3 0.967-1.435 0.845-2.475 1.999-2.727 3.545l-0.1 0.613-0.615-0.090c-1.871-0.274-3.46-1.661-4.58-3.193-0.186-0.255-0.336-0.524-0.499-0.789 0.39 1.298 1.096 2.553 2.076 3.596 1.73 1.842 4.128 2.952 6.482 2.658-0.576-1.8-0.195-3.615 0.625-5.13 0.445-0.823 1.027-1.533 1.638-2.177zM9.729 20.371c-0.027 0.055-0.051 0.106-0.077 0.16-0.031-0.027-0.064-0.050-0.095-0.078l0.172-0.082zM20.053 23.116l-0.252 0.252c0.147 0.274 0.295 0.568 0.442 0.842 0.063 0.105 0.126 0.211 0.168 0.316h0.442c-0.084-0.147-0.19-0.316-0.274-0.484-0.168-0.316-0.358-0.61-0.526-0.926zM19.758 23.41l-0.273 0.274c0.105 0.253 0.232 0.484 0.337 0.737 0.021 0.042 0.021 0.063 0.063 0.105h0.421c-0.042-0.105-0.084-0.19-0.126-0.274-0.147-0.295-0.274-0.568-0.421-0.842zM19.421 23.768l-0.274 0.273c0.084 0.189 0.148 0.379 0.232 0.569 0 0.021 0.021 0.042 0.021 0.063l0.147-0.126h0.211c0-0.021-0.021-0.042-0.021-0.063-0.105-0.253-0.211-0.484-0.316-0.716zM19.084 24.084l-0.295 0.295 0.126 0.379c0.042 0.105 0.063 0.19 0.126 0.274l0.295-0.295c-0.021-0.042-0.021-0.063-0.042-0.105-0.084-0.189-0.147-0.358-0.211-0.547zM18.705 24.463l-0.295 0.295c0.021 0.042 0.021 0.105 0.042 0.148 0.063 0.168 0.105 0.358 0.147 0.547l0.316-0.316c-0.042-0.105-0.063-0.232-0.105-0.337s-0.063-0.232-0.105-0.337zM18.326 24.842l-0.316 0.316c0.063 0.232 0.126 0.484 0.147 0.737l0.337-0.337c-0.042-0.211-0.105-0.421-0.147-0.632 0-0.021-0.021-0.063-0.021-0.084zM17.926 25.242l-0.337 0.337c0.042 0.253 0.084 0.505 0.147 0.737l0.337-0.337c-0.042-0.232-0.105-0.484-0.147-0.737zM16.495 26.674l-0.4 0.4c0.021 0.295 0.021 0.568 0.021 0.863l0.4-0.4c0-0.295-0.021-0.569-0.021-0.863z"></path>
</svg>
