<!-- Generated by IcoMoon.io -->
<svg version="1.1" xmlns="http://www.w3.org/2000/svg" width="32" height="32" viewBox="0 0 32 32">
<title>token_curse_fill</title>
<path d="M16.735 1.832l-1.238 0.913c-1.512 1.116-2.536 2.503-3.185 3.995l-0.102 0.102h-5.368v5.368l-0.531 0.531v-0.39l-0.157 0.547-3.102 3.102 2.246 2.246c0.196 1.369 0.744 2.704 1.543 3.888v3.024h3.099c1.099 0.698 2.322 1.171 3.593 1.324l2.466 2.466 3.789-3.789h1.587c-0.019 0.088-0.047 0.212-0.062 0.287l-0.488 2.394 1.261-2.093c0.114-0.189 0.232-0.387 0.35-0.588h2.72v-5.368l3.789-3.789-3.789-3.789v-5.368h-5.368l-3.636-3.636 0.582-1.374zM6.817 19.765l0.025 0.025v0.037c-0.008-0.021-0.017-0.041-0.025-0.062z"></path>
</svg>
