<!-- Generated by IcoMoon.io -->
<svg version="1.1" xmlns="http://www.w3.org/2000/svg" width="32" height="32" viewBox="0 0 32 32">
<title>token_-8_sealed</title>
<path d="M16.427 11.092c-0.776 0-1.443 0.221-1.998 0.662-0.548 0.441-0.821 0.969-0.821 1.582 0.016 0.539 0.102 0.944 0.257 1.214 0.155 0.262 0.315 0.462 0.478 0.601 0.139 0.123 0.27 0.213 0.392 0.27 0.049 0.025 0.074 0.053 0.074 0.086 0 0.025-0.020 0.057-0.061 0.098-0.441 0.327-0.858 0.727-1.251 1.201-0.384 0.474-0.576 0.997-0.576 1.569 0 0.94 0.343 1.68 1.030 2.219s1.516 0.809 2.489 0.809c0.964 0 1.823-0.315 2.575-0.944 0.744-0.621 1.116-1.353 1.116-2.195 0-0.646-0.176-1.234-0.527-1.765-0.36-0.548-0.83-0.96-1.41-1.238-0.172-0.074-0.257-0.139-0.257-0.196 0-0.033 0.012-0.049 0.037-0.049 0.114-0.082 0.2-0.147 0.257-0.196 0.27-0.237 0.503-0.482 0.699-0.736 0.196-0.262 0.294-0.556 0.294-0.883 0-0.556-0.266-1.050-0.797-1.483s-1.189-0.65-1.974-0.65zM16.464 20.765c-0.564 0-1.034-0.212-1.41-0.637-0.4-0.458-0.621-0.981-0.662-1.569v-0.123c-0.008-0.065-0.012-0.106-0.012-0.123 0-0.515 0.127-1.026 0.38-1.532 0.294-0.605 0.646-0.907 1.054-0.907 0.074 0 0.262 0.057 0.564 0.172 0.286 0.114 0.609 0.294 0.969 0.539 0.335 0.229 0.633 0.511 0.895 0.846 0.221 0.294 0.331 0.666 0.331 1.116-0.082 0.842-0.323 1.41-0.723 1.704s-0.862 0.462-1.385 0.503zM16.439 11.668c0.311 0.008 0.642 0.147 0.993 0.417s0.527 0.593 0.527 0.969c0 0.384-0.078 0.727-0.233 1.030-0.163 0.311-0.384 0.49-0.662 0.539-0.327 0-0.764-0.168-1.312-0.503-0.539-0.335-0.809-0.691-0.809-1.067 0-0.384 0.151-0.715 0.454-0.993 0.286-0.262 0.633-0.392 1.042-0.392z"></path>
<path d="M8.885 16.304c-0.003 0-0.005 0.001-0.008 0.001-0.036 0.003-0.072-0.011-0.096-0.038-0.032-0.036-0.039-0.088-0.017-0.131l0.347-0.676c0.016-0.031 0.044-0.055 0.077-0.066 0.012-0.004 0.025-0.006 0.038-0.007 0.006-0 0.011 0 0.016 0 0.092 0.004 0.979 0.046 1.559 0.044s1.469-0.048 1.561-0.053c0.005-0 0.010-0.001 0.016-0 0.028 0.001 0.054 0.013 0.073 0.034 0.009 0.010 0.016 0.021 0.014 0.035-0.014 0.094-0.178 0.433-0.243 0.564-0.017 0.034-0.045 0.062-0.080 0.078-0.021 0.010-0.045 0.015-0.068 0.016-0.002 0-0.004 0-0.006 0-0.058-0-0.901-0.001-1.47 0.032-0.636 0.036-1.643 0.159-1.712 0.168z"></path>
</svg>
