<!-- Generated by IcoMoon.io -->
<svg version="1.1" xmlns="http://www.w3.org/2000/svg" width="32" height="32" viewBox="0 0 32 32">
<title>token_cultist_fill</title>
<path d="M16 3.053l-3.789 3.789h-5.368v5.368l-3.789 3.789 3.789 3.789v0.146c-0.047 0.063-0.088 0.113-0.139 0.185-0.125 0.187-0.241 0.385-0.356 0.583-0.115 0.208-0.209 0.407-0.293 0.615-0.063 0.125-0.115 0.239-0.157 0.354s-0.073 0.219-0.104 0.313c-0.031 0.125-0.042 0.26-0.031 0.406s0.031 0.302 0.083 0.458c0.237 0.661 0.57 1.175 0.997 1.537v0.771h1.153c0.132 0.041 0.28 0.066 0.444 0.066 0.178-0.010 0.356-0.021 0.533-0.021h0.533c0.063 0 0.094-0 0.115-0.021 0.097-0.008 0.179-0.016 0.259-0.024h2.331l3.789 3.789 3.789-3.789h1.885c0.077 0.019 0.15 0.039 0.233 0.055 0.073 0.011 0.167 0.021 0.262 0.021s0.178 0 0.262 0.021c0.366 0.031 0.69 0.031 0.962-0.021 0.090-0.020 0.181-0.047 0.271-0.076h1.494v-0.881c0.037-0.031 0.074-0.063 0.107-0.095 0.094-0.094 0.178-0.208 0.262-0.333 0.146-0.271 0.23-0.541 0.251-0.833 0.031-0.292 0.021-0.583-0.031-0.885-0.084-0.271-0.219-0.573-0.47-0.864-0.037-0.077-0.077-0.151-0.117-0.222v-1.254l3.789-3.789-3.789-3.789v-5.368h-5.368l-3.789-3.789z"></path>
</svg>
