<!-- Generated by IcoMoon.io -->
<svg version="1.1" xmlns="http://www.w3.org/2000/svg" width="32" height="32" viewBox="0 0 32 32">
<title>token_bless_overlay</title>
<path d="M19.821 24.421c-0.105-0.253-0.232-0.484-0.337-0.737l0.274-0.274c0.147 0.274 0.274 0.547 0.421 0.842 0.042 0.084 0.084 0.168 0.126 0.274h-0.421c-0.042-0.042-0.042-0.063-0.063-0.105zM12.137 24.526h-0.421c0.042-0.084 0.084-0.168 0.126-0.274 0.147-0.274 0.274-0.568 0.421-0.842l0.274 0.274c-0.105 0.253-0.232 0.484-0.337 0.737-0.021 0.042-0.042 0.063-0.063 0.105zM12.2 7.579c0.105 0.253 0.232 0.484 0.337 0.737l-0.274 0.274c-0.147-0.274-0.274-0.568-0.421-0.842-0.042-0.084-0.084-0.168-0.126-0.274h0.421c0.021 0.042 0.042 0.063 0.063 0.105zM19.863 7.474h0.421c-0.042 0.084-0.084 0.189-0.126 0.274-0.126 0.274-0.274 0.547-0.421 0.821l-0.253-0.253c0.105-0.253 0.232-0.484 0.337-0.716 0.021-0.063 0.021-0.084 0.042-0.126zM24.537 22.105c-0.337-0.232-0.674-0.463-1.011-0.716-0.337-0.232-0.674-0.484-1.011-0.716l0.253-0.253c0.337 0.211 0.653 0.442 0.989 0.653 0.274 0.168 0.526 0.358 0.8 0.547v0.484zM24.537 12.147c-0.042 0.021-0.063 0.042-0.105 0.042-0.253 0.105-0.484 0.232-0.737 0.337l-0.274-0.274c0.274-0.147 0.547-0.274 0.842-0.421 0.084-0.042 0.168-0.084 0.274-0.126zM24.537 11.6c-0.105 0.063-0.211 0.105-0.295 0.168-0.295 0.147-0.568 0.295-0.863 0.442l-0.253-0.253c0.316-0.168 0.611-0.358 0.926-0.526 0.168-0.084 0.337-0.189 0.484-0.274zM24.537 11.011c-0.189 0.105-0.358 0.211-0.547 0.316-0.316 0.189-0.632 0.379-0.947 0.547l-0.253-0.253c0.337-0.211 0.653-0.421 0.989-0.632 0.253-0.147 0.505-0.316 0.737-0.463v0.484zM24.537 10.4c-0.274 0.168-0.526 0.358-0.8 0.547-0.316 0.211-0.653 0.442-0.989 0.653l-0.253-0.253c0.337-0.232 0.674-0.484 1.011-0.716s0.674-0.463 1.011-0.716v0.484zM24.537 9.726l-1.074 0.821-1.011 0.758-0.232-0.253c0.337-0.274 0.674-0.547 1.011-0.8 0.421-0.337 0.863-0.674 1.305-1.011zM24.537 21.453c-0.253-0.147-0.484-0.316-0.737-0.463-0.337-0.211-0.653-0.421-0.989-0.632l0.253-0.253c0.316 0.189 0.611 0.358 0.926 0.547 0.189 0.105 0.358 0.211 0.547 0.316zM24.537 20.842c-0.168-0.084-0.337-0.189-0.484-0.274-0.316-0.168-0.611-0.337-0.926-0.526l0.253-0.253c0.274 0.147 0.568 0.295 0.842 0.442 0.105 0.063 0.211 0.105 0.295 0.168v0.442zM24.537 20.274c-0.084-0.042-0.168-0.084-0.274-0.126-0.274-0.126-0.547-0.274-0.821-0.4l0.274-0.274c0.232 0.105 0.484 0.211 0.716 0.337 0.042 0.021 0.063 0.021 0.105 0.042zM24.768 18.4c0.042 0.021 0.105 0.021 0.147 0.042 0.189 0.042 0.358 0.105 0.547 0.147l-0.316 0.316c-0.105-0.042-0.232-0.063-0.337-0.105s-0.232-0.063-0.337-0.105zM24.937 18.358c-0.021 0-0.063-0.021-0.084-0.021l0.316-0.337c0.232 0.063 0.484 0.105 0.716 0.168l-0.337 0.337c-0.189-0.042-0.4-0.105-0.611-0.147zM25.253 17.916l0.337-0.337 0.758 0.126-0.337 0.337c-0.253-0.021-0.505-0.084-0.758-0.126zM25.695 17.474l0.358-0.358c0.274 0.042 0.526 0.063 0.8 0.105l-0.358 0.358c-0.274-0.021-0.547-0.063-0.8-0.105zM26.179 17.011l0.379-0.379 0.821 0.063-0.379 0.379zM26.684 16.484l0.4-0.4c0.295 0 0.568 0.021 0.863 0.021l-0.4 0.4c-0.274 0-0.568 0-0.863-0.021zM27.084 15.916l-0.4-0.4c0.295 0 0.568-0.021 0.863-0.021l0.4 0.4c-0.274 0-0.568 0.021-0.863 0.021zM26.558 15.368l-0.379-0.379 0.821-0.063 0.379 0.379zM26.053 14.884l-0.358-0.358c0.253-0.042 0.526-0.063 0.779-0.105l0.358 0.358c-0.253 0.021-0.526 0.063-0.779 0.105zM25.589 14.421l-0.337-0.337c0.253-0.042 0.505-0.105 0.737-0.147l0.337 0.337c-0.232 0.063-0.484 0.105-0.737 0.147zM25.168 14l-0.316-0.316c0.021 0 0.063-0.021 0.084-0.021 0.211-0.042 0.421-0.105 0.632-0.147l0.337 0.337c-0.253 0.021-0.484 0.084-0.737 0.147zM24.916 13.558c-0.042 0.021-0.105 0.021-0.147 0.042l-0.295-0.295c0.105-0.042 0.232-0.063 0.337-0.105s0.232-0.063 0.337-0.105l0.316 0.316c-0.189 0.042-0.358 0.084-0.547 0.147zM24.768 13.095l-0.379 0.126-0.295-0.295c0.189-0.063 0.358-0.126 0.547-0.211 0.042-0.021 0.063-0.021 0.105-0.042l0.295 0.295c-0.084 0.063-0.168 0.084-0.274 0.126zM24.621 12.632c-0.189 0.084-0.379 0.147-0.568 0.232l-0.274-0.274c0.232-0.105 0.463-0.211 0.716-0.316 0.021 0 0.042-0.021 0.063-0.021v0.211l0.147 0.147c-0.042 0.021-0.063 0.021-0.084 0.021zM23.168 10.147c-0.337 0.274-0.674 0.547-1.011 0.842l-0.253-0.253c0.337-0.295 0.674-0.589 0.989-0.884 0.547-0.463 1.074-0.926 1.621-1.389v0.526c-0.442 0.4-0.884 0.779-1.347 1.158zM24.537 8.21c-0.547 0.526-1.116 1.053-1.684 1.579-0.316 0.295-0.653 0.611-0.989 0.905l-0.253-0.253c0.316-0.316 0.632-0.632 0.968-0.947 0.653-0.632 1.305-1.242 1.958-1.874zM22.516 9.432c-0.316 0.316-0.632 0.632-0.947 0.968l-0.253-0.253c0.295-0.337 0.611-0.653 0.905-0.989 0.526-0.568 1.053-1.137 1.6-1.684h0.568c-0.611 0.653-1.242 1.305-1.874 1.958zM22.158 9.095c-0.295 0.337-0.589 0.674-0.884 0.989l-0.253-0.253c0.274-0.337 0.547-0.674 0.842-1.011 0.379-0.463 0.758-0.905 1.158-1.368h0.547c-0.484 0.568-0.947 1.116-1.411 1.642zM21.779 8.779c-0.274 0.337-0.547 0.674-0.8 1.011l-0.232-0.232 0.758-1.011 0.821-1.074h0.505c-0.379 0.442-0.716 0.863-1.053 1.305zM21.4 8.505c-0.232 0.337-0.484 0.674-0.716 1.011l-0.253-0.253c0.211-0.337 0.442-0.653 0.653-0.989 0.168-0.274 0.358-0.526 0.547-0.8h0.484c-0.232 0.337-0.484 0.674-0.716 1.032zM21 8.232c-0.211 0.337-0.421 0.653-0.632 0.989l-0.232-0.274c0.189-0.316 0.358-0.632 0.547-0.926 0.105-0.189 0.211-0.358 0.337-0.547h0.463c-0.168 0.253-0.316 0.505-0.484 0.758zM20.579 7.979c-0.168 0.316-0.337 0.611-0.526 0.926l-0.253-0.253c0.147-0.274 0.295-0.568 0.442-0.842 0.063-0.105 0.105-0.211 0.168-0.316h0.442c-0.084 0.147-0.168 0.316-0.274 0.484zM18.789 7.621l0.126-0.379c0.042-0.105 0.063-0.189 0.105-0.295l0.295 0.295c-0.021 0.042-0.021 0.084-0.042 0.105-0.063 0.189-0.126 0.358-0.189 0.547zM18.832 7.221c-0.042 0.105-0.063 0.232-0.105 0.337l-0.295-0.295c0.021-0.042 0.021-0.084 0.042-0.147 0.063-0.189 0.105-0.358 0.168-0.547l0.316 0.316c-0.063 0.105-0.105 0.211-0.126 0.337zM18.368 7.074c0 0.021-0.021 0.063-0.021 0.084l-0.337-0.316c0.063-0.232 0.105-0.484 0.168-0.716l0.337 0.337c-0.042 0.211-0.105 0.4-0.147 0.611zM17.926 6.758l-0.337-0.337 0.126-0.758 0.337 0.337c-0.021 0.253-0.084 0.505-0.126 0.758zM17.484 6.316l-0.358-0.358c0.042-0.274 0.063-0.526 0.105-0.8l0.358 0.358c-0.021 0.274-0.063 0.547-0.105 0.8zM17.021 5.832l-0.379-0.379 0.063-0.821 0.379 0.379zM16.495 5.326l-0.4-0.4c0.021-0.295 0.021-0.568 0.021-0.863l0.4 0.4c0 0.274 0 0.568-0.021 0.863zM15.926 4.926l-0.4 0.4c0-0.295-0.021-0.568-0.021-0.863l0.4-0.4c0 0.274 0.021 0.568 0.021 0.863zM15.379 5.453l-0.379 0.379-0.063-0.821 0.379-0.379zM14.895 5.958l-0.358 0.358c-0.042-0.253-0.063-0.526-0.105-0.779l0.358-0.358c0.042 0.253 0.063 0.505 0.105 0.779zM14.432 6.421l-0.337 0.337c-0.042-0.253-0.105-0.505-0.147-0.737l0.337-0.337c0.063 0.232 0.105 0.484 0.147 0.737zM14.011 6.842l-0.316 0.316c0-0.042-0.021-0.063-0.021-0.105-0.042-0.211-0.105-0.4-0.147-0.611l0.337-0.337c0.042 0.253 0.084 0.484 0.147 0.737zM13.568 7.095c0.021 0.042 0.021 0.105 0.042 0.147l-0.295 0.295c-0.042-0.126-0.063-0.232-0.105-0.358-0.042-0.105-0.063-0.211-0.105-0.337l0.316-0.316c0.042 0.211 0.084 0.379 0.147 0.568zM13.105 7.221l0.126 0.379-0.295 0.295c-0.063-0.189-0.126-0.358-0.211-0.547-0.021-0.042-0.021-0.063-0.042-0.105l0.316-0.316c0.042 0.126 0.063 0.211 0.105 0.295zM7.484 19.874c0.042-0.021 0.063-0.042 0.105-0.042 0.253-0.105 0.484-0.232 0.737-0.337l0.274 0.274c-0.274 0.147-0.568 0.274-0.842 0.421-0.084 0.042-0.168 0.084-0.274 0.126zM7.484 9.895c0.337 0.232 0.695 0.484 1.032 0.716s0.674 0.484 1.011 0.716l-0.253 0.253c-0.337-0.211-0.653-0.421-0.989-0.653-0.274-0.189-0.547-0.358-0.8-0.547zM7.484 10.547c0.253 0.147 0.505 0.316 0.758 0.463 0.337 0.211 0.653 0.421 0.968 0.611l-0.253 0.274c-0.316-0.189-0.611-0.358-0.926-0.547-0.189-0.105-0.358-0.232-0.547-0.337zM7.484 11.137c0.168 0.084 0.337 0.189 0.505 0.274 0.316 0.168 0.611 0.337 0.926 0.526l-0.274 0.274c-0.274-0.147-0.568-0.295-0.842-0.442-0.105-0.063-0.211-0.105-0.316-0.168zM7.484 11.705c0.084 0.042 0.189 0.084 0.274 0.126 0.274 0.126 0.547 0.274 0.821 0.421l-0.253 0.274c-0.232-0.105-0.484-0.211-0.716-0.337-0.042-0.021-0.084-0.042-0.105-0.063v-0.421zM7.484 20.421c0.105-0.063 0.211-0.105 0.295-0.168 0.295-0.147 0.568-0.295 0.863-0.442l0.253 0.253c-0.316 0.168-0.632 0.358-0.947 0.526-0.168 0.084-0.337 0.189-0.484 0.274v-0.442zM7.484 21.011c0.189-0.105 0.358-0.211 0.547-0.337l0.947-0.568 0.253 0.253c-0.337 0.211-0.653 0.421-0.989 0.632-0.253 0.147-0.484 0.316-0.737 0.463v-0.442zM7.484 21.621c0.274-0.189 0.526-0.358 0.8-0.526 0.337-0.211 0.674-0.442 0.989-0.653l0.253 0.253c-0.337 0.253-0.674 0.484-1.032 0.737-0.337 0.232-0.674 0.463-1.011 0.716zM7.484 22.295c0.358-0.274 0.716-0.547 1.074-0.8 0.337-0.253 0.674-0.505 1.011-0.758l0.232 0.232c-0.337 0.274-0.695 0.547-1.032 0.821-0.421 0.337-0.863 0.674-1.305 1.011v-0.505zM11.758 7.789c0.147 0.295 0.295 0.568 0.442 0.863l-0.253 0.253c-0.168-0.316-0.358-0.632-0.526-0.947-0.084-0.168-0.189-0.337-0.274-0.484h0.442c0.063 0.105 0.105 0.211 0.168 0.316zM11.337 8.021c0.189 0.316 0.379 0.632 0.547 0.947l-0.253 0.253c-0.211-0.337-0.421-0.653-0.632-0.989-0.147-0.253-0.316-0.505-0.463-0.737h0.463c0.105 0.168 0.232 0.337 0.337 0.526zM10.916 8.274c0.211 0.337 0.442 0.653 0.653 0.989l-0.253 0.253c-0.232-0.337-0.484-0.674-0.716-1.011s-0.463-0.674-0.716-1.011h0.484c0.189 0.253 0.379 0.505 0.547 0.779zM10.537 8.547l0.758 1.011-0.253 0.253c-0.274-0.337-0.547-0.674-0.821-1.032-0.337-0.421-0.674-0.863-1.011-1.305h0.505zM10.158 8.842c0.274 0.337 0.568 0.674 0.842 1.011l-0.253 0.253-0.884-1.011c-0.463-0.547-0.926-1.074-1.389-1.621h0.547c0.358 0.463 0.737 0.905 1.137 1.368zM9.779 9.158c0.316 0.337 0.611 0.674 0.905 0.989l-0.232 0.232c-0.316-0.316-0.632-0.653-0.947-0.968-0.611-0.632-1.242-1.284-1.853-1.958h0.547c0.526 0.589 1.053 1.137 1.579 1.705zM9.442 9.495c0.316 0.316 0.632 0.632 0.968 0.947l-0.232 0.232c-0.337-0.295-0.653-0.589-0.989-0.905-0.568-0.526-1.137-1.053-1.705-1.6v-0.547c0.653 0.632 1.305 1.263 1.958 1.874zM9.105 9.853c0.337 0.295 0.653 0.589 0.989 0.884l-0.253 0.253c-0.337-0.274-0.674-0.547-1.011-0.842-0.463-0.379-0.926-0.779-1.368-1.158v-0.526c0.568 0.463 1.116 0.926 1.642 1.389zM8.789 10.232c0.337 0.274 0.674 0.547 1.011 0.8l-0.253 0.253-1.011-0.758-1.074-0.821v-0.505c0.463 0.337 0.884 0.674 1.326 1.032zM7.484 12.463v-0.232c0.021 0 0.042 0.021 0.063 0.021 0.232 0.105 0.463 0.211 0.695 0.295l-0.274 0.274c-0.189-0.084-0.379-0.147-0.568-0.232-0.021 0-0.042-0.021-0.063-0.021zM7.379 12.737c0.168 0.063 0.358 0.126 0.547 0.189l-0.295 0.295-0.379-0.126c-0.105-0.042-0.189-0.063-0.295-0.105l0.316-0.316c0.021 0.021 0.063 0.042 0.105 0.063zM7.211 13.2c0.105 0.042 0.232 0.063 0.337 0.105l-0.295 0.295c-0.042-0.021-0.084-0.021-0.147-0.042-0.189-0.042-0.379-0.105-0.547-0.147l0.316-0.316c0.105 0.021 0.232 0.063 0.337 0.105zM7.084 13.663l0.084 0.021-0.337 0.316c-0.232-0.063-0.484-0.105-0.716-0.168l0.337-0.337c0.211 0.063 0.421 0.105 0.632 0.168zM6.747 14.084l-0.337 0.337-0.758-0.126 0.337-0.337c0.274 0.042 0.505 0.084 0.758 0.126zM6.305 14.526l-0.358 0.358c-0.274-0.042-0.526-0.063-0.8-0.105l0.358-0.358c0.295 0.042 0.547 0.084 0.8 0.105zM5.842 15.011l-0.379 0.379-0.821-0.063 0.379-0.379zM5.316 15.537l-0.4 0.4c-0.295 0-0.568-0.021-0.863-0.021l0.4-0.4c0.295 0 0.568 0 0.863 0.021zM4.937 16.084l0.4 0.4c-0.295 0-0.568 0.021-0.863 0.021l-0.4-0.4c0.295 0 0.568 0 0.863-0.021zM5.484 16.632l0.379 0.379-0.821 0.063-0.379-0.379zM5.968 17.137l0.358 0.358c-0.253 0.042-0.526 0.063-0.779 0.105l-0.358-0.358c0.253-0.042 0.526-0.084 0.779-0.105zM6.432 17.579l0.337 0.337c-0.253 0.042-0.505 0.105-0.737 0.147l-0.337-0.337c0.232-0.042 0.484-0.105 0.737-0.147zM6.853 18l0.316 0.316c-0.042 0-0.063 0.021-0.105 0.021-0.211 0.042-0.4 0.105-0.611 0.147l-0.337-0.337c0.253-0.021 0.505-0.084 0.737-0.147zM7.105 18.463c0.063-0.021 0.105-0.021 0.168-0.042l0.295 0.295c-0.126 0.042-0.232 0.084-0.358 0.105-0.105 0.042-0.211 0.063-0.316 0.105l-0.316-0.316c0.168-0.063 0.337-0.105 0.526-0.147zM7.232 18.926c0.126-0.042 0.274-0.084 0.4-0.126l0.295 0.295c-0.189 0.063-0.379 0.147-0.547 0.211-0.021 0.021-0.063 0.021-0.084 0.042l-0.316-0.316c0.084-0.042 0.168-0.084 0.253-0.105zM7.4 19.368c0.189-0.084 0.4-0.147 0.589-0.232l0.274 0.274c-0.232 0.105-0.484 0.211-0.716 0.316-0.021 0-0.042 0.021-0.063 0.021v-0.232l-0.126-0.126c0 0 0.021 0 0.042-0.021zM8.853 21.874c0.337-0.274 0.674-0.568 1.011-0.842l0.253 0.253-1.011 0.884c-0.547 0.463-1.074 0.926-1.621 1.389v-0.547c0.463-0.379 0.905-0.758 1.368-1.137zM7.484 23.811c0.547-0.526 1.116-1.053 1.684-1.579 0.337-0.316 0.653-0.611 0.989-0.905l0.232 0.232c-0.316 0.316-0.653 0.632-0.968 0.947-0.653 0.632-1.284 1.242-1.958 1.853v-0.547zM9.505 22.568c0.316-0.316 0.632-0.653 0.947-0.968l0.232 0.232c-0.295 0.337-0.611 0.674-0.905 0.989-0.526 0.568-1.053 1.137-1.579 1.684h-0.547c0.589-0.632 1.221-1.284 1.853-1.937zM9.863 22.905l0.884-1.011 0.253 0.253c-0.274 0.337-0.568 0.674-0.842 1.011-0.379 0.463-0.758 0.905-1.158 1.368h-0.547c0.463-0.547 0.926-1.095 1.411-1.621zM10.221 23.221c0.274-0.337 0.547-0.695 0.821-1.032l0.253 0.253-0.758 1.011c-0.274 0.358-0.547 0.716-0.8 1.074h-0.505c0.316-0.442 0.653-0.863 0.989-1.305zM10.6 23.516c0.232-0.337 0.484-0.674 0.716-1.011l0.253 0.253c-0.211 0.337-0.442 0.653-0.653 0.989-0.168 0.274-0.358 0.526-0.547 0.8h-0.484c0.253-0.358 0.484-0.695 0.716-1.032zM11 23.789c0.211-0.337 0.421-0.653 0.632-0.989l0.253 0.253-0.568 0.947c-0.105 0.189-0.211 0.358-0.337 0.547h-0.463c0.168-0.274 0.337-0.505 0.484-0.758zM11.421 24.042c0.168-0.316 0.358-0.632 0.526-0.947l0.274 0.274c-0.147 0.295-0.295 0.568-0.442 0.863-0.063 0.105-0.105 0.211-0.168 0.316h-0.442c0.063-0.189 0.147-0.358 0.253-0.505zM13.232 24.379l-0.126 0.379c-0.042 0.084-0.063 0.189-0.105 0.274l-0.316-0.316c0.021-0.042 0.021-0.063 0.042-0.105 0.063-0.189 0.126-0.358 0.211-0.547zM13.189 24.8c0.042-0.126 0.063-0.232 0.105-0.358l0.295 0.295c-0.021 0.042-0.021 0.105-0.042 0.147-0.042 0.189-0.105 0.358-0.147 0.547l-0.316-0.316c0.042-0.084 0.084-0.211 0.105-0.316zM13.653 24.947c0-0.042 0.021-0.063 0.021-0.105l0.337 0.316c-0.063 0.232-0.105 0.484-0.168 0.716l-0.337-0.337c0.063-0.189 0.105-0.4 0.147-0.589zM14.095 25.242l0.337 0.337-0.126 0.758-0.337-0.337c0.021-0.253 0.084-0.505 0.126-0.758zM14.537 25.684l0.358 0.358c-0.042 0.274-0.063 0.526-0.105 0.8l-0.358-0.358c0.021-0.274 0.063-0.526 0.105-0.8zM15.021 26.168l0.379 0.379-0.063 0.821-0.379-0.379c0-0.274 0.021-0.547 0.063-0.821zM15.526 26.674l0.4 0.4c0 0.295-0.021 0.568-0.021 0.863l-0.4-0.4c0-0.274 0.021-0.568 0.021-0.863zM16.095 27.074l0.4-0.4c0 0.295 0.021 0.568 0.021 0.863l-0.4 0.4c0-0.295 0-0.568-0.021-0.863zM16.642 26.526l0.379-0.379 0.063 0.821-0.379 0.379zM17.147 26.042l0.358-0.358c0.042 0.253 0.063 0.526 0.105 0.779l-0.358 0.358c-0.042-0.253-0.084-0.526-0.105-0.779zM17.589 25.579l0.337-0.337c0.042 0.253 0.105 0.505 0.147 0.737l-0.337 0.337c-0.063-0.232-0.105-0.484-0.147-0.737zM18.011 25.158l0.316-0.316c0 0.021 0.021 0.063 0.021 0.084 0.042 0.211 0.105 0.421 0.147 0.632l-0.337 0.337c-0.021-0.253-0.084-0.505-0.147-0.737zM18.453 24.905c-0.021-0.042-0.021-0.105-0.042-0.147l0.295-0.295c0.042 0.105 0.063 0.232 0.105 0.337s0.063 0.232 0.105 0.337l-0.316 0.316c-0.042-0.189-0.084-0.379-0.147-0.547zM18.916 24.758l-0.126-0.379 0.295-0.295c0.063 0.189 0.126 0.358 0.211 0.547 0.021 0.042 0.021 0.063 0.042 0.105l-0.295 0.295c-0.063-0.084-0.084-0.168-0.126-0.274zM20.242 24.211c-0.147-0.274-0.295-0.568-0.442-0.842l0.253-0.253c0.168 0.316 0.358 0.611 0.526 0.926 0.084 0.168 0.189 0.337 0.274 0.484h-0.442c-0.042-0.105-0.105-0.211-0.168-0.316zM20.663 23.979c-0.189-0.316-0.358-0.632-0.547-0.926l0.253-0.253c0.211 0.337 0.421 0.653 0.632 0.989 0.147 0.253 0.316 0.505 0.463 0.737h-0.463c-0.105-0.189-0.211-0.358-0.337-0.547zM21.084 23.726c-0.211-0.337-0.442-0.653-0.653-0.989l0.253-0.253c0.232 0.337 0.484 0.674 0.716 1.011s0.463 0.674 0.716 1.011h-0.484c-0.189-0.253-0.358-0.505-0.547-0.779zM21.484 23.453l-0.758-1.011 0.232-0.232c0.274 0.337 0.547 0.674 0.8 1.032 0.337 0.421 0.674 0.863 1.011 1.305h-0.505c-0.232-0.379-0.505-0.737-0.779-1.095zM21.863 23.158c-0.274-0.337-0.568-0.674-0.842-1.011l0.253-0.253 0.884 1.011c0.463 0.547 0.926 1.074 1.389 1.621h-0.547c-0.379-0.463-0.758-0.905-1.137-1.368zM22.242 22.842c-0.295-0.337-0.611-0.653-0.905-0.989l0.253-0.253c0.316 0.316 0.632 0.653 0.947 0.968 0.632 0.653 1.242 1.305 1.874 1.958h-0.568c-0.547-0.568-1.074-1.116-1.6-1.684zM22.579 22.505c-0.316-0.316-0.632-0.632-0.968-0.947l0.253-0.253c0.337 0.295 0.653 0.611 0.989 0.905 0.568 0.526 1.137 1.053 1.684 1.579v0.568c-0.653-0.611-1.305-1.242-1.958-1.853zM22.916 22.147l-1.011-0.884 0.253-0.253c0.337 0.274 0.674 0.547 1.011 0.842 0.463 0.379 0.905 0.758 1.368 1.158v0.526c-0.547-0.463-1.074-0.926-1.621-1.389zM23.232 21.768c-0.337-0.274-0.674-0.547-1.011-0.8l0.232-0.232c0.337 0.253 0.674 0.505 1.011 0.758l1.074 0.821v0.505c-0.442-0.379-0.863-0.716-1.305-1.053zM24.537 19.537v0.211c-0.021 0-0.042-0.021-0.063-0.021-0.232-0.105-0.484-0.211-0.716-0.316l0.274-0.274c0.189 0.084 0.379 0.147 0.568 0.232 0.021 0 0.042 0.021 0.063 0.021zM24.642 19.263c-0.189-0.063-0.358-0.126-0.547-0.211l0.295-0.295 0.379 0.126c0.084 0.042 0.189 0.063 0.274 0.105l-0.295 0.295c-0.021 0.021-0.063 0-0.105-0.021zM19.758 7.474c0 0.021-0.021 0.042-0.021 0.063-0.105 0.232-0.211 0.463-0.295 0.695l-0.274-0.274c0.084-0.189 0.147-0.379 0.232-0.568 0-0.021 0.021-0.042 0.021-0.063l0.147 0.147zM12.621 7.326c0 0.021 0.021 0.042 0.021 0.063 0.084 0.189 0.147 0.379 0.232 0.589l-0.274 0.274c-0.105-0.232-0.211-0.484-0.316-0.716 0-0.021-0.021-0.042-0.021-0.063h0.232zM12.263 24.526c0-0.021 0.021-0.042 0.021-0.063 0.105-0.232 0.211-0.484 0.316-0.716l0.274 0.274c-0.084 0.189-0.147 0.379-0.232 0.589 0 0.021-0.021 0.042-0.021 0.063l-0.147-0.147zM19.4 24.674c0-0.021-0.021-0.042-0.021-0.063-0.084-0.189-0.147-0.379-0.232-0.568l0.274-0.274c0.105 0.232 0.211 0.463 0.316 0.716 0 0.021 0.021 0.042 0.021 0.063h-0.211z"></path>
<path d="M4.756 15.051c0.102 0 0.191 0.051 0.279 0.139 0.089 0.101 0.152 0.202 0.191 0.316 0.064 0.139 0.102 0.291 0.14 0.468-0.038 0.19-0.089 0.354-0.14 0.493-0.038 0.114-0.102 0.228-0.191 0.316-0.089 0.101-0.178 0.139-0.279 0.139-0.178 0-0.343-0.051-0.495-0.139-0.152-0.101-0.292-0.202-0.407-0.316-0.14-0.139-0.254-0.304-0.356-0.493 0.102-0.177 0.216-0.329 0.356-0.468 0.114-0.114 0.254-0.228 0.407-0.316s0.318-0.139 0.495-0.139zM7.348 16.544c-0.216 0.025-0.394 0.063-0.559 0.139-0.152 0.076-0.292 0.202-0.394 0.38s-0.165 0.43-0.165 0.759c-0.191-0.101-0.356-0.19-0.495-0.266s-0.254-0.164-0.356-0.266c-0.102-0.101-0.14-0.215-0.14-0.354 0.076 0 0.152-0.025 0.229-0.089 0.064-0.038 0.114-0.114 0.165-0.215s0.089-0.266 0.127-0.481v-0.316c-0.038-0.215-0.089-0.367-0.127-0.481-0.051-0.101-0.102-0.177-0.165-0.215-0.076-0.063-0.152-0.089-0.229-0.089 0-0.114 0.051-0.228 0.14-0.329 0.102-0.101 0.216-0.202 0.356-0.278s0.305-0.164 0.495-0.266c0 0.329 0.051 0.582 0.165 0.759 0.102 0.177 0.241 0.304 0.394 0.38s0.343 0.127 0.559 0.139c0.559-0.038 1.054-0.076 1.474-0.114s0.775-0.076 1.067-0.114c-0.064 0.063-0.114 0.127-0.178 0.202-0.102 0.139-0.178 0.316-0.229 0.519-0.038 0.038-0.038 0.063 0 0.089 0.064 0.253 0.14 0.43 0.229 0.557 0.064 0.076 0.114 0.139 0.178 0.177-0.292-0.038-0.648-0.076-1.067-0.114s-0.915-0.076-1.474-0.114zM24.83 17.354c0.292 0.038 0.47 0.152 0.559 0.329 0.076 0.19 0.101 0.43 0.089 0.747-0.038 0.291-0.102 0.519-0.178 0.696s-0.165 0.316-0.267 0.405c-0.102 0.114-0.216 0.19-0.356 0.228-0.038-0.43-0.102-0.747-0.203-0.962s-0.191-0.367-0.292-0.468c-0.102-0.101-0.203-0.127-0.318-0.089s-0.216 0.101-0.292 0.202c-0.178 0.291-0.445 0.633-0.8 1.012-0.356 0.392-0.889 0.645-1.588 0.784-0.267 0.063-0.546 0.089-0.813 0.089 0 0.291-0.025 0.557-0.089 0.81-0.14 0.696-0.394 1.227-0.788 1.582s-0.724 0.62-1.016 0.797c-0.102 0.076-0.165 0.177-0.203 0.291s-0.013 0.228 0.089 0.316c0.102 0.101 0.254 0.19 0.47 0.291s0.534 0.164 0.966 0.202c-0.038 0.139-0.114 0.253-0.229 0.354-0.102 0.101-0.241 0.19-0.419 0.278-0.191 0.089-0.419 0.139-0.686 0.165-0.318 0.025-0.559-0.013-0.75-0.089s-0.292-0.266-0.33-0.557c-0.076-0.152-0.114-0.354-0.114-0.607s0.025-0.519 0.064-0.785c0.038-0.304 0.089-0.633 0.14-0.961 0.356-0.354 0.61-0.683 0.788-0.987 0.152-0.266 0.229-0.544 0.203-0.81s-0.229-0.481-0.648-0.645c-0.076 0.025-0.14 0.051-0.203 0.089s-0.102 0.076-0.14 0.101c-0.038 0.025-0.076 0.051-0.114 0.076-0.14 0.025-0.267 0.038-0.407 0.063-0.114 0.025-0.254 0.038-0.407 0.038-0.152 0.013-0.318 0.013-0.495 0.013-0.191 0-0.368 0-0.521-0.013s-0.292-0.025-0.407-0.038c-0.14-0.025-0.267-0.038-0.407-0.063-0.076-0.038-0.178-0.101-0.292-0.177l-0.178-0.089c-0.432 0.152-0.648 0.367-0.661 0.645-0.013 0.266 0.064 0.544 0.216 0.81 0.178 0.316 0.432 0.645 0.788 0.987 0.064 0.329 0.102 0.645 0.14 0.961 0.038 0.266 0.051 0.532 0.038 0.785s-0.038 0.455-0.102 0.607c-0.038 0.291-0.14 0.468-0.318 0.557-0.178 0.076-0.432 0.101-0.762 0.089-0.292-0.025-0.521-0.076-0.699-0.165s-0.318-0.177-0.407-0.278c-0.114-0.101-0.191-0.215-0.229-0.354 0.432-0.038 0.75-0.101 0.966-0.202s0.368-0.19 0.47-0.291 0.127-0.202 0.089-0.316c-0.038-0.114-0.102-0.215-0.203-0.291-0.292-0.177-0.635-0.443-1.016-0.797-0.394-0.354-0.648-0.886-0.788-1.582-0.064-0.253-0.089-0.519-0.089-0.81-0.292 0-0.559-0.025-0.813-0.089-0.699-0.139-1.232-0.392-1.588-0.784s-0.623-0.721-0.8-1.012c-0.064-0.101-0.152-0.164-0.28-0.202s-0.241-0.013-0.33 0.089c-0.102 0.101-0.191 0.253-0.292 0.468s-0.165 0.531-0.203 0.962c-0.14-0.038-0.254-0.114-0.356-0.228-0.102-0.101-0.191-0.228-0.28-0.405s-0.14-0.405-0.165-0.696c-0.025-0.304 0.013-0.557 0.089-0.747s0.267-0.291 0.559-0.329c0.152-0.063 0.356-0.089 0.61-0.101s0.521 0 0.788 0.038c0.305 0.038 0.635 0.089 0.966 0.139 0.356 0.354 0.686 0.607 0.991 0.784 0.267 0.152 0.546 0.228 0.813 0.215s0.483-0.228 0.648-0.658l-0.089-0.177c-0.076-0.114-0.14-0.215-0.178-0.291-0.025-0.139-0.038-0.266-0.064-0.405-0.025-0.114-0.025-0.253-0.025-0.405v-1.012c0-0.152 0.013-0.291 0.025-0.405 0.025-0.139 0.038-0.266 0.064-0.405 0.025-0.038 0.038-0.076 0.076-0.114 0.025-0.038 0.064-0.089 0.102-0.139 0.038-0.063 0.064-0.127 0.089-0.202-0.152-0.405-0.368-0.62-0.648-0.645-0.267-0.025-0.546 0.051-0.813 0.202-0.318 0.177-0.648 0.43-0.991 0.784-0.33 0.063-0.648 0.101-0.966 0.139-0.267 0.038-0.534 0.063-0.788 0.063s-0.457-0.038-0.61-0.114c-0.292-0.038-0.483-0.152-0.559-0.329-0.076-0.19-0.102-0.43-0.089-0.747 0.025-0.266 0.076-0.493 0.165-0.683s0.178-0.329 0.28-0.418c0.102-0.114 0.216-0.19 0.356-0.228 0.038 0.43 0.102 0.747 0.203 0.962s0.191 0.367 0.292 0.468c0.102 0.101 0.203 0.127 0.33 0.089s0.216-0.101 0.28-0.202c0.178-0.291 0.445-0.633 0.8-1.012 0.356-0.392 0.889-0.645 1.588-0.784 0.254-0.063 0.521-0.089 0.813-0.089 0-0.266 0.025-0.544 0.089-0.81 0.14-0.696 0.394-1.227 0.788-1.582s0.724-0.62 1.016-0.797c0.102-0.076 0.165-0.177 0.203-0.291s0.013-0.228-0.089-0.316c-0.102-0.101-0.254-0.19-0.47-0.291s-0.534-0.165-0.966-0.202c0.038-0.139 0.114-0.253 0.229-0.354 0.102-0.101 0.229-0.19 0.407-0.266s0.407-0.139 0.699-0.177c0.33-0.025 0.584 0.013 0.762 0.089s0.28 0.266 0.318 0.557c0.064 0.152 0.089 0.354 0.102 0.607s0 0.519-0.038 0.784c-0.038 0.316-0.089 0.633-0.14 0.962-0.356 0.354-0.61 0.683-0.788 0.987-0.152 0.266-0.229 0.544-0.216 0.81s0.229 0.481 0.661 0.645l0.178-0.089c0.038-0.038 0.089-0.063 0.14-0.089 0.064-0.025 0.102-0.051 0.14-0.089 0.14-0.025 0.267-0.038 0.407-0.063 0.114-0.025 0.254-0.038 0.407-0.038 0.152-0.013 0.33-0.013 0.521-0.013 0.178 0 0.343 0 0.495 0.013s0.292 0.025 0.407 0.038c0.14 0.025 0.267 0.038 0.407 0.063 0.064 0.063 0.14 0.114 0.267 0.177 0.064 0.038 0.127 0.063 0.203 0.089 0.407-0.152 0.623-0.367 0.648-0.645 0.025-0.266-0.051-0.544-0.203-0.81-0.178-0.304-0.432-0.645-0.788-0.987-0.064-0.329-0.102-0.645-0.14-0.962-0.038-0.266-0.064-0.531-0.064-0.784s0.038-0.456 0.114-0.607c0.038-0.291 0.152-0.468 0.33-0.557 0.191-0.076 0.432-0.101 0.75-0.089 0.267 0.038 0.495 0.101 0.686 0.177s0.33 0.164 0.419 0.266c0.114 0.101 0.191 0.215 0.229 0.354-0.432 0.038-0.75 0.101-0.966 0.202s-0.368 0.19-0.47 0.291c-0.102 0.101-0.127 0.202-0.089 0.316s0.102 0.215 0.203 0.291c0.292 0.177 0.635 0.443 1.016 0.797 0.394 0.354 0.648 0.886 0.788 1.582 0.064 0.266 0.089 0.544 0.089 0.81 0.267 0 0.546 0.025 0.813 0.089 0.699 0.139 1.232 0.392 1.588 0.784s0.623 0.721 0.8 1.012c0.076 0.101 0.178 0.164 0.292 0.202s0.229 0.013 0.318-0.089c0.101-0.101 0.191-0.253 0.292-0.468s0.165-0.531 0.203-0.962c0.14 0.038 0.254 0.114 0.356 0.228 0.102 0.101 0.191 0.24 0.267 0.418 0.076 0.19 0.14 0.418 0.178 0.683 0.025 0.316-0.013 0.557-0.089 0.747s-0.267 0.291-0.559 0.329c-0.152 0.076-0.356 0.114-0.61 0.114s-0.521-0.025-0.788-0.063c-0.318-0.038-0.635-0.089-0.966-0.139-0.356-0.354-0.686-0.607-0.991-0.784-0.267-0.152-0.546-0.228-0.813-0.202s-0.483 0.228-0.648 0.645c0.025 0.076 0.051 0.139 0.089 0.202 0.064 0.114 0.114 0.202 0.178 0.266 0.025 0.139 0.038 0.266 0.064 0.405 0.025 0.114 0.038 0.253 0.038 0.405 0.013 0.152 0.013 0.316 0.013 0.493 0 0.19 0 0.367-0.013 0.519s-0.025 0.291-0.038 0.405c-0.025 0.139-0.038 0.266-0.064 0.405-0.038 0.038-0.064 0.089-0.089 0.139-0.025 0.063-0.051 0.101-0.089 0.139l-0.089 0.177c0.152 0.43 0.368 0.645 0.648 0.658 0.267 0.013 0.546-0.063 0.813-0.215 0.305-0.177 0.648-0.43 0.991-0.784 0.331-0.063 0.648-0.101 0.966-0.139 0.267-0.038 0.534-0.051 0.788-0.038 0.241 0.013 0.445 0.038 0.61 0.101zM18.198 18.189c0.33-0.215 0.597-0.443 0.788-0.683s0.343-0.481 0.432-0.709c0.102-0.253 0.152-0.519 0.178-0.81-0.025-0.266-0.076-0.531-0.178-0.784-0.102-0.215-0.241-0.443-0.432-0.696s-0.457-0.481-0.788-0.696c-0.216-0.329-0.445-0.595-0.699-0.784s-0.483-0.342-0.699-0.43c-0.254-0.101-0.521-0.152-0.788-0.177-0.292 0.025-0.559 0.076-0.813 0.177-0.229 0.101-0.47 0.24-0.711 0.43s-0.47 0.456-0.686 0.784c-0.356 0.215-0.623 0.443-0.8 0.696-0.191 0.253-0.33 0.481-0.419 0.696-0.102 0.253-0.152 0.519-0.178 0.784 0.025 0.291 0.076 0.557 0.178 0.81 0.102 0.228 0.241 0.468 0.419 0.709 0.191 0.24 0.457 0.468 0.8 0.683 0.216 0.354 0.445 0.62 0.686 0.797 0.241 0.19 0.483 0.329 0.711 0.418 0.254 0.101 0.521 0.152 0.813 0.177 0.267-0.025 0.534-0.076 0.788-0.177 0.216-0.101 0.445-0.24 0.699-0.418s0.483-0.443 0.699-0.797zM15.403 7.358c-0.025-0.19-0.064-0.367-0.14-0.519-0.076-0.139-0.203-0.266-0.381-0.38s-0.432-0.177-0.762-0.177c0.076-0.177 0.165-0.342 0.267-0.493 0.102-0.114 0.191-0.228 0.292-0.329s0.203-0.164 0.318-0.164c0 0.076 0.025 0.152 0.089 0.228 0.038 0.063 0.114 0.114 0.216 0.177s0.267 0.101 0.483 0.114h0.432c0.216-0.025 0.368-0.063 0.483-0.114 0.102-0.063 0.178-0.114 0.216-0.177 0.064-0.076 0.089-0.152 0.089-0.228 0.102 0 0.203 0.051 0.305 0.164 0.102 0.101 0.203 0.215 0.305 0.329 0.102 0.152 0.191 0.316 0.267 0.493-0.33 0-0.584 0.063-0.762 0.177s-0.305 0.24-0.381 0.38c-0.076 0.152-0.127 0.329-0.14 0.519 0.038 0.557 0.076 1.050 0.114 1.48s0.076 0.784 0.114 1.076c-0.064-0.038-0.127-0.089-0.203-0.139-0.064-0.038-0.127-0.076-0.216-0.127s-0.191-0.089-0.305-0.127c-0.076-0.063-0.14-0.063-0.203 0-0.216 0.063-0.394 0.139-0.559 0.266-0.076 0.063-0.14 0.101-0.178 0.139 0.038-0.291 0.076-0.645 0.127-1.076 0.064-0.443 0.089-0.936 0.114-1.493zM16.597 24.642c0.025 0.215 0.064 0.392 0.14 0.557 0.076 0.139 0.203 0.253 0.381 0.367 0.178 0.101 0.432 0.164 0.762 0.164-0.076 0.19-0.165 0.354-0.267 0.493s-0.203 0.253-0.305 0.354c-0.102 0.101-0.203 0.139-0.305 0.139 0-0.076-0.025-0.152-0.089-0.228-0.038-0.063-0.114-0.114-0.216-0.164s-0.267-0.089-0.483-0.127h-0.432c-0.216 0.038-0.368 0.076-0.483 0.127-0.102 0.051-0.178 0.101-0.216 0.164-0.064 0.076-0.089 0.152-0.089 0.228-0.114 0-0.229-0.051-0.318-0.139-0.102-0.101-0.191-0.215-0.292-0.354s-0.191-0.304-0.267-0.493c0.33 0 0.584-0.051 0.762-0.164 0.178-0.101 0.305-0.228 0.381-0.367 0.076-0.152 0.127-0.342 0.14-0.557-0.025-0.557-0.051-1.050-0.102-1.48s-0.089-0.785-0.127-1.076c0.038 0.063 0.102 0.114 0.178 0.177 0.114 0.101 0.305 0.177 0.559 0.228 0.064 0.076 0.127 0.076 0.203 0 0.216-0.063 0.394-0.139 0.521-0.228 0.076-0.063 0.14-0.114 0.203-0.177-0.038 0.291-0.076 0.645-0.114 1.076-0.051 0.43-0.089 0.924-0.127 1.48zM16.013 5.409c-0.191-0.038-0.356-0.089-0.495-0.139-0.114-0.038-0.229-0.101-0.318-0.177-0.102-0.076-0.14-0.177-0.14-0.291 0-0.177 0.051-0.329 0.14-0.481 0.102-0.139 0.203-0.278 0.318-0.392 0.14-0.139 0.305-0.266 0.495-0.38 0.178 0.114 0.33 0.24 0.47 0.38 0.114 0.114 0.229 0.253 0.318 0.392 0.102 0.139 0.14 0.304 0.14 0.481 0 0.114-0.051 0.215-0.14 0.291-0.102 0.076-0.203 0.139-0.318 0.177-0.14 0.051-0.292 0.101-0.47 0.139zM16.013 26.591c0.178 0.038 0.33 0.089 0.47 0.139 0.114 0.038 0.229 0.101 0.318 0.19 0.102 0.088 0.14 0.177 0.14 0.278 0 0.177-0.051 0.342-0.14 0.493-0.102 0.152-0.203 0.291-0.318 0.405-0.14 0.139-0.292 0.253-0.47 0.354-0.191-0.101-0.356-0.215-0.495-0.354-0.114-0.114-0.229-0.253-0.318-0.405-0.102-0.152-0.14-0.316-0.14-0.493 0-0.101 0.051-0.19 0.14-0.278 0.102-0.089 0.203-0.152 0.318-0.19 0.14-0.051 0.305-0.101 0.495-0.139zM26.228 16.215c0.025 0.215 0.063 0.367 0.114 0.481 0.064 0.101 0.114 0.177 0.178 0.215 0.076 0.063 0.152 0.089 0.229 0.089 0 0.114-0.051 0.228-0.165 0.316-0.101 0.101-0.216 0.19-0.33 0.291-0.14 0.101-0.292 0.19-0.47 0.266 0-0.329-0.063-0.582-0.178-0.759s-0.241-0.304-0.381-0.38c-0.178-0.076-0.356-0.127-0.559-0.139-0.559 0.038-1.055 0.076-1.487 0.114s-0.788 0.076-1.080 0.114c0.038-0.038 0.089-0.101 0.14-0.177 0.114-0.152 0.203-0.342 0.267-0.557 0.063-0.063 0.063-0.127 0-0.202-0.038-0.114-0.089-0.215-0.127-0.304-0.051-0.089-0.089-0.165-0.127-0.215-0.064-0.076-0.102-0.139-0.14-0.202 0.292 0.038 0.648 0.076 1.080 0.114s0.928 0.076 1.487 0.114c0.191-0.025 0.381-0.063 0.559-0.139 0.14-0.076 0.267-0.202 0.381-0.38s0.178-0.43 0.178-0.759c0.178 0.076 0.33 0.164 0.47 0.266 0.114 0.101 0.229 0.202 0.33 0.304s0.165 0.202 0.165 0.304c-0.076 0-0.152 0.025-0.229 0.089-0.064 0.038-0.114 0.114-0.178 0.215s-0.102 0.266-0.114 0.481v0.443zM27.244 15.051c0.178 0 0.33 0.051 0.483 0.139 0.14 0.101 0.279 0.202 0.394 0.316 0.14 0.139 0.267 0.291 0.381 0.468-0.114 0.19-0.241 0.354-0.381 0.493-0.115 0.114-0.254 0.228-0.394 0.316-0.14 0.101-0.305 0.139-0.483 0.139-0.115 0-0.216-0.051-0.292-0.139-0.076-0.101-0.14-0.202-0.178-0.316-0.064-0.139-0.102-0.304-0.14-0.493 0.038-0.177 0.089-0.329 0.14-0.468 0.038-0.114 0.101-0.228 0.178-0.316s0.178-0.139 0.292-0.139z"></path>
</svg>
