<!-- Generated by IcoMoon.io -->
<svg version="1.1" xmlns="http://www.w3.org/2000/svg" width="32" height="32" viewBox="0 0 32 32">
<title>token_bless_fill</title>
<path d="M16 3.053l-0.034 0.034-0.169 0.101c-0.216 0.129-0.41 0.277-0.577 0.443-0.147 0.147-0.259 0.303-0.361 0.442l-0.012 0.017-0.011 0.019c-0.037 0.064-0.069 0.134-0.098 0.206l-2.104 2.104c-0.174 0.085-0.32 0.189-0.438 0.304-0.041 0.037-0.079 0.077-0.116 0.119h-5.238v5.222c-0.042 0.035-0.081 0.073-0.118 0.112-0.155 0.142-0.26 0.311-0.354 0.506l-2.008 2.008c-0.111 0.034-0.216 0.079-0.313 0.136-0.191 0.111-0.355 0.246-0.492 0.382h-0c-0.167 0.166-0.306 0.352-0.424 0.557l-0.116 0.202 0.11 0.206c0.116 0.216 0.254 0.418 0.43 0.593h0c0.147 0.147 0.309 0.262 0.47 0.369l0.011 0.007 0.011 0.006c0.085 0.049 0.177 0.089 0.273 0.121l2.036 2.036c0.001 0.003 0.002 0.006 0.004 0.009 0.101 0.201 0.215 0.365 0.349 0.501 0.040 0.044 0.084 0.085 0.131 0.124v5.218h5.242c0.033 0.038 0.068 0.074 0.104 0.108 0.137 0.148 0.295 0.248 0.468 0.338l2.071 2.071c0.031 0.083 0.068 0.164 0.118 0.242 0.11 0.185 0.242 0.346 0.375 0.478v0c0.176 0.175 0.378 0.312 0.595 0.428l0.128 0.068 0.057 0.057 0.018-0.018 0.002 0.001 0.201-0.114c0.206-0.117 0.392-0.256 0.559-0.422v-0c0.147-0.147 0.262-0.308 0.37-0.469l0.007-0.010 0.006-0.011c0.041-0.071 0.075-0.147 0.105-0.225l2.039-2.039c0.007-0.003 0.014-0.005 0.021-0.008l0.010-0.005c0.195-0.097 0.367-0.203 0.516-0.348 0.041-0.037 0.080-0.077 0.117-0.12h5.187v-5.184c0.060-0.046 0.117-0.095 0.168-0.149 0.162-0.149 0.273-0.329 0.361-0.533 0.007-0.016 0.013-0.034 0.019-0.050l1.969-1.969c0.1-0.034 0.199-0.078 0.291-0.143 0.165-0.106 0.32-0.231 0.452-0.362l0-0c0.166-0.166 0.314-0.359 0.445-0.574l0.136-0.225-0.143-0.221c-0.132-0.205-0.28-0.381-0.438-0.538v-0h-0c-0.147-0.147-0.304-0.258-0.444-0.359l-0.017-0.012-0.018-0.011c-0.090-0.052-0.19-0.096-0.295-0.13l-1.945-1.945c-0.003-0.007-0.005-0.014-0.007-0.020l-0.004-0.010c-0.089-0.208-0.202-0.388-0.349-0.537-0.053-0.059-0.115-0.112-0.18-0.161v-5.181h-5.192c-0.033-0.037-0.067-0.073-0.102-0.106-0.145-0.156-0.323-0.267-0.533-0.354l-2.058-2.058c-0.032-0.083-0.071-0.165-0.127-0.243-0.107-0.164-0.232-0.319-0.365-0.451-0.158-0.157-0.335-0.304-0.54-0.436l-0.22-0.141-0.012 0.007-0.009-0.009z"></path>
</svg>
