<!-- Generated by IcoMoon.io -->
<svg version="1.1" xmlns="http://www.w3.org/2000/svg" width="32" height="32" viewBox="0 0 32 32">
<title>token_elder_sign_highlight</title>
<path d="M16.165 14.343c0.020-0.020 0.020-0.030 0.020-0.030 0-0.010 0.010-0.020 0.020-0.030 0.090-0.059 0.179-0.088 0.279-0.088 0.060-0.030 0.12-0.049 0.179-0.049h0.179c0.060 0 0.12 0 0.169-0.010s0.11-0.010 0.169-0.010c0.050 0 0.050-0.029 0.020-0.088l-0.020-0.049v-0.049c0-0.029 0.010-0.049 0.020-0.049h0.020c0.369-0.049 0.718 0.010 1.057 0.157l0.209 0.138c0.060 0.049 0.11 0.098 0.16 0.157 0.080 0.108 0.11 0.275 0.090 0.511s-0.060 0.413-0.14 0.531c-0.060 0.088-0.11 0.147-0.16 0.177-0.080 0.079-0.16 0.147-0.239 0.206s-0.16 0.118-0.239 0.177c-0.12 0.088-0.239 0.177-0.359 0.256-0.11 0.079-0.229 0.157-0.359 0.236-0.11 0.059-0.209 0.098-0.299 0.128-0.090 0.020-0.189 0.049-0.299 0.079h-0.020c-0.020-0.020-0.050-0.020-0.090-0.010-0.050 0.010-0.070 0-0.070-0.010l0.14-0.138c0.080-0.088 0.179-0.197 0.299-0.315s0.219-0.216 0.299-0.295c0.030-0.029 0.060-0.098 0.1-0.216 0.040-0.108 0.060-0.197 0.080-0.236 0.050-0.138 0.040-0.275-0.020-0.433-0.080-0.138-0.169-0.236-0.279-0.295-0.169-0.138-0.349-0.226-0.548-0.275-0.060-0.020-0.12-0.030-0.179-0.049-0.040 0-0.11-0.010-0.189-0.030z"></path>
<path d="M21.089 13.154c-0.11-0.020-0.229-0.020-0.379-0.010s-0.259 0.010-0.359 0.010c-0.060 0.020-0.12 0.020-0.169 0.020s-0.11 0.010-0.169 0.020c-0.169 0-0.309-0.049-0.409-0.138l-0.209-0.206c-0.020 0-0.020-0.020-0.020-0.069 0.080 0 0.15 0 0.229-0.010s0.15-0.020 0.229-0.030c0.080-0.020 0.14-0.020 0.199-0.020 0.050 0 0.11-0.010 0.169-0.020 0.020 0 0.020-0.010 0.020-0.020v-0.020c-0.030-0.020-0.060-0.030-0.090-0.049s-0.060-0.039-0.090-0.069v-0.039c0.030-0.020 0.060-0.020 0.1-0.020s0.070-0.010 0.1-0.020l0.598-0.088c0.199-0.030 0.399-0.059 0.598-0.088 0.15-0.030 0.309-0.059 0.459-0.079s0.309-0.049 0.478-0.079l0.409-0.069c0.060 0 0.080-0.030 0.050-0.088l-0.050-0.049c0-0.030 0.020-0.049 0.070-0.049 0.060-0.030 0.12-0.049 0.169-0.059s0.11-0.030 0.169-0.059c0.439-0.118 0.887-0.236 1.326-0.364 0.439-0.118 0.887-0.236 1.326-0.364 0.030 0 0.090-0.020 0.18-0.049l0.020 0.020v0.030l-0.050 0.049c-0.349 0.315-0.698 0.639-1.057 0.963-0.349 0.324-0.708 0.639-1.076 0.963-0.339 0.285-0.678 0.56-1.017 0.826s-0.688 0.521-1.037 0.777c-0.309 0.206-0.618 0.433-0.937 0.659s-0.638 0.442-0.937 0.659c-0.309 0.206-0.608 0.433-0.907 0.659s-0.598 0.452-0.907 0.678c-0.229 0.177-0.459 0.374-0.678 0.56-0.219 0.197-0.439 0.403-0.648 0.61-0.030 0.020-0.070 0.049-0.11 0.088-0.169 0.118-0.339 0.118-0.508 0-0.050-0.049-0.070-0.108-0.070-0.177 0.020-0.029 0.030-0.059 0.030-0.088 0.010-0.029 0.020-0.059 0.030-0.088l0.11-0.108c0.169-0.206 0.339-0.413 0.518-0.6s0.359-0.383 0.558-0.58c0.080-0.079 0.16-0.157 0.239-0.236s0.169-0.157 0.259-0.236c0.459-0.452 0.927-0.855 1.396-1.219 0.12-0.108 0.239-0.206 0.369-0.305 0.12-0.098 0.239-0.197 0.369-0.305 0.090-0.079 0.179-0.157 0.259-0.236s0.16-0.177 0.239-0.285c0.060-0.138 0.15-0.246 0.279-0.334 0.050-0.049 0.1-0.108 0.16-0.206l0.14-0.275v-0.088z"></path>
<path d="M14.839 13.694c0.020-0.030 0.050-0.039 0.090-0.020 0.030 0 0.060 0.020 0.090 0.049 0.14 0.088 0.279 0.187 0.409 0.295 0.14 0.108 0.269 0.216 0.389 0.334 0.090 0.079 0.169 0.157 0.239 0.256s0.14 0.197 0.219 0.305c0.080 0.118 0.11 0.265 0.11 0.433 0 0.206-0.040 0.442-0.11 0.698-0.020 0.029-0.030 0.069-0.050 0.108-0.020 0.049-0.030 0.088-0.050 0.138-0.020 0.059-0.040 0.138-0.070 0.226-0.030 0.118-0.010 0.256 0.070 0.403 0.030 0.079 0.080 0.157 0.16 0.246 0.020 0.020 0.020 0.029 0.020 0.049v0.020c-0.020 0.020-0.030 0.020-0.050 0.020-0.399 0.029-0.788-0.029-1.176-0.197s-0.718-0.383-0.977-0.668c-0.15-0.147-0.229-0.354-0.229-0.61 0-0.147 0.010-0.265 0.020-0.334 0.090-0.334 0.239-0.629 0.439-0.885 0.020 0 0.030-0.010 0.050-0.020 0 0.020-0 0.020 0.010 0.020s0.010 0.010 0.010 0.020v0.088c0.020 0.079 0.020 0.138 0.020 0.197 0 0.049 0.010 0.118 0.020 0.197 0.020 0.167 0.080 0.305 0.209 0.403 0.050 0.049 0.070 0.049 0.070 0 0.020-0.020 0.020-0.030 0.020-0.049 0.080-0.167 0.13-0.334 0.169-0.511s0.060-0.354 0.060-0.531c0-0.256-0.060-0.472-0.179-0.659 0.020-0.010 0.020-0.020 0-0.020z"></path>
<path d="M18.956 19.131c0.030-0.020 0.050-0.020 0.060-0.010s0.030 0.010 0.060 0.010c0.090 0 0.189 0.010 0.289 0.020 0.1 0.020 0.199 0.029 0.289 0.049 0.309 0.049 0.598 0.108 0.877 0.177 0.279 0.079 0.568 0.157 0.857 0.246 0.020 0.020 0.050 0.020 0.11 0.020h0.050c0-0.029 0-0.049-0.010-0.059s-0.010-0.020-0.010-0.029c-0.15-0.344-0.299-0.688-0.439-1.022s-0.279-0.678-0.439-1.022c-0.080-0.167-0.13-0.285-0.16-0.374-0.030-0.079-0.060-0.157-0.080-0.226s-0.050-0.138-0.090-0.216c-0.040-0.079-0.1-0.187-0.199-0.334 0-0.020 0.020-0.039 0.060-0.069s0.080-0.059 0.14-0.098c0.050-0.039 0.1-0.069 0.15-0.098s0.070-0.049 0.070-0.069c0.030-0.030 0.070-0.049 0.13-0.069 0.050-0.020 0.1-0.039 0.13-0.069s0.070-0.059 0.11-0.088c0.050-0.030 0.080-0.059 0.11-0.088 0.030 0 0.060 0.020 0.090 0.049 0.11 0.118 0.209 0.236 0.319 0.334 0.11 0.108 0.209 0.216 0.319 0.334 0.309 0.344 0.598 0.708 0.897 1.091 0.289 0.383 0.568 0.767 0.827 1.16 0.259 0.364 0.508 0.727 0.728 1.111 0.229 0.374 0.449 0.757 0.668 1.15l1.166 2.104c0.030 0.059 0.050 0.098 0.050 0.108 0 0.029-0.010 0.049-0.020 0.049h-0.209c-0.060 0-0.13-0.020-0.209-0.049-0.179-0.049-0.369-0.098-0.558-0.147s-0.379-0.108-0.558-0.167c-0.349-0.088-0.698-0.187-1.027-0.285-0.339-0.098-0.668-0.197-1.007-0.305s-0.668-0.216-0.997-0.324c-0.329-0.108-0.648-0.236-0.977-0.373-0.309-0.118-0.618-0.236-0.927-0.354-0.309-0.108-0.618-0.226-0.927-0.354-0.608-0.236-1.206-0.482-1.794-0.718s-1.176-0.501-1.754-0.786c-0.379-0.177-0.748-0.364-1.107-0.55s-0.718-0.383-1.087-0.6c-0.12-0.079-0.249-0.147-0.389-0.216s-0.269-0.138-0.389-0.216c-0.030-0.029-0.060-0.049-0.090-0.069s-0.060-0.039-0.090-0.069c-0.12-0.088-0.159-0.206-0.11-0.334 0-0.029 0-0.049 0.010-0.069s0.010-0.029 0.010-0.049c0.020-0.029 0.050-0.049 0.090-0.049l0.14 0.069c0.279 0.118 0.508 0.216 0.688 0.285s0.359 0.128 0.518 0.197c0.159 0.059 0.329 0.128 0.518 0.197 0.179 0.069 0.409 0.167 0.688 0.305 0.309 0.138 0.608 0.256 0.917 0.364s0.618 0.197 0.937 0.275c0.209 0.059 0.439 0.118 0.668 0.167s0.449 0.108 0.668 0.167l0.020-0.020v-0.020l-0.11-0.108v-0.049h0.1l0.050 0.020c0.12 0.029 0.239 0.069 0.369 0.098 0.12 0.039 0.239 0.069 0.369 0.098 0.060 0.020 0.12 0.029 0.179 0.049s0.13 0.029 0.209 0.049c0.030 0.020 0.080 0.020 0.16 0.020v-0.049c0-0.020-0.010-0.029-0.020-0.029-0.070-0.020-0.080-0.039-0.080-0.069h0.020z"></path>
<path d="M14.062 17.302c-0.169 0-0.329-0.010-0.488-0.020-0.159-0.020-0.329-0.039-0.488-0.069-0.169-0.029-0.329-0.079-0.478-0.147s-0.309-0.138-0.459-0.216c-0.030-0.029-0.060-0.049-0.090-0.059s-0.060-0.029-0.090-0.059c-0.030-0.029-0.060-0.059-0.090-0.088l-0.090-0.088c-0.229-0.285-0.239-0.678-0.020-1.17 0.060-0.118 0.13-0.226 0.209-0.315s0.199-0.197 0.369-0.315c0.12-0.079 0.239-0.147 0.369-0.206 0.12-0.059 0.239-0.108 0.369-0.157 0.090-0.030 0.179-0.059 0.279-0.079 0.090-0.020 0.179-0.049 0.249-0.079 0.050-0.020 0.1-0.020 0.15-0.020h0.169c0 0.030-0.010 0.049-0.020 0.049-0.020 0.029-0.050 0.069-0.090 0.108-0.080 0.079-0.159 0.197-0.239 0.364s-0.16 0.285-0.219 0.364c-0.030 0.049-0.060 0.138-0.090 0.275s-0.050 0.275-0.050 0.403c0.030 0.305 0.12 0.521 0.259 0.659 0.15 0.138 0.259 0.226 0.329 0.275l0.339 0.206 0.14 0.069c0.050 0.029 0.070 0.059 0.070 0.088 0.020 0.049 0.040 0.069 0.070 0.069 0.050 0.020 0.090 0.020 0.13 0.020s0.080 0.010 0.13 0.020c0.030 0.020 0.050 0.020 0.060 0.020s0.030 0.010 0.060 0.020v0.020c-0.080 0.029-0.189 0.049-0.339 0.049-0.12 0-0.239 0.010-0.409 0.010z"></path>
<path d="M11.151 11.836c0.020-0.079 0.030-0.147 0.050-0.226s0.040-0.147 0.070-0.226c0.020-0.079 0.030-0.157 0.050-0.236s0.040-0.157 0.070-0.236l0.14-0.472c0.030-0.079 0.050-0.147 0.060-0.226s0.030-0.147 0.060-0.226l0.14-0.472c0.030-0.079 0.050-0.157 0.060-0.236s0.030-0.157 0.060-0.236l0.14-0.472c0.030-0.079 0.050-0.147 0.060-0.226s0.030-0.147 0.060-0.226l0.279-0.944c0.020-0.138 0.050-0.285 0.11-0.452 0.030 0 0.050 0 0.060 0.010s0.020 0.010 0.030 0.010c0.030 0.029 0.050 0.020 0.050-0.049v-0.177c0.020-0.079 0.020-0.187 0.020-0.334 0-0.020 0-0.029 0.010-0.029 0.010-0.010 0.010-0.020 0.010-0.029l0.020-0.020h0.020c0.020 0.020 0.030 0.020 0.050 0.020 0.030 0.088 0.050 0.147 0.070 0.177 0.090 0.197 0.189 0.383 0.289 0.58 0.1 0.187 0.199 0.383 0.289 0.58 0.12 0.206 0.249 0.423 0.389 0.629s0.279 0.413 0.439 0.609c0.349 0.423 0.728 0.786 1.126 1.081 0.030 0.030 0.060 0.049 0.090 0.069 0.020 0.020 0.020 0.030 0.020 0.049-0.020 0.020-0.040 0.020-0.070 0.020h-0.179c-0.020 0-0.020 0.010-0.020 0.020v0.010c0.030 0.020 0.050 0.030 0.060 0.049s0.030 0.030 0.060 0.049c0.469 0.344 0.917 0.688 1.326 1.042 0.488 0.393 0.957 0.796 1.396 1.209s0.877 0.845 1.306 1.298c0.030 0.049 0.060 0.088 0.1 0.128s0.070 0.079 0.1 0.128c0.030 0.030 0.030 0.059 0 0.088-0.050 0.049-0.090 0.088-0.14 0.138s-0.11 0.079-0.179 0.108c-0.050 0.030-0.090 0.030-0.14 0-0.030-0.030-0.060-0.049-0.080-0.069s-0.050-0.029-0.080-0.049c-0.060-0.049-0.11-0.088-0.16-0.138s-0.1-0.079-0.16-0.108c-0.12-0.088-0.239-0.177-0.339-0.256-0.11-0.079-0.219-0.157-0.339-0.236s-0.239-0.147-0.339-0.216c-0.11-0.069-0.219-0.138-0.339-0.216-0.14-0.108-0.279-0.206-0.409-0.295-0.14-0.088-0.279-0.187-0.409-0.295-0.090-0.079-0.179-0.147-0.279-0.216-0.090-0.069-0.179-0.138-0.279-0.216-0.14-0.088-0.269-0.177-0.399-0.256s-0.259-0.167-0.379-0.256h-0.020v0.020l0.14 0.206c0.020 0.030 0.030 0.059 0.050 0.079s0.030 0.049 0.050 0.079v0.020h-0.020c-0.030 0-0.050-0.010-0.050-0.020-0.11-0.059-0.209-0.118-0.309-0.167s-0.199-0.118-0.309-0.197c-0.229-0.118-0.459-0.295-0.688-0.521-0.030-0.020-0.050-0.030-0.060-0.030-0.010-0.010-0.030-0.020-0.060-0.030-0.030 0.030-0.030 0.059 0 0.088 0.030 0.079 0.050 0.157 0.070 0.246s0.040 0.177 0.070 0.246v0.020h-0.050c-0.020 0-0.040-0.020-0.070-0.049l-0.279-0.206c-0.12-0.088-0.209-0.157-0.249-0.197-0.050-0.039-0.11-0.098-0.179-0.167l-0.159-0.157-0.090-0.049c-0.030-0.020-0.080-0.010-0.14 0.020-0.020 0.020-0.040 0.049-0.070 0.108-0.020 0.030-0.030 0.059-0.050 0.088s-0.030 0.059-0.050 0.088c-0.050 0.118-0.090 0.246-0.14 0.383s-0.090 0.265-0.14 0.383c-0.030 0.079-0.050 0.128-0.050 0.167s-0.020 0.098-0.050 0.167c-0.030 0.059-0.070 0.079-0.11 0.049-0.090-0.020-0.239-0.039-0.439-0.069s-0.339-0.049-0.439-0.069c-0.080-0.020-0.11-0.039-0.13-0.059z"></path>
<path d="M14.999 19.917c-0.020 0.020-0.030 0.029-0.030 0.049-0.010 0.020-0.020 0.029-0.030 0.049-0.179 0.256-0.369 0.501-0.548 0.737s-0.369 0.472-0.548 0.708c-0.11 0.118-0.209 0.246-0.299 0.383s-0.179 0.265-0.279 0.383c-0.179 0.285-0.349 0.58-0.488 0.865-0.15 0.295-0.269 0.6-0.379 0.914-0.15 0.423-0.249 0.875-0.299 1.356-0.030 0.138-0.050 0.275-0.050 0.403v0.383c0 0.029-0.010 0.049-0.020 0.069h-0.020c0-0.020-0.010-0.020-0.020-0.020-0.020 0-0.020-0.010-0.020-0.020-0.080-0.108-0.15-0.207-0.219-0.305s-0.14-0.196-0.219-0.305c-0.030-0.059-0.060-0.108-0.090-0.138h-0.020v0.020c0 0.020 0 0.029-0.010 0.049s-0 0.039 0.010 0.069l0.14 0.678c0.030 0.138 0.060 0.275 0.090 0.413 0.030 0.147 0.060 0.285 0.090 0.442 0.020 0.029 0.020 0.079 0.020 0.157 0 0.020 0 0.020-0.010 0.020s-0.010-0.010-0.010-0.020c-0.030 0-0.050-0.010-0.070-0.020-0.030-0.049-0.070-0.088-0.11-0.128-0.050-0.039-0.080-0.079-0.11-0.128-0.080-0.088-0.15-0.187-0.209-0.285s-0.12-0.197-0.179-0.305-0.239-0.432-0.339-0.668c-0.11-0.236-0.209-0.462-0.299-0.688-0.249-0.619-0.439-1.278-0.568-1.986-0.080-0.364-0.12-0.718-0.14-1.062v-0.206c0-0.020 0.020-0.020 0.050-0.020v0.020c0.020 0.029 0.040 0.088 0.070 0.177 0.030 0.108 0.060 0.207 0.1 0.315s0.070 0.216 0.1 0.334c0 0.020 0.020 0.069 0.050 0.157l0.020 0.020c0.030 0.030 0.050 0.020 0.050-0.049 0-0.079-0.010-0.128-0.020-0.157-0.020-0.138-0.030-0.275-0.050-0.403-0.020-0.137-0.020-0.275-0.020-0.403-0.020-0.207-0.030-0.413-0.030-0.6-0.010-0.187-0.010-0.383-0.010-0.6 0.020-0.226 0.030-0.452 0.030-0.678 0.010-0.226 0.020-0.442 0.030-0.659l0.070-0.747c0.020-0.079 0.020-0.157 0.020-0.246s0.010-0.177 0.020-0.246c0.030-0.236 0.060-0.482 0.090-0.718s0.060-0.492 0.090-0.747c0.030-0.206 0.060-0.433 0.090-0.659s0.060-0.442 0.090-0.659c0.050-0.256 0.090-0.511 0.13-0.777s0.080-0.521 0.13-0.777c0-0.030 0.010-0.049 0.020-0.069 0-0.059 0.030-0.088 0.090-0.088 0.030 0.020 0.060 0.020 0.1 0.020s0.070 0.010 0.1 0.020c0.080 0.020 0.179 0.030 0.299 0.030 0.12 0.010 0.219 0.020 0.299 0.029 0.060 0.020 0.080 0.049 0.070 0.108-0.030 0.118-0.050 0.226-0.070 0.324s-0.040 0.206-0.070 0.324c-0.080 0.482-0.13 1.013-0.15 1.593s-0.020 1.101 0.010 1.573c0 0.147 0.010 0.295 0.020 0.442 0.020 0.147 0.030 0.295 0.050 0.462 0 0.118 0 0.236 0.010 0.334 0.010 0.108 0.020 0.216 0.030 0.334 0.020 0.118 0.030 0.226 0.030 0.324 0.010 0.098 0.020 0.197 0.030 0.305 0.020 0.138 0.030 0.275 0.050 0.413 0.020 0.147 0.030 0.285 0.050 0.413 0 0.020-0 0.020-0.010 0.020s-0.010 0.010-0.010 0.020l-0.050-0.020c-0.030-0.020-0.070-0.049-0.11-0.088l-0.040 0.039v0.020c0.030 0.088 0.060 0.177 0.080 0.256s0.050 0.167 0.080 0.256c0.030 0.029 0.060 0.029 0.090 0 0.020-0.029 0.050-0.069 0.090-0.108 0.11-0.147 0.209-0.295 0.309-0.433s0.209-0.275 0.329-0.433c0.169-0.197 0.329-0.393 0.478-0.59s0.309-0.393 0.478-0.59l0.14-0.108c0.030-0.029 0.1 0.010 0.199 0.108 0.1 0.108 0.159 0.177 0.199 0.206 0.15 0.118 0.309 0.226 0.459 0.324s0.309 0.206 0.459 0.324c0 0.098 0.020 0.118 0.050 0.157z"></path>
<path d="M7.951 13.311c0.050 0.049 0.090 0.088 0.14 0.138s0.090 0.079 0.14 0.108c0.090 0.088 0.159 0.147 0.209 0.177 0.080 0.079 0.15 0.147 0.219 0.206s0.14 0.128 0.219 0.206c0.12 0.118 0.239 0.216 0.359 0.295 0.11 0.079 0.229 0.177 0.359 0.295 0.080 0.079 0.159 0.138 0.259 0.177 0.1 0.049 0.189 0.108 0.259 0.177 0.14 0.108 0.189 0.246 0.159 0.403-0.020 0.029-0.030 0.098-0.050 0.197s-0.020 0.157-0.020 0.197c-0.020 0.059-0.030 0.118-0.050 0.167s-0.030 0.108-0.050 0.167h-0.050c-0.020 0-0.040-0.020-0.070-0.049-0.379-0.256-0.748-0.521-1.107-0.786-0.359-0.275-0.708-0.56-1.037-0.885-0.658-0.59-1.216-1.219-1.695-1.897-0.469-0.659-0.837-1.396-1.097-2.192-0.030-0.088-0.050-0.147-0.050-0.177-0.020-0.020-0.010-0.030 0.010-0.049s0.050-0.020 0.080-0.020c0.090 0.030 0.16 0.059 0.209 0.088 0.020 0.020 0.030 0.020 0.050 0.020 0.169 0.138 0.349 0.256 0.548 0.364s0.409 0.206 0.618 0.295c0.14 0.059 0.279 0.108 0.409 0.157s0.279 0.088 0.439 0.138c0.399 0.118 0.788 0.236 1.176 0.334 0.389 0.108 0.778 0.216 1.176 0.334 0.279 0.079 0.548 0.147 0.837 0.206 0.279 0.059 0.568 0.108 0.857 0.138 0.15 0.030 0.309 0.049 0.459 0.069s0.309 0.030 0.478 0.049l0.548 0.069c0.179 0.030 0.359 0.049 0.538 0.069s0.349 0.039 0.518 0.069c0.090 0.020 0.179 0.030 0.279 0.030 0.090 0.010 0.179 0.010 0.279 0.010 0.080 0.020 0.15 0.020 0.229 0.020s0.15 0.010 0.229 0.020 0.309 0.030 0.459 0.030c0.15 0.010 0.309 0.010 0.459 0.010 0.090 0.020 0.189 0.029 0.289 0.029 0.1 0.010 0.199 0.010 0.289 0.010 0.060 0 0.14 0.020 0.229 0.049 0.080 0.020 0.15 0.059 0.229 0.138s0.15 0.147 0.209 0.226c0.060 0.079 0.13 0.147 0.209 0.226l-0.020 0.049c-0.030 0-0.050 0-0.070 0.010s-0.040 0.010-0.070 0.010c-0.459 0-0.917 0-1.386 0.010s-0.927 0-1.386-0.030c-0.179 0-0.369 0-0.548-0.010s-0.369-0.020-0.548-0.030c-0.12-0.020-0.239-0.030-0.359-0.030-0.11-0.010-0.229-0.020-0.359-0.030-0.080-0.020-0.15-0.020-0.229-0.020s-0.15-0.010-0.229-0.020c-0.379-0.049-0.758-0.098-1.126-0.157s-0.728-0.138-1.097-0.226c-0.169-0.029-0.329-0.069-0.469-0.108-0.15-0.049-0.299-0.088-0.469-0.138-0.030 0-0.060 0-0.090-0.010s-0.060-0.010-0.090-0.010l-0.020 0.020v0.020l0.090 0.049c0.169 0.059 0.339 0.118 0.518 0.177s0.349 0.118 0.518 0.177c0.050 0.030 0.1 0.049 0.15 0.069s0.11 0.039 0.169 0.069v0.020c0 0.020-0.010 0.020-0.020 0.020-0.11 0-0.209 0-0.299-0.010s-0.179-0.020-0.279-0.029l-0.827-0.069c-0.030 0-0.050 0.010-0.070 0.020h-0.020v0.020l0.14 0.069c0.030 0.030 0.080 0.059 0.14 0.088 0.020 0.020 0.020 0.030 0.020 0.049l-0.020 0.020c-0.179 0.029-0.349 0.020-0.508-0.020-0.080-0.030-0.15-0.049-0.229-0.069s-0.15-0.039-0.229-0.069h-0.090c-0.030 0.010-0.010 0.039 0.020 0.069z"></path>
</svg>
