<!-- Generated by IcoMoon.io -->
<svg version="1.1" xmlns="http://www.w3.org/2000/svg" width="32" height="32" viewBox="0 0 32 32">
<title>token_0_sealed</title>
<path d="M15.817 11.141c-0.907 0-1.79 0.503-2.648 1.508s-1.287 2.211-1.287 3.617c0 1.414 0.417 2.624 1.251 3.629s1.733 1.508 2.697 1.508c0.973 0 1.876-0.462 2.709-1.385 0.834-0.915 1.255-2.166 1.263-3.751 0-1.577-0.429-2.82-1.287-3.727-0.866-0.932-1.757-1.398-2.673-1.398zM15.792 11.901c0.727 0 1.279 0.405 1.655 1.214 0.327 0.678 0.49 1.549 0.49 2.611v0.27c-0.008 0.106-0.012 0.2-0.012 0.282-0.074 1.316-0.294 2.366-0.662 3.151s-0.858 1.201-1.471 1.25c-0.629 0-1.152-0.417-1.569-1.25-0.376-0.801-0.564-1.712-0.564-2.734 0-0.025 0.004-0.090 0.012-0.196v-0.221c0.049-1.21 0.233-2.244 0.552-3.102s0.838-1.291 1.557-1.3z"></path>
</svg>
