<!-- Generated by IcoMoon.io -->
<svg version="1.1" xmlns="http://www.w3.org/2000/svg" width="32" height="32" viewBox="0 0 32 32">
<title>token_tablet_fill</title>
<path d="M16 3.053l-3.789 3.789h-5.368v5.368l-3.789 3.789 3.789 3.789v5.368h1.558c-0 0 0.001 0.001 0 0.002 0.084 0.153 0.090 0.303 0.021 0.433l-0.016 0.1-0.007 0.046c-0.001 0.009-0.003 0.018 0.016 0.021l0.192 0.030c0.398 0.062 0.701 0.015 0.813-0.020 0.030-0.009 0.047-0.018 0.048-0.023 0.067 0.011 0.125 0.020 0.164 0.016 0.038 0.006 0.088 0.004 0.148-0.005 0.086 0.013 0.163 0.026 0.223 0.016 0.593 0.093 1-0.064 1.735 0.271l0.134 0.021c0.078 0.003 0.147 0.004 0.194 0.012s0.096 0.015 0.147 0.005c0.030-0.005 0.060-0.009 0.099-0.003 0.029 0.004 0.067 0.010 0.099-0.003 0.019 0.003 0.029 0.004 0.051-0.011 0.033-0.023 0.055-0.038 0.067-0.055s0.033-0.023 0.065-0.036c0.071-0.017 0.177-0 0.307 0.048l0.057 0.074c0.024 0.032 0.050 0.055 0.079 0.059 0.049-0.002 0.089-0.005 0.137 0.003 0.014 0.002 0.027 0.003 0.041 0.005l2.785 2.785 3.789-3.789h5.368v-5.368l3.789-3.789-3.789-3.789v-5.368h-2.512c-0.051-0.056-0.103-0.109-0.161-0.155l-0.009-0.007-0.256-0.181-0.011-0.007c-0.042-0.026-0.091-0.060-0.15-0.097-0.096-0.068-0.16-0.097-0.234-0.146l-0.010-0.006c-0.22-0.136-0.414-0.259-0.581-0.367l-0.007-0.005-0.008-0.005c-0.098-0.058-0.197-0.11-0.304-0.152l-0.008-0.003c-0.084-0.031-0.145-0.056-0.199-0.083-0.012-0.006-0.068-0.021-0.089-0.032l-0.054-0.049-0.163-0.026-0.019-0.001c-0.054-0.003-0.051-0.003-0.082-0.023l-0.076-0.050-0.090-0.014c-0.161-0.025-0.307-0.027-0.456 0.020l0.024-0.007c-0.008 0.002-0.047 0.005-0.067 0.002l-0.375-0.059c-0.101-0.016-0.192-0.050-0.372-0.009l-0.022 0.005-0.021 0.007c-0.089 0.030-0.155 0.030-0.229 0.005l-0.033-0.011-0.231-0.036-0.032-0c-0.007-0-0.016-0-0.023-0l-2.297-2.297zM19.176 6.229l0.33 0.052c0.015 0.002 0.028 0.003 0.043 0.005 0.033 0.098 0.058 0.191 0.058 0.266-0.016 0.016-0.034 0.038-0.051 0.056l-0.379-0.379zM19.928 6.26c0.004 0 0.011 0.001 0.023 0.001 0.104 0.046 0.213 0.068 0.313 0.080 0.010 0.002 0.021 0.005 0.031 0.008 0.011 0.001 0.024 0.010 0.034 0.011l-0.014-0.002c0.015 0.003 0.060 0.029 0.064 0.030-0.12-0.019-0.083-0.025-0.057-0.012 0.1 0.052 0.194 0.088 0.286 0.122 0.052 0.020 0.109 0.049 0.182 0.093 0.116 0.075 0.258 0.164 0.397 0.251h-1.398l-0.058-0.058 0.165-0.233c0.017-0.068 0.032-0.172 0.032-0.291zM20.291 6.356l0.018 0.003-0.002-0.001-0.016-0.002z"></path>
</svg>
