<!-- Generated by IcoMoon.io -->
<svg version="1.1" xmlns="http://www.w3.org/2000/svg" width="32" height="32" viewBox="0 0 32 32">
<title>token_1_highlight</title>
<path d="M11.799 14.391l0 0.001c0.009 0.076 0.118 0.963 0.179 1.711-0.584-0.015-1.161-0.042-1.248-0.046-0.001-0-0.001-0-0.002-0-0.007-0-0.014-0.001-0.021-0-0.016 0.001-0.031 0.003-0.046 0.008-0.041 0.014-0.076 0.043-0.096 0.082l-0.429 0.837c-0.027 0.053-0.019 0.118 0.021 0.163 0.030 0.033 0.074 0.051 0.118 0.048 0.004-0 0.007-0.001 0.010-0.001l0.001-0c0.077-0.009 0.987-0.121 1.741-0.182 0.019 0.615 0.018 1.262 0.018 1.32v0.001c0 0.003 0 0.005 0 0.008 0.001 0.029 0.008 0.058 0.020 0.084 0.020 0.043 0.054 0.078 0.097 0.099 0.163 0.081 0.582 0.285 0.699 0.301 0.016 0.002 0.031-0.006 0.043-0.018 0.025-0.023 0.040-0.055 0.042-0.089 0-0.007 0-0.014-0-0.020-0-0.001-0-0.002-0-0.002-0.006-0.11-0.053-1.027-0.063-1.731 0.623-0.019 1.286-0.019 1.345-0.019l0.001 0c0.003 0 0.005 0 0.008-0 0.029-0.001 0.058-0.008 0.084-0.020 0.043-0.020 0.078-0.054 0.099-0.097 0.081-0.163 0.285-0.582 0.301-0.699 0.002-0.016-0.006-0.031-0.018-0.043-0.023-0.025-0.055-0.040-0.089-0.041-0.007-0-0.014-0-0.020 0-0.001 0-0.002 0-0.002 0-0.109 0.006-1.003 0.052-1.702 0.063 0.014-0.593 0.042-1.187 0.046-1.275l0-0.002c0-0.007 0.001-0.014 0-0.021-0.001-0.016-0.004-0.031-0.008-0.046-0.014-0.041-0.043-0.076-0.082-0.096l-0.837-0.429c-0.053-0.027-0.118-0.019-0.163 0.021-0.033 0.030-0.051 0.074-0.048 0.118 0 0.004 0.001 0.007 0.001 0.010z"></path>
<path d="M12.056 14.148c-0.092-0.047-0.204-0.033-0.281 0.037-0.058 0.052-0.088 0.127-0.082 0.204v0.001c0.001 0.006 0.001 0.011 0.002 0.014v0.001c0.009 0.070 0.104 0.881 0.167 1.588-0.521-0.015-1.048-0.037-1.125-0.041h-0.002c0 0-0.001 0-0 0h-0.001c-0.007-0-0.016-0.001-0.028-0h-0c-0.025 0.001-0.051 0.006-0.075 0.014-0.067 0.023-0.123 0.071-0.156 0.134l-0.429 0.837c-0.047 0.092-0.033 0.204 0.037 0.281 0.052 0.058 0.127 0.087 0.204 0.082 0.006-0 0.011-0.001 0.015-0.001l0.001-0h0c0.072-0.009 0.907-0.107 1.624-0.169 0.014 0.561 0.017 1.151 0.016 1.204v0.001c0 0.003-0 0.007 0 0.012 0.001 0.043 0.012 0.086 0.030 0.125 0.030 0.064 0.081 0.117 0.145 0.149 0.082 0.041 0.228 0.112 0.37 0.176 0.071 0.032 0.141 0.063 0.202 0.086s0.109 0.042 0.159 0.049c0.061 0.009 0.107-0.024 0.13-0.046 0.045-0.042 0.072-0.099 0.075-0.16v-0c0.001-0.014-0-0.025-0-0.032v-0c-0-0-0-0.001-0-0.002v-0c-0.005-0.104-0.046-0.943-0.059-1.621 0.572-0.015 1.176-0.017 1.233-0.017h0.004c0.003 0 0.007 0 0.011 0 0.043-0.001 0.086-0.011 0.126-0.030 0.064-0.030 0.117-0.081 0.149-0.145 0.041-0.082 0.112-0.228 0.176-0.37 0.032-0.071 0.063-0.14 0.086-0.201s0.042-0.109 0.049-0.159c0.009-0.061-0.024-0.107-0.046-0.13-0.042-0.045-0.099-0.071-0.16-0.074h-0c-0.014-0.001-0.025 0-0.032 0h-0c0.001-0-0-0-0.002 0h-0c-0.102 0.005-0.916 0.045-1.587 0.059 0.015-0.536 0.038-1.081 0.042-1.16v-0.002c0-0.007 0.001-0.017 0-0.030v-0c-0.001-0.025-0.005-0.051-0.014-0.075-0.023-0.067-0.071-0.123-0.134-0.156l-0.837-0.429zM11.96 14.336l0.837 0.429c0.014 0.007 0.025 0.020 0.030 0.036 0.002 0.005 0.003 0.011 0.003 0.017 0 0.002-0 0.005-0 0.011v0.002c-0.004 0.088-0.032 0.682-0.046 1.277l-0.003 0.11 0.11-0.002c0.703-0.011 1.596-0.057 1.706-0.063h0c-0.001 0 0 0 0.002 0 0.005-0 0.005-0 0.006-0-0.006 0.021-0.010 0.039-0.025 0.077-0.022 0.055-0.051 0.122-0.082 0.191-0.062 0.138-0.133 0.282-0.173 0.363-0.010 0.021-0.028 0.038-0.050 0.048-0.013 0.006-0.028 0.009-0.042 0.010-0.001 0-0.002 0-0.004 0h-0.002c-0.059-0-0.724-0-1.349 0.019l-0.104 0.003 0.002 0.104c0.010 0.707 0.057 1.624 0.063 1.735v0c0 0.001-0 0.002 0 0.002 0 0.004 0 0.005 0 0.006-0.021-0.006-0.039-0.010-0.076-0.025-0.055-0.022-0.123-0.051-0.192-0.082-0.138-0.062-0.282-0.133-0.363-0.173-0.021-0.010-0.038-0.028-0.048-0.050-0.006-0.013-0.009-0.028-0.010-0.042-0-0.001 0-0.003 0-0.005v-0c0-0.059 0.001-0.706-0.018-1.324l-0.004-0.111-0.11 0.009c-0.757 0.061-1.667 0.172-1.745 0.182h-0.001c-0.003 0-0.005 0.001-0.005 0.001-0.012 0.001-0.024-0.004-0.032-0.013-0.011-0.012-0.013-0.029-0.006-0.044l0.429-0.837c0.007-0.014 0.020-0.025 0.035-0.030 0.005-0.002 0.011-0.003 0.017-0.003 0.001-0 0.005 0 0.012 0h0.001c-0.002-0-0.001-0 0.002 0 0.088 0.004 0.664 0.031 1.248 0.046l0.117 0.003-0.009-0.117c-0.061-0.751-0.17-1.638-0.18-1.715v-0.001c-0-0.003-0.001-0.005-0.001-0.005l0 0c-0.001-0.012 0.004-0.024 0.013-0.032 0.012-0.011 0.030-0.013 0.044-0.006z"></path>
<path d="M15.956 13.601c0.025-0.017 0.062-0.025 0.112-0.025 0.058 0 0.099 0.008 0.124 0.025 0.083 0.025 0.132 0.083 0.149 0.174v2.049c0 0.182 0.004 0.377 0.012 0.584v0.484c0 0.878-0.025 1.536-0.075 1.975-0.058 0.588-0.141 0.985-0.248 1.192-0.099 0.19-0.203 0.294-0.311 0.311-0.116 0.008-0.203 0.137-0.261 0.385v0.025c-0.008 0.017-0.012 0.029-0.012 0.037 0 0.066 0.070 0.099 0.211 0.099 0.199-0.025 0.435-0.050 0.708-0.075s0.509-0.037 0.708-0.037c0.273 0 0.493 0.004 0.658 0.012 0.19 0.008 0.414 0.029 0.671 0.062 0.132 0 0.199-0.054 0.199-0.161 0-0.182-0.046-0.273-0.137-0.273-0.008 0.008-0.021 0.012-0.037 0.012s-0.033 0.004-0.050 0.012c-0.083 0-0.17-0.066-0.261-0.199-0.116-0.166-0.211-0.538-0.286-1.118-0.041-0.273-0.070-0.642-0.087-1.105-0.017-0.472-0.025-1.118-0.025-1.938v-2.534c0-0.662 0.004-1.143 0.012-1.441s0.012-0.621 0.012-0.969c0.058-0.124 0.087-0.236 0.087-0.335 0-0.166-0.062-0.253-0.186-0.261l-0.037-0.012h-0.050c-0.075 0-0.161 0.021-0.261 0.062-0.041 0.025-0.091 0.091-0.149 0.199-0.116 0.215-0.269 0.484-0.46 0.807l-0.012 0.025c-0.133 0.232-0.311 0.48-0.534 0.745-0.19 0.232-0.46 0.455-0.807 0.671-0.331 0.207-0.6 0.402-0.807 0.584-0.041 0.041-0.087 0.116-0.137 0.224-0.025 0.025-0.037 0.058-0.037 0.099 0 0.083 0.070 0.17 0.211 0.261 0.033 0.033 0.104 0.050 0.211 0.050h0.062c0.033-0.008 0.058-0.012 0.075-0.012 0.066-0.017 0.116-0.041 0.149-0.075l0.075-0.075c0.116-0.099 0.24-0.186 0.373-0.261 0.091-0.050 0.219-0.124 0.385-0.224z"></path>
</svg>
