<!-- Generated by IcoMoon.io -->
<svg version="1.1" xmlns="http://www.w3.org/2000/svg" width="32" height="32" viewBox="0 0 32 32">
<title>token_cultist_overlay</title>
<path d="M15.905 4.063l-0.4 0.4c0 0.295 0.021 0.569 0.021 0.864l0.4-0.4c0-0.295-0.021-0.589-0.021-0.863zM16.116 4.063c0 0.295-0 0.568-0.021 0.863l0.4 0.4c0.021-0.295 0.021-0.59 0.021-0.864l-0.4-0.4zM15.316 4.632l-0.379 0.379 0.047 0.611c0.040-0.024 0.079-0.047 0.127-0.071l0.052-0.052c0.021 0 0.031 0 0.031-0.010 0.010-0.010 0.021-0.011 0.032-0.011 0.051-0.018 0.101-0.031 0.152-0.045l-0.062-0.801zM16.705 4.632l-0.058 0.762c0.103 0.047 0.182 0.088 0.231 0.136 0.052 0.052 0.104 0.093 0.136 0.146 0.006 0.003 0.012 0.007 0.018 0.010l0.052-0.675-0.379-0.379zM17.232 5.158c-0.031 0.203-0.053 0.396-0.078 0.593 0.076 0.043 0.151 0.087 0.216 0.133 0.056 0.036 0.111 0.075 0.164 0.112 0.023-0.158 0.043-0.318 0.056-0.481l-0.358-0.358zM14.789 5.179l-0.358 0.358c0.023 0.14 0.041 0.286 0.058 0.433 0.082-0.090 0.204-0.181 0.37-0.277-0.022-0.175-0.042-0.346-0.070-0.514zM17.716 5.663l-0.069 0.411c0.019 0.014 0.037 0.025 0.057 0.039 0.102 0.079 0.201 0.16 0.298 0.241 0.022-0.118 0.041-0.236 0.051-0.354l-0.337-0.337zM14.284 5.684l-0.337 0.337c0.016 0.090 0.037 0.186 0.058 0.282 0.117-0.088 0.238-0.169 0.363-0.245-0.024-0.128-0.051-0.253-0.084-0.373zM13.863 6.105l-0.337 0.337c0.015 0.073 0.033 0.142 0.051 0.211 0.109-0.096 0.22-0.188 0.334-0.277-0.017-0.089-0.033-0.178-0.048-0.271zM18.179 6.126c-0.028 0.103-0.051 0.211-0.075 0.319 0.118 0.103 0.23 0.21 0.339 0.318 0.026-0.098 0.052-0.196 0.072-0.3l-0.337-0.337zM13.421 6.526l-0.316 0.316c0.024 0.071 0.042 0.136 0.060 0.197 0.101-0.097 0.204-0.193 0.307-0.289-0.017-0.072-0.034-0.144-0.051-0.224zM18.642 6.568c-0.035 0.104-0.063 0.202-0.092 0.3 0.090 0.094 0.178 0.189 0.262 0.287 0.010 0.011 0.018 0.022 0.028 0.034 0.023-0.111 0.060-0.209 0.118-0.304l-0.316-0.316zM13 6.926l-0.316 0.316c0.021 0.042 0.021 0.063 0.042 0.105 0.013 0.029 0.023 0.056 0.035 0.085 0.102-0.102 0.205-0.201 0.308-0.301-0.022-0.059-0.042-0.122-0.069-0.206zM19.021 6.947c-0.042 0.105-0.063 0.19-0.105 0.295l-0.009 0.026c0.096 0.115 0.188 0.231 0.275 0.345 0.031-0.087 0.061-0.174 0.092-0.266 0.021-0.021 0.021-0.063 0.042-0.105l-0.295-0.295zM12.621 7.326l-0.126 0.147h-0.232c0 0.021 0.021 0.042 0.021 0.063 0.045 0.099 0.090 0.202 0.135 0.306 0.079-0.103 0.168-0.213 0.272-0.332-0.016-0.040-0.031-0.081-0.049-0.121 0-0.021-0.021-0.042-0.021-0.063zM19.421 7.326c0 0.021-0.021 0.042-0.021 0.063-0.049 0.111-0.092 0.222-0.136 0.333 0.086 0.118 0.165 0.235 0.241 0.352 0.072-0.179 0.15-0.358 0.232-0.538 0-0.021 0.021-0.042 0.021-0.063h-0.19l-0.147-0.147zM7.653 7.453c0.611 0.674 1.242 1.326 1.853 1.958 0.316 0.316 0.632 0.653 0.947 0.969l0.232-0.232c-0.295-0.316-0.59-0.652-0.905-0.989-0.526-0.568-1.053-1.116-1.579-1.705h-0.547zM23.021 7.453c-0.4 0.463-0.779 0.905-1.158 1.368-0.295 0.337-0.568 0.673-0.842 1.010l0.253 0.253c0.295-0.316 0.589-0.653 0.884-0.99 0.463-0.526 0.926-1.073 1.41-1.642h-0.547zM8.474 7.474c0.463 0.547 0.926 1.074 1.389 1.621l0.884 1.011 0.252-0.252c-0.274-0.337-0.568-0.674-0.842-1.011-0.4-0.463-0.779-0.905-1.137-1.368h-0.547zM9.211 7.474c0.337 0.442 0.674 0.884 1.011 1.305 0.274 0.358 0.547 0.695 0.821 1.032l0.177-0.177c0.019-0.040 0.035-0.076 0.049-0.111l-0.731-0.975-0.821-1.074h-0.505zM11.147 7.474c0.084 0.147 0.19 0.316 0.274 0.484 0.123 0.23 0.255 0.46 0.384 0.69 0.015-0.036 0.030-0.072 0.043-0.109h0.052c0.031-0.031 0.052-0.052 0.052-0.073 0.031-0.039 0.061-0.079 0.092-0.118-0.095-0.185-0.191-0.368-0.286-0.559-0.063-0.105-0.105-0.211-0.168-0.316h-0.442zM11.716 7.474c0.042 0.105 0.084 0.19 0.126 0.274 0.092 0.17 0.176 0.347 0.262 0.524 0.072-0.095 0.142-0.191 0.204-0.284 0.015-0.020 0.034-0.044 0.049-0.065-0.054-0.113-0.108-0.226-0.157-0.344-0.021-0.042-0.042-0.063-0.063-0.105h-0.421zM19.863 7.474c-0.021 0.042-0.021 0.063-0.042 0.126-0.082 0.181-0.176 0.366-0.264 0.558 0.023 0.037 0.048 0.075 0.071 0.111h0.021c0.029 0.076 0.076 0.144 0.131 0.218 0.133-0.247 0.264-0.493 0.378-0.74 0.042-0.084 0.084-0.19 0.126-0.274h-0.421zM21.021 7.474c-0.126 0.189-0.232 0.358-0.337 0.547-0.187 0.29-0.353 0.602-0.539 0.913 0.006 0.016 0.014 0.031 0.021 0.047l0.203 0.241c0.211-0.337 0.421-0.653 0.632-0.99 0.168-0.253 0.316-0.505 0.484-0.758h-0.463zM21.632 7.474c-0.189 0.274-0.379 0.526-0.547 0.8-0.211 0.337-0.442 0.652-0.653 0.989l0.252 0.252c0.232-0.337 0.484-0.673 0.716-1.010 0.232-0.358 0.484-0.695 0.716-1.032h-0.484zM22.326 7.474l-0.821 1.074-0.758 1.011 0.232 0.232c0.253-0.337 0.526-0.674 0.8-1.011 0.337-0.442 0.674-0.863 1.053-1.305h-0.505zM23.821 7.474c-0.547 0.547-1.074 1.116-1.6 1.684-0.295 0.337-0.611 0.652-0.905 0.989l0.252 0.253c0.316-0.337 0.632-0.653 0.947-0.968 0.632-0.653 1.263-1.305 1.874-1.958h-0.568zM9.884 7.495c0.253 0.337 0.484 0.674 0.716 1.011 0.223 0.324 0.464 0.647 0.688 0.971 0.020-0.049 0.039-0.097 0.068-0.156 0.031-0.052 0.063-0.094 0.083-0.146 0.009-0.023 0.021-0.040 0.033-0.057-0.184-0.283-0.377-0.557-0.557-0.845-0.168-0.274-0.358-0.527-0.547-0.779h-0.484zM10.537 7.495c0.147 0.232 0.316 0.484 0.463 0.737 0.175 0.28 0.351 0.548 0.526 0.824 0.002-0.013 0.010-0.016 0.019-0.016 0.084-0.083 0.146-0.166 0.188-0.25 0.010-0.016 0.016-0.032 0.025-0.047-0.135-0.241-0.276-0.481-0.421-0.722-0.105-0.189-0.232-0.358-0.337-0.526h-0.463zM20.41 7.495c-0.063 0.105-0.105 0.211-0.168 0.316-0.133 0.247-0.266 0.509-0.399 0.759 0.047 0.059 0.094 0.116 0.14 0.178 0.031 0.021 0.052 0.031 0.063 0.052 0.008 0.016 0.024 0.027 0.044 0.040 0.173-0.291 0.332-0.568 0.488-0.861 0.105-0.168 0.19-0.337 0.274-0.484h-0.442zM7.484 7.621v0.548c0.568 0.547 1.137 1.074 1.705 1.6 0.337 0.316 0.652 0.61 0.989 0.905l0.232-0.232c-0.337-0.316-0.653-0.632-0.968-0.947-0.653-0.611-1.305-1.242-1.958-1.874zM24.537 7.621c-0.653 0.632-1.305 1.242-1.958 1.874-0.337 0.316-0.653 0.632-0.968 0.947l0.252 0.253c0.337-0.295 0.674-0.611 0.99-0.905 0.568-0.526 1.137-1.053 1.684-1.579v-0.59zM7.463 8.463v0.526c0.442 0.379 0.905 0.779 1.368 1.158 0.337 0.295 0.674 0.568 1.011 0.842l0.252-0.252c-0.337-0.295-0.652-0.589-0.989-0.884-0.526-0.463-1.074-0.927-1.642-1.39zM24.516 8.463c-0.547 0.463-1.074 0.927-1.621 1.39-0.316 0.295-0.652 0.589-0.989 0.884l0.252 0.252c0.337-0.295 0.674-0.568 1.011-0.842 0.463-0.379 0.905-0.758 1.347-1.158v-0.526zM7.463 9.2v0.505l1.074 0.821 1.010 0.758 0.253-0.252c-0.337-0.253-0.674-0.526-1.011-0.8-0.442-0.358-0.863-0.695-1.326-1.032zM24.537 9.242c-0.442 0.337-0.884 0.673-1.305 1.010-0.337 0.253-0.673 0.526-1.010 0.8l0.232 0.252 1.010-0.758 1.074-0.821v-0.484zM7.484 9.895v0.484c0.253 0.189 0.526 0.358 0.8 0.547 0.337 0.232 0.653 0.442 0.99 0.653l0.252-0.252c-0.337-0.232-0.674-0.484-1.011-0.716s-0.694-0.484-1.031-0.716zM24.516 9.916c-0.337 0.253-0.673 0.484-1.010 0.716s-0.674 0.484-1.011 0.716l0.253 0.252c0.337-0.211 0.674-0.442 0.989-0.653 0.274-0.189 0.526-0.379 0.8-0.547h-0.021v-0.484zM24.516 10.526c-0.232 0.147-0.484 0.316-0.737 0.463-0.337 0.211-0.652 0.421-0.989 0.632l0.252 0.253c0.316-0.168 0.632-0.358 0.947-0.547 0.189-0.105 0.358-0.211 0.548-0.316h-0.021v-0.484zM7.484 10.547v0.463c0.189 0.105 0.358 0.232 0.547 0.337 0.316 0.189 0.611 0.358 0.926 0.547l0.252-0.274c-0.316-0.189-0.631-0.4-0.968-0.61-0.253-0.147-0.505-0.316-0.758-0.463zM7.484 11.137v0.463c0.105 0.063 0.211 0.105 0.316 0.169 0.274 0.147 0.568 0.295 0.842 0.442l0.273-0.274c-0.316-0.189-0.611-0.358-0.926-0.526-0.168-0.084-0.337-0.189-0.505-0.273zM24.537 11.158c-0.147 0.084-0.316 0.19-0.484 0.274-0.316 0.168-0.611 0.358-0.926 0.526l0.253 0.252c0.295-0.147 0.568-0.295 0.863-0.442 0.084-0.063 0.19-0.105 0.295-0.169v-0.442zM7.484 11.705c0.006 0.003 0.014 0.007 0.021 0.010v-0.010h-0.021zM7.505 11.715v0.411c0.021 0.021 0.063 0.042 0.105 0.063 0.232 0.126 0.484 0.232 0.716 0.337l0.252-0.274c-0.274-0.147-0.547-0.295-0.821-0.421-0.078-0.039-0.172-0.078-0.252-0.116zM24.537 11.705c-0.105 0.042-0.19 0.084-0.274 0.126-0.295 0.147-0.568 0.274-0.842 0.421l0.274 0.274c0.253-0.105 0.484-0.232 0.737-0.337 0.042 0 0.063-0.021 0.105-0.042v-0.442zM7.484 12.232v0.232l-0.148 0.105c0.021 0 0.042 0.021 0.063 0.021 0.189 0.084 0.379 0.147 0.568 0.232l0.274-0.274c-0.232-0.084-0.463-0.19-0.695-0.295-0.021 0-0.042-0.021-0.063-0.021zM24.558 12.252c-0.021 0-0.042 0.021-0.063 0.021-0.253 0.105-0.484 0.211-0.716 0.316l0.274 0.273c0.189-0.084 0.379-0.147 0.568-0.232 0.021 0 0.042 0 0.084-0.021l-0.147-0.148v-0.211zM7.274 12.674l-0.316 0.316c0.105 0.042 0.189 0.063 0.294 0.105l0.379 0.127 0.295-0.295c-0.189-0.063-0.379-0.126-0.547-0.19-0.042-0.021-0.084-0.042-0.105-0.063zM24.748 12.674c-0.042 0.021-0.063 0.021-0.105 0.042-0.189 0.084-0.358 0.147-0.548 0.211l0.295 0.295 0.379-0.127c0.105-0.042 0.189-0.063 0.273-0.126l-0.294-0.295zM6.874 13.095l-0.316 0.316c0.168 0.042 0.358 0.105 0.547 0.148 0.063 0.021 0.105 0.021 0.147 0.042l0.295-0.295c-0.105-0.042-0.231-0.063-0.337-0.105s-0.231-0.084-0.337-0.105zM25.147 13.095c-0.105 0.042-0.232 0.063-0.337 0.105s-0.232 0.063-0.337 0.105l0.295 0.295c0.042-0.021 0.105-0.021 0.147-0.042 0.189-0.063 0.358-0.105 0.547-0.148l-0.316-0.316zM6.453 13.495l-0.337 0.337c0.232 0.063 0.484 0.105 0.715 0.169l0.337-0.316-0.084-0.021c-0.211-0.063-0.421-0.105-0.632-0.169zM25.568 13.516c-0.211 0.042-0.421 0.105-0.632 0.148-0.021 0-0.063 0.021-0.084 0.021l0.316 0.316c0.253-0.063 0.484-0.126 0.737-0.147l-0.337-0.337zM25.989 13.937c-0.232 0.042-0.484 0.105-0.737 0.148l0.337 0.337c0.253-0.042 0.505-0.084 0.737-0.147l-0.337-0.337zM5.989 13.958l-0.337 0.337 0.758 0.126 0.337-0.337c-0.253-0.042-0.485-0.084-0.758-0.126zM5.505 14.421l-0.358 0.358c0.274 0.042 0.526 0.063 0.8 0.105l0.358-0.358c-0.253-0.021-0.505-0.063-0.8-0.105zM26.474 14.421c-0.253 0.042-0.526 0.063-0.779 0.105l0.358 0.358c0.253-0.042 0.526-0.084 0.779-0.105l-0.358-0.358zM27 14.926l-0.821 0.063 0.379 0.379 0.821-0.063-0.379-0.379zM5.021 14.947l-0.379 0.379 0.821 0.063 0.379-0.379-0.821-0.063zM27.547 15.495c-0.295 0-0.568 0.021-0.863 0.021l0.4 0.4c0.295 0 0.589-0.021 0.863-0.021l-0.4-0.4zM4.453 15.516l-0.4 0.4c0.295 0 0.568 0.021 0.863 0.021l0.4-0.4c-0.295-0.021-0.568-0.021-0.863-0.021zM4.937 16.084c-0.295 0.021-0.568 0.021-0.863 0.021l0.4 0.4c0.295 0 0.568-0.021 0.863-0.021l-0.4-0.4zM27.084 16.084l-0.4 0.4c0.295 0.021 0.589 0.021 0.863 0.021l0.4-0.4c-0.295 0-0.568-0.021-0.863-0.021zM5.484 16.632l-0.821 0.063 0.379 0.379 0.821-0.063-0.379-0.379zM26.558 16.632l-0.379 0.379 0.821 0.063 0.379-0.379-0.821-0.063zM26.053 17.116l-0.358 0.358c0.253 0.042 0.526 0.084 0.8 0.105l0.358-0.358c-0.274-0.042-0.526-0.063-0.8-0.105zM5.968 17.137c-0.253 0.021-0.526 0.063-0.779 0.105l0.358 0.358c0.253-0.042 0.527-0.063 0.779-0.105l-0.358-0.358zM6.432 17.579c-0.253 0.042-0.505 0.105-0.737 0.147l0.337 0.337c0.232-0.042 0.484-0.105 0.737-0.148l-0.337-0.337zM25.59 17.579l-0.337 0.337c0.253 0.042 0.506 0.105 0.758 0.126l0.337-0.337-0.758-0.126zM6.853 18c-0.232 0.063-0.484 0.126-0.737 0.147l0.337 0.337c0.211-0.042 0.4-0.105 0.611-0.148 0.042 0 0.063-0.021 0.105-0.021l-0.316-0.316zM25.169 18l-0.316 0.337c0.021 0 0.063 0.021 0.084 0.021 0.211 0.042 0.421 0.105 0.611 0.148l0.337-0.337c-0.232-0.063-0.484-0.105-0.715-0.169zM24.768 18.4l-0.295 0.295c0.105 0.042 0.232 0.063 0.337 0.105s0.232 0.063 0.337 0.105l0.316-0.316c-0.189-0.042-0.358-0.105-0.547-0.148-0.042-0.021-0.105-0.021-0.147-0.042zM7.274 18.421c-0.063 0.021-0.105 0.021-0.169 0.042-0.189 0.042-0.358 0.084-0.526 0.148l0.316 0.316c0.105-0.042 0.211-0.063 0.316-0.105 0.126-0.021 0.231-0.063 0.358-0.105l-0.294-0.295zM24.389 18.758l-0.295 0.295c0.189 0.084 0.358 0.147 0.548 0.211 0.042 0.021 0.084 0.042 0.105 0.021l0.294-0.295c-0.084-0.042-0.189-0.063-0.273-0.105l-0.379-0.126zM7.531 18.832c-0.101 0.032-0.205 0.063-0.3 0.095-0.084 0.021-0.168 0.063-0.252 0.105l0.3 0.3c0.031-0.049 0.061-0.095 0.093-0.148 0.031-0.062 0.052-0.115 0.073-0.167v-0.021c0.036-0.054 0.064-0.109 0.086-0.164zM24.032 19.137l-0.093 0.093c0.030 0.090 0.051 0.152 0.071 0.182 0.038 0.053 0.083 0.11 0.123 0.163 0.115 0.050 0.231 0.1 0.341 0.151 0.021 0 0.042 0.021 0.063 0.021v-0.211l0.126-0.148c-0.021 0-0.042-0.021-0.063-0.021-0.189-0.084-0.379-0.147-0.568-0.232zM24.237 19.715c0.061 0.080 0.116 0.156 0.18 0.239 0.040 0.051 0.080 0.107 0.12 0.16v-0.261c-0.042-0.021-0.063-0.021-0.105-0.042-0.063-0.034-0.13-0.064-0.195-0.096zM18.922 24.287c-0.014-0.001-0.027-0-0.041 0.001l-0.092 0.092 0.126 0.379c0.042 0.105 0.063 0.19 0.126 0.274l0.295-0.295c-0.021-0.042-0.021-0.063-0.042-0.105-0.038-0.085-0.070-0.165-0.101-0.245-0.033-0.016-0.068-0.031-0.099-0.048-0.031-0.021-0.052-0.021-0.073-0.021s-0.031-0.010-0.052-0.021c-0.016-0.005-0.031-0.008-0.047-0.010zM12.705 24.38c-0.091 0.050-0.189 0.099-0.288 0.146h0.057l0.147 0.147c0-0.021 0.021-0.042 0.021-0.063 0.032-0.080 0.060-0.155 0.088-0.231h-0.025zM12.808 24.38c-0.028 0.076-0.056 0.151-0.082 0.231-0.021 0.042-0.021 0.063-0.042 0.105l0.316 0.316c0.042-0.084 0.063-0.19 0.105-0.274l0.035-0.106c-0.051-0.049-0.101-0.098-0.153-0.147-0.031-0.031-0.052-0.052-0.073-0.063s-0.042-0.031-0.073-0.063h-0.033zM19.31 24.441c0.022 0.056 0.044 0.113 0.069 0.169 0 0.021 0.021 0.042 0.021 0.063l0.147-0.126h0.019c-0.088-0.035-0.176-0.070-0.257-0.106zM18.705 24.463l-0.295 0.295c0.021 0.042 0.021 0.105 0.042 0.148 0.063 0.168 0.105 0.358 0.147 0.547l0.316-0.316c-0.042-0.105-0.063-0.232-0.105-0.337s-0.063-0.232-0.105-0.337zM13.213 24.721c-0.008 0.026-0.014 0.051-0.023 0.079-0.021 0.105-0.063 0.232-0.105 0.316l0.316 0.316c0.032-0.143 0.074-0.277 0.111-0.414-0.097-0.099-0.197-0.198-0.299-0.296zM18.326 24.842l-0.316 0.316c0.063 0.232 0.126 0.484 0.147 0.737l0.337-0.337c-0.042-0.211-0.105-0.421-0.147-0.632 0-0.021-0.021-0.063-0.021-0.084zM13.614 25.121c-0.031 0.14-0.064 0.282-0.109 0.416l0.337 0.337c0.036-0.132 0.066-0.27 0.096-0.407-0.107-0.115-0.212-0.23-0.324-0.346zM17.926 25.242l-0.337 0.337c0.042 0.253 0.084 0.505 0.147 0.737l0.337-0.337c-0.042-0.232-0.105-0.484-0.147-0.737zM14.033 25.57c-0.028 0.143-0.053 0.287-0.065 0.43l0.337 0.337 0.067-0.404c-0.033-0.035-0.066-0.069-0.099-0.105-0.078-0.085-0.161-0.172-0.241-0.258zM17.505 25.684l-0.358 0.358c0.021 0.253 0.063 0.527 0.105 0.779l0.358-0.358c-0.042-0.253-0.063-0.526-0.105-0.779zM14.482 26.048c-0.021 0.144-0.038 0.287-0.050 0.436l0.358 0.358c0.023-0.147 0.039-0.288 0.056-0.43-0.124-0.118-0.245-0.24-0.364-0.364zM17.021 26.147l-0.379 0.379 0.063 0.821 0.379-0.379-0.063-0.821zM14.979 26.536c-0.013 0.151-0.021 0.302-0.021 0.454l0.379 0.379 0.037-0.487c-0.135-0.112-0.267-0.227-0.396-0.346zM16.495 26.674l-0.4 0.4c0.021 0.295 0.021 0.568 0.021 0.863l0.4-0.4c0-0.295-0.021-0.569-0.021-0.863zM15.518 27.001c-0.006 0.183-0.013 0.364-0.013 0.536l0.4 0.4c0-0.29 0.020-0.56 0.021-0.849l-0.136 0.135h-0.042c0-0.021-0.011-0.021-0.021-0.021-0.031-0.031-0.063-0.063-0.083-0.083s-0.053-0.052-0.084-0.083c-0.014-0.011-0.027-0.023-0.042-0.035z"></path>
</svg>
