<!-- Generated by IcoMoon.io -->
<svg version="1.1" xmlns="http://www.w3.org/2000/svg" width="32" height="32" viewBox="0 0 32 32">
<title>token_-8_highlight</title>
<path d="M16.432 11.028c-0.787 0-1.462 0.224-2.025 0.671-0.555 0.447-0.832 0.981-0.832 1.602 0.017 0.547 0.104 0.956 0.261 1.23 0.157 0.265 0.319 0.468 0.484 0.609 0.141 0.124 0.273 0.215 0.397 0.273 0.050 0.025 0.075 0.054 0.075 0.087 0 0.025-0.021 0.058-0.062 0.099-0.447 0.331-0.869 0.737-1.267 1.217-0.389 0.48-0.584 1.010-0.584 1.59 0 0.952 0.348 1.702 1.043 2.248s1.536 0.82 2.521 0.82c0.977 0 1.847-0.319 2.608-0.956 0.754-0.629 1.13-1.37 1.13-2.223 0-0.654-0.178-1.25-0.534-1.789-0.364-0.555-0.84-0.973-1.428-1.255-0.174-0.075-0.261-0.141-0.261-0.199 0-0.033 0.012-0.050 0.037-0.050 0.116-0.083 0.203-0.149 0.261-0.199 0.273-0.24 0.509-0.489 0.708-0.745 0.199-0.265 0.298-0.563 0.298-0.894 0-0.563-0.269-1.064-0.807-1.503s-1.205-0.658-2-0.658zM16.47 20.828c-0.571 0-1.047-0.215-1.428-0.646-0.406-0.464-0.629-0.994-0.671-1.59v-0.124c-0.008-0.066-0.012-0.108-0.012-0.124 0-0.522 0.128-1.039 0.385-1.553 0.298-0.613 0.654-0.919 1.068-0.919 0.075 0 0.265 0.058 0.571 0.174 0.29 0.116 0.617 0.298 0.981 0.547 0.34 0.232 0.642 0.518 0.907 0.857 0.224 0.298 0.335 0.675 0.335 1.13-0.083 0.853-0.327 1.428-0.733 1.727s-0.874 0.468-1.404 0.509zM16.445 11.611c0.315 0.008 0.65 0.149 1.006 0.422s0.534 0.6 0.534 0.981c0 0.389-0.079 0.737-0.236 1.043-0.166 0.315-0.389 0.497-0.671 0.547-0.331 0-0.774-0.17-1.329-0.509-0.547-0.339-0.82-0.7-0.82-1.081 0-0.389 0.153-0.725 0.46-1.006 0.29-0.265 0.642-0.397 1.056-0.397z"></path>
<path d="M8.791 16.308c-0.003 0-0.005 0.001-0.008 0.001-0.037 0.003-0.073-0.011-0.097-0.039-0.033-0.037-0.040-0.090-0.017-0.133l0.351-0.685c0.016-0.032 0.044-0.056 0.078-0.067 0.013-0.004 0.026-0.007 0.039-0.007 0.006-0 0.011 0 0.016 0 0.093 0.004 0.992 0.047 1.58 0.045s1.488-0.048 1.581-0.053c0.006-0 0.011-0.001 0.016-0 0.028 0.001 0.055 0.013 0.074 0.034 0.009 0.010 0.016 0.022 0.015 0.035-0.014 0.096-0.18 0.438-0.247 0.572-0.017 0.035-0.046 0.063-0.081 0.079-0.022 0.010-0.045 0.016-0.069 0.016-0.002 0-0.004 0-0.007 0-0.058-0-0.913-0.001-1.49 0.032-0.644 0.036-1.664 0.162-1.735 0.17z"></path>
<path d="M12.335 15.265c-0.012-0.001-0.021 0-0.026 0-0.092 0.005-0.993 0.052-1.576 0.053s-1.482-0.041-1.575-0.045c-0.005-0-0.014-0.001-0.025-0-0.024 0.001-0.046 0.005-0.069 0.012-0.060 0.020-0.11 0.063-0.139 0.119l-0.351 0.685c-0.042 0.082-0.029 0.183 0.032 0.252 0.046 0.052 0.115 0.079 0.184 0.073 0.006-0 0.010-0.001 0.013-0.001 0.070-0.009 1.091-0.133 1.728-0.169 0.57-0.032 1.426-0.032 1.484-0.032h0c0.002 0 0.005 0 0.008 0h0.001c0.038-0.001 0.076-0.010 0.111-0.026 0.056-0.026 0.103-0.071 0.131-0.128 0.033-0.067 0.092-0.187 0.145-0.303 0.026-0.058 0.051-0.116 0.071-0.166s0.035-0.089 0.041-0.134v-0c0.008-0.058-0.023-0.101-0.042-0.122-0.038-0.041-0.091-0.065-0.146-0.067h-0zM12.298 15.477c-0.005 0.014-0.004 0.017-0.011 0.035-0.018 0.045-0.041 0.1-0.066 0.156-0.051 0.112-0.109 0.23-0.141 0.296-0.007 0.013-0.018 0.024-0.032 0.030-0.009 0.004-0.018 0.006-0.027 0.006-0.001 0-0.002 0-0.004 0-0.059-0-0.914-0.001-1.496 0.032-0.651 0.037-1.67 0.162-1.742 0.171h-0c-0.003 0-0.003 0-0.002 0h-0c-0.004 0-0.008-0.001-0.011-0.005-0.004-0.004-0.005-0.009-0.002-0.014l0.351-0.685c0.004-0.007 0.010-0.013 0.018-0.015 0.003-0.001 0.006-0.002 0.009-0.002 0 0 0.002 0 0.007 0h0c0.093 0.004 0.992 0.047 1.585 0.045 0.585-0.002 1.45-0.047 1.564-0.053z"></path>
</svg>
