<!-- Generated by IcoMoon.io -->
<svg version="1.1" xmlns="http://www.w3.org/2000/svg" width="32" height="32" viewBox="0 0 32 32">
<title>tomes</title>
<path d="M21.814 28.867c-0.548-0.461-0.991-2.415-1.153-5.083l-0.036-0.595-0.623-0.037c-3.085-0.181-5.145-0.74-5.145-1.395 0-0.615 1.853-1.151 4.709-1.364 0.397-0.030 0.798-0.054 0.89-0.054l0.168-0 0.037-0.602c0.185-3.038 0.694-5.002 1.349-5.2 0.176-0.053 0.453 0.224 0.648 0.649 0.378 0.823 0.682 2.547 0.792 4.491l0.037 0.649 0.622 0.037c2.656 0.156 4.552 0.584 5.039 1.139 0.197 0.225 0.197 0.289 0 0.513-0.482 0.549-2.408 0.984-5.039 1.139l-0.622 0.037-0.036 0.675c-0.141 2.623-0.645 4.722-1.213 5.058-0.193 0.114-0.226 0.11-0.422-0.055zM22.386 25.476c0.209-0.422 0.362-1.154 0.45-2.149l0.064-0.731 0.486-0.036c1.597-0.117 2.71-0.437 2.751-0.79 0.013-0.116-0.019-0.167-0.161-0.254-0.413-0.254-1.415-0.468-2.644-0.565l-0.433-0.034-0.064-0.731c-0.088-0.995-0.241-1.728-0.45-2.149-0.154-0.312-0.189-0.348-0.332-0.348-0.132 0-0.181 0.039-0.283 0.224-0.232 0.421-0.423 1.367-0.522 2.594l-0.033 0.41-0.464 0.035c-1.14 0.087-1.988 0.258-2.471 0.497-0.236 0.117-0.298 0.175-0.311 0.292s0.019 0.168 0.161 0.255c0.418 0.258 1.43 0.476 2.626 0.566 0.291 0.022 0.468 0.058 0.469 0.096 0.005 0.631 0.203 1.959 0.375 2.509 0.156 0.501 0.29 0.693 0.469 0.672 0.12-0.014 0.176-0.078 0.318-0.365zM9.436 27.469c-0.329-0.956-0.515-1.79-0.667-2.98l-0.040-0.317-0.642-0.094c-0.971-0.142-1.674-0.317-2.693-0.672-0.304-0.106-0.532-0.212-0.508-0.235 0.245-0.241 2.981-0.906 3.73-0.906 0.116 0 0.14-0.025 0.14-0.14 0-0.748 0.664-3.485 0.905-3.729 0.044-0.044 0.291 0.609 0.484 1.281 0.164 0.571 0.313 1.319 0.381 1.919 0.034 0.294 0.068 0.561 0.077 0.593s0.265 0.088 0.569 0.124c0.304 0.036 0.843 0.127 1.196 0.201 0.697 0.146 2.114 0.59 2.114 0.662 0 0.063-0.761 0.348-1.491 0.558-0.588 0.169-1.703 0.382-2.175 0.415-0.195 0.014-0.215 0.029-0.228 0.176-0.048 0.56-0.203 1.456-0.358 2.069-0.189 0.746-0.495 1.65-0.558 1.65-0.020 0-0.126-0.259-0.235-0.575zM3.029 18.513c0-0.099 0.44-1.088 0.842-1.894 0.936-1.873 1.994-3.535 3.262-5.124 0.487-0.611 0.547-0.707 0.486-0.789-0.038-0.051-0.317-0.413-0.619-0.804-1.36-1.756-2.804-4.148-3.645-6.042-0.186-0.418-0.326-0.772-0.311-0.787 0.040-0.040 0.974 0.368 1.864 0.813 1.834 0.918 3.724 2.123 5.237 3.339 0.28 0.225 0.538 0.427 0.575 0.449 0.042 0.025 0.261-0.117 0.589-0.38 1.872-1.505 4.181-2.938 6.322-3.923 0.445-0.205 0.831-0.372 0.859-0.372 0.137 0-1.113 2.579-1.832 3.781-0.774 1.293-1.622 2.497-2.647 3.754l-0.174 0.214 0.339 0.42c1.641 2.036 3.559 5.245 4.321 7.228l0.046 0.119-0.279-0.109c-2.181-0.855-5.034-2.568-7.099-4.264l-0.398-0.327-0.191 0.159c-0.426 0.356-1.902 1.455-2.424 1.805-1.001 0.672-2.343 1.45-3.463 2.008-1.243 0.619-1.662 0.802-1.662 0.725zM7.846 14.127c0.797-0.403 1.783-1.030 2.421-1.539 0.228-0.182 0.426-0.33 0.44-0.33s0.322 0.224 0.683 0.497c0.361 0.274 0.927 0.66 1.257 0.858 0.67 0.403 1.824 0.974 1.872 0.926 0.017-0.017-0.139-0.375-0.347-0.795-0.403-0.815-1.038-1.825-1.596-2.54-0.188-0.241-0.341-0.452-0.341-0.469s0.149-0.218 0.33-0.445c0.544-0.681 1.152-1.648 1.582-2.515 0.223-0.449 0.394-0.828 0.38-0.841s-0.336 0.127-0.717 0.313c-0.994 0.484-1.96 1.094-2.776 1.753l-0.317 0.256-0.325-0.265c-0.461-0.376-1.574-1.117-2.167-1.443-0.523-0.288-1.301-0.648-1.332-0.617-0.025 0.025 0.569 1.212 0.847 1.693 0.285 0.492 0.837 1.3 1.207 1.764l0.28 0.352-0.373 0.474c-0.692 0.879-1.395 2.044-1.836 3.041l-0.138 0.312 0.121-0.037c0.067-0.021 0.447-0.202 0.844-0.402zM21.384 11.856c-0.173-0.209 0.367-1.164 1.206-2.133l0.411-0.474-0.214-0.222c-0.117-0.122-0.394-0.454-0.613-0.737-0.866-1.117-1.073-1.778-0.525-1.679 0.386 0.070 1.241 0.618 2.018 1.293 0.181 0.157 0.343 0.286 0.361 0.286s0.254-0.187 0.527-0.416c0.954-0.802 1.64-1.215 1.953-1.179 0.138 0.016 0.148 0.033 0.145 0.264-0.002 0.191-0.054 0.333-0.229 0.628-0.261 0.438-0.748 1.097-1.108 1.498l-0.248 0.276 0.314 0.361c0.672 0.772 1.107 1.401 1.272 1.84 0.109 0.29 0.052 0.474-0.148 0.474-0.303 0-1.21-0.554-1.984-1.212-0.203-0.172-0.398-0.335-0.436-0.363-0.047-0.035-0.177 0.047-0.434 0.274-0.839 0.739-1.729 1.301-2.060 1.301-0.077 0-0.171-0.036-0.207-0.081z"></path>
</svg>
