<!-- Generated by IcoMoon.io -->
<svg version="1.1" xmlns="http://www.w3.org/2000/svg" width="32" height="32" viewBox="0 0 32 32">
<title>trapped_spirits</title>
<path d="M26.050 20.167c-0.005 0.63-0.090 1.258-0.254 1.888-0.021 0.165-0.044 0.332-0.066 0.497-0.312 1.314-0.915 2.46-1.808 3.435-0.714 1.1-1.657 1.968-2.836 2.603-1.159 0.739-2.412 1.138-3.757 1.199-1.342 0.3-2.685 0.24-4.028-0.18-1.965-0.729-3.024-1.132-4.529-2.637-1.453-1.455-1.451-1.735-2.096-3.264-0.633-1.204-0.923-2.501-0.87-3.893-0.053-0.451 0.007-0.901 0.179-1.349 0.227-1.683 0.145-1.962 1.203-3.771 0.436-0.744 0.978-1.443 1.59-2.056 0.611-0.611 1.297-1.188 2.062-1.592 1.576-0.914 3.276-1.373 5.1-1.38 0.895 0.121 1.79 0.242 2.685 0.362 1.713 0.479 3.197 1.346 4.459 2.598 0.526 0.682 1.053 1.363 1.58 2.045 0.394 0.62 0.69 1.267 0.89 1.94 0.354 1.036 0.533 2.121 0.536 3.253-0.012 0.1-0.026 0.202-0.040 0.302zM29.357 20.816c-0.009-0.049-0.059-0.096-0.076-0.144-0.019-0.053-0.018-0.094-0.045-0.144-0.054-0.1-0.155-0.177-0.227-0.263-0.113-0.14-0.208-0.214-0.362-0.302-0.090-0.051-0.18-0.1-0.272-0.148-0.071-0.039-0.1-0.031-0.173-0.049-0.179-0.044-0.187-0.172-0.259-0.316-0.050-0.096-0.088-0.126-0.1-0.239-0.008-0.065 0.003-0.137 0.003-0.203-0.001-0.168 0.010-0.22 0.153-0.329 0.133-0.101 0.265-0.198 0.357-0.342 0.17-0.269 0.369-0.512 0.501-0.807 0.253-0.571 0.461-1.281 0.179-1.879-0.063-0.133-0.163-0.254-0.24-0.377-0.050-0.079-0.153-0.269-0.242-0.329-0.041-0.027-0.101-0.033-0.148-0.056-0.020-0.010-0.039-0.023-0.059-0.036 0.026 0.096 0.023 0.209 0.023 0.304 0 0.118 0.029 0.287-0.055 0.388-0.063 0.076-0.184 0.105-0.274 0.129-0.013-0.051 0.003-0.101-0.006-0.154-0.020-0.098-0.1-0.181-0.151-0.265-0.048-0.078-0.094-0.23-0.177-0.272-0.063-0.033-0.18-0.023-0.249-0.046-0.195-0.066-0.384-0.228-0.509-0.388-0.136-0.175-0.324-0.462-0.378-0.683-0.061-0.25-0.17-0.486-0.245-0.737-0.065-0.218-0.041-0.439-0.045-0.663-0.002-0.15 0.029-0.289 0.118-0.407 0.116-0.155 0.219-0.248 0.253-0.446 0.030-0.179 0.064-0.355 0.094-0.535 0.039-0.225 0.019-0.432-0.081-0.633-0.065-0.131-0.114-0.284-0.203-0.402-0.060-0.080-0.13-0.15-0.19-0.232-0.104-0.142-0.181-0.248-0.179-0.427 0.001-0.085 0.019-0.128 0.046-0.203 0.035-0.093 0.056-0.2 0.095-0.29 0.053-0.124 0.165-0.152 0.284-0.185 0.133-0.037 0.25-0.060 0.382-0.002 0.094 0.041 0.291 0.263 0.372 0.249 0.071-0.183-0.040-0.479-0.099-0.652-0.068-0.196-0.213-0.321-0.413-0.379-0.157-0.045-0.317-0.119-0.477-0.145-0.17-0.028-0.374-0.020-0.545 0.002-0.378 0.051-0.7 0.135-0.978 0.414-0.205 0.208-0.372 0.476-0.434 0.757-0.029 0.13-0.033 0.269-0.078 0.397-0.070 0.2-0.215 0.398-0.348 0.561-0.203 0.248-0.407 0.335-0.725 0.279-0.254-0.045-0.597-0.319-0.731-0.53-0.085-0.136-0.141-0.343-0.096-0.503 0.038-0.134 0.163-0.218 0.227-0.339 0.114-0.215 0.189-0.474 0.143-0.72-0.035-0.189-0.149-0.343-0.223-0.516-0.055-0.128-0.060-0.249-0.055-0.387 0.002-0.094 0.012-0.155-0.038-0.237-0.094-0.153-0.277-0.229-0.384-0.373-0.172-0.233-0.044-0.413-0.045-0.671-0.002-0.283-0.166-0.408-0.328-0.622-0.146-0.195-0.278-0.369-0.464-0.528-0.181-0.154-0.371-0.315-0.558-0.462-0.202-0.158-0.431-0.277-0.636-0.431-0.134-0.101-0.262-0.207-0.386-0.315 0.078 0.199 0.129 0.418 0.131 0.464 0.010 0.133-0.039 0.252-0.045 0.383-0.004 0.12 0.001 0.243 0.001 0.363 0 0.203 0.043 0.444-0.015 0.641-0.024 0.104-0.079 0.184-0.166 0.242-0.033 0.012-0.065 0.027-0.096 0.045-0.049 0.064 0.020 0.103-0.059 0.169-0.041 0.035-0.22 0.096-0.28 0.109-0.187 0.040-0.348-0.193-0.431-0.325-0.040-0.064-0.054-0.13-0.076-0.208-0.035-0.121-0.1-0.235-0.113-0.362-0.019-0.198 0.018-0.379-0.030-0.575-0.036-0.149-0.115-0.371-0.031-0.52-0.059-0.034-0.213 0.085-0.267 0.12-0.091 0.060-0.247 0.245-0.278 0.349-0.018 0.061-0.001 0.12-0.004 0.183-0.005 0.115-0.046 0.223-0.053 0.339-0.005 0.125 0.017 0.204-0.053 0.322-0.051 0.088-0.14 0.138-0.175 0.235-0.023 0.059-0.013 0.125-0.036 0.185-0.044 0.114-0.138 0.178-0.239 0.24-0.214 0.133-0.426 0.34-0.678 0.382-0.217 0.035-0.437 0.058-0.657 0.056-0.193 0-0.437 0.054-0.563-0.13-0.034-0.050-0.040-0.109-0.066-0.16-0.064-0.121-0.198-0.23-0.292-0.325-0.115-0.114-0.282-0.211-0.322-0.379-0.026-0.113 0-0.25 0-0.364 0.001-0.327 0.036-0.64 0.050-0.964 0.015-0.34 0.034-0.725-0.093-1.049-0.125-0.319-0.388-0.528-0.577-0.801-0.078-0.115-0.14-0.234-0.238-0.334-0.145-0.15-0.333-0.243-0.518-0.334-0.164-0.081-0.363-0.12-0.518-0.211-0.081-0.049-0.071-0.056-0.104-0.137-0.024-0.054-0.039-0.164-0.091-0.202 0.011 0.204 0 0.357 0.068 0.553 0.043 0.128 0.065 0.247 0.135 0.366 0.076 0.13 0.133 0.225 0.136 0.384 0.004 0.275-0.012 0.505-0.184 0.725-0.143 0.184-0.249 0.337-0.438 0.479-0.14 0.105-0.173 0.227-0.267 0.363-0.060 0.086-0.14 0.159-0.207 0.243-0.166 0.207-0.257 0.432-0.378 0.663-0.132 0.249-0.273 0.414-0.23 0.712 0.040 0.287 0.063 0.615 0.178 0.883 0.041 0.093 0.111 0.15 0.16 0.235 0.048 0.083 0.076 0.173 0.126 0.258 0.133 0.224 0.204 0.461 0.254 0.715 0.030 0.153 0.054 0.213-0.055 0.333-0.083 0.090-0.181 0.17-0.283 0.238-0.156 0.105-0.28 0.208-0.406 0.351-0.040 0.046-0.053 0.070-0.105 0.102-0.118 0.078-0.238 0.036-0.359 0.064-0.113 0.026-0.28 0.053-0.34 0.148-0.041 0.066-0.063 0.257-0.081 0.327-0.038 0.135-0.049 0.255-0.049 0.393 0 0.237 0.055 0.434 0.14 0.647-0.1 0.033-0.228-0.208-0.275-0.264-0.125-0.148-0.264-0.275-0.379-0.432-0.25-0.342-0.228-0.698-0.24-1.099-0.004-0.124 0.004-0.128-0.094-0.193-0.076-0.050-0.157-0.116-0.24-0.154-0.143-0.065-0.35-0.055-0.498-0.070-0.18-0.020-0.359-0.053-0.539-0.068 0.34 0.133 0.408 0.675 0.423 0.994 0.007 0.146 0.001 0.292-0.027 0.436-0.033 0.166-0.119 0.314-0.157 0.478-0.033 0.139 0 0.293-0.004 0.436-0.005 0.164-0.094 0.3-0.103 0.461-0.006 0.131 0.040 0.252-0.016 0.381-0.1 0.232-0.426 0.413-0.608 0.573-0.273 0.239-0.612 0.497-0.985 0.323-0.199-0.093-0.328-0.228-0.551-0.284-0.239-0.059-0.505-0.079-0.74 0.008-0.215 0.080-0.398 0.225-0.577 0.365-0.174 0.135-0.358 0.269-0.402 0.5-0.033 0.169-0.040 0.488 0.004 0.653 0.068-0.041 0.115-0.207 0.174-0.279 0.114-0.142 0.267-0.208 0.432-0.103 0.34 0.218 0.52 0.648 0.524 1.033 0.004 0.212-0.024 0.275-0.208 0.388-0.225 0.139-0.412 0.273-0.595 0.467-0.194 0.207-0.297 0.437-0.335 0.719-0.031 0.234 0.11 0.333 0.2 0.522 0.058 0.116 0.034 0.254 0.035 0.381 0.001 0.175 0.021 0.343-0.11 0.478-0.307 0.317-0.75 0.427-1.169 0.426-0.17 0-0.188 0.030-0.298-0.090-0.104-0.11-0.104-0.206-0.17-0.33-0.046 0.098 0.044 0.298 0.063 0.402 0.038 0.212 0.041 0.431 0.081 0.641 0.027 0.143 0.108 0.213 0.169 0.333 0.079 0.16 0.073 0.363 0.18 0.511 0.048 0.065 0.113 0.093 0.164 0.154 0.042 0.050 0.069 0.128 0.094 0.188 0.093 0.225 0.086 0.452 0.116 0.689 0.026 0.208 0.114 0.437 0.055 0.645-0.066 0.229-0.164 0.407-0.175 0.651-0.010 0.237 0.003 0.477 0.003 0.715 0 0.208-0.061 0.511 0.051 0.693 0.093 0.149 0.245 0.232 0.382 0.331 0.128 0.094 0.247 0.199 0.374 0.293 0.28 0.207 0.592 0.357 0.848 0.6 0.157 0.148 0.249 0.367 0.329 0.563 0.020 0.048 0.042 0.188 0.076 0.292-0.13-0.091-0.386-0.15-0.463-0.179-0.194-0.070-0.406-0.123-0.608-0.164-0.049-0.014-0.099-0.017-0.148-0.012-0.048 0.004-0.093 0.019-0.133 0.044-0.096-0.009-0.069-0.068-0.134-0.126-0.016 0.064 0.063 0.17 0.086 0.225 0.064 0.14 0.108 0.285 0.157 0.432 0.113 0.332 0.308 0.548 0.522 0.821 0.204 0.258 0.449 0.368 0.76 0.462 0.129 0.039 0.264 0.035 0.393 0.073 0.146 0.043 0.253 0.114 0.364 0.214 0.13 0.118 0.267 0.23 0.391 0.354 0.119 0.119 0.199 0.27 0.318 0.388 0.131 0.128 0.285 0.205 0.384 0.367 0.069 0.113 0.063 0.242 0.125 0.35 0.053 0.094 0.164 0.147 0.252 0.199 0.143 0.084 0.288 0.175 0.437 0.247 0.317 0.153 0.685 0.181 0.984 0.365 0.213 0.13 0.424 0.27 0.647 0.383 0.094 0.048 0.195 0.073 0.289 0.116 0.108 0.049 0.187 0.128 0.299 0.168 0.377 0.138 0.881 0.030 1.207 0.285 0.111 0.088 0.175 0.194 0.203 0.332 0.021 0.111 0.005 0.177 0.078 0.257 0.145 0.156 0.466 0.206 0.665 0.239 0.227 0.036 0.541 0.149 0.766 0.116 0.090-0.014 0.166-0.045 0.26-0.049 0.119-0.005 0.252 0.029 0.367-0.005 0.016-0.154 0.482-0.090 0.591-0.111 0.098-0.019 0.17-0.045 0.275-0.024 0.15 0.031 0.232 0.144 0.349 0.229 0.099 0.071 0.189 0.108 0.302 0.146 0.187 0.066 0.328 0.182 0.499 0.274 0.21 0.114 0.303 0.001 0.491-0.113 0.178-0.106 0.215-0.312 0.398-0.394 0.12-0.054 0.205-0.138 0.32-0.195 0.113-0.056 0.247-0.045 0.368-0.044 0.218 0.004 0.404-0.017 0.611-0.045 0.19-0.025 0.264-0.068 0.407-0.188 0.189-0.158 0.362-0.208 0.608-0.194 0.244 0.013 0.383 0.26 0.55 0.421 0.091 0.088 0.008 0.050 0.18 0.068 0.174 0.019 0.406 0.095 0.566 0.009 0.108-0.056 0.114-0.083 0.144-0.195 0.025-0.089 0.032-0.181 0.059-0.27 0.050-0.173 0.181-0.323 0.357-0.376 0.105-0.031 0.243-0.054 0.349-0.033 0.071 0.014 0.113 0.069 0.172 0.086 0.115 0.036 0.232-0.069 0.322-0.136 0.040-0.029 0.109-0.065 0.147-0.096 0.005-0.011 0.011-0.022 0.016-0.035 0.11-0.158 0.248-0.287 0.273-0.151 0.012-0.002 0.026-0.006 0.039-0.009 0.005-0.081 0.049-0.085 0.091-0.14 0.066-0.088 0.103-0.181 0.188-0.263 0.23-0.22 0.433-0.479 0.628-0.726 0.254-0.32 0.698-0.553 1.083-0.665 0.164-0.048 0.324-0.13 0.486-0.189 0.065-0.025 0.13-0.049 0.192-0.084 0.063-0.035 0.151-0.063 0.208-0.104 0.108-0.083 0.178-0.225 0.287-0.314 0.079-0.065 0.104-0.138 0.165-0.212 0.046-0.056 0.148-0.088 0.183-0.15 0.054-0.099 0.002-0.295-0.026-0.381-0.020-0.058-0.034-0.17-0.070-0.218-0.041-0.054-0.101-0.052-0.144-0.1-0.074-0.084-0.164-0.272-0.133-0.384 0.023-0.081 0.147-0.19 0.202-0.248 0.095-0.099 0.209-0.19 0.324-0.264 0.068-0.043 0.145-0.045 0.21-0.083 0.106-0.060 0.185-0.125 0.299-0.174 0.37-0.164 0.511-0.655 0.655-1.004 0.083-0.199 0.069-0.378 0.069-0.591 0-0.060 0.016-0.137 0.003-0.194-0.021-0.106-0.111-0.217-0.142-0.317-0.023-0.070-0.054-0.181-0.055-0.257-0.001-0.121 0.076-0.153 0.148-0.238 0.051-0.061 0.096-0.123 0.153-0.178 0.073-0.073 0.155-0.093 0.253-0.129 0.109-0.040 0.218-0.123 0.325-0.157 0.11-0.035 0.248-0.009 0.362-0.010 0.208-0.001 0.23 0.069 0.339 0.233 0.028-0.015 0.076-0.028 0.101-0.046 0.044-0.035 0.073-0.090 0.123-0.129 0.114-0.088 0.169-0.134 0.193-0.285 0.010-0.074 0.026-0.073 0.046-0.128 0.021-0.063 0.054-0.031 0.039-0.118z"></path>
</svg>
