<!-- Generated by IcoMoon.io -->
<svg version="1.1" xmlns="http://www.w3.org/2000/svg" width="32" height="32" viewBox="0 0 32 32">
<title>turn_back_time</title>
<path d="M25.425 21.124c-0.14 0.278-0.29 0.581-0.457 0.845-0.119 0.191-0.186 0.337-0.245 0.551-0.061 0.224-0.208 0.43-0.303 0.641-0.081 0.179-0.16 0.405-0.28 0.555-0.075 0.094-0.128 0.090-0.179 0.205-0.028 0.065-0.026 0.128-0.062 0.199-0.086 0.17-0.225 0.321-0.343 0.477-0.075 0.099-0.103 0.208-0.171 0.31-0.074 0.107-0.189 0.203-0.272 0.302-0.179 0.219-0.285 0.453-0.432 0.697-0.185 0.306-0.43 0.544-0.641 0.828-0.452 0.607-0.933 1.196-1.388 1.808-0.278 0.371-0.582 0.731-0.877 1.088-0.079 0.096-0.192 0.269-0.319 0.337-0.070 0.010-0.163 0.017-0.261 0.015-0.225-0.006-0.207 0.041-0.359 0.211-0.216 0.241-0.507 0.228-0.344-0.135 0.113-0.248 0.208-0.45 0.245-0.717 0.037-0.254 0.053-0.558 0.175-0.78 0.177-0.322 0.525-0.529 0.735-0.825 0.087-0.123 0.138-0.273 0.245-0.385 0.105-0.107 0.133-0.097 0.228-0.257 0.070-0.115 0.13-0.257 0.215-0.362 0.118-0.148 0.237-0.209 0.339-0.382 0.151-0.253 0.322-0.584 0.511-0.808 0.274-0.321 0.433-0.766 0.656-1.101 0.197-0.298 0.349-0.631 0.555-0.934 0.188-0.277 0.325-0.549 0.43-0.862 0.099-0.293 0.329-0.537 0.486-0.8 0.144-0.242 0.331-0.578 0.278-0.874-0.039-0.212-0.192-0.225-0.326-0.36-0.127-0.13-0.248-0.257-0.38-0.379-0.125-0.113-0.188-0.257-0.301-0.379-0.125-0.133-0.27-0.242-0.391-0.366-0.196-0.201-0.329-0.476-0.538-0.676-0.135-0.128-0.168-0.252-0.265-0.404-0.052-0.083-0.115-0.154-0.166-0.257-0.074-0.148-0.171-0.264-0.233-0.419-0.064-0.154-0.107-0.323-0.205-0.46-0.419-0.588-0.909-1.119-1.424-1.62-0.237-0.232-0.464-0.55-0.661-0.816-0.183-0.248-0.372-0.609-0.612-0.802-0.137-0.109-0.29-0.122-0.412-0.257-0.083-0.094-0.139-0.212-0.244-0.29-0.066-0.049-0.232-0.057-0.273-0.105-0.049-0.056-0.010-0.216-0.028-0.289-0.103-0.404-0.060-0.858-0.060-1.284v-0.839c0-0.113 0.006-0.228 0.001-0.341-0.006-0.122-0.050-0.143-0.070-0.24-0.086-0.425-0.006-0.95-0.006-1.388 0-0.228 0-0.454 0-0.682 0-0.289 0.072-0.555 0.078-0.837 0.003-0.113-0.009-0.225-0.002-0.337 0.005-0.118 0.053-0.142 0.070-0.233 0.036-0.192-0.037-0.411 0.002-0.603 0.021-0.099 0.069-0.152 0.081-0.26 0.011-0.101-0.006-0.189 0.015-0.289 0.019-0.081 0.061-0.132 0.060-0.244-0.002-0.125 0-0.25 0-0.375 0-0.407 0.048-0.803 0.072-1.208 0.030-0.519 0.192-1.052 0.151-1.577 0.098 0.081 0.195 0.313 0.25 0.425 0.111 0.221 0.168 0.466 0.264 0.69 0.042 0.102 0.128 0.176 0.174 0.268 0.066 0.138 0.082 0.294 0.131 0.436 0.032 0.093 0.064 0.184 0.093 0.277 0.072 0.22 0.167 0.278 0.305 0.464 0.186 0.249 0.172 0.587 0.394 0.814 0.152 0.156 0.322 0.256 0.445 0.448 0.184 0.289 0.221 0.632 0.221 0.963 0.001 0.574 0.077 1.093 0.077 1.664v2.784c0 0.195-0.023 0.404-0.004 0.597 0.015 0.156 0.074 0.291 0.082 0.452 0.015 0.305-0.058 0.612 0.072 0.9 0.044 0.097 0.098 0.191 0.145 0.286 0.072 0.147 0.127 0.282 0.217 0.421 0.143 0.223 0.236 0.46 0.399 0.665 0.068 0.085 0.091 0.209 0.166 0.286 0.111 0.117 0.213 0.128 0.274 0.305 0.017 0.048 0.004 0.105 0.028 0.151 0.011 0.021 0.098 0.058 0.121 0.087 0.078 0.106 0.093 0.25 0.147 0.367 0.079 0.174 0.26 0.27 0.371 0.432 0.264 0.385 0.624 0.71 0.861 1.098 0.147 0.238 0.355 0.416 0.533 0.624 0.144 0.171 0.34 0.358 0.456 0.551 0.225 0.379 0.633 0.66 0.902 1.018 0.279 0.372 1.057 0.749 0.782 1.296z"></path>
<path d="M16.24 2.335c0.001 0.126 0 0.253 0 0.379 0 0.146 0.013 0.297-0.017 0.437-0.011 0.052-0.050 0.094-0.061 0.167-0.010 0.074 0.013 0.155 0.004 0.23-0.020 0.15-0.079 0.212-0.077 0.378 0.001 0.172 0.012 0.347-0.017 0.517-0.058 0.334-0.038 0.648-0.053 0.983-0.012 0.25-0.113 0.486-0.144 0.734-0.024 0.181-0.019 0.368-0.015 0.55 0.009 0.411-0.144 0.792-0.154 1.204-0.008 0.37-0.016 0.717-0.056 1.086-0.029 0.276 0.009 0.547-0.011 0.82-0.015 0.213-0.111 0.411-0.145 0.621-0.030 0.197-0.014 0.396-0.013 0.595 0.004 0.513-0.002 1.025 0 1.538 0.002 0.367-0.073 0.673-0.364 0.915-0.081 0.068-0.16 0.15-0.237 0.22-0.127 0.114-0.222 0.301-0.379 0.366-0.131 0.054-0.107 0.008-0.245 0.124-0.123 0.106-0.241 0.217-0.372 0.317-0.099 0.074-0.159 0.128-0.234 0.233-0.184 0.254-0.261 0.51-0.529 0.681-0.25 0.16-0.415 0.393-0.666 0.552-0.527 0.331-0.95 0.886-1.297 1.395-0.074 0.109-0.152 0.224-0.219 0.344-0.086 0.156-0.115 0.38-0.23 0.515-0.118 0.136-0.207 0.2-0.299 0.378-0.117 0.223-0.252 0.379-0.375 0.584-0.105 0.176-0.203 0.372-0.295 0.537 0.094 0.050 0.082 0.305 0.119 0.404 0.029 0.077 0.075 0.144 0.097 0.217 0.061 0.208 0.126 0.437 0.207 0.629 0.073 0.171 0.208 0.303 0.286 0.47 0.118 0.25 0.124 0.59 0.204 0.858 0.023 0.077 0.060 0.136 0.106 0.199 0.017 0.024 0.081 0.039 0.091 0.061 0.041 0.087 0.016 0.147 0.068 0.23 0.074 0.122 0.189 0.232 0.266 0.355 0.070 0.113 0.090 0.233 0.133 0.347 0.029 0.074 0.065 0.122 0.097 0.197 0.094 0.217 0.042 0.436 0.174 0.632 0.052 0.078 0.136 0.118 0.172 0.209 0.016 0.041 0.001 0.15 0.029 0.197s0.094 0.086 0.127 0.134c0.088 0.126 0.13 0.29 0.216 0.424 0.168 0.26 0.344 0.493 0.509 0.743 0.156 0.234 0.313 0.489 0.421 0.753 0.032 0.078 0.026 0.148 0.074 0.231 0.045 0.078 0.103 0.144 0.154 0.225 0.118 0.189 0.144 0.423 0.24 0.628 0.068 0.147 0.16 0.247 0.22 0.393 0.040 0.099 0.092 0.276 0.16 0.351 0.095 0.103 0.204 0.107 0.29 0.236 0.058 0.087 0.079 0.171 0.147 0.25 0.123 0.142 0.208 0.254 0.23 0.453 0.017 0.152 0.032 0.412-0.016 0.555-0.020 0.004-0.041 0.007-0.062 0.013 0.441 0.176-0.021 0.247-0.097 0.366-0.302-0.118-0.534-0.302-0.737-0.575-0.136-0.184-0.315-0.296-0.453-0.468-0.119-0.148-0.197-0.317-0.359-0.428-0.106-0.072-0.236-0.11-0.344-0.181-0.126-0.082-0.228-0.168-0.358-0.229-0.101-0.048-0.142-0.062-0.228-0.148-0.192-0.189-0.306-0.438-0.454-0.664-0.191-0.289-0.266-0.612-0.415-0.923-0.168-0.352-0.309-0.727-0.49-1.071-0.113-0.212-0.269-0.393-0.383-0.607-0.079-0.15-0.196-0.233-0.29-0.371-0.124-0.182-0.128-0.42-0.24-0.615-0.068-0.119-0.109-0.192-0.152-0.314-0.094-0.272-0.215-0.584-0.395-0.819-0.272-0.352-0.445-0.743-0.572-1.174-0.187-0.631-0.464-1.236-0.641-1.857-0.037-0.128-0.13-0.378-0.042-0.511 0.054-0.082 0.142-0.052 0.197-0.106 0.024-0.024 0.011-0.095 0.032-0.121 0.441-0.523 0.929-1.049 1.33-1.607 0.156-0.219 0.363-0.39 0.53-0.605 0.131-0.171 0.221-0.345 0.338-0.518 0.040-0.058 0.111-0.091 0.154-0.163 0.037-0.060 0.097-0.16 0.117-0.228 0.023-0.081-0.006-0.147 0.010-0.224 0.026-0.135 0.083-0.212 0.156-0.327 0.106-0.166 0.134-0.296 0.205-0.452 0.089-0.192 0.27-0.397 0.382-0.59 0.215-0.368 0.493-0.739 0.775-1.057 0.132-0.148 0.238-0.325 0.381-0.464 0.074-0.070 0.178-0.122 0.246-0.196 0.122-0.134 0.2-0.299 0.209-0.478 0.005-0.124 0-0.253-0.002-0.376-0.001-0.176 0.060-0.293 0.078-0.454 0.029-0.253 0.048-0.665-0.019-0.911-0.139-0.515-0.020-1.051 0.075-1.573 0.088-0.486 0.019-1.040 0.017-1.533-0.001-0.113-0.026-0.257-0.004-0.366 0.016-0.077 0.060-0.131 0.073-0.203 0.024-0.133-0.004-0.269 0.023-0.4 0.037-0.017 0.058-0.046 0.064-0.087-0.002-0.054-0.005-0.107-0.007-0.16 0.019-0.069 0.064-0.083 0.098-0.143 0.072-0.125 0.114-0.238 0.209-0.346 0.189-0.215 0.297-0.468 0.476-0.702 0.176-0.231 0.362-0.423 0.567-0.623 0.187-0.182 0.276-0.429 0.393-0.661 0.284-0.554 0.661-1.047 0.933-1.615 0.089-0.188 0.166-0.513 0.303-0.668 0.126-0.144 0.209-0.105 0.189 0.077-0.025 0.236-0.138 0.435-0.135 0.67z"></path>
<path d="M16.694 18.236c0.16 0.37 0.221 0.759 0.398 1.121 0.065 0.134 0.090 0.274 0.147 0.401 0.040 0.087 0.117 0.147 0.158 0.239 0.086 0.192 0.081 0.416 0.203 0.595 0.074 0.11 0.164 0.168 0.229 0.294 0.093 0.177 0.177 0.352 0.286 0.522 0.118 0.185 0.294 0.335 0.323 0.543 0.033 0.236-0.164 0.473-0.248 0.682-0.119 0.299-0.183 0.609-0.305 0.906-0.139 0.337-0.213 0.726-0.374 1.064-0.054 0.115-0.119 0.166-0.158 0.298-0.045 0.16-0.072 0.31-0.131 0.466-0.046 0.118-0.044 0.347-0.154 0.421 0.001-0.032 0.002-0.064 0.002-0.095-0.068 0.131-0.176 0.346-0.285 0.579-0.117 0.249-0.2 0.539-0.49 0.244-0.107-0.109-0.139-0.2-0.224-0.323-0.077-0.111-0.184-0.127-0.272-0.22-0.068-0.073-0.101-0.212-0.166-0.293-0.148-0.183-0.323-0.234-0.44-0.452-0.142-0.265-0.281-0.468-0.473-0.694-0.144-0.171-0.138-0.352-0.216-0.554-0.083-0.217-0.253-0.34-0.375-0.531-0.148-0.232-0.232-0.506-0.375-0.743-0.095-0.158-0.22-0.199-0.246-0.372-0.020-0.14 0.010-0.256 0.060-0.383 0.119-0.306 0.256-0.605 0.376-0.905 0.13-0.323 0.304-0.603 0.456-0.91 0.138-0.279 0.276-0.551 0.419-0.816 0.094-0.175 0.233-0.319 0.335-0.489 0.281-0.468 0.692-0.861 0.935-1.35 0.044-0.089 0.089-0.307 0.224-0.309 0.075-0.001 0.212 0.237 0.231 0.309 0.024 0.089-0.005 0.197 0.013 0.289 0.005 0.026 0.054 0.049 0.064 0.089 0.017 0.075-0.025 0.162-0.007 0.236 0.013 0.060 0.056 0.086 0.079 0.142z"></path>
<path d="M11.913 8.008c-0.040-0.053-0.288-0.093-0.346-0.105-0.201-0.040-0.411-0.087-0.616-0.086-0.225 0.002-0.45 0.002-0.674 0.001-0.126 0-0.257-0.002-0.374 0.037-0.105 0.036-0.169 0.131-0.289 0.163-0.276 0.075-0.575 0.041-0.857 0.074-0.187 0.023-0.376 0.058-0.562 0.093-0.113 0.022-0.208 0.032-0.31 0.086-0.094 0.052-0.189 0.107-0.287 0.15-0.204 0.089-0.493 0.107-0.717 0.119-0.257 0.012-0.526 0.008-0.78-0.021-0.148-0.016-0.301-0.016-0.446-0.054-0.142-0.037-0.273-0.086-0.419-0.109-0.224-0.034-0.461-0.078-0.688-0.085-0.273-0.009-0.546 0.002-0.819 0-0.207-0.001-0.405 0.053-0.608 0.082-0.24 0.033-0.482 0.048-0.726 0.070-0.085 0.010-0.367 0.102-0.429-0.001 0.127 0.007 0.254-0.004 0.383 0.007 0.343 0.030 0.719 0.117 1.025 0.277 0.228 0.119 0.435 0.26 0.68 0.343 0.113 0.039 0.225 0.078 0.343 0.092 0.137 0.017 0.28 0.002 0.417 0.001 0.311-0.001 0.57 0.038 0.868 0.105 0.215 0.048 0.413 0.124 0.628 0.169 0.208 0.044 0.397 0.14 0.612 0.175 0.205 0.032 0.484 0.032 0.69 0 0.125-0.019 0.245-0.072 0.366-0.107 0.176-0.050 0.354-0.091 0.53-0.144 0.385-0.117 0.79-0.123 1.191-0.122 0.413 0.002 0.857-0.061 1.245 0.103 0.128 0.054 0.252 0.123 0.385 0.167 0.093 0.029 0.189 0.037 0.284 0.062 0.105 0.028 0.212 0.106 0.254-0.034 0.050-0.175 0.006-0.411 0.006-0.588v-0.522c0-0.082-0.029-0.244 0.006-0.318 0.011-0.001 0.021-0.003 0.032-0.081z"></path>
<path d="M20.699 8.008c-0.002 0.257 0.101 0.497 0.131 0.754 0.021 0.18 0.021 0.358 0.021 0.538-0.001 0.113-0.029 0.262-0.001 0.371 0.013 0.052-0.015 0.052 0.036 0.082 0.019 0.012 0.114-0.001 0.13-0.001 0.095 0 0.159-0.013 0.25-0.030 0.089-0.019 0.177-0.001 0.266-0.016 0.097-0.017 0.191-0.049 0.289-0.061 0.142-0.017 0.285 0.002 0.427-0.016 0.236-0.032 0.466-0.011 0.703-0.032 0.147-0.012 0.29-0.057 0.437-0.074 0.159-0.020 0.317-0.040 0.474-0.066 0.284-0.046 0.566-0.086 0.853-0.086 0.538 0 1.061 0.201 1.596 0.189 0.236-0.005 0.462 0.062 0.696 0.095 0.276 0.040 0.558 0.098 0.837 0.095 0.833-0.011 1.668 0 2.501 0-0.428-0.005-0.79-0.201-1.162-0.396-0.208-0.109-0.42-0.184-0.609-0.323-0.179-0.132-0.376-0.207-0.564-0.323-0.192-0.12-0.405-0.188-0.625-0.245-0.239-0.061-0.462-0.135-0.69-0.227-0.432-0.172-0.864-0.333-1.318-0.427-0.181-0.037-0.36-0.029-0.546-0.029-0.285 0-0.568-0.013-0.849 0.030-0.22 0.033-0.456 0.009-0.677 0.009-0.276 0-0.55 0.001-0.824-0.001-0.315-0.001-0.587 0.085-0.89 0.144-0.27 0.053-0.579 0.009-0.892 0.046z"></path>
<path d="M11.648 10.924v0.907c0 0.159-0.001 0.318 0 0.477 0 0.094 0.001 0.188-0.046 0.273-0.050 0.090-0.163 0.152-0.241 0.217-0.127 0.109-0.297 0.159-0.433 0.254-0.090 0.064-0.195 0.13-0.279 0.2-0.111 0.092-0.199 0.212-0.307 0.306-0.086 0.074-0.216 0.177-0.319 0.222-0.078 0.034-0.166 0.021-0.25 0.021-0.188-0.001-0.376 0-0.563 0-0.473 0-0.946-0.004-1.418 0-0.197 0.001-0.337-0.045-0.518-0.106-0.151-0.050-0.318-0.094-0.453-0.178-0.17-0.103-0.318-0.11-0.511-0.142-0.119-0.020-0.233-0.056-0.356-0.065-0.199-0.013-0.391-0.012-0.59-0.040-0.299-0.044-0.599-0.094-0.897-0.142-0.133-0.021-0.256-0.075-0.388-0.097-0.139-0.022-0.256-0.034-0.383-0.094-0.199-0.091-0.416-0.15-0.624-0.217-0.156-0.052-0.399-0.111-0.47-0.277 0.203-0.049 0.468-0.006 0.673-0.006h0.794c0.598 0 1.195-0.001 1.793-0.001 0.405 0.001 0.817-0.016 1.204-0.15 0.225-0.078 0.46-0.115 0.685-0.191 0.195-0.065 0.399-0.117 0.596-0.171 0.203-0.057 0.427-0.070 0.636-0.105 0.238-0.038 0.478-0.028 0.719-0.028 0.134 0.001 0.24 0.015 0.358-0.046 0.117-0.061 0.219-0.15 0.339-0.197 0.143-0.057 0.276-0.133 0.421-0.183 0.13-0.046 0.258-0.075 0.39-0.119 0.032-0.011 0.072-0.010 0.101-0.020 0.056-0.019 0.073-0.054 0.14-0.070 0.082-0.019 0.121-0.016 0.201-0.045 0.050-0.019 0.091-0.050-0.001-0.189z"></path>
<path d="M21.115 11.568c0.019 0.142 0.050 0.266 0.040 0.413-0.013 0.201-0.050 0.411-0.087 0.611-0.015 0.078-0.044 0.156-0.057 0.234-0.015 0.083-0.002 0.164-0.017 0.246-0.020 0.114-0.040 0.213 0.054 0.303 0.049 0.045 0.083 0.042 0.148 0.056 0.128 0.026 0.256 0.066 0.383 0.097 0.146 0.034 0.284 0.036 0.43 0.045 0.099 0.006 0.187 0.038 0.288 0.040 0.338 0.005 0.676-0.002 1.013 0 0.114 0.001 0.216-0.016 0.329-0.029 0.168-0.021 0.339-0.010 0.507-0.010 0.315 0 0.633 0.001 0.95 0 0.24-0.002 0.473 0.011 0.71 0.049 0.147 0.023 0.289 0.019 0.435 0.036 0.195 0.021 0.39 0.036 0.584 0.058 0.18 0.021 0.36 0.001 0.542 0.006 0.118 0.004 0.229 0.034 0.346 0.041 0.097 0.005 0.195-0.001 0.29-0.001 0.13 0 0.261-0.006 0.385-0.037 0.102-0.024 0.159-0.072 0.262-0.075 0.142-0.005 0.322-0.042 0.457-0.085-0.013-0.062-0.155-0.085-0.213-0.106-0.172-0.060-0.36-0.078-0.539-0.113-0.208-0.040-0.398-0.114-0.6-0.17-0.173-0.046-0.35-0.121-0.49-0.234-0.099-0.081-0.209-0.15-0.305-0.234-0.131-0.115-0.225-0.242-0.376-0.334-0.129-0.077-0.257-0.118-0.4-0.163-0.103-0.033-0.211-0.069-0.318-0.093-0.123-0.027-0.245-0.028-0.367-0.066-0.241-0.078-0.457-0.155-0.713-0.183-0.213-0.024-0.424-0.086-0.635-0.122-0.221-0.038-0.423-0.143-0.645-0.179-0.168-0.026-0.327-0.078-0.494-0.107-0.616-0.105-1.273-0.046-1.897 0.105z"></path>
<path d="M22.517 15.734c0.052 0.016 0.085 0.062 0.13 0.090 0.082 0.049 0.168 0.081 0.249 0.136 0.233 0.16 0.444 0.315 0.549 0.59 0.042 0.111 0.105 0.366 0.246 0.399 0.053 0.012 0.138 0 0.191-0.006 0.158-0.020 0.297-0.034 0.46-0.034 0.398 0.001 0.795 0.003 1.192 0 0.151-0.001 0.282 0.026 0.429 0.040 0.111 0.011 0.23-0.002 0.343-0.001 0.131 0 0.248-0.009 0.376-0.037 0.142-0.032 0.254-0.102 0.389-0.155 0.109-0.042 0.224-0.056 0.338-0.082 0.091-0.021 0.183-0.046 0.274-0.068 0.045-0.011 0.094-0.012 0.126-0.046-0.061-0.058-0.155-0.062-0.231-0.081-0.221-0.056-0.439-0.127-0.66-0.184-0.445-0.115-0.878-0.227-1.296-0.419-0.396-0.183-0.831-0.201-1.249-0.291-0.376-0.082-0.76-0.106-1.139-0.155-0.16-0.021-0.31-0.082-0.469-0.113-0.156-0.029-0.323-0.026-0.478-0.064-0.094-0.024-0.245-0.105-0.164 0.062 0.075 0.155 0.269 0.323 0.432 0.374 0.087 0.026 0.145 0.095-0.038 0.046z"></path>
<path d="M9.602 15.204c0 0.211-0.074 0.355-0.174 0.544-0.078 0.15-0.143 0.309-0.211 0.46-0.049 0.107-0.115 0.208-0.164 0.317-0.036 0.081-0.099 0.237-0.172 0.29-0.037 0.028-0.081 0.019-0.13 0.017-0.174-0.001-0.348 0.010-0.522 0.003-0.257-0.011-0.568-0.026-0.81-0.13-0.344-0.15-0.664-0.379-1.047-0.435-0.424-0.061-0.859-0.089-1.286-0.117-0.172-0.011-0.347-0.002-0.519-0.002-0.121 0-0.241 0-0.36 0.001-0.082 0.001-0.205 0.019-0.274-0.038 0.046-0.131 0.439-0.146 0.526-0.152 0.329-0.026 0.633-0.156 0.951-0.231 0.122-0.028 0.245-0.036 0.368-0.056 0.155-0.025 0.302-0.078 0.453-0.123 0.301-0.089 0.644-0.128 0.957-0.16 0.262-0.028 0.525-0.038 0.786-0.074 0.225-0.030 0.45-0.028 0.673-0.066 0.159-0.027 0.302-0.048 0.464-0.048 0.169 0.001 0.325 0.025 0.492 0z"></path>
</svg>
