<!-- Generated by IcoMoon.io -->
<svg version="1.1" xmlns="http://www.w3.org/2000/svg" width="34" height="32" viewBox="0 0 34 32">
<title>undimensioned_and_unseen</title>
<path d="M25.986 28.77c0.5-0.738 1.323-1.292 1.988-1.786 0.031-0.021 0.056-0.045 0.087-0.071 0.474-0.604 0.918-1.246 1.458-1.795 0.434-0.444 0.953-0.793 1.387-1.231 0.59-0.59 0.656-1.206 0.882-1.958 0.137-0.46 0.43-0.717 0.666-1.1 0.368-0.59 0.545-1.205 0.681-1.846-0.358 0.337-0.933 0.601-1.261 0.787-1.035 0.59-1.543 0.233-1.983-0.858-0.303-0.731-0.762-1.771-0.908-2.588-0.142-0.781 0.716-1.644 0.519-2.229-0.121-0.349-0.474-0.415-0.696-0.616-0.413-0.368-0.833-0.807-1.106-1.281-0.686-1.222-0.892-2.377-1.983-3.33-0.061 0.014-0.125 0.014-0.186-0.010-0.918-0.363-1.882 0.136-2.771-0.198-0.085-0.030-0.151-0.065-0.207-0.106-0.344 0.081-0.757-0.045-1.135-0.212-0.646 0.132-1.321 0.071-1.589-0.535-0.227-0.070-0.45-0.176-0.666-0.332-0.993-0.707-1.488-2.307-1.514-3.472-0.019-1.115 0.137-2.184-0.993-2.811-0.161-0.090-0.338-0.151-0.515-0.191-0.726 0.040-1.469 0.307-2.2 0.338-0.934 0.035-1.62 0.504-2.493 0.675-0.276 0.050-0.554 0.025-0.832 0.005-0.201-0.010-0.368-0.005-0.519 0.015-0.071 0.009-0.147 0.025-0.217 0.035-0.267 0.061-0.515 0.161-0.849 0.307-0.429 0.177-0.787 0.212-1.21 0.156-0.161 0.056-0.318 0.116-0.469 0.187-0.566 0.267-1.141 0.464-1.722 0.656-0.747 0.247-1.427 0.983-1.346 1.856 0.11 1.17 1.443 1.307 2.38 1.323 0.903 0.014 1.66-0.248 2.411 0.358 0.42 0.333 1.418 1.231 1.55 1.755 0.226 0.924-0.995 1.635-1.72 1.751-0.566 0.085-1.781-0.096-1.357-0.995-0.227 0.227-0.257 0.691-0.187 1.106 0.127 0.736 0.595 0.827 1.297 0.818 1.569-0.021 3.941-1.786 2.548-3.442-1.212-1.443-2.614-2.648-4.672-2.729-0.167-0.707 0.373-1.311 1.085-1.311 0.287 0 0.53 0.146 0.807 0.136 0.368-0.010 0.736-0.252 1.059-0.358 1.68-0.561 3.269-0.757 4.995-1 0.934-0.13 1.115-0.075 1.574 0.677 0.302 0.493 0.535 1.2 0.535 1.795 0 0.849-0.156 1.423 0.172 2.286 0.337 0.887 0.969 0.635 1.518 1.13 0.378 0.342 0.278 1.236 0.601 1.639 0.298 0.369 0.964 0.571 1.423 0.656 0.736 0.142 2.225 0.167 2.729-0.509-0.121 0.646 0.752 0.66 1.111 0.752 0.599 0.156 1.25 0.464 1.679 0.969 0.571 0.66 0.489 1.458 1.378 1.901-0.238 0.616-0.489 1.918-0.298 2.564 0.207 0.691 0.515 0.217 0.071 0.903-0.257 0.399-0.5 0.595-0.63 1.069-0.293 1.085-0.061 2.2 0.898 2.669-1.029-0.419-1.226-1.079-1.604-2.285-0.127-0.399-0.288-0.833-0.318-1.241-0.026-0.389 0.101-0.686-0.097-1.085-0.701-1.427-3.33-1.321-4.601-1.937-0.535-0.262-0.555-0.707-0.889-1.236-0.443-0.712-0.998-1.241-1.806-1.549-0.812-0.307-1.58-0.418-2.266 0.13-0.307 0.243-0.307 0.59-0.823 0.606-1.407 0.026-1.241-2.023-0.489-1.957-0.247-0.097-0.453-0.303-0.792-0.147-0.514 0.232-0.646 1.075-0.554 1.54 0.267 1.398 1.356 0.797 2.099 1.634 0.781-0.651 0.752-1.503 1.776-0.781 0.146-0.495 1.286-0.187 1.639 0.019 1.106 0.656 0.066 1.333 0.413 2.175 0.152 0.354 0.712 0.59 1.060 0.661 0.434 0.090 0.646-0.116 0.988-0.137 0.849-0.040 1.333 1.373 2.114 1.085 0.005 0.736 0.358 1.438 0.58 2.125 0.222 0.675 0.056 1.009 0.005 1.689-0.045 0.626 0 1.281 0.479 1.766 0.238 0.238 0.576 0.309 0.828 0.515-0.474-0.061-1.035 0.207-1.434 0.439-1.069 0.615-1.872 1.311-3.229 1.075-0.872-0.151-1.851-0.63-1.559-1.569 0.167-0.55 0.642-1.075 1.222-0.979-0.182 2.382 1.125 0.045 2.123 0.288 0.621-0.741 0.601-1.514-0.035-2.2-0.424-0.45-0.778-0.641-0.611-1.323 0.061-0.262 0.137-0.459 0.293-0.585-0.349 0.031-0.686-0.085-0.883 0.566-0.302 1.028 0.606 1.054 0.934 1.776 0.267 0.599-0.293 1.372-0.948 1.311-0.687-0.056-0.389-0.969-1.182-0.812-1.483 0.288-2.411 2.977-1.311 3.956 0.924 0.823 1.932 1.14 3.102 0.903 0.635-0.136 2.705-1.115 2.896 0.212-0.267-0.056-0.549-0.222-0.837-0.182-0.46 0.061-1.175 0.738-1.538 0.989-1.14 0.772-3.199 2.049-4.041 0.248-0.621-1.323-1.832-2.917-1.469-4.38 0.353-1.448 0.776-2.917 0.505-4.43-0.087-0.484-0.309-1.443-0.954-1.519-0.641-0.075-1.382 0.484-2.144 0.384-1.993-0.257-0.721-2.517-2.75-2.578-1.689-0.050-3.214 0.606-4.434-0.882-0.767-0.939-1.323-2.387-2.644-2.68 0 0-0.288-1.16-0.288-1.261 0-0.283 0.106-0.575 0.267-0.833-0.161-0.524-0.575-0.882-1.155-0.403-0.484 0.403-1.015 0.988-1.236 1.589-0.036 0.096-0.097 0.147-0.167 0.167-0.076 0.378-0.071 0.762 0.019 1.115 0.071 0.267 0.378 0.48 0.394 0.738 0.030 0.393-0.344 0.439-0.495 0.771-0.585 1.297 0.979 1.611 1.757 1.923-0.005 0.035-0.010 0.070-0.021 0.106 0.57 0.328 0.45 1.155 0.313 1.776-0.167 0.747-0.267 1.286 0.222 1.957 0.262 0.364 0.641 0.606 0.964 0.904 0.283 0.262 0.519 0.787 0.545 1.241 0.030 0.464-0.535 0.696-0.717 0.71-1.543 0.151-2.477-1.977-0.983-1.71-2.059-1.533-1.958 3.224 1.427 2.498 0.712-0.161 1.009-0.717 1.104-0.793 0.097-0.156-0.231-0.863-0.217-1.064 0.066-0.818-0.797-1.519-1.079-2.2-0.232-0.564-0.102-0.918 0.056-1.519 0.191-0.757 0.186-1.306-0.198-2.003-0.151-0.287-0.338-0.474-0.545-0.675-0.096-0.096-0.413-0.101-0.479-0.186-0.196-0.278 0.010-0.732 0.101-1.1 0.378 0.787 0.969 1.635 1.418 1.731 0.57 0.121 0.333-0.418 0.878 0.156 0.272 0.292 0.388 0.59 0.736 0.818 0.519 0.333 1.337 0.58 1.917 0.766 0.303 0.097 0.677 0.253 0.989 0.217 0.302-0.040 0.5-0.342 0.858-0.358 0.464 0.717 0.318 1.62 1.17 2.16 0.404 0.262 0.913 0.252 1.368 0.288 0.696 0.056 1.741-0.005 2.16 0.655 0.262 0.409 0.106 1.019 0.106 1.453-0.010 0.767 0.146 1.444 0.222 2.185 0.090 0.892 0.096 1.75 0.318 2.628 0.167 0.651-0.021 1.104 0.035 1.726 0.071 0.752 1.085 1.342 1.715 1.655-0.929 0.132-2.674 1.055-3.451-0.019-0.217-0.309-0.075-0.807-0.035-1.146 0.090-0.863 0.127-1.66-0.030-2.517-0.227-1.283-0.48-3.123-1.701-3.88-0.524-0.323-1.422-0.818-2.049-0.691-1.155 0.241-1.917 1.549-2.417 2.457-0.373 0.675-0.096 1.246 0.010 1.948 0.106 0.736-0.050 1.523 0.242 2.219 0.394 0.949 1.802 1.726 2.791 1.040 0.747-0.519 0.893-1.832 0.045-2.321-0.495-0.278-0.979-0.080-0.807 0.576-0.005-0.066 0.025-0.222 0.030-0.303 0.894-0.167 0.752 0.929 0.106 1.175-0.933 0.359-1.090-1.075-1.044-1.684 0.005-0.076 0.014-0.156 0.030-0.238-0.025-0.056-0.035-0.121-0.015-0.201 0.111-0.373 0.071-0.696-0.217-0.974-0.171-0.167-0.101-0.55 0.182-0.535 0.514 0.030 0.943-0.585 1.363-0.812 0.524-0.288 0.933-0.066 1.186 0.424 0.156 0.106 0.282 0.247 0.363 0.45 0.005 0.014 0.010 0.030 0.015 0.050 0.353 0.333 0.585 0.837 0.63 1.352 0.076 0.812 0.292 1.726 0.273 2.528-0.021 0.736-0.358 1.422-0.535 2.118-0.177 0.682-0.182 1.615 0.691 1.837 0.444 0.116 0.908 0 1.387 0.137 0.399 0.116 0.823 0.363 1.236 0.408 0.363 0.040 1.161 0.031 1.413-0.313 0.238-0.116 0.555-0.127 0.812-0.238 0.318-0.136 0.479-0.313 0.823-0.333 0.413-0.019 0.887 0.323 1.306 0.177 0.318-0.111 0.783-0.58 1.13-0.747 0.338-0.161 0.682-0.378 1.080-0.429 0.293-0.040 0.691 0.121 0.989-0.021 0.353-0.171 0.524-0.564 0.913-0.731 0.307-0.127 0.706-0.167 1.069-0.146 0.191-0.167 0.408-0.303 0.63-0.434z"></path>
<path d="M28.928 15.738c0.141-0.313 0.332-0.595 0.479-0.908 0.353-0.767 0.519-1.615 0.675-2.437 0.283-1.519-0.347-2.679-1.196-3.92-0.927-1.363-1.351-2.78-1.726-4.364-0.125-0.53-0.201-0.887-0.655-1.191-0.203-0.136-0.571-0.413-0.807-0.469-0.187-0.040-0.42 0.080-0.606 0.075-0.248-0.004-0.469-0.065-0.717-0.045-0.59 0.056-0.469 0.368-0.524 0.883-0.191 1.912-3.774 0.59-2.644-0.767 0.222-0.272 1-0.448 1.054 0.076 0.041 0.368-0.615 0.635-0.58 0.191-0.040 0.257 0.156 0.404 0.424 0.45 0.475 0.080 0.706-0.903 0.611-1.161-0.212-0.575-1.104-0.58-1.599-0.019-0.132 0.151-0.182 0.207-0.338 0.338-0.262 0.226-0.384 0.226-0.419 0.554-0.040 0.368 0.378 1.252 0.615 1.514 0.354 0.389 1.394 0.823 1.958 0.651 0.243-0.071 0.479-0.363 0.666-0.5 0.247-0.181 0.535-0.267 0.741-0.509 0.146-0.177 0.167-0.505 0.328-0.656 0.313-0.288 1.326 0.080 1.472 0.484 0.111 0.318-0.186 0.509 0.021 0.863 0.217 0.373 0.384 0.505 0.459 0.964 0.127 0.778 0.439 1.493 0.757 2.24 0.076 0.187 0.192 0.349 0.192 0.555-0.010 0.232-0.293 0.464-0.267 0.707 0.019 0.161 0.236 0.344 0.318 0.484 0.161 0.273 0.292 0.62 0.353 0.924 0.147 0.731-0.358 1.453-0.387 2.134z"></path>
</svg>
