<!-- Generated by IcoMoon.io -->
<svg version="1.1" xmlns="http://www.w3.org/2000/svg" width="32" height="32" viewBox="0 0 32 32">
<title>unfriendly_ports</title>
<path d="M4.404 30.764c-0.058-0.151-0.079-5.432-0.047-11.735l0.059-11.459 0.514-1.043c0.64-1.3 2.156-2.805 3.482-3.458 1.409-0.694 4.296-0.718 5.747-0.050 1.466 0.676 2.932 2.157 3.63 3.667l0.601 1.3v22.942l-6.94 0.055c-5.596 0.044-6.961 0.002-7.046-0.22zM5.772 30.174c0-0.171 0.077-0.17 0.287 0.003 0.379 0.314 10.124 0.296 10.505-0.020 0.184-0.153 0.263-0.148 0.263 0.016 0 0.129 0.282 0.234 0.626 0.234h0.626v-18.165l-0.515 0.375c-0.446 0.324-0.521 0.557-0.561 1.73l-0.046 1.356-0.076-1.213c-0.042-0.667-0.145-1.183-0.229-1.147-0.424 0.182-3.579 2.559-3.579 2.696 0 0.087 1.032 1.305 2.294 2.707s2.293 2.651 2.291 2.777c-0.005 0.32-1.249 1.157-1.534 1.031-0.129-0.057-0.798-0.765-1.486-1.574l-1.251-1.471-0.22 9.96-0.093-10.333-0.861-0.934c-0.473-0.514-0.953-0.934-1.065-0.934-0.215 0-1.786 1.151-2.141 1.569-0.115 0.135-0.279 0.259-0.366 0.275s-0.345 0.147-0.574 0.29c-0.396 0.247-0.419 0.517-0.465 5.58l-0.048 5.32-0.060-5.162c-0.033-2.839-0.14-5.162-0.239-5.162s-0.302 0.147-0.451 0.327c-0.149 0.18-0.442 0.283-0.651 0.228-0.352-0.092-0.383 0.113-0.424 2.853l-0.044 2.953-0.112-3.546c-0.062-1.95-0.067-5.047-0.011-6.883l0.101-3.337 0.215 6.137 1.877-1.465c1.032-0.806 1.912-1.564 1.955-1.686s-0.17-0.468-0.473-0.769-0.761-0.828-1.017-1.17l-0.466-0.622-0.231 4.373-0.041-2.225c-0.044-2.414-0.14-2.885-0.585-2.885-0.16 0-0.291-0.099-0.291-0.221s-0.294-0.587-0.654-1.035c-0.607-0.756-0.635-0.86-0.39-1.452 0.377-0.91 0.582-0.959 1.27-0.3l0.609 0.583-0.016-5.814-0.918 0.997c-0.511 0.555-1.108 1.506-1.347 2.146-0.414 1.107-0.43 1.551-0.43 12.195v11.046h0.521c0.287 0 0.521-0.105 0.521-0.234zM10.231 20.397c0-1.319 0.034-1.859 0.075-1.199s0.041 1.739 0 2.399c-0.041 0.66-0.075 0.12-0.075-1.199zM16.027 18.408c-0.697-0.695-0.549-1.434 0.303-1.517 0.396-0.038 0.785 0.070 0.991 0.276 0.186 0.186 0.339 0.661 0.339 1.054 0 0.646-0.055 0.713-0.574 0.693-0.315-0.012-0.792-0.24-1.059-0.506zM17.326 18.345c0.133-0.216-0.448-1.077-0.727-1.077-0.349 0-0.449 0.589-0.156 0.92 0.31 0.351 0.719 0.424 0.884 0.157zM16.818 21.762c0.29-0.35 0.189-0.568-0.734-1.573-0.368-0.401-1.21-1.34-1.87-2.086s-2.484-2.623-4.053-4.171c-1.569-1.549-2.307-2.302-1.64-1.675s1.213 1.066 1.213 0.974c0-0.33-3.405-3.871-3.604-3.748-0.114 0.070-0.049 0.213 0.147 0.323 0.276 0.155 0.299 0.26 0.106 0.492-0.316 0.381 1.094 2.021 5.093 5.924 2.594 2.532 3.677 3.831 3.411 4.097-0.050 0.050-0.202-0.176-0.338-0.503s-1.060-1.386-2.056-2.353c-1.947-1.892-1.858-1.741 0.688 1.161 0.905 1.032 1.734 1.877 1.842 1.877s0.252 0.141 0.321 0.313c0.243 0.607 0.75 1.251 0.984 1.251 0.13 0 0.351-0.137 0.489-0.304zM16.096 21.439c-0.083-0.135-0.058-0.339 0.057-0.454 0.139-0.139 0.259-0.127 0.36 0.036 0.083 0.135 0.058 0.339-0.057 0.453-0.139 0.139-0.259 0.127-0.36-0.036zM8.762 18.381c1.103-0.784 2.007-1.531 2.010-1.661s-0.136-0.353-0.309-0.496c-0.263-0.218-0.638-0.013-2.291 1.251-1.087 0.832-1.925 1.596-1.861 1.699 0.138 0.223 0.273 0.149 1.755-0.964 1.597-1.2 2.503-1.82 2.503-1.715 0 0.049-0.986 0.813-2.19 1.697s-2.19 1.658-2.19 1.72c0 0.227 0.613-0.137 2.573-1.531zM13.847 14.813c0.369-0.277 0.651-0.601 0.626-0.719s0.085-0.262 0.244-0.32c0.194-0.071 0.235-0.017 0.124 0.163-0.109 0.177-0.083 0.217 0.079 0.117 0.134-0.083 0.194-0.232 0.133-0.331s-0.016-0.239 0.101-0.311c0.117-0.072 0.212-0.029 0.212 0.097s0.516-0.162 1.147-0.638c0.631-0.476 1.147-0.901 1.147-0.943s-0.201-0.054-0.446-0.027c-0.245 0.027-0.488-0.068-0.539-0.211s0.056-0.261 0.238-0.261c0.182 0 0.33-0.094 0.33-0.209s-0.139-0.209-0.31-0.209c-0.359 0-4.904 3.523-4.904 3.801 0 0.232 0.144 0.148 2.138-1.243 0.889-0.62 1.616-1.081 1.616-1.023s-0.748 0.632-1.662 1.276c-1.667 1.175-2.22 1.685-1.547 1.426 0.262-0.101 0.312-0.063 0.187 0.139-0.203 0.329 0.085 0.176 1.086-0.575zM13.176 14.866c0.229-0.187 0.605-0.432 0.834-0.544l0.417-0.205-0.417 0.34c-0.229 0.187-0.605 0.432-0.834 0.544l-0.417 0.205zM12.768 13.489c0.925-0.698 1.144-0.982 1.169-1.512 0.030-0.624 0.035-0.628 0.118-0.084l0.086 0.569 1.342-1.076c0.982-0.787 1.35-1.22 1.371-1.612l0.028-0.536 0.096 0.509c0.053 0.28 0.33 0.843 0.617 1.251l0.522 0.742-0.098-1.925c-0.113-2.232-0.674-3.636-1.972-4.94-0.73-0.733-2.48-1.79-2.964-1.79-0.134 0-0.234 1.552-0.272 4.223l-0.061 4.223-0.095-8.701-1.512 0.085c-0.941 0.053-1.886 0.254-2.503 0.532l-0.991 0.448v6.298l1.981 2.12 0.224-7.247 0.089 7.612 0.754 0.835c0.415 0.459 0.794 0.835 0.843 0.835s0.601-0.387 1.227-0.859zM10.36 13.852c0-0.043-0.164-0.208-0.365-0.365-0.331-0.259-0.338-0.252-0.079 0.079 0.272 0.347 0.444 0.458 0.444 0.286zM24.712 15.235c-2.814-1.245-3.055-1.395-3.171-1.977-0.069-0.347-0.126-2.402-0.126-4.567 0-3.659 0.029-3.966 0.417-4.354 0.229-0.229 0.417-0.608 0.417-0.841s0.141-0.478 0.313-0.544c0.212-0.081 0.313-0.414 0.313-1.036 0-0.504 0.094-0.916 0.209-0.916s0.209 0.377 0.209 0.837c0 0.46 0.117 1.047 0.261 1.304s0.273 0.494 0.288 0.528c0.015 0.034 0.654-0.054 1.421-0.195 1.034-0.191 1.452-0.368 1.62-0.688 0.124-0.237 0.353-0.506 0.508-0.598s0.282-0.397 0.282-0.678 0.094-0.511 0.209-0.511c0.115 0 0.209 0.282 0.209 0.626s0.088 0.626 0.195 0.626c0.107 0 0.252 0.182 0.323 0.404 0.073 0.229 0.355 0.432 0.653 0.469l0.524 0.065-0.019 6.558c-0.010 3.607-0.039 6.574-0.065 6.594s-0.473 0.082-0.995 0.138c-0.829 0.089-1.331-0.068-3.993-1.245zM29.295 13.679c-0.058-2.289-0.070-2.341-0.58-2.499-0.509-0.158-0.508-0.16 0.052-0.090 0.563 0.070 0.574 0.051 0.574-1.047 0-1.073-0.023-1.119-0.574-1.149l-0.574-0.031 0.574-0.087c0.476-0.072 0.574-0.191 0.574-0.699 0-0.349-0.112-0.613-0.261-0.615-0.201-0.003-0.199-0.042 0.009-0.174 0.194-0.123 0.253-0.663 0.209-1.926-0.061-1.742-0.065-1.755-0.635-1.821-0.462-0.053-0.574 0.018-0.574 0.365 0 0.3 0.143 0.44 0.469 0.459l0.469 0.028-0.469 0.090c-0.323 0.062-0.469 0.239-0.469 0.565 0 0.282 0.191 0.573 0.469 0.717l0.469 0.242-0.469-0.119c-0.461-0.117-0.469-0.086-0.469 1.772 0 1.372 0.072 1.892 0.261 1.894 0.207 0.003 0.208 0.037 0.001 0.168-0.313 0.198-0.351 5.252-0.040 5.252 0.107 0 0.195 0.099 0.195 0.221s-0.094 0.163-0.209 0.092c-0.115-0.071-0.209 0.010-0.209 0.179 0 0.33 0.297 0.508 0.893 0.535 0.339 0.015 0.367-0.19 0.313-2.321zM27.413 3.801c-0.077-0.077-3.734 0.53-4.122 0.684-0.172 0.069-0.477 0.104-0.678 0.079-0.338-0.042-0.365 0.29-0.365 4.43 0 3.785 0.048 4.494 0.313 4.595 0.249 0.096 0.313-0.068 0.313-0.802 0-0.507-0.109-1.161-0.242-1.453-0.189-0.414-0.181-0.658 0.035-1.105l0.277-0.574 0.139 0.771c0.142 0.789 0.527 1.419 0.866 1.419 0.106 0 0.164-0.988 0.131-2.242-0.061-2.324-0.375-3.003-0.601-1.304l-0.125 0.939-0.031-0.864c-0.021-0.57-0.142-0.907-0.357-0.989-0.498-0.191-0.143-0.545 0.547-0.545 0.711 0 0.729-0.047 0.277-0.737-0.31-0.474-0.31-0.555 0.005-1.035 0.422-0.645 0.835-0.664 1.259-0.058 0.404 0.577 0.404 0.679-0.001 1.084-0.408 0.408-0.226 0.743 0.326 0.598 0.238-0.062 0.429-0.3 0.445-0.554 0.027-0.428 0.032-0.427 0.119 0.024 0.056 0.293 0.241 0.469 0.493 0.469 0.221 0 0.403 0.141 0.403 0.313 0 0.312-0.387 0.393-1.512 0.319l-0.574-0.038v2.414c0 2.007 0.053 2.414 0.313 2.414 0.251 0 0.32-0.359 0.352-1.825l0.039-1.825 0.118 1.773c0.108 1.628 0.137 1.722 0.361 1.147 0.134-0.344 0.301-0.888 0.371-1.208 0.165-0.756 0.532-0.525 0.531 0.334-0.001 0.711-0.681 2.021-1.049 2.021-0.311 0-0.169 2.55 0.148 2.655 0.138 0.046 0.284-0.176 0.334-0.505l0.088-0.586 0.031 0.646c0.022 0.451 0.173 0.709 0.501 0.855l0.469 0.209 0.055-5.945c0.030-3.27 0.030-5.97-0.001-6.001zM25.377 13.722v-1.044l-0.678 0.053c-0.373 0.029-0.747 0.147-0.831 0.261-0.088 0.12-0.155 0.062-0.156-0.134-0.002-0.188-0.144-0.397-0.316-0.463-0.245-0.094-0.313 0.055-0.313 0.681 0 0.755 0.057 0.826 0.991 1.238 0.545 0.24 1.061 0.44 1.147 0.444s0.156-0.463 0.156-1.037zM24.841 5.356c-0.21-0.34-0.507-0.19-0.507 0.258 0 0.368 0.052 0.399 0.311 0.185 0.171-0.142 0.259-0.341 0.196-0.443zM23.292 3.699c0-0.122-0.086-0.168-0.191-0.103s-0.238-0-0.296-0.144c-0.064-0.158-0.112-0.117-0.122 0.103-0.009 0.201 0.124 0.365 0.296 0.365s0.313-0.099 0.313-0.221zM28.297 2.865c0-0.122-0.087-0.167-0.194-0.101s-0.253 0.025-0.325-0.092c-0.197-0.318-0.523-0.255-0.523 0.101 0 0.195 0.197 0.313 0.521 0.313 0.287 0 0.521-0.099 0.521-0.221z"></path>
</svg>
