<!-- Generated by IcoMoon.io -->
<svg version="1.1" xmlns="http://www.w3.org/2000/svg" width="33" height="32" viewBox="0 0 33 32">
<title>union_and_disillusion</title>
<path d="M10.285 25.588l-0.004-0.027 0.013 0.014zM10.31 25.557l-2.049-1.183-1.361-1.966-1.221-1.969-0.906-2.131-0.351-2.279-0.004-2.315 0.45-2.277 1.192-1.989 1.128-2.036 1.764-1.526 1.252-0.948 1.521-0.425 1.448-0.524 1.543-0.205 1.551-0.387 1.545 0.382 1.514 0.396 1.535 0.364-1.333-0.996-1.663-0.091-2.403-0.452-2.416 0.465-1.643 0.227-1.553 0.603-1.338 0.991-1.298 1.037-1.081 1.257-1.099 1.264-0.796 1.845-0.708 1.888-0.038 2.017 0.23 1.967 0.094 2.028 1.284 2.14 1.234 2.141 1.9 1.544 2.063 1.25-0.009-0.057 0.025-0.014 0.2 0.208 0.101-0.425-0.113-0.058z"></path>
<path d="M24.314 6.28l-0.090 0.283-0.382 0.148-0.334 0.482-0.694 0.427-0.47 0.559-0.42 0.32-0.397 0.433-0.125 0.482-0.184 0.464-0.108 0.456-0.375 0.121-0.029 0.324-0.386 0.296 0.249 0.416 0.12 0.612-0.19 0.972 0.259 0.821 0.163 0.662-0.397 0.48-0.124 0.405-0.101 0.364 0.096 0.376-0.19 0.317-0.313-0.027-0.090 0.255-0.212 0.213-0.387 0.266-1.045 0.427-1.467 0.386-0.414 0.378-0.55 0.284-0.416 0.249-0.427 0.167-0.569 0.352-0.257 0.176-0.28 0.815 0.051 0.332-0.327 0.508-0.073 1.262-0.177 1.785-0.131 1.066-0.451 0.768-0.29 0.294-0.198 0.405 1.768 0.689 1.826 0.461 1.879 0.227 1.87-0.118 1.778-0.582 1.701-0.729 1.649-0.866 1.383-1.25 1.235-1.395 0.955-1.601 0.687-1.727 0.568-1.785-0.192-1.873 0.030-1.931-0.647-1.818-0.47-1.904-1.003-1.694-1.592-1.176z"></path>
<path d="M24.912 3.389c-0.048 0.108-0.118 0.179-0.141 0.244-0.056 0.095-0.121 0.175-0.163 0.238-0.079 0.123-0.137 0.287-0.272 0.473-0.114 0.151-0.23 0.298-0.349 0.446-0.058 0.071-0.124 0.155-0.177 0.215-0.054 0.062-0.106 0.126-0.156 0.191-0.105 0.134-0.194 0.256-0.303 0.41-0.138 0.177-0.284 0.32-0.411 0.451l-0.093 0.095-0.044 0.044-0.020 0.020c0 0.001 0 0.002-0.002 0.007-0.010 0.017-0.055 0.088-0.159 0.203-0.046 0.052-0.142 0.13-0.157 0.149l-0.304 0.275-0.748 0.693c-0.149 0.135-0.265 0.237-0.331 0.316l-0.131 0.166-0.144 0.176c-0.029 0.034-0.034 0.046-0.051 0.071l-0.047 0.078-0.112 0.203-0.222 0.399-0.065 0.138c-0.025 0.052-0.052 0.102-0.079 0.153-0.053 0.098-0.124 0.203-0.18 0.286l-0.292 0.417-0.091 0.132-0.051 0.071c-0.034 0.046-0.066 0.082-0.095 0.112-0.056 0.060-0.094 0.091-0.109 0.103-0.007 0.003-0.010 0.003-0.009-0.001 0.005-0.007-0.009 0.007-0.013 0.014l-0.018 0.020c-0.044 0.043-0.061 0.067-0.056 0.020 0.004-0.010 0.005-0.118-0.002-0.037l-0.018 0.121-0.017 0.123c-0.006 0.035-0.013 0.094-0.018 0.109-0.011 0.050-0.014 0.117-0.014 0.202s0.004 0.188 0.001 0.304c-0.001 0.027-0.002 0.065-0.004 0.083l-0.006 0.057-0.009 0.116c-0.014 0.313 0.022 0.664 0.064 1.028 0.020 0.188 0.042 0.396 0.024 0.61-0.012 0.154-0.006 0.344-0.036 0.566-0.037 0.233-0.111 0.393-0.15 0.556l-0.135 0.524-0.075 0.253-0.036 0.137c-0.017 0.060-0.037 0.113-0.058 0.161l-0.056 0.131-0.034 0.071c-0.014 0.027-0.029 0.055-0.043 0.080-0.064 0.105-0.125 0.178-0.167 0.242-0.020 0.027-0.072 0.105-0.149 0.162-0.018 0.014-0.036 0.027-0.053 0.037l-0.024 0.017c-0.011 0.007-0.012 0.007-0.009 0.007 0.007-0.002 0.012-0.003 0.009 0-0.005 0.007-0.040 0.055-0.108 0.116-0.065 0.055-0.116 0.085-0.165 0.116l-0.504 0.274c-0.301 0.148-0.571 0.349-0.913 0.542l-0.236 0.136-0.214 0.134c-0.142 0.090-0.284 0.185-0.426 0.283l-0.836 0.583c-0.183 0.135-0.36 0.239-0.465 0.315l-0.171 0.13-0.188 0.135c-0.014 0.007-0.103 0.082-0.164 0.119-0.064 0.042-0.121 0.077-0.17 0.105-0.103 0.058-0.148 0.084-0.19 0.114-0.112 0.075-0.261 0.191-0.476 0.317l-0.083 0.047-0.064 0.034 0.006-0.001c0.011-0.003-0.001 0.003-0.013 0.017-0.012 0.010-0.029 0.027-0.038 0.036 0.006 0.001 0.012-0.003 0.016-0.003 0.017-0.010-0.006 0.034-0.036 0.157l-0.027 0.103-0.007 0.031c-0.002 0.014 0.006-0.014 0.006-0.014 0.004-0.014 0.005-0.017 0.006-0.017 0.001 0.002 0 0.027-0.001 0.075l-0.004 0.085-0.011 0.109c-0.032 0.28-0.093 0.477-0.113 0.602-0.051 0.284-0.085 0.607-0.129 0.973-0.049 0.37-0.107 0.72-0.166 1.081l-0.095 0.535c-0.029 0.178-0.069 0.368-0.096 0.498-0.029 0.153-0.055 0.342-0.102 0.56-0.023 0.111-0.054 0.227-0.094 0.348l-0.031 0.090-0.025 0.067-0.053 0.136c-0.073 0.184-0.158 0.385-0.267 0.582l-0.306 0.523c-0.135 0.206-0.283 0.37-0.417 0.512l-0.196 0.2c-0.070 0.071-0.141 0.139-0.213 0.207-0.146 0.134-0.292 0.262-0.446 0.38-0.154 0.119-0.304 0.231-0.479 0.346-0.336 0.226-0.686 0.391-1.025 0.535-0.34 0.147-0.664 0.274-1.023 0.408-0.363 0.124-0.734 0.188-1.073 0.255l-0.089-0.164c0.307-0.235 0.61-0.414 0.873-0.631 0.262-0.214 0.547-0.463 0.82-0.68 0.271-0.225 0.522-0.447 0.737-0.674 0.102-0.112 0.213-0.242 0.316-0.37 0.101-0.13 0.203-0.257 0.297-0.388 0.047-0.065 0.093-0.131 0.137-0.197l0.146-0.213c0.090-0.134 0.159-0.255 0.202-0.358l0.17-0.434c0.043-0.126 0.085-0.259 0.125-0.413l0.030-0.118 0.014-0.061 0.007-0.038c0.009-0.050 0.016-0.108 0.024-0.174 0.016-0.131 0.024-0.297 0.044-0.498l0.064-0.56 0.065-0.522c0.044-0.345 0.1-0.7 0.149-1.035 0.051-0.34 0.1-0.726 0.207-1.139l0.124-0.44c0.009-0.014 0.012-0.089 0.037-0.262 0.007-0.043 0.017-0.093 0.031-0.149l0.021-0.079 0.012-0.034 0.052-0.152c0.079-0.213 0.197-0.508 0.455-0.785 0.061-0.067 0.133-0.132 0.207-0.189 0.060-0.046 0.116-0.084 0.177-0.123 0.063-0.038 0.126-0.076 0.218-0.119l0.036-0.017 0.011-0.003 0.016-0.007 0.035-0.014c0.101-0.043 0.245-0.131 0.44-0.237 0.111-0.061 0.226-0.112 0.283-0.136l0.063-0.027c0.017-0.007-0.002 0.007 0.059-0.027l0.263-0.153c0.087-0.048 0.174-0.1 0.281-0.155 0.203-0.103 0.348-0.155 0.467-0.21l0.528-0.238 0.511-0.21c0.173-0.069 0.35-0.135 0.53-0.195l0.272-0.089 0.257-0.073c0.31-0.095 0.669-0.233 1.033-0.345l0.475-0.157c0.030-0.010 0.056-0.024 0.061-0.024 0.001 0.003 0.024-0.017 0.083-0.071 0.236-0.175 0.091-0.027 0.178-0.123 0.066-0.078 0.124-0.138 0.157-0.184 0.009-0.014 0.017-0.024 0.024-0.035l0.010-0.017 0.017-0.031 0.056-0.111c0.048-0.093 0.105-0.304 0.159-0.468l0.065-0.248 0.063-0.266c0.047-0.182 0.096-0.36 0.103-0.481 0.010-0.134-0.023-0.299-0.032-0.503-0.014-0.143-0.052-0.289-0.106-0.45-0.108-0.333-0.241-0.676-0.337-1.073l-0.032-0.15-0.014-0.078c-0.004-0.027-0.007-0.031-0.012-0.049l-0.066-0.227c-0.025-0.090-0.052-0.201-0.069-0.33l-0.037-0.302-0.018-0.147c-0.011-0.007-0.002-0.206 0.028-0.301 0.058-0.219 0.138-0.348 0.194-0.45l0.020-0.036c0.009-0.014 0.009-0.017 0.027-0.041 0.028-0.042 0.054-0.077 0.076-0.105 0.043-0.057 0.069-0.088 0.069-0.096 0.001-0.003-0.004-0.002-0.012 0.007-0.002-0.002 0.012-0.031 0.017-0.043l0.044-0.098c0.025-0.057 0.073-0.151 0.118-0.239l0.14-0.261c0.070-0.133 0.107-0.212 0.168-0.37 0.053-0.128 0.108-0.232 0.157-0.317l0.128-0.225c0.042-0.078 0.094-0.166 0.153-0.261 0.031-0.048 0.063-0.098 0.099-0.148 0.034-0.047 0.078-0.109 0.109-0.142l0.203-0.23 0.103-0.114c0.034-0.037 0.066-0.075 0.117-0.123 0.184-0.178 0.35-0.295 0.474-0.391l0.085-0.066 0.117-0.085 0.241-0.173 0.238-0.171 0.232-0.159 0.219-0.144 0.111-0.073c0.053-0.036 0.029-0.014 0.047-0.020 0.025-0.007 0.090-0.079 0.21-0.183l0.048-0.038 0.031-0.020 0.059-0.041 0.113-0.076c0.148-0.095 0.278-0.179 0.385-0.262 0.132-0.108 0.29-0.242 0.445-0.354 0.079-0.057 0.161-0.112 0.243-0.165l0.221-0.143c0.142-0.094 0.29-0.186 0.438-0.278 0.117-0.069 0.253-0.208 0.432-0.332 0.088-0.059 0.163-0.090 0.225-0.13 0.090-0.073 0.174-0.102 0.229-0.141z"></path>
</svg>
