<!-- Generated by IcoMoon.io -->
<svg version="1.1" xmlns="http://www.w3.org/2000/svg" width="32" height="32" viewBox="0 0 32 32">
<title>unnatural_stone</title>
<path d="M11.727 30.381c-0.040-1.431-0.104-1.648-0.558-1.867-0.282-0.136-0.405-0.255-0.272-0.263s0.42 0.115 0.639 0.275c0.327 0.239 0.383 0.571 0.316 1.882l-0.081 1.592zM25.844 30.984c-0.122-0.075-0.75-1.644-1.396-3.487l-1.174-3.35-0.671 0.496c-0.77 0.57-0.855 0.839-0.951 3.022l-0.070 1.597-0.089-3.64-1.882 1.824c-3.477 3.369-3.528 3.409-3.951 3.058-0.207-0.172-1.502-1.933-2.877-3.914s-2.596-3.602-2.713-3.602c-0.117 0-0.212-0.185-0.212-0.411s-0.119-0.529-0.264-0.674c-0.288-0.288-0.497-0.004 4.209-5.728 1.482-1.802 2.663-3.434 2.625-3.626s-0.254-0.463-0.481-0.602c-0.343-0.21-0.496-0.139-0.913 0.428-0.275 0.374-0.74 0.939-1.034 1.255l-0.534 0.574 0.466-0.684c0.256-0.376 0.72-0.992 1.032-1.369 0.499-0.603 0.622-0.651 1.035-0.399 0.258 0.157 0.552 0.285 0.654 0.285 0.226 0 2.016-3.525 2.225-4.381 0.095-0.391-0.038-1.181-0.363-2.159-0.468-1.407-0.539-1.503-0.811-1.094-0.164 0.246-0.464 0.653-0.667 0.904-0.454 0.561-0.19-0 0.402-0.855 0.4-0.578 0.393-1.551-0.011-1.533-0.086 0.004-0.577 0.594-1.092 1.312s-2.352 3.256-4.082 5.64c-2.465 3.396-3.464 5.001-4.613 7.411-1.711 3.59-2.103 5.094-1.478 5.671 0.225 0.208 0.273 0.286 0.107 0.174s-0.365-0.14-0.443-0.062-0.393 1.761-0.7 3.74c-0.307 1.979-0.6 3.641-0.652 3.693-0.36 0.366-0.26-0.796 0.455-5.311l0.814-5.141 1.696-3.416c1.657-3.338 1.686-3.424 1.258-3.811-0.487-0.441-0.566-1.018-0.189-1.395 0.179-0.179 0.072-0.514-0.382-1.201-0.527-0.797-0.72-0.93-1.18-0.815-0.684 0.172-1.423-0.047-1.423-0.421 0-0.155 0.368-0.636 0.818-1.068 0.761-0.731 0.811-0.863 0.716-1.889l-0.102-1.103 1.394-1.114c0.767-0.612 1.523-1.117 1.679-1.121 0.515-0.014 0.299 1.025-0.416 1.996-0.855 1.163-0.767 2.006 0.184 1.767 0.477-0.12 0.741 0.020 1.47 0.779 0.489 0.509 1.065 0.925 1.28 0.925 0.239-0 1.258-1.195 2.627-3.080 1.23-1.694 2.311-3.080 2.404-3.080s0.566 1.096 1.052 2.436c0.844 2.326 0.87 2.483 0.59 3.479-0.526 1.872-0.521 1.948 0.24 3.172 0.619 0.996 0.896 1.23 1.692 1.431 0.874 0.22 1.169 0.526 3.639 3.779l2.688 3.54-0.915 0.948c-0.503 0.522-0.977 1.154-1.053 1.405s-0.444 0.63-0.817 0.842l-0.679 0.385 0.36 0.869c0.198 0.478 0.965 2.128 1.705 3.666s1.346 2.835 1.346 2.883c0 0.16-1.356 0.288-1.58 0.149zM18.713 27.707c1.084-1.094 1.393-1.547 1.284-1.882-0.116-0.355-0.098-0.375 0.095-0.102 0.202 0.286 0.368 0.215 1.055-0.45l0.815-0.79-0.52-0.401c-0.516-0.397-0.514-0.398 0.216-0.129 0.68 0.251 0.788 0.221 1.433-0.396 0.631-0.605 0.657-0.682 0.275-0.824-0.232-0.086-1.082-0.224-1.889-0.307-1.401-0.144-1.504-0.12-2.292 0.54-0.567 0.474-0.809 0.854-0.773 1.212 0.029 0.287 0.008 0.342-0.046 0.122-0.117-0.474-0.3-0.499-0.828-0.113-0.308 0.225-0.423 0.79-0.534 2.624-0.085 1.391-0.056 2.337 0.070 2.337 0.117 0 0.855-0.648 1.64-1.441zM18.562 25.498c0-0.314 0.052-0.442 0.115-0.285s0.063 0.413 0 0.57c-0.063 0.157-0.115 0.029-0.115-0.285zM20.123 23.331c-0.314-0.179-0.462-0.33-0.329-0.334s0.441 0.143 0.684 0.327c0.563 0.426 0.383 0.43-0.356 0.007zM15.789 21.396c0-0.783-0.080-0.928-0.581-1.054-0.32-0.080-0.639-0.088-0.709-0.018-0.106 0.106 1.051 1.96 1.233 1.975 0.031 0.002 0.057-0.404 0.057-0.903zM25.598 20.292c-0.905-0.091-1.019 0.016-0.683 0.645l0.266 0.497 1.144-1.070zM17.614 20.707c0-0.126-0.257-0.228-0.57-0.228s-0.57 0.103-0.57 0.228c0 0.126 0.257 0.228 0.57 0.228s0.57-0.103 0.57-0.228zM13.622 19.387l2.509-1.303 0.068-1.689c0.071-1.776-0.185-2.466-0.615-1.661-0.136 0.255-0.385 0.601-0.554 0.769-0.271 0.271-3.188 3.775-4.003 4.808-0.484 0.613-0.111 0.481 2.594-0.924zM13.19 18.75c-0.214-0.558-0.168-0.632 0.204-0.324 0.379 0.315 0.454 0.684 0.139 0.684-0.112 0-0.266-0.162-0.342-0.361zM15.149 16.487c0.005-0.376 0.056-0.503 0.114-0.281s0.054 0.53-0.008 0.684c-0.063 0.154-0.11-0.027-0.105-0.404zM19.895 20.571c0-0.407-0.969-1.41-1.312-1.358-0.219 0.033-0.271 0.016-0.114-0.038 0.655-0.225 0.065-1.262-0.598-1.052-0.299 0.095-0.309 0.074-0.053-0.109 0.264-0.188 0.226-0.375-0.228-1.105l-0.546-0.879-0.069 0.94c-0.051 0.695 0.116 1.303 0.642 2.338 0.662 1.303 0.764 1.399 1.495 1.399 0.431 0 0.784-0.061 0.784-0.136zM26.398 19.565c0.108-0.174-3.269-4.89-4.481-6.257-0.384-0.433-0.446 0.079-0.093 0.762 0.201 0.388 0.313 0.706 0.25 0.706s-0.325-0.411-0.581-0.913c-0.256-0.502-0.576-0.913-0.71-0.913-0.233 0 0.089 0.642 2.488 4.962l1.045 1.882h0.97c0.534 0 1.034-0.103 1.112-0.23zM25.271 18.721c-0.124-0.325-0.098-0.351 0.128-0.128 0.156 0.155 0.226 0.339 0.156 0.409s-0.198-0.056-0.283-0.281zM24.65 17.64c-0.157-0.345-0.481-0.585-0.848-0.627-0.428-0.050-0.742-0.339-1.127-1.039-0.293-0.533-0.476-0.97-0.407-0.97s0.336 0.411 0.592 0.913c0.352 0.69 0.602 0.913 1.025 0.913 0.391 0 0.666 0.206 0.914 0.684 0.195 0.376 0.298 0.684 0.229 0.684s-0.239-0.251-0.379-0.558zM10.887 10.978c1.378-1.831 1.606-2.408 1.001-2.534-0.221-0.046-0.67 0.339-1.141 0.98-0.427 0.581-1.070 1.407-1.429 1.838-0.536 0.641-0.602 0.843-0.371 1.122 0.155 0.187 0.36 0.34 0.454 0.34s0.764-0.785 1.486-1.745zM10.007 9.586c1.291-1.642 1.257-1.544 0.745-2.195l-0.467-0.594-0.784 0.762c-0.887 0.862-0.934 1.073-0.416 1.864 0.439 0.669 0.513 0.683 0.922 0.163zM7.414 8.585c1.203-0.61 1.377-0.878 0.906-1.399-0.357-0.394-0.414-0.368-1.234 0.565-1.266 1.44-1.2 1.608 0.328 0.834zM8.741 5.074c0.524-0.693 0.892-1.321 0.818-1.394s-0.587 0.238-1.141 0.692c-0.813 0.666-0.986 0.935-0.898 1.394 0.060 0.313 0.145 0.569 0.189 0.569s0.508-0.567 1.032-1.261zM20.378 30.118c-0.022-0.421 0.086-0.508 0.601-0.482 0.516 0.026 0.539 0.048 0.128 0.128-0.275 0.053-0.545 0.27-0.601 0.482-0.072 0.273-0.109 0.236-0.128-0.128zM5.997 29.7c0.011-0.266 0.065-0.32 0.138-0.138 0.066 0.165 0.058 0.361-0.018 0.437s-0.13-0.059-0.12-0.299zM6.949 28.112c0.8-0.863 0.856-1.015 0.856-2.359 0-1.205-0.083-1.509-0.513-1.886l-0.513-0.449 0.627 0.382c0.584 0.355 0.627 0.488 0.627 1.906 0 1.5-0.016 1.539-0.97 2.426l-0.97 0.902zM10.179 27.923c-0.066-0.172-0.087-0.865-0.046-1.54l0.074-1.228 0.11 1.54c0.111 1.55 0.083 1.802-0.138 1.227zM10.085 17.627c0.635-0.941 1.206-1.711 1.269-1.711s-0.405 0.77-1.040 1.711c-0.635 0.941-1.206 1.711-1.269 1.711s0.405-0.77 1.040-1.711zM11.016 15.327c0.011-0.266 0.065-0.32 0.138-0.138 0.066 0.165 0.058 0.361-0.018 0.437s-0.13-0.059-0.12-0.299zM11.235 14.434c0.179-0.251 0.866-1.083 1.526-1.848 1.188-1.378 1.195-1.396 0.744-1.805-0.251-0.227-0.406-0.462-0.346-0.522s0.308 0.135 0.551 0.435l0.441 0.544-1.274 1.484c-0.701 0.816-1.43 1.638-1.62 1.826-0.309 0.306-0.311 0.293-0.020-0.114zM13.736 10.162c0.063-0.059 0.473-0.282 0.913-0.495 0.579-0.281 0.705-0.297 0.456-0.060-0.188 0.18-0.599 0.403-0.913 0.495s-0.519 0.119-0.456 0.060zM15.675 8.388c0.195-0.376 0.405-0.684 0.468-0.684s-0.045 0.308-0.24 0.684c-0.195 0.376-0.405 0.684-0.468 0.684s0.045-0.308 0.24-0.684zM16.455 6.62c0.109-0.787 0.125-0.803 0.2-0.2 0.045 0.36-0.008 0.745-0.118 0.855-0.115 0.115-0.15-0.165-0.082-0.655z"></path>
</svg>
