<!-- Generated by IcoMoon.io -->
<svg version="1.1" xmlns="http://www.w3.org/2000/svg" width="32" height="32" viewBox="0 0 32 32">
<title>waking_nightmare</title>
<path d="M13.834 5.096c-0.063-0.045-0.045-0.072-0.060-0.14-0.011-0.039-0.036-0.080-0.054-0.116-0.050-0.107-0.093-0.217-0.137-0.328-0.176-0.461-0.417-0.891-0.601-1.347-0.072-0.178-0.129-0.348-0.224-0.516-0.11-0.194-0.218-0.413-0.375-0.574-0.066-0.068-0.158-0.158-0.258-0.17-0.133-0.016-0.283 0-0.417 0.001-0.14 0.003-0.258 0.012-0.355 0.119-0.047 0.051-0.087 0.084-0.139 0.129-0.047 0.039-0.077 0.096-0.117 0.143-0.087 0.096-0.146 0.193-0.161 0.325-0.020 0.149 0.044 0.25 0.102 0.379 0.060 0.137 0.116 0.295 0.16 0.44 0.038 0.127 0.060 0.259 0.105 0.384 0.038 0.11 0.065 0.213 0.069 0.331 0.001 0.078-0.004 0.158-0.003 0.237 0.001 0.089 0.035 0.146 0.083 0.224 0.083 0.137 0.179 0.252 0.295 0.363 0.172 0.167 0.309 0.345 0.452 0.537 0.238 0.319 0.459 0.682 0.586 1.063 0.054 0.166 0.107 0.325 0.185 0.482 0.135 0.265 0.294 0.515 0.423 0.784 0.125 0.256 0.292 0.486 0.396 0.753 0.029 0.077 0.051 0.149 0.075 0.222 0.036 0.1 0.135 0.194 0.203 0.276 0.020 0.023 0.033 0.050 0.056 0.072 0.047 0.045 0.054 0.068 0.092 0.127 0.092 0.143 0.176 0.285 0.256 0.437 0.095 0.187 0.199 0.402 0.349 0.553 0.077 0.078 0.142 0.131 0.2 0.23 0.062 0.104 0.126 0.19 0.173 0.304 0.035 0.081 0.062 0.124 0.113 0.19 0.053 0.071 0.090 0.154 0.15 0.22 0.033-0.027 0.042-0.088 0.062-0.125 0.053-0.105 0.12-0.188 0.142-0.304 0.042-0.229 0.048-0.492 0.023-0.724-0.029-0.254-0.077-0.5-0.203-0.724-0.081-0.144-0.146-0.297-0.241-0.434-0.090-0.13-0.154-0.286-0.202-0.435-0.047-0.143-0.093-0.288-0.129-0.432-0.060-0.241-0.158-0.471-0.217-0.712-0.081-0.331-0.14-0.662-0.259-0.981-0.096-0.259-0.224-0.491-0.346-0.736-0.042-0.084-0.077-0.164-0.129-0.244-0.033-0.051-0.075-0.099-0.098-0.158-0.032-0.083-0.038-0.176-0.059-0.262-0.008-0.001-0.015-0.003 0.035 0.14z"></path>
<path d="M26.282 3.991c0.005-0.134 0.072-0.218 0.026-0.352-0.034-0.093-0.095-0.191-0.166-0.261-0.093-0.092-0.148-0.128-0.28-0.169-0.144-0.043-0.273-0.065-0.42-0.090-0.116-0.019-0.221-0.078-0.34-0.092-0.101-0.008-0.176-0.019-0.277-0.051-0.157-0.050-0.333-0.131-0.494-0.153-0.155-0.023-0.31-0.008-0.468-0.023-0.119-0.015-0.23-0.023-0.349-0.027-0.143-0.004-0.283-0.041-0.424-0.031-0.522 0.035-1.033-0.157-1.557-0.164-0.474-0.004-0.918 0.015-1.382 0.124-0.16 0.039-0.268 0.117-0.416 0.185-0.172 0.080-0.324 0.151-0.5 0.209-0.105 0.035-0.208 0.093-0.312 0.122-0.099 0.027-0.209 0.035-0.312 0.056-0.128 0.027-0.258 0.023-0.385 0.053-0.114 0.027-0.221 0.057-0.336 0.078-0.178 0.031-0.431 0.095-0.592 0.179-0.114 0.059-0.238 0.065-0.345 0.131-0.113 0.069-0.241 0.089-0.355 0.153-0.218 0.124-0.443 0.251-0.65 0.396-0.304 0.211-0.59 0.426-0.839 0.706-0.063 0.072-0.111 0.151-0.16 0.23 0.030 0.012 0.060 0.016 0.090 0.039 0.554 0.385 1.203 0.513 1.855 0.64 0.011-0.003 0.018-0.008 0.032-0.012 0.596-0.088 1.156-0.312 1.746-0.415 0.676-0.117 1.379-0.124 2.058-0.057 0.048 0.004 0.086 0.019 0.119 0.044 0.066 0.012 0.131 0.023 0.202 0.031 0.080 0.008 0.14 0 0.217 0.019 0.092 0.023 0.182 0.004 0.273 0.023 0.068 0.016 0.117 0.065 0.187 0.079 0.069 0.016 0.134 0.016 0.205 0.031 0.135 0.039 0.263 0.087 0.397 0.127 0.164 0.047 0.345 0.12 0.497 0.196 0.164 0.083 0.352 0.158 0.507 0.261 0.151 0.099 0.318 0.175 0.479 0.227 0.021 0.004 0.057 0.031 0.083 0.042 0.041 0.019 0.065 0.023 0.113 0.035 0.098 0.027 0.194 0.053 0.291 0.080 0.093 0.027 0.173 0.031 0.271 0.041 0.089 0.008 0.148 0.044 0.248 0.042 0.048 0 0.12-0.016 0.167-0.001 0.041 0.008 0.057 0.035 0.101 0.045 0.080 0.016 0.166-0.050 0.227-0.093 0.108-0.078 0.167-0.178 0.241-0.283 0.048-0.069 0.176-0.155 0.173-0.242-0.086-0.019-0.197-0.008-0.288-0.004-0.090 0.001-0.14-0.035-0.229-0.042-0.143-0.016-0.265-0.105-0.392-0.176-0.158-0.088-0.282-0.208-0.426-0.312-0.022-0.016-0.060-0.023-0.086-0.039s-0.041-0.039-0.069-0.053c-0.080-0.044-0.158-0.092-0.241-0.137-0.123-0.065-0.268-0.116-0.382-0.196-0.114-0.078-0.226-0.167-0.345-0.238-0.063-0.035-0.114-0.074-0.185-0.104-0.068-0.027-0.142-0.044-0.218-0.063-0.057-0.016-0.108-0.001-0.167-0.008-0.039-0.004-0.060-0.023-0.090-0.035-0.042-0.012-0.077 0.001-0.117-0.008-0.045-0.008-0.057-0.054-0.11-0.043 0.358 0.016 0.765 0.042 1.108-0.039 0.078-0.019 0.125-0.039 0.206-0.042s0.137-0.039 0.217-0.043c0.175-0.012 0.355 0.001 0.531 0.001 0.139 0 0.276 0 0.414 0 0.166-0.001 0.209 0.016 0.208 0.187-0.001 0.154-0.042 0.269-0.078 0.416-0.017 0.062-0.027 0.105-0.047 0.164-0.019 0.060-0.063 0.163-0.031 0.224 0.051-0.016 0.125-0.066 0.169-0.108 0.021-0.023 0.033-0.051 0.054-0.074 0.026-0.027 0.068-0.044 0.093-0.072 0.039-0.045 0.065-0.143 0.089-0.199 0.031-0.072 0.044-0.096 0.042-0.185-0.003-0.171 0.090-0.268 0.269-0.269 0.090-0.001 0.144-0.027 0.229-0.044 0.12-0.019 0.316 0.047 0.422-0.039 0.071-0.059 0.015-0.115 0.004-0.175-0.019-0.112-0.005-0.239 0-0.349z"></path>
<path d="M9.105 10.836c0.614-0.921 1.263-1.793 2.201-2.406 0.263-0.596 0.519-1.192 0.519-1.853 0-0.039 0.012-0.066 0.020-0.096-0.092-0.004-0.184-0.012-0.28 0-0.37 0.042-0.711 0.155-1.057 0.283-0.238 0.089-0.471 0.2-0.699 0.309-0.117 0.056-0.206 0.151-0.328 0.203-0.116 0.050-0.191 0.148-0.304 0.208-0.161 0.084-0.357 0.254-0.486 0.383-0.081 0.083-0.17 0.152-0.256 0.232-0.098 0.088-0.169 0.196-0.263 0.286-0.075 0.071-0.143 0.158-0.223 0.223-0.084 0.071-0.191 0.12-0.278 0.187-0.149 0.111-0.294 0.194-0.458 0.291-0.14 0.083-0.268 0.125-0.39 0.235-0.354 0.319-0.625 0.671-0.891 1.064-0.292 0.432-0.428 0.962-0.756 1.37-0.089 0.11-0.139 0.247-0.218 0.364-0.065 0.1-0.12 0.199-0.178 0.302-0.075 0.139-0.178 0.258-0.248 0.397-0.074 0.144-0.107 0.337-0.155 0.494-0.033 0.101-0.068 0.167-0.116 0.256-0.059 0.104-0.069 0.226-0.12 0.331-0.063 0.137-0.119 0.253-0.166 0.397-0.042 0.131-0.044 0.196-0.023 0.325 0.017 0.098 0.062 0.203 0.12 0.285 0.081 0.116 0.19 0.11 0.303 0.18 0.093 0.059 0.206 0.12 0.286 0.2 0.044 0.042 0.059 0.122 0.146 0.096 0.131-0.039 0.187-0.238 0.273-0.325 0.060-0.060 0.113-0.089 0.166-0.163 0.104-0.146 0.238-0.167 0.376-0.066 0.071 0.051 0.098 0.056 0.175 0.071 0.060 0.012 0.155 0.046 0.215 0.041 0.038-0.004 0.074-0.031 0.113-0.035 0.030-0.004 0.060 0.004 0.092-0.001 0.059-0.012 0.143-0.042 0.185-0.077-0.033-0.062-0.143-0.084-0.203-0.103-0.060-0.015-0.101-0.035-0.161-0.056-0.14-0.053-0.259-0.086-0.385-0.173-0.14-0.096-0.129-0.142-0.035-0.277 0.080-0.113 0.158-0.226 0.236-0.34 0.101-0.145 0.193-0.3 0.303-0.437 0.050-0.062 0.11-0.089 0.16-0.152 0.051-0.065 0.092-0.092 0.152-0.146 0.263-0.233 0.473-0.584 0.665-0.885-0.038 0.039-0.008 0.072-0.026 0.114-0.017 0.039-0.047 0.059-0.062 0.101-0.011 0.031-0.005 0.057-0.024 0.093-0.027 0.051-0.068 0.086-0.089 0.142-0.027 0.074-0.057 0.143-0.072 0.215-0.015 0.075-0.015 0.139-0.020 0.213-0.011 0.139-0.001 0.28-0.001 0.417-0.001 0.14-0.042 0.289-0.059 0.426-0.011 0.093-0.017 0.185-0.027 0.277-0.003 0.031 0.005 0.057 0.004 0.087-0.001 0.027-0.017 0.063-0.017 0.092 0.003 0.178 0.030 0.348 0.012 0.528-0.015 0.143-0.010 0.297-0.080 0.423-0.042 0.077-0.044 0.136-0.096 0.211-0.053 0.074-0.126 0.155-0.158 0.239 0.068 0.053 0.212-0.004 0.297-0.004 0.128 0 0.244 0.008 0.37-0.035 0.071-0.023 0.173-0.059 0.206-0.132 0.018-0.041 0.004-0.069 0.020-0.108 0.018-0.045 0.069-0.096 0.098-0.137 0.059-0.081 0.065-0.149 0.107-0.227 0.048-0.086 0.089-0.153 0.122-0.245 0.033-0.095 0.068-0.19 0.101-0.285 0.018-0.047 0.027-0.069 0.036-0.113 0.005-0.027 0.005-0.071 0.012-0.092 0.050-0.161 0.084-0.342 0.089-0.522 0.004-0.185 0.050-0.384 0.075-0.566 0.024-0.167 0.068-0.357 0.124-0.52 0.045-0.131 0.077-0.265 0.123-0.396 0.026-0.069 0.062-0.123 0.092-0.188 0.027-0.063 0.014-0.134 0.042-0.199 0.036-0.083 0.101-0.148 0.135-0.235 0.030-0.074 0.071-0.12 0.11-0.188 0.056-0.1 0.080-0.194 0.148-0.289 0.080-0.113 0.158-0.227 0.236-0.34 0.048-0.068 0.081-0.127 0.143-0.176z"></path>
<path d="M13.689 16.169c-0.010-0.057-0.008-0.111-0.011-0.167-0.001-0.057-0.029-0.074-0.056-0.125-0.024-0.050-0.020-0.087-0.021-0.143 0-0.167 0.035-0.343 0.086-0.501 0.051-0.152 0.063-0.307 0.095-0.462 0.020-0.095 0.068-0.171 0.105-0.259 0.045-0.108 0.092-0.218 0.137-0.33 0.116-0.28 0.26-0.55 0.498-0.739 0.187-0.148 0.354-0.333 0.504-0.518 0.054-0.068 0.135-0.153 0.166-0.238 0.011-0.031-0.003-0.059 0.020-0.086-0.004-0.001-0.010 0-0.014-0.003 0.033-0.090 0.111-0.17 0.164-0.25 0.14-0.211 0.325-0.385 0.479-0.586 0.117-0.155 0.227-0.313 0.34-0.471 0.045-0.062 0.056-0.125 0.086-0.196 0.038-0.088 0.083-0.173 0.119-0.263 0.164-0.4 0.199-0.852 0.173-1.283-0.003-0.060-0.026-0.11-0.032-0.168-0.004-0.053 0.001-0.113 0.001-0.164 0-0.080 0-0.158 0-0.238 0-0.17-0.065-0.331-0.108-0.494-0.086-0.325-0.339-0.509-0.595-0.701-0.125-0.093-0.262-0.179-0.342-0.319-0.072-0.129-0.14-0.254-0.179-0.399-0.053-0.188-0.179-0.352-0.226-0.543-0.024-0.099-0.069-0.194-0.086-0.295 0.050-0.012 0.054-0.027 0.104-0.016 0.137 0.035 0.278 0.068 0.417 0.096 0.143 0.031 0.289 0.044 0.432 0.072 0.122 0.027 0.265 0.019 0.381 0.063 0.105 0.039 0.211 0.091 0.316 0.129 0.093 0.035 0.158 0.089 0.241 0.14 0.054 0.035 0.105 0.053 0.155 0.095 0.086 0.075 0.167 0.137 0.235 0.23 0.078 0.108 0.179 0.197 0.235 0.321 0.041 0.090 0.050 0.196 0.080 0.29 0.042 0.131 0.087 0.262 0.12 0.396 0.027 0.108 0.069 0.217 0.089 0.327 0.021 0.131 0.066 0.25 0.086 0.381 0.047 0.318 0.105 0.634 0.146 0.953 0.021 0.155 0.005 0.316 0.005 0.473 0 0.206 0.003 0.402-0.063 0.601-0.11 0.327-0.233 0.649-0.342 0.974-0.041 0.119-0.053 0.247-0.099 0.363-0.021 0.053-0.053 0.099-0.083 0.148-0.060 0.098-0.098 0.203-0.169 0.295-0.105 0.136-0.236 0.25-0.345 0.383-0.111 0.14-0.193 0.273-0.267 0.432-0.199 0.432-0.369 0.882-0.604 1.295-0.191 0.339-0.382 0.708-0.464 1.087-0.032 0.146-0.044 0.29-0.065 0.437-0.020 0.127-0.054 0.256-0.053 0.383 0.004 0.232-0.017 0.467 0.024 0.694 0.036 0.215 0.053 0.429 0.099 0.64 0.053 0.232 0.137 0.483 0.254 0.696 0.062 0.114 0.16 0.214 0.238 0.317 0.090 0.12 0.199 0.237 0.307 0.342 0.102 0.103 0.185 0.191 0.313 0.259 0.185 0.098 0.366 0.209 0.562 0.282 0.169 0.062 0.345 0.124 0.518 0.175 0.093 0.027 0.238 0.035 0.316 0.098-0.026 0.008-0.053 0.004-0.080 0.004-0.12-0.001-0.241 0-0.361 0-0.298 0-0.599 0.008-0.897 0.001-0.217-0.004-0.426-0.075-0.637-0.116-0.208-0.041-0.417-0.14-0.605-0.233-0.149-0.074-0.295-0.161-0.438-0.245-0.158-0.092-0.278-0.225-0.396-0.361-0.056-0.066-0.122-0.119-0.17-0.19-0.042-0.060-0.074-0.127-0.117-0.188-0.095-0.136-0.176-0.283-0.244-0.435-0.148-0.331-0.267-0.717-0.322-1.075-0.036-0.227-0.084-0.456-0.108-0.685-0.015-0.128-0.030-0.254-0.051-0.382z"></path>
<path d="M16.993 13.355c-0.056 0.041-0.053 0.088-0.075 0.146-0.023 0.056-0.059 0.107-0.083 0.161-0.042 0.090-0.066 0.188-0.111 0.277-0.047 0.093-0.095 0.185-0.139 0.28-0.041 0.091-0.045 0.203-0.056 0.301-0.021 0.208-0.053 0.416-0.012 0.623 0.048 0.244 0.133 0.471 0.214 0.706 0.083 0.232 0.224 0.434 0.337 0.652 0.096 0.187 0.194 0.375 0.301 0.557 0.045 0.075 0.066 0.148 0.104 0.224 0.021 0.041 0.050 0.068 0.065 0.113s0.012 0.089 0.033 0.134c0.033 0.072 0.086 0.137 0.125 0.206 0.054 0.099 0.074 0.211 0.135 0.306 0.133 0.205 0.244 0.419 0.367 0.629 0.123 0.209 0.286 0.397 0.416 0.602 0.053 0.081 0.113 0.149 0.17 0.226 0.057 0.075 0.081 0.163 0.151 0.233 0.075 0.077 0.108 0.14 0.161 0.233 0.044 0.077 0.102 0.139 0.143 0.214 0.045 0.084 0.077 0.166 0.123 0.249 0.035 0.063 0.062 0.134 0.101 0.195 0.102 0.161 0.184 0.333 0.274 0.498 0.101 0.182 0.211 0.394 0.351 0.552 0.056 0.063 0.102 0.134 0.164 0.19 0.090 0.080 0.161 0.22 0.278 0.263 0.051-0.015 0.021-0.098 0.026-0.136 0.008-0.081 0.032-0.144 0.030-0.23-0.001-0.154 0.029-0.268 0.051-0.414 0.029-0.185 0.022-0.384 0.034-0.572 0.003-0.060 0.026-0.115 0.032-0.175 0.011-0.105-0.001-0.218-0.001-0.325 0-0.148 0.011-0.292-0.027-0.437-0.026-0.101-0.056-0.211-0.093-0.307-0.114-0.3-0.244-0.599-0.401-0.879-0.059-0.107-0.114-0.214-0.176-0.319-0.084-0.151-0.126-0.315-0.206-0.465-0.151-0.285-0.324-0.567-0.491-0.845-0.181-0.3-0.379-0.578-0.527-0.897-0.051-0.113-0.123-0.214-0.181-0.324-0.050-0.092-0.086-0.19-0.135-0.281-0.060-0.111-0.146-0.203-0.206-0.313-0.044-0.078-0.089-0.154-0.134-0.227-0.098-0.158-0.22-0.302-0.315-0.461-0.021-0.042-0.045-0.084-0.071-0.125-0.024-0.031-0.051-0.057-0.081-0.083-0.041-0.054-0.053-0.117-0.084-0.176-0.042-0.078-0.105-0.137-0.148-0.217-0.032-0.063-0.074-0.125-0.116-0.182-0.041-0.056-0.080-0.119-0.122-0.173-0.038-0.050-0.089-0.092-0.196-0.209z"></path>
<path d="M19.833 17.239c0.005 0.035 0.087 0.089 0.113 0.115 0.057 0.056 0.119 0.103 0.181 0.152 0.125 0.099 0.273 0.188 0.407 0.277 0.062 0.039 0.128 0.080 0.19 0.117 0.101 0.062 0.194 0.083 0.3 0.128 0.143 0.060 0.271 0.149 0.405 0.226 0.151 0.086 0.319 0.172 0.455 0.283 0.223 0.182 0.402 0.429 0.572 0.659 0.142 0.193 0.268 0.416 0.392 0.623 0.111 0.188 0.202 0.39 0.256 0.601 0.123 0.477 0.090 1.018-0.029 1.493-0.026 0.096-0.063 0.184-0.086 0.282-0.035 0.157-0.127 0.325-0.191 0.474-0.066 0.152-0.144 0.3-0.209 0.453-0.038 0.086-0.080 0.17-0.11 0.259-0.038 0.115-0.060 0.233-0.116 0.342-0.078 0.153-0.2 0.269-0.278 0.426-0.14 0.277-0.253 0.583-0.364 0.872-0.026 0.068-0.072 0.12-0.098 0.187-0.026 0.068-0.024 0.136-0.053 0.203-0.048 0.117-0.101 0.229-0.142 0.349-0.098 0.295-0.148 0.64-0.144 0.951 0.001 0.202-0.044 0.453 0.030 0.641 0.030 0.078 0.032 0.155 0.069 0.232 0.053 0.103 0.136 0.185 0.191 0.288 0.22 0.419 0.56 0.811 1.001 1.004 0.298 0.129 0.604 0.211 0.914 0.304 0.343 0.101 0.724 0.065 1.064 0.179-0.093 0.091-0.28 0.081-0.394 0.101-0.352 0.062-0.698 0.066-1.054 0.066-0.325 0-0.703 0.053-1.016-0.063-0.148-0.054-0.304-0.115-0.435-0.205-0.203-0.142-0.424-0.286-0.574-0.483-0.429-0.571-0.726-1.242-0.754-1.962-0.015-0.387 0.039-0.759 0.095-1.141 0.014-0.098 0.045-0.191 0.063-0.288 0.019-0.113 0.034-0.221 0.068-0.331 0.051-0.167 0.095-0.34 0.16-0.504 0.057-0.144 0.104-0.294 0.169-0.435 0.042-0.092 0.057-0.185 0.107-0.276 0.069-0.124 0.096-0.271 0.144-0.402 0.065-0.181 0.095-0.369 0.154-0.549 0.044-0.136 0.066-0.269 0.095-0.409 0.022-0.115 0.019-0.23 0.048-0.345 0.080-0.316 0.086-0.643 0.154-0.961 0.039-0.176 0.021-0.361 0.021-0.542 0-0.065 0.005-0.131-0.005-0.195-0.014-0.080-0.059-0.145-0.089-0.218-0.053-0.129-0.11-0.236-0.194-0.348-0.096-0.127-0.217-0.226-0.318-0.346-0.101-0.124-0.245-0.196-0.357-0.305s-0.199-0.295-0.254-0.434c-0.113-0.286-0.19-0.587-0.282-0.879-0.030-0.090-0.048-0.185-0.072-0.277-0.011-0.035-0.060-0.122-0.196-0.388z"></path>
<path d="M23.137 23.093c-0.001 0.095-0.023 0.144-0.057 0.233-0.036 0.095-0.044 0.194-0.077 0.288-0.024 0.069-0.059 0.13-0.077 0.203-0.042 0.176-0.048 0.34-0.051 0.522-0.003 0.245 0.066 0.458 0.158 0.682 0.045 0.108 0.090 0.221 0.128 0.333 0.031 0.096 0.031 0.197 0.077 0.29 0.071 0.148 0.139 0.295 0.202 0.447 0.042 0.099 0.102 0.179 0.157 0.271 0.042 0.071 0.071 0.143 0.122 0.206 0.068 0.083 0.119 0.168 0.172 0.262 0.024 0.045 0.048 0.090 0.078 0.131 0.054 0.078 0.131 0.131 0.193 0.202 0.086 0.098 0.148 0.215 0.221 0.322 0.057 0.080 0.123 0.143 0.188 0.217 0.128 0.142 0.224 0.325 0.334 0.483 0.179 0.251 0.333 0.527 0.503 0.786 0.077 0.117 0.143 0.241 0.223 0.357 0.069 0.099 0.116 0.212 0.182 0.312 0.041 0.062 0.086 0.107 0.119 0.173 0.048 0.092 0.107 0.175 0.164 0.262 0.069 0.103 0.133 0.214 0.215 0.305 0.066 0.075 0.114 0.167 0.176 0.249 0.078 0.104 0.158 0.2 0.242 0.301 0.209 0.251 0.432 0.483 0.652 0.723 0.083 0.090 0.203 0.182 0.304 0.248 0.057 0.039 0.119 0.069 0.179 0.103 0.051 0.031 0.139 0.102 0.197 0.098-0.041-0.066-0.083-0.153-0.114-0.23-0.041-0.103-0.057-0.199-0.108-0.298-0.033-0.063-0.062-0.128-0.093-0.191-0.080-0.158-0.137-0.322-0.205-0.482-0.056-0.131-0.16-0.247-0.233-0.369-0.066-0.111-0.131-0.224-0.193-0.339-0.155-0.283-0.233-0.58-0.36-0.875-0.125-0.29-0.247-0.587-0.388-0.869-0.151-0.298-0.269-0.617-0.402-0.923-0.146-0.334-0.254-0.709-0.437-1.025-0.051-0.090-0.116-0.175-0.155-0.273-0.041-0.099-0.060-0.203-0.117-0.297-0.148-0.241-0.324-0.464-0.477-0.7-0.137-0.212-0.309-0.397-0.455-0.602-0.137-0.194-0.25-0.407-0.384-0.604-0.087-0.132-0.19-0.254-0.273-0.388-0.057-0.092-0.126-0.214-0.211-0.286-0.087-0.072-0.211-0.111-0.319-0.259z"></path>
<path d="M14.53 12.022c-0.298-0.003-0.628-0.077-0.872-0.268-0.19-0.148-0.357-0.307-0.489-0.506-0.071-0.105-0.116-0.209-0.161-0.327-0.042-0.104-0.090-0.212-0.123-0.318-0.039-0.12-0.038-0.251-0.057-0.375-0.011-0.071-0.030-0.139-0.036-0.209-0.010-0.089-0.027-0.171-0.029-0.262-0.001-0.080-0.032-0.146-0.029-0.229 0-0.046-0.015-0.128-0.041-0.184 0.008-0.042 0.017-0.084 0.023-0.128 0.051-0.325 0.173-0.622 0.236-0.941 0.069-0.346-0.035-0.846-0.283-1.111-0.035-0.039-0.111-0.053-0.157-0.019-0.277 0.206-0.453 0.771-0.616 1.073-0.215 0.405-0.418 0.786-0.435 1.25-0.029 0.098-0.059 0.197-0.090 0.295-0.090 0.269-0.194 0.527-0.205 0.816-0.011 0.285 0.033 0.536 0.144 0.799 0.056 0.132 0.148 0.274 0.232 0.39 0.12 0.169 0.245 0.336 0.382 0.492 0.083 0.093 0.17 0.179 0.262 0.262 0.042 0.039 0.084 0.057 0.135 0.081 0.054 0.027 0.078 0.053 0.125 0.086 0.077 0.054 0.178 0.066 0.263 0.103 0.131 0.054 0.241 0.125 0.363 0.19 0.104 0.054 0.281 0.042 0.384-0.012 0.148-0.075 0.262-0.173 0.384-0.281 0.131-0.117 0.291-0.218 0.437-0.319 0.089-0.063 0.176-0.143 0.247-0.227 0.024-0.027 0.086-0.087 0.004-0.12z"></path>
<path d="M18.008 12.805c-0.068-0.003-0.071 0.060-0.092 0.105-0.039 0.083-0.096 0.16-0.142 0.239-0.042 0.074-0.081 0.12-0.021 0.199 0.042 0.056 0.108 0.084 0.16 0.129 0.062 0.056 0.119 0.098 0.185 0.148 0.054 0.041 0.090 0.098 0.146 0.136 0.069 0.046 0.114 0.072 0.172 0.132 0.036 0.039 0.072 0.072 0.114 0.099 0.027 0.019 0.059 0.027 0.080 0.057 0.014 0.019 0.012 0.047 0.027 0.068 0.063 0.089 0.172 0.125 0.259 0.185 0.155 0.108 0.343 0.164 0.51 0.248 0.169 0.086 0.358 0.152 0.518 0.253 0.161 0.103 0.306 0.238 0.458 0.352 0.282 0.212 0.507 0.581 0.584 0.927 0.026 0.113 0.032 0.23 0.048 0.343 0.014 0.086 0.031 0.176 0.038 0.262 0.012 0.143-0.003 0.292-0.001 0.435 0.001 0.104-0.042 0.161-0.059 0.262-0.008 0.042-0.011 0.072-0.021 0.115-0.011 0.035-0.011 0.072-0.003 0.11 0.063 0.019 0.136 0.019 0.2 0.041 0.053 0.015 0.099 0.042 0.151 0.060 0.093 0.031 0.211 0.078 0.307 0.086 0.029 0.003 0.018 0.042 0.057-0.004 0.019-0.023 0.024-0.102 0.033-0.134 0.057-0.179 0.056-0.352 0.083-0.536 0.012-0.092-0.004-0.182 0.007-0.273 0.012-0.080 0.039-0.158 0.051-0.238 0.012-0.099-0.004-0.199 0.011-0.297 0.015-0.087 0.024-0.164 0.024-0.253 0-0.194-0.026-0.375-0.086-0.56-0.080-0.242-0.184-0.444-0.294-0.673-0.084-0.176-0.223-0.346-0.346-0.498-0.128-0.156-0.251-0.322-0.405-0.455-0.107-0.093-0.211-0.194-0.319-0.285-0.072-0.060-0.157-0.102-0.232-0.156-0.157-0.113-0.313-0.237-0.491-0.312-0.176-0.075-0.34-0.182-0.522-0.235-0.217-0.060-0.471-0.107-0.697-0.115-0.080-0.001-0.569-0.092-0.492 0.031z"></path>
<path d="M18.645 21.094c-0.090 0.019-0.104 0.238-0.123 0.313-0.023 0.086-0.059 0.173-0.074 0.262-0.012 0.068-0.005 0.139-0.005 0.206 0 0.156-0.003 0.307 0.023 0.459 0.011 0.060 0.026 0.117 0.035 0.178 0.014 0.088 0.059 0.154 0.087 0.233 0.021 0.057 0.035 0.119 0.059 0.175 0.029 0.071 0.080 0.134 0.116 0.205 0.041 0.077 0.108 0.144 0.163 0.214 0.063 0.084 0.123 0.161 0.206 0.226 0.053 0.041 0.095 0.084 0.152 0.117 0.081 0.043 0.164 0.083 0.239 0.136 0.074 0.051 0.157 0.092 0.226 0.146 0.063 0.048 0.125 0.105 0.196 0.148 0.090 0.053 0.081 0.012 0.122-0.062 0.027-0.048 0.060-0.095 0.089-0.144 0.017-0.031 0.018-0.057 0.032-0.087 0.017-0.031 0.053-0.035 0.066-0.057 0.014-0.019 0.051-0.151 0.042-0.176-0.008-0.019-0.095-0.072-0.114-0.083-0.108-0.062-0.227-0.095-0.333-0.161-0.185-0.117-0.349-0.291-0.485-0.462-0.125-0.158-0.166-0.343-0.166-0.536 0-0.081 0-0.163-0.001-0.244-0.001-0.116 0.036-0.233 0.086-0.337 0.026-0.051 0.065-0.095 0.089-0.144 0.030-0.057 0.036-0.136 0.072-0.191 0.032-0.046 0.083-0.063 0.075-0.128-0.011-0.084-0.096-0.175-0.148-0.232-0.089-0.098-0.142-0.233-0.247-0.318-0.042-0.035-0.11-0.071-0.157-0.096-0.054-0.031-0.119-0.035-0.176-0.050-0.080-0.019-0.083-0.041-0.148 0.012-0.164 0.127-0.238 0.327-0.295 0.518-0.030 0.101-0.045 0.238-0.051 0.345-0.001 0.035 0.005 0.075 0.003 0.111-0.004 0.050-0.039 0.093-0.030 0.146z"></path>
<path d="M27.855 25.61c-0.042-0.175-0.102-0.345-0.167-0.513-0.078-0.2-0.211-0.36-0.343-0.527-0.133-0.166-0.248-0.348-0.413-0.485-0.224-0.191-0.45-0.393-0.697-0.552-0.095-0.060-0.188-0.128-0.288-0.18-0.144-0.075-0.318-0.122-0.473-0.173-0.295-0.096-0.608-0.127-0.915-0.166-0.089-0.012-0.17-0.015-0.256-0.035-0.104-0.023-0.218-0.053-0.325-0.060-0.113-0.008-0.232 0.003-0.345 0.001-0.066 0-0.173-0.019-0.146 0.084 0.024 0.089 0.146 0.191 0.2 0.258 0.074 0.090 0.182 0.169 0.241 0.266 0.038 0.063 0.057 0.139 0.101 0.199 0.047 0.065 0.101 0.071 0.185 0.084 0.142 0.023 0.286 0.035 0.429 0.057 0.050 0.008 0.099 0.019 0.148 0.035 0.144 0.031 0.286 0.072 0.426 0.117 0.224 0.074 0.455 0.223 0.656 0.345 0.108 0.065 0.188 0.151 0.283 0.23 0.054 0.045 0.111 0.066 0.161 0.122 0.051 0.056 0.107 0.099 0.161 0.152 0.101 0.099 0.178 0.227 0.26 0.342 0.342 0.48 0.485 1.043 0.622 1.605 0.018 0.071 0.030 0.141 0.039 0.214 0.023 0.179 0.024 0.363 0.026 0.542 0.003 0.286-0.151 0.545-0.144 0.826l-0.054-0.098c-0.032 0.148-0.057 0.298-0.084 0.447-0.012 0.060 0.004 0.117-0.004 0.176-0.005 0.039-0.027 0.051-0.032 0.083-0.026 0.139 0 0.315 0 0.456-0.010-0.078 0.021-0.146 0.057-0.214 0.060-0.115 0.096-0.23 0.146-0.351 0.030-0.074 0.074-0.142 0.096-0.217 0.021-0.066 0.026-0.136 0.048-0.202 0.051-0.155 0.104-0.317 0.173-0.465 0.278-0.589 0.263-1.241 0.262-1.879 0-0.178 0.007-0.349-0.035-0.524z"></path>
</svg>
