<!-- Generated by IcoMoon.io -->
<svg version="1.1" xmlns="http://www.w3.org/2000/svg" width="32" height="32" viewBox="0 0 32 32">
<title>walrus_and_carpenter</title>
<path d="M26.498 27.983c-0.327-0.086-1.218-0.397-1.981-0.691s-1.698-0.638-2.080-0.765c-1.569-0.519-5.172-2.537-5.392-3.020-0.123-0.269-0.45-0.535-0.732-0.594-0.923-0.195-1.39-0.457-2.286-1.284l-0.885-0.816-3.856 3.287c-4.387 3.74-4.582 3.828-5.529 2.489-0.315-0.445-0.531-0.981-0.495-1.23 0.041-0.289 1.322-1.507 3.727-3.545 2.015-1.707 3.685-3.224 3.711-3.371s-0.752-1.158-1.729-2.247c-1.835-2.046-4.727-6.127-5.999-8.466l-0.726-1.335 0.609-0.694c0.769-0.876 3.27-2.139 4.057-2.049 0.514 0.059 0.708 0.322 1.873 2.541 2.403 4.577 3.147 5.686 5.396 8.057l0.785 0.827 2.745-2.313c1.51-1.272 2.746-2.41 2.746-2.529 0.001-0.393-2.007-1.918-3.119-2.37-0.6-0.244-1.164-0.561-1.252-0.704-0.215-0.348 0.157-0.769 0.682-0.772 0.86-0.006 0.959-0.308 0.229-0.701-0.384-0.207-0.699-0.503-0.699-0.658 0-0.233 0.328-0.258 1.898-0.148 2.127 0.149 3.281 0.604 4.634 1.827 0.646 0.584 0.839 0.664 1.168 0.488 0.679-0.364 1.151-0.235 1.786 0.489 0.66 0.752 0.759 1.253 0.37 1.877-0.215 0.344-0.156 0.482 0.485 1.123 0.667 0.667 0.775 0.71 1.245 0.496 0.731-0.333 0.997-0.296 1.604 0.227 0.873 0.751 0.579 1.25-1.995 3.393-2.303 1.918-3.032 2.249-3.629 1.652-0.288-0.288-0.308-1.137-0.042-1.835 0.169-0.445 0.107-0.611-0.465-1.235l-0.661-0.721-2.704 2.33c-1.487 1.282-2.704 2.372-2.704 2.423 0 0.116 0.416 0.469 4.836 4.098 1.97 1.618 4.54 3.573 5.711 4.345 2.082 1.372 2.537 1.923 1.816 2.2-0.427 0.164-2.422 0.115-3.153-0.076zM26.768 26.54c-0.396-0.351-1.154-0.905-1.684-1.23s-1.585-1.128-2.345-1.783c-3.427-2.952-3.942-3.322-4.077-2.937-0.104 0.296-0.202 0.218-0.549-0.432-0.232-0.436-0.682-1.090-1-1.454-0.568-0.651-0.585-0.656-1.092-0.324-0.583 0.382-0.652 0.724-0.22 1.083 0.162 0.135 0.242 0.33 0.177 0.435s-0.316 0.005-0.562-0.227c-0.437-0.411-0.452-0.411-0.906-0.044l-0.461 0.373 0.954 1.019c0.897 0.959 1.011 1.019 1.927 1.019 0.998 0 2.142 0.437 2.142 0.819 0 0.126-0.142 0.156-0.347 0.071-1.171-0.482-1.428-0.203-0.454 0.491 0.758 0.54 5.554 2.693 5.554 2.493 0-0.142-3.153-2.289-3.361-2.289-0.239 0-0.275-0.329-0.051-0.468 0.084-0.052 1.173 0.619 2.419 1.491 1.825 1.277 3.937 2.445 4.558 2.519 0.054 0.007-0.225-0.275-0.622-0.626zM12.152 17.477c0.517-0.277 0.482-0.675-0.091-1.050-0.798-0.523-1.887-1.786-2.006-2.328-0.062-0.282-0.791-1.213-1.62-2.070s-1.413-1.588-1.299-1.626c0.341-0.114 2.837 2.523 3.217 3.398 0.303 0.697 2.254 2.892 2.568 2.889 0.059-0.001 0.376-0.216 0.702-0.48l0.594-0.479-0.612-0.659c-1.961-2.112-3.722-4.646-5.145-7.404-0.84-1.628-1.627-2.982-1.748-3.009s-0.341 0.028-0.488 0.123c-0.212 0.136-0.219 0.264-0.037 0.604 0.127 0.237 0.199 0.583 0.159 0.768-0.053 0.25-0.16 0.171-0.414-0.307-0.361-0.68-0.914-0.838-1.302-0.371-0.178 0.214-0.076 0.453 0.471 1.108 0.384 0.459 0.641 0.926 0.572 1.038-0.11 0.177-0.448-0.166-1.397-1.417-0.193-0.254-0.28-0.263-0.495-0.050s-0.089 0.59 0.729 2.166c0.909 1.751 1.331 2.382 3.542 5.299 0.855 1.127 3.465 4.060 3.614 4.060 0.054 0 0.271-0.092 0.482-0.205zM7.98 9.265c-0.498-0.53-0.415-0.922 0.104-0.491 0.401 0.333 0.753 0.985 0.531 0.985-0.094 0-0.38-0.222-0.635-0.494zM26.671 14.44c0.953-0.802 1.862-1.643 2.020-1.869 0.392-0.559 0.044-0.725-0.706-0.337-0.346 0.179-0.721 0.246-0.875 0.157-0.149-0.086-1.284-1.259-2.521-2.606-2.296-2.501-3.77-3.623-5.118-3.898-0.62-0.126-0.663-0.108-0.423 0.18 0.346 0.417 0.145 0.92-0.366 0.92-0.629 0-0.474 0.288 0.349 0.651 1.358 0.599 5.982 5.789 5.982 6.715 0 0.293-0.089 0.588-0.198 0.655-0.236 0.146-0.267 0.891-0.037 0.891 0.088 0 0.941-0.657 1.894-1.459zM25.211 13.339c0-0.212 0.959-1.005 1.215-1.005 0.334 0 0.166 0.781-0.212 0.983-0.476 0.255-1.003 0.266-1.003 0.021z"></path>
</svg>
