<!-- Generated by IcoMoon.io -->
<svg version="1.1" xmlns="http://www.w3.org/2000/svg" width="32" height="32" viewBox="0 0 32 32">
<title>weakness</title>
<path d="M15.675 31.189c-1.405-0.821-0.244-2.99 1.234-2.317 0.998 0.454 1.105 1.836 0.175 2.329-0.753 0.402-0.69 0.402-1.409-0.012zM16.41 24.999c0-2.13-1.070-3.212-3.884-3.925-1.134-0.284-1.988-0.912-4.016-2.952-2.118-2.118-2.769-2.588-3.625-2.606-2.107-0.051-2.498-0.447-1.212-1.234 1.637-1.002 1.83-0.935 4.266 1.415 3.064 2.958 6.071 4.159 7.306 2.917 1.064-1.064 0.708-5.29-0.505-5.952-3.506-1.915-5.517-3.716-7.262-6.509-1.637-2.61-0.271-2.395 2.142 0.341 2.124 2.395 4.508 3.851 5.403 3.296 0.799-0.503 0.953-3.183 0.244-4.259-0.918-1.405-0.532-2.872 0.781-3.003 2.469-0.232 3.654 0.992 2.516 2.611-0.895 1.28-0.709 4.124 0.306 4.582 1.585 0.725 3.726-0.521 4.888-2.843 0.963-1.92 1.008-1.959 2.452-2.039 1.467-0.090 1.467-0.090 0.584 0.476-0.493 0.312-1.179 1.23-1.53 2.044-0.895 2.079-3.354 4.26-4.804 4.26-1.653 0-3.171 2.469-2.939 4.775 0.38 3.71 0.148 3.648 4.995 1.23 3.909-1.955 4.531-2.034 6.022-0.793 0.776 0.645 0.776 0.645-0.538 0.657-3.529 0.028-10.609 4.299-10.609 6.394 0 0.963-0.318 1.779-0.686 1.779-0.164 0-0.294-0.3-0.294-0.663zM24.057 24.845c-0.442-0.674-0.465-0.912-0.119-1.325 1.109-1.337 2.259-1.302 2.894 0.080 0.799 1.756-1.705 2.877-2.775 1.246zM6.979 24.72c-0.622-0.407-0.22-1.881 0.641-2.339 1.008-0.538 2.333 0.413 2.197 1.586-0.107 0.94-1.846 1.404-2.838 0.753z"></path>
</svg>
