<!-- Generated by IcoMoon.io -->
<svg version="1.1" xmlns="http://www.w3.org/2000/svg" width="32" height="32" viewBox="0 0 32 32">
<title>wendigo</title>
<path d="M3.719 29.662c-0.245-0.193-0.556-0.614-0.69-0.936s-0.364-0.672-0.509-0.779c-0.495-0.362-0.715-1.415-0.717-3.439-0.002-1.854 0.018-1.977 0.418-2.451 0.231-0.275 0.463-0.712 0.514-0.97s0.185-0.471 0.296-0.471c0.439 0 1.614-1.038 1.847-1.63 0.162-0.412 0.399-0.672 0.725-0.795 0.313-0.118 0.571-0.391 0.73-0.772 0.17-0.407 0.352-0.59 0.588-0.59 0.193 0 0.788-0.429 1.37-0.988 0.566-0.543 1.101-0.988 1.19-0.988s0.374 0.222 0.634 0.494c0.26 0.272 0.567 0.494 0.682 0.494 0.268 0 1.888-2.013 2.336-2.901 0.188-0.373 0.697-0.976 1.132-1.341s1.265-1.257 1.846-1.982c1.121-1.401 1.334-1.483 1.752-0.675 0.134 0.259 0.466 0.635 0.737 0.836 0.298 0.221 0.561 0.615 0.664 0.998 0.094 0.348 0.567 1.241 1.051 1.984s1.013 1.629 1.175 1.969c0.162 0.34 0.361 0.617 0.443 0.617s0.608 0.442 1.17 0.981c0.793 0.761 1.102 0.96 1.379 0.888 0.289-0.076 0.412 0.020 0.639 0.496 0.155 0.324 0.706 0.92 1.225 1.323 0.889 0.691 2.527 1.581 2.908 1.581 0.095 0 0.403 0.262 0.684 0.582l0.511 0.582v2.439c0 2.436-0.001 2.44-0.482 3.105-0.265 0.366-0.621 0.766-0.79 0.889s-0.477 0.502-0.685 0.843c-0.208 0.341-0.514 0.693-0.681 0.782s-1.334 0.163-2.593 0.163c-2.439 0-3.15-0.129-6.242-1.135-2.424-0.789-3.935-1.549-4.237-2.133-0.592-1.145-0.13-1.969 1.339-2.393 0.524-0.151 1.224-0.404 1.555-0.561 0.716-0.341 2.445-2.222 2.445-2.661 0-0.316-0.869-1.161-1.193-1.161-0.099 0-0.298-0.107-0.443-0.237s-0.595-0.31-1.001-0.399l-0.738-0.161 0.811 0.722c0.754 0.67 0.798 0.751 0.62 1.141-0.201 0.44-0.774 0.748-2.008 1.076-0.777 0.207-2.213 0.756-2.634 1.007-0.136 0.081-0.414 0.233-0.617 0.337-0.219 0.112-0.37 0.342-0.37 0.562 0 0.453-0.733 1.36-1.261 1.56-0.437 0.166-0.489 0.58-0.133 1.050 0.6 0.793 0.122 1.582-1.388 2.292-0.898 0.422-1.43 0.542-3.063 0.691-1.087 0.099-2.092 0.233-2.234 0.297-0.158 0.071-0.431-0.020-0.704-0.234zM6.821 9.351c-0.895-0.398-1.735-1.665-1.725-2.602 0.005-0.519 0.813-1.93 1.317-2.301 0.881-0.649 2.43-0.584 3.288 0.139 0.552 0.465 1.155 1.635 1.15 2.23-0.005 0.536-0.54 1.631-1.004 2.056-0.777 0.712-2.048 0.913-3.027 0.478z"></path>
</svg>
