<!-- Generated by IcoMoon.io -->
<svg version="1.1" xmlns="http://www.w3.org/2000/svg" width="33" height="32" viewBox="0 0 33 32">
<title>wendigos_myth</title>
<path d="M15.444 28.528c-0.527-0.527-0.692-2.088-0.249-2.362 0.145-0.090 0.249 0.163 0.249 0.607 0 0.418 0.112 0.761 0.249 0.761s0.249-0.168 0.249-0.373c0-0.495 0.243-0.472 0.649 0.062 0.294 0.387 0.331 0.331 0.338-0.497 0.008-0.903-0.020-0.933-0.869-0.933-0.672 0-0.933-0.131-1.117-0.56-0.132-0.308-0.464-0.839-0.737-1.181-0.323-0.405-0.444-0.817-0.346-1.181 0.164-0.613 0.589-0.767 0.589-0.213 0 0.346 0.714 0.763 0.933 0.544 0.228-0.228-0.975-1.637-1.398-1.637-0.237 0-0.565-0.134-0.729-0.298-0.371-0.371-0.39-1.5-0.030-1.86 0.447-0.447-0.864-2.709-2.008-3.466-1.107-0.732-3.467-1.317-5.37-1.33-1.259-0.008-1.268-0.003-1.594 0.986-0.181 0.547-0.422 0.995-0.537 0.995-0.335 0-0.243-1.937 0.097-2.050 0.183-0.061-0.056-0.421-0.591-0.89-1.496-1.314-1.655-2.091-1.074-5.266 0.205-1.119 1.248-3.046 2.047-3.78 0.553-0.508 0.595-0.517 0.373-0.075-1.393 2.779-1.394 3.337-0.005 2.452 0.575-0.366 0.933-0.787 0.933-1.098 0-0.61 0.817-2.265 1.327-2.688 0.541-0.449 0.711 0.039 0.302 0.869-0.194 0.393-0.426 1.014-0.516 1.381-0.154 0.628-0.107 0.672 0.791 0.751l0.955 0.083-2.016 0.936 0.103 1.517c0.138 2.039 0.927 3.6 2.178 4.31 0.538 0.305 1.061 0.557 1.163 0.56s0.418-0.491 0.702-1.095c0.764-1.625 1.164-1.636 1.030-0.028-0.1 1.206-0.054 1.348 0.572 1.778 0.374 0.257 1.128 0.94 1.676 1.517 0.804 0.848 1.081 1.003 1.445 0.808 0.616-0.33 1.813-0.303 2.164 0.049 0.22 0.22 0.552 0.026 1.387-0.808 0.604-0.604 1.363-1.281 1.688-1.504 0.501-0.346 0.584-0.597 0.552-1.678-0.021-0.699 0.057-1.272 0.172-1.272 0.31 0 0.984 1.041 0.984 1.521 0 0.939 1.207 0.756 2.446-0.371 0.797-0.724 1.21-1.812 1.398-3.676l0.159-1.577-2.138-0.995 0.933-0.077c1.103-0.091 1.198-0.517 0.458-2.048-0.506-1.048-0.324-1.498 0.338-0.835 0.568 0.568 1.38 2.226 1.38 2.82 0 0.449 1.138 1.3 1.676 1.253 0.263-0.023 0.101-0.862-0.323-1.675-0.584-1.119-0.406-1.463 0.282-0.543 1.001 1.339 1.303 2.033 1.682 3.871 0.475 2.301 0.306 3.157-0.866 4.389-0.657 0.69-0.886 1.099-0.714 1.27 0.315 0.315 0.323 1.399 0.014 1.887-0.194 0.306-0.258 0.286-0.393-0.124-0.561-1.708-0.672-1.858-1.378-1.858-0.388 0-1.559 0.127-2.603 0.282-2.328 0.346-3.898 1.309-4.796 2.939-0.525 0.953-0.571 1.211-0.329 1.851 0.225 0.597 0.206 0.858-0.095 1.317-0.207 0.315-0.584 0.573-0.838 0.573-0.534 0-1.11 0.789-1.362 1.865l-0.175 0.746 0.624-0.746c0.343-0.41 0.628-0.83 0.633-0.933s0.121-0.186 0.258-0.186c0.53 0 0.255 1.648-0.373 2.238-0.533 0.501-0.622 0.803-0.622 2.119 0 1.171-0.108 1.632-0.455 1.946-0.594 0.538-0.93 0.519-1.535-0.086zM16.438 22.047c0-0.444-0.104-0.697-0.249-0.607-0.137 0.085-0.249 0.427-0.249 0.761s0.112 0.607 0.249 0.607c0.137 0 0.249-0.342 0.249-0.761zM5.796 12.976c0.073-0.073-0.009-0.549-0.183-1.057s-0.396-1.567-0.494-2.353-0.243-1.43-0.323-1.43c-0.080 0-0.515 0.358-0.966 0.795-0.87 0.843-1.039 1.685-0.552 2.753 0.42 0.923 2.051 1.759 2.518 1.292zM28.642 12.383c0.958-0.958 0.989-2.239 0.082-3.428-0.354-0.465-0.771-0.803-0.926-0.751s-0.411 0.925-0.57 1.94c-0.159 1.016-0.371 2.098-0.471 2.406-0.158 0.487-0.095 0.56 0.488 0.56 0.409 0 0.953-0.283 1.397-0.727z"></path>
</svg>
