<!-- Generated by IcoMoon.io -->
<svg version="1.1" xmlns="http://www.w3.org/2000/svg" width="33" height="32" viewBox="0 0 33 32">
<title>where_gods_dwell</title>
<path d="M27.496 26.347l-0.024-0.053c0.014 0.024 0.031 0.048 0.047 0.068-0.007-0.003-0.017-0.010-0.024-0.014zM27.189 25.627l-0.044-0.103c0.042 0.040 0.069 0.072 0.044 0.103zM29.487 27.125c-0.066-0.078-0.148-0.143-0.218-0.216-0.247-0.258-0.461-0.549-0.678-0.827-0.481-0.614-0.888-1.267-1.333-1.901-0.493-0.702-0.853-1.461-1.215-2.219-0.246-0.515-0.493-1.031-0.709-1.557-0.238-0.573-0.453-1.154-0.685-1.729-0.224-0.553-0.41-1.116-0.658-1.661-0.232-0.508-0.467-1.016-0.708-1.521-0.281-0.59-0.558-1.187-0.88-1.761-0.262-0.467-0.542-0.927-0.801-1.397-0.354-0.642-0.726-1.273-1.12-1.898-0.375-0.593-0.732-1.199-1.14-1.776-0.366-0.515-0.744-1.027-1.138-1.528-0.391-0.499-0.811-0.981-1.227-1.465-0.339-0.391-0.685-0.775-1.004-1.178-0.090-0.112-0.182-0.222-0.252-0.345-0.017-0.027-0.042-0.122-0.073-0.142-0.034-0.021-0.116 0.031-0.147 0.044-0.142 0.059-0.239 0.171-0.346 0.268-0.151 0.138-0.274 0.281-0.391 0.441-0.22 0.303-0.419 0.623-0.613 0.94-0.244 0.399-0.427 0.829-0.629 1.247-0.501 1.038-1.049 2.055-1.614 3.067-0.263 0.473-0.529 0.939-0.836 1.39-0.267 0.394-0.502 0.797-0.74 1.203-0.281 0.479-0.594 0.941-0.891 1.413-0.246 0.389-0.457 0.794-0.705 1.183-0.242 0.378-0.503 0.748-0.752 1.123-0.296 0.451-0.562 0.899-0.798 1.377-0.288 0.582-0.572 1.167-0.871 1.744-0.25 0.485-0.466 0.975-0.677 1.473-0.247 0.585-0.515 1.162-0.752 1.751-0.195 0.485-0.365 0.977-0.582 1.456-0.127 0.276-0.275 0.546-0.403 0.824-0.096 0.203-0.187 0.409-0.284 0.612-0.131 0.268-0.264 0.533-0.366 0.812-0.093 0.259-0.172 0.527-0.243 0.792-0.038 0.15-0.071 0.306-0.054 0.458 0.054 0.001 0.108-0.132 0.135-0.17 0.059-0.083 0.127-0.159 0.185-0.24 0.147-0.199 0.29-0.403 0.422-0.61 0.027-0.043 0.060-0.083 0.088-0.125 0.705-1.565 1.807-3.074 2.708-4.524 1.179-1.894 2.368-3.778 3.438-5.719 1.104-2 2.125-4.034 3.127-6.076 0.509-1.037 1.028-2.074 1.525-3.117 0.252-0.532 0.391-1.128 0.855-1.557 0.126-0.116 0.382-0.125 0.508 0 0.491 0.493 1.176 1.026 1.411 1.669 0.007 0.021 0.010 0.042 0.017 0.061 0.031 0.060 0.054 0.122 0.081 0.18 0.147 0.303 0.35 0.585 0.518 0.879 0.462 0.809 0.876 1.641 1.291 2.47 0.245 0.487 0.545 0.952 0.792 1.441 0.276 0.546 0.589 1.074 0.903 1.604 0.294 0.493 0.574 0.991 0.853 1.489 0.283 0.507 0.589 1.003 0.873 1.508 0.331 0.587 0.598 1.195 0.911 1.789 0.279 0.527 0.571 1.054 0.832 1.59 0.254 0.522 0.443 1.067 0.692 1.592 0.223 0.47 0.463 0.932 0.694 1.398 0.24 0.486 0.475 0.973 0.714 1.458 0.156 0.316 0.293 0.634 0.479 0.939 0.024 0.040 0.050 0.080 0.076 0.12-0.036 0.003-0.073 0.010-0.099 0.014-0.123 0.017-0.251 0.021-0.375 0.027-0.318 0.021-0.63 0.064-0.948 0.079-0.407 0.017-0.816 0.031-1.222 0.053-0.451 0.024-0.905 0.083-1.354 0.132-0.519 0.057-1.030 0.16-1.548 0.228-1.311 0.174-2.637 0.299-3.962 0.357-0.743 0.034-1.481 0.080-2.222 0.127-0.705 0.043-1.409 0.119-2.114 0.159-0.365 0.021-0.729 0.017-1.094 0.036-0.344 0.017-0.688 0.045-1.031 0.065-0.658 0.037-1.319 0.045-1.978 0.064-1.116 0.034-2.233 0.122-3.324 0.337-0.306 0.060-0.61 0.139-0.893 0.257-0.108 0.044-0.288 0.132-0.414 0.11 0.322 0.014 0.642 0.024 0.963 0.047 0.57 0.037 1.14 0.043 1.711 0.069 0.59 0.027 1.179 0.071 1.768 0.096 0.59 0.024 1.182 0.031 1.773 0.047 1.323 0.036 2.647 0.024 3.971 0.024 0.811 0 1.621 0 2.432-0.017 0.686-0.014 1.373-0.031 2.060-0.031 0.69 0.001 1.379-0.014 2.070-0.031 0.729-0.017 1.458-0.031 2.187-0.069 0.681-0.036 1.361-0.077 2.034-0.182 0.278-0.045 0.555-0.093 0.833-0.144 0.263-0.041 0.526-0.081 0.791-0.122 0.319-0.059 0.626-0.152 0.944-0.212 0.308-0.059 0.63-0.080 0.945-0.061 0.171 0.010 0.305 0.035 0.461 0.091 0.054 0.021 0.108 0.045 0.166 0.052-0.056-0.039-0.087-0.099-0.128-0.147z"></path>
<path d="M16.254 13.823c0.024 0.017 0.040 0.083 0.050 0.112 0.070 0.183 0.111 0.381 0.17 0.569 0.211 0.662 0.327 1.355 0.449 2.039 0.114 0.645 0.137 1.302 0.192 1.952 0.031 0.386 0.057 0.775 0.057 1.162 0 0.323-0.069 0.626-0.112 0.944-0.039 0.272-0.071 0.535-0.13 0.804-0.036 0.171-0.049 0.342-0.090 0.511-0.057 0.245-0.103 0.483-0.183 0.721-0.081 0.242-0.144 0.485-0.208 0.732-0.060 0.23-0.176 0.442-0.252 0.668-0.044 0.132-0.096 0.27-0.16 0.394-0.035 0.068-0.083 0.151-0.136 0.203 0.037-0.314 0.065-0.656 0.003-0.967-0.052-0.26-0.073-0.523-0.11-0.787-0.031-0.227-0.017-0.454-0.042-0.682-0.024-0.195-0.061-0.379-0.068-0.576-0.010-0.279-0.049-0.561-0.079-0.84-0.027-0.283-0.043-0.565-0.052-0.849-0.007-0.191-0.031-0.378-0.027-0.57 0.001-0.236 0-0.469-0.021-0.704-0.017-0.21-0.010-0.419-0.034-0.63-0.069-0.632-0.027-1.265-0.059-1.897-0.017-0.329-0.031-0.654-0.017-0.984 0.017-0.337 0.043-0.67 0.196-0.976 0.052-0.104 0.114-0.207 0.144-0.32 0.031-0.111 0.040-0.226 0.072-0.337 0.017-0.056 0.031-0.1 0.068-0.147 0.014-0.017 0.031-0.024 0.045-0.045 0.039 0.021 0.077 0.091 0.33 0.501z"></path>
<path d="M17.83 13.811c0.021 0.027 0.072 0.036 0.103 0.045 0.072 0.024 0.137 0.043 0.212 0.055 0.151 0.024 0.26 0.081 0.399 0.147 0.149 0.069 0.302 0.132 0.446 0.211 0.358 0.192 0.705 0.398 1.044 0.621 0.272 0.178 0.493 0.41 0.706 0.653 0.52 0.59 1.018 1.227 1.297 1.968 0.061 0.163 0.127 0.327 0.149 0.499 0.024 0.182 0.031 0.371 0.031 0.554-0.001 0.185 0.003 0.373 0.001 0.558-0.003 0.164-0.049 0.32-0.054 0.485-0.003 0.215-0.024 0.389-0.095 0.592-0.050 0.142-0.108 0.274-0.171 0.407-0.084 0.176-0.102 0.366-0.17 0.546-0.055 0.146-0.156 0.264-0.235 0.395-0.115 0.192-0.202 0.383-0.334 0.566-0.11 0.152-0.212 0.309-0.328 0.455-0.159 0.199-0.299 0.399-0.437 0.613-0.122 0.19-0.251 0.363-0.413 0.521-0.272 0.268-0.55 0.554-0.869 0.768-0.123 0.084-0.251 0.156-0.373 0.242-0.117 0.084-0.231 0.17-0.375 0.196-0.134 0.024-0.286 0.047-0.41 0.103-0.092 0.043-0.151 0.132-0.255 0.159 0.116-0.010 0.228 0.007 0.343-0.021 0.091-0.021 0.175-0.054 0.269-0.071 0.1-0.017 0.199-0.040 0.299-0.059 0.108-0.021 0.218-0.037 0.323-0.065 0.123-0.034 0.218-0.095 0.332-0.146 0.091-0.041 0.164-0.061 0.264-0.079 0.162-0.031 0.313-0.088 0.467-0.144 0.276-0.1 0.433-0.341 0.673-0.496 0.22-0.143 0.441-0.262 0.622-0.457 0.183-0.195 0.398-0.362 0.57-0.566 0.064-0.076 0.108-0.156 0.16-0.24 0.119-0.187 0.284-0.327 0.377-0.532 0.043-0.093 0.071-0.194 0.11-0.29 0.065-0.163 0.146-0.307 0.187-0.479 0.068-0.279 0.087-0.569 0.143-0.849 0.052-0.257 0.113-0.497 0.136-0.757 0.024-0.263 0.066-0.533 0.043-0.797-0.024-0.301-0.132-0.589-0.211-0.879-0.090-0.331-0.208-0.645-0.355-0.955-0.283-0.596-0.6-1.178-1.068-1.648-0.377-0.377-0.811-0.712-1.239-1.026-0.111-0.080-0.231-0.146-0.342-0.227-0.158-0.115-0.313-0.232-0.475-0.339-0.299-0.194-0.613-0.365-0.928-0.531-0.352-0.187-0.741-0.303-1.107-0.462-0.271-0.119-0.547-0.167-0.84-0.206-0.239-0.031-0.466-0.092-0.71-0.059-0.084 0.010-0.167 0.031-0.252 0.042-0.104 0.003-0.207 0.017-0.31 0.036-0.119 0.031-0.236 0.068-0.353 0.111-0.606 0.211-1.116 0.554-1.617 0.948-0.131 0.103-0.267 0.196-0.403 0.291-0.196 0.136-0.361 0.272-0.529 0.442-0.116 0.117-0.236 0.231-0.358 0.343-0.284 0.259-0.616 0.469-0.853 0.776-0.123 0.16-0.223 0.339-0.326 0.513-0.143 0.239-0.301 0.474-0.429 0.721-0.195 0.381-0.332 0.82-0.449 1.23-0.099 0.351-0.196 0.717-0.263 1.076-0.039 0.211-0.031 0.411-0.042 0.624-0.014 0.212-0.027 0.423-0.024 0.637 0.003 0.373 0.096 0.725 0.171 1.090 0.064 0.313 0.144 0.586 0.301 0.867 0.374 0.673 0.991 1.16 1.592 1.616 0.102 0.076 0.203 0.16 0.308 0.231 0.093 0.057 0.191 0.107 0.293 0.15 0.114 0.059 0.224 0.119 0.335 0.183 0.104 0.060 0.207 0.124 0.313 0.182 0.166 0.088 0.31 0.083 0.493 0.081 0.299-0.002 0.597-0.003 0.895 0.014 0.188 0.010 0.377 0.017 0.565 0.035 0.117 0.010 0.245 0.040 0.365 0.034-0.263-0.007-0.509 0.014-0.763-0.081-0.386-0.147-0.749-0.354-1.082-0.598-0.158-0.116-0.319-0.204-0.485-0.305-0.146-0.087-0.275-0.199-0.417-0.293-0.318-0.211-0.624-0.426-0.896-0.694-0.093-0.091-0.171-0.19-0.245-0.298-0.096-0.143-0.224-0.275-0.286-0.438-0.037-0.099-0.056-0.209-0.080-0.313-0.037-0.152-0.081-0.303-0.122-0.455-0.072-0.281-0.075-0.572-0.1-0.859-0.014-0.147-0.045-0.287-0.051-0.435-0.003-0.195-0.014-0.401 0.027-0.593 0.068-0.331 0.117-0.657 0.219-0.981 0.108-0.347 0.271-0.678 0.435-1.002 0.161-0.32 0.286-0.666 0.467-0.976 0.172-0.294 0.326-0.608 0.545-0.871 0.090-0.108 0.17-0.224 0.258-0.334 0.111-0.139 0.251-0.228 0.38-0.346 0.226-0.204 0.459-0.391 0.694-0.585 0.132-0.107 0.264-0.215 0.393-0.327 0.128-0.115 0.25-0.242 0.386-0.345 0.108-0.081 0.232-0.132 0.344-0.204 0.127-0.080 0.224-0.148 0.37-0.188 0.098-0.027 0.191-0.068 0.289-0.091 0.126-0.031 0.262-0.041 0.39-0.057 0.108-0.014 0.216-0.003 0.325-0.017 0.081-0.010 0.162-0.037 0.243-0.047 0.090-0.010 0.178-0.002 0.264 0.010 0.096 0.014 0.194 0.017 0.288 0.031 0.158 0.024 0.309 0.085 0.465 0.12 0.116 0.027 0.233 0.049 0.349 0.073 0.33 0.072 0.633 0.199 0.945 0.327z"></path>
</svg>
