<!-- Generated by IcoMoon.io -->
<svg version="1.1" xmlns="http://www.w3.org/2000/svg" width="32" height="32" viewBox="0 0 32 32">
<title>whispers_of_hypnos</title>
<path d="M26.324 19.1c-0.075 0.023-0.058-0.029-0.102-0.037-0.094-0.020-0.184 0.001-0.28-0.009-0.076-0.009-0.139-0.046-0.214-0.055-0.091-0.012-0.176 0.009-0.27-0.009-0.283-0.050-0.634-0.084-0.892 0.058-0.099 0.055-0.194 0.125-0.293 0.183-0.069 0.040-0.098 0.093-0.155 0.147-0.084 0.078-0.206 0.126-0.286 0.205-0.042 0.043-0.047 0.098-0.091 0.139-0.069 0.064-0.184 0.108-0.262 0.171-0.253 0.207-0.546 0.359-0.828 0.524-0.36 0.211-0.791 0.315-1.175 0.477-0.115 0.048-0.232 0.047-0.338 0.105-0.1 0.056-0.184 0.155-0.29 0.186-0.135 0.041-0.281 0.069-0.42 0.098-0.286 0.058-0.552 0.177-0.841 0.221-0.271 0.041-0.528 0.159-0.796 0.183-0.189 0.015-0.385 0.075-0.573 0.109-0.291 0.054-0.586 0.048-0.88 0.098-0.133 0.023-0.255 0.037-0.389 0.035-0.165-0.001-0.32 0.046-0.485 0.050-0.486 0.015-0.947 0.092-1.43-0.015-0.231-0.050-0.437-0.158-0.661-0.235-0.213-0.072-0.429-0.123-0.643-0.19-0.485-0.15-0.941-0.387-1.405-0.591-0.068-0.030-0.123-0.033-0.191-0.055-0.129-0.039-0.222-0.136-0.343-0.189-0.262-0.117-0.491-0.24-0.738-0.389-0.138-0.083-0.26-0.201-0.397-0.281-0.1-0.057-0.199-0.104-0.296-0.171-0.166-0.114-0.345-0.221-0.499-0.364-0.186-0.173-0.373-0.352-0.574-0.502-0.215-0.16-0.485-0.27-0.73-0.376-0.384-0.166-0.806-0.235-1.22-0.26-0.311-0.020-0.627 0.003-0.938 0.001-0.155-0.002-0.295 0.020-0.447 0.037-0.079 0.009-0.249-0.015-0.309 0.061 0.041 0.026 0.081 0.037 0.128 0.047 0.171 0.039 0.362 0.069 0.535 0.090 0.103 0.012 0.2 0.009 0.299 0.037 0.082 0.026 0.157 0.063 0.241 0.083 0.362 0.087 0.685 0.231 1.030 0.367 0.134 0.054 0.244 0.126 0.385 0.169 0.117 0.035 0.236 0.089 0.343 0.147 0.161 0.086 0.32 0.192 0.463 0.304 0.339 0.266 0.56 0.814 0.348 1.225-0.035 0.069-0.046 0.147-0.088 0.215-0.062 0.104-0.155 0.199-0.225 0.297-0.098 0.138-0.221 0.245-0.322 0.384-0.077 0.105-0.151 0.186-0.213 0.299-0.030 0.054-0.067 0.13-0.107 0.173 0.323-0.106 0.633-0.298 0.926-0.469 0.278-0.162 0.491-0.315 0.683-0.575 0.134-0.181 0.206-0.256 0.438-0.255 0.114 0.001 0.187 0.012 0.293 0.039 0.101 0.026 0.126 0.039 0.219 0.085 0.162 0.082 0.29 0.16 0.436 0.266 0.157 0.115 0.145 0.242 0.084 0.416-0.040 0.11-0.058 0.222-0.102 0.329-0.055 0.133-0.108 0.265-0.148 0.404-0.054 0.184-0.161 0.343-0.241 0.519-0.102 0.221-0.213 0.444-0.327 0.659 0.542-0.306 0.93-0.724 1.297-1.224 0.11-0.151 0.183-0.311 0.271-0.469 0.092-0.167 0.311-0.081 0.454-0.037 0.024 0.009 0.051 0.032 0.082 0.040 0.040 0.012 0.081-0.003 0.124 0.009 0.062 0.018 0.168 0.073 0.21 0.124 0.050 0.063 0.038 0.138 0.035 0.219-0.002 0.131-0.021 0.294-0.048 0.42-0.035 0.17-0.161 0.328-0.248 0.478-0.094 0.164-0.174 0.359-0.29 0.504-0.114 0.142-0.236 0.266-0.362 0.395-0.089 0.090-0.227 0.278-0.359 0.296 0.116-0.015 0.212-0.012 0.327-0.040 0.194-0.052 0.36-0.107 0.544-0.184 0.301-0.124 0.608-0.307 0.798-0.584 0.084-0.124 0.125-0.292 0.187-0.43 0.054-0.122 0.118-0.227 0.183-0.328 0.068-0.105 0.088-0.259 0.205-0.331 0.147-0.092 0.36-0.058 0.527-0.059 0.235-0.002 0.253 0.075 0.303 0.29 0.067 0.285 0.039 0.556-0.023 0.842-0.057 0.266-0.092 0.528-0.184 0.787-0.051 0.146-0.056 0.33-0.127 0.466 0.155 0.048 0.446-0.037 0.568-0.15 0.19-0.175 0.139-0.542 0.183-0.77 0.036-0.186 0.044-0.36 0.11-0.541 0.035-0.097 0.069-0.194 0.099-0.291 0.044-0.148 0.099-0.27 0.266-0.317 0.123-0.034 0.362-0.081 0.417 0.072 0.034 0.097 0.051 0.227 0.049 0.331-0.004 0.181 0.036 0.346 0.047 0.525 0.006 0.093 0.024 0.175 0.039 0.266 0.022 0.126-0.013 0.263 0.018 0.388 0.038 0.156 0.215 0.311 0.309 0.433 0.12 0.156 0.22 0.259 0.417 0.294 0.084 0.015 0.244 0.034 0.324 0.003-0.033-0.090-0.1-0.167-0.126-0.259-0.035-0.13-0.013-0.27-0.052-0.406-0.071-0.241-0.122-0.505-0.059-0.743 0.044-0.173 0.034-0.372 0.083-0.537 0.024-0.078 0.050-0.205 0.102-0.272 0.060-0.077 0.179-0.112 0.264-0.155 0.080-0.041 0.158-0.066 0.24-0.097 0.125-0.047 0.22-0.041 0.346-0.059 0.112-0.018 0.205-0.049 0.322-0.052 0.054-0.001 0.116-0.020 0.165 0.012 0.067 0.047 0.142 0.206 0.191 0.276 0.224 0.314 0.312 0.683 0.406 1.048 0.058 0.224 0.237 0.355 0.425 0.474 0.161 0.101 0.293 0.143 0.477 0.183 0.066 0.015 0.143 0.056 0.208 0.055 0.006-0.109-0.165-0.214-0.236-0.283-0.098-0.096-0.199-0.186-0.273-0.299-0.131-0.203-0.203-0.429-0.26-0.66-0.040-0.162-0.083-0.32-0.061-0.488 0.013-0.097 0.076-0.207 0.122-0.292 0.124-0.233 0.435-0.305 0.658-0.425 0.145-0.077 0.289-0.151 0.442-0.184 0.052-0.012 0.105-0.026 0.157-0.039 0.135-0.031 0.22 0.041 0.344 0.089 0.089 0.035 0.187 0.043 0.27 0.092 0.116 0.068 0.195 0.192 0.26 0.305 0.161 0.283 0.216 0.669 0.582 0.72 0.068 0.009 0.51 0.126 0.546 0.012 0.020-0.063-0.194-0.288-0.227-0.345-0.082-0.141-0.137-0.295-0.199-0.446-0.080-0.196-0.375-0.584-0.233-0.792 0.047-0.068 0.14-0.156 0.209-0.206 0.092-0.067 0.188-0.132 0.291-0.182 0.197-0.096 0.327-0.259 0.515-0.356 0.064-0.033 0.172-0.109 0.244-0.118 0.083-0.012 0.155 0.054 0.219 0.106 0.109 0.088 0.203 0.175 0.332 0.235 0.225 0.102 0.508 0.113 0.75 0.135 0.158 0.015 0.315 0.009 0.474 0.012 0.091 0.001 0.182 0.015 0.249-0.059-0.005-0.132-0.315-0.139-0.389-0.159-0.112-0.031-0.27-0.082-0.369-0.152-0.132-0.096-0.215-0.216-0.253-0.371-0.030-0.121-0.1-0.31-0.064-0.433 0.038-0.122 0.182-0.281 0.291-0.339 0.087-0.046 0.188-0.061 0.27-0.102 0.056-0.029 0.090-0.065 0.159-0.082 0.17-0.043 0.412-0.012 0.583-0.012 0.146 0.001 0.181-0.056 0.311-0.11 0.064-0.029 0.131-0.040 0.195-0.071 0.065-0.031 0.12-0.112-0.049-0.21z"></path>
<path d="M10.216 16.269c-0.013 0.065-0.075 0.091-0.122 0.13-0.182 0.149-0.385 0.242-0.599 0.345-0.72 0.345-1.543 0.382-2.327 0.353-0.43-0.015-1.171-0.098-1.366-0.561-0.040-0.093-0.054-0.205-0.174-0.222-0.034-0.003-0.068 0.009-0.103 0.015-0.2 0.031-0.403 0.048-0.606 0.069-0.501 0.051-1.187 0.218-1.627-0.124-0.148-0.114-0.336-0.283-0.429-0.447-0.087-0.149-0.071-0.332-0.13-0.492-0.032-0.084-0.076-0.143 0.040-0.186 0.074-0.026 0.19-0.026 0.271-0.046 0.271-0.063 0.548-0.062 0.824-0.112 0.030-0.089-0.079-0.288-0.088-0.385-0.024-0.231 0.222-0.344 0.393-0.439 0.188-0.106 0.404-0.186 0.61-0.242 0.145-0.041 0.302-0.058 0.445-0.105 0.003-0.128 0.122-0.216 0.184-0.319 0.166-0.273 0.497-0.36 0.792-0.447 0.257-0.075 0.558-0.073 0.822-0.106 0.203-0.026 0.402-0.047 0.607-0.051 0.309-0.006 0.618 0.006 0.927 0.002 0.115-0.001 0.181 0.054 0.285 0.054 0.155 0.001 0.334-0.1 0.484-0.14 0.329-0.088 0.788-0.126 1.105 0.018 0.131 0.060 0.266 0.131 0.393 0.198 0.115 0.062 0.152 0.067 0.293 0.067 0.216-0.001 0.686-0.093 0.8 0.174 0.054 0.126-0.026 0.167-0.122 0.223-0.176 0.102-0.339 0.264-0.531 0.331-0.098 0.034-0.172 0.078-0.273 0.109-0.090 0.029-0.156 0.107-0.246 0.132-0.063 0.018-0.13-0.012-0.189 0.015-0.001 0.082 0.093 0.131 0.131 0.196 0.055 0.093 0.104 0.225 0.112 0.332 0.014 0.178-0.043 0.24-0.167 0.364-0.058 0.058-0.224 0.121-0.256 0.183 0.073 0.096 0.092 0.166 0.13 0.279 0.052 0.162 0.050 0.147-0.018 0.303-0.127 0.287-0.342 0.56-0.275 0.532z"></path>
<path d="M11.584 11.192c0.172 0.003 0.328 0.037 0.501 0.058 0.46 0.056 0.921 0.132 1.382 0.176 0.201 0.021 0.41 0.021 0.611 0 0.25-0.026 0.556-0.023 0.787-0.133 0.174-0.082 0.295-0.283 0.478-0.336 0.116-0.033 0.237-0.012 0.347 0.026 0.199 0.065 0.403 0.122 0.608 0.164 0.447 0.095 0.92 0.043 1.373 0.044 0.335 0.001 0.672 0.032 1.004-0.023 0.396-0.067 0.804-0.286 1.159-0.468 0.162-0.082 0.303-0.186 0.455-0.28 0.049-0.031 0.115-0.042 0.126-0.097-0.244-0.056-0.441-0.141-0.671-0.262-0.575-0.299-1.158-0.635-1.824-0.629-0.293 0.003-0.601-0.030-0.89 0.006-0.125 0.015-0.216 0.069-0.324-0.015-0.035-0.026-0.046-0.062-0.079-0.088-0.080-0.064-0.207-0.136-0.291-0.183-0.246-0.136-0.564-0.206-0.833-0.259-0.406-0.080-0.83-0.044-1.241-0.044-0.236 0-0.495-0.030-0.729 0.003-0.101 0.015-0.184 0.043-0.288 0.044-0.139 0.003-0.279-0.002-0.418-0.001-0.395 0.003-0.768 0.158-1.027 0.461-0.047 0.054-0.131 0.123-0.158 0.187-0.031 0.069 0 0.151-0.015 0.224-0.535 0.108-1.092 0.113-1.626 0.251-0.268 0.068-0.529 0.166-0.795 0.247-0.080 0.026-0.22 0.046-0.26 0.122-0.014 0.026-0.006 0.083-0.008 0.114-0.213 0.026-0.452 0.058-0.607 0.224-0.2 0.214-0.168 0.581 0.099 0.707 0.129 0.060 0.287 0.089 0.428 0.098 0.368 0.023 0.742 0.003 1.111 0.003 0.263 0 0.531 0.015 0.793 0.001 0.098-0.006 0.178-0.037 0.273-0.059 0.002-0.015 0.006-0.026 0.545-0.283z"></path>
<path d="M22.030 11.631c-0.010-0.002-0.020-0.006-0.030-0.009 0.019-0.224 0.661-0.302 0.807-0.323 0.293-0.045 0.589-0.060 0.885-0.062 0.298-0.001 0.553-0.018 0.826 0.114 0.142 0.069 0.201 0.134 0.363 0.133 0.708-0.006 1.414-0.065 2.125-0.052 0.277 0.003 0.556 0.029 0.808 0.151 0.156 0.076 0.385 0.174 0.511 0.294 0.081 0.078 0.085 0.195 0.194 0.242 0.196 0.087 0.443 0.009 0.632 0.146 0.022 0.015 0.147 0.097 0.149 0.125 0.006 0.064-0.217 0.181-0.268 0.214-0.536 0.362-1.291 0.641-1.926 0.393-0.054-0.021-0.121-0.029-0.172-0.054-0.052-0.026-0.11-0.104-0.173-0.099-0.038 0.002-0.085 0.060-0.115 0.078-0.131 0.083-0.317 0.109-0.465 0.146-0.289 0.072-0.599 0.216-0.904 0.174-0.058-0.009-0.116-0.049-0.174-0.043s-0.13 0.080-0.184 0.102c-0.173 0.071-0.396 0.078-0.578 0.106-0.349 0.055-0.741 0.059-1.086-0.026-0.233-0.057-0.461-0.19-0.694-0.235-0.090-0.018-0.187 0-0.279-0.001-0.389-0.002-0.803-0.075-1.186-0.142-0.41-0.072-0.792-0.273-1.103-0.546-0.066-0.058-0.33-0.26-0.303-0.368 0.016-0.068 0.105-0.087 0.163-0.119 0.488-0.27 0.922-0.593 1.498-0.587 0.212 0.002 0.425-0.006 0.635 0 0.115 0.003 0.221 0.064 0.043 0.246z"></path>
</svg>
