<!-- Generated by IcoMoon.io -->
<svg version="1.1" xmlns="http://www.w3.org/2000/svg" width="17" height="32" viewBox="0 0 17 32">
<title>white_queen</title>
<path d="M13.242 27.458c0.258-0.332 0.369-0.738 0.369-1.181 0-0.701-0.406-1.402-0.996-1.734l-1.587-13.985h0.406c0.701 0 1.292-0.59 1.292-1.292s-0.59-1.292-1.292-1.292h-0.258c0.184-0.332 0.553-0.812 1.181-1.439l0.258-0.258-0.184-0.111v-2.657l-0.184-0.074c-0.738-0.221-1.476-0.369-2.251-0.443 0.074-0.184 0.148-0.369 0.148-0.59 0-0.775-0.627-1.402-1.402-1.402s-1.402 0.627-1.402 1.402c0 0.184 0.037 0.406 0.111 0.59-1.365 0.148-2.251 0.443-2.288 0.48l-0.184 0.074v2.878l0.074 0.074c0.664 0.664 0.996 1.107 1.181 1.439h-0.258c-0.701 0-1.292 0.59-1.292 1.292s0.59 1.292 1.292 1.292h0.406l-1.587 13.985c-0.627 0.369-0.996 1.033-0.996 1.734 0 0.443 0.148 0.849 0.369 1.181-0.48 0.369-0.812 0.959-0.812 1.587v0c0 1.107 0.886 1.993 1.993 1.993h6.716c1.107 0 1.993-0.886 1.993-1.993v0c0-0.627-0.332-1.218-0.812-1.55zM4.349 26.277c0-0.553 0.332-1.070 0.849-1.328l0.148-0.074 1.697-14.908h-1.033c-0.406 0-0.738-0.332-0.738-0.738s0.332-0.738 0.738-0.738h1.070l-0.111-0.369c-0.184-0.517-0.664-1.144-1.439-1.956v-2.288c0.332-0.111 1.107-0.295 2.177-0.406l0.295-0.037-0.037-0.258c0 0 0-0.037 0-0.037l0.111-0.148-0.111-0.148c-0.074-0.148-0.111-0.295-0.111-0.443 0-0.48 0.369-0.849 0.849-0.849s0.849 0.369 0.849 0.849c0 0.148-0.037 0.332-0.148 0.443l-0.111 0.148 0.111 0.148c0 0 0 0.037 0 0.037v0.295l0.295 0.037c0.738 0.074 1.476 0.184 2.177 0.406v2.325c-0.738 0.775-1.218 1.402-1.402 1.919l-0.111 0.369h1.070c0.406 0 0.738 0.332 0.738 0.738s-0.332 0.738-0.738 0.738h-1.033l1.697 14.871 0.148 0.074c0.517 0.258 0.849 0.775 0.849 1.328 0 0.332-0.111 0.664-0.332 0.922-0.221-0.074-0.443-0.111-0.701-0.111h-6.716c-0.258 0-0.48 0.037-0.701 0.111-0.184-0.258-0.295-0.59-0.295-0.922z"></path>
</svg>
