<!-- Generated by IcoMoon.io -->
<svg version="1.1" xmlns="http://www.w3.org/2000/svg" width="32" height="32" viewBox="0 0 32 32">
<title>winifred</title>
<path d="M17.569 16.129c-0.034 0.092-0.053 0.193-0.087 0.288-0.039 0.098-0.098 0.193-0.143 0.291-0.098 0.216-0.26 0.403-0.442 0.557-0.107 0.090-0.201 0.182-0.321 0.26-0.109 0.068-0.202 0.157-0.311 0.218-0.103 0.059-0.201 0.090-0.316 0.112-0.143 0.031-0.277 0.073-0.423 0.090-0.129 0.018-0.26 0.031-0.389 0.014-0.112-0.014-0.218-0.056-0.328-0.078-0.174-0.039-0.294-0.12-0.428-0.235-0.152-0.129-0.308-0.249-0.384-0.439l-0.053-0.143c-0.113-0.139-0.221-0.294-0.319-0.456-0.406-0.476-0.613-1.187-0.526-1.768 0.025-0.28 0.121-0.538 0.313-0.751 0.398-0.433 1.030-0.532 1.601-0.47 0.359 0.042 0.871 0.092 1.251 0.285 0.076-0.036 0.202 0.031 0.322 0.093 0.082 0.039 0.14 0.112 0.221 0.154 0.092 0.048 0.185 0.14 0.255 0.218 0.191 0.216 0.313 0.456 0.431 0.716 0.078 0.177 0.118 0.355 0.126 0.546 0.008 0.171 0.011 0.336-0.051 0.498z"></path>
<path d="M26.458 6.789c-0.503-0.51-1.091-0.947-1.663-1.374-0.515-0.385-1.053-0.78-1.62-1.088-0.127-0.069-0.247-0.131-0.37-0.184l-0.069 0.096c-0.049 0.068-0.094 0.139-0.152 0.205-0.171 0.201-0.272 0.402-0.371 0.598-0.042 0.082-0.085 0.167-0.133 0.255-0.078 0.136-0.181 0.265-0.287 0.399-0.117 0.143-0.239 0.295-0.33 0.465-0.086 0.153-0.189 0.293-0.297 0.442-0.116 0.156-0.235 0.319-0.332 0.498-0.091 0.173-0.199 0.321-0.315 0.479l-0.127 0.174c-0.132 0.189-0.25 0.402-0.363 0.609-0.051 0.094-0.102 0.185-0.152 0.272-0.22 0.383-0.394 0.794-0.563 1.19-0.14 0.325-0.286 0.665-0.452 0.981-0.429 0.804-0.897 1.568-1.407 2.315l0.071 0.049c0.123 0.062 0.246 0.181 0.339 0.284 0.257 0.284 0.425 0.602 0.588 0.946 0.11 0.234 0.167 0.47 0.186 0.727 0.015 0.197 0.019 0.387-0.026 0.575 0.154-0.196 0.313-0.386 0.498-0.572 0.082-0.084 0.166-0.164 0.251-0.244 0.197-0.19 0.402-0.389 0.586-0.611 0.21-0.252 0.442-0.44 0.689-0.642 0.096-0.078 0.195-0.156 0.293-0.243 0.302-0.259 0.585-0.558 0.858-0.848 0.164-0.172 0.325-0.341 0.489-0.505 0.281-0.273 0.549-0.563 0.81-0.844 0.158-0.172 0.319-0.347 0.483-0.516 0.303-0.315 0.642-0.607 0.974-0.887 0.148-0.13 0.299-0.257 0.447-0.39l0.113-0.098c0.175-0.153 0.353-0.311 0.516-0.489l0.288-0.363c0.145-0.129 0.29-0.259 0.445-0.406 0.095-0.117 0.179-0.24 0.265-0.365 0.084-0.125 0.173-0.253 0.271-0.371l0.011-0.014c-0.142-0.174-0.285-0.345-0.444-0.505z"></path>
<path d="M28.945 1.807l-0.015-0.033c-0.086-0.199-0.155-0.357-0.47-0.416l-0.104-0.023-0.026-0.002-0.135-0.243c-0.026-0.025-0.069-0.060-0.137-0.072-0.104-0.020-0.185-0.021-0.288-0.016-0.073 0.002-0.146 0.001-0.221 0-0.121-0.002-0.244-0.004-0.367 0.010-0.503 0.058-1.080 0.358-1.421 0.599-0.485 0.34-0.975 0.66-1.46 0.958-0.165 0.1-0.274 0.248-0.379 0.394l-0.026 0.036c0.138 0.035 0.276 0.072 0.418 0.117 0.694 0.22 1.426 0.477 2 0.939 0.193 0.156 0.355 0.346 0.539 0.514 0.162 0.148 0.332 0.286 0.489 0.439 0.259 0.252 0.477 0.553 0.678 0.858 0.061-0.108 0.12-0.22 0.179-0.344 0.045-0.091 0.069-0.184 0.091-0.274 0.024-0.082 0.044-0.16 0.078-0.231l0.078-0.125c0.038-0.054 0.076-0.111 0.105-0.173l0.044-0.13 0.021-0.068c0.034-0.098 0.088-0.175 0.145-0.258 0.043-0.063 0.084-0.123 0.121-0.193 0.096-0.182 0.122-0.384 0.148-0.581 0.017-0.129 0.033-0.253 0.067-0.36 0.119-0.375 0.066-0.819-0.151-1.32z"></path>
<path d="M5.321 26.972c-0.349-0.141-0.735-0.228-1.096-0.332-0.062-0.018-0.125-0.036-0.187-0.054-0.317 0.485-0.617 0.977-0.888 1.482-0.089 0.167-0.107 0.309-0.125 0.448l-0.019 0.115c-0.008 0.063-0.028 0.113-0.047 0.169-0.032 0.080-0.064 0.173-0.071 0.308l-0.007 0.162c-0.015 0.319-0.034 0.679 0.14 0.968 0.111 0.19 0.374 0.454 0.517 0.573 0.167 0.134 0.387 0.172 0.608 0.183 0.084 0.004 0.168 0.004 0.249 0.002 0.073 0.001 0.143 0.001 0.207 0.004l0.022 0.001c0.652 0.030 1.122-0.326 1.578-0.669 0.102-0.076 0.2-0.153 0.305-0.224 0.197-0.139 0.362-0.319 0.522-0.497 0.092-0.102 0.181-0.205 0.28-0.295 0.202-0.193 0.369-0.412 0.534-0.622l0.027-0.036c-0.799-0.636-1.592-1.299-2.549-1.685z"></path>
<path d="M15.43 19.096c-0.187 0.032-0.367 0.079-0.556 0.094-0.17 0.014-0.343 0.023-0.511-0.006-0.145-0.026-0.28-0.089-0.421-0.126-0.224-0.060-0.378-0.178-0.545-0.338-0.177-0.17-0.357-0.332-0.452-0.562-1.179 1.072-2.424 2.086-3.601 3.023l-0.433 0.344c-0.553 0.437-1.123 0.886-1.653 1.366l-0.234 0.211c-0.518 0.466-1.055 0.948-1.509 1.487-0.102 0.121-0.196 0.246-0.295 0.369 0.452 0.078 0.859 0.309 1.272 0.512 0.545 0.267 0.963 0.648 1.431 1.028 0.344 0.279 0.646 0.624 0.943 0.959l0.024-0.032c0.211-0.257 0.425-0.516 0.644-0.764 0.184-0.21 0.359-0.434 0.532-0.648 0.191-0.246 0.394-0.497 0.603-0.731l0.148-0.161c0.195-0.212 0.398-0.43 0.553-0.672 0.179-0.286 0.4-0.595 0.689-0.977 0.218-0.287 0.428-0.585 0.629-0.876 0.282-0.404 0.574-0.822 0.894-1.205 0.116-0.14 0.243-0.274 0.367-0.409 0.154-0.161 0.31-0.33 0.456-0.514 0.095-0.119 0.201-0.235 0.307-0.35 0.172-0.189 0.352-0.382 0.494-0.608 0.095-0.152 0.205-0.296 0.321-0.437l-0.096 0.022z"></path>
</svg>
