<!-- Generated by IcoMoon.io -->
<svg version="1.1" xmlns="http://www.w3.org/2000/svg" width="33" height="32" viewBox="0 0 33 32">
<title>witchcraft</title>
<path d="M27.317 24.788c-0.68 0.035-1.324-0.012-2.003-0.059-0.036-0.002-0.071-0.005-0.107-0.008 0.059-0.055 0.116-0.111 0.172-0.168 0.436-0.443 0.819-0.931 1.176-1.439 0.161 0.464 0.422 0.885 0.623 1.341 0.025 0.060 0.078 0.182 0.142 0.333 0 0-0.001 0-0.002 0zM10.983 25.462c-0.001-0.001-0.002-0.002-0.005-0.004 0.287-0.069 0.566-0.139 0.837-0.203 0.663-0.157 1.319-0.25 1.989-0.369 0.543-0.096 1.035-0.408 1.517-0.667 0.406-0.217 0.74-0.513 1.056-0.838 1.339 1.221 2.789 2.288 4.583 2.77 0.412 0.11 0.836 0.179 1.264 0.23-2.911 3.017-8.206 1.12-11.241-0.919zM5.191 23.398c0.185-0.402 0.33-0.821 0.491-1.235 0.098 0.355 0.194 0.711 0.337 1.051 0.037 0.088 0.078 0.177 0.119 0.267-0.315-0.024-0.63-0.043-0.947-0.083zM6.736 13.999c0.116-0.524 0.478-0.959 0.754-1.406 0.070-0.115 0.434-0.657 0.23-0.425 0.176-0.211 0.351-0.412 0.508-0.654 0.298-0.46 0.528-0.973 1.022-1.248 0.5-0.278 1.054-0.445 1.559-0.719 0.528-0.287 1.12-0.5 1.728-0.668-0.208 0.582-0.371 1.199-0.475 1.808-0.239 1.394-0.235 2.847-0.121 4.256 0.002 0.035 0.007 0.069 0.011 0.103-0.496 0.232-0.97 0.499-1.448 0.781-0.552 0.325-1.144 0.564-1.679 0.925-0.8 0.541-1.476 1.296-2.125 2.051-0.085-0.473-0.096-0.958-0.122-1.441-0.064-1.116-0.085-2.263 0.159-3.361zM15.709 5.288c0.152-0.214 0.316-0.408 0.485-0.605 0.542 0.538 1 1.106 1.411 1.714-0.439-0.035-0.876-0.031-1.293 0.028-0.162 0.022-0.332 0.096-0.494 0.2-0.283 0.032-0.573 0.070-0.87 0.12 0.212-0.509 0.432-0.995 0.762-1.458zM15.276 18.973c-0.291-0.498-0.62-0.97-0.846-1.503-0.223-0.527-0.352-1.106-0.467-1.676 0.587-0.198 1.171-0.378 1.799-0.38 0.773-0.004 1.512 0.138 2.245 0.371 0.495 0.158 1.004 0.361 1.505 0.594-0.191 0.709-0.432 1.393-0.714 2.021-0.259 0.577-0.675 1.033-1.095 1.495-0.273 0.302-0.478 0.653-0.716 0.984-0.639-0.577-1.272-1.158-1.712-1.906zM13.619 10.843c0.065-0.733 0.182-1.472 0.411-2.175 0.015-0.046 0.033-0.089 0.050-0.133 0.202-0.036 0.402-0.070 0.598-0.102 1.434-0.228 2.912-0.007 4.298 0.374 0.005 0.001 0.011 0.002 0.015 0.002 0.425 0.782 0.8 1.545 0.93 2.509 0.128 0.944 0.117 1.962-0.005 2.979-0.93-0.381-1.869-0.634-2.906-0.656-1.129-0.023-2.235 0.314-3.307 0.707-0.157-1.157-0.184-2.36-0.084-3.505zM9.087 24.029c-0.173-0.18-0.332-0.376-0.467-0.593-0.498-0.797-0.952-1.572-1.2-2.488-0.094-0.343-0.218-0.661-0.344-0.981 0.69-0.832 1.473-1.708 2.366-2.172 0.915-0.475 1.785-0.926 2.699-1.32 0.37 2.029 1.177 3.929 2.68 5.411 0.255 0.253 0.51 0.504 0.769 0.754-0.492 0.366-1.029 0.486-1.62 0.571-1.51 0.219-2.984 0.801-4.521 0.834-0.121 0.002-0.241-0.006-0.362-0.017zM23.761 24.617c-0.894-0.080-1.777-0.219-2.621-0.565-1.198-0.49-2.327-1.394-3.227-2.31-0.041-0.041-0.083-0.080-0.125-0.122 0.271-0.316 0.537-0.642 0.739-1.003 0.063-0.061 0.124-0.122 0.182-0.188 0.259-0.281 0.496-0.6 0.728-0.903 0.589-0.768 0.962-1.62 1.292-2.509 0.362 0.211 0.711 0.432 1.032 0.662 0.479 0.342 0.89 0.746 1.316 1.148 0.45 0.425 1.012 0.703 1.481 1.106 0.481 0.415 0.977 0.89 1.364 1.394 0.019 0.024 0.045 0.059 0.074 0.096-0.061 0.309-0.124 0.62-0.232 0.884-0.172 0.42-0.593 0.88-0.898 1.208-0.36 0.385-0.739 0.737-1.105 1.102zM25.354 13.677c0.49 1.019 0.87 2.12 1.199 3.21 0.194 0.642 0.181 1.283 0.078 1.921-0.125-0.116-0.244-0.223-0.352-0.323-0.815-0.74-1.727-1.352-2.54-2.088-0.68-0.617-1.555-1.064-2.414-1.464 0.106-0.589 0.179-1.186 0.245-1.752 0.129-1.092 0.157-2.151 0.024-3.243 0.635 0.398 1.193 0.899 1.764 1.398 0.796 0.694 1.536 1.384 1.995 2.341zM29.24 24.135c-0.448-1.11-0.925-2.149-1.157-3.314-0.047-0.236-0.157-0.475-0.302-0.708 0.045-0.203 0.092-0.406 0.142-0.609 0.355-1.436 0.755-2.69 0.247-4.147-0.472-1.352-0.81-2.791-1.667-3.953-0.744-1.006-1.801-1.942-2.801-2.718-0.908-0.705-2.084-1.181-3.202-1.577-0.152-0.278-0.302-0.559-0.438-0.851-0.544-1.172-1.354-2.227-2.277-3.139 0.238-0.393 0.304-0.774-0.031-0.843-1.089-0.222-1.852 1.079-2.456 1.786-0.787 0.921-1.403 1.906-1.882 3.009-0.559 0.148-1.102 0.323-1.591 0.526-0.557 0.23-1.054 0.569-1.614 0.796-0.587 0.237-1.1 0.542-1.601 0.929-0.46 0.357-0.797 0.772-1.124 1.251-0.19 0.278-0.362 0.571-0.554 0.848 0.005-0.019-0.341 0.429-0.404 0.524-0.62 0.926-1.341 1.967-1.503 3.090-0.208 1.429-0.224 2.796-0.112 4.238 0.037 0.472 0.108 0.913 0.24 1.35-0.2 0.278-0.38 0.57-0.536 0.888-0.319 0.649-0.481 1.801-0.989 2.308-0.179 0.179-0.814 1.114-0.231 1.253 0.713 0.168 1.347 0.135 2.067 0.223 0.764 0.093 1.505 0.366 2.267 0.489 1.861 1.776 4.384 2.991 6.868 3.579 0.614 0.145 1.204 0.334 1.838 0.379 0.573 0.039 1.144-0.050 1.713-0.086 0.56-0.036 1.203-0.143 1.736-0.316 0.575-0.188 1.024-0.597 1.54-0.896 0.892-0.519 1.51-1.192 2.119-1.953 0.483 0.027 0.966 0.050 1.439 0.091 0.587 0.051 1.16 0.002 1.746-0.017 0.485-0.015 1.078 0.033 1.541-0.119 0.518-0.168 0.952-0.661 1.129-1.167 0.154-0.445 0.006-0.727-0.162-1.143z"></path>
</svg>
