<!-- Generated by IcoMoon.io -->
<svg version="1.1" xmlns="http://www.w3.org/2000/svg" width="32" height="32" viewBox="0 0 32 32">
<title>wonderland_boons</title>
<path d="M5.703 25.144l0.058-4.996h10.099l0.115 9.992h-10.33zM16.447 25.144l0.058-4.996h9.884l0.115 9.992h-10.115zM5.653 14.561v-5.057l10.207 0.115v9.884l-10.207 0.115zM16.544 19.471c-0.081-0.081-0.147-2.355-0.147-5.054v-4.906h10.107l-0.115 9.992-4.849 0.058c-2.667 0.032-4.915-0.009-4.996-0.090zM9.971 9.031c-0.809-0.3-1.658-1.277-1.43-1.647 0.088-0.143 0.927-0.24 2.121-0.246l1.975-0.009-0.78-0.412c-1.032-0.545-1.906-1.612-1.905-2.325 0.001-0.909 0.729-1.895 1.615-2.188 1.197-0.395 3.416-0.19 4.017 0.371l0.49 0.458 0.603-0.521c0.504-0.436 0.83-0.521 1.994-0.521 1.634 0 2.652 0.369 3.16 1.145 0.859 1.311 0.129 2.842-1.778 3.726-0.46 0.214-0.243 0.254 1.453 0.269 2.368 0.021 2.671 0.286 1.577 1.38-0.68 0.679-0.68 0.679-3 0.675-1.78-0.003-2.523-0.095-3.19-0.396-0.821-0.37-0.909-0.372-1.568-0.031-0.919 0.475-4.338 0.649-5.354 0.273zM14.647 4.929c0.358-0.432-0.128-0.79-1.073-0.79-0.849 0-1.16 0.247-0.962 0.762 0.153 0.399 1.71 0.42 2.036 0.028zM19.684 5.078c0.075-0.075 0.039-0.316-0.079-0.537-0.154-0.287-0.454-0.402-1.054-0.402-0.882 0-1.198 0.241-0.998 0.762 0.121 0.316 1.849 0.459 2.131 0.176z"></path>
</svg>
