<!-- Generated by IcoMoon.io -->
<svg version="1.1" xmlns="http://www.w3.org/2000/svg" width="33" height="32" viewBox="0 0 33 32">
<title>x-fill1</title>
<path d="M20.95 2.416c-0.335 0-0.596 0.153-0.785 0.458-0.125 0.196-0.188 0.37-0.188 0.523 0 0.174 0.105 0.294 0.314 0.36 0.398 0.109 0.701 0.338 0.91 0.687 0.084 0.109 0.125 0.316 0.125 0.621 0 0.349-0.094 0.817-0.282 1.406-0.356 1.003-1.371 2.637-3.045 4.904-0.356 0.501-0.649 0.752-0.879 0.752-0.146-0.109-0.398-0.403-0.753-0.883-1.653-2.397-2.658-4.097-3.013-5.1-0.251-0.719-0.377-1.264-0.377-1.635 0-0.196 0.031-0.338 0.094-0.425 0.167-0.349 0.408-0.545 0.722-0.588 0.188 0 0.283-0.087 0.283-0.262 0-0.131-0.063-0.294-0.188-0.49-0.188-0.305-0.45-0.458-0.785-0.458-0.377 0.087-1.036 0.163-1.977 0.229-0.837 0.065-1.496 0.098-1.978 0.098-1.046 0-2.082-0.076-3.108-0.229-0.146 0-0.251 0.109-0.314 0.327 0 0.283 0.021 0.458 0.063 0.523 0.377 0.479 0.649 0.719 0.816 0.719s0.46 0.207 0.879 0.621c0.439 0.414 1.14 1.34 2.103 2.779 0.879 1.308 2.417 3.716 4.614 7.225 0.188 0.283 0.283 0.578 0.283 0.883s-0.126 0.61-0.377 0.915c-2.469 3.596-4.321 6.179-5.556 7.748-1.277 1.634-2.155 2.703-2.637 3.204-0.523 0.545-0.868 0.85-1.036 0.915s-0.419 0.37-0.753 0.915c0 0.022-0.021 0.055-0.063 0.098-0.042 0.087-0.063 0.153-0.063 0.196 0 0.087 0.115 0.131 0.345 0.131 0.544-0.044 1.015-0.076 1.413-0.098 0.544-0.044 0.994-0.066 1.35-0.066 0.481 0 1.161 0.033 2.040 0.098 0.858 0.065 1.528 0.131 2.009 0.196 0.335 0 0.596-0.142 0.785-0.425 0.188-0.262 0.283-0.469 0.283-0.621s-0.105-0.229-0.314-0.229c-0.398 0-0.691-0.196-0.879-0.588-0.042-0.087-0.063-0.218-0.063-0.392 0-0.436 0.209-1.155 0.628-2.158 0.523-1.264 1.925-3.476 4.206-6.637 0.188-0.283 0.387-0.425 0.596-0.425 0.188 0 0.377 0.142 0.565 0.425 2.051 3.117 3.306 5.318 3.767 6.604 0.356 0.937 0.534 1.645 0.534 2.125 0 0.174-0.031 0.327-0.094 0.458-0.188 0.436-0.471 0.654-0.848 0.654-0.209 0-0.314 0.076-0.314 0.229 0 0.109 0.073 0.294 0.22 0.556 0.146 0.283 0.408 0.425 0.785 0.425 0.439-0.065 1.214-0.131 2.323-0.196s1.894-0.098 2.354-0.098c0.984 0 2.019 0.066 3.108 0.196 0.23 0 0.345-0.055 0.345-0.163 0-0.087-0.031-0.174-0.094-0.262-0.356-0.567-0.67-0.937-0.942-1.112-0.251-0.174-0.659-0.567-1.224-1.177-0.523-0.588-1.371-1.689-2.543-3.302-1.109-1.526-2.72-4.021-4.834-7.486-0.314-0.458-0.471-0.904-0.471-1.34 0-0.392 0.136-0.796 0.408-1.21 2.239-3.247 3.871-5.503 4.897-6.767 1.088-1.351 1.821-2.19 2.197-2.517 0.356-0.37 0.628-0.556 0.816-0.556 0.063-0.044 0.167-0.142 0.314-0.294s0.303-0.349 0.471-0.588c0-0.022 0.021-0.054 0.063-0.098 0.042-0.087 0.063-0.153 0.063-0.196 0-0.109-0.115-0.163-0.345-0.163-1.025 0.153-2.061 0.229-3.108 0.229-0.502 0-1.13-0.033-1.883-0.098-0.774-0.065-1.392-0.131-1.852-0.196l-0.125 0.098z"></path>
</svg>
