<!-- Generated by IcoMoon.io -->
<svg version="1.1" xmlns="http://www.w3.org/2000/svg" width="33" height="32" viewBox="0 0 33 32">
<title>x-outline1</title>
<path d="M20.957 4.131c0.092 0.090 0.174 0.195 0.245 0.313 0.084 0.109 0.125 0.316 0.125 0.621 0 0.349-0.094 0.817-0.282 1.406-0.356 1.003-1.371 2.637-3.045 4.904-0.356 0.501-0.649 0.752-0.879 0.752-0.146-0.109-0.398-0.403-0.753-0.883-1.653-2.397-2.658-4.097-3.013-5.1-0.251-0.719-0.377-1.264-0.377-1.635 0-0.196 0.031-0.338 0.094-0.425 0.008-0.018 0.017-0.035 0.026-0.052 0.088-0.168 0.195-0.297 0.32-0.388 0.111-0.080 0.236-0.13 0.376-0.149 0.188 0 0.283-0.087 0.283-0.262 0-0.131-0.063-0.294-0.188-0.49-0.030-0.048-0.061-0.092-0.094-0.132-0.044-0.054-0.092-0.101-0.143-0.142-0.153-0.122-0.336-0.184-0.548-0.184-0.118 0.027-0.264 0.054-0.438 0.079-0.136 0.020-0.288 0.039-0.458 0.057-0.305 0.033-0.666 0.064-1.081 0.093-0.837 0.065-1.496 0.098-1.978 0.098-0.478 0-0.954-0.016-1.427-0.048-0.123-0.008-0.245-0.018-0.367-0.028-0.138-0.012-0.276-0.025-0.414-0.039-0.062-0.007-0.125-0.013-0.187-0.020-0.049-0.006-0.098-0.011-0.147-0.017-0.189-0.023-0.377-0.048-0.565-0.076-0.146 0-0.251 0.109-0.314 0.327 0 0.283 0.021 0.458 0.063 0.523 0.036 0.046 0.071 0.090 0.105 0.131 0.051 0.062 0.099 0.119 0.146 0.171 0.249 0.278 0.437 0.418 0.565 0.418 0.017 0 0.035 0.002 0.054 0.006 0.111 0.024 0.264 0.117 0.458 0.278 0.109 0.091 0.231 0.203 0.367 0.337 0.439 0.414 1.14 1.34 2.103 2.779 0.879 1.308 2.417 3.716 4.614 7.225 0.188 0.283 0.283 0.578 0.283 0.883s-0.126 0.61-0.377 0.915c-2.469 3.596-4.321 6.179-5.556 7.748-1.277 1.634-2.155 2.703-2.637 3.204-0.171 0.178-0.323 0.331-0.456 0.458-0.166 0.158-0.302 0.277-0.409 0.355-0.069 0.051-0.126 0.085-0.17 0.102-0.129 0.050-0.306 0.242-0.534 0.575-0.018 0.026-0.036 0.053-0.055 0.082-0.053 0.079-0.107 0.166-0.165 0.259 0 0.022-0.021 0.055-0.063 0.098-0.042 0.087-0.063 0.153-0.063 0.196 0 0.087 0.115 0.131 0.345 0.131 0.018-0.002 0.036-0.003 0.054-0.004 0.099-0.008 0.195-0.015 0.289-0.022 0.026-0.002 0.051-0.004 0.076-0.006 0.216-0.016 0.419-0.030 0.609-0.043 0.119-0.008 0.232-0.015 0.341-0.021 0.015-0.001 0.029-0.002 0.044-0.002 0.017-0.002 0.035-0.003 0.052-0.004 0.119-0.009 0.232-0.018 0.342-0.025 0.371-0.024 0.69-0.037 0.956-0.037 0.481 0 1.161 0.033 2.040 0.098 0.432 0.033 0.815 0.066 1.152 0.099 0.226 0.022 0.43 0.044 0.613 0.066 0.086 0.010 0.167 0.021 0.244 0.031 0.317 0 0.568-0.127 0.753-0.38 0.011-0.015 0.021-0.030 0.031-0.045 0.188-0.262 0.283-0.469 0.283-0.621s-0.105-0.229-0.314-0.229c-0.216 0-0.402-0.058-0.556-0.174-0.072-0.055-0.138-0.122-0.197-0.202-0.014-0.020-0.028-0.040-0.042-0.061-0.005-0.007-0.009-0.015-0.014-0.023-0.025-0.040-0.048-0.083-0.070-0.128-0.042-0.087-0.063-0.218-0.063-0.392 0-0.436 0.209-1.155 0.628-2.158 0.523-1.264 1.925-3.476 4.206-6.637 0.188-0.283 0.387-0.425 0.596-0.425 0.188 0 0.377 0.142 0.565 0.425 2.051 3.117 3.306 5.318 3.767 6.604 0.356 0.937 0.534 1.645 0.534 2.125 0 0.174-0.031 0.327-0.094 0.458-0.018 0.043-0.038 0.084-0.058 0.122-0.006 0.012-0.013 0.023-0.019 0.035-0.025 0.045-0.052 0.087-0.080 0.126-0.061 0.086-0.129 0.157-0.203 0.213-0.14 0.105-0.302 0.158-0.487 0.158-0.209 0-0.314 0.076-0.314 0.229 0 0.109 0.073 0.294 0.22 0.556 0.027 0.053 0.059 0.101 0.094 0.144 0.154 0.187 0.384 0.281 0.691 0.281 0.106-0.016 0.232-0.032 0.377-0.047 0.167-0.018 0.361-0.036 0.58-0.055 0.378-0.031 0.834-0.063 1.366-0.094 1.109-0.065 1.894-0.098 2.354-0.098 0.456 0 0.924 0.014 1.403 0.042 0.017 0.001 0.034 0.002 0.052 0.003 0.024 0.002 0.047 0.003 0.071 0.004 0.071 0.004 0.142 0.009 0.213 0.014 0.331 0.024 0.667 0.054 1.008 0.091 0.023 0.002 0.045 0.005 0.068 0.007 0.097 0.011 0.195 0.022 0.292 0.034 0.23 0 0.345-0.055 0.345-0.163 0-0.087-0.031-0.174-0.094-0.262-0.057-0.091-0.114-0.178-0.169-0.259-0.028-0.041-0.055-0.080-0.082-0.118-0.233-0.327-0.445-0.56-0.637-0.698-0.018-0.013-0.036-0.025-0.053-0.036-0.095-0.066-0.212-0.162-0.351-0.29-0.23-0.211-0.521-0.507-0.873-0.887-0.523-0.588-1.371-1.689-2.543-3.302-1.109-1.526-2.72-4.021-4.834-7.486-0.314-0.458-0.471-0.904-0.471-1.34 0-0.392 0.136-0.796 0.408-1.21 2.239-3.247 3.871-5.503 4.897-6.767 1.088-1.351 1.821-2.19 2.197-2.517 0.006-0.006 0.012-0.013 0.018-0.019 0.231-0.238 0.426-0.397 0.585-0.477 0.080-0.040 0.15-0.060 0.212-0.060 0.063-0.044 0.167-0.142 0.314-0.294 0.081-0.084 0.164-0.181 0.251-0.291 0.031-0.039 0.062-0.080 0.094-0.123 0.041-0.055 0.083-0.113 0.126-0.174 0-0.022 0.021-0.054 0.063-0.098 0.042-0.087 0.063-0.153 0.063-0.196 0-0.109-0.115-0.163-0.345-0.163-0.026 0.004-0.053 0.008-0.080 0.012-0.094 0.014-0.188 0.026-0.282 0.039l-0.002 0c-0.067 0.009-0.135 0.017-0.202 0.025-0.209 0.025-0.418 0.047-0.627 0.066-0.059 0.005-0.118 0.010-0.177 0.015-0.005 0-0.011 0.001-0.016 0.001-0.028 0.002-0.057 0.005-0.085 0.007-0.199 0.015-0.398 0.028-0.598 0.038-0.345 0.017-0.692 0.025-1.040 0.025-0.502 0-1.13-0.033-1.883-0.098-0.602-0.051-1.11-0.102-1.522-0.153-0.077-0.009-0.15-0.019-0.22-0.028-0.038-0.005-0.074-0.010-0.11-0.015l-0.125 0.098c-0.089 0-0.172 0.011-0.25 0.032-0.019 0.005-0.037 0.011-0.055 0.017-0.193 0.067-0.353 0.203-0.48 0.409-0.125 0.196-0.188 0.37-0.188 0.523 0 0.174 0.105 0.294 0.314 0.36 0.26 0.071 0.48 0.194 0.659 0.368 0.002 0.002 0.004 0.004 0.006 0.006zM19.42 5.92c0.083-0.262 0.131-0.459 0.159-0.599-0.26-0.107-0.559-0.282-0.815-0.576-0.352-0.403-0.501-0.889-0.501-1.348 0-0.603 0.238-1.099 0.452-1.436 0.37-0.593 0.931-1.027 1.621-1.189 0.303-0.145 0.644-0.199 0.981-0.151 0.414 0.059 0.995 0.121 1.755 0.185l0.004 0c0.726 0.063 1.3 0.092 1.735 0.092 0.963 0 1.914-0.070 2.855-0.21 0.084-0.012 0.168-0.019 0.252-0.019 0.196 0 0.589 0.015 0.993 0.206 0.224 0.106 0.507 0.293 0.733 0.614 0.236 0.336 0.334 0.711 0.334 1.058 0 0.456-0.176 0.823-0.229 0.933l-0.003 0.005c-0.039 0.080-0.083 0.158-0.134 0.231-0.022 0.036-0.045 0.072-0.069 0.107-0.201 0.287-0.413 0.559-0.64 0.794-0.133 0.139-0.349 0.36-0.573 0.515-0.137 0.095-0.285 0.169-0.442 0.22-0.030 0.028-0.069 0.066-0.116 0.115-0.036 0.037-0.074 0.073-0.113 0.107-0.238 0.207-0.871 0.913-1.986 2.298l-0.004 0.005c-0.977 1.204-2.571 3.404-4.804 6.642-0.102 0.159-0.116 0.24-0.118 0.255zM20.75 14.774c0 0.009 0.001 0.124 0.17 0.37 0.017 0.025 0.034 0.051 0.050 0.077 2.11 3.46 3.691 5.905 4.757 7.371 1.164 1.602 1.964 2.636 2.426 3.158 0.264 0.284 0.479 0.505 0.648 0.668 0.085 0.082 0.154 0.144 0.206 0.189 0.037 0.032 0.060 0.050 0.071 0.058 0.579 0.387 1.038 1.005 1.402 1.581 0.206 0.305 0.377 0.714 0.377 1.206 0 0.347-0.098 0.723-0.334 1.058-0.225 0.32-0.508 0.507-0.733 0.614-0.404 0.191-0.797 0.206-0.992 0.206-0.068 0-0.137-0.004-0.205-0.012-1.028-0.124-1.995-0.184-2.903-0.184-0.405 0-1.144 0.030-2.253 0.095-1.111 0.066-1.816 0.128-2.171 0.18-0.083 0.012-0.168 0.019-0.252 0.019-0.399 0-0.856-0.075-1.295-0.313-0.444-0.241-0.777-0.597-0.997-1.009-0.090-0.162-0.18-0.34-0.252-0.522-0.061-0.155-0.175-0.47-0.175-0.851 0-0.513 0.205-1.136 0.783-1.557 0.133-0.097 0.268-0.17 0.399-0.224-0.061-0.249-0.168-0.602-0.348-1.076l-0.011-0.030c-0.328-0.916-1.218-2.554-2.773-4.988-1.768 2.512-2.785 4.185-3.163 5.098l-0.002 0.005c-0.16 0.383-0.277 0.699-0.359 0.953 0.111 0.051 0.224 0.115 0.336 0.197 0.578 0.421 0.783 1.044 0.783 1.557 0 0.72-0.377 1.303-0.59 1.601-0.501 0.733-1.284 1.16-2.192 1.16-0.077 0-0.154-0.005-0.231-0.016-0.432-0.058-1.062-0.121-1.906-0.185-0.865-0.064-1.495-0.093-1.912-0.093-0.293 0-0.693 0.018-1.213 0.060-0.014 0.001-0.029 0.002-0.043 0.003-0.379 0.021-0.835 0.052-1.369 0.095-0.046 0.004-0.091 0.006-0.137 0.006-0.174 0-0.512-0.010-0.866-0.144-0.189-0.071-0.485-0.216-0.744-0.511-0.29-0.33-0.449-0.751-0.449-1.19 0-0.456 0.176-0.823 0.229-0.933l0.002-0.005c0.039-0.080 0.083-0.157 0.134-0.231 0.005-0.008 0.009-0.015 0.014-0.023 0.187-0.304 0.38-0.591 0.576-0.829 0.122-0.148 0.404-0.483 0.831-0.703 0.015-0.013 0.034-0.029 0.056-0.048 0.123-0.108 0.303-0.283 0.55-0.54 0.411-0.428 1.237-1.426 2.522-3.072l0.004-0.005c1.198-1.522 3.023-4.066 5.49-7.658l0.002-0.002c-2.17-3.464-3.677-5.823-4.531-7.094l-0.002-0.003c-0.978-1.461-1.578-2.224-1.854-2.485-0.010-0.010-0.020-0.019-0.030-0.029-0.085-0.084-0.156-0.15-0.212-0.199-0.002-0.002-0.004-0.004-0.006-0.006-0.177-0.052-0.319-0.12-0.421-0.175-0.205-0.112-0.372-0.243-0.497-0.354-0.249-0.22-0.486-0.492-0.701-0.767-0.034-0.043-0.066-0.088-0.096-0.135-0.244-0.381-0.291-0.78-0.304-0.892-0-0.003-0.001-0.006-0.001-0.008-0.022-0.183-0.028-0.374-0.028-0.548 0-0.161 0.023-0.32 0.067-0.474 0.073-0.253 0.219-0.627 0.536-0.958 0.364-0.379 0.869-0.609 1.425-0.609 0.084 0 0.169 0.006 0.252 0.019 0.941 0.14 1.893 0.21 2.855 0.21 0.416 0 1.024-0.029 1.844-0.093l0.015-0.001c0.943-0.066 1.48-0.135 1.71-0.189 0.127-0.029 0.256-0.044 0.386-0.044 0.973 0 1.761 0.498 2.236 1.259 0.182 0.287 0.452 0.786 0.452 1.404 0 0.387-0.111 0.982-0.62 1.454-0.126 0.117-0.258 0.208-0.389 0.279 0.045 0.167 0.107 0.369 0.19 0.607 0.24 0.675 0.956 1.951 2.277 3.918 1.261-1.768 1.939-2.933 2.172-3.571z"></path>
</svg>
