<!-- Generated by IcoMoon.io -->
<svg version="1.1" xmlns="http://www.w3.org/2000/svg" width="32" height="32" viewBox="0 0 32 32">
<title>zoogs</title>
<path d="M12.665 10.151c0.185 0 0.43-0.045 0.609-0.002 0.066 0.015 0.124 0.046 0.196 0.062 0.095 0.021 0.218 0.060 0.307 0.091 0.138 0.046 0.324 0.178 0.442 0.266 0.042 0.032 0.105 0.085 0.104 0.138-0.001 0.027-0.107 0.191-0.121 0.2-0.112 0.079-0.387-0.040-0.502-0.048-0.153-0.009-0.298-0.074-0.454-0.102-0.292-0.051-0.538-0.172-0.774-0.364 0.036-0.087 0.060-0.13 0.144-0.19z"></path>
<path d="M17.812 10.807c0.008-0.087 0.184-0.127 0.252-0.152 0.111-0.040 0.224-0.088 0.325-0.151 0.082-0.052 0.155-0.126 0.255-0.148 0.099-0.021 0.161-0.021 0.251-0.054 0.111-0.041 0.211-0.051 0.331-0.051 0.132 0 0.185-0.038 0.202 0.1 0.022 0.178-0.059 0.318-0.201 0.418-0.153 0.107-0.333 0.176-0.504 0.252-0.214 0.094-0.425 0.19-0.659 0.19-0.035 0-0.121 0.018-0.155 0.003-0.056-0.027-0.033-0.044-0.059-0.092-0.053-0.102-0.042-0.147 0.026-0.254 0.12-0.19 0.252-0.33 0.492-0.364z"></path>
<path d="M19.841 10.415c-0.053 0.215-0.161 0.406-0.314 0.568-0.088 0.093-0.175 0.167-0.278 0.248-0.086 0.069-0.238 0.183-0.339 0.222-0.139 0.052-0.304 0.033-0.446 0.071-0.159 0.042-0.222 0.037-0.381-0.006-0.179-0.048-0.459-0.137-0.59-0.294-0.047-0.057-0.153-0.211-0.177-0.277-0.044-0.124 0.002-0.235 0.042-0.341 0.032-0.085 0.021-0.075 0.075-0.152 0.029-0.041 0.041-0.085 0.074-0.127 0.041-0.055 0.093-0.092 0.127-0.106 0.048-0.070 0.157-0.1 0.225-0.132 0.135-0.064 0.252-0.124 0.38-0.193 0.232-0.126 0.472-0.149 0.732-0.149 0.244 0 0.477-0.012 0.686 0.1 0.114 0.061 0.164 0.1 0.196 0.227 0.018 0.064 0.024 0.11 0.025 0.178 0.002 0.075-0.026 0.108-0.039 0.162zM17.017 12.837c-0.109 0.108-0.232 0.19-0.377 0.228-0.162 0.045-0.35-0.012-0.514 0.015-0.034 0.003-0.042 0.051-0.080 0.051-0.026 0.001-0.075-0.045-0.099-0.055-0.079-0.035-0.128-0.052-0.192-0.113-0.055-0.054-0.111-0.068-0.166-0.112-0.058-0.046-0.108-0.114-0.164-0.166-0.087-0.082-0.207-0.179-0.271-0.279 0.073-0.074 0.408-0.058 0.507-0.032 0.091 0.021 0.372 0.12 0.433 0.197l0.051 0.101c0.073 0.018 0.158-0.057 0.227-0.077 0.088-0.024 0.187-0.061 0.278-0.078 0.041-0.006 0.087 0.012 0.128 0.003 0.035-0.006 0.059-0.034 0.085-0.041 0.058-0.015 0.215-0.038 0.271-0.009 0.124 0.065-0.047 0.294-0.118 0.364zM14.089 11.359c-0.118-0.001-0.235 0-0.353 0-0.053 0-0.113 0.009-0.164 0.001-0.061-0.009-0.080-0.032-0.129-0.047-0.101-0.027-0.226-0.027-0.325-0.064-0.055-0.021-0.102-0.081-0.162-0.106-0.082-0.037-0.144-0.052-0.218-0.107-0.073-0.054-0.146-0.114-0.226-0.158-0.060-0.033-0.154-0.065-0.191-0.135-0.031-0.059-0.054-0.175-0.062-0.241-0.012-0.106 0.002-0.222 0.002-0.33 0-0.201 0.019-0.424 0.2-0.556s0.487-0.075 0.557-0.075c0.413 0.003 0.773 0.188 1.132 0.379 0.271 0.145 0.378 0.297 0.497 0.57 0.175 0.405-0.117 0.872-0.558 0.869zM29.072 8.527c-0.301-0.162-0.668-0.214-0.997-0.298-0.43-0.108-0.86-0.199-1.302-0.241-0.299-0.027-0.598-0.091-0.897-0.108-0.252-0.015-0.503-0.018-0.754-0.039-0.405-0.032-0.806-0.097-1.211-0.13-0.252-0.021-0.49-0.040-0.732-0.111-0.324-0.095-0.672-0.2-1.011-0.225-0.519-0.039-1.050-0.012-1.573-0.006-0.109-0.064-0.221-0.121-0.339-0.161-0.154-0.051-0.278-0.157-0.431-0.219-0.147-0.059-0.29-0.158-0.451-0.174-0.12-0.012-0.181-0.006-0.292-0.062-0.076-0.038-0.151-0.072-0.24-0.086-0.167-0.027-0.318-0.085-0.466-0.175-0.154-0.093-0.212-0.262-0.335-0.385-0.054-0.054-0.102-0.086-0.139-0.154-0.060-0.11-0.092-0.267-0.192-0.147-0.075 0.090-0.097 0.287-0.181 0.361-0.033 0.030-0.085 0.032-0.122 0.055-0.054 0.034-0.092 0.108-0.151 0.134-0.138 0.059-0.372-0.006-0.446-0.141-0.032-0.059-0.038-0.181-0.059-0.251-0.041-0.129-0.018-0.282-0.059-0.405-0.14-0.018-0.224 0.188-0.257 0.286-0.027 0.080-0.054 0.159-0.075 0.241-0.031 0.127-0.034 0.174-0.164 0.176-0.118 0.001-0.335 0.047-0.427-0.049-0.095-0.099-0.046-0.196-0.225-0.094-0.208 0.12-0.444 0.308-0.685 0.343-0.082 0.012-0.085-0.012-0.147-0.047-0.127-0.068-0.254-0.087-0.397-0.117-0.424-0.087-0.816-0.015-1.223 0.114-0.146 0.046-0.237 0.167-0.384 0.198-0.162 0.033-0.317 0.084-0.477 0.132-0.172 0.052-0.327 0.2-0.459 0.326-0.165 0.159-0.291 0.343-0.499 0.458-0.238 0.132-0.447-0.006-0.678-0.054-0.344-0.071-0.665-0.149-1.024-0.149-0.114 0-0.231-0.003-0.346-0.002-0.14 0.002-0.253 0.066-0.388 0.093-0.265 0.053-0.539 0.111-0.807 0.152-0.139 0.021-0.28 0.012-0.421 0.033-0.202 0.030-0.406 0.060-0.608 0.090-0.194 0.027-0.39 0.059-0.584 0.079-0.253 0.027-0.506-0.006-0.759 0.021-0.27 0.031-0.528 0.074-0.796 0.094-0.166 0.012-0.324 0.067-0.487 0.086-0.207 0.024-0.387 0.047-0.59 0.101-0.301 0.079-0.556 0.278-0.852 0.377-0.088 0.030-0.19 0.048-0.288 0.082-0.087 0.030-0.252 0.027-0.306 0.105-0.099 0.141 0.358 0.249 0.457 0.254 0.058 0.003 0.121-0.012 0.178-0.002 0.054 0.009 0.096 0.045 0.151 0.055 0.076 0.015 0.126-0.012 0.202 0.027 0.080 0.038 0.154 0.105 0.231 0.153 0.141 0.089 0.284 0.186 0.433 0.26 0.267 0.134 0.572 0.216 0.846 0.341 0.233 0.106 0.498 0.225 0.752 0.268 0.208 0.037 0.401 0.099 0.607 0.108 0.174 0.006 0.4 0.041 0.564 0.1 0.18 0.065 0.335 0.195 0.514 0.267 0.173 0.069 0.326 0.155 0.495 0.227 0.045 0.018 0.1 0.041 0.137 0.073 0.027 0.024 0.041 0.068 0.072 0.093 0.042 0.033 0.101 0.038 0.147 0.062 0.107 0.057 0.179 0.097 0.299 0.126 0.114 0.030 0.246 0.012 0.365 0.012 0.324 0 0.674 0.051 0.952 0.241 0.081 0.055 0.164 0.088 0.247 0.135 0.115 0.065 0.161 0.227 0.254 0.319 0.098 0.097 0.181 0.168 0.319 0.214 0.135 0.044 0.297 0.058 0.386 0.179 0.325 0.445 0.351 1.045 0.631 1.512 0.119 0.199 0.278 0.36 0.452 0.507 0.094 0.079 0.204 0.147 0.292 0.232 0.141 0.132 0.242 0.37 0.312 0.546 0.031 0.078 0.018 0.143 0.034 0.222 0.014 0.073 0.042 0.115 0.046 0.191 0.013 0.248-0.019 0.501-0.062 0.745-0.076 0.431-0.141 0.834-0.14 1.273 0.001 0.415-0.124 0.845-0.013 1.251 0.122 0.448 0.4 0.838 0.621 1.25 0.065 0.122 0.097 0.24 0.199 0.341 0.064 0.062 0.178 0.082 0.205 0.174 0.013 0.044-0.003 0.095 0.009 0.142 0.015 0.059 0.041 0.080 0.040 0.16-0.003 0.202 0.045 0.353-0.001 0.544-0.034 0.146-0.046 0.271-0.119 0.395-0.089 0.154-0.185 0.354-0.235 0.524-0.112 0.377-0.191 0.763-0.275 1.138-0.075 0.33 0.087 0.737 0.277 1.010 0.067 0.095 0.134 0.191 0.2 0.287 0.135 0.205 0.184 0.355 0.255 0.592 0.024 0.079 0.036 0.147 0.049 0.227 0.011 0.064 0.046 0.118 0.054 0.18 0.011 0.071-0.033 0.139-0.054 0.204-0.045 0.14-0.061 0.288-0.101 0.431-0.061 0.218-0.14 0.453-0.152 0.679-0.007 0.125 0 0.192 0.064 0.287 0.092 0.137 0.117 0.31 0.19 0.459 0.073 0.147 0.189 0.225 0.292 0.348 0.061-0.062 0.079-0.181 0.106-0.262 0.028-0.085 0.082-0.175 0.104-0.258 0.068-0.268-0.048-0.553-0.047-0.818 0.001-0.117-0.001-0.233 0-0.351 0.001-0.157-0.034-0.311-0.015-0.465 0.032-0.261 0.076-0.512 0.119-0.767 0.026-0.155 0.004-0.354-0.052-0.495-0.066-0.165-0.079-0.344-0.151-0.505-0.073-0.167-0.155-0.319-0.217-0.491-0.081-0.232-0.101-0.406-0.092-0.655 0.014-0.383 0.199-0.817 0.381-1.144 0.073-0.13 0.135-0.3 0.167-0.446 0.021-0.094 0.002-0.186 0.021-0.281 0.021-0.106 0.040-0.16 0.031-0.266-0.047-0.524-0.255-1.009-0.365-1.519-0.052-0.238-0.101-0.499-0.193-0.724-0.099-0.241-0.109-0.492-0.152-0.75-0.068-0.41-0.086-0.793-0.091-1.205-0.003-0.332 0.1-0.703 0.342-0.937 0.229-0.22 1.203-0.844 1.229-0.106 0.003 0.114 0.015 0.267 0.004 0.38-0.019 0.201-0.22 0.353-0.327 0.514-0.148 0.225-0.318 0.454-0.38 0.718-0.041 0.172-0.026 0.394 0.020 0.562 0.029 0.106 0.046 0.23 0.079 0.332 0.040 0.127 0.142 0.228 0.213 0.339 0.18 0.281 0.367 0.563 0.49 0.876 0.034 0.089 0.071 0.173 0.113 0.26 0.079 0.167 0.092 0.324 0.125 0.503 0.051 0.277 0.027 0.599 0.015 0.879-0.010 0.244-0.101 0.498-0.195 0.719-0.087 0.205-0.109 0.445-0.165 0.663-0.082 0.332-0.114 0.746-0.051 1.079 0.115 0.605 0.187 1.212 0.268 1.822 0.034 0.262 0.044 0.513 0.039 0.777-0.003 0.212-0.094 0.404-0.105 0.612-0.009 0.179-0.012 0.357 0.049 0.525 0.054 0.149 0.114 0.291 0.144 0.448 0.020 0.099 0.020 0.2 0.060 0.297 0.056 0.14 0.16 0.244 0.193 0.398 0.014 0.071-0.007 0.112 0.059 0.154 0.095 0.061 0.348 0.015 0.467 0.012 0.146-0.003 0.161 0.003 0.208-0.118 0.031-0.078 0.033-0.202 0.038-0.288 0.012-0.267-0.045-0.54-0.131-0.79-0.101-0.297-0.139-0.613-0.228-0.916-0.098-0.334-0.152-0.644-0.026-0.977 0.106-0.277 0.139-0.511 0.132-0.806-0.007-0.32-0.134-0.597-0.198-0.904-0.045-0.22-0.021-0.499-0.014-0.721 0.012-0.358 0.18-0.726 0.31-1.055 0.092-0.233 0.154-0.444 0.153-0.696 0-0.2 0.007-0.397-0.029-0.594-0.027-0.146-0.086-0.28-0.113-0.427-0.052-0.282-0.082-0.506-0.251-0.746-0.148-0.214-0.161-0.297-0.165-0.538-0.006-0.485 0.175-0.959 0.206-1.442 0.027-0.43-0.351-0.878-0.056-1.289 0.208-0.29 1.33-1.162 1.455-0.42 0.093 0.554 0.227 1.178 0.011 1.712-0.089 0.219-0.076 0.441-0.137 0.666-0.046 0.174-0.107 0.379-0.117 0.558-0.008 0.139-0.013 0.293 0.002 0.432 0.024 0.218 0.137 0.379 0.202 0.584 0.051 0.154 0.1 0.315 0.148 0.471 0.041 0.135 0.056 0.273 0.102 0.406 0.052 0.151 0.055 0.292 0.054 0.45-0.003 0.325 0.014 0.627-0.069 0.946-0.094 0.354-0.254 0.74-0.437 1.057-0.104 0.179-0.213 0.354-0.254 0.556-0.046 0.226-0.154 0.453-0.153 0.685 0 0.215 0.105 0.404 0.104 0.624 0 0.159 0.029 0.306 0.062 0.461 0.036 0.171 0.075 0.34 0.089 0.516 0.015 0.187 0.060 0.257-0.052 0.439 0.179-0.042 0.399-0.168 0.538-0.288 0.108-0.094 0.069-0.207 0.068-0.339-0.003-0.225 0.019-0.457-0.008-0.681-0.033-0.275-0.14-0.533-0.138-0.814 0.003-0.415 0.192-0.743 0.33-1.123 0.174-0.479 0.34-0.943 0.437-1.446 0.045-0.232 0.072-0.466 0.115-0.697 0.048-0.254 0.118-0.508 0.118-0.767 0-0.412-0.18-0.81-0.25-1.211-0.047-0.274-0.048-0.531-0.048-0.81 0.002-0.415-0.040-0.798 0.048-1.21 0.051-0.242 0.154-0.437 0.154-0.687-0.001-0.117-0.002-0.219-0.027-0.332-0.015-0.075-0.065-0.22-0.022-0.294 0.106-0.181 0.471-0.003 0.568 0.111 0.106 0.125 0.133 0.272 0.152 0.43 0.031 0.255 0.049 0.513 0.031 0.771-0.025 0.337-0.124 0.718 0.011 1.044 0.066 0.161 0.175 0.298 0.237 0.463 0.069 0.187 0.104 0.377 0.141 0.571 0.042 0.219 0.099 0.464 0.076 0.687-0.026 0.244-0.173 0.467-0.298 0.674-0.151 0.251-0.346 0.498-0.406 0.791-0.119 0.592 0.211 1.183 0.064 1.769-0.058 0.233-0.201 0.443-0.321 0.647-0.052 0.088-0.108 0.148-0.106 0.248 0.002 0.112 0.060 0.163 0.158 0.179 0.301 0.047 0.511-0.24 0.681-0.438 0.294-0.34 0.671-0.701 0.82-1.132 0.091-0.264 0.102-0.558 0.104-0.836 0-0.391-0.105-0.773-0.145-1.16-0.032-0.313-0.071-0.627-0.093-0.94-0.039-0.513 0.015-1.004-0.119-1.51-0.072-0.268-0.198-0.531-0.241-0.806-0.033-0.212-0.011-0.452-0.004-0.665 0.012-0.467 0.271-0.926 0.514-1.315 0.135-0.215 0.344-0.402 0.527-0.575 0.177-0.166 0.421-0.333 0.559-0.534 0.106-0.152 0.177-0.402 0.208-0.58 0.015-0.087 0.011-0.162 0.047-0.245 0.124-0.281 0.338-0.538 0.483-0.81 0.188-0.353 0.414-0.679 0.759-0.893 0.3-0.187 0.666-0.339 1.005-0.447 0.228-0.073 0.532-0.086 0.73-0.233 0.047-0.035 0.087-0.084 0.134-0.12 0.195-0.148 0.457-0.221 0.686-0.297 0.39-0.126 0.756-0.264 1.127-0.43 0.131-0.058 0.258-0.074 0.397-0.108 0.278-0.068 0.54-0.191 0.824-0.239 0.344-0.059 0.676-0.084 1.014-0.174 0.148-0.039 0.295-0.079 0.446-0.111 0.111-0.024 0.287-0.012 0.387-0.059 0.351-0.166-0.361-0.678-0.504-0.754z"></path>
</svg>
